<?xml version="1.0" encoding="UTF-8"?>
<svg xmlns="http://www.w3.org/2000/svg" version="1.1" width="300" height="300" viewBox="0 0 300 300"><rect x="0" y="0" width="300" height="300" fill="#fefefe"/><g transform="scale(4.615)"><g transform="translate(4,4)"><path fill-rule="evenodd" d="M8 0L8 4L9 4L9 5L8 5L8 7L9 7L9 11L8 11L8 10L3 10L3 9L2 9L2 8L0 8L0 9L2 9L2 10L0 10L0 17L2 17L2 16L3 16L3 15L4 15L4 14L5 14L5 16L4 16L4 17L3 17L3 18L2 18L2 19L4 19L4 20L1 20L1 18L0 18L0 20L1 20L1 21L0 21L0 22L1 22L1 23L0 23L0 24L1 24L1 25L0 25L0 31L3 31L3 32L2 32L2 33L4 33L4 32L6 32L6 33L7 33L7 32L6 32L6 31L9 31L9 32L10 32L10 33L9 33L9 34L10 34L10 36L9 36L9 35L7 35L7 34L6 34L6 35L7 35L7 36L5 36L5 34L4 34L4 36L5 36L5 37L7 37L7 36L8 36L8 38L9 38L9 39L8 39L8 41L9 41L9 39L10 39L10 40L11 40L11 41L10 41L10 43L8 43L8 44L9 44L9 45L7 45L7 44L5 44L5 41L7 41L7 40L6 40L6 39L7 39L7 38L6 38L6 39L5 39L5 40L4 40L4 42L3 42L3 41L0 41L0 43L2 43L2 44L3 44L3 45L4 45L4 46L5 46L5 47L3 47L3 46L2 46L2 47L1 47L1 45L0 45L0 48L5 48L5 47L7 47L7 48L6 48L6 49L7 49L7 48L9 48L9 49L8 49L8 50L9 50L9 51L8 51L8 53L9 53L9 55L8 55L8 57L9 57L9 55L10 55L10 53L11 53L11 54L12 54L12 56L10 56L10 57L12 57L12 56L14 56L14 57L16 57L16 56L15 56L15 55L16 55L16 54L17 54L17 55L18 55L18 56L17 56L17 57L19 57L19 55L20 55L20 54L22 54L22 52L24 52L24 53L23 53L23 55L24 55L24 56L23 56L23 57L25 57L25 55L26 55L26 54L27 54L27 53L28 53L28 57L29 57L29 55L30 55L30 57L34 57L34 55L35 55L35 57L37 57L37 56L36 56L36 54L37 54L37 53L38 53L38 55L39 55L39 57L40 57L40 54L41 54L41 57L43 57L43 56L44 56L44 57L50 57L50 55L51 55L51 56L53 56L53 57L54 57L54 55L53 55L53 50L54 50L54 51L55 51L55 52L54 52L54 53L55 53L55 54L57 54L57 52L56 52L56 50L57 50L57 49L56 49L56 45L57 45L57 44L56 44L56 45L54 45L54 44L53 44L53 43L54 43L54 42L55 42L55 43L56 43L56 41L57 41L57 40L53 40L53 39L57 39L57 38L52 38L52 36L53 36L53 37L57 37L57 35L56 35L56 34L55 34L55 33L56 33L56 30L55 30L55 29L54 29L54 28L53 28L53 27L54 27L54 26L55 26L55 27L56 27L56 25L57 25L57 24L56 24L56 21L57 21L57 20L56 20L56 21L55 21L55 24L56 24L56 25L54 25L54 24L53 24L53 23L52 23L52 22L53 22L53 21L52 21L52 20L53 20L53 19L52 19L52 18L53 18L53 17L55 17L55 16L56 16L56 17L57 17L57 15L56 15L56 12L57 12L57 11L56 11L56 10L57 10L57 8L53 8L53 9L52 9L52 8L51 8L51 9L50 9L50 10L49 10L49 9L48 9L48 8L46 8L46 7L47 7L47 5L48 5L48 0L46 0L46 1L47 1L47 2L45 2L45 0L41 0L41 1L40 1L40 2L39 2L39 3L38 3L38 5L36 5L36 4L35 4L35 5L34 5L34 2L36 2L36 3L37 3L37 2L38 2L38 1L39 1L39 0L38 0L38 1L37 1L37 2L36 2L36 0L35 0L35 1L34 1L34 0L33 0L33 1L34 1L34 2L32 2L32 0L29 0L29 1L28 1L28 0L23 0L23 3L22 3L22 4L23 4L23 3L25 3L25 4L24 4L24 5L22 5L22 7L21 7L21 6L20 6L20 5L19 5L19 4L18 4L18 5L17 5L17 6L16 6L16 5L15 5L15 4L14 4L14 0L13 0L13 2L12 2L12 1L11 1L11 0L10 0L10 2L9 2L9 0ZM15 0L15 1L16 1L16 4L17 4L17 3L19 3L19 2L20 2L20 1L21 1L21 2L22 2L22 1L21 1L21 0L20 0L20 1L19 1L19 0L17 0L17 1L16 1L16 0ZM17 1L17 2L19 2L19 1ZM25 1L25 3L26 3L26 4L28 4L28 3L27 3L27 2L28 2L28 1ZM29 1L29 4L31 4L31 3L32 3L32 5L33 5L33 7L32 7L32 6L31 6L31 10L30 10L30 11L31 11L31 12L29 12L29 11L28 11L28 12L27 12L27 11L26 11L26 13L25 13L25 14L26 14L26 17L27 17L27 18L24 18L24 19L23 19L23 18L22 18L22 21L21 21L21 22L20 22L20 23L19 23L19 22L18 22L18 21L17 21L17 20L18 20L18 19L19 19L19 18L20 18L20 16L21 16L21 17L25 17L25 15L24 15L24 14L23 14L23 13L21 13L21 14L20 14L20 12L21 12L21 11L22 11L22 12L24 12L24 11L23 11L23 9L25 9L25 10L27 10L27 9L26 9L26 6L25 6L25 7L24 7L24 6L23 6L23 7L22 7L22 9L21 9L21 11L20 11L20 9L19 9L19 10L18 10L18 11L16 11L16 10L17 10L17 9L16 9L16 10L15 10L15 12L14 12L14 11L13 11L13 10L12 10L12 9L14 9L14 6L15 6L15 7L16 7L16 6L15 6L15 5L14 5L14 6L13 6L13 7L12 7L12 6L11 6L11 7L10 7L10 6L9 6L9 7L10 7L10 9L11 9L11 13L12 13L12 14L13 14L13 13L15 13L15 14L17 14L17 15L19 15L19 18L17 18L17 17L16 17L16 18L14 18L14 15L12 15L12 16L11 16L11 15L10 15L10 17L9 17L9 18L8 18L8 17L6 17L6 16L7 16L7 15L9 15L9 14L10 14L10 13L9 13L9 14L8 14L8 13L5 13L5 14L7 14L7 15L6 15L6 16L5 16L5 17L6 17L6 18L5 18L5 20L4 20L4 21L3 21L3 22L2 22L2 21L1 21L1 22L2 22L2 24L3 24L3 25L2 25L2 26L1 26L1 27L2 27L2 26L3 26L3 27L4 27L4 24L3 24L3 23L4 23L4 22L5 22L5 24L8 24L8 23L6 23L6 22L7 22L7 21L8 21L8 22L9 22L9 20L10 20L10 21L11 21L11 22L10 22L10 23L9 23L9 25L8 25L8 26L9 26L9 27L11 27L11 28L12 28L12 29L13 29L13 30L14 30L14 32L16 32L16 31L15 31L15 30L17 30L17 31L19 31L19 36L21 36L21 35L20 35L20 33L21 33L21 34L22 34L22 37L17 37L17 36L16 36L16 37L15 37L15 39L14 39L14 37L12 37L12 35L13 35L13 34L12 34L12 35L11 35L11 37L9 37L9 38L11 38L11 37L12 37L12 38L13 38L13 39L14 39L14 40L12 40L12 41L11 41L11 43L10 43L10 44L11 44L11 45L12 45L12 46L10 46L10 45L9 45L9 47L13 47L13 45L14 45L14 46L15 46L15 47L14 47L14 49L13 49L13 50L12 50L12 49L11 49L11 48L10 48L10 51L13 51L13 50L14 50L14 52L15 52L15 53L17 53L17 52L18 52L18 51L17 51L17 52L15 52L15 51L16 51L16 50L17 50L17 49L15 49L15 48L16 48L16 46L17 46L17 47L19 47L19 46L20 46L20 45L21 45L21 46L22 46L22 47L20 47L20 48L22 48L22 49L21 49L21 50L20 50L20 49L19 49L19 51L21 51L21 52L22 52L22 51L23 51L23 50L22 50L22 49L23 49L23 48L22 48L22 47L23 47L23 45L24 45L24 44L23 44L23 41L25 41L25 40L26 40L26 38L24 38L24 37L23 37L23 33L26 33L26 31L25 31L25 30L26 30L26 29L25 29L25 28L24 28L24 27L26 27L26 25L25 25L25 26L23 26L23 28L22 28L22 27L21 27L21 28L20 28L20 27L19 27L19 28L18 28L18 29L15 29L15 25L16 25L16 28L17 28L17 27L18 27L18 26L17 26L17 24L18 24L18 23L19 23L19 25L21 25L21 26L22 26L22 25L24 25L24 23L22 23L22 21L24 21L24 22L25 22L25 23L26 23L26 22L27 22L27 25L29 25L29 26L30 26L30 25L29 25L29 23L31 23L31 29L32 29L32 28L33 28L33 27L34 27L34 31L33 31L33 30L32 30L32 32L30 32L30 31L29 31L29 33L28 33L28 34L26 34L26 35L27 35L27 36L25 36L25 34L24 34L24 36L25 36L25 37L27 37L27 39L28 39L28 38L29 38L29 39L31 39L31 41L30 41L30 42L29 42L29 40L28 40L28 42L27 42L27 41L26 41L26 42L25 42L25 43L27 43L27 44L28 44L28 46L27 46L27 45L26 45L26 46L25 46L25 47L24 47L24 49L25 49L25 48L29 48L29 47L30 47L30 48L31 48L31 49L32 49L32 50L31 50L31 52L32 52L32 50L33 50L33 51L34 51L34 52L33 52L33 53L32 53L32 54L33 54L33 55L34 55L34 54L35 54L35 53L34 53L34 52L36 52L36 49L34 49L34 47L36 47L36 48L37 48L37 47L36 47L36 46L35 46L35 45L34 45L34 47L33 47L33 46L32 46L32 45L30 45L30 44L31 44L31 41L32 41L32 43L33 43L33 44L35 44L35 43L33 43L33 41L32 41L32 40L33 40L33 39L31 39L31 38L33 38L33 37L34 37L34 42L35 42L35 39L37 39L37 42L38 42L38 39L39 39L39 40L40 40L40 42L39 42L39 43L42 43L42 44L43 44L43 46L44 46L44 47L42 47L42 49L44 49L44 48L45 48L45 45L46 45L46 47L47 47L47 48L46 48L46 49L45 49L45 50L42 50L42 52L41 52L41 46L40 46L40 45L41 45L41 44L40 44L40 45L39 45L39 44L37 44L37 43L36 43L36 44L37 44L37 46L38 46L38 45L39 45L39 47L38 47L38 49L37 49L37 51L38 51L38 53L39 53L39 52L40 52L40 53L42 53L42 52L43 52L43 53L44 53L44 56L46 56L46 55L45 55L45 53L44 53L44 52L43 52L43 51L45 51L45 52L47 52L47 53L46 53L46 54L47 54L47 56L49 56L49 54L51 54L51 55L52 55L52 54L51 54L51 53L49 53L49 54L48 54L48 52L47 52L47 49L48 49L48 47L49 47L49 46L50 46L50 47L51 47L51 48L52 48L52 47L53 47L53 49L54 49L54 48L55 48L55 46L53 46L53 45L52 45L52 47L51 47L51 46L50 46L50 45L49 45L49 44L50 44L50 43L51 43L51 44L52 44L52 43L53 43L53 41L52 41L52 40L47 40L47 39L51 39L51 38L50 38L50 37L51 37L51 36L50 36L50 35L53 35L53 36L55 36L55 35L53 35L53 34L54 34L54 33L51 33L51 32L52 32L52 31L51 31L51 32L50 32L50 35L49 35L49 36L45 36L45 37L44 37L44 35L45 35L45 34L44 34L44 33L43 33L43 34L44 34L44 35L43 35L43 37L44 37L44 38L43 38L43 39L45 39L45 40L47 40L47 41L46 41L46 42L44 42L44 41L43 41L43 42L41 42L41 40L42 40L42 37L41 37L41 36L42 36L42 34L40 34L40 33L41 33L41 32L40 32L40 30L41 30L41 29L43 29L43 30L44 30L44 31L45 31L45 30L46 30L46 35L47 35L47 34L49 34L49 33L48 33L48 31L47 31L47 30L48 30L48 27L45 27L45 26L44 26L44 27L45 27L45 30L44 30L44 29L43 29L43 28L42 28L42 27L40 27L40 29L39 29L39 32L40 32L40 33L39 33L39 34L38 34L38 33L37 33L37 34L38 34L38 36L37 36L37 38L35 38L35 37L34 37L34 36L35 36L35 35L34 35L34 34L35 34L35 32L34 32L34 31L36 31L36 30L37 30L37 32L38 32L38 30L37 30L37 29L38 29L38 28L37 28L37 29L35 29L35 28L36 28L36 26L37 26L37 27L39 27L39 26L40 26L40 25L42 25L42 23L43 23L43 22L44 22L44 24L43 24L43 25L44 25L44 24L45 24L45 23L46 23L46 26L47 26L47 25L51 25L51 26L52 26L52 25L53 25L53 24L52 24L52 23L50 23L50 22L49 22L49 23L50 23L50 24L48 24L48 23L47 23L47 21L48 21L48 20L49 20L49 21L51 21L51 22L52 22L52 21L51 21L51 20L49 20L49 19L51 19L51 18L52 18L52 17L53 17L53 16L55 16L55 14L52 14L52 13L53 13L53 12L54 12L54 13L55 13L55 10L56 10L56 9L53 9L53 10L54 10L54 11L52 11L52 12L51 12L51 14L52 14L52 15L53 15L53 16L52 16L52 17L51 17L51 18L50 18L50 17L49 17L49 18L48 18L48 19L47 19L47 20L46 20L46 21L45 21L45 22L44 22L44 16L46 16L46 18L45 18L45 19L46 19L46 18L47 18L47 16L48 16L48 15L50 15L50 16L51 16L51 15L50 15L50 11L51 11L51 10L50 10L50 11L49 11L49 12L47 12L47 11L48 11L48 9L46 9L46 8L45 8L45 9L46 9L46 15L45 15L45 14L43 14L43 15L42 15L42 17L43 17L43 18L42 18L42 19L41 19L41 18L40 18L40 17L41 17L41 15L40 15L40 14L39 14L39 15L38 15L38 13L44 13L44 12L45 12L45 11L44 11L44 4L45 4L45 7L46 7L46 5L47 5L47 3L44 3L44 2L43 2L43 3L44 3L44 4L43 4L43 8L40 8L40 6L41 6L41 7L42 7L42 6L41 6L41 5L39 5L39 8L38 8L38 6L37 6L37 8L38 8L38 9L35 9L35 7L36 7L36 5L35 5L35 7L34 7L34 5L33 5L33 3L32 3L32 2L31 2L31 3L30 3L30 1ZM11 2L11 3L9 3L9 4L12 4L12 5L13 5L13 4L12 4L12 2ZM40 2L40 3L39 3L39 4L40 4L40 3L41 3L41 4L42 4L42 2ZM18 5L18 6L17 6L17 7L18 7L18 6L19 6L19 7L20 7L20 6L19 6L19 5ZM27 5L27 8L30 8L30 5ZM28 6L28 7L29 7L29 6ZM48 6L48 7L49 7L49 6ZM23 7L23 8L24 8L24 7ZM33 7L33 8L32 8L32 14L31 14L31 13L30 13L30 15L31 15L31 16L29 16L29 13L27 13L27 14L28 14L28 15L27 15L27 17L28 17L28 18L30 18L30 19L31 19L31 20L32 20L32 21L28 21L28 20L29 20L29 19L27 19L27 20L26 20L26 19L25 19L25 20L24 20L24 21L27 21L27 22L28 22L28 23L29 23L29 22L33 22L33 23L32 23L32 27L33 27L33 26L34 26L34 25L37 25L37 24L34 24L34 23L35 23L35 22L37 22L37 20L39 20L39 21L38 21L38 22L39 22L39 21L40 21L40 22L41 22L41 23L42 23L42 22L43 22L43 20L42 20L42 21L40 21L40 18L39 18L39 17L40 17L40 15L39 15L39 17L38 17L38 16L37 16L37 14L35 14L35 17L38 17L38 18L39 18L39 19L37 19L37 18L34 18L34 13L33 13L33 10L34 10L34 12L35 12L35 13L37 13L37 12L39 12L39 11L40 11L40 10L41 10L41 12L43 12L43 9L40 9L40 8L39 8L39 9L38 9L38 11L37 11L37 12L35 12L35 11L36 11L36 10L34 10L34 9L33 9L33 8L34 8L34 7ZM4 8L4 9L7 9L7 8ZM11 8L11 9L12 9L12 8ZM28 9L28 10L29 10L29 9ZM39 9L39 10L40 10L40 9ZM2 10L2 11L1 11L1 13L4 13L4 12L8 12L8 11L3 11L3 10ZM2 11L2 12L3 12L3 11ZM12 12L12 13L13 13L13 12ZM15 12L15 13L17 13L17 14L19 14L19 12L18 12L18 13L17 13L17 12ZM47 13L47 14L49 14L49 13ZM1 14L1 16L2 16L2 14ZM21 14L21 15L22 15L22 16L24 16L24 15L22 15L22 14ZM43 15L43 16L44 16L44 15ZM46 15L46 16L47 16L47 15ZM12 16L12 17L13 17L13 16ZM31 16L31 18L32 18L32 19L34 19L34 20L33 20L33 21L34 21L34 22L35 22L35 20L36 20L36 19L34 19L34 18L32 18L32 16ZM10 17L10 18L9 18L9 19L7 19L7 18L6 18L6 19L7 19L7 20L6 20L6 21L5 21L5 22L6 22L6 21L7 21L7 20L9 20L9 19L10 19L10 20L12 20L12 21L14 21L14 22L11 22L11 24L10 24L10 25L9 25L9 26L10 26L10 25L11 25L11 26L12 26L12 23L13 23L13 26L14 26L14 25L15 25L15 23L16 23L16 22L17 22L17 21L15 21L15 20L17 20L17 18L16 18L16 19L15 19L15 20L14 20L14 19L13 19L13 20L12 20L12 19L11 19L11 17ZM55 18L55 19L56 19L56 18ZM20 19L20 20L19 20L19 21L20 21L20 20L21 20L21 19ZM21 23L21 25L22 25L22 23ZM38 23L38 26L39 26L39 25L40 25L40 23ZM33 24L33 25L34 25L34 24ZM51 24L51 25L52 25L52 24ZM5 25L5 26L7 26L7 25ZM5 27L5 30L8 30L8 27ZM12 27L12 28L13 28L13 29L14 29L14 30L15 30L15 29L14 29L14 27ZM27 27L27 30L30 30L30 27ZM49 27L49 30L52 30L52 27ZM1 28L1 29L2 29L2 28ZM3 28L3 29L4 29L4 28ZM6 28L6 29L7 29L7 28ZM28 28L28 29L29 29L29 28ZM46 28L46 29L47 29L47 28ZM50 28L50 29L51 29L51 28ZM56 28L56 29L57 29L57 28ZM18 29L18 30L22 30L22 31L21 31L21 33L22 33L22 31L23 31L23 32L25 32L25 31L23 31L23 30L25 30L25 29L23 29L23 30L22 30L22 29ZM3 30L3 31L4 31L4 30ZM9 30L9 31L10 31L10 30ZM53 30L53 32L55 32L55 31L54 31L54 30ZM11 31L11 32L12 32L12 33L13 33L13 31ZM27 31L27 32L28 32L28 31ZM32 32L32 33L29 33L29 34L28 34L28 36L27 36L27 37L28 37L28 36L29 36L29 37L31 37L31 36L32 36L32 37L33 37L33 35L32 35L32 34L34 34L34 33L33 33L33 32ZM0 33L0 34L1 34L1 33ZM10 33L10 34L11 34L11 33ZM15 33L15 34L16 34L16 35L18 35L18 33ZM2 34L2 35L0 35L0 36L2 36L2 39L3 39L3 38L4 38L4 37L3 37L3 34ZM30 34L30 36L31 36L31 34ZM39 35L39 36L40 36L40 35ZM49 36L49 37L50 37L50 36ZM38 37L38 38L37 38L37 39L38 39L38 38L40 38L40 40L41 40L41 37ZM45 37L45 39L47 39L47 38L48 38L48 37L47 37L47 38L46 38L46 37ZM0 38L0 39L1 39L1 38ZM16 38L16 39L15 39L15 40L14 40L14 41L15 41L15 42L14 42L14 43L13 43L13 44L14 44L14 43L15 43L15 46L16 46L16 43L18 43L18 42L16 42L16 41L20 41L20 42L21 42L21 41L22 41L22 40L21 40L21 39L22 39L22 38L20 38L20 39L19 39L19 38ZM23 39L23 40L24 40L24 39ZM20 40L20 41L21 41L21 40ZM48 41L48 42L49 42L49 43L48 43L48 44L49 44L49 43L50 43L50 42L49 42L49 41ZM51 41L51 43L52 43L52 41ZM2 42L2 43L3 43L3 42ZM6 42L6 43L7 43L7 42ZM15 42L15 43L16 43L16 42ZM28 42L28 43L29 43L29 44L30 44L30 43L29 43L29 42ZM43 42L43 44L44 44L44 45L45 45L45 44L44 44L44 42ZM46 42L46 43L47 43L47 42ZM19 43L19 44L18 44L18 45L17 45L17 46L19 46L19 44L20 44L20 43ZM21 43L21 45L23 45L23 44L22 44L22 43ZM46 44L46 45L47 45L47 44ZM6 45L6 46L7 46L7 45ZM29 45L29 46L28 46L28 47L29 47L29 46L30 46L30 45ZM26 46L26 47L27 47L27 46ZM31 46L31 48L32 48L32 49L33 49L33 50L34 50L34 51L35 51L35 50L34 50L34 49L33 49L33 47L32 47L32 46ZM47 46L47 47L48 47L48 46ZM39 47L39 49L38 49L38 51L40 51L40 47ZM27 49L27 52L30 52L30 49ZM49 49L49 52L52 52L52 49ZM28 50L28 51L29 51L29 50ZM50 50L50 51L51 51L51 50ZM25 51L25 53L24 53L24 54L26 54L26 51ZM9 52L9 53L10 53L10 52ZM12 52L12 54L13 54L13 52ZM19 52L19 53L20 53L20 52ZM55 52L55 53L56 53L56 52ZM30 53L30 54L31 54L31 53ZM33 53L33 54L34 54L34 53ZM42 54L42 55L43 55L43 54ZM20 56L20 57L22 57L22 56ZM26 56L26 57L27 57L27 56ZM56 56L56 57L57 57L57 56ZM0 0L0 7L7 7L7 0ZM1 1L1 6L6 6L6 1ZM2 2L2 5L5 5L5 2ZM50 0L50 7L57 7L57 0ZM51 1L51 6L56 6L56 1ZM52 2L52 5L55 5L55 2ZM0 50L0 57L7 57L7 50ZM1 51L1 56L6 56L6 51ZM2 52L2 55L5 55L5 52Z" fill="#000000"/></g></g></svg>
