<?xml version="1.0" encoding="UTF-8"?>
<svg xmlns="http://www.w3.org/2000/svg" version="1.1" width="300" height="300" viewBox="0 0 300 300"><rect x="0" y="0" width="300" height="300" fill="#fefefe"/><g transform="scale(4.615)"><g transform="translate(4,4)"><path fill-rule="evenodd" d="M8 0L8 1L9 1L9 2L8 2L8 5L9 5L9 3L10 3L10 1L11 1L11 4L12 4L12 5L13 5L13 4L14 4L14 5L15 5L15 6L14 6L14 8L15 8L15 11L14 11L14 9L13 9L13 6L12 6L12 7L11 7L11 6L10 6L10 7L9 7L9 6L8 6L8 7L9 7L9 8L8 8L8 10L9 10L9 9L10 9L10 11L7 11L7 10L6 10L6 9L7 9L7 8L6 8L6 9L4 9L4 8L0 8L0 9L4 9L4 10L3 10L3 11L2 11L2 10L0 10L0 11L1 11L1 14L0 14L0 17L1 17L1 15L3 15L3 16L2 16L2 18L0 18L0 20L1 20L1 21L0 21L0 24L1 24L1 22L2 22L2 20L1 20L1 19L2 19L2 18L3 18L3 20L4 20L4 21L3 21L3 22L4 22L4 21L5 21L5 19L7 19L7 20L6 20L6 21L8 21L8 23L7 23L7 22L6 22L6 23L7 23L7 24L5 24L5 25L4 25L4 27L3 27L3 25L2 25L2 26L1 26L1 25L0 25L0 26L1 26L1 27L0 27L0 30L2 30L2 29L4 29L4 31L7 31L7 32L5 32L5 33L4 33L4 34L5 34L5 33L7 33L7 32L8 32L8 31L10 31L10 30L9 30L9 29L12 29L12 30L11 30L11 31L12 31L12 32L11 32L11 33L12 33L12 34L10 34L10 35L13 35L13 34L14 34L14 35L15 35L15 36L17 36L17 37L18 37L18 39L17 39L17 38L15 38L15 37L13 37L13 36L8 36L8 37L7 37L7 36L5 36L5 35L4 35L4 37L2 37L2 38L0 38L0 40L2 40L2 41L0 41L0 43L1 43L1 44L0 44L0 48L5 48L5 47L7 47L7 48L6 48L6 49L8 49L8 50L9 50L9 53L8 53L8 57L9 57L9 56L12 56L12 57L13 57L13 56L12 56L12 55L15 55L15 56L16 56L16 57L18 57L18 55L20 55L20 56L21 56L21 57L23 57L23 54L26 54L26 55L27 55L27 56L28 56L28 55L27 55L27 53L29 53L29 54L31 54L31 55L30 55L30 56L31 56L31 57L32 57L32 55L34 55L34 56L33 56L33 57L36 57L36 55L37 55L37 54L36 54L36 53L35 53L35 52L36 52L36 51L37 51L37 52L38 52L38 53L39 53L39 54L38 54L38 57L42 57L42 56L45 56L45 57L46 57L46 54L47 54L47 56L48 56L48 55L49 55L49 57L51 57L51 54L52 54L52 53L54 53L54 52L55 52L55 54L53 54L53 56L52 56L52 57L55 57L55 56L54 56L54 55L55 55L55 54L56 54L56 53L57 53L57 52L55 52L55 50L57 50L57 48L56 48L56 49L55 49L55 48L54 48L54 47L53 47L53 46L55 46L55 47L57 47L57 43L56 43L56 41L57 41L57 40L56 40L56 41L55 41L55 42L54 42L54 41L53 41L53 40L55 40L55 39L53 39L53 40L52 40L52 37L51 37L51 35L52 35L52 36L53 36L53 37L55 37L55 38L56 38L56 39L57 39L57 38L56 38L56 37L57 37L57 36L56 36L56 35L57 35L57 34L56 34L56 33L57 33L57 31L56 31L56 30L57 30L57 27L56 27L56 28L55 28L55 27L53 27L53 26L51 26L51 24L50 24L50 23L49 23L49 21L48 21L48 20L47 20L47 22L46 22L46 23L47 23L47 26L46 26L46 24L45 24L45 25L44 25L44 24L42 24L42 22L43 22L43 23L45 23L45 22L44 22L44 21L41 21L41 18L42 18L42 19L43 19L43 18L42 18L42 17L45 17L45 18L44 18L44 19L45 19L45 20L46 20L46 19L48 19L48 14L47 14L47 16L46 16L46 17L45 17L45 16L44 16L44 15L45 15L45 14L46 14L46 13L45 13L45 14L42 14L42 17L41 17L41 18L39 18L39 19L40 19L40 20L38 20L38 19L36 19L36 20L35 20L35 22L38 22L38 23L37 23L37 24L36 24L36 23L35 23L35 24L33 24L33 23L34 23L34 22L32 22L32 23L31 23L31 20L32 20L32 19L31 19L31 20L30 20L30 17L29 17L29 16L31 16L31 17L33 17L33 18L35 18L35 17L34 17L34 16L35 16L35 15L36 15L36 13L37 13L37 15L39 15L39 17L40 17L40 16L41 16L41 15L40 15L40 14L41 14L41 13L40 13L40 14L39 14L39 10L38 10L38 9L41 9L41 10L40 10L40 11L42 11L42 12L43 12L43 13L44 13L44 11L42 11L42 10L44 10L44 9L43 9L43 8L45 8L45 9L47 9L47 10L45 10L45 11L47 11L47 10L49 10L49 15L50 15L50 16L51 16L51 19L55 19L55 20L54 20L54 21L53 21L53 20L50 20L50 19L49 19L49 20L50 20L50 21L51 21L51 22L52 22L52 24L54 24L54 25L56 25L56 24L54 24L54 23L57 23L57 19L56 19L56 18L57 18L57 15L51 15L51 13L52 13L52 14L55 14L55 13L54 13L54 10L51 10L51 11L50 11L50 10L49 10L49 9L50 9L50 8L49 8L49 9L47 9L47 5L48 5L48 0L46 0L46 1L44 1L44 2L41 2L41 1L43 1L43 0L41 0L41 1L40 1L40 0L39 0L39 1L40 1L40 2L41 2L41 3L43 3L43 5L45 5L45 6L44 6L44 7L43 7L43 6L42 6L42 7L43 7L43 8L38 8L38 7L39 7L39 6L38 6L38 5L40 5L40 7L41 7L41 4L38 4L38 3L39 3L39 2L38 2L38 3L37 3L37 1L38 1L38 0L37 0L37 1L36 1L36 0L35 0L35 1L34 1L34 2L31 2L31 0L29 0L29 1L28 1L28 0L27 0L27 1L28 1L28 2L27 2L27 3L30 3L30 4L26 4L26 2L24 2L24 3L23 3L23 2L22 2L22 3L23 3L23 6L22 6L22 8L21 8L21 10L20 10L20 7L21 7L21 5L22 5L22 4L21 4L21 5L20 5L20 4L19 4L19 2L18 2L18 1L20 1L20 2L21 2L21 1L22 1L22 0L21 0L21 1L20 1L20 0L17 0L17 1L15 1L15 2L17 2L17 4L19 4L19 5L15 5L15 4L14 4L14 3L12 3L12 2L13 2L13 1L14 1L14 0L13 0L13 1L11 1L11 0L10 0L10 1L9 1L9 0ZM23 0L23 1L26 1L26 0ZM32 0L32 1L33 1L33 0ZM35 1L35 2L36 2L36 1ZM46 1L46 2L45 2L45 3L44 3L44 4L45 4L45 5L47 5L47 3L46 3L46 2L47 2L47 1ZM30 2L30 3L31 3L31 2ZM32 3L32 4L31 4L31 5L32 5L32 6L31 6L31 9L32 9L32 10L30 10L30 11L29 11L29 10L26 10L26 11L25 11L25 10L23 10L23 11L21 11L21 14L19 14L19 13L20 13L20 11L19 11L19 10L18 10L18 9L19 9L19 8L18 8L18 9L17 9L17 7L18 7L18 6L17 6L17 7L16 7L16 6L15 6L15 8L16 8L16 10L18 10L18 12L17 12L17 13L16 13L16 11L15 11L15 15L14 15L14 16L15 16L15 17L16 17L16 16L17 16L17 18L19 18L19 19L17 19L17 20L18 20L18 22L17 22L17 23L16 23L16 19L15 19L15 18L13 18L13 17L12 17L12 18L8 18L8 21L9 21L9 20L11 20L11 21L10 21L10 24L11 24L11 22L12 22L12 24L13 24L13 27L14 27L14 28L17 28L17 30L18 30L18 31L19 31L19 32L18 32L18 33L15 33L15 35L17 35L17 36L19 36L19 37L20 37L20 38L21 38L21 40L22 40L22 41L19 41L19 40L18 40L18 41L19 41L19 43L18 43L18 42L15 42L15 41L17 41L17 39L16 39L16 40L15 40L15 39L14 39L14 38L13 38L13 37L12 37L12 39L11 39L11 37L10 37L10 38L9 38L9 37L8 37L8 38L7 38L7 37L6 37L6 38L5 38L5 39L3 39L3 38L2 38L2 39L3 39L3 41L2 41L2 42L1 42L1 43L2 43L2 42L3 42L3 41L5 41L5 39L6 39L6 40L8 40L8 41L6 41L6 42L7 42L7 43L4 43L4 44L5 44L5 45L3 45L3 44L2 44L2 45L1 45L1 47L2 47L2 46L3 46L3 47L5 47L5 46L7 46L7 47L9 47L9 48L8 48L8 49L9 49L9 50L10 50L10 51L13 51L13 53L12 53L12 54L13 54L13 53L16 53L16 54L17 54L17 55L18 55L18 53L19 53L19 52L20 52L20 50L19 50L19 49L17 49L17 48L15 48L15 47L18 47L18 48L20 48L20 46L21 46L21 47L22 47L22 46L23 46L23 45L25 45L25 46L24 46L24 47L23 47L23 48L21 48L21 50L22 50L22 51L23 51L23 52L22 52L22 53L20 53L20 55L22 55L22 54L23 54L23 52L24 52L24 53L25 53L25 52L26 52L26 50L25 50L25 48L24 48L24 47L26 47L26 48L27 48L27 46L28 46L28 47L29 47L29 48L31 48L31 45L32 45L32 49L31 49L31 53L32 53L32 50L33 50L33 52L35 52L35 51L34 51L34 50L35 50L35 48L37 48L37 49L36 49L36 50L37 50L37 49L38 49L38 48L39 48L39 49L40 49L40 50L39 50L39 51L38 51L38 52L40 52L40 54L41 54L41 52L42 52L42 54L43 54L43 52L42 52L42 51L45 51L45 52L46 52L46 51L45 51L45 49L46 49L46 50L47 50L47 52L48 52L48 48L47 48L47 49L46 49L46 46L48 46L48 47L49 47L49 48L50 48L50 47L49 47L49 46L51 46L51 48L53 48L53 50L55 50L55 49L54 49L54 48L53 48L53 47L52 47L52 46L53 46L53 45L52 45L52 44L55 44L55 46L56 46L56 44L55 44L55 43L54 43L54 42L53 42L53 43L52 43L52 44L51 44L51 42L50 42L50 41L52 41L52 40L50 40L50 41L47 41L47 42L45 42L45 41L46 41L46 40L45 40L45 41L44 41L44 40L42 40L42 39L39 39L39 40L40 40L40 41L41 41L41 40L42 40L42 42L43 42L43 43L42 43L42 45L43 45L43 46L45 46L45 48L44 48L44 50L43 50L43 47L40 47L40 46L41 46L41 45L40 45L40 44L39 44L39 43L40 43L40 42L39 42L39 41L37 41L37 40L38 40L38 39L37 39L37 37L39 37L39 36L40 36L40 37L41 37L41 35L42 35L42 36L43 36L43 35L44 35L44 34L43 34L43 35L42 35L42 34L41 34L41 35L37 35L37 37L35 37L35 36L36 36L36 35L35 35L35 32L34 32L34 31L33 31L33 32L31 32L31 33L32 33L32 35L31 35L31 34L30 34L30 35L29 35L29 33L30 33L30 31L28 31L28 33L26 33L26 32L27 32L27 31L26 31L26 32L25 32L25 30L26 30L26 28L24 28L24 30L21 30L21 29L23 29L23 27L22 27L22 26L21 26L21 27L20 27L20 30L19 30L19 29L18 29L18 28L19 28L19 27L16 27L16 26L17 26L17 25L16 25L16 26L15 26L15 25L14 25L14 24L15 24L15 23L16 23L16 24L17 24L17 23L19 23L19 22L21 22L21 23L20 23L20 24L19 24L19 25L18 25L18 26L19 26L19 25L20 25L20 24L21 24L21 23L22 23L22 25L23 25L23 26L24 26L24 27L25 27L25 25L27 25L27 26L31 26L31 25L29 25L29 24L26 24L26 23L27 23L27 22L25 22L25 19L26 19L26 18L25 18L25 17L26 17L26 16L27 16L27 14L26 14L26 12L28 12L28 13L30 13L30 14L31 14L31 16L32 16L32 14L33 14L33 15L35 15L35 12L38 12L38 11L37 11L37 8L36 8L36 9L34 9L34 6L35 6L35 7L36 7L36 6L37 6L37 7L38 7L38 6L37 6L37 5L36 5L36 4L35 4L35 3ZM24 4L24 6L23 6L23 7L24 7L24 8L25 8L25 9L26 9L26 6L25 6L25 5L26 5L26 4ZM27 5L27 8L30 8L30 5ZM33 5L33 6L32 6L32 8L33 8L33 6L34 6L34 5ZM19 6L19 7L20 7L20 6ZM24 6L24 7L25 7L25 6ZM28 6L28 7L29 7L29 6ZM45 6L45 7L46 7L46 6ZM48 6L48 7L49 7L49 6ZM10 7L10 8L11 8L11 7ZM52 8L52 9L55 9L55 8ZM56 8L56 9L57 9L57 8ZM11 9L11 11L10 11L10 12L9 12L9 13L6 13L6 12L7 12L7 11L6 11L6 12L5 12L5 13L4 13L4 14L3 14L3 15L4 15L4 14L5 14L5 17L6 17L6 18L7 18L7 17L6 17L6 16L7 16L7 15L8 15L8 14L12 14L12 15L10 15L10 16L13 16L13 14L14 14L14 13L13 13L13 14L12 14L12 13L10 13L10 12L13 12L13 10L12 10L12 9ZM4 10L4 11L5 11L5 10ZM33 10L33 14L34 14L34 12L35 12L35 11L36 11L36 10L35 10L35 11L34 11L34 10ZM55 10L55 12L56 12L56 13L57 13L57 12L56 12L56 11L57 11L57 10ZM23 11L23 12L22 12L22 13L23 13L23 15L25 15L25 16L23 16L23 18L24 18L24 19L25 19L25 18L24 18L24 17L25 17L25 16L26 16L26 14L24 14L24 12L25 12L25 11ZM30 11L30 12L31 12L31 14L32 14L32 11ZM51 11L51 12L50 12L50 13L51 13L51 12L52 12L52 13L53 13L53 11ZM2 12L2 13L3 13L3 12ZM18 12L18 13L19 13L19 12ZM6 14L6 15L7 15L7 14ZM16 14L16 15L15 15L15 16L16 16L16 15L18 15L18 16L20 16L20 15L18 15L18 14ZM28 15L28 16L29 16L29 15ZM3 16L3 17L4 17L4 16ZM8 16L8 17L9 17L9 16ZM52 16L52 17L53 17L53 18L54 18L54 17L53 17L53 16ZM21 17L21 18L20 18L20 19L19 19L19 20L21 20L21 22L23 22L23 24L24 24L24 25L25 25L25 22L24 22L24 21L23 21L23 19L22 19L22 20L21 20L21 18L22 18L22 17ZM27 17L27 20L26 20L26 21L27 21L27 20L28 20L28 18L29 18L29 17ZM36 17L36 18L37 18L37 17ZM55 17L55 18L56 18L56 17ZM4 18L4 19L5 19L5 18ZM45 18L45 19L46 19L46 18ZM11 19L11 20L13 20L13 21L12 21L12 22L13 22L13 24L14 24L14 20L15 20L15 19ZM33 20L33 21L34 21L34 20ZM36 20L36 21L37 21L37 20ZM28 21L28 23L30 23L30 21ZM38 21L38 22L39 22L39 21ZM54 21L54 22L53 22L53 23L54 23L54 22L56 22L56 21ZM47 22L47 23L48 23L48 22ZM3 23L3 24L4 24L4 23ZM8 23L8 24L7 24L7 25L5 25L5 26L7 26L7 25L8 25L8 26L9 26L9 27L12 27L12 26L11 26L11 25L9 25L9 23ZM38 23L38 24L39 24L39 26L38 26L38 27L39 27L39 26L40 26L40 25L41 25L41 23ZM32 24L32 25L33 25L33 24ZM48 24L48 26L49 26L49 25L50 25L50 24ZM34 25L34 27L35 27L35 28L34 28L34 29L35 29L35 30L36 30L36 31L37 31L37 32L36 32L36 33L37 33L37 32L38 32L38 34L39 34L39 31L38 31L38 30L40 30L40 32L41 32L41 31L43 31L43 29L42 29L42 30L41 30L41 27L40 27L40 29L38 29L38 30L36 30L36 29L37 29L37 28L36 28L36 27L35 27L35 25ZM42 25L42 26L43 26L43 27L42 27L42 28L44 28L44 27L45 27L45 30L46 30L46 27L45 27L45 26L43 26L43 25ZM14 26L14 27L15 27L15 26ZM1 27L1 28L2 28L2 27ZM5 27L5 30L8 30L8 27ZM27 27L27 30L30 30L30 27ZM31 27L31 28L33 28L33 27ZM47 27L47 28L48 28L48 27ZM49 27L49 30L52 30L52 27ZM6 28L6 29L7 29L7 28ZM28 28L28 29L29 29L29 28ZM50 28L50 29L51 29L51 28ZM53 28L53 32L52 32L52 34L54 34L54 33L55 33L55 30L56 30L56 29L54 29L54 28ZM13 29L13 30L12 30L12 31L13 31L13 30L14 30L14 32L16 32L16 31L15 31L15 30L16 30L16 29L15 29L15 30L14 30L14 29ZM32 29L32 30L31 30L31 31L32 31L32 30L33 30L33 29ZM20 30L20 31L21 31L21 30ZM47 30L47 31L44 31L44 33L45 33L45 36L44 36L44 37L42 37L42 38L44 38L44 39L46 39L46 38L48 38L48 39L47 39L47 40L49 40L49 38L48 38L48 37L50 37L50 36L48 36L48 35L49 35L49 34L50 34L50 33L49 33L49 32L51 32L51 31L49 31L49 32L48 32L48 30ZM2 31L2 32L0 32L0 33L2 33L2 34L0 34L0 35L1 35L1 36L0 36L0 37L1 37L1 36L2 36L2 34L3 34L3 33L2 33L2 32L3 32L3 31ZM22 31L22 32L20 32L20 33L19 33L19 36L20 36L20 33L21 33L21 34L22 34L22 35L21 35L21 36L23 36L23 38L22 38L22 40L23 40L23 39L24 39L24 41L25 41L25 42L23 42L23 41L22 41L22 44L21 44L21 43L19 43L19 45L17 45L17 46L18 46L18 47L19 47L19 46L20 46L20 44L21 44L21 46L22 46L22 44L23 44L23 43L25 43L25 45L26 45L26 46L27 46L27 45L26 45L26 43L25 43L25 42L29 42L29 43L27 43L27 44L28 44L28 45L29 45L29 46L30 46L30 44L29 44L29 43L31 43L31 44L32 44L32 42L33 42L33 45L34 45L34 44L35 44L35 45L36 45L36 47L38 47L38 45L39 45L39 44L38 44L38 43L39 43L39 42L37 42L37 44L38 44L38 45L36 45L36 43L34 43L34 42L36 42L36 41L34 41L34 40L35 40L35 39L36 39L36 38L34 38L34 37L33 37L33 38L32 38L32 36L33 36L33 35L32 35L32 36L29 36L29 35L28 35L28 34L27 34L27 36L26 36L26 37L27 37L27 36L29 36L29 38L26 38L26 41L25 41L25 39L24 39L24 37L25 37L25 36L23 36L23 35L24 35L24 34L25 34L25 32L24 32L24 33L23 33L23 31ZM9 32L9 33L8 33L8 34L9 34L9 33L10 33L10 32ZM12 32L12 33L13 33L13 32ZM42 32L42 33L43 33L43 32ZM22 33L22 34L23 34L23 33ZM6 34L6 35L7 35L7 34ZM46 34L46 35L48 35L48 34ZM54 35L54 36L55 36L55 37L56 37L56 36L55 36L55 35ZM46 36L46 37L45 37L45 38L46 38L46 37L47 37L47 36ZM6 38L6 39L7 39L7 38ZM30 38L30 39L28 39L28 40L27 40L27 41L29 41L29 42L30 42L30 41L31 41L31 40L33 40L33 39L32 39L32 38ZM50 38L50 39L51 39L51 38ZM9 39L9 40L10 40L10 39ZM14 40L14 41L13 41L13 43L14 43L14 44L12 44L12 46L10 46L10 44L11 44L11 43L12 43L12 42L11 42L11 41L8 41L8 42L9 42L9 43L7 43L7 44L6 44L6 45L7 45L7 44L9 44L9 45L8 45L8 46L10 46L10 47L11 47L11 48L10 48L10 50L11 50L11 48L12 48L12 50L14 50L14 49L15 49L15 51L14 51L14 52L16 52L16 51L17 51L17 52L18 52L18 50L16 50L16 49L15 49L15 48L14 48L14 47L15 47L15 46L13 46L13 45L16 45L16 44L17 44L17 43L14 43L14 41L15 41L15 40ZM29 40L29 41L30 41L30 40ZM10 42L10 43L11 43L11 42ZM47 42L47 43L44 43L44 44L49 44L49 43L50 43L50 42L49 42L49 43L48 43L48 42ZM50 44L50 45L51 45L51 44ZM48 45L48 46L49 46L49 45ZM12 46L12 47L13 47L13 46ZM34 46L34 47L35 47L35 46ZM23 48L23 49L22 49L22 50L23 50L23 49L24 49L24 48ZM33 48L33 50L34 50L34 48ZM41 48L41 49L42 49L42 48ZM27 49L27 52L30 52L30 49ZM49 49L49 52L52 52L52 49ZM24 50L24 51L25 51L25 50ZM28 50L28 51L29 51L29 50ZM50 50L50 51L51 51L51 50ZM40 51L40 52L41 52L41 51ZM10 53L10 54L9 54L9 55L10 55L10 54L11 54L11 53ZM47 53L47 54L50 54L50 53ZM34 54L34 55L36 55L36 54ZM44 54L44 55L45 55L45 54ZM24 55L24 56L25 56L25 55ZM39 55L39 56L40 56L40 55ZM56 55L56 56L57 56L57 55ZM0 0L0 7L7 7L7 0ZM1 1L1 6L6 6L6 1ZM2 2L2 5L5 5L5 2ZM50 0L50 7L57 7L57 0ZM51 1L51 6L56 6L56 1ZM52 2L52 5L55 5L55 2ZM0 50L0 57L7 57L7 50ZM1 51L1 56L6 56L6 51ZM2 52L2 55L5 55L5 52Z" fill="#000000"/></g></g></svg>
