<?xml version="1.0" encoding="UTF-8"?>
<svg xmlns="http://www.w3.org/2000/svg" version="1.1" width="300" height="300" viewBox="0 0 300 300"><rect x="0" y="0" width="300" height="300" fill="#fefefe"/><g transform="scale(4.615)"><g transform="translate(4,4)"><path fill-rule="evenodd" d="M8 0L8 4L9 4L9 2L10 2L10 5L8 5L8 7L9 7L9 6L10 6L10 7L11 7L11 8L12 8L12 9L11 9L11 11L8 11L8 10L6 10L6 11L5 11L5 13L4 13L4 10L3 10L3 9L2 9L2 8L0 8L0 10L1 10L1 9L2 9L2 10L3 10L3 11L2 11L2 12L0 12L0 13L1 13L1 15L0 15L0 16L1 16L1 18L0 18L0 19L1 19L1 18L2 18L2 19L5 19L5 20L4 20L4 21L7 21L7 22L6 22L6 23L5 23L5 22L3 22L3 20L2 20L2 21L1 21L1 20L0 20L0 23L1 23L1 25L0 25L0 26L1 26L1 27L0 27L0 28L1 28L1 29L0 29L0 30L1 30L1 29L2 29L2 28L3 28L3 30L2 30L2 31L1 31L1 32L0 32L0 33L1 33L1 34L0 34L0 35L2 35L2 36L3 36L3 37L4 37L4 38L3 38L3 39L2 39L2 37L0 37L0 40L1 40L1 41L0 41L0 42L3 42L3 41L2 41L2 40L4 40L4 42L5 42L5 45L4 45L4 43L3 43L3 44L2 44L2 45L1 45L1 44L0 44L0 45L1 45L1 46L0 46L0 48L5 48L5 47L7 47L7 48L6 48L6 49L8 49L8 50L10 50L10 52L9 52L9 51L8 51L8 53L9 53L9 54L10 54L10 55L11 55L11 56L9 56L9 55L8 55L8 57L12 57L12 56L14 56L14 57L15 57L15 55L16 55L16 54L19 54L19 55L20 55L20 54L21 54L21 56L18 56L18 55L17 55L17 57L22 57L22 54L23 54L23 55L24 55L24 56L23 56L23 57L25 57L25 56L26 56L26 57L27 57L27 56L26 56L26 55L27 55L27 53L28 53L28 57L29 57L29 55L30 55L30 57L34 57L34 53L35 53L35 57L37 57L37 56L36 56L36 54L37 54L37 55L39 55L39 57L40 57L40 54L43 54L43 55L41 55L41 57L43 57L43 55L44 55L44 57L45 57L45 56L46 56L46 57L47 57L47 56L46 56L46 55L47 55L47 54L46 54L46 52L45 52L45 51L43 51L43 52L41 52L41 53L40 53L40 52L38 52L38 51L40 51L40 46L41 46L41 51L42 51L42 50L44 50L44 49L47 49L47 52L48 52L48 54L49 54L49 57L50 57L50 55L51 55L51 56L53 56L53 55L55 55L55 54L57 54L57 53L56 53L56 51L55 51L55 49L56 49L56 45L55 45L55 48L53 48L53 47L54 47L54 46L53 46L53 47L52 47L52 45L54 45L54 44L53 44L53 43L54 43L54 42L55 42L55 44L56 44L56 42L57 42L57 40L54 40L54 41L53 41L53 40L52 40L52 36L53 36L53 39L54 39L54 38L55 38L55 39L57 39L57 38L55 38L55 37L57 37L57 35L56 35L56 34L57 34L57 33L56 33L56 30L54 30L54 28L53 28L53 27L54 27L54 26L55 26L55 24L56 24L56 25L57 25L57 24L56 24L56 21L57 21L57 19L56 19L56 18L57 18L57 15L56 15L56 13L57 13L57 11L56 11L56 10L57 10L57 8L53 8L53 9L52 9L52 8L51 8L51 9L50 9L50 10L49 10L49 9L48 9L48 8L49 8L49 6L48 6L48 7L47 7L47 5L48 5L48 0L41 0L41 1L40 1L40 2L39 2L39 3L40 3L40 4L38 4L38 3L37 3L37 2L38 2L38 1L39 1L39 0L38 0L38 1L37 1L37 2L36 2L36 0L35 0L35 1L34 1L34 0L33 0L33 1L34 1L34 2L32 2L32 1L31 1L31 0L28 0L28 2L29 2L29 1L30 1L30 2L32 2L32 3L31 3L31 4L30 4L30 3L27 3L27 4L26 4L26 3L25 3L25 2L26 2L26 1L27 1L27 0L26 0L26 1L25 1L25 0L23 0L23 2L22 2L22 1L21 1L21 0L20 0L20 1L19 1L19 0L17 0L17 1L16 1L16 0L14 0L14 1L13 1L13 0L12 0L12 1L13 1L13 2L11 2L11 0L10 0L10 1L9 1L9 0ZM14 1L14 4L15 4L15 5L16 5L16 6L15 6L15 7L16 7L16 6L17 6L17 7L18 7L18 6L19 6L19 7L20 7L20 6L21 6L21 8L22 8L22 9L21 9L21 10L20 10L20 9L19 9L19 10L18 10L18 11L17 11L17 13L15 13L15 12L16 12L16 10L17 10L17 9L16 9L16 10L15 10L15 12L14 12L14 11L13 11L13 10L12 10L12 11L11 11L11 12L12 12L12 13L15 13L15 14L17 14L17 15L18 15L18 16L19 16L19 17L16 17L16 18L20 18L20 19L22 19L22 21L24 21L24 22L25 22L25 23L26 23L26 22L28 22L28 23L27 23L27 25L28 25L28 26L29 26L29 22L28 22L28 21L32 21L32 20L30 20L30 18L28 18L28 17L26 17L26 16L27 16L27 15L28 15L28 14L26 14L26 16L25 16L25 14L24 14L24 15L23 15L23 13L21 13L21 14L20 14L20 13L19 13L19 14L17 14L17 13L18 13L18 12L20 12L20 11L22 11L22 12L24 12L24 11L25 11L25 10L28 10L28 12L27 12L27 11L26 11L26 13L29 13L29 16L31 16L31 17L32 17L32 18L33 18L33 20L34 20L34 18L37 18L37 20L38 20L38 21L37 21L37 22L35 22L35 21L34 21L34 22L30 22L30 23L31 23L31 24L30 24L30 25L31 25L31 29L32 29L32 30L31 30L31 32L30 32L30 31L28 31L28 32L29 32L29 33L28 33L28 34L27 34L27 36L28 36L28 37L26 37L26 38L27 38L27 39L25 39L25 38L24 38L24 37L23 37L23 36L22 36L22 37L18 37L18 38L17 38L17 35L18 35L18 36L21 36L21 35L22 35L22 34L23 34L23 33L26 33L26 32L24 32L24 30L23 30L23 29L25 29L25 30L26 30L26 29L25 29L25 28L22 28L22 27L21 27L21 26L20 26L20 25L21 25L21 24L22 24L22 25L24 25L24 23L23 23L23 24L22 24L22 22L20 22L20 23L19 23L19 21L20 21L20 20L19 20L19 19L18 19L18 20L19 20L19 21L17 21L17 19L15 19L15 17L14 17L14 15L12 15L12 14L11 14L11 15L10 15L10 13L9 13L9 15L10 15L10 16L11 16L11 17L10 17L10 18L12 18L12 19L11 19L11 20L10 20L10 19L9 19L9 17L8 17L8 18L7 18L7 17L6 17L6 16L7 16L7 15L6 15L6 14L7 14L7 13L8 13L8 12L7 12L7 11L6 11L6 12L7 12L7 13L5 13L5 14L4 14L4 13L3 13L3 12L2 12L2 14L4 14L4 15L3 15L3 16L2 16L2 17L4 17L4 18L5 18L5 19L6 19L6 20L7 20L7 21L8 21L8 20L10 20L10 22L9 22L9 23L10 23L10 22L11 22L11 21L12 21L12 23L11 23L11 25L10 25L10 24L7 24L7 23L8 23L8 22L7 22L7 23L6 23L6 24L7 24L7 25L6 25L6 26L9 26L9 28L11 28L11 26L13 26L13 28L12 28L12 29L10 29L10 30L12 30L12 31L10 31L10 33L14 33L14 31L13 31L13 30L12 30L12 29L14 29L14 30L17 30L17 31L18 31L18 32L17 32L17 33L16 33L16 31L15 31L15 33L16 33L16 34L14 34L14 36L15 36L15 35L16 35L16 37L15 37L15 39L13 39L13 36L12 36L12 35L11 35L11 36L10 36L10 35L9 35L9 37L5 37L5 38L4 38L4 39L5 39L5 38L7 38L7 39L6 39L6 40L5 40L5 42L7 42L7 43L6 43L6 44L7 44L7 45L6 45L6 46L7 46L7 47L8 47L8 45L9 45L9 44L10 44L10 46L12 46L12 39L13 39L13 40L14 40L14 41L16 41L16 43L15 43L15 44L16 44L16 46L15 46L15 45L14 45L14 42L13 42L13 45L14 45L14 47L15 47L15 48L14 48L14 49L16 49L16 50L14 50L14 52L13 52L13 54L12 54L12 55L13 55L13 54L14 54L14 53L17 53L17 52L18 52L18 51L22 51L22 49L23 49L23 48L22 48L22 47L23 47L23 45L25 45L25 43L27 43L27 44L29 44L29 45L28 45L28 48L29 48L29 47L30 47L30 48L31 48L31 47L32 47L32 46L33 46L33 45L31 45L31 42L30 42L30 41L32 41L32 43L33 43L33 44L37 44L37 45L34 45L34 47L33 47L33 49L34 49L34 50L33 50L33 51L34 51L34 52L33 52L33 53L32 53L32 54L33 54L33 53L34 53L34 52L36 52L36 49L34 49L34 47L35 47L35 46L38 46L38 45L39 45L39 46L40 46L40 45L41 45L41 43L42 43L42 44L43 44L43 45L44 45L44 43L45 43L45 45L46 45L46 47L47 47L47 49L48 49L48 47L49 47L49 48L50 48L50 47L51 47L51 45L50 45L50 47L49 47L49 44L50 44L50 43L51 43L51 44L52 44L52 43L53 43L53 41L52 41L52 40L47 40L47 39L49 39L49 38L50 38L50 39L51 39L51 38L50 38L50 37L51 37L51 36L50 36L50 35L53 35L53 36L55 36L55 35L53 35L53 34L54 34L54 32L55 32L55 31L54 31L54 30L53 30L53 33L51 33L51 31L50 31L50 35L49 35L49 33L48 33L48 31L47 31L47 30L48 30L48 26L47 26L47 25L49 25L49 26L50 26L50 25L49 25L49 24L48 24L48 23L47 23L47 21L46 21L46 18L47 18L47 20L48 20L48 21L51 21L51 22L52 22L52 23L50 23L50 22L49 22L49 23L50 23L50 24L52 24L52 25L51 25L51 26L52 26L52 25L54 25L54 24L55 24L55 23L53 23L53 22L55 22L55 21L56 21L56 19L55 19L55 18L56 18L56 16L55 16L55 15L54 15L54 14L52 14L52 13L53 13L53 12L54 12L54 13L55 13L55 10L56 10L56 9L53 9L53 10L54 10L54 11L52 11L52 9L51 9L51 10L50 10L50 11L49 11L49 10L48 10L48 9L46 9L46 5L47 5L47 3L44 3L44 2L43 2L43 3L42 3L42 2L40 2L40 3L41 3L41 4L43 4L43 8L40 8L40 6L41 6L41 7L42 7L42 6L41 6L41 5L39 5L39 8L40 8L40 9L39 9L39 10L38 10L38 4L37 4L37 3L36 3L36 2L34 2L34 3L32 3L32 5L33 5L33 4L34 4L34 5L35 5L35 7L34 7L34 6L33 6L33 7L32 7L32 6L31 6L31 12L29 12L29 9L26 9L26 6L25 6L25 7L24 7L24 6L23 6L23 5L24 5L24 4L25 4L25 3L23 3L23 4L22 4L22 3L21 3L21 1L20 1L20 3L17 3L17 4L16 4L16 1ZM18 1L18 2L19 2L19 1ZM45 1L45 2L47 2L47 1ZM11 3L11 5L12 5L12 6L11 6L11 7L12 7L12 8L13 8L13 9L14 9L14 8L13 8L13 7L14 7L14 5L13 5L13 3ZM34 3L34 4L35 4L35 5L36 5L36 7L35 7L35 9L37 9L37 5L36 5L36 4L35 4L35 3ZM43 3L43 4L44 4L44 9L41 9L41 12L43 12L43 10L44 10L44 11L45 11L45 12L44 12L44 13L38 13L38 15L39 15L39 17L38 17L38 16L37 16L37 14L35 14L35 17L38 17L38 18L39 18L39 19L38 19L38 20L39 20L39 21L38 21L38 23L39 23L39 25L38 25L38 26L39 26L39 25L40 25L40 23L39 23L39 21L40 21L40 22L43 22L43 24L44 24L44 25L45 25L45 26L46 26L46 27L47 27L47 26L46 26L46 24L44 24L44 22L45 22L45 23L46 23L46 21L45 21L45 18L46 18L46 16L47 16L47 18L48 18L48 19L49 19L49 20L51 20L51 21L52 21L52 22L53 22L53 21L52 21L52 20L53 20L53 19L52 19L52 18L53 18L53 17L52 17L52 14L51 14L51 12L52 12L52 11L50 11L50 16L49 16L49 15L48 15L48 16L47 16L47 15L46 15L46 9L45 9L45 4L44 4L44 3ZM18 4L18 5L17 5L17 6L18 6L18 5L19 5L19 6L20 6L20 5L19 5L19 4ZM21 5L21 6L22 6L22 7L23 7L23 10L25 10L25 8L24 8L24 7L23 7L23 6L22 6L22 5ZM27 5L27 8L30 8L30 5ZM12 6L12 7L13 7L13 6ZM28 6L28 7L29 7L29 6ZM33 7L33 8L32 8L32 11L33 11L33 10L34 10L34 12L35 12L35 13L37 13L37 12L39 12L39 11L38 11L38 10L37 10L37 12L35 12L35 11L36 11L36 10L34 10L34 9L33 9L33 8L34 8L34 7ZM4 8L4 9L7 9L7 8ZM44 9L44 10L45 10L45 9ZM19 10L19 11L20 11L20 10ZM12 11L12 12L13 12L13 11ZM48 11L48 12L49 12L49 11ZM32 12L32 13L33 13L33 14L31 14L31 13L30 13L30 15L32 15L32 17L33 17L33 18L34 18L34 13L33 13L33 12ZM47 13L47 14L49 14L49 13ZM19 14L19 15L20 15L20 14ZM21 14L21 15L22 15L22 16L23 16L23 15L22 15L22 14ZM43 14L43 15L42 15L42 17L43 17L43 18L42 18L42 19L41 19L41 18L40 18L40 17L41 17L41 15L40 15L40 17L39 17L39 18L40 18L40 21L42 21L42 20L43 20L43 22L44 22L44 16L45 16L45 15L44 15L44 14ZM4 15L4 17L5 17L5 18L6 18L6 19L7 19L7 18L6 18L6 17L5 17L5 15ZM43 15L43 16L44 16L44 15ZM20 16L20 18L23 18L23 19L24 19L24 18L25 18L25 20L24 20L24 21L25 21L25 20L26 20L26 21L28 21L28 20L29 20L29 19L28 19L28 20L26 20L26 17L21 17L21 16ZM50 16L50 17L49 17L49 18L50 18L50 19L51 19L51 18L52 18L52 17L51 17L51 16ZM54 16L54 17L55 17L55 16ZM12 17L12 18L14 18L14 17ZM50 17L50 18L51 18L51 17ZM12 19L12 21L14 21L14 23L16 23L16 22L17 22L17 21L15 21L15 20L14 20L14 19ZM35 19L35 20L36 20L36 19ZM2 22L2 25L3 25L3 26L2 26L2 27L1 27L1 28L2 28L2 27L3 27L3 28L4 28L4 27L3 27L3 26L5 26L5 25L4 25L4 23L3 23L3 22ZM34 22L34 23L32 23L32 27L33 27L33 28L32 28L32 29L33 29L33 31L34 31L34 32L32 32L32 34L31 34L31 33L29 33L29 34L28 34L28 36L29 36L29 37L31 37L31 36L32 36L32 37L33 37L33 38L31 38L31 39L29 39L29 38L28 38L28 39L27 39L27 40L25 40L25 41L24 41L24 39L23 39L23 37L22 37L22 39L23 39L23 42L26 42L26 41L27 41L27 42L28 42L28 43L29 43L29 42L28 42L28 41L30 41L30 40L31 40L31 39L33 39L33 40L32 40L32 41L33 41L33 43L37 43L37 44L39 44L39 45L40 45L40 42L43 42L43 41L40 41L40 39L41 39L41 40L42 40L42 39L43 39L43 40L44 40L44 41L45 41L45 42L46 42L46 39L47 39L47 38L46 38L46 37L45 37L45 35L46 35L46 33L47 33L47 31L46 31L46 30L45 30L45 27L44 27L44 26L43 26L43 25L42 25L42 24L41 24L41 25L42 25L42 28L43 28L43 27L44 27L44 29L40 29L40 27L37 27L37 26L36 26L36 28L35 28L35 31L34 31L34 27L33 27L33 26L34 26L34 25L37 25L37 24L34 24L34 23L35 23L35 22ZM17 23L17 26L16 26L16 24L14 24L14 25L13 25L13 26L14 26L14 27L15 27L15 26L16 26L16 27L17 27L17 28L14 28L14 29L18 29L18 31L19 31L19 32L18 32L18 33L17 33L17 34L18 34L18 35L19 35L19 34L18 34L18 33L20 33L20 35L21 35L21 33L22 33L22 31L23 31L23 30L22 30L22 29L21 29L21 27L20 27L20 26L19 26L19 24L18 24L18 23ZM52 23L52 24L53 24L53 23ZM33 24L33 25L34 25L34 24ZM14 25L14 26L15 26L15 25ZM25 25L25 26L24 26L24 27L26 27L26 25ZM17 26L17 27L18 27L18 26ZM5 27L5 30L8 30L8 27ZM27 27L27 30L30 30L30 27ZM49 27L49 30L52 30L52 27ZM55 27L55 28L56 28L56 29L57 29L57 28L56 28L56 27ZM6 28L6 29L7 29L7 28ZM18 28L18 29L19 29L19 31L20 31L20 28ZM28 28L28 29L29 29L29 28ZM37 28L37 29L38 29L38 28ZM46 28L46 29L47 29L47 28ZM50 28L50 29L51 29L51 28ZM39 29L39 30L40 30L40 31L39 31L39 32L40 32L40 33L39 33L39 34L38 34L38 33L37 33L37 34L38 34L38 35L37 35L37 36L38 36L38 37L37 37L37 38L35 38L35 37L34 37L34 36L35 36L35 35L34 35L34 36L33 36L33 37L34 37L34 42L35 42L35 39L37 39L37 42L38 42L38 39L40 39L40 38L38 38L38 37L41 37L41 39L42 39L42 37L41 37L41 36L43 36L43 37L44 37L44 38L43 38L43 39L45 39L45 37L44 37L44 35L45 35L45 33L46 33L46 31L45 31L45 33L43 33L43 35L42 35L42 34L40 34L40 33L41 33L41 32L40 32L40 31L41 31L41 30L40 30L40 29ZM3 30L3 31L2 31L2 32L1 32L1 33L2 33L2 35L3 35L3 36L5 36L5 35L3 35L3 34L7 34L7 33L6 33L6 32L8 32L8 31L6 31L6 32L5 32L5 31L4 31L4 30ZM21 30L21 31L22 31L22 30ZM37 30L37 32L38 32L38 30ZM43 30L43 31L44 31L44 30ZM12 31L12 32L13 32L13 31ZM2 32L2 33L3 33L3 32ZM8 33L8 34L9 34L9 33ZM34 33L34 34L35 34L35 33ZM24 34L24 36L25 36L25 35L26 35L26 34ZM30 34L30 36L31 36L31 34ZM32 34L32 35L33 35L33 34ZM47 34L47 36L49 36L49 37L50 37L50 36L49 36L49 35L48 35L48 34ZM6 35L6 36L8 36L8 35ZM38 35L38 36L40 36L40 35ZM11 36L11 37L10 37L10 38L8 38L8 39L7 39L7 40L6 40L6 41L7 41L7 42L8 42L8 41L9 41L9 42L10 42L10 44L11 44L11 42L10 42L10 40L11 40L11 39L12 39L12 36ZM10 38L10 39L8 39L8 40L7 40L7 41L8 41L8 40L10 40L10 39L11 39L11 38ZM16 38L16 39L15 39L15 40L16 40L16 41L17 41L17 43L18 43L18 41L20 41L20 42L19 42L19 44L18 44L18 45L17 45L17 46L16 46L16 49L17 49L17 50L19 50L19 49L20 49L20 50L21 50L21 49L22 49L22 48L21 48L21 47L22 47L22 46L21 46L21 45L23 45L23 44L22 44L22 43L21 43L21 42L22 42L22 40L21 40L21 38L20 38L20 39L19 39L19 40L18 40L18 41L17 41L17 38ZM37 38L37 39L38 39L38 38ZM27 40L27 41L28 41L28 40ZM39 41L39 42L40 42L40 41ZM48 41L48 42L49 42L49 43L48 43L48 44L49 44L49 43L50 43L50 42L49 42L49 41ZM51 41L51 43L52 43L52 41ZM7 43L7 44L9 44L9 43ZM20 43L20 44L21 44L21 43ZM46 44L46 45L47 45L47 46L48 46L48 45L47 45L47 44ZM3 45L3 47L5 47L5 46L4 46L4 45ZM19 45L19 46L18 46L18 48L19 48L19 46L20 46L20 47L21 47L21 46L20 46L20 45ZM26 45L26 46L25 46L25 47L24 47L24 49L26 49L26 48L27 48L27 47L26 47L26 46L27 46L27 45ZM30 45L30 46L31 46L31 45ZM1 46L1 47L2 47L2 46ZM44 46L44 47L42 47L42 49L44 49L44 47L45 47L45 46ZM10 47L10 49L11 49L11 51L12 51L12 50L13 50L13 49L11 49L11 48L12 48L12 47ZM36 47L36 48L37 48L37 47ZM38 47L38 49L37 49L37 51L38 51L38 49L39 49L39 47ZM8 48L8 49L9 49L9 48ZM27 49L27 52L30 52L30 49ZM31 49L31 52L32 52L32 49ZM49 49L49 52L52 52L52 49ZM28 50L28 51L29 51L29 50ZM34 50L34 51L35 51L35 50ZM50 50L50 51L51 51L51 50ZM53 50L53 54L55 54L55 53L54 53L54 52L55 52L55 51L54 51L54 50ZM16 51L16 52L17 52L17 51ZM25 51L25 53L24 53L24 52L22 52L22 53L21 53L21 54L22 54L22 53L24 53L24 54L26 54L26 51ZM11 52L11 53L12 53L12 52ZM19 52L19 53L20 53L20 52ZM37 52L37 54L38 54L38 52ZM43 52L43 53L44 53L44 55L45 55L45 53L44 53L44 52ZM30 53L30 54L31 54L31 53ZM49 53L49 54L51 54L51 55L52 55L52 54L51 54L51 53ZM56 56L56 57L57 57L57 56ZM0 0L0 7L7 7L7 0ZM1 1L1 6L6 6L6 1ZM2 2L2 5L5 5L5 2ZM50 0L50 7L57 7L57 0ZM51 1L51 6L56 6L56 1ZM52 2L52 5L55 5L55 2ZM0 50L0 57L7 57L7 50ZM1 51L1 56L6 56L6 51ZM2 52L2 55L5 55L5 52Z" fill="#000000"/></g></g></svg>
