<?xml version="1.0" encoding="UTF-8"?>
<svg xmlns="http://www.w3.org/2000/svg" version="1.1" width="300" height="300" viewBox="0 0 300 300"><rect x="0" y="0" width="300" height="300" fill="#fefefe"/><g transform="scale(4.615)"><g transform="translate(4,4)"><path fill-rule="evenodd" d="M8 0L8 1L9 1L9 0ZM13 0L13 1L14 1L14 0ZM17 0L17 1L15 1L15 3L17 3L17 5L15 5L15 4L14 4L14 3L13 3L13 2L12 2L12 1L10 1L10 2L11 2L11 3L9 3L9 2L8 2L8 5L9 5L9 6L8 6L8 7L9 7L9 8L8 8L8 9L9 9L9 11L7 11L7 10L4 10L4 11L7 11L7 12L5 12L5 13L4 13L4 12L3 12L3 9L4 9L4 8L0 8L0 10L2 10L2 11L0 11L0 13L2 13L2 14L0 14L0 15L1 15L1 16L2 16L2 15L3 15L3 18L4 18L4 19L3 19L3 21L1 21L1 20L0 20L0 26L2 26L2 25L1 25L1 24L2 24L2 22L3 22L3 21L5 21L5 22L6 22L6 23L7 23L7 22L8 22L8 21L9 21L9 23L8 23L8 24L6 24L6 25L5 25L5 26L4 26L4 24L5 24L5 23L4 23L4 24L3 24L3 26L4 26L4 27L3 27L3 28L4 28L4 29L1 29L1 30L0 30L0 33L2 33L2 34L1 34L1 35L2 35L2 37L4 37L4 38L3 38L3 39L1 39L1 41L0 41L0 42L1 42L1 43L0 43L0 44L1 44L1 45L0 45L0 48L5 48L5 47L9 47L9 46L10 46L10 48L9 48L9 49L8 49L8 48L6 48L6 49L8 49L8 50L9 50L9 51L10 51L10 50L11 50L11 52L12 52L12 51L13 51L13 52L14 52L14 55L15 55L15 56L16 56L16 57L18 57L18 56L17 56L17 54L18 54L18 53L17 53L17 54L16 54L16 53L15 53L15 52L16 52L16 51L17 51L17 50L21 50L21 51L19 51L19 55L20 55L20 56L19 56L19 57L23 57L23 56L22 56L22 55L23 55L23 54L26 54L26 55L27 55L27 56L28 56L28 55L27 55L27 53L29 53L29 54L31 54L31 55L30 55L30 56L31 56L31 57L32 57L32 55L33 55L33 54L36 54L36 55L34 55L34 56L33 56L33 57L36 57L36 55L38 55L38 57L41 57L41 54L42 54L42 57L43 57L43 55L44 55L44 54L46 54L46 56L47 56L47 57L51 57L51 54L52 54L52 53L54 53L54 52L55 52L55 51L56 51L56 52L57 52L57 51L56 51L56 49L57 49L57 48L56 48L56 49L55 49L55 50L53 50L53 49L54 49L54 48L53 48L53 47L57 47L57 45L56 45L56 46L55 46L55 44L56 44L56 41L57 41L57 40L56 40L56 41L55 41L55 42L54 42L54 41L53 41L53 40L55 40L55 39L53 39L53 40L52 40L52 41L50 41L50 40L51 40L51 39L52 39L52 37L51 37L51 35L52 35L52 36L53 36L53 37L55 37L55 38L56 38L56 39L57 39L57 38L56 38L56 37L55 37L55 36L57 36L57 31L56 31L56 30L57 30L57 29L56 29L56 28L57 28L57 27L56 27L56 28L55 28L55 27L53 27L53 26L52 26L52 25L50 25L50 24L54 24L54 25L56 25L56 24L54 24L54 23L53 23L53 22L54 22L54 21L56 21L56 22L55 22L55 23L57 23L57 21L56 21L56 20L57 20L57 19L56 19L56 20L54 20L54 21L53 21L53 20L50 20L50 19L47 19L47 18L48 18L48 17L51 17L51 19L55 19L55 17L56 17L56 18L57 18L57 15L51 15L51 13L52 13L52 14L54 14L54 10L53 10L53 13L52 13L52 12L51 12L51 11L52 11L52 10L51 10L51 11L49 11L49 16L48 16L48 14L47 14L47 16L46 16L46 15L45 15L45 14L46 14L46 13L44 13L44 9L43 9L43 5L45 5L45 6L44 6L44 7L45 7L45 6L46 6L46 8L45 8L45 9L46 9L46 8L47 8L47 5L48 5L48 0L46 0L46 1L44 1L44 2L41 2L41 1L43 1L43 0L41 0L41 1L40 1L40 0L39 0L39 1L40 1L40 2L41 2L41 4L39 4L39 2L37 2L37 1L38 1L38 0L37 0L37 1L36 1L36 0L35 0L35 1L34 1L34 2L33 2L33 0L29 0L29 3L30 3L30 4L26 4L26 0L23 0L23 1L22 1L22 0L21 0L21 2L20 2L20 1L19 1L19 3L17 3L17 1L18 1L18 0ZM23 1L23 3L22 3L22 2L21 2L21 3L19 3L19 4L20 4L20 5L23 5L23 3L24 3L24 2L25 2L25 1ZM27 1L27 3L28 3L28 1ZM31 1L31 2L30 2L30 3L31 3L31 2L32 2L32 1ZM35 1L35 2L36 2L36 1ZM46 1L46 2L45 2L45 3L44 3L44 4L45 4L45 5L47 5L47 3L46 3L46 2L47 2L47 1ZM11 3L11 4L9 4L9 5L11 5L11 7L10 7L10 6L9 6L9 7L10 7L10 8L11 8L11 9L10 9L10 10L11 10L11 11L13 11L13 10L14 10L14 11L15 11L15 8L16 8L16 11L17 11L17 7L18 7L18 5L17 5L17 7L16 7L16 6L15 6L15 5L14 5L14 4L12 4L12 3ZM32 3L32 4L31 4L31 5L32 5L32 6L31 6L31 9L32 9L32 10L31 10L31 11L32 11L32 13L33 13L33 10L34 10L34 11L35 11L35 10L36 10L36 12L38 12L38 10L39 10L39 14L40 14L40 15L41 15L41 16L40 16L40 17L39 17L39 15L37 15L37 14L36 14L36 13L35 13L35 12L34 12L34 14L33 14L33 15L35 15L35 16L34 16L34 17L35 17L35 19L34 19L34 21L33 21L33 19L32 19L32 18L33 18L33 17L32 17L32 16L29 16L29 15L28 15L28 16L29 16L29 17L27 17L27 19L28 19L28 20L29 20L29 21L31 21L31 22L30 22L30 23L29 23L29 22L28 22L28 21L27 21L27 20L25 20L25 19L26 19L26 18L25 18L25 17L24 17L24 18L23 18L23 14L25 14L25 15L26 15L26 16L27 16L27 13L26 13L26 12L28 12L28 13L30 13L30 14L31 14L31 15L32 15L32 14L31 14L31 12L30 12L30 11L29 11L29 10L28 10L28 9L27 9L27 10L26 10L26 11L25 11L25 12L23 12L23 11L24 11L24 10L23 10L23 9L26 9L26 6L25 6L25 5L26 5L26 4L24 4L24 6L23 6L23 7L22 7L22 6L21 6L21 7L20 7L20 6L19 6L19 7L20 7L20 8L18 8L18 9L20 9L20 12L19 12L19 10L18 10L18 12L17 12L17 13L16 13L16 12L15 12L15 15L16 15L16 16L15 16L15 17L13 17L13 16L12 16L12 15L14 15L14 13L12 13L12 14L11 14L11 13L9 13L9 12L8 12L8 13L9 13L9 14L11 14L11 16L10 16L10 15L8 15L8 16L7 16L7 15L6 15L6 14L7 14L7 13L5 13L5 15L4 15L4 13L3 13L3 12L2 12L2 13L3 13L3 15L4 15L4 16L5 16L5 17L4 17L4 18L10 18L10 19L4 19L4 20L7 20L7 21L6 21L6 22L7 22L7 21L8 21L8 20L9 20L9 21L12 21L12 19L15 19L15 20L14 20L14 22L12 22L12 23L14 23L14 27L13 27L13 25L12 25L12 24L11 24L11 25L10 25L10 23L11 23L11 22L10 22L10 23L9 23L9 25L10 25L10 26L9 26L9 28L10 28L10 30L9 30L9 32L12 32L12 33L9 33L9 34L12 34L12 33L13 33L13 32L14 32L14 36L13 36L13 35L12 35L12 36L11 36L11 35L8 35L8 34L7 34L7 33L8 33L8 31L5 31L5 32L4 32L4 33L3 33L3 32L2 32L2 33L3 33L3 34L2 34L2 35L3 35L3 34L4 34L4 35L6 35L6 36L5 36L5 37L6 37L6 38L5 38L5 39L6 39L6 40L8 40L8 39L9 39L9 41L6 41L6 42L8 42L8 44L9 44L9 42L12 42L12 41L10 41L10 40L14 40L14 38L12 38L12 39L9 39L9 37L8 37L8 38L7 38L7 37L6 37L6 36L10 36L10 38L11 38L11 37L12 37L12 36L13 36L13 37L14 37L14 36L15 36L15 38L18 38L18 39L16 39L16 40L15 40L15 41L13 41L13 42L14 42L14 43L17 43L17 45L15 45L15 46L13 46L13 47L14 47L14 49L15 49L15 50L14 50L14 52L15 52L15 50L17 50L17 49L16 49L16 48L15 48L15 46L16 46L16 47L17 47L17 48L20 48L20 49L21 49L21 50L22 50L22 49L23 49L23 51L22 51L22 53L20 53L20 55L22 55L22 54L23 54L23 52L24 52L24 53L25 53L25 52L26 52L26 48L28 48L28 47L29 47L29 48L31 48L31 47L32 47L32 46L33 46L33 47L34 47L34 46L35 46L35 48L37 48L37 49L36 49L36 50L37 50L37 49L38 49L38 48L39 48L39 49L40 49L40 50L39 50L39 51L36 51L36 52L35 52L35 49L34 49L34 48L32 48L32 49L33 49L33 50L32 50L32 51L31 51L31 53L32 53L32 51L33 51L33 53L36 53L36 54L37 54L37 52L38 52L38 54L39 54L39 52L40 52L40 54L41 54L41 52L43 52L43 51L44 51L44 50L45 50L45 51L47 51L47 52L46 52L46 53L47 53L47 54L50 54L50 53L47 53L47 52L48 52L48 48L46 48L46 50L45 50L45 48L44 48L44 49L43 49L43 47L46 47L46 46L48 46L48 47L49 47L49 48L51 48L51 47L49 47L49 44L51 44L51 45L50 45L50 46L52 46L52 47L53 47L53 46L54 46L54 45L53 45L53 44L55 44L55 43L54 43L54 42L53 42L53 43L52 43L52 44L51 44L51 42L50 42L50 41L47 41L47 40L50 40L50 39L51 39L51 37L50 37L50 36L47 36L47 35L46 35L46 34L50 34L50 33L49 33L49 32L48 32L48 26L50 26L50 25L49 25L49 24L48 24L48 23L46 23L46 22L47 22L47 21L49 21L49 23L52 23L52 22L51 22L51 21L50 21L50 20L47 20L47 19L44 19L44 18L45 18L45 17L46 17L46 16L45 16L45 15L44 15L44 16L45 16L45 17L42 17L42 14L44 14L44 13L43 13L43 12L42 12L42 11L40 11L40 9L39 9L39 8L41 8L41 9L42 9L42 8L41 8L41 7L42 7L42 6L41 6L41 7L40 7L40 5L38 5L38 6L37 6L37 5L36 5L36 4L35 4L35 3ZM37 3L37 4L38 4L38 3ZM33 4L33 6L32 6L32 8L33 8L33 6L34 6L34 9L36 9L36 8L38 8L38 7L39 7L39 6L38 6L38 7L37 7L37 6L36 6L36 7L35 7L35 6L34 6L34 4ZM42 4L42 5L43 5L43 4ZM12 5L12 7L11 7L11 8L15 8L15 6L14 6L14 7L13 7L13 5ZM27 5L27 8L30 8L30 5ZM24 6L24 7L23 7L23 8L21 8L21 9L23 9L23 8L24 8L24 7L25 7L25 6ZM28 6L28 7L29 7L29 6ZM48 6L48 7L49 7L49 6ZM6 8L6 9L7 9L7 8ZM49 8L49 9L47 9L47 10L45 10L45 11L47 11L47 10L50 10L50 8ZM52 8L52 9L55 9L55 8ZM56 8L56 9L57 9L57 8ZM11 9L11 10L12 10L12 9ZM37 9L37 10L38 10L38 9ZM21 10L21 11L23 11L23 10ZM55 10L55 11L56 11L56 13L57 13L57 10ZM18 12L18 13L19 13L19 14L21 14L21 12L20 12L20 13L19 13L19 12ZM22 12L22 13L23 13L23 12ZM50 12L50 13L51 13L51 12ZM16 14L16 15L17 15L17 16L19 16L19 15L17 15L17 14ZM35 14L35 15L36 15L36 14ZM5 15L5 16L6 16L6 17L7 17L7 16L6 16L6 15ZM20 15L20 17L21 17L21 18L19 18L19 17L15 17L15 19L16 19L16 23L15 23L15 27L16 27L16 23L17 23L17 21L18 21L18 22L19 22L19 24L17 24L17 27L19 27L19 25L20 25L20 26L21 26L21 24L20 24L20 23L22 23L22 22L23 22L23 24L24 24L24 25L25 25L25 28L26 28L26 30L24 30L24 29L21 29L21 27L20 27L20 28L18 28L18 29L21 29L21 30L20 30L20 31L19 31L19 30L18 30L18 31L17 31L17 32L16 32L16 30L17 30L17 28L14 28L14 30L13 30L13 28L11 28L11 27L12 27L12 26L10 26L10 28L11 28L11 30L10 30L10 31L11 31L11 30L13 30L13 31L12 31L12 32L13 32L13 31L14 31L14 32L15 32L15 33L18 33L18 35L16 35L16 34L15 34L15 35L16 35L16 36L18 36L18 38L19 38L19 39L18 39L18 40L19 40L19 41L18 41L18 43L19 43L19 41L22 41L22 44L21 44L21 46L20 46L20 45L17 45L17 47L19 47L19 46L20 46L20 48L23 48L23 49L24 49L24 48L26 48L26 47L24 47L24 46L25 46L25 45L26 45L26 46L27 46L27 47L28 47L28 46L27 46L27 45L29 45L29 46L30 46L30 45L29 45L29 43L31 43L31 44L32 44L32 42L33 42L33 45L34 45L34 44L35 44L35 45L36 45L36 46L37 46L37 47L38 47L38 45L39 45L39 47L43 47L43 45L42 45L42 43L43 43L43 42L42 42L42 41L43 41L43 40L44 40L44 42L45 42L45 43L44 43L44 44L49 44L49 43L50 43L50 42L49 42L49 43L48 43L48 42L47 42L47 41L46 41L46 40L47 40L47 39L49 39L49 37L47 37L47 36L45 36L45 33L46 33L46 32L47 32L47 26L48 26L48 24L45 24L45 25L44 25L44 23L45 23L45 22L44 22L44 21L43 21L43 20L42 20L42 19L43 19L43 18L42 18L42 17L41 17L41 18L39 18L39 19L40 19L40 20L39 20L39 22L38 22L38 21L36 21L36 20L38 20L38 19L36 19L36 20L35 20L35 22L38 22L38 23L37 23L37 24L36 24L36 23L35 23L35 24L33 24L33 23L34 23L34 22L32 22L32 23L30 23L30 24L29 24L29 26L27 26L27 25L25 25L25 22L27 22L27 23L26 23L26 24L27 24L27 23L28 23L28 22L27 22L27 21L25 21L25 22L24 22L24 21L23 21L23 19L22 19L22 17L21 17L21 15ZM8 16L8 17L9 17L9 16ZM11 16L11 17L10 17L10 18L13 18L13 17L12 17L12 16ZM52 16L52 17L53 17L53 18L54 18L54 17L55 17L55 16ZM1 17L1 18L0 18L0 19L2 19L2 17ZM29 17L29 18L28 18L28 19L30 19L30 20L32 20L32 19L30 19L30 17ZM36 17L36 18L37 18L37 17ZM17 18L17 20L18 20L18 21L19 21L19 22L22 22L22 21L21 21L21 20L22 20L22 19L20 19L20 20L18 20L18 19L19 19L19 18ZM24 18L24 19L25 19L25 18ZM41 18L41 19L42 19L42 18ZM41 20L41 21L42 21L42 20ZM41 22L41 23L38 23L38 24L39 24L39 26L38 26L38 27L39 27L39 26L40 26L40 25L41 25L41 24L42 24L42 26L43 26L43 24L42 24L42 23L43 23L43 22ZM30 24L30 26L31 26L31 24ZM32 24L32 25L33 25L33 24ZM6 25L6 26L8 26L8 25ZM22 25L22 27L23 27L23 28L24 28L24 27L23 27L23 25ZM34 25L34 27L35 27L35 25ZM46 25L46 26L44 26L44 27L42 27L42 28L44 28L44 27L45 27L45 30L46 30L46 26L47 26L47 25ZM0 27L0 28L2 28L2 27ZM5 27L5 30L8 30L8 27ZM27 27L27 30L30 30L30 27ZM31 27L31 28L33 28L33 27ZM49 27L49 30L52 30L52 27ZM6 28L6 29L7 29L7 28ZM28 28L28 29L29 29L29 28ZM34 28L34 29L36 29L36 31L37 31L37 32L36 32L36 33L37 33L37 32L38 32L38 34L39 34L39 31L38 31L38 30L41 30L41 31L40 31L40 32L41 32L41 31L43 31L43 29L42 29L42 30L41 30L41 28L40 28L40 29L38 29L38 30L37 30L37 28ZM50 28L50 29L51 29L51 28ZM53 28L53 29L54 29L54 30L53 30L53 31L54 31L54 32L55 32L55 30L56 30L56 29L54 29L54 28ZM15 29L15 30L16 30L16 29ZM31 29L31 30L32 30L32 31L33 31L33 32L31 32L31 34L30 34L30 35L29 35L29 33L30 33L30 31L28 31L28 33L27 33L27 31L24 31L24 32L23 32L23 33L22 33L22 34L21 34L21 33L20 33L20 34L19 34L19 35L18 35L18 36L19 36L19 37L20 37L20 38L21 38L21 37L22 37L22 39L21 39L21 40L22 40L22 41L23 41L23 40L24 40L24 39L25 39L25 41L24 41L24 42L23 42L23 43L26 43L26 45L27 45L27 42L25 42L25 41L26 41L26 40L27 40L27 39L26 39L26 38L29 38L29 36L32 36L32 38L30 38L30 39L28 39L28 41L29 41L29 42L31 42L31 41L30 41L30 40L33 40L33 39L32 39L32 38L33 38L33 36L36 36L36 35L35 35L35 33L33 33L33 32L35 32L35 31L33 31L33 30L32 30L32 29ZM1 30L1 31L2 31L2 30ZM3 30L3 31L4 31L4 30ZM21 30L21 32L22 32L22 31L23 31L23 30ZM18 31L18 33L19 33L19 31ZM44 31L44 33L45 33L45 31ZM50 31L50 32L51 32L51 31ZM6 32L6 33L5 33L5 34L6 34L6 35L7 35L7 34L6 34L6 33L7 33L7 32ZM24 32L24 33L23 33L23 34L22 34L22 35L24 35L24 34L25 34L25 35L26 35L26 36L29 36L29 35L28 35L28 34L25 34L25 32ZM42 32L42 33L43 33L43 32ZM52 32L52 34L54 34L54 33L53 33L53 32ZM41 34L41 35L37 35L37 37L34 37L34 38L36 38L36 39L35 39L35 40L34 40L34 41L36 41L36 42L34 42L34 43L36 43L36 45L38 45L38 44L40 44L40 43L38 43L38 44L37 44L37 42L41 42L41 43L42 43L42 42L41 42L41 40L42 40L42 39L40 39L40 41L37 41L37 40L38 40L38 39L37 39L37 37L39 37L39 36L40 36L40 37L41 37L41 38L44 38L44 39L45 39L45 40L46 40L46 39L45 39L45 36L44 36L44 37L41 37L41 35L42 35L42 36L43 36L43 35L44 35L44 34L43 34L43 35L42 35L42 34ZM55 34L55 35L54 35L54 36L55 36L55 35L56 35L56 34ZM32 35L32 36L33 36L33 35ZM23 36L23 39L24 39L24 37L25 37L25 36ZM46 37L46 38L47 38L47 37ZM6 38L6 39L7 39L7 38ZM3 39L3 42L4 42L4 43L5 43L5 41L4 41L4 39ZM1 41L1 42L2 42L2 41ZM15 41L15 42L17 42L17 41ZM20 42L20 43L21 43L21 42ZM1 43L1 44L2 44L2 45L1 45L1 47L2 47L2 46L3 46L3 47L5 47L5 46L3 46L3 43ZM6 43L6 44L5 44L5 45L6 45L6 46L7 46L7 45L6 45L6 44L7 44L7 43ZM10 43L10 44L11 44L11 45L10 45L10 46L11 46L11 45L13 45L13 44L12 44L12 43ZM22 44L22 46L21 46L21 47L22 47L22 46L23 46L23 44ZM24 44L24 45L25 45L25 44ZM31 45L31 46L32 46L32 45ZM44 45L44 46L45 46L45 45ZM11 47L11 48L12 48L12 49L11 49L11 50L12 50L12 49L13 49L13 48L12 48L12 47ZM41 48L41 49L42 49L42 48ZM9 49L9 50L10 50L10 49ZM27 49L27 52L30 52L30 49ZM49 49L49 52L52 52L52 49ZM24 50L24 51L25 51L25 50ZM28 50L28 51L29 51L29 50ZM33 50L33 51L34 51L34 50ZM50 50L50 51L51 51L51 50ZM40 51L40 52L41 52L41 51ZM9 52L9 53L8 53L8 57L12 57L12 56L11 56L11 55L12 55L12 54L13 54L13 53L11 53L11 54L9 54L9 53L10 53L10 52ZM42 53L42 54L43 54L43 53ZM55 53L55 54L53 54L53 55L55 55L55 54L56 54L56 53ZM9 55L9 56L10 56L10 55ZM24 55L24 56L25 56L25 55ZM47 55L47 56L49 56L49 55ZM56 55L56 56L57 56L57 55ZM52 56L52 57L55 57L55 56ZM0 0L0 7L7 7L7 0ZM1 1L1 6L6 6L6 1ZM2 2L2 5L5 5L5 2ZM50 0L50 7L57 7L57 0ZM51 1L51 6L56 6L56 1ZM52 2L52 5L55 5L55 2ZM0 50L0 57L7 57L7 50ZM1 51L1 56L6 56L6 51ZM2 52L2 55L5 55L5 52Z" fill="#000000"/></g></g></svg>
