<?xml version="1.0" encoding="UTF-8"?>
<svg xmlns="http://www.w3.org/2000/svg" version="1.1" width="300" height="300" viewBox="0 0 300 300"><rect x="0" y="0" width="300" height="300" fill="#fefefe"/><g transform="scale(4.615)"><g transform="translate(4,4)"><path fill-rule="evenodd" d="M8 0L8 4L9 4L9 5L8 5L8 7L9 7L9 6L10 6L10 7L11 7L11 6L12 6L12 8L9 8L9 13L8 13L8 12L6 12L6 11L8 11L8 10L6 10L6 9L7 9L7 8L4 8L4 9L5 9L5 10L2 10L2 8L0 8L0 11L5 11L5 13L8 13L8 14L4 14L4 15L8 15L8 16L4 16L4 17L5 17L5 18L6 18L6 19L7 19L7 20L5 20L5 22L6 22L6 23L5 23L5 24L6 24L6 25L7 25L7 26L4 26L4 25L3 25L3 24L4 24L4 22L3 22L3 24L2 24L2 23L0 23L0 24L1 24L1 25L0 25L0 26L1 26L1 27L0 27L0 31L1 31L1 33L0 33L0 34L1 34L1 35L2 35L2 36L3 36L3 38L2 38L2 40L0 40L0 42L1 42L1 43L0 43L0 44L1 44L1 45L0 45L0 48L5 48L5 47L7 47L7 46L5 46L5 45L7 45L7 44L8 44L8 43L10 43L10 42L13 42L13 41L14 41L14 43L16 43L16 40L17 40L17 41L20 41L20 42L19 42L19 44L18 44L18 45L17 45L17 44L15 44L15 45L14 45L14 44L12 44L12 45L13 45L13 46L11 46L11 47L12 47L12 49L11 49L11 48L10 48L10 45L9 45L9 46L8 46L8 48L9 48L9 49L8 49L8 50L9 50L9 49L11 49L11 51L12 51L12 53L11 53L11 52L9 52L9 51L8 51L8 53L10 53L10 54L9 54L9 55L8 55L8 57L13 57L13 56L14 56L14 57L15 57L15 56L14 56L14 55L13 55L13 54L15 54L15 55L16 55L16 54L18 54L18 55L17 55L17 57L20 57L20 56L18 56L18 55L20 55L20 54L22 54L22 52L24 52L24 53L23 53L23 55L24 55L24 57L25 57L25 54L24 54L24 53L25 53L25 49L24 49L24 48L23 48L23 47L22 47L22 46L21 46L21 45L24 45L24 46L26 46L26 47L25 47L25 48L26 48L26 57L27 57L27 53L28 53L28 57L29 57L29 55L30 55L30 57L34 57L34 55L35 55L35 57L37 57L37 56L36 56L36 54L37 54L37 55L39 55L39 57L40 57L40 56L43 56L43 55L44 55L44 53L45 53L45 54L46 54L46 56L44 56L44 57L47 57L47 54L49 54L49 57L50 57L50 55L51 55L51 56L53 56L53 57L54 57L54 55L53 55L53 50L54 50L54 51L55 51L55 52L54 52L54 53L55 53L55 54L57 54L57 53L55 53L55 52L56 52L56 50L55 50L55 49L56 49L56 45L57 45L57 44L56 44L56 45L54 45L54 44L53 44L53 43L54 43L54 42L55 42L55 43L56 43L56 41L57 41L57 40L54 40L54 41L53 41L53 38L54 38L54 37L56 37L56 34L55 34L55 33L56 33L56 30L54 30L54 28L53 28L53 27L54 27L54 26L55 26L55 25L53 25L53 26L51 26L51 25L52 25L52 22L53 22L53 23L55 23L55 24L56 24L56 25L57 25L57 24L56 24L56 21L57 21L57 20L56 20L56 21L55 21L55 22L53 22L53 21L52 21L52 20L53 20L53 19L52 19L52 14L53 14L53 13L54 13L54 12L53 12L53 13L52 13L52 14L51 14L51 12L52 12L52 11L54 11L54 10L52 10L52 8L51 8L51 9L50 9L50 10L49 10L49 8L48 8L48 9L47 9L47 10L48 10L48 11L47 11L47 12L48 12L48 11L50 11L50 16L49 16L49 15L48 15L48 16L47 16L47 15L46 15L46 11L45 11L45 10L46 10L46 8L47 8L47 5L48 5L48 0L41 0L41 1L40 1L40 2L39 2L39 3L40 3L40 4L38 4L38 5L36 5L36 4L35 4L35 3L34 3L34 2L36 2L36 3L38 3L38 1L39 1L39 0L38 0L38 1L37 1L37 2L36 2L36 0L35 0L35 1L34 1L34 0L33 0L33 1L34 1L34 2L32 2L32 0L28 0L28 2L27 2L27 3L28 3L28 4L26 4L26 3L25 3L25 2L26 2L26 1L27 1L27 0L26 0L26 1L25 1L25 0L23 0L23 1L22 1L22 2L21 2L21 3L22 3L22 4L23 4L23 3L25 3L25 4L24 4L24 5L23 5L23 6L22 6L22 5L21 5L21 6L20 6L20 5L19 5L19 4L17 4L17 2L16 2L16 0L11 0L11 1L13 1L13 2L10 2L10 0ZM18 0L18 2L19 2L19 3L20 3L20 1L21 1L21 0L20 0L20 1L19 1L19 0ZM14 1L14 4L15 4L15 5L16 5L16 6L15 6L15 7L14 7L14 6L13 6L13 8L12 8L12 9L11 9L11 10L12 10L12 13L11 13L11 11L10 11L10 14L11 14L11 15L10 15L10 16L9 16L9 19L8 19L8 21L9 21L9 22L10 22L10 21L9 21L9 19L10 19L10 20L11 20L11 19L10 19L10 17L12 17L12 19L14 19L14 20L15 20L15 21L17 21L17 20L18 20L18 19L19 19L19 18L20 18L20 16L21 16L21 17L25 17L25 14L27 14L27 15L26 15L26 20L28 20L28 21L24 21L24 20L25 20L25 18L24 18L24 19L22 19L22 18L21 18L21 19L20 19L20 20L19 20L19 21L18 21L18 22L16 22L16 23L15 23L15 24L16 24L16 26L17 26L17 27L18 27L18 26L17 26L17 24L19 24L19 25L21 25L21 24L22 24L22 25L24 25L24 23L23 23L23 21L24 21L24 22L25 22L25 23L26 23L26 22L27 22L27 23L28 23L28 25L29 25L29 26L30 26L30 25L29 25L29 23L31 23L31 29L32 29L32 28L33 28L33 27L34 27L34 32L33 32L33 31L32 31L32 32L30 32L30 31L29 31L29 33L28 33L28 34L27 34L27 33L26 33L26 31L25 31L25 30L26 30L26 29L25 29L25 28L22 28L22 27L21 27L21 26L20 26L20 27L21 27L21 29L22 29L22 30L20 30L20 28L18 28L18 29L15 29L15 28L16 28L16 27L15 27L15 28L14 28L14 26L15 26L15 25L13 25L13 28L14 28L14 29L12 29L12 30L11 30L11 29L10 29L10 27L11 27L11 26L12 26L12 25L10 25L10 24L11 24L11 23L12 23L12 24L13 24L13 23L12 23L12 22L11 22L11 23L8 23L8 22L7 22L7 21L6 21L6 22L7 22L7 23L6 23L6 24L7 24L7 23L8 23L8 26L9 26L9 25L10 25L10 27L9 27L9 32L8 32L8 33L6 33L6 34L8 34L8 35L5 35L5 36L4 36L4 34L3 34L3 36L4 36L4 37L5 37L5 36L9 36L9 37L10 37L10 38L8 38L8 39L6 39L6 38L7 38L7 37L6 37L6 38L3 38L3 40L2 40L2 41L1 41L1 42L2 42L2 44L3 44L3 42L4 42L4 43L5 43L5 44L7 44L7 43L8 43L8 42L9 42L9 41L11 41L11 40L12 40L12 41L13 41L13 40L14 40L14 41L15 41L15 39L16 39L16 38L17 38L17 36L16 36L16 35L18 35L18 36L19 36L19 35L20 35L20 36L22 36L22 41L21 41L21 42L20 42L20 43L22 43L22 44L24 44L24 45L25 45L25 43L27 43L27 45L26 45L26 46L27 46L27 47L26 47L26 48L27 48L27 47L28 47L28 46L29 46L29 47L30 47L30 48L31 48L31 49L32 49L32 48L33 48L33 49L34 49L34 52L33 52L33 53L32 53L32 54L33 54L33 55L34 55L34 54L35 54L35 53L34 53L34 52L36 52L36 49L35 49L35 46L38 46L38 45L39 45L39 46L40 46L40 51L38 51L38 49L39 49L39 47L38 47L38 49L37 49L37 51L38 51L38 52L37 52L37 54L38 54L38 52L40 52L40 53L44 53L44 52L41 52L41 46L40 46L40 45L41 45L41 44L40 44L40 42L39 42L39 44L37 44L37 43L36 43L36 44L37 44L37 45L34 45L34 47L32 47L32 46L33 46L33 45L32 45L32 43L33 43L33 44L35 44L35 43L33 43L33 41L32 41L32 40L33 40L33 39L34 39L34 42L35 42L35 39L37 39L37 42L38 42L38 39L40 39L40 38L38 38L38 37L44 37L44 38L43 38L43 39L41 39L41 40L40 40L40 41L42 41L42 40L43 40L43 42L41 42L41 43L42 43L42 44L43 44L43 45L44 45L44 44L45 44L45 45L46 45L46 47L45 47L45 46L44 46L44 47L42 47L42 49L44 49L44 48L45 48L45 50L42 50L42 51L45 51L45 52L47 52L47 53L46 53L46 54L47 54L47 53L48 53L48 52L47 52L47 49L48 49L48 47L51 47L51 45L50 45L50 43L51 43L51 44L52 44L52 46L53 46L53 44L52 44L52 43L53 43L53 41L52 41L52 39L51 39L51 37L50 37L50 35L53 35L53 36L52 36L52 38L53 38L53 36L55 36L55 35L53 35L53 34L54 34L54 32L55 32L55 31L53 31L53 33L51 33L51 31L50 31L50 35L49 35L49 33L48 33L48 31L47 31L47 30L48 30L48 29L46 29L46 28L48 28L48 27L45 27L45 25L46 25L46 26L48 26L48 25L49 25L49 26L50 26L50 24L51 24L51 23L50 23L50 22L49 22L49 23L50 23L50 24L48 24L48 23L47 23L47 21L48 21L48 20L46 20L46 19L47 19L47 16L46 16L46 17L45 17L45 20L46 20L46 22L44 22L44 16L45 16L45 13L44 13L44 12L45 12L45 11L43 11L43 10L44 10L44 8L46 8L46 6L45 6L45 7L44 7L44 4L45 4L45 5L47 5L47 3L44 3L44 2L43 2L43 3L44 3L44 4L43 4L43 5L42 5L42 4L41 4L41 5L39 5L39 7L40 7L40 6L41 6L41 8L40 8L40 9L42 9L42 8L43 8L43 10L42 10L42 11L43 11L43 12L41 12L41 11L40 11L40 10L38 10L38 9L39 9L39 8L38 8L38 9L35 9L35 7L36 7L36 5L35 5L35 4L34 4L34 5L33 5L33 3L32 3L32 2L31 2L31 1L29 1L29 2L28 2L28 3L29 3L29 2L30 2L30 3L32 3L32 5L33 5L33 7L32 7L32 6L31 6L31 10L30 10L30 11L32 11L32 8L33 8L33 9L34 9L34 10L33 10L33 13L32 13L32 14L33 14L33 13L34 13L34 18L33 18L33 17L32 17L32 15L30 15L30 13L31 13L31 12L29 12L29 9L26 9L26 6L25 6L25 7L24 7L24 6L23 6L23 7L24 7L24 8L25 8L25 10L28 10L28 12L27 12L27 11L26 11L26 13L25 13L25 12L24 12L24 11L23 11L23 8L22 8L22 9L21 9L21 11L19 11L19 10L20 10L20 9L15 9L15 12L14 12L14 11L13 11L13 10L14 10L14 8L15 8L15 7L16 7L16 6L17 6L17 8L19 8L19 7L20 7L20 6L19 6L19 5L18 5L18 6L17 6L17 4L16 4L16 3L15 3L15 1ZM46 1L46 2L47 2L47 1ZM22 2L22 3L23 3L23 2ZM40 2L40 3L42 3L42 2ZM9 3L9 4L11 4L11 5L10 5L10 6L11 6L11 5L12 5L12 4L13 4L13 3ZM27 5L27 8L30 8L30 5ZM34 5L34 7L33 7L33 8L34 8L34 7L35 7L35 5ZM41 5L41 6L42 6L42 7L43 7L43 8L44 8L44 7L43 7L43 6L42 6L42 5ZM18 6L18 7L19 7L19 6ZM21 6L21 7L22 7L22 6ZM28 6L28 7L29 7L29 6ZM37 6L37 7L38 7L38 6ZM48 6L48 7L49 7L49 6ZM53 8L53 9L56 9L56 10L55 10L55 11L56 11L56 10L57 10L57 8ZM12 9L12 10L13 10L13 9ZM16 10L16 12L15 12L15 13L12 13L12 16L13 16L13 14L14 14L14 18L15 18L15 17L17 17L17 18L16 18L16 20L17 20L17 19L18 19L18 18L19 18L19 16L20 16L20 14L21 14L21 15L22 15L22 16L24 16L24 15L22 15L22 14L21 14L21 13L23 13L23 14L25 14L25 13L24 13L24 12L22 12L22 11L21 11L21 12L20 12L20 14L19 14L19 12L18 12L18 13L17 13L17 11L18 11L18 10ZM34 10L34 12L35 12L35 13L37 13L37 12L39 12L39 11L36 11L36 10ZM50 10L50 11L51 11L51 10ZM2 12L2 13L1 13L1 16L0 16L0 17L1 17L1 20L0 20L0 21L1 21L1 20L2 20L2 21L4 21L4 20L3 20L3 19L4 19L4 18L2 18L2 17L3 17L3 15L2 15L2 14L3 14L3 13L4 13L4 12ZM56 12L56 13L55 13L55 14L54 14L54 15L55 15L55 16L54 16L54 17L55 17L55 19L56 19L56 17L57 17L57 15L56 15L56 13L57 13L57 12ZM15 13L15 14L17 14L17 16L19 16L19 14L17 14L17 13ZM27 13L27 14L28 14L28 15L27 15L27 17L28 17L28 18L30 18L30 19L28 19L28 20L30 20L30 21L29 21L29 22L28 22L28 23L29 23L29 22L33 22L33 23L32 23L32 27L33 27L33 26L34 26L34 25L37 25L37 24L34 24L34 23L35 23L35 22L37 22L37 23L38 23L38 22L39 22L39 21L40 21L40 22L43 22L43 23L42 23L42 24L41 24L41 25L42 25L42 28L43 28L43 29L41 29L41 30L40 30L40 32L39 32L39 29L40 29L40 28L41 28L41 27L40 27L40 24L39 24L39 25L38 25L38 26L39 26L39 27L37 27L37 26L36 26L36 27L35 27L35 30L36 30L36 31L35 31L35 32L34 32L34 33L33 33L33 32L32 32L32 35L31 35L31 36L30 36L30 34L31 34L31 33L29 33L29 34L28 34L28 36L27 36L27 37L25 37L25 36L26 36L26 35L27 35L27 34L26 34L26 33L23 33L23 34L22 34L22 36L23 36L23 37L24 37L24 38L25 38L25 39L26 39L26 40L25 40L25 41L24 41L24 39L23 39L23 42L26 42L26 41L27 41L27 43L28 43L28 40L31 40L31 39L33 39L33 38L34 38L34 37L35 37L35 38L37 38L37 36L38 36L38 34L39 34L39 33L40 33L40 34L42 34L42 35L41 35L41 36L43 36L43 35L44 35L44 37L45 37L45 39L43 39L43 40L44 40L44 42L43 42L43 43L47 43L47 44L46 44L46 45L47 45L47 44L49 44L49 43L50 43L50 42L49 42L49 41L48 41L48 43L47 43L47 42L46 42L46 41L47 41L47 40L49 40L49 39L50 39L50 40L51 40L51 39L50 39L50 37L48 37L48 38L49 38L49 39L47 39L47 38L46 38L46 37L47 37L47 36L46 36L46 35L48 35L48 36L49 36L49 35L48 35L48 34L46 34L46 33L47 33L47 31L46 31L46 30L45 30L45 27L44 27L44 26L43 26L43 23L44 23L44 22L43 22L43 21L40 21L40 18L41 18L41 20L42 20L42 18L43 18L43 17L42 17L42 15L43 15L43 16L44 16L44 15L43 15L43 13L41 13L41 14L40 14L40 13L38 13L38 15L39 15L39 17L38 17L38 16L37 16L37 14L35 14L35 17L38 17L38 18L39 18L39 19L37 19L37 18L34 18L34 19L31 19L31 16L29 16L29 13ZM47 13L47 14L49 14L49 13ZM39 14L39 15L40 15L40 17L39 17L39 18L40 18L40 17L41 17L41 15L40 15L40 14ZM50 16L50 17L49 17L49 19L51 19L51 18L50 18L50 17L51 17L51 16ZM55 16L55 17L56 17L56 16ZM6 17L6 18L8 18L8 17ZM21 19L21 20L20 20L20 21L19 21L19 22L18 22L18 23L20 23L20 22L21 22L21 23L22 23L22 24L23 24L23 23L22 23L22 22L21 22L21 21L22 21L22 19ZM34 19L34 20L33 20L33 21L34 21L34 22L35 22L35 21L34 21L34 20L36 20L36 19ZM31 20L31 21L32 21L32 20ZM37 20L37 22L38 22L38 20ZM49 20L49 21L51 21L51 22L52 22L52 21L51 21L51 20ZM13 21L13 22L14 22L14 21ZM45 23L45 24L44 24L44 25L45 25L45 24L46 24L46 25L48 25L48 24L46 24L46 23ZM33 24L33 25L34 25L34 24ZM25 25L25 27L26 27L26 25ZM2 26L2 27L1 27L1 29L2 29L2 30L3 30L3 32L2 32L2 33L1 33L1 34L2 34L2 33L5 33L5 32L4 32L4 30L3 30L3 29L2 29L2 27L3 27L3 28L4 28L4 27L3 27L3 26ZM5 27L5 30L8 30L8 27ZM27 27L27 30L30 30L30 27ZM49 27L49 30L52 30L52 27ZM55 27L55 29L56 29L56 28L57 28L57 27ZM6 28L6 29L7 29L7 28ZM28 28L28 29L29 29L29 28ZM37 28L37 29L38 29L38 28ZM50 28L50 29L51 29L51 28ZM14 29L14 30L13 30L13 31L11 31L11 32L9 32L9 33L12 33L12 34L10 34L10 35L9 35L9 36L11 36L11 38L12 38L12 39L13 39L13 38L15 38L15 37L16 37L16 36L15 36L15 35L14 35L14 34L15 34L15 33L17 33L17 34L19 34L19 32L20 32L20 30L19 30L19 29L18 29L18 30L17 30L17 32L16 32L16 30L15 30L15 29ZM23 29L23 30L22 30L22 31L21 31L21 33L20 33L20 35L21 35L21 33L22 33L22 31L23 31L23 32L24 32L24 30L25 30L25 29ZM43 29L43 30L44 30L44 31L45 31L45 30L44 30L44 29ZM18 30L18 31L19 31L19 30ZM37 30L37 32L38 32L38 30ZM6 31L6 32L7 32L7 31ZM27 31L27 32L28 32L28 31ZM13 32L13 33L14 33L14 32ZM40 32L40 33L41 33L41 32ZM45 32L45 33L46 33L46 32ZM34 33L34 35L33 35L33 37L32 37L32 36L31 36L31 37L29 37L29 36L28 36L28 37L27 37L27 39L28 39L28 38L29 38L29 39L31 39L31 38L33 38L33 37L34 37L34 36L35 36L35 33ZM37 33L37 34L38 34L38 33ZM43 33L43 34L44 34L44 35L46 35L46 34L44 34L44 33ZM12 34L12 35L11 35L11 36L12 36L12 35L13 35L13 34ZM24 34L24 36L25 36L25 34ZM39 35L39 36L40 36L40 35ZM14 36L14 37L15 37L15 36ZM45 36L45 37L46 37L46 36ZM12 37L12 38L13 38L13 37ZM18 37L18 39L20 39L20 38L21 38L21 37ZM0 38L0 39L1 39L1 38ZM55 38L55 39L57 39L57 38ZM4 39L4 40L5 40L5 41L7 41L7 42L6 42L6 43L7 43L7 42L8 42L8 41L7 41L7 40L6 40L6 39ZM8 39L8 40L11 40L11 39ZM45 39L45 41L46 41L46 40L47 40L47 39ZM2 41L2 42L3 42L3 41ZM31 41L31 43L29 43L29 44L30 44L30 45L29 45L29 46L30 46L30 45L31 45L31 46L32 46L32 45L31 45L31 43L32 43L32 41ZM51 41L51 43L52 43L52 41ZM17 42L17 43L18 43L18 42ZM19 44L19 45L21 45L21 44ZM39 44L39 45L40 45L40 44ZM16 45L16 48L15 48L15 47L14 47L14 46L13 46L13 48L14 48L14 49L12 49L12 51L13 51L13 53L12 53L12 54L11 54L11 55L10 55L10 56L12 56L12 54L13 54L13 53L14 53L14 52L15 52L15 53L17 53L17 45ZM27 45L27 46L28 46L28 45ZM49 45L49 46L50 46L50 45ZM1 46L1 47L2 47L2 46ZM3 46L3 47L5 47L5 46ZM18 46L18 48L19 48L19 50L20 50L20 48L22 48L22 49L21 49L21 50L22 50L22 51L21 51L21 52L22 52L22 51L23 51L23 50L22 50L22 49L23 49L23 48L22 48L22 47L20 47L20 48L19 48L19 46ZM47 46L47 47L46 47L46 49L47 49L47 47L48 47L48 46ZM54 46L54 47L52 47L52 48L53 48L53 49L55 49L55 46ZM31 47L31 48L32 48L32 47ZM36 47L36 48L37 48L37 47ZM6 48L6 49L7 49L7 48ZM15 49L15 50L13 50L13 51L15 51L15 52L16 52L16 49ZM27 49L27 52L30 52L30 49ZM49 49L49 52L52 52L52 49ZM28 50L28 51L29 51L29 50ZM31 50L31 52L32 52L32 50ZM50 50L50 51L51 51L51 50ZM19 51L19 53L20 53L20 51ZM30 53L30 54L31 54L31 53ZM33 53L33 54L34 54L34 53ZM49 53L49 54L51 54L51 55L52 55L52 54L51 54L51 53ZM40 54L40 55L43 55L43 54ZM21 55L21 57L22 57L22 55ZM56 56L56 57L57 57L57 56ZM0 0L0 7L7 7L7 0ZM1 1L1 6L6 6L6 1ZM2 2L2 5L5 5L5 2ZM50 0L50 7L57 7L57 0ZM51 1L51 6L56 6L56 1ZM52 2L52 5L55 5L55 2ZM0 50L0 57L7 57L7 50ZM1 51L1 56L6 56L6 51ZM2 52L2 55L5 55L5 52Z" fill="#000000"/></g></g></svg>
