<?xml version="1.0" encoding="UTF-8"?>
<svg xmlns="http://www.w3.org/2000/svg" version="1.1" width="300" height="300" viewBox="0 0 300 300"><rect x="0" y="0" width="300" height="300" fill="#fefefe"/><g transform="scale(4.615)"><g transform="translate(4,4)"><path fill-rule="evenodd" d="M9 0L9 1L8 1L8 2L9 2L9 3L8 3L8 4L9 4L9 5L8 5L8 7L9 7L9 5L11 5L11 6L10 6L10 7L11 7L11 6L12 6L12 7L13 7L13 8L11 8L11 9L10 9L10 10L9 10L9 8L6 8L6 9L7 9L7 10L6 10L6 11L7 11L7 10L8 10L8 15L9 15L9 11L10 11L10 12L12 12L12 11L14 11L14 12L13 12L13 13L11 13L11 14L13 14L13 17L14 17L14 15L15 15L15 16L16 16L16 17L19 17L19 18L20 18L20 19L18 19L18 20L17 20L17 18L15 18L15 19L16 19L16 20L15 20L15 21L16 21L16 22L15 22L15 23L16 23L16 24L13 24L13 22L14 22L14 21L13 21L13 20L14 20L14 19L13 19L13 20L12 20L12 19L11 19L11 20L12 20L12 21L10 21L10 23L12 23L12 25L11 25L11 24L8 24L8 22L9 22L9 21L8 21L8 20L5 20L5 19L3 19L3 20L2 20L2 22L3 22L3 23L2 23L2 26L1 26L1 25L0 25L0 26L1 26L1 28L2 28L2 27L3 27L3 29L4 29L4 31L2 31L2 29L0 29L0 30L1 30L1 31L0 31L0 35L1 35L1 36L0 36L0 38L1 38L1 39L0 39L0 40L2 40L2 39L4 39L4 41L1 41L1 45L0 45L0 48L5 48L5 47L7 47L7 46L8 46L8 47L9 47L9 45L10 45L10 47L11 47L11 45L14 45L14 47L12 47L12 48L13 48L13 49L12 49L12 50L11 50L11 51L12 51L12 52L11 52L11 55L12 55L12 54L15 54L15 55L13 55L13 56L14 56L14 57L16 57L16 56L17 56L17 57L20 57L20 56L17 56L17 54L19 54L19 55L20 55L20 54L19 54L19 53L20 53L20 52L21 52L21 53L22 53L22 56L24 56L24 57L26 57L26 56L27 56L27 57L29 57L29 56L30 56L30 57L31 57L31 56L35 56L35 57L39 57L39 56L37 56L37 54L38 54L38 55L40 55L40 56L42 56L42 55L43 55L43 57L44 57L44 54L45 54L45 53L44 53L44 52L47 52L47 51L44 51L44 50L45 50L45 49L46 49L46 48L45 48L45 49L44 49L44 48L43 48L43 47L42 47L42 48L41 48L41 46L43 46L43 45L44 45L44 47L47 47L47 48L48 48L48 49L47 49L47 50L48 50L48 54L46 54L46 55L45 55L45 57L47 57L47 56L46 56L46 55L48 55L48 56L50 56L50 57L52 57L52 55L51 55L51 53L52 53L52 54L53 54L53 57L54 57L54 56L55 56L55 57L56 57L56 56L55 56L55 54L53 54L53 52L54 52L54 53L57 53L57 51L56 51L56 50L57 50L57 48L56 48L56 46L57 46L57 45L56 45L56 44L55 44L55 43L56 43L56 42L55 42L55 39L57 39L57 35L56 35L56 34L57 34L57 32L56 32L56 30L57 30L57 27L56 27L56 26L57 26L57 25L56 25L56 22L57 22L57 21L56 21L56 20L55 20L55 19L56 19L56 18L57 18L57 17L56 17L56 16L57 16L57 15L56 15L56 14L57 14L57 12L55 12L55 11L56 11L56 10L54 10L54 11L53 11L53 10L52 10L52 11L50 11L50 8L49 8L49 6L48 6L48 7L47 7L47 5L48 5L48 0L45 0L45 2L44 2L44 3L43 3L43 4L42 4L42 2L43 2L43 0L41 0L41 1L40 1L40 0L39 0L39 1L38 1L38 0L37 0L37 1L38 1L38 2L37 2L37 3L36 3L36 0L35 0L35 1L33 1L33 2L32 2L32 1L31 1L31 0L29 0L29 1L25 1L25 0L23 0L23 2L27 2L27 3L28 3L28 2L29 2L29 3L30 3L30 4L26 4L26 3L23 3L23 4L24 4L24 5L23 5L23 6L22 6L22 8L23 8L23 10L22 10L22 9L21 9L21 10L22 10L22 11L20 11L20 9L19 9L19 8L21 8L21 4L19 4L19 3L20 3L20 2L21 2L21 1L22 1L22 0L21 0L21 1L20 1L20 0L19 0L19 3L17 3L17 6L16 6L16 7L15 7L15 6L14 6L14 7L13 7L13 5L11 5L11 4L12 4L12 3L13 3L13 4L14 4L14 2L17 2L17 1L14 1L14 2L12 2L12 3L11 3L11 2L9 2L9 1L13 1L13 0ZM46 1L46 2L47 2L47 1ZM31 2L31 3L32 3L32 4L31 4L31 8L32 8L32 10L31 10L31 11L30 11L30 10L27 10L27 11L26 11L26 12L25 12L25 10L23 10L23 12L25 12L25 13L26 13L26 17L25 17L25 16L24 16L24 15L25 15L25 14L24 14L24 15L21 15L21 16L20 16L20 15L19 15L19 14L17 14L17 13L18 13L18 12L17 12L17 11L18 11L18 10L19 10L19 9L18 9L18 8L19 8L19 7L20 7L20 5L18 5L18 6L17 6L17 7L16 7L16 8L15 8L15 7L14 7L14 9L13 9L13 10L15 10L15 13L13 13L13 14L15 14L15 13L16 13L16 16L17 16L17 15L18 15L18 16L20 16L20 18L22 18L22 19L24 19L24 18L22 18L22 17L25 17L25 18L26 18L26 21L27 21L27 23L28 23L28 24L25 24L25 23L26 23L26 22L25 22L25 21L24 21L24 20L21 20L21 19L20 19L20 21L19 21L19 22L20 22L20 23L18 23L18 22L17 22L17 24L16 24L16 25L15 25L15 26L17 26L17 24L19 24L19 25L20 25L20 26L18 26L18 27L17 27L17 28L18 28L18 29L16 29L16 28L15 28L15 29L16 29L16 30L17 30L17 31L18 31L18 32L16 32L16 33L15 33L15 31L14 31L14 29L13 29L13 28L12 28L12 27L14 27L14 26L13 26L13 25L12 25L12 27L11 27L11 25L10 25L10 26L9 26L9 27L10 27L10 28L11 28L11 30L10 30L10 29L9 29L9 31L8 31L8 34L9 34L9 35L10 35L10 34L12 34L12 33L13 33L13 34L14 34L14 35L11 35L11 36L10 36L10 37L11 37L11 38L10 38L10 39L9 39L9 40L8 40L8 41L9 41L9 42L7 42L7 41L6 41L6 42L5 42L5 41L4 41L4 43L2 43L2 46L1 46L1 47L2 47L2 46L3 46L3 47L5 47L5 46L7 46L7 45L8 45L8 44L9 44L9 43L10 43L10 45L11 45L11 44L12 44L12 43L13 43L13 44L15 44L15 46L17 46L17 45L18 45L18 44L17 44L17 45L16 45L16 43L15 43L15 42L17 42L17 43L18 43L18 42L19 42L19 41L15 41L15 39L16 39L16 40L19 40L19 39L20 39L20 38L19 38L19 37L21 37L21 38L22 38L22 39L21 39L21 40L20 40L20 42L21 42L21 43L20 43L20 44L21 44L21 45L19 45L19 49L15 49L15 50L16 50L16 51L14 51L14 52L16 52L16 53L15 53L15 54L16 54L16 53L17 53L17 51L19 51L19 49L20 49L20 51L21 51L21 49L23 49L23 47L24 47L24 49L25 49L25 48L29 48L29 44L32 44L32 45L31 45L31 46L32 46L32 47L31 47L31 48L32 48L32 49L31 49L31 50L32 50L32 51L31 51L31 53L30 53L30 54L26 54L26 53L24 53L24 52L26 52L26 50L23 50L23 52L22 52L22 53L24 53L24 54L23 54L23 55L24 55L24 56L26 56L26 55L27 55L27 56L29 56L29 55L30 55L30 56L31 56L31 54L32 54L32 53L33 53L33 55L35 55L35 56L36 56L36 54L35 54L35 53L33 53L33 52L32 52L32 51L35 51L35 50L36 50L36 52L37 52L37 53L38 53L38 54L40 54L40 53L42 53L42 50L41 50L41 48L39 48L39 47L40 47L40 46L41 46L41 44L42 44L42 42L41 42L41 44L39 44L39 45L38 45L38 46L39 46L39 47L38 47L38 48L37 48L37 49L38 49L38 50L36 50L36 49L33 49L33 46L35 46L35 48L36 48L36 47L37 47L37 46L36 46L36 45L34 45L34 43L35 43L35 44L36 44L36 43L37 43L37 42L35 42L35 40L38 40L38 42L39 42L39 41L41 41L41 40L42 40L42 39L45 39L45 40L44 40L44 42L43 42L43 44L44 44L44 45L45 45L45 46L47 46L47 47L48 47L48 48L49 48L49 47L51 47L51 46L52 46L52 47L54 47L54 46L53 46L53 43L54 43L54 42L53 42L53 41L54 41L54 40L53 40L53 41L51 41L51 42L50 42L50 43L47 43L47 45L45 45L45 44L46 44L46 42L48 42L48 41L49 41L49 39L47 39L47 38L49 38L49 37L51 37L51 38L50 38L50 39L55 39L55 37L56 37L56 35L55 35L55 34L56 34L56 32L55 32L55 34L54 34L54 33L52 33L52 31L51 31L51 33L52 33L52 34L50 34L50 31L48 31L48 30L47 30L47 29L46 29L46 30L47 30L47 31L46 31L46 32L47 32L47 33L45 33L45 32L43 32L43 31L44 31L44 30L45 30L45 28L46 28L46 27L48 27L48 26L47 26L47 25L50 25L50 26L52 26L52 25L55 25L55 26L56 26L56 25L55 25L55 24L53 24L53 23L52 23L52 24L50 24L50 22L51 22L51 21L54 21L54 22L56 22L56 21L55 21L55 20L53 20L53 19L52 19L52 20L51 20L51 21L49 21L49 23L48 23L48 24L47 24L47 23L45 23L45 22L47 22L47 21L48 21L48 20L49 20L49 19L50 19L50 18L51 18L51 17L53 17L53 18L56 18L56 17L54 17L54 16L53 16L53 15L55 15L55 14L56 14L56 13L55 13L55 12L54 12L54 14L53 14L53 15L52 15L52 16L51 16L51 15L50 15L50 14L51 14L51 12L50 12L50 11L49 11L49 10L47 10L47 9L49 9L49 8L47 8L47 7L46 7L46 6L45 6L45 4L46 4L46 5L47 5L47 3L44 3L44 6L43 6L43 7L42 7L42 5L40 5L40 4L41 4L41 3L39 3L39 2L38 2L38 5L37 5L37 4L36 4L36 5L35 5L35 2L33 2L33 3L32 3L32 2ZM10 3L10 4L11 4L11 3ZM15 4L15 5L16 5L16 4ZM25 4L25 8L26 8L26 4ZM32 4L32 5L34 5L34 7L33 7L33 6L32 6L32 7L33 7L33 9L34 9L34 8L35 8L35 9L37 9L37 10L36 10L36 11L35 11L35 13L37 13L37 14L38 14L38 15L39 15L39 16L38 16L38 17L37 17L37 16L35 16L35 14L32 14L32 12L31 12L31 13L30 13L30 14L29 14L29 13L28 13L28 12L29 12L29 11L27 11L27 12L26 12L26 13L28 13L28 14L29 14L29 16L28 16L28 15L27 15L27 16L28 16L28 17L27 17L27 18L28 18L28 19L27 19L27 20L28 20L28 19L30 19L30 20L31 20L31 21L28 21L28 22L31 22L31 21L32 21L32 20L34 20L34 19L30 19L30 18L31 18L31 17L32 17L32 18L33 18L33 17L32 17L32 15L33 15L33 16L35 16L35 17L37 17L37 18L38 18L38 17L39 17L39 19L37 19L37 20L36 20L36 19L35 19L35 23L34 23L34 22L33 22L33 23L32 23L32 24L31 24L31 23L30 23L30 24L29 24L29 25L30 25L30 26L28 26L28 25L27 25L27 26L26 26L26 25L25 25L25 24L24 24L24 23L23 23L23 25L22 25L22 24L20 24L20 25L22 25L22 26L20 26L20 27L22 27L22 26L23 26L23 28L24 28L24 27L25 27L25 28L26 28L26 29L23 29L23 30L25 30L25 31L24 31L24 32L25 32L25 33L23 33L23 34L24 34L24 36L23 36L23 37L24 37L24 38L23 38L23 39L22 39L22 40L23 40L23 39L24 39L24 40L25 40L25 39L26 39L26 40L28 40L28 39L26 39L26 38L28 38L28 37L26 37L26 38L25 38L25 36L27 36L27 34L26 34L26 35L25 35L25 33L26 33L26 32L27 32L27 31L29 31L29 32L28 32L28 33L29 33L29 34L30 34L30 36L29 36L29 37L31 37L31 38L29 38L29 39L33 39L33 40L35 40L35 39L37 39L37 38L38 38L38 37L37 37L37 36L38 36L38 33L37 33L37 32L35 32L35 31L36 31L36 30L31 30L31 29L32 29L32 28L31 28L31 26L32 26L32 27L33 27L33 28L35 28L35 29L38 29L38 28L40 28L40 27L37 27L37 28L36 28L36 26L34 26L34 27L33 27L33 26L32 26L32 24L33 24L33 25L37 25L37 26L38 26L38 24L39 24L39 23L38 23L38 24L37 24L37 22L38 22L38 20L42 20L42 21L39 21L39 22L40 22L40 24L41 24L41 25L42 25L42 26L41 26L41 28L42 28L42 26L43 26L43 25L44 25L44 27L43 27L43 28L45 28L45 27L46 27L46 26L45 26L45 25L46 25L46 24L45 24L45 25L44 25L44 24L43 24L43 23L44 23L44 20L45 20L45 21L47 21L47 20L48 20L48 19L49 19L49 18L50 18L50 17L49 17L49 16L50 16L50 15L49 15L49 14L50 14L50 12L49 12L49 13L47 13L47 14L45 14L45 13L44 13L44 12L43 12L43 13L41 13L41 14L38 14L38 13L40 13L40 12L41 12L41 11L45 11L45 12L47 12L47 10L46 10L46 9L45 9L45 10L44 10L44 8L46 8L46 7L45 7L45 6L44 6L44 7L43 7L43 9L40 9L40 10L41 10L41 11L40 11L40 12L39 12L39 10L38 10L38 8L39 8L39 6L40 6L40 7L41 7L41 6L40 6L40 5L39 5L39 6L38 6L38 8L35 8L35 5L34 5L34 4ZM27 5L27 8L30 8L30 5ZM36 5L36 7L37 7L37 5ZM18 6L18 7L19 7L19 6ZM23 6L23 8L24 8L24 6ZM28 6L28 7L29 7L29 6ZM0 8L0 9L5 9L5 8ZM16 8L16 9L15 9L15 10L16 10L16 9L17 9L17 10L18 10L18 9L17 9L17 8ZM51 8L51 9L52 9L52 8ZM53 8L53 9L54 9L54 8ZM55 8L55 9L56 9L56 8ZM1 10L1 12L2 12L2 13L1 13L1 14L3 14L3 15L0 15L0 18L1 18L1 19L2 19L2 18L6 18L6 19L8 19L8 16L5 16L5 17L2 17L2 18L1 18L1 16L4 16L4 15L5 15L5 14L6 14L6 15L7 15L7 14L6 14L6 13L7 13L7 12L6 12L6 13L5 13L5 12L4 12L4 11L5 11L5 10L4 10L4 11L3 11L3 10ZM32 10L32 11L33 11L33 10ZM37 10L37 11L38 11L38 10ZM45 10L45 11L46 11L46 10ZM2 11L2 12L3 12L3 11ZM16 12L16 13L17 13L17 12ZM20 12L20 14L21 14L21 13L22 13L22 14L23 14L23 13L22 13L22 12ZM33 12L33 13L34 13L34 12ZM52 12L52 13L53 13L53 12ZM3 13L3 14L4 14L4 13ZM30 14L30 15L31 15L31 14ZM41 14L41 16L39 16L39 17L41 17L41 16L42 16L42 17L43 17L43 16L42 16L42 15L44 15L44 18L43 18L43 20L44 20L44 18L45 18L45 19L46 19L46 20L47 20L47 19L46 19L46 18L47 18L47 17L46 17L46 16L47 16L47 15L46 15L46 16L45 16L45 14ZM10 15L10 17L11 17L11 18L12 18L12 17L11 17L11 15ZM48 15L48 16L49 16L49 15ZM21 16L21 17L22 17L22 16ZM6 17L6 18L7 18L7 17ZM45 17L45 18L46 18L46 17ZM9 18L9 20L10 20L10 18ZM41 18L41 19L42 19L42 18ZM0 20L0 22L1 22L1 20ZM3 20L3 21L5 21L5 20ZM16 20L16 21L17 21L17 20ZM6 21L6 22L4 22L4 23L3 23L3 24L7 24L7 25L6 25L6 26L7 26L7 25L8 25L8 24L7 24L7 23L6 23L6 22L7 22L7 21ZM23 21L23 22L24 22L24 21ZM41 22L41 23L43 23L43 22ZM3 25L3 26L4 26L4 25ZM25 26L25 27L26 27L26 26ZM53 26L53 27L54 27L54 26ZM5 27L5 30L8 30L8 27ZM27 27L27 30L30 30L30 27ZM49 27L49 30L52 30L52 27ZM55 27L55 28L54 28L54 30L55 30L55 28L56 28L56 27ZM6 28L6 29L7 29L7 28ZM20 28L20 29L18 29L18 30L19 30L19 31L20 31L20 29L22 29L22 28ZM28 28L28 29L29 29L29 28ZM50 28L50 29L51 29L51 28ZM12 29L12 32L10 32L10 31L9 31L9 32L10 32L10 33L12 33L12 32L13 32L13 29ZM39 29L39 30L38 30L38 32L39 32L39 31L41 31L41 30L44 30L44 29ZM1 31L1 33L2 33L2 36L1 36L1 38L2 38L2 36L3 36L3 37L5 37L5 40L7 40L7 39L8 39L8 38L7 38L7 37L9 37L9 36L7 36L7 35L5 35L5 34L7 34L7 33L5 33L5 32L7 32L7 31L4 31L4 33L2 33L2 31ZM21 31L21 32L23 32L23 31ZM25 31L25 32L26 32L26 31ZM30 31L30 32L29 32L29 33L31 33L31 31ZM32 31L32 35L33 35L33 36L32 36L32 37L33 37L33 39L34 39L34 38L35 38L35 36L37 36L37 34L35 34L35 33L33 33L33 31ZM47 31L47 32L48 32L48 33L49 33L49 32L48 32L48 31ZM18 32L18 33L17 33L17 34L15 34L15 33L14 33L14 34L15 34L15 35L16 35L16 36L17 36L17 38L18 38L18 37L19 37L19 36L20 36L20 35L19 35L19 34L20 34L20 33L19 33L19 32ZM41 32L41 33L39 33L39 34L40 34L40 35L39 35L39 37L40 37L40 38L41 38L41 39L42 39L42 38L43 38L43 37L44 37L44 38L45 38L45 37L44 37L44 36L46 36L46 37L47 37L47 36L48 36L48 35L50 35L50 36L52 36L52 35L53 35L53 37L55 37L55 35L53 35L53 34L52 34L52 35L50 35L50 34L48 34L48 35L47 35L47 34L45 34L45 35L44 35L44 33L43 33L43 32ZM18 33L18 34L17 34L17 35L18 35L18 34L19 34L19 33ZM21 33L21 34L22 34L22 33ZM3 34L3 36L4 36L4 34ZM33 34L33 35L34 35L34 36L35 36L35 34ZM42 34L42 35L41 35L41 36L40 36L40 37L41 37L41 38L42 38L42 37L43 37L43 36L44 36L44 35L43 35L43 34ZM6 36L6 37L7 37L7 36ZM13 36L13 37L14 37L14 36ZM41 36L41 37L42 37L42 36ZM15 37L15 38L12 38L12 39L13 39L13 40L12 40L12 41L11 41L11 40L10 40L10 42L12 42L12 41L14 41L14 42L13 42L13 43L14 43L14 42L15 42L15 41L14 41L14 39L15 39L15 38L16 38L16 37ZM6 38L6 39L7 39L7 38ZM38 39L38 40L39 40L39 39ZM46 39L46 40L47 40L47 39ZM29 40L29 42L27 42L27 41L26 41L26 42L27 42L27 43L25 43L25 44L27 44L27 45L26 45L26 47L27 47L27 45L28 45L28 44L29 44L29 43L32 43L32 44L33 44L33 43L34 43L34 42L33 42L33 41L32 41L32 40L31 40L31 41L30 41L30 40ZM21 41L21 42L22 42L22 43L21 43L21 44L22 44L22 45L21 45L21 47L23 47L23 46L22 46L22 45L24 45L24 47L25 47L25 45L24 45L24 44L23 44L23 42L25 42L25 41L23 41L23 42L22 42L22 41ZM31 41L31 42L32 42L32 43L33 43L33 42L32 42L32 41ZM45 41L45 42L44 42L44 43L45 43L45 42L46 42L46 41ZM6 42L6 43L5 43L5 45L3 45L3 46L5 46L5 45L7 45L7 44L6 44L6 43L7 43L7 42ZM51 42L51 43L50 43L50 45L47 45L47 46L48 46L48 47L49 47L49 46L51 46L51 45L52 45L52 44L51 44L51 43L53 43L53 42ZM54 44L54 45L55 45L55 46L56 46L56 45L55 45L55 44ZM32 45L32 46L33 46L33 45ZM17 47L17 48L18 48L18 47ZM6 48L6 49L7 49L7 48ZM8 48L8 51L9 51L9 52L8 52L8 57L9 57L9 52L10 52L10 51L9 51L9 48ZM10 48L10 49L11 49L11 48ZM20 48L20 49L21 49L21 48ZM38 48L38 49L39 49L39 48ZM42 48L42 49L43 49L43 50L44 50L44 49L43 49L43 48ZM53 48L53 49L56 49L56 48ZM27 49L27 52L30 52L30 49ZM32 49L32 50L33 50L33 49ZM49 49L49 52L52 52L52 49ZM28 50L28 51L29 51L29 50ZM38 50L38 51L40 51L40 52L41 52L41 50ZM50 50L50 51L51 51L51 50ZM54 50L54 51L55 51L55 52L56 52L56 51L55 51L55 50ZM38 52L38 53L39 53L39 52ZM43 53L43 54L44 54L44 53ZM41 54L41 55L42 55L42 54ZM15 55L15 56L16 56L16 55ZM50 55L50 56L51 56L51 55ZM0 0L0 7L7 7L7 0ZM1 1L1 6L6 6L6 1ZM2 2L2 5L5 5L5 2ZM50 0L50 7L57 7L57 0ZM51 1L51 6L56 6L56 1ZM52 2L52 5L55 5L55 2ZM0 50L0 57L7 57L7 50ZM1 51L1 56L6 56L6 51ZM2 52L2 55L5 55L5 52Z" fill="#000000"/></g></g></svg>
