<?xml version="1.0" encoding="UTF-8"?>
<svg xmlns="http://www.w3.org/2000/svg" version="1.1" width="300" height="300" viewBox="0 0 300 300"><rect x="0" y="0" width="300" height="300" fill="#fefefe"/><g transform="scale(4.615)"><g transform="translate(4,4)"><path fill-rule="evenodd" d="M10 0L10 1L11 1L11 2L12 2L12 1L11 1L11 0ZM13 0L13 1L14 1L14 2L13 2L13 4L14 4L14 2L15 2L15 3L17 3L17 4L18 4L18 5L17 5L17 6L16 6L16 7L15 7L15 5L16 5L16 4L15 4L15 5L14 5L14 8L12 8L12 7L13 7L13 5L12 5L12 4L11 4L11 3L10 3L10 2L9 2L9 1L8 1L8 2L9 2L9 3L8 3L8 4L9 4L9 5L8 5L8 7L9 7L9 8L6 8L6 9L8 9L8 11L7 11L7 10L6 10L6 11L4 11L4 10L5 10L5 8L0 8L0 9L3 9L3 11L2 11L2 10L0 10L0 12L1 12L1 13L2 13L2 14L1 14L1 15L0 15L0 16L1 16L1 17L0 17L0 19L1 19L1 20L0 20L0 21L1 21L1 24L0 24L0 25L1 25L1 26L0 26L0 27L2 27L2 29L1 29L1 28L0 28L0 29L1 29L1 33L0 33L0 35L1 35L1 34L2 34L2 33L4 33L4 34L3 34L3 35L2 35L2 36L0 36L0 37L1 37L1 38L0 38L0 39L1 39L1 40L0 40L0 43L1 43L1 44L0 44L0 48L5 48L5 47L7 47L7 48L6 48L6 49L8 49L8 51L12 51L12 52L13 52L13 50L14 50L14 49L13 49L13 48L12 48L12 49L11 49L11 48L10 48L10 49L9 49L9 47L8 47L8 46L9 46L9 45L11 45L11 46L10 46L10 47L14 47L14 48L15 48L15 47L16 47L16 46L15 46L15 45L14 45L14 46L13 46L13 44L12 44L12 45L11 45L11 44L9 44L9 45L8 45L8 46L5 46L5 47L3 47L3 46L4 46L4 44L5 44L5 43L8 43L8 42L10 42L10 43L11 43L11 42L12 42L12 41L13 41L13 40L15 40L15 41L16 41L16 39L13 39L13 40L11 40L11 39L10 39L10 37L11 37L11 38L13 38L13 37L14 37L14 34L13 34L13 33L14 33L14 31L15 31L15 33L19 33L19 34L20 34L20 35L18 35L18 36L17 36L17 37L19 37L19 38L17 38L17 40L18 40L18 41L17 41L17 42L14 42L14 44L16 44L16 45L17 45L17 46L20 46L20 45L19 45L19 42L20 42L20 44L22 44L22 45L21 45L21 47L23 47L23 46L24 46L24 48L23 48L23 49L21 49L21 50L25 50L25 49L24 49L24 48L25 48L25 45L23 45L23 44L27 44L27 45L26 45L26 47L27 47L27 48L26 48L26 52L24 52L24 53L23 53L23 54L22 54L22 53L21 53L21 54L22 54L22 55L23 55L23 56L24 56L24 55L23 55L23 54L24 54L24 53L25 53L25 54L26 54L26 56L25 56L25 57L26 57L26 56L27 56L27 57L29 57L29 56L30 56L30 57L31 57L31 56L35 56L35 57L39 57L39 56L37 56L37 55L40 55L40 56L41 56L41 57L44 57L44 56L41 56L41 54L42 54L42 55L44 55L44 54L45 54L45 55L48 55L48 57L49 57L49 56L50 56L50 57L52 57L52 55L51 55L51 53L52 53L52 54L55 54L55 52L56 52L56 50L57 50L57 48L56 48L56 46L57 46L57 45L56 45L56 44L57 44L57 43L56 43L56 42L55 42L55 39L57 39L57 35L56 35L56 33L57 33L57 32L56 32L56 30L57 30L57 28L56 28L56 27L55 27L55 26L57 26L57 25L56 25L56 22L57 22L57 19L56 19L56 22L53 22L53 21L51 21L51 20L52 20L52 19L53 19L53 20L55 20L55 18L57 18L57 17L56 17L56 16L57 16L57 15L56 15L56 14L57 14L57 13L56 13L56 8L55 8L55 10L54 10L54 11L52 11L52 10L53 10L53 9L54 9L54 8L53 8L53 9L52 9L52 8L51 8L51 9L52 9L52 10L49 10L49 9L50 9L50 8L49 8L49 6L48 6L48 7L47 7L47 5L48 5L48 0L45 0L45 2L44 2L44 3L43 3L43 4L42 4L42 2L43 2L43 0L41 0L41 1L40 1L40 0L39 0L39 1L38 1L38 0L37 0L37 1L38 1L38 2L39 2L39 3L36 3L36 0L35 0L35 1L33 1L33 2L32 2L32 3L31 3L31 4L26 4L26 3L23 3L23 2L25 2L25 1L26 1L26 2L27 2L27 3L29 3L29 2L31 2L31 1L32 1L32 0L27 0L27 1L26 1L26 0L23 0L23 2L22 2L22 0L21 0L21 1L18 1L18 0L17 0L17 2L15 2L15 1L14 1L14 0ZM27 1L27 2L29 2L29 1ZM46 1L46 2L47 2L47 1ZM18 2L18 3L19 3L19 4L21 4L21 5L24 5L24 4L23 4L23 3L22 3L22 2L21 2L21 3L20 3L20 2ZM33 2L33 3L32 3L32 4L31 4L31 8L32 8L32 10L31 10L31 11L29 11L29 12L28 12L28 13L26 13L26 12L27 12L27 11L28 11L28 10L29 10L29 9L28 9L28 10L27 10L27 11L26 11L26 12L25 12L25 11L24 11L24 13L22 13L22 12L20 12L20 10L21 10L21 11L22 11L22 10L23 10L23 9L25 9L25 8L26 8L26 4L25 4L25 8L24 8L24 6L23 6L23 8L19 8L19 9L18 9L18 8L17 8L17 7L18 7L18 6L19 6L19 7L20 7L20 5L18 5L18 6L17 6L17 7L16 7L16 8L17 8L17 9L15 9L15 8L14 8L14 9L13 9L13 10L11 10L11 9L12 9L12 8L11 8L11 7L12 7L12 5L9 5L9 7L10 7L10 9L9 9L9 10L10 10L10 11L11 11L11 12L14 12L14 11L13 11L13 10L17 10L17 11L15 11L15 13L13 13L13 14L15 14L15 13L16 13L16 16L15 16L15 15L14 15L14 18L13 18L13 17L10 17L10 18L12 18L12 19L9 19L9 15L10 15L10 14L11 14L11 16L13 16L13 15L12 15L12 13L10 13L10 12L8 12L8 13L6 13L6 12L7 12L7 11L6 11L6 12L5 12L5 13L4 13L4 14L2 14L2 18L1 18L1 19L3 19L3 20L2 20L2 21L3 21L3 22L2 22L2 24L1 24L1 25L2 25L2 26L3 26L3 27L4 27L4 26L5 26L5 24L7 24L7 25L6 25L6 26L7 26L7 25L8 25L8 26L9 26L9 27L10 27L10 26L11 26L11 28L12 28L12 29L13 29L13 31L14 31L14 29L16 29L16 30L17 30L17 31L19 31L19 32L20 32L20 34L21 34L21 33L22 33L22 36L19 36L19 37L21 37L21 40L19 40L19 41L18 41L18 42L17 42L17 43L18 43L18 42L19 42L19 41L20 41L20 42L21 42L21 43L22 43L22 42L23 42L23 43L24 43L24 42L23 42L23 41L25 41L25 43L27 43L27 42L32 42L32 43L29 43L29 44L28 44L28 45L27 45L27 47L28 47L28 48L29 48L29 45L31 45L31 46L32 46L32 47L33 47L33 48L31 48L31 49L32 49L32 50L31 50L31 53L30 53L30 54L27 54L27 56L29 56L29 55L30 55L30 56L31 56L31 54L32 54L32 53L33 53L33 54L35 54L35 56L36 56L36 54L35 54L35 50L36 50L36 52L37 52L37 51L38 51L38 53L37 53L37 54L40 54L40 53L41 53L41 52L40 52L40 51L38 51L38 50L41 50L41 51L42 51L42 52L43 52L43 51L42 51L42 50L41 50L41 48L42 48L42 49L43 49L43 50L44 50L44 51L45 51L45 50L46 50L46 51L47 51L47 52L44 52L44 53L43 53L43 54L44 54L44 53L45 53L45 54L48 54L48 50L47 50L47 49L48 49L48 48L49 48L49 47L48 47L48 46L49 46L49 45L50 45L50 47L51 47L51 46L53 46L53 47L52 47L52 48L53 48L53 49L54 49L54 48L53 48L53 47L55 47L55 46L56 46L56 45L55 45L55 44L54 44L54 45L52 45L52 44L53 44L53 43L54 43L54 42L53 42L53 41L51 41L51 42L50 42L50 43L48 43L48 44L47 44L47 45L45 45L45 44L46 44L46 43L47 43L47 42L48 42L48 41L49 41L49 39L55 39L55 37L56 37L56 35L55 35L55 34L54 34L54 33L56 33L56 32L54 32L54 33L52 33L52 32L53 32L53 31L52 31L52 32L51 32L51 31L48 31L48 29L46 29L46 30L47 30L47 31L48 31L48 32L43 32L43 30L40 30L40 29L44 29L44 31L45 31L45 28L46 28L46 27L47 27L47 28L48 28L48 26L47 26L47 25L46 25L46 24L45 24L45 23L46 23L46 22L47 22L47 21L48 21L48 20L49 20L49 19L52 19L52 18L55 18L55 17L53 17L53 16L52 16L52 15L50 15L50 14L51 14L51 12L50 12L50 11L49 11L49 10L47 10L47 9L49 9L49 8L47 8L47 7L46 7L46 5L47 5L47 3L44 3L44 6L43 6L43 7L44 7L44 6L45 6L45 7L46 7L46 8L47 8L47 9L45 9L45 8L42 8L42 6L41 6L41 5L40 5L40 4L41 4L41 3L39 3L39 4L38 4L38 5L37 5L37 4L36 4L36 5L35 5L35 3L34 3L34 2ZM9 3L9 4L10 4L10 3ZM32 4L32 5L34 5L34 7L33 7L33 6L32 6L32 7L33 7L33 9L34 9L34 8L35 8L35 9L37 9L37 10L36 10L36 12L35 12L35 13L36 13L36 14L32 14L32 12L33 12L33 13L34 13L34 12L33 12L33 10L32 10L32 12L31 12L31 13L30 13L30 14L29 14L29 13L28 13L28 14L29 14L29 16L28 16L28 15L27 15L27 16L28 16L28 17L26 17L26 14L25 14L25 13L24 13L24 14L25 14L25 15L24 15L24 16L25 16L25 17L22 17L22 16L21 16L21 17L22 17L22 18L20 18L20 17L19 17L19 16L20 16L20 12L19 12L19 10L20 10L20 9L19 9L19 10L18 10L18 9L17 9L17 10L18 10L18 11L17 11L17 12L16 12L16 13L17 13L17 14L18 14L18 15L19 15L19 16L18 16L18 17L17 17L17 16L16 16L16 17L17 17L17 21L16 21L16 20L15 20L15 21L16 21L16 22L14 22L14 21L13 21L13 20L14 20L14 19L12 19L12 20L11 20L11 21L12 21L12 22L11 22L11 23L10 23L10 24L9 24L9 26L10 26L10 24L11 24L11 26L12 26L12 25L13 25L13 27L14 27L14 28L15 28L15 27L14 27L14 25L15 25L15 24L14 24L14 23L16 23L16 24L17 24L17 25L18 25L18 26L16 26L16 27L18 27L18 26L20 26L20 27L19 27L19 29L18 29L18 28L16 28L16 29L18 29L18 30L19 30L19 31L20 31L20 30L19 30L19 29L22 29L22 28L20 28L20 27L22 27L22 26L23 26L23 30L24 30L24 31L21 31L21 32L24 32L24 31L25 31L25 32L27 32L27 31L31 31L31 33L29 33L29 32L28 32L28 33L29 33L29 34L30 34L30 36L29 36L29 37L31 37L31 38L29 38L29 39L33 39L33 40L35 40L35 42L37 42L37 43L36 43L36 44L35 44L35 43L34 43L34 42L33 42L33 41L32 41L32 40L30 40L30 41L32 41L32 42L33 42L33 43L32 43L32 44L31 44L31 45L32 45L32 44L33 44L33 43L34 43L34 45L36 45L36 46L33 46L33 47L36 47L36 48L35 48L35 49L36 49L36 50L38 50L38 49L39 49L39 48L41 48L41 46L43 46L43 47L42 47L42 48L43 48L43 49L44 49L44 50L45 50L45 49L46 49L46 48L45 48L45 49L44 49L44 48L43 48L43 47L47 47L47 48L48 48L48 47L47 47L47 46L48 46L48 45L49 45L49 44L48 44L48 45L47 45L47 46L44 46L44 43L43 43L43 41L44 41L44 42L45 42L45 41L44 41L44 40L45 40L45 39L44 39L44 40L42 40L42 39L38 39L38 40L35 40L35 39L37 39L37 38L38 38L38 37L40 37L40 38L43 38L43 37L44 37L44 38L45 38L45 37L46 37L46 36L48 36L48 35L50 35L50 36L49 36L49 38L47 38L47 39L46 39L46 41L47 41L47 39L49 39L49 38L50 38L50 36L51 36L51 37L52 37L52 35L53 35L53 37L55 37L55 35L53 35L53 34L52 34L52 33L51 33L51 32L50 32L50 34L48 34L48 35L44 35L44 33L43 33L43 32L41 32L41 33L39 33L39 34L40 34L40 35L38 35L38 33L37 33L37 32L35 32L35 31L36 31L36 30L31 30L31 29L32 29L32 27L33 27L33 28L35 28L35 29L38 29L38 28L39 28L39 27L36 27L36 26L34 26L34 27L33 27L33 26L32 26L32 24L33 24L33 25L37 25L37 26L38 26L38 25L39 25L39 26L40 26L40 27L41 27L41 28L42 28L42 27L41 27L41 26L44 26L44 27L43 27L43 28L45 28L45 27L46 27L46 26L45 26L45 25L44 25L44 20L48 20L48 19L49 19L49 18L50 18L50 17L52 17L52 16L50 16L50 17L49 17L49 16L48 16L48 15L49 15L49 14L50 14L50 12L49 12L49 11L47 11L47 10L44 10L44 9L41 9L41 10L40 10L40 12L39 12L39 11L37 11L37 10L38 10L38 8L40 8L40 7L41 7L41 6L40 6L40 5L39 5L39 6L38 6L38 7L37 7L37 5L36 5L36 7L37 7L37 8L35 8L35 5L34 5L34 4ZM45 4L45 5L46 5L46 4ZM27 5L27 8L30 8L30 5ZM10 6L10 7L11 7L11 6ZM21 6L21 7L22 7L22 6ZM28 6L28 7L29 7L29 6ZM39 6L39 7L40 7L40 6ZM21 9L21 10L22 10L22 9ZM43 10L43 11L41 11L41 12L40 12L40 13L38 13L38 14L37 14L37 15L35 15L35 16L31 16L31 18L30 18L30 19L28 19L28 18L27 18L27 19L26 19L26 20L25 20L25 21L24 21L24 20L23 20L23 19L24 19L24 18L22 18L22 19L20 19L20 18L19 18L19 17L18 17L18 18L19 18L19 19L18 19L18 20L19 20L19 19L20 19L20 21L17 21L17 24L19 24L19 25L20 25L20 26L21 26L21 25L24 25L24 24L25 24L25 25L26 25L26 26L25 26L25 27L24 27L24 28L25 28L25 29L26 29L26 28L25 28L25 27L26 27L26 26L27 26L27 25L31 25L31 24L32 24L32 23L35 23L35 19L36 19L36 20L37 20L37 19L39 19L39 17L41 17L41 16L42 16L42 17L43 17L43 16L42 16L42 15L44 15L44 18L43 18L43 20L44 20L44 18L45 18L45 19L46 19L46 18L47 18L47 17L46 17L46 16L47 16L47 15L45 15L45 14L47 14L47 13L49 13L49 12L45 12L45 11L44 11L44 10ZM1 11L1 12L2 12L2 11ZM3 11L3 12L4 12L4 11ZM17 12L17 13L18 13L18 12ZM43 12L43 13L41 13L41 14L38 14L38 15L39 15L39 16L38 16L38 17L37 17L37 16L35 16L35 17L37 17L37 18L38 18L38 17L39 17L39 16L41 16L41 14L43 14L43 13L44 13L44 14L45 14L45 13L44 13L44 12ZM52 12L52 13L53 13L53 15L54 15L54 13L55 13L55 14L56 14L56 13L55 13L55 12L54 12L54 13L53 13L53 12ZM8 13L8 15L7 15L7 14L5 14L5 15L3 15L3 16L4 16L4 17L3 17L3 19L4 19L4 20L3 20L3 21L4 21L4 22L3 22L3 23L4 23L4 22L5 22L5 23L9 23L9 22L8 22L8 21L9 21L9 20L8 20L8 21L7 21L7 20L6 20L6 19L7 19L7 18L8 18L8 17L7 17L7 16L8 16L8 15L9 15L9 14L10 14L10 13ZM21 13L21 15L23 15L23 14L22 14L22 13ZM30 14L30 15L32 15L32 14ZM6 15L6 16L5 16L5 17L4 17L4 18L5 18L5 19L6 19L6 18L7 18L7 17L6 17L6 16L7 16L7 15ZM5 17L5 18L6 18L6 17ZM25 17L25 18L26 18L26 17ZM32 17L32 18L33 18L33 19L30 19L30 20L29 20L29 21L28 21L28 22L29 22L29 23L27 23L27 21L25 21L25 22L26 22L26 23L25 23L25 24L31 24L31 23L30 23L30 22L31 22L31 21L32 21L32 20L34 20L34 18L33 18L33 17ZM15 18L15 19L16 19L16 18ZM41 18L41 19L42 19L42 18ZM27 19L27 20L28 20L28 19ZM5 20L5 22L7 22L7 21L6 21L6 20ZM21 20L21 21L22 21L22 23L21 23L21 24L20 24L20 25L21 25L21 24L24 24L24 23L23 23L23 22L24 22L24 21L22 21L22 20ZM38 20L38 22L39 22L39 23L37 23L37 24L39 24L39 25L40 25L40 26L41 26L41 25L43 25L43 23L42 23L42 22L41 22L41 24L39 24L39 23L40 23L40 22L39 22L39 21L42 21L42 20ZM29 21L29 22L30 22L30 21ZM49 21L49 22L48 22L48 24L50 24L50 26L52 26L52 25L53 25L53 23L50 23L50 22L51 22L51 21ZM12 22L12 23L14 23L14 22ZM18 22L18 23L20 23L20 22ZM2 24L2 25L4 25L4 24ZM54 24L54 25L55 25L55 24ZM31 26L31 27L32 27L32 26ZM53 26L53 27L54 27L54 26ZM5 27L5 30L8 30L8 27ZM27 27L27 30L30 30L30 27ZM49 27L49 30L52 30L52 27ZM3 28L3 29L2 29L2 30L4 30L4 28ZM6 28L6 29L7 29L7 28ZM28 28L28 29L29 29L29 28ZM50 28L50 29L51 29L51 28ZM54 28L54 29L55 29L55 28ZM10 29L10 30L11 30L11 29ZM38 30L38 32L39 32L39 30ZM2 31L2 32L5 32L5 33L6 33L6 34L5 34L5 35L6 35L6 36L5 36L5 37L3 37L3 36L4 36L4 35L3 35L3 36L2 36L2 38L5 38L5 39L3 39L3 40L2 40L2 42L1 42L1 43L2 43L2 44L1 44L1 47L2 47L2 44L4 44L4 43L5 43L5 42L7 42L7 41L6 41L6 40L7 40L7 39L6 39L6 38L8 38L8 41L9 41L9 38L8 38L8 37L9 37L9 35L10 35L10 36L11 36L11 37L12 37L12 36L13 36L13 35L12 35L12 33L13 33L13 32L12 32L12 31L11 31L11 32L10 32L10 34L8 34L8 35L6 35L6 34L7 34L7 33L6 33L6 32L8 32L8 33L9 33L9 31L6 31L6 32L5 32L5 31ZM32 31L32 33L33 33L33 34L31 34L31 35L33 35L33 34L34 34L34 35L35 35L35 36L37 36L37 37L38 37L38 35L37 35L37 34L35 34L35 32L34 32L34 31ZM48 32L48 33L49 33L49 32ZM23 33L23 34L24 34L24 36L23 36L23 37L24 37L24 38L22 38L22 39L24 39L24 40L25 40L25 39L26 39L26 40L27 40L27 41L26 41L26 42L27 42L27 41L28 41L28 39L27 39L27 38L28 38L28 37L27 37L27 35L26 35L26 34L27 34L27 33L26 33L26 34L25 34L25 33ZM10 34L10 35L11 35L11 34ZM15 34L15 36L16 36L16 34ZM42 34L42 35L41 35L41 36L40 36L40 37L43 37L43 36L44 36L44 37L45 37L45 36L44 36L44 35L43 35L43 34ZM50 34L50 35L52 35L52 34ZM42 35L42 36L43 36L43 35ZM6 36L6 37L5 37L5 38L6 38L6 37L7 37L7 36ZM25 36L25 38L26 38L26 36ZM32 36L32 37L33 37L33 39L35 39L35 37L33 37L33 36ZM15 37L15 38L16 38L16 37ZM19 38L19 39L20 39L20 38ZM3 40L3 41L4 41L4 42L5 42L5 41L4 41L4 40ZM10 40L10 42L11 42L11 40ZM38 40L38 42L39 42L39 41L41 41L41 40ZM21 41L21 42L22 42L22 41ZM51 42L51 43L50 43L50 45L51 45L51 43L53 43L53 42ZM40 43L40 44L39 44L39 45L38 45L38 46L39 46L39 47L38 47L38 48L37 48L37 49L38 49L38 48L39 48L39 47L40 47L40 46L39 46L39 45L41 45L41 44L42 44L42 43ZM6 44L6 45L7 45L7 44ZM17 44L17 45L18 45L18 44ZM22 45L22 46L23 46L23 45ZM14 46L14 47L15 47L15 46ZM19 47L19 48L16 48L16 49L15 49L15 51L16 51L16 49L17 49L17 51L18 51L18 50L19 50L19 52L17 52L17 53L16 53L16 52L14 52L14 54L15 54L15 55L12 55L12 54L11 54L11 55L10 55L10 56L9 56L9 52L8 52L8 57L10 57L10 56L11 56L11 57L12 57L12 56L14 56L14 57L15 57L15 55L16 55L16 56L17 56L17 57L21 57L21 56L19 56L19 55L20 55L20 54L17 54L17 53L20 53L20 52L23 52L23 51L20 51L20 49L19 49L19 48L20 48L20 47ZM33 48L33 49L34 49L34 48ZM55 48L55 50L54 50L54 51L55 51L55 50L56 50L56 48ZM12 49L12 50L13 50L13 49ZM27 49L27 52L30 52L30 49ZM49 49L49 52L52 52L52 49ZM28 50L28 51L29 51L29 50ZM32 50L32 52L33 52L33 53L34 53L34 52L33 52L33 51L34 51L34 50ZM50 50L50 51L51 51L51 50ZM10 52L10 53L11 53L11 52ZM53 52L53 53L54 53L54 52ZM15 53L15 54L16 54L16 53ZM11 55L11 56L12 56L12 55ZM50 55L50 56L51 56L51 55ZM53 55L53 56L55 56L55 57L56 57L56 56L55 56L55 55ZM45 56L45 57L46 57L46 56ZM0 0L0 7L7 7L7 0ZM1 1L1 6L6 6L6 1ZM2 2L2 5L5 5L5 2ZM50 0L50 7L57 7L57 0ZM51 1L51 6L56 6L56 1ZM52 2L52 5L55 5L55 2ZM0 50L0 57L7 57L7 50ZM1 51L1 56L6 56L6 51ZM2 52L2 55L5 55L5 52Z" fill="#000000"/></g></g></svg>
