<?xml version="1.0" encoding="UTF-8"?>
<svg xmlns="http://www.w3.org/2000/svg" version="1.1" width="300" height="300" viewBox="0 0 300 300"><rect x="0" y="0" width="300" height="300" fill="#fefefe"/><g transform="scale(4.615)"><g transform="translate(4,4)"><path fill-rule="evenodd" d="M8 0L8 2L9 2L9 1L11 1L11 2L10 2L10 3L9 3L9 4L8 4L8 9L7 9L7 8L5 8L5 10L4 10L4 9L3 9L3 8L0 8L0 9L2 9L2 10L1 10L1 13L0 13L0 14L1 14L1 15L0 15L0 16L3 16L3 17L4 17L4 19L3 19L3 18L2 18L2 19L1 19L1 17L0 17L0 19L1 19L1 26L2 26L2 25L4 25L4 28L2 28L2 29L1 29L1 31L0 31L0 32L1 32L1 33L0 33L0 35L1 35L1 36L0 36L0 38L1 38L1 39L0 39L0 41L2 41L2 40L3 40L3 42L1 42L1 43L0 43L0 45L1 45L1 46L0 46L0 48L5 48L5 47L7 47L7 46L8 46L8 47L9 47L9 48L8 48L8 50L9 50L9 51L8 51L8 52L11 52L11 53L13 53L13 54L12 54L12 55L10 55L10 53L9 53L9 54L8 54L8 57L9 57L9 56L10 56L10 57L13 57L13 56L15 56L15 57L17 57L17 56L18 56L18 57L20 57L20 56L19 56L19 55L18 55L18 53L19 53L19 52L20 52L20 53L21 53L21 54L20 54L20 55L21 55L21 54L22 54L22 53L23 53L23 55L22 55L22 57L24 57L24 56L25 56L25 55L26 55L26 57L28 57L28 55L29 55L29 57L33 57L33 55L30 55L30 54L31 54L31 53L32 53L32 54L34 54L34 57L35 57L35 55L37 55L37 54L38 54L38 53L39 53L39 55L40 55L40 57L42 57L42 56L43 56L43 54L42 54L42 53L43 53L43 52L44 52L44 55L45 55L45 54L46 54L46 56L44 56L44 57L46 57L46 56L47 56L47 57L50 57L50 55L49 55L49 54L52 54L52 55L53 55L53 56L51 56L51 57L54 57L54 54L55 54L55 55L57 55L57 54L55 54L55 52L56 52L56 53L57 53L57 52L56 52L56 51L57 51L57 49L56 49L56 47L57 47L57 42L56 42L56 43L55 43L55 42L54 42L54 41L57 41L57 40L54 40L54 39L55 39L55 38L57 38L57 37L56 37L56 36L57 36L57 34L56 34L56 36L54 36L54 34L53 34L53 36L51 36L51 33L50 33L50 32L49 32L49 31L51 31L51 32L52 32L52 31L53 31L53 33L54 33L54 31L55 31L55 33L56 33L56 31L57 31L57 29L55 29L55 30L54 30L54 31L53 31L53 28L54 28L54 27L55 27L55 28L56 28L56 27L57 27L57 24L56 24L56 23L57 23L57 21L56 21L56 19L57 19L57 12L56 12L56 11L57 11L57 10L56 10L56 9L57 9L57 8L55 8L55 9L54 9L54 10L53 10L53 11L52 11L52 12L51 12L51 11L50 11L50 13L49 13L49 14L48 14L48 11L46 11L46 13L45 13L45 12L44 12L44 11L42 11L42 8L44 8L44 9L43 9L43 10L44 10L44 9L45 9L45 10L46 10L46 9L47 9L47 10L48 10L48 9L49 9L49 10L50 10L50 9L51 9L51 10L52 10L52 9L53 9L53 8L48 8L48 7L49 7L49 6L48 6L48 7L47 7L47 5L48 5L48 0L46 0L46 1L45 1L45 0L42 0L42 1L41 1L41 0L38 0L38 2L37 2L37 1L35 1L35 0L34 0L34 2L33 2L33 1L32 1L32 0L30 0L30 1L29 1L29 0L26 0L26 2L25 2L25 4L24 4L24 1L25 1L25 0L24 0L24 1L23 1L23 0L19 0L19 1L17 1L17 0L16 0L16 1L15 1L15 0L14 0L14 3L13 3L13 2L12 2L12 0ZM16 1L16 4L17 4L17 5L16 5L16 6L15 6L15 5L14 5L14 6L13 6L13 4L11 4L11 3L12 3L12 2L11 2L11 3L10 3L10 4L9 4L9 5L10 5L10 4L11 4L11 8L10 8L10 9L8 9L8 10L7 10L7 9L6 9L6 10L7 10L7 11L5 11L5 13L6 13L6 14L7 14L7 15L5 15L5 14L4 14L4 12L2 12L2 13L1 13L1 14L2 14L2 15L3 15L3 14L4 14L4 17L5 17L5 18L9 18L9 19L10 19L10 20L9 20L9 22L10 22L10 23L8 23L8 22L7 22L7 21L6 21L6 20L8 20L8 19L5 19L5 20L3 20L3 19L2 19L2 23L4 23L4 24L5 24L5 26L9 26L9 28L10 28L10 29L9 29L9 30L10 30L10 31L11 31L11 32L7 32L7 31L6 31L6 32L7 32L7 33L6 33L6 34L5 34L5 35L4 35L4 33L5 33L5 32L3 32L3 35L4 35L4 36L3 36L3 37L1 37L1 38L2 38L2 39L3 39L3 40L4 40L4 39L3 39L3 37L4 37L4 38L7 38L7 39L6 39L6 40L8 40L8 41L4 41L4 43L3 43L3 44L2 44L2 43L1 43L1 44L2 44L2 46L1 46L1 47L2 47L2 46L3 46L3 47L5 47L5 46L7 46L7 45L8 45L8 46L11 46L11 48L12 48L12 46L13 46L13 47L14 47L14 49L12 49L12 50L14 50L14 49L15 49L15 50L16 50L16 52L17 52L17 53L18 53L18 51L19 51L19 49L20 49L20 50L21 50L21 53L22 53L22 48L23 48L23 49L24 49L24 51L23 51L23 52L24 52L24 51L25 51L25 53L26 53L26 48L31 48L31 50L32 50L32 51L31 51L31 52L32 52L32 51L34 51L34 52L33 52L33 53L34 53L34 54L35 54L35 53L36 53L36 54L37 54L37 53L38 53L38 52L39 52L39 53L40 53L40 52L39 52L39 49L40 49L40 51L41 51L41 49L42 49L42 50L43 50L43 51L45 51L45 52L46 52L46 54L47 54L47 56L48 56L48 54L49 54L49 53L47 53L47 52L48 52L48 51L47 51L47 48L46 48L46 47L48 47L48 46L49 46L49 48L51 48L51 47L50 47L50 45L51 45L51 46L53 46L53 47L52 47L52 48L53 48L53 49L54 49L54 50L53 50L53 51L54 51L54 52L55 52L55 51L56 51L56 50L55 50L55 47L56 47L56 44L55 44L55 43L54 43L54 44L53 44L53 41L54 41L54 40L52 40L52 38L53 38L53 37L54 37L54 38L55 38L55 37L54 37L54 36L53 36L53 37L52 37L52 38L51 38L51 37L50 37L50 38L51 38L51 40L48 40L48 39L49 39L49 38L47 38L47 37L46 37L46 34L48 34L48 35L47 35L47 36L48 36L48 35L49 35L49 36L50 36L50 33L49 33L49 34L48 34L48 33L46 33L46 32L45 32L45 33L44 33L44 34L43 34L43 33L42 33L42 31L44 31L44 30L46 30L46 31L47 31L47 29L48 29L48 28L46 28L46 29L44 29L44 30L43 30L43 28L42 28L42 31L41 31L41 30L40 30L40 28L41 28L41 27L43 27L43 25L44 25L44 27L46 27L46 26L47 26L47 27L48 27L48 26L49 26L49 25L48 25L48 26L47 26L47 24L48 24L48 22L50 22L50 23L49 23L49 24L50 24L50 26L52 26L52 24L53 24L53 22L54 22L54 24L55 24L55 25L54 25L54 26L55 26L55 25L56 25L56 24L55 24L55 23L56 23L56 21L55 21L55 19L56 19L56 18L55 18L55 19L54 19L54 16L55 16L55 17L56 17L56 16L55 16L55 15L56 15L56 13L55 13L55 11L56 11L56 10L55 10L55 11L54 11L54 12L53 12L53 13L54 13L54 14L52 14L52 13L50 13L50 15L51 15L51 17L50 17L50 16L49 16L49 17L48 17L48 18L47 18L47 16L46 16L46 15L48 15L48 14L47 14L47 13L46 13L46 15L44 15L44 16L43 16L43 14L44 14L44 12L42 12L42 11L41 11L41 10L40 10L40 8L42 8L42 6L41 6L41 2L40 2L40 1L39 1L39 2L38 2L38 4L37 4L37 2L34 2L34 3L33 3L33 2L32 2L32 1L30 1L30 2L29 2L29 1L28 1L28 2L27 2L27 3L26 3L26 4L27 4L27 3L28 3L28 4L29 4L29 3L30 3L30 2L32 2L32 5L31 5L31 9L30 9L30 10L29 10L29 9L27 9L27 10L25 10L25 9L26 9L26 5L24 5L24 6L23 6L23 5L21 5L21 3L22 3L22 4L23 4L23 1L22 1L22 2L20 2L20 1L19 1L19 3L18 3L18 4L17 4L17 1ZM42 1L42 4L43 4L43 5L44 5L44 6L43 6L43 7L44 7L44 6L45 6L45 9L46 9L46 5L47 5L47 3L46 3L46 5L44 5L44 4L45 4L45 1ZM46 1L46 2L47 2L47 1ZM28 2L28 3L29 3L29 2ZM39 2L39 4L38 4L38 5L39 5L39 4L40 4L40 2ZM43 2L43 4L44 4L44 2ZM14 3L14 4L15 4L15 3ZM34 3L34 8L32 8L32 9L31 9L31 10L30 10L30 12L29 12L29 10L28 10L28 12L27 12L27 14L26 14L26 11L25 11L25 10L24 10L24 11L22 11L22 12L23 12L23 16L22 16L22 14L20 14L20 13L21 13L21 10L20 10L20 9L21 9L21 5L20 5L20 7L19 7L19 5L18 5L18 7L17 7L17 6L16 6L16 7L17 7L17 8L18 8L18 9L17 9L17 10L16 10L16 9L15 9L15 6L14 6L14 7L13 7L13 6L12 6L12 7L13 7L13 8L14 8L14 9L12 9L12 8L11 8L11 10L10 10L10 11L11 11L11 12L10 12L10 13L9 13L9 10L8 10L8 12L6 12L6 13L7 13L7 14L10 14L10 15L9 15L9 16L10 16L10 15L11 15L11 17L9 17L9 18L10 18L10 19L11 19L11 20L10 20L10 22L11 22L11 23L10 23L10 24L9 24L9 25L10 25L10 26L11 26L11 25L10 25L10 24L12 24L12 23L13 23L13 22L14 22L14 21L15 21L15 23L14 23L14 24L13 24L13 25L14 25L14 27L16 27L16 25L17 25L17 23L16 23L16 22L17 22L17 20L14 20L14 19L15 19L15 18L16 18L16 19L18 19L18 21L19 21L19 19L22 19L22 21L23 21L23 24L22 24L22 22L20 22L20 23L21 23L21 26L20 26L20 25L19 25L19 24L18 24L18 26L20 26L20 27L18 27L18 28L21 28L21 30L22 30L22 33L23 33L23 35L25 35L25 36L24 36L24 37L26 37L26 38L27 38L27 37L26 37L26 34L28 34L28 35L27 35L27 36L28 36L28 37L29 37L29 36L28 36L28 35L31 35L31 36L30 36L30 41L31 41L31 38L33 38L33 39L34 39L34 41L33 41L33 40L32 40L32 43L31 43L31 42L30 42L30 43L29 43L29 42L28 42L28 41L29 41L29 40L27 40L27 39L26 39L26 40L25 40L25 41L26 41L26 42L25 42L25 43L24 43L24 44L25 44L25 45L26 45L26 46L24 46L24 45L23 45L23 47L24 47L24 48L25 48L25 47L26 47L26 46L27 46L27 47L28 47L28 44L29 44L29 46L30 46L30 47L31 47L31 48L32 48L32 49L33 49L33 50L34 50L34 49L33 49L33 48L34 48L34 45L33 45L33 44L35 44L35 43L36 43L36 41L37 41L37 42L38 42L38 41L39 41L39 38L40 38L40 39L42 39L42 35L40 35L40 36L38 36L38 35L39 35L39 34L38 34L38 33L39 33L39 32L40 32L40 34L42 34L42 33L41 33L41 32L40 32L40 30L39 30L39 31L38 31L38 30L37 30L37 28L38 28L38 29L39 29L39 26L38 26L38 25L39 25L39 22L38 22L38 21L39 21L39 19L40 19L40 22L42 22L42 23L43 23L43 22L44 22L44 23L45 23L45 24L44 24L44 25L45 25L45 26L46 26L46 25L45 25L45 24L46 24L46 20L48 20L48 21L47 21L47 22L48 22L48 21L49 21L49 20L51 20L51 18L50 18L50 17L49 17L49 18L50 18L50 19L49 19L49 20L48 20L48 19L47 19L47 18L46 18L46 16L44 16L44 17L43 17L43 18L42 18L42 17L41 17L41 15L42 15L42 12L41 12L41 11L40 11L40 10L39 10L39 11L38 11L38 9L39 9L39 6L38 6L38 7L37 7L37 6L36 6L36 10L34 10L34 9L35 9L35 4L36 4L36 3ZM27 5L27 8L30 8L30 5ZM9 6L9 7L10 7L10 6ZM22 6L22 9L23 9L23 6ZM24 6L24 7L25 7L25 6ZM28 6L28 7L29 7L29 6ZM32 6L32 7L33 7L33 6ZM40 6L40 7L41 7L41 6ZM18 7L18 8L19 8L19 9L18 9L18 10L19 10L19 9L20 9L20 8L19 8L19 7ZM37 8L37 9L38 9L38 8ZM47 8L47 9L48 9L48 8ZM14 9L14 10L11 10L11 11L13 11L13 12L12 12L12 13L13 13L13 14L11 14L11 15L13 15L13 16L12 16L12 17L11 17L11 19L12 19L12 20L11 20L11 22L12 22L12 20L13 20L13 19L12 19L12 17L14 17L14 18L15 18L15 17L16 17L16 18L17 18L17 17L18 17L18 15L15 15L15 14L17 14L17 11L16 11L16 10L15 10L15 9ZM32 9L32 12L30 12L30 13L29 13L29 15L28 15L28 14L27 14L27 15L26 15L26 17L25 17L25 16L24 16L24 18L26 18L26 17L27 17L27 19L26 19L26 20L27 20L27 22L26 22L26 23L28 23L28 22L29 22L29 23L30 23L30 26L31 26L31 25L32 25L32 27L31 27L31 30L33 30L33 29L34 29L34 32L33 32L33 33L32 33L32 31L31 31L31 32L30 32L30 31L29 31L29 32L27 32L27 33L28 33L28 34L29 34L29 32L30 32L30 34L31 34L31 33L32 33L32 35L33 35L33 33L34 33L34 34L35 34L35 33L36 33L36 35L35 35L35 36L33 36L33 37L34 37L34 38L35 38L35 41L34 41L34 42L35 42L35 41L36 41L36 38L37 38L37 41L38 41L38 38L39 38L39 37L38 37L38 38L37 38L37 37L36 37L36 35L38 35L38 34L37 34L37 33L36 33L36 31L37 31L37 32L38 32L38 31L37 31L37 30L35 30L35 29L36 29L36 28L37 28L37 26L36 26L36 24L37 24L37 25L38 25L38 22L37 22L37 21L38 21L38 20L37 20L37 21L36 21L36 20L35 20L35 21L34 21L34 22L35 22L35 23L36 23L36 24L34 24L34 23L33 23L33 24L34 24L34 26L33 26L33 25L32 25L32 23L31 23L31 22L33 22L33 21L32 21L32 20L30 20L30 19L31 19L31 17L32 17L32 18L33 18L33 20L34 20L34 18L36 18L36 19L37 19L37 18L36 18L36 14L37 14L37 13L38 13L38 15L37 15L37 16L38 16L38 18L40 18L40 19L41 19L41 20L42 20L42 22L43 22L43 21L44 21L44 22L45 22L45 21L44 21L44 19L45 19L45 20L46 20L46 19L45 19L45 17L44 17L44 19L41 19L41 18L40 18L40 11L39 11L39 12L37 12L37 11L34 11L34 10L33 10L33 9ZM2 10L2 11L4 11L4 10ZM14 11L14 12L16 12L16 11ZM18 11L18 12L20 12L20 11ZM33 11L33 12L32 12L32 13L31 13L31 14L32 14L32 13L33 13L33 15L31 15L31 16L30 16L30 15L29 15L29 16L30 16L30 17L28 17L28 18L30 18L30 17L31 17L31 16L32 16L32 17L33 17L33 18L34 18L34 17L35 17L35 15L34 15L34 13L35 13L35 12L34 12L34 11ZM36 12L36 13L37 13L37 12ZM18 13L18 14L19 14L19 13ZM24 13L24 15L25 15L25 13ZM13 14L13 15L14 15L14 17L15 17L15 15L14 15L14 14ZM51 14L51 15L52 15L52 18L53 18L53 16L54 16L54 15L52 15L52 14ZM7 15L7 16L5 16L5 17L8 17L8 15ZM19 15L19 16L21 16L21 15ZM33 15L33 17L34 17L34 15ZM16 16L16 17L17 17L17 16ZM20 17L20 18L21 18L21 17ZM18 18L18 19L19 19L19 18ZM22 18L22 19L23 19L23 18ZM24 19L24 20L25 20L25 19ZM28 19L28 21L29 21L29 22L30 22L30 20L29 20L29 19ZM53 19L53 20L52 20L52 22L51 22L51 23L50 23L50 24L51 24L51 23L52 23L52 22L53 22L53 21L54 21L54 22L55 22L55 21L54 21L54 19ZM20 20L20 21L21 21L21 20ZM4 21L4 22L5 22L5 23L7 23L7 22L5 22L5 21ZM35 21L35 22L36 22L36 23L37 23L37 22L36 22L36 21ZM18 22L18 23L19 23L19 22ZM24 22L24 23L25 23L25 22ZM40 23L40 27L41 27L41 23ZM6 24L6 25L8 25L8 24ZM14 24L14 25L16 25L16 24ZM27 24L27 25L26 25L26 26L27 26L27 25L28 25L28 26L29 26L29 25L28 25L28 24ZM24 25L24 27L22 27L22 28L24 28L24 27L25 27L25 25ZM5 27L5 30L8 30L8 27ZM11 27L11 28L13 28L13 27ZM27 27L27 30L30 30L30 27ZM34 27L34 29L35 29L35 27ZM49 27L49 30L52 30L52 27ZM6 28L6 29L7 29L7 28ZM14 28L14 31L15 31L15 32L16 32L16 31L18 31L18 30L15 30L15 28ZM28 28L28 29L29 29L29 28ZM32 28L32 29L33 29L33 28ZM50 28L50 29L51 29L51 28ZM3 29L3 31L4 31L4 29ZM10 29L10 30L11 30L11 31L12 31L12 32L11 32L11 34L10 34L10 33L9 33L9 34L10 34L10 35L9 35L9 36L6 36L6 35L8 35L8 33L7 33L7 34L6 34L6 35L5 35L5 36L6 36L6 37L7 37L7 38L9 38L9 36L10 36L10 35L13 35L13 34L12 34L12 32L13 32L13 31L12 31L12 30L11 30L11 29ZM22 29L22 30L23 30L23 29ZM24 29L24 30L25 30L25 31L24 31L24 34L26 34L26 33L25 33L25 32L26 32L26 30L25 30L25 29ZM19 30L19 32L18 32L18 33L19 33L19 35L18 35L18 34L17 34L17 35L18 35L18 39L19 39L19 40L18 40L18 42L16 42L16 43L15 43L15 44L16 44L16 45L15 45L15 46L16 46L16 47L15 47L15 48L16 48L16 47L17 47L17 48L18 48L18 49L17 49L17 50L18 50L18 49L19 49L19 47L20 47L20 49L21 49L21 48L22 48L22 46L20 46L20 45L21 45L21 42L20 42L20 41L21 41L21 40L22 40L22 41L23 41L23 42L24 42L24 41L23 41L23 40L22 40L22 39L23 39L23 38L22 38L22 37L23 37L23 36L22 36L22 37L21 37L21 35L22 35L22 34L21 34L21 35L20 35L20 33L21 33L21 32L20 32L20 30ZM55 30L55 31L56 31L56 30ZM19 32L19 33L20 33L20 32ZM1 33L1 35L2 35L2 33ZM45 33L45 34L44 34L44 38L43 38L43 39L44 39L44 42L46 42L46 41L48 41L48 40L47 40L47 38L46 38L46 37L45 37L45 34L46 34L46 33ZM15 34L15 35L14 35L14 37L13 37L13 36L12 36L12 37L13 37L13 38L11 38L11 37L10 37L10 38L11 38L11 40L10 40L10 41L9 41L9 42L8 42L8 43L7 43L7 42L6 42L6 43L5 43L5 44L4 44L4 45L3 45L3 46L5 46L5 45L7 45L7 44L8 44L8 43L9 43L9 44L10 44L10 43L11 43L11 44L13 44L13 43L14 43L14 42L15 42L15 41L14 41L14 40L15 40L15 38L14 38L14 37L15 37L15 35L16 35L16 34ZM19 35L19 36L20 36L20 35ZM16 36L16 37L17 37L17 36ZM31 36L31 37L32 37L32 36ZM35 37L35 38L36 38L36 37ZM13 38L13 39L14 39L14 38ZM16 38L16 39L17 39L17 38ZM20 38L20 39L22 39L22 38ZM24 38L24 39L25 39L25 38ZM28 38L28 39L29 39L29 38ZM45 38L45 41L46 41L46 38ZM8 39L8 40L9 40L9 39ZM11 40L11 41L13 41L13 40ZM40 40L40 42L39 42L39 43L37 43L37 44L36 44L36 45L35 45L35 47L36 47L36 45L37 45L37 46L38 46L38 45L37 45L37 44L39 44L39 43L40 43L40 45L39 45L39 47L40 47L40 49L41 49L41 47L42 47L42 45L43 45L43 44L44 44L44 45L45 45L45 46L44 46L44 47L46 47L46 44L47 44L47 45L50 45L50 44L52 44L52 40L51 40L51 41L49 41L49 42L48 42L48 44L47 44L47 43L45 43L45 44L44 44L44 43L43 43L43 42L42 42L42 41L43 41L43 40ZM9 42L9 43L10 43L10 42ZM12 42L12 43L13 43L13 42ZM19 42L19 43L18 43L18 44L19 44L19 43L20 43L20 42ZM27 42L27 43L28 43L28 42ZM40 42L40 43L41 43L41 45L40 45L40 47L41 47L41 45L42 45L42 44L43 44L43 43L41 43L41 42ZM49 42L49 44L50 44L50 42ZM6 43L6 44L7 44L7 43ZM22 43L22 44L23 44L23 43ZM30 43L30 45L31 45L31 43ZM16 45L16 46L17 46L17 47L19 47L19 45L18 45L18 46L17 46L17 45ZM32 45L32 47L33 47L33 45ZM53 45L53 46L54 46L54 47L53 47L53 48L54 48L54 47L55 47L55 45ZM37 47L37 48L36 48L36 49L37 49L37 51L35 51L35 52L36 52L36 53L37 53L37 51L38 51L38 47ZM6 48L6 49L7 49L7 48ZM9 48L9 49L10 49L10 48ZM44 48L44 49L45 49L45 51L46 51L46 52L47 52L47 51L46 51L46 48ZM27 49L27 52L30 52L30 49ZM49 49L49 52L52 52L52 49ZM10 50L10 51L11 51L11 52L12 52L12 51L11 51L11 50ZM28 50L28 51L29 51L29 50ZM50 50L50 51L51 51L51 50ZM14 51L14 52L15 52L15 51ZM14 53L14 54L13 54L13 55L15 55L15 53ZM27 53L27 54L26 54L26 55L28 55L28 53ZM53 53L53 54L54 54L54 53ZM16 54L16 55L17 55L17 54ZM24 54L24 55L25 55L25 54ZM40 54L40 55L42 55L42 54ZM36 56L36 57L37 57L37 56ZM56 56L56 57L57 57L57 56ZM0 0L0 7L7 7L7 0ZM1 1L1 6L6 6L6 1ZM2 2L2 5L5 5L5 2ZM50 0L50 7L57 7L57 0ZM51 1L51 6L56 6L56 1ZM52 2L52 5L55 5L55 2ZM0 50L0 57L7 57L7 50ZM1 51L1 56L6 56L6 51ZM2 52L2 55L5 55L5 52Z" fill="#000000"/></g></g></svg>
