<?xml version="1.0" encoding="UTF-8"?>
<svg xmlns="http://www.w3.org/2000/svg" version="1.1" width="300" height="300" viewBox="0 0 300 300"><rect x="0" y="0" width="300" height="300" fill="#fefefe"/><g transform="scale(4.615)"><g transform="translate(4,4)"><path fill-rule="evenodd" d="M8 0L8 2L9 2L9 3L10 3L10 5L9 5L9 4L8 4L8 10L9 10L9 9L10 9L10 11L7 11L7 10L6 10L6 11L7 11L7 12L5 12L5 11L4 11L4 12L3 12L3 11L1 11L1 9L3 9L3 10L4 10L4 9L3 9L3 8L0 8L0 11L1 11L1 12L0 12L0 15L1 15L1 12L3 12L3 13L8 13L8 14L6 14L6 15L5 15L5 14L3 14L3 15L2 15L2 16L1 16L1 18L0 18L0 19L1 19L1 21L3 21L3 20L4 20L4 17L3 17L3 18L2 18L2 16L3 16L3 15L4 15L4 16L5 16L5 19L7 19L7 20L6 20L6 21L5 21L5 22L4 22L4 24L6 24L6 25L9 25L9 26L3 26L3 25L0 25L0 26L1 26L1 27L0 27L0 28L1 28L1 27L2 27L2 29L0 29L0 30L1 30L1 32L0 32L0 34L1 34L1 35L3 35L3 33L4 33L4 38L3 38L3 37L1 37L1 36L0 36L0 37L1 37L1 38L0 38L0 40L1 40L1 41L0 41L0 42L2 42L2 43L3 43L3 42L2 42L2 40L3 40L3 39L4 39L4 40L5 40L5 41L4 41L4 42L5 42L5 43L7 43L7 44L3 44L3 45L2 45L2 47L1 47L1 46L0 46L0 48L5 48L5 47L9 47L9 49L8 49L8 50L9 50L9 51L8 51L8 52L10 52L10 53L9 53L9 54L8 54L8 57L9 57L9 56L10 56L10 57L11 57L11 56L10 56L10 55L11 55L11 54L12 54L12 51L13 51L13 53L14 53L14 57L15 57L15 56L16 56L16 57L17 57L17 55L18 55L18 54L19 54L19 52L20 52L20 53L21 53L21 54L20 54L20 55L21 55L21 56L20 56L20 57L21 57L21 56L22 56L22 57L24 57L24 56L25 56L25 55L26 55L26 57L28 57L28 55L29 55L29 57L33 57L33 55L34 55L34 57L35 57L35 55L37 55L37 54L38 54L38 53L39 53L39 55L40 55L40 54L41 54L41 56L40 56L40 57L41 57L41 56L44 56L44 57L48 57L48 56L49 56L49 57L50 57L50 55L49 55L49 54L52 54L52 55L53 55L53 54L54 54L54 55L57 55L57 54L54 54L54 53L57 53L57 50L56 50L56 52L54 52L54 51L53 51L53 50L54 50L54 49L56 49L56 47L57 47L57 42L56 42L56 43L55 43L55 42L54 42L54 41L57 41L57 40L54 40L54 39L55 39L55 38L57 38L57 34L56 34L56 31L57 31L57 29L55 29L55 30L54 30L54 29L53 29L53 28L54 28L54 27L55 27L55 26L54 26L54 25L55 25L55 24L56 24L56 28L57 28L57 24L56 24L56 23L57 23L57 21L56 21L56 20L57 20L57 13L56 13L56 12L55 12L55 13L56 13L56 15L55 15L55 14L53 14L53 12L54 12L54 11L55 11L55 9L57 9L57 8L55 8L55 9L54 9L54 10L53 10L53 8L49 8L49 6L48 6L48 9L47 9L47 5L48 5L48 0L46 0L46 1L47 1L47 2L45 2L45 4L44 4L44 2L43 2L43 4L42 4L42 3L41 3L41 4L42 4L42 8L40 8L40 10L38 10L38 9L39 9L39 6L38 6L38 7L37 7L37 6L36 6L36 10L34 10L34 9L35 9L35 4L36 4L36 3L35 3L35 2L37 2L37 4L38 4L38 5L39 5L39 4L40 4L40 2L42 2L42 1L45 1L45 0L42 0L42 1L41 1L41 0L38 0L38 2L37 2L37 1L35 1L35 0L34 0L34 2L33 2L33 3L34 3L34 8L32 8L32 9L31 9L31 5L32 5L32 2L31 2L31 0L30 0L30 3L29 3L29 2L27 2L27 0L24 0L24 1L23 1L23 0L20 0L20 2L19 2L19 1L18 1L18 0L16 0L16 2L15 2L15 0L14 0L14 3L12 3L12 4L13 4L13 5L12 5L12 7L11 7L11 3L10 3L10 2L9 2L9 1L11 1L11 0ZM12 0L12 2L13 2L13 0ZM28 0L28 1L29 1L29 0ZM17 1L17 2L18 2L18 4L17 4L17 3L16 3L16 4L17 4L17 5L16 5L16 6L15 6L15 5L13 5L13 7L12 7L12 8L13 8L13 10L12 10L12 9L11 9L11 7L10 7L10 6L9 6L9 8L10 8L10 9L11 9L11 11L10 11L10 12L9 12L9 13L10 13L10 12L11 12L11 11L12 11L12 13L13 13L13 15L10 15L10 14L9 14L9 15L10 15L10 16L13 16L13 18L15 18L15 17L14 17L14 15L15 15L15 16L17 16L17 17L16 17L16 19L14 19L14 20L17 20L17 22L16 22L16 23L18 23L18 22L19 22L19 24L20 24L20 27L21 27L21 23L20 23L20 22L21 22L21 21L22 21L22 20L23 20L23 19L20 19L20 18L21 18L21 17L20 17L20 16L19 16L19 15L20 15L20 14L22 14L22 16L24 16L24 18L26 18L26 20L27 20L27 22L26 22L26 23L28 23L28 22L29 22L29 21L28 21L28 20L29 20L29 19L30 19L30 20L31 20L31 21L30 21L30 23L29 23L29 25L30 25L30 26L31 26L31 25L32 25L32 27L31 27L31 32L30 32L30 34L32 34L32 35L35 35L35 36L34 36L34 38L35 38L35 41L34 41L34 39L33 39L33 38L31 38L31 40L30 40L30 36L31 36L31 37L32 37L32 36L31 36L31 35L28 35L28 34L29 34L29 31L28 31L28 32L27 32L27 33L26 33L26 30L25 30L25 29L24 29L24 26L25 26L25 25L24 25L24 24L23 24L23 22L22 22L22 24L23 24L23 25L24 25L24 26L23 26L23 27L22 27L22 28L23 28L23 29L22 29L22 30L21 30L21 28L20 28L20 32L19 32L19 31L18 31L18 30L19 30L19 28L18 28L18 27L19 27L19 25L18 25L18 24L17 24L17 25L16 25L16 24L15 24L15 21L14 21L14 23L13 23L13 22L12 22L12 21L13 21L13 19L12 19L12 21L10 21L10 20L11 20L11 19L10 19L10 20L9 20L9 18L8 18L8 17L9 17L9 16L8 16L8 15L6 15L6 16L8 16L8 17L6 17L6 18L8 18L8 21L6 21L6 22L5 22L5 23L6 23L6 24L9 24L9 25L10 25L10 26L11 26L11 23L13 23L13 24L12 24L12 25L13 25L13 24L15 24L15 25L16 25L16 26L17 26L17 27L16 27L16 28L15 28L15 29L14 29L14 27L13 27L13 28L12 28L12 27L10 27L10 29L9 29L9 30L10 30L10 31L9 31L9 32L8 32L8 31L6 31L6 32L8 32L8 33L10 33L10 31L11 31L11 32L12 32L12 35L13 35L13 34L15 34L15 33L16 33L16 36L14 36L14 37L13 37L13 36L11 36L11 38L9 38L9 35L10 35L10 34L9 34L9 35L8 35L8 34L7 34L7 33L5 33L5 31L3 31L3 32L2 32L2 33L3 33L3 32L4 32L4 33L5 33L5 37L6 37L6 38L9 38L9 39L6 39L6 40L7 40L7 41L5 41L5 42L8 42L8 43L9 43L9 42L8 42L8 40L10 40L10 39L11 39L11 41L12 41L12 43L13 43L13 45L12 45L12 44L11 44L11 45L12 45L12 47L11 47L11 46L10 46L10 49L11 49L11 50L10 50L10 52L11 52L11 51L12 51L12 50L13 50L13 51L15 51L15 50L13 50L13 49L15 49L15 45L16 45L16 46L17 46L17 44L16 44L16 43L17 43L17 41L18 41L18 40L19 40L19 39L18 39L18 40L17 40L17 39L16 39L16 38L17 38L17 37L16 37L16 36L18 36L18 35L17 35L17 33L18 33L18 32L19 32L19 34L23 34L23 33L22 33L22 30L23 30L23 31L24 31L24 30L25 30L25 32L24 32L24 34L26 34L26 36L25 36L25 35L21 35L21 37L22 37L22 38L23 38L23 40L24 40L24 42L26 42L26 41L25 41L25 40L26 40L26 39L27 39L27 41L28 41L28 42L27 42L27 43L29 43L29 44L30 44L30 45L28 45L28 44L27 44L27 45L28 45L28 47L27 47L27 46L26 46L26 45L24 45L24 47L25 47L25 48L23 48L23 44L22 44L22 43L23 43L23 41L22 41L22 39L21 39L21 38L20 38L20 39L21 39L21 41L20 41L20 42L19 42L19 43L18 43L18 44L19 44L19 43L20 43L20 44L21 44L21 45L20 45L20 48L19 48L19 49L18 49L18 47L16 47L16 48L17 48L17 49L16 49L16 52L17 52L17 54L16 54L16 55L17 55L17 54L18 54L18 52L17 52L17 49L18 49L18 50L19 50L19 51L20 51L20 50L22 50L22 52L21 52L21 53L22 53L22 54L21 54L21 55L22 55L22 56L23 56L23 53L22 53L22 52L24 52L24 51L25 51L25 54L24 54L24 55L25 55L25 54L26 54L26 55L28 55L28 53L26 53L26 50L25 50L25 49L26 49L26 48L31 48L31 49L32 49L32 50L33 50L33 51L34 51L34 52L33 52L33 53L34 53L34 54L35 54L35 53L36 53L36 54L37 54L37 53L38 53L38 52L39 52L39 53L40 53L40 52L39 52L39 49L40 49L40 51L41 51L41 52L43 52L43 53L42 53L42 54L43 54L43 55L44 55L44 56L45 56L45 55L44 55L44 52L43 52L43 51L44 51L44 50L43 50L43 49L44 49L44 47L45 47L45 48L46 48L46 50L47 50L47 48L46 48L46 47L48 47L48 45L47 45L47 44L48 44L48 43L49 43L49 48L50 48L50 46L51 46L51 45L52 45L52 48L53 48L53 49L54 49L54 48L55 48L55 47L56 47L56 44L55 44L55 43L54 43L54 44L53 44L53 41L54 41L54 40L53 40L53 39L51 39L51 40L48 40L48 39L50 39L50 38L51 38L51 36L53 36L53 37L52 37L52 38L53 38L53 37L54 37L54 38L55 38L55 37L56 37L56 36L55 36L55 35L56 35L56 34L55 34L55 31L56 31L56 30L55 30L55 31L54 31L54 33L53 33L53 31L52 31L52 32L50 32L50 31L49 31L49 32L50 32L50 33L49 33L49 34L48 34L48 33L46 33L46 32L47 32L47 28L48 28L48 26L49 26L49 25L48 25L48 22L50 22L50 23L49 23L49 24L50 24L50 23L51 23L51 22L52 22L52 24L51 24L51 25L50 25L50 26L52 26L52 24L53 24L53 25L54 25L54 24L55 24L55 23L56 23L56 21L55 21L55 20L56 20L56 19L54 19L54 17L56 17L56 16L55 16L55 15L54 15L54 17L53 17L53 18L51 18L51 17L52 17L52 16L53 16L53 14L52 14L52 13L50 13L50 11L48 11L48 14L47 14L47 13L46 13L46 11L47 11L47 9L46 9L46 8L45 8L45 9L44 9L44 8L42 8L42 11L41 11L41 10L40 10L40 11L39 11L39 12L37 12L37 11L38 11L38 10L37 10L37 11L34 11L34 10L33 10L33 9L32 9L32 12L30 12L30 11L29 11L29 12L30 12L30 13L29 13L29 15L28 15L28 14L27 14L27 15L26 15L26 17L25 17L25 14L26 14L26 13L27 13L27 12L28 12L28 11L27 11L27 10L29 10L29 9L27 9L27 10L25 10L25 9L26 9L26 5L24 5L24 6L23 6L23 3L22 3L22 2L20 2L20 3L19 3L19 2L18 2L18 1ZM24 1L24 4L25 4L25 1ZM39 1L39 2L38 2L38 3L39 3L39 2L40 2L40 1ZM14 3L14 4L15 4L15 3ZM21 3L21 4L22 4L22 3ZM26 3L26 4L27 4L27 3ZM28 3L28 4L29 4L29 3ZM46 3L46 5L47 5L47 3ZM18 4L18 5L17 5L17 6L16 6L16 7L17 7L17 8L18 8L18 9L17 9L17 10L16 10L16 11L17 11L17 14L15 14L15 15L17 15L17 16L18 16L18 17L17 17L17 19L18 19L18 18L20 18L20 17L19 17L19 16L18 16L18 15L17 15L17 14L18 14L18 13L19 13L19 14L20 14L20 13L21 13L21 10L20 10L20 9L21 9L21 8L22 8L22 9L23 9L23 11L22 11L22 12L23 12L23 14L24 14L24 12L25 12L25 13L26 13L26 11L24 11L24 9L25 9L25 8L24 8L24 9L23 9L23 6L22 6L22 5L20 5L20 7L19 7L19 4ZM43 4L43 5L44 5L44 6L43 6L43 7L44 7L44 6L45 6L45 7L46 7L46 6L45 6L45 5L44 5L44 4ZM27 5L27 8L30 8L30 5ZM14 6L14 7L13 7L13 8L14 8L14 9L15 9L15 6ZM17 6L17 7L18 7L18 8L19 8L19 7L18 7L18 6ZM21 6L21 7L22 7L22 6ZM24 6L24 7L25 7L25 6ZM28 6L28 7L29 7L29 6ZM32 6L32 7L33 7L33 6ZM40 6L40 7L41 7L41 6ZM5 8L5 9L7 9L7 8ZM37 8L37 9L38 9L38 8ZM18 9L18 10L19 10L19 9ZM30 9L30 10L31 10L31 9ZM43 9L43 10L44 10L44 9ZM48 9L48 10L49 10L49 9ZM50 9L50 10L51 10L51 12L52 12L52 9ZM56 10L56 11L57 11L57 10ZM14 11L14 12L15 12L15 11ZM18 11L18 12L19 12L19 13L20 13L20 12L19 12L19 11ZM23 11L23 12L24 12L24 11ZM33 11L33 12L32 12L32 13L31 13L31 14L32 14L32 13L33 13L33 15L31 15L31 16L30 16L30 15L29 15L29 16L30 16L30 17L28 17L28 18L30 18L30 17L32 17L32 18L33 18L33 19L31 19L31 20L32 20L32 21L33 21L33 22L31 22L31 23L30 23L30 25L31 25L31 23L32 23L32 25L33 25L33 26L34 26L34 24L36 24L36 26L37 26L37 28L36 28L36 27L34 27L34 29L33 29L33 28L32 28L32 29L33 29L33 31L34 31L34 29L35 29L35 30L37 30L37 31L36 31L36 33L35 33L35 35L36 35L36 37L35 37L35 38L36 38L36 41L35 41L35 42L34 42L34 41L33 41L33 40L32 40L32 46L33 46L33 47L32 47L32 49L35 49L35 48L33 48L33 47L34 47L34 45L33 45L33 44L35 44L35 43L36 43L36 41L37 41L37 42L38 42L38 41L39 41L39 42L40 42L40 45L39 45L39 46L40 46L40 45L41 45L41 47L40 47L40 49L41 49L41 51L43 51L43 50L42 50L42 49L41 49L41 47L42 47L42 45L43 45L43 46L44 46L44 45L45 45L45 47L46 47L46 44L47 44L47 42L46 42L46 41L45 41L45 40L47 40L47 41L48 41L48 40L47 40L47 38L50 38L50 36L51 36L51 33L50 33L50 36L49 36L49 35L48 35L48 34L46 34L46 33L45 33L45 31L46 31L46 30L45 30L45 31L44 31L44 29L46 29L46 28L47 28L47 26L48 26L48 25L47 25L47 24L46 24L46 23L45 23L45 22L46 22L46 21L47 21L47 22L48 22L48 19L47 19L47 20L46 20L46 19L44 19L44 17L45 17L45 18L46 18L46 16L47 16L47 18L48 18L48 17L49 17L49 18L50 18L50 19L49 19L49 20L51 20L51 18L50 18L50 17L51 17L51 16L52 16L52 14L51 14L51 16L50 16L50 13L49 13L49 14L48 14L48 15L46 15L46 13L45 13L45 12L44 12L44 14L43 14L43 16L44 16L44 17L43 17L43 18L42 18L42 17L41 17L41 15L42 15L42 12L43 12L43 11L42 11L42 12L41 12L41 11L40 11L40 13L41 13L41 14L40 14L40 18L38 18L38 16L37 16L37 15L38 15L38 13L37 13L37 12L36 12L36 13L37 13L37 14L36 14L36 18L35 18L35 19L34 19L34 17L35 17L35 15L34 15L34 13L35 13L35 12L34 12L34 11ZM44 14L44 16L46 16L46 15L45 15L45 14ZM33 15L33 17L34 17L34 15ZM10 17L10 18L11 18L11 17ZM36 18L36 19L37 19L37 18ZM40 18L40 19L39 19L39 21L38 21L38 20L37 20L37 21L36 21L36 20L34 20L34 19L33 19L33 20L34 20L34 22L35 22L35 23L36 23L36 24L37 24L37 25L38 25L38 26L39 26L39 25L40 25L40 27L39 27L39 29L38 29L38 28L37 28L37 30L38 30L38 31L37 31L37 32L38 32L38 31L39 31L39 30L40 30L40 32L39 32L39 33L38 33L38 34L37 34L37 33L36 33L36 35L38 35L38 36L40 36L40 35L41 35L41 39L40 39L40 38L39 38L39 37L38 37L38 38L39 38L39 39L40 39L40 40L39 40L39 41L40 41L40 40L41 40L41 41L42 41L42 42L43 42L43 41L44 41L44 42L45 42L45 43L41 43L41 45L42 45L42 44L43 44L43 45L44 45L44 44L45 44L45 43L46 43L46 42L45 42L45 41L44 41L44 40L43 40L43 41L42 41L42 39L43 39L43 38L44 38L44 35L43 35L43 33L42 33L42 31L43 31L43 29L44 29L44 28L42 28L42 31L41 31L41 30L40 30L40 27L43 27L43 25L44 25L44 27L45 27L45 25L44 25L44 24L45 24L45 23L44 23L44 22L45 22L45 21L46 21L46 20L45 20L45 21L44 21L44 19L43 19L43 20L42 20L42 19L41 19L41 18ZM19 19L19 20L18 20L18 21L19 21L19 20L20 20L20 21L21 21L21 20L20 20L20 19ZM24 19L24 20L25 20L25 19ZM27 19L27 20L28 20L28 19ZM40 19L40 22L41 22L41 23L39 23L39 22L38 22L38 21L37 21L37 22L36 22L36 21L35 21L35 22L36 22L36 23L39 23L39 24L40 24L40 25L41 25L41 26L42 26L42 25L41 25L41 23L42 23L42 24L43 24L43 23L42 23L42 20L41 20L41 19ZM53 19L53 20L52 20L52 22L53 22L53 24L54 24L54 22L55 22L55 21L54 21L54 19ZM9 21L9 23L11 23L11 22L10 22L10 21ZM43 21L43 22L44 22L44 21ZM0 22L0 24L2 24L2 23L3 23L3 22L2 22L2 23L1 23L1 22ZM6 22L6 23L7 23L7 22ZM24 22L24 23L25 23L25 22ZM33 23L33 24L34 24L34 23ZM27 24L27 25L26 25L26 26L28 26L28 24ZM17 25L17 26L18 26L18 25ZM46 25L46 26L47 26L47 25ZM5 27L5 30L8 30L8 27ZM27 27L27 30L30 30L30 27ZM49 27L49 30L52 30L52 27ZM3 28L3 29L2 29L2 30L4 30L4 28ZM6 28L6 29L7 29L7 28ZM28 28L28 29L29 29L29 28ZM35 28L35 29L36 29L36 28ZM50 28L50 29L51 29L51 28ZM11 29L11 30L12 30L12 31L13 31L13 30L14 30L14 29L13 29L13 30L12 30L12 29ZM23 29L23 30L24 30L24 29ZM15 30L15 31L14 31L14 33L15 33L15 31L16 31L16 33L17 33L17 31L16 31L16 30ZM32 32L32 33L34 33L34 32ZM40 32L40 34L42 34L42 33L41 33L41 32ZM27 33L27 34L28 34L28 33ZM6 34L6 35L7 35L7 34ZM38 34L38 35L39 35L39 34ZM45 34L45 36L46 36L46 38L45 38L45 39L46 39L46 38L47 38L47 36L48 36L48 37L49 37L49 36L48 36L48 35L47 35L47 36L46 36L46 34ZM53 34L53 36L54 36L54 37L55 37L55 36L54 36L54 34ZM19 35L19 36L20 36L20 35ZM27 35L27 36L28 36L28 37L29 37L29 36L28 36L28 35ZM6 36L6 37L8 37L8 36ZM22 36L22 37L23 37L23 36ZM24 36L24 37L25 37L25 36ZM12 37L12 39L13 39L13 40L14 40L14 41L13 41L13 43L16 43L16 41L17 41L17 40L16 40L16 41L15 41L15 40L14 40L14 38L15 38L15 37L14 37L14 38L13 38L13 37ZM36 37L36 38L37 38L37 37ZM1 38L1 39L2 39L2 38ZM4 38L4 39L5 39L5 38ZM24 38L24 39L25 39L25 38ZM28 38L28 39L29 39L29 38ZM37 39L37 41L38 41L38 39ZM28 40L28 41L29 41L29 42L30 42L30 44L31 44L31 42L30 42L30 41L29 41L29 40ZM51 40L51 41L49 41L49 42L50 42L50 45L51 45L51 44L52 44L52 40ZM14 41L14 42L15 42L15 41ZM37 43L37 44L36 44L36 45L35 45L35 46L36 46L36 47L37 47L37 48L36 48L36 49L37 49L37 51L35 51L35 52L36 52L36 53L37 53L37 51L38 51L38 47L37 47L37 46L38 46L38 45L37 45L37 44L39 44L39 43ZM7 44L7 45L3 45L3 47L5 47L5 46L8 46L8 44ZM9 44L9 45L10 45L10 44ZM14 44L14 45L15 45L15 44ZM18 45L18 46L19 46L19 45ZM53 45L53 48L54 48L54 46L55 46L55 45ZM21 46L21 48L22 48L22 50L23 50L23 51L24 51L24 49L23 49L23 48L22 48L22 46ZM25 46L25 47L26 47L26 46ZM30 46L30 47L31 47L31 46ZM12 47L12 48L13 48L13 47ZM6 48L6 49L7 49L7 48ZM27 49L27 52L30 52L30 49ZM49 49L49 52L52 52L52 49ZM28 50L28 51L29 51L29 50ZM50 50L50 51L51 51L51 50ZM31 51L31 52L32 52L32 51ZM45 51L45 53L46 53L46 56L48 56L48 54L49 54L49 53L46 53L46 51ZM47 51L47 52L48 52L48 51ZM14 52L14 53L15 53L15 52ZM31 53L31 54L30 54L30 55L33 55L33 54L32 54L32 53ZM9 54L9 55L10 55L10 54ZM12 56L12 57L13 57L13 56ZM18 56L18 57L19 57L19 56ZM36 56L36 57L37 57L37 56ZM51 56L51 57L53 57L53 56ZM56 56L56 57L57 57L57 56ZM0 0L0 7L7 7L7 0ZM1 1L1 6L6 6L6 1ZM2 2L2 5L5 5L5 2ZM50 0L50 7L57 7L57 0ZM51 1L51 6L56 6L56 1ZM52 2L52 5L55 5L55 2ZM0 50L0 57L7 57L7 50ZM1 51L1 56L6 56L6 51ZM2 52L2 55L5 55L5 52Z" fill="#000000"/></g></g></svg>
