<?xml version="1.0" encoding="UTF-8"?>
<svg xmlns="http://www.w3.org/2000/svg" version="1.1" width="300" height="300" viewBox="0 0 300 300"><rect x="0" y="0" width="300" height="300" fill="#fefefe"/><g transform="scale(4.615)"><g transform="translate(4,4)"><path fill-rule="evenodd" d="M9 0L9 1L8 1L8 2L9 2L9 1L11 1L11 0ZM14 0L14 2L13 2L13 1L12 1L12 2L11 2L11 4L10 4L10 3L8 3L8 4L9 4L9 5L8 5L8 7L9 7L9 8L6 8L6 9L9 9L9 11L8 11L8 14L6 14L6 15L5 15L5 16L6 16L6 17L3 17L3 18L0 18L0 23L1 23L1 24L0 24L0 26L1 26L1 25L2 25L2 23L3 23L3 24L4 24L4 26L2 26L2 27L0 27L0 32L2 32L2 31L1 31L1 28L3 28L3 27L4 27L4 31L3 31L3 33L2 33L2 35L3 35L3 36L2 36L2 39L1 39L1 37L0 37L0 39L1 39L1 40L2 40L2 41L3 41L3 42L0 42L0 45L1 45L1 43L4 43L4 46L5 46L5 47L3 47L3 45L2 45L2 47L1 47L1 46L0 46L0 48L5 48L5 47L7 47L7 46L8 46L8 45L7 45L7 44L9 44L9 46L10 46L10 44L11 44L11 45L13 45L13 47L15 47L15 45L13 45L13 44L14 44L14 43L15 43L15 44L18 44L18 45L17 45L17 46L18 46L18 47L17 47L17 53L16 53L16 51L15 51L15 50L13 50L13 48L12 48L12 49L11 49L11 47L12 47L12 46L11 46L11 47L8 47L8 51L9 51L9 50L10 50L10 49L11 49L11 50L13 50L13 51L15 51L15 52L13 52L13 54L14 54L14 53L16 53L16 54L15 54L15 55L13 55L13 57L14 57L14 56L15 56L15 55L16 55L16 56L17 56L17 57L19 57L19 55L20 55L20 54L19 54L19 53L20 53L20 52L22 52L22 51L20 51L20 48L21 48L21 47L24 47L24 48L23 48L23 49L21 49L21 50L25 50L25 51L26 51L26 52L24 52L24 53L22 53L22 54L21 54L21 55L23 55L23 56L24 56L24 55L23 55L23 54L24 54L24 53L26 53L26 56L25 56L25 57L26 57L26 56L27 56L27 57L29 57L29 56L30 56L30 57L31 57L31 56L35 56L35 57L39 57L39 56L41 56L41 57L44 57L44 56L42 56L42 55L44 55L44 54L45 54L45 53L44 53L44 52L47 52L47 50L48 50L48 54L47 54L47 57L49 57L49 56L50 56L50 57L52 57L52 55L51 55L51 53L52 53L52 54L53 54L53 55L54 55L54 56L53 56L53 57L54 57L54 56L55 56L55 57L56 57L56 56L55 56L55 54L53 54L53 52L54 52L54 53L56 53L56 50L57 50L57 48L56 48L56 46L57 46L57 43L56 43L56 42L55 42L55 39L57 39L57 35L53 35L53 34L52 34L52 33L54 33L54 34L57 34L57 32L56 32L56 30L57 30L57 28L56 28L56 27L55 27L55 26L57 26L57 25L56 25L56 22L57 22L57 21L56 21L56 18L51 18L51 19L50 19L50 17L51 17L51 15L52 15L52 16L53 16L53 17L56 17L56 16L57 16L57 15L56 15L56 14L57 14L57 13L56 13L56 10L54 10L54 11L50 11L50 8L49 8L49 6L48 6L48 7L47 7L47 5L48 5L48 0L45 0L45 2L44 2L44 3L42 3L42 2L43 2L43 0L41 0L41 1L40 1L40 0L39 0L39 1L38 1L38 0L37 0L37 1L38 1L38 2L39 2L39 3L41 3L41 4L40 4L40 5L39 5L39 6L38 6L38 3L36 3L36 0L35 0L35 1L33 1L33 0L29 0L29 1L30 1L30 2L31 2L31 1L32 1L32 3L31 3L31 4L26 4L26 3L23 3L23 2L28 2L28 1L25 1L25 0L23 0L23 2L21 2L21 3L23 3L23 4L24 4L24 5L21 5L21 4L19 4L19 3L17 3L17 4L18 4L18 5L20 5L20 7L19 7L19 6L18 6L18 7L17 7L17 6L16 6L16 7L15 7L15 5L16 5L16 4L15 4L15 5L14 5L14 7L15 7L15 8L16 8L16 9L17 9L17 10L16 10L16 11L17 11L17 12L16 12L16 13L15 13L15 10L13 10L13 9L14 9L14 8L13 8L13 4L14 4L14 2L15 2L15 3L16 3L16 2L18 2L18 0L17 0L17 1L16 1L16 2L15 2L15 0ZM21 0L21 1L22 1L22 0ZM19 1L19 2L20 2L20 1ZM46 1L46 2L47 2L47 1ZM34 2L34 3L35 3L35 2ZM12 3L12 4L13 4L13 3ZM32 3L32 4L31 4L31 8L32 8L32 10L31 10L31 11L30 11L30 10L29 10L29 9L28 9L28 10L27 10L27 11L26 11L26 12L25 12L25 11L24 11L24 12L25 12L25 14L26 14L26 17L25 17L25 16L23 16L23 15L21 15L21 13L22 13L22 14L23 14L23 13L22 13L22 12L20 12L20 11L22 11L22 10L21 10L21 9L25 9L25 8L26 8L26 4L25 4L25 8L24 8L24 6L23 6L23 8L20 8L20 11L19 11L19 13L20 13L20 14L19 14L19 15L18 15L18 14L17 14L17 13L18 13L18 12L17 12L17 13L16 13L16 16L14 16L14 15L13 15L13 14L15 14L15 13L13 13L13 14L12 14L12 16L10 16L10 15L11 15L11 12L10 12L10 11L9 11L9 14L8 14L8 15L9 15L9 16L8 16L8 18L7 18L7 17L6 17L6 18L7 18L7 19L6 19L6 20L5 20L5 22L7 22L7 21L6 21L6 20L8 20L8 21L9 21L9 23L8 23L8 24L9 24L9 23L10 23L10 25L6 25L6 24L7 24L7 23L6 23L6 24L5 24L5 23L4 23L4 22L3 22L3 23L4 23L4 24L5 24L5 25L6 25L6 26L11 26L11 28L12 28L12 27L13 27L13 26L12 26L12 25L11 25L11 24L12 24L12 23L13 23L13 21L14 21L14 22L16 22L16 21L17 21L17 24L19 24L19 25L14 25L14 24L16 24L16 23L14 23L14 24L13 24L13 25L14 25L14 27L15 27L15 26L18 26L18 27L17 27L17 28L18 28L18 29L16 29L16 28L15 28L15 29L16 29L16 31L15 31L15 33L13 33L13 34L14 34L14 35L12 35L12 36L14 36L14 37L13 37L13 38L12 38L12 37L11 37L11 36L8 36L8 35L9 35L9 34L10 34L10 35L11 35L11 34L12 34L12 33L11 33L11 32L9 32L9 31L10 31L10 27L9 27L9 31L5 31L5 32L4 32L4 33L3 33L3 34L4 34L4 33L5 33L5 32L8 32L8 34L7 34L7 33L6 33L6 34L7 34L7 35L6 35L6 36L7 36L7 37L6 37L6 38L7 38L7 39L6 39L6 40L5 40L5 39L4 39L4 38L5 38L5 37L4 37L4 36L5 36L5 35L4 35L4 36L3 36L3 37L4 37L4 38L3 38L3 39L2 39L2 40L3 40L3 41L4 41L4 40L5 40L5 41L6 41L6 42L4 42L4 43L6 43L6 44L7 44L7 43L8 43L8 42L11 42L11 44L12 44L12 43L13 43L13 42L14 42L14 41L15 41L15 43L18 43L18 42L19 42L19 41L18 41L18 40L19 40L19 39L20 39L20 38L19 38L19 37L23 37L23 38L21 38L21 39L22 39L22 40L20 40L20 43L22 43L22 42L24 42L24 43L23 43L23 44L24 44L24 45L25 45L25 46L24 46L24 47L25 47L25 48L24 48L24 49L25 49L25 48L27 48L27 47L28 47L28 48L30 48L30 47L29 47L29 46L32 46L32 49L31 49L31 53L30 53L30 54L27 54L27 56L29 56L29 55L30 55L30 56L31 56L31 54L32 54L32 53L33 53L33 55L35 55L35 56L36 56L36 54L35 54L35 53L33 53L33 52L32 52L32 49L33 49L33 51L35 51L35 50L36 50L36 52L38 52L38 54L40 54L40 53L41 53L41 52L42 52L42 53L43 53L43 54L44 54L44 53L43 53L43 51L46 51L46 50L47 50L47 49L48 49L48 48L49 48L49 47L51 47L51 46L53 46L53 47L52 47L52 48L53 48L53 47L55 47L55 46L56 46L56 43L55 43L55 44L54 44L54 45L53 45L53 43L54 43L54 42L53 42L53 41L54 41L54 40L53 40L53 35L52 35L52 34L50 34L50 32L51 32L51 33L52 33L52 32L51 32L51 31L50 31L50 32L49 32L49 31L48 31L48 28L47 28L47 29L46 29L46 30L47 30L47 31L45 31L45 28L46 28L46 27L48 27L48 26L47 26L47 25L48 25L48 24L49 24L49 23L50 23L50 26L51 26L51 25L52 25L52 26L53 26L53 27L54 27L54 26L53 26L53 25L54 25L54 24L53 24L53 23L55 23L55 22L56 22L56 21L55 21L55 20L53 20L53 19L52 19L52 20L51 20L51 21L49 21L49 22L47 22L47 21L48 21L48 20L47 20L47 21L45 21L45 20L46 20L46 19L47 19L47 17L45 17L45 14L47 14L47 13L49 13L49 12L50 12L50 14L49 14L49 15L48 15L48 16L49 16L49 17L50 17L50 14L51 14L51 12L50 12L50 11L49 11L49 12L45 12L45 11L46 11L46 10L47 10L47 11L48 11L48 10L47 10L47 9L48 9L48 8L45 8L45 7L46 7L46 6L45 6L45 4L46 4L46 5L47 5L47 3L44 3L44 6L43 6L43 5L40 5L40 6L39 6L39 7L40 7L40 8L38 8L38 10L37 10L37 9L35 9L35 8L37 8L37 7L38 7L38 6L37 6L37 7L36 7L36 5L37 5L37 4L36 4L36 5L35 5L35 4L33 4L33 3ZM32 4L32 5L33 5L33 6L32 6L32 7L33 7L33 9L34 9L34 8L35 8L35 5L33 5L33 4ZM27 5L27 8L30 8L30 5ZM9 6L9 7L10 7L10 8L9 8L9 9L10 9L10 10L11 10L11 11L12 11L12 6L11 6L11 7L10 7L10 6ZM21 6L21 7L22 7L22 6ZM28 6L28 7L29 7L29 6ZM33 6L33 7L34 7L34 6ZM40 6L40 7L41 7L41 10L40 10L40 9L39 9L39 10L38 10L38 11L37 11L37 10L36 10L36 12L35 12L35 13L37 13L37 14L38 14L38 15L39 15L39 16L38 16L38 17L37 17L37 16L35 16L35 14L32 14L32 12L33 12L33 13L34 13L34 12L33 12L33 10L32 10L32 11L31 11L31 13L30 13L30 14L29 14L29 13L28 13L28 12L29 12L29 11L27 11L27 12L26 12L26 14L27 14L27 13L28 13L28 14L29 14L29 16L28 16L28 15L27 15L27 16L28 16L28 17L27 17L27 18L28 18L28 19L29 19L29 20L31 20L31 21L29 21L29 22L28 22L28 24L29 24L29 22L31 22L31 21L32 21L32 20L33 20L33 21L34 21L34 20L35 20L35 23L32 23L32 24L31 24L31 23L30 23L30 24L31 24L31 25L29 25L29 26L26 26L26 25L25 25L25 24L27 24L27 21L26 21L26 19L25 19L25 17L22 17L22 16L21 16L21 17L22 17L22 18L21 18L21 20L24 20L24 21L23 21L23 22L24 22L24 21L25 21L25 22L26 22L26 23L25 23L25 24L24 24L24 23L22 23L22 24L20 24L20 25L19 25L19 26L20 26L20 28L21 28L21 29L22 29L22 28L21 28L21 27L22 27L22 26L23 26L23 28L26 28L26 29L23 29L23 30L25 30L25 31L21 31L21 30L20 30L20 29L18 29L18 31L19 31L19 32L16 32L16 33L15 33L15 34L16 34L16 35L17 35L17 34L16 34L16 33L18 33L18 34L20 34L20 36L22 36L22 35L23 35L23 34L24 34L24 36L23 36L23 37L24 37L24 38L23 38L23 39L24 39L24 40L23 40L23 41L24 41L24 42L25 42L25 41L24 41L24 40L25 40L25 39L27 39L27 41L26 41L26 42L27 42L27 43L25 43L25 44L27 44L27 45L26 45L26 47L27 47L27 45L29 45L29 43L32 43L32 44L31 44L31 45L32 45L32 46L33 46L33 49L34 49L34 47L36 47L36 48L35 48L35 49L36 49L36 50L38 50L38 52L39 52L39 51L40 51L40 52L41 52L41 50L42 50L42 51L43 51L43 50L44 50L44 48L43 48L43 47L44 47L44 46L45 46L45 47L47 47L47 48L48 48L48 47L49 47L49 46L50 46L50 44L51 44L51 45L52 45L52 44L51 44L51 43L53 43L53 42L51 42L51 41L53 41L53 40L52 40L52 39L50 39L50 37L49 37L49 38L48 38L48 37L47 37L47 39L46 39L46 40L47 40L47 39L49 39L49 41L48 41L48 42L47 42L47 43L46 43L46 42L45 42L45 41L44 41L44 40L45 40L45 39L44 39L44 40L43 40L43 41L39 41L39 42L38 42L38 40L39 40L39 39L38 39L38 37L40 37L40 38L43 38L43 37L44 37L44 38L45 38L45 37L44 37L44 36L47 36L47 35L44 35L44 33L43 33L43 32L45 32L45 33L46 33L46 32L45 32L45 31L44 31L44 29L40 29L40 30L43 30L43 32L41 32L41 33L39 33L39 34L40 34L40 35L38 35L38 33L37 33L37 32L35 32L35 31L36 31L36 30L32 30L32 31L31 31L31 29L32 29L32 27L33 27L33 28L35 28L35 29L38 29L38 28L40 28L40 27L41 27L41 28L42 28L42 26L43 26L43 28L45 28L45 27L46 27L46 26L44 26L44 24L43 24L43 23L44 23L44 20L45 20L45 18L44 18L44 15L42 15L42 16L41 16L41 14L44 14L44 12L43 12L43 13L41 13L41 14L38 14L38 13L40 13L40 12L41 12L41 11L45 11L45 10L46 10L46 9L44 9L44 7L45 7L45 6L44 6L44 7L43 7L43 6L42 6L42 7L41 7L41 6ZM16 7L16 8L17 8L17 7ZM0 8L0 9L2 9L2 10L0 10L0 12L1 12L1 14L0 14L0 16L1 16L1 17L2 17L2 16L4 16L4 15L3 15L3 14L5 14L5 13L2 13L2 12L1 12L1 11L4 11L4 12L6 12L6 13L7 13L7 12L6 12L6 11L7 11L7 10L5 10L5 8ZM42 8L42 9L43 9L43 8ZM51 8L51 10L53 10L53 9L54 9L54 8L53 8L53 9L52 9L52 8ZM55 8L55 9L56 9L56 8ZM3 9L3 10L4 10L4 11L5 11L5 10L4 10L4 9ZM18 9L18 10L17 10L17 11L18 11L18 10L19 10L19 9ZM13 11L13 12L14 12L14 11ZM39 11L39 12L40 12L40 11ZM52 12L52 13L53 13L53 15L55 15L55 14L56 14L56 13L55 13L55 12L54 12L54 13L53 13L53 12ZM54 13L54 14L55 14L55 13ZM1 14L1 15L2 15L2 14ZM30 14L30 15L31 15L31 16L32 16L32 19L33 19L33 20L34 20L34 19L36 19L36 20L38 20L38 22L39 22L39 24L38 24L38 23L37 23L37 24L38 24L38 26L37 26L37 25L33 25L33 24L32 24L32 26L31 26L31 27L32 27L32 26L33 26L33 27L34 27L34 26L36 26L36 28L37 28L37 27L39 27L39 26L41 26L41 24L42 24L42 23L41 23L41 24L40 24L40 22L39 22L39 21L43 21L43 20L44 20L44 18L43 18L43 19L42 19L42 18L41 18L41 20L38 20L38 19L39 19L39 17L41 17L41 16L39 16L39 17L38 17L38 18L37 18L37 17L35 17L35 16L32 16L32 14ZM6 15L6 16L7 16L7 15ZM17 15L17 16L16 16L16 17L17 17L17 19L19 19L19 20L17 20L17 21L20 21L20 19L19 19L19 18L20 18L20 15L19 15L19 16L18 16L18 15ZM46 15L46 16L47 16L47 15ZM9 16L9 17L10 17L10 16ZM13 16L13 17L12 17L12 18L10 18L10 21L11 21L11 19L12 19L12 20L14 20L14 19L12 19L12 18L15 18L15 17L14 17L14 16ZM42 16L42 17L43 17L43 16ZM3 18L3 21L4 21L4 18ZM22 18L22 19L24 19L24 18ZM30 18L30 19L31 19L31 18ZM48 18L48 19L49 19L49 18ZM1 20L1 21L2 21L2 20ZM15 20L15 21L16 21L16 20ZM21 21L21 22L22 22L22 21ZM51 21L51 22L50 22L50 23L53 23L53 22L54 22L54 21ZM19 22L19 23L20 23L20 22ZM45 22L45 23L47 23L47 24L48 24L48 23L47 23L47 22ZM22 24L22 25L20 25L20 26L22 26L22 25L24 25L24 24ZM45 24L45 25L46 25L46 24ZM25 26L25 27L26 27L26 26ZM5 27L5 30L8 30L8 27ZM27 27L27 30L30 30L30 27ZM49 27L49 30L52 30L52 27ZM6 28L6 29L7 29L7 28ZM13 28L13 29L11 29L11 30L12 30L12 31L13 31L13 32L14 32L14 30L13 30L13 29L14 29L14 28ZM28 28L28 29L29 29L29 28ZM50 28L50 29L51 29L51 28ZM54 28L54 29L55 29L55 28ZM2 29L2 30L3 30L3 29ZM19 30L19 31L20 31L20 34L21 34L21 33L22 33L22 34L23 34L23 33L25 33L25 35L26 35L26 37L25 37L25 38L27 38L27 39L28 39L28 40L29 40L29 41L27 41L27 42L29 42L29 41L31 41L31 42L32 42L32 43L33 43L33 44L32 44L32 45L33 45L33 46L35 46L35 45L34 45L34 43L35 43L35 44L36 44L36 43L37 43L37 42L35 42L35 40L38 40L38 39L35 39L35 40L33 40L33 39L34 39L34 38L35 38L35 36L37 36L37 37L38 37L38 35L37 35L37 34L35 34L35 32L33 32L33 31L32 31L32 33L31 33L31 31L29 31L29 33L28 33L28 31L27 31L27 32L26 32L26 31L25 31L25 32L21 32L21 31L20 31L20 30ZM38 30L38 32L39 32L39 30ZM53 30L53 32L54 32L54 33L56 33L56 32L54 32L54 30ZM47 31L47 32L48 32L48 33L49 33L49 32L48 32L48 31ZM25 32L25 33L26 33L26 35L27 35L27 33L26 33L26 32ZM29 33L29 34L30 34L30 36L29 36L29 37L31 37L31 38L29 38L29 39L33 39L33 37L32 37L32 36L35 36L35 34L34 34L34 33L32 33L32 34L34 34L34 35L31 35L31 33ZM0 34L0 35L1 35L1 34ZM42 34L42 35L43 35L43 36L40 36L40 37L43 37L43 36L44 36L44 35L43 35L43 34ZM48 34L48 35L50 35L50 36L52 36L52 35L50 35L50 34ZM14 35L14 36L15 36L15 35ZM18 35L18 36L17 36L17 37L19 37L19 35ZM55 36L55 37L56 37L56 36ZM7 37L7 38L8 38L8 37ZM10 37L10 38L9 38L9 39L10 39L10 38L11 38L11 39L12 39L12 38L11 38L11 37ZM15 37L15 38L14 38L14 39L13 39L13 40L12 40L12 42L13 42L13 41L14 41L14 39L15 39L15 40L16 40L16 41L17 41L17 42L18 42L18 41L17 41L17 40L18 40L18 39L17 39L17 40L16 40L16 39L15 39L15 38L16 38L16 37ZM27 37L27 38L28 38L28 37ZM54 38L54 39L55 39L55 38ZM7 39L7 40L6 40L6 41L9 41L9 40L8 40L8 39ZM10 40L10 41L11 41L11 40ZM31 40L31 41L32 41L32 42L33 42L33 43L34 43L34 42L33 42L33 41L32 41L32 40ZM43 41L43 43L44 43L44 45L45 45L45 46L47 46L47 47L48 47L48 46L47 46L47 45L48 45L48 44L50 44L50 43L51 43L51 42L50 42L50 43L49 43L49 42L48 42L48 43L47 43L47 45L45 45L45 44L46 44L46 43L44 43L44 41ZM6 42L6 43L7 43L7 42ZM41 42L41 43L39 43L39 45L38 45L38 46L39 46L39 47L38 47L38 48L37 48L37 49L38 49L38 50L41 50L41 48L42 48L42 49L43 49L43 48L42 48L42 47L43 47L43 46L41 46L41 48L39 48L39 47L40 47L40 46L39 46L39 45L41 45L41 44L42 44L42 42ZM9 43L9 44L10 44L10 43ZM27 43L27 44L28 44L28 43ZM19 44L19 45L20 45L20 46L19 46L19 47L18 47L18 48L20 48L20 46L21 46L21 45L22 45L22 46L23 46L23 45L22 45L22 44ZM6 45L6 46L7 46L7 45ZM36 45L36 46L37 46L37 45ZM54 45L54 46L55 46L55 45ZM6 48L6 49L7 49L7 48ZM9 48L9 49L10 49L10 48ZM14 48L14 49L15 49L15 48ZM38 48L38 49L39 49L39 48ZM55 48L55 50L54 50L54 51L55 51L55 50L56 50L56 48ZM27 49L27 52L30 52L30 49ZM45 49L45 50L46 50L46 49ZM49 49L49 52L52 52L52 49ZM18 50L18 52L19 52L19 50ZM28 50L28 51L29 51L29 50ZM50 50L50 51L51 51L51 50ZM10 51L10 52L8 52L8 57L9 57L9 55L10 55L10 54L11 54L11 55L12 55L12 53L10 53L10 52L11 52L11 51ZM17 54L17 56L18 56L18 54ZM41 54L41 55L42 55L42 54ZM37 55L37 56L39 56L39 55ZM48 55L48 56L49 56L49 55ZM50 55L50 56L51 56L51 55ZM11 56L11 57L12 57L12 56ZM20 56L20 57L21 57L21 56ZM45 56L45 57L46 57L46 56ZM0 0L0 7L7 7L7 0ZM1 1L1 6L6 6L6 1ZM2 2L2 5L5 5L5 2ZM50 0L50 7L57 7L57 0ZM51 1L51 6L56 6L56 1ZM52 2L52 5L55 5L55 2ZM0 50L0 57L7 57L7 50ZM1 51L1 56L6 56L6 51ZM2 52L2 55L5 55L5 52Z" fill="#000000"/></g></g></svg>
