<?xml version="1.0" encoding="UTF-8"?>
<svg xmlns="http://www.w3.org/2000/svg" version="1.1" width="300" height="300" viewBox="0 0 300 300"><rect x="0" y="0" width="300" height="300" fill="#fefefe"/><g transform="scale(4.615)"><g transform="translate(4,4)"><path fill-rule="evenodd" d="M11 0L11 1L12 1L12 0ZM13 0L13 1L14 1L14 2L13 2L13 4L14 4L14 2L15 2L15 1L14 1L14 0ZM17 0L17 1L16 1L16 3L17 3L17 4L19 4L19 5L20 5L20 7L19 7L19 6L18 6L18 7L17 7L17 6L16 6L16 7L15 7L15 6L14 6L14 8L13 8L13 9L12 9L12 7L13 7L13 6L12 6L12 7L11 7L11 5L10 5L10 4L12 4L12 3L11 3L11 2L10 2L10 1L8 1L8 2L9 2L9 3L8 3L8 4L9 4L9 5L8 5L8 7L9 7L9 8L6 8L6 9L5 9L5 8L0 8L0 11L1 11L1 12L3 12L3 13L2 13L2 14L1 14L1 13L0 13L0 15L1 15L1 17L2 17L2 18L3 18L3 19L2 19L2 20L5 20L5 19L4 19L4 11L5 11L5 12L6 12L6 13L5 13L5 14L6 14L6 15L7 15L7 14L6 14L6 13L8 13L8 15L9 15L9 16L6 16L6 17L5 17L5 18L6 18L6 19L7 19L7 18L6 18L6 17L9 17L9 19L10 19L10 20L9 20L9 21L10 21L10 22L11 22L11 23L12 23L12 26L11 26L11 24L8 24L8 23L9 23L9 22L8 22L8 23L7 23L7 22L6 22L6 21L8 21L8 20L6 20L6 21L5 21L5 22L4 22L4 21L3 21L3 22L2 22L2 23L3 23L3 24L4 24L4 25L3 25L3 26L2 26L2 25L1 25L1 24L0 24L0 25L1 25L1 26L2 26L2 27L0 27L0 29L1 29L1 30L0 30L0 31L2 31L2 33L1 33L1 32L0 32L0 33L1 33L1 35L4 35L4 34L5 34L5 35L7 35L7 36L3 36L3 37L2 37L2 38L1 38L1 37L0 37L0 42L1 42L1 43L0 43L0 44L1 44L1 45L0 45L0 48L5 48L5 47L7 47L7 46L5 46L5 45L7 45L7 44L6 44L6 43L9 43L9 44L11 44L11 46L12 46L12 47L11 47L11 49L13 49L13 48L12 48L12 47L13 47L13 46L14 46L14 47L16 47L16 46L14 46L14 45L15 45L15 44L14 44L14 43L16 43L16 45L17 45L17 47L18 47L18 46L20 46L20 47L23 47L23 46L25 46L25 44L29 44L29 48L25 48L25 47L24 47L24 48L23 48L23 49L21 49L21 48L20 48L20 49L19 49L19 48L17 48L17 49L18 49L18 50L16 50L16 52L15 52L15 50L14 50L14 52L13 52L13 51L12 51L12 50L10 50L10 47L9 47L9 46L10 46L10 45L8 45L8 47L9 47L9 49L8 49L8 48L6 48L6 49L8 49L8 51L11 51L11 52L8 52L8 57L10 57L10 56L11 56L11 57L12 57L12 56L13 56L13 57L16 57L16 56L17 56L17 57L19 57L19 56L18 56L18 55L20 55L20 54L17 54L17 53L20 53L20 52L21 52L21 53L22 53L22 55L23 55L23 57L26 57L26 56L24 56L24 55L23 55L23 54L24 54L24 53L25 53L25 55L26 55L26 53L27 53L27 54L30 54L30 53L31 53L31 51L32 51L32 52L33 52L33 51L35 51L35 52L34 52L34 53L35 53L35 54L36 54L36 56L35 56L35 55L33 55L33 53L32 53L32 54L31 54L31 56L30 56L30 55L29 55L29 56L27 56L27 57L29 57L29 56L30 56L30 57L31 57L31 56L35 56L35 57L39 57L39 56L41 56L41 55L44 55L44 54L45 54L45 53L47 53L47 50L48 50L48 54L47 54L47 56L46 56L46 57L49 57L49 56L50 56L50 57L52 57L52 55L51 55L51 53L52 53L52 54L53 54L53 55L54 55L54 56L53 56L53 57L54 57L54 56L55 56L55 57L56 57L56 56L55 56L55 54L53 54L53 52L54 52L54 53L56 53L56 52L57 52L57 51L56 51L56 52L55 52L55 51L54 51L54 50L57 50L57 48L56 48L56 46L57 46L57 45L56 45L56 46L55 46L55 45L54 45L54 44L55 44L55 43L56 43L56 44L57 44L57 43L56 43L56 42L55 42L55 39L57 39L57 37L55 37L55 36L57 36L57 35L56 35L56 34L57 34L57 32L56 32L56 30L57 30L57 28L56 28L56 26L57 26L57 25L56 25L56 22L57 22L57 20L56 20L56 22L55 22L55 23L53 23L53 22L54 22L54 21L51 21L51 20L52 20L52 19L53 19L53 20L55 20L55 18L57 18L57 17L56 17L56 16L57 16L57 15L56 15L56 14L57 14L57 12L56 12L56 14L55 14L55 13L54 13L54 12L55 12L55 11L56 11L56 10L54 10L54 11L50 11L50 8L49 8L49 6L48 6L48 7L47 7L47 5L48 5L48 0L45 0L45 2L44 2L44 3L43 3L43 4L40 4L40 5L39 5L39 6L38 6L38 3L41 3L41 2L43 2L43 0L41 0L41 1L40 1L40 0L39 0L39 1L38 1L38 0L37 0L37 1L38 1L38 3L36 3L36 0L35 0L35 1L33 1L33 0L27 0L27 1L26 1L26 0L23 0L23 2L25 2L25 1L26 1L26 2L28 2L28 3L30 3L30 4L26 4L26 3L23 3L23 4L24 4L24 5L23 5L23 6L22 6L22 8L23 8L23 6L24 6L24 9L23 9L23 10L22 10L22 9L21 9L21 10L22 10L22 11L21 11L21 12L20 12L20 13L19 13L19 11L20 11L20 8L21 8L21 4L19 4L19 3L17 3L17 1L18 1L18 2L21 2L21 1L22 1L22 0L21 0L21 1L20 1L20 0ZM28 1L28 2L29 2L29 1ZM30 1L30 2L31 2L31 3L32 3L32 4L31 4L31 8L32 8L32 10L27 10L27 11L26 11L26 12L25 12L25 11L24 11L24 12L23 12L23 13L22 13L22 12L21 12L21 13L20 13L20 14L17 14L17 13L18 13L18 12L17 12L17 11L18 11L18 10L19 10L19 9L16 9L16 8L17 8L17 7L16 7L16 8L14 8L14 10L15 10L15 13L13 13L13 12L14 12L14 11L13 11L13 10L12 10L12 9L11 9L11 10L12 10L12 11L10 11L10 8L9 8L9 13L11 13L11 14L9 14L9 15L10 15L10 19L11 19L11 20L10 20L10 21L11 21L11 22L12 22L12 20L13 20L13 21L14 21L14 22L13 22L13 26L12 26L12 28L11 28L11 27L9 27L9 29L10 29L10 28L11 28L11 30L9 30L9 32L7 32L7 31L6 31L6 32L7 32L7 33L5 33L5 34L8 34L8 35L9 35L9 34L8 34L8 33L10 33L10 36L11 36L11 35L12 35L12 34L11 34L11 33L13 33L13 34L14 34L14 33L15 33L15 34L16 34L16 35L13 35L13 36L12 36L12 37L13 37L13 38L14 38L14 39L13 39L13 42L12 42L12 43L11 43L11 44L12 44L12 43L13 43L13 42L14 42L14 41L15 41L15 42L17 42L17 43L18 43L18 42L19 42L19 41L20 41L20 42L21 42L21 43L20 43L20 44L21 44L21 45L20 45L20 46L21 46L21 45L22 45L22 46L23 46L23 45L22 45L22 44L21 44L21 43L22 43L22 42L23 42L23 40L24 40L24 41L25 41L25 43L23 43L23 44L25 44L25 43L29 43L29 44L31 44L31 45L32 45L32 46L31 46L31 48L32 48L32 49L31 49L31 50L36 50L36 52L38 52L38 53L37 53L37 54L40 54L40 53L42 53L42 52L43 52L43 51L45 51L45 52L44 52L44 53L43 53L43 54L44 54L44 53L45 53L45 52L46 52L46 50L47 50L47 49L48 49L48 48L49 48L49 47L48 47L48 48L46 48L46 47L45 47L45 46L48 46L48 45L49 45L49 46L50 46L50 47L51 47L51 48L52 48L52 47L54 47L54 46L53 46L53 45L52 45L52 44L53 44L53 43L54 43L54 42L53 42L53 41L54 41L54 40L53 40L53 39L52 39L52 38L53 38L53 35L55 35L55 34L56 34L56 32L55 32L55 34L54 34L54 32L53 32L53 31L55 31L55 30L54 30L54 29L55 29L55 28L54 28L54 29L53 29L53 31L50 31L50 32L49 32L49 31L48 31L48 28L47 28L47 29L46 29L46 30L47 30L47 31L45 31L45 28L46 28L46 27L47 27L47 26L48 26L48 25L50 25L50 26L51 26L51 25L52 25L52 26L53 26L53 27L54 27L54 26L53 26L53 24L51 24L51 23L50 23L50 22L51 22L51 21L49 21L49 23L48 23L48 25L47 25L47 23L46 23L46 22L47 22L47 21L46 21L46 20L49 20L49 19L50 19L50 18L51 18L51 19L52 19L52 18L51 18L51 17L53 17L53 18L55 18L55 17L53 17L53 15L55 15L55 14L53 14L53 15L50 15L50 14L51 14L51 12L50 12L50 11L49 11L49 10L47 10L47 8L46 8L46 6L45 6L45 5L47 5L47 3L44 3L44 6L43 6L43 7L44 7L44 10L43 10L43 11L41 11L41 7L42 7L42 6L41 6L41 5L40 5L40 6L39 6L39 7L40 7L40 8L39 8L39 9L38 9L38 10L37 10L37 9L35 9L35 8L37 8L37 7L38 7L38 6L37 6L37 7L36 7L36 5L37 5L37 4L36 4L36 5L35 5L35 4L33 4L33 3L32 3L32 2L33 2L33 1L32 1L32 2L31 2L31 1ZM46 1L46 2L47 2L47 1ZM34 2L34 3L35 3L35 2ZM15 4L15 5L16 5L16 4ZM25 4L25 8L26 8L26 4ZM32 4L32 5L33 5L33 6L32 6L32 7L33 7L33 9L34 9L34 8L35 8L35 5L33 5L33 4ZM9 5L9 7L10 7L10 5ZM27 5L27 8L30 8L30 5ZM28 6L28 7L29 7L29 6ZM33 6L33 7L34 7L34 6ZM40 6L40 7L41 7L41 6ZM44 6L44 7L45 7L45 6ZM42 8L42 9L43 9L43 8ZM51 8L51 10L52 10L52 8ZM53 8L53 9L54 9L54 8ZM55 8L55 9L56 9L56 8ZM1 9L1 10L4 10L4 9ZM6 9L6 10L5 10L5 11L6 11L6 12L7 12L7 11L8 11L8 10L7 10L7 9ZM15 9L15 10L16 10L16 11L17 11L17 10L16 10L16 9ZM45 9L45 10L44 10L44 11L43 11L43 13L41 13L41 14L43 14L43 15L42 15L42 16L41 16L41 15L40 15L40 14L38 14L38 13L39 13L39 11L40 11L40 12L41 12L41 11L40 11L40 10L39 10L39 11L37 11L37 10L36 10L36 11L35 11L35 13L36 13L36 14L33 14L33 13L34 13L34 12L33 12L33 13L32 13L32 11L33 11L33 10L32 10L32 11L31 11L31 13L30 13L30 14L29 14L29 13L28 13L28 12L29 12L29 11L27 11L27 12L26 12L26 13L25 13L25 12L24 12L24 13L23 13L23 14L22 14L22 13L21 13L21 15L20 15L20 16L19 16L19 15L18 15L18 16L17 16L17 17L19 17L19 20L18 20L18 19L17 19L17 18L15 18L15 17L16 17L16 13L17 13L17 12L16 12L16 13L15 13L15 14L14 14L14 15L13 15L13 16L12 16L12 17L13 17L13 18L11 18L11 19L13 19L13 20L14 20L14 19L13 19L13 18L15 18L15 21L16 21L16 22L14 22L14 23L16 23L16 24L15 24L15 25L17 25L17 26L14 26L14 27L15 27L15 28L14 28L14 31L13 31L13 30L12 30L12 32L13 32L13 33L14 33L14 32L15 32L15 33L16 33L16 32L17 32L17 33L18 33L18 34L17 34L17 35L18 35L18 36L17 36L17 37L18 37L18 38L17 38L17 40L16 40L16 39L14 39L14 40L15 40L15 41L17 41L17 42L18 42L18 41L19 41L19 40L21 40L21 39L24 39L24 40L25 40L25 37L26 37L26 35L27 35L27 34L26 34L26 35L25 35L25 33L26 33L26 32L27 32L27 31L29 31L29 32L28 32L28 33L29 33L29 34L30 34L30 36L29 36L29 37L31 37L31 38L29 38L29 39L33 39L33 40L35 40L35 42L37 42L37 43L34 43L34 42L33 42L33 41L32 41L32 40L29 40L29 43L31 43L31 44L33 44L33 43L34 43L34 45L37 45L37 46L36 46L36 48L35 48L35 46L32 46L32 47L33 47L33 49L36 49L36 50L38 50L38 52L39 52L39 51L40 51L40 52L41 52L41 50L42 50L42 51L43 51L43 49L44 49L44 50L46 50L46 49L44 49L44 48L45 48L45 47L44 47L44 46L45 46L45 45L47 45L47 44L48 44L48 43L50 43L50 46L51 46L51 47L52 47L52 45L51 45L51 43L53 43L53 42L51 42L51 41L53 41L53 40L52 40L52 39L50 39L50 38L51 38L51 37L52 37L52 35L53 35L53 34L52 34L52 33L53 33L53 32L52 32L52 33L51 33L51 32L50 32L50 34L48 34L48 35L47 35L47 36L48 36L48 37L47 37L47 39L46 39L46 38L45 38L45 37L46 37L46 36L45 36L45 35L46 35L46 34L45 34L45 33L43 33L43 32L45 32L45 31L43 31L43 32L41 32L41 33L39 33L39 34L40 34L40 35L39 35L39 36L38 36L38 33L37 33L37 32L35 32L35 30L33 30L33 31L32 31L32 30L31 30L31 29L32 29L32 27L33 27L33 28L35 28L35 29L38 29L38 28L39 28L39 27L36 27L36 26L34 26L34 27L33 27L33 26L32 26L32 24L33 24L33 25L37 25L37 26L38 26L38 25L40 25L40 24L41 24L41 25L42 25L42 26L41 26L41 28L42 28L42 26L43 26L43 28L45 28L45 27L46 27L46 26L45 26L45 25L46 25L46 24L45 24L45 25L44 25L44 20L45 20L45 18L44 18L44 11L45 11L45 12L47 12L47 10L46 10L46 9ZM6 10L6 11L7 11L7 10ZM45 10L45 11L46 11L46 10ZM48 11L48 12L49 12L49 13L47 13L47 14L45 14L45 16L46 16L46 15L47 15L47 16L48 16L48 17L47 17L47 18L46 18L46 19L47 19L47 18L50 18L50 17L49 17L49 16L50 16L50 15L49 15L49 14L50 14L50 12L49 12L49 11ZM52 12L52 13L53 13L53 12ZM12 13L12 14L13 14L13 13ZM26 13L26 14L25 14L25 15L26 15L26 17L28 17L28 16L29 16L29 14L28 14L28 13ZM31 13L31 14L30 14L30 15L32 15L32 18L30 18L30 19L28 19L28 18L25 18L25 19L26 19L26 21L28 21L28 22L27 22L27 23L28 23L28 24L25 24L25 23L26 23L26 22L25 22L25 21L24 21L24 20L21 20L21 19L24 19L24 18L22 18L22 17L25 17L25 16L23 16L23 15L24 15L24 14L23 14L23 15L21 15L21 16L20 16L20 21L18 21L18 23L19 23L19 24L21 24L21 25L19 25L19 26L18 26L18 27L17 27L17 28L18 28L18 29L16 29L16 28L15 28L15 29L16 29L16 30L17 30L17 32L18 32L18 31L19 31L19 30L18 30L18 29L19 29L19 28L20 28L20 27L21 27L21 28L22 28L22 29L20 29L20 30L21 30L21 31L20 31L20 32L21 32L21 33L19 33L19 34L21 34L21 36L19 36L19 37L22 37L22 38L24 38L24 37L23 37L23 36L24 36L24 34L23 34L23 33L25 33L25 32L21 32L21 31L25 31L25 30L23 30L23 29L26 29L26 28L25 28L25 27L26 27L26 26L27 26L27 25L29 25L29 26L30 26L30 25L31 25L31 24L32 24L32 23L33 23L33 22L34 22L34 23L35 23L35 21L33 21L33 20L32 20L32 21L31 21L31 20L30 20L30 19L33 19L33 18L34 18L34 19L36 19L36 20L37 20L37 21L38 21L38 23L37 23L37 24L40 24L40 22L39 22L39 21L41 21L41 20L39 20L39 21L38 21L38 19L39 19L39 17L41 17L41 16L39 16L39 15L38 15L38 14L37 14L37 15L35 15L35 16L33 16L33 15L32 15L32 13ZM2 14L2 15L3 15L3 14ZM26 14L26 15L27 15L27 16L28 16L28 15L27 15L27 14ZM14 15L14 16L13 16L13 17L15 17L15 15ZM48 15L48 16L49 16L49 15ZM2 16L2 17L3 17L3 16ZM21 16L21 17L22 17L22 16ZM35 16L35 17L37 17L37 18L38 18L38 17L39 17L39 16L38 16L38 17L37 17L37 16ZM42 16L42 17L43 17L43 16ZM0 18L0 19L1 19L1 18ZM41 18L41 19L42 19L42 18ZM43 18L43 20L42 20L42 21L43 21L43 20L44 20L44 18ZM16 19L16 21L17 21L17 19ZM27 19L27 20L28 20L28 19ZM29 20L29 21L30 21L30 22L29 22L29 25L30 25L30 24L31 24L31 23L30 23L30 22L31 22L31 21L30 21L30 20ZM22 21L22 22L24 22L24 21ZM45 21L45 22L46 22L46 21ZM19 22L19 23L20 23L20 22ZM41 22L41 24L43 24L43 23L42 23L42 22ZM4 23L4 24L7 24L7 25L5 25L5 26L10 26L10 25L8 25L8 24L7 24L7 23ZM21 23L21 24L24 24L24 25L21 25L21 27L22 27L22 26L24 26L24 27L25 27L25 26L26 26L26 25L25 25L25 24L24 24L24 23ZM49 23L49 24L50 24L50 25L51 25L51 24L50 24L50 23ZM3 26L3 27L4 27L4 26ZM19 26L19 27L20 27L20 26ZM31 26L31 27L32 27L32 26ZM44 26L44 27L45 27L45 26ZM5 27L5 30L8 30L8 27ZM27 27L27 30L30 30L30 27ZM35 27L35 28L36 28L36 27ZM49 27L49 30L52 30L52 27ZM1 28L1 29L3 29L3 28ZM6 28L6 29L7 29L7 28ZM12 28L12 29L13 29L13 28ZM28 28L28 29L29 29L29 28ZM50 28L50 29L51 29L51 28ZM40 29L40 30L44 30L44 29ZM2 30L2 31L3 31L3 32L5 32L5 31L4 31L4 30ZM38 30L38 32L39 32L39 30ZM10 31L10 33L11 33L11 31ZM30 31L30 32L29 32L29 33L31 33L31 32L32 32L32 33L33 33L33 34L32 34L32 35L33 35L33 36L32 36L32 37L33 37L33 39L35 39L35 40L38 40L38 42L39 42L39 41L43 41L43 40L42 40L42 39L45 39L45 40L44 40L44 42L43 42L43 43L44 43L44 45L45 45L45 44L46 44L46 43L47 43L47 42L48 42L48 41L49 41L49 39L47 39L47 40L46 40L46 39L45 39L45 38L44 38L44 37L45 37L45 36L44 36L44 35L45 35L45 34L42 34L42 35L43 35L43 36L40 36L40 37L38 37L38 38L37 38L37 39L35 39L35 37L33 37L33 36L34 36L34 34L35 34L35 36L37 36L37 34L35 34L35 33L33 33L33 32L34 32L34 31L33 31L33 32L32 32L32 31ZM47 31L47 32L46 32L46 33L47 33L47 32L48 32L48 33L49 33L49 32L48 32L48 31ZM2 33L2 34L3 34L3 33ZM21 33L21 34L22 34L22 33ZM50 34L50 35L48 35L48 36L49 36L49 37L48 37L48 38L49 38L49 37L50 37L50 35L52 35L52 34ZM7 36L7 37L5 37L5 38L4 38L4 39L2 39L2 40L3 40L3 41L1 41L1 42L2 42L2 45L1 45L1 47L2 47L2 46L3 46L3 47L5 47L5 46L4 46L4 43L6 43L6 42L9 42L9 43L10 43L10 42L9 42L9 41L12 41L12 40L10 40L10 39L12 39L12 38L11 38L11 37L10 37L10 39L9 39L9 41L6 41L6 40L7 40L7 39L5 39L5 38L7 38L7 37L8 37L8 38L9 38L9 36ZM14 36L14 38L16 38L16 37L15 37L15 36ZM43 36L43 37L40 37L40 38L43 38L43 37L44 37L44 36ZM27 37L27 38L26 38L26 40L28 40L28 39L27 39L27 38L28 38L28 37ZM19 38L19 39L20 39L20 38ZM54 38L54 39L55 39L55 38ZM4 39L4 40L5 40L5 39ZM38 39L38 40L39 40L39 39ZM3 41L3 42L6 42L6 41ZM21 41L21 42L22 42L22 41ZM26 41L26 42L27 42L27 41ZM31 41L31 42L32 42L32 43L33 43L33 42L32 42L32 41ZM44 42L44 43L45 43L45 42ZM50 42L50 43L51 43L51 42ZM39 43L39 45L38 45L38 46L41 46L41 48L39 48L39 47L38 47L38 48L37 48L37 49L38 49L38 50L41 50L41 48L42 48L42 49L43 49L43 48L44 48L44 47L43 47L43 46L41 46L41 44L42 44L42 43ZM13 44L13 45L14 45L14 44ZM17 44L17 45L18 45L18 44ZM26 45L26 47L28 47L28 46L27 46L27 45ZM42 47L42 48L43 48L43 47ZM15 48L15 49L16 49L16 48ZM24 48L24 49L25 49L25 50L23 50L23 51L22 51L22 50L21 50L21 49L20 49L20 50L18 50L18 51L17 51L17 52L16 52L16 53L15 53L15 52L14 52L14 53L13 53L13 52L12 52L12 53L11 53L11 54L9 54L9 56L10 56L10 55L12 55L12 53L13 53L13 55L15 55L15 56L16 56L16 55L15 55L15 54L16 54L16 53L17 53L17 52L18 52L18 51L20 51L20 50L21 50L21 52L22 52L22 53L24 53L24 52L26 52L26 51L25 51L25 50L26 50L26 49L25 49L25 48ZM38 48L38 49L39 49L39 48ZM53 48L53 49L56 49L56 48ZM27 49L27 52L30 52L30 49ZM49 49L49 52L52 52L52 49ZM28 50L28 51L29 51L29 50ZM50 50L50 51L51 51L51 50ZM14 53L14 54L15 54L15 53ZM37 55L37 56L39 56L39 55ZM48 55L48 56L49 56L49 55ZM50 55L50 56L51 56L51 55ZM43 56L43 57L44 57L44 56ZM0 0L0 7L7 7L7 0ZM1 1L1 6L6 6L6 1ZM2 2L2 5L5 5L5 2ZM50 0L50 7L57 7L57 0ZM51 1L51 6L56 6L56 1ZM52 2L52 5L55 5L55 2ZM0 50L0 57L7 57L7 50ZM1 51L1 56L6 56L6 51ZM2 52L2 55L5 55L5 52Z" fill="#000000"/></g></g></svg>
