<?xml version="1.0" encoding="UTF-8"?>
<svg xmlns="http://www.w3.org/2000/svg" version="1.1" width="300" height="300" viewBox="0 0 300 300"><rect x="0" y="0" width="300" height="300" fill="#fefefe"/><g transform="scale(4.615)"><g transform="translate(4,4)"><path fill-rule="evenodd" d="M10 0L10 1L8 1L8 2L9 2L9 3L8 3L8 4L9 4L9 5L8 5L8 7L9 7L9 6L10 6L10 7L11 7L11 6L10 6L10 4L11 4L11 5L12 5L12 7L13 7L13 8L12 8L12 10L11 10L11 9L10 9L10 8L6 8L6 9L7 9L7 10L6 10L6 11L7 11L7 10L8 10L8 9L10 9L10 10L11 10L11 11L10 11L10 12L11 12L11 11L12 11L12 12L13 12L13 13L15 13L15 14L14 14L14 16L13 16L13 14L12 14L12 13L11 13L11 15L10 15L10 16L9 16L9 13L8 13L8 12L9 12L9 11L8 11L8 12L6 12L6 13L5 13L5 12L4 12L4 9L5 9L5 8L0 8L0 10L1 10L1 12L0 12L0 13L1 13L1 12L4 12L4 13L2 13L2 15L3 15L3 16L1 16L1 15L0 15L0 20L1 20L1 24L0 24L0 26L1 26L1 27L2 27L2 25L3 25L3 24L4 24L4 26L3 26L3 28L4 28L4 32L3 32L3 31L2 31L2 30L3 30L3 29L2 29L2 30L0 30L0 34L1 34L1 35L0 35L0 37L1 37L1 38L0 38L0 39L1 39L1 38L2 38L2 39L3 39L3 42L2 42L2 41L1 41L1 42L2 42L2 43L4 43L4 44L2 44L2 45L4 45L4 46L5 46L5 47L3 47L3 46L2 46L2 47L1 47L1 46L0 46L0 48L5 48L5 47L7 47L7 48L6 48L6 49L7 49L7 48L8 48L8 47L7 47L7 46L6 46L6 45L7 45L7 44L8 44L8 43L7 43L7 42L9 42L9 43L10 43L10 44L9 44L9 45L8 45L8 46L9 46L9 45L10 45L10 44L11 44L11 45L12 45L12 46L14 46L14 48L16 48L16 47L15 47L15 46L14 46L14 45L15 45L15 44L18 44L18 45L17 45L17 46L20 46L20 47L24 47L24 48L23 48L23 49L21 49L21 48L20 48L20 49L19 49L19 47L18 47L18 48L17 48L17 49L19 49L19 50L16 50L16 51L15 51L15 49L12 49L12 48L11 48L11 49L10 49L10 47L11 47L11 46L10 46L10 47L9 47L9 49L8 49L8 51L9 51L9 52L8 52L8 57L9 57L9 56L10 56L10 54L9 54L9 52L10 52L10 53L11 53L11 55L12 55L12 56L11 56L11 57L13 57L13 55L14 55L14 54L13 54L13 55L12 55L12 53L14 53L14 52L10 52L10 51L13 51L13 50L14 50L14 51L15 51L15 53L16 53L16 54L15 54L15 55L16 55L16 56L17 56L17 57L20 57L20 56L18 56L18 55L20 55L20 54L19 54L19 53L20 53L20 52L21 52L21 53L22 53L22 55L21 55L21 56L24 56L24 57L26 57L26 56L24 56L24 55L23 55L23 54L24 54L24 53L26 53L26 54L25 54L25 55L26 55L26 54L30 54L30 53L31 53L31 51L32 51L32 52L33 52L33 53L32 53L32 54L31 54L31 56L30 56L30 55L29 55L29 56L27 56L27 57L29 57L29 56L30 56L30 57L31 57L31 56L35 56L35 57L39 57L39 56L40 56L40 55L41 55L41 57L42 57L42 55L44 55L44 54L45 54L45 53L44 53L44 52L47 52L47 50L48 50L48 54L46 54L46 55L48 55L48 56L47 56L47 57L49 57L49 56L50 56L50 57L52 57L52 55L51 55L51 53L52 53L52 54L53 54L53 57L54 57L54 56L55 56L55 57L56 57L56 56L55 56L55 52L56 52L56 53L57 53L57 52L56 52L56 51L54 51L54 50L57 50L57 48L56 48L56 46L57 46L57 45L56 45L56 44L55 44L55 43L56 43L56 42L57 42L57 41L56 41L56 42L55 42L55 39L57 39L57 37L55 37L55 36L57 36L57 35L56 35L56 33L57 33L57 32L56 32L56 30L57 30L57 29L56 29L56 28L57 28L57 27L55 27L55 26L57 26L57 25L56 25L56 22L57 22L57 21L56 21L56 22L55 22L55 23L53 23L53 21L51 21L51 20L52 20L52 19L53 19L53 20L55 20L55 19L56 19L56 20L57 20L57 19L56 19L56 16L57 16L57 15L56 15L56 14L57 14L57 13L56 13L56 8L55 8L55 10L54 10L54 11L53 11L53 9L54 9L54 8L53 8L53 9L52 9L52 8L51 8L51 10L50 10L50 8L49 8L49 6L48 6L48 7L47 7L47 5L48 5L48 0L45 0L45 2L44 2L44 3L43 3L43 4L40 4L40 5L39 5L39 6L38 6L38 7L37 7L37 5L38 5L38 4L37 4L37 3L36 3L36 0L35 0L35 1L32 1L32 0L29 0L29 1L30 1L30 2L32 2L32 3L31 3L31 4L26 4L26 3L23 3L23 4L19 4L19 3L20 3L20 2L19 2L19 1L20 1L20 0L19 0L19 1L18 1L18 2L16 2L16 1L14 1L14 0ZM21 0L21 3L22 3L22 0ZM23 0L23 2L27 2L27 1L25 1L25 0ZM37 0L37 1L38 1L38 3L41 3L41 2L43 2L43 0L41 0L41 1L40 1L40 0L39 0L39 1L38 1L38 0ZM10 1L10 3L11 3L11 4L13 4L13 5L14 5L14 6L13 6L13 7L14 7L14 6L15 6L15 7L16 7L16 8L14 8L14 10L15 10L15 11L16 11L16 12L15 12L15 13L16 13L16 16L14 16L14 18L13 18L13 17L11 17L11 18L12 18L12 20L13 20L13 21L12 21L12 22L11 22L11 20L10 20L10 17L9 17L9 16L8 16L8 13L6 13L6 14L3 14L3 15L5 15L5 16L8 16L8 17L9 17L9 18L8 18L8 19L5 19L5 17L4 17L4 16L3 16L3 17L2 17L2 19L1 19L1 20L2 20L2 21L4 21L4 22L3 22L3 23L4 23L4 22L7 22L7 23L5 23L5 25L6 25L6 26L7 26L7 25L6 25L6 24L9 24L9 25L8 25L8 26L10 26L10 27L9 27L9 28L11 28L11 27L12 27L12 26L13 26L13 25L10 25L10 24L9 24L9 23L8 23L8 22L10 22L10 23L12 23L12 22L13 22L13 23L14 23L14 24L15 24L15 25L14 25L14 27L15 27L15 26L18 26L18 27L17 27L17 28L18 28L18 29L16 29L16 28L15 28L15 29L16 29L16 31L15 31L15 30L14 30L14 29L13 29L13 28L12 28L12 29L11 29L11 30L10 30L10 29L9 29L9 31L8 31L8 33L6 33L6 32L7 32L7 31L6 31L6 32L4 32L4 34L3 34L3 36L2 36L2 38L5 38L5 40L4 40L4 41L5 41L5 42L4 42L4 43L6 43L6 44L5 44L5 45L6 45L6 44L7 44L7 43L6 43L6 42L7 42L7 41L5 41L5 40L9 40L9 39L10 39L10 41L9 41L9 42L10 42L10 43L11 43L11 44L13 44L13 43L11 43L11 41L12 41L12 40L11 40L11 39L13 39L13 40L14 40L14 42L15 42L15 43L14 43L14 44L15 44L15 43L18 43L18 42L19 42L19 43L20 43L20 44L19 44L19 45L20 45L20 46L21 46L21 45L22 45L22 46L23 46L23 45L22 45L22 44L21 44L21 43L22 43L22 42L24 42L24 41L25 41L25 43L29 43L29 41L30 41L30 42L32 42L32 43L31 43L31 44L32 44L32 45L31 45L31 46L32 46L32 47L31 47L31 48L32 48L32 49L31 49L31 50L32 50L32 51L34 51L34 50L36 50L36 52L38 52L38 54L40 54L40 53L43 53L43 54L44 54L44 53L43 53L43 51L42 51L42 50L41 50L41 48L42 48L42 49L43 49L43 50L47 50L47 49L48 49L48 48L54 48L54 49L56 49L56 48L54 48L54 47L55 47L55 46L56 46L56 45L55 45L55 44L54 44L54 45L55 45L55 46L54 46L54 47L53 47L53 45L52 45L52 44L53 44L53 43L54 43L54 42L53 42L53 41L51 41L51 42L50 42L50 43L49 43L49 42L48 42L48 41L49 41L49 39L51 39L51 40L53 40L53 39L52 39L52 38L53 38L53 35L55 35L55 34L54 34L54 32L53 32L53 31L54 31L54 30L53 30L53 31L52 31L52 32L51 32L51 33L52 33L52 34L50 34L50 31L48 31L48 29L46 29L46 30L47 30L47 31L46 31L46 32L43 32L43 30L41 30L41 29L45 29L45 28L46 28L46 27L47 27L47 28L48 28L48 26L47 26L47 25L45 25L45 23L46 23L46 24L48 24L48 25L50 25L50 26L51 26L51 25L55 25L55 24L53 24L53 23L52 23L52 24L49 24L49 23L50 23L50 22L51 22L51 21L49 21L49 22L47 22L47 21L48 21L48 20L47 20L47 19L46 19L46 18L47 18L47 17L48 17L48 16L49 16L49 17L50 17L50 18L48 18L48 19L51 19L51 17L53 17L53 18L55 18L55 16L53 16L53 15L52 15L52 16L51 16L51 15L50 15L50 14L51 14L51 12L50 12L50 10L47 10L47 9L48 9L48 8L45 8L45 7L46 7L46 6L45 6L45 5L47 5L47 3L44 3L44 6L43 6L43 5L40 5L40 6L39 6L39 7L40 7L40 8L39 8L39 9L38 9L38 8L37 8L37 7L36 7L36 5L37 5L37 4L36 4L36 5L35 5L35 4L33 4L33 3L32 3L32 4L31 4L31 8L32 8L32 10L29 10L29 9L28 9L28 11L29 11L29 12L28 12L28 13L27 13L27 14L26 14L26 12L27 12L27 11L26 11L26 12L25 12L25 10L23 10L23 8L24 8L24 6L23 6L23 5L24 5L24 4L23 4L23 5L21 5L21 7L22 7L22 8L19 8L19 7L20 7L20 5L19 5L19 4L17 4L17 3L15 3L15 2L14 2L14 1L12 1L12 2L11 2L11 1ZM46 1L46 2L47 2L47 1ZM12 2L12 3L13 3L13 4L14 4L14 2ZM34 2L34 3L35 3L35 2ZM15 4L15 5L16 5L16 4ZM25 4L25 8L26 8L26 4ZM32 4L32 5L33 5L33 6L32 6L32 7L33 7L33 9L34 9L34 8L35 8L35 9L37 9L37 10L36 10L36 12L35 12L35 13L37 13L37 14L38 14L38 15L39 15L39 16L38 16L38 17L37 17L37 16L35 16L35 14L32 14L32 12L33 12L33 13L34 13L34 12L33 12L33 10L32 10L32 11L31 11L31 13L30 13L30 14L29 14L29 13L28 13L28 14L29 14L29 16L28 16L28 15L27 15L27 16L28 16L28 17L27 17L27 18L28 18L28 19L29 19L29 21L28 21L28 22L29 22L29 23L28 23L28 24L29 24L29 25L30 25L30 26L28 26L28 25L27 25L27 26L26 26L26 25L25 25L25 24L27 24L27 21L25 21L25 20L26 20L26 18L25 18L25 17L26 17L26 15L24 15L24 14L25 14L25 13L24 13L24 12L23 12L23 10L22 10L22 9L21 9L21 10L20 10L20 9L19 9L19 8L16 8L16 9L17 9L17 10L18 10L18 11L17 11L17 12L16 12L16 13L17 13L17 16L16 16L16 17L18 17L18 18L20 18L20 20L17 20L17 21L16 21L16 20L15 20L15 21L16 21L16 22L15 22L15 23L16 23L16 24L17 24L17 25L22 25L22 26L21 26L21 27L22 27L22 26L24 26L24 27L23 27L23 28L26 28L26 29L23 29L23 30L24 30L24 31L26 31L26 35L25 35L25 33L23 33L23 34L22 34L22 33L21 33L21 32L23 32L23 31L21 31L21 30L20 30L20 29L22 29L22 28L20 28L20 26L19 26L19 29L18 29L18 30L17 30L17 31L19 31L19 32L16 32L16 33L15 33L15 32L14 32L14 33L13 33L13 32L11 32L11 34L10 34L10 35L7 35L7 34L5 34L5 35L4 35L4 36L3 36L3 37L4 37L4 36L5 36L5 35L7 35L7 36L6 36L6 37L7 37L7 38L6 38L6 39L9 39L9 38L10 38L10 39L11 39L11 37L10 37L10 35L13 35L13 36L14 36L14 37L15 37L15 38L13 38L13 37L12 37L12 38L13 38L13 39L14 39L14 40L15 40L15 41L17 41L17 42L18 42L18 41L19 41L19 42L20 42L20 41L19 41L19 40L22 40L22 38L21 38L21 37L19 37L19 36L17 36L17 37L18 37L18 38L17 38L17 40L16 40L16 39L15 39L15 38L16 38L16 37L15 37L15 35L14 35L14 34L16 34L16 33L19 33L19 34L18 34L18 35L19 35L19 34L20 34L20 33L21 33L21 35L20 35L20 36L21 36L21 35L23 35L23 34L24 34L24 36L23 36L23 37L24 37L24 38L23 38L23 39L24 39L24 40L23 40L23 41L24 41L24 40L25 40L25 37L26 37L26 39L27 39L27 40L28 40L28 39L27 39L27 38L28 38L28 37L27 37L27 36L26 36L26 35L27 35L27 32L28 32L28 33L29 33L29 34L30 34L30 36L29 36L29 37L31 37L31 38L29 38L29 39L33 39L33 40L35 40L35 42L37 42L37 43L34 43L34 42L33 42L33 41L32 41L32 40L30 40L30 41L32 41L32 42L33 42L33 43L32 43L32 44L33 44L33 43L34 43L34 45L35 45L35 46L33 46L33 49L34 49L34 47L35 47L35 46L37 46L37 47L36 47L36 48L35 48L35 49L36 49L36 50L38 50L38 51L40 51L40 52L41 52L41 50L38 50L38 49L39 49L39 48L41 48L41 46L43 46L43 45L44 45L44 47L47 47L47 48L48 48L48 47L50 47L50 46L48 46L48 47L47 47L47 46L45 46L45 45L47 45L47 43L48 43L48 42L47 42L47 43L46 43L46 42L44 42L44 40L45 40L45 41L47 41L47 39L48 39L48 38L47 38L47 39L42 39L42 38L43 38L43 37L44 37L44 38L45 38L45 37L44 37L44 36L45 36L45 35L47 35L47 34L45 34L45 35L44 35L44 33L43 33L43 32L41 32L41 33L39 33L39 34L40 34L40 35L39 35L39 36L38 36L38 33L37 33L37 32L34 32L34 31L35 31L35 30L37 30L37 29L38 29L38 28L40 28L40 27L37 27L37 28L36 28L36 26L34 26L34 27L33 27L33 26L32 26L32 24L33 24L33 25L37 25L37 26L38 26L38 25L39 25L39 26L41 26L41 28L42 28L42 26L44 26L44 27L43 27L43 28L45 28L45 26L44 26L44 24L42 24L42 23L41 23L41 22L43 22L43 23L44 23L44 20L45 20L45 18L46 18L46 17L47 17L47 16L48 16L48 15L49 15L49 16L50 16L50 15L49 15L49 14L50 14L50 12L49 12L49 13L47 13L47 14L45 14L45 13L44 13L44 11L45 11L45 12L47 12L47 10L46 10L46 9L45 9L45 10L44 10L44 8L43 8L43 6L42 6L42 7L41 7L41 6L40 6L40 7L41 7L41 10L40 10L40 9L39 9L39 11L37 11L37 10L38 10L38 9L37 9L37 8L35 8L35 5L33 5L33 4ZM17 5L17 6L16 6L16 7L17 7L17 6L18 6L18 7L19 7L19 6L18 6L18 5ZM27 5L27 8L30 8L30 5ZM22 6L22 7L23 7L23 6ZM28 6L28 7L29 7L29 6ZM33 6L33 7L34 7L34 6ZM44 6L44 7L45 7L45 6ZM42 8L42 9L43 9L43 8ZM1 9L1 10L2 10L2 11L3 11L3 10L2 10L2 9ZM12 10L12 11L13 11L13 12L14 12L14 11L13 11L13 10ZM19 10L19 12L20 12L20 14L21 14L21 13L22 13L22 14L24 14L24 13L22 13L22 12L21 12L21 11L22 11L22 10L21 10L21 11L20 11L20 10ZM41 10L41 12L40 12L40 11L39 11L39 13L38 13L38 14L39 14L39 15L41 15L41 16L39 16L39 17L38 17L38 18L37 18L37 17L35 17L35 16L32 16L32 15L31 15L31 14L30 14L30 15L31 15L31 16L32 16L32 17L31 17L31 18L30 18L30 20L31 20L31 19L33 19L33 20L32 20L32 21L31 21L31 22L30 22L30 21L29 21L29 22L30 22L30 23L31 23L31 24L30 24L30 25L31 25L31 24L32 24L32 23L35 23L35 20L34 20L34 19L33 19L33 18L35 18L35 19L36 19L36 20L37 20L37 19L39 19L39 17L41 17L41 16L42 16L42 17L43 17L43 16L42 16L42 15L44 15L44 18L43 18L43 19L42 19L42 18L41 18L41 20L38 20L38 23L37 23L37 24L39 24L39 25L41 25L41 26L42 26L42 25L41 25L41 24L39 24L39 23L40 23L40 22L39 22L39 21L43 21L43 20L44 20L44 18L45 18L45 14L44 14L44 13L43 13L43 11L42 11L42 10ZM45 10L45 11L46 11L46 10ZM51 10L51 11L52 11L52 10ZM17 12L17 13L18 13L18 12ZM52 12L52 13L53 13L53 14L54 14L54 15L55 15L55 14L56 14L56 13L55 13L55 12L54 12L54 13L53 13L53 12ZM41 13L41 14L43 14L43 13ZM54 13L54 14L55 14L55 13ZM6 14L6 15L7 15L7 14ZM18 14L18 15L19 15L19 14ZM11 15L11 16L12 16L12 15ZM20 15L20 16L19 16L19 17L20 17L20 18L21 18L21 20L20 20L20 21L19 21L19 22L20 22L20 23L19 23L19 24L22 24L22 25L23 25L23 23L24 23L24 24L25 24L25 23L26 23L26 22L25 22L25 21L24 21L24 20L22 20L22 19L24 19L24 18L22 18L22 17L25 17L25 16L24 16L24 15ZM20 16L20 17L22 17L22 16ZM6 17L6 18L7 18L7 17ZM32 17L32 18L33 18L33 17ZM3 18L3 20L4 20L4 18ZM15 18L15 19L16 19L16 18ZM13 19L13 20L14 20L14 19ZM5 20L5 21L7 21L7 20ZM8 20L8 21L10 21L10 20ZM33 20L33 21L34 21L34 20ZM46 20L46 21L45 21L45 22L46 22L46 23L47 23L47 22L46 22L46 21L47 21L47 20ZM13 21L13 22L14 22L14 21ZM22 21L22 23L23 23L23 22L24 22L24 21ZM17 23L17 24L18 24L18 23ZM25 26L25 27L26 27L26 26ZM31 26L31 28L32 28L32 30L31 30L31 31L30 31L30 32L29 32L29 31L28 31L28 32L29 32L29 33L31 33L31 32L32 32L32 33L33 33L33 32L32 32L32 30L35 30L35 28L33 28L33 27L32 27L32 26ZM53 26L53 27L54 27L54 26ZM5 27L5 30L8 30L8 27ZM27 27L27 30L30 30L30 27ZM49 27L49 30L52 30L52 27ZM6 28L6 29L7 29L7 28ZM28 28L28 29L29 29L29 28ZM50 28L50 29L51 29L51 28ZM54 28L54 29L55 29L55 28ZM39 29L39 30L38 30L38 32L39 32L39 30L40 30L40 29ZM11 30L11 31L12 31L12 30ZM13 30L13 31L14 31L14 30ZM44 30L44 31L45 31L45 30ZM1 31L1 33L2 33L2 31ZM9 31L9 33L10 33L10 31ZM47 31L47 32L48 32L48 33L49 33L49 32L48 32L48 31ZM52 32L52 33L53 33L53 32ZM55 32L55 33L56 33L56 32ZM12 33L12 34L13 34L13 33ZM34 33L34 34L31 34L31 35L34 35L34 34L35 34L35 36L37 36L37 34L35 34L35 33ZM42 34L42 35L41 35L41 36L40 36L40 37L38 37L38 39L35 39L35 40L38 40L38 42L39 42L39 43L40 43L40 44L39 44L39 45L38 45L38 46L39 46L39 47L38 47L38 48L37 48L37 49L38 49L38 48L39 48L39 47L40 47L40 46L39 46L39 45L41 45L41 44L42 44L42 42L40 42L40 41L43 41L43 40L42 40L42 39L41 39L41 38L40 38L40 37L41 37L41 36L42 36L42 37L43 37L43 36L44 36L44 35L43 35L43 34ZM49 34L49 35L50 35L50 36L49 36L49 38L50 38L50 37L51 37L51 36L52 36L52 35L53 35L53 34L52 34L52 35L50 35L50 34ZM7 36L7 37L8 37L8 38L9 38L9 36ZM32 36L32 37L33 37L33 38L35 38L35 37L33 37L33 36ZM54 37L54 38L55 38L55 37ZM19 38L19 39L18 39L18 40L19 40L19 39L20 39L20 38ZM38 39L38 40L40 40L40 39ZM21 41L21 42L22 42L22 41ZM26 41L26 42L27 42L27 41ZM51 42L51 43L50 43L50 44L49 44L49 45L51 45L51 43L53 43L53 42ZM43 43L43 44L44 44L44 45L45 45L45 44L46 44L46 43L45 43L45 44L44 44L44 43ZM20 44L20 45L21 45L21 44ZM24 44L24 45L25 45L25 46L24 46L24 47L25 47L25 48L24 48L24 49L25 49L25 48L27 48L27 47L28 47L28 48L29 48L29 47L28 47L28 46L30 46L30 45L28 45L28 44ZM26 45L26 47L27 47L27 46L28 46L28 45ZM42 47L42 48L43 48L43 49L44 49L44 48L43 48L43 47ZM45 48L45 49L46 49L46 48ZM9 49L9 51L10 51L10 49ZM11 49L11 50L12 50L12 49ZM20 49L20 50L19 50L19 51L16 51L16 53L17 53L17 52L19 52L19 51L20 51L20 50L21 50L21 49ZM27 49L27 52L30 52L30 49ZM49 49L49 52L52 52L52 49ZM22 50L22 51L21 51L21 52L22 52L22 53L24 53L24 52L26 52L26 51L25 51L25 50ZM28 50L28 51L29 51L29 50ZM50 50L50 51L51 51L51 50ZM53 52L53 54L54 54L54 52ZM33 53L33 54L35 54L35 56L36 56L36 54L35 54L35 53ZM41 54L41 55L42 55L42 54ZM37 55L37 56L39 56L39 55ZM50 55L50 56L51 56L51 55ZM43 56L43 57L44 57L44 56ZM45 56L45 57L46 57L46 56ZM0 0L0 7L7 7L7 0ZM1 1L1 6L6 6L6 1ZM2 2L2 5L5 5L5 2ZM50 0L50 7L57 7L57 0ZM51 1L51 6L56 6L56 1ZM52 2L52 5L55 5L55 2ZM0 50L0 57L7 57L7 50ZM1 51L1 56L6 56L6 51ZM2 52L2 55L5 55L5 52Z" fill="#000000"/></g></g></svg>
