<?xml version="1.0" encoding="UTF-8"?>
<svg xmlns="http://www.w3.org/2000/svg" version="1.1" width="300" height="300" viewBox="0 0 300 300"><rect x="0" y="0" width="300" height="300" fill="#fefefe"/><g transform="scale(4.615)"><g transform="translate(4,4)"><path fill-rule="evenodd" d="M8 0L8 4L10 4L10 7L9 7L9 5L8 5L8 7L9 7L9 9L7 9L7 8L4 8L4 9L2 9L2 8L0 8L0 9L2 9L2 10L0 10L0 12L2 12L2 13L3 13L3 12L4 12L4 11L7 11L7 12L5 12L5 16L4 16L4 15L2 15L2 14L1 14L1 13L0 13L0 15L2 15L2 16L0 16L0 18L2 18L2 21L4 21L4 22L5 22L5 21L4 21L4 19L3 19L3 16L4 16L4 17L5 17L5 19L7 19L7 20L6 20L6 21L7 21L7 20L8 20L8 21L9 21L9 20L8 20L8 19L10 19L10 23L9 23L9 22L6 22L6 23L5 23L5 24L4 24L4 25L2 25L2 26L1 26L1 25L0 25L0 26L1 26L1 28L0 28L0 30L1 30L1 31L0 31L0 33L1 33L1 31L2 31L2 32L3 32L3 33L2 33L2 34L1 34L1 35L2 35L2 36L1 36L1 38L0 38L0 40L1 40L1 42L0 42L0 43L1 43L1 44L2 44L2 47L1 47L1 45L0 45L0 48L5 48L5 47L7 47L7 48L6 48L6 49L8 49L8 50L9 50L9 51L8 51L8 53L9 53L9 55L8 55L8 57L9 57L9 56L12 56L12 52L13 52L13 54L14 54L14 52L17 52L17 53L15 53L15 55L16 55L16 54L17 54L17 55L20 55L20 54L21 54L21 57L22 57L22 54L23 54L23 55L24 55L24 57L25 57L25 56L26 56L26 57L27 57L27 56L26 56L26 55L27 55L27 53L28 53L28 57L29 57L29 55L30 55L30 57L34 57L34 55L35 55L35 57L37 57L37 56L36 56L36 54L37 54L37 55L40 55L40 54L41 54L41 55L42 55L42 56L43 56L43 55L44 55L44 53L45 53L45 56L44 56L44 57L45 57L45 56L46 56L46 57L47 57L47 56L48 56L48 57L50 57L50 55L51 55L51 56L53 56L53 55L55 55L55 54L57 54L57 53L56 53L56 52L57 52L57 51L56 51L56 45L57 45L57 44L56 44L56 45L55 45L55 48L53 48L53 47L54 47L54 46L53 46L53 47L52 47L52 44L53 44L53 45L54 45L54 44L53 44L53 43L54 43L54 42L55 42L55 43L56 43L56 41L57 41L57 40L52 40L52 41L51 41L51 43L50 43L50 42L49 42L49 41L48 41L48 43L47 43L47 44L46 44L46 45L45 45L45 44L44 44L44 43L45 43L45 42L46 42L46 39L47 39L47 40L51 40L51 39L54 39L54 38L55 38L55 39L57 39L57 38L55 38L55 36L56 36L56 34L57 34L57 33L56 33L56 30L55 30L55 29L56 29L56 28L57 28L57 27L56 27L56 26L55 26L55 24L56 24L56 25L57 25L57 24L56 24L56 21L57 21L57 20L56 20L56 19L55 19L55 20L56 20L56 21L55 21L55 22L53 22L53 21L52 21L52 20L53 20L53 19L52 19L52 18L53 18L53 17L55 17L55 16L56 16L56 17L57 17L57 15L56 15L56 12L55 12L55 13L54 13L54 12L53 12L53 13L52 13L52 14L51 14L51 12L52 12L52 11L51 11L51 9L52 9L52 10L53 10L53 11L54 11L54 10L53 10L53 9L56 9L56 10L55 10L55 11L56 11L56 10L57 10L57 8L53 8L53 9L52 9L52 8L51 8L51 9L49 9L49 6L48 6L48 7L47 7L47 5L48 5L48 0L41 0L41 1L40 1L40 2L39 2L39 3L38 3L38 5L36 5L36 4L35 4L35 5L34 5L34 4L33 4L33 5L32 5L32 3L34 3L34 2L36 2L36 3L37 3L37 2L38 2L38 1L39 1L39 0L38 0L38 1L37 1L37 2L36 2L36 0L35 0L35 1L34 1L34 0L29 0L29 1L30 1L30 2L28 2L28 0L23 0L23 3L22 3L22 1L21 1L21 0L20 0L20 2L19 2L19 0L17 0L17 1L16 1L16 0L14 0L14 1L13 1L13 0L12 0L12 1L11 1L11 0L10 0L10 1L11 1L11 2L10 2L10 3L9 3L9 0ZM12 1L12 2L13 2L13 1ZM14 1L14 4L15 4L15 5L14 5L14 6L13 6L13 7L14 7L14 6L15 6L15 7L16 7L16 6L17 6L17 8L19 8L19 7L20 7L20 6L21 6L21 7L22 7L22 9L21 9L21 11L20 11L20 9L19 9L19 10L18 10L18 9L16 9L16 8L15 8L15 9L16 9L16 11L15 11L15 12L14 12L14 11L13 11L13 10L11 10L11 8L12 8L12 6L11 6L11 8L10 8L10 10L9 10L9 12L8 12L8 14L7 14L7 13L6 13L6 14L7 14L7 15L6 15L6 16L5 16L5 17L6 17L6 18L7 18L7 19L8 19L8 18L9 18L9 16L10 16L10 17L11 17L11 16L12 16L12 18L13 18L13 19L14 19L14 20L15 20L15 21L17 21L17 22L16 22L16 23L13 23L13 22L14 22L14 21L11 21L11 22L12 22L12 24L11 24L11 23L10 23L10 24L9 24L9 23L6 23L6 24L5 24L5 25L4 25L4 26L8 26L8 25L6 25L6 24L9 24L9 25L10 25L10 26L11 26L11 25L12 25L12 27L11 27L11 28L10 28L10 27L9 27L9 28L10 28L10 30L11 30L11 31L4 31L4 33L5 33L5 32L7 32L7 33L6 33L6 34L7 34L7 35L5 35L5 36L2 36L2 37L4 37L4 38L1 38L1 39L2 39L2 41L3 41L3 42L1 42L1 43L3 43L3 42L4 42L4 44L3 44L3 45L4 45L4 46L3 46L3 47L5 47L5 45L6 45L6 46L7 46L7 47L8 47L8 48L9 48L9 47L8 47L8 45L6 45L6 44L8 44L8 43L10 43L10 44L11 44L11 43L12 43L12 44L14 44L14 45L13 45L13 46L14 46L14 47L15 47L15 44L17 44L17 45L16 45L16 48L13 48L13 47L12 47L12 49L11 49L11 46L12 46L12 45L11 45L11 46L10 46L10 45L9 45L9 46L10 46L10 49L9 49L9 50L10 50L10 51L9 51L9 53L10 53L10 54L11 54L11 53L10 53L10 51L11 51L11 52L12 52L12 51L15 51L15 49L16 49L16 51L17 51L17 52L18 52L18 51L17 51L17 50L20 50L20 48L19 48L19 47L20 47L20 45L21 45L21 46L22 46L22 47L21 47L21 48L22 48L22 49L21 49L21 51L22 51L22 49L23 49L23 48L22 48L22 47L23 47L23 45L21 45L21 44L20 44L20 41L21 41L21 40L22 40L22 42L21 42L21 43L22 43L22 44L23 44L23 41L25 41L25 40L27 40L27 41L26 41L26 42L25 42L25 43L27 43L27 45L26 45L26 46L25 46L25 48L24 48L24 49L26 49L26 48L27 48L27 47L26 47L26 46L27 46L27 45L28 45L28 47L30 47L30 48L31 48L31 49L32 49L32 48L34 48L34 51L35 51L35 52L36 52L36 49L35 49L35 47L36 47L36 48L37 48L37 46L38 46L38 45L39 45L39 47L38 47L38 49L37 49L37 51L38 51L38 52L37 52L37 53L38 53L38 52L40 52L40 53L41 53L41 52L42 52L42 53L44 53L44 52L43 52L43 50L44 50L44 51L45 51L45 49L46 49L46 50L47 50L47 49L48 49L48 47L51 47L51 48L52 48L52 47L51 47L51 46L49 46L49 45L50 45L50 43L49 43L49 45L48 45L48 44L47 44L47 45L46 45L46 47L45 47L45 49L44 49L44 47L42 47L42 49L43 49L43 50L42 50L42 51L41 51L41 46L40 46L40 45L41 45L41 44L40 44L40 43L41 43L41 42L40 42L40 41L43 41L43 42L42 42L42 44L43 44L43 46L44 46L44 44L43 44L43 43L44 43L44 41L43 41L43 40L40 40L40 41L39 41L39 42L40 42L40 43L39 43L39 44L37 44L37 43L33 43L33 41L32 41L32 40L33 40L33 39L34 39L34 42L35 42L35 39L37 39L37 42L38 42L38 39L40 39L40 38L38 38L38 37L41 37L41 35L42 35L42 36L43 36L43 37L44 37L44 38L43 38L43 39L46 39L46 38L47 38L47 39L48 39L48 37L49 37L49 39L51 39L51 38L50 38L50 37L51 37L51 36L50 36L50 35L53 35L53 36L52 36L52 38L53 38L53 36L55 36L55 35L53 35L53 34L54 34L54 32L55 32L55 31L53 31L53 33L51 33L51 32L52 32L52 31L51 31L51 32L50 32L50 35L49 35L49 36L48 36L48 35L47 35L47 34L49 34L49 33L48 33L48 31L47 31L47 30L48 30L48 27L46 27L46 26L47 26L47 21L51 21L51 22L52 22L52 23L53 23L53 24L52 24L52 25L51 25L51 23L50 23L50 22L49 22L49 24L50 24L50 25L51 25L51 26L52 26L52 25L53 25L53 24L55 24L55 23L53 23L53 22L52 22L52 21L51 21L51 20L47 20L47 21L46 21L46 20L45 20L45 21L46 21L46 23L45 23L45 22L44 22L44 16L46 16L46 18L45 18L45 19L47 19L47 16L48 16L48 15L50 15L50 16L51 16L51 15L50 15L50 11L48 11L48 10L47 10L47 9L46 9L46 6L45 6L45 9L46 9L46 15L45 15L45 14L43 14L43 15L42 15L42 17L43 17L43 18L42 18L42 19L41 19L41 18L40 18L40 17L41 17L41 15L40 15L40 17L39 17L39 15L38 15L38 13L40 13L40 14L41 14L41 13L44 13L44 12L45 12L45 11L43 11L43 12L41 12L41 11L40 11L40 10L39 10L39 12L37 12L37 14L36 14L36 13L35 13L35 12L34 12L34 10L36 10L36 11L38 11L38 9L39 9L39 8L38 8L38 9L35 9L35 7L36 7L36 5L35 5L35 7L34 7L34 6L33 6L33 7L32 7L32 6L31 6L31 11L32 11L32 8L33 8L33 9L34 9L34 10L33 10L33 13L34 13L34 18L32 18L32 15L30 15L30 13L31 13L31 14L32 14L32 12L29 12L29 11L28 11L28 10L29 10L29 9L26 9L26 6L25 6L25 7L24 7L24 6L23 6L23 7L22 7L22 3L19 3L19 2L18 2L18 1L17 1L17 2L15 2L15 1ZM25 1L25 3L23 3L23 5L24 5L24 4L25 4L25 3L26 3L26 4L28 4L28 2L27 2L27 1ZM31 1L31 3L32 3L32 2L34 2L34 1ZM45 1L45 2L47 2L47 1ZM40 2L40 3L39 3L39 4L40 4L40 3L41 3L41 4L43 4L43 8L40 8L40 9L43 9L43 10L44 10L44 4L45 4L45 5L47 5L47 3L44 3L44 2L43 2L43 3L42 3L42 2ZM12 3L12 4L11 4L11 5L12 5L12 4L13 4L13 3ZM16 3L16 4L17 4L17 3ZM43 3L43 4L44 4L44 3ZM18 4L18 5L17 5L17 6L18 6L18 7L19 7L19 6L20 6L20 5L19 5L19 4ZM15 5L15 6L16 6L16 5ZM18 5L18 6L19 6L19 5ZM27 5L27 8L30 8L30 5ZM39 5L39 7L40 7L40 6L41 6L41 7L42 7L42 5ZM28 6L28 7L29 7L29 6ZM37 6L37 7L38 7L38 6ZM23 7L23 8L24 8L24 7ZM33 7L33 8L34 8L34 7ZM13 8L13 9L14 9L14 8ZM4 9L4 10L3 10L3 11L4 11L4 10L7 10L7 11L8 11L8 10L7 10L7 9ZM23 9L23 11L24 11L24 12L22 12L22 11L21 11L21 13L20 13L20 12L18 12L18 13L17 13L17 11L18 11L18 10L17 10L17 11L16 11L16 12L15 12L15 13L13 13L13 11L11 11L11 10L10 10L10 12L9 12L9 14L10 14L10 12L12 12L12 13L11 13L11 15L12 15L12 16L14 16L14 18L15 18L15 20L16 20L16 19L17 19L17 21L19 21L19 23L20 23L20 22L21 22L21 25L19 25L19 24L18 24L18 23L17 23L17 25L18 25L18 27L17 27L17 28L16 28L16 24L15 24L15 29L14 29L14 31L13 31L13 33L12 33L12 34L11 34L11 37L9 37L9 35L10 35L10 33L11 33L11 32L12 32L12 31L11 31L11 32L10 32L10 33L9 33L9 32L8 32L8 34L9 34L9 35L8 35L8 37L7 37L7 36L5 36L5 37L7 37L7 38L6 38L6 39L5 39L5 40L6 40L6 41L7 41L7 42L5 42L5 41L4 41L4 39L3 39L3 41L4 41L4 42L5 42L5 43L8 43L8 39L7 39L7 38L9 38L9 42L11 42L11 40L12 40L12 42L13 42L13 43L14 43L14 44L15 44L15 43L16 43L16 41L20 41L20 40L21 40L21 38L22 38L22 35L23 35L23 37L24 37L24 38L25 38L25 39L27 39L27 40L29 40L29 42L31 42L31 43L29 43L29 45L30 45L30 46L31 46L31 45L32 45L32 46L33 46L33 47L34 47L34 45L36 45L36 46L37 46L37 44L33 44L33 43L32 43L32 41L31 41L31 39L33 39L33 38L31 38L31 39L29 39L29 38L28 38L28 39L27 39L27 37L28 37L28 36L29 36L29 37L31 37L31 36L32 36L32 37L33 37L33 35L34 35L34 33L35 33L35 36L34 36L34 37L35 37L35 38L37 38L37 36L38 36L38 34L39 34L39 33L40 33L40 34L42 34L42 35L43 35L43 33L45 33L45 35L44 35L44 37L45 37L45 38L46 38L46 36L45 36L45 35L46 35L46 33L47 33L47 31L46 31L46 30L45 30L45 27L43 27L43 23L44 23L44 22L43 22L43 20L42 20L42 21L40 21L40 18L39 18L39 17L38 17L38 16L37 16L37 15L35 15L35 17L38 17L38 18L39 18L39 19L37 19L37 18L34 18L34 20L33 20L33 19L31 19L31 16L29 16L29 13L26 13L26 11L27 11L27 12L28 12L28 11L27 11L27 10L25 10L25 9ZM15 13L15 14L17 14L17 15L20 15L20 13L19 13L19 14L17 14L17 13ZM21 13L21 14L22 14L22 15L21 15L21 17L25 17L25 18L24 18L24 19L23 19L23 20L22 20L22 25L21 25L21 26L22 26L22 25L24 25L24 23L23 23L23 21L24 21L24 22L25 22L25 23L26 23L26 22L27 22L27 23L28 23L28 25L27 25L27 26L28 26L28 25L29 25L29 26L30 26L30 25L31 25L31 32L30 32L30 31L29 31L29 33L28 33L28 34L27 34L27 33L26 33L26 34L24 34L24 36L25 36L25 37L27 37L27 36L28 36L28 34L29 34L29 33L31 33L31 34L30 34L30 36L31 36L31 35L32 35L32 34L33 34L33 33L34 33L34 31L35 31L35 30L37 30L37 32L38 32L38 30L37 30L37 29L38 29L38 28L37 28L37 27L39 27L39 28L40 28L40 29L39 29L39 32L40 32L40 33L41 33L41 32L40 32L40 30L41 30L41 29L43 29L43 31L45 31L45 32L46 32L46 31L45 31L45 30L44 30L44 29L43 29L43 28L42 28L42 27L41 27L41 28L40 28L40 26L41 26L41 25L42 25L42 23L43 23L43 22L42 22L42 23L41 23L41 22L40 22L40 21L39 21L39 20L37 20L37 22L35 22L35 21L34 21L34 22L35 22L35 23L34 23L34 24L33 24L33 25L34 25L34 26L33 26L33 27L32 27L32 23L33 23L33 22L31 22L31 23L30 23L30 21L29 21L29 20L28 20L28 19L30 19L30 18L28 18L28 17L27 17L27 15L28 15L28 14L26 14L26 13L25 13L25 15L24 15L24 14L23 14L23 13ZM47 13L47 14L49 14L49 13ZM53 13L53 14L52 14L52 15L53 15L53 16L52 16L52 17L51 17L51 18L50 18L50 17L49 17L49 19L51 19L51 18L52 18L52 17L53 17L53 16L55 16L55 15L53 15L53 14L54 14L54 13ZM12 14L12 15L13 15L13 14ZM7 15L7 16L6 16L6 17L7 17L7 16L9 16L9 15ZM14 15L14 16L15 16L15 17L16 17L16 18L17 18L17 16L15 16L15 15ZM22 15L22 16L24 16L24 15ZM25 15L25 17L26 17L26 18L25 18L25 20L24 20L24 21L27 21L27 22L28 22L28 23L29 23L29 21L28 21L28 20L26 20L26 18L27 18L27 17L26 17L26 15ZM43 15L43 16L44 16L44 15ZM46 15L46 16L47 16L47 15ZM19 17L19 19L18 19L18 20L19 20L19 21L20 21L20 20L21 20L21 19L22 19L22 18L20 18L20 17ZM10 18L10 19L11 19L11 18ZM0 19L0 21L1 21L1 19ZM19 19L19 20L20 20L20 19ZM35 19L35 20L36 20L36 19ZM31 20L31 21L32 21L32 20ZM38 21L38 22L37 22L37 23L38 23L38 26L40 26L40 24L39 24L39 23L38 23L38 22L39 22L39 21ZM1 22L1 23L0 23L0 24L3 24L3 22ZM29 24L29 25L30 25L30 24ZM34 24L34 25L37 25L37 24ZM44 24L44 25L45 25L45 26L46 26L46 25L45 25L45 24ZM25 25L25 26L23 26L23 28L22 28L22 27L20 27L20 28L21 28L21 29L22 29L22 30L20 30L20 29L19 29L19 28L18 28L18 29L15 29L15 30L16 30L16 32L15 32L15 31L14 31L14 32L15 32L15 33L14 33L14 34L12 34L12 35L15 35L15 36L16 36L16 37L15 37L15 38L14 38L14 36L12 36L12 37L11 37L11 38L10 38L10 40L11 40L11 39L14 39L14 40L13 40L13 41L14 41L14 42L15 42L15 39L16 39L16 38L18 38L18 39L20 39L20 38L21 38L21 37L17 37L17 35L18 35L18 36L20 36L20 34L19 34L19 33L21 33L21 34L23 34L23 33L25 33L25 32L26 32L26 31L25 31L25 30L26 30L26 29L25 29L25 30L23 30L23 28L24 28L24 27L26 27L26 25ZM2 26L2 28L3 28L3 26ZM36 26L36 27L37 27L37 26ZM54 26L54 27L53 27L53 28L54 28L54 29L53 29L53 30L54 30L54 29L55 29L55 26ZM5 27L5 30L8 30L8 27ZM12 27L12 30L13 30L13 27ZM27 27L27 30L30 30L30 27ZM33 27L33 28L32 28L32 29L33 29L33 31L32 31L32 33L33 33L33 31L34 31L34 27ZM49 27L49 30L52 30L52 27ZM6 28L6 29L7 29L7 28ZM28 28L28 29L29 29L29 28ZM35 28L35 29L37 29L37 28ZM46 28L46 29L47 29L47 28ZM50 28L50 29L51 29L51 28ZM1 29L1 30L2 30L2 31L3 31L3 30L4 30L4 29L3 29L3 30L2 30L2 29ZM18 29L18 30L17 30L17 31L19 31L19 32L18 32L18 33L17 33L17 32L16 32L16 33L15 33L15 34L16 34L16 35L17 35L17 34L18 34L18 33L19 33L19 32L21 32L21 33L22 33L22 31L23 31L23 32L25 32L25 31L23 31L23 30L22 30L22 31L19 31L19 29ZM27 31L27 32L28 32L28 31ZM16 33L16 34L17 34L17 33ZM37 33L37 34L38 34L38 33ZM55 33L55 34L56 34L56 33ZM2 34L2 35L4 35L4 34ZM26 34L26 35L25 35L25 36L27 36L27 34ZM39 35L39 36L40 36L40 35ZM41 38L41 39L42 39L42 38ZM6 39L6 40L7 40L7 39ZM22 39L22 40L24 40L24 39ZM27 41L27 43L28 43L28 41ZM52 41L52 43L51 43L51 44L52 44L52 43L53 43L53 41ZM17 42L17 43L18 43L18 42ZM18 44L18 45L17 45L17 46L19 46L19 45L20 45L20 44ZM24 44L24 45L25 45L25 44ZM39 44L39 45L40 45L40 44ZM47 46L47 47L46 47L46 48L47 48L47 47L48 47L48 46ZM17 47L17 48L16 48L16 49L19 49L19 48L18 48L18 47ZM39 47L39 49L38 49L38 51L40 51L40 47ZM10 49L10 50L11 50L11 51L12 51L12 50L14 50L14 49L12 49L12 50L11 50L11 49ZM27 49L27 52L30 52L30 49ZM49 49L49 52L52 52L52 49ZM28 50L28 51L29 51L29 50ZM32 50L32 51L31 51L31 52L32 52L32 51L33 51L33 50ZM50 50L50 51L51 51L51 50ZM53 50L53 54L55 54L55 53L54 53L54 52L56 52L56 51L54 51L54 50ZM19 51L19 53L20 53L20 51ZM25 51L25 53L24 53L24 52L22 52L22 53L21 53L21 54L22 54L22 53L24 53L24 54L26 54L26 51ZM46 51L46 52L45 52L45 53L46 53L46 56L47 56L47 55L49 55L49 54L51 54L51 55L52 55L52 54L51 54L51 53L49 53L49 54L47 54L47 53L48 53L48 52L47 52L47 51ZM33 52L33 53L32 53L32 54L33 54L33 55L34 55L34 54L35 54L35 53L34 53L34 52ZM46 52L46 53L47 53L47 52ZM30 53L30 54L31 54L31 53ZM33 53L33 54L34 54L34 53ZM42 54L42 55L43 55L43 54ZM14 56L14 57L15 57L15 56ZM17 56L17 57L20 57L20 56ZM39 56L39 57L40 57L40 56ZM56 56L56 57L57 57L57 56ZM0 0L0 7L7 7L7 0ZM1 1L1 6L6 6L6 1ZM2 2L2 5L5 5L5 2ZM50 0L50 7L57 7L57 0ZM51 1L51 6L56 6L56 1ZM52 2L52 5L55 5L55 2ZM0 50L0 57L7 57L7 50ZM1 51L1 56L6 56L6 51ZM2 52L2 55L5 55L5 52Z" fill="#000000"/></g></g></svg>
