<?xml version="1.0" encoding="UTF-8"?>
<svg xmlns="http://www.w3.org/2000/svg" version="1.1" width="300" height="300" viewBox="0 0 300 300"><rect x="0" y="0" width="300" height="300" fill="#fefefe"/><g transform="scale(4.615)"><g transform="translate(4,4)"><path fill-rule="evenodd" d="M9 0L9 1L8 1L8 3L9 3L9 4L8 4L8 8L6 8L6 9L7 9L7 10L5 10L5 9L4 9L4 8L3 8L3 9L2 9L2 8L0 8L0 9L2 9L2 10L1 10L1 11L0 11L0 13L1 13L1 11L2 11L2 13L3 13L3 14L2 14L2 15L1 15L1 14L0 14L0 15L1 15L1 16L0 16L0 17L1 17L1 18L0 18L0 19L2 19L2 20L0 20L0 21L1 21L1 22L0 22L0 28L1 28L1 29L2 29L2 30L3 30L3 31L1 31L1 30L0 30L0 31L1 31L1 32L0 32L0 33L1 33L1 32L2 32L2 33L3 33L3 34L5 34L5 35L3 35L3 36L2 36L2 35L0 35L0 41L1 41L1 43L4 43L4 44L3 44L3 45L4 45L4 44L6 44L6 45L5 45L5 47L3 47L3 46L2 46L2 44L1 44L1 46L0 46L0 48L5 48L5 47L7 47L7 46L6 46L6 45L7 45L7 44L6 44L6 43L9 43L9 44L8 44L8 46L10 46L10 48L11 48L11 52L9 52L9 53L8 53L8 54L9 54L9 55L8 55L8 57L12 57L12 54L11 54L11 53L13 53L13 54L14 54L14 55L13 55L13 56L15 56L15 53L14 53L14 52L15 52L15 51L14 51L14 48L15 48L15 49L16 49L16 50L17 50L17 49L19 49L19 50L18 50L18 52L17 52L17 53L16 53L16 54L17 54L17 53L18 53L18 54L19 54L19 55L17 55L17 56L16 56L16 57L17 57L17 56L18 56L18 57L19 57L19 55L21 55L21 56L20 56L20 57L23 57L23 56L22 56L22 54L26 54L26 53L27 53L27 55L26 55L26 56L25 56L25 55L24 55L24 57L26 57L26 56L27 56L27 55L28 55L28 56L29 56L29 57L31 57L31 56L33 56L33 57L35 57L35 56L36 56L36 57L41 57L41 56L40 56L40 55L39 55L39 56L36 56L36 55L38 55L38 54L39 54L39 53L40 53L40 54L42 54L42 57L44 57L44 55L46 55L46 57L47 57L47 55L48 55L48 57L49 57L49 56L50 56L50 57L51 57L51 56L52 56L52 57L54 57L54 56L53 56L53 54L54 54L54 55L55 55L55 54L56 54L56 55L57 55L57 51L56 51L56 50L55 50L55 52L54 52L54 53L53 53L53 48L54 48L54 49L55 49L55 48L54 48L54 47L55 47L55 46L56 46L56 48L57 48L57 44L56 44L56 43L57 43L57 40L56 40L56 39L57 39L57 37L55 37L55 36L57 36L57 32L56 32L56 31L57 31L57 30L55 30L55 32L53 32L53 31L54 31L54 30L53 30L53 29L54 29L54 28L53 28L53 27L55 27L55 29L57 29L57 27L56 27L56 26L57 26L57 20L55 20L55 21L54 21L54 20L53 20L53 19L57 19L57 18L55 18L55 16L53 16L53 17L52 17L52 16L49 16L49 14L50 14L50 15L51 15L51 14L52 14L52 13L54 13L54 11L55 11L55 10L56 10L56 12L55 12L55 13L56 13L56 14L54 14L54 15L56 15L56 17L57 17L57 15L56 15L56 14L57 14L57 13L56 13L56 12L57 12L57 10L56 10L56 8L54 8L54 9L53 9L53 8L50 8L50 9L51 9L51 10L52 10L52 11L51 11L51 12L50 12L50 10L49 10L49 14L48 14L48 17L47 17L47 18L46 18L46 19L44 19L44 20L43 20L43 18L42 18L42 14L41 14L41 15L39 15L39 14L40 14L40 13L41 13L41 10L40 10L40 9L43 9L43 10L42 10L42 12L43 12L43 15L44 15L44 13L46 13L46 14L47 14L47 10L46 10L46 9L47 9L47 5L48 5L48 0L46 0L46 1L45 1L45 0L44 0L44 1L45 1L45 2L44 2L44 3L45 3L45 2L46 2L46 3L47 3L47 5L45 5L45 4L44 4L44 7L43 7L43 3L42 3L42 2L41 2L41 4L39 4L39 2L40 2L40 1L43 1L43 0L40 0L40 1L39 1L39 0L37 0L37 1L36 1L36 0L32 0L32 3L35 3L35 2L34 2L34 1L36 1L36 2L37 2L37 1L38 1L38 3L37 3L37 4L38 4L38 5L37 5L37 6L36 6L36 7L35 7L35 5L36 5L36 4L35 4L35 5L34 5L34 7L33 7L33 5L32 5L32 4L28 4L28 2L27 2L27 0L22 0L22 2L21 2L21 0L18 0L18 1L17 1L17 0L11 0L11 1L12 1L12 2L13 2L13 3L14 3L14 2L15 2L15 3L16 3L16 2L17 2L17 3L18 3L18 2L19 2L19 1L20 1L20 3L19 3L19 4L17 4L17 6L16 6L16 7L15 7L15 6L14 6L14 5L15 5L15 4L13 4L13 6L12 6L12 7L11 7L11 3L10 3L10 0ZM28 0L28 1L29 1L29 2L31 2L31 0ZM13 1L13 2L14 2L14 1ZM15 1L15 2L16 2L16 1ZM23 1L23 2L24 2L24 3L22 3L22 4L23 4L23 5L24 5L24 6L23 6L23 7L22 7L22 6L21 6L21 3L20 3L20 4L19 4L19 5L20 5L20 6L19 6L19 7L20 7L20 6L21 6L21 7L22 7L22 8L23 8L23 7L24 7L24 9L23 9L23 12L22 12L22 13L23 13L23 14L21 14L21 13L20 13L20 14L19 14L19 13L18 13L18 12L19 12L19 11L18 11L18 10L21 10L21 8L19 8L19 9L18 9L18 6L17 6L17 8L16 8L16 9L15 9L15 7L14 7L14 6L13 6L13 7L12 7L12 8L11 8L11 7L10 7L10 6L9 6L9 8L8 8L8 9L9 9L9 8L10 8L10 10L9 10L9 11L10 11L10 10L11 10L11 11L12 11L12 12L10 12L10 13L9 13L9 12L8 12L8 13L6 13L6 14L8 14L8 13L9 13L9 14L11 14L11 16L10 16L10 17L11 17L11 18L9 18L9 17L8 17L8 16L7 16L7 15L5 15L5 16L4 16L4 17L3 17L3 15L2 15L2 18L3 18L3 20L2 20L2 21L5 21L5 22L7 22L7 21L9 21L9 20L10 20L10 21L12 21L12 22L11 22L11 23L12 23L12 24L11 24L11 25L10 25L10 24L7 24L7 23L5 23L5 24L7 24L7 25L6 25L6 26L9 26L9 28L10 28L10 29L9 29L9 30L11 30L11 28L12 28L12 29L13 29L13 30L12 30L12 32L14 32L14 31L16 31L16 33L15 33L15 36L14 36L14 35L13 35L13 33L12 33L12 34L11 34L11 31L10 31L10 33L8 33L8 34L9 34L9 35L8 35L8 36L7 36L7 35L5 35L5 36L3 36L3 37L1 37L1 38L3 38L3 40L2 40L2 39L1 39L1 40L2 40L2 41L3 41L3 42L4 42L4 43L5 43L5 42L4 42L4 41L3 41L3 40L7 40L7 41L6 41L6 42L7 42L7 41L8 41L8 42L10 42L10 41L9 41L9 40L10 40L10 39L9 39L9 38L12 38L12 39L13 39L13 40L11 40L11 43L10 43L10 45L11 45L11 48L12 48L12 52L14 52L14 51L13 51L13 47L14 47L14 46L15 46L15 48L18 48L18 47L20 47L20 48L23 48L23 47L24 47L24 49L22 49L22 50L21 50L21 49L20 49L20 50L21 50L21 52L22 52L22 53L24 53L24 52L23 52L23 50L24 50L24 51L26 51L26 50L25 50L25 49L26 49L26 48L25 48L25 47L24 47L24 46L25 46L25 45L27 45L27 46L26 46L26 47L27 47L27 46L28 46L28 47L29 47L29 46L30 46L30 45L29 45L29 44L31 44L31 46L33 46L33 47L30 47L30 48L31 48L31 49L32 49L32 50L31 50L31 51L33 51L33 52L36 52L36 51L37 51L37 53L36 53L36 54L35 54L35 53L32 53L32 55L33 55L33 54L35 54L35 55L34 55L34 56L35 56L35 55L36 55L36 54L37 54L37 53L38 53L38 52L40 52L40 53L42 53L42 54L43 54L43 53L44 53L44 54L50 54L50 56L51 56L51 54L52 54L52 53L48 53L48 52L47 52L47 53L44 53L44 50L45 50L45 52L46 52L46 49L47 49L47 50L48 50L48 48L47 48L47 47L46 47L46 46L47 46L47 43L44 43L44 46L43 46L43 45L42 45L42 44L43 44L43 43L42 43L42 42L43 42L43 41L44 41L44 42L51 42L51 44L52 44L52 47L50 47L50 46L49 46L49 45L50 45L50 43L49 43L49 45L48 45L48 46L49 46L49 48L52 48L52 47L54 47L54 46L53 46L53 45L55 45L55 43L54 43L54 42L56 42L56 41L55 41L55 39L53 39L53 41L52 41L52 36L53 36L53 35L54 35L54 36L55 36L55 35L56 35L56 34L55 34L55 33L56 33L56 32L55 32L55 33L54 33L54 34L53 34L53 32L52 32L52 34L53 34L53 35L52 35L52 36L51 36L51 35L50 35L50 34L49 34L49 35L50 35L50 36L47 36L47 37L50 37L50 36L51 36L51 38L50 38L50 39L49 39L49 40L46 40L46 37L45 37L45 38L44 38L44 37L40 37L40 36L39 36L39 37L38 37L38 34L39 34L39 32L40 32L40 31L39 31L39 30L37 30L37 29L38 29L38 27L39 27L39 28L40 28L40 30L41 30L41 31L43 31L43 30L44 30L44 29L43 29L43 28L44 28L44 26L43 26L43 24L44 24L44 22L49 22L49 21L48 21L48 19L46 19L46 20L47 20L47 21L45 21L45 20L44 20L44 21L43 21L43 20L42 20L42 21L41 21L41 22L43 22L43 23L42 23L42 24L41 24L41 26L40 26L40 25L39 25L39 24L40 24L40 23L39 23L39 24L38 24L38 26L34 26L34 25L35 25L35 24L33 24L33 23L32 23L32 24L33 24L33 25L32 25L32 26L31 26L31 25L30 25L30 26L31 26L31 27L32 27L32 28L31 28L31 32L30 32L30 31L27 31L27 32L28 32L28 33L27 33L27 34L28 34L28 35L26 35L26 34L25 34L25 33L26 33L26 31L24 31L24 33L22 33L22 36L33 36L33 38L34 38L34 37L35 37L35 39L36 39L36 38L37 38L37 39L39 39L39 38L41 38L41 39L40 39L40 41L42 41L42 42L38 42L38 40L37 40L37 41L36 41L36 42L35 42L35 40L34 40L34 41L32 41L32 40L33 40L33 39L32 39L32 40L29 40L29 39L30 39L30 38L29 38L29 39L28 39L28 40L29 40L29 41L26 41L26 42L25 42L25 39L24 39L24 38L27 38L27 37L24 37L24 38L22 38L22 37L21 37L21 39L24 39L24 40L22 40L22 46L21 46L21 45L17 45L17 44L20 44L20 43L21 43L21 42L20 42L20 41L21 41L21 40L20 40L20 38L19 38L19 40L20 40L20 41L19 41L19 43L18 43L18 41L17 41L17 39L18 39L18 37L17 37L17 39L16 39L16 40L14 40L14 39L15 39L15 38L14 38L14 37L15 37L15 36L17 36L17 35L18 35L18 32L17 32L17 30L19 30L19 32L21 32L21 31L20 31L20 29L19 29L19 28L18 28L18 29L16 29L16 30L14 30L14 29L13 29L13 28L12 28L12 26L13 26L13 27L14 27L14 26L15 26L15 28L17 28L17 27L21 27L21 30L23 30L23 29L24 29L24 30L26 30L26 29L24 29L24 26L25 26L25 28L26 28L26 26L27 26L27 25L26 25L26 24L29 24L29 23L28 23L28 22L26 22L26 21L27 21L27 17L26 17L26 16L27 16L27 15L26 15L26 14L29 14L29 15L28 15L28 16L31 16L31 17L30 17L30 19L31 19L31 17L32 17L32 16L33 16L33 15L36 15L36 14L37 14L37 15L38 15L38 17L37 17L37 18L36 18L36 17L35 17L35 16L34 16L34 17L33 17L33 19L34 19L34 18L35 18L35 20L34 20L34 21L33 21L33 20L32 20L32 22L34 22L34 23L35 23L35 22L37 22L37 23L36 23L36 24L37 24L37 23L38 23L38 22L39 22L39 21L36 21L36 19L38 19L38 17L39 17L39 15L38 15L38 14L39 14L39 11L40 11L40 10L39 10L39 9L38 9L38 8L37 8L37 10L39 10L39 11L36 11L36 10L35 10L35 9L36 9L36 8L35 8L35 7L34 7L34 8L33 8L33 7L32 7L32 6L31 6L31 8L32 8L32 9L27 9L27 10L26 10L26 9L25 9L25 8L26 8L26 6L25 6L25 5L24 5L24 4L27 4L27 2L26 2L26 1ZM46 1L46 2L47 2L47 1ZM9 4L9 5L10 5L10 4ZM27 5L27 8L30 8L30 5ZM40 5L40 6L39 6L39 7L40 7L40 6L41 6L41 8L43 8L43 7L42 7L42 5ZM24 6L24 7L25 7L25 6ZM28 6L28 7L29 7L29 6ZM37 6L37 7L38 7L38 6ZM45 6L45 7L44 7L44 9L45 9L45 8L46 8L46 6ZM48 6L48 7L49 7L49 6ZM13 8L13 9L12 9L12 10L13 10L13 9L14 9L14 8ZM34 8L34 9L35 9L35 8ZM17 9L17 10L18 10L18 9ZM3 10L3 13L4 13L4 12L5 12L5 10ZM7 10L7 11L6 11L6 12L7 12L7 11L8 11L8 10ZM15 10L15 11L16 11L16 12L15 12L15 14L14 14L14 15L15 15L15 16L14 16L14 17L12 17L12 18L14 18L14 19L12 19L12 21L13 21L13 20L14 20L14 19L15 19L15 20L16 20L16 27L17 27L17 25L19 25L19 26L20 26L20 25L19 25L19 24L21 24L21 26L22 26L22 27L23 27L23 26L22 26L22 25L25 25L25 26L26 26L26 25L25 25L25 23L26 23L26 22L25 22L25 21L26 21L26 17L25 17L25 18L24 18L24 17L22 17L22 18L24 18L24 19L25 19L25 20L23 20L23 19L21 19L21 16L20 16L20 18L18 18L18 17L19 17L19 14L18 14L18 15L17 15L17 13L16 13L16 12L18 12L18 11L16 11L16 10ZM30 10L30 12L31 12L31 13L32 13L32 14L31 14L31 15L33 15L33 12L32 12L32 10ZM33 10L33 11L34 11L34 10ZM44 10L44 11L43 11L43 12L44 12L44 11L45 11L45 10ZM53 10L53 11L54 11L54 10ZM13 11L13 13L12 13L12 14L13 14L13 13L14 13L14 11ZM20 11L20 12L21 12L21 11ZM24 11L24 13L25 13L25 11ZM26 11L26 12L28 12L28 13L29 13L29 14L30 14L30 13L29 13L29 11ZM35 11L35 12L34 12L34 14L36 14L36 13L37 13L37 14L38 14L38 12L36 12L36 11ZM51 12L51 13L50 13L50 14L51 14L51 13L52 13L52 12ZM15 14L15 15L16 15L16 16L15 16L15 17L14 17L14 18L15 18L15 19L16 19L16 18L17 18L17 22L18 22L18 18L17 18L17 17L16 17L16 16L17 16L17 15L16 15L16 14ZM23 14L23 15L24 15L24 16L25 16L25 15L24 15L24 14ZM12 15L12 16L13 16L13 15ZM45 15L45 16L44 16L44 18L45 18L45 16L46 16L46 15ZM6 16L6 17L4 17L4 18L5 18L5 19L4 19L4 20L5 20L5 19L7 19L7 20L6 20L6 21L7 21L7 20L9 20L9 19L8 19L8 17L7 17L7 16ZM40 16L40 17L41 17L41 16ZM6 17L6 18L7 18L7 17ZM48 17L48 18L49 18L49 19L51 19L51 18L50 18L50 17ZM53 17L53 18L52 18L52 19L53 19L53 18L54 18L54 17ZM28 18L28 20L29 20L29 18ZM39 18L39 19L40 19L40 20L41 20L41 19L42 19L42 18ZM10 19L10 20L11 20L11 19ZM19 19L19 20L20 20L20 22L19 22L19 23L17 23L17 24L19 24L19 23L20 23L20 22L22 22L22 20L21 20L21 19ZM23 21L23 23L22 23L22 24L23 24L23 23L25 23L25 22L24 22L24 21ZM29 21L29 22L30 22L30 23L31 23L31 21ZM50 21L50 24L48 24L48 26L47 26L47 29L46 29L46 24L47 24L47 23L46 23L46 24L45 24L45 29L46 29L46 30L45 30L45 32L43 32L43 33L42 33L42 32L41 32L41 34L42 34L42 36L43 36L43 34L44 34L44 33L45 33L45 34L46 34L46 35L48 35L48 34L47 34L47 32L48 32L48 30L47 30L47 29L48 29L48 26L49 26L49 25L50 25L50 26L51 26L51 24L53 24L53 25L52 25L52 26L56 26L56 25L54 25L54 24L56 24L56 22L54 22L54 21L53 21L53 23L52 23L52 22L51 22L51 21ZM1 22L1 24L2 24L2 26L3 26L3 27L2 27L2 29L3 29L3 30L4 30L4 29L3 29L3 27L4 27L4 26L5 26L5 25L3 25L3 24L4 24L4 23L3 23L3 24L2 24L2 22ZM13 23L13 24L12 24L12 25L13 25L13 26L14 26L14 25L15 25L15 24L14 24L14 23ZM53 23L53 24L54 24L54 23ZM9 25L9 26L10 26L10 28L11 28L11 26L10 26L10 25ZM32 26L32 27L33 27L33 28L32 28L32 29L34 29L34 28L35 28L35 32L36 32L36 33L37 33L37 31L36 31L36 29L37 29L37 28L35 28L35 27L34 27L34 26ZM39 26L39 27L40 27L40 26ZM41 26L41 27L42 27L42 28L43 28L43 27L42 27L42 26ZM5 27L5 30L8 30L8 27ZM27 27L27 30L30 30L30 27ZM49 27L49 30L52 30L52 27ZM6 28L6 29L7 29L7 28ZM28 28L28 29L29 29L29 28ZM50 28L50 29L51 29L51 28ZM41 29L41 30L42 30L42 29ZM13 30L13 31L14 31L14 30ZM32 30L32 32L31 32L31 33L32 33L32 34L30 34L30 35L33 35L33 36L35 36L35 37L37 37L37 38L38 38L38 37L37 37L37 35L36 35L36 36L35 36L35 34L34 34L34 35L33 35L33 33L32 33L32 32L33 32L33 30ZM4 31L4 33L5 33L5 32L8 32L8 31ZM22 31L22 32L23 32L23 31ZM38 31L38 32L39 32L39 31ZM46 31L46 32L47 32L47 31ZM50 31L50 32L49 32L49 33L50 33L50 32L51 32L51 31ZM29 32L29 33L30 33L30 32ZM6 33L6 34L7 34L7 33ZM19 33L19 34L20 34L20 35L21 35L21 33ZM16 34L16 35L17 35L17 34ZM24 34L24 35L25 35L25 34ZM9 35L9 36L8 36L8 37L7 37L7 36L6 36L6 37L7 37L7 38L6 38L6 39L7 39L7 40L9 40L9 39L8 39L8 37L9 37L9 36L11 36L11 37L12 37L12 36L13 36L13 35L12 35L12 36L11 36L11 35ZM44 35L44 36L45 36L45 35ZM19 36L19 37L20 37L20 36ZM3 37L3 38L5 38L5 37ZM53 37L53 38L55 38L55 37ZM47 38L47 39L48 39L48 38ZM26 39L26 40L27 40L27 39ZM41 39L41 40L44 40L44 41L46 41L46 40L45 40L45 39ZM50 39L50 40L51 40L51 39ZM13 40L13 41L12 41L12 43L11 43L11 44L12 44L12 43L14 43L14 44L13 44L13 46L14 46L14 44L15 44L15 45L16 45L16 44L15 44L15 43L14 43L14 40ZM23 41L23 42L24 42L24 41ZM29 41L29 42L26 42L26 43L23 43L23 44L24 44L24 45L25 45L25 44L28 44L28 43L31 43L31 44L33 44L33 45L34 45L34 44L33 44L33 42L32 42L32 41L31 41L31 42L30 42L30 41ZM53 41L53 42L54 42L54 41ZM34 42L34 43L35 43L35 44L36 44L36 45L35 45L35 46L34 46L34 48L35 48L35 49L34 49L34 50L33 50L33 51L35 51L35 50L36 50L36 49L37 49L37 50L38 50L38 51L39 51L39 50L38 50L38 49L37 49L37 48L35 48L35 46L36 46L36 47L37 47L37 46L36 46L36 45L41 45L41 44L42 44L42 43L38 43L38 42L37 42L37 44L36 44L36 43L35 43L35 42ZM52 43L52 44L53 44L53 43ZM1 46L1 47L2 47L2 46ZM22 46L22 47L23 47L23 46ZM39 46L39 47L38 47L38 48L39 48L39 49L40 49L40 50L41 50L41 51L40 51L40 52L42 52L42 53L43 53L43 50L41 50L41 49L42 49L42 48L41 48L41 46ZM44 46L44 47L43 47L43 49L46 49L46 48L44 48L44 47L45 47L45 46ZM8 47L8 48L6 48L6 49L8 49L8 51L10 51L10 50L9 50L9 47ZM32 48L32 49L33 49L33 48ZM27 49L27 52L30 52L30 49ZM49 49L49 52L52 52L52 49ZM28 50L28 51L29 51L29 50ZM50 50L50 51L51 51L51 50ZM19 52L19 53L20 53L20 52ZM25 52L25 53L26 53L26 52ZM10 54L10 56L11 56L11 54ZM29 54L29 56L30 56L30 55L31 55L31 54ZM55 56L55 57L56 57L56 56ZM0 0L0 7L7 7L7 0ZM1 1L1 6L6 6L6 1ZM2 2L2 5L5 5L5 2ZM50 0L50 7L57 7L57 0ZM51 1L51 6L56 6L56 1ZM52 2L52 5L55 5L55 2ZM0 50L0 57L7 57L7 50ZM1 51L1 56L6 56L6 51ZM2 52L2 55L5 55L5 52Z" fill="#000000"/></g></g></svg>
