<?xml version="1.0" encoding="UTF-8"?>
<svg xmlns="http://www.w3.org/2000/svg" version="1.1" width="300" height="300" viewBox="0 0 300 300"><rect x="0" y="0" width="300" height="300" fill="#fefefe"/><g transform="scale(4.615)"><g transform="translate(4,4)"><path fill-rule="evenodd" d="M9 0L9 1L8 1L8 2L10 2L10 0ZM11 0L11 1L13 1L13 0ZM17 0L17 1L19 1L19 3L17 3L17 4L18 4L18 5L20 5L20 7L19 7L19 6L18 6L18 7L17 7L17 6L16 6L16 7L15 7L15 6L14 6L14 7L15 7L15 8L16 8L16 9L15 9L15 10L14 10L14 8L13 8L13 5L12 5L12 8L11 8L11 6L10 6L10 5L11 5L11 4L12 4L12 3L11 3L11 4L10 4L10 3L8 3L8 4L10 4L10 5L8 5L8 7L9 7L9 6L10 6L10 8L11 8L11 9L9 9L9 8L6 8L6 9L5 9L5 8L0 8L0 11L1 11L1 12L0 12L0 13L1 13L1 14L0 14L0 15L1 15L1 16L2 16L2 17L3 17L3 18L4 18L4 19L7 19L7 18L4 18L4 17L3 17L3 16L5 16L5 17L8 17L8 16L5 16L5 13L8 13L8 14L6 14L6 15L11 15L11 14L12 14L12 12L13 12L13 13L15 13L15 14L14 14L14 15L12 15L12 17L11 17L11 19L12 19L12 18L14 18L14 15L15 15L15 17L17 17L17 18L15 18L15 19L16 19L16 20L15 20L15 21L16 21L16 22L14 22L14 21L13 21L13 23L10 23L10 24L9 24L9 25L8 25L8 26L2 26L2 25L3 25L3 24L4 24L4 23L5 23L5 20L3 20L3 19L2 19L2 18L1 18L1 19L0 19L0 21L3 21L3 22L1 22L1 23L0 23L0 24L1 24L1 25L0 25L0 27L2 27L2 28L4 28L4 29L1 29L1 28L0 28L0 32L1 32L1 33L0 33L0 34L1 34L1 35L0 35L0 37L1 37L1 35L3 35L3 36L2 36L2 38L0 38L0 39L1 39L1 41L2 41L2 39L3 39L3 40L4 40L4 41L3 41L3 43L2 43L2 42L1 42L1 43L0 43L0 44L3 44L3 46L2 46L2 45L0 45L0 48L5 48L5 47L7 47L7 46L6 46L6 45L7 45L7 44L6 44L6 45L5 45L5 44L4 44L4 41L7 41L7 42L6 42L6 43L8 43L8 44L9 44L9 43L8 43L8 42L9 42L9 38L6 38L6 39L7 39L7 40L4 40L4 39L5 39L5 37L8 37L8 36L6 36L6 35L7 35L7 34L3 34L3 33L4 33L4 32L5 32L5 31L8 31L8 32L6 32L6 33L8 33L8 32L9 32L9 33L10 33L10 32L9 32L9 31L12 31L12 32L13 32L13 31L12 31L12 30L10 30L10 28L11 28L11 29L13 29L13 30L14 30L14 31L16 31L16 29L18 29L18 31L19 31L19 32L17 32L17 35L18 35L18 36L17 36L17 38L18 38L18 37L19 37L19 38L20 38L20 39L18 39L18 40L16 40L16 39L15 39L15 38L16 38L16 37L15 37L15 36L16 36L16 34L15 34L15 33L16 33L16 32L15 32L15 33L14 33L14 37L13 37L13 35L12 35L12 37L11 37L11 36L10 36L10 37L11 37L11 38L12 38L12 39L10 39L10 40L11 40L11 41L10 41L10 43L11 43L11 44L10 44L10 45L8 45L8 46L9 46L9 47L8 47L8 48L9 48L9 49L8 49L8 51L9 51L9 49L10 49L10 50L11 50L11 51L10 51L10 54L9 54L9 52L8 52L8 57L10 57L10 54L12 54L12 55L11 55L11 57L14 57L14 56L15 56L15 57L16 57L16 56L17 56L17 57L19 57L19 55L20 55L20 54L19 54L19 53L20 53L20 52L22 52L22 51L21 51L21 50L25 50L25 49L24 49L24 48L26 48L26 52L24 52L24 53L21 53L21 54L22 54L22 56L23 56L23 57L26 57L26 56L27 56L27 57L29 57L29 56L30 56L30 57L31 57L31 56L35 56L35 57L39 57L39 56L37 56L37 55L41 55L41 57L42 57L42 55L44 55L44 56L43 56L43 57L44 57L44 56L45 56L45 57L46 57L46 56L45 56L45 55L46 55L46 54L45 54L45 53L44 53L44 52L45 52L45 51L43 51L43 49L44 49L44 50L46 50L46 53L47 53L47 50L48 50L48 54L47 54L47 56L50 56L50 57L52 57L52 55L51 55L51 53L52 53L52 54L53 54L53 57L54 57L54 56L55 56L55 57L56 57L56 56L55 56L55 54L53 54L53 52L54 52L54 53L57 53L57 51L56 51L56 49L57 49L57 48L56 48L56 46L57 46L57 45L56 45L56 44L55 44L55 43L56 43L56 42L57 42L57 41L56 41L56 42L55 42L55 39L57 39L57 37L56 37L56 36L57 36L57 35L56 35L56 34L55 34L55 33L54 33L54 34L55 34L55 35L53 35L53 34L52 34L52 33L53 33L53 32L56 32L56 33L57 33L57 32L56 32L56 30L57 30L57 29L56 29L56 28L55 28L55 27L56 27L56 26L57 26L57 25L56 25L56 22L57 22L57 21L56 21L56 20L57 20L57 19L56 19L56 20L55 20L55 18L57 18L57 17L56 17L56 16L57 16L57 15L56 15L56 14L57 14L57 11L56 11L56 8L55 8L55 10L54 10L54 11L53 11L53 10L51 10L51 11L50 11L50 8L49 8L49 6L48 6L48 7L47 7L47 5L48 5L48 0L45 0L45 2L44 2L44 3L41 3L41 2L43 2L43 0L41 0L41 1L40 1L40 0L39 0L39 1L38 1L38 0L37 0L37 1L38 1L38 3L36 3L36 0L35 0L35 1L33 1L33 0L32 0L32 3L31 3L31 2L29 2L29 3L30 3L30 4L26 4L26 3L23 3L23 2L27 2L27 3L28 3L28 2L27 2L27 1L25 1L25 0L23 0L23 2L21 2L21 1L22 1L22 0L21 0L21 1L20 1L20 0ZM29 0L29 1L31 1L31 0ZM14 1L14 2L13 2L13 4L14 4L14 2L15 2L15 3L16 3L16 2L15 2L15 1ZM46 1L46 2L47 2L47 1ZM20 2L20 3L19 3L19 4L23 4L23 5L21 5L21 7L22 7L22 8L20 8L20 10L21 10L21 11L22 11L22 10L23 10L23 11L24 11L24 12L23 12L23 13L22 13L22 12L20 12L20 11L19 11L19 12L20 12L20 14L19 14L19 15L18 15L18 16L20 16L20 18L19 18L19 19L18 19L18 20L20 20L20 21L17 21L17 20L16 20L16 21L17 21L17 24L16 24L16 23L15 23L15 24L14 24L14 23L13 23L13 24L11 24L11 25L9 25L9 26L10 26L10 27L9 27L9 28L10 28L10 27L12 27L12 26L11 26L11 25L13 25L13 26L18 26L18 27L16 27L16 28L15 28L15 27L13 27L13 29L14 29L14 30L15 30L15 29L16 29L16 28L18 28L18 29L19 29L19 27L20 27L20 26L22 26L22 27L21 27L21 28L22 28L22 29L20 29L20 30L19 30L19 31L20 31L20 34L19 34L19 33L18 33L18 34L19 34L19 37L23 37L23 38L21 38L21 40L19 40L19 41L16 41L16 40L13 40L13 39L14 39L14 38L15 38L15 37L14 37L14 38L13 38L13 39L12 39L12 40L13 40L13 41L16 41L16 42L17 42L17 43L18 43L18 42L19 42L19 41L20 41L20 42L21 42L21 43L20 43L20 46L21 46L21 45L22 45L22 46L24 46L24 45L25 45L25 47L26 47L26 48L27 48L27 47L28 47L28 48L30 48L30 47L29 47L29 45L30 45L30 46L31 46L31 48L32 48L32 49L31 49L31 53L30 53L30 54L27 54L27 53L26 53L26 55L27 55L27 56L29 56L29 55L30 55L30 56L31 56L31 54L32 54L32 53L33 53L33 54L34 54L34 55L35 55L35 56L36 56L36 54L35 54L35 53L33 53L33 52L32 52L32 51L34 51L34 50L36 50L36 52L38 52L38 53L37 53L37 54L40 54L40 53L41 53L41 52L42 52L42 53L43 53L43 54L44 54L44 55L45 55L45 54L44 54L44 53L43 53L43 52L42 52L42 50L41 50L41 48L42 48L42 49L43 49L43 48L44 48L44 49L45 49L45 48L47 48L47 49L46 49L46 50L47 50L47 49L48 49L48 48L49 48L49 47L51 47L51 46L52 46L52 47L55 47L55 46L56 46L56 45L55 45L55 44L54 44L54 45L53 45L53 43L54 43L54 42L53 42L53 41L54 41L54 40L53 40L53 41L51 41L51 42L50 42L50 43L48 43L48 44L47 44L47 45L45 45L45 44L46 44L46 43L47 43L47 42L48 42L48 41L49 41L49 40L50 40L50 39L53 39L53 35L52 35L52 34L50 34L50 31L48 31L48 28L47 28L47 29L46 29L46 30L47 30L47 31L48 31L48 32L43 32L43 31L44 31L44 30L45 30L45 28L46 28L46 27L47 27L47 25L49 25L49 23L50 23L50 26L51 26L51 25L52 25L52 26L53 26L53 27L54 27L54 26L53 26L53 25L55 25L55 26L56 26L56 25L55 25L55 24L53 24L53 23L55 23L55 22L56 22L56 21L55 21L55 20L53 20L53 19L52 19L52 20L51 20L51 21L49 21L49 22L47 22L47 21L46 21L46 20L44 20L44 18L45 18L45 19L47 19L47 20L49 20L49 18L47 18L47 17L48 17L48 16L49 16L49 17L50 17L50 19L51 19L51 18L55 18L55 16L52 16L52 15L51 15L51 17L50 17L50 14L51 14L51 12L50 12L50 11L49 11L49 10L47 10L47 8L45 8L45 7L46 7L46 6L45 6L45 5L47 5L47 3L44 3L44 6L43 6L43 5L42 5L42 4L41 4L41 3L38 3L38 6L37 6L37 7L36 7L36 5L37 5L37 4L36 4L36 5L35 5L35 3L32 3L32 4L31 4L31 8L32 8L32 10L31 10L31 11L29 11L29 12L28 12L28 13L27 13L27 15L26 15L26 14L25 14L25 15L26 15L26 20L25 20L25 21L24 21L24 20L23 20L23 19L24 19L24 18L23 18L23 19L22 19L22 20L20 20L20 18L22 18L22 17L25 17L25 16L24 16L24 15L21 15L21 16L20 16L20 14L21 14L21 13L22 13L22 14L23 14L23 13L24 13L24 12L25 12L25 13L26 13L26 12L27 12L27 11L26 11L26 12L25 12L25 10L23 10L23 8L24 8L24 6L23 6L23 5L24 5L24 4L23 4L23 3L21 3L21 2ZM15 4L15 5L16 5L16 4ZM25 4L25 8L26 8L26 4ZM32 4L32 5L33 5L33 4ZM40 4L40 5L39 5L39 6L38 6L38 8L35 8L35 5L34 5L34 7L33 7L33 6L32 6L32 7L33 7L33 9L34 9L34 8L35 8L35 9L37 9L37 10L36 10L36 12L35 12L35 13L36 13L36 14L33 14L33 13L34 13L34 12L33 12L33 13L32 13L32 11L33 11L33 10L32 10L32 11L31 11L31 13L30 13L30 14L29 14L29 13L28 13L28 14L29 14L29 16L28 16L28 15L27 15L27 16L28 16L28 17L27 17L27 18L28 18L28 19L29 19L29 20L30 20L30 21L28 21L28 22L29 22L29 23L27 23L27 21L25 21L25 22L26 22L26 23L25 23L25 24L24 24L24 23L23 23L23 24L24 24L24 25L22 25L22 26L23 26L23 27L24 27L24 28L26 28L26 29L23 29L23 30L25 30L25 31L24 31L24 32L25 32L25 31L26 31L26 32L28 32L28 33L29 33L29 34L30 34L30 36L29 36L29 37L31 37L31 38L29 38L29 39L33 39L33 40L35 40L35 42L37 42L37 43L34 43L34 42L33 42L33 41L32 41L32 40L29 40L29 42L28 42L28 45L26 45L26 47L27 47L27 46L28 46L28 45L29 45L29 43L31 43L31 44L33 44L33 43L34 43L34 45L35 45L35 46L33 46L33 49L36 49L36 50L38 50L38 52L39 52L39 51L40 51L40 52L41 52L41 50L38 50L38 49L39 49L39 48L41 48L41 46L43 46L43 47L42 47L42 48L43 48L43 47L44 47L44 48L45 48L45 47L47 47L47 48L48 48L48 47L49 47L49 46L51 46L51 45L52 45L52 44L51 44L51 43L53 43L53 42L51 42L51 43L50 43L50 44L48 44L48 45L49 45L49 46L48 46L48 47L47 47L47 46L45 46L45 45L44 45L44 44L43 44L43 42L44 42L44 43L46 43L46 42L45 42L45 41L47 41L47 39L50 39L50 38L51 38L51 37L50 37L50 36L52 36L52 35L50 35L50 34L48 34L48 35L44 35L44 36L41 36L41 35L42 35L42 34L45 34L45 33L43 33L43 32L41 32L41 33L39 33L39 34L40 34L40 35L38 35L38 33L37 33L37 32L34 32L34 31L35 31L35 30L33 30L33 29L32 29L32 27L33 27L33 28L35 28L35 29L38 29L38 28L39 28L39 27L40 27L40 26L41 26L41 28L42 28L42 26L43 26L43 29L40 29L40 30L44 30L44 28L45 28L45 27L44 27L44 26L43 26L43 25L44 25L44 24L42 24L42 23L44 23L44 20L43 20L43 18L44 18L44 15L45 15L45 17L47 17L47 16L48 16L48 15L49 15L49 14L50 14L50 12L49 12L49 13L47 13L47 14L44 14L44 15L42 15L42 16L41 16L41 15L40 15L40 14L38 14L38 13L39 13L39 10L40 10L40 12L41 12L41 10L42 10L42 11L43 11L43 13L41 13L41 14L43 14L43 13L44 13L44 11L45 11L45 12L47 12L47 10L46 10L46 9L45 9L45 10L44 10L44 7L45 7L45 6L44 6L44 7L43 7L43 6L42 6L42 5L41 5L41 4ZM27 5L27 8L30 8L30 5ZM40 5L40 6L39 6L39 8L38 8L38 10L39 10L39 9L40 9L40 10L41 10L41 7L42 7L42 6L41 6L41 5ZM22 6L22 7L23 7L23 6ZM28 6L28 7L29 7L29 6ZM40 6L40 7L41 7L41 6ZM16 7L16 8L17 8L17 7ZM42 8L42 9L43 9L43 8ZM51 8L51 9L52 9L52 8ZM53 8L53 9L54 9L54 8ZM4 9L4 10L5 10L5 9ZM6 9L6 10L7 10L7 9ZM8 9L8 13L9 13L9 12L10 12L10 11L9 11L9 9ZM16 9L16 10L15 10L15 13L16 13L16 16L17 16L17 13L18 13L18 12L17 12L17 11L18 11L18 10L19 10L19 9L18 9L18 10L17 10L17 9ZM21 9L21 10L22 10L22 9ZM28 9L28 10L29 10L29 9ZM11 10L11 11L12 11L12 10ZM45 10L45 11L46 11L46 10ZM2 11L2 12L1 12L1 13L2 13L2 16L3 16L3 15L4 15L4 14L3 14L3 13L2 13L2 12L3 12L3 11ZM5 11L5 12L7 12L7 11ZM13 11L13 12L14 12L14 11ZM16 12L16 13L17 13L17 12ZM52 12L52 13L53 13L53 15L55 15L55 14L56 14L56 12L54 12L54 13L53 13L53 12ZM10 13L10 14L11 14L11 13ZM31 13L31 14L30 14L30 15L32 15L32 13ZM54 13L54 14L55 14L55 13ZM37 14L37 15L35 15L35 16L32 16L32 17L31 17L31 18L30 18L30 19L31 19L31 18L33 18L33 20L32 20L32 21L31 21L31 22L30 22L30 23L29 23L29 24L25 24L25 25L26 25L26 26L25 26L25 27L26 27L26 26L27 26L27 25L31 25L31 24L32 24L32 26L31 26L31 27L32 27L32 26L33 26L33 27L34 27L34 26L36 26L36 27L35 27L35 28L36 28L36 27L39 27L39 25L41 25L41 26L42 26L42 25L41 25L41 24L38 24L38 23L37 23L37 24L38 24L38 26L37 26L37 25L33 25L33 24L32 24L32 23L35 23L35 21L34 21L34 20L35 20L35 19L36 19L36 20L38 20L38 22L39 22L39 23L40 23L40 22L39 22L39 21L43 21L43 20L42 20L42 18L41 18L41 20L38 20L38 19L39 19L39 17L41 17L41 16L39 16L39 15L38 15L38 14ZM9 16L9 19L10 19L10 16ZM21 16L21 17L22 17L22 16ZM35 16L35 17L37 17L37 18L38 18L38 17L39 17L39 16L38 16L38 17L37 17L37 16ZM42 16L42 17L43 17L43 16ZM1 19L1 20L2 20L2 19ZM13 19L13 20L14 20L14 19ZM6 20L6 21L7 21L7 22L6 22L6 23L7 23L7 22L8 22L8 23L9 23L9 22L11 22L11 21L12 21L12 20L10 20L10 21L9 21L9 20ZM21 21L21 22L24 22L24 21ZM51 21L51 22L50 22L50 23L53 23L53 21ZM19 22L19 23L20 23L20 22ZM46 22L46 23L45 23L45 24L46 24L46 25L47 25L47 24L48 24L48 23L47 23L47 22ZM46 23L46 24L47 24L47 23ZM5 24L5 25L7 25L7 24ZM13 24L13 25L14 25L14 24ZM17 24L17 25L19 25L19 26L20 26L20 25L21 25L21 24L20 24L20 25L19 25L19 24ZM5 27L5 30L8 30L8 27ZM27 27L27 30L30 30L30 27ZM49 27L49 30L52 30L52 27ZM6 28L6 29L7 29L7 28ZM28 28L28 29L29 29L29 28ZM50 28L50 29L51 29L51 28ZM54 28L54 29L55 29L55 28ZM31 29L31 31L28 31L28 32L29 32L29 33L31 33L31 32L32 32L32 34L31 34L31 35L32 35L32 34L33 34L33 35L34 35L34 34L35 34L35 36L37 36L37 37L38 37L38 39L35 39L35 40L38 40L38 42L39 42L39 43L40 43L40 44L39 44L39 45L38 45L38 46L39 46L39 47L38 47L38 48L37 48L37 49L38 49L38 48L39 48L39 47L40 47L40 46L41 46L41 44L42 44L42 42L41 42L41 38L42 38L42 39L45 39L45 38L46 38L46 39L47 39L47 38L50 38L50 37L49 37L49 36L50 36L50 35L48 35L48 36L44 36L44 37L43 37L43 38L42 38L42 37L41 37L41 36L40 36L40 37L38 37L38 35L37 35L37 34L35 34L35 33L34 33L34 34L33 34L33 30L32 30L32 29ZM2 30L2 31L3 31L3 32L4 32L4 30ZM20 30L20 31L21 31L21 32L23 32L23 31L21 31L21 30ZM38 30L38 32L39 32L39 30ZM51 31L51 33L52 33L52 32L53 32L53 31ZM48 32L48 33L49 33L49 32ZM1 33L1 34L2 34L2 33ZM11 33L11 34L12 34L12 33ZM21 33L21 34L20 34L20 36L21 36L21 34L22 34L22 36L23 36L23 37L24 37L24 38L23 38L23 39L22 39L22 40L23 40L23 41L24 41L24 42L22 42L22 41L21 41L21 42L22 42L22 43L21 43L21 44L22 44L22 45L24 45L24 44L27 44L27 43L25 43L25 41L24 41L24 40L25 40L25 36L26 36L26 40L28 40L28 39L27 39L27 38L28 38L28 37L27 37L27 33L26 33L26 35L25 35L25 33L23 33L23 34L22 34L22 33ZM8 34L8 35L10 35L10 34ZM23 34L23 36L24 36L24 34ZM55 35L55 36L56 36L56 35ZM4 36L4 37L5 37L5 36ZM32 36L32 37L33 37L33 38L35 38L35 37L33 37L33 36ZM40 37L40 38L41 38L41 37ZM44 37L44 38L45 38L45 37ZM54 37L54 38L55 38L55 37ZM3 38L3 39L4 39L4 38ZM23 39L23 40L24 40L24 39ZM38 39L38 40L39 40L39 39ZM43 40L43 41L45 41L45 40ZM11 41L11 42L12 42L12 44L13 44L13 42L12 42L12 41ZM26 41L26 42L27 42L27 41ZM30 41L30 42L32 42L32 43L33 43L33 42L32 42L32 41ZM39 41L39 42L40 42L40 41ZM14 42L14 45L12 45L12 46L13 46L13 48L12 48L12 47L11 47L11 46L10 46L10 47L11 47L11 48L10 48L10 49L13 49L13 50L12 50L12 51L11 51L11 52L12 52L12 54L13 54L13 52L14 52L14 55L12 55L12 56L14 56L14 55L15 55L15 56L16 56L16 55L15 55L15 54L16 54L16 53L17 53L17 52L18 52L18 51L19 51L19 52L20 52L20 51L19 51L19 49L16 49L16 48L18 48L18 46L17 46L17 45L18 45L18 44L16 44L16 43L15 43L15 42ZM23 43L23 44L24 44L24 43ZM50 44L50 45L51 45L51 44ZM4 45L4 46L3 46L3 47L5 47L5 45ZM31 45L31 46L32 46L32 45ZM1 46L1 47L2 47L2 46ZM44 46L44 47L45 47L45 46ZM19 47L19 48L20 48L20 50L21 50L21 49L23 49L23 48L24 48L24 47L21 47L21 48L20 48L20 47ZM34 47L34 48L36 48L36 47ZM6 48L6 49L7 49L7 48ZM14 48L14 52L15 52L15 53L16 53L16 51L17 51L17 50L16 50L16 49L15 49L15 48ZM53 48L53 49L56 49L56 48ZM27 49L27 52L30 52L30 49ZM49 49L49 52L52 52L52 49ZM15 50L15 51L16 51L16 50ZM28 50L28 51L29 51L29 50ZM50 50L50 51L51 51L51 50ZM54 50L54 51L55 51L55 50ZM24 53L24 54L23 54L23 55L24 55L24 56L25 56L25 53ZM18 54L18 55L19 55L19 54ZM41 54L41 55L42 55L42 54ZM50 55L50 56L51 56L51 55ZM0 0L0 7L7 7L7 0ZM1 1L1 6L6 6L6 1ZM2 2L2 5L5 5L5 2ZM50 0L50 7L57 7L57 0ZM51 1L51 6L56 6L56 1ZM52 2L52 5L55 5L55 2ZM0 50L0 57L7 57L7 50ZM1 51L1 56L6 56L6 51ZM2 52L2 55L5 55L5 52Z" fill="#000000"/></g></g></svg>
