<?xml version="1.0" encoding="UTF-8"?>
<svg xmlns="http://www.w3.org/2000/svg" version="1.1" width="300" height="300" viewBox="0 0 300 300"><rect x="0" y="0" width="300" height="300" fill="#fefefe"/><g transform="scale(4.615)"><g transform="translate(4,4)"><path fill-rule="evenodd" d="M8 0L8 4L10 4L10 8L9 8L9 9L8 9L8 10L9 10L9 9L10 9L10 8L11 8L11 9L13 9L13 10L10 10L10 11L7 11L7 10L6 10L6 11L5 11L5 10L4 10L4 9L7 9L7 8L4 8L4 9L2 9L2 8L0 8L0 13L1 13L1 14L0 14L0 15L1 15L1 16L2 16L2 17L3 17L3 16L4 16L4 15L5 15L5 16L6 16L6 17L7 17L7 18L6 18L6 19L7 19L7 20L5 20L5 19L4 19L4 18L5 18L5 17L4 17L4 18L3 18L3 19L2 19L2 20L3 20L3 21L2 21L2 22L1 22L1 23L2 23L2 24L0 24L0 25L2 25L2 24L4 24L4 23L2 23L2 22L3 22L3 21L4 21L4 22L5 22L5 23L7 23L7 22L8 22L8 24L6 24L6 25L5 25L5 26L0 26L0 29L2 29L2 30L0 30L0 31L2 31L2 32L3 32L3 30L4 30L4 31L9 31L9 32L6 32L6 33L4 33L4 34L5 34L5 35L7 35L7 36L6 36L6 37L7 37L7 36L8 36L8 35L7 35L7 34L9 34L9 36L10 36L10 37L9 37L9 38L8 38L8 39L7 39L7 38L5 38L5 40L6 40L6 41L5 41L5 42L4 42L4 41L3 41L3 37L5 37L5 36L3 36L3 34L1 34L1 32L0 32L0 35L2 35L2 36L3 36L3 37L2 37L2 40L0 40L0 42L1 42L1 43L0 43L0 44L1 44L1 43L2 43L2 42L3 42L3 43L4 43L4 44L3 44L3 45L0 45L0 48L5 48L5 47L7 47L7 48L6 48L6 49L8 49L8 50L9 50L9 51L8 51L8 53L9 53L9 51L10 51L10 52L11 52L11 53L10 53L10 54L9 54L9 55L8 55L8 57L10 57L10 56L12 56L12 55L14 55L14 57L15 57L15 55L16 55L16 54L17 54L17 57L20 57L20 56L19 56L19 55L20 55L20 54L21 54L21 55L22 55L22 56L21 56L21 57L22 57L22 56L23 56L23 57L25 57L25 56L26 56L26 57L27 57L27 55L26 55L26 54L27 54L27 53L28 53L28 57L29 57L29 55L30 55L30 57L34 57L34 55L35 55L35 57L37 57L37 56L36 56L36 54L37 54L37 53L38 53L38 55L39 55L39 57L40 57L40 54L43 54L43 55L42 55L42 56L43 56L43 55L44 55L44 53L45 53L45 56L44 56L44 57L45 57L45 56L46 56L46 57L50 57L50 55L51 55L51 56L53 56L53 55L55 55L55 54L57 54L57 52L56 52L56 51L55 51L55 49L56 49L56 44L57 44L57 43L56 43L56 41L57 41L57 40L52 40L52 39L53 39L53 38L54 38L54 39L57 39L57 38L55 38L55 37L57 37L57 36L53 36L53 35L56 35L56 34L57 34L57 33L56 33L56 30L55 30L55 29L54 29L54 28L53 28L53 27L54 27L54 26L55 26L55 27L56 27L56 25L57 25L57 24L56 24L56 21L57 21L57 19L56 19L56 18L57 18L57 15L56 15L56 12L57 12L57 11L56 11L56 10L57 10L57 8L53 8L53 9L52 9L52 8L51 8L51 9L50 9L50 10L51 10L51 11L50 11L50 15L48 15L48 16L47 16L47 18L46 18L46 11L45 11L45 10L46 10L46 8L47 8L47 9L48 9L48 10L49 10L49 9L48 9L48 7L49 7L49 6L48 6L48 7L47 7L47 5L48 5L48 0L41 0L41 1L40 1L40 2L38 2L38 1L39 1L39 0L38 0L38 1L37 1L37 2L36 2L36 0L35 0L35 1L34 1L34 0L33 0L33 1L32 1L32 0L28 0L28 1L27 1L27 0L26 0L26 1L25 1L25 0L23 0L23 1L22 1L22 2L20 2L20 1L21 1L21 0L20 0L20 1L19 1L19 0L18 0L18 1L19 1L19 2L20 2L20 3L22 3L22 5L21 5L21 6L20 6L20 5L19 5L19 6L18 6L18 7L17 7L17 6L16 6L16 5L15 5L15 4L14 4L14 1L15 1L15 3L16 3L16 4L17 4L17 5L18 5L18 4L17 4L17 2L16 2L16 0L14 0L14 1L13 1L13 2L10 2L10 1L12 1L12 0ZM26 1L26 2L25 2L25 3L23 3L23 5L22 5L22 6L21 6L21 8L22 8L22 10L20 10L20 8L19 8L19 10L18 10L18 11L17 11L17 13L15 13L15 12L16 12L16 10L17 10L17 9L16 9L16 10L15 10L15 12L14 12L14 11L13 11L13 13L12 13L12 11L11 11L11 12L8 12L8 13L9 13L9 14L10 14L10 15L11 15L11 17L10 17L10 19L9 19L9 18L7 18L7 19L9 19L9 20L12 20L12 21L11 21L11 22L10 22L10 21L8 21L8 22L9 22L9 24L10 24L10 25L11 25L11 24L12 24L12 25L13 25L13 26L12 26L12 27L11 27L11 26L10 26L10 27L9 27L9 29L10 29L10 28L11 28L11 29L12 29L12 28L13 28L13 29L14 29L14 28L13 28L13 26L14 26L14 27L15 27L15 28L16 28L16 27L15 27L15 25L16 25L16 26L17 26L17 27L18 27L18 25L17 25L17 23L18 23L18 24L20 24L20 25L19 25L19 27L20 27L20 28L18 28L18 29L15 29L15 30L14 30L14 31L15 31L15 30L16 30L16 32L13 32L13 30L12 30L12 31L11 31L11 30L9 30L9 31L11 31L11 32L13 32L13 34L12 34L12 33L9 33L9 34L11 34L11 35L12 35L12 36L11 36L11 37L13 37L13 38L12 38L12 39L10 39L10 38L9 38L9 39L8 39L8 41L6 41L6 42L5 42L5 44L4 44L4 45L3 45L3 47L5 47L5 46L9 46L9 50L10 50L10 51L11 51L11 50L13 50L13 49L14 49L14 48L13 48L13 47L11 47L11 49L10 49L10 44L11 44L11 46L12 46L12 45L13 45L13 44L14 44L14 43L15 43L15 44L17 44L17 45L16 45L16 46L17 46L17 45L18 45L18 44L19 44L19 47L21 47L21 48L22 48L22 49L21 49L21 50L20 50L20 48L19 48L19 51L18 51L18 52L19 52L19 53L17 53L17 51L16 51L16 50L18 50L18 49L17 49L17 48L16 48L16 47L15 47L15 45L14 45L14 47L15 47L15 48L16 48L16 50L15 50L15 52L14 52L14 53L13 53L13 54L14 54L14 55L15 55L15 54L14 54L14 53L17 53L17 54L19 54L19 53L20 53L20 52L19 52L19 51L21 51L21 52L22 52L22 53L21 53L21 54L22 54L22 55L23 55L23 56L24 56L24 55L23 55L23 54L22 54L22 53L24 53L24 54L25 54L25 53L26 53L26 50L25 50L25 53L24 53L24 52L23 52L23 51L21 51L21 50L22 50L22 49L23 49L23 48L24 48L24 49L25 49L25 48L24 48L24 47L26 47L26 48L27 48L27 47L28 47L28 46L29 46L29 48L31 48L31 49L32 49L32 48L34 48L34 50L32 50L32 51L31 51L31 52L32 52L32 51L33 51L33 52L34 52L34 51L35 51L35 52L36 52L36 49L35 49L35 47L36 47L36 48L37 48L37 47L36 47L36 45L34 45L34 47L31 47L31 46L32 46L32 45L31 45L31 41L32 41L32 43L33 43L33 44L35 44L35 43L33 43L33 41L32 41L32 40L33 40L33 39L34 39L34 42L35 42L35 39L37 39L37 42L38 42L38 39L40 39L40 38L38 38L38 37L41 37L41 39L42 39L42 40L43 40L43 41L44 41L44 42L45 42L45 43L43 43L43 42L42 42L42 44L43 44L43 45L44 45L44 44L45 44L45 45L46 45L46 47L45 47L45 46L44 46L44 47L42 47L42 49L44 49L44 48L45 48L45 50L42 50L42 51L41 51L41 42L40 42L40 41L41 41L41 40L40 40L40 41L39 41L39 42L40 42L40 43L39 43L39 44L37 44L37 43L36 43L36 44L37 44L37 46L38 46L38 45L40 45L40 51L38 51L38 49L39 49L39 47L38 47L38 49L37 49L37 51L38 51L38 53L39 53L39 52L40 52L40 53L41 53L41 52L43 52L43 53L44 53L44 52L43 52L43 51L45 51L45 52L46 52L46 54L47 54L47 55L46 55L46 56L48 56L48 55L49 55L49 54L51 54L51 55L52 55L52 54L51 54L51 53L49 53L49 54L48 54L48 52L47 52L47 49L48 49L48 47L49 47L49 45L52 45L52 46L53 46L53 47L52 47L52 48L54 48L54 49L55 49L55 47L54 47L54 46L53 46L53 44L54 44L54 45L55 45L55 44L56 44L56 43L55 43L55 42L54 42L54 43L53 43L53 41L52 41L52 40L47 40L47 39L48 39L48 38L50 38L50 39L51 39L51 37L49 37L49 36L50 36L50 35L53 35L53 34L54 34L54 33L51 33L51 32L50 32L50 31L49 31L49 32L50 32L50 35L46 35L46 34L49 34L49 33L48 33L48 31L47 31L47 30L48 30L48 29L46 29L46 28L47 28L47 27L48 27L48 26L47 26L47 25L49 25L49 26L50 26L50 25L51 25L51 26L52 26L52 25L54 25L54 24L55 24L55 25L56 25L56 24L55 24L55 21L56 21L56 19L55 19L55 18L56 18L56 16L55 16L55 14L52 14L52 13L53 13L53 12L54 12L54 13L55 13L55 12L56 12L56 11L55 11L55 9L53 9L53 10L54 10L54 11L52 11L52 12L51 12L51 14L52 14L52 15L53 15L53 16L52 16L52 17L51 17L51 18L52 18L52 19L53 19L53 20L52 20L52 21L51 21L51 20L49 20L49 19L50 19L50 17L49 17L49 19L48 19L48 21L46 21L46 19L45 19L45 21L46 21L46 26L47 26L47 27L45 27L45 30L46 30L46 31L47 31L47 33L46 33L46 32L45 32L45 33L46 33L46 34L44 34L44 33L43 33L43 34L44 34L44 35L42 35L42 34L40 34L40 33L41 33L41 32L40 32L40 31L39 31L39 32L40 32L40 33L39 33L39 34L38 34L38 33L37 33L37 34L38 34L38 36L37 36L37 38L35 38L35 33L34 33L34 32L33 32L33 33L32 33L32 31L33 31L33 30L32 30L32 28L33 28L33 27L34 27L34 31L36 31L36 30L37 30L37 32L38 32L38 30L37 30L37 29L38 29L38 28L37 28L37 27L39 27L39 28L40 28L40 29L39 29L39 30L40 30L40 29L43 29L43 31L44 31L44 29L43 29L43 28L42 28L42 25L44 25L44 24L45 24L45 22L44 22L44 16L45 16L45 14L44 14L44 12L45 12L45 11L43 11L43 12L41 12L41 11L40 11L40 13L39 13L39 12L37 12L37 11L39 11L39 10L38 10L38 8L37 8L37 9L35 9L35 7L36 7L36 5L38 5L38 4L40 4L40 3L42 3L42 2L40 2L40 3L38 3L38 2L37 2L37 3L36 3L36 2L35 2L35 3L34 3L34 5L33 5L33 3L32 3L32 1L31 1L31 2L29 2L29 1L28 1L28 3L27 3L27 1ZM33 1L33 2L34 2L34 1ZM45 1L45 2L47 2L47 1ZM9 2L9 3L10 3L10 4L11 4L11 3L10 3L10 2ZM43 2L43 3L44 3L44 4L43 4L43 7L42 7L42 6L41 6L41 5L39 5L39 7L40 7L40 6L41 6L41 8L40 8L40 9L42 9L42 8L43 8L43 10L44 10L44 8L45 8L45 7L46 7L46 6L45 6L45 7L44 7L44 4L45 4L45 5L47 5L47 3L44 3L44 2ZM25 3L25 4L24 4L24 5L23 5L23 6L22 6L22 7L23 7L23 10L25 10L25 11L23 11L23 12L22 12L22 11L20 11L20 10L19 10L19 11L20 11L20 14L19 14L19 12L18 12L18 13L17 13L17 14L15 14L15 13L13 13L13 14L12 14L12 17L13 17L13 16L14 16L14 17L17 17L17 19L16 19L16 20L17 20L17 21L15 21L15 20L14 20L14 19L13 19L13 18L11 18L11 19L12 19L12 20L13 20L13 21L14 21L14 22L12 22L12 24L13 24L13 23L14 23L14 22L15 22L15 23L16 23L16 22L19 22L19 23L20 23L20 22L22 22L22 23L21 23L21 25L20 25L20 27L22 27L22 28L25 28L25 29L23 29L23 30L22 30L22 29L20 29L20 30L19 30L19 29L18 29L18 30L19 30L19 31L17 31L17 32L16 32L16 33L14 33L14 34L13 34L13 35L14 35L14 36L15 36L15 37L16 37L16 36L17 36L17 37L22 37L22 38L23 38L23 37L24 37L24 38L26 38L26 40L25 40L25 41L24 41L24 39L22 39L22 40L21 40L21 38L20 38L20 39L18 39L18 38L16 38L16 39L15 39L15 38L14 38L14 40L15 40L15 43L16 43L16 40L17 40L17 41L19 41L19 40L20 40L20 42L19 42L19 44L20 44L20 46L21 46L21 47L22 47L22 48L23 48L23 47L22 47L22 46L21 46L21 45L24 45L24 46L26 46L26 47L27 47L27 46L26 46L26 45L29 45L29 44L28 44L28 43L29 43L29 42L28 42L28 41L29 41L29 40L31 40L31 39L33 39L33 38L34 38L34 39L35 39L35 38L34 38L34 33L33 33L33 35L31 35L31 36L30 36L30 34L31 34L31 33L29 33L29 31L30 31L30 32L31 32L31 31L32 31L32 30L31 30L31 25L30 25L30 24L31 24L31 22L34 22L34 23L32 23L32 27L33 27L33 26L34 26L34 25L37 25L37 24L34 24L34 23L35 23L35 22L37 22L37 23L38 23L38 22L39 22L39 21L40 21L40 22L43 22L43 23L44 23L44 22L43 22L43 21L42 21L42 20L41 20L41 21L40 21L40 18L41 18L41 19L42 19L42 18L43 18L43 17L42 17L42 15L43 15L43 16L44 16L44 14L43 14L43 13L40 13L40 14L39 14L39 13L38 13L38 15L39 15L39 17L38 17L38 16L37 16L37 15L35 15L35 17L38 17L38 18L39 18L39 19L37 19L37 18L35 18L35 19L36 19L36 20L35 20L35 22L34 22L34 13L33 13L33 12L32 12L32 13L30 13L30 15L33 15L33 16L32 16L32 17L31 17L31 16L29 16L29 13L27 13L27 14L26 14L26 11L27 11L27 12L28 12L28 9L29 9L29 12L31 12L31 6L32 6L32 7L33 7L33 8L32 8L32 11L33 11L33 10L34 10L34 12L35 12L35 13L36 13L36 14L37 14L37 12L35 12L35 11L36 11L36 10L34 10L34 9L33 9L33 8L34 8L34 7L35 7L35 5L36 5L36 4L35 4L35 5L34 5L34 7L33 7L33 5L32 5L32 3L31 3L31 4L30 4L30 3L28 3L28 4L26 4L26 3ZM37 3L37 4L38 4L38 3ZM12 4L12 5L13 5L13 7L14 7L14 5L13 5L13 4ZM8 5L8 7L9 7L9 5ZM27 5L27 8L30 8L30 5ZM11 6L11 8L12 8L12 6ZM15 6L15 7L16 7L16 6ZM19 6L19 7L20 7L20 6ZM23 6L23 7L24 7L24 8L25 8L25 10L27 10L27 9L26 9L26 6L25 6L25 7L24 7L24 6ZM28 6L28 7L29 7L29 6ZM37 6L37 7L38 7L38 6ZM13 8L13 9L14 9L14 8ZM51 9L51 10L52 10L52 9ZM1 10L1 12L4 12L4 11L2 11L2 10ZM6 11L6 12L7 12L7 11ZM47 11L47 12L49 12L49 11ZM23 12L23 13L21 13L21 14L20 14L20 15L19 15L19 14L17 14L17 16L19 16L19 21L20 21L20 20L21 20L21 21L24 21L24 22L25 22L25 23L26 23L26 22L28 22L28 23L27 23L27 26L29 26L29 22L28 22L28 21L32 21L32 20L31 20L31 19L30 19L30 18L28 18L28 17L27 17L27 15L28 15L28 14L27 14L27 15L26 15L26 20L27 20L27 19L30 19L30 20L28 20L28 21L24 21L24 20L25 20L25 18L24 18L24 19L20 19L20 15L21 15L21 17L25 17L25 14L23 14L23 13L24 13L24 12ZM4 13L4 14L5 14L5 15L6 15L6 16L7 16L7 17L9 17L9 16L8 16L8 14L7 14L7 13L6 13L6 14L5 14L5 13ZM10 13L10 14L11 14L11 13ZM32 13L32 14L33 14L33 13ZM47 13L47 14L49 14L49 13ZM1 14L1 15L2 15L2 16L3 16L3 14ZM6 14L6 15L7 15L7 14ZM21 14L21 15L22 15L22 16L23 16L23 15L22 15L22 14ZM14 15L14 16L15 16L15 15ZM40 15L40 17L39 17L39 18L40 18L40 17L41 17L41 15ZM50 15L50 16L51 16L51 15ZM53 16L53 17L52 17L52 18L53 18L53 17L55 17L55 16ZM32 18L32 19L33 19L33 18ZM0 20L0 21L1 21L1 20ZM37 20L37 22L38 22L38 20ZM6 21L6 22L7 22L7 21ZM48 21L48 22L50 22L50 23L47 23L47 24L50 24L50 23L52 23L52 24L51 24L51 25L52 25L52 24L53 24L53 23L52 23L52 22L54 22L54 21L52 21L52 22L51 22L51 21ZM22 23L22 25L21 25L21 26L22 26L22 25L23 25L23 24L24 24L24 23ZM41 23L41 25L42 25L42 23ZM14 24L14 25L15 25L15 24ZM33 24L33 25L34 25L34 24ZM6 25L6 26L7 26L7 25ZM25 25L25 26L23 26L23 27L26 27L26 25ZM38 25L38 26L40 26L40 25ZM36 26L36 27L35 27L35 29L37 29L37 28L36 28L36 27L37 27L37 26ZM3 27L3 29L4 29L4 27ZM5 27L5 30L8 30L8 27ZM27 27L27 30L30 30L30 27ZM40 27L40 28L41 28L41 27ZM49 27L49 30L52 30L52 27ZM6 28L6 29L7 29L7 28ZM28 28L28 29L29 29L29 28ZM50 28L50 29L51 29L51 28ZM25 29L25 30L24 30L24 31L22 31L22 30L20 30L20 31L19 31L19 33L21 33L21 34L20 34L20 35L19 35L19 36L22 36L22 37L23 37L23 35L21 35L21 34L23 34L23 33L25 33L25 32L26 32L26 31L25 31L25 30L26 30L26 29ZM53 29L53 31L52 31L52 32L55 32L55 30L54 30L54 29ZM21 31L21 33L22 33L22 31ZM6 33L6 34L7 34L7 33ZM16 33L16 34L15 34L15 36L16 36L16 34L18 34L18 33ZM26 33L26 34L24 34L24 36L25 36L25 37L26 37L26 38L27 38L27 39L28 39L28 38L29 38L29 39L31 39L31 38L33 38L33 37L32 37L32 36L31 36L31 37L29 37L29 36L28 36L28 34L29 34L29 33L28 33L28 34L27 34L27 33ZM55 33L55 34L56 34L56 33ZM26 34L26 35L25 35L25 36L27 36L27 37L28 37L28 36L27 36L27 34ZM39 35L39 36L40 36L40 35ZM41 35L41 37L42 37L42 39L43 39L43 38L44 38L44 37L45 37L45 39L44 39L44 41L45 41L45 42L46 42L46 41L47 41L47 40L46 40L46 41L45 41L45 39L47 39L47 38L46 38L46 37L47 37L47 36L46 36L46 35L44 35L44 37L43 37L43 36L42 36L42 35ZM0 36L0 37L1 37L1 36ZM45 36L45 37L46 37L46 36ZM52 36L52 38L53 38L53 36ZM0 38L0 39L1 39L1 38ZM37 38L37 39L38 39L38 38ZM6 39L6 40L7 40L7 39ZM9 40L9 41L8 41L8 43L7 43L7 42L6 42L6 43L7 43L7 44L5 44L5 45L7 45L7 44L8 44L8 45L9 45L9 44L8 44L8 43L11 43L11 44L13 44L13 43L11 43L11 42L10 42L10 41L12 41L12 40ZM22 40L22 42L20 42L20 43L22 43L22 44L23 44L23 43L28 43L28 42L27 42L27 41L26 41L26 42L23 42L23 40ZM1 41L1 42L2 42L2 41ZM13 41L13 42L14 42L14 41ZM48 41L48 43L47 43L47 44L46 44L46 45L47 45L47 47L46 47L46 49L47 49L47 47L48 47L48 45L49 45L49 43L50 43L50 44L51 44L51 43L52 43L52 44L53 44L53 43L52 43L52 41L51 41L51 43L50 43L50 42L49 42L49 41ZM17 42L17 43L18 43L18 42ZM24 44L24 45L25 45L25 44ZM47 44L47 45L48 45L48 44ZM30 45L30 46L31 46L31 45ZM1 46L1 47L2 47L2 46ZM50 46L50 47L51 47L51 46ZM27 49L27 52L30 52L30 49ZM49 49L49 52L52 52L52 49ZM28 50L28 51L29 51L29 50ZM50 50L50 51L51 51L51 50ZM53 50L53 54L55 54L55 53L56 53L56 52L55 52L55 51L54 51L54 50ZM12 51L12 52L13 52L13 51ZM54 52L54 53L55 53L55 52ZM11 53L11 54L10 54L10 55L9 55L9 56L10 56L10 55L11 55L11 54L12 54L12 53ZM30 53L30 54L31 54L31 53ZM32 53L32 54L33 54L33 53ZM34 53L34 54L35 54L35 53ZM56 56L56 57L57 57L57 56ZM0 0L0 7L7 7L7 0ZM1 1L1 6L6 6L6 1ZM2 2L2 5L5 5L5 2ZM50 0L50 7L57 7L57 0ZM51 1L51 6L56 6L56 1ZM52 2L52 5L55 5L55 2ZM0 50L0 57L7 57L7 50ZM1 51L1 56L6 56L6 51ZM2 52L2 55L5 55L5 52Z" fill="#000000"/></g></g></svg>
