<?xml version="1.0" encoding="UTF-8"?>
<svg xmlns="http://www.w3.org/2000/svg" version="1.1" width="300" height="300" viewBox="0 0 300 300"><rect x="0" y="0" width="300" height="300" fill="#fefefe"/><g transform="scale(4.615)"><g transform="translate(4,4)"><path fill-rule="evenodd" d="M9 0L9 1L8 1L8 2L9 2L9 1L10 1L10 3L8 3L8 4L9 4L9 5L8 5L8 7L9 7L9 8L6 8L6 9L10 9L10 7L11 7L11 10L10 10L10 11L8 11L8 12L10 12L10 11L11 11L11 13L10 13L10 15L7 15L7 14L8 14L8 13L7 13L7 12L6 12L6 11L7 11L7 10L5 10L5 11L3 11L3 10L4 10L4 9L5 9L5 8L0 8L0 11L1 11L1 9L2 9L2 11L3 11L3 12L4 12L4 14L5 14L5 15L7 15L7 16L4 16L4 15L3 15L3 14L2 14L2 13L1 13L1 14L0 14L0 19L2 19L2 17L3 17L3 18L4 18L4 17L9 17L9 19L8 19L8 18L5 18L5 19L7 19L7 20L6 20L6 21L9 21L9 20L10 20L10 21L12 21L12 23L11 23L11 24L12 24L12 23L16 23L16 24L15 24L15 25L14 25L14 26L11 26L11 25L10 25L10 22L8 22L8 23L7 23L7 22L4 22L4 21L5 21L5 20L4 20L4 21L3 21L3 22L2 22L2 20L1 20L1 22L0 22L0 23L1 23L1 22L2 22L2 23L3 23L3 24L4 24L4 25L3 25L3 26L1 26L1 27L3 27L3 26L4 26L4 31L8 31L8 33L7 33L7 32L6 32L6 33L5 33L5 35L7 35L7 34L8 34L8 35L9 35L9 34L10 34L10 35L11 35L11 37L10 37L10 38L11 38L11 40L10 40L10 39L9 39L9 38L6 38L6 39L7 39L7 40L6 40L6 41L7 41L7 40L8 40L8 41L9 41L9 40L10 40L10 42L9 42L9 45L8 45L8 47L9 47L9 49L8 49L8 48L6 48L6 49L8 49L8 51L10 51L10 52L8 52L8 57L9 57L9 56L12 56L12 57L13 57L13 56L14 56L14 57L16 57L16 56L17 56L17 57L20 57L20 56L19 56L19 55L20 55L20 54L19 54L19 53L20 53L20 52L21 52L21 51L22 51L22 50L26 50L26 53L25 53L25 52L24 52L24 53L21 53L21 56L23 56L23 57L26 57L26 56L27 56L27 57L29 57L29 56L30 56L30 57L31 57L31 56L35 56L35 57L39 57L39 56L40 56L40 55L41 55L41 56L42 56L42 55L44 55L44 56L43 56L43 57L44 57L44 56L45 56L45 57L46 57L46 56L45 56L45 55L44 55L44 54L45 54L45 53L47 53L47 51L46 51L46 50L45 50L45 51L44 51L44 48L43 48L43 47L42 47L42 48L41 48L41 46L43 46L43 45L44 45L44 47L45 47L45 48L46 48L46 47L47 47L47 48L48 48L48 49L47 49L47 50L48 50L48 54L46 54L46 55L48 55L48 56L47 56L47 57L49 57L49 56L50 56L50 57L52 57L52 55L51 55L51 53L52 53L52 54L53 54L53 57L54 57L54 56L55 56L55 57L56 57L56 56L55 56L55 54L54 54L54 53L55 53L55 51L56 51L56 52L57 52L57 51L56 51L56 50L57 50L57 48L56 48L56 46L57 46L57 44L56 44L56 41L55 41L55 39L57 39L57 35L56 35L56 33L57 33L57 32L56 32L56 30L57 30L57 29L54 29L54 28L55 28L55 27L56 27L56 28L57 28L57 27L56 27L56 26L57 26L57 25L56 25L56 22L57 22L57 21L56 21L56 22L54 22L54 21L51 21L51 20L52 20L52 19L53 19L53 20L55 20L55 19L56 19L56 20L57 20L57 19L56 19L56 18L57 18L57 17L56 17L56 16L57 16L57 15L56 15L56 14L57 14L57 12L55 12L55 11L56 11L56 10L54 10L54 11L53 11L53 9L54 9L54 8L53 8L53 9L52 9L52 8L51 8L51 9L52 9L52 10L49 10L49 9L50 9L50 8L49 8L49 9L47 9L47 5L48 5L48 0L46 0L46 1L45 1L45 2L44 2L44 3L43 3L43 4L40 4L40 5L39 5L39 6L38 6L38 2L39 2L39 3L41 3L41 2L43 2L43 0L41 0L41 1L40 1L40 0L39 0L39 1L38 1L38 0L37 0L37 1L38 1L38 2L37 2L37 3L36 3L36 0L35 0L35 1L33 1L33 0L29 0L29 1L30 1L30 2L29 2L29 4L26 4L26 3L23 3L23 2L28 2L28 1L25 1L25 0L23 0L23 2L22 2L22 3L23 3L23 4L24 4L24 5L22 5L22 4L19 4L19 3L18 3L18 2L20 2L20 0L18 0L18 2L17 2L17 1L14 1L14 0L11 0L11 1L10 1L10 0ZM21 0L21 1L22 1L22 0ZM11 1L11 2L12 2L12 3L10 3L10 5L9 5L9 7L10 7L10 5L11 5L11 7L12 7L12 5L11 5L11 4L13 4L13 8L14 8L14 10L17 10L17 11L18 11L18 10L19 10L19 9L18 9L18 8L17 8L17 7L18 7L18 6L19 6L19 7L20 7L20 5L19 5L19 4L18 4L18 3L16 3L16 2L14 2L14 1ZM32 1L32 2L31 2L31 3L30 3L30 4L31 4L31 8L32 8L32 10L31 10L31 11L30 11L30 10L28 10L28 11L29 11L29 12L28 12L28 13L27 13L27 15L26 15L26 12L27 12L27 11L26 11L26 12L25 12L25 11L23 11L23 12L25 12L25 14L23 14L23 13L22 13L22 12L21 12L21 11L22 11L22 10L23 10L23 9L25 9L25 8L26 8L26 4L25 4L25 8L24 8L24 6L23 6L23 8L20 8L20 10L21 10L21 11L19 11L19 12L20 12L20 14L19 14L19 15L17 15L17 13L18 13L18 12L17 12L17 13L16 13L16 11L15 11L15 13L13 13L13 12L14 12L14 11L13 11L13 10L12 10L12 13L13 13L13 14L11 14L11 17L10 17L10 16L9 16L9 17L10 17L10 18L11 18L11 19L10 19L10 20L11 20L11 19L12 19L12 18L13 18L13 19L14 19L14 20L13 20L13 21L14 21L14 22L16 22L16 21L17 21L17 20L18 20L18 17L17 17L17 16L19 16L19 17L20 17L20 18L19 18L19 20L20 20L20 21L19 21L19 22L20 22L20 23L18 23L18 22L17 22L17 24L16 24L16 25L15 25L15 26L16 26L16 27L13 27L13 28L11 28L11 27L10 27L10 25L9 25L9 23L8 23L8 25L6 25L6 24L7 24L7 23L5 23L5 25L6 25L6 26L8 26L8 25L9 25L9 27L10 27L10 29L9 29L9 33L8 33L8 34L9 34L9 33L10 33L10 30L12 30L12 29L13 29L13 31L14 31L14 32L13 32L13 35L12 35L12 36L14 36L14 33L15 33L15 35L16 35L16 34L17 34L17 36L15 36L15 37L12 37L12 38L13 38L13 39L12 39L12 40L11 40L11 41L12 41L12 42L13 42L13 41L15 41L15 42L14 42L14 44L13 44L13 43L11 43L11 45L9 45L9 47L10 47L10 48L12 48L12 46L13 46L13 47L14 47L14 48L15 48L15 47L16 47L16 48L17 48L17 45L18 45L18 44L16 44L16 43L18 43L18 42L19 42L19 41L20 41L20 42L21 42L21 43L20 43L20 44L19 44L19 45L20 45L20 46L19 46L19 47L18 47L18 48L19 48L19 49L20 49L20 50L21 50L21 49L23 49L23 48L24 48L24 49L26 49L26 48L27 48L27 47L28 47L28 48L30 48L30 47L28 47L28 46L30 46L30 45L31 45L31 44L30 44L30 45L28 45L28 43L27 43L27 42L30 42L30 41L29 41L29 40L32 40L32 41L31 41L31 42L32 42L32 43L33 43L33 44L32 44L32 46L31 46L31 47L32 47L32 46L35 46L35 47L33 47L33 48L31 48L31 53L30 53L30 54L26 54L26 55L27 55L27 56L29 56L29 55L30 55L30 56L31 56L31 54L32 54L32 53L33 53L33 54L34 54L34 55L35 55L35 56L36 56L36 54L35 54L35 51L34 51L34 50L36 50L36 52L38 52L38 54L40 54L40 53L41 53L41 52L40 52L40 51L39 51L39 52L38 52L38 50L41 50L41 51L42 51L42 50L41 50L41 48L39 48L39 47L38 47L38 48L37 48L37 49L38 49L38 50L36 50L36 49L34 49L34 48L36 48L36 47L37 47L37 46L35 46L35 45L34 45L34 43L35 43L35 44L36 44L36 43L37 43L37 42L35 42L35 40L38 40L38 42L39 42L39 44L40 44L40 45L38 45L38 46L41 46L41 44L42 44L42 42L40 42L40 41L41 41L41 40L42 40L42 41L45 41L45 42L43 42L43 44L44 44L44 45L45 45L45 46L48 46L48 44L50 44L50 43L51 43L51 45L49 45L49 46L50 46L50 47L48 47L48 48L53 48L53 47L55 47L55 46L56 46L56 45L55 45L55 44L54 44L54 45L53 45L53 43L54 43L54 42L53 42L53 41L54 41L54 40L53 40L53 39L55 39L55 37L56 37L56 35L55 35L55 34L54 34L54 33L56 33L56 32L54 32L54 31L53 31L53 32L54 32L54 33L52 33L52 32L51 32L51 33L52 33L52 34L50 34L50 31L48 31L48 30L47 30L47 29L46 29L46 30L47 30L47 31L48 31L48 32L47 32L47 33L46 33L46 31L45 31L45 28L46 28L46 27L47 27L47 25L48 25L48 24L49 24L49 25L50 25L50 26L51 26L51 25L52 25L52 26L53 26L53 27L54 27L54 26L53 26L53 25L55 25L55 26L56 26L56 25L55 25L55 24L53 24L53 23L52 23L52 24L51 24L51 23L50 23L50 22L51 22L51 21L49 21L49 20L48 20L48 21L49 21L49 23L47 23L47 25L46 25L46 24L45 24L45 23L46 23L46 22L47 22L47 20L44 20L44 18L47 18L47 17L48 17L48 16L49 16L49 15L50 15L50 16L51 16L51 17L50 17L50 19L52 19L52 18L55 18L55 17L53 17L53 15L52 15L52 16L51 16L51 15L50 15L50 14L51 14L51 12L50 12L50 11L49 11L49 10L47 10L47 9L45 9L45 8L44 8L44 6L45 6L45 7L46 7L46 6L45 6L45 4L46 4L46 5L47 5L47 3L44 3L44 6L43 6L43 7L42 7L42 5L40 5L40 6L39 6L39 9L38 9L38 6L37 6L37 7L36 7L36 5L37 5L37 4L36 4L36 5L35 5L35 2L34 2L34 3L32 3L32 2L33 2L33 1ZM46 1L46 2L47 2L47 1ZM13 2L13 4L14 4L14 2ZM31 3L31 4L32 4L32 5L34 5L34 7L33 7L33 6L32 6L32 7L33 7L33 9L34 9L34 8L35 8L35 9L37 9L37 10L36 10L36 11L35 11L35 14L33 14L33 13L34 13L34 12L33 12L33 13L32 13L32 11L33 11L33 10L32 10L32 11L31 11L31 13L30 13L30 14L29 14L29 13L28 13L28 14L29 14L29 16L28 16L28 15L27 15L27 16L28 16L28 17L27 17L27 18L28 18L28 19L27 19L27 20L28 20L28 19L29 19L29 20L31 20L31 21L29 21L29 22L30 22L30 23L29 23L29 24L30 24L30 23L31 23L31 21L32 21L32 20L33 20L33 21L34 21L34 19L35 19L35 23L34 23L34 22L33 22L33 23L32 23L32 24L31 24L31 25L29 25L29 26L26 26L26 25L25 25L25 24L27 24L27 22L28 22L28 21L25 21L25 20L26 20L26 18L25 18L25 17L26 17L26 15L24 15L24 16L25 16L25 17L22 17L22 16L21 16L21 15L23 15L23 14L22 14L22 13L21 13L21 14L20 14L20 17L22 17L22 19L23 19L23 20L24 20L24 21L22 21L22 22L21 22L21 23L22 23L22 22L24 22L24 21L25 21L25 22L26 22L26 23L25 23L25 24L24 24L24 23L23 23L23 25L22 25L22 24L17 24L17 27L18 27L18 26L19 26L19 28L20 28L20 29L18 29L18 28L16 28L16 29L15 29L15 30L14 30L14 31L16 31L16 29L18 29L18 30L17 30L17 34L18 34L18 33L19 33L19 34L20 34L20 32L23 32L23 31L24 31L24 32L25 32L25 33L23 33L23 34L22 34L22 33L21 33L21 36L22 36L22 35L23 35L23 34L24 34L24 36L23 36L23 37L19 37L19 36L20 36L20 35L19 35L19 36L17 36L17 39L19 39L19 40L17 40L17 41L19 41L19 40L21 40L21 39L22 39L22 40L23 40L23 41L24 41L24 42L22 42L22 43L21 43L21 44L20 44L20 45L21 45L21 46L20 46L20 49L21 49L21 47L25 47L25 45L24 45L24 44L27 44L27 43L25 43L25 41L24 41L24 40L25 40L25 37L26 37L26 39L27 39L27 40L28 40L28 39L27 39L27 38L28 38L28 37L27 37L27 35L26 35L26 34L25 34L25 33L27 33L27 32L28 32L28 33L29 33L29 34L30 34L30 36L29 36L29 37L31 37L31 38L29 38L29 39L33 39L33 40L35 40L35 39L37 39L37 38L38 38L38 37L40 37L40 38L41 38L41 39L42 39L42 38L43 38L43 37L44 37L44 38L45 38L45 39L43 39L43 40L45 40L45 39L46 39L46 41L47 41L47 39L48 39L48 38L47 38L47 39L46 39L46 38L45 38L45 37L47 37L47 36L46 36L46 35L47 35L47 34L45 34L45 35L44 35L44 33L43 33L43 32L45 32L45 31L43 31L43 32L41 32L41 33L39 33L39 34L40 34L40 35L39 35L39 36L38 36L38 33L37 33L37 32L35 32L35 34L37 34L37 36L35 36L35 35L34 35L34 34L33 34L33 35L31 35L31 34L32 34L32 31L36 31L36 30L37 30L37 29L38 29L38 28L40 28L40 27L36 27L36 26L34 26L34 27L33 27L33 26L32 26L32 24L33 24L33 25L37 25L37 26L38 26L38 25L40 25L40 24L41 24L41 22L42 22L42 23L43 23L43 25L41 25L41 26L43 26L43 25L44 25L44 26L45 26L45 27L43 27L43 28L45 28L45 27L46 27L46 26L45 26L45 25L44 25L44 20L43 20L43 18L44 18L44 15L42 15L42 16L41 16L41 14L43 14L43 13L44 13L44 11L45 11L45 12L49 12L49 13L47 13L47 14L45 14L45 17L46 17L46 16L48 16L48 15L49 15L49 14L50 14L50 12L49 12L49 11L47 11L47 10L44 10L44 8L42 8L42 7L41 7L41 6L40 6L40 7L41 7L41 9L40 9L40 10L39 10L39 11L37 11L37 10L38 10L38 9L37 9L37 8L35 8L35 5L34 5L34 4L32 4L32 3ZM15 4L15 5L14 5L14 7L15 7L15 9L17 9L17 10L18 10L18 9L17 9L17 8L16 8L16 7L17 7L17 6L16 6L16 7L15 7L15 5L16 5L16 4ZM17 4L17 5L18 5L18 4ZM27 5L27 8L30 8L30 5ZM21 6L21 7L22 7L22 6ZM28 6L28 7L29 7L29 6ZM48 6L48 7L49 7L49 6ZM55 8L55 9L56 9L56 8ZM40 10L40 11L39 11L39 12L40 12L40 13L38 13L38 14L37 14L37 13L36 13L36 14L37 14L37 15L35 15L35 16L33 16L33 15L32 15L32 13L31 13L31 14L30 14L30 15L32 15L32 19L33 19L33 18L35 18L35 19L36 19L36 20L37 20L37 21L38 21L38 22L37 22L37 24L40 24L40 22L39 22L39 21L42 21L42 20L39 20L39 21L38 21L38 19L39 19L39 17L41 17L41 16L39 16L39 15L40 15L40 14L41 14L41 13L43 13L43 11L44 11L44 10L43 10L43 11L41 11L41 10ZM40 11L40 12L41 12L41 11ZM5 12L5 13L6 13L6 14L7 14L7 13L6 13L6 12ZM52 12L52 13L53 13L53 14L56 14L56 13L55 13L55 12L54 12L54 13L53 13L53 12ZM15 13L15 14L14 14L14 15L12 15L12 17L14 17L14 18L15 18L15 21L16 21L16 20L17 20L17 18L15 18L15 17L16 17L16 13ZM38 14L38 15L39 15L39 14ZM1 15L1 16L2 16L2 15ZM14 15L14 17L15 17L15 15ZM35 16L35 17L37 17L37 18L38 18L38 17L39 17L39 16L38 16L38 17L37 17L37 16ZM42 16L42 17L43 17L43 16ZM23 18L23 19L24 19L24 18ZM30 18L30 19L31 19L31 18ZM41 18L41 19L42 19L42 18ZM48 18L48 19L49 19L49 18ZM20 19L20 20L21 20L21 19ZM45 21L45 22L46 22L46 21ZM0 24L0 25L2 25L2 24ZM19 25L19 26L20 26L20 27L21 27L21 28L22 28L22 29L20 29L20 30L18 30L18 31L19 31L19 32L20 32L20 31L23 31L23 29L26 29L26 28L24 28L24 27L23 27L23 26L22 26L22 25ZM21 26L21 27L22 27L22 26ZM25 26L25 27L26 27L26 26ZM31 26L31 27L32 27L32 29L31 29L31 31L28 31L28 32L29 32L29 33L31 33L31 31L32 31L32 30L35 30L35 28L36 28L36 27L35 27L35 28L33 28L33 27L32 27L32 26ZM5 27L5 30L8 30L8 27ZM27 27L27 30L30 30L30 27ZM41 27L41 28L42 28L42 27ZM49 27L49 30L52 30L52 27ZM2 28L2 30L1 30L1 29L0 29L0 31L1 31L1 32L3 32L3 33L1 33L1 34L0 34L0 35L2 35L2 37L0 37L0 41L1 41L1 42L0 42L0 44L1 44L1 42L2 42L2 43L5 43L5 44L4 44L4 46L5 46L5 47L3 47L3 46L2 46L2 45L0 45L0 48L5 48L5 47L7 47L7 46L5 46L5 44L6 44L6 45L7 45L7 44L6 44L6 43L7 43L7 42L6 42L6 43L5 43L5 42L4 42L4 40L5 40L5 36L4 36L4 35L3 35L3 34L4 34L4 32L3 32L3 31L2 31L2 30L3 30L3 28ZM6 28L6 29L7 29L7 28ZM28 28L28 29L29 29L29 28ZM50 28L50 29L51 29L51 28ZM39 29L39 30L38 30L38 32L39 32L39 31L40 31L40 30L44 30L44 29ZM53 29L53 30L54 30L54 29ZM24 30L24 31L25 31L25 32L26 32L26 31L25 31L25 30ZM11 31L11 34L12 34L12 31ZM48 32L48 33L49 33L49 32ZM6 33L6 34L7 34L7 33ZM42 34L42 36L44 36L44 37L45 37L45 36L44 36L44 35L43 35L43 34ZM49 34L49 35L50 35L50 36L49 36L49 38L50 38L50 36L51 36L51 37L52 37L52 35L53 35L53 37L55 37L55 35L53 35L53 34L52 34L52 35L50 35L50 34ZM33 35L33 36L32 36L32 37L33 37L33 39L35 39L35 36L34 36L34 35ZM6 36L6 37L9 37L9 36ZM40 36L40 37L41 37L41 36ZM2 37L2 38L3 38L3 37ZM15 37L15 38L14 38L14 39L13 39L13 40L12 40L12 41L13 41L13 40L15 40L15 41L16 41L16 39L15 39L15 38L16 38L16 37ZM23 37L23 38L22 38L22 39L23 39L23 40L24 40L24 39L23 39L23 38L24 38L24 37ZM19 38L19 39L20 39L20 38ZM52 38L52 39L53 39L53 38ZM38 39L38 40L40 40L40 39ZM49 39L49 41L48 41L48 42L47 42L47 43L46 43L46 42L45 42L45 43L46 43L46 44L45 44L45 45L47 45L47 43L50 43L50 42L51 42L51 43L53 43L53 42L51 42L51 41L53 41L53 40L51 40L51 39ZM26 41L26 42L27 42L27 41ZM32 41L32 42L33 42L33 43L34 43L34 42L33 42L33 41ZM40 43L40 44L41 44L41 43ZM14 44L14 45L15 45L15 44ZM21 44L21 45L22 45L22 46L24 46L24 45L22 45L22 44ZM11 45L11 46L10 46L10 47L11 47L11 46L12 46L12 45ZM26 45L26 47L27 47L27 46L28 46L28 45ZM54 45L54 46L55 46L55 45ZM1 46L1 47L2 47L2 46ZM14 46L14 47L15 47L15 46ZM51 46L51 47L52 47L52 46ZM38 48L38 49L39 49L39 48ZM42 48L42 49L43 49L43 48ZM54 48L54 49L56 49L56 48ZM9 49L9 50L10 50L10 51L12 51L12 52L10 52L10 53L9 53L9 55L10 55L10 54L13 54L13 55L15 55L15 56L16 56L16 55L15 55L15 54L16 54L16 53L17 53L17 52L16 52L16 51L17 51L17 50L18 50L18 49L13 49L13 50L14 50L14 52L13 52L13 51L12 51L12 50L10 50L10 49ZM27 49L27 52L30 52L30 49ZM33 49L33 50L34 50L34 49ZM49 49L49 52L52 52L52 49ZM28 50L28 51L29 51L29 50ZM50 50L50 51L51 51L51 50ZM54 50L54 51L55 51L55 50ZM19 51L19 52L20 52L20 51ZM32 51L32 52L33 52L33 53L34 53L34 52L33 52L33 51ZM45 51L45 52L44 52L44 53L43 53L43 52L42 52L42 53L43 53L43 54L44 54L44 53L45 53L45 52L46 52L46 51ZM12 52L12 53L13 53L13 52ZM14 52L14 54L15 54L15 53L16 53L16 52ZM53 52L53 53L54 53L54 52ZM24 53L24 54L23 54L23 55L24 55L24 56L25 56L25 53ZM18 54L18 55L19 55L19 54ZM37 55L37 56L39 56L39 55ZM50 55L50 56L51 56L51 55ZM0 0L0 7L7 7L7 0ZM1 1L1 6L6 6L6 1ZM2 2L2 5L5 5L5 2ZM50 0L50 7L57 7L57 0ZM51 1L51 6L56 6L56 1ZM52 2L52 5L55 5L55 2ZM0 50L0 57L7 57L7 50ZM1 51L1 56L6 56L6 51ZM2 52L2 55L5 55L5 52Z" fill="#000000"/></g></g></svg>
