<?xml version="1.0" encoding="UTF-8"?>
<svg xmlns="http://www.w3.org/2000/svg" version="1.1" width="300" height="300" viewBox="0 0 300 300"><rect x="0" y="0" width="300" height="300" fill="#fefefe"/><g transform="scale(4.615)"><g transform="translate(4,4)"><path fill-rule="evenodd" d="M10 0L10 1L8 1L8 2L10 2L10 1L11 1L11 2L12 2L12 0ZM18 0L18 2L17 2L17 1L16 1L16 3L18 3L18 4L17 4L17 6L16 6L16 7L15 7L15 5L16 5L16 4L15 4L15 5L14 5L14 8L13 8L13 6L12 6L12 9L11 9L11 10L10 10L10 9L9 9L9 8L6 8L6 9L7 9L7 10L5 10L5 11L8 11L8 12L6 12L6 13L8 13L8 14L4 14L4 13L3 13L3 11L2 11L2 9L3 9L3 10L4 10L4 9L5 9L5 8L0 8L0 9L1 9L1 11L2 11L2 13L3 13L3 15L5 15L5 16L6 16L6 17L7 17L7 18L5 18L5 17L4 17L4 16L3 16L3 17L4 17L4 18L3 18L3 22L2 22L2 23L1 23L1 26L0 26L0 27L2 27L2 28L1 28L1 30L0 30L0 31L2 31L2 32L0 32L0 35L1 35L1 34L3 34L3 33L4 33L4 36L0 36L0 43L1 43L1 42L2 42L2 43L3 43L3 42L4 42L4 44L5 44L5 43L7 43L7 42L8 42L8 44L6 44L6 45L5 45L5 47L3 47L3 46L2 46L2 45L3 45L3 44L2 44L2 45L1 45L1 46L0 46L0 48L5 48L5 47L7 47L7 46L8 46L8 47L10 47L10 46L11 46L11 45L12 45L12 47L13 47L13 46L14 46L14 45L15 45L15 44L11 44L11 45L10 45L10 44L9 44L9 42L8 42L8 40L9 40L9 41L10 41L10 42L11 42L11 43L12 43L12 42L13 42L13 41L12 41L12 42L11 42L11 40L14 40L14 41L16 41L16 39L13 39L13 38L12 38L12 37L10 37L10 38L8 38L8 39L7 39L7 38L6 38L6 39L7 39L7 40L5 40L5 38L3 38L3 37L4 37L4 36L5 36L5 37L7 37L7 36L8 36L8 37L9 37L9 36L10 36L10 35L11 35L11 36L12 36L12 35L13 35L13 37L14 37L14 38L16 38L16 37L15 37L15 36L17 36L17 37L18 37L18 38L17 38L17 40L18 40L18 41L17 41L17 42L16 42L16 44L18 44L18 45L17 45L17 47L18 47L18 46L20 46L20 45L19 45L19 42L20 42L20 43L21 43L21 44L22 44L22 45L21 45L21 47L20 47L20 48L16 48L16 47L15 47L15 48L14 48L14 49L13 49L13 48L12 48L12 49L13 49L13 50L12 50L12 52L11 52L11 48L9 48L9 49L8 49L8 51L9 51L9 52L8 52L8 57L9 57L9 56L10 56L10 57L11 57L11 56L10 56L10 53L9 53L9 52L11 52L11 55L12 55L12 56L13 56L13 57L16 57L16 56L17 56L17 57L22 57L22 56L19 56L19 55L20 55L20 54L19 54L19 53L20 53L20 52L21 52L21 51L20 51L20 50L19 50L19 49L21 49L21 50L22 50L22 52L23 52L23 50L25 50L25 49L26 49L26 52L24 52L24 53L23 53L23 54L22 54L22 53L21 53L21 54L22 54L22 55L23 55L23 57L26 57L26 55L27 55L27 54L30 54L30 53L31 53L31 50L32 50L32 48L31 48L31 46L28 46L28 48L25 48L25 49L24 49L24 48L23 48L23 49L21 49L21 47L23 47L23 46L24 46L24 47L25 47L25 44L27 44L27 43L23 43L23 42L25 42L25 41L23 41L23 42L22 42L22 41L21 41L21 42L20 42L20 40L21 40L21 38L22 38L22 39L24 39L24 40L25 40L25 39L27 39L27 40L28 40L28 39L27 39L27 38L28 38L28 37L26 37L26 38L25 38L25 36L27 36L27 34L26 34L26 35L25 35L25 33L26 33L26 32L28 32L28 33L29 33L29 34L30 34L30 36L29 36L29 37L31 37L31 38L29 38L29 39L33 39L33 40L35 40L35 42L37 42L37 43L34 43L34 42L33 42L33 41L32 41L32 40L29 40L29 42L28 42L28 44L29 44L29 43L30 43L30 44L31 44L31 45L32 45L32 44L33 44L33 43L34 43L34 45L35 45L35 46L32 46L32 47L35 47L35 46L36 46L36 48L34 48L34 49L33 49L33 50L34 50L34 51L35 51L35 54L33 54L33 53L34 53L34 52L33 52L33 51L32 51L32 52L33 52L33 53L32 53L32 54L31 54L31 56L30 56L30 55L29 55L29 56L27 56L27 57L29 57L29 56L30 56L30 57L31 57L31 56L35 56L35 57L39 57L39 56L37 56L37 55L41 55L41 57L42 57L42 55L43 55L43 57L44 57L44 54L45 54L45 53L47 53L47 56L46 56L46 57L47 57L47 56L50 56L50 57L52 57L52 55L51 55L51 53L52 53L52 54L53 54L53 52L54 52L54 53L57 53L57 51L56 51L56 52L55 52L55 51L54 51L54 50L57 50L57 48L56 48L56 46L57 46L57 43L56 43L56 41L55 41L55 39L57 39L57 37L55 37L55 36L57 36L57 35L56 35L56 33L57 33L57 32L56 32L56 30L57 30L57 29L55 29L55 31L53 31L53 29L54 29L54 28L55 28L55 27L56 27L56 28L57 28L57 27L56 27L56 26L57 26L57 25L56 25L56 22L57 22L57 21L56 21L56 20L57 20L57 19L56 19L56 16L57 16L57 15L56 15L56 14L57 14L57 12L56 12L56 14L54 14L54 15L53 15L53 13L54 13L54 12L55 12L55 11L56 11L56 10L54 10L54 11L52 11L52 10L53 10L53 9L54 9L54 8L53 8L53 9L52 9L52 8L51 8L51 9L52 9L52 10L51 10L51 11L50 11L50 8L49 8L49 6L48 6L48 7L47 7L47 5L48 5L48 0L45 0L45 2L44 2L44 3L41 3L41 2L43 2L43 0L41 0L41 1L40 1L40 0L39 0L39 1L38 1L38 0L37 0L37 1L38 1L38 2L39 2L39 3L41 3L41 4L40 4L40 5L39 5L39 6L38 6L38 7L37 7L37 5L38 5L38 4L37 4L37 3L36 3L36 0L35 0L35 1L33 1L33 2L32 2L32 0L29 0L29 2L27 2L27 1L26 1L26 0L23 0L23 2L22 2L22 0L21 0L21 3L23 3L23 4L22 4L22 7L23 7L23 6L24 6L24 8L25 8L25 9L23 9L23 10L22 10L22 11L21 11L21 10L20 10L20 9L19 9L19 8L21 8L21 4L19 4L19 3L20 3L20 0ZM14 1L14 2L13 2L13 3L11 3L11 4L12 4L12 5L13 5L13 4L14 4L14 2L15 2L15 1ZM46 1L46 2L47 2L47 1ZM18 2L18 3L19 3L19 2ZM23 2L23 3L26 3L26 4L25 4L25 8L26 8L26 4L30 4L30 3L27 3L27 2ZM31 2L31 3L32 3L32 4L31 4L31 8L32 8L32 10L29 10L29 12L28 12L28 13L26 13L26 12L27 12L27 11L26 11L26 12L25 12L25 10L23 10L23 11L24 11L24 13L22 13L22 12L21 12L21 13L20 13L20 11L19 11L19 13L20 13L20 14L19 14L19 15L18 15L18 16L19 16L19 17L15 17L15 16L14 16L14 15L13 15L13 14L15 14L15 13L16 13L16 16L17 16L17 13L18 13L18 12L17 12L17 11L18 11L18 9L15 9L15 8L14 8L14 9L12 9L12 10L17 10L17 11L16 11L16 12L15 12L15 13L12 13L12 12L14 12L14 11L9 11L9 9L8 9L8 11L9 11L9 13L12 13L12 14L11 14L11 15L10 15L10 16L8 16L8 15L9 15L9 14L8 14L8 15L6 15L6 16L7 16L7 17L8 17L8 18L7 18L7 19L6 19L6 20L8 20L8 22L7 22L7 21L6 21L6 22L5 22L5 23L4 23L4 22L3 22L3 23L2 23L2 24L3 24L3 25L4 25L4 26L8 26L8 25L6 25L6 24L7 24L7 23L9 23L9 20L8 20L8 18L9 18L9 19L10 19L10 20L11 20L11 21L10 21L10 22L11 22L11 23L10 23L10 25L9 25L9 26L10 26L10 27L9 27L9 28L10 28L10 29L11 29L11 28L12 28L12 27L13 27L13 25L14 25L14 24L16 24L16 25L15 25L15 26L14 26L14 27L15 27L15 28L13 28L13 29L12 29L12 31L13 31L13 32L10 32L10 31L11 31L11 30L9 30L9 32L10 32L10 34L8 34L8 33L5 33L5 31L4 31L4 33L5 33L5 34L7 34L7 35L5 35L5 36L7 36L7 35L10 35L10 34L11 34L11 35L12 35L12 34L11 34L11 33L13 33L13 35L14 35L14 36L15 36L15 34L19 34L19 33L20 33L20 35L19 35L19 37L22 37L22 38L24 38L24 37L23 37L23 36L24 36L24 34L23 34L23 33L25 33L25 32L26 32L26 31L23 31L23 29L26 29L26 28L25 28L25 27L26 27L26 26L27 26L27 25L28 25L28 26L29 26L29 25L30 25L30 24L29 24L29 21L31 21L31 24L32 24L32 26L31 26L31 28L32 28L32 29L31 29L31 30L35 30L35 31L32 31L32 33L33 33L33 36L32 36L32 37L33 37L33 39L35 39L35 40L38 40L38 42L39 42L39 43L40 43L40 44L39 44L39 45L38 45L38 46L39 46L39 47L38 47L38 48L37 48L37 49L38 49L38 50L36 50L36 49L34 49L34 50L36 50L36 52L37 52L37 51L38 51L38 52L39 52L39 53L37 53L37 54L40 54L40 53L43 53L43 54L44 54L44 53L45 53L45 52L44 52L44 53L43 53L43 52L42 52L42 50L41 50L41 48L42 48L42 49L43 49L43 51L46 51L46 50L47 50L47 53L48 53L48 50L47 50L47 49L48 49L48 48L49 48L49 47L48 47L48 48L47 48L47 47L46 47L46 48L44 48L44 47L45 47L45 46L48 46L48 44L50 44L50 45L49 45L49 46L50 46L50 48L52 48L52 47L54 47L54 46L56 46L56 43L55 43L55 44L54 44L54 45L52 45L52 44L53 44L53 43L54 43L54 42L53 42L53 41L51 41L51 42L50 42L50 43L47 43L47 42L48 42L48 41L49 41L49 39L47 39L47 37L48 37L48 36L50 36L50 39L51 39L51 40L52 40L52 39L54 39L54 38L53 38L53 35L55 35L55 34L54 34L54 32L53 32L53 31L50 31L50 32L49 32L49 31L48 31L48 30L47 30L47 29L48 29L48 28L47 28L47 29L46 29L46 30L47 30L47 31L45 31L45 30L44 30L44 31L45 31L45 32L43 32L43 30L41 30L41 29L43 29L43 27L44 27L44 26L46 26L46 27L45 27L45 28L44 28L44 29L45 29L45 28L46 28L46 27L47 27L47 26L48 26L48 25L49 25L49 23L50 23L50 24L51 24L51 25L50 25L50 26L53 26L53 27L54 27L54 26L53 26L53 23L50 23L50 22L51 22L51 21L54 21L54 22L56 22L56 21L55 21L55 20L56 20L56 19L55 19L55 20L53 20L53 19L52 19L52 18L51 18L51 17L53 17L53 18L55 18L55 17L53 17L53 15L50 15L50 14L51 14L51 12L50 12L50 11L49 11L49 12L48 12L48 11L47 11L47 12L45 12L45 11L46 11L46 10L47 10L47 9L49 9L49 8L47 8L47 7L46 7L46 6L45 6L45 5L47 5L47 3L44 3L44 6L43 6L43 5L42 5L42 6L41 6L41 5L40 5L40 6L39 6L39 7L40 7L40 8L38 8L38 10L37 10L37 9L35 9L35 8L37 8L37 7L36 7L36 5L37 5L37 4L36 4L36 5L35 5L35 3L34 3L34 2L33 2L33 3L32 3L32 2ZM8 3L8 4L10 4L10 3ZM18 4L18 6L17 6L17 7L16 7L16 8L19 8L19 7L20 7L20 5L19 5L19 4ZM23 4L23 5L24 5L24 4ZM32 4L32 5L34 5L34 7L33 7L33 6L32 6L32 7L33 7L33 9L34 9L34 8L35 8L35 5L34 5L34 4ZM8 5L8 7L9 7L9 5ZM10 5L10 8L11 8L11 5ZM27 5L27 8L30 8L30 5ZM18 6L18 7L19 7L19 6ZM28 6L28 7L29 7L29 6ZM40 6L40 7L41 7L41 6ZM42 6L42 7L43 7L43 9L41 9L41 11L40 11L40 10L39 10L39 11L37 11L37 10L36 10L36 12L35 12L35 13L36 13L36 14L33 14L33 13L34 13L34 12L33 12L33 13L32 13L32 11L33 11L33 10L32 10L32 11L31 11L31 13L30 13L30 14L29 14L29 13L28 13L28 14L29 14L29 16L28 16L28 15L27 15L27 16L26 16L26 14L25 14L25 13L24 13L24 15L23 15L23 14L22 14L22 13L21 13L21 14L20 14L20 17L19 17L19 18L18 18L18 19L19 19L19 18L20 18L20 19L21 19L21 20L22 20L22 18L24 18L24 19L23 19L23 20L24 20L24 21L23 21L23 22L22 22L22 21L21 21L21 24L20 24L20 25L19 25L19 23L20 23L20 22L18 22L18 21L20 21L20 20L18 20L18 21L16 21L16 20L15 20L15 21L16 21L16 22L15 22L15 23L16 23L16 24L17 24L17 27L18 27L18 26L20 26L20 27L19 27L19 29L18 29L18 28L16 28L16 29L13 29L13 31L14 31L14 32L15 32L15 31L16 31L16 29L18 29L18 30L20 30L20 31L18 31L18 32L17 32L17 33L19 33L19 32L23 32L23 31L21 31L21 30L20 30L20 29L22 29L22 28L20 28L20 27L22 27L22 26L24 26L24 27L23 27L23 28L24 28L24 27L25 27L25 26L26 26L26 25L25 25L25 24L28 24L28 23L27 23L27 22L28 22L28 21L26 21L26 19L27 19L27 18L28 18L28 19L30 19L30 20L31 20L31 21L32 21L32 20L33 20L33 19L32 19L32 18L31 18L31 17L32 17L32 15L33 15L33 16L35 16L35 17L37 17L37 18L38 18L38 17L39 17L39 19L37 19L37 20L36 20L36 19L35 19L35 23L34 23L34 22L33 22L33 23L32 23L32 24L33 24L33 25L37 25L37 26L38 26L38 25L40 25L40 24L41 24L41 25L42 25L42 26L39 26L39 27L36 27L36 26L34 26L34 27L33 27L33 26L32 26L32 27L33 27L33 28L35 28L35 29L38 29L38 28L40 28L40 27L41 27L41 28L42 28L42 26L44 26L44 20L45 20L45 21L46 21L46 20L47 20L47 22L45 22L45 24L47 24L47 25L48 25L48 22L49 22L49 21L51 21L51 20L52 20L52 19L49 19L49 18L50 18L50 17L51 17L51 16L50 16L50 15L49 15L49 14L50 14L50 12L49 12L49 13L47 13L47 14L44 14L44 11L45 11L45 10L44 10L44 8L45 8L45 6L44 6L44 7L43 7L43 6ZM55 8L55 9L56 9L56 8ZM43 10L43 11L41 11L41 12L40 12L40 11L39 11L39 12L40 12L40 13L38 13L38 14L37 14L37 15L35 15L35 16L37 16L37 17L38 17L38 16L39 16L39 17L41 17L41 16L42 16L42 17L43 17L43 16L42 16L42 15L44 15L44 18L43 18L43 19L42 19L42 18L41 18L41 20L39 20L39 21L38 21L38 20L37 20L37 21L38 21L38 22L37 22L37 24L40 24L40 22L39 22L39 21L43 21L43 20L44 20L44 18L46 18L46 19L48 19L48 18L47 18L47 16L46 16L46 15L44 15L44 14L41 14L41 13L43 13L43 11L44 11L44 10ZM16 12L16 13L17 13L17 12ZM52 12L52 13L53 13L53 12ZM0 13L0 15L1 15L1 17L0 17L0 22L1 22L1 21L2 21L2 18L1 18L1 17L2 17L2 15L1 15L1 13ZM30 14L30 15L31 15L31 14ZM38 14L38 15L39 15L39 16L41 16L41 14ZM11 15L11 16L10 16L10 17L11 17L11 16L12 16L12 15ZM21 15L21 16L22 16L22 17L20 17L20 18L22 18L22 17L26 17L26 18L27 18L27 17L28 17L28 16L27 16L27 17L26 17L26 16L23 16L23 15ZM48 15L48 16L49 16L49 15ZM13 16L13 17L14 17L14 18L15 18L15 19L17 19L17 18L15 18L15 17L14 17L14 16ZM45 16L45 17L46 17L46 16ZM4 18L4 19L5 19L5 18ZM10 18L10 19L12 19L12 21L11 21L11 22L12 22L12 23L11 23L11 24L12 24L12 25L13 25L13 22L14 22L14 21L13 21L13 20L14 20L14 19L13 19L13 18ZM30 18L30 19L31 19L31 18ZM4 20L4 21L5 21L5 20ZM24 21L24 22L23 22L23 23L24 23L24 24L21 24L21 25L20 25L20 26L21 26L21 25L24 25L24 24L25 24L25 23L26 23L26 22L25 22L25 21ZM6 22L6 23L5 23L5 24L6 24L6 23L7 23L7 22ZM38 22L38 23L39 23L39 22ZM41 22L41 24L43 24L43 23L42 23L42 22ZM3 23L3 24L4 24L4 23ZM17 23L17 24L18 24L18 23ZM55 25L55 26L56 26L56 25ZM15 26L15 27L16 27L16 26ZM3 27L3 28L4 28L4 27ZM5 27L5 30L8 30L8 27ZM27 27L27 30L30 30L30 27ZM49 27L49 30L52 30L52 27ZM6 28L6 29L7 29L7 28ZM28 28L28 29L29 29L29 28ZM50 28L50 29L51 29L51 28ZM39 29L39 30L38 30L38 32L39 32L39 30L40 30L40 29ZM2 30L2 31L3 31L3 30ZM14 30L14 31L15 31L15 30ZM6 31L6 32L8 32L8 31ZM29 31L29 33L31 33L31 31ZM47 31L47 32L48 32L48 33L49 33L49 32L48 32L48 31ZM33 32L33 33L35 33L35 34L37 34L37 35L38 35L38 37L37 37L37 36L35 36L35 35L34 35L34 36L35 36L35 39L37 39L37 38L38 38L38 40L40 40L40 39L39 39L39 38L38 38L38 37L40 37L40 38L41 38L41 39L42 39L42 40L41 40L41 42L42 42L42 44L41 44L41 45L39 45L39 46L40 46L40 47L39 47L39 48L38 48L38 49L39 49L39 48L41 48L41 46L43 46L43 47L42 47L42 48L43 48L43 49L44 49L44 50L46 50L46 49L44 49L44 48L43 48L43 47L44 47L44 46L43 46L43 45L44 45L44 44L45 44L45 45L47 45L47 43L46 43L46 44L45 44L45 43L44 43L44 44L43 44L43 41L44 41L44 42L45 42L45 41L44 41L44 40L45 40L45 39L44 39L44 40L43 40L43 39L42 39L42 38L43 38L43 37L44 37L44 38L45 38L45 37L44 37L44 36L47 36L47 35L44 35L44 36L41 36L41 35L42 35L42 34L45 34L45 33L46 33L46 32L45 32L45 33L43 33L43 32L41 32L41 33L39 33L39 34L40 34L40 35L38 35L38 33L37 33L37 32ZM50 32L50 34L49 34L49 35L50 35L50 36L51 36L51 37L52 37L52 35L53 35L53 34L52 34L52 33L53 33L53 32L52 32L52 33L51 33L51 32ZM55 32L55 33L56 33L56 32ZM21 33L21 35L23 35L23 34L22 34L22 33ZM50 34L50 35L52 35L52 34ZM40 36L40 37L41 37L41 38L42 38L42 37L41 37L41 36ZM2 38L2 39L3 39L3 41L4 41L4 42L7 42L7 41L5 41L5 40L4 40L4 39L3 39L3 38ZM10 38L10 40L11 40L11 38ZM19 38L19 39L20 39L20 38ZM46 39L46 41L47 41L47 39ZM1 40L1 41L2 41L2 40ZM18 41L18 42L17 42L17 43L18 43L18 42L19 42L19 41ZM26 41L26 42L27 42L27 41ZM31 41L31 42L32 42L32 43L31 43L31 44L32 44L32 43L33 43L33 42L32 42L32 41ZM39 41L39 42L40 42L40 41ZM21 42L21 43L22 43L22 42ZM51 42L51 43L50 43L50 44L51 44L51 43L53 43L53 42ZM8 44L8 46L9 46L9 44ZM6 45L6 46L7 46L7 45ZM22 45L22 46L23 46L23 45ZM26 45L26 47L27 47L27 45ZM50 45L50 46L51 46L51 47L52 47L52 46L51 46L51 45ZM1 46L1 47L2 47L2 46ZM29 47L29 48L30 48L30 47ZM6 48L6 49L7 49L7 48ZM15 48L15 49L14 49L14 50L13 50L13 51L14 51L14 52L13 52L13 54L12 54L12 55L13 55L13 54L16 54L16 53L17 53L17 52L18 52L18 51L19 51L19 50L18 50L18 51L17 51L17 49L16 49L16 48ZM53 48L53 49L56 49L56 48ZM27 49L27 52L30 52L30 49ZM49 49L49 52L52 52L52 49ZM9 50L9 51L10 51L10 50ZM14 50L14 51L15 51L15 52L14 52L14 53L16 53L16 52L17 52L17 51L15 51L15 50ZM28 50L28 51L29 51L29 50ZM38 50L38 51L40 51L40 52L41 52L41 50ZM50 50L50 51L51 51L51 50ZM24 53L24 54L23 54L23 55L24 55L24 56L25 56L25 54L26 54L26 53ZM35 54L35 56L36 56L36 54ZM41 54L41 55L42 55L42 54ZM14 55L14 56L16 56L16 55ZM50 55L50 56L51 56L51 55ZM53 55L53 56L55 56L55 57L56 57L56 56L55 56L55 55ZM0 0L0 7L7 7L7 0ZM1 1L1 6L6 6L6 1ZM2 2L2 5L5 5L5 2ZM50 0L50 7L57 7L57 0ZM51 1L51 6L56 6L56 1ZM52 2L52 5L55 5L55 2ZM0 50L0 57L7 57L7 50ZM1 51L1 56L6 56L6 51ZM2 52L2 55L5 55L5 52Z" fill="#000000"/></g></g></svg>
