<?xml version="1.0" encoding="UTF-8"?>
<svg xmlns="http://www.w3.org/2000/svg" version="1.1" width="300" height="300" viewBox="0 0 300 300"><rect x="0" y="0" width="300" height="300" fill="#fefefe"/><g transform="scale(4.615)"><g transform="translate(4,4)"><path fill-rule="evenodd" d="M8 0L8 4L9 4L9 5L8 5L8 7L9 7L9 6L10 6L10 7L11 7L11 6L12 6L12 7L13 7L13 8L11 8L11 9L10 9L10 8L9 8L9 9L7 9L7 8L4 8L4 9L3 9L3 10L1 10L1 9L2 9L2 8L0 8L0 10L1 10L1 11L0 11L0 17L1 17L1 16L4 16L4 15L3 15L3 14L1 14L1 13L2 13L2 12L3 12L3 13L4 13L4 14L5 14L5 16L6 16L6 17L4 17L4 18L3 18L3 19L2 19L2 18L1 18L1 19L0 19L0 20L3 20L3 22L1 22L1 21L0 21L0 22L1 22L1 23L2 23L2 24L0 24L0 27L1 27L1 25L2 25L2 26L3 26L3 28L0 28L0 29L4 29L4 31L2 31L2 30L1 30L1 32L0 32L0 35L1 35L1 37L0 37L0 38L1 38L1 37L2 37L2 36L3 36L3 35L2 35L2 34L3 34L3 33L4 33L4 32L5 32L5 34L4 34L4 35L5 35L5 34L6 34L6 35L7 35L7 36L4 36L4 37L3 37L3 38L2 38L2 39L3 39L3 40L0 40L0 41L1 41L1 42L0 42L0 45L1 45L1 46L0 46L0 48L5 48L5 47L7 47L7 48L6 48L6 49L8 49L8 50L9 50L9 51L8 51L8 53L9 53L9 54L10 54L10 52L12 52L12 53L11 53L11 55L12 55L12 53L13 53L13 55L14 55L14 56L15 56L15 57L16 57L16 56L15 56L15 55L16 55L16 54L18 54L18 55L17 55L17 57L22 57L22 56L23 56L23 57L25 57L25 56L26 56L26 57L27 57L27 56L26 56L26 55L27 55L27 54L24 54L24 53L25 53L25 50L26 50L26 53L28 53L28 57L29 57L29 55L30 55L30 57L34 57L34 55L35 55L35 57L37 57L37 56L36 56L36 54L37 54L37 55L40 55L40 56L39 56L39 57L40 57L40 56L41 56L41 57L42 57L42 56L43 56L43 55L44 55L44 57L45 57L45 55L44 55L44 53L45 53L45 54L46 54L46 52L45 52L45 51L46 51L46 49L47 49L47 52L48 52L48 54L49 54L49 55L46 55L46 56L49 56L49 57L50 57L50 55L51 55L51 56L53 56L53 57L54 57L54 55L53 55L53 54L57 54L57 53L55 53L55 52L54 52L54 53L53 53L53 50L54 50L54 51L56 51L56 52L57 52L57 51L56 51L56 50L57 50L57 49L56 49L56 45L55 45L55 46L52 46L52 44L53 44L53 45L54 45L54 44L53 44L53 43L54 43L54 42L55 42L55 44L56 44L56 42L57 42L57 40L54 40L54 41L53 41L53 39L57 39L57 38L53 38L53 39L52 39L52 36L53 36L53 37L55 37L55 36L56 36L56 37L57 37L57 35L56 35L56 34L55 34L55 33L56 33L56 30L55 30L55 29L56 29L56 28L57 28L57 27L56 27L56 25L57 25L57 24L56 24L56 20L55 20L55 24L56 24L56 25L53 25L53 26L52 26L52 22L53 22L53 21L52 21L52 20L53 20L53 19L52 19L52 17L50 17L50 16L49 16L49 15L48 15L48 17L47 17L47 22L50 22L50 23L48 23L48 25L47 25L47 26L46 26L46 25L45 25L45 24L47 24L47 23L45 23L45 24L44 24L44 25L42 25L42 24L43 24L43 23L44 23L44 22L45 22L45 21L46 21L46 11L45 11L45 9L46 9L46 7L47 7L47 5L48 5L48 0L46 0L46 1L47 1L47 2L45 2L45 0L41 0L41 1L40 1L40 2L38 2L38 1L39 1L39 0L38 0L38 1L37 1L37 2L36 2L36 0L35 0L35 1L34 1L34 0L33 0L33 1L34 1L34 4L35 4L35 5L32 5L32 3L33 3L33 2L32 2L32 1L31 1L31 0L29 0L29 1L28 1L28 0L26 0L26 1L28 1L28 2L27 2L27 3L28 3L28 4L26 4L26 3L25 3L25 0L23 0L23 3L22 3L22 4L23 4L23 3L25 3L25 4L24 4L24 5L22 5L22 7L21 7L21 6L20 6L20 5L19 5L19 4L18 4L18 5L19 5L19 6L18 6L18 7L19 7L19 8L17 8L17 6L16 6L16 5L15 5L15 4L14 4L14 1L16 1L16 0L13 0L13 1L12 1L12 2L13 2L13 4L12 4L12 3L11 3L11 1L9 1L9 0ZM20 0L20 1L18 1L18 2L15 2L15 3L16 3L16 4L17 4L17 3L19 3L19 2L20 2L20 1L21 1L21 2L22 2L22 1L21 1L21 0ZM9 2L9 4L10 4L10 2ZM31 2L31 3L32 3L32 2ZM35 2L35 4L36 4L36 5L35 5L35 7L34 7L34 6L33 6L33 7L32 7L32 6L31 6L31 10L30 10L30 11L31 11L31 12L29 12L29 11L28 11L28 10L29 10L29 9L28 9L28 10L27 10L27 9L26 9L26 6L25 6L25 7L24 7L24 6L23 6L23 7L22 7L22 10L20 10L20 8L19 8L19 10L18 10L18 11L17 11L17 9L16 9L16 8L15 8L15 7L16 7L16 6L15 6L15 5L14 5L14 6L13 6L13 5L12 5L12 4L11 4L11 5L12 5L12 6L13 6L13 7L14 7L14 8L13 8L13 9L11 9L11 10L10 10L10 11L12 11L12 10L13 10L13 9L14 9L14 8L15 8L15 9L16 9L16 12L17 12L17 13L15 13L15 12L14 12L14 11L13 11L13 13L12 13L12 14L10 14L10 13L11 13L11 12L10 12L10 13L9 13L9 10L8 10L8 11L6 11L6 12L8 12L8 13L9 13L9 15L8 15L8 16L7 16L7 15L6 15L6 16L7 16L7 17L6 17L6 18L4 18L4 19L3 19L3 20L4 20L4 21L6 21L6 22L3 22L3 23L5 23L5 24L7 24L7 25L6 25L6 26L8 26L8 25L9 25L9 24L10 24L10 25L11 25L11 22L14 22L14 23L13 23L13 26L12 26L12 27L11 27L11 26L9 26L9 27L10 27L10 28L12 28L12 29L15 29L15 30L11 30L11 31L10 31L10 29L9 29L9 31L10 31L10 32L11 32L11 34L10 34L10 33L9 33L9 32L8 32L8 31L6 31L6 32L8 32L8 34L9 34L9 36L8 36L8 38L7 38L7 37L6 37L6 38L5 38L5 39L4 39L4 38L3 38L3 39L4 39L4 40L3 40L3 42L4 42L4 45L3 45L3 43L2 43L2 42L1 42L1 44L2 44L2 45L3 45L3 47L5 47L5 46L7 46L7 47L8 47L8 49L11 49L11 50L10 50L10 51L9 51L9 52L10 52L10 51L11 51L11 50L12 50L12 51L13 51L13 53L14 53L14 54L15 54L15 53L17 53L17 51L16 51L16 50L17 50L17 49L16 49L16 46L17 46L17 45L18 45L18 44L19 44L19 43L20 43L20 44L21 44L21 43L22 43L22 44L23 44L23 43L27 43L27 41L28 41L28 44L27 44L27 45L26 45L26 46L24 46L24 49L25 49L25 48L28 48L28 47L26 47L26 46L27 46L27 45L28 45L28 46L29 46L29 48L31 48L31 49L32 49L32 50L31 50L31 52L32 52L32 50L33 50L33 52L34 52L34 50L35 50L35 52L36 52L36 49L35 49L35 48L34 48L34 47L36 47L36 48L37 48L37 46L38 46L38 45L39 45L39 44L40 44L40 46L39 46L39 47L38 47L38 49L37 49L37 54L38 54L38 49L39 49L39 47L40 47L40 51L39 51L39 52L40 52L40 53L41 53L41 43L40 43L40 42L41 42L41 40L42 40L42 41L43 41L43 42L42 42L42 44L43 44L43 45L44 45L44 46L43 46L43 47L42 47L42 49L43 49L43 50L42 50L42 51L44 51L44 50L45 50L45 49L46 49L46 48L45 48L45 47L44 47L44 46L45 46L45 45L46 45L46 47L47 47L47 49L48 49L48 47L49 47L49 48L52 48L52 47L51 47L51 44L52 44L52 43L53 43L53 41L52 41L52 40L47 40L47 39L49 39L49 38L50 38L50 39L51 39L51 38L50 38L50 37L49 37L49 36L50 36L50 35L53 35L53 36L55 36L55 35L53 35L53 34L54 34L54 33L55 33L55 30L54 30L54 29L55 29L55 28L56 28L56 27L55 27L55 26L54 26L54 27L53 27L53 28L54 28L54 29L53 29L53 33L51 33L51 31L50 31L50 35L47 35L47 34L49 34L49 33L48 33L48 31L47 31L47 30L48 30L48 29L46 29L46 28L48 28L48 26L47 26L47 27L45 27L45 30L44 30L44 29L43 29L43 28L42 28L42 26L41 26L41 23L43 23L43 22L44 22L44 16L45 16L45 14L43 14L43 15L42 15L42 17L43 17L43 18L42 18L42 19L41 19L41 18L40 18L40 17L41 17L41 15L40 15L40 13L44 13L44 12L45 12L45 11L43 11L43 12L41 12L41 9L42 9L42 8L43 8L43 10L44 10L44 8L45 8L45 7L46 7L46 6L45 6L45 7L44 7L44 4L45 4L45 5L47 5L47 3L44 3L44 2L43 2L43 3L44 3L44 4L43 4L43 7L42 7L42 6L41 6L41 5L39 5L39 8L38 8L38 6L37 6L37 8L38 8L38 9L35 9L35 7L36 7L36 5L38 5L38 4L40 4L40 3L42 3L42 2L40 2L40 3L38 3L38 4L37 4L37 3L36 3L36 2ZM27 5L27 8L30 8L30 5ZM14 6L14 7L15 7L15 6ZM19 6L19 7L20 7L20 6ZM28 6L28 7L29 7L29 6ZM40 6L40 8L39 8L39 9L38 9L38 10L39 10L39 11L37 11L37 12L35 12L35 11L36 11L36 10L34 10L34 9L33 9L33 8L34 8L34 7L33 7L33 8L32 8L32 17L31 17L31 16L29 16L29 13L27 13L27 14L28 14L28 15L27 15L27 16L26 16L26 15L25 15L25 17L21 17L21 15L22 15L22 16L24 16L24 15L22 15L22 14L21 14L21 13L23 13L23 14L25 14L25 13L26 13L26 11L27 11L27 12L28 12L28 11L27 11L27 10L25 10L25 9L24 9L24 7L23 7L23 11L24 11L24 13L23 13L23 12L22 12L22 11L19 11L19 12L18 12L18 13L17 13L17 14L15 14L15 13L13 13L13 15L14 15L14 17L13 17L13 16L10 16L10 15L9 15L9 16L8 16L8 17L7 17L7 18L6 18L6 19L7 19L7 18L9 18L9 20L6 20L6 21L7 21L7 22L6 22L6 23L7 23L7 24L8 24L8 23L9 23L9 22L11 22L11 20L10 20L10 18L11 18L11 19L12 19L12 21L14 21L14 22L15 22L15 23L14 23L14 26L15 26L15 27L13 27L13 28L15 28L15 29L18 29L18 31L17 31L17 30L15 30L15 31L14 31L14 32L15 32L15 34L16 34L16 32L17 32L17 33L18 33L18 34L19 34L19 33L20 33L20 34L21 34L21 33L22 33L22 31L25 31L25 32L27 32L27 33L23 33L23 34L22 34L22 35L20 35L20 36L19 36L19 35L17 35L17 37L21 37L21 38L20 38L20 39L17 39L17 38L16 38L16 39L15 39L15 38L14 38L14 39L15 39L15 41L14 41L14 40L13 40L13 37L14 37L14 36L15 36L15 37L16 37L16 35L14 35L14 34L11 34L11 35L12 35L12 36L10 36L10 39L11 39L11 37L12 37L12 40L11 40L11 42L10 42L10 40L9 40L9 39L7 39L7 38L6 38L6 39L7 39L7 40L4 40L4 42L5 42L5 45L7 45L7 46L8 46L8 47L9 47L9 48L11 48L11 47L12 47L12 48L13 48L13 46L16 46L16 43L18 43L18 42L16 42L16 40L17 40L17 41L20 41L20 42L21 42L21 41L22 41L22 40L23 40L23 42L26 42L26 41L27 41L27 40L30 40L30 41L29 41L29 42L31 42L31 45L30 45L30 46L31 46L31 47L32 47L32 46L33 46L33 47L34 47L34 45L35 45L35 46L36 46L36 45L37 45L37 44L39 44L39 41L40 41L40 40L41 40L41 39L43 39L43 40L44 40L44 41L45 41L45 42L46 42L46 43L47 43L47 44L46 44L46 45L47 45L47 44L49 44L49 47L50 47L50 44L51 44L51 43L52 43L52 41L51 41L51 43L50 43L50 42L49 42L49 41L48 41L48 43L47 43L47 42L46 42L46 40L45 40L45 39L47 39L47 38L46 38L46 37L45 37L45 35L46 35L46 36L47 36L47 35L46 35L46 33L47 33L47 32L46 32L46 33L45 33L45 31L46 31L46 30L45 30L45 31L44 31L44 30L43 30L43 29L40 29L40 28L41 28L41 27L37 27L37 26L36 26L36 27L35 27L35 30L36 30L36 31L34 31L34 27L33 27L33 26L34 26L34 25L37 25L37 24L34 24L34 23L35 23L35 22L37 22L37 20L39 20L39 21L38 21L38 22L39 22L39 21L40 21L40 22L43 22L43 20L42 20L42 21L40 21L40 18L39 18L39 17L40 17L40 15L39 15L39 13L40 13L40 10L39 10L39 9L40 9L40 8L41 8L41 6ZM48 6L48 7L49 7L49 6ZM43 7L43 8L44 8L44 7ZM47 8L47 9L48 9L48 11L49 11L49 9L48 9L48 8ZM51 8L51 9L50 9L50 15L52 15L52 14L53 14L53 15L55 15L55 16L56 16L56 17L55 17L55 19L56 19L56 18L57 18L57 15L56 15L56 12L57 12L57 11L56 11L56 10L57 10L57 8L53 8L53 9L52 9L52 8ZM4 9L4 10L7 10L7 9ZM53 9L53 10L54 10L54 11L52 11L52 12L51 12L51 14L52 14L52 13L53 13L53 12L54 12L54 13L55 13L55 12L56 12L56 11L55 11L55 10L56 10L56 9ZM33 10L33 13L34 13L34 18L33 18L33 17L32 17L32 19L34 19L34 18L37 18L37 19L39 19L39 18L38 18L38 17L39 17L39 15L38 15L38 13L39 13L39 12L37 12L37 13L36 13L36 14L35 14L35 12L34 12L34 10ZM1 11L1 12L2 12L2 11ZM3 11L3 12L4 12L4 13L5 13L5 12L4 12L4 11ZM20 12L20 13L19 13L19 15L20 15L20 13L21 13L21 12ZM6 13L6 14L7 14L7 13ZM30 13L30 15L31 15L31 13ZM47 13L47 14L49 14L49 13ZM17 14L17 15L18 15L18 14ZM35 15L35 17L38 17L38 16L37 16L37 15ZM43 15L43 16L44 16L44 15ZM9 16L9 17L10 17L10 16ZM19 16L19 17L14 17L14 18L13 18L13 19L14 19L14 20L15 20L15 21L17 21L17 22L16 22L16 23L15 23L15 25L16 25L16 26L17 26L17 27L18 27L18 26L17 26L17 24L18 24L18 23L19 23L19 24L20 24L20 25L19 25L19 27L20 27L20 29L19 29L19 28L18 28L18 29L19 29L19 31L18 31L18 32L20 32L20 29L22 29L22 30L21 30L21 31L22 31L22 30L23 30L23 29L25 29L25 30L26 30L26 29L25 29L25 28L22 28L22 27L20 27L20 25L21 25L21 26L22 26L22 25L24 25L24 23L22 23L22 25L21 25L21 22L20 22L20 23L19 23L19 22L18 22L18 21L17 21L17 20L18 20L18 19L20 19L20 20L19 20L19 21L20 21L20 20L21 20L21 19L22 19L22 22L23 22L23 21L24 21L24 22L25 22L25 23L26 23L26 22L27 22L27 25L28 25L28 26L29 26L29 25L31 25L31 27L32 27L32 28L31 28L31 29L32 29L32 28L33 28L33 27L32 27L32 23L33 23L33 22L31 22L31 24L29 24L29 23L30 23L30 22L29 22L29 23L28 23L28 22L27 22L27 21L24 21L24 20L25 20L25 18L26 18L26 17L25 17L25 18L24 18L24 19L23 19L23 18L21 18L21 19L20 19L20 16ZM11 17L11 18L12 18L12 17ZM27 17L27 19L26 19L26 20L27 20L27 19L30 19L30 20L28 20L28 21L32 21L32 20L31 20L31 19L30 19L30 18L28 18L28 17ZM49 17L49 18L50 18L50 19L51 19L51 18L50 18L50 17ZM15 18L15 20L17 20L17 19L16 19L16 18ZM4 19L4 20L5 20L5 19ZM35 19L35 20L36 20L36 19ZM48 19L48 20L49 20L49 21L51 21L51 22L52 22L52 21L51 21L51 20L49 20L49 19ZM33 20L33 21L34 21L34 22L35 22L35 21L34 21L34 20ZM33 24L33 25L34 25L34 24ZM39 24L39 25L38 25L38 26L40 26L40 24ZM50 24L50 25L49 25L49 26L50 26L50 25L51 25L51 24ZM4 25L4 26L5 26L5 25ZM25 25L25 26L23 26L23 27L26 27L26 25ZM44 25L44 26L43 26L43 27L44 27L44 26L45 26L45 25ZM5 27L5 30L8 30L8 27ZM15 27L15 28L16 28L16 27ZM27 27L27 30L30 30L30 27ZM36 27L36 28L37 28L37 29L38 29L38 28L37 28L37 27ZM49 27L49 30L52 30L52 27ZM6 28L6 29L7 29L7 28ZM28 28L28 29L29 29L29 28ZM50 28L50 29L51 29L51 28ZM39 29L39 30L40 30L40 31L39 31L39 32L40 32L40 33L39 33L39 34L38 34L38 33L37 33L37 34L38 34L38 36L37 36L37 38L35 38L35 35L33 35L33 34L32 34L32 35L33 35L33 36L34 36L34 38L35 38L35 39L34 39L34 42L35 42L35 39L37 39L37 42L38 42L38 39L40 39L40 38L38 38L38 37L44 37L44 38L43 38L43 39L45 39L45 37L44 37L44 35L45 35L45 34L44 34L44 33L43 33L43 34L44 34L44 35L42 35L42 34L40 34L40 33L41 33L41 32L40 32L40 31L41 31L41 30L40 30L40 29ZM31 30L31 31L32 31L32 32L29 32L29 31L27 31L27 32L29 32L29 33L28 33L28 34L26 34L26 35L27 35L27 36L25 36L25 34L24 34L24 36L25 36L25 37L27 37L27 39L25 39L25 38L24 38L24 37L23 37L23 35L22 35L22 38L21 38L21 40L22 40L22 39L24 39L24 41L25 41L25 40L27 40L27 39L28 39L28 38L29 38L29 39L31 39L31 41L32 41L32 43L33 43L33 44L35 44L35 43L33 43L33 41L32 41L32 40L33 40L33 39L31 39L31 38L33 38L33 37L32 37L32 36L31 36L31 34L30 34L30 36L31 36L31 37L29 37L29 36L28 36L28 34L29 34L29 33L32 33L32 32L34 32L34 34L35 34L35 32L34 32L34 31L33 31L33 30ZM37 30L37 32L38 32L38 30ZM11 31L11 32L12 32L12 33L13 33L13 32L12 32L12 31ZM15 31L15 32L16 32L16 31ZM1 33L1 34L2 34L2 33ZM6 33L6 34L7 34L7 33ZM13 35L13 36L12 36L12 37L13 37L13 36L14 36L14 35ZM39 35L39 36L40 36L40 35ZM27 36L27 37L28 37L28 36ZM37 38L37 39L38 39L38 38ZM7 40L7 41L6 41L6 42L7 42L7 43L6 43L6 44L7 44L7 45L9 45L9 44L11 44L11 45L10 45L10 46L11 46L11 45L12 45L12 46L13 46L13 44L11 44L11 43L12 43L12 42L14 42L14 44L15 44L15 43L16 43L16 42L14 42L14 41L12 41L12 42L11 42L11 43L8 43L8 42L9 42L9 40ZM7 41L7 42L8 42L8 41ZM55 41L55 42L56 42L56 41ZM43 42L43 44L44 44L44 45L45 45L45 44L44 44L44 42ZM36 43L36 44L37 44L37 43ZM49 43L49 44L50 44L50 43ZM28 44L28 45L29 45L29 44ZM19 45L19 47L18 47L18 48L19 48L19 47L20 47L20 49L19 49L19 51L18 51L18 52L19 52L19 53L20 53L20 52L19 52L19 51L21 51L21 52L22 52L22 54L20 54L20 55L18 55L18 56L22 56L22 55L23 55L23 56L24 56L24 55L23 55L23 53L24 53L24 52L23 52L23 51L22 51L22 49L23 49L23 48L22 48L22 47L23 47L23 45L21 45L21 46L22 46L22 47L20 47L20 45ZM31 45L31 46L32 46L32 45ZM1 46L1 47L2 47L2 46ZM53 47L53 49L55 49L55 47ZM14 48L14 51L15 51L15 52L16 52L16 51L15 51L15 50L16 50L16 49L15 49L15 48ZM21 48L21 49L20 49L20 50L21 50L21 49L22 49L22 48ZM32 48L32 49L33 49L33 50L34 50L34 49L33 49L33 48ZM44 48L44 49L45 49L45 48ZM12 49L12 50L13 50L13 49ZM27 49L27 52L30 52L30 49ZM49 49L49 52L52 52L52 49ZM28 50L28 51L29 51L29 50ZM50 50L50 51L51 51L51 50ZM43 52L43 53L44 53L44 52ZM30 53L30 54L31 54L31 53ZM32 53L32 54L33 54L33 55L34 55L34 54L35 54L35 53L34 53L34 54L33 54L33 53ZM49 53L49 54L51 54L51 55L52 55L52 54L51 54L51 53ZM40 54L40 55L41 55L41 56L42 56L42 55L43 55L43 54L42 54L42 55L41 55L41 54ZM8 55L8 57L13 57L13 56L9 56L9 55ZM56 56L56 57L57 57L57 56ZM0 0L0 7L7 7L7 0ZM1 1L1 6L6 6L6 1ZM2 2L2 5L5 5L5 2ZM50 0L50 7L57 7L57 0ZM51 1L51 6L56 6L56 1ZM52 2L52 5L55 5L55 2ZM0 50L0 57L7 57L7 50ZM1 51L1 56L6 56L6 51ZM2 52L2 55L5 55L5 52Z" fill="#000000"/></g></g></svg>
