<?xml version="1.0" encoding="UTF-8"?>
<svg xmlns="http://www.w3.org/2000/svg" version="1.1" width="300" height="300" viewBox="0 0 300 300"><rect x="0" y="0" width="300" height="300" fill="#fefefe"/><g transform="scale(4.615)"><g transform="translate(4,4)"><path fill-rule="evenodd" d="M10 0L10 1L11 1L11 3L8 3L8 4L9 4L9 5L8 5L8 7L9 7L9 8L6 8L6 9L8 9L8 11L9 11L9 10L10 10L10 12L6 12L6 11L7 11L7 10L5 10L5 8L0 8L0 13L1 13L1 16L2 16L2 17L0 17L0 20L2 20L2 21L4 21L4 22L5 22L5 21L4 21L4 20L3 20L3 19L2 19L2 18L4 18L4 19L5 19L5 20L6 20L6 21L7 21L7 22L6 22L6 23L5 23L5 24L4 24L4 23L3 23L3 22L2 22L2 23L1 23L1 22L0 22L0 24L1 24L1 27L2 27L2 28L1 28L1 29L0 29L0 31L4 31L4 32L0 32L0 33L2 33L2 34L1 34L1 35L0 35L0 36L4 36L4 34L6 34L6 35L8 35L8 37L7 37L7 36L6 36L6 37L0 37L0 40L1 40L1 39L2 39L2 43L3 43L3 42L4 42L4 43L5 43L5 41L4 41L4 39L2 39L2 38L6 38L6 39L5 39L5 40L6 40L6 41L7 41L7 42L6 42L6 43L8 43L8 41L9 41L9 42L10 42L10 43L11 43L11 44L9 44L9 46L8 46L8 45L7 45L7 44L4 44L4 46L5 46L5 47L3 47L3 46L2 46L2 45L3 45L3 44L1 44L1 46L0 46L0 48L5 48L5 47L7 47L7 46L8 46L8 48L6 48L6 49L8 49L8 51L9 51L9 52L8 52L8 57L9 57L9 56L10 56L10 55L14 55L14 54L15 54L15 55L16 55L16 56L14 56L14 57L16 57L16 56L17 56L17 57L20 57L20 56L18 56L18 55L17 55L17 53L20 53L20 52L22 52L22 51L20 51L20 50L19 50L19 49L21 49L21 50L25 50L25 51L26 51L26 52L24 52L24 53L21 53L21 56L24 56L24 57L26 57L26 55L27 55L27 54L30 54L30 53L31 53L31 51L32 51L32 52L33 52L33 51L34 51L34 52L35 52L35 54L36 54L36 56L35 56L35 55L33 55L33 53L32 53L32 54L31 54L31 56L30 56L30 55L29 55L29 56L27 56L27 57L29 57L29 56L30 56L30 57L31 57L31 56L35 56L35 57L39 57L39 56L40 56L40 55L41 55L41 57L42 57L42 55L44 55L44 54L45 54L45 53L47 53L47 56L46 56L46 57L47 57L47 56L50 56L50 57L52 57L52 55L51 55L51 53L52 53L52 54L55 54L55 52L57 52L57 51L54 51L54 50L57 50L57 48L56 48L56 46L57 46L57 43L56 43L56 42L55 42L55 39L57 39L57 37L55 37L55 35L56 35L56 36L57 36L57 35L56 35L56 34L55 34L55 33L54 33L54 32L56 32L56 33L57 33L57 32L56 32L56 30L57 30L57 29L54 29L54 28L56 28L56 26L57 26L57 25L56 25L56 22L57 22L57 21L56 21L56 20L57 20L57 19L56 19L56 16L57 16L57 15L56 15L56 14L57 14L57 11L56 11L56 10L54 10L54 11L50 11L50 8L48 8L48 9L47 9L47 8L46 8L46 7L47 7L47 5L48 5L48 0L46 0L46 1L45 1L45 2L44 2L44 3L43 3L43 4L40 4L40 5L39 5L39 6L38 6L38 8L35 8L35 5L36 5L36 7L37 7L37 5L38 5L38 4L39 4L39 3L42 3L42 2L43 2L43 0L41 0L41 1L40 1L40 0L39 0L39 1L38 1L38 0L37 0L37 1L38 1L38 2L39 2L39 3L36 3L36 0L35 0L35 1L33 1L33 0L32 0L32 1L31 1L31 0L27 0L27 1L26 1L26 0L23 0L23 2L25 2L25 1L26 1L26 2L27 2L27 3L28 3L28 1L31 1L31 2L30 2L30 3L31 3L31 4L26 4L26 3L23 3L23 4L19 4L19 3L18 3L18 2L20 2L20 0L17 0L17 1L14 1L14 0L12 0L12 1L11 1L11 0ZM21 0L21 1L22 1L22 0ZM8 1L8 2L9 2L9 1ZM12 1L12 2L14 2L14 4L13 4L13 3L11 3L11 5L10 5L10 6L9 6L9 7L10 7L10 9L12 9L12 10L11 10L11 11L13 11L13 12L14 12L14 11L13 11L13 10L15 10L15 11L16 11L16 12L15 12L15 13L13 13L13 14L12 14L12 15L11 15L11 14L10 14L10 15L11 15L11 16L9 16L9 18L10 18L10 19L8 19L8 17L6 17L6 18L7 18L7 19L6 19L6 20L8 20L8 21L9 21L9 23L10 23L10 25L9 25L9 26L10 26L10 25L11 25L11 29L10 29L10 28L9 28L9 29L10 29L10 30L9 30L9 31L8 31L8 32L7 32L7 31L6 31L6 32L7 32L7 33L6 33L6 34L7 34L7 33L8 33L8 35L9 35L9 34L10 34L10 33L13 33L13 34L14 34L14 35L15 35L15 36L13 36L13 37L11 37L11 36L10 36L10 37L8 37L8 38L7 38L7 37L6 37L6 38L7 38L7 39L6 39L6 40L7 40L7 39L8 39L8 38L9 38L9 40L12 40L12 39L13 39L13 41L12 41L12 47L11 47L11 46L9 46L9 48L8 48L8 49L9 49L9 48L10 48L10 49L11 49L11 50L9 50L9 51L11 51L11 53L12 53L12 54L13 54L13 53L15 53L15 54L16 54L16 53L17 53L17 52L16 52L16 53L15 53L15 51L17 51L17 47L18 47L18 46L17 46L17 45L18 45L18 44L17 44L17 45L16 45L16 43L14 43L14 44L13 44L13 42L14 42L14 41L15 41L15 42L17 42L17 43L18 43L18 42L19 42L19 43L20 43L20 44L19 44L19 45L20 45L20 46L21 46L21 45L22 45L22 46L23 46L23 47L21 47L21 49L23 49L23 47L24 47L24 45L25 45L25 48L24 48L24 49L25 49L25 50L26 50L26 49L25 49L25 48L27 48L27 47L28 47L28 48L30 48L30 47L28 47L28 46L30 46L30 45L29 45L29 44L32 44L32 45L31 45L31 47L32 47L32 45L33 45L33 46L35 46L35 47L33 47L33 48L32 48L32 49L31 49L31 50L32 50L32 49L33 49L33 50L34 50L34 51L35 51L35 50L36 50L36 52L37 52L37 51L38 51L38 52L39 52L39 53L37 53L37 54L40 54L40 53L42 53L42 52L43 52L43 51L44 51L44 50L46 50L46 51L47 51L47 53L48 53L48 50L47 50L47 49L48 49L48 48L49 48L49 47L48 47L48 45L49 45L49 46L50 46L50 48L51 48L51 45L52 45L52 47L53 47L53 46L54 46L54 47L55 47L55 46L56 46L56 43L55 43L55 44L54 44L54 45L52 45L52 44L53 44L53 43L54 43L54 42L53 42L53 41L54 41L54 40L53 40L53 41L51 41L51 42L50 42L50 43L49 43L49 42L48 42L48 41L49 41L49 39L47 39L47 38L48 38L48 37L50 37L50 39L54 39L54 38L53 38L53 35L55 35L55 34L54 34L54 33L52 33L52 32L54 32L54 31L52 31L52 32L51 32L51 33L52 33L52 34L50 34L50 31L48 31L48 29L46 29L46 30L47 30L47 31L48 31L48 32L46 32L46 33L45 33L45 32L43 32L43 31L45 31L45 28L46 28L46 27L48 27L48 25L50 25L50 26L52 26L52 25L54 25L54 24L53 24L53 23L50 23L50 22L51 22L51 21L54 21L54 22L56 22L56 21L55 21L55 20L56 20L56 19L55 19L55 20L53 20L53 19L52 19L52 18L55 18L55 17L53 17L53 15L54 15L54 14L56 14L56 11L55 11L55 12L54 12L54 13L53 13L53 12L52 12L52 13L53 13L53 15L52 15L52 16L51 16L51 15L50 15L50 14L51 14L51 12L50 12L50 11L49 11L49 10L48 10L48 11L47 11L47 12L45 12L45 11L41 11L41 12L40 12L40 11L39 11L39 12L40 12L40 13L38 13L38 14L37 14L37 13L35 13L35 12L37 12L37 11L36 11L36 10L37 10L37 9L35 9L35 8L34 8L34 9L33 9L33 7L34 7L34 6L33 6L33 5L35 5L35 2L33 2L33 1L32 1L32 2L31 2L31 3L32 3L32 4L31 4L31 8L32 8L32 10L31 10L31 11L30 11L30 10L29 10L29 9L28 9L28 10L27 10L27 11L26 11L26 12L25 12L25 10L23 10L23 8L24 8L24 9L25 9L25 8L26 8L26 4L25 4L25 8L24 8L24 6L23 6L23 8L19 8L19 9L20 9L20 10L19 10L19 12L20 12L20 14L19 14L19 15L18 15L18 16L20 16L20 18L18 18L18 19L16 19L16 21L15 21L15 18L17 18L17 17L15 17L15 15L14 15L14 17L13 17L13 16L12 16L12 15L13 15L13 14L15 14L15 13L16 13L16 16L17 16L17 13L18 13L18 12L17 12L17 11L18 11L18 10L17 10L17 9L16 9L16 8L17 8L17 7L18 7L18 6L19 6L19 7L20 7L20 5L19 5L19 4L17 4L17 3L15 3L15 2L14 2L14 1ZM17 1L17 2L18 2L18 1ZM46 1L46 2L47 2L47 1ZM21 2L21 3L22 3L22 2ZM32 2L32 3L33 3L33 4L32 4L32 5L33 5L33 4L34 4L34 3L33 3L33 2ZM44 3L44 6L43 6L43 7L42 7L42 5L40 5L40 6L39 6L39 8L38 8L38 10L39 10L39 9L40 9L40 10L41 10L41 9L43 9L43 7L44 7L44 6L45 6L45 7L46 7L46 6L45 6L45 4L46 4L46 5L47 5L47 3ZM12 4L12 5L11 5L11 6L10 6L10 7L11 7L11 8L12 8L12 9L14 9L14 7L15 7L15 8L16 8L16 7L17 7L17 6L18 6L18 5L17 5L17 6L16 6L16 7L15 7L15 5L16 5L16 4L15 4L15 5L14 5L14 7L13 7L13 4ZM23 4L23 5L24 5L24 4ZM36 4L36 5L37 5L37 4ZM27 5L27 8L30 8L30 5ZM11 6L11 7L12 7L12 6ZM21 6L21 7L22 7L22 6ZM28 6L28 7L29 7L29 6ZM32 6L32 7L33 7L33 6ZM40 6L40 7L41 7L41 6ZM48 6L48 7L49 7L49 6ZM44 8L44 10L47 10L47 9L45 9L45 8ZM51 8L51 9L52 9L52 8ZM53 8L53 9L54 9L54 8ZM55 8L55 9L56 9L56 8ZM1 9L1 12L2 12L2 11L5 11L5 10L2 10L2 9ZM22 10L22 11L20 11L20 12L22 12L22 13L21 13L21 14L20 14L20 15L23 15L23 16L24 16L24 15L23 15L23 14L27 14L27 13L28 13L28 14L29 14L29 16L28 16L28 15L27 15L27 16L28 16L28 17L22 17L22 16L21 16L21 17L22 17L22 18L21 18L21 19L20 19L20 20L19 20L19 19L18 19L18 20L17 20L17 21L16 21L16 22L14 22L14 21L12 21L12 20L11 20L11 19L10 19L10 20L9 20L9 21L10 21L10 23L11 23L11 21L12 21L12 22L14 22L14 24L13 24L13 23L12 23L12 24L11 24L11 25L12 25L12 27L13 27L13 28L12 28L12 29L11 29L11 30L10 30L10 31L11 31L11 32L14 32L14 33L15 33L15 32L17 32L17 34L16 34L16 35L17 35L17 34L18 34L18 36L17 36L17 37L18 37L18 38L20 38L20 39L19 39L19 40L17 40L17 41L19 41L19 42L20 42L20 40L21 40L21 39L24 39L24 40L23 40L23 41L24 41L24 42L22 42L22 43L21 43L21 44L20 44L20 45L21 45L21 44L22 44L22 45L24 45L24 43L25 43L25 44L27 44L27 45L26 45L26 47L27 47L27 45L28 45L28 44L29 44L29 43L32 43L32 44L33 44L33 43L34 43L34 45L36 45L36 48L34 48L34 49L36 49L36 50L38 50L38 51L40 51L40 52L41 52L41 50L42 50L42 51L43 51L43 49L44 49L44 48L45 48L45 47L46 47L46 49L47 49L47 48L48 48L48 47L47 47L47 46L45 46L45 45L47 45L47 43L48 43L48 42L47 42L47 43L46 43L46 42L44 42L44 40L45 40L45 39L42 39L42 38L43 38L43 37L44 37L44 38L45 38L45 37L44 37L44 36L46 36L46 37L47 37L47 36L48 36L48 35L47 35L47 36L46 36L46 34L45 34L45 33L43 33L43 32L41 32L41 33L39 33L39 34L40 34L40 35L38 35L38 33L37 33L37 32L34 32L34 31L36 31L36 30L37 30L37 29L38 29L38 28L40 28L40 26L41 26L41 28L42 28L42 26L43 26L43 29L40 29L40 30L44 30L44 28L45 28L45 27L46 27L46 26L45 26L45 25L46 25L46 24L47 24L47 25L48 25L48 23L47 23L47 22L49 22L49 21L51 21L51 20L52 20L52 19L50 19L50 17L49 17L49 16L50 16L50 15L49 15L49 14L50 14L50 12L49 12L49 11L48 11L48 12L49 12L49 13L47 13L47 14L45 14L45 13L44 13L44 12L43 12L43 13L41 13L41 14L38 14L38 15L39 15L39 16L38 16L38 17L37 17L37 16L35 16L35 14L32 14L32 13L30 13L30 14L29 14L29 13L28 13L28 12L29 12L29 11L27 11L27 12L26 12L26 13L25 13L25 12L24 12L24 11L23 11L23 10ZM32 10L32 11L31 11L31 12L33 12L33 13L34 13L34 12L33 12L33 10ZM5 12L5 13L6 13L6 14L7 14L7 13L6 13L6 12ZM10 12L10 13L12 13L12 12ZM16 12L16 13L17 13L17 12ZM3 13L3 14L2 14L2 16L4 16L4 17L5 17L5 16L8 16L8 15L9 15L9 14L8 14L8 15L5 15L5 14L4 14L4 13ZM22 13L22 14L23 14L23 13ZM3 14L3 15L4 15L4 14ZM30 14L30 15L31 15L31 14ZM41 14L41 16L39 16L39 17L38 17L38 18L37 18L37 17L35 17L35 16L33 16L33 15L32 15L32 17L31 17L31 18L30 18L30 19L31 19L31 18L32 18L32 19L36 19L36 20L37 20L37 21L38 21L38 22L39 22L39 23L40 23L40 22L39 22L39 21L42 21L42 20L39 20L39 21L38 21L38 20L37 20L37 19L39 19L39 17L41 17L41 16L42 16L42 17L43 17L43 16L42 16L42 15L43 15L43 14ZM44 14L44 18L43 18L43 20L44 20L44 23L41 23L41 24L38 24L38 23L37 23L37 24L38 24L38 26L37 26L37 25L33 25L33 24L32 24L32 23L33 23L33 22L34 22L34 23L35 23L35 20L34 20L34 21L33 21L33 20L32 20L32 21L31 21L31 20L30 20L30 21L29 21L29 19L28 19L28 18L26 18L26 20L25 20L25 21L24 21L24 20L23 20L23 19L24 19L24 18L23 18L23 19L22 19L22 20L20 20L20 21L18 21L18 22L20 22L20 23L18 23L18 24L19 24L19 25L20 25L20 26L18 26L18 25L17 25L17 24L16 24L16 23L15 23L15 25L13 25L13 26L14 26L14 27L15 27L15 29L16 29L16 30L17 30L17 32L19 32L19 33L20 33L20 35L19 35L19 37L23 37L23 38L24 38L24 37L23 37L23 36L24 36L24 34L23 34L23 33L25 33L25 35L26 35L26 32L21 32L21 31L23 31L23 29L24 29L24 27L23 27L23 26L22 26L22 25L24 25L24 24L25 24L25 25L26 25L26 26L25 26L25 27L26 27L26 26L30 26L30 25L29 25L29 24L32 24L32 26L31 26L31 28L32 28L32 29L33 29L33 30L35 30L35 28L37 28L37 27L39 27L39 25L41 25L41 24L44 24L44 25L45 25L45 23L46 23L46 22L47 22L47 20L48 20L48 21L49 21L49 18L47 18L47 17L48 17L48 16L49 16L49 15L48 15L48 16L47 16L47 15L46 15L46 16L45 16L45 14ZM25 15L25 16L26 16L26 15ZM10 17L10 18L12 18L12 17ZM14 17L14 18L15 18L15 17ZM41 18L41 19L42 19L42 18ZM44 18L44 20L47 20L47 18L46 18L46 19L45 19L45 18ZM13 19L13 20L14 20L14 19ZM23 21L23 22L24 22L24 21ZM25 21L25 22L26 22L26 23L25 23L25 24L27 24L27 23L28 23L28 24L29 24L29 23L30 23L30 22L31 22L31 21L30 21L30 22L29 22L29 21ZM45 21L45 22L46 22L46 21ZM6 23L6 24L7 24L7 23ZM23 23L23 24L24 24L24 23ZM49 23L49 24L50 24L50 25L51 25L51 24L50 24L50 23ZM3 24L3 26L2 26L2 27L3 27L3 29L4 29L4 24ZM20 24L20 25L21 25L21 24ZM6 25L6 26L8 26L8 25ZM16 26L16 27L18 27L18 26ZM20 26L20 27L22 27L22 26ZM32 26L32 27L33 27L33 28L35 28L35 27L36 27L36 26L34 26L34 27L33 27L33 26ZM44 26L44 27L45 27L45 26ZM53 26L53 27L54 27L54 26ZM5 27L5 30L8 30L8 27ZM27 27L27 30L30 30L30 27ZM49 27L49 30L52 30L52 27ZM6 28L6 29L7 29L7 28ZM16 28L16 29L18 29L18 31L19 31L19 32L20 32L20 31L21 31L21 30L20 30L20 29L22 29L22 28L19 28L19 29L18 29L18 28ZM25 28L25 29L26 29L26 28ZM28 28L28 29L29 29L29 28ZM50 28L50 29L51 29L51 28ZM1 29L1 30L2 30L2 29ZM12 29L12 31L13 31L13 30L14 30L14 31L15 31L15 30L14 30L14 29ZM53 29L53 30L54 30L54 29ZM31 30L31 31L30 31L30 32L29 32L29 31L27 31L27 37L25 37L25 38L27 38L27 39L25 39L25 40L24 40L24 41L25 41L25 43L27 43L27 44L28 44L28 43L27 43L27 42L29 42L29 41L30 41L30 40L32 40L32 41L31 41L31 42L32 42L32 43L33 43L33 42L34 42L34 43L35 43L35 44L36 44L36 43L37 43L37 42L35 42L35 40L38 40L38 42L39 42L39 43L40 43L40 44L39 44L39 45L38 45L38 46L39 46L39 47L38 47L38 48L37 48L37 49L38 49L38 50L41 50L41 48L42 48L42 49L43 49L43 48L44 48L44 47L45 47L45 46L44 46L44 47L43 47L43 46L41 46L41 44L42 44L42 42L41 42L41 38L40 38L40 37L41 37L41 36L42 36L42 35L43 35L43 36L44 36L44 35L45 35L45 34L42 34L42 35L41 35L41 36L40 36L40 37L38 37L38 35L37 35L37 34L35 34L35 33L34 33L34 32L32 32L32 30ZM38 30L38 32L39 32L39 30ZM4 32L4 33L5 33L5 32ZM8 32L8 33L10 33L10 32ZM28 32L28 33L29 33L29 34L30 34L30 36L29 36L29 37L31 37L31 38L29 38L29 39L33 39L33 40L35 40L35 39L37 39L37 38L38 38L38 40L40 40L40 39L39 39L39 38L38 38L38 37L37 37L37 36L35 36L35 35L34 35L34 34L33 34L33 33L32 33L32 32L31 32L31 33L29 33L29 32ZM48 32L48 33L49 33L49 32ZM21 33L21 34L22 34L22 33ZM31 33L31 35L33 35L33 36L32 36L32 37L33 37L33 38L35 38L35 36L34 36L34 35L33 35L33 34L32 34L32 33ZM49 34L49 35L50 35L50 36L51 36L51 37L52 37L52 35L53 35L53 34L52 34L52 35L50 35L50 34ZM10 37L10 39L11 39L11 37ZM15 37L15 38L14 38L14 40L15 40L15 41L16 41L16 39L15 39L15 38L16 38L16 37ZM27 37L27 38L28 38L28 37ZM27 39L27 41L26 41L26 42L27 42L27 41L29 41L29 40L28 40L28 39ZM46 39L46 41L47 41L47 39ZM42 40L42 41L43 41L43 40ZM0 41L0 43L1 43L1 41ZM10 41L10 42L11 42L11 41ZM32 41L32 42L33 42L33 41ZM39 41L39 42L40 42L40 41ZM43 42L43 43L44 43L44 45L45 45L45 44L46 44L46 43L44 43L44 42ZM51 42L51 43L50 43L50 44L49 44L49 45L51 45L51 43L53 43L53 42ZM14 44L14 45L13 45L13 47L12 47L12 48L14 48L14 49L15 49L15 47L16 47L16 46L15 46L15 47L14 47L14 45L15 45L15 44ZM5 45L5 46L7 46L7 45ZM54 45L54 46L55 46L55 45ZM1 46L1 47L2 47L2 46ZM40 46L40 47L39 47L39 48L38 48L38 49L39 49L39 48L41 48L41 46ZM10 47L10 48L11 48L11 47ZM19 47L19 48L20 48L20 47ZM42 47L42 48L43 48L43 47ZM53 48L53 49L56 49L56 48ZM12 49L12 50L11 50L11 51L12 51L12 52L13 52L13 51L14 51L14 50L13 50L13 49ZM27 49L27 52L30 52L30 49ZM49 49L49 52L52 52L52 49ZM28 50L28 51L29 51L29 50ZM50 50L50 51L51 51L51 50ZM44 52L44 53L43 53L43 54L44 54L44 53L45 53L45 52ZM53 52L53 53L54 53L54 52ZM24 53L24 54L23 54L23 55L24 55L24 56L25 56L25 53ZM9 54L9 55L10 55L10 54ZM19 54L19 55L20 55L20 54ZM41 54L41 55L42 55L42 54ZM37 55L37 56L39 56L39 55ZM50 55L50 56L51 56L51 55ZM53 55L53 56L55 56L55 57L56 57L56 56L55 56L55 55ZM11 56L11 57L13 57L13 56ZM43 56L43 57L44 57L44 56ZM0 0L0 7L7 7L7 0ZM1 1L1 6L6 6L6 1ZM2 2L2 5L5 5L5 2ZM50 0L50 7L57 7L57 0ZM51 1L51 6L56 6L56 1ZM52 2L52 5L55 5L55 2ZM0 50L0 57L7 57L7 50ZM1 51L1 56L6 56L6 51ZM2 52L2 55L5 55L5 52Z" fill="#000000"/></g></g></svg>
