<?xml version="1.0" encoding="UTF-8"?>
<svg xmlns="http://www.w3.org/2000/svg" version="1.1" width="300" height="300" viewBox="0 0 300 300"><rect x="0" y="0" width="300" height="300" fill="#fefefe"/><g transform="scale(4.615)"><g transform="translate(4,4)"><path fill-rule="evenodd" d="M8 0L8 2L10 2L10 0ZM12 0L12 1L11 1L11 3L12 3L12 5L11 5L11 4L10 4L10 5L9 5L9 4L8 4L8 9L9 9L9 8L10 8L10 7L11 7L11 6L12 6L12 9L11 9L11 11L9 11L9 13L10 13L10 12L11 12L11 13L12 13L12 12L13 12L13 11L12 11L12 9L13 9L13 6L14 6L14 7L15 7L15 6L16 6L16 7L17 7L17 8L18 8L18 9L19 9L19 10L17 10L17 14L15 14L15 15L17 15L17 16L18 16L18 17L19 17L19 18L18 18L18 19L17 19L17 20L16 20L16 16L14 16L14 15L13 15L13 14L11 14L11 15L9 15L9 14L8 14L8 13L7 13L7 12L8 12L8 10L6 10L6 11L7 11L7 12L6 12L6 13L5 13L5 12L4 12L4 14L6 14L6 15L5 15L5 16L4 16L4 15L3 15L3 16L4 16L4 18L3 18L3 20L4 20L4 21L2 21L2 19L1 19L1 18L2 18L2 16L1 16L1 14L3 14L3 11L5 11L5 10L3 10L3 11L2 11L2 9L3 9L3 8L0 8L0 9L1 9L1 10L0 10L0 13L1 13L1 14L0 14L0 17L1 17L1 18L0 18L0 23L2 23L2 24L1 24L1 27L4 27L4 28L2 28L2 30L3 30L3 31L2 31L2 34L0 34L0 38L1 38L1 39L3 39L3 35L4 35L4 34L3 34L3 33L5 33L5 32L6 32L6 33L7 33L7 34L5 34L5 36L4 36L4 39L8 39L8 40L11 40L11 41L12 41L12 42L10 42L10 41L7 41L7 40L5 40L5 42L4 42L4 41L3 41L3 42L2 42L2 43L3 43L3 42L4 42L4 43L5 43L5 42L6 42L6 43L7 43L7 44L4 44L4 46L5 46L5 47L3 47L3 44L0 44L0 45L1 45L1 46L0 46L0 48L5 48L5 47L7 47L7 48L6 48L6 49L7 49L7 48L8 48L8 50L9 50L9 51L8 51L8 52L9 52L9 54L8 54L8 57L11 57L11 54L10 54L10 53L12 53L12 54L13 54L13 56L12 56L12 57L14 57L14 56L16 56L16 57L17 57L17 56L18 56L18 57L19 57L19 52L20 52L20 53L21 53L21 51L20 51L20 49L21 49L21 48L22 48L22 51L24 51L24 52L22 52L22 53L23 53L23 55L22 55L22 54L20 54L20 55L22 55L22 57L25 57L25 55L24 55L24 54L25 54L25 51L24 51L24 49L23 49L23 48L24 48L24 47L26 47L26 46L27 46L27 44L29 44L29 46L28 46L28 48L25 48L25 50L26 50L26 55L27 55L27 56L26 56L26 57L28 57L28 55L29 55L29 57L33 57L33 55L30 55L30 54L31 54L31 53L32 53L32 54L34 54L34 57L35 57L35 55L38 55L38 52L40 52L40 53L39 53L39 55L40 55L40 57L42 57L42 56L44 56L44 57L45 57L45 56L46 56L46 55L47 55L47 56L48 56L48 55L49 55L49 57L50 57L50 55L49 55L49 54L52 54L52 55L53 55L53 56L51 56L51 57L54 57L54 55L57 55L57 54L54 54L54 53L57 53L57 49L56 49L56 47L57 47L57 42L56 42L56 41L57 41L57 40L55 40L55 42L54 42L54 38L57 38L57 37L55 37L55 36L54 36L54 34L53 34L53 36L51 36L51 33L50 33L50 32L51 32L51 31L52 31L52 32L54 32L54 31L55 31L55 33L56 33L56 35L57 35L57 33L56 33L56 31L57 31L57 29L56 29L56 27L57 27L57 24L56 24L56 23L57 23L57 20L56 20L56 23L55 23L55 24L56 24L56 25L55 25L55 26L54 26L54 25L53 25L53 24L54 24L54 22L55 22L55 21L54 21L54 19L55 19L55 18L56 18L56 19L57 19L57 12L56 12L56 15L55 15L55 14L54 14L54 13L53 13L53 12L54 12L54 11L55 11L55 9L57 9L57 8L55 8L55 9L54 9L54 10L52 10L52 9L53 9L53 8L49 8L49 6L48 6L48 8L47 8L47 5L48 5L48 0L46 0L46 1L47 1L47 2L45 2L45 4L44 4L44 2L43 2L43 4L42 4L42 1L45 1L45 0L42 0L42 1L41 1L41 0L38 0L38 2L37 2L37 1L35 1L35 0L34 0L34 3L33 3L33 6L32 6L32 7L33 7L33 6L34 6L34 8L32 8L32 9L31 9L31 5L32 5L32 1L33 1L33 0L32 0L32 1L31 1L31 0L29 0L29 1L28 1L28 2L27 2L27 0L24 0L24 1L23 1L23 0L19 0L19 1L18 1L18 2L17 2L17 0L16 0L16 2L17 2L17 4L16 4L16 3L15 3L15 0L14 0L14 3L13 3L13 2L12 2L12 1L13 1L13 0ZM19 1L19 2L18 2L18 4L17 4L17 5L16 5L16 6L17 6L17 7L18 7L18 8L19 8L19 7L20 7L20 5L21 5L21 2L22 2L22 1ZM24 1L24 4L25 4L25 1ZM39 1L39 2L38 2L38 3L37 3L37 2L35 2L35 3L34 3L34 4L35 4L35 9L34 9L34 10L33 10L33 9L32 9L32 11L31 11L31 12L30 12L30 11L29 11L29 12L30 12L30 13L29 13L29 15L28 15L28 14L26 14L26 16L27 16L27 17L25 17L25 13L24 13L24 15L23 15L23 12L22 12L22 11L23 11L23 9L24 9L24 11L26 11L26 13L27 13L27 12L28 12L28 9L27 9L27 10L25 10L25 9L26 9L26 5L24 5L24 6L23 6L23 5L22 5L22 6L21 6L21 7L22 7L22 6L23 6L23 9L22 9L22 8L21 8L21 9L20 9L20 11L18 11L18 12L19 12L19 13L18 13L18 14L19 14L19 13L20 13L20 14L22 14L22 16L24 16L24 18L25 18L25 19L24 19L24 20L25 20L25 21L26 21L26 20L27 20L27 22L26 22L26 23L27 23L27 22L28 22L28 24L27 24L27 25L26 25L26 26L27 26L27 25L28 25L28 24L30 24L30 26L31 26L31 25L32 25L32 27L31 27L31 29L32 29L32 30L31 30L31 31L32 31L32 32L30 32L30 31L27 31L27 32L26 32L26 33L25 33L25 32L24 32L24 31L26 31L26 30L25 30L25 27L24 27L24 26L25 26L25 25L24 25L24 26L23 26L23 27L22 27L22 28L24 28L24 31L23 31L23 32L24 32L24 34L25 34L25 35L22 35L22 34L23 34L23 33L22 33L22 30L23 30L23 29L22 29L22 30L21 30L21 28L20 28L20 27L21 27L21 26L22 26L22 22L21 22L21 21L22 21L22 19L21 19L21 17L20 17L20 18L19 18L19 19L18 19L18 20L17 20L17 22L16 22L16 23L17 23L17 25L16 25L16 24L15 24L15 21L14 21L14 22L13 22L13 21L12 21L12 19L13 19L13 18L15 18L15 17L14 17L14 16L13 16L13 15L12 15L12 16L8 16L8 14L7 14L7 13L6 13L6 14L7 14L7 15L6 15L6 16L5 16L5 17L6 17L6 18L7 18L7 17L10 17L10 18L11 18L11 17L12 17L12 19L11 19L11 20L10 20L10 19L9 19L9 18L8 18L8 19L9 19L9 20L10 20L10 23L9 23L9 21L8 21L8 22L7 22L7 21L6 21L6 20L7 20L7 19L6 19L6 20L5 20L5 19L4 19L4 20L5 20L5 21L4 21L4 22L5 22L5 21L6 21L6 22L7 22L7 23L3 23L3 25L2 25L2 26L3 26L3 25L4 25L4 26L5 26L5 25L6 25L6 26L7 26L7 25L6 25L6 24L8 24L8 26L9 26L9 25L10 25L10 24L11 24L11 22L13 22L13 23L12 23L12 25L11 25L11 26L10 26L10 29L11 29L11 30L9 30L9 32L7 32L7 31L6 31L6 32L7 32L7 33L9 33L9 34L7 34L7 35L6 35L6 36L7 36L7 37L5 37L5 38L7 38L7 37L8 37L8 36L9 36L9 34L11 34L11 35L10 35L10 36L11 36L11 35L12 35L12 36L13 36L13 34L14 34L14 33L16 33L16 35L14 35L14 36L15 36L15 37L13 37L13 38L14 38L14 39L13 39L13 40L12 40L12 41L13 41L13 40L14 40L14 42L15 42L15 43L13 43L13 42L12 42L12 43L10 43L10 44L9 44L9 43L8 43L8 42L7 42L7 41L6 41L6 42L7 42L7 43L8 43L8 44L9 44L9 45L10 45L10 44L13 44L13 45L16 45L16 46L17 46L17 44L16 44L16 42L17 42L17 41L16 41L16 40L17 40L17 39L18 39L18 40L19 40L19 41L20 41L20 42L21 42L21 43L20 43L20 44L19 44L19 43L18 43L18 44L19 44L19 45L18 45L18 47L16 47L16 50L15 50L15 51L16 51L16 50L18 50L18 52L17 52L17 54L16 54L16 55L17 55L17 54L18 54L18 52L19 52L19 49L18 49L18 48L19 48L19 45L20 45L20 48L21 48L21 46L22 46L22 48L23 48L23 45L24 45L24 46L26 46L26 45L25 45L25 44L24 44L24 42L26 42L26 41L25 41L25 40L26 40L26 39L27 39L27 41L28 41L28 43L30 43L30 46L29 46L29 48L31 48L31 52L32 52L32 51L33 51L33 52L34 52L34 54L35 54L35 53L36 53L36 54L37 54L37 53L36 53L36 52L34 52L34 51L37 51L37 49L36 49L36 48L37 48L37 47L38 47L38 51L39 51L39 49L40 49L40 51L41 51L41 53L42 53L42 54L40 54L40 55L42 55L42 54L43 54L43 55L44 55L44 56L45 56L45 55L44 55L44 52L43 52L43 51L41 51L41 49L42 49L42 50L43 50L43 49L44 49L44 46L45 46L45 45L44 45L44 44L45 44L45 43L46 43L46 42L47 42L47 43L48 43L48 42L49 42L49 44L48 44L48 46L51 46L51 45L52 45L52 47L51 47L51 48L53 48L53 49L54 49L54 50L53 50L53 51L54 51L54 52L56 52L56 49L54 49L54 48L55 48L55 47L56 47L56 44L55 44L55 43L56 43L56 42L55 42L55 43L54 43L54 44L53 44L53 40L52 40L52 39L53 39L53 38L54 38L54 36L53 36L53 37L52 37L52 39L51 39L51 40L50 40L50 33L49 33L49 34L48 34L48 33L46 33L46 34L45 34L45 37L46 37L46 38L47 38L47 40L45 40L45 41L46 41L46 42L44 42L44 39L43 39L43 38L44 38L44 35L43 35L43 33L42 33L42 31L43 31L43 30L44 30L44 31L45 31L45 32L46 32L46 31L47 31L47 30L48 30L48 29L47 29L47 28L46 28L46 29L45 29L45 30L44 30L44 27L45 27L45 25L44 25L44 24L45 24L45 23L47 23L47 20L46 20L46 19L48 19L48 23L49 23L49 24L50 24L50 26L51 26L51 25L52 25L52 26L53 26L53 25L52 25L52 23L53 23L53 22L52 22L52 20L53 20L53 19L54 19L54 16L55 16L55 17L56 17L56 16L55 16L55 15L54 15L54 16L53 16L53 14L52 14L52 13L50 13L50 11L51 11L51 12L52 12L52 11L51 11L51 9L50 9L50 11L48 11L48 14L47 14L47 13L46 13L46 11L47 11L47 8L46 8L46 5L47 5L47 3L46 3L46 4L45 4L45 5L44 5L44 4L43 4L43 5L42 5L42 4L41 4L41 2L40 2L40 1ZM29 2L29 3L28 3L28 4L29 4L29 3L30 3L30 2ZM39 2L39 4L38 4L38 5L39 5L39 4L40 4L40 2ZM14 3L14 4L15 4L15 3ZM22 3L22 4L23 4L23 3ZM26 3L26 4L27 4L27 3ZM35 3L35 4L36 4L36 3ZM18 4L18 5L17 5L17 6L18 6L18 7L19 7L19 4ZM10 5L10 6L9 6L9 7L10 7L10 6L11 6L11 5ZM12 5L12 6L13 6L13 5ZM27 5L27 8L30 8L30 5ZM41 5L41 6L40 6L40 7L41 7L41 6L42 6L42 8L40 8L40 9L41 9L41 10L39 10L39 11L38 11L38 8L39 8L39 6L38 6L38 7L37 7L37 6L36 6L36 10L34 10L34 11L33 11L33 12L32 12L32 13L31 13L31 14L32 14L32 13L33 13L33 15L34 15L34 17L33 17L33 16L32 16L32 15L31 15L31 16L30 16L30 15L29 15L29 16L30 16L30 17L28 17L28 18L30 18L30 17L31 17L31 19L30 19L30 21L29 21L29 19L28 19L28 22L30 22L30 24L31 24L31 23L32 23L32 25L33 25L33 26L34 26L34 24L36 24L36 26L37 26L37 28L36 28L36 27L34 27L34 29L33 29L33 28L32 28L32 29L33 29L33 32L32 32L32 33L31 33L31 34L30 34L30 32L29 32L29 34L28 34L28 33L27 33L27 34L26 34L26 35L25 35L25 36L24 36L24 37L26 37L26 38L24 38L24 39L26 39L26 38L27 38L27 36L28 36L28 37L29 37L29 36L28 36L28 35L31 35L31 36L30 36L30 40L29 40L29 41L31 41L31 38L33 38L33 39L34 39L34 41L33 41L33 40L32 40L32 46L30 46L30 47L34 47L34 48L32 48L32 49L33 49L33 51L34 51L34 49L35 49L35 47L34 47L34 45L33 45L33 44L36 44L36 45L37 45L37 46L38 46L38 45L37 45L37 44L39 44L39 47L40 47L40 49L41 49L41 47L42 47L42 45L43 45L43 44L42 44L42 45L41 45L41 43L44 43L44 42L42 42L42 41L43 41L43 40L42 40L42 39L41 39L41 36L42 36L42 37L43 37L43 36L42 36L42 35L40 35L40 36L38 36L38 35L39 35L39 34L38 34L38 33L39 33L39 32L40 32L40 34L42 34L42 33L41 33L41 32L40 32L40 31L42 31L42 28L43 28L43 27L41 27L41 24L42 24L42 25L43 25L43 24L44 24L44 23L45 23L45 22L46 22L46 21L45 21L45 19L46 19L46 17L47 17L47 18L48 18L48 17L49 17L49 20L51 20L51 18L50 18L50 17L51 17L51 16L50 16L50 13L49 13L49 14L48 14L48 15L46 15L46 13L45 13L45 12L44 12L44 10L45 10L45 11L46 11L46 8L45 8L45 6L44 6L44 5L43 5L43 6L42 6L42 5ZM24 6L24 7L25 7L25 6ZM28 6L28 7L29 7L29 6ZM43 6L43 8L42 8L42 10L44 10L44 6ZM5 8L5 9L7 9L7 8ZM14 8L14 9L15 9L15 11L14 11L14 12L16 12L16 8ZM24 8L24 9L25 9L25 8ZM48 8L48 10L49 10L49 8ZM21 9L21 10L22 10L22 9ZM30 9L30 10L31 10L31 9ZM56 10L56 11L57 11L57 10ZM20 11L20 13L21 13L21 11ZM34 11L34 12L35 12L35 13L34 13L34 15L35 15L35 17L34 17L34 18L33 18L33 17L32 17L32 16L31 16L31 17L32 17L32 19L33 19L33 20L34 20L34 22L33 22L33 21L32 21L32 20L31 20L31 21L30 21L30 22L33 22L33 24L34 24L34 22L35 22L35 23L36 23L36 24L37 24L37 25L38 25L38 26L39 26L39 25L38 25L38 23L36 23L36 22L37 22L37 21L38 21L38 22L39 22L39 23L42 23L42 22L43 22L43 23L44 23L44 22L45 22L45 21L44 21L44 19L45 19L45 17L44 17L44 16L46 16L46 15L45 15L45 13L44 13L44 12L42 12L42 11L41 11L41 12L42 12L42 15L41 15L41 17L42 17L42 18L43 18L43 17L44 17L44 19L42 19L42 20L43 20L43 21L42 21L42 22L40 22L40 19L41 19L41 18L40 18L40 15L39 15L39 14L40 14L40 11L39 11L39 12L37 12L37 11L36 11L36 12L35 12L35 11ZM36 12L36 13L37 13L37 14L36 14L36 18L34 18L34 19L35 19L35 20L36 20L36 21L35 21L35 22L36 22L36 21L37 21L37 20L38 20L38 21L39 21L39 19L40 19L40 18L38 18L38 16L37 16L37 15L38 15L38 13L37 13L37 12ZM43 13L43 16L44 16L44 13ZM51 14L51 15L52 15L52 14ZM18 15L18 16L20 16L20 15ZM6 16L6 17L7 17L7 16ZM47 16L47 17L48 17L48 16ZM52 16L52 18L53 18L53 16ZM36 18L36 19L37 19L37 18ZM14 19L14 20L15 20L15 19ZM19 19L19 20L18 20L18 23L19 23L19 20L20 20L20 21L21 21L21 20L20 20L20 19ZM25 19L25 20L26 20L26 19ZM1 21L1 22L2 22L2 21ZM43 21L43 22L44 22L44 21ZM20 22L20 23L21 23L21 22ZM24 22L24 23L25 23L25 22ZM49 22L49 23L50 23L50 24L51 24L51 23L52 23L52 22L51 22L51 23L50 23L50 22ZM8 23L8 24L9 24L9 23ZM13 23L13 25L12 25L12 27L11 27L11 28L13 28L13 29L12 29L12 30L11 30L11 31L10 31L10 33L11 33L11 34L13 34L13 33L14 33L14 30L15 30L15 31L16 31L16 33L17 33L17 34L18 34L18 35L19 35L19 36L18 36L18 37L17 37L17 35L16 35L16 37L17 37L17 38L16 38L16 39L17 39L17 38L18 38L18 37L19 37L19 40L20 40L20 41L21 41L21 42L22 42L22 41L23 41L23 40L22 40L22 39L20 39L20 38L22 38L22 37L23 37L23 36L22 36L22 35L21 35L21 36L20 36L20 33L19 33L19 31L20 31L20 32L21 32L21 31L20 31L20 29L19 29L19 30L18 30L18 33L17 33L17 31L16 31L16 30L15 30L15 28L16 28L16 27L17 27L17 26L16 26L16 25L15 25L15 24L14 24L14 23ZM18 24L18 25L19 25L19 27L18 27L18 28L19 28L19 27L20 27L20 24ZM46 25L46 26L47 26L47 27L48 27L48 26L49 26L49 25L48 25L48 26L47 26L47 25ZM13 26L13 27L14 27L14 28L15 28L15 27L14 27L14 26ZM5 27L5 30L8 30L8 27ZM27 27L27 30L30 30L30 27ZM40 27L40 28L39 28L39 29L38 29L38 28L37 28L37 30L36 30L36 28L35 28L35 29L34 29L34 32L35 32L35 33L34 33L34 34L35 34L35 33L36 33L36 35L35 35L35 36L34 36L34 35L33 35L33 34L32 34L32 35L33 35L33 36L34 36L34 39L35 39L35 41L34 41L34 42L35 42L35 41L36 41L36 44L37 44L37 43L39 43L39 42L40 42L40 43L41 43L41 42L40 42L40 38L39 38L39 37L38 37L38 38L39 38L39 41L38 41L38 39L37 39L37 41L36 41L36 38L37 38L37 37L36 37L36 35L38 35L38 34L37 34L37 33L36 33L36 31L37 31L37 32L38 32L38 31L39 31L39 30L40 30L40 28L41 28L41 27ZM49 27L49 30L52 30L52 27ZM54 27L54 28L53 28L53 29L54 29L54 30L53 30L53 31L54 31L54 30L55 30L55 31L56 31L56 30L55 30L55 27ZM0 28L0 29L1 29L1 28ZM6 28L6 29L7 29L7 28ZM28 28L28 29L29 29L29 28ZM50 28L50 29L51 29L51 28ZM3 29L3 30L4 30L4 29ZM35 30L35 31L36 31L36 30ZM37 30L37 31L38 31L38 30ZM45 30L45 31L46 31L46 30ZM0 31L0 33L1 33L1 31ZM3 31L3 32L4 32L4 31ZM11 31L11 32L12 32L12 31ZM49 31L49 32L50 32L50 31ZM18 33L18 34L19 34L19 33ZM27 34L27 35L28 35L28 34ZM46 34L46 37L47 37L47 38L48 38L48 40L47 40L47 41L48 41L48 40L49 40L49 37L48 37L48 36L49 36L49 35L48 35L48 34ZM47 35L47 36L48 36L48 35ZM21 36L21 37L22 37L22 36ZM31 36L31 37L32 37L32 36ZM10 37L10 39L11 39L11 38L12 38L12 37ZM35 37L35 38L36 38L36 37ZM8 38L8 39L9 39L9 38ZM28 38L28 39L29 39L29 38ZM14 39L14 40L15 40L15 39ZM0 40L0 41L1 41L1 40ZM21 40L21 41L22 41L22 40ZM51 40L51 41L49 41L49 42L50 42L50 44L52 44L52 45L53 45L53 44L52 44L52 40ZM15 41L15 42L16 42L16 41ZM37 41L37 42L38 42L38 41ZM30 42L30 43L31 43L31 42ZM22 43L22 44L23 44L23 43ZM20 44L20 45L21 45L21 44ZM46 44L46 47L45 47L45 51L47 51L47 52L45 52L45 53L46 53L46 54L47 54L47 55L48 55L48 54L49 54L49 53L47 53L47 52L48 52L48 51L47 51L47 49L46 49L46 48L47 48L47 44ZM5 45L5 46L8 46L8 45ZM11 45L11 46L9 46L9 47L11 47L11 49L10 49L10 50L12 50L12 51L13 51L13 52L12 52L12 53L13 53L13 54L14 54L14 53L15 53L15 52L14 52L14 51L13 51L13 50L14 50L14 49L15 49L15 48L14 48L14 47L15 47L15 46L12 46L12 45ZM40 45L40 47L41 47L41 45ZM54 45L54 46L53 46L53 48L54 48L54 46L55 46L55 45ZM1 46L1 47L2 47L2 46ZM12 48L12 50L13 50L13 49L14 49L14 48ZM27 49L27 52L30 52L30 49ZM49 49L49 52L52 52L52 49ZM28 50L28 51L29 51L29 50ZM50 50L50 51L51 51L51 50ZM9 51L9 52L11 52L11 51ZM27 53L27 55L28 55L28 53ZM9 54L9 56L10 56L10 54ZM20 56L20 57L21 57L21 56ZM36 56L36 57L37 57L37 56ZM56 56L56 57L57 57L57 56ZM0 0L0 7L7 7L7 0ZM1 1L1 6L6 6L6 1ZM2 2L2 5L5 5L5 2ZM50 0L50 7L57 7L57 0ZM51 1L51 6L56 6L56 1ZM52 2L52 5L55 5L55 2ZM0 50L0 57L7 57L7 50ZM1 51L1 56L6 56L6 51ZM2 52L2 55L5 55L5 52Z" fill="#000000"/></g></g></svg>
