<?xml version="1.0" encoding="UTF-8"?>
<svg xmlns="http://www.w3.org/2000/svg" version="1.1" width="300" height="300" viewBox="0 0 300 300"><rect x="0" y="0" width="300" height="300" fill="#fefefe"/><g transform="scale(4.615)"><g transform="translate(4,4)"><path fill-rule="evenodd" d="M8 0L8 2L9 2L9 3L10 3L10 2L9 2L9 1L10 1L10 0ZM11 0L11 1L12 1L12 2L11 2L11 4L10 4L10 5L11 5L11 4L12 4L12 3L13 3L13 5L14 5L14 7L13 7L13 6L12 6L12 7L11 7L11 6L10 6L10 7L9 7L9 4L8 4L8 9L9 9L9 8L10 8L10 7L11 7L11 8L14 8L14 9L13 9L13 10L14 10L14 9L15 9L15 11L14 11L14 12L15 12L15 11L16 11L16 8L14 8L14 7L15 7L15 6L16 6L16 7L17 7L17 14L15 14L15 15L14 15L14 14L13 14L13 15L14 15L14 17L13 17L13 18L12 18L12 16L11 16L11 15L12 15L12 14L11 14L11 13L13 13L13 11L11 11L11 10L12 10L12 9L11 9L11 10L10 10L10 11L8 11L8 12L6 12L6 11L7 11L7 10L6 10L6 9L7 9L7 8L5 8L5 12L4 12L4 13L2 13L2 9L3 9L3 8L0 8L0 9L1 9L1 10L0 10L0 11L1 11L1 12L0 12L0 13L2 13L2 14L1 14L1 15L0 15L0 17L1 17L1 18L0 18L0 20L3 20L3 21L4 21L4 23L2 23L2 22L1 22L1 23L0 23L0 24L1 24L1 25L0 25L0 26L1 26L1 25L2 25L2 24L4 24L4 23L5 23L5 24L6 24L6 25L7 25L7 24L9 24L9 26L5 26L5 25L4 25L4 26L2 26L2 27L0 27L0 29L1 29L1 28L2 28L2 30L0 30L0 32L1 32L1 33L2 33L2 32L3 32L3 31L2 31L2 30L4 30L4 31L5 31L5 32L4 32L4 33L3 33L3 34L4 34L4 33L5 33L5 32L6 32L6 33L7 33L7 34L6 34L6 35L5 35L5 36L4 36L4 35L3 35L3 36L2 36L2 34L0 34L0 36L1 36L1 37L0 37L0 38L1 38L1 39L3 39L3 41L2 41L2 40L0 40L0 42L1 42L1 43L0 43L0 44L1 44L1 45L0 45L0 48L5 48L5 47L9 47L9 48L6 48L6 49L8 49L8 50L9 50L9 51L8 51L8 52L9 52L9 51L10 51L10 52L11 52L11 53L9 53L9 54L8 54L8 57L11 57L11 56L12 56L12 55L13 55L13 57L17 57L17 55L18 55L18 57L19 57L19 55L18 55L18 53L19 53L19 51L20 51L20 53L21 53L21 51L20 51L20 48L22 48L22 51L24 51L24 52L22 52L22 53L23 53L23 55L22 55L22 57L23 57L23 56L24 56L24 57L25 57L25 55L26 55L26 57L28 57L28 55L29 55L29 57L33 57L33 55L34 55L34 57L35 57L35 55L37 55L37 54L38 54L38 53L39 53L39 55L40 55L40 57L41 57L41 56L42 56L42 57L43 57L43 54L42 54L42 53L43 53L43 52L44 52L44 55L46 55L46 56L44 56L44 57L46 57L46 56L47 56L47 57L48 57L48 55L49 55L49 57L50 57L50 55L49 55L49 54L52 54L52 55L53 55L53 56L51 56L51 57L53 57L53 56L54 56L54 55L57 55L57 54L54 54L54 53L56 53L56 52L57 52L57 50L56 50L56 52L54 52L54 51L53 51L53 50L54 50L54 46L55 46L55 45L53 45L53 48L49 48L49 43L48 43L48 44L47 44L47 43L46 43L46 41L48 41L48 40L51 40L51 41L49 41L49 42L50 42L50 44L52 44L52 39L51 39L51 38L52 38L52 37L53 37L53 38L54 38L54 39L53 39L53 40L54 40L54 41L53 41L53 44L54 44L54 43L55 43L55 42L54 42L54 41L56 41L56 43L57 43L57 40L54 40L54 39L55 39L55 38L57 38L57 33L56 33L56 31L57 31L57 24L56 24L56 23L57 23L57 21L56 21L56 20L55 20L55 21L54 21L54 19L55 19L55 16L56 16L56 19L57 19L57 13L56 13L56 12L55 12L55 13L54 13L54 14L53 14L53 12L54 12L54 11L55 11L55 9L57 9L57 8L55 8L55 9L54 9L54 10L53 10L53 8L49 8L49 10L48 10L48 7L49 7L49 6L48 6L48 7L47 7L47 5L48 5L48 0L42 0L42 1L41 1L41 0L38 0L38 2L37 2L37 1L35 1L35 0L34 0L34 2L33 2L33 1L32 1L32 0L30 0L30 3L31 3L31 4L28 4L28 3L27 3L27 1L28 1L28 0L26 0L26 2L25 2L25 4L24 4L24 1L25 1L25 0L24 0L24 1L23 1L23 0L20 0L20 1L19 1L19 0L16 0L16 1L19 1L19 3L22 3L22 2L21 2L21 1L23 1L23 6L22 6L22 5L20 5L20 7L19 7L19 4L18 4L18 2L17 2L17 4L16 4L16 2L15 2L15 0L14 0L14 3L13 3L13 1L12 1L12 0ZM31 1L31 2L32 2L32 5L31 5L31 9L30 9L30 11L29 11L29 10L28 10L28 11L27 11L27 10L25 10L25 9L26 9L26 5L24 5L24 6L23 6L23 7L22 7L22 6L21 6L21 9L20 9L20 8L19 8L19 7L18 7L18 5L16 5L16 6L17 6L17 7L18 7L18 8L19 8L19 9L20 9L20 10L21 10L21 11L18 11L18 12L19 12L19 13L18 13L18 14L17 14L17 15L15 15L15 16L16 16L16 19L14 19L14 20L16 20L16 19L17 19L17 21L18 21L18 22L19 22L19 25L18 25L18 23L17 23L17 22L16 22L16 23L17 23L17 25L16 25L16 24L15 24L15 25L14 25L14 24L13 24L13 23L11 23L11 24L10 24L10 25L11 25L11 24L12 24L12 25L13 25L13 26L12 26L12 27L11 27L11 28L10 28L10 29L11 29L11 28L13 28L13 27L14 27L14 26L15 26L15 27L16 27L16 26L17 26L17 28L15 28L15 29L13 29L13 30L11 30L11 31L10 31L10 30L9 30L9 31L10 31L10 32L9 32L9 33L8 33L8 35L6 35L6 36L5 36L5 37L4 37L4 36L3 36L3 38L4 38L4 39L6 39L6 40L7 40L7 39L8 39L8 41L4 41L4 42L3 42L3 44L2 44L2 45L4 45L4 46L3 46L3 47L5 47L5 45L4 45L4 43L5 43L5 44L7 44L7 45L6 45L6 46L7 46L7 45L8 45L8 46L9 46L9 47L11 47L11 46L10 46L10 45L12 45L12 44L11 44L11 41L12 41L12 43L14 43L14 41L15 41L15 40L16 40L16 42L15 42L15 43L16 43L16 42L18 42L18 39L19 39L19 38L18 38L18 39L16 39L16 38L17 38L17 37L18 37L18 36L20 36L20 35L18 35L18 34L17 34L17 33L18 33L18 31L19 31L19 33L20 33L20 34L21 34L21 35L22 35L22 34L23 34L23 33L22 33L22 30L23 30L23 31L25 31L25 32L24 32L24 34L26 34L26 35L28 35L28 36L27 36L27 38L26 38L26 37L24 37L24 36L25 36L25 35L23 35L23 38L22 38L22 36L21 36L21 38L20 38L20 39L21 39L21 41L20 41L20 42L19 42L19 43L18 43L18 44L19 44L19 45L18 45L18 46L19 46L19 45L20 45L20 46L22 46L22 48L23 48L23 49L24 49L24 51L25 51L25 54L24 54L24 55L25 55L25 54L26 54L26 55L28 55L28 53L27 53L27 54L26 54L26 50L25 50L25 49L26 49L26 48L29 48L29 47L30 47L30 48L31 48L31 49L32 49L32 50L33 50L33 51L34 51L34 52L35 52L35 53L34 53L34 54L35 54L35 53L36 53L36 54L37 54L37 53L38 53L38 52L39 52L39 53L40 53L40 52L39 52L39 49L40 49L40 51L41 51L41 52L43 52L43 51L45 51L45 49L46 49L46 51L47 51L47 52L46 52L46 55L48 55L48 54L49 54L49 53L48 53L48 54L47 54L47 52L48 52L48 51L47 51L47 47L48 47L48 45L47 45L47 44L46 44L46 47L45 47L45 46L44 46L44 44L45 44L45 43L44 43L44 42L45 42L45 41L46 41L46 40L45 40L45 41L44 41L44 42L43 42L43 40L42 40L42 39L43 39L43 38L44 38L44 34L45 34L45 33L44 33L44 34L43 34L43 33L42 33L42 31L44 31L44 30L46 30L46 31L45 31L45 32L47 32L47 30L48 30L48 26L49 26L49 25L48 25L48 26L47 26L47 25L46 25L46 24L45 24L45 23L48 23L48 22L50 22L50 23L49 23L49 24L50 24L50 23L51 23L51 22L52 22L52 24L51 24L51 25L50 25L50 26L53 26L53 25L52 25L52 24L53 24L53 22L52 22L52 20L53 20L53 19L54 19L54 16L55 16L55 15L56 15L56 13L55 13L55 14L54 14L54 16L53 16L53 14L52 14L52 13L50 13L50 10L51 10L51 9L50 9L50 10L49 10L49 11L48 11L48 10L47 10L47 7L46 7L46 6L45 6L45 5L44 5L44 4L45 4L45 2L47 2L47 1L42 1L42 2L40 2L40 1L39 1L39 2L40 2L40 4L39 4L39 3L37 3L37 2L34 2L34 4L35 4L35 9L34 9L34 10L33 10L33 9L32 9L32 8L34 8L34 6L33 6L33 2L32 2L32 1ZM43 2L43 4L42 4L42 3L41 3L41 4L42 4L42 5L43 5L43 6L42 6L42 7L41 7L41 6L40 6L40 7L39 7L39 6L38 6L38 8L37 8L37 6L36 6L36 10L34 10L34 11L33 11L33 12L32 12L32 9L31 9L31 11L30 11L30 12L29 12L29 11L28 11L28 12L27 12L27 14L28 14L28 15L29 15L29 16L30 16L30 17L28 17L28 18L30 18L30 17L31 17L31 16L32 16L32 17L33 17L33 18L32 18L32 19L29 19L29 20L28 20L28 22L27 22L27 20L26 20L26 19L27 19L27 17L26 17L26 14L23 14L23 16L22 16L22 14L21 14L21 15L20 15L20 17L19 17L19 16L18 16L18 17L17 17L17 18L18 18L18 19L19 19L19 18L20 18L20 19L21 19L21 20L20 20L20 21L21 21L21 22L20 22L20 23L21 23L21 24L22 24L22 25L21 25L21 26L20 26L20 27L18 27L18 28L19 28L19 31L21 31L21 30L22 30L22 29L23 29L23 30L24 30L24 29L25 29L25 30L26 30L26 32L25 32L25 33L26 33L26 32L28 32L28 31L29 31L29 34L28 34L28 33L27 33L27 34L28 34L28 35L31 35L31 36L30 36L30 41L29 41L29 42L28 42L28 40L25 40L25 41L26 41L26 42L25 42L25 45L26 45L26 46L24 46L24 44L23 44L23 43L24 43L24 40L22 40L22 41L23 41L23 43L22 43L22 44L23 44L23 47L24 47L24 48L25 48L25 47L26 47L26 46L27 46L27 47L28 47L28 45L31 45L31 46L30 46L30 47L31 47L31 48L32 48L32 49L33 49L33 48L34 48L34 45L33 45L33 44L36 44L36 45L35 45L35 46L36 46L36 47L37 47L37 48L36 48L36 49L37 49L37 51L35 51L35 52L36 52L36 53L37 53L37 52L38 52L38 47L37 47L37 46L38 46L38 45L37 45L37 44L39 44L39 43L40 43L40 45L39 45L39 47L40 47L40 49L41 49L41 51L43 51L43 50L42 50L42 49L41 49L41 47L42 47L42 45L43 45L43 44L42 44L42 45L41 45L41 43L43 43L43 42L42 42L42 41L41 41L41 36L42 36L42 37L43 37L43 35L40 35L40 36L38 36L38 35L39 35L39 34L38 34L38 33L39 33L39 32L40 32L40 34L42 34L42 33L41 33L41 32L40 32L40 31L38 31L38 30L37 30L37 28L38 28L38 29L39 29L39 30L40 30L40 29L41 29L41 31L42 31L42 28L44 28L44 29L43 29L43 30L44 30L44 29L46 29L46 28L47 28L47 26L46 26L46 25L45 25L45 24L44 24L44 23L45 23L45 22L46 22L46 21L47 21L47 22L48 22L48 21L49 21L49 20L51 20L51 19L52 19L52 18L53 18L53 16L52 16L52 14L51 14L51 16L52 16L52 18L50 18L50 17L49 17L49 16L50 16L50 13L49 13L49 14L48 14L48 11L46 11L46 8L45 8L45 6L44 6L44 5L43 5L43 4L44 4L44 2ZM14 3L14 4L15 4L15 3ZM26 3L26 4L27 4L27 3ZM35 3L35 4L36 4L36 3ZM46 3L46 5L47 5L47 3ZM38 4L38 5L39 5L39 4ZM27 5L27 8L30 8L30 5ZM24 6L24 7L25 7L25 6ZM28 6L28 7L29 7L29 6ZM32 6L32 7L33 7L33 6ZM43 6L43 9L42 9L42 8L41 8L41 7L40 7L40 8L38 8L38 10L39 10L39 11L40 11L40 10L39 10L39 9L40 9L40 8L41 8L41 9L42 9L42 10L41 10L41 12L42 12L42 15L41 15L41 13L40 13L40 14L39 14L39 12L37 12L37 11L36 11L36 12L35 12L35 11L34 11L34 12L35 12L35 13L34 13L34 15L33 15L33 13L32 13L32 12L30 12L30 13L29 13L29 15L30 15L30 16L31 16L31 13L32 13L32 15L33 15L33 17L34 17L34 18L33 18L33 21L32 21L32 20L31 20L31 21L30 21L30 22L28 22L28 23L27 23L27 22L26 22L26 23L27 23L27 25L26 25L26 26L31 26L31 25L32 25L32 28L31 28L31 30L32 30L32 28L33 28L33 29L34 29L34 32L33 32L33 31L32 31L32 32L30 32L30 34L31 34L31 33L32 33L32 32L33 32L33 33L34 33L34 34L35 34L35 33L36 33L36 35L35 35L35 36L33 36L33 37L34 37L34 38L35 38L35 41L34 41L34 39L33 39L33 38L31 38L31 41L30 41L30 42L29 42L29 44L30 44L30 42L31 42L31 43L32 43L32 40L33 40L33 41L34 41L34 42L35 42L35 41L36 41L36 44L37 44L37 43L39 43L39 42L40 42L40 43L41 43L41 42L40 42L40 38L39 38L39 37L38 37L38 38L39 38L39 41L38 41L38 39L37 39L37 41L36 41L36 38L37 38L37 37L36 37L36 35L38 35L38 34L37 34L37 33L36 33L36 31L37 31L37 32L38 32L38 31L37 31L37 30L36 30L36 28L37 28L37 26L36 26L36 24L37 24L37 25L38 25L38 26L39 26L39 25L40 25L40 24L39 24L39 23L41 23L41 22L40 22L40 19L41 19L41 18L40 18L40 15L41 15L41 17L42 17L42 18L43 18L43 17L44 17L44 19L42 19L42 20L43 20L43 21L42 21L42 22L43 22L43 23L42 23L42 27L43 27L43 25L44 25L44 24L43 24L43 23L44 23L44 22L45 22L45 21L46 21L46 20L47 20L47 17L48 17L48 18L49 18L49 17L48 17L48 16L47 16L47 17L46 17L46 18L45 18L45 17L44 17L44 16L46 16L46 15L48 15L48 14L47 14L47 13L46 13L46 11L45 11L45 10L44 10L44 6ZM22 8L22 10L24 10L24 9L25 9L25 8ZM3 10L3 11L4 11L4 10ZM42 10L42 12L43 12L43 11L44 11L44 10ZM56 10L56 11L57 11L57 10ZM10 11L10 12L8 12L8 14L7 14L7 13L5 13L5 15L4 15L4 14L3 14L3 16L4 16L4 17L6 17L6 18L7 18L7 19L5 19L5 20L4 20L4 21L5 21L5 23L6 23L6 24L7 24L7 23L8 23L8 22L9 22L9 23L10 23L10 22L11 22L11 21L12 21L12 20L13 20L13 19L12 19L12 18L11 18L11 17L9 17L9 15L8 15L8 14L10 14L10 12L11 12L11 11ZM22 11L22 12L25 12L25 13L26 13L26 11ZM51 11L51 12L52 12L52 11ZM20 12L20 13L19 13L19 14L18 14L18 15L19 15L19 14L20 14L20 13L21 13L21 12ZM36 12L36 13L35 13L35 14L36 14L36 18L34 18L34 19L35 19L35 20L34 20L34 21L33 21L33 22L30 22L30 24L31 24L31 23L32 23L32 25L33 25L33 26L34 26L34 24L36 24L36 23L37 23L37 22L38 22L38 23L39 23L39 22L38 22L38 21L37 21L37 20L39 20L39 19L40 19L40 18L38 18L38 16L37 16L37 15L38 15L38 13L37 13L37 12ZM44 12L44 13L45 13L45 15L46 15L46 13L45 13L45 12ZM6 14L6 15L7 15L7 16L6 16L6 17L7 17L7 18L8 18L8 19L7 19L7 20L6 20L6 21L7 21L7 20L8 20L8 19L10 19L10 18L8 18L8 15L7 15L7 14ZM43 14L43 16L44 16L44 14ZM24 15L24 18L25 18L25 19L24 19L24 20L25 20L25 21L26 21L26 20L25 20L25 19L26 19L26 17L25 17L25 15ZM34 15L34 17L35 17L35 15ZM1 16L1 17L2 17L2 18L1 18L1 19L2 19L2 18L3 18L3 17L2 17L2 16ZM14 17L14 18L15 18L15 17ZM18 17L18 18L19 18L19 17ZM20 17L20 18L21 18L21 19L22 19L22 20L21 20L21 21L22 21L22 22L23 22L23 21L22 21L22 20L23 20L23 19L22 19L22 18L21 18L21 17ZM36 18L36 19L37 19L37 18ZM11 19L11 20L12 20L12 19ZM44 19L44 21L43 21L43 22L44 22L44 21L45 21L45 19ZM48 19L48 20L49 20L49 19ZM18 20L18 21L19 21L19 20ZM35 20L35 21L34 21L34 22L35 22L35 23L36 23L36 22L37 22L37 21L36 21L36 20ZM14 21L14 23L15 23L15 21ZM35 21L35 22L36 22L36 21ZM55 21L55 22L54 22L54 26L55 26L55 27L54 27L54 28L53 28L53 31L52 31L52 32L51 32L51 31L49 31L49 32L50 32L50 33L49 33L49 36L50 36L50 38L49 38L49 37L48 37L48 38L47 38L47 36L48 36L48 35L47 35L47 34L48 34L48 33L46 33L46 36L45 36L45 37L46 37L46 38L47 38L47 40L48 40L48 38L49 38L49 39L50 39L50 38L51 38L51 37L52 37L52 36L53 36L53 37L54 37L54 36L55 36L55 37L56 37L56 36L55 36L55 35L56 35L56 34L55 34L55 31L56 31L56 30L55 30L55 29L56 29L56 28L55 28L55 27L56 27L56 26L55 26L55 25L56 25L56 24L55 24L55 23L56 23L56 21ZM6 22L6 23L7 23L7 22ZM24 22L24 23L25 23L25 22ZM1 23L1 24L2 24L2 23ZM28 23L28 25L29 25L29 23ZM33 23L33 24L34 24L34 23ZM15 25L15 26L16 26L16 25ZM24 25L24 26L23 26L23 27L22 27L22 28L23 28L23 29L24 29L24 26L25 26L25 25ZM40 26L40 27L39 27L39 29L40 29L40 28L41 28L41 26ZM2 27L2 28L3 28L3 29L4 29L4 27ZM5 27L5 30L8 30L8 27ZM27 27L27 30L30 30L30 27ZM34 27L34 29L35 29L35 27ZM49 27L49 30L52 30L52 27ZM6 28L6 29L7 29L7 28ZM20 28L20 30L21 30L21 28ZM28 28L28 29L29 29L29 28ZM50 28L50 29L51 29L51 28ZM13 30L13 31L14 31L14 33L12 33L12 31L11 31L11 32L10 32L10 33L11 33L11 34L10 34L10 36L9 36L9 40L10 40L10 39L11 39L11 38L12 38L12 35L13 35L13 36L14 36L14 37L13 37L13 39L12 39L12 41L14 41L14 40L15 40L15 38L14 38L14 37L15 37L15 36L14 36L14 35L13 35L13 34L14 34L14 33L15 33L15 35L16 35L16 37L17 37L17 36L18 36L18 35L17 35L17 34L16 34L16 33L17 33L17 32L16 32L16 31L18 31L18 30L15 30L15 31L14 31L14 30ZM35 30L35 31L36 31L36 30ZM54 30L54 31L53 31L53 33L54 33L54 31L55 31L55 30ZM1 31L1 32L2 32L2 31ZM6 31L6 32L8 32L8 31ZM15 32L15 33L16 33L16 32ZM20 32L20 33L21 33L21 32ZM50 33L50 36L51 36L51 33ZM53 34L53 36L54 36L54 34ZM6 36L6 37L5 37L5 38L6 38L6 39L7 39L7 38L8 38L8 37L7 37L7 36ZM28 36L28 37L29 37L29 36ZM31 36L31 37L32 37L32 36ZM6 37L6 38L7 38L7 37ZM10 37L10 38L11 38L11 37ZM35 37L35 38L36 38L36 37ZM21 38L21 39L22 39L22 38ZM24 38L24 39L25 39L25 38ZM28 38L28 39L29 39L29 38ZM9 41L9 43L8 43L8 45L10 45L10 44L9 44L9 43L10 43L10 41ZM37 41L37 42L38 42L38 41ZM5 42L5 43L7 43L7 42ZM27 42L27 44L28 44L28 42ZM19 43L19 44L20 44L20 43ZM15 44L15 45L16 45L16 46L15 46L15 47L13 47L13 46L14 46L14 45L13 45L13 46L12 46L12 49L11 49L11 50L13 50L13 51L11 51L11 52L14 52L14 53L12 53L12 54L13 54L13 55L14 55L14 53L15 53L15 52L14 52L14 51L15 51L15 50L14 50L14 49L15 49L15 48L17 48L17 49L16 49L16 50L17 50L17 51L16 51L16 52L17 52L17 53L18 53L18 52L17 52L17 51L18 51L18 47L16 47L16 46L17 46L17 45L16 45L16 44ZM56 44L56 47L55 47L55 49L56 49L56 47L57 47L57 44ZM32 45L32 46L31 46L31 47L32 47L32 48L33 48L33 45ZM40 45L40 47L41 47L41 45ZM50 45L50 47L51 47L51 45ZM1 46L1 47L2 47L2 46ZM43 46L43 47L44 47L44 46ZM19 47L19 48L20 48L20 47ZM9 48L9 50L10 50L10 48ZM13 48L13 49L14 49L14 48ZM44 48L44 49L45 49L45 48ZM27 49L27 52L30 52L30 49ZM49 49L49 52L52 52L52 49ZM28 50L28 51L29 51L29 50ZM50 50L50 51L51 51L51 50ZM31 51L31 52L32 52L32 51ZM31 53L31 54L30 54L30 55L33 55L33 54L32 54L32 53ZM9 54L9 55L10 55L10 56L11 56L11 54ZM16 54L16 55L17 55L17 54ZM20 54L20 55L21 55L21 54ZM40 54L40 55L42 55L42 54ZM53 54L53 55L54 55L54 54ZM20 56L20 57L21 57L21 56ZM36 56L36 57L37 57L37 56ZM56 56L56 57L57 57L57 56ZM0 0L0 7L7 7L7 0ZM1 1L1 6L6 6L6 1ZM2 2L2 5L5 5L5 2ZM50 0L50 7L57 7L57 0ZM51 1L51 6L56 6L56 1ZM52 2L52 5L55 5L55 2ZM0 50L0 57L7 57L7 50ZM1 51L1 56L6 56L6 51ZM2 52L2 55L5 55L5 52Z" fill="#000000"/></g></g></svg>
