<?xml version="1.0" encoding="UTF-8"?>
<svg xmlns="http://www.w3.org/2000/svg" version="1.1" width="300" height="300" viewBox="0 0 300 300"><rect x="0" y="0" width="300" height="300" fill="#fefefe"/><g transform="scale(4.615)"><g transform="translate(4,4)"><path fill-rule="evenodd" d="M9 0L9 1L8 1L8 2L9 2L9 3L8 3L8 4L9 4L9 5L8 5L8 7L9 7L9 8L6 8L6 9L5 9L5 8L0 8L0 9L1 9L1 10L2 10L2 9L3 9L3 10L4 10L4 9L5 9L5 11L0 11L0 12L5 12L5 13L1 13L1 14L0 14L0 20L1 20L1 21L0 21L0 23L1 23L1 21L2 21L2 23L3 23L3 20L4 20L4 21L5 21L5 23L7 23L7 24L6 24L6 25L5 25L5 24L0 24L0 26L2 26L2 27L1 27L1 28L3 28L3 29L4 29L4 30L3 30L3 31L9 31L9 32L8 32L8 34L6 34L6 35L4 35L4 34L5 34L5 33L7 33L7 32L5 32L5 33L3 33L3 32L2 32L2 31L1 31L1 30L2 30L2 29L1 29L1 30L0 30L0 32L1 32L1 33L0 33L0 34L1 34L1 33L2 33L2 34L3 34L3 35L0 35L0 37L1 37L1 40L0 40L0 42L1 42L1 43L0 43L0 44L1 44L1 43L2 43L2 45L1 45L1 46L0 46L0 48L5 48L5 47L9 47L9 48L8 48L8 51L9 51L9 52L8 52L8 57L9 57L9 56L10 56L10 52L11 52L11 50L13 50L13 51L12 51L12 53L11 53L11 55L12 55L12 54L13 54L13 53L16 53L16 54L14 54L14 56L13 56L13 57L14 57L14 56L15 56L15 55L16 55L16 56L17 56L17 57L19 57L19 56L18 56L18 55L20 55L20 54L18 54L18 55L17 55L17 53L20 53L20 52L23 52L23 50L25 50L25 51L26 51L26 52L24 52L24 53L23 53L23 54L21 54L21 56L20 56L20 57L21 57L21 56L24 56L24 55L23 55L23 54L24 54L24 53L26 53L26 54L25 54L25 55L26 55L26 54L30 54L30 53L31 53L31 49L32 49L32 50L33 50L33 49L34 49L34 48L35 48L35 49L36 49L36 50L35 50L35 54L36 54L36 56L35 56L35 55L34 55L34 54L33 54L33 53L34 53L34 52L33 52L33 51L32 51L32 52L33 52L33 53L32 53L32 54L31 54L31 56L30 56L30 55L29 55L29 56L27 56L27 57L29 57L29 56L30 56L30 57L31 57L31 56L35 56L35 57L39 57L39 56L41 56L41 57L44 57L44 56L41 56L41 54L42 54L42 55L44 55L44 54L45 54L45 53L47 53L47 50L48 50L48 54L46 54L46 56L50 56L50 57L52 57L52 55L51 55L51 53L52 53L52 54L53 54L53 55L54 55L54 56L53 56L53 57L54 57L54 56L55 56L55 57L56 57L56 56L55 56L55 55L54 55L54 54L55 54L55 53L56 53L56 52L55 52L55 51L56 51L56 50L55 50L55 48L56 48L56 49L57 49L57 48L56 48L56 46L57 46L57 43L56 43L56 42L57 42L57 41L56 41L56 42L55 42L55 41L53 41L53 40L55 40L55 39L57 39L57 37L56 37L56 36L57 36L57 35L56 35L56 34L57 34L57 32L56 32L56 30L57 30L57 29L56 29L56 28L57 28L57 27L55 27L55 26L57 26L57 25L56 25L56 22L57 22L57 21L56 21L56 22L54 22L54 21L51 21L51 20L52 20L52 19L53 19L53 20L55 20L55 19L56 19L56 18L57 18L57 17L56 17L56 16L57 16L57 15L56 15L56 14L57 14L57 13L56 13L56 14L53 14L53 13L54 13L54 12L56 12L56 10L54 10L54 11L53 11L53 9L54 9L54 8L53 8L53 9L52 9L52 8L51 8L51 10L52 10L52 11L50 11L50 12L49 12L49 13L47 13L47 14L45 14L45 15L47 15L47 16L46 16L46 17L47 17L47 18L46 18L46 19L47 19L47 20L49 20L49 21L47 21L47 22L46 22L46 21L45 21L45 22L46 22L46 23L45 23L45 25L44 25L44 24L43 24L43 23L44 23L44 20L45 20L45 18L44 18L44 15L42 15L42 16L41 16L41 14L44 14L44 12L43 12L43 13L39 13L39 12L41 12L41 11L45 11L45 12L48 12L48 11L49 11L49 10L50 10L50 8L49 8L49 9L48 9L48 8L47 8L47 10L46 10L46 9L44 9L44 8L43 8L43 6L44 6L44 7L45 7L45 8L46 8L46 7L47 7L47 5L48 5L48 0L46 0L46 1L45 1L45 2L44 2L44 3L43 3L43 4L42 4L42 2L43 2L43 0L41 0L41 1L40 1L40 0L39 0L39 1L38 1L38 0L37 0L37 1L38 1L38 3L36 3L36 0L35 0L35 1L33 1L33 0L32 0L32 3L31 3L31 0L29 0L29 1L30 1L30 2L28 2L28 3L29 3L29 4L26 4L26 3L23 3L23 2L27 2L27 1L26 1L26 0L23 0L23 2L22 2L22 3L23 3L23 4L24 4L24 5L22 5L22 4L19 4L19 3L18 3L18 2L21 2L21 1L22 1L22 0L21 0L21 1L20 1L20 0L19 0L19 1L18 1L18 2L17 2L17 1L14 1L14 0L13 0L13 1L12 1L12 0ZM10 1L10 3L13 3L13 2L14 2L14 4L12 4L12 5L13 5L13 7L12 7L12 6L11 6L11 4L10 4L10 6L9 6L9 7L10 7L10 8L11 8L11 10L10 10L10 9L8 9L8 10L10 10L10 11L8 11L8 14L9 14L9 15L8 15L8 16L7 16L7 15L6 15L6 16L4 16L4 18L7 18L7 19L4 19L4 20L7 20L7 21L6 21L6 22L8 22L8 20L9 20L9 19L10 19L10 20L11 20L11 19L12 19L12 17L13 17L13 19L14 19L14 20L12 20L12 21L9 21L9 24L10 24L10 25L8 25L8 24L7 24L7 25L6 25L6 26L7 26L7 25L8 25L8 26L9 26L9 27L11 27L11 28L10 28L10 29L11 29L11 28L13 28L13 30L14 30L14 31L12 31L12 30L9 30L9 31L10 31L10 32L9 32L9 34L10 34L10 33L11 33L11 35L8 35L8 37L9 37L9 38L8 38L8 39L6 39L6 40L7 40L7 41L6 41L6 42L7 42L7 43L3 43L3 42L4 42L4 41L3 41L3 40L4 40L4 39L5 39L5 38L7 38L7 37L5 37L5 38L4 38L4 35L3 35L3 36L1 36L1 37L2 37L2 43L3 43L3 44L7 44L7 45L4 45L4 46L3 46L3 47L5 47L5 46L7 46L7 45L8 45L8 44L10 44L10 42L7 42L7 41L8 41L8 40L10 40L10 41L11 41L11 45L9 45L9 47L10 47L10 48L12 48L12 49L13 49L13 50L14 50L14 52L16 52L16 53L17 53L17 52L20 52L20 51L18 51L18 49L17 49L17 48L19 48L19 46L17 46L17 45L18 45L18 44L17 44L17 45L16 45L16 44L15 44L15 45L14 45L14 43L15 43L15 42L17 42L17 43L18 43L18 42L19 42L19 45L20 45L20 46L21 46L21 45L22 45L22 46L23 46L23 47L20 47L20 48L21 48L21 49L19 49L19 50L21 50L21 51L22 51L22 50L21 50L21 49L23 49L23 47L24 47L24 46L23 46L23 45L22 45L22 44L21 44L21 45L20 45L20 42L21 42L21 43L22 43L22 42L23 42L23 44L24 44L24 45L25 45L25 48L24 48L24 49L25 49L25 50L26 50L26 48L27 48L27 47L28 47L28 48L30 48L30 47L28 47L28 46L31 46L31 45L32 45L32 49L33 49L33 46L35 46L35 48L36 48L36 47L37 47L37 46L35 46L35 45L34 45L34 43L37 43L37 42L35 42L35 40L38 40L38 42L39 42L39 45L38 45L38 46L39 46L39 47L38 47L38 48L37 48L37 49L38 49L38 50L36 50L36 52L38 52L38 54L40 54L40 53L41 53L41 52L40 52L40 51L39 51L39 52L38 52L38 50L41 50L41 51L42 51L42 50L41 50L41 48L42 48L42 49L43 49L43 48L44 48L44 50L47 50L47 49L48 49L48 48L49 48L49 47L48 47L48 46L50 46L50 48L53 48L53 49L54 49L54 48L53 48L53 47L54 47L54 45L55 45L55 46L56 46L56 43L55 43L55 44L54 44L54 45L53 45L53 43L54 43L54 42L53 42L53 41L51 41L51 42L50 42L50 43L49 43L49 42L48 42L48 41L49 41L49 39L47 39L47 37L48 37L48 38L49 38L49 37L50 37L50 39L51 39L51 38L52 38L52 40L53 40L53 39L55 39L55 37L53 37L53 35L55 35L55 36L56 36L56 35L55 35L55 34L54 34L54 33L56 33L56 32L54 32L54 31L52 31L52 32L51 32L51 31L50 31L50 32L49 32L49 31L48 31L48 28L47 28L47 29L46 29L46 30L47 30L47 31L48 31L48 32L47 32L47 33L45 33L45 32L43 32L43 31L45 31L45 28L46 28L46 27L48 27L48 26L47 26L47 25L49 25L49 23L50 23L50 24L51 24L51 25L50 25L50 26L52 26L52 25L53 25L53 23L52 23L52 24L51 24L51 23L50 23L50 22L51 22L51 21L49 21L49 23L48 23L48 24L47 24L47 23L46 23L46 24L47 24L47 25L45 25L45 28L43 28L43 27L44 27L44 25L43 25L43 24L40 24L40 22L39 22L39 21L41 21L41 20L39 20L39 21L38 21L38 20L37 20L37 19L39 19L39 17L41 17L41 16L39 16L39 15L40 15L40 14L39 14L39 13L38 13L38 14L37 14L37 13L35 13L35 12L37 12L37 11L38 11L38 10L40 10L40 11L41 11L41 10L40 10L40 9L41 9L41 7L42 7L42 6L41 6L41 5L40 5L40 4L41 4L41 3L39 3L39 4L38 4L38 5L37 5L37 4L36 4L36 5L35 5L35 4L34 4L34 3L35 3L35 2L34 2L34 3L32 3L32 4L31 4L31 3L30 3L30 4L31 4L31 8L32 8L32 10L31 10L31 11L29 11L29 10L28 10L28 9L27 9L27 10L28 10L28 11L29 11L29 12L28 12L28 13L26 13L26 12L27 12L27 11L26 11L26 12L25 12L25 11L23 11L23 12L25 12L25 14L23 14L23 13L22 13L22 12L21 12L21 11L22 11L22 10L23 10L23 9L25 9L25 8L26 8L26 4L25 4L25 8L24 8L24 6L23 6L23 7L22 7L22 5L21 5L21 8L19 8L19 7L20 7L20 5L18 5L18 4L17 4L17 3L15 3L15 2L14 2L14 1L13 1L13 2L12 2L12 1ZM46 1L46 2L47 2L47 1ZM44 3L44 6L45 6L45 7L46 7L46 6L45 6L45 4L46 4L46 5L47 5L47 3ZM15 4L15 5L14 5L14 7L15 7L15 8L16 8L16 9L17 9L17 10L18 10L18 11L17 11L17 12L16 12L16 13L15 13L15 10L14 10L14 8L12 8L12 7L11 7L11 6L10 6L10 7L11 7L11 8L12 8L12 9L13 9L13 11L14 11L14 12L12 12L12 10L11 10L11 11L10 11L10 12L9 12L9 14L10 14L10 17L8 17L8 19L9 19L9 18L11 18L11 16L13 16L13 17L14 17L14 18L15 18L15 19L18 19L18 20L17 20L17 21L16 21L16 20L15 20L15 21L16 21L16 22L15 22L15 23L16 23L16 24L17 24L17 27L18 27L18 26L19 26L19 27L22 27L22 26L26 26L26 27L25 27L25 28L23 28L23 31L19 31L19 32L17 32L17 30L16 30L16 29L18 29L18 30L20 30L20 29L18 29L18 28L16 28L16 29L15 29L15 33L14 33L14 34L13 34L13 33L12 33L12 35L11 35L11 36L9 36L9 37L10 37L10 39L11 39L11 40L12 40L12 42L13 42L13 43L12 43L12 45L13 45L13 46L14 46L14 45L13 45L13 43L14 43L14 40L16 40L16 39L15 39L15 38L16 38L16 37L15 37L15 38L13 38L13 36L14 36L14 35L15 35L15 36L18 36L18 37L17 37L17 40L18 40L18 41L17 41L17 42L18 42L18 41L19 41L19 42L20 42L20 41L21 41L21 38L22 38L22 39L24 39L24 40L25 40L25 37L26 37L26 39L27 39L27 40L28 40L28 39L27 39L27 38L28 38L28 37L27 37L27 35L26 35L26 34L27 34L27 33L26 33L26 34L25 34L25 33L23 33L23 34L24 34L24 36L23 36L23 37L24 37L24 38L22 38L22 37L19 37L19 34L20 34L20 33L21 33L21 36L22 36L22 33L21 33L21 32L25 32L25 31L26 31L26 32L28 32L28 33L29 33L29 34L30 34L30 36L29 36L29 37L31 37L31 38L29 38L29 39L33 39L33 40L35 40L35 39L38 39L38 40L39 40L39 39L38 39L38 36L39 36L39 37L40 37L40 38L41 38L41 42L40 42L40 44L41 44L41 46L40 46L40 47L39 47L39 48L38 48L38 49L39 49L39 48L41 48L41 46L43 46L43 45L44 45L44 48L46 48L46 49L47 49L47 48L48 48L48 47L47 47L47 46L48 46L48 45L47 45L47 43L48 43L48 42L44 42L44 40L45 40L45 41L47 41L47 39L46 39L46 38L45 38L45 37L44 37L44 36L45 36L45 35L47 35L47 34L45 34L45 33L43 33L43 32L41 32L41 33L39 33L39 34L40 34L40 35L38 35L38 33L37 33L37 32L34 32L34 31L35 31L35 30L37 30L37 29L38 29L38 28L40 28L40 26L39 26L39 27L37 27L37 28L35 28L35 27L36 27L36 26L34 26L34 27L33 27L33 26L32 26L32 24L33 24L33 25L37 25L37 26L38 26L38 24L39 24L39 25L40 25L40 24L39 24L39 22L38 22L38 21L37 21L37 20L36 20L36 19L35 19L35 23L34 23L34 22L33 22L33 23L32 23L32 24L31 24L31 23L30 23L30 22L31 22L31 21L32 21L32 20L33 20L33 18L32 18L32 16L35 16L35 17L37 17L37 18L38 18L38 17L39 17L39 16L38 16L38 17L37 17L37 16L35 16L35 14L32 14L32 11L33 11L33 10L32 10L32 11L31 11L31 13L30 13L30 14L29 14L29 13L28 13L28 14L29 14L29 16L28 16L28 15L27 15L27 14L26 14L26 15L24 15L24 16L25 16L25 17L22 17L22 16L20 16L20 17L19 17L19 16L17 16L17 18L15 18L15 17L14 17L14 15L15 15L15 16L16 16L16 13L17 13L17 14L20 14L20 15L23 15L23 14L22 14L22 13L21 13L21 14L20 14L20 12L19 12L19 10L20 10L20 9L19 9L19 8L18 8L18 9L17 9L17 8L16 8L16 7L17 7L17 6L18 6L18 7L19 7L19 6L18 6L18 5L17 5L17 6L16 6L16 7L15 7L15 5L16 5L16 4ZM32 4L32 5L34 5L34 7L33 7L33 6L32 6L32 7L33 7L33 9L34 9L34 8L35 8L35 9L37 9L37 10L36 10L36 11L37 11L37 10L38 10L38 8L39 8L39 6L40 6L40 7L41 7L41 6L40 6L40 5L39 5L39 6L38 6L38 8L35 8L35 5L34 5L34 4ZM27 5L27 8L30 8L30 5ZM36 5L36 7L37 7L37 5ZM28 6L28 7L29 7L29 6ZM48 6L48 7L49 7L49 6ZM42 8L42 9L43 9L43 8ZM55 8L55 9L56 9L56 8ZM6 9L6 10L7 10L7 9ZM18 9L18 10L19 10L19 9ZM45 10L45 11L46 11L46 10ZM6 11L6 12L7 12L7 11ZM11 12L11 14L12 14L12 12ZM17 12L17 13L18 13L18 12ZM33 12L33 13L34 13L34 12ZM50 12L50 14L49 14L49 15L48 15L48 16L47 16L47 17L48 17L48 16L49 16L49 17L50 17L50 18L49 18L49 19L52 19L52 18L51 18L51 17L53 17L53 18L55 18L55 17L53 17L53 15L50 15L50 14L51 14L51 12ZM52 12L52 13L53 13L53 12ZM6 13L6 14L7 14L7 13ZM13 13L13 15L14 15L14 14L15 14L15 13ZM1 14L1 15L2 15L2 17L3 17L3 15L5 15L5 14ZM30 14L30 15L31 15L31 16L32 16L32 14ZM38 14L38 15L39 15L39 14ZM26 15L26 18L27 18L27 19L26 19L26 20L25 20L25 21L24 21L24 20L20 20L20 19L21 19L21 18L22 18L22 17L20 17L20 19L19 19L19 20L20 20L20 21L19 21L19 22L20 22L20 23L18 23L18 22L17 22L17 24L21 24L21 25L19 25L19 26L21 26L21 25L23 25L23 24L21 24L21 22L22 22L22 23L24 23L24 24L25 24L25 25L26 25L26 26L29 26L29 25L31 25L31 24L30 24L30 23L29 23L29 22L30 22L30 21L29 21L29 20L31 20L31 18L30 18L30 19L28 19L28 18L27 18L27 17L28 17L28 16L27 16L27 15ZM49 15L49 16L50 16L50 15ZM6 16L6 17L7 17L7 16ZM42 16L42 17L43 17L43 16ZM1 18L1 20L2 20L2 18ZM23 18L23 19L24 19L24 18ZM41 18L41 19L42 19L42 18ZM43 18L43 20L42 20L42 21L43 21L43 20L44 20L44 18ZM47 18L47 19L48 19L48 18ZM12 21L12 22L11 22L11 23L12 23L12 24L11 24L11 25L10 25L10 26L12 26L12 25L13 25L13 24L14 24L14 25L15 25L15 24L14 24L14 23L13 23L13 22L14 22L14 21ZM22 21L22 22L24 22L24 21ZM25 21L25 22L26 22L26 23L25 23L25 24L27 24L27 22L28 22L28 21ZM37 22L37 24L38 24L38 22ZM28 23L28 24L29 24L29 23ZM54 24L54 25L55 25L55 24ZM3 25L3 28L4 28L4 26L5 26L5 25ZM41 25L41 26L43 26L43 25ZM14 26L14 27L13 27L13 28L15 28L15 27L16 27L16 26ZM31 26L31 27L32 27L32 30L31 30L31 31L29 31L29 33L31 33L31 32L32 32L32 33L33 33L33 34L31 34L31 35L33 35L33 36L32 36L32 37L33 37L33 38L34 38L34 39L35 39L35 37L34 37L34 35L35 35L35 36L37 36L37 34L35 34L35 33L34 33L34 32L33 32L33 30L35 30L35 28L33 28L33 27L32 27L32 26ZM53 26L53 27L54 27L54 26ZM5 27L5 30L8 30L8 27ZM27 27L27 30L30 30L30 27ZM41 27L41 28L42 28L42 27ZM49 27L49 30L52 30L52 27ZM6 28L6 29L7 29L7 28ZM21 28L21 29L22 29L22 28ZM25 28L25 29L26 29L26 28ZM28 28L28 29L29 29L29 28ZM50 28L50 29L51 29L51 28ZM54 28L54 29L53 29L53 30L55 30L55 28ZM39 29L39 30L38 30L38 32L39 32L39 31L41 31L41 30L44 30L44 29ZM24 30L24 31L25 31L25 30ZM16 32L16 33L15 33L15 34L16 34L16 35L17 35L17 32ZM48 32L48 33L49 33L49 32ZM50 32L50 34L49 34L49 35L50 35L50 37L52 37L52 35L53 35L53 34L52 34L52 33L54 33L54 32L52 32L52 33L51 33L51 32ZM33 34L33 35L34 35L34 34ZM42 34L42 35L43 35L43 36L44 36L44 35L45 35L45 34ZM50 34L50 35L52 35L52 34ZM6 35L6 36L7 36L7 35ZM12 35L12 36L11 36L11 37L12 37L12 36L13 36L13 35ZM40 36L40 37L41 37L41 36ZM48 36L48 37L49 37L49 36ZM18 37L18 38L19 38L19 39L20 39L20 38L19 38L19 37ZM43 37L43 38L42 38L42 40L43 40L43 39L45 39L45 38L44 38L44 37ZM3 38L3 39L4 39L4 38ZM12 38L12 40L14 40L14 39L13 39L13 38ZM19 40L19 41L20 41L20 40ZM30 40L30 41L32 41L32 42L27 42L27 41L26 41L26 42L27 42L27 43L25 43L25 41L23 41L23 42L24 42L24 43L25 43L25 44L27 44L27 43L28 43L28 45L29 45L29 43L31 43L31 44L33 44L33 43L34 43L34 42L33 42L33 41L32 41L32 40ZM32 42L32 43L33 43L33 42ZM51 42L51 43L50 43L50 44L49 44L49 45L50 45L50 46L51 46L51 47L53 47L53 46L51 46L51 45L52 45L52 44L51 44L51 43L53 43L53 42ZM7 43L7 44L8 44L8 43ZM41 43L41 44L42 44L42 43ZM43 43L43 44L44 44L44 45L45 45L45 46L47 46L47 45L45 45L45 44L46 44L46 43ZM50 44L50 45L51 45L51 44ZM26 45L26 47L27 47L27 45ZM1 46L1 47L2 47L2 46ZM11 46L11 47L12 47L12 46ZM15 46L15 47L16 47L16 46ZM42 47L42 48L43 48L43 47ZM46 47L46 48L47 48L47 47ZM6 48L6 49L7 49L7 48ZM13 48L13 49L14 49L14 50L15 50L15 49L14 49L14 48ZM9 49L9 51L10 51L10 50L11 50L11 49ZM27 49L27 52L30 52L30 49ZM49 49L49 52L52 52L52 49ZM16 50L16 52L17 52L17 50ZM28 50L28 51L29 51L29 50ZM50 50L50 51L51 51L51 50ZM54 50L54 51L55 51L55 50ZM45 51L45 52L44 52L44 53L43 53L43 52L42 52L42 53L43 53L43 54L44 54L44 53L45 53L45 52L46 52L46 51ZM53 52L53 54L54 54L54 52ZM37 55L37 56L39 56L39 55ZM50 55L50 56L51 56L51 55ZM25 56L25 57L26 57L26 56ZM0 0L0 7L7 7L7 0ZM1 1L1 6L6 6L6 1ZM2 2L2 5L5 5L5 2ZM50 0L50 7L57 7L57 0ZM51 1L51 6L56 6L56 1ZM52 2L52 5L55 5L55 2ZM0 50L0 57L7 57L7 50ZM1 51L1 56L6 56L6 51ZM2 52L2 55L5 55L5 52Z" fill="#000000"/></g></g></svg>
