<?xml version="1.0" encoding="UTF-8"?>
<svg xmlns="http://www.w3.org/2000/svg" version="1.1" width="300" height="300" viewBox="0 0 300 300"><rect x="0" y="0" width="300" height="300" fill="#fefefe"/><g transform="scale(4.615)"><g transform="translate(4,4)"><path fill-rule="evenodd" d="M8 0L8 4L9 4L9 3L10 3L10 4L11 4L11 5L12 5L12 8L14 8L14 9L12 9L12 10L11 10L11 9L10 9L10 8L11 8L11 6L10 6L10 7L9 7L9 5L8 5L8 7L9 7L9 9L8 9L8 10L11 10L11 11L7 11L7 10L6 10L6 9L7 9L7 8L4 8L4 9L2 9L2 8L0 8L0 11L1 11L1 12L0 12L0 15L1 15L1 17L0 17L0 22L1 22L1 24L0 24L0 26L1 26L1 29L0 29L0 31L1 31L1 30L2 30L2 31L3 31L3 30L4 30L4 32L6 32L6 33L7 33L7 34L5 34L5 33L3 33L3 32L0 32L0 33L2 33L2 34L5 34L5 35L4 35L4 38L5 38L5 35L7 35L7 36L6 36L6 37L10 37L10 38L11 38L11 39L12 39L12 40L10 40L10 39L9 39L9 38L8 38L8 39L7 39L7 38L6 38L6 39L7 39L7 40L4 40L4 39L1 39L1 38L2 38L2 37L0 37L0 41L3 41L3 42L0 42L0 43L2 43L2 44L1 44L1 46L0 46L0 48L5 48L5 47L7 47L7 48L6 48L6 49L8 49L8 50L9 50L9 51L8 51L8 53L9 53L9 54L10 54L10 53L9 53L9 51L10 51L10 50L9 50L9 49L10 49L10 48L9 48L9 47L12 47L12 46L13 46L13 48L14 48L14 49L12 49L12 48L11 48L11 50L12 50L12 51L11 51L11 53L13 53L13 56L12 56L12 57L13 57L13 56L14 56L14 57L15 57L15 56L14 56L14 54L15 54L15 55L16 55L16 54L18 54L18 55L20 55L20 54L21 54L21 53L22 53L22 52L21 52L21 49L22 49L22 51L23 51L23 52L24 52L24 53L23 53L23 55L24 55L24 56L23 56L23 57L25 57L25 55L26 55L26 54L24 54L24 53L28 53L28 57L29 57L29 55L30 55L30 57L34 57L34 55L35 55L35 57L37 57L37 56L36 56L36 54L37 54L37 53L38 53L38 55L39 55L39 57L40 57L40 54L43 54L43 55L41 55L41 57L43 57L43 55L44 55L44 53L45 53L45 55L46 55L46 56L47 56L47 54L46 54L46 53L47 53L47 52L48 52L48 54L49 54L49 55L48 55L48 57L50 57L50 55L51 55L51 56L53 56L53 57L54 57L54 55L53 55L53 54L57 54L57 52L56 52L56 53L55 53L55 52L54 52L54 53L53 53L53 50L54 50L54 51L56 51L56 45L57 45L57 43L56 43L56 42L57 42L57 40L53 40L53 39L57 39L57 38L55 38L55 37L56 37L56 36L57 36L57 35L56 35L56 34L57 34L57 33L56 33L56 30L55 30L55 29L54 29L54 28L53 28L53 27L54 27L54 26L55 26L55 28L56 28L56 29L57 29L57 28L56 28L56 26L55 26L55 25L54 25L54 23L55 23L55 24L56 24L56 25L57 25L57 24L56 24L56 21L57 21L57 19L56 19L56 18L57 18L57 15L56 15L56 12L57 12L57 11L56 11L56 10L57 10L57 8L53 8L53 9L55 9L55 11L56 11L56 12L55 12L55 16L53 16L53 17L52 17L52 18L53 18L53 17L55 17L55 16L56 16L56 18L55 18L55 19L56 19L56 20L55 20L55 22L54 22L54 21L52 21L52 20L53 20L53 19L50 19L50 18L51 18L51 17L50 17L50 16L49 16L49 15L48 15L48 17L47 17L47 16L46 16L46 11L45 11L45 10L46 10L46 8L47 8L47 5L48 5L48 0L46 0L46 1L45 1L45 0L41 0L41 1L40 1L40 2L38 2L38 1L39 1L39 0L38 0L38 1L37 1L37 2L36 2L36 0L35 0L35 1L34 1L34 0L33 0L33 1L32 1L32 0L29 0L29 1L30 1L30 2L29 2L29 3L28 3L28 1L27 1L27 0L26 0L26 1L25 1L25 0L23 0L23 1L22 1L22 2L23 2L23 3L22 3L22 5L23 5L23 6L22 6L22 7L21 7L21 6L20 6L20 5L19 5L19 4L18 4L18 5L19 5L19 6L18 6L18 7L19 7L19 8L17 8L17 6L16 6L16 5L15 5L15 4L14 4L14 0L13 0L13 2L12 2L12 1L10 1L10 0ZM15 0L15 1L16 1L16 2L15 2L15 3L16 3L16 4L17 4L17 3L19 3L19 2L20 2L20 1L21 1L21 0L20 0L20 1L19 1L19 0L17 0L17 1L16 1L16 0ZM17 1L17 2L18 2L18 1ZM26 1L26 2L25 2L25 3L23 3L23 5L24 5L24 4L25 4L25 3L26 3L26 4L28 4L28 3L27 3L27 1ZM33 1L33 3L32 3L32 2L31 2L31 3L32 3L32 5L33 5L33 7L32 7L32 6L31 6L31 10L29 10L29 9L26 9L26 6L25 6L25 7L24 7L24 6L23 6L23 7L22 7L22 10L21 10L21 11L20 11L20 12L19 12L19 10L20 10L20 8L19 8L19 9L18 9L18 11L17 11L17 13L15 13L15 12L16 12L16 10L17 10L17 9L15 9L15 12L14 12L14 11L13 11L13 10L12 10L12 11L11 11L11 12L10 12L10 13L9 13L9 14L10 14L10 13L11 13L11 14L12 14L12 15L11 15L11 18L12 18L12 20L11 20L11 22L10 22L10 20L9 20L9 19L10 19L10 18L8 18L8 17L10 17L10 15L6 15L6 16L8 16L8 17L5 17L5 16L4 16L4 17L5 17L5 18L3 18L3 19L5 19L5 21L6 21L6 22L7 22L7 23L6 23L6 24L5 24L5 23L3 23L3 25L1 25L1 26L2 26L2 27L3 27L3 28L2 28L2 30L3 30L3 28L4 28L4 26L3 26L3 25L6 25L6 26L8 26L8 25L10 25L10 23L11 23L11 22L12 22L12 24L13 24L13 25L12 25L12 26L11 26L11 27L9 27L9 29L10 29L10 30L9 30L9 31L6 31L6 32L7 32L7 33L8 33L8 34L7 34L7 35L9 35L9 36L10 36L10 37L11 37L11 38L14 38L14 39L16 39L16 38L17 38L17 39L20 39L20 38L21 38L21 37L19 37L19 38L18 38L18 37L17 37L17 35L19 35L19 36L21 36L21 35L20 35L20 33L21 33L21 34L23 34L23 33L25 33L25 32L26 32L26 31L25 31L25 32L23 32L23 31L22 31L22 30L23 30L23 29L25 29L25 30L26 30L26 29L25 29L25 28L22 28L22 27L21 27L21 26L22 26L22 25L24 25L24 23L23 23L23 21L24 21L24 22L25 22L25 23L26 23L26 22L28 22L28 25L27 25L27 26L28 26L28 25L29 25L29 23L30 23L30 24L31 24L31 29L32 29L32 30L31 30L31 32L30 32L30 31L29 31L29 33L28 33L28 34L27 34L27 33L26 33L26 35L27 35L27 36L25 36L25 34L24 34L24 36L25 36L25 37L27 37L27 39L26 39L26 38L24 38L24 37L23 37L23 36L22 36L22 39L21 39L21 40L22 40L22 41L21 41L21 43L22 43L22 44L23 44L23 45L21 45L21 46L20 46L20 40L19 40L19 41L17 41L17 40L15 40L15 41L14 41L14 40L13 40L13 42L14 42L14 43L12 43L12 44L11 44L11 41L10 41L10 40L9 40L9 39L8 39L8 42L7 42L7 41L5 41L5 42L7 42L7 43L4 43L4 42L3 42L3 43L4 43L4 44L2 44L2 45L3 45L3 47L5 47L5 46L7 46L7 47L8 47L8 45L12 45L12 44L16 44L16 46L15 46L15 47L14 47L14 48L15 48L15 49L14 49L14 50L13 50L13 51L14 51L14 52L13 52L13 53L17 53L17 52L15 52L15 51L16 51L16 50L17 50L17 49L16 49L16 46L17 46L17 47L18 47L18 48L19 48L19 47L20 47L20 48L22 48L22 49L23 49L23 48L22 48L22 47L25 47L25 48L24 48L24 49L25 49L25 48L27 48L27 47L26 47L26 46L27 46L27 45L28 45L28 47L30 47L30 48L31 48L31 46L32 46L32 45L31 45L31 44L29 44L29 43L31 43L31 42L29 42L29 41L28 41L28 40L27 40L27 39L28 39L28 38L29 38L29 39L31 39L31 41L32 41L32 43L33 43L33 44L35 44L35 43L33 43L33 41L32 41L32 40L33 40L33 39L34 39L34 42L35 42L35 39L37 39L37 42L38 42L38 37L44 37L44 38L43 38L43 39L41 39L41 40L40 40L40 38L39 38L39 40L40 40L40 41L39 41L39 42L40 42L40 43L42 43L42 44L43 44L43 46L44 46L44 47L42 47L42 49L44 49L44 47L45 47L45 49L46 49L46 50L47 50L47 49L48 49L48 47L52 47L52 46L54 46L54 49L55 49L55 46L54 46L54 45L56 45L56 44L55 44L55 42L56 42L56 41L55 41L55 42L54 42L54 43L53 43L53 41L52 41L52 39L51 39L51 38L50 38L50 37L52 37L52 38L54 38L54 37L53 37L53 36L56 36L56 35L53 35L53 34L54 34L54 33L55 33L55 34L56 34L56 33L55 33L55 31L54 31L54 29L53 29L53 31L52 31L52 32L53 32L53 31L54 31L54 33L51 33L51 31L50 31L50 35L49 35L49 36L50 36L50 37L48 37L48 36L47 36L47 35L46 35L46 34L49 34L49 33L48 33L48 31L47 31L47 30L48 30L48 29L46 29L46 28L47 28L47 27L45 27L45 26L43 26L43 27L45 27L45 30L46 30L46 31L45 31L45 32L46 32L46 34L45 34L45 33L43 33L43 35L42 35L42 34L40 34L40 33L41 33L41 32L40 32L40 30L39 30L39 32L40 32L40 33L39 33L39 34L38 34L38 33L37 33L37 34L38 34L38 35L37 35L37 36L38 36L38 37L37 37L37 38L35 38L35 33L33 33L33 34L30 34L30 36L31 36L31 37L29 37L29 36L28 36L28 34L29 34L29 33L32 33L32 31L33 31L33 29L32 29L32 28L33 28L33 27L34 27L34 31L36 31L36 30L35 30L35 28L37 28L37 29L38 29L38 28L37 28L37 27L39 27L39 28L40 28L40 29L43 29L43 31L44 31L44 29L43 29L43 28L42 28L42 25L41 25L41 22L40 22L40 21L43 21L43 22L42 22L42 24L43 24L43 25L44 25L44 24L45 24L45 25L46 25L46 26L48 26L48 25L49 25L49 26L50 26L50 24L52 24L52 25L51 25L51 26L53 26L53 24L52 24L52 23L53 23L53 22L52 22L52 21L51 21L51 20L49 20L49 19L48 19L48 18L47 18L47 17L46 17L46 16L45 16L45 14L43 14L43 15L42 15L42 17L43 17L43 18L42 18L42 19L43 19L43 20L41 20L41 18L40 18L40 17L41 17L41 14L40 14L40 13L44 13L44 12L45 12L45 11L44 11L44 10L45 10L45 9L44 9L44 4L45 4L45 5L47 5L47 3L44 3L44 2L43 2L43 3L41 3L41 2L40 2L40 3L38 3L38 2L37 2L37 3L36 3L36 2L35 2L35 3L34 3L34 1ZM46 1L46 2L47 2L47 1ZM10 2L10 3L12 3L12 2ZM33 3L33 5L34 5L34 7L33 7L33 8L32 8L32 11L29 11L29 12L32 12L32 13L30 13L30 15L31 15L31 16L29 16L29 13L27 13L27 14L26 14L26 15L25 15L25 17L21 17L21 16L20 16L20 15L19 15L19 16L18 16L18 15L17 15L17 14L19 14L19 12L18 12L18 13L17 13L17 14L15 14L15 13L13 13L13 12L11 12L11 13L12 13L12 14L13 14L13 15L14 15L14 18L16 18L16 17L19 17L19 16L20 16L20 18L23 18L23 19L21 19L21 20L20 20L20 21L19 21L19 20L18 20L18 19L19 19L19 18L17 18L17 21L15 21L15 20L16 20L16 19L15 19L15 20L14 20L14 19L13 19L13 21L14 21L14 23L16 23L16 22L17 22L17 25L18 25L18 27L17 27L17 26L16 26L16 25L14 25L14 26L15 26L15 27L16 27L16 28L15 28L15 29L14 29L14 28L13 28L13 27L12 27L12 28L11 28L11 29L12 29L12 30L13 30L13 29L14 29L14 30L15 30L15 31L14 31L14 32L13 32L13 33L15 33L15 35L14 35L14 34L12 34L12 36L13 36L13 37L14 37L14 38L15 38L15 37L16 37L16 36L15 36L15 35L17 35L17 34L19 34L19 32L20 32L20 31L21 31L21 33L22 33L22 31L21 31L21 30L22 30L22 29L20 29L20 31L19 31L19 32L18 32L18 31L17 31L17 30L15 30L15 29L18 29L18 30L19 30L19 29L18 29L18 28L20 28L20 26L21 26L21 25L22 25L22 20L23 20L23 19L24 19L24 18L25 18L25 17L26 17L26 15L27 15L27 17L28 17L28 18L30 18L30 19L29 19L29 20L32 20L32 21L28 21L28 19L27 19L27 20L26 20L26 19L25 19L25 20L24 20L24 21L28 21L28 22L33 22L33 23L32 23L32 27L33 27L33 26L34 26L34 25L37 25L37 24L34 24L34 23L35 23L35 22L37 22L37 21L38 21L38 23L39 23L39 21L40 21L40 18L39 18L39 17L40 17L40 14L39 14L39 13L40 13L40 10L39 10L39 9L40 9L40 8L43 8L43 6L42 6L42 5L43 5L43 4L44 4L44 3L43 3L43 4L41 4L41 3L40 3L40 4L38 4L38 3L37 3L37 4L38 4L38 5L36 5L36 4L35 4L35 5L34 5L34 3ZM27 5L27 8L30 8L30 5ZM35 5L35 7L34 7L34 8L33 8L33 9L34 9L34 10L33 10L33 13L32 13L32 14L33 14L33 13L34 13L34 18L33 18L33 17L31 17L31 19L33 19L33 21L34 21L34 22L35 22L35 20L36 20L36 19L34 19L34 18L37 18L37 19L39 19L39 18L38 18L38 17L39 17L39 15L38 15L38 13L39 13L39 12L37 12L37 10L38 10L38 11L39 11L39 10L38 10L38 6L37 6L37 9L35 9L35 7L36 7L36 5ZM39 5L39 8L40 8L40 6L41 6L41 7L42 7L42 6L41 6L41 5ZM13 6L13 7L14 7L14 8L15 8L15 7L16 7L16 6L15 6L15 7L14 7L14 6ZM19 6L19 7L20 7L20 6ZM28 6L28 7L29 7L29 6ZM45 6L45 8L46 8L46 6ZM48 6L48 9L47 9L47 12L48 12L48 10L49 10L49 11L50 11L50 15L52 15L52 14L53 14L53 15L54 15L54 14L53 14L53 13L54 13L54 12L53 12L53 13L52 13L52 14L51 14L51 12L52 12L52 11L54 11L54 10L52 10L52 8L51 8L51 9L49 9L49 6ZM23 7L23 9L24 9L24 10L25 10L25 11L24 11L24 12L25 12L25 13L23 13L23 12L22 12L22 11L21 11L21 12L20 12L20 14L21 14L21 15L22 15L22 16L24 16L24 15L22 15L22 14L21 14L21 13L23 13L23 14L25 14L25 13L26 13L26 11L27 11L27 12L28 12L28 10L25 10L25 9L24 9L24 7ZM1 9L1 11L2 11L2 12L3 12L3 14L5 14L5 13L6 13L6 14L7 14L7 13L6 13L6 12L7 12L7 11L6 11L6 12L3 12L3 10L2 10L2 9ZM41 9L41 12L44 12L44 11L42 11L42 10L44 10L44 9ZM4 10L4 11L5 11L5 10ZM34 10L34 12L35 12L35 14L36 14L36 13L37 13L37 12L35 12L35 11L36 11L36 10ZM51 10L51 11L52 11L52 10ZM1 13L1 14L2 14L2 13ZM47 13L47 14L49 14L49 13ZM27 14L27 15L28 15L28 14ZM2 15L2 16L3 16L3 15ZM35 15L35 17L38 17L38 16L37 16L37 15ZM43 15L43 16L44 16L44 22L43 22L43 24L44 24L44 22L45 22L45 24L46 24L46 21L47 21L47 22L50 22L50 23L52 23L52 22L51 22L51 21L47 21L47 18L46 18L46 17L45 17L45 16L44 16L44 15ZM12 16L12 17L13 17L13 16ZM1 17L1 18L2 18L2 17ZM49 17L49 18L50 18L50 17ZM6 18L6 19L7 19L7 20L6 20L6 21L7 21L7 22L8 22L8 21L9 21L9 20L8 20L8 19L7 19L7 18ZM1 19L1 21L2 21L2 22L4 22L4 21L2 21L2 19ZM7 20L7 21L8 21L8 20ZM38 20L38 21L39 21L39 20ZM45 20L45 21L46 21L46 20ZM20 22L20 23L19 23L19 26L20 26L20 25L21 25L21 22ZM7 23L7 24L6 24L6 25L8 25L8 24L9 24L9 23ZM47 23L47 25L48 25L48 24L49 24L49 23ZM33 24L33 25L34 25L34 24ZM39 24L39 25L38 25L38 26L40 26L40 28L41 28L41 26L40 26L40 24ZM25 25L25 27L26 27L26 25ZM36 26L36 27L37 27L37 26ZM5 27L5 30L8 30L8 27ZM27 27L27 30L30 30L30 27ZM49 27L49 30L52 30L52 27ZM6 28L6 29L7 29L7 28ZM28 28L28 29L29 29L29 28ZM50 28L50 29L51 29L51 28ZM10 30L10 33L9 33L9 35L11 35L11 33L12 33L12 32L11 32L11 30ZM37 30L37 32L38 32L38 30ZM15 31L15 33L16 33L16 34L17 34L17 33L16 33L16 31ZM27 31L27 32L28 32L28 31ZM46 31L46 32L47 32L47 31ZM0 34L0 36L3 36L3 35L1 35L1 34ZM13 35L13 36L14 36L14 35ZM31 35L31 36L32 36L32 37L33 37L33 38L31 38L31 39L33 39L33 38L34 38L34 39L35 39L35 38L34 38L34 36L33 36L33 35ZM38 35L38 36L40 36L40 35ZM41 35L41 36L42 36L42 35ZM44 35L44 37L45 37L45 38L46 38L46 39L47 39L47 40L45 40L45 39L43 39L43 40L42 40L42 41L40 41L40 42L43 42L43 41L44 41L44 43L43 43L43 44L44 44L44 45L45 45L45 47L46 47L46 49L47 49L47 47L48 47L48 46L50 46L50 44L51 44L51 46L52 46L52 45L54 45L54 44L53 44L53 43L52 43L52 41L51 41L51 43L50 43L50 42L49 42L49 41L48 41L48 43L47 43L47 42L46 42L46 41L47 41L47 40L51 40L51 39L49 39L49 38L48 38L48 37L47 37L47 38L46 38L46 37L45 37L45 36L46 36L46 35ZM50 35L50 36L53 36L53 35ZM27 36L27 37L28 37L28 36ZM47 38L47 39L48 39L48 38ZM22 39L22 40L23 40L23 42L26 42L26 41L27 41L27 43L23 43L23 44L25 44L25 45L23 45L23 46L26 46L26 45L27 45L27 43L28 43L28 41L27 41L27 40L25 40L25 41L24 41L24 39ZM9 41L9 42L10 42L10 41ZM15 41L15 43L16 43L16 41ZM17 42L17 43L18 43L18 42ZM45 42L45 43L44 43L44 44L45 44L45 45L46 45L46 47L47 47L47 46L48 46L48 44L47 44L47 43L46 43L46 42ZM9 43L9 44L10 44L10 43ZM36 43L36 44L37 44L37 45L36 45L36 46L38 46L38 45L39 45L39 46L40 46L40 51L39 51L39 52L40 52L40 53L41 53L41 46L40 46L40 45L41 45L41 44L40 44L40 45L39 45L39 44L37 44L37 43ZM49 43L49 44L50 44L50 43ZM51 43L51 44L52 44L52 43ZM4 44L4 46L5 46L5 44ZM6 44L6 45L7 45L7 44ZM18 44L18 45L17 45L17 46L19 46L19 44ZM46 44L46 45L47 45L47 44ZM13 45L13 46L14 46L14 45ZM29 45L29 46L31 46L31 45ZM34 45L34 47L35 47L35 45ZM1 46L1 47L2 47L2 46ZM21 46L21 47L22 47L22 46ZM36 47L36 48L37 48L37 47ZM38 47L38 49L37 49L37 52L38 52L38 49L39 49L39 47ZM8 48L8 49L9 49L9 48ZM15 49L15 50L14 50L14 51L15 51L15 50L16 50L16 49ZM19 49L19 50L18 50L18 51L20 51L20 49ZM27 49L27 52L30 52L30 49ZM31 49L31 50L32 50L32 51L31 51L31 52L32 52L32 51L33 51L33 53L32 53L32 54L33 54L33 53L34 53L34 54L35 54L35 52L36 52L36 49L34 49L34 50L35 50L35 52L34 52L34 51L33 51L33 50L32 50L32 49ZM49 49L49 52L52 52L52 49ZM25 50L25 52L26 52L26 50ZM28 50L28 51L29 51L29 50ZM42 50L42 51L44 51L44 50ZM50 50L50 51L51 51L51 50ZM46 51L46 52L45 52L45 53L46 53L46 52L47 52L47 51ZM19 52L19 53L20 53L20 52ZM43 52L43 53L44 53L44 52ZM30 53L30 54L31 54L31 53ZM49 53L49 54L51 54L51 55L52 55L52 54L51 54L51 53ZM11 54L11 55L12 55L12 54ZM8 55L8 57L9 57L9 56L10 56L10 57L11 57L11 56L10 56L10 55ZM21 55L21 57L22 57L22 55ZM17 56L17 57L20 57L20 56ZM26 56L26 57L27 57L27 56ZM44 56L44 57L45 57L45 56ZM56 56L56 57L57 57L57 56ZM0 0L0 7L7 7L7 0ZM1 1L1 6L6 6L6 1ZM2 2L2 5L5 5L5 2ZM50 0L50 7L57 7L57 0ZM51 1L51 6L56 6L56 1ZM52 2L52 5L55 5L55 2ZM0 50L0 57L7 57L7 50ZM1 51L1 56L6 56L6 51ZM2 52L2 55L5 55L5 52Z" fill="#000000"/></g></g></svg>
