<?xml version="1.0" encoding="UTF-8"?>
<svg xmlns="http://www.w3.org/2000/svg" version="1.1" width="300" height="300" viewBox="0 0 300 300"><rect x="0" y="0" width="300" height="300" fill="#fefefe"/><g transform="scale(4.615)"><g transform="translate(4,4)"><path fill-rule="evenodd" d="M8 0L8 2L9 2L9 1L10 1L10 4L8 4L8 9L7 9L7 8L5 8L5 9L7 9L7 10L6 10L6 11L5 11L5 10L4 10L4 9L3 9L3 8L0 8L0 11L2 11L2 10L3 10L3 11L5 11L5 12L6 12L6 13L8 13L8 12L6 12L6 11L9 11L9 10L10 10L10 7L11 7L11 9L12 9L12 11L11 11L11 12L13 12L13 10L14 10L14 9L15 9L15 10L16 10L16 9L15 9L15 8L14 8L14 7L15 7L15 6L16 6L16 7L17 7L17 6L16 6L16 5L17 5L17 4L16 4L16 3L17 3L17 0L16 0L16 1L15 1L15 0L14 0L14 3L11 3L11 2L13 2L13 0L11 0L11 1L10 1L10 0ZM20 0L20 1L19 1L19 2L18 2L18 3L21 3L21 4L22 4L22 3L23 3L23 6L22 6L22 5L20 5L20 7L19 7L19 5L18 5L18 9L17 9L17 14L15 14L15 15L18 15L18 17L17 17L17 18L16 18L16 17L15 17L15 16L14 16L14 14L13 14L13 13L12 13L12 16L14 16L14 18L13 18L13 17L12 17L12 21L11 21L11 22L10 22L10 20L9 20L9 19L8 19L8 20L5 20L5 19L7 19L7 18L5 18L5 17L8 17L8 16L10 16L10 18L11 18L11 16L10 16L10 14L11 14L11 13L9 13L9 14L8 14L8 16L6 16L6 15L7 15L7 14L6 14L6 15L4 15L4 14L5 14L5 13L4 13L4 12L3 12L3 13L2 13L2 14L1 14L1 12L0 12L0 15L1 15L1 16L2 16L2 19L0 19L0 20L3 20L3 16L5 16L5 17L4 17L4 21L2 21L2 22L1 22L1 21L0 21L0 27L2 27L2 25L1 25L1 23L2 23L2 24L3 24L3 25L4 25L4 27L3 27L3 28L1 28L1 29L0 29L0 30L1 30L1 31L0 31L0 32L1 32L1 34L0 34L0 36L1 36L1 34L2 34L2 36L3 36L3 37L4 37L4 38L5 38L5 39L7 39L7 38L5 38L5 36L4 36L4 35L9 35L9 33L8 33L8 32L9 32L9 31L10 31L10 34L12 34L12 35L13 35L13 33L14 33L14 35L15 35L15 36L12 36L12 37L9 37L9 36L8 36L8 37L9 37L9 39L10 39L10 38L11 38L11 39L12 39L12 40L11 40L11 42L10 42L10 41L9 41L9 40L6 40L6 41L8 41L8 43L7 43L7 42L4 42L4 41L5 41L5 40L3 40L3 39L2 39L2 37L0 37L0 39L1 39L1 41L2 41L2 40L3 40L3 42L1 42L1 44L0 44L0 48L5 48L5 47L7 47L7 46L8 46L8 45L9 45L9 44L10 44L10 45L11 45L11 46L12 46L12 47L13 47L13 48L12 48L12 49L13 49L13 50L12 50L12 51L13 51L13 50L14 50L14 49L15 49L15 50L16 50L16 51L14 51L14 53L13 53L13 54L15 54L15 57L17 57L17 56L18 56L18 57L20 57L20 56L19 56L19 54L18 54L18 53L19 53L19 50L20 50L20 49L21 49L21 48L22 48L22 50L21 50L21 51L20 51L20 53L21 53L21 51L22 51L22 54L23 54L23 56L22 56L22 55L21 55L21 54L20 54L20 55L21 55L21 56L22 56L22 57L23 57L23 56L24 56L24 57L25 57L25 56L26 56L26 57L28 57L28 55L29 55L29 57L33 57L33 55L30 55L30 54L31 54L31 53L32 53L32 54L34 54L34 57L35 57L35 55L37 55L37 54L36 54L36 53L37 53L37 52L38 52L38 53L39 53L39 56L40 56L40 57L41 57L41 56L40 56L40 54L41 54L41 55L42 55L42 57L43 57L43 54L42 54L42 53L43 53L43 52L44 52L44 55L45 55L45 56L44 56L44 57L45 57L45 56L46 56L46 57L47 57L47 56L48 56L48 57L50 57L50 55L49 55L49 54L52 54L52 55L53 55L53 53L54 53L54 55L57 55L57 54L55 54L55 52L54 52L54 51L53 51L53 50L54 50L54 49L56 49L56 47L57 47L57 45L56 45L56 44L57 44L57 40L54 40L54 39L53 39L53 38L54 38L54 37L55 37L55 38L57 38L57 36L56 36L56 35L57 35L57 34L56 34L56 35L55 35L55 36L54 36L54 34L53 34L53 36L51 36L51 33L50 33L50 31L53 31L53 33L54 33L54 31L55 31L55 33L56 33L56 31L57 31L57 29L56 29L56 28L55 28L55 29L53 29L53 28L54 28L54 27L55 27L55 26L54 26L54 25L55 25L55 24L56 24L56 27L57 27L57 24L56 24L56 23L57 23L57 18L56 18L56 23L55 23L55 21L54 21L54 19L55 19L55 16L56 16L56 17L57 17L57 13L56 13L56 15L55 15L55 16L54 16L54 13L53 13L53 12L54 12L54 11L55 11L55 12L56 12L56 11L57 11L57 10L56 10L56 9L57 9L57 8L55 8L55 9L54 9L54 10L53 10L53 8L48 8L48 7L49 7L49 6L48 6L48 7L47 7L47 5L48 5L48 0L46 0L46 1L45 1L45 0L42 0L42 1L41 1L41 0L38 0L38 2L37 2L37 1L35 1L35 0L34 0L34 2L33 2L33 1L32 1L32 0L30 0L30 1L29 1L29 2L30 2L30 3L31 3L31 4L26 4L26 3L27 3L27 0L24 0L24 1L23 1L23 0ZM22 1L22 2L21 2L21 3L22 3L22 2L23 2L23 1ZM24 1L24 4L25 4L25 1ZM30 1L30 2L32 2L32 5L31 5L31 9L30 9L30 11L29 11L29 10L28 10L28 9L27 9L27 10L25 10L25 9L26 9L26 5L24 5L24 6L23 6L23 7L22 7L22 6L21 6L21 9L20 9L20 8L19 8L19 9L18 9L18 10L19 10L19 9L20 9L20 10L21 10L21 11L18 11L18 12L19 12L19 13L18 13L18 15L20 15L20 14L22 14L22 16L23 16L23 15L25 15L25 13L24 13L24 14L23 14L23 12L22 12L22 11L24 11L24 10L25 10L25 11L26 11L26 14L27 14L27 15L26 15L26 16L24 16L24 18L25 18L25 17L26 17L26 18L27 18L27 19L26 19L26 20L27 20L27 22L26 22L26 23L27 23L27 25L26 25L26 26L27 26L27 25L28 25L28 24L29 24L29 25L30 25L30 26L31 26L31 25L32 25L32 28L31 28L31 29L32 29L32 28L33 28L33 29L34 29L34 32L35 32L35 33L34 33L34 34L33 34L33 33L32 33L32 31L33 31L33 30L32 30L32 31L31 31L31 32L30 32L30 34L31 34L31 35L28 35L28 34L29 34L29 32L28 32L28 31L27 31L27 33L28 33L28 34L26 34L26 30L25 30L25 29L24 29L24 30L23 30L23 29L22 29L22 30L21 30L21 29L20 29L20 31L19 31L19 28L20 28L20 26L21 26L21 23L20 23L20 22L21 22L21 21L22 21L22 20L23 20L23 19L22 19L22 18L21 18L21 16L20 16L20 20L19 20L19 21L18 21L18 19L16 19L16 20L17 20L17 22L16 22L16 23L17 23L17 24L16 24L16 26L17 26L17 27L16 27L16 28L14 28L14 29L13 29L13 28L12 28L12 24L13 24L13 23L12 23L12 24L11 24L11 23L9 23L9 24L8 24L8 23L6 23L6 24L4 24L4 25L6 25L6 26L7 26L7 25L9 25L9 26L10 26L10 27L9 27L9 29L10 29L10 31L11 31L11 29L12 29L12 33L13 33L13 30L14 30L14 31L15 31L15 30L18 30L18 31L16 31L16 34L17 34L17 35L16 35L16 36L15 36L15 38L14 38L14 37L13 37L13 38L12 38L12 39L14 39L14 40L13 40L13 41L14 41L14 42L15 42L15 41L16 41L16 43L17 43L17 41L16 41L16 40L17 40L17 39L18 39L18 40L19 40L19 38L17 38L17 37L18 37L18 34L17 34L17 33L18 33L18 31L19 31L19 32L21 32L21 33L20 33L20 35L19 35L19 36L20 36L20 35L21 35L21 37L22 37L22 38L20 38L20 39L22 39L22 40L21 40L21 41L20 41L20 43L18 43L18 44L20 44L20 43L21 43L21 45L20 45L20 46L22 46L22 48L23 48L23 49L24 49L24 51L23 51L23 50L22 50L22 51L23 51L23 52L24 52L24 51L25 51L25 53L26 53L26 54L24 54L24 55L26 55L26 54L27 54L27 55L28 55L28 53L26 53L26 51L25 51L25 50L26 50L26 48L29 48L29 47L30 47L30 48L31 48L31 52L32 52L32 50L33 50L33 49L32 49L32 48L31 48L31 47L30 47L30 46L32 46L32 40L33 40L33 41L34 41L34 42L35 42L35 41L36 41L36 44L33 44L33 45L34 45L34 47L33 47L33 48L34 48L34 52L35 52L35 53L34 53L34 54L35 54L35 53L36 53L36 52L35 52L35 51L37 51L37 49L36 49L36 48L37 48L37 47L38 47L38 51L39 51L39 49L40 49L40 51L41 51L41 49L42 49L42 50L43 50L43 51L42 51L42 52L43 52L43 51L44 51L44 50L45 50L45 49L46 49L46 50L47 50L47 46L48 46L48 45L47 45L47 44L46 44L46 47L44 47L44 46L43 46L43 45L44 45L44 44L45 44L45 43L44 43L44 42L45 42L45 41L44 41L44 42L43 42L43 41L42 41L42 42L41 42L41 43L40 43L40 42L39 42L39 41L40 41L40 40L41 40L41 39L42 39L42 40L43 40L43 38L44 38L44 34L45 34L45 36L46 36L46 38L45 38L45 39L46 39L46 38L47 38L47 40L46 40L46 43L48 43L48 42L49 42L49 45L50 45L50 46L51 46L51 48L52 48L52 46L53 46L53 45L55 45L55 47L54 47L54 48L53 48L53 49L54 49L54 48L55 48L55 47L56 47L56 45L55 45L55 44L56 44L56 41L54 41L54 40L53 40L53 39L51 39L51 40L48 40L48 37L50 37L50 38L49 38L49 39L50 39L50 38L51 38L51 36L50 36L50 33L49 33L49 34L48 34L48 33L46 33L46 32L47 32L47 30L48 30L48 26L49 26L49 25L48 25L48 24L46 24L46 23L48 23L48 22L50 22L50 23L49 23L49 24L51 24L51 25L50 25L50 26L53 26L53 25L54 25L54 24L55 24L55 23L54 23L54 21L53 21L53 22L52 22L52 20L53 20L53 19L54 19L54 17L52 17L52 18L51 18L51 14L52 14L52 15L53 15L53 14L52 14L52 13L50 13L50 11L51 11L51 12L52 12L52 11L51 11L51 9L48 9L48 8L46 8L46 5L47 5L47 3L46 3L46 5L44 5L44 4L45 4L45 1L42 1L42 2L40 2L40 1L39 1L39 2L38 2L38 3L37 3L37 2L34 2L34 4L35 4L35 9L34 9L34 10L33 10L33 9L32 9L32 8L34 8L34 6L33 6L33 2L32 2L32 1ZM46 1L46 2L47 2L47 1ZM39 2L39 4L38 4L38 5L37 5L37 6L36 6L36 10L34 10L34 11L33 11L33 12L32 12L32 14L31 14L31 15L32 15L32 18L31 18L31 20L32 20L32 21L33 21L33 22L30 22L30 20L29 20L29 19L28 19L28 22L27 22L27 23L28 23L28 22L29 22L29 23L30 23L30 24L31 24L31 23L32 23L32 25L33 25L33 26L34 26L34 24L36 24L36 26L37 26L37 27L34 27L34 29L35 29L35 31L36 31L36 33L35 33L35 35L33 35L33 34L32 34L32 33L31 33L31 34L32 34L32 35L31 35L31 36L30 36L30 40L29 40L29 42L28 42L28 40L27 40L27 39L26 39L26 38L24 38L24 39L26 39L26 40L25 40L25 41L26 41L26 42L24 42L24 43L25 43L25 45L26 45L26 46L25 46L25 48L26 48L26 46L27 46L27 47L28 47L28 44L29 44L29 46L30 46L30 43L31 43L31 41L30 41L30 40L31 40L31 38L34 38L34 41L35 41L35 38L36 38L36 41L37 41L37 42L38 42L38 41L39 41L39 38L40 38L40 39L41 39L41 36L42 36L42 37L43 37L43 36L42 36L42 35L40 35L40 36L39 36L39 34L38 34L38 33L39 33L39 32L40 32L40 34L42 34L42 33L43 33L43 34L44 34L44 33L45 33L45 34L46 34L46 35L48 35L48 36L47 36L47 37L48 37L48 36L49 36L49 35L48 35L48 34L46 34L46 33L45 33L45 32L46 32L46 30L44 30L44 29L46 29L46 28L47 28L47 26L48 26L48 25L47 25L47 26L46 26L46 25L45 25L45 24L44 24L44 23L45 23L45 22L44 22L44 21L45 21L45 20L46 20L46 21L47 21L47 22L48 22L48 21L49 21L49 20L51 20L51 18L50 18L50 16L49 16L49 15L50 15L50 13L49 13L49 14L48 14L48 12L49 12L49 10L48 10L48 9L47 9L47 11L46 11L46 8L45 8L45 6L44 6L44 5L43 5L43 4L44 4L44 2L43 2L43 3L42 3L42 7L41 7L41 6L40 6L40 7L41 7L41 8L40 8L40 9L41 9L41 10L39 10L39 11L38 11L38 8L39 8L39 6L38 6L38 5L39 5L39 4L40 4L40 2ZM14 3L14 4L15 4L15 3ZM35 3L35 4L36 4L36 3ZM11 4L11 5L12 5L12 4ZM9 5L9 7L10 7L10 5ZM13 5L13 7L12 7L12 6L11 6L11 7L12 7L12 8L13 8L13 9L14 9L14 8L13 8L13 7L14 7L14 5ZM27 5L27 8L30 8L30 5ZM24 6L24 7L25 7L25 6ZM28 6L28 7L29 7L29 6ZM32 6L32 7L33 7L33 6ZM37 6L37 7L38 7L38 6ZM43 6L43 9L42 9L42 8L41 8L41 9L42 9L42 10L41 10L41 12L42 12L42 15L41 15L41 17L42 17L42 18L43 18L43 17L44 17L44 19L43 19L43 20L42 20L42 19L41 19L41 18L40 18L40 14L41 14L41 13L40 13L40 12L37 12L37 11L34 11L34 12L35 12L35 13L34 13L34 15L33 15L33 14L32 14L32 15L33 15L33 17L34 17L34 18L33 18L33 20L35 20L35 21L34 21L34 22L35 22L35 23L36 23L36 24L37 24L37 25L38 25L38 26L39 26L39 25L38 25L38 23L41 23L41 25L40 25L40 28L39 28L39 29L38 29L38 28L37 28L37 29L36 29L36 28L35 28L35 29L36 29L36 31L37 31L37 32L38 32L38 31L40 31L40 32L41 32L41 33L42 33L42 31L44 31L44 30L43 30L43 28L42 28L42 31L40 31L40 30L39 30L39 29L40 29L40 28L41 28L41 27L44 27L44 26L45 26L45 25L44 25L44 24L43 24L43 25L42 25L42 23L41 23L41 22L40 22L40 19L41 19L41 20L42 20L42 22L43 22L43 23L44 23L44 22L43 22L43 21L44 21L44 19L46 19L46 20L47 20L47 21L48 21L48 20L49 20L49 19L48 19L48 20L47 20L47 17L48 17L48 18L49 18L49 17L48 17L48 16L47 16L47 17L46 17L46 15L48 15L48 14L47 14L47 13L46 13L46 11L45 11L45 10L44 10L44 6ZM22 8L22 10L24 10L24 9L25 9L25 8L24 8L24 9L23 9L23 8ZM1 9L1 10L2 10L2 9ZM8 9L8 10L9 10L9 9ZM31 9L31 11L30 11L30 12L29 12L29 11L28 11L28 12L27 12L27 14L28 14L28 15L29 15L29 16L30 16L30 17L28 17L28 18L30 18L30 17L31 17L31 16L30 16L30 15L29 15L29 13L30 13L30 12L31 12L31 11L32 11L32 9ZM42 10L42 12L43 12L43 11L44 11L44 10ZM55 10L55 11L56 11L56 10ZM14 11L14 12L16 12L16 11ZM47 11L47 12L48 12L48 11ZM20 12L20 13L19 13L19 14L20 14L20 13L21 13L21 12ZM36 12L36 14L35 14L35 15L34 15L34 17L35 17L35 15L36 15L36 18L34 18L34 19L35 19L35 20L36 20L36 21L35 21L35 22L36 22L36 23L38 23L38 20L39 20L39 19L40 19L40 18L38 18L38 16L37 16L37 15L38 15L38 13L37 13L37 12ZM44 12L44 13L43 13L43 16L44 16L44 17L45 17L45 16L44 16L44 15L46 15L46 13L45 13L45 12ZM3 13L3 14L2 14L2 16L3 16L3 14L4 14L4 13ZM39 13L39 14L40 14L40 13ZM36 14L36 15L37 15L37 14ZM26 16L26 17L27 17L27 16ZM18 17L18 18L19 18L19 17ZM36 18L36 19L37 19L37 20L38 20L38 19L37 19L37 18ZM14 19L14 20L15 20L15 19ZM24 19L24 20L25 20L25 19ZM20 20L20 21L21 21L21 20ZM4 21L4 23L5 23L5 21ZM6 21L6 22L8 22L8 21ZM14 21L14 26L13 26L13 27L15 27L15 21ZM36 21L36 22L37 22L37 21ZM2 22L2 23L3 23L3 22ZM18 22L18 23L19 23L19 22ZM22 22L22 23L23 23L23 22ZM24 22L24 23L25 23L25 22ZM51 22L51 24L52 24L52 25L53 25L53 24L54 24L54 23L53 23L53 24L52 24L52 22ZM33 23L33 24L34 24L34 23ZM6 24L6 25L7 25L7 24ZM10 24L10 26L11 26L11 24ZM18 24L18 25L19 25L19 24ZM24 25L24 26L25 26L25 25ZM43 25L43 26L44 26L44 25ZM5 27L5 30L8 30L8 27ZM10 27L10 29L11 29L11 27ZM18 27L18 28L19 28L19 27ZM22 27L22 28L25 28L25 27ZM27 27L27 30L30 30L30 27ZM49 27L49 30L52 30L52 27ZM6 28L6 29L7 29L7 28ZM28 28L28 29L29 29L29 28ZM50 28L50 29L51 29L51 28ZM1 29L1 30L2 30L2 29ZM3 29L3 30L4 30L4 29ZM22 30L22 33L23 33L23 34L21 34L21 35L25 35L25 36L24 36L24 37L25 37L25 36L26 36L26 35L25 35L25 34L24 34L24 32L23 32L23 30ZM24 30L24 31L25 31L25 30ZM37 30L37 31L38 31L38 30ZM53 30L53 31L54 31L54 30ZM55 30L55 31L56 31L56 30ZM1 31L1 32L2 32L2 31ZM4 31L4 32L3 32L3 34L4 34L4 32L7 32L7 31ZM6 33L6 34L7 34L7 33ZM36 33L36 35L35 35L35 36L33 36L33 37L34 37L34 38L35 38L35 37L36 37L36 38L37 38L37 37L36 37L36 35L37 35L37 36L38 36L38 38L39 38L39 36L38 36L38 34L37 34L37 33ZM10 35L10 36L11 36L11 35ZM27 35L27 36L28 36L28 37L29 37L29 36L28 36L28 35ZM6 36L6 37L7 37L7 36ZM16 36L16 37L17 37L17 36ZM22 36L22 37L23 37L23 36ZM31 36L31 37L32 37L32 36ZM53 36L53 37L52 37L52 38L53 38L53 37L54 37L54 36ZM55 36L55 37L56 37L56 36ZM16 38L16 39L17 39L17 38ZM22 38L22 39L23 39L23 38ZM28 38L28 39L29 39L29 38ZM37 39L37 41L38 41L38 39ZM14 40L14 41L15 41L15 40ZM22 40L22 41L23 41L23 40ZM47 40L47 41L48 41L48 40ZM51 40L51 41L49 41L49 42L50 42L50 45L51 45L51 44L52 44L52 40ZM53 41L53 44L54 44L54 43L55 43L55 42L54 42L54 41ZM12 42L12 43L10 43L10 44L11 44L11 45L12 45L12 44L13 44L13 42ZM27 42L27 44L28 44L28 42ZM29 42L29 43L30 43L30 42ZM42 42L42 43L43 43L43 42ZM5 43L5 44L4 44L4 45L5 45L5 46L3 46L3 47L5 47L5 46L7 46L7 45L6 45L6 44L7 44L7 43ZM22 43L22 44L23 44L23 43ZM37 43L37 44L36 44L36 45L35 45L35 46L36 46L36 47L37 47L37 46L38 46L38 45L37 45L37 44L39 44L39 43ZM14 44L14 45L16 45L16 46L15 46L15 47L16 47L16 48L17 48L17 49L16 49L16 50L18 50L18 48L17 48L17 47L18 47L18 46L19 46L19 45L18 45L18 46L17 46L17 45L16 45L16 44ZM40 44L40 45L39 45L39 46L40 46L40 45L41 45L41 47L40 47L40 49L41 49L41 47L42 47L42 45L43 45L43 44L42 44L42 45L41 45L41 44ZM23 45L23 48L24 48L24 45ZM36 45L36 46L37 46L37 45ZM1 46L1 47L2 47L2 46ZM9 46L9 47L8 47L8 48L9 48L9 49L8 49L8 50L9 50L9 51L8 51L8 52L9 52L9 53L10 53L10 54L8 54L8 57L12 57L12 56L11 56L11 55L10 55L10 54L12 54L12 52L11 52L11 47L10 47L10 46ZM13 46L13 47L14 47L14 46ZM16 46L16 47L17 47L17 46ZM9 47L9 48L10 48L10 47ZM34 47L34 48L35 48L35 47ZM6 48L6 49L7 49L7 48ZM13 48L13 49L14 49L14 48ZM44 48L44 49L43 49L43 50L44 50L44 49L45 49L45 48ZM27 49L27 52L30 52L30 49ZM49 49L49 52L52 52L52 49ZM28 50L28 51L29 51L29 50ZM50 50L50 51L51 51L51 50ZM56 50L56 51L57 51L57 50ZM16 51L16 52L17 52L17 53L18 53L18 52L17 52L17 51ZM45 51L45 53L46 53L46 54L45 54L45 55L46 55L46 54L47 54L47 55L48 55L48 54L49 54L49 53L46 53L46 51ZM47 51L47 52L48 52L48 51ZM10 52L10 53L11 53L11 52ZM39 52L39 53L40 53L40 52ZM56 52L56 53L57 53L57 52ZM16 54L16 55L17 55L17 54ZM9 55L9 56L10 56L10 55ZM36 56L36 57L37 57L37 56ZM51 56L51 57L53 57L53 56ZM56 56L56 57L57 57L57 56ZM0 0L0 7L7 7L7 0ZM1 1L1 6L6 6L6 1ZM2 2L2 5L5 5L5 2ZM50 0L50 7L57 7L57 0ZM51 1L51 6L56 6L56 1ZM52 2L52 5L55 5L55 2ZM0 50L0 57L7 57L7 50ZM1 51L1 56L6 56L6 51ZM2 52L2 55L5 55L5 52Z" fill="#000000"/></g></g></svg>
