<?xml version="1.0" encoding="UTF-8"?>
<svg xmlns="http://www.w3.org/2000/svg" version="1.1" width="300" height="300" viewBox="0 0 300 300"><rect x="0" y="0" width="300" height="300" fill="#fefefe"/><g transform="scale(4.615)"><g transform="translate(4,4)"><path fill-rule="evenodd" d="M11 0L11 2L10 2L10 1L8 1L8 2L9 2L9 3L8 3L8 4L9 4L9 5L8 5L8 7L9 7L9 8L6 8L6 9L7 9L7 10L6 10L6 11L7 11L7 12L5 12L5 10L4 10L4 13L3 13L3 14L2 14L2 16L0 16L0 19L2 19L2 18L3 18L3 23L8 23L8 21L7 21L7 20L8 20L8 19L9 19L9 20L10 20L10 22L9 22L9 24L10 24L10 25L11 25L11 26L13 26L13 25L14 25L14 26L15 26L15 23L16 23L16 24L17 24L17 25L18 25L18 26L16 26L16 27L18 27L18 26L19 26L19 27L20 27L20 29L18 29L18 28L16 28L16 29L15 29L15 31L16 31L16 29L18 29L18 30L17 30L17 31L18 31L18 32L15 32L15 33L17 33L17 35L16 35L16 34L13 34L13 32L14 32L14 31L13 31L13 30L14 30L14 28L11 28L11 29L10 29L10 28L9 28L9 27L10 27L10 26L9 26L9 25L7 25L7 24L6 24L6 25L4 25L4 24L2 24L2 23L1 23L1 22L2 22L2 21L0 21L0 24L1 24L1 25L2 25L2 26L3 26L3 27L0 27L0 30L2 30L2 32L3 32L3 30L2 30L2 28L3 28L3 29L4 29L4 31L5 31L5 32L4 32L4 33L1 33L1 34L0 34L0 35L1 35L1 36L0 36L0 37L1 37L1 36L4 36L4 37L3 37L3 39L0 39L0 41L1 41L1 42L3 42L3 41L2 41L2 40L3 40L3 39L4 39L4 37L5 37L5 38L6 38L6 39L5 39L5 40L4 40L4 43L1 43L1 44L0 44L0 45L1 45L1 46L0 46L0 48L5 48L5 47L7 47L7 46L5 46L5 44L4 44L4 43L7 43L7 44L6 44L6 45L8 45L8 44L9 44L9 46L10 46L10 43L7 43L7 42L5 42L5 41L8 41L8 42L10 42L10 41L9 41L9 40L8 40L8 39L10 39L10 40L11 40L11 38L12 38L12 40L14 40L14 39L15 39L15 40L16 40L16 39L15 39L15 38L16 38L16 37L15 37L15 38L14 38L14 37L13 37L13 38L12 38L12 37L11 37L11 38L10 38L10 37L9 37L9 36L10 36L10 34L12 34L12 35L11 35L11 36L12 36L12 35L14 35L14 36L17 36L17 37L18 37L18 38L17 38L17 42L15 42L15 44L18 44L18 45L17 45L17 46L19 46L19 47L17 47L17 53L16 53L16 52L15 52L15 49L14 49L14 53L13 53L13 52L12 52L12 50L13 50L13 48L14 48L14 47L15 47L15 48L16 48L16 47L15 47L15 46L14 46L14 45L12 45L12 48L11 48L11 47L9 47L9 48L10 48L10 49L8 49L8 51L9 51L9 52L8 52L8 57L11 57L11 56L10 56L10 55L9 55L9 53L10 53L10 51L11 51L11 53L13 53L13 54L11 54L11 55L13 55L13 54L14 54L14 55L16 55L16 56L17 56L17 57L20 57L20 56L19 56L19 55L20 55L20 54L19 54L19 53L20 53L20 52L21 52L21 53L22 53L22 54L21 54L21 55L23 55L23 56L24 56L24 57L26 57L26 56L27 56L27 57L29 57L29 56L30 56L30 57L31 57L31 56L35 56L35 57L39 57L39 56L37 56L37 54L38 54L38 55L41 55L41 54L42 54L42 55L43 55L43 57L44 57L44 54L46 54L46 55L48 55L48 56L46 56L46 57L49 57L49 56L50 56L50 57L52 57L52 55L51 55L51 53L52 53L52 54L53 54L53 52L54 52L54 54L55 54L55 53L57 53L57 52L56 52L56 50L57 50L57 48L56 48L56 46L57 46L57 43L56 43L56 42L55 42L55 39L57 39L57 36L56 36L56 34L57 34L57 32L56 32L56 30L57 30L57 28L56 28L56 27L55 27L55 26L57 26L57 25L56 25L56 22L57 22L57 21L56 21L56 20L55 20L55 19L56 19L56 18L57 18L57 17L56 17L56 16L57 16L57 15L56 15L56 14L57 14L57 13L56 13L56 14L55 14L55 15L53 15L53 14L54 14L54 12L55 12L55 11L56 11L56 12L57 12L57 11L56 11L56 8L55 8L55 10L54 10L54 11L52 11L52 10L53 10L53 9L54 9L54 8L53 8L53 9L52 9L52 8L51 8L51 10L50 10L50 8L49 8L49 6L48 6L48 8L46 8L46 9L47 9L47 10L46 10L46 11L45 11L45 10L44 10L44 8L43 8L43 6L44 6L44 7L45 7L45 6L46 6L46 7L47 7L47 5L48 5L48 0L46 0L46 1L45 1L45 2L44 2L44 3L43 3L43 4L42 4L42 5L41 5L41 4L40 4L40 5L39 5L39 6L38 6L38 9L37 9L37 8L35 8L35 5L36 5L36 7L37 7L37 5L38 5L38 4L37 4L37 3L36 3L36 0L35 0L35 1L33 1L33 0L28 0L28 1L26 1L26 0L23 0L23 2L28 2L28 1L31 1L31 2L30 2L30 3L31 3L31 4L26 4L26 3L23 3L23 4L19 4L19 3L22 3L22 2L21 2L21 1L22 1L22 0L21 0L21 1L20 1L20 0L19 0L19 1L18 1L18 0L17 0L17 1L16 1L16 2L15 2L15 1L14 1L14 2L13 2L13 1L12 1L12 0ZM37 0L37 1L38 1L38 3L42 3L42 2L43 2L43 0L41 0L41 1L40 1L40 0L39 0L39 1L38 1L38 0ZM19 1L19 2L20 2L20 1ZM32 1L32 2L31 2L31 3L32 3L32 4L31 4L31 8L32 8L32 10L31 10L31 11L29 11L29 9L28 9L28 11L29 11L29 12L28 12L28 13L26 13L26 12L27 12L27 11L26 11L26 12L25 12L25 10L24 10L24 12L25 12L25 13L26 13L26 16L23 16L23 15L25 15L25 14L23 14L23 13L22 13L22 12L21 12L21 11L22 11L22 10L23 10L23 8L24 8L24 6L23 6L23 5L24 5L24 4L23 4L23 5L21 5L21 8L20 8L20 10L21 10L21 11L20 11L20 15L19 15L19 14L17 14L17 13L18 13L18 12L17 12L17 13L16 13L16 12L15 12L15 13L13 13L13 12L14 12L14 11L13 11L13 10L15 10L15 11L18 11L18 10L17 10L17 9L16 9L16 8L17 8L17 7L18 7L18 6L19 6L19 7L20 7L20 5L18 5L18 4L17 4L17 3L15 3L15 2L14 2L14 4L12 4L12 3L13 3L13 2L12 2L12 3L11 3L11 4L10 4L10 5L11 5L11 9L12 9L12 8L13 8L13 7L14 7L14 9L13 9L13 10L8 10L8 12L10 12L10 13L11 13L11 14L12 14L12 13L13 13L13 14L15 14L15 13L16 13L16 17L15 17L15 15L14 15L14 17L15 17L15 18L12 18L12 17L10 17L10 18L9 18L9 19L10 19L10 18L11 18L11 19L12 19L12 20L11 20L11 21L12 21L12 22L10 22L10 24L11 24L11 25L13 25L13 24L14 24L14 22L16 22L16 21L18 21L18 22L20 22L20 23L19 23L19 24L21 24L21 25L20 25L20 27L21 27L21 28L22 28L22 29L20 29L20 30L18 30L18 31L23 31L23 28L25 28L25 29L26 29L26 28L25 28L25 27L26 27L26 26L27 26L27 25L28 25L28 26L29 26L29 25L31 25L31 24L32 24L32 26L31 26L31 28L32 28L32 29L31 29L31 30L32 30L32 33L33 33L33 34L31 34L31 35L33 35L33 36L32 36L32 37L33 37L33 38L34 38L34 39L35 39L35 40L33 40L33 39L29 39L29 38L31 38L31 37L29 37L29 36L30 36L30 34L29 34L29 33L31 33L31 31L29 31L29 33L28 33L28 32L27 32L27 33L25 33L25 30L24 30L24 32L20 32L20 34L19 34L19 35L20 35L20 36L19 36L19 37L21 37L21 38L24 38L24 37L23 37L23 36L24 36L24 34L23 34L23 33L25 33L25 35L26 35L26 34L27 34L27 37L28 37L28 38L27 38L27 39L26 39L26 36L25 36L25 40L24 40L24 39L23 39L23 40L19 40L19 41L18 41L18 42L17 42L17 43L18 43L18 42L19 42L19 41L20 41L20 42L21 42L21 43L20 43L20 44L19 44L19 45L20 45L20 46L21 46L21 45L22 45L22 46L23 46L23 47L19 47L19 49L20 49L20 50L18 50L18 52L19 52L19 51L20 51L20 50L21 50L21 49L23 49L23 48L24 48L24 49L25 49L25 48L30 48L30 47L29 47L29 44L28 44L28 42L29 42L29 41L30 41L30 42L32 42L32 43L33 43L33 44L30 44L30 45L32 45L32 46L31 46L31 47L32 47L32 46L35 46L35 47L33 47L33 48L31 48L31 49L32 49L32 50L34 50L34 51L33 51L33 52L32 52L32 51L31 51L31 53L30 53L30 54L27 54L27 53L24 53L24 52L26 52L26 51L25 51L25 50L22 50L22 51L21 51L21 52L22 52L22 53L24 53L24 54L23 54L23 55L24 55L24 56L25 56L25 54L26 54L26 55L27 55L27 56L29 56L29 55L30 55L30 56L31 56L31 54L32 54L32 53L33 53L33 55L35 55L35 56L36 56L36 54L35 54L35 50L36 50L36 52L37 52L37 53L38 53L38 54L40 54L40 53L43 53L43 54L44 54L44 53L46 53L46 54L48 54L48 50L47 50L47 49L48 49L48 48L51 48L51 46L54 46L54 47L55 47L55 46L56 46L56 43L55 43L55 44L54 44L54 45L53 45L53 43L54 43L54 42L53 42L53 41L51 41L51 42L50 42L50 43L48 43L48 44L47 44L47 45L45 45L45 44L46 44L46 43L47 43L47 42L48 42L48 41L49 41L49 39L52 39L52 38L53 38L53 35L55 35L55 34L56 34L56 32L53 32L53 31L55 31L55 30L54 30L54 29L56 29L56 28L54 28L54 29L53 29L53 31L50 31L50 32L49 32L49 31L48 31L48 27L47 27L47 25L48 25L48 24L49 24L49 23L50 23L50 22L51 22L51 21L53 21L53 23L55 23L55 22L56 22L56 21L55 21L55 20L53 20L53 19L52 19L52 20L51 20L51 21L49 21L49 20L48 20L48 21L47 21L47 20L46 20L46 19L48 19L48 18L47 18L47 17L50 17L50 18L49 18L49 19L50 19L50 18L51 18L51 17L53 17L53 18L56 18L56 17L53 17L53 16L51 16L51 17L50 17L50 14L51 14L51 12L50 12L50 10L48 10L48 11L49 11L49 12L45 12L45 11L41 11L41 12L39 12L39 13L38 13L38 14L37 14L37 13L35 13L35 12L36 12L36 10L37 10L37 11L39 11L39 10L40 10L40 9L42 9L42 8L41 8L41 7L42 7L42 6L43 6L43 5L42 5L42 6L41 6L41 5L40 5L40 6L39 6L39 9L38 9L38 10L37 10L37 9L35 9L35 8L34 8L34 9L33 9L33 7L34 7L34 5L35 5L35 3L32 3L32 2L33 2L33 1ZM46 1L46 2L47 2L47 1ZM44 3L44 6L45 6L45 4L46 4L46 5L47 5L47 3ZM15 4L15 5L14 5L14 7L15 7L15 8L16 8L16 7L17 7L17 6L16 6L16 7L15 7L15 5L16 5L16 4ZM25 4L25 8L26 8L26 4ZM32 4L32 5L34 5L34 4ZM36 4L36 5L37 5L37 4ZM12 5L12 7L13 7L13 5ZM27 5L27 8L30 8L30 5ZM9 6L9 7L10 7L10 6ZM22 6L22 8L23 8L23 6ZM28 6L28 7L29 7L29 6ZM32 6L32 7L33 7L33 6ZM40 6L40 7L41 7L41 6ZM0 8L0 9L1 9L1 12L3 12L3 10L2 10L2 9L5 9L5 8ZM9 8L9 9L10 9L10 8ZM32 10L32 11L31 11L31 12L33 12L33 13L32 13L32 14L31 14L31 13L30 13L30 14L29 14L29 13L28 13L28 14L29 14L29 16L28 16L28 15L27 15L27 16L28 16L28 17L26 17L26 18L28 18L28 19L27 19L27 20L29 20L29 19L30 19L30 18L31 18L31 20L30 20L30 21L29 21L29 23L28 23L28 24L29 24L29 23L30 23L30 24L31 24L31 23L30 23L30 22L31 22L31 21L32 21L32 20L34 20L34 19L35 19L35 23L34 23L34 22L33 22L33 23L32 23L32 24L33 24L33 25L37 25L37 26L38 26L38 25L39 25L39 27L37 27L37 28L36 28L36 26L34 26L34 27L33 27L33 26L32 26L32 27L33 27L33 28L36 28L36 29L38 29L38 28L40 28L40 27L41 27L41 28L42 28L42 26L43 26L43 25L44 25L44 24L41 24L41 23L44 23L44 20L45 20L45 19L46 19L46 18L44 18L44 15L45 15L45 17L47 17L47 16L48 16L48 15L49 15L49 14L50 14L50 12L49 12L49 13L47 13L47 14L45 14L45 13L44 13L44 12L43 12L43 13L39 13L39 14L38 14L38 15L39 15L39 16L38 16L38 17L37 17L37 16L35 16L35 14L33 14L33 13L34 13L34 12L33 12L33 10ZM10 11L10 12L11 12L11 11ZM12 11L12 12L13 12L13 11ZM52 12L52 13L53 13L53 12ZM6 13L6 14L5 14L5 16L4 16L4 14L3 14L3 16L2 16L2 17L1 17L1 18L2 18L2 17L6 17L6 18L4 18L4 21L5 21L5 22L7 22L7 21L5 21L5 19L6 19L6 20L7 20L7 19L6 19L6 18L8 18L8 16L7 16L7 15L10 15L10 16L13 16L13 15L10 15L10 14L8 14L8 13ZM21 13L21 15L23 15L23 14L22 14L22 13ZM43 13L43 14L39 14L39 15L41 15L41 16L39 16L39 17L38 17L38 18L37 18L37 17L35 17L35 16L33 16L33 15L32 15L32 17L31 17L31 18L32 18L32 19L33 19L33 18L35 18L35 19L36 19L36 20L37 20L37 19L39 19L39 17L41 17L41 16L42 16L42 17L43 17L43 16L42 16L42 15L44 15L44 13ZM0 14L0 15L1 15L1 14ZM6 14L6 15L7 15L7 14ZM30 14L30 15L31 15L31 14ZM36 14L36 15L37 15L37 14ZM46 15L46 16L47 16L47 15ZM6 16L6 17L7 17L7 16ZM17 16L17 17L19 17L19 18L17 18L17 20L18 20L18 21L20 21L20 20L19 20L19 19L20 19L20 17L19 17L19 16ZM21 16L21 17L22 17L22 18L24 18L24 19L23 19L23 20L24 20L24 21L23 21L23 22L24 22L24 21L25 21L25 22L26 22L26 23L25 23L25 24L24 24L24 23L22 23L22 22L21 22L21 24L24 24L24 25L21 25L21 27L22 27L22 26L26 26L26 25L25 25L25 24L27 24L27 22L28 22L28 21L25 21L25 20L26 20L26 19L25 19L25 17L22 17L22 16ZM15 18L15 19L16 19L16 18ZM41 18L41 20L38 20L38 22L37 22L37 24L39 24L39 25L41 25L41 24L39 24L39 23L40 23L40 22L39 22L39 21L43 21L43 20L44 20L44 18L43 18L43 20L42 20L42 18ZM13 19L13 20L12 20L12 21L13 21L13 22L14 22L14 21L13 21L13 20L14 20L14 19ZM21 19L21 20L22 20L22 19ZM15 20L15 21L16 21L16 20ZM45 21L45 22L46 22L46 23L45 23L45 24L48 24L48 23L47 23L47 22L46 22L46 21ZM48 21L48 22L49 22L49 21ZM11 23L11 24L13 24L13 23ZM17 23L17 24L18 24L18 23ZM50 24L50 26L52 26L52 25L55 25L55 24ZM6 25L6 26L7 26L7 25ZM45 26L45 27L43 27L43 29L41 29L41 30L40 30L40 31L41 31L41 30L43 30L43 32L41 32L41 33L39 33L39 34L40 34L40 35L39 35L39 37L40 37L40 38L41 38L41 39L42 39L42 38L43 38L43 37L44 37L44 38L45 38L45 39L43 39L43 40L41 40L41 43L39 43L39 42L40 42L40 41L39 41L39 42L38 42L38 40L39 40L39 39L38 39L38 37L37 37L37 36L38 36L38 33L37 33L37 32L34 32L34 31L36 31L36 30L33 30L33 33L35 33L35 34L37 34L37 36L35 36L35 35L34 35L34 34L33 34L33 35L34 35L34 37L35 37L35 39L38 39L38 40L35 40L35 42L37 42L37 43L36 43L36 44L35 44L35 43L34 43L34 42L33 42L33 41L32 41L32 40L30 40L30 41L32 41L32 42L33 42L33 43L34 43L34 45L35 45L35 46L36 46L36 45L37 45L37 47L36 47L36 48L35 48L35 49L36 49L36 50L38 50L38 51L37 51L37 52L38 52L38 53L39 53L39 52L38 52L38 51L40 51L40 52L41 52L41 50L42 50L42 52L43 52L43 53L44 53L44 52L45 52L45 51L46 51L46 52L47 52L47 51L46 51L46 50L44 50L44 51L43 51L43 49L44 49L44 48L45 48L45 47L47 47L47 48L46 48L46 49L47 49L47 48L48 48L48 47L50 47L50 46L51 46L51 45L52 45L52 44L51 44L51 43L53 43L53 42L51 42L51 43L50 43L50 46L49 46L49 44L48 44L48 46L45 46L45 45L44 45L44 43L46 43L46 42L44 42L44 41L43 41L43 40L45 40L45 41L47 41L47 39L49 39L49 38L51 38L51 36L52 36L52 35L53 35L53 34L52 34L52 33L53 33L53 32L52 32L52 33L51 33L51 32L50 32L50 34L48 34L48 35L50 35L50 37L49 37L49 36L48 36L48 37L47 37L47 36L46 36L46 35L44 35L44 36L43 36L43 35L42 35L42 34L45 34L45 33L47 33L47 32L48 32L48 33L49 33L49 32L48 32L48 31L47 31L47 30L46 30L46 29L47 29L47 27L46 27L46 26ZM53 26L53 27L54 27L54 26ZM3 27L3 28L4 28L4 27ZM5 27L5 30L8 30L8 27ZM27 27L27 30L30 30L30 27ZM45 27L45 28L44 28L44 31L45 31L45 28L46 28L46 27ZM49 27L49 30L52 30L52 27ZM6 28L6 29L7 29L7 28ZM28 28L28 29L29 29L29 28ZM50 28L50 29L51 29L51 28ZM9 29L9 30L10 30L10 29ZM11 29L11 31L10 31L10 33L9 33L9 31L8 31L8 32L7 32L7 31L6 31L6 32L7 32L7 33L5 33L5 34L7 34L7 35L5 35L5 36L7 36L7 35L9 35L9 34L10 34L10 33L12 33L12 32L13 32L13 31L12 31L12 29ZM38 30L38 32L39 32L39 30ZM43 32L43 33L45 33L45 32ZM8 33L8 34L9 34L9 33ZM21 33L21 35L22 35L22 33ZM54 33L54 34L55 34L55 33ZM1 34L1 35L3 35L3 34ZM50 34L50 35L52 35L52 34ZM40 36L40 37L41 37L41 38L42 38L42 37L41 37L41 36ZM44 36L44 37L45 37L45 38L46 38L46 39L45 39L45 40L46 40L46 39L47 39L47 37L46 37L46 36ZM6 37L6 38L8 38L8 37ZM48 37L48 38L49 38L49 37ZM54 37L54 38L55 38L55 37ZM18 38L18 39L20 39L20 38ZM6 39L6 40L7 40L7 39ZM27 39L27 40L28 40L28 39ZM12 41L12 42L13 42L13 41ZM23 41L23 42L22 42L22 43L21 43L21 44L20 44L20 45L21 45L21 44L22 44L22 45L23 45L23 46L25 46L25 45L23 45L23 44L27 44L27 45L26 45L26 47L27 47L27 45L28 45L28 44L27 44L27 43L23 43L23 42L25 42L25 41ZM26 41L26 42L27 42L27 41ZM43 42L43 43L44 43L44 42ZM11 43L11 44L13 44L13 43ZM41 43L41 44L39 44L39 45L38 45L38 46L39 46L39 47L38 47L38 48L37 48L37 49L38 49L38 50L41 50L41 48L42 48L42 49L43 49L43 48L44 48L44 47L45 47L45 46L44 46L44 45L43 45L43 46L41 46L41 48L39 48L39 47L40 47L40 46L39 46L39 45L41 45L41 44L42 44L42 43ZM1 44L1 45L3 45L3 44ZM1 46L1 47L2 47L2 46ZM3 46L3 47L5 47L5 46ZM42 47L42 48L43 48L43 47ZM6 48L6 49L7 49L7 48ZM20 48L20 49L21 49L21 48ZM38 48L38 49L39 49L39 48ZM53 48L53 49L54 49L54 48ZM55 48L55 50L54 50L54 51L55 51L55 50L56 50L56 48ZM10 49L10 50L9 50L9 51L10 51L10 50L12 50L12 49ZM27 49L27 52L30 52L30 49ZM49 49L49 52L52 52L52 49ZM28 50L28 51L29 51L29 50ZM50 50L50 51L51 51L51 50ZM33 52L33 53L34 53L34 52ZM15 53L15 54L16 54L16 53ZM17 54L17 55L19 55L19 54ZM50 55L50 56L51 56L51 55ZM53 55L53 56L55 56L55 57L56 57L56 56L55 56L55 55ZM14 56L14 57L15 57L15 56ZM0 0L0 7L7 7L7 0ZM1 1L1 6L6 6L6 1ZM2 2L2 5L5 5L5 2ZM50 0L50 7L57 7L57 0ZM51 1L51 6L56 6L56 1ZM52 2L52 5L55 5L55 2ZM0 50L0 57L7 57L7 50ZM1 51L1 56L6 56L6 51ZM2 52L2 55L5 55L5 52Z" fill="#000000"/></g></g></svg>
