<?xml version="1.0" encoding="UTF-8"?>
<svg xmlns="http://www.w3.org/2000/svg" version="1.1" width="300" height="300" viewBox="0 0 300 300"><rect x="0" y="0" width="300" height="300" fill="#fefefe"/><g transform="scale(4.615)"><g transform="translate(4,4)"><path fill-rule="evenodd" d="M8 0L8 2L9 2L9 4L8 4L8 9L7 9L7 8L5 8L5 10L6 10L6 11L5 11L5 12L4 12L4 11L3 11L3 10L2 10L2 9L3 9L3 8L0 8L0 11L1 11L1 13L0 13L0 15L1 15L1 16L3 16L3 15L4 15L4 16L6 16L6 17L4 17L4 18L3 18L3 17L2 17L2 18L0 18L0 21L2 21L2 23L3 23L3 27L2 27L2 26L0 26L0 28L1 28L1 29L3 29L3 28L4 28L4 30L2 30L2 32L1 32L1 33L2 33L2 34L0 34L0 35L1 35L1 36L0 36L0 37L2 37L2 36L3 36L3 37L4 37L4 36L5 36L5 33L4 33L4 35L3 35L3 33L2 33L2 32L4 32L4 31L5 31L5 32L6 32L6 33L7 33L7 32L6 32L6 31L8 31L8 32L9 32L9 33L12 33L12 35L11 35L11 40L12 40L12 41L13 41L13 42L12 42L12 45L10 45L10 44L11 44L11 43L10 43L10 42L11 42L11 41L10 41L10 42L9 42L9 41L8 41L8 40L10 40L10 39L9 39L9 38L8 38L8 37L7 37L7 36L6 36L6 37L5 37L5 39L7 39L7 38L8 38L8 40L5 40L5 41L4 41L4 42L3 42L3 43L4 43L4 42L6 42L6 43L5 43L5 44L2 44L2 43L0 43L0 44L2 44L2 45L5 45L5 44L6 44L6 45L7 45L7 44L9 44L9 45L8 45L8 47L7 47L7 46L5 46L5 47L3 47L3 46L2 46L2 47L1 47L1 45L0 45L0 48L5 48L5 47L7 47L7 48L6 48L6 49L7 49L7 48L8 48L8 50L9 50L9 48L11 48L11 50L10 50L10 52L9 52L9 51L8 51L8 52L9 52L9 53L10 53L10 54L8 54L8 57L9 57L9 55L10 55L10 56L11 56L11 57L13 57L13 56L11 56L11 55L12 55L12 53L13 53L13 52L14 52L14 54L13 54L13 55L14 55L14 56L16 56L16 57L17 57L17 55L18 55L18 53L19 53L19 52L20 52L20 53L21 53L21 54L20 54L20 55L21 55L21 56L22 56L22 57L25 57L25 56L26 56L26 57L28 57L28 55L29 55L29 57L33 57L33 55L34 55L34 57L35 57L35 55L37 55L37 54L36 54L36 53L37 53L37 52L38 52L38 53L39 53L39 56L40 56L40 57L41 57L41 56L42 56L42 57L43 57L43 54L42 54L42 53L43 53L43 52L44 52L44 55L46 55L46 56L44 56L44 57L46 57L46 56L47 56L47 57L50 57L50 55L49 55L49 54L52 54L52 55L53 55L53 56L51 56L51 57L53 57L53 56L54 56L54 55L57 55L57 54L55 54L55 52L54 52L54 51L53 51L53 50L54 50L54 45L53 45L53 48L51 48L51 46L52 46L52 45L50 45L50 44L52 44L52 40L53 40L53 44L54 44L54 43L55 43L55 42L54 42L54 41L56 41L56 44L55 44L55 45L56 45L56 47L55 47L55 50L56 50L56 51L57 51L57 50L56 50L56 47L57 47L57 45L56 45L56 44L57 44L57 40L54 40L54 39L55 39L55 38L57 38L57 36L56 36L56 35L57 35L57 33L56 33L56 31L57 31L57 29L55 29L55 30L56 30L56 31L55 31L55 32L54 32L54 31L53 31L53 28L54 28L54 27L55 27L55 26L54 26L54 25L55 25L55 24L56 24L56 27L57 27L57 24L56 24L56 23L57 23L57 20L56 20L56 19L57 19L57 18L56 18L56 17L57 17L57 13L56 13L56 15L55 15L55 14L54 14L54 15L53 15L53 16L52 16L52 18L51 18L51 19L50 19L50 17L51 17L51 16L50 16L50 13L52 13L52 14L51 14L51 15L52 15L52 14L53 14L53 12L54 12L54 11L55 11L55 10L56 10L56 11L57 11L57 10L56 10L56 9L57 9L57 8L55 8L55 9L54 9L54 10L53 10L53 11L52 11L52 12L51 12L51 10L52 10L52 9L53 9L53 8L48 8L48 7L49 7L49 6L48 6L48 7L47 7L47 5L48 5L48 0L46 0L46 1L45 1L45 0L42 0L42 1L41 1L41 0L38 0L38 2L37 2L37 1L35 1L35 0L34 0L34 2L33 2L33 6L32 6L32 7L33 7L33 6L34 6L34 8L32 8L32 9L31 9L31 5L32 5L32 1L33 1L33 0L32 0L32 1L31 1L31 0L30 0L30 3L31 3L31 4L26 4L26 3L27 3L27 0L26 0L26 1L25 1L25 0L24 0L24 1L23 1L23 0L20 0L20 1L19 1L19 0L18 0L18 1L17 1L17 0L16 0L16 2L15 2L15 1L14 1L14 0L11 0L11 1L12 1L12 2L11 2L11 3L10 3L10 2L9 2L9 0ZM28 0L28 2L29 2L29 0ZM13 1L13 2L12 2L12 3L11 3L11 4L9 4L9 9L8 9L8 12L9 12L9 15L8 15L8 13L6 13L6 12L7 12L7 11L6 11L6 12L5 12L5 13L4 13L4 14L5 14L5 15L6 15L6 16L7 16L7 17L6 17L6 18L4 18L4 19L2 19L2 20L3 20L3 21L4 21L4 22L3 22L3 23L4 23L4 26L7 26L7 25L6 25L6 24L8 24L8 26L10 26L10 27L9 27L9 28L11 28L11 30L9 30L9 32L12 32L12 33L13 33L13 34L14 34L14 32L15 32L15 30L17 30L17 31L16 31L16 32L19 32L19 35L18 35L18 36L17 36L17 37L16 37L16 35L15 35L15 36L12 36L12 37L13 37L13 39L14 39L14 37L15 37L15 40L13 40L13 41L14 41L14 42L13 42L13 43L14 43L14 42L15 42L15 40L17 40L17 41L16 41L16 43L15 43L15 44L13 44L13 45L12 45L12 46L10 46L10 45L9 45L9 46L10 46L10 47L11 47L11 48L14 48L14 49L13 49L13 50L14 50L14 51L15 51L15 52L17 52L17 53L18 53L18 52L19 52L19 51L17 51L17 50L18 50L18 48L19 48L19 49L20 49L20 50L22 50L22 48L23 48L23 49L24 49L24 51L23 51L23 52L24 52L24 51L25 51L25 53L26 53L26 54L24 54L24 55L26 55L26 54L27 54L27 55L28 55L28 53L26 53L26 48L27 48L27 46L26 46L26 45L25 45L25 44L24 44L24 47L23 47L23 44L22 44L22 43L23 43L23 41L22 41L22 40L24 40L24 43L25 43L25 42L26 42L26 41L25 41L25 40L28 40L28 43L27 43L27 44L28 44L28 43L29 43L29 45L28 45L28 46L29 46L29 47L28 47L28 48L29 48L29 47L30 47L30 48L31 48L31 49L32 49L32 50L33 50L33 51L34 51L34 52L35 52L35 53L34 53L34 55L35 55L35 53L36 53L36 52L35 52L35 51L37 51L37 49L36 49L36 48L37 48L37 47L38 47L38 52L39 52L39 53L40 53L40 52L39 52L39 49L40 49L40 51L41 51L41 49L42 49L42 50L43 50L43 51L42 51L42 52L41 52L41 53L42 53L42 52L43 52L43 51L44 51L44 50L43 50L43 49L44 49L44 46L43 46L43 45L44 45L44 44L45 44L45 43L47 43L47 44L46 44L46 47L47 47L47 46L48 46L48 45L49 45L49 47L50 47L50 45L49 45L49 44L50 44L50 42L49 42L49 41L51 41L51 40L52 40L52 39L53 39L53 37L54 37L54 38L55 38L55 37L56 37L56 36L55 36L55 33L54 33L54 32L52 32L52 31L50 31L50 33L49 33L49 36L50 36L50 37L52 37L52 39L51 39L51 40L48 40L48 38L47 38L47 37L46 37L46 36L45 36L45 37L46 37L46 38L47 38L47 40L48 40L48 41L46 41L46 39L45 39L45 41L46 41L46 42L44 42L44 39L43 39L43 38L44 38L44 35L43 35L43 33L42 33L42 31L45 31L45 32L46 32L46 34L48 34L48 33L47 33L47 30L48 30L48 26L49 26L49 25L50 25L50 26L52 26L52 24L53 24L53 22L54 22L54 24L55 24L55 23L56 23L56 21L55 21L55 19L56 19L56 18L55 18L55 19L54 19L54 17L56 17L56 16L55 16L55 15L54 15L54 17L53 17L53 18L52 18L52 19L51 19L51 20L49 20L49 17L48 17L48 18L47 18L47 16L46 16L46 15L48 15L48 14L49 14L49 13L50 13L50 10L51 10L51 9L50 9L50 10L49 10L49 9L48 9L48 10L49 10L49 12L48 12L48 14L47 14L47 13L46 13L46 11L47 11L47 8L46 8L46 6L45 6L45 5L44 5L44 4L45 4L45 1L42 1L42 3L41 3L41 2L40 2L40 1L39 1L39 2L40 2L40 4L39 4L39 5L38 5L38 4L37 4L37 2L35 2L35 3L34 3L34 4L35 4L35 9L34 9L34 10L33 10L33 9L32 9L32 12L30 12L30 10L31 10L31 9L30 9L30 10L29 10L29 12L30 12L30 13L29 13L29 15L28 15L28 14L27 14L27 12L28 12L28 11L27 11L27 10L25 10L25 9L26 9L26 5L24 5L24 6L23 6L23 9L22 9L22 4L23 4L23 3L22 3L22 2L23 2L23 1L22 1L22 2L21 2L21 3L19 3L19 1L18 1L18 2L17 2L17 3L16 3L16 4L17 4L17 5L16 5L16 6L15 6L15 5L13 5L13 4L12 4L12 3L14 3L14 4L15 4L15 3L14 3L14 1ZM24 1L24 4L25 4L25 1ZM46 1L46 2L47 2L47 1ZM43 2L43 3L42 3L42 5L43 5L43 6L42 6L42 7L41 7L41 6L40 6L40 7L39 7L39 6L38 6L38 9L37 9L37 6L36 6L36 10L34 10L34 11L33 11L33 12L32 12L32 14L31 14L31 15L32 15L32 14L33 14L33 15L34 15L34 17L33 17L33 16L32 16L32 18L31 18L31 19L30 19L30 20L32 20L32 21L33 21L33 22L31 22L31 23L30 23L30 25L29 25L29 23L28 23L28 22L30 22L30 21L29 21L29 20L28 20L28 19L27 19L27 16L26 16L26 15L27 15L27 14L26 14L26 15L25 15L25 16L26 16L26 19L25 19L25 18L24 18L24 16L22 16L22 14L21 14L21 18L22 18L22 19L21 19L21 20L20 20L20 21L21 21L21 22L20 22L20 23L21 23L21 26L20 26L20 25L19 25L19 24L18 24L18 25L19 25L19 26L20 26L20 27L18 27L18 28L20 28L20 29L19 29L19 30L18 30L18 31L19 31L19 32L21 32L21 30L22 30L22 33L23 33L23 35L25 35L25 36L24 36L24 37L26 37L26 38L24 38L24 39L26 39L26 38L27 38L27 37L26 37L26 34L28 34L28 35L27 35L27 36L28 36L28 37L29 37L29 36L28 36L28 35L31 35L31 36L30 36L30 40L29 40L29 41L30 41L30 40L31 40L31 38L34 38L34 41L33 41L33 40L32 40L32 45L33 45L33 47L32 47L32 49L33 49L33 48L34 48L34 45L33 45L33 44L36 44L36 45L37 45L37 46L36 46L36 47L37 47L37 46L38 46L38 45L37 45L37 44L40 44L40 45L39 45L39 47L40 47L40 49L41 49L41 47L42 47L42 45L43 45L43 44L42 44L42 45L41 45L41 43L44 43L44 42L42 42L42 40L43 40L43 39L42 39L42 40L40 40L40 41L41 41L41 42L40 42L40 43L37 43L37 44L36 44L36 41L37 41L37 42L38 42L38 41L39 41L39 38L40 38L40 39L41 39L41 36L42 36L42 35L40 35L40 36L39 36L39 38L38 38L38 37L37 37L37 36L38 36L38 35L39 35L39 34L38 34L38 33L39 33L39 32L40 32L40 34L42 34L42 33L41 33L41 32L40 32L40 30L41 30L41 31L42 31L42 28L43 28L43 30L44 30L44 29L46 29L46 28L47 28L47 26L48 26L48 24L50 24L50 25L51 25L51 24L50 24L50 22L49 22L49 23L48 23L48 21L49 21L49 20L48 20L48 19L47 19L47 20L48 20L48 21L47 21L47 23L46 23L46 19L44 19L44 17L46 17L46 16L44 16L44 15L46 15L46 13L45 13L45 12L44 12L44 10L45 10L45 11L46 11L46 8L44 8L44 7L45 7L45 6L44 6L44 5L43 5L43 4L44 4L44 2ZM17 3L17 4L18 4L18 7L17 7L17 6L16 6L16 7L17 7L17 8L18 8L18 9L17 9L17 10L16 10L16 12L17 12L17 14L15 14L15 15L17 15L17 14L18 14L18 19L17 19L17 20L16 20L16 17L17 17L17 16L16 16L16 17L15 17L15 16L14 16L14 14L13 14L13 15L12 15L12 16L11 16L11 18L12 18L12 19L9 19L9 18L8 18L8 19L9 19L9 20L8 20L8 21L7 21L7 20L6 20L6 19L7 19L7 18L6 18L6 19L5 19L5 21L7 21L7 22L6 22L6 23L7 23L7 22L10 22L10 23L9 23L9 24L10 24L10 26L11 26L11 27L12 27L12 28L16 28L16 27L14 27L14 26L13 26L13 27L12 27L12 25L15 25L15 26L16 26L16 25L17 25L17 23L16 23L16 22L18 22L18 23L19 23L19 19L20 19L20 16L19 16L19 15L20 15L20 13L21 13L21 12L20 12L20 11L19 11L19 10L20 10L20 9L21 9L21 5L20 5L20 7L19 7L19 4L18 4L18 3ZM21 3L21 4L22 4L22 3ZM35 3L35 4L36 4L36 3ZM46 3L46 5L47 5L47 3ZM11 4L11 6L10 6L10 9L9 9L9 12L10 12L10 13L12 13L12 12L11 12L11 8L12 8L12 7L13 7L13 6L12 6L12 4ZM27 5L27 8L30 8L30 5ZM11 6L11 7L12 7L12 6ZM14 6L14 7L15 7L15 6ZM24 6L24 7L25 7L25 6ZM28 6L28 7L29 7L29 6ZM43 6L43 7L42 7L42 8L43 8L43 9L42 9L42 10L41 10L41 12L42 12L42 15L41 15L41 13L40 13L40 15L39 15L39 12L37 12L37 11L38 11L38 10L39 10L39 11L40 11L40 10L39 10L39 9L40 9L40 8L41 8L41 7L40 7L40 8L39 8L39 9L38 9L38 10L37 10L37 11L36 11L36 12L35 12L35 11L34 11L34 12L35 12L35 13L34 13L34 15L35 15L35 17L34 17L34 19L33 19L33 20L34 20L34 22L35 22L35 23L36 23L36 24L34 24L34 23L33 23L33 24L34 24L34 26L33 26L33 25L32 25L32 23L31 23L31 25L30 25L30 26L31 26L31 25L32 25L32 28L31 28L31 30L32 30L32 32L30 32L30 34L31 34L31 35L34 35L34 34L35 34L35 33L36 33L36 35L35 35L35 36L34 36L34 38L35 38L35 41L34 41L34 42L35 42L35 41L36 41L36 38L37 38L37 37L36 37L36 35L38 35L38 34L37 34L37 33L36 33L36 31L37 31L37 32L38 32L38 31L39 31L39 30L40 30L40 28L41 28L41 25L40 25L40 24L39 24L39 23L41 23L41 24L42 24L42 27L43 27L43 25L44 25L44 27L46 27L46 26L47 26L47 25L46 25L46 26L45 26L45 25L44 25L44 24L46 24L46 23L44 23L44 22L45 22L45 21L44 21L44 19L42 19L42 20L43 20L43 21L42 21L42 23L41 23L41 22L40 22L40 19L41 19L41 18L40 18L40 15L41 15L41 17L42 17L42 18L43 18L43 17L44 17L44 16L43 16L43 14L45 14L45 13L44 13L44 12L42 12L42 10L44 10L44 8L43 8L43 7L44 7L44 6ZM18 7L18 8L19 8L19 9L18 9L18 10L19 10L19 9L20 9L20 8L19 8L19 7ZM14 8L14 9L12 9L12 11L13 11L13 10L14 10L14 9L15 9L15 8ZM6 9L6 10L7 10L7 9ZM23 9L23 10L24 10L24 11L22 11L22 12L24 12L24 13L23 13L23 15L24 15L24 13L26 13L26 11L25 11L25 10L24 10L24 9ZM2 11L2 13L1 13L1 14L2 14L2 15L3 15L3 11ZM14 11L14 12L15 12L15 11ZM18 11L18 12L19 12L19 13L18 13L18 14L19 14L19 13L20 13L20 12L19 12L19 11ZM36 12L36 13L35 13L35 14L36 14L36 13L37 13L37 15L36 15L36 18L35 18L35 20L36 20L36 21L35 21L35 22L36 22L36 23L37 23L37 22L38 22L38 23L39 23L39 22L38 22L38 21L37 21L37 20L39 20L39 19L40 19L40 18L38 18L38 16L37 16L37 15L38 15L38 13L37 13L37 12ZM6 14L6 15L7 15L7 16L8 16L8 15L7 15L7 14ZM10 14L10 15L11 15L11 14ZM29 15L29 16L30 16L30 17L28 17L28 18L30 18L30 17L31 17L31 16L30 16L30 15ZM12 16L12 18L13 18L13 17L14 17L14 16ZM36 18L36 19L37 19L37 18ZM12 19L12 20L11 20L11 21L10 21L10 22L11 22L11 25L12 25L12 24L14 24L14 23L12 23L12 22L11 22L11 21L12 21L12 20L13 20L13 19ZM14 19L14 20L15 20L15 19ZM22 19L22 20L21 20L21 21L22 21L22 20L23 20L23 19ZM24 19L24 20L25 20L25 19ZM26 19L26 20L27 20L27 22L26 22L26 23L27 23L27 25L26 25L26 26L27 26L27 25L28 25L28 23L27 23L27 22L28 22L28 20L27 20L27 19ZM53 19L53 20L52 20L52 22L51 22L51 23L52 23L52 22L53 22L53 21L54 21L54 22L55 22L55 21L54 21L54 19ZM14 21L14 22L15 22L15 21ZM36 21L36 22L37 22L37 21ZM43 21L43 22L44 22L44 21ZM0 22L0 24L1 24L1 25L2 25L2 24L1 24L1 22ZM4 22L4 23L5 23L5 22ZM21 22L21 23L22 23L22 24L23 24L23 22ZM24 22L24 23L25 23L25 22ZM42 23L42 24L44 24L44 23ZM15 24L15 25L16 25L16 24ZM36 24L36 26L37 26L37 27L36 27L36 30L35 30L35 31L36 31L36 30L37 30L37 31L38 31L38 30L37 30L37 28L38 28L38 29L39 29L39 28L40 28L40 25L39 25L39 26L38 26L38 25L37 25L37 24ZM24 25L24 26L23 26L23 27L22 27L22 28L24 28L24 30L23 30L23 29L22 29L22 30L23 30L23 32L24 32L24 34L26 34L26 33L28 33L28 34L29 34L29 31L28 31L28 32L26 32L26 30L25 30L25 28L24 28L24 27L25 27L25 25ZM5 27L5 30L8 30L8 27ZM27 27L27 30L30 30L30 27ZM34 27L34 29L33 29L33 28L32 28L32 29L33 29L33 31L34 31L34 29L35 29L35 27ZM49 27L49 30L52 30L52 27ZM6 28L6 29L7 29L7 28ZM28 28L28 29L29 29L29 28ZM50 28L50 29L51 29L51 28ZM12 29L12 30L11 30L11 31L12 31L12 30L13 30L13 32L14 32L14 30L13 30L13 29ZM20 29L20 30L21 30L21 29ZM24 30L24 32L25 32L25 33L26 33L26 32L25 32L25 30ZM45 30L45 31L46 31L46 30ZM32 32L32 33L31 33L31 34L32 34L32 33L33 33L33 34L34 34L34 33L33 33L33 32ZM16 33L16 34L17 34L17 33ZM50 33L50 36L51 36L51 33ZM6 34L6 35L7 35L7 34ZM9 34L9 37L10 37L10 34ZM20 34L20 35L19 35L19 36L18 36L18 37L17 37L17 38L16 38L16 39L17 39L17 40L18 40L18 41L17 41L17 43L16 43L16 45L13 45L13 46L14 46L14 48L15 48L15 51L16 51L16 49L17 49L17 48L18 48L18 47L20 47L20 49L21 49L21 48L22 48L22 46L20 46L20 44L21 44L21 43L20 43L20 41L21 41L21 42L22 42L22 41L21 41L21 40L22 40L22 39L23 39L23 36L22 36L22 34ZM53 34L53 36L52 36L52 37L53 37L53 36L54 36L54 37L55 37L55 36L54 36L54 34ZM20 35L20 36L21 36L21 38L20 38L20 39L21 39L21 38L22 38L22 36L21 36L21 35ZM47 35L47 36L48 36L48 35ZM31 36L31 37L32 37L32 36ZM6 37L6 38L7 38L7 37ZM18 37L18 40L19 40L19 37ZM35 37L35 38L36 38L36 37ZM0 38L0 41L2 41L2 40L1 40L1 38ZM28 38L28 39L29 39L29 38ZM37 39L37 41L38 41L38 39ZM6 41L6 42L7 42L7 43L6 43L6 44L7 44L7 43L9 43L9 44L10 44L10 43L9 43L9 42L7 42L7 41ZM30 42L30 45L29 45L29 46L30 46L30 47L31 47L31 42ZM18 43L18 44L20 44L20 43ZM48 43L48 44L47 44L47 45L48 45L48 44L49 44L49 43ZM16 45L16 46L15 46L15 47L16 47L16 48L17 48L17 47L18 47L18 46L19 46L19 45L18 45L18 46L17 46L17 45ZM40 45L40 47L41 47L41 45ZM16 46L16 47L17 47L17 46ZM25 46L25 47L26 47L26 46ZM8 47L8 48L9 48L9 47ZM45 48L45 49L46 49L46 50L47 50L47 48ZM27 49L27 52L30 52L30 49ZM49 49L49 52L52 52L52 49ZM28 50L28 51L29 51L29 50ZM50 50L50 51L51 51L51 50ZM11 51L11 52L10 52L10 53L11 53L11 52L13 52L13 51ZM31 51L31 52L32 52L32 51ZM47 51L47 52L45 52L45 53L46 53L46 54L47 54L47 56L48 56L48 54L49 54L49 53L47 53L47 52L48 52L48 51ZM21 52L21 53L22 53L22 56L23 56L23 53L22 53L22 52ZM56 52L56 53L57 53L57 52ZM31 53L31 54L30 54L30 55L33 55L33 54L32 54L32 53ZM16 54L16 55L17 55L17 54ZM40 54L40 56L41 56L41 55L42 55L42 54ZM53 54L53 55L54 55L54 54ZM18 56L18 57L19 57L19 56ZM36 56L36 57L37 57L37 56ZM56 56L56 57L57 57L57 56ZM0 0L0 7L7 7L7 0ZM1 1L1 6L6 6L6 1ZM2 2L2 5L5 5L5 2ZM50 0L50 7L57 7L57 0ZM51 1L51 6L56 6L56 1ZM52 2L52 5L55 5L55 2ZM0 50L0 57L7 57L7 50ZM1 51L1 56L6 56L6 51ZM2 52L2 55L5 55L5 52Z" fill="#000000"/></g></g></svg>
