<?xml version="1.0" encoding="UTF-8"?>
<svg xmlns="http://www.w3.org/2000/svg" version="1.1" width="300" height="300" viewBox="0 0 300 300"><rect x="0" y="0" width="300" height="300" fill="#fefefe"/><g transform="scale(4.615)"><g transform="translate(4,4)"><path fill-rule="evenodd" d="M8 0L8 2L10 2L10 4L11 4L11 5L12 5L12 4L13 4L13 5L15 5L15 6L14 6L14 7L13 7L13 6L12 6L12 7L13 7L13 8L11 8L11 6L10 6L10 7L9 7L9 4L8 4L8 9L9 9L9 10L6 10L6 11L4 11L4 10L5 10L5 9L7 9L7 8L5 8L5 9L4 9L4 10L3 10L3 11L4 11L4 12L2 12L2 9L3 9L3 8L0 8L0 10L1 10L1 11L0 11L0 12L1 12L1 13L2 13L2 14L3 14L3 15L1 15L1 16L3 16L3 17L2 17L2 18L0 18L0 19L3 19L3 21L2 21L2 20L0 20L0 25L1 25L1 21L2 21L2 22L3 22L3 23L4 23L4 25L2 25L2 26L3 26L3 27L1 27L1 26L0 26L0 27L1 27L1 28L2 28L2 30L0 30L0 32L1 32L1 33L0 33L0 34L2 34L2 33L3 33L3 32L4 32L4 31L7 31L7 32L6 32L6 33L7 33L7 34L6 34L6 35L5 35L5 36L4 36L4 38L3 38L3 36L2 36L2 35L1 35L1 37L0 37L0 38L3 38L3 39L9 39L9 37L11 37L11 38L10 38L10 39L11 39L11 40L9 40L9 41L8 41L8 42L9 42L9 43L8 43L8 44L6 44L6 43L7 43L7 42L6 42L6 41L7 41L7 40L6 40L6 41L4 41L4 40L3 40L3 41L1 41L1 39L0 39L0 41L1 41L1 42L4 42L4 44L6 44L6 45L7 45L7 46L5 46L5 45L3 45L3 43L1 43L1 44L2 44L2 45L1 45L1 46L0 46L0 48L5 48L5 47L8 47L8 48L6 48L6 49L8 49L8 50L9 50L9 51L8 51L8 52L9 52L9 53L10 53L10 57L11 57L11 56L12 56L12 57L13 57L13 55L11 55L11 54L14 54L14 53L15 53L15 56L14 56L14 57L17 57L17 56L18 56L18 57L20 57L20 56L19 56L19 54L18 54L18 53L19 53L19 50L20 50L20 49L19 49L19 46L18 46L18 45L19 45L19 44L21 44L21 42L22 42L22 41L23 41L23 43L22 43L22 44L23 44L23 46L24 46L24 47L23 47L23 48L22 48L22 46L21 46L21 47L20 47L20 48L22 48L22 50L21 50L21 51L20 51L20 53L21 53L21 52L22 52L22 54L20 54L20 55L21 55L21 56L22 56L22 57L23 57L23 56L24 56L24 57L25 57L25 56L26 56L26 57L28 57L28 55L29 55L29 57L33 57L33 55L30 55L30 54L31 54L31 53L32 53L32 54L34 54L34 57L35 57L35 55L38 55L38 52L37 52L37 51L38 51L38 47L37 47L37 48L36 48L36 49L37 49L37 51L35 51L35 50L34 50L34 49L33 49L33 47L34 47L34 48L35 48L35 47L36 47L36 46L38 46L38 45L37 45L37 44L39 44L39 43L40 43L40 46L41 46L41 47L40 47L40 49L39 49L39 52L40 52L40 53L39 53L39 57L41 57L41 56L42 56L42 57L43 57L43 54L42 54L42 53L43 53L43 52L44 52L44 55L45 55L45 54L46 54L46 55L47 55L47 54L46 54L46 52L47 52L47 53L49 53L49 54L48 54L48 56L47 56L47 57L48 57L48 56L49 56L49 57L50 57L50 55L49 55L49 54L52 54L52 55L53 55L53 56L51 56L51 57L54 57L54 54L55 54L55 55L57 55L57 54L55 54L55 53L57 53L57 49L56 49L56 47L57 47L57 44L56 44L56 47L55 47L55 51L56 51L56 52L54 52L54 51L53 51L53 50L54 50L54 45L53 45L53 46L52 46L52 45L51 45L51 44L52 44L52 40L53 40L53 44L54 44L54 43L55 43L55 42L54 42L54 41L57 41L57 40L54 40L54 39L55 39L55 38L57 38L57 34L56 34L56 31L57 31L57 29L56 29L56 27L57 27L57 24L56 24L56 23L57 23L57 18L56 18L56 20L55 20L55 21L54 21L54 19L55 19L55 17L54 17L54 14L55 14L55 13L56 13L56 15L55 15L55 16L56 16L56 17L57 17L57 10L56 10L56 11L55 11L55 9L57 9L57 8L55 8L55 9L54 9L54 10L52 10L52 9L53 9L53 8L49 8L49 6L48 6L48 7L47 7L47 5L48 5L48 0L42 0L42 1L41 1L41 0L38 0L38 2L39 2L39 4L38 4L38 3L37 3L37 4L38 4L38 5L37 5L37 6L36 6L36 10L34 10L34 9L35 9L35 4L36 4L36 3L35 3L35 4L34 4L34 3L33 3L33 6L32 6L32 7L33 7L33 6L34 6L34 8L32 8L32 9L31 9L31 5L32 5L32 2L31 2L31 1L32 1L32 0L29 0L29 1L28 1L28 0L26 0L26 2L25 2L25 4L24 4L24 1L25 1L25 0L24 0L24 1L23 1L23 0L20 0L20 1L19 1L19 2L18 2L18 3L19 3L19 2L20 2L20 3L21 3L21 4L22 4L22 5L20 5L20 7L19 7L19 5L17 5L17 4L16 4L16 2L17 2L17 1L18 1L18 0L16 0L16 2L15 2L15 1L14 1L14 0L11 0L11 1L10 1L10 0ZM34 0L34 2L37 2L37 1L35 1L35 0ZM11 1L11 3L12 3L12 2L13 2L13 3L14 3L14 4L15 4L15 3L14 3L14 1ZM20 1L20 2L22 2L22 1ZM27 1L27 3L26 3L26 4L27 4L27 3L28 3L28 4L30 4L30 3L31 3L31 2L30 2L30 3L29 3L29 2L28 2L28 1ZM39 1L39 2L40 2L40 4L39 4L39 5L38 5L38 6L37 6L37 7L38 7L38 6L39 6L39 8L38 8L38 10L37 10L37 11L34 11L34 10L33 10L33 9L32 9L32 11L31 11L31 9L30 9L30 11L29 11L29 10L28 10L28 9L27 9L27 10L25 10L25 9L26 9L26 5L24 5L24 6L23 6L23 7L22 7L22 6L21 6L21 7L22 7L22 8L21 8L21 9L20 9L20 10L21 10L21 11L20 11L20 12L19 12L19 11L18 11L18 12L19 12L19 13L18 13L18 15L15 15L15 14L17 14L17 11L16 11L16 10L17 10L17 9L18 9L18 10L19 10L19 9L18 9L18 6L17 6L17 5L16 5L16 6L15 6L15 7L14 7L14 8L13 8L13 11L12 11L12 12L13 12L13 15L12 15L12 16L10 16L10 17L9 17L9 15L8 15L8 14L9 14L9 13L10 13L10 14L11 14L11 10L12 10L12 9L11 9L11 10L9 10L9 11L8 11L8 12L7 12L7 11L6 11L6 12L5 12L5 14L4 14L4 13L3 13L3 14L4 14L4 16L7 16L7 15L8 15L8 17L9 17L9 19L8 19L8 18L7 18L7 17L6 17L6 18L7 18L7 19L5 19L5 20L4 20L4 21L3 21L3 22L5 22L5 24L11 24L11 23L6 23L6 22L7 22L7 21L6 21L6 22L5 22L5 20L7 20L7 19L8 19L8 20L9 20L9 19L10 19L10 20L13 20L13 18L12 18L12 17L14 17L14 18L15 18L15 17L16 17L16 19L14 19L14 20L16 20L16 19L17 19L17 21L18 21L18 22L16 22L16 23L17 23L17 25L16 25L16 24L15 24L15 25L14 25L14 24L13 24L13 21L12 21L12 24L13 24L13 26L14 26L14 27L12 27L12 28L11 28L11 26L12 26L12 25L9 25L9 29L10 29L10 28L11 28L11 29L12 29L12 28L13 28L13 29L14 29L14 27L16 27L16 28L15 28L15 30L17 30L17 31L16 31L16 32L17 32L17 33L16 33L16 36L14 36L14 38L13 38L13 37L12 37L12 38L11 38L11 39L12 39L12 38L13 38L13 39L14 39L14 38L15 38L15 40L17 40L17 39L18 39L18 40L19 40L19 41L20 41L20 42L19 42L19 43L18 43L18 44L19 44L19 43L20 43L20 42L21 42L21 41L22 41L22 40L24 40L24 43L23 43L23 44L24 44L24 46L26 46L26 47L24 47L24 48L23 48L23 49L24 49L24 51L23 51L23 50L22 50L22 52L24 52L24 51L25 51L25 52L26 52L26 50L25 50L25 49L26 49L26 48L31 48L31 52L32 52L32 48L31 48L31 47L32 47L32 46L33 46L33 45L34 45L34 47L35 47L35 46L36 46L36 44L37 44L37 43L39 43L39 42L40 42L40 40L41 40L41 39L40 39L40 38L39 38L39 36L40 36L40 35L41 35L41 36L42 36L42 40L43 40L43 41L42 41L42 42L43 42L43 43L41 43L41 45L42 45L42 47L41 47L41 49L40 49L40 51L41 51L41 49L42 49L42 50L43 50L43 49L44 49L44 50L45 50L45 52L46 52L46 51L47 51L47 52L48 52L48 51L47 51L47 47L48 47L48 46L49 46L49 48L52 48L52 47L50 47L50 42L49 42L49 41L51 41L51 40L48 40L48 38L47 38L47 37L46 37L46 38L45 38L45 39L46 39L46 38L47 38L47 40L48 40L48 41L46 41L46 40L45 40L45 41L44 41L44 40L43 40L43 38L44 38L44 34L45 34L45 35L46 35L46 34L48 34L48 36L50 36L50 38L49 38L49 39L50 39L50 38L51 38L51 36L53 36L53 37L52 37L52 38L53 38L53 37L54 37L54 38L55 38L55 37L54 37L54 36L55 36L55 35L56 35L56 34L55 34L55 33L54 33L54 32L55 32L55 31L56 31L56 30L55 30L55 27L54 27L54 28L53 28L53 29L54 29L54 30L55 30L55 31L54 31L54 32L53 32L53 31L49 31L49 32L50 32L50 33L49 33L49 34L48 34L48 33L47 33L47 32L46 32L46 31L47 31L47 28L48 28L48 26L49 26L49 25L48 25L48 24L47 24L47 25L46 25L46 23L47 23L47 20L48 20L48 23L49 23L49 22L50 22L50 23L51 23L51 24L50 24L50 26L53 26L53 25L54 25L54 26L55 26L55 25L56 25L56 24L55 24L55 23L56 23L56 21L55 21L55 22L52 22L52 20L53 20L53 19L54 19L54 17L53 17L53 18L51 18L51 17L52 17L52 16L53 16L53 14L54 14L54 13L55 13L55 11L54 11L54 12L53 12L53 14L52 14L52 13L50 13L50 11L51 11L51 12L52 12L52 11L51 11L51 9L50 9L50 11L49 11L49 8L48 8L48 14L47 14L47 13L46 13L46 11L47 11L47 9L46 9L46 8L47 8L47 7L46 7L46 6L45 6L45 5L44 5L44 4L45 4L45 1L42 1L42 4L41 4L41 2L40 2L40 1ZM46 1L46 2L47 2L47 1ZM43 2L43 4L42 4L42 5L41 5L41 6L40 6L40 7L41 7L41 8L40 8L40 9L41 9L41 10L39 10L39 11L37 11L37 12L36 12L36 14L35 14L35 15L34 15L34 13L35 13L35 12L34 12L34 11L32 11L32 14L33 14L33 15L31 15L31 16L30 16L30 15L29 15L29 13L30 13L30 12L31 12L31 11L30 11L30 12L29 12L29 11L28 11L28 10L27 10L27 11L28 11L28 12L27 12L27 14L26 14L26 15L25 15L25 16L26 16L26 17L25 17L25 18L24 18L24 16L22 16L22 14L20 14L20 13L21 13L21 12L20 12L20 13L19 13L19 14L20 14L20 15L18 15L18 18L17 18L17 19L18 19L18 21L19 21L19 19L20 19L20 21L21 21L21 19L20 19L20 17L21 17L21 18L22 18L22 22L23 22L23 24L22 24L22 23L21 23L21 22L20 22L20 23L21 23L21 26L20 26L20 27L21 27L21 30L18 30L18 31L21 31L21 30L22 30L22 33L23 33L23 35L22 35L22 34L20 34L20 32L18 32L18 33L19 33L19 36L18 36L18 34L17 34L17 36L16 36L16 37L17 37L17 38L16 38L16 39L17 39L17 38L19 38L19 40L20 40L20 41L21 41L21 40L22 40L22 39L23 39L23 38L22 38L22 37L23 37L23 35L25 35L25 36L24 36L24 37L25 37L25 36L26 36L26 34L28 34L28 35L27 35L27 36L28 36L28 37L29 37L29 36L28 36L28 35L31 35L31 36L30 36L30 40L25 40L25 41L26 41L26 42L25 42L25 45L26 45L26 46L27 46L27 47L28 47L28 45L29 45L29 46L30 46L30 47L31 47L31 46L32 46L32 45L33 45L33 44L35 44L35 43L36 43L36 41L37 41L37 42L38 42L38 41L39 41L39 38L38 38L38 36L39 36L39 34L38 34L38 33L39 33L39 32L40 32L40 34L42 34L42 33L43 33L43 34L44 34L44 33L45 33L45 34L46 34L46 33L45 33L45 31L46 31L46 30L45 30L45 31L42 31L42 28L43 28L43 30L44 30L44 29L46 29L46 28L47 28L47 26L48 26L48 25L47 25L47 26L46 26L46 25L45 25L45 24L44 24L44 23L46 23L46 19L48 19L48 17L49 17L49 20L51 20L51 18L50 18L50 17L49 17L49 16L50 16L50 13L49 13L49 14L48 14L48 15L47 15L47 16L46 16L46 13L45 13L45 12L44 12L44 10L46 10L46 9L45 9L45 8L46 8L46 7L45 7L45 6L44 6L44 5L43 5L43 4L44 4L44 2ZM22 3L22 4L23 4L23 3ZM46 3L46 5L47 5L47 3ZM27 5L27 8L30 8L30 5ZM42 5L42 6L41 6L41 7L42 7L42 8L41 8L41 9L42 9L42 10L44 10L44 8L45 8L45 7L44 7L44 6L43 6L43 5ZM16 6L16 7L17 7L17 6ZM24 6L24 7L25 7L25 6ZM28 6L28 7L29 7L29 6ZM42 6L42 7L43 7L43 6ZM9 8L9 9L10 9L10 8ZM14 8L14 9L15 9L15 8ZM22 8L22 9L23 9L23 10L24 10L24 11L22 11L22 12L24 12L24 13L23 13L23 14L24 14L24 13L26 13L26 11L25 11L25 10L24 10L24 8ZM9 11L9 12L8 12L8 13L7 13L7 12L6 12L6 13L7 13L7 14L5 14L5 15L7 15L7 14L8 14L8 13L9 13L9 12L10 12L10 11ZM14 11L14 12L15 12L15 11ZM39 11L39 12L37 12L37 13L38 13L38 15L37 15L37 14L36 14L36 15L35 15L35 17L34 17L34 15L33 15L33 17L30 17L30 16L29 16L29 15L28 15L28 14L27 14L27 15L26 15L26 16L27 16L27 19L26 19L26 20L27 20L27 22L26 22L26 23L27 23L27 25L26 25L26 26L29 26L29 25L30 25L30 26L31 26L31 25L32 25L32 27L31 27L31 30L32 30L32 31L31 31L31 32L30 32L30 34L31 34L31 35L32 35L32 34L33 34L33 33L32 33L32 31L33 31L33 29L34 29L34 35L35 35L35 36L34 36L34 39L33 39L33 38L31 38L31 41L28 41L28 42L27 42L27 43L29 43L29 44L30 44L30 46L31 46L31 45L32 45L32 44L30 44L30 42L31 42L31 43L32 43L32 40L33 40L33 41L34 41L34 42L35 42L35 41L36 41L36 38L37 38L37 37L36 37L36 35L37 35L37 36L38 36L38 34L37 34L37 33L36 33L36 31L37 31L37 32L38 32L38 31L39 31L39 30L40 30L40 32L41 32L41 33L42 33L42 31L41 31L41 30L40 30L40 28L41 28L41 27L44 27L44 26L43 26L43 25L44 25L44 24L43 24L43 23L44 23L44 22L45 22L45 21L44 21L44 19L45 19L45 17L44 17L44 16L45 16L45 15L44 15L44 16L43 16L43 14L45 14L45 13L44 13L44 12L42 12L42 11L41 11L41 12L42 12L42 15L41 15L41 17L42 17L42 18L43 18L43 17L44 17L44 19L42 19L42 20L43 20L43 21L42 21L42 22L43 22L43 23L42 23L42 24L41 24L41 25L40 25L40 26L39 26L39 25L38 25L38 23L41 23L41 22L40 22L40 19L41 19L41 18L40 18L40 11ZM51 14L51 16L52 16L52 14ZM13 15L13 16L14 16L14 17L15 17L15 15ZM20 15L20 16L19 16L19 17L20 17L20 16L21 16L21 15ZM36 15L36 18L34 18L34 17L33 17L33 18L32 18L32 19L31 19L31 20L30 20L30 21L29 21L29 20L28 20L28 21L29 21L29 22L28 22L28 23L29 23L29 24L28 24L28 25L29 25L29 24L30 24L30 23L29 23L29 22L30 22L30 21L31 21L31 20L32 20L32 21L33 21L33 22L31 22L31 23L32 23L32 25L33 25L33 26L34 26L34 24L36 24L36 26L37 26L37 27L34 27L34 29L35 29L35 28L36 28L36 30L37 30L37 31L38 31L38 30L37 30L37 28L38 28L38 29L39 29L39 28L40 28L40 27L39 27L39 26L38 26L38 25L37 25L37 24L36 24L36 23L38 23L38 21L39 21L39 19L40 19L40 18L38 18L38 16L37 16L37 15ZM47 16L47 17L46 17L46 18L47 18L47 17L48 17L48 16ZM10 17L10 19L11 19L11 17ZM28 17L28 18L30 18L30 17ZM33 18L33 19L34 19L34 20L35 20L35 21L34 21L34 22L35 22L35 23L36 23L36 22L37 22L37 21L38 21L38 19L37 19L37 18L36 18L36 19L37 19L37 21L36 21L36 20L35 20L35 19L34 19L34 18ZM24 19L24 20L25 20L25 19ZM8 21L8 22L9 22L9 21ZM10 21L10 22L11 22L11 21ZM14 21L14 22L15 22L15 21ZM35 21L35 22L36 22L36 21ZM43 21L43 22L44 22L44 21ZM18 22L18 23L19 23L19 22ZM24 22L24 23L25 23L25 22ZM51 22L51 23L52 23L52 25L53 25L53 24L54 24L54 25L55 25L55 24L54 24L54 23L52 23L52 22ZM33 23L33 24L34 24L34 23ZM18 24L18 25L19 25L19 24ZM42 24L42 25L43 25L43 24ZM4 25L4 26L7 26L7 25ZM15 25L15 26L16 26L16 25ZM24 25L24 27L22 27L22 28L24 28L24 31L25 31L25 32L24 32L24 34L26 34L26 30L25 30L25 28L24 28L24 27L25 27L25 25ZM5 27L5 30L8 30L8 27ZM18 27L18 28L19 28L19 27ZM27 27L27 30L30 30L30 27ZM49 27L49 30L52 30L52 27ZM3 28L3 30L4 30L4 28ZM6 28L6 29L7 29L7 28ZM28 28L28 29L29 29L29 28ZM32 28L32 29L33 29L33 28ZM50 28L50 29L51 29L51 28ZM22 29L22 30L23 30L23 29ZM9 30L9 31L8 31L8 32L9 32L9 33L8 33L8 34L7 34L7 35L6 35L6 36L7 36L7 37L6 37L6 38L7 38L7 37L8 37L8 36L7 36L7 35L8 35L8 34L9 34L9 35L10 35L10 36L12 36L12 35L14 35L14 34L12 34L12 33L13 33L13 32L15 32L15 31L13 31L13 30L12 30L12 31L13 31L13 32L11 32L11 30ZM1 31L1 32L3 32L3 31ZM9 31L9 32L10 32L10 35L11 35L11 32L10 32L10 31ZM28 31L28 32L27 32L27 33L28 33L28 34L29 34L29 31ZM4 33L4 34L3 34L3 35L4 35L4 34L5 34L5 33ZM31 33L31 34L32 34L32 33ZM35 33L35 35L36 35L36 33ZM50 33L50 36L51 36L51 33ZM53 34L53 36L54 36L54 34ZM20 35L20 36L21 36L21 37L22 37L22 36L21 36L21 35ZM17 36L17 37L18 37L18 36ZM31 36L31 37L32 37L32 36ZM35 37L35 38L36 38L36 37ZM20 38L20 39L22 39L22 38ZM24 38L24 39L26 39L26 38ZM28 38L28 39L29 39L29 38ZM34 39L34 41L35 41L35 39ZM37 39L37 41L38 41L38 39ZM11 40L11 41L9 41L9 42L12 42L12 41L13 41L13 45L12 45L12 43L9 43L9 44L11 44L11 45L10 45L10 46L9 46L9 45L8 45L8 46L9 46L9 47L10 47L10 46L11 46L11 47L12 47L12 48L11 48L11 50L10 50L10 51L9 51L9 52L10 52L10 51L12 51L12 50L14 50L14 52L11 52L11 53L14 53L14 52L15 52L15 51L18 51L18 50L19 50L19 49L18 49L18 48L17 48L17 47L18 47L18 46L17 46L17 45L16 45L16 44L15 44L15 43L17 43L17 41L16 41L16 42L14 42L14 40ZM43 41L43 42L44 42L44 41ZM5 42L5 43L6 43L6 42ZM56 42L56 43L57 43L57 42ZM45 43L45 44L44 44L44 45L43 45L43 44L42 44L42 45L43 45L43 46L44 46L44 47L45 47L45 48L44 48L44 49L46 49L46 44L47 44L47 45L48 45L48 44L49 44L49 43L48 43L48 44L47 44L47 43ZM14 44L14 45L13 45L13 49L14 49L14 48L16 48L16 49L15 49L15 50L16 50L16 49L17 49L17 48L16 48L16 47L17 47L17 46L16 46L16 45L15 45L15 44ZM11 45L11 46L12 46L12 45ZM14 45L14 47L16 47L16 46L15 46L15 45ZM1 46L1 47L2 47L2 46ZM3 46L3 47L5 47L5 46ZM27 49L27 52L30 52L30 49ZM49 49L49 52L52 52L52 49ZM28 50L28 51L29 51L29 50ZM33 50L33 52L34 52L34 54L35 54L35 53L36 53L36 54L37 54L37 53L36 53L36 52L34 52L34 50ZM50 50L50 51L51 51L51 50ZM17 52L17 53L18 53L18 52ZM41 52L41 53L42 53L42 52ZM27 53L27 55L28 55L28 53ZM53 53L53 54L54 54L54 53ZM8 54L8 57L9 57L9 54ZM16 54L16 55L17 55L17 54ZM22 54L22 56L23 56L23 54ZM24 54L24 55L26 55L26 54ZM40 54L40 55L41 55L41 54ZM36 56L36 57L37 57L37 56ZM44 56L44 57L46 57L46 56ZM56 56L56 57L57 57L57 56ZM0 0L0 7L7 7L7 0ZM1 1L1 6L6 6L6 1ZM2 2L2 5L5 5L5 2ZM50 0L50 7L57 7L57 0ZM51 1L51 6L56 6L56 1ZM52 2L52 5L55 5L55 2ZM0 50L0 57L7 57L7 50ZM1 51L1 56L6 56L6 51ZM2 52L2 55L5 55L5 52Z" fill="#000000"/></g></g></svg>
