<?xml version="1.0" encoding="UTF-8"?>
<svg xmlns="http://www.w3.org/2000/svg" version="1.1" width="300" height="300" viewBox="0 0 300 300"><rect x="0" y="0" width="300" height="300" fill="#fefefe"/><g transform="scale(4.615)"><g transform="translate(4,4)"><path fill-rule="evenodd" d="M8 0L8 4L9 4L9 2L10 2L10 1L11 1L11 3L12 3L12 4L10 4L10 8L9 8L9 9L7 9L7 8L4 8L4 9L5 9L5 10L4 10L4 11L7 11L7 12L6 12L6 13L5 13L5 14L6 14L6 15L5 15L5 17L4 17L4 14L3 14L3 12L2 12L2 10L1 10L1 11L0 11L0 13L1 13L1 12L2 12L2 15L1 15L1 16L0 16L0 24L1 24L1 25L2 25L2 24L3 24L3 23L2 23L2 24L1 24L1 21L2 21L2 22L3 22L3 21L5 21L5 20L6 20L6 21L7 21L7 20L8 20L8 19L9 19L9 21L10 21L10 22L11 22L11 21L10 21L10 17L11 17L11 19L12 19L12 20L13 20L13 21L14 21L14 22L13 22L13 25L12 25L12 24L10 24L10 23L9 23L9 22L6 22L6 23L4 23L4 25L3 25L3 26L4 26L4 28L3 28L3 27L2 27L2 29L3 29L3 30L2 30L2 31L3 31L3 30L4 30L4 31L10 31L10 30L12 30L12 27L13 27L13 28L14 28L14 29L18 29L18 30L19 30L19 29L20 29L20 30L22 30L22 31L21 31L21 33L19 33L19 32L20 32L20 31L19 31L19 32L18 32L18 33L17 33L17 35L16 35L16 33L15 33L15 35L16 35L16 36L15 36L15 37L16 37L16 36L18 36L18 37L17 37L17 38L16 38L16 39L15 39L15 38L14 38L14 36L13 36L13 35L12 35L12 33L13 33L13 32L14 32L14 31L15 31L15 32L16 32L16 30L13 30L13 32L12 32L12 33L9 33L9 32L1 32L1 31L0 31L0 35L1 35L1 33L4 33L4 34L6 34L6 35L3 35L3 34L2 34L2 37L1 37L1 38L0 38L0 39L1 39L1 41L0 41L0 43L1 43L1 45L2 45L2 47L1 47L1 46L0 46L0 48L5 48L5 47L7 47L7 48L6 48L6 49L8 49L8 50L10 50L10 51L11 51L11 54L10 54L10 52L9 52L9 51L8 51L8 53L9 53L9 54L10 54L10 55L11 55L11 56L9 56L9 55L8 55L8 57L14 57L14 55L16 55L16 54L19 54L19 55L18 55L18 56L17 56L17 57L19 57L19 55L20 55L20 54L23 54L23 55L24 55L24 57L25 57L25 54L26 54L26 57L27 57L27 53L28 53L28 57L29 57L29 55L30 55L30 57L34 57L34 55L35 55L35 57L37 57L37 56L36 56L36 54L37 54L37 55L40 55L40 56L39 56L39 57L40 57L40 56L41 56L41 57L43 57L43 56L44 56L44 57L45 57L45 56L44 56L44 53L45 53L45 55L46 55L46 56L47 56L47 57L50 57L50 55L51 55L51 56L53 56L53 57L54 57L54 55L53 55L53 54L57 54L57 53L56 53L56 52L57 52L57 51L56 51L56 44L57 44L57 43L56 43L56 41L57 41L57 40L53 40L53 39L52 39L52 37L50 37L50 36L53 36L53 38L54 38L54 39L57 39L57 38L55 38L55 37L56 37L56 36L57 36L57 35L56 35L56 30L55 30L55 29L54 29L54 28L53 28L53 27L54 27L54 26L55 26L55 28L56 28L56 29L57 29L57 27L56 27L56 26L55 26L55 24L56 24L56 25L57 25L57 24L56 24L56 21L55 21L55 24L53 24L53 23L52 23L52 22L53 22L53 21L52 21L52 20L53 20L53 19L49 19L49 16L50 16L50 15L51 15L51 17L50 17L50 18L51 18L51 17L52 17L52 18L53 18L53 17L52 17L52 16L53 16L53 15L55 15L55 16L56 16L56 17L57 17L57 15L56 15L56 13L57 13L57 11L56 11L56 10L57 10L57 8L53 8L53 9L56 9L56 10L55 10L55 12L56 12L56 13L54 13L54 12L53 12L53 13L52 13L52 14L51 14L51 12L52 12L52 8L51 8L51 9L49 9L49 6L48 6L48 7L47 7L47 5L48 5L48 0L41 0L41 1L40 1L40 2L39 2L39 3L40 3L40 4L38 4L38 5L36 5L36 4L35 4L35 2L36 2L36 3L37 3L37 2L38 2L38 1L39 1L39 0L38 0L38 1L37 1L37 2L36 2L36 0L35 0L35 1L34 1L34 0L28 0L28 1L27 1L27 0L26 0L26 1L25 1L25 0L23 0L23 3L22 3L22 1L21 1L21 0L20 0L20 1L21 1L21 3L22 3L22 5L21 5L21 6L20 6L20 5L19 5L19 4L18 4L18 5L17 5L17 6L16 6L16 5L15 5L15 4L14 4L14 1L15 1L15 2L16 2L16 4L17 4L17 2L18 2L18 3L19 3L19 2L18 2L18 1L17 1L17 2L16 2L16 0L14 0L14 1L13 1L13 0ZM12 1L12 3L13 3L13 1ZM26 1L26 2L25 2L25 3L23 3L23 5L22 5L22 6L21 6L21 8L22 8L22 10L21 10L21 11L20 11L20 12L21 12L21 11L22 11L22 12L23 12L23 13L21 13L21 14L22 14L22 15L21 15L21 16L20 16L20 17L18 17L18 16L19 16L19 15L20 15L20 13L19 13L19 15L18 15L18 14L17 14L17 13L18 13L18 12L19 12L19 10L20 10L20 9L19 9L19 10L18 10L18 9L15 9L15 12L14 12L14 11L13 11L13 10L14 10L14 8L15 8L15 7L16 7L16 6L15 6L15 7L14 7L14 5L13 5L13 4L12 4L12 6L11 6L11 7L12 7L12 8L11 8L11 9L10 9L10 10L9 10L9 11L8 11L8 13L9 13L9 14L8 14L8 15L9 15L9 14L10 14L10 16L11 16L11 17L12 17L12 15L14 15L14 16L13 16L13 18L12 18L12 19L14 19L14 20L15 20L15 21L17 21L17 20L18 20L18 19L19 19L19 21L20 21L20 20L21 20L21 21L24 21L24 22L25 22L25 23L26 23L26 22L27 22L27 24L28 24L28 26L30 26L30 25L29 25L29 24L31 24L31 27L32 27L32 28L31 28L31 29L32 29L32 28L33 28L33 27L34 27L34 31L35 31L35 30L37 30L37 32L38 32L38 30L37 30L37 29L38 29L38 28L37 28L37 29L35 29L35 27L36 27L36 26L37 26L37 27L41 27L41 28L40 28L40 30L39 30L39 32L40 32L40 33L39 33L39 34L38 34L38 33L37 33L37 34L38 34L38 35L37 35L37 36L38 36L38 37L37 37L37 38L35 38L35 37L34 37L34 38L33 38L33 37L32 37L32 36L31 36L31 35L32 35L32 34L33 34L33 36L35 36L35 35L34 35L34 34L35 34L35 33L34 33L34 32L33 32L33 30L31 30L31 32L30 32L30 31L29 31L29 33L28 33L28 34L26 34L26 35L27 35L27 36L25 36L25 34L24 34L24 36L25 36L25 37L27 37L27 39L28 39L28 38L29 38L29 39L31 39L31 41L32 41L32 43L33 43L33 44L37 44L37 46L36 46L36 48L37 48L37 46L38 46L38 45L39 45L39 44L37 44L37 43L33 43L33 41L32 41L32 40L33 40L33 39L34 39L34 42L35 42L35 39L37 39L37 42L38 42L38 37L44 37L44 38L43 38L43 39L45 39L45 41L46 41L46 42L44 42L44 40L43 40L43 42L41 42L41 41L42 41L42 40L40 40L40 41L39 41L39 43L40 43L40 46L39 46L39 47L38 47L38 49L37 49L37 53L39 53L39 52L40 52L40 53L42 53L42 52L41 52L41 43L42 43L42 44L43 44L43 46L44 46L44 44L45 44L45 45L46 45L46 47L47 47L47 49L46 49L46 48L45 48L45 47L42 47L42 49L43 49L43 50L42 50L42 51L45 51L45 52L46 52L46 55L48 55L48 56L49 56L49 54L51 54L51 55L52 55L52 54L51 54L51 53L49 53L49 54L47 54L47 53L48 53L48 52L47 52L47 49L48 49L48 47L49 47L49 44L50 44L50 47L51 47L51 48L52 48L52 47L51 47L51 44L52 44L52 43L53 43L53 44L54 44L54 45L52 45L52 46L53 46L53 49L55 49L55 47L54 47L54 46L55 46L55 44L56 44L56 43L55 43L55 42L54 42L54 43L53 43L53 41L52 41L52 40L47 40L47 39L51 39L51 38L50 38L50 37L49 37L49 36L50 36L50 35L53 35L53 36L55 36L55 35L53 35L53 34L54 34L54 33L55 33L55 31L53 31L53 33L51 33L51 31L50 31L50 35L49 35L49 36L47 36L47 34L49 34L49 33L48 33L48 31L47 31L47 30L48 30L48 29L46 29L46 28L47 28L47 27L48 27L48 26L47 26L47 25L48 25L48 23L49 23L49 24L50 24L50 25L49 25L49 26L50 26L50 25L51 25L51 26L53 26L53 24L52 24L52 23L50 23L50 22L47 22L47 20L48 20L48 21L51 21L51 22L52 22L52 21L51 21L51 20L49 20L49 19L48 19L48 18L47 18L47 17L46 17L46 16L48 16L48 15L50 15L50 11L48 11L48 10L47 10L47 9L48 9L48 8L46 8L46 10L45 10L45 9L44 9L44 8L45 8L45 7L46 7L46 5L47 5L47 3L44 3L44 2L43 2L43 3L42 3L42 2L40 2L40 3L41 3L41 4L43 4L43 5L42 5L42 6L41 6L41 5L39 5L39 7L40 7L40 6L41 6L41 8L40 8L40 11L39 11L39 12L37 12L37 11L38 11L38 8L37 8L37 9L35 9L35 7L36 7L36 5L35 5L35 4L34 4L34 1L31 1L31 3L32 3L32 5L35 5L35 7L34 7L34 6L33 6L33 7L32 7L32 6L31 6L31 10L29 10L29 11L28 11L28 9L26 9L26 6L25 6L25 7L24 7L24 6L23 6L23 5L24 5L24 4L25 4L25 3L26 3L26 4L28 4L28 3L29 3L29 2L30 2L30 1L29 1L29 2L27 2L27 1ZM45 1L45 2L47 2L47 1ZM32 2L32 3L33 3L33 2ZM43 3L43 4L44 4L44 7L45 7L45 5L46 5L46 4L44 4L44 3ZM8 5L8 7L9 7L9 5ZM18 5L18 6L17 6L17 8L19 8L19 7L20 7L20 6L19 6L19 5ZM27 5L27 8L30 8L30 5ZM12 6L12 7L13 7L13 6ZM18 6L18 7L19 7L19 6ZM22 6L22 7L23 7L23 12L24 12L24 13L23 13L23 14L24 14L24 15L25 15L25 17L20 17L20 18L22 18L22 19L21 19L21 20L23 20L23 19L24 19L24 18L25 18L25 20L24 20L24 21L27 21L27 22L28 22L28 24L29 24L29 22L30 22L30 23L31 23L31 22L33 22L33 23L32 23L32 27L33 27L33 26L34 26L34 25L37 25L37 24L34 24L34 23L35 23L35 22L37 22L37 20L38 20L38 26L40 26L40 24L39 24L39 21L40 21L40 22L43 22L43 23L41 23L41 26L42 26L42 28L43 28L43 29L41 29L41 31L40 31L40 32L41 32L41 33L40 33L40 34L42 34L42 35L41 35L41 36L43 36L43 35L44 35L44 37L45 37L45 39L47 39L47 38L46 38L46 37L45 37L45 35L46 35L46 33L47 33L47 31L46 31L46 30L45 30L45 27L47 27L47 26L46 26L46 25L47 25L47 24L46 24L46 21L45 21L45 18L46 18L46 17L45 17L45 16L44 16L44 15L43 15L43 14L45 14L45 15L46 15L46 11L45 11L45 10L43 10L43 8L42 8L42 9L41 9L41 10L43 10L43 11L41 11L41 12L43 12L43 11L45 11L45 12L44 12L44 13L41 13L41 14L40 14L40 13L38 13L38 15L39 15L39 17L38 17L38 16L37 16L37 14L35 14L35 17L38 17L38 18L39 18L39 19L37 19L37 18L35 18L35 19L34 19L34 13L33 13L33 10L34 10L34 12L35 12L35 13L37 13L37 12L35 12L35 11L36 11L36 10L34 10L34 9L33 9L33 8L34 8L34 7L33 7L33 8L32 8L32 13L30 13L30 15L31 15L31 14L32 14L32 18L31 18L31 16L29 16L29 13L26 13L26 11L27 11L27 12L28 12L28 11L27 11L27 10L25 10L25 8L24 8L24 7L23 7L23 6ZM28 6L28 7L29 7L29 6ZM37 6L37 7L38 7L38 6ZM42 6L42 7L43 7L43 6ZM0 8L0 9L2 9L2 8ZM12 8L12 9L11 9L11 10L13 10L13 8ZM6 9L6 10L7 10L7 9ZM16 10L16 12L15 12L15 13L13 13L13 11L12 11L12 13L13 13L13 14L14 14L14 15L15 15L15 16L14 16L14 17L15 17L15 19L16 19L16 16L17 16L17 14L15 14L15 13L17 13L17 11L18 11L18 10ZM53 10L53 11L54 11L54 10ZM9 11L9 12L10 12L10 13L11 13L11 11ZM29 11L29 12L31 12L31 11ZM6 13L6 14L7 14L7 13ZM25 13L25 15L26 15L26 16L27 16L27 15L28 15L28 14L26 14L26 13ZM32 13L32 14L33 14L33 13ZM47 13L47 14L49 14L49 13ZM53 13L53 14L52 14L52 15L53 15L53 14L54 14L54 13ZM11 14L11 15L12 15L12 14ZM39 14L39 15L40 15L40 17L39 17L39 18L40 18L40 21L43 21L43 22L44 22L44 23L43 23L43 26L44 26L44 27L45 27L45 25L46 25L46 24L45 24L45 22L44 22L44 16L43 16L43 15L42 15L42 17L43 17L43 18L42 18L42 19L43 19L43 20L41 20L41 18L40 18L40 17L41 17L41 15L40 15L40 14ZM6 15L6 16L7 16L7 15ZM22 15L22 16L23 16L23 15ZM8 16L8 17L5 17L5 18L8 18L8 17L9 17L9 16ZM1 17L1 19L2 19L2 20L5 20L5 19L2 19L2 18L4 18L4 17ZM17 17L17 18L18 18L18 17ZM26 17L26 20L27 20L27 19L30 19L30 20L28 20L28 21L32 21L32 20L31 20L31 19L30 19L30 18L28 18L28 17ZM6 19L6 20L7 20L7 19ZM35 19L35 20L36 20L36 19ZM34 21L34 22L35 22L35 21ZM14 22L14 23L15 23L15 24L16 24L16 26L17 26L17 27L18 27L18 26L17 26L17 24L18 24L18 23L19 23L19 26L20 26L20 27L19 27L19 28L18 28L18 29L19 29L19 28L20 28L20 27L21 27L21 29L22 29L22 30L23 30L23 31L22 31L22 33L21 33L21 34L19 34L19 33L18 33L18 35L19 35L19 36L20 36L20 35L21 35L21 34L23 34L23 33L25 33L25 31L24 31L24 30L23 30L23 28L25 28L25 27L26 27L26 25L25 25L25 27L24 27L24 26L23 26L23 28L22 28L22 27L21 27L21 26L20 26L20 25L21 25L21 24L22 24L22 25L23 25L23 24L24 24L24 23L23 23L23 22L22 22L22 23L21 23L21 22L20 22L20 23L19 23L19 22L16 22L16 23L15 23L15 22ZM6 23L6 24L5 24L5 25L4 25L4 26L5 26L5 25L6 25L6 26L9 26L9 27L12 27L12 26L10 26L10 24L8 24L8 23ZM22 23L22 24L23 24L23 23ZM6 24L6 25L8 25L8 24ZM33 24L33 25L34 25L34 24ZM44 24L44 25L45 25L45 24ZM51 24L51 25L52 25L52 24ZM13 25L13 26L15 26L15 25ZM0 26L0 28L1 28L1 26ZM5 27L5 30L8 30L8 27ZM14 27L14 28L16 28L16 27ZM27 27L27 30L30 30L30 27ZM49 27L49 30L52 30L52 27ZM6 28L6 29L7 29L7 28ZM10 28L10 29L11 29L11 28ZM28 28L28 29L29 29L29 28ZM50 28L50 29L51 29L51 28ZM0 29L0 30L1 30L1 29ZM25 29L25 30L26 30L26 29ZM43 29L43 30L44 30L44 31L45 31L45 33L46 33L46 31L45 31L45 30L44 30L44 29ZM53 29L53 30L54 30L54 29ZM23 31L23 32L24 32L24 31ZM27 31L27 32L26 32L26 33L27 33L27 32L28 32L28 31ZM32 32L32 33L29 33L29 34L28 34L28 36L27 36L27 37L28 37L28 36L29 36L29 37L31 37L31 36L30 36L30 34L32 34L32 33L33 33L33 34L34 34L34 33L33 33L33 32ZM6 33L6 34L7 34L7 35L6 35L6 36L7 36L7 37L6 37L6 38L5 38L5 40L7 40L7 41L5 41L5 42L4 42L4 41L3 41L3 40L4 40L4 39L3 39L3 40L2 40L2 41L1 41L1 43L2 43L2 44L4 44L4 46L3 46L3 47L5 47L5 46L7 46L7 47L9 47L9 48L8 48L8 49L9 49L9 48L10 48L10 50L11 50L11 49L12 49L12 48L11 48L11 45L10 45L10 43L11 43L11 44L12 44L12 46L14 46L14 47L15 47L15 45L13 45L13 43L11 43L11 42L12 42L12 41L13 41L13 42L15 42L15 41L14 41L14 40L15 40L15 39L14 39L14 38L13 38L13 39L12 39L12 37L11 37L11 36L12 36L12 35L11 35L11 34L9 34L9 37L11 37L11 39L10 39L10 40L9 40L9 39L6 39L6 38L8 38L8 33ZM43 33L43 34L44 34L44 35L45 35L45 34L44 34L44 33ZM10 35L10 36L11 36L11 35ZM38 35L38 36L40 36L40 35ZM4 36L4 37L5 37L5 36ZM22 36L22 37L18 37L18 39L17 39L17 40L16 40L16 44L17 44L17 45L16 45L16 50L15 50L15 49L14 49L14 48L13 48L13 49L14 49L14 50L12 50L12 51L13 51L13 55L12 55L12 54L11 54L11 55L12 55L12 56L13 56L13 55L14 55L14 54L15 54L15 53L17 53L17 52L19 52L19 53L20 53L20 52L19 52L19 50L20 50L20 51L21 51L21 52L22 52L22 53L24 53L24 54L25 54L25 53L26 53L26 51L25 51L25 53L24 53L24 52L22 52L22 51L21 51L21 50L22 50L22 49L23 49L23 48L24 48L24 49L25 49L25 48L29 48L29 47L30 47L30 48L31 48L31 52L32 52L32 51L33 51L33 52L34 52L34 51L33 51L33 50L32 50L32 48L31 48L31 46L32 46L32 45L30 45L30 44L31 44L31 42L29 42L29 40L28 40L28 42L27 42L27 41L26 41L26 42L23 42L23 40L22 40L22 39L24 39L24 41L25 41L25 40L26 40L26 39L25 39L25 38L24 38L24 37L23 37L23 36ZM2 37L2 38L3 38L3 37ZM22 37L22 38L20 38L20 39L19 39L19 40L17 40L17 43L18 43L18 41L20 41L20 42L21 42L21 41L22 41L22 40L21 40L21 39L22 39L22 38L23 38L23 37ZM48 37L48 38L49 38L49 37ZM31 38L31 39L33 39L33 38ZM34 38L34 39L35 39L35 38ZM39 38L39 39L40 39L40 38ZM13 39L13 40L14 40L14 39ZM8 40L8 41L9 41L9 40ZM11 40L11 41L12 41L12 40ZM46 40L46 41L47 41L47 40ZM48 41L48 43L47 43L47 42L46 42L46 43L47 43L47 44L46 44L46 45L47 45L47 47L48 47L48 45L47 45L47 44L49 44L49 43L50 43L50 44L51 44L51 43L52 43L52 41L51 41L51 43L50 43L50 42L49 42L49 41ZM5 42L5 43L4 43L4 44L6 44L6 45L7 45L7 46L9 46L9 47L10 47L10 46L9 46L9 45L8 45L8 43L7 43L7 42ZM40 42L40 43L41 43L41 42ZM6 43L6 44L7 44L7 43ZM14 43L14 44L15 44L15 43ZM19 43L19 44L18 44L18 45L17 45L17 46L19 46L19 47L20 47L20 48L17 48L17 50L16 50L16 52L17 52L17 50L19 50L19 49L20 49L20 50L21 50L21 49L22 49L22 48L23 48L23 47L25 47L25 46L26 46L26 47L27 47L27 46L28 46L28 45L27 45L27 43L23 43L23 44L22 44L22 43L21 43L21 45L20 45L20 46L19 46L19 44L20 44L20 43ZM29 43L29 44L30 44L30 43ZM43 43L43 44L44 44L44 43ZM24 44L24 45L21 45L21 46L20 46L20 47L21 47L21 48L20 48L20 49L21 49L21 48L22 48L22 47L23 47L23 46L24 46L24 45L25 45L25 44ZM26 45L26 46L27 46L27 45ZM29 45L29 46L30 46L30 45ZM34 45L34 47L33 47L33 49L34 49L34 50L35 50L35 52L36 52L36 49L34 49L34 47L35 47L35 45ZM21 46L21 47L22 47L22 46ZM39 47L39 49L38 49L38 51L40 51L40 47ZM44 48L44 50L45 50L45 48ZM27 49L27 52L30 52L30 49ZM49 49L49 52L52 52L52 49ZM28 50L28 51L29 51L29 50ZM50 50L50 51L51 51L51 50ZM53 50L53 53L54 53L54 52L56 52L56 51L54 51L54 50ZM14 51L14 52L15 52L15 51ZM43 52L43 53L44 53L44 52ZM30 53L30 54L31 54L31 53ZM32 53L32 54L33 54L33 53ZM34 53L34 54L35 54L35 53ZM40 54L40 55L41 55L41 54ZM42 54L42 55L43 55L43 54ZM21 55L21 56L20 56L20 57L22 57L22 55ZM15 56L15 57L16 57L16 56ZM56 56L56 57L57 57L57 56ZM0 0L0 7L7 7L7 0ZM1 1L1 6L6 6L6 1ZM2 2L2 5L5 5L5 2ZM50 0L50 7L57 7L57 0ZM51 1L51 6L56 6L56 1ZM52 2L52 5L55 5L55 2ZM0 50L0 57L7 57L7 50ZM1 51L1 56L6 56L6 51ZM2 52L2 55L5 55L5 52Z" fill="#000000"/></g></g></svg>
