<?xml version="1.0" encoding="UTF-8"?>
<svg xmlns="http://www.w3.org/2000/svg" version="1.1" width="300" height="300" viewBox="0 0 300 300"><rect x="0" y="0" width="300" height="300" fill="#fefefe"/><g transform="scale(4.615)"><g transform="translate(4,4)"><path fill-rule="evenodd" d="M8 0L8 2L9 2L9 3L10 3L10 4L8 4L8 10L6 10L6 11L5 11L5 9L7 9L7 8L5 8L5 9L3 9L3 8L0 8L0 9L1 9L1 10L0 10L0 12L1 12L1 11L2 11L2 12L4 12L4 11L5 11L5 12L6 12L6 13L10 13L10 14L11 14L11 15L12 15L12 16L10 16L10 17L9 17L9 16L8 16L8 15L9 15L9 14L8 14L8 15L7 15L7 14L5 14L5 15L4 15L4 14L0 14L0 16L1 16L1 15L4 15L4 17L0 17L0 18L2 18L2 19L3 19L3 20L2 20L2 21L4 21L4 22L5 22L5 23L7 23L7 22L6 22L6 21L9 21L9 22L10 22L10 25L9 25L9 23L8 23L8 24L5 24L5 25L4 25L4 24L3 24L3 25L2 25L2 24L1 24L1 23L2 23L2 22L1 22L1 23L0 23L0 25L1 25L1 26L0 26L0 27L1 27L1 28L0 28L0 29L1 29L1 30L2 30L2 29L4 29L4 30L3 30L3 31L0 31L0 33L1 33L1 35L2 35L2 36L0 36L0 37L5 37L5 38L0 38L0 40L1 40L1 39L8 39L8 40L9 40L9 41L7 41L7 40L6 40L6 41L7 41L7 42L5 42L5 41L4 41L4 40L3 40L3 41L4 41L4 42L1 42L1 41L0 41L0 44L1 44L1 43L3 43L3 44L2 44L2 45L1 45L1 46L0 46L0 48L5 48L5 47L7 47L7 46L5 46L5 45L4 45L4 43L5 43L5 44L6 44L6 45L8 45L8 43L7 43L7 42L12 42L12 40L14 40L14 41L13 41L13 42L14 42L14 41L15 41L15 43L14 43L14 47L15 47L15 48L16 48L16 47L17 47L17 46L18 46L18 45L19 45L19 46L20 46L20 47L19 47L19 48L18 48L18 49L17 49L17 50L16 50L16 51L15 51L15 49L14 49L14 48L13 48L13 49L12 49L12 48L11 48L11 49L10 49L10 50L9 50L9 49L8 49L8 48L10 48L10 47L13 47L13 46L12 46L12 45L13 45L13 44L12 44L12 45L11 45L11 44L10 44L10 45L9 45L9 47L8 47L8 48L6 48L6 49L8 49L8 50L9 50L9 51L8 51L8 52L9 52L9 53L10 53L10 54L11 54L11 55L12 55L12 56L13 56L13 55L14 55L14 56L15 56L15 57L17 57L17 55L18 55L18 54L19 54L19 52L18 52L18 54L17 54L17 52L16 52L16 51L17 51L17 50L18 50L18 51L20 51L20 53L21 53L21 51L20 51L20 49L21 49L21 48L22 48L22 51L24 51L24 52L22 52L22 54L23 54L23 56L22 56L22 55L21 55L21 54L20 54L20 55L21 55L21 56L18 56L18 57L21 57L21 56L22 56L22 57L25 57L25 55L24 55L24 54L26 54L26 55L27 55L27 56L26 56L26 57L28 57L28 55L29 55L29 57L33 57L33 55L34 55L34 57L35 57L35 55L38 55L38 47L37 47L37 48L36 48L36 49L37 49L37 51L35 51L35 52L36 52L36 53L35 53L35 54L34 54L34 53L33 53L33 52L34 52L34 51L33 51L33 50L32 50L32 49L33 49L33 48L34 48L34 45L33 45L33 44L36 44L36 45L37 45L37 46L38 46L38 45L37 45L37 44L39 44L39 43L37 43L37 44L36 44L36 41L37 41L37 42L38 42L38 41L39 41L39 42L40 42L40 41L41 41L41 43L43 43L43 42L44 42L44 43L45 43L45 44L44 44L44 45L43 45L43 44L42 44L42 45L41 45L41 44L40 44L40 45L39 45L39 46L40 46L40 45L41 45L41 47L40 47L40 49L39 49L39 52L40 52L40 53L39 53L39 55L40 55L40 57L42 57L42 56L43 56L43 54L42 54L42 53L43 53L43 52L44 52L44 55L45 55L45 56L44 56L44 57L45 57L45 56L46 56L46 55L47 55L47 57L48 57L48 55L49 55L49 57L50 57L50 55L49 55L49 54L52 54L52 55L53 55L53 56L51 56L51 57L54 57L54 53L57 53L57 50L56 50L56 47L57 47L57 42L56 42L56 44L55 44L55 45L56 45L56 47L55 47L55 46L54 46L54 45L53 45L53 44L54 44L54 43L55 43L55 42L54 42L54 41L57 41L57 40L54 40L54 39L55 39L55 38L57 38L57 34L56 34L56 31L57 31L57 29L53 29L53 28L54 28L54 27L55 27L55 26L54 26L54 25L55 25L55 24L56 24L56 28L57 28L57 24L56 24L56 23L57 23L57 13L56 13L56 11L57 11L57 10L56 10L56 11L55 11L55 9L57 9L57 8L55 8L55 9L54 9L54 10L53 10L53 8L48 8L48 7L49 7L49 6L48 6L48 7L47 7L47 5L48 5L48 0L42 0L42 1L41 1L41 0L38 0L38 2L37 2L37 1L35 1L35 0L34 0L34 2L33 2L33 6L32 6L32 7L33 7L33 6L34 6L34 8L32 8L32 9L31 9L31 5L32 5L32 1L33 1L33 0L30 0L30 1L31 1L31 2L30 2L30 3L31 3L31 4L28 4L28 3L27 3L27 2L29 2L29 0L26 0L26 2L25 2L25 4L24 4L24 1L25 1L25 0L24 0L24 1L23 1L23 0L20 0L20 1L19 1L19 0L18 0L18 1L19 1L19 3L21 3L21 5L20 5L20 7L19 7L19 4L18 4L18 3L17 3L17 0L16 0L16 3L15 3L15 1L14 1L14 0L12 0L12 1L14 1L14 3L13 3L13 5L14 5L14 7L15 7L15 6L16 6L16 7L17 7L17 8L18 8L18 9L17 9L17 10L16 10L16 9L15 9L15 8L14 8L14 9L13 9L13 8L12 8L12 7L13 7L13 6L12 6L12 7L11 7L11 5L12 5L12 2L9 2L9 1L11 1L11 0ZM22 1L22 2L21 2L21 3L22 3L22 6L21 6L21 9L20 9L20 10L21 10L21 13L20 13L20 11L18 11L18 12L19 12L19 13L18 13L18 14L17 14L17 11L16 11L16 10L15 10L15 9L14 9L14 10L12 10L12 8L10 8L10 6L9 6L9 8L10 8L10 9L11 9L11 10L12 10L12 11L13 11L13 12L11 12L11 11L10 11L10 13L11 13L11 14L14 14L14 16L15 16L15 17L16 17L16 18L15 18L15 19L14 19L14 20L17 20L17 19L18 19L18 18L19 18L19 17L20 17L20 18L21 18L21 17L20 17L20 16L21 16L21 14L22 14L22 16L23 16L23 15L26 15L26 16L24 16L24 18L25 18L25 19L24 19L24 20L25 20L25 21L26 21L26 20L27 20L27 22L26 22L26 23L27 23L27 22L28 22L28 24L27 24L27 25L26 25L26 26L28 26L28 24L30 24L30 26L31 26L31 25L32 25L32 28L31 28L31 29L32 29L32 28L33 28L33 29L34 29L34 31L33 31L33 30L32 30L32 32L30 32L30 31L29 31L29 32L26 32L26 30L25 30L25 29L24 29L24 30L25 30L25 32L24 32L24 34L25 34L25 35L22 35L22 34L23 34L23 33L22 33L22 30L23 30L23 29L22 29L22 30L21 30L21 28L18 28L18 27L19 27L19 25L18 25L18 24L17 24L17 25L16 25L16 24L14 24L14 25L16 25L16 27L15 27L15 26L14 26L14 27L12 27L12 28L14 28L14 29L15 29L15 30L14 30L14 32L15 32L15 33L14 33L14 34L13 34L13 33L12 33L12 32L11 32L11 30L12 30L12 31L13 31L13 29L11 29L11 26L12 26L12 22L13 22L13 23L14 23L14 22L15 22L15 21L14 21L14 22L13 22L13 21L12 21L12 20L13 20L13 17L12 17L12 20L11 20L11 19L8 19L8 18L7 18L7 17L6 17L6 16L7 16L7 15L6 15L6 16L5 16L5 17L4 17L4 19L5 19L5 20L4 20L4 21L6 21L6 20L9 20L9 21L10 21L10 22L11 22L11 25L10 25L10 26L9 26L9 31L4 31L4 32L1 32L1 33L2 33L2 35L3 35L3 36L5 36L5 37L6 37L6 38L7 38L7 37L9 37L9 36L11 36L11 37L10 37L10 38L11 38L11 39L12 39L12 38L11 38L11 37L13 37L13 38L14 38L14 37L13 37L13 36L15 36L15 40L16 40L16 43L17 43L17 41L18 41L18 40L19 40L19 37L18 37L18 36L19 36L19 33L20 33L20 35L22 35L22 36L21 36L21 38L20 38L20 39L21 39L21 38L22 38L22 40L21 40L21 41L20 41L20 42L19 42L19 43L18 43L18 44L19 44L19 45L20 45L20 46L22 46L22 48L23 48L23 49L24 49L24 51L25 51L25 53L26 53L26 54L27 54L27 55L28 55L28 53L26 53L26 51L25 51L25 48L27 48L27 46L26 46L26 45L24 45L24 48L23 48L23 44L22 44L22 43L23 43L23 41L22 41L22 40L24 40L24 44L25 44L25 42L26 42L26 41L25 41L25 40L26 40L26 39L27 39L27 40L28 40L28 42L27 42L27 43L28 43L28 42L29 42L29 44L28 44L28 47L29 47L29 48L31 48L31 49L32 49L32 48L33 48L33 46L32 46L32 40L33 40L33 41L34 41L34 42L35 42L35 41L36 41L36 38L37 38L37 41L38 41L38 38L39 38L39 41L40 41L40 40L41 40L41 41L42 41L42 42L43 42L43 41L44 41L44 42L45 42L45 43L46 43L46 42L47 42L47 43L48 43L48 42L49 42L49 44L48 44L48 45L47 45L47 44L46 44L46 48L45 48L45 49L46 49L46 50L45 50L45 51L46 51L46 50L47 50L47 46L48 46L48 45L49 45L49 47L50 47L50 46L51 46L51 45L50 45L50 42L49 42L49 41L51 41L51 40L52 40L52 44L53 44L53 41L54 41L54 40L52 40L52 39L53 39L53 37L54 37L54 38L55 38L55 37L56 37L56 36L55 36L55 35L56 35L56 34L55 34L55 33L53 33L53 32L52 32L52 31L51 31L51 32L50 32L50 31L49 31L49 32L50 32L50 33L49 33L49 36L50 36L50 37L48 37L48 38L47 38L47 37L46 37L46 34L48 34L48 33L47 33L47 30L48 30L48 26L49 26L49 25L50 25L50 26L51 26L51 25L52 25L52 24L53 24L53 25L54 25L54 24L55 24L55 23L56 23L56 21L55 21L55 20L56 20L56 18L55 18L55 19L54 19L54 17L53 17L53 18L52 18L52 16L53 16L53 14L55 14L55 15L54 15L54 16L55 16L55 17L56 17L56 16L55 16L55 15L56 15L56 13L55 13L55 11L54 11L54 12L53 12L53 14L52 14L52 13L50 13L50 11L49 11L49 9L48 9L48 14L47 14L47 13L46 13L46 11L47 11L47 7L46 7L46 5L47 5L47 3L46 3L46 4L45 4L45 2L47 2L47 1L42 1L42 3L41 3L41 2L40 2L40 1L39 1L39 2L38 2L38 3L39 3L39 2L40 2L40 4L39 4L39 5L38 5L38 4L37 4L37 2L35 2L35 3L34 3L34 4L35 4L35 9L34 9L34 10L33 10L33 9L32 9L32 12L30 12L30 10L31 10L31 9L30 9L30 10L28 10L28 9L27 9L27 10L25 10L25 9L26 9L26 5L24 5L24 6L23 6L23 3L22 3L22 2L23 2L23 1ZM43 2L43 3L42 3L42 5L43 5L43 6L42 6L42 7L41 7L41 6L40 6L40 7L41 7L41 8L40 8L40 10L39 10L39 11L38 11L38 9L39 9L39 6L38 6L38 7L37 7L37 6L36 6L36 10L34 10L34 11L33 11L33 12L32 12L32 13L31 13L31 15L32 15L32 13L33 13L33 15L34 15L34 17L33 17L33 16L32 16L32 17L31 17L31 16L30 16L30 15L29 15L29 13L30 13L30 12L29 12L29 11L28 11L28 10L27 10L27 11L28 11L28 12L27 12L27 14L26 14L26 11L24 11L24 9L25 9L25 8L22 8L22 10L23 10L23 11L22 11L22 12L23 12L23 11L24 11L24 13L23 13L23 14L24 14L24 13L25 13L25 14L26 14L26 15L27 15L27 14L28 14L28 15L29 15L29 16L30 16L30 17L28 17L28 18L30 18L30 17L31 17L31 18L32 18L32 19L30 19L30 20L29 20L29 19L28 19L28 22L30 22L30 20L32 20L32 21L33 21L33 22L31 22L31 23L32 23L32 25L33 25L33 26L34 26L34 24L36 24L36 26L37 26L37 27L36 27L36 30L35 30L35 31L36 31L36 33L35 33L35 34L34 34L34 33L33 33L33 32L32 32L32 33L31 33L31 34L30 34L30 32L29 32L29 34L28 34L28 33L27 33L27 34L26 34L26 35L25 35L25 36L24 36L24 37L26 37L26 38L24 38L24 39L26 39L26 38L27 38L27 36L28 36L28 37L29 37L29 36L28 36L28 35L31 35L31 36L30 36L30 40L29 40L29 42L30 42L30 43L31 43L31 38L34 38L34 41L35 41L35 38L36 38L36 37L37 37L37 38L38 38L38 37L37 37L37 36L38 36L38 35L39 35L39 34L38 34L38 33L39 33L39 32L40 32L40 34L42 34L42 33L43 33L43 35L40 35L40 36L39 36L39 38L40 38L40 39L42 39L42 40L44 40L44 41L45 41L45 42L46 42L46 41L45 41L45 40L47 40L47 41L48 41L48 40L49 40L49 38L48 38L48 40L47 40L47 38L46 38L46 37L45 37L45 34L46 34L46 33L45 33L45 32L46 32L46 30L45 30L45 29L46 29L46 28L47 28L47 26L48 26L48 25L49 25L49 24L50 24L50 25L51 25L51 24L52 24L52 22L55 22L55 21L54 21L54 19L53 19L53 20L52 20L52 22L51 22L51 24L50 24L50 22L49 22L49 23L48 23L48 21L49 21L49 20L51 20L51 18L50 18L50 17L51 17L51 16L50 16L50 13L49 13L49 14L48 14L48 15L46 15L46 13L45 13L45 12L44 12L44 11L42 11L42 9L43 9L43 10L44 10L44 9L45 9L45 11L46 11L46 7L45 7L45 6L44 6L44 5L45 5L45 4L44 4L44 2ZM14 3L14 4L15 4L15 3ZM16 3L16 4L17 4L17 3ZM26 3L26 4L27 4L27 3ZM35 3L35 4L36 4L36 3ZM10 4L10 5L11 5L11 4ZM43 4L43 5L44 5L44 4ZM16 5L16 6L17 6L17 7L18 7L18 8L19 8L19 7L18 7L18 6L17 6L17 5ZM27 5L27 8L30 8L30 5ZM22 6L22 7L23 7L23 6ZM24 6L24 7L25 7L25 6ZM28 6L28 7L29 7L29 6ZM43 6L43 7L42 7L42 8L43 8L43 9L44 9L44 8L45 8L45 7L44 7L44 6ZM37 8L37 9L38 9L38 8ZM18 9L18 10L19 10L19 9ZM50 9L50 10L51 10L51 12L52 12L52 10L51 10L51 9ZM3 10L3 11L4 11L4 10ZM8 10L8 11L9 11L9 10ZM40 10L40 11L39 11L39 12L37 12L37 11L36 11L36 12L35 12L35 11L34 11L34 12L35 12L35 13L34 13L34 15L35 15L35 17L34 17L34 19L33 19L33 21L34 21L34 22L35 22L35 23L36 23L36 24L37 24L37 25L38 25L38 26L39 26L39 25L40 25L40 28L39 28L39 29L38 29L38 28L37 28L37 30L36 30L36 31L37 31L37 32L38 32L38 31L40 31L40 32L41 32L41 33L42 33L42 31L45 31L45 30L44 30L44 26L43 26L43 25L44 25L44 24L45 24L45 25L46 25L46 26L47 26L47 25L48 25L48 24L46 24L46 23L47 23L47 21L46 21L46 23L44 23L44 22L45 22L45 21L44 21L44 19L45 19L45 17L44 17L44 16L45 16L45 14L44 14L44 16L43 16L43 13L44 13L44 12L42 12L42 11L41 11L41 10ZM6 11L6 12L7 12L7 11ZM14 11L14 12L15 12L15 11ZM40 11L40 14L39 14L39 15L40 15L40 18L38 18L38 16L37 16L37 15L38 15L38 13L37 13L37 12L36 12L36 14L35 14L35 15L36 15L36 18L35 18L35 20L34 20L34 21L35 21L35 22L36 22L36 23L37 23L37 22L38 22L38 25L39 25L39 24L40 24L40 25L41 25L41 28L40 28L40 29L39 29L39 30L40 30L40 31L42 31L42 28L43 28L43 27L42 27L42 25L43 25L43 22L44 22L44 21L43 21L43 20L42 20L42 19L44 19L44 17L43 17L43 18L42 18L42 17L41 17L41 15L42 15L42 12L41 12L41 11ZM19 13L19 14L18 14L18 15L17 15L17 14L15 14L15 15L17 15L17 16L18 16L18 17L19 17L19 16L20 16L20 15L19 15L19 14L20 14L20 13ZM36 14L36 15L37 15L37 14ZM40 14L40 15L41 15L41 14ZM51 14L51 15L52 15L52 14ZM26 16L26 17L25 17L25 18L26 18L26 19L25 19L25 20L26 20L26 19L27 19L27 16ZM46 16L46 18L47 18L47 16ZM5 17L5 18L6 18L6 19L7 19L7 18L6 18L6 17ZM48 17L48 19L47 19L47 20L48 20L48 19L50 19L50 18L49 18L49 17ZM16 18L16 19L17 19L17 18ZM22 18L22 19L20 19L20 20L19 20L19 24L20 24L20 27L21 27L21 25L22 25L22 24L21 24L21 23L20 23L20 22L21 22L21 21L22 21L22 20L23 20L23 18ZM36 18L36 19L37 19L37 18ZM40 18L40 19L39 19L39 20L38 20L38 22L39 22L39 23L41 23L41 22L40 22L40 19L41 19L41 18ZM0 19L0 20L1 20L1 19ZM10 20L10 21L11 21L11 22L12 22L12 21L11 21L11 20ZM20 20L20 21L21 21L21 20ZM35 20L35 21L36 21L36 22L37 22L37 21L36 21L36 20ZM42 21L42 22L43 22L43 21ZM16 22L16 23L18 23L18 22ZM24 22L24 23L25 23L25 22ZM33 23L33 24L34 24L34 23ZM53 23L53 24L54 24L54 23ZM23 24L23 25L24 25L24 27L22 27L22 28L24 28L24 27L25 27L25 25L24 25L24 24ZM6 25L6 26L7 26L7 25ZM1 26L1 27L3 27L3 28L4 28L4 26ZM5 27L5 30L8 30L8 27ZM14 27L14 28L15 28L15 27ZM16 27L16 28L17 28L17 27ZM27 27L27 30L30 30L30 27ZM34 27L34 29L35 29L35 27ZM49 27L49 30L52 30L52 27ZM1 28L1 29L2 29L2 28ZM6 28L6 29L7 29L7 28ZM28 28L28 29L29 29L29 28ZM50 28L50 29L51 29L51 28ZM10 29L10 30L11 30L11 29ZM19 29L19 30L18 30L18 33L19 33L19 31L21 31L21 30L20 30L20 29ZM15 30L15 31L16 31L16 33L15 33L15 34L14 34L14 35L15 35L15 34L16 34L16 35L17 35L17 36L16 36L16 37L17 37L17 38L16 38L16 39L17 39L17 40L18 40L18 39L17 39L17 38L18 38L18 37L17 37L17 36L18 36L18 34L16 34L16 33L17 33L17 31L16 31L16 30ZM37 30L37 31L38 31L38 30ZM54 30L54 32L55 32L55 31L56 31L56 30ZM5 32L5 33L7 33L7 34L5 34L5 35L7 35L7 36L6 36L6 37L7 37L7 36L8 36L8 34L9 34L9 35L11 35L11 36L12 36L12 35L11 35L11 34L12 34L12 33L11 33L11 34L9 34L9 32L8 32L8 33L7 33L7 32ZM20 32L20 33L21 33L21 32ZM3 33L3 34L4 34L4 33ZM32 33L32 35L34 35L34 34L33 34L33 33ZM36 33L36 35L35 35L35 36L34 36L34 38L35 38L35 37L36 37L36 35L38 35L38 34L37 34L37 33ZM50 33L50 36L51 36L51 37L50 37L50 40L51 40L51 38L52 38L52 37L53 37L53 36L54 36L54 37L55 37L55 36L54 36L54 34L53 34L53 36L51 36L51 33ZM27 34L27 35L28 35L28 34ZM43 35L43 36L42 36L42 39L43 39L43 38L44 38L44 35ZM22 36L22 38L23 38L23 36ZM31 36L31 37L32 37L32 36ZM28 38L28 39L29 39L29 38ZM9 39L9 40L10 40L10 39ZM6 43L6 44L7 44L7 43ZM19 43L19 44L20 44L20 43ZM15 44L15 45L16 45L16 46L17 46L17 44ZM2 45L2 46L1 46L1 47L2 47L2 46L3 46L3 47L5 47L5 46L3 46L3 45ZM10 45L10 46L11 46L11 45ZM29 45L29 46L30 46L30 47L31 47L31 46L30 46L30 45ZM42 45L42 47L41 47L41 49L40 49L40 51L41 51L41 53L42 53L42 51L41 51L41 49L42 49L42 50L43 50L43 51L44 51L44 50L43 50L43 49L44 49L44 46L43 46L43 45ZM52 45L52 46L53 46L53 45ZM25 46L25 47L26 47L26 46ZM51 47L51 48L52 48L52 47ZM54 47L54 50L53 50L53 51L54 51L54 52L55 52L55 51L56 51L56 50L55 50L55 47ZM11 49L11 51L9 51L9 52L10 52L10 53L11 53L11 54L12 54L12 55L13 55L13 52L15 52L15 51L13 51L13 50L14 50L14 49L13 49L13 50L12 50L12 49ZM18 49L18 50L19 50L19 49ZM27 49L27 52L30 52L30 49ZM49 49L49 52L52 52L52 49ZM28 50L28 51L29 51L29 50ZM50 50L50 51L51 51L51 50ZM11 51L11 52L13 52L13 51ZM31 51L31 52L32 52L32 51ZM47 51L47 52L45 52L45 53L46 53L46 54L45 54L45 55L46 55L46 54L47 54L47 55L48 55L48 54L49 54L49 53L48 53L48 54L47 54L47 52L48 52L48 51ZM14 53L14 55L15 55L15 53ZM31 53L31 54L30 54L30 55L33 55L33 54L32 54L32 53ZM36 53L36 54L37 54L37 53ZM8 54L8 57L9 57L9 54ZM16 54L16 55L17 55L17 54ZM40 54L40 55L41 55L41 54ZM55 54L55 55L57 55L57 54ZM10 56L10 57L11 57L11 56ZM36 56L36 57L37 57L37 56ZM56 56L56 57L57 57L57 56ZM0 0L0 7L7 7L7 0ZM1 1L1 6L6 6L6 1ZM2 2L2 5L5 5L5 2ZM50 0L50 7L57 7L57 0ZM51 1L51 6L56 6L56 1ZM52 2L52 5L55 5L55 2ZM0 50L0 57L7 57L7 50ZM1 51L1 56L6 56L6 51ZM2 52L2 55L5 55L5 52Z" fill="#000000"/></g></g></svg>
