<?xml version="1.0" encoding="UTF-8"?>
<svg xmlns="http://www.w3.org/2000/svg" version="1.1" width="300" height="300" viewBox="0 0 300 300"><rect x="0" y="0" width="300" height="300" fill="#fefefe"/><g transform="scale(4.615)"><g transform="translate(4,4)"><path fill-rule="evenodd" d="M11 0L11 1L10 1L10 2L9 2L9 1L8 1L8 3L10 3L10 5L11 5L11 4L12 4L12 5L13 5L13 6L12 6L12 9L11 9L11 8L10 8L10 9L11 9L11 10L14 10L14 8L15 8L15 9L16 9L16 8L17 8L17 6L18 6L18 7L19 7L19 8L18 8L18 9L17 9L17 10L15 10L15 14L13 14L13 15L12 15L12 13L14 13L14 11L13 11L13 12L11 12L11 11L9 11L9 13L7 13L7 12L5 12L5 13L4 13L4 14L3 14L3 13L2 13L2 14L3 14L3 15L1 15L1 14L0 14L0 15L1 15L1 17L2 17L2 19L0 19L0 21L1 21L1 22L3 22L3 23L4 23L4 24L6 24L6 25L4 25L4 26L3 26L3 24L2 24L2 25L1 25L1 28L0 28L0 30L1 30L1 34L0 34L0 35L1 35L1 36L0 36L0 37L2 37L2 35L3 35L3 34L5 34L5 35L4 35L4 36L3 36L3 37L4 37L4 38L5 38L5 39L4 39L4 40L3 40L3 39L2 39L2 40L1 40L1 38L0 38L0 41L2 41L2 42L0 42L0 43L2 43L2 42L3 42L3 44L1 44L1 46L0 46L0 48L5 48L5 47L7 47L7 46L8 46L8 47L9 47L9 49L8 49L8 48L6 48L6 49L8 49L8 51L10 51L10 47L9 47L9 45L8 45L8 42L9 42L9 43L10 43L10 44L11 44L11 43L13 43L13 44L12 44L12 47L11 47L11 48L12 48L12 49L11 49L11 52L12 52L12 53L13 53L13 54L15 54L15 53L13 53L13 50L14 50L14 52L16 52L16 51L15 51L15 50L17 50L17 49L20 49L20 48L21 48L21 50L22 50L22 51L23 51L23 52L24 52L24 53L23 53L23 54L25 54L25 55L24 55L24 57L26 57L26 56L25 56L25 55L28 55L28 56L29 56L29 57L31 57L31 56L33 56L33 57L35 57L35 56L36 56L36 57L41 57L41 55L40 55L40 56L36 56L36 55L38 55L38 54L39 54L39 53L40 53L40 54L42 54L42 57L44 57L44 56L43 56L43 55L45 55L45 56L46 56L46 55L48 55L48 56L47 56L47 57L49 57L49 56L50 56L50 57L51 57L51 56L52 56L52 57L54 57L54 56L53 56L53 49L54 49L54 47L55 47L55 46L56 46L56 48L57 48L57 45L56 45L56 44L57 44L57 40L56 40L56 39L57 39L57 37L56 37L56 35L57 35L57 34L56 34L56 35L55 35L55 36L54 36L54 35L53 35L53 34L54 34L54 33L55 33L55 32L56 32L56 33L57 33L57 32L56 32L56 31L57 31L57 30L54 30L54 28L53 28L53 27L55 27L55 28L56 28L56 29L57 29L57 27L56 27L56 26L57 26L57 21L54 21L54 20L53 20L53 19L55 19L55 20L56 20L56 19L57 19L57 18L55 18L55 16L53 16L53 17L52 17L52 15L51 15L51 14L52 14L52 13L53 13L53 15L54 15L54 11L55 11L55 10L56 10L56 12L57 12L57 10L56 10L56 8L54 8L54 9L53 9L53 8L50 8L50 9L51 9L51 10L46 10L46 9L47 9L47 8L46 8L46 7L47 7L47 5L48 5L48 0L46 0L46 1L45 1L45 0L44 0L44 1L45 1L45 2L44 2L44 3L45 3L45 2L46 2L46 3L47 3L47 5L45 5L45 4L44 4L44 7L43 7L43 6L42 6L42 7L43 7L43 8L41 8L41 6L40 6L40 5L43 5L43 3L42 3L42 4L39 4L39 2L40 2L40 1L43 1L43 0L40 0L40 1L39 1L39 0L37 0L37 1L36 1L36 0L33 0L33 1L31 1L31 0L29 0L29 1L28 1L28 0L26 0L26 1L25 1L25 0L22 0L22 1L25 1L25 2L27 2L27 1L28 1L28 3L29 3L29 4L24 4L24 5L23 5L23 4L22 4L22 5L21 5L21 6L20 6L20 5L17 5L17 6L16 6L16 7L15 7L15 6L14 6L14 5L15 5L15 4L13 4L13 3L14 3L14 2L15 2L15 3L16 3L16 1L17 1L17 0L14 0L14 2L13 2L13 3L10 3L10 2L11 2L11 1L12 1L12 0ZM19 0L19 2L18 2L18 3L19 3L19 4L20 4L20 1L21 1L21 0ZM30 1L30 2L29 2L29 3L30 3L30 4L32 4L32 5L33 5L33 7L32 7L32 6L31 6L31 8L32 8L32 9L28 9L28 11L29 11L29 13L28 13L28 12L26 12L26 11L27 11L27 10L26 10L26 9L25 9L25 8L26 8L26 6L25 6L25 5L24 5L24 6L23 6L23 7L22 7L22 6L21 6L21 7L22 7L22 8L23 8L23 9L22 9L22 10L23 10L23 11L25 11L25 12L22 12L22 13L23 13L23 14L21 14L21 12L19 12L19 11L20 11L20 10L21 10L21 8L19 8L19 11L18 11L18 10L17 10L17 11L18 11L18 12L16 12L16 13L17 13L17 15L16 15L16 14L15 14L15 15L16 15L16 16L15 16L15 18L17 18L17 22L18 22L18 24L19 24L19 23L20 23L20 22L21 22L21 24L20 24L20 25L18 25L18 26L17 26L17 27L16 27L16 25L17 25L17 24L16 24L16 20L15 20L15 19L14 19L14 18L13 18L13 17L14 17L14 16L13 16L13 17L12 17L12 15L11 15L11 14L10 14L10 13L9 13L9 14L7 14L7 13L5 13L5 15L6 15L6 16L5 16L5 17L4 17L4 18L5 18L5 19L2 19L2 20L1 20L1 21L4 21L4 22L5 22L5 23L6 23L6 24L9 24L9 26L10 26L10 27L9 27L9 28L10 28L10 27L11 27L11 26L12 26L12 28L11 28L11 30L9 30L9 31L11 31L11 32L10 32L10 33L9 33L9 34L8 34L8 32L7 32L7 31L6 31L6 32L5 32L5 31L4 31L4 33L6 33L6 34L8 34L8 35L5 35L5 36L4 36L4 37L5 37L5 38L7 38L7 39L5 39L5 42L4 42L4 43L5 43L5 46L4 46L4 44L3 44L3 47L5 47L5 46L7 46L7 45L6 45L6 44L7 44L7 43L6 43L6 42L8 42L8 41L9 41L9 42L10 42L10 43L11 43L11 42L12 42L12 41L14 41L14 42L15 42L15 43L14 43L14 44L13 44L13 47L12 47L12 48L13 48L13 47L15 47L15 46L16 46L16 49L17 49L17 48L20 48L20 47L21 47L21 48L24 48L24 49L22 49L22 50L24 50L24 51L26 51L26 50L25 50L25 49L26 49L26 48L24 48L24 46L25 46L25 45L27 45L27 46L26 46L26 47L28 47L28 48L29 48L29 47L28 47L28 46L31 46L31 45L30 45L30 44L29 44L29 39L30 39L30 38L29 38L29 39L28 39L28 40L27 40L27 39L26 39L26 38L27 38L27 37L24 37L24 38L23 38L23 39L24 39L24 41L23 41L23 40L22 40L22 41L21 41L21 42L20 42L20 38L18 38L18 39L19 39L19 43L18 43L18 41L17 41L17 39L16 39L16 40L15 40L15 41L14 41L14 39L13 39L13 38L15 38L15 37L14 37L14 36L13 36L13 35L16 35L16 36L19 36L19 37L20 37L20 36L21 36L21 35L23 35L23 36L33 36L33 35L30 35L30 34L32 34L32 33L34 33L34 34L35 34L35 36L36 36L36 35L37 35L37 36L38 36L38 38L37 38L37 37L35 37L35 38L34 38L34 37L33 37L33 38L34 38L34 39L36 39L36 38L37 38L37 39L39 39L39 38L41 38L41 39L40 39L40 41L39 41L39 42L38 42L38 40L37 40L37 41L36 41L36 42L35 42L35 40L34 40L34 41L32 41L32 40L33 40L33 39L32 39L32 40L31 40L31 41L30 41L30 42L31 42L31 41L32 41L32 42L33 42L33 44L32 44L32 43L31 43L31 44L32 44L32 45L33 45L33 47L30 47L30 48L33 48L33 49L32 49L32 50L31 50L31 51L32 51L32 50L33 50L33 49L35 49L35 48L37 48L37 49L36 49L36 50L34 50L34 51L35 51L35 52L36 52L36 51L38 51L38 50L39 50L39 52L40 52L40 53L42 53L42 54L43 54L43 53L44 53L44 54L50 54L50 56L51 56L51 54L52 54L52 53L48 53L48 52L46 52L46 51L47 51L47 50L48 50L48 48L47 48L47 47L46 47L46 46L47 46L47 42L48 42L48 43L49 43L49 44L48 44L48 46L49 46L49 47L50 47L50 46L49 46L49 44L50 44L50 45L51 45L51 47L52 47L52 48L53 48L53 46L55 46L55 43L54 43L54 42L55 42L55 41L54 41L54 42L53 42L53 41L52 41L52 40L50 40L50 39L51 39L51 38L52 38L52 37L51 37L51 38L49 38L49 40L46 40L46 37L47 37L47 39L48 39L48 36L49 36L49 37L50 37L50 36L51 36L51 35L50 35L50 34L47 34L47 33L46 33L46 32L48 32L48 29L46 29L46 24L47 24L47 26L49 26L49 25L50 25L50 26L52 26L52 25L50 25L50 23L52 23L52 22L51 22L51 21L50 21L50 23L49 23L49 24L47 24L47 23L46 23L46 24L45 24L45 25L44 25L44 26L45 26L45 29L43 29L43 28L44 28L44 27L43 27L43 23L44 23L44 22L45 22L45 20L44 20L44 19L46 19L46 20L47 20L47 19L48 19L48 20L49 20L49 19L53 19L53 18L54 18L54 17L53 17L53 18L50 18L50 17L48 17L48 14L49 14L49 16L51 16L51 15L50 15L50 14L51 14L51 13L52 13L52 12L51 12L51 11L54 11L54 10L51 10L51 11L50 11L50 12L51 12L51 13L50 13L50 14L49 14L49 12L47 12L47 14L46 14L46 13L43 13L43 12L42 12L42 11L41 11L41 13L40 13L40 14L39 14L39 11L40 11L40 10L43 10L43 11L45 11L45 10L44 10L44 9L45 9L45 7L46 7L46 6L45 6L45 7L44 7L44 9L40 9L40 10L39 10L39 9L38 9L38 1L37 1L37 2L36 2L36 1L34 1L34 2L33 2L33 3L32 3L32 2L31 2L31 1ZM46 1L46 2L47 2L47 1ZM23 2L23 3L24 3L24 2ZM30 2L30 3L31 3L31 2ZM34 2L34 3L35 3L35 2ZM8 4L8 8L6 8L6 9L4 9L4 8L3 8L3 9L4 9L4 11L3 11L3 10L2 10L2 8L0 8L0 12L1 12L1 10L2 10L2 12L4 12L4 11L7 11L7 10L9 10L9 9L8 9L8 8L9 8L9 4ZM35 4L35 5L34 5L34 7L33 7L33 8L34 8L34 9L35 9L35 10L36 10L36 11L39 11L39 10L37 10L37 6L36 6L36 7L35 7L35 5L36 5L36 4ZM27 5L27 8L30 8L30 5ZM10 6L10 7L11 7L11 6ZM13 6L13 8L14 8L14 6ZM19 6L19 7L20 7L20 6ZM24 6L24 7L23 7L23 8L24 8L24 7L25 7L25 6ZM28 6L28 7L29 7L29 6ZM39 6L39 8L40 8L40 6ZM48 6L48 7L49 7L49 6ZM34 7L34 8L35 8L35 9L36 9L36 8L35 8L35 7ZM6 9L6 10L7 10L7 9ZM31 10L31 11L30 11L30 12L31 12L31 16L28 16L28 15L29 15L29 14L30 14L30 13L29 13L29 14L26 14L26 13L25 13L25 14L24 14L24 15L27 15L27 16L26 16L26 18L24 18L24 17L22 17L22 18L21 18L21 17L20 17L20 16L21 16L21 14L20 14L20 13L19 13L19 12L18 12L18 13L19 13L19 14L20 14L20 15L19 15L19 16L16 16L16 17L20 17L20 18L21 18L21 19L20 19L20 20L18 20L18 22L20 22L20 20L21 20L21 21L22 21L22 22L23 22L23 21L24 21L24 22L25 22L25 23L23 23L23 24L22 24L22 25L23 25L23 24L24 24L24 25L25 25L25 26L26 26L26 28L25 28L25 29L26 29L26 30L25 30L25 31L26 31L26 33L25 33L25 34L24 34L24 35L25 35L25 34L26 34L26 35L28 35L28 34L26 34L26 33L28 33L28 32L29 32L29 33L30 33L30 32L31 32L31 33L32 33L32 30L33 30L33 29L34 29L34 28L35 28L35 29L36 29L36 30L39 30L39 31L38 31L38 32L39 32L39 34L38 34L38 36L40 36L40 37L41 37L41 38L42 38L42 37L44 37L44 38L45 38L45 36L46 36L46 35L47 35L47 36L48 36L48 35L47 35L47 34L46 34L46 35L45 35L45 33L44 33L44 34L43 34L43 36L41 36L41 35L42 35L42 34L41 34L41 32L42 32L42 33L43 33L43 32L46 32L46 31L41 31L41 30L42 30L42 29L41 29L41 30L40 30L40 28L39 28L39 27L38 27L38 29L37 29L37 28L35 28L35 27L34 27L34 26L38 26L38 24L39 24L39 25L40 25L40 26L41 26L41 27L42 27L42 28L43 28L43 27L42 27L42 26L41 26L41 23L43 23L43 22L41 22L41 20L40 20L40 19L39 19L39 18L42 18L42 19L43 19L43 18L42 18L42 14L41 14L41 15L39 15L39 14L38 14L38 12L34 12L34 14L36 14L36 15L33 15L33 14L32 14L32 13L33 13L33 11L34 11L34 10L33 10L33 11L32 11L32 10ZM31 11L31 12L32 12L32 11ZM36 13L36 14L37 14L37 15L38 15L38 17L37 17L37 18L36 18L36 17L35 17L35 16L34 16L34 17L33 17L33 18L35 18L35 21L34 21L34 19L33 19L33 20L32 20L32 22L34 22L34 23L35 23L35 22L39 22L39 21L38 21L38 17L39 17L39 15L38 15L38 14L37 14L37 13ZM56 13L56 14L55 14L55 15L56 15L56 17L57 17L57 15L56 15L56 14L57 14L57 13ZM6 14L6 15L7 15L7 16L6 16L6 17L5 17L5 18L6 18L6 19L5 19L5 20L4 20L4 21L5 21L5 22L6 22L6 23L9 23L9 21L10 21L10 20L9 20L9 21L8 21L8 20L6 20L6 19L8 19L8 18L6 18L6 17L7 17L7 16L9 16L9 19L10 19L10 18L11 18L11 19L12 19L12 20L11 20L11 22L13 22L13 23L15 23L15 22L13 22L13 21L12 21L12 20L14 20L14 19L12 19L12 17L11 17L11 16L10 16L10 15L7 15L7 14ZM3 15L3 16L4 16L4 15ZM45 15L45 16L44 16L44 18L45 18L45 16L47 16L47 15ZM31 16L31 17L30 17L30 21L28 21L28 23L29 23L29 22L31 22L31 19L32 19L32 16ZM40 16L40 17L41 17L41 16ZM47 17L47 18L46 18L46 19L47 19L47 18L48 18L48 17ZM23 18L23 19L21 19L21 20L25 20L25 19L24 19L24 18ZM28 18L28 20L29 20L29 18ZM26 19L26 21L25 21L25 22L26 22L26 23L25 23L25 25L26 25L26 26L27 26L27 25L26 25L26 24L27 24L27 22L26 22L26 21L27 21L27 19ZM36 19L36 21L37 21L37 19ZM5 20L5 21L6 21L6 22L8 22L8 21L6 21L6 20ZM43 20L43 21L44 21L44 20ZM46 21L46 22L49 22L49 21ZM53 21L53 23L54 23L54 24L56 24L56 22L54 22L54 21ZM0 23L0 24L1 24L1 23ZM10 23L10 24L11 24L11 23ZM30 23L30 26L31 26L31 27L32 27L32 28L31 28L31 29L32 29L32 28L33 28L33 27L32 27L32 26L34 26L34 25L35 25L35 24L33 24L33 23L32 23L32 24L33 24L33 25L32 25L32 26L31 26L31 23ZM36 23L36 24L37 24L37 23ZM39 23L39 24L40 24L40 23ZM12 24L12 25L14 25L14 24ZM6 25L6 26L7 26L7 25ZM28 25L28 26L29 26L29 25ZM53 25L53 26L56 26L56 25ZM13 26L13 30L16 30L16 32L15 32L15 31L12 31L12 32L11 32L11 33L10 33L10 34L9 34L9 35L8 35L8 36L9 36L9 37L7 37L7 36L5 36L5 37L7 37L7 38L8 38L8 40L6 40L6 41L8 41L8 40L9 40L9 41L10 41L10 40L11 40L11 41L12 41L12 40L13 40L13 39L12 39L12 40L11 40L11 39L9 39L9 38L10 38L10 34L11 34L11 35L13 35L13 34L14 34L14 32L15 32L15 34L16 34L16 32L18 32L18 34L17 34L17 35L19 35L19 36L20 36L20 35L21 35L21 34L22 34L22 33L24 33L24 32L22 32L22 31L24 31L24 29L23 29L23 30L21 30L21 27L20 27L20 26L19 26L19 27L17 27L17 28L15 28L15 26ZM22 26L22 27L23 27L23 28L24 28L24 27L23 27L23 26ZM5 27L5 30L8 30L8 27ZM27 27L27 30L30 30L30 27ZM49 27L49 30L52 30L52 27ZM1 28L1 30L2 30L2 33L3 33L3 30L4 30L4 29L2 29L2 28ZM6 28L6 29L7 29L7 28ZM18 28L18 29L16 29L16 30L19 30L19 31L20 31L20 32L21 32L21 31L20 31L20 28ZM28 28L28 29L29 29L29 28ZM50 28L50 29L51 29L51 28ZM45 29L45 30L46 30L46 29ZM27 31L27 32L28 32L28 31ZM29 31L29 32L30 32L30 31ZM33 31L33 32L34 32L34 31ZM35 31L35 32L36 32L36 33L37 33L37 31ZM39 31L39 32L40 32L40 31ZM49 31L49 33L50 33L50 32L51 32L51 31ZM52 31L52 34L53 34L53 33L54 33L54 32L55 32L55 31ZM6 32L6 33L7 33L7 32ZM12 33L12 34L13 34L13 33ZM19 33L19 35L20 35L20 34L21 34L21 33ZM1 34L1 35L2 35L2 34ZM44 35L44 36L45 36L45 35ZM49 35L49 36L50 36L50 35ZM52 35L52 36L53 36L53 35ZM12 36L12 37L11 37L11 38L12 38L12 37L13 37L13 36ZM21 37L21 39L22 39L22 37ZM53 37L53 40L55 40L55 37ZM24 38L24 39L25 39L25 42L23 42L23 44L28 44L28 45L29 45L29 44L28 44L28 43L27 43L27 42L26 42L26 41L27 41L27 40L26 40L26 39L25 39L25 38ZM42 39L42 40L41 40L41 41L40 41L40 42L39 42L39 43L38 43L38 42L37 42L37 44L36 44L36 45L35 45L35 46L34 46L34 47L33 47L33 48L34 48L34 47L35 47L35 46L36 46L36 47L37 47L37 46L36 46L36 45L39 45L39 47L38 47L38 48L39 48L39 49L40 49L40 50L41 50L41 51L40 51L40 52L42 52L42 53L43 53L43 52L42 52L42 51L44 51L44 53L46 53L46 52L45 52L45 50L44 50L44 49L45 49L45 48L44 48L44 47L45 47L45 46L44 46L44 44L45 44L45 43L46 43L46 42L44 42L44 41L46 41L46 40L45 40L45 39ZM43 40L43 41L42 41L42 42L41 42L41 43L42 43L42 44L41 44L41 48L42 48L42 49L41 49L41 50L43 50L43 47L44 47L44 46L43 46L43 45L42 45L42 44L44 44L44 43L42 43L42 42L43 42L43 41L44 41L44 40ZM21 42L21 43L20 43L20 45L21 45L21 46L22 46L22 47L23 47L23 46L22 46L22 42ZM25 42L25 43L26 43L26 42ZM34 42L34 43L35 43L35 42ZM49 42L49 43L50 43L50 44L51 44L51 45L52 45L52 44L53 44L53 43L52 43L52 44L51 44L51 42ZM39 43L39 44L40 44L40 43ZM15 44L15 45L14 45L14 46L15 46L15 45L19 45L19 44ZM33 44L33 45L34 45L34 44ZM1 46L1 47L2 47L2 46ZM18 46L18 47L19 47L19 46ZM46 48L46 50L47 50L47 48ZM12 49L12 50L13 50L13 49ZM27 49L27 52L30 52L30 49ZM37 49L37 50L38 50L38 49ZM49 49L49 52L52 52L52 49ZM56 49L56 50L55 50L55 52L54 52L54 54L56 54L56 55L57 55L57 53L55 53L55 52L57 52L57 51L56 51L56 50L57 50L57 49ZM19 50L19 51L17 51L17 53L16 53L16 54L17 54L17 56L16 56L16 57L17 57L17 56L18 56L18 57L23 57L23 55L22 55L22 56L18 56L18 53L19 53L19 55L21 55L21 53L22 53L22 52L21 52L21 51L20 51L20 50ZM28 50L28 51L29 51L29 50ZM50 50L50 51L51 51L51 50ZM9 52L9 53L8 53L8 54L9 54L9 55L8 55L8 57L9 57L9 56L10 56L10 54L11 54L11 53L10 53L10 52ZM19 52L19 53L20 53L20 52ZM33 52L33 53L32 53L32 55L34 55L34 56L35 56L35 55L36 55L36 54L37 54L37 53L38 53L38 52L37 52L37 53L36 53L36 54L35 54L35 53L34 53L34 52ZM9 53L9 54L10 54L10 53ZM25 53L25 54L27 54L27 53ZM29 54L29 56L30 56L30 55L31 55L31 54ZM34 54L34 55L35 55L35 54ZM11 55L11 56L14 56L14 57L15 57L15 55ZM55 56L55 57L56 57L56 56ZM0 0L0 7L7 7L7 0ZM1 1L1 6L6 6L6 1ZM2 2L2 5L5 5L5 2ZM50 0L50 7L57 7L57 0ZM51 1L51 6L56 6L56 1ZM52 2L52 5L55 5L55 2ZM0 50L0 57L7 57L7 50ZM1 51L1 56L6 56L6 51ZM2 52L2 55L5 55L5 52Z" fill="#000000"/></g></g></svg>
