<?xml version="1.0" encoding="UTF-8"?>
<svg xmlns="http://www.w3.org/2000/svg" version="1.1" width="300" height="300" viewBox="0 0 300 300"><rect x="0" y="0" width="300" height="300" fill="#fefefe"/><g transform="scale(4.615)"><g transform="translate(4,4)"><path fill-rule="evenodd" d="M17 0L17 2L16 2L16 1L14 1L14 2L11 2L11 1L10 1L10 2L11 2L11 4L12 4L12 5L11 5L11 6L10 6L10 5L8 5L8 7L9 7L9 6L10 6L10 8L6 8L6 9L5 9L5 8L0 8L0 10L1 10L1 11L0 11L0 12L1 12L1 13L0 13L0 15L1 15L1 16L0 16L0 18L2 18L2 19L4 19L4 20L3 20L3 22L2 22L2 21L0 21L0 25L1 25L1 26L0 26L0 27L1 27L1 26L2 26L2 28L1 28L1 29L0 29L0 31L2 31L2 33L1 33L1 34L0 34L0 36L2 36L2 39L4 39L4 40L3 40L3 41L2 41L2 40L1 40L1 41L2 41L2 42L1 42L1 45L2 45L2 47L1 47L1 46L0 46L0 48L5 48L5 47L7 47L7 48L6 48L6 49L7 49L7 48L8 48L8 51L9 51L9 50L10 50L10 49L9 49L9 48L8 48L8 47L7 47L7 46L6 46L6 45L7 45L7 44L9 44L9 45L8 45L8 46L9 46L9 47L12 47L12 48L11 48L11 52L8 52L8 57L10 57L10 55L11 55L11 56L13 56L13 57L16 57L16 56L17 56L17 57L19 57L19 55L20 55L20 54L19 54L19 53L20 53L20 52L21 52L21 53L22 53L22 55L21 55L21 56L24 56L24 55L23 55L23 54L24 54L24 53L26 53L26 56L25 56L25 57L26 57L26 56L27 56L27 57L29 57L29 56L30 56L30 57L31 57L31 56L35 56L35 57L39 57L39 56L37 56L37 55L40 55L40 56L42 56L42 55L44 55L44 56L43 56L43 57L44 57L44 56L45 56L45 57L47 57L47 56L50 56L50 57L52 57L52 55L51 55L51 53L52 53L52 54L55 54L55 53L57 53L57 51L56 51L56 52L55 52L55 51L54 51L54 50L57 50L57 48L56 48L56 46L57 46L57 45L56 45L56 44L55 44L55 43L56 43L56 42L55 42L55 39L57 39L57 37L55 37L55 36L56 36L56 34L57 34L57 32L56 32L56 30L57 30L57 28L56 28L56 27L55 27L55 26L57 26L57 25L56 25L56 22L57 22L57 21L56 21L56 20L57 20L57 19L55 19L55 18L57 18L57 17L56 17L56 16L57 16L57 15L56 15L56 14L57 14L57 13L56 13L56 14L55 14L55 13L54 13L54 12L55 12L55 11L56 11L56 10L54 10L54 11L52 11L52 10L51 10L51 11L50 11L50 8L47 8L47 5L48 5L48 0L46 0L46 1L45 1L45 2L44 2L44 3L42 3L42 2L43 2L43 0L41 0L41 1L40 1L40 0L39 0L39 1L38 1L38 0L37 0L37 1L38 1L38 2L39 2L39 3L41 3L41 4L40 4L40 5L39 5L39 6L38 6L38 7L37 7L37 5L38 5L38 4L37 4L37 3L36 3L36 0L35 0L35 1L32 1L32 3L31 3L31 0L29 0L29 2L28 2L28 3L27 3L27 4L26 4L26 3L23 3L23 4L19 4L19 3L20 3L20 0ZM21 0L21 1L22 1L22 0ZM23 0L23 2L27 2L27 1L26 1L26 0ZM8 1L8 2L9 2L9 1ZM18 1L18 2L17 2L17 3L16 3L16 2L14 2L14 4L13 4L13 3L12 3L12 4L13 4L13 7L12 7L12 6L11 6L11 8L10 8L10 9L11 9L11 10L9 10L9 11L8 11L8 12L7 12L7 11L6 11L6 10L8 10L8 9L6 9L6 10L5 10L5 11L3 11L3 10L4 10L4 9L3 9L3 10L2 10L2 9L1 9L1 10L2 10L2 14L1 14L1 15L2 15L2 16L3 16L3 15L5 15L5 14L7 14L7 15L6 15L6 16L4 16L4 18L7 18L7 19L5 19L5 20L4 20L4 21L5 21L5 22L4 22L4 23L3 23L3 24L4 24L4 23L6 23L6 24L5 24L5 26L7 26L7 25L8 25L8 26L10 26L10 24L11 24L11 27L12 27L12 30L14 30L14 27L15 27L15 26L18 26L18 27L17 27L17 28L18 28L18 29L16 29L16 28L15 28L15 29L16 29L16 31L15 31L15 32L14 32L14 33L13 33L13 32L11 32L11 31L10 31L10 29L9 29L9 31L5 31L5 32L3 32L3 34L4 34L4 35L2 35L2 36L5 36L5 34L8 34L8 33L10 33L10 32L11 32L11 33L13 33L13 34L10 34L10 35L8 35L8 37L5 37L5 38L8 38L8 37L9 37L9 36L10 36L10 35L11 35L11 38L13 38L13 36L14 36L14 33L15 33L15 37L16 37L16 38L15 38L15 39L14 39L14 41L11 41L11 40L12 40L12 39L10 39L10 38L9 38L9 39L8 39L8 40L9 40L9 41L8 41L8 42L7 42L7 41L6 41L6 42L3 42L3 44L2 44L2 45L4 45L4 46L3 46L3 47L5 47L5 45L4 45L4 44L5 44L5 43L6 43L6 44L7 44L7 43L8 43L8 42L9 42L9 44L13 44L13 46L15 46L15 47L13 47L13 49L12 49L12 52L11 52L11 53L9 53L9 54L11 54L11 55L12 55L12 54L11 54L11 53L12 53L12 52L13 52L13 55L14 55L14 56L16 56L16 55L14 55L14 54L16 54L16 53L17 53L17 51L18 51L18 50L17 50L17 47L18 47L18 48L21 48L21 49L19 49L19 50L20 50L20 51L21 51L21 52L22 52L22 53L24 53L24 52L26 52L26 51L25 51L25 50L26 50L26 49L25 49L25 48L29 48L29 45L30 45L30 44L31 44L31 45L32 45L32 47L33 47L33 46L35 46L35 47L34 47L34 48L32 48L32 49L31 49L31 53L30 53L30 54L27 54L27 56L29 56L29 55L30 55L30 56L31 56L31 54L32 54L32 53L33 53L33 55L35 55L35 56L36 56L36 54L35 54L35 53L34 53L34 52L35 52L35 50L36 50L36 52L37 52L37 51L38 51L38 53L37 53L37 54L40 54L40 53L41 53L41 52L42 52L42 53L43 53L43 54L44 54L44 55L47 55L47 54L48 54L48 50L47 50L47 49L48 49L48 48L49 48L49 47L48 47L48 46L50 46L50 47L51 47L51 48L53 48L53 49L54 49L54 48L53 48L53 47L55 47L55 46L56 46L56 45L55 45L55 44L54 44L54 45L52 45L52 44L53 44L53 43L54 43L54 42L53 42L53 41L54 41L54 40L53 40L53 41L51 41L51 42L50 42L50 43L49 43L49 42L48 42L48 41L49 41L49 39L47 39L47 37L48 37L48 38L49 38L49 37L50 37L50 39L51 39L51 38L52 38L52 39L54 39L54 38L53 38L53 35L55 35L55 34L56 34L56 32L54 32L54 31L52 31L52 32L51 32L51 31L50 31L50 32L49 32L49 31L48 31L48 28L47 28L47 29L46 29L46 30L47 30L47 31L48 31L48 32L47 32L47 33L45 33L45 32L43 32L43 30L40 30L40 31L39 31L39 32L38 32L38 30L39 30L39 29L44 29L44 31L45 31L45 28L46 28L46 27L48 27L48 26L47 26L47 25L48 25L48 24L49 24L49 23L50 23L50 24L51 24L51 25L50 25L50 26L51 26L51 25L53 25L53 24L51 24L51 23L50 23L50 22L51 22L51 21L54 21L54 23L55 23L55 22L56 22L56 21L55 21L55 20L53 20L53 19L52 19L52 18L51 18L51 17L53 17L53 18L55 18L55 17L54 17L54 16L52 16L52 15L51 15L51 17L50 17L50 14L51 14L51 12L50 12L50 11L49 11L49 12L45 12L45 11L43 11L43 10L44 10L44 9L45 9L45 10L47 10L47 11L48 11L48 10L47 10L47 9L45 9L45 7L46 7L46 5L47 5L47 3L44 3L44 6L43 6L43 8L44 8L44 9L43 9L43 10L41 10L41 9L42 9L42 8L41 8L41 7L42 7L42 6L41 6L41 5L40 5L40 6L39 6L39 7L40 7L40 8L38 8L38 10L39 10L39 12L40 12L40 13L38 13L38 14L37 14L37 15L35 15L35 16L33 16L33 15L32 15L32 18L33 18L33 19L34 19L34 20L32 20L32 21L31 21L31 22L30 22L30 23L31 23L31 24L32 24L32 26L31 26L31 28L32 28L32 29L31 29L31 31L30 31L30 32L29 32L29 33L28 33L28 32L27 32L27 33L26 33L26 31L24 31L24 32L21 32L21 31L23 31L23 29L26 29L26 28L25 28L25 27L26 27L26 26L27 26L27 25L29 25L29 26L30 26L30 25L29 25L29 24L25 24L25 23L26 23L26 22L25 22L25 21L27 21L27 23L29 23L29 22L28 22L28 21L29 21L29 20L30 20L30 19L31 19L31 18L30 18L30 19L28 19L28 18L26 18L26 16L27 16L27 17L28 17L28 16L29 16L29 14L30 14L30 15L31 15L31 14L32 14L32 13L33 13L33 14L36 14L36 13L35 13L35 11L36 11L36 10L37 10L37 9L35 9L35 8L37 8L37 7L36 7L36 5L37 5L37 4L36 4L36 5L35 5L35 2L34 2L34 3L32 3L32 4L31 4L31 3L30 3L30 4L31 4L31 8L32 8L32 10L31 10L31 11L29 11L29 10L28 10L28 9L27 9L27 10L28 10L28 11L29 11L29 12L28 12L28 13L26 13L26 12L27 12L27 11L26 11L26 12L25 12L25 10L23 10L23 11L24 11L24 12L23 12L23 13L22 13L22 12L21 12L21 11L22 11L22 10L21 10L21 9L24 9L24 6L23 6L23 5L24 5L24 4L23 4L23 5L21 5L21 7L22 7L22 8L19 8L19 7L20 7L20 5L19 5L19 4L18 4L18 2L19 2L19 1ZM46 1L46 2L47 2L47 1ZM21 2L21 3L22 3L22 2ZM8 3L8 4L10 4L10 3ZM28 3L28 4L29 4L29 3ZM15 4L15 5L16 5L16 4ZM17 4L17 6L16 6L16 7L15 7L15 6L14 6L14 8L12 8L12 9L13 9L13 11L14 11L14 12L12 12L12 10L11 10L11 12L10 12L10 11L9 11L9 12L8 12L8 13L7 13L7 12L6 12L6 11L5 11L5 12L3 12L3 14L2 14L2 15L3 15L3 14L5 14L5 12L6 12L6 13L7 13L7 14L8 14L8 15L9 15L9 16L10 16L10 17L9 17L9 18L8 18L8 17L7 17L7 16L6 16L6 17L7 17L7 18L8 18L8 19L9 19L9 20L10 20L10 22L12 22L12 21L11 21L11 20L12 20L12 19L13 19L13 20L14 20L14 19L13 19L13 18L14 18L14 16L15 16L15 17L19 17L19 18L18 18L18 19L20 19L20 20L18 20L18 21L16 21L16 20L17 20L17 18L15 18L15 19L16 19L16 20L15 20L15 21L16 21L16 22L15 22L15 23L13 23L13 26L12 26L12 27L13 27L13 26L14 26L14 24L15 24L15 25L18 25L18 26L19 26L19 27L20 27L20 28L21 28L21 29L22 29L22 28L21 28L21 27L22 27L22 26L23 26L23 27L24 27L24 26L26 26L26 25L25 25L25 24L24 24L24 23L23 23L23 22L24 22L24 21L25 21L25 20L26 20L26 18L25 18L25 17L22 17L22 16L21 16L21 17L22 17L22 18L21 18L21 19L20 19L20 15L19 15L19 14L20 14L20 13L19 13L19 11L21 11L21 10L20 10L20 9L19 9L19 8L18 8L18 7L19 7L19 6L18 6L18 4ZM25 4L25 8L26 8L26 4ZM32 4L32 5L34 5L34 7L33 7L33 6L32 6L32 7L33 7L33 9L34 9L34 8L35 8L35 5L34 5L34 4ZM45 4L45 5L46 5L46 4ZM27 5L27 8L30 8L30 5ZM17 6L17 7L16 7L16 8L14 8L14 10L15 10L15 11L16 11L16 10L17 10L17 11L18 11L18 9L16 9L16 8L17 8L17 7L18 7L18 6ZM22 6L22 7L23 7L23 6ZM28 6L28 7L29 7L29 6ZM40 6L40 7L41 7L41 6ZM44 6L44 7L45 7L45 6ZM48 6L48 7L49 7L49 6ZM51 8L51 9L52 9L52 8ZM53 8L53 9L54 9L54 8ZM55 8L55 9L56 9L56 8ZM15 9L15 10L16 10L16 9ZM32 10L32 11L33 11L33 10ZM40 10L40 12L41 12L41 10ZM9 12L9 13L8 13L8 14L9 14L9 15L10 15L10 16L12 16L12 15L13 15L13 16L14 16L14 14L15 14L15 13L16 13L16 16L19 16L19 15L17 15L17 13L18 13L18 12L17 12L17 13L16 13L16 12L15 12L15 13L13 13L13 14L12 14L12 13L11 13L11 14L10 14L10 12ZM24 12L24 13L23 13L23 14L22 14L22 13L21 13L21 15L23 15L23 16L26 16L26 15L25 15L25 14L26 14L26 13L25 13L25 12ZM31 12L31 13L30 13L30 14L31 14L31 13L32 13L32 12ZM33 12L33 13L34 13L34 12ZM43 12L43 13L41 13L41 14L43 14L43 13L44 13L44 14L45 14L45 17L47 17L47 18L48 18L48 19L47 19L47 20L45 20L45 19L46 19L46 18L44 18L44 15L42 15L42 16L41 16L41 15L40 15L40 14L38 14L38 15L39 15L39 16L38 16L38 17L37 17L37 16L35 16L35 17L37 17L37 18L38 18L38 17L39 17L39 19L37 19L37 20L36 20L36 19L35 19L35 23L34 23L34 22L33 22L33 23L32 23L32 24L33 24L33 25L37 25L37 26L38 26L38 24L41 24L41 25L39 25L39 27L36 27L36 26L34 26L34 27L33 27L33 26L32 26L32 27L33 27L33 28L35 28L35 30L33 30L33 29L32 29L32 30L33 30L33 32L34 32L34 33L32 33L32 32L31 32L31 33L29 33L29 34L30 34L30 36L29 36L29 37L31 37L31 38L29 38L29 39L33 39L33 40L35 40L35 42L37 42L37 43L34 43L34 42L33 42L33 41L32 41L32 40L29 40L29 43L25 43L25 41L23 41L23 42L22 42L22 41L21 41L21 42L22 42L22 43L21 43L21 44L22 44L22 45L21 45L21 46L20 46L20 45L19 45L19 44L20 44L20 43L19 43L19 42L20 42L20 41L19 41L19 40L21 40L21 39L22 39L22 40L23 40L23 39L24 39L24 40L25 40L25 39L27 39L27 40L28 40L28 39L27 39L27 38L28 38L28 37L27 37L27 36L26 36L26 35L27 35L27 34L26 34L26 35L25 35L25 33L23 33L23 34L22 34L22 33L21 33L21 32L20 32L20 31L21 31L21 30L20 30L20 29L18 29L18 30L17 30L17 32L18 32L18 33L17 33L17 34L18 34L18 37L17 37L17 38L18 38L18 37L19 37L19 38L20 38L20 39L17 39L17 40L16 40L16 39L15 39L15 40L16 40L16 41L17 41L17 42L14 42L14 44L15 44L15 43L16 43L16 44L18 44L18 45L17 45L17 46L18 46L18 47L23 47L23 49L21 49L21 51L22 51L22 50L25 50L25 49L24 49L24 47L25 47L25 44L27 44L27 45L26 45L26 47L27 47L27 45L29 45L29 43L31 43L31 44L33 44L33 43L34 43L34 45L35 45L35 46L36 46L36 48L35 48L35 49L36 49L36 50L38 50L38 51L40 51L40 52L41 52L41 50L42 50L42 52L43 52L43 53L44 53L44 54L45 54L45 53L44 53L44 52L45 52L45 51L43 51L43 50L44 50L44 48L43 48L43 47L44 47L44 46L43 46L43 45L44 45L44 42L45 42L45 43L46 43L46 44L45 44L45 45L47 45L47 46L45 46L45 47L46 47L46 48L45 48L45 50L46 50L46 53L47 53L47 50L46 50L46 48L48 48L48 47L47 47L47 46L48 46L48 45L47 45L47 43L48 43L48 42L45 42L45 41L47 41L47 39L46 39L46 38L45 38L45 37L44 37L44 36L46 36L46 37L47 37L47 35L46 35L46 34L45 34L45 35L44 35L44 33L43 33L43 32L41 32L41 33L39 33L39 34L40 34L40 35L39 35L39 37L40 37L40 38L41 38L41 39L42 39L42 41L39 41L39 42L38 42L38 40L40 40L40 39L38 39L38 40L35 40L35 39L37 39L37 38L38 38L38 37L37 37L37 36L38 36L38 33L37 33L37 32L34 32L34 31L35 31L35 30L37 30L37 29L38 29L38 28L39 28L39 27L41 27L41 28L42 28L42 26L44 26L44 24L43 24L43 25L42 25L42 24L41 24L41 22L42 22L42 23L44 23L44 20L45 20L45 21L47 21L47 22L45 22L45 23L46 23L46 24L45 24L45 25L46 25L46 24L48 24L48 23L49 23L49 21L51 21L51 20L52 20L52 19L50 19L50 17L49 17L49 16L48 16L48 15L49 15L49 14L50 14L50 12L49 12L49 13L47 13L47 14L45 14L45 13L44 13L44 12ZM52 12L52 13L53 13L53 15L54 15L54 13L53 13L53 12ZM28 13L28 14L29 14L29 13ZM23 14L23 15L24 15L24 14ZM27 15L27 16L28 16L28 15ZM46 15L46 16L47 16L47 15ZM39 16L39 17L41 17L41 16ZM42 16L42 17L43 17L43 16ZM2 17L2 18L3 18L3 17ZM10 17L10 20L11 20L11 18L13 18L13 17ZM23 18L23 19L22 19L22 20L20 20L20 21L18 21L18 22L20 22L20 23L18 23L18 24L21 24L21 25L19 25L19 26L20 26L20 27L21 27L21 25L24 25L24 24L23 24L23 23L22 23L22 22L21 22L21 21L24 21L24 20L23 20L23 19L24 19L24 18ZM41 18L41 19L42 19L42 18ZM43 18L43 20L42 20L42 21L43 21L43 20L44 20L44 18ZM0 19L0 20L1 20L1 19ZM27 19L27 20L28 20L28 19ZM6 20L6 21L7 21L7 22L6 22L6 23L7 23L7 24L6 24L6 25L7 25L7 24L8 24L8 25L9 25L9 24L8 24L8 23L7 23L7 22L9 22L9 21L8 21L8 20ZM39 20L39 21L38 21L38 23L37 23L37 24L38 24L38 23L40 23L40 22L39 22L39 21L41 21L41 20ZM47 20L47 21L49 21L49 20ZM13 21L13 22L14 22L14 21ZM1 23L1 25L2 25L2 23ZM15 23L15 24L16 24L16 23ZM21 23L21 24L22 24L22 23ZM3 25L3 26L4 26L4 25ZM41 25L41 26L42 26L42 25ZM45 26L45 27L43 27L43 28L45 28L45 27L46 27L46 26ZM53 26L53 27L54 27L54 26ZM3 27L3 29L1 29L1 30L2 30L2 31L4 31L4 27ZM5 27L5 30L8 30L8 27ZM27 27L27 30L30 30L30 27ZM49 27L49 30L52 30L52 27ZM6 28L6 29L7 29L7 28ZM28 28L28 29L29 29L29 28ZM50 28L50 29L51 29L51 28ZM54 28L54 30L55 30L55 28ZM19 30L19 31L18 31L18 32L19 32L19 31L20 31L20 30ZM9 31L9 32L10 32L10 31ZM6 32L6 33L7 33L7 32ZM15 32L15 33L16 33L16 32ZM48 32L48 33L49 33L49 32ZM50 32L50 34L49 34L49 35L50 35L50 36L51 36L51 37L52 37L52 35L53 35L53 34L52 34L52 33L54 33L54 34L55 34L55 33L54 33L54 32L52 32L52 33L51 33L51 32ZM18 33L18 34L19 34L19 37L23 37L23 38L24 38L24 37L23 37L23 36L24 36L24 34L23 34L23 35L22 35L22 34L21 34L21 33L20 33L20 34L19 34L19 33ZM34 33L34 34L32 34L32 35L33 35L33 36L32 36L32 37L33 37L33 38L34 38L34 39L35 39L35 36L37 36L37 34L35 34L35 33ZM34 34L34 36L35 36L35 34ZM42 34L42 35L43 35L43 36L44 36L44 35L43 35L43 34ZM50 34L50 35L52 35L52 34ZM6 35L6 36L7 36L7 35ZM12 35L12 36L13 36L13 35ZM21 35L21 36L22 36L22 35ZM25 36L25 38L26 38L26 36ZM40 36L40 37L41 37L41 38L42 38L42 39L45 39L45 40L43 40L43 41L45 41L45 40L46 40L46 39L45 39L45 38L44 38L44 37L43 37L43 38L42 38L42 37L41 37L41 36ZM48 36L48 37L49 37L49 36ZM5 39L5 40L4 40L4 41L5 41L5 40L7 40L7 39ZM10 41L10 43L11 43L11 41ZM18 41L18 42L17 42L17 43L18 43L18 42L19 42L19 41ZM26 41L26 42L27 42L27 41ZM30 41L30 42L32 42L32 43L33 43L33 42L32 42L32 41ZM6 42L6 43L7 43L7 42ZM23 42L23 45L22 45L22 46L23 46L23 47L24 47L24 46L23 46L23 45L24 45L24 44L25 44L25 43L24 43L24 42ZM41 42L41 44L40 44L40 43L39 43L39 44L40 44L40 45L38 45L38 46L41 46L41 48L39 48L39 47L38 47L38 48L37 48L37 49L38 49L38 50L41 50L41 48L42 48L42 49L43 49L43 48L42 48L42 47L43 47L43 46L41 46L41 44L42 44L42 42ZM51 42L51 43L50 43L50 44L51 44L51 43L53 43L53 42ZM11 45L11 46L12 46L12 45ZM36 45L36 46L37 46L37 45ZM50 45L50 46L52 46L52 45ZM54 45L54 46L55 46L55 45ZM15 47L15 48L14 48L14 49L15 49L15 48L16 48L16 47ZM38 48L38 49L39 49L39 48ZM55 48L55 49L56 49L56 48ZM27 49L27 52L30 52L30 49ZM32 49L32 50L33 50L33 49ZM49 49L49 52L52 52L52 49ZM16 50L16 51L17 51L17 50ZM28 50L28 51L29 51L29 50ZM50 50L50 51L51 51L51 50ZM13 51L13 52L14 52L14 53L16 53L16 52L15 52L15 51ZM32 51L32 52L33 52L33 51ZM53 52L53 53L54 53L54 52ZM17 54L17 56L18 56L18 55L19 55L19 54ZM50 55L50 56L51 56L51 55ZM53 55L53 56L55 56L55 57L56 57L56 56L55 56L55 55ZM0 0L0 7L7 7L7 0ZM1 1L1 6L6 6L6 1ZM2 2L2 5L5 5L5 2ZM50 0L50 7L57 7L57 0ZM51 1L51 6L56 6L56 1ZM52 2L52 5L55 5L55 2ZM0 50L0 57L7 57L7 50ZM1 51L1 56L6 56L6 51ZM2 52L2 55L5 55L5 52Z" fill="#000000"/></g></g></svg>
