<?xml version="1.0" encoding="UTF-8"?>
<svg xmlns="http://www.w3.org/2000/svg" version="1.1" width="300" height="300" viewBox="0 0 300 300"><rect x="0" y="0" width="300" height="300" fill="#fefefe"/><g transform="scale(4.615)"><g transform="translate(4,4)"><path fill-rule="evenodd" d="M8 0L8 2L9 2L9 4L8 4L8 10L6 10L6 9L7 9L7 8L5 8L5 10L4 10L4 11L3 11L3 8L0 8L0 9L1 9L1 10L0 10L0 12L2 12L2 11L3 11L3 12L5 12L5 13L7 13L7 14L5 14L5 15L3 15L3 16L5 16L5 15L7 15L7 16L6 16L6 17L5 17L5 18L6 18L6 19L7 19L7 18L6 18L6 17L7 17L7 16L8 16L8 17L10 17L10 16L11 16L11 17L12 17L12 18L8 18L8 21L7 21L7 20L6 20L6 21L5 21L5 22L4 22L4 24L3 24L3 21L4 21L4 20L5 20L5 19L3 19L3 18L1 18L1 17L0 17L0 18L1 18L1 19L2 19L2 20L3 20L3 21L0 21L0 22L2 22L2 24L3 24L3 25L4 25L4 26L2 26L2 28L1 28L1 29L0 29L0 30L1 30L1 31L0 31L0 35L1 35L1 39L2 39L2 41L1 41L1 40L0 40L0 41L1 41L1 42L0 42L0 43L1 43L1 44L0 44L0 45L1 45L1 46L0 46L0 48L5 48L5 47L7 47L7 48L6 48L6 49L7 49L7 48L8 48L8 47L10 47L10 46L9 46L9 45L12 45L12 46L13 46L13 47L11 47L11 48L10 48L10 49L8 49L8 50L9 50L9 51L8 51L8 52L9 52L9 53L11 53L11 55L12 55L12 56L11 56L11 57L12 57L12 56L13 56L13 57L17 57L17 55L16 55L16 54L17 54L17 52L18 52L18 55L19 55L19 52L20 52L20 53L21 53L21 52L22 52L22 53L23 53L23 56L22 56L22 55L21 55L21 54L20 54L20 55L21 55L21 56L22 56L22 57L24 57L24 56L25 56L25 55L24 55L24 54L25 54L25 51L24 51L24 49L23 49L23 48L24 48L24 44L25 44L25 45L26 45L26 46L25 46L25 47L26 47L26 46L27 46L27 47L28 47L28 48L25 48L25 50L26 50L26 53L28 53L28 55L27 55L27 54L26 54L26 55L27 55L27 56L26 56L26 57L28 57L28 55L29 55L29 57L33 57L33 55L34 55L34 57L35 57L35 55L37 55L37 54L38 54L38 53L39 53L39 56L40 56L40 57L41 57L41 55L42 55L42 57L43 57L43 56L44 56L44 57L46 57L46 56L47 56L47 57L48 57L48 55L49 55L49 57L50 57L50 55L49 55L49 54L52 54L52 55L53 55L53 56L51 56L51 57L54 57L54 55L57 55L57 54L54 54L54 53L55 53L55 52L56 52L56 53L57 53L57 50L56 50L56 51L55 51L55 52L54 52L54 51L53 51L53 50L54 50L54 45L53 45L53 44L54 44L54 43L55 43L55 42L54 42L54 39L55 39L55 38L57 38L57 34L56 34L56 37L55 37L55 36L54 36L54 34L53 34L53 36L52 36L52 37L51 37L51 33L50 33L50 32L49 32L49 31L53 31L53 32L54 32L54 33L56 33L56 31L57 31L57 28L56 28L56 29L53 29L53 28L54 28L54 27L55 27L55 26L54 26L54 25L55 25L55 24L56 24L56 27L57 27L57 24L56 24L56 23L57 23L57 21L56 21L56 23L55 23L55 24L54 24L54 23L53 23L53 24L52 24L52 22L55 22L55 21L54 21L54 19L55 19L55 16L56 16L56 20L57 20L57 13L56 13L56 15L55 15L55 14L54 14L54 15L53 15L53 16L52 16L52 18L50 18L50 17L49 17L49 16L50 16L50 13L52 13L52 14L51 14L51 15L52 15L52 14L53 14L53 12L54 12L54 11L55 11L55 9L57 9L57 8L55 8L55 9L54 9L54 10L53 10L53 11L52 11L52 9L53 9L53 8L49 8L49 10L48 10L48 9L47 9L47 11L46 11L46 7L47 7L47 5L48 5L48 0L46 0L46 1L47 1L47 2L45 2L45 4L44 4L44 2L43 2L43 3L42 3L42 1L45 1L45 0L42 0L42 1L41 1L41 0L38 0L38 2L37 2L37 1L35 1L35 0L34 0L34 3L33 3L33 6L32 6L32 7L33 7L33 6L34 6L34 8L32 8L32 9L31 9L31 5L32 5L32 1L33 1L33 0L32 0L32 1L31 1L31 0L30 0L30 1L31 1L31 3L30 3L30 2L29 2L29 0L28 0L28 2L29 2L29 3L30 3L30 4L26 4L26 3L27 3L27 0L24 0L24 1L23 1L23 0L19 0L19 2L18 2L18 3L17 3L17 4L16 4L16 1L17 1L17 0L16 0L16 1L15 1L15 0L14 0L14 3L13 3L13 1L12 1L12 3L13 3L13 5L12 5L12 4L11 4L11 3L10 3L10 2L11 2L11 1L10 1L10 0ZM20 1L20 2L19 2L19 3L18 3L18 4L17 4L17 5L16 5L16 6L15 6L15 5L14 5L14 6L13 6L13 7L14 7L14 8L11 8L11 7L12 7L12 6L11 6L11 5L10 5L10 6L9 6L9 7L10 7L10 8L9 8L9 10L8 10L8 11L5 11L5 12L8 12L8 13L10 13L10 14L11 14L11 16L13 16L13 18L14 18L14 16L15 16L15 17L16 17L16 18L15 18L15 19L14 19L14 20L16 20L16 19L17 19L17 18L19 18L19 17L20 17L20 20L19 20L19 24L20 24L20 28L18 28L18 27L19 27L19 25L18 25L18 23L17 23L17 22L16 22L16 23L17 23L17 25L16 25L16 24L15 24L15 23L14 23L14 24L13 24L13 27L10 27L10 25L9 25L9 27L10 27L10 30L11 30L11 31L10 31L10 33L11 33L11 31L12 31L12 33L13 33L13 34L12 34L12 35L13 35L13 34L14 34L14 37L15 37L15 40L14 40L14 38L13 38L13 36L12 36L12 39L11 39L11 41L9 41L9 43L8 43L8 44L7 44L7 43L6 43L6 42L8 42L8 40L9 40L9 39L10 39L10 38L11 38L11 37L10 37L10 35L11 35L11 34L10 34L10 35L9 35L9 34L7 34L7 33L6 33L6 32L7 32L7 31L4 31L4 33L3 33L3 29L1 29L1 30L2 30L2 32L1 32L1 34L2 34L2 35L3 35L3 36L2 36L2 37L3 37L3 38L2 38L2 39L3 39L3 38L4 38L4 39L5 39L5 41L6 41L6 42L5 42L5 43L4 43L4 42L3 42L3 41L4 41L4 40L3 40L3 41L2 41L2 43L3 43L3 45L2 45L2 44L1 44L1 45L2 45L2 46L1 46L1 47L2 47L2 46L3 46L3 47L5 47L5 46L7 46L7 45L8 45L8 44L9 44L9 43L10 43L10 44L11 44L11 43L12 43L12 45L13 45L13 46L14 46L14 45L13 45L13 44L14 44L14 42L13 42L13 41L12 41L12 40L14 40L14 41L15 41L15 42L16 42L16 43L17 43L17 39L18 39L18 40L19 40L19 39L18 39L18 38L17 38L17 37L16 37L16 36L19 36L19 35L20 35L20 36L21 36L21 38L20 38L20 39L22 39L22 40L21 40L21 41L20 41L20 42L19 42L19 43L18 43L18 44L19 44L19 45L18 45L18 46L19 46L19 47L18 47L18 48L17 48L17 47L16 47L16 48L15 48L15 49L13 49L13 48L14 48L14 47L13 47L13 48L12 48L12 49L11 49L11 50L10 50L10 52L11 52L11 53L12 53L12 55L13 55L13 53L14 53L14 56L15 56L15 53L14 53L14 51L13 51L13 50L15 50L15 51L16 51L16 52L17 52L17 51L16 51L16 50L18 50L18 48L19 48L19 49L20 49L20 50L19 50L19 51L18 51L18 52L19 52L19 51L20 51L20 50L21 50L21 51L22 51L22 52L24 52L24 51L22 51L22 48L23 48L23 44L24 44L24 43L23 43L23 41L22 41L22 40L24 40L24 42L26 42L26 41L25 41L25 40L26 40L26 39L27 39L27 40L29 40L29 41L28 41L28 42L27 42L27 43L30 43L30 46L29 46L29 45L28 45L28 47L29 47L29 48L31 48L31 50L32 50L32 51L31 51L31 52L32 52L32 51L33 51L33 52L34 52L34 54L35 54L35 53L36 53L36 54L37 54L37 53L38 53L38 52L39 52L39 53L40 53L40 52L39 52L39 49L40 49L40 51L41 51L41 52L42 52L42 51L41 51L41 49L42 49L42 50L43 50L43 51L44 51L44 50L43 50L43 49L44 49L44 46L45 46L45 45L44 45L44 44L45 44L45 43L44 43L44 42L45 42L45 41L44 41L44 42L43 42L43 41L42 41L42 39L43 39L43 38L44 38L44 35L43 35L43 33L42 33L42 31L45 31L45 33L46 33L46 34L45 34L45 37L46 37L46 38L47 38L47 40L46 40L46 43L47 43L47 44L46 44L46 48L47 48L47 44L48 44L48 43L49 43L49 44L50 44L50 42L49 42L49 41L51 41L51 40L52 40L52 44L51 44L51 45L52 45L52 46L53 46L53 45L52 45L52 44L53 44L53 40L52 40L52 39L53 39L53 37L54 37L54 38L55 38L55 37L54 37L54 36L53 36L53 37L52 37L52 38L51 38L51 40L50 40L50 33L49 33L49 36L48 36L48 35L46 35L46 34L48 34L48 33L47 33L47 32L46 32L46 31L47 31L47 28L48 28L48 26L49 26L49 24L50 24L50 26L51 26L51 25L52 25L52 26L53 26L53 25L54 25L54 24L53 24L53 25L52 25L52 24L50 24L50 23L51 23L51 22L52 22L52 20L53 20L53 19L54 19L54 17L53 17L53 18L52 18L52 19L51 19L51 20L49 20L49 17L48 17L48 18L47 18L47 17L46 17L46 18L47 18L47 19L45 19L45 17L44 17L44 16L47 16L47 15L48 15L48 14L49 14L49 13L50 13L50 11L51 11L51 12L52 12L52 11L51 11L51 9L50 9L50 10L49 10L49 12L48 12L48 14L47 14L47 13L46 13L46 11L45 11L45 9L44 9L44 6L45 6L45 7L46 7L46 6L45 6L45 5L44 5L44 4L43 4L43 5L42 5L42 3L41 3L41 2L40 2L40 1L39 1L39 2L38 2L38 3L37 3L37 2L35 2L35 3L34 3L34 4L35 4L35 9L34 9L34 10L33 10L33 9L32 9L32 11L31 11L31 9L30 9L30 11L29 11L29 9L27 9L27 10L25 10L25 9L26 9L26 5L24 5L24 6L23 6L23 5L22 5L22 6L21 6L21 9L20 9L20 8L19 8L19 7L20 7L20 5L21 5L21 3L20 3L20 2L21 2L21 1ZM22 1L22 2L23 2L23 1ZM24 1L24 4L25 4L25 1ZM39 2L39 3L38 3L38 5L37 5L37 6L36 6L36 10L34 10L34 11L32 11L32 13L31 13L31 14L32 14L32 13L33 13L33 15L34 15L34 17L33 17L33 16L32 16L32 18L31 18L31 19L30 19L30 20L28 20L28 19L27 19L27 18L26 18L26 17L27 17L27 16L26 16L26 15L27 15L27 14L28 14L28 15L29 15L29 16L30 16L30 17L28 17L28 18L30 18L30 17L31 17L31 16L30 16L30 15L29 15L29 13L30 13L30 12L31 12L31 11L30 11L30 12L29 12L29 11L28 11L28 10L27 10L27 11L28 11L28 12L27 12L27 14L26 14L26 15L25 15L25 18L24 18L24 16L22 16L22 14L20 14L20 13L21 13L21 10L20 10L20 9L19 9L19 8L18 8L18 7L19 7L19 4L18 4L18 7L17 7L17 6L16 6L16 7L17 7L17 10L16 10L16 11L17 11L17 14L15 14L15 15L18 15L18 17L19 17L19 15L20 15L20 17L21 17L21 18L22 18L22 22L20 22L20 23L22 23L22 26L21 26L21 30L20 30L20 29L19 29L19 30L18 30L18 33L17 33L17 35L18 35L18 33L19 33L19 34L20 34L20 35L21 35L21 36L22 36L22 38L23 38L23 36L22 36L22 35L21 35L21 34L20 34L20 33L19 33L19 31L21 31L21 30L22 30L22 33L23 33L23 35L25 35L25 36L24 36L24 37L26 37L26 38L24 38L24 39L26 39L26 38L27 38L27 37L26 37L26 36L28 36L28 37L29 37L29 36L28 36L28 35L31 35L31 36L30 36L30 41L29 41L29 42L30 42L30 43L31 43L31 46L30 46L30 47L31 47L31 48L32 48L32 50L34 50L34 52L36 52L36 53L37 53L37 52L38 52L38 47L37 47L37 48L36 48L36 49L37 49L37 51L35 51L35 50L34 50L34 49L35 49L35 48L34 48L34 49L33 49L33 47L34 47L34 45L33 45L33 44L36 44L36 45L35 45L35 47L36 47L36 45L37 45L37 46L38 46L38 45L37 45L37 44L40 44L40 45L39 45L39 46L41 46L41 47L40 47L40 49L41 49L41 47L42 47L42 45L43 45L43 44L42 44L42 45L41 45L41 44L40 44L40 42L42 42L42 43L43 43L43 42L42 42L42 41L41 41L41 40L40 40L40 39L41 39L41 38L42 38L42 37L43 37L43 36L42 36L42 37L41 37L41 35L40 35L40 36L39 36L39 34L38 34L38 33L39 33L39 32L40 32L40 34L42 34L42 33L41 33L41 32L40 32L40 31L42 31L42 28L43 28L43 30L44 30L44 29L46 29L46 28L47 28L47 26L48 26L48 24L49 24L49 23L50 23L50 22L49 22L49 23L48 23L48 22L47 22L47 23L45 23L45 22L44 22L44 21L45 21L45 19L44 19L44 17L43 17L43 18L42 18L42 17L41 17L41 15L42 15L42 12L44 12L44 13L43 13L43 16L44 16L44 15L46 15L46 13L45 13L45 12L44 12L44 9L43 9L43 10L42 10L42 8L43 8L43 6L44 6L44 5L43 5L43 6L42 6L42 8L40 8L40 7L41 7L41 6L40 6L40 7L39 7L39 6L38 6L38 5L39 5L39 4L40 4L40 2ZM14 3L14 4L15 4L15 3ZM22 3L22 4L23 4L23 3ZM35 3L35 4L36 4L36 3ZM46 3L46 5L47 5L47 3ZM27 5L27 8L30 8L30 5ZM10 6L10 7L11 7L11 6ZM14 6L14 7L15 7L15 6ZM22 6L22 7L23 7L23 6ZM24 6L24 7L25 7L25 6ZM28 6L28 7L29 7L29 6ZM37 6L37 9L38 9L38 10L37 10L37 11L34 11L34 12L35 12L35 13L34 13L34 15L35 15L35 17L34 17L34 19L33 19L33 20L35 20L35 21L34 21L34 22L33 22L33 21L32 21L32 20L30 20L30 22L29 22L29 21L28 21L28 20L27 20L27 19L26 19L26 20L27 20L27 22L26 22L26 23L27 23L27 25L26 25L26 26L27 26L27 25L28 25L28 26L29 26L29 25L28 25L28 22L29 22L29 23L30 23L30 22L33 22L33 24L34 24L34 26L33 26L33 25L32 25L32 23L31 23L31 25L30 25L30 26L31 26L31 25L32 25L32 27L31 27L31 30L32 30L32 28L33 28L33 29L34 29L34 31L32 31L32 32L30 32L30 31L28 31L28 32L26 32L26 33L25 33L25 32L24 32L24 34L25 34L25 35L26 35L26 34L27 34L27 35L28 35L28 34L29 34L29 32L30 32L30 34L31 34L31 33L32 33L32 32L33 32L33 37L34 37L34 39L33 39L33 38L31 38L31 41L30 41L30 42L31 42L31 43L32 43L32 40L33 40L33 41L34 41L34 42L35 42L35 41L36 41L36 44L37 44L37 43L39 43L39 42L40 42L40 40L39 40L39 41L38 41L38 38L39 38L39 39L40 39L40 38L39 38L39 37L38 37L38 36L37 36L37 37L36 37L36 35L38 35L38 34L37 34L37 33L36 33L36 31L37 31L37 32L38 32L38 31L40 31L40 30L39 30L39 29L40 29L40 28L41 28L41 26L40 26L40 23L41 23L41 22L40 22L40 19L41 19L41 18L40 18L40 14L41 14L41 13L40 13L40 12L37 12L37 11L41 11L41 12L42 12L42 11L41 11L41 9L40 9L40 8L39 8L39 9L38 9L38 6ZM48 6L48 7L49 7L49 6ZM14 8L14 9L13 9L13 10L14 10L14 9L15 9L15 8ZM22 8L22 9L23 9L23 10L24 10L24 12L23 12L23 11L22 11L22 12L23 12L23 14L24 14L24 13L26 13L26 11L25 11L25 10L24 10L24 9L25 9L25 8L24 8L24 9L23 9L23 8ZM39 9L39 10L40 10L40 9ZM1 10L1 11L2 11L2 10ZM9 10L9 11L8 11L8 12L9 12L9 11L10 11L10 13L11 13L11 12L12 12L12 10L11 10L11 11L10 11L10 10ZM56 10L56 11L57 11L57 10ZM14 11L14 12L15 12L15 11ZM18 11L18 12L19 12L19 13L18 13L18 14L19 14L19 13L20 13L20 12L19 12L19 11ZM36 12L36 13L37 13L37 14L36 14L36 18L35 18L35 20L36 20L36 21L35 21L35 22L34 22L34 24L36 24L36 26L37 26L37 28L36 28L36 27L34 27L34 29L35 29L35 31L36 31L36 29L37 29L37 28L38 28L38 29L39 29L39 28L40 28L40 26L38 26L38 25L39 25L39 23L38 23L38 21L39 21L39 19L40 19L40 18L38 18L38 16L37 16L37 15L38 15L38 13L37 13L37 12ZM3 13L3 14L4 14L4 13ZM12 13L12 14L13 14L13 16L14 16L14 14L13 14L13 13ZM39 13L39 14L40 14L40 13ZM44 13L44 14L45 14L45 13ZM1 14L1 16L2 16L2 14ZM54 15L54 16L55 16L55 15ZM36 18L36 19L37 19L37 21L36 21L36 22L35 22L35 23L36 23L36 24L37 24L37 25L38 25L38 23L36 23L36 22L37 22L37 21L38 21L38 19L37 19L37 18ZM9 19L9 21L10 21L10 22L11 22L11 23L8 23L8 22L7 22L7 21L6 21L6 22L5 22L5 23L6 23L6 24L7 24L7 25L5 25L5 24L4 24L4 25L5 25L5 26L7 26L7 25L8 25L8 24L11 24L11 25L12 25L12 23L13 23L13 22L11 22L11 20L12 20L12 19ZM24 19L24 20L25 20L25 19ZM42 19L42 20L43 20L43 21L42 21L42 22L43 22L43 23L42 23L42 27L44 27L44 26L45 26L45 25L46 25L46 26L47 26L47 25L46 25L46 24L45 24L45 23L44 23L44 22L43 22L43 21L44 21L44 19ZM47 19L47 20L46 20L46 21L47 21L47 20L48 20L48 19ZM20 20L20 21L21 21L21 20ZM14 21L14 22L15 22L15 21ZM6 22L6 23L7 23L7 24L8 24L8 23L7 23L7 22ZM22 22L22 23L23 23L23 22ZM24 22L24 23L25 23L25 22ZM43 23L43 24L44 24L44 25L43 25L43 26L44 26L44 25L45 25L45 24L44 24L44 23ZM0 24L0 25L1 25L1 24ZM23 24L23 25L24 25L24 26L23 26L23 27L22 27L22 28L24 28L24 30L23 30L23 29L22 29L22 30L23 30L23 31L26 31L26 30L25 30L25 28L24 28L24 27L25 27L25 25L24 25L24 24ZM14 25L14 27L13 27L13 28L12 28L12 29L11 29L11 30L12 30L12 31L16 31L16 32L15 32L15 33L14 33L14 34L16 34L16 32L17 32L17 31L16 31L16 30L15 30L15 27L16 27L16 25ZM17 25L17 26L18 26L18 25ZM0 26L0 27L1 27L1 26ZM3 27L3 28L4 28L4 27ZM5 27L5 30L8 30L8 27ZM27 27L27 30L30 30L30 27ZM49 27L49 30L52 30L52 27ZM6 28L6 29L7 29L7 28ZM28 28L28 29L29 29L29 28ZM35 28L35 29L36 29L36 28ZM50 28L50 29L51 29L51 28ZM12 29L12 30L14 30L14 29ZM37 30L37 31L38 31L38 30ZM45 30L45 31L46 31L46 30ZM54 30L54 32L55 32L55 31L56 31L56 30ZM8 31L8 33L9 33L9 31ZM34 32L34 33L35 33L35 35L34 35L34 37L35 37L35 38L36 38L36 41L37 41L37 42L38 42L38 41L37 41L37 38L38 38L38 37L37 37L37 38L36 38L36 37L35 37L35 35L36 35L36 33L35 33L35 32ZM27 33L27 34L28 34L28 33ZM3 34L3 35L4 35L4 34ZM6 34L6 35L7 35L7 34ZM8 35L8 36L6 36L6 37L4 37L4 38L6 38L6 39L7 39L7 40L6 40L6 41L7 41L7 40L8 40L8 39L7 39L7 38L8 38L8 36L9 36L9 35ZM15 35L15 36L16 36L16 35ZM31 36L31 37L32 37L32 36ZM46 36L46 37L48 37L48 40L47 40L47 41L48 41L48 40L49 40L49 37L48 37L48 36ZM6 37L6 38L7 38L7 37ZM16 38L16 39L17 39L17 38ZM28 38L28 39L29 39L29 38ZM34 39L34 41L35 41L35 39ZM55 40L55 41L56 41L56 44L55 44L55 45L56 45L56 47L55 47L55 49L56 49L56 47L57 47L57 45L56 45L56 44L57 44L57 40ZM10 42L10 43L11 43L11 42ZM20 42L20 43L19 43L19 44L21 44L21 42ZM22 43L22 44L23 44L23 43ZM6 44L6 45L7 45L7 44ZM15 44L15 45L16 45L16 46L17 46L17 44ZM32 45L32 46L31 46L31 47L33 47L33 45ZM48 45L48 46L49 46L49 47L50 47L50 48L52 48L52 47L50 47L50 45ZM20 46L20 47L19 47L19 48L20 48L20 49L21 49L21 48L22 48L22 46ZM20 47L20 48L21 48L21 47ZM16 48L16 49L15 49L15 50L16 50L16 49L17 49L17 48ZM12 49L12 50L13 50L13 49ZM27 49L27 52L30 52L30 49ZM46 49L46 50L47 50L47 49ZM49 49L49 52L52 52L52 49ZM28 50L28 51L29 51L29 50ZM50 50L50 51L51 51L51 50ZM47 51L47 52L45 52L45 53L46 53L46 54L45 54L45 55L44 55L44 52L43 52L43 53L42 53L42 54L43 54L43 55L44 55L44 56L46 56L46 54L47 54L47 55L48 55L48 54L49 54L49 53L47 53L47 52L48 52L48 51ZM12 52L12 53L13 53L13 52ZM31 53L31 54L30 54L30 55L33 55L33 54L32 54L32 53ZM8 54L8 57L10 57L10 56L9 56L9 55L10 55L10 54ZM40 54L40 55L41 55L41 54ZM18 56L18 57L20 57L20 56ZM36 56L36 57L37 57L37 56ZM56 56L56 57L57 57L57 56ZM0 0L0 7L7 7L7 0ZM1 1L1 6L6 6L6 1ZM2 2L2 5L5 5L5 2ZM50 0L50 7L57 7L57 0ZM51 1L51 6L56 6L56 1ZM52 2L52 5L55 5L55 2ZM0 50L0 57L7 57L7 50ZM1 51L1 56L6 56L6 51ZM2 52L2 55L5 55L5 52Z" fill="#000000"/></g></g></svg>
