<?xml version="1.0" encoding="UTF-8"?>
<svg xmlns="http://www.w3.org/2000/svg" version="1.1" width="300" height="300" viewBox="0 0 300 300"><rect x="0" y="0" width="300" height="300" fill="#fefefe"/><g transform="scale(4.615)"><g transform="translate(4,4)"><path fill-rule="evenodd" d="M8 0L8 2L9 2L9 1L10 1L10 0ZM11 0L11 2L10 2L10 3L9 3L9 4L8 4L8 12L5 12L5 9L7 9L7 8L5 8L5 9L4 9L4 10L2 10L2 9L3 9L3 8L0 8L0 9L1 9L1 10L2 10L2 11L1 11L1 12L0 12L0 14L1 14L1 17L2 17L2 15L3 15L3 14L4 14L4 13L7 13L7 14L5 14L5 15L4 15L4 16L3 16L3 17L4 17L4 18L3 18L3 20L2 20L2 18L0 18L0 19L1 19L1 22L0 22L0 23L1 23L1 22L2 22L2 24L1 24L1 25L0 25L0 26L1 26L1 27L2 27L2 29L1 29L1 28L0 28L0 31L1 31L1 32L2 32L2 29L3 29L3 32L4 32L4 31L9 31L9 27L10 27L10 26L9 26L9 25L11 25L11 24L12 24L12 23L14 23L14 24L13 24L13 25L12 25L12 27L11 27L11 28L12 28L12 29L11 29L11 30L10 30L10 31L11 31L11 30L12 30L12 31L13 31L13 32L12 32L12 33L11 33L11 32L10 32L10 33L11 33L11 34L9 34L9 35L7 35L7 34L4 34L4 35L3 35L3 34L2 34L2 33L1 33L1 34L0 34L0 36L1 36L1 37L0 37L0 42L2 42L2 43L3 43L3 42L5 42L5 41L9 41L9 42L10 42L10 44L12 44L12 45L11 45L11 46L10 46L10 47L9 47L9 46L8 46L8 44L9 44L9 43L7 43L7 42L6 42L6 43L7 43L7 44L3 44L3 46L2 46L2 45L1 45L1 46L0 46L0 48L5 48L5 47L8 47L8 48L6 48L6 49L8 49L8 50L10 50L10 49L8 49L8 48L11 48L11 50L12 50L12 51L11 51L11 52L12 52L12 54L11 54L11 53L10 53L10 52L9 52L9 51L8 51L8 52L9 52L9 54L8 54L8 57L9 57L9 54L11 54L11 55L13 55L13 56L14 56L14 57L17 57L17 55L18 55L18 53L19 53L19 51L20 51L20 53L21 53L21 54L20 54L20 55L21 55L21 56L20 56L20 57L21 57L21 56L22 56L22 57L25 57L25 55L26 55L26 57L28 57L28 55L29 55L29 57L33 57L33 55L34 55L34 57L35 57L35 55L38 55L38 53L39 53L39 57L41 57L41 55L40 55L40 54L42 54L42 57L43 57L43 56L44 56L44 57L45 57L45 56L46 56L46 55L47 55L47 57L50 57L50 55L49 55L49 54L52 54L52 55L53 55L53 56L51 56L51 57L54 57L54 53L55 53L55 52L54 52L54 51L53 51L53 50L54 50L54 46L53 46L53 47L51 47L51 46L52 46L52 45L51 45L51 44L52 44L52 40L54 40L54 41L53 41L53 44L54 44L54 43L55 43L55 44L56 44L56 47L55 47L55 50L56 50L56 51L57 51L57 50L56 50L56 47L57 47L57 42L56 42L56 41L57 41L57 40L54 40L54 38L57 38L57 36L56 36L56 35L57 35L57 33L56 33L56 31L57 31L57 29L56 29L56 28L57 28L57 24L56 24L56 23L57 23L57 20L56 20L56 23L55 23L55 21L54 21L54 19L57 19L57 13L56 13L56 11L57 11L57 10L56 10L56 9L57 9L57 8L55 8L55 9L54 9L54 10L52 10L52 9L53 9L53 8L49 8L49 6L48 6L48 9L47 9L47 11L46 11L46 8L47 8L47 5L48 5L48 0L46 0L46 1L47 1L47 2L45 2L45 4L44 4L44 2L43 2L43 3L42 3L42 5L41 5L41 6L40 6L40 7L41 7L41 8L40 8L40 10L38 10L38 8L39 8L39 6L38 6L38 7L37 7L37 6L36 6L36 10L34 10L34 9L35 9L35 4L36 4L36 3L35 3L35 2L37 2L37 4L38 4L38 5L39 5L39 4L40 4L40 2L42 2L42 1L45 1L45 0L42 0L42 1L41 1L41 0L38 0L38 2L37 2L37 1L35 1L35 0L34 0L34 2L33 2L33 3L34 3L34 8L32 8L32 9L31 9L31 5L32 5L32 1L33 1L33 0L32 0L32 1L31 1L31 0L26 0L26 2L25 2L25 4L24 4L24 1L25 1L25 0L24 0L24 1L23 1L23 0L20 0L20 1L19 1L19 0L18 0L18 1L17 1L17 0L16 0L16 3L15 3L15 1L14 1L14 0ZM13 1L13 2L11 2L11 3L10 3L10 5L9 5L9 7L10 7L10 8L11 8L11 10L10 10L10 11L11 11L11 12L10 12L10 13L9 13L9 15L8 15L8 14L7 14L7 15L5 15L5 16L7 16L7 17L5 17L5 18L4 18L4 20L5 20L5 22L4 22L4 21L3 21L3 22L4 22L4 23L3 23L3 24L4 24L4 26L3 26L3 25L1 25L1 26L2 26L2 27L4 27L4 26L7 26L7 25L6 25L6 24L7 24L7 23L6 23L6 22L7 22L7 21L9 21L9 20L10 20L10 19L11 19L11 18L12 18L12 20L11 20L11 23L10 23L10 22L9 22L9 23L8 23L8 25L9 25L9 23L10 23L10 24L11 24L11 23L12 23L12 21L13 21L13 18L15 18L15 19L14 19L14 20L15 20L15 19L18 19L18 20L17 20L17 21L18 21L18 22L16 22L16 23L18 23L18 22L19 22L19 25L18 25L18 24L17 24L17 25L16 25L16 26L17 26L17 27L16 27L16 28L14 28L14 26L15 26L15 24L14 24L14 25L13 25L13 27L12 27L12 28L13 28L13 30L16 30L16 31L15 31L15 32L13 32L13 33L12 33L12 34L11 34L11 36L10 36L10 35L9 35L9 36L8 36L8 37L9 37L9 36L10 36L10 37L11 37L11 36L12 36L12 35L13 35L13 34L14 34L14 35L16 35L16 36L15 36L15 39L14 39L14 40L13 40L13 39L11 39L11 38L9 38L9 41L10 41L10 42L12 42L12 43L13 43L13 45L14 45L14 44L15 44L15 45L16 45L16 47L15 47L15 46L12 46L12 47L11 47L11 48L12 48L12 50L13 50L13 53L14 53L14 49L13 49L13 47L14 47L14 48L15 48L15 49L16 49L16 50L15 50L15 51L17 51L17 50L19 50L19 49L18 49L18 46L19 46L19 47L20 47L20 51L21 51L21 50L22 50L22 48L23 48L23 49L24 49L24 51L22 51L22 52L21 52L21 53L22 53L22 56L23 56L23 53L22 53L22 52L24 52L24 51L25 51L25 54L24 54L24 55L25 55L25 54L26 54L26 55L28 55L28 53L26 53L26 50L25 50L25 49L26 49L26 48L27 48L27 47L28 47L28 48L31 48L31 52L32 52L32 47L33 47L33 48L34 48L34 50L35 50L35 51L37 51L37 49L36 49L36 48L37 48L37 47L38 47L38 52L39 52L39 53L40 53L40 52L39 52L39 49L40 49L40 51L41 51L41 49L42 49L42 50L43 50L43 51L44 51L44 50L45 50L45 49L44 49L44 48L45 48L45 47L44 47L44 46L43 46L43 45L44 45L44 44L45 44L45 43L46 43L46 42L47 42L47 44L46 44L46 48L47 48L47 46L48 46L48 45L47 45L47 44L48 44L48 42L49 42L49 46L50 46L50 42L49 42L49 41L51 41L51 40L52 40L52 38L54 38L54 36L55 36L55 37L56 37L56 36L55 36L55 35L56 35L56 34L55 34L55 31L56 31L56 30L55 30L55 28L56 28L56 24L55 24L55 23L54 23L54 21L53 21L53 22L52 22L52 20L53 20L53 19L54 19L54 17L56 17L56 16L55 16L55 15L56 15L56 13L55 13L55 11L56 11L56 10L55 10L55 11L54 11L54 12L53 12L53 14L52 14L52 13L50 13L50 10L51 10L51 12L52 12L52 10L51 10L51 9L50 9L50 10L49 10L49 9L48 9L48 10L49 10L49 12L48 12L48 11L47 11L47 12L48 12L48 14L47 14L47 13L46 13L46 11L45 11L45 10L44 10L44 8L45 8L45 7L46 7L46 5L47 5L47 3L46 3L46 5L44 5L44 4L43 4L43 5L42 5L42 6L41 6L41 7L42 7L42 8L41 8L41 9L42 9L42 10L40 10L40 11L41 11L41 12L42 12L42 15L41 15L41 14L40 14L40 15L39 15L39 13L40 13L40 12L37 12L37 11L38 11L38 10L37 10L37 11L36 11L36 12L35 12L35 11L34 11L34 10L33 10L33 9L32 9L32 11L31 11L31 12L30 12L30 11L29 11L29 10L28 10L28 9L27 9L27 10L25 10L25 9L26 9L26 5L24 5L24 6L23 6L23 3L22 3L22 2L21 2L21 3L20 3L20 2L18 2L18 4L19 4L19 7L18 7L18 5L16 5L16 6L15 6L15 5L14 5L14 6L13 6L13 5L12 5L12 4L13 4L13 3L14 3L14 4L15 4L15 3L14 3L14 1ZM27 1L27 3L26 3L26 4L27 4L27 3L28 3L28 4L31 4L31 3L30 3L30 2L29 2L29 3L28 3L28 1ZM39 1L39 2L38 2L38 4L39 4L39 2L40 2L40 1ZM16 3L16 4L17 4L17 3ZM21 3L21 4L22 4L22 3ZM10 5L10 7L11 7L11 6L12 6L12 7L13 7L13 8L14 8L14 9L15 9L15 10L16 10L16 11L14 11L14 12L17 12L17 14L15 14L15 15L14 15L14 17L15 17L15 18L16 18L16 17L15 17L15 15L17 15L17 16L18 16L18 17L19 17L19 18L18 18L18 19L19 19L19 20L18 20L18 21L19 21L19 20L20 20L20 21L21 21L21 19L20 19L20 17L21 17L21 18L22 18L22 19L23 19L23 20L22 20L22 21L23 21L23 22L20 22L20 23L21 23L21 24L22 24L22 25L21 25L21 26L20 26L20 27L18 27L18 28L19 28L19 31L18 31L18 33L17 33L17 34L18 34L18 37L17 37L17 36L16 36L16 37L17 37L17 38L16 38L16 39L17 39L17 40L15 40L15 41L13 41L13 40L12 40L12 42L13 42L13 43L14 43L14 42L15 42L15 44L17 44L17 46L18 46L18 45L19 45L19 46L20 46L20 45L21 45L21 44L20 44L20 43L21 43L21 42L22 42L22 41L23 41L23 42L24 42L24 43L25 43L25 45L26 45L26 46L25 46L25 47L24 47L24 46L23 46L23 47L24 47L24 48L25 48L25 47L26 47L26 46L28 46L28 47L29 47L29 46L30 46L30 47L31 47L31 46L32 46L32 45L33 45L33 47L34 47L34 48L35 48L35 47L36 47L36 46L38 46L38 45L37 45L37 44L39 44L39 43L40 43L40 46L39 46L39 47L40 47L40 49L41 49L41 47L42 47L42 45L43 45L43 44L42 44L42 45L41 45L41 42L42 42L42 43L44 43L44 41L45 41L45 42L46 42L46 41L48 41L48 40L51 40L51 38L52 38L52 37L53 37L53 36L54 36L54 34L53 34L53 36L52 36L52 37L51 37L51 33L50 33L50 31L51 31L51 32L52 32L52 31L53 31L53 28L54 28L54 27L55 27L55 26L54 26L54 23L52 23L52 22L51 22L51 23L52 23L52 26L50 26L50 25L49 25L49 24L50 24L50 22L49 22L49 23L48 23L48 20L46 20L46 19L44 19L44 17L45 17L45 18L46 18L46 17L47 17L47 19L48 19L48 17L49 17L49 20L51 20L51 19L52 19L52 17L54 17L54 15L52 15L52 14L51 14L51 15L50 15L50 13L49 13L49 14L48 14L48 15L47 15L47 16L46 16L46 17L45 17L45 16L44 16L44 15L46 15L46 13L45 13L45 12L44 12L44 13L43 13L43 16L44 16L44 17L43 17L43 18L42 18L42 17L41 17L41 15L40 15L40 18L38 18L38 16L37 16L37 15L38 15L38 13L37 13L37 12L36 12L36 13L35 13L35 12L34 12L34 11L33 11L33 12L32 12L32 14L31 14L31 15L32 15L32 14L33 14L33 15L34 15L34 17L33 17L33 16L32 16L32 18L33 18L33 19L31 19L31 20L30 20L30 19L28 19L28 22L27 22L27 20L26 20L26 19L27 19L27 16L26 16L26 15L27 15L27 14L28 14L28 15L29 15L29 16L30 16L30 17L28 17L28 18L30 18L30 17L31 17L31 16L30 16L30 15L29 15L29 13L30 13L30 12L29 12L29 11L28 11L28 10L27 10L27 11L28 11L28 12L27 12L27 14L25 14L25 18L24 18L24 12L25 12L25 13L26 13L26 11L24 11L24 9L25 9L25 8L24 8L24 9L23 9L23 8L22 8L22 10L23 10L23 11L22 11L22 12L23 12L23 16L22 16L22 14L21 14L21 15L20 15L20 17L19 17L19 16L18 16L18 15L19 15L19 14L20 14L20 13L21 13L21 12L18 12L18 11L19 11L19 10L20 10L20 9L21 9L21 6L22 6L22 7L23 7L23 6L22 6L22 5L20 5L20 7L19 7L19 8L18 8L18 7L17 7L17 6L16 6L16 7L17 7L17 8L18 8L18 9L17 9L17 10L16 10L16 9L15 9L15 6L14 6L14 7L13 7L13 6L12 6L12 5ZM27 5L27 8L30 8L30 5ZM43 5L43 6L42 6L42 7L43 7L43 8L44 8L44 7L45 7L45 6L44 6L44 5ZM24 6L24 7L25 7L25 6ZM28 6L28 7L29 7L29 6ZM32 6L32 7L33 7L33 6ZM43 6L43 7L44 7L44 6ZM19 8L19 9L18 9L18 10L19 10L19 9L20 9L20 8ZM12 9L12 12L11 12L11 13L12 13L12 14L13 14L13 9ZM30 9L30 10L31 10L31 9ZM6 10L6 11L7 11L7 10ZM42 10L42 12L43 12L43 11L44 11L44 10ZM2 11L2 12L1 12L1 14L2 14L2 12L3 12L3 13L4 13L4 12L3 12L3 11ZM23 11L23 12L24 12L24 11ZM18 13L18 14L17 14L17 15L18 15L18 14L19 14L19 13ZM34 13L34 15L35 15L35 17L34 17L34 19L33 19L33 21L32 21L32 20L31 20L31 21L29 21L29 22L28 22L28 23L27 23L27 22L26 22L26 23L27 23L27 25L26 25L26 26L29 26L29 25L30 25L30 26L31 26L31 25L32 25L32 28L31 28L31 29L32 29L32 28L33 28L33 29L34 29L34 32L35 32L35 33L34 33L34 35L33 35L33 34L31 34L31 33L32 33L32 32L33 32L33 31L31 31L31 32L30 32L30 34L31 34L31 35L28 35L28 34L29 34L29 32L28 32L28 31L27 31L27 32L26 32L26 33L25 33L25 31L26 31L26 30L25 30L25 29L24 29L24 27L22 27L22 28L23 28L23 29L22 29L22 30L21 30L21 27L20 27L20 31L19 31L19 32L20 32L20 31L21 31L21 33L20 33L20 34L23 34L23 33L22 33L22 30L23 30L23 31L24 31L24 34L26 34L26 36L25 36L25 35L23 35L23 37L22 37L22 36L21 36L21 37L22 37L22 39L21 39L21 38L20 38L20 39L21 39L21 41L20 41L20 40L19 40L19 38L18 38L18 40L17 40L17 41L16 41L16 43L17 43L17 41L18 41L18 40L19 40L19 41L20 41L20 42L21 42L21 41L22 41L22 39L23 39L23 41L24 41L24 42L26 42L26 41L25 41L25 40L27 40L27 41L28 41L28 42L27 42L27 43L28 43L28 42L29 42L29 45L28 45L28 46L29 46L29 45L30 45L30 42L29 42L29 40L30 40L30 36L31 36L31 37L32 37L32 36L31 36L31 35L33 35L33 37L34 37L34 38L31 38L31 43L32 43L32 40L33 40L33 41L34 41L34 42L35 42L35 41L36 41L36 43L35 43L35 44L33 44L33 45L34 45L34 47L35 47L35 45L36 45L36 44L37 44L37 43L39 43L39 42L40 42L40 40L43 40L43 38L44 38L44 34L45 34L45 35L46 35L46 36L45 36L45 37L46 37L46 38L45 38L45 41L46 41L46 38L47 38L47 40L48 40L48 37L50 37L50 38L51 38L51 37L50 37L50 33L49 33L49 34L48 34L48 33L46 33L46 34L45 34L45 33L44 33L44 34L43 34L43 33L42 33L42 31L43 31L43 28L42 28L42 31L41 31L41 30L40 30L40 27L43 27L43 26L45 26L45 27L46 27L46 26L47 26L47 27L48 27L48 26L49 26L49 25L48 25L48 24L46 24L46 23L47 23L47 21L46 21L46 20L45 20L45 21L44 21L44 19L42 19L42 20L43 20L43 21L42 21L42 24L41 24L41 25L40 25L40 24L39 24L39 23L41 23L41 22L40 22L40 19L41 19L41 18L40 18L40 19L39 19L39 20L37 20L37 21L36 21L36 20L34 20L34 19L35 19L35 18L36 18L36 19L37 19L37 18L36 18L36 15L37 15L37 13L36 13L36 14L35 14L35 13ZM10 14L10 15L9 15L9 16L8 16L8 15L7 15L7 16L8 16L8 17L7 17L7 18L6 18L6 19L9 19L9 18L10 18L10 17L13 17L13 15L12 15L12 16L11 16L11 14ZM49 15L49 16L50 16L50 18L51 18L51 17L52 17L52 16L50 16L50 15ZM25 18L25 19L24 19L24 20L25 20L25 19L26 19L26 18ZM6 20L6 21L7 21L7 20ZM14 21L14 22L15 22L15 21ZM33 21L33 22L31 22L31 23L32 23L32 25L33 25L33 26L34 26L34 24L36 24L36 26L37 26L37 27L36 27L36 29L35 29L35 27L34 27L34 29L35 29L35 30L36 30L36 29L37 29L37 28L38 28L38 29L39 29L39 27L40 27L40 25L39 25L39 26L38 26L38 25L37 25L37 24L36 24L36 23L37 23L37 22L38 22L38 23L39 23L39 22L38 22L38 21L37 21L37 22L36 22L36 21L35 21L35 22L34 22L34 21ZM43 21L43 22L44 22L44 23L43 23L43 24L42 24L42 25L43 25L43 24L44 24L44 25L45 25L45 26L46 26L46 25L45 25L45 24L44 24L44 23L45 23L45 22L46 22L46 21L45 21L45 22L44 22L44 21ZM24 22L24 23L25 23L25 22ZM33 22L33 24L34 24L34 22ZM35 22L35 23L36 23L36 22ZM5 23L5 24L6 24L6 23ZM29 23L29 24L28 24L28 25L29 25L29 24L30 24L30 25L31 25L31 24L30 24L30 23ZM23 24L23 25L24 25L24 26L25 26L25 25L24 25L24 24ZM17 25L17 26L18 26L18 25ZM47 25L47 26L48 26L48 25ZM5 27L5 30L8 30L8 27ZM27 27L27 30L30 30L30 27ZM49 27L49 30L52 30L52 27ZM6 28L6 29L7 29L7 28ZM28 28L28 29L29 29L29 28ZM46 28L46 29L44 29L44 31L45 31L45 32L46 32L46 31L47 31L47 29L48 29L48 28ZM50 28L50 29L51 29L51 28ZM23 29L23 30L24 30L24 31L25 31L25 30L24 30L24 29ZM37 30L37 31L36 31L36 33L35 33L35 35L34 35L34 37L35 37L35 38L36 38L36 41L37 41L37 42L38 42L38 41L39 41L39 39L38 39L38 37L39 37L39 38L40 38L40 39L42 39L42 37L43 37L43 36L42 36L42 35L40 35L40 36L38 36L38 35L39 35L39 34L38 34L38 33L39 33L39 32L40 32L40 34L42 34L42 33L41 33L41 32L40 32L40 30L39 30L39 31L38 31L38 30ZM45 30L45 31L46 31L46 30ZM16 31L16 32L15 32L15 33L14 33L14 34L16 34L16 32L17 32L17 31ZM37 31L37 32L38 32L38 31ZM6 32L6 33L7 33L7 32ZM18 33L18 34L19 34L19 33ZM26 33L26 34L28 34L28 33ZM36 33L36 35L35 35L35 37L36 37L36 38L37 38L37 37L36 37L36 35L38 35L38 34L37 34L37 33ZM46 34L46 35L47 35L47 37L48 37L48 34ZM1 35L1 36L2 36L2 35ZM5 35L5 36L7 36L7 35ZM27 35L27 36L28 36L28 37L29 37L29 36L28 36L28 35ZM24 36L24 37L25 37L25 36ZM1 37L1 38L2 38L2 39L1 39L1 41L5 41L5 40L8 40L8 38L7 38L7 37L6 37L6 38L5 38L5 40L4 40L4 38L2 38L2 37ZM12 37L12 38L13 38L13 37ZM6 38L6 39L7 39L7 38ZM24 38L24 39L25 39L25 38ZM28 38L28 39L29 39L29 38ZM10 39L10 41L11 41L11 39ZM34 39L34 41L35 41L35 39ZM37 39L37 41L38 41L38 39ZM42 41L42 42L43 42L43 41ZM54 41L54 42L55 42L55 43L56 43L56 42L55 42L55 41ZM18 43L18 44L19 44L19 43ZM22 43L22 44L23 44L23 43ZM4 45L4 46L3 46L3 47L5 47L5 46L7 46L7 45ZM1 46L1 47L2 47L2 46ZM21 46L21 48L22 48L22 46ZM40 46L40 47L41 47L41 46ZM16 47L16 49L17 49L17 47ZM27 49L27 52L30 52L30 49ZM43 49L43 50L44 50L44 49ZM46 49L46 50L47 50L47 49ZM49 49L49 52L52 52L52 49ZM28 50L28 51L29 51L29 50ZM50 50L50 51L51 51L51 50ZM33 51L33 52L34 52L34 54L35 54L35 53L36 53L36 54L37 54L37 53L36 53L36 52L34 52L34 51ZM45 51L45 52L46 52L46 54L45 54L45 55L44 55L44 52L43 52L43 53L42 53L42 54L43 54L43 55L44 55L44 56L45 56L45 55L46 55L46 54L47 54L47 55L48 55L48 56L49 56L49 55L48 55L48 54L49 54L49 53L47 53L47 52L48 52L48 51L47 51L47 52L46 52L46 51ZM17 52L17 53L18 53L18 52ZM56 52L56 53L57 53L57 52ZM31 53L31 54L30 54L30 55L33 55L33 54L32 54L32 53ZM13 54L13 55L14 55L14 56L15 56L15 55L14 55L14 54ZM16 54L16 55L17 55L17 54ZM55 54L55 55L57 55L57 54ZM10 56L10 57L12 57L12 56ZM18 56L18 57L19 57L19 56ZM36 56L36 57L37 57L37 56ZM56 56L56 57L57 57L57 56ZM0 0L0 7L7 7L7 0ZM1 1L1 6L6 6L6 1ZM2 2L2 5L5 5L5 2ZM50 0L50 7L57 7L57 0ZM51 1L51 6L56 6L56 1ZM52 2L52 5L55 5L55 2ZM0 50L0 57L7 57L7 50ZM1 51L1 56L6 56L6 51ZM2 52L2 55L5 55L5 52Z" fill="#000000"/></g></g></svg>
