<?xml version="1.0" encoding="UTF-8"?>
<svg xmlns="http://www.w3.org/2000/svg" version="1.1" width="300" height="300" viewBox="0 0 300 300"><rect x="0" y="0" width="300" height="300" fill="#fefefe"/><g transform="scale(4.615)"><g transform="translate(4,4)"><path fill-rule="evenodd" d="M9 0L9 1L8 1L8 2L10 2L10 3L8 3L8 4L10 4L10 3L11 3L11 4L14 4L14 2L15 2L15 3L17 3L17 4L18 4L18 5L20 5L20 7L19 7L19 6L18 6L18 7L19 7L19 8L16 8L16 7L17 7L17 6L16 6L16 7L15 7L15 5L16 5L16 4L15 4L15 5L14 5L14 7L15 7L15 8L16 8L16 9L18 9L18 11L15 11L15 10L14 10L14 8L13 8L13 6L12 6L12 7L11 7L11 6L10 6L10 7L9 7L9 5L8 5L8 7L9 7L9 8L6 8L6 9L5 9L5 8L0 8L0 10L1 10L1 11L0 11L0 12L2 12L2 13L1 13L1 15L2 15L2 16L3 16L3 12L5 12L5 13L4 13L4 15L5 15L5 13L7 13L7 14L6 14L6 15L7 15L7 16L6 16L6 17L5 17L5 16L4 16L4 17L5 17L5 18L6 18L6 19L7 19L7 18L6 18L6 17L7 17L7 16L8 16L8 15L7 15L7 14L9 14L9 15L11 15L11 16L9 16L9 17L8 17L8 19L9 19L9 17L12 17L12 18L11 18L11 19L10 19L10 20L9 20L9 21L8 21L8 20L5 20L5 21L4 21L4 19L3 19L3 18L2 18L2 19L3 19L3 20L2 20L2 22L0 22L0 24L1 24L1 23L2 23L2 25L7 25L7 26L4 26L4 27L3 27L3 28L4 28L4 29L2 29L2 28L1 28L1 25L0 25L0 28L1 28L1 30L2 30L2 33L3 33L3 32L4 32L4 33L7 33L7 32L8 32L8 34L6 34L6 35L8 35L8 36L5 36L5 35L4 35L4 34L1 34L1 36L3 36L3 35L4 35L4 37L5 37L5 39L3 39L3 40L5 40L5 42L4 42L4 43L5 43L5 45L4 45L4 46L5 46L5 47L3 47L3 46L2 46L2 45L1 45L1 44L2 44L2 43L3 43L3 41L2 41L2 42L1 42L1 41L0 41L0 45L1 45L1 46L0 46L0 48L5 48L5 47L7 47L7 46L6 46L6 45L7 45L7 44L6 44L6 43L7 43L7 42L6 42L6 41L8 41L8 40L10 40L10 41L9 41L9 42L8 42L8 43L9 43L9 44L8 44L8 45L9 45L9 44L11 44L11 45L12 45L12 46L11 46L11 47L12 47L12 46L13 46L13 48L10 48L10 50L9 50L9 49L8 49L8 48L6 48L6 49L8 49L8 51L10 51L10 50L11 50L11 52L10 52L10 53L12 53L12 54L9 54L9 52L8 52L8 57L11 57L11 56L12 56L12 57L16 57L16 56L17 56L17 57L20 57L20 56L18 56L18 55L20 55L20 54L18 54L18 55L17 55L17 53L20 53L20 52L21 52L21 51L22 51L22 50L25 50L25 51L26 51L26 52L24 52L24 53L23 53L23 54L22 54L22 55L21 55L21 56L23 56L23 57L26 57L26 56L27 56L27 57L29 57L29 56L30 56L30 57L31 57L31 56L35 56L35 57L39 57L39 56L40 56L40 55L41 55L41 54L42 54L42 55L44 55L44 56L43 56L43 57L44 57L44 56L45 56L45 57L46 57L46 56L45 56L45 55L44 55L44 54L46 54L46 55L47 55L47 57L49 57L49 56L50 56L50 57L52 57L52 55L51 55L51 53L52 53L52 54L53 54L53 55L54 55L54 56L53 56L53 57L54 57L54 56L55 56L55 57L56 57L56 56L55 56L55 52L57 52L57 51L56 51L56 50L55 50L55 48L56 48L56 49L57 49L57 48L56 48L56 46L57 46L57 45L56 45L56 44L55 44L55 43L56 43L56 41L55 41L55 39L57 39L57 37L55 37L55 36L57 36L57 35L56 35L56 34L57 34L57 32L56 32L56 30L57 30L57 27L56 27L56 26L57 26L57 25L56 25L56 22L57 22L57 21L56 21L56 22L53 22L53 21L51 21L51 20L52 20L52 19L53 19L53 20L57 20L57 19L56 19L56 18L57 18L57 17L56 17L56 16L57 16L57 15L56 15L56 14L57 14L57 11L56 11L56 8L55 8L55 10L54 10L54 11L52 11L52 10L53 10L53 9L54 9L54 8L53 8L53 9L52 9L52 8L51 8L51 10L49 10L49 9L50 9L50 8L49 8L49 9L48 9L48 8L47 8L47 9L48 9L48 12L49 12L49 13L47 13L47 14L45 14L45 13L44 13L44 12L43 12L43 13L41 13L41 14L43 14L43 15L42 15L42 16L41 16L41 15L39 15L39 14L38 14L38 13L40 13L40 12L41 12L41 11L43 11L43 9L44 9L44 11L45 11L45 12L47 12L47 10L46 10L46 11L45 11L45 9L44 9L44 8L46 8L46 7L47 7L47 5L48 5L48 0L46 0L46 1L45 1L45 2L44 2L44 3L43 3L43 4L40 4L40 5L39 5L39 6L38 6L38 8L35 8L35 5L36 5L36 7L37 7L37 5L38 5L38 4L39 4L39 3L42 3L42 2L43 2L43 0L41 0L41 1L40 1L40 0L39 0L39 1L38 1L38 0L37 0L37 1L38 1L38 2L39 2L39 3L36 3L36 0L35 0L35 1L33 1L33 0L27 0L27 1L26 1L26 0L23 0L23 2L22 2L22 0L21 0L21 2L22 2L22 3L23 3L23 4L24 4L24 5L23 5L23 6L22 6L22 8L23 8L23 6L24 6L24 9L23 9L23 10L22 10L22 11L21 11L21 10L20 10L20 8L21 8L21 5L22 5L22 4L19 4L19 3L20 3L20 0L18 0L18 1L14 1L14 0L11 0L11 1L10 1L10 0ZM11 1L11 2L12 2L12 3L13 3L13 2L14 2L14 1ZM25 1L25 2L23 2L23 3L26 3L26 4L25 4L25 8L26 8L26 4L31 4L31 8L32 8L32 10L31 10L31 11L30 11L30 10L29 10L29 12L28 12L28 13L27 13L27 15L26 15L26 17L25 17L25 15L21 15L21 13L22 13L22 14L24 14L24 13L26 13L26 12L27 12L27 11L26 11L26 12L25 12L25 11L24 11L24 13L22 13L22 12L20 12L20 10L19 10L19 12L20 12L20 14L19 14L19 15L17 15L17 13L18 13L18 12L17 12L17 13L16 13L16 12L15 12L15 13L13 13L13 14L12 14L12 15L13 15L13 16L14 16L14 17L13 17L13 18L12 18L12 19L11 19L11 22L10 22L10 23L9 23L9 22L8 22L8 21L6 21L6 22L8 22L8 23L6 23L6 24L7 24L7 25L8 25L8 26L9 26L9 27L10 27L10 26L11 26L11 27L12 27L12 28L11 28L11 29L13 29L13 30L15 30L15 29L16 29L16 30L17 30L17 33L16 33L16 32L14 32L14 37L11 37L11 36L13 36L13 35L12 35L12 34L13 34L13 31L12 31L12 30L11 30L11 31L10 31L10 30L9 30L9 31L8 31L8 32L9 32L9 31L10 31L10 33L9 33L9 35L10 35L10 36L9 36L9 37L11 37L11 38L10 38L10 40L11 40L11 42L10 42L10 43L13 43L13 44L14 44L14 45L13 45L13 46L14 46L14 45L15 45L15 46L16 46L16 47L15 47L15 49L16 49L16 50L17 50L17 52L16 52L16 51L15 51L15 50L14 50L14 53L13 53L13 52L12 52L12 53L13 53L13 54L14 54L14 55L13 55L13 56L16 56L16 55L15 55L15 54L16 54L16 53L17 53L17 52L19 52L19 51L20 51L20 50L21 50L21 49L23 49L23 47L24 47L24 45L25 45L25 47L26 47L26 48L24 48L24 49L25 49L25 50L26 50L26 48L27 48L27 47L26 47L26 45L27 45L27 46L31 46L31 45L30 45L30 44L31 44L31 43L29 43L29 40L30 40L30 42L32 42L32 43L33 43L33 44L32 44L32 47L33 47L33 48L31 48L31 50L32 50L32 51L31 51L31 53L30 53L30 54L26 54L26 55L27 55L27 56L29 56L29 55L30 55L30 56L31 56L31 54L32 54L32 53L33 53L33 55L35 55L35 56L36 56L36 54L35 54L35 53L33 53L33 52L32 52L32 51L33 51L33 50L34 50L34 52L35 52L35 50L36 50L36 52L37 52L37 53L38 53L38 54L37 54L37 56L39 56L39 55L38 55L38 54L40 54L40 53L41 53L41 52L42 52L42 53L43 53L43 54L44 54L44 53L46 53L46 54L47 54L47 53L48 53L48 50L47 50L47 49L48 49L48 48L49 48L49 47L48 47L48 48L47 48L47 49L46 49L46 47L45 47L45 46L47 46L47 45L48 45L48 44L50 44L50 47L51 47L51 48L52 48L52 47L51 47L51 46L53 46L53 47L55 47L55 46L56 46L56 45L55 45L55 44L54 44L54 45L53 45L53 43L54 43L54 42L53 42L53 41L51 41L51 42L50 42L50 43L48 43L48 44L47 44L47 45L45 45L45 44L46 44L46 43L47 43L47 42L48 42L48 41L49 41L49 38L48 38L48 39L47 39L47 37L48 37L48 36L49 36L49 37L50 37L50 39L51 39L51 38L53 38L53 39L52 39L52 40L53 40L53 39L55 39L55 37L53 37L53 35L55 35L55 34L54 34L54 33L56 33L56 32L54 32L54 33L52 33L52 32L51 32L51 31L48 31L48 28L47 28L47 29L46 29L46 30L47 30L47 31L45 31L45 28L46 28L46 27L48 27L48 25L50 25L50 26L51 26L51 25L52 25L52 26L53 26L53 27L54 27L54 26L53 26L53 25L55 25L55 26L56 26L56 25L55 25L55 24L51 24L51 23L50 23L50 22L51 22L51 21L49 21L49 20L47 20L47 19L48 19L48 18L47 18L47 17L48 17L48 16L49 16L49 15L50 15L50 16L51 16L51 17L50 17L50 19L51 19L51 18L55 18L55 17L53 17L53 15L50 15L50 14L51 14L51 12L50 12L50 11L49 11L49 12L50 12L50 14L49 14L49 15L48 15L48 16L45 16L45 14L44 14L44 18L43 18L43 20L44 20L44 26L46 26L46 27L45 27L45 28L44 28L44 31L45 31L45 32L43 32L43 30L41 30L41 29L43 29L43 26L41 26L41 25L43 25L43 24L42 24L42 23L41 23L41 24L40 24L40 22L39 22L39 21L42 21L42 20L39 20L39 21L38 21L38 20L37 20L37 19L39 19L39 17L41 17L41 16L39 16L39 15L38 15L38 14L37 14L37 13L36 13L36 14L37 14L37 15L35 15L35 16L33 16L33 15L32 15L32 18L30 18L30 19L33 19L33 18L34 18L34 20L32 20L32 21L31 21L31 22L28 22L28 21L30 21L30 20L29 20L29 19L28 19L28 18L26 18L26 17L28 17L28 16L29 16L29 14L30 14L30 15L31 15L31 14L32 14L32 13L33 13L33 14L35 14L35 12L36 12L36 10L37 10L37 9L35 9L35 8L34 8L34 9L33 9L33 7L34 7L34 5L35 5L35 3L34 3L34 2L33 2L33 1L32 1L32 2L31 2L31 1L28 1L28 2L29 2L29 3L27 3L27 2L26 2L26 1ZM46 1L46 2L47 2L47 1ZM17 2L17 3L19 3L19 2ZM30 2L30 3L31 3L31 4L32 4L32 5L34 5L34 4L32 4L32 3L33 3L33 2L32 2L32 3L31 3L31 2ZM44 3L44 6L43 6L43 7L42 7L42 6L41 6L41 5L40 5L40 6L39 6L39 8L38 8L38 10L39 10L39 12L40 12L40 11L41 11L41 9L43 9L43 8L44 8L44 6L45 6L45 7L46 7L46 6L45 6L45 5L47 5L47 3ZM36 4L36 5L37 5L37 4ZM27 5L27 8L30 8L30 5ZM28 6L28 7L29 7L29 6ZM32 6L32 7L33 7L33 6ZM40 6L40 7L41 7L41 6ZM48 6L48 7L49 7L49 6ZM9 8L9 10L8 10L8 9L6 9L6 10L8 10L8 11L6 11L6 12L8 12L8 13L9 13L9 12L10 12L10 11L9 11L9 10L10 10L10 9L12 9L12 8ZM2 9L2 11L4 11L4 10L5 10L5 9ZM39 9L39 10L40 10L40 9ZM11 10L11 11L12 11L12 12L11 12L11 13L10 13L10 14L11 14L11 13L12 13L12 12L14 12L14 11L13 11L13 10ZM32 10L32 11L31 11L31 12L33 12L33 13L34 13L34 12L33 12L33 10ZM8 11L8 12L9 12L9 11ZM55 11L55 12L54 12L54 13L53 13L53 12L52 12L52 13L53 13L53 14L56 14L56 11ZM15 13L15 14L14 14L14 16L16 16L16 13ZM28 13L28 14L29 14L29 13ZM30 13L30 14L31 14L31 13ZM19 15L19 16L17 16L17 17L18 17L18 18L17 18L17 21L16 21L16 18L15 18L15 21L16 21L16 22L15 22L15 23L13 23L13 22L14 22L14 21L13 21L13 20L14 20L14 19L13 19L13 20L12 20L12 21L13 21L13 22L12 22L12 24L10 24L10 25L9 25L9 26L10 26L10 25L12 25L12 26L14 26L14 27L13 27L13 29L14 29L14 27L15 27L15 25L14 25L14 24L15 24L15 23L16 23L16 24L17 24L17 25L18 25L18 26L16 26L16 27L18 27L18 26L19 26L19 29L18 29L18 28L16 28L16 29L18 29L18 30L19 30L19 31L20 31L20 30L19 30L19 29L22 29L22 28L20 28L20 25L21 25L21 24L19 24L19 23L20 23L20 22L19 22L19 21L20 21L20 19L21 19L21 18L20 18L20 17L22 17L22 19L23 19L23 20L24 20L24 21L22 21L22 20L21 20L21 21L22 21L22 22L21 22L21 23L23 23L23 24L24 24L24 25L22 25L22 26L21 26L21 27L22 27L22 26L26 26L26 27L25 27L25 28L23 28L23 31L21 31L21 32L25 32L25 33L23 33L23 34L24 34L24 36L23 36L23 37L24 37L24 38L21 38L21 37L19 37L19 36L21 36L21 34L22 34L22 33L21 33L21 34L20 34L20 32L18 32L18 33L17 33L17 34L15 34L15 36L16 36L16 35L19 35L19 36L17 36L17 37L18 37L18 38L20 38L20 39L17 39L17 40L18 40L18 41L17 41L17 42L15 42L15 43L14 43L14 42L13 42L13 43L14 43L14 44L15 44L15 43L16 43L16 45L17 45L17 46L18 46L18 48L16 48L16 49L18 49L18 51L19 51L19 50L20 50L20 49L19 49L19 48L20 48L20 47L23 47L23 46L22 46L22 45L24 45L24 44L23 44L23 42L25 42L25 41L23 41L23 42L22 42L22 41L21 41L21 42L22 42L22 43L21 43L21 44L22 44L22 45L21 45L21 46L20 46L20 45L19 45L19 44L20 44L20 43L19 43L19 42L20 42L20 41L19 41L19 40L22 40L22 39L24 39L24 40L25 40L25 37L26 37L26 35L27 35L27 31L29 31L29 32L28 32L28 33L29 33L29 34L30 34L30 36L29 36L29 37L31 37L31 38L29 38L29 39L33 39L33 40L35 40L35 42L37 42L37 43L34 43L34 42L33 42L33 41L32 41L32 40L31 40L31 41L32 41L32 42L33 42L33 43L34 43L34 45L35 45L35 46L33 46L33 47L35 47L35 46L37 46L37 47L36 47L36 48L35 48L35 49L36 49L36 50L38 50L38 53L39 53L39 51L40 51L40 52L41 52L41 50L42 50L42 51L43 51L43 53L44 53L44 52L45 52L45 51L46 51L46 52L47 52L47 51L46 51L46 50L44 50L44 51L43 51L43 49L44 49L44 48L45 48L45 47L44 47L44 48L43 48L43 47L42 47L42 48L41 48L41 46L43 46L43 45L44 45L44 46L45 46L45 45L44 45L44 44L43 44L43 43L44 43L44 42L43 42L43 41L44 41L44 40L45 40L45 39L46 39L46 41L47 41L47 39L46 39L46 38L45 38L45 37L47 37L47 36L46 36L46 34L45 34L45 33L43 33L43 32L41 32L41 33L39 33L39 34L40 34L40 35L38 35L38 33L37 33L37 32L35 32L35 30L37 30L37 29L38 29L38 28L39 28L39 27L41 27L41 28L42 28L42 27L41 27L41 26L39 26L39 27L36 27L36 26L34 26L34 27L33 27L33 26L32 26L32 24L33 24L33 25L37 25L37 26L38 26L38 24L39 24L39 25L40 25L40 24L39 24L39 22L38 22L38 21L37 21L37 20L36 20L36 19L35 19L35 20L34 20L34 21L35 21L35 23L34 23L34 22L33 22L33 23L32 23L32 24L30 24L30 23L29 23L29 25L30 25L30 26L26 26L26 25L25 25L25 24L27 24L27 21L26 21L26 18L25 18L25 17L22 17L22 16L20 16L20 15ZM27 15L27 16L28 16L28 15ZM19 16L19 17L20 17L20 16ZM35 16L35 17L37 17L37 18L38 18L38 17L39 17L39 16L38 16L38 17L37 17L37 16ZM42 16L42 17L43 17L43 16ZM0 18L0 19L1 19L1 18ZM19 18L19 19L18 19L18 20L19 20L19 19L20 19L20 18ZM23 18L23 19L24 19L24 18ZM41 18L41 19L42 19L42 18ZM44 18L44 20L45 20L45 18ZM46 20L46 21L45 21L45 22L46 22L46 23L49 23L49 21L47 21L47 20ZM17 21L17 22L18 22L18 21ZM24 21L24 22L23 22L23 23L24 23L24 24L25 24L25 23L26 23L26 22L25 22L25 21ZM46 21L46 22L47 22L47 21ZM2 22L2 23L3 23L3 24L5 24L5 22ZM37 22L37 24L38 24L38 22ZM8 23L8 24L9 24L9 23ZM17 23L17 24L18 24L18 23ZM46 24L46 25L48 25L48 24ZM50 24L50 25L51 25L51 24ZM31 26L31 28L32 28L32 30L31 30L31 31L30 31L30 32L29 32L29 33L31 33L31 31L32 31L32 35L33 35L33 36L32 36L32 37L33 37L33 36L34 36L34 35L35 35L35 36L37 36L37 37L38 37L38 38L37 38L37 39L35 39L35 40L38 40L38 42L39 42L39 45L38 45L38 46L39 46L39 47L38 47L38 48L37 48L37 49L38 49L38 50L41 50L41 48L39 48L39 47L40 47L40 46L41 46L41 44L42 44L42 43L41 43L41 42L40 42L40 41L42 41L42 40L44 40L44 39L45 39L45 38L44 38L44 37L45 37L45 36L44 36L44 35L45 35L45 34L42 34L42 35L41 35L41 36L40 36L40 37L38 37L38 35L37 35L37 34L35 34L35 32L34 32L34 31L32 31L32 30L35 30L35 28L33 28L33 27L32 27L32 26ZM5 27L5 30L8 30L8 27ZM27 27L27 30L30 30L30 27ZM49 27L49 30L52 30L52 27ZM55 27L55 28L54 28L54 29L53 29L53 31L55 31L55 30L54 30L54 29L56 29L56 27ZM6 28L6 29L7 29L7 28ZM25 28L25 29L26 29L26 28ZM28 28L28 29L29 29L29 28ZM50 28L50 29L51 29L51 28ZM39 29L39 30L38 30L38 32L39 32L39 30L40 30L40 29ZM0 31L0 33L1 33L1 31ZM6 31L6 32L7 32L7 31ZM11 31L11 33L10 33L10 34L12 34L12 31ZM25 31L25 32L26 32L26 31ZM47 31L47 32L46 32L46 33L47 33L47 32L48 32L48 33L49 33L49 32L48 32L48 31ZM50 32L50 34L49 34L49 35L50 35L50 36L52 36L52 35L53 35L53 34L52 34L52 33L51 33L51 32ZM18 33L18 34L19 34L19 35L20 35L20 34L19 34L19 33ZM25 33L25 34L26 34L26 33ZM50 34L50 35L52 35L52 34ZM43 36L43 37L40 37L40 38L43 38L43 37L44 37L44 36ZM2 37L2 38L3 38L3 37ZM6 37L6 38L7 38L7 37ZM15 37L15 38L16 38L16 37ZM27 37L27 38L26 38L26 40L28 40L28 39L27 39L27 38L28 38L28 37ZM34 37L34 38L33 38L33 39L34 39L34 38L35 38L35 37ZM0 38L0 40L2 40L2 39L1 39L1 38ZM11 38L11 40L12 40L12 41L13 41L13 40L14 40L14 38L13 38L13 39L12 39L12 38ZM5 39L5 40L7 40L7 39ZM15 39L15 41L16 41L16 39ZM38 39L38 40L39 40L39 39ZM18 41L18 42L17 42L17 43L18 43L18 42L19 42L19 41ZM26 41L26 42L27 42L27 41ZM5 42L5 43L6 43L6 42ZM51 42L51 43L50 43L50 44L51 44L51 45L52 45L52 44L51 44L51 43L53 43L53 42ZM25 43L25 44L27 44L27 45L28 45L28 44L29 44L29 43ZM17 44L17 45L18 45L18 44ZM1 46L1 47L2 47L2 46ZM19 46L19 47L20 47L20 46ZM28 47L28 48L29 48L29 47ZM13 48L13 49L11 49L11 50L12 50L12 51L13 51L13 49L14 49L14 48ZM33 48L33 49L32 49L32 50L33 50L33 49L34 49L34 48ZM38 48L38 49L39 49L39 48ZM42 48L42 49L43 49L43 48ZM53 48L53 49L54 49L54 48ZM27 49L27 52L30 52L30 49ZM49 49L49 52L52 52L52 49ZM28 50L28 51L29 51L29 50ZM50 50L50 51L51 51L51 50ZM54 50L54 51L55 51L55 50ZM15 52L15 53L16 53L16 52ZM53 52L53 54L54 54L54 52ZM24 53L24 54L23 54L23 55L24 55L24 56L25 56L25 53ZM10 55L10 56L11 56L11 55ZM48 55L48 56L49 56L49 55ZM50 55L50 56L51 56L51 55ZM0 0L0 7L7 7L7 0ZM1 1L1 6L6 6L6 1ZM2 2L2 5L5 5L5 2ZM50 0L50 7L57 7L57 0ZM51 1L51 6L56 6L56 1ZM52 2L52 5L55 5L55 2ZM0 50L0 57L7 57L7 50ZM1 51L1 56L6 56L6 51ZM2 52L2 55L5 55L5 52Z" fill="#000000"/></g></g></svg>
