<?xml version="1.0" encoding="UTF-8"?>
<svg xmlns="http://www.w3.org/2000/svg" version="1.1" width="300" height="300" viewBox="0 0 300 300"><rect x="0" y="0" width="300" height="300" fill="#fefefe"/><g transform="scale(4.615)"><g transform="translate(4,4)"><path fill-rule="evenodd" d="M8 0L8 1L9 1L9 0ZM12 0L12 1L13 1L13 0ZM14 0L14 1L15 1L15 3L17 3L17 4L18 4L18 5L15 5L15 4L14 4L14 3L13 3L13 2L11 2L11 1L10 1L10 3L9 3L9 2L8 2L8 5L10 5L10 3L11 3L11 6L10 6L10 8L11 8L11 9L9 9L9 8L8 8L8 9L7 9L7 8L6 8L6 9L4 9L4 8L0 8L0 11L2 11L2 14L3 14L3 11L4 11L4 15L2 15L2 16L0 16L0 17L1 17L1 19L2 19L2 20L1 20L1 21L0 21L0 22L1 22L1 23L3 23L3 24L0 24L0 25L3 25L3 28L4 28L4 30L3 30L3 29L1 29L1 28L2 28L2 26L0 26L0 27L1 27L1 28L0 28L0 30L1 30L1 31L4 31L4 33L7 33L7 34L5 34L5 35L3 35L3 36L2 36L2 35L0 35L0 36L1 36L1 37L2 37L2 41L1 41L1 38L0 38L0 41L1 41L1 42L2 42L2 41L5 41L5 42L3 42L3 43L2 43L2 44L1 44L1 43L0 43L0 45L2 45L2 47L1 47L1 46L0 46L0 48L5 48L5 47L7 47L7 48L6 48L6 49L7 49L7 48L11 48L11 46L12 46L12 45L14 45L14 46L13 46L13 48L12 48L12 50L11 50L11 54L12 54L12 53L14 53L14 52L12 52L12 51L14 51L14 50L16 50L16 49L19 49L19 50L20 50L20 52L19 52L19 51L18 51L18 50L17 50L17 51L15 51L15 52L17 52L17 51L18 51L18 52L19 52L19 54L18 54L18 53L17 53L17 54L16 54L16 53L15 53L15 56L14 56L14 55L10 55L10 52L9 52L9 53L8 53L8 57L11 57L11 56L12 56L12 57L15 57L15 56L16 56L16 57L18 57L18 56L19 56L19 57L20 57L20 56L21 56L21 57L23 57L23 54L25 54L25 55L24 55L24 56L26 56L26 54L27 54L27 53L29 53L29 54L31 54L31 55L30 55L30 56L31 56L31 57L32 57L32 55L34 55L34 56L33 56L33 57L36 57L36 55L37 55L37 54L36 54L36 53L33 53L33 51L34 51L34 49L35 49L35 52L36 52L36 51L37 51L37 52L38 52L38 53L39 53L39 54L38 54L38 57L42 57L42 56L43 56L43 55L44 55L44 56L45 56L45 57L46 57L46 54L47 54L47 55L49 55L49 56L48 56L48 57L51 57L51 54L52 54L52 53L53 53L53 54L56 54L56 53L57 53L57 52L56 52L56 51L55 51L55 50L53 50L53 48L54 48L54 47L53 47L53 48L52 48L52 47L51 47L51 46L49 46L49 45L51 45L51 44L52 44L52 45L53 45L53 46L55 46L55 47L57 47L57 45L56 45L56 46L55 46L55 44L52 44L52 43L53 43L53 42L54 42L54 43L56 43L56 44L57 44L57 43L56 43L56 42L54 42L54 40L55 40L55 39L53 39L53 38L52 38L52 37L51 37L51 35L52 35L52 36L53 36L53 37L55 37L55 38L56 38L56 39L57 39L57 38L56 38L56 37L57 37L57 34L56 34L56 33L57 33L57 31L56 31L56 30L57 30L57 27L56 27L56 28L55 28L55 27L53 27L53 26L52 26L52 25L51 25L51 24L50 24L50 25L49 25L49 26L46 26L46 25L47 25L47 24L49 24L49 23L47 23L47 22L49 22L49 20L50 20L50 21L51 21L51 22L52 22L52 24L53 24L53 25L56 25L56 24L54 24L54 23L57 23L57 21L56 21L56 20L57 20L57 19L56 19L56 18L57 18L57 15L55 15L55 14L54 14L54 10L50 10L50 8L49 8L49 6L48 6L48 7L47 7L47 5L48 5L48 0L46 0L46 1L47 1L47 2L46 2L46 3L47 3L47 5L45 5L45 4L44 4L44 3L45 3L45 1L44 1L44 2L41 2L41 1L43 1L43 0L41 0L41 1L40 1L40 0L39 0L39 1L40 1L40 2L41 2L41 4L37 4L37 3L38 3L38 2L37 2L37 1L38 1L38 0L37 0L37 1L36 1L36 0L35 0L35 1L34 1L34 2L35 2L35 3L34 3L34 4L33 4L33 6L32 6L32 5L31 5L31 4L32 4L32 3L33 3L33 2L32 2L32 0L30 0L30 3L31 3L31 4L26 4L26 0L23 0L23 1L25 1L25 2L24 2L24 3L23 3L23 2L22 2L22 0L21 0L21 2L22 2L22 3L23 3L23 6L22 6L22 8L21 8L21 10L20 10L20 7L21 7L21 5L22 5L22 4L21 4L21 5L20 5L20 4L19 4L19 3L20 3L20 2L19 2L19 1L20 1L20 0L18 0L18 1L15 1L15 0ZM27 1L27 3L28 3L28 1ZM35 1L35 2L36 2L36 1ZM13 4L13 5L12 5L12 6L11 6L11 7L12 7L12 8L13 8L13 10L12 10L12 12L13 12L13 10L14 10L14 11L15 11L15 8L16 8L16 12L15 12L15 15L16 15L16 16L17 16L17 18L15 18L15 17L13 17L13 18L12 18L12 17L11 17L11 16L12 16L12 13L11 13L11 10L10 10L10 11L8 11L8 10L9 10L9 9L8 9L8 10L7 10L7 9L6 9L6 10L4 10L4 11L5 11L5 14L8 14L8 13L11 13L11 14L9 14L9 15L10 15L10 19L9 19L9 17L6 17L6 16L7 16L7 15L5 15L5 17L6 17L6 18L5 18L5 19L4 19L4 17L3 17L3 16L2 16L2 17L3 17L3 20L2 20L2 21L1 21L1 22L2 22L2 21L3 21L3 23L4 23L4 25L5 25L5 26L9 26L9 27L10 27L10 28L11 28L11 29L12 29L12 31L11 31L11 32L13 32L13 35L12 35L12 34L10 34L10 30L9 30L9 32L8 32L8 31L6 31L6 32L7 32L7 33L9 33L9 34L10 34L10 35L9 35L9 36L10 36L10 37L8 37L8 38L7 38L7 37L6 37L6 36L7 36L7 35L6 35L6 36L5 36L5 37L4 37L4 36L3 36L3 38L5 38L5 39L6 39L6 40L5 40L5 41L6 41L6 42L5 42L5 43L4 43L4 44L2 44L2 45L3 45L3 47L5 47L5 46L9 46L9 47L10 47L10 46L11 46L11 45L10 45L10 43L12 43L12 44L13 44L13 42L12 42L12 41L11 41L11 40L13 40L13 41L14 41L14 43L15 43L15 41L19 41L19 42L21 42L21 44L20 44L20 46L21 46L21 47L19 47L19 46L18 46L18 47L17 47L17 45L19 45L19 43L18 43L18 42L17 42L17 45L15 45L15 44L14 44L14 45L15 45L15 46L14 46L14 48L13 48L13 49L15 49L15 48L16 48L16 47L17 47L17 48L18 48L18 47L19 47L19 48L21 48L21 50L22 50L22 49L23 49L23 52L22 52L22 51L21 51L21 52L22 52L22 53L20 53L20 55L19 55L19 56L20 56L20 55L21 55L21 56L22 56L22 55L21 55L21 54L22 54L22 53L23 53L23 52L24 52L24 53L25 53L25 54L26 54L26 50L25 50L25 47L26 47L26 48L28 48L28 47L30 47L30 48L32 48L32 49L31 49L31 50L32 50L32 51L31 51L31 53L32 53L32 51L33 51L33 50L32 50L32 49L34 49L34 48L33 48L33 47L34 47L34 46L35 46L35 48L37 48L37 49L36 49L36 50L37 50L37 49L38 49L38 48L39 48L39 49L40 49L40 50L39 50L39 51L38 51L38 52L40 52L40 54L41 54L41 55L40 55L40 56L41 56L41 55L42 55L42 54L43 54L43 52L42 52L42 54L41 54L41 52L40 52L40 51L44 51L44 50L45 50L45 52L46 52L46 53L47 53L47 54L50 54L50 53L47 53L47 52L48 52L48 48L46 48L46 50L45 50L45 48L44 48L44 49L43 49L43 47L39 47L39 46L40 46L40 45L38 45L38 44L39 44L39 43L40 43L40 44L41 44L41 41L42 41L42 42L43 42L43 43L42 43L42 45L43 45L43 46L45 46L45 47L46 47L46 46L47 46L47 47L49 47L49 46L48 46L48 45L49 45L49 44L51 44L51 42L50 42L50 41L52 41L52 40L50 40L50 39L52 39L52 38L51 38L51 37L50 37L50 36L49 36L49 38L48 38L48 36L47 36L47 37L46 37L46 35L47 35L47 34L48 34L48 35L49 35L49 34L50 34L50 33L49 33L49 32L52 32L52 34L54 34L54 33L55 33L55 30L56 30L56 29L55 29L55 30L54 30L54 31L53 31L53 32L52 32L52 31L49 31L49 32L48 32L48 29L47 29L47 33L45 33L45 32L46 32L46 31L45 31L45 30L46 30L46 26L45 26L45 30L44 30L44 33L45 33L45 34L46 34L46 35L45 35L45 36L44 36L44 37L43 37L43 35L44 35L44 34L43 34L43 35L42 35L42 34L41 34L41 35L39 35L39 36L40 36L40 37L41 37L41 35L42 35L42 38L44 38L44 39L45 39L45 41L43 41L43 39L39 39L39 40L40 40L40 42L39 42L39 41L37 41L37 40L38 40L38 39L37 39L37 37L38 37L38 36L37 36L37 37L35 37L35 36L36 36L36 35L35 35L35 31L33 31L33 29L32 29L32 30L31 30L31 31L33 31L33 32L31 32L31 33L32 33L32 34L34 34L34 35L33 35L33 36L32 36L32 35L31 35L31 34L30 34L30 35L29 35L29 33L30 33L30 31L28 31L28 33L27 33L27 31L26 31L26 33L25 33L25 34L24 34L24 35L23 35L23 33L24 33L24 32L25 32L25 30L26 30L26 28L25 28L25 25L27 25L27 26L29 26L29 24L30 24L30 26L31 26L31 24L30 24L30 23L29 23L29 22L28 22L28 21L27 21L27 20L29 20L29 19L28 19L28 18L29 18L29 17L30 17L30 19L31 19L31 16L32 16L32 15L31 15L31 16L29 16L29 15L28 15L28 16L29 16L29 17L24 17L24 18L23 18L23 16L25 16L25 15L26 15L26 16L27 16L27 13L26 13L26 12L28 12L28 13L30 13L30 14L33 14L33 15L35 15L35 16L34 16L34 17L35 17L35 18L32 18L32 20L30 20L30 21L31 21L31 23L32 23L32 22L34 22L34 23L33 23L33 24L32 24L32 25L33 25L33 24L35 24L35 23L36 23L36 24L37 24L37 23L39 23L39 21L38 21L38 22L35 22L35 21L34 21L34 19L35 19L35 20L36 20L36 21L37 21L37 20L36 20L36 19L38 19L38 20L40 20L40 19L39 19L39 18L41 18L41 19L42 19L42 18L43 18L43 21L44 21L44 22L45 22L45 20L46 20L46 18L45 18L45 17L48 17L48 18L47 18L47 19L49 19L49 18L50 18L50 20L53 20L53 21L54 21L54 22L56 22L56 21L54 21L54 20L55 20L55 19L51 19L51 17L53 17L53 18L54 18L54 17L55 17L55 18L56 18L56 17L55 17L55 16L54 16L54 17L53 17L53 16L52 16L52 15L54 15L54 14L52 14L52 13L53 13L53 11L51 11L51 12L50 12L50 13L51 13L51 15L49 15L49 12L48 12L48 10L47 10L47 9L48 9L48 8L47 8L47 7L46 7L46 6L45 6L45 5L43 5L43 4L41 4L41 7L40 7L40 5L38 5L38 6L37 6L37 5L36 5L36 4L34 4L34 6L33 6L33 8L32 8L32 6L31 6L31 9L32 9L32 10L31 10L31 11L33 11L33 10L34 10L34 11L35 11L35 12L34 12L34 14L33 14L33 12L32 12L32 13L31 13L31 12L30 12L30 11L27 11L27 10L26 10L26 11L25 11L25 10L23 10L23 11L21 11L21 12L19 12L19 11L20 11L20 10L18 10L18 12L17 12L17 8L18 8L18 9L19 9L19 8L18 8L18 6L17 6L17 7L16 7L16 6L15 6L15 5L14 5L14 4ZM24 4L24 6L23 6L23 7L24 7L24 8L23 8L23 9L24 9L24 8L25 8L25 9L26 9L26 6L25 6L25 5L26 5L26 4ZM13 5L13 6L12 6L12 7L13 7L13 8L14 8L14 7L15 7L15 6L14 6L14 5ZM27 5L27 8L30 8L30 5ZM42 5L42 7L43 7L43 5ZM8 6L8 7L9 7L9 6ZM13 6L13 7L14 7L14 6ZM19 6L19 7L20 7L20 6ZM24 6L24 7L25 7L25 6ZM28 6L28 7L29 7L29 6ZM34 6L34 9L36 9L36 8L37 8L37 11L36 11L36 10L35 10L35 11L36 11L36 12L35 12L35 14L36 14L36 15L39 15L39 17L40 17L40 16L41 16L41 14L40 14L40 11L38 11L38 9L39 9L39 10L40 10L40 9L41 9L41 10L43 10L43 11L42 11L42 12L43 12L43 14L42 14L42 17L41 17L41 18L42 18L42 17L45 17L45 16L48 16L48 14L47 14L47 15L45 15L45 14L46 14L46 13L44 13L44 10L45 10L45 9L41 9L41 8L38 8L38 7L39 7L39 6L38 6L38 7L37 7L37 6L36 6L36 7L35 7L35 6ZM44 6L44 8L46 8L46 7L45 7L45 6ZM52 8L52 9L55 9L55 8ZM56 8L56 9L57 9L57 8ZM28 9L28 10L29 10L29 9ZM2 10L2 11L3 11L3 10ZM6 10L6 11L7 11L7 12L6 12L6 13L7 13L7 12L8 12L8 11L7 11L7 10ZM46 10L46 11L47 11L47 10ZM49 10L49 11L50 11L50 10ZM55 10L55 13L57 13L57 12L56 12L56 11L57 11L57 10ZM24 11L24 12L22 12L22 13L25 13L25 11ZM37 11L37 12L38 12L38 11ZM16 12L16 13L17 13L17 12ZM18 12L18 13L19 13L19 14L18 14L18 16L19 16L19 17L18 17L18 18L19 18L19 17L21 17L21 18L20 18L20 19L17 19L17 20L16 20L16 23L14 23L14 20L15 20L15 19L12 19L12 18L11 18L11 20L12 20L12 21L11 21L11 22L10 22L10 21L8 21L8 22L9 22L9 24L8 24L8 23L7 23L7 22L6 22L6 21L7 21L7 20L8 20L8 19L7 19L7 18L6 18L6 19L7 19L7 20L5 20L5 21L4 21L4 23L5 23L5 25L7 25L7 24L8 24L8 25L9 25L9 24L10 24L10 25L11 25L11 26L12 26L12 25L11 25L11 24L12 24L12 22L13 22L13 25L14 25L14 27L13 27L13 28L12 28L12 27L11 27L11 28L12 28L12 29L13 29L13 28L15 28L15 29L14 29L14 30L13 30L13 31L14 31L14 32L15 32L15 33L14 33L14 34L15 34L15 33L18 33L18 34L19 34L19 33L18 33L18 31L19 31L19 32L20 32L20 33L21 33L21 34L20 34L20 35L21 35L21 34L22 34L22 33L23 33L23 31L22 31L22 32L20 32L20 30L17 30L17 28L15 28L15 26L16 26L16 27L19 27L19 28L18 28L18 29L20 29L20 28L21 28L21 26L22 26L22 27L24 27L24 26L23 26L23 25L25 25L25 22L27 22L27 23L26 23L26 24L27 24L27 23L28 23L28 22L27 22L27 21L26 21L26 20L27 20L27 18L24 18L24 19L25 19L25 22L24 22L24 21L23 21L23 19L22 19L22 22L23 22L23 25L21 25L21 24L22 24L22 23L21 23L21 22L19 22L19 21L18 21L18 20L21 20L21 18L22 18L22 17L21 17L21 13L19 13L19 12ZM51 12L51 13L52 13L52 12ZM13 13L13 16L14 16L14 13ZM0 14L0 15L1 15L1 14ZM16 14L16 15L17 15L17 14ZM23 14L23 15L24 15L24 14ZM19 15L19 16L20 16L20 15ZM44 15L44 16L45 16L45 15ZM36 17L36 18L37 18L37 17ZM44 18L44 19L45 19L45 18ZM41 20L41 21L42 21L42 20ZM17 21L17 23L16 23L16 26L17 26L17 23L19 23L19 22L18 22L18 21ZM46 21L46 22L47 22L47 21ZM6 23L6 24L7 24L7 23ZM10 23L10 24L11 24L11 23ZM20 23L20 24L19 24L19 25L18 25L18 26L19 26L19 25L20 25L20 24L21 24L21 23ZM40 23L40 26L38 26L38 27L39 27L39 28L40 28L40 29L38 29L38 30L37 30L37 27L36 27L36 28L34 28L34 29L36 29L36 31L37 31L37 32L36 32L36 33L37 33L37 32L38 32L38 34L39 34L39 31L40 31L40 32L41 32L41 31L43 31L43 29L42 29L42 30L40 30L40 29L41 29L41 27L42 27L42 28L44 28L44 27L42 27L42 26L43 26L43 23ZM44 23L44 25L45 25L45 24L47 24L47 23ZM14 24L14 25L15 25L15 24ZM38 24L38 25L39 25L39 24ZM34 25L34 27L35 27L35 25ZM5 27L5 30L8 30L8 27ZM27 27L27 30L30 30L30 27ZM32 27L32 28L33 28L33 27ZM49 27L49 30L52 30L52 27ZM6 28L6 29L7 29L7 28ZM28 28L28 29L29 29L29 28ZM50 28L50 29L51 29L51 28ZM53 28L53 29L54 29L54 28ZM15 29L15 30L14 30L14 31L15 31L15 30L16 30L16 32L17 32L17 30L16 30L16 29ZM21 29L21 30L24 30L24 29ZM38 30L38 31L39 31L39 30ZM0 32L0 34L1 34L1 33L2 33L2 34L3 34L3 33L2 33L2 32ZM42 32L42 33L43 33L43 32ZM53 32L53 33L54 33L54 32ZM26 33L26 34L27 34L27 35L26 35L26 36L23 36L23 35L22 35L22 36L23 36L23 38L22 38L22 37L21 37L21 38L20 38L20 37L19 37L19 36L18 36L18 35L17 35L17 34L16 34L16 35L14 35L14 36L16 36L16 35L17 35L17 36L18 36L18 38L15 38L15 40L16 40L16 39L17 39L17 40L20 40L20 41L21 41L21 42L22 42L22 44L21 44L21 46L22 46L22 47L21 47L21 48L23 48L23 49L24 49L24 48L23 48L23 46L25 46L25 45L26 45L26 46L27 46L27 47L28 47L28 46L27 46L27 45L29 45L29 46L30 46L30 45L29 45L29 43L31 43L31 46L32 46L32 42L33 42L33 45L34 45L34 44L35 44L35 45L36 45L36 47L38 47L38 45L36 45L36 43L34 43L34 42L36 42L36 41L34 41L34 40L35 40L35 39L36 39L36 38L34 38L34 37L33 37L33 38L32 38L32 36L29 36L29 35L28 35L28 34L27 34L27 33ZM10 35L10 36L11 36L11 35ZM54 35L54 36L55 36L55 35ZM27 36L27 38L29 38L29 36ZM10 37L10 38L12 38L12 37ZM13 37L13 38L14 38L14 37ZM24 37L24 39L23 39L23 40L22 40L22 39L21 39L21 40L22 40L22 41L23 41L23 40L24 40L24 39L25 39L25 41L24 41L24 42L23 42L23 43L26 43L26 45L27 45L27 44L28 44L28 43L29 43L29 42L31 42L31 41L30 41L30 40L33 40L33 39L32 39L32 38L30 38L30 39L28 39L28 41L29 41L29 42L25 42L25 41L26 41L26 39L25 39L25 38L26 38L26 37ZM45 37L45 38L46 38L46 41L45 41L45 42L44 42L44 44L47 44L47 43L48 43L48 44L49 44L49 43L50 43L50 42L47 42L47 41L50 41L50 40L47 40L47 39L48 39L48 38L46 38L46 37ZM6 38L6 39L7 39L7 40L6 40L6 41L7 41L7 40L8 40L8 39L7 39L7 38ZM18 38L18 39L19 39L19 38ZM56 40L56 41L57 41L57 40ZM8 41L8 42L9 42L9 43L10 43L10 42L11 42L11 41ZM6 42L6 43L7 43L7 42ZM37 42L37 44L38 44L38 43L39 43L39 42ZM46 42L46 43L47 43L47 42ZM4 44L4 45L5 45L5 44ZM6 44L6 45L8 45L8 44ZM22 44L22 46L23 46L23 44ZM15 46L15 47L16 47L16 46ZM41 48L41 49L42 49L42 48ZM56 48L56 49L57 49L57 48ZM8 49L8 50L9 50L9 49ZM27 49L27 52L30 52L30 49ZM49 49L49 52L52 52L52 49ZM24 50L24 51L25 51L25 50ZM28 50L28 51L29 51L29 50ZM50 50L50 51L51 51L51 50ZM46 51L46 52L47 52L47 51ZM54 52L54 53L55 53L55 52ZM34 54L34 55L36 55L36 54ZM44 54L44 55L45 55L45 54ZM17 55L17 56L18 56L18 55ZM27 55L27 56L28 56L28 55ZM56 55L56 56L57 56L57 55ZM52 56L52 57L53 57L53 56ZM54 56L54 57L55 57L55 56ZM0 0L0 7L7 7L7 0ZM1 1L1 6L6 6L6 1ZM2 2L2 5L5 5L5 2ZM50 0L50 7L57 7L57 0ZM51 1L51 6L56 6L56 1ZM52 2L52 5L55 5L55 2ZM0 50L0 57L7 57L7 50ZM1 51L1 56L6 56L6 51ZM2 52L2 55L5 55L5 52Z" fill="#000000"/></g></g></svg>
