<?xml version="1.0" encoding="UTF-8"?>
<svg xmlns="http://www.w3.org/2000/svg" version="1.1" width="300" height="300" viewBox="0 0 300 300"><rect x="0" y="0" width="300" height="300" fill="#fefefe"/><g transform="scale(4.615)"><g transform="translate(4,4)"><path fill-rule="evenodd" d="M13 0L13 1L12 1L12 2L13 2L13 3L11 3L11 2L9 2L9 1L8 1L8 2L9 2L9 3L8 3L8 4L9 4L9 5L8 5L8 7L9 7L9 5L11 5L11 6L10 6L10 8L6 8L6 9L7 9L7 10L6 10L6 11L8 11L8 12L5 12L5 15L4 15L4 14L3 14L3 11L4 11L4 9L5 9L5 8L0 8L0 9L3 9L3 10L2 10L2 14L3 14L3 15L2 15L2 16L3 16L3 17L1 17L1 16L0 16L0 17L1 17L1 18L2 18L2 19L3 19L3 20L4 20L4 19L5 19L5 22L6 22L6 23L4 23L4 22L3 22L3 21L0 21L0 22L1 22L1 24L0 24L0 26L1 26L1 27L0 27L0 28L1 28L1 29L4 29L4 30L2 30L2 31L0 31L0 32L1 32L1 33L0 33L0 35L1 35L1 36L0 36L0 38L3 38L3 39L0 39L0 40L1 40L1 41L0 41L0 48L5 48L5 47L7 47L7 48L6 48L6 49L7 49L7 48L8 48L8 51L9 51L9 52L8 52L8 57L10 57L10 56L12 56L12 54L10 54L10 52L12 52L12 53L14 53L14 55L13 55L13 57L15 57L15 55L16 55L16 56L17 56L17 57L19 57L19 56L17 56L17 54L19 54L19 55L20 55L20 54L19 54L19 53L20 53L20 52L21 52L21 53L22 53L22 55L21 55L21 56L24 56L24 55L23 55L23 54L24 54L24 53L25 53L25 54L26 54L26 56L25 56L25 57L26 57L26 56L27 56L27 57L29 57L29 56L30 56L30 57L31 57L31 56L35 56L35 57L39 57L39 56L40 56L40 55L44 55L44 56L43 56L43 57L44 57L44 56L45 56L45 57L46 57L46 56L45 56L45 55L46 55L46 54L45 54L45 53L47 53L47 51L45 51L45 50L44 50L44 51L43 51L43 49L44 49L44 48L45 48L45 47L46 47L46 49L47 49L47 50L48 50L48 54L47 54L47 57L49 57L49 56L50 56L50 57L52 57L52 55L51 55L51 53L52 53L52 54L53 54L53 52L54 52L54 53L56 53L56 52L57 52L57 51L56 51L56 50L55 50L55 49L54 49L54 48L56 48L56 49L57 49L57 48L56 48L56 46L57 46L57 45L56 45L56 44L55 44L55 43L56 43L56 42L57 42L57 41L56 41L56 42L55 42L55 39L57 39L57 37L56 37L56 36L57 36L57 35L56 35L56 34L57 34L57 32L56 32L56 30L57 30L57 29L56 29L56 28L57 28L57 27L56 27L56 26L57 26L57 25L56 25L56 22L57 22L57 21L56 21L56 20L55 20L55 19L56 19L56 16L57 16L57 15L56 15L56 14L57 14L57 11L56 11L56 8L55 8L55 10L54 10L54 11L51 11L51 10L52 10L52 8L51 8L51 10L50 10L50 8L49 8L49 6L48 6L48 7L47 7L47 5L48 5L48 0L46 0L46 1L47 1L47 2L44 2L44 3L43 3L43 4L40 4L40 5L39 5L39 6L38 6L38 9L37 9L37 8L35 8L35 5L36 5L36 7L37 7L37 5L38 5L38 3L42 3L42 2L43 2L43 0L41 0L41 1L40 1L40 0L39 0L39 1L38 1L38 0L37 0L37 1L38 1L38 3L36 3L36 0L35 0L35 1L33 1L33 2L32 2L32 3L31 3L31 4L26 4L26 3L23 3L23 2L27 2L27 1L25 1L25 0L23 0L23 2L21 2L21 3L23 3L23 4L24 4L24 5L22 5L22 4L19 4L19 3L20 3L20 1L18 1L18 0L17 0L17 1L18 1L18 2L16 2L16 1L14 1L14 0ZM21 0L21 1L22 1L22 0ZM29 0L29 1L28 1L28 3L29 3L29 1L31 1L31 0ZM13 1L13 2L14 2L14 4L13 4L13 7L12 7L12 6L11 6L11 8L12 8L12 10L11 10L11 9L8 9L8 11L10 11L10 13L11 13L11 15L12 15L12 17L13 17L13 14L15 14L15 13L16 13L16 16L15 16L15 15L14 15L14 18L12 18L12 19L11 19L11 16L10 16L10 14L9 14L9 12L8 12L8 13L6 13L6 14L9 14L9 16L8 16L8 15L5 15L5 16L4 16L4 15L3 15L3 16L4 16L4 17L3 17L3 19L4 19L4 17L6 17L6 18L7 18L7 19L6 19L6 20L7 20L7 19L8 19L8 20L9 20L9 21L6 21L6 22L7 22L7 23L6 23L6 24L5 24L5 26L8 26L8 25L6 25L6 24L7 24L7 23L9 23L9 22L11 22L11 23L12 23L12 24L11 24L11 25L12 25L12 26L13 26L13 27L11 27L11 28L13 28L13 29L16 29L16 30L18 30L18 29L19 29L19 28L20 28L20 30L19 30L19 32L20 32L20 30L21 30L21 31L23 31L23 29L26 29L26 28L23 28L23 26L22 26L22 27L20 27L20 26L21 26L21 25L23 25L23 24L21 24L21 23L24 23L24 24L25 24L25 25L26 25L26 26L24 26L24 27L26 27L26 26L27 26L27 25L29 25L29 24L30 24L30 25L31 25L31 24L32 24L32 26L31 26L31 28L32 28L32 29L31 29L31 31L30 31L30 32L29 32L29 31L27 31L27 32L26 32L26 31L25 31L25 30L24 30L24 31L25 31L25 32L21 32L21 33L19 33L19 34L20 34L20 36L19 36L19 35L17 35L17 36L15 36L15 35L16 35L16 34L18 34L18 33L16 33L16 32L14 32L14 33L13 33L13 34L14 34L14 36L13 36L13 37L10 37L10 38L13 38L13 37L14 37L14 39L12 39L12 40L11 40L11 39L6 39L6 40L7 40L7 41L4 41L4 44L3 44L3 43L2 43L2 45L3 45L3 47L5 47L5 45L4 45L4 44L8 44L8 46L7 46L7 45L6 45L6 46L7 46L7 47L9 47L9 51L11 51L11 50L10 50L10 47L9 47L9 44L10 44L10 46L12 46L12 47L11 47L11 48L14 48L14 49L15 49L15 50L13 50L13 49L12 49L12 51L14 51L14 53L15 53L15 54L16 54L16 53L17 53L17 52L16 52L16 51L18 51L18 52L19 52L19 51L18 51L18 49L15 49L15 46L17 46L17 47L19 47L19 49L20 49L20 51L23 51L23 52L22 52L22 53L24 53L24 52L26 52L26 49L25 49L25 48L29 48L29 46L30 46L30 45L31 45L31 48L32 48L32 49L31 49L31 50L32 50L32 51L31 51L31 53L30 53L30 54L27 54L27 53L26 53L26 54L27 54L27 56L29 56L29 55L30 55L30 56L31 56L31 54L32 54L32 53L33 53L33 55L35 55L35 56L36 56L36 54L35 54L35 51L34 51L34 50L36 50L36 52L38 52L38 54L40 54L40 53L42 53L42 52L43 52L43 51L42 51L42 50L41 50L41 48L42 48L42 49L43 49L43 48L44 48L44 47L45 47L45 46L47 46L47 47L48 47L48 48L47 48L47 49L48 49L48 48L49 48L49 47L48 47L48 46L47 46L47 45L48 45L48 44L49 44L49 46L50 46L50 48L53 48L53 47L55 47L55 46L56 46L56 45L55 45L55 44L54 44L54 45L52 45L52 44L53 44L53 43L54 43L54 42L53 42L53 41L54 41L54 40L53 40L53 41L51 41L51 42L50 42L50 43L49 43L49 42L48 42L48 41L49 41L49 39L47 39L47 37L48 37L48 38L49 38L49 37L48 37L48 36L50 36L50 39L51 39L51 38L53 38L53 39L54 39L54 38L53 38L53 35L55 35L55 36L56 36L56 35L55 35L55 34L56 34L56 32L54 32L54 31L55 31L55 30L54 30L54 29L55 29L55 28L54 28L54 29L53 29L53 30L54 30L54 31L48 31L48 29L46 29L46 30L47 30L47 31L46 31L46 33L45 33L45 32L43 32L43 31L45 31L45 28L46 28L46 27L47 27L47 28L48 28L48 27L47 27L47 25L49 25L49 24L50 24L50 22L51 22L51 21L53 21L53 22L56 22L56 21L55 21L55 20L53 20L53 19L52 19L52 17L53 17L53 18L55 18L55 16L53 16L53 15L50 15L50 14L51 14L51 12L50 12L50 10L49 10L49 11L48 11L48 12L45 12L45 11L46 11L46 10L47 10L47 9L49 9L49 8L47 8L47 7L46 7L46 5L47 5L47 3L44 3L44 6L43 6L43 7L44 7L44 9L43 9L43 8L42 8L42 9L43 9L43 11L42 11L42 10L41 10L41 7L42 7L42 5L40 5L40 6L39 6L39 9L38 9L38 10L37 10L37 9L35 9L35 8L34 8L34 9L33 9L33 7L34 7L34 6L33 6L33 5L35 5L35 4L33 4L33 3L35 3L35 2L33 2L33 3L32 3L32 4L31 4L31 8L32 8L32 10L29 10L29 9L27 9L27 11L26 11L26 12L25 12L25 11L23 11L23 13L22 13L22 12L21 12L21 13L20 13L20 12L19 12L19 13L20 13L20 14L19 14L19 16L20 16L20 18L19 18L19 17L18 17L18 14L17 14L17 13L18 13L18 12L17 12L17 13L16 13L16 12L15 12L15 13L12 13L12 12L14 12L14 11L13 11L13 10L15 10L15 11L18 11L18 10L19 10L19 9L20 9L20 11L22 11L22 10L23 10L23 9L25 9L25 8L26 8L26 4L25 4L25 8L24 8L24 6L23 6L23 7L22 7L22 5L21 5L21 8L19 8L19 9L16 9L16 8L17 8L17 7L18 7L18 6L19 6L19 7L20 7L20 5L19 5L19 4L18 4L18 3L19 3L19 2L18 2L18 3L15 3L15 2L14 2L14 1ZM9 3L9 4L11 4L11 3ZM15 4L15 5L14 5L14 8L13 8L13 9L14 9L14 8L16 8L16 7L17 7L17 6L18 6L18 4L17 4L17 6L16 6L16 7L15 7L15 5L16 5L16 4ZM32 4L32 5L33 5L33 4ZM36 4L36 5L37 5L37 4ZM45 4L45 5L46 5L46 4ZM27 5L27 8L30 8L30 5ZM28 6L28 7L29 7L29 6ZM32 6L32 7L33 7L33 6ZM40 6L40 7L41 7L41 6ZM44 6L44 7L45 7L45 6ZM46 8L46 9L44 9L44 11L45 11L45 10L46 10L46 9L47 9L47 8ZM53 8L53 9L54 9L54 8ZM21 9L21 10L22 10L22 9ZM10 10L10 11L11 11L11 10ZM32 10L32 11L31 11L31 13L30 13L30 14L29 14L29 13L28 13L28 12L29 12L29 11L27 11L27 12L26 12L26 13L25 13L25 12L24 12L24 13L23 13L23 14L22 14L22 13L21 13L21 15L20 15L20 16L21 16L21 17L22 17L22 18L24 18L24 19L21 19L21 18L20 18L20 19L21 19L21 20L24 20L24 21L21 21L21 22L24 22L24 21L25 21L25 22L26 22L26 23L25 23L25 24L28 24L28 23L27 23L27 22L28 22L28 21L25 21L25 20L26 20L26 18L25 18L25 17L26 17L26 15L27 15L27 16L28 16L28 17L27 17L27 18L28 18L28 19L27 19L27 20L28 20L28 19L29 19L29 20L30 20L30 21L29 21L29 23L31 23L31 21L32 21L32 20L33 20L33 21L34 21L34 20L35 20L35 23L34 23L34 22L33 22L33 23L32 23L32 24L33 24L33 25L37 25L37 26L38 26L38 25L39 25L39 27L36 27L36 26L34 26L34 27L33 27L33 26L32 26L32 27L33 27L33 28L35 28L35 30L32 30L32 31L33 31L33 34L32 34L32 35L31 35L31 33L32 33L32 32L31 32L31 33L29 33L29 32L28 32L28 33L29 33L29 34L30 34L30 36L29 36L29 37L31 37L31 38L29 38L29 39L33 39L33 40L35 40L35 42L37 42L37 43L36 43L36 44L35 44L35 43L34 43L34 42L33 42L33 41L32 41L32 40L29 40L29 41L30 41L30 42L29 42L29 43L24 43L24 42L25 42L25 41L24 41L24 40L25 40L25 39L26 39L26 40L28 40L28 39L27 39L27 38L28 38L28 37L27 37L27 36L26 36L26 35L27 35L27 34L26 34L26 35L25 35L25 33L26 33L26 32L25 32L25 33L23 33L23 34L22 34L22 33L21 33L21 34L22 34L22 35L21 35L21 36L22 36L22 35L23 35L23 34L24 34L24 36L23 36L23 37L24 37L24 38L21 38L21 37L19 37L19 36L17 36L17 38L18 38L18 39L17 39L17 42L14 42L14 43L13 43L13 42L12 42L12 41L11 41L11 40L10 40L10 41L9 41L9 40L8 40L8 41L7 41L7 42L5 42L5 43L9 43L9 42L12 42L12 43L11 43L11 45L12 45L12 43L13 43L13 45L15 45L15 44L16 44L16 45L17 45L17 46L19 46L19 47L25 47L25 45L24 45L24 44L27 44L27 45L26 45L26 47L28 47L28 46L27 46L27 45L28 45L28 44L29 44L29 43L32 43L32 44L31 44L31 45L32 45L32 46L33 46L33 47L32 47L32 48L33 48L33 49L36 49L36 50L38 50L38 52L39 52L39 51L40 51L40 52L41 52L41 50L38 50L38 49L39 49L39 48L41 48L41 46L43 46L43 47L42 47L42 48L43 48L43 47L44 47L44 46L43 46L43 45L44 45L44 43L45 43L45 41L43 41L43 40L45 40L45 39L43 39L43 40L42 40L42 41L40 41L40 42L41 42L41 43L39 43L39 42L38 42L38 40L40 40L40 39L38 39L38 40L35 40L35 39L37 39L37 38L38 38L38 37L40 37L40 38L43 38L43 37L44 37L44 38L45 38L45 37L44 37L44 36L47 36L47 35L46 35L46 34L45 34L45 33L43 33L43 32L41 32L41 33L39 33L39 34L40 34L40 35L38 35L38 33L37 33L37 32L34 32L34 31L36 31L36 30L37 30L37 29L38 29L38 28L40 28L40 27L41 27L41 28L42 28L42 27L41 27L41 26L43 26L43 25L44 25L44 26L45 26L45 27L43 27L43 28L45 28L45 27L46 27L46 26L45 26L45 25L46 25L46 23L47 23L47 24L48 24L48 23L49 23L49 21L51 21L51 20L52 20L52 19L50 19L50 17L47 17L47 16L48 16L48 15L49 15L49 16L50 16L50 15L49 15L49 14L50 14L50 12L49 12L49 13L47 13L47 14L45 14L45 16L46 16L46 17L45 17L45 18L44 18L44 14L43 14L43 13L44 13L44 12L43 12L43 13L41 13L41 14L38 14L38 13L39 13L39 11L40 11L40 12L41 12L41 10L39 10L39 11L37 11L37 10L36 10L36 12L35 12L35 14L32 14L32 12L33 12L33 13L34 13L34 12L33 12L33 10ZM55 11L55 12L54 12L54 13L53 13L53 12L52 12L52 13L53 13L53 14L54 14L54 13L55 13L55 14L56 14L56 11ZM0 12L0 13L1 13L1 12ZM26 13L26 14L24 14L24 15L21 15L21 16L22 16L22 17L25 17L25 16L24 16L24 15L26 15L26 14L27 14L27 15L28 15L28 16L29 16L29 14L28 14L28 13ZM36 13L36 14L37 14L37 15L35 15L35 16L31 16L31 17L33 17L33 18L35 18L35 19L36 19L36 20L37 20L37 21L38 21L38 22L37 22L37 24L39 24L39 25L43 25L43 23L41 23L41 24L39 24L39 23L40 23L40 22L39 22L39 21L41 21L41 20L39 20L39 21L38 21L38 20L37 20L37 19L39 19L39 17L41 17L41 16L42 16L42 17L43 17L43 16L42 16L42 15L43 15L43 14L41 14L41 16L39 16L39 15L38 15L38 14L37 14L37 13ZM0 14L0 15L1 15L1 14ZM30 14L30 15L31 15L31 14ZM46 15L46 16L47 16L47 15ZM6 16L6 17L7 17L7 16ZM16 16L16 17L17 17L17 18L18 18L18 19L17 19L17 21L16 21L16 19L15 19L15 21L16 21L16 22L15 22L15 23L14 23L14 21L13 21L13 20L14 20L14 19L12 19L12 21L11 21L11 20L10 20L10 21L11 21L11 22L13 22L13 26L14 26L14 27L13 27L13 28L15 28L15 25L16 25L16 24L17 24L17 25L19 25L19 26L20 26L20 25L21 25L21 24L20 24L20 25L19 25L19 24L17 24L17 22L19 22L19 23L20 23L20 22L19 22L19 21L20 21L20 20L19 20L19 18L18 18L18 17L17 17L17 16ZM35 16L35 17L37 17L37 18L38 18L38 17L39 17L39 16L38 16L38 17L37 17L37 16ZM46 17L46 18L45 18L45 20L44 20L44 18L43 18L43 20L42 20L42 21L43 21L43 20L44 20L44 25L45 25L45 23L46 23L46 22L47 22L47 19L48 19L48 18L47 18L47 17ZM8 18L8 19L10 19L10 18ZM30 18L30 19L32 19L32 18ZM41 18L41 19L42 19L42 18ZM46 18L46 19L47 19L47 18ZM33 19L33 20L34 20L34 19ZM2 22L2 24L1 24L1 25L3 25L3 26L4 26L4 23L3 23L3 22ZM38 22L38 23L39 23L39 22ZM15 23L15 24L16 24L16 23ZM9 24L9 25L10 25L10 24ZM51 24L51 25L50 25L50 26L51 26L51 25L52 25L52 26L53 26L53 27L54 27L54 26L53 26L53 24ZM9 26L9 31L10 31L10 30L11 30L11 32L10 32L10 33L11 33L11 32L12 32L12 29L10 29L10 26ZM16 26L16 27L18 27L18 26ZM3 27L3 28L4 28L4 27ZM5 27L5 30L8 30L8 27ZM27 27L27 30L30 30L30 27ZM49 27L49 30L52 30L52 27ZM6 28L6 29L7 29L7 28ZM16 28L16 29L18 29L18 28ZM21 28L21 29L22 29L22 28ZM28 28L28 29L29 29L29 28ZM50 28L50 29L51 29L51 28ZM41 29L41 30L40 30L40 31L41 31L41 30L44 30L44 29ZM13 30L13 31L15 31L15 30ZM38 30L38 32L39 32L39 30ZM3 31L3 33L5 33L5 32L8 32L8 33L6 33L6 34L8 34L8 35L6 35L6 36L9 36L9 35L10 35L10 36L11 36L11 35L10 35L10 34L8 34L8 33L9 33L9 32L8 32L8 31L5 31L5 32L4 32L4 31ZM47 31L47 32L48 32L48 33L49 33L49 32L48 32L48 31ZM50 32L50 34L48 34L48 35L50 35L50 36L51 36L51 37L52 37L52 35L53 35L53 34L52 34L52 33L54 33L54 34L55 34L55 33L54 33L54 32L52 32L52 33L51 33L51 32ZM1 33L1 35L2 35L2 36L1 36L1 37L2 37L2 36L4 36L4 37L3 37L3 38L4 38L4 39L3 39L3 40L2 40L2 42L3 42L3 40L4 40L4 39L5 39L5 38L4 38L4 37L5 37L5 36L4 36L4 35L5 35L5 34L4 34L4 35L3 35L3 34L2 34L2 33ZM14 33L14 34L16 34L16 33ZM34 33L34 34L33 34L33 36L32 36L32 37L33 37L33 38L34 38L34 39L35 39L35 37L34 37L34 34L35 34L35 36L37 36L37 37L38 37L38 35L37 35L37 34L35 34L35 33ZM42 34L42 35L41 35L41 36L40 36L40 37L43 37L43 36L44 36L44 35L45 35L45 34ZM50 34L50 35L52 35L52 34ZM42 35L42 36L43 36L43 35ZM6 37L6 38L8 38L8 37ZM15 37L15 38L16 38L16 37ZM25 37L25 38L27 38L27 37ZM19 38L19 39L18 39L18 40L19 40L19 39L20 39L20 38ZM14 39L14 40L13 40L13 41L14 41L14 40L16 40L16 39ZM23 39L23 40L20 40L20 42L19 42L19 41L18 41L18 42L17 42L17 43L18 43L18 42L19 42L19 43L20 43L20 46L21 46L21 45L22 45L22 46L23 46L23 45L22 45L22 44L21 44L21 43L22 43L22 42L23 42L23 40L24 40L24 39ZM46 39L46 41L47 41L47 39ZM8 41L8 42L9 42L9 41ZM21 41L21 42L22 42L22 41ZM26 41L26 42L27 42L27 41ZM31 41L31 42L32 42L32 43L33 43L33 44L32 44L32 45L33 45L33 46L35 46L35 45L34 45L34 43L33 43L33 42L32 42L32 41ZM43 42L43 43L44 43L44 42ZM47 42L47 43L46 43L46 44L45 44L45 45L47 45L47 43L48 43L48 42ZM51 42L51 43L50 43L50 46L51 46L51 47L52 47L52 45L51 45L51 43L53 43L53 42ZM41 43L41 44L39 44L39 45L38 45L38 46L41 46L41 44L42 44L42 43ZM17 44L17 45L18 45L18 44ZM36 45L36 46L37 46L37 45ZM54 45L54 46L55 46L55 45ZM1 46L1 47L2 47L2 46ZM34 47L34 48L36 48L36 47ZM38 47L38 48L37 48L37 49L38 49L38 48L39 48L39 47ZM23 48L23 49L21 49L21 50L25 50L25 49L24 49L24 48ZM27 49L27 52L30 52L30 49ZM49 49L49 52L52 52L52 49ZM28 50L28 51L29 51L29 50ZM50 50L50 51L51 51L51 50ZM54 50L54 51L55 51L55 52L56 52L56 51L55 51L55 50ZM32 51L32 52L33 52L33 53L34 53L34 52L33 52L33 51ZM15 52L15 53L16 53L16 52ZM44 52L44 53L43 53L43 54L44 54L44 55L45 55L45 54L44 54L44 53L45 53L45 52ZM9 54L9 56L10 56L10 54ZM37 55L37 56L39 56L39 55ZM48 55L48 56L49 56L49 55ZM50 55L50 56L51 56L51 55ZM53 55L53 56L55 56L55 57L56 57L56 56L55 56L55 55ZM0 0L0 7L7 7L7 0ZM1 1L1 6L6 6L6 1ZM2 2L2 5L5 5L5 2ZM50 0L50 7L57 7L57 0ZM51 1L51 6L56 6L56 1ZM52 2L52 5L55 5L55 2ZM0 50L0 57L7 57L7 50ZM1 51L1 56L6 56L6 51ZM2 52L2 55L5 55L5 52Z" fill="#000000"/></g></g></svg>
