<?xml version="1.0" encoding="UTF-8"?>
<svg xmlns="http://www.w3.org/2000/svg" version="1.1" width="300" height="300" viewBox="0 0 300 300"><rect x="0" y="0" width="300" height="300" fill="#fefefe"/><g transform="scale(4.615)"><g transform="translate(4,4)"><path fill-rule="evenodd" d="M8 0L8 2L9 2L9 3L11 3L11 2L10 2L10 1L9 1L9 0ZM11 0L11 1L13 1L13 0ZM14 0L14 3L13 3L13 4L8 4L8 9L7 9L7 8L5 8L5 10L3 10L3 8L0 8L0 11L1 11L1 12L0 12L0 13L1 13L1 12L2 12L2 10L3 10L3 12L4 12L4 13L2 13L2 14L1 14L1 15L0 15L0 16L1 16L1 17L2 17L2 18L1 18L1 19L0 19L0 20L1 20L1 19L2 19L2 21L0 21L0 23L1 23L1 22L2 22L2 21L3 21L3 22L4 22L4 23L2 23L2 27L3 27L3 28L1 28L1 27L0 27L0 30L1 30L1 29L3 29L3 30L2 30L2 31L1 31L1 32L0 32L0 33L2 33L2 35L1 35L1 36L0 36L0 37L1 37L1 38L4 38L4 37L3 37L3 35L4 35L4 36L5 36L5 34L6 34L6 35L7 35L7 34L8 34L8 35L9 35L9 38L5 38L5 39L7 39L7 40L6 40L6 41L7 41L7 42L6 42L6 43L7 43L7 42L9 42L9 43L8 43L8 44L9 44L9 43L10 43L10 45L9 45L9 46L6 46L6 45L7 45L7 44L6 44L6 45L5 45L5 47L3 47L3 45L4 45L4 44L5 44L5 42L4 42L4 39L2 39L2 40L1 40L1 39L0 39L0 42L1 42L1 41L2 41L2 40L3 40L3 43L0 43L0 44L1 44L1 45L0 45L0 48L5 48L5 47L8 47L8 50L9 50L9 51L8 51L8 52L9 52L9 53L10 53L10 51L12 51L12 52L13 52L13 51L15 51L15 50L16 50L16 51L18 51L18 55L16 55L16 54L17 54L17 52L15 52L15 55L14 55L14 54L13 54L13 56L16 56L16 57L17 57L17 56L18 56L18 57L19 57L19 51L20 51L20 53L21 53L21 54L20 54L20 55L21 55L21 56L20 56L20 57L21 57L21 56L22 56L22 57L24 57L24 56L25 56L25 55L24 55L24 54L25 54L25 51L26 51L26 55L27 55L27 56L26 56L26 57L28 57L28 55L29 55L29 57L33 57L33 55L34 55L34 57L35 57L35 55L37 55L37 54L38 54L38 53L39 53L39 56L40 56L40 57L42 57L42 56L44 56L44 57L45 57L45 56L46 56L46 53L49 53L49 54L48 54L48 55L49 55L49 56L48 56L48 57L50 57L50 55L49 55L49 54L52 54L52 55L53 55L53 56L51 56L51 57L54 57L54 54L55 54L55 55L57 55L57 54L55 54L55 52L56 52L56 53L57 53L57 52L56 52L56 51L57 51L57 49L56 49L56 47L57 47L57 42L56 42L56 41L57 41L57 40L54 40L54 39L55 39L55 38L57 38L57 37L56 37L56 35L57 35L57 33L56 33L56 31L57 31L57 28L56 28L56 27L57 27L57 24L56 24L56 23L57 23L57 20L56 20L56 23L55 23L55 24L54 24L54 22L55 22L55 21L54 21L54 19L55 19L55 16L56 16L56 17L57 17L57 10L56 10L56 11L55 11L55 9L57 9L57 8L55 8L55 9L54 9L54 10L53 10L53 8L49 8L49 6L48 6L48 9L47 9L47 11L46 11L46 8L47 8L47 5L48 5L48 0L46 0L46 1L47 1L47 2L45 2L45 4L44 4L44 2L43 2L43 3L42 3L42 4L41 4L41 6L40 6L40 7L41 7L41 8L40 8L40 9L41 9L41 11L40 11L40 10L39 10L39 11L38 11L38 8L39 8L39 6L38 6L38 5L39 5L39 4L40 4L40 2L42 2L42 1L45 1L45 0L42 0L42 1L41 1L41 0L38 0L38 2L37 2L37 1L35 1L35 0L34 0L34 2L33 2L33 1L32 1L32 2L31 2L31 0L30 0L30 2L29 2L29 3L30 3L30 4L28 4L28 3L27 3L27 0L26 0L26 1L25 1L25 0L24 0L24 1L23 1L23 0L20 0L20 1L19 1L19 0L18 0L18 1L19 1L19 2L22 2L22 3L21 3L21 4L22 4L22 5L20 5L20 7L19 7L19 5L18 5L18 2L16 2L16 1L17 1L17 0L16 0L16 1L15 1L15 0ZM28 0L28 1L29 1L29 0ZM22 1L22 2L23 2L23 1ZM24 1L24 4L25 4L25 1ZM39 1L39 2L40 2L40 1ZM30 2L30 3L31 3L31 2ZM32 2L32 5L31 5L31 9L30 9L30 10L31 10L31 9L32 9L32 11L31 11L31 12L30 12L30 11L29 11L29 9L28 9L28 11L27 11L27 10L25 10L25 9L26 9L26 5L24 5L24 6L23 6L23 5L22 5L22 6L21 6L21 9L20 9L20 10L21 10L21 11L18 11L18 12L19 12L19 13L18 13L18 14L17 14L17 11L16 11L16 10L18 10L18 8L19 8L19 7L18 7L18 6L17 6L17 5L16 5L16 6L15 6L15 5L9 5L9 8L10 8L10 10L9 10L9 11L10 11L10 12L11 12L11 13L9 13L9 12L8 12L8 10L7 10L7 9L6 9L6 10L7 10L7 11L6 11L6 12L5 12L5 11L4 11L4 12L5 12L5 13L4 13L4 14L2 14L2 15L1 15L1 16L3 16L3 17L4 17L4 19L3 19L3 18L2 18L2 19L3 19L3 21L4 21L4 20L5 20L5 16L7 16L7 17L6 17L6 18L7 18L7 19L6 19L6 20L7 20L7 21L6 21L6 22L7 22L7 23L4 23L4 24L3 24L3 25L4 25L4 26L5 26L5 25L6 25L6 26L7 26L7 25L8 25L8 24L7 24L7 23L9 23L9 26L12 26L12 27L13 27L13 28L11 28L11 27L9 27L9 28L11 28L11 29L10 29L10 30L9 30L9 32L7 32L7 31L5 31L5 33L4 33L4 32L3 32L3 31L2 31L2 33L3 33L3 34L5 34L5 33L6 33L6 34L7 34L7 33L10 33L10 38L9 38L9 39L8 39L8 40L7 40L7 41L9 41L9 42L10 42L10 43L12 43L12 44L11 44L11 45L12 45L12 44L14 44L14 43L15 43L15 45L16 45L16 46L17 46L17 47L16 47L16 48L15 48L15 49L14 49L14 47L13 47L13 46L14 46L14 45L13 45L13 46L10 46L10 47L9 47L9 48L10 48L10 50L12 50L12 51L13 51L13 50L12 50L12 49L14 49L14 50L15 50L15 49L16 49L16 50L18 50L18 48L19 48L19 47L20 47L20 51L21 51L21 50L22 50L22 48L23 48L23 49L24 49L24 51L22 51L22 52L21 52L21 53L22 53L22 54L21 54L21 55L22 55L22 56L23 56L23 53L22 53L22 52L24 52L24 51L25 51L25 49L26 49L26 48L27 48L27 47L28 47L28 46L29 46L29 47L30 47L30 48L31 48L31 49L32 49L32 50L31 50L31 52L32 52L32 51L33 51L33 49L34 49L34 50L35 50L35 51L34 51L34 52L35 52L35 53L34 53L34 55L35 55L35 53L36 53L36 54L37 54L37 53L38 53L38 52L39 52L39 53L40 53L40 52L39 52L39 49L40 49L40 51L41 51L41 52L42 52L42 51L41 51L41 49L42 49L42 50L43 50L43 51L45 51L45 49L46 49L46 51L47 51L47 52L48 52L48 51L47 51L47 49L46 49L46 48L45 48L45 49L44 49L44 47L45 47L45 45L44 45L44 44L45 44L45 41L44 41L44 40L43 40L43 38L44 38L44 35L43 35L43 33L42 33L42 31L43 31L43 30L44 30L44 27L46 27L46 26L51 26L51 25L52 25L52 26L53 26L53 25L54 25L54 26L55 26L55 25L56 25L56 24L55 24L55 25L54 25L54 24L53 24L53 25L52 25L52 23L53 23L53 22L52 22L52 20L53 20L53 19L54 19L54 16L55 16L55 15L56 15L56 13L55 13L55 11L54 11L54 12L53 12L53 13L54 13L54 14L52 14L52 13L50 13L50 10L52 10L52 9L50 9L50 10L49 10L49 9L48 9L48 10L49 10L49 11L47 11L47 12L48 12L48 14L47 14L47 13L46 13L46 11L45 11L45 9L44 9L44 8L46 8L46 6L45 6L45 5L44 5L44 4L43 4L43 5L44 5L44 6L43 6L43 7L42 7L42 6L41 6L41 7L42 7L42 8L43 8L43 9L42 9L42 10L43 10L43 12L42 12L42 11L41 11L41 12L42 12L42 15L41 15L41 13L40 13L40 14L39 14L39 12L37 12L37 11L34 11L34 10L36 10L36 6L37 6L37 7L38 7L38 6L37 6L37 5L38 5L38 4L39 4L39 3L37 3L37 2L34 2L34 4L35 4L35 9L34 9L34 10L33 10L33 9L32 9L32 8L34 8L34 6L33 6L33 2ZM14 3L14 4L15 4L15 3ZM16 3L16 4L17 4L17 3ZM22 3L22 4L23 4L23 3ZM26 3L26 4L27 4L27 3ZM35 3L35 4L36 4L36 3ZM46 3L46 5L47 5L47 3ZM27 5L27 8L30 8L30 5ZM10 6L10 8L11 8L11 9L13 9L13 8L14 8L14 9L15 9L15 6L14 6L14 7L13 7L13 6L12 6L12 7L11 7L11 6ZM16 6L16 7L17 7L17 8L18 8L18 7L17 7L17 6ZM22 6L22 7L23 7L23 6ZM24 6L24 7L25 7L25 6ZM28 6L28 7L29 7L29 6ZM32 6L32 7L33 7L33 6ZM44 6L44 7L43 7L43 8L44 8L44 7L45 7L45 6ZM22 8L22 10L23 10L23 11L22 11L22 12L23 12L23 11L24 11L24 13L23 13L23 14L24 14L24 13L25 13L25 16L26 16L26 18L24 18L24 16L22 16L22 14L20 14L20 13L21 13L21 12L20 12L20 13L19 13L19 14L18 14L18 17L17 17L17 16L16 16L16 17L15 17L15 16L14 16L14 15L13 15L13 10L11 10L11 12L12 12L12 13L11 13L11 14L12 14L12 15L13 15L13 16L14 16L14 17L11 17L11 15L10 15L10 14L8 14L8 15L7 15L7 14L6 14L6 13L8 13L8 12L6 12L6 13L5 13L5 15L7 15L7 16L9 16L9 15L10 15L10 17L11 17L11 18L8 18L8 19L7 19L7 20L8 20L8 21L7 21L7 22L8 22L8 21L9 21L9 22L10 22L10 21L9 21L9 20L11 20L11 18L12 18L12 20L13 20L13 21L12 21L12 22L11 22L11 23L10 23L10 25L13 25L13 23L14 23L14 24L16 24L16 25L15 25L15 26L13 26L13 27L14 27L14 28L13 28L13 29L12 29L12 32L13 32L13 31L14 31L14 29L15 29L15 27L16 27L16 25L17 25L17 26L18 26L18 25L19 25L19 24L18 24L18 23L16 23L16 22L18 22L18 21L19 21L19 20L20 20L20 21L21 21L21 22L20 22L20 23L22 23L22 22L23 22L23 24L22 24L22 26L20 26L20 27L21 27L21 28L19 28L19 27L18 27L18 28L19 28L19 30L20 30L20 32L19 32L19 31L18 31L18 30L17 30L17 31L16 31L16 30L15 30L15 31L16 31L16 32L14 32L14 33L12 33L12 34L11 34L11 37L12 37L12 36L13 36L13 37L14 37L14 38L13 38L13 39L14 39L14 41L15 41L15 39L14 39L14 38L15 38L15 37L14 37L14 36L16 36L16 37L17 37L17 38L16 38L16 39L17 39L17 40L18 40L18 41L17 41L17 42L16 42L16 44L17 44L17 46L18 46L18 47L19 47L19 46L18 46L18 45L19 45L19 44L20 44L20 43L21 43L21 42L20 42L20 41L21 41L21 40L22 40L22 41L23 41L23 40L22 40L22 37L23 37L23 35L25 35L25 36L24 36L24 37L26 37L26 38L24 38L24 39L26 39L26 40L25 40L25 41L26 41L26 42L25 42L25 43L24 43L24 44L23 44L23 43L22 43L22 44L23 44L23 48L24 48L24 47L26 47L26 46L28 46L28 45L29 45L29 43L28 43L28 41L30 41L30 43L31 43L31 38L33 38L33 39L34 39L34 41L33 41L33 40L32 40L32 45L33 45L33 46L32 46L32 47L31 47L31 46L30 46L30 47L31 47L31 48L32 48L32 49L33 49L33 47L34 47L34 48L35 48L35 47L36 47L36 46L38 46L38 45L37 45L37 44L39 44L39 43L37 43L37 44L36 44L36 46L35 46L35 47L34 47L34 45L33 45L33 44L35 44L35 43L36 43L36 41L37 41L37 42L38 42L38 41L39 41L39 40L40 40L40 41L41 41L41 42L40 42L40 43L41 43L41 42L42 42L42 43L43 43L43 44L42 44L42 45L41 45L41 44L40 44L40 46L41 46L41 47L40 47L40 49L41 49L41 47L42 47L42 45L43 45L43 46L44 46L44 45L43 45L43 44L44 44L44 41L43 41L43 40L42 40L42 36L43 36L43 35L40 35L40 36L39 36L39 38L38 38L38 37L37 37L37 36L38 36L38 35L39 35L39 34L38 34L38 33L39 33L39 32L40 32L40 34L42 34L42 33L41 33L41 32L40 32L40 31L42 31L42 28L43 28L43 27L44 27L44 26L43 26L43 27L41 27L41 24L42 24L42 25L43 25L43 22L44 22L44 23L45 23L45 22L44 22L44 21L45 21L45 19L47 19L47 20L46 20L46 21L47 21L47 22L48 22L48 23L46 23L46 24L44 24L44 25L45 25L45 26L46 26L46 24L50 24L50 25L51 25L51 24L50 24L50 22L48 22L48 19L49 19L49 20L51 20L51 19L52 19L52 18L53 18L53 16L54 16L54 15L52 15L52 14L51 14L51 15L50 15L50 13L49 13L49 14L48 14L48 15L46 15L46 13L45 13L45 12L44 12L44 13L43 13L43 16L44 16L44 17L43 17L43 18L42 18L42 17L41 17L41 15L40 15L40 18L38 18L38 16L37 16L37 15L38 15L38 13L37 13L37 12L36 12L36 14L35 14L35 15L34 15L34 13L35 13L35 12L34 12L34 11L32 11L32 14L33 14L33 15L32 15L32 17L31 17L31 16L30 16L30 15L29 15L29 13L30 13L30 12L29 12L29 11L28 11L28 12L27 12L27 14L28 14L28 15L29 15L29 16L30 16L30 17L28 17L28 18L30 18L30 17L31 17L31 19L29 19L29 20L28 20L28 21L29 21L29 20L32 20L32 21L33 21L33 22L31 22L31 23L30 23L30 24L28 24L28 23L29 23L29 22L28 22L28 23L26 23L26 22L27 22L27 20L26 20L26 19L27 19L27 16L26 16L26 11L24 11L24 9L25 9L25 8ZM1 9L1 10L2 10L2 9ZM43 9L43 10L44 10L44 9ZM14 11L14 12L15 12L15 11ZM51 11L51 12L52 12L52 11ZM44 13L44 16L46 16L46 18L47 18L47 16L46 16L46 15L45 15L45 13ZM15 14L15 15L17 15L17 14ZM36 14L36 15L35 15L35 17L34 17L34 15L33 15L33 17L34 17L34 18L36 18L36 19L37 19L37 20L38 20L38 22L37 22L37 21L36 21L36 20L35 20L35 19L33 19L33 20L35 20L35 21L34 21L34 22L35 22L35 23L36 23L36 24L34 24L34 23L33 23L33 24L34 24L34 26L33 26L33 25L32 25L32 23L31 23L31 24L30 24L30 26L31 26L31 25L32 25L32 27L31 27L31 31L32 31L32 32L30 32L30 31L28 31L28 32L26 32L26 30L25 30L25 27L22 27L22 28L24 28L24 30L25 30L25 32L24 32L24 31L23 31L23 32L24 32L24 34L26 34L26 36L27 36L27 38L26 38L26 39L27 39L27 40L30 40L30 36L31 36L31 37L32 37L32 36L31 36L31 35L28 35L28 34L29 34L29 32L30 32L30 34L32 34L32 32L33 32L33 33L34 33L34 35L35 35L35 36L33 36L33 37L34 37L34 38L35 38L35 41L34 41L34 42L35 42L35 41L36 41L36 38L37 38L37 41L38 41L38 38L37 38L37 37L36 37L36 35L38 35L38 34L37 34L37 33L36 33L36 31L37 31L37 32L38 32L38 31L40 31L40 30L39 30L39 29L40 29L40 28L41 28L41 27L39 27L39 29L38 29L38 28L37 28L37 30L36 30L36 27L37 27L37 26L36 26L36 24L37 24L37 25L38 25L38 26L40 26L40 23L41 23L41 22L40 22L40 19L41 19L41 20L42 20L42 22L43 22L43 21L44 21L44 19L45 19L45 17L44 17L44 19L41 19L41 18L40 18L40 19L39 19L39 20L38 20L38 19L37 19L37 18L36 18L36 15L37 15L37 14ZM3 15L3 16L4 16L4 15ZM49 15L49 16L50 16L50 18L52 18L52 15L51 15L51 16L50 16L50 15ZM14 17L14 18L15 18L15 17ZM16 17L16 19L14 19L14 20L16 20L16 19L17 19L17 21L18 21L18 20L19 20L19 19L20 19L20 20L21 20L21 21L22 21L22 19L20 19L20 18L21 18L21 17L20 17L20 18L19 18L19 17L18 17L18 18L17 18L17 17ZM48 17L48 18L49 18L49 17ZM56 18L56 19L57 19L57 18ZM8 19L8 20L9 20L9 19ZM24 19L24 20L25 20L25 21L26 21L26 20L25 20L25 19ZM14 21L14 23L15 23L15 21ZM35 21L35 22L36 22L36 23L37 23L37 22L36 22L36 21ZM24 22L24 23L25 23L25 22ZM38 22L38 25L39 25L39 22ZM51 22L51 23L52 23L52 22ZM11 23L11 24L12 24L12 23ZM0 24L0 25L1 25L1 24ZM4 24L4 25L5 25L5 24ZM6 24L6 25L7 25L7 24ZM17 24L17 25L18 25L18 24ZM23 24L23 25L24 25L24 26L25 26L25 25L24 25L24 24ZM27 24L27 25L26 25L26 26L29 26L29 25L28 25L28 24ZM5 27L5 30L8 30L8 27ZM27 27L27 30L30 30L30 27ZM34 27L34 29L33 29L33 28L32 28L32 29L33 29L33 32L34 32L34 33L35 33L35 35L36 35L36 33L35 33L35 31L34 31L34 29L35 29L35 27ZM49 27L49 30L52 30L52 27ZM54 27L54 28L53 28L53 29L54 29L54 33L53 33L53 31L52 31L52 32L50 32L50 33L49 33L49 34L48 34L48 33L46 33L46 32L45 32L45 33L46 33L46 34L48 34L48 35L45 35L45 37L46 37L46 38L47 38L47 40L46 40L46 39L45 39L45 40L46 40L46 42L47 42L47 44L46 44L46 47L47 47L47 44L48 44L48 46L49 46L49 47L50 47L50 48L52 48L52 46L53 46L53 49L54 49L54 50L53 50L53 51L54 51L54 52L55 52L55 51L56 51L56 49L55 49L55 47L56 47L56 44L55 44L55 43L56 43L56 42L55 42L55 41L54 41L54 40L52 40L52 39L53 39L53 37L54 37L54 38L55 38L55 37L54 37L54 36L55 36L55 35L56 35L56 34L55 34L55 31L56 31L56 30L55 30L55 27ZM3 28L3 29L4 29L4 28ZM6 28L6 29L7 29L7 28ZM28 28L28 29L29 29L29 28ZM46 28L46 29L45 29L45 30L46 30L46 31L47 31L47 30L48 30L48 29L47 29L47 28ZM50 28L50 29L51 29L51 28ZM20 29L20 30L21 30L21 33L20 33L20 34L23 34L23 33L22 33L22 30L23 30L23 29L22 29L22 30L21 30L21 29ZM10 30L10 33L11 33L11 30ZM37 30L37 31L38 31L38 30ZM17 31L17 32L18 32L18 31ZM6 32L6 33L7 33L7 32ZM14 33L14 34L12 34L12 35L13 35L13 36L14 36L14 34L15 34L15 35L16 35L16 36L17 36L17 35L18 35L18 36L19 36L19 35L18 35L18 34L17 34L17 33L16 33L16 34L15 34L15 33ZM27 33L27 34L28 34L28 33ZM50 33L50 37L48 37L48 36L49 36L49 35L48 35L48 36L46 36L46 37L48 37L48 40L47 40L47 41L48 41L48 40L51 40L51 41L49 41L49 42L50 42L50 44L49 44L49 43L48 43L48 44L49 44L49 46L50 46L50 47L51 47L51 46L52 46L52 45L53 45L53 44L54 44L54 43L55 43L55 42L54 42L54 41L53 41L53 44L52 44L52 40L51 40L51 38L52 38L52 37L53 37L53 36L54 36L54 34L53 34L53 36L52 36L52 37L51 37L51 33ZM16 34L16 35L17 35L17 34ZM21 35L21 37L22 37L22 35ZM27 35L27 36L28 36L28 37L29 37L29 36L28 36L28 35ZM6 36L6 37L7 37L7 36ZM35 37L35 38L36 38L36 37ZM50 37L50 38L51 38L51 37ZM10 38L10 39L11 39L11 38ZM17 38L17 39L18 39L18 40L19 40L19 39L18 39L18 38ZM20 38L20 39L21 39L21 38ZM28 38L28 39L29 39L29 38ZM39 38L39 39L40 39L40 40L41 40L41 41L42 41L42 42L43 42L43 41L42 41L42 40L41 40L41 39L40 39L40 38ZM11 40L11 41L10 41L10 42L11 42L11 41L13 41L13 40ZM3 43L3 44L4 44L4 43ZM18 43L18 44L19 44L19 43ZM27 43L27 44L28 44L28 43ZM24 44L24 46L26 46L26 45L25 45L25 44ZM50 44L50 46L51 46L51 45L52 45L52 44ZM1 45L1 47L2 47L2 45ZM54 45L54 47L55 47L55 45ZM21 46L21 48L22 48L22 46ZM10 47L10 48L11 48L11 47ZM37 47L37 48L36 48L36 49L37 49L37 51L35 51L35 52L36 52L36 53L37 53L37 51L38 51L38 47ZM6 48L6 49L7 49L7 48ZM16 48L16 49L17 49L17 48ZM27 49L27 52L30 52L30 49ZM43 49L43 50L44 50L44 49ZM49 49L49 52L52 52L52 49ZM28 50L28 51L29 51L29 50ZM50 50L50 51L51 51L51 50ZM43 52L43 53L42 53L42 54L43 54L43 55L44 55L44 56L45 56L45 55L44 55L44 52ZM45 52L45 53L46 53L46 52ZM27 53L27 55L28 55L28 53ZM31 53L31 54L30 54L30 55L33 55L33 54L32 54L32 53ZM53 53L53 54L54 54L54 53ZM8 54L8 57L9 57L9 56L10 56L10 57L12 57L12 56L11 56L11 55L12 55L12 54ZM40 54L40 56L42 56L42 55L41 55L41 54ZM36 56L36 57L37 57L37 56ZM56 56L56 57L57 57L57 56ZM0 0L0 7L7 7L7 0ZM1 1L1 6L6 6L6 1ZM2 2L2 5L5 5L5 2ZM50 0L50 7L57 7L57 0ZM51 1L51 6L56 6L56 1ZM52 2L52 5L55 5L55 2ZM0 50L0 57L7 57L7 50ZM1 51L1 56L6 56L6 51ZM2 52L2 55L5 55L5 52Z" fill="#000000"/></g></g></svg>
