<?xml version="1.0" encoding="UTF-8"?>
<svg xmlns="http://www.w3.org/2000/svg" version="1.1" width="300" height="300" viewBox="0 0 300 300"><rect x="0" y="0" width="300" height="300" fill="#fefefe"/><g transform="scale(4.615)"><g transform="translate(4,4)"><path fill-rule="evenodd" d="M10 0L10 1L11 1L11 2L10 2L10 3L8 3L8 4L9 4L9 5L8 5L8 7L9 7L9 6L10 6L10 8L11 8L11 6L12 6L12 8L13 8L13 9L9 9L9 8L6 8L6 9L8 9L8 10L9 10L9 11L7 11L7 10L6 10L6 11L5 11L5 10L4 10L4 11L3 11L3 9L5 9L5 8L0 8L0 9L2 9L2 11L1 11L1 10L0 10L0 12L1 12L1 13L0 13L0 16L1 16L1 17L3 17L3 18L2 18L2 19L3 19L3 20L2 20L2 21L1 21L1 23L2 23L2 24L4 24L4 23L5 23L5 24L6 24L6 25L3 25L3 27L2 27L2 26L0 26L0 30L1 30L1 31L2 31L2 32L1 32L1 33L0 33L0 34L1 34L1 36L0 36L0 39L1 39L1 40L0 40L0 44L1 44L1 43L3 43L3 44L2 44L2 45L1 45L1 46L0 46L0 48L5 48L5 47L10 47L10 48L9 48L9 49L8 49L8 51L9 51L9 52L8 52L8 57L9 57L9 56L10 56L10 54L9 54L9 52L10 52L10 51L11 51L11 50L12 50L12 52L14 52L14 51L13 51L13 50L14 50L14 48L16 48L16 49L17 49L17 50L15 50L15 53L16 53L16 54L12 54L12 55L11 55L11 56L12 56L12 55L13 55L13 57L16 57L16 56L17 56L17 57L19 57L19 55L20 55L20 54L19 54L19 53L20 53L20 52L21 52L21 51L22 51L22 50L25 50L25 51L26 51L26 52L24 52L24 53L23 53L23 54L22 54L22 53L21 53L21 56L20 56L20 57L21 57L21 56L24 56L24 55L23 55L23 54L24 54L24 53L27 53L27 54L30 54L30 53L31 53L31 49L32 49L32 48L33 48L33 47L35 47L35 46L37 46L37 47L36 47L36 48L34 48L34 49L36 49L36 50L32 50L32 52L33 52L33 51L35 51L35 52L34 52L34 53L35 53L35 54L36 54L36 56L35 56L35 55L34 55L34 54L33 54L33 53L32 53L32 54L31 54L31 56L30 56L30 55L29 55L29 56L27 56L27 57L29 57L29 56L30 56L30 57L31 57L31 56L35 56L35 57L39 57L39 56L40 56L40 55L41 55L41 57L42 57L42 55L43 55L43 57L44 57L44 54L45 54L45 53L47 53L47 51L44 51L44 50L45 50L45 49L44 49L44 48L43 48L43 47L44 47L44 46L45 46L45 48L46 48L46 49L47 49L47 50L48 50L48 54L47 54L47 55L48 55L48 56L50 56L50 57L52 57L52 55L51 55L51 53L52 53L52 54L53 54L53 57L54 57L54 56L55 56L55 57L56 57L56 56L55 56L55 55L54 55L54 54L53 54L53 52L54 52L54 53L55 53L55 52L56 52L56 53L57 53L57 52L56 52L56 50L57 50L57 48L56 48L56 46L57 46L57 45L56 45L56 44L55 44L55 43L56 43L56 42L57 42L57 41L56 41L56 42L55 42L55 41L53 41L53 40L55 40L55 39L57 39L57 35L56 35L56 33L57 33L57 32L56 32L56 30L57 30L57 29L56 29L56 28L55 28L55 27L56 27L56 26L57 26L57 25L56 25L56 22L57 22L57 21L56 21L56 20L57 20L57 19L56 19L56 18L53 18L53 17L52 17L52 16L55 16L55 17L56 17L56 16L57 16L57 15L56 15L56 14L57 14L57 12L56 12L56 10L54 10L54 11L52 11L52 10L53 10L53 9L54 9L54 8L53 8L53 9L52 9L52 8L51 8L51 9L52 9L52 10L50 10L50 8L47 8L47 5L48 5L48 0L46 0L46 1L45 1L45 2L44 2L44 3L42 3L42 2L43 2L43 0L41 0L41 1L40 1L40 0L39 0L39 1L38 1L38 0L37 0L37 1L38 1L38 3L36 3L36 0L35 0L35 1L33 1L33 2L32 2L32 1L31 1L31 0L27 0L27 1L26 1L26 0L23 0L23 1L22 1L22 0L21 0L21 2L20 2L20 1L19 1L19 2L20 2L20 3L22 3L22 2L25 2L25 1L26 1L26 2L28 2L28 3L30 3L30 4L26 4L26 3L23 3L23 4L22 4L22 5L21 5L21 4L19 4L19 3L17 3L17 2L18 2L18 0L17 0L17 1L16 1L16 3L17 3L17 6L16 6L16 7L15 7L15 6L14 6L14 7L13 7L13 6L12 6L12 5L13 5L13 4L14 4L14 2L15 2L15 1L14 1L14 0L12 0L12 1L11 1L11 0ZM8 1L8 2L9 2L9 1ZM12 1L12 3L11 3L11 4L10 4L10 5L12 5L12 3L13 3L13 2L14 2L14 1ZM28 1L28 2L30 2L30 1ZM46 1L46 2L47 2L47 1ZM31 2L31 3L32 3L32 4L31 4L31 8L32 8L32 10L31 10L31 11L29 11L29 9L28 9L28 11L29 11L29 12L28 12L28 13L26 13L26 12L27 12L27 11L26 11L26 12L25 12L25 11L24 11L24 12L25 12L25 13L26 13L26 16L23 16L23 15L21 15L21 13L22 13L22 14L23 14L23 13L22 13L22 12L20 12L20 11L22 11L22 10L23 10L23 9L25 9L25 8L26 8L26 4L25 4L25 8L24 8L24 6L23 6L23 8L19 8L19 7L20 7L20 5L18 5L18 6L17 6L17 7L16 7L16 8L15 8L15 7L14 7L14 10L15 10L15 11L18 11L18 10L19 10L19 13L20 13L20 14L19 14L19 15L18 15L18 14L17 14L17 13L18 13L18 12L17 12L17 13L16 13L16 12L15 12L15 13L13 13L13 12L14 12L14 11L12 11L12 12L11 12L11 10L10 10L10 11L9 11L9 13L8 13L8 12L7 12L7 11L6 11L6 12L7 12L7 13L6 13L6 14L5 14L5 16L4 16L4 19L5 19L5 20L3 20L3 21L2 21L2 22L3 22L3 23L4 23L4 22L5 22L5 23L6 23L6 24L7 24L7 25L6 25L6 26L7 26L7 25L10 25L10 23L9 23L9 24L8 24L8 22L12 22L12 24L16 24L16 25L11 25L11 26L9 26L9 31L6 31L6 32L7 32L7 33L6 33L6 34L5 34L5 35L4 35L4 32L5 32L5 31L3 31L3 30L4 30L4 28L2 28L2 27L1 27L1 30L2 30L2 31L3 31L3 34L2 34L2 36L1 36L1 37L2 37L2 38L1 38L1 39L2 39L2 40L1 40L1 42L2 42L2 41L3 41L3 37L4 37L4 38L5 38L5 40L4 40L4 41L5 41L5 40L8 40L8 41L6 41L6 42L5 42L5 43L6 43L6 44L5 44L5 45L6 45L6 46L7 46L7 45L11 45L11 44L8 44L8 43L11 43L11 42L13 42L13 44L12 44L12 45L13 45L13 46L10 46L10 47L13 47L13 46L15 46L15 47L16 47L16 48L18 48L18 47L20 47L20 48L21 48L21 49L19 49L19 50L17 50L17 52L16 52L16 53L17 53L17 52L18 52L18 51L19 51L19 50L20 50L20 51L21 51L21 49L23 49L23 47L24 47L24 49L25 49L25 48L27 48L27 47L28 47L28 48L30 48L30 47L28 47L28 46L29 46L29 45L30 45L30 46L31 46L31 43L29 43L29 41L30 41L30 40L32 40L32 41L31 41L31 42L32 42L32 43L33 43L33 44L32 44L32 47L33 47L33 46L35 46L35 45L34 45L34 43L35 43L35 44L36 44L36 43L37 43L37 42L35 42L35 40L38 40L38 42L39 42L39 43L41 43L41 44L39 44L39 45L38 45L38 46L39 46L39 45L41 45L41 44L42 44L42 42L41 42L41 40L42 40L42 41L43 41L43 40L42 40L42 39L45 39L45 40L44 40L44 42L43 42L43 43L44 43L44 45L45 45L45 46L47 46L47 45L48 45L48 44L50 44L50 43L51 43L51 44L53 44L53 43L54 43L54 42L53 42L53 41L51 41L51 42L50 42L50 43L49 43L49 42L48 42L48 41L49 41L49 39L47 39L47 38L49 38L49 36L50 36L50 39L51 39L51 38L53 38L53 39L54 39L54 38L53 38L53 35L55 35L55 36L56 36L56 35L55 35L55 34L54 34L54 33L52 33L52 32L51 32L51 31L48 31L48 28L47 28L47 29L46 29L46 30L47 30L47 31L45 31L45 32L43 32L43 31L44 31L44 30L45 30L45 28L46 28L46 27L48 27L48 26L47 26L47 25L48 25L48 24L49 24L49 23L50 23L50 22L51 22L51 21L54 21L54 23L55 23L55 22L56 22L56 21L55 21L55 20L56 20L56 19L55 19L55 20L53 20L53 19L52 19L52 18L51 18L51 17L50 17L50 16L52 16L52 15L50 15L50 14L51 14L51 12L50 12L50 10L47 10L47 8L45 8L45 7L46 7L46 5L47 5L47 3L44 3L44 6L43 6L43 7L44 7L44 9L43 9L43 8L42 8L42 9L43 9L43 11L41 11L41 12L39 12L39 13L38 13L38 14L37 14L37 15L35 15L35 16L33 16L33 15L32 15L32 18L30 18L30 20L29 20L29 19L28 19L28 18L26 18L26 20L25 20L25 21L24 21L24 20L23 20L23 19L24 19L24 18L22 18L22 17L26 17L26 16L27 16L27 17L28 17L28 16L29 16L29 14L30 14L30 15L31 15L31 14L32 14L32 13L33 13L33 14L36 14L36 13L35 13L35 12L36 12L36 10L37 10L37 11L38 11L38 10L41 10L41 7L42 7L42 6L41 6L41 5L40 5L40 4L41 4L41 3L38 3L38 5L37 5L37 4L36 4L36 5L35 5L35 4L33 4L33 3L34 3L34 2L33 2L33 3L32 3L32 2ZM15 4L15 5L16 5L16 4ZM23 4L23 5L24 5L24 4ZM32 4L32 5L33 5L33 6L32 6L32 7L33 7L33 9L34 9L34 8L35 8L35 9L37 9L37 10L38 10L38 8L39 8L39 6L40 6L40 7L41 7L41 6L40 6L40 5L39 5L39 6L38 6L38 8L35 8L35 5L33 5L33 4ZM45 4L45 5L46 5L46 4ZM27 5L27 8L30 8L30 5ZM36 5L36 7L37 7L37 5ZM18 6L18 7L19 7L19 6ZM21 6L21 7L22 7L22 6ZM28 6L28 7L29 7L29 6ZM33 6L33 7L34 7L34 6ZM44 6L44 7L45 7L45 6ZM48 6L48 7L49 7L49 6ZM16 8L16 9L15 9L15 10L16 10L16 9L17 9L17 10L18 10L18 9L19 9L19 10L20 10L20 9L19 9L19 8ZM55 8L55 9L56 9L56 8ZM21 9L21 10L22 10L22 9ZM44 9L44 11L45 11L45 12L49 12L49 13L47 13L47 14L45 14L45 13L44 13L44 12L43 12L43 13L39 13L39 14L38 14L38 15L39 15L39 16L38 16L38 17L37 17L37 16L35 16L35 17L37 17L37 18L38 18L38 17L39 17L39 19L37 19L37 20L36 20L36 19L34 19L34 20L35 20L35 23L32 23L32 24L31 24L31 21L32 21L32 20L33 20L33 19L31 19L31 21L29 21L29 22L28 22L28 24L31 24L31 25L28 25L28 26L26 26L26 25L25 25L25 24L27 24L27 21L25 21L25 22L26 22L26 23L25 23L25 24L24 24L24 23L23 23L23 24L24 24L24 25L22 25L22 24L17 24L17 21L20 21L20 20L22 20L22 18L20 18L20 16L21 16L21 17L22 17L22 16L21 16L21 15L20 15L20 16L17 16L17 17L19 17L19 18L15 18L15 19L16 19L16 20L15 20L15 21L16 21L16 22L14 22L14 21L13 21L13 20L14 20L14 19L13 19L13 18L12 18L12 17L14 17L14 16L15 16L15 17L16 17L16 13L15 13L15 14L14 14L14 16L13 16L13 15L12 15L12 17L10 17L10 18L11 18L11 19L9 19L9 18L8 18L8 20L6 20L6 21L5 21L5 22L6 22L6 23L7 23L7 22L8 22L8 21L10 21L10 20L12 20L12 21L13 21L13 23L16 23L16 24L17 24L17 25L18 25L18 26L16 26L16 27L18 27L18 26L19 26L19 27L20 27L20 25L22 25L22 26L21 26L21 27L22 27L22 26L24 26L24 28L23 28L23 31L21 31L21 30L20 30L20 29L22 29L22 28L20 28L20 29L18 29L18 28L16 28L16 29L15 29L15 28L13 28L13 26L11 26L11 27L10 27L10 34L8 34L8 35L7 35L7 34L6 34L6 35L7 35L7 36L4 36L4 35L3 35L3 36L4 36L4 37L5 37L5 38L6 38L6 39L8 39L8 38L9 38L9 37L10 37L10 38L11 38L11 39L9 39L9 40L10 40L10 41L12 41L12 40L13 40L13 42L14 42L14 39L15 39L15 41L16 41L16 39L15 39L15 38L16 38L16 37L15 37L15 38L14 38L14 36L17 36L17 38L18 38L18 37L19 37L19 38L20 38L20 39L17 39L17 42L16 42L16 44L18 44L18 45L17 45L17 46L20 46L20 47L23 47L23 46L25 46L25 44L27 44L27 43L24 43L24 42L25 42L25 41L24 41L24 40L25 40L25 36L26 36L26 40L27 40L27 41L26 41L26 42L27 42L27 41L29 41L29 40L28 40L28 39L27 39L27 38L28 38L28 37L27 37L27 36L26 36L26 35L27 35L27 33L26 33L26 35L25 35L25 33L23 33L23 34L22 34L22 33L21 33L21 35L22 35L22 36L23 36L23 37L19 37L19 36L20 36L20 33L19 33L19 32L20 32L20 31L21 31L21 32L23 32L23 31L24 31L24 32L25 32L25 31L26 31L26 32L27 32L27 31L31 31L31 30L32 30L32 32L31 32L31 33L29 33L29 32L28 32L28 33L29 33L29 34L30 34L30 36L29 36L29 37L31 37L31 38L29 38L29 39L33 39L33 40L35 40L35 39L37 39L37 38L38 38L38 37L40 37L40 38L43 38L43 37L44 37L44 38L45 38L45 37L44 37L44 36L45 36L45 35L46 35L46 36L47 36L47 34L45 34L45 35L44 35L44 33L43 33L43 32L41 32L41 33L39 33L39 34L40 34L40 35L39 35L39 36L38 36L38 37L37 37L37 36L35 36L35 35L32 35L32 34L33 34L33 33L32 33L32 32L33 32L33 31L36 31L36 29L38 29L38 28L39 28L39 27L36 27L36 26L34 26L34 27L33 27L33 26L32 26L32 24L33 24L33 25L37 25L37 26L38 26L38 24L39 24L39 22L40 22L40 24L41 24L41 25L42 25L42 26L41 26L41 28L42 28L42 26L43 26L43 25L44 25L44 27L43 27L43 28L45 28L45 27L46 27L46 26L45 26L45 25L46 25L46 24L48 24L48 23L47 23L47 22L49 22L49 21L51 21L51 20L52 20L52 19L50 19L50 17L49 17L49 16L48 16L48 15L49 15L49 14L50 14L50 12L49 12L49 11L47 11L47 10L46 10L46 11L45 11L45 9ZM32 10L32 11L31 11L31 13L30 13L30 14L31 14L31 13L32 13L32 11L33 11L33 10ZM2 11L2 12L3 12L3 11ZM4 11L4 13L5 13L5 11ZM10 12L10 13L9 13L9 14L8 14L8 13L7 13L7 14L6 14L6 15L7 15L7 16L6 16L6 17L5 17L5 18L6 18L6 19L7 19L7 18L6 18L6 17L7 17L7 16L8 16L8 15L10 15L10 16L11 16L11 15L10 15L10 13L11 13L11 14L13 14L13 13L11 13L11 12ZM33 12L33 13L34 13L34 12ZM52 12L52 13L53 13L53 14L54 14L54 15L55 15L55 14L56 14L56 13L55 13L55 12L54 12L54 13L53 13L53 12ZM1 13L1 14L2 14L2 15L3 15L3 14L2 14L2 13ZM28 13L28 14L29 14L29 13ZM43 13L43 14L40 14L40 15L41 15L41 16L39 16L39 17L41 17L41 16L42 16L42 17L43 17L43 16L42 16L42 15L44 15L44 18L43 18L43 20L42 20L42 21L43 21L43 20L44 20L44 25L45 25L45 22L47 22L47 21L45 21L45 20L47 20L47 19L46 19L46 18L47 18L47 17L46 17L46 18L45 18L45 14L44 14L44 13ZM7 14L7 15L8 15L8 14ZM24 14L24 15L25 15L25 14ZM27 15L27 16L28 16L28 15ZM19 18L19 19L17 19L17 20L16 20L16 21L17 21L17 20L20 20L20 18ZM41 18L41 19L42 19L42 18ZM44 18L44 20L45 20L45 18ZM48 18L48 19L49 19L49 18ZM0 19L0 20L1 20L1 19ZM12 19L12 20L13 20L13 19ZM38 20L38 21L37 21L37 22L39 22L39 21L41 21L41 20ZM48 20L48 21L49 21L49 20ZM3 21L3 22L4 22L4 21ZM6 21L6 22L7 22L7 21ZM21 21L21 23L22 23L22 21ZM23 21L23 22L24 22L24 21ZM19 22L19 23L20 23L20 22ZM41 22L41 24L43 24L43 23L42 23L42 22ZM37 23L37 24L38 24L38 23ZM51 23L51 24L50 24L50 26L52 26L52 25L53 25L53 23ZM0 24L0 25L1 25L1 24ZM55 25L55 26L56 26L56 25ZM25 26L25 27L26 27L26 26ZM31 26L31 28L32 28L32 30L35 30L35 28L33 28L33 27L32 27L32 26ZM53 26L53 27L54 27L54 26ZM5 27L5 30L8 30L8 27ZM27 27L27 30L30 30L30 27ZM49 27L49 30L52 30L52 27ZM6 28L6 29L7 29L7 28ZM11 28L11 29L12 29L12 28ZM25 28L25 29L26 29L26 28ZM28 28L28 29L29 29L29 28ZM50 28L50 29L51 29L51 28ZM54 28L54 29L53 29L53 31L55 31L55 30L54 30L54 29L55 29L55 28ZM13 29L13 31L14 31L14 32L13 32L13 33L12 33L12 32L11 32L11 34L12 34L12 35L8 35L8 36L7 36L7 37L6 37L6 38L7 38L7 37L9 37L9 36L12 36L12 39L13 39L13 36L12 36L12 35L13 35L13 33L14 33L14 32L16 32L16 33L15 33L15 34L14 34L14 35L15 35L15 34L17 34L17 36L18 36L18 35L19 35L19 34L17 34L17 32L18 32L18 31L17 31L17 30L18 30L18 29L16 29L16 31L15 31L15 30L14 30L14 29ZM39 29L39 30L38 30L38 32L39 32L39 31L41 31L41 30L44 30L44 29ZM11 30L11 31L12 31L12 30ZM19 30L19 31L20 31L20 30ZM47 31L47 32L48 32L48 33L49 33L49 32L48 32L48 31ZM34 32L34 33L35 33L35 34L37 34L37 35L38 35L38 33L37 33L37 32ZM50 32L50 34L48 34L48 35L50 35L50 36L51 36L51 37L52 37L52 35L53 35L53 34L52 34L52 33L51 33L51 32ZM55 32L55 33L56 33L56 32ZM31 33L31 34L32 34L32 33ZM23 34L23 36L24 36L24 34ZM42 34L42 35L41 35L41 36L40 36L40 37L43 37L43 36L44 36L44 35L43 35L43 34ZM50 34L50 35L52 35L52 34ZM32 36L32 37L33 37L33 38L34 38L34 39L35 39L35 37L33 37L33 36ZM23 37L23 38L21 38L21 39L22 39L22 40L19 40L19 41L18 41L18 42L17 42L17 43L18 43L18 42L19 42L19 44L20 44L20 46L21 46L21 45L22 45L22 46L23 46L23 45L22 45L22 44L20 44L20 42L21 42L21 43L22 43L22 42L24 42L24 41L23 41L23 40L24 40L24 39L23 39L23 38L24 38L24 37ZM38 39L38 40L39 40L39 39ZM46 39L46 40L45 40L45 41L47 41L47 39ZM8 41L8 42L9 42L9 41ZM19 41L19 42L20 42L20 41ZM32 41L32 42L33 42L33 43L34 43L34 42L33 42L33 41ZM39 41L39 42L40 42L40 41ZM3 42L3 43L4 43L4 42ZM6 42L6 43L7 43L7 42ZM44 42L44 43L46 43L46 44L45 44L45 45L47 45L47 43L48 43L48 42L47 42L47 43L46 43L46 42ZM51 42L51 43L53 43L53 42ZM28 43L28 44L29 44L29 43ZM3 44L3 45L2 45L2 46L1 46L1 47L2 47L2 46L3 46L3 47L5 47L5 46L3 46L3 45L4 45L4 44ZM6 44L6 45L7 45L7 44ZM14 44L14 45L15 45L15 44ZM54 44L54 45L55 45L55 46L54 46L54 47L53 47L53 45L51 45L51 46L50 46L50 45L49 45L49 46L50 46L50 47L53 47L53 48L54 48L54 49L55 49L55 50L54 50L54 51L55 51L55 50L56 50L56 48L54 48L54 47L55 47L55 46L56 46L56 45L55 45L55 44ZM26 45L26 47L27 47L27 45ZM41 46L41 48L39 48L39 47L38 47L38 48L37 48L37 49L38 49L38 50L36 50L36 52L37 52L37 53L38 53L38 54L37 54L37 56L39 56L39 55L38 55L38 54L40 54L40 53L42 53L42 52L43 52L43 51L42 51L42 50L41 50L41 48L42 48L42 49L43 49L43 50L44 50L44 49L43 49L43 48L42 48L42 47L43 47L43 46ZM46 47L46 48L47 48L47 49L48 49L48 48L49 48L49 47L48 47L48 48L47 48L47 47ZM6 48L6 49L7 49L7 48ZM10 48L10 49L9 49L9 50L10 50L10 49L11 49L11 48ZM12 48L12 49L13 49L13 48ZM38 48L38 49L39 49L39 48ZM27 49L27 52L30 52L30 49ZM49 49L49 52L52 52L52 49ZM28 50L28 51L29 51L29 50ZM38 50L38 53L39 53L39 51L40 51L40 52L41 52L41 50ZM50 50L50 51L51 51L51 50ZM44 52L44 53L43 53L43 54L44 54L44 53L45 53L45 52ZM17 54L17 55L19 55L19 54ZM25 54L25 55L26 55L26 54ZM15 55L15 56L16 56L16 55ZM50 55L50 56L51 56L51 55ZM25 56L25 57L26 57L26 56ZM46 56L46 57L47 57L47 56ZM0 0L0 7L7 7L7 0ZM1 1L1 6L6 6L6 1ZM2 2L2 5L5 5L5 2ZM50 0L50 7L57 7L57 0ZM51 1L51 6L56 6L56 1ZM52 2L52 5L55 5L55 2ZM0 50L0 57L7 57L7 50ZM1 51L1 56L6 56L6 51ZM2 52L2 55L5 55L5 52Z" fill="#000000"/></g></g></svg>
