<?xml version="1.0" encoding="UTF-8"?>
<svg xmlns="http://www.w3.org/2000/svg" version="1.1" width="300" height="300" viewBox="0 0 300 300"><rect x="0" y="0" width="300" height="300" fill="#fefefe"/><g transform="scale(4.615)"><g transform="translate(4,4)"><path fill-rule="evenodd" d="M9 0L9 1L8 1L8 2L9 2L9 3L8 3L8 4L9 4L9 3L11 3L11 4L10 4L10 5L11 5L11 6L10 6L10 8L12 8L12 7L13 7L13 11L14 11L14 12L13 12L13 13L15 13L15 14L14 14L14 15L13 15L13 14L12 14L12 13L11 13L11 12L12 12L12 10L10 10L10 11L11 11L11 12L9 12L9 13L10 13L10 14L9 14L9 15L7 15L7 14L8 14L8 10L6 10L6 9L9 9L9 8L6 8L6 9L5 9L5 8L0 8L0 11L1 11L1 9L2 9L2 12L4 12L4 11L5 11L5 12L6 12L6 13L2 13L2 16L0 16L0 23L1 23L1 22L4 22L4 25L3 25L3 26L2 26L2 24L1 24L1 25L0 25L0 29L1 29L1 26L2 26L2 27L3 27L3 26L4 26L4 29L2 29L2 30L1 30L1 31L0 31L0 32L1 32L1 31L2 31L2 33L3 33L3 34L4 34L4 35L5 35L5 36L4 36L4 38L3 38L3 37L2 37L2 38L1 38L1 37L0 37L0 40L1 40L1 41L2 41L2 42L1 42L1 43L0 43L0 44L1 44L1 46L0 46L0 48L5 48L5 47L7 47L7 48L6 48L6 49L7 49L7 48L8 48L8 47L9 47L9 49L8 49L8 51L10 51L10 52L8 52L8 57L11 57L11 56L12 56L12 57L14 57L14 56L13 56L13 55L12 55L12 54L13 54L13 53L12 53L12 52L13 52L13 51L14 51L14 53L16 53L16 54L15 54L15 55L16 55L16 56L15 56L15 57L16 57L16 56L17 56L17 57L21 57L21 56L19 56L19 55L20 55L20 54L19 54L19 53L20 53L20 52L23 52L23 51L22 51L22 50L25 50L25 51L26 51L26 52L24 52L24 53L23 53L23 54L22 54L22 53L21 53L21 54L22 54L22 55L23 55L23 57L26 57L26 56L27 56L27 57L29 57L29 56L30 56L30 57L31 57L31 56L35 56L35 57L39 57L39 56L37 56L37 55L41 55L41 56L42 56L42 55L44 55L44 54L45 54L45 55L48 55L48 56L50 56L50 57L52 57L52 55L51 55L51 53L52 53L52 54L53 54L53 55L54 55L54 56L53 56L53 57L54 57L54 56L55 56L55 57L56 57L56 56L55 56L55 54L53 54L53 52L54 52L54 53L57 53L57 51L56 51L56 49L57 49L57 48L56 48L56 46L57 46L57 45L56 45L56 44L55 44L55 43L56 43L56 42L55 42L55 39L57 39L57 37L56 37L56 36L57 36L57 35L53 35L53 34L52 34L52 33L53 33L53 32L56 32L56 33L54 33L54 34L57 34L57 32L56 32L56 30L57 30L57 29L54 29L54 28L56 28L56 26L57 26L57 25L56 25L56 22L57 22L57 20L56 20L56 19L55 19L55 18L57 18L57 17L56 17L56 16L57 16L57 15L56 15L56 14L57 14L57 11L56 11L56 8L55 8L55 10L54 10L54 11L50 11L50 8L48 8L48 9L47 9L47 8L45 8L45 9L44 9L44 8L43 8L43 6L44 6L44 7L45 7L45 6L46 6L46 7L47 7L47 5L48 5L48 0L46 0L46 1L45 1L45 2L44 2L44 3L42 3L42 2L43 2L43 0L41 0L41 1L40 1L40 0L39 0L39 1L38 1L38 0L37 0L37 1L38 1L38 2L39 2L39 3L41 3L41 4L40 4L40 5L39 5L39 6L38 6L38 3L36 3L36 0L35 0L35 1L33 1L33 2L32 2L32 0L29 0L29 1L30 1L30 2L28 2L28 1L25 1L25 0L23 0L23 1L22 1L22 0L21 0L21 2L20 2L20 0L19 0L19 1L18 1L18 2L17 2L17 4L19 4L19 5L20 5L20 7L19 7L19 6L18 6L18 5L17 5L17 6L16 6L16 7L15 7L15 6L14 6L14 7L13 7L13 5L11 5L11 4L12 4L12 2L13 2L13 4L14 4L14 2L15 2L15 3L16 3L16 2L15 2L15 1L14 1L14 2L13 2L13 1L12 1L12 2L11 2L11 1L10 1L10 0ZM9 1L9 2L10 2L10 1ZM46 1L46 2L47 2L47 1ZM18 2L18 3L19 3L19 4L23 4L23 5L21 5L21 7L22 7L22 8L19 8L19 7L18 7L18 6L17 6L17 7L16 7L16 8L15 8L15 7L14 7L14 10L15 10L15 13L16 13L16 16L15 16L15 15L14 15L14 18L13 18L13 16L12 16L12 14L10 14L10 15L9 15L9 16L7 16L7 15L6 15L6 16L5 16L5 15L4 15L4 14L3 14L3 17L2 17L2 19L1 19L1 21L2 21L2 19L3 19L3 21L4 21L4 20L5 20L5 23L6 23L6 24L5 24L5 25L4 25L4 26L5 26L5 25L6 25L6 26L7 26L7 25L8 25L8 24L10 24L10 25L9 25L9 26L10 26L10 27L11 27L11 28L9 28L9 29L11 29L11 30L9 30L9 31L6 31L6 32L7 32L7 33L6 33L6 34L7 34L7 35L6 35L6 36L5 36L5 37L6 37L6 38L7 38L7 39L4 39L4 43L3 43L3 42L2 42L2 43L3 43L3 44L4 44L4 46L3 46L3 47L5 47L5 44L7 44L7 45L6 45L6 46L7 46L7 45L8 45L8 43L9 43L9 47L10 47L10 49L9 49L9 50L10 50L10 51L11 51L11 52L10 52L10 53L11 53L11 54L12 54L12 53L11 53L11 52L12 52L12 51L13 51L13 50L12 50L12 51L11 51L11 50L10 50L10 49L14 49L14 50L15 50L15 51L17 51L17 52L16 52L16 53L17 53L17 52L18 52L18 50L17 50L17 49L16 49L16 48L19 48L19 49L20 49L20 50L21 50L21 49L23 49L23 48L24 48L24 49L25 49L25 48L27 48L27 47L28 47L28 48L30 48L30 47L29 47L29 46L30 46L30 45L32 45L32 46L31 46L31 48L32 48L32 49L31 49L31 50L32 50L32 51L31 51L31 53L30 53L30 54L27 54L27 53L26 53L26 54L25 54L25 53L24 53L24 54L23 54L23 55L24 55L24 56L26 56L26 54L27 54L27 56L29 56L29 55L30 55L30 56L31 56L31 54L32 54L32 53L33 53L33 54L34 54L34 55L35 55L35 56L36 56L36 54L35 54L35 53L33 53L33 52L32 52L32 51L35 51L35 50L36 50L36 52L37 52L37 51L38 51L38 52L39 52L39 53L37 53L37 54L40 54L40 53L41 53L41 52L40 52L40 51L38 51L38 50L41 50L41 51L42 51L42 50L41 50L41 48L42 48L42 49L43 49L43 50L47 50L47 53L45 53L45 52L44 52L44 53L43 53L43 52L42 52L42 53L43 53L43 54L44 54L44 53L45 53L45 54L47 54L47 53L48 53L48 50L47 50L47 49L48 49L48 48L49 48L49 47L48 47L48 46L50 46L50 47L51 47L51 48L53 48L53 49L56 49L56 48L53 48L53 46L54 46L54 47L55 47L55 46L56 46L56 45L55 45L55 44L54 44L54 45L53 45L53 43L54 43L54 42L53 42L53 41L51 41L51 42L50 42L50 43L49 43L49 42L48 42L48 41L49 41L49 40L50 40L50 39L51 39L51 38L52 38L52 40L53 40L53 35L52 35L52 34L50 34L50 32L51 32L51 33L52 33L52 32L51 32L51 31L50 31L50 32L49 32L49 31L48 31L48 28L47 28L47 29L46 29L46 30L47 30L47 31L48 31L48 32L47 32L47 33L46 33L46 32L43 32L43 30L44 30L44 31L45 31L45 30L44 30L44 29L45 29L45 28L46 28L46 27L48 27L48 26L47 26L47 25L46 25L46 24L45 24L45 23L46 23L46 22L47 22L47 24L49 24L49 25L50 25L50 26L51 26L51 25L55 25L55 24L53 24L53 23L50 23L50 22L51 22L51 21L53 21L53 22L56 22L56 20L53 20L53 19L52 19L52 20L51 20L51 21L49 21L49 20L44 20L44 18L46 18L46 19L47 19L47 17L48 17L48 16L49 16L49 17L50 17L50 18L48 18L48 19L51 19L51 18L55 18L55 16L52 16L52 15L50 15L50 14L51 14L51 12L50 12L50 11L49 11L49 12L45 12L45 11L44 11L44 9L43 9L43 8L42 8L42 9L43 9L43 11L42 11L42 10L41 10L41 7L42 7L42 6L41 6L41 5L40 5L40 6L39 6L39 7L40 7L40 8L38 8L38 11L39 11L39 12L40 12L40 13L38 13L38 14L37 14L37 15L35 15L35 16L33 16L33 15L32 15L32 14L36 14L36 13L35 13L35 12L37 12L37 11L36 11L36 10L37 10L37 9L35 9L35 8L37 8L37 7L38 7L38 6L37 6L37 7L36 7L36 5L37 5L37 4L36 4L36 5L35 5L35 4L34 4L34 3L35 3L35 2L34 2L34 3L32 3L32 2L31 2L31 3L30 3L30 4L31 4L31 8L32 8L32 10L31 10L31 11L30 11L30 10L28 10L28 11L29 11L29 12L28 12L28 13L26 13L26 12L27 12L27 11L26 11L26 12L25 12L25 11L24 11L24 12L23 12L23 13L22 13L22 12L21 12L21 11L22 11L22 10L23 10L23 8L24 8L24 6L23 6L23 5L24 5L24 4L23 4L23 3L26 3L26 4L25 4L25 8L26 8L26 4L29 4L29 3L28 3L28 2L22 2L22 3L19 3L19 2ZM31 3L31 4L32 4L32 5L34 5L34 7L33 7L33 6L32 6L32 7L33 7L33 9L34 9L34 8L35 8L35 5L34 5L34 4L32 4L32 3ZM44 3L44 6L45 6L45 4L46 4L46 5L47 5L47 3ZM15 4L15 5L16 5L16 4ZM8 5L8 7L9 7L9 5ZM27 5L27 8L30 8L30 5ZM11 6L11 7L12 7L12 6ZM22 6L22 7L23 7L23 6ZM28 6L28 7L29 7L29 6ZM40 6L40 7L41 7L41 6ZM48 6L48 7L49 7L49 6ZM17 7L17 8L16 8L16 9L15 9L15 10L16 10L16 9L17 9L17 10L18 10L18 11L16 11L16 13L17 13L17 15L18 15L18 14L20 14L20 13L21 13L21 15L20 15L20 16L21 16L21 17L22 17L22 19L20 19L20 20L17 20L17 19L18 19L18 18L20 18L20 17L19 17L19 16L16 16L16 17L18 17L18 18L17 18L17 19L15 19L15 21L16 21L16 22L14 22L14 21L13 21L13 20L14 20L14 19L13 19L13 18L11 18L11 19L12 19L12 21L11 21L11 20L10 20L10 21L11 21L11 23L10 23L10 24L11 24L11 25L12 25L12 24L13 24L13 27L12 27L12 28L11 28L11 29L12 29L12 30L11 30L11 31L9 31L9 32L8 32L8 33L9 33L9 32L10 32L10 33L11 33L11 35L10 35L10 34L8 34L8 35L7 35L7 36L6 36L6 37L7 37L7 38L8 38L8 39L7 39L7 40L6 40L6 41L7 41L7 40L8 40L8 39L9 39L9 40L10 40L10 39L11 39L11 41L12 41L12 39L13 39L13 41L14 41L14 42L15 42L15 41L14 41L14 39L13 39L13 38L10 38L10 36L11 36L11 35L12 35L12 33L11 33L11 32L12 32L12 30L13 30L13 29L12 29L12 28L13 28L13 27L14 27L14 26L15 26L15 28L14 28L14 29L15 29L15 31L13 31L13 33L14 33L14 35L13 35L13 37L14 37L14 38L16 38L16 37L15 37L15 36L16 36L16 35L18 35L18 37L17 37L17 38L18 38L18 39L19 39L19 40L16 40L16 39L15 39L15 40L16 40L16 41L19 41L19 42L18 42L18 43L16 43L16 44L18 44L18 45L17 45L17 47L19 47L19 46L20 46L20 44L22 44L22 45L21 45L21 47L20 47L20 49L21 49L21 47L23 47L23 46L25 46L25 44L27 44L27 43L25 43L25 41L24 41L24 40L25 40L25 39L27 39L27 41L26 41L26 42L27 42L27 41L28 41L28 39L27 39L27 38L28 38L28 37L27 37L27 36L26 36L26 35L27 35L27 33L26 33L26 32L28 32L28 33L29 33L29 34L30 34L30 36L29 36L29 37L31 37L31 38L29 38L29 39L33 39L33 40L35 40L35 42L37 42L37 43L36 43L36 44L35 44L35 43L34 43L34 42L33 42L33 41L32 41L32 40L31 40L31 41L30 41L30 42L29 42L29 43L28 43L28 45L26 45L26 47L27 47L27 46L28 46L28 45L30 45L30 44L33 44L33 43L34 43L34 45L35 45L35 46L33 46L33 48L34 48L34 49L36 49L36 50L38 50L38 49L39 49L39 48L41 48L41 46L43 46L43 47L42 47L42 48L43 48L43 49L44 49L44 48L43 48L43 47L45 47L45 49L47 49L47 48L48 48L48 47L47 47L47 46L48 46L48 45L49 45L49 44L48 44L48 45L47 45L47 43L48 43L48 42L47 42L47 43L46 43L46 42L45 42L45 41L47 41L47 39L48 39L48 38L49 38L49 39L50 39L50 38L51 38L51 36L52 36L52 35L50 35L50 34L48 34L48 35L50 35L50 38L49 38L49 36L48 36L48 37L47 37L47 36L46 36L46 35L47 35L47 34L45 34L45 35L44 35L44 33L43 33L43 32L41 32L41 33L39 33L39 34L40 34L40 35L39 35L39 37L40 37L40 38L41 38L41 39L42 39L42 38L43 38L43 37L44 37L44 38L45 38L45 37L47 37L47 39L44 39L44 40L42 40L42 41L41 41L41 42L42 42L42 44L41 44L41 43L39 43L39 42L40 42L40 41L39 41L39 42L38 42L38 40L39 40L39 38L38 38L38 37L37 37L37 36L38 36L38 33L37 33L37 32L35 32L35 34L32 34L32 31L31 31L31 30L33 30L33 31L36 31L36 29L38 29L38 28L39 28L39 27L36 27L36 26L34 26L34 27L33 27L33 26L32 26L32 24L33 24L33 25L37 25L37 26L38 26L38 25L39 25L39 26L41 26L41 28L42 28L42 26L43 26L43 27L44 27L44 28L43 28L43 29L39 29L39 30L38 30L38 32L39 32L39 31L41 31L41 30L43 30L43 29L44 29L44 28L45 28L45 26L44 26L44 20L43 20L43 18L44 18L44 15L46 15L46 16L45 16L45 17L47 17L47 16L48 16L48 15L49 15L49 14L50 14L50 12L49 12L49 13L47 13L47 14L45 14L45 13L44 13L44 12L43 12L43 13L41 13L41 14L44 14L44 15L42 15L42 16L41 16L41 15L39 15L39 14L38 14L38 15L39 15L39 16L38 16L38 17L37 17L37 16L35 16L35 17L37 17L37 18L38 18L38 17L39 17L39 19L38 19L38 21L37 21L37 20L36 20L36 19L35 19L35 23L32 23L32 24L31 24L31 23L30 23L30 22L31 22L31 21L32 21L32 20L33 20L33 21L34 21L34 20L33 20L33 19L31 19L31 21L29 21L29 24L31 24L31 25L28 25L28 26L26 26L26 25L25 25L25 24L27 24L27 22L28 22L28 21L25 21L25 20L26 20L26 19L25 19L25 17L26 17L26 13L25 13L25 12L24 12L24 13L23 13L23 14L22 14L22 13L21 13L21 12L20 12L20 11L19 11L19 10L20 10L20 9L19 9L19 8L18 8L18 7ZM51 8L51 10L52 10L52 8ZM53 8L53 9L54 9L54 8ZM3 9L3 11L4 11L4 10L5 10L5 11L6 11L6 12L7 12L7 11L6 11L6 10L5 10L5 9ZM21 9L21 10L22 10L22 9ZM45 9L45 10L47 10L47 9ZM32 10L32 11L31 11L31 13L30 13L30 14L29 14L29 13L28 13L28 14L29 14L29 16L28 16L28 15L27 15L27 16L28 16L28 17L27 17L27 18L28 18L28 19L27 19L27 20L28 20L28 19L29 19L29 20L30 20L30 18L31 18L31 17L32 17L32 18L33 18L33 17L32 17L32 15L30 15L30 14L32 14L32 11L33 11L33 10ZM39 10L39 11L40 11L40 12L41 12L41 10ZM55 11L55 12L54 12L54 13L53 13L53 12L52 12L52 13L53 13L53 15L54 15L54 13L55 13L55 14L56 14L56 11ZM17 12L17 13L18 13L18 12ZM19 12L19 13L20 13L20 12ZM33 12L33 13L34 13L34 12ZM6 13L6 14L7 14L7 13ZM10 15L10 16L9 16L9 17L10 17L10 16L11 16L11 17L12 17L12 16L11 16L11 15ZM21 15L21 16L22 16L22 17L25 17L25 16L24 16L24 15ZM4 16L4 17L3 17L3 18L4 18L4 17L5 17L5 16ZM6 16L6 17L7 17L7 16ZM39 16L39 17L41 17L41 16ZM42 16L42 17L43 17L43 16ZM50 16L50 17L52 17L52 16ZM5 18L5 20L6 20L6 21L7 21L7 22L6 22L6 23L7 23L7 24L6 24L6 25L7 25L7 24L8 24L8 22L9 22L9 21L8 21L8 18ZM9 18L9 19L10 19L10 18ZM23 18L23 19L22 19L22 20L20 20L20 21L17 21L17 20L16 20L16 21L17 21L17 22L20 22L20 23L19 23L19 24L22 24L22 25L19 25L19 26L18 26L18 27L17 27L17 28L18 28L18 29L16 29L16 28L15 28L15 29L16 29L16 31L15 31L15 33L16 33L16 34L18 34L18 35L21 35L21 36L19 36L19 37L18 37L18 38L19 38L19 39L20 39L20 38L19 38L19 37L21 37L21 38L22 38L22 40L19 40L19 41L20 41L20 42L19 42L19 44L20 44L20 42L21 42L21 43L22 43L22 42L24 42L24 41L23 41L23 40L24 40L24 39L23 39L23 38L24 38L24 37L23 37L23 36L24 36L24 34L23 34L23 33L25 33L25 35L26 35L26 33L25 33L25 32L26 32L26 31L25 31L25 32L20 32L20 30L21 30L21 31L23 31L23 29L26 29L26 28L24 28L24 26L22 26L22 25L24 25L24 24L25 24L25 23L26 23L26 22L25 22L25 21L24 21L24 20L23 20L23 19L24 19L24 18ZM41 18L41 19L42 19L42 18ZM6 19L6 20L7 20L7 19ZM39 20L39 21L38 21L38 22L37 22L37 24L39 24L39 25L41 25L41 24L43 24L43 23L41 23L41 24L39 24L39 23L40 23L40 22L39 22L39 21L41 21L41 20ZM42 20L42 21L43 21L43 20ZM21 21L21 23L22 23L22 21ZM23 21L23 22L24 22L24 21ZM45 21L45 22L46 22L46 21ZM47 21L47 22L49 22L49 21ZM13 22L13 24L14 24L14 25L15 25L15 26L17 26L17 24L18 24L18 23L17 23L17 24L16 24L16 23L14 23L14 22ZM11 23L11 24L12 24L12 23ZM23 23L23 24L24 24L24 23ZM49 23L49 24L50 24L50 25L51 25L51 24L50 24L50 23ZM15 24L15 25L16 25L16 24ZM19 26L19 27L20 27L20 26ZM21 26L21 27L22 27L22 26ZM25 26L25 27L26 27L26 26ZM31 26L31 27L32 27L32 29L33 29L33 30L35 30L35 28L36 28L36 27L35 27L35 28L33 28L33 27L32 27L32 26ZM53 26L53 27L54 27L54 26ZM5 27L5 30L8 30L8 27ZM27 27L27 30L30 30L30 27ZM49 27L49 30L52 30L52 27ZM6 28L6 29L7 29L7 28ZM19 28L19 29L18 29L18 30L17 30L17 31L19 31L19 30L20 30L20 28ZM21 28L21 29L22 29L22 28ZM28 28L28 29L29 29L29 28ZM50 28L50 29L51 29L51 28ZM53 29L53 30L54 30L54 31L55 31L55 30L54 30L54 29ZM3 30L3 31L4 31L4 32L5 32L5 31L4 31L4 30ZM28 31L28 32L29 32L29 33L31 33L31 31ZM16 32L16 33L18 33L18 34L20 34L20 33L19 33L19 32ZM33 32L33 33L34 33L34 32ZM48 32L48 33L49 33L49 32ZM0 33L0 35L2 35L2 34L1 34L1 33ZM21 33L21 35L22 35L22 36L23 36L23 35L22 35L22 33ZM31 34L31 35L32 35L32 34ZM35 34L35 36L32 36L32 37L33 37L33 38L35 38L35 36L37 36L37 34ZM42 34L42 35L41 35L41 36L40 36L40 37L41 37L41 36L42 36L42 35L43 35L43 36L44 36L44 37L45 37L45 36L44 36L44 35L43 35L43 34ZM8 35L8 36L7 36L7 37L8 37L8 38L9 38L9 35ZM25 37L25 38L27 38L27 37ZM54 37L54 38L55 38L55 37ZM37 38L37 39L35 39L35 40L38 40L38 38ZM2 40L2 41L3 41L3 40ZM44 40L44 41L43 41L43 42L44 42L44 43L43 43L43 44L44 44L44 46L47 46L47 45L45 45L45 44L46 44L46 43L45 43L45 42L44 42L44 41L45 41L45 40ZM8 41L8 42L9 42L9 43L11 43L11 42L10 42L10 41ZM21 41L21 42L22 42L22 41ZM31 41L31 42L32 42L32 43L33 43L33 42L32 42L32 41ZM6 42L6 43L7 43L7 42ZM12 42L12 43L13 43L13 42ZM51 42L51 43L50 43L50 44L51 44L51 43L53 43L53 42ZM14 43L14 44L12 44L12 45L11 45L11 48L14 48L14 49L15 49L15 50L16 50L16 49L15 49L15 48L14 48L14 47L15 47L15 45L14 45L14 44L15 44L15 43ZM23 43L23 44L24 44L24 43ZM39 44L39 45L38 45L38 46L39 46L39 47L38 47L38 48L37 48L37 49L38 49L38 48L39 48L39 47L40 47L40 46L41 46L41 44ZM22 45L22 46L23 46L23 45ZM50 45L50 46L51 46L51 47L52 47L52 46L51 46L51 45ZM1 46L1 47L2 47L2 46ZM13 46L13 47L14 47L14 46ZM24 47L24 48L25 48L25 47ZM35 47L35 48L36 48L36 47ZM46 47L46 48L47 48L47 47ZM27 49L27 52L30 52L30 49ZM32 49L32 50L33 50L33 49ZM49 49L49 52L52 52L52 49ZM28 50L28 51L29 51L29 50ZM50 50L50 51L51 51L51 50ZM54 50L54 51L55 51L55 50ZM19 51L19 52L20 52L20 51ZM9 54L9 56L11 56L11 55L10 55L10 54ZM17 54L17 56L18 56L18 55L19 55L19 54ZM41 54L41 55L42 55L42 54ZM50 55L50 56L51 56L51 55ZM43 56L43 57L44 57L44 56ZM46 56L46 57L47 57L47 56ZM0 0L0 7L7 7L7 0ZM1 1L1 6L6 6L6 1ZM2 2L2 5L5 5L5 2ZM50 0L50 7L57 7L57 0ZM51 1L51 6L56 6L56 1ZM52 2L52 5L55 5L55 2ZM0 50L0 57L7 57L7 50ZM1 51L1 56L6 56L6 51ZM2 52L2 55L5 55L5 52Z" fill="#000000"/></g></g></svg>
