<?xml version="1.0" encoding="UTF-8"?>
<svg xmlns="http://www.w3.org/2000/svg" version="1.1" width="300" height="300" viewBox="0 0 300 300"><rect x="0" y="0" width="300" height="300" fill="#fefefe"/><g transform="scale(4.615)"><g transform="translate(4,4)"><path fill-rule="evenodd" d="M11 0L11 2L9 2L9 1L8 1L8 2L9 2L9 3L8 3L8 4L9 4L9 3L10 3L10 5L11 5L11 6L10 6L10 8L6 8L6 9L9 9L9 10L8 10L8 11L7 11L7 10L5 10L5 11L3 11L3 12L5 12L5 13L3 13L3 15L2 15L2 12L1 12L1 11L0 11L0 13L1 13L1 15L2 15L2 17L3 17L3 19L2 19L2 18L1 18L1 16L0 16L0 18L1 18L1 19L2 19L2 20L0 20L0 21L1 21L1 22L0 22L0 24L1 24L1 25L0 25L0 26L1 26L1 27L0 27L0 28L3 28L3 29L1 29L1 31L0 31L0 35L1 35L1 33L2 33L2 35L4 35L4 36L3 36L3 37L2 37L2 36L0 36L0 37L2 37L2 39L3 39L3 40L2 40L2 41L1 41L1 40L0 40L0 41L1 41L1 42L0 42L0 43L1 43L1 42L3 42L3 40L4 40L4 41L5 41L5 42L4 42L4 43L2 43L2 44L4 44L4 45L5 45L5 47L3 47L3 45L0 45L0 48L5 48L5 47L8 47L8 48L6 48L6 49L8 49L8 51L9 51L9 52L8 52L8 57L9 57L9 56L10 56L10 57L13 57L13 56L15 56L15 55L16 55L16 56L17 56L17 57L19 57L19 55L20 55L20 54L18 54L18 55L17 55L17 53L20 53L20 52L23 52L23 50L26 50L26 52L24 52L24 53L23 53L23 54L22 54L22 53L21 53L21 56L24 56L24 55L23 55L23 54L24 54L24 53L25 53L25 55L26 55L26 53L27 53L27 54L30 54L30 53L31 53L31 49L32 49L32 48L31 48L31 46L32 46L32 45L31 45L31 46L30 46L30 45L29 45L29 46L28 46L28 47L27 47L27 45L28 45L28 44L33 44L33 43L34 43L34 45L35 45L35 46L33 46L33 48L34 48L34 49L36 49L36 50L32 50L32 52L33 52L33 53L32 53L32 54L31 54L31 56L30 56L30 55L29 55L29 56L27 56L27 57L29 57L29 56L30 56L30 57L31 57L31 56L35 56L35 57L39 57L39 56L40 56L40 55L43 55L43 57L44 57L44 54L45 54L45 53L44 53L44 52L45 52L45 50L44 50L44 51L43 51L43 49L44 49L44 48L45 48L45 47L47 47L47 48L48 48L48 49L47 49L47 50L48 50L48 54L47 54L47 55L45 55L45 57L47 57L47 56L48 56L48 57L49 57L49 56L50 56L50 57L52 57L52 55L51 55L51 53L52 53L52 54L54 54L54 55L53 55L53 56L55 56L55 57L56 57L56 56L55 56L55 53L56 53L56 52L57 52L57 51L56 51L56 50L55 50L55 48L56 48L56 49L57 49L57 48L56 48L56 46L57 46L57 45L56 45L56 46L55 46L55 45L54 45L54 44L55 44L55 43L56 43L56 44L57 44L57 43L56 43L56 41L53 41L53 40L55 40L55 39L57 39L57 36L56 36L56 37L55 37L55 35L56 35L56 33L57 33L57 32L56 32L56 30L57 30L57 29L56 29L56 28L57 28L57 27L56 27L56 26L57 26L57 25L56 25L56 22L57 22L57 21L56 21L56 22L55 22L55 23L53 23L53 22L54 22L54 21L51 21L51 20L52 20L52 19L53 19L53 20L55 20L55 19L56 19L56 20L57 20L57 19L56 19L56 18L53 18L53 17L56 17L56 16L57 16L57 15L56 15L56 14L57 14L57 12L56 12L56 10L54 10L54 11L51 11L51 10L53 10L53 9L54 9L54 8L53 8L53 9L52 9L52 8L51 8L51 10L50 10L50 8L49 8L49 9L48 9L48 8L47 8L47 5L48 5L48 0L46 0L46 1L45 1L45 2L44 2L44 3L42 3L42 2L43 2L43 0L41 0L41 1L40 1L40 0L39 0L39 1L38 1L38 0L37 0L37 1L38 1L38 2L39 2L39 3L36 3L36 0L35 0L35 1L33 1L33 2L32 2L32 1L31 1L31 0L29 0L29 1L30 1L30 2L32 2L32 3L31 3L31 4L26 4L26 3L23 3L23 4L24 4L24 5L21 5L21 4L19 4L19 3L20 3L20 2L21 2L21 3L22 3L22 2L21 2L21 1L22 1L22 0L21 0L21 1L20 1L20 0L17 0L17 1L16 1L16 2L15 2L15 1L14 1L14 0L13 0L13 1L14 1L14 2L13 2L13 4L14 4L14 2L15 2L15 3L17 3L17 4L19 4L19 5L20 5L20 7L19 7L19 6L18 6L18 5L17 5L17 6L16 6L16 7L15 7L15 5L16 5L16 4L15 4L15 5L14 5L14 7L13 7L13 5L12 5L12 0ZM23 0L23 2L27 2L27 3L28 3L28 1L26 1L26 0ZM17 1L17 3L19 3L19 2L20 2L20 1ZM46 1L46 2L47 2L47 1ZM33 2L33 3L32 3L32 4L31 4L31 8L32 8L32 10L27 10L27 11L26 11L26 12L25 12L25 11L24 11L24 12L25 12L25 13L26 13L26 14L24 14L24 15L21 15L21 13L22 13L22 14L23 14L23 13L22 13L22 12L21 12L21 11L22 11L22 10L23 10L23 9L25 9L25 8L26 8L26 4L25 4L25 8L24 8L24 6L23 6L23 8L19 8L19 9L18 9L18 10L17 10L17 9L15 9L15 8L14 8L14 9L12 9L12 6L11 6L11 8L10 8L10 9L11 9L11 10L9 10L9 11L8 11L8 12L7 12L7 11L5 11L5 12L7 12L7 13L5 13L5 14L8 14L8 15L3 15L3 17L5 17L5 18L8 18L8 17L6 17L6 16L8 16L8 15L9 15L9 14L10 14L10 19L5 19L5 20L8 20L8 21L6 21L6 22L9 22L9 21L11 21L11 22L12 22L12 23L11 23L11 25L10 25L10 27L11 27L11 28L9 28L9 29L10 29L10 30L12 30L12 31L10 31L10 32L9 32L9 31L8 31L8 32L7 32L7 31L6 31L6 32L7 32L7 33L6 33L6 34L5 34L5 35L6 35L6 36L8 36L8 37L9 37L9 38L7 38L7 37L6 37L6 38L7 38L7 39L6 39L6 40L5 40L5 41L6 41L6 42L9 42L9 43L8 43L8 44L12 44L12 45L13 45L13 46L12 46L12 47L13 47L13 48L11 48L11 46L10 46L10 45L8 45L8 46L9 46L9 48L10 48L10 49L9 49L9 51L10 51L10 50L11 50L11 49L13 49L13 51L14 51L14 50L15 50L15 51L16 51L16 53L15 53L15 52L10 52L10 54L9 54L9 55L10 55L10 56L12 56L12 55L13 55L13 53L15 53L15 54L16 54L16 53L17 53L17 51L19 51L19 50L17 50L17 49L16 49L16 48L17 48L17 47L19 47L19 46L17 46L17 45L18 45L18 44L17 44L17 45L16 45L16 44L15 44L15 42L17 42L17 43L18 43L18 42L19 42L19 41L18 41L18 40L17 40L17 38L18 38L18 37L17 37L17 36L18 36L18 35L17 35L17 36L15 36L15 34L17 34L17 32L18 32L18 31L19 31L19 33L18 33L18 34L19 34L19 35L20 35L20 36L19 36L19 37L21 37L21 38L24 38L24 37L23 37L23 36L24 36L24 34L23 34L23 33L25 33L25 34L27 34L27 37L28 37L28 38L27 38L27 39L26 39L26 37L25 37L25 40L24 40L24 39L23 39L23 40L22 40L22 39L21 39L21 40L20 40L20 42L21 42L21 43L20 43L20 44L19 44L19 45L20 45L20 48L21 48L21 49L20 49L20 51L21 51L21 49L23 49L23 48L24 48L24 49L26 49L26 48L27 48L27 47L26 47L26 45L27 45L27 44L25 44L25 43L29 43L29 42L32 42L32 43L33 43L33 42L34 42L34 43L35 43L35 44L36 44L36 43L37 43L37 42L35 42L35 40L38 40L38 42L39 42L39 45L38 45L38 46L41 46L41 48L39 48L39 47L38 47L38 48L37 48L37 49L38 49L38 50L36 50L36 52L37 52L37 51L38 51L38 53L37 53L37 54L40 54L40 53L42 53L42 52L43 52L43 51L42 51L42 50L41 50L41 48L42 48L42 49L43 49L43 48L44 48L44 47L45 47L45 46L47 46L47 47L48 47L48 48L49 48L49 47L48 47L48 46L50 46L50 47L51 47L51 48L53 48L53 47L55 47L55 46L53 46L53 43L54 43L54 42L53 42L53 41L51 41L51 42L50 42L50 43L48 43L48 44L47 44L47 45L45 45L45 44L46 44L46 43L44 43L44 42L48 42L48 41L49 41L49 39L52 39L52 38L53 38L53 39L54 39L54 38L53 38L53 35L55 35L55 34L54 34L54 32L53 32L53 31L54 31L54 30L53 30L53 31L50 31L50 32L49 32L49 31L48 31L48 27L47 27L47 24L46 24L46 25L45 25L45 23L46 23L46 22L47 22L47 21L49 21L49 23L48 23L48 24L49 24L49 25L50 25L50 26L52 26L52 25L53 25L53 23L51 23L51 25L50 25L50 24L49 24L49 23L50 23L50 22L51 22L51 21L49 21L49 18L47 18L47 17L48 17L48 16L49 16L49 15L50 15L50 16L51 16L51 17L50 17L50 19L52 19L52 17L53 17L53 15L54 15L54 14L56 14L56 13L55 13L55 12L54 12L54 13L53 13L53 12L52 12L52 13L53 13L53 15L50 15L50 14L51 14L51 12L50 12L50 10L48 10L48 11L49 11L49 12L45 12L45 11L46 11L46 10L47 10L47 8L46 8L46 6L45 6L45 5L47 5L47 3L44 3L44 6L43 6L43 5L42 5L42 6L41 6L41 5L40 5L40 4L41 4L41 3L39 3L39 4L38 4L38 5L37 5L37 4L36 4L36 5L35 5L35 2ZM32 4L32 5L33 5L33 4ZM8 5L8 7L9 7L9 5ZM27 5L27 8L30 8L30 5ZM34 5L34 7L33 7L33 6L32 6L32 7L33 7L33 9L34 9L34 8L35 8L35 9L37 9L37 10L36 10L36 11L35 11L35 13L37 13L37 14L38 14L38 15L39 15L39 16L38 16L38 17L37 17L37 16L35 16L35 14L32 14L32 12L33 12L33 13L34 13L34 12L33 12L33 10L32 10L32 11L31 11L31 13L30 13L30 14L29 14L29 13L28 13L28 12L29 12L29 11L27 11L27 12L26 12L26 13L28 13L28 14L29 14L29 16L28 16L28 15L27 15L27 14L26 14L26 15L24 15L24 16L25 16L25 17L22 17L22 16L21 16L21 17L22 17L22 18L21 18L21 19L20 19L20 12L19 12L19 11L21 11L21 10L20 10L20 9L19 9L19 10L18 10L18 11L17 11L17 10L13 10L13 11L12 11L12 10L11 10L11 11L12 11L12 12L11 12L11 15L12 15L12 17L13 17L13 18L12 18L12 19L13 19L13 20L14 20L14 19L13 19L13 18L15 18L15 21L16 21L16 22L14 22L14 21L12 21L12 22L13 22L13 23L14 23L14 26L15 26L15 25L16 25L16 24L17 24L17 27L16 27L16 29L13 29L13 28L11 28L11 29L12 29L12 30L14 30L14 31L12 31L12 32L13 32L13 33L11 33L11 32L10 32L10 33L8 33L8 36L9 36L9 34L10 34L10 33L11 33L11 35L13 35L13 34L14 34L14 33L16 33L16 32L17 32L17 31L18 31L18 30L20 30L20 33L19 33L19 34L20 34L20 33L21 33L21 35L23 35L23 34L22 34L22 33L21 33L21 32L25 32L25 33L27 33L27 32L28 32L28 33L29 33L29 34L30 34L30 36L29 36L29 37L31 37L31 38L29 38L29 39L33 39L33 40L35 40L35 39L37 39L37 38L38 38L38 36L39 36L39 37L40 37L40 38L41 38L41 40L42 40L42 41L40 41L40 42L41 42L41 43L42 43L42 44L41 44L41 46L43 46L43 47L42 47L42 48L43 48L43 47L44 47L44 46L43 46L43 45L44 45L44 43L43 43L43 42L44 42L44 41L43 41L43 40L47 40L47 39L49 39L49 38L50 38L50 37L52 37L52 35L53 35L53 34L52 34L52 33L53 33L53 32L52 32L52 33L51 33L51 32L50 32L50 34L49 34L49 35L50 35L50 37L49 37L49 38L47 38L47 39L46 39L46 38L45 38L45 37L44 37L44 36L46 36L46 35L47 35L47 36L48 36L48 35L47 35L47 34L45 34L45 33L43 33L43 32L46 32L46 31L47 31L47 32L48 32L48 33L49 33L49 32L48 32L48 31L47 31L47 30L46 30L46 29L47 29L47 27L46 27L46 28L45 28L45 27L43 27L43 28L45 28L45 31L44 31L44 29L40 29L40 30L43 30L43 32L41 32L41 33L39 33L39 34L40 34L40 35L38 35L38 33L37 33L37 32L35 32L35 34L34 34L34 32L33 32L33 31L36 31L36 30L33 30L33 31L32 31L32 32L31 32L31 33L29 33L29 31L31 31L31 30L32 30L32 27L33 27L33 28L35 28L35 29L38 29L38 28L40 28L40 27L37 27L37 28L36 28L36 26L34 26L34 27L33 27L33 26L32 26L32 24L33 24L33 25L37 25L37 26L38 26L38 25L39 25L39 24L37 24L37 22L38 22L38 23L39 23L39 22L40 22L40 24L41 24L41 25L42 25L42 26L41 26L41 28L42 28L42 26L45 26L45 25L44 25L44 24L43 24L43 23L44 23L44 20L45 20L45 19L47 19L47 18L44 18L44 15L42 15L42 16L41 16L41 14L43 14L43 13L44 13L44 12L43 12L43 13L41 13L41 14L40 14L40 15L39 15L39 14L38 14L38 13L40 13L40 12L41 12L41 11L45 11L45 9L44 9L44 8L43 8L43 6L42 6L42 7L41 7L41 6L40 6L40 5L39 5L39 6L38 6L38 9L37 9L37 8L35 8L35 5ZM36 5L36 7L37 7L37 5ZM17 6L17 7L16 7L16 8L17 8L17 7L18 7L18 6ZM21 6L21 7L22 7L22 6ZM28 6L28 7L29 7L29 6ZM39 6L39 9L38 9L38 10L37 10L37 11L39 11L39 12L40 12L40 11L39 11L39 9L41 9L41 7L40 7L40 6ZM44 6L44 7L45 7L45 6ZM48 6L48 7L49 7L49 6ZM0 8L0 9L1 9L1 10L3 10L3 9L5 9L5 8ZM42 8L42 9L43 9L43 8ZM55 8L55 9L56 9L56 8ZM9 11L9 12L10 12L10 11ZM13 11L13 12L12 12L12 13L13 13L13 14L15 14L15 13L16 13L16 16L17 16L17 13L18 13L18 12L17 12L17 11L15 11L15 13L13 13L13 12L14 12L14 11ZM16 12L16 13L17 13L17 12ZM49 12L49 13L47 13L47 14L45 14L45 15L47 15L47 16L48 16L48 15L49 15L49 14L50 14L50 12ZM8 13L8 14L9 14L9 13ZM30 14L30 15L32 15L32 18L30 18L30 20L29 20L29 19L28 19L28 18L27 18L27 19L26 19L26 17L28 17L28 16L27 16L27 15L26 15L26 17L25 17L25 19L26 19L26 20L25 20L25 21L24 21L24 20L20 20L20 19L19 19L19 17L15 17L15 15L14 15L14 16L13 16L13 17L15 17L15 18L17 18L17 19L18 19L18 20L20 20L20 21L18 21L18 22L17 22L17 24L21 24L21 25L19 25L19 26L18 26L18 27L17 27L17 28L18 28L18 29L16 29L16 30L18 30L18 29L19 29L19 28L20 28L20 30L21 30L21 31L23 31L23 28L24 28L24 26L22 26L22 27L21 27L21 25L24 25L24 24L25 24L25 25L26 25L26 26L25 26L25 27L26 27L26 26L27 26L27 25L28 25L28 26L29 26L29 25L30 25L30 24L29 24L29 23L28 23L28 24L25 24L25 23L26 23L26 22L25 22L25 21L31 21L31 24L32 24L32 23L35 23L35 20L34 20L34 21L33 21L33 20L32 20L32 21L31 21L31 19L33 19L33 18L35 18L35 19L36 19L36 20L37 20L37 19L39 19L39 17L41 17L41 16L39 16L39 17L38 17L38 18L37 18L37 17L35 17L35 16L33 16L33 15L32 15L32 14ZM18 15L18 16L19 16L19 15ZM42 16L42 17L43 17L43 16ZM45 16L45 17L46 17L46 16ZM22 18L22 19L24 19L24 18ZM41 18L41 20L38 20L38 22L39 22L39 21L43 21L43 20L44 20L44 18L43 18L43 19L42 19L42 18ZM10 19L10 20L11 20L11 19ZM27 19L27 20L28 20L28 19ZM2 20L2 21L4 21L4 20ZM16 20L16 21L17 21L17 20ZM46 20L46 21L45 21L45 22L46 22L46 21L47 21L47 20ZM22 21L22 22L21 22L21 24L24 24L24 23L22 23L22 22L24 22L24 21ZM2 22L2 23L3 23L3 25L1 25L1 26L2 26L2 27L3 27L3 25L4 25L4 26L5 26L5 25L6 25L6 26L7 26L7 25L6 25L6 24L7 24L7 23L6 23L6 24L5 24L5 22L4 22L4 23L3 23L3 22ZM19 22L19 23L20 23L20 22ZM41 22L41 24L42 24L42 23L43 23L43 22ZM15 23L15 24L16 24L16 23ZM8 24L8 25L9 25L9 24ZM11 25L11 27L12 27L12 26L13 26L13 25ZM55 25L55 26L56 26L56 25ZM19 26L19 27L20 27L20 28L21 28L21 29L22 29L22 28L21 28L21 27L20 27L20 26ZM31 26L31 27L32 27L32 26ZM53 26L53 27L54 27L54 26ZM5 27L5 30L8 30L8 27ZM27 27L27 30L30 30L30 27ZM49 27L49 30L52 30L52 27ZM55 27L55 28L54 28L54 29L55 29L55 28L56 28L56 27ZM6 28L6 29L7 29L7 28ZM25 28L25 29L26 29L26 28ZM28 28L28 29L29 29L29 28ZM50 28L50 29L51 29L51 28ZM3 29L3 30L2 30L2 31L1 31L1 32L3 32L3 33L5 33L5 32L3 32L3 30L4 30L4 29ZM38 30L38 32L39 32L39 30ZM14 31L14 32L15 32L15 31ZM25 31L25 32L26 32L26 31ZM32 32L32 34L31 34L31 35L32 35L32 34L33 34L33 35L34 35L34 34L33 34L33 32ZM55 32L55 33L56 33L56 32ZM6 34L6 35L7 35L7 34ZM35 34L35 36L32 36L32 37L33 37L33 39L35 39L35 36L37 36L37 34ZM42 34L42 35L41 35L41 36L40 36L40 37L41 37L41 36L42 36L42 37L43 37L43 38L42 38L42 39L45 39L45 38L44 38L44 37L43 37L43 36L44 36L44 35L45 35L45 34ZM50 34L50 35L52 35L52 34ZM42 35L42 36L43 36L43 35ZM11 36L11 37L10 37L10 39L9 39L9 42L10 42L10 43L11 43L11 42L12 42L12 44L13 44L13 45L14 45L14 43L13 43L13 39L14 39L14 37L15 37L15 38L16 38L16 37L15 37L15 36ZM3 37L3 39L4 39L4 38L5 38L5 37ZM11 37L11 38L12 38L12 37ZM19 38L19 39L20 39L20 38ZM15 39L15 41L14 41L14 42L15 42L15 41L17 41L17 42L18 42L18 41L17 41L17 40L16 40L16 39ZM27 39L27 40L28 40L28 41L32 41L32 42L33 42L33 41L32 41L32 40L28 40L28 39ZM38 39L38 40L40 40L40 39ZM6 40L6 41L8 41L8 40ZM11 40L11 41L10 41L10 42L11 42L11 41L12 41L12 40ZM23 40L23 41L24 41L24 42L22 42L22 43L21 43L21 44L22 44L22 45L21 45L21 47L23 47L23 46L25 46L25 44L24 44L24 45L23 45L23 43L24 43L24 42L25 42L25 41L24 41L24 40ZM26 41L26 42L27 42L27 41ZM51 42L51 43L50 43L50 44L49 44L49 45L50 45L50 46L51 46L51 47L53 47L53 46L51 46L51 45L50 45L50 44L51 44L51 43L53 43L53 42ZM6 43L6 44L5 44L5 45L6 45L6 46L7 46L7 45L6 45L6 44L7 44L7 43ZM22 45L22 46L23 46L23 45ZM1 46L1 47L2 47L2 46ZM14 46L14 47L16 47L16 46ZM24 47L24 48L26 48L26 47ZM28 47L28 48L29 48L29 47ZM34 47L34 48L36 48L36 47ZM13 48L13 49L15 49L15 48ZM38 48L38 49L39 49L39 48ZM27 49L27 52L30 52L30 49ZM49 49L49 52L52 52L52 49ZM28 50L28 51L29 51L29 50ZM38 50L38 51L40 51L40 52L41 52L41 50ZM50 50L50 51L51 51L51 50ZM54 50L54 51L55 51L55 50ZM33 51L33 52L34 52L34 53L33 53L33 55L35 55L35 56L36 56L36 54L35 54L35 51ZM46 51L46 52L47 52L47 51ZM53 52L53 53L54 53L54 52ZM43 53L43 54L44 54L44 53ZM11 54L11 55L12 55L12 54ZM37 55L37 56L39 56L39 55ZM48 55L48 56L49 56L49 55ZM50 55L50 56L51 56L51 55ZM25 56L25 57L26 57L26 56ZM0 0L0 7L7 7L7 0ZM1 1L1 6L6 6L6 1ZM2 2L2 5L5 5L5 2ZM50 0L50 7L57 7L57 0ZM51 1L51 6L56 6L56 1ZM52 2L52 5L55 5L55 2ZM0 50L0 57L7 57L7 50ZM1 51L1 56L6 56L6 51ZM2 52L2 55L5 55L5 52Z" fill="#000000"/></g></g></svg>
