<?xml version="1.0" encoding="UTF-8"?>
<svg xmlns="http://www.w3.org/2000/svg" version="1.1" width="300" height="300" viewBox="0 0 300 300"><rect x="0" y="0" width="300" height="300" fill="#fefefe"/><g transform="scale(4.615)"><g transform="translate(4,4)"><path fill-rule="evenodd" d="M8 0L8 1L9 1L9 2L8 2L8 5L9 5L9 4L10 4L10 7L11 7L11 8L8 8L8 9L10 9L10 12L11 12L11 14L12 14L12 15L11 15L11 16L13 16L13 17L12 17L12 18L13 18L13 17L15 17L15 19L13 19L13 20L12 20L12 19L10 19L10 18L9 18L9 17L8 17L8 16L6 16L6 17L5 17L5 16L4 16L4 15L3 15L3 14L4 14L4 13L3 13L3 14L2 14L2 13L0 13L0 15L1 15L1 16L0 16L0 20L1 20L1 23L2 23L2 22L4 22L4 23L5 23L5 22L4 22L4 21L5 21L5 19L4 19L4 18L6 18L6 19L8 19L8 20L6 20L6 21L8 21L8 20L9 20L9 21L10 21L10 22L9 22L9 25L7 25L7 24L6 24L6 25L5 25L5 24L4 24L4 25L3 25L3 24L0 24L0 25L3 25L3 26L4 26L4 30L3 30L3 28L2 28L2 29L1 29L1 28L0 28L0 29L1 29L1 30L0 30L0 31L2 31L2 30L3 30L3 31L4 31L4 32L1 32L1 34L0 34L0 37L1 37L1 36L2 36L2 35L3 35L3 34L4 34L4 36L3 36L3 37L2 37L2 40L3 40L3 41L4 41L4 43L7 43L7 44L6 44L6 45L5 45L5 47L3 47L3 46L2 46L2 45L4 45L4 44L3 44L3 42L2 42L2 41L1 41L1 40L0 40L0 43L1 43L1 42L2 42L2 44L1 44L1 46L0 46L0 48L5 48L5 47L7 47L7 48L6 48L6 49L7 49L7 48L8 48L8 42L9 42L9 41L8 41L8 42L5 42L5 41L7 41L7 40L6 40L6 39L8 39L8 40L9 40L9 39L11 39L11 41L14 41L14 43L13 43L13 42L12 42L12 43L11 43L11 42L10 42L10 43L9 43L9 44L10 44L10 45L11 45L11 44L12 44L12 45L14 45L14 46L11 46L11 47L10 47L10 46L9 46L9 48L11 48L11 49L8 49L8 50L12 50L12 51L11 51L11 54L14 54L14 56L13 56L13 55L12 55L12 56L11 56L11 57L12 57L12 56L13 56L13 57L15 57L15 56L16 56L16 57L18 57L18 56L19 56L19 57L24 57L24 56L25 56L25 55L24 55L24 56L23 56L23 54L26 54L26 55L27 55L27 56L28 56L28 55L27 55L27 54L26 54L26 53L29 53L29 54L31 54L31 55L30 55L30 56L31 56L31 57L32 57L32 55L33 55L33 54L36 54L36 55L34 55L34 56L33 56L33 57L36 57L36 55L38 55L38 57L42 57L42 56L45 56L45 57L47 57L47 56L48 56L48 57L51 57L51 54L52 54L52 53L54 53L54 52L56 52L56 51L55 51L55 50L57 50L57 48L56 48L56 49L55 49L55 50L53 50L53 49L54 49L54 47L57 47L57 45L56 45L56 46L54 46L54 47L53 47L53 48L51 48L51 46L50 46L50 45L51 45L51 44L52 44L52 43L53 43L53 42L54 42L54 43L55 43L55 44L53 44L53 45L55 45L55 44L56 44L56 41L57 41L57 40L56 40L56 41L55 41L55 42L54 42L54 41L53 41L53 40L55 40L55 38L56 38L56 39L57 39L57 38L56 38L56 37L57 37L57 36L56 36L56 35L57 35L57 34L56 34L56 33L57 33L57 31L56 31L56 30L57 30L57 27L56 27L56 28L55 28L55 27L53 27L53 25L51 25L51 24L54 24L54 23L53 23L53 20L50 20L50 18L48 18L48 17L49 17L49 16L48 16L48 14L47 14L47 17L45 17L45 16L46 16L46 15L45 15L45 16L44 16L44 15L43 15L43 14L42 14L42 17L41 17L41 18L39 18L39 19L40 19L40 20L39 20L39 22L38 22L38 21L36 21L36 20L38 20L38 19L36 19L36 20L34 20L34 21L35 21L35 22L37 22L37 24L36 24L36 23L35 23L35 24L33 24L33 22L32 22L32 23L31 23L31 21L30 21L30 20L32 20L32 19L30 19L30 17L29 17L29 16L31 16L31 17L32 17L32 18L35 18L35 17L34 17L34 16L35 16L35 15L39 15L39 17L40 17L40 16L41 16L41 13L40 13L40 14L39 14L39 10L38 10L38 9L41 9L41 10L40 10L40 11L42 11L42 12L43 12L43 13L44 13L44 14L46 14L46 13L44 13L44 12L43 12L43 11L42 11L42 10L43 10L43 8L40 8L40 7L41 7L41 6L42 6L42 7L43 7L43 5L45 5L45 4L44 4L44 3L45 3L45 1L44 1L44 2L42 2L42 3L41 3L41 4L37 4L37 3L39 3L39 2L37 2L37 1L38 1L38 0L37 0L37 1L36 1L36 0L35 0L35 1L34 1L34 2L31 2L31 4L30 4L30 2L28 2L28 1L31 1L31 0L27 0L27 3L29 3L29 4L26 4L26 2L24 2L24 3L23 3L23 5L20 5L20 4L19 4L19 3L17 3L17 4L18 4L18 5L15 5L15 4L14 4L14 3L13 3L13 4L12 4L12 5L11 5L11 1L14 1L14 0L11 0L11 1L9 1L9 0ZM19 0L19 1L18 1L18 2L23 2L23 1L26 1L26 0L23 0L23 1L22 1L22 0L21 0L21 1L20 1L20 0ZM32 0L32 1L33 1L33 0ZM39 0L39 1L40 1L40 2L41 2L41 1L43 1L43 0L41 0L41 1L40 1L40 0ZM46 0L46 1L47 1L47 2L46 2L46 3L47 3L47 5L46 5L46 9L47 9L47 10L46 10L46 11L47 11L47 10L48 10L48 12L49 12L49 15L50 15L50 16L51 16L51 17L52 17L52 16L55 16L55 17L54 17L54 18L52 18L52 19L56 19L56 18L57 18L57 15L55 15L55 14L54 14L54 10L53 10L53 13L52 13L52 12L51 12L51 11L52 11L52 10L50 10L50 8L48 8L48 7L49 7L49 6L48 6L48 7L47 7L47 5L48 5L48 0ZM15 1L15 3L16 3L16 2L17 2L17 1ZM35 1L35 2L36 2L36 1ZM9 2L9 3L10 3L10 2ZM32 3L32 4L31 4L31 5L32 5L32 6L31 6L31 9L32 9L32 10L30 10L30 11L28 11L28 10L26 10L26 11L25 11L25 10L23 10L23 9L21 9L21 7L22 7L22 6L21 6L21 7L20 7L20 6L19 6L19 7L20 7L20 10L18 10L18 12L17 12L17 13L16 13L16 11L15 11L15 8L16 8L16 10L17 10L17 7L18 7L18 6L17 6L17 7L16 7L16 6L15 6L15 5L14 5L14 4L13 4L13 5L14 5L14 6L13 6L13 7L14 7L14 6L15 6L15 8L11 8L11 11L12 11L12 12L13 12L13 11L12 11L12 10L14 10L14 11L15 11L15 15L14 15L14 13L12 13L12 14L13 14L13 15L14 15L14 16L15 16L15 17L17 17L17 18L16 18L16 19L19 19L19 20L18 20L18 21L17 21L17 23L16 23L16 20L14 20L14 22L13 22L13 23L16 23L16 24L19 24L19 22L21 22L21 23L20 23L20 24L21 24L21 27L20 27L20 25L18 25L18 26L19 26L19 27L17 27L17 25L16 25L16 26L15 26L15 24L13 24L13 25L12 25L12 26L11 26L11 25L10 25L10 26L9 26L9 28L10 28L10 29L12 29L12 32L13 32L13 33L14 33L14 34L12 34L12 33L11 33L11 34L10 34L10 35L11 35L11 34L12 34L12 35L13 35L13 36L12 36L12 37L13 37L13 36L14 36L14 37L15 37L15 38L14 38L14 39L15 39L15 38L17 38L17 36L19 36L19 37L20 37L20 38L21 38L21 39L22 39L22 41L23 41L23 40L24 40L24 39L25 39L25 41L24 41L24 42L23 42L23 44L22 44L22 42L21 42L21 40L19 40L19 39L16 39L16 40L14 40L14 41L16 41L16 40L17 40L17 42L15 42L15 43L14 43L14 45L15 45L15 46L14 46L14 47L13 47L13 49L12 49L12 50L13 50L13 51L12 51L12 52L13 52L13 53L14 53L14 54L15 54L15 53L16 53L16 54L17 54L17 56L18 56L18 55L19 55L19 56L20 56L20 55L21 55L21 56L22 56L22 55L21 55L21 54L23 54L23 52L24 52L24 53L25 53L25 52L26 52L26 49L25 49L25 48L27 48L27 47L28 47L28 48L29 48L29 47L30 47L30 48L31 48L31 47L32 47L32 45L33 45L33 47L34 47L34 46L35 46L35 44L34 44L34 45L33 45L33 42L32 42L32 43L30 43L30 44L31 44L31 46L29 46L29 45L28 45L28 43L27 43L27 42L25 42L25 41L26 41L26 40L27 40L27 41L28 41L28 40L29 40L29 42L30 42L30 41L31 41L31 40L33 40L33 39L35 39L35 40L34 40L34 41L36 41L36 42L34 42L34 43L36 43L36 45L38 45L38 47L37 47L37 46L36 46L36 47L35 47L35 48L34 48L34 50L35 50L35 48L37 48L37 49L36 49L36 50L37 50L37 49L38 49L38 48L39 48L39 49L40 49L40 50L39 50L39 51L36 51L36 52L34 52L34 51L33 51L33 52L34 52L34 53L36 53L36 54L37 54L37 52L40 52L40 54L41 54L41 55L42 55L42 54L43 54L43 47L39 47L39 45L40 45L40 44L39 44L39 43L38 43L38 44L37 44L37 42L41 42L41 40L40 40L40 41L37 41L37 40L38 40L38 39L39 39L39 38L38 38L38 39L37 39L37 37L39 37L39 36L40 36L40 37L41 37L41 39L42 39L42 42L43 42L43 43L42 43L42 45L44 45L44 47L45 47L45 48L44 48L44 51L45 51L45 50L46 50L46 51L47 51L47 52L48 52L48 48L47 48L47 49L46 49L46 46L47 46L47 47L49 47L49 46L48 46L48 45L49 45L49 44L51 44L51 42L50 42L50 41L52 41L52 40L53 40L53 39L54 39L54 38L53 38L53 36L52 36L52 35L51 35L51 36L52 36L52 38L49 38L49 39L47 39L47 40L46 40L46 41L47 41L47 42L48 42L48 43L49 43L49 44L44 44L44 43L45 43L45 41L44 41L44 40L43 40L43 39L42 39L42 38L44 38L44 39L45 39L45 36L47 36L47 37L46 37L46 38L47 38L47 37L50 37L50 36L48 36L48 35L47 35L47 34L50 34L50 33L49 33L49 32L48 32L48 28L47 28L47 31L44 31L44 30L46 30L46 27L45 27L45 23L42 23L42 24L41 24L41 23L38 23L38 24L39 24L39 26L38 26L38 27L39 27L39 28L40 28L40 29L38 29L38 30L37 30L37 27L35 27L35 25L34 25L34 27L35 27L35 28L34 28L34 29L36 29L36 31L37 31L37 32L36 32L36 33L37 33L37 32L38 32L38 34L39 34L39 31L38 31L38 30L40 30L40 32L41 32L41 31L44 31L44 33L45 33L45 34L46 34L46 35L45 35L45 36L44 36L44 37L42 37L42 36L41 36L41 35L42 35L42 34L41 34L41 35L37 35L37 37L34 37L34 38L33 38L33 36L32 36L32 35L34 35L34 36L36 36L36 35L35 35L35 32L34 32L34 31L32 31L32 30L33 30L33 29L31 29L31 33L32 33L32 35L31 35L31 34L30 34L30 35L29 35L29 33L30 33L30 32L29 32L29 31L28 31L28 33L26 33L26 32L27 32L27 31L26 31L26 32L25 32L25 34L24 34L24 35L22 35L22 36L20 36L20 35L21 35L21 32L22 32L22 31L25 31L25 30L26 30L26 28L25 28L25 25L28 25L28 26L31 26L31 23L30 23L30 22L29 22L29 21L27 21L27 20L25 20L25 19L24 19L24 18L25 18L25 17L26 17L26 16L27 16L27 13L26 13L26 12L28 12L28 13L30 13L30 14L31 14L31 16L32 16L32 14L33 14L33 15L35 15L35 14L37 14L37 13L35 13L35 12L34 12L34 14L33 14L33 10L34 10L34 11L35 11L35 10L36 10L36 12L38 12L38 11L37 11L37 8L39 8L39 7L40 7L40 5L38 5L38 6L37 6L37 5L36 5L36 4L35 4L35 3ZM24 4L24 6L23 6L23 7L24 7L24 9L26 9L26 6L25 6L25 5L26 5L26 4ZM41 4L41 5L43 5L43 4ZM27 5L27 8L30 8L30 5ZM33 5L33 6L32 6L32 8L33 8L33 6L34 6L34 9L36 9L36 8L37 8L37 6L36 6L36 7L35 7L35 6L34 6L34 5ZM8 6L8 7L9 7L9 6ZM11 6L11 7L12 7L12 6ZM24 6L24 7L25 7L25 6ZM28 6L28 7L29 7L29 6ZM38 6L38 7L39 7L39 6ZM44 6L44 8L45 8L45 6ZM0 8L0 9L1 9L1 10L0 10L0 11L1 11L1 12L3 12L3 11L5 11L5 12L6 12L6 13L7 13L7 14L6 14L6 15L8 15L8 13L9 13L9 15L10 15L10 13L9 13L9 12L8 12L8 10L5 10L5 9L4 9L4 8ZM6 8L6 9L7 9L7 8ZM18 8L18 9L19 9L19 8ZM52 8L52 9L55 9L55 11L57 11L57 10L56 10L56 9L57 9L57 8L56 8L56 9L55 9L55 8ZM2 9L2 11L3 11L3 10L4 10L4 9ZM44 9L44 10L45 10L45 9ZM21 10L21 11L23 11L23 10ZM49 10L49 11L50 11L50 10ZM6 11L6 12L7 12L7 11ZM19 11L19 12L18 12L18 13L19 13L19 14L18 14L18 15L19 15L19 14L21 14L21 13L19 13L19 12L20 12L20 11ZM24 11L24 12L25 12L25 11ZM30 11L30 12L31 12L31 14L32 14L32 12L31 12L31 11ZM22 12L22 13L23 13L23 12ZM50 12L50 13L51 13L51 15L54 15L54 14L52 14L52 13L51 13L51 12ZM56 12L56 13L57 13L57 12ZM16 14L16 15L15 15L15 16L16 16L16 15L17 15L17 14ZM23 14L23 15L24 15L24 16L23 16L23 18L24 18L24 17L25 17L25 16L26 16L26 14ZM28 15L28 16L29 16L29 15ZM3 16L3 17L4 17L4 16ZM19 16L19 17L21 17L21 19L20 19L20 18L19 18L19 19L20 19L20 20L21 20L21 22L22 22L22 23L23 23L23 25L22 25L22 27L23 27L23 28L24 28L24 27L23 27L23 25L25 25L25 22L27 22L27 23L26 23L26 24L27 24L27 23L28 23L28 24L30 24L30 23L29 23L29 22L27 22L27 21L25 21L25 22L24 22L24 21L23 21L23 19L22 19L22 17L21 17L21 16ZM6 17L6 18L7 18L7 17ZM27 17L27 19L28 19L28 20L29 20L29 19L28 19L28 18L29 18L29 17ZM36 17L36 18L37 18L37 17ZM42 17L42 18L41 18L41 19L42 19L42 18L43 18L43 21L44 21L44 22L47 22L47 23L46 23L46 26L47 26L47 27L48 27L48 26L50 26L50 25L49 25L49 24L48 24L48 23L50 23L50 24L51 24L51 23L52 23L52 22L51 22L51 21L50 21L50 20L49 20L49 19L48 19L48 18L45 18L45 17ZM55 17L55 18L56 18L56 17ZM1 18L1 20L2 20L2 21L3 21L3 20L4 20L4 19L2 19L2 18ZM8 18L8 19L9 19L9 18ZM44 18L44 19L45 19L45 21L48 21L48 22L49 22L49 20L46 20L46 19L45 19L45 18ZM21 19L21 20L22 20L22 19ZM10 20L10 21L11 21L11 20ZM41 20L41 21L42 21L42 20ZM54 20L54 21L56 21L56 22L55 22L55 23L57 23L57 20ZM6 22L6 23L8 23L8 22ZM11 22L11 23L12 23L12 22ZM32 24L32 25L33 25L33 24ZM43 24L43 25L44 25L44 24ZM55 24L55 25L56 25L56 24ZM4 25L4 26L5 26L5 25ZM6 25L6 26L7 26L7 25ZM1 26L1 27L2 27L2 26ZM10 26L10 27L11 27L11 26ZM12 26L12 29L13 29L13 31L15 31L15 32L16 32L16 30L17 30L17 33L18 33L18 35L19 35L19 34L20 34L20 33L18 33L18 32L19 32L19 31L18 31L18 30L17 30L17 27L13 27L13 26ZM39 26L39 27L40 27L40 26ZM42 26L42 27L41 27L41 30L42 30L42 29L43 29L43 28L44 28L44 29L45 29L45 27L44 27L44 26ZM5 27L5 30L8 30L8 27ZM27 27L27 30L30 30L30 27ZM31 27L31 28L33 28L33 27ZM42 27L42 28L43 28L43 27ZM49 27L49 30L52 30L52 27ZM6 28L6 29L7 29L7 28ZM13 28L13 29L14 29L14 30L16 30L16 29L15 29L15 28ZM18 28L18 29L21 29L21 30L20 30L20 31L21 31L21 30L24 30L24 29L21 29L21 28ZM28 28L28 29L29 29L29 28ZM50 28L50 29L51 29L51 28ZM53 28L53 30L54 30L54 31L53 31L53 32L52 32L52 34L54 34L54 32L55 32L55 30L56 30L56 29L54 29L54 28ZM6 31L6 32L4 32L4 34L9 34L9 33L6 33L6 32L7 32L7 31ZM8 31L8 32L11 32L11 31ZM50 31L50 32L51 32L51 31ZM23 32L23 33L22 33L22 34L23 34L23 33L24 33L24 32ZM42 32L42 33L43 33L43 32ZM45 32L45 33L47 33L47 32ZM2 33L2 34L3 34L3 33ZM25 34L25 35L26 35L26 34ZM27 34L27 36L29 36L29 38L26 38L26 39L27 39L27 40L28 40L28 39L30 39L30 38L32 38L32 39L33 39L33 38L32 38L32 36L29 36L29 35L28 35L28 34ZM43 34L43 35L44 35L44 34ZM5 35L5 36L4 36L4 37L5 37L5 38L8 38L8 39L9 39L9 38L11 38L11 39L12 39L12 40L13 40L13 38L11 38L11 37L5 37L5 36L8 36L8 35ZM14 35L14 36L17 36L17 35ZM54 35L54 36L55 36L55 37L56 37L56 36L55 36L55 35ZM23 36L23 39L24 39L24 37L25 37L25 36ZM21 37L21 38L22 38L22 37ZM0 38L0 39L1 39L1 38ZM3 38L3 39L4 39L4 40L5 40L5 39L4 39L4 38ZM35 38L35 39L36 39L36 38ZM49 39L49 40L47 40L47 41L50 41L50 40L52 40L52 39ZM18 41L18 43L19 43L19 41ZM20 42L20 43L21 43L21 42ZM49 42L49 43L50 43L50 42ZM10 43L10 44L11 44L11 43ZM12 43L12 44L13 44L13 43ZM15 43L15 45L17 45L17 47L16 47L16 46L15 46L15 47L14 47L14 48L15 48L15 47L16 47L16 48L17 48L17 50L18 50L18 51L19 51L19 55L20 55L20 53L22 53L22 52L23 52L23 49L24 49L24 48L25 48L25 45L26 45L26 46L27 46L27 45L26 45L26 43L25 43L25 45L23 45L23 46L22 46L22 44L21 44L21 46L20 46L20 45L17 45L17 43ZM38 44L38 45L39 45L39 44ZM6 45L6 46L7 46L7 45ZM1 46L1 47L2 47L2 46ZM18 46L18 47L17 47L17 48L18 48L18 47L19 47L19 49L21 49L21 50L20 50L20 51L22 51L22 49L23 49L23 48L24 48L24 47L23 47L23 48L20 48L20 46ZM21 46L21 47L22 47L22 46ZM28 46L28 47L29 47L29 46ZM32 48L32 49L31 49L31 50L33 50L33 48ZM41 48L41 49L42 49L42 48ZM15 49L15 51L13 51L13 52L14 52L14 53L15 53L15 52L16 52L16 49ZM27 49L27 52L30 52L30 49ZM49 49L49 52L52 52L52 49ZM24 50L24 51L25 51L25 50ZM28 50L28 51L29 51L29 50ZM50 50L50 51L51 51L51 50ZM9 51L9 52L10 52L10 51ZM31 51L31 53L32 53L32 51ZM40 51L40 52L42 52L42 51ZM45 52L45 53L46 53L46 52ZM8 53L8 57L9 57L9 56L10 56L10 54L9 54L9 53ZM17 53L17 54L18 54L18 53ZM38 53L38 54L39 54L39 53ZM41 53L41 54L42 54L42 53ZM47 53L47 54L50 54L50 53ZM55 53L55 54L53 54L53 56L52 56L52 57L55 57L55 56L54 56L54 55L55 55L55 54L56 54L56 53ZM44 54L44 55L45 55L45 54ZM56 55L56 56L57 56L57 55ZM0 0L0 7L7 7L7 0ZM1 1L1 6L6 6L6 1ZM2 2L2 5L5 5L5 2ZM50 0L50 7L57 7L57 0ZM51 1L51 6L56 6L56 1ZM52 2L52 5L55 5L55 2ZM0 50L0 57L7 57L7 50ZM1 51L1 56L6 56L6 51ZM2 52L2 55L5 55L5 52Z" fill="#000000"/></g></g></svg>
