<?xml version="1.0" encoding="UTF-8"?>
<svg xmlns="http://www.w3.org/2000/svg" version="1.1" width="300" height="300" viewBox="0 0 300 300"><rect x="0" y="0" width="300" height="300" fill="#fefefe"/><g transform="scale(4.615)"><g transform="translate(4,4)"><path fill-rule="evenodd" d="M10 0L10 1L11 1L11 2L13 2L13 3L14 3L14 2L16 2L16 1L17 1L17 2L18 2L18 3L19 3L19 4L18 4L18 7L17 7L17 6L16 6L16 7L15 7L15 4L12 4L12 3L11 3L11 4L10 4L10 3L9 3L9 1L8 1L8 3L9 3L9 4L8 4L8 8L6 8L6 9L7 9L7 10L4 10L4 11L3 11L3 9L4 9L4 8L3 8L3 9L2 9L2 8L0 8L0 9L1 9L1 10L0 10L0 11L1 11L1 10L2 10L2 13L1 13L1 12L0 12L0 16L1 16L1 15L2 15L2 14L3 14L3 12L5 12L5 13L7 13L7 14L6 14L6 15L7 15L7 16L6 16L6 17L7 17L7 18L5 18L5 14L4 14L4 15L3 15L3 16L2 16L2 17L1 17L1 18L3 18L3 19L4 19L4 20L6 20L6 21L4 21L4 22L3 22L3 21L2 21L2 22L3 22L3 23L1 23L1 19L0 19L0 28L2 28L2 29L1 29L1 30L0 30L0 35L1 35L1 36L0 36L0 37L1 37L1 38L2 38L2 39L0 39L0 40L2 40L2 41L3 41L3 42L2 42L2 43L3 43L3 44L2 44L2 47L1 47L1 46L0 46L0 48L5 48L5 47L8 47L8 48L6 48L6 49L8 49L8 51L9 51L9 53L8 53L8 54L11 54L11 55L10 55L10 56L9 56L9 55L8 55L8 57L10 57L10 56L11 56L11 57L13 57L13 56L14 56L14 57L17 57L17 56L18 56L18 57L19 57L19 55L21 55L21 56L20 56L20 57L26 57L26 56L25 56L25 55L28 55L28 56L29 56L29 57L31 57L31 56L33 56L33 57L35 57L35 56L36 56L36 57L42 57L42 56L43 56L43 57L44 57L44 56L46 56L46 55L49 55L49 56L47 56L47 57L49 57L49 56L50 56L50 57L51 57L51 56L52 56L52 57L54 57L54 56L53 56L53 54L54 54L54 53L55 53L55 54L56 54L56 55L57 55L57 53L56 53L56 52L57 52L57 51L56 51L56 49L55 49L55 48L54 48L54 47L55 47L55 46L56 46L56 48L57 48L57 45L56 45L56 44L55 44L55 45L53 45L53 46L52 46L52 47L51 47L51 45L52 45L52 44L53 44L53 43L52 43L52 44L51 44L51 42L47 42L47 45L48 45L48 46L46 46L46 48L44 48L44 47L45 47L45 45L44 45L44 43L43 43L43 42L45 42L45 41L46 41L46 40L49 40L49 39L47 39L47 38L48 38L48 37L46 37L46 35L45 35L45 33L47 33L47 34L48 34L48 35L47 35L47 36L49 36L49 38L50 38L50 37L51 37L51 36L52 36L52 38L51 38L51 39L50 39L50 40L52 40L52 41L53 41L53 42L54 42L54 43L57 43L57 42L56 42L56 41L57 41L57 40L56 40L56 39L57 39L57 36L54 36L54 35L53 35L53 34L54 34L54 33L55 33L55 32L56 32L56 35L57 35L57 32L56 32L56 31L57 31L57 30L55 30L55 32L54 32L54 33L53 33L53 34L52 34L52 32L53 32L53 31L54 31L54 30L53 30L53 29L54 29L54 28L53 28L53 27L56 27L56 29L57 29L57 27L56 27L56 26L57 26L57 20L56 20L56 21L54 21L54 20L53 20L53 19L57 19L57 15L56 15L56 14L57 14L57 13L56 13L56 14L55 14L55 15L56 15L56 17L55 17L55 16L53 16L53 15L54 15L54 14L53 14L53 15L51 15L51 14L52 14L52 13L54 13L54 11L55 11L55 12L57 12L57 10L56 10L56 8L54 8L54 9L53 9L53 8L50 8L50 9L51 9L51 12L50 12L50 10L48 10L48 11L49 11L49 14L48 14L48 17L47 17L47 18L46 18L46 20L45 20L45 19L44 19L44 20L43 20L43 21L44 21L44 20L45 20L45 22L44 22L44 23L43 23L43 22L41 22L41 20L40 20L40 19L39 19L39 18L42 18L42 19L43 19L43 18L42 18L42 14L41 14L41 11L42 11L42 12L43 12L43 15L44 15L44 13L46 13L46 14L47 14L47 10L46 10L46 11L44 11L44 12L43 12L43 10L45 10L45 9L44 9L44 8L45 8L45 6L46 6L46 7L47 7L47 5L48 5L48 0L46 0L46 1L45 1L45 0L44 0L44 1L45 1L45 2L44 2L44 3L45 3L45 2L46 2L46 3L47 3L47 5L45 5L45 4L44 4L44 8L43 8L43 6L42 6L42 5L43 5L43 4L38 4L38 3L39 3L39 2L40 2L40 1L43 1L43 0L40 0L40 1L39 1L39 0L37 0L37 1L36 1L36 0L29 0L29 1L28 1L28 2L29 2L29 4L24 4L24 5L23 5L23 4L22 4L22 5L21 5L21 6L20 6L20 5L19 5L19 4L20 4L20 3L19 3L19 2L20 2L20 1L21 1L21 3L22 3L22 2L23 2L23 3L24 3L24 2L23 2L23 1L26 1L26 2L27 2L27 0L22 0L22 1L21 1L21 0ZM13 1L13 2L14 2L14 1ZM18 1L18 2L19 2L19 1ZM29 1L29 2L30 2L30 3L31 3L31 4L32 4L32 5L33 5L33 7L32 7L32 6L31 6L31 8L32 8L32 9L29 9L29 10L28 10L28 11L29 11L29 13L28 13L28 12L26 12L26 11L27 11L27 10L26 10L26 9L25 9L25 8L26 8L26 6L25 6L25 5L24 5L24 6L23 6L23 7L22 7L22 6L21 6L21 7L22 7L22 8L23 8L23 7L24 7L24 9L22 9L22 10L23 10L23 11L25 11L25 12L24 12L24 14L21 14L21 12L20 12L20 11L18 11L18 10L17 10L17 9L18 9L18 8L16 8L16 10L17 10L17 11L15 11L15 7L14 7L14 5L12 5L12 4L11 4L11 5L10 5L10 4L9 4L9 5L10 5L10 6L9 6L9 7L10 7L10 6L11 6L11 8L8 8L8 9L9 9L9 10L7 10L7 11L5 11L5 12L7 12L7 11L8 11L8 14L7 14L7 15L8 15L8 16L9 16L9 17L8 17L8 18L7 18L7 19L6 19L6 20L7 20L7 21L6 21L6 22L5 22L5 23L6 23L6 24L4 24L4 23L3 23L3 24L4 24L4 25L2 25L2 26L1 26L1 27L4 27L4 26L7 26L7 25L6 25L6 24L8 24L8 26L9 26L9 25L11 25L11 24L12 24L12 26L13 26L13 27L14 27L14 29L13 29L13 28L11 28L11 30L12 30L12 29L13 29L13 31L11 31L11 34L8 34L8 35L6 35L6 36L7 36L7 37L5 37L5 34L4 34L4 33L2 33L2 34L1 34L1 35L2 35L2 36L1 36L1 37L2 37L2 38L3 38L3 37L4 37L4 41L5 41L5 42L3 42L3 43L4 43L4 44L3 44L3 47L5 47L5 46L4 46L4 45L6 45L6 46L8 46L8 45L10 45L10 46L9 46L9 47L10 47L10 48L12 48L12 49L13 49L13 50L11 50L11 54L14 54L14 52L13 52L13 50L15 50L15 56L17 56L17 55L18 55L18 54L19 54L19 53L20 53L20 50L21 50L21 52L22 52L22 53L21 53L21 54L22 54L22 56L24 56L24 55L25 55L25 54L23 54L23 53L24 53L24 52L23 52L23 51L22 51L22 50L24 50L24 51L25 51L25 49L26 49L26 48L25 48L25 47L24 47L24 46L25 46L25 45L27 45L27 46L26 46L26 47L27 47L27 48L32 48L32 47L34 47L34 49L33 49L33 50L32 50L32 49L31 49L31 51L33 51L33 52L34 52L34 53L32 53L32 55L34 55L34 56L35 56L35 55L36 55L36 56L39 56L39 55L40 55L40 56L42 56L42 55L41 55L41 54L40 54L40 53L42 53L42 54L43 54L43 53L44 53L44 54L47 54L47 53L48 53L48 54L50 54L50 56L51 56L51 54L52 54L52 53L48 53L48 52L46 52L46 53L44 53L44 50L46 50L46 49L47 49L47 50L48 50L48 48L46 48L46 49L43 49L43 47L44 47L44 45L42 45L42 44L43 44L43 43L42 43L42 42L43 42L43 41L44 41L44 40L43 40L43 41L42 41L42 42L41 42L41 39L40 39L40 41L39 41L39 42L38 42L38 40L37 40L37 41L36 41L36 42L35 42L35 40L34 40L34 41L32 41L32 40L33 40L33 39L36 39L36 38L37 38L37 39L39 39L39 38L42 38L42 39L45 39L45 40L46 40L46 39L45 39L45 38L46 38L46 37L45 37L45 38L44 38L44 37L43 37L43 34L44 34L44 33L45 33L45 32L46 32L46 31L47 31L47 32L48 32L48 30L47 30L47 29L46 29L46 25L47 25L47 24L48 24L48 26L49 26L49 24L48 24L48 23L47 23L47 24L45 24L45 29L46 29L46 30L45 30L45 32L43 32L43 33L42 33L42 32L41 32L41 34L42 34L42 35L41 35L41 37L40 37L40 36L39 36L39 35L38 35L38 34L39 34L39 32L40 32L40 31L43 31L43 30L44 30L44 29L43 29L43 28L44 28L44 26L43 26L43 23L42 23L42 24L41 24L41 25L40 25L40 26L39 26L39 25L38 25L38 26L34 26L34 25L35 25L35 24L33 24L33 23L35 23L35 22L38 22L38 24L39 24L39 21L38 21L38 20L37 20L37 21L36 21L36 19L38 19L38 17L39 17L39 15L41 15L41 14L40 14L40 13L39 13L39 12L40 12L40 10L43 10L43 9L42 9L42 6L41 6L41 5L40 5L40 6L39 6L39 7L40 7L40 6L41 6L41 9L40 9L40 10L39 10L39 8L38 8L38 9L37 9L37 11L36 11L36 10L35 10L35 9L36 9L36 8L35 8L35 7L36 7L36 6L37 6L37 7L38 7L38 6L37 6L37 5L38 5L38 4L37 4L37 3L38 3L38 1L37 1L37 2L36 2L36 1L34 1L34 2L35 2L35 3L32 3L32 2L33 2L33 1L32 1L32 2L31 2L31 1ZM46 1L46 2L47 2L47 1ZM41 2L41 3L42 3L42 2ZM35 4L35 5L34 5L34 7L33 7L33 8L34 8L34 9L35 9L35 8L34 8L34 7L35 7L35 5L36 5L36 4ZM11 5L11 6L12 6L12 7L13 7L13 8L11 8L11 10L10 10L10 11L9 11L9 12L11 12L11 14L10 14L10 13L9 13L9 16L10 16L10 15L11 15L11 14L12 14L12 15L13 15L13 16L14 16L14 17L13 17L13 18L12 18L12 16L11 16L11 18L8 18L8 19L9 19L9 20L8 20L8 21L10 21L10 22L9 22L9 23L8 23L8 24L9 24L9 23L10 23L10 24L11 24L11 22L13 22L13 23L12 23L12 24L14 24L14 22L13 22L13 21L12 21L12 20L14 20L14 19L15 19L15 16L16 16L16 15L17 15L17 18L16 18L16 24L17 24L17 25L16 25L16 27L17 27L17 28L15 28L15 29L14 29L14 31L13 31L13 32L14 32L14 31L15 31L15 33L13 33L13 34L11 34L11 35L13 35L13 34L14 34L14 36L13 36L13 37L12 37L12 38L13 38L13 39L11 39L11 40L10 40L10 37L11 37L11 36L9 36L9 35L8 35L8 37L7 37L7 38L5 38L5 40L6 40L6 41L7 41L7 42L6 42L6 43L5 43L5 44L6 44L6 45L7 45L7 44L6 44L6 43L7 43L7 42L8 42L8 44L9 44L9 42L11 42L11 43L10 43L10 44L11 44L11 45L12 45L12 44L11 44L11 43L12 43L12 42L13 42L13 41L12 41L12 40L13 40L13 39L14 39L14 40L15 40L15 41L14 41L14 42L15 42L15 43L13 43L13 44L15 44L15 45L13 45L13 47L12 47L12 48L13 48L13 49L14 49L14 48L15 48L15 50L18 50L18 51L19 51L19 50L20 50L20 49L21 49L21 50L22 50L22 49L24 49L24 47L23 47L23 46L22 46L22 40L21 40L21 37L22 37L22 38L24 38L24 39L23 39L23 44L24 44L24 45L25 45L25 44L27 44L27 42L28 42L28 41L29 41L29 43L31 43L31 45L32 45L32 44L33 44L33 45L34 45L34 44L33 44L33 42L32 42L32 41L31 41L31 40L32 40L32 39L33 39L33 36L23 36L23 34L22 34L22 33L24 33L24 32L22 32L22 31L23 31L23 30L24 30L24 31L26 31L26 33L25 33L25 34L24 34L24 35L25 35L25 34L26 34L26 35L28 35L28 34L26 34L26 33L28 33L28 32L29 32L29 33L30 33L30 32L31 32L31 33L32 33L32 32L36 32L36 33L37 33L37 31L32 31L32 32L31 32L31 26L32 26L32 27L33 27L33 28L32 28L32 30L33 30L33 29L34 29L34 28L35 28L35 30L36 30L36 29L37 29L37 30L42 30L42 29L40 29L40 28L39 28L39 27L38 27L38 29L37 29L37 28L35 28L35 27L34 27L34 26L32 26L32 25L33 25L33 24L32 24L32 23L33 23L33 22L32 22L32 20L33 20L33 21L35 21L35 18L32 18L32 19L31 19L31 22L30 22L30 23L31 23L31 26L29 26L29 24L26 24L26 25L25 25L25 23L26 23L26 22L29 22L29 21L30 21L30 17L31 17L31 16L28 16L28 15L29 15L29 14L30 14L30 13L29 13L29 14L27 14L27 13L25 13L25 14L24 14L24 16L25 16L25 15L26 15L26 14L27 14L27 16L26 16L26 17L27 17L27 18L24 18L24 17L22 17L22 18L21 18L21 16L20 16L20 19L19 19L19 15L20 15L20 13L19 13L19 12L18 12L18 11L17 11L17 12L18 12L18 13L19 13L19 14L18 14L18 15L17 15L17 13L16 13L16 12L15 12L15 14L13 14L13 13L14 13L14 11L13 11L13 13L12 13L12 11L11 11L11 10L14 10L14 7L13 7L13 6L12 6L12 5ZM27 5L27 8L30 8L30 5ZM19 6L19 7L20 7L20 6ZM24 6L24 7L25 7L25 6ZM28 6L28 7L29 7L29 6ZM48 6L48 7L49 7L49 6ZM20 8L20 9L19 9L19 10L21 10L21 8ZM52 9L52 11L54 11L54 10L53 10L53 9ZM30 10L30 12L31 12L31 13L32 13L32 15L33 15L33 16L32 16L32 17L34 17L34 16L35 16L35 17L36 17L36 18L37 18L37 17L38 17L38 15L39 15L39 14L38 14L38 12L36 12L36 11L35 11L35 12L34 12L34 14L36 14L36 15L33 15L33 12L32 12L32 10ZM33 10L33 11L34 11L34 10ZM55 10L55 11L56 11L56 10ZM22 12L22 13L23 13L23 12ZM51 12L51 13L50 13L50 14L49 14L49 15L50 15L50 14L51 14L51 13L52 13L52 12ZM36 13L36 14L37 14L37 15L38 15L38 14L37 14L37 13ZM15 14L15 15L16 15L16 14ZM45 15L45 16L44 16L44 18L45 18L45 16L46 16L46 15ZM3 16L3 18L4 18L4 16ZM40 16L40 17L41 17L41 16ZM50 16L50 17L48 17L48 18L49 18L49 19L50 19L50 17L51 17L51 18L52 18L52 19L53 19L53 18L54 18L54 17L53 17L53 16L52 16L52 17L51 17L51 16ZM11 18L11 19L10 19L10 21L11 21L11 20L12 20L12 18ZM13 18L13 19L14 19L14 18ZM17 18L17 24L18 24L18 23L20 23L20 22L21 22L21 23L25 23L25 22L26 22L26 21L27 21L27 19L26 19L26 21L25 21L25 22L24 22L24 21L22 21L22 22L21 22L21 19L20 19L20 22L18 22L18 18ZM22 18L22 19L23 19L23 20L25 20L25 19L24 19L24 18ZM28 18L28 19L29 19L29 18ZM33 19L33 20L34 20L34 19ZM47 19L47 21L46 21L46 22L49 22L49 21L48 21L48 19ZM50 21L50 26L55 26L55 25L54 25L54 24L56 24L56 22L54 22L54 21L53 21L53 23L52 23L52 22L51 22L51 21ZM6 22L6 23L7 23L7 22ZM36 23L36 24L37 24L37 23ZM53 23L53 24L51 24L51 25L53 25L53 24L54 24L54 23ZM20 24L20 25L17 25L17 27L19 27L19 28L18 28L18 29L16 29L16 30L15 30L15 31L16 31L16 33L15 33L15 35L16 35L16 36L19 36L19 37L17 37L17 38L18 38L18 39L16 39L16 41L15 41L15 42L17 42L17 43L16 43L16 45L15 45L15 46L14 46L14 47L16 47L16 46L17 46L17 48L16 48L16 49L17 49L17 48L18 48L18 46L19 46L19 49L18 49L18 50L19 50L19 49L20 49L20 47L21 47L21 48L23 48L23 47L22 47L22 46L21 46L21 44L20 44L20 43L21 43L21 42L20 42L20 41L19 41L19 43L18 43L18 42L17 42L17 41L18 41L18 40L20 40L20 38L19 38L19 37L20 37L20 36L19 36L19 35L20 35L20 34L21 34L21 35L22 35L22 34L21 34L21 33L20 33L20 34L19 34L19 33L18 33L18 32L19 32L19 31L20 31L20 32L21 32L21 30L23 30L23 29L24 29L24 30L26 30L26 29L24 29L24 28L23 28L23 27L24 27L24 26L25 26L25 28L26 28L26 26L27 26L27 25L26 25L26 26L25 26L25 25L24 25L24 24L23 24L23 25L22 25L22 26L21 26L21 24ZM13 25L13 26L14 26L14 27L15 27L15 25ZM10 26L10 27L11 27L11 26ZM19 26L19 27L20 27L20 26ZM22 26L22 27L23 27L23 26ZM41 26L41 27L42 27L42 28L43 28L43 27L42 27L42 26ZM5 27L5 30L8 30L8 27ZM27 27L27 30L30 30L30 27ZM47 27L47 28L48 28L48 27ZM49 27L49 30L52 30L52 27ZM6 28L6 29L7 29L7 28ZM9 28L9 30L10 30L10 28ZM20 28L20 30L21 30L21 28ZM28 28L28 29L29 29L29 28ZM50 28L50 29L51 29L51 28ZM2 29L2 30L1 30L1 31L2 31L2 32L5 32L5 33L6 33L6 34L7 34L7 33L10 33L10 32L7 32L7 31L6 31L6 32L5 32L5 31L4 31L4 30L3 30L3 29ZM18 30L18 31L17 31L17 32L18 32L18 31L19 31L19 30ZM27 31L27 32L28 32L28 31ZM38 31L38 32L39 32L39 31ZM50 31L50 32L49 32L49 33L50 33L50 32L51 32L51 31ZM6 32L6 33L7 33L7 32ZM17 33L17 35L19 35L19 34L18 34L18 33ZM33 33L33 35L34 35L34 36L35 36L35 37L34 37L34 38L35 38L35 37L37 37L37 38L38 38L38 37L37 37L37 36L38 36L38 35L36 35L36 36L35 36L35 34L34 34L34 33ZM2 34L2 35L3 35L3 34ZM30 34L30 35L32 35L32 34ZM49 34L49 35L50 35L50 36L51 36L51 35L50 35L50 34ZM44 35L44 36L45 36L45 35ZM52 35L52 36L53 36L53 35ZM14 36L14 37L13 37L13 38L15 38L15 36ZM8 37L8 38L9 38L9 37ZM24 37L24 38L25 38L25 39L24 39L24 42L25 42L25 43L24 43L24 44L25 44L25 43L26 43L26 42L27 42L27 41L26 41L26 42L25 42L25 39L26 39L26 40L27 40L27 39L26 39L26 38L27 38L27 37ZM53 37L53 38L52 38L52 39L53 39L53 40L55 40L55 37ZM29 38L29 39L28 39L28 40L29 40L29 39L30 39L30 38ZM2 39L2 40L3 40L3 39ZM6 39L6 40L7 40L7 41L8 41L8 42L9 42L9 41L8 41L8 39ZM30 41L30 42L31 42L31 41ZM54 41L54 42L55 42L55 41ZM0 42L0 43L1 43L1 42ZM34 42L34 43L35 43L35 42ZM37 42L37 44L36 44L36 45L35 45L35 46L34 46L34 47L35 47L35 46L36 46L36 47L37 47L37 45L41 45L41 44L42 44L42 43L41 43L41 44L39 44L39 43L40 43L40 42L39 42L39 43L38 43L38 42ZM49 43L49 44L50 44L50 45L51 45L51 44L50 44L50 43ZM17 44L17 45L19 45L19 44ZM28 44L28 45L30 45L30 44ZM10 46L10 47L11 47L11 46ZM27 46L27 47L28 47L28 46ZM29 46L29 47L32 47L32 46ZM40 46L40 47L38 47L38 48L39 48L39 49L40 49L40 50L41 50L41 51L40 51L40 52L38 52L38 53L37 53L37 51L36 51L36 52L35 52L35 50L36 50L36 49L37 49L37 50L38 50L38 51L39 51L39 50L38 50L38 49L37 49L37 48L35 48L35 49L34 49L34 50L33 50L33 51L34 51L34 52L35 52L35 54L34 54L34 55L35 55L35 54L36 54L36 55L38 55L38 54L39 54L39 53L40 53L40 52L42 52L42 53L43 53L43 50L41 50L41 49L42 49L42 48L41 48L41 46ZM49 46L49 47L50 47L50 48L51 48L51 47L50 47L50 46ZM53 46L53 47L54 47L54 46ZM8 48L8 49L9 49L9 51L10 51L10 49L9 49L9 48ZM53 48L53 53L54 53L54 52L55 52L55 49L54 49L54 48ZM27 49L27 52L30 52L30 49ZM49 49L49 52L52 52L52 49ZM28 50L28 51L29 51L29 50ZM50 50L50 51L51 51L51 50ZM16 51L16 52L17 52L17 53L16 53L16 54L18 54L18 53L19 53L19 52L17 52L17 51ZM25 52L25 53L26 53L26 54L27 54L27 53L26 53L26 52ZM36 53L36 54L37 54L37 53ZM29 54L29 56L30 56L30 55L31 55L31 54ZM12 55L12 56L13 56L13 55ZM43 55L43 56L44 56L44 55ZM55 56L55 57L56 57L56 56ZM0 0L0 7L7 7L7 0ZM1 1L1 6L6 6L6 1ZM2 2L2 5L5 5L5 2ZM50 0L50 7L57 7L57 0ZM51 1L51 6L56 6L56 1ZM52 2L52 5L55 5L55 2ZM0 50L0 57L7 57L7 50ZM1 51L1 56L6 56L6 51ZM2 52L2 55L5 55L5 52Z" fill="#000000"/></g></g></svg>
