<?xml version="1.0" encoding="UTF-8"?>
<svg xmlns="http://www.w3.org/2000/svg" version="1.1" width="300" height="300" viewBox="0 0 300 300"><rect x="0" y="0" width="300" height="300" fill="#fefefe"/><g transform="scale(4.615)"><g transform="translate(4,4)"><path fill-rule="evenodd" d="M9 0L9 1L8 1L8 2L9 2L9 1L10 1L10 0ZM13 0L13 1L11 1L11 2L10 2L10 7L11 7L11 8L6 8L6 9L5 9L5 8L0 8L0 9L5 9L5 11L4 11L4 10L0 10L0 11L2 11L2 12L1 12L1 13L0 13L0 14L1 14L1 15L0 15L0 17L1 17L1 15L2 15L2 16L3 16L3 17L2 17L2 19L1 19L1 18L0 18L0 20L1 20L1 21L0 21L0 22L1 22L1 23L2 23L2 24L3 24L3 26L4 26L4 29L3 29L3 30L2 30L2 31L3 31L3 30L4 30L4 31L9 31L9 32L8 32L8 33L7 33L7 32L6 32L6 33L7 33L7 34L6 34L6 35L7 35L7 36L6 36L6 37L7 37L7 36L9 36L9 37L10 37L10 35L8 35L8 34L11 34L11 38L10 38L10 39L9 39L9 40L5 40L5 39L4 39L4 38L5 38L5 34L4 34L4 35L2 35L2 34L3 34L3 33L5 33L5 32L2 32L2 33L0 33L0 35L2 35L2 36L1 36L1 37L0 37L0 38L1 38L1 39L0 39L0 44L1 44L1 45L2 45L2 44L4 44L4 43L3 43L3 42L5 42L5 45L7 45L7 46L5 46L5 47L3 47L3 46L2 46L2 47L1 47L1 46L0 46L0 48L5 48L5 47L7 47L7 48L6 48L6 49L8 49L8 51L9 51L9 52L8 52L8 57L12 57L12 56L14 56L14 57L15 57L15 55L16 55L16 56L17 56L17 57L19 57L19 56L17 56L17 54L18 54L18 55L20 55L20 54L19 54L19 53L20 53L20 52L21 52L21 50L26 50L26 52L24 52L24 53L21 53L21 55L23 55L23 57L26 57L26 56L27 56L27 57L29 57L29 56L30 56L30 57L31 57L31 56L35 56L35 57L39 57L39 56L40 56L40 55L41 55L41 56L42 56L42 55L43 55L43 57L44 57L44 54L45 54L45 53L47 53L47 51L46 51L46 52L45 52L45 51L44 51L44 50L45 50L45 49L44 49L44 48L43 48L43 47L44 47L44 46L43 46L43 45L44 45L44 43L45 43L45 42L44 42L44 40L45 40L45 41L47 41L47 39L49 39L49 41L48 41L48 42L47 42L47 43L46 43L46 44L45 44L45 45L47 45L47 44L48 44L48 45L50 45L50 46L45 46L45 48L46 48L46 47L47 47L47 48L48 48L48 49L47 49L47 50L48 50L48 54L47 54L47 55L48 55L48 57L49 57L49 56L50 56L50 57L52 57L52 55L51 55L51 53L52 53L52 54L53 54L53 55L54 55L54 56L53 56L53 57L54 57L54 56L55 56L55 57L56 57L56 56L55 56L55 53L56 53L56 51L54 51L54 50L57 50L57 48L56 48L56 46L57 46L57 43L56 43L56 41L55 41L55 39L57 39L57 37L55 37L55 35L56 35L56 36L57 36L57 35L56 35L56 34L57 34L57 32L56 32L56 30L57 30L57 29L56 29L56 27L55 27L55 26L57 26L57 25L56 25L56 22L57 22L57 20L56 20L56 22L55 22L55 23L53 23L53 21L51 21L51 20L52 20L52 19L53 19L53 20L55 20L55 19L56 19L56 18L57 18L57 17L56 17L56 16L57 16L57 15L56 15L56 14L57 14L57 13L56 13L56 14L55 14L55 15L53 15L53 13L54 13L54 12L55 12L55 11L56 11L56 8L55 8L55 10L54 10L54 11L51 11L51 10L53 10L53 9L54 9L54 8L53 8L53 9L52 9L52 8L51 8L51 10L49 10L49 9L50 9L50 8L49 8L49 6L48 6L48 7L47 7L47 5L48 5L48 0L45 0L45 2L44 2L44 3L43 3L43 4L40 4L40 5L39 5L39 6L38 6L38 4L39 4L39 3L42 3L42 2L43 2L43 0L41 0L41 1L40 1L40 0L39 0L39 1L38 1L38 0L37 0L37 1L38 1L38 4L37 4L37 3L36 3L36 0L35 0L35 1L33 1L33 2L32 2L32 3L31 3L31 0L29 0L29 2L28 2L28 3L30 3L30 4L26 4L26 3L23 3L23 4L24 4L24 5L23 5L23 6L22 6L22 4L19 4L19 3L20 3L20 2L19 2L19 1L20 1L20 0L19 0L19 1L17 1L17 2L18 2L18 3L17 3L17 6L16 6L16 7L15 7L15 6L14 6L14 7L15 7L15 8L16 8L16 9L15 9L15 10L14 10L14 8L13 8L13 4L14 4L14 2L15 2L15 3L16 3L16 2L15 2L15 1L14 1L14 0ZM21 0L21 3L22 3L22 0ZM23 0L23 2L27 2L27 1L25 1L25 0ZM13 1L13 2L14 2L14 1ZM46 1L46 2L47 2L47 1ZM11 2L11 5L12 5L12 4L13 4L13 3L12 3L12 2ZM33 2L33 3L32 3L32 4L31 4L31 8L32 8L32 10L31 10L31 11L29 11L29 12L28 12L28 13L26 13L26 12L27 12L27 11L26 11L26 12L25 12L25 10L24 10L24 9L25 9L25 8L26 8L26 4L25 4L25 8L24 8L24 6L23 6L23 8L19 8L19 9L18 9L18 10L17 10L17 9L16 9L16 10L15 10L15 11L16 11L16 12L15 12L15 13L13 13L13 12L14 12L14 11L13 11L13 10L12 10L12 9L13 9L13 8L11 8L11 9L10 9L10 10L9 10L9 9L6 9L6 10L7 10L7 11L6 11L6 12L5 12L5 13L4 13L4 11L3 11L3 13L2 13L2 15L3 15L3 16L4 16L4 17L6 17L6 18L8 18L8 20L9 20L9 17L10 17L10 22L9 22L9 25L8 25L8 23L5 23L5 24L4 24L4 26L7 26L7 25L8 25L8 26L10 26L10 25L12 25L12 27L11 27L11 28L10 28L10 29L9 29L9 31L10 31L10 30L12 30L12 29L13 29L13 30L14 30L14 29L13 29L13 28L15 28L15 29L16 29L16 30L18 30L18 29L19 29L19 30L20 30L20 32L19 32L19 31L17 31L17 33L16 33L16 32L15 32L15 33L14 33L14 34L12 34L12 33L11 33L11 34L12 34L12 38L13 38L13 39L12 39L12 40L11 40L11 39L10 39L10 40L9 40L9 41L6 41L6 42L7 42L7 43L6 43L6 44L7 44L7 43L8 43L8 44L10 44L10 45L12 45L12 47L11 47L11 48L10 48L10 46L7 46L7 47L9 47L9 48L8 48L8 49L9 49L9 48L10 48L10 50L12 50L12 51L13 51L13 52L11 52L11 53L10 53L10 52L9 52L9 55L10 55L10 54L11 54L11 55L12 55L12 54L11 54L11 53L13 53L13 55L15 55L15 54L16 54L16 53L17 53L17 52L18 52L18 51L20 51L20 50L21 50L21 49L23 49L23 47L24 47L24 49L25 49L25 48L28 48L28 47L26 47L26 45L27 45L27 46L30 46L30 45L31 45L31 48L32 48L32 50L31 50L31 53L30 53L30 54L27 54L27 53L24 53L24 54L23 54L23 55L24 55L24 56L26 56L26 54L27 54L27 56L29 56L29 55L30 55L30 56L31 56L31 54L32 54L32 53L33 53L33 55L35 55L35 56L36 56L36 54L35 54L35 52L34 52L34 50L36 50L36 52L37 52L37 53L38 53L38 54L37 54L37 56L39 56L39 55L38 55L38 54L40 54L40 53L43 53L43 54L44 54L44 53L45 53L45 52L44 52L44 53L43 53L43 51L42 51L42 50L41 50L41 48L42 48L42 49L43 49L43 50L44 50L44 49L43 49L43 48L42 48L42 47L43 47L43 46L41 46L41 44L42 44L42 42L41 42L41 41L42 41L42 39L45 39L45 38L46 38L46 39L47 39L47 38L49 38L49 39L51 39L51 38L52 38L52 40L53 40L53 41L51 41L51 42L50 42L50 43L48 43L48 44L50 44L50 43L51 43L51 46L50 46L50 47L48 47L48 48L51 48L51 46L52 46L52 47L54 47L54 45L55 45L55 46L56 46L56 43L55 43L55 44L54 44L54 45L52 45L52 44L53 44L53 43L54 43L54 42L53 42L53 41L54 41L54 40L53 40L53 39L54 39L54 38L53 38L53 35L55 35L55 34L54 34L54 33L56 33L56 32L54 32L54 31L55 31L55 30L54 30L54 29L55 29L55 28L54 28L54 29L53 29L53 30L54 30L54 31L48 31L48 27L47 27L47 26L48 26L48 25L49 25L49 24L51 24L51 25L50 25L50 26L52 26L52 25L53 25L53 23L50 23L50 22L51 22L51 21L49 21L49 22L47 22L47 21L48 21L48 20L49 20L49 19L52 19L52 17L53 17L53 18L55 18L55 16L53 16L53 15L50 15L50 14L51 14L51 12L50 12L50 11L49 11L49 10L47 10L47 9L49 9L49 8L47 8L47 9L45 9L45 8L46 8L46 6L45 6L45 5L47 5L47 3L44 3L44 6L43 6L43 8L44 8L44 10L47 10L47 12L45 12L45 11L42 11L42 10L41 10L41 9L42 9L42 8L41 8L41 7L42 7L42 5L40 5L40 6L39 6L39 8L38 8L38 6L37 6L37 7L36 7L36 5L37 5L37 4L36 4L36 5L35 5L35 4L33 4L33 3L35 3L35 2ZM8 3L8 4L9 4L9 3ZM15 4L15 5L16 5L16 4ZM32 4L32 5L33 5L33 6L32 6L32 7L33 7L33 9L34 9L34 8L35 8L35 9L37 9L37 10L36 10L36 11L35 11L35 13L37 13L37 14L38 14L38 15L39 15L39 16L38 16L38 17L37 17L37 16L35 16L35 14L33 14L33 13L34 13L34 12L33 12L33 13L32 13L32 11L33 11L33 10L32 10L32 11L31 11L31 13L30 13L30 14L29 14L29 13L28 13L28 14L29 14L29 16L28 16L28 15L27 15L27 14L26 14L26 13L24 13L24 11L23 11L23 10L22 10L22 9L21 9L21 10L22 10L22 11L20 11L20 12L19 12L19 10L20 10L20 9L19 9L19 10L18 10L18 11L17 11L17 10L16 10L16 11L17 11L17 12L16 12L16 13L15 13L15 14L14 14L14 15L12 15L12 12L9 12L9 11L8 11L8 13L10 13L10 14L8 14L8 15L7 15L7 14L6 14L6 13L7 13L7 12L6 12L6 13L5 13L5 15L7 15L7 16L6 16L6 17L8 17L8 16L9 16L9 15L10 15L10 16L11 16L11 17L12 17L12 16L13 16L13 18L11 18L11 20L14 20L14 19L13 19L13 18L15 18L15 21L16 21L16 22L14 22L14 21L13 21L13 23L12 23L12 22L11 22L11 23L10 23L10 24L12 24L12 25L13 25L13 23L14 23L14 25L17 25L17 26L15 26L15 28L16 28L16 29L18 29L18 28L17 28L17 27L18 27L18 26L20 26L20 27L22 27L22 26L23 26L23 28L24 28L24 27L25 27L25 28L26 28L26 29L23 29L23 30L25 30L25 31L21 31L21 32L20 32L20 33L19 33L19 32L18 32L18 33L17 33L17 34L18 34L18 35L19 35L19 36L17 36L17 38L18 38L18 39L17 39L17 40L16 40L16 39L15 39L15 38L16 38L16 37L15 37L15 36L16 36L16 35L15 35L15 36L13 36L13 38L14 38L14 39L13 39L13 41L11 41L11 40L10 40L10 41L9 41L9 42L8 42L8 43L10 43L10 41L11 41L11 42L12 42L12 43L13 43L13 41L14 41L14 40L16 40L16 41L17 41L17 42L18 42L18 43L15 43L15 42L14 42L14 43L15 43L15 44L16 44L16 45L17 45L17 46L15 46L15 45L14 45L14 44L13 44L13 45L14 45L14 46L15 46L15 48L14 48L14 47L13 47L13 48L12 48L12 50L14 50L14 52L13 52L13 53L14 53L14 54L15 54L15 53L16 53L16 52L17 52L17 51L15 51L15 50L16 50L16 49L17 49L17 50L20 50L20 48L21 48L21 47L23 47L23 46L25 46L25 44L27 44L27 43L28 43L28 44L29 44L29 43L30 43L30 44L31 44L31 45L32 45L32 46L33 46L33 47L35 47L35 46L33 46L33 45L32 45L32 44L33 44L33 43L34 43L34 45L37 45L37 47L36 47L36 48L34 48L34 49L33 49L33 50L34 50L34 49L36 49L36 50L38 50L38 51L40 51L40 52L41 52L41 50L38 50L38 49L39 49L39 48L41 48L41 46L40 46L40 47L39 47L39 46L38 46L38 45L39 45L39 42L40 42L40 41L39 41L39 42L38 42L38 40L39 40L39 39L38 39L38 37L40 37L40 38L43 38L43 37L44 37L44 38L45 38L45 37L44 37L44 36L45 36L45 35L46 35L46 36L48 36L48 35L50 35L50 36L49 36L49 38L50 38L50 36L51 36L51 37L52 37L52 35L53 35L53 34L52 34L52 33L54 33L54 32L52 32L52 33L51 33L51 32L50 32L50 34L48 34L48 35L47 35L47 34L45 34L45 35L44 35L44 33L43 33L43 32L45 32L45 33L46 33L46 32L45 32L45 31L47 31L47 32L48 32L48 33L49 33L49 32L48 32L48 31L47 31L47 30L46 30L46 29L47 29L47 27L46 27L46 28L45 28L45 27L44 27L44 26L45 26L45 25L46 25L46 24L47 24L47 25L48 25L48 23L47 23L47 22L45 22L45 23L46 23L46 24L45 24L45 25L44 25L44 24L43 24L43 23L44 23L44 20L45 20L45 21L46 21L46 20L47 20L47 18L50 18L50 17L51 17L51 16L50 16L50 15L49 15L49 14L50 14L50 12L49 12L49 11L48 11L48 12L49 12L49 13L47 13L47 14L44 14L44 15L42 15L42 16L41 16L41 15L39 15L39 14L43 14L43 13L44 13L44 12L43 12L43 13L39 13L39 12L41 12L41 11L40 11L40 9L39 9L39 11L38 11L38 8L35 8L35 5L33 5L33 4ZM8 5L8 7L9 7L9 5ZM18 5L18 6L17 6L17 7L16 7L16 8L17 8L17 7L18 7L18 6L19 6L19 7L20 7L20 5ZM27 5L27 8L30 8L30 5ZM11 6L11 7L12 7L12 6ZM21 6L21 7L22 7L22 6ZM28 6L28 7L29 7L29 6ZM33 6L33 7L34 7L34 6ZM40 6L40 7L41 7L41 6ZM44 6L44 7L45 7L45 6ZM23 8L23 9L24 9L24 8ZM27 9L27 10L29 10L29 9ZM11 10L11 11L12 11L12 10ZM17 12L17 13L16 13L16 16L15 16L15 15L14 15L14 17L16 17L16 21L17 21L17 20L18 20L18 19L19 19L19 20L20 20L20 21L19 21L19 22L17 22L17 24L19 24L19 25L20 25L20 26L22 26L22 25L24 25L24 24L25 24L25 25L26 25L26 26L25 26L25 27L26 27L26 26L27 26L27 25L28 25L28 26L29 26L29 21L31 21L31 22L30 22L30 23L31 23L31 24L32 24L32 26L31 26L31 28L32 28L32 30L35 30L35 28L37 28L37 27L39 27L39 28L38 28L38 29L37 29L37 30L36 30L36 31L34 31L34 32L37 32L37 33L38 33L38 35L37 35L37 34L35 34L35 33L33 33L33 32L32 32L32 31L30 31L30 32L29 32L29 33L28 33L28 32L26 32L26 31L25 31L25 32L21 32L21 33L20 33L20 34L19 34L19 33L18 33L18 34L19 34L19 35L20 35L20 36L19 36L19 37L21 37L21 38L24 38L24 37L23 37L23 36L24 36L24 34L23 34L23 33L25 33L25 35L26 35L26 33L27 33L27 36L25 36L25 38L26 38L26 37L28 37L28 38L27 38L27 39L25 39L25 40L24 40L24 39L23 39L23 40L20 40L20 42L19 42L19 41L18 41L18 40L17 40L17 41L18 41L18 42L19 42L19 45L20 45L20 46L19 46L19 47L20 47L20 46L21 46L21 45L22 45L22 46L23 46L23 45L24 45L24 44L23 44L23 45L22 45L22 44L20 44L20 42L21 42L21 43L22 43L22 42L23 42L23 43L27 43L27 42L29 42L29 41L30 41L30 40L32 40L32 41L31 41L31 42L32 42L32 43L31 43L31 44L32 44L32 43L33 43L33 42L34 42L34 43L35 43L35 44L36 44L36 43L37 43L37 42L35 42L35 40L38 40L38 39L35 39L35 40L33 40L33 39L29 39L29 38L31 38L31 37L29 37L29 36L30 36L30 34L29 34L29 33L31 33L31 35L32 35L32 34L33 34L33 36L32 36L32 37L33 37L33 38L35 38L35 36L37 36L37 37L38 37L38 35L40 35L40 34L39 34L39 33L41 33L41 32L43 32L43 31L44 31L44 30L45 30L45 28L44 28L44 30L41 30L41 31L39 31L39 32L38 32L38 30L39 30L39 29L43 29L43 26L42 26L42 25L41 25L41 24L40 24L40 22L39 22L39 21L42 21L42 20L38 20L38 19L39 19L39 17L41 17L41 16L39 16L39 17L38 17L38 18L37 18L37 17L35 17L35 16L31 16L31 18L30 18L30 19L28 19L28 18L27 18L27 17L28 17L28 16L27 16L27 15L26 15L26 14L24 14L24 13L22 13L22 12L20 12L20 14L17 14L17 13L18 13L18 12ZM52 12L52 13L53 13L53 12ZM3 13L3 15L4 15L4 13ZM21 13L21 15L23 15L23 14L22 14L22 13ZM38 13L38 14L39 14L39 13ZM30 14L30 15L31 15L31 14ZM11 15L11 16L12 16L12 15ZM17 15L17 16L16 16L16 17L17 17L17 18L19 18L19 19L20 19L20 20L21 20L21 21L22 21L22 23L23 23L23 24L24 24L24 23L23 23L23 22L24 22L24 21L25 21L25 22L26 22L26 23L25 23L25 24L28 24L28 23L27 23L27 22L28 22L28 21L26 21L26 19L27 19L27 20L28 20L28 19L27 19L27 18L26 18L26 19L25 19L25 17L22 17L22 16L21 16L21 17L22 17L22 19L23 19L23 20L24 20L24 21L22 21L22 20L21 20L21 19L20 19L20 15L19 15L19 16L18 16L18 15ZM24 15L24 16L26 16L26 17L27 17L27 16L26 16L26 15ZM44 15L44 18L43 18L43 20L44 20L44 18L45 18L45 20L46 20L46 18L47 18L47 17L48 17L48 16L49 16L49 15L48 15L48 16L47 16L47 17L46 17L46 15ZM42 16L42 17L43 17L43 16ZM32 17L32 18L33 18L33 19L30 19L30 20L31 20L31 21L32 21L32 20L33 20L33 21L34 21L34 20L35 20L35 23L34 23L34 22L33 22L33 23L32 23L32 24L33 24L33 25L37 25L37 26L38 26L38 25L40 25L40 24L37 24L37 22L38 22L38 23L39 23L39 22L38 22L38 20L36 20L36 19L35 19L35 18L33 18L33 17ZM45 17L45 18L46 18L46 17ZM4 18L4 19L2 19L2 20L3 20L3 21L4 21L4 22L5 22L5 20L7 20L7 19L5 19L5 18ZM23 18L23 19L24 19L24 18ZM41 18L41 19L42 19L42 18ZM4 19L4 20L5 20L5 19ZM6 21L6 22L7 22L7 21ZM2 22L2 23L3 23L3 22ZM19 22L19 23L20 23L20 22ZM41 22L41 23L42 23L42 22ZM15 23L15 24L16 24L16 23ZM5 24L5 25L7 25L7 24ZM20 24L20 25L21 25L21 24ZM1 25L1 26L2 26L2 25ZM32 26L32 27L33 27L33 28L35 28L35 27L36 27L36 26L34 26L34 27L33 27L33 26ZM39 26L39 27L40 27L40 26ZM41 26L41 28L42 28L42 26ZM53 26L53 27L54 27L54 26ZM0 27L0 31L1 31L1 28L2 28L2 27ZM5 27L5 30L8 30L8 27ZM12 27L12 28L11 28L11 29L12 29L12 28L13 28L13 27ZM27 27L27 30L30 30L30 27ZM49 27L49 30L52 30L52 27ZM6 28L6 29L7 29L7 28ZM19 28L19 29L22 29L22 28ZM28 28L28 29L29 29L29 28ZM50 28L50 29L51 29L51 28ZM13 31L13 32L14 32L14 31ZM9 32L9 33L10 33L10 32ZM31 32L31 33L32 33L32 32ZM21 33L21 34L20 34L20 35L21 35L21 34L22 34L22 33ZM42 34L42 35L41 35L41 36L40 36L40 37L43 37L43 36L44 36L44 35L43 35L43 34ZM50 34L50 35L52 35L52 34ZM34 35L34 36L35 36L35 35ZM42 35L42 36L43 36L43 35ZM3 36L3 37L4 37L4 36ZM1 37L1 38L2 38L2 37ZM6 38L6 39L8 39L8 38ZM19 38L19 39L20 39L20 38ZM2 39L2 40L1 40L1 41L2 41L2 40L3 40L3 41L5 41L5 40L4 40L4 39ZM27 39L27 40L28 40L28 39ZM23 41L23 42L25 42L25 41ZM26 41L26 42L27 42L27 41ZM32 41L32 42L33 42L33 41ZM43 42L43 43L44 43L44 42ZM51 42L51 43L53 43L53 42ZM40 43L40 44L41 44L41 43ZM17 44L17 45L18 45L18 44ZM17 46L17 48L18 48L18 46ZM29 47L29 48L30 48L30 47ZM38 47L38 48L37 48L37 49L38 49L38 48L39 48L39 47ZM13 48L13 49L14 49L14 48ZM15 48L15 49L16 49L16 48ZM54 48L54 49L56 49L56 48ZM27 49L27 52L30 52L30 49ZM49 49L49 52L52 52L52 49ZM28 50L28 51L29 51L29 50ZM50 50L50 51L51 51L51 50ZM22 51L22 52L23 52L23 51ZM32 51L32 52L33 52L33 51ZM38 52L38 53L39 53L39 52ZM53 52L53 53L54 53L54 52ZM41 54L41 55L42 55L42 54ZM50 55L50 56L51 56L51 55ZM20 56L20 57L21 57L21 56ZM45 56L45 57L46 57L46 56ZM0 0L0 7L7 7L7 0ZM1 1L1 6L6 6L6 1ZM2 2L2 5L5 5L5 2ZM50 0L50 7L57 7L57 0ZM51 1L51 6L56 6L56 1ZM52 2L52 5L55 5L55 2ZM0 50L0 57L7 57L7 50ZM1 51L1 56L6 56L6 51ZM2 52L2 55L5 55L5 52Z" fill="#000000"/></g></g></svg>
