<?xml version="1.0" encoding="UTF-8"?>
<svg xmlns="http://www.w3.org/2000/svg" version="1.1" width="300" height="300" viewBox="0 0 300 300"><rect x="0" y="0" width="300" height="300" fill="#fefefe"/><g transform="scale(4.615)"><g transform="translate(4,4)"><path fill-rule="evenodd" d="M8 0L8 2L10 2L10 4L11 4L11 6L10 6L10 5L9 5L9 4L8 4L8 10L4 10L4 9L3 9L3 8L0 8L0 14L1 14L1 15L0 15L0 16L2 16L2 14L4 14L4 13L5 13L5 16L4 16L4 15L3 15L3 18L2 18L2 17L0 17L0 18L1 18L1 19L0 19L0 20L2 20L2 21L0 21L0 22L2 22L2 21L4 21L4 22L3 22L3 24L2 24L2 23L0 23L0 24L2 24L2 25L3 25L3 26L2 26L2 27L3 27L3 28L4 28L4 29L3 29L3 31L1 31L1 32L2 32L2 34L3 34L3 35L4 35L4 34L5 34L5 33L4 33L4 31L7 31L7 32L6 32L6 33L7 33L7 32L8 32L8 34L6 34L6 35L8 35L8 36L4 36L4 37L7 37L7 38L5 38L5 39L3 39L3 40L4 40L4 42L5 42L5 43L3 43L3 42L1 42L1 41L2 41L2 39L1 39L1 41L0 41L0 42L1 42L1 43L0 43L0 48L5 48L5 47L7 47L7 48L6 48L6 49L8 49L8 50L9 50L9 51L8 51L8 52L9 52L9 54L8 54L8 57L12 57L12 56L9 56L9 55L14 55L14 54L15 54L15 56L16 56L16 57L17 57L17 55L18 55L18 57L19 57L19 54L18 54L18 53L19 53L19 52L18 52L18 50L19 50L19 47L20 47L20 43L19 43L19 42L20 42L20 41L21 41L21 39L22 39L22 41L23 41L23 43L22 43L22 44L23 44L23 43L24 43L24 44L25 44L25 45L26 45L26 46L23 46L23 47L25 47L25 49L26 49L26 50L25 50L25 51L24 51L24 49L23 49L23 48L22 48L22 46L21 46L21 48L22 48L22 50L23 50L23 51L24 51L24 52L21 52L21 50L20 50L20 53L21 53L21 54L20 54L20 55L21 55L21 54L23 54L23 55L22 55L22 57L25 57L25 56L26 56L26 57L28 57L28 55L29 55L29 57L33 57L33 55L34 55L34 57L35 57L35 55L37 55L37 54L38 54L38 53L39 53L39 56L40 56L40 57L42 57L42 56L43 56L43 54L42 54L42 53L41 53L41 51L42 51L42 52L44 52L44 55L46 55L46 56L44 56L44 57L46 57L46 56L48 56L48 57L50 57L50 55L49 55L49 54L52 54L52 55L53 55L53 56L51 56L51 57L54 57L54 54L53 54L53 53L55 53L55 52L56 52L56 53L57 53L57 49L56 49L56 47L57 47L57 42L56 42L56 44L55 44L55 45L54 45L54 46L53 46L53 48L51 48L51 47L52 47L52 45L53 45L53 44L54 44L54 43L55 43L55 42L54 42L54 41L57 41L57 40L54 40L54 39L55 39L55 38L57 38L57 37L55 37L55 36L56 36L56 35L57 35L57 34L56 34L56 35L55 35L55 36L54 36L54 34L53 34L53 36L51 36L51 33L50 33L50 32L52 32L52 31L53 31L53 32L54 32L54 33L56 33L56 31L57 31L57 29L55 29L55 30L56 30L56 31L55 31L55 32L54 32L54 31L53 31L53 28L54 28L54 27L55 27L55 28L56 28L56 27L57 27L57 24L56 24L56 23L57 23L57 21L56 21L56 23L55 23L55 21L54 21L54 19L55 19L55 20L56 20L56 19L57 19L57 12L55 12L55 13L56 13L56 15L55 15L55 16L56 16L56 17L54 17L54 15L53 15L53 16L52 16L52 14L53 14L53 12L54 12L54 11L55 11L55 10L56 10L56 11L57 11L57 10L56 10L56 9L57 9L57 8L55 8L55 9L54 9L54 10L53 10L53 8L49 8L49 10L50 10L50 13L49 13L49 14L48 14L48 12L49 12L49 11L48 11L48 7L49 7L49 6L48 6L48 7L47 7L47 5L48 5L48 0L42 0L42 1L41 1L41 0L38 0L38 2L37 2L37 1L35 1L35 0L34 0L34 8L32 8L32 9L31 9L31 5L32 5L32 2L31 2L31 4L30 4L30 3L29 3L29 4L26 4L26 3L27 3L27 2L28 2L28 1L29 1L29 2L30 2L30 1L33 1L33 0L30 0L30 1L29 1L29 0L28 0L28 1L27 1L27 0L24 0L24 1L23 1L23 0L20 0L20 1L18 1L18 0L16 0L16 1L15 1L15 0L14 0L14 3L13 3L13 4L12 4L12 2L13 2L13 0L12 0L12 1L11 1L11 0L10 0L10 1L9 1L9 0ZM10 1L10 2L11 2L11 1ZM16 1L16 2L15 2L15 3L14 3L14 4L15 4L15 3L16 3L16 4L17 4L17 5L16 5L16 6L15 6L15 8L16 8L16 11L15 11L15 9L14 9L14 5L13 5L13 8L12 8L12 6L11 6L11 7L10 7L10 6L9 6L9 7L10 7L10 8L9 8L9 10L8 10L8 11L6 11L6 12L5 12L5 11L4 11L4 10L3 10L3 11L2 11L2 10L1 10L1 12L5 12L5 13L6 13L6 14L7 14L7 15L6 15L6 16L5 16L5 17L6 17L6 18L4 18L4 19L2 19L2 20L4 20L4 21L5 21L5 24L4 24L4 26L3 26L3 27L4 27L4 26L5 26L5 24L8 24L8 25L6 25L6 26L9 26L9 27L10 27L10 28L11 28L11 30L10 30L10 29L9 29L9 31L8 31L8 32L9 32L9 34L8 34L8 35L9 35L9 36L8 36L8 37L9 37L9 36L11 36L11 37L12 37L12 35L13 35L13 37L14 37L14 38L15 38L15 39L14 39L14 40L13 40L13 38L12 38L12 39L11 39L11 40L10 40L10 38L7 38L7 39L6 39L6 40L5 40L5 42L8 42L8 43L6 43L6 44L8 44L8 45L6 45L6 46L7 46L7 47L9 47L9 46L10 46L10 44L11 44L11 45L16 45L16 46L14 46L14 47L13 47L13 48L10 48L10 49L9 49L9 50L13 50L13 51L12 51L12 52L11 52L11 54L12 54L12 53L14 53L14 50L15 50L15 52L17 52L17 53L18 53L18 52L17 52L17 51L16 51L16 50L18 50L18 47L16 47L16 46L17 46L17 45L16 45L16 43L17 43L17 41L16 41L16 43L15 43L15 44L14 44L14 43L12 43L12 42L10 42L10 41L14 41L14 40L17 40L17 39L18 39L18 38L17 38L17 37L18 37L18 36L20 36L20 34L23 34L23 33L22 33L22 30L23 30L23 32L24 32L24 34L26 34L26 35L28 35L28 36L25 36L25 35L23 35L23 37L22 37L22 36L21 36L21 38L20 38L20 39L21 39L21 38L22 38L22 39L23 39L23 40L24 40L24 43L25 43L25 42L26 42L26 41L25 41L25 40L26 40L26 39L27 39L27 40L28 40L28 43L30 43L30 44L27 44L27 46L26 46L26 48L27 48L27 47L28 47L28 48L31 48L31 47L30 47L30 46L31 46L31 45L30 45L30 44L31 44L31 43L32 43L32 40L33 40L33 41L34 41L34 42L35 42L35 41L36 41L36 43L35 43L35 44L33 44L33 45L32 45L32 47L33 47L33 45L34 45L34 48L33 48L33 49L32 49L32 50L31 50L31 52L32 52L32 51L33 51L33 49L34 49L34 50L35 50L35 51L34 51L34 52L35 52L35 53L34 53L34 54L35 54L35 53L36 53L36 54L37 54L37 53L38 53L38 52L39 52L39 53L40 53L40 52L39 52L39 49L40 49L40 51L41 51L41 49L42 49L42 50L43 50L43 49L44 49L44 50L45 50L45 51L47 51L47 52L48 52L48 51L47 51L47 49L44 49L44 48L45 48L45 46L44 46L44 44L45 44L45 43L47 43L47 44L46 44L46 48L47 48L47 47L48 47L48 46L49 46L49 47L50 47L50 46L51 46L51 45L52 45L52 44L53 44L53 41L54 41L54 40L52 40L52 39L53 39L53 37L54 37L54 38L55 38L55 37L54 37L54 36L53 36L53 37L52 37L52 39L51 39L51 40L48 40L48 38L47 38L47 37L46 37L46 36L45 36L45 37L46 37L46 38L47 38L47 40L48 40L48 41L46 41L46 39L45 39L45 41L46 41L46 42L44 42L44 39L43 39L43 38L44 38L44 34L45 34L45 33L46 33L46 35L47 35L47 34L48 34L48 33L47 33L47 30L48 30L48 27L47 27L47 28L46 28L46 29L45 29L45 30L44 30L44 27L46 27L46 26L47 26L47 25L48 25L48 26L49 26L49 24L47 24L47 25L46 25L46 24L45 24L45 23L44 23L44 22L45 22L45 21L44 21L44 19L45 19L45 20L46 20L46 23L49 23L49 22L50 22L50 24L51 24L51 25L50 25L50 26L52 26L52 23L54 23L54 24L53 24L53 25L54 25L54 26L55 26L55 25L56 25L56 24L55 24L55 23L54 23L54 21L53 21L53 22L52 22L52 20L53 20L53 19L54 19L54 17L53 17L53 18L51 18L51 17L52 17L52 16L51 16L51 14L52 14L52 13L50 13L50 16L51 16L51 17L50 17L50 19L51 19L51 20L49 20L49 21L48 21L48 22L47 22L47 20L48 20L48 19L49 19L49 17L48 17L48 19L47 19L47 17L46 17L46 18L45 18L45 17L44 17L44 16L45 16L45 13L46 13L46 16L47 16L47 15L48 15L48 14L47 14L47 13L46 13L46 11L47 11L47 12L48 12L48 11L47 11L47 7L46 7L46 5L47 5L47 3L46 3L46 5L44 5L44 4L45 4L45 2L47 2L47 1L42 1L42 2L40 2L40 1L39 1L39 2L40 2L40 4L39 4L39 5L38 5L38 3L37 3L37 2L35 2L35 3L36 3L36 4L35 4L35 9L34 9L34 10L33 10L33 9L32 9L32 11L31 11L31 12L30 12L30 10L31 10L31 9L30 9L30 10L28 10L28 9L27 9L27 10L25 10L25 9L26 9L26 5L24 5L24 6L23 6L23 1L21 1L21 2L22 2L22 3L19 3L19 2L18 2L18 1ZM24 1L24 4L25 4L25 1ZM17 2L17 4L18 4L18 5L17 5L17 6L16 6L16 7L17 7L17 6L18 6L18 9L17 9L17 14L15 14L15 15L14 15L14 16L13 16L13 15L12 15L12 14L13 14L13 13L12 13L12 12L13 12L13 10L12 10L12 9L11 9L11 8L10 8L10 10L9 10L9 11L11 11L11 12L6 12L6 13L10 13L10 14L9 14L9 15L12 15L12 18L11 18L11 16L8 16L8 15L7 15L7 16L6 16L6 17L7 17L7 16L8 16L8 17L10 17L10 18L11 18L11 19L10 19L10 20L11 20L11 21L12 21L12 23L11 23L11 22L10 22L10 23L11 23L11 24L10 24L10 25L11 25L11 26L12 26L12 25L13 25L13 26L14 26L14 27L15 27L15 28L13 28L13 27L11 27L11 28L13 28L13 30L11 30L11 31L9 31L9 32L14 32L14 34L15 34L15 32L16 32L16 31L17 31L17 34L16 34L16 35L14 35L14 37L15 37L15 36L16 36L16 37L17 37L17 36L18 36L18 34L20 34L20 33L19 33L19 32L18 32L18 30L15 30L15 28L16 28L16 27L15 27L15 26L16 26L16 25L17 25L17 23L18 23L18 26L19 26L19 27L18 27L18 28L19 28L19 27L20 27L20 28L21 28L21 30L19 30L19 31L20 31L20 32L21 32L21 30L22 30L22 29L23 29L23 30L24 30L24 31L25 31L25 30L26 30L26 32L27 32L27 31L29 31L29 34L28 34L28 33L27 33L27 34L28 34L28 35L31 35L31 36L30 36L30 41L29 41L29 42L30 42L30 43L31 43L31 38L34 38L34 41L35 41L35 38L36 38L36 41L37 41L37 42L38 42L38 41L39 41L39 38L40 38L40 39L41 39L41 40L40 40L40 41L41 41L41 42L40 42L40 43L44 43L44 42L42 42L42 41L41 41L41 40L42 40L42 36L43 36L43 35L42 35L42 36L41 36L41 35L40 35L40 36L39 36L39 38L38 38L38 37L37 37L37 36L38 36L38 35L39 35L39 34L38 34L38 33L39 33L39 32L40 32L40 34L42 34L42 33L43 33L43 34L44 34L44 33L45 33L45 31L46 31L46 30L45 30L45 31L44 31L44 30L43 30L43 31L42 31L42 28L43 28L43 27L44 27L44 26L46 26L46 25L45 25L45 24L44 24L44 26L43 26L43 27L41 27L41 28L40 28L40 27L39 27L39 26L40 26L40 25L41 25L41 26L42 26L42 25L43 25L43 24L42 24L42 25L41 25L41 23L43 23L43 22L44 22L44 21L43 21L43 22L42 22L42 21L41 21L41 20L42 20L42 19L44 19L44 17L43 17L43 18L42 18L42 17L41 17L41 15L42 15L42 12L43 12L43 10L45 10L45 11L46 11L46 7L45 7L45 6L44 6L44 5L43 5L43 4L44 4L44 2L43 2L43 3L41 3L41 4L42 4L42 5L41 5L41 6L40 6L40 7L41 7L41 8L40 8L40 9L41 9L41 10L42 10L42 12L41 12L41 11L40 11L40 10L38 10L38 9L37 9L37 8L39 8L39 6L38 6L38 7L37 7L37 6L36 6L36 10L34 10L34 11L32 11L32 14L33 14L33 15L31 15L31 16L30 16L30 15L29 15L29 13L30 13L30 12L29 12L29 11L28 11L28 10L27 10L27 11L28 11L28 12L27 12L27 14L26 14L26 11L22 11L22 12L25 12L25 14L24 14L24 15L25 15L25 16L26 16L26 17L27 17L27 16L26 16L26 15L27 15L27 14L28 14L28 15L29 15L29 16L30 16L30 17L28 17L28 18L30 18L30 17L31 17L31 18L32 18L32 17L33 17L33 19L31 19L31 20L32 20L32 21L33 21L33 22L30 22L30 19L29 19L29 20L28 20L28 22L27 22L27 20L26 20L26 19L27 19L27 18L24 18L24 16L22 16L22 14L20 14L20 13L21 13L21 10L22 10L22 9L23 9L23 10L24 10L24 9L25 9L25 8L22 8L22 9L21 9L21 6L22 6L22 7L23 7L23 6L22 6L22 5L20 5L20 7L19 7L19 4L18 4L18 2ZM27 5L27 8L30 8L30 5ZM42 5L42 6L41 6L41 7L42 7L42 8L43 8L43 9L42 9L42 10L43 10L43 9L44 9L44 8L45 8L45 7L44 7L44 6L43 6L43 5ZM24 6L24 7L25 7L25 6ZM28 6L28 7L29 7L29 6ZM32 6L32 7L33 7L33 6ZM42 6L42 7L43 7L43 8L44 8L44 7L43 7L43 6ZM5 8L5 9L7 9L7 8ZM20 9L20 10L19 10L19 11L18 11L18 12L19 12L19 13L18 13L18 15L19 15L19 13L20 13L20 12L19 12L19 11L20 11L20 10L21 10L21 9ZM50 9L50 10L51 10L51 9ZM14 11L14 12L15 12L15 11ZM34 11L34 12L35 12L35 13L34 13L34 15L33 15L33 17L34 17L34 18L36 18L36 19L37 19L37 18L36 18L36 15L35 15L35 14L36 14L36 12L37 12L37 13L38 13L38 15L37 15L37 16L38 16L38 18L40 18L40 19L39 19L39 20L38 20L38 22L37 22L37 21L36 21L36 20L34 20L34 19L33 19L33 21L34 21L34 22L35 22L35 23L36 23L36 24L34 24L34 23L33 23L33 24L34 24L34 26L33 26L33 25L32 25L32 23L31 23L31 25L30 25L30 23L29 23L29 22L28 22L28 23L27 23L27 22L26 22L26 23L27 23L27 25L26 25L26 26L27 26L27 25L28 25L28 26L31 26L31 25L32 25L32 27L31 27L31 30L33 30L33 29L34 29L34 31L35 31L35 32L34 32L34 34L35 34L35 33L36 33L36 35L35 35L35 36L34 36L34 38L35 38L35 37L36 37L36 38L37 38L37 41L38 41L38 38L37 38L37 37L36 37L36 35L38 35L38 34L37 34L37 33L36 33L36 31L37 31L37 32L38 32L38 31L40 31L40 32L41 32L41 33L42 33L42 31L40 31L40 30L41 30L41 29L40 29L40 28L39 28L39 29L38 29L38 28L37 28L37 30L36 30L36 29L34 29L34 27L37 27L37 26L36 26L36 24L37 24L37 25L38 25L38 26L39 26L39 25L40 25L40 24L39 24L39 23L41 23L41 22L40 22L40 19L41 19L41 18L40 18L40 15L39 15L39 12L37 12L37 11L36 11L36 12L35 12L35 11ZM51 11L51 12L52 12L52 11ZM44 12L44 13L45 13L45 12ZM1 13L1 14L2 14L2 13ZM11 13L11 14L12 14L12 13ZM40 13L40 14L41 14L41 13ZM25 14L25 15L26 15L26 14ZM15 15L15 16L16 16L16 18L15 18L15 19L14 19L14 20L17 20L17 21L18 21L18 23L19 23L19 24L20 24L20 27L21 27L21 25L22 25L22 24L23 24L23 21L22 21L22 20L23 20L23 19L22 19L22 18L21 18L21 17L20 17L20 16L21 16L21 15L20 15L20 16L19 16L19 17L18 17L18 16L17 16L17 15ZM34 15L34 17L35 17L35 15ZM43 15L43 16L44 16L44 15ZM19 17L19 18L18 18L18 19L19 19L19 20L18 20L18 21L19 21L19 20L20 20L20 21L21 21L21 20L22 20L22 19L21 19L21 20L20 20L20 17ZM6 18L6 19L5 19L5 21L7 21L7 22L6 22L6 23L7 23L7 22L8 22L8 23L9 23L9 21L7 21L7 20L9 20L9 19L7 19L7 18ZM16 18L16 19L17 19L17 18ZM6 19L6 20L7 20L7 19ZM11 19L11 20L12 20L12 21L13 21L13 19ZM24 19L24 20L25 20L25 19ZM14 21L14 22L15 22L15 21ZM35 21L35 22L36 22L36 23L37 23L37 22L36 22L36 21ZM16 22L16 23L17 23L17 22ZM20 22L20 23L21 23L21 24L22 24L22 22ZM24 22L24 23L25 23L25 22ZM38 22L38 23L39 23L39 22ZM51 22L51 23L52 23L52 22ZM13 23L13 24L14 24L14 23ZM11 24L11 25L12 25L12 24ZM15 24L15 25L14 25L14 26L15 26L15 25L16 25L16 24ZM28 24L28 25L29 25L29 24ZM54 24L54 25L55 25L55 24ZM0 25L0 26L1 26L1 25ZM24 25L24 26L23 26L23 27L22 27L22 28L23 28L23 29L24 29L24 30L25 30L25 29L24 29L24 27L25 27L25 25ZM5 27L5 30L8 30L8 27ZM27 27L27 30L30 30L30 27ZM49 27L49 30L52 30L52 27ZM1 28L1 29L2 29L2 28ZM6 28L6 29L7 29L7 28ZM28 28L28 29L29 29L29 28ZM32 28L32 29L33 29L33 28ZM50 28L50 29L51 29L51 28ZM13 30L13 31L14 31L14 30ZM37 30L37 31L38 31L38 30ZM31 31L31 32L30 32L30 34L31 34L31 35L32 35L32 34L33 34L33 33L32 33L32 32L33 32L33 31ZM49 31L49 32L50 32L50 31ZM3 33L3 34L4 34L4 33ZM12 33L12 34L13 34L13 33ZM31 33L31 34L32 34L32 33ZM49 33L49 37L50 37L50 33ZM10 34L10 35L11 35L11 34ZM1 35L1 36L0 36L0 37L1 37L1 38L2 38L2 37L3 37L3 36L2 36L2 35ZM1 36L1 37L2 37L2 36ZM24 36L24 37L25 37L25 36ZM28 36L28 37L29 37L29 36ZM31 36L31 37L32 37L32 36ZM16 38L16 39L17 39L17 38ZM24 38L24 39L26 39L26 38ZM28 38L28 39L29 39L29 38ZM7 39L7 40L6 40L6 41L7 41L7 40L8 40L8 41L10 41L10 40L9 40L9 39ZM51 40L51 41L49 41L49 42L50 42L50 44L49 44L49 43L48 43L48 44L47 44L47 45L48 45L48 44L49 44L49 45L50 45L50 44L52 44L52 40ZM9 42L9 44L10 44L10 42ZM18 43L18 44L19 44L19 43ZM37 43L37 44L36 44L36 45L35 45L35 46L36 46L36 47L37 47L37 48L36 48L36 49L37 49L37 51L35 51L35 52L36 52L36 53L37 53L37 51L38 51L38 47L37 47L37 46L38 46L38 45L37 45L37 44L39 44L39 43ZM1 44L1 47L2 47L2 45L3 45L3 47L5 47L5 46L4 46L4 44ZM40 44L40 46L41 46L41 47L40 47L40 49L41 49L41 47L42 47L42 45L43 45L43 44L42 44L42 45L41 45L41 44ZM18 45L18 46L19 46L19 45ZM29 45L29 46L28 46L28 47L29 47L29 46L30 46L30 45ZM55 45L55 47L54 47L54 48L55 48L55 47L56 47L56 45ZM43 46L43 47L44 47L44 46ZM14 47L14 48L13 48L13 50L14 50L14 49L15 49L15 50L16 50L16 47ZM34 48L34 49L35 49L35 48ZM27 49L27 52L30 52L30 49ZM49 49L49 52L52 52L52 49ZM54 49L54 50L53 50L53 51L54 51L54 52L55 52L55 51L56 51L56 49ZM28 50L28 51L29 51L29 50ZM50 50L50 51L51 51L51 50ZM9 51L9 52L10 52L10 51ZM25 51L25 53L26 53L26 51ZM45 52L45 53L46 53L46 55L48 55L48 56L49 56L49 55L48 55L48 54L49 54L49 53L46 53L46 52ZM27 53L27 55L28 55L28 53ZM31 53L31 54L30 54L30 55L33 55L33 54L32 54L32 53ZM16 54L16 55L17 55L17 54ZM24 54L24 55L26 55L26 54ZM40 54L40 56L41 56L41 54ZM55 54L55 55L57 55L57 54ZM13 56L13 57L14 57L14 56ZM20 56L20 57L21 57L21 56ZM36 56L36 57L37 57L37 56ZM56 56L56 57L57 57L57 56ZM0 0L0 7L7 7L7 0ZM1 1L1 6L6 6L6 1ZM2 2L2 5L5 5L5 2ZM50 0L50 7L57 7L57 0ZM51 1L51 6L56 6L56 1ZM52 2L52 5L55 5L55 2ZM0 50L0 57L7 57L7 50ZM1 51L1 56L6 56L6 51ZM2 52L2 55L5 55L5 52Z" fill="#000000"/></g></g></svg>
