<?xml version="1.0" encoding="UTF-8"?>
<svg xmlns="http://www.w3.org/2000/svg" version="1.1" width="300" height="300" viewBox="0 0 300 300"><rect x="0" y="0" width="300" height="300" fill="#fefefe"/><g transform="scale(4.615)"><g transform="translate(4,4)"><path fill-rule="evenodd" d="M10 0L10 2L11 2L11 3L12 3L12 2L13 2L13 4L14 4L14 2L15 2L15 3L16 3L16 2L15 2L15 1L14 1L14 2L13 2L13 1L12 1L12 2L11 2L11 0ZM17 0L17 1L18 1L18 0ZM21 0L21 2L20 2L20 1L19 1L19 2L17 2L17 4L19 4L19 5L20 5L20 7L19 7L19 6L18 6L18 7L17 7L17 6L16 6L16 7L15 7L15 5L16 5L16 4L15 4L15 5L13 5L13 6L12 6L12 4L10 4L10 3L8 3L8 4L10 4L10 5L11 5L11 6L10 6L10 7L11 7L11 6L12 6L12 7L13 7L13 10L12 10L12 8L6 8L6 9L7 9L7 10L5 10L5 8L0 8L0 10L1 10L1 12L2 12L2 10L1 10L1 9L4 9L4 10L3 10L3 11L4 11L4 10L5 10L5 13L4 13L4 12L3 12L3 13L0 13L0 18L1 18L1 21L3 21L3 22L2 22L2 24L1 24L1 23L0 23L0 24L1 24L1 25L0 25L0 26L1 26L1 27L0 27L0 28L1 28L1 29L0 29L0 30L2 30L2 31L1 31L1 32L2 32L2 33L3 33L3 34L2 34L2 35L5 35L5 34L4 34L4 33L8 33L8 34L6 34L6 35L8 35L8 34L9 34L9 35L10 35L10 37L9 37L9 38L8 38L8 36L6 36L6 37L7 37L7 38L4 38L4 37L3 37L3 38L2 38L2 36L1 36L1 34L0 34L0 36L1 36L1 37L0 37L0 38L2 38L2 39L1 39L1 42L0 42L0 43L1 43L1 44L2 44L2 45L0 45L0 48L5 48L5 47L7 47L7 48L6 48L6 49L7 49L7 48L8 48L8 51L9 51L9 52L8 52L8 57L9 57L9 55L10 55L10 56L11 56L11 57L12 57L12 56L13 56L13 57L16 57L16 56L17 56L17 57L20 57L20 56L19 56L19 55L20 55L20 54L19 54L19 53L20 53L20 52L21 52L21 51L19 51L19 50L20 50L20 49L19 49L19 48L21 48L21 47L23 47L23 49L21 49L21 50L25 50L25 51L26 51L26 52L24 52L24 53L21 53L21 54L22 54L22 55L23 55L23 57L26 57L26 56L27 56L27 57L29 57L29 56L30 56L30 57L31 57L31 56L35 56L35 57L39 57L39 56L40 56L40 55L41 55L41 57L44 57L44 54L45 54L45 55L46 55L46 54L45 54L45 53L47 53L47 56L48 56L48 57L49 57L49 56L50 56L50 57L52 57L52 55L51 55L51 53L52 53L52 54L53 54L53 55L54 55L54 56L53 56L53 57L54 57L54 56L55 56L55 57L56 57L56 56L55 56L55 53L57 53L57 52L56 52L56 50L55 50L55 48L56 48L56 49L57 49L57 48L56 48L56 46L57 46L57 45L56 45L56 44L57 44L57 43L56 43L56 41L55 41L55 39L57 39L57 37L56 37L56 34L57 34L57 32L56 32L56 30L57 30L57 28L56 28L56 26L57 26L57 25L56 25L56 22L57 22L57 20L56 20L56 22L55 22L55 23L53 23L53 22L54 22L54 21L51 21L51 20L52 20L52 19L53 19L53 20L55 20L55 19L56 19L56 18L57 18L57 17L56 17L56 16L57 16L57 15L56 15L56 14L57 14L57 12L56 12L56 10L54 10L54 11L52 11L52 10L53 10L53 9L54 9L54 8L53 8L53 9L52 9L52 8L51 8L51 9L52 9L52 10L51 10L51 11L50 11L50 8L49 8L49 9L47 9L47 10L46 10L46 11L45 11L45 9L44 9L44 7L45 7L45 8L46 8L46 7L47 7L47 5L48 5L48 0L46 0L46 1L45 1L45 2L44 2L44 3L43 3L43 4L40 4L40 5L39 5L39 6L38 6L38 4L39 4L39 3L41 3L41 2L43 2L43 0L41 0L41 1L40 1L40 0L39 0L39 1L38 1L38 0L37 0L37 1L38 1L38 2L39 2L39 3L36 3L36 0L35 0L35 1L33 1L33 2L32 2L32 0L29 0L29 1L25 1L25 0L23 0L23 1L22 1L22 0ZM8 1L8 2L9 2L9 1ZM29 1L29 2L31 2L31 3L32 3L32 4L31 4L31 8L32 8L32 10L31 10L31 11L29 11L29 9L27 9L27 11L26 11L26 12L25 12L25 10L23 10L23 13L22 13L22 12L20 12L20 11L22 11L22 10L21 10L21 9L25 9L25 8L26 8L26 4L30 4L30 3L28 3L28 2L22 2L22 3L20 3L20 2L19 2L19 4L23 4L23 5L24 5L24 4L23 4L23 3L26 3L26 4L25 4L25 8L24 8L24 6L23 6L23 8L20 8L20 11L19 11L19 12L20 12L20 14L21 14L21 13L22 13L22 14L23 14L23 15L21 15L21 16L20 16L20 18L21 18L21 19L20 19L20 21L17 21L17 18L18 18L18 19L19 19L19 17L16 17L16 16L17 16L17 15L18 15L18 14L17 14L17 13L18 13L18 12L17 12L17 13L16 13L16 11L18 11L18 10L17 10L17 9L15 9L15 7L14 7L14 6L13 6L13 7L14 7L14 10L16 10L16 11L15 11L15 13L13 13L13 15L12 15L12 13L11 13L11 12L12 12L12 11L11 11L11 12L10 12L10 14L8 14L8 13L9 13L9 12L7 12L7 11L6 11L6 12L7 12L7 13L5 13L5 14L3 14L3 17L5 17L5 19L3 19L3 18L2 18L2 17L1 17L1 18L2 18L2 19L3 19L3 21L5 21L5 22L4 22L4 23L3 23L3 25L1 25L1 26L2 26L2 30L3 30L3 31L4 31L4 32L3 32L3 33L4 33L4 32L5 32L5 31L4 31L4 30L3 30L3 28L4 28L4 24L5 24L5 22L7 22L7 23L6 23L6 24L7 24L7 25L5 25L5 26L7 26L7 25L8 25L8 26L10 26L10 27L9 27L9 28L10 28L10 29L11 29L11 30L12 30L12 31L10 31L10 30L9 30L9 31L10 31L10 32L8 32L8 31L6 31L6 32L8 32L8 33L9 33L9 34L11 34L11 35L12 35L12 36L13 36L13 37L11 37L11 38L12 38L12 40L13 40L13 38L14 38L14 42L13 42L13 45L12 45L12 46L11 46L11 45L9 45L9 47L10 47L10 46L11 46L11 47L12 47L12 50L13 50L13 51L11 51L11 52L10 52L10 53L12 53L12 55L13 55L13 52L15 52L15 51L14 51L14 50L13 50L13 47L14 47L14 46L15 46L15 49L16 49L16 50L17 50L17 51L16 51L16 53L15 53L15 54L16 54L16 53L17 53L17 52L19 52L19 51L18 51L18 50L17 50L17 49L16 49L16 48L17 48L17 47L18 47L18 48L19 48L19 46L17 46L17 45L18 45L18 44L16 44L16 43L15 43L15 44L14 44L14 42L17 42L17 43L18 43L18 42L19 42L19 43L20 43L20 44L21 44L21 45L20 45L20 47L21 47L21 45L22 45L22 46L23 46L23 47L24 47L24 46L23 46L23 45L25 45L25 48L24 48L24 49L25 49L25 50L26 50L26 49L25 49L25 48L28 48L28 47L29 47L29 48L30 48L30 47L29 47L29 44L30 44L30 43L29 43L29 44L28 44L28 43L27 43L27 42L30 42L30 40L32 40L32 41L31 41L31 42L32 42L32 43L31 43L31 44L32 44L32 45L30 45L30 46L31 46L31 47L32 47L32 49L31 49L31 53L30 53L30 54L26 54L26 53L24 53L24 54L23 54L23 55L24 55L24 56L26 56L26 55L27 55L27 56L29 56L29 55L30 55L30 56L31 56L31 54L32 54L32 53L33 53L33 54L34 54L34 55L35 55L35 56L36 56L36 54L35 54L35 51L34 51L34 50L36 50L36 52L37 52L37 53L38 53L38 54L37 54L37 56L39 56L39 55L38 55L38 54L40 54L40 53L43 53L43 54L44 54L44 53L45 53L45 52L44 52L44 53L43 53L43 52L42 52L42 50L41 50L41 48L42 48L42 49L43 49L43 50L44 50L44 51L47 51L47 53L48 53L48 50L47 50L47 49L48 49L48 48L49 48L49 47L53 47L53 46L54 46L54 45L55 45L55 46L56 46L56 45L55 45L55 44L54 44L54 45L52 45L52 44L53 44L53 43L54 43L54 42L53 42L53 41L51 41L51 42L50 42L50 43L48 43L48 44L47 44L47 45L45 45L45 44L46 44L46 43L47 43L47 42L48 42L48 41L49 41L49 39L51 39L51 38L52 38L52 40L53 40L53 35L55 35L55 34L56 34L56 32L54 32L54 31L52 31L52 32L51 32L51 33L52 33L52 34L50 34L50 32L49 32L49 31L48 31L48 29L46 29L46 30L47 30L47 31L48 31L48 32L47 32L47 33L45 33L45 32L46 32L46 31L45 31L45 28L46 28L46 27L47 27L47 28L48 28L48 26L47 26L47 25L48 25L48 24L49 24L49 23L50 23L50 26L51 26L51 25L52 25L52 26L53 26L53 27L54 27L54 26L53 26L53 24L51 24L51 23L50 23L50 22L51 22L51 21L49 21L49 20L48 20L48 21L49 21L49 23L48 23L48 24L46 24L46 25L45 25L45 22L47 22L47 21L45 21L45 20L44 20L44 18L46 18L46 19L48 19L48 18L47 18L47 15L45 15L45 14L47 14L47 13L49 13L49 12L50 12L50 14L49 14L49 15L48 15L48 16L49 16L49 17L50 17L50 18L49 18L49 19L52 19L52 17L53 17L53 18L55 18L55 17L54 17L54 16L53 16L53 15L55 15L55 14L56 14L56 12L54 12L54 13L55 13L55 14L53 14L53 15L50 15L50 14L51 14L51 12L50 12L50 11L49 11L49 12L45 12L45 11L44 11L44 9L43 9L43 8L42 8L42 9L43 9L43 11L42 11L42 10L41 10L41 12L40 12L40 11L39 11L39 9L41 9L41 7L42 7L42 6L43 6L43 7L44 7L44 6L45 6L45 7L46 7L46 6L45 6L45 4L46 4L46 5L47 5L47 3L44 3L44 6L43 6L43 5L40 5L40 6L39 6L39 7L40 7L40 8L39 8L39 9L38 9L38 8L37 8L37 7L38 7L38 6L37 6L37 7L36 7L36 5L37 5L37 4L36 4L36 5L35 5L35 4L33 4L33 3L35 3L35 2L33 2L33 3L32 3L32 2L31 2L31 1ZM46 1L46 2L47 2L47 1ZM32 4L32 5L33 5L33 6L32 6L32 7L33 7L33 9L34 9L34 8L35 8L35 9L37 9L37 10L36 10L36 12L35 12L35 14L33 14L33 13L34 13L34 12L33 12L33 13L32 13L32 11L33 11L33 10L32 10L32 11L31 11L31 13L30 13L30 14L29 14L29 13L28 13L28 12L29 12L29 11L27 11L27 12L26 12L26 13L25 13L25 12L24 12L24 13L23 13L23 14L24 14L24 15L23 15L23 16L26 16L26 17L27 17L27 18L26 18L26 19L25 19L25 17L22 17L22 16L21 16L21 17L22 17L22 18L24 18L24 19L23 19L23 20L24 20L24 21L23 21L23 22L24 22L24 21L25 21L25 22L26 22L26 23L25 23L25 24L24 24L24 23L22 23L22 21L21 21L21 23L22 23L22 24L18 24L18 23L20 23L20 22L17 22L17 21L16 21L16 20L15 20L15 21L16 21L16 22L15 22L15 23L16 23L16 24L15 24L15 25L13 25L13 24L14 24L14 21L13 21L13 20L14 20L14 19L12 19L12 18L11 18L11 15L9 15L9 16L8 16L8 15L7 15L7 14L5 14L5 15L7 15L7 16L6 16L6 17L7 17L7 16L8 16L8 17L9 17L9 16L10 16L10 18L6 18L6 19L9 19L9 20L8 20L8 21L7 21L7 20L6 20L6 21L7 21L7 22L8 22L8 24L9 24L9 23L13 23L13 24L10 24L10 26L14 26L14 27L13 27L13 28L12 28L12 29L13 29L13 31L12 31L12 32L11 32L11 34L13 34L13 36L14 36L14 35L15 35L15 36L16 36L16 34L15 34L15 33L16 33L16 32L15 32L15 31L16 31L16 29L18 29L18 30L17 30L17 31L18 31L18 32L17 32L17 33L19 33L19 34L18 34L18 35L17 35L17 39L19 39L19 40L17 40L17 41L19 41L19 42L20 42L20 41L21 41L21 42L22 42L22 43L21 43L21 44L22 44L22 45L23 45L23 43L25 43L25 44L27 44L27 45L26 45L26 47L27 47L27 45L28 45L28 44L27 44L27 43L25 43L25 41L24 41L24 40L25 40L25 39L26 39L26 40L28 40L28 39L26 39L26 38L28 38L28 37L26 37L26 38L25 38L25 36L27 36L27 34L26 34L26 35L25 35L25 33L23 33L23 34L24 34L24 36L23 36L23 35L21 35L21 34L22 34L22 33L21 33L21 34L20 34L20 32L24 32L24 30L25 30L25 31L26 31L26 33L27 33L27 31L29 31L29 32L28 32L28 33L29 33L29 34L30 34L30 36L29 36L29 37L31 37L31 38L29 38L29 39L33 39L33 40L35 40L35 42L37 42L37 43L36 43L36 44L35 44L35 43L34 43L34 42L33 42L33 41L32 41L32 42L33 42L33 43L32 43L32 44L33 44L33 43L34 43L34 45L35 45L35 46L33 46L33 45L32 45L32 47L33 47L33 48L34 48L34 49L36 49L36 50L38 50L38 51L40 51L40 52L41 52L41 50L38 50L38 49L39 49L39 48L41 48L41 46L43 46L43 47L42 47L42 48L43 48L43 49L44 49L44 50L45 50L45 49L46 49L46 48L45 48L45 49L44 49L44 48L43 48L43 47L44 47L44 46L43 46L43 45L44 45L44 43L46 43L46 42L44 42L44 41L43 41L43 40L45 40L45 39L43 39L43 40L41 40L41 42L42 42L42 44L41 44L41 45L39 45L39 44L40 44L40 43L39 43L39 42L40 42L40 41L39 41L39 42L38 42L38 40L39 40L39 39L38 39L38 37L37 37L37 36L38 36L38 33L37 33L37 32L33 32L33 33L32 33L32 32L31 32L31 33L29 33L29 32L30 32L30 31L31 31L31 29L32 29L32 31L36 31L36 30L33 30L33 29L32 29L32 28L31 28L31 26L32 26L32 27L33 27L33 28L35 28L35 29L38 29L38 28L39 28L39 27L40 27L40 26L39 26L39 27L37 27L37 28L35 28L35 27L36 27L36 26L34 26L34 27L33 27L33 26L32 26L32 24L33 24L33 25L37 25L37 26L38 26L38 25L39 25L39 24L37 24L37 22L38 22L38 21L39 21L39 22L40 22L40 24L41 24L41 28L42 28L42 26L43 26L43 28L45 28L45 27L46 27L46 26L45 26L45 27L44 27L44 26L43 26L43 25L44 25L44 20L43 20L43 21L39 21L39 20L41 20L41 18L42 18L42 19L43 19L43 18L44 18L44 14L43 14L43 13L44 13L44 11L43 11L43 13L41 13L41 14L43 14L43 15L42 15L42 16L41 16L41 15L40 15L40 14L38 14L38 13L40 13L40 12L39 12L39 11L38 11L38 9L37 9L37 8L35 8L35 5L33 5L33 4ZM8 5L8 7L9 7L9 5ZM27 5L27 8L30 8L30 5ZM21 6L21 7L22 7L22 6ZM28 6L28 7L29 7L29 6ZM33 6L33 7L34 7L34 6ZM40 6L40 7L41 7L41 6ZM48 6L48 7L49 7L49 6ZM16 7L16 8L17 8L17 7ZM55 8L55 9L56 9L56 8ZM8 9L8 10L11 10L11 9ZM13 11L13 12L14 12L14 11ZM52 12L52 13L53 13L53 12ZM15 13L15 14L14 14L14 16L12 16L12 17L13 17L13 18L14 18L14 16L16 16L16 13ZM26 13L26 14L25 14L25 15L26 15L26 16L27 16L27 17L28 17L28 16L29 16L29 14L28 14L28 13ZM31 13L31 14L30 14L30 15L31 15L31 16L32 16L32 17L33 17L33 20L32 20L32 21L31 21L31 22L30 22L30 20L31 20L31 18L30 18L30 20L29 20L29 19L28 19L28 18L27 18L27 19L26 19L26 21L28 21L28 22L27 22L27 23L28 23L28 24L25 24L25 25L26 25L26 26L25 26L25 27L26 27L26 26L27 26L27 25L28 25L28 26L29 26L29 24L30 24L30 23L31 23L31 24L32 24L32 23L33 23L33 22L34 22L34 23L35 23L35 20L34 20L34 19L36 19L36 20L37 20L37 21L38 21L38 19L39 19L39 17L41 17L41 16L39 16L39 15L38 15L38 14L36 14L36 15L35 15L35 16L33 16L33 15L31 15L31 14L32 14L32 13ZM1 14L1 16L2 16L2 14ZM26 14L26 15L27 15L27 16L28 16L28 15L27 15L27 14ZM49 15L49 16L50 16L50 15ZM35 16L35 17L37 17L37 18L38 18L38 17L39 17L39 16L38 16L38 17L37 17L37 16ZM42 16L42 17L43 17L43 16ZM45 16L45 17L46 17L46 16ZM15 17L15 18L16 18L16 17ZM21 19L21 20L22 20L22 19ZM27 19L27 20L28 20L28 19ZM9 20L9 21L8 21L8 22L11 22L11 20ZM12 21L12 22L13 22L13 21ZM29 22L29 23L30 23L30 22ZM41 22L41 23L42 23L42 24L43 24L43 23L42 23L42 22ZM22 24L22 25L20 25L20 26L22 26L22 27L19 27L19 26L18 26L18 25L15 25L15 26L16 26L16 27L14 27L14 28L13 28L13 29L16 29L16 28L18 28L18 29L20 29L20 30L19 30L19 32L20 32L20 31L23 31L23 28L24 28L24 26L22 26L22 25L23 25L23 24ZM17 26L17 27L18 27L18 26ZM5 27L5 30L8 30L8 27ZM27 27L27 30L30 30L30 27ZM49 27L49 30L52 30L52 27ZM6 28L6 29L7 29L7 28ZM21 28L21 29L22 29L22 28ZM25 28L25 29L26 29L26 28ZM28 28L28 29L29 29L29 28ZM50 28L50 29L51 29L51 28ZM54 28L54 30L55 30L55 29L56 29L56 28ZM40 29L40 30L43 30L43 32L41 32L41 33L39 33L39 34L40 34L40 35L39 35L39 37L40 37L40 38L41 38L41 39L42 39L42 38L43 38L43 37L44 37L44 38L45 38L45 37L46 37L46 36L47 36L47 34L45 34L45 35L44 35L44 33L43 33L43 32L45 32L45 31L44 31L44 29ZM38 30L38 32L39 32L39 30ZM13 31L13 32L12 32L12 33L13 33L13 34L14 34L14 31ZM48 32L48 33L49 33L49 32ZM52 32L52 33L54 33L54 34L55 34L55 33L54 33L54 32ZM33 33L33 34L32 34L32 35L33 35L33 36L32 36L32 37L33 37L33 39L35 39L35 40L38 40L38 39L35 39L35 37L33 37L33 36L34 36L34 35L33 35L33 34L35 34L35 36L37 36L37 34L35 34L35 33ZM19 34L19 35L18 35L18 36L19 36L19 37L18 37L18 38L19 38L19 39L20 39L20 38L19 38L19 37L23 37L23 38L22 38L22 39L23 39L23 40L21 40L21 41L22 41L22 42L24 42L24 41L23 41L23 40L24 40L24 39L23 39L23 38L24 38L24 37L23 37L23 36L19 36L19 35L20 35L20 34ZM42 34L42 35L41 35L41 36L40 36L40 37L41 37L41 38L42 38L42 37L41 37L41 36L44 36L44 37L45 37L45 36L44 36L44 35L43 35L43 34ZM49 34L49 35L50 35L50 36L49 36L49 37L48 37L48 38L47 38L47 39L46 39L46 40L47 40L47 39L49 39L49 38L50 38L50 36L51 36L51 37L52 37L52 35L53 35L53 34L52 34L52 35L50 35L50 34ZM15 37L15 38L16 38L16 37ZM54 38L54 39L55 39L55 38ZM2 39L2 40L4 40L4 39ZM6 39L6 40L5 40L5 41L2 41L2 44L3 44L3 45L4 45L4 46L3 46L3 47L5 47L5 46L8 46L8 43L9 43L9 44L10 44L10 42L9 42L9 39L8 39L8 40L7 40L7 39ZM15 39L15 41L16 41L16 39ZM6 40L6 41L7 41L7 42L4 42L4 43L7 43L7 42L8 42L8 41L7 41L7 40ZM10 40L10 41L11 41L11 40ZM19 40L19 41L20 41L20 40ZM26 41L26 42L27 42L27 41ZM43 42L43 43L44 43L44 42ZM51 42L51 43L50 43L50 44L51 44L51 43L53 43L53 42ZM4 44L4 45L5 45L5 44ZM6 44L6 45L7 45L7 44ZM48 44L48 45L49 45L49 46L48 46L48 47L47 47L47 46L45 46L45 47L47 47L47 48L48 48L48 47L49 47L49 46L52 46L52 45L49 45L49 44ZM36 45L36 46L35 46L35 48L36 48L36 47L37 47L37 45ZM38 45L38 46L39 46L39 47L38 47L38 48L37 48L37 49L38 49L38 48L39 48L39 47L40 47L40 46L39 46L39 45ZM1 46L1 47L2 47L2 46ZM12 46L12 47L13 47L13 46ZM10 48L10 49L9 49L9 50L10 50L10 49L11 49L11 48ZM27 49L27 52L30 52L30 49ZM49 49L49 52L52 52L52 49ZM28 50L28 51L29 51L29 50ZM50 50L50 51L51 51L51 50ZM54 50L54 51L55 51L55 50ZM32 51L32 52L33 52L33 53L34 53L34 52L33 52L33 51ZM38 52L38 53L39 53L39 52ZM53 52L53 54L54 54L54 52ZM10 54L10 55L11 55L11 54ZM17 54L17 56L18 56L18 55L19 55L19 54ZM41 54L41 55L42 55L42 56L43 56L43 55L42 55L42 54ZM15 55L15 56L16 56L16 55ZM50 55L50 56L51 56L51 55ZM45 56L45 57L46 57L46 56ZM0 0L0 7L7 7L7 0ZM1 1L1 6L6 6L6 1ZM2 2L2 5L5 5L5 2ZM50 0L50 7L57 7L57 0ZM51 1L51 6L56 6L56 1ZM52 2L52 5L55 5L55 2ZM0 50L0 57L7 57L7 50ZM1 51L1 56L6 56L6 51ZM2 52L2 55L5 55L5 52Z" fill="#000000"/></g></g></svg>
