<?xml version="1.0" encoding="UTF-8"?>
<svg xmlns="http://www.w3.org/2000/svg" version="1.1" width="300" height="300" viewBox="0 0 300 300"><rect x="0" y="0" width="300" height="300" fill="#fefefe"/><g transform="scale(4.615)"><g transform="translate(4,4)"><path fill-rule="evenodd" d="M10 0L10 2L11 2L11 4L10 4L10 3L8 3L8 4L10 4L10 5L11 5L11 4L12 4L12 3L13 3L13 4L14 4L14 2L16 2L16 3L17 3L17 4L18 4L18 5L20 5L20 7L19 7L19 6L18 6L18 7L19 7L19 8L16 8L16 7L17 7L17 6L16 6L16 7L15 7L15 5L16 5L16 4L15 4L15 5L14 5L14 8L13 8L13 6L12 6L12 7L11 7L11 6L10 6L10 7L9 7L9 5L8 5L8 7L9 7L9 8L6 8L6 9L5 9L5 8L0 8L0 10L1 10L1 9L3 9L3 10L2 10L2 12L3 12L3 11L5 11L5 10L6 10L6 11L7 11L7 12L5 12L5 13L4 13L4 14L3 14L3 13L2 13L2 14L1 14L1 12L0 12L0 14L1 14L1 15L0 15L0 18L2 18L2 19L3 19L3 18L4 18L4 20L5 20L5 21L3 21L3 20L2 20L2 21L3 21L3 25L2 25L2 24L1 24L1 22L0 22L0 25L1 25L1 26L0 26L0 39L1 39L1 36L2 36L2 37L4 37L4 38L3 38L3 39L2 39L2 40L0 40L0 41L3 41L3 42L2 42L2 43L1 43L1 44L0 44L0 45L3 45L3 46L2 46L2 47L1 47L1 46L0 46L0 48L5 48L5 47L7 47L7 48L6 48L6 49L7 49L7 48L8 48L8 44L10 44L10 45L9 45L9 49L8 49L8 51L9 51L9 52L8 52L8 57L10 57L10 56L9 56L9 53L11 53L11 54L10 54L10 55L11 55L11 54L12 54L12 55L13 55L13 53L11 53L11 52L12 52L12 51L11 51L11 50L10 50L10 48L11 48L11 49L14 49L14 48L15 48L15 49L16 49L16 48L15 48L15 47L16 47L16 46L15 46L15 45L14 45L14 44L13 44L13 43L14 43L14 42L16 42L16 41L19 41L19 42L18 42L18 43L16 43L16 45L17 45L17 49L19 49L19 50L17 50L17 51L20 51L20 52L17 52L17 53L16 53L16 51L15 51L15 50L14 50L14 51L15 51L15 53L14 53L14 55L16 55L16 56L11 56L11 57L16 57L16 56L17 56L17 57L19 57L19 55L20 55L20 54L19 54L19 55L18 55L18 54L17 54L17 53L20 53L20 52L21 52L21 51L22 51L22 52L23 52L23 51L22 51L22 50L26 50L26 52L24 52L24 53L23 53L23 54L22 54L22 53L21 53L21 54L22 54L22 55L23 55L23 56L24 56L24 57L26 57L26 56L27 56L27 57L29 57L29 56L30 56L30 57L31 57L31 56L35 56L35 57L39 57L39 56L41 56L41 57L44 57L44 56L45 56L45 57L46 57L46 56L45 56L45 55L46 55L46 54L45 54L45 53L47 53L47 51L46 51L46 50L45 50L45 49L46 49L46 48L45 48L45 49L44 49L44 48L43 48L43 47L44 47L44 46L43 46L43 45L44 45L44 44L45 44L45 45L47 45L47 43L48 43L48 42L49 42L49 43L50 43L50 44L48 44L48 46L45 46L45 47L47 47L47 48L48 48L48 49L47 49L47 50L48 50L48 54L47 54L47 55L48 55L48 57L49 57L49 56L50 56L50 57L52 57L52 55L51 55L51 53L52 53L52 54L55 54L55 53L56 53L56 52L55 52L55 51L56 51L56 50L57 50L57 48L56 48L56 46L57 46L57 45L56 45L56 44L57 44L57 43L56 43L56 41L55 41L55 39L57 39L57 35L56 35L56 34L55 34L55 32L56 32L56 33L57 33L57 32L56 32L56 30L57 30L57 29L56 29L56 27L55 27L55 26L57 26L57 25L56 25L56 22L57 22L57 19L56 19L56 16L57 16L57 15L56 15L56 14L57 14L57 13L56 13L56 8L55 8L55 10L54 10L54 11L50 11L50 12L49 12L49 10L50 10L50 8L49 8L49 6L48 6L48 7L47 7L47 5L48 5L48 0L45 0L45 2L44 2L44 3L43 3L43 4L40 4L40 5L39 5L39 6L38 6L38 4L39 4L39 3L42 3L42 2L43 2L43 0L41 0L41 1L40 1L40 0L39 0L39 1L38 1L38 0L37 0L37 1L38 1L38 4L37 4L37 3L36 3L36 0L35 0L35 1L33 1L33 2L32 2L32 0L30 0L30 1L25 1L25 0L23 0L23 2L27 2L27 3L30 3L30 4L26 4L26 3L23 3L23 4L22 4L22 5L23 5L23 6L22 6L22 8L23 8L23 6L24 6L24 9L23 9L23 10L22 10L22 11L21 11L21 10L20 10L20 8L21 8L21 4L19 4L19 3L21 3L21 1L22 1L22 0L21 0L21 1L20 1L20 0L17 0L17 2L16 2L16 1L15 1L15 0L14 0L14 2L13 2L13 0ZM8 1L8 2L9 2L9 1ZM18 1L18 2L17 2L17 3L19 3L19 1ZM30 1L30 2L31 2L31 3L32 3L32 4L31 4L31 8L32 8L32 10L31 10L31 11L29 11L29 12L28 12L28 13L27 13L27 15L26 15L26 16L24 16L24 15L25 15L25 14L26 14L26 12L27 12L27 11L26 11L26 12L25 12L25 11L24 11L24 12L25 12L25 14L23 14L23 13L22 13L22 12L20 12L20 10L19 10L19 13L20 13L20 14L19 14L19 15L17 15L17 13L18 13L18 12L17 12L17 13L16 13L16 11L18 11L18 10L17 10L17 9L16 9L16 8L14 8L14 9L13 9L13 8L11 8L11 7L10 7L10 8L11 8L11 9L6 9L6 10L7 10L7 11L8 11L8 13L5 13L5 14L8 14L8 13L9 13L9 14L11 14L11 15L10 15L10 16L11 16L11 17L9 17L9 16L8 16L8 17L6 17L6 18L5 18L5 19L6 19L6 20L7 20L7 21L5 21L5 23L4 23L4 24L5 24L5 25L3 25L3 26L1 26L1 30L3 30L3 26L5 26L5 25L6 25L6 26L8 26L8 25L9 25L9 29L10 29L10 30L9 30L9 31L10 31L10 32L7 32L7 31L6 31L6 32L7 32L7 33L6 33L6 34L7 34L7 35L6 35L6 36L4 36L4 35L5 35L5 32L4 32L4 31L2 31L2 32L1 32L1 33L2 33L2 32L3 32L3 34L2 34L2 35L3 35L3 36L4 36L4 37L6 37L6 38L5 38L5 39L6 39L6 40L8 40L8 41L4 41L4 43L3 43L3 44L4 44L4 45L6 45L6 46L7 46L7 45L6 45L6 44L8 44L8 43L9 43L9 41L10 41L10 39L9 39L9 38L10 38L10 37L11 37L11 39L12 39L12 37L11 37L11 34L12 34L12 35L13 35L13 37L16 37L16 38L15 38L15 39L14 39L14 40L13 40L13 42L12 42L12 40L11 40L11 42L10 42L10 44L12 44L12 43L13 43L13 42L14 42L14 40L15 40L15 41L16 41L16 40L19 40L19 39L20 39L20 38L17 38L17 36L18 36L18 35L19 35L19 37L23 37L23 38L22 38L22 39L21 39L21 40L20 40L20 42L19 42L19 43L20 43L20 44L19 44L19 45L20 45L20 48L19 48L19 49L20 49L20 50L21 50L21 49L23 49L23 48L24 48L24 49L25 49L25 48L30 48L30 47L29 47L29 46L30 46L30 44L32 44L32 45L31 45L31 46L32 46L32 47L31 47L31 48L32 48L32 49L31 49L31 53L30 53L30 54L27 54L27 53L26 53L26 54L25 54L25 53L24 53L24 54L23 54L23 55L24 55L24 56L26 56L26 54L27 54L27 56L29 56L29 55L30 55L30 56L31 56L31 54L32 54L32 53L33 53L33 55L35 55L35 56L36 56L36 54L35 54L35 53L33 53L33 52L32 52L32 49L33 49L33 50L34 50L34 52L35 52L35 50L36 50L36 52L37 52L37 53L38 53L38 54L37 54L37 56L39 56L39 55L38 55L38 54L40 54L40 53L41 53L41 52L40 52L40 51L39 51L39 53L38 53L38 50L41 50L41 51L42 51L42 52L43 52L43 51L42 51L42 50L41 50L41 48L42 48L42 49L43 49L43 50L44 50L44 51L45 51L45 50L44 50L44 49L43 49L43 48L42 48L42 47L43 47L43 46L41 46L41 44L42 44L42 43L39 43L39 45L38 45L38 46L41 46L41 48L39 48L39 47L38 47L38 48L37 48L37 49L38 49L38 50L36 50L36 49L35 49L35 48L36 48L36 47L37 47L37 45L36 45L36 46L35 46L35 45L34 45L34 43L37 43L37 42L35 42L35 40L38 40L38 42L39 42L39 41L41 41L41 40L42 40L42 41L43 41L43 42L46 42L46 43L45 43L45 44L46 44L46 43L47 43L47 42L48 42L48 41L49 41L49 39L52 39L52 38L53 38L53 39L54 39L54 38L53 38L53 35L55 35L55 37L56 37L56 35L55 35L55 34L54 34L54 33L52 33L52 32L53 32L53 31L52 31L52 32L51 32L51 31L50 31L50 32L49 32L49 31L48 31L48 29L46 29L46 30L47 30L47 31L48 31L48 32L43 32L43 30L44 30L44 31L45 31L45 28L46 28L46 27L47 27L47 28L48 28L48 25L49 25L49 23L50 23L50 26L53 26L53 27L54 27L54 26L53 26L53 23L55 23L55 22L56 22L56 19L55 19L55 20L53 20L53 19L52 19L52 20L51 20L51 21L49 21L49 22L47 22L47 21L48 21L48 20L47 20L47 19L48 19L48 18L47 18L47 17L50 17L50 18L49 18L49 19L50 19L50 18L55 18L55 17L53 17L53 16L52 16L52 15L51 15L51 17L50 17L50 14L51 14L51 12L50 12L50 14L49 14L49 15L48 15L48 16L46 16L46 17L45 17L45 15L44 15L44 14L47 14L47 13L49 13L49 12L48 12L48 10L47 10L47 9L49 9L49 8L47 8L47 9L46 9L46 8L44 8L44 6L45 6L45 7L46 7L46 5L47 5L47 3L44 3L44 6L43 6L43 5L40 5L40 6L39 6L39 9L38 9L38 6L37 6L37 7L36 7L36 5L37 5L37 4L36 4L36 5L35 5L35 4L33 4L33 3L32 3L32 2L31 2L31 1ZM46 1L46 2L47 2L47 1ZM34 2L34 3L35 3L35 2ZM23 4L23 5L24 5L24 4ZM25 4L25 8L26 8L26 4ZM32 4L32 5L33 5L33 6L32 6L32 7L33 7L33 9L34 9L34 8L35 8L35 9L37 9L37 10L36 10L36 12L35 12L35 13L36 13L36 14L32 14L32 11L33 11L33 10L32 10L32 11L31 11L31 13L30 13L30 14L29 14L29 13L28 13L28 14L29 14L29 16L28 16L28 15L27 15L27 16L28 16L28 17L27 17L27 18L28 18L28 19L30 19L30 20L29 20L29 21L25 21L25 20L26 20L26 19L25 19L25 17L22 17L22 16L21 16L21 17L22 17L22 18L21 18L21 19L20 19L20 17L19 17L19 16L16 16L16 13L15 13L15 10L13 10L13 9L12 9L12 10L8 10L8 11L12 11L12 13L15 13L15 14L12 14L12 15L11 15L11 16L12 16L12 18L10 18L10 19L9 19L9 17L8 17L8 20L9 20L9 25L10 25L10 24L11 24L11 23L10 23L10 20L12 20L12 21L11 21L11 22L12 22L12 24L14 24L14 25L16 25L16 24L17 24L17 25L18 25L18 26L14 26L14 27L13 27L13 28L14 28L14 30L13 30L13 29L12 29L12 28L11 28L11 27L10 27L10 28L11 28L11 29L12 29L12 30L13 30L13 31L12 31L12 32L13 32L13 33L14 33L14 35L16 35L16 34L15 34L15 33L19 33L19 34L20 34L20 33L21 33L21 35L20 35L20 36L21 36L21 35L22 35L22 33L21 33L21 32L26 32L26 35L25 35L25 33L23 33L23 34L24 34L24 36L23 36L23 37L24 37L24 38L23 38L23 39L24 39L24 40L25 40L25 39L26 39L26 40L27 40L27 41L26 41L26 42L27 42L27 43L25 43L25 44L27 44L27 45L26 45L26 47L28 47L28 46L27 46L27 45L28 45L28 44L29 44L29 43L32 43L32 44L33 44L33 43L34 43L34 42L33 42L33 41L32 41L32 40L31 40L31 41L32 41L32 42L30 42L30 40L28 40L28 39L27 39L27 38L28 38L28 37L27 37L27 32L28 32L28 33L29 33L29 34L30 34L30 36L29 36L29 37L31 37L31 38L29 38L29 39L33 39L33 40L35 40L35 39L37 39L37 38L38 38L38 37L37 37L37 36L38 36L38 33L37 33L37 32L35 32L35 30L37 30L37 29L38 29L38 28L39 28L39 27L36 27L36 26L34 26L34 27L33 27L33 26L32 26L32 24L33 24L33 25L37 25L37 26L38 26L38 25L40 25L40 24L43 24L43 25L41 25L41 26L40 26L40 27L41 27L41 28L42 28L42 27L41 27L41 26L43 26L43 27L44 27L44 28L43 28L43 29L41 29L41 30L43 30L43 29L44 29L44 28L45 28L45 27L46 27L46 26L43 26L43 25L44 25L44 20L45 20L45 21L47 21L47 20L45 20L45 19L47 19L47 18L44 18L44 15L42 15L42 16L41 16L41 15L39 15L39 14L44 14L44 12L43 12L43 13L39 13L39 12L41 12L41 11L43 11L43 10L44 10L44 11L45 11L45 12L47 12L47 10L46 10L46 9L45 9L45 10L44 10L44 8L42 8L42 7L43 7L43 6L42 6L42 7L41 7L41 6L40 6L40 7L41 7L41 11L40 11L40 10L39 10L39 11L38 11L38 9L37 9L37 8L35 8L35 5L33 5L33 4ZM45 4L45 5L46 5L46 4ZM27 5L27 8L30 8L30 5ZM28 6L28 7L29 7L29 6ZM33 6L33 7L34 7L34 6ZM51 8L51 9L52 9L52 10L53 10L53 9L54 9L54 8L53 8L53 9L52 9L52 8ZM4 9L4 10L5 10L5 9ZM27 9L27 10L29 10L29 9ZM45 10L45 11L46 11L46 10ZM13 11L13 12L14 12L14 11ZM9 12L9 13L11 13L11 12ZM33 12L33 13L34 13L34 12ZM52 12L52 13L53 13L53 15L55 15L55 14L56 14L56 13L55 13L55 12L54 12L54 13L53 13L53 12ZM21 13L21 15L23 15L23 14L22 14L22 13ZM38 13L38 14L37 14L37 15L35 15L35 16L33 16L33 15L32 15L32 14L30 14L30 15L31 15L31 16L32 16L32 17L33 17L33 18L30 18L30 19L33 19L33 20L32 20L32 21L31 21L31 22L29 22L29 23L31 23L31 24L32 24L32 23L33 23L33 22L34 22L34 23L35 23L35 20L34 20L34 19L36 19L36 20L37 20L37 21L38 21L38 23L37 23L37 24L40 24L40 22L39 22L39 21L41 21L41 20L39 20L39 21L38 21L38 19L39 19L39 17L41 17L41 16L39 16L39 15L38 15L38 14L39 14L39 13ZM54 13L54 14L55 14L55 13ZM1 15L1 17L2 17L2 18L3 18L3 17L5 17L5 16L7 16L7 15L4 15L4 16L3 16L3 17L2 17L2 15ZM14 15L14 18L12 18L12 20L13 20L13 21L12 21L12 22L13 22L13 23L14 23L14 24L16 24L16 23L14 23L14 22L16 22L16 21L17 21L17 22L20 22L20 23L18 23L18 24L19 24L19 25L20 25L20 26L18 26L18 27L16 27L16 28L15 28L15 27L14 27L14 28L15 28L15 29L16 29L16 30L17 30L17 32L19 32L19 33L20 33L20 32L19 32L19 30L20 30L20 31L24 31L24 30L23 30L23 26L22 26L22 25L24 25L24 24L25 24L25 25L26 25L26 26L25 26L25 27L24 27L24 28L25 28L25 29L26 29L26 28L25 28L25 27L26 27L26 26L28 26L28 25L29 25L29 26L30 26L30 25L29 25L29 24L28 24L28 23L27 23L27 24L25 24L25 23L26 23L26 22L25 22L25 21L24 21L24 20L23 20L23 19L24 19L24 18L22 18L22 20L20 20L20 19L19 19L19 18L17 18L17 17L15 17L15 15ZM35 16L35 17L37 17L37 18L38 18L38 17L39 17L39 16L38 16L38 17L37 17L37 16ZM42 16L42 17L43 17L43 16ZM6 18L6 19L7 19L7 18ZM15 18L15 19L16 19L16 18ZM33 18L33 19L34 19L34 18ZM41 18L41 19L42 19L42 20L44 20L44 18L43 18L43 19L42 19L42 18ZM13 19L13 20L14 20L14 19ZM18 19L18 20L17 20L17 21L20 21L20 20L19 20L19 19ZM15 20L15 21L16 21L16 20ZM33 20L33 21L34 21L34 20ZM7 21L7 22L6 22L6 23L5 23L5 24L6 24L6 25L8 25L8 23L7 23L7 22L8 22L8 21ZM13 21L13 22L14 22L14 21ZM21 21L21 23L23 23L23 24L24 24L24 23L23 23L23 22L24 22L24 21ZM51 21L51 22L50 22L50 23L53 23L53 21ZM45 22L45 23L47 23L47 25L48 25L48 23L47 23L47 22ZM6 23L6 24L7 24L7 23ZM20 24L20 25L22 25L22 24ZM27 24L27 25L28 25L28 24ZM45 24L45 25L46 25L46 24ZM12 25L12 26L13 26L13 25ZM20 26L20 27L22 27L22 26ZM31 26L31 27L32 27L32 29L33 29L33 30L35 30L35 28L33 28L33 27L32 27L32 26ZM5 27L5 30L8 30L8 27ZM27 27L27 30L30 30L30 27ZM49 27L49 30L52 30L52 27ZM6 28L6 29L7 29L7 28ZM16 28L16 29L18 29L18 30L19 30L19 29L22 29L22 28L19 28L19 29L18 29L18 28ZM28 28L28 29L29 29L29 28ZM50 28L50 29L51 29L51 28ZM54 28L54 29L53 29L53 30L55 30L55 28ZM39 29L39 30L38 30L38 32L39 32L39 30L40 30L40 29ZM10 30L10 31L11 31L11 30ZM31 30L31 31L30 31L30 32L29 32L29 31L28 31L28 32L29 32L29 33L31 33L31 31L32 31L32 34L31 34L31 35L32 35L32 34L33 34L33 36L32 36L32 37L33 37L33 36L34 36L34 35L35 35L35 36L37 36L37 34L35 34L35 33L33 33L33 32L34 32L34 31L32 31L32 30ZM13 31L13 32L14 32L14 31ZM41 32L41 33L39 33L39 34L40 34L40 35L39 35L39 37L40 37L40 38L43 38L43 37L44 37L44 38L45 38L45 37L44 37L44 36L45 36L45 35L44 35L44 33L43 33L43 32ZM48 32L48 33L49 33L49 32ZM50 32L50 34L48 34L48 35L50 35L50 36L49 36L49 38L47 38L47 39L46 39L46 40L45 40L45 39L44 39L44 40L43 40L43 41L44 41L44 40L45 40L45 41L47 41L47 39L49 39L49 38L51 38L51 37L50 37L50 36L52 36L52 35L53 35L53 34L52 34L52 33L51 33L51 32ZM7 33L7 34L8 34L8 33ZM9 33L9 34L11 34L11 33ZM3 34L3 35L4 35L4 34ZM17 34L17 35L18 35L18 34ZM42 34L42 35L41 35L41 36L40 36L40 37L43 37L43 36L44 36L44 35L43 35L43 34ZM50 34L50 35L52 35L52 34ZM7 35L7 36L6 36L6 37L7 37L7 38L6 38L6 39L7 39L7 38L9 38L9 37L10 37L10 36L9 36L9 37L7 37L7 36L8 36L8 35ZM42 35L42 36L43 36L43 35ZM46 35L46 36L47 36L47 35ZM25 36L25 38L26 38L26 36ZM34 37L34 38L33 38L33 39L34 39L34 38L35 38L35 37ZM3 39L3 40L4 40L4 39ZM15 39L15 40L16 40L16 39ZM38 39L38 40L40 40L40 39ZM21 41L21 42L22 42L22 43L21 43L21 44L22 44L22 45L21 45L21 47L23 47L23 46L25 46L25 45L24 45L24 44L23 44L23 42L25 42L25 41L23 41L23 42L22 42L22 41ZM27 41L27 42L29 42L29 41ZM51 41L51 42L50 42L50 43L51 43L51 44L50 44L50 45L49 45L49 46L50 46L50 48L51 48L51 46L53 46L53 47L52 47L52 48L53 48L53 47L55 47L55 46L56 46L56 45L55 45L55 44L54 44L54 45L55 45L55 46L53 46L53 45L52 45L52 44L53 44L53 43L54 43L54 42L53 42L53 41ZM5 42L5 43L8 43L8 42ZM32 42L32 43L33 43L33 42ZM51 42L51 43L53 43L53 42ZM27 43L27 44L28 44L28 43ZM43 43L43 44L44 44L44 43ZM17 44L17 45L18 45L18 44ZM12 45L12 46L13 46L13 47L12 47L12 48L14 48L14 45ZM22 45L22 46L23 46L23 45ZM32 45L32 46L33 46L33 47L35 47L35 46L33 46L33 45ZM50 45L50 46L51 46L51 45ZM3 46L3 47L5 47L5 46ZM18 46L18 47L19 47L19 46ZM48 47L48 48L49 48L49 47ZM20 48L20 49L21 49L21 48ZM33 48L33 49L34 49L34 48ZM38 48L38 49L39 49L39 48ZM55 48L55 49L56 49L56 48ZM27 49L27 52L30 52L30 49ZM49 49L49 52L52 52L52 49ZM9 50L9 51L10 51L10 52L11 52L11 51L10 51L10 50ZM28 50L28 51L29 51L29 50ZM50 50L50 51L51 51L51 50ZM54 50L54 51L55 51L55 50ZM44 52L44 53L43 53L43 54L44 54L44 55L41 55L41 56L44 56L44 55L45 55L45 54L44 54L44 53L45 53L45 52ZM53 52L53 53L54 53L54 52ZM15 53L15 54L16 54L16 53ZM17 55L17 56L18 56L18 55ZM50 55L50 56L51 56L51 55ZM53 55L53 56L55 56L55 57L56 57L56 56L55 56L55 55ZM0 0L0 7L7 7L7 0ZM1 1L1 6L6 6L6 1ZM2 2L2 5L5 5L5 2ZM50 0L50 7L57 7L57 0ZM51 1L51 6L56 6L56 1ZM52 2L52 5L55 5L55 2ZM0 50L0 57L7 57L7 50ZM1 51L1 56L6 56L6 51ZM2 52L2 55L5 55L5 52Z" fill="#000000"/></g></g></svg>
