<?xml version="1.0" encoding="UTF-8"?>
<svg xmlns="http://www.w3.org/2000/svg" version="1.1" width="300" height="300" viewBox="0 0 300 300"><rect x="0" y="0" width="300" height="300" fill="#fefefe"/><g transform="scale(4.615)"><g transform="translate(4,4)"><path fill-rule="evenodd" d="M14 0L14 2L13 2L13 1L12 1L12 2L9 2L9 1L8 1L8 2L9 2L9 3L8 3L8 4L9 4L9 5L8 5L8 7L9 7L9 5L13 5L13 4L14 4L14 2L16 2L16 1L15 1L15 0ZM17 0L17 1L18 1L18 2L20 2L20 3L22 3L22 2L27 2L27 3L28 3L28 2L29 2L29 1L30 1L30 2L31 2L31 1L32 1L32 3L31 3L31 4L26 4L26 3L23 3L23 4L19 4L19 3L17 3L17 4L18 4L18 5L17 5L17 6L16 6L16 7L15 7L15 5L16 5L16 4L15 4L15 5L14 5L14 8L12 8L12 9L11 9L11 6L10 6L10 9L9 9L9 8L6 8L6 9L8 9L8 10L3 10L3 9L5 9L5 8L0 8L0 11L2 11L2 10L3 10L3 11L4 11L4 13L2 13L2 14L0 14L0 17L3 17L3 19L2 19L2 18L0 18L0 19L1 19L1 21L0 21L0 22L1 22L1 23L0 23L0 24L2 24L2 27L1 27L1 26L0 26L0 31L4 31L4 34L5 34L5 31L8 31L8 33L7 33L7 32L6 32L6 33L7 33L7 34L6 34L6 35L5 35L5 36L4 36L4 35L3 35L3 32L2 32L2 36L4 36L4 37L2 37L2 38L1 38L1 37L0 37L0 38L1 38L1 42L2 42L2 43L0 43L0 44L2 44L2 43L3 43L3 44L4 44L4 42L5 42L5 45L4 45L4 46L5 46L5 47L3 47L3 46L2 46L2 45L1 45L1 46L0 46L0 48L5 48L5 47L7 47L7 46L8 46L8 45L9 45L9 47L8 47L8 48L6 48L6 49L8 49L8 51L9 51L9 52L8 52L8 57L9 57L9 54L11 54L11 55L10 55L10 57L11 57L11 56L12 56L12 55L13 55L13 56L14 56L14 57L15 57L15 55L16 55L16 56L17 56L17 57L19 57L19 56L18 56L18 55L20 55L20 54L19 54L19 53L20 53L20 52L22 52L22 51L21 51L21 50L25 50L25 49L24 49L24 48L25 48L25 45L24 45L24 44L23 44L23 43L25 43L25 44L27 44L27 45L26 45L26 47L27 47L27 48L26 48L26 52L24 52L24 53L23 53L23 54L22 54L22 53L21 53L21 54L22 54L22 55L21 55L21 56L20 56L20 57L21 57L21 56L23 56L23 57L26 57L26 56L24 56L24 55L23 55L23 54L24 54L24 53L27 53L27 54L30 54L30 53L31 53L31 49L32 49L32 52L33 52L33 53L32 53L32 54L31 54L31 56L30 56L30 55L29 55L29 56L27 56L27 57L29 57L29 56L30 56L30 57L31 57L31 56L35 56L35 57L40 57L40 56L41 56L41 57L44 57L44 56L42 56L42 55L44 55L44 54L45 54L45 57L47 57L47 56L50 56L50 57L52 57L52 55L51 55L51 53L52 53L52 54L53 54L53 57L54 57L54 56L55 56L55 57L56 57L56 56L55 56L55 54L53 54L53 52L54 52L54 53L56 53L56 49L57 49L57 48L56 48L56 46L57 46L57 45L56 45L56 44L55 44L55 43L56 43L56 42L55 42L55 39L57 39L57 36L56 36L56 37L55 37L55 35L56 35L56 34L57 34L57 32L56 32L56 30L57 30L57 29L55 29L55 30L54 30L54 28L56 28L56 26L57 26L57 25L56 25L56 22L57 22L57 20L55 20L55 19L56 19L56 18L51 18L51 19L48 19L48 20L47 20L47 18L50 18L50 17L49 17L49 16L50 16L50 15L53 15L53 16L54 16L54 17L56 17L56 16L57 16L57 15L56 15L56 14L57 14L57 12L56 12L56 8L55 8L55 10L54 10L54 11L50 11L50 12L49 12L49 11L48 11L48 10L50 10L50 8L49 8L49 6L48 6L48 8L49 8L49 9L47 9L47 10L46 10L46 9L44 9L44 8L45 8L45 6L46 6L46 7L47 7L47 5L48 5L48 0L46 0L46 1L45 1L45 2L44 2L44 3L41 3L41 2L43 2L43 0L41 0L41 1L40 1L40 0L39 0L39 1L38 1L38 0L37 0L37 1L38 1L38 2L37 2L37 3L36 3L36 0L35 0L35 1L33 1L33 0L29 0L29 1L25 1L25 0L23 0L23 1L22 1L22 0L21 0L21 2L20 2L20 0ZM46 1L46 2L47 2L47 1ZM12 2L12 4L13 4L13 2ZM9 3L9 4L10 4L10 3ZM32 3L32 4L31 4L31 8L32 8L32 10L31 10L31 11L30 11L30 10L29 10L29 12L28 12L28 13L27 13L27 14L23 14L23 13L22 13L22 12L21 12L21 11L22 11L22 10L23 10L23 11L24 11L24 12L25 12L25 13L26 13L26 12L27 12L27 11L26 11L26 12L25 12L25 10L23 10L23 9L25 9L25 8L26 8L26 4L25 4L25 8L24 8L24 6L23 6L23 8L19 8L19 7L20 7L20 5L18 5L18 6L17 6L17 7L16 7L16 8L14 8L14 9L12 9L12 10L11 10L11 9L10 9L10 10L9 10L9 11L10 11L10 12L8 12L8 11L5 11L5 14L3 14L3 17L4 17L4 19L5 19L5 21L4 21L4 23L2 23L2 24L3 24L3 25L4 25L4 26L3 26L3 27L2 27L2 28L1 28L1 29L2 29L2 30L3 30L3 29L4 29L4 28L3 28L3 27L4 27L4 26L9 26L9 30L10 30L10 31L9 31L9 33L12 33L12 31L13 31L13 32L14 32L14 31L15 31L15 32L16 32L16 33L13 33L13 34L16 34L16 35L14 35L14 36L13 36L13 35L12 35L12 37L16 37L16 38L15 38L15 39L16 39L16 40L17 40L17 41L15 41L15 43L18 43L18 42L19 42L19 45L20 45L20 48L21 48L21 49L20 49L20 50L21 50L21 49L23 49L23 47L21 47L21 45L22 45L22 46L24 46L24 45L22 45L22 44L21 44L21 45L20 45L20 42L21 42L21 43L22 43L22 42L24 42L24 41L25 41L25 43L29 43L29 44L28 44L28 45L27 45L27 47L28 47L28 48L29 48L29 47L28 47L28 46L30 46L30 44L32 44L32 45L31 45L31 46L32 46L32 47L31 47L31 48L32 48L32 49L33 49L33 50L34 50L34 52L35 52L35 50L36 50L36 52L37 52L37 51L38 51L38 53L37 53L37 54L40 54L40 53L41 53L41 52L40 52L40 51L38 51L38 50L41 50L41 51L42 51L42 50L41 50L41 48L42 48L42 49L43 49L43 51L44 51L44 50L46 50L46 51L45 51L45 52L44 52L44 53L43 53L43 52L42 52L42 53L43 53L43 54L44 54L44 53L45 53L45 54L47 54L47 53L48 53L48 50L47 50L47 49L48 49L48 48L49 48L49 47L48 47L48 46L49 46L49 45L48 45L48 44L50 44L50 47L53 47L53 48L54 48L54 49L56 49L56 48L54 48L54 47L55 47L55 46L56 46L56 45L55 45L55 44L54 44L54 45L55 45L55 46L54 46L54 47L53 47L53 43L54 43L54 42L53 42L53 41L54 41L54 40L53 40L53 41L51 41L51 42L50 42L50 43L48 43L48 44L47 44L47 45L45 45L45 44L46 44L46 42L48 42L48 41L49 41L49 40L50 40L50 39L51 39L51 38L53 38L53 35L55 35L55 34L56 34L56 32L55 32L55 34L54 34L54 33L52 33L52 32L51 32L51 31L48 31L48 29L46 29L46 30L47 30L47 31L45 31L45 30L44 30L44 31L45 31L45 32L43 32L43 30L40 30L40 29L43 29L43 27L44 27L44 26L46 26L46 27L45 27L45 28L44 28L44 29L45 29L45 28L46 28L46 27L47 27L47 28L48 28L48 27L47 27L47 25L45 25L45 22L47 22L47 23L46 23L46 24L47 24L47 23L48 23L48 24L49 24L49 25L50 25L50 26L51 26L51 25L52 25L52 26L53 26L53 27L54 27L54 26L53 26L53 25L55 25L55 24L51 24L51 23L50 23L50 22L51 22L51 21L53 21L53 23L55 23L55 22L56 22L56 21L55 21L55 20L53 20L53 19L52 19L52 20L51 20L51 21L49 21L49 20L48 20L48 21L45 21L45 20L46 20L46 18L47 18L47 17L48 17L48 16L49 16L49 15L50 15L50 14L51 14L51 12L50 12L50 14L49 14L49 15L48 15L48 16L46 16L46 15L44 15L44 14L47 14L47 13L49 13L49 12L45 12L45 11L46 11L46 10L45 10L45 11L44 11L44 14L41 14L41 16L39 16L39 15L38 15L38 14L39 14L39 13L43 13L43 10L44 10L44 9L43 9L43 8L44 8L44 6L45 6L45 4L46 4L46 5L47 5L47 3L44 3L44 6L43 6L43 5L42 5L42 6L41 6L41 5L40 5L40 4L41 4L41 3L38 3L38 5L37 5L37 4L36 4L36 5L35 5L35 4L33 4L33 3ZM23 4L23 5L24 5L24 4ZM32 4L32 5L33 5L33 6L32 6L32 7L33 7L33 9L34 9L34 8L35 8L35 9L37 9L37 10L36 10L36 12L35 12L35 13L36 13L36 14L32 14L32 12L33 12L33 13L34 13L34 12L33 12L33 10L32 10L32 11L31 11L31 13L30 13L30 14L29 14L29 13L28 13L28 14L29 14L29 16L28 16L28 15L27 15L27 16L26 16L26 15L25 15L25 16L26 16L26 17L22 17L22 16L21 16L21 15L23 15L23 14L22 14L22 13L21 13L21 12L20 12L20 11L21 11L21 10L22 10L22 9L21 9L21 10L20 10L20 9L19 9L19 8L16 8L16 9L18 9L18 11L15 11L15 10L13 10L13 11L11 11L11 10L10 10L10 11L11 11L11 12L12 12L12 13L9 13L9 14L8 14L8 15L7 15L7 14L5 14L5 15L7 15L7 16L4 16L4 17L5 17L5 18L6 18L6 19L7 19L7 20L6 20L6 21L7 21L7 22L6 22L6 23L4 23L4 25L7 25L7 24L8 24L8 23L9 23L9 24L10 24L10 21L11 21L11 20L14 20L14 19L10 19L10 18L11 18L11 17L10 17L10 15L11 15L11 16L12 16L12 18L14 18L14 15L15 15L15 16L16 16L16 17L15 17L15 21L16 21L16 22L14 22L14 21L12 21L12 22L11 22L11 23L12 23L12 24L13 24L13 25L12 25L12 26L11 26L11 28L10 28L10 30L11 30L11 31L10 31L10 32L11 32L11 31L12 31L12 29L11 29L11 28L16 28L16 29L14 29L14 30L15 30L15 31L16 31L16 29L18 29L18 30L17 30L17 31L18 31L18 30L19 30L19 32L17 32L17 33L19 33L19 34L18 34L18 35L19 35L19 34L20 34L20 33L21 33L21 35L20 35L20 36L21 36L21 35L22 35L22 33L21 33L21 32L25 32L25 33L23 33L23 34L24 34L24 36L23 36L23 37L19 37L19 36L17 36L17 35L16 35L16 36L17 36L17 37L18 37L18 39L17 39L17 40L18 40L18 41L17 41L17 42L18 42L18 41L19 41L19 42L20 42L20 41L19 41L19 40L22 40L22 39L24 39L24 40L23 40L23 41L24 41L24 40L25 40L25 36L27 36L27 35L26 35L26 34L25 34L25 33L26 33L26 32L28 32L28 33L29 33L29 34L30 34L30 36L29 36L29 37L31 37L31 38L29 38L29 39L33 39L33 40L35 40L35 42L37 42L37 43L34 43L34 42L33 42L33 41L32 41L32 40L31 40L31 41L32 41L32 42L29 42L29 43L32 43L32 44L33 44L33 43L34 43L34 45L36 45L36 46L33 46L33 45L32 45L32 46L33 46L33 47L36 47L36 48L35 48L35 49L36 49L36 50L38 50L38 49L39 49L39 48L41 48L41 46L43 46L43 45L44 45L44 48L43 48L43 47L42 47L42 48L43 48L43 49L44 49L44 48L45 48L45 47L47 47L47 48L46 48L46 49L47 49L47 48L48 48L48 47L47 47L47 46L48 46L48 45L47 45L47 46L45 46L45 45L44 45L44 44L45 44L45 43L44 43L44 44L43 44L43 42L44 42L44 40L45 40L45 41L47 41L47 39L50 39L50 38L51 38L51 37L50 37L50 36L52 36L52 35L53 35L53 34L52 34L52 33L51 33L51 32L50 32L50 34L49 34L49 35L44 35L44 36L43 36L43 37L42 37L42 36L41 36L41 35L42 35L42 34L45 34L45 33L43 33L43 32L41 32L41 33L39 33L39 34L40 34L40 35L39 35L39 37L40 37L40 38L41 38L41 41L39 41L39 42L38 42L38 40L39 40L39 39L38 39L38 40L35 40L35 39L37 39L37 38L38 38L38 37L37 37L37 36L38 36L38 33L37 33L37 32L35 32L35 30L37 30L37 29L38 29L38 28L40 28L40 26L41 26L41 28L42 28L42 26L44 26L44 24L43 24L43 25L42 25L42 24L41 24L41 22L43 22L43 23L44 23L44 20L45 20L45 18L44 18L44 15L42 15L42 16L41 16L41 17L39 17L39 16L38 16L38 17L37 17L37 16L35 16L35 15L37 15L37 14L38 14L38 13L39 13L39 12L41 12L41 10L43 10L43 9L41 9L41 10L39 10L39 11L38 11L38 8L39 8L39 6L40 6L40 7L41 7L41 6L40 6L40 5L39 5L39 6L38 6L38 8L35 8L35 5L33 5L33 4ZM27 5L27 8L30 8L30 5ZM36 5L36 7L37 7L37 5ZM12 6L12 7L13 7L13 6ZM18 6L18 7L19 7L19 6ZM21 6L21 7L22 7L22 6ZM28 6L28 7L29 7L29 6ZM33 6L33 7L34 7L34 6ZM42 6L42 7L43 7L43 6ZM51 8L51 9L52 9L52 8ZM53 8L53 9L54 9L54 8ZM1 9L1 10L2 10L2 9ZM13 11L13 12L14 12L14 11ZM6 12L6 13L7 13L7 12ZM15 12L15 13L12 13L12 14L15 14L15 13L16 13L16 16L17 16L17 13L18 13L18 12L17 12L17 13L16 13L16 12ZM19 12L19 13L20 13L20 14L19 14L19 15L18 15L18 16L20 16L20 18L19 18L19 19L17 19L17 20L16 20L16 21L17 21L17 22L18 22L18 21L17 21L17 20L20 20L20 21L19 21L19 22L20 22L20 23L18 23L18 24L21 24L21 25L20 25L20 27L21 27L21 28L22 28L22 29L20 29L20 30L21 30L21 31L23 31L23 28L24 28L24 27L23 27L23 26L22 26L22 27L21 27L21 25L24 25L24 24L25 24L25 25L26 25L26 26L25 26L25 27L26 27L26 26L27 26L27 25L28 25L28 26L30 26L30 25L29 25L29 23L28 23L28 22L29 22L29 19L28 19L28 18L27 18L27 17L28 17L28 16L27 16L27 17L26 17L26 21L27 21L27 24L25 24L25 23L26 23L26 22L25 22L25 21L24 21L24 20L23 20L23 19L24 19L24 18L23 18L23 19L22 19L22 20L20 20L20 19L21 19L21 18L22 18L22 17L21 17L21 16L20 16L20 15L21 15L21 13L20 13L20 12ZM52 12L52 13L53 13L53 12ZM54 12L54 15L55 15L55 14L56 14L56 12ZM30 14L30 15L31 15L31 16L32 16L32 17L31 17L31 18L30 18L30 20L31 20L31 19L33 19L33 18L34 18L34 19L36 19L36 20L37 20L37 21L38 21L38 22L37 22L37 24L39 24L39 25L38 25L38 26L37 26L37 25L33 25L33 24L32 24L32 23L35 23L35 21L33 21L33 20L32 20L32 21L31 21L31 22L30 22L30 23L31 23L31 24L32 24L32 26L31 26L31 27L32 27L32 30L31 30L31 31L30 31L30 32L29 32L29 33L31 33L31 32L32 32L32 34L31 34L31 35L32 35L32 34L34 34L34 35L35 35L35 36L32 36L32 37L34 37L34 38L33 38L33 39L34 39L34 38L35 38L35 36L37 36L37 34L35 34L35 33L33 33L33 32L34 32L34 31L33 31L33 32L32 32L32 30L35 30L35 28L33 28L33 27L34 27L34 26L36 26L36 27L39 27L39 25L41 25L41 26L42 26L42 25L41 25L41 24L39 24L39 23L40 23L40 22L39 22L39 21L43 21L43 20L44 20L44 18L43 18L43 19L42 19L42 18L41 18L41 20L39 20L39 21L38 21L38 20L37 20L37 19L39 19L39 17L38 17L38 18L37 18L37 17L35 17L35 16L32 16L32 14ZM1 15L1 16L2 16L2 15ZM8 15L8 16L7 16L7 17L6 17L6 18L9 18L9 17L8 17L8 16L9 16L9 15ZM12 15L12 16L13 16L13 15ZM42 16L42 17L43 17L43 16ZM45 16L45 17L46 17L46 16ZM16 17L16 18L18 18L18 17ZM32 17L32 18L33 18L33 17ZM8 19L8 20L10 20L10 19ZM2 21L2 22L3 22L3 21ZM21 21L21 22L22 22L22 23L21 23L21 24L24 24L24 23L23 23L23 22L24 22L24 21ZM48 21L48 22L49 22L49 21ZM7 22L7 23L6 23L6 24L7 24L7 23L8 23L8 22ZM12 22L12 23L14 23L14 22ZM15 23L15 24L16 24L16 25L13 25L13 27L14 27L14 26L17 26L17 24L16 24L16 23ZM49 23L49 24L50 24L50 25L51 25L51 24L50 24L50 23ZM9 25L9 26L10 26L10 25ZM18 26L18 27L17 27L17 28L18 28L18 29L19 29L19 26ZM32 26L32 27L33 27L33 26ZM5 27L5 30L8 30L8 27ZM27 27L27 30L30 30L30 27ZM49 27L49 30L52 30L52 27ZM6 28L6 29L7 29L7 28ZM25 28L25 29L26 29L26 28ZM28 28L28 29L29 29L29 28ZM50 28L50 29L51 29L51 28ZM38 30L38 32L39 32L39 30ZM25 31L25 32L26 32L26 31ZM47 31L47 32L46 32L46 33L47 33L47 32L48 32L48 33L49 33L49 32L48 32L48 31ZM19 32L19 33L20 33L20 32ZM0 33L0 35L1 35L1 33ZM7 34L7 35L6 35L6 36L5 36L5 38L7 38L7 39L6 39L6 40L5 40L5 39L4 39L4 38L2 38L2 39L3 39L3 40L2 40L2 41L3 41L3 40L5 40L5 41L6 41L6 42L7 42L7 43L6 43L6 44L9 44L9 45L12 45L12 46L10 46L10 47L9 47L9 48L10 48L10 47L11 47L11 49L9 49L9 51L10 51L10 53L12 53L12 54L13 54L13 55L14 55L14 54L16 54L16 53L17 53L17 52L18 52L18 51L19 51L19 52L20 52L20 51L19 51L19 50L17 50L17 49L15 49L15 48L19 48L19 46L18 46L18 47L17 47L17 45L18 45L18 44L13 44L13 42L14 42L14 41L13 41L13 42L11 42L11 41L12 41L12 38L10 38L10 39L9 39L9 41L8 41L8 42L7 42L7 41L6 41L6 40L7 40L7 39L8 39L8 37L6 37L6 36L7 36L7 35L9 35L9 36L10 36L10 35L9 35L9 34ZM50 34L50 35L49 35L49 36L44 36L44 37L43 37L43 38L42 38L42 39L45 39L45 40L46 40L46 39L47 39L47 38L48 38L48 37L49 37L49 38L50 38L50 37L49 37L49 36L50 36L50 35L52 35L52 34ZM40 36L40 37L41 37L41 36ZM23 37L23 38L24 38L24 37ZM26 37L26 40L27 40L27 41L26 41L26 42L27 42L27 41L29 41L29 40L28 40L28 39L27 39L27 38L28 38L28 37ZM44 37L44 38L45 38L45 39L46 39L46 38L45 38L45 37ZM54 37L54 38L55 38L55 37ZM13 38L13 39L14 39L14 38ZM19 38L19 39L20 39L20 38ZM10 39L10 41L9 41L9 42L10 42L10 43L9 43L9 44L10 44L10 43L11 43L11 42L10 42L10 41L11 41L11 39ZM21 41L21 42L22 42L22 41ZM32 42L32 43L33 43L33 42ZM40 42L40 44L39 44L39 45L38 45L38 46L39 46L39 47L38 47L38 48L37 48L37 49L38 49L38 48L39 48L39 47L40 47L40 46L39 46L39 45L41 45L41 44L42 44L42 42ZM51 42L51 43L50 43L50 44L51 44L51 45L52 45L52 44L51 44L51 43L53 43L53 42ZM12 44L12 45L13 45L13 46L14 46L14 47L12 47L12 48L15 48L15 46L14 46L14 45L13 45L13 44ZM6 45L6 46L7 46L7 45ZM1 46L1 47L2 47L2 46ZM33 48L33 49L34 49L34 48ZM11 49L11 50L10 50L10 51L11 51L11 52L13 52L13 53L16 53L16 52L13 52L13 51L14 51L14 50L15 50L15 49L14 49L14 50L13 50L13 49ZM27 49L27 52L30 52L30 49ZM49 49L49 52L52 52L52 49ZM11 50L11 51L12 51L12 50ZM16 50L16 51L17 51L17 50ZM28 50L28 51L29 51L29 50ZM50 50L50 51L51 51L51 50ZM54 50L54 51L55 51L55 50ZM46 51L46 52L47 52L47 51ZM33 53L33 55L35 55L35 56L36 56L36 54L35 54L35 53ZM17 54L17 55L18 55L18 54ZM25 54L25 55L26 55L26 54ZM41 54L41 55L42 55L42 54ZM37 55L37 56L40 56L40 55ZM50 55L50 56L51 56L51 55ZM0 0L0 7L7 7L7 0ZM1 1L1 6L6 6L6 1ZM2 2L2 5L5 5L5 2ZM50 0L50 7L57 7L57 0ZM51 1L51 6L56 6L56 1ZM52 2L52 5L55 5L55 2ZM0 50L0 57L7 57L7 50ZM1 51L1 56L6 56L6 51ZM2 52L2 55L5 55L5 52Z" fill="#000000"/></g></g></svg>
