<?xml version="1.0" encoding="UTF-8"?>
<svg xmlns="http://www.w3.org/2000/svg" version="1.1" width="300" height="300" viewBox="0 0 300 300"><rect x="0" y="0" width="300" height="300" fill="#fefefe"/><g transform="scale(4.615)"><g transform="translate(4,4)"><path fill-rule="evenodd" d="M8 0L8 2L9 2L9 1L11 1L11 0ZM13 0L13 1L14 1L14 3L13 3L13 2L12 2L12 3L11 3L11 4L10 4L10 3L9 3L9 4L8 4L8 9L7 9L7 8L5 8L5 9L3 9L3 8L0 8L0 9L3 9L3 11L2 11L2 12L0 12L0 13L1 13L1 14L0 14L0 15L1 15L1 14L2 14L2 15L3 15L3 14L4 14L4 15L5 15L5 16L1 16L1 17L0 17L0 22L3 22L3 23L1 23L1 24L4 24L4 21L7 21L7 20L8 20L8 22L9 22L9 23L7 23L7 22L5 22L5 23L7 23L7 24L5 24L5 25L4 25L4 27L3 27L3 28L2 28L2 27L0 27L0 28L2 28L2 29L3 29L3 28L4 28L4 31L9 31L9 32L11 32L11 33L8 33L8 32L6 32L6 33L5 33L5 32L3 32L3 31L2 31L2 30L0 30L0 31L1 31L1 32L0 32L0 34L1 34L1 32L2 32L2 34L4 34L4 33L5 33L5 35L7 35L7 36L5 36L5 38L4 38L4 37L2 37L2 35L1 35L1 36L0 36L0 38L4 38L4 41L3 41L3 42L1 42L1 41L0 41L0 43L2 43L2 44L1 44L1 45L0 45L0 48L5 48L5 47L7 47L7 48L6 48L6 49L7 49L7 48L10 48L10 49L8 49L8 50L11 50L11 48L12 48L12 47L11 47L11 45L10 45L10 44L12 44L12 42L13 42L13 43L14 43L14 44L13 44L13 45L12 45L12 46L13 46L13 47L16 47L16 48L13 48L13 49L14 49L14 50L13 50L13 54L14 54L14 55L15 55L15 56L14 56L14 57L15 57L15 56L16 56L16 57L17 57L17 56L18 56L18 57L19 57L19 56L18 56L18 55L16 55L16 54L18 54L18 53L19 53L19 52L20 52L20 53L21 53L21 54L20 54L20 55L21 55L21 56L20 56L20 57L21 57L21 56L22 56L22 57L23 57L23 56L24 56L24 57L25 57L25 55L26 55L26 57L28 57L28 55L29 55L29 57L33 57L33 55L34 55L34 57L35 57L35 55L37 55L37 54L38 54L38 53L39 53L39 55L40 55L40 57L41 57L41 55L40 55L40 54L42 54L42 57L43 57L43 54L42 54L42 53L43 53L43 52L44 52L44 55L45 55L45 56L44 56L44 57L45 57L45 56L46 56L46 55L45 55L45 54L46 54L46 53L49 53L49 54L48 54L48 55L49 55L49 57L50 57L50 55L49 55L49 54L52 54L52 55L53 55L53 53L55 53L55 52L54 52L54 51L53 51L53 50L54 50L54 49L53 49L53 48L54 48L54 47L53 47L53 46L52 46L52 45L53 45L53 44L54 44L54 43L55 43L55 44L56 44L56 47L55 47L55 50L56 50L56 52L57 52L57 49L56 49L56 47L57 47L57 42L56 42L56 43L55 43L55 42L54 42L54 41L57 41L57 40L54 40L54 38L57 38L57 37L56 37L56 36L57 36L57 33L56 33L56 31L57 31L57 29L56 29L56 27L57 27L57 24L56 24L56 23L57 23L57 13L56 13L56 11L57 11L57 10L56 10L56 11L55 11L55 9L57 9L57 8L55 8L55 9L54 9L54 10L53 10L53 8L49 8L49 6L48 6L48 8L49 8L49 10L48 10L48 11L46 11L46 13L45 13L45 12L44 12L44 11L43 11L43 10L44 10L44 9L45 9L45 6L46 6L46 9L47 9L47 5L48 5L48 0L46 0L46 1L47 1L47 2L45 2L45 4L44 4L44 2L43 2L43 4L42 4L42 1L45 1L45 0L42 0L42 1L41 1L41 0L38 0L38 2L37 2L37 1L35 1L35 0L34 0L34 2L33 2L33 3L34 3L34 2L37 2L37 4L38 4L38 5L39 5L39 4L40 4L40 2L41 2L41 4L42 4L42 5L41 5L41 6L40 6L40 7L39 7L39 6L38 6L38 9L37 9L37 6L36 6L36 10L34 10L34 9L35 9L35 4L36 4L36 3L35 3L35 4L34 4L34 8L32 8L32 9L31 9L31 5L32 5L32 2L31 2L31 1L32 1L32 0L30 0L30 1L29 1L29 0L28 0L28 1L27 1L27 0L26 0L26 1L25 1L25 0L24 0L24 1L23 1L23 0L20 0L20 1L22 1L22 2L20 2L20 3L21 3L21 5L20 5L20 7L19 7L19 4L18 4L18 2L17 2L17 4L16 4L16 3L15 3L15 2L16 2L16 1L18 1L18 0L16 0L16 1L15 1L15 0ZM24 1L24 4L25 4L25 1ZM39 1L39 2L38 2L38 4L39 4L39 2L40 2L40 1ZM27 2L27 3L26 3L26 4L27 4L27 3L28 3L28 4L30 4L30 3L31 3L31 2L30 2L30 3L29 3L29 2ZM12 3L12 5L11 5L11 7L12 7L12 9L13 9L13 10L12 10L12 11L13 11L13 14L10 14L10 13L11 13L11 12L9 12L9 11L11 11L11 9L10 9L10 4L9 4L9 9L8 9L8 10L7 10L7 9L6 9L6 10L7 10L7 11L5 11L5 10L4 10L4 11L3 11L3 12L2 12L2 13L4 13L4 14L5 14L5 15L6 15L6 16L5 16L5 17L4 17L4 18L2 18L2 17L1 17L1 18L2 18L2 19L1 19L1 21L3 21L3 20L2 20L2 19L4 19L4 20L5 20L5 19L6 19L6 20L7 20L7 19L9 19L9 20L10 20L10 21L11 21L11 22L10 22L10 25L9 25L9 26L10 26L10 27L9 27L9 31L10 31L10 27L11 27L11 28L12 28L12 29L11 29L11 30L12 30L12 32L13 32L13 33L12 33L12 34L13 34L13 33L14 33L14 34L15 34L15 33L16 33L16 35L15 35L15 37L14 37L14 36L13 36L13 35L11 35L11 38L13 38L13 37L14 37L14 38L15 38L15 40L16 40L16 43L15 43L15 41L13 41L13 42L14 42L14 43L15 43L15 44L14 44L14 45L16 45L16 47L18 47L18 48L16 48L16 51L15 51L15 50L14 50L14 51L15 51L15 52L16 52L16 51L18 51L18 50L19 50L19 51L20 51L20 50L22 50L22 51L21 51L21 53L22 53L22 54L21 54L21 55L22 55L22 56L23 56L23 53L22 53L22 51L23 51L23 52L24 52L24 51L25 51L25 52L26 52L26 51L25 51L25 50L26 50L26 49L25 49L25 48L29 48L29 47L30 47L30 48L31 48L31 47L33 47L33 45L34 45L34 51L33 51L33 52L34 52L34 54L35 54L35 53L36 53L36 54L37 54L37 53L38 53L38 52L37 52L37 53L36 53L36 52L34 52L34 51L37 51L37 49L36 49L36 48L37 48L37 47L38 47L38 51L39 51L39 49L40 49L40 51L41 51L41 52L42 52L42 51L41 51L41 49L42 49L42 50L43 50L43 49L44 49L44 50L45 50L45 51L47 51L47 52L48 52L48 51L47 51L47 49L46 49L46 48L47 48L47 46L48 46L48 45L47 45L47 44L48 44L48 43L49 43L49 44L50 44L50 45L49 45L49 47L50 47L50 46L51 46L51 45L52 45L52 44L53 44L53 41L54 41L54 40L53 40L53 39L51 39L51 40L50 40L50 37L52 37L52 38L54 38L54 36L56 36L56 33L53 33L53 31L52 31L52 32L50 32L50 31L49 31L49 32L50 32L50 33L49 33L49 34L48 34L48 33L46 33L46 32L47 32L47 30L48 30L48 28L46 28L46 29L44 29L44 28L42 28L42 31L40 31L40 30L41 30L41 29L40 29L40 28L41 28L41 27L40 27L40 23L41 23L41 24L42 24L42 27L43 27L43 25L44 25L44 27L45 27L45 25L46 25L46 26L47 26L47 25L46 25L46 24L48 24L48 26L49 26L49 24L50 24L50 26L51 26L51 25L52 25L52 24L53 24L53 25L54 25L54 26L55 26L55 27L54 27L54 28L53 28L53 29L54 29L54 30L55 30L55 31L54 31L54 32L55 32L55 31L56 31L56 30L55 30L55 27L56 27L56 26L55 26L55 25L56 25L56 24L55 24L55 23L56 23L56 20L55 20L55 19L54 19L54 17L56 17L56 16L55 16L55 15L56 15L56 13L55 13L55 11L54 11L54 12L53 12L53 13L54 13L54 14L55 14L55 15L54 15L54 17L52 17L52 19L51 19L51 20L49 20L49 17L48 17L48 18L47 18L47 17L44 17L44 16L47 16L47 15L48 15L48 14L49 14L49 13L50 13L50 15L49 15L49 16L50 16L50 18L51 18L51 14L52 14L52 15L53 15L53 14L52 14L52 13L50 13L50 11L51 11L51 12L52 12L52 9L50 9L50 11L49 11L49 12L48 12L48 14L47 14L47 13L46 13L46 15L45 15L45 13L44 13L44 12L42 12L42 11L41 11L41 9L40 9L40 8L42 8L42 10L43 10L43 9L44 9L44 6L45 6L45 5L44 5L44 4L43 4L43 5L44 5L44 6L43 6L43 8L42 8L42 6L41 6L41 7L40 7L40 8L39 8L39 9L38 9L38 11L41 11L41 12L42 12L42 15L41 15L41 17L42 17L42 18L43 18L43 17L44 17L44 19L43 19L43 20L42 20L42 19L41 19L41 18L40 18L40 14L41 14L41 13L40 13L40 12L37 12L37 13L36 13L36 11L34 11L34 10L33 10L33 9L32 9L32 11L31 11L31 12L30 12L30 11L29 11L29 12L30 12L30 13L29 13L29 15L28 15L28 14L26 14L26 13L27 13L27 12L28 12L28 11L27 11L27 10L29 10L29 9L27 9L27 10L25 10L25 9L26 9L26 5L24 5L24 6L23 6L23 9L22 9L22 5L23 5L23 3L22 3L22 5L21 5L21 9L20 9L20 10L19 10L19 9L18 9L18 8L17 8L17 7L18 7L18 6L17 6L17 5L18 5L18 4L17 4L17 5L16 5L16 6L15 6L15 8L16 8L16 11L15 11L15 9L14 9L14 5L13 5L13 3ZM14 3L14 4L15 4L15 3ZM46 3L46 5L47 5L47 3ZM12 5L12 7L13 7L13 5ZM27 5L27 8L30 8L30 5ZM16 6L16 7L17 7L17 6ZM24 6L24 7L25 7L25 6ZM28 6L28 7L29 7L29 6ZM32 6L32 7L33 7L33 6ZM23 9L23 10L24 10L24 11L22 11L22 12L23 12L23 14L24 14L24 13L26 13L26 11L25 11L25 10L24 10L24 9ZM30 9L30 10L31 10L31 9ZM39 9L39 10L40 10L40 9ZM0 10L0 11L1 11L1 10ZM8 10L8 11L9 11L9 10ZM17 10L17 11L16 11L16 12L17 12L17 14L15 14L15 15L12 15L12 16L11 16L11 17L13 17L13 19L11 19L11 18L10 18L10 15L9 15L9 17L7 17L7 16L8 16L8 15L7 15L7 14L6 14L6 15L7 15L7 16L6 16L6 17L5 17L5 18L4 18L4 19L5 19L5 18L6 18L6 19L7 19L7 18L10 18L10 20L13 20L13 22L14 22L14 21L15 21L15 23L11 23L11 25L12 25L12 26L11 26L11 27L12 27L12 26L14 26L14 27L13 27L13 28L14 28L14 27L16 27L16 28L17 28L17 27L16 27L16 25L17 25L17 26L18 26L18 25L19 25L19 26L20 26L20 28L19 28L19 27L18 27L18 28L19 28L19 30L18 30L18 31L16 31L16 30L15 30L15 31L16 31L16 33L17 33L17 32L18 32L18 33L19 33L19 34L17 34L17 35L16 35L16 37L17 37L17 35L18 35L18 37L19 37L19 38L16 38L16 39L18 39L18 42L17 42L17 43L16 43L16 44L17 44L17 46L18 46L18 47L19 47L19 48L18 48L18 49L17 49L17 50L18 50L18 49L19 49L19 50L20 50L20 49L19 49L19 48L20 48L20 47L19 47L19 46L20 46L20 45L21 45L21 44L20 44L20 43L19 43L19 42L20 42L20 41L21 41L21 40L22 40L22 41L23 41L23 43L22 43L22 44L23 44L23 46L24 46L24 47L26 47L26 46L28 46L28 47L29 47L29 46L28 46L28 44L29 44L29 45L30 45L30 47L31 47L31 46L32 46L32 45L33 45L33 44L35 44L35 43L36 43L36 41L37 41L37 42L38 42L38 41L39 41L39 38L40 38L40 39L42 39L42 40L40 40L40 42L39 42L39 43L37 43L37 44L36 44L36 45L35 45L35 46L36 46L36 47L37 47L37 46L38 46L38 45L37 45L37 44L40 44L40 46L39 46L39 47L40 47L40 49L41 49L41 47L42 47L42 45L43 45L43 44L44 44L44 46L43 46L43 47L44 47L44 46L45 46L45 47L46 47L46 44L47 44L47 42L46 42L46 40L47 40L47 41L48 41L48 40L49 40L49 39L48 39L48 40L47 40L47 38L49 38L49 37L50 37L50 36L51 36L51 33L50 33L50 36L49 36L49 35L48 35L48 34L46 34L46 33L45 33L45 32L46 32L46 30L45 30L45 31L44 31L44 29L43 29L43 31L42 31L42 33L41 33L41 32L40 32L40 31L38 31L38 30L37 30L37 31L36 31L36 33L35 33L35 34L34 34L34 32L33 32L33 31L34 31L34 29L35 29L35 30L36 30L36 29L37 29L37 28L38 28L38 29L39 29L39 26L38 26L38 25L39 25L39 22L38 22L38 21L37 21L37 20L39 20L39 19L40 19L40 22L42 22L42 24L43 24L43 22L44 22L44 23L45 23L45 22L44 22L44 21L45 21L45 20L46 20L46 21L47 21L47 22L48 22L48 24L49 24L49 23L50 23L50 24L52 24L52 22L54 22L54 23L53 23L53 24L54 24L54 23L55 23L55 21L54 21L54 19L53 19L53 20L52 20L52 22L51 22L51 23L50 23L50 22L48 22L48 19L47 19L47 20L46 20L46 19L44 19L44 21L43 21L43 22L42 22L42 20L41 20L41 19L40 19L40 18L38 18L38 16L37 16L37 15L38 15L38 13L37 13L37 14L36 14L36 18L34 18L34 17L35 17L35 15L34 15L34 13L35 13L35 12L34 12L34 11L32 11L32 14L31 14L31 16L30 16L30 15L29 15L29 16L30 16L30 17L28 17L28 18L30 18L30 17L31 17L31 19L30 19L30 20L28 20L28 21L29 21L29 22L28 22L28 23L26 23L26 22L27 22L27 20L26 20L26 19L25 19L25 18L26 18L26 17L27 17L27 16L26 16L26 14L25 14L25 16L26 16L26 17L25 17L25 18L24 18L24 16L22 16L22 14L21 14L21 15L20 15L20 13L21 13L21 12L20 12L20 11L19 11L19 10ZM4 11L4 13L5 13L5 11ZM14 11L14 12L15 12L15 11ZM18 11L18 12L19 12L19 13L18 13L18 14L17 14L17 15L15 15L15 16L17 16L17 15L18 15L18 16L19 16L19 17L20 17L20 18L19 18L19 21L18 21L18 18L17 18L17 17L16 17L16 20L17 20L17 21L18 21L18 22L16 22L16 23L18 23L18 22L19 22L19 25L20 25L20 26L21 26L21 23L22 23L22 24L23 24L23 23L22 23L22 22L23 22L23 21L22 21L22 20L23 20L23 19L22 19L22 18L21 18L21 17L20 17L20 15L19 15L19 13L20 13L20 12L19 12L19 11ZM6 12L6 13L7 13L7 12ZM8 12L8 13L9 13L9 12ZM39 13L39 14L40 14L40 13ZM43 13L43 16L44 16L44 13ZM32 14L32 15L33 15L33 17L34 17L34 15L33 15L33 14ZM13 16L13 17L14 17L14 18L15 18L15 17L14 17L14 16ZM6 17L6 18L7 18L7 17ZM20 18L20 21L21 21L21 22L20 22L20 23L21 23L21 22L22 22L22 21L21 21L21 18ZM33 18L33 21L32 21L32 20L31 20L31 21L30 21L30 22L29 22L29 25L28 25L28 24L27 24L27 25L26 25L26 26L31 26L31 25L32 25L32 28L31 28L31 29L32 29L32 30L33 30L33 29L34 29L34 27L36 27L36 28L35 28L35 29L36 29L36 28L37 28L37 26L36 26L36 24L37 24L37 25L38 25L38 23L36 23L36 22L37 22L37 21L36 21L36 20L34 20L34 18ZM36 18L36 19L37 19L37 18ZM14 19L14 20L15 20L15 19ZM24 19L24 20L25 20L25 19ZM33 21L33 22L30 22L30 23L32 23L32 25L33 25L33 26L34 26L34 24L36 24L36 23L35 23L35 22L36 22L36 21L35 21L35 22L34 22L34 21ZM24 22L24 23L25 23L25 22ZM33 23L33 24L34 24L34 23ZM7 24L7 25L6 25L6 26L7 26L7 25L8 25L8 24ZM12 24L12 25L13 25L13 24ZM14 24L14 25L15 25L15 24ZM17 24L17 25L18 25L18 24ZM30 24L30 25L31 25L31 24ZM44 24L44 25L45 25L45 24ZM1 25L1 26L3 26L3 25ZM24 25L24 26L25 26L25 25ZM5 27L5 30L8 30L8 27ZM22 27L22 28L24 28L24 30L23 30L23 29L22 29L22 30L21 30L21 29L20 29L20 32L19 32L19 31L18 31L18 32L19 32L19 33L20 33L20 34L19 34L19 36L21 36L21 37L22 37L22 38L23 38L23 39L22 39L22 40L24 40L24 43L23 43L23 44L25 44L25 42L26 42L26 41L25 41L25 40L30 40L30 41L28 41L28 43L27 43L27 44L28 44L28 43L29 43L29 44L30 44L30 42L31 42L31 43L32 43L32 40L33 40L33 41L34 41L34 42L35 42L35 41L36 41L36 38L37 38L37 37L38 37L38 38L39 38L39 36L40 36L40 35L41 35L41 36L42 36L42 39L43 39L43 38L44 38L44 34L45 34L45 37L46 37L46 38L47 38L47 36L48 36L48 35L46 35L46 34L45 34L45 33L44 33L44 34L43 34L43 33L42 33L42 34L40 34L40 32L39 32L39 33L38 33L38 34L37 34L37 33L36 33L36 35L35 35L35 37L34 37L34 36L33 36L33 37L34 37L34 39L33 39L33 38L31 38L31 40L30 40L30 36L31 36L31 37L32 37L32 36L31 36L31 35L32 35L32 34L33 34L33 33L32 33L32 31L31 31L31 32L30 32L30 34L31 34L31 35L28 35L28 34L29 34L29 32L27 32L27 33L28 33L28 34L27 34L27 35L28 35L28 36L25 36L25 35L26 35L26 33L25 33L25 32L24 32L24 30L25 30L25 31L26 31L26 30L25 30L25 28L24 28L24 27ZM27 27L27 30L30 30L30 27ZM49 27L49 30L52 30L52 27ZM6 28L6 29L7 29L7 28ZM28 28L28 29L29 29L29 28ZM32 28L32 29L33 29L33 28ZM50 28L50 29L51 29L51 28ZM12 29L12 30L13 30L13 29ZM22 30L22 33L23 33L23 35L25 35L25 34L24 34L24 32L23 32L23 30ZM37 31L37 32L38 32L38 31ZM6 33L6 34L7 34L7 35L8 35L8 33ZM9 34L9 35L10 35L10 34ZM21 34L21 36L22 36L22 37L23 37L23 36L22 36L22 34ZM38 34L38 35L36 35L36 37L35 37L35 38L36 38L36 37L37 37L37 36L38 36L38 35L39 35L39 34ZM53 34L53 36L52 36L52 37L53 37L53 36L54 36L54 34ZM3 35L3 36L4 36L4 35ZM42 35L42 36L43 36L43 35ZM7 36L7 37L6 37L6 38L5 38L5 39L6 39L6 40L7 40L7 41L4 41L4 42L5 42L5 44L4 44L4 43L3 43L3 47L5 47L5 46L7 46L7 47L8 47L8 46L7 46L7 45L8 45L8 44L9 44L9 41L8 41L8 40L7 40L7 39L6 39L6 38L8 38L8 39L9 39L9 40L12 40L12 39L9 39L9 38L8 38L8 37L10 37L10 36ZM24 36L24 37L25 37L25 36ZM28 36L28 37L29 37L29 36ZM20 38L20 39L21 39L21 38ZM24 38L24 39L25 39L25 38ZM28 38L28 39L29 39L29 38ZM0 39L0 40L1 40L1 39ZM2 39L2 40L3 40L3 39ZM13 39L13 40L14 40L14 39ZM34 39L34 41L35 41L35 39ZM37 39L37 41L38 41L38 39ZM19 40L19 41L20 41L20 40ZM43 40L43 41L42 41L42 42L40 42L40 44L41 44L41 45L42 45L42 44L43 44L43 43L42 43L42 42L43 42L43 41L44 41L44 44L45 44L45 43L46 43L46 42L45 42L45 41L44 41L44 40ZM51 40L51 41L49 41L49 42L50 42L50 44L52 44L52 40ZM7 41L7 42L6 42L6 43L8 43L8 41ZM10 41L10 43L11 43L11 42L12 42L12 41ZM18 43L18 44L19 44L19 43ZM5 44L5 45L4 45L4 46L5 46L5 45L7 45L7 44ZM1 45L1 47L2 47L2 45ZM9 45L9 47L10 47L10 48L11 48L11 47L10 47L10 45ZM18 45L18 46L19 46L19 45ZM24 45L24 46L26 46L26 45ZM21 46L21 48L22 48L22 50L23 50L23 51L24 51L24 49L23 49L23 48L22 48L22 46ZM40 46L40 47L41 47L41 46ZM52 47L52 48L53 48L53 47ZM44 48L44 49L45 49L45 48ZM27 49L27 52L30 52L30 49ZM49 49L49 52L52 52L52 49ZM28 50L28 51L29 51L29 50ZM31 50L31 52L32 52L32 50ZM50 50L50 51L51 51L51 50ZM8 51L8 52L9 52L9 51ZM10 51L10 53L9 53L9 54L8 54L8 57L10 57L10 56L11 56L11 57L12 57L12 56L11 56L11 55L12 55L12 54L11 54L11 52L12 52L12 51ZM17 52L17 53L18 53L18 52ZM39 52L39 53L40 53L40 52ZM45 52L45 53L46 53L46 52ZM27 53L27 54L26 54L26 55L28 55L28 53ZM31 53L31 54L30 54L30 55L33 55L33 54L32 54L32 53ZM9 54L9 55L10 55L10 54ZM24 54L24 55L25 55L25 54ZM54 54L54 55L57 55L57 54ZM36 56L36 57L37 57L37 56ZM51 56L51 57L53 57L53 56ZM56 56L56 57L57 57L57 56ZM0 0L0 7L7 7L7 0ZM1 1L1 6L6 6L6 1ZM2 2L2 5L5 5L5 2ZM50 0L50 7L57 7L57 0ZM51 1L51 6L56 6L56 1ZM52 2L52 5L55 5L55 2ZM0 50L0 57L7 57L7 50ZM1 51L1 56L6 56L6 51ZM2 52L2 55L5 55L5 52Z" fill="#000000"/></g></g></svg>
