<?xml version="1.0" encoding="UTF-8"?>
<svg xmlns="http://www.w3.org/2000/svg" version="1.1" width="300" height="300" viewBox="0 0 300 300"><rect x="0" y="0" width="300" height="300" fill="#fefefe"/><g transform="scale(4.615)"><g transform="translate(4,4)"><path fill-rule="evenodd" d="M10 0L10 2L13 2L13 3L12 3L12 4L11 4L11 3L8 3L8 4L9 4L9 5L8 5L8 7L9 7L9 5L10 5L10 7L11 7L11 9L9 9L9 8L6 8L6 9L9 9L9 10L12 10L12 11L11 11L11 12L12 12L12 13L11 13L11 15L10 15L10 13L9 13L9 11L8 11L8 13L7 13L7 12L6 12L6 11L7 11L7 10L5 10L5 15L3 15L3 16L2 16L2 18L1 18L1 19L2 19L2 20L3 20L3 21L2 21L2 22L1 22L1 24L0 24L0 26L1 26L1 27L0 27L0 28L1 28L1 29L0 29L0 30L1 30L1 29L2 29L2 31L0 31L0 35L1 35L1 36L0 36L0 38L1 38L1 39L0 39L0 44L2 44L2 45L0 45L0 48L5 48L5 47L8 47L8 48L6 48L6 49L8 49L8 51L10 51L10 52L8 52L8 57L9 57L9 54L10 54L10 53L11 53L11 54L12 54L12 55L13 55L13 57L16 57L16 56L17 56L17 57L19 57L19 55L20 55L20 54L17 54L17 53L20 53L20 52L21 52L21 53L22 53L22 54L21 54L21 56L24 56L24 55L23 55L23 54L24 54L24 53L26 53L26 54L25 54L25 55L26 55L26 54L30 54L30 53L31 53L31 49L32 49L32 52L33 52L33 53L32 53L32 54L31 54L31 56L30 56L30 55L29 55L29 56L27 56L27 57L29 57L29 56L30 56L30 57L31 57L31 56L35 56L35 57L39 57L39 56L41 56L41 54L42 54L42 55L44 55L44 54L45 54L45 53L44 53L44 52L45 52L45 51L46 51L46 53L47 53L47 56L46 56L46 55L45 55L45 57L49 57L49 56L50 56L50 57L52 57L52 55L51 55L51 53L52 53L52 54L54 54L54 55L53 55L53 56L55 56L55 57L56 57L56 56L55 56L55 53L56 53L56 51L54 51L54 50L57 50L57 48L56 48L56 46L57 46L57 45L56 45L56 44L55 44L55 43L56 43L56 41L53 41L53 40L55 40L55 39L57 39L57 37L55 37L55 36L56 36L56 34L55 34L55 32L56 32L56 33L57 33L57 32L56 32L56 30L57 30L57 29L56 29L56 27L55 27L55 26L57 26L57 25L56 25L56 22L57 22L57 19L56 19L56 18L52 18L52 19L49 19L49 18L50 18L50 17L51 17L51 16L52 16L52 15L53 15L53 16L55 16L55 17L56 17L56 16L57 16L57 15L56 15L56 14L57 14L57 13L56 13L56 14L54 14L54 15L53 15L53 13L54 13L54 12L55 12L55 11L56 11L56 12L57 12L57 11L56 11L56 10L54 10L54 11L50 11L50 12L49 12L49 13L47 13L47 14L45 14L45 15L47 15L47 16L48 16L48 17L47 17L47 18L46 18L46 16L45 16L45 18L44 18L44 12L43 12L43 13L40 13L40 12L41 12L41 11L40 11L40 9L39 9L39 8L40 8L40 7L41 7L41 8L42 8L42 9L41 9L41 10L43 10L43 11L45 11L45 12L47 12L47 10L48 10L48 11L49 11L49 10L50 10L50 8L49 8L49 9L47 9L47 8L48 8L48 7L49 7L49 6L48 6L48 7L47 7L47 5L48 5L48 0L45 0L45 1L47 1L47 2L44 2L44 3L42 3L42 2L43 2L43 0L41 0L41 1L40 1L40 0L39 0L39 1L38 1L38 0L37 0L37 1L38 1L38 2L37 2L37 3L36 3L36 0L35 0L35 1L33 1L33 2L32 2L32 3L31 3L31 1L32 1L32 0L29 0L29 1L30 1L30 2L29 2L29 4L26 4L26 3L23 3L23 2L27 2L27 3L28 3L28 2L27 2L27 1L26 1L26 0L23 0L23 2L22 2L22 3L23 3L23 4L22 4L22 5L21 5L21 4L19 4L19 3L18 3L18 2L16 2L16 1L14 1L14 0L13 0L13 1L11 1L11 0ZM19 0L19 2L20 2L20 3L21 3L21 2L20 2L20 0ZM21 0L21 1L22 1L22 0ZM8 1L8 2L9 2L9 1ZM13 1L13 2L14 2L14 4L12 4L12 6L11 6L11 7L12 7L12 6L13 6L13 8L14 8L14 9L13 9L13 10L17 10L17 11L16 11L16 12L15 12L15 13L13 13L13 14L15 14L15 13L16 13L16 16L18 16L18 15L19 15L19 16L20 16L20 18L19 18L19 20L20 20L20 21L19 21L19 22L20 22L20 23L19 23L19 24L21 24L21 25L19 25L19 26L18 26L18 25L17 25L17 24L18 24L18 23L17 23L17 24L16 24L16 23L15 23L15 22L16 22L16 21L17 21L17 22L18 22L18 21L17 21L17 20L18 20L18 17L15 17L15 15L14 15L14 17L12 17L12 18L11 18L11 17L10 17L10 16L9 16L9 13L8 13L8 15L6 15L6 16L3 16L3 17L6 17L6 18L7 18L7 19L6 19L6 20L8 20L8 21L5 21L5 22L4 22L4 24L5 24L5 23L6 23L6 24L9 24L9 23L11 23L11 25L10 25L10 26L9 26L9 25L8 25L8 26L9 26L9 29L10 29L10 30L9 30L9 31L8 31L8 32L9 32L9 31L10 31L10 33L6 33L6 32L7 32L7 31L6 31L6 32L5 32L5 31L4 31L4 26L2 26L2 25L3 25L3 24L1 24L1 26L2 26L2 27L1 27L1 28L2 28L2 27L3 27L3 31L2 31L2 33L1 33L1 34L2 34L2 35L3 35L3 38L2 38L2 40L1 40L1 41L2 41L2 44L3 44L3 45L2 45L2 46L1 46L1 47L2 47L2 46L3 46L3 47L5 47L5 46L4 46L4 44L5 44L5 45L6 45L6 46L9 46L9 45L10 45L10 46L11 46L11 45L12 45L12 44L13 44L13 43L12 43L12 42L14 42L14 43L15 43L15 44L14 44L14 46L16 46L16 47L14 47L14 48L15 48L15 50L16 50L16 51L14 51L14 50L13 50L13 47L11 47L11 49L10 49L10 48L8 48L8 49L9 49L9 50L10 50L10 51L12 51L12 52L11 52L11 53L14 53L14 54L13 54L13 55L15 55L15 56L16 56L16 55L15 55L15 54L16 54L16 53L17 53L17 51L21 51L21 49L23 49L23 47L21 47L21 45L22 45L22 46L23 46L23 45L22 45L22 44L21 44L21 43L22 43L22 42L23 42L23 40L24 40L24 41L25 41L25 42L24 42L24 43L23 43L23 44L24 44L24 45L25 45L25 46L24 46L24 49L25 49L25 50L23 50L23 52L22 52L22 53L24 53L24 52L26 52L26 48L30 48L30 47L26 47L26 45L27 45L27 46L30 46L30 44L28 44L28 42L29 42L29 40L32 40L32 41L31 41L31 42L32 42L32 43L33 43L33 44L32 44L32 46L31 46L31 48L32 48L32 49L33 49L33 50L34 50L34 52L35 52L35 50L36 50L36 52L37 52L37 53L38 53L38 54L37 54L37 56L39 56L39 55L38 55L38 54L40 54L40 53L43 53L43 54L44 54L44 53L43 53L43 51L42 51L42 50L41 50L41 48L42 48L42 49L43 49L43 48L44 48L44 49L45 49L45 50L44 50L44 51L45 51L45 50L46 50L46 51L47 51L47 53L48 53L48 50L47 50L47 49L48 49L48 48L49 48L49 47L51 47L51 48L53 48L53 49L56 49L56 48L53 48L53 43L54 43L54 42L53 42L53 41L51 41L51 42L50 42L50 43L49 43L49 42L48 42L48 41L49 41L49 39L47 39L47 37L48 37L48 36L50 36L50 39L51 39L51 38L53 38L53 39L54 39L54 38L53 38L53 35L55 35L55 34L54 34L54 32L53 32L53 31L52 31L52 32L51 32L51 31L50 31L50 32L49 32L49 31L48 31L48 29L46 29L46 30L47 30L47 31L46 31L46 32L43 32L43 30L41 30L41 31L39 31L39 32L38 32L38 30L39 30L39 29L44 29L44 31L45 31L45 28L46 28L46 27L47 27L47 25L46 25L46 24L45 24L45 23L46 23L46 22L47 22L47 23L48 23L48 24L49 24L49 23L50 23L50 26L53 26L53 27L54 27L54 26L53 26L53 23L55 23L55 22L56 22L56 21L55 21L55 20L56 20L56 19L55 19L55 20L53 20L53 19L52 19L52 20L51 20L51 21L49 21L49 19L48 19L48 20L47 20L47 19L46 19L46 18L45 18L45 20L44 20L44 18L43 18L43 20L44 20L44 23L43 23L43 22L41 22L41 24L40 24L40 22L39 22L39 21L42 21L42 20L38 20L38 23L37 23L37 24L40 24L40 25L38 25L38 26L37 26L37 25L33 25L33 24L32 24L32 23L33 23L33 22L34 22L34 23L35 23L35 20L34 20L34 21L33 21L33 20L32 20L32 21L31 21L31 19L33 19L33 18L34 18L34 19L36 19L36 20L37 20L37 19L39 19L39 17L41 17L41 16L42 16L42 17L43 17L43 16L42 16L42 15L43 15L43 14L41 14L41 16L39 16L39 15L38 15L38 14L40 14L40 13L38 13L38 14L37 14L37 15L35 15L35 16L31 16L31 18L30 18L30 19L28 19L28 18L26 18L26 17L28 17L28 16L29 16L29 14L30 14L30 15L32 15L32 14L36 14L36 13L35 13L35 12L36 12L36 10L37 10L37 11L39 11L39 12L40 12L40 11L39 11L39 9L38 9L38 8L37 8L37 7L38 7L38 6L39 6L39 7L40 7L40 6L41 6L41 7L42 7L42 5L40 5L40 4L41 4L41 3L39 3L39 2L38 2L38 5L37 5L37 4L36 4L36 5L35 5L35 4L33 4L33 3L35 3L35 2L33 2L33 3L32 3L32 4L31 4L31 3L30 3L30 4L31 4L31 8L32 8L32 10L31 10L31 11L30 11L30 10L27 10L27 11L26 11L26 12L25 12L25 11L23 11L23 13L22 13L22 12L21 12L21 11L22 11L22 10L21 10L21 9L25 9L25 8L26 8L26 4L25 4L25 8L24 8L24 6L23 6L23 8L19 8L19 7L20 7L20 5L19 5L19 4L18 4L18 3L15 3L15 2L14 2L14 1ZM44 3L44 6L43 6L43 7L44 7L44 9L43 9L43 10L44 10L44 9L45 9L45 10L47 10L47 9L45 9L45 7L46 7L46 6L45 6L45 4L46 4L46 5L47 5L47 3ZM10 4L10 5L11 5L11 4ZM15 4L15 5L14 5L14 8L15 8L15 9L17 9L17 10L18 10L18 11L17 11L17 12L16 12L16 13L17 13L17 15L18 15L18 14L19 14L19 15L23 15L23 16L24 16L24 15L25 15L25 17L22 17L22 16L21 16L21 17L22 17L22 18L20 18L20 19L21 19L21 20L22 20L22 18L24 18L24 19L23 19L23 20L24 20L24 21L21 21L21 24L22 24L22 23L23 23L23 25L21 25L21 27L22 27L22 26L23 26L23 28L24 28L24 29L23 29L23 30L25 30L25 31L24 31L24 32L25 32L25 33L23 33L23 34L22 34L22 33L21 33L21 32L23 32L23 31L19 31L19 32L17 32L17 30L16 30L16 29L18 29L18 30L20 30L20 29L18 29L18 28L16 28L16 27L18 27L18 26L15 26L15 25L14 25L14 21L13 21L13 22L12 22L12 26L13 26L13 27L15 27L15 28L13 28L13 29L12 29L12 28L11 28L11 30L10 30L10 31L11 31L11 32L12 32L12 31L14 31L14 30L15 30L15 32L14 32L14 33L10 33L10 35L8 35L8 34L4 34L4 36L5 36L5 37L7 37L7 38L6 38L6 39L7 39L7 38L8 38L8 36L9 36L9 37L10 37L10 38L11 38L11 40L10 40L10 41L9 41L9 39L8 39L8 40L6 40L6 41L7 41L7 42L6 42L6 43L5 43L5 42L4 42L4 41L3 41L3 40L5 40L5 38L4 38L4 39L3 39L3 40L2 40L2 41L3 41L3 43L5 43L5 44L6 44L6 45L7 45L7 44L6 44L6 43L7 43L7 42L9 42L9 43L10 43L10 41L11 41L11 42L12 42L12 40L13 40L13 39L14 39L14 41L15 41L15 42L16 42L16 41L17 41L17 42L18 42L18 43L16 43L16 45L17 45L17 46L19 46L19 47L18 47L18 48L17 48L17 49L19 49L19 50L20 50L20 48L19 48L19 47L20 47L20 45L21 45L21 44L20 44L20 43L21 43L21 42L20 42L20 40L21 40L21 37L19 37L19 36L17 36L17 40L16 40L16 39L14 39L14 37L13 37L13 36L12 36L12 35L13 35L13 34L14 34L14 35L15 35L15 32L16 32L16 33L17 33L17 34L16 34L16 35L18 35L18 34L19 34L19 33L21 33L21 34L20 34L20 36L22 36L22 35L23 35L23 34L24 34L24 36L23 36L23 37L24 37L24 38L22 38L22 39L24 39L24 40L25 40L25 36L26 36L26 40L28 40L28 39L27 39L27 38L28 38L28 37L27 37L27 36L26 36L26 35L27 35L27 34L26 34L26 35L25 35L25 33L26 33L26 32L27 32L27 31L29 31L29 32L28 32L28 33L29 33L29 34L30 34L30 36L29 36L29 37L31 37L31 38L29 38L29 39L33 39L33 40L35 40L35 42L37 42L37 43L36 43L36 44L35 44L35 43L34 43L34 42L33 42L33 41L32 41L32 42L33 42L33 43L34 43L34 45L35 45L35 46L33 46L33 47L32 47L32 48L33 48L33 49L34 49L34 48L33 48L33 47L35 47L35 46L36 46L36 45L37 45L37 47L36 47L36 48L35 48L35 49L36 49L36 50L38 50L38 51L37 51L37 52L38 52L38 53L39 53L39 52L38 52L38 51L40 51L40 52L41 52L41 50L38 50L38 49L39 49L39 48L41 48L41 46L43 46L43 47L42 47L42 48L43 48L43 47L44 47L44 48L46 48L46 47L47 47L47 48L48 48L48 47L49 47L49 46L48 46L48 47L47 47L47 46L45 46L45 45L47 45L47 43L48 43L48 42L46 42L46 41L47 41L47 39L46 39L46 38L45 38L45 37L47 37L47 36L48 36L48 35L50 35L50 36L51 36L51 37L52 37L52 35L53 35L53 34L52 34L52 33L53 33L53 32L52 32L52 33L51 33L51 32L50 32L50 34L48 34L48 35L47 35L47 34L45 34L45 33L43 33L43 32L41 32L41 33L39 33L39 34L40 34L40 35L39 35L39 37L40 37L40 38L41 38L41 39L42 39L42 40L41 40L41 42L40 42L40 44L41 44L41 45L39 45L39 42L38 42L38 40L40 40L40 39L38 39L38 37L37 37L37 36L38 36L38 33L37 33L37 32L35 32L35 31L36 31L36 30L37 30L37 29L38 29L38 28L42 28L42 26L43 26L43 28L45 28L45 27L46 27L46 26L43 26L43 25L44 25L44 24L43 24L43 23L42 23L42 24L41 24L41 25L42 25L42 26L40 26L40 27L36 27L36 26L34 26L34 27L33 27L33 26L32 26L32 24L29 24L29 25L27 25L27 26L26 26L26 25L25 25L25 24L27 24L27 22L28 22L28 21L25 21L25 20L26 20L26 19L25 19L25 17L26 17L26 13L28 13L28 14L29 14L29 13L28 13L28 12L29 12L29 11L27 11L27 12L26 12L26 13L25 13L25 12L24 12L24 13L23 13L23 14L22 14L22 13L21 13L21 14L20 14L20 13L19 13L19 11L21 11L21 10L20 10L20 9L19 9L19 8L18 8L18 7L19 7L19 6L18 6L18 4L17 4L17 6L16 6L16 7L15 7L15 5L16 5L16 4ZM23 4L23 5L24 5L24 4ZM32 4L32 5L33 5L33 6L32 6L32 7L33 7L33 9L34 9L34 8L35 8L35 9L37 9L37 10L38 10L38 9L37 9L37 8L35 8L35 5L33 5L33 4ZM27 5L27 8L30 8L30 5ZM36 5L36 7L37 7L37 5ZM39 5L39 6L40 6L40 5ZM17 6L17 7L16 7L16 8L17 8L17 7L18 7L18 6ZM21 6L21 7L22 7L22 6ZM28 6L28 7L29 7L29 6ZM33 6L33 7L34 7L34 6ZM44 6L44 7L45 7L45 6ZM0 8L0 9L3 9L3 14L4 14L4 9L5 9L5 8ZM51 8L51 9L52 9L52 10L53 10L53 9L54 9L54 8L53 8L53 9L52 9L52 8ZM55 8L55 9L56 9L56 8ZM1 10L1 11L0 11L0 12L2 12L2 10ZM32 10L32 11L31 11L31 13L30 13L30 14L32 14L32 11L33 11L33 10ZM12 11L12 12L14 12L14 11ZM17 12L17 13L18 13L18 12ZM33 12L33 13L34 13L34 12ZM50 12L50 14L49 14L49 15L48 15L48 16L49 16L49 15L50 15L50 16L51 16L51 15L50 15L50 14L51 14L51 12ZM52 12L52 13L53 13L53 12ZM1 13L1 14L0 14L0 15L2 15L2 13ZM6 13L6 14L7 14L7 13ZM27 15L27 16L28 16L28 15ZM6 16L6 17L7 17L7 18L8 18L8 19L9 19L9 21L8 21L8 22L11 22L11 21L12 21L12 20L14 20L14 19L10 19L10 17L9 17L9 16L8 16L8 17L7 17L7 16ZM35 16L35 17L37 17L37 18L38 18L38 17L39 17L39 16L38 16L38 17L37 17L37 16ZM8 17L8 18L9 18L9 17ZM32 17L32 18L33 18L33 17ZM2 18L2 19L3 19L3 20L5 20L5 19L4 19L4 18ZM15 18L15 19L16 19L16 18ZM41 18L41 19L42 19L42 18ZM15 20L15 21L16 21L16 20ZM24 21L24 22L23 22L23 23L24 23L24 24L25 24L25 23L26 23L26 22L25 22L25 21ZM29 21L29 22L30 22L30 23L31 23L31 21ZM47 21L47 22L49 22L49 21ZM51 21L51 22L50 22L50 23L53 23L53 22L54 22L54 21ZM6 22L6 23L7 23L7 22ZM42 24L42 25L43 25L43 24ZM5 25L5 26L7 26L7 25ZM29 25L29 26L30 26L30 25ZM19 26L19 27L20 27L20 26ZM24 26L24 27L26 27L26 26ZM31 26L31 27L32 27L32 29L33 29L33 30L32 30L32 31L30 31L30 32L29 32L29 33L31 33L31 32L32 32L32 34L31 34L31 35L33 35L33 36L32 36L32 37L34 37L34 38L33 38L33 39L34 39L34 38L35 38L35 36L37 36L37 34L35 34L35 33L33 33L33 32L34 32L34 31L33 31L33 30L35 30L35 28L36 28L36 27L35 27L35 28L33 28L33 27L32 27L32 26ZM5 27L5 30L8 30L8 27ZM27 27L27 30L30 30L30 27ZM49 27L49 30L52 30L52 27ZM6 28L6 29L7 29L7 28ZM15 28L15 29L16 29L16 28ZM21 28L21 29L22 29L22 28ZM25 28L25 29L26 29L26 28ZM28 28L28 29L29 29L29 28ZM50 28L50 29L51 29L51 28ZM54 28L54 29L53 29L53 30L54 30L54 29L55 29L55 28ZM13 29L13 30L14 30L14 29ZM11 30L11 31L12 31L12 30ZM25 31L25 32L26 32L26 31ZM32 31L32 32L33 32L33 31ZM47 31L47 32L46 32L46 33L47 33L47 32L48 32L48 33L49 33L49 32L48 32L48 31ZM3 32L3 33L5 33L5 32ZM11 34L11 35L12 35L12 34ZM33 34L33 35L34 35L34 36L35 36L35 35L34 35L34 34ZM42 34L42 35L41 35L41 36L40 36L40 37L41 37L41 36L42 36L42 37L43 37L43 38L42 38L42 39L43 39L43 40L42 40L42 41L43 41L43 43L44 43L44 45L45 45L45 44L46 44L46 42L45 42L45 43L44 43L44 41L45 41L45 40L46 40L46 39L45 39L45 38L44 38L44 37L45 37L45 36L44 36L44 35L45 35L45 34ZM50 34L50 35L52 35L52 34ZM6 35L6 36L8 36L8 35ZM1 36L1 37L2 37L2 36ZM43 36L43 37L44 37L44 36ZM11 37L11 38L12 38L12 39L13 39L13 38L12 38L12 37ZM15 37L15 38L16 38L16 37ZM18 38L18 39L20 39L20 38ZM35 39L35 40L38 40L38 39ZM44 39L44 40L43 40L43 41L44 41L44 40L45 40L45 39ZM15 40L15 41L16 41L16 40ZM17 40L17 41L18 41L18 42L19 42L19 41L18 41L18 40ZM26 41L26 42L27 42L27 41ZM51 42L51 43L50 43L50 44L51 44L51 43L53 43L53 42ZM11 43L11 44L12 44L12 43ZM25 43L25 44L27 44L27 43ZM41 43L41 44L42 44L42 43ZM8 44L8 45L9 45L9 44ZM17 44L17 45L18 45L18 44ZM19 44L19 45L20 45L20 44ZM54 44L54 45L55 45L55 46L56 46L56 45L55 45L55 44ZM38 45L38 46L39 46L39 47L38 47L38 48L37 48L37 49L38 49L38 48L39 48L39 47L40 47L40 46L39 46L39 45ZM50 45L50 46L51 46L51 47L52 47L52 46L51 46L51 45ZM44 46L44 47L45 47L45 46ZM25 47L25 48L26 48L26 47ZM11 49L11 50L12 50L12 49ZM27 49L27 52L30 52L30 49ZM49 49L49 52L52 52L52 49ZM28 50L28 51L29 51L29 50ZM50 50L50 51L51 51L51 50ZM13 51L13 52L14 52L14 53L16 53L16 52L14 52L14 51ZM53 52L53 53L54 53L54 52ZM33 53L33 55L35 55L35 56L36 56L36 54L35 54L35 53ZM17 55L17 56L18 56L18 55ZM48 55L48 56L49 56L49 55ZM50 55L50 56L51 56L51 55ZM10 56L10 57L12 57L12 56ZM25 56L25 57L26 57L26 56ZM43 56L43 57L44 57L44 56ZM0 0L0 7L7 7L7 0ZM1 1L1 6L6 6L6 1ZM2 2L2 5L5 5L5 2ZM50 0L50 7L57 7L57 0ZM51 1L51 6L56 6L56 1ZM52 2L52 5L55 5L55 2ZM0 50L0 57L7 57L7 50ZM1 51L1 56L6 56L6 51ZM2 52L2 55L5 55L5 52Z" fill="#000000"/></g></g></svg>
