<?xml version="1.0" encoding="UTF-8"?>
<svg xmlns="http://www.w3.org/2000/svg" version="1.1" width="300" height="300" viewBox="0 0 300 300"><rect x="0" y="0" width="300" height="300" fill="#fefefe"/><g transform="scale(4.615)"><g transform="translate(4,4)"><path fill-rule="evenodd" d="M11 0L11 2L10 2L10 1L8 1L8 2L10 2L10 3L11 3L11 2L12 2L12 4L9 4L9 3L8 3L8 4L9 4L9 5L8 5L8 7L9 7L9 5L13 5L13 6L12 6L12 7L13 7L13 10L11 10L11 9L12 9L12 8L11 8L11 6L10 6L10 9L9 9L9 8L6 8L6 9L7 9L7 10L5 10L5 8L0 8L0 9L2 9L2 10L1 10L1 11L2 11L2 15L3 15L3 17L1 17L1 18L2 18L2 19L0 19L0 20L1 20L1 21L0 21L0 22L1 22L1 23L2 23L2 25L3 25L3 26L2 26L2 28L1 28L1 26L0 26L0 28L1 28L1 29L0 29L0 31L1 31L1 32L2 32L2 34L1 34L1 35L0 35L0 38L1 38L1 39L2 39L2 40L0 40L0 42L1 42L1 41L4 41L4 42L2 42L2 44L3 44L3 43L5 43L5 44L4 44L4 45L1 45L1 43L0 43L0 48L5 48L5 47L8 47L8 51L9 51L9 52L8 52L8 57L9 57L9 54L11 54L11 55L10 55L10 56L11 56L11 57L12 57L12 55L14 55L14 57L15 57L15 55L16 55L16 56L17 56L17 57L20 57L20 56L18 56L18 55L20 55L20 54L19 54L19 53L20 53L20 52L23 52L23 51L22 51L22 50L26 50L26 52L24 52L24 53L21 53L21 55L23 55L23 57L26 57L26 56L27 56L27 57L29 57L29 56L30 56L30 57L31 57L31 56L35 56L35 57L39 57L39 56L41 56L41 54L42 54L42 55L44 55L44 56L43 56L43 57L44 57L44 56L45 56L45 57L49 57L49 56L50 56L50 57L52 57L52 55L51 55L51 53L52 53L52 54L54 54L54 53L57 53L57 52L56 52L56 50L57 50L57 48L56 48L56 46L57 46L57 44L56 44L56 41L55 41L55 39L57 39L57 35L56 35L56 34L57 34L57 32L56 32L56 30L57 30L57 27L56 27L56 26L57 26L57 25L56 25L56 22L57 22L57 20L56 20L56 22L53 22L53 21L51 21L51 20L52 20L52 19L53 19L53 20L55 20L55 19L56 19L56 18L57 18L57 17L56 17L56 16L57 16L57 15L56 15L56 14L57 14L57 12L56 12L56 8L55 8L55 10L54 10L54 11L53 11L53 9L54 9L54 8L53 8L53 9L52 9L52 8L51 8L51 10L52 10L52 11L50 11L50 12L49 12L49 11L48 11L48 10L50 10L50 8L48 8L48 9L47 9L47 8L45 8L45 9L44 9L44 8L43 8L43 6L44 6L44 7L45 7L45 6L46 6L46 7L47 7L47 5L48 5L48 0L46 0L46 1L45 1L45 2L44 2L44 3L43 3L43 4L40 4L40 5L39 5L39 6L38 6L38 8L35 8L35 5L36 5L36 7L37 7L37 5L38 5L38 4L39 4L39 3L42 3L42 2L43 2L43 0L41 0L41 1L40 1L40 0L39 0L39 1L38 1L38 0L37 0L37 1L38 1L38 2L37 2L37 3L36 3L36 0L35 0L35 1L33 1L33 0L30 0L30 1L29 1L29 2L30 2L30 1L33 1L33 2L32 2L32 3L31 3L31 4L26 4L26 3L23 3L23 2L27 2L27 3L28 3L28 2L27 2L27 1L26 1L26 0L23 0L23 2L22 2L22 0L21 0L21 3L23 3L23 4L22 4L22 7L23 7L23 6L24 6L24 8L25 8L25 9L23 9L23 10L22 10L22 11L20 11L20 13L19 13L19 10L20 10L20 8L21 8L21 4L19 4L19 3L20 3L20 2L19 2L19 1L20 1L20 0L19 0L19 1L14 1L14 2L12 2L12 0ZM46 1L46 2L47 2L47 1ZM14 2L14 4L13 4L13 5L14 5L14 6L13 6L13 7L14 7L14 6L15 6L15 7L16 7L16 8L14 8L14 10L15 10L15 11L16 11L16 12L15 12L15 13L12 13L12 16L11 16L11 17L10 17L10 18L11 18L11 17L13 17L13 19L14 19L14 20L13 20L13 21L12 21L12 20L11 20L11 19L6 19L6 18L7 18L7 17L8 17L8 18L9 18L9 17L8 17L8 16L9 16L9 15L11 15L11 14L10 14L10 13L8 13L8 14L7 14L7 13L6 13L6 12L7 12L7 11L6 11L6 12L5 12L5 13L4 13L4 11L5 11L5 10L3 10L3 14L4 14L4 15L5 15L5 13L6 13L6 14L7 14L7 15L6 15L6 16L7 16L7 17L6 17L6 18L5 18L5 19L3 19L3 20L5 20L5 23L4 23L4 26L5 26L5 25L6 25L6 26L7 26L7 25L8 25L8 26L9 26L9 25L8 25L8 24L10 24L10 23L9 23L9 22L10 22L10 21L11 21L11 23L12 23L12 24L11 24L11 25L12 25L12 26L10 26L10 27L9 27L9 28L10 28L10 27L11 27L11 29L13 29L13 31L12 31L12 32L10 32L10 33L9 33L9 32L7 32L7 31L6 31L6 32L7 32L7 33L6 33L6 34L5 34L5 33L3 33L3 34L2 34L2 35L3 35L3 34L4 34L4 35L6 35L6 36L5 36L5 40L4 40L4 38L3 38L3 37L4 37L4 36L3 36L3 37L1 37L1 38L2 38L2 39L3 39L3 40L4 40L4 41L5 41L5 40L7 40L7 39L8 39L8 36L9 36L9 34L10 34L10 36L11 36L11 38L9 38L9 40L8 40L8 41L6 41L6 42L5 42L5 43L6 43L6 44L7 44L7 45L6 45L6 46L8 46L8 47L9 47L9 49L10 49L10 47L11 47L11 46L13 46L13 47L12 47L12 48L11 48L11 52L12 52L12 53L11 53L11 54L13 54L13 53L14 53L14 54L16 54L16 53L17 53L17 51L16 51L16 53L15 53L15 50L18 50L18 52L20 52L20 51L19 51L19 49L20 49L20 50L21 50L21 49L23 49L23 48L24 48L24 49L26 49L26 48L27 48L27 47L28 47L28 48L30 48L30 47L28 47L28 46L29 46L29 45L30 45L30 46L32 46L32 47L31 47L31 48L32 48L32 49L31 49L31 50L32 50L32 49L33 49L33 50L34 50L34 51L33 51L33 52L32 52L32 51L31 51L31 53L30 53L30 54L27 54L27 56L29 56L29 55L30 55L30 56L31 56L31 54L32 54L32 53L33 53L33 54L34 54L34 55L35 55L35 56L36 56L36 54L35 54L35 53L34 53L34 52L35 52L35 50L36 50L36 52L38 52L38 54L40 54L40 53L41 53L41 52L43 52L43 51L42 51L42 50L41 50L41 48L42 48L42 49L43 49L43 48L44 48L44 50L47 50L47 53L46 53L46 51L45 51L45 52L44 52L44 53L43 53L43 54L44 54L44 55L45 55L45 54L46 54L46 55L47 55L47 53L48 53L48 50L47 50L47 49L48 49L48 48L49 48L49 47L48 47L48 46L49 46L49 45L50 45L50 47L51 47L51 46L53 46L53 43L54 43L54 42L53 42L53 41L54 41L54 40L53 40L53 41L51 41L51 42L50 42L50 43L49 43L49 42L48 42L48 41L49 41L49 38L48 38L48 37L50 37L50 35L52 35L52 37L51 37L51 38L50 38L50 39L51 39L51 40L52 40L52 39L55 39L55 37L56 37L56 35L55 35L55 34L56 34L56 32L55 32L55 34L54 34L54 33L52 33L52 32L53 32L53 31L55 31L55 29L56 29L56 27L55 27L55 28L54 28L54 30L53 30L53 31L50 31L50 32L49 32L49 31L48 31L48 29L46 29L46 30L47 30L47 31L48 31L48 32L47 32L47 33L46 33L46 32L43 32L43 31L45 31L45 28L46 28L46 27L47 27L47 25L48 25L48 24L49 24L49 23L50 23L50 24L51 24L51 25L50 25L50 26L52 26L52 25L53 25L53 23L52 23L52 24L51 24L51 23L50 23L50 22L51 22L51 21L49 21L49 19L50 19L50 18L51 18L51 19L52 19L52 18L51 18L51 17L53 17L53 18L55 18L55 17L54 17L54 16L53 16L53 15L55 15L55 14L56 14L56 13L55 13L55 12L54 12L54 13L55 13L55 14L53 14L53 15L50 15L50 14L51 14L51 12L50 12L50 14L49 14L49 15L48 15L48 16L47 16L47 15L45 15L45 14L47 14L47 13L49 13L49 12L45 12L45 11L42 11L42 10L41 10L41 7L42 7L42 6L43 6L43 5L40 5L40 6L39 6L39 8L38 8L38 10L39 10L39 13L38 13L38 14L37 14L37 13L36 13L36 14L37 14L37 15L35 15L35 16L33 16L33 15L32 15L32 14L35 14L35 12L36 12L36 10L37 10L37 9L35 9L35 8L34 8L34 9L33 9L33 7L34 7L34 6L33 6L33 5L35 5L35 4L33 4L33 3L32 3L32 4L31 4L31 8L32 8L32 10L31 10L31 11L30 11L30 10L29 10L29 9L27 9L27 10L29 10L29 12L28 12L28 13L27 13L27 15L26 15L26 16L24 16L24 15L25 15L25 14L26 14L26 12L27 12L27 11L26 11L26 12L25 12L25 11L24 11L24 13L22 13L22 12L21 12L21 13L20 13L20 16L19 16L19 17L20 17L20 18L19 18L19 19L18 19L18 18L17 18L17 13L18 13L18 12L17 12L17 11L18 11L18 10L17 10L17 9L16 9L16 8L19 8L19 7L20 7L20 5L19 5L19 4L18 4L18 2L17 2L17 3L15 3L15 2ZM38 2L38 3L39 3L39 2ZM44 3L44 6L45 6L45 4L46 4L46 5L47 5L47 3ZM15 4L15 5L16 5L16 4ZM17 4L17 5L18 5L18 4ZM23 4L23 5L24 5L24 4ZM25 4L25 8L26 8L26 4ZM32 4L32 5L33 5L33 4ZM36 4L36 5L37 5L37 4ZM27 5L27 8L30 8L30 5ZM16 6L16 7L17 7L17 6ZM18 6L18 7L19 7L19 6ZM28 6L28 7L29 7L29 6ZM32 6L32 7L33 7L33 6ZM40 6L40 7L41 7L41 6ZM48 6L48 7L49 7L49 6ZM42 8L42 9L43 9L43 10L44 10L44 9L43 9L43 8ZM8 9L8 11L9 11L9 9ZM45 9L45 10L47 10L47 9ZM10 10L10 12L11 12L11 10ZM16 10L16 11L17 11L17 10ZM32 10L32 12L31 12L31 13L30 13L30 14L29 14L29 13L28 13L28 14L29 14L29 16L28 16L28 15L27 15L27 16L28 16L28 17L26 17L26 18L28 18L28 19L27 19L27 20L28 20L28 19L30 19L30 18L33 18L33 19L31 19L31 20L30 20L30 22L29 22L29 23L28 23L28 24L27 24L27 22L28 22L28 21L25 21L25 20L26 20L26 19L25 19L25 17L22 17L22 16L20 16L20 17L22 17L22 18L21 18L21 19L22 19L22 20L24 20L24 21L22 21L22 22L24 22L24 21L25 21L25 22L26 22L26 23L25 23L25 24L24 24L24 23L23 23L23 24L24 24L24 25L22 25L22 26L20 26L20 25L21 25L21 24L20 24L20 25L19 25L19 23L20 23L20 22L17 22L17 21L20 21L20 19L19 19L19 20L17 20L17 18L15 18L15 17L16 17L16 13L17 13L17 12L16 12L16 13L15 13L15 14L14 14L14 15L13 15L13 17L14 17L14 18L15 18L15 21L16 21L16 22L14 22L14 21L13 21L13 22L12 22L12 23L13 23L13 24L14 24L14 25L13 25L13 26L12 26L12 28L13 28L13 27L14 27L14 28L15 28L15 27L16 27L16 26L15 26L15 25L17 25L17 27L18 27L18 26L20 26L20 28L19 28L19 29L18 29L18 28L16 28L16 29L15 29L15 31L13 31L13 32L12 32L12 33L11 33L11 36L12 36L12 37L14 37L14 38L11 38L11 39L10 39L10 40L9 40L9 42L8 42L8 43L7 43L7 42L6 42L6 43L7 43L7 44L8 44L8 45L9 45L9 47L10 47L10 46L11 46L11 44L12 44L12 45L14 45L14 44L18 44L18 45L17 45L17 46L19 46L19 47L17 47L17 48L15 48L15 47L13 47L13 49L12 49L12 51L13 51L13 52L14 52L14 51L13 51L13 50L15 50L15 49L19 49L19 47L20 47L20 49L21 49L21 47L23 47L23 46L24 46L24 47L25 47L25 48L26 48L26 47L27 47L27 46L28 46L28 45L29 45L29 44L31 44L31 45L32 45L32 46L33 46L33 47L34 47L34 48L33 48L33 49L36 49L36 50L38 50L38 51L40 51L40 52L41 52L41 50L38 50L38 49L39 49L39 48L41 48L41 46L43 46L43 47L42 47L42 48L43 48L43 47L44 47L44 48L46 48L46 49L47 49L47 48L48 48L48 47L47 47L47 46L48 46L48 45L49 45L49 44L48 44L48 45L47 45L47 43L48 43L48 42L45 42L45 43L46 43L46 44L45 44L45 45L47 45L47 46L45 46L45 47L44 47L44 46L43 46L43 45L44 45L44 42L43 42L43 41L44 41L44 40L45 40L45 41L47 41L47 39L48 39L48 38L47 38L47 39L46 39L46 38L45 38L45 37L46 37L46 36L45 36L45 35L47 35L47 36L48 36L48 35L50 35L50 34L52 34L52 35L53 35L53 37L55 37L55 35L53 35L53 34L52 34L52 33L51 33L51 32L50 32L50 34L48 34L48 35L47 35L47 34L45 34L45 33L43 33L43 32L41 32L41 33L39 33L39 34L40 34L40 35L38 35L38 33L37 33L37 32L35 32L35 34L33 34L33 33L32 33L32 31L33 31L33 32L34 32L34 31L36 31L36 29L38 29L38 28L42 28L42 26L43 26L43 28L45 28L45 26L44 26L44 24L43 24L43 23L44 23L44 20L45 20L45 19L46 19L46 20L47 20L47 19L46 19L46 18L44 18L44 15L42 15L42 16L41 16L41 15L40 15L40 14L44 14L44 12L43 12L43 13L40 13L40 14L38 14L38 15L39 15L39 16L38 16L38 17L37 17L37 16L35 16L35 17L37 17L37 18L38 18L38 17L39 17L39 19L37 19L37 20L36 20L36 19L35 19L35 18L33 18L33 17L32 17L32 16L31 16L31 15L30 15L30 14L32 14L32 12L33 12L33 13L34 13L34 12L33 12L33 10ZM40 10L40 12L41 12L41 10ZM12 11L12 12L14 12L14 11ZM0 12L0 14L1 14L1 12ZM52 12L52 13L53 13L53 12ZM21 13L21 15L23 15L23 14L22 14L22 13ZM24 13L24 14L25 14L25 13ZM18 14L18 15L19 15L19 14ZM0 15L0 16L1 16L1 15ZM7 15L7 16L8 16L8 15ZM14 15L14 17L15 17L15 15ZM49 15L49 16L48 16L48 17L47 17L47 16L45 16L45 17L47 17L47 18L50 18L50 17L49 17L49 16L50 16L50 15ZM39 16L39 17L41 17L41 16ZM42 16L42 17L43 17L43 16ZM3 17L3 18L4 18L4 17ZM22 18L22 19L24 19L24 18ZM41 18L41 19L42 19L42 20L44 20L44 18L43 18L43 19L42 19L42 18ZM6 20L6 21L7 21L7 22L6 22L6 23L5 23L5 24L6 24L6 25L7 25L7 24L8 24L8 22L9 22L9 20ZM16 20L16 21L17 21L17 20ZM32 20L32 21L31 21L31 22L30 22L30 23L31 23L31 24L28 24L28 26L29 26L29 25L31 25L31 24L32 24L32 26L31 26L31 27L32 27L32 29L31 29L31 30L35 30L35 28L36 28L36 27L41 27L41 26L42 26L42 25L41 25L41 24L38 24L38 23L37 23L37 24L38 24L38 26L37 26L37 25L33 25L33 24L32 24L32 23L33 23L33 22L34 22L34 23L35 23L35 21L34 21L34 20ZM38 20L38 22L39 22L39 23L40 23L40 22L39 22L39 21L41 21L41 20ZM2 21L2 22L4 22L4 21ZM45 21L45 22L46 22L46 23L45 23L45 24L47 24L47 23L49 23L49 21L47 21L47 22L46 22L46 21ZM13 22L13 23L14 23L14 24L16 24L16 23L14 23L14 22ZM6 23L6 24L7 24L7 23ZM17 23L17 24L18 24L18 23ZM25 24L25 25L26 25L26 26L25 26L25 27L24 27L24 26L22 26L22 27L21 27L21 28L20 28L20 31L18 31L18 29L16 29L16 31L15 31L15 34L17 34L17 36L16 36L16 35L14 35L14 37L16 37L16 38L14 38L14 39L13 39L13 40L11 40L11 41L10 41L10 44L11 44L11 43L12 43L12 42L14 42L14 41L13 41L13 40L14 40L14 39L16 39L16 41L15 41L15 42L17 42L17 43L18 43L18 42L19 42L19 41L20 41L20 42L21 42L21 43L20 43L20 44L21 44L21 45L19 45L19 46L21 46L21 45L22 45L22 46L23 46L23 45L22 45L22 44L21 44L21 43L22 43L22 42L23 42L23 40L24 40L24 41L25 41L25 43L23 43L23 44L25 44L25 47L26 47L26 45L28 45L28 43L27 43L27 42L29 42L29 40L32 40L32 41L31 41L31 42L32 42L32 43L31 43L31 44L32 44L32 45L33 45L33 46L35 46L35 48L36 48L36 47L37 47L37 46L36 46L36 45L34 45L34 43L35 43L35 44L36 44L36 43L37 43L37 42L35 42L35 40L38 40L38 42L39 42L39 43L40 43L40 44L39 44L39 45L38 45L38 46L39 46L39 47L38 47L38 48L37 48L37 49L38 49L38 48L39 48L39 47L40 47L40 45L41 45L41 44L42 44L42 43L40 43L40 42L41 42L41 40L42 40L42 41L43 41L43 40L44 40L44 39L45 39L45 38L44 38L44 37L45 37L45 36L44 36L44 35L45 35L45 34L42 34L42 35L41 35L41 36L40 36L40 37L38 37L38 35L37 35L37 34L35 34L35 36L37 36L37 37L38 37L38 38L37 38L37 39L35 39L35 37L33 37L33 36L34 36L34 35L33 35L33 36L32 36L32 37L33 37L33 39L29 39L29 38L31 38L31 37L29 37L29 36L30 36L30 34L29 34L29 33L31 33L31 31L28 31L28 32L27 32L27 33L25 33L25 32L20 32L20 31L23 31L23 28L25 28L25 29L26 29L26 28L25 28L25 27L26 27L26 26L27 26L27 24ZM54 24L54 25L55 25L55 26L56 26L56 25L55 25L55 24ZM39 25L39 26L41 26L41 25ZM14 26L14 27L15 27L15 26ZM32 26L32 27L33 27L33 28L35 28L35 27L36 27L36 26L34 26L34 27L33 27L33 26ZM53 26L53 27L54 27L54 26ZM3 27L3 28L2 28L2 29L1 29L1 30L4 30L4 29L3 29L3 28L4 28L4 27ZM5 27L5 30L8 30L8 27ZM27 27L27 30L30 30L30 27ZM49 27L49 30L52 30L52 27ZM6 28L6 29L7 29L7 28ZM21 28L21 29L22 29L22 28ZM28 28L28 29L29 29L29 28ZM50 28L50 29L51 29L51 28ZM39 29L39 30L38 30L38 32L39 32L39 30L40 30L40 29ZM41 29L41 30L44 30L44 29ZM10 30L10 31L11 31L11 30ZM24 30L24 31L25 31L25 30ZM2 31L2 32L5 32L5 31ZM13 32L13 33L12 33L12 34L14 34L14 32ZM17 32L17 33L18 33L18 34L20 34L20 32ZM28 32L28 33L29 33L29 32ZM48 32L48 33L49 33L49 32ZM7 33L7 34L6 34L6 35L7 35L7 36L6 36L6 37L7 37L7 36L8 36L8 34L9 34L9 33ZM21 33L21 35L20 35L20 36L23 36L23 37L24 37L24 38L23 38L23 39L22 39L22 40L23 40L23 39L24 39L24 40L25 40L25 39L27 39L27 40L28 40L28 39L27 39L27 38L28 38L28 37L27 37L27 34L25 34L25 33L23 33L23 34L22 34L22 33ZM23 34L23 36L24 36L24 34ZM31 34L31 35L32 35L32 34ZM18 35L18 36L17 36L17 37L18 37L18 38L17 38L17 40L18 40L18 41L17 41L17 42L18 42L18 41L19 41L19 40L21 40L21 37L19 37L19 35ZM43 36L43 37L40 37L40 38L43 38L43 37L44 37L44 36ZM25 37L25 38L27 38L27 37ZM6 38L6 39L7 39L7 38ZM19 38L19 39L20 39L20 38ZM51 38L51 39L52 39L52 38ZM33 39L33 40L35 40L35 39ZM38 39L38 40L40 40L40 39ZM42 39L42 40L43 40L43 39ZM26 41L26 42L27 42L27 41ZM32 41L32 42L33 42L33 43L32 43L32 44L33 44L33 43L34 43L34 42L33 42L33 41ZM51 42L51 43L50 43L50 45L51 45L51 43L53 43L53 42ZM8 43L8 44L9 44L9 43ZM25 43L25 44L27 44L27 43ZM54 44L54 45L55 45L55 46L54 46L54 47L55 47L55 46L56 46L56 45L55 45L55 44ZM4 45L4 46L3 46L3 47L5 47L5 45ZM1 46L1 47L2 47L2 46ZM46 47L46 48L47 48L47 47ZM6 48L6 49L7 49L7 48ZM53 48L53 49L54 49L54 48ZM55 48L55 50L54 50L54 51L55 51L55 50L56 50L56 48ZM27 49L27 52L30 52L30 49ZM49 49L49 52L52 52L52 49ZM9 50L9 51L10 51L10 50ZM28 50L28 51L29 51L29 50ZM50 50L50 51L51 51L51 50ZM53 52L53 53L54 53L54 52ZM24 53L24 54L23 54L23 55L24 55L24 56L26 56L26 53ZM44 53L44 54L45 54L45 53ZM17 54L17 55L18 55L18 54ZM37 55L37 56L39 56L39 55ZM48 55L48 56L49 56L49 55ZM50 55L50 56L51 56L51 55ZM53 55L53 56L55 56L55 57L56 57L56 56L55 56L55 55ZM0 0L0 7L7 7L7 0ZM1 1L1 6L6 6L6 1ZM2 2L2 5L5 5L5 2ZM50 0L50 7L57 7L57 0ZM51 1L51 6L56 6L56 1ZM52 2L52 5L55 5L55 2ZM0 50L0 57L7 57L7 50ZM1 51L1 56L6 56L6 51ZM2 52L2 55L5 55L5 52Z" fill="#000000"/></g></g></svg>
