<?xml version="1.0" encoding="UTF-8"?>
<svg xmlns="http://www.w3.org/2000/svg" version="1.1" width="300" height="300" viewBox="0 0 300 300"><rect x="0" y="0" width="300" height="300" fill="#fefefe"/><g transform="scale(4.615)"><g transform="translate(4,4)"><path fill-rule="evenodd" d="M9 0L9 1L8 1L8 2L9 2L9 3L8 3L8 4L9 4L9 5L8 5L8 7L9 7L9 5L11 5L11 6L10 6L10 7L11 7L11 6L12 6L12 7L13 7L13 8L12 8L12 9L11 9L11 10L10 10L10 8L6 8L6 9L5 9L5 8L0 8L0 11L1 11L1 12L0 12L0 14L1 14L1 13L2 13L2 14L3 14L3 16L2 16L2 15L1 15L1 16L2 16L2 18L0 18L0 21L2 21L2 22L0 22L0 26L1 26L1 25L2 25L2 27L1 27L1 28L0 28L0 29L1 29L1 30L0 30L0 31L1 31L1 30L2 30L2 31L3 31L3 32L0 32L0 34L2 34L2 33L3 33L3 35L4 35L4 36L3 36L3 37L1 37L1 36L0 36L0 37L1 37L1 38L0 38L0 43L1 43L1 44L2 44L2 41L3 41L3 39L4 39L4 42L5 42L5 43L4 43L4 45L2 45L2 47L1 47L1 45L0 45L0 48L5 48L5 47L7 47L7 48L6 48L6 49L7 49L7 48L8 48L8 51L9 51L9 52L8 52L8 57L12 57L12 55L14 55L14 56L13 56L13 57L16 57L16 56L17 56L17 57L19 57L19 55L20 55L20 54L19 54L19 55L18 55L18 56L17 56L17 53L20 53L20 52L23 52L23 51L22 51L22 50L25 50L25 51L26 51L26 52L24 52L24 53L23 53L23 54L22 54L22 55L21 55L21 56L24 56L24 57L26 57L26 56L27 56L27 57L29 57L29 56L30 56L30 57L31 57L31 56L35 56L35 57L39 57L39 56L41 56L41 57L44 57L44 56L41 56L41 55L44 55L44 54L45 54L45 55L46 55L46 54L45 54L45 53L47 53L47 55L48 55L48 56L50 56L50 57L52 57L52 55L51 55L51 53L52 53L52 54L53 54L53 52L54 52L54 54L55 54L55 51L56 51L56 52L57 52L57 51L56 51L56 50L55 50L55 48L56 48L56 49L57 49L57 48L56 48L56 46L57 46L57 45L56 45L56 46L54 46L54 44L55 44L55 43L56 43L56 44L57 44L57 43L56 43L56 42L55 42L55 39L57 39L57 37L56 37L56 33L57 33L57 32L56 32L56 30L57 30L57 28L56 28L56 27L55 27L55 26L57 26L57 25L56 25L56 22L57 22L57 19L56 19L56 16L57 16L57 15L56 15L56 14L57 14L57 13L56 13L56 14L55 14L55 13L54 13L54 12L56 12L56 10L54 10L54 11L52 11L52 10L53 10L53 9L54 9L54 8L53 8L53 9L52 9L52 8L51 8L51 11L50 11L50 12L49 12L49 11L48 11L48 10L50 10L50 8L49 8L49 6L48 6L48 7L47 7L47 5L48 5L48 0L45 0L45 2L44 2L44 3L41 3L41 2L43 2L43 0L41 0L41 1L40 1L40 0L39 0L39 1L38 1L38 0L37 0L37 1L38 1L38 3L41 3L41 4L40 4L40 5L39 5L39 6L38 6L38 7L37 7L37 5L38 5L38 4L37 4L37 3L36 3L36 0L35 0L35 1L33 1L33 0L27 0L27 1L26 1L26 0L23 0L23 1L22 1L22 0L21 0L21 1L22 1L22 2L21 2L21 3L23 3L23 4L24 4L24 5L23 5L23 6L22 6L22 7L21 7L21 4L19 4L19 3L20 3L20 2L19 2L19 1L20 1L20 0L17 0L17 1L18 1L18 2L17 2L17 3L18 3L18 4L17 4L17 6L16 6L16 7L15 7L15 6L14 6L14 7L13 7L13 4L14 4L14 2L16 2L16 1L14 1L14 0L13 0L13 1L12 1L12 2L13 2L13 4L12 4L12 3L11 3L11 1L10 1L10 0ZM13 1L13 2L14 2L14 1ZM25 1L25 2L23 2L23 3L26 3L26 4L25 4L25 8L26 8L26 4L30 4L30 3L28 3L28 2L29 2L29 1L28 1L28 2L26 2L26 1ZM31 1L31 3L32 3L32 4L31 4L31 8L32 8L32 10L31 10L31 11L30 11L30 10L29 10L29 9L27 9L27 10L28 10L28 11L29 11L29 12L28 12L28 13L26 13L26 12L27 12L27 11L26 11L26 12L25 12L25 10L24 10L24 12L23 12L23 13L22 13L22 12L20 12L20 11L22 11L22 10L23 10L23 9L24 9L24 6L23 6L23 7L22 7L22 8L19 8L19 9L20 9L20 11L19 11L19 12L20 12L20 14L19 14L19 15L17 15L17 13L18 13L18 12L17 12L17 11L18 11L18 10L17 10L17 9L16 9L16 8L17 8L17 7L18 7L18 6L19 6L19 7L20 7L20 5L19 5L19 4L18 4L18 6L17 6L17 7L16 7L16 8L15 8L15 7L14 7L14 9L12 9L12 10L11 10L11 12L12 12L12 11L13 11L13 12L14 12L14 11L13 11L13 10L15 10L15 13L13 13L13 14L12 14L12 13L11 13L11 15L12 15L12 16L8 16L8 18L9 18L9 17L10 17L10 18L11 18L11 19L10 19L10 20L9 20L9 21L6 21L6 20L8 20L8 19L6 19L6 18L7 18L7 17L6 17L6 16L7 16L7 15L8 15L8 14L9 14L9 15L10 15L10 14L9 14L9 13L10 13L10 12L8 12L8 11L9 11L9 9L6 9L6 10L4 10L4 11L3 11L3 10L2 10L2 9L1 9L1 11L3 11L3 13L5 13L5 12L7 12L7 13L6 13L6 14L7 14L7 15L6 15L6 16L5 16L5 15L4 15L4 16L3 16L3 18L2 18L2 20L3 20L3 24L2 24L2 23L1 23L1 24L2 24L2 25L3 25L3 27L4 27L4 25L5 25L5 24L4 24L4 21L5 21L5 22L8 22L8 23L6 23L6 24L9 24L9 21L10 21L10 22L12 22L12 23L10 23L10 25L9 25L9 26L11 26L11 27L9 27L9 30L10 30L10 28L11 28L11 29L12 29L12 30L11 30L11 31L10 31L10 32L12 32L12 30L13 30L13 33L14 33L14 31L15 31L15 29L16 29L16 30L17 30L17 32L16 32L16 33L15 33L15 34L13 34L13 35L12 35L12 33L11 33L11 34L10 34L10 33L9 33L9 32L8 32L8 33L5 33L5 32L7 32L7 31L4 31L4 32L3 32L3 33L4 33L4 35L6 35L6 36L7 36L7 37L5 37L5 36L4 36L4 37L5 37L5 38L4 38L4 39L5 39L5 40L7 40L7 41L6 41L6 42L7 42L7 41L8 41L8 43L5 43L5 45L4 45L4 46L3 46L3 47L5 47L5 46L7 46L7 45L8 45L8 44L9 44L9 46L8 46L8 47L9 47L9 48L10 48L10 46L11 46L11 45L12 45L12 44L11 44L11 43L10 43L10 42L12 42L12 43L13 43L13 41L14 41L14 43L15 43L15 44L13 44L13 46L12 46L12 47L11 47L11 48L13 48L13 49L14 49L14 51L15 51L15 52L16 52L16 53L15 53L15 54L16 54L16 53L17 53L17 52L18 52L18 51L15 51L15 49L16 49L16 50L17 50L17 49L16 49L16 48L17 48L17 47L18 47L18 48L19 48L19 46L17 46L17 45L18 45L18 44L17 44L17 45L16 45L16 42L17 42L17 43L18 43L18 42L19 42L19 41L20 41L20 42L21 42L21 43L20 43L20 46L21 46L21 45L22 45L22 46L23 46L23 47L20 47L20 51L21 51L21 49L23 49L23 48L24 48L24 49L25 49L25 50L26 50L26 49L25 49L25 48L28 48L28 47L29 47L29 46L30 46L30 43L29 43L29 40L30 40L30 42L32 42L32 43L31 43L31 44L32 44L32 45L31 45L31 47L32 47L32 45L33 45L33 46L35 46L35 47L33 47L33 48L32 48L32 51L31 51L31 53L30 53L30 54L27 54L27 53L24 53L24 54L23 54L23 55L24 55L24 56L26 56L26 54L27 54L27 56L29 56L29 55L30 55L30 56L31 56L31 54L32 54L32 53L33 53L33 54L34 54L34 55L35 55L35 56L36 56L36 54L35 54L35 53L34 53L34 52L35 52L35 50L36 50L36 52L38 52L38 53L37 53L37 54L40 54L40 53L41 53L41 52L40 52L40 51L39 51L39 52L38 52L38 50L41 50L41 51L42 51L42 52L43 52L43 51L42 51L42 50L41 50L41 48L42 48L42 49L43 49L43 50L44 50L44 51L45 51L45 52L44 52L44 53L43 53L43 54L44 54L44 53L45 53L45 52L46 52L46 51L47 51L47 53L48 53L48 50L47 50L47 49L48 49L48 48L49 48L49 47L48 47L48 46L47 46L47 45L49 45L49 46L50 46L50 48L53 48L53 47L54 47L54 46L53 46L53 45L52 45L52 44L53 44L53 43L54 43L54 42L53 42L53 41L51 41L51 42L50 42L50 43L49 43L49 42L48 42L48 41L49 41L49 39L47 39L47 37L48 37L48 36L50 36L50 39L51 39L51 40L52 40L52 39L53 39L53 35L55 35L55 34L54 34L54 33L56 33L56 32L53 32L53 33L52 33L52 32L51 32L51 31L50 31L50 32L49 32L49 31L48 31L48 28L47 28L47 29L46 29L46 30L47 30L47 31L48 31L48 32L47 32L47 33L46 33L46 31L45 31L45 32L43 32L43 30L44 30L44 29L45 29L45 28L46 28L46 27L47 27L47 25L48 25L48 24L49 24L49 25L50 25L50 26L51 26L51 25L53 25L53 23L55 23L55 22L56 22L56 19L55 19L55 20L53 20L53 19L52 19L52 20L51 20L51 21L49 21L49 22L48 22L48 24L47 24L47 23L46 23L46 22L47 22L47 19L48 19L48 18L47 18L47 15L46 15L46 17L45 17L45 15L44 15L44 13L45 13L45 14L47 14L47 13L49 13L49 12L45 12L45 11L46 11L46 10L47 10L47 7L46 7L46 6L45 6L45 4L46 4L46 5L47 5L47 3L44 3L44 6L43 6L43 5L40 5L40 6L39 6L39 7L40 7L40 8L38 8L38 10L37 10L37 9L35 9L35 8L37 8L37 7L36 7L36 5L37 5L37 4L36 4L36 5L35 5L35 2L33 2L33 1ZM46 1L46 2L47 2L47 1ZM18 2L18 3L19 3L19 2ZM32 2L32 3L33 3L33 2ZM10 3L10 4L11 4L11 3ZM15 4L15 5L16 5L16 4ZM32 4L32 5L34 5L34 7L33 7L33 6L32 6L32 7L33 7L33 9L34 9L34 8L35 8L35 5L34 5L34 4ZM27 5L27 8L30 8L30 5ZM28 6L28 7L29 7L29 6ZM40 6L40 7L41 7L41 10L40 10L40 9L39 9L39 10L38 10L38 11L37 11L37 10L36 10L36 12L35 12L35 13L36 13L36 14L33 14L33 13L34 13L34 12L33 12L33 13L32 13L32 12L31 12L31 13L30 13L30 14L29 14L29 13L28 13L28 14L29 14L29 16L28 16L28 15L27 15L27 14L26 14L26 15L24 15L24 14L25 14L25 13L23 13L23 14L22 14L22 13L21 13L21 14L20 14L20 15L19 15L19 16L16 16L16 13L17 13L17 12L16 12L16 13L15 13L15 14L13 14L13 16L14 16L14 15L15 15L15 16L16 16L16 17L12 17L12 19L11 19L11 20L10 20L10 21L11 21L11 20L12 20L12 21L13 21L13 22L14 22L14 21L13 21L13 20L14 20L14 19L13 19L13 18L15 18L15 19L17 19L17 18L18 18L18 19L19 19L19 18L20 18L20 17L22 17L22 18L21 18L21 19L20 19L20 20L17 20L17 21L16 21L16 20L15 20L15 21L16 21L16 22L15 22L15 23L16 23L16 24L14 24L14 23L12 23L12 24L14 24L14 25L16 25L16 24L17 24L17 26L16 26L16 27L18 27L18 26L19 26L19 28L20 28L20 29L18 29L18 28L16 28L16 29L18 29L18 30L20 30L20 32L17 32L17 33L18 33L18 34L16 34L16 35L15 35L15 36L16 36L16 35L17 35L17 36L18 36L18 37L17 37L17 38L18 38L18 37L19 37L19 38L20 38L20 39L19 39L19 40L17 40L17 41L19 41L19 40L22 40L22 38L23 38L23 39L24 39L24 40L23 40L23 41L24 41L24 42L22 42L22 41L21 41L21 42L22 42L22 43L21 43L21 44L22 44L22 45L23 45L23 46L25 46L25 45L24 45L24 44L23 44L23 43L25 43L25 44L29 44L29 43L25 43L25 41L24 41L24 40L25 40L25 39L27 39L27 40L28 40L28 39L27 39L27 38L28 38L28 37L27 37L27 34L26 34L26 35L25 35L25 33L26 33L26 32L27 32L27 31L29 31L29 32L28 32L28 33L29 33L29 34L30 34L30 36L29 36L29 37L31 37L31 38L29 38L29 39L33 39L33 40L35 40L35 42L37 42L37 43L36 43L36 44L35 44L35 43L34 43L34 42L33 42L33 41L32 41L32 40L31 40L31 41L32 41L32 42L33 42L33 43L32 43L32 44L33 44L33 43L34 43L34 45L35 45L35 46L36 46L36 48L34 48L34 49L36 49L36 50L38 50L38 49L39 49L39 48L41 48L41 46L43 46L43 47L42 47L42 48L43 48L43 49L44 49L44 50L45 50L45 49L44 49L44 48L43 48L43 47L44 47L44 46L45 46L45 47L46 47L46 49L47 49L47 48L48 48L48 47L47 47L47 46L45 46L45 45L47 45L47 43L48 43L48 42L47 42L47 43L46 43L46 44L45 44L45 45L44 45L44 44L43 44L43 42L44 42L44 41L43 41L43 40L47 40L47 39L46 39L46 38L45 38L45 37L44 37L44 36L46 36L46 34L45 34L45 35L44 35L44 33L43 33L43 32L41 32L41 33L39 33L39 34L40 34L40 35L39 35L39 36L38 36L38 33L37 33L37 32L35 32L35 34L37 34L37 36L35 36L35 35L34 35L34 34L33 34L33 33L32 33L32 32L34 32L34 31L36 31L36 30L31 30L31 29L32 29L32 28L31 28L31 26L32 26L32 27L33 27L33 28L35 28L35 29L38 29L38 28L40 28L40 27L41 27L41 28L42 28L42 27L41 27L41 26L43 26L43 25L44 25L44 26L45 26L45 25L47 25L47 24L46 24L46 23L45 23L45 25L44 25L44 24L43 24L43 25L39 25L39 26L40 26L40 27L36 27L36 26L34 26L34 27L33 27L33 26L32 26L32 24L33 24L33 25L37 25L37 26L38 26L38 24L41 24L41 23L44 23L44 20L46 20L46 18L44 18L44 15L42 15L42 16L41 16L41 14L43 14L43 13L44 13L44 11L45 11L45 10L46 10L46 9L44 9L44 7L45 7L45 8L46 8L46 7L45 7L45 6L44 6L44 7L43 7L43 6L42 6L42 7L41 7L41 6ZM42 8L42 9L43 9L43 8ZM48 8L48 9L49 9L49 8ZM55 8L55 9L56 9L56 8ZM15 9L15 10L16 10L16 9ZM21 9L21 10L22 10L22 9ZM6 10L6 11L7 11L7 10ZM32 10L32 11L33 11L33 10ZM41 10L41 12L39 12L39 13L38 13L38 14L37 14L37 15L35 15L35 16L31 16L31 17L32 17L32 18L30 18L30 19L33 19L33 18L35 18L35 19L34 19L34 20L32 20L32 21L31 21L31 20L29 20L29 19L28 19L28 18L27 18L27 19L26 19L26 20L25 20L25 21L24 21L24 20L22 20L22 21L21 21L21 20L20 20L20 21L17 21L17 22L20 22L20 23L18 23L18 24L22 24L22 25L20 25L20 27L21 27L21 28L22 28L22 29L20 29L20 30L21 30L21 31L23 31L23 32L21 32L21 33L20 33L20 35L19 35L19 34L18 34L18 36L19 36L19 37L23 37L23 38L24 38L24 37L23 37L23 36L24 36L24 34L23 34L23 33L25 33L25 32L26 32L26 31L25 31L25 30L23 30L23 29L26 29L26 28L23 28L23 26L22 26L22 25L24 25L24 24L25 24L25 25L26 25L26 26L25 26L25 27L26 27L26 26L27 26L27 25L28 25L28 26L30 26L30 25L29 25L29 24L30 24L30 22L29 22L29 21L31 21L31 24L32 24L32 23L33 23L33 22L34 22L34 23L35 23L35 21L34 21L34 20L35 20L35 19L36 19L36 20L37 20L37 19L39 19L39 17L41 17L41 16L39 16L39 15L38 15L38 14L39 14L39 13L43 13L43 11L42 11L42 10ZM50 12L50 14L49 14L49 15L48 15L48 16L49 16L49 17L50 17L50 18L49 18L49 19L51 19L51 17L53 17L53 18L55 18L55 17L53 17L53 15L54 15L54 14L53 14L53 15L52 15L52 16L51 16L51 15L50 15L50 14L51 14L51 12ZM52 12L52 13L53 13L53 12ZM30 14L30 15L31 15L31 14ZM21 15L21 16L22 16L22 17L25 17L25 18L26 18L26 16L27 16L27 17L28 17L28 16L27 16L27 15L26 15L26 16L24 16L24 15ZM49 15L49 16L50 16L50 15ZM4 16L4 19L3 19L3 20L5 20L5 16ZM19 16L19 17L20 17L20 16ZM35 16L35 17L37 17L37 18L38 18L38 17L39 17L39 16L38 16L38 17L37 17L37 16ZM42 16L42 17L43 17L43 16ZM16 17L16 18L17 18L17 17ZM22 18L22 19L24 19L24 18ZM41 18L41 20L38 20L38 23L37 23L37 24L38 24L38 23L40 23L40 22L39 22L39 21L43 21L43 20L44 20L44 18L43 18L43 19L42 19L42 18ZM12 19L12 20L13 20L13 19ZM22 21L22 22L21 22L21 23L23 23L23 24L24 24L24 23L23 23L23 22L24 22L24 21ZM25 21L25 22L26 22L26 23L25 23L25 24L28 24L28 23L27 23L27 22L28 22L28 21ZM45 21L45 22L46 22L46 21ZM51 21L51 22L50 22L50 23L49 23L49 24L50 24L50 25L51 25L51 24L50 24L50 23L53 23L53 22L54 22L54 21ZM3 24L3 25L4 25L4 24ZM6 25L6 26L8 26L8 25ZM11 25L11 26L12 26L12 25ZM13 26L13 27L14 27L14 26ZM21 26L21 27L22 27L22 26ZM53 26L53 27L54 27L54 26ZM5 27L5 30L8 30L8 27ZM27 27L27 30L30 30L30 27ZM35 27L35 28L36 28L36 27ZM44 27L44 28L43 28L43 29L40 29L40 30L43 30L43 29L44 29L44 28L45 28L45 27ZM49 27L49 30L52 30L52 27ZM1 28L1 29L2 29L2 30L4 30L4 28L3 28L3 29L2 29L2 28ZM6 28L6 29L7 29L7 28ZM13 28L13 29L14 29L14 28ZM28 28L28 29L29 29L29 28ZM50 28L50 29L51 29L51 28ZM54 28L54 29L53 29L53 30L54 30L54 29L55 29L55 28ZM38 30L38 32L39 32L39 30ZM30 31L30 32L29 32L29 33L31 33L31 32L32 32L32 31ZM48 32L48 33L49 33L49 32ZM50 32L50 34L48 34L48 35L50 35L50 36L52 36L52 35L53 35L53 34L52 34L52 33L51 33L51 32ZM8 33L8 34L9 34L9 35L8 35L8 37L7 37L7 38L5 38L5 39L7 39L7 40L8 40L8 41L9 41L9 42L10 42L10 40L12 40L12 39L11 39L11 37L9 37L9 36L10 36L10 34L9 34L9 33ZM21 33L21 35L20 35L20 36L22 36L22 33ZM6 34L6 35L7 35L7 34ZM32 34L32 35L33 35L33 36L32 36L32 37L33 37L33 38L34 38L34 39L35 39L35 40L38 40L38 42L39 42L39 41L41 41L41 39L42 39L42 40L43 40L43 39L45 39L45 38L44 38L44 37L43 37L43 36L44 36L44 35L43 35L43 34L42 34L42 35L41 35L41 36L40 36L40 37L38 37L38 38L37 38L37 39L35 39L35 37L33 37L33 36L34 36L34 35L33 35L33 34ZM50 34L50 35L52 35L52 34ZM11 35L11 36L12 36L12 37L13 37L13 40L14 40L14 41L15 41L15 40L16 40L16 39L15 39L15 38L16 38L16 37L13 37L13 36L12 36L12 35ZM25 37L25 38L27 38L27 37ZM40 37L40 38L43 38L43 37ZM1 38L1 41L2 41L2 39L3 39L3 38ZM7 38L7 39L10 39L10 38ZM54 38L54 39L55 39L55 38ZM14 39L14 40L15 40L15 39ZM38 39L38 40L40 40L40 39ZM26 41L26 42L27 42L27 41ZM51 42L51 43L50 43L50 46L51 46L51 47L53 47L53 46L51 46L51 43L53 43L53 42ZM9 43L9 44L10 44L10 45L11 45L11 44L10 44L10 43ZM39 43L39 45L38 45L38 46L41 46L41 44L42 44L42 43ZM6 44L6 45L7 45L7 44ZM14 45L14 46L13 46L13 48L14 48L14 49L15 49L15 47L16 47L16 46L15 46L15 45ZM26 45L26 47L27 47L27 45ZM36 45L36 46L37 46L37 45ZM14 46L14 47L15 47L15 46ZM38 47L38 48L37 48L37 49L38 49L38 48L39 48L39 47ZM9 49L9 51L10 51L10 53L11 53L11 54L9 54L9 55L10 55L10 56L11 56L11 55L12 55L12 54L13 54L13 53L14 53L14 52L13 52L13 51L12 51L12 52L13 52L13 53L11 53L11 51L10 51L10 50L11 50L11 49ZM27 49L27 52L30 52L30 49ZM49 49L49 52L52 52L52 49ZM28 50L28 51L29 51L29 50ZM33 50L33 51L32 51L32 52L33 52L33 51L34 51L34 50ZM50 50L50 51L51 51L51 50ZM54 50L54 51L55 51L55 50ZM15 55L15 56L16 56L16 55ZM37 55L37 56L39 56L39 55ZM50 55L50 56L51 56L51 55ZM53 55L53 56L55 56L55 57L56 57L56 56L55 56L55 55ZM45 56L45 57L46 57L46 56ZM0 0L0 7L7 7L7 0ZM1 1L1 6L6 6L6 1ZM2 2L2 5L5 5L5 2ZM50 0L50 7L57 7L57 0ZM51 1L51 6L56 6L56 1ZM52 2L52 5L55 5L55 2ZM0 50L0 57L7 57L7 50ZM1 51L1 56L6 56L6 51ZM2 52L2 55L5 55L5 52Z" fill="#000000"/></g></g></svg>
