<?xml version="1.0" encoding="UTF-8"?>
<svg xmlns="http://www.w3.org/2000/svg" version="1.1" width="300" height="300" viewBox="0 0 300 300"><rect x="0" y="0" width="300" height="300" fill="#fefefe"/><g transform="scale(4.615)"><g transform="translate(4,4)"><path fill-rule="evenodd" d="M9 0L9 1L8 1L8 2L9 2L9 3L8 3L8 4L10 4L10 7L11 7L11 6L12 6L12 9L11 9L11 10L9 10L9 11L7 11L7 10L8 10L8 9L10 9L10 8L6 8L6 9L5 9L5 8L0 8L0 13L1 13L1 12L2 12L2 15L3 15L3 20L4 20L4 18L5 18L5 20L6 20L6 21L1 21L1 22L0 22L0 23L1 23L1 24L0 24L0 25L1 25L1 27L0 27L0 29L2 29L2 30L1 30L1 31L3 31L3 29L4 29L4 31L5 31L5 32L3 32L3 33L4 33L4 34L6 34L6 35L4 35L4 36L5 36L5 37L8 37L8 35L7 35L7 34L6 34L6 33L8 33L8 31L10 31L10 30L11 30L11 34L9 34L9 35L11 35L11 36L10 36L10 37L9 37L9 38L10 38L10 39L8 39L8 38L6 38L6 39L4 39L4 38L2 38L2 37L0 37L0 38L1 38L1 39L0 39L0 40L1 40L1 41L0 41L0 43L2 43L2 40L3 40L3 41L4 41L4 42L3 42L3 44L2 44L2 47L1 47L1 44L0 44L0 48L5 48L5 47L7 47L7 46L5 46L5 45L8 45L8 44L9 44L9 46L11 46L11 45L12 45L12 44L14 44L14 45L13 45L13 46L14 46L14 45L15 45L15 44L16 44L16 45L17 45L17 46L18 46L18 47L17 47L17 50L15 50L15 51L14 51L14 52L12 52L12 54L11 54L11 53L10 53L10 52L11 52L11 51L9 51L9 50L10 50L10 47L8 47L8 51L9 51L9 52L8 52L8 57L9 57L9 55L10 55L10 56L11 56L11 57L12 57L12 56L11 56L11 55L13 55L13 57L14 57L14 56L15 56L15 55L16 55L16 56L17 56L17 57L21 57L21 56L17 56L17 53L20 53L20 52L21 52L21 51L22 51L22 52L23 52L23 51L22 51L22 50L26 50L26 52L24 52L24 53L23 53L23 54L22 54L22 53L21 53L21 55L23 55L23 56L24 56L24 57L26 57L26 56L24 56L24 55L23 55L23 54L24 54L24 53L25 53L25 55L26 55L26 53L27 53L27 54L30 54L30 53L31 53L31 48L34 48L34 49L36 49L36 50L34 50L34 51L32 51L32 52L33 52L33 53L32 53L32 54L31 54L31 56L30 56L30 55L29 55L29 56L27 56L27 57L29 57L29 56L30 56L30 57L31 57L31 56L35 56L35 57L39 57L39 56L40 56L40 55L41 55L41 57L44 57L44 56L42 56L42 55L44 55L44 54L45 54L45 57L47 57L47 55L48 55L48 56L50 56L50 57L52 57L52 55L51 55L51 53L52 53L52 54L53 54L53 55L54 55L54 56L53 56L53 57L54 57L54 56L55 56L55 57L56 57L56 56L55 56L55 54L53 54L53 52L54 52L54 53L56 53L56 52L57 52L57 51L56 51L56 50L55 50L55 48L56 48L56 49L57 49L57 48L56 48L56 46L57 46L57 43L56 43L56 42L55 42L55 39L57 39L57 37L56 37L56 34L57 34L57 32L56 32L56 30L57 30L57 29L55 29L55 31L53 31L53 29L54 29L54 28L56 28L56 26L57 26L57 25L56 25L56 22L57 22L57 21L56 21L56 20L55 20L55 19L56 19L56 16L57 16L57 15L56 15L56 14L57 14L57 12L56 12L56 14L55 14L55 13L54 13L54 12L55 12L55 11L56 11L56 10L54 10L54 11L50 11L50 8L48 8L48 9L47 9L47 10L46 10L46 9L45 9L45 10L44 10L44 9L41 9L41 10L38 10L38 9L39 9L39 6L40 6L40 7L41 7L41 6L40 6L40 5L43 5L43 6L42 6L42 8L45 8L45 6L46 6L46 8L47 8L47 5L48 5L48 0L46 0L46 1L45 1L45 2L44 2L44 3L43 3L43 4L40 4L40 5L39 5L39 6L38 6L38 9L37 9L37 8L35 8L35 5L36 5L36 7L37 7L37 5L38 5L38 3L41 3L41 2L43 2L43 0L41 0L41 1L40 1L40 0L39 0L39 1L38 1L38 0L37 0L37 1L38 1L38 2L37 2L37 3L36 3L36 0L35 0L35 1L33 1L33 0L29 0L29 2L28 2L28 3L29 3L29 2L31 2L31 1L32 1L32 3L31 3L31 4L26 4L26 3L23 3L23 4L19 4L19 2L21 2L21 3L22 3L22 0L21 0L21 1L20 1L20 0L19 0L19 1L17 1L17 2L18 2L18 4L17 4L17 6L16 6L16 7L15 7L15 6L14 6L14 7L15 7L15 8L16 8L16 9L15 9L15 10L13 10L13 11L14 11L14 12L13 12L13 13L12 13L12 12L11 12L11 11L12 11L12 9L14 9L14 8L13 8L13 5L12 5L12 4L14 4L14 2L15 2L15 3L16 3L16 2L15 2L15 1L14 1L14 0L13 0L13 1L14 1L14 2L13 2L13 3L12 3L12 1L11 1L11 3L12 3L12 4L10 4L10 0ZM23 0L23 2L25 2L25 1L26 1L26 2L27 2L27 1L28 1L28 0L27 0L27 1L26 1L26 0ZM46 1L46 2L47 2L47 1ZM33 2L33 3L32 3L32 4L31 4L31 8L32 8L32 10L31 10L31 11L30 11L30 10L27 10L27 11L26 11L26 12L25 12L25 11L23 11L23 12L24 12L24 13L22 13L22 12L21 12L21 13L20 13L20 11L22 11L22 10L21 10L21 9L23 9L23 8L24 8L24 9L25 9L25 8L26 8L26 4L25 4L25 8L24 8L24 6L23 6L23 8L19 8L19 9L18 9L18 10L17 10L17 9L16 9L16 10L15 10L15 11L16 11L16 12L15 12L15 13L13 13L13 14L12 14L12 13L11 13L11 12L10 12L10 11L9 11L9 12L7 12L7 11L6 11L6 10L7 10L7 9L6 9L6 10L5 10L5 9L3 9L3 11L2 11L2 9L1 9L1 11L2 11L2 12L3 12L3 11L5 11L5 12L4 12L4 14L5 14L5 16L8 16L8 15L9 15L9 14L10 14L10 15L11 15L11 14L12 14L12 15L13 15L13 14L15 14L15 13L16 13L16 16L15 16L15 15L14 15L14 17L15 17L15 18L13 18L13 19L14 19L14 20L12 20L12 18L10 18L10 16L9 16L9 17L5 17L5 18L7 18L7 19L6 19L6 20L7 20L7 21L6 21L6 22L5 22L5 24L4 24L4 23L3 23L3 22L2 22L2 23L3 23L3 24L1 24L1 25L3 25L3 26L2 26L2 27L1 27L1 28L2 28L2 29L3 29L3 26L4 26L4 25L5 25L5 26L7 26L7 25L5 25L5 24L7 24L7 23L6 23L6 22L9 22L9 23L10 23L10 24L8 24L8 26L9 26L9 27L11 27L11 26L14 26L14 27L13 27L13 29L14 29L14 30L15 30L15 29L16 29L16 30L18 30L18 29L19 29L19 28L20 28L20 32L21 32L21 33L18 33L18 34L20 34L20 35L18 35L18 36L19 36L19 37L18 37L18 38L17 38L17 35L16 35L16 34L17 34L17 33L15 33L15 35L12 35L12 34L11 34L11 35L12 35L12 36L11 36L11 37L13 37L13 36L15 36L15 37L14 37L14 38L15 38L15 39L13 39L13 38L12 38L12 39L13 39L13 40L14 40L14 42L13 42L13 41L12 41L12 40L11 40L11 39L10 39L10 40L9 40L9 41L8 41L8 39L6 39L6 40L7 40L7 41L6 41L6 42L7 42L7 43L5 43L5 42L4 42L4 44L8 44L8 42L9 42L9 44L12 44L12 43L14 43L14 42L15 42L15 43L18 43L18 42L19 42L19 44L20 44L20 42L21 42L21 43L22 43L22 42L24 42L24 41L25 41L25 43L23 43L23 44L24 44L24 45L25 45L25 46L23 46L23 45L22 45L22 44L21 44L21 45L19 45L19 46L20 46L20 50L19 50L19 51L18 51L18 50L17 50L17 51L16 51L16 53L15 53L15 52L14 52L14 53L13 53L13 55L14 55L14 54L16 54L16 53L17 53L17 52L19 52L19 51L20 51L20 50L21 50L21 49L23 49L23 48L24 48L24 49L26 49L26 48L29 48L29 45L30 45L30 44L29 44L29 45L27 45L27 44L25 44L25 43L27 43L27 42L30 42L30 40L32 40L32 41L31 41L31 42L32 42L32 43L33 43L33 44L31 44L31 45L32 45L32 46L31 46L31 47L33 47L33 46L35 46L35 48L36 48L36 47L37 47L37 46L36 46L36 45L34 45L34 43L35 43L35 44L36 44L36 43L37 43L37 42L35 42L35 40L38 40L38 42L39 42L39 43L41 43L41 44L39 44L39 45L38 45L38 46L39 46L39 45L41 45L41 44L42 44L42 42L40 42L40 41L41 41L41 38L40 38L40 37L41 37L41 36L40 36L40 37L38 37L38 35L40 35L40 34L39 34L39 33L41 33L41 32L43 32L43 33L45 33L45 34L42 34L42 35L43 35L43 36L44 36L44 37L43 37L43 38L42 38L42 39L43 39L43 40L42 40L42 41L43 41L43 44L44 44L44 46L48 46L48 44L50 44L50 43L51 43L51 44L52 44L52 45L49 45L49 46L50 46L50 47L48 47L48 48L47 48L47 47L45 47L45 48L44 48L44 47L43 47L43 46L41 46L41 48L39 48L39 47L38 47L38 48L37 48L37 49L38 49L38 50L36 50L36 52L37 52L37 53L38 53L38 54L37 54L37 56L39 56L39 55L38 55L38 54L40 54L40 53L42 53L42 52L43 52L43 51L42 51L42 50L41 50L41 48L42 48L42 49L43 49L43 48L44 48L44 50L47 50L47 53L45 53L45 52L44 52L44 53L43 53L43 54L44 54L44 53L45 53L45 54L48 54L48 50L47 50L47 49L48 49L48 48L50 48L50 47L51 47L51 48L53 48L53 47L55 47L55 46L56 46L56 43L55 43L55 44L54 44L54 45L53 45L53 43L54 43L54 42L53 42L53 41L54 41L54 40L53 40L53 39L55 39L55 37L53 37L53 35L55 35L55 34L54 34L54 33L56 33L56 32L53 32L53 33L52 33L52 31L51 31L51 33L52 33L52 34L50 34L50 31L48 31L48 30L47 30L47 29L46 29L46 30L47 30L47 31L48 31L48 32L46 32L46 33L45 33L45 32L43 32L43 30L44 30L44 29L45 29L45 28L46 28L46 27L47 27L47 28L48 28L48 27L47 27L47 26L48 26L48 25L50 25L50 26L51 26L51 25L52 25L52 26L53 26L53 27L54 27L54 26L53 26L53 23L55 23L55 22L56 22L56 21L55 21L55 20L53 20L53 19L52 19L52 20L51 20L51 21L49 21L49 20L44 20L44 18L47 18L47 19L48 19L48 18L47 18L47 17L48 17L48 16L49 16L49 17L50 17L50 18L49 18L49 19L50 19L50 18L51 18L51 17L53 17L53 18L55 18L55 17L53 17L53 15L55 15L55 14L53 14L53 15L52 15L52 16L51 16L51 15L50 15L50 14L51 14L51 12L50 12L50 11L49 11L49 12L48 12L48 10L47 10L47 12L45 12L45 11L46 11L46 10L45 10L45 11L44 11L44 13L43 13L43 11L42 11L42 10L41 10L41 12L39 12L39 13L38 13L38 14L37 14L37 15L35 15L35 16L32 16L32 15L31 15L31 14L32 14L32 13L33 13L33 14L36 14L36 13L35 13L35 12L37 12L37 11L38 11L38 10L37 10L37 9L35 9L35 8L34 8L34 9L33 9L33 7L34 7L34 6L33 6L33 5L35 5L35 2ZM33 3L33 4L32 4L32 5L33 5L33 4L34 4L34 3ZM44 3L44 6L43 6L43 7L44 7L44 6L45 6L45 4L46 4L46 5L47 5L47 3ZM15 4L15 5L16 5L16 4ZM18 4L18 6L17 6L17 7L16 7L16 8L17 8L17 7L18 7L18 6L19 6L19 7L20 7L20 5L19 5L19 4ZM23 4L23 5L24 5L24 4ZM36 4L36 5L37 5L37 4ZM8 5L8 7L9 7L9 5ZM27 5L27 8L30 8L30 5ZM21 6L21 7L22 7L22 6ZM28 6L28 7L29 7L29 6ZM32 6L32 7L33 7L33 6ZM48 6L48 7L49 7L49 6ZM51 8L51 10L52 10L52 8ZM53 8L53 9L54 9L54 8ZM55 8L55 9L56 9L56 8ZM19 9L19 10L18 10L18 11L17 11L17 12L16 12L16 13L17 13L17 17L19 17L19 18L18 18L18 19L16 19L16 18L15 18L15 19L16 19L16 20L15 20L15 21L16 21L16 22L15 22L15 23L16 23L16 24L17 24L17 27L18 27L18 26L20 26L20 28L21 28L21 29L22 29L22 28L21 28L21 27L22 27L22 26L24 26L24 27L23 27L23 31L21 31L21 32L23 32L23 31L24 31L24 32L25 32L25 33L23 33L23 34L22 34L22 33L21 33L21 35L23 35L23 34L24 34L24 36L23 36L23 37L19 37L19 38L20 38L20 39L17 39L17 40L18 40L18 41L17 41L17 42L18 42L18 41L19 41L19 42L20 42L20 40L21 40L21 39L22 39L22 40L23 40L23 41L24 41L24 40L25 40L25 36L26 36L26 39L27 39L27 40L28 40L28 39L27 39L27 38L28 38L28 37L27 37L27 35L26 35L26 34L27 34L27 33L26 33L26 32L28 32L28 33L29 33L29 34L30 34L30 36L29 36L29 37L31 37L31 38L29 38L29 39L33 39L33 40L35 40L35 39L37 39L37 38L38 38L38 40L39 40L39 38L38 38L38 37L37 37L37 36L35 36L35 34L37 34L37 35L38 35L38 33L37 33L37 32L34 32L34 33L35 33L35 34L33 34L33 33L32 33L32 31L31 31L31 30L32 30L32 28L31 28L31 26L32 26L32 27L33 27L33 28L35 28L35 30L33 30L33 31L36 31L36 29L38 29L38 28L39 28L39 27L36 27L36 26L34 26L34 27L33 27L33 26L32 26L32 24L33 24L33 25L37 25L37 26L38 26L38 24L41 24L41 25L39 25L39 26L41 26L41 28L42 28L42 26L43 26L43 27L44 27L44 28L43 28L43 29L39 29L39 30L38 30L38 32L39 32L39 31L41 31L41 30L43 30L43 29L44 29L44 28L45 28L45 27L46 27L46 26L43 26L43 25L44 25L44 24L42 24L42 23L44 23L44 20L43 20L43 21L39 21L39 22L38 22L38 20L41 20L41 18L42 18L42 19L43 19L43 18L44 18L44 15L47 15L47 16L45 16L45 17L47 17L47 16L48 16L48 15L49 15L49 16L50 16L50 15L49 15L49 14L50 14L50 12L49 12L49 13L47 13L47 14L44 14L44 15L42 15L42 16L41 16L41 14L43 14L43 13L39 13L39 14L38 14L38 15L39 15L39 16L38 16L38 17L37 17L37 16L35 16L35 17L37 17L37 18L38 18L38 17L39 17L39 19L37 19L37 20L36 20L36 19L33 19L33 18L32 18L32 16L31 16L31 15L30 15L30 14L31 14L31 13L32 13L32 12L33 12L33 13L34 13L34 12L33 12L33 10L32 10L32 11L31 11L31 13L30 13L30 14L29 14L29 13L28 13L28 12L29 12L29 11L27 11L27 12L26 12L26 13L28 13L28 14L29 14L29 16L28 16L28 15L27 15L27 14L26 14L26 15L23 15L23 14L22 14L22 13L21 13L21 15L20 15L20 16L19 16L19 15L18 15L18 14L20 14L20 13L19 13L19 11L20 11L20 9ZM36 10L36 11L37 11L37 10ZM6 12L6 13L7 13L7 14L6 14L6 15L8 15L8 13L7 13L7 12ZM9 12L9 13L10 13L10 12ZM17 12L17 13L18 13L18 12ZM52 12L52 13L53 13L53 12ZM24 13L24 14L25 14L25 13ZM21 15L21 16L20 16L20 18L19 18L19 19L18 19L18 20L20 20L20 21L17 21L17 20L16 20L16 21L17 21L17 24L19 24L19 25L20 25L20 26L22 26L22 25L23 25L23 24L22 24L22 23L21 23L21 22L22 22L22 21L24 21L24 22L23 22L23 23L24 23L24 24L25 24L25 25L26 25L26 26L25 26L25 27L26 27L26 26L28 26L28 25L29 25L29 26L30 26L30 25L29 25L29 22L30 22L30 23L31 23L31 24L32 24L32 23L33 23L33 22L34 22L34 23L35 23L35 21L33 21L33 20L32 20L32 21L31 21L31 20L30 20L30 19L32 19L32 18L30 18L30 19L29 19L29 20L27 20L27 19L28 19L28 18L26 18L26 17L28 17L28 16L27 16L27 15L26 15L26 16L23 16L23 15ZM0 16L0 18L1 18L1 17L2 17L2 16ZM11 16L11 17L12 17L12 16ZM21 16L21 17L22 17L22 18L20 18L20 19L21 19L21 20L22 20L22 19L23 19L23 20L24 20L24 21L25 21L25 22L26 22L26 23L25 23L25 24L28 24L28 23L27 23L27 22L28 22L28 21L25 21L25 20L26 20L26 19L25 19L25 17L22 17L22 16ZM39 16L39 17L41 17L41 16ZM42 16L42 17L43 17L43 16ZM8 18L8 19L7 19L7 20L8 20L8 21L9 21L9 22L10 22L10 23L12 23L12 22L14 22L14 21L12 21L12 20L10 20L10 18ZM23 18L23 19L24 19L24 18ZM30 21L30 22L31 22L31 21ZM47 21L47 22L46 22L46 23L45 23L45 24L46 24L46 23L49 23L49 24L50 24L50 23L53 23L53 22L54 22L54 21L51 21L51 22L50 22L50 23L49 23L49 21ZM19 22L19 23L20 23L20 22ZM39 22L39 23L40 23L40 22ZM41 22L41 23L42 23L42 22ZM13 23L13 24L12 24L12 25L15 25L15 24L14 24L14 23ZM37 23L37 24L38 24L38 23ZM3 24L3 25L4 25L4 24ZM10 24L10 25L9 25L9 26L11 26L11 24ZM20 24L20 25L22 25L22 24ZM47 24L47 25L48 25L48 24ZM54 24L54 25L55 25L55 24ZM15 26L15 27L16 27L16 26ZM5 27L5 30L8 30L8 27ZM27 27L27 30L30 30L30 27ZM35 27L35 28L36 28L36 27ZM49 27L49 30L52 30L52 27ZM6 28L6 29L7 29L7 28ZM10 28L10 29L9 29L9 30L10 30L10 29L11 29L11 30L12 30L12 29L11 29L11 28ZM14 28L14 29L15 29L15 28ZM16 28L16 29L18 29L18 28ZM25 28L25 29L26 29L26 28ZM28 28L28 29L29 29L29 28ZM50 28L50 29L51 29L51 28ZM6 31L6 32L7 32L7 31ZM12 31L12 33L13 33L13 34L14 34L14 32L15 32L15 31ZM17 31L17 32L18 32L18 31ZM30 31L30 32L29 32L29 33L31 33L31 34L32 34L32 35L33 35L33 36L32 36L32 37L33 37L33 39L34 39L34 38L35 38L35 37L33 37L33 36L34 36L34 35L33 35L33 34L32 34L32 33L31 33L31 31ZM48 32L48 33L49 33L49 32ZM0 33L0 34L1 34L1 36L2 36L2 34L1 34L1 33ZM25 33L25 34L26 34L26 33ZM45 34L45 35L44 35L44 36L47 36L47 34ZM48 34L48 35L50 35L50 36L49 36L49 37L51 37L51 36L52 36L52 35L53 35L53 34L52 34L52 35L50 35L50 34ZM6 35L6 36L7 36L7 35ZM15 37L15 38L16 38L16 37ZM23 37L23 38L22 38L22 39L23 39L23 40L24 40L24 39L23 39L23 38L24 38L24 37ZM44 37L44 38L45 38L45 37ZM47 38L47 39L46 39L46 40L47 40L47 39L48 39L48 38ZM49 38L49 39L50 39L50 40L49 40L49 41L48 41L48 42L45 42L45 41L44 41L44 40L45 40L45 39L44 39L44 40L43 40L43 41L44 41L44 42L45 42L45 43L46 43L46 44L45 44L45 45L47 45L47 43L50 43L50 42L51 42L51 43L53 43L53 42L51 42L51 41L53 41L53 40L52 40L52 39L50 39L50 38ZM15 39L15 40L16 40L16 39ZM7 41L7 42L8 42L8 41ZM26 41L26 42L27 42L27 41ZM32 41L32 42L33 42L33 43L34 43L34 42L33 42L33 41ZM10 42L10 43L12 43L12 42ZM17 44L17 45L18 45L18 44ZM21 45L21 47L23 47L23 46L22 46L22 45ZM26 45L26 47L28 47L28 46L27 46L27 45ZM3 46L3 47L5 47L5 46ZM15 46L15 47L11 47L11 49L12 49L12 48L13 48L13 50L12 50L12 51L13 51L13 50L14 50L14 49L15 49L15 47L16 47L16 46ZM51 46L51 47L53 47L53 46ZM18 47L18 48L19 48L19 47ZM42 47L42 48L43 48L43 47ZM6 48L6 49L7 49L7 48ZM38 48L38 49L39 49L39 48ZM45 48L45 49L46 49L46 48ZM27 49L27 52L30 52L30 49ZM49 49L49 52L52 52L52 49ZM28 50L28 51L29 51L29 50ZM38 50L38 51L37 51L37 52L39 52L39 51L40 51L40 52L41 52L41 50ZM50 50L50 51L51 51L51 50ZM54 50L54 51L55 51L55 52L56 52L56 51L55 51L55 50ZM9 53L9 54L10 54L10 53ZM33 53L33 54L34 54L34 55L35 55L35 56L36 56L36 54L35 54L35 53ZM18 54L18 55L20 55L20 54ZM50 55L50 56L51 56L51 55ZM0 0L0 7L7 7L7 0ZM1 1L1 6L6 6L6 1ZM2 2L2 5L5 5L5 2ZM50 0L50 7L57 7L57 0ZM51 1L51 6L56 6L56 1ZM52 2L52 5L55 5L55 2ZM0 50L0 57L7 57L7 50ZM1 51L1 56L6 56L6 51ZM2 52L2 55L5 55L5 52Z" fill="#000000"/></g></g></svg>
