<?xml version="1.0" encoding="UTF-8"?>
<svg xmlns="http://www.w3.org/2000/svg" version="1.1" width="300" height="300" viewBox="0 0 300 300"><rect x="0" y="0" width="300" height="300" fill="#fefefe"/><g transform="scale(4.615)"><g transform="translate(4,4)"><path fill-rule="evenodd" d="M8 0L8 2L9 2L9 4L8 4L8 9L10 9L10 10L11 10L11 12L10 12L10 11L9 11L9 10L8 10L8 11L9 11L9 12L5 12L5 14L4 14L4 13L3 13L3 11L7 11L7 10L5 10L5 9L7 9L7 8L5 8L5 9L3 9L3 8L0 8L0 11L1 11L1 13L0 13L0 14L1 14L1 15L0 15L0 22L3 22L3 23L4 23L4 25L3 25L3 24L1 24L1 23L0 23L0 26L1 26L1 25L2 25L2 27L1 27L1 28L0 28L0 30L1 30L1 31L0 31L0 32L1 32L1 33L0 33L0 35L1 35L1 37L2 37L2 38L1 38L1 41L0 41L0 42L1 42L1 43L0 43L0 44L1 44L1 46L0 46L0 48L5 48L5 47L7 47L7 48L6 48L6 49L8 49L8 50L10 50L10 51L11 51L11 50L10 50L10 49L9 49L9 48L8 48L8 46L9 46L9 47L10 47L10 45L7 45L7 44L8 44L8 43L9 43L9 44L10 44L10 43L11 43L11 42L12 42L12 44L11 44L11 45L12 45L12 46L11 46L11 49L12 49L12 46L13 46L13 45L14 45L14 47L13 47L13 50L12 50L12 54L11 54L11 53L10 53L10 55L9 55L9 54L8 54L8 57L10 57L10 55L12 55L12 54L14 54L14 53L15 53L15 57L17 57L17 56L18 56L18 57L21 57L21 56L18 56L18 55L16 55L16 54L17 54L17 52L18 52L18 54L19 54L19 52L20 52L20 53L21 53L21 54L20 54L20 55L22 55L22 57L23 57L23 56L24 56L24 57L25 57L25 56L26 56L26 57L28 57L28 55L29 55L29 57L33 57L33 55L30 55L30 54L31 54L31 53L32 53L32 54L34 54L34 57L35 57L35 55L37 55L37 54L38 54L38 53L39 53L39 55L40 55L40 54L41 54L41 56L40 56L40 57L41 57L41 56L42 56L42 57L43 57L43 56L44 56L44 57L46 57L46 56L48 56L48 57L50 57L50 55L49 55L49 54L52 54L52 55L53 55L53 54L54 54L54 55L57 55L57 54L55 54L55 52L56 52L56 51L57 51L57 49L56 49L56 47L57 47L57 42L56 42L56 43L55 43L55 42L54 42L54 41L57 41L57 40L54 40L54 38L52 38L52 37L53 37L53 36L54 36L54 37L55 37L55 38L57 38L57 37L56 37L56 36L57 36L57 33L56 33L56 31L57 31L57 29L56 29L56 27L57 27L57 24L56 24L56 23L57 23L57 20L56 20L56 19L57 19L57 10L56 10L56 11L55 11L55 9L57 9L57 8L55 8L55 9L54 9L54 10L53 10L53 8L48 8L48 7L49 7L49 6L48 6L48 7L47 7L47 5L48 5L48 0L42 0L42 1L41 1L41 0L38 0L38 2L37 2L37 1L35 1L35 0L34 0L34 2L33 2L33 6L32 6L32 7L33 7L33 6L34 6L34 8L32 8L32 9L31 9L31 5L32 5L32 0L30 0L30 1L29 1L29 0L28 0L28 2L30 2L30 1L31 1L31 4L30 4L30 3L29 3L29 4L26 4L26 3L27 3L27 0L24 0L24 1L23 1L23 0L20 0L20 1L23 1L23 4L22 4L22 3L21 3L21 2L20 2L20 3L21 3L21 5L20 5L20 7L19 7L19 4L18 4L18 2L17 2L17 4L16 4L16 1L17 1L17 0L16 0L16 1L15 1L15 0L12 0L12 1L11 1L11 2L10 2L10 1L9 1L9 0ZM18 0L18 1L19 1L19 0ZM13 1L13 3L14 3L14 4L15 4L15 3L14 3L14 1ZM24 1L24 4L25 4L25 1ZM39 1L39 2L40 2L40 4L39 4L39 5L38 5L38 4L37 4L37 2L35 2L35 3L36 3L36 4L35 4L35 9L34 9L34 10L33 10L33 9L32 9L32 11L31 11L31 12L30 12L30 11L29 11L29 10L28 10L28 9L27 9L27 10L25 10L25 9L26 9L26 5L24 5L24 6L23 6L23 5L22 5L22 6L21 6L21 7L22 7L22 6L23 6L23 8L25 8L25 9L24 9L24 11L23 11L23 9L22 9L22 8L21 8L21 9L20 9L20 10L19 10L19 9L18 9L18 8L17 8L17 7L18 7L18 6L17 6L17 5L18 5L18 4L17 4L17 5L16 5L16 6L15 6L15 7L14 7L14 5L13 5L13 7L12 7L12 6L11 6L11 7L10 7L10 5L12 5L12 3L11 3L11 4L10 4L10 5L9 5L9 7L10 7L10 8L11 8L11 10L12 10L12 12L11 12L11 13L12 13L12 14L14 14L14 15L11 15L11 16L12 16L12 18L13 18L13 17L14 17L14 18L15 18L15 17L16 17L16 19L14 19L14 20L16 20L16 19L18 19L18 18L17 18L17 15L18 15L18 14L19 14L19 15L20 15L20 14L22 14L22 16L23 16L23 14L24 14L24 15L25 15L25 12L24 12L24 11L26 11L26 14L27 14L27 15L26 15L26 16L24 16L24 18L25 18L25 17L26 17L26 18L27 18L27 19L26 19L26 20L27 20L27 22L26 22L26 23L27 23L27 25L26 25L26 26L29 26L29 25L30 25L30 26L31 26L31 25L32 25L32 27L31 27L31 29L32 29L32 30L33 30L33 29L34 29L34 31L32 31L32 32L30 32L30 34L32 34L32 32L34 32L34 35L35 35L35 37L34 37L34 36L33 36L33 37L34 37L34 38L35 38L35 41L34 41L34 39L33 39L33 38L31 38L31 40L30 40L30 36L31 36L31 37L32 37L32 36L31 36L31 35L28 35L28 34L29 34L29 31L28 31L28 32L27 32L27 33L28 33L28 34L26 34L26 33L25 33L25 32L26 32L26 30L25 30L25 29L24 29L24 31L23 31L23 32L24 32L24 34L26 34L26 35L28 35L28 36L25 36L25 35L23 35L23 37L22 37L22 35L21 35L21 34L23 34L23 33L22 33L22 30L23 30L23 29L22 29L22 30L21 30L21 29L20 29L20 30L21 30L21 32L20 32L20 31L18 31L18 30L19 30L19 28L21 28L21 27L20 27L20 26L21 26L21 23L20 23L20 22L21 22L21 21L22 21L22 20L23 20L23 18L21 18L21 17L20 17L20 16L19 16L19 17L20 17L20 18L19 18L19 19L20 19L20 20L19 20L19 21L18 21L18 20L17 20L17 21L18 21L18 22L16 22L16 23L18 23L18 22L19 22L19 25L18 25L18 24L17 24L17 25L16 25L16 24L15 24L15 25L14 25L14 24L13 24L13 25L11 25L11 26L13 26L13 25L14 25L14 27L13 27L13 29L12 29L12 30L11 30L11 28L12 28L12 27L11 27L11 28L10 28L10 26L9 26L9 28L10 28L10 30L9 30L9 32L8 32L8 34L7 34L7 33L4 33L4 32L5 32L5 31L4 31L4 30L2 30L2 29L1 29L1 30L2 30L2 31L3 31L3 33L2 33L2 35L3 35L3 37L4 37L4 35L5 35L5 36L7 36L7 37L6 37L6 38L8 38L8 39L6 39L6 40L7 40L7 41L5 41L5 39L4 39L4 41L3 41L3 40L2 40L2 42L3 42L3 43L2 43L2 44L4 44L4 46L3 46L3 45L2 45L2 46L1 46L1 47L2 47L2 46L3 46L3 47L5 47L5 46L7 46L7 45L5 45L5 42L8 42L8 39L9 39L9 40L10 40L10 41L12 41L12 42L13 42L13 44L12 44L12 45L13 45L13 44L15 44L15 45L16 45L16 46L17 46L17 44L15 44L15 43L14 43L14 41L12 41L12 40L11 40L11 39L13 39L13 40L17 40L17 41L16 41L16 43L17 43L17 42L18 42L18 38L19 38L19 37L18 37L18 35L19 35L19 36L21 36L21 37L22 37L22 38L20 38L20 39L21 39L21 41L20 41L20 40L19 40L19 41L20 41L20 42L21 42L21 43L20 43L20 47L18 47L18 48L17 48L17 47L16 47L16 48L15 48L15 47L14 47L14 48L15 48L15 50L16 50L16 51L15 51L15 52L16 52L16 51L17 51L17 49L18 49L18 52L19 52L19 51L20 51L20 50L21 50L21 51L22 51L22 52L21 52L21 53L22 53L22 52L24 52L24 51L25 51L25 53L26 53L26 54L24 54L24 55L26 55L26 54L27 54L27 55L28 55L28 53L26 53L26 51L25 51L25 50L26 50L26 49L25 49L25 48L24 48L24 46L26 46L26 48L29 48L29 47L30 47L30 48L31 48L31 47L30 47L30 46L29 46L29 45L30 45L30 42L31 42L31 43L32 43L32 40L33 40L33 41L34 41L34 42L35 42L35 41L36 41L36 43L35 43L35 44L33 44L33 45L32 45L32 46L33 46L33 45L34 45L34 47L35 47L35 49L34 49L34 48L33 48L33 49L32 49L32 50L31 50L31 52L32 52L32 50L33 50L33 51L34 51L34 52L35 52L35 53L34 53L34 54L35 54L35 53L36 53L36 54L37 54L37 53L38 53L38 51L39 51L39 49L40 49L40 51L41 51L41 53L42 53L42 54L43 54L43 55L44 55L44 56L46 56L46 55L44 55L44 52L43 52L43 51L44 51L44 50L45 50L45 49L46 49L46 50L47 50L47 46L48 46L48 45L47 45L47 44L48 44L48 43L49 43L49 44L50 44L50 45L49 45L49 47L50 47L50 45L51 45L51 44L50 44L50 42L49 42L49 41L51 41L51 40L52 40L52 44L53 44L53 45L52 45L52 47L51 47L51 48L52 48L52 47L53 47L53 45L54 45L54 48L53 48L53 49L54 49L54 50L53 50L53 51L54 51L54 52L55 52L55 51L56 51L56 49L54 49L54 48L55 48L55 47L56 47L56 44L55 44L55 43L54 43L54 44L53 44L53 39L52 39L52 38L51 38L51 37L52 37L52 36L53 36L53 34L54 34L54 36L55 36L55 33L54 33L54 32L55 32L55 31L56 31L56 30L55 30L55 27L54 27L54 28L53 28L53 29L54 29L54 30L53 30L53 31L54 31L54 32L52 32L52 31L49 31L49 32L50 32L50 33L49 33L49 36L50 36L50 38L49 38L49 37L48 37L48 38L47 38L47 36L46 36L46 35L47 35L47 34L48 34L48 33L46 33L46 32L47 32L47 30L48 30L48 27L47 27L47 28L46 28L46 29L44 29L44 30L43 30L43 28L42 28L42 31L40 31L40 30L41 30L41 29L40 29L40 28L41 28L41 27L43 27L43 26L44 26L44 27L46 27L46 26L49 26L49 24L50 24L50 23L51 23L51 25L50 25L50 26L52 26L52 24L53 24L53 25L54 25L54 26L55 26L55 25L56 25L56 24L55 24L55 23L56 23L56 20L55 20L55 19L56 19L56 16L55 16L55 15L56 15L56 13L55 13L55 11L54 11L54 12L53 12L53 14L52 14L52 13L50 13L50 10L51 10L51 12L52 12L52 11L53 11L53 10L51 10L51 9L50 9L50 10L49 10L49 9L48 9L48 8L47 8L47 9L46 9L46 5L47 5L47 3L46 3L46 4L45 4L45 2L47 2L47 1L42 1L42 3L41 3L41 2L40 2L40 1ZM43 2L43 3L42 3L42 5L43 5L43 6L42 6L42 7L41 7L41 6L40 6L40 7L41 7L41 8L40 8L40 10L39 10L39 11L38 11L38 9L39 9L39 6L38 6L38 7L37 7L37 6L36 6L36 10L34 10L34 11L32 11L32 13L31 13L31 14L32 14L32 13L33 13L33 15L34 15L34 17L33 17L33 16L32 16L32 15L31 15L31 16L30 16L30 15L29 15L29 13L30 13L30 12L29 12L29 11L28 11L28 12L27 12L27 14L28 14L28 15L29 15L29 16L30 16L30 17L28 17L28 18L30 18L30 17L31 17L31 20L32 20L32 21L33 21L33 22L30 22L30 20L28 20L28 19L27 19L27 20L28 20L28 22L27 22L27 23L28 23L28 22L30 22L30 23L29 23L29 24L28 24L28 25L29 25L29 24L30 24L30 25L31 25L31 24L30 24L30 23L32 23L32 25L33 25L33 26L34 26L34 24L36 24L36 26L37 26L37 27L34 27L34 29L35 29L35 30L36 30L36 29L37 29L37 28L38 28L38 29L39 29L39 27L40 27L40 26L42 26L42 25L43 25L43 24L42 24L42 23L43 23L43 22L44 22L44 23L46 23L46 21L47 21L47 24L49 24L49 23L50 23L50 22L49 22L49 23L48 23L48 21L49 21L49 20L51 20L51 19L52 19L52 18L53 18L53 16L54 16L54 19L53 19L53 20L52 20L52 22L51 22L51 23L52 23L52 22L54 22L54 23L55 23L55 21L54 21L54 19L55 19L55 16L54 16L54 15L53 15L53 16L52 16L52 18L50 18L50 17L49 17L49 16L50 16L50 13L49 13L49 14L48 14L48 12L47 12L47 11L46 11L46 13L45 13L45 12L44 12L44 11L43 11L43 10L42 10L42 9L43 9L43 8L44 8L44 10L45 10L45 8L44 8L44 7L45 7L45 6L44 6L44 5L45 5L45 4L44 4L44 2ZM43 4L43 5L44 5L44 4ZM27 5L27 8L30 8L30 5ZM16 6L16 7L17 7L17 6ZM24 6L24 7L25 7L25 6ZM28 6L28 7L29 7L29 6ZM43 6L43 7L42 7L42 8L43 8L43 7L44 7L44 6ZM11 7L11 8L12 8L12 9L13 9L13 10L14 10L14 9L15 9L15 10L16 10L16 11L14 11L14 12L16 12L16 11L17 11L17 14L15 14L15 15L14 15L14 17L15 17L15 15L17 15L17 14L18 14L18 13L19 13L19 14L20 14L20 13L21 13L21 12L20 12L20 11L21 11L21 10L22 10L22 9L21 9L21 10L20 10L20 11L19 11L19 10L16 10L16 9L15 9L15 8L14 8L14 7L13 7L13 8L12 8L12 7ZM13 8L13 9L14 9L14 8ZM37 8L37 9L38 9L38 8ZM2 9L2 11L3 11L3 9ZM30 9L30 10L31 10L31 9ZM47 9L47 10L48 10L48 9ZM40 10L40 11L41 11L41 12L42 12L42 15L41 15L41 17L42 17L42 18L43 18L43 17L44 17L44 19L42 19L42 20L43 20L43 21L42 21L42 22L43 22L43 21L44 21L44 22L45 22L45 21L44 21L44 19L46 19L46 20L47 20L47 21L48 21L48 19L49 19L49 17L48 17L48 16L47 16L47 15L48 15L48 14L47 14L47 13L46 13L46 18L45 18L45 17L44 17L44 16L45 16L45 15L44 15L44 16L43 16L43 14L44 14L44 12L42 12L42 11L41 11L41 10ZM18 11L18 12L19 12L19 13L20 13L20 12L19 12L19 11ZM22 11L22 12L23 12L23 11ZM34 11L34 12L35 12L35 13L34 13L34 15L35 15L35 17L34 17L34 18L33 18L33 17L32 17L32 16L31 16L31 17L32 17L32 19L33 19L33 21L34 21L34 22L35 22L35 23L36 23L36 24L37 24L37 25L38 25L38 26L40 26L40 23L41 23L41 22L40 22L40 19L41 19L41 18L40 18L40 15L39 15L39 12L37 12L37 13L38 13L38 15L37 15L37 14L36 14L36 11ZM12 12L12 13L13 13L13 12ZM1 13L1 14L2 14L2 15L3 15L3 13ZM6 13L6 14L5 14L5 15L6 15L6 16L7 16L7 15L9 15L9 14L10 14L10 13L8 13L8 14L7 14L7 13ZM40 13L40 14L41 14L41 13ZM54 13L54 14L55 14L55 13ZM6 14L6 15L7 15L7 14ZM35 14L35 15L36 15L36 18L34 18L34 19L35 19L35 20L36 20L36 21L35 21L35 22L36 22L36 23L38 23L38 25L39 25L39 23L38 23L38 21L39 21L39 19L40 19L40 18L38 18L38 16L37 16L37 15L36 15L36 14ZM51 14L51 15L52 15L52 14ZM2 16L2 17L1 17L1 21L2 21L2 19L3 19L3 21L4 21L4 19L5 19L5 18L4 18L4 19L3 19L3 17L5 17L5 16ZM8 16L8 17L6 17L6 18L7 18L7 19L6 19L6 20L7 20L7 21L5 21L5 22L4 22L4 23L5 23L5 25L6 25L6 26L8 26L8 25L9 25L9 24L8 24L8 25L6 25L6 24L7 24L7 23L8 23L8 22L7 22L7 21L9 21L9 23L10 23L10 24L11 24L11 23L15 23L15 21L14 21L14 22L13 22L13 21L12 21L12 22L11 22L11 23L10 23L10 21L11 21L11 20L13 20L13 19L11 19L11 20L10 20L10 21L9 21L9 19L10 19L10 18L11 18L11 17L10 17L10 18L9 18L9 16ZM26 16L26 17L27 17L27 16ZM47 17L47 19L48 19L48 17ZM36 18L36 19L37 19L37 18ZM7 19L7 20L8 20L8 19ZM21 19L21 20L20 20L20 21L21 21L21 20L22 20L22 19ZM24 19L24 20L25 20L25 19ZM37 20L37 21L36 21L36 22L37 22L37 21L38 21L38 20ZM5 22L5 23L7 23L7 22ZM22 22L22 24L23 24L23 25L24 25L24 26L23 26L23 27L22 27L22 28L24 28L24 26L25 26L25 25L24 25L24 24L23 24L23 22ZM24 22L24 23L25 23L25 22ZM33 23L33 24L34 24L34 23ZM41 24L41 25L42 25L42 24ZM44 24L44 26L46 26L46 25L45 25L45 24ZM15 25L15 27L14 27L14 28L16 28L16 27L17 27L17 26L16 26L16 25ZM2 27L2 28L3 28L3 29L4 29L4 28L3 28L3 27ZM5 27L5 30L8 30L8 27ZM18 27L18 28L19 28L19 27ZM27 27L27 30L30 30L30 27ZM49 27L49 30L52 30L52 27ZM6 28L6 29L7 29L7 28ZM28 28L28 29L29 29L29 28ZM32 28L32 29L33 29L33 28ZM35 28L35 29L36 29L36 28ZM50 28L50 29L51 29L51 28ZM10 30L10 32L9 32L9 33L10 33L10 32L11 32L11 30ZM12 30L12 31L13 31L13 33L12 33L12 35L14 35L14 36L11 36L11 34L10 34L10 35L9 35L9 37L10 37L10 38L9 38L9 39L11 39L11 38L15 38L15 37L14 37L14 36L15 36L15 34L16 34L16 33L17 33L17 32L18 32L18 34L17 34L17 35L18 35L18 34L20 34L20 33L19 33L19 32L18 32L18 31L16 31L16 30L15 30L15 31L16 31L16 33L15 33L15 32L14 32L14 31L13 31L13 30ZM37 30L37 31L36 31L36 33L35 33L35 35L36 35L36 37L35 37L35 38L36 38L36 41L37 41L37 42L38 42L38 41L39 41L39 40L40 40L40 41L41 41L41 42L40 42L40 43L43 43L43 42L44 42L44 43L45 43L45 44L44 44L44 45L43 45L43 44L42 44L42 45L41 45L41 44L40 44L40 46L41 46L41 47L40 47L40 49L41 49L41 51L43 51L43 50L44 50L44 49L45 49L45 48L44 48L44 49L43 49L43 50L42 50L42 49L41 49L41 47L42 47L42 45L43 45L43 46L44 46L44 47L46 47L46 44L47 44L47 43L45 43L45 42L46 42L46 41L48 41L48 40L51 40L51 38L50 38L50 39L49 39L49 38L48 38L48 40L47 40L47 38L46 38L46 37L45 37L45 35L46 35L46 33L45 33L45 31L46 31L46 30L45 30L45 31L42 31L42 33L41 33L41 32L40 32L40 31L38 31L38 30ZM6 31L6 32L7 32L7 31ZM24 31L24 32L25 32L25 31ZM34 31L34 32L35 32L35 31ZM37 31L37 32L38 32L38 31ZM39 32L39 33L38 33L38 34L37 34L37 33L36 33L36 35L38 35L38 34L39 34L39 36L40 36L40 35L41 35L41 39L40 39L40 38L39 38L39 37L38 37L38 36L37 36L37 37L36 37L36 38L37 38L37 37L38 37L38 38L39 38L39 39L40 39L40 40L41 40L41 41L42 41L42 42L43 42L43 41L44 41L44 42L45 42L45 41L46 41L46 39L45 39L45 41L44 41L44 40L43 40L43 38L44 38L44 34L45 34L45 33L44 33L44 34L43 34L43 33L42 33L42 34L40 34L40 32ZM3 33L3 34L4 34L4 33ZM50 33L50 36L51 36L51 33ZM5 34L5 35L7 35L7 36L8 36L8 35L7 35L7 34ZM16 36L16 37L17 37L17 36ZM24 36L24 37L25 37L25 36ZM28 36L28 37L29 37L29 36ZM42 36L42 37L43 37L43 36ZM26 37L26 38L24 38L24 39L26 39L26 38L27 38L27 37ZM2 38L2 39L3 39L3 38ZM16 38L16 39L17 39L17 38ZM22 38L22 39L23 39L23 38ZM28 38L28 39L29 39L29 38ZM37 39L37 41L38 41L38 39ZM41 39L41 40L42 40L42 39ZM22 40L22 41L21 41L21 42L22 42L22 41L23 41L23 42L24 42L24 44L25 44L25 45L26 45L26 46L28 46L28 47L29 47L29 46L28 46L28 45L29 45L29 42L28 42L28 41L27 41L27 40L25 40L25 41L26 41L26 42L24 42L24 41L23 41L23 40ZM29 40L29 41L30 41L30 40ZM4 41L4 42L5 42L5 41ZM9 42L9 43L10 43L10 42ZM27 42L27 44L28 44L28 42ZM6 43L6 44L7 44L7 43ZM18 43L18 44L19 44L19 43ZM22 43L22 44L23 44L23 43ZM37 43L37 44L36 44L36 46L35 46L35 47L36 47L36 46L38 46L38 45L37 45L37 44L39 44L39 43ZM18 45L18 46L19 46L19 45ZM23 45L23 46L24 46L24 45ZM21 46L21 47L20 47L20 48L18 48L18 49L19 49L19 50L20 50L20 48L22 48L22 51L24 51L24 49L23 49L23 48L22 48L22 46ZM37 47L37 48L36 48L36 49L37 49L37 51L35 51L35 50L34 50L34 49L33 49L33 50L34 50L34 51L35 51L35 52L36 52L36 53L37 53L37 51L38 51L38 47ZM27 49L27 52L30 52L30 49ZM49 49L49 52L52 52L52 49ZM28 50L28 51L29 51L29 50ZM50 50L50 51L51 51L51 50ZM8 51L8 52L9 52L9 51ZM47 51L47 52L48 52L48 51ZM39 52L39 53L40 53L40 52ZM42 52L42 53L43 53L43 52ZM45 52L45 53L46 53L46 54L47 54L47 55L48 55L48 54L49 54L49 53L48 53L48 54L47 54L47 53L46 53L46 52ZM22 54L22 55L23 55L23 54ZM13 55L13 56L11 56L11 57L14 57L14 55ZM36 56L36 57L37 57L37 56ZM51 56L51 57L53 57L53 56ZM56 56L56 57L57 57L57 56ZM0 0L0 7L7 7L7 0ZM1 1L1 6L6 6L6 1ZM2 2L2 5L5 5L5 2ZM50 0L50 7L57 7L57 0ZM51 1L51 6L56 6L56 1ZM52 2L52 5L55 5L55 2ZM0 50L0 57L7 57L7 50ZM1 51L1 56L6 56L6 51ZM2 52L2 55L5 55L5 52Z" fill="#000000"/></g></g></svg>
