<?xml version="1.0" encoding="UTF-8"?>
<svg xmlns="http://www.w3.org/2000/svg" version="1.1" width="300" height="300" viewBox="0 0 300 300"><rect x="0" y="0" width="300" height="300" fill="#fefefe"/><g transform="scale(4.615)"><g transform="translate(4,4)"><path fill-rule="evenodd" d="M8 0L8 2L10 2L10 3L13 3L13 4L12 4L12 7L11 7L11 5L10 5L10 4L8 4L8 11L7 11L7 10L6 10L6 11L5 11L5 9L7 9L7 8L5 8L5 9L4 9L4 10L3 10L3 11L2 11L2 9L3 9L3 8L0 8L0 9L1 9L1 10L0 10L0 11L2 11L2 12L0 12L0 13L1 13L1 14L0 14L0 15L1 15L1 16L0 16L0 19L1 19L1 16L3 16L3 18L2 18L2 19L4 19L4 17L5 17L5 14L4 14L4 13L8 13L8 12L9 12L9 13L10 13L10 12L9 12L9 9L11 9L11 10L10 10L10 11L11 11L11 10L12 10L12 8L14 8L14 9L15 9L15 6L16 6L16 7L17 7L17 6L18 6L18 8L17 8L17 10L16 10L16 11L14 11L14 12L16 12L16 11L17 11L17 14L15 14L15 15L18 15L18 13L19 13L19 14L20 14L20 13L21 13L21 10L22 10L22 9L23 9L23 11L22 11L22 12L23 12L23 16L22 16L22 14L21 14L21 16L20 16L20 15L19 15L19 16L18 16L18 17L19 17L19 19L20 19L20 21L21 21L21 22L20 22L20 23L21 23L21 24L22 24L22 25L21 25L21 26L20 26L20 25L19 25L19 22L17 22L17 20L16 20L16 17L17 17L17 16L16 16L16 17L15 17L15 16L14 16L14 15L13 15L13 16L14 16L14 18L13 18L13 17L12 17L12 19L13 19L13 22L12 22L12 23L11 23L11 21L12 21L12 20L10 20L10 19L11 19L11 18L10 18L10 17L9 17L9 18L8 18L8 19L9 19L9 20L6 20L6 19L7 19L7 18L5 18L5 20L4 20L4 21L2 21L2 20L1 20L1 21L0 21L0 22L2 22L2 23L1 23L1 25L0 25L0 26L1 26L1 27L2 27L2 28L3 28L3 25L5 25L5 26L4 26L4 29L3 29L3 30L1 30L1 31L0 31L0 35L1 35L1 36L0 36L0 38L1 38L1 37L2 37L2 34L1 34L1 33L3 33L3 32L2 32L2 31L4 31L4 33L5 33L5 34L4 34L4 35L7 35L7 36L6 36L6 37L7 37L7 38L6 38L6 39L7 39L7 40L5 40L5 37L3 37L3 38L2 38L2 39L1 39L1 40L0 40L0 43L1 43L1 40L3 40L3 42L2 42L2 44L1 44L1 45L0 45L0 48L5 48L5 47L8 47L8 48L6 48L6 49L8 49L8 50L9 50L9 51L8 51L8 52L12 52L12 51L13 51L13 54L12 54L12 53L11 53L11 54L10 54L10 53L9 53L9 54L8 54L8 57L9 57L9 55L10 55L10 57L14 57L14 56L15 56L15 57L17 57L17 55L18 55L18 57L20 57L20 56L19 56L19 55L18 55L18 53L19 53L19 52L18 52L18 53L17 53L17 52L16 52L16 51L17 51L17 50L16 50L16 49L17 49L17 47L16 47L16 45L15 45L15 47L14 47L14 43L15 43L15 44L17 44L17 46L18 46L18 45L19 45L19 46L20 46L20 45L19 45L19 44L21 44L21 42L22 42L22 41L23 41L23 42L24 42L24 43L25 43L25 45L26 45L26 46L25 46L25 51L24 51L24 49L23 49L23 48L24 48L24 45L23 45L23 48L22 48L22 46L21 46L21 48L20 48L20 47L18 47L18 51L19 51L19 50L20 50L20 49L21 49L21 48L22 48L22 50L21 50L21 51L20 51L20 53L21 53L21 52L22 52L22 53L23 53L23 56L22 56L22 54L20 54L20 55L21 55L21 56L22 56L22 57L23 57L23 56L24 56L24 57L25 57L25 55L26 55L26 57L28 57L28 55L29 55L29 57L33 57L33 55L30 55L30 54L31 54L31 53L32 53L32 54L34 54L34 57L35 57L35 55L37 55L37 54L38 54L38 53L39 53L39 55L40 55L40 57L42 57L42 56L43 56L43 54L42 54L42 52L44 52L44 55L45 55L45 56L44 56L44 57L45 57L45 56L46 56L46 57L50 57L50 55L49 55L49 54L52 54L52 55L53 55L53 54L54 54L54 53L57 53L57 52L56 52L56 51L57 51L57 49L56 49L56 47L57 47L57 45L56 45L56 44L57 44L57 42L56 42L56 44L55 44L55 45L56 45L56 47L55 47L55 46L53 46L53 47L52 47L52 45L53 45L53 44L54 44L54 43L55 43L55 42L54 42L54 39L55 39L55 38L57 38L57 37L55 37L55 36L54 36L54 34L53 34L53 36L51 36L51 33L50 33L50 32L53 32L53 31L55 31L55 33L56 33L56 36L57 36L57 33L56 33L56 31L57 31L57 28L56 28L56 27L57 27L57 24L56 24L56 23L57 23L57 20L56 20L56 23L55 23L55 21L54 21L54 19L55 19L55 18L56 18L56 19L57 19L57 18L56 18L56 17L57 17L57 10L56 10L56 9L57 9L57 8L55 8L55 9L54 9L54 10L53 10L53 8L49 8L49 6L48 6L48 8L47 8L47 5L48 5L48 0L46 0L46 1L47 1L47 2L45 2L45 4L44 4L44 2L43 2L43 3L42 3L42 7L41 7L41 6L40 6L40 7L41 7L41 8L40 8L40 9L39 9L39 6L38 6L38 7L37 7L37 6L36 6L36 10L34 10L34 9L35 9L35 4L36 4L36 3L35 3L35 2L37 2L37 3L38 3L38 5L39 5L39 4L40 4L40 2L42 2L42 1L45 1L45 0L42 0L42 1L41 1L41 0L38 0L38 2L37 2L37 1L35 1L35 0L34 0L34 8L32 8L32 9L31 9L31 5L32 5L32 2L33 2L33 0L30 0L30 1L29 1L29 0L28 0L28 1L27 1L27 0L24 0L24 1L23 1L23 0L20 0L20 1L19 1L19 0L18 0L18 2L15 2L15 1L14 1L14 0L13 0L13 1L11 1L11 2L10 2L10 0ZM16 0L16 1L17 1L17 0ZM13 1L13 3L14 3L14 4L15 4L15 3L14 3L14 1ZM20 1L20 2L22 2L22 6L21 6L21 9L20 9L20 10L21 10L21 9L22 9L22 8L25 8L25 9L24 9L24 11L23 11L23 12L24 12L24 14L25 14L25 12L24 12L24 11L26 11L26 13L27 13L27 12L28 12L28 11L29 11L29 12L30 12L30 13L29 13L29 15L28 15L28 14L26 14L26 17L25 17L25 15L24 15L24 18L27 18L27 19L26 19L26 20L27 20L27 21L28 21L28 20L30 20L30 22L29 22L29 24L30 24L30 26L31 26L31 25L32 25L32 28L31 28L31 30L32 30L32 31L31 31L31 32L30 32L30 31L29 31L29 32L27 32L27 33L28 33L28 34L26 34L26 33L25 33L25 32L26 32L26 30L25 30L25 25L24 25L24 24L23 24L23 23L22 23L22 22L21 22L21 23L22 23L22 24L23 24L23 25L24 25L24 26L23 26L23 27L22 27L22 28L23 28L23 27L24 27L24 30L23 30L23 29L22 29L22 30L21 30L21 29L20 29L20 26L19 26L19 25L18 25L18 23L17 23L17 22L16 22L16 23L17 23L17 25L16 25L16 27L15 27L15 25L14 25L14 23L15 23L15 21L14 21L14 23L12 23L12 25L13 25L13 26L14 26L14 29L13 29L13 28L12 28L12 27L11 27L11 23L10 23L10 24L9 24L9 23L8 23L8 22L10 22L10 21L8 21L8 22L7 22L7 21L6 21L6 22L7 22L7 23L5 23L5 22L3 22L3 23L2 23L2 25L3 25L3 23L5 23L5 24L8 24L8 25L9 25L9 26L10 26L10 27L9 27L9 30L10 30L10 31L9 31L9 32L8 32L8 31L5 31L5 33L6 33L6 34L8 34L8 33L11 33L11 34L9 34L9 35L8 35L8 36L9 36L9 37L11 37L11 38L9 38L9 39L12 39L12 40L13 40L13 39L14 39L14 41L13 41L13 42L15 42L15 43L16 43L16 42L18 42L18 39L19 39L19 38L18 38L18 39L16 39L16 38L17 38L17 37L16 37L16 36L18 36L18 35L19 35L19 34L18 34L18 30L19 30L19 29L20 29L20 30L21 30L21 32L20 32L20 31L19 31L19 33L20 33L20 35L21 35L21 38L20 38L20 39L21 39L21 38L22 38L22 40L21 40L21 41L20 41L20 40L19 40L19 41L20 41L20 42L19 42L19 43L18 43L18 44L19 44L19 43L20 43L20 42L21 42L21 41L22 41L22 40L23 40L23 41L24 41L24 42L26 42L26 41L25 41L25 40L26 40L26 37L27 37L27 41L28 41L28 43L30 43L30 44L28 44L28 46L29 46L29 47L28 47L28 48L31 48L31 49L32 49L32 48L31 48L31 47L32 47L32 46L33 46L33 45L34 45L34 47L33 47L33 48L35 48L35 49L34 49L34 50L33 50L33 51L34 51L34 52L35 52L35 53L34 53L34 54L35 54L35 53L36 53L36 54L37 54L37 53L38 53L38 52L39 52L39 53L40 53L40 52L39 52L39 49L40 49L40 51L41 51L41 52L42 52L42 51L41 51L41 49L42 49L42 50L43 50L43 51L44 51L44 50L45 50L45 53L46 53L46 54L45 54L45 55L46 55L46 54L47 54L47 55L48 55L48 56L49 56L49 55L48 55L48 54L49 54L49 53L46 53L46 50L47 50L47 48L45 48L45 47L44 47L44 46L45 46L45 45L44 45L44 44L45 44L45 43L44 43L44 39L43 39L43 38L44 38L44 34L45 34L45 33L46 33L46 34L48 34L48 35L45 35L45 36L48 36L48 37L46 37L46 38L45 38L45 41L46 41L46 43L47 43L47 44L46 44L46 47L47 47L47 46L49 46L49 47L50 47L50 46L51 46L51 45L50 45L50 46L49 46L49 44L50 44L50 42L49 42L49 41L51 41L51 40L52 40L52 44L53 44L53 37L54 37L54 38L55 38L55 37L54 37L54 36L53 36L53 37L52 37L52 38L51 38L51 37L50 37L50 33L49 33L49 34L48 34L48 33L47 33L47 28L48 28L48 26L51 26L51 25L52 25L52 24L53 24L53 25L54 25L54 26L55 26L55 25L56 25L56 24L55 24L55 23L54 23L54 21L53 21L53 22L52 22L52 20L53 20L53 19L54 19L54 17L52 17L52 16L53 16L53 15L54 15L54 16L55 16L55 17L56 17L56 16L55 16L55 15L56 15L56 13L55 13L55 11L56 11L56 10L55 10L55 11L54 11L54 12L53 12L53 13L54 13L54 14L52 14L52 13L50 13L50 10L52 10L52 11L51 11L51 12L52 12L52 11L53 11L53 10L52 10L52 9L50 9L50 10L49 10L49 8L48 8L48 10L47 10L47 9L46 9L46 5L47 5L47 3L46 3L46 5L44 5L44 4L43 4L43 5L44 5L44 6L43 6L43 9L42 9L42 8L41 8L41 9L42 9L42 10L41 10L41 12L42 12L42 15L41 15L41 17L42 17L42 18L43 18L43 17L44 17L44 19L43 19L43 20L42 20L42 19L41 19L41 18L40 18L40 14L41 14L41 13L40 13L40 10L39 10L39 9L38 9L38 8L37 8L37 9L38 9L38 10L39 10L39 12L37 12L37 11L34 11L34 10L33 10L33 9L32 9L32 11L34 11L34 12L35 12L35 13L34 13L34 15L33 15L33 13L32 13L32 15L31 15L31 12L30 12L30 10L31 10L31 9L30 9L30 10L29 10L29 9L27 9L27 10L25 10L25 9L26 9L26 5L24 5L24 6L23 6L23 2L22 2L22 1ZM24 1L24 4L25 4L25 1ZM28 1L28 2L29 2L29 1ZM30 1L30 2L31 2L31 1ZM39 1L39 2L38 2L38 3L39 3L39 2L40 2L40 1ZM18 2L18 4L19 4L19 7L20 7L20 5L21 5L21 3L19 3L19 2ZM16 3L16 4L17 4L17 3ZM26 3L26 4L27 4L27 3ZM28 3L28 4L30 4L30 3ZM9 5L9 7L10 7L10 5ZM13 5L13 7L14 7L14 6L15 6L15 5ZM16 5L16 6L17 6L17 5ZM27 5L27 8L30 8L30 5ZM22 6L22 7L23 7L23 6ZM24 6L24 7L25 7L25 6ZM28 6L28 7L29 7L29 6ZM32 6L32 7L33 7L33 6ZM44 6L44 10L46 10L46 9L45 9L45 6ZM27 10L27 11L28 11L28 10ZM42 10L42 12L43 12L43 10ZM4 11L4 12L5 12L5 11ZM6 11L6 12L7 12L7 11ZM12 11L12 12L11 12L11 14L10 14L10 16L11 16L11 15L12 15L12 13L13 13L13 11ZM18 11L18 12L19 12L19 13L20 13L20 11ZM46 11L46 13L45 13L45 12L44 12L44 14L43 14L43 16L44 16L44 17L45 17L45 19L44 19L44 21L43 21L43 22L42 22L42 20L41 20L41 19L40 19L40 18L38 18L38 16L37 16L37 15L38 15L38 13L37 13L37 12L36 12L36 13L35 13L35 14L36 14L36 18L34 18L34 17L35 17L35 15L34 15L34 17L33 17L33 15L32 15L32 17L31 17L31 16L30 16L30 15L29 15L29 16L30 16L30 17L28 17L28 18L30 18L30 17L31 17L31 18L32 18L32 17L33 17L33 19L31 19L31 20L32 20L32 21L33 21L33 22L31 22L31 23L32 23L32 25L33 25L33 26L34 26L34 24L36 24L36 26L37 26L37 28L36 28L36 27L34 27L34 29L33 29L33 28L32 28L32 29L33 29L33 32L32 32L32 34L30 34L30 32L29 32L29 34L28 34L28 35L27 35L27 36L28 36L28 37L29 37L29 36L28 36L28 35L31 35L31 36L30 36L30 43L31 43L31 44L32 44L32 45L31 45L31 46L30 46L30 47L31 47L31 46L32 46L32 45L33 45L33 44L35 44L35 43L36 43L36 41L37 41L37 42L38 42L38 41L39 41L39 42L40 42L40 41L41 41L41 43L43 43L43 44L42 44L42 45L41 45L41 44L40 44L40 45L39 45L39 46L41 46L41 47L40 47L40 49L41 49L41 47L42 47L42 45L43 45L43 44L44 44L44 43L43 43L43 42L42 42L42 41L43 41L43 39L41 39L41 38L42 38L42 37L43 37L43 36L42 36L42 35L40 35L40 36L39 36L39 38L38 38L38 37L37 37L37 36L38 36L38 35L39 35L39 34L38 34L38 33L39 33L39 32L40 32L40 34L42 34L42 33L43 33L43 34L44 34L44 33L45 33L45 31L46 31L46 30L45 30L45 31L44 31L44 29L46 29L46 28L47 28L47 26L48 26L48 25L49 25L49 24L50 24L50 22L48 22L48 19L47 19L47 18L48 18L48 17L49 17L49 18L50 18L50 19L49 19L49 20L51 20L51 18L52 18L52 17L51 17L51 16L52 16L52 14L51 14L51 16L50 16L50 13L49 13L49 14L48 14L48 11ZM2 12L2 13L3 13L3 12ZM46 13L46 16L47 16L47 17L46 17L46 18L47 18L47 17L48 17L48 16L47 16L47 15L48 15L48 14L47 14L47 13ZM1 14L1 15L2 15L2 14ZM6 14L6 15L7 15L7 14ZM3 15L3 16L4 16L4 15ZM44 15L44 16L45 16L45 15ZM6 16L6 17L7 17L7 16ZM19 16L19 17L20 17L20 19L21 19L21 21L22 21L22 20L23 20L23 18L22 18L22 19L21 19L21 17L20 17L20 16ZM50 17L50 18L51 18L51 17ZM17 18L17 19L18 19L18 18ZM36 18L36 19L37 19L37 18ZM14 19L14 20L15 20L15 19ZM24 19L24 20L25 20L25 19ZM27 19L27 20L28 20L28 19ZM33 19L33 20L34 20L34 22L33 22L33 24L34 24L34 22L35 22L35 23L36 23L36 24L37 24L37 25L38 25L38 26L39 26L39 29L38 29L38 28L37 28L37 29L36 29L36 28L35 28L35 29L34 29L34 31L35 31L35 33L33 33L33 34L32 34L32 35L33 35L33 36L34 36L34 38L35 38L35 41L34 41L34 39L33 39L33 38L31 38L31 43L32 43L32 40L33 40L33 41L34 41L34 42L35 42L35 41L36 41L36 38L37 38L37 41L38 41L38 38L37 38L37 37L36 37L36 35L38 35L38 34L37 34L37 33L36 33L36 31L37 31L37 32L38 32L38 31L40 31L40 32L41 32L41 33L42 33L42 31L43 31L43 28L42 28L42 31L40 31L40 30L41 30L41 29L40 29L40 26L41 26L41 25L40 25L40 24L39 24L39 23L41 23L41 24L42 24L42 27L43 27L43 26L44 26L44 27L46 27L46 26L47 26L47 25L48 25L48 22L47 22L47 21L46 21L46 20L47 20L47 19L46 19L46 20L45 20L45 21L44 21L44 22L43 22L43 23L41 23L41 22L40 22L40 19L39 19L39 20L37 20L37 21L36 21L36 20L34 20L34 19ZM18 20L18 21L19 21L19 20ZM35 21L35 22L36 22L36 23L39 23L39 22L38 22L38 21L37 21L37 22L36 22L36 21ZM24 22L24 23L25 23L25 22ZM26 22L26 23L27 23L27 25L26 25L26 26L27 26L27 25L28 25L28 26L29 26L29 25L28 25L28 22ZM44 22L44 23L45 23L45 24L44 24L44 26L46 26L46 25L45 25L45 24L46 24L46 23L45 23L45 22ZM51 22L51 24L52 24L52 22ZM53 23L53 24L54 24L54 25L55 25L55 24L54 24L54 23ZM6 25L6 26L7 26L7 25ZM39 25L39 26L40 26L40 25ZM5 27L5 30L8 30L8 27ZM16 27L16 28L17 28L17 27ZM18 27L18 28L19 28L19 27ZM27 27L27 30L30 30L30 27ZM49 27L49 30L52 30L52 27ZM54 27L54 28L53 28L53 29L55 29L55 27ZM0 28L0 29L1 29L1 28ZM6 28L6 29L7 29L7 28ZM10 28L10 30L13 30L13 29L11 29L11 28ZM28 28L28 29L29 29L29 28ZM50 28L50 29L51 29L51 28ZM14 29L14 30L15 30L15 31L13 31L13 32L14 32L14 33L15 33L15 35L14 35L14 34L11 34L11 35L13 35L13 38L15 38L15 37L14 37L14 36L16 36L16 35L18 35L18 34L16 34L16 33L17 33L17 31L16 31L16 30L15 30L15 29ZM35 29L35 30L36 30L36 29ZM22 30L22 33L23 33L23 34L21 34L21 35L25 35L25 36L24 36L24 37L26 37L26 35L25 35L25 34L24 34L24 32L25 32L25 30L24 30L24 32L23 32L23 30ZM37 30L37 31L38 31L38 30ZM55 30L55 31L56 31L56 30ZM10 31L10 32L11 32L11 33L12 33L12 32L11 32L11 31ZM15 31L15 33L16 33L16 31ZM6 32L6 33L8 33L8 32ZM35 33L35 35L34 35L34 36L35 36L35 35L36 35L36 33ZM48 35L48 36L49 36L49 35ZM11 36L11 37L12 37L12 36ZM22 36L22 38L23 38L23 36ZM31 36L31 37L32 37L32 36ZM41 36L41 37L42 37L42 36ZM35 37L35 38L36 38L36 37ZM48 37L48 38L49 38L49 39L48 39L48 40L47 40L47 38L46 38L46 41L48 41L48 40L51 40L51 38L50 38L50 37ZM24 38L24 39L25 39L25 38ZM28 38L28 39L29 39L29 38ZM39 38L39 39L40 39L40 40L39 40L39 41L40 41L40 40L41 40L41 39L40 39L40 38ZM3 39L3 40L4 40L4 41L5 41L5 40L4 40L4 39ZM7 40L7 41L6 41L6 42L5 42L5 43L3 43L3 44L7 44L7 45L6 45L6 46L7 46L7 45L8 45L8 44L7 44L7 43L6 43L6 42L7 42L7 41L9 41L9 40ZM15 40L15 42L16 42L16 40ZM28 40L28 41L29 41L29 40ZM55 40L55 41L57 41L57 40ZM10 41L10 42L8 42L8 43L9 43L9 46L8 46L8 47L9 47L9 46L10 46L10 48L9 48L9 49L10 49L10 50L11 50L11 51L12 51L12 50L13 50L13 51L15 51L15 48L16 48L16 47L15 47L15 48L12 48L12 47L13 47L13 45L12 45L12 44L11 44L11 43L10 43L10 42L12 42L12 41ZM22 43L22 44L23 44L23 43ZM37 43L37 44L36 44L36 45L35 45L35 46L36 46L36 47L37 47L37 48L36 48L36 49L37 49L37 51L35 51L35 52L36 52L36 53L37 53L37 51L38 51L38 47L37 47L37 46L38 46L38 45L37 45L37 44L39 44L39 43ZM48 43L48 44L47 44L47 45L48 45L48 44L49 44L49 43ZM10 44L10 46L11 46L11 47L12 47L12 46L11 46L11 44ZM1 45L1 47L2 47L2 45ZM3 45L3 47L5 47L5 46L4 46L4 45ZM26 46L26 48L27 48L27 46ZM54 47L54 48L55 48L55 47ZM10 48L10 49L11 49L11 50L12 50L12 49L11 49L11 48ZM44 48L44 49L43 49L43 50L44 50L44 49L45 49L45 50L46 50L46 49L45 49L45 48ZM27 49L27 52L30 52L30 49ZM49 49L49 52L52 52L52 49ZM54 49L54 50L53 50L53 51L54 51L54 52L55 52L55 51L56 51L56 49ZM28 50L28 51L29 51L29 50ZM50 50L50 51L51 51L51 50ZM22 51L22 52L24 52L24 51ZM25 51L25 53L26 53L26 54L27 54L27 55L28 55L28 53L26 53L26 51ZM31 51L31 52L32 52L32 51ZM47 51L47 52L48 52L48 51ZM14 52L14 55L15 55L15 52ZM11 54L11 56L12 56L12 54ZM16 54L16 55L17 55L17 54ZM24 54L24 55L25 55L25 54ZM40 54L40 55L41 55L41 54ZM55 54L55 55L57 55L57 54ZM36 56L36 57L37 57L37 56ZM51 56L51 57L53 57L53 56ZM56 56L56 57L57 57L57 56ZM0 0L0 7L7 7L7 0ZM1 1L1 6L6 6L6 1ZM2 2L2 5L5 5L5 2ZM50 0L50 7L57 7L57 0ZM51 1L51 6L56 6L56 1ZM52 2L52 5L55 5L55 2ZM0 50L0 57L7 57L7 50ZM1 51L1 56L6 56L6 51ZM2 52L2 55L5 55L5 52Z" fill="#000000"/></g></g></svg>
