<?xml version="1.0" encoding="UTF-8"?>
<svg xmlns="http://www.w3.org/2000/svg" version="1.1" width="300" height="300" viewBox="0 0 300 300"><rect x="0" y="0" width="300" height="300" fill="#fefefe"/><g transform="scale(4.615)"><g transform="translate(4,4)"><path fill-rule="evenodd" d="M9 0L9 1L8 1L8 2L9 2L9 1L11 1L11 2L10 2L10 4L9 4L9 3L8 3L8 4L9 4L9 5L8 5L8 7L9 7L9 5L10 5L10 8L6 8L6 9L5 9L5 8L0 8L0 10L1 10L1 9L5 9L5 10L6 10L6 11L8 11L8 10L6 10L6 9L11 9L11 10L12 10L12 11L10 11L10 10L9 10L9 13L10 13L10 14L11 14L11 13L12 13L12 15L9 15L9 14L6 14L6 13L8 13L8 12L5 12L5 14L4 14L4 10L2 10L2 11L0 11L0 15L1 15L1 17L0 17L0 19L2 19L2 21L3 21L3 22L1 22L1 23L2 23L2 24L3 24L3 25L1 25L1 26L0 26L0 27L2 27L2 29L3 29L3 30L0 30L0 31L1 31L1 32L2 32L2 33L1 33L1 34L0 34L0 36L5 36L5 35L3 35L3 33L4 33L4 32L3 32L3 31L10 31L10 32L5 32L5 34L6 34L6 35L11 35L11 32L12 32L12 34L13 34L13 35L12 35L12 36L13 36L13 35L14 35L14 37L12 37L12 38L14 38L14 37L15 37L15 38L16 38L16 37L15 37L15 35L19 35L19 36L17 36L17 38L18 38L18 39L19 39L19 40L17 40L17 41L19 41L19 42L18 42L18 43L16 43L16 45L17 45L17 46L14 46L14 47L15 47L15 49L16 49L16 48L17 48L17 50L15 50L15 51L14 51L14 50L13 50L13 49L12 49L12 48L13 48L13 47L12 47L12 46L13 46L13 45L15 45L15 44L12 44L12 43L14 43L14 42L13 42L13 41L14 41L14 40L15 40L15 41L16 41L16 39L14 39L14 40L13 40L13 39L12 39L12 40L11 40L11 41L12 41L12 42L11 42L11 44L10 44L10 42L9 42L9 41L8 41L8 40L6 40L6 39L7 39L7 38L8 38L8 39L10 39L10 38L11 38L11 36L10 36L10 37L9 37L9 36L6 36L6 37L7 37L7 38L4 38L4 37L3 37L3 38L4 38L4 39L5 39L5 40L4 40L4 41L3 41L3 39L2 39L2 37L0 37L0 38L1 38L1 40L0 40L0 42L2 42L2 41L3 41L3 43L1 43L1 44L0 44L0 45L1 45L1 46L0 46L0 48L5 48L5 47L7 47L7 48L6 48L6 49L8 49L8 51L10 51L10 55L9 55L9 52L8 52L8 57L9 57L9 56L11 56L11 57L13 57L13 56L12 56L12 54L13 54L13 55L16 55L16 56L15 56L15 57L16 57L16 56L17 56L17 57L20 57L20 56L19 56L19 55L20 55L20 54L19 54L19 53L20 53L20 52L22 52L22 51L21 51L21 50L25 50L25 51L26 51L26 52L24 52L24 53L21 53L21 55L23 55L23 56L24 56L24 57L26 57L26 56L27 56L27 57L29 57L29 56L30 56L30 57L31 57L31 56L35 56L35 57L39 57L39 56L37 56L37 55L40 55L40 56L41 56L41 57L44 57L44 56L45 56L45 57L46 57L46 56L45 56L45 55L47 55L47 56L48 56L48 55L49 55L49 56L50 56L50 57L52 57L52 55L51 55L51 53L52 53L52 54L53 54L53 55L54 55L54 56L53 56L53 57L54 57L54 56L55 56L55 57L56 57L56 56L55 56L55 53L56 53L56 52L57 52L57 51L56 51L56 49L57 49L57 48L56 48L56 46L57 46L57 43L56 43L56 42L55 42L55 39L57 39L57 37L56 37L56 36L57 36L57 35L56 35L56 34L55 34L55 32L56 32L56 33L57 33L57 32L56 32L56 30L57 30L57 27L56 27L56 26L57 26L57 25L56 25L56 22L57 22L57 19L56 19L56 18L57 18L57 17L56 17L56 16L57 16L57 15L56 15L56 14L57 14L57 12L56 12L56 14L55 14L55 13L54 13L54 12L55 12L55 11L56 11L56 8L55 8L55 10L54 10L54 11L51 11L51 10L53 10L53 9L54 9L54 8L53 8L53 9L52 9L52 8L51 8L51 10L49 10L49 9L50 9L50 8L49 8L49 9L47 9L47 10L46 10L46 11L45 11L45 10L44 10L44 7L45 7L45 6L46 6L46 8L47 8L47 5L48 5L48 0L46 0L46 1L45 1L45 2L44 2L44 3L43 3L43 4L40 4L40 5L39 5L39 6L38 6L38 7L37 7L37 5L38 5L38 4L37 4L37 3L36 3L36 0L35 0L35 1L33 1L33 2L32 2L32 3L31 3L31 1L32 1L32 0L27 0L27 1L26 1L26 0L23 0L23 1L22 1L22 0L21 0L21 1L20 1L20 0L17 0L17 1L16 1L16 2L15 2L15 1L14 1L14 0L12 0L12 1L11 1L11 0ZM37 0L37 1L38 1L38 3L41 3L41 2L43 2L43 0L41 0L41 1L40 1L40 0L39 0L39 1L38 1L38 0ZM12 1L12 2L11 2L11 4L10 4L10 5L11 5L11 4L12 4L12 5L13 5L13 7L12 7L12 6L11 6L11 7L12 7L12 10L15 10L15 13L13 13L13 14L15 14L15 13L16 13L16 16L18 16L18 15L17 15L17 13L18 13L18 12L17 12L17 13L16 13L16 11L18 11L18 9L16 9L16 8L19 8L19 9L20 9L20 11L19 11L19 12L20 12L20 14L19 14L19 15L20 15L20 14L21 14L21 13L22 13L22 14L23 14L23 13L26 13L26 12L27 12L27 11L29 11L29 12L28 12L28 13L27 13L27 15L26 15L26 14L25 14L25 15L26 15L26 16L24 16L24 15L21 15L21 16L20 16L20 18L17 18L17 17L15 17L15 15L14 15L14 17L13 17L13 16L12 16L12 17L13 17L13 19L14 19L14 20L13 20L13 21L14 21L14 22L13 22L13 25L12 25L12 22L11 22L11 19L10 19L10 17L11 17L11 16L10 16L10 17L9 17L9 18L8 18L8 17L6 17L6 16L7 16L7 15L6 15L6 14L5 14L5 15L3 15L3 14L2 14L2 15L3 15L3 16L4 16L4 17L1 17L1 18L3 18L3 19L4 19L4 21L6 21L6 22L4 22L4 23L3 23L3 24L4 24L4 23L6 23L6 24L10 24L10 23L8 23L8 22L7 22L7 21L9 21L9 22L11 22L11 26L12 26L12 29L11 29L11 30L12 30L12 29L13 29L13 31L14 31L14 30L15 30L15 29L16 29L16 30L18 30L18 29L20 29L20 30L19 30L19 31L17 31L17 32L16 32L16 33L15 33L15 32L14 32L14 33L13 33L13 34L14 34L14 35L15 35L15 34L19 34L19 35L20 35L20 34L21 34L21 33L22 33L22 36L19 36L19 37L21 37L21 38L22 38L22 39L21 39L21 40L20 40L20 42L21 42L21 43L20 43L20 44L19 44L19 45L20 45L20 46L17 46L17 48L18 48L18 47L21 47L21 48L19 48L19 49L20 49L20 50L21 50L21 49L23 49L23 48L24 48L24 49L25 49L25 50L26 50L26 49L25 49L25 47L26 47L26 48L27 48L27 47L28 47L28 48L29 48L29 46L30 46L30 44L31 44L31 45L32 45L32 49L31 49L31 53L30 53L30 54L27 54L27 53L24 53L24 54L23 54L23 55L24 55L24 56L26 56L26 55L27 55L27 56L29 56L29 55L30 55L30 56L31 56L31 54L32 54L32 53L33 53L33 54L34 54L34 55L35 55L35 56L36 56L36 54L35 54L35 53L34 53L34 52L35 52L35 50L36 50L36 52L38 52L38 53L37 53L37 54L40 54L40 53L41 53L41 52L42 52L42 53L43 53L43 54L44 54L44 55L42 55L42 54L41 54L41 56L44 56L44 55L45 55L45 54L47 54L47 53L48 53L48 50L47 50L47 49L48 49L48 48L53 48L53 46L54 46L54 47L55 47L55 46L56 46L56 43L55 43L55 44L54 44L54 45L53 45L53 43L54 43L54 42L53 42L53 41L51 41L51 42L50 42L50 43L49 43L49 42L48 42L48 41L49 41L49 40L50 40L50 39L52 39L52 40L53 40L53 39L55 39L55 37L53 37L53 35L55 35L55 34L54 34L54 33L52 33L52 32L53 32L53 31L48 31L48 29L46 29L46 30L47 30L47 31L48 31L48 32L47 32L47 33L45 33L45 32L43 32L43 31L44 31L44 30L41 30L41 29L45 29L45 28L46 28L46 27L48 27L48 26L47 26L47 25L50 25L50 26L51 26L51 25L55 25L55 26L56 26L56 25L55 25L55 24L53 24L53 23L50 23L50 22L51 22L51 21L53 21L53 22L56 22L56 19L55 19L55 20L53 20L53 19L52 19L52 20L51 20L51 21L49 21L49 19L50 19L50 18L55 18L55 16L52 16L52 15L51 15L51 17L50 17L50 14L51 14L51 12L50 12L50 11L49 11L49 10L47 10L47 11L48 11L48 12L45 12L45 11L44 11L44 10L43 10L43 11L42 11L42 10L41 10L41 7L42 7L42 6L43 6L43 7L44 7L44 6L45 6L45 5L47 5L47 3L44 3L44 6L43 6L43 5L40 5L40 6L39 6L39 7L40 7L40 8L39 8L39 9L38 9L38 11L39 11L39 13L38 13L38 14L37 14L37 13L36 13L36 14L37 14L37 15L35 15L35 16L31 16L31 17L32 17L32 18L30 18L30 20L29 20L29 19L28 19L28 18L27 18L27 19L26 19L26 20L25 20L25 21L24 21L24 20L21 20L21 19L20 19L20 18L22 18L22 19L24 19L24 18L22 18L22 17L25 17L25 18L26 18L26 17L28 17L28 16L29 16L29 14L30 14L30 15L31 15L31 14L30 14L30 13L31 13L31 12L32 12L32 13L33 13L33 14L35 14L35 11L36 11L36 10L37 10L37 9L35 9L35 8L37 8L37 7L36 7L36 5L37 5L37 4L36 4L36 5L35 5L35 3L32 3L32 4L31 4L31 8L32 8L32 10L29 10L29 9L28 9L28 10L27 10L27 11L26 11L26 12L25 12L25 11L23 11L23 13L22 13L22 12L20 12L20 11L22 11L22 10L23 10L23 8L24 8L24 6L23 6L23 5L24 5L24 4L23 4L23 3L26 3L26 4L25 4L25 8L26 8L26 4L30 4L30 3L27 3L27 2L26 2L26 1L25 1L25 2L22 2L22 1L21 1L21 2L20 2L20 3L19 3L19 4L17 4L17 3L15 3L15 2L14 2L14 1ZM17 1L17 2L19 2L19 1ZM29 1L29 2L30 2L30 1ZM46 1L46 2L47 2L47 1ZM13 2L13 4L14 4L14 2ZM15 4L15 5L16 5L16 4ZM19 4L19 5L20 5L20 7L19 7L19 6L18 6L18 5L17 5L17 6L16 6L16 7L15 7L15 6L14 6L14 7L13 7L13 9L14 9L14 8L16 8L16 7L17 7L17 6L18 6L18 7L19 7L19 8L22 8L22 7L23 7L23 6L22 6L22 7L21 7L21 4ZM32 4L32 5L34 5L34 7L33 7L33 6L32 6L32 7L33 7L33 9L34 9L34 8L35 8L35 5L34 5L34 4ZM27 5L27 8L30 8L30 5ZM28 6L28 7L29 7L29 6ZM40 6L40 7L41 7L41 6ZM48 6L48 7L49 7L49 6ZM42 8L42 9L43 9L43 8ZM15 9L15 10L16 10L16 9ZM21 9L21 10L22 10L22 9ZM39 9L39 10L40 10L40 9ZM32 10L32 11L33 11L33 10ZM12 11L12 12L14 12L14 11ZM40 11L40 12L41 12L41 11ZM43 11L43 13L41 13L41 14L43 14L43 15L42 15L42 16L41 16L41 15L39 15L39 14L38 14L38 15L39 15L39 16L38 16L38 17L37 17L37 16L35 16L35 17L37 17L37 18L38 18L38 17L39 17L39 19L37 19L37 20L36 20L36 19L35 19L35 23L34 23L34 22L33 22L33 23L32 23L32 24L31 24L31 25L30 25L30 24L29 24L29 23L31 23L31 21L32 21L32 20L33 20L33 19L31 19L31 21L28 21L28 22L29 22L29 23L28 23L28 24L29 24L29 25L30 25L30 26L26 26L26 25L25 25L25 24L27 24L27 21L25 21L25 22L26 22L26 23L25 23L25 24L24 24L24 23L23 23L23 25L22 25L22 24L19 24L19 23L20 23L20 22L19 22L19 21L20 21L20 20L18 20L18 19L17 19L17 18L15 18L15 17L14 17L14 18L15 18L15 21L16 21L16 22L14 22L14 24L15 24L15 25L13 25L13 28L14 28L14 29L15 29L15 25L16 25L16 24L17 24L17 26L16 26L16 27L18 27L18 26L19 26L19 28L20 28L20 29L22 29L22 28L20 28L20 25L22 25L22 26L21 26L21 27L22 27L22 26L26 26L26 27L25 27L25 28L23 28L23 30L24 30L24 31L25 31L25 33L23 33L23 34L24 34L24 36L23 36L23 37L24 37L24 38L23 38L23 39L24 39L24 40L25 40L25 39L26 39L26 40L27 40L27 41L26 41L26 42L27 42L27 43L23 43L23 42L25 42L25 41L23 41L23 42L22 42L22 43L21 43L21 44L20 44L20 45L21 45L21 47L23 47L23 46L25 46L25 44L27 44L27 45L26 45L26 47L27 47L27 45L29 45L29 43L31 43L31 44L33 44L33 43L34 43L34 45L36 45L36 46L33 46L33 48L34 48L34 49L36 49L36 50L38 50L38 52L39 52L39 51L40 51L40 52L41 52L41 50L42 50L42 51L43 51L43 53L44 53L44 54L45 54L45 53L44 53L44 52L47 52L47 51L44 51L44 50L45 50L45 49L44 49L44 48L45 48L45 47L46 47L46 49L47 49L47 48L48 48L48 47L50 47L50 46L51 46L51 47L52 47L52 46L51 46L51 43L53 43L53 42L51 42L51 43L50 43L50 44L48 44L48 45L47 45L47 43L48 43L48 42L47 42L47 43L46 43L46 42L45 42L45 41L47 41L47 39L50 39L50 38L49 38L49 37L50 37L50 36L52 36L52 35L53 35L53 34L52 34L52 33L51 33L51 32L50 32L50 34L48 34L48 35L47 35L47 36L48 36L48 35L50 35L50 36L49 36L49 37L48 37L48 38L47 38L47 39L46 39L46 40L45 40L45 39L41 39L41 41L39 41L39 42L38 42L38 40L40 40L40 39L38 39L38 37L40 37L40 38L43 38L43 37L44 37L44 38L45 38L45 37L46 37L46 34L45 34L45 33L43 33L43 32L41 32L41 33L39 33L39 34L40 34L40 35L39 35L39 36L38 36L38 33L37 33L37 32L34 32L34 33L35 33L35 34L33 34L33 33L32 33L32 32L33 32L33 31L35 31L35 30L37 30L37 29L38 29L38 28L40 28L40 27L41 27L41 28L42 28L42 26L45 26L45 27L43 27L43 28L45 28L45 27L46 27L46 26L45 26L45 25L47 25L47 24L48 24L48 23L47 23L47 22L49 22L49 21L47 21L47 20L46 20L46 19L47 19L47 18L50 18L50 17L49 17L49 16L48 16L48 15L49 15L49 14L50 14L50 12L49 12L49 13L47 13L47 14L45 14L45 15L47 15L47 16L48 16L48 17L47 17L47 18L46 18L46 19L45 19L45 18L44 18L44 11ZM33 12L33 13L34 13L34 12ZM52 12L52 13L53 13L53 12ZM28 13L28 14L29 14L29 13ZM8 15L8 16L9 16L9 15ZM27 15L27 16L28 16L28 15ZM21 16L21 17L22 17L22 16ZM39 16L39 17L41 17L41 16ZM42 16L42 17L43 17L43 16ZM45 16L45 17L46 17L46 16ZM5 17L5 20L6 20L6 21L7 21L7 20L8 20L8 19L7 19L7 18L6 18L6 17ZM41 18L41 20L39 20L39 21L38 21L38 22L37 22L37 24L40 24L40 25L38 25L38 26L37 26L37 25L33 25L33 24L32 24L32 26L31 26L31 28L32 28L32 29L31 29L31 30L32 30L32 31L30 31L30 32L29 32L29 33L28 33L28 31L27 31L27 33L25 33L25 34L27 34L27 35L26 35L26 36L25 36L25 38L26 38L26 39L28 39L28 41L27 41L27 42L29 42L29 40L32 40L32 41L31 41L31 42L32 42L32 43L33 43L33 42L34 42L34 43L37 43L37 42L35 42L35 40L38 40L38 39L35 39L35 36L37 36L37 34L35 34L35 36L34 36L34 35L33 35L33 34L32 34L32 33L31 33L31 32L32 32L32 31L33 31L33 30L35 30L35 28L33 28L33 27L34 27L34 26L36 26L36 27L39 27L39 26L41 26L41 24L40 24L40 22L39 22L39 21L43 21L43 20L44 20L44 25L45 25L45 23L46 23L46 22L47 22L47 21L46 21L46 20L44 20L44 18L43 18L43 19L42 19L42 18ZM6 19L6 20L7 20L7 19ZM9 19L9 21L10 21L10 19ZM27 19L27 20L28 20L28 19ZM16 20L16 21L17 21L17 22L18 22L18 21L17 21L17 20ZM23 21L23 22L24 22L24 21ZM45 21L45 22L46 22L46 21ZM6 22L6 23L7 23L7 22ZM21 22L21 23L22 23L22 22ZM41 22L41 23L42 23L42 24L43 24L43 23L42 23L42 22ZM15 23L15 24L16 24L16 23ZM17 23L17 24L18 24L18 23ZM50 24L50 25L51 25L51 24ZM4 25L4 26L8 26L8 25ZM9 25L9 27L10 27L10 28L11 28L11 27L10 27L10 25ZM2 26L2 27L3 27L3 28L4 28L4 27L3 27L3 26ZM32 26L32 27L33 27L33 26ZM53 26L53 27L54 27L54 26ZM5 27L5 30L8 30L8 27ZM27 27L27 30L30 30L30 27ZM49 27L49 30L52 30L52 27ZM55 27L55 28L54 28L54 29L53 29L53 30L54 30L54 31L55 31L55 30L54 30L54 29L56 29L56 27ZM6 28L6 29L7 29L7 28ZM16 28L16 29L18 29L18 28ZM25 28L25 29L26 29L26 28ZM28 28L28 29L29 29L29 28ZM50 28L50 29L51 29L51 28ZM9 29L9 30L10 30L10 29ZM38 30L38 32L39 32L39 30ZM40 30L40 31L41 31L41 30ZM20 31L20 32L17 32L17 33L21 33L21 32L23 32L23 31ZM48 32L48 33L49 33L49 32ZM6 33L6 34L8 34L8 33ZM14 33L14 34L15 34L15 33ZM29 33L29 34L30 34L30 36L29 36L29 37L31 37L31 38L29 38L29 39L33 39L33 40L35 40L35 39L34 39L34 38L33 38L33 37L32 37L32 36L33 36L33 35L31 35L31 33ZM42 34L42 35L41 35L41 36L40 36L40 37L43 37L43 36L44 36L44 37L45 37L45 36L44 36L44 35L45 35L45 34ZM50 34L50 35L52 35L52 34ZM26 36L26 38L28 38L28 37L27 37L27 36ZM19 38L19 39L20 39L20 38ZM5 40L5 41L4 41L4 43L3 43L3 44L2 44L2 45L3 45L3 47L5 47L5 46L7 46L7 45L9 45L9 47L10 47L10 48L8 48L8 49L9 49L9 50L11 50L11 54L12 54L12 53L13 53L13 54L14 54L14 51L13 51L13 50L12 50L12 49L10 49L10 48L11 48L11 47L10 47L10 45L9 45L9 43L6 43L6 42L7 42L7 41L6 41L6 40ZM12 40L12 41L13 41L13 40ZM42 40L42 41L45 41L45 40ZM32 41L32 42L33 42L33 41ZM43 42L43 44L44 44L44 45L43 45L43 46L41 46L41 48L39 48L39 47L40 47L40 46L39 46L39 45L41 45L41 44L42 44L42 43L41 43L41 44L39 44L39 45L38 45L38 46L39 46L39 47L38 47L38 48L37 48L37 49L38 49L38 50L41 50L41 48L42 48L42 49L43 49L43 48L44 48L44 45L45 45L45 46L47 46L47 45L45 45L45 44L46 44L46 43L45 43L45 44L44 44L44 42ZM4 43L4 44L3 44L3 45L7 45L7 44L5 44L5 43ZM11 44L11 45L12 45L12 44ZM17 44L17 45L18 45L18 44ZM21 44L21 45L22 45L22 46L23 46L23 45L22 45L22 44ZM49 45L49 46L50 46L50 45ZM54 45L54 46L55 46L55 45ZM1 46L1 47L2 47L2 46ZM35 47L35 48L36 48L36 47ZM42 47L42 48L43 48L43 47ZM38 48L38 49L39 49L39 48ZM54 48L54 49L56 49L56 48ZM27 49L27 52L30 52L30 49ZM32 49L32 52L33 52L33 49ZM49 49L49 52L52 52L52 49ZM17 50L17 51L19 51L19 52L20 52L20 51L19 51L19 50ZM28 50L28 51L29 51L29 50ZM50 50L50 51L51 51L51 50ZM54 50L54 51L55 51L55 52L56 52L56 51L55 51L55 50ZM16 52L16 53L15 53L15 54L16 54L16 53L17 53L17 52ZM53 52L53 53L54 53L54 52ZM17 54L17 55L19 55L19 54ZM50 55L50 56L51 56L51 55ZM0 0L0 7L7 7L7 0ZM1 1L1 6L6 6L6 1ZM2 2L2 5L5 5L5 2ZM50 0L50 7L57 7L57 0ZM51 1L51 6L56 6L56 1ZM52 2L52 5L55 5L55 2ZM0 50L0 57L7 57L7 50ZM1 51L1 56L6 56L6 51ZM2 52L2 55L5 55L5 52Z" fill="#000000"/></g></g></svg>
