<?xml version="1.0" encoding="UTF-8"?>
<svg xmlns="http://www.w3.org/2000/svg" version="1.1" width="300" height="300" viewBox="0 0 300 300"><rect x="0" y="0" width="300" height="300" fill="#fefefe"/><g transform="scale(4.615)"><g transform="translate(4,4)"><path fill-rule="evenodd" d="M10 0L10 2L9 2L9 1L8 1L8 2L9 2L9 3L8 3L8 4L9 4L9 5L8 5L8 7L9 7L9 8L6 8L6 9L5 9L5 8L0 8L0 10L1 10L1 9L2 9L2 10L3 10L3 11L2 11L2 13L0 13L0 20L1 20L1 24L2 24L2 23L4 23L4 21L5 21L5 20L6 20L6 21L8 21L8 22L5 22L5 23L7 23L7 24L5 24L5 25L4 25L4 26L3 26L3 25L0 25L0 27L1 27L1 26L3 26L3 28L2 28L2 29L0 29L0 30L1 30L1 31L0 31L0 32L1 32L1 33L0 33L0 34L1 34L1 35L2 35L2 34L3 34L3 35L5 35L5 34L6 34L6 35L7 35L7 34L6 34L6 33L8 33L8 34L9 34L9 35L10 35L10 34L11 34L11 36L12 36L12 37L9 37L9 38L8 38L8 37L7 37L7 36L6 36L6 37L7 37L7 38L6 38L6 39L7 39L7 40L6 40L6 41L8 41L8 43L9 43L9 42L11 42L11 43L10 43L10 46L9 46L9 44L8 44L8 45L7 45L7 44L6 44L6 45L7 45L7 46L5 46L5 45L4 45L4 44L5 44L5 43L2 43L2 45L1 45L1 46L0 46L0 48L5 48L5 47L8 47L8 48L6 48L6 49L8 49L8 51L9 51L9 52L8 52L8 57L10 57L10 56L9 56L9 54L11 54L11 56L12 56L12 54L11 54L11 52L12 52L12 53L13 53L13 54L14 54L14 53L13 53L13 52L15 52L15 53L16 53L16 54L15 54L15 55L16 55L16 56L17 56L17 57L19 57L19 55L20 55L20 54L19 54L19 53L20 53L20 52L21 52L21 51L23 51L23 50L26 50L26 52L24 52L24 53L23 53L23 54L22 54L22 55L21 55L21 56L20 56L20 57L21 57L21 56L24 56L24 57L26 57L26 56L24 56L24 55L23 55L23 54L24 54L24 53L27 53L27 54L30 54L30 53L31 53L31 49L32 49L32 50L33 50L33 51L32 51L32 52L33 52L33 53L32 53L32 54L31 54L31 56L30 56L30 55L29 55L29 56L27 56L27 57L29 57L29 56L30 56L30 57L31 57L31 56L35 56L35 57L39 57L39 56L42 56L42 55L44 55L44 54L45 54L45 53L44 53L44 52L47 52L47 50L48 50L48 53L47 53L47 54L46 54L46 55L47 55L47 57L49 57L49 56L50 56L50 57L52 57L52 55L51 55L51 53L52 53L52 54L55 54L55 53L56 53L56 52L55 52L55 51L56 51L56 50L57 50L57 48L56 48L56 46L57 46L57 45L56 45L56 44L55 44L55 43L56 43L56 42L57 42L57 41L56 41L56 42L55 42L55 39L57 39L57 36L56 36L56 34L55 34L55 33L54 33L54 34L55 34L55 35L53 35L53 34L52 34L52 33L53 33L53 32L56 32L56 33L57 33L57 32L56 32L56 30L57 30L57 29L56 29L56 28L55 28L55 27L56 27L56 26L57 26L57 25L56 25L56 22L57 22L57 19L56 19L56 18L57 18L57 17L56 17L56 16L57 16L57 15L56 15L56 14L57 14L57 12L55 12L55 11L56 11L56 8L55 8L55 10L54 10L54 11L53 11L53 9L54 9L54 8L53 8L53 9L52 9L52 8L51 8L51 10L52 10L52 11L50 11L50 8L49 8L49 6L48 6L48 7L47 7L47 5L48 5L48 0L45 0L45 2L44 2L44 3L43 3L43 4L40 4L40 5L39 5L39 6L38 6L38 3L41 3L41 2L43 2L43 0L41 0L41 1L40 1L40 0L39 0L39 1L38 1L38 0L37 0L37 1L38 1L38 3L36 3L36 0L35 0L35 1L31 1L31 0L27 0L27 1L26 1L26 0L23 0L23 1L22 1L22 0L21 0L21 1L20 1L20 3L22 3L22 2L25 2L25 1L26 1L26 2L27 2L27 3L28 3L28 2L27 2L27 1L30 1L30 2L29 2L29 3L30 3L30 4L26 4L26 3L23 3L23 4L24 4L24 5L23 5L23 6L22 6L22 4L19 4L19 1L18 1L18 0L17 0L17 3L18 3L18 4L17 4L17 6L16 6L16 7L15 7L15 5L16 5L16 4L15 4L15 5L13 5L13 4L14 4L14 2L15 2L15 3L16 3L16 1L15 1L15 0L14 0L14 2L12 2L12 1L11 1L11 0ZM46 1L46 2L47 2L47 1ZM11 2L11 3L10 3L10 4L11 4L11 3L12 3L12 2ZM31 2L31 3L32 3L32 4L31 4L31 8L32 8L32 10L27 10L27 11L26 11L26 12L25 12L25 11L23 11L23 12L25 12L25 14L23 14L23 13L22 13L22 12L21 12L21 11L22 11L22 10L24 10L24 9L25 9L25 8L26 8L26 4L25 4L25 8L24 8L24 6L23 6L23 8L19 8L19 7L20 7L20 5L19 5L19 4L18 4L18 6L17 6L17 7L16 7L16 8L17 8L17 7L18 7L18 8L19 8L19 9L20 9L20 10L21 10L21 11L20 11L20 14L19 14L19 15L18 15L18 14L17 14L17 13L18 13L18 12L17 12L17 11L18 11L18 9L15 9L15 7L14 7L14 6L13 6L13 7L12 7L12 5L11 5L11 7L12 7L12 8L10 8L10 9L6 9L6 10L7 10L7 11L6 11L6 12L3 12L3 13L2 13L2 14L3 14L3 16L4 16L4 17L2 17L2 15L1 15L1 17L2 17L2 19L1 19L1 20L3 20L3 21L2 21L2 22L3 22L3 21L4 21L4 20L5 20L5 19L6 19L6 20L8 20L8 21L9 21L9 18L13 18L13 19L14 19L14 20L12 20L12 19L11 19L11 22L10 22L10 23L9 23L9 24L8 24L8 25L6 25L6 26L9 26L9 27L10 27L10 25L13 25L13 24L16 24L16 25L15 25L15 26L13 26L13 27L12 27L12 26L11 26L11 29L9 29L9 30L10 30L10 31L9 31L9 32L8 32L8 33L9 33L9 34L10 34L10 31L11 31L11 29L12 29L12 33L11 33L11 34L14 34L14 33L15 33L15 35L14 35L14 37L16 37L16 38L15 38L15 39L14 39L14 38L13 38L13 37L12 37L12 41L13 41L13 42L12 42L12 43L13 43L13 44L12 44L12 45L13 45L13 46L14 46L14 47L13 47L13 48L12 48L12 47L10 47L10 48L11 48L11 50L10 50L10 52L9 52L9 53L10 53L10 52L11 52L11 51L12 51L12 49L13 49L13 51L15 51L15 50L17 50L17 51L16 51L16 53L17 53L17 51L18 51L18 52L20 52L20 50L21 50L21 49L23 49L23 48L24 48L24 49L26 49L26 48L27 48L27 47L28 47L28 48L30 48L30 47L29 47L29 46L31 46L31 47L32 47L32 45L33 45L33 46L35 46L35 48L34 48L34 49L33 49L33 48L32 48L32 49L33 49L33 50L34 50L34 52L35 52L35 50L36 50L36 52L37 52L37 51L38 51L38 50L41 50L41 52L40 52L40 51L39 51L39 52L38 52L38 53L37 53L37 54L40 54L40 53L41 53L41 52L43 52L43 51L46 51L46 50L47 50L47 49L48 49L48 48L49 48L49 47L51 47L51 48L52 48L52 47L54 47L54 46L56 46L56 45L55 45L55 44L54 44L54 46L53 46L53 45L52 45L52 44L53 44L53 43L54 43L54 42L53 42L53 41L54 41L54 40L53 40L53 41L51 41L51 42L50 42L50 43L47 43L47 42L48 42L48 41L49 41L49 39L51 39L51 40L52 40L52 39L55 39L55 37L53 37L53 35L52 35L52 34L50 34L50 32L49 32L49 31L48 31L48 30L47 30L47 29L46 29L46 30L47 30L47 31L46 31L46 32L43 32L43 30L44 30L44 31L45 31L45 30L44 30L44 29L45 29L45 28L46 28L46 27L47 27L47 23L48 23L48 24L49 24L49 23L50 23L50 24L51 24L51 25L50 25L50 26L51 26L51 25L53 25L53 23L52 23L52 24L51 24L51 23L50 23L50 22L51 22L51 21L53 21L53 22L56 22L56 21L55 21L55 20L56 20L56 19L55 19L55 20L53 20L53 19L52 19L52 18L51 18L51 17L53 17L53 18L56 18L56 17L53 17L53 15L55 15L55 14L56 14L56 13L55 13L55 12L54 12L54 13L53 13L53 12L52 12L52 13L53 13L53 15L52 15L52 16L51 16L51 15L50 15L50 14L51 14L51 12L50 12L50 11L49 11L49 12L45 12L45 11L46 11L46 10L47 10L47 9L48 9L48 8L46 8L46 5L47 5L47 3L44 3L44 6L43 6L43 7L42 7L42 5L40 5L40 6L39 6L39 9L38 9L38 6L37 6L37 7L36 7L36 5L37 5L37 4L36 4L36 5L35 5L35 2L33 2L33 3L32 3L32 2ZM32 4L32 5L33 5L33 4ZM45 4L45 5L46 5L46 4ZM9 5L9 7L10 7L10 5ZM27 5L27 8L30 8L30 5ZM34 5L34 7L33 7L33 6L32 6L32 7L33 7L33 9L34 9L34 8L35 8L35 9L37 9L37 10L36 10L36 11L35 11L35 13L36 13L36 14L33 14L33 13L34 13L34 12L33 12L33 13L32 13L32 12L31 12L31 13L30 13L30 14L29 14L29 13L28 13L28 12L29 12L29 11L27 11L27 12L26 12L26 13L28 13L28 14L29 14L29 16L28 16L28 15L27 15L27 14L25 14L25 17L22 17L22 16L21 16L21 17L22 17L22 18L20 18L20 16L16 16L16 13L17 13L17 12L16 12L16 13L15 13L15 11L17 11L17 10L11 10L11 11L14 11L14 12L12 12L12 13L11 13L11 12L10 12L10 11L9 11L9 10L8 10L8 12L6 12L6 13L3 13L3 14L4 14L4 16L5 16L5 17L4 17L4 19L3 19L3 20L4 20L4 19L5 19L5 17L8 17L8 18L6 18L6 19L8 19L8 18L9 18L9 17L8 17L8 16L5 16L5 15L9 15L9 16L10 16L10 17L12 17L12 16L11 16L11 15L9 15L9 14L12 14L12 13L15 13L15 14L13 14L13 15L14 15L14 16L13 16L13 18L14 18L14 16L16 16L16 17L15 17L15 19L16 19L16 20L15 20L15 21L16 21L16 22L14 22L14 21L12 21L12 22L14 22L14 23L16 23L16 24L17 24L17 27L16 27L16 29L15 29L15 28L13 28L13 29L15 29L15 30L14 30L14 31L16 31L16 29L18 29L18 30L17 30L17 35L16 35L16 36L17 36L17 37L19 37L19 38L18 38L18 39L17 39L17 40L16 40L16 39L15 39L15 41L14 41L14 40L13 40L13 41L14 41L14 42L13 42L13 43L14 43L14 45L15 45L15 44L18 44L18 45L17 45L17 46L18 46L18 47L19 47L19 46L20 46L20 45L19 45L19 42L20 42L20 44L22 44L22 45L21 45L21 47L20 47L20 49L19 49L19 48L15 48L15 49L14 49L14 50L15 50L15 49L19 49L19 50L20 50L20 49L21 49L21 47L24 47L24 48L26 48L26 47L27 47L27 45L26 45L26 47L25 47L25 45L24 45L24 44L23 44L23 42L25 42L25 41L23 41L23 42L22 42L22 41L21 41L21 42L20 42L20 41L19 41L19 40L23 40L23 39L24 39L24 40L25 40L25 37L26 37L26 40L27 40L27 41L26 41L26 42L27 42L27 41L29 41L29 40L28 40L28 39L27 39L27 38L28 38L28 37L27 37L27 33L26 33L26 34L25 34L25 33L23 33L23 34L24 34L24 36L23 36L23 35L21 35L21 36L23 36L23 37L24 37L24 38L23 38L23 39L22 39L22 38L21 38L21 37L19 37L19 36L20 36L20 35L18 35L18 33L19 33L19 34L20 34L20 32L18 32L18 31L19 31L19 30L20 30L20 31L21 31L21 32L28 32L28 33L29 33L29 34L30 34L30 36L29 36L29 37L31 37L31 38L29 38L29 39L33 39L33 40L35 40L35 42L37 42L37 43L36 43L36 44L35 44L35 43L34 43L34 42L33 42L33 41L32 41L32 40L31 40L31 41L32 41L32 42L29 42L29 43L28 43L28 45L29 45L29 43L32 43L32 44L31 44L31 45L32 45L32 44L33 44L33 43L34 43L34 45L37 45L37 46L36 46L36 48L35 48L35 49L36 49L36 50L38 50L38 49L39 49L39 48L41 48L41 50L42 50L42 51L43 51L43 50L44 50L44 48L43 48L43 47L42 47L42 48L41 48L41 46L43 46L43 45L44 45L44 47L45 47L45 48L46 48L46 49L45 49L45 50L46 50L46 49L47 49L47 48L48 48L48 47L49 47L49 46L48 46L48 47L47 47L47 46L45 46L45 45L47 45L47 43L46 43L46 42L45 42L45 43L46 43L46 44L45 44L45 45L44 45L44 43L43 43L43 42L44 42L44 41L43 41L43 40L45 40L45 39L43 39L43 40L41 40L41 41L39 41L39 42L38 42L38 40L39 40L39 39L38 39L38 40L35 40L35 39L37 39L37 38L38 38L38 36L39 36L39 37L40 37L40 38L41 38L41 39L42 39L42 38L43 38L43 37L44 37L44 38L45 38L45 37L46 37L46 36L48 36L48 35L47 35L47 34L45 34L45 35L44 35L44 33L43 33L43 32L41 32L41 33L39 33L39 34L40 34L40 35L38 35L38 33L37 33L37 32L35 32L35 31L36 31L36 30L37 30L37 29L38 29L38 28L39 28L39 27L36 27L36 26L34 26L34 27L33 27L33 26L32 26L32 24L33 24L33 25L37 25L37 26L38 26L38 25L39 25L39 24L37 24L37 22L38 22L38 23L39 23L39 22L40 22L40 24L41 24L41 23L44 23L44 20L45 20L45 21L47 21L47 22L45 22L45 23L47 23L47 22L49 22L49 21L51 21L51 20L52 20L52 19L49 19L49 20L48 20L48 21L47 21L47 19L45 19L45 18L44 18L44 15L47 15L47 16L45 16L45 17L47 17L47 18L50 18L50 17L49 17L49 16L50 16L50 15L49 15L49 14L50 14L50 12L49 12L49 13L47 13L47 14L45 14L45 13L44 13L44 11L45 11L45 10L46 10L46 9L44 9L44 8L45 8L45 6L44 6L44 7L43 7L43 9L39 9L39 11L38 11L38 9L37 9L37 8L35 8L35 5ZM18 6L18 7L19 7L19 6ZM21 6L21 7L22 7L22 6ZM28 6L28 7L29 7L29 6ZM40 6L40 7L41 7L41 6ZM12 8L12 9L14 9L14 8ZM23 8L23 9L24 9L24 8ZM3 9L3 10L4 10L4 11L5 11L5 10L4 10L4 9ZM21 9L21 10L22 10L22 9ZM43 9L43 10L44 10L44 9ZM32 10L32 11L33 11L33 10ZM41 10L41 12L39 12L39 13L38 13L38 14L37 14L37 15L35 15L35 16L32 16L32 15L31 15L31 14L32 14L32 13L31 13L31 14L30 14L30 15L31 15L31 16L32 16L32 17L31 17L31 18L30 18L30 20L29 20L29 19L28 19L28 18L26 18L26 20L25 20L25 21L24 21L24 20L21 20L21 19L18 19L18 18L19 18L19 17L18 17L18 18L17 18L17 17L16 17L16 18L17 18L17 19L18 19L18 20L20 20L20 21L17 21L17 20L16 20L16 21L17 21L17 22L20 22L20 23L18 23L18 24L22 24L22 25L20 25L20 27L19 27L19 26L18 26L18 27L17 27L17 28L18 28L18 29L19 29L19 28L20 28L20 30L21 30L21 31L25 31L25 30L23 30L23 28L25 28L25 29L26 29L26 28L25 28L25 27L26 27L26 26L27 26L27 25L30 25L30 24L29 24L29 23L28 23L28 24L25 24L25 23L26 23L26 22L25 22L25 21L31 21L31 24L32 24L32 23L33 23L33 22L34 22L34 23L35 23L35 21L33 21L33 20L32 20L32 21L31 21L31 19L36 19L36 20L38 20L38 22L39 22L39 21L41 21L41 20L38 20L38 19L39 19L39 17L41 17L41 16L42 16L42 17L43 17L43 16L42 16L42 15L44 15L44 13L43 13L43 11L42 11L42 10ZM8 12L8 14L9 14L9 12ZM6 13L6 14L7 14L7 13ZM21 13L21 14L20 14L20 15L23 15L23 14L22 14L22 13ZM39 13L39 14L38 14L38 15L39 15L39 16L38 16L38 17L37 17L37 16L35 16L35 17L37 17L37 18L38 18L38 17L39 17L39 16L41 16L41 14L43 14L43 13ZM26 15L26 17L28 17L28 16L27 16L27 15ZM48 15L48 16L47 16L47 17L48 17L48 16L49 16L49 15ZM32 17L32 18L33 18L33 17ZM23 18L23 19L24 19L24 18ZM41 18L41 19L42 19L42 18ZM43 18L43 20L42 20L42 21L43 21L43 20L44 20L44 18ZM27 19L27 20L28 20L28 19ZM22 21L22 22L21 22L21 23L23 23L23 25L22 25L22 26L21 26L21 27L20 27L20 28L21 28L21 29L22 29L22 28L21 28L21 27L22 27L22 26L23 26L23 27L24 27L24 26L26 26L26 25L25 25L25 24L24 24L24 23L23 23L23 22L24 22L24 21ZM10 23L10 24L11 24L11 23ZM43 24L43 25L41 25L41 26L43 26L43 27L44 27L44 28L43 28L43 29L40 29L40 30L43 30L43 29L44 29L44 28L45 28L45 27L46 27L46 26L45 26L45 27L44 27L44 26L43 26L43 25L44 25L44 24ZM54 24L54 25L55 25L55 26L56 26L56 25L55 25L55 24ZM31 26L31 28L32 28L32 30L31 30L31 31L29 31L29 33L31 33L31 31L32 31L32 34L31 34L31 35L33 35L33 36L32 36L32 37L34 37L34 38L33 38L33 39L34 39L34 38L35 38L35 36L37 36L37 34L35 34L35 33L33 33L33 31L32 31L32 30L35 30L35 28L33 28L33 27L32 27L32 26ZM53 26L53 27L54 27L54 26ZM5 27L5 30L8 30L8 27ZM27 27L27 30L30 30L30 27ZM41 27L41 28L42 28L42 27ZM49 27L49 30L52 30L52 27ZM6 28L6 29L7 29L7 28ZM28 28L28 29L29 29L29 28ZM50 28L50 29L51 29L51 28ZM54 28L54 29L53 29L53 30L55 30L55 28ZM2 29L2 31L3 31L3 33L4 33L4 34L5 34L5 33L6 33L6 32L7 32L7 31L4 31L4 30L3 30L3 29ZM38 30L38 32L39 32L39 30ZM47 31L47 32L46 32L46 33L47 33L47 32L48 32L48 33L49 33L49 32L48 32L48 31ZM52 31L52 32L51 32L51 33L52 33L52 32L53 32L53 31ZM4 32L4 33L5 33L5 32ZM13 32L13 33L14 33L14 32ZM15 32L15 33L16 33L16 32ZM21 33L21 34L22 34L22 33ZM33 34L33 35L34 35L34 36L35 36L35 35L34 35L34 34ZM42 34L42 35L43 35L43 36L44 36L44 37L45 37L45 36L46 36L46 35L45 35L45 36L44 36L44 35L43 35L43 34ZM49 34L49 35L50 35L50 36L51 36L51 37L52 37L52 35L50 35L50 34ZM12 35L12 36L13 36L13 35ZM17 35L17 36L18 36L18 35ZM2 36L2 37L4 37L4 38L5 38L5 37L4 37L4 36ZM40 36L40 37L41 37L41 36ZM0 37L0 38L1 38L1 39L0 39L0 42L5 42L5 41L4 41L4 40L3 40L3 39L2 39L2 38L1 38L1 37ZM48 37L48 38L47 38L47 39L46 39L46 40L47 40L47 39L49 39L49 38L50 38L50 37ZM10 38L10 39L8 39L8 41L9 41L9 40L10 40L10 41L11 41L11 40L10 40L10 39L11 39L11 38ZM19 38L19 39L20 39L20 38ZM51 38L51 39L52 39L52 38ZM1 39L1 41L2 41L2 39ZM17 40L17 41L15 41L15 42L14 42L14 43L15 43L15 42L17 42L17 43L18 43L18 42L19 42L19 41L18 41L18 40ZM17 41L17 42L18 42L18 41ZM6 42L6 43L7 43L7 42ZM21 42L21 43L22 43L22 42ZM32 42L32 43L33 43L33 42ZM41 42L41 43L40 43L40 44L39 44L39 45L38 45L38 46L39 46L39 47L38 47L38 48L37 48L37 49L38 49L38 48L39 48L39 47L40 47L40 46L39 46L39 45L41 45L41 44L42 44L42 42ZM51 42L51 43L50 43L50 44L51 44L51 43L53 43L53 42ZM0 43L0 44L1 44L1 43ZM25 43L25 44L27 44L27 43ZM3 45L3 47L5 47L5 46L4 46L4 45ZM22 45L22 46L23 46L23 45ZM51 45L51 47L52 47L52 45ZM1 46L1 47L2 47L2 46ZM46 47L46 48L47 48L47 47ZM42 48L42 49L43 49L43 48ZM53 48L53 49L55 49L55 50L54 50L54 51L55 51L55 50L56 50L56 48ZM27 49L27 52L30 52L30 49ZM49 49L49 52L52 52L52 49ZM28 50L28 51L29 51L29 50ZM50 50L50 51L51 51L51 50ZM53 52L53 53L54 53L54 52ZM33 53L33 55L35 55L35 56L36 56L36 54L35 54L35 53ZM43 53L43 54L44 54L44 53ZM25 54L25 55L26 55L26 54ZM41 54L41 55L42 55L42 54ZM17 55L17 56L18 56L18 55ZM37 55L37 56L39 56L39 55ZM50 55L50 56L51 56L51 55ZM53 55L53 56L55 56L55 57L56 57L56 56L55 56L55 55ZM43 56L43 57L44 57L44 56ZM45 56L45 57L46 57L46 56ZM0 0L0 7L7 7L7 0ZM1 1L1 6L6 6L6 1ZM2 2L2 5L5 5L5 2ZM50 0L50 7L57 7L57 0ZM51 1L51 6L56 6L56 1ZM52 2L52 5L55 5L55 2ZM0 50L0 57L7 57L7 50ZM1 51L1 56L6 56L6 51ZM2 52L2 55L5 55L5 52Z" fill="#000000"/></g></g></svg>
