<?xml version="1.0" encoding="UTF-8"?>
<svg xmlns="http://www.w3.org/2000/svg" version="1.1" width="300" height="300" viewBox="0 0 300 300"><rect x="0" y="0" width="300" height="300" fill="#fefefe"/><g transform="scale(4.615)"><g transform="translate(4,4)"><path fill-rule="evenodd" d="M8 0L8 2L9 2L9 4L8 4L8 9L7 9L7 8L5 8L5 9L4 9L4 10L3 10L3 8L0 8L0 13L1 13L1 9L2 9L2 10L3 10L3 11L2 11L2 13L4 13L4 12L3 12L3 11L5 11L5 14L3 14L3 15L0 15L0 16L2 16L2 18L1 18L1 19L0 19L0 26L1 26L1 27L0 27L0 29L1 29L1 28L2 28L2 30L1 30L1 32L0 32L0 33L1 33L1 32L3 32L3 35L4 35L4 36L5 36L5 37L3 37L3 36L2 36L2 35L1 35L1 36L2 36L2 40L1 40L1 39L0 39L0 40L1 40L1 41L0 41L0 43L1 43L1 44L0 44L0 45L1 45L1 46L0 46L0 48L5 48L5 47L7 47L7 48L6 48L6 49L8 49L8 50L9 50L9 47L10 47L10 48L11 48L11 49L12 49L12 48L11 48L11 46L6 46L6 45L7 45L7 44L6 44L6 43L7 43L7 42L5 42L5 41L4 41L4 42L3 42L3 41L2 41L2 40L3 40L3 38L6 38L6 39L5 39L5 40L6 40L6 41L7 41L7 40L6 40L6 39L7 39L7 38L9 38L9 39L8 39L8 40L9 40L9 41L8 41L8 43L9 43L9 44L8 44L8 45L9 45L9 44L12 44L12 45L13 45L13 46L14 46L14 47L13 47L13 50L10 50L10 52L9 52L9 51L8 51L8 52L9 52L9 53L10 53L10 54L11 54L11 55L12 55L12 53L13 53L13 55L14 55L14 56L10 56L10 57L14 57L14 56L15 56L15 57L17 57L17 55L18 55L18 53L19 53L19 52L18 52L18 51L20 51L20 53L21 53L21 54L20 54L20 55L22 55L22 57L25 57L25 55L26 55L26 57L28 57L28 55L29 55L29 57L33 57L33 55L34 55L34 57L35 57L35 55L37 55L37 54L38 54L38 53L39 53L39 55L40 55L40 54L41 54L41 55L42 55L42 56L40 56L40 57L42 57L42 56L43 56L43 54L42 54L42 53L43 53L43 52L44 52L44 55L46 55L46 56L44 56L44 57L46 57L46 56L48 56L48 57L50 57L50 55L49 55L49 54L52 54L52 55L53 55L53 56L51 56L51 57L54 57L54 53L55 53L55 52L54 52L54 51L53 51L53 50L54 50L54 47L55 47L55 49L56 49L56 47L57 47L57 42L56 42L56 43L55 43L55 42L54 42L54 41L57 41L57 40L54 40L54 38L57 38L57 36L56 36L56 35L57 35L57 33L56 33L56 31L57 31L57 29L55 29L55 30L54 30L54 31L53 31L53 28L54 28L54 27L55 27L55 26L54 26L54 23L55 23L55 24L56 24L56 28L57 28L57 24L56 24L56 23L57 23L57 20L56 20L56 19L57 19L57 18L56 18L56 17L57 17L57 13L56 13L56 15L55 15L55 16L56 16L56 17L54 17L54 15L52 15L52 14L54 14L54 13L53 13L53 12L54 12L54 11L55 11L55 10L56 10L56 11L57 11L57 10L56 10L56 9L57 9L57 8L55 8L55 9L54 9L54 10L53 10L53 8L49 8L49 11L50 11L50 13L49 13L49 14L48 14L48 12L47 12L47 11L46 11L46 13L45 13L45 12L44 12L44 14L43 14L43 16L44 16L44 17L43 17L43 18L42 18L42 17L41 17L41 15L42 15L42 12L43 12L43 11L44 11L44 9L45 9L45 6L44 6L44 5L46 5L46 7L47 7L47 8L46 8L46 9L47 9L47 8L48 8L48 7L49 7L49 6L48 6L48 7L47 7L47 5L48 5L48 0L46 0L46 1L45 1L45 0L42 0L42 1L41 1L41 0L38 0L38 2L37 2L37 1L35 1L35 0L34 0L34 2L33 2L33 4L34 4L34 5L33 5L33 6L32 6L32 7L33 7L33 6L34 6L34 8L32 8L32 9L31 9L31 5L32 5L32 1L33 1L33 0L32 0L32 1L31 1L31 0L30 0L30 1L29 1L29 0L28 0L28 1L29 1L29 2L28 2L28 3L27 3L27 0L24 0L24 1L23 1L23 0L20 0L20 2L22 2L22 1L23 1L23 4L22 4L22 3L21 3L21 4L22 4L22 5L23 5L23 6L22 6L22 9L23 9L23 6L24 6L24 7L25 7L25 6L24 6L24 5L26 5L26 9L25 9L25 10L24 10L24 12L23 12L23 11L22 11L22 12L23 12L23 16L22 16L22 14L21 14L21 16L18 16L18 15L17 15L17 14L18 14L18 13L19 13L19 14L20 14L20 13L21 13L21 11L20 11L20 13L19 13L19 12L18 12L18 11L19 11L19 10L20 10L20 9L21 9L21 5L20 5L20 7L19 7L19 4L18 4L18 0L16 0L16 1L14 1L14 0L13 0L13 1L14 1L14 3L13 3L13 2L12 2L12 3L13 3L13 5L10 5L10 7L11 7L11 8L12 8L12 9L10 9L10 10L11 10L11 11L10 11L10 12L9 12L9 10L8 10L8 9L9 9L9 4L10 4L10 3L11 3L11 1L12 1L12 0L11 0L11 1L10 1L10 2L9 2L9 0ZM24 1L24 4L25 4L25 1ZM39 1L39 2L38 2L38 3L37 3L37 2L34 2L34 4L35 4L35 9L34 9L34 10L33 10L33 9L32 9L32 11L31 11L31 12L30 12L30 11L29 11L29 10L28 10L28 9L27 9L27 10L25 10L25 11L26 11L26 17L25 17L25 15L24 15L24 18L25 18L25 19L24 19L24 20L25 20L25 19L26 19L26 20L27 20L27 22L26 22L26 23L27 23L27 22L28 22L28 20L31 20L31 21L30 21L30 22L29 22L29 23L28 23L28 24L27 24L27 25L26 25L26 26L27 26L27 25L28 25L28 24L29 24L29 23L31 23L31 24L30 24L30 26L31 26L31 25L32 25L32 28L31 28L31 29L32 29L32 30L31 30L31 31L32 31L32 32L30 32L30 31L28 31L28 32L27 32L27 33L26 33L26 30L25 30L25 29L24 29L24 26L25 26L25 25L24 25L24 24L23 24L23 21L22 21L22 19L21 19L21 17L20 17L20 19L19 19L19 23L18 23L18 20L17 20L17 19L18 19L18 18L17 18L17 15L15 15L15 14L17 14L17 10L19 10L19 9L20 9L20 8L19 8L19 9L18 9L18 4L17 4L17 3L16 3L16 4L17 4L17 5L16 5L16 6L15 6L15 8L16 8L16 11L15 11L15 9L14 9L14 8L13 8L13 7L14 7L14 5L13 5L13 7L12 7L12 6L11 6L11 7L12 7L12 8L13 8L13 10L12 10L12 11L11 11L11 12L10 12L10 13L9 13L9 12L7 12L7 11L6 11L6 10L7 10L7 9L5 9L5 11L6 11L6 12L7 12L7 13L6 13L6 14L5 14L5 15L4 15L4 16L3 16L3 20L2 20L2 19L1 19L1 20L2 20L2 21L1 21L1 22L2 22L2 21L3 21L3 23L4 23L4 24L3 24L3 26L2 26L2 28L3 28L3 30L4 30L4 28L3 28L3 26L4 26L4 24L5 24L5 23L6 23L6 24L8 24L8 25L6 25L6 26L9 26L9 27L10 27L10 32L11 32L11 33L9 33L9 31L8 31L8 32L7 32L7 31L6 31L6 32L5 32L5 31L4 31L4 35L6 35L6 36L7 36L7 37L6 37L6 38L7 38L7 37L9 37L9 38L10 38L10 41L9 41L9 42L10 42L10 43L11 43L11 42L13 42L13 45L16 45L16 46L15 46L15 47L16 47L16 48L17 48L17 49L16 49L16 52L17 52L17 53L18 53L18 52L17 52L17 49L18 49L18 50L19 50L19 49L18 49L18 47L16 47L16 46L17 46L17 45L16 45L16 44L14 44L14 42L15 42L15 43L16 43L16 42L17 42L17 41L18 41L18 40L19 40L19 41L20 41L20 42L19 42L19 43L18 43L18 44L19 44L19 43L20 43L20 42L21 42L21 44L20 44L20 46L19 46L19 45L18 45L18 46L19 46L19 48L21 48L21 49L20 49L20 51L21 51L21 50L22 50L22 48L23 48L23 49L24 49L24 51L22 51L22 52L24 52L24 51L25 51L25 53L26 53L26 54L27 54L27 55L28 55L28 53L26 53L26 48L28 48L28 47L29 47L29 48L31 48L31 52L32 52L32 51L33 51L33 49L34 49L34 51L37 51L37 53L36 53L36 52L35 52L35 53L34 53L34 52L33 52L33 53L34 53L34 54L35 54L35 53L36 53L36 54L37 54L37 53L38 53L38 52L39 52L39 53L40 53L40 52L39 52L39 49L40 49L40 51L41 51L41 53L42 53L42 51L41 51L41 49L42 49L42 50L43 50L43 49L44 49L44 46L43 46L43 45L44 45L44 44L45 44L45 43L47 43L47 44L46 44L46 47L45 47L45 51L47 51L47 52L45 52L45 53L46 53L46 54L47 54L47 55L48 55L48 54L49 54L49 53L47 53L47 52L48 52L48 51L47 51L47 47L48 47L48 45L47 45L47 44L48 44L48 43L49 43L49 44L50 44L50 46L49 46L49 48L51 48L51 47L52 47L52 48L53 48L53 47L54 47L54 46L53 46L53 45L55 45L55 47L56 47L56 44L55 44L55 43L54 43L54 44L53 44L53 41L54 41L54 40L52 40L52 38L54 38L54 36L55 36L55 37L56 37L56 36L55 36L55 31L56 31L56 30L55 30L55 31L54 31L54 33L53 33L53 31L51 31L51 32L50 32L50 33L49 33L49 36L50 36L50 33L51 33L51 37L50 37L50 38L47 38L47 37L46 37L46 36L47 36L47 35L46 35L46 34L48 34L48 33L46 33L46 32L47 32L47 30L48 30L48 29L47 29L47 28L46 28L46 29L44 29L44 28L42 28L42 31L40 31L40 32L39 32L39 33L38 33L38 34L37 34L37 33L36 33L36 31L37 31L37 32L38 32L38 31L39 31L39 30L40 30L40 28L41 28L41 27L43 27L43 26L44 26L44 27L46 27L46 26L47 26L47 25L48 25L48 26L53 26L53 25L52 25L52 23L54 23L54 21L55 21L55 23L56 23L56 21L55 21L55 19L56 19L56 18L55 18L55 19L54 19L54 17L53 17L53 18L52 18L52 15L51 15L51 14L52 14L52 13L50 13L50 15L49 15L49 16L50 16L50 18L49 18L49 17L48 17L48 16L47 16L47 17L44 17L44 19L42 19L42 20L41 20L41 21L42 21L42 22L40 22L40 19L41 19L41 18L40 18L40 15L41 15L41 13L40 13L40 12L37 12L37 11L39 11L39 10L40 10L40 11L41 11L41 12L42 12L42 11L41 11L41 9L42 9L42 10L43 10L43 9L44 9L44 6L43 6L43 5L44 5L44 4L45 4L45 1L42 1L42 2L40 2L40 1ZM46 1L46 2L47 2L47 1ZM30 2L30 3L28 3L28 4L30 4L30 3L31 3L31 2ZM39 2L39 4L38 4L38 5L39 5L39 4L40 4L40 2ZM43 2L43 3L41 3L41 4L42 4L42 5L43 5L43 4L44 4L44 2ZM14 3L14 4L15 4L15 3ZM26 3L26 4L27 4L27 3ZM35 3L35 4L36 4L36 3ZM46 3L46 5L47 5L47 3ZM27 5L27 8L30 8L30 5ZM16 6L16 7L17 7L17 6ZM28 6L28 7L29 7L29 6ZM36 6L36 10L34 10L34 11L32 11L32 13L31 13L31 16L30 16L30 15L29 15L29 13L30 13L30 12L29 12L29 11L28 11L28 10L27 10L27 11L28 11L28 12L27 12L27 14L28 14L28 15L29 15L29 16L30 16L30 17L28 17L28 18L30 18L30 17L31 17L31 16L32 16L32 19L31 19L31 20L32 20L32 21L33 21L33 22L31 22L31 23L32 23L32 25L33 25L33 26L34 26L34 24L36 24L36 26L37 26L37 27L36 27L36 29L35 29L35 27L34 27L34 29L33 29L33 28L32 28L32 29L33 29L33 31L34 31L34 29L35 29L35 30L36 30L36 29L37 29L37 28L38 28L38 29L39 29L39 26L38 26L38 25L39 25L39 22L38 22L38 21L39 21L39 19L40 19L40 18L38 18L38 16L37 16L37 15L38 15L38 13L37 13L37 12L36 12L36 13L35 13L35 12L34 12L34 11L37 11L37 10L38 10L38 9L39 9L39 6L38 6L38 7L37 7L37 6ZM40 6L40 7L41 7L41 8L40 8L40 9L41 9L41 8L42 8L42 9L43 9L43 6L42 6L42 7L41 7L41 6ZM37 8L37 9L38 9L38 8ZM30 9L30 10L31 10L31 9ZM50 9L50 11L51 11L51 12L52 12L52 11L51 11L51 9ZM14 11L14 12L15 12L15 11ZM12 12L12 13L13 13L13 12ZM7 13L7 14L6 14L6 15L5 15L5 16L6 16L6 17L7 17L7 18L6 18L6 19L7 19L7 20L5 20L5 17L4 17L4 20L3 20L3 21L4 21L4 22L6 22L6 23L10 23L10 25L9 25L9 26L14 26L14 24L16 24L16 25L15 25L15 27L14 27L14 28L13 28L13 27L11 27L11 29L13 29L13 30L12 30L12 31L11 31L11 32L14 32L14 34L12 34L12 33L11 33L11 34L10 34L10 35L7 35L7 34L8 34L8 33L7 33L7 32L6 32L6 33L5 33L5 34L6 34L6 35L7 35L7 36L10 36L10 38L11 38L11 34L12 34L12 36L13 36L13 37L12 37L12 38L13 38L13 39L12 39L12 40L13 40L13 41L15 41L15 42L16 42L16 41L17 41L17 40L18 40L18 39L17 39L17 38L19 38L19 40L20 40L20 41L21 41L21 42L22 42L22 41L23 41L23 43L22 43L22 44L24 44L24 40L22 40L22 41L21 41L21 39L23 39L23 35L25 35L25 36L24 36L24 37L26 37L26 40L25 40L25 41L26 41L26 42L25 42L25 45L26 45L26 46L24 46L24 45L23 45L23 46L24 46L24 48L25 48L25 47L26 47L26 46L27 46L27 47L28 47L28 45L29 45L29 46L30 46L30 47L31 47L31 46L30 46L30 43L31 43L31 41L30 41L30 40L31 40L31 38L33 38L33 39L34 39L34 41L33 41L33 40L32 40L32 49L33 49L33 47L34 47L34 45L33 45L33 44L35 44L35 43L36 43L36 41L37 41L37 42L38 42L38 41L39 41L39 38L40 38L40 39L41 39L41 40L40 40L40 41L41 41L41 42L40 42L40 43L37 43L37 44L36 44L36 45L35 45L35 47L36 47L36 45L37 45L37 46L38 46L38 45L37 45L37 44L39 44L39 46L40 46L40 45L41 45L41 47L40 47L40 49L41 49L41 47L42 47L42 45L43 45L43 44L42 44L42 45L41 45L41 42L42 42L42 43L43 43L43 42L44 42L44 43L45 43L45 42L46 42L46 41L48 41L48 40L51 40L51 41L49 41L49 42L50 42L50 44L52 44L52 40L51 40L51 38L52 38L52 37L53 37L53 36L54 36L54 34L53 34L53 36L52 36L52 37L51 37L51 38L50 38L50 39L48 39L48 40L47 40L47 38L46 38L46 37L45 37L45 36L46 36L46 35L45 35L45 34L46 34L46 33L45 33L45 32L46 32L46 30L44 30L44 29L43 29L43 30L44 30L44 31L42 31L42 33L41 33L41 32L40 32L40 34L42 34L42 33L43 33L43 35L42 35L42 37L41 37L41 35L40 35L40 36L38 36L38 35L39 35L39 34L38 34L38 35L36 35L36 33L35 33L35 35L34 35L34 37L33 37L33 35L31 35L31 34L30 34L30 32L29 32L29 34L28 34L28 33L27 33L27 34L28 34L28 35L27 35L27 36L28 36L28 37L29 37L29 36L28 36L28 35L31 35L31 36L30 36L30 40L29 40L29 41L30 41L30 43L29 43L29 42L28 42L28 43L27 43L27 37L26 37L26 34L24 34L24 32L25 32L25 31L24 31L24 29L23 29L23 28L22 28L22 27L23 27L23 26L24 26L24 25L23 25L23 24L22 24L22 22L20 22L20 23L21 23L21 27L20 27L20 24L18 24L18 25L19 25L19 27L18 27L18 28L19 28L19 27L20 27L20 28L21 28L21 30L20 30L20 29L19 29L19 30L18 30L18 31L17 31L17 30L15 30L15 28L16 28L16 27L17 27L17 26L16 26L16 25L17 25L17 23L16 23L16 22L17 22L17 20L14 20L14 19L17 19L17 18L14 18L14 17L15 17L15 15L13 15L13 14L11 14L11 13L10 13L10 14L11 14L11 15L13 15L13 16L14 16L14 17L12 17L12 16L11 16L11 17L10 17L10 15L9 15L9 14L8 14L8 13ZM24 13L24 14L25 14L25 13ZM32 13L32 16L33 16L33 17L34 17L34 19L33 19L33 21L34 21L34 22L33 22L33 24L34 24L34 22L35 22L35 23L36 23L36 24L37 24L37 25L38 25L38 22L37 22L37 21L38 21L38 20L37 20L37 21L36 21L36 20L35 20L35 21L34 21L34 19L35 19L35 18L36 18L36 19L37 19L37 18L36 18L36 15L37 15L37 13L36 13L36 14L35 14L35 13L34 13L34 15L33 15L33 13ZM39 13L39 14L40 14L40 13ZM46 13L46 15L45 15L45 14L44 14L44 16L46 16L46 15L48 15L48 14L47 14L47 13ZM7 14L7 15L6 15L6 16L7 16L7 17L8 17L8 19L9 19L9 20L7 20L7 21L6 21L6 22L8 22L8 21L9 21L9 20L10 20L10 23L12 23L12 24L11 24L11 25L13 25L13 24L14 24L14 23L15 23L15 21L14 21L14 22L13 22L13 23L12 23L12 21L13 21L13 20L12 20L12 21L11 21L11 19L9 19L9 18L10 18L10 17L9 17L9 16L8 16L8 14ZM34 15L34 17L35 17L35 15ZM50 15L50 16L51 16L51 15ZM47 17L47 19L48 19L48 21L47 21L47 20L46 20L46 19L44 19L44 21L43 21L43 22L42 22L42 25L43 25L43 24L44 24L44 25L45 25L45 26L46 26L46 24L44 24L44 23L45 23L45 22L44 22L44 21L45 21L45 20L46 20L46 21L47 21L47 22L48 22L48 25L49 25L49 24L50 24L50 25L51 25L51 23L52 23L52 22L53 22L53 21L54 21L54 19L53 19L53 20L52 20L52 22L51 22L51 23L50 23L50 22L48 22L48 21L49 21L49 20L51 20L51 19L52 19L52 18L50 18L50 19L48 19L48 17ZM12 18L12 19L13 19L13 18ZM27 19L27 20L28 20L28 19ZM4 20L4 21L5 21L5 20ZM20 20L20 21L21 21L21 20ZM35 21L35 22L36 22L36 23L37 23L37 22L36 22L36 21ZM24 22L24 23L25 23L25 22ZM43 22L43 23L44 23L44 22ZM1 23L1 25L2 25L2 23ZM40 23L40 27L41 27L41 23ZM5 27L5 30L8 30L8 27ZM27 27L27 30L30 30L30 27ZM49 27L49 30L52 30L52 27ZM6 28L6 29L7 29L7 28ZM28 28L28 29L29 29L29 28ZM50 28L50 29L51 29L51 28ZM22 29L22 30L21 30L21 31L20 31L20 32L19 32L19 31L18 31L18 32L19 32L19 34L18 34L18 35L20 35L20 34L21 34L21 35L22 35L22 34L23 34L23 33L22 33L22 30L23 30L23 29ZM14 30L14 32L15 32L15 35L16 35L16 36L15 36L15 37L13 37L13 38L14 38L14 39L13 39L13 40L14 40L14 39L15 39L15 41L16 41L16 40L17 40L17 39L16 39L16 38L17 38L17 37L16 37L16 36L17 36L17 35L16 35L16 34L17 34L17 31L16 31L16 32L15 32L15 30ZM37 30L37 31L38 31L38 30ZM23 31L23 32L24 32L24 31ZM32 32L32 34L33 34L33 32ZM6 33L6 34L7 34L7 33ZM35 35L35 37L34 37L34 39L35 39L35 41L34 41L34 42L35 42L35 41L36 41L36 38L37 38L37 41L38 41L38 38L39 38L39 37L38 37L38 38L37 38L37 37L36 37L36 35ZM43 35L43 37L42 37L42 38L41 38L41 39L42 39L42 40L43 40L43 41L42 41L42 42L43 42L43 41L44 41L44 42L45 42L45 41L46 41L46 39L45 39L45 41L44 41L44 40L43 40L43 38L44 38L44 35ZM21 36L21 38L20 38L20 39L21 39L21 38L22 38L22 36ZM31 36L31 37L32 37L32 36ZM35 37L35 38L36 38L36 37ZM24 38L24 39L25 39L25 38ZM28 38L28 39L29 39L29 38ZM10 41L10 42L11 42L11 41ZM2 42L2 44L1 44L1 45L2 45L2 46L1 46L1 47L2 47L2 46L3 46L3 47L5 47L5 42L4 42L4 43L3 43L3 42ZM2 44L2 45L3 45L3 44ZM27 44L27 45L28 45L28 44ZM20 46L20 47L21 47L21 48L22 48L22 46ZM50 46L50 47L51 47L51 46ZM37 47L37 48L36 48L36 49L37 49L37 51L38 51L38 47ZM14 48L14 50L15 50L15 48ZM34 48L34 49L35 49L35 48ZM27 49L27 52L30 52L30 49ZM49 49L49 52L52 52L52 49ZM28 50L28 51L29 51L29 50ZM50 50L50 51L51 51L51 50ZM56 50L56 51L57 51L57 50ZM11 51L11 52L10 52L10 53L11 53L11 52L13 52L13 53L14 53L14 51ZM56 52L56 53L57 53L57 52ZM31 53L31 54L30 54L30 55L33 55L33 54L32 54L32 53ZM8 54L8 57L9 57L9 54ZM14 54L14 55L15 55L15 54ZM16 54L16 55L17 55L17 54ZM22 54L22 55L23 55L23 54ZM24 54L24 55L25 55L25 54ZM55 54L55 55L57 55L57 54ZM18 56L18 57L20 57L20 56ZM36 56L36 57L37 57L37 56ZM56 56L56 57L57 57L57 56ZM0 0L0 7L7 7L7 0ZM1 1L1 6L6 6L6 1ZM2 2L2 5L5 5L5 2ZM50 0L50 7L57 7L57 0ZM51 1L51 6L56 6L56 1ZM52 2L52 5L55 5L55 2ZM0 50L0 57L7 57L7 50ZM1 51L1 56L6 56L6 51ZM2 52L2 55L5 55L5 52Z" fill="#000000"/></g></g></svg>
