<?xml version="1.0" encoding="UTF-8"?>
<svg xmlns="http://www.w3.org/2000/svg" version="1.1" width="300" height="300" viewBox="0 0 300 300"><rect x="0" y="0" width="300" height="300" fill="#fefefe"/><g transform="scale(4.615)"><g transform="translate(4,4)"><path fill-rule="evenodd" d="M9 0L9 1L8 1L8 2L9 2L9 3L8 3L8 4L9 4L9 5L8 5L8 7L9 7L9 5L11 5L11 6L10 6L10 7L11 7L11 6L12 6L12 7L13 7L13 8L11 8L11 9L10 9L10 8L6 8L6 9L8 9L8 10L6 10L6 11L9 11L9 10L11 10L11 11L10 11L10 12L9 12L9 13L7 13L7 12L6 12L6 13L7 13L7 14L5 14L5 13L4 13L4 12L5 12L5 10L4 10L4 11L3 11L3 10L2 10L2 9L5 9L5 8L0 8L0 9L1 9L1 10L2 10L2 11L0 11L0 12L2 12L2 13L3 13L3 14L5 14L5 15L3 15L3 16L2 16L2 17L3 17L3 19L4 19L4 21L3 21L3 20L2 20L2 18L1 18L1 15L2 15L2 14L1 14L1 15L0 15L0 18L1 18L1 19L0 19L0 21L1 21L1 22L2 22L2 23L4 23L4 27L3 27L3 25L1 25L1 23L0 23L0 28L1 28L1 27L3 27L3 28L2 28L2 29L0 29L0 30L2 30L2 29L3 29L3 30L4 30L4 31L5 31L5 32L3 32L3 31L2 31L2 32L1 32L1 31L0 31L0 32L1 32L1 33L0 33L0 34L1 34L1 35L0 35L0 36L1 36L1 35L2 35L2 37L3 37L3 38L2 38L2 39L1 39L1 40L0 40L0 43L1 43L1 44L2 44L2 45L0 45L0 48L5 48L5 47L7 47L7 48L6 48L6 49L7 49L7 48L8 48L8 51L9 51L9 52L8 52L8 57L10 57L10 56L11 56L11 57L12 57L12 54L10 54L10 53L11 53L11 52L10 52L10 50L9 50L9 49L11 49L11 51L13 51L13 52L12 52L12 53L13 53L13 54L14 54L14 55L16 55L16 56L15 56L15 57L16 57L16 56L17 56L17 57L20 57L20 56L17 56L17 54L18 54L18 55L20 55L20 54L19 54L19 53L20 53L20 52L21 52L21 53L22 53L22 54L21 54L21 56L24 56L24 57L26 57L26 56L27 56L27 57L29 57L29 56L30 56L30 57L31 57L31 56L35 56L35 57L39 57L39 56L41 56L41 57L44 57L44 56L41 56L41 54L42 54L42 55L44 55L44 54L45 54L45 53L44 53L44 52L47 52L47 51L44 51L44 50L45 50L45 49L44 49L44 48L43 48L43 47L42 47L42 48L41 48L41 46L43 46L43 45L44 45L44 47L47 47L47 48L48 48L48 49L47 49L47 50L48 50L48 53L47 53L47 54L46 54L46 55L48 55L48 56L46 56L46 57L49 57L49 56L50 56L50 57L52 57L52 55L51 55L51 53L52 53L52 54L53 54L53 55L54 55L54 56L53 56L53 57L54 57L54 56L55 56L55 57L56 57L56 56L55 56L55 54L54 54L54 53L56 53L56 52L57 52L57 51L56 51L56 50L55 50L55 49L54 49L54 48L56 48L56 49L57 49L57 48L56 48L56 46L57 46L57 43L56 43L56 41L55 41L55 39L57 39L57 37L56 37L56 34L55 34L55 32L56 32L56 33L57 33L57 32L56 32L56 30L57 30L57 29L55 29L55 31L53 31L53 29L54 29L54 28L56 28L56 27L55 27L55 26L57 26L57 25L56 25L56 22L57 22L57 21L56 21L56 19L55 19L55 18L57 18L57 17L56 17L56 16L57 16L57 15L56 15L56 14L57 14L57 13L56 13L56 10L54 10L54 11L50 11L50 8L49 8L49 9L47 9L47 10L46 10L46 11L45 11L45 10L44 10L44 9L41 9L41 10L38 10L38 8L39 8L39 6L40 6L40 7L41 7L41 6L40 6L40 5L42 5L42 8L47 8L47 5L48 5L48 0L46 0L46 1L45 1L45 2L44 2L44 3L42 3L42 2L43 2L43 0L41 0L41 1L40 1L40 0L39 0L39 1L38 1L38 0L37 0L37 1L38 1L38 3L41 3L41 4L40 4L40 5L39 5L39 6L38 6L38 8L35 8L35 5L36 5L36 7L37 7L37 5L38 5L38 4L37 4L37 3L36 3L36 0L35 0L35 1L33 1L33 0L32 0L32 3L31 3L31 4L26 4L26 3L23 3L23 4L24 4L24 5L23 5L23 6L22 6L22 7L21 7L21 5L22 5L22 4L19 4L19 3L17 3L17 2L19 2L19 1L20 1L20 2L21 2L21 1L22 1L22 0L21 0L21 1L20 1L20 0L19 0L19 1L17 1L17 2L16 2L16 1L14 1L14 0L13 0L13 1L14 1L14 2L13 2L13 3L11 3L11 4L10 4L10 2L9 2L9 1L11 1L11 0ZM23 0L23 2L25 2L25 1L26 1L26 2L28 2L28 3L29 3L29 1L31 1L31 0L27 0L27 1L26 1L26 0ZM46 1L46 2L47 2L47 1ZM14 2L14 4L13 4L13 5L15 5L15 7L14 7L14 6L13 6L13 7L14 7L14 9L11 9L11 10L12 10L12 11L13 11L13 12L10 12L10 14L11 14L11 15L10 15L10 17L9 17L9 21L8 21L8 19L6 19L6 18L8 18L8 16L7 16L7 15L5 15L5 19L6 19L6 20L7 20L7 21L4 21L4 23L6 23L6 24L5 24L5 25L6 25L6 26L11 26L11 27L9 27L9 32L7 32L7 31L6 31L6 32L5 32L5 33L4 33L4 34L3 34L3 33L1 33L1 34L2 34L2 35L4 35L4 36L7 36L7 37L6 37L6 38L5 38L5 39L2 39L2 40L3 40L3 41L1 41L1 43L2 43L2 44L3 44L3 43L2 43L2 42L5 42L5 41L4 41L4 40L5 40L5 39L6 39L6 40L7 40L7 41L6 41L6 42L8 42L8 43L6 43L6 44L7 44L7 45L6 45L6 46L7 46L7 47L8 47L8 46L9 46L9 44L10 44L10 45L12 45L12 44L13 44L13 45L14 45L14 46L15 46L15 47L13 47L13 46L10 46L10 47L9 47L9 48L10 48L10 47L11 47L11 48L12 48L12 50L13 50L13 51L14 51L14 52L16 52L16 53L14 53L14 54L16 54L16 53L17 53L17 52L18 52L18 50L17 50L17 49L15 49L15 48L17 48L17 47L18 47L18 48L20 48L20 50L19 50L19 51L20 51L20 50L21 50L21 49L23 49L23 48L24 48L24 49L25 49L25 48L28 48L28 47L29 47L29 48L30 48L30 47L29 47L29 46L30 46L30 45L31 45L31 46L32 46L32 47L33 47L33 46L35 46L35 48L36 48L36 47L37 47L37 46L36 46L36 45L34 45L34 43L35 43L35 44L36 44L36 43L37 43L37 42L35 42L35 40L38 40L38 42L39 42L39 41L41 41L41 40L43 40L43 39L45 39L45 40L44 40L44 42L43 42L43 44L44 44L44 45L45 45L45 46L47 46L47 47L48 47L48 48L49 48L49 47L48 47L48 46L49 46L49 45L50 45L50 47L51 47L51 46L52 46L52 48L54 48L54 47L53 47L53 45L52 45L52 44L53 44L53 43L54 43L54 42L53 42L53 41L54 41L54 40L53 40L53 39L54 39L54 38L53 38L53 35L55 35L55 34L54 34L54 32L53 32L53 31L48 31L48 27L47 27L47 25L50 25L50 26L51 26L51 25L54 25L54 24L51 24L51 23L50 23L50 22L51 22L51 21L54 21L54 23L55 23L55 22L56 22L56 21L55 21L55 20L53 20L53 19L52 19L52 18L51 18L51 17L50 17L50 16L52 16L52 17L53 17L53 18L55 18L55 17L53 17L53 16L52 16L52 15L50 15L50 14L51 14L51 12L50 12L50 11L49 11L49 10L47 10L47 11L48 11L48 12L45 12L45 11L42 11L42 10L41 10L41 12L39 12L39 13L38 13L38 14L37 14L37 15L35 15L35 16L32 16L32 18L30 18L30 20L29 20L29 19L28 19L28 18L26 18L26 21L30 21L30 20L31 20L31 19L32 19L32 18L33 18L33 19L36 19L36 20L37 20L37 19L39 19L39 17L41 17L41 16L42 16L42 17L43 17L43 16L42 16L42 15L43 15L43 14L47 14L47 13L49 13L49 12L50 12L50 14L49 14L49 15L48 15L48 16L49 16L49 17L50 17L50 19L52 19L52 20L51 20L51 21L49 21L49 18L47 18L47 16L46 16L46 17L45 17L45 15L44 15L44 18L43 18L43 20L44 20L44 23L43 23L43 22L41 22L41 23L42 23L42 24L38 24L38 22L39 22L39 23L40 23L40 22L39 22L39 21L42 21L42 20L38 20L38 22L37 22L37 24L38 24L38 26L37 26L37 25L33 25L33 24L32 24L32 23L35 23L35 20L34 20L34 21L33 21L33 20L32 20L32 21L31 21L31 22L30 22L30 23L31 23L31 24L28 24L28 23L27 23L27 24L25 24L25 23L26 23L26 22L25 22L25 21L24 21L24 20L20 20L20 19L21 19L21 18L22 18L22 17L26 17L26 16L27 16L27 17L28 17L28 16L29 16L29 14L30 14L30 15L31 15L31 14L32 14L32 13L33 13L33 14L36 14L36 13L35 13L35 12L37 12L37 11L36 11L36 10L37 10L37 9L35 9L35 8L34 8L34 9L33 9L33 7L34 7L34 5L35 5L35 4L34 4L34 3L35 3L35 2L34 2L34 3L32 3L32 4L31 4L31 8L32 8L32 10L31 10L31 11L30 11L30 10L29 10L29 9L28 9L28 11L29 11L29 12L28 12L28 13L26 13L26 12L27 12L27 11L26 11L26 12L25 12L25 10L23 10L23 9L24 9L24 6L23 6L23 7L22 7L22 8L20 8L20 10L19 10L19 12L20 12L20 15L19 15L19 14L17 14L17 13L18 13L18 12L17 12L17 11L18 11L18 10L17 10L17 9L15 9L15 7L16 7L16 8L17 8L17 7L18 7L18 6L19 6L19 7L20 7L20 5L17 5L17 3L15 3L15 2ZM44 3L44 6L43 6L43 7L44 7L44 6L45 6L45 7L46 7L46 6L45 6L45 4L46 4L46 5L47 5L47 3ZM15 4L15 5L16 5L16 4ZM25 4L25 8L26 8L26 4ZM32 4L32 5L33 5L33 4ZM36 4L36 5L37 5L37 4ZM27 5L27 8L30 8L30 5ZM16 6L16 7L17 7L17 6ZM28 6L28 7L29 7L29 6ZM32 6L32 7L33 7L33 6ZM48 6L48 7L49 7L49 6ZM51 8L51 9L52 9L52 8ZM53 8L53 9L54 9L54 8ZM55 8L55 9L56 9L56 8ZM13 10L13 11L14 11L14 12L13 12L13 13L11 13L11 14L12 14L12 15L11 15L11 19L12 19L12 15L14 15L14 16L13 16L13 18L15 18L15 19L17 19L17 18L15 18L15 17L16 17L16 13L17 13L17 12L16 12L16 11L17 11L17 10ZM20 10L20 11L21 11L21 12L22 12L22 13L21 13L21 15L20 15L20 17L19 17L19 16L18 16L18 15L17 15L17 17L18 17L18 18L19 18L19 19L18 19L18 20L17 20L17 21L16 21L16 20L15 20L15 21L16 21L16 22L14 22L14 21L11 21L11 20L10 20L10 21L9 21L9 22L10 22L10 21L11 21L11 22L13 22L13 23L12 23L12 24L11 24L11 23L10 23L10 25L12 25L12 28L11 28L11 29L10 29L10 31L12 31L12 29L13 29L13 30L14 30L14 28L16 28L16 29L15 29L15 31L13 31L13 32L14 32L14 33L15 33L15 31L16 31L16 29L18 29L18 30L20 30L20 29L18 29L18 28L17 28L17 27L18 27L18 26L19 26L19 27L20 27L20 26L19 26L19 25L22 25L22 26L21 26L21 27L22 27L22 26L24 26L24 27L25 27L25 28L23 28L23 30L25 30L25 31L21 31L21 32L17 32L17 35L16 35L16 34L12 34L12 33L11 33L11 36L12 36L12 37L11 37L11 38L10 38L10 40L9 40L9 39L8 39L8 38L9 38L9 37L7 37L7 38L6 38L6 39L7 39L7 40L8 40L8 41L9 41L9 43L10 43L10 40L11 40L11 38L12 38L12 39L13 39L13 40L12 40L12 42L11 42L11 44L12 44L12 42L13 42L13 44L14 44L14 43L16 43L16 44L18 44L18 45L17 45L17 46L18 46L18 47L19 47L19 46L20 46L20 47L25 47L25 45L24 45L24 43L23 43L23 42L25 42L25 41L23 41L23 42L22 42L22 43L21 43L21 44L20 44L20 43L19 43L19 42L20 42L20 40L22 40L22 38L23 38L23 39L24 39L24 40L25 40L25 36L27 36L27 33L26 33L26 32L27 32L27 31L31 31L31 33L29 33L29 32L28 32L28 33L29 33L29 34L30 34L30 36L29 36L29 37L31 37L31 38L29 38L29 39L33 39L33 40L35 40L35 39L38 39L38 40L40 40L40 39L38 39L38 37L40 37L40 38L41 38L41 39L42 39L42 38L43 38L43 37L44 37L44 38L45 38L45 37L44 37L44 36L46 36L46 37L47 37L47 36L48 36L48 35L50 35L50 36L51 36L51 37L52 37L52 35L53 35L53 34L52 34L52 33L53 33L53 32L52 32L52 33L51 33L51 32L50 32L50 34L48 34L48 35L47 35L47 34L45 34L45 35L44 35L44 33L43 33L43 32L45 32L45 33L47 33L47 32L48 32L48 33L49 33L49 32L48 32L48 31L47 31L47 30L46 30L46 29L47 29L47 27L46 27L46 26L45 26L45 25L44 25L44 24L43 24L43 25L39 25L39 26L40 26L40 27L36 27L36 26L34 26L34 27L33 27L33 26L32 26L32 24L31 24L31 25L28 25L28 26L26 26L26 25L25 25L25 24L24 24L24 23L23 23L23 22L24 22L24 21L21 21L21 23L23 23L23 24L24 24L24 25L22 25L22 24L18 24L18 23L20 23L20 22L17 22L17 21L20 21L20 20L19 20L19 19L20 19L20 17L22 17L22 16L21 16L21 15L23 15L23 14L26 14L26 13L25 13L25 12L24 12L24 11L23 11L23 10L22 10L22 11L21 11L21 10ZM32 10L32 11L31 11L31 13L30 13L30 14L31 14L31 13L32 13L32 12L33 12L33 13L34 13L34 12L33 12L33 10ZM15 12L15 13L13 13L13 14L15 14L15 13L16 13L16 12ZM43 12L43 13L39 13L39 14L38 14L38 15L39 15L39 16L38 16L38 17L37 17L37 16L35 16L35 17L37 17L37 18L38 18L38 17L39 17L39 16L41 16L41 14L43 14L43 13L44 13L44 12ZM52 12L52 13L53 13L53 15L54 15L54 13L55 13L55 14L56 14L56 13L55 13L55 12L54 12L54 13L53 13L53 12ZM22 13L22 14L23 14L23 13ZM28 13L28 14L29 14L29 13ZM39 14L39 15L40 15L40 14ZM25 15L25 16L26 16L26 15ZM27 15L27 16L28 16L28 15ZM3 16L3 17L4 17L4 16ZM6 16L6 17L7 17L7 16ZM14 16L14 17L15 17L15 16ZM23 18L23 19L24 19L24 18ZM41 18L41 19L42 19L42 18ZM44 18L44 20L46 20L46 18ZM13 19L13 20L14 20L14 19ZM27 19L27 20L28 20L28 19ZM1 20L1 21L2 21L2 22L3 22L3 21L2 21L2 20ZM7 21L7 22L6 22L6 23L7 23L7 24L6 24L6 25L8 25L8 23L7 23L7 22L8 22L8 21ZM45 21L45 22L46 22L46 23L45 23L45 24L47 24L47 23L49 23L49 24L50 24L50 23L49 23L49 21L47 21L47 22L46 22L46 21ZM13 23L13 24L15 24L15 25L14 25L14 27L13 27L13 28L14 28L14 27L15 27L15 26L17 26L17 24L16 24L16 23ZM25 26L25 27L26 27L26 26ZM31 26L31 28L32 28L32 29L31 29L31 31L32 31L32 34L31 34L31 35L34 35L34 34L35 34L35 36L32 36L32 37L33 37L33 38L35 38L35 36L37 36L37 37L38 37L38 35L40 35L40 34L39 34L39 33L41 33L41 32L43 32L43 30L45 30L45 28L46 28L46 27L45 27L45 26L44 26L44 27L43 27L43 26L41 26L41 27L40 27L40 28L38 28L38 29L36 29L36 31L32 31L32 29L33 29L33 30L35 30L35 28L33 28L33 27L32 27L32 26ZM53 26L53 27L54 27L54 26ZM5 27L5 30L8 30L8 27ZM27 27L27 30L30 30L30 27ZM41 27L41 28L42 28L42 27ZM44 27L44 28L43 28L43 29L39 29L39 30L38 30L38 32L39 32L39 31L41 31L41 30L43 30L43 29L44 29L44 28L45 28L45 27ZM49 27L49 30L52 30L52 27ZM6 28L6 29L7 29L7 28ZM21 28L21 29L22 29L22 28ZM25 28L25 29L26 29L26 28ZM28 28L28 29L29 29L29 28ZM50 28L50 29L51 29L51 28ZM25 31L25 32L21 32L21 33L20 33L20 35L19 35L19 34L18 34L18 35L17 35L17 36L16 36L16 35L14 35L14 36L15 36L15 37L13 37L13 38L14 38L14 39L16 39L16 40L13 40L13 42L17 42L17 43L18 43L18 42L19 42L19 41L18 41L18 40L17 40L17 39L18 39L18 38L17 38L17 36L18 36L18 35L19 35L19 37L23 37L23 38L24 38L24 37L23 37L23 36L24 36L24 34L23 34L23 33L25 33L25 35L26 35L26 33L25 33L25 32L26 32L26 31ZM46 31L46 32L47 32L47 31ZM6 32L6 33L7 33L7 34L4 34L4 35L7 35L7 34L8 34L8 36L9 36L9 35L10 35L10 34L8 34L8 33L7 33L7 32ZM35 32L35 34L37 34L37 35L38 35L38 33L37 33L37 32ZM21 33L21 34L22 34L22 36L23 36L23 34L22 34L22 33ZM42 34L42 35L41 35L41 36L40 36L40 37L41 37L41 36L42 36L42 37L43 37L43 36L44 36L44 35L43 35L43 34ZM50 34L50 35L52 35L52 34ZM12 35L12 36L13 36L13 35ZM20 35L20 36L21 36L21 35ZM46 35L46 36L47 36L47 35ZM0 37L0 38L1 38L1 37ZM15 37L15 38L16 38L16 37ZM26 37L26 40L28 40L28 41L30 41L30 42L29 42L29 43L28 43L28 44L27 44L27 43L25 43L25 44L27 44L27 45L26 45L26 47L27 47L27 45L28 45L28 44L29 44L29 43L30 43L30 44L31 44L31 45L32 45L32 46L33 46L33 45L32 45L32 44L33 44L33 43L34 43L34 42L33 42L33 41L32 41L32 40L28 40L28 39L27 39L27 38L28 38L28 37ZM48 37L48 38L47 38L47 39L46 39L46 40L47 40L47 39L48 39L48 38L50 38L50 37ZM19 38L19 39L20 39L20 38ZM51 38L51 39L49 39L49 41L48 41L48 42L47 42L47 43L46 43L46 44L45 44L45 42L44 42L44 44L45 44L45 45L47 45L47 46L48 46L48 45L49 45L49 44L48 44L48 45L47 45L47 43L48 43L48 42L49 42L49 43L50 43L50 45L51 45L51 43L53 43L53 42L51 42L51 41L53 41L53 40L52 40L52 38ZM16 40L16 41L17 41L17 42L18 42L18 41L17 41L17 40ZM26 41L26 42L27 42L27 41ZM31 41L31 42L32 42L32 43L31 43L31 44L32 44L32 43L33 43L33 42L32 42L32 41ZM50 42L50 43L51 43L51 42ZM4 43L4 46L3 46L3 47L5 47L5 43ZM39 43L39 45L38 45L38 46L39 46L39 47L38 47L38 48L37 48L37 49L38 49L38 50L36 50L36 49L33 49L33 48L32 48L32 49L31 49L31 50L32 50L32 51L31 51L31 53L30 53L30 54L27 54L27 53L24 53L24 52L26 52L26 50L22 50L22 51L23 51L23 52L22 52L22 53L24 53L24 54L23 54L23 55L24 55L24 56L25 56L25 54L26 54L26 55L27 55L27 56L29 56L29 55L30 55L30 56L31 56L31 54L32 54L32 53L33 53L33 55L35 55L35 56L36 56L36 54L35 54L35 52L34 52L34 51L35 51L35 50L36 50L36 52L38 52L38 54L40 54L40 53L42 53L42 52L43 52L43 51L42 51L42 50L41 50L41 48L39 48L39 47L40 47L40 46L39 46L39 45L41 45L41 44L42 44L42 43L41 43L41 44L40 44L40 43ZM55 43L55 44L54 44L54 45L55 45L55 46L56 46L56 43ZM21 44L21 45L20 45L20 46L21 46L21 45L22 45L22 46L23 46L23 45L22 45L22 44ZM7 45L7 46L8 46L8 45ZM1 46L1 47L2 47L2 46ZM38 48L38 49L39 49L39 48ZM42 48L42 49L43 49L43 50L44 50L44 49L43 49L43 48ZM14 49L14 51L15 51L15 49ZM27 49L27 52L30 52L30 49ZM32 49L32 50L33 50L33 49ZM49 49L49 52L52 52L52 49ZM16 50L16 51L17 51L17 50ZM28 50L28 51L29 51L29 50ZM38 50L38 51L40 51L40 52L41 52L41 50ZM50 50L50 51L51 51L51 50ZM54 50L54 51L55 51L55 50ZM32 51L32 52L33 52L33 51ZM9 52L9 53L10 53L10 52ZM53 52L53 53L54 53L54 52ZM43 53L43 54L44 54L44 53ZM37 55L37 56L39 56L39 55ZM50 55L50 56L51 56L51 55ZM13 56L13 57L14 57L14 56ZM0 0L0 7L7 7L7 0ZM1 1L1 6L6 6L6 1ZM2 2L2 5L5 5L5 2ZM50 0L50 7L57 7L57 0ZM51 1L51 6L56 6L56 1ZM52 2L52 5L55 5L55 2ZM0 50L0 57L7 57L7 50ZM1 51L1 56L6 56L6 51ZM2 52L2 55L5 55L5 52Z" fill="#000000"/></g></g></svg>
