<?xml version="1.0" encoding="UTF-8"?>
<svg xmlns="http://www.w3.org/2000/svg" version="1.1" width="300" height="300" viewBox="0 0 300 300"><rect x="0" y="0" width="300" height="300" fill="#fefefe"/><g transform="scale(4.615)"><g transform="translate(4,4)"><path fill-rule="evenodd" d="M8 0L8 2L9 2L9 1L11 1L11 0ZM13 0L13 1L12 1L12 3L10 3L10 5L9 5L9 4L8 4L8 9L7 9L7 8L5 8L5 9L7 9L7 10L6 10L6 11L7 11L7 10L8 10L8 11L11 11L11 10L12 10L12 9L13 9L13 10L14 10L14 9L15 9L15 10L16 10L16 11L14 11L14 12L17 12L17 14L15 14L15 15L14 15L14 14L13 14L13 15L12 15L12 18L13 18L13 22L11 22L11 24L10 24L10 26L9 26L9 23L8 23L8 22L9 22L9 21L7 21L7 20L6 20L6 19L8 19L8 20L10 20L10 21L11 21L11 20L12 20L12 19L11 19L11 17L10 17L10 16L9 16L9 15L11 15L11 14L10 14L10 13L11 13L11 12L10 12L10 13L9 13L9 12L5 12L5 11L4 11L4 10L3 10L3 11L4 11L4 12L3 12L3 13L2 13L2 11L1 11L1 12L0 12L0 17L1 17L1 16L5 16L5 18L6 18L6 19L4 19L4 18L3 18L3 19L2 19L2 18L0 18L0 19L2 19L2 22L0 22L0 23L2 23L2 22L3 22L3 23L4 23L4 24L6 24L6 25L7 25L7 26L3 26L3 25L2 25L2 27L3 27L3 32L4 32L4 31L5 31L5 32L6 32L6 33L7 33L7 32L6 32L6 31L8 31L8 33L10 33L10 34L11 34L11 33L13 33L13 34L12 34L12 35L9 35L9 34L8 34L8 35L9 35L9 36L12 36L12 38L11 38L11 37L10 37L10 39L9 39L9 37L8 37L8 36L5 36L5 33L3 33L3 34L2 34L2 33L1 33L1 34L0 34L0 35L3 35L3 36L2 36L2 37L3 37L3 38L4 38L4 37L3 37L3 36L5 36L5 39L2 39L2 38L0 38L0 39L2 39L2 40L0 40L0 43L2 43L2 44L0 44L0 48L5 48L5 47L7 47L7 48L6 48L6 49L8 49L8 50L9 50L9 51L8 51L8 52L14 52L14 53L15 53L15 54L13 54L13 53L11 53L11 54L10 54L10 53L9 53L9 54L8 54L8 57L9 57L9 56L11 56L11 54L12 54L12 55L13 55L13 57L15 57L15 56L16 56L16 57L17 57L17 55L18 55L18 57L19 57L19 55L18 55L18 54L19 54L19 52L20 52L20 53L21 53L21 54L20 54L20 55L21 55L21 56L20 56L20 57L21 57L21 56L22 56L22 57L23 57L23 56L24 56L24 57L25 57L25 56L26 56L26 57L28 57L28 55L29 55L29 57L33 57L33 55L34 55L34 57L35 57L35 55L38 55L38 47L37 47L37 48L36 48L36 49L37 49L37 51L35 51L35 52L36 52L36 53L35 53L35 54L34 54L34 53L33 53L33 52L34 52L34 48L35 48L35 47L36 47L36 46L38 46L38 45L37 45L37 44L39 44L39 47L40 47L40 49L39 49L39 52L40 52L40 53L39 53L39 55L40 55L40 54L42 54L42 55L41 55L41 56L40 56L40 57L42 57L42 56L44 56L44 57L45 57L45 56L46 56L46 52L47 52L47 53L49 53L49 54L48 54L48 56L47 56L47 57L48 57L48 56L49 56L49 57L50 57L50 55L49 55L49 54L52 54L52 55L53 55L53 54L54 54L54 53L55 53L55 52L56 52L56 53L57 53L57 52L56 52L56 51L57 51L57 50L56 50L56 47L57 47L57 45L56 45L56 44L57 44L57 42L56 42L56 44L55 44L55 45L56 45L56 47L55 47L55 46L54 46L54 45L53 45L53 46L52 46L52 45L50 45L50 44L52 44L52 39L53 39L53 44L54 44L54 43L55 43L55 42L54 42L54 39L55 39L55 38L57 38L57 34L56 34L56 37L55 37L55 36L54 36L54 34L53 34L53 36L51 36L51 33L50 33L50 32L49 32L49 31L51 31L51 32L52 32L52 31L53 31L53 32L54 32L54 33L56 33L56 31L57 31L57 28L56 28L56 27L57 27L57 24L56 24L56 23L57 23L57 10L56 10L56 9L57 9L57 8L55 8L55 9L54 9L54 10L53 10L53 11L52 11L52 12L51 12L51 11L50 11L50 13L49 13L49 14L48 14L48 12L49 12L49 10L48 10L48 9L51 9L51 10L52 10L52 9L53 9L53 8L49 8L49 6L48 6L48 9L47 9L47 11L46 11L46 7L47 7L47 5L48 5L48 0L46 0L46 1L47 1L47 2L45 2L45 4L44 4L44 2L43 2L43 3L41 3L41 4L42 4L42 5L41 5L41 6L40 6L40 7L39 7L39 6L38 6L38 5L39 5L39 4L40 4L40 2L42 2L42 1L45 1L45 0L42 0L42 1L41 1L41 0L38 0L38 2L37 2L37 1L35 1L35 0L34 0L34 3L33 3L33 4L34 4L34 5L33 5L33 6L32 6L32 7L33 7L33 6L34 6L34 8L32 8L32 9L31 9L31 5L32 5L32 1L33 1L33 0L32 0L32 1L31 1L31 0L30 0L30 1L31 1L31 2L29 2L29 1L28 1L28 0L26 0L26 2L25 2L25 4L24 4L24 1L25 1L25 0L24 0L24 1L23 1L23 0L20 0L20 1L19 1L19 0L18 0L18 1L19 1L19 2L18 2L18 3L17 3L17 4L16 4L16 2L17 2L17 0L16 0L16 1L14 1L14 0ZM13 1L13 3L12 3L12 4L11 4L11 5L10 5L10 6L9 6L9 7L10 7L10 6L11 6L11 7L12 7L12 8L9 8L9 9L8 9L8 10L9 10L9 9L12 9L12 8L13 8L13 9L14 9L14 5L13 5L13 3L14 3L14 4L15 4L15 3L14 3L14 1ZM22 1L22 2L19 2L19 3L18 3L18 5L16 5L16 6L15 6L15 9L16 9L16 10L17 10L17 9L18 9L18 10L19 10L19 11L18 11L18 12L19 12L19 11L20 11L20 14L19 14L19 13L18 13L18 14L17 14L17 15L15 15L15 16L16 16L16 18L15 18L15 19L14 19L14 20L15 20L15 19L16 19L16 20L17 20L17 19L16 19L16 18L18 18L18 19L19 19L19 18L18 18L18 14L19 14L19 16L21 16L21 15L20 15L20 14L22 14L22 16L23 16L23 15L24 15L24 18L25 18L25 17L26 17L26 16L27 16L27 19L26 19L26 20L27 20L27 21L28 21L28 22L26 22L26 23L29 23L29 21L28 21L28 20L30 20L30 24L29 24L29 26L31 26L31 25L32 25L32 28L31 28L31 30L32 30L32 32L30 32L30 34L32 34L32 35L33 35L33 33L34 33L34 35L35 35L35 36L33 36L33 37L34 37L34 38L35 38L35 41L34 41L34 39L33 39L33 38L31 38L31 40L30 40L30 36L31 36L31 37L32 37L32 36L31 36L31 35L28 35L28 34L29 34L29 32L27 32L27 33L28 33L28 34L26 34L26 30L25 30L25 29L24 29L24 28L25 28L25 25L24 25L24 27L22 27L22 28L23 28L23 29L22 29L22 30L21 30L21 29L20 29L20 27L21 27L21 25L22 25L22 24L23 24L23 22L22 22L22 24L21 24L21 23L20 23L20 22L21 22L21 21L22 21L22 20L23 20L23 19L22 19L22 18L21 18L21 17L20 17L20 18L21 18L21 19L20 19L20 20L19 20L19 23L18 23L18 22L16 22L16 23L17 23L17 25L16 25L16 27L14 27L14 26L15 26L15 25L14 25L14 24L15 24L15 23L14 23L14 22L15 22L15 21L14 21L14 22L13 22L13 24L11 24L11 25L12 25L12 26L13 26L13 27L12 27L12 29L13 29L13 28L14 28L14 29L15 29L15 30L16 30L16 31L14 31L14 33L15 33L15 34L13 34L13 37L14 37L14 38L13 38L13 39L10 39L10 40L11 40L11 41L9 41L9 39L8 39L8 38L7 38L7 37L6 37L6 38L7 38L7 39L6 39L6 40L2 40L2 41L1 41L1 42L2 42L2 43L4 43L4 44L2 44L2 46L1 46L1 47L2 47L2 46L3 46L3 47L5 47L5 45L6 45L6 46L7 46L7 47L8 47L8 48L10 48L10 49L9 49L9 50L10 50L10 51L11 51L11 50L10 50L10 49L12 49L12 51L13 51L13 49L14 49L14 51L15 51L15 52L16 52L16 50L17 50L17 51L18 51L18 50L19 50L19 51L20 51L20 50L22 50L22 51L23 51L23 52L24 52L24 51L25 51L25 53L26 53L26 54L24 54L24 55L26 55L26 54L27 54L27 55L28 55L28 53L26 53L26 51L25 51L25 49L26 49L26 48L29 48L29 47L30 47L30 48L31 48L31 52L32 52L32 51L33 51L33 49L32 49L32 48L33 48L33 46L32 46L32 40L33 40L33 41L34 41L34 42L35 42L35 41L36 41L36 44L33 44L33 45L34 45L34 47L35 47L35 46L36 46L36 44L37 44L37 43L40 43L40 42L41 42L41 41L42 41L42 42L43 42L43 41L44 41L44 42L45 42L45 43L41 43L41 45L40 45L40 47L41 47L41 49L40 49L40 51L41 51L41 49L42 49L42 50L43 50L43 51L42 51L42 52L43 52L43 53L42 53L42 54L43 54L43 55L44 55L44 56L45 56L45 55L44 55L44 52L43 52L43 51L45 51L45 52L46 52L46 51L47 51L47 52L48 52L48 51L47 51L47 49L46 49L46 48L47 48L47 47L48 47L48 46L47 46L47 44L48 44L48 45L49 45L49 48L52 48L52 47L50 47L50 45L49 45L49 44L50 44L50 42L49 42L49 41L51 41L51 40L50 40L50 38L51 38L51 36L50 36L50 33L49 33L49 38L47 38L47 37L46 37L46 36L45 36L45 37L46 37L46 38L45 38L45 39L46 39L46 38L47 38L47 40L45 40L45 41L44 41L44 40L43 40L43 38L44 38L44 35L43 35L43 33L42 33L42 31L44 31L44 30L46 30L46 31L45 31L45 32L46 32L46 35L47 35L47 36L48 36L48 35L47 35L47 34L48 34L48 33L47 33L47 28L48 28L48 26L49 26L49 25L50 25L50 26L51 26L51 25L52 25L52 26L53 26L53 25L54 25L54 26L55 26L55 27L54 27L54 28L53 28L53 29L54 29L54 30L53 30L53 31L54 31L54 32L55 32L55 31L56 31L56 30L55 30L55 29L56 29L56 28L55 28L55 27L56 27L56 26L55 26L55 25L56 25L56 24L55 24L55 23L56 23L56 21L55 21L55 20L56 20L56 16L55 16L55 15L56 15L56 12L55 12L55 11L56 11L56 10L55 10L55 11L54 11L54 12L53 12L53 14L52 14L52 13L50 13L50 15L49 15L49 16L50 16L50 19L51 19L51 20L49 20L49 19L48 19L48 23L47 23L47 21L46 21L46 23L44 23L44 22L45 22L45 21L44 21L44 19L47 19L47 16L46 16L46 15L48 15L48 14L47 14L47 13L46 13L46 11L45 11L45 10L44 10L44 8L45 8L45 7L46 7L46 5L47 5L47 3L46 3L46 4L45 4L45 5L44 5L44 4L43 4L43 5L42 5L42 6L41 6L41 7L40 7L40 8L38 8L38 6L37 6L37 5L38 5L38 4L39 4L39 3L37 3L37 2L35 2L35 3L36 3L36 4L35 4L35 9L34 9L34 10L33 10L33 9L32 9L32 11L34 11L34 12L35 12L35 13L34 13L34 15L33 15L33 13L32 13L32 15L31 15L31 12L30 12L30 11L29 11L29 12L30 12L30 13L29 13L29 15L28 15L28 14L27 14L27 15L26 15L26 16L25 16L25 14L26 14L26 13L27 13L27 12L28 12L28 11L27 11L27 10L29 10L29 9L27 9L27 10L25 10L25 9L26 9L26 5L24 5L24 6L23 6L23 3L22 3L22 2L23 2L23 1ZM27 1L27 2L28 2L28 4L30 4L30 3L29 3L29 2L28 2L28 1ZM39 1L39 2L40 2L40 1ZM21 3L21 4L22 4L22 3ZM26 3L26 4L27 4L27 3ZM11 5L11 6L12 6L12 7L13 7L13 5ZM18 5L18 9L19 9L19 10L20 10L20 9L21 9L21 8L22 8L22 9L23 9L23 10L24 10L24 11L22 11L22 12L23 12L23 14L24 14L24 13L26 13L26 11L25 11L25 10L24 10L24 9L25 9L25 8L24 8L24 9L23 9L23 6L22 6L22 5L20 5L20 7L19 7L19 5ZM27 5L27 8L30 8L30 5ZM43 5L43 6L42 6L42 7L41 7L41 8L40 8L40 9L39 9L39 11L38 11L38 8L37 8L37 6L36 6L36 10L34 10L34 11L36 11L36 14L35 14L35 15L34 15L34 17L33 17L33 16L32 16L32 17L31 17L31 16L30 16L30 15L29 15L29 16L30 16L30 17L28 17L28 18L30 18L30 17L31 17L31 19L30 19L30 20L32 20L32 21L33 21L33 22L31 22L31 23L32 23L32 25L33 25L33 26L34 26L34 24L36 24L36 26L37 26L37 27L34 27L34 29L33 29L33 28L32 28L32 29L33 29L33 32L32 32L32 33L33 33L33 32L34 32L34 33L35 33L35 35L36 35L36 37L35 37L35 38L36 38L36 41L37 41L37 42L38 42L38 41L39 41L39 38L40 38L40 39L41 39L41 35L40 35L40 36L38 36L38 35L39 35L39 34L38 34L38 33L39 33L39 32L40 32L40 34L42 34L42 33L41 33L41 32L40 32L40 31L42 31L42 28L43 28L43 30L44 30L44 29L46 29L46 28L47 28L47 26L48 26L48 25L49 25L49 23L50 23L50 22L49 22L49 23L48 23L48 25L47 25L47 26L46 26L46 24L47 24L47 23L46 23L46 24L44 24L44 26L43 26L43 27L41 27L41 26L40 26L40 25L41 25L41 23L42 23L42 21L43 21L43 22L44 22L44 21L43 21L43 20L42 20L42 19L44 19L44 17L45 17L45 18L46 18L46 16L44 16L44 15L46 15L46 13L45 13L45 12L44 12L44 13L43 13L43 16L44 16L44 17L43 17L43 18L42 18L42 17L41 17L41 15L42 15L42 12L43 12L43 10L42 10L42 9L41 9L41 8L42 8L42 7L43 7L43 6L44 6L44 7L45 7L45 6L44 6L44 5ZM16 6L16 7L17 7L17 6ZM21 6L21 7L22 7L22 6ZM24 6L24 7L25 7L25 6ZM28 6L28 7L29 7L29 6ZM0 8L0 9L1 9L1 10L2 10L2 9L3 9L3 8ZM19 8L19 9L20 9L20 8ZM30 9L30 10L31 10L31 9ZM40 9L40 11L41 11L41 12L42 12L42 10L41 10L41 9ZM12 11L12 13L13 13L13 11ZM47 11L47 12L48 12L48 11ZM37 12L37 13L38 13L38 15L37 15L37 14L36 14L36 15L35 15L35 17L34 17L34 18L36 18L36 19L37 19L37 20L38 20L38 22L39 22L39 23L41 23L41 22L40 22L40 19L41 19L41 18L40 18L40 15L41 15L41 13L40 13L40 15L39 15L39 12ZM1 13L1 14L2 14L2 15L3 15L3 14L4 14L4 15L6 15L6 16L7 16L7 17L6 17L6 18L7 18L7 17L8 17L8 18L9 18L9 17L8 17L8 14L9 14L9 13L8 13L8 14L7 14L7 13L6 13L6 14L5 14L5 13L3 13L3 14L2 14L2 13ZM54 13L54 15L52 15L52 14L51 14L51 15L50 15L50 16L52 16L52 18L53 18L53 16L54 16L54 19L53 19L53 20L52 20L52 22L51 22L51 23L52 23L52 22L53 22L53 24L52 24L52 25L53 25L53 24L54 24L54 25L55 25L55 24L54 24L54 22L55 22L55 21L54 21L54 19L55 19L55 16L54 16L54 15L55 15L55 13ZM6 14L6 15L7 15L7 14ZM13 15L13 18L14 18L14 15ZM36 15L36 18L37 18L37 19L38 19L38 20L39 20L39 19L40 19L40 18L38 18L38 16L37 16L37 15ZM48 17L48 18L49 18L49 17ZM3 19L3 22L4 22L4 23L5 23L5 22L4 22L4 21L6 21L6 22L7 22L7 21L6 21L6 20L4 20L4 19ZM24 19L24 20L25 20L25 19ZM34 19L34 20L33 20L33 21L34 21L34 22L35 22L35 23L36 23L36 24L37 24L37 25L38 25L38 26L39 26L39 25L40 25L40 24L39 24L39 25L38 25L38 23L36 23L36 22L37 22L37 21L36 21L36 20L35 20L35 19ZM20 20L20 21L21 21L21 20ZM35 21L35 22L36 22L36 21ZM53 21L53 22L54 22L54 21ZM24 22L24 23L25 23L25 22ZM6 23L6 24L7 24L7 23ZM33 23L33 24L34 24L34 23ZM18 24L18 25L19 25L19 26L20 26L20 25L19 25L19 24ZM27 24L27 25L26 25L26 26L28 26L28 24ZM30 24L30 25L31 25L31 24ZM42 24L42 25L43 25L43 24ZM50 24L50 25L51 25L51 24ZM0 25L0 26L1 26L1 25ZM44 26L44 27L45 27L45 26ZM5 27L5 30L8 30L8 27ZM16 27L16 28L17 28L17 27ZM18 27L18 28L19 28L19 27ZM27 27L27 30L30 30L30 27ZM40 27L40 28L39 28L39 29L38 29L38 28L37 28L37 29L36 29L36 28L35 28L35 29L34 29L34 31L35 31L35 33L36 33L36 35L38 35L38 34L37 34L37 33L36 33L36 31L37 31L37 32L38 32L38 31L39 31L39 30L40 30L40 28L41 28L41 27ZM49 27L49 30L52 30L52 27ZM0 28L0 30L1 30L1 31L0 31L0 32L1 32L1 31L2 31L2 28ZM6 28L6 29L7 29L7 28ZM10 28L10 29L9 29L9 30L10 30L10 31L9 31L9 32L10 32L10 33L11 33L11 32L13 32L13 30L12 30L12 31L11 31L11 30L10 30L10 29L11 29L11 28ZM28 28L28 29L29 29L29 28ZM50 28L50 29L51 29L51 28ZM19 29L19 31L20 31L20 29ZM23 29L23 30L22 30L22 33L23 33L23 35L22 35L22 34L20 34L20 33L21 33L21 32L18 32L18 33L17 33L17 34L16 34L16 35L14 35L14 36L16 36L16 37L17 37L17 36L18 36L18 37L19 37L19 40L18 40L18 39L17 39L17 38L16 38L16 39L17 39L17 40L18 40L18 41L17 41L17 43L16 43L16 40L15 40L15 38L14 38L14 39L13 39L13 41L11 41L11 43L10 43L10 42L9 42L9 41L8 41L8 39L7 39L7 40L6 40L6 41L8 41L8 42L6 42L6 43L5 43L5 41L3 41L3 42L4 42L4 43L5 43L5 44L4 44L4 45L5 45L5 44L6 44L6 45L8 45L8 44L10 44L10 45L9 45L9 46L10 46L10 48L12 48L12 49L13 49L13 48L12 48L12 47L13 47L13 45L14 45L14 46L15 46L15 47L14 47L14 49L15 49L15 50L16 50L16 49L17 49L17 50L18 50L18 49L19 49L19 50L20 50L20 48L18 48L18 49L17 49L17 48L16 48L16 47L19 47L19 46L20 46L20 47L21 47L21 48L22 48L22 50L23 50L23 51L24 51L24 49L23 49L23 48L24 48L24 43L25 43L25 45L26 45L26 46L25 46L25 48L26 48L26 46L27 46L27 47L28 47L28 44L29 44L29 45L31 45L31 44L30 44L30 43L31 43L31 41L30 41L30 43L29 43L29 42L28 42L28 40L25 40L25 41L26 41L26 42L24 42L24 43L22 43L22 44L23 44L23 48L22 48L22 46L20 46L20 45L21 45L21 44L20 44L20 43L21 43L21 42L20 42L20 40L21 40L21 39L22 39L22 38L21 38L21 35L22 35L22 37L23 37L23 35L25 35L25 36L24 36L24 37L25 37L25 36L26 36L26 35L25 35L25 34L24 34L24 32L25 32L25 31L24 31L24 29ZM35 29L35 31L36 31L36 29ZM37 30L37 31L38 31L38 30ZM16 31L16 32L17 32L17 31ZM23 31L23 32L24 32L24 31ZM6 34L6 35L7 35L7 34ZM16 35L16 36L17 36L17 35ZM18 35L18 36L19 36L19 35ZM27 35L27 36L28 36L28 37L29 37L29 36L28 36L28 35ZM0 36L0 37L1 37L1 36ZM53 36L53 37L52 37L52 38L53 38L53 37L54 37L54 38L55 38L55 37L54 37L54 36ZM36 37L36 38L37 38L37 37ZM38 37L38 38L39 38L39 37ZM20 38L20 39L21 39L21 38ZM24 38L24 39L26 39L26 38ZM28 38L28 39L29 39L29 38ZM37 39L37 41L38 41L38 39ZM48 39L48 40L47 40L47 41L48 41L48 40L49 40L49 39ZM14 40L14 42L12 42L12 43L11 43L11 44L12 44L12 43L14 43L14 44L15 44L15 45L16 45L16 46L17 46L17 44L16 44L16 43L15 43L15 40ZM22 40L22 41L23 41L23 40ZM40 40L40 41L41 41L41 40ZM55 40L55 41L57 41L57 40ZM45 41L45 42L46 42L46 43L45 43L45 44L44 44L44 45L43 45L43 44L42 44L42 45L41 45L41 47L42 47L42 45L43 45L43 46L44 46L44 45L45 45L45 47L44 47L44 49L43 49L43 50L44 50L44 49L45 49L45 51L46 51L46 49L45 49L45 48L46 48L46 44L47 44L47 42L46 42L46 41ZM8 42L8 43L9 43L9 42ZM27 42L27 44L28 44L28 42ZM6 43L6 44L7 44L7 43ZM18 43L18 44L19 44L19 45L18 45L18 46L19 46L19 45L20 45L20 44L19 44L19 43ZM48 43L48 44L49 44L49 43ZM30 46L30 47L31 47L31 46ZM54 47L54 50L53 50L53 51L54 51L54 52L55 52L55 51L56 51L56 50L55 50L55 47ZM15 48L15 49L16 49L16 48ZM27 49L27 52L30 52L30 49ZM49 49L49 52L52 52L52 49ZM28 50L28 51L29 51L29 50ZM50 50L50 51L51 51L51 50ZM17 52L17 54L16 54L16 55L17 55L17 54L18 54L18 52ZM31 53L31 54L30 54L30 55L33 55L33 54L32 54L32 53ZM36 53L36 54L37 54L37 53ZM21 54L21 55L23 55L23 54ZM55 54L55 55L57 55L57 54ZM14 55L14 56L15 56L15 55ZM36 56L36 57L37 57L37 56ZM51 56L51 57L53 57L53 56ZM56 56L56 57L57 57L57 56ZM0 0L0 7L7 7L7 0ZM1 1L1 6L6 6L6 1ZM2 2L2 5L5 5L5 2ZM50 0L50 7L57 7L57 0ZM51 1L51 6L56 6L56 1ZM52 2L52 5L55 5L55 2ZM0 50L0 57L7 57L7 50ZM1 51L1 56L6 56L6 51ZM2 52L2 55L5 55L5 52Z" fill="#000000"/></g></g></svg>
