<?xml version="1.0" encoding="UTF-8"?>
<svg xmlns="http://www.w3.org/2000/svg" version="1.1" width="300" height="300" viewBox="0 0 300 300"><rect x="0" y="0" width="300" height="300" fill="#fefefe"/><g transform="scale(4.615)"><g transform="translate(4,4)"><path fill-rule="evenodd" d="M8 0L8 2L9 2L9 1L10 1L10 3L9 3L9 4L8 4L8 9L7 9L7 8L5 8L5 10L2 10L2 9L3 9L3 8L0 8L0 11L1 11L1 10L2 10L2 11L4 11L4 13L7 13L7 12L5 12L5 10L6 10L6 11L8 11L8 10L10 10L10 9L11 9L11 11L9 11L9 12L8 12L8 13L9 13L9 14L8 14L8 15L7 15L7 14L6 14L6 15L7 15L7 16L5 16L5 19L4 19L4 15L5 15L5 14L4 14L4 15L3 15L3 16L2 16L2 14L1 14L1 17L2 17L2 18L0 18L0 19L1 19L1 21L0 21L0 24L1 24L1 25L2 25L2 24L3 24L3 23L4 23L4 24L6 24L6 25L5 25L5 26L4 26L4 25L3 25L3 26L2 26L2 27L1 27L1 28L0 28L0 29L2 29L2 28L3 28L3 31L5 31L5 33L4 33L4 34L3 34L3 32L2 32L2 31L0 31L0 34L1 34L1 35L2 35L2 36L1 36L1 37L0 37L0 42L1 42L1 39L2 39L2 40L3 40L3 41L4 41L4 40L6 40L6 41L7 41L7 42L6 42L6 43L4 43L4 42L3 42L3 43L4 43L4 44L1 44L1 43L0 43L0 45L1 45L1 46L0 46L0 48L5 48L5 47L7 47L7 46L8 46L8 50L9 50L9 51L8 51L8 52L9 52L9 54L8 54L8 57L9 57L9 56L10 56L10 57L13 57L13 54L15 54L15 55L14 55L14 57L17 57L17 56L18 56L18 57L19 57L19 55L18 55L18 53L19 53L19 50L20 50L20 48L22 48L22 50L21 50L21 51L20 51L20 53L21 53L21 54L20 54L20 55L21 55L21 56L22 56L22 57L25 57L25 56L26 56L26 57L28 57L28 55L29 55L29 57L33 57L33 55L34 55L34 57L35 57L35 55L38 55L38 52L40 52L40 53L39 53L39 55L40 55L40 54L42 54L42 55L41 55L41 56L40 56L40 57L42 57L42 56L43 56L43 54L42 54L42 53L43 53L43 52L44 52L44 55L45 55L45 56L44 56L44 57L45 57L45 56L46 56L46 57L47 57L47 55L46 55L46 53L47 53L47 54L48 54L48 55L49 55L49 57L50 57L50 55L49 55L49 54L52 54L52 55L53 55L53 56L51 56L51 57L54 57L54 53L57 53L57 49L56 49L56 47L57 47L57 44L56 44L56 47L55 47L55 48L54 48L54 46L55 46L55 45L54 45L54 46L52 46L52 45L51 45L51 44L52 44L52 40L54 40L54 41L53 41L53 44L54 44L54 43L55 43L55 42L54 42L54 41L56 41L56 43L57 43L57 40L54 40L54 39L55 39L55 38L57 38L57 36L54 36L54 34L53 34L53 36L51 36L51 33L50 33L50 32L51 32L51 31L52 31L52 32L53 32L53 33L54 33L54 31L53 31L53 30L54 30L54 29L53 29L53 28L54 28L54 27L55 27L55 30L56 30L56 31L55 31L55 33L56 33L56 31L57 31L57 29L56 29L56 28L57 28L57 24L56 24L56 23L57 23L57 21L56 21L56 20L57 20L57 18L56 18L56 20L55 20L55 21L54 21L54 19L55 19L55 16L56 16L56 17L57 17L57 10L56 10L56 9L57 9L57 8L55 8L55 9L54 9L54 10L53 10L53 11L52 11L52 12L51 12L51 11L50 11L50 13L49 13L49 14L48 14L48 12L49 12L49 10L48 10L48 9L47 9L47 8L48 8L48 7L49 7L49 6L48 6L48 7L47 7L47 5L48 5L48 0L46 0L46 1L45 1L45 0L42 0L42 1L41 1L41 0L38 0L38 3L39 3L39 4L38 4L38 5L39 5L39 4L40 4L40 2L41 2L41 4L42 4L42 5L41 5L41 6L40 6L40 7L41 7L41 6L42 6L42 8L40 8L40 9L39 9L39 11L37 11L37 10L38 10L38 8L39 8L39 6L38 6L38 7L37 7L37 6L36 6L36 10L34 10L34 9L35 9L35 4L36 4L36 3L35 3L35 4L34 4L34 3L33 3L33 6L32 6L32 7L33 7L33 6L34 6L34 8L32 8L32 9L31 9L31 5L32 5L32 2L33 2L33 1L32 1L32 0L30 0L30 3L29 3L29 4L26 4L26 3L27 3L27 2L29 2L29 1L28 1L28 0L26 0L26 2L25 2L25 4L24 4L24 1L25 1L25 0L24 0L24 1L23 1L23 0L19 0L19 1L20 1L20 2L21 2L21 5L20 5L20 7L19 7L19 4L18 4L18 3L19 3L19 2L18 2L18 3L17 3L17 2L16 2L16 1L17 1L17 0L16 0L16 1L14 1L14 0L12 0L12 4L13 4L13 5L14 5L14 7L13 7L13 6L12 6L12 5L11 5L11 4L10 4L10 3L11 3L11 1L10 1L10 0ZM34 0L34 2L37 2L37 1L35 1L35 0ZM13 1L13 3L14 3L14 4L15 4L15 3L14 3L14 1ZM21 1L21 2L22 2L22 5L21 5L21 9L20 9L20 8L19 8L19 9L18 9L18 5L16 5L16 6L15 6L15 7L14 7L14 8L13 8L13 10L12 10L12 12L9 12L9 13L11 13L11 14L12 14L12 12L13 12L13 15L12 15L12 16L11 16L11 15L10 15L10 17L6 17L6 18L8 18L8 23L6 23L6 24L9 24L9 27L11 27L11 28L9 28L9 32L10 32L10 33L12 33L12 35L13 35L13 37L12 37L12 36L10 36L10 35L11 35L11 34L9 34L9 36L10 36L10 38L11 38L11 39L9 39L9 40L7 40L7 39L8 39L8 38L9 38L9 37L8 37L8 36L7 36L7 35L8 35L8 34L7 34L7 33L5 33L5 34L4 34L4 35L3 35L3 34L2 34L2 35L3 35L3 36L2 36L2 37L1 37L1 38L2 38L2 39L3 39L3 40L4 40L4 39L3 39L3 37L4 37L4 38L5 38L5 39L6 39L6 40L7 40L7 41L8 41L8 42L7 42L7 43L6 43L6 44L5 44L5 45L3 45L3 47L5 47L5 45L6 45L6 46L7 46L7 45L6 45L6 44L7 44L7 43L8 43L8 44L10 44L10 45L9 45L9 46L10 46L10 47L11 47L11 48L10 48L10 49L12 49L12 51L11 51L11 50L10 50L10 51L9 51L9 52L10 52L10 54L9 54L9 55L10 55L10 54L11 54L11 56L12 56L12 54L11 54L11 53L13 53L13 52L12 52L12 51L14 51L14 53L15 53L15 52L16 52L16 51L17 51L17 53L18 53L18 51L17 51L17 49L18 49L18 50L19 50L19 49L18 49L18 48L20 48L20 47L21 47L21 46L22 46L22 48L23 48L23 49L24 49L24 51L23 51L23 50L22 50L22 51L21 51L21 53L22 53L22 51L23 51L23 52L24 52L24 51L25 51L25 53L26 53L26 54L24 54L24 55L26 55L26 54L27 54L27 55L28 55L28 53L26 53L26 51L25 51L25 49L26 49L26 48L27 48L27 47L28 47L28 48L29 48L29 47L30 47L30 48L31 48L31 52L32 52L32 48L34 48L34 47L35 47L35 49L34 49L34 50L35 50L35 51L33 51L33 52L34 52L34 54L35 54L35 53L36 53L36 54L37 54L37 53L36 53L36 52L35 52L35 51L37 51L37 52L38 52L38 51L39 51L39 49L40 49L40 51L41 51L41 52L42 52L42 51L41 51L41 49L42 49L42 50L43 50L43 49L44 49L44 47L45 47L45 51L47 51L47 52L48 52L48 51L47 51L47 49L46 49L46 47L47 47L47 46L48 46L48 45L49 45L49 47L50 47L50 48L53 48L53 49L54 49L54 50L53 50L53 51L54 51L54 52L55 52L55 49L54 49L54 48L53 48L53 47L52 47L52 46L51 46L51 45L50 45L50 42L49 42L49 41L51 41L51 40L50 40L50 37L51 37L51 36L50 36L50 33L49 33L49 36L50 36L50 37L48 37L48 38L47 38L47 37L46 37L46 38L47 38L47 40L46 40L46 43L47 43L47 44L46 44L46 47L45 47L45 46L44 46L44 44L45 44L45 41L44 41L44 42L43 42L43 40L42 40L42 39L43 39L43 38L44 38L44 35L43 35L43 33L42 33L42 31L43 31L43 30L44 30L44 27L43 27L43 26L45 26L45 25L44 25L44 24L46 24L46 26L47 26L47 28L46 28L46 29L45 29L45 30L46 30L46 31L45 31L45 32L47 32L47 30L48 30L48 29L47 29L47 28L48 28L48 26L49 26L49 24L50 24L50 26L53 26L53 25L52 25L52 24L53 24L53 23L54 23L54 26L55 26L55 27L56 27L56 26L55 26L55 25L56 25L56 24L55 24L55 23L56 23L56 21L55 21L55 23L54 23L54 21L53 21L53 22L52 22L52 20L53 20L53 19L54 19L54 16L55 16L55 15L56 15L56 12L55 12L55 11L56 11L56 10L55 10L55 11L54 11L54 12L53 12L53 13L55 13L55 14L52 14L52 13L50 13L50 15L49 15L49 16L50 16L50 18L49 18L49 17L48 17L48 19L47 19L47 15L48 15L48 14L47 14L47 13L46 13L46 11L47 11L47 12L48 12L48 10L47 10L47 9L46 9L46 8L47 8L47 7L46 7L46 5L47 5L47 3L46 3L46 5L44 5L44 4L45 4L45 1L42 1L42 4L43 4L43 5L42 5L42 6L43 6L43 7L44 7L44 6L45 6L45 7L46 7L46 8L45 8L45 9L44 9L44 8L42 8L42 10L43 10L43 9L44 9L44 12L42 12L42 11L41 11L41 9L40 9L40 11L41 11L41 12L42 12L42 15L41 15L41 17L42 17L42 18L43 18L43 17L44 17L44 19L42 19L42 20L43 20L43 21L42 21L42 22L43 22L43 23L44 23L44 24L42 24L42 23L41 23L41 22L40 22L40 19L41 19L41 18L40 18L40 14L41 14L41 13L40 13L40 14L39 14L39 12L37 12L37 11L34 11L34 10L33 10L33 9L32 9L32 12L30 12L30 11L29 11L29 12L30 12L30 13L29 13L29 15L28 15L28 14L27 14L27 12L28 12L28 11L27 11L27 10L28 10L28 9L27 9L27 10L25 10L25 9L26 9L26 5L24 5L24 6L23 6L23 8L24 8L24 11L23 11L23 9L22 9L22 5L23 5L23 2L22 2L22 1ZM31 1L31 2L32 2L32 1ZM39 1L39 2L40 2L40 1ZM46 1L46 2L47 2L47 1ZM43 2L43 4L44 4L44 2ZM16 3L16 4L17 4L17 3ZM9 4L9 9L10 9L10 8L11 8L11 7L12 7L12 6L11 6L11 7L10 7L10 4ZM27 5L27 8L30 8L30 5ZM43 5L43 6L44 6L44 5ZM16 6L16 7L17 7L17 6ZM24 6L24 7L25 7L25 6ZM28 6L28 7L29 7L29 6ZM14 8L14 9L15 9L15 10L16 10L16 12L17 12L17 14L15 14L15 15L17 15L17 16L18 16L18 17L19 17L19 18L18 18L18 19L17 19L17 18L16 18L16 19L15 19L15 18L13 18L13 22L11 22L11 23L10 23L10 22L9 22L9 23L10 23L10 24L11 24L11 23L13 23L13 22L14 22L14 21L15 21L15 23L14 23L14 24L12 24L12 25L10 25L10 26L11 26L11 27L12 27L12 28L13 28L13 29L12 29L12 30L13 30L13 29L14 29L14 28L17 28L17 26L18 26L18 25L19 25L19 27L18 27L18 28L19 28L19 27L20 27L20 28L21 28L21 30L20 30L20 29L19 29L19 30L20 30L20 32L21 32L21 30L22 30L22 33L23 33L23 34L22 34L22 35L21 35L21 34L20 34L20 33L19 33L19 31L18 31L18 33L17 33L17 31L16 31L16 30L14 30L14 31L13 31L13 32L14 32L14 31L16 31L16 33L14 33L14 34L16 34L16 33L17 33L17 35L18 35L18 33L19 33L19 35L20 35L20 36L18 36L18 37L17 37L17 36L16 36L16 37L17 37L17 38L16 38L16 39L18 39L18 42L17 42L17 43L16 43L16 40L15 40L15 38L14 38L14 37L13 37L13 38L12 38L12 37L11 37L11 38L12 38L12 39L11 39L11 40L9 40L9 42L8 42L8 43L9 43L9 42L11 42L11 40L14 40L14 41L13 41L13 42L14 42L14 41L15 41L15 43L10 43L10 44L12 44L12 45L13 45L13 46L12 46L12 47L13 47L13 48L12 48L12 49L13 49L13 50L14 50L14 51L16 51L16 50L15 50L15 49L14 49L14 47L16 47L16 48L18 48L18 47L20 47L20 45L21 45L21 43L20 43L20 40L22 40L22 41L21 41L21 42L22 42L22 41L23 41L23 38L22 38L22 37L23 37L23 35L25 35L25 36L24 36L24 37L25 37L25 36L26 36L26 37L27 37L27 36L28 36L28 37L29 37L29 36L28 36L28 35L31 35L31 36L30 36L30 40L29 40L29 41L30 41L30 43L29 43L29 42L28 42L28 40L27 40L27 39L26 39L26 38L24 38L24 39L26 39L26 40L25 40L25 41L26 41L26 42L24 42L24 43L22 43L22 44L25 44L25 45L26 45L26 46L25 46L25 47L26 47L26 46L28 46L28 47L29 47L29 46L30 46L30 47L31 47L31 46L32 46L32 47L34 47L34 45L33 45L33 44L35 44L35 43L36 43L36 41L37 41L37 42L38 42L38 41L39 41L39 42L40 42L40 43L43 43L43 44L42 44L42 45L41 45L41 44L40 44L40 46L39 46L39 47L40 47L40 49L41 49L41 47L42 47L42 45L43 45L43 44L44 44L44 43L43 43L43 42L42 42L42 40L40 40L40 41L39 41L39 38L40 38L40 39L41 39L41 38L42 38L42 37L43 37L43 35L40 35L40 36L39 36L39 34L38 34L38 33L39 33L39 32L40 32L40 34L42 34L42 33L41 33L41 32L40 32L40 31L42 31L42 28L43 28L43 27L42 27L42 24L41 24L41 23L38 23L38 20L39 20L39 19L40 19L40 18L38 18L38 16L37 16L37 15L38 15L38 13L37 13L37 12L36 12L36 13L35 13L35 12L34 12L34 11L33 11L33 12L32 12L32 14L33 14L33 15L31 15L31 16L30 16L30 15L29 15L29 16L30 16L30 17L28 17L28 18L30 18L30 17L31 17L31 16L32 16L32 18L31 18L31 19L30 19L30 20L28 20L28 22L27 22L27 20L26 20L26 18L27 18L27 16L26 16L26 15L27 15L27 14L26 14L26 15L25 15L25 16L26 16L26 18L24 18L24 16L22 16L22 14L21 14L21 15L20 15L20 12L21 12L21 10L20 10L20 9L19 9L19 10L16 10L16 9L15 9L15 8ZM49 8L49 9L51 9L51 10L52 10L52 9L53 9L53 8ZM6 9L6 10L7 10L7 9ZM30 9L30 10L31 10L31 9ZM19 10L19 11L18 11L18 12L20 12L20 10ZM14 11L14 12L15 12L15 11ZM22 11L22 12L23 12L23 14L24 14L24 12L25 12L25 13L26 13L26 11L24 11L24 12L23 12L23 11ZM1 12L1 13L3 13L3 12ZM44 12L44 13L45 13L45 15L46 15L46 13L45 13L45 12ZM18 13L18 14L19 14L19 13ZM34 13L34 15L33 15L33 17L34 17L34 18L36 18L36 19L37 19L37 18L36 18L36 14L35 14L35 13ZM51 14L51 15L50 15L50 16L52 16L52 17L51 17L51 18L50 18L50 19L48 19L48 21L47 21L47 20L46 20L46 19L44 19L44 21L43 21L43 22L44 22L44 23L45 23L45 22L44 22L44 21L45 21L45 20L46 20L46 21L47 21L47 22L48 22L48 24L49 24L49 23L50 23L50 22L48 22L48 21L49 21L49 20L51 20L51 18L52 18L52 17L53 17L53 16L54 16L54 15L52 15L52 14ZM8 15L8 16L9 16L9 15ZM13 15L13 16L12 16L12 17L11 17L11 18L10 18L10 19L9 19L9 20L10 20L10 21L12 21L12 17L13 17L13 16L14 16L14 17L15 17L15 16L14 16L14 15ZM18 15L18 16L20 16L20 15ZM34 15L34 17L35 17L35 15ZM43 15L43 16L44 16L44 17L45 17L45 16L44 16L44 15ZM20 17L20 18L21 18L21 17ZM22 18L22 19L23 19L23 18ZM2 19L2 20L3 20L3 19ZM5 19L5 20L4 20L4 21L3 21L3 22L4 22L4 23L5 23L5 21L6 21L6 22L7 22L7 21L6 21L6 20L7 20L7 19ZM14 19L14 20L15 20L15 19ZM16 19L16 20L17 20L17 22L16 22L16 23L18 23L18 20L17 20L17 19ZM19 19L19 24L20 24L20 26L21 26L21 23L22 23L22 24L23 24L23 25L24 25L24 26L23 26L23 27L22 27L22 28L24 28L24 31L23 31L23 32L24 32L24 34L26 34L26 36L27 36L27 35L28 35L28 34L29 34L29 32L30 32L30 34L32 34L32 35L33 35L33 38L31 38L31 43L30 43L30 44L29 44L29 45L28 45L28 42L27 42L27 45L28 45L28 46L29 46L29 45L30 45L30 46L31 46L31 43L32 43L32 40L33 40L33 41L34 41L34 42L35 42L35 41L36 41L36 38L37 38L37 37L38 37L38 38L39 38L39 37L38 37L38 36L37 36L37 37L36 37L36 35L38 35L38 34L37 34L37 33L36 33L36 31L37 31L37 32L38 32L38 31L40 31L40 30L41 30L41 29L40 29L40 28L41 28L41 25L40 25L40 24L39 24L39 25L38 25L38 23L36 23L36 22L37 22L37 21L36 21L36 20L35 20L35 19L33 19L33 20L35 20L35 21L34 21L34 22L33 22L33 21L32 21L32 20L31 20L31 21L29 21L29 22L28 22L28 24L27 24L27 25L26 25L26 26L27 26L27 25L28 25L28 26L29 26L29 25L28 25L28 24L29 24L29 23L30 23L30 26L31 26L31 25L32 25L32 27L31 27L31 29L32 29L32 30L33 30L33 29L34 29L34 31L35 31L35 32L34 32L34 34L33 34L33 33L32 33L32 32L33 32L33 31L32 31L32 32L30 32L30 31L28 31L28 32L26 32L26 30L25 30L25 25L24 25L24 24L23 24L23 23L22 23L22 22L21 22L21 21L22 21L22 20L21 20L21 21L20 21L20 19ZM24 19L24 20L25 20L25 21L26 21L26 20L25 20L25 19ZM1 21L1 22L2 22L2 21ZM35 21L35 22L34 22L34 24L33 24L33 22L31 22L31 23L32 23L32 25L33 25L33 26L34 26L34 24L36 24L36 26L37 26L37 28L36 28L36 29L35 29L35 27L34 27L34 29L35 29L35 30L37 30L37 31L38 31L38 30L37 30L37 28L38 28L38 29L39 29L39 27L40 27L40 25L39 25L39 26L38 26L38 25L37 25L37 24L36 24L36 23L35 23L35 22L36 22L36 21ZM20 22L20 23L21 23L21 22ZM24 22L24 23L25 23L25 22ZM26 22L26 23L27 23L27 22ZM51 22L51 23L52 23L52 22ZM17 24L17 25L16 25L16 26L14 26L14 27L13 27L13 26L12 26L12 27L13 27L13 28L14 28L14 27L16 27L16 26L17 26L17 25L18 25L18 24ZM6 25L6 26L7 26L7 25ZM47 25L47 26L48 26L48 25ZM3 26L3 28L4 28L4 26ZM5 27L5 30L8 30L8 27ZM27 27L27 30L30 30L30 27ZM49 27L49 30L52 30L52 27ZM6 28L6 29L7 29L7 28ZM28 28L28 29L29 29L29 28ZM32 28L32 29L33 29L33 28ZM50 28L50 29L51 29L51 28ZM10 29L10 30L11 30L11 29ZM22 29L22 30L23 30L23 29ZM6 31L6 32L7 32L7 31ZM25 32L25 33L26 33L26 32ZM27 33L27 34L28 34L28 33ZM35 33L35 34L34 34L34 37L35 37L35 38L36 38L36 37L35 37L35 35L36 35L36 33ZM46 33L46 34L45 34L45 35L46 35L46 36L47 36L47 35L46 35L46 34L48 34L48 33ZM5 34L5 35L4 35L4 36L5 36L5 35L7 35L7 34ZM56 34L56 35L57 35L57 34ZM6 36L6 37L5 37L5 38L6 38L6 39L7 39L7 38L6 38L6 37L7 37L7 36ZM21 36L21 37L22 37L22 36ZM31 36L31 37L32 37L32 36ZM41 36L41 37L42 37L42 36ZM53 36L53 37L52 37L52 38L51 38L51 39L52 39L52 38L53 38L53 39L54 39L54 38L53 38L53 37L54 37L54 36ZM13 38L13 39L14 39L14 38ZM18 38L18 39L19 39L19 38ZM20 38L20 39L21 39L21 38ZM28 38L28 39L29 39L29 38ZM34 39L34 41L35 41L35 39ZM37 39L37 41L38 41L38 39ZM48 39L48 40L47 40L47 41L48 41L48 40L49 40L49 39ZM18 43L18 44L20 44L20 43ZM37 43L37 44L36 44L36 46L35 46L35 47L36 47L36 46L38 46L38 45L37 45L37 44L39 44L39 43ZM48 43L48 44L47 44L47 45L48 45L48 44L49 44L49 43ZM15 44L15 45L16 45L16 47L18 47L18 46L19 46L19 45L18 45L18 46L17 46L17 44ZM10 45L10 46L11 46L11 45ZM23 45L23 47L24 47L24 45ZM32 45L32 46L33 46L33 45ZM1 46L1 47L2 47L2 46ZM13 46L13 47L14 47L14 46ZM40 46L40 47L41 47L41 46ZM43 46L43 47L44 47L44 46ZM50 46L50 47L51 47L51 46ZM37 47L37 48L36 48L36 49L37 49L37 51L38 51L38 47ZM6 48L6 49L7 49L7 48ZM27 49L27 52L30 52L30 49ZM49 49L49 52L52 52L52 49ZM28 50L28 51L29 51L29 50ZM50 50L50 51L51 51L51 50ZM10 51L10 52L11 52L11 51ZM45 52L45 53L46 53L46 52ZM31 53L31 54L30 54L30 55L33 55L33 54L32 54L32 53ZM48 53L48 54L49 54L49 53ZM16 54L16 55L17 55L17 54ZM22 54L22 56L23 56L23 54ZM55 54L55 55L57 55L57 54ZM36 56L36 57L37 57L37 56ZM56 56L56 57L57 57L57 56ZM0 0L0 7L7 7L7 0ZM1 1L1 6L6 6L6 1ZM2 2L2 5L5 5L5 2ZM50 0L50 7L57 7L57 0ZM51 1L51 6L56 6L56 1ZM52 2L52 5L55 5L55 2ZM0 50L0 57L7 57L7 50ZM1 51L1 56L6 56L6 51ZM2 52L2 55L5 55L5 52Z" fill="#000000"/></g></g></svg>
