<?xml version="1.0" encoding="UTF-8"?>
<svg xmlns="http://www.w3.org/2000/svg" version="1.1" width="300" height="300" viewBox="0 0 300 300"><rect x="0" y="0" width="300" height="300" fill="#fefefe"/><g transform="scale(4.615)"><g transform="translate(4,4)"><path fill-rule="evenodd" d="M8 0L8 4L9 4L9 1L11 1L11 2L10 2L10 8L9 8L9 9L10 9L10 10L9 10L9 11L8 11L8 9L7 9L7 8L4 8L4 9L3 9L3 10L2 10L2 8L0 8L0 10L2 10L2 11L3 11L3 10L4 10L4 12L0 12L0 19L1 19L1 20L2 20L2 19L3 19L3 20L4 20L4 19L7 19L7 18L6 18L6 17L7 17L7 16L8 16L8 15L9 15L9 16L10 16L10 17L8 17L8 19L11 19L11 20L10 20L10 22L9 22L9 20L6 20L6 21L2 21L2 22L3 22L3 23L1 23L1 24L0 24L0 25L1 25L1 26L0 26L0 27L1 27L1 26L2 26L2 25L3 25L3 23L4 23L4 29L3 29L3 28L0 28L0 29L3 29L3 30L2 30L2 32L0 32L0 34L1 34L1 33L2 33L2 34L3 34L3 35L2 35L2 36L1 36L1 35L0 35L0 39L1 39L1 38L2 38L2 37L3 37L3 39L4 39L4 40L2 40L2 41L0 41L0 44L2 44L2 45L0 45L0 48L5 48L5 47L7 47L7 48L6 48L6 49L7 49L7 48L8 48L8 47L9 47L9 49L8 49L8 50L9 50L9 51L8 51L8 53L9 53L9 54L10 54L10 55L12 55L12 56L11 56L11 57L12 57L12 56L13 56L13 57L15 57L15 56L14 56L14 55L13 55L13 54L12 54L12 52L13 52L13 53L14 53L14 49L13 49L13 48L14 48L14 47L16 47L16 48L15 48L15 51L16 51L16 52L17 52L17 53L15 53L15 55L16 55L16 54L17 54L17 57L20 57L20 56L19 56L19 55L20 55L20 54L21 54L21 57L22 57L22 54L21 54L21 53L22 53L22 52L24 52L24 53L23 53L23 55L24 55L24 56L23 56L23 57L25 57L25 54L26 54L26 57L27 57L27 54L26 54L26 53L28 53L28 57L29 57L29 55L30 55L30 57L34 57L34 53L33 53L33 51L34 51L34 52L35 52L35 57L37 57L37 56L36 56L36 54L37 54L37 53L38 53L38 55L39 55L39 57L40 57L40 54L41 54L41 55L42 55L42 56L41 56L41 57L43 57L43 56L44 56L44 57L45 57L45 56L46 56L46 57L47 57L47 56L49 56L49 57L50 57L50 55L51 55L51 56L53 56L53 57L54 57L54 56L53 56L53 50L54 50L54 51L55 51L55 52L54 52L54 53L55 53L55 54L57 54L57 52L56 52L56 45L57 45L57 43L56 43L56 42L57 42L57 40L54 40L54 41L53 41L53 40L52 40L52 39L53 39L53 38L54 38L54 39L57 39L57 38L55 38L55 36L53 36L53 35L56 35L56 36L57 36L57 35L56 35L56 34L57 34L57 33L56 33L56 30L55 30L55 29L57 29L57 28L56 28L56 27L55 27L55 29L54 29L54 28L53 28L53 27L54 27L54 26L55 26L55 24L56 24L56 25L57 25L57 24L56 24L56 20L57 20L57 19L56 19L56 18L57 18L57 15L56 15L56 13L57 13L57 11L56 11L56 10L57 10L57 8L53 8L53 9L55 9L55 13L54 13L54 12L53 12L53 13L52 13L52 14L51 14L51 12L52 12L52 11L54 11L54 10L52 10L52 8L51 8L51 9L49 9L49 8L46 8L46 7L47 7L47 5L48 5L48 0L46 0L46 1L47 1L47 2L45 2L45 0L41 0L41 1L40 1L40 2L38 2L38 1L39 1L39 0L38 0L38 1L37 1L37 2L36 2L36 0L35 0L35 1L34 1L34 0L33 0L33 1L32 1L32 3L31 3L31 4L30 4L30 3L28 3L28 2L30 2L30 1L31 1L31 0L28 0L28 1L27 1L27 0L26 0L26 1L25 1L25 0L23 0L23 3L22 3L22 4L21 4L21 6L20 6L20 5L19 5L19 6L18 6L18 7L19 7L19 8L18 8L18 9L17 9L17 6L16 6L16 5L15 5L15 4L14 4L14 1L16 1L16 0L14 0L14 1L12 1L12 0ZM18 0L18 2L17 2L17 3L16 3L16 2L15 2L15 3L16 3L16 4L17 4L17 5L18 5L18 3L21 3L21 2L22 2L22 1L21 1L21 0L20 0L20 1L19 1L19 0ZM20 1L20 2L21 2L21 1ZM26 1L26 2L25 2L25 3L23 3L23 5L22 5L22 6L21 6L21 7L22 7L22 6L23 6L23 7L24 7L24 8L22 8L22 9L21 9L21 10L20 10L20 8L19 8L19 9L18 9L18 11L17 11L17 9L16 9L16 8L15 8L15 9L16 9L16 11L15 11L15 12L14 12L14 11L13 11L13 13L15 13L15 14L17 14L17 16L15 16L15 17L16 17L16 18L14 18L14 15L13 15L13 14L12 14L12 13L11 13L11 16L12 16L12 17L13 17L13 18L11 18L11 19L12 19L12 21L13 21L13 23L10 23L10 25L9 25L9 24L8 24L8 25L9 25L9 26L10 26L10 25L11 25L11 27L10 27L10 28L9 28L9 29L11 29L11 31L10 31L10 32L9 32L9 31L6 31L6 32L7 32L7 33L5 33L5 32L4 32L4 31L3 31L3 33L4 33L4 35L3 35L3 36L5 36L5 37L6 37L6 38L7 38L7 37L8 37L8 39L9 39L9 38L11 38L11 37L12 37L12 36L10 36L10 32L11 32L11 35L14 35L14 38L13 38L13 39L10 39L10 40L9 40L9 41L8 41L8 40L7 40L7 39L5 39L5 38L4 38L4 39L5 39L5 40L7 40L7 41L4 41L4 44L5 44L5 43L6 43L6 44L7 44L7 45L6 45L6 46L9 46L9 45L10 45L10 48L11 48L11 47L12 47L12 48L13 48L13 47L12 47L12 45L13 45L13 43L14 43L14 42L15 42L15 41L16 41L16 43L15 43L15 44L17 44L17 45L16 45L16 46L17 46L17 45L18 45L18 44L19 44L19 42L20 42L20 43L22 43L22 44L24 44L24 45L25 45L25 43L28 43L28 44L29 44L29 45L26 45L26 46L25 46L25 47L24 47L24 46L23 46L23 45L21 45L21 44L20 44L20 45L19 45L19 46L18 46L18 48L19 48L19 49L21 49L21 51L22 51L22 49L23 49L23 48L24 48L24 49L25 49L25 53L24 53L24 54L25 54L25 53L26 53L26 49L25 49L25 47L26 47L26 48L27 48L27 47L26 47L26 46L28 46L28 47L29 47L29 48L31 48L31 49L32 49L32 50L33 50L33 49L34 49L34 50L35 50L35 52L36 52L36 49L35 49L35 48L33 48L33 47L32 47L32 46L33 46L33 45L31 45L31 44L29 44L29 43L31 43L31 41L32 41L32 43L33 43L33 44L35 44L35 43L33 43L33 41L32 41L32 40L33 40L33 39L31 39L31 38L33 38L33 37L34 37L34 38L35 38L35 39L34 39L34 42L35 42L35 39L37 39L37 42L38 42L38 39L40 39L40 38L38 38L38 37L37 37L37 38L35 38L35 37L34 37L34 36L35 36L35 33L34 33L34 32L35 32L35 31L36 31L36 30L35 30L35 27L36 27L36 28L37 28L37 29L38 29L38 28L37 28L37 27L39 27L39 28L40 28L40 29L39 29L39 32L40 32L40 33L39 33L39 34L38 34L38 33L37 33L37 34L38 34L38 36L39 36L39 37L41 37L41 36L43 36L43 37L44 37L44 38L43 38L43 39L45 39L45 41L46 41L46 43L44 43L44 41L43 41L43 40L42 40L42 41L43 41L43 42L42 42L42 44L43 44L43 46L44 46L44 44L45 44L45 45L46 45L46 47L47 47L47 48L46 48L46 50L45 50L45 51L46 51L46 52L45 52L45 53L44 53L44 52L43 52L43 53L44 53L44 56L45 56L45 53L46 53L46 56L47 56L47 55L49 55L49 54L51 54L51 55L52 55L52 54L51 54L51 53L49 53L49 54L48 54L48 52L47 52L47 51L46 51L46 50L47 50L47 49L48 49L48 47L49 47L49 45L50 45L50 47L51 47L51 45L52 45L52 47L53 47L53 48L55 48L55 47L54 47L54 46L53 46L53 45L52 45L52 43L53 43L53 44L54 44L54 45L56 45L56 44L55 44L55 42L56 42L56 41L55 41L55 42L54 42L54 43L53 43L53 41L52 41L52 40L47 40L47 39L49 39L49 38L50 38L50 39L51 39L51 37L52 37L52 38L53 38L53 36L51 36L51 37L49 37L49 36L50 36L50 35L53 35L53 34L54 34L54 33L51 33L51 31L49 31L49 32L50 32L50 35L49 35L49 33L48 33L48 31L47 31L47 29L46 29L46 28L47 28L47 27L48 27L48 26L47 26L47 25L48 25L48 23L49 23L49 24L50 24L50 25L49 25L49 26L50 26L50 25L51 25L51 26L53 26L53 25L54 25L54 24L55 24L55 23L54 23L54 22L55 22L55 20L56 20L56 19L55 19L55 17L56 17L56 16L55 16L55 15L53 15L53 14L54 14L54 13L53 13L53 14L52 14L52 15L50 15L50 11L48 11L48 10L47 10L47 9L45 9L45 11L44 11L44 8L45 8L45 7L46 7L46 5L47 5L47 3L44 3L44 2L43 2L43 3L44 3L44 4L43 4L43 7L42 7L42 6L41 6L41 5L39 5L39 7L40 7L40 6L41 6L41 8L40 8L40 9L42 9L42 8L43 8L43 10L42 10L42 11L44 11L44 12L41 12L41 11L39 11L39 12L37 12L37 11L38 11L38 8L37 8L37 9L35 9L35 7L36 7L36 5L37 5L37 7L38 7L38 4L40 4L40 3L41 3L41 2L40 2L40 3L38 3L38 2L37 2L37 3L36 3L36 2L35 2L35 4L34 4L34 3L32 3L32 5L35 5L35 7L34 7L34 6L33 6L33 7L32 7L32 6L31 6L31 10L28 10L28 9L26 9L26 6L25 6L25 7L24 7L24 6L23 6L23 5L24 5L24 4L25 4L25 3L26 3L26 4L28 4L28 3L27 3L27 1ZM33 1L33 2L34 2L34 1ZM11 2L11 4L12 4L12 5L11 5L11 8L10 8L10 9L11 9L11 10L10 10L10 12L12 12L12 10L13 10L13 9L14 9L14 6L15 6L15 7L16 7L16 6L15 6L15 5L14 5L14 6L13 6L13 4L12 4L12 2ZM37 3L37 4L38 4L38 3ZM35 4L35 5L36 5L36 4ZM44 4L44 7L43 7L43 8L44 8L44 7L45 7L45 4ZM8 5L8 7L9 7L9 5ZM27 5L27 8L30 8L30 5ZM12 6L12 7L13 7L13 6ZM19 6L19 7L20 7L20 6ZM28 6L28 7L29 7L29 6ZM48 6L48 7L49 7L49 6ZM33 7L33 8L32 8L32 11L29 11L29 12L32 12L32 13L30 13L30 15L31 15L31 14L32 14L32 15L33 15L33 16L32 16L32 17L31 17L31 16L29 16L29 13L27 13L27 14L25 14L25 13L26 13L26 11L27 11L27 12L28 12L28 10L25 10L25 8L24 8L24 9L23 9L23 10L25 10L25 11L24 11L24 13L23 13L23 12L22 12L22 11L20 11L20 10L19 10L19 12L18 12L18 13L17 13L17 11L16 11L16 12L15 12L15 13L17 13L17 14L19 14L19 13L20 13L20 14L21 14L21 15L20 15L20 16L19 16L19 15L18 15L18 16L17 16L17 18L16 18L16 19L15 19L15 20L14 20L14 19L13 19L13 21L14 21L14 23L13 23L13 24L12 24L12 27L11 27L11 28L13 28L13 29L12 29L12 31L11 31L11 32L14 32L14 33L13 33L13 34L14 34L14 35L15 35L15 34L14 34L14 33L17 33L17 35L16 35L16 36L15 36L15 37L16 37L16 36L17 36L17 38L16 38L16 39L15 39L15 40L14 40L14 41L13 41L13 42L12 42L12 40L10 40L10 41L9 41L9 42L8 42L8 43L9 43L9 42L10 42L10 43L11 43L11 44L10 44L10 45L12 45L12 43L13 43L13 42L14 42L14 41L15 41L15 40L16 40L16 41L17 41L17 43L18 43L18 41L19 41L19 40L20 40L20 42L22 42L22 40L24 40L24 39L23 39L23 38L22 38L22 36L23 36L23 37L24 37L24 38L25 38L25 39L27 39L27 40L25 40L25 41L23 41L23 43L25 43L25 42L26 42L26 41L27 41L27 42L28 42L28 43L29 43L29 42L30 42L30 41L31 41L31 39L29 39L29 38L28 38L28 39L27 39L27 37L28 37L28 36L29 36L29 37L31 37L31 36L32 36L32 37L33 37L33 35L31 35L31 36L30 36L30 34L31 34L31 33L29 33L29 32L31 32L31 30L32 30L32 29L33 29L33 32L32 32L32 33L33 33L33 32L34 32L34 27L33 27L33 26L34 26L34 25L37 25L37 24L34 24L34 23L35 23L35 22L37 22L37 23L38 23L38 26L40 26L40 25L39 25L39 23L38 23L38 22L39 22L39 21L40 21L40 22L43 22L43 24L44 24L44 25L41 25L41 27L40 27L40 28L41 28L41 27L42 27L42 28L43 28L43 26L44 26L44 25L45 25L45 27L44 27L44 29L41 29L41 30L40 30L40 32L41 32L41 33L40 33L40 34L42 34L42 35L43 35L43 33L45 33L45 34L46 34L46 35L47 35L47 36L49 36L49 35L48 35L48 34L46 34L46 33L47 33L47 32L45 32L45 31L46 31L46 30L44 30L44 29L45 29L45 27L47 27L47 26L46 26L46 24L47 24L47 23L46 23L46 21L47 21L47 22L50 22L50 23L52 23L52 24L51 24L51 25L52 25L52 24L53 24L53 23L52 23L52 22L54 22L54 21L52 21L52 20L53 20L53 19L51 19L51 18L53 18L53 17L55 17L55 16L53 16L53 15L52 15L52 16L50 16L50 15L48 15L48 16L49 16L49 17L47 17L47 15L46 15L46 11L45 11L45 12L44 12L44 15L43 15L43 13L41 13L41 17L40 17L40 12L39 12L39 13L38 13L38 15L39 15L39 17L38 17L38 16L37 16L37 15L35 15L35 17L38 17L38 18L39 18L39 19L38 19L38 22L37 22L37 18L34 18L34 13L33 13L33 12L32 12L32 11L33 11L33 10L34 10L34 12L35 12L35 13L36 13L36 14L37 14L37 12L35 12L35 11L36 11L36 10L34 10L34 9L33 9L33 8L34 8L34 7ZM11 8L11 9L12 9L12 8ZM4 9L4 10L5 10L5 11L6 11L6 12L4 12L4 13L1 13L1 15L2 15L2 17L1 17L1 18L2 18L2 17L3 17L3 19L4 19L4 18L5 18L5 17L4 17L4 15L6 15L6 16L7 16L7 15L8 15L8 14L7 14L7 13L6 13L6 12L7 12L7 11L6 11L6 10L7 10L7 9ZM8 12L8 13L9 13L9 14L10 14L10 13L9 13L9 12ZM20 12L20 13L21 13L21 14L22 14L22 15L21 15L21 17L26 17L26 18L27 18L27 19L26 19L26 20L25 20L25 18L24 18L24 19L23 19L23 18L22 18L22 19L23 19L23 20L21 20L21 18L20 18L20 17L18 17L18 19L19 19L19 21L18 21L18 20L15 20L15 21L18 21L18 23L19 23L19 24L20 24L20 25L19 25L19 28L18 28L18 29L15 29L15 28L14 28L14 29L13 29L13 31L14 31L14 32L15 32L15 31L14 31L14 30L16 30L16 32L17 32L17 30L18 30L18 29L19 29L19 31L18 31L18 32L19 32L19 33L18 33L18 34L19 34L19 35L17 35L17 36L20 36L20 35L21 35L21 36L22 36L22 34L23 34L23 33L26 33L26 34L27 34L27 36L28 36L28 34L29 34L29 33L28 33L28 34L27 34L27 33L26 33L26 31L24 31L24 30L23 30L23 29L24 29L24 28L22 28L22 27L21 27L21 29L22 29L22 30L20 30L20 25L24 25L24 23L23 23L23 22L20 22L20 23L19 23L19 21L20 21L20 20L21 20L21 21L24 21L24 22L25 22L25 23L26 23L26 22L27 22L27 24L28 24L28 25L27 25L27 26L29 26L29 25L31 25L31 27L32 27L32 28L31 28L31 29L32 29L32 28L33 28L33 27L32 27L32 23L33 23L33 22L31 22L31 24L28 24L28 22L29 22L29 23L30 23L30 22L29 22L29 21L30 21L30 20L31 20L31 21L32 21L32 20L31 20L31 19L30 19L30 18L28 18L28 17L26 17L26 16L27 16L27 15L28 15L28 14L27 14L27 15L26 15L26 16L24 16L24 15L25 15L25 14L23 14L23 13L21 13L21 12ZM5 13L5 14L6 14L6 15L7 15L7 14L6 14L6 13ZM32 13L32 14L33 14L33 13ZM47 13L47 14L49 14L49 13ZM12 15L12 16L13 16L13 15ZM22 15L22 16L23 16L23 15ZM42 15L42 17L43 17L43 18L42 18L42 19L41 19L41 18L40 18L40 17L39 17L39 18L40 18L40 21L42 21L42 20L43 20L43 22L44 22L44 24L46 24L46 23L45 23L45 22L44 22L44 16L45 16L45 17L46 17L46 19L45 19L45 21L46 21L46 20L47 20L47 21L48 21L48 20L49 20L49 21L51 21L51 22L52 22L52 21L51 21L51 20L49 20L49 19L50 19L50 17L49 17L49 18L48 18L48 19L47 19L47 17L46 17L46 15L44 15L44 16L43 16L43 15ZM52 16L52 17L53 17L53 16ZM32 17L32 18L33 18L33 21L34 21L34 22L35 22L35 20L36 20L36 19L35 19L35 20L34 20L34 18L33 18L33 17ZM27 19L27 20L26 20L26 21L28 21L28 20L29 20L29 19ZM24 20L24 21L25 21L25 20ZM0 21L0 22L1 22L1 21ZM6 21L6 22L7 22L7 21ZM8 22L8 23L9 23L9 22ZM16 22L16 23L14 23L14 25L16 25L16 28L17 28L17 27L18 27L18 25L17 25L17 22ZM5 23L5 26L7 26L7 25L6 25L6 24L7 24L7 23ZM22 23L22 24L23 24L23 23ZM1 24L1 25L2 25L2 24ZM33 24L33 25L34 25L34 24ZM25 25L25 26L23 26L23 27L26 27L26 25ZM14 26L14 27L15 27L15 26ZM36 26L36 27L37 27L37 26ZM5 27L5 30L8 30L8 27ZM27 27L27 30L30 30L30 27ZM49 27L49 30L52 30L52 27ZM6 28L6 29L7 29L7 28ZM28 28L28 29L29 29L29 28ZM50 28L50 29L51 29L51 28ZM25 29L25 30L26 30L26 29ZM53 29L53 30L54 30L54 29ZM22 30L22 31L21 31L21 33L19 33L19 34L21 34L21 33L22 33L22 31L23 31L23 30ZM37 30L37 32L38 32L38 30ZM43 30L43 31L44 31L44 30ZM19 31L19 32L20 32L20 31ZM52 31L52 32L55 32L55 31ZM8 32L8 33L9 33L9 32ZM55 33L55 34L56 34L56 33ZM6 34L6 35L7 35L7 36L6 36L6 37L7 37L7 36L9 36L9 37L10 37L10 36L9 36L9 35L7 35L7 34ZM24 34L24 36L25 36L25 37L26 37L26 36L25 36L25 34ZM39 35L39 36L40 36L40 35ZM44 35L44 37L45 37L45 38L46 38L46 39L47 39L47 38L48 38L48 37L47 37L47 38L46 38L46 37L45 37L45 35ZM18 37L18 38L19 38L19 39L17 39L17 41L18 41L18 40L19 40L19 39L20 39L20 38L21 38L21 37ZM41 38L41 39L42 39L42 38ZM21 39L21 40L22 40L22 39ZM28 40L28 42L29 42L29 40ZM40 40L40 42L39 42L39 44L37 44L37 43L36 43L36 44L37 44L37 46L38 46L38 45L39 45L39 44L40 44L40 45L41 45L41 44L40 44L40 43L41 43L41 40ZM46 40L46 41L47 41L47 40ZM10 41L10 42L11 42L11 43L12 43L12 42L11 42L11 41ZM48 41L48 42L49 42L49 43L47 43L47 44L46 44L46 45L47 45L47 44L49 44L49 43L50 43L50 45L51 45L51 43L52 43L52 41L51 41L51 43L50 43L50 42L49 42L49 41ZM6 42L6 43L7 43L7 42ZM43 43L43 44L44 44L44 43ZM8 44L8 45L9 45L9 44ZM2 45L2 46L1 46L1 47L2 47L2 46L3 46L3 47L5 47L5 46L3 46L3 45ZM20 45L20 46L19 46L19 48L20 48L20 46L21 46L21 47L22 47L22 48L21 48L21 49L22 49L22 48L23 48L23 47L22 47L22 46L21 46L21 45ZM29 45L29 46L30 46L30 45ZM34 45L34 47L36 47L36 48L37 48L37 47L36 47L36 45ZM39 46L39 47L38 47L38 49L37 49L37 51L38 51L38 49L39 49L39 47L40 47L40 51L39 51L39 52L38 52L38 53L39 53L39 52L40 52L40 53L41 53L41 46ZM47 46L47 47L48 47L48 46ZM31 47L31 48L32 48L32 49L33 49L33 48L32 48L32 47ZM42 47L42 49L44 49L44 47ZM16 48L16 50L17 50L17 51L19 51L19 53L17 53L17 54L18 54L18 55L19 55L19 53L20 53L20 51L19 51L19 50L17 50L17 48ZM9 49L9 50L10 50L10 51L11 51L11 50L13 50L13 49ZM27 49L27 52L30 52L30 49ZM49 49L49 52L52 52L52 49ZM28 50L28 51L29 51L29 50ZM42 50L42 51L44 51L44 50ZM50 50L50 51L51 51L51 50ZM31 51L31 52L32 52L32 51ZM10 52L10 54L11 54L11 52ZM46 52L46 53L47 53L47 52ZM55 52L55 53L56 53L56 52ZM30 53L30 54L31 54L31 53ZM32 53L32 54L33 54L33 53ZM42 54L42 55L43 55L43 54ZM8 55L8 57L9 57L9 55ZM56 56L56 57L57 57L57 56ZM0 0L0 7L7 7L7 0ZM1 1L1 6L6 6L6 1ZM2 2L2 5L5 5L5 2ZM50 0L50 7L57 7L57 0ZM51 1L51 6L56 6L56 1ZM52 2L52 5L55 5L55 2ZM0 50L0 57L7 57L7 50ZM1 51L1 56L6 56L6 51ZM2 52L2 55L5 55L5 52Z" fill="#000000"/></g></g></svg>
