<?xml version="1.0" encoding="UTF-8"?>
<svg xmlns="http://www.w3.org/2000/svg" version="1.1" width="300" height="300" viewBox="0 0 300 300"><rect x="0" y="0" width="300" height="300" fill="#fefefe"/><g transform="scale(4.615)"><g transform="translate(4,4)"><path fill-rule="evenodd" d="M10 0L10 1L11 1L11 0ZM13 0L13 1L12 1L12 2L9 2L9 1L8 1L8 3L9 3L9 4L8 4L8 8L6 8L6 9L4 9L4 8L3 8L3 9L4 9L4 13L3 13L3 12L1 12L1 11L2 11L2 8L0 8L0 12L1 12L1 14L0 14L0 15L1 15L1 14L4 14L4 13L5 13L5 15L3 15L3 16L0 16L0 18L1 18L1 17L3 17L3 20L4 20L4 18L5 18L5 19L10 19L10 21L9 21L9 22L6 22L6 23L5 23L5 24L4 24L4 23L3 23L3 25L2 25L2 26L1 26L1 24L0 24L0 26L1 26L1 27L2 27L2 26L4 26L4 28L3 28L3 29L2 29L2 28L0 28L0 30L1 30L1 31L0 31L0 32L1 32L1 33L0 33L0 34L1 34L1 33L2 33L2 30L4 30L4 31L3 31L3 32L5 32L5 31L8 31L8 32L9 32L9 34L5 34L5 33L3 33L3 34L4 34L4 37L3 37L3 39L4 39L4 40L5 40L5 39L7 39L7 40L6 40L6 41L0 41L0 42L1 42L1 43L4 43L4 44L3 44L3 46L2 46L2 44L1 44L1 46L0 46L0 48L5 48L5 47L7 47L7 46L6 46L6 45L8 45L8 48L9 48L9 49L8 49L8 51L9 51L9 53L8 53L8 54L10 54L10 55L11 55L11 56L9 56L9 55L8 55L8 57L11 57L11 56L14 56L14 57L17 57L17 56L14 56L14 55L12 55L12 54L15 54L15 52L16 52L16 50L17 50L17 51L18 51L18 50L19 50L19 52L17 52L17 53L16 53L16 54L17 54L17 55L18 55L18 54L19 54L19 55L22 55L22 57L23 57L23 54L25 54L25 55L24 55L24 57L26 57L26 55L27 55L27 56L28 56L28 55L29 55L29 54L31 54L31 52L32 52L32 54L33 54L33 53L35 53L35 54L34 54L34 55L35 55L35 56L36 56L36 57L38 57L38 56L39 56L39 57L41 57L41 56L42 56L42 57L44 57L44 56L43 56L43 55L44 55L44 53L45 53L45 56L46 56L46 57L47 57L47 56L48 56L48 57L50 57L50 55L49 55L49 53L52 53L52 55L51 55L51 56L52 56L52 57L53 57L53 54L56 54L56 55L57 55L57 51L56 51L56 50L57 50L57 48L56 48L56 47L57 47L57 45L56 45L56 44L55 44L55 46L56 46L56 47L55 47L55 48L54 48L54 46L53 46L53 47L52 47L52 44L51 44L51 43L53 43L53 42L54 42L54 43L57 43L57 40L56 40L56 39L57 39L57 37L56 37L56 36L55 36L55 37L53 37L53 36L54 36L54 34L55 34L55 33L54 33L54 34L52 34L52 33L51 33L51 32L53 32L53 29L54 29L54 30L55 30L55 31L56 31L56 33L57 33L57 29L54 29L54 28L53 28L53 27L56 27L56 26L57 26L57 25L56 25L56 24L55 24L55 25L56 25L56 26L52 26L52 25L54 25L54 23L55 23L55 22L56 22L56 23L57 23L57 21L56 21L56 20L57 20L57 18L55 18L55 17L56 17L56 16L53 16L53 15L54 15L54 14L55 14L55 15L56 15L56 14L57 14L57 13L56 13L56 14L55 14L55 13L54 13L54 11L55 11L55 12L56 12L56 11L57 11L57 10L56 10L56 8L54 8L54 9L53 9L53 8L50 8L50 9L51 9L51 11L50 11L50 10L47 10L47 11L48 11L48 12L46 12L46 11L44 11L44 10L45 10L45 9L47 9L47 8L48 8L48 9L49 9L49 8L48 8L48 7L49 7L49 6L48 6L48 7L47 7L47 5L48 5L48 0L45 0L45 1L44 1L44 2L43 2L43 0L41 0L41 2L42 2L42 3L43 3L43 4L42 4L42 5L41 5L41 6L40 6L40 8L38 8L38 9L39 9L39 11L38 11L38 10L37 10L37 12L35 12L35 13L34 13L34 14L35 14L35 15L34 15L34 16L33 16L33 15L32 15L32 13L33 13L33 12L34 12L34 11L33 11L33 10L30 10L30 11L27 11L27 10L29 10L29 9L31 9L31 8L32 8L32 7L33 7L33 9L35 9L35 8L36 8L36 9L37 9L37 6L38 6L38 7L39 7L39 6L38 6L38 5L40 5L40 4L38 4L38 2L39 2L39 3L40 3L40 1L39 1L39 0L37 0L37 1L38 1L38 2L37 2L37 4L36 4L36 5L37 5L37 6L36 6L36 7L35 7L35 5L34 5L34 7L33 7L33 6L32 6L32 7L31 7L31 2L29 2L29 4L28 4L28 2L27 2L27 4L24 4L24 5L23 5L23 6L22 6L22 4L21 4L21 6L20 6L20 5L18 5L18 3L19 3L19 4L20 4L20 3L21 3L21 2L22 2L22 1L21 1L21 0ZM23 0L23 2L24 2L24 3L25 3L25 2L26 2L26 1L33 1L33 2L32 2L32 3L34 3L34 1L35 1L35 2L36 2L36 0ZM14 1L14 2L15 2L15 3L11 3L11 4L9 4L9 7L10 7L10 5L11 5L11 8L10 8L10 9L9 9L9 8L8 8L8 9L9 9L9 10L11 10L11 11L9 11L9 12L7 12L7 11L5 11L5 13L6 13L6 14L7 14L7 13L8 13L8 15L5 15L5 18L8 18L8 16L10 16L10 17L11 17L11 15L12 15L12 19L11 19L11 21L12 21L12 22L14 22L14 23L13 23L13 24L14 24L14 27L15 27L15 29L14 29L14 28L12 28L12 30L14 30L14 32L13 32L13 31L11 31L11 28L10 28L10 27L9 27L9 30L10 30L10 31L9 31L9 32L12 32L12 34L11 34L11 35L10 35L10 34L9 34L9 36L7 36L7 35L6 35L6 36L7 36L7 37L6 37L6 38L7 38L7 39L8 39L8 40L7 40L7 41L6 41L6 42L5 42L5 43L6 43L6 44L4 44L4 45L6 45L6 44L7 44L7 43L6 43L6 42L7 42L7 41L8 41L8 42L9 42L9 43L8 43L8 45L11 45L11 43L10 43L10 40L11 40L11 42L12 42L12 43L14 43L14 44L12 44L12 45L13 45L13 46L9 46L9 48L10 48L10 49L11 49L11 47L13 47L13 46L14 46L14 48L12 48L12 50L10 50L10 51L11 51L11 52L10 52L10 53L11 53L11 54L12 54L12 53L14 53L14 51L12 51L12 50L15 50L15 48L16 48L16 49L17 49L17 48L21 48L21 47L23 47L23 49L22 49L22 50L23 50L23 51L22 51L22 53L24 53L24 52L23 52L23 51L24 51L24 50L25 50L25 51L26 51L26 50L25 50L25 49L26 49L26 48L24 48L24 47L25 47L25 44L26 44L26 42L27 42L27 41L26 41L26 42L25 42L25 39L24 39L24 38L26 38L26 39L27 39L27 38L26 38L26 37L27 37L27 35L28 35L28 36L29 36L29 39L28 39L28 40L29 40L29 39L30 39L30 41L28 41L28 42L31 42L31 43L32 43L32 45L30 45L30 43L29 43L29 44L28 44L28 43L27 43L27 44L28 44L28 46L27 46L27 45L26 45L26 47L28 47L28 48L32 48L32 47L34 47L34 48L33 48L33 51L34 51L34 52L35 52L35 51L36 51L36 50L35 50L35 51L34 51L34 49L35 49L35 48L36 48L36 47L34 47L34 46L35 46L35 45L36 45L36 46L38 46L38 47L37 47L37 49L38 49L38 50L37 50L37 54L36 54L36 56L38 56L38 55L37 55L37 54L38 54L38 51L39 51L39 52L40 52L40 53L39 53L39 54L40 54L40 55L39 55L39 56L41 56L41 55L43 55L43 52L44 52L44 51L45 51L45 52L46 52L46 55L47 55L47 54L48 54L48 52L47 52L47 51L48 51L48 50L46 50L46 49L45 49L45 50L43 50L43 49L42 49L42 47L43 47L43 45L42 45L42 46L40 46L40 45L39 45L39 44L41 44L41 43L42 43L42 44L44 44L44 45L46 45L46 46L45 46L45 47L46 47L46 46L47 46L47 47L48 47L48 48L47 48L47 49L48 49L48 48L51 48L51 47L49 47L49 46L50 46L50 44L49 44L49 45L46 45L46 44L45 44L45 42L44 42L44 39L45 39L45 40L47 40L47 41L46 41L46 43L47 43L47 44L48 44L48 38L47 38L47 39L46 39L46 37L48 37L48 36L45 36L45 35L48 35L48 33L50 33L50 34L49 34L49 35L50 35L50 34L51 34L51 35L52 35L52 34L51 34L51 33L50 33L50 32L51 32L51 31L48 31L48 26L49 26L49 25L50 25L50 26L51 26L51 24L53 24L53 22L54 22L54 21L55 21L55 20L56 20L56 19L55 19L55 18L54 18L54 17L53 17L53 16L52 16L52 15L53 15L53 13L52 13L52 12L51 12L51 13L50 13L50 14L52 14L52 15L49 15L49 12L50 12L50 11L49 11L49 12L48 12L48 15L47 15L47 14L44 14L44 15L43 15L43 13L42 13L42 12L43 12L43 11L42 11L42 10L44 10L44 9L45 9L45 8L47 8L47 7L46 7L46 5L47 5L47 3L46 3L46 2L47 2L47 1L45 1L45 3L44 3L44 4L45 4L45 5L44 5L44 6L43 6L43 7L42 7L42 6L41 6L41 11L39 11L39 12L38 12L38 14L39 14L39 12L41 12L41 13L40 13L40 15L43 15L43 17L42 17L42 16L40 16L40 17L39 17L39 16L38 16L38 15L37 15L37 13L35 13L35 14L36 14L36 15L37 15L37 18L36 18L36 19L35 19L35 16L34 16L34 17L32 17L32 18L34 18L34 19L35 19L35 20L32 20L32 19L31 19L31 17L30 17L30 20L29 20L29 22L28 22L28 21L27 21L27 18L26 18L26 16L27 16L27 13L26 13L26 10L25 10L25 8L26 8L26 6L25 6L25 5L24 5L24 6L23 6L23 7L24 7L24 8L23 8L23 9L21 9L21 8L22 8L22 6L21 6L21 8L20 8L20 9L19 9L19 11L18 11L18 10L17 10L17 9L18 9L18 8L17 8L17 9L15 9L15 8L14 8L14 9L13 9L13 10L11 10L11 9L12 9L12 5L11 5L11 4L15 4L15 7L16 7L16 6L17 6L17 7L18 7L18 5L17 5L17 1L16 1L16 2L15 2L15 1ZM18 1L18 2L19 2L19 3L20 3L20 2L21 2L21 1L20 1L20 2L19 2L19 1ZM24 1L24 2L25 2L25 1ZM37 4L37 5L38 5L38 4ZM13 5L13 7L14 7L14 5ZM27 5L27 8L30 8L30 5ZM19 6L19 7L20 7L20 6ZM24 6L24 7L25 7L25 6ZM28 6L28 7L29 7L29 6ZM44 6L44 7L43 7L43 8L42 8L42 9L43 9L43 8L45 8L45 6ZM34 7L34 8L35 8L35 7ZM6 9L6 10L7 10L7 9ZM23 9L23 10L21 10L21 11L20 11L20 12L18 12L18 11L16 11L16 10L15 10L15 13L16 13L16 14L17 14L17 15L19 15L19 14L17 14L17 12L18 12L18 13L20 13L20 12L21 12L21 14L22 14L22 15L21 15L21 17L19 17L19 16L16 16L16 15L15 15L15 16L13 16L13 17L15 17L15 16L16 16L16 17L17 17L17 18L18 18L18 17L19 17L19 20L18 20L18 21L17 21L17 19L15 19L15 18L14 18L14 19L13 19L13 20L14 20L14 19L15 19L15 20L16 20L16 24L15 24L15 23L14 23L14 24L15 24L15 25L16 25L16 26L15 26L15 27L17 27L17 28L16 28L16 29L18 29L18 28L19 28L19 27L20 27L20 30L19 30L19 31L17 31L17 30L15 30L15 32L14 32L14 33L13 33L13 34L15 34L15 32L16 32L16 31L17 31L17 32L18 32L18 33L19 33L19 32L20 32L20 31L21 31L21 33L24 33L24 31L23 31L23 32L22 32L22 31L21 31L21 26L20 26L20 25L22 25L22 27L23 27L23 30L24 30L24 26L23 26L23 24L24 24L24 25L25 25L25 23L26 23L26 22L27 22L27 21L26 21L26 22L25 22L25 20L26 20L26 18L24 18L24 17L25 17L25 16L24 16L24 15L26 15L26 14L23 14L23 13L22 13L22 12L24 12L24 11L25 11L25 10L24 10L24 9ZM52 10L52 11L54 11L54 10ZM55 10L55 11L56 11L56 10ZM13 11L13 13L11 13L11 12L10 12L10 13L9 13L9 14L10 14L10 13L11 13L11 14L12 14L12 15L13 15L13 13L14 13L14 11ZM31 11L31 12L29 12L29 14L30 14L30 13L32 13L32 12L33 12L33 11ZM6 12L6 13L7 13L7 12ZM45 12L45 13L46 13L46 12ZM41 13L41 14L42 14L42 13ZM28 15L28 16L32 16L32 15ZM45 15L45 16L44 16L44 17L43 17L43 20L42 20L42 19L41 19L41 20L40 20L40 19L39 19L39 20L37 20L37 19L36 19L36 22L35 22L35 23L34 23L34 22L33 22L33 21L32 21L32 23L27 23L27 24L26 24L26 28L25 28L25 31L26 31L26 32L25 32L25 34L26 34L26 35L27 35L27 34L26 34L26 33L27 33L27 31L28 31L28 32L29 32L29 33L31 33L31 34L30 34L30 35L29 35L29 36L30 36L30 35L31 35L31 34L32 34L32 35L36 35L36 37L35 37L35 36L31 36L31 38L30 38L30 39L32 39L32 37L33 37L33 40L31 40L31 41L32 41L32 43L33 43L33 42L34 42L34 44L35 44L35 42L36 42L36 41L38 41L38 42L37 42L37 43L38 43L38 44L36 44L36 45L38 45L38 44L39 44L39 43L38 43L38 42L39 42L39 41L40 41L40 43L41 43L41 42L42 42L42 43L44 43L44 42L42 42L42 41L43 41L43 39L41 39L41 37L43 37L43 38L44 38L44 37L45 37L45 36L44 36L44 37L43 37L43 35L44 35L44 34L42 34L42 35L41 35L41 34L40 34L40 33L42 33L42 30L41 30L41 31L38 31L38 32L37 32L37 30L36 30L36 29L38 29L38 30L40 30L40 27L39 27L39 28L37 28L37 27L38 27L38 25L40 25L40 26L41 26L41 28L42 28L42 29L43 29L43 28L42 28L42 26L41 26L41 25L44 25L44 27L45 27L45 24L44 24L44 22L45 22L45 21L47 21L47 22L46 22L46 23L48 23L48 21L47 21L47 20L49 20L49 22L50 22L50 21L51 21L51 23L52 23L52 21L54 21L54 20L53 20L53 18L51 18L51 17L52 17L52 16L51 16L51 17L50 17L50 19L49 19L49 18L48 18L48 17L49 17L49 15L48 15L48 17L47 17L47 18L45 18L45 19L44 19L44 17L45 17L45 16L46 16L46 15ZM3 16L3 17L4 17L4 16ZM6 16L6 17L7 17L7 16ZM22 16L22 17L21 17L21 18L20 18L20 22L19 22L19 21L18 21L18 24L19 24L19 23L20 23L20 22L21 22L21 23L22 23L22 22L23 22L23 23L25 23L25 22L24 22L24 21L22 21L22 22L21 22L21 20L24 20L24 18L23 18L23 19L21 19L21 18L22 18L22 17L23 17L23 16ZM38 17L38 18L39 18L39 17ZM41 17L41 18L42 18L42 17ZM28 18L28 19L29 19L29 18ZM47 18L47 19L46 19L46 20L47 20L47 19L48 19L48 18ZM0 19L0 20L1 20L1 21L0 21L0 22L1 22L1 23L2 23L2 22L3 22L3 21L2 21L2 19ZM51 19L51 20L52 20L52 19ZM6 20L6 21L8 21L8 20ZM43 20L43 21L38 21L38 22L36 22L36 23L35 23L35 24L32 24L32 25L31 25L31 24L29 24L29 26L32 26L32 25L35 25L35 24L37 24L37 25L38 25L38 24L39 24L39 22L40 22L40 23L42 23L42 22L43 22L43 21L45 21L45 20ZM9 22L9 23L10 23L10 24L9 24L9 25L8 25L8 24L7 24L7 23L6 23L6 24L5 24L5 26L10 26L10 24L11 24L11 27L12 27L12 26L13 26L13 25L12 25L12 23L10 23L10 22ZM37 23L37 24L38 24L38 23ZM49 23L49 24L50 24L50 23ZM6 24L6 25L7 25L7 24ZM46 24L46 26L48 26L48 24ZM17 25L17 27L19 27L19 25ZM27 25L27 26L28 26L28 25ZM34 26L34 27L32 27L32 28L31 28L31 29L32 29L32 28L34 28L34 29L33 29L33 30L34 30L34 31L36 31L36 30L35 30L35 28L36 28L36 26ZM5 27L5 30L8 30L8 27ZM27 27L27 30L30 30L30 27ZM46 27L46 29L45 29L45 28L44 28L44 30L43 30L43 31L44 31L44 32L43 32L43 33L44 33L44 32L45 32L45 33L46 33L46 32L47 32L47 33L48 33L48 32L47 32L47 31L46 31L46 29L47 29L47 27ZM49 27L49 30L52 30L52 27ZM6 28L6 29L7 29L7 28ZM28 28L28 29L29 29L29 28ZM50 28L50 29L51 29L51 28ZM44 30L44 31L45 31L45 30ZM29 31L29 32L32 32L32 34L33 34L33 31ZM6 32L6 33L7 33L7 32ZM34 32L34 34L35 34L35 33L36 33L36 34L37 34L37 35L38 35L38 34L39 34L39 32L38 32L38 33L36 33L36 32ZM16 34L16 35L15 35L15 36L14 36L14 35L12 35L12 37L11 37L11 36L10 36L10 37L9 37L9 38L11 38L11 39L12 39L12 40L13 40L13 38L14 38L14 40L15 40L15 41L13 41L13 42L14 42L14 43L15 43L15 44L16 44L16 43L17 43L17 42L16 42L16 41L18 41L18 43L19 43L19 44L17 44L17 45L20 45L20 43L21 43L21 46L22 46L22 42L21 42L21 41L22 41L22 40L23 40L23 41L24 41L24 39L23 39L23 38L24 38L24 37L25 37L25 35L24 35L24 34L23 34L23 35L22 35L22 34L19 34L19 35L20 35L20 37L19 37L19 36L18 36L18 35L17 35L17 34ZM56 34L56 35L57 35L57 34ZM0 35L0 36L1 36L1 37L2 37L2 35ZM16 35L16 36L17 36L17 35ZM23 35L23 36L24 36L24 35ZM39 35L39 36L40 36L40 35ZM13 36L13 37L12 37L12 38L13 38L13 37L14 37L14 36ZM37 36L37 37L38 37L38 38L34 38L34 39L35 39L35 40L34 40L34 42L35 42L35 41L36 41L36 39L40 39L40 41L41 41L41 39L40 39L40 37L38 37L38 36ZM50 36L50 37L49 37L49 38L50 38L50 39L49 39L49 40L51 40L51 42L53 42L53 41L54 41L54 42L55 42L55 41L54 41L54 40L55 40L55 39L52 39L52 36ZM4 37L4 38L5 38L5 37ZM22 37L22 38L23 38L23 37ZM50 37L50 38L51 38L51 37ZM55 37L55 38L56 38L56 37ZM0 38L0 39L1 39L1 40L2 40L2 39L1 39L1 38ZM18 38L18 39L16 39L16 40L20 40L20 38ZM9 39L9 40L8 40L8 41L9 41L9 40L10 40L10 39ZM21 39L21 40L22 40L22 39ZM38 40L38 41L39 41L39 40ZM19 41L19 42L20 42L20 41ZM49 41L49 43L50 43L50 41ZM23 42L23 44L25 44L25 42ZM9 43L9 44L10 44L10 43ZM14 45L14 46L15 46L15 47L17 47L17 46L15 46L15 45ZM23 45L23 46L24 46L24 45ZM29 45L29 47L31 47L31 46L30 46L30 45ZM32 45L32 46L33 46L33 45ZM1 46L1 47L2 47L2 46ZM3 46L3 47L5 47L5 46ZM39 46L39 47L38 47L38 48L39 48L39 51L40 51L40 52L43 52L43 50L42 50L42 51L41 51L41 50L40 50L40 49L41 49L41 47L40 47L40 46ZM6 48L6 49L7 49L7 48ZM20 49L20 52L19 52L19 53L20 53L20 52L21 52L21 49ZM27 49L27 52L30 52L30 49ZM31 49L31 50L32 50L32 49ZM49 49L49 52L52 52L52 49ZM55 49L55 50L56 50L56 49ZM28 50L28 51L29 51L29 50ZM45 50L45 51L46 51L46 50ZM50 50L50 51L51 51L51 50ZM53 50L53 53L54 53L54 52L55 52L55 51L54 51L54 50ZM25 52L25 54L26 54L26 52ZM27 53L27 54L28 54L28 53ZM40 53L40 54L42 54L42 53ZM30 55L30 56L29 56L29 57L33 57L33 56L31 56L31 55ZM48 55L48 56L49 56L49 55ZM18 56L18 57L21 57L21 56ZM54 56L54 57L56 57L56 56ZM0 0L0 7L7 7L7 0ZM1 1L1 6L6 6L6 1ZM2 2L2 5L5 5L5 2ZM50 0L50 7L57 7L57 0ZM51 1L51 6L56 6L56 1ZM52 2L52 5L55 5L55 2ZM0 50L0 57L7 57L7 50ZM1 51L1 56L6 56L6 51ZM2 52L2 55L5 55L5 52Z" fill="#000000"/></g></g></svg>
