<?xml version="1.0" encoding="UTF-8"?>
<svg xmlns="http://www.w3.org/2000/svg" version="1.1" width="300" height="300" viewBox="0 0 300 300"><rect x="0" y="0" width="300" height="300" fill="#fefefe"/><g transform="scale(4.615)"><g transform="translate(4,4)"><path fill-rule="evenodd" d="M8 0L8 1L9 1L9 2L8 2L8 5L10 5L10 7L11 7L11 5L12 5L12 3L10 3L10 4L9 4L9 2L12 2L12 1L14 1L14 0L11 0L11 1L9 1L9 0ZM17 0L17 1L16 1L16 2L15 2L15 3L17 3L17 5L15 5L15 4L14 4L14 3L13 3L13 4L14 4L14 5L15 5L15 6L14 6L14 7L13 7L13 6L12 6L12 7L13 7L13 8L12 8L12 9L13 9L13 8L15 8L15 11L14 11L14 10L11 10L11 8L10 8L10 9L9 9L9 8L8 8L8 9L7 9L7 8L6 8L6 9L7 9L7 10L5 10L5 9L4 9L4 8L0 8L0 10L1 10L1 9L2 9L2 10L3 10L3 9L4 9L4 10L5 10L5 11L8 11L8 16L6 16L6 15L7 15L7 14L6 14L6 13L7 13L7 12L5 12L5 14L2 14L2 15L3 15L3 16L1 16L1 13L0 13L0 16L1 16L1 17L0 17L0 18L1 18L1 20L0 20L0 22L1 22L1 20L2 20L2 24L1 24L1 23L0 23L0 24L1 24L1 25L3 25L3 26L1 26L1 28L2 28L2 29L3 29L3 27L4 27L4 30L3 30L3 31L4 31L4 32L3 32L3 33L1 33L1 32L2 32L2 30L0 30L0 34L1 34L1 35L0 35L0 38L4 38L4 37L5 37L5 38L6 38L6 39L3 39L3 40L2 40L2 41L1 41L1 42L0 42L0 43L1 43L1 44L3 44L3 45L0 45L0 48L5 48L5 47L9 47L9 49L8 49L8 48L6 48L6 49L8 49L8 50L9 50L9 53L8 53L8 57L9 57L9 56L10 56L10 57L14 57L14 56L16 56L16 57L18 57L18 56L17 56L17 55L20 55L20 56L21 56L21 57L24 57L24 56L28 56L28 55L27 55L27 53L29 53L29 54L31 54L31 55L30 55L30 56L31 56L31 57L32 57L32 55L33 55L33 54L36 54L36 55L34 55L34 56L33 56L33 57L36 57L36 55L38 55L38 57L42 57L42 56L43 56L43 55L44 55L44 54L45 54L45 55L46 55L46 56L47 56L47 57L48 57L48 55L49 55L49 57L51 57L51 54L52 54L52 53L53 53L53 56L52 56L52 57L55 57L55 56L54 56L54 55L55 55L55 54L56 54L56 53L57 53L57 52L55 52L55 50L57 50L57 48L56 48L56 49L55 49L55 50L53 50L53 49L54 49L54 48L53 48L53 47L52 47L52 46L51 46L51 45L52 45L52 43L53 43L53 42L54 42L54 43L56 43L56 44L57 44L57 43L56 43L56 42L57 42L57 40L56 40L56 41L55 41L55 42L54 42L54 40L55 40L55 38L56 38L56 39L57 39L57 38L56 38L56 36L57 36L57 34L56 34L56 33L57 33L57 31L56 31L56 30L57 30L57 27L53 27L53 25L54 25L54 24L53 24L53 20L50 20L50 19L47 19L47 18L48 18L48 14L47 14L47 15L45 15L45 16L44 16L44 15L43 15L43 14L44 14L44 10L45 10L45 11L47 11L47 12L48 12L48 10L50 10L50 8L49 8L49 6L48 6L48 7L47 7L47 5L48 5L48 0L46 0L46 1L47 1L47 2L46 2L46 3L47 3L47 5L46 5L46 4L44 4L44 3L45 3L45 1L44 1L44 2L41 2L41 1L43 1L43 0L41 0L41 1L40 1L40 0L39 0L39 1L40 1L40 2L41 2L41 4L38 4L38 2L37 2L37 1L38 1L38 0L37 0L37 1L36 1L36 0L35 0L35 1L34 1L34 2L32 2L32 1L33 1L33 0L32 0L32 1L31 1L31 0L27 0L27 1L28 1L28 2L27 2L27 4L26 4L26 2L24 2L24 3L23 3L23 1L26 1L26 0L23 0L23 1L22 1L22 0L21 0L21 1L20 1L20 2L21 2L21 1L22 1L22 3L23 3L23 5L22 5L22 4L21 4L21 5L20 5L20 4L19 4L19 3L17 3L17 1L18 1L18 0ZM35 1L35 2L34 2L34 5L33 5L33 3L32 3L32 4L31 4L31 2L30 2L30 4L31 4L31 5L32 5L32 6L31 6L31 9L32 9L32 10L30 10L30 11L29 11L29 10L28 10L28 9L27 9L27 10L26 10L26 11L25 11L25 13L24 13L24 11L21 11L21 10L23 10L23 9L21 9L21 8L23 8L23 7L24 7L24 9L26 9L26 6L25 6L25 5L26 5L26 4L24 4L24 6L23 6L23 7L22 7L22 6L21 6L21 7L20 7L20 6L19 6L19 7L20 7L20 11L21 11L21 14L19 14L19 13L20 13L20 12L19 12L19 8L18 8L18 12L17 12L17 13L16 13L16 12L15 12L15 15L14 15L14 13L13 13L13 14L12 14L12 13L11 13L11 14L12 14L12 15L14 15L14 16L15 16L15 15L16 15L16 17L17 17L17 16L18 16L18 17L19 17L19 18L18 18L18 19L17 19L17 18L16 18L16 19L15 19L15 17L12 17L12 16L11 16L11 15L10 15L10 14L9 14L9 17L8 17L8 19L6 19L6 18L7 18L7 17L5 17L5 16L4 16L4 17L3 17L3 18L5 18L5 20L4 20L4 19L2 19L2 20L4 20L4 21L3 21L3 22L4 22L4 21L5 21L5 24L4 24L4 25L5 25L5 26L7 26L7 25L9 25L9 26L10 26L10 27L9 27L9 31L10 31L10 32L8 32L8 31L5 31L5 32L4 32L4 33L3 33L3 35L1 35L1 36L3 36L3 37L4 37L4 36L3 36L3 35L5 35L5 36L7 36L7 37L6 37L6 38L7 38L7 39L6 39L6 40L8 40L8 41L10 41L10 42L8 42L8 43L10 43L10 42L12 42L12 43L11 43L11 44L8 44L8 45L5 45L5 44L7 44L7 43L5 43L5 44L4 44L4 42L7 42L7 41L5 41L5 40L4 40L4 42L3 42L3 44L4 44L4 45L3 45L3 47L5 47L5 46L8 46L8 45L9 45L9 46L11 46L11 48L12 48L12 49L14 49L14 50L13 50L13 51L12 51L12 52L13 52L13 53L12 53L12 54L11 54L11 55L10 55L10 54L9 54L9 55L10 55L10 56L12 56L12 55L13 55L13 53L14 53L14 54L15 54L15 53L16 53L16 54L17 54L17 53L18 53L18 54L19 54L19 52L20 52L20 51L19 51L19 49L16 49L16 50L18 50L18 51L19 51L19 52L17 52L17 51L16 51L16 52L15 52L15 51L14 51L14 50L15 50L15 47L14 47L14 46L13 46L13 47L12 47L12 46L11 46L11 45L12 45L12 44L14 44L14 45L15 45L15 46L16 46L16 47L17 47L17 48L19 48L19 47L20 47L20 49L21 49L21 50L22 50L22 51L21 51L21 53L20 53L20 55L22 55L22 56L24 56L24 55L25 55L25 54L23 54L23 52L24 52L24 53L25 53L25 52L26 52L26 51L24 51L24 50L26 50L26 49L25 49L25 47L26 47L26 48L28 48L28 47L30 47L30 48L32 48L32 49L31 49L31 53L32 53L32 51L35 51L35 49L34 49L34 48L33 48L33 47L34 47L34 46L35 46L35 48L37 48L37 49L36 49L36 50L37 50L37 49L38 49L38 48L39 48L39 49L40 49L40 50L39 50L39 51L36 51L36 52L35 52L35 53L36 53L36 54L39 54L39 53L37 53L37 52L40 52L40 54L41 54L41 55L42 55L42 54L43 54L43 51L45 51L45 50L43 50L43 47L39 47L39 45L38 45L38 44L39 44L39 43L38 43L38 44L37 44L37 42L41 42L41 41L42 41L42 42L43 42L43 43L42 43L42 45L43 45L43 46L45 46L45 47L44 47L44 49L45 49L45 48L46 48L46 46L47 46L47 45L49 45L49 44L50 44L50 45L51 45L51 42L50 42L50 41L52 41L52 40L53 40L53 39L54 39L54 38L55 38L55 37L54 37L54 38L53 38L53 36L52 36L52 35L51 35L51 36L52 36L52 40L50 40L50 41L47 41L47 40L49 40L49 38L48 38L48 39L47 39L47 40L46 40L46 41L47 41L47 42L48 42L48 43L49 43L49 44L45 44L45 43L44 43L44 42L45 42L45 41L44 41L44 42L43 42L43 41L42 41L42 40L44 40L44 39L45 39L45 37L46 37L46 38L47 38L47 37L49 37L49 36L47 36L47 37L46 37L46 36L44 36L44 37L43 37L43 35L42 35L42 34L41 34L41 35L39 35L39 36L40 36L40 37L41 37L41 39L39 39L39 38L38 38L38 39L37 39L37 37L38 37L38 36L37 36L37 37L34 37L34 38L33 38L33 36L36 36L36 35L35 35L35 33L33 33L33 32L31 32L31 34L30 34L30 35L29 35L29 33L30 33L30 31L29 31L29 32L28 32L28 31L25 31L25 30L26 30L26 28L25 28L25 27L22 27L22 26L20 26L20 27L21 27L21 28L20 28L20 29L18 29L18 28L19 28L19 27L17 27L17 24L18 24L18 23L16 23L16 19L17 19L17 20L18 20L18 21L17 21L17 22L21 22L21 23L20 23L20 24L19 24L19 25L18 25L18 26L19 26L19 25L20 25L20 24L21 24L21 23L23 23L23 21L24 21L24 22L25 22L25 25L23 25L23 24L22 24L22 25L23 25L23 26L25 26L25 25L29 25L29 23L30 23L30 22L28 22L28 21L27 21L27 20L25 20L25 19L28 19L28 20L30 20L30 19L32 19L32 20L31 20L31 23L32 23L32 22L34 22L34 23L33 23L33 24L32 24L32 25L33 25L33 24L35 24L35 23L36 23L36 24L37 24L37 22L35 22L35 21L33 21L33 19L35 19L35 20L36 20L36 21L38 21L38 24L39 24L39 25L40 25L40 26L38 26L38 27L40 27L40 26L41 26L41 27L42 27L42 28L43 28L43 27L44 27L44 25L46 25L46 26L49 26L49 25L48 25L48 24L45 24L45 23L44 23L44 25L43 25L43 24L42 24L42 23L43 23L43 22L41 22L41 23L40 23L40 24L39 24L39 20L40 20L40 19L39 19L39 18L41 18L41 19L42 19L42 18L43 18L43 21L44 21L44 22L47 22L47 23L52 23L52 22L51 22L51 21L50 21L50 20L49 20L49 22L47 22L47 20L46 20L46 17L47 17L47 16L46 16L46 17L42 17L42 14L43 14L43 12L42 12L42 11L43 11L43 10L44 10L44 9L45 9L45 7L46 7L46 5L43 5L43 4L41 4L41 5L43 5L43 8L42 8L42 6L41 6L41 7L40 7L40 5L38 5L38 6L37 6L37 5L36 5L36 4L35 4L35 2L36 2L36 1ZM28 2L28 4L29 4L29 2ZM27 5L27 8L30 8L30 5ZM8 6L8 7L9 7L9 6ZM15 6L15 8L16 8L16 11L17 11L17 7L18 7L18 6L17 6L17 7L16 7L16 6ZM24 6L24 7L25 7L25 6ZM28 6L28 7L29 7L29 6ZM32 6L32 8L33 8L33 6ZM34 6L34 9L36 9L36 8L37 8L37 10L38 10L38 12L37 12L37 11L36 11L36 10L35 10L35 11L34 11L34 10L33 10L33 14L30 14L30 13L28 13L28 12L26 12L26 13L25 13L25 14L24 14L24 15L23 15L23 18L24 18L24 19L25 19L25 18L24 18L24 17L25 17L25 16L26 16L26 15L25 15L25 14L27 14L27 17L26 17L26 18L27 18L27 17L29 17L29 18L28 18L28 19L30 19L30 17L29 17L29 16L31 16L31 17L33 17L33 18L35 18L35 17L34 17L34 16L35 16L35 15L33 15L33 14L34 14L34 12L35 12L35 14L36 14L36 15L39 15L39 17L40 17L40 16L41 16L41 13L40 13L40 11L41 11L41 10L43 10L43 9L42 9L42 8L40 8L40 7L39 7L39 6L38 6L38 7L39 7L39 8L37 8L37 6L36 6L36 7L35 7L35 6ZM44 6L44 7L45 7L45 6ZM47 8L47 9L46 9L46 10L47 10L47 9L49 9L49 8ZM52 8L52 10L51 10L51 11L49 11L49 17L52 17L52 16L55 16L55 17L54 17L54 18L52 18L52 19L56 19L56 17L57 17L57 15L54 15L54 14L55 14L55 13L54 13L54 10L53 10L53 9L55 9L55 11L57 11L57 10L56 10L56 9L57 9L57 8L56 8L56 9L55 9L55 8ZM8 9L8 10L9 10L9 11L10 11L10 12L9 12L9 13L10 13L10 12L11 12L11 11L10 11L10 10L9 10L9 9ZM38 9L38 10L39 10L39 11L40 11L40 10L39 10L39 9ZM27 10L27 11L28 11L28 10ZM52 10L52 11L51 11L51 12L50 12L50 13L51 13L51 15L53 15L53 14L54 14L54 13L53 13L53 10ZM3 11L3 13L4 13L4 11ZM30 11L30 12L31 12L31 13L32 13L32 11ZM35 11L35 12L36 12L36 11ZM18 12L18 13L19 13L19 12ZM22 12L22 13L23 13L23 12ZM51 12L51 13L52 13L52 14L53 14L53 13L52 13L52 12ZM56 12L56 13L57 13L57 12ZM45 13L45 14L46 14L46 13ZM16 14L16 15L17 15L17 14ZM39 14L39 15L40 15L40 14ZM19 15L19 16L20 16L20 15ZM24 15L24 16L25 16L25 15ZM28 15L28 16L29 16L29 15ZM31 15L31 16L32 16L32 15ZM1 17L1 18L2 18L2 17ZM10 17L10 18L9 18L9 19L8 19L8 20L6 20L6 21L8 21L8 22L9 22L9 23L8 23L8 24L9 24L9 23L10 23L10 22L12 22L12 21L13 21L13 24L16 24L16 23L15 23L15 22L14 22L14 20L15 20L15 19L12 19L12 17ZM21 17L21 19L20 19L20 18L19 18L19 20L21 20L21 21L23 21L23 19L22 19L22 17ZM36 17L36 18L37 18L37 17ZM41 17L41 18L42 18L42 17ZM10 18L10 19L9 19L9 22L10 22L10 19L11 19L11 21L12 21L12 19L11 19L11 18ZM44 18L44 19L45 19L45 18ZM21 19L21 20L22 20L22 19ZM36 19L36 20L38 20L38 19ZM41 20L41 21L42 21L42 20ZM45 20L45 21L46 21L46 20ZM54 20L54 21L55 21L55 20ZM25 21L25 22L27 22L27 23L26 23L26 24L27 24L27 23L28 23L28 22L27 22L27 21ZM56 21L56 22L55 22L55 23L57 23L57 21ZM6 22L6 23L7 23L7 22ZM11 23L11 24L10 24L10 25L11 25L11 24L12 24L12 23ZM5 24L5 25L7 25L7 24ZM50 24L50 25L53 25L53 24ZM55 24L55 26L56 26L56 24ZM14 25L14 26L16 26L16 25ZM30 25L30 26L31 26L31 25ZM34 25L34 27L35 27L35 28L34 28L34 29L36 29L36 30L35 30L35 31L34 31L34 32L35 32L35 31L37 31L37 32L36 32L36 33L37 33L37 32L38 32L38 34L39 34L39 31L40 31L40 32L41 32L41 31L44 31L44 34L46 34L46 35L47 35L47 34L48 34L48 35L49 35L49 34L50 34L50 33L49 33L49 32L48 32L48 29L47 29L47 31L45 31L45 30L46 30L46 27L45 27L45 30L44 30L44 29L42 29L42 30L40 30L40 29L41 29L41 28L40 28L40 29L38 29L38 30L37 30L37 27L35 27L35 25ZM11 26L11 27L10 27L10 30L11 30L11 31L13 31L13 30L14 30L14 32L15 32L15 33L13 33L13 32L11 32L11 33L10 33L10 35L9 35L9 37L8 37L8 38L9 38L9 37L11 37L11 38L10 38L10 39L8 39L8 40L10 40L10 41L13 41L13 39L12 39L12 40L10 40L10 39L11 39L11 38L14 38L14 39L15 39L15 40L14 40L14 41L16 41L16 42L18 42L18 43L19 43L19 44L20 44L20 45L17 45L17 43L14 43L14 42L13 42L13 43L14 43L14 44L15 44L15 45L17 45L17 47L19 47L19 46L20 46L20 47L21 47L21 48L23 48L23 49L22 49L22 50L23 50L23 49L24 49L24 48L23 48L23 46L24 46L24 47L25 47L25 45L26 45L26 46L27 46L27 47L28 47L28 46L27 46L27 45L26 45L26 43L25 43L25 44L24 44L24 43L23 43L23 42L24 42L24 41L25 41L25 42L27 42L27 43L28 43L28 44L29 44L29 43L32 43L32 42L33 42L33 45L32 45L32 46L33 46L33 45L34 45L34 44L35 44L35 46L36 46L36 44L35 44L35 43L34 43L34 42L36 42L36 41L34 41L34 40L35 40L35 39L36 39L36 38L35 38L35 39L33 39L33 38L32 38L32 36L33 36L33 35L34 35L34 34L33 34L33 33L32 33L32 34L33 34L33 35L32 35L32 36L29 36L29 35L28 35L28 34L27 34L27 33L28 33L28 32L24 32L24 31L22 31L22 32L21 32L21 34L22 34L22 33L23 33L23 35L24 35L24 34L25 34L25 33L26 33L26 34L27 34L27 36L29 36L29 38L26 38L26 39L27 39L27 40L26 40L26 41L25 41L25 39L24 39L24 37L25 37L25 36L23 36L23 38L22 38L22 39L21 39L21 38L20 38L20 37L19 37L19 36L21 36L21 35L17 35L17 36L18 36L18 38L15 38L15 36L16 36L16 34L15 34L15 33L16 33L16 30L17 30L17 28L16 28L16 27L15 27L15 28L12 28L12 29L11 29L11 27L12 27L12 26ZM42 26L42 27L43 27L43 26ZM5 27L5 30L8 30L8 27ZM27 27L27 30L30 30L30 27ZM32 27L32 28L33 28L33 27ZM49 27L49 30L52 30L52 27ZM6 28L6 29L7 29L7 28ZM23 28L23 29L21 29L21 30L24 30L24 28ZM28 28L28 29L29 29L29 28ZM50 28L50 29L51 29L51 28ZM53 28L53 30L56 30L56 29L54 29L54 28ZM15 29L15 30L16 30L16 29ZM31 29L31 31L32 31L32 30L33 30L33 29ZM38 30L38 31L39 31L39 30ZM50 31L50 32L51 32L51 31ZM52 31L52 34L54 34L54 32L55 32L55 31ZM6 32L6 33L5 33L5 35L7 35L7 36L8 36L8 34L9 34L9 33L7 33L7 32ZM17 32L17 33L18 33L18 32ZM23 32L23 33L24 33L24 32ZM42 32L42 33L43 33L43 32ZM45 32L45 33L47 33L47 32ZM6 33L6 34L7 34L7 33ZM11 33L11 34L12 34L12 37L13 37L13 33ZM19 33L19 34L20 34L20 33ZM14 35L14 36L15 36L15 35ZM54 35L54 36L55 36L55 35ZM18 38L18 39L19 39L19 38ZM30 38L30 39L28 39L28 40L27 40L27 41L29 41L29 42L30 42L30 41L29 41L29 40L33 40L33 39L32 39L32 38ZM42 38L42 39L44 39L44 38ZM50 38L50 39L51 39L51 38ZM16 39L16 40L17 40L17 39ZM23 39L23 40L22 40L22 41L21 41L21 40L18 40L18 41L19 41L19 43L21 43L21 44L22 44L22 46L21 46L21 45L20 45L20 46L21 46L21 47L22 47L22 46L23 46L23 44L22 44L22 41L23 41L23 40L24 40L24 39ZM38 39L38 40L37 40L37 41L40 41L40 40L39 40L39 39ZM49 42L49 43L50 43L50 42ZM40 43L40 44L41 44L41 43ZM53 44L53 45L55 45L55 44ZM4 45L4 46L5 46L5 45ZM30 45L30 46L31 46L31 45ZM37 45L37 47L38 47L38 45ZM56 45L56 46L54 46L54 47L57 47L57 45ZM1 46L1 47L2 47L2 46ZM48 46L48 47L49 47L49 48L50 48L50 46ZM13 47L13 48L14 48L14 47ZM41 48L41 49L42 49L42 48ZM47 48L47 49L46 49L46 50L47 50L47 52L48 52L48 48ZM10 49L10 50L11 50L11 49ZM27 49L27 52L30 52L30 49ZM32 49L32 50L34 50L34 49ZM49 49L49 52L52 52L52 49ZM28 50L28 51L29 51L29 50ZM50 50L50 51L51 51L51 50ZM13 51L13 52L14 52L14 51ZM40 51L40 52L41 52L41 54L42 54L42 52L41 52L41 51ZM10 52L10 53L11 53L11 52ZM33 52L33 53L34 53L34 52ZM45 52L45 53L46 53L46 52ZM54 52L54 54L55 54L55 52ZM21 53L21 54L22 54L22 55L23 55L23 54L22 54L22 53ZM47 53L47 54L46 54L46 55L47 55L47 54L50 54L50 53ZM39 55L39 56L40 56L40 55ZM56 55L56 56L57 56L57 55ZM0 0L0 7L7 7L7 0ZM1 1L1 6L6 6L6 1ZM2 2L2 5L5 5L5 2ZM50 0L50 7L57 7L57 0ZM51 1L51 6L56 6L56 1ZM52 2L52 5L55 5L55 2ZM0 50L0 57L7 57L7 50ZM1 51L1 56L6 56L6 51ZM2 52L2 55L5 55L5 52Z" fill="#000000"/></g></g></svg>
