<?xml version="1.0" encoding="UTF-8"?>
<svg xmlns="http://www.w3.org/2000/svg" version="1.1" width="300" height="300" viewBox="0 0 300 300"><rect x="0" y="0" width="300" height="300" fill="#fefefe"/><g transform="scale(4.615)"><g transform="translate(4,4)"><path fill-rule="evenodd" d="M8 0L8 1L10 1L10 2L11 2L11 6L10 6L10 7L9 7L9 6L8 6L8 7L9 7L9 8L8 8L8 9L9 9L9 11L8 11L8 10L6 10L6 9L7 9L7 8L6 8L6 9L5 9L5 11L3 11L3 12L1 12L1 9L3 9L3 10L4 10L4 8L0 8L0 14L1 14L1 13L2 13L2 15L1 15L1 17L7 17L7 18L6 18L6 19L7 19L7 20L6 20L6 21L8 21L8 22L6 22L6 23L7 23L7 24L6 24L6 25L7 25L7 24L8 24L8 25L9 25L9 26L5 26L5 24L4 24L4 21L5 21L5 20L4 20L4 18L3 18L3 19L2 19L2 20L1 20L1 19L0 19L0 22L1 22L1 21L2 21L2 23L1 23L1 24L0 24L0 26L1 26L1 25L2 25L2 26L3 26L3 28L2 28L2 27L1 27L1 28L0 28L0 30L2 30L2 29L3 29L3 31L1 31L1 32L0 32L0 34L1 34L1 35L0 35L0 36L3 36L3 38L5 38L5 39L7 39L7 40L6 40L6 41L8 41L8 42L6 42L6 43L7 43L7 44L5 44L5 47L3 47L3 46L4 46L4 45L3 45L3 46L2 46L2 47L1 47L1 46L0 46L0 48L5 48L5 47L8 47L8 48L6 48L6 49L8 49L8 50L9 50L9 53L8 53L8 57L12 57L12 55L13 55L13 54L14 54L14 55L15 55L15 57L18 57L18 56L19 56L19 57L23 57L23 56L22 56L22 55L23 55L23 54L25 54L25 55L24 55L24 57L25 57L25 55L26 55L26 56L28 56L28 55L26 55L26 54L27 54L27 53L29 53L29 54L31 54L31 55L30 55L30 56L31 56L31 57L32 57L32 55L33 55L33 54L36 54L36 55L34 55L34 56L33 56L33 57L36 57L36 55L37 55L37 54L36 54L36 53L35 53L35 52L36 52L36 51L39 51L39 50L40 50L40 49L39 49L39 48L38 48L38 49L37 49L37 48L35 48L35 47L38 47L38 45L41 45L41 46L40 46L40 47L43 47L43 50L44 50L44 48L45 48L45 50L46 50L46 51L42 51L42 52L41 52L41 51L40 51L40 52L39 52L39 54L38 54L38 57L41 57L41 56L40 56L40 55L42 55L42 57L43 57L43 55L44 55L44 56L46 56L46 57L47 57L47 56L48 56L48 57L51 57L51 54L52 54L52 53L54 53L54 55L55 55L55 54L56 54L56 53L54 53L54 52L55 52L55 50L53 50L53 49L55 49L55 48L54 48L54 47L57 47L57 45L56 45L56 46L55 46L55 44L56 44L56 41L57 41L57 40L56 40L56 41L55 41L55 39L53 39L53 38L52 38L52 37L51 37L51 35L52 35L52 36L53 36L53 37L55 37L55 38L56 38L56 39L57 39L57 38L56 38L56 37L57 37L57 31L56 31L56 30L57 30L57 29L56 29L56 30L55 30L55 27L53 27L53 25L56 25L56 24L54 24L54 23L57 23L57 21L56 21L56 22L54 22L54 21L55 21L55 20L54 20L54 21L53 21L53 20L50 20L50 19L49 19L49 18L48 18L48 14L47 14L47 17L45 17L45 16L44 16L44 14L46 14L46 13L44 13L44 10L45 10L45 11L47 11L47 10L48 10L48 12L49 12L49 17L50 17L50 15L51 15L51 13L52 13L52 14L53 14L53 13L54 13L54 15L53 15L53 17L52 17L52 16L51 16L51 19L56 19L56 20L57 20L57 19L56 19L56 17L57 17L57 15L55 15L55 13L54 13L54 10L53 10L53 13L52 13L52 12L51 12L51 11L52 11L52 9L55 9L55 8L52 8L52 9L51 9L51 10L50 10L50 8L48 8L48 9L47 9L47 8L45 8L45 6L44 6L44 7L43 7L43 5L45 5L45 4L44 4L44 3L45 3L45 1L47 1L47 2L46 2L46 3L47 3L47 5L46 5L46 7L47 7L47 5L48 5L48 0L45 0L45 1L44 1L44 2L41 2L41 1L43 1L43 0L41 0L41 1L40 1L40 0L39 0L39 1L40 1L40 2L41 2L41 3L43 3L43 5L42 5L42 7L43 7L43 8L45 8L45 9L44 9L44 10L43 10L43 9L41 9L41 8L38 8L38 7L39 7L39 6L38 6L38 7L37 7L37 6L36 6L36 7L35 7L35 6L34 6L34 4L36 4L36 5L40 5L40 7L41 7L41 4L37 4L37 3L39 3L39 2L37 2L37 1L38 1L38 0L37 0L37 1L36 1L36 0L35 0L35 1L34 1L34 2L33 2L33 1L31 1L31 0L27 0L27 4L26 4L26 2L24 2L24 3L23 3L23 2L22 2L22 3L21 3L21 5L20 5L20 4L19 4L19 3L18 3L18 2L16 2L16 1L15 1L15 3L17 3L17 5L15 5L15 4L14 4L14 3L12 3L12 2L13 2L13 1L14 1L14 0L13 0L13 1L12 1L12 0ZM17 0L17 1L18 1L18 0ZM21 0L21 1L20 1L20 2L21 2L21 1L22 1L22 0ZM23 0L23 1L26 1L26 0ZM28 1L28 4L30 4L30 3L31 3L31 1L30 1L30 3L29 3L29 1ZM35 1L35 2L36 2L36 1ZM8 2L8 5L9 5L9 4L10 4L10 3L9 3L9 2ZM22 3L22 4L23 4L23 3ZM32 3L32 4L31 4L31 5L32 5L32 6L31 6L31 9L32 9L32 10L29 10L29 9L27 9L27 10L26 10L26 11L25 11L25 12L24 12L24 14L23 14L23 13L22 13L22 12L23 12L23 11L21 11L21 10L23 10L23 9L21 9L21 7L22 7L22 6L21 6L21 7L20 7L20 6L19 6L19 7L18 7L18 6L17 6L17 7L16 7L16 6L15 6L15 8L13 8L13 10L12 10L12 6L13 6L13 7L14 7L14 6L13 6L13 5L14 5L14 4L13 4L13 5L12 5L12 6L11 6L11 7L10 7L10 8L9 8L9 9L11 9L11 10L10 10L10 13L12 13L12 12L11 12L11 11L13 11L13 10L14 10L14 11L16 11L16 10L18 10L18 12L17 12L17 13L16 13L16 12L15 12L15 15L14 15L14 13L13 13L13 14L9 14L9 15L14 15L14 16L15 16L15 17L14 17L14 18L13 18L13 19L12 19L12 20L10 20L10 22L9 22L9 23L8 23L8 24L9 24L9 25L10 25L10 26L9 26L9 30L11 30L11 32L12 32L12 33L11 33L11 34L7 34L7 33L5 33L5 32L3 32L3 34L2 34L2 35L3 35L3 36L4 36L4 34L5 34L5 35L6 35L6 36L8 36L8 38L7 38L7 37L5 37L5 38L7 38L7 39L8 39L8 38L9 38L9 40L11 40L11 41L10 41L10 42L11 42L11 41L12 41L12 40L13 40L13 39L14 39L14 40L15 40L15 39L14 39L14 37L15 37L15 38L17 38L17 39L16 39L16 40L17 40L17 39L18 39L18 41L19 41L19 43L18 43L18 42L15 42L15 41L14 41L14 42L12 42L12 43L11 43L11 45L12 45L12 46L9 46L9 45L10 45L10 43L9 43L9 45L8 45L8 47L9 47L9 48L8 48L8 49L9 49L9 50L10 50L10 49L11 49L11 48L13 48L13 49L14 49L14 51L13 51L13 50L11 50L11 51L10 51L10 53L11 53L11 55L10 55L10 54L9 54L9 56L11 56L11 55L12 55L12 52L13 52L13 53L14 53L14 54L15 54L15 53L16 53L16 54L17 54L17 55L18 55L18 54L19 54L19 51L23 51L23 52L21 52L21 53L20 53L20 55L19 55L19 56L20 56L20 55L22 55L22 54L23 54L23 52L24 52L24 53L25 53L25 52L26 52L26 50L25 50L25 49L26 49L26 48L28 48L28 46L29 46L29 47L30 47L30 48L31 48L31 50L32 50L32 49L34 49L34 50L33 50L33 51L35 51L35 49L34 49L34 46L36 46L36 45L38 45L38 44L39 44L39 43L40 43L40 44L41 44L41 43L42 43L42 45L44 45L44 47L46 47L46 46L47 46L47 45L48 45L48 47L49 47L49 48L50 48L50 47L49 47L49 45L48 45L48 43L47 43L47 42L50 42L50 43L49 43L49 44L50 44L50 45L51 45L51 48L52 48L52 46L53 46L53 44L55 44L55 43L54 43L54 42L55 42L55 41L54 41L54 42L53 42L53 43L52 43L52 45L51 45L51 42L50 42L50 41L52 41L52 38L49 38L49 37L48 37L48 35L49 35L49 34L50 34L50 33L49 33L49 32L48 32L48 29L47 29L47 31L44 31L44 30L46 30L46 26L47 26L47 27L48 27L48 26L49 26L49 24L51 24L51 26L52 26L52 25L53 25L53 23L52 23L52 22L51 22L51 21L50 21L50 20L49 20L49 19L48 19L48 18L47 18L47 20L48 20L48 21L49 21L49 22L47 22L47 21L46 21L46 22L47 22L47 23L44 23L44 25L43 25L43 22L41 22L41 23L40 23L40 24L39 24L39 23L38 23L38 24L39 24L39 25L40 25L40 26L38 26L38 27L39 27L39 28L40 28L40 30L39 30L39 29L38 29L38 30L36 30L36 29L37 29L37 27L35 27L35 25L34 25L34 27L35 27L35 28L34 28L34 29L35 29L35 31L34 31L34 32L35 32L35 31L37 31L37 32L36 32L36 33L37 33L37 32L38 32L38 34L39 34L39 31L40 31L40 32L41 32L41 31L44 31L44 33L45 33L45 34L46 34L46 35L45 35L45 36L44 36L44 37L42 37L42 38L44 38L44 39L45 39L45 40L46 40L46 39L45 39L45 36L46 36L46 38L48 38L48 39L47 39L47 40L49 40L49 39L51 39L51 40L50 40L50 41L47 41L47 42L46 42L46 43L47 43L47 44L44 44L44 43L45 43L45 41L44 41L44 40L43 40L43 39L40 39L40 41L37 41L37 40L38 40L38 39L39 39L39 38L37 38L37 37L34 37L34 38L33 38L33 36L36 36L36 35L33 35L33 36L32 36L32 35L31 35L31 34L30 34L30 35L29 35L29 33L30 33L30 31L29 31L29 32L28 32L28 31L26 31L26 32L28 32L28 33L25 33L25 34L24 34L24 35L23 35L23 33L24 33L24 30L26 30L26 28L25 28L25 25L27 25L27 26L29 26L29 24L30 24L30 23L32 23L32 22L34 22L34 23L33 23L33 24L32 24L32 25L33 25L33 24L35 24L35 23L36 23L36 24L37 24L37 22L35 22L35 20L36 20L36 21L37 21L37 20L40 20L40 19L39 19L39 18L41 18L41 19L42 19L42 18L43 18L43 21L44 21L44 22L45 22L45 19L44 19L44 18L45 18L45 17L42 17L42 14L44 14L44 13L43 13L43 12L42 12L42 11L43 11L43 10L41 10L41 9L40 9L40 10L39 10L39 9L38 9L38 10L39 10L39 15L36 15L36 14L35 14L35 12L36 12L36 11L37 11L37 12L38 12L38 11L37 11L37 8L36 8L36 9L34 9L34 6L33 6L33 4L34 4L34 3ZM18 4L18 5L19 5L19 4ZM24 4L24 6L23 6L23 7L24 7L24 9L26 9L26 6L25 6L25 5L26 5L26 4ZM27 5L27 8L30 8L30 5ZM24 6L24 7L25 7L25 6ZM28 6L28 7L29 7L29 6ZM32 6L32 8L33 8L33 6ZM48 6L48 7L49 7L49 6ZM19 7L19 12L18 12L18 13L19 13L19 14L21 14L21 11L20 11L20 7ZM17 8L17 9L18 9L18 8ZM56 8L56 9L57 9L57 8ZM45 9L45 10L47 10L47 9ZM27 10L27 11L29 11L29 10ZM33 10L33 13L32 13L32 12L31 12L31 11L30 11L30 12L31 12L31 14L30 14L30 13L28 13L28 12L26 12L26 13L25 13L25 14L24 14L24 15L23 15L23 18L22 18L22 17L21 17L21 19L20 19L20 20L21 20L21 21L22 21L22 22L23 22L23 24L24 24L24 25L25 25L25 22L27 22L27 23L26 23L26 24L27 24L27 23L28 23L28 24L29 24L29 23L28 23L28 21L29 21L29 22L31 22L31 20L32 20L32 19L33 19L33 21L34 21L34 19L33 19L33 18L35 18L35 17L34 17L34 16L35 16L35 15L33 15L33 14L34 14L34 12L35 12L35 11L36 11L36 10L35 10L35 11L34 11L34 10ZM40 10L40 11L41 11L41 10ZM49 10L49 11L50 11L50 10ZM55 10L55 12L56 12L56 13L57 13L57 10ZM5 11L5 15L4 15L4 16L5 16L5 15L6 15L6 16L8 16L8 13L9 13L9 12L8 12L8 13L6 13L6 12L7 12L7 11ZM3 12L3 14L4 14L4 12ZM19 12L19 13L20 13L20 12ZM50 12L50 13L51 13L51 12ZM40 13L40 14L41 14L41 13ZM6 14L6 15L7 15L7 14ZM16 14L16 15L15 15L15 16L16 16L16 15L17 15L17 14ZM25 14L25 15L26 15L26 16L25 16L25 17L24 17L24 18L23 18L23 19L22 19L22 20L23 20L23 21L24 21L24 22L25 22L25 19L27 19L27 20L26 20L26 21L27 21L27 20L29 20L29 21L30 21L30 20L29 20L29 19L28 19L28 18L29 18L29 17L30 17L30 19L32 19L32 18L31 18L31 16L29 16L29 15L28 15L28 16L29 16L29 17L27 17L27 18L25 18L25 17L26 17L26 16L27 16L27 14ZM31 14L31 15L32 15L32 16L33 16L33 15L32 15L32 14ZM2 15L2 16L3 16L3 15ZM18 15L18 16L19 16L19 15ZM20 15L20 16L21 16L21 15ZM39 15L39 17L40 17L40 16L41 16L41 15ZM10 16L10 17L11 17L11 18L10 18L10 19L11 19L11 18L12 18L12 17L13 17L13 16ZM54 16L54 17L53 17L53 18L54 18L54 17L55 17L55 16ZM15 17L15 19L13 19L13 20L12 20L12 21L13 21L13 22L14 22L14 20L16 20L16 23L14 23L14 24L12 24L12 22L10 22L10 23L9 23L9 24L10 24L10 23L11 23L11 24L12 24L12 25L11 25L11 26L12 26L12 28L13 28L13 29L12 29L12 30L13 30L13 31L12 31L12 32L13 32L13 33L15 33L15 32L16 32L16 30L17 30L17 27L19 27L19 28L18 28L18 29L19 29L19 28L21 28L21 27L20 27L20 26L21 26L21 24L20 24L20 23L21 23L21 22L19 22L19 21L18 21L18 20L19 20L19 18L18 18L18 17ZM36 17L36 18L37 18L37 17ZM41 17L41 18L42 18L42 17ZM7 18L7 19L9 19L9 18ZM16 18L16 19L17 19L17 20L18 20L18 19L17 19L17 18ZM24 18L24 19L25 19L25 18ZM36 19L36 20L37 20L37 19ZM3 20L3 21L4 21L4 20ZM8 20L8 21L9 21L9 20ZM41 20L41 21L42 21L42 20ZM38 21L38 22L39 22L39 21ZM16 23L16 26L15 26L15 24L14 24L14 27L13 27L13 28L14 28L14 27L17 27L17 24L18 24L18 23ZM41 23L41 24L42 24L42 23ZM47 23L47 24L49 24L49 23ZM2 24L2 25L3 25L3 24ZM19 24L19 25L20 25L20 24ZM22 25L22 27L23 27L23 28L24 28L24 27L23 27L23 25ZM30 25L30 26L31 26L31 25ZM45 25L45 26L46 26L46 25ZM40 26L40 27L41 27L41 30L42 30L42 29L43 29L43 28L44 28L44 29L45 29L45 27L44 27L44 26L42 26L42 27L41 27L41 26ZM5 27L5 30L8 30L8 27ZM10 27L10 28L11 28L11 27ZM27 27L27 30L30 30L30 27ZM31 27L31 28L33 28L33 27ZM42 27L42 28L43 28L43 27ZM49 27L49 30L52 30L52 27ZM56 27L56 28L57 28L57 27ZM1 28L1 29L2 29L2 28ZM6 28L6 29L7 29L7 28ZM28 28L28 29L29 29L29 28ZM50 28L50 29L51 29L51 28ZM53 28L53 29L54 29L54 28ZM13 29L13 30L14 30L14 31L15 31L15 30L16 30L16 29ZM21 29L21 30L24 30L24 29ZM31 29L31 30L33 30L33 29ZM38 30L38 31L39 31L39 30ZM54 30L54 31L53 31L53 32L52 32L52 31L50 31L50 32L52 32L52 34L54 34L54 33L55 33L55 30ZM6 31L6 32L7 32L7 31ZM19 31L19 32L20 32L20 33L21 33L21 34L18 34L18 33L17 33L17 34L16 34L16 36L18 36L18 38L19 38L19 40L21 40L21 41L22 41L22 44L19 44L19 45L17 45L17 43L16 43L16 44L15 44L15 42L14 42L14 44L15 44L15 45L17 45L17 46L19 46L19 48L18 48L18 47L16 47L16 46L14 46L14 45L13 45L13 43L12 43L12 45L13 45L13 46L12 46L12 47L13 47L13 46L14 46L14 47L15 47L15 48L14 48L14 49L15 49L15 48L16 48L16 49L17 49L17 50L18 50L18 49L19 49L19 50L21 50L21 49L19 49L19 48L20 48L20 45L21 45L21 46L22 46L22 47L21 47L21 48L23 48L23 49L22 49L22 50L23 50L23 49L24 49L24 48L26 48L26 47L24 47L24 46L25 46L25 45L26 45L26 46L27 46L27 45L26 45L26 43L25 43L25 42L27 42L27 43L28 43L28 45L30 45L30 46L31 46L31 47L32 47L32 48L33 48L33 45L34 45L34 44L35 44L35 45L36 45L36 44L35 44L35 43L34 43L34 42L36 42L36 41L34 41L34 40L35 40L35 39L36 39L36 38L35 38L35 39L33 39L33 38L32 38L32 36L29 36L29 35L28 35L28 34L25 34L25 35L26 35L26 37L27 37L27 36L29 36L29 38L25 38L25 39L24 39L24 37L25 37L25 36L23 36L23 35L22 35L22 33L23 33L23 31L22 31L22 32L21 32L21 31ZM8 32L8 33L10 33L10 32ZM31 32L31 33L32 33L32 34L33 34L33 32ZM42 32L42 33L43 33L43 32ZM45 32L45 33L47 33L47 32ZM34 33L34 34L35 34L35 33ZM6 34L6 35L7 35L7 34ZM14 34L14 35L12 35L12 36L11 36L11 35L10 35L10 36L9 36L9 37L10 37L10 39L11 39L11 37L12 37L12 38L13 38L13 37L12 37L12 36L15 36L15 34ZM41 34L41 35L37 35L37 36L40 36L40 37L41 37L41 35L42 35L42 36L43 36L43 35L44 35L44 34L43 34L43 35L42 35L42 34ZM47 34L47 35L46 35L46 36L47 36L47 35L48 35L48 34ZM18 35L18 36L19 36L19 37L20 37L20 38L21 38L21 39L23 39L23 40L22 40L22 41L23 41L23 40L24 40L24 39L23 39L23 36L22 36L22 35L21 35L21 36L20 36L20 35ZM54 35L54 36L55 36L55 37L56 37L56 35ZM10 36L10 37L11 37L11 36ZM0 37L0 39L1 39L1 38L2 38L2 37ZM21 37L21 38L22 38L22 37ZM30 38L30 39L28 39L28 40L27 40L27 41L29 41L29 42L31 42L31 41L29 41L29 40L33 40L33 39L32 39L32 38ZM25 39L25 41L24 41L24 42L23 42L23 43L24 43L24 42L25 42L25 41L26 41L26 39ZM0 40L0 41L1 41L1 42L0 42L0 44L1 44L1 45L2 45L2 43L3 43L3 44L4 44L4 43L5 43L5 42L4 42L4 41L3 41L3 40L2 40L2 41L1 41L1 40ZM40 41L40 42L42 42L42 43L44 43L44 42L42 42L42 41ZM1 42L1 43L2 43L2 42ZM3 42L3 43L4 43L4 42ZM20 42L20 43L21 43L21 42ZM32 42L32 43L29 43L29 44L30 44L30 45L31 45L31 46L32 46L32 45L33 45L33 42ZM37 42L37 44L38 44L38 43L39 43L39 42ZM22 44L22 46L23 46L23 45L25 45L25 44ZM6 45L6 46L7 46L7 45ZM10 47L10 48L11 48L11 47ZM41 48L41 49L42 49L42 48ZM46 48L46 50L47 50L47 52L48 52L48 48ZM56 48L56 49L57 49L57 48ZM27 49L27 52L30 52L30 49ZM36 49L36 50L37 50L37 49ZM49 49L49 52L52 52L52 49ZM24 50L24 51L25 51L25 50ZM28 50L28 51L29 51L29 50ZM50 50L50 51L51 51L51 50ZM16 51L16 52L18 52L18 51ZM31 51L31 53L32 53L32 51ZM56 51L56 52L57 52L57 51ZM33 52L33 53L34 53L34 52ZM40 52L40 54L41 54L41 52ZM42 52L42 54L43 54L43 52ZM45 52L45 53L46 53L46 52ZM17 53L17 54L18 54L18 53ZM21 53L21 54L22 54L22 53ZM48 53L48 54L50 54L50 53ZM44 54L44 55L45 55L45 54ZM46 55L46 56L47 56L47 55ZM48 55L48 56L49 56L49 55ZM56 55L56 56L57 56L57 55ZM52 56L52 57L53 57L53 56ZM54 56L54 57L55 57L55 56ZM0 0L0 7L7 7L7 0ZM1 1L1 6L6 6L6 1ZM2 2L2 5L5 5L5 2ZM50 0L50 7L57 7L57 0ZM51 1L51 6L56 6L56 1ZM52 2L52 5L55 5L55 2ZM0 50L0 57L7 57L7 50ZM1 51L1 56L6 56L6 51ZM2 52L2 55L5 55L5 52Z" fill="#000000"/></g></g></svg>
