<?xml version="1.0" encoding="UTF-8"?>
<svg xmlns="http://www.w3.org/2000/svg" version="1.1" width="300" height="300" viewBox="0 0 300 300"><rect x="0" y="0" width="300" height="300" fill="#fefefe"/><g transform="scale(4.615)"><g transform="translate(4,4)"><path fill-rule="evenodd" d="M8 0L8 4L9 4L9 5L8 5L8 7L9 7L9 6L10 6L10 7L11 7L11 6L10 6L10 5L11 5L11 4L12 4L12 5L13 5L13 6L12 6L12 7L13 7L13 6L14 6L14 9L13 9L13 8L11 8L11 9L12 9L12 10L10 10L10 8L9 8L9 10L8 10L8 11L7 11L7 10L6 10L6 9L7 9L7 8L4 8L4 9L5 9L5 10L6 10L6 11L4 11L4 12L5 12L5 13L4 13L4 17L3 17L3 19L4 19L4 17L7 17L7 18L5 18L5 19L9 19L9 18L8 18L8 17L10 17L10 16L11 16L11 17L12 17L12 16L13 16L13 15L14 15L14 17L13 17L13 18L15 18L15 20L14 20L14 19L13 19L13 21L12 21L12 18L10 18L10 20L9 20L9 21L7 21L7 20L6 20L6 21L5 21L5 20L4 20L4 21L2 21L2 22L3 22L3 24L2 24L2 23L1 23L1 24L0 24L0 25L1 25L1 24L2 24L2 27L0 27L0 29L1 29L1 28L2 28L2 29L3 29L3 30L2 30L2 31L0 31L0 32L1 32L1 33L2 33L2 34L0 34L0 37L1 37L1 35L2 35L2 39L1 39L1 38L0 38L0 43L1 43L1 44L2 44L2 42L1 42L1 41L2 41L2 40L3 40L3 42L4 42L4 43L3 43L3 44L4 44L4 46L5 46L5 47L3 47L3 46L2 46L2 45L0 45L0 48L5 48L5 47L7 47L7 48L6 48L6 49L8 49L8 50L10 50L10 49L8 49L8 48L9 48L9 47L10 47L10 48L11 48L11 51L8 51L8 53L9 53L9 54L10 54L10 55L8 55L8 57L9 57L9 56L10 56L10 55L11 55L11 54L12 54L12 56L11 56L11 57L15 57L15 56L13 56L13 55L16 55L16 54L17 54L17 57L20 57L20 56L18 56L18 54L19 54L19 55L20 55L20 54L21 54L21 53L22 53L22 54L23 54L23 55L24 55L24 57L25 57L25 55L26 55L26 54L27 54L27 53L28 53L28 57L29 57L29 55L30 55L30 57L34 57L34 55L35 55L35 57L37 57L37 56L36 56L36 54L37 54L37 55L39 55L39 57L40 57L40 54L41 54L41 55L42 55L42 56L43 56L43 55L44 55L44 57L45 57L45 55L46 55L46 56L47 56L47 55L46 55L46 53L47 53L47 54L49 54L49 55L48 55L48 56L49 56L49 57L50 57L50 55L51 55L51 56L53 56L53 57L54 57L54 55L53 55L53 50L54 50L54 51L55 51L55 52L54 52L54 53L55 53L55 54L57 54L57 53L55 53L55 52L56 52L56 50L57 50L57 49L56 49L56 45L57 45L57 43L56 43L56 42L57 42L57 40L53 40L53 39L54 39L54 38L55 38L55 39L57 39L57 38L55 38L55 36L56 36L56 37L57 37L57 35L56 35L56 34L55 34L55 33L56 33L56 30L55 30L55 29L57 29L57 27L56 27L56 25L57 25L57 24L56 24L56 21L57 21L57 20L55 20L55 24L54 24L54 25L53 25L53 26L51 26L51 25L52 25L52 24L53 24L53 23L52 23L52 22L54 22L54 21L52 21L52 20L53 20L53 19L52 19L52 18L53 18L53 17L55 17L55 16L56 16L56 18L55 18L55 19L56 19L56 18L57 18L57 15L56 15L56 13L54 13L54 12L53 12L53 13L52 13L52 14L51 14L51 12L52 12L52 11L54 11L54 10L52 10L52 8L51 8L51 9L50 9L50 10L49 10L49 9L47 9L47 12L49 12L49 11L50 11L50 16L49 16L49 15L48 15L48 17L47 17L47 16L46 16L46 11L45 11L45 9L46 9L46 8L44 8L44 7L45 7L45 6L46 6L46 7L47 7L47 8L49 8L49 6L48 6L48 7L47 7L47 5L48 5L48 0L41 0L41 1L40 1L40 2L39 2L39 3L37 3L37 2L38 2L38 1L39 1L39 0L38 0L38 1L37 1L37 2L36 2L36 0L35 0L35 1L34 1L34 0L32 0L32 1L31 1L31 0L23 0L23 1L21 1L21 0L20 0L20 2L19 2L19 1L18 1L18 0L17 0L17 2L16 2L16 0L10 0L10 2L9 2L9 0ZM12 1L12 2L13 2L13 1ZM14 1L14 4L15 4L15 5L14 5L14 6L15 6L15 7L16 7L16 6L17 6L17 8L18 8L18 6L19 6L19 7L20 7L20 6L21 6L21 7L22 7L22 6L23 6L23 7L24 7L24 8L25 8L25 10L23 10L23 8L22 8L22 10L20 10L20 9L19 9L19 10L18 10L18 11L17 11L17 9L16 9L16 8L15 8L15 9L16 9L16 11L15 11L15 12L14 12L14 11L13 11L13 12L11 12L11 11L9 11L9 13L8 13L8 14L9 14L9 15L10 15L10 14L11 14L11 13L12 13L12 14L13 14L13 13L15 13L15 14L17 14L17 13L18 13L18 12L19 12L19 16L21 16L21 17L26 17L26 16L27 16L27 15L28 15L28 14L27 14L27 13L29 13L29 16L31 16L31 15L30 15L30 13L31 13L31 14L33 14L33 13L34 13L34 18L33 18L33 17L32 17L32 19L34 19L34 18L37 18L37 22L35 22L35 20L36 20L36 19L35 19L35 20L34 20L34 22L31 22L31 23L30 23L30 21L32 21L32 20L30 20L30 18L28 18L28 17L27 17L27 19L26 19L26 20L25 20L25 18L24 18L24 19L23 19L23 18L20 18L20 17L15 17L15 18L17 18L17 19L16 19L16 20L15 20L15 21L17 21L17 22L16 22L16 23L15 23L15 24L14 24L14 25L15 25L15 24L16 24L16 26L17 26L17 27L18 27L18 25L17 25L17 24L18 24L18 23L19 23L19 25L21 25L21 26L20 26L20 27L19 27L19 28L18 28L18 29L15 29L15 28L16 28L16 27L15 27L15 26L14 26L14 27L13 27L13 28L12 28L12 26L11 26L11 25L13 25L13 23L12 23L12 21L11 21L11 22L10 22L10 21L9 21L9 23L8 23L8 24L7 24L7 23L6 23L6 24L5 24L5 23L4 23L4 24L3 24L3 25L4 25L4 26L3 26L3 27L2 27L2 28L3 28L3 29L4 29L4 26L5 26L5 25L6 25L6 26L8 26L8 24L9 24L9 23L11 23L11 24L10 24L10 25L9 25L9 26L11 26L11 27L9 27L9 29L10 29L10 30L11 30L11 29L12 29L12 30L13 30L13 31L11 31L11 32L9 32L9 31L6 31L6 32L8 32L8 34L7 34L7 33L6 33L6 34L4 34L4 32L5 32L5 31L2 31L2 33L3 33L3 34L4 34L4 35L3 35L3 37L6 37L6 38L3 38L3 40L4 40L4 39L6 39L6 40L9 40L9 41L10 41L10 42L11 42L11 44L9 44L9 42L8 42L8 44L9 44L9 45L8 45L8 47L9 47L9 46L10 46L10 47L11 47L11 48L12 48L12 51L13 51L13 52L12 52L12 54L15 54L15 53L17 53L17 52L18 52L18 51L17 51L17 50L18 50L18 49L13 49L13 48L15 48L15 47L16 47L16 46L17 46L17 45L18 45L18 44L19 44L19 46L18 46L18 48L19 48L19 49L21 49L21 50L20 50L20 51L21 51L21 50L22 50L22 49L23 49L23 48L24 48L24 49L26 49L26 48L28 48L28 46L29 46L29 47L30 47L30 48L31 48L31 52L32 52L32 51L33 51L33 52L34 52L34 54L33 54L33 53L32 53L32 54L33 54L33 55L34 55L34 54L35 54L35 52L36 52L36 49L35 49L35 48L34 48L34 51L33 51L33 49L32 49L32 48L31 48L31 47L33 47L33 46L32 46L32 44L31 44L31 42L29 42L29 41L30 41L30 40L28 40L28 42L27 42L27 41L26 41L26 42L25 42L25 43L23 43L23 41L25 41L25 40L26 40L26 38L24 38L24 37L23 37L23 36L22 36L22 39L24 39L24 40L22 40L22 41L21 41L21 43L22 43L22 44L24 44L24 45L25 45L25 43L27 43L27 44L28 44L28 46L27 46L27 45L26 45L26 46L23 46L23 45L21 45L21 46L20 46L20 41L18 41L18 40L19 40L19 39L20 39L20 38L21 38L21 37L17 37L17 36L16 36L16 37L14 37L14 36L15 36L15 34L16 34L16 35L18 35L18 36L21 36L21 35L22 35L22 34L23 34L23 33L26 33L26 32L23 32L23 31L22 31L22 30L23 30L23 28L22 28L22 27L21 27L21 26L22 26L22 25L23 25L23 24L24 24L24 23L22 23L22 25L21 25L21 22L20 22L20 23L19 23L19 21L20 21L20 19L21 19L21 21L24 21L24 22L25 22L25 23L26 23L26 22L27 22L27 24L28 24L28 25L27 25L27 26L29 26L29 24L28 24L28 22L29 22L29 23L30 23L30 24L31 24L31 29L32 29L32 28L33 28L33 27L34 27L34 31L32 31L32 30L31 30L31 31L32 31L32 32L30 32L30 31L29 31L29 33L28 33L28 34L27 34L27 35L26 35L26 36L25 36L25 34L24 34L24 36L25 36L25 37L26 37L26 36L28 36L28 37L27 37L27 39L28 39L28 38L29 38L29 39L31 39L31 41L32 41L32 43L33 43L33 44L35 44L35 43L33 43L33 41L32 41L32 40L33 40L33 39L31 39L31 38L33 38L33 37L32 37L32 36L31 36L31 35L32 35L32 34L33 34L33 35L34 35L34 42L35 42L35 39L37 39L37 42L38 42L38 39L40 39L40 41L39 41L39 42L40 42L40 43L41 43L41 42L40 42L40 41L41 41L41 40L42 40L42 37L41 37L41 35L42 35L42 34L40 34L40 33L41 33L41 32L40 32L40 30L41 30L41 29L43 29L43 30L44 30L44 31L45 31L45 30L46 30L46 31L47 31L47 33L46 33L46 34L45 34L45 33L43 33L43 37L44 37L44 38L43 38L43 39L45 39L45 40L46 40L46 42L47 42L47 43L45 43L45 41L43 41L43 42L42 42L42 44L43 44L43 45L44 45L44 46L43 46L43 47L42 47L42 49L43 49L43 50L42 50L42 52L41 52L41 46L40 46L40 45L41 45L41 44L40 44L40 45L39 45L39 44L37 44L37 43L36 43L36 44L37 44L37 45L36 45L36 46L35 46L35 45L34 45L34 47L36 47L36 48L37 48L37 46L38 46L38 45L39 45L39 47L38 47L38 49L37 49L37 54L38 54L38 52L40 52L40 53L42 53L42 52L43 52L43 53L44 53L44 55L45 55L45 53L46 53L46 52L47 52L47 53L48 53L48 52L47 52L47 51L46 51L46 50L47 50L47 49L48 49L48 47L49 47L49 46L50 46L50 47L51 47L51 48L52 48L52 47L51 47L51 45L50 45L50 43L51 43L51 44L52 44L52 43L53 43L53 44L54 44L54 45L52 45L52 46L54 46L54 45L56 45L56 44L55 44L55 42L56 42L56 41L55 41L55 42L54 42L54 43L53 43L53 41L52 41L52 38L53 38L53 36L55 36L55 35L53 35L53 34L54 34L54 33L55 33L55 30L53 30L53 31L52 31L52 32L53 32L53 31L54 31L54 33L51 33L51 32L50 32L50 31L49 31L49 32L50 32L50 35L49 35L49 36L47 36L47 35L46 35L46 34L49 34L49 33L48 33L48 31L47 31L47 29L46 29L46 28L48 28L48 26L47 26L47 25L48 25L48 24L46 24L46 26L47 26L47 27L45 27L45 26L44 26L44 27L45 27L45 29L43 29L43 28L42 28L42 27L41 27L41 28L40 28L40 29L39 29L39 32L40 32L40 33L39 33L39 34L38 34L38 33L37 33L37 34L38 34L38 35L40 35L40 36L39 36L39 37L41 37L41 39L40 39L40 38L38 38L38 36L37 36L37 38L35 38L35 32L34 32L34 31L36 31L36 30L37 30L37 32L38 32L38 30L37 30L37 29L38 29L38 28L37 28L37 27L40 27L40 26L38 26L38 19L39 19L39 18L40 18L40 21L39 21L39 24L40 24L40 25L44 25L44 24L45 24L45 23L50 23L50 25L49 25L49 26L50 26L50 25L51 25L51 24L52 24L52 23L50 23L50 22L47 22L47 20L48 20L48 21L51 21L51 22L52 22L52 21L51 21L51 20L49 20L49 19L50 19L50 17L51 17L51 18L52 18L52 17L53 17L53 16L55 16L55 14L52 14L52 17L51 17L51 16L50 16L50 17L49 17L49 18L48 18L48 19L47 19L47 17L45 17L45 20L46 20L46 22L44 22L44 16L45 16L45 13L44 13L44 12L45 12L45 11L44 11L44 8L43 8L43 7L44 7L44 4L45 4L45 5L47 5L47 3L44 3L44 2L43 2L43 3L42 3L42 2L40 2L40 3L39 3L39 4L40 4L40 3L41 3L41 5L39 5L39 7L40 7L40 6L41 6L41 8L40 8L40 9L39 9L39 8L38 8L38 9L35 9L35 7L36 7L36 5L37 5L37 7L38 7L38 4L37 4L37 3L36 3L36 2L35 2L35 4L34 4L34 3L32 3L32 2L31 2L31 1L25 1L25 3L23 3L23 5L22 5L22 2L21 2L21 3L18 3L18 2L17 2L17 4L16 4L16 2L15 2L15 1ZM33 1L33 2L34 2L34 1ZM45 1L45 2L47 2L47 1ZM27 2L27 3L28 3L28 4L26 4L26 3L25 3L25 4L24 4L24 5L23 5L23 6L24 6L24 7L25 7L25 6L26 6L26 9L28 9L28 11L27 11L27 10L25 10L25 11L23 11L23 12L22 12L22 11L21 11L21 12L20 12L20 10L19 10L19 12L20 12L20 14L21 14L21 15L22 15L22 16L23 16L23 15L25 15L25 16L26 16L26 11L27 11L27 12L28 12L28 11L29 11L29 12L32 12L32 13L33 13L33 12L32 12L32 11L33 11L33 10L34 10L34 12L35 12L35 13L36 13L36 14L37 14L37 12L39 12L39 11L40 11L40 10L41 10L41 12L43 12L43 11L42 11L42 10L43 10L43 9L42 9L42 8L41 8L41 9L40 9L40 10L39 10L39 9L38 9L38 10L37 10L37 12L36 12L36 10L34 10L34 9L33 9L33 8L34 8L34 7L35 7L35 5L36 5L36 4L35 4L35 5L32 5L32 3L31 3L31 4L30 4L30 3L29 3L29 2ZM9 3L9 4L10 4L10 3ZM43 3L43 4L42 4L42 5L41 5L41 6L42 6L42 7L43 7L43 6L42 6L42 5L43 5L43 4L44 4L44 3ZM17 4L17 6L18 6L18 5L19 5L19 6L20 6L20 5L19 5L19 4ZM15 5L15 6L16 6L16 5ZM21 5L21 6L22 6L22 5ZM27 5L27 8L30 8L30 5ZM28 6L28 7L29 7L29 6ZM31 6L31 10L30 10L30 11L32 11L32 8L33 8L33 7L34 7L34 6L33 6L33 7L32 7L32 6ZM0 8L0 9L2 9L2 8ZM53 8L53 9L55 9L55 11L56 11L56 10L57 10L57 8ZM1 10L1 11L0 11L0 13L2 13L2 14L1 14L1 15L0 15L0 16L1 16L1 15L2 15L2 14L3 14L3 12L2 12L2 10ZM48 10L48 11L49 11L49 10ZM50 10L50 11L52 11L52 10ZM6 11L6 12L7 12L7 11ZM16 11L16 12L15 12L15 13L17 13L17 11ZM10 12L10 13L9 13L9 14L10 14L10 13L11 13L11 12ZM23 12L23 13L21 13L21 14L22 14L22 15L23 15L23 13L25 13L25 12ZM6 13L6 14L7 14L7 13ZM38 13L38 15L39 15L39 17L38 17L38 16L37 16L37 15L35 15L35 17L38 17L38 18L39 18L39 17L40 17L40 18L41 18L41 20L42 20L42 18L43 18L43 17L42 17L42 15L43 15L43 16L44 16L44 15L43 15L43 13L41 13L41 14L40 14L40 13ZM47 13L47 14L49 14L49 13ZM5 15L5 16L8 16L8 15ZM40 15L40 17L41 17L41 15ZM1 17L1 18L0 18L0 20L1 20L1 18L2 18L2 17ZM19 18L19 19L18 19L18 20L17 20L17 21L19 21L19 19L20 19L20 18ZM27 19L27 20L26 20L26 21L28 21L28 19ZM46 19L46 20L47 20L47 19ZM24 20L24 21L25 21L25 20ZM29 20L29 21L30 21L30 20ZM0 21L0 22L1 22L1 21ZM4 21L4 22L5 22L5 21ZM6 21L6 22L7 22L7 21ZM13 21L13 22L14 22L14 21ZM40 21L40 22L43 22L43 23L41 23L41 24L44 24L44 22L43 22L43 21ZM34 22L34 23L32 23L32 27L33 27L33 26L34 26L34 25L37 25L37 24L34 24L34 23L35 23L35 22ZM6 24L6 25L7 25L7 24ZM33 24L33 25L34 25L34 24ZM55 24L55 25L56 25L56 24ZM25 25L25 27L26 27L26 25ZM23 26L23 27L24 27L24 26ZM36 26L36 27L35 27L35 30L36 30L36 29L37 29L37 28L36 28L36 27L37 27L37 26ZM54 26L54 27L53 27L53 28L54 28L54 29L55 29L55 28L56 28L56 27L55 27L55 26ZM5 27L5 30L8 30L8 27ZM20 27L20 28L21 28L21 27ZM27 27L27 30L30 30L30 27ZM49 27L49 30L52 30L52 27ZM6 28L6 29L7 29L7 28ZM10 28L10 29L11 29L11 28ZM13 28L13 29L14 29L14 28ZM28 28L28 29L29 29L29 28ZM50 28L50 29L51 29L51 28ZM18 29L18 30L20 30L20 31L21 31L21 33L20 33L20 34L18 34L18 33L19 33L19 32L18 32L18 31L17 31L17 30L15 30L15 31L16 31L16 32L14 32L14 33L12 33L12 34L14 34L14 33L17 33L17 34L18 34L18 35L20 35L20 34L21 34L21 33L22 33L22 31L21 31L21 30L22 30L22 29ZM25 29L25 30L24 30L24 31L25 31L25 30L26 30L26 29ZM27 31L27 32L28 32L28 31ZM32 32L32 33L29 33L29 34L28 34L28 36L29 36L29 37L31 37L31 36L30 36L30 34L32 34L32 33L34 33L34 32ZM10 33L10 34L9 34L9 35L8 35L8 38L6 38L6 39L10 39L10 37L11 37L11 38L12 38L12 39L11 39L11 40L10 40L10 41L11 41L11 42L12 42L12 41L11 41L11 40L14 40L14 39L15 39L15 40L17 40L17 39L19 39L19 38L16 38L16 39L15 39L15 38L14 38L14 37L13 37L13 38L12 38L12 36L13 36L13 35L11 35L11 33ZM6 34L6 35L7 35L7 34ZM9 35L9 36L10 36L10 35ZM44 35L44 37L45 37L45 38L46 38L46 39L47 39L47 40L49 40L49 39L50 39L50 40L51 40L51 39L50 39L50 38L52 38L52 36L53 36L53 35L50 35L50 36L49 36L49 37L48 37L48 39L47 39L47 38L46 38L46 37L45 37L45 36L46 36L46 35ZM6 36L6 37L7 37L7 36ZM50 36L50 37L51 37L51 36ZM37 38L37 39L38 39L38 38ZM4 41L4 42L5 42L5 43L4 43L4 44L5 44L5 46L7 46L7 45L6 45L6 44L7 44L7 43L6 43L6 42L7 42L7 41L6 41L6 42L5 42L5 41ZM13 41L13 43L14 43L14 41ZM15 41L15 42L16 42L16 43L18 43L18 41L17 41L17 42L16 42L16 41ZM48 41L48 42L49 42L49 43L47 43L47 44L46 44L46 45L45 45L45 43L44 43L44 42L43 42L43 43L44 43L44 45L45 45L45 46L44 46L44 49L45 49L45 50L46 50L46 49L47 49L47 47L48 47L48 46L49 46L49 43L50 43L50 42L49 42L49 41ZM51 41L51 43L52 43L52 41ZM28 42L28 43L29 43L29 42ZM5 43L5 44L6 44L6 43ZM13 44L13 46L11 46L11 47L13 47L13 46L14 46L14 47L15 47L15 46L16 46L16 44L15 44L15 46L14 46L14 44ZM47 44L47 45L46 45L46 47L45 47L45 49L46 49L46 47L47 47L47 45L48 45L48 44ZM1 46L1 47L2 47L2 46ZM21 46L21 47L19 47L19 48L21 48L21 49L22 49L22 48L23 48L23 47L22 47L22 46ZM26 46L26 47L25 47L25 48L26 48L26 47L27 47L27 46ZM21 47L21 48L22 48L22 47ZM39 47L39 49L38 49L38 51L40 51L40 47ZM53 47L53 49L55 49L55 50L56 50L56 49L55 49L55 47ZM27 49L27 52L30 52L30 49ZM49 49L49 52L52 52L52 49ZM15 50L15 51L14 51L14 52L13 52L13 53L15 53L15 51L16 51L16 50ZM28 50L28 51L29 51L29 50ZM43 50L43 52L44 52L44 53L45 53L45 52L46 52L46 51L44 51L44 50ZM50 50L50 51L51 51L51 50ZM22 51L22 53L24 53L24 54L26 54L26 51L25 51L25 53L24 53L24 52L23 52L23 51ZM19 52L19 53L20 53L20 52ZM10 53L10 54L11 54L11 53ZM30 53L30 54L31 54L31 53ZM49 53L49 54L51 54L51 55L52 55L52 54L51 54L51 53ZM42 54L42 55L43 55L43 54ZM21 55L21 57L22 57L22 55ZM26 56L26 57L27 57L27 56ZM56 56L56 57L57 57L57 56ZM0 0L0 7L7 7L7 0ZM1 1L1 6L6 6L6 1ZM2 2L2 5L5 5L5 2ZM50 0L50 7L57 7L57 0ZM51 1L51 6L56 6L56 1ZM52 2L52 5L55 5L55 2ZM0 50L0 57L7 57L7 50ZM1 51L1 56L6 56L6 51ZM2 52L2 55L5 55L5 52Z" fill="#000000"/></g></g></svg>
