<?xml version="1.0" encoding="UTF-8"?>
<svg xmlns="http://www.w3.org/2000/svg" version="1.1" width="300" height="300" viewBox="0 0 300 300"><rect x="0" y="0" width="300" height="300" fill="#fefefe"/><g transform="scale(4.615)"><g transform="translate(4,4)"><path fill-rule="evenodd" d="M8 0L8 2L9 2L9 3L10 3L10 4L8 4L8 9L7 9L7 8L5 8L5 9L7 9L7 10L4 10L4 9L3 9L3 8L0 8L0 9L2 9L2 11L1 11L1 12L0 12L0 13L2 13L2 14L0 14L0 15L2 15L2 16L1 16L1 17L0 17L0 20L1 20L1 17L2 17L2 18L4 18L4 19L2 19L2 22L3 22L3 21L4 21L4 24L3 24L3 23L0 23L0 24L1 24L1 25L0 25L0 29L2 29L2 30L3 30L3 31L0 31L0 32L1 32L1 33L0 33L0 34L1 34L1 35L0 35L0 36L1 36L1 37L0 37L0 38L1 38L1 39L0 39L0 40L1 40L1 41L2 41L2 42L0 42L0 43L2 43L2 44L0 44L0 45L2 45L2 44L3 44L3 46L2 46L2 47L1 47L1 46L0 46L0 48L5 48L5 47L7 47L7 48L6 48L6 49L8 49L8 50L9 50L9 49L8 49L8 46L6 46L6 45L9 45L9 47L11 47L11 48L10 48L10 51L8 51L8 52L9 52L9 54L8 54L8 57L15 57L15 56L16 56L16 57L17 57L17 55L19 55L19 54L18 54L18 53L19 53L19 52L20 52L20 53L21 53L21 50L20 50L20 49L21 49L21 48L22 48L22 51L24 51L24 52L22 52L22 53L23 53L23 55L22 55L22 54L20 54L20 55L22 55L22 57L24 57L24 56L25 56L25 55L24 55L24 54L25 54L25 51L26 51L26 53L28 53L28 55L27 55L27 54L26 54L26 55L27 55L27 56L26 56L26 57L28 57L28 55L29 55L29 57L33 57L33 55L30 55L30 54L31 54L31 53L32 53L32 54L34 54L34 57L35 57L35 55L38 55L38 52L37 52L37 51L38 51L38 47L37 47L37 48L36 48L36 49L37 49L37 51L35 51L35 50L34 50L34 48L32 48L32 47L34 47L34 45L33 45L33 44L35 44L35 43L36 43L36 41L37 41L37 42L38 42L38 41L39 41L39 38L40 38L40 42L39 42L39 43L37 43L37 44L36 44L36 45L35 45L35 47L36 47L36 45L37 45L37 46L38 46L38 45L37 45L37 44L39 44L39 45L40 45L40 46L41 46L41 47L40 47L40 49L39 49L39 52L40 52L40 53L39 53L39 55L40 55L40 57L42 57L42 56L44 56L44 57L47 57L47 56L48 56L48 57L50 57L50 55L49 55L49 54L52 54L52 55L53 55L53 53L54 53L54 55L57 55L57 54L55 54L55 52L54 52L54 51L53 51L53 50L54 50L54 45L53 45L53 46L52 46L52 45L51 45L51 44L52 44L52 39L53 39L53 44L54 44L54 43L55 43L55 44L56 44L56 47L55 47L55 51L57 51L57 49L56 49L56 47L57 47L57 42L56 42L56 43L55 43L55 42L54 42L54 41L57 41L57 40L54 40L54 39L55 39L55 38L57 38L57 36L56 36L56 35L57 35L57 34L56 34L56 35L55 35L55 36L54 36L54 34L53 34L53 36L51 36L51 33L50 33L50 32L52 32L52 31L53 31L53 33L56 33L56 31L57 31L57 29L56 29L56 27L57 27L57 24L56 24L56 23L57 23L57 21L56 21L56 20L57 20L57 10L56 10L56 9L57 9L57 8L55 8L55 9L54 9L54 10L52 10L52 9L53 9L53 8L49 8L49 10L48 10L48 7L49 7L49 6L48 6L48 7L47 7L47 5L48 5L48 0L46 0L46 1L45 1L45 0L42 0L42 1L41 1L41 0L38 0L38 2L37 2L37 1L35 1L35 0L34 0L34 3L33 3L33 4L34 4L34 5L33 5L33 6L32 6L32 7L33 7L33 6L34 6L34 8L32 8L32 9L31 9L31 5L32 5L32 2L31 2L31 0L30 0L30 1L29 1L29 3L30 3L30 4L26 4L26 3L27 3L27 1L28 1L28 0L26 0L26 2L25 2L25 4L24 4L24 1L25 1L25 0L24 0L24 1L23 1L23 0L19 0L19 1L17 1L17 0L16 0L16 1L17 1L17 2L18 2L18 3L17 3L17 4L16 4L16 2L15 2L15 0L13 0L13 1L12 1L12 0L11 0L11 1L10 1L10 0ZM13 1L13 2L12 2L12 3L14 3L14 4L15 4L15 3L14 3L14 1ZM19 1L19 2L20 2L20 3L18 3L18 5L16 5L16 6L15 6L15 8L16 8L16 10L17 10L17 9L18 9L18 10L19 10L19 9L20 9L20 10L21 10L21 13L20 13L20 14L19 14L19 13L18 13L18 14L19 14L19 15L15 15L15 14L17 14L17 12L16 12L16 11L15 11L15 9L14 9L14 8L13 8L13 7L14 7L14 5L13 5L13 4L12 4L12 5L13 5L13 7L12 7L12 6L11 6L11 5L9 5L9 10L8 10L8 11L4 11L4 12L2 12L2 13L5 13L5 12L9 12L9 10L11 10L11 11L10 11L10 15L9 15L9 14L8 14L8 15L9 15L9 16L10 16L10 17L4 17L4 16L5 16L5 14L4 14L4 15L3 15L3 17L4 17L4 18L5 18L5 19L6 19L6 20L5 20L5 22L8 22L8 24L9 24L9 22L10 22L10 21L11 21L11 24L13 24L13 28L14 28L14 27L15 27L15 26L14 26L14 22L15 22L15 21L14 21L14 22L13 22L13 18L15 18L15 17L14 17L14 16L13 16L13 15L15 15L15 16L17 16L17 17L16 17L16 19L14 19L14 20L17 20L17 22L16 22L16 23L17 23L17 24L16 24L16 26L17 26L17 27L16 27L16 28L15 28L15 29L14 29L14 30L13 30L13 31L14 31L14 33L13 33L13 32L12 32L12 31L11 31L11 32L10 32L10 34L9 34L9 31L10 31L10 29L11 29L11 27L10 27L10 26L12 26L12 25L10 25L10 26L9 26L9 27L10 27L10 28L9 28L9 31L3 31L3 32L2 32L2 35L1 35L1 36L2 36L2 38L3 38L3 39L2 39L2 41L3 41L3 40L4 40L4 42L3 42L3 43L4 43L4 44L5 44L5 41L6 41L6 42L7 42L7 43L6 43L6 44L7 44L7 43L8 43L8 44L9 44L9 43L8 43L8 42L7 42L7 41L8 41L8 39L6 39L6 40L5 40L5 39L4 39L4 38L5 38L5 36L4 36L4 35L6 35L6 36L10 36L10 37L11 37L11 35L12 35L12 36L13 36L13 35L14 35L14 36L15 36L15 37L13 37L13 38L12 38L12 40L13 40L13 38L14 38L14 39L15 39L15 40L14 40L14 41L13 41L13 42L12 42L12 43L11 43L11 45L12 45L12 43L13 43L13 47L14 47L14 49L15 49L15 48L16 48L16 47L17 47L17 49L16 49L16 51L15 51L15 52L16 52L16 51L17 51L17 53L18 53L18 51L19 51L19 49L20 49L20 48L21 48L21 46L22 46L22 48L23 48L23 49L24 49L24 51L25 51L25 50L26 50L26 49L25 49L25 48L27 48L27 47L28 47L28 48L31 48L31 50L32 50L32 48L31 48L31 47L32 47L32 46L33 46L33 45L32 45L32 44L30 44L30 42L31 42L31 43L32 43L32 40L33 40L33 41L34 41L34 42L35 42L35 41L36 41L36 38L37 38L37 41L38 41L38 38L39 38L39 37L38 37L38 38L37 38L37 37L36 37L36 35L38 35L38 36L40 36L40 35L41 35L41 37L42 37L42 38L41 38L41 41L42 41L42 42L44 42L44 39L43 39L43 38L44 38L44 35L43 35L43 33L42 33L42 31L43 31L43 28L42 28L42 31L40 31L40 32L39 32L39 33L38 33L38 34L37 34L37 33L36 33L36 31L37 31L37 32L38 32L38 31L39 31L39 30L40 30L40 28L41 28L41 27L45 27L45 25L44 25L44 24L45 24L45 23L46 23L46 24L47 24L47 25L46 25L46 26L47 26L47 28L46 28L46 29L44 29L44 31L45 31L45 33L46 33L46 34L45 34L45 36L46 36L46 38L45 38L45 39L46 39L46 38L47 38L47 40L48 40L48 41L46 41L46 40L45 40L45 41L46 41L46 42L47 42L47 43L48 43L48 42L49 42L49 44L50 44L50 42L49 42L49 41L51 41L51 40L48 40L48 39L50 39L50 38L51 38L51 37L50 37L50 38L48 38L48 37L49 37L49 36L50 36L50 33L49 33L49 34L48 34L48 33L47 33L47 30L48 30L48 29L47 29L47 28L48 28L48 26L49 26L49 25L50 25L50 26L51 26L51 25L52 25L52 24L53 24L53 25L54 25L54 26L55 26L55 25L56 25L56 24L55 24L55 23L56 23L56 21L55 21L55 20L56 20L56 16L55 16L55 15L56 15L56 13L55 13L55 11L56 11L56 10L55 10L55 11L54 11L54 12L53 12L53 13L55 13L55 15L54 15L54 16L55 16L55 19L54 19L54 17L52 17L52 16L53 16L53 14L52 14L52 13L50 13L50 10L51 10L51 9L50 9L50 10L49 10L49 12L48 12L48 11L47 11L47 9L46 9L46 8L47 8L47 7L46 7L46 6L45 6L45 5L44 5L44 4L45 4L45 1L42 1L42 3L41 3L41 2L40 2L40 1L39 1L39 2L40 2L40 4L39 4L39 5L38 5L38 3L37 3L37 2L35 2L35 3L34 3L34 4L35 4L35 9L34 9L34 10L33 10L33 9L32 9L32 11L31 11L31 12L30 12L30 11L29 11L29 9L28 9L28 11L27 11L27 10L25 10L25 9L26 9L26 5L24 5L24 6L23 6L23 2L22 2L22 6L21 6L21 9L20 9L20 8L19 8L19 9L18 9L18 5L19 5L19 7L20 7L20 5L21 5L21 2L20 2L20 1ZM46 1L46 2L47 2L47 1ZM30 2L30 3L31 3L31 2ZM43 2L43 3L42 3L42 5L43 5L43 6L42 6L42 7L41 7L41 6L40 6L40 7L41 7L41 8L40 8L40 9L39 9L39 10L38 10L38 8L39 8L39 6L38 6L38 7L37 7L37 6L36 6L36 10L34 10L34 11L32 11L32 14L33 14L33 15L31 15L31 16L30 16L30 15L29 15L29 13L30 13L30 12L29 12L29 11L28 11L28 12L27 12L27 14L24 14L24 12L25 12L25 13L26 13L26 11L24 11L24 9L25 9L25 8L22 8L22 10L23 10L23 11L22 11L22 12L23 12L23 16L22 16L22 14L20 14L20 17L19 17L19 16L18 16L18 18L17 18L17 20L18 20L18 21L19 21L19 19L20 19L20 17L21 17L21 19L22 19L22 18L23 18L23 20L22 20L22 21L21 21L21 20L20 20L20 21L21 21L21 22L20 22L20 23L21 23L21 28L20 28L20 24L18 24L18 26L19 26L19 27L18 27L18 28L20 28L20 29L19 29L19 31L20 31L20 29L21 29L21 30L22 30L22 33L23 33L23 34L22 34L22 35L25 35L25 36L24 36L24 37L25 37L25 36L28 36L28 37L29 37L29 36L28 36L28 35L31 35L31 36L30 36L30 41L31 41L31 38L33 38L33 39L34 39L34 41L35 41L35 38L36 38L36 37L35 37L35 38L34 38L34 36L35 36L35 35L36 35L36 33L35 33L35 32L34 32L34 29L35 29L35 30L36 30L36 29L37 29L37 28L38 28L38 29L39 29L39 27L40 27L40 26L42 26L42 25L41 25L41 24L42 24L42 23L43 23L43 22L44 22L44 23L45 23L45 22L46 22L46 21L47 21L47 23L48 23L48 25L47 25L47 26L48 26L48 25L49 25L49 24L50 24L50 22L49 22L49 23L48 23L48 21L49 21L49 20L51 20L51 18L52 18L52 17L51 17L51 16L52 16L52 14L51 14L51 16L50 16L50 13L49 13L49 14L48 14L48 12L47 12L47 11L46 11L46 13L45 13L45 12L44 12L44 11L42 11L42 9L43 9L43 10L45 10L45 8L46 8L46 7L45 7L45 6L44 6L44 5L43 5L43 4L44 4L44 2ZM35 3L35 4L36 4L36 3ZM46 3L46 5L47 5L47 3ZM27 5L27 8L30 8L30 5ZM10 6L10 7L11 7L11 9L12 9L12 11L11 11L11 13L12 13L12 14L11 14L11 15L12 15L12 14L13 14L13 9L12 9L12 7L11 7L11 6ZM16 6L16 7L17 7L17 6ZM22 6L22 7L23 7L23 6ZM24 6L24 7L25 7L25 6ZM28 6L28 7L29 7L29 6ZM43 6L43 7L42 7L42 8L43 8L43 9L44 9L44 8L45 8L45 7L44 7L44 6ZM30 9L30 10L31 10L31 9ZM40 9L40 10L39 10L39 11L40 11L40 10L41 10L41 9ZM14 11L14 12L15 12L15 11ZM18 11L18 12L20 12L20 11ZM34 11L34 12L35 12L35 13L34 13L34 15L33 15L33 17L34 17L34 19L33 19L33 20L34 20L34 22L35 22L35 23L36 23L36 24L34 24L34 23L33 23L33 24L34 24L34 26L33 26L33 25L32 25L32 23L31 23L31 22L33 22L33 21L32 21L32 20L31 20L31 19L32 19L32 17L30 17L30 16L29 16L29 15L28 15L28 14L27 14L27 15L26 15L26 16L27 16L27 18L26 18L26 17L25 17L25 15L24 15L24 18L26 18L26 20L27 20L27 21L28 21L28 20L31 20L31 21L30 21L30 22L29 22L29 23L28 23L28 22L26 22L26 23L27 23L27 25L26 25L26 26L29 26L29 25L28 25L28 24L29 24L29 23L31 23L31 24L30 24L30 26L31 26L31 25L32 25L32 27L31 27L31 30L32 30L32 32L30 32L30 31L28 31L28 32L27 32L27 33L28 33L28 34L27 34L27 35L28 35L28 34L29 34L29 32L30 32L30 34L32 34L32 35L35 35L35 33L33 33L33 34L32 34L32 32L33 32L33 30L32 30L32 28L33 28L33 29L34 29L34 27L36 27L36 28L35 28L35 29L36 29L36 28L37 28L37 26L36 26L36 24L37 24L37 25L38 25L38 26L39 26L39 23L41 23L41 22L40 22L40 19L41 19L41 18L40 18L40 15L41 15L41 17L42 17L42 18L43 18L43 17L44 17L44 19L42 19L42 20L43 20L43 21L42 21L42 22L43 22L43 21L44 21L44 22L45 22L45 21L46 21L46 19L45 19L45 17L44 17L44 16L45 16L45 15L44 15L44 16L43 16L43 14L44 14L44 12L42 12L42 11L41 11L41 12L42 12L42 15L41 15L41 13L40 13L40 14L39 14L39 12L37 12L37 11ZM51 11L51 12L52 12L52 11ZM36 12L36 13L37 13L37 14L36 14L36 18L35 18L35 19L34 19L34 20L36 20L36 21L35 21L35 22L36 22L36 23L39 23L39 22L38 22L38 21L39 21L39 19L40 19L40 18L38 18L38 16L37 16L37 15L38 15L38 13L37 13L37 12ZM6 13L6 14L7 14L7 13ZM46 13L46 16L47 16L47 15L48 15L48 14L47 14L47 13ZM6 15L6 16L7 16L7 15ZM34 15L34 17L35 17L35 15ZM28 17L28 18L30 18L30 17ZM46 17L46 18L47 18L47 19L48 19L48 20L47 20L47 21L48 21L48 20L49 20L49 19L50 19L50 18L51 18L51 17L50 17L50 18L49 18L49 17L48 17L48 18L47 18L47 17ZM6 18L6 19L8 19L8 20L6 20L6 21L8 21L8 22L9 22L9 19L8 19L8 18ZM18 18L18 19L19 19L19 18ZM36 18L36 19L37 19L37 18ZM11 19L11 20L12 20L12 19ZM24 19L24 20L25 20L25 19ZM27 19L27 20L28 20L28 19ZM44 19L44 21L45 21L45 19ZM53 19L53 20L52 20L52 22L51 22L51 24L52 24L52 22L53 22L53 21L54 21L54 23L53 23L53 24L54 24L54 25L55 25L55 24L54 24L54 23L55 23L55 21L54 21L54 19ZM37 20L37 21L36 21L36 22L37 22L37 21L38 21L38 20ZM22 21L22 22L23 22L23 21ZM18 22L18 23L19 23L19 22ZM24 22L24 23L25 23L25 22ZM6 23L6 24L4 24L4 25L5 25L5 26L7 26L7 25L6 25L6 24L7 24L7 23ZM2 24L2 25L3 25L3 24ZM24 25L24 26L23 26L23 27L22 27L22 28L23 28L23 29L22 29L22 30L23 30L23 29L24 29L24 34L25 34L25 35L26 35L26 32L25 32L25 31L26 31L26 30L25 30L25 29L24 29L24 26L25 26L25 25ZM43 25L43 26L44 26L44 25ZM1 26L1 28L3 28L3 29L4 29L4 27L3 27L3 26ZM5 27L5 30L8 30L8 27ZM27 27L27 30L30 30L30 27ZM49 27L49 30L52 30L52 27ZM54 27L54 28L53 28L53 29L55 29L55 27ZM6 28L6 29L7 29L7 28ZM28 28L28 29L29 29L29 28ZM50 28L50 29L51 29L51 28ZM15 30L15 31L16 31L16 32L15 32L15 35L16 35L16 37L17 37L17 35L18 35L18 38L16 38L16 39L17 39L17 40L16 40L16 41L15 41L15 43L16 43L16 44L17 44L17 46L18 46L18 47L19 47L19 48L18 48L18 49L17 49L17 51L18 51L18 49L19 49L19 48L20 48L20 45L21 45L21 43L20 43L20 41L21 41L21 42L22 42L22 41L23 41L23 42L24 42L24 41L23 41L23 40L22 40L22 39L23 39L23 36L22 36L22 39L20 39L20 38L21 38L21 36L19 36L19 35L20 35L20 33L21 33L21 32L18 32L18 33L17 33L17 31L18 31L18 30L17 30L17 31L16 31L16 30ZM37 30L37 31L38 31L38 30ZM45 30L45 31L46 31L46 30ZM53 30L53 31L54 31L54 32L55 32L55 31L56 31L56 30ZM3 32L3 33L4 33L4 34L3 34L3 35L2 35L2 36L3 36L3 35L4 35L4 34L5 34L5 32ZM6 32L6 33L7 33L7 32ZM40 32L40 34L42 34L42 33L41 33L41 32ZM12 33L12 35L13 35L13 33ZM16 33L16 34L17 34L17 33ZM18 33L18 35L19 35L19 33ZM6 34L6 35L9 35L9 34ZM38 34L38 35L39 35L39 34ZM46 34L46 36L47 36L47 37L48 37L48 36L49 36L49 35L48 35L48 34ZM47 35L47 36L48 36L48 35ZM31 36L31 37L32 37L32 36ZM42 36L42 37L43 37L43 36ZM53 36L53 37L52 37L52 38L53 38L53 37L54 37L54 38L55 38L55 37L54 37L54 36ZM3 37L3 38L4 38L4 37ZM6 37L6 38L9 38L9 39L11 39L11 38L9 38L9 37ZM26 37L26 38L24 38L24 39L26 39L26 38L27 38L27 37ZM28 38L28 39L29 39L29 38ZM42 39L42 41L43 41L43 39ZM6 40L6 41L7 41L7 40ZM9 40L9 41L10 41L10 42L11 42L11 40ZM21 40L21 41L22 41L22 40ZM25 40L25 41L26 41L26 42L25 42L25 44L24 44L24 45L23 45L23 48L24 48L24 45L26 45L26 46L25 46L25 47L26 47L26 46L28 46L28 47L29 47L29 46L30 46L30 47L31 47L31 46L32 46L32 45L31 45L31 46L30 46L30 44L29 44L29 42L28 42L28 41L29 41L29 40L28 40L28 41L27 41L27 40ZM16 41L16 43L17 43L17 41ZM13 42L13 43L14 43L14 42ZM27 42L27 43L28 43L28 42ZM40 42L40 43L41 43L41 45L42 45L42 47L41 47L41 49L40 49L40 51L41 51L41 52L42 52L42 54L43 54L43 55L44 55L44 56L45 56L45 55L44 55L44 52L42 52L42 51L41 51L41 49L42 49L42 50L43 50L43 51L45 51L45 53L46 53L46 56L47 56L47 55L48 55L48 54L49 54L49 53L46 53L46 51L47 51L47 52L48 52L48 51L47 51L47 44L46 44L46 47L45 47L45 46L44 46L44 44L45 44L45 43L44 43L44 44L43 44L43 43L41 43L41 42ZM18 43L18 44L20 44L20 43ZM22 43L22 44L23 44L23 43ZM14 44L14 45L15 45L15 47L16 47L16 45L15 45L15 44ZM42 44L42 45L43 45L43 44ZM4 45L4 46L3 46L3 47L5 47L5 45ZM18 45L18 46L19 46L19 45ZM28 45L28 46L29 46L29 45ZM49 45L49 48L52 48L52 47L50 47L50 46L51 46L51 45ZM43 46L43 47L44 47L44 50L45 50L45 51L46 51L46 48L45 48L45 47L44 47L44 46ZM12 49L12 50L11 50L11 51L12 51L12 52L11 52L11 53L10 53L10 54L9 54L9 55L10 55L10 56L11 56L11 55L12 55L12 54L13 54L13 56L14 56L14 55L15 55L15 54L14 54L14 50L13 50L13 49ZM27 49L27 52L30 52L30 49ZM49 49L49 52L52 52L52 49ZM28 50L28 51L29 51L29 50ZM33 50L33 51L34 51L34 52L33 52L33 53L34 53L34 54L35 54L35 53L36 53L36 54L37 54L37 53L36 53L36 52L35 52L35 51L34 51L34 50ZM50 50L50 51L51 51L51 50ZM31 51L31 52L32 52L32 51ZM16 54L16 55L17 55L17 54ZM40 54L40 55L41 55L41 54ZM18 56L18 57L20 57L20 56ZM36 56L36 57L37 57L37 56ZM51 56L51 57L53 57L53 56ZM56 56L56 57L57 57L57 56ZM0 0L0 7L7 7L7 0ZM1 1L1 6L6 6L6 1ZM2 2L2 5L5 5L5 2ZM50 0L50 7L57 7L57 0ZM51 1L51 6L56 6L56 1ZM52 2L52 5L55 5L55 2ZM0 50L0 57L7 57L7 50ZM1 51L1 56L6 56L6 51ZM2 52L2 55L5 55L5 52Z" fill="#000000"/></g></g></svg>
