<?xml version="1.0" encoding="UTF-8"?>
<svg xmlns="http://www.w3.org/2000/svg" version="1.1" width="300" height="300" viewBox="0 0 300 300"><rect x="0" y="0" width="300" height="300" fill="#fefefe"/><g transform="scale(4.615)"><g transform="translate(4,4)"><path fill-rule="evenodd" d="M14 0L14 2L12 2L12 1L8 1L8 2L12 2L12 3L8 3L8 4L10 4L10 5L8 5L8 7L9 7L9 6L10 6L10 8L13 8L13 9L10 9L10 10L9 10L9 11L8 11L8 12L6 12L6 11L7 11L7 10L6 10L6 11L5 11L5 8L0 8L0 13L1 13L1 14L2 14L2 16L1 16L1 15L0 15L0 16L1 16L1 17L7 17L7 16L8 16L8 18L6 18L6 19L7 19L7 20L4 20L4 19L5 19L5 18L0 18L0 19L3 19L3 20L4 20L4 21L2 21L2 20L1 20L1 21L0 21L0 22L2 22L2 25L0 25L0 26L2 26L2 28L1 28L1 29L0 29L0 32L1 32L1 31L3 31L3 32L2 32L2 34L3 34L3 37L4 37L4 38L5 38L5 37L4 37L4 36L6 36L6 37L7 37L7 36L6 36L6 35L8 35L8 38L6 38L6 39L7 39L7 40L5 40L5 39L4 39L4 41L7 41L7 40L9 40L9 38L10 38L10 37L11 37L11 38L12 38L12 39L11 39L11 40L10 40L10 41L8 41L8 42L10 42L10 43L7 43L7 42L6 42L6 43L5 43L5 42L2 42L2 40L1 40L1 37L2 37L2 36L1 36L1 33L0 33L0 36L1 36L1 37L0 37L0 48L5 48L5 47L7 47L7 46L8 46L8 44L10 44L10 45L9 45L9 46L10 46L10 47L9 47L9 49L8 49L8 48L6 48L6 49L8 49L8 51L9 51L9 52L8 52L8 57L11 57L11 56L10 56L10 55L9 55L9 53L11 53L11 55L12 55L12 56L13 56L13 53L14 53L14 54L15 54L15 55L16 55L16 56L17 56L17 57L22 57L22 56L19 56L19 55L20 55L20 54L19 54L19 53L20 53L20 52L21 52L21 51L22 51L22 52L23 52L23 51L22 51L22 50L25 50L25 49L24 49L24 48L23 48L23 49L21 49L21 50L20 50L20 49L19 49L19 47L18 47L18 48L15 48L15 47L14 47L14 46L15 46L15 44L18 44L18 45L17 45L17 46L20 46L20 45L21 45L21 47L20 47L20 48L21 48L21 47L23 47L23 46L24 46L24 47L25 47L25 44L27 44L27 45L26 45L26 47L27 47L27 45L28 45L28 44L29 44L29 48L26 48L26 52L24 52L24 53L23 53L23 54L22 54L22 53L21 53L21 55L23 55L23 57L26 57L26 56L27 56L27 57L29 57L29 56L30 56L30 57L31 57L31 56L35 56L35 57L39 57L39 56L40 56L40 55L41 55L41 57L44 57L44 56L42 56L42 55L44 55L44 54L45 54L45 57L47 57L47 55L48 55L48 57L49 57L49 56L50 56L50 57L52 57L52 55L51 55L51 53L52 53L52 54L54 54L54 53L56 53L56 52L55 52L55 51L56 51L56 50L55 50L55 48L56 48L56 49L57 49L57 48L56 48L56 46L57 46L57 44L56 44L56 41L55 41L55 39L57 39L57 37L56 37L56 36L57 36L57 35L56 35L56 34L55 34L55 32L56 32L56 33L57 33L57 32L56 32L56 30L57 30L57 29L54 29L54 28L56 28L56 27L55 27L55 26L57 26L57 25L56 25L56 22L57 22L57 21L56 21L56 20L57 20L57 19L56 19L56 18L53 18L53 17L56 17L56 16L57 16L57 15L56 15L56 14L57 14L57 13L56 13L56 14L55 14L55 13L54 13L54 12L55 12L55 11L56 11L56 12L57 12L57 11L56 11L56 10L54 10L54 11L53 11L53 10L52 10L52 11L50 11L50 12L49 12L49 13L47 13L47 14L45 14L45 18L44 18L44 14L43 14L43 13L44 13L44 12L43 12L43 13L41 13L41 14L43 14L43 15L42 15L42 16L41 16L41 15L39 15L39 14L38 14L38 13L39 13L39 11L40 11L40 12L41 12L41 11L43 11L43 10L44 10L44 11L45 11L45 12L47 12L47 10L50 10L50 8L49 8L49 6L48 6L48 7L47 7L47 5L48 5L48 0L45 0L45 2L44 2L44 3L43 3L43 4L42 4L42 2L43 2L43 0L41 0L41 1L40 1L40 0L39 0L39 1L38 1L38 0L37 0L37 1L38 1L38 3L41 3L41 4L40 4L40 5L39 5L39 6L38 6L38 8L35 8L35 5L36 5L36 7L37 7L37 5L38 5L38 4L37 4L37 3L36 3L36 0L35 0L35 1L33 1L33 0L29 0L29 2L28 2L28 3L29 3L29 4L26 4L26 3L23 3L23 2L27 2L27 1L25 1L25 0L23 0L23 2L22 2L22 3L23 3L23 4L24 4L24 5L23 5L23 6L22 6L22 7L21 7L21 4L19 4L19 3L20 3L20 0L19 0L19 1L18 1L18 2L19 2L19 3L17 3L17 1L15 1L15 0ZM21 0L21 1L22 1L22 0ZM31 1L31 2L30 2L30 3L32 3L32 4L31 4L31 8L32 8L32 10L31 10L31 11L30 11L30 10L29 10L29 12L28 12L28 13L26 13L26 12L27 12L27 11L26 11L26 12L25 12L25 11L23 11L23 12L25 12L25 13L26 13L26 14L24 14L24 15L20 15L20 14L21 14L21 13L22 13L22 14L23 14L23 13L22 13L22 12L21 12L21 13L20 13L20 11L22 11L22 10L21 10L21 9L23 9L23 8L24 8L24 6L23 6L23 7L22 7L22 8L20 8L20 11L19 11L19 13L20 13L20 14L17 14L17 13L18 13L18 12L17 12L17 13L16 13L16 12L15 12L15 13L12 13L12 12L14 12L14 11L12 11L12 12L11 12L11 13L10 13L10 14L11 14L11 16L12 16L12 14L13 14L13 16L14 16L14 17L13 17L13 19L14 19L14 20L13 20L13 21L14 21L14 23L13 23L13 24L12 24L12 25L11 25L11 24L10 24L10 26L9 26L9 31L8 31L8 32L7 32L7 31L5 31L5 32L4 32L4 33L5 33L5 35L6 35L6 34L7 34L7 33L8 33L8 35L9 35L9 37L10 37L10 36L11 36L11 37L12 37L12 38L14 38L14 37L13 37L13 35L12 35L12 34L11 34L11 33L8 33L8 32L9 32L9 31L10 31L10 30L12 30L12 31L11 31L11 32L12 32L12 33L13 33L13 34L14 34L14 32L13 32L13 30L14 30L14 31L15 31L15 34L16 34L16 35L15 35L15 37L16 37L16 38L15 38L15 39L16 39L16 40L17 40L17 41L15 41L15 40L14 40L14 39L13 39L13 40L11 40L11 41L10 41L10 42L11 42L11 45L13 45L13 46L14 46L14 43L15 43L15 42L17 42L17 43L18 43L18 42L19 42L19 45L20 45L20 44L21 44L21 45L22 45L22 46L23 46L23 45L24 45L24 44L25 44L25 43L29 43L29 41L31 41L31 42L32 42L32 43L31 43L31 44L30 44L30 45L31 45L31 46L32 46L32 47L31 47L31 48L32 48L32 49L31 49L31 50L32 50L32 51L31 51L31 53L30 53L30 54L26 54L26 55L27 55L27 56L29 56L29 55L30 55L30 56L31 56L31 54L32 54L32 53L33 53L33 54L34 54L34 55L35 55L35 56L36 56L36 54L35 54L35 50L36 50L36 52L37 52L37 53L38 53L38 54L37 54L37 56L39 56L39 55L38 55L38 54L40 54L40 53L42 53L42 50L41 50L41 48L42 48L42 49L43 49L43 48L44 48L44 51L45 51L45 52L44 52L44 53L43 53L43 54L44 54L44 53L45 53L45 54L46 54L46 55L47 55L47 54L48 54L48 50L47 50L47 49L48 49L48 48L49 48L49 47L48 47L48 48L47 48L47 49L45 49L45 46L48 46L48 44L49 44L49 46L50 46L50 47L51 47L51 46L53 46L53 45L51 45L51 44L53 44L53 43L54 43L54 42L53 42L53 41L54 41L54 40L53 40L53 41L51 41L51 42L50 42L50 43L48 43L48 44L47 44L47 45L45 45L45 44L46 44L46 42L48 42L48 41L49 41L49 39L51 39L51 40L52 40L52 39L53 39L53 35L55 35L55 34L54 34L54 33L52 33L52 31L50 31L50 32L49 32L49 31L48 31L48 28L47 28L47 29L46 29L46 30L47 30L47 31L46 31L46 32L43 32L43 31L45 31L45 30L41 30L41 29L45 29L45 28L46 28L46 27L48 27L48 26L47 26L47 25L50 25L50 26L51 26L51 25L55 25L55 24L53 24L53 23L55 23L55 22L56 22L56 21L55 21L55 20L56 20L56 19L55 19L55 20L53 20L53 19L52 19L52 18L51 18L51 17L53 17L53 16L52 16L52 15L51 15L51 17L50 17L50 14L51 14L51 12L50 12L50 14L49 14L49 15L48 15L48 16L47 16L47 15L46 15L46 16L47 16L47 17L46 17L46 18L45 18L45 19L46 19L46 18L47 18L47 19L48 19L48 18L47 18L47 17L48 17L48 16L49 16L49 17L50 17L50 18L49 18L49 19L52 19L52 20L51 20L51 21L49 21L49 22L47 22L47 20L44 20L44 18L43 18L43 20L44 20L44 25L43 25L43 26L42 26L42 28L41 28L41 27L40 27L40 28L38 28L38 29L35 29L35 28L36 28L36 27L39 27L39 26L41 26L41 24L43 24L43 22L41 22L41 24L40 24L40 22L39 22L39 21L42 21L42 20L39 20L39 21L38 21L38 20L37 20L37 19L39 19L39 17L41 17L41 16L39 16L39 15L38 15L38 14L37 14L37 13L36 13L36 14L37 14L37 15L35 15L35 16L32 16L32 13L33 13L33 14L35 14L35 11L36 11L36 10L37 10L37 9L35 9L35 8L34 8L34 9L33 9L33 7L34 7L34 5L35 5L35 2L34 2L34 3L32 3L32 1ZM46 1L46 2L47 2L47 1ZM14 2L14 4L13 4L13 3L12 3L12 4L13 4L13 5L12 5L12 6L11 6L11 7L12 7L12 6L13 6L13 8L14 8L14 10L15 10L15 11L18 11L18 10L19 10L19 9L16 9L16 8L19 8L19 7L20 7L20 5L18 5L18 4L17 4L17 3L15 3L15 2ZM44 3L44 6L43 6L43 7L42 7L42 5L40 5L40 6L39 6L39 8L38 8L38 11L39 11L39 9L40 9L40 11L41 11L41 9L43 9L43 7L44 7L44 6L45 6L45 8L44 8L44 10L47 10L47 9L45 9L45 8L47 8L47 7L46 7L46 5L47 5L47 3ZM15 4L15 5L16 5L16 4ZM25 4L25 8L26 8L26 4ZM32 4L32 5L34 5L34 4ZM36 4L36 5L37 5L37 4ZM45 4L45 5L46 5L46 4ZM27 5L27 8L30 8L30 5ZM14 6L14 8L16 8L16 7L17 7L17 6L16 6L16 7L15 7L15 6ZM18 6L18 7L19 7L19 6ZM28 6L28 7L29 7L29 6ZM32 6L32 7L33 7L33 6ZM40 6L40 7L41 7L41 6ZM6 8L6 9L9 9L9 8ZM51 8L51 9L52 9L52 8ZM53 8L53 9L54 9L54 8ZM55 8L55 9L56 9L56 8ZM3 9L3 10L2 10L2 11L1 11L1 12L2 12L2 11L3 11L3 12L4 12L4 13L2 13L2 14L3 14L3 15L4 15L4 16L5 16L5 14L8 14L8 16L9 16L9 13L5 13L5 12L4 12L4 11L3 11L3 10L4 10L4 9ZM15 9L15 10L16 10L16 9ZM32 10L32 12L31 12L31 13L30 13L30 14L29 14L29 13L28 13L28 14L29 14L29 16L28 16L28 15L27 15L27 16L28 16L28 17L27 17L27 18L26 18L26 19L25 19L25 17L26 17L26 15L24 15L24 16L25 16L25 17L22 17L22 16L21 16L21 17L22 17L22 18L20 18L20 15L19 15L19 16L16 16L16 13L15 13L15 14L14 14L14 16L15 16L15 17L14 17L14 18L15 18L15 19L17 19L17 21L16 21L16 20L15 20L15 21L16 21L16 22L15 22L15 23L14 23L14 24L15 24L15 23L16 23L16 24L17 24L17 25L18 25L18 26L14 26L14 25L12 25L12 26L11 26L11 27L10 27L10 28L12 28L12 30L13 30L13 28L14 28L14 30L15 30L15 31L16 31L16 29L18 29L18 30L20 30L20 29L22 29L22 28L19 28L19 29L18 29L18 28L17 28L17 27L18 27L18 26L20 26L20 27L22 27L22 26L23 26L23 27L24 27L24 28L23 28L23 31L21 31L21 32L23 32L23 31L24 31L24 32L25 32L25 33L23 33L23 34L24 34L24 36L23 36L23 35L22 35L22 33L21 33L21 34L20 34L20 33L19 33L19 32L20 32L20 31L18 31L18 32L17 32L17 33L19 33L19 34L20 34L20 35L18 35L18 36L17 36L17 35L16 35L16 36L17 36L17 37L19 37L19 38L20 38L20 39L17 39L17 40L18 40L18 41L17 41L17 42L18 42L18 41L19 41L19 42L20 42L20 43L21 43L21 44L22 44L22 45L23 45L23 43L25 43L25 41L24 41L24 40L25 40L25 36L27 36L27 35L26 35L26 34L25 34L25 33L26 33L26 32L27 32L27 31L31 31L31 33L29 33L29 32L28 32L28 33L29 33L29 34L30 34L30 36L29 36L29 37L31 37L31 38L29 38L29 39L33 39L33 40L35 40L35 42L37 42L37 43L34 43L34 42L33 42L33 41L32 41L32 40L31 40L31 41L32 41L32 42L33 42L33 43L32 43L32 44L31 44L31 45L32 45L32 46L33 46L33 47L32 47L32 48L33 48L33 49L32 49L32 50L33 50L33 51L32 51L32 52L33 52L33 53L34 53L34 52L33 52L33 51L34 51L34 50L33 50L33 49L36 49L36 50L38 50L38 51L37 51L37 52L39 52L39 51L40 51L40 52L41 52L41 50L38 50L38 49L39 49L39 48L41 48L41 46L43 46L43 47L42 47L42 48L43 48L43 47L44 47L44 46L43 46L43 45L44 45L44 44L45 44L45 42L44 42L44 41L40 41L40 42L42 42L42 44L41 44L41 45L40 45L40 47L39 47L39 46L38 46L38 45L39 45L39 42L38 42L38 40L39 40L39 38L38 38L38 37L40 37L40 38L41 38L41 39L42 39L42 38L43 38L43 37L44 37L44 38L45 38L45 39L43 39L43 40L45 40L45 39L46 39L46 40L47 40L47 39L48 39L48 38L47 38L47 39L46 39L46 38L45 38L45 37L44 37L44 36L46 36L46 35L44 35L44 33L43 33L43 32L41 32L41 33L39 33L39 34L40 34L40 35L38 35L38 33L37 33L37 32L35 32L35 34L37 34L37 35L38 35L38 37L37 37L37 36L35 36L35 35L34 35L34 34L33 34L33 33L32 33L32 31L33 31L33 32L34 32L34 31L35 31L35 30L32 30L32 27L33 27L33 28L35 28L35 27L36 27L36 26L34 26L34 27L33 27L33 26L32 26L32 24L33 24L33 25L37 25L37 26L38 26L38 25L40 25L40 24L37 24L37 22L38 22L38 23L39 23L39 22L38 22L38 21L37 21L37 20L36 20L36 19L35 19L35 18L33 18L33 17L32 17L32 16L31 16L31 15L30 15L30 14L31 14L31 13L32 13L32 12L33 12L33 13L34 13L34 12L33 12L33 10ZM52 12L52 13L53 13L53 14L54 14L54 15L55 15L55 14L54 14L54 13L53 13L53 12ZM11 13L11 14L12 14L12 13ZM6 15L6 16L7 16L7 15ZM35 16L35 17L37 17L37 18L38 18L38 17L39 17L39 16L38 16L38 17L37 17L37 16ZM42 16L42 17L43 17L43 16ZM9 17L9 18L8 18L8 19L11 19L11 20L12 20L12 18L11 18L11 17ZM15 17L15 18L19 18L19 17ZM31 17L31 18L30 18L30 19L28 19L28 18L27 18L27 19L26 19L26 21L31 21L31 22L28 22L28 24L25 24L25 23L26 23L26 22L25 22L25 21L24 21L24 20L23 20L23 19L24 19L24 18L22 18L22 19L19 19L19 20L20 20L20 21L18 21L18 23L19 23L19 25L20 25L20 26L22 26L22 25L23 25L23 24L22 24L22 23L24 23L24 24L25 24L25 25L26 25L26 26L25 26L25 27L26 27L26 26L28 26L28 25L31 25L31 24L32 24L32 23L35 23L35 19L33 19L33 18L32 18L32 17ZM41 18L41 19L42 19L42 18ZM27 19L27 20L28 20L28 19ZM30 19L30 20L31 20L31 21L32 21L32 20L33 20L33 21L34 21L34 20L33 20L33 19ZM7 20L7 21L6 21L6 22L8 22L8 20ZM21 20L21 21L22 21L22 22L21 22L21 23L22 23L22 22L24 22L24 21L22 21L22 20ZM10 21L10 23L12 23L12 22L11 22L11 21ZM45 21L45 22L46 22L46 23L45 23L45 25L46 25L46 24L47 24L47 22L46 22L46 21ZM51 21L51 22L50 22L50 24L52 24L52 23L53 23L53 22L54 22L54 21ZM3 22L3 23L4 23L4 24L3 24L3 25L4 25L4 26L7 26L7 25L4 25L4 24L5 24L5 22ZM19 22L19 23L20 23L20 22ZM6 23L6 24L7 24L7 23ZM8 23L8 25L9 25L9 23ZM29 23L29 24L30 24L30 23ZM20 24L20 25L22 25L22 24ZM12 26L12 28L13 28L13 26ZM31 26L31 27L32 27L32 26ZM45 26L45 27L43 27L43 28L45 28L45 27L46 27L46 26ZM53 26L53 27L54 27L54 26ZM5 27L5 30L8 30L8 27ZM14 27L14 28L15 28L15 29L16 29L16 28L15 28L15 27ZM27 27L27 30L30 30L30 27ZM49 27L49 30L52 30L52 27ZM6 28L6 29L7 29L7 28ZM25 28L25 29L26 29L26 28ZM28 28L28 29L29 29L29 28ZM50 28L50 29L51 29L51 28ZM2 29L2 30L3 30L3 31L4 31L4 30L3 30L3 29ZM39 29L39 30L38 30L38 32L39 32L39 30L40 30L40 29ZM24 30L24 31L25 31L25 32L26 32L26 31L25 31L25 30ZM31 30L31 31L32 31L32 30ZM53 30L53 31L55 31L55 30ZM47 31L47 32L48 32L48 33L49 33L49 32L48 32L48 31ZM5 32L5 33L7 33L7 32ZM50 32L50 34L49 34L49 35L50 35L50 37L49 37L49 38L50 38L50 37L52 37L52 35L53 35L53 34L52 34L52 33L51 33L51 32ZM31 33L31 34L32 34L32 33ZM10 34L10 35L11 35L11 36L12 36L12 35L11 35L11 34ZM42 34L42 35L43 35L43 36L42 36L42 37L41 37L41 36L40 36L40 37L41 37L41 38L42 38L42 37L43 37L43 36L44 36L44 35L43 35L43 34ZM50 34L50 35L52 35L52 34ZM20 35L20 36L19 36L19 37L21 37L21 40L20 40L20 42L21 42L21 43L22 43L22 42L24 42L24 41L23 41L23 40L24 40L24 39L23 39L23 38L24 38L24 37L23 37L23 36L21 36L21 35ZM32 36L32 37L33 37L33 39L35 39L35 40L38 40L38 38L37 38L37 39L35 39L35 37L33 37L33 36ZM26 37L26 40L28 40L28 41L26 41L26 42L28 42L28 41L29 41L29 40L28 40L28 39L27 39L27 38L28 38L28 37ZM54 37L54 38L55 38L55 37ZM51 38L51 39L52 39L52 38ZM13 40L13 41L11 41L11 42L13 42L13 43L14 43L14 42L15 42L15 41L14 41L14 40ZM51 42L51 43L50 43L50 44L51 44L51 43L53 43L53 42ZM1 43L1 44L3 44L3 45L4 45L4 43ZM6 43L6 44L5 44L5 45L6 45L6 46L7 46L7 45L6 45L6 44L7 44L7 43ZM33 43L33 44L32 44L32 45L33 45L33 46L36 46L36 47L33 47L33 48L36 48L36 47L37 47L37 46L36 46L36 45L34 45L34 43ZM43 43L43 44L44 44L44 43ZM54 44L54 45L55 45L55 46L54 46L54 47L55 47L55 46L56 46L56 45L55 45L55 44ZM1 45L1 47L2 47L2 45ZM50 45L50 46L51 46L51 45ZM3 46L3 47L5 47L5 46ZM38 47L38 48L37 48L37 49L38 49L38 48L39 48L39 47ZM52 47L52 48L53 48L53 47ZM10 48L10 49L9 49L9 51L10 51L10 49L11 49L11 50L13 50L13 49L14 49L14 51L16 51L16 53L15 53L15 54L16 54L16 53L17 53L17 52L18 52L18 51L19 51L19 52L20 52L20 51L19 51L19 49L15 49L15 48L13 48L13 49L11 49L11 48ZM27 49L27 52L30 52L30 49ZM49 49L49 52L52 52L52 49ZM16 50L16 51L18 51L18 50ZM28 50L28 51L29 51L29 50ZM45 50L45 51L46 51L46 52L45 52L45 53L47 53L47 51L46 51L46 50ZM50 50L50 51L51 51L51 50ZM54 50L54 51L55 51L55 50ZM11 51L11 53L12 53L12 51ZM53 52L53 53L54 53L54 52ZM24 53L24 54L23 54L23 55L24 55L24 56L25 56L25 53ZM17 54L17 56L18 56L18 54ZM41 54L41 55L42 55L42 54ZM50 55L50 56L51 56L51 55ZM53 55L53 56L55 56L55 57L56 57L56 56L55 56L55 55ZM14 56L14 57L15 57L15 56ZM0 0L0 7L7 7L7 0ZM1 1L1 6L6 6L6 1ZM2 2L2 5L5 5L5 2ZM50 0L50 7L57 7L57 0ZM51 1L51 6L56 6L56 1ZM52 2L52 5L55 5L55 2ZM0 50L0 57L7 57L7 50ZM1 51L1 56L6 56L6 51ZM2 52L2 55L5 55L5 52Z" fill="#000000"/></g></g></svg>
