<?xml version="1.0" encoding="UTF-8"?>
<svg xmlns="http://www.w3.org/2000/svg" version="1.1" width="300" height="300" viewBox="0 0 300 300"><rect x="0" y="0" width="300" height="300" fill="#fefefe"/><g transform="scale(4.615)"><g transform="translate(4,4)"><path fill-rule="evenodd" d="M14 0L14 2L13 2L13 1L12 1L12 2L11 2L11 1L10 1L10 2L9 2L9 1L8 1L8 2L9 2L9 3L8 3L8 4L9 4L9 5L8 5L8 7L9 7L9 8L6 8L6 9L5 9L5 8L0 8L0 13L1 13L1 12L2 12L2 13L3 13L3 14L4 14L4 15L3 15L3 16L1 16L1 15L2 15L2 14L0 14L0 16L1 16L1 17L0 17L0 19L1 19L1 20L0 20L0 23L1 23L1 21L2 21L2 19L3 19L3 18L4 18L4 17L7 17L7 18L6 18L6 19L4 19L4 20L5 20L5 22L4 22L4 21L3 21L3 23L2 23L2 24L1 24L1 25L0 25L0 26L1 26L1 27L0 27L0 28L1 28L1 29L2 29L2 28L3 28L3 30L2 30L2 32L1 32L1 30L0 30L0 32L1 32L1 33L0 33L0 34L1 34L1 37L0 37L0 41L2 41L2 39L1 39L1 38L3 38L3 39L4 39L4 41L3 41L3 42L0 42L0 48L5 48L5 47L7 47L7 48L6 48L6 49L8 49L8 51L10 51L10 53L9 53L9 52L8 52L8 57L10 57L10 56L9 56L9 54L11 54L11 51L13 51L13 52L12 52L12 55L11 55L11 56L12 56L12 55L13 55L13 57L14 57L14 56L15 56L15 57L16 57L16 56L17 56L17 57L20 57L20 56L17 56L17 54L19 54L19 55L20 55L20 54L19 54L19 53L20 53L20 52L22 52L22 51L21 51L21 50L26 50L26 52L24 52L24 53L23 53L23 54L22 54L22 55L23 55L23 56L24 56L24 55L23 55L23 54L24 54L24 53L27 53L27 54L26 54L26 56L25 56L25 57L26 57L26 56L27 56L27 57L29 57L29 56L30 56L30 57L31 57L31 56L35 56L35 57L39 57L39 56L37 56L37 55L40 55L40 56L42 56L42 55L44 55L44 54L45 54L45 53L44 53L44 52L47 52L47 50L48 50L48 53L47 53L47 55L45 55L45 57L48 57L48 56L50 56L50 57L52 57L52 55L51 55L51 53L52 53L52 54L53 54L53 52L54 52L54 54L55 54L55 53L56 53L56 52L55 52L55 51L56 51L56 50L55 50L55 49L54 49L54 48L56 48L56 49L57 49L57 48L56 48L56 46L57 46L57 45L56 45L56 44L57 44L57 43L56 43L56 41L55 41L55 39L57 39L57 37L56 37L56 36L57 36L57 35L56 35L56 33L57 33L57 32L56 32L56 30L57 30L57 28L56 28L56 27L55 27L55 26L57 26L57 25L56 25L56 22L57 22L57 19L56 19L56 18L57 18L57 17L56 17L56 16L57 16L57 15L56 15L56 14L57 14L57 13L56 13L56 14L53 14L53 13L54 13L54 12L55 12L55 11L56 11L56 8L55 8L55 10L54 10L54 11L50 11L50 8L49 8L49 6L48 6L48 7L47 7L47 5L48 5L48 0L45 0L45 2L44 2L44 3L42 3L42 2L43 2L43 0L41 0L41 1L40 1L40 0L39 0L39 1L38 1L38 0L37 0L37 1L38 1L38 4L37 4L37 3L36 3L36 0L35 0L35 1L32 1L32 0L29 0L29 2L28 2L28 3L27 3L27 4L26 4L26 3L23 3L23 2L27 2L27 1L26 1L26 0L23 0L23 2L21 2L21 3L23 3L23 4L24 4L24 5L23 5L23 6L22 6L22 8L23 8L23 10L22 10L22 11L21 11L21 12L20 12L20 11L19 11L19 10L20 10L20 8L21 8L21 5L22 5L22 4L19 4L19 3L18 3L18 2L20 2L20 0L17 0L17 1L18 1L18 2L16 2L16 1L15 1L15 0ZM21 0L21 1L22 1L22 0ZM30 1L30 2L29 2L29 3L28 3L28 4L31 4L31 8L32 8L32 10L31 10L31 11L29 11L29 9L28 9L28 11L29 11L29 12L28 12L28 13L26 13L26 12L27 12L27 11L26 11L26 12L25 12L25 11L23 11L23 12L25 12L25 14L24 14L24 16L23 16L23 15L21 15L21 13L22 13L22 14L23 14L23 13L22 13L22 12L21 12L21 13L20 13L20 12L19 12L19 13L20 13L20 16L19 16L19 15L17 15L17 13L18 13L18 12L17 12L17 13L16 13L16 12L15 12L15 13L13 13L13 12L14 12L14 11L13 11L13 10L15 10L15 11L18 11L18 10L19 10L19 9L16 9L16 8L17 8L17 7L18 7L18 6L19 6L19 7L20 7L20 5L17 5L17 3L16 3L16 2L14 2L14 4L13 4L13 3L11 3L11 4L13 4L13 7L14 7L14 9L13 9L13 10L12 10L12 9L11 9L11 8L9 8L9 9L10 9L10 10L9 10L9 11L8 11L8 12L7 12L7 11L6 11L6 10L7 10L7 9L6 9L6 10L5 10L5 11L4 11L4 9L2 9L2 10L1 10L1 11L2 11L2 12L3 12L3 11L4 11L4 14L5 14L5 15L4 15L4 16L5 16L5 15L6 15L6 16L7 16L7 15L6 15L6 14L7 14L7 13L8 13L8 15L9 15L9 21L8 21L8 23L9 23L9 25L8 25L8 26L9 26L9 31L8 31L8 32L11 32L11 31L10 31L10 27L11 27L11 26L13 26L13 27L12 27L12 28L11 28L11 30L14 30L14 33L13 33L13 34L11 34L11 36L10 36L10 37L13 37L13 36L12 36L12 35L16 35L16 36L15 36L15 37L14 37L14 38L12 38L12 39L11 39L11 38L10 38L10 39L8 39L8 38L9 38L9 36L8 36L8 38L7 38L7 37L6 37L6 36L7 36L7 35L8 35L8 34L7 34L7 33L5 33L5 34L2 34L2 33L1 33L1 34L2 34L2 37L3 37L3 35L4 35L4 38L5 38L5 39L6 39L6 40L7 40L7 39L8 39L8 42L7 42L7 41L6 41L6 42L7 42L7 43L3 43L3 44L2 44L2 43L1 43L1 47L2 47L2 45L3 45L3 47L5 47L5 46L4 46L4 45L5 45L5 44L7 44L7 45L6 45L6 46L7 46L7 45L9 45L9 46L11 46L11 47L12 47L12 50L13 50L13 51L14 51L14 52L13 52L13 54L14 54L14 55L15 55L15 56L16 56L16 55L15 55L15 54L16 54L16 53L17 53L17 52L18 52L18 51L19 51L19 52L20 52L20 50L21 50L21 49L23 49L23 48L24 48L24 49L25 49L25 48L24 48L24 47L26 47L26 48L27 48L27 47L26 47L26 45L28 45L28 46L29 46L29 45L28 45L28 44L25 44L25 43L27 43L27 42L32 42L32 43L31 43L31 44L32 44L32 45L30 45L30 46L32 46L32 45L33 45L33 46L35 46L35 47L31 47L31 48L32 48L32 51L31 51L31 53L30 53L30 54L27 54L27 56L29 56L29 55L30 55L30 56L31 56L31 54L32 54L32 53L33 53L33 54L34 54L34 55L35 55L35 56L36 56L36 54L35 54L35 53L34 53L34 52L35 52L35 51L34 51L34 50L36 50L36 52L37 52L37 51L38 51L38 50L41 50L41 51L42 51L42 52L40 52L40 51L39 51L39 52L38 52L38 54L40 54L40 53L42 53L42 52L43 52L43 51L46 51L46 50L47 50L47 49L48 49L48 48L49 48L49 47L48 47L48 48L47 48L47 47L45 47L45 46L47 46L47 45L48 45L48 44L50 44L50 45L49 45L49 46L50 46L50 48L54 48L54 47L55 47L55 46L56 46L56 45L55 45L55 44L54 44L54 45L52 45L52 44L53 44L53 43L54 43L54 42L53 42L53 41L51 41L51 42L50 42L50 43L49 43L49 42L48 42L48 41L49 41L49 40L50 40L50 39L51 39L51 40L52 40L52 39L54 39L54 38L53 38L53 35L55 35L55 36L56 36L56 35L55 35L55 34L54 34L54 33L56 33L56 32L54 32L54 31L55 31L55 30L53 30L53 31L48 31L48 30L47 30L47 29L48 29L48 27L47 27L47 26L48 26L48 25L50 25L50 26L52 26L52 25L53 25L53 24L50 24L50 22L51 22L51 21L53 21L53 22L56 22L56 19L55 19L55 20L53 20L53 19L52 19L52 20L51 20L51 21L49 21L49 22L47 22L47 21L48 21L48 20L49 20L49 19L48 19L48 20L47 20L47 19L46 19L46 18L47 18L47 17L48 17L48 16L49 16L49 15L50 15L50 16L51 16L51 17L50 17L50 19L51 19L51 17L53 17L53 18L55 18L55 17L53 17L53 15L50 15L50 14L51 14L51 12L50 12L50 11L49 11L49 10L47 10L47 9L48 9L48 8L47 8L47 7L46 7L46 6L45 6L45 5L47 5L47 3L44 3L44 6L43 6L43 7L42 7L42 5L40 5L40 4L41 4L41 3L39 3L39 4L38 4L38 5L37 5L37 4L36 4L36 5L35 5L35 4L33 4L33 3L35 3L35 2L33 2L33 3L32 3L32 1ZM46 1L46 2L47 2L47 1ZM30 2L30 3L31 3L31 4L32 4L32 5L33 5L33 6L32 6L32 7L33 7L33 9L34 9L34 8L35 8L35 9L37 9L37 10L36 10L36 12L35 12L35 13L36 13L36 14L32 14L32 13L30 13L30 14L29 14L29 13L28 13L28 14L29 14L29 16L28 16L28 15L27 15L27 16L28 16L28 17L26 17L26 14L25 14L25 17L22 17L22 16L20 16L20 17L19 17L19 16L17 16L17 17L18 17L18 18L17 18L17 19L18 19L18 20L17 20L17 21L16 21L16 18L15 18L15 21L16 21L16 22L15 22L15 23L16 23L16 24L14 24L14 21L13 21L13 23L12 23L12 25L16 25L16 24L17 24L17 25L21 25L21 24L17 24L17 21L18 21L18 22L19 22L19 23L20 23L20 22L19 22L19 21L20 21L20 20L24 20L24 21L23 21L23 22L24 22L24 21L25 21L25 22L26 22L26 23L25 23L25 24L24 24L24 23L23 23L23 25L22 25L22 26L21 26L21 27L20 27L20 26L19 26L19 29L18 29L18 28L16 28L16 29L14 29L14 28L15 28L15 27L16 27L16 26L14 26L14 28L13 28L13 29L14 29L14 30L15 30L15 31L16 31L16 29L18 29L18 30L17 30L17 32L16 32L16 33L17 33L17 39L18 39L18 40L17 40L17 41L19 41L19 42L18 42L18 43L16 43L16 44L18 44L18 45L17 45L17 46L19 46L19 47L17 47L17 48L16 48L16 47L15 47L15 43L12 43L12 42L15 42L15 41L16 41L16 39L15 39L15 38L16 38L16 37L15 37L15 38L14 38L14 41L11 41L11 39L10 39L10 40L9 40L9 42L8 42L8 44L10 44L10 45L12 45L12 44L13 44L13 45L14 45L14 47L13 47L13 46L12 46L12 47L13 47L13 48L14 48L14 47L15 47L15 48L16 48L16 49L15 49L15 50L16 50L16 49L17 49L17 50L20 50L20 49L21 49L21 48L20 48L20 47L23 47L23 46L25 46L25 44L24 44L24 45L23 45L23 42L24 42L24 43L25 43L25 41L23 41L23 42L22 42L22 41L21 41L21 42L22 42L22 43L21 43L21 44L22 44L22 45L21 45L21 46L20 46L20 45L19 45L19 44L20 44L20 43L19 43L19 42L20 42L20 41L19 41L19 40L22 40L22 39L24 39L24 40L25 40L25 39L26 39L26 40L28 40L28 39L27 39L27 38L28 38L28 37L27 37L27 36L26 36L26 35L27 35L27 34L25 34L25 33L26 33L26 32L28 32L28 33L29 33L29 34L30 34L30 36L29 36L29 37L31 37L31 38L29 38L29 39L33 39L33 40L35 40L35 42L37 42L37 43L36 43L36 44L35 44L35 43L34 43L34 42L33 42L33 41L32 41L32 40L29 40L29 41L32 41L32 42L33 42L33 43L32 43L32 44L33 44L33 43L34 43L34 45L37 45L37 47L36 47L36 48L35 48L35 49L36 49L36 50L38 50L38 49L39 49L39 48L41 48L41 50L42 50L42 51L43 51L43 50L44 50L44 48L43 48L43 47L44 47L44 46L43 46L43 45L44 45L44 40L45 40L45 41L47 41L47 39L48 39L48 38L49 38L49 39L50 39L50 38L51 38L51 36L52 36L52 35L53 35L53 34L52 34L52 33L54 33L54 32L52 32L52 33L51 33L51 32L50 32L50 34L48 34L48 35L47 35L47 36L48 36L48 35L50 35L50 38L49 38L49 37L48 37L48 38L47 38L47 39L46 39L46 40L45 40L45 39L43 39L43 40L42 40L42 41L39 41L39 42L38 42L38 40L39 40L39 39L38 39L38 40L35 40L35 39L37 39L37 38L38 38L38 37L37 37L37 36L38 36L38 33L37 33L37 32L34 32L34 33L35 33L35 34L37 34L37 36L35 36L35 35L34 35L34 36L35 36L35 39L33 39L33 37L32 37L32 36L33 36L33 35L32 35L32 34L33 34L33 33L32 33L32 32L33 32L33 31L36 31L36 30L33 30L33 29L32 29L32 28L31 28L31 26L32 26L32 27L33 27L33 28L35 28L35 29L38 29L38 28L40 28L40 27L41 27L41 28L42 28L42 27L41 27L41 26L43 26L43 25L44 25L44 27L43 27L43 28L45 28L45 31L43 31L43 32L41 32L41 33L39 33L39 34L40 34L40 35L39 35L39 37L40 37L40 38L43 38L43 37L44 37L44 38L45 38L45 37L46 37L46 36L45 36L45 35L44 35L44 33L43 33L43 32L45 32L45 33L47 33L47 32L48 32L48 33L49 33L49 32L48 32L48 31L47 31L47 30L46 30L46 29L47 29L47 27L46 27L46 26L45 26L45 25L44 25L44 20L45 20L45 18L46 18L46 17L47 17L47 16L48 16L48 15L49 15L49 14L50 14L50 12L49 12L49 11L48 11L48 12L49 12L49 13L47 13L47 14L45 14L45 18L44 18L44 14L43 14L43 13L44 13L44 12L43 12L43 13L39 13L39 12L41 12L41 10L42 10L42 11L43 11L43 10L44 10L44 11L45 11L45 12L47 12L47 10L46 10L46 11L45 11L45 10L44 10L44 8L45 8L45 6L44 6L44 7L43 7L43 9L40 9L40 10L38 10L38 9L39 9L39 6L40 6L40 7L41 7L41 6L40 6L40 5L39 5L39 6L38 6L38 9L37 9L37 8L35 8L35 5L33 5L33 4L32 4L32 3L31 3L31 2ZM9 3L9 4L10 4L10 3ZM15 4L15 5L16 5L16 4ZM25 4L25 8L26 8L26 4ZM10 5L10 6L9 6L9 7L10 7L10 6L11 6L11 7L12 7L12 6L11 6L11 5ZM27 5L27 8L30 8L30 5ZM36 5L36 7L37 7L37 5ZM14 6L14 7L15 7L15 8L16 8L16 7L17 7L17 6L16 6L16 7L15 7L15 6ZM23 6L23 8L24 8L24 6ZM28 6L28 7L29 7L29 6ZM33 6L33 7L34 7L34 6ZM51 8L51 9L52 9L52 8ZM53 8L53 9L54 9L54 8ZM15 9L15 10L16 10L16 9ZM32 10L32 11L31 11L31 12L33 12L33 13L34 13L34 12L33 12L33 10ZM37 10L37 11L38 11L38 10ZM5 11L5 13L7 13L7 12L6 12L6 11ZM9 11L9 12L8 12L8 13L9 13L9 15L11 15L11 16L10 16L10 18L11 18L11 16L12 16L12 19L13 19L13 20L14 20L14 19L13 19L13 17L14 17L14 16L15 16L15 17L16 17L16 13L15 13L15 14L13 14L13 13L12 13L12 12L13 12L13 11ZM9 12L9 13L10 13L10 12ZM52 12L52 13L53 13L53 12ZM38 13L38 14L37 14L37 15L35 15L35 16L32 16L32 15L31 15L31 14L30 14L30 15L31 15L31 16L32 16L32 17L31 17L31 18L30 18L30 19L31 19L31 18L32 18L32 19L36 19L36 20L37 20L37 21L38 21L38 23L37 23L37 24L38 24L38 26L37 26L37 25L33 25L33 24L32 24L32 23L33 23L33 22L34 22L34 23L35 23L35 21L33 21L33 20L32 20L32 21L31 21L31 22L30 22L30 20L29 20L29 19L28 19L28 18L26 18L26 17L25 17L25 19L26 19L26 20L25 20L25 21L28 21L28 22L27 22L27 24L25 24L25 25L26 25L26 26L25 26L25 27L23 27L23 26L22 26L22 27L21 27L21 28L22 28L22 29L19 29L19 30L20 30L20 32L19 32L19 33L18 33L18 34L19 34L19 35L21 35L21 36L19 36L19 37L18 37L18 39L20 39L20 38L19 38L19 37L21 37L21 38L24 38L24 37L23 37L23 36L24 36L24 34L23 34L23 33L25 33L25 31L23 31L23 29L24 29L24 28L25 28L25 29L26 29L26 28L25 28L25 27L26 27L26 26L27 26L27 25L28 25L28 26L29 26L29 24L32 24L32 26L33 26L33 27L34 27L34 26L36 26L36 27L35 27L35 28L36 28L36 27L39 27L39 25L43 25L43 24L42 24L42 23L43 23L43 22L41 22L41 24L38 24L38 23L40 23L40 22L39 22L39 21L42 21L42 20L39 20L39 21L38 21L38 20L37 20L37 19L39 19L39 17L41 17L41 16L42 16L42 17L43 17L43 16L42 16L42 15L43 15L43 14L39 14L39 13ZM11 14L11 15L12 15L12 16L13 16L13 15L12 15L12 14ZM38 14L38 15L39 15L39 16L38 16L38 17L37 17L37 16L35 16L35 17L37 17L37 18L38 18L38 17L39 17L39 16L41 16L41 15L39 15L39 14ZM20 17L20 19L19 19L19 20L20 20L20 19L24 19L24 18L22 18L22 17ZM41 18L41 19L42 19L42 18ZM43 18L43 20L44 20L44 18ZM6 19L6 20L7 20L7 19ZM10 19L10 21L11 21L11 19ZM46 20L46 21L45 21L45 22L46 22L46 23L45 23L45 24L47 24L47 25L48 25L48 24L47 24L47 22L46 22L46 21L47 21L47 20ZM6 21L6 22L7 22L7 21ZM10 22L10 25L9 25L9 26L11 26L11 22ZM21 22L21 23L22 23L22 22ZM29 22L29 23L28 23L28 24L29 24L29 23L30 23L30 22ZM4 23L4 24L5 24L5 25L6 25L6 26L7 26L7 25L6 25L6 24L7 24L7 23ZM2 24L2 25L1 25L1 26L2 26L2 27L1 27L1 28L2 28L2 27L3 27L3 28L4 28L4 27L3 27L3 26L4 26L4 25L3 25L3 24ZM17 26L17 27L18 27L18 26ZM53 26L53 27L54 27L54 26ZM5 27L5 30L8 30L8 27ZM27 27L27 30L30 30L30 27ZM45 27L45 28L46 28L46 27ZM49 27L49 30L52 30L52 27ZM6 28L6 29L7 29L7 28ZM28 28L28 29L29 29L29 28ZM50 28L50 29L51 29L51 28ZM54 28L54 29L56 29L56 28ZM41 29L41 30L40 30L40 31L41 31L41 30L44 30L44 29ZM3 30L3 32L4 32L4 30ZM31 30L31 31L30 31L30 32L29 32L29 31L28 31L28 32L29 32L29 33L31 33L31 32L32 32L32 30ZM38 30L38 32L39 32L39 30ZM5 31L5 32L7 32L7 31ZM21 31L21 32L23 32L23 31ZM46 31L46 32L47 32L47 31ZM9 33L9 34L10 34L10 33ZM14 33L14 34L15 34L15 33ZM19 33L19 34L20 34L20 33ZM21 33L21 35L22 35L22 36L23 36L23 35L22 35L22 33ZM6 34L6 35L5 35L5 36L6 36L6 35L7 35L7 34ZM42 34L42 36L40 36L40 37L42 37L42 36L44 36L44 37L45 37L45 36L44 36L44 35L43 35L43 34ZM50 34L50 35L52 35L52 34ZM5 37L5 38L6 38L6 39L7 39L7 38L6 38L6 37ZM25 37L25 38L27 38L27 37ZM12 39L12 40L13 40L13 39ZM4 41L4 42L5 42L5 41ZM10 41L10 44L11 44L11 41ZM26 41L26 42L27 42L27 41ZM41 42L41 44L39 44L39 45L38 45L38 46L39 46L39 47L38 47L38 48L37 48L37 49L38 49L38 48L39 48L39 47L40 47L40 46L41 46L41 48L42 48L42 49L43 49L43 48L42 48L42 47L43 47L43 46L41 46L41 44L42 44L42 42ZM45 42L45 43L46 43L46 44L45 44L45 45L47 45L47 43L48 43L48 42ZM51 42L51 43L50 43L50 44L51 44L51 43L53 43L53 42ZM3 44L3 45L4 45L4 44ZM22 45L22 46L23 46L23 45ZM50 45L50 46L51 46L51 47L52 47L52 46L51 46L51 45ZM54 45L54 46L55 46L55 45ZM8 47L8 49L9 49L9 50L10 50L10 51L11 51L11 49L10 49L10 48L9 48L9 47ZM28 47L28 48L29 48L29 47ZM19 48L19 49L20 49L20 48ZM45 48L45 50L46 50L46 48ZM13 49L13 50L14 50L14 49ZM27 49L27 52L30 52L30 49ZM33 49L33 50L34 50L34 49ZM49 49L49 52L52 52L52 49ZM28 50L28 51L29 51L29 50ZM50 50L50 51L51 51L51 50ZM54 50L54 51L55 51L55 50ZM15 51L15 52L14 52L14 53L16 53L16 52L17 52L17 51ZM32 51L32 52L33 52L33 51ZM43 53L43 54L44 54L44 53ZM41 54L41 55L42 55L42 54ZM50 55L50 56L51 56L51 55ZM53 55L53 56L55 56L55 57L56 57L56 56L55 56L55 55ZM43 56L43 57L44 57L44 56ZM0 0L0 7L7 7L7 0ZM1 1L1 6L6 6L6 1ZM2 2L2 5L5 5L5 2ZM50 0L50 7L57 7L57 0ZM51 1L51 6L56 6L56 1ZM52 2L52 5L55 5L55 2ZM0 50L0 57L7 57L7 50ZM1 51L1 56L6 56L6 51ZM2 52L2 55L5 55L5 52Z" fill="#000000"/></g></g></svg>
