<?xml version="1.0" encoding="UTF-8"?>
<svg xmlns="http://www.w3.org/2000/svg" version="1.1" width="300" height="300" viewBox="0 0 300 300"><rect x="0" y="0" width="300" height="300" fill="#fefefe"/><g transform="scale(4.615)"><g transform="translate(4,4)"><path fill-rule="evenodd" d="M8 0L8 1L9 1L9 2L8 2L8 5L9 5L9 6L8 6L8 7L9 7L9 6L10 6L10 8L8 8L8 9L7 9L7 8L6 8L6 9L7 9L7 10L5 10L5 9L4 9L4 8L0 8L0 13L1 13L1 11L2 11L2 12L3 12L3 11L4 11L4 13L7 13L7 14L4 14L4 15L5 15L5 17L7 17L7 18L4 18L4 21L5 21L5 22L4 22L4 23L3 23L3 20L2 20L2 19L1 19L1 18L2 18L2 17L3 17L3 13L2 13L2 15L1 15L1 14L0 14L0 16L1 16L1 17L0 17L0 20L1 20L1 21L2 21L2 24L4 24L4 25L5 25L5 22L6 22L6 23L8 23L8 24L6 24L6 25L8 25L8 26L4 26L4 28L3 28L3 29L2 29L2 28L0 28L0 30L2 30L2 31L1 31L1 33L0 33L0 34L2 34L2 35L1 35L1 37L0 37L0 38L1 38L1 40L0 40L0 42L2 42L2 43L0 43L0 44L1 44L1 45L0 45L0 48L5 48L5 47L7 47L7 46L6 46L6 45L7 45L7 44L6 44L6 43L7 43L7 42L4 42L4 43L5 43L5 47L3 47L3 45L4 45L4 44L3 44L3 45L2 45L2 43L3 43L3 41L4 41L4 38L3 38L3 37L2 37L2 35L3 35L3 34L2 34L2 33L4 33L4 34L5 34L5 35L4 35L4 37L5 37L5 38L6 38L6 39L7 39L7 40L5 40L5 41L8 41L8 46L9 46L9 47L10 47L10 45L11 45L11 46L12 46L12 44L11 44L11 43L10 43L10 42L9 42L9 40L10 40L10 39L11 39L11 40L12 40L12 39L13 39L13 40L14 40L14 41L15 41L15 42L13 42L13 41L12 41L12 42L13 42L13 43L16 43L16 44L13 44L13 46L14 46L14 47L15 47L15 46L14 46L14 45L16 45L16 44L17 44L17 40L16 40L16 39L17 39L17 38L19 38L19 40L20 40L20 41L22 41L22 44L20 44L20 45L17 45L17 46L16 46L16 47L17 47L17 50L16 50L16 49L14 49L14 48L13 48L13 47L11 47L11 48L9 48L9 49L8 49L8 48L6 48L6 49L8 49L8 50L9 50L9 51L10 51L10 52L11 52L11 54L10 54L10 53L8 53L8 57L9 57L9 56L10 56L10 57L14 57L14 56L15 56L15 57L18 57L18 56L19 56L19 55L20 55L20 57L23 57L23 56L22 56L22 55L23 55L23 54L25 54L25 55L24 55L24 56L28 56L28 55L27 55L27 54L25 54L25 53L29 53L29 54L31 54L31 55L30 55L30 56L31 56L31 57L32 57L32 55L34 55L34 56L33 56L33 57L36 57L36 55L38 55L38 57L41 57L41 56L42 56L42 57L43 57L43 56L45 56L45 57L47 57L47 56L48 56L48 57L51 57L51 54L52 54L52 53L54 53L54 54L53 54L53 55L54 55L54 54L56 54L56 53L57 53L57 52L55 52L55 51L56 51L56 49L57 49L57 48L56 48L56 49L55 49L55 50L53 50L53 48L54 48L54 47L51 47L51 46L50 46L50 44L49 44L49 43L50 43L50 42L51 42L51 44L52 44L52 45L53 45L53 46L55 46L55 47L57 47L57 44L52 44L52 43L53 43L53 42L54 42L54 43L56 43L56 42L57 42L57 40L56 40L56 41L55 41L55 38L56 38L56 39L57 39L57 38L56 38L56 37L55 37L55 36L54 36L54 35L57 35L57 34L55 34L55 33L57 33L57 31L56 31L56 30L57 30L57 28L55 28L55 27L53 27L53 26L51 26L51 23L49 23L49 21L48 21L48 20L47 20L47 19L48 19L48 17L47 17L47 16L48 16L48 14L47 14L47 15L46 15L46 17L45 17L45 16L44 16L44 15L45 15L45 14L46 14L46 13L44 13L44 11L42 11L42 10L43 10L43 8L45 8L45 9L44 9L44 10L45 10L45 11L48 11L48 12L49 12L49 17L52 17L52 16L55 16L55 17L54 17L54 18L52 18L52 19L56 19L56 18L57 18L57 15L55 15L55 14L54 14L54 15L51 15L51 13L52 13L52 14L53 14L53 13L54 13L54 10L53 10L53 13L52 13L52 12L51 12L51 11L52 11L52 9L55 9L55 8L52 8L52 9L51 9L51 11L50 11L50 8L49 8L49 9L47 9L47 8L46 8L46 7L47 7L47 5L48 5L48 0L45 0L45 1L44 1L44 2L41 2L41 1L43 1L43 0L41 0L41 1L40 1L40 0L39 0L39 1L40 1L40 2L41 2L41 4L38 4L38 3L39 3L39 2L37 2L37 1L38 1L38 0L37 0L37 1L36 1L36 0L35 0L35 1L34 1L34 2L35 2L35 3L33 3L33 0L29 0L29 1L31 1L31 3L30 3L30 2L29 2L29 3L30 3L30 4L28 4L28 2L27 2L27 4L26 4L26 1L25 1L25 0L23 0L23 1L25 1L25 2L24 2L24 3L23 3L23 5L20 5L20 4L19 4L19 3L18 3L18 2L19 2L19 1L20 1L20 2L21 2L21 3L22 3L22 2L21 2L21 1L22 1L22 0L21 0L21 1L20 1L20 0L18 0L18 1L17 1L17 2L16 2L16 1L15 1L15 0L14 0L14 1L15 1L15 3L18 3L18 5L15 5L15 4L14 4L14 3L13 3L13 4L11 4L11 5L9 5L9 4L10 4L10 3L9 3L9 2L10 2L10 0ZM12 1L12 2L11 2L11 3L12 3L12 2L13 2L13 1ZM35 1L35 2L36 2L36 1ZM45 1L45 3L44 3L44 4L45 4L45 5L43 5L43 4L41 4L41 7L40 7L40 5L38 5L38 6L37 6L37 5L36 5L36 4L34 4L34 5L33 5L33 3L32 3L32 4L31 4L31 5L32 5L32 6L31 6L31 9L32 9L32 10L30 10L30 11L28 11L28 10L29 10L29 9L27 9L27 10L26 10L26 11L25 11L25 12L24 12L24 14L25 14L25 15L26 15L26 16L25 16L25 17L24 17L24 18L23 18L23 16L24 16L24 15L23 15L23 13L22 13L22 12L23 12L23 11L21 11L21 8L23 8L23 7L24 7L24 9L26 9L26 6L25 6L25 5L26 5L26 4L24 4L24 6L23 6L23 7L22 7L22 6L21 6L21 7L20 7L20 6L19 6L19 7L20 7L20 10L18 10L18 12L17 12L17 8L18 8L18 9L19 9L19 8L18 8L18 6L17 6L17 7L16 7L16 6L15 6L15 5L14 5L14 4L13 4L13 7L12 7L12 5L11 5L11 8L10 8L10 9L8 9L8 10L7 10L7 11L6 11L6 12L7 12L7 11L8 11L8 10L9 10L9 11L11 11L11 9L12 9L12 8L13 8L13 9L14 9L14 11L15 11L15 15L16 15L16 16L17 16L17 19L18 19L18 21L19 21L19 22L17 22L17 23L16 23L16 20L14 20L14 22L12 22L12 20L11 20L11 21L10 21L10 19L16 19L16 17L15 17L15 18L10 18L10 17L11 17L11 16L10 16L10 17L9 17L9 18L7 18L7 19L6 19L6 20L5 20L5 21L6 21L6 22L9 22L9 21L10 21L10 22L11 22L11 24L10 24L10 25L9 25L9 24L8 24L8 25L9 25L9 27L10 27L10 28L11 28L11 29L10 29L10 30L11 30L11 31L10 31L10 32L11 32L11 34L12 34L12 36L11 36L11 35L10 35L10 33L9 33L9 34L8 34L8 33L5 33L5 34L8 34L8 36L9 36L9 35L10 35L10 38L14 38L14 37L15 37L15 38L17 38L17 36L18 36L18 35L19 35L19 34L20 34L20 36L19 36L19 37L20 37L20 38L21 38L21 39L22 39L22 38L23 38L23 36L26 36L26 35L25 35L25 34L26 34L26 33L27 33L27 34L28 34L28 35L29 35L29 36L27 36L27 38L29 38L29 36L32 36L32 38L30 38L30 39L28 39L28 41L29 41L29 42L25 42L25 41L26 41L26 40L27 40L27 39L26 39L26 37L24 37L24 39L23 39L23 40L22 40L22 41L23 41L23 40L24 40L24 39L25 39L25 41L24 41L24 42L23 42L23 43L26 43L26 45L25 45L25 47L24 47L24 49L23 49L23 48L21 48L21 50L22 50L22 49L23 49L23 52L22 52L22 51L21 51L21 52L22 52L22 53L20 53L20 55L22 55L22 53L23 53L23 52L24 52L24 53L25 53L25 52L26 52L26 51L24 51L24 50L25 50L25 49L26 49L26 48L32 48L32 50L31 50L31 53L32 53L32 50L33 50L33 52L35 52L35 53L36 53L36 54L34 54L34 55L36 55L36 54L37 54L37 52L40 52L40 54L41 54L41 53L42 53L42 54L43 54L43 52L40 52L40 51L44 51L44 50L45 50L45 53L46 53L46 51L47 51L47 52L48 52L48 48L47 48L47 49L46 49L46 46L47 46L47 45L49 45L49 44L44 44L44 42L43 42L43 41L42 41L42 42L43 42L43 43L42 43L42 45L43 45L43 47L40 47L40 46L39 46L39 45L38 45L38 44L39 44L39 43L38 43L38 44L37 44L37 42L41 42L41 40L44 40L44 39L46 39L46 38L48 38L48 39L47 39L47 40L50 40L50 41L47 41L47 42L48 42L48 43L49 43L49 42L50 42L50 41L52 41L52 40L50 40L50 39L52 39L52 38L53 38L53 39L54 39L54 38L53 38L53 36L52 36L52 35L51 35L51 36L52 36L52 38L51 38L51 37L49 37L49 38L48 38L48 35L46 35L46 34L50 34L50 33L49 33L49 32L50 32L50 31L49 31L49 32L48 32L48 30L47 30L47 31L44 31L44 30L43 30L43 29L42 29L42 30L40 30L40 29L41 29L41 27L42 27L42 28L44 28L44 26L43 26L43 24L44 24L44 25L46 25L46 26L47 26L47 27L48 27L48 26L49 26L49 25L50 25L50 24L49 24L49 25L46 25L46 24L45 24L45 23L46 23L46 22L47 22L47 23L48 23L48 22L47 22L47 20L46 20L46 18L45 18L45 17L42 17L42 14L43 14L43 15L44 15L44 13L43 13L43 12L42 12L42 11L40 11L40 10L41 10L41 9L40 9L40 10L39 10L39 9L38 9L38 10L37 10L37 8L36 8L36 9L34 9L34 6L35 6L35 7L36 7L36 6L37 6L37 7L38 7L38 8L43 8L43 7L44 7L44 6L45 6L45 7L46 7L46 6L45 6L45 5L47 5L47 3L46 3L46 2L47 2L47 1ZM27 5L27 8L30 8L30 5ZM42 5L42 7L43 7L43 5ZM14 6L14 8L15 8L15 11L16 11L16 8L15 8L15 6ZM24 6L24 7L25 7L25 6ZM28 6L28 7L29 7L29 6ZM32 6L32 8L33 8L33 6ZM38 6L38 7L39 7L39 6ZM48 6L48 7L49 7L49 6ZM56 8L56 9L57 9L57 8ZM1 9L1 10L2 10L2 9ZM45 9L45 10L47 10L47 9ZM4 10L4 11L5 11L5 10ZM12 10L12 12L13 12L13 10ZM33 10L33 14L32 14L32 15L31 15L31 14L30 14L30 13L28 13L28 12L26 12L26 14L27 14L27 17L29 17L29 18L28 18L28 19L29 19L29 20L27 20L27 18L26 18L26 17L25 17L25 18L24 18L24 19L25 19L25 22L24 22L24 21L23 21L23 18L22 18L22 17L21 17L21 16L20 16L20 14L21 14L21 13L20 13L20 12L21 12L21 11L19 11L19 12L18 12L18 13L19 13L19 14L18 14L18 16L19 16L19 17L18 17L18 19L19 19L19 17L21 17L21 18L20 18L20 20L21 20L21 22L19 22L19 24L17 24L17 25L19 25L19 26L17 26L17 27L15 27L15 26L16 26L16 25L15 25L15 24L16 24L16 23L15 23L15 22L14 22L14 23L13 23L13 24L14 24L14 26L12 26L12 24L11 24L11 26L12 26L12 27L11 27L11 28L12 28L12 27L15 27L15 28L13 28L13 30L12 30L12 29L11 29L11 30L12 30L12 34L13 34L13 35L14 35L14 34L13 34L13 33L14 33L14 32L13 32L13 30L14 30L14 31L16 31L16 32L17 32L17 33L18 33L18 31L17 31L17 27L19 27L19 28L18 28L18 29L19 29L19 30L20 30L20 28L21 28L21 26L22 26L22 27L25 27L25 28L26 28L26 30L24 30L24 29L21 29L21 30L23 30L23 31L22 31L22 32L21 32L21 31L20 31L20 33L21 33L21 36L22 36L22 35L24 35L24 34L25 34L25 32L24 32L24 31L30 31L30 33L29 33L29 35L30 35L30 34L31 34L31 35L32 35L32 36L33 36L33 35L36 35L36 36L35 36L35 37L37 37L37 39L38 39L38 40L37 40L37 41L40 41L40 40L41 40L41 39L44 39L44 38L42 38L42 36L43 36L43 37L44 37L44 36L45 36L45 38L46 38L46 37L47 37L47 36L45 36L45 33L46 33L46 32L45 32L45 33L44 33L44 31L41 31L41 32L40 32L40 31L39 31L39 30L38 30L38 29L40 29L40 28L39 28L39 27L41 27L41 25L38 25L38 24L40 24L40 23L41 23L41 24L42 24L42 23L45 23L45 22L44 22L44 21L43 21L43 18L42 18L42 17L41 17L41 18L39 18L39 19L40 19L40 20L39 20L39 23L38 23L38 21L36 21L36 20L38 20L38 19L36 19L36 20L35 20L35 19L34 19L34 18L35 18L35 17L34 17L34 16L35 16L35 15L33 15L33 14L34 14L34 12L35 12L35 14L37 14L37 15L39 15L39 17L40 17L40 16L41 16L41 15L39 15L39 11L38 11L38 12L36 12L36 10L35 10L35 11L34 11L34 10ZM48 10L48 11L49 11L49 10ZM55 10L55 13L57 13L57 12L56 12L56 11L57 11L57 10ZM30 11L30 12L31 12L31 13L32 13L32 12L31 12L31 11ZM9 12L9 13L8 13L8 14L7 14L7 15L6 15L6 16L7 16L7 15L10 15L10 14L12 14L12 15L13 15L13 16L14 16L14 15L13 15L13 14L14 14L14 13L13 13L13 14L12 14L12 13L11 13L11 12ZM16 12L16 13L17 13L17 12ZM50 12L50 13L51 13L51 12ZM40 13L40 14L41 14L41 13ZM16 14L16 15L17 15L17 14ZM28 15L28 16L29 16L29 17L30 17L30 20L29 20L29 21L28 21L28 25L29 25L29 24L31 24L31 23L32 23L32 22L34 22L34 23L33 23L33 24L32 24L32 25L33 25L33 24L35 24L35 23L36 23L36 24L37 24L37 22L35 22L35 21L33 21L33 20L34 20L34 19L33 19L33 18L32 18L32 17L31 17L31 16L29 16L29 15ZM32 15L32 16L33 16L33 15ZM36 17L36 18L37 18L37 17ZM55 17L55 18L56 18L56 17ZM21 18L21 20L22 20L22 18ZM41 18L41 19L42 19L42 18ZM44 18L44 19L45 19L45 18ZM8 19L8 21L9 21L9 19ZM31 19L31 20L30 20L30 21L29 21L29 22L30 22L30 23L31 23L31 20L32 20L32 19ZM49 19L49 20L50 20L50 21L51 21L51 22L52 22L52 23L53 23L53 24L54 24L54 23L57 23L57 21L56 21L56 20L54 20L54 21L53 21L53 20L50 20L50 19ZM6 20L6 21L7 21L7 20ZM26 20L26 21L27 21L27 20ZM41 20L41 21L42 21L42 20ZM54 21L54 22L56 22L56 21ZM0 22L0 23L1 23L1 22ZM21 22L21 23L20 23L20 24L19 24L19 25L20 25L20 24L21 24L21 23L22 23L22 25L23 25L23 26L25 26L25 25L27 25L27 24L26 24L26 23L27 23L27 22L25 22L25 25L24 25L24 24L23 24L23 22ZM55 24L55 25L56 25L56 24ZM1 25L1 27L2 27L2 26L3 26L3 25ZM30 25L30 26L31 26L31 25ZM34 25L34 27L35 27L35 25ZM38 26L38 27L39 27L39 26ZM42 26L42 27L43 27L43 26ZM5 27L5 30L8 30L8 27ZM27 27L27 30L30 30L30 27ZM31 27L31 28L33 28L33 27ZM36 27L36 30L35 30L35 31L37 31L37 32L36 32L36 33L37 33L37 32L38 32L38 34L39 34L39 31L38 31L38 30L37 30L37 27ZM45 27L45 30L46 30L46 27ZM49 27L49 30L52 30L52 27ZM6 28L6 29L7 29L7 28ZM28 28L28 29L29 29L29 28ZM34 28L34 29L35 29L35 28ZM50 28L50 29L51 29L51 28ZM53 28L53 29L54 29L54 30L53 30L53 31L52 31L52 34L54 34L54 33L55 33L55 31L54 31L54 30L56 30L56 29L54 29L54 28ZM14 29L14 30L16 30L16 29ZM31 29L31 31L33 31L33 29ZM3 30L3 31L4 31L4 30ZM6 31L6 32L8 32L8 31ZM23 32L23 33L22 33L22 34L23 34L23 33L24 33L24 32ZM27 32L27 33L28 33L28 32ZM31 32L31 34L32 34L32 33L33 33L33 32ZM42 32L42 33L43 33L43 32ZM53 32L53 33L54 33L54 32ZM34 33L34 34L35 34L35 33ZM15 34L15 36L17 36L17 35L16 35L16 34ZM41 34L41 35L39 35L39 36L40 36L40 37L41 37L41 36L42 36L42 34ZM43 34L43 35L44 35L44 34ZM5 35L5 36L7 36L7 35ZM12 36L12 37L13 37L13 36ZM37 36L37 37L38 37L38 36ZM1 37L1 38L2 38L2 39L3 39L3 38L2 38L2 37ZM6 37L6 38L7 38L7 39L8 39L8 40L9 40L9 37L8 37L8 38L7 38L7 37ZM21 37L21 38L22 38L22 37ZM33 37L33 38L32 38L32 39L33 39L33 40L31 40L31 42L29 42L29 43L27 43L27 45L26 45L26 46L27 46L27 47L28 47L28 46L27 46L27 45L30 45L30 46L31 46L31 47L32 47L32 48L33 48L33 46L32 46L32 42L33 42L33 45L34 45L34 44L35 44L35 46L34 46L34 48L35 48L35 52L36 52L36 51L39 51L39 50L40 50L40 49L39 49L39 48L38 48L38 49L37 49L37 48L35 48L35 47L36 47L36 46L37 46L37 47L38 47L38 45L36 45L36 44L35 44L35 43L34 43L34 42L36 42L36 41L34 41L34 40L35 40L35 39L36 39L36 38L34 38L34 37ZM38 38L38 39L39 39L39 38ZM1 40L1 41L2 41L2 40ZM15 40L15 41L16 41L16 40ZM45 40L45 41L46 41L46 40ZM18 41L18 43L19 43L19 41ZM54 41L54 42L55 42L55 41ZM20 42L20 43L21 43L21 42ZM9 43L9 44L10 44L10 43ZM29 43L29 44L30 44L30 45L31 45L31 43ZM40 43L40 44L41 44L41 43ZM22 44L22 46L21 46L21 45L20 45L20 46L19 46L19 47L18 47L18 48L19 48L19 49L20 49L20 48L19 48L19 47L20 47L20 46L21 46L21 47L22 47L22 46L23 46L23 44ZM44 45L44 46L45 46L45 45ZM55 45L55 46L56 46L56 45ZM1 46L1 47L2 47L2 46ZM48 46L48 47L49 47L49 48L50 48L50 47L49 47L49 46ZM25 47L25 48L26 48L26 47ZM43 47L43 49L44 49L44 48L45 48L45 47ZM11 48L11 49L9 49L9 50L10 50L10 51L12 51L12 50L14 50L14 49L13 49L13 48ZM41 48L41 49L42 49L42 48ZM27 49L27 52L30 52L30 49ZM33 49L33 50L34 50L34 49ZM36 49L36 50L37 50L37 49ZM45 49L45 50L46 50L46 49ZM49 49L49 52L52 52L52 49ZM17 50L17 51L16 51L16 52L15 52L15 51L13 51L13 53L12 53L12 54L11 54L11 55L10 55L10 56L11 56L11 55L12 55L12 56L13 56L13 55L15 55L15 53L16 53L16 54L17 54L17 56L18 56L18 55L19 55L19 52L20 52L20 51L18 51L18 50ZM28 50L28 51L29 51L29 50ZM50 50L50 51L51 51L51 50ZM17 51L17 52L18 52L18 51ZM14 52L14 53L15 53L15 52ZM54 52L54 53L55 53L55 52ZM17 53L17 54L18 54L18 53ZM38 53L38 54L39 54L39 53ZM47 53L47 54L50 54L50 53ZM12 54L12 55L13 55L13 54ZM44 54L44 55L45 55L45 54ZM39 55L39 56L40 56L40 55ZM48 55L48 56L49 56L49 55ZM56 55L56 56L57 56L57 55ZM52 56L52 57L55 57L55 56ZM0 0L0 7L7 7L7 0ZM1 1L1 6L6 6L6 1ZM2 2L2 5L5 5L5 2ZM50 0L50 7L57 7L57 0ZM51 1L51 6L56 6L56 1ZM52 2L52 5L55 5L55 2ZM0 50L0 57L7 57L7 50ZM1 51L1 56L6 56L6 51ZM2 52L2 55L5 55L5 52Z" fill="#000000"/></g></g></svg>
