<?xml version="1.0" encoding="UTF-8"?>
<svg xmlns="http://www.w3.org/2000/svg" version="1.1" width="300" height="300" viewBox="0 0 300 300"><rect x="0" y="0" width="300" height="300" fill="#fefefe"/><g transform="scale(4.615)"><g transform="translate(4,4)"><path fill-rule="evenodd" d="M9 0L9 1L8 1L8 2L9 2L9 3L8 3L8 4L10 4L10 5L8 5L8 7L9 7L9 6L10 6L10 8L6 8L6 9L5 9L5 8L0 8L0 10L1 10L1 11L0 11L0 13L3 13L3 15L4 15L4 14L5 14L5 15L7 15L7 16L6 16L6 17L5 17L5 16L2 16L2 14L0 14L0 15L1 15L1 18L0 18L0 19L2 19L2 20L1 20L1 22L0 22L0 23L1 23L1 24L2 24L2 23L1 23L1 22L3 22L3 21L2 21L2 20L3 20L3 19L2 19L2 18L3 18L3 17L4 17L4 19L5 19L5 18L6 18L6 19L7 19L7 20L4 20L4 23L3 23L3 24L4 24L4 25L3 25L3 26L4 26L4 30L2 30L2 25L1 25L1 26L0 26L0 27L1 27L1 31L0 31L0 32L1 32L1 31L2 31L2 33L4 33L4 34L5 34L5 35L4 35L4 36L3 36L3 38L2 38L2 37L1 37L1 36L0 36L0 37L1 37L1 38L2 38L2 39L1 39L1 40L0 40L0 41L1 41L1 40L2 40L2 39L4 39L4 38L6 38L6 39L5 39L5 40L3 40L3 41L7 41L7 40L6 40L6 39L8 39L8 40L9 40L9 41L12 41L12 42L10 42L10 43L12 43L12 44L9 44L9 42L8 42L8 43L7 43L7 42L6 42L6 43L4 43L4 42L2 42L2 44L1 44L1 42L0 42L0 44L1 44L1 45L0 45L0 48L5 48L5 47L7 47L7 48L6 48L6 49L8 49L8 51L9 51L9 52L8 52L8 57L13 57L13 55L14 55L14 57L16 57L16 56L17 56L17 57L20 57L20 56L18 56L18 55L20 55L20 54L19 54L19 53L20 53L20 52L21 52L21 50L25 50L25 51L26 51L26 52L24 52L24 53L23 53L23 54L22 54L22 53L21 53L21 54L22 54L22 56L23 56L23 57L26 57L26 55L27 55L27 54L30 54L30 53L31 53L31 50L32 50L32 48L31 48L31 46L32 46L32 45L31 45L31 44L33 44L33 43L34 43L34 45L35 45L35 46L33 46L33 47L35 47L35 46L37 46L37 47L36 47L36 48L34 48L34 49L33 49L33 50L34 50L34 51L32 51L32 52L33 52L33 53L32 53L32 54L31 54L31 56L30 56L30 55L29 55L29 56L27 56L27 57L29 57L29 56L30 56L30 57L31 57L31 56L35 56L35 57L39 57L39 56L41 56L41 54L42 54L42 55L44 55L44 56L43 56L43 57L44 57L44 56L45 56L45 57L47 57L47 56L48 56L48 55L49 55L49 56L50 56L50 57L52 57L52 55L51 55L51 53L52 53L52 54L53 54L53 52L54 52L54 53L56 53L56 52L57 52L57 51L56 51L56 50L57 50L57 48L56 48L56 46L57 46L57 43L56 43L56 42L57 42L57 41L56 41L56 42L55 42L55 39L57 39L57 35L56 35L56 34L55 34L55 33L54 33L54 32L56 32L56 33L57 33L57 32L56 32L56 30L57 30L57 28L56 28L56 29L54 29L54 28L55 28L55 27L56 27L56 26L57 26L57 25L56 25L56 22L57 22L57 20L56 20L56 18L57 18L57 17L56 17L56 16L57 16L57 15L56 15L56 14L57 14L57 11L56 11L56 10L54 10L54 11L53 11L53 10L50 10L50 8L49 8L49 9L48 9L48 7L49 7L49 6L48 6L48 7L47 7L47 5L48 5L48 0L45 0L45 1L47 1L47 2L44 2L44 3L43 3L43 4L40 4L40 5L39 5L39 6L38 6L38 7L37 7L37 5L38 5L38 4L37 4L37 3L42 3L42 2L43 2L43 0L41 0L41 1L40 1L40 0L39 0L39 1L38 1L38 0L37 0L37 1L38 1L38 2L37 2L37 3L36 3L36 0L35 0L35 1L33 1L33 0L27 0L27 1L26 1L26 0L23 0L23 2L25 2L25 1L26 1L26 2L27 2L27 3L28 3L28 2L27 2L27 1L30 1L30 2L29 2L29 3L30 3L30 4L26 4L26 3L23 3L23 4L22 4L22 5L23 5L23 6L22 6L22 8L23 8L23 10L22 10L22 11L21 11L21 12L22 12L22 13L21 13L21 15L20 15L20 12L19 12L19 11L20 11L20 9L19 9L19 8L21 8L21 4L19 4L19 3L20 3L20 2L19 2L19 1L18 1L18 0L17 0L17 1L16 1L16 2L17 2L17 4L19 4L19 5L20 5L20 7L19 7L19 6L18 6L18 5L17 5L17 6L16 6L16 7L15 7L15 5L16 5L16 4L15 4L15 5L13 5L13 6L12 6L12 8L11 8L11 6L10 6L10 5L11 5L11 3L12 3L12 2L13 2L13 4L14 4L14 2L15 2L15 1L14 1L14 0L12 0L12 1L11 1L11 2L9 2L9 1L10 1L10 0ZM21 0L21 3L22 3L22 0ZM13 1L13 2L14 2L14 1ZM32 1L32 2L31 2L31 3L32 3L32 4L31 4L31 8L32 8L32 10L31 10L31 11L30 11L30 10L28 10L28 11L29 11L29 12L28 12L28 13L26 13L26 12L27 12L27 11L26 11L26 12L25 12L25 10L23 10L23 11L24 11L24 13L22 13L22 14L23 14L23 15L21 15L21 16L20 16L20 15L18 15L18 14L17 14L17 13L18 13L18 12L17 12L17 11L18 11L18 10L19 10L19 9L15 9L15 7L14 7L14 6L13 6L13 7L14 7L14 10L17 10L17 11L15 11L15 13L13 13L13 12L14 12L14 11L13 11L13 12L11 12L11 10L12 10L12 9L13 9L13 8L12 8L12 9L11 9L11 8L10 8L10 9L8 9L8 11L10 11L10 12L9 12L9 14L8 14L8 15L9 15L9 20L7 20L7 21L6 21L6 22L7 22L7 21L9 21L9 20L10 20L10 21L11 21L11 22L8 22L8 23L4 23L4 24L5 24L5 25L6 25L6 26L8 26L8 25L9 25L9 26L10 26L10 27L9 27L9 31L6 31L6 32L9 32L9 34L7 34L7 33L5 33L5 32L4 32L4 31L3 31L3 32L4 32L4 33L5 33L5 34L7 34L7 35L6 35L6 36L7 36L7 37L6 37L6 38L9 38L9 39L10 39L10 40L11 40L11 39L12 39L12 41L13 41L13 44L14 44L14 43L15 43L15 46L14 46L14 48L13 48L13 49L11 49L11 47L12 47L12 46L13 46L13 45L12 45L12 46L11 46L11 47L9 47L9 44L8 44L8 45L6 45L6 46L8 46L8 48L10 48L10 50L9 50L9 51L10 51L10 53L9 53L9 54L10 54L10 55L9 55L9 56L10 56L10 55L12 55L12 54L14 54L14 53L15 53L15 54L16 54L16 53L17 53L17 52L18 52L18 51L19 51L19 52L20 52L20 50L21 50L21 49L23 49L23 47L25 47L25 48L24 48L24 49L25 49L25 48L28 48L28 47L26 47L26 45L27 45L27 46L31 46L31 45L30 45L30 43L29 43L29 42L32 42L32 43L33 43L33 42L34 42L34 43L35 43L35 44L36 44L36 43L37 43L37 42L35 42L35 40L38 40L38 42L39 42L39 43L40 43L40 44L39 44L39 45L38 45L38 46L39 46L39 47L38 47L38 48L37 48L37 49L38 49L38 50L36 50L36 49L34 49L34 50L36 50L36 52L37 52L37 53L38 53L38 54L37 54L37 56L39 56L39 55L38 55L38 54L40 54L40 53L41 53L41 52L42 52L42 50L41 50L41 48L42 48L42 49L43 49L43 48L44 48L44 49L45 49L45 50L47 50L47 53L45 53L45 52L44 52L44 53L43 53L43 54L44 54L44 55L47 55L47 54L48 54L48 50L47 50L47 49L48 49L48 48L49 48L49 47L48 47L48 46L49 46L49 45L50 45L50 47L51 47L51 48L52 48L52 47L51 47L51 46L54 46L54 47L55 47L55 46L56 46L56 43L55 43L55 44L54 44L54 45L53 45L53 43L54 43L54 42L53 42L53 41L54 41L54 40L53 40L53 41L51 41L51 42L50 42L50 43L49 43L49 42L48 42L48 41L49 41L49 40L50 40L50 39L51 39L51 40L52 40L52 39L54 39L54 38L53 38L53 35L55 35L55 36L56 36L56 35L55 35L55 34L54 34L54 33L52 33L52 32L54 32L54 31L55 31L55 30L54 30L54 29L53 29L53 31L48 31L48 28L47 28L47 29L46 29L46 30L47 30L47 31L45 31L45 32L43 32L43 30L41 30L41 29L44 29L44 30L45 30L45 28L46 28L46 27L47 27L47 26L48 26L48 25L50 25L50 26L51 26L51 25L52 25L52 26L53 26L53 27L54 27L54 26L53 26L53 25L54 25L54 24L53 24L53 23L51 23L51 25L50 25L50 24L49 24L49 23L50 23L50 22L51 22L51 21L54 21L54 23L55 23L55 22L56 22L56 20L53 20L53 19L52 19L52 20L51 20L51 21L49 21L49 18L47 18L47 15L45 15L45 14L47 14L47 13L49 13L49 12L50 12L50 14L49 14L49 15L48 15L48 16L49 16L49 17L50 17L50 19L51 19L51 17L53 17L53 18L55 18L55 16L51 16L51 17L50 17L50 14L51 14L51 12L50 12L50 10L48 10L48 9L47 9L47 8L42 8L42 5L40 5L40 6L39 6L39 7L40 7L40 8L39 8L39 9L38 9L38 8L37 8L37 7L36 7L36 5L37 5L37 4L36 4L36 5L35 5L35 3L34 3L34 2L33 2L33 1ZM32 2L32 3L33 3L33 4L32 4L32 5L33 5L33 6L32 6L32 7L33 7L33 9L34 9L34 8L35 8L35 9L37 9L37 10L36 10L36 11L37 11L37 12L35 12L35 13L36 13L36 14L33 14L33 13L34 13L34 12L33 12L33 13L32 13L32 12L31 12L31 13L30 13L30 14L29 14L29 13L28 13L28 14L29 14L29 16L28 16L28 15L27 15L27 14L26 14L26 15L25 15L25 13L24 13L24 15L23 15L23 16L24 16L24 15L25 15L25 16L26 16L26 17L22 17L22 16L21 16L21 17L22 17L22 18L21 18L21 20L22 20L22 18L24 18L24 19L23 19L23 20L24 20L24 21L23 21L23 22L24 22L24 21L25 21L25 22L26 22L26 23L25 23L25 24L24 24L24 23L23 23L23 24L24 24L24 25L22 25L22 24L17 24L17 22L18 22L18 21L20 21L20 16L18 16L18 15L17 15L17 16L16 16L16 13L17 13L17 12L16 12L16 13L15 13L15 14L14 14L14 15L12 15L12 14L9 14L9 15L12 15L12 17L11 17L11 16L10 16L10 17L11 17L11 18L10 18L10 19L11 19L11 18L12 18L12 19L13 19L13 20L14 20L14 19L13 19L13 18L15 18L15 17L14 17L14 15L15 15L15 16L16 16L16 17L19 17L19 19L18 19L18 18L16 18L16 20L15 20L15 21L16 21L16 22L14 22L14 21L13 21L13 22L14 22L14 23L13 23L13 24L12 24L12 22L11 22L11 24L10 24L10 23L9 23L9 25L10 25L10 26L11 26L11 24L12 24L12 25L14 25L14 28L15 28L15 25L16 25L16 24L17 24L17 27L16 27L16 29L15 29L15 30L14 30L14 29L13 29L13 30L14 30L14 31L15 31L15 32L12 32L12 30L11 30L11 29L12 29L12 27L10 27L10 30L11 30L11 32L10 32L10 37L9 37L9 38L10 38L10 39L11 39L11 38L10 38L10 37L12 37L12 38L13 38L13 39L14 39L14 38L16 38L16 37L14 37L14 36L17 36L17 37L18 37L18 39L17 39L17 40L16 40L16 39L15 39L15 40L13 40L13 41L17 41L17 42L15 42L15 43L16 43L16 45L17 45L17 46L15 46L15 48L14 48L14 49L13 49L13 50L12 50L12 52L15 52L15 53L16 53L16 52L15 52L15 51L16 51L16 50L15 50L15 49L19 49L19 50L20 50L20 48L21 48L21 47L23 47L23 46L25 46L25 45L23 45L23 44L27 44L27 45L28 45L28 44L29 44L29 43L28 43L28 44L27 44L27 43L25 43L25 41L24 41L24 40L25 40L25 39L27 39L27 41L26 41L26 42L27 42L27 41L28 41L28 39L27 39L27 38L28 38L28 37L27 37L27 33L26 33L26 32L27 32L27 31L29 31L29 32L28 32L28 33L29 33L29 34L30 34L30 36L29 36L29 37L31 37L31 38L29 38L29 39L33 39L33 40L35 40L35 39L37 39L37 38L38 38L38 37L40 37L40 38L41 38L41 42L40 42L40 43L42 43L42 44L41 44L41 45L40 45L40 47L39 47L39 48L38 48L38 49L39 49L39 48L41 48L41 46L43 46L43 47L42 47L42 48L43 48L43 47L44 47L44 46L43 46L43 45L44 45L44 44L43 44L43 42L44 42L44 43L45 43L45 41L47 41L47 39L50 39L50 38L51 38L51 37L50 37L50 38L48 38L48 37L49 37L49 36L48 36L48 35L47 35L47 36L46 36L46 35L44 35L44 33L43 33L43 32L41 32L41 33L39 33L39 34L40 34L40 35L39 35L39 36L38 36L38 33L37 33L37 32L35 32L35 31L36 31L36 30L33 30L33 33L32 33L32 32L31 32L31 33L29 33L29 32L30 32L30 31L32 31L32 28L31 28L31 26L32 26L32 27L33 27L33 28L35 28L35 29L38 29L38 28L42 28L42 26L43 26L43 28L45 28L45 27L46 27L46 26L45 26L45 27L44 27L44 24L42 24L42 23L41 23L41 22L43 22L43 23L44 23L44 20L47 20L47 18L46 18L46 16L45 16L45 18L44 18L44 14L43 14L43 13L44 13L44 12L43 12L43 13L41 13L41 14L40 14L40 13L39 13L39 12L41 12L41 10L42 10L42 11L45 11L45 12L47 12L47 10L46 10L46 9L45 9L45 10L44 10L44 9L41 9L41 10L40 10L40 9L39 9L39 11L38 11L38 9L37 9L37 8L35 8L35 5L33 5L33 4L34 4L34 3L33 3L33 2ZM44 3L44 6L43 6L43 7L44 7L44 6L45 6L45 7L46 7L46 6L45 6L45 4L46 4L46 5L47 5L47 3ZM23 4L23 5L24 5L24 4ZM25 4L25 8L26 8L26 4ZM27 5L27 8L30 8L30 5ZM17 6L17 7L16 7L16 8L19 8L19 7L18 7L18 6ZM23 6L23 8L24 8L24 6ZM28 6L28 7L29 7L29 6ZM33 6L33 7L34 7L34 6ZM40 6L40 7L41 7L41 6ZM51 8L51 9L52 9L52 8ZM53 8L53 9L54 9L54 8ZM55 8L55 9L56 9L56 8ZM3 9L3 10L2 10L2 12L3 12L3 13L5 13L5 12L7 12L7 13L6 13L6 14L7 14L7 13L8 13L8 12L7 12L7 11L3 11L3 10L5 10L5 9ZM6 9L6 10L7 10L7 9ZM32 10L32 11L33 11L33 10ZM45 10L45 11L46 11L46 10ZM48 11L48 12L49 12L49 11ZM55 11L55 12L54 12L54 13L53 13L53 12L52 12L52 13L53 13L53 15L55 15L55 14L56 14L56 11ZM10 12L10 13L11 13L11 12ZM38 13L38 14L37 14L37 15L35 15L35 16L33 16L33 15L31 15L31 14L30 14L30 15L31 15L31 16L32 16L32 17L33 17L33 19L36 19L36 20L37 20L37 21L38 21L38 22L37 22L37 24L39 24L39 25L38 25L38 26L37 26L37 25L33 25L33 24L32 24L32 23L33 23L33 22L34 22L34 23L35 23L35 20L32 20L32 21L31 21L31 18L30 18L30 20L29 20L29 19L28 19L28 18L25 18L25 19L26 19L26 20L25 20L25 21L27 21L27 24L25 24L25 25L26 25L26 26L25 26L25 27L26 27L26 26L27 26L27 25L28 25L28 26L30 26L30 25L29 25L29 22L28 22L28 21L31 21L31 23L30 23L30 24L32 24L32 26L33 26L33 27L34 27L34 26L36 26L36 27L35 27L35 28L36 28L36 27L40 27L40 26L39 26L39 25L41 25L41 26L42 26L42 25L41 25L41 24L39 24L39 23L40 23L40 22L39 22L39 21L42 21L42 20L39 20L39 21L38 21L38 20L37 20L37 19L39 19L39 17L41 17L41 16L42 16L42 17L43 17L43 16L42 16L42 15L43 15L43 14L41 14L41 16L39 16L39 15L40 15L40 14L39 14L39 13ZM38 14L38 15L39 15L39 14ZM26 15L26 16L27 16L27 17L28 17L28 16L27 16L27 15ZM7 16L7 17L6 17L6 18L8 18L8 16ZM35 16L35 17L37 17L37 18L38 18L38 17L39 17L39 16L38 16L38 17L37 17L37 16ZM12 17L12 18L13 18L13 17ZM41 18L41 19L42 19L42 18ZM43 18L43 20L44 20L44 18ZM45 18L45 19L46 19L46 18ZM27 19L27 20L28 20L28 19ZM16 20L16 21L17 21L17 20ZM45 21L45 22L46 22L46 23L45 23L45 25L48 25L48 23L47 23L47 22L49 22L49 21L47 21L47 22L46 22L46 21ZM19 22L19 23L20 23L20 22ZM21 22L21 23L22 23L22 22ZM14 23L14 24L16 24L16 23ZM46 23L46 24L47 24L47 23ZM6 24L6 25L7 25L7 24ZM19 25L19 26L18 26L18 27L17 27L17 28L18 28L18 29L16 29L16 30L17 30L17 32L18 32L18 31L19 31L19 33L15 33L15 35L16 35L16 34L17 34L17 36L18 36L18 34L19 34L19 35L20 35L20 36L19 36L19 37L23 37L23 38L21 38L21 40L20 40L20 42L19 42L19 41L18 41L18 42L17 42L17 43L18 43L18 42L19 42L19 43L20 43L20 44L19 44L19 45L20 45L20 46L18 46L18 47L17 47L17 48L20 48L20 47L21 47L21 45L22 45L22 46L23 46L23 45L22 45L22 44L21 44L21 43L22 43L22 42L24 42L24 41L23 41L23 40L24 40L24 39L23 39L23 38L24 38L24 37L23 37L23 36L24 36L24 34L23 34L23 33L25 33L25 35L26 35L26 33L25 33L25 32L26 32L26 31L24 31L24 30L23 30L23 29L24 29L24 27L23 27L23 26L22 26L22 25ZM55 25L55 26L56 26L56 25ZM19 26L19 29L18 29L18 30L20 30L20 31L21 31L21 32L24 32L24 31L21 31L21 30L20 30L20 29L22 29L22 28L20 28L20 26ZM21 26L21 27L22 27L22 26ZM5 27L5 30L8 30L8 27ZM27 27L27 30L30 30L30 27ZM49 27L49 30L52 30L52 27ZM6 28L6 29L7 29L7 28ZM25 28L25 29L26 29L26 28ZM28 28L28 29L29 29L29 28ZM50 28L50 29L51 29L51 28ZM39 29L39 30L38 30L38 32L39 32L39 30L40 30L40 29ZM47 31L47 32L48 32L48 33L49 33L49 32L48 32L48 31ZM11 32L11 35L12 35L12 32ZM45 32L45 33L46 33L46 32ZM50 32L50 34L49 34L49 35L50 35L50 36L52 36L52 35L53 35L53 34L52 34L52 33L51 33L51 32ZM0 33L0 35L2 35L2 34L1 34L1 33ZM13 33L13 36L12 36L12 37L13 37L13 38L14 38L14 37L13 37L13 36L14 36L14 33ZM19 33L19 34L20 34L20 35L21 35L21 34L22 34L22 33L21 33L21 34L20 34L20 33ZM33 33L33 34L32 34L32 35L33 35L33 36L32 36L32 37L33 37L33 38L35 38L35 37L33 37L33 36L34 36L34 35L35 35L35 36L37 36L37 34L35 34L35 33ZM33 34L33 35L34 35L34 34ZM42 34L42 35L43 35L43 36L42 36L42 37L41 37L41 36L40 36L40 37L41 37L41 38L42 38L42 39L45 39L45 40L43 40L43 41L45 41L45 40L46 40L46 39L47 39L47 37L48 37L48 36L47 36L47 37L46 37L46 36L44 36L44 35L43 35L43 34ZM50 34L50 35L52 35L52 34ZM43 36L43 37L42 37L42 38L43 38L43 37L44 37L44 38L45 38L45 37L44 37L44 36ZM25 37L25 38L27 38L27 37ZM19 38L19 39L20 39L20 38ZM38 39L38 40L40 40L40 39ZM30 40L30 41L32 41L32 42L33 42L33 41L32 41L32 40ZM21 41L21 42L22 42L22 41ZM46 42L46 44L45 44L45 45L47 45L47 46L45 46L45 49L47 49L47 48L48 48L48 47L47 47L47 46L48 46L48 45L49 45L49 44L48 44L48 45L47 45L47 43L48 43L48 42ZM51 42L51 43L50 43L50 45L52 45L52 44L51 44L51 43L53 43L53 42ZM3 43L3 44L2 44L2 45L3 45L3 47L5 47L5 44L4 44L4 43ZM6 43L6 44L7 44L7 43ZM3 44L3 45L4 45L4 44ZM17 44L17 45L18 45L18 44ZM54 45L54 46L55 46L55 45ZM1 46L1 47L2 47L2 46ZM29 47L29 48L30 48L30 47ZM46 47L46 48L47 48L47 47ZM53 48L53 49L54 49L54 48ZM55 48L55 50L54 50L54 51L55 51L55 50L56 50L56 48ZM27 49L27 52L30 52L30 49ZM49 49L49 52L52 52L52 49ZM10 50L10 51L11 51L11 50ZM13 50L13 51L14 51L14 50ZM28 50L28 51L29 51L29 50ZM38 50L38 51L37 51L37 52L38 52L38 53L39 53L39 52L38 52L38 51L40 51L40 52L41 52L41 50ZM43 50L43 51L44 51L44 50ZM50 50L50 51L51 51L51 50ZM11 53L11 54L12 54L12 53ZM24 53L24 54L23 54L23 55L24 55L24 56L25 56L25 53ZM26 53L26 54L27 54L27 53ZM33 53L33 55L35 55L35 56L36 56L36 54L35 54L35 53ZM44 53L44 54L45 54L45 53ZM15 55L15 56L16 56L16 55ZM50 55L50 56L51 56L51 55ZM53 55L53 56L55 56L55 57L56 57L56 56L55 56L55 55ZM0 0L0 7L7 7L7 0ZM1 1L1 6L6 6L6 1ZM2 2L2 5L5 5L5 2ZM50 0L50 7L57 7L57 0ZM51 1L51 6L56 6L56 1ZM52 2L52 5L55 5L55 2ZM0 50L0 57L7 57L7 50ZM1 51L1 56L6 56L6 51ZM2 52L2 55L5 55L5 52Z" fill="#000000"/></g></g></svg>
