<?xml version="1.0" encoding="UTF-8"?>
<svg xmlns="http://www.w3.org/2000/svg" version="1.1" width="300" height="300" viewBox="0 0 300 300"><rect x="0" y="0" width="300" height="300" fill="#fefefe"/><g transform="scale(4.615)"><g transform="translate(4,4)"><path fill-rule="evenodd" d="M10 0L10 1L8 1L8 2L9 2L9 3L8 3L8 4L9 4L9 3L10 3L10 5L12 5L12 4L11 4L11 3L10 3L10 2L11 2L11 1L12 1L12 2L13 2L13 4L14 4L14 2L15 2L15 3L17 3L17 4L19 4L19 5L20 5L20 7L19 7L19 6L18 6L18 5L17 5L17 6L16 6L16 7L15 7L15 6L14 6L14 5L13 5L13 6L12 6L12 7L13 7L13 8L10 8L10 7L11 7L11 6L10 6L10 7L9 7L9 5L8 5L8 7L9 7L9 8L6 8L6 9L5 9L5 8L0 8L0 9L3 9L3 10L2 10L2 11L1 11L1 10L0 10L0 13L2 13L2 15L4 15L4 16L3 16L3 17L2 17L2 16L1 16L1 18L0 18L0 19L1 19L1 20L2 20L2 19L1 19L1 18L3 18L3 19L7 19L7 20L6 20L6 21L5 21L5 20L4 20L4 21L5 21L5 22L6 22L6 23L7 23L7 24L5 24L5 25L7 25L7 26L4 26L4 24L3 24L3 25L0 25L0 27L2 27L2 28L1 28L1 29L0 29L0 31L1 31L1 32L2 32L2 33L1 33L1 35L3 35L3 36L1 36L1 37L0 37L0 40L1 40L1 42L2 42L2 40L3 40L3 39L1 39L1 38L3 38L3 37L4 37L4 35L5 35L5 38L4 38L4 39L5 39L5 40L4 40L4 41L5 41L5 42L3 42L3 45L7 45L7 46L5 46L5 47L3 47L3 46L2 46L2 43L0 43L0 44L1 44L1 46L0 46L0 48L5 48L5 47L7 47L7 46L8 46L8 45L7 45L7 44L5 44L5 43L7 43L7 42L6 42L6 41L7 41L7 40L6 40L6 39L7 39L7 38L9 38L9 39L10 39L10 38L9 38L9 37L11 37L11 36L12 36L12 37L14 37L14 36L12 36L12 35L13 35L13 34L14 34L14 35L15 35L15 36L17 36L17 37L18 37L18 38L20 38L20 39L17 39L17 42L15 42L15 41L16 41L16 39L15 39L15 38L16 38L16 37L15 37L15 38L13 38L13 39L12 39L12 38L11 38L11 39L12 39L12 40L9 40L9 41L8 41L8 42L9 42L9 43L8 43L8 44L9 44L9 45L10 45L10 46L9 46L9 47L10 47L10 46L13 46L13 47L12 47L12 48L6 48L6 49L8 49L8 51L9 51L9 50L10 50L10 51L12 51L12 52L10 52L10 53L9 53L9 52L8 52L8 57L9 57L9 56L10 56L10 57L11 57L11 56L10 56L10 54L12 54L12 56L13 56L13 57L14 57L14 56L15 56L15 57L16 57L16 56L17 56L17 57L20 57L20 56L19 56L19 55L20 55L20 54L19 54L19 53L20 53L20 52L21 52L21 53L22 53L22 54L21 54L21 56L24 56L24 57L26 57L26 56L27 56L27 57L29 57L29 56L30 56L30 57L31 57L31 56L35 56L35 57L39 57L39 56L41 56L41 55L44 55L44 54L45 54L45 53L44 53L44 52L45 52L45 51L46 51L46 52L47 52L47 50L48 50L48 54L46 54L46 55L48 55L48 56L46 56L46 57L49 57L49 56L50 56L50 57L52 57L52 55L51 55L51 53L52 53L52 54L55 54L55 51L56 51L56 53L57 53L57 51L56 51L56 50L57 50L57 48L56 48L56 46L57 46L57 45L56 45L56 44L55 44L55 43L56 43L56 42L57 42L57 41L56 41L56 42L55 42L55 39L57 39L57 36L56 36L56 34L57 34L57 32L56 32L56 30L57 30L57 29L56 29L56 28L57 28L57 27L56 27L56 26L57 26L57 25L56 25L56 22L57 22L57 21L56 21L56 20L55 20L55 19L56 19L56 18L57 18L57 17L56 17L56 16L57 16L57 15L56 15L56 14L57 14L57 12L56 12L56 10L54 10L54 11L52 11L52 10L53 10L53 9L54 9L54 8L53 8L53 9L52 9L52 8L51 8L51 10L49 10L49 9L50 9L50 8L49 8L49 6L48 6L48 7L47 7L47 5L48 5L48 0L45 0L45 2L44 2L44 3L43 3L43 4L40 4L40 5L39 5L39 6L38 6L38 2L39 2L39 3L41 3L41 2L43 2L43 0L41 0L41 1L40 1L40 0L39 0L39 1L38 1L38 0L37 0L37 1L38 1L38 2L37 2L37 3L36 3L36 0L35 0L35 1L33 1L33 0L32 0L32 1L31 1L31 0L27 0L27 1L26 1L26 0L23 0L23 2L22 2L22 0L21 0L21 1L20 1L20 0L18 0L18 2L16 2L16 1L14 1L14 0L13 0L13 1L12 1L12 0ZM13 1L13 2L14 2L14 1ZM25 1L25 2L23 2L23 3L21 3L21 2L18 2L18 3L19 3L19 4L23 4L23 5L21 5L21 7L22 7L22 8L19 8L19 9L16 9L16 8L17 8L17 7L18 7L18 6L17 6L17 7L16 7L16 8L14 8L14 9L13 9L13 10L15 10L15 13L13 13L13 14L11 14L11 13L12 13L12 12L14 12L14 11L11 11L11 13L10 13L10 12L9 12L9 11L10 11L10 10L11 10L11 9L9 9L9 11L8 11L8 9L6 9L6 10L5 10L5 9L4 9L4 10L3 10L3 11L4 11L4 10L5 10L5 13L6 13L6 14L7 14L7 15L5 15L5 16L4 16L4 18L5 18L5 16L8 16L8 15L9 15L9 14L11 14L11 15L12 15L12 16L11 16L11 17L10 17L10 16L9 16L9 17L10 17L10 18L9 18L9 19L8 19L8 18L7 18L7 17L6 17L6 18L7 18L7 19L8 19L8 20L7 20L7 21L6 21L6 22L8 22L8 23L9 23L9 24L10 24L10 27L12 27L12 28L11 28L11 29L12 29L12 30L10 30L10 29L9 29L9 30L10 30L10 31L5 31L5 32L9 32L9 34L10 34L10 35L8 35L8 34L7 34L7 33L5 33L5 35L6 35L6 36L7 36L7 37L6 37L6 38L5 38L5 39L6 39L6 38L7 38L7 37L9 37L9 36L11 36L11 35L12 35L12 34L13 34L13 33L12 33L12 32L13 32L13 31L12 31L12 30L15 30L15 29L16 29L16 31L15 31L15 32L17 32L17 33L15 33L15 34L17 34L17 36L18 36L18 35L20 35L20 36L19 36L19 37L21 37L21 39L22 39L22 40L20 40L20 42L21 42L21 43L20 43L20 44L19 44L19 45L20 45L20 46L21 46L21 45L22 45L22 46L23 46L23 45L25 45L25 48L24 48L24 49L25 49L25 50L22 50L22 51L21 51L21 52L22 52L22 53L24 53L24 54L23 54L23 55L24 55L24 56L25 56L25 53L26 53L26 51L25 51L25 50L26 50L26 49L25 49L25 48L30 48L30 47L29 47L29 46L31 46L31 47L33 47L33 48L31 48L31 53L30 53L30 54L26 54L26 55L27 55L27 56L29 56L29 55L30 55L30 56L31 56L31 54L32 54L32 53L33 53L33 55L35 55L35 56L36 56L36 54L35 54L35 50L36 50L36 52L37 52L37 51L38 51L38 53L37 53L37 54L40 54L40 53L43 53L43 54L44 54L44 53L43 53L43 52L42 52L42 50L41 50L41 48L42 48L42 49L43 49L43 50L47 50L47 49L48 49L48 48L50 48L50 47L51 47L51 46L53 46L53 47L52 47L52 48L53 48L53 47L54 47L54 46L56 46L56 45L55 45L55 44L54 44L54 45L53 45L53 43L54 43L54 42L53 42L53 41L54 41L54 40L53 40L53 41L51 41L51 42L50 42L50 43L49 43L49 42L48 42L48 41L49 41L49 39L51 39L51 40L52 40L52 39L54 39L54 38L53 38L53 35L55 35L55 34L54 34L54 32L53 32L53 31L55 31L55 30L54 30L54 29L55 29L55 28L54 28L54 29L53 29L53 31L52 31L52 32L51 32L51 31L50 31L50 32L49 32L49 31L48 31L48 29L46 29L46 30L47 30L47 31L48 31L48 32L47 32L47 33L45 33L45 32L43 32L43 31L45 31L45 28L46 28L46 27L47 27L47 28L48 28L48 25L50 25L50 26L52 26L52 25L53 25L53 23L55 23L55 22L56 22L56 21L55 21L55 20L53 20L53 19L52 19L52 17L53 17L53 18L55 18L55 16L53 16L53 15L55 15L55 14L56 14L56 12L54 12L54 13L53 13L53 12L52 12L52 13L53 13L53 15L50 15L50 14L51 14L51 12L50 12L50 11L49 11L49 10L48 10L48 9L49 9L49 8L48 8L48 9L45 9L45 7L46 7L46 8L47 8L47 7L46 7L46 6L45 6L45 5L47 5L47 3L44 3L44 6L43 6L43 5L40 5L40 6L39 6L39 7L40 7L40 8L38 8L38 10L40 10L40 9L42 9L42 8L41 8L41 7L42 7L42 6L43 6L43 7L44 7L44 9L43 9L43 11L41 11L41 12L40 12L40 11L39 11L39 12L40 12L40 13L38 13L38 14L37 14L37 13L35 13L35 12L36 12L36 10L37 10L37 9L35 9L35 8L37 8L37 7L38 7L38 6L37 6L37 7L36 7L36 5L37 5L37 4L36 4L36 5L35 5L35 2L34 2L34 3L32 3L32 2L33 2L33 1L32 1L32 2L31 2L31 3L30 3L30 4L31 4L31 8L32 8L32 10L31 10L31 11L29 11L29 10L28 10L28 11L29 11L29 12L28 12L28 13L26 13L26 12L27 12L27 11L26 11L26 12L25 12L25 10L24 10L24 13L22 13L22 12L21 12L21 11L22 11L22 10L23 10L23 8L24 8L24 6L23 6L23 5L24 5L24 4L23 4L23 3L26 3L26 4L25 4L25 8L26 8L26 4L29 4L29 3L28 3L28 2L29 2L29 1L28 1L28 2L26 2L26 1ZM46 1L46 2L47 2L47 1ZM31 3L31 4L32 4L32 5L33 5L33 4L32 4L32 3ZM15 4L15 5L16 5L16 4ZM27 5L27 8L30 8L30 5ZM34 5L34 7L33 7L33 6L32 6L32 7L33 7L33 9L34 9L34 8L35 8L35 5ZM13 6L13 7L14 7L14 6ZM22 6L22 7L23 7L23 6ZM28 6L28 7L29 7L29 6ZM40 6L40 7L41 7L41 6ZM44 6L44 7L45 7L45 6ZM55 8L55 9L56 9L56 8ZM19 9L19 10L18 10L18 11L17 11L17 12L16 12L16 13L15 13L15 14L13 14L13 15L14 15L14 16L12 16L12 17L11 17L11 18L12 18L12 19L11 19L11 22L12 22L12 23L10 23L10 22L9 22L9 21L10 21L10 19L9 19L9 20L8 20L8 22L9 22L9 23L10 23L10 24L12 24L12 27L13 27L13 25L14 25L14 26L15 26L15 27L14 27L14 28L13 28L13 29L15 29L15 27L16 27L16 26L15 26L15 24L12 24L12 23L13 23L13 22L14 22L14 23L16 23L16 24L17 24L17 25L18 25L18 26L17 26L17 27L18 27L18 26L19 26L19 29L18 29L18 28L16 28L16 29L18 29L18 31L20 31L20 32L18 32L18 33L17 33L17 34L18 34L18 33L19 33L19 34L20 34L20 35L21 35L21 36L23 36L23 37L24 37L24 38L22 38L22 39L24 39L24 40L23 40L23 42L22 42L22 43L21 43L21 44L20 44L20 45L21 45L21 44L22 44L22 45L23 45L23 44L27 44L27 45L26 45L26 47L27 47L27 45L28 45L28 44L30 44L30 45L31 45L31 46L32 46L32 44L33 44L33 43L34 43L34 45L37 45L37 46L36 46L36 48L34 48L34 49L36 49L36 50L38 50L38 51L40 51L40 52L41 52L41 50L38 50L38 49L39 49L39 48L41 48L41 46L43 46L43 45L44 45L44 47L47 47L47 48L48 48L48 47L50 47L50 46L51 46L51 45L50 45L50 44L51 44L51 43L53 43L53 42L51 42L51 43L50 43L50 44L49 44L49 45L50 45L50 46L45 46L45 45L47 45L47 43L48 43L48 42L47 42L47 43L46 43L46 44L45 44L45 45L44 45L44 44L43 44L43 42L44 42L44 43L45 43L45 42L44 42L44 41L43 41L43 40L47 40L47 39L48 39L48 37L47 37L47 39L46 39L46 38L45 38L45 37L44 37L44 36L47 36L47 35L44 35L44 33L43 33L43 32L41 32L41 33L39 33L39 34L40 34L40 35L39 35L39 36L38 36L38 37L37 37L37 36L35 36L35 35L34 35L34 37L35 37L35 39L34 39L34 38L33 38L33 37L32 37L32 36L33 36L33 35L31 35L31 34L32 34L32 31L33 31L33 32L34 32L34 33L35 33L35 34L37 34L37 35L38 35L38 33L37 33L37 32L34 32L34 31L35 31L35 30L37 30L37 29L38 29L38 28L40 28L40 27L41 27L41 28L42 28L42 26L43 26L43 25L44 25L44 26L45 26L45 25L48 25L48 24L47 24L47 22L49 22L49 21L51 21L51 22L50 22L50 23L53 23L53 22L54 22L54 21L51 21L51 20L52 20L52 19L51 19L51 18L50 18L50 17L49 17L49 16L50 16L50 15L49 15L49 14L50 14L50 12L49 12L49 11L48 11L48 12L49 12L49 13L47 13L47 14L45 14L45 13L44 13L44 11L45 11L45 12L47 12L47 10L45 10L45 9L44 9L44 11L43 11L43 13L41 13L41 14L38 14L38 15L39 15L39 16L38 16L38 17L37 17L37 16L35 16L35 14L33 14L33 13L34 13L34 12L33 12L33 13L32 13L32 11L33 11L33 10L32 10L32 11L31 11L31 13L30 13L30 14L29 14L29 13L28 13L28 14L29 14L29 16L28 16L28 15L27 15L27 14L25 14L25 13L24 13L24 14L22 14L22 13L21 13L21 15L24 15L24 16L26 16L26 17L22 17L22 16L21 16L21 17L22 17L22 20L24 20L24 21L22 21L22 22L21 22L21 24L17 24L17 21L20 21L20 19L19 19L19 20L17 20L17 19L18 19L18 18L20 18L20 16L16 16L16 13L17 13L17 15L19 15L19 14L20 14L20 12L19 12L19 10L20 10L20 9ZM21 9L21 10L22 10L22 9ZM6 10L6 11L7 11L7 10ZM2 12L2 13L3 13L3 12ZM6 12L6 13L7 13L7 12ZM17 12L17 13L18 13L18 12ZM8 13L8 14L9 14L9 13ZM31 13L31 14L30 14L30 15L31 15L31 14L32 14L32 13ZM54 13L54 14L55 14L55 13ZM41 14L41 16L39 16L39 17L38 17L38 18L37 18L37 17L35 17L35 16L33 16L33 15L32 15L32 17L31 17L31 18L30 18L30 19L28 19L28 18L25 18L25 19L26 19L26 20L25 20L25 21L24 21L24 22L23 22L23 23L24 23L24 24L21 24L21 25L19 25L19 26L20 26L20 28L22 28L22 29L19 29L19 30L21 30L21 31L23 31L23 32L21 32L21 33L20 33L20 34L21 34L21 35L23 35L23 36L24 36L24 34L23 34L23 33L25 33L25 35L26 35L26 36L25 36L25 40L24 40L24 41L25 41L25 43L27 43L27 44L28 44L28 43L27 43L27 42L29 42L29 40L30 40L30 41L31 41L31 42L32 42L32 43L33 43L33 42L34 42L34 43L37 43L37 42L35 42L35 40L38 40L38 42L39 42L39 41L42 41L42 40L43 40L43 39L45 39L45 38L44 38L44 37L43 37L43 38L42 38L42 37L41 37L41 36L42 36L42 35L43 35L43 36L44 36L44 35L43 35L43 34L42 34L42 35L41 35L41 36L40 36L40 37L38 37L38 39L35 39L35 40L33 40L33 39L29 39L29 38L31 38L31 37L29 37L29 36L30 36L30 34L29 34L29 33L31 33L31 31L32 31L32 29L33 29L33 30L35 30L35 28L37 28L37 27L39 27L39 25L41 25L41 24L38 24L38 23L37 23L37 24L38 24L38 26L37 26L37 25L33 25L33 24L32 24L32 23L33 23L33 22L34 22L34 23L35 23L35 20L34 20L34 21L33 21L33 20L32 20L32 21L31 21L31 20L30 20L30 19L36 19L36 20L38 20L38 21L37 21L37 22L39 22L39 23L40 23L40 22L39 22L39 21L41 21L41 20L38 20L38 19L39 19L39 17L41 17L41 16L42 16L42 17L43 17L43 16L42 16L42 15L44 15L44 18L43 18L43 19L42 19L42 18L41 18L41 19L42 19L42 20L44 20L44 25L45 25L45 23L46 23L46 22L47 22L47 21L46 21L46 20L47 20L47 19L48 19L48 18L47 18L47 17L48 17L48 16L49 16L49 15L48 15L48 16L47 16L47 15L46 15L46 16L45 16L45 14ZM26 15L26 16L27 16L27 17L28 17L28 16L27 16L27 15ZM14 16L14 17L13 17L13 19L14 19L14 20L12 20L12 21L14 21L14 22L16 22L16 21L17 21L17 20L16 20L16 19L17 19L17 18L18 18L18 17L15 17L15 16ZM32 17L32 18L33 18L33 17ZM15 18L15 19L16 19L16 18ZM23 18L23 19L24 19L24 18ZM44 18L44 20L45 20L45 18ZM46 18L46 19L47 19L47 18ZM49 18L49 19L50 19L50 18ZM15 20L15 21L16 21L16 20ZM25 21L25 22L26 22L26 23L25 23L25 24L24 24L24 25L21 25L21 27L22 27L22 26L26 26L26 27L25 27L25 28L26 28L26 29L23 29L23 31L26 31L26 35L27 35L27 31L29 31L29 32L28 32L28 33L29 33L29 32L30 32L30 31L31 31L31 29L32 29L32 28L31 28L31 26L32 26L32 27L33 27L33 28L35 28L35 27L36 27L36 26L34 26L34 27L33 27L33 26L32 26L32 24L29 24L29 25L30 25L30 26L26 26L26 25L25 25L25 24L27 24L27 21ZM28 21L28 22L31 22L31 21ZM0 22L0 24L1 24L1 23L2 23L2 22ZM3 22L3 23L4 23L4 22ZM19 22L19 23L20 23L20 22ZM50 24L50 25L51 25L51 24ZM8 25L8 26L9 26L9 25ZM2 26L2 27L3 27L3 28L2 28L2 29L1 29L1 30L2 30L2 32L3 32L3 33L4 33L4 32L3 32L3 30L4 30L4 27L3 27L3 26ZM53 26L53 27L54 27L54 26ZM5 27L5 30L8 30L8 27ZM27 27L27 30L30 30L30 27ZM43 27L43 28L45 28L45 27ZM49 27L49 30L52 30L52 27ZM6 28L6 29L7 29L7 28ZM28 28L28 29L29 29L29 28ZM50 28L50 29L51 29L51 28ZM2 29L2 30L3 30L3 29ZM39 29L39 30L38 30L38 32L39 32L39 31L41 31L41 30L44 30L44 29ZM10 31L10 34L11 34L11 31ZM48 32L48 33L49 33L49 32ZM50 32L50 34L49 34L49 35L50 35L50 36L51 36L51 37L49 37L49 38L51 38L51 37L52 37L52 35L53 35L53 34L52 34L52 33L53 33L53 32L52 32L52 33L51 33L51 32ZM55 32L55 33L56 33L56 32ZM21 33L21 34L22 34L22 33ZM3 34L3 35L4 35L4 34ZM6 34L6 35L7 35L7 34ZM50 34L50 35L52 35L52 34ZM26 36L26 40L28 40L28 39L27 39L27 38L28 38L28 37L27 37L27 36ZM55 36L55 37L56 37L56 36ZM40 37L40 38L41 38L41 39L42 39L42 38L41 38L41 37ZM38 39L38 40L40 40L40 39ZM12 40L12 41L11 41L11 44L10 44L10 43L9 43L9 44L10 44L10 45L11 45L11 44L12 44L12 45L14 45L14 44L15 44L15 47L13 47L13 48L12 48L12 49L10 49L10 50L12 50L12 51L13 51L13 52L16 52L16 53L15 53L15 54L13 54L13 53L12 53L12 54L13 54L13 55L15 55L15 56L16 56L16 55L15 55L15 54L16 54L16 53L17 53L17 52L16 52L16 51L19 51L19 52L20 52L20 51L19 51L19 50L18 50L18 49L16 49L16 48L18 48L18 47L17 47L17 45L18 45L18 44L16 44L16 43L15 43L15 42L14 42L14 41L13 41L13 40ZM31 40L31 41L32 41L32 42L33 42L33 41L32 41L32 40ZM12 41L12 44L14 44L14 42L13 42L13 41ZM18 41L18 42L17 42L17 43L18 43L18 42L19 42L19 41ZM26 41L26 42L27 42L27 41ZM39 43L39 45L38 45L38 46L41 46L41 44L42 44L42 43L41 43L41 44L40 44L40 43ZM1 46L1 47L2 47L2 46ZM33 46L33 47L35 47L35 46ZM15 47L15 48L16 48L16 47ZM19 47L19 48L20 48L20 50L21 50L21 49L23 49L23 47ZM38 47L38 48L37 48L37 49L38 49L38 48L39 48L39 47ZM42 47L42 48L43 48L43 49L44 49L44 48L43 48L43 47ZM45 48L45 49L46 49L46 48ZM55 48L55 49L56 49L56 48ZM27 49L27 52L30 52L30 49ZM32 49L32 50L33 50L33 49ZM49 49L49 52L52 52L52 49ZM15 50L15 51L16 51L16 50ZM28 50L28 51L29 51L29 50ZM50 50L50 51L51 51L51 50ZM54 50L54 51L55 51L55 50ZM32 51L32 52L33 52L33 53L34 53L34 52L33 52L33 51ZM24 52L24 53L25 53L25 52ZM53 52L53 53L54 53L54 52ZM17 54L17 56L18 56L18 55L19 55L19 54ZM37 55L37 56L39 56L39 55ZM50 55L50 56L51 56L51 55ZM53 55L53 56L55 56L55 57L56 57L56 56L55 56L55 55ZM43 56L43 57L44 57L44 56ZM0 0L0 7L7 7L7 0ZM1 1L1 6L6 6L6 1ZM2 2L2 5L5 5L5 2ZM50 0L50 7L57 7L57 0ZM51 1L51 6L56 6L56 1ZM52 2L52 5L55 5L55 2ZM0 50L0 57L7 57L7 50ZM1 51L1 56L6 56L6 51ZM2 52L2 55L5 55L5 52Z" fill="#000000"/></g></g></svg>
