<?xml version="1.0" encoding="UTF-8"?>
<svg xmlns="http://www.w3.org/2000/svg" version="1.1" width="300" height="300" viewBox="0 0 300 300"><rect x="0" y="0" width="300" height="300" fill="#fefefe"/><g transform="scale(4.615)"><g transform="translate(4,4)"><path fill-rule="evenodd" d="M10 0L10 2L11 2L11 3L8 3L8 4L9 4L9 5L8 5L8 7L9 7L9 6L10 6L10 8L6 8L6 9L8 9L8 10L5 10L5 8L0 8L0 12L4 12L4 11L3 11L3 9L4 9L4 10L5 10L5 13L4 13L4 14L3 14L3 13L1 13L1 14L3 14L3 16L2 16L2 15L1 15L1 16L2 16L2 17L1 17L1 18L0 18L0 19L1 19L1 18L2 18L2 19L3 19L3 20L1 20L1 22L2 22L2 23L0 23L0 25L1 25L1 26L0 26L0 27L1 27L1 28L0 28L0 29L1 29L1 28L2 28L2 26L4 26L4 27L3 27L3 30L4 30L4 31L9 31L9 28L11 28L11 27L10 27L10 25L9 25L9 24L10 24L10 23L11 23L11 26L12 26L12 29L13 29L13 30L11 30L11 29L10 29L10 31L11 31L11 32L9 32L9 33L8 33L8 32L5 32L5 33L7 33L7 34L4 34L4 32L3 32L3 34L0 34L0 35L1 35L1 36L0 36L0 38L2 38L2 37L1 37L1 36L2 36L2 35L8 35L8 34L9 34L9 35L10 35L10 37L12 37L12 38L13 38L13 39L14 39L14 40L16 40L16 39L14 39L14 37L15 37L15 38L16 38L16 37L15 37L15 36L13 36L13 37L12 37L12 36L11 36L11 35L10 35L10 34L11 34L11 33L12 33L12 34L13 34L13 35L14 35L14 34L15 34L15 35L17 35L17 36L18 36L18 37L17 37L17 38L18 38L18 39L17 39L17 42L16 42L16 45L17 45L17 46L18 46L18 47L17 47L17 49L19 49L19 50L15 50L15 49L14 49L14 50L12 50L12 49L11 49L11 48L14 48L14 47L16 47L16 46L15 46L15 44L14 44L14 45L13 45L13 43L12 43L12 45L10 45L10 44L11 44L11 43L10 43L10 44L9 44L9 45L8 45L8 44L5 44L5 43L4 43L4 42L3 42L3 41L2 41L2 44L1 44L1 42L0 42L0 48L5 48L5 47L7 47L7 48L6 48L6 49L8 49L8 51L9 51L9 52L8 52L8 57L11 57L11 56L9 56L9 54L11 54L11 55L12 55L12 57L14 57L14 56L13 56L13 54L12 54L12 52L11 52L11 53L9 53L9 52L10 52L10 51L9 51L9 50L11 50L11 51L13 51L13 53L14 53L14 54L15 54L15 55L16 55L16 56L15 56L15 57L16 57L16 56L17 56L17 57L20 57L20 56L19 56L19 55L20 55L20 54L19 54L19 55L18 55L18 56L17 56L17 53L20 53L20 52L21 52L21 51L20 51L20 49L19 49L19 48L20 48L20 47L23 47L23 49L21 49L21 50L26 50L26 52L24 52L24 53L23 53L23 54L22 54L22 53L21 53L21 54L22 54L22 55L23 55L23 57L26 57L26 56L27 56L27 57L29 57L29 56L30 56L30 57L31 57L31 56L35 56L35 57L39 57L39 56L41 56L41 57L44 57L44 54L45 54L45 55L46 55L46 56L47 56L47 55L49 55L49 56L50 56L50 57L52 57L52 55L51 55L51 53L52 53L52 54L54 54L54 53L56 53L56 49L57 49L57 48L56 48L56 46L57 46L57 45L56 45L56 44L57 44L57 43L56 43L56 42L55 42L55 39L57 39L57 37L56 37L56 34L57 34L57 32L56 32L56 30L57 30L57 28L56 28L56 27L55 27L55 26L57 26L57 25L56 25L56 22L57 22L57 21L56 21L56 20L55 20L55 19L56 19L56 18L57 18L57 17L56 17L56 16L57 16L57 15L56 15L56 14L57 14L57 13L56 13L56 14L55 14L55 13L54 13L54 12L55 12L55 11L56 11L56 10L54 10L54 11L53 11L53 10L52 10L52 11L51 11L51 10L50 10L50 8L49 8L49 6L48 6L48 7L47 7L47 5L48 5L48 0L45 0L45 2L44 2L44 3L43 3L43 4L40 4L40 5L39 5L39 6L38 6L38 2L39 2L39 3L42 3L42 2L43 2L43 0L41 0L41 1L40 1L40 0L39 0L39 1L38 1L38 0L37 0L37 1L38 1L38 2L37 2L37 3L36 3L36 0L35 0L35 1L33 1L33 2L32 2L32 0L29 0L29 2L27 2L27 1L28 1L28 0L27 0L27 1L26 1L26 0L23 0L23 2L22 2L22 3L23 3L23 4L22 4L22 5L23 5L23 6L22 6L22 7L21 7L21 4L19 4L19 1L20 1L20 2L21 2L21 1L22 1L22 0L21 0L21 1L20 1L20 0L17 0L17 1L16 1L16 2L15 2L15 0L14 0L14 2L13 2L13 3L12 3L12 2L11 2L11 1L12 1L12 0ZM8 1L8 2L9 2L9 1ZM25 1L25 2L23 2L23 3L26 3L26 4L25 4L25 8L26 8L26 4L31 4L31 8L32 8L32 10L31 10L31 11L29 11L29 12L28 12L28 13L27 13L27 14L26 14L26 12L27 12L27 11L26 11L26 12L25 12L25 11L24 11L24 12L23 12L23 13L22 13L22 12L21 12L21 11L22 11L22 10L23 10L23 9L24 9L24 6L23 6L23 7L22 7L22 8L19 8L19 9L16 9L16 8L17 8L17 7L18 7L18 6L19 6L19 7L20 7L20 5L18 5L18 6L17 6L17 3L18 3L18 2L16 2L16 3L15 3L15 2L14 2L14 4L12 4L12 3L11 3L11 4L10 4L10 5L11 5L11 4L12 4L12 5L14 5L14 6L13 6L13 8L14 8L14 9L12 9L12 6L11 6L11 8L10 8L10 11L11 11L11 9L12 9L12 10L15 10L15 13L13 13L13 12L14 12L14 11L12 11L12 12L10 12L10 13L9 13L9 14L8 14L8 13L6 13L6 14L5 14L5 15L4 15L4 16L3 16L3 17L2 17L2 18L3 18L3 19L4 19L4 20L7 20L7 19L8 19L8 22L7 22L7 21L6 21L6 22L5 22L5 23L4 23L4 21L3 21L3 23L4 23L4 24L3 24L3 25L6 25L6 26L7 26L7 25L8 25L8 24L7 24L7 23L8 23L8 22L12 22L12 23L15 23L15 25L14 25L14 24L13 24L13 28L14 28L14 27L15 27L15 29L14 29L14 30L13 30L13 32L14 32L14 33L15 33L15 34L17 34L17 35L19 35L19 37L18 37L18 38L19 38L19 39L20 39L20 38L19 38L19 37L23 37L23 38L24 38L24 37L23 37L23 36L24 36L24 34L23 34L23 33L25 33L25 34L26 34L26 35L27 35L27 36L26 36L26 37L25 37L25 38L27 38L27 39L25 39L25 40L24 40L24 39L22 39L22 40L19 40L19 41L18 41L18 42L17 42L17 43L18 43L18 42L19 42L19 43L20 43L20 46L21 46L21 45L22 45L22 46L23 46L23 47L25 47L25 48L24 48L24 49L26 49L26 48L30 48L30 47L29 47L29 45L31 45L31 47L32 47L32 49L31 49L31 53L30 53L30 54L27 54L27 53L24 53L24 54L23 54L23 55L24 55L24 56L26 56L26 54L27 54L27 56L29 56L29 55L30 55L30 56L31 56L31 54L32 54L32 53L33 53L33 54L34 54L34 55L35 55L35 56L36 56L36 54L35 54L35 53L34 53L34 52L35 52L35 50L36 50L36 52L38 52L38 54L40 54L40 53L41 53L41 52L42 52L42 53L43 53L43 54L44 54L44 53L45 53L45 54L46 54L46 55L47 55L47 54L48 54L48 50L47 50L47 49L48 49L48 48L49 48L49 47L51 47L51 48L53 48L53 49L54 49L54 48L53 48L53 47L55 47L55 46L56 46L56 45L55 45L55 44L54 44L54 45L53 45L53 43L54 43L54 42L53 42L53 41L54 41L54 40L53 40L53 41L51 41L51 42L50 42L50 43L49 43L49 42L48 42L48 41L49 41L49 37L51 37L51 38L50 38L50 39L51 39L51 40L52 40L52 39L53 39L53 35L55 35L55 34L56 34L56 32L54 32L54 31L55 31L55 30L54 30L54 29L56 29L56 28L54 28L54 29L53 29L53 32L54 32L54 33L52 33L52 31L48 31L48 30L47 30L47 29L48 29L48 28L47 28L47 29L46 29L46 30L47 30L47 31L46 31L46 33L45 33L45 32L43 32L43 31L45 31L45 30L41 30L41 29L45 29L45 28L46 28L46 27L48 27L48 26L47 26L47 24L49 24L49 23L50 23L50 22L51 22L51 21L54 21L54 22L56 22L56 21L55 21L55 20L53 20L53 19L52 19L52 20L51 20L51 21L49 21L49 23L46 23L46 22L47 22L47 20L49 20L49 19L50 19L50 18L55 18L55 17L53 17L53 15L55 15L55 14L53 14L53 15L50 15L50 14L51 14L51 12L50 12L50 10L49 10L49 12L45 12L45 11L46 11L46 10L47 10L47 11L48 11L48 10L47 10L47 9L46 9L46 8L47 8L47 7L46 7L46 6L45 6L45 4L46 4L46 5L47 5L47 3L44 3L44 6L43 6L43 5L40 5L40 6L39 6L39 9L38 9L38 6L37 6L37 7L36 7L36 5L37 5L37 4L36 4L36 5L35 5L35 3L32 3L32 2L31 2L31 1L30 1L30 2L29 2L29 3L27 3L27 2L26 2L26 1ZM46 1L46 2L47 2L47 1ZM31 3L31 4L32 4L32 5L33 5L33 4L32 4L32 3ZM15 4L15 5L16 5L16 4ZM23 4L23 5L24 5L24 4ZM27 5L27 8L30 8L30 5ZM34 5L34 7L33 7L33 6L32 6L32 7L33 7L33 9L34 9L34 8L35 8L35 9L37 9L37 10L36 10L36 11L35 11L35 13L36 13L36 14L32 14L32 12L33 12L33 13L34 13L34 12L33 12L33 10L32 10L32 11L31 11L31 13L30 13L30 14L29 14L29 13L28 13L28 14L29 14L29 16L28 16L28 15L27 15L27 16L28 16L28 17L26 17L26 14L25 14L25 12L24 12L24 13L23 13L23 14L22 14L22 13L21 13L21 15L23 15L23 14L25 14L25 15L24 15L24 16L25 16L25 17L22 17L22 16L20 16L20 17L19 17L19 15L20 15L20 9L19 9L19 10L18 10L18 11L17 11L17 12L16 12L16 13L15 13L15 14L13 14L13 13L10 13L10 14L9 14L9 15L8 15L8 16L6 16L6 17L3 17L3 18L4 18L4 19L7 19L7 18L9 18L9 20L10 20L10 21L11 21L11 20L12 20L12 21L13 21L13 22L14 22L14 21L13 21L13 20L14 20L14 19L13 19L13 18L14 18L14 16L16 16L16 17L15 17L15 21L16 21L16 22L15 22L15 23L16 23L16 24L17 24L17 26L16 26L16 27L18 27L18 26L19 26L19 27L20 27L20 26L19 26L19 25L21 25L21 24L19 24L19 23L20 23L20 22L19 22L19 23L18 23L18 21L20 21L20 20L19 20L19 18L20 18L20 19L21 19L21 20L22 20L22 18L24 18L24 19L23 19L23 20L24 20L24 21L21 21L21 23L22 23L22 22L24 22L24 21L25 21L25 22L26 22L26 23L25 23L25 24L24 24L24 23L23 23L23 24L24 24L24 25L22 25L22 26L21 26L21 27L22 27L22 26L24 26L24 27L25 27L25 28L23 28L23 30L24 30L24 31L26 31L26 33L27 33L27 32L28 32L28 33L29 33L29 34L30 34L30 36L29 36L29 37L31 37L31 38L29 38L29 39L33 39L33 40L35 40L35 42L37 42L37 43L34 43L34 42L33 42L33 41L32 41L32 40L30 40L30 41L29 41L29 40L28 40L28 39L27 39L27 40L28 40L28 41L29 41L29 42L27 42L27 41L26 41L26 42L27 42L27 43L25 43L25 41L24 41L24 40L23 40L23 42L22 42L22 41L21 41L21 42L22 42L22 43L21 43L21 44L22 44L22 45L23 45L23 46L25 46L25 45L23 45L23 44L27 44L27 43L28 43L28 45L26 45L26 47L28 47L28 45L29 45L29 44L31 44L31 45L32 45L32 47L35 47L35 46L33 46L33 45L32 45L32 44L33 44L33 43L34 43L34 45L37 45L37 47L36 47L36 48L35 48L35 49L36 49L36 50L38 50L38 51L40 51L40 52L41 52L41 50L42 50L42 51L43 51L43 53L44 53L44 52L45 52L45 51L46 51L46 52L47 52L47 51L46 51L46 50L45 50L45 51L44 51L44 48L43 48L43 47L44 47L44 46L43 46L43 45L44 45L44 44L45 44L45 45L47 45L47 43L48 43L48 42L45 42L45 41L47 41L47 39L48 39L48 37L49 37L49 36L48 36L48 35L47 35L47 36L46 36L46 35L44 35L44 33L43 33L43 32L41 32L41 33L39 33L39 34L40 34L40 35L39 35L39 37L40 37L40 38L43 38L43 37L44 37L44 38L45 38L45 39L44 39L44 40L43 40L43 39L41 39L41 42L40 42L40 43L41 43L41 42L42 42L42 44L41 44L41 45L39 45L39 42L38 42L38 40L39 40L39 39L38 39L38 37L37 37L37 36L38 36L38 33L37 33L37 32L35 32L35 30L33 30L33 29L32 29L32 27L33 27L33 28L35 28L35 29L38 29L38 28L40 28L40 27L41 27L41 28L42 28L42 26L43 26L43 25L44 25L44 24L42 24L42 23L44 23L44 20L45 20L45 18L46 18L46 20L47 20L47 18L50 18L50 17L47 17L47 18L46 18L46 17L45 17L45 18L44 18L44 15L42 15L42 16L41 16L41 15L39 15L39 14L38 14L38 13L40 13L40 12L41 12L41 11L40 11L40 12L39 12L39 11L37 11L37 10L38 10L38 9L37 9L37 8L35 8L35 5ZM14 6L14 7L15 7L15 8L16 8L16 7L17 7L17 6L16 6L16 7L15 7L15 6ZM28 6L28 7L29 7L29 6ZM40 6L40 7L41 7L41 8L42 8L42 9L41 9L41 10L42 10L42 11L45 11L45 10L46 10L46 9L44 9L44 8L43 8L43 6L42 6L42 7L41 7L41 6ZM44 6L44 7L45 7L45 8L46 8L46 7L45 7L45 6ZM51 8L51 9L52 9L52 8ZM53 8L53 9L54 9L54 8ZM55 8L55 9L56 9L56 8ZM1 9L1 11L2 11L2 9ZM15 9L15 10L16 10L16 9ZM21 9L21 10L22 10L22 9ZM6 11L6 12L7 12L7 11ZM17 12L17 13L16 13L16 16L18 16L18 15L19 15L19 14L17 14L17 13L18 13L18 12ZM43 12L43 13L41 13L41 14L44 14L44 12ZM49 12L49 13L47 13L47 14L45 14L45 16L46 16L46 15L47 15L47 16L48 16L48 15L49 15L49 16L50 16L50 15L49 15L49 14L50 14L50 12ZM52 12L52 13L53 13L53 12ZM6 14L6 15L7 15L7 14ZM10 14L10 18L11 18L11 19L10 19L10 20L11 20L11 19L12 19L12 20L13 20L13 19L12 19L12 17L11 17L11 15L12 15L12 14ZM30 14L30 15L31 15L31 16L32 16L32 18L30 18L30 19L33 19L33 20L32 20L32 21L31 21L31 22L30 22L30 20L27 20L27 19L28 19L28 18L26 18L26 21L29 21L29 22L30 22L30 23L27 23L27 24L25 24L25 25L26 25L26 26L25 26L25 27L26 27L26 26L27 26L27 25L31 25L31 24L32 24L32 26L31 26L31 27L32 27L32 26L33 26L33 27L34 27L34 26L36 26L36 27L35 27L35 28L36 28L36 27L39 27L39 26L41 26L41 24L40 24L40 22L39 22L39 21L43 21L43 20L44 20L44 18L43 18L43 19L42 19L42 18L41 18L41 20L39 20L39 21L38 21L38 19L39 19L39 17L41 17L41 16L39 16L39 15L38 15L38 14L37 14L37 15L35 15L35 16L33 16L33 15L32 15L32 14ZM35 16L35 17L37 17L37 18L38 18L38 17L39 17L39 16L38 16L38 17L37 17L37 16ZM42 16L42 17L43 17L43 16ZM6 17L6 18L7 18L7 17ZM16 17L16 21L18 21L18 20L17 20L17 18L18 18L18 17ZM20 17L20 18L22 18L22 17ZM33 18L33 19L34 19L34 18ZM35 19L35 20L34 20L34 21L35 21L35 23L34 23L34 22L33 22L33 23L32 23L32 24L33 24L33 25L37 25L37 26L38 26L38 25L40 25L40 24L37 24L37 23L38 23L38 21L37 21L37 20L36 20L36 19ZM45 21L45 22L46 22L46 21ZM6 22L6 23L7 23L7 22ZM30 23L30 24L31 24L31 23ZM52 23L52 24L50 24L50 26L53 26L53 27L54 27L54 26L53 26L53 25L55 25L55 24L53 24L53 23ZM1 24L1 25L2 25L2 24ZM6 24L6 25L7 25L7 24ZM44 26L44 27L43 27L43 28L45 28L45 26ZM5 27L5 30L8 30L8 27ZM27 27L27 30L30 30L30 27ZM49 27L49 30L52 30L52 27ZM6 28L6 29L7 29L7 28ZM16 28L16 29L15 29L15 31L14 31L14 32L16 32L16 33L17 33L17 34L18 34L18 33L19 33L19 34L20 34L20 36L21 36L21 35L22 35L22 33L21 33L21 34L20 34L20 33L19 33L19 32L20 32L20 31L21 31L21 32L23 32L23 31L21 31L21 30L20 30L20 28L19 28L19 29L18 29L18 28ZM21 28L21 29L22 29L22 28ZM25 28L25 29L26 29L26 28ZM28 28L28 29L29 29L29 28ZM50 28L50 29L51 29L51 28ZM16 29L16 30L17 30L17 31L18 31L18 29ZM31 29L31 31L28 31L28 32L29 32L29 33L31 33L31 35L32 35L32 34L34 34L34 35L33 35L33 36L32 36L32 37L33 37L33 38L34 38L34 39L35 39L35 40L38 40L38 39L35 39L35 36L37 36L37 34L35 34L35 32L34 32L34 31L33 31L33 32L32 32L32 29ZM39 29L39 30L38 30L38 32L39 32L39 30L40 30L40 29ZM1 30L1 33L2 33L2 30ZM19 30L19 31L20 31L20 30ZM47 31L47 32L48 32L48 33L49 33L49 32L48 32L48 31ZM17 32L17 33L18 33L18 32ZM31 32L31 33L32 33L32 32ZM50 32L50 34L49 34L49 35L50 35L50 36L52 36L52 35L53 35L53 34L52 34L52 33L51 33L51 32ZM9 33L9 34L10 34L10 33ZM54 33L54 34L55 34L55 33ZM42 34L42 35L41 35L41 36L40 36L40 37L43 37L43 36L44 36L44 37L45 37L45 38L46 38L46 39L47 39L47 37L48 37L48 36L47 36L47 37L45 37L45 36L44 36L44 35L43 35L43 34ZM50 34L50 35L52 35L52 34ZM34 35L34 36L35 36L35 35ZM42 35L42 36L43 36L43 35ZM3 36L3 37L4 37L4 38L5 38L5 39L4 39L4 41L5 41L5 40L6 40L6 41L8 41L8 39L9 39L9 36L6 36L6 37L7 37L7 38L5 38L5 37L4 37L4 36ZM27 37L27 38L28 38L28 37ZM54 37L54 38L55 38L55 37ZM51 38L51 39L52 39L52 38ZM2 39L2 40L3 40L3 39ZM6 39L6 40L7 40L7 39ZM11 39L11 40L10 40L10 41L9 41L9 42L8 42L8 43L9 43L9 42L11 42L11 41L13 41L13 40L12 40L12 39ZM0 40L0 41L1 41L1 40ZM42 40L42 41L43 41L43 42L44 42L44 43L43 43L43 44L44 44L44 43L45 43L45 44L46 44L46 43L45 43L45 42L44 42L44 41L45 41L45 40L44 40L44 41L43 41L43 40ZM14 41L14 43L15 43L15 41ZM19 41L19 42L20 42L20 41ZM30 41L30 42L32 42L32 43L31 43L31 44L32 44L32 43L33 43L33 42L32 42L32 41ZM6 42L6 43L7 43L7 42ZM51 42L51 43L50 43L50 44L49 44L49 45L50 45L50 46L51 46L51 47L53 47L53 46L51 46L51 45L52 45L52 44L51 44L51 43L53 43L53 42ZM2 44L2 45L1 45L1 47L2 47L2 45L3 45L3 44ZM17 44L17 45L18 45L18 44ZM6 45L6 46L8 46L8 45ZM9 45L9 47L8 47L8 49L10 49L10 48L11 48L11 46L10 46L10 45ZM12 45L12 47L13 47L13 45ZM38 45L38 46L39 46L39 45ZM54 45L54 46L55 46L55 45ZM3 46L3 47L5 47L5 46ZM41 46L41 48L39 48L39 47L38 47L38 48L37 48L37 49L38 49L38 50L41 50L41 48L42 48L42 49L43 49L43 48L42 48L42 47L43 47L43 46ZM45 46L45 49L47 49L47 48L48 48L48 47L49 47L49 46L48 46L48 47L47 47L47 46ZM9 47L9 48L10 48L10 47ZM18 47L18 48L19 48L19 47ZM38 48L38 49L39 49L39 48ZM55 48L55 49L56 49L56 48ZM27 49L27 52L30 52L30 49ZM32 49L32 50L33 50L33 49ZM49 49L49 52L52 52L52 49ZM14 50L14 53L15 53L15 54L16 54L16 53L17 53L17 52L18 52L18 51L16 51L16 53L15 53L15 50ZM28 50L28 51L29 51L29 50ZM50 50L50 51L51 51L51 50ZM54 50L54 51L55 51L55 50ZM32 51L32 52L33 52L33 51ZM53 52L53 53L54 53L54 52ZM37 55L37 56L39 56L39 55ZM42 55L42 56L43 56L43 55ZM50 55L50 56L51 56L51 55ZM53 55L53 56L55 56L55 57L56 57L56 56L55 56L55 55ZM0 0L0 7L7 7L7 0ZM1 1L1 6L6 6L6 1ZM2 2L2 5L5 5L5 2ZM50 0L50 7L57 7L57 0ZM51 1L51 6L56 6L56 1ZM52 2L52 5L55 5L55 2ZM0 50L0 57L7 57L7 50ZM1 51L1 56L6 56L6 51ZM2 52L2 55L5 55L5 52Z" fill="#000000"/></g></g></svg>
