<?xml version="1.0" encoding="UTF-8"?>
<svg xmlns="http://www.w3.org/2000/svg" version="1.1" width="300" height="300" viewBox="0 0 300 300"><rect x="0" y="0" width="300" height="300" fill="#fefefe"/><g transform="scale(4.615)"><g transform="translate(4,4)"><path fill-rule="evenodd" d="M8 0L8 4L9 4L9 5L8 5L8 7L9 7L9 9L10 9L10 10L12 10L12 9L13 9L13 11L10 11L10 12L9 12L9 11L8 11L8 9L7 9L7 8L4 8L4 9L2 9L2 8L0 8L0 14L1 14L1 13L2 13L2 14L4 14L4 13L3 13L3 12L4 12L4 11L5 11L5 9L7 9L7 10L6 10L6 11L7 11L7 12L5 12L5 13L7 13L7 12L8 12L8 13L10 13L10 14L9 14L9 15L8 15L8 14L5 14L5 15L4 15L4 16L3 16L3 15L1 15L1 16L0 16L0 17L1 17L1 18L2 18L2 19L0 19L0 21L3 21L3 20L2 20L2 19L4 19L4 23L5 23L5 25L7 25L7 26L3 26L3 27L2 27L2 26L1 26L1 27L0 27L0 29L2 29L2 30L0 30L0 31L2 31L2 32L0 32L0 34L1 34L1 33L2 33L2 35L1 35L1 36L2 36L2 37L4 37L4 38L3 38L3 40L2 40L2 39L1 39L1 41L0 41L0 42L2 42L2 43L1 43L1 44L0 44L0 45L2 45L2 47L1 47L1 46L0 46L0 48L5 48L5 47L8 47L8 46L9 46L9 47L10 47L10 46L9 46L9 45L11 45L11 42L13 42L13 43L14 43L14 44L13 44L13 45L14 45L14 46L13 46L13 48L14 48L14 46L16 46L16 47L15 47L15 48L16 48L16 49L14 49L14 50L15 50L15 51L13 51L13 50L12 50L12 51L11 51L11 49L12 49L12 47L11 47L11 48L10 48L10 49L8 49L8 50L9 50L9 51L8 51L8 53L9 53L9 54L10 54L10 53L9 53L9 51L10 51L10 52L12 52L12 53L11 53L11 54L12 54L12 55L11 55L11 56L13 56L13 55L16 55L16 54L19 54L19 55L20 55L20 54L23 54L23 55L24 55L24 56L23 56L23 57L25 57L25 54L26 54L26 57L27 57L27 54L26 54L26 53L28 53L28 57L29 57L29 55L30 55L30 57L34 57L34 55L35 55L35 57L37 57L37 56L36 56L36 54L37 54L37 55L39 55L39 57L40 57L40 54L43 54L43 55L41 55L41 57L43 57L43 55L44 55L44 57L45 57L45 55L46 55L46 56L47 56L47 57L48 57L48 56L47 56L47 55L46 55L46 52L45 52L45 50L46 50L46 51L47 51L47 52L48 52L48 54L49 54L49 57L50 57L50 55L51 55L51 56L53 56L53 57L54 57L54 56L53 56L53 54L57 54L57 51L56 51L56 53L55 53L55 52L54 52L54 53L53 53L53 50L54 50L54 51L55 51L55 49L56 49L56 45L57 45L57 44L56 44L56 45L55 45L55 49L53 49L53 48L52 48L52 47L53 47L53 46L54 46L54 44L53 44L53 43L54 43L54 42L55 42L55 43L56 43L56 42L57 42L57 40L52 40L52 39L53 39L53 38L54 38L54 39L57 39L57 38L55 38L55 37L57 37L57 35L56 35L56 34L55 34L55 33L56 33L56 30L55 30L55 29L54 29L54 28L53 28L53 27L54 27L54 26L55 26L55 28L56 28L56 29L57 29L57 28L56 28L56 26L55 26L55 24L56 24L56 25L57 25L57 24L56 24L56 20L55 20L55 22L54 22L54 21L52 21L52 20L53 20L53 19L52 19L52 16L51 16L51 15L52 15L52 14L53 14L53 15L55 15L55 16L56 16L56 18L55 18L55 19L56 19L56 18L57 18L57 15L56 15L56 13L57 13L57 11L56 11L56 10L57 10L57 8L53 8L53 9L52 9L52 8L51 8L51 9L50 9L50 10L51 10L51 11L50 11L50 16L49 16L49 15L48 15L48 17L47 17L47 15L46 15L46 9L47 9L47 11L48 11L48 12L49 12L49 6L48 6L48 7L47 7L47 5L48 5L48 0L41 0L41 1L40 1L40 2L39 2L39 3L40 3L40 4L38 4L38 7L37 7L37 5L36 5L36 4L35 4L35 5L34 5L34 3L33 3L33 1L34 1L34 2L36 2L36 3L37 3L37 2L38 2L38 1L39 1L39 0L38 0L38 1L37 1L37 2L36 2L36 0L35 0L35 1L34 1L34 0L33 0L33 1L32 1L32 3L31 3L31 2L30 2L30 1L31 1L31 0L30 0L30 1L28 1L28 0L26 0L26 1L28 1L28 2L30 2L30 3L31 3L31 4L29 4L29 3L28 3L28 4L26 4L26 3L25 3L25 0L23 0L23 2L22 2L22 1L21 1L21 0L20 0L20 2L21 2L21 3L22 3L22 4L21 4L21 5L22 5L22 4L23 4L23 3L25 3L25 4L24 4L24 5L23 5L23 6L22 6L22 7L21 7L21 6L20 6L20 5L19 5L19 6L18 6L18 7L17 7L17 6L16 6L16 5L15 5L15 4L14 4L14 1L16 1L16 0L14 0L14 1L13 1L13 6L12 6L12 4L11 4L11 5L10 5L10 3L11 3L11 2L10 2L10 3L9 3L9 1L10 1L10 0ZM18 1L18 3L17 3L17 2L15 2L15 3L16 3L16 4L17 4L17 5L18 5L18 3L19 3L19 1ZM45 1L45 2L47 2L47 1ZM40 2L40 3L41 3L41 4L42 4L42 2ZM43 2L43 3L44 3L44 4L43 4L43 7L42 7L42 5L39 5L39 7L40 7L40 6L41 6L41 7L42 7L42 8L40 8L40 10L38 10L38 9L39 9L39 8L38 8L38 9L35 9L35 7L36 7L36 5L35 5L35 7L34 7L34 5L33 5L33 3L32 3L32 5L33 5L33 7L32 7L32 6L31 6L31 10L29 10L29 11L28 11L28 9L26 9L26 6L25 6L25 7L24 7L24 6L23 6L23 7L22 7L22 9L21 9L21 11L22 11L22 12L23 12L23 13L21 13L21 12L20 12L20 8L19 8L19 10L18 10L18 9L15 9L15 11L17 11L17 13L15 13L15 12L14 12L14 11L13 11L13 13L15 13L15 14L17 14L17 15L18 15L18 16L19 16L19 18L18 18L18 17L15 17L15 18L14 18L14 16L13 16L13 15L11 15L11 14L12 14L12 12L11 12L11 14L10 14L10 15L11 15L11 16L10 16L10 18L11 18L11 20L10 20L10 19L9 19L9 20L7 20L7 19L6 19L6 18L7 18L7 17L9 17L9 16L7 16L7 15L6 15L6 16L4 16L4 17L2 17L2 16L1 16L1 17L2 17L2 18L4 18L4 19L5 19L5 21L6 21L6 22L7 22L7 21L8 21L8 23L6 23L6 24L8 24L8 23L9 23L9 21L11 21L11 20L13 20L13 19L14 19L14 20L15 20L15 21L17 21L17 19L16 19L16 18L18 18L18 20L19 20L19 21L18 21L18 22L16 22L16 23L15 23L15 24L14 24L14 23L13 23L13 22L14 22L14 21L13 21L13 22L12 22L12 23L13 23L13 24L9 24L9 26L10 26L10 27L11 27L11 28L9 28L9 29L11 29L11 30L12 30L12 32L10 32L10 30L9 30L9 31L4 31L4 30L2 30L2 31L4 31L4 33L3 33L3 32L2 32L2 33L3 33L3 35L2 35L2 36L3 36L3 35L4 35L4 34L5 34L5 37L6 37L6 38L4 38L4 39L5 39L5 40L3 40L3 42L4 42L4 41L5 41L5 42L7 42L7 41L8 41L8 40L7 40L7 39L8 39L8 38L7 38L7 37L10 37L10 36L9 36L9 35L8 35L8 34L7 34L7 33L5 33L5 32L8 32L8 33L9 33L9 32L10 32L10 33L12 33L12 32L13 32L13 31L14 31L14 33L16 33L16 37L15 37L15 38L14 38L14 37L11 37L11 39L10 39L10 38L9 38L9 40L11 40L11 41L15 41L15 39L16 39L16 38L17 38L17 40L16 40L16 42L14 42L14 43L15 43L15 44L14 44L14 45L15 45L15 44L16 44L16 46L17 46L17 47L18 47L18 48L19 48L19 50L17 50L17 49L16 49L16 51L17 51L17 52L15 52L15 53L14 53L14 52L13 52L13 51L12 51L12 52L13 52L13 53L12 53L12 54L15 54L15 53L17 53L17 52L19 52L19 53L20 53L20 51L19 51L19 50L20 50L20 48L22 48L22 49L21 49L21 51L22 51L22 52L21 52L21 53L24 53L24 54L25 54L25 53L26 53L26 48L27 48L27 47L28 47L28 48L31 48L31 52L32 52L32 48L31 48L31 47L32 47L32 45L31 45L31 46L30 46L30 44L31 44L31 42L29 42L29 41L26 41L26 42L24 42L24 41L25 41L25 40L27 40L27 39L28 39L28 38L29 38L29 39L31 39L31 41L32 41L32 43L33 43L33 44L37 44L37 46L36 46L36 48L37 48L37 46L38 46L38 45L39 45L39 46L40 46L40 51L38 51L38 49L39 49L39 47L38 47L38 49L37 49L37 53L39 53L39 52L40 52L40 53L44 53L44 55L45 55L45 53L44 53L44 52L41 52L41 46L40 46L40 45L41 45L41 44L40 44L40 45L39 45L39 44L37 44L37 43L33 43L33 41L32 41L32 40L33 40L33 39L31 39L31 38L33 38L33 37L34 37L34 38L35 38L35 39L34 39L34 42L35 42L35 39L37 39L37 42L38 42L38 37L41 37L41 35L42 35L42 34L40 34L40 33L41 33L41 32L40 32L40 30L41 30L41 29L44 29L44 31L45 31L45 30L46 30L46 31L47 31L47 32L45 32L45 33L43 33L43 37L44 37L44 38L43 38L43 39L45 39L45 41L43 41L43 42L41 42L41 40L42 40L42 38L41 38L41 40L40 40L40 42L39 42L39 43L42 43L42 44L43 44L43 45L44 45L44 46L43 46L43 47L42 47L42 49L44 49L44 46L45 46L45 45L46 45L46 47L47 47L47 48L46 48L46 50L47 50L47 49L48 49L48 47L49 47L49 45L50 45L50 47L51 47L51 45L52 45L52 46L53 46L53 44L52 44L52 43L53 43L53 41L52 41L52 40L50 40L50 39L52 39L52 38L53 38L53 36L56 36L56 35L53 35L53 34L54 34L54 33L55 33L55 31L54 31L54 29L53 29L53 31L49 31L49 32L50 32L50 35L49 35L49 37L48 37L48 35L47 35L47 36L46 36L46 38L47 38L47 39L45 39L45 37L44 37L44 35L46 35L46 34L49 34L49 33L48 33L48 31L47 31L47 30L48 30L48 29L46 29L46 28L47 28L47 27L48 27L48 26L47 26L47 25L49 25L49 26L50 26L50 25L51 25L51 26L52 26L52 25L53 25L53 24L55 24L55 23L53 23L53 22L52 22L52 21L51 21L51 20L47 20L47 21L45 21L45 22L44 22L44 16L45 16L45 17L46 17L46 18L45 18L45 20L46 20L46 18L47 18L47 17L46 17L46 16L45 16L45 15L44 15L44 14L43 14L43 15L42 15L42 17L43 17L43 18L42 18L42 19L41 19L41 18L40 18L40 17L41 17L41 13L44 13L44 12L45 12L45 11L43 11L43 10L44 10L44 9L43 9L43 7L44 7L44 4L46 4L46 5L45 5L45 7L46 7L46 5L47 5L47 3L44 3L44 2ZM27 5L27 8L30 8L30 5ZM9 6L9 7L10 7L10 9L11 9L11 7L12 7L12 8L13 8L13 9L14 9L14 8L13 8L13 7L14 7L14 6L13 6L13 7L12 7L12 6L11 6L11 7L10 7L10 6ZM15 6L15 7L16 7L16 6ZM19 6L19 7L20 7L20 6ZM28 6L28 7L29 7L29 6ZM23 7L23 9L24 9L24 10L23 10L23 11L24 11L24 13L23 13L23 14L24 14L24 16L25 16L25 17L21 17L21 15L22 15L22 16L23 16L23 15L22 15L22 14L21 14L21 13L20 13L20 12L18 12L18 13L17 13L17 14L18 14L18 15L20 15L20 19L21 19L21 20L20 20L20 21L19 21L19 23L18 23L18 24L16 24L16 25L15 25L15 27L16 27L16 28L14 28L14 26L13 26L13 25L12 25L12 26L13 26L13 28L11 28L11 29L12 29L12 30L14 30L14 31L16 31L16 32L17 32L17 37L18 37L18 38L19 38L19 37L22 37L22 35L23 35L23 37L24 37L24 38L25 38L25 39L27 39L27 38L26 38L26 37L28 37L28 36L29 36L29 37L31 37L31 36L32 36L32 37L33 37L33 35L34 35L34 33L35 33L35 36L34 36L34 37L35 37L35 38L37 38L37 37L38 37L38 36L40 36L40 35L38 35L38 34L39 34L39 33L40 33L40 32L39 32L39 29L40 29L40 28L41 28L41 27L42 27L42 28L43 28L43 26L45 26L45 27L44 27L44 29L45 29L45 27L47 27L47 26L46 26L46 25L45 25L45 24L46 24L46 23L45 23L45 24L44 24L44 25L41 25L41 27L37 27L37 26L36 26L36 27L35 27L35 32L34 32L34 33L33 33L33 31L34 31L34 27L33 27L33 26L34 26L34 25L37 25L37 24L34 24L34 23L35 23L35 22L37 22L37 23L39 23L39 21L40 21L40 22L41 22L41 23L42 23L42 24L43 24L43 23L44 23L44 22L43 22L43 20L42 20L42 21L40 21L40 18L39 18L39 17L40 17L40 15L39 15L39 14L40 14L40 13L38 13L38 15L39 15L39 17L38 17L38 16L37 16L37 14L35 14L35 17L38 17L38 18L39 18L39 19L38 19L38 22L37 22L37 18L34 18L34 13L33 13L33 10L34 10L34 12L35 12L35 13L37 13L37 12L39 12L39 11L38 11L38 10L37 10L37 12L36 12L36 10L34 10L34 9L33 9L33 8L34 8L34 7L33 7L33 8L32 8L32 13L30 13L30 15L31 15L31 16L29 16L29 13L26 13L26 11L27 11L27 12L28 12L28 11L27 11L27 10L25 10L25 9L24 9L24 7ZM45 8L45 9L46 9L46 8ZM1 9L1 11L2 11L2 12L3 12L3 11L4 11L4 10L3 10L3 11L2 11L2 9ZM41 9L41 10L40 10L40 11L41 11L41 12L43 12L43 11L42 11L42 10L43 10L43 9ZM53 9L53 10L54 10L54 11L52 11L52 12L51 12L51 14L52 14L52 13L53 13L53 12L54 12L54 13L56 13L56 12L55 12L55 9ZM17 10L17 11L18 11L18 10ZM29 11L29 12L31 12L31 11ZM19 13L19 14L20 14L20 15L21 15L21 14L20 14L20 13ZM25 13L25 14L26 14L26 16L27 16L27 15L28 15L28 14L26 14L26 13ZM32 13L32 14L33 14L33 13ZM47 13L47 14L49 14L49 13ZM32 15L32 16L31 16L31 19L30 19L30 18L28 18L28 17L27 17L27 19L26 19L26 20L25 20L25 18L26 18L26 17L25 17L25 18L24 18L24 19L22 19L22 18L21 18L21 19L22 19L22 22L20 22L20 23L19 23L19 24L20 24L20 25L19 25L19 27L20 27L20 28L18 28L18 29L15 29L15 30L17 30L17 31L18 31L18 29L19 29L19 31L20 31L20 32L19 32L19 35L18 35L18 36L19 36L19 35L20 35L20 36L21 36L21 35L20 35L20 33L21 33L21 34L23 34L23 33L26 33L26 34L24 34L24 36L25 36L25 35L26 35L26 36L28 36L28 34L29 34L29 33L32 33L32 34L30 34L30 36L31 36L31 35L32 35L32 34L33 34L33 33L32 33L32 31L33 31L33 30L32 30L32 28L33 28L33 27L32 27L32 23L33 23L33 22L31 22L31 32L30 32L30 31L29 31L29 33L28 33L28 34L27 34L27 32L25 32L25 31L24 31L24 30L23 30L23 29L24 29L24 28L25 28L25 27L26 27L26 25L25 25L25 26L24 26L24 27L23 27L23 28L22 28L22 27L20 27L20 25L21 25L21 24L22 24L22 25L24 25L24 23L23 23L23 21L24 21L24 22L25 22L25 23L26 23L26 22L28 22L28 21L29 21L29 23L30 23L30 21L29 21L29 20L31 20L31 21L32 21L32 20L31 20L31 19L33 19L33 20L34 20L34 22L35 22L35 20L36 20L36 19L33 19L33 17L32 17L32 16L33 16L33 15ZM43 15L43 16L44 16L44 15ZM6 16L6 17L7 17L7 16ZM12 16L12 19L13 19L13 16ZM50 16L50 17L49 17L49 19L50 19L50 17L51 17L51 16ZM4 17L4 18L5 18L5 17ZM28 19L28 20L26 20L26 21L28 21L28 20L29 20L29 19ZM6 20L6 21L7 21L7 20ZM24 20L24 21L25 21L25 20ZM47 21L47 22L50 22L50 23L47 23L47 24L50 24L50 23L52 23L52 24L51 24L51 25L52 25L52 24L53 24L53 23L52 23L52 22L51 22L51 21ZM2 22L2 23L0 23L0 25L2 25L2 24L3 24L3 22ZM10 22L10 23L11 23L11 22ZM42 22L42 23L43 23L43 22ZM22 23L22 24L23 24L23 23ZM28 24L28 25L27 25L27 26L28 26L28 25L29 25L29 26L30 26L30 25L29 25L29 24ZM33 24L33 25L34 25L34 24ZM10 25L10 26L11 26L11 25ZM16 25L16 26L17 26L17 27L18 27L18 26L17 26L17 25ZM38 25L38 26L40 26L40 25ZM5 27L5 30L8 30L8 27ZM27 27L27 30L30 30L30 27ZM49 27L49 30L52 30L52 27ZM2 28L2 29L4 29L4 28ZM6 28L6 29L7 29L7 28ZM20 28L20 31L21 31L21 33L22 33L22 31L23 31L23 30L22 30L22 29L21 29L21 28ZM28 28L28 29L29 29L29 28ZM37 28L37 29L38 29L38 28ZM50 28L50 29L51 29L51 28ZM25 29L25 30L26 30L26 29ZM21 30L21 31L22 31L22 30ZM37 30L37 32L38 32L38 30ZM51 32L51 33L53 33L53 32ZM37 33L37 34L38 34L38 33ZM45 33L45 34L46 34L46 33ZM6 34L6 35L7 35L7 34ZM10 34L10 35L11 35L11 36L12 36L12 35L11 35L11 34ZM13 34L13 35L14 35L14 36L15 36L15 34ZM26 34L26 35L27 35L27 34ZM37 35L37 36L38 36L38 35ZM50 35L50 36L51 36L51 37L49 37L49 38L48 38L48 37L47 37L47 38L48 38L48 39L47 39L47 40L46 40L46 41L45 41L45 42L46 42L46 43L47 43L47 42L46 42L46 41L47 41L47 40L49 40L49 39L50 39L50 38L52 38L52 36L53 36L53 35ZM6 36L6 37L7 37L7 36ZM0 37L0 38L1 38L1 37ZM6 38L6 39L7 39L7 38ZM12 38L12 40L13 40L13 39L14 39L14 38ZM20 38L20 39L19 39L19 40L18 40L18 41L17 41L17 43L18 43L18 41L19 41L19 40L20 40L20 42L19 42L19 44L18 44L18 45L17 45L17 46L19 46L19 47L20 47L20 46L21 46L21 47L22 47L22 48L23 48L23 49L22 49L22 50L23 50L23 52L24 52L24 53L25 53L25 49L24 49L24 48L25 48L25 47L24 47L24 46L26 46L26 47L27 47L27 46L26 46L26 45L29 45L29 44L28 44L28 43L29 43L29 42L28 42L28 43L25 43L25 45L24 45L24 44L22 44L22 43L21 43L21 41L22 41L22 40L21 40L21 38ZM22 38L22 39L23 39L23 41L24 41L24 39L23 39L23 38ZM39 38L39 39L40 39L40 38ZM6 40L6 41L7 41L7 40ZM9 41L9 42L8 42L8 44L9 44L9 43L10 43L10 41ZM48 41L48 42L49 42L49 43L48 43L48 45L49 45L49 43L50 43L50 45L51 45L51 43L52 43L52 41L51 41L51 43L50 43L50 42L49 42L49 41ZM43 42L43 43L44 43L44 42ZM6 43L6 44L5 44L5 45L4 45L4 44L2 44L2 45L4 45L4 46L3 46L3 47L5 47L5 45L6 45L6 46L7 46L7 45L6 45L6 44L7 44L7 43ZM20 43L20 44L19 44L19 46L20 46L20 44L21 44L21 43ZM44 44L44 45L45 45L45 44ZM46 44L46 45L47 45L47 44ZM21 45L21 46L22 46L22 47L23 47L23 45ZM34 45L34 47L33 47L33 49L34 49L34 50L33 50L33 53L32 53L32 54L33 54L33 55L34 55L34 54L35 54L35 52L36 52L36 49L34 49L34 48L35 48L35 45ZM28 46L28 47L29 47L29 46ZM47 46L47 47L48 47L48 46ZM6 48L6 49L7 49L7 48ZM27 49L27 52L30 52L30 49ZM49 49L49 52L52 52L52 49ZM28 50L28 51L29 51L29 50ZM34 50L34 52L35 52L35 50ZM42 50L42 51L44 51L44 50ZM50 50L50 51L51 51L51 50ZM30 53L30 54L31 54L31 53ZM33 53L33 54L34 54L34 53ZM49 53L49 54L51 54L51 55L52 55L52 54L51 54L51 53ZM8 55L8 57L10 57L10 56L9 56L9 55ZM17 55L17 57L22 57L22 55L21 55L21 56L18 56L18 55ZM56 56L56 57L57 57L57 56ZM0 0L0 7L7 7L7 0ZM1 1L1 6L6 6L6 1ZM2 2L2 5L5 5L5 2ZM50 0L50 7L57 7L57 0ZM51 1L51 6L56 6L56 1ZM52 2L52 5L55 5L55 2ZM0 50L0 57L7 57L7 50ZM1 51L1 56L6 56L6 51ZM2 52L2 55L5 55L5 52Z" fill="#000000"/></g></g></svg>
