<?xml version="1.0" encoding="UTF-8"?>
<svg xmlns="http://www.w3.org/2000/svg" version="1.1" width="300" height="300" viewBox="0 0 300 300"><rect x="0" y="0" width="300" height="300" fill="#fefefe"/><g transform="scale(4.615)"><g transform="translate(4,4)"><path fill-rule="evenodd" d="M8 0L8 1L9 1L9 2L8 2L8 5L10 5L10 7L9 7L9 6L8 6L8 7L9 7L9 8L8 8L8 9L7 9L7 8L6 8L6 9L5 9L5 10L4 10L4 8L0 8L0 9L1 9L1 10L0 10L0 11L1 11L1 12L0 12L0 17L2 17L2 14L1 14L1 12L2 12L2 13L4 13L4 14L5 14L5 12L6 12L6 13L7 13L7 12L8 12L8 16L5 16L5 15L3 15L3 18L2 18L2 19L1 19L1 20L0 20L0 22L1 22L1 20L2 20L2 22L3 22L3 21L4 21L4 20L2 20L2 19L3 19L3 18L4 18L4 19L5 19L5 20L6 20L6 21L7 21L7 20L8 20L8 18L6 18L6 17L9 17L9 11L10 11L10 12L11 12L11 13L12 13L12 14L11 14L11 15L10 15L10 17L12 17L12 20L13 20L13 22L11 22L11 20L10 20L10 19L11 19L11 18L10 18L10 19L9 19L9 20L10 20L10 22L9 22L9 23L7 23L7 22L4 22L4 23L7 23L7 24L6 24L6 25L4 25L4 26L3 26L3 27L4 27L4 28L3 28L3 29L1 29L1 28L0 28L0 29L1 29L1 30L3 30L3 33L2 33L2 34L1 34L1 33L0 33L0 34L1 34L1 35L0 35L0 36L1 36L1 35L2 35L2 36L3 36L3 37L2 37L2 38L0 38L0 40L1 40L1 39L4 39L4 38L6 38L6 39L7 39L7 38L8 38L8 39L9 39L9 38L10 38L10 40L11 40L11 42L12 42L12 46L15 46L15 47L14 47L14 48L13 48L13 47L10 47L10 46L9 46L9 45L10 45L10 44L11 44L11 43L10 43L10 44L8 44L8 43L7 43L7 42L10 42L10 41L9 41L9 40L8 40L8 41L7 41L7 40L5 40L5 41L4 41L4 42L3 42L3 40L2 40L2 42L1 42L1 41L0 41L0 43L1 43L1 44L2 44L2 47L1 47L1 45L0 45L0 48L5 48L5 47L7 47L7 46L8 46L8 48L9 48L9 49L8 49L8 50L10 50L10 48L12 48L12 49L11 49L11 50L14 50L14 48L15 48L15 51L14 51L14 54L13 54L13 52L11 52L11 51L9 51L9 52L11 52L11 54L10 54L10 53L8 53L8 57L9 57L9 55L11 55L11 56L12 56L12 55L11 55L11 54L13 54L13 57L14 57L14 54L15 54L15 56L16 56L16 57L18 57L18 56L19 56L19 55L20 55L20 56L21 56L21 57L24 57L24 56L26 56L26 54L27 54L27 53L29 53L29 54L31 54L31 55L30 55L30 56L31 56L31 57L32 57L32 55L33 55L33 54L36 54L36 55L34 55L34 56L33 56L33 57L36 57L36 55L38 55L38 57L41 57L41 56L42 56L42 57L43 57L43 55L44 55L44 54L45 54L45 55L46 55L46 56L47 56L47 55L48 55L48 57L51 57L51 54L52 54L52 53L53 53L53 56L52 56L52 57L55 57L55 56L54 56L54 55L55 55L55 54L56 54L56 52L57 52L57 51L56 51L56 52L55 52L55 50L56 50L56 49L57 49L57 48L56 48L56 49L55 49L55 48L54 48L54 47L57 47L57 43L56 43L56 41L57 41L57 40L56 40L56 41L55 41L55 42L54 42L54 40L55 40L55 39L53 39L53 38L52 38L52 36L53 36L53 37L55 37L55 38L56 38L56 39L57 39L57 38L56 38L56 37L57 37L57 31L56 31L56 30L57 30L57 29L56 29L56 28L57 28L57 27L56 27L56 28L55 28L55 27L53 27L53 26L51 26L51 25L49 25L49 23L47 23L47 22L49 22L49 20L50 20L50 21L51 21L51 22L52 22L52 23L51 23L51 24L54 24L54 25L56 25L56 24L54 24L54 23L53 23L53 22L54 22L54 21L56 21L56 22L55 22L55 23L57 23L57 19L56 19L56 18L57 18L57 15L53 15L53 16L55 16L55 17L54 17L54 18L52 18L52 16L50 16L50 15L51 15L51 13L52 13L52 14L53 14L53 13L54 13L54 14L55 14L55 13L54 13L54 10L53 10L53 9L55 9L55 8L52 8L52 10L50 10L50 8L49 8L49 6L48 6L48 7L47 7L47 5L48 5L48 0L46 0L46 1L47 1L47 2L46 2L46 3L47 3L47 5L46 5L46 4L44 4L44 3L45 3L45 1L44 1L44 2L42 2L42 3L41 3L41 4L38 4L38 3L39 3L39 2L38 2L38 3L37 3L37 1L38 1L38 0L37 0L37 1L36 1L36 0L35 0L35 1L34 1L34 2L35 2L35 4L36 4L36 5L37 5L37 6L36 6L36 7L35 7L35 6L34 6L34 4L33 4L33 6L32 6L32 5L31 5L31 4L32 4L32 3L33 3L33 0L27 0L27 3L28 3L28 1L30 1L30 2L29 2L29 4L26 4L26 2L24 2L24 3L23 3L23 5L22 5L22 4L21 4L21 5L20 5L20 4L19 4L19 3L20 3L20 1L19 1L19 3L18 3L18 0L17 0L17 1L16 1L16 3L18 3L18 7L17 7L17 5L15 5L15 4L14 4L14 3L13 3L13 4L12 4L12 7L11 7L11 5L10 5L10 4L11 4L11 2L12 2L12 1L10 1L10 0ZM21 0L21 1L22 1L22 0ZM23 0L23 1L26 1L26 0ZM39 0L39 1L40 1L40 2L41 2L41 1L43 1L43 0L41 0L41 1L40 1L40 0ZM35 1L35 2L36 2L36 1ZM9 2L9 3L10 3L10 2ZM30 2L30 4L31 4L31 2ZM13 4L13 5L14 5L14 4ZM24 4L24 6L23 6L23 7L24 7L24 8L23 8L23 9L21 9L21 7L22 7L22 6L21 6L21 7L20 7L20 6L19 6L19 7L20 7L20 8L18 8L18 9L17 9L17 7L16 7L16 6L15 6L15 8L13 8L13 7L14 7L14 6L13 6L13 7L12 7L12 8L9 8L9 9L8 9L8 11L9 11L9 9L10 9L10 11L11 11L11 12L12 12L12 11L13 11L13 10L14 10L14 11L15 11L15 15L14 15L14 13L13 13L13 15L14 15L14 16L15 16L15 15L16 15L16 16L17 16L17 19L16 19L16 17L15 17L15 18L13 18L13 19L16 19L16 20L14 20L14 22L13 22L13 24L12 24L12 26L11 26L11 25L10 25L10 24L8 24L8 25L6 25L6 26L8 26L8 25L10 25L10 27L9 27L9 28L10 28L10 30L9 30L9 32L8 32L8 31L6 31L6 32L5 32L5 34L7 34L7 33L9 33L9 35L8 35L8 36L7 36L7 35L4 35L4 33L3 33L3 36L4 36L4 37L3 37L3 38L4 38L4 37L6 37L6 38L7 38L7 37L11 37L11 36L10 36L10 33L11 33L11 34L12 34L12 42L13 42L13 38L14 38L14 36L15 36L15 38L18 38L18 36L19 36L19 37L20 37L20 38L21 38L21 39L23 39L23 40L22 40L22 41L23 41L23 40L24 40L24 39L25 39L25 41L24 41L24 42L23 42L23 44L22 44L22 42L21 42L21 41L20 41L20 40L17 40L17 39L16 39L16 40L17 40L17 41L19 41L19 43L18 43L18 42L15 42L15 39L14 39L14 43L17 43L17 45L15 45L15 44L13 44L13 45L15 45L15 46L16 46L16 47L17 47L17 48L19 48L19 49L16 49L16 50L17 50L17 51L19 51L19 49L21 49L21 53L20 53L20 55L21 55L21 56L22 56L22 55L21 55L21 53L22 53L22 54L23 54L23 56L24 56L24 55L25 55L25 54L26 54L26 51L24 51L24 50L26 50L26 48L27 48L27 46L28 46L28 48L32 48L32 49L31 49L31 53L32 53L32 51L33 51L33 53L36 53L36 54L39 54L39 53L37 53L37 51L36 51L36 52L35 52L35 48L37 48L37 49L36 49L36 50L37 50L37 49L38 49L38 48L39 48L39 49L40 49L40 50L39 50L39 51L38 51L38 52L40 52L40 54L41 54L41 55L42 55L42 54L43 54L43 53L42 53L42 54L41 54L41 52L42 52L42 51L44 51L44 49L45 49L45 47L46 47L46 46L47 46L47 45L50 45L50 46L51 46L51 45L50 45L50 44L51 44L51 42L50 42L50 41L52 41L52 40L53 40L53 39L52 39L52 40L50 40L50 39L51 39L51 38L50 38L50 36L47 36L47 34L48 34L48 35L49 35L49 34L50 34L50 33L49 33L49 32L50 32L50 31L49 31L49 32L48 32L48 30L47 30L47 31L46 31L46 32L47 32L47 33L45 33L45 30L46 30L46 27L45 27L45 29L42 29L42 30L40 30L40 29L41 29L41 28L40 28L40 29L38 29L38 30L37 30L37 27L36 27L36 28L34 28L34 29L36 29L36 31L37 31L37 32L36 32L36 33L37 33L37 32L38 32L38 34L39 34L39 31L40 31L40 32L41 32L41 31L43 31L43 30L44 30L44 34L46 34L46 35L45 35L45 36L44 36L44 37L42 37L42 38L44 38L44 39L39 39L39 38L37 38L37 37L38 37L38 36L37 36L37 37L35 37L35 36L36 36L36 35L34 35L34 34L35 34L35 33L33 33L33 32L34 32L34 31L31 31L31 33L32 33L32 34L30 34L30 35L29 35L29 33L30 33L30 32L28 32L28 31L26 31L26 32L28 32L28 33L25 33L25 34L24 34L24 35L22 35L22 34L23 34L23 33L24 33L24 32L25 32L25 31L24 31L24 30L26 30L26 28L25 28L25 25L27 25L27 26L28 26L28 25L29 25L29 26L31 26L31 23L32 23L32 22L33 22L33 24L32 24L32 25L33 25L33 24L35 24L35 23L36 23L36 24L37 24L37 23L39 23L39 24L38 24L38 25L39 25L39 26L38 26L38 27L40 27L40 25L41 25L41 27L42 27L42 28L43 28L43 27L42 27L42 26L43 26L43 24L41 24L41 23L43 23L43 22L41 22L41 23L39 23L39 21L38 21L38 22L35 22L35 21L33 21L33 20L34 20L34 19L35 19L35 20L36 20L36 21L37 21L37 20L36 20L36 19L38 19L38 20L40 20L40 19L39 19L39 18L41 18L41 20L43 20L43 21L44 21L44 22L45 22L45 23L44 23L44 25L45 25L45 24L47 24L47 25L46 25L46 26L49 26L49 25L48 25L48 24L47 24L47 23L46 23L46 22L47 22L47 21L48 21L48 20L47 20L47 21L46 21L46 19L50 19L50 20L53 20L53 21L54 21L54 20L56 20L56 19L52 19L52 18L51 18L51 17L50 17L50 16L49 16L49 10L48 10L48 9L45 9L45 8L46 8L46 5L43 5L43 4L41 4L41 5L42 5L42 6L41 6L41 7L40 7L40 5L38 5L38 6L37 6L37 7L38 7L38 8L41 8L41 9L38 9L38 11L37 11L37 8L36 8L36 9L34 9L34 6L33 6L33 8L32 8L32 6L31 6L31 9L32 9L32 10L29 10L29 11L28 11L28 10L26 10L26 11L25 11L25 12L24 12L24 15L26 15L26 16L25 16L25 17L24 17L24 18L23 18L23 13L22 13L22 12L23 12L23 11L24 11L24 10L23 10L23 9L26 9L26 6L25 6L25 5L26 5L26 4ZM27 5L27 8L30 8L30 5ZM24 6L24 7L25 7L25 6ZM28 6L28 7L29 7L29 6ZM38 6L38 7L39 7L39 6ZM42 6L42 7L41 7L41 8L42 8L42 9L41 9L41 10L39 10L39 11L38 11L38 12L36 12L36 10L35 10L35 11L34 11L34 10L33 10L33 13L32 13L32 12L31 12L31 11L30 11L30 12L31 12L31 14L30 14L30 13L28 13L28 12L26 12L26 13L25 13L25 14L26 14L26 15L27 15L27 16L26 16L26 17L25 17L25 18L24 18L24 19L25 19L25 20L27 20L27 21L25 21L25 22L24 22L24 21L23 21L23 19L22 19L22 17L21 17L21 18L19 18L19 17L18 17L18 20L16 20L16 23L15 23L15 24L13 24L13 29L12 29L12 27L11 27L11 29L12 29L12 30L13 30L13 31L12 31L12 32L13 32L13 31L14 31L14 30L15 30L15 32L14 32L14 33L13 33L13 35L17 35L17 36L18 36L18 35L17 35L17 34L18 34L18 33L17 33L17 34L14 34L14 33L16 33L16 30L17 30L17 27L21 27L21 26L22 26L22 27L23 27L23 28L24 28L24 26L23 26L23 25L21 25L21 24L24 24L24 25L25 25L25 22L27 22L27 23L26 23L26 24L29 24L29 23L30 23L30 22L31 22L31 21L29 21L29 20L27 20L27 17L29 17L29 18L28 18L28 19L30 19L30 17L29 17L29 16L31 16L31 17L32 17L32 18L35 18L35 17L34 17L34 16L35 16L35 15L33 15L33 14L34 14L34 12L35 12L35 14L36 14L36 15L39 15L39 17L40 17L40 16L41 16L41 15L40 15L40 14L39 14L39 11L42 11L42 12L43 12L43 14L42 14L42 17L41 17L41 18L42 18L42 19L43 19L43 18L42 18L42 17L45 17L45 18L44 18L44 19L46 19L46 18L48 18L48 14L47 14L47 17L46 17L46 15L45 15L45 14L46 14L46 13L44 13L44 12L43 12L43 11L44 11L44 9L43 9L43 6ZM44 6L44 7L45 7L45 6ZM12 8L12 9L11 9L11 11L12 11L12 10L13 10L13 8ZM15 8L15 9L16 9L16 8ZM56 8L56 9L57 9L57 8ZM2 9L2 10L1 10L1 11L2 11L2 12L4 12L4 10L3 10L3 9ZM6 9L6 10L5 10L5 11L6 11L6 12L7 12L7 11L6 11L6 10L7 10L7 9ZM18 9L18 10L15 10L15 11L16 11L16 13L17 13L17 12L18 12L18 13L19 13L19 15L20 15L20 14L21 14L21 11L23 11L23 10L21 10L21 11L20 11L20 9ZM18 10L18 12L19 12L19 13L20 13L20 12L19 12L19 10ZM42 10L42 11L43 11L43 10ZM45 10L45 11L47 11L47 12L48 12L48 11L47 11L47 10ZM52 10L52 11L51 11L51 12L50 12L50 13L51 13L51 12L52 12L52 13L53 13L53 10ZM55 10L55 11L56 11L56 13L57 13L57 10ZM6 14L6 15L7 15L7 14ZM16 14L16 15L17 15L17 14ZM31 14L31 16L33 16L33 15L32 15L32 14ZM28 15L28 16L29 16L29 15ZM44 15L44 16L45 16L45 15ZM4 16L4 18L5 18L5 19L6 19L6 20L7 20L7 19L6 19L6 18L5 18L5 16ZM36 17L36 18L37 18L37 17ZM25 18L25 19L26 19L26 18ZM50 18L50 19L51 19L51 18ZM19 19L19 20L18 20L18 21L17 21L17 23L16 23L16 24L17 24L17 23L19 23L19 22L21 22L21 23L20 23L20 24L19 24L19 25L18 25L18 26L19 26L19 25L20 25L20 24L21 24L21 23L22 23L22 22L21 22L21 20L22 20L22 19ZM31 19L31 20L32 20L32 19ZM18 21L18 22L19 22L19 21ZM28 21L28 23L29 23L29 21ZM2 23L2 24L0 24L0 27L2 27L2 26L1 26L1 25L2 25L2 24L3 24L3 23ZM16 25L16 26L15 26L15 27L14 27L14 28L15 28L15 27L17 27L17 25ZM34 25L34 27L35 27L35 25ZM5 27L5 30L8 30L8 27ZM27 27L27 30L30 30L30 27ZM31 27L31 28L33 28L33 27ZM49 27L49 30L52 30L52 27ZM6 28L6 29L7 29L7 28ZM18 28L18 29L19 29L19 30L20 30L20 28ZM28 28L28 29L29 29L29 28ZM47 28L47 29L48 29L48 28ZM50 28L50 29L51 29L51 28ZM53 28L53 29L54 29L54 30L56 30L56 29L54 29L54 28ZM15 29L15 30L16 30L16 29ZM21 29L21 30L24 30L24 29ZM31 29L31 30L33 30L33 29ZM38 30L38 31L39 31L39 30ZM1 31L1 32L2 32L2 31ZM18 31L18 32L19 32L19 34L20 34L20 33L21 33L21 34L22 34L22 33L23 33L23 31L22 31L22 32L20 32L20 31ZM51 31L51 32L52 32L52 34L54 34L54 33L53 33L53 32L55 32L55 31ZM6 32L6 33L7 33L7 32ZM9 32L9 33L10 33L10 32ZM42 32L42 33L43 33L43 32ZM55 33L55 34L56 34L56 33ZM25 34L25 35L26 35L26 36L23 36L23 39L24 39L24 37L26 37L26 38L25 38L25 39L27 39L27 40L26 40L26 41L25 41L25 42L27 42L27 44L30 44L30 45L31 45L31 44L30 44L30 43L32 43L32 42L33 42L33 45L32 45L32 46L33 46L33 45L34 45L34 44L35 44L35 46L34 46L34 47L33 47L33 48L34 48L34 47L35 47L35 46L36 46L36 43L34 43L34 42L36 42L36 41L34 41L34 40L35 40L35 39L36 39L36 38L34 38L34 37L33 37L33 38L32 38L32 36L34 36L34 35L32 35L32 36L29 36L29 35L28 35L28 34ZM41 34L41 35L39 35L39 36L40 36L40 37L41 37L41 35L42 35L42 36L43 36L43 35L42 35L42 34ZM19 35L19 36L22 36L22 35ZM51 35L51 36L52 36L52 35ZM54 35L54 36L55 36L55 37L56 37L56 36L55 36L55 35ZM6 36L6 37L7 37L7 36ZM26 36L26 37L27 37L27 38L29 38L29 36ZM46 36L46 37L45 37L45 39L44 39L44 40L42 40L42 41L40 41L40 40L39 40L39 39L38 39L38 40L37 40L37 41L39 41L39 42L37 42L37 44L38 44L38 45L37 45L37 47L38 47L38 45L40 45L40 46L39 46L39 47L43 47L43 49L44 49L44 47L45 47L45 45L42 45L42 43L43 43L43 44L49 44L49 43L50 43L50 42L47 42L47 41L50 41L50 40L47 40L47 39L48 39L48 37L47 37L47 36ZM21 37L21 38L22 38L22 37ZM46 37L46 38L47 38L47 37ZM30 38L30 39L28 39L28 41L29 41L29 42L30 42L30 41L31 41L31 40L33 40L33 39L34 39L34 38L33 38L33 39L32 39L32 38ZM29 40L29 41L30 41L30 40ZM45 40L45 41L44 41L44 42L45 42L45 41L46 41L46 40ZM6 41L6 42L5 42L5 43L6 43L6 44L5 44L5 46L3 46L3 47L5 47L5 46L7 46L7 45L8 45L8 44L7 44L7 43L6 43L6 42L7 42L7 41ZM42 41L42 42L43 42L43 41ZM39 42L39 43L38 43L38 44L41 44L41 43L40 43L40 42ZM53 42L53 43L52 43L52 47L51 47L51 48L53 48L53 50L55 50L55 49L54 49L54 48L53 48L53 46L56 46L56 44L55 44L55 43L54 43L54 42ZM19 43L19 45L17 45L17 47L18 47L18 46L19 46L19 48L20 48L20 47L21 47L21 48L23 48L23 49L22 49L22 51L23 51L23 49L24 49L24 48L26 48L26 47L24 47L24 48L23 48L23 46L22 46L22 44L21 44L21 43ZM25 43L25 44L23 44L23 45L24 45L24 46L25 46L25 45L26 45L26 46L27 46L27 45L26 45L26 43ZM3 44L3 45L4 45L4 44ZM6 44L6 45L7 45L7 44ZM53 44L53 45L55 45L55 44ZM20 45L20 46L21 46L21 47L22 47L22 46L21 46L21 45ZM48 46L48 47L49 47L49 48L50 48L50 47L49 47L49 46ZM6 48L6 49L7 49L7 48ZM41 48L41 49L42 49L42 48ZM46 48L46 50L45 50L45 51L47 51L47 52L48 52L48 48ZM27 49L27 52L30 52L30 49ZM32 49L32 50L33 50L33 51L34 51L34 49ZM49 49L49 52L52 52L52 49ZM28 50L28 51L29 51L29 50ZM50 50L50 51L51 51L51 50ZM40 51L40 52L41 52L41 51ZM15 52L15 53L16 53L16 54L17 54L17 55L19 55L19 52ZM23 52L23 54L25 54L25 53L24 53L24 52ZM45 52L45 53L46 53L46 52ZM54 52L54 54L55 54L55 52ZM17 53L17 54L18 54L18 53ZM48 53L48 54L50 54L50 53ZM46 54L46 55L47 55L47 54ZM27 55L27 56L28 56L28 55ZM39 55L39 56L40 56L40 55ZM56 55L56 56L57 56L57 55ZM0 0L0 7L7 7L7 0ZM1 1L1 6L6 6L6 1ZM2 2L2 5L5 5L5 2ZM50 0L50 7L57 7L57 0ZM51 1L51 6L56 6L56 1ZM52 2L52 5L55 5L55 2ZM0 50L0 57L7 57L7 50ZM1 51L1 56L6 56L6 51ZM2 52L2 55L5 55L5 52Z" fill="#000000"/></g></g></svg>
