<?xml version="1.0" encoding="UTF-8"?>
<svg xmlns="http://www.w3.org/2000/svg" version="1.1" width="300" height="300" viewBox="0 0 300 300"><rect x="0" y="0" width="300" height="300" fill="#fefefe"/><g transform="scale(4.615)"><g transform="translate(4,4)"><path fill-rule="evenodd" d="M9 0L9 1L8 1L8 2L9 2L9 3L8 3L8 4L9 4L9 5L8 5L8 7L9 7L9 6L10 6L10 8L6 8L6 9L7 9L7 10L5 10L5 8L0 8L0 11L1 11L1 13L0 13L0 14L1 14L1 13L2 13L2 15L1 15L1 17L0 17L0 20L1 20L1 23L2 23L2 22L3 22L3 25L2 25L2 26L0 26L0 27L2 27L2 26L3 26L3 25L4 25L4 24L5 24L5 26L4 26L4 28L2 28L2 29L1 29L1 31L0 31L0 34L3 34L3 35L4 35L4 34L5 34L5 35L7 35L7 36L1 36L1 35L0 35L0 36L1 36L1 37L3 37L3 38L4 38L4 37L8 37L8 36L10 36L10 39L11 39L11 38L12 38L12 39L13 39L13 37L14 37L14 35L8 35L8 34L10 34L10 32L9 32L9 31L12 31L12 33L11 33L11 34L13 34L13 33L14 33L14 34L15 34L15 32L13 32L13 30L11 30L11 29L10 29L10 26L11 26L11 28L12 28L12 26L13 26L13 27L14 27L14 28L13 28L13 29L14 29L14 30L15 30L15 31L16 31L16 29L18 29L18 30L20 30L20 29L18 29L18 28L16 28L16 29L14 29L14 28L15 28L15 26L14 26L14 25L15 25L15 24L14 24L14 21L13 21L13 20L14 20L14 19L13 19L13 18L15 18L15 21L16 21L16 22L15 22L15 23L16 23L16 24L17 24L17 25L18 25L18 26L16 26L16 27L18 27L18 26L19 26L19 27L20 27L20 26L19 26L19 25L21 25L21 24L17 24L17 22L19 22L19 23L20 23L20 22L19 22L19 21L20 21L20 20L21 20L21 21L22 21L22 23L23 23L23 24L24 24L24 25L22 25L22 26L21 26L21 27L22 27L22 26L24 26L24 27L25 27L25 28L23 28L23 30L24 30L24 32L25 32L25 33L23 33L23 34L24 34L24 36L23 36L23 37L24 37L24 38L21 38L21 37L19 37L19 36L20 36L20 35L19 35L19 34L20 34L20 32L23 32L23 31L20 31L20 32L19 32L19 31L17 31L17 32L16 32L16 33L17 33L17 35L19 35L19 36L17 36L17 37L19 37L19 38L20 38L20 39L19 39L19 40L17 40L17 41L19 41L19 42L18 42L18 43L15 43L15 44L18 44L18 45L17 45L17 47L18 47L18 48L17 48L17 50L16 50L16 51L18 51L18 52L17 52L17 53L16 53L16 52L14 52L14 53L16 53L16 54L15 54L15 55L16 55L16 56L17 56L17 57L20 57L20 56L19 56L19 55L20 55L20 54L19 54L19 53L20 53L20 52L23 52L23 51L22 51L22 50L26 50L26 52L24 52L24 53L23 53L23 54L22 54L22 55L23 55L23 56L24 56L24 57L26 57L26 56L24 56L24 55L23 55L23 54L24 54L24 53L27 53L27 54L30 54L30 53L31 53L31 51L32 51L32 52L33 52L33 53L32 53L32 54L31 54L31 56L30 56L30 55L29 55L29 56L27 56L27 57L29 57L29 56L30 56L30 57L31 57L31 56L35 56L35 57L39 57L39 56L37 56L37 55L40 55L40 56L42 56L42 55L44 55L44 54L45 54L45 55L48 55L48 56L50 56L50 57L52 57L52 55L51 55L51 53L52 53L52 54L53 54L53 55L54 55L54 56L53 56L53 57L54 57L54 56L55 56L55 57L56 57L56 56L55 56L55 54L53 54L53 52L54 52L54 53L55 53L55 52L56 52L56 53L57 53L57 52L56 52L56 50L57 50L57 48L56 48L56 46L57 46L57 43L56 43L56 42L55 42L55 39L57 39L57 35L56 35L56 33L57 33L57 32L56 32L56 30L57 30L57 27L56 27L56 26L57 26L57 25L56 25L56 22L57 22L57 21L56 21L56 20L57 20L57 19L56 19L56 18L57 18L57 17L56 17L56 16L57 16L57 15L56 15L56 14L57 14L57 12L56 12L56 8L55 8L55 10L54 10L54 11L52 11L52 10L53 10L53 9L54 9L54 8L53 8L53 9L52 9L52 8L51 8L51 9L52 9L52 10L49 10L49 9L50 9L50 8L49 8L49 9L48 9L48 8L47 8L47 9L48 9L48 10L44 10L44 8L45 8L45 9L46 9L46 8L45 8L45 6L46 6L46 7L47 7L47 5L48 5L48 0L46 0L46 1L45 1L45 2L44 2L44 3L43 3L43 4L40 4L40 5L39 5L39 6L38 6L38 7L37 7L37 5L38 5L38 4L37 4L37 3L42 3L42 2L43 2L43 0L41 0L41 1L40 1L40 0L39 0L39 1L38 1L38 0L37 0L37 1L38 1L38 2L37 2L37 3L36 3L36 0L35 0L35 1L33 1L33 0L32 0L32 1L31 1L31 0L29 0L29 1L25 1L25 0L23 0L23 2L28 2L28 3L27 3L27 4L26 4L26 3L23 3L23 4L19 4L19 3L20 3L20 2L21 2L21 3L22 3L22 2L21 2L21 1L22 1L22 0L21 0L21 1L20 1L20 0L17 0L17 1L20 1L20 2L16 2L16 1L14 1L14 0L12 0L12 1L11 1L11 2L12 2L12 1L14 1L14 2L13 2L13 3L11 3L11 4L9 4L9 3L10 3L10 0ZM29 1L29 3L28 3L28 4L31 4L31 8L32 8L32 10L31 10L31 11L29 11L29 9L28 9L28 10L27 10L27 11L26 11L26 12L25 12L25 10L24 10L24 12L25 12L25 13L26 13L26 17L25 17L25 16L24 16L24 15L25 15L25 14L23 14L23 13L22 13L22 12L21 12L21 11L22 11L22 10L23 10L23 8L24 8L24 6L23 6L23 5L24 5L24 4L23 4L23 5L21 5L21 7L22 7L22 8L19 8L19 9L16 9L16 8L17 8L17 7L18 7L18 6L19 6L19 7L20 7L20 5L19 5L19 4L18 4L18 3L15 3L15 2L14 2L14 4L12 4L12 6L11 6L11 5L10 5L10 6L11 6L11 7L12 7L12 8L10 8L10 9L8 9L8 10L7 10L7 11L5 11L5 12L4 12L4 10L3 10L3 9L1 9L1 10L2 10L2 11L3 11L3 12L2 12L2 13L3 13L3 15L2 15L2 16L4 16L4 15L5 15L5 13L6 13L6 14L7 14L7 13L8 13L8 16L7 16L7 15L6 15L6 16L7 16L7 17L4 17L4 19L3 19L3 21L5 21L5 18L8 18L8 19L6 19L6 20L7 20L7 21L6 21L6 22L7 22L7 23L5 23L5 24L7 24L7 25L6 25L6 26L9 26L9 25L10 25L10 24L12 24L12 25L11 25L11 26L12 26L12 25L14 25L14 24L13 24L13 23L12 23L12 22L13 22L13 21L12 21L12 22L11 22L11 23L9 23L9 25L8 25L8 22L7 22L7 21L8 21L8 19L9 19L9 21L11 21L11 20L13 20L13 19L12 19L12 18L13 18L13 17L11 17L11 19L9 19L9 17L8 17L8 16L9 16L9 14L10 14L10 15L11 15L11 14L12 14L12 16L14 16L14 17L15 17L15 18L16 18L16 19L17 19L17 20L16 20L16 21L17 21L17 20L20 20L20 19L21 19L21 20L22 20L22 21L24 21L24 22L23 22L23 23L24 23L24 24L25 24L25 25L26 25L26 26L25 26L25 27L26 27L26 26L27 26L27 25L29 25L29 24L28 24L28 22L29 22L29 23L30 23L30 22L29 22L29 21L31 21L31 24L32 24L32 26L31 26L31 27L32 27L32 29L33 29L33 30L32 30L32 34L33 34L33 36L32 36L32 37L33 37L33 38L35 38L35 36L37 36L37 37L38 37L38 39L35 39L35 40L33 40L33 39L29 39L29 38L31 38L31 37L29 37L29 36L30 36L30 34L29 34L29 33L31 33L31 31L30 31L30 32L29 32L29 31L28 31L28 32L26 32L26 33L25 33L25 35L26 35L26 36L27 36L27 37L25 37L25 40L24 40L24 39L22 39L22 40L20 40L20 42L19 42L19 43L20 43L20 44L19 44L19 45L20 45L20 48L21 48L21 49L20 49L20 50L21 50L21 49L23 49L23 47L25 47L25 48L24 48L24 49L25 49L25 48L28 48L28 47L29 47L29 48L30 48L30 47L29 47L29 46L30 46L30 45L31 45L31 44L30 44L30 43L29 43L29 42L32 42L32 43L33 43L33 44L32 44L32 47L31 47L31 48L32 48L32 49L31 49L31 50L32 50L32 51L35 51L35 50L36 50L36 52L38 52L38 53L37 53L37 54L40 54L40 53L41 53L41 52L42 52L42 53L43 53L43 54L44 54L44 53L45 53L45 54L48 54L48 50L47 50L47 49L48 49L48 48L49 48L49 47L51 47L51 48L53 48L53 47L54 47L54 46L53 46L53 43L54 43L54 42L53 42L53 41L51 41L51 42L50 42L50 43L49 43L49 42L48 42L48 41L49 41L49 39L47 39L47 38L49 38L49 36L50 36L50 39L52 39L52 40L53 40L53 39L54 39L54 38L53 38L53 35L55 35L55 34L54 34L54 33L52 33L52 31L51 31L51 33L52 33L52 34L50 34L50 32L49 32L49 31L48 31L48 28L47 28L47 29L46 29L46 30L47 30L47 31L48 31L48 32L47 32L47 33L45 33L45 32L43 32L43 31L45 31L45 28L46 28L46 27L47 27L47 25L46 25L46 24L45 24L45 23L46 23L46 22L47 22L47 23L48 23L48 24L49 24L49 25L50 25L50 26L51 26L51 25L54 25L54 24L53 24L53 23L55 23L55 22L56 22L56 21L55 21L55 20L56 20L56 19L55 19L55 20L53 20L53 19L52 19L52 18L51 18L51 17L53 17L53 18L55 18L55 16L53 16L53 15L54 15L54 14L53 14L53 15L52 15L52 16L51 16L51 15L50 15L50 14L51 14L51 12L50 12L50 11L49 11L49 12L45 12L45 11L42 11L42 10L41 10L41 9L43 9L43 7L44 7L44 6L45 6L45 4L46 4L46 5L47 5L47 3L44 3L44 6L43 6L43 5L40 5L40 6L39 6L39 7L40 7L40 8L39 8L39 9L38 9L38 8L37 8L37 7L36 7L36 5L37 5L37 4L36 4L36 5L35 5L35 2L34 2L34 3L32 3L32 2L33 2L33 1L32 1L32 2L30 2L30 1ZM46 1L46 2L47 2L47 1ZM31 3L31 4L32 4L32 5L34 5L34 7L33 7L33 6L32 6L32 7L33 7L33 9L34 9L34 8L35 8L35 9L37 9L37 10L36 10L36 12L35 12L35 13L36 13L36 14L32 14L32 12L33 12L33 13L34 13L34 12L33 12L33 10L32 10L32 11L31 11L31 13L30 13L30 14L29 14L29 13L28 13L28 12L29 12L29 11L27 11L27 12L26 12L26 13L28 13L28 14L29 14L29 16L28 16L28 15L27 15L27 16L28 16L28 17L27 17L27 18L28 18L28 19L29 19L29 20L30 20L30 18L31 18L31 21L32 21L32 20L34 20L34 21L35 21L35 23L34 23L34 22L33 22L33 23L32 23L32 24L33 24L33 25L37 25L37 26L38 26L38 24L41 24L41 25L42 25L42 26L40 26L40 25L39 25L39 26L40 26L40 27L41 27L41 28L42 28L42 26L44 26L44 27L43 27L43 29L40 29L40 30L44 30L44 28L45 28L45 26L44 26L44 24L43 24L43 23L44 23L44 20L45 20L45 19L46 19L46 20L47 20L47 22L49 22L49 21L51 21L51 22L50 22L50 23L53 23L53 21L51 21L51 20L52 20L52 19L50 19L50 17L51 17L51 16L50 16L50 15L49 15L49 14L50 14L50 12L49 12L49 13L47 13L47 14L44 14L44 15L42 15L42 16L41 16L41 15L39 15L39 14L43 14L43 13L44 13L44 12L43 12L43 13L39 13L39 12L41 12L41 10L40 10L40 9L39 9L39 10L38 10L38 9L37 9L37 8L35 8L35 5L34 5L34 4L32 4L32 3ZM15 4L15 5L14 5L14 7L13 7L13 6L12 6L12 7L13 7L13 9L14 9L14 7L15 7L15 8L16 8L16 7L17 7L17 6L18 6L18 4L17 4L17 6L16 6L16 7L15 7L15 5L16 5L16 4ZM25 4L25 8L26 8L26 4ZM27 5L27 8L30 8L30 5ZM22 6L22 7L23 7L23 6ZM28 6L28 7L29 7L29 6ZM40 6L40 7L41 7L41 6ZM42 6L42 7L43 7L43 6ZM48 6L48 7L49 7L49 6ZM11 9L11 10L8 10L8 11L10 11L10 14L11 14L11 13L12 13L12 14L13 14L13 15L14 15L14 16L16 16L16 13L17 13L17 16L18 16L18 17L17 17L17 18L18 18L18 19L19 19L19 18L20 18L20 16L21 16L21 17L22 17L22 18L24 18L24 19L22 19L22 20L24 20L24 21L25 21L25 22L26 22L26 23L25 23L25 24L27 24L27 21L25 21L25 20L26 20L26 19L25 19L25 17L22 17L22 16L21 16L21 15L23 15L23 14L22 14L22 13L21 13L21 15L19 15L19 14L20 14L20 12L19 12L19 10L20 10L20 9L19 9L19 10L18 10L18 11L17 11L17 12L16 12L16 11L15 11L15 10L12 10L12 9ZM21 9L21 10L22 10L22 9ZM11 10L11 11L12 11L12 10ZM37 10L37 11L38 11L38 10ZM39 10L39 11L40 11L40 10ZM13 11L13 12L12 12L12 13L13 13L13 14L15 14L15 13L16 13L16 12L15 12L15 13L13 13L13 12L14 12L14 11ZM3 12L3 13L4 13L4 12ZM6 12L6 13L7 13L7 12ZM8 12L8 13L9 13L9 12ZM17 12L17 13L18 13L18 12ZM52 12L52 13L53 13L53 12ZM54 12L54 13L55 13L55 14L56 14L56 12ZM38 13L38 14L37 14L37 15L35 15L35 16L33 16L33 15L32 15L32 14L30 14L30 15L31 15L31 16L32 16L32 17L33 17L33 18L32 18L32 19L33 19L33 18L34 18L34 20L35 20L35 19L36 19L36 20L37 20L37 19L39 19L39 17L41 17L41 16L39 16L39 15L38 15L38 14L39 14L39 13ZM44 15L44 18L43 18L43 19L42 19L42 18L41 18L41 19L42 19L42 20L44 20L44 18L46 18L46 19L47 19L47 20L48 20L48 21L49 21L49 18L47 18L47 17L49 17L49 15L48 15L48 16L47 16L47 15ZM35 16L35 17L37 17L37 18L38 18L38 17L39 17L39 16L38 16L38 17L37 17L37 16ZM42 16L42 17L43 17L43 16ZM2 17L2 18L1 18L1 20L2 20L2 18L3 18L3 17ZM18 17L18 18L19 18L19 17ZM38 20L38 22L39 22L39 23L40 23L40 22L39 22L39 21L41 21L41 20ZM45 21L45 22L46 22L46 21ZM41 22L41 23L42 23L42 22ZM37 23L37 24L38 24L38 23ZM55 25L55 26L56 26L56 25ZM32 26L32 27L33 27L33 28L35 28L35 30L33 30L33 31L34 31L34 32L33 32L33 34L34 34L34 36L35 36L35 34L37 34L37 35L38 35L38 37L40 37L40 38L43 38L43 37L44 37L44 38L45 38L45 39L38 39L38 40L35 40L35 42L37 42L37 43L36 43L36 44L35 44L35 43L34 43L34 42L33 42L33 41L32 41L32 40L28 40L28 39L27 39L27 38L28 38L28 37L27 37L27 38L26 38L26 40L27 40L27 41L26 41L26 42L27 42L27 41L32 41L32 42L33 42L33 43L34 43L34 45L36 45L36 48L35 48L35 49L36 49L36 50L38 50L38 52L39 52L39 51L40 51L40 52L41 52L41 50L42 50L42 51L43 51L43 53L44 53L44 52L45 52L45 51L44 51L44 48L43 48L43 47L45 47L45 49L47 49L47 48L48 48L48 47L49 47L49 46L51 46L51 47L53 47L53 46L51 46L51 45L52 45L52 44L51 44L51 43L53 43L53 42L51 42L51 43L50 43L50 44L51 44L51 45L49 45L49 44L48 44L48 45L47 45L47 43L48 43L48 42L47 42L47 43L46 43L46 44L45 44L45 45L47 45L47 46L44 46L44 40L45 40L45 41L47 41L47 39L46 39L46 38L45 38L45 37L44 37L44 36L45 36L45 35L44 35L44 33L43 33L43 32L41 32L41 33L39 33L39 34L40 34L40 35L38 35L38 33L37 33L37 32L35 32L35 31L36 31L36 29L38 29L38 28L39 28L39 27L36 27L36 26L34 26L34 27L33 27L33 26ZM53 26L53 27L54 27L54 26ZM5 27L5 30L8 30L8 27ZM27 27L27 30L30 30L30 27ZM49 27L49 30L52 30L52 27ZM55 27L55 28L54 28L54 29L53 29L53 30L54 30L54 29L55 29L55 28L56 28L56 27ZM6 28L6 29L7 29L7 28ZM21 28L21 29L22 29L22 28ZM25 28L25 29L26 29L26 28ZM28 28L28 29L29 29L29 28ZM50 28L50 29L51 29L51 28ZM2 29L2 31L1 31L1 33L3 33L3 34L4 34L4 33L5 33L5 32L7 32L7 33L6 33L6 34L8 34L8 32L7 32L7 31L5 31L5 32L4 32L4 30L3 30L3 29ZM9 29L9 30L10 30L10 29ZM38 30L38 32L39 32L39 30ZM3 32L3 33L4 33L4 32ZM28 32L28 33L29 33L29 32ZM34 32L34 34L35 34L35 32ZM48 32L48 33L49 33L49 32ZM55 32L55 33L56 33L56 32ZM21 33L21 35L22 35L22 33ZM26 34L26 35L27 35L27 34ZM42 34L42 35L41 35L41 36L40 36L40 37L43 37L43 36L44 36L44 35L43 35L43 34ZM48 34L48 35L47 35L47 36L48 36L48 35L50 35L50 36L51 36L51 37L52 37L52 35L53 35L53 34L52 34L52 35L50 35L50 34ZM11 36L11 37L13 37L13 36ZM55 36L55 37L56 37L56 36ZM15 37L15 38L16 38L16 37ZM0 38L0 43L2 43L2 44L1 44L1 46L0 46L0 48L5 48L5 47L7 47L7 46L5 46L5 45L8 45L8 43L9 43L9 44L10 44L10 45L11 45L11 44L10 44L10 41L12 41L12 40L10 40L10 41L8 41L8 42L6 42L6 41L7 41L7 40L6 40L6 39L8 39L8 38L5 38L5 41L4 41L4 39L3 39L3 40L1 40L1 39L2 39L2 38ZM52 38L52 39L53 39L53 38ZM15 39L15 40L16 40L16 39ZM13 40L13 41L14 41L14 42L13 42L13 43L12 43L12 42L11 42L11 43L12 43L12 44L13 44L13 45L12 45L12 46L10 46L10 47L12 47L12 48L9 48L9 47L8 47L8 51L10 51L10 52L13 52L13 51L10 51L10 49L12 49L12 48L13 48L13 47L12 47L12 46L14 46L14 44L13 44L13 43L14 43L14 42L15 42L15 41L14 41L14 40ZM38 40L38 42L39 42L39 41L41 41L41 40ZM2 41L2 42L3 42L3 43L4 43L4 44L7 44L7 43L4 43L4 41ZM21 41L21 42L22 42L22 43L21 43L21 44L20 44L20 45L21 45L21 47L23 47L23 46L22 46L22 45L24 45L24 46L25 46L25 45L24 45L24 43L23 43L23 42L25 42L25 41L23 41L23 42L22 42L22 41ZM41 42L41 43L40 43L40 44L39 44L39 45L38 45L38 46L39 46L39 47L38 47L38 48L37 48L37 49L38 49L38 50L41 50L41 48L42 48L42 49L43 49L43 48L42 48L42 47L43 47L43 46L41 46L41 48L39 48L39 47L40 47L40 45L41 45L41 44L42 44L42 42ZM25 43L25 44L27 44L27 43ZM28 43L28 45L26 45L26 47L27 47L27 46L28 46L28 45L29 45L29 43ZM55 43L55 44L54 44L54 45L55 45L55 46L56 46L56 43ZM21 44L21 45L22 45L22 44ZM3 45L3 47L5 47L5 46L4 46L4 45ZM1 46L1 47L2 47L2 46ZM33 46L33 49L32 49L32 50L33 50L33 49L34 49L34 47L35 47L35 46ZM47 46L47 47L48 47L48 46ZM6 48L6 49L7 49L7 48ZM15 48L15 49L13 49L13 50L14 50L14 51L15 51L15 49L16 49L16 48ZM38 48L38 49L39 49L39 48ZM55 48L55 50L54 50L54 51L55 51L55 50L56 50L56 48ZM27 49L27 52L30 52L30 49ZM49 49L49 52L52 52L52 49ZM18 50L18 51L19 51L19 52L20 52L20 51L19 51L19 50ZM28 50L28 51L29 51L29 50ZM50 50L50 51L51 51L51 50ZM46 51L46 52L47 52L47 51ZM8 52L8 57L9 57L9 56L11 56L11 57L13 57L13 56L14 56L14 54L13 54L13 53L12 53L12 54L11 54L11 53L9 53L9 52ZM33 53L33 55L35 55L35 56L36 56L36 54L35 54L35 53ZM9 54L9 55L11 55L11 56L12 56L12 55L11 55L11 54ZM18 54L18 55L19 55L19 54ZM25 54L25 55L26 55L26 54ZM41 54L41 55L42 55L42 54ZM50 55L50 56L51 56L51 55ZM43 56L43 57L44 57L44 56ZM46 56L46 57L47 57L47 56ZM0 0L0 7L7 7L7 0ZM1 1L1 6L6 6L6 1ZM2 2L2 5L5 5L5 2ZM50 0L50 7L57 7L57 0ZM51 1L51 6L56 6L56 1ZM52 2L52 5L55 5L55 2ZM0 50L0 57L7 57L7 50ZM1 51L1 56L6 56L6 51ZM2 52L2 55L5 55L5 52Z" fill="#000000"/></g></g></svg>
