<?xml version="1.0" encoding="UTF-8"?>
<svg xmlns="http://www.w3.org/2000/svg" version="1.1" width="300" height="300" viewBox="0 0 300 300"><rect x="0" y="0" width="300" height="300" fill="#fefefe"/><g transform="scale(4.615)"><g transform="translate(4,4)"><path fill-rule="evenodd" d="M8 0L8 1L10 1L10 5L9 5L9 2L8 2L8 5L9 5L9 6L8 6L8 7L9 7L9 8L8 8L8 9L9 9L9 10L6 10L6 9L7 9L7 8L6 8L6 9L4 9L4 8L0 8L0 9L4 9L4 10L1 10L1 11L0 11L0 12L1 12L1 11L2 11L2 12L3 12L3 11L4 11L4 12L6 12L6 13L2 13L2 14L1 14L1 15L2 15L2 16L0 16L0 19L1 19L1 20L0 20L0 21L1 21L1 20L2 20L2 21L4 21L4 22L3 22L3 24L2 24L2 23L1 23L1 22L0 22L0 26L1 26L1 27L0 27L0 29L1 29L1 31L0 31L0 35L1 35L1 36L2 36L2 35L3 35L3 34L2 34L2 28L3 28L3 27L2 27L2 25L4 25L4 31L5 31L5 32L3 32L3 33L5 33L5 34L6 34L6 35L7 35L7 34L6 34L6 33L7 33L7 32L8 32L8 34L10 34L10 35L13 35L13 36L9 36L9 35L8 35L8 36L5 36L5 35L4 35L4 36L3 36L3 37L2 37L2 38L1 38L1 37L0 37L0 39L3 39L3 40L4 40L4 46L5 46L5 47L3 47L3 46L2 46L2 45L3 45L3 44L1 44L1 43L2 43L2 42L1 42L1 41L2 41L2 40L1 40L1 41L0 41L0 42L1 42L1 43L0 43L0 48L5 48L5 47L7 47L7 46L9 46L9 47L11 47L11 49L10 49L10 50L9 50L9 49L8 49L8 48L6 48L6 49L8 49L8 50L9 50L9 52L10 52L10 53L8 53L8 57L11 57L11 56L13 56L13 53L14 53L14 52L15 52L15 51L13 51L13 52L12 52L12 50L14 50L14 49L12 49L12 48L14 48L14 47L15 47L15 50L16 50L16 51L17 51L17 52L18 52L18 51L17 51L17 50L21 50L21 49L19 49L19 48L18 48L18 47L19 47L19 46L20 46L20 45L21 45L21 46L22 46L22 47L21 47L21 48L23 48L23 49L22 49L22 51L19 51L19 54L18 54L18 53L17 53L17 54L16 54L16 53L15 53L15 54L14 54L14 56L16 56L16 57L18 57L18 56L19 56L19 55L20 55L20 57L23 57L23 56L22 56L22 55L23 55L23 54L25 54L25 55L24 55L24 57L25 57L25 55L26 55L26 56L28 56L28 55L26 55L26 54L25 54L25 53L29 53L29 54L31 54L31 55L30 55L30 56L31 56L31 57L32 57L32 55L34 55L34 56L33 56L33 57L36 57L36 55L37 55L37 54L36 54L36 53L33 53L33 50L34 50L34 51L35 51L35 52L36 52L36 51L37 51L37 52L39 52L39 54L38 54L38 57L41 57L41 56L42 56L42 57L43 57L43 55L44 55L44 54L47 54L47 55L46 55L46 56L47 56L47 57L48 57L48 56L47 56L47 55L49 55L49 57L51 57L51 54L52 54L52 53L54 53L54 52L56 52L56 53L55 53L55 54L53 54L53 56L52 56L52 57L55 57L55 56L54 56L54 55L55 55L55 54L56 54L56 53L57 53L57 52L56 52L56 49L57 49L57 48L56 48L56 49L55 49L55 48L54 48L54 46L55 46L55 47L57 47L57 45L56 45L56 46L55 46L55 44L56 44L56 41L57 41L57 40L56 40L56 41L55 41L55 42L54 42L54 40L55 40L55 38L56 38L56 39L57 39L57 38L56 38L56 37L55 37L55 36L56 36L56 35L57 35L57 34L56 34L56 33L57 33L57 31L56 31L56 30L57 30L57 28L56 28L56 24L55 24L55 27L53 27L53 25L52 25L52 26L51 26L51 24L54 24L54 23L53 23L53 20L50 20L50 19L49 19L49 18L48 18L48 17L47 17L47 16L48 16L48 14L47 14L47 15L45 15L45 14L46 14L46 13L44 13L44 10L45 10L45 11L48 11L48 12L49 12L49 15L50 15L50 16L51 16L51 17L52 17L52 16L53 16L53 17L54 17L54 18L52 18L52 19L55 19L55 17L56 17L56 18L57 18L57 15L55 15L55 14L54 14L54 10L53 10L53 9L55 9L55 12L56 12L56 11L57 11L57 10L56 10L56 9L57 9L57 8L56 8L56 9L55 9L55 8L52 8L52 9L51 9L51 10L53 10L53 13L52 13L52 12L51 12L51 11L49 11L49 10L50 10L50 8L49 8L49 9L48 9L48 8L46 8L46 7L47 7L47 5L48 5L48 0L45 0L45 1L44 1L44 2L41 2L41 1L43 1L43 0L41 0L41 1L40 1L40 0L39 0L39 1L40 1L40 2L41 2L41 4L38 4L38 3L37 3L37 1L38 1L38 0L37 0L37 1L36 1L36 0L35 0L35 1L34 1L34 2L33 2L33 1L32 1L32 0L29 0L29 2L28 2L28 1L27 1L27 3L30 3L30 4L26 4L26 1L25 1L25 0L23 0L23 1L22 1L22 0L21 0L21 1L20 1L20 0L19 0L19 2L22 2L22 3L23 3L23 5L22 5L22 4L21 4L21 5L20 5L20 4L19 4L19 3L17 3L17 1L15 1L15 2L16 2L16 3L17 3L17 5L15 5L15 4L14 4L14 3L13 3L13 2L11 2L11 1L14 1L14 0ZM23 1L23 3L24 3L24 2L25 2L25 1ZM35 1L35 2L36 2L36 1ZM45 1L45 3L44 3L44 4L46 4L46 5L43 5L43 4L41 4L41 7L40 7L40 5L36 5L36 4L35 4L35 3L34 3L34 5L33 5L33 3L32 3L32 4L31 4L31 5L32 5L32 6L31 6L31 9L32 9L32 10L31 10L31 12L30 12L30 11L29 11L29 9L28 9L28 10L26 10L26 11L25 11L25 10L24 10L24 9L21 9L21 8L22 8L22 5L21 5L21 7L20 7L20 6L19 6L19 7L20 7L20 8L18 8L18 9L17 9L17 7L18 7L18 5L17 5L17 7L16 7L16 6L15 6L15 5L14 5L14 4L13 4L13 5L14 5L14 6L13 6L13 8L12 8L12 6L11 6L11 7L10 7L10 6L9 6L9 7L10 7L10 8L9 8L9 9L13 9L13 10L14 10L14 11L15 11L15 15L16 15L16 17L18 17L18 21L17 21L17 23L16 23L16 19L17 19L17 18L15 18L15 17L13 17L13 15L14 15L14 13L13 13L13 12L12 12L12 10L10 10L10 11L8 11L8 14L9 14L9 15L8 15L8 17L6 17L6 16L7 16L7 15L6 15L6 16L5 16L5 15L4 15L4 14L3 14L3 15L4 15L4 17L3 17L3 18L2 18L2 17L1 17L1 19L2 19L2 20L3 20L3 18L5 18L5 17L6 17L6 18L7 18L7 19L4 19L4 20L5 20L5 22L7 22L7 21L8 21L8 23L6 23L6 24L8 24L8 23L11 23L11 24L12 24L12 23L11 23L11 21L12 21L12 22L13 22L13 21L12 21L12 20L13 20L13 19L15 19L15 20L14 20L14 23L13 23L13 24L15 24L15 25L14 25L14 26L13 26L13 25L11 25L11 26L10 26L10 25L9 25L9 26L10 26L10 27L9 27L9 29L10 29L10 27L11 27L11 29L12 29L12 28L13 28L13 27L14 27L14 28L16 28L16 27L14 27L14 26L15 26L15 25L16 25L16 26L17 26L17 24L19 24L19 25L18 25L18 26L19 26L19 25L20 25L20 24L21 24L21 23L22 23L22 22L23 22L23 21L24 21L24 22L25 22L25 25L24 25L24 24L22 24L22 25L23 25L23 26L25 26L25 25L29 25L29 26L31 26L31 25L30 25L30 24L31 24L31 23L32 23L32 22L34 22L34 23L33 23L33 24L32 24L32 25L33 25L33 24L35 24L35 23L36 23L36 24L37 24L37 22L35 22L35 21L33 21L33 20L34 20L34 19L33 19L33 17L31 17L31 16L29 16L29 15L28 15L28 16L29 16L29 17L24 17L24 18L23 18L23 16L25 16L25 15L26 15L26 16L27 16L27 14L26 14L26 12L28 12L28 13L30 13L30 14L31 14L31 15L32 15L32 16L33 16L33 15L35 15L35 16L34 16L34 17L35 17L35 20L36 20L36 21L37 21L37 20L40 20L40 19L39 19L39 18L41 18L41 20L43 20L43 21L44 21L44 22L47 22L47 20L48 20L48 21L49 21L49 23L52 23L52 22L51 22L51 21L50 21L50 20L49 20L49 19L48 19L48 18L47 18L47 19L46 19L46 16L45 16L45 15L44 15L44 16L45 16L45 17L42 17L42 14L43 14L43 12L42 12L42 11L43 11L43 10L44 10L44 9L45 9L45 10L47 10L47 9L45 9L45 8L44 8L44 6L45 6L45 7L46 7L46 5L47 5L47 3L46 3L46 2L47 2L47 1ZM30 2L30 3L31 3L31 2ZM11 3L11 5L12 5L12 3ZM24 4L24 6L23 6L23 7L24 7L24 8L25 8L25 9L26 9L26 6L25 6L25 5L26 5L26 4ZM27 5L27 8L30 8L30 5ZM14 6L14 8L15 8L15 11L16 11L16 8L15 8L15 6ZM24 6L24 7L25 7L25 6ZM28 6L28 7L29 7L29 6ZM32 6L32 8L33 8L33 6ZM34 6L34 9L36 9L36 8L37 8L37 6L36 6L36 7L35 7L35 6ZM38 6L38 7L39 7L39 9L40 9L40 11L38 11L38 9L37 9L37 11L36 11L36 10L35 10L35 11L34 11L34 10L33 10L33 14L32 14L32 15L33 15L33 14L34 14L34 12L35 12L35 14L36 14L36 15L39 15L39 17L40 17L40 16L41 16L41 14L40 14L40 11L41 11L41 10L43 10L43 8L40 8L40 7L39 7L39 6ZM42 6L42 7L43 7L43 6ZM48 6L48 7L49 7L49 6ZM18 9L18 10L17 10L17 12L16 12L16 13L17 13L17 12L18 12L18 13L19 13L19 14L16 14L16 15L17 15L17 16L19 16L19 17L21 17L21 18L19 18L19 19L20 19L20 20L21 20L21 22L19 22L19 21L18 21L18 22L19 22L19 24L20 24L20 23L21 23L21 22L22 22L22 21L23 21L23 18L22 18L22 17L21 17L21 11L23 11L23 12L22 12L22 13L23 13L23 12L25 12L25 11L23 11L23 10L20 10L20 9ZM18 10L18 12L19 12L19 13L20 13L20 12L19 12L19 10ZM6 11L6 12L7 12L7 11ZM35 11L35 12L36 12L36 11ZM37 11L37 12L38 12L38 11ZM11 12L11 14L10 14L10 13L9 13L9 14L10 14L10 15L9 15L9 17L10 17L10 18L11 18L11 20L12 20L12 16L10 16L10 15L11 15L11 14L12 14L12 12ZM31 12L31 13L32 13L32 12ZM50 12L50 13L51 13L51 15L54 15L54 14L52 14L52 13L51 13L51 12ZM6 13L6 14L7 14L7 13ZM23 14L23 15L24 15L24 14ZM19 15L19 16L20 16L20 15ZM29 17L29 18L28 18L28 19L25 19L25 18L24 18L24 19L25 19L25 22L27 22L27 23L26 23L26 24L28 24L28 21L29 21L29 24L30 24L30 22L31 22L31 21L29 21L29 20L28 20L28 19L30 19L30 17ZM36 17L36 18L37 18L37 17ZM41 17L41 18L42 18L42 19L43 19L43 18L42 18L42 17ZM8 18L8 19L7 19L7 20L6 20L6 21L7 21L7 20L8 20L8 21L9 21L9 22L10 22L10 21L9 21L9 20L10 20L10 19L9 19L9 18ZM31 18L31 20L32 20L32 18ZM44 18L44 19L45 19L45 18ZM21 19L21 20L22 20L22 19ZM36 19L36 20L37 20L37 19ZM26 20L26 21L27 21L27 20ZM45 20L45 21L46 21L46 20ZM54 20L54 21L56 21L56 22L55 22L55 23L57 23L57 20ZM38 21L38 22L39 22L39 21ZM41 22L41 23L39 23L39 24L38 24L38 25L39 25L39 26L38 26L38 27L39 27L39 26L40 26L40 29L38 29L38 30L37 30L37 27L36 27L36 28L34 28L34 29L36 29L36 30L35 30L35 31L34 31L34 32L35 32L35 31L37 31L37 32L36 32L36 33L37 33L37 32L38 32L38 34L39 34L39 31L40 31L40 32L41 32L41 31L43 31L43 29L42 29L42 30L40 30L40 29L41 29L41 26L43 26L43 27L42 27L42 28L44 28L44 26L43 26L43 25L41 25L41 24L42 24L42 23L43 23L43 22ZM15 23L15 24L16 24L16 23ZM44 23L44 25L46 25L46 26L45 26L45 30L46 30L46 26L47 26L47 27L48 27L48 26L49 26L49 24L48 24L48 23ZM47 24L47 25L48 25L48 24ZM6 25L6 26L8 26L8 25ZM34 25L34 27L35 27L35 25ZM40 25L40 26L41 26L41 25ZM11 26L11 27L13 27L13 26ZM20 26L20 27L17 27L17 30L16 30L16 29L14 29L14 30L16 30L16 34L17 34L17 36L15 36L15 37L13 37L13 38L10 38L10 37L9 37L9 36L8 36L8 37L4 37L4 38L10 38L10 39L14 39L14 40L15 40L15 41L13 41L13 40L11 40L11 41L10 41L10 42L11 42L11 43L12 43L12 46L13 46L13 47L14 47L14 46L16 46L16 47L17 47L17 45L19 45L19 44L22 44L22 46L24 46L24 45L23 45L23 44L22 44L22 42L21 42L21 40L17 40L17 39L18 39L18 38L19 38L19 37L20 37L20 38L21 38L21 37L22 37L22 38L23 38L23 36L26 36L26 35L27 35L27 34L28 34L28 35L29 35L29 36L27 36L27 37L24 37L24 39L22 39L22 41L23 41L23 42L24 42L24 44L25 44L25 43L26 43L26 45L25 45L25 47L26 47L26 48L27 48L27 47L29 47L29 48L31 48L31 49L33 49L33 48L32 48L32 46L31 46L31 45L33 45L33 47L34 47L34 46L35 46L35 44L36 44L36 45L38 45L38 47L35 47L35 48L34 48L34 50L35 50L35 48L37 48L37 49L36 49L36 50L37 50L37 49L38 49L38 48L39 48L39 49L40 49L40 50L39 50L39 52L40 52L40 54L41 54L41 55L40 55L40 56L41 56L41 55L42 55L42 54L43 54L43 51L46 51L46 50L47 50L47 52L48 52L48 48L47 48L47 47L46 47L46 46L47 46L47 45L48 45L48 47L49 47L49 48L50 48L50 46L51 46L51 48L52 48L52 46L53 46L53 44L55 44L55 43L54 43L54 42L53 42L53 43L52 43L52 44L51 44L51 42L50 42L50 41L52 41L52 40L53 40L53 39L54 39L54 38L53 38L53 36L52 36L52 35L51 35L51 36L49 36L49 37L48 37L48 35L49 35L49 34L50 34L50 33L49 33L49 32L48 32L48 30L47 30L47 31L44 31L44 34L45 34L45 36L44 36L44 37L43 37L43 35L42 35L42 34L41 34L41 35L37 35L37 36L40 36L40 37L41 37L41 39L40 39L40 41L37 41L37 40L38 40L38 39L39 39L39 38L38 38L38 39L37 39L37 37L34 37L34 38L33 38L33 36L36 36L36 35L35 35L35 33L33 33L33 31L32 31L32 30L33 30L33 29L31 29L31 34L30 34L30 35L29 35L29 33L30 33L30 32L28 32L28 31L23 31L23 30L21 30L21 29L24 29L24 30L26 30L26 28L24 28L24 27L22 27L22 26ZM1 27L1 28L2 28L2 27ZM5 27L5 30L8 30L8 27ZM20 27L20 29L21 29L21 27ZM27 27L27 30L30 30L30 27ZM31 27L31 28L33 28L33 27ZM49 27L49 30L52 30L52 27ZM6 28L6 29L7 29L7 28ZM18 28L18 29L19 29L19 28ZM28 28L28 29L29 29L29 28ZM50 28L50 29L51 29L51 28ZM53 28L53 29L54 29L54 30L53 30L53 32L52 32L52 34L54 34L54 33L55 33L55 31L54 31L54 30L56 30L56 29L54 29L54 28ZM38 30L38 31L39 31L39 30ZM6 31L6 32L7 32L7 31ZM10 31L10 32L9 32L9 33L11 33L11 34L14 34L14 32L15 32L15 31L13 31L13 33L12 33L12 32L11 32L11 31ZM19 31L19 32L21 32L21 35L22 35L22 36L23 36L23 35L24 35L24 34L25 34L25 32L24 32L24 33L23 33L23 31L22 31L22 32L21 32L21 31ZM50 31L50 32L51 32L51 31ZM17 32L17 34L18 34L18 36L17 36L17 38L15 38L15 40L16 40L16 41L15 41L15 43L14 43L14 42L13 42L13 41L12 41L12 42L13 42L13 43L14 43L14 45L13 45L13 46L14 46L14 45L17 45L17 42L18 42L18 43L19 43L19 41L17 41L17 40L16 40L16 39L17 39L17 38L18 38L18 37L19 37L19 34L20 34L20 33L19 33L19 34L18 34L18 32ZM26 32L26 33L28 33L28 32ZM42 32L42 33L43 33L43 32ZM45 32L45 33L47 33L47 32ZM22 33L22 34L23 34L23 33ZM1 34L1 35L2 35L2 34ZM31 34L31 35L32 35L32 36L29 36L29 38L25 38L25 39L24 39L24 41L25 41L25 42L28 42L28 43L27 43L27 44L30 44L30 45L31 45L31 44L32 44L32 42L33 42L33 45L34 45L34 44L35 44L35 43L34 43L34 42L36 42L36 41L34 41L34 40L35 40L35 39L36 39L36 38L34 38L34 39L33 39L33 38L32 38L32 36L33 36L33 35L34 35L34 34ZM47 34L47 35L48 35L48 34ZM54 35L54 36L55 36L55 35ZM45 36L45 39L44 39L44 38L42 38L42 39L44 39L44 40L41 40L41 41L40 41L40 42L41 42L41 44L38 44L38 43L39 43L39 42L37 42L37 44L38 44L38 45L39 45L39 47L43 47L43 50L46 50L46 49L44 49L44 47L45 47L45 48L46 48L46 47L45 47L45 46L43 46L43 45L42 45L42 43L43 43L43 42L44 42L44 44L49 44L49 45L50 45L50 44L49 44L49 43L50 43L50 42L49 42L49 43L48 43L48 42L47 42L47 41L50 41L50 40L51 40L51 39L50 39L50 38L52 38L52 39L53 39L53 38L52 38L52 36L51 36L51 37L49 37L49 38L46 38L46 36ZM30 38L30 39L28 39L28 40L27 40L27 41L29 41L29 40L30 40L30 41L31 41L31 40L33 40L33 39L32 39L32 38ZM5 39L5 42L7 42L7 41L8 41L8 42L9 42L9 41L8 41L8 40L9 40L9 39L8 39L8 40L7 40L7 39ZM25 39L25 41L26 41L26 39ZM45 39L45 40L46 40L46 41L47 41L47 40L49 40L49 39L47 39L47 40L46 40L46 39ZM6 40L6 41L7 41L7 40ZM42 41L42 42L43 42L43 41ZM44 41L44 42L45 42L45 41ZM20 42L20 43L21 43L21 42ZM6 43L6 44L7 44L7 43ZM8 43L8 45L10 45L10 46L11 46L11 45L10 45L10 44L9 44L9 43ZM5 45L5 46L7 46L7 45ZM26 45L26 46L27 46L27 45ZM1 46L1 47L2 47L2 46ZM23 47L23 48L24 48L24 49L23 49L23 52L22 52L22 53L20 53L20 55L21 55L21 54L22 54L22 53L23 53L23 52L24 52L24 53L25 53L25 52L26 52L26 50L25 50L25 48L24 48L24 47ZM16 48L16 50L17 50L17 48ZM41 48L41 49L42 49L42 48ZM11 49L11 50L10 50L10 51L11 51L11 50L12 50L12 49ZM27 49L27 52L30 52L30 49ZM49 49L49 52L52 52L52 49ZM53 49L53 50L55 50L55 49ZM24 50L24 51L25 51L25 50ZM28 50L28 51L29 51L29 50ZM50 50L50 51L51 51L51 50ZM31 51L31 53L32 53L32 51ZM40 51L40 52L41 52L41 54L42 54L42 52L41 52L41 51ZM11 52L11 53L10 53L10 54L9 54L9 55L12 55L12 52ZM45 52L45 53L46 53L46 52ZM48 53L48 54L50 54L50 53ZM35 54L35 55L36 55L36 54ZM17 55L17 56L18 56L18 55ZM56 55L56 56L57 56L57 55ZM0 0L0 7L7 7L7 0ZM1 1L1 6L6 6L6 1ZM2 2L2 5L5 5L5 2ZM50 0L50 7L57 7L57 0ZM51 1L51 6L56 6L56 1ZM52 2L52 5L55 5L55 2ZM0 50L0 57L7 57L7 50ZM1 51L1 56L6 56L6 51ZM2 52L2 55L5 55L5 52Z" fill="#000000"/></g></g></svg>
