<?xml version="1.0" encoding="UTF-8"?>
<svg xmlns="http://www.w3.org/2000/svg" version="1.1" width="300" height="300" viewBox="0 0 300 300"><rect x="0" y="0" width="300" height="300" fill="#fefefe"/><g transform="scale(4.615)"><g transform="translate(4,4)"><path fill-rule="evenodd" d="M8 0L8 1L9 1L9 2L8 2L8 5L9 5L9 4L11 4L11 2L10 2L10 1L9 1L9 0ZM18 0L18 1L20 1L20 0ZM21 0L21 2L19 2L19 3L17 3L17 4L19 4L19 5L15 5L15 4L14 4L14 3L12 3L12 7L11 7L11 6L10 6L10 7L9 7L9 6L8 6L8 7L9 7L9 8L8 8L8 9L7 9L7 8L6 8L6 9L5 9L5 11L4 11L4 10L3 10L3 9L4 9L4 8L0 8L0 9L2 9L2 10L3 10L3 11L2 11L2 12L1 12L1 16L0 16L0 20L1 20L1 21L2 21L2 19L3 19L3 20L4 20L4 18L3 18L3 17L2 17L2 18L1 18L1 16L2 16L2 15L3 15L3 16L5 16L5 17L7 17L7 16L5 16L5 15L8 15L8 14L9 14L9 12L10 12L10 13L12 13L12 12L13 12L13 13L14 13L14 16L12 16L12 15L13 15L13 14L10 14L10 17L8 17L8 18L11 18L11 19L10 19L10 20L9 20L9 19L8 19L8 21L7 21L7 20L5 20L5 21L3 21L3 22L0 22L0 23L1 23L1 24L2 24L2 23L3 23L3 24L4 24L4 26L3 26L3 25L1 25L1 26L2 26L2 27L1 27L1 29L2 29L2 27L4 27L4 29L3 29L3 30L1 30L1 31L0 31L0 32L2 32L2 34L1 34L1 33L0 33L0 34L1 34L1 36L0 36L0 37L1 37L1 38L0 38L0 43L1 43L1 41L3 41L3 40L2 40L2 39L1 39L1 38L3 38L3 37L4 37L4 36L6 36L6 37L5 37L5 38L4 38L4 39L7 39L7 40L6 40L6 41L8 41L8 42L14 42L14 40L13 40L13 39L12 39L12 41L11 41L11 40L10 40L10 39L9 39L9 38L10 38L10 37L11 37L11 38L15 38L15 40L16 40L16 41L15 41L15 44L13 44L13 43L12 43L12 44L13 44L13 45L11 45L11 44L10 44L10 46L9 46L9 43L7 43L7 42L6 42L6 43L7 43L7 44L6 44L6 45L7 45L7 46L5 46L5 47L3 47L3 46L4 46L4 45L3 45L3 43L2 43L2 45L0 45L0 48L5 48L5 47L7 47L7 48L6 48L6 49L7 49L7 48L9 48L9 49L8 49L8 50L10 50L10 48L12 48L12 52L13 52L13 53L10 53L10 52L11 52L11 51L10 51L10 52L9 52L9 53L8 53L8 57L10 57L10 56L9 56L9 55L11 55L11 56L12 56L12 57L14 57L14 56L13 56L13 55L15 55L15 56L16 56L16 57L18 57L18 56L17 56L17 55L18 55L18 53L17 53L17 54L16 54L16 53L15 53L15 52L19 52L19 55L20 55L20 57L23 57L23 56L22 56L22 55L23 55L23 54L26 54L26 55L27 55L27 56L28 56L28 55L27 55L27 54L26 54L26 53L29 53L29 54L31 54L31 55L30 55L30 56L31 56L31 57L32 57L32 55L33 55L33 54L36 54L36 55L34 55L34 56L33 56L33 57L36 57L36 55L38 55L38 57L43 57L43 55L44 55L44 54L45 54L45 56L46 56L46 57L47 57L47 56L49 56L49 57L51 57L51 54L52 54L52 53L54 53L54 52L55 52L55 54L56 54L56 52L57 52L57 51L55 51L55 50L53 50L53 48L54 48L54 49L55 49L55 48L54 48L54 47L57 47L57 45L56 45L56 46L54 46L54 45L55 45L55 44L53 44L53 47L52 47L52 46L49 46L49 45L52 45L52 43L53 43L53 42L54 42L54 43L56 43L56 44L57 44L57 43L56 43L56 42L54 42L54 41L55 41L55 38L56 38L56 39L57 39L57 38L56 38L56 36L57 36L57 31L56 31L56 30L57 30L57 29L56 29L56 30L54 30L54 29L55 29L55 28L56 28L56 24L55 24L55 27L53 27L53 26L52 26L52 25L51 25L51 24L53 24L53 25L54 25L54 23L53 23L53 22L54 22L54 21L56 21L56 22L55 22L55 23L57 23L57 19L56 19L56 18L55 18L55 17L57 17L57 15L52 15L52 16L51 16L51 13L52 13L52 14L55 14L55 13L54 13L54 10L53 10L53 9L55 9L55 8L52 8L52 9L51 9L51 10L53 10L53 13L52 13L52 12L51 12L51 11L50 11L50 10L49 10L49 9L50 9L50 8L49 8L49 6L48 6L48 7L47 7L47 5L48 5L48 0L46 0L46 1L47 1L47 2L46 2L46 3L47 3L47 5L46 5L46 7L45 7L45 6L44 6L44 8L45 8L45 11L47 11L47 12L48 12L48 11L49 11L49 15L50 15L50 16L51 16L51 17L52 17L52 16L53 16L53 17L54 17L54 18L52 18L52 19L56 19L56 20L54 20L54 21L53 21L53 20L50 20L50 19L51 19L51 18L50 18L50 19L49 19L49 20L47 20L47 19L48 19L48 17L45 17L45 16L44 16L44 15L45 15L45 14L46 14L46 13L44 13L44 9L41 9L41 8L40 8L40 7L41 7L41 6L42 6L42 7L43 7L43 5L45 5L45 4L44 4L44 3L45 3L45 1L44 1L44 2L41 2L41 1L43 1L43 0L41 0L41 1L40 1L40 0L39 0L39 1L40 1L40 2L41 2L41 4L37 4L37 1L38 1L38 0L37 0L37 1L36 1L36 0L35 0L35 1L34 1L34 2L33 2L33 0L32 0L32 2L31 2L31 0L27 0L27 1L30 1L30 3L31 3L31 4L26 4L26 2L24 2L24 3L23 3L23 2L22 2L22 0ZM23 0L23 1L26 1L26 0ZM12 1L12 2L13 2L13 1ZM15 1L15 2L16 2L16 1ZM35 1L35 2L36 2L36 1ZM9 2L9 3L10 3L10 2ZM21 2L21 3L19 3L19 4L20 4L20 5L21 5L21 7L20 7L20 6L19 6L19 7L20 7L20 10L18 10L18 9L19 9L19 8L18 8L18 9L17 9L17 7L18 7L18 6L17 6L17 7L16 7L16 6L15 6L15 5L14 5L14 4L13 4L13 5L14 5L14 6L13 6L13 7L12 7L12 8L11 8L11 10L10 10L10 8L9 8L9 9L8 9L8 10L7 10L7 9L6 9L6 10L7 10L7 11L5 11L5 12L4 12L4 11L3 11L3 12L2 12L2 13L5 13L5 14L8 14L8 13L5 13L5 12L8 12L8 10L9 10L9 11L10 11L10 12L11 12L11 10L14 10L14 11L15 11L15 15L16 15L16 16L15 16L15 17L14 17L14 18L12 18L12 16L11 16L11 18L12 18L12 20L13 20L13 19L15 19L15 20L14 20L14 22L11 22L11 20L10 20L10 22L7 22L7 21L6 21L6 22L7 22L7 23L6 23L6 24L5 24L5 22L3 22L3 23L4 23L4 24L5 24L5 26L7 26L7 25L8 25L8 26L9 26L9 25L11 25L11 26L12 26L12 27L13 27L13 26L14 26L14 27L15 27L15 28L16 28L16 27L15 27L15 25L16 25L16 26L17 26L17 24L19 24L19 22L22 22L22 21L21 21L21 20L23 20L23 21L24 21L24 22L25 22L25 25L24 25L24 24L22 24L22 25L23 25L23 26L25 26L25 25L27 25L27 26L29 26L29 24L26 24L26 23L27 23L27 22L25 22L25 19L24 19L24 18L25 18L25 17L27 17L27 19L28 19L28 20L29 20L29 21L28 21L28 23L30 23L30 24L31 24L31 23L32 23L32 22L33 22L33 24L32 24L32 25L33 25L33 24L35 24L35 23L36 23L36 24L37 24L37 23L38 23L38 22L39 22L39 21L38 21L38 22L35 22L35 21L34 21L34 20L33 20L33 19L35 19L35 20L36 20L36 21L37 21L37 20L40 20L40 19L39 19L39 18L41 18L41 19L42 19L42 18L43 18L43 21L44 21L44 22L45 22L45 20L46 20L46 19L44 19L44 18L45 18L45 17L42 17L42 14L44 14L44 13L43 13L43 12L42 12L42 11L40 11L40 10L39 10L39 7L40 7L40 5L36 5L36 4L34 4L34 5L33 5L33 3L32 3L32 4L31 4L31 5L32 5L32 6L31 6L31 9L32 9L32 10L30 10L30 11L29 11L29 10L28 10L28 11L27 11L27 10L26 10L26 11L25 11L25 10L23 10L23 9L24 9L24 8L25 8L25 9L26 9L26 6L25 6L25 5L26 5L26 4L24 4L24 6L23 6L23 5L22 5L22 4L23 4L23 3L22 3L22 2ZM27 2L27 3L29 3L29 2ZM38 2L38 3L39 3L39 2ZM41 4L41 5L43 5L43 4ZM27 5L27 8L30 8L30 5ZM14 6L14 8L15 8L15 11L16 11L16 13L17 13L17 12L18 12L18 13L19 13L19 15L20 15L20 16L19 16L19 17L21 17L21 18L22 18L22 19L23 19L23 18L24 18L24 17L25 17L25 16L26 16L26 15L27 15L27 17L29 17L29 18L28 18L28 19L29 19L29 20L30 20L30 17L29 17L29 16L32 16L32 17L33 17L33 18L32 18L32 19L31 19L31 20L32 20L32 19L33 19L33 18L35 18L35 17L34 17L34 16L35 16L35 15L36 15L36 14L37 14L37 15L39 15L39 17L40 17L40 16L41 16L41 15L39 15L39 11L38 11L38 9L37 9L37 11L38 11L38 12L35 12L35 11L36 11L36 10L35 10L35 11L34 11L34 10L33 10L33 11L30 11L30 12L31 12L31 13L32 13L32 12L33 12L33 14L32 14L32 15L31 15L31 14L30 14L30 13L28 13L28 12L26 12L26 15L25 15L25 14L23 14L23 15L24 15L24 16L23 16L23 18L22 18L22 17L21 17L21 11L23 11L23 12L22 12L22 13L23 13L23 12L24 12L24 13L25 13L25 11L23 11L23 10L22 10L22 9L23 9L23 8L24 8L24 7L25 7L25 6L24 6L24 7L23 7L23 6L22 6L22 8L21 8L21 11L19 11L19 12L18 12L18 10L17 10L17 11L16 11L16 8L15 8L15 6ZM28 6L28 7L29 7L29 6ZM32 6L32 8L33 8L33 6ZM34 6L34 9L36 9L36 8L37 8L37 6L36 6L36 7L35 7L35 6ZM38 6L38 7L39 7L39 6ZM46 7L46 8L47 8L47 9L46 9L46 10L47 10L47 9L48 9L48 8L47 8L47 7ZM56 8L56 9L57 9L57 8ZM55 10L55 12L56 12L56 11L57 11L57 10ZM19 12L19 13L20 13L20 12ZM34 12L34 14L33 14L33 15L35 15L35 14L36 14L36 13L35 13L35 12ZM50 12L50 13L51 13L51 12ZM40 13L40 14L41 14L41 13ZM16 14L16 15L18 15L18 14ZM47 14L47 16L48 16L48 14ZM28 15L28 16L29 16L29 15ZM16 16L16 17L15 17L15 19L16 19L16 18L17 18L17 19L18 19L18 20L16 20L16 23L11 23L11 22L10 22L10 23L8 23L8 24L10 24L10 23L11 23L11 24L12 24L12 25L13 25L13 24L14 24L14 25L15 25L15 24L16 24L16 23L17 23L17 21L18 21L18 20L21 20L21 19L19 19L19 18L18 18L18 17L17 17L17 16ZM36 17L36 18L37 18L37 17ZM41 17L41 18L42 18L42 17ZM5 18L5 19L7 19L7 18ZM36 19L36 20L37 20L37 19ZM26 20L26 21L27 21L27 20ZM41 20L41 21L42 21L42 20ZM49 20L49 23L50 23L50 24L49 24L49 25L48 25L48 24L47 24L47 25L46 25L46 23L44 23L44 26L43 26L43 25L42 25L42 24L41 24L41 23L39 23L39 24L38 24L38 25L39 25L39 26L38 26L38 27L40 27L40 29L38 29L38 30L36 30L36 29L37 29L37 28L36 28L36 27L35 27L35 25L34 25L34 27L35 27L35 28L34 28L34 29L35 29L35 30L36 30L36 31L37 31L37 32L36 32L36 33L37 33L37 32L38 32L38 34L39 34L39 31L40 31L40 32L41 32L41 31L44 31L44 33L45 33L45 34L46 34L46 35L47 35L47 36L44 36L44 37L43 37L43 36L42 36L42 34L41 34L41 35L37 35L37 36L40 36L40 37L41 37L41 39L40 39L40 42L39 42L39 41L37 41L37 40L38 40L38 39L39 39L39 38L38 38L38 39L37 39L37 37L33 37L33 36L32 36L32 35L31 35L31 34L30 34L30 35L29 35L29 33L30 33L30 31L28 31L28 33L27 33L27 31L25 31L25 32L26 32L26 33L25 33L25 34L24 34L24 35L23 35L23 33L24 33L24 32L23 32L23 33L22 33L22 35L21 35L21 33L20 33L20 32L17 32L17 31L20 31L20 30L21 30L21 32L22 32L22 31L23 31L23 30L21 30L21 29L24 29L24 30L26 30L26 28L23 28L23 27L22 27L22 26L21 26L21 27L20 27L20 26L19 26L19 25L18 25L18 26L19 26L19 27L17 27L17 30L16 30L16 29L15 29L15 30L16 30L16 33L15 33L15 31L14 31L14 29L13 29L13 28L11 28L11 27L10 27L10 29L11 29L11 30L9 30L9 31L10 31L10 32L8 32L8 31L6 31L6 32L8 32L8 33L6 33L6 34L8 34L8 33L10 33L10 34L9 34L9 36L10 36L10 34L11 34L11 33L10 33L10 32L11 32L11 31L12 31L12 30L13 30L13 31L14 31L14 33L15 33L15 36L14 36L14 37L15 37L15 38L17 38L17 36L19 36L19 37L18 37L18 39L16 39L16 40L17 40L17 45L14 45L14 46L13 46L13 47L12 47L12 48L13 48L13 47L14 47L14 51L18 51L18 50L19 50L19 49L21 49L21 50L20 50L20 51L21 51L21 52L22 52L22 53L23 53L23 52L24 52L24 53L25 53L25 52L26 52L26 50L25 50L25 47L26 47L26 48L29 48L29 47L30 47L30 48L32 48L32 49L31 49L31 50L32 50L32 51L31 51L31 53L32 53L32 51L33 51L33 50L32 50L32 49L34 49L34 52L33 52L33 53L34 53L34 52L35 52L35 53L36 53L36 54L37 54L37 51L36 51L36 52L35 52L35 49L34 49L34 46L36 46L36 47L35 47L35 48L37 48L37 49L36 49L36 50L37 50L37 49L38 49L38 48L39 48L39 49L40 49L40 50L39 50L39 51L38 51L38 52L40 52L40 54L41 54L41 52L42 52L42 54L43 54L43 50L44 50L44 49L46 49L46 50L47 50L47 52L48 52L48 48L44 48L44 49L43 49L43 47L40 47L40 46L41 46L41 45L38 45L38 44L39 44L39 43L40 43L40 44L41 44L41 43L42 43L42 45L44 45L44 47L46 47L46 46L47 46L47 47L49 47L49 46L47 46L47 45L48 45L48 43L47 43L47 42L50 42L50 43L49 43L49 44L51 44L51 42L50 42L50 41L52 41L52 40L53 40L53 39L54 39L54 38L53 38L53 36L52 36L52 35L51 35L51 36L50 36L50 39L51 39L51 36L52 36L52 40L50 40L50 41L47 41L47 42L44 42L44 41L42 41L42 42L41 42L41 40L43 40L43 39L42 39L42 38L44 38L44 39L45 39L45 37L46 37L46 38L47 38L47 37L49 37L49 36L48 36L48 35L47 35L47 34L50 34L50 33L49 33L49 32L48 32L48 29L47 29L47 32L45 32L45 31L44 31L44 30L46 30L46 27L45 27L45 25L46 25L46 26L49 26L49 25L50 25L50 24L51 24L51 23L52 23L52 22L51 22L51 21L50 21L50 20ZM29 21L29 22L31 22L31 21ZM46 21L46 22L47 22L47 21ZM42 22L42 23L43 23L43 22ZM20 23L20 24L21 24L21 23ZM6 24L6 25L7 25L7 24ZM30 25L30 26L31 26L31 25ZM40 25L40 26L41 26L41 25ZM42 26L42 27L41 27L41 29L40 29L40 30L42 30L42 29L45 29L45 27L43 27L43 26ZM5 27L5 30L8 30L8 27ZM27 27L27 30L30 30L30 27ZM31 27L31 28L33 28L33 27ZM42 27L42 28L43 28L43 27ZM49 27L49 30L52 30L52 27ZM6 28L6 29L7 29L7 28ZM18 28L18 29L19 29L19 28ZM28 28L28 29L29 29L29 28ZM50 28L50 29L51 29L51 28ZM53 28L53 29L54 29L54 28ZM32 29L32 30L31 30L31 31L32 31L32 30L33 30L33 29ZM3 30L3 31L2 31L2 32L3 32L3 35L2 35L2 36L1 36L1 37L2 37L2 36L3 36L3 35L5 35L5 31L4 31L4 30ZM38 30L38 31L39 31L39 30ZM34 31L34 32L35 32L35 31ZM50 31L50 32L52 32L52 34L54 34L54 32L55 32L55 31L53 31L53 32L52 32L52 31ZM31 32L31 33L33 33L33 32ZM42 32L42 33L43 33L43 32ZM12 33L12 35L11 35L11 36L12 36L12 37L13 37L13 35L14 35L14 34L13 34L13 33ZM17 33L17 35L16 35L16 36L17 36L17 35L19 35L19 36L21 36L21 35L19 35L19 34L20 34L20 33L19 33L19 34L18 34L18 33ZM26 33L26 34L27 34L27 36L23 36L23 38L22 38L22 37L21 37L21 38L20 38L20 37L19 37L19 40L21 40L21 41L22 41L22 44L21 44L21 46L20 46L20 45L17 45L17 47L16 47L16 46L14 46L14 47L16 47L16 49L19 49L19 48L23 48L23 49L22 49L22 52L23 52L23 49L24 49L24 47L25 47L25 45L26 45L26 46L27 46L27 45L26 45L26 43L25 43L25 42L27 42L27 43L28 43L28 45L29 45L29 46L28 46L28 47L29 47L29 46L32 46L32 45L30 45L30 44L29 44L29 43L31 43L31 44L32 44L32 42L33 42L33 45L34 45L34 44L35 44L35 45L36 45L36 46L37 46L37 47L38 47L38 45L36 45L36 43L34 43L34 42L36 42L36 41L34 41L34 40L35 40L35 39L36 39L36 38L35 38L35 39L34 39L34 38L32 38L32 36L29 36L29 35L28 35L28 34L27 34L27 33ZM34 33L34 34L35 34L35 33ZM43 34L43 35L44 35L44 34ZM6 35L6 36L8 36L8 35ZM34 35L34 36L36 36L36 35ZM54 35L54 36L56 36L56 35ZM27 36L27 38L29 38L29 36ZM6 37L6 38L7 38L7 37ZM8 37L8 38L9 38L9 37ZM24 37L24 39L21 39L21 40L22 40L22 41L24 41L24 42L25 42L25 41L26 41L26 40L27 40L27 41L29 41L29 42L31 42L31 40L33 40L33 39L32 39L32 38L30 38L30 39L28 39L28 40L27 40L27 39L26 39L26 37ZM48 38L48 39L47 39L47 40L49 40L49 38ZM8 39L8 41L10 41L10 40L9 40L9 39ZM24 39L24 41L25 41L25 39ZM45 40L45 41L46 41L46 40ZM56 40L56 41L57 41L57 40ZM18 41L18 43L19 43L19 41ZM20 42L20 43L21 43L21 42ZM37 42L37 44L38 44L38 43L39 43L39 42ZM42 42L42 43L43 43L43 44L47 44L47 43L44 43L44 42ZM23 43L23 44L22 44L22 46L21 46L21 47L22 47L22 46L23 46L23 44L24 44L24 43ZM7 44L7 45L8 45L8 44ZM2 45L2 46L1 46L1 47L2 47L2 46L3 46L3 45ZM10 46L10 47L11 47L11 46ZM18 46L18 48L19 48L19 47L20 47L20 46ZM32 47L32 48L33 48L33 47ZM51 47L51 48L52 48L52 47ZM41 48L41 49L42 49L42 48ZM56 48L56 50L57 50L57 48ZM27 49L27 52L30 52L30 49ZM49 49L49 52L52 52L52 49ZM24 50L24 51L25 51L25 50ZM28 50L28 51L29 51L29 50ZM50 50L50 51L51 51L51 50ZM40 51L40 52L41 52L41 51ZM45 52L45 53L46 53L46 52ZM9 53L9 54L10 54L10 53ZM13 53L13 54L14 54L14 53ZM20 53L20 55L22 55L22 54L21 54L21 53ZM38 53L38 54L39 54L39 53ZM47 53L47 54L50 54L50 53ZM53 54L53 56L52 56L52 57L55 57L55 56L54 56L54 54ZM24 55L24 56L25 56L25 55ZM39 55L39 56L42 56L42 55ZM46 55L46 56L47 56L47 55ZM56 55L56 56L57 56L57 55ZM0 0L0 7L7 7L7 0ZM1 1L1 6L6 6L6 1ZM2 2L2 5L5 5L5 2ZM50 0L50 7L57 7L57 0ZM51 1L51 6L56 6L56 1ZM52 2L52 5L55 5L55 2ZM0 50L0 57L7 57L7 50ZM1 51L1 56L6 56L6 51ZM2 52L2 55L5 55L5 52Z" fill="#000000"/></g></g></svg>
