<?xml version="1.0" encoding="UTF-8"?>
<svg xmlns="http://www.w3.org/2000/svg" version="1.1" width="300" height="300" viewBox="0 0 300 300"><rect x="0" y="0" width="300" height="300" fill="#fefefe"/><g transform="scale(4.615)"><g transform="translate(4,4)"><path fill-rule="evenodd" d="M8 0L8 4L9 4L9 2L10 2L10 3L12 3L12 1L13 1L13 6L12 6L12 7L11 7L11 6L10 6L10 5L8 5L8 7L9 7L9 6L10 6L10 7L11 7L11 8L12 8L12 9L10 9L10 10L9 10L9 9L8 9L8 10L9 10L9 13L8 13L8 12L5 12L5 9L7 9L7 8L4 8L4 9L2 9L2 8L0 8L0 10L2 10L2 11L0 11L0 12L2 12L2 11L3 11L3 13L0 13L0 14L1 14L1 15L4 15L4 14L5 14L5 13L8 13L8 14L6 14L6 15L7 15L7 16L4 16L4 17L5 17L5 19L4 19L4 18L3 18L3 19L2 19L2 20L3 20L3 22L4 22L4 21L5 21L5 24L6 24L6 25L7 25L7 26L4 26L4 25L2 25L2 26L1 26L1 25L0 25L0 27L1 27L1 28L0 28L0 31L2 31L2 32L3 32L3 31L7 31L7 32L6 32L6 33L8 33L8 34L9 34L9 33L10 33L10 32L12 32L12 33L14 33L14 32L15 32L15 35L14 35L14 36L13 36L13 34L12 34L12 35L11 35L11 34L10 34L10 35L8 35L8 36L6 36L6 35L7 35L7 34L3 34L3 33L2 33L2 34L1 34L1 32L0 32L0 34L1 34L1 37L0 37L0 39L1 39L1 38L3 38L3 37L4 37L4 38L6 38L6 39L7 39L7 40L6 40L6 41L7 41L7 40L8 40L8 42L9 42L9 41L17 41L17 42L16 42L16 43L15 43L15 42L13 42L13 44L11 44L11 46L12 46L12 45L14 45L14 46L13 46L13 48L12 48L12 49L13 49L13 50L11 50L11 48L10 48L10 47L9 47L9 46L10 46L10 45L8 45L8 47L7 47L7 46L6 46L6 45L7 45L7 44L6 44L6 43L7 43L7 42L3 42L3 43L2 43L2 44L1 44L1 45L0 45L0 48L5 48L5 47L7 47L7 48L6 48L6 49L8 49L8 50L9 50L9 51L8 51L8 53L9 53L9 54L10 54L10 55L8 55L8 57L9 57L9 56L10 56L10 57L12 57L12 56L10 56L10 55L11 55L11 54L12 54L12 52L13 52L13 53L15 53L15 55L16 55L16 54L17 54L17 53L19 53L19 55L18 55L18 56L17 56L17 57L22 57L22 54L23 54L23 55L24 55L24 56L23 56L23 57L25 57L25 56L26 56L26 57L27 57L27 55L26 55L26 53L28 53L28 57L29 57L29 55L30 55L30 57L34 57L34 55L35 55L35 57L37 57L37 56L36 56L36 54L37 54L37 55L39 55L39 57L40 57L40 56L43 56L43 55L44 55L44 53L45 53L45 55L46 55L46 56L49 56L49 57L50 57L50 55L51 55L51 56L53 56L53 55L55 55L55 54L57 54L57 52L56 52L56 50L57 50L57 49L56 49L56 45L57 45L57 43L56 43L56 42L57 42L57 40L54 40L54 41L53 41L53 40L52 40L52 39L53 39L53 38L54 38L54 37L55 37L55 36L53 36L53 35L56 35L56 34L57 34L57 33L56 33L56 30L55 30L55 29L54 29L54 28L53 28L53 27L54 27L54 26L55 26L55 25L53 25L53 26L51 26L51 25L52 25L52 24L53 24L53 23L52 23L52 22L53 22L53 21L52 21L52 20L53 20L53 19L52 19L52 18L53 18L53 17L55 17L55 16L56 16L56 17L57 17L57 15L56 15L56 13L57 13L57 12L56 12L56 10L57 10L57 8L53 8L53 9L52 9L52 8L51 8L51 9L50 9L50 10L49 10L49 9L48 9L48 8L49 8L49 6L48 6L48 7L47 7L47 5L48 5L48 0L41 0L41 1L40 1L40 2L38 2L38 1L39 1L39 0L38 0L38 1L37 1L37 2L36 2L36 0L35 0L35 1L34 1L34 0L32 0L32 3L30 3L30 1L31 1L31 0L29 0L29 1L28 1L28 0L23 0L23 1L21 1L21 0L19 0L19 1L18 1L18 0L17 0L17 1L18 1L18 2L15 2L15 3L16 3L16 4L17 4L17 5L18 5L18 3L19 3L19 1L20 1L20 2L21 2L21 3L22 3L22 5L21 5L21 6L20 6L20 5L19 5L19 6L18 6L18 7L19 7L19 8L17 8L17 6L16 6L16 5L15 5L15 4L14 4L14 0ZM15 0L15 1L16 1L16 0ZM10 1L10 2L11 2L11 1ZM25 1L25 3L23 3L23 2L22 2L22 3L23 3L23 5L22 5L22 6L21 6L21 7L22 7L22 6L23 6L23 7L24 7L24 8L22 8L22 10L20 10L20 8L19 8L19 9L16 9L16 8L15 8L15 7L16 7L16 6L15 6L15 5L14 5L14 6L13 6L13 9L12 9L12 10L11 10L11 11L12 11L12 10L13 10L13 9L14 9L14 8L15 8L15 9L16 9L16 11L17 11L17 13L15 13L15 12L14 12L14 11L13 11L13 13L12 13L12 12L10 12L10 13L11 13L11 15L9 15L9 14L8 14L8 16L9 16L9 17L6 17L6 18L7 18L7 19L6 19L6 20L5 20L5 21L6 21L6 22L7 22L7 21L6 21L6 20L8 20L8 21L9 21L9 20L10 20L10 19L11 19L11 18L10 18L10 16L11 16L11 15L12 15L12 16L13 16L13 19L12 19L12 20L13 20L13 19L14 19L14 20L15 20L15 21L17 21L17 20L16 20L16 19L15 19L15 18L18 18L18 20L19 20L19 21L18 21L18 22L19 22L19 21L20 21L20 20L19 20L19 18L20 18L20 17L25 17L25 15L24 15L24 14L23 14L23 13L25 13L25 12L23 12L23 9L24 9L24 8L25 8L25 10L28 10L28 9L26 9L26 6L25 6L25 7L24 7L24 6L23 6L23 5L24 5L24 4L25 4L25 3L26 3L26 4L28 4L28 3L27 3L27 2L28 2L28 1ZM33 1L33 2L34 2L34 1ZM45 1L45 2L47 2L47 1ZM35 2L35 3L34 3L34 5L33 5L33 3L32 3L32 5L33 5L33 7L32 7L32 6L31 6L31 10L29 10L29 11L28 11L28 12L27 12L27 11L26 11L26 16L27 16L27 15L28 15L28 14L27 14L27 13L29 13L29 16L31 16L31 17L32 17L32 18L31 18L31 19L33 19L33 17L32 17L32 16L33 16L33 15L30 15L30 13L31 13L31 12L29 12L29 11L32 11L32 8L33 8L33 9L34 9L34 10L33 10L33 13L32 13L32 14L33 14L33 13L34 13L34 20L33 20L33 21L34 21L34 22L35 22L35 23L34 23L34 24L33 24L33 25L34 25L34 26L33 26L33 27L32 27L32 23L33 23L33 22L31 22L31 24L28 24L28 23L29 23L29 21L30 21L30 20L28 20L28 22L27 22L27 21L26 21L26 20L27 20L27 19L30 19L30 18L28 18L28 17L27 17L27 19L26 19L26 18L24 18L24 19L23 19L23 18L22 18L22 19L23 19L23 20L22 20L22 21L24 21L24 22L25 22L25 23L26 23L26 22L27 22L27 24L28 24L28 25L27 25L27 26L29 26L29 25L31 25L31 30L32 30L32 32L29 32L29 33L28 33L28 34L27 34L27 32L25 32L25 30L26 30L26 29L25 29L25 28L22 28L22 27L21 27L21 28L18 28L18 29L15 29L15 28L14 28L14 27L13 27L13 24L16 24L16 27L18 27L18 25L17 25L17 22L16 22L16 23L15 23L15 22L14 22L14 21L11 21L11 23L10 23L10 22L8 22L8 23L6 23L6 24L7 24L7 25L9 25L9 26L10 26L10 29L9 29L9 30L10 30L10 31L8 31L8 32L10 32L10 31L12 31L12 32L14 32L14 31L15 31L15 30L16 30L16 32L17 32L17 30L18 30L18 29L22 29L22 30L21 30L21 31L22 31L22 33L21 33L21 34L20 34L20 33L19 33L19 35L18 35L18 36L19 36L19 35L21 35L21 36L22 36L22 37L19 37L19 39L17 39L17 40L19 40L19 39L20 39L20 38L21 38L21 40L22 40L22 42L21 42L21 43L20 43L20 44L19 44L19 42L20 42L20 41L18 41L18 43L16 43L16 44L17 44L17 45L16 45L16 46L17 46L17 47L18 47L18 48L19 48L19 47L20 47L20 44L21 44L21 43L22 43L22 44L23 44L23 41L25 41L25 40L26 40L26 38L27 38L27 39L28 39L28 38L29 38L29 39L31 39L31 40L30 40L30 41L32 41L32 43L33 43L33 44L35 44L35 43L33 43L33 41L32 41L32 40L33 40L33 39L31 39L31 38L33 38L33 37L34 37L34 38L35 38L35 39L34 39L34 42L35 42L35 39L37 39L37 42L38 42L38 37L41 37L41 39L42 39L42 40L40 40L40 38L39 38L39 40L40 40L40 41L39 41L39 44L37 44L37 43L36 43L36 44L37 44L37 46L36 46L36 45L34 45L34 47L33 47L33 46L32 46L32 45L31 45L31 42L29 42L29 41L28 41L28 40L27 40L27 41L26 41L26 42L25 42L25 43L28 43L28 44L30 44L30 45L31 45L31 46L29 46L29 45L26 45L26 46L24 46L24 45L25 45L25 44L24 44L24 45L21 45L21 46L22 46L22 47L21 47L21 48L20 48L20 49L15 49L15 48L16 48L16 47L15 47L15 46L14 46L14 47L15 47L15 48L13 48L13 49L15 49L15 50L16 50L16 51L17 51L17 52L15 52L15 51L14 51L14 50L13 50L13 52L15 52L15 53L17 53L17 52L18 52L18 51L20 51L20 49L21 49L21 50L22 50L22 49L23 49L23 48L24 48L24 49L25 49L25 53L24 53L24 52L22 52L22 51L21 51L21 52L22 52L22 53L21 53L21 54L20 54L20 55L19 55L19 56L21 56L21 54L22 54L22 53L24 53L24 54L25 54L25 53L26 53L26 48L27 48L27 47L28 47L28 46L29 46L29 48L31 48L31 49L32 49L32 51L31 51L31 52L32 52L32 51L33 51L33 53L32 53L32 54L33 54L33 55L34 55L34 54L35 54L35 52L36 52L36 49L34 49L34 47L36 47L36 48L37 48L37 46L38 46L38 45L39 45L39 47L38 47L38 49L37 49L37 51L38 51L38 52L37 52L37 53L39 53L39 52L40 52L40 53L42 53L42 52L43 52L43 53L44 53L44 52L43 52L43 51L45 51L45 53L46 53L46 54L47 54L47 55L49 55L49 54L51 54L51 55L52 55L52 54L51 54L51 53L49 53L49 54L48 54L48 52L47 52L47 49L48 49L48 47L49 47L49 48L51 48L51 47L52 47L52 48L53 48L53 47L54 47L54 49L55 49L55 45L56 45L56 44L55 44L55 42L54 42L54 43L53 43L53 41L52 41L52 40L47 40L47 39L49 39L49 38L50 38L50 39L51 39L51 36L50 36L50 35L53 35L53 34L54 34L54 33L55 33L55 34L56 34L56 33L55 33L55 31L54 31L54 29L53 29L53 32L54 32L54 33L51 33L51 32L52 32L52 31L51 31L51 32L50 32L50 31L49 31L49 32L50 32L50 35L49 35L49 36L47 36L47 35L46 35L46 34L49 34L49 33L48 33L48 31L47 31L47 29L46 29L46 28L48 28L48 27L45 27L45 29L44 29L44 26L43 26L43 28L42 28L42 25L41 25L41 24L42 24L42 23L41 23L41 22L40 22L40 21L42 21L42 20L43 20L43 22L44 22L44 24L43 24L43 25L44 25L44 24L45 24L45 22L44 22L44 16L45 16L45 17L46 17L46 18L45 18L45 19L46 19L46 20L45 20L45 21L46 21L46 23L47 23L47 24L46 24L46 26L47 26L47 25L48 25L48 23L47 23L47 21L51 21L51 22L52 22L52 21L51 21L51 20L49 20L49 19L50 19L50 17L51 17L51 18L52 18L52 17L53 17L53 16L55 16L55 14L54 14L54 13L55 13L55 10L56 10L56 9L53 9L53 10L54 10L54 11L52 11L52 12L51 12L51 14L52 14L52 17L51 17L51 16L50 16L50 11L49 11L49 10L47 10L47 8L46 8L46 5L47 5L47 3L44 3L44 2L43 2L43 3L44 3L44 4L43 4L43 7L42 7L42 5L39 5L39 8L40 8L40 9L39 9L39 10L40 10L40 9L42 9L42 8L43 8L43 10L42 10L42 11L43 11L43 12L41 12L41 11L40 11L40 13L39 13L39 12L37 12L37 11L38 11L38 6L37 6L37 9L35 9L35 7L36 7L36 5L38 5L38 4L37 4L37 3L38 3L38 2L37 2L37 3L36 3L36 2ZM40 2L40 3L39 3L39 4L40 4L40 3L42 3L42 2ZM35 4L35 5L34 5L34 7L33 7L33 8L34 8L34 7L35 7L35 5L36 5L36 4ZM44 4L44 7L43 7L43 8L44 8L44 11L45 11L45 12L44 12L44 13L40 13L40 14L39 14L39 13L38 13L38 15L39 15L39 17L38 17L38 16L37 16L37 15L35 15L35 17L38 17L38 18L39 18L39 19L37 19L37 18L35 18L35 19L36 19L36 20L34 20L34 21L35 21L35 22L37 22L37 23L38 23L38 26L39 26L39 27L37 27L37 26L36 26L36 27L35 27L35 29L37 29L37 30L36 30L36 31L34 31L34 27L33 27L33 28L32 28L32 30L33 30L33 31L34 31L34 32L32 32L32 33L29 33L29 34L28 34L28 36L27 36L27 34L26 34L26 33L23 33L23 34L22 34L22 35L23 35L23 37L22 37L22 38L23 38L23 37L24 37L24 38L26 38L26 37L28 37L28 36L29 36L29 37L31 37L31 36L32 36L32 37L33 37L33 34L34 34L34 35L35 35L35 36L34 36L34 37L35 37L35 38L37 38L37 37L38 37L38 36L40 36L40 35L38 35L38 34L39 34L39 33L40 33L40 34L42 34L42 35L41 35L41 37L42 37L42 39L43 39L43 40L44 40L44 42L46 42L46 43L47 43L47 44L46 44L46 45L45 45L45 44L44 44L44 43L43 43L43 44L42 44L42 43L41 43L41 42L43 42L43 41L41 41L41 42L40 42L40 44L39 44L39 45L40 45L40 46L41 46L41 52L42 52L42 50L45 50L45 48L46 48L46 49L47 49L47 47L48 47L48 45L49 45L49 47L50 47L50 46L52 46L52 47L53 47L53 46L52 46L52 44L53 44L53 45L54 45L54 44L53 44L53 43L52 43L52 41L51 41L51 43L50 43L50 42L49 42L49 41L48 41L48 42L49 42L49 43L47 43L47 42L46 42L46 40L45 40L45 39L47 39L47 38L48 38L48 37L47 37L47 38L46 38L46 37L45 37L45 36L46 36L46 35L44 35L44 34L46 34L46 33L45 33L45 32L47 32L47 31L46 31L46 30L45 30L45 31L44 31L44 29L40 29L40 28L41 28L41 27L40 27L40 25L39 25L39 21L40 21L40 18L41 18L41 19L42 19L42 18L43 18L43 17L42 17L42 15L43 15L43 16L44 16L44 15L45 15L45 16L47 16L47 18L48 18L48 19L49 19L49 17L50 17L50 16L49 16L49 15L48 15L48 16L47 16L47 15L46 15L46 11L45 11L45 9L46 9L46 8L44 8L44 7L45 7L45 5L46 5L46 4ZM27 5L27 8L30 8L30 5ZM14 6L14 7L15 7L15 6ZM19 6L19 7L20 7L20 6ZM28 6L28 7L29 7L29 6ZM40 6L40 8L41 8L41 6ZM51 9L51 10L52 10L52 9ZM3 10L3 11L4 11L4 10ZM6 10L6 11L7 11L7 10ZM17 10L17 11L18 11L18 10ZM19 10L19 12L18 12L18 13L17 13L17 14L15 14L15 13L13 13L13 15L14 15L14 18L15 18L15 17L18 17L18 18L19 18L19 17L20 17L20 16L17 16L17 15L18 15L18 14L19 14L19 12L20 12L20 15L22 15L22 16L24 16L24 15L22 15L22 14L21 14L21 13L23 13L23 12L22 12L22 11L20 11L20 10ZM34 10L34 12L35 12L35 13L36 13L36 14L37 14L37 12L36 12L36 10ZM4 12L4 13L3 13L3 14L4 14L4 13L5 13L5 12ZM53 12L53 13L52 13L52 14L53 14L53 15L54 15L54 14L53 14L53 13L54 13L54 12ZM44 13L44 14L43 14L43 15L44 15L44 14L45 14L45 13ZM47 13L47 14L49 14L49 13ZM40 14L40 17L39 17L39 18L40 18L40 17L41 17L41 14ZM1 16L1 17L2 17L2 16ZM9 18L9 19L8 19L8 20L9 20L9 19L10 19L10 18ZM0 19L0 21L1 21L1 19ZM3 19L3 20L4 20L4 19ZM25 19L25 20L24 20L24 21L25 21L25 20L26 20L26 19ZM56 19L56 21L55 21L55 24L56 24L56 25L57 25L57 24L56 24L56 21L57 21L57 19ZM31 20L31 21L32 21L32 20ZM38 20L38 21L37 21L37 22L38 22L38 21L39 21L39 20ZM12 22L12 23L11 23L11 24L9 24L9 23L8 23L8 24L9 24L9 25L11 25L11 24L12 24L12 23L13 23L13 22ZM20 22L20 23L19 23L19 24L20 24L20 25L19 25L19 27L20 27L20 25L21 25L21 26L22 26L22 25L23 25L23 24L24 24L24 23L23 23L23 22L22 22L22 25L21 25L21 22ZM49 22L49 24L50 24L50 25L49 25L49 26L50 26L50 25L51 25L51 24L52 24L52 23L51 23L51 24L50 24L50 22ZM1 23L1 24L2 24L2 23ZM3 23L3 24L4 24L4 23ZM34 24L34 25L37 25L37 24ZM14 25L14 26L15 26L15 25ZM25 25L25 26L23 26L23 27L26 27L26 25ZM3 26L3 27L2 27L2 28L1 28L1 30L2 30L2 28L4 28L4 26ZM11 26L11 27L12 27L12 26ZM5 27L5 30L8 30L8 27ZM27 27L27 30L30 30L30 27ZM36 27L36 28L37 28L37 29L38 29L38 28L37 28L37 27ZM49 27L49 30L52 30L52 27ZM55 27L55 28L56 28L56 27ZM6 28L6 29L7 29L7 28ZM11 28L11 29L12 29L12 30L13 30L13 29L14 29L14 28ZM28 28L28 29L29 29L29 28ZM50 28L50 29L51 29L51 28ZM3 29L3 30L4 30L4 29ZM23 29L23 30L22 30L22 31L24 31L24 30L25 30L25 29ZM19 30L19 32L20 32L20 30ZM37 30L37 32L38 32L38 30ZM39 30L39 32L40 32L40 33L41 33L41 32L40 32L40 30ZM34 32L34 34L35 34L35 32ZM16 33L16 35L17 35L17 33ZM37 33L37 34L38 34L38 33ZM43 33L43 34L44 34L44 33ZM2 34L2 35L3 35L3 36L2 36L2 37L3 37L3 36L4 36L4 35L3 35L3 34ZM24 34L24 36L25 36L25 35L26 35L26 34ZM30 34L30 36L31 36L31 35L32 35L32 34ZM37 35L37 36L38 36L38 35ZM43 35L43 36L42 36L42 37L44 37L44 38L43 38L43 39L45 39L45 37L44 37L44 35ZM5 36L5 37L6 37L6 38L9 38L9 37L12 37L12 38L10 38L10 39L11 39L11 40L14 40L14 37L15 37L15 39L16 39L16 38L18 38L18 37L17 37L17 36L16 36L16 37L15 37L15 36L14 36L14 37L12 37L12 36L8 36L8 37L6 37L6 36ZM49 36L49 37L50 37L50 36ZM52 36L52 38L53 38L53 36ZM56 36L56 37L57 37L57 36ZM55 38L55 39L57 39L57 38ZM2 39L2 40L1 40L1 41L0 41L0 43L1 43L1 42L2 42L2 40L3 40L3 39ZM4 39L4 40L5 40L5 39ZM8 39L8 40L9 40L9 39ZM22 39L22 40L24 40L24 39ZM27 41L27 42L28 42L28 43L29 43L29 42L28 42L28 41ZM10 42L10 43L12 43L12 42ZM4 43L4 44L5 44L5 43ZM8 43L8 44L9 44L9 43ZM14 43L14 44L15 44L15 43ZM49 43L49 44L50 44L50 45L51 45L51 44L52 44L52 43L51 43L51 44L50 44L50 43ZM18 44L18 45L17 45L17 46L19 46L19 44ZM40 44L40 45L41 45L41 44ZM43 44L43 46L44 46L44 47L42 47L42 49L44 49L44 48L45 48L45 45L44 45L44 44ZM47 44L47 45L46 45L46 47L47 47L47 45L48 45L48 44ZM1 45L1 47L2 47L2 45ZM4 45L4 46L3 46L3 47L5 47L5 45ZM23 46L23 47L22 47L22 48L21 48L21 49L22 49L22 48L23 48L23 47L24 47L24 48L25 48L25 47L24 47L24 46ZM26 46L26 47L27 47L27 46ZM8 47L8 48L9 48L9 50L10 50L10 48L9 48L9 47ZM31 47L31 48L32 48L32 49L33 49L33 50L34 50L34 52L35 52L35 50L34 50L34 49L33 49L33 47ZM39 47L39 49L38 49L38 51L40 51L40 47ZM27 49L27 52L30 52L30 49ZM49 49L49 52L52 52L52 49ZM17 50L17 51L18 51L18 50ZM28 50L28 51L29 51L29 50ZM50 50L50 51L51 51L51 50ZM53 50L53 53L54 53L54 52L55 52L55 51L54 51L54 50ZM10 51L10 53L11 53L11 51ZM19 52L19 53L20 53L20 52ZM46 52L46 53L47 53L47 52ZM30 53L30 54L31 54L31 53ZM33 53L33 54L34 54L34 53ZM13 54L13 56L14 56L14 57L16 57L16 56L14 56L14 54ZM40 54L40 55L41 55L41 54ZM42 54L42 55L43 55L43 54ZM44 56L44 57L45 57L45 56ZM56 56L56 57L57 57L57 56ZM0 0L0 7L7 7L7 0ZM1 1L1 6L6 6L6 1ZM2 2L2 5L5 5L5 2ZM50 0L50 7L57 7L57 0ZM51 1L51 6L56 6L56 1ZM52 2L52 5L55 5L55 2ZM0 50L0 57L7 57L7 50ZM1 51L1 56L6 56L6 51ZM2 52L2 55L5 55L5 52Z" fill="#000000"/></g></g></svg>
