<?xml version="1.0" encoding="UTF-8"?>
<svg xmlns="http://www.w3.org/2000/svg" version="1.1" width="300" height="300" viewBox="0 0 300 300"><rect x="0" y="0" width="300" height="300" fill="#fefefe"/><g transform="scale(4.615)"><g transform="translate(4,4)"><path fill-rule="evenodd" d="M9 0L9 1L8 1L8 2L9 2L9 1L10 1L10 2L11 2L11 3L12 3L12 4L10 4L10 5L11 5L11 6L10 6L10 7L9 7L9 5L8 5L8 7L9 7L9 8L6 8L6 9L9 9L9 10L5 10L5 11L4 11L4 14L3 14L3 15L1 15L1 14L0 14L0 15L1 15L1 16L0 16L0 17L2 17L2 18L0 18L0 19L1 19L1 20L0 20L0 23L2 23L2 24L3 24L3 25L4 25L4 26L3 26L3 28L2 28L2 29L3 29L3 30L1 30L1 28L0 28L0 31L1 31L1 32L0 32L0 34L2 34L2 33L3 33L3 32L4 32L4 34L3 34L3 35L2 35L2 36L3 36L3 35L4 35L4 37L2 37L2 40L1 40L1 41L0 41L0 43L1 43L1 44L0 44L0 48L5 48L5 47L7 47L7 48L6 48L6 49L7 49L7 48L8 48L8 47L9 47L9 48L10 48L10 49L8 49L8 51L9 51L9 52L8 52L8 57L9 57L9 56L10 56L10 57L11 57L11 56L10 56L10 55L11 55L11 54L9 54L9 53L10 53L10 52L11 52L11 51L12 51L12 52L13 52L13 53L12 53L12 54L13 54L13 55L12 55L12 56L13 56L13 55L14 55L14 53L16 53L16 54L15 54L15 55L16 55L16 56L15 56L15 57L16 57L16 56L17 56L17 57L19 57L19 55L20 55L20 54L19 54L19 53L20 53L20 52L23 52L23 51L21 51L21 50L25 50L25 51L26 51L26 52L24 52L24 53L22 53L22 55L21 55L21 56L24 56L24 57L26 57L26 55L27 55L27 54L30 54L30 53L31 53L31 50L32 50L32 47L33 47L33 50L34 50L34 51L35 51L35 52L34 52L34 53L35 53L35 54L36 54L36 56L35 56L35 55L34 55L34 54L33 54L33 53L32 53L32 54L31 54L31 56L30 56L30 55L29 55L29 56L27 56L27 57L29 57L29 56L30 56L30 57L31 57L31 56L35 56L35 57L39 57L39 56L41 56L41 54L42 54L42 55L44 55L44 54L45 54L45 53L44 53L44 52L45 52L45 51L46 51L46 53L47 53L47 51L46 51L46 50L45 50L45 51L44 51L44 48L43 48L43 47L44 47L44 46L45 46L45 47L47 47L47 48L46 48L46 49L47 49L47 50L48 50L48 54L47 54L47 57L48 57L48 56L50 56L50 57L52 57L52 55L51 55L51 53L52 53L52 54L53 54L53 55L54 55L54 56L53 56L53 57L54 57L54 56L55 56L55 57L56 57L56 56L55 56L55 54L53 54L53 52L54 52L54 53L56 53L56 50L57 50L57 48L56 48L56 46L57 46L57 43L56 43L56 42L57 42L57 41L56 41L56 42L55 42L55 39L57 39L57 36L56 36L56 35L53 35L53 34L52 34L52 33L53 33L53 32L56 32L56 33L54 33L54 34L57 34L57 32L56 32L56 30L57 30L57 29L54 29L54 28L57 28L57 27L56 27L56 26L57 26L57 25L56 25L56 22L57 22L57 20L56 20L56 18L57 18L57 17L56 17L56 16L57 16L57 15L56 15L56 14L57 14L57 12L56 12L56 14L55 14L55 15L53 15L53 13L54 13L54 12L55 12L55 11L56 11L56 8L55 8L55 10L54 10L54 11L53 11L53 9L54 9L54 8L53 8L53 9L52 9L52 8L51 8L51 10L49 10L49 9L50 9L50 8L49 8L49 6L48 6L48 7L47 7L47 5L48 5L48 0L45 0L45 2L44 2L44 3L43 3L43 4L42 4L42 2L43 2L43 0L41 0L41 1L40 1L40 0L39 0L39 1L38 1L38 0L37 0L37 1L38 1L38 4L37 4L37 3L36 3L36 0L35 0L35 1L33 1L33 0L32 0L32 1L31 1L31 0L29 0L29 1L30 1L30 2L28 2L28 3L27 3L27 4L26 4L26 3L23 3L23 2L27 2L27 1L25 1L25 0L23 0L23 1L22 1L22 0L21 0L21 2L19 2L19 1L18 1L18 0L17 0L17 1L14 1L14 0L13 0L13 1L14 1L14 2L13 2L13 3L12 3L12 0ZM17 1L17 2L14 2L14 4L13 4L13 7L12 7L12 6L11 6L11 8L12 8L12 9L10 9L10 10L9 10L9 11L8 11L8 12L7 12L7 11L6 11L6 12L5 12L5 15L6 15L6 16L4 16L4 15L3 15L3 18L2 18L2 19L5 19L5 17L6 17L6 18L9 18L9 19L11 19L11 20L10 20L10 22L9 22L9 20L8 20L8 21L5 21L5 20L2 20L2 21L3 21L3 22L2 22L2 23L4 23L4 24L5 24L5 25L6 25L6 26L8 26L8 25L9 25L9 27L11 27L11 28L10 28L10 29L9 29L9 32L10 32L10 31L12 31L12 30L11 30L11 29L12 29L12 28L13 28L13 30L14 30L14 32L12 32L12 33L14 33L14 34L13 34L13 36L14 36L14 37L11 37L11 35L10 35L10 36L9 36L9 34L8 34L8 32L7 32L7 31L6 31L6 32L5 32L5 31L4 31L4 32L5 32L5 34L4 34L4 35L5 35L5 37L4 37L4 38L5 38L5 39L4 39L4 40L3 40L3 42L2 42L2 41L1 41L1 42L2 42L2 43L3 43L3 42L4 42L4 45L5 45L5 43L6 43L6 44L7 44L7 43L9 43L9 42L10 42L10 44L8 44L8 45L6 45L6 46L7 46L7 47L8 47L8 45L9 45L9 46L10 46L10 47L11 47L11 48L13 48L13 49L10 49L10 50L9 50L9 51L10 51L10 50L13 50L13 52L15 52L15 51L14 51L14 50L13 50L13 49L14 49L14 48L15 48L15 49L16 49L16 50L17 50L17 51L16 51L16 53L17 53L17 52L18 52L18 51L19 51L19 52L20 52L20 51L19 51L19 50L17 50L17 49L16 49L16 48L17 48L17 45L18 45L18 44L16 44L16 43L15 43L15 42L14 42L14 43L15 43L15 47L14 47L14 45L13 45L13 41L16 41L16 42L17 42L17 43L18 43L18 42L19 42L19 41L16 41L16 40L19 40L19 39L20 39L20 38L19 38L19 37L21 37L21 38L24 38L24 37L23 37L23 36L24 36L24 34L23 34L23 33L25 33L25 34L26 34L26 33L25 33L25 32L26 32L26 31L24 31L24 30L23 30L23 29L26 29L26 28L23 28L23 26L22 26L22 27L21 27L21 28L20 28L20 26L21 26L21 25L23 25L23 24L21 24L21 22L22 22L22 23L24 23L24 24L25 24L25 25L26 25L26 26L25 26L25 27L26 27L26 26L28 26L28 25L31 25L31 24L32 24L32 26L31 26L31 27L32 27L32 29L31 29L31 30L32 30L32 33L31 33L31 31L29 31L29 33L28 33L28 32L27 32L27 35L26 35L26 36L27 36L27 37L25 37L25 38L27 38L27 39L25 39L25 40L24 40L24 39L23 39L23 40L20 40L20 42L21 42L21 43L20 43L20 44L19 44L19 45L20 45L20 46L18 46L18 47L19 47L19 49L20 49L20 50L21 50L21 49L23 49L23 48L24 48L24 49L25 49L25 50L26 50L26 49L25 49L25 47L26 47L26 48L30 48L30 47L29 47L29 46L30 46L30 45L32 45L32 46L31 46L31 47L32 47L32 46L35 46L35 47L34 47L34 50L36 50L36 52L37 52L37 51L38 51L38 53L37 53L37 54L40 54L40 53L41 53L41 52L40 52L40 51L38 51L38 50L41 50L41 51L42 51L42 50L41 50L41 48L42 48L42 49L43 49L43 48L42 48L42 47L43 47L43 46L41 46L41 48L39 48L39 47L40 47L40 46L39 46L39 45L41 45L41 44L42 44L42 43L39 43L39 45L38 45L38 46L39 46L39 47L38 47L38 48L37 48L37 49L38 49L38 50L36 50L36 49L35 49L35 48L36 48L36 46L37 46L37 45L34 45L34 43L37 43L37 42L35 42L35 40L38 40L38 42L39 42L39 41L43 41L43 42L44 42L44 41L45 41L45 43L43 43L43 44L44 44L44 45L45 45L45 46L48 46L48 45L49 45L49 46L50 46L50 47L48 47L48 48L47 48L47 49L48 49L48 48L50 48L50 47L51 47L51 48L54 48L54 49L56 49L56 48L54 48L54 47L55 47L55 46L56 46L56 43L55 43L55 44L54 44L54 45L53 45L53 43L54 43L54 42L53 42L53 41L54 41L54 40L53 40L53 39L54 39L54 38L53 38L53 35L52 35L52 34L50 34L50 32L51 32L51 33L52 33L52 32L53 32L53 31L52 31L52 32L51 32L51 31L48 31L48 30L47 30L47 29L48 29L48 28L47 28L47 29L46 29L46 30L47 30L47 31L46 31L46 32L47 32L47 33L45 33L45 32L43 32L43 30L44 30L44 31L45 31L45 30L44 30L44 29L45 29L45 28L46 28L46 27L47 27L47 26L48 26L48 25L49 25L49 24L50 24L50 26L52 26L52 25L53 25L53 23L55 23L55 22L56 22L56 20L53 20L53 19L52 19L52 20L51 20L51 21L49 21L49 22L48 22L48 25L47 25L47 24L46 24L46 25L45 25L45 23L46 23L46 22L47 22L47 20L48 20L48 19L49 19L49 18L47 18L47 17L46 17L46 16L47 16L47 15L46 15L46 16L45 16L45 15L44 15L44 18L43 18L43 20L44 20L44 26L46 26L46 27L45 27L45 28L44 28L44 27L43 27L43 26L41 26L41 27L42 27L42 28L38 28L38 29L37 29L37 30L35 30L35 28L37 28L37 27L40 27L40 26L39 26L39 25L43 25L43 24L39 24L39 23L40 23L40 22L39 22L39 21L42 21L42 20L39 20L39 21L38 21L38 22L37 22L37 24L39 24L39 25L38 25L38 26L37 26L37 25L33 25L33 24L32 24L32 23L33 23L33 22L34 22L34 23L35 23L35 20L34 20L34 19L36 19L36 20L37 20L37 19L39 19L39 17L41 17L41 16L42 16L42 17L43 17L43 16L42 16L42 15L43 15L43 14L47 14L47 13L49 13L49 12L50 12L50 14L49 14L49 15L48 15L48 16L49 16L49 17L50 17L50 19L51 19L51 17L53 17L53 18L55 18L55 16L51 16L51 17L50 17L50 14L51 14L51 12L50 12L50 11L49 11L49 10L47 10L47 7L46 7L46 6L45 6L45 4L46 4L46 5L47 5L47 3L44 3L44 6L43 6L43 7L42 7L42 6L41 6L41 5L40 5L40 4L41 4L41 3L39 3L39 4L38 4L38 5L37 5L37 4L36 4L36 5L35 5L35 4L33 4L33 3L34 3L34 2L33 2L33 1L32 1L32 2L31 2L31 3L30 3L30 4L31 4L31 8L32 8L32 10L31 10L31 11L29 11L29 9L28 9L28 10L27 10L27 11L26 11L26 12L25 12L25 11L23 11L23 13L22 13L22 12L20 12L20 14L21 14L21 13L22 13L22 14L23 14L23 15L21 15L21 16L20 16L20 15L18 15L18 14L17 14L17 13L18 13L18 12L17 12L17 13L16 13L16 11L18 11L18 10L19 10L19 9L16 9L16 8L19 8L19 7L20 7L20 5L19 5L19 4L21 4L21 5L24 5L24 4L23 4L23 3L19 3L19 2L18 2L18 1ZM46 1L46 2L47 2L47 1ZM32 2L32 3L31 3L31 4L32 4L32 5L33 5L33 6L32 6L32 7L33 7L33 9L34 9L34 8L35 8L35 9L37 9L37 10L36 10L36 12L35 12L35 13L37 13L37 14L38 14L38 15L39 15L39 16L38 16L38 17L37 17L37 16L35 16L35 14L33 14L33 13L34 13L34 12L33 12L33 13L32 13L32 12L31 12L31 13L30 13L30 14L29 14L29 13L28 13L28 12L29 12L29 11L27 11L27 12L26 12L26 13L28 13L28 14L29 14L29 16L28 16L28 15L27 15L27 16L28 16L28 17L27 17L27 18L28 18L28 19L30 19L30 20L31 20L31 21L29 21L29 22L31 22L31 21L32 21L32 20L33 20L33 21L34 21L34 20L33 20L33 19L32 19L32 18L31 18L31 17L32 17L32 16L31 16L31 15L30 15L30 14L31 14L31 13L32 13L32 15L33 15L33 16L35 16L35 17L37 17L37 18L38 18L38 17L39 17L39 16L41 16L41 14L43 14L43 13L44 13L44 12L43 12L43 13L41 13L41 14L40 14L40 13L39 13L39 12L41 12L41 10L42 10L42 11L43 11L43 10L44 10L44 11L45 11L45 12L47 12L47 10L46 10L46 11L45 11L45 10L44 10L44 8L45 8L45 6L44 6L44 8L42 8L42 7L41 7L41 6L40 6L40 5L39 5L39 6L38 6L38 9L37 9L37 8L35 8L35 5L33 5L33 4L32 4L32 3L33 3L33 2ZM8 3L8 4L9 4L9 3ZM18 3L18 4L17 4L17 5L18 5L18 4L19 4L19 3ZM28 3L28 4L29 4L29 3ZM15 4L15 5L14 5L14 8L13 8L13 9L14 9L14 8L16 8L16 7L17 7L17 6L16 6L16 7L15 7L15 5L16 5L16 4ZM25 4L25 8L24 8L24 6L23 6L23 8L20 8L20 11L22 11L22 10L23 10L23 8L24 8L24 9L25 9L25 8L26 8L26 4ZM27 5L27 8L30 8L30 5ZM36 5L36 7L37 7L37 5ZM18 6L18 7L19 7L19 6ZM21 6L21 7L22 7L22 6ZM28 6L28 7L29 7L29 6ZM33 6L33 7L34 7L34 6ZM39 6L39 9L38 9L38 10L37 10L37 11L39 11L39 10L41 10L41 7L40 7L40 6ZM0 8L0 9L1 9L1 10L2 10L2 13L3 13L3 10L2 10L2 9L5 9L5 8ZM48 8L48 9L49 9L49 8ZM21 9L21 10L22 10L22 9ZM10 10L10 11L9 11L9 12L8 12L8 13L9 13L9 15L8 15L8 16L6 16L6 17L8 17L8 16L10 16L10 17L9 17L9 18L10 18L10 17L11 17L11 16L12 16L12 17L14 17L14 18L15 18L15 21L16 21L16 22L15 22L15 23L14 23L14 21L13 21L13 20L14 20L14 19L12 19L12 20L11 20L11 21L12 21L12 22L10 22L10 24L11 24L11 25L10 25L10 26L11 26L11 27L14 27L14 26L15 26L15 28L14 28L14 29L15 29L15 31L16 31L16 29L18 29L18 30L17 30L17 31L19 31L19 30L20 30L20 31L21 31L21 32L24 32L24 31L21 31L21 30L20 30L20 29L18 29L18 28L16 28L16 27L18 27L18 26L20 26L20 25L21 25L21 24L20 24L20 25L19 25L19 23L20 23L20 22L19 22L19 21L20 21L20 20L18 20L18 19L19 19L19 18L20 18L20 19L21 19L21 20L24 20L24 21L22 21L22 22L24 22L24 21L25 21L25 22L26 22L26 23L25 23L25 24L29 24L29 23L27 23L27 22L28 22L28 21L25 21L25 20L26 20L26 14L25 14L25 13L23 13L23 14L24 14L24 15L23 15L23 16L25 16L25 17L22 17L22 16L21 16L21 17L22 17L22 18L20 18L20 17L19 17L19 16L16 16L16 13L15 13L15 10ZM32 10L32 11L33 11L33 10ZM10 11L10 12L11 12L11 14L15 14L15 13L12 13L12 11ZM13 11L13 12L14 12L14 11ZM48 11L48 12L49 12L49 11ZM6 12L6 13L7 13L7 12ZM52 12L52 13L53 13L53 12ZM38 13L38 14L39 14L39 15L40 15L40 14L39 14L39 13ZM6 14L6 15L7 15L7 14ZM14 15L14 17L15 17L15 18L17 18L17 19L16 19L16 21L17 21L17 19L18 19L18 17L16 17L16 16L15 16L15 15ZM23 18L23 19L24 19L24 18ZM30 18L30 19L31 19L31 18ZM41 18L41 19L42 19L42 18ZM44 18L44 20L45 20L45 18ZM46 18L46 19L47 19L47 18ZM6 19L6 20L7 20L7 19ZM51 21L51 22L50 22L50 23L53 23L53 21ZM4 22L4 23L5 23L5 24L6 24L6 25L7 25L7 24L6 24L6 23L8 23L8 24L9 24L9 23L8 23L8 22L6 22L6 23L5 23L5 22ZM12 22L12 23L11 23L11 24L12 24L12 25L15 25L15 26L18 26L18 25L17 25L17 24L16 24L16 23L15 23L15 24L12 24L12 23L13 23L13 22ZM18 22L18 23L19 23L19 22ZM30 23L30 24L31 24L31 23ZM15 24L15 25L16 25L16 24ZM0 25L0 26L1 26L1 27L2 27L2 25ZM32 26L32 27L33 27L33 28L35 28L35 27L36 27L36 26L34 26L34 27L33 27L33 26ZM53 26L53 27L54 27L54 26ZM5 27L5 30L8 30L8 27ZM27 27L27 30L30 30L30 27ZM49 27L49 30L52 30L52 27ZM3 28L3 29L4 29L4 28ZM6 28L6 29L7 29L7 28ZM15 28L15 29L16 29L16 28ZM21 28L21 29L22 29L22 28ZM28 28L28 29L29 29L29 28ZM43 28L43 29L41 29L41 30L43 30L43 29L44 29L44 28ZM50 28L50 29L51 29L51 28ZM39 29L39 30L38 30L38 32L39 32L39 30L40 30L40 29ZM53 29L53 30L54 30L54 31L55 31L55 30L54 30L54 29ZM33 30L33 33L32 33L32 34L31 34L31 33L29 33L29 34L30 34L30 36L29 36L29 37L31 37L31 38L29 38L29 39L33 39L33 40L35 40L35 39L38 39L38 40L40 40L40 39L38 39L38 37L40 37L40 38L41 38L41 39L42 39L42 38L43 38L43 37L44 37L44 38L45 38L45 39L44 39L44 40L43 40L43 41L44 41L44 40L45 40L45 39L46 39L46 41L47 41L47 39L50 39L50 40L49 40L49 41L48 41L48 42L47 42L47 43L46 43L46 44L45 44L45 45L47 45L47 43L50 43L50 44L49 44L49 45L50 45L50 46L51 46L51 45L52 45L52 44L51 44L51 43L53 43L53 42L51 42L51 41L53 41L53 40L51 40L51 39L50 39L50 38L51 38L51 37L50 37L50 36L52 36L52 35L50 35L50 34L49 34L49 35L44 35L44 33L43 33L43 32L41 32L41 33L39 33L39 34L40 34L40 35L39 35L39 36L38 36L38 33L37 33L37 32L35 32L35 30ZM47 31L47 32L48 32L48 33L49 33L49 32L48 32L48 31ZM1 32L1 33L2 33L2 32ZM6 32L6 33L7 33L7 32ZM17 32L17 33L19 33L19 34L17 34L17 35L19 35L19 36L17 36L17 37L19 37L19 36L22 36L22 33L21 33L21 35L19 35L19 34L20 34L20 32ZM34 33L34 34L32 34L32 35L33 35L33 36L32 36L32 37L33 37L33 38L34 38L34 39L35 39L35 37L33 37L33 36L34 36L34 34L35 34L35 36L37 36L37 34L35 34L35 33ZM6 34L6 35L7 35L7 34ZM15 34L15 35L14 35L14 36L16 36L16 34ZM42 34L42 35L41 35L41 36L40 36L40 37L41 37L41 38L42 38L42 37L41 37L41 36L44 36L44 37L45 37L45 38L46 38L46 39L47 39L47 38L50 38L50 37L49 37L49 36L50 36L50 35L49 35L49 36L47 36L47 37L45 37L45 36L44 36L44 35L43 35L43 34ZM0 36L0 37L1 37L1 36ZM6 36L6 37L7 37L7 38L6 38L6 39L7 39L7 38L8 38L8 42L9 42L9 40L11 40L11 41L10 41L10 42L11 42L11 43L12 43L12 41L13 41L13 40L14 40L14 39L15 39L15 40L16 40L16 39L15 39L15 38L16 38L16 37L15 37L15 38L12 38L12 40L11 40L11 39L9 39L9 36ZM55 36L55 37L56 37L56 36ZM10 37L10 38L11 38L11 37ZM27 37L27 38L28 38L28 37ZM0 38L0 39L1 39L1 38ZM27 39L27 40L28 40L28 39ZM4 40L4 42L5 42L5 40ZM6 40L6 41L7 41L7 40ZM23 40L23 41L24 41L24 42L22 42L22 41L21 41L21 42L22 42L22 43L21 43L21 44L22 44L22 45L21 45L21 46L20 46L20 49L21 49L21 47L23 47L23 46L24 46L24 47L25 47L25 44L27 44L27 45L26 45L26 47L28 47L28 46L27 46L27 45L29 45L29 44L33 44L33 43L34 43L34 42L33 42L33 41L32 41L32 40L31 40L31 41L29 41L29 42L27 42L27 41L26 41L26 42L27 42L27 43L25 43L25 41L24 41L24 40ZM31 41L31 42L32 42L32 43L33 43L33 42L32 42L32 41ZM6 42L6 43L7 43L7 42ZM50 42L50 43L51 43L51 42ZM27 43L27 44L28 44L28 43ZM1 44L1 45L2 45L2 44ZM23 44L23 45L22 45L22 46L23 46L23 45L24 45L24 44ZM10 45L10 46L11 46L11 47L12 47L12 46L13 46L13 45L12 45L12 46L11 46L11 45ZM1 46L1 47L2 47L2 46ZM3 46L3 47L5 47L5 46ZM53 46L53 47L54 47L54 46ZM15 47L15 48L16 48L16 47ZM38 48L38 49L39 49L39 48ZM27 49L27 52L30 52L30 49ZM49 49L49 52L52 52L52 49ZM28 50L28 51L29 51L29 50ZM50 50L50 51L51 51L51 50ZM54 50L54 51L55 51L55 50ZM32 51L32 52L33 52L33 51ZM24 53L24 54L23 54L23 55L24 55L24 56L25 56L25 54L26 54L26 53ZM43 53L43 54L44 54L44 53ZM18 54L18 55L19 55L19 54ZM37 55L37 56L39 56L39 55ZM50 55L50 56L51 56L51 55ZM43 56L43 57L44 57L44 56ZM45 56L45 57L46 57L46 56ZM0 0L0 7L7 7L7 0ZM1 1L1 6L6 6L6 1ZM2 2L2 5L5 5L5 2ZM50 0L50 7L57 7L57 0ZM51 1L51 6L56 6L56 1ZM52 2L52 5L55 5L55 2ZM0 50L0 57L7 57L7 50ZM1 51L1 56L6 56L6 51ZM2 52L2 55L5 55L5 52Z" fill="#000000"/></g></g></svg>
