<?xml version="1.0" encoding="UTF-8"?>
<svg xmlns="http://www.w3.org/2000/svg" version="1.1" width="300" height="300" viewBox="0 0 300 300"><rect x="0" y="0" width="300" height="300" fill="#fefefe"/><g transform="scale(4.615)"><g transform="translate(4,4)"><path fill-rule="evenodd" d="M8 0L8 2L9 2L9 3L10 3L10 4L11 4L11 5L12 5L12 7L11 7L11 6L10 6L10 5L9 5L9 4L8 4L8 11L9 11L9 14L8 14L8 13L7 13L7 12L6 12L6 11L7 11L7 10L6 10L6 9L7 9L7 8L5 8L5 10L4 10L4 9L3 9L3 8L0 8L0 9L1 9L1 10L0 10L0 13L1 13L1 14L2 14L2 15L0 15L0 17L2 17L2 18L3 18L3 17L4 17L4 18L6 18L6 19L7 19L7 20L6 20L6 21L7 21L7 20L9 20L9 19L11 19L11 20L12 20L12 22L11 22L11 21L8 21L8 23L7 23L7 22L5 22L5 23L4 23L4 24L5 24L5 23L7 23L7 24L6 24L6 25L5 25L5 26L4 26L4 25L1 25L1 23L2 23L2 22L1 22L1 21L3 21L3 22L4 22L4 20L5 20L5 19L4 19L4 20L3 20L3 19L1 19L1 18L0 18L0 19L1 19L1 21L0 21L0 22L1 22L1 23L0 23L0 25L1 25L1 26L4 26L4 28L3 28L3 27L2 27L2 28L3 28L3 29L4 29L4 32L2 32L2 31L1 31L1 27L0 27L0 31L1 31L1 32L2 32L2 35L1 35L1 37L4 37L4 35L5 35L5 37L7 37L7 38L5 38L5 39L4 39L4 38L2 38L2 40L3 40L3 41L4 41L4 42L5 42L5 43L8 43L8 44L4 44L4 43L3 43L3 45L1 45L1 46L0 46L0 48L5 48L5 47L7 47L7 48L6 48L6 49L8 49L8 50L9 50L9 48L10 48L10 47L9 47L9 48L8 48L8 46L6 46L6 45L8 45L8 44L9 44L9 42L10 42L10 43L11 43L11 44L10 44L10 45L9 45L9 46L10 46L10 45L11 45L11 48L12 48L12 50L11 50L11 53L12 53L12 55L13 55L13 54L14 54L14 53L12 53L12 51L13 51L13 52L14 52L14 51L15 51L15 57L17 57L17 55L18 55L18 57L21 57L21 56L19 56L19 55L18 55L18 54L19 54L19 52L20 52L20 53L21 53L21 50L20 50L20 49L21 49L21 48L22 48L22 51L24 51L24 52L22 52L22 54L23 54L23 55L22 55L22 57L23 57L23 56L24 56L24 57L25 57L25 56L26 56L26 57L28 57L28 55L29 55L29 57L33 57L33 55L30 55L30 54L31 54L31 53L32 53L32 54L34 54L34 57L35 57L35 55L38 55L38 52L40 52L40 53L39 53L39 55L40 55L40 54L41 54L41 56L40 56L40 57L41 57L41 56L42 56L42 57L43 57L43 56L44 56L44 57L45 57L45 56L46 56L46 57L48 57L48 56L49 56L49 57L50 57L50 55L49 55L49 54L52 54L52 55L53 55L53 53L57 53L57 50L56 50L56 47L57 47L57 42L56 42L56 43L55 43L55 42L54 42L54 41L57 41L57 40L54 40L54 38L57 38L57 37L56 37L56 36L54 36L54 34L53 34L53 36L51 36L51 33L50 33L50 32L49 32L49 31L52 31L52 32L53 32L53 33L54 33L54 30L53 30L53 28L54 28L54 27L55 27L55 28L56 28L56 29L55 29L55 30L56 30L56 31L55 31L55 33L56 33L56 35L57 35L57 33L56 33L56 31L57 31L57 28L56 28L56 27L57 27L57 24L56 24L56 23L57 23L57 21L56 21L56 20L55 20L55 21L54 21L54 19L57 19L57 13L56 13L56 12L55 12L55 13L56 13L56 15L55 15L55 14L53 14L53 12L54 12L54 11L55 11L55 10L56 10L56 11L57 11L57 10L56 10L56 9L57 9L57 8L55 8L55 9L54 9L54 10L53 10L53 8L49 8L49 10L47 10L47 11L46 11L46 8L48 8L48 7L49 7L49 6L48 6L48 7L47 7L47 5L48 5L48 0L46 0L46 1L45 1L45 0L42 0L42 1L41 1L41 0L38 0L38 2L37 2L37 1L35 1L35 0L34 0L34 3L33 3L33 6L32 6L32 7L33 7L33 6L34 6L34 8L32 8L32 9L31 9L31 5L32 5L32 1L33 1L33 0L30 0L30 1L31 1L31 3L30 3L30 2L29 2L29 3L30 3L30 4L26 4L26 3L27 3L27 2L28 2L28 1L29 1L29 0L28 0L28 1L27 1L27 0L26 0L26 1L25 1L25 0L24 0L24 1L23 1L23 0L19 0L19 2L18 2L18 1L17 1L17 0L16 0L16 1L15 1L15 0L14 0L14 3L13 3L13 5L12 5L12 4L11 4L11 1L13 1L13 0L11 0L11 1L10 1L10 0ZM9 1L9 2L10 2L10 1ZM20 1L20 2L19 2L19 3L18 3L18 2L15 2L15 3L14 3L14 4L15 4L15 3L16 3L16 4L17 4L17 3L18 3L18 4L19 4L19 7L20 7L20 5L21 5L21 9L20 9L20 8L19 8L19 9L18 9L18 5L16 5L16 6L15 6L15 7L14 7L14 6L13 6L13 7L12 7L12 8L11 8L11 7L10 7L10 6L9 6L9 7L10 7L10 8L9 8L9 9L10 9L10 10L9 10L9 11L13 11L13 14L12 14L12 16L10 16L10 18L11 18L11 19L12 19L12 18L15 18L15 17L14 17L14 15L15 15L15 16L17 16L17 17L16 17L16 18L17 18L17 19L18 19L18 16L21 16L21 14L22 14L22 16L24 16L24 18L26 18L26 16L27 16L27 19L26 19L26 20L27 20L27 21L28 21L28 22L26 22L26 23L29 23L29 24L30 24L30 26L31 26L31 25L32 25L32 27L31 27L31 29L32 29L32 28L33 28L33 29L34 29L34 32L33 32L33 33L32 33L32 31L33 31L33 30L32 30L32 31L31 31L31 32L30 32L30 31L29 31L29 32L28 32L28 31L27 31L27 33L28 33L28 34L26 34L26 33L25 33L25 31L26 31L26 30L25 30L25 28L24 28L24 26L25 26L25 25L24 25L24 24L23 24L23 23L22 23L22 24L21 24L21 23L20 23L20 22L22 22L22 20L23 20L23 18L22 18L22 19L21 19L21 17L20 17L20 19L19 19L19 25L18 25L18 24L17 24L17 25L16 25L16 26L17 26L17 27L16 27L16 28L15 28L15 26L14 26L14 28L15 28L15 30L16 30L16 31L15 31L15 33L16 33L16 35L15 35L15 36L13 36L13 37L15 37L15 38L12 38L12 36L11 36L11 35L12 35L12 33L13 33L13 35L14 35L14 33L13 33L13 32L14 32L14 31L13 31L13 25L15 25L15 21L14 21L14 24L13 24L13 22L12 22L12 24L11 24L11 22L9 22L9 24L11 24L11 25L9 25L9 27L10 27L10 28L11 28L11 27L12 27L12 31L13 31L13 32L12 32L12 33L11 33L11 31L10 31L10 32L8 32L8 31L5 31L5 33L3 33L3 35L2 35L2 36L3 36L3 35L4 35L4 34L5 34L5 35L6 35L6 36L7 36L7 37L9 37L9 38L8 38L8 39L6 39L6 40L5 40L5 41L6 41L6 42L9 42L9 41L6 41L6 40L8 40L8 39L9 39L9 38L10 38L10 37L9 37L9 36L7 36L7 35L8 35L8 34L9 34L9 33L10 33L10 34L11 34L11 35L10 35L10 36L11 36L11 38L12 38L12 39L15 39L15 40L14 40L14 41L13 41L13 40L12 40L12 41L11 41L11 40L10 40L10 42L11 42L11 43L12 43L12 42L13 42L13 44L12 44L12 48L13 48L13 50L17 50L17 51L16 51L16 52L17 52L17 54L16 54L16 55L17 55L17 54L18 54L18 52L19 52L19 51L20 51L20 50L19 50L19 49L20 49L20 48L19 48L19 49L18 49L18 47L16 47L16 48L13 48L13 46L14 46L14 47L15 47L15 45L16 45L16 46L17 46L17 44L15 44L15 45L13 45L13 44L14 44L14 42L15 42L15 40L17 40L17 41L16 41L16 43L17 43L17 42L18 42L18 39L19 39L19 38L18 38L18 39L16 39L16 38L17 38L17 37L16 37L16 36L19 36L19 35L20 35L20 36L21 36L21 38L20 38L20 39L22 39L22 36L21 36L21 35L20 35L20 34L22 34L22 35L23 35L23 40L24 40L24 44L22 44L22 43L23 43L23 41L22 41L22 40L21 40L21 41L20 41L20 42L19 42L19 43L18 43L18 44L19 44L19 45L18 45L18 46L19 46L19 47L20 47L20 46L22 46L22 48L23 48L23 49L24 49L24 51L25 51L25 54L24 54L24 55L26 55L26 54L27 54L27 55L28 55L28 53L26 53L26 50L25 50L25 49L26 49L26 48L28 48L28 47L29 47L29 48L31 48L31 47L30 47L30 46L32 46L32 47L33 47L33 46L32 46L32 40L33 40L33 41L34 41L34 42L35 42L35 41L36 41L36 43L35 43L35 44L33 44L33 45L34 45L34 48L33 48L33 49L31 49L31 52L32 52L32 51L33 51L33 52L34 52L34 54L35 54L35 53L36 53L36 54L37 54L37 53L36 53L36 52L34 52L34 51L37 51L37 49L36 49L36 48L37 48L37 47L38 47L38 51L39 51L39 49L40 49L40 51L41 51L41 52L42 52L42 54L43 54L43 55L44 55L44 56L45 56L45 55L44 55L44 52L42 52L42 51L41 51L41 49L42 49L42 50L43 50L43 51L45 51L45 49L44 49L44 48L45 48L45 47L44 47L44 46L43 46L43 45L44 45L44 44L45 44L45 43L40 43L40 42L41 42L41 41L42 41L42 42L43 42L43 41L44 41L44 42L45 42L45 41L44 41L44 40L43 40L43 38L44 38L44 34L45 34L45 35L46 35L46 34L48 34L48 35L47 35L47 36L48 36L48 35L49 35L49 36L50 36L50 37L48 37L48 38L47 38L47 37L46 37L46 38L47 38L47 40L46 40L46 43L47 43L47 44L46 44L46 51L47 51L47 52L45 52L45 53L46 53L46 54L47 54L47 56L48 56L48 54L49 54L49 53L48 53L48 54L47 54L47 52L48 52L48 51L47 51L47 44L48 44L48 46L50 46L50 45L51 45L51 44L50 44L50 42L49 42L49 41L51 41L51 40L52 40L52 48L53 48L53 49L54 49L54 50L53 50L53 51L54 51L54 52L55 52L55 51L56 51L56 50L55 50L55 49L54 49L54 48L55 48L55 47L56 47L56 44L55 44L55 43L54 43L54 44L53 44L53 39L51 39L51 40L50 40L50 37L51 37L51 36L50 36L50 33L49 33L49 34L48 34L48 33L47 33L47 30L48 30L48 29L47 29L47 28L46 28L46 29L44 29L44 28L42 28L42 31L40 31L40 30L39 30L39 29L40 29L40 28L41 28L41 27L43 27L43 25L44 25L44 27L45 27L45 25L44 25L44 24L45 24L45 23L44 23L44 22L45 22L45 21L44 21L44 19L45 19L45 20L46 20L46 23L49 23L49 22L50 22L50 24L51 24L51 25L50 25L50 26L53 26L53 25L54 25L54 26L55 26L55 27L56 27L56 26L55 26L55 25L56 25L56 24L55 24L55 23L56 23L56 21L55 21L55 23L54 23L54 21L53 21L53 22L52 22L52 20L53 20L53 19L54 19L54 16L55 16L55 17L56 17L56 16L55 16L55 15L54 15L54 16L53 16L53 14L52 14L52 13L50 13L50 11L47 11L47 12L48 12L48 14L47 14L47 13L46 13L46 11L45 11L45 10L44 10L44 8L45 8L45 7L46 7L46 6L45 6L45 5L44 5L44 4L45 4L45 1L42 1L42 2L40 2L40 1L39 1L39 2L40 2L40 4L39 4L39 3L37 3L37 2L35 2L35 3L36 3L36 4L35 4L35 9L34 9L34 10L33 10L33 9L32 9L32 11L31 11L31 12L30 12L30 10L31 10L31 9L30 9L30 10L29 10L29 12L30 12L30 13L29 13L29 15L28 15L28 14L27 14L27 12L28 12L28 10L25 10L25 9L26 9L26 5L24 5L24 6L23 6L23 3L22 3L22 5L21 5L21 1ZM22 1L22 2L23 2L23 1ZM24 1L24 4L25 4L25 1ZM46 1L46 2L47 2L47 1ZM43 2L43 3L42 3L42 4L41 4L41 6L40 6L40 7L41 7L41 8L40 8L40 10L39 10L39 11L37 11L37 10L38 10L38 9L39 9L39 6L38 6L38 5L39 5L39 4L38 4L38 5L37 5L37 6L36 6L36 10L34 10L34 11L32 11L32 13L31 13L31 14L32 14L32 13L33 13L33 15L34 15L34 17L33 17L33 16L32 16L32 15L31 15L31 16L30 16L30 15L29 15L29 16L30 16L30 17L28 17L28 18L30 18L30 17L31 17L31 19L30 19L30 20L28 20L28 19L27 19L27 20L28 20L28 21L29 21L29 22L30 22L30 20L32 20L32 21L33 21L33 22L31 22L31 23L32 23L32 25L33 25L33 26L34 26L34 24L36 24L36 26L37 26L37 27L34 27L34 29L35 29L35 30L36 30L36 29L37 29L37 28L38 28L38 29L39 29L39 28L40 28L40 25L41 25L41 26L42 26L42 25L43 25L43 22L44 22L44 21L43 21L43 22L42 22L42 20L41 20L41 19L44 19L44 17L45 17L45 19L46 19L46 20L47 20L47 22L48 22L48 21L49 21L49 20L51 20L51 18L52 18L52 17L53 17L53 16L52 16L52 14L51 14L51 16L50 16L50 13L49 13L49 14L48 14L48 15L47 15L47 16L46 16L46 13L45 13L45 12L44 12L44 14L43 14L43 16L44 16L44 17L43 17L43 18L42 18L42 17L41 17L41 15L42 15L42 12L43 12L43 10L42 10L42 9L43 9L43 8L44 8L44 7L45 7L45 6L44 6L44 5L43 5L43 4L44 4L44 2ZM46 3L46 5L47 5L47 3ZM27 5L27 8L30 8L30 5ZM16 6L16 7L17 7L17 6ZM22 6L22 9L21 9L21 10L20 10L20 9L19 9L19 10L17 10L17 11L16 11L16 8L14 8L14 7L13 7L13 8L14 8L14 9L13 9L13 10L14 10L14 9L15 9L15 11L14 11L14 12L17 12L17 14L15 14L15 15L19 15L19 14L20 14L20 13L21 13L21 12L20 12L20 13L19 13L19 12L18 12L18 11L19 11L19 10L20 10L20 11L21 11L21 10L22 10L22 9L23 9L23 6ZM24 6L24 7L25 7L25 6ZM28 6L28 7L29 7L29 6ZM37 6L37 7L38 7L38 6ZM41 6L41 7L42 7L42 8L43 8L43 7L44 7L44 6L43 6L43 7L42 7L42 6ZM10 8L10 9L11 9L11 10L12 10L12 9L11 9L11 8ZM37 8L37 9L38 9L38 8ZM2 9L2 10L3 10L3 9ZM50 9L50 10L51 10L51 9ZM24 10L24 13L23 13L23 15L24 15L24 13L25 13L25 14L26 14L26 15L25 15L25 16L26 16L26 15L27 15L27 14L26 14L26 11L25 11L25 10ZM3 11L3 12L5 12L5 14L7 14L7 15L6 15L6 16L5 16L5 17L6 17L6 18L8 18L8 19L9 19L9 15L10 15L10 14L9 14L9 15L8 15L8 14L7 14L7 13L6 13L6 12L5 12L5 11ZM22 11L22 12L23 12L23 11ZM34 11L34 12L35 12L35 13L34 13L34 15L35 15L35 17L34 17L34 18L33 18L33 17L32 17L32 16L31 16L31 17L32 17L32 18L33 18L33 21L34 21L34 22L33 22L33 24L34 24L34 22L35 22L35 23L36 23L36 24L37 24L37 25L38 25L38 26L39 26L39 25L38 25L38 22L39 22L39 23L41 23L41 22L40 22L40 19L41 19L41 18L40 18L40 15L39 15L39 12L37 12L37 13L38 13L38 15L37 15L37 14L36 14L36 11ZM41 11L41 12L42 12L42 11ZM51 11L51 12L52 12L52 11ZM1 12L1 13L2 13L2 12ZM18 13L18 14L19 14L19 13ZM40 13L40 14L41 14L41 13ZM3 14L3 15L2 15L2 17L3 17L3 16L4 16L4 14ZM13 14L13 15L14 15L14 14ZM35 14L35 15L36 15L36 18L34 18L34 19L35 19L35 20L34 20L34 21L35 21L35 22L36 22L36 23L37 23L37 22L38 22L38 20L39 20L39 19L40 19L40 18L38 18L38 16L37 16L37 15L36 15L36 14ZM44 14L44 16L45 16L45 17L46 17L46 18L47 18L47 17L46 17L46 16L45 16L45 14ZM7 15L7 16L6 16L6 17L8 17L8 15ZM12 16L12 17L11 17L11 18L12 18L12 17L13 17L13 16ZM51 16L51 17L50 17L50 18L51 18L51 17L52 17L52 16ZM48 17L48 18L49 18L49 17ZM36 18L36 19L37 19L37 20L38 20L38 19L37 19L37 18ZM14 19L14 20L16 20L16 19ZM24 19L24 20L25 20L25 19ZM48 19L48 20L49 20L49 19ZM20 20L20 21L21 21L21 20ZM35 20L35 21L36 21L36 22L37 22L37 21L36 21L36 20ZM16 22L16 23L18 23L18 22ZM24 22L24 23L25 23L25 22ZM51 22L51 23L52 23L52 25L53 25L53 24L54 24L54 23L52 23L52 22ZM7 24L7 25L6 25L6 26L8 26L8 24ZM22 24L22 25L21 25L21 26L20 26L20 28L21 28L21 30L20 30L20 29L19 29L19 30L20 30L20 31L21 31L21 30L22 30L22 33L23 33L23 35L25 35L25 36L24 36L24 37L25 37L25 36L28 36L28 37L29 37L29 36L28 36L28 35L31 35L31 36L30 36L30 40L29 40L29 41L31 41L31 38L33 38L33 39L34 39L34 41L35 41L35 39L34 39L34 37L35 37L35 38L36 38L36 41L37 41L37 42L38 42L38 41L39 41L39 40L40 40L40 41L41 41L41 40L42 40L42 35L40 35L40 36L39 36L39 38L38 38L38 37L37 37L37 36L38 36L38 35L39 35L39 34L38 34L38 33L39 33L39 32L40 32L40 34L42 34L42 33L43 33L43 34L44 34L44 33L45 33L45 34L46 34L46 33L45 33L45 32L46 32L46 30L45 30L45 31L44 31L44 29L43 29L43 31L42 31L42 33L41 33L41 32L40 32L40 31L38 31L38 30L37 30L37 31L36 31L36 33L35 33L35 32L34 32L34 33L33 33L33 34L32 34L32 33L31 33L31 34L30 34L30 32L29 32L29 34L28 34L28 35L26 35L26 34L24 34L24 28L22 28L22 27L23 27L23 26L24 26L24 25L23 25L23 24ZM27 24L27 25L26 25L26 26L27 26L27 25L28 25L28 24ZM41 24L41 25L42 25L42 24ZM47 24L47 25L46 25L46 26L47 26L47 27L48 27L48 26L49 26L49 24ZM17 25L17 26L18 26L18 25ZM10 26L10 27L11 27L11 26ZM5 27L5 30L8 30L8 27ZM18 27L18 28L19 28L19 27ZM27 27L27 30L30 30L30 27ZM49 27L49 30L52 30L52 27ZM6 28L6 29L7 29L7 28ZM28 28L28 29L29 29L29 28ZM35 28L35 29L36 29L36 28ZM50 28L50 29L51 29L51 28ZM9 29L9 30L11 30L11 29ZM22 29L22 30L23 30L23 29ZM16 31L16 32L17 32L17 31ZM37 31L37 32L38 32L38 31ZM6 32L6 33L5 33L5 34L6 34L6 35L7 35L7 34L8 34L8 33L7 33L7 32ZM18 32L18 33L19 33L19 34L18 34L18 35L19 35L19 34L20 34L20 33L19 33L19 32ZM0 33L0 34L1 34L1 33ZM6 33L6 34L7 34L7 33ZM34 33L34 34L35 34L35 33ZM36 33L36 35L35 35L35 37L36 37L36 38L37 38L37 37L36 37L36 35L38 35L38 34L37 34L37 33ZM31 34L31 35L32 35L32 34ZM33 35L33 37L34 37L34 35ZM31 36L31 37L32 37L32 36ZM53 36L53 37L52 37L52 38L54 38L54 36ZM26 37L26 38L24 38L24 39L26 39L26 40L25 40L25 41L26 41L26 42L25 42L25 45L26 45L26 46L25 46L25 47L26 47L26 46L27 46L27 47L28 47L28 44L29 44L29 45L30 45L30 43L31 43L31 42L30 42L30 43L28 43L28 40L27 40L27 39L26 39L26 38L27 38L27 37ZM28 38L28 39L29 39L29 38ZM39 38L39 39L40 39L40 40L41 40L41 39L40 39L40 38ZM48 38L48 40L47 40L47 41L48 41L48 40L49 40L49 38ZM0 39L0 40L1 40L1 39ZM37 39L37 41L38 41L38 39ZM0 41L0 44L2 44L2 41ZM19 43L19 44L20 44L20 43ZM37 43L37 44L36 44L36 45L35 45L35 46L36 46L36 45L37 45L37 46L38 46L38 45L37 45L37 44L39 44L39 43ZM48 43L48 44L49 44L49 43ZM40 44L40 46L41 46L41 47L40 47L40 49L41 49L41 47L42 47L42 45L43 45L43 44L42 44L42 45L41 45L41 44ZM4 45L4 46L3 46L3 47L5 47L5 45ZM23 45L23 48L24 48L24 45ZM53 45L53 46L54 46L54 47L53 47L53 48L54 48L54 47L55 47L55 45ZM1 46L1 47L2 47L2 46ZM17 49L17 50L18 50L18 51L19 51L19 50L18 50L18 49ZM27 49L27 52L30 52L30 49ZM33 49L33 51L34 51L34 49ZM49 49L49 52L52 52L52 49ZM28 50L28 51L29 51L29 50ZM50 50L50 51L51 51L51 50ZM8 51L8 52L9 52L9 51ZM8 54L8 57L10 57L10 56L9 56L9 54ZM10 54L10 55L11 55L11 54ZM20 54L20 55L21 55L21 54ZM54 54L54 55L57 55L57 54ZM36 56L36 57L37 57L37 56ZM51 56L51 57L53 57L53 56ZM56 56L56 57L57 57L57 56ZM0 0L0 7L7 7L7 0ZM1 1L1 6L6 6L6 1ZM2 2L2 5L5 5L5 2ZM50 0L50 7L57 7L57 0ZM51 1L51 6L56 6L56 1ZM52 2L52 5L55 5L55 2ZM0 50L0 57L7 57L7 50ZM1 51L1 56L6 56L6 51ZM2 52L2 55L5 55L5 52Z" fill="#000000"/></g></g></svg>
