<?xml version="1.0" encoding="UTF-8"?>
<svg xmlns="http://www.w3.org/2000/svg" version="1.1" width="300" height="300" viewBox="0 0 300 300"><rect x="0" y="0" width="300" height="300" fill="#fefefe"/><g transform="scale(4.615)"><g transform="translate(4,4)"><path fill-rule="evenodd" d="M8 0L8 1L10 1L10 0ZM11 0L11 1L12 1L12 2L10 2L10 3L9 3L9 2L8 2L8 5L10 5L10 10L9 10L9 12L8 12L8 10L5 10L5 11L3 11L3 12L2 12L2 10L1 10L1 12L2 12L2 15L1 15L1 14L0 14L0 16L1 16L1 18L2 18L2 19L0 19L0 23L1 23L1 20L3 20L3 22L2 22L2 23L3 23L3 24L2 24L2 25L3 25L3 24L4 24L4 25L5 25L5 26L4 26L4 27L3 27L3 26L1 26L1 27L2 27L2 28L1 28L1 29L2 29L2 28L4 28L4 29L3 29L3 31L7 31L7 32L5 32L5 33L3 33L3 32L2 32L2 33L0 33L0 39L1 39L1 40L2 40L2 41L0 41L0 42L3 42L3 44L2 44L2 43L0 43L0 48L5 48L5 47L7 47L7 48L6 48L6 49L8 49L8 50L9 50L9 52L10 52L10 53L8 53L8 57L9 57L9 55L10 55L10 56L11 56L11 57L13 57L13 56L14 56L14 57L15 57L15 56L16 56L16 57L18 57L18 56L19 56L19 57L23 57L23 56L22 56L22 55L23 55L23 54L26 54L26 55L27 55L27 56L28 56L28 55L27 55L27 53L29 53L29 54L31 54L31 55L30 55L30 56L31 56L31 57L32 57L32 55L34 55L34 56L33 56L33 57L36 57L36 55L38 55L38 57L41 57L41 56L39 56L39 55L41 55L41 54L42 54L42 57L43 57L43 55L44 55L44 56L45 56L45 57L46 57L46 54L47 54L47 55L49 55L49 56L48 56L48 57L51 57L51 54L52 54L52 53L54 53L54 54L53 54L53 55L54 55L54 54L56 54L56 53L54 53L54 52L55 52L55 50L57 50L57 48L56 48L56 49L55 49L55 48L54 48L54 47L57 47L57 44L52 44L52 43L53 43L53 42L54 42L54 43L56 43L56 42L54 42L54 41L55 41L55 38L56 38L56 39L57 39L57 38L56 38L56 36L57 36L57 31L56 31L56 30L57 30L57 29L56 29L56 30L55 30L55 32L54 32L54 31L53 31L53 30L54 30L54 29L55 29L55 27L53 27L53 26L51 26L51 24L54 24L54 23L53 23L53 22L54 22L54 21L56 21L56 22L55 22L55 23L57 23L57 19L56 19L56 18L57 18L57 15L55 15L55 13L57 13L57 12L56 12L56 11L57 11L57 10L55 10L55 13L54 13L54 10L53 10L53 13L52 13L52 12L51 12L51 11L50 11L50 10L49 10L49 9L50 9L50 8L49 8L49 9L47 9L47 8L45 8L45 6L44 6L44 7L43 7L43 5L45 5L45 4L44 4L44 3L45 3L45 2L46 2L46 3L47 3L47 5L46 5L46 7L47 7L47 5L48 5L48 0L46 0L46 1L44 1L44 2L41 2L41 1L43 1L43 0L41 0L41 1L40 1L40 0L39 0L39 1L40 1L40 2L41 2L41 3L43 3L43 5L42 5L42 7L43 7L43 8L39 8L39 9L40 9L40 10L38 10L38 9L37 9L37 11L38 11L38 12L35 12L35 11L36 11L36 10L35 10L35 11L34 11L34 10L33 10L33 11L30 11L30 12L31 12L31 13L32 13L32 12L33 12L33 14L30 14L30 13L28 13L28 12L26 12L26 14L27 14L27 17L25 17L25 16L26 16L26 15L25 15L25 14L23 14L23 15L24 15L24 16L23 16L23 18L24 18L24 19L25 19L25 20L27 20L27 21L25 21L25 22L24 22L24 21L23 21L23 19L22 19L22 22L19 22L19 21L18 21L18 20L20 20L20 18L19 18L19 17L18 17L18 18L19 18L19 19L17 19L17 17L15 17L15 16L16 16L16 15L17 15L17 14L16 14L16 15L15 15L15 12L16 12L16 13L17 13L17 12L18 12L18 13L19 13L19 14L18 14L18 16L19 16L19 14L21 14L21 13L20 13L20 12L21 12L21 11L23 11L23 12L22 12L22 13L23 13L23 12L25 12L25 11L26 11L26 10L27 10L27 9L29 9L29 10L28 10L28 11L29 11L29 10L32 10L32 9L31 9L31 6L32 6L32 8L33 8L33 6L32 6L32 5L31 5L31 4L32 4L32 3L33 3L33 5L34 5L34 4L36 4L36 5L37 5L37 6L36 6L36 7L35 7L35 6L34 6L34 9L36 9L36 8L38 8L38 7L39 7L39 6L38 6L38 5L40 5L40 7L41 7L41 4L39 4L39 2L37 2L37 1L38 1L38 0L37 0L37 1L36 1L36 0L35 0L35 1L34 1L34 2L35 2L35 3L33 3L33 0L29 0L29 1L28 1L28 0L27 0L27 4L26 4L26 2L24 2L24 3L23 3L23 1L26 1L26 0L23 0L23 1L22 1L22 0L21 0L21 2L20 2L20 0L18 0L18 1L19 1L19 2L20 2L20 3L23 3L23 5L22 5L22 4L21 4L21 5L20 5L20 4L19 4L19 3L18 3L18 2L17 2L17 4L18 4L18 7L19 7L19 8L20 8L20 7L21 7L21 9L23 9L23 10L20 10L20 9L18 9L18 8L17 8L17 12L16 12L16 11L14 11L14 9L13 9L13 8L15 8L15 6L16 6L16 7L17 7L17 5L15 5L15 4L14 4L14 3L12 3L12 2L13 2L13 1L14 1L14 0ZM35 1L35 2L36 2L36 1ZM46 1L46 2L47 2L47 1ZM15 2L15 3L16 3L16 2ZM28 2L28 4L29 4L29 2ZM37 3L37 4L38 4L38 3ZM10 4L10 5L11 5L11 7L12 7L12 8L13 8L13 7L14 7L14 4L12 4L12 5L11 5L11 4ZM24 4L24 6L23 6L23 7L24 7L24 8L23 8L23 9L26 9L26 6L25 6L25 5L26 5L26 4ZM12 5L12 7L13 7L13 5ZM27 5L27 8L30 8L30 5ZM8 6L8 7L9 7L9 6ZM19 6L19 7L20 7L20 6ZM21 6L21 7L22 7L22 6ZM24 6L24 7L25 7L25 6ZM28 6L28 7L29 7L29 6ZM37 6L37 7L38 7L38 6ZM48 6L48 7L49 7L49 6ZM0 8L0 9L4 9L4 8ZM6 8L6 9L7 9L7 8ZM8 8L8 9L9 9L9 8ZM43 8L43 9L44 9L44 10L42 10L42 11L41 11L41 10L40 10L40 12L39 12L39 13L40 13L40 14L41 14L41 16L40 16L40 17L39 17L39 15L37 15L37 14L36 14L36 13L35 13L35 12L34 12L34 14L33 14L33 15L32 15L32 16L33 16L33 15L35 15L35 16L34 16L34 17L35 17L35 20L36 20L36 21L38 21L38 22L35 22L35 21L34 21L34 20L33 20L33 17L31 17L31 16L29 16L29 15L28 15L28 16L29 16L29 17L27 17L27 18L25 18L25 17L24 17L24 18L25 18L25 19L27 19L27 20L28 20L28 18L29 18L29 17L30 17L30 19L29 19L29 21L28 21L28 23L27 23L27 22L25 22L25 25L24 25L24 24L22 24L22 25L23 25L23 26L25 26L25 25L29 25L29 26L31 26L31 23L32 23L32 22L33 22L33 24L32 24L32 25L33 25L33 24L35 24L35 23L36 23L36 24L37 24L37 23L38 23L38 24L39 24L39 25L40 25L40 26L38 26L38 27L40 27L40 29L41 29L41 23L42 23L42 24L44 24L44 26L43 26L43 25L42 25L42 26L43 26L43 27L42 27L42 28L43 28L43 27L45 27L45 29L42 29L42 30L41 30L41 31L40 31L40 30L39 30L39 29L38 29L38 30L36 30L36 31L37 31L37 32L36 32L36 33L37 33L37 32L38 32L38 34L39 34L39 31L40 31L40 32L41 32L41 31L43 31L43 30L44 30L44 33L45 33L45 35L46 35L46 36L44 36L44 37L42 37L42 38L44 38L44 39L45 39L45 40L46 40L46 41L47 41L47 42L46 42L46 43L47 43L47 42L48 42L48 43L49 43L49 44L51 44L51 42L50 42L50 41L52 41L52 40L53 40L53 39L54 39L54 38L53 38L53 36L52 36L52 35L51 35L51 36L49 36L49 37L48 37L48 35L49 35L49 34L50 34L50 33L49 33L49 32L48 32L48 30L47 30L47 33L45 33L45 32L46 32L46 31L45 31L45 30L46 30L46 26L49 26L49 25L50 25L50 24L51 24L51 23L52 23L52 22L51 22L51 21L50 21L50 20L53 20L53 21L54 21L54 20L56 20L56 19L51 19L51 17L50 17L50 16L52 16L52 17L53 17L53 18L54 18L54 17L55 17L55 16L53 16L53 14L54 14L54 13L53 13L53 14L52 14L52 13L51 13L51 12L50 12L50 13L51 13L51 15L50 15L50 16L49 16L49 12L48 12L48 11L49 11L49 10L48 10L48 11L45 11L45 10L47 10L47 9L45 9L45 8ZM52 8L52 9L55 9L55 8ZM56 8L56 9L57 9L57 8ZM12 9L12 11L13 11L13 9ZM18 10L18 12L19 12L19 11L20 11L20 10ZM23 10L23 11L24 11L24 10ZM6 11L6 12L7 12L7 11ZM10 11L10 12L9 12L9 13L10 13L10 16L9 16L9 14L7 14L7 13L5 13L5 14L7 14L7 15L6 15L6 16L7 16L7 17L6 17L6 18L3 18L3 20L4 20L4 21L5 21L5 20L7 20L7 21L6 21L6 22L7 22L7 21L9 21L9 19L10 19L10 20L11 20L11 21L12 21L12 23L13 23L13 24L11 24L11 22L9 22L9 24L8 24L8 23L5 23L5 24L8 24L8 25L9 25L9 26L10 26L10 27L11 27L11 28L12 28L12 29L11 29L11 30L12 30L12 32L13 32L13 33L12 33L12 34L11 34L11 32L10 32L10 31L8 31L8 32L7 32L7 33L6 33L6 34L7 34L7 33L8 33L8 36L7 36L7 35L6 35L6 36L7 36L7 37L4 37L4 36L2 36L2 35L4 35L4 34L2 34L2 35L1 35L1 36L2 36L2 37L1 37L1 38L2 38L2 40L4 40L4 39L3 39L3 38L2 38L2 37L4 37L4 38L5 38L5 39L6 39L6 40L5 40L5 41L6 41L6 42L7 42L7 43L5 43L5 46L4 46L4 44L3 44L3 45L1 45L1 47L2 47L2 46L3 46L3 47L5 47L5 46L8 46L8 48L9 48L9 50L10 50L10 52L12 52L12 51L11 51L11 50L10 50L10 49L12 49L12 48L14 48L14 49L16 49L16 50L15 50L15 51L16 51L16 52L15 52L15 53L16 53L16 54L17 54L17 53L18 53L18 54L19 54L19 51L22 51L22 49L23 49L23 52L22 52L22 53L20 53L20 55L19 55L19 56L20 56L20 55L21 55L21 54L22 54L22 53L23 53L23 52L24 52L24 53L25 53L25 52L26 52L26 51L24 51L24 50L25 50L25 49L26 49L26 48L28 48L28 47L27 47L27 46L29 46L29 48L31 48L31 45L30 45L30 44L31 44L31 43L29 43L29 45L28 45L28 44L27 44L27 42L25 42L25 41L26 41L26 38L29 38L29 36L32 36L32 38L30 38L30 39L28 39L28 40L27 40L27 41L29 41L29 42L31 42L31 40L33 40L33 39L32 39L32 38L33 38L33 37L34 37L34 39L35 39L35 40L34 40L34 41L36 41L36 42L34 42L34 43L36 43L36 45L35 45L35 44L34 44L34 45L33 45L33 42L32 42L32 45L33 45L33 47L32 47L32 49L31 49L31 50L32 50L32 49L34 49L34 51L35 51L35 49L34 49L34 48L33 48L33 47L34 47L34 46L37 46L37 45L38 45L38 47L35 47L35 48L37 48L37 49L36 49L36 50L37 50L37 49L38 49L38 48L39 48L39 49L40 49L40 50L39 50L39 51L36 51L36 52L35 52L35 53L36 53L36 54L35 54L35 55L36 55L36 54L39 54L39 53L37 53L37 52L40 52L40 54L41 54L41 52L42 52L42 51L45 51L45 52L46 52L46 53L47 53L47 52L48 52L48 48L46 48L46 46L47 46L47 45L48 45L48 44L43 44L43 43L42 43L42 42L44 42L44 43L45 43L45 41L43 41L43 40L42 40L42 39L39 39L39 38L37 38L37 37L35 37L35 36L36 36L36 35L35 35L35 31L33 31L33 29L32 29L32 31L33 31L33 32L31 32L31 34L30 34L30 35L29 35L29 33L30 33L30 32L29 32L29 31L28 31L28 33L25 33L25 34L24 34L24 35L23 35L23 33L24 33L24 32L23 32L23 33L22 33L22 35L23 35L23 36L21 36L21 35L19 35L19 32L20 32L20 34L21 34L21 32L22 32L22 31L23 31L23 30L21 30L21 29L24 29L24 30L26 30L26 28L25 28L25 27L22 27L22 26L21 26L21 28L20 28L20 27L16 27L16 26L19 26L19 25L20 25L20 24L21 24L21 23L20 23L20 24L19 24L19 25L16 25L16 26L15 26L15 27L14 27L14 29L13 29L13 27L11 27L11 26L13 26L13 24L14 24L14 25L15 25L15 23L16 23L16 24L17 24L17 23L19 23L19 22L18 22L18 21L17 21L17 23L16 23L16 20L17 20L17 19L15 19L15 18L12 18L12 16L13 16L13 14L14 14L14 13L13 13L13 12L11 12L11 11ZM42 11L42 12L43 12L43 13L44 13L44 14L42 14L42 17L41 17L41 18L39 18L39 19L40 19L40 20L39 20L39 24L40 24L40 23L41 23L41 22L43 22L43 23L45 23L45 22L44 22L44 21L42 21L42 20L43 20L43 18L42 18L42 17L45 17L45 18L44 18L44 19L45 19L45 20L46 20L46 19L47 19L47 18L48 18L48 19L49 19L49 20L50 20L50 19L49 19L49 18L48 18L48 14L47 14L47 17L46 17L46 16L44 16L44 15L45 15L45 14L46 14L46 13L44 13L44 11ZM10 12L10 13L11 13L11 12ZM3 13L3 14L4 14L4 13ZM11 14L11 15L12 15L12 14ZM35 14L35 15L36 15L36 14ZM2 15L2 17L3 17L3 16L4 16L4 17L5 17L5 15ZM14 15L14 16L15 16L15 15ZM20 15L20 17L21 17L21 18L22 18L22 17L21 17L21 15ZM8 16L8 17L7 17L7 18L6 18L6 19L7 19L7 20L8 20L8 19L9 19L9 18L10 18L10 17L11 17L11 16L10 16L10 17L9 17L9 16ZM8 17L8 18L7 18L7 19L8 19L8 18L9 18L9 17ZM36 17L36 18L37 18L37 17ZM41 18L41 20L42 20L42 18ZM45 18L45 19L46 19L46 18ZM12 19L12 21L13 21L13 23L14 23L14 20L15 20L15 19ZM30 19L30 20L32 20L32 19ZM36 19L36 20L38 20L38 19ZM30 21L30 23L28 23L28 24L30 24L30 23L31 23L31 21ZM47 21L47 22L46 22L46 23L47 23L47 24L45 24L45 26L46 26L46 25L49 25L49 24L50 24L50 23L49 23L49 21ZM22 22L22 23L23 23L23 22ZM26 23L26 24L27 24L27 23ZM0 24L0 25L1 25L1 24ZM9 24L9 25L11 25L11 24ZM55 24L55 25L56 25L56 24ZM6 25L6 26L7 26L7 25ZM34 25L34 27L35 27L35 25ZM5 27L5 30L8 30L8 27ZM27 27L27 30L30 30L30 27ZM32 27L32 28L33 28L33 27ZM47 27L47 28L48 28L48 27ZM49 27L49 30L52 30L52 27ZM56 27L56 28L57 28L57 27ZM6 28L6 29L7 29L7 28ZM15 28L15 29L14 29L14 30L15 30L15 31L13 31L13 32L15 32L15 33L14 33L14 35L15 35L15 36L14 36L14 37L15 37L15 36L17 36L17 38L14 38L14 39L13 39L13 40L14 40L14 39L15 39L15 40L16 40L16 39L17 39L17 40L20 40L20 41L21 41L21 42L20 42L20 43L21 43L21 42L22 42L22 44L21 44L21 46L20 46L20 45L17 45L17 43L15 43L15 45L17 45L17 47L16 47L16 46L14 46L14 45L12 45L12 44L11 44L11 43L10 43L10 42L9 42L9 41L8 41L8 43L7 43L7 44L6 44L6 45L8 45L8 46L9 46L9 47L11 47L11 48L12 48L12 47L13 47L13 46L14 46L14 47L15 47L15 48L17 48L17 52L18 52L18 51L19 51L19 49L20 49L20 50L21 50L21 48L23 48L23 49L24 49L24 48L25 48L25 47L24 47L24 46L25 46L25 45L26 45L26 46L27 46L27 45L26 45L26 43L23 43L23 42L24 42L24 41L25 41L25 39L24 39L24 37L25 37L25 36L23 36L23 38L22 38L22 37L21 37L21 38L20 38L20 37L19 37L19 35L18 35L18 36L17 36L17 34L18 34L18 32L19 32L19 31L20 31L20 32L21 32L21 31L20 31L20 30L18 30L18 32L16 32L16 30L17 30L17 28ZM18 28L18 29L20 29L20 28ZM28 28L28 29L29 29L29 28ZM34 28L34 29L37 29L37 28ZM50 28L50 29L51 29L51 28ZM53 28L53 29L54 29L54 28ZM9 29L9 30L10 30L10 29ZM15 29L15 30L16 30L16 29ZM0 30L0 32L1 32L1 31L2 31L2 30ZM38 30L38 31L39 31L39 30ZM25 31L25 32L27 32L27 31ZM50 31L50 32L52 32L52 34L54 34L54 33L53 33L53 32L52 32L52 31ZM9 32L9 34L10 34L10 32ZM33 32L33 33L32 33L32 34L31 34L31 35L32 35L32 36L34 36L34 34L33 34L33 33L34 33L34 32ZM42 32L42 33L43 33L43 32ZM15 33L15 35L16 35L16 34L17 34L17 33ZM55 33L55 34L56 34L56 33ZM12 34L12 35L11 35L11 37L9 37L9 40L10 40L10 41L11 41L11 42L12 42L12 43L13 43L13 44L14 44L14 42L13 42L13 41L11 41L11 40L12 40L12 38L13 38L13 34ZM25 34L25 35L26 35L26 34ZM27 34L27 36L29 36L29 35L28 35L28 34ZM41 34L41 35L39 35L39 36L38 36L38 35L37 35L37 36L38 36L38 37L39 37L39 36L40 36L40 37L41 37L41 36L43 36L43 35L44 35L44 34L43 34L43 35L42 35L42 34ZM46 34L46 35L48 35L48 34ZM9 35L9 36L10 36L10 35ZM54 35L54 36L56 36L56 35ZM45 37L45 38L46 38L46 40L47 40L47 41L50 41L50 40L51 40L51 39L52 39L52 37L49 37L49 38L51 38L51 39L49 39L49 40L47 40L47 39L48 39L48 38L46 38L46 37ZM6 38L6 39L7 39L7 38ZM17 38L17 39L19 39L19 38ZM21 38L21 40L22 40L22 41L23 41L23 40L24 40L24 39L22 39L22 38ZM35 38L35 39L36 39L36 38ZM10 39L10 40L11 40L11 39ZM38 39L38 40L37 40L37 41L40 41L40 42L42 42L42 40L41 40L41 41L40 41L40 40L39 40L39 39ZM6 40L6 41L7 41L7 40ZM56 40L56 41L57 41L57 40ZM3 41L3 42L4 42L4 41ZM15 41L15 42L18 42L18 43L19 43L19 41ZM37 42L37 44L38 44L38 45L39 45L39 47L43 47L43 50L44 50L44 48L45 48L45 45L42 45L42 43L40 43L40 44L38 44L38 43L39 43L39 42ZM49 42L49 43L50 43L50 42ZM9 43L9 45L11 45L11 46L12 46L12 45L11 45L11 44L10 44L10 43ZM22 44L22 46L21 46L21 47L22 47L22 46L23 46L23 45L25 45L25 44ZM49 45L49 46L48 46L48 47L49 47L49 48L50 48L50 46L51 46L51 48L53 48L53 50L55 50L55 49L54 49L54 48L53 48L53 47L52 47L52 46L54 46L54 45ZM55 45L55 46L56 46L56 45ZM18 46L18 47L17 47L17 48L18 48L18 47L20 47L20 46ZM41 48L41 49L42 49L42 48ZM27 49L27 52L30 52L30 49ZM45 49L45 50L46 50L46 52L47 52L47 50L46 50L46 49ZM49 49L49 52L52 52L52 49ZM13 50L13 51L14 51L14 50ZM28 50L28 51L29 51L29 50ZM50 50L50 51L51 51L51 50ZM31 51L31 53L32 53L32 51ZM40 51L40 52L41 52L41 51ZM56 51L56 52L57 52L57 51ZM33 52L33 53L34 53L34 52ZM10 53L10 55L11 55L11 56L13 56L13 55L14 55L14 56L15 56L15 54L12 54L12 53ZM42 53L42 54L43 54L43 53ZM48 53L48 54L50 54L50 53ZM11 54L11 55L12 55L12 54ZM44 54L44 55L45 55L45 54ZM17 55L17 56L18 56L18 55ZM24 55L24 56L25 56L25 55ZM56 55L56 56L57 56L57 55ZM52 56L52 57L55 57L55 56ZM0 0L0 7L7 7L7 0ZM1 1L1 6L6 6L6 1ZM2 2L2 5L5 5L5 2ZM50 0L50 7L57 7L57 0ZM51 1L51 6L56 6L56 1ZM52 2L52 5L55 5L55 2ZM0 50L0 57L7 57L7 50ZM1 51L1 56L6 56L6 51ZM2 52L2 55L5 55L5 52Z" fill="#000000"/></g></g></svg>
