<?xml version="1.0" encoding="UTF-8"?>
<svg xmlns="http://www.w3.org/2000/svg" version="1.1" width="300" height="300" viewBox="0 0 300 300"><rect x="0" y="0" width="300" height="300" fill="#fefefe"/><g transform="scale(4.615)"><g transform="translate(4,4)"><path fill-rule="evenodd" d="M10 0L10 2L11 2L11 4L10 4L10 3L8 3L8 4L9 4L9 5L8 5L8 7L9 7L9 5L10 5L10 8L6 8L6 9L5 9L5 8L0 8L0 11L1 11L1 12L2 12L2 13L0 13L0 17L1 17L1 16L2 16L2 17L3 17L3 14L4 14L4 15L5 15L5 14L6 14L6 15L7 15L7 14L6 14L6 13L9 13L9 11L10 11L10 10L9 10L9 9L11 9L11 10L12 10L12 11L11 11L11 12L10 12L10 15L8 15L8 17L9 17L9 18L10 18L10 17L9 17L9 16L11 16L11 17L12 17L12 19L13 19L13 20L14 20L14 19L13 19L13 18L14 18L14 16L16 16L16 17L19 17L19 18L20 18L20 19L19 19L19 20L17 20L17 21L16 21L16 20L15 20L15 21L16 21L16 22L15 22L15 23L16 23L16 24L17 24L17 25L19 25L19 27L20 27L20 29L18 29L18 28L16 28L16 29L15 29L15 28L14 28L14 31L16 31L16 29L18 29L18 30L17 30L17 31L18 31L18 32L17 32L17 34L15 34L15 33L16 33L16 32L14 32L14 33L12 33L12 32L13 32L13 30L12 30L12 29L9 29L9 27L10 27L10 28L13 28L13 25L14 25L14 27L16 27L16 26L15 26L15 25L14 25L14 21L12 21L12 25L11 25L11 27L10 27L10 23L11 23L11 22L10 22L10 21L11 21L11 19L9 19L9 20L8 20L8 21L7 21L7 20L6 20L6 19L7 19L7 18L6 18L6 17L7 17L7 16L6 16L6 17L5 17L5 16L4 16L4 19L3 19L3 18L2 18L2 19L1 19L1 20L0 20L0 26L2 26L2 25L3 25L3 26L4 26L4 27L2 27L2 28L4 28L4 29L3 29L3 30L2 30L2 29L1 29L1 31L3 31L3 30L4 30L4 31L7 31L7 32L4 32L4 34L3 34L3 32L1 32L1 33L0 33L0 37L1 37L1 34L3 34L3 35L2 35L2 36L3 36L3 37L2 37L2 38L3 38L3 40L2 40L2 39L1 39L1 40L0 40L0 41L1 41L1 42L2 42L2 43L3 43L3 44L4 44L4 43L5 43L5 47L3 47L3 46L4 46L4 45L3 45L3 46L2 46L2 45L1 45L1 43L0 43L0 48L5 48L5 47L7 47L7 48L6 48L6 49L7 49L7 48L8 48L8 47L7 47L7 46L9 46L9 48L10 48L10 46L9 46L9 45L7 45L7 44L9 44L9 43L11 43L11 41L10 41L10 40L12 40L12 41L13 41L13 42L12 42L12 44L13 44L13 45L11 45L11 47L13 47L13 48L12 48L12 49L11 49L11 51L9 51L9 50L10 50L10 49L8 49L8 51L9 51L9 52L8 52L8 57L9 57L9 56L11 56L11 57L13 57L13 56L12 56L12 55L11 55L11 54L13 54L13 53L12 53L12 52L11 52L11 51L12 51L12 50L13 50L13 49L14 49L14 51L13 51L13 52L14 52L14 53L16 53L16 54L14 54L14 57L16 57L16 56L17 56L17 57L20 57L20 56L19 56L19 55L20 55L20 54L19 54L19 53L20 53L20 52L21 52L21 51L22 51L22 52L23 52L23 51L22 51L22 50L25 50L25 51L26 51L26 52L24 52L24 53L23 53L23 54L22 54L22 55L23 55L23 57L26 57L26 56L27 56L27 57L29 57L29 56L30 56L30 57L31 57L31 56L35 56L35 57L39 57L39 56L40 56L40 55L41 55L41 57L42 57L42 55L44 55L44 56L43 56L43 57L44 57L44 56L45 56L45 57L47 57L47 55L48 55L48 57L49 57L49 56L50 56L50 57L52 57L52 55L51 55L51 53L52 53L52 54L53 54L53 55L54 55L54 56L53 56L53 57L54 57L54 56L55 56L55 57L56 57L56 56L55 56L55 54L53 54L53 52L54 52L54 53L56 53L56 49L57 49L57 48L56 48L56 46L57 46L57 45L56 45L56 44L55 44L55 43L56 43L56 42L57 42L57 41L56 41L56 42L55 42L55 39L57 39L57 37L56 37L56 34L57 34L57 32L56 32L56 30L57 30L57 28L56 28L56 29L54 29L54 28L55 28L55 27L56 27L56 26L57 26L57 25L56 25L56 22L57 22L57 19L55 19L55 18L57 18L57 17L56 17L56 16L57 16L57 15L56 15L56 14L57 14L57 12L56 12L56 14L55 14L55 13L54 13L54 12L55 12L55 11L56 11L56 10L54 10L54 11L52 11L52 10L53 10L53 9L54 9L54 8L53 8L53 9L52 9L52 8L51 8L51 9L52 9L52 10L49 10L49 9L50 9L50 8L49 8L49 9L47 9L47 8L48 8L48 7L49 7L49 6L48 6L48 7L47 7L47 5L48 5L48 0L45 0L45 1L47 1L47 2L44 2L44 3L41 3L41 2L43 2L43 0L41 0L41 1L40 1L40 0L39 0L39 1L38 1L38 0L37 0L37 1L38 1L38 2L39 2L39 3L41 3L41 4L40 4L40 5L39 5L39 6L38 6L38 7L37 7L37 5L38 5L38 3L36 3L36 0L35 0L35 1L33 1L33 0L29 0L29 1L30 1L30 2L28 2L28 3L27 3L27 4L26 4L26 3L23 3L23 2L27 2L27 1L25 1L25 0L23 0L23 2L22 2L22 0L21 0L21 1L18 1L18 0L17 0L17 1L14 1L14 0ZM8 1L8 2L9 2L9 1ZM12 1L12 2L14 2L14 4L13 4L13 3L12 3L12 4L11 4L11 5L12 5L12 6L11 6L11 7L12 7L12 6L13 6L13 8L11 8L11 9L12 9L12 10L13 10L13 8L14 8L14 10L15 10L15 11L16 11L16 12L15 12L15 13L13 13L13 12L14 12L14 11L12 11L12 14L11 14L11 16L12 16L12 17L13 17L13 16L14 16L14 14L15 14L15 13L16 13L16 16L19 16L19 15L21 15L21 16L20 16L20 18L22 18L22 17L25 17L25 16L24 16L24 15L26 15L26 18L25 18L25 19L26 19L26 21L31 21L31 23L28 23L28 24L25 24L25 23L26 23L26 22L25 22L25 21L24 21L24 20L22 20L22 21L21 21L21 19L20 19L20 21L19 21L19 22L20 22L20 23L19 23L19 24L22 24L22 25L20 25L20 26L22 26L22 27L21 27L21 28L22 28L22 29L20 29L20 30L19 30L19 31L20 31L20 30L21 30L21 31L23 31L23 32L21 32L21 33L20 33L20 36L19 36L19 33L18 33L18 34L17 34L17 35L15 35L15 37L16 37L16 38L15 38L15 39L16 39L16 41L14 41L14 39L13 39L13 38L12 38L12 37L10 37L10 36L9 36L9 35L8 35L8 34L9 34L9 33L10 33L10 31L11 31L11 32L12 32L12 30L9 30L9 32L8 32L8 33L6 33L6 34L7 34L7 35L5 35L5 36L7 36L7 35L8 35L8 37L6 37L6 38L5 38L5 37L3 37L3 38L4 38L4 40L3 40L3 41L6 41L6 42L5 42L5 43L6 43L6 44L7 44L7 43L9 43L9 42L7 42L7 41L9 41L9 40L10 40L10 38L12 38L12 39L13 39L13 41L14 41L14 42L13 42L13 43L15 43L15 45L14 45L14 48L15 48L15 47L16 47L16 49L15 49L15 50L17 50L17 51L16 51L16 53L17 53L17 52L18 52L18 51L19 51L19 52L20 52L20 50L21 50L21 49L23 49L23 47L21 47L21 45L22 45L22 46L23 46L23 45L22 45L22 44L21 44L21 43L22 43L22 42L23 42L23 44L24 44L24 45L25 45L25 46L24 46L24 47L25 47L25 48L24 48L24 49L25 49L25 48L29 48L29 46L32 46L32 49L31 49L31 50L32 50L32 49L33 49L33 50L34 50L34 51L33 51L33 52L32 52L32 51L31 51L31 53L30 53L30 54L27 54L27 56L29 56L29 55L30 55L30 56L31 56L31 54L32 54L32 53L33 53L33 54L35 54L35 56L36 56L36 54L35 54L35 50L36 50L36 52L38 52L38 53L37 53L37 54L40 54L40 53L41 53L41 52L42 52L42 53L43 53L43 54L44 54L44 55L45 55L45 54L46 54L46 55L47 55L47 54L48 54L48 50L47 50L47 49L48 49L48 48L49 48L49 47L51 47L51 46L52 46L52 48L53 48L53 46L54 46L54 47L55 47L55 46L56 46L56 45L55 45L55 44L54 44L54 45L53 45L53 43L54 43L54 42L53 42L53 41L54 41L54 40L53 40L53 35L55 35L55 34L56 34L56 32L53 32L53 31L48 31L48 27L47 27L47 25L48 25L48 24L49 24L49 25L50 25L50 26L52 26L52 25L53 25L53 23L50 23L50 22L51 22L51 21L54 21L54 23L55 23L55 22L56 22L56 20L53 20L53 19L52 19L52 18L51 18L51 17L50 17L50 16L52 16L52 17L53 17L53 18L55 18L55 17L53 17L53 16L52 16L52 15L50 15L50 14L51 14L51 12L50 12L50 11L49 11L49 12L45 12L45 11L44 11L44 13L43 13L43 10L44 10L44 9L45 9L45 10L47 10L47 9L45 9L45 7L46 7L46 5L47 5L47 3L44 3L44 6L43 6L43 5L42 5L42 6L41 6L41 5L40 5L40 6L39 6L39 7L40 7L40 8L38 8L38 10L37 10L37 9L35 9L35 8L37 8L37 7L36 7L36 5L37 5L37 4L36 4L36 5L35 5L35 2L33 2L33 1L32 1L32 2L31 2L31 3L32 3L32 4L31 4L31 8L32 8L32 10L31 10L31 11L29 11L29 12L28 12L28 13L26 13L26 12L27 12L27 11L28 11L28 10L29 10L29 9L27 9L27 11L26 11L26 12L25 12L25 10L23 10L23 12L24 12L24 13L22 13L22 12L21 12L21 13L20 13L20 11L22 11L22 10L21 10L21 9L23 9L23 8L24 8L24 6L23 6L23 5L24 5L24 4L23 4L23 3L21 3L21 2L19 2L19 4L17 4L17 3L15 3L15 2L14 2L14 1ZM17 1L17 2L18 2L18 1ZM32 2L32 3L33 3L33 2ZM28 3L28 4L30 4L30 3ZM15 4L15 5L16 5L16 4ZM19 4L19 5L20 5L20 7L19 7L19 6L18 6L18 7L19 7L19 8L16 8L16 7L17 7L17 6L16 6L16 7L15 7L15 6L14 6L14 5L13 5L13 6L14 6L14 7L15 7L15 8L16 8L16 9L15 9L15 10L16 10L16 9L17 9L17 10L18 10L18 11L17 11L17 12L16 12L16 13L17 13L17 14L18 14L18 15L19 15L19 14L20 14L20 13L19 13L19 11L20 11L20 8L22 8L22 7L23 7L23 6L22 6L22 7L21 7L21 5L22 5L22 4ZM25 4L25 8L26 8L26 4ZM32 4L32 5L34 5L34 7L33 7L33 6L32 6L32 7L33 7L33 9L34 9L34 8L35 8L35 5L34 5L34 4ZM45 4L45 5L46 5L46 4ZM27 5L27 8L30 8L30 5ZM28 6L28 7L29 7L29 6ZM40 6L40 7L41 7L41 8L42 8L42 9L41 9L41 10L40 10L40 9L39 9L39 10L38 10L38 11L37 11L37 10L36 10L36 11L35 11L35 14L33 14L33 13L34 13L34 12L33 12L33 13L32 13L32 12L31 12L31 13L30 13L30 14L29 14L29 13L28 13L28 14L29 14L29 16L28 16L28 15L27 15L27 16L28 16L28 17L27 17L27 18L28 18L28 19L29 19L29 20L31 20L31 21L32 21L32 20L34 20L34 21L35 21L35 23L34 23L34 22L33 22L33 23L32 23L32 24L31 24L31 25L29 25L29 26L28 26L28 25L27 25L27 26L26 26L26 25L25 25L25 24L24 24L24 23L23 23L23 22L24 22L24 21L22 21L22 22L21 22L21 23L22 23L22 24L23 24L23 25L22 25L22 26L23 26L23 31L26 31L26 32L25 32L25 33L23 33L23 34L24 34L24 36L23 36L23 35L22 35L22 33L21 33L21 36L23 36L23 37L19 37L19 36L17 36L17 38L18 38L18 39L17 39L17 40L18 40L18 41L17 41L17 42L16 42L16 44L18 44L18 45L17 45L17 49L19 49L19 50L20 50L20 49L19 49L19 48L20 48L20 45L19 45L19 44L20 44L20 43L19 43L19 42L20 42L20 41L21 41L21 42L22 42L22 41L21 41L21 40L22 40L22 39L21 39L21 38L23 38L23 39L24 39L24 40L25 40L25 39L26 39L26 40L27 40L27 41L26 41L26 42L27 42L27 41L32 41L32 42L29 42L29 43L24 43L24 44L27 44L27 45L26 45L26 47L28 47L28 46L27 46L27 45L28 45L28 44L29 44L29 43L32 43L32 44L31 44L31 45L32 45L32 44L33 44L33 43L34 43L34 45L35 45L35 46L33 46L33 49L34 49L34 48L35 48L35 49L36 49L36 50L38 50L38 52L39 52L39 51L40 51L40 52L41 52L41 50L42 50L42 51L43 51L43 53L44 53L44 54L45 54L45 53L44 53L44 52L45 52L45 51L46 51L46 53L47 53L47 51L46 51L46 50L45 50L45 49L44 49L44 48L43 48L43 47L44 47L44 46L43 46L43 45L44 45L44 44L45 44L45 45L47 45L47 46L45 46L45 47L46 47L46 49L47 49L47 48L48 48L48 47L49 47L49 44L48 44L48 43L50 43L50 46L51 46L51 43L53 43L53 42L51 42L51 41L53 41L53 40L51 40L51 39L52 39L52 38L51 38L51 39L49 39L49 41L48 41L48 42L44 42L44 44L43 44L43 41L44 41L44 40L45 40L45 39L46 39L46 40L47 40L47 39L48 39L48 37L47 37L47 35L46 35L46 34L45 34L45 35L44 35L44 33L43 33L43 32L45 32L45 31L47 31L47 32L48 32L48 33L49 33L49 32L48 32L48 31L47 31L47 30L46 30L46 29L47 29L47 27L46 27L46 26L44 26L44 28L43 28L43 29L39 29L39 30L38 30L38 32L39 32L39 31L40 31L40 30L43 30L43 29L44 29L44 28L45 28L45 30L44 30L44 31L43 31L43 32L41 32L41 33L39 33L39 34L40 34L40 35L38 35L38 33L37 33L37 32L35 32L35 34L37 34L37 35L38 35L38 37L37 37L37 36L35 36L35 35L34 35L34 36L33 36L33 33L34 33L34 32L33 32L33 31L36 31L36 30L33 30L33 29L32 29L32 27L33 27L33 28L35 28L35 29L38 29L38 28L39 28L39 27L36 27L36 26L34 26L34 27L33 27L33 26L32 26L32 24L33 24L33 25L37 25L37 26L38 26L38 24L39 24L39 22L40 22L40 24L42 24L42 25L41 25L41 26L43 26L43 25L44 25L44 24L43 24L43 23L44 23L44 20L45 20L45 21L47 21L47 22L45 22L45 24L46 24L46 25L47 25L47 22L49 22L49 21L51 21L51 20L52 20L52 19L48 19L48 18L50 18L50 17L49 17L49 16L48 16L48 15L49 15L49 14L50 14L50 12L49 12L49 13L47 13L47 14L45 14L45 13L44 13L44 15L42 15L42 16L41 16L41 15L40 15L40 14L38 14L38 13L40 13L40 12L41 12L41 10L43 10L43 9L44 9L44 8L43 8L43 6L42 6L42 7L41 7L41 6ZM44 6L44 7L45 7L45 6ZM55 8L55 9L56 9L56 8ZM1 9L1 11L2 11L2 12L3 12L3 11L4 11L4 10L5 10L5 12L4 12L4 14L5 14L5 13L6 13L6 12L7 12L7 11L9 11L9 10L7 10L7 9L6 9L6 10L5 10L5 9L4 9L4 10L3 10L3 11L2 11L2 9ZM6 10L6 11L7 11L7 10ZM32 10L32 11L33 11L33 10ZM39 11L39 12L40 12L40 11ZM17 12L17 13L18 13L18 12ZM52 12L52 13L53 13L53 12ZM2 13L2 14L1 14L1 15L2 15L2 14L3 14L3 13ZM21 13L21 15L23 15L23 14L22 14L22 13ZM24 13L24 14L26 14L26 13ZM31 13L31 14L30 14L30 15L32 15L32 17L31 17L31 18L30 18L30 19L31 19L31 18L32 18L32 19L34 19L34 20L35 20L35 19L36 19L36 20L37 20L37 21L38 21L38 22L39 22L39 21L43 21L43 20L44 20L44 18L45 18L45 19L46 19L46 20L47 20L47 21L49 21L49 20L47 20L47 19L46 19L46 18L47 18L47 16L46 16L46 15L44 15L44 18L43 18L43 19L42 19L42 18L41 18L41 20L39 20L39 21L38 21L38 20L37 20L37 19L39 19L39 17L41 17L41 16L39 16L39 15L38 15L38 14L37 14L37 13L36 13L36 14L37 14L37 15L35 15L35 16L33 16L33 15L32 15L32 13ZM41 13L41 14L43 14L43 13ZM12 14L12 16L13 16L13 14ZM21 16L21 17L22 17L22 16ZM35 16L35 17L37 17L37 18L38 18L38 17L39 17L39 16L38 16L38 17L37 17L37 16ZM42 16L42 17L43 17L43 16ZM45 16L45 17L46 17L46 16ZM23 18L23 19L24 19L24 18ZM2 19L2 20L3 20L3 19ZM4 19L4 21L5 21L5 22L7 22L7 23L5 23L5 24L4 24L4 25L5 25L5 24L7 24L7 25L6 25L6 26L9 26L9 23L10 23L10 22L9 22L9 23L8 23L8 22L7 22L7 21L5 21L5 19ZM9 20L9 21L10 21L10 20ZM1 21L1 23L4 23L4 22L3 22L3 21ZM17 21L17 22L18 22L18 21ZM17 23L17 24L18 24L18 23ZM37 23L37 24L38 24L38 23ZM1 24L1 25L2 25L2 24ZM55 25L55 26L56 26L56 25ZM17 26L17 27L18 27L18 26ZM25 26L25 27L24 27L24 28L25 28L25 29L26 29L26 28L25 28L25 27L26 27L26 26ZM31 26L31 27L32 27L32 26ZM53 26L53 27L54 27L54 26ZM5 27L5 30L8 30L8 27ZM27 27L27 30L30 30L30 27ZM41 27L41 28L42 28L42 27ZM45 27L45 28L46 28L46 27ZM49 27L49 30L52 30L52 27ZM6 28L6 29L7 29L7 28ZM28 28L28 29L29 29L29 28ZM50 28L50 29L51 29L51 28ZM31 29L31 31L27 31L27 32L26 32L26 33L25 33L25 35L26 35L26 36L25 36L25 38L26 38L26 37L28 37L28 38L27 38L27 39L28 39L28 40L32 40L32 41L33 41L33 42L32 42L32 43L33 43L33 42L34 42L34 43L35 43L35 44L36 44L36 43L37 43L37 42L35 42L35 40L38 40L38 42L39 42L39 44L40 44L40 45L38 45L38 46L41 46L41 48L39 48L39 47L38 47L38 48L37 48L37 49L38 49L38 50L41 50L41 48L42 48L42 49L43 49L43 50L44 50L44 51L45 51L45 50L44 50L44 49L43 49L43 48L42 48L42 47L43 47L43 46L41 46L41 44L42 44L42 42L40 42L40 41L42 41L42 40L44 40L44 39L45 39L45 38L46 38L46 39L47 39L47 37L46 37L46 36L44 36L44 35L43 35L43 34L42 34L42 35L41 35L41 36L40 36L40 37L38 37L38 38L37 38L37 39L35 39L35 37L33 37L33 36L32 36L32 37L33 37L33 39L29 39L29 38L31 38L31 37L29 37L29 36L30 36L30 34L29 34L29 33L31 33L31 35L32 35L32 33L33 33L33 32L32 32L32 29ZM53 29L53 30L54 30L54 31L55 31L55 30L54 30L54 29ZM28 32L28 33L29 33L29 32ZM31 32L31 33L32 33L32 32ZM50 32L50 34L49 34L49 35L50 35L50 37L49 37L49 38L50 38L50 37L52 37L52 35L53 35L53 34L52 34L52 33L53 33L53 32L52 32L52 33L51 33L51 32ZM26 33L26 35L27 35L27 33ZM54 33L54 34L55 34L55 33ZM11 34L11 36L13 36L13 37L14 37L14 36L13 36L13 35L14 35L14 34ZM50 34L50 35L52 35L52 34ZM3 35L3 36L4 36L4 35ZM42 35L42 36L43 36L43 37L40 37L40 38L43 38L43 37L44 37L44 38L45 38L45 37L44 37L44 36L43 36L43 35ZM18 37L18 38L19 38L19 39L18 39L18 40L19 40L19 41L18 41L18 42L17 42L17 43L18 43L18 42L19 42L19 41L20 41L20 40L19 40L19 39L20 39L20 38L19 38L19 37ZM23 37L23 38L24 38L24 37ZM6 38L6 39L8 39L8 40L9 40L9 38ZM54 38L54 39L55 39L55 38ZM33 39L33 40L35 40L35 39ZM38 39L38 40L39 40L39 39ZM41 39L41 40L42 40L42 39ZM6 40L6 41L7 41L7 40ZM23 41L23 42L25 42L25 41ZM6 42L6 43L7 43L7 42ZM50 42L50 43L51 43L51 42ZM40 43L40 44L41 44L41 43ZM45 43L45 44L46 44L46 43ZM47 44L47 45L48 45L48 44ZM6 45L6 46L7 46L7 45ZM36 45L36 46L35 46L35 48L36 48L36 46L37 46L37 45ZM1 46L1 47L2 47L2 46ZM47 46L47 47L48 47L48 46ZM18 47L18 48L19 48L19 47ZM38 48L38 49L39 49L39 48ZM54 48L54 49L56 49L56 48ZM27 49L27 52L30 52L30 49ZM49 49L49 52L52 52L52 49ZM28 50L28 51L29 51L29 50ZM50 50L50 51L51 51L51 50ZM54 50L54 51L55 51L55 50ZM9 52L9 53L10 53L10 54L9 54L9 55L10 55L10 54L11 54L11 52ZM33 52L33 53L34 53L34 52ZM24 53L24 54L23 54L23 55L24 55L24 56L26 56L26 54L25 54L25 53ZM15 55L15 56L16 56L16 55ZM37 55L37 56L39 56L39 55ZM50 55L50 56L51 56L51 55ZM0 0L0 7L7 7L7 0ZM1 1L1 6L6 6L6 1ZM2 2L2 5L5 5L5 2ZM50 0L50 7L57 7L57 0ZM51 1L51 6L56 6L56 1ZM52 2L52 5L55 5L55 2ZM0 50L0 57L7 57L7 50ZM1 51L1 56L6 56L6 51ZM2 52L2 55L5 55L5 52Z" fill="#000000"/></g></g></svg>
