<?xml version="1.0" encoding="UTF-8"?>
<svg xmlns="http://www.w3.org/2000/svg" version="1.1" width="300" height="300" viewBox="0 0 300 300"><rect x="0" y="0" width="300" height="300" fill="#fefefe"/><g transform="scale(4.615)"><g transform="translate(4,4)"><path fill-rule="evenodd" d="M8 0L8 2L9 2L9 3L10 3L10 4L12 4L12 3L13 3L13 5L14 5L14 9L13 9L13 6L12 6L12 8L11 8L11 6L10 6L10 5L9 5L9 4L8 4L8 9L7 9L7 8L5 8L5 9L4 9L4 10L1 10L1 11L7 11L7 12L3 12L3 13L4 13L4 16L3 16L3 15L2 15L2 13L1 13L1 12L0 12L0 15L2 15L2 18L0 18L0 20L2 20L2 19L3 19L3 21L2 21L2 24L1 24L1 23L0 23L0 25L3 25L3 23L5 23L5 21L7 21L7 20L8 20L8 18L9 18L9 19L10 19L10 20L9 20L9 22L8 22L8 24L6 24L6 25L7 25L7 26L3 26L3 27L2 27L2 26L1 26L1 27L0 27L0 28L3 28L3 29L2 29L2 31L0 31L0 32L2 32L2 31L3 31L3 29L4 29L4 31L8 31L8 34L5 34L5 33L4 33L4 32L3 32L3 33L0 33L0 34L3 34L3 36L2 36L2 35L1 35L1 36L2 36L2 37L0 37L0 38L1 38L1 39L2 39L2 40L1 40L1 41L0 41L0 48L5 48L5 47L7 47L7 48L6 48L6 49L8 49L8 50L9 50L9 51L8 51L8 52L9 52L9 51L10 51L10 52L11 52L11 53L12 53L12 54L11 54L11 57L14 57L14 56L15 56L15 57L17 57L17 55L18 55L18 57L21 57L21 56L22 56L22 57L23 57L23 56L24 56L24 57L25 57L25 55L26 55L26 57L28 57L28 55L29 55L29 57L33 57L33 55L30 55L30 54L31 54L31 53L32 53L32 54L34 54L34 57L35 57L35 55L38 55L38 47L37 47L37 48L36 48L36 49L37 49L37 51L35 51L35 52L36 52L36 53L35 53L35 54L34 54L34 52L33 52L33 51L32 51L32 50L31 50L31 48L32 48L32 49L33 49L33 50L34 50L34 49L35 49L35 48L34 48L34 45L33 45L33 44L36 44L36 45L37 45L37 46L38 46L38 45L37 45L37 44L39 44L39 43L40 43L40 42L41 42L41 43L43 43L43 42L44 42L44 41L45 41L45 44L44 44L44 45L45 45L45 46L44 46L44 50L45 50L45 51L43 51L43 50L42 50L42 49L41 49L41 47L42 47L42 45L43 45L43 44L42 44L42 45L41 45L41 44L40 44L40 46L41 46L41 47L40 47L40 49L39 49L39 52L40 52L40 53L39 53L39 55L40 55L40 57L41 57L41 56L42 56L42 57L43 57L43 54L42 54L42 53L43 53L43 52L44 52L44 55L45 55L45 56L44 56L44 57L45 57L45 56L46 56L46 55L47 55L47 54L48 54L48 56L47 56L47 57L50 57L50 55L49 55L49 54L52 54L52 55L53 55L53 54L54 54L54 55L57 55L57 54L54 54L54 53L55 53L55 52L54 52L54 51L53 51L53 50L54 50L54 49L56 49L56 47L57 47L57 42L56 42L56 43L55 43L55 42L54 42L54 41L57 41L57 40L54 40L54 39L55 39L55 38L57 38L57 34L56 34L56 31L57 31L57 29L53 29L53 28L54 28L54 27L55 27L55 28L56 28L56 27L57 27L57 24L56 24L56 23L57 23L57 21L56 21L56 19L57 19L57 12L56 12L56 15L55 15L55 16L54 16L54 14L53 14L53 12L54 12L54 11L55 11L55 10L56 10L56 11L57 11L57 10L56 10L56 9L57 9L57 8L55 8L55 9L54 9L54 10L53 10L53 8L49 8L49 6L48 6L48 8L46 8L46 7L47 7L47 5L48 5L48 0L46 0L46 1L47 1L47 2L45 2L45 4L44 4L44 2L43 2L43 3L41 3L41 4L42 4L42 5L43 5L43 6L42 6L42 7L41 7L41 6L40 6L40 7L39 7L39 6L38 6L38 5L39 5L39 4L40 4L40 2L42 2L42 1L45 1L45 0L42 0L42 1L41 1L41 0L38 0L38 2L37 2L37 1L35 1L35 0L34 0L34 2L37 2L37 4L38 4L38 5L37 5L37 6L36 6L36 10L34 10L34 9L35 9L35 4L36 4L36 3L35 3L35 4L34 4L34 3L33 3L33 6L32 6L32 7L33 7L33 6L34 6L34 8L32 8L32 9L31 9L31 5L32 5L32 2L31 2L31 3L30 3L30 1L31 1L31 0L30 0L30 1L29 1L29 0L28 0L28 1L27 1L27 0L26 0L26 1L25 1L25 0L24 0L24 1L23 1L23 0L20 0L20 1L19 1L19 0L18 0L18 1L17 1L17 0L16 0L16 1L17 1L17 2L16 2L16 3L15 3L15 0L14 0L14 3L13 3L13 1L12 1L12 0ZM9 1L9 2L10 2L10 1ZM18 1L18 2L17 2L17 3L16 3L16 4L17 4L17 3L18 3L18 4L19 4L19 7L18 7L18 6L17 6L17 5L16 5L16 6L15 6L15 9L14 9L14 10L13 10L13 9L9 9L9 11L8 11L8 12L9 12L9 13L6 13L6 14L7 14L7 15L6 15L6 16L4 16L4 17L6 17L6 18L7 18L7 17L8 17L8 16L9 16L9 15L8 15L8 14L10 14L10 13L11 13L11 14L12 14L12 13L13 13L13 14L14 14L14 16L13 16L13 15L10 15L10 19L11 19L11 21L12 21L12 22L10 22L10 23L9 23L9 24L8 24L8 25L10 25L10 27L9 27L9 28L12 28L12 29L9 29L9 30L10 30L10 31L9 31L9 33L10 33L10 31L11 31L11 34L10 34L10 35L9 35L9 34L8 34L8 35L5 35L5 34L4 34L4 33L3 33L3 34L4 34L4 36L3 36L3 37L2 37L2 38L3 38L3 40L2 40L2 41L3 41L3 42L2 42L2 43L1 43L1 47L2 47L2 46L3 46L3 47L5 47L5 46L3 46L3 45L2 45L2 43L3 43L3 44L4 44L4 45L6 45L6 46L7 46L7 47L8 47L8 49L9 49L9 50L10 50L10 48L12 48L12 46L15 46L15 47L14 47L14 49L15 49L15 47L16 47L16 50L15 50L15 51L14 51L14 50L13 50L13 49L11 49L11 50L12 50L12 51L13 51L13 52L12 52L12 53L14 53L14 55L15 55L15 53L14 53L14 52L15 52L15 51L16 51L16 52L17 52L17 53L18 53L18 55L19 55L19 56L21 56L21 55L23 55L23 54L21 54L21 53L20 53L20 51L21 51L21 50L22 50L22 48L23 48L23 49L24 49L24 51L23 51L23 52L24 52L24 51L25 51L25 53L26 53L26 50L25 50L25 49L26 49L26 48L27 48L27 46L26 46L26 45L25 45L25 44L24 44L24 42L26 42L26 41L25 41L25 40L26 40L26 39L27 39L27 40L28 40L28 43L27 43L27 44L28 44L28 47L30 47L30 48L31 48L31 47L32 47L32 48L33 48L33 49L34 49L34 48L33 48L33 47L32 47L32 40L33 40L33 41L34 41L34 42L35 42L35 41L36 41L36 44L37 44L37 43L39 43L39 42L40 42L40 40L41 40L41 41L42 41L42 42L43 42L43 41L44 41L44 40L43 40L43 38L44 38L44 35L43 35L43 33L42 33L42 31L44 31L44 27L45 27L45 26L44 26L44 24L45 24L45 23L46 23L46 24L47 24L47 25L46 25L46 26L49 26L49 25L50 25L50 26L51 26L51 25L52 25L52 26L53 26L53 25L54 25L54 26L55 26L55 25L56 25L56 24L55 24L55 23L56 23L56 21L55 21L55 19L56 19L56 18L55 18L55 19L54 19L54 17L52 17L52 15L53 15L53 14L52 14L52 13L50 13L50 11L51 11L51 12L52 12L52 11L53 11L53 10L52 10L52 9L48 9L48 10L47 10L47 9L46 9L46 8L45 8L45 7L46 7L46 6L45 6L45 5L44 5L44 4L43 4L43 5L44 5L44 6L43 6L43 7L42 7L42 8L43 8L43 9L42 9L42 11L41 11L41 9L40 9L40 8L41 8L41 7L40 7L40 8L38 8L38 6L37 6L37 8L38 8L38 10L37 10L37 11L34 11L34 10L33 10L33 9L32 9L32 11L31 11L31 12L30 12L30 10L31 10L31 9L30 9L30 10L28 10L28 9L27 9L27 10L25 10L25 9L26 9L26 5L24 5L24 6L23 6L23 9L24 9L24 10L22 10L22 5L23 5L23 1L22 1L22 2L21 2L21 3L19 3L19 1ZM24 1L24 4L25 4L25 1ZM39 1L39 2L38 2L38 4L39 4L39 2L40 2L40 1ZM11 2L11 3L12 3L12 2ZM27 2L27 3L26 3L26 4L27 4L27 3L28 3L28 4L30 4L30 3L29 3L29 2ZM14 3L14 4L15 4L15 3ZM21 3L21 4L22 4L22 3ZM46 3L46 5L47 5L47 3ZM20 5L20 7L19 7L19 8L18 8L18 7L17 7L17 6L16 6L16 7L17 7L17 8L18 8L18 9L19 9L19 10L16 10L16 9L15 9L15 10L16 10L16 11L14 11L14 12L16 12L16 11L17 11L17 14L15 14L15 15L17 15L17 16L18 16L18 17L17 17L17 18L18 18L18 21L17 21L17 20L14 20L14 19L16 19L16 17L15 17L15 16L14 16L14 17L13 17L13 16L11 16L11 18L12 18L12 17L13 17L13 19L12 19L12 21L13 21L13 22L14 22L14 21L15 21L15 24L14 24L14 23L11 23L11 24L10 24L10 25L11 25L11 26L13 26L13 27L14 27L14 28L13 28L13 29L12 29L12 30L13 30L13 31L14 31L14 32L12 32L12 33L13 33L13 35L12 35L12 34L11 34L11 35L10 35L10 36L11 36L11 35L12 35L12 36L13 36L13 35L14 35L14 37L13 37L13 38L12 38L12 37L11 37L11 38L12 38L12 41L13 41L13 38L14 38L14 39L15 39L15 38L14 38L14 37L15 37L15 36L16 36L16 37L17 37L17 38L16 38L16 39L17 39L17 40L15 40L15 42L13 42L13 43L12 43L12 42L10 42L10 43L8 43L8 44L6 44L6 43L7 43L7 42L6 42L6 41L7 41L7 40L6 40L6 39L7 39L7 38L10 38L10 37L7 37L7 36L6 36L6 37L5 37L5 38L4 38L4 37L3 37L3 38L4 38L4 43L5 43L5 44L6 44L6 45L7 45L7 46L8 46L8 47L9 47L9 48L10 48L10 47L9 47L9 46L11 46L11 45L12 45L12 44L14 44L14 45L15 45L15 46L16 46L16 47L18 47L18 45L19 45L19 47L21 47L21 48L22 48L22 46L20 46L20 45L21 45L21 44L20 44L20 43L21 43L21 42L20 42L20 41L21 41L21 39L22 39L22 41L23 41L23 42L24 42L24 41L23 41L23 39L22 39L22 37L23 37L23 36L22 36L22 35L25 35L25 36L24 36L24 37L26 37L26 38L27 38L27 37L26 37L26 34L24 34L24 32L25 32L25 30L26 30L26 33L27 33L27 34L28 34L28 35L27 35L27 36L28 36L28 37L29 37L29 36L28 36L28 35L31 35L31 36L30 36L30 40L29 40L29 41L31 41L31 38L33 38L33 35L34 35L34 37L35 37L35 38L36 38L36 41L37 41L37 42L38 42L38 41L39 41L39 40L40 40L40 39L41 39L41 40L42 40L42 39L41 39L41 38L42 38L42 37L43 37L43 36L42 36L42 35L40 35L40 36L39 36L39 38L38 38L38 37L37 37L37 36L38 36L38 35L39 35L39 34L38 34L38 33L39 33L39 32L40 32L40 34L42 34L42 33L41 33L41 32L40 32L40 31L42 31L42 28L43 28L43 27L44 27L44 26L43 26L43 27L41 27L41 26L42 26L42 25L41 25L41 23L43 23L43 24L44 24L44 23L45 23L45 22L46 22L46 21L47 21L47 22L48 22L48 23L47 23L47 24L49 24L49 23L50 23L50 22L48 22L48 21L47 21L47 20L48 20L48 19L47 19L47 18L48 18L48 17L49 17L49 20L51 20L51 18L52 18L52 17L51 17L51 18L50 18L50 16L51 16L51 15L52 15L52 14L51 14L51 15L50 15L50 13L49 13L49 14L48 14L48 12L47 12L47 11L46 11L46 13L45 13L45 12L44 12L44 13L43 13L43 14L44 14L44 13L45 13L45 15L46 15L46 16L44 16L44 15L43 15L43 16L44 16L44 17L43 17L43 18L42 18L42 17L41 17L41 15L42 15L42 12L43 12L43 11L44 11L44 10L45 10L45 8L44 8L44 10L43 10L43 11L42 11L42 12L41 12L41 11L40 11L40 14L39 14L39 15L40 15L40 18L38 18L38 16L37 16L37 15L38 15L38 13L37 13L37 12L39 12L39 10L40 10L40 9L39 9L39 10L38 10L38 11L37 11L37 12L36 12L36 14L35 14L35 15L34 15L34 13L35 13L35 12L34 12L34 11L32 11L32 14L31 14L31 16L30 16L30 15L29 15L29 13L30 13L30 12L29 12L29 11L28 11L28 10L27 10L27 11L28 11L28 12L27 12L27 14L26 14L26 11L25 11L25 10L24 10L24 12L23 12L23 11L22 11L22 12L23 12L23 14L24 14L24 15L23 15L23 16L22 16L22 14L21 14L21 15L20 15L20 13L21 13L21 12L20 12L20 13L19 13L19 12L18 12L18 11L19 11L19 10L20 10L20 9L21 9L21 5ZM27 5L27 8L30 8L30 5ZM9 6L9 8L10 8L10 6ZM24 6L24 7L25 7L25 6ZM28 6L28 7L29 7L29 6ZM44 6L44 7L45 7L45 6ZM0 8L0 9L3 9L3 8ZM5 9L5 10L7 10L7 9ZM10 10L10 11L13 11L13 10ZM51 10L51 11L52 11L52 10ZM18 13L18 14L17 14L17 15L18 15L18 14L19 14L19 13ZM24 13L24 14L25 14L25 15L24 15L24 18L25 18L25 19L24 19L24 20L25 20L25 19L26 19L26 20L27 20L27 21L28 21L28 22L26 22L26 23L28 23L28 24L27 24L27 25L26 25L26 26L29 26L29 25L30 25L30 26L31 26L31 25L32 25L32 28L31 28L31 31L32 31L32 32L30 32L30 34L31 34L31 35L32 35L32 34L33 34L33 33L32 33L32 32L33 32L33 29L34 29L34 34L35 34L35 33L36 33L36 35L35 35L35 37L36 37L36 38L37 38L37 41L38 41L38 38L37 38L37 37L36 37L36 35L38 35L38 34L37 34L37 33L36 33L36 31L37 31L37 32L38 32L38 31L40 31L40 30L41 30L41 29L40 29L40 28L41 28L41 27L40 27L40 23L41 23L41 22L40 22L40 19L41 19L41 18L40 18L40 19L39 19L39 20L38 20L38 19L37 19L37 18L36 18L36 15L37 15L37 14L36 14L36 15L35 15L35 17L34 17L34 15L33 15L33 14L32 14L32 15L33 15L33 17L34 17L34 18L32 18L32 17L30 17L30 16L29 16L29 15L28 15L28 14L27 14L27 15L26 15L26 14L25 14L25 13ZM46 13L46 15L48 15L48 14L47 14L47 13ZM7 15L7 16L6 16L6 17L7 17L7 16L8 16L8 15ZM19 15L19 17L20 17L20 18L19 18L19 21L18 21L18 22L16 22L16 23L18 23L18 22L19 22L19 25L18 25L18 24L17 24L17 25L16 25L16 26L17 26L17 27L16 27L16 28L15 28L15 30L14 30L14 29L13 29L13 30L14 30L14 31L15 31L15 30L17 30L17 31L16 31L16 32L17 32L17 33L16 33L16 34L17 34L17 33L18 33L18 32L19 32L19 33L20 33L20 34L23 34L23 33L22 33L22 30L23 30L23 29L22 29L22 30L21 30L21 27L20 27L20 26L22 26L22 24L23 24L23 25L24 25L24 26L23 26L23 27L22 27L22 28L23 28L23 27L24 27L24 30L25 30L25 25L24 25L24 24L23 24L23 23L22 23L22 22L21 22L21 21L20 21L20 20L21 20L21 19L22 19L22 18L21 18L21 17L20 17L20 15ZM25 15L25 18L26 18L26 15ZM49 15L49 16L50 16L50 15ZM46 16L46 18L47 18L47 17L48 17L48 16ZM55 16L55 17L56 17L56 16ZM14 17L14 18L15 18L15 17ZM28 17L28 18L30 18L30 17ZM44 17L44 19L42 19L42 20L43 20L43 21L42 21L42 22L43 22L43 23L44 23L44 22L45 22L45 21L46 21L46 19L45 19L45 17ZM3 18L3 19L5 19L5 20L7 20L7 19L5 19L5 18ZM31 18L31 19L30 19L30 20L28 20L28 21L29 21L29 22L30 22L30 20L32 20L32 21L33 21L33 22L31 22L31 23L32 23L32 25L33 25L33 26L34 26L34 24L36 24L36 26L37 26L37 27L36 27L36 29L35 29L35 27L34 27L34 29L35 29L35 31L36 31L36 29L37 29L37 28L38 28L38 29L39 29L39 28L40 28L40 27L39 27L39 26L38 26L38 25L37 25L37 24L36 24L36 23L37 23L37 22L38 22L38 23L39 23L39 22L38 22L38 20L37 20L37 19L36 19L36 18L34 18L34 19L35 19L35 20L33 20L33 19L32 19L32 18ZM44 19L44 21L43 21L43 22L44 22L44 21L45 21L45 19ZM53 19L53 20L52 20L52 22L51 22L51 24L50 24L50 25L51 25L51 24L52 24L52 25L53 25L53 24L54 24L54 25L55 25L55 24L54 24L54 22L55 22L55 21L54 21L54 19ZM35 20L35 21L34 21L34 22L33 22L33 24L34 24L34 22L35 22L35 23L36 23L36 22L37 22L37 21L36 21L36 20ZM3 21L3 22L4 22L4 21ZM35 21L35 22L36 22L36 21ZM53 21L53 22L52 22L52 24L53 24L53 22L54 22L54 21ZM6 22L6 23L7 23L7 22ZM20 22L20 23L21 23L21 22ZM24 22L24 23L25 23L25 22ZM11 24L11 25L14 25L14 24ZM28 24L28 25L29 25L29 24ZM30 24L30 25L31 25L31 24ZM17 25L17 26L18 26L18 25ZM3 27L3 28L4 28L4 27ZM5 27L5 30L8 30L8 27ZM18 27L18 28L19 28L19 30L18 30L18 31L20 31L20 32L21 32L21 31L20 31L20 28L19 28L19 27ZM27 27L27 30L30 30L30 27ZM49 27L49 30L52 30L52 27ZM6 28L6 29L7 29L7 28ZM28 28L28 29L29 29L29 28ZM32 28L32 29L33 29L33 28ZM46 28L46 29L45 29L45 30L46 30L46 32L45 32L45 33L46 33L46 34L45 34L45 37L46 37L46 38L45 38L45 39L46 39L46 38L47 38L47 40L46 40L46 42L47 42L47 44L46 44L46 47L45 47L45 49L46 49L46 51L45 51L45 52L46 52L46 54L47 54L47 52L48 52L48 51L47 51L47 49L46 49L46 47L48 47L48 46L49 46L49 47L50 47L50 42L49 42L49 41L51 41L51 40L48 40L48 38L49 38L49 37L48 37L48 38L47 38L47 37L46 37L46 34L48 34L48 33L47 33L47 30L48 30L48 29L47 29L47 28ZM50 28L50 29L51 29L51 28ZM0 29L0 30L1 30L1 29ZM37 30L37 31L38 31L38 30ZM54 30L54 32L55 32L55 31L56 31L56 30ZM23 31L23 32L24 32L24 31ZM50 31L50 33L49 33L49 36L50 36L50 33L51 33L51 36L53 36L53 37L52 37L52 38L53 38L53 37L54 37L54 38L55 38L55 37L56 37L56 34L55 34L55 33L53 33L53 31L52 31L52 32L51 32L51 31ZM6 32L6 33L7 33L7 32ZM27 32L27 33L28 33L28 34L29 34L29 32ZM14 33L14 34L15 34L15 33ZM53 34L53 36L54 36L54 37L55 37L55 36L54 36L54 34ZM17 35L17 37L18 37L18 35ZM19 35L19 36L20 36L20 35ZM47 35L47 36L48 36L48 35ZM21 36L21 37L22 37L22 36ZM31 36L31 37L32 37L32 36ZM41 36L41 37L42 37L42 36ZM6 37L6 38L7 38L7 37ZM50 37L50 38L51 38L51 37ZM17 38L17 39L18 39L18 40L17 40L17 41L16 41L16 42L15 42L15 43L14 43L14 44L15 44L15 45L16 45L16 46L17 46L17 45L16 45L16 44L15 44L15 43L16 43L16 42L17 42L17 41L18 41L18 40L19 40L19 41L20 41L20 40L19 40L19 39L18 39L18 38ZM20 38L20 39L21 39L21 38ZM24 38L24 39L25 39L25 38ZM28 38L28 39L29 39L29 38ZM39 38L39 39L40 39L40 38ZM10 39L10 40L11 40L11 39ZM34 39L34 41L35 41L35 39ZM52 39L52 44L51 44L51 45L52 45L52 47L51 47L51 48L52 48L52 47L54 47L54 48L53 48L53 49L54 49L54 48L55 48L55 47L56 47L56 44L55 44L55 43L54 43L54 44L53 44L53 39ZM5 40L5 41L6 41L6 40ZM8 40L8 42L9 42L9 40ZM47 40L47 41L48 41L48 40ZM30 42L30 43L31 43L31 42ZM18 43L18 44L19 44L19 45L20 45L20 44L19 44L19 43ZM22 43L22 44L23 44L23 47L24 47L24 48L25 48L25 47L26 47L26 46L24 46L24 44L23 44L23 43ZM28 43L28 44L29 44L29 45L30 45L30 44L29 44L29 43ZM48 43L48 44L47 44L47 46L48 46L48 45L49 45L49 43ZM8 44L8 46L9 46L9 44ZM10 44L10 45L11 45L11 44ZM53 45L53 46L54 46L54 45ZM30 46L30 47L31 47L31 46ZM18 48L18 50L16 50L16 51L17 51L17 52L18 52L18 53L19 53L19 51L20 51L20 48ZM27 49L27 52L30 52L30 49ZM40 49L40 51L41 51L41 52L42 52L42 51L41 51L41 49ZM49 49L49 52L52 52L52 49ZM28 50L28 51L29 51L29 50ZM50 50L50 51L51 51L51 50ZM56 50L56 51L57 51L57 50ZM31 51L31 52L32 52L32 51ZM46 51L46 52L47 52L47 51ZM56 52L56 53L57 53L57 52ZM9 53L9 54L8 54L8 57L10 57L10 53ZM27 53L27 54L26 54L26 55L28 55L28 53ZM36 53L36 54L37 54L37 53ZM48 53L48 54L49 54L49 53ZM16 54L16 55L17 55L17 54ZM20 54L20 55L21 55L21 54ZM24 54L24 55L25 55L25 54ZM40 54L40 55L41 55L41 54ZM12 55L12 56L13 56L13 55ZM36 56L36 57L37 57L37 56ZM51 56L51 57L53 57L53 56ZM56 56L56 57L57 57L57 56ZM0 0L0 7L7 7L7 0ZM1 1L1 6L6 6L6 1ZM2 2L2 5L5 5L5 2ZM50 0L50 7L57 7L57 0ZM51 1L51 6L56 6L56 1ZM52 2L52 5L55 5L55 2ZM0 50L0 57L7 57L7 50ZM1 51L1 56L6 56L6 51ZM2 52L2 55L5 55L5 52Z" fill="#000000"/></g></g></svg>
