<?xml version="1.0" encoding="UTF-8"?>
<svg xmlns="http://www.w3.org/2000/svg" version="1.1" width="300" height="300" viewBox="0 0 300 300"><rect x="0" y="0" width="300" height="300" fill="#fefefe"/><g transform="scale(4.615)"><g transform="translate(4,4)"><path fill-rule="evenodd" d="M8 0L8 4L9 4L9 5L8 5L8 7L9 7L9 8L10 8L10 9L12 9L12 8L10 8L10 7L11 7L11 6L10 6L10 5L11 5L11 4L12 4L12 2L13 2L13 5L14 5L14 7L13 7L13 6L12 6L12 7L13 7L13 8L14 8L14 10L13 10L13 11L12 11L12 10L10 10L10 11L9 11L9 12L11 12L11 14L12 14L12 15L10 15L10 13L7 13L7 12L4 12L4 13L3 13L3 10L4 10L4 11L7 11L7 10L9 10L9 9L7 9L7 8L4 8L4 9L2 9L2 8L0 8L0 9L2 9L2 10L0 10L0 13L2 13L2 14L4 14L4 15L2 15L2 16L1 16L1 17L0 17L0 19L2 19L2 20L3 20L3 22L2 22L2 21L1 21L1 20L0 20L0 24L1 24L1 25L0 25L0 28L2 28L2 27L4 27L4 30L2 30L2 29L1 29L1 30L0 30L0 31L1 31L1 32L2 32L2 31L4 31L4 32L3 32L3 33L5 33L5 34L4 34L4 36L2 36L2 37L1 37L1 35L0 35L0 37L1 37L1 39L0 39L0 40L1 40L1 41L0 41L0 42L2 42L2 43L1 43L1 44L2 44L2 47L1 47L1 46L0 46L0 48L5 48L5 47L9 47L9 48L6 48L6 49L8 49L8 50L11 50L11 47L9 47L9 46L13 46L13 47L12 47L12 50L13 50L13 52L12 52L12 51L10 51L10 52L11 52L11 53L12 53L12 55L11 55L11 56L12 56L12 57L13 57L13 56L12 56L12 55L13 55L13 54L14 54L14 55L16 55L16 54L17 54L17 55L18 55L18 56L17 56L17 57L19 57L19 55L20 55L20 54L21 54L21 55L22 55L22 56L20 56L20 57L22 57L22 56L23 56L23 57L25 57L25 55L26 55L26 54L27 54L27 53L28 53L28 57L29 57L29 55L30 55L30 57L34 57L34 55L35 55L35 57L37 57L37 56L36 56L36 54L37 54L37 53L38 53L38 55L39 55L39 57L40 57L40 56L43 56L43 55L44 55L44 53L45 53L45 54L46 54L46 52L45 52L45 51L46 51L46 49L47 49L47 52L48 52L48 54L49 54L49 56L48 56L48 55L46 55L46 56L44 56L44 57L47 57L47 56L48 56L48 57L50 57L50 55L51 55L51 56L53 56L53 57L54 57L54 55L53 55L53 50L54 50L54 51L56 51L56 44L57 44L57 43L56 43L56 42L57 42L57 40L54 40L54 41L53 41L53 39L54 39L54 38L55 38L55 39L57 39L57 38L55 38L55 36L53 36L53 35L56 35L56 34L57 34L57 33L56 33L56 30L55 30L55 29L57 29L57 28L56 28L56 27L55 27L55 29L54 29L54 28L53 28L53 27L54 27L54 26L55 26L55 24L56 24L56 25L57 25L57 24L56 24L56 21L55 21L55 22L54 22L54 21L52 21L52 20L53 20L53 19L52 19L52 16L51 16L51 15L52 15L52 14L53 14L53 15L55 15L55 16L53 16L53 17L55 17L55 16L56 16L56 17L57 17L57 15L56 15L56 13L57 13L57 11L56 11L56 10L57 10L57 8L53 8L53 9L52 9L52 8L51 8L51 9L50 9L50 10L51 10L51 9L52 9L52 11L50 11L50 16L49 16L49 15L48 15L48 16L47 16L47 15L46 15L46 11L45 11L45 10L43 10L43 9L42 9L42 8L41 8L41 6L42 6L42 7L43 7L43 8L44 8L44 9L46 9L46 8L47 8L47 11L48 11L48 10L49 10L49 6L48 6L48 7L47 7L47 5L48 5L48 0L41 0L41 1L40 1L40 2L38 2L38 1L39 1L39 0L38 0L38 1L37 1L37 2L36 2L36 0L35 0L35 1L34 1L34 0L23 0L23 1L22 1L22 2L20 2L20 1L21 1L21 0L20 0L20 1L19 1L19 0L18 0L18 1L16 1L16 0L15 0L15 1L16 1L16 4L17 4L17 5L19 5L19 6L18 6L18 7L17 7L17 6L16 6L16 5L15 5L15 4L14 4L14 0L13 0L13 1L12 1L12 2L11 2L11 1L10 1L10 0ZM9 1L9 3L11 3L11 2L10 2L10 1ZM25 1L25 3L23 3L23 2L22 2L22 3L20 3L20 2L17 2L17 4L19 4L19 5L20 5L20 6L19 6L19 7L20 7L20 6L21 6L21 7L22 7L22 9L21 9L21 11L22 11L22 12L23 12L23 13L21 13L21 14L20 14L20 8L19 8L19 9L15 9L15 11L16 11L16 10L18 10L18 11L17 11L17 13L15 13L15 12L14 12L14 11L13 11L13 12L12 12L12 14L13 14L13 15L12 15L12 17L13 17L13 18L10 18L10 17L11 17L11 16L9 16L9 17L6 17L6 16L8 16L8 15L9 15L9 14L8 14L8 15L6 15L6 14L7 14L7 13L5 13L5 15L6 15L6 16L2 16L2 17L1 17L1 18L2 18L2 17L3 17L3 20L4 20L4 19L5 19L5 18L7 18L7 19L6 19L6 20L5 20L5 21L6 21L6 22L3 22L3 24L2 24L2 25L3 25L3 26L4 26L4 24L5 24L5 23L6 23L6 24L7 24L7 25L5 25L5 26L7 26L7 25L8 25L8 26L10 26L10 24L12 24L12 22L10 22L10 23L9 23L9 22L8 22L8 21L6 21L6 20L7 20L7 19L8 19L8 18L10 18L10 20L9 20L9 21L11 21L11 19L12 19L12 20L13 20L13 19L14 19L14 20L15 20L15 21L17 21L17 22L16 22L16 23L13 23L13 25L16 25L16 28L17 28L17 27L18 27L18 26L20 26L20 27L21 27L21 29L22 29L22 30L20 30L20 29L19 29L19 28L18 28L18 29L15 29L15 28L14 28L14 27L15 27L15 26L14 26L14 27L13 27L13 26L11 26L11 27L10 27L10 28L9 28L9 29L10 29L10 30L9 30L9 32L7 32L7 31L6 31L6 32L5 32L5 33L6 33L6 34L5 34L5 35L6 35L6 36L7 36L7 37L6 37L6 38L7 38L7 39L6 39L6 40L5 40L5 39L2 39L2 40L3 40L3 41L2 41L2 42L3 42L3 41L4 41L4 40L5 40L5 41L6 41L6 42L7 42L7 43L5 43L5 42L4 42L4 43L2 43L2 44L3 44L3 45L5 45L5 46L3 46L3 47L5 47L5 46L7 46L7 45L8 45L8 46L9 46L9 45L8 45L8 44L10 44L10 43L9 43L9 42L11 42L11 44L12 44L12 45L13 45L13 46L14 46L14 47L13 47L13 48L14 48L14 47L15 47L15 49L16 49L16 50L14 50L14 49L13 49L13 50L14 50L14 51L15 51L15 52L14 52L14 53L17 53L17 54L19 54L19 53L20 53L20 52L19 52L19 53L17 53L17 52L18 52L18 51L19 51L19 50L20 50L20 51L21 51L21 52L22 52L22 53L24 53L24 54L25 54L25 53L26 53L26 50L25 50L25 53L24 53L24 52L22 52L22 51L23 51L23 50L22 50L22 49L23 49L23 48L24 48L24 49L26 49L26 48L29 48L29 47L30 47L30 48L31 48L31 49L32 49L32 48L31 48L31 46L30 46L30 44L31 44L31 45L32 45L32 47L33 47L33 45L32 45L32 43L33 43L33 44L35 44L35 43L33 43L33 41L32 41L32 40L33 40L33 39L34 39L34 42L35 42L35 39L37 39L37 42L38 42L38 37L41 37L41 39L42 39L42 40L40 40L40 41L42 41L42 40L43 40L43 42L41 42L41 43L40 43L40 42L39 42L39 43L40 43L40 45L39 45L39 44L37 44L37 43L36 43L36 44L37 44L37 45L36 45L36 46L38 46L38 45L39 45L39 46L40 46L40 51L39 51L39 52L40 52L40 53L41 53L41 46L40 46L40 45L41 45L41 43L42 43L42 44L43 44L43 45L44 45L44 46L43 46L43 47L42 47L42 49L44 49L44 50L45 50L45 49L44 49L44 46L45 46L45 45L46 45L46 47L47 47L47 49L48 49L48 47L49 47L49 48L52 48L52 47L53 47L53 49L54 49L54 48L55 48L55 46L53 46L53 45L52 45L52 47L51 47L51 46L50 46L50 47L49 47L49 44L50 44L50 45L51 45L51 44L52 44L52 43L53 43L53 44L54 44L54 45L55 45L55 44L56 44L56 43L55 43L55 42L56 42L56 41L55 41L55 42L54 42L54 43L53 43L53 41L52 41L52 40L47 40L47 39L53 39L53 36L52 36L52 38L51 38L51 37L50 37L50 35L53 35L53 34L54 34L54 33L51 33L51 32L52 32L52 31L51 31L51 32L50 32L50 31L49 31L49 32L50 32L50 35L49 35L49 36L48 36L48 35L47 35L47 34L49 34L49 33L48 33L48 31L47 31L47 30L48 30L48 29L46 29L46 28L48 28L48 27L45 27L45 29L44 29L44 28L42 28L42 25L41 25L41 24L43 24L43 25L44 25L44 26L43 26L43 27L44 27L44 26L45 26L45 25L46 25L46 26L47 26L47 25L48 25L48 23L47 23L47 21L51 21L51 22L52 22L52 23L51 23L51 24L52 24L52 25L51 25L51 26L52 26L52 25L53 25L53 24L55 24L55 23L53 23L53 22L52 22L52 21L51 21L51 20L46 20L46 22L44 22L44 16L45 16L45 17L46 17L46 19L47 19L47 17L46 17L46 16L45 16L45 15L44 15L44 12L45 12L45 11L44 11L44 12L41 12L41 11L40 11L40 13L39 13L39 12L37 12L37 10L38 10L38 11L39 11L39 10L38 10L38 6L37 6L37 9L35 9L35 7L36 7L36 5L38 5L38 4L40 4L40 3L41 3L41 4L43 4L43 5L42 5L42 6L43 6L43 7L44 7L44 8L45 8L45 7L46 7L46 5L47 5L47 3L44 3L44 2L43 2L43 3L41 3L41 2L40 2L40 3L38 3L38 2L37 2L37 3L36 3L36 2L35 2L35 4L34 4L34 1L33 1L33 3L32 3L32 2L30 2L30 1L29 1L29 2L28 2L28 1ZM45 1L45 2L47 2L47 1ZM27 2L27 3L28 3L28 4L26 4L26 3L25 3L25 4L24 4L24 5L22 5L22 7L23 7L23 8L24 8L24 7L25 7L25 6L26 6L26 9L27 9L27 10L25 10L25 9L22 9L22 10L23 10L23 12L25 12L25 13L23 13L23 15L22 15L22 14L21 14L21 15L22 15L22 16L25 16L25 17L21 17L21 16L20 16L20 15L19 15L19 12L18 12L18 13L17 13L17 14L15 14L15 13L13 13L13 14L14 14L14 15L13 15L13 16L14 16L14 17L15 17L15 18L16 18L16 19L15 19L15 20L16 20L16 19L17 19L17 18L16 18L16 16L17 16L17 17L19 17L19 16L20 16L20 18L21 18L21 20L20 20L20 21L19 21L19 20L17 20L17 21L19 21L19 22L17 22L17 25L19 25L19 23L20 23L20 22L21 22L21 23L22 23L22 22L23 22L23 23L24 23L24 24L23 24L23 25L20 25L20 26L21 26L21 27L22 27L22 28L23 28L23 30L22 30L22 31L20 31L20 32L21 32L21 33L19 33L19 31L18 31L18 30L19 30L19 29L18 29L18 30L17 30L17 31L18 31L18 33L17 33L17 32L16 32L16 30L15 30L15 29L13 29L13 30L12 30L12 28L13 28L13 27L12 27L12 28L11 28L11 30L10 30L10 34L9 34L9 33L7 33L7 32L6 32L6 33L7 33L7 34L6 34L6 35L7 35L7 36L8 36L8 39L9 39L9 38L10 38L10 40L9 40L9 41L12 41L12 43L14 43L14 44L15 44L15 45L14 45L14 46L15 46L15 47L16 47L16 48L17 48L17 49L18 49L18 50L17 50L17 51L18 51L18 50L19 50L19 49L20 49L20 50L21 50L21 49L22 49L22 48L23 48L23 47L22 47L22 46L21 46L21 45L23 45L23 46L26 46L26 47L27 47L27 46L28 46L28 47L29 47L29 46L28 46L28 45L27 45L27 43L23 43L23 44L22 44L22 43L21 43L21 42L22 42L22 40L23 40L23 41L24 41L24 42L26 42L26 41L27 41L27 42L28 42L28 43L29 43L29 44L30 44L30 43L29 43L29 42L31 42L31 43L32 43L32 41L29 41L29 42L28 42L28 40L31 40L31 39L33 39L33 38L34 38L34 35L32 35L32 34L34 34L34 33L33 33L33 32L32 32L32 34L31 34L31 33L29 33L29 31L30 31L30 32L31 32L31 24L29 24L29 25L27 25L27 22L26 22L26 23L25 23L25 22L24 22L24 21L28 21L28 19L27 19L27 20L26 20L26 19L25 19L25 20L24 20L24 21L22 21L22 18L23 18L23 19L24 19L24 18L27 18L27 17L28 17L28 18L30 18L30 20L32 20L32 21L29 21L29 22L28 22L28 23L31 23L31 22L34 22L34 23L32 23L32 27L33 27L33 28L32 28L32 29L33 29L33 30L32 30L32 31L34 31L34 27L33 27L33 26L34 26L34 25L37 25L37 24L34 24L34 23L35 23L35 22L37 22L37 23L39 23L39 21L40 21L40 22L41 22L41 23L42 23L42 22L43 22L43 23L44 23L44 22L43 22L43 21L40 21L40 18L41 18L41 20L43 20L43 19L42 19L42 18L43 18L43 17L42 17L42 15L43 15L43 16L44 16L44 15L43 15L43 13L40 13L40 14L39 14L39 13L38 13L38 15L39 15L39 17L38 17L38 16L37 16L37 15L35 15L35 17L38 17L38 18L39 18L39 19L37 19L37 18L34 18L34 13L33 13L33 12L32 12L32 11L33 11L33 10L34 10L34 12L35 12L35 14L36 14L36 13L37 13L37 12L35 12L35 11L36 11L36 10L34 10L34 9L33 9L33 8L34 8L34 7L35 7L35 5L36 5L36 4L35 4L35 5L34 5L34 4L33 4L33 5L32 5L32 3L31 3L31 4L30 4L30 3L28 3L28 2ZM22 3L22 4L23 4L23 3ZM43 3L43 4L44 4L44 7L45 7L45 4L44 4L44 3ZM27 5L27 8L30 8L30 5ZM39 5L39 8L40 8L40 9L41 9L41 8L40 8L40 6L41 6L41 5ZM9 6L9 7L10 7L10 6ZM15 6L15 7L14 7L14 8L15 8L15 7L16 7L16 6ZM23 6L23 7L24 7L24 6ZM28 6L28 7L29 7L29 6ZM31 6L31 10L29 10L29 9L28 9L28 10L27 10L27 11L26 11L26 13L25 13L25 14L27 14L27 15L26 15L26 17L27 17L27 15L28 15L28 14L27 14L27 13L29 13L29 16L31 16L31 15L30 15L30 13L31 13L31 14L33 14L33 13L32 13L32 12L29 12L29 11L32 11L32 8L33 8L33 7L34 7L34 6L33 6L33 7L32 7L32 6ZM4 9L4 10L7 10L7 9ZM53 9L53 10L54 10L54 11L52 11L52 12L51 12L51 14L52 14L52 13L53 13L53 14L55 14L55 12L56 12L56 11L55 11L55 9ZM28 10L28 11L27 11L27 12L28 12L28 11L29 11L29 10ZM42 10L42 11L43 11L43 10ZM1 11L1 12L2 12L2 11ZM53 12L53 13L54 13L54 12ZM47 13L47 14L49 14L49 13ZM0 14L0 15L1 15L1 14ZM14 15L14 16L15 16L15 15ZM18 15L18 16L19 16L19 15ZM40 15L40 17L39 17L39 18L40 18L40 17L41 17L41 15ZM50 16L50 17L49 17L49 19L50 19L50 17L51 17L51 16ZM4 17L4 18L5 18L5 17ZM55 18L55 20L56 20L56 18ZM34 19L34 22L35 22L35 20L36 20L36 19ZM37 20L37 22L38 22L38 20ZM13 21L13 22L14 22L14 21ZM6 22L6 23L8 23L8 24L9 24L9 23L8 23L8 22ZM49 22L49 24L50 24L50 22ZM45 23L45 24L44 24L44 25L45 25L45 24L46 24L46 25L47 25L47 23ZM52 23L52 24L53 24L53 23ZM33 24L33 25L34 25L34 24ZM25 25L25 26L24 26L24 28L25 28L25 27L26 27L26 25ZM29 25L29 26L30 26L30 25ZM38 25L38 26L39 26L39 27L37 27L37 26L36 26L36 27L37 27L37 28L35 28L35 30L36 30L36 31L35 31L35 38L37 38L37 37L38 37L38 36L40 36L40 35L38 35L38 34L39 34L39 33L40 33L40 34L42 34L42 35L43 35L43 33L45 33L45 35L44 35L44 37L43 37L43 36L41 36L41 37L42 37L42 39L43 39L43 40L44 40L44 42L43 42L43 43L44 43L44 45L45 45L45 43L47 43L47 44L46 44L46 45L47 45L47 46L48 46L48 45L47 45L47 44L49 44L49 43L50 43L50 44L51 44L51 43L52 43L52 41L51 41L51 43L50 43L50 42L49 42L49 41L48 41L48 43L47 43L47 42L46 42L46 40L45 40L45 39L47 39L47 38L46 38L46 37L47 37L47 35L46 35L46 33L47 33L47 32L46 32L46 30L44 30L44 31L43 31L43 29L41 29L41 31L40 31L40 32L39 32L39 30L40 30L40 28L41 28L41 27L40 27L40 25ZM49 25L49 26L50 26L50 25ZM5 27L5 30L8 30L8 27ZM27 27L27 30L30 30L30 27ZM39 27L39 28L40 28L40 27ZM49 27L49 30L52 30L52 27ZM6 28L6 29L7 29L7 28ZM28 28L28 29L29 29L29 28ZM37 28L37 29L36 29L36 30L37 30L37 32L38 32L38 30L37 30L37 29L38 29L38 28ZM50 28L50 29L51 29L51 28ZM25 29L25 30L24 30L24 31L25 31L25 32L23 32L23 31L22 31L22 33L21 33L21 34L19 34L19 33L18 33L18 34L17 34L17 33L14 33L14 32L13 32L13 33L12 33L12 32L11 32L11 33L12 33L12 34L10 34L10 35L8 35L8 36L10 36L10 38L11 38L11 39L13 39L13 40L12 40L12 41L13 41L13 40L14 40L14 39L16 39L16 38L17 38L17 39L18 39L18 40L19 40L19 39L20 39L20 38L23 38L23 39L24 39L24 41L25 41L25 40L26 40L26 38L24 38L24 37L23 37L23 35L21 35L21 34L23 34L23 33L26 33L26 34L24 34L24 36L25 36L25 37L27 37L27 39L28 39L28 38L29 38L29 39L31 39L31 38L33 38L33 37L32 37L32 36L31 36L31 34L30 34L30 36L31 36L31 37L29 37L29 36L28 36L28 34L29 34L29 33L28 33L28 34L27 34L27 33L26 33L26 31L25 31L25 30L26 30L26 29ZM1 30L1 31L2 31L2 30ZM11 30L11 31L12 31L12 30ZM13 30L13 31L15 31L15 30ZM54 30L54 31L53 31L53 32L55 32L55 30ZM27 31L27 32L28 32L28 31ZM40 32L40 33L41 33L41 32ZM0 33L0 34L2 34L2 33ZM37 33L37 34L38 34L38 33ZM13 34L13 35L11 35L11 38L13 38L13 39L14 39L14 36L15 36L15 37L16 37L16 36L17 36L17 34L16 34L16 36L15 36L15 35L14 35L14 34ZM18 34L18 37L17 37L17 38L18 38L18 37L22 37L22 36L21 36L21 35L19 35L19 34ZM26 34L26 35L25 35L25 36L27 36L27 37L28 37L28 36L27 36L27 34ZM37 35L37 36L38 36L38 35ZM45 35L45 36L46 36L46 35ZM3 37L3 38L5 38L5 37ZM44 37L44 38L43 38L43 39L45 39L45 37ZM39 38L39 39L40 39L40 38ZM6 40L6 41L7 41L7 40ZM15 40L15 41L14 41L14 42L15 42L15 41L16 41L16 43L15 43L15 44L17 44L17 45L16 45L16 46L17 46L17 47L18 47L18 48L20 48L20 49L21 49L21 48L22 48L22 47L21 47L21 48L20 48L20 45L21 45L21 43L20 43L20 45L19 45L19 46L17 46L17 45L18 45L18 44L19 44L19 42L20 42L20 41L16 41L16 40ZM17 42L17 43L18 43L18 42ZM44 42L44 43L45 43L45 42ZM5 44L5 45L7 45L7 44ZM24 44L24 45L25 45L25 44ZM26 45L26 46L27 46L27 45ZM34 45L34 48L33 48L33 49L34 49L34 52L33 52L33 53L32 53L32 54L33 54L33 53L34 53L34 54L35 54L35 53L34 53L34 52L36 52L36 49L34 49L34 48L35 48L35 45ZM36 47L36 48L37 48L37 47ZM38 47L38 49L37 49L37 52L38 52L38 49L39 49L39 47ZM27 49L27 52L30 52L30 49ZM49 49L49 52L52 52L52 49ZM28 50L28 51L29 51L29 50ZM32 50L32 51L31 51L31 52L32 52L32 51L33 51L33 50ZM42 50L42 52L43 52L43 53L44 53L44 52L43 52L43 50ZM50 50L50 51L51 51L51 50ZM8 51L8 53L9 53L9 54L10 54L10 53L9 53L9 51ZM54 52L54 54L57 54L57 52L56 52L56 53L55 53L55 52ZM30 53L30 54L31 54L31 53ZM49 53L49 54L51 54L51 55L52 55L52 54L51 54L51 53ZM22 54L22 55L23 55L23 56L24 56L24 55L23 55L23 54ZM40 54L40 55L43 55L43 54ZM8 55L8 57L10 57L10 55ZM26 56L26 57L27 57L27 56ZM56 56L56 57L57 57L57 56ZM0 0L0 7L7 7L7 0ZM1 1L1 6L6 6L6 1ZM2 2L2 5L5 5L5 2ZM50 0L50 7L57 7L57 0ZM51 1L51 6L56 6L56 1ZM52 2L52 5L55 5L55 2ZM0 50L0 57L7 57L7 50ZM1 51L1 56L6 56L6 51ZM2 52L2 55L5 55L5 52Z" fill="#000000"/></g></g></svg>
