<?xml version="1.0" encoding="UTF-8"?>
<svg xmlns="http://www.w3.org/2000/svg" version="1.1" width="300" height="300" viewBox="0 0 300 300"><rect x="0" y="0" width="300" height="300" fill="#fefefe"/><g transform="scale(4.615)"><g transform="translate(4,4)"><path fill-rule="evenodd" d="M8 0L8 4L9 4L9 5L8 5L8 7L9 7L9 6L10 6L10 7L11 7L11 6L12 6L12 7L13 7L13 8L11 8L11 9L7 9L7 8L4 8L4 10L2 10L2 8L0 8L0 9L1 9L1 10L2 10L2 12L1 12L1 11L0 11L0 13L2 13L2 15L0 15L0 18L1 18L1 19L0 19L0 20L1 20L1 19L2 19L2 18L3 18L3 19L4 19L4 18L5 18L5 20L4 20L4 21L3 21L3 20L2 20L2 21L0 21L0 24L1 24L1 22L2 22L2 21L3 21L3 23L2 23L2 24L4 24L4 21L7 21L7 20L8 20L8 21L10 21L10 22L11 22L11 23L10 23L10 24L12 24L12 26L10 26L10 25L9 25L9 26L6 26L6 25L7 25L7 24L6 24L6 23L7 23L7 22L5 22L5 25L2 25L2 26L0 26L0 28L2 28L2 29L0 29L0 34L1 34L1 35L0 35L0 37L2 37L2 39L5 39L5 38L3 38L3 36L4 36L4 35L3 35L3 36L2 36L2 34L5 34L5 33L7 33L7 32L8 32L8 34L6 34L6 35L7 35L7 36L5 36L5 37L7 37L7 38L6 38L6 39L7 39L7 38L9 38L9 39L8 39L8 40L1 40L1 39L0 39L0 45L1 45L1 46L0 46L0 48L5 48L5 47L7 47L7 46L8 46L8 48L9 48L9 49L8 49L8 50L9 50L9 49L10 49L10 52L9 52L9 51L8 51L8 53L9 53L9 55L8 55L8 57L9 57L9 55L10 55L10 56L11 56L11 57L12 57L12 56L13 56L13 57L15 57L15 55L16 55L16 54L17 54L17 53L19 53L19 55L20 55L20 54L21 54L21 55L22 55L22 56L23 56L23 55L24 55L24 57L25 57L25 54L24 54L24 53L25 53L25 50L26 50L26 57L27 57L27 53L28 53L28 57L29 57L29 55L30 55L30 57L34 57L34 55L35 55L35 57L37 57L37 56L36 56L36 54L37 54L37 55L40 55L40 56L39 56L39 57L40 57L40 56L41 56L41 57L42 57L42 56L43 56L43 55L44 55L44 53L45 53L45 55L46 55L46 56L47 56L47 57L50 57L50 55L51 55L51 56L53 56L53 55L54 55L54 54L53 54L53 50L54 50L54 51L56 51L56 50L57 50L57 49L56 49L56 45L57 45L57 43L56 43L56 42L57 42L57 40L55 40L55 41L53 41L53 40L52 40L52 39L57 39L57 38L52 38L52 36L53 36L53 37L56 37L56 36L53 36L53 35L56 35L56 34L57 34L57 33L56 33L56 30L55 30L55 29L54 29L54 28L53 28L53 27L54 27L54 26L55 26L55 28L56 28L56 26L55 26L55 25L53 25L53 26L51 26L51 25L52 25L52 22L54 22L54 21L52 21L52 20L53 20L53 19L52 19L52 14L53 14L53 15L54 15L54 14L53 14L53 13L54 13L54 12L53 12L53 13L52 13L52 14L51 14L51 12L52 12L52 11L54 11L54 10L52 10L52 11L50 11L50 10L51 10L51 9L52 9L52 8L51 8L51 9L50 9L50 10L49 10L49 6L48 6L48 7L47 7L47 5L48 5L48 0L41 0L41 1L40 1L40 2L39 2L39 3L38 3L38 1L39 1L39 0L38 0L38 1L37 1L37 2L36 2L36 0L35 0L35 1L34 1L34 0L28 0L28 2L27 2L27 3L28 3L28 4L26 4L26 3L25 3L25 2L26 2L26 1L27 1L27 0L26 0L26 1L25 1L25 0L23 0L23 3L22 3L22 5L21 5L21 6L20 6L20 5L19 5L19 6L18 6L18 7L19 7L19 8L17 8L17 6L16 6L16 5L15 5L15 4L14 4L14 0L12 0L12 1L10 1L10 0ZM15 0L15 3L16 3L16 4L17 4L17 5L18 5L18 4L17 4L17 2L16 2L16 0ZM20 0L20 1L21 1L21 2L22 2L22 1L21 1L21 0ZM29 1L29 2L28 2L28 3L29 3L29 2L31 2L31 3L32 3L32 5L35 5L35 7L34 7L34 6L33 6L33 7L32 7L32 6L31 6L31 11L32 11L32 8L33 8L33 9L34 9L34 10L33 10L33 13L34 13L34 18L32 18L32 15L30 15L30 13L31 13L31 14L32 14L32 12L29 12L29 10L28 10L28 9L26 9L26 6L25 6L25 7L24 7L24 6L23 6L23 5L24 5L24 4L25 4L25 3L23 3L23 5L22 5L22 6L21 6L21 8L22 8L22 10L20 10L20 8L19 8L19 9L18 9L18 11L17 11L17 13L15 13L15 12L16 12L16 10L17 10L17 9L15 9L15 12L14 12L14 11L13 11L13 10L14 10L14 8L15 8L15 7L16 7L16 6L15 6L15 7L14 7L14 6L13 6L13 5L12 5L12 6L13 6L13 7L14 7L14 8L13 8L13 9L11 9L11 11L10 11L10 12L9 12L9 10L8 10L8 12L7 12L7 11L6 11L6 12L4 12L4 11L5 11L5 10L4 10L4 11L3 11L3 12L4 12L4 13L3 13L3 14L5 14L5 17L6 17L6 18L8 18L8 15L9 15L9 16L11 16L11 18L10 18L10 17L9 17L9 19L11 19L11 18L13 18L13 19L12 19L12 20L11 20L11 22L12 22L12 23L13 23L13 25L14 25L14 28L12 28L12 29L11 29L11 28L10 28L10 26L9 26L9 29L11 29L11 30L12 30L12 29L13 29L13 30L14 30L14 29L15 29L15 30L16 30L16 34L17 34L17 33L18 33L18 35L20 35L20 36L21 36L21 34L22 34L22 35L23 35L23 33L25 33L25 32L26 32L26 34L27 34L27 35L26 35L26 36L25 36L25 34L24 34L24 36L25 36L25 37L27 37L27 39L28 39L28 38L29 38L29 39L31 39L31 40L29 40L29 41L28 41L28 42L27 42L27 41L26 41L26 42L25 42L25 43L23 43L23 41L25 41L25 40L26 40L26 39L25 39L25 38L24 38L24 37L23 37L23 36L22 36L22 37L18 37L18 39L17 39L17 41L16 41L16 40L15 40L15 41L14 41L14 40L13 40L13 41L12 41L12 39L13 39L13 38L14 38L14 37L15 37L15 39L16 39L16 38L17 38L17 35L16 35L16 37L15 37L15 36L13 36L13 35L15 35L15 34L13 34L13 35L12 35L12 31L11 31L11 32L10 32L10 31L8 31L8 32L9 32L9 33L10 33L10 35L9 35L9 36L10 36L10 37L9 37L9 38L10 38L10 39L9 39L9 40L10 40L10 41L8 41L8 42L10 42L10 44L9 44L9 43L8 43L8 45L10 45L10 44L13 44L13 45L11 45L11 47L9 47L9 48L12 48L12 50L11 50L11 51L12 51L12 53L11 53L11 52L10 52L10 54L12 54L12 55L11 55L11 56L12 56L12 55L15 55L15 53L17 53L17 52L18 52L18 51L19 51L19 53L20 53L20 49L21 49L21 50L22 50L22 49L23 49L23 48L24 48L24 49L26 49L26 48L28 48L28 47L26 47L26 46L29 46L29 47L30 47L30 48L31 48L31 49L32 49L32 50L33 50L33 49L32 49L32 48L34 48L34 50L35 50L35 52L36 52L36 49L35 49L35 48L34 48L34 47L35 47L35 46L36 46L36 45L34 45L34 47L33 47L33 46L32 46L32 45L31 45L31 46L29 46L29 45L26 45L26 46L23 46L23 45L21 45L21 43L22 43L22 44L24 44L24 45L25 45L25 43L27 43L27 44L31 44L31 41L32 41L32 43L33 43L33 44L35 44L35 43L33 43L33 41L32 41L32 40L33 40L33 39L34 39L34 42L35 42L35 39L37 39L37 42L38 42L38 39L39 39L39 40L40 40L40 41L39 41L39 43L40 43L40 45L39 45L39 44L37 44L37 43L36 43L36 44L37 44L37 46L38 46L38 45L39 45L39 47L38 47L38 49L37 49L37 54L38 54L38 49L39 49L39 47L40 47L40 51L39 51L39 52L40 52L40 53L42 53L42 51L43 51L43 50L42 50L42 51L41 51L41 46L40 46L40 45L41 45L41 43L40 43L40 42L41 42L41 41L42 41L42 40L43 40L43 41L44 41L44 42L45 42L45 41L44 41L44 39L45 39L45 40L47 40L47 41L46 41L46 42L47 42L47 43L45 43L45 45L44 45L44 43L43 43L43 42L42 42L42 44L43 44L43 45L44 45L44 46L43 46L43 47L42 47L42 49L44 49L44 50L45 50L45 49L44 49L44 46L45 46L45 45L46 45L46 47L45 47L45 48L46 48L46 47L47 47L47 49L46 49L46 51L45 51L45 52L46 52L46 55L47 55L47 56L48 56L48 55L49 55L49 54L51 54L51 55L52 55L52 54L51 54L51 53L49 53L49 54L48 54L48 52L47 52L47 49L48 49L48 47L49 47L49 46L48 46L48 47L47 47L47 45L51 45L51 46L50 46L50 48L52 48L52 47L53 47L53 48L54 48L54 49L55 49L55 47L54 47L54 46L53 46L53 45L51 45L51 44L52 44L52 43L53 43L53 44L54 44L54 45L56 45L56 44L55 44L55 42L54 42L54 43L53 43L53 41L52 41L52 40L47 40L47 39L48 39L48 38L50 38L50 39L52 39L52 38L50 38L50 37L51 37L51 36L50 36L50 35L53 35L53 34L54 34L54 32L55 32L55 31L54 31L54 29L53 29L53 33L51 33L51 32L52 32L52 31L51 31L51 32L50 32L50 31L49 31L49 32L50 32L50 35L49 35L49 36L50 36L50 37L48 37L48 36L47 36L47 35L46 35L46 34L49 34L49 33L48 33L48 31L47 31L47 30L48 30L48 29L46 29L46 28L47 28L47 27L48 27L48 26L47 26L47 25L46 25L46 26L47 26L47 27L45 27L45 30L46 30L46 31L45 31L45 32L46 32L46 31L47 31L47 33L46 33L46 34L45 34L45 33L43 33L43 35L42 35L42 34L40 34L40 33L41 33L41 32L40 32L40 31L41 31L41 30L40 30L40 29L44 29L44 27L43 27L43 28L42 28L42 25L41 25L41 24L43 24L43 25L44 25L44 24L45 24L45 22L44 22L44 16L45 16L45 17L46 17L46 18L45 18L45 19L46 19L46 20L45 20L45 21L46 21L46 23L50 23L50 24L49 24L49 26L50 26L50 25L51 25L51 23L50 23L50 22L47 22L47 21L51 21L51 22L52 22L52 21L51 21L51 20L49 20L49 19L51 19L51 18L50 18L50 16L49 16L49 18L48 18L48 19L46 19L46 18L47 18L47 17L46 17L46 16L48 16L48 15L50 15L50 11L48 11L48 10L47 10L47 9L48 9L48 8L46 8L46 5L47 5L47 3L44 3L44 2L43 2L43 3L44 3L44 4L43 4L43 5L39 5L39 8L38 8L38 6L37 6L37 8L38 8L38 9L35 9L35 7L36 7L36 5L38 5L38 4L37 4L37 3L36 3L36 2L35 2L35 3L34 3L34 1ZM45 1L45 2L47 2L47 1ZM9 2L9 4L12 4L12 3L13 3L13 2L12 2L12 3L10 3L10 2ZM18 2L18 3L19 3L19 2ZM32 2L32 3L33 3L33 2ZM40 2L40 3L39 3L39 4L40 4L40 3L41 3L41 2ZM35 4L35 5L36 5L36 4ZM44 4L44 7L43 7L43 6L42 6L42 7L41 7L41 6L40 6L40 8L39 8L39 9L38 9L38 10L39 10L39 11L36 11L36 10L34 10L34 12L35 12L35 13L36 13L36 14L37 14L37 12L39 12L39 13L38 13L38 15L39 15L39 17L38 17L38 16L37 16L37 15L35 15L35 17L38 17L38 18L39 18L39 19L37 19L37 18L34 18L34 19L31 19L31 16L29 16L29 13L27 13L27 14L28 14L28 15L27 15L27 16L26 16L26 15L25 15L25 16L26 16L26 17L28 17L28 18L30 18L30 21L28 21L28 20L29 20L29 19L28 19L28 20L26 20L26 19L25 19L25 20L24 20L24 21L22 21L22 20L23 20L23 19L24 19L24 18L25 18L25 17L20 17L20 16L21 16L21 15L22 15L22 16L23 16L23 15L22 15L22 14L21 14L21 13L23 13L23 14L26 14L26 11L27 11L27 12L28 12L28 10L25 10L25 8L24 8L24 7L23 7L23 6L22 6L22 7L23 7L23 8L24 8L24 9L23 9L23 10L24 10L24 12L22 12L22 11L20 11L20 10L19 10L19 11L20 11L20 12L18 12L18 13L17 13L17 14L15 14L15 13L13 13L13 14L14 14L14 17L13 17L13 18L15 18L15 20L14 20L14 19L13 19L13 20L12 20L12 22L13 22L13 23L14 23L14 25L15 25L15 29L18 29L18 30L17 30L17 32L18 32L18 33L19 33L19 34L21 34L21 33L22 33L22 31L23 31L23 32L25 32L25 31L26 31L26 32L27 32L27 34L28 34L28 36L27 36L27 37L28 37L28 36L29 36L29 37L31 37L31 36L32 36L32 37L33 37L33 38L31 38L31 39L33 39L33 38L34 38L34 39L35 39L35 38L37 38L37 39L38 39L38 38L40 38L40 40L42 40L42 39L43 39L43 38L44 38L44 37L45 37L45 39L47 39L47 38L48 38L48 37L47 37L47 38L46 38L46 37L45 37L45 36L46 36L46 35L44 35L44 37L39 37L39 36L40 36L40 35L39 35L39 36L38 36L38 34L39 34L39 33L40 33L40 32L39 32L39 31L40 31L40 30L39 30L39 29L40 29L40 28L41 28L41 26L40 26L40 24L39 24L39 25L38 25L38 26L39 26L39 27L37 27L37 26L36 26L36 27L37 27L37 28L35 28L35 30L36 30L36 31L34 31L34 27L33 27L33 26L34 26L34 25L37 25L37 24L34 24L34 23L35 23L35 22L37 22L37 21L38 21L38 22L39 22L39 21L40 21L40 22L43 22L43 23L44 23L44 22L43 22L43 21L40 21L40 18L41 18L41 20L43 20L43 19L42 19L42 18L43 18L43 17L42 17L42 15L43 15L43 16L44 16L44 15L46 15L46 11L45 11L45 9L46 9L46 8L45 8L45 4ZM10 5L10 6L11 6L11 5ZM27 5L27 8L30 8L30 5ZM19 6L19 7L20 7L20 6ZM28 6L28 7L29 7L29 6ZM33 7L33 8L34 8L34 7ZM42 7L42 8L40 8L40 11L39 11L39 12L40 12L40 14L41 14L41 13L44 13L44 12L45 12L45 11L44 11L44 12L41 12L41 9L43 9L43 10L42 10L42 11L43 11L43 10L44 10L44 9L43 9L43 7ZM53 8L53 9L55 9L55 16L53 16L53 17L55 17L55 16L56 16L56 17L57 17L57 15L56 15L56 10L57 10L57 8ZM6 9L6 10L7 10L7 9ZM11 11L11 12L10 12L10 13L8 13L8 14L6 14L6 15L8 15L8 14L10 14L10 13L11 13L11 14L12 14L12 11ZM6 12L6 13L7 13L7 12ZM19 13L19 16L20 16L20 15L21 15L21 14L20 14L20 13ZM47 13L47 14L49 14L49 13ZM43 14L43 15L44 15L44 14ZM12 15L12 16L13 16L13 15ZM17 15L17 16L18 16L18 15ZM40 15L40 17L39 17L39 18L40 18L40 17L41 17L41 15ZM1 16L1 17L2 17L2 16ZM3 16L3 18L4 18L4 16ZM6 16L6 17L7 17L7 16ZM15 16L15 17L16 17L16 19L17 19L17 17L16 17L16 16ZM18 17L18 18L19 18L19 19L20 19L20 20L19 20L19 21L20 21L20 20L21 20L21 19L22 19L22 18L21 18L21 19L20 19L20 17ZM55 18L55 24L56 24L56 25L57 25L57 24L56 24L56 18ZM6 19L6 20L7 20L7 19ZM35 19L35 20L36 20L36 19ZM15 20L15 21L17 21L17 20ZM31 20L31 21L32 21L32 20ZM38 20L38 21L39 21L39 20ZM46 20L46 21L47 21L47 20ZM13 21L13 22L14 22L14 23L15 23L15 24L16 24L16 28L17 28L17 27L18 27L18 25L17 25L17 22L16 22L16 23L15 23L15 22L14 22L14 21ZM21 21L21 22L20 22L20 23L19 23L19 24L20 24L20 25L19 25L19 27L20 27L20 25L21 25L21 26L22 26L22 25L24 25L24 23L22 23L22 25L21 25L21 22L22 22L22 21ZM24 21L24 22L25 22L25 23L26 23L26 22L28 22L28 23L30 23L30 25L29 25L29 24L28 24L28 25L27 25L27 26L28 26L28 25L29 25L29 26L30 26L30 25L31 25L31 30L32 30L32 31L31 31L31 32L30 32L30 31L29 31L29 33L28 33L28 34L29 34L29 33L32 33L32 34L30 34L30 36L31 36L31 35L32 35L32 34L33 34L33 33L32 33L32 31L33 31L33 30L32 30L32 28L33 28L33 27L32 27L32 23L34 23L34 22L35 22L35 21L34 21L34 22L28 22L28 21ZM8 23L8 24L9 24L9 23ZM33 24L33 25L34 25L34 24ZM25 25L25 26L23 26L23 27L26 27L26 25ZM2 26L2 27L4 27L4 26ZM5 27L5 30L8 30L8 27ZM21 27L21 28L18 28L18 29L19 29L19 30L18 30L18 32L19 32L19 33L21 33L21 32L19 32L19 31L22 31L22 30L23 30L23 28L22 28L22 27ZM27 27L27 30L30 30L30 27ZM39 27L39 28L40 28L40 27ZM49 27L49 30L52 30L52 27ZM3 28L3 29L4 29L4 28ZM6 28L6 29L7 29L7 28ZM28 28L28 29L29 29L29 28ZM37 28L37 29L38 29L38 28ZM50 28L50 29L51 29L51 28ZM20 29L20 30L22 30L22 29ZM25 29L25 30L24 30L24 31L25 31L25 30L26 30L26 29ZM37 30L37 32L38 32L38 30ZM43 30L43 31L44 31L44 30ZM2 31L2 32L5 32L5 31ZM6 31L6 32L7 32L7 31ZM34 33L34 34L35 34L35 33ZM37 33L37 34L38 34L38 33ZM34 35L34 36L33 36L33 37L34 37L34 38L35 38L35 37L34 37L34 36L35 36L35 35ZM7 36L7 37L8 37L8 36ZM12 37L12 38L13 38L13 37ZM22 37L22 38L20 38L20 39L19 39L19 40L18 40L18 41L17 41L17 42L16 42L16 41L15 41L15 42L16 42L16 43L18 43L18 41L20 41L20 43L21 43L21 42L22 42L22 40L24 40L24 39L22 39L22 38L23 38L23 37ZM37 37L37 38L38 38L38 37ZM10 39L10 40L11 40L11 39ZM21 39L21 40L22 40L22 39ZM1 41L1 43L3 43L3 44L2 44L2 45L4 45L4 43L3 43L3 42L7 42L7 41ZM10 41L10 42L12 42L12 43L13 43L13 44L14 44L14 46L15 46L15 47L16 47L16 48L14 48L14 49L15 49L15 50L16 50L16 48L17 48L17 49L18 49L18 50L19 50L19 49L20 49L20 47L22 47L22 48L21 48L21 49L22 49L22 48L23 48L23 47L22 47L22 46L21 46L21 45L20 45L20 44L18 44L18 45L17 45L17 44L14 44L14 43L13 43L13 42L14 42L14 41L13 41L13 42L12 42L12 41ZM48 41L48 42L49 42L49 43L48 43L48 44L49 44L49 43L50 43L50 44L51 44L51 43L52 43L52 41L51 41L51 43L50 43L50 42L49 42L49 41ZM28 42L28 43L29 43L29 42ZM6 43L6 44L5 44L5 46L3 46L3 47L5 47L5 46L7 46L7 45L6 45L6 44L7 44L7 43ZM46 44L46 45L47 45L47 44ZM16 45L16 46L17 46L17 45ZM19 45L19 46L18 46L18 47L19 47L19 46L20 46L20 45ZM1 46L1 47L2 47L2 46ZM31 46L31 48L32 48L32 46ZM25 47L25 48L26 48L26 47ZM36 47L36 48L37 48L37 47ZM6 48L6 49L7 49L7 48ZM27 49L27 52L30 52L30 49ZM49 49L49 52L52 52L52 49ZM13 50L13 54L14 54L14 53L15 53L15 51L14 51L14 50ZM28 50L28 51L29 51L29 50ZM50 50L50 51L51 51L51 50ZM21 51L21 52L22 52L22 55L23 55L23 53L24 53L24 52L23 52L23 51ZM31 51L31 52L32 52L32 51ZM33 51L33 52L34 52L34 51ZM43 52L43 53L44 53L44 52ZM54 52L54 53L55 53L55 54L57 54L57 52L56 52L56 53L55 53L55 52ZM30 53L30 54L31 54L31 53ZM32 53L32 54L33 54L33 55L34 55L34 54L35 54L35 53L34 53L34 54L33 54L33 53ZM40 54L40 55L41 55L41 56L42 56L42 55L43 55L43 54L42 54L42 55L41 55L41 54ZM17 56L17 57L19 57L19 56ZM44 56L44 57L45 57L45 56ZM56 56L56 57L57 57L57 56ZM0 0L0 7L7 7L7 0ZM1 1L1 6L6 6L6 1ZM2 2L2 5L5 5L5 2ZM50 0L50 7L57 7L57 0ZM51 1L51 6L56 6L56 1ZM52 2L52 5L55 5L55 2ZM0 50L0 57L7 57L7 50ZM1 51L1 56L6 56L6 51ZM2 52L2 55L5 55L5 52Z" fill="#000000"/></g></g></svg>
