<?xml version="1.0" encoding="UTF-8"?>
<svg xmlns="http://www.w3.org/2000/svg" version="1.1" width="300" height="300" viewBox="0 0 300 300"><rect x="0" y="0" width="300" height="300" fill="#fefefe"/><g transform="scale(4.615)"><g transform="translate(4,4)"><path fill-rule="evenodd" d="M12 0L12 1L11 1L11 3L13 3L13 4L12 4L12 8L11 8L11 9L10 9L10 7L11 7L11 5L10 5L10 4L9 4L9 3L10 3L10 1L8 1L8 2L9 2L9 3L8 3L8 4L9 4L9 5L8 5L8 7L9 7L9 8L6 8L6 9L8 9L8 10L9 10L9 12L6 12L6 13L7 13L7 14L6 14L6 15L9 15L9 14L11 14L11 15L10 15L10 16L9 16L9 17L8 17L8 16L4 16L4 15L5 15L5 14L4 14L4 13L3 13L3 10L4 10L4 12L5 12L5 11L7 11L7 10L4 10L4 9L5 9L5 8L0 8L0 9L1 9L1 10L0 10L0 11L1 11L1 13L0 13L0 15L1 15L1 20L0 20L0 23L1 23L1 24L0 24L0 26L1 26L1 28L0 28L0 29L1 29L1 28L2 28L2 30L3 30L3 29L4 29L4 32L3 32L3 31L2 31L2 32L3 32L3 33L2 33L2 35L1 35L1 34L0 34L0 35L1 35L1 36L0 36L0 37L1 37L1 39L0 39L0 41L1 41L1 42L0 42L0 44L2 44L2 47L1 47L1 45L0 45L0 48L5 48L5 47L8 47L8 46L9 46L9 47L10 47L10 48L9 48L9 49L8 49L8 48L6 48L6 49L8 49L8 51L10 51L10 50L11 50L11 52L13 52L13 53L12 53L12 54L13 54L13 55L9 55L9 53L10 53L10 52L8 52L8 57L9 57L9 56L13 56L13 57L14 57L14 56L15 56L15 57L16 57L16 56L17 56L17 57L19 57L19 56L18 56L18 55L20 55L20 54L19 54L19 53L20 53L20 52L21 52L21 53L22 53L22 54L21 54L21 55L23 55L23 56L24 56L24 57L26 57L26 56L27 56L27 57L29 57L29 56L30 56L30 57L31 57L31 56L35 56L35 57L39 57L39 56L37 56L37 55L40 55L40 56L41 56L41 57L44 57L44 56L42 56L42 55L44 55L44 54L45 54L45 55L47 55L47 56L48 56L48 57L49 57L49 56L50 56L50 57L52 57L52 55L51 55L51 53L52 53L52 54L54 54L54 55L53 55L53 56L55 56L55 57L56 57L56 56L55 56L55 53L56 53L56 52L55 52L55 51L56 51L56 50L57 50L57 48L56 48L56 46L57 46L57 45L56 45L56 44L55 44L55 43L56 43L56 42L55 42L55 41L53 41L53 40L55 40L55 39L57 39L57 35L56 35L56 34L57 34L57 32L56 32L56 30L57 30L57 27L56 27L56 26L57 26L57 25L56 25L56 22L57 22L57 20L56 20L56 22L55 22L55 23L53 23L53 22L54 22L54 21L51 21L51 20L52 20L52 19L53 19L53 20L55 20L55 19L56 19L56 18L57 18L57 17L56 17L56 16L57 16L57 15L56 15L56 14L57 14L57 12L56 12L56 14L55 14L55 15L53 15L53 13L54 13L54 12L55 12L55 11L56 11L56 10L54 10L54 11L53 11L53 9L54 9L54 8L53 8L53 9L52 9L52 8L51 8L51 11L50 11L50 8L48 8L48 9L47 9L47 10L45 10L45 9L46 9L46 8L45 8L45 6L44 6L44 3L47 3L47 5L46 5L46 4L45 4L45 5L46 5L46 7L47 7L47 5L48 5L48 0L46 0L46 1L45 1L45 2L44 2L44 3L42 3L42 2L43 2L43 0L41 0L41 1L40 1L40 0L39 0L39 1L38 1L38 0L37 0L37 1L38 1L38 2L37 2L37 3L36 3L36 0L35 0L35 1L33 1L33 2L32 2L32 3L31 3L31 1L32 1L32 0L28 0L28 1L29 1L29 2L28 2L28 3L27 3L27 4L26 4L26 3L23 3L23 2L27 2L27 1L26 1L26 0L23 0L23 2L22 2L22 0L21 0L21 1L18 1L18 0L17 0L17 4L18 4L18 5L17 5L17 6L16 6L16 7L15 7L15 5L16 5L16 4L15 4L15 5L14 5L14 8L13 8L13 4L14 4L14 2L15 2L15 0L14 0L14 2L12 2L12 1L13 1L13 0ZM46 1L46 2L47 2L47 1ZM19 2L19 4L21 4L21 7L22 7L22 8L19 8L19 9L20 9L20 10L21 10L21 11L19 11L19 12L20 12L20 14L21 14L21 13L22 13L22 14L24 14L24 15L20 15L20 16L19 16L19 15L18 15L18 14L17 14L17 13L18 13L18 12L17 12L17 11L18 11L18 10L17 10L17 9L15 9L15 8L14 8L14 9L12 9L12 10L10 10L10 9L9 9L9 10L10 10L10 11L12 11L12 12L11 12L11 13L12 13L12 15L13 15L13 14L15 14L15 13L16 13L16 16L14 16L14 18L13 18L13 17L12 17L12 16L10 16L10 17L11 17L11 20L8 20L8 19L9 19L9 18L8 18L8 17L6 17L6 18L8 18L8 19L6 19L6 20L8 20L8 22L7 22L7 21L3 21L3 20L2 20L2 21L1 21L1 22L2 22L2 23L5 23L5 26L8 26L8 25L6 25L6 24L7 24L7 23L8 23L8 22L10 22L10 21L14 21L14 22L12 22L12 23L14 23L14 24L13 24L13 25L14 25L14 26L17 26L17 25L15 25L15 24L16 24L16 23L15 23L15 22L16 22L16 21L17 21L17 22L18 22L18 21L17 21L17 20L20 20L20 21L19 21L19 22L20 22L20 23L19 23L19 24L21 24L21 25L19 25L19 26L18 26L18 27L17 27L17 28L18 28L18 29L16 29L16 28L15 28L15 27L14 27L14 28L13 28L13 26L11 26L11 23L9 23L9 24L10 24L10 25L9 25L9 26L10 26L10 28L11 28L11 30L10 30L10 29L9 29L9 32L8 32L8 34L7 34L7 33L6 33L6 32L7 32L7 31L5 31L5 32L4 32L4 33L3 33L3 34L5 34L5 35L6 35L6 36L7 36L7 37L5 37L5 38L4 38L4 37L3 37L3 38L4 38L4 39L5 39L5 40L7 40L7 41L5 41L5 42L4 42L4 45L6 45L6 46L7 46L7 45L9 45L9 46L10 46L10 45L9 45L9 44L10 44L10 43L11 43L11 44L13 44L13 45L14 45L14 46L12 46L12 45L11 45L11 47L12 47L12 49L11 49L11 50L12 50L12 51L13 51L13 52L14 52L14 55L15 55L15 56L16 56L16 55L15 55L15 54L16 54L16 53L17 53L17 51L18 51L18 52L19 52L19 51L21 51L21 52L22 52L22 53L24 53L24 54L23 54L23 55L24 55L24 56L26 56L26 54L27 54L27 56L29 56L29 55L30 55L30 56L31 56L31 54L32 54L32 53L33 53L33 55L35 55L35 56L36 56L36 54L35 54L35 53L33 53L33 52L32 52L32 51L31 51L31 53L30 53L30 54L27 54L27 53L24 53L24 52L26 52L26 51L25 51L25 50L26 50L26 49L25 49L25 48L24 48L24 49L25 49L25 50L22 50L22 51L21 51L21 49L23 49L23 47L26 47L26 48L27 48L27 47L28 47L28 48L29 48L29 44L30 44L30 45L31 45L31 43L29 43L29 41L27 41L27 40L26 40L26 39L25 39L25 40L24 40L24 39L23 39L23 40L20 40L20 43L22 43L22 42L23 42L23 40L24 40L24 41L25 41L25 43L23 43L23 45L22 45L22 44L20 44L20 46L19 46L19 47L17 47L17 48L20 48L20 50L19 50L19 51L18 51L18 50L17 50L17 49L16 49L16 48L15 48L15 49L16 49L16 50L14 50L14 49L13 49L13 47L14 47L14 46L17 46L17 45L18 45L18 44L17 44L17 45L16 45L16 43L13 43L13 42L10 42L10 41L11 41L11 39L13 39L13 38L14 38L14 40L15 40L15 42L17 42L17 43L18 43L18 42L19 42L19 41L18 41L18 42L17 42L17 41L16 41L16 40L17 40L17 39L18 39L18 37L17 37L17 36L19 36L19 37L23 37L23 38L24 38L24 37L23 37L23 36L24 36L24 34L23 34L23 33L25 33L25 34L26 34L26 33L25 33L25 32L26 32L26 31L24 31L24 30L23 30L23 29L26 29L26 28L25 28L25 27L26 27L26 26L28 26L28 25L31 25L31 24L32 24L32 26L31 26L31 27L32 27L32 29L31 29L31 31L27 31L27 35L26 35L26 36L27 36L27 37L25 37L25 38L27 38L27 39L28 39L28 40L32 40L32 41L31 41L31 42L32 42L32 43L33 43L33 44L32 44L32 46L31 46L31 47L32 47L32 49L31 49L31 50L32 50L32 49L33 49L33 50L34 50L34 52L35 52L35 50L36 50L36 52L37 52L37 51L38 51L38 53L37 53L37 54L40 54L40 53L43 53L43 54L44 54L44 53L45 53L45 54L48 54L48 50L47 50L47 49L48 49L48 48L49 48L49 47L48 47L48 48L47 48L47 49L46 49L46 50L45 50L45 48L46 48L46 47L44 47L44 45L45 45L45 46L48 46L48 44L49 44L49 46L50 46L50 47L51 47L51 48L53 48L53 47L55 47L55 46L56 46L56 45L55 45L55 44L54 44L54 46L53 46L53 43L54 43L54 42L53 42L53 41L51 41L51 42L50 42L50 43L49 43L49 42L48 42L48 41L49 41L49 39L51 39L51 40L52 40L52 39L54 39L54 38L53 38L53 35L55 35L55 37L56 37L56 35L55 35L55 34L56 34L56 32L53 32L53 31L54 31L54 30L53 30L53 31L48 31L48 28L47 28L47 29L46 29L46 30L47 30L47 31L48 31L48 32L46 32L46 33L45 33L45 32L43 32L43 30L45 30L45 28L46 28L46 27L48 27L48 26L47 26L47 25L48 25L48 24L49 24L49 25L50 25L50 26L51 26L51 25L54 25L54 24L53 24L53 23L50 23L50 22L51 22L51 21L49 21L49 19L52 19L52 18L56 18L56 17L53 17L53 16L52 16L52 15L50 15L50 14L51 14L51 12L50 12L50 11L49 11L49 12L45 12L45 11L42 11L42 10L40 10L40 9L41 9L41 7L42 7L42 8L44 8L44 9L43 9L43 10L44 10L44 9L45 9L45 8L44 8L44 6L43 6L43 7L42 7L42 6L41 6L41 5L40 5L40 4L41 4L41 3L37 3L37 4L36 4L36 5L35 5L35 2L34 2L34 3L32 3L32 4L31 4L31 8L32 8L32 10L31 10L31 11L30 11L30 10L29 10L29 9L28 9L28 11L29 11L29 12L28 12L28 13L26 13L26 12L27 12L27 11L26 11L26 12L25 12L25 10L23 10L23 12L24 12L24 13L22 13L22 12L21 12L21 11L22 11L22 10L21 10L21 9L24 9L24 6L23 6L23 5L24 5L24 4L23 4L23 3L20 3L20 2ZM28 3L28 4L30 4L30 3ZM22 4L22 5L23 5L23 4ZM25 4L25 8L26 8L26 4ZM32 4L32 5L33 5L33 4ZM37 4L37 5L36 5L36 7L37 7L37 6L38 6L38 9L37 9L37 8L35 8L35 5L34 5L34 7L33 7L33 6L32 6L32 7L33 7L33 9L34 9L34 8L35 8L35 9L37 9L37 10L36 10L36 12L35 12L35 13L36 13L36 14L33 14L33 13L34 13L34 12L33 12L33 13L32 13L32 12L31 12L31 13L30 13L30 14L29 14L29 13L28 13L28 14L29 14L29 16L28 16L28 15L27 15L27 16L28 16L28 17L27 17L27 18L26 18L26 13L24 13L24 14L25 14L25 15L24 15L24 16L25 16L25 17L22 17L22 16L21 16L21 17L22 17L22 18L20 18L20 17L19 17L19 16L18 16L18 15L17 15L17 16L16 16L16 17L15 17L15 21L16 21L16 20L17 20L17 19L21 19L21 20L22 20L22 19L23 19L23 20L24 20L24 21L22 21L22 22L21 22L21 23L22 23L22 24L23 24L23 25L22 25L22 26L21 26L21 27L20 27L20 26L19 26L19 27L20 27L20 28L21 28L21 29L22 29L22 28L21 28L21 27L22 27L22 26L24 26L24 27L25 27L25 26L26 26L26 25L25 25L25 24L27 24L27 25L28 25L28 24L29 24L29 22L30 22L30 23L31 23L31 21L32 21L32 20L33 20L33 21L34 21L34 20L35 20L35 23L32 23L32 24L33 24L33 25L37 25L37 26L38 26L38 25L40 25L40 24L41 24L41 25L42 25L42 26L41 26L41 28L42 28L42 26L43 26L43 25L44 25L44 24L41 24L41 22L42 22L42 23L44 23L44 20L45 20L45 21L47 21L47 22L45 22L45 24L46 24L46 25L47 25L47 22L49 22L49 21L47 21L47 20L45 20L45 19L46 19L46 18L44 18L44 15L47 15L47 16L45 16L45 17L47 17L47 18L50 18L50 17L52 17L52 16L50 16L50 17L47 17L47 16L48 16L48 15L49 15L49 14L50 14L50 12L49 12L49 13L47 13L47 14L43 14L43 13L44 13L44 12L43 12L43 13L39 13L39 12L41 12L41 11L40 11L40 10L39 10L39 11L38 11L38 9L39 9L39 6L40 6L40 7L41 7L41 6L40 6L40 5L39 5L39 6L38 6L38 4ZM9 5L9 7L10 7L10 5ZM18 5L18 6L17 6L17 7L16 7L16 8L17 8L17 7L18 7L18 6L19 6L19 7L20 7L20 5ZM27 5L27 8L30 8L30 5ZM22 6L22 7L23 7L23 6ZM28 6L28 7L29 7L29 6ZM48 6L48 7L49 7L49 6ZM55 8L55 9L56 9L56 8ZM2 9L2 10L3 10L3 9ZM13 10L13 11L14 11L14 12L13 12L13 13L15 13L15 11L16 11L16 10ZM32 10L32 11L33 11L33 10ZM47 10L47 11L48 11L48 10ZM9 12L9 13L10 13L10 12ZM16 12L16 13L17 13L17 12ZM52 12L52 13L53 13L53 12ZM31 13L31 14L30 14L30 15L32 15L32 13ZM38 13L38 14L37 14L37 15L35 15L35 16L31 16L31 17L32 17L32 18L35 18L35 19L36 19L36 20L37 20L37 21L38 21L38 22L37 22L37 24L40 24L40 22L39 22L39 21L41 21L41 20L39 20L39 21L38 21L38 19L39 19L39 17L41 17L41 16L42 16L42 17L43 17L43 16L42 16L42 15L43 15L43 14L41 14L41 16L39 16L39 15L38 15L38 14L39 14L39 13ZM1 14L1 15L2 15L2 17L4 17L4 16L3 16L3 15L4 15L4 14ZM35 16L35 17L37 17L37 18L38 18L38 17L39 17L39 16L38 16L38 17L37 17L37 16ZM16 17L16 18L17 18L17 17ZM3 18L3 19L4 19L4 20L5 20L5 19L4 19L4 18ZM23 18L23 19L24 19L24 18ZM27 18L27 19L26 19L26 20L25 20L25 21L24 21L24 22L23 22L23 23L24 23L24 24L25 24L25 23L26 23L26 22L25 22L25 21L31 21L31 18L30 18L30 19L29 19L29 20L27 20L27 19L28 19L28 18ZM41 18L41 19L42 19L42 18ZM43 18L43 20L42 20L42 21L43 21L43 20L44 20L44 18ZM13 19L13 20L14 20L14 19ZM2 21L2 22L3 22L3 21ZM6 22L6 23L7 23L7 22ZM17 23L17 24L18 24L18 23ZM27 23L27 24L28 24L28 23ZM49 23L49 24L50 24L50 25L51 25L51 24L50 24L50 23ZM1 24L1 26L2 26L2 24ZM3 24L3 27L2 27L2 28L4 28L4 24ZM55 25L55 26L56 26L56 25ZM32 26L32 27L33 27L33 28L35 28L35 29L38 29L38 28L39 28L39 27L36 27L36 26L34 26L34 27L33 27L33 26ZM44 26L44 28L43 28L43 29L40 29L40 30L43 30L43 29L44 29L44 28L45 28L45 27L46 27L46 26ZM53 26L53 27L54 27L54 26ZM5 27L5 30L8 30L8 27ZM11 27L11 28L12 28L12 30L11 30L11 31L10 31L10 32L9 32L9 34L8 34L8 35L9 35L9 34L12 34L12 36L11 36L11 35L10 35L10 36L9 36L9 37L7 37L7 38L5 38L5 39L8 39L8 38L9 38L9 40L8 40L8 41L9 41L9 40L10 40L10 39L11 39L11 38L12 38L12 37L13 37L13 34L15 34L15 35L14 35L14 37L15 37L15 38L16 38L16 37L15 37L15 36L16 36L16 34L15 34L15 33L14 33L14 32L17 32L17 35L20 35L20 36L23 36L23 35L22 35L22 33L21 33L21 32L24 32L24 31L21 31L21 30L20 30L20 29L18 29L18 30L20 30L20 31L21 31L21 32L17 32L17 30L16 30L16 29L13 29L13 28L12 28L12 27ZM27 27L27 30L30 30L30 27ZM35 27L35 28L36 28L36 27ZM49 27L49 30L52 30L52 27ZM55 27L55 28L54 28L54 29L55 29L55 28L56 28L56 27ZM6 28L6 29L7 29L7 28ZM28 28L28 29L29 29L29 28ZM50 28L50 29L51 29L51 28ZM32 29L32 31L33 31L33 32L34 32L34 31L35 31L35 30L33 30L33 29ZM12 30L12 31L11 31L11 32L12 32L12 34L13 34L13 32L14 32L14 31L15 31L15 30ZM38 30L38 32L39 32L39 30ZM12 31L12 32L13 32L13 31ZM0 32L0 33L1 33L1 32ZM28 32L28 33L29 33L29 34L30 34L30 36L29 36L29 37L31 37L31 38L29 38L29 39L33 39L33 40L35 40L35 42L37 42L37 43L34 43L34 42L33 42L33 41L32 41L32 42L33 42L33 43L34 43L34 45L36 45L36 46L33 46L33 47L36 47L36 48L35 48L35 49L36 49L36 50L38 50L38 51L40 51L40 52L41 52L41 50L42 50L42 51L43 51L43 53L44 53L44 52L45 52L45 51L43 51L43 49L44 49L44 48L43 48L43 47L42 47L42 48L41 48L41 46L43 46L43 45L44 45L44 44L45 44L45 45L47 45L47 43L48 43L48 42L47 42L47 43L46 43L46 42L44 42L44 40L45 40L45 39L46 39L46 41L47 41L47 39L48 39L48 37L49 37L49 38L50 38L50 37L52 37L52 35L53 35L53 34L52 34L52 33L53 33L53 32L52 32L52 33L51 33L51 32L50 32L50 34L48 34L48 35L46 35L46 34L45 34L45 35L44 35L44 33L43 33L43 32L41 32L41 33L39 33L39 34L40 34L40 35L39 35L39 36L38 36L38 33L37 33L37 32L35 32L35 34L37 34L37 36L35 36L35 35L32 35L32 34L33 34L33 33L32 33L32 32L31 32L31 33L29 33L29 32ZM48 32L48 33L49 33L49 32ZM5 33L5 34L6 34L6 35L7 35L7 34L6 34L6 33ZM19 33L19 34L20 34L20 35L21 35L21 33ZM31 33L31 34L32 34L32 33ZM54 33L54 34L55 34L55 33ZM42 34L42 36L40 36L40 37L38 37L38 38L37 38L37 39L35 39L35 40L38 40L38 42L39 42L39 41L41 41L41 39L45 39L45 38L46 38L46 39L47 39L47 37L48 37L48 36L49 36L49 37L50 37L50 35L52 35L52 34L50 34L50 35L48 35L48 36L47 36L47 37L45 37L45 36L44 36L44 35L43 35L43 34ZM32 36L32 37L34 37L34 38L33 38L33 39L34 39L34 38L35 38L35 36ZM43 36L43 37L40 37L40 38L43 38L43 37L44 37L44 38L45 38L45 37L44 37L44 36ZM10 37L10 38L11 38L11 37ZM27 37L27 38L28 38L28 37ZM19 38L19 39L20 39L20 38ZM51 38L51 39L52 39L52 38ZM15 39L15 40L16 40L16 39ZM38 39L38 40L39 40L39 39ZM1 40L1 41L2 41L2 42L3 42L3 40ZM26 41L26 42L27 42L27 41ZM6 42L6 43L7 43L7 44L6 44L6 45L7 45L7 44L8 44L8 42ZM9 42L9 43L10 43L10 42ZM41 42L41 43L39 43L39 45L38 45L38 46L39 46L39 47L38 47L38 48L37 48L37 49L38 49L38 50L41 50L41 48L39 48L39 47L40 47L40 45L41 45L41 44L42 44L42 42ZM43 42L43 44L44 44L44 42ZM51 42L51 43L50 43L50 44L51 44L51 45L50 45L50 46L51 46L51 47L53 47L53 46L51 46L51 45L52 45L52 44L51 44L51 43L53 43L53 42ZM25 43L25 44L27 44L27 45L26 45L26 47L27 47L27 45L28 45L28 44L29 44L29 43ZM45 43L45 44L46 44L46 43ZM14 44L14 45L15 45L15 44ZM21 45L21 46L20 46L20 47L23 47L23 46L25 46L25 45L23 45L23 46L22 46L22 45ZM3 46L3 47L5 47L5 46ZM33 48L33 49L34 49L34 48ZM38 48L38 49L39 49L39 48ZM42 48L42 49L43 49L43 48ZM55 48L55 50L54 50L54 51L55 51L55 50L56 50L56 48ZM9 49L9 50L10 50L10 49ZM12 49L12 50L13 50L13 51L14 51L14 52L15 52L15 53L16 53L16 52L15 52L15 51L14 51L14 50L13 50L13 49ZM27 49L27 52L30 52L30 49ZM49 49L49 52L52 52L52 49ZM28 50L28 51L29 51L29 50ZM46 50L46 52L47 52L47 50ZM50 50L50 51L51 51L51 50ZM53 52L53 53L54 53L54 52ZM41 54L41 55L42 55L42 54ZM50 55L50 56L51 56L51 55ZM20 56L20 57L21 57L21 56ZM45 56L45 57L46 57L46 56ZM0 0L0 7L7 7L7 0ZM1 1L1 6L6 6L6 1ZM2 2L2 5L5 5L5 2ZM50 0L50 7L57 7L57 0ZM51 1L51 6L56 6L56 1ZM52 2L52 5L55 5L55 2ZM0 50L0 57L7 57L7 50ZM1 51L1 56L6 56L6 51ZM2 52L2 55L5 55L5 52Z" fill="#000000"/></g></g></svg>
