<?xml version="1.0" encoding="UTF-8"?>
<svg xmlns="http://www.w3.org/2000/svg" version="1.1" width="300" height="300" viewBox="0 0 300 300"><rect x="0" y="0" width="300" height="300" fill="#fefefe"/><g transform="scale(4.615)"><g transform="translate(4,4)"><path fill-rule="evenodd" d="M8 0L8 2L9 2L9 4L8 4L8 10L6 10L6 9L7 9L7 8L5 8L5 10L4 10L4 12L3 12L3 11L2 11L2 9L3 9L3 8L0 8L0 9L1 9L1 10L0 10L0 12L1 12L1 11L2 11L2 12L3 12L3 13L9 13L9 14L6 14L6 15L5 15L5 14L3 14L3 15L0 15L0 16L1 16L1 17L0 17L0 20L2 20L2 21L1 21L1 22L0 22L0 26L2 26L2 24L6 24L6 25L7 25L7 24L8 24L8 25L9 25L9 26L5 26L5 25L4 25L4 27L2 27L2 28L1 28L1 29L0 29L0 30L1 30L1 29L2 29L2 28L3 28L3 29L4 29L4 30L3 30L3 33L4 33L4 34L5 34L5 35L1 35L1 36L4 36L4 37L3 37L3 38L2 38L2 37L0 37L0 40L1 40L1 41L0 41L0 43L1 43L1 42L2 42L2 43L3 43L3 44L1 44L1 46L0 46L0 48L5 48L5 47L7 47L7 48L6 48L6 49L8 49L8 50L9 50L9 49L10 49L10 51L8 51L8 52L9 52L9 53L10 53L10 54L8 54L8 57L9 57L9 55L10 55L10 57L11 57L11 56L12 56L12 57L14 57L14 56L16 56L16 57L17 57L17 56L18 56L18 57L19 57L19 56L18 56L18 53L19 53L19 52L20 52L20 53L21 53L21 54L20 54L20 55L21 55L21 54L23 54L23 55L22 55L22 57L25 57L25 55L24 55L24 54L25 54L25 51L26 51L26 53L28 53L28 55L27 55L27 54L26 54L26 55L27 55L27 56L26 56L26 57L28 57L28 55L29 55L29 57L33 57L33 55L34 55L34 57L35 57L35 55L37 55L37 54L36 54L36 53L37 53L37 52L38 52L38 53L39 53L39 55L40 55L40 54L41 54L41 56L40 56L40 57L41 57L41 56L42 56L42 57L43 57L43 56L44 56L44 57L45 57L45 56L46 56L46 55L47 55L47 57L48 57L48 55L49 55L49 57L50 57L50 55L49 55L49 54L52 54L52 55L53 55L53 56L51 56L51 57L53 57L53 56L54 56L54 55L57 55L57 54L54 54L54 55L53 55L53 53L56 53L56 52L57 52L57 49L56 49L56 47L57 47L57 42L56 42L56 43L55 43L55 42L54 42L54 41L57 41L57 40L54 40L54 38L57 38L57 33L56 33L56 31L57 31L57 29L53 29L53 28L54 28L54 27L55 27L55 28L56 28L56 27L57 27L57 24L56 24L56 23L57 23L57 21L56 21L56 23L55 23L55 21L54 21L54 19L55 19L55 16L56 16L56 17L57 17L57 12L56 12L56 15L55 15L55 13L53 13L53 12L54 12L54 11L55 11L55 10L56 10L56 11L57 11L57 10L56 10L56 9L57 9L57 8L55 8L55 9L54 9L54 10L52 10L52 9L53 9L53 8L49 8L49 9L51 9L51 11L50 11L50 13L49 13L49 14L48 14L48 12L47 12L47 11L48 11L48 7L49 7L49 6L48 6L48 7L47 7L47 5L48 5L48 0L42 0L42 1L41 1L41 0L38 0L38 2L37 2L37 1L35 1L35 0L34 0L34 2L33 2L33 0L30 0L30 1L29 1L29 0L28 0L28 1L29 1L29 3L30 3L30 4L28 4L28 2L27 2L27 0L24 0L24 1L23 1L23 0L20 0L20 1L21 1L21 2L20 2L20 3L21 3L21 5L20 5L20 7L19 7L19 5L18 5L18 2L16 2L16 3L15 3L15 0L14 0L14 3L13 3L13 1L11 1L11 0L10 0L10 1L11 1L11 2L12 2L12 4L13 4L13 5L15 5L15 6L14 6L14 7L15 7L15 6L16 6L16 7L17 7L17 6L18 6L18 9L17 9L17 10L16 10L16 12L17 12L17 14L15 14L15 15L17 15L17 14L18 14L18 13L19 13L19 16L18 16L18 18L19 18L19 19L20 19L20 21L21 21L21 22L20 22L20 23L21 23L21 30L20 30L20 32L18 32L18 33L17 33L17 32L16 32L16 31L17 31L17 30L15 30L15 29L14 29L14 28L16 28L16 27L17 27L17 26L18 26L18 25L19 25L19 27L18 27L18 28L20 28L20 24L19 24L19 20L18 20L18 23L16 23L16 22L17 22L17 19L16 19L16 17L17 17L17 16L14 16L14 14L13 14L13 13L12 13L12 16L14 16L14 17L12 17L12 18L11 18L11 19L12 19L12 20L10 20L10 19L9 19L9 20L6 20L6 19L8 19L8 18L5 18L5 16L6 16L6 17L9 17L9 18L10 18L10 17L11 17L11 16L10 16L10 15L11 15L11 14L10 14L10 13L9 13L9 12L11 12L11 11L9 11L9 10L12 10L12 11L13 11L13 10L14 10L14 9L15 9L15 8L14 8L14 9L13 9L13 8L12 8L12 7L13 7L13 6L12 6L12 5L9 5L9 4L10 4L10 2L9 2L9 0ZM16 0L16 1L18 1L18 0ZM22 1L22 2L21 2L21 3L22 3L22 6L21 6L21 9L20 9L20 10L19 10L19 9L18 9L18 10L19 10L19 11L18 11L18 12L19 12L19 11L20 11L20 10L21 10L21 12L20 12L20 14L22 14L22 16L24 16L24 18L26 18L26 20L25 20L25 19L24 19L24 20L25 20L25 21L26 21L26 20L27 20L27 22L26 22L26 23L28 23L28 22L29 22L29 23L31 23L31 25L30 25L30 24L29 24L29 26L31 26L31 25L32 25L32 28L31 28L31 29L32 29L32 28L33 28L33 29L34 29L34 32L35 32L35 33L34 33L34 34L33 34L33 35L35 35L35 37L34 37L34 36L33 36L33 37L34 37L34 39L33 39L33 38L31 38L31 41L28 41L28 40L30 40L30 36L31 36L31 37L32 37L32 36L31 36L31 35L32 35L32 32L33 32L33 30L32 30L32 32L30 32L30 34L31 34L31 35L28 35L28 34L29 34L29 32L27 32L27 33L28 33L28 34L26 34L26 33L25 33L25 31L26 31L26 30L25 30L25 29L24 29L24 28L23 28L23 27L24 27L24 26L25 26L25 25L24 25L24 26L23 26L23 27L22 27L22 28L23 28L23 29L22 29L22 30L21 30L21 32L20 32L20 35L18 35L18 34L19 34L19 33L18 33L18 34L17 34L17 33L16 33L16 34L17 34L17 37L16 37L16 36L15 36L15 34L13 34L13 33L12 33L12 31L11 31L11 30L13 30L13 32L14 32L14 33L15 33L15 32L14 32L14 31L15 31L15 30L14 30L14 29L12 29L12 28L14 28L14 27L12 27L12 28L11 28L11 26L12 26L12 25L11 25L11 24L12 24L12 23L13 23L13 22L12 22L12 21L13 21L13 20L12 20L12 21L11 21L11 22L10 22L10 20L9 20L9 22L8 22L8 21L5 21L5 22L4 22L4 23L6 23L6 24L7 24L7 23L8 23L8 24L9 24L9 25L10 25L10 27L9 27L9 29L10 29L10 30L9 30L9 32L7 32L7 31L6 31L6 32L7 32L7 33L6 33L6 34L7 34L7 35L6 35L6 36L7 36L7 37L6 37L6 38L5 38L5 37L4 37L4 38L3 38L3 39L2 39L2 41L5 41L5 39L6 39L6 40L7 40L7 41L6 41L6 42L7 42L7 41L9 41L9 39L8 39L8 40L7 40L7 39L6 39L6 38L7 38L7 37L8 37L8 38L9 38L9 35L8 35L8 34L7 34L7 33L10 33L10 36L11 36L11 37L10 37L10 39L12 39L12 41L10 41L10 42L9 42L9 43L6 43L6 44L5 44L5 46L3 46L3 45L2 45L2 46L1 46L1 47L2 47L2 46L3 46L3 47L5 47L5 46L7 46L7 47L9 47L9 46L10 46L10 47L11 47L11 48L13 48L13 47L11 47L11 45L8 45L8 44L12 44L12 45L13 45L13 46L14 46L14 47L15 47L15 48L14 48L14 49L13 49L13 50L14 50L14 51L15 51L15 52L14 52L14 55L15 55L15 52L17 52L17 53L18 53L18 51L17 51L17 50L18 50L18 48L19 48L19 49L20 49L20 50L22 50L22 51L21 51L21 52L22 52L22 51L23 51L23 52L24 52L24 51L25 51L25 50L26 50L26 49L25 49L25 48L23 48L23 44L22 44L22 43L23 43L23 41L22 41L22 40L21 40L21 41L20 41L20 40L19 40L19 41L20 41L20 42L19 42L19 43L18 43L18 44L19 44L19 43L20 43L20 44L21 44L21 45L20 45L20 46L19 46L19 45L18 45L18 48L17 48L17 47L16 47L16 46L17 46L17 45L16 45L16 43L17 43L17 42L18 42L18 39L16 39L16 38L19 38L19 37L18 37L18 36L20 36L20 35L21 35L21 37L22 37L22 38L23 38L23 40L24 40L24 43L25 43L25 42L26 42L26 41L25 41L25 40L26 40L26 39L27 39L27 41L28 41L28 42L27 42L27 43L29 43L29 44L28 44L28 46L29 46L29 47L28 47L28 48L31 48L31 49L32 49L32 50L33 50L33 49L32 49L32 48L31 48L31 47L33 47L33 48L34 48L34 50L35 50L35 51L37 51L37 49L36 49L36 48L37 48L37 47L38 47L38 52L39 52L39 53L40 53L40 52L39 52L39 49L40 49L40 51L41 51L41 53L42 53L42 54L43 54L43 55L44 55L44 56L45 56L45 55L44 55L44 52L43 52L43 51L41 51L41 49L42 49L42 50L44 50L44 51L46 51L46 50L47 50L47 49L46 49L46 50L45 50L45 49L44 49L44 46L43 46L43 45L44 45L44 44L45 44L45 43L46 43L46 42L47 42L47 43L48 43L48 42L49 42L49 44L50 44L50 45L47 45L47 44L46 44L46 48L47 48L47 46L49 46L49 47L50 47L50 46L51 46L51 44L50 44L50 42L49 42L49 41L51 41L51 40L52 40L52 44L53 44L53 45L52 45L52 48L53 48L53 49L54 49L54 50L53 50L53 51L54 51L54 52L56 52L56 51L55 51L55 49L54 49L54 48L55 48L55 47L56 47L56 44L55 44L55 43L54 43L54 44L53 44L53 40L52 40L52 39L53 39L53 38L54 38L54 36L55 36L55 35L56 35L56 33L55 33L55 31L56 31L56 30L55 30L55 31L54 31L54 30L53 30L53 31L54 31L54 33L53 33L53 32L50 32L50 31L49 31L49 32L50 32L50 33L49 33L49 36L50 36L50 33L51 33L51 37L52 37L52 39L51 39L51 40L50 40L50 37L48 37L48 38L47 38L47 37L46 37L46 36L45 36L45 37L46 37L46 38L47 38L47 40L46 40L46 39L45 39L45 40L46 40L46 42L45 42L45 41L44 41L44 42L43 42L43 38L44 38L44 35L43 35L43 33L42 33L42 31L44 31L44 30L46 30L46 31L45 31L45 33L46 33L46 35L47 35L47 36L48 36L48 35L47 35L47 34L48 34L48 33L46 33L46 31L47 31L47 30L48 30L48 27L47 27L47 28L46 28L46 29L44 29L44 30L43 30L43 28L42 28L42 31L40 31L40 30L39 30L39 29L40 29L40 28L41 28L41 27L43 27L43 25L44 25L44 24L46 24L46 26L45 26L45 27L46 27L46 26L49 26L49 24L51 24L51 25L50 25L50 26L51 26L51 25L52 25L52 26L53 26L53 25L54 25L54 26L55 26L55 25L56 25L56 24L55 24L55 23L54 23L54 21L53 21L53 22L52 22L52 20L53 20L53 19L54 19L54 17L53 17L53 18L52 18L52 16L53 16L53 15L54 15L54 16L55 16L55 15L54 15L54 14L52 14L52 13L50 13L50 16L49 16L49 17L48 17L48 18L49 18L49 19L48 19L48 20L49 20L49 21L48 21L48 23L49 23L49 24L47 24L47 19L46 19L46 23L44 23L44 22L45 22L45 21L44 21L44 19L45 19L45 17L44 17L44 16L46 16L46 15L48 15L48 14L47 14L47 13L46 13L46 11L47 11L47 9L46 9L46 8L45 8L45 7L46 7L46 6L45 6L45 5L44 5L44 4L45 4L45 2L47 2L47 1L42 1L42 2L40 2L40 1L39 1L39 2L38 2L38 4L37 4L37 2L35 2L35 3L36 3L36 4L35 4L35 9L34 9L34 10L33 10L33 9L32 9L32 8L34 8L34 3L33 3L33 2L32 2L32 1L30 1L30 2L32 2L32 5L31 5L31 9L30 9L30 10L31 10L31 9L32 9L32 11L34 11L34 12L35 12L35 13L34 13L34 15L33 15L33 13L32 13L32 16L31 16L31 12L30 12L30 11L29 11L29 12L30 12L30 13L29 13L29 15L28 15L28 14L27 14L27 12L28 12L28 11L27 11L27 10L29 10L29 9L27 9L27 10L25 10L25 9L26 9L26 5L24 5L24 6L23 6L23 3L22 3L22 2L23 2L23 1ZM24 1L24 4L25 4L25 1ZM39 2L39 4L38 4L38 5L39 5L39 4L40 4L40 2ZM43 2L43 3L41 3L41 4L42 4L42 5L41 5L41 6L40 6L40 7L41 7L41 8L40 8L40 9L41 9L41 10L39 10L39 11L38 11L38 9L39 9L39 6L38 6L38 7L37 7L37 6L36 6L36 10L34 10L34 11L35 11L35 12L36 12L36 13L35 13L35 14L36 14L36 18L35 18L35 19L34 19L34 17L35 17L35 15L34 15L34 17L33 17L33 16L32 16L32 17L33 17L33 18L32 18L32 19L31 19L31 20L30 20L30 21L31 21L31 20L32 20L32 21L33 21L33 22L31 22L31 23L32 23L32 25L33 25L33 26L34 26L34 24L36 24L36 26L37 26L37 28L36 28L36 27L34 27L34 29L35 29L35 30L37 30L37 31L36 31L36 33L35 33L35 35L36 35L36 37L35 37L35 38L36 38L36 41L35 41L35 39L34 39L34 41L33 41L33 40L32 40L32 45L33 45L33 47L34 47L34 48L35 48L35 47L34 47L34 45L33 45L33 44L35 44L35 43L36 43L36 41L37 41L37 42L38 42L38 41L39 41L39 38L40 38L40 41L41 41L41 42L40 42L40 43L37 43L37 44L36 44L36 45L35 45L35 46L36 46L36 47L37 47L37 46L38 46L38 45L37 45L37 44L40 44L40 45L39 45L39 46L41 46L41 47L40 47L40 49L41 49L41 47L42 47L42 45L43 45L43 44L44 44L44 43L45 43L45 42L44 42L44 43L43 43L43 42L42 42L42 41L41 41L41 40L42 40L42 39L41 39L41 35L40 35L40 36L39 36L39 38L38 38L38 37L37 37L37 36L38 36L38 35L39 35L39 34L38 34L38 33L39 33L39 32L40 32L40 34L42 34L42 33L41 33L41 32L40 32L40 31L38 31L38 30L37 30L37 28L38 28L38 29L39 29L39 26L40 26L40 27L41 27L41 26L42 26L42 25L43 25L43 22L44 22L44 21L43 21L43 22L42 22L42 21L41 21L41 20L42 20L42 19L44 19L44 17L43 17L43 18L42 18L42 17L41 17L41 15L42 15L42 12L43 12L43 10L45 10L45 8L44 8L44 9L43 9L43 8L42 8L42 7L43 7L43 6L44 6L44 7L45 7L45 6L44 6L44 5L43 5L43 4L44 4L44 2ZM14 3L14 4L15 4L15 3ZM16 3L16 4L17 4L17 3ZM26 3L26 4L27 4L27 3ZM46 3L46 5L47 5L47 3ZM16 5L16 6L17 6L17 5ZM27 5L27 8L30 8L30 5ZM42 5L42 6L41 6L41 7L42 7L42 6L43 6L43 5ZM9 6L9 7L10 7L10 6ZM11 6L11 7L12 7L12 6ZM22 6L22 7L23 7L23 6ZM24 6L24 7L25 7L25 6ZM28 6L28 7L29 7L29 6ZM32 6L32 7L33 7L33 6ZM9 8L9 9L12 9L12 8ZM22 8L22 9L21 9L21 10L22 10L22 9L23 9L23 11L22 11L22 12L24 12L24 13L23 13L23 14L24 14L24 13L26 13L26 11L24 11L24 9L25 9L25 8L24 8L24 9L23 9L23 8ZM37 8L37 9L38 9L38 8ZM42 9L42 10L41 10L41 12L42 12L42 10L43 10L43 9ZM6 11L6 12L8 12L8 11ZM14 11L14 12L15 12L15 11ZM36 11L36 12L37 12L37 13L38 13L38 15L37 15L37 16L38 16L38 18L40 18L40 19L39 19L39 21L38 21L38 20L37 20L37 21L36 21L36 20L34 20L34 19L33 19L33 20L34 20L34 22L35 22L35 23L36 23L36 24L37 24L37 25L38 25L38 26L39 26L39 25L38 25L38 22L39 22L39 23L41 23L41 25L42 25L42 22L40 22L40 19L41 19L41 18L40 18L40 15L41 15L41 13L40 13L40 12L37 12L37 11ZM51 11L51 12L52 12L52 11ZM44 12L44 13L45 13L45 14L43 14L43 16L44 16L44 15L46 15L46 13L45 13L45 12ZM0 13L0 14L2 14L2 13ZM39 13L39 15L40 15L40 13ZM9 14L9 15L8 15L8 16L9 16L9 15L10 15L10 14ZM26 14L26 15L25 15L25 16L26 16L26 17L27 17L27 16L26 16L26 15L27 15L27 14ZM51 14L51 16L52 16L52 14ZM4 15L4 16L5 16L5 15ZM6 15L6 16L7 16L7 15ZM20 15L20 18L21 18L21 15ZM29 15L29 16L30 16L30 17L28 17L28 18L30 18L30 17L31 17L31 16L30 16L30 15ZM2 16L2 19L4 19L4 20L5 20L5 18L3 18L3 16ZM14 17L14 18L15 18L15 17ZM46 17L46 18L47 18L47 17ZM49 17L49 18L50 18L50 19L49 19L49 20L51 20L51 19L52 19L52 18L50 18L50 17ZM12 18L12 19L13 19L13 18ZM36 18L36 19L37 19L37 18ZM56 18L56 19L57 19L57 18ZM14 19L14 20L16 20L16 19ZM28 20L28 21L29 21L29 20ZM2 21L2 22L1 22L1 23L2 23L2 22L3 22L3 21ZM14 21L14 23L15 23L15 21ZM35 21L35 22L36 22L36 23L37 23L37 22L38 22L38 21L37 21L37 22L36 22L36 21ZM6 22L6 23L7 23L7 22ZM24 22L24 23L25 23L25 22ZM49 22L49 23L50 23L50 22ZM51 22L51 24L52 24L52 25L53 25L53 24L54 24L54 23L53 23L53 24L52 24L52 22ZM10 23L10 24L11 24L11 23ZM22 23L22 24L23 24L23 23ZM33 23L33 24L34 24L34 23ZM14 24L14 25L13 25L13 26L15 26L15 24ZM17 24L17 25L16 25L16 26L17 26L17 25L18 25L18 24ZM27 24L27 25L26 25L26 26L28 26L28 24ZM5 27L5 30L8 30L8 27ZM27 27L27 30L30 30L30 27ZM49 27L49 30L52 30L52 27ZM6 28L6 29L7 29L7 28ZM28 28L28 29L29 29L29 28ZM35 28L35 29L36 29L36 28ZM50 28L50 29L51 29L51 28ZM23 29L23 30L22 30L22 33L23 33L23 34L21 34L21 35L22 35L22 37L23 37L23 35L25 35L25 36L24 36L24 37L26 37L26 38L24 38L24 39L26 39L26 38L27 38L27 36L28 36L28 37L29 37L29 36L28 36L28 35L26 35L26 34L24 34L24 32L23 32L23 30L24 30L24 29ZM18 30L18 31L19 31L19 30ZM10 31L10 32L11 32L11 31ZM37 31L37 32L38 32L38 31ZM0 32L0 34L1 34L1 32ZM11 33L11 34L12 34L12 33ZM36 33L36 35L38 35L38 34L37 34L37 33ZM53 34L53 36L52 36L52 37L53 37L53 36L54 36L54 34ZM7 35L7 36L8 36L8 35ZM11 35L11 36L13 36L13 37L14 37L14 38L12 38L12 37L11 37L11 38L12 38L12 39L14 39L14 43L16 43L16 41L17 41L17 40L16 40L16 41L15 41L15 36L13 36L13 35ZM42 36L42 37L43 37L43 36ZM36 37L36 38L37 38L37 41L38 41L38 38L37 38L37 37ZM20 38L20 39L21 39L21 38ZM28 38L28 39L29 39L29 38ZM48 38L48 40L47 40L47 41L48 41L48 40L49 40L49 38ZM3 39L3 40L4 40L4 39ZM34 41L34 42L35 42L35 41ZM3 42L3 43L4 43L4 42ZM10 42L10 43L11 43L11 42ZM12 42L12 43L13 43L13 42ZM30 42L30 44L29 44L29 46L30 46L30 47L31 47L31 46L30 46L30 45L31 45L31 42ZM40 43L40 44L41 44L41 45L42 45L42 44L43 44L43 43ZM6 44L6 45L7 45L7 44ZM13 44L13 45L14 45L14 46L16 46L16 45L15 45L15 44ZM24 45L24 47L25 47L25 46L26 46L26 48L27 48L27 46L26 46L26 45ZM36 45L36 46L37 46L37 45ZM53 45L53 48L54 48L54 46L55 46L55 45ZM21 46L21 48L20 48L20 49L21 49L21 48L22 48L22 50L23 50L23 51L24 51L24 49L23 49L23 48L22 48L22 46ZM8 48L8 49L9 49L9 48ZM15 48L15 50L16 50L16 48ZM11 49L11 51L10 51L10 52L11 52L11 54L10 54L10 55L12 55L12 56L13 56L13 55L12 55L12 53L13 53L13 52L11 52L11 51L12 51L12 49ZM27 49L27 52L30 52L30 49ZM49 49L49 52L52 52L52 49ZM28 50L28 51L29 51L29 50ZM50 50L50 51L51 51L51 50ZM31 51L31 52L32 52L32 51ZM33 51L33 52L34 52L34 55L35 55L35 53L36 53L36 52L34 52L34 51ZM47 51L47 52L45 52L45 53L46 53L46 54L47 54L47 55L48 55L48 54L49 54L49 53L48 53L48 54L47 54L47 52L48 52L48 51ZM31 53L31 54L30 54L30 55L33 55L33 54L32 54L32 53ZM16 54L16 55L17 55L17 54ZM20 56L20 57L21 57L21 56ZM36 56L36 57L37 57L37 56ZM56 56L56 57L57 57L57 56ZM0 0L0 7L7 7L7 0ZM1 1L1 6L6 6L6 1ZM2 2L2 5L5 5L5 2ZM50 0L50 7L57 7L57 0ZM51 1L51 6L56 6L56 1ZM52 2L52 5L55 5L55 2ZM0 50L0 57L7 57L7 50ZM1 51L1 56L6 56L6 51ZM2 52L2 55L5 55L5 52Z" fill="#000000"/></g></g></svg>
