<?xml version="1.0" encoding="UTF-8"?>
<svg xmlns="http://www.w3.org/2000/svg" version="1.1" width="300" height="300" viewBox="0 0 300 300"><rect x="0" y="0" width="300" height="300" fill="#fefefe"/><g transform="scale(4.615)"><g transform="translate(4,4)"><path fill-rule="evenodd" d="M10 0L10 1L8 1L8 2L10 2L10 4L9 4L9 3L8 3L8 4L9 4L9 5L8 5L8 7L9 7L9 6L10 6L10 8L6 8L6 9L5 9L5 8L0 8L0 10L1 10L1 11L0 11L0 12L1 12L1 11L2 11L2 14L0 14L0 19L1 19L1 20L0 20L0 21L2 21L2 24L0 24L0 25L2 25L2 24L3 24L3 26L2 26L2 27L0 27L0 28L1 28L1 30L0 30L0 33L1 33L1 35L0 35L0 38L1 38L1 39L0 39L0 42L1 42L1 40L2 40L2 43L0 43L0 48L5 48L5 47L7 47L7 48L6 48L6 49L7 49L7 48L8 48L8 51L9 51L9 50L10 50L10 53L12 53L12 54L14 54L14 53L12 53L12 51L11 51L11 50L10 50L10 49L11 49L11 48L10 48L10 49L9 49L9 48L8 48L8 46L10 46L10 45L12 45L12 46L13 46L13 47L14 47L14 50L13 50L13 48L12 48L12 50L13 50L13 52L15 52L15 53L16 53L16 54L15 54L15 55L12 55L12 57L15 57L15 55L16 55L16 56L17 56L17 57L19 57L19 55L20 55L20 54L19 54L19 53L20 53L20 52L22 52L22 51L21 51L21 50L25 50L25 51L26 51L26 52L24 52L24 53L23 53L23 54L22 54L22 53L21 53L21 54L22 54L22 55L21 55L21 56L23 56L23 57L26 57L26 56L27 56L27 57L29 57L29 56L30 56L30 57L31 57L31 56L35 56L35 57L39 57L39 56L37 56L37 54L38 54L38 55L41 55L41 54L42 54L42 55L43 55L43 57L44 57L44 54L45 54L45 55L46 55L46 54L45 54L45 53L47 53L47 56L48 56L48 57L49 57L49 56L50 56L50 57L52 57L52 55L51 55L51 53L52 53L52 54L53 54L53 55L54 55L54 56L53 56L53 57L54 57L54 56L55 56L55 57L56 57L56 56L55 56L55 53L56 53L56 52L57 52L57 51L56 51L56 50L55 50L55 49L54 49L54 48L56 48L56 49L57 49L57 48L56 48L56 46L57 46L57 45L56 45L56 44L55 44L55 43L56 43L56 41L55 41L55 39L57 39L57 37L56 37L56 33L57 33L57 32L56 32L56 30L57 30L57 29L54 29L54 28L56 28L56 26L57 26L57 25L56 25L56 22L57 22L57 21L56 21L56 20L57 20L57 19L56 19L56 16L57 16L57 15L56 15L56 14L57 14L57 12L56 12L56 10L54 10L54 11L52 11L52 10L53 10L53 9L54 9L54 8L53 8L53 9L52 9L52 8L51 8L51 11L50 11L50 12L49 12L49 13L47 13L47 14L45 14L45 13L44 13L44 11L45 11L45 12L48 12L48 11L49 11L49 10L50 10L50 8L48 8L48 9L47 9L47 5L48 5L48 0L46 0L46 1L45 1L45 2L44 2L44 3L43 3L43 4L40 4L40 5L39 5L39 6L38 6L38 3L36 3L36 0L35 0L35 1L33 1L33 0L32 0L32 1L33 1L33 2L32 2L32 3L31 3L31 4L26 4L26 3L23 3L23 4L22 4L22 3L21 3L21 2L27 2L27 3L28 3L28 2L29 2L29 1L30 1L30 2L31 2L31 0L29 0L29 1L26 1L26 0L23 0L23 1L22 1L22 0L21 0L21 2L20 2L20 1L19 1L19 2L16 2L16 1L14 1L14 0L13 0L13 1L14 1L14 2L11 2L11 0ZM17 0L17 1L18 1L18 0ZM37 0L37 1L38 1L38 2L39 2L39 3L41 3L41 2L43 2L43 0L41 0L41 1L40 1L40 0L39 0L39 1L38 1L38 0ZM46 1L46 2L47 2L47 1ZM14 2L14 4L13 4L13 3L12 3L12 4L11 4L11 5L10 5L10 6L11 6L11 8L12 8L12 5L13 5L13 8L14 8L14 9L8 9L8 10L7 10L7 9L6 9L6 10L7 10L7 11L6 11L6 12L4 12L4 13L3 13L3 15L1 15L1 17L2 17L2 16L3 16L3 17L6 17L6 18L7 18L7 19L6 19L6 20L4 20L4 21L3 21L3 19L2 19L2 18L1 18L1 19L2 19L2 21L3 21L3 22L5 22L5 23L3 23L3 24L7 24L7 23L10 23L10 24L11 24L11 25L9 25L9 24L8 24L8 26L9 26L9 27L10 27L10 28L9 28L9 29L10 29L10 30L9 30L9 31L8 31L8 32L9 32L9 33L10 33L10 30L11 30L11 34L10 34L10 35L6 35L6 34L7 34L7 33L6 33L6 32L7 32L7 31L3 31L3 33L2 33L2 34L3 34L3 33L5 33L5 34L4 34L4 36L10 36L10 37L6 37L6 38L8 38L8 39L9 39L9 38L13 38L13 40L12 40L12 39L10 39L10 40L12 40L12 41L10 41L10 42L11 42L11 43L12 43L12 41L13 41L13 42L14 42L14 43L13 43L13 46L14 46L14 47L15 47L15 48L16 48L16 49L15 49L15 51L16 51L16 53L17 53L17 52L20 52L20 51L16 51L16 50L19 50L19 49L20 49L20 50L21 50L21 49L23 49L23 47L21 47L21 45L22 45L22 46L24 46L24 45L25 45L25 48L24 48L24 49L25 49L25 50L26 50L26 49L25 49L25 48L27 48L27 47L29 47L29 46L31 46L31 48L32 48L32 49L31 49L31 50L32 50L32 51L31 51L31 53L30 53L30 54L27 54L27 53L26 53L26 54L25 54L25 53L24 53L24 54L23 54L23 55L24 55L24 56L26 56L26 55L27 55L27 56L29 56L29 55L30 55L30 56L31 56L31 54L32 54L32 53L33 53L33 54L34 54L34 55L35 55L35 56L36 56L36 54L35 54L35 51L34 51L34 50L36 50L36 52L37 52L37 53L38 53L38 54L40 54L40 53L42 53L42 52L43 52L43 51L46 51L46 50L47 50L47 53L48 53L48 50L47 50L47 49L48 49L48 48L53 48L53 46L54 46L54 47L55 47L55 46L56 46L56 45L55 45L55 44L54 44L54 45L53 45L53 43L54 43L54 42L53 42L53 41L51 41L51 42L50 42L50 43L48 43L48 44L47 44L47 45L45 45L45 44L46 44L46 43L47 43L47 42L48 42L48 41L49 41L49 39L51 39L51 40L53 40L53 39L54 39L54 38L53 38L53 35L55 35L55 34L54 34L54 33L52 33L52 32L51 32L51 31L48 31L48 28L47 28L47 29L46 29L46 30L47 30L47 31L46 31L46 32L43 32L43 31L44 31L44 29L45 29L45 28L46 28L46 27L47 27L47 25L49 25L49 23L50 23L50 24L51 24L51 25L50 25L50 26L51 26L51 25L53 25L53 23L50 23L50 22L51 22L51 21L54 21L54 22L56 22L56 21L55 21L55 20L56 20L56 19L55 19L55 20L53 20L53 19L52 19L52 18L55 18L55 17L53 17L53 15L55 15L55 14L56 14L56 12L54 12L54 13L55 13L55 14L53 14L53 15L52 15L52 16L51 16L51 15L50 15L50 14L51 14L51 12L50 12L50 14L49 14L49 15L48 15L48 16L49 16L49 17L50 17L50 18L47 18L47 17L45 17L45 15L44 15L44 13L43 13L43 11L44 11L44 9L45 9L45 10L47 10L47 11L48 11L48 10L47 10L47 9L45 9L45 7L46 7L46 6L45 6L45 4L46 4L46 5L47 5L47 3L44 3L44 6L43 6L43 8L42 8L42 9L43 9L43 11L42 11L42 10L41 10L41 7L42 7L42 5L40 5L40 6L39 6L39 7L40 7L40 8L39 8L39 9L38 9L38 8L37 8L37 7L38 7L38 6L37 6L37 7L36 7L36 5L37 5L37 4L36 4L36 5L35 5L35 3L32 3L32 4L31 4L31 8L32 8L32 10L31 10L31 11L30 11L30 10L28 10L28 11L29 11L29 12L28 12L28 13L27 13L27 15L26 15L26 14L24 14L24 15L20 15L20 16L19 16L19 17L20 17L20 19L18 19L18 18L17 18L17 17L16 17L16 16L18 16L18 14L17 14L17 13L18 13L18 12L17 12L17 13L16 13L16 12L15 12L15 13L12 13L12 12L10 12L10 11L9 11L9 10L15 10L15 11L16 11L16 10L17 10L17 11L18 11L18 9L16 9L16 8L17 8L17 7L18 7L18 8L19 8L19 9L20 9L20 10L19 10L19 12L20 12L20 14L21 14L21 13L22 13L22 14L23 14L23 13L22 13L22 12L20 12L20 10L21 10L21 11L22 11L22 10L24 10L24 9L25 9L25 8L26 8L26 4L25 4L25 8L24 8L24 6L23 6L23 5L24 5L24 4L23 4L23 5L22 5L22 4L21 4L21 3L19 3L19 4L18 4L18 3L15 3L15 2ZM15 4L15 5L16 5L16 4ZM17 4L17 6L16 6L16 7L15 7L15 6L14 6L14 7L15 7L15 8L16 8L16 7L17 7L17 6L18 6L18 7L19 7L19 8L23 8L23 9L24 9L24 8L23 8L23 6L22 6L22 5L21 5L21 4L19 4L19 5L20 5L20 7L19 7L19 6L18 6L18 4ZM32 4L32 5L33 5L33 4ZM27 5L27 8L30 8L30 5ZM34 5L34 7L33 7L33 6L32 6L32 7L33 7L33 9L34 9L34 8L35 8L35 9L37 9L37 10L36 10L36 11L35 11L35 14L33 14L33 13L34 13L34 12L33 12L33 10L32 10L32 12L31 12L31 13L30 13L30 14L29 14L29 13L28 13L28 14L29 14L29 16L28 16L28 15L27 15L27 16L28 16L28 17L26 17L26 15L25 15L25 17L22 17L22 16L21 16L21 17L22 17L22 18L21 18L21 19L20 19L20 20L18 20L18 19L17 19L17 21L16 21L16 19L15 19L15 21L16 21L16 22L14 22L14 21L12 21L12 20L11 20L11 19L10 19L10 18L11 18L11 17L12 17L12 19L13 19L13 20L14 20L14 19L13 19L13 17L14 17L14 15L15 15L15 16L16 16L16 13L15 13L15 14L12 14L12 13L11 13L11 14L10 14L10 13L9 13L9 12L6 12L6 13L7 13L7 14L6 14L6 15L10 15L10 16L11 16L11 17L9 17L9 18L8 18L8 16L6 16L6 17L7 17L7 18L8 18L8 21L7 21L7 20L6 20L6 21L5 21L5 22L6 22L6 23L7 23L7 22L8 22L8 21L10 21L10 22L12 22L12 26L13 26L13 27L14 27L14 28L16 28L16 29L13 29L13 28L12 28L12 27L11 27L11 26L10 26L10 27L11 27L11 28L10 28L10 29L11 29L11 28L12 28L12 29L13 29L13 30L12 30L12 31L13 31L13 32L12 32L12 33L15 33L15 34L16 34L16 33L19 33L19 34L20 34L20 36L21 36L21 35L22 35L22 36L23 36L23 37L19 37L19 36L18 36L18 34L17 34L17 39L19 39L19 40L16 40L16 39L15 39L15 38L16 38L16 37L15 37L15 38L14 38L14 37L13 37L13 38L14 38L14 39L15 39L15 40L13 40L13 41L14 41L14 42L15 42L15 40L16 40L16 41L19 41L19 42L18 42L18 43L14 43L14 46L15 46L15 44L18 44L18 45L17 45L17 47L18 47L18 48L17 48L17 49L19 49L19 47L18 47L18 46L20 46L20 45L19 45L19 44L20 44L20 43L19 43L19 42L20 42L20 40L22 40L22 39L24 39L24 40L25 40L25 39L26 39L26 40L28 40L28 39L26 39L26 38L28 38L28 37L27 37L27 33L26 33L26 35L25 35L25 33L23 33L23 34L24 34L24 36L23 36L23 35L22 35L22 33L21 33L21 34L20 34L20 33L19 33L19 32L16 32L16 33L15 33L15 32L14 32L14 31L16 31L16 29L18 29L18 30L20 30L20 31L21 31L21 32L23 32L23 31L24 31L24 32L25 32L25 31L26 31L26 32L28 32L28 33L29 33L29 34L30 34L30 36L29 36L29 37L31 37L31 38L29 38L29 39L33 39L33 40L35 40L35 42L37 42L37 43L36 43L36 44L35 44L35 43L34 43L34 42L33 42L33 41L32 41L32 40L29 40L29 43L24 43L24 44L23 44L23 42L25 42L25 41L23 41L23 42L22 42L22 41L21 41L21 42L22 42L22 43L21 43L21 44L22 44L22 45L24 45L24 44L28 44L28 45L29 45L29 44L30 44L30 45L31 45L31 46L32 46L32 47L36 47L36 48L35 48L35 49L36 49L36 50L38 50L38 51L37 51L37 52L38 52L38 53L39 53L39 52L38 52L38 51L40 51L40 52L42 52L42 51L43 51L43 49L44 49L44 48L43 48L43 47L44 47L44 46L43 46L43 45L44 45L44 43L43 43L43 41L44 41L44 42L45 42L45 41L44 41L44 40L45 40L45 39L44 39L44 40L42 40L42 41L40 41L40 42L41 42L41 43L42 43L42 44L41 44L41 46L40 46L40 47L39 47L39 46L38 46L38 45L39 45L39 42L38 42L38 40L40 40L40 39L38 39L38 40L35 40L35 39L37 39L37 38L38 38L38 37L40 37L40 38L43 38L43 37L44 37L44 38L45 38L45 37L44 37L44 36L45 36L45 35L44 35L44 33L43 33L43 32L41 32L41 33L39 33L39 34L40 34L40 35L39 35L39 36L38 36L38 33L37 33L37 32L34 32L34 31L36 31L36 30L37 30L37 29L38 29L38 28L40 28L40 27L41 27L41 28L42 28L42 27L41 27L41 26L44 26L44 28L43 28L43 29L40 29L40 30L43 30L43 29L44 29L44 28L45 28L45 27L46 27L46 26L45 26L45 25L46 25L46 24L48 24L48 23L47 23L47 22L49 22L49 21L51 21L51 20L52 20L52 19L51 19L51 18L50 18L50 19L49 19L49 21L48 21L48 20L47 20L47 22L46 22L46 21L45 21L45 22L46 22L46 24L45 24L45 25L44 25L44 20L46 20L46 19L45 19L45 18L44 18L44 15L42 15L42 16L41 16L41 15L39 15L39 14L38 14L38 13L40 13L40 12L41 12L41 10L38 10L38 9L37 9L37 8L35 8L35 5ZM21 6L21 7L22 7L22 6ZM28 6L28 7L29 7L29 6ZM40 6L40 7L41 7L41 6ZM44 6L44 7L45 7L45 6ZM48 6L48 7L49 7L49 6ZM43 8L43 9L44 9L44 8ZM55 8L55 9L56 9L56 8ZM1 9L1 10L2 10L2 9ZM15 9L15 10L16 10L16 9ZM13 11L13 12L14 12L14 11ZM24 11L24 13L26 13L26 12L27 12L27 11L26 11L26 12L25 12L25 11ZM39 11L39 12L40 12L40 11ZM32 12L32 13L31 13L31 14L30 14L30 15L32 15L32 13L33 13L33 12ZM52 12L52 13L53 13L53 12ZM8 13L8 14L9 14L9 13ZM41 13L41 14L43 14L43 13ZM11 14L11 15L12 15L12 16L13 16L13 15L12 15L12 14ZM36 14L36 15L35 15L35 16L31 16L31 17L32 17L32 18L30 18L30 20L29 20L29 19L28 19L28 18L27 18L27 19L26 19L26 17L25 17L25 19L26 19L26 20L25 20L25 21L24 21L24 20L23 20L23 19L24 19L24 18L23 18L23 19L21 19L21 20L20 20L20 21L17 21L17 22L20 22L20 23L18 23L18 24L21 24L21 25L20 25L20 27L19 27L19 26L18 26L18 25L14 25L14 27L15 27L15 26L18 26L18 27L17 27L17 28L18 28L18 29L20 29L20 30L21 30L21 31L23 31L23 29L24 29L24 28L25 28L25 29L26 29L26 28L25 28L25 27L26 27L26 26L27 26L27 25L29 25L29 26L30 26L30 25L29 25L29 24L32 24L32 26L31 26L31 27L32 27L32 30L31 30L31 31L30 31L30 32L29 32L29 33L31 33L31 31L32 31L32 35L33 35L33 36L32 36L32 37L33 37L33 38L34 38L34 39L35 39L35 36L37 36L37 34L35 34L35 33L34 33L34 32L33 32L33 31L32 31L32 30L35 30L35 28L37 28L37 27L39 27L39 25L43 25L43 23L42 23L42 22L41 22L41 24L38 24L38 23L40 23L40 22L39 22L39 21L41 21L41 20L39 20L39 21L38 21L38 19L39 19L39 17L41 17L41 16L39 16L39 15L38 15L38 14ZM3 15L3 16L5 16L5 15ZM49 15L49 16L50 16L50 15ZM35 16L35 17L37 17L37 18L38 18L38 17L39 17L39 16L38 16L38 17L37 17L37 16ZM42 16L42 17L43 17L43 16ZM4 18L4 19L5 19L5 18ZM33 18L33 19L31 19L31 21L29 21L29 22L30 22L30 23L31 23L31 21L32 21L32 20L33 20L33 19L35 19L35 20L34 20L34 21L35 21L35 23L34 23L34 22L33 22L33 23L32 23L32 24L33 24L33 25L37 25L37 26L38 26L38 24L37 24L37 22L38 22L38 21L37 21L37 20L36 20L36 19L35 19L35 18ZM41 18L41 19L42 19L42 18ZM43 18L43 20L42 20L42 21L43 21L43 20L44 20L44 18ZM21 20L21 21L22 21L22 22L24 22L24 21L22 21L22 20ZM6 21L6 22L7 22L7 21ZM25 21L25 22L26 22L26 23L25 23L25 24L24 24L24 23L21 23L21 24L24 24L24 25L21 25L21 27L20 27L20 28L21 28L21 29L22 29L22 28L21 28L21 27L22 27L22 26L23 26L23 27L24 27L24 26L26 26L26 25L25 25L25 24L28 24L28 23L27 23L27 22L28 22L28 21ZM0 22L0 23L1 23L1 22ZM13 22L13 23L14 23L14 22ZM15 23L15 24L16 24L16 23ZM4 25L4 26L7 26L7 25ZM32 26L32 27L33 27L33 28L35 28L35 27L36 27L36 26L34 26L34 27L33 27L33 26ZM53 26L53 27L54 27L54 26ZM3 27L3 28L2 28L2 30L1 30L1 32L2 32L2 30L4 30L4 29L3 29L3 28L4 28L4 27ZM5 27L5 30L8 30L8 27ZM27 27L27 30L30 30L30 27ZM49 27L49 30L52 30L52 27ZM6 28L6 29L7 29L7 28ZM28 28L28 29L29 29L29 28ZM50 28L50 29L51 29L51 28ZM53 29L53 30L54 30L54 29ZM38 30L38 32L39 32L39 30ZM47 31L47 32L46 32L46 33L47 33L47 32L48 32L48 33L49 33L49 32L48 32L48 31ZM50 32L50 34L48 34L48 35L47 35L47 36L48 36L48 37L47 37L47 39L46 39L46 40L47 40L47 39L49 39L49 38L51 38L51 39L52 39L52 38L51 38L51 37L52 37L52 35L53 35L53 34L52 34L52 33L51 33L51 32ZM55 32L55 33L56 33L56 32ZM11 34L11 35L10 35L10 36L14 36L14 34L13 34L13 35L12 35L12 34ZM33 34L33 35L34 35L34 36L35 36L35 35L34 35L34 34ZM42 34L42 35L41 35L41 36L40 36L40 37L43 37L43 36L44 36L44 35L43 35L43 34ZM50 34L50 35L48 35L48 36L49 36L49 37L51 37L51 36L50 36L50 35L52 35L52 34ZM1 35L1 37L2 37L2 40L3 40L3 39L4 39L4 38L5 38L5 37L2 37L2 36L3 36L3 35ZM25 36L25 38L26 38L26 36ZM18 37L18 38L19 38L19 39L20 39L20 38L19 38L19 37ZM23 37L23 38L24 38L24 37ZM5 39L5 40L4 40L4 41L5 41L5 42L4 42L4 43L3 43L3 44L5 44L5 45L4 45L4 46L3 46L3 47L5 47L5 45L6 45L6 46L8 46L8 45L9 45L9 44L10 44L10 43L9 43L9 44L8 44L8 43L5 43L5 42L7 42L7 41L8 41L8 42L9 42L9 40L7 40L7 39ZM5 40L5 41L7 41L7 40ZM26 41L26 42L27 42L27 41ZM31 41L31 42L32 42L32 43L33 43L33 44L32 44L32 46L36 46L36 47L37 47L37 46L36 46L36 45L34 45L34 43L33 43L33 42L32 42L32 41ZM51 42L51 43L50 43L50 44L48 44L48 45L47 45L47 46L45 46L45 47L47 47L47 48L48 48L48 47L50 47L50 46L51 46L51 47L52 47L52 46L51 46L51 45L52 45L52 44L51 44L51 43L53 43L53 42ZM6 44L6 45L8 45L8 44ZM50 44L50 45L49 45L49 46L50 46L50 45L51 45L51 44ZM1 45L1 47L2 47L2 45ZM26 45L26 47L27 47L27 45ZM54 45L54 46L55 46L55 45ZM41 46L41 48L39 48L39 47L38 47L38 48L37 48L37 49L38 49L38 50L41 50L41 51L42 51L42 50L41 50L41 48L42 48L42 49L43 49L43 48L42 48L42 47L43 47L43 46ZM20 47L20 48L21 48L21 47ZM38 48L38 49L39 49L39 48ZM45 48L45 50L46 50L46 48ZM27 49L27 52L30 52L30 49ZM49 49L49 52L52 52L52 49ZM28 50L28 51L29 51L29 50ZM50 50L50 51L51 51L51 50ZM54 50L54 51L55 51L55 50ZM32 51L32 52L33 52L33 53L34 53L34 52L33 52L33 51ZM8 52L8 57L11 57L11 54L9 54L9 52ZM44 52L44 53L43 53L43 54L44 54L44 53L45 53L45 52ZM53 52L53 54L54 54L54 52ZM17 54L17 55L19 55L19 54ZM50 55L50 56L51 56L51 55ZM45 56L45 57L46 57L46 56ZM0 0L0 7L7 7L7 0ZM1 1L1 6L6 6L6 1ZM2 2L2 5L5 5L5 2ZM50 0L50 7L57 7L57 0ZM51 1L51 6L56 6L56 1ZM52 2L52 5L55 5L55 2ZM0 50L0 57L7 57L7 50ZM1 51L1 56L6 56L6 51ZM2 52L2 55L5 55L5 52Z" fill="#000000"/></g></g></svg>
