<?xml version="1.0" encoding="UTF-8"?>
<svg xmlns="http://www.w3.org/2000/svg" version="1.1" width="300" height="300" viewBox="0 0 300 300"><rect x="0" y="0" width="300" height="300" fill="#fefefe"/><g transform="scale(4.615)"><g transform="translate(4,4)"><path fill-rule="evenodd" d="M8 0L8 2L9 2L9 3L11 3L11 2L13 2L13 0L12 0L12 1L11 1L11 0L10 0L10 1L9 1L9 0ZM14 0L14 3L13 3L13 4L12 4L12 5L11 5L11 4L8 4L8 9L7 9L7 8L5 8L5 9L7 9L7 10L6 10L6 11L5 11L5 10L4 10L4 9L3 9L3 8L0 8L0 9L2 9L2 10L3 10L3 11L1 11L1 10L0 10L0 12L2 12L2 14L3 14L3 15L1 15L1 14L0 14L0 18L1 18L1 19L2 19L2 20L3 20L3 23L4 23L4 24L5 24L5 25L7 25L7 26L4 26L4 28L3 28L3 26L2 26L2 28L1 28L1 27L0 27L0 28L1 28L1 30L2 30L2 31L3 31L3 30L4 30L4 33L3 33L3 32L2 32L2 33L1 33L1 34L0 34L0 37L1 37L1 38L0 38L0 39L1 39L1 38L2 38L2 39L4 39L4 38L5 38L5 40L4 40L4 42L5 42L5 43L2 43L2 41L1 41L1 40L0 40L0 41L1 41L1 42L0 42L0 43L2 43L2 45L0 45L0 48L5 48L5 47L8 47L8 48L6 48L6 49L8 49L8 50L9 50L9 49L10 49L10 50L11 50L11 49L10 49L10 48L11 48L11 46L12 46L12 44L11 44L11 46L10 46L10 48L9 48L9 45L8 45L8 44L9 44L9 42L10 42L10 43L12 43L12 42L11 42L11 41L13 41L13 42L15 42L15 43L13 43L13 45L15 45L15 46L14 46L14 47L12 47L12 48L14 48L14 47L15 47L15 46L16 46L16 47L18 47L18 49L17 49L17 48L15 48L15 49L13 49L13 50L12 50L12 51L11 51L11 53L10 53L10 52L9 52L9 51L8 51L8 52L9 52L9 53L10 53L10 55L12 55L12 53L13 53L13 54L15 54L15 56L14 56L14 55L13 55L13 56L12 56L12 57L13 57L13 56L14 56L14 57L15 57L15 56L16 56L16 57L17 57L17 55L18 55L18 57L20 57L20 56L19 56L19 55L18 55L18 53L19 53L19 52L20 52L20 53L21 53L21 54L20 54L20 55L21 55L21 54L22 54L22 53L23 53L23 55L22 55L22 57L25 57L25 55L24 55L24 54L26 54L26 55L27 55L27 56L26 56L26 57L28 57L28 55L29 55L29 57L33 57L33 55L34 55L34 57L35 57L35 55L37 55L37 54L36 54L36 53L37 53L37 52L38 52L38 53L39 53L39 55L40 55L40 57L41 57L41 56L42 56L42 57L43 57L43 54L42 54L42 53L43 53L43 52L44 52L44 57L47 57L47 56L46 56L46 55L45 55L45 54L46 54L46 53L49 53L49 54L48 54L48 55L49 55L49 56L48 56L48 57L50 57L50 55L49 55L49 54L52 54L52 55L53 55L53 56L51 56L51 57L54 57L54 54L55 54L55 55L57 55L57 54L55 54L55 53L56 53L56 51L57 51L57 49L56 49L56 47L57 47L57 42L56 42L56 44L55 44L55 45L56 45L56 47L55 47L55 49L56 49L56 51L55 51L55 52L54 52L54 51L53 51L53 50L54 50L54 49L53 49L53 48L54 48L54 46L51 46L51 44L52 44L52 40L54 40L54 41L53 41L53 44L54 44L54 43L55 43L55 42L54 42L54 41L57 41L57 40L54 40L54 39L55 39L55 38L57 38L57 37L56 37L56 36L57 36L57 33L56 33L56 31L57 31L57 28L56 28L56 27L57 27L57 24L56 24L56 23L57 23L57 20L56 20L56 19L57 19L57 18L56 18L56 17L57 17L57 10L56 10L56 11L55 11L55 9L57 9L57 8L55 8L55 9L54 9L54 10L53 10L53 11L52 11L52 12L51 12L51 11L50 11L50 13L49 13L49 14L48 14L48 11L46 11L46 8L47 8L47 5L48 5L48 0L46 0L46 1L47 1L47 2L45 2L45 4L44 4L44 2L43 2L43 3L42 3L42 5L43 5L43 6L42 6L42 8L40 8L40 7L41 7L41 6L40 6L40 7L39 7L39 6L38 6L38 5L39 5L39 4L40 4L40 2L42 2L42 1L45 1L45 0L42 0L42 1L41 1L41 0L38 0L38 3L37 3L37 4L38 4L38 5L37 5L37 6L36 6L36 10L34 10L34 9L35 9L35 4L36 4L36 3L35 3L35 2L37 2L37 1L35 1L35 0L34 0L34 8L32 8L32 9L31 9L31 5L32 5L32 2L31 2L31 3L30 3L30 2L29 2L29 1L28 1L28 0L26 0L26 2L25 2L25 4L24 4L24 1L25 1L25 0L24 0L24 1L23 1L23 0L20 0L20 1L22 1L22 2L23 2L23 4L22 4L22 3L21 3L21 2L20 2L20 3L21 3L21 4L22 4L22 5L20 5L20 7L19 7L19 4L18 4L18 2L16 2L16 3L15 3L15 0ZM16 0L16 1L17 1L17 0ZM18 0L18 1L19 1L19 0ZM30 0L30 1L31 1L31 0ZM39 1L39 2L40 2L40 1ZM27 2L27 3L26 3L26 4L27 4L27 3L28 3L28 4L30 4L30 3L29 3L29 2ZM14 3L14 4L15 4L15 3ZM16 3L16 4L17 4L17 3ZM38 3L38 4L39 4L39 3ZM46 3L46 4L45 4L45 5L44 5L44 4L43 4L43 5L44 5L44 6L43 6L43 7L44 7L44 6L45 6L45 7L46 7L46 5L47 5L47 3ZM13 5L13 7L12 7L12 6L11 6L11 7L10 7L10 6L9 6L9 9L10 9L10 10L11 10L11 11L6 11L6 12L7 12L7 13L5 13L5 12L3 12L3 13L4 13L4 14L7 14L7 13L8 13L8 12L9 12L9 14L10 14L10 12L12 12L12 13L11 13L11 15L12 15L12 17L11 17L11 18L12 18L12 17L13 17L13 15L14 15L14 16L15 16L15 19L14 19L14 20L17 20L17 21L18 21L18 20L17 20L17 19L18 19L18 18L17 18L17 15L18 15L18 14L19 14L19 17L20 17L20 18L19 18L19 23L18 23L18 22L16 22L16 23L17 23L17 25L16 25L16 26L17 26L17 27L16 27L16 28L15 28L15 27L14 27L14 28L13 28L13 27L12 27L12 28L13 28L13 29L12 29L12 30L10 30L10 28L11 28L11 27L10 27L10 22L9 22L9 20L10 20L10 21L11 21L11 23L12 23L12 21L13 21L13 20L12 20L12 19L9 19L9 20L7 20L7 19L8 19L8 17L9 17L9 18L10 18L10 16L9 16L9 15L8 15L8 16L7 16L7 15L6 15L6 16L5 16L5 18L4 18L4 19L3 19L3 20L4 20L4 19L5 19L5 18L7 18L7 19L6 19L6 20L5 20L5 21L4 21L4 22L5 22L5 24L8 24L8 23L6 23L6 22L7 22L7 21L8 21L8 22L9 22L9 25L8 25L8 26L9 26L9 30L10 30L10 31L12 31L12 32L11 32L11 33L10 33L10 32L9 32L9 31L6 31L6 32L7 32L7 33L4 33L4 34L3 34L3 33L2 33L2 34L3 34L3 35L2 35L2 36L1 36L1 37L2 37L2 38L4 38L4 37L5 37L5 36L7 36L7 37L6 37L6 38L7 38L7 39L6 39L6 40L9 40L9 41L11 41L11 39L12 39L12 40L13 40L13 41L15 41L15 40L17 40L17 41L16 41L16 43L15 43L15 45L16 45L16 46L17 46L17 45L16 45L16 43L17 43L17 42L18 42L18 39L16 39L16 38L19 38L19 37L18 37L18 36L21 36L21 37L22 37L22 38L23 38L23 41L22 41L22 40L21 40L21 41L20 41L20 40L19 40L19 41L20 41L20 42L19 42L19 43L18 43L18 44L19 44L19 43L20 43L20 42L21 42L21 45L20 45L20 48L19 48L19 49L18 49L18 50L17 50L17 49L16 49L16 50L15 50L15 52L14 52L14 53L15 53L15 52L17 52L17 53L18 53L18 52L19 52L19 51L20 51L20 50L22 50L22 51L21 51L21 53L22 53L22 51L23 51L23 52L24 52L24 51L25 51L25 53L26 53L26 54L27 54L27 55L28 55L28 53L26 53L26 50L25 50L25 48L31 48L31 52L32 52L32 48L31 48L31 47L30 47L30 46L31 46L31 45L32 45L32 44L30 44L30 36L31 36L31 37L32 37L32 36L31 36L31 35L28 35L28 34L29 34L29 32L30 32L30 34L32 34L32 35L33 35L33 34L32 34L32 32L33 32L33 33L34 33L34 34L35 34L35 33L36 33L36 35L35 35L35 37L34 37L34 36L33 36L33 37L34 37L34 38L31 38L31 43L32 43L32 40L33 40L33 41L34 41L34 42L35 42L35 41L36 41L36 44L33 44L33 45L34 45L34 50L35 50L35 51L34 51L34 52L35 52L35 53L34 53L34 55L35 55L35 53L36 53L36 52L35 52L35 51L37 51L37 49L36 49L36 48L37 48L37 47L38 47L38 51L39 51L39 49L40 49L40 51L41 51L41 53L42 53L42 52L43 52L43 51L41 51L41 49L42 49L42 50L43 50L43 49L44 49L44 48L45 48L45 49L46 49L46 51L45 51L45 50L44 50L44 51L45 51L45 53L46 53L46 51L47 51L47 52L48 52L48 51L47 51L47 47L48 47L48 46L49 46L49 48L50 48L50 45L47 45L47 44L48 44L48 43L49 43L49 44L50 44L50 42L49 42L49 41L51 41L51 40L48 40L48 38L47 38L47 37L46 37L46 35L47 35L47 36L48 36L48 37L49 37L49 36L50 36L50 38L51 38L51 37L52 37L52 38L53 38L53 37L54 37L54 38L55 38L55 37L54 37L54 36L55 36L55 31L56 31L56 30L54 30L54 29L56 29L56 28L55 28L55 27L56 27L56 26L55 26L55 25L56 25L56 24L55 24L55 23L56 23L56 21L55 21L55 19L56 19L56 18L55 18L55 19L54 19L54 16L55 16L55 17L56 17L56 16L55 16L55 15L56 15L56 12L55 12L55 11L54 11L54 12L53 12L53 13L54 13L54 14L55 14L55 15L54 15L54 16L53 16L53 14L52 14L52 13L50 13L50 16L51 16L51 17L50 17L50 18L49 18L49 17L48 17L48 18L49 18L49 19L48 19L48 23L49 23L49 25L48 25L48 24L47 24L47 25L46 25L46 26L47 26L47 28L46 28L46 29L44 29L44 28L42 28L42 31L40 31L40 30L39 30L39 29L40 29L40 28L41 28L41 27L43 27L43 26L44 26L44 27L45 27L45 26L44 26L44 24L46 24L46 23L47 23L47 17L46 17L46 16L47 16L47 15L48 15L48 14L47 14L47 13L46 13L46 11L45 11L45 10L44 10L44 8L42 8L42 10L41 10L41 9L40 9L40 8L39 8L39 9L38 9L38 6L37 6L37 9L38 9L38 11L40 11L40 10L41 10L41 12L42 12L42 15L41 15L41 13L40 13L40 14L39 14L39 12L37 12L37 11L36 11L36 12L35 12L35 11L34 11L34 10L33 10L33 9L32 9L32 11L31 11L31 9L30 9L30 11L29 11L29 10L28 10L28 11L27 11L27 10L25 10L25 9L26 9L26 5L24 5L24 6L23 6L23 5L22 5L22 6L21 6L21 9L20 9L20 8L19 8L19 7L18 7L18 5L16 5L16 6L15 6L15 5ZM27 5L27 8L30 8L30 5ZM14 6L14 7L13 7L13 8L14 8L14 9L15 9L15 8L14 8L14 7L15 7L15 6ZM16 6L16 7L17 7L17 8L18 8L18 9L17 9L17 10L16 10L16 12L17 12L17 14L15 14L15 15L17 15L17 14L18 14L18 13L19 13L19 14L20 14L20 12L21 12L21 11L20 11L20 12L18 12L18 11L19 11L19 10L20 10L20 9L19 9L19 8L18 8L18 7L17 7L17 6ZM22 6L22 7L23 7L23 6ZM24 6L24 7L25 7L25 6ZM28 6L28 7L29 7L29 6ZM32 6L32 7L33 7L33 6ZM48 6L48 8L49 8L49 9L53 9L53 8L49 8L49 6ZM10 8L10 9L12 9L12 11L13 11L13 9L12 9L12 8ZM22 8L22 9L23 9L23 11L22 11L22 12L23 12L23 14L24 14L24 15L23 15L23 16L22 16L22 14L21 14L21 16L20 16L20 17L21 17L21 19L22 19L22 21L21 21L21 20L20 20L20 21L21 21L21 22L20 22L20 23L21 23L21 27L20 27L20 24L18 24L18 25L17 25L17 26L18 26L18 25L19 25L19 27L18 27L18 28L19 28L19 27L20 27L20 28L21 28L21 30L22 30L22 33L23 33L23 34L22 34L22 35L25 35L25 36L24 36L24 37L25 37L25 36L26 36L26 37L27 37L27 36L28 36L28 37L29 37L29 36L28 36L28 35L27 35L27 34L28 34L28 33L27 33L27 32L28 32L28 31L30 31L30 32L32 32L32 30L33 30L33 32L35 32L35 31L36 31L36 33L37 33L37 34L38 34L38 35L36 35L36 37L35 37L35 38L34 38L34 41L35 41L35 38L36 38L36 41L37 41L37 42L38 42L38 41L39 41L39 42L40 42L40 41L41 41L41 43L43 43L43 44L42 44L42 45L41 45L41 44L40 44L40 43L37 43L37 44L36 44L36 46L35 46L35 47L37 47L37 46L38 46L38 45L37 45L37 44L40 44L40 46L39 46L39 47L40 47L40 49L41 49L41 47L42 47L42 45L43 45L43 44L44 44L44 46L43 46L43 47L44 47L44 46L45 46L45 47L46 47L46 44L47 44L47 42L46 42L46 40L47 40L47 41L48 41L48 40L47 40L47 38L46 38L46 37L45 37L45 35L46 35L46 33L48 33L48 34L47 34L47 35L48 35L48 36L49 36L49 35L48 35L48 34L49 34L49 33L50 33L50 36L51 36L51 33L50 33L50 31L51 31L51 32L52 32L52 31L54 31L54 30L53 30L53 28L54 28L54 27L55 27L55 26L54 26L54 25L55 25L55 24L54 24L54 23L53 23L53 24L52 24L52 25L51 25L51 26L50 26L50 25L49 25L49 26L48 26L48 25L47 25L47 26L48 26L48 30L47 30L47 32L46 32L46 30L45 30L45 31L44 31L44 29L43 29L43 31L42 31L42 33L41 33L41 32L40 32L40 31L38 31L38 30L37 30L37 31L36 31L36 29L37 29L37 28L38 28L38 29L39 29L39 26L40 26L40 27L41 27L41 26L42 26L42 25L43 25L43 22L44 22L44 23L45 23L45 22L46 22L46 21L45 21L45 19L44 19L44 17L45 17L45 18L46 18L46 17L45 17L45 16L46 16L46 13L45 13L45 12L44 12L44 13L43 13L43 16L44 16L44 17L43 17L43 18L42 18L42 17L41 17L41 15L40 15L40 18L38 18L38 16L37 16L37 15L38 15L38 13L37 13L37 12L36 12L36 13L35 13L35 12L34 12L34 11L32 11L32 14L33 14L33 15L31 15L31 16L30 16L30 15L29 15L29 13L30 13L30 12L31 12L31 11L30 11L30 12L29 12L29 11L28 11L28 12L27 12L27 14L28 14L28 15L29 15L29 16L30 16L30 17L28 17L28 18L30 18L30 17L31 17L31 19L30 19L30 20L28 20L28 22L27 22L27 20L26 20L26 19L27 19L27 16L26 16L26 14L24 14L24 12L25 12L25 13L26 13L26 11L24 11L24 9L25 9L25 8L24 8L24 9L23 9L23 8ZM18 9L18 10L19 10L19 9ZM42 10L42 12L43 12L43 10ZM14 11L14 12L15 12L15 11ZM34 13L34 15L33 15L33 17L32 17L32 19L33 19L33 20L34 20L34 22L35 22L35 23L36 23L36 24L34 24L34 23L33 23L33 24L34 24L34 26L33 26L33 25L32 25L32 23L31 23L31 25L30 25L30 26L31 26L31 25L32 25L32 27L31 27L31 30L32 30L32 28L33 28L33 29L34 29L34 31L35 31L35 29L36 29L36 28L37 28L37 26L36 26L36 24L37 24L37 25L38 25L38 26L39 26L39 25L38 25L38 23L36 23L36 22L37 22L37 21L36 21L36 20L34 20L34 19L33 19L33 17L34 17L34 18L36 18L36 19L37 19L37 20L38 20L38 22L39 22L39 23L41 23L41 25L40 25L40 26L41 26L41 25L42 25L42 23L41 23L41 22L40 22L40 19L41 19L41 18L40 18L40 19L39 19L39 20L38 20L38 19L37 19L37 18L36 18L36 14L35 14L35 13ZM44 13L44 16L45 16L45 13ZM12 14L12 15L13 15L13 14ZM51 14L51 16L52 16L52 17L51 17L51 18L50 18L50 19L49 19L49 20L51 20L51 19L52 19L52 17L53 17L53 16L52 16L52 14ZM3 15L3 16L1 16L1 17L3 17L3 16L4 16L4 15ZM24 15L24 18L26 18L26 16L25 16L25 15ZM34 15L34 17L35 17L35 15ZM6 16L6 17L7 17L7 16ZM24 19L24 20L25 20L25 21L26 21L26 20L25 20L25 19ZM42 19L42 20L43 20L43 21L42 21L42 22L43 22L43 21L44 21L44 22L45 22L45 21L44 21L44 19ZM53 19L53 20L52 20L52 22L51 22L51 23L52 23L52 22L55 22L55 21L54 21L54 19ZM6 20L6 21L7 21L7 20ZM30 20L30 22L33 22L33 21L32 21L32 20ZM14 21L14 22L13 22L13 26L15 26L15 25L14 25L14 23L15 23L15 21ZM22 21L22 22L21 22L21 23L22 23L22 24L23 24L23 23L22 23L22 22L23 22L23 21ZM35 21L35 22L36 22L36 21ZM0 22L0 26L1 26L1 25L2 25L2 23L1 23L1 22ZM24 22L24 23L25 23L25 22ZM26 22L26 23L27 23L27 25L26 25L26 26L27 26L27 25L28 25L28 23L29 23L29 24L30 24L30 23L29 23L29 22L28 22L28 23L27 23L27 22ZM49 22L49 23L50 23L50 22ZM53 24L53 25L52 25L52 26L53 26L53 25L54 25L54 24ZM24 25L24 26L23 26L23 27L22 27L22 28L24 28L24 30L23 30L23 29L22 29L22 30L23 30L23 32L24 32L24 34L25 34L25 35L26 35L26 33L25 33L25 32L26 32L26 30L25 30L25 27L24 27L24 26L25 26L25 25ZM5 27L5 30L8 30L8 27ZM27 27L27 30L30 30L30 27ZM34 27L34 29L35 29L35 28L36 28L36 27ZM49 27L49 30L52 30L52 27ZM2 28L2 29L3 29L3 28ZM6 28L6 29L7 29L7 28ZM14 28L14 30L12 30L12 31L13 31L13 32L12 32L12 34L13 34L13 32L14 32L14 33L15 33L15 34L16 34L16 35L15 35L15 36L16 36L16 37L17 37L17 36L16 36L16 35L20 35L20 33L21 33L21 32L20 32L20 33L19 33L19 32L18 32L18 31L20 31L20 29L19 29L19 30L18 30L18 31L17 31L17 30L15 30L15 28ZM28 28L28 29L29 29L29 28ZM50 28L50 29L51 29L51 28ZM24 30L24 32L25 32L25 30ZM0 31L0 32L1 32L1 31ZM14 31L14 32L15 32L15 33L16 33L16 34L18 34L18 32L17 32L17 31L16 31L16 32L15 32L15 31ZM37 31L37 32L38 32L38 31ZM39 32L39 33L38 33L38 34L39 34L39 35L38 35L38 36L40 36L40 35L41 35L41 39L40 39L40 38L39 38L39 37L38 37L38 38L39 38L39 39L40 39L40 40L39 40L39 41L40 41L40 40L41 40L41 41L42 41L42 42L43 42L43 43L44 43L44 44L45 44L45 41L44 41L44 39L43 39L43 38L44 38L44 34L45 34L45 33L46 33L46 32L45 32L45 33L44 33L44 34L43 34L43 33L42 33L42 34L40 34L40 32ZM8 33L8 34L4 34L4 35L3 35L3 37L4 37L4 35L8 35L8 34L10 34L10 33ZM53 34L53 36L52 36L52 37L53 37L53 36L54 36L54 34ZM13 35L13 37L14 37L14 38L12 38L12 37L11 37L11 38L10 38L10 36L9 36L9 38L8 38L8 37L7 37L7 38L8 38L8 39L9 39L9 40L10 40L10 39L11 39L11 38L12 38L12 39L13 39L13 40L14 40L14 38L15 38L15 37L14 37L14 35ZM22 36L22 37L23 37L23 36ZM42 36L42 37L43 37L43 36ZM36 37L36 38L37 38L37 37ZM20 38L20 39L21 39L21 38ZM24 38L24 39L26 39L26 38ZM28 38L28 39L29 39L29 38ZM45 38L45 39L46 39L46 38ZM37 39L37 41L38 41L38 39ZM41 39L41 40L42 40L42 39ZM25 40L25 41L26 41L26 42L24 42L24 43L22 43L22 44L24 44L24 45L23 45L23 48L22 48L22 46L21 46L21 48L20 48L20 49L19 49L19 50L18 50L18 51L17 51L17 52L18 52L18 51L19 51L19 50L20 50L20 49L21 49L21 48L22 48L22 50L23 50L23 51L24 51L24 49L23 49L23 48L24 48L24 45L26 45L26 46L25 46L25 47L26 47L26 46L28 46L28 45L29 45L29 46L30 46L30 45L29 45L29 42L28 42L28 40ZM5 41L5 42L7 42L7 43L6 43L6 44L5 44L5 45L4 45L4 46L3 46L3 45L2 45L2 46L1 46L1 47L2 47L2 46L3 46L3 47L5 47L5 45L6 45L6 46L8 46L8 45L6 45L6 44L8 44L8 42L7 42L7 41ZM27 42L27 43L28 43L28 42ZM24 43L24 44L25 44L25 43ZM18 45L18 47L19 47L19 45ZM40 46L40 47L41 47L41 46ZM51 47L51 48L52 48L52 47ZM8 48L8 49L9 49L9 48ZM27 49L27 52L30 52L30 49ZM49 49L49 52L52 52L52 49ZM28 50L28 51L29 51L29 50ZM50 50L50 51L51 51L51 50ZM12 51L12 52L13 52L13 51ZM39 52L39 53L40 53L40 52ZM31 53L31 54L30 54L30 55L33 55L33 54L32 54L32 53ZM53 53L53 54L54 54L54 53ZM8 54L8 57L9 57L9 54ZM16 54L16 55L17 55L17 54ZM40 54L40 55L42 55L42 54ZM10 56L10 57L11 57L11 56ZM36 56L36 57L37 57L37 56ZM56 56L56 57L57 57L57 56ZM0 0L0 7L7 7L7 0ZM1 1L1 6L6 6L6 1ZM2 2L2 5L5 5L5 2ZM50 0L50 7L57 7L57 0ZM51 1L51 6L56 6L56 1ZM52 2L52 5L55 5L55 2ZM0 50L0 57L7 57L7 50ZM1 51L1 56L6 56L6 51ZM2 52L2 55L5 55L5 52Z" fill="#000000"/></g></g></svg>
