<?xml version="1.0" encoding="UTF-8"?>
<svg xmlns="http://www.w3.org/2000/svg" version="1.1" width="300" height="300" viewBox="0 0 300 300"><rect x="0" y="0" width="300" height="300" fill="#fefefe"/><g transform="scale(4.615)"><g transform="translate(4,4)"><path fill-rule="evenodd" d="M13 0L13 1L14 1L14 2L13 2L13 3L12 3L12 4L11 4L11 6L10 6L10 7L9 7L9 4L10 4L10 1L8 1L8 3L9 3L9 4L8 4L8 8L6 8L6 9L7 9L7 10L6 10L6 11L7 11L7 12L6 12L6 13L7 13L7 14L6 14L6 15L5 15L5 14L4 14L4 13L5 13L5 12L3 12L3 11L5 11L5 9L4 9L4 8L3 8L3 10L1 10L1 9L2 9L2 8L0 8L0 11L1 11L1 12L2 12L2 13L1 13L1 15L0 15L0 16L1 16L1 15L4 15L4 16L5 16L5 17L7 17L7 18L1 18L1 17L0 17L0 18L1 18L1 19L0 19L0 20L1 20L1 19L2 19L2 21L1 21L1 22L0 22L0 24L1 24L1 25L0 25L0 26L1 26L1 27L0 27L0 29L2 29L2 30L1 30L1 31L0 31L0 33L1 33L1 35L0 35L0 38L2 38L2 40L1 40L1 41L0 41L0 48L5 48L5 47L7 47L7 48L6 48L6 49L8 49L8 51L10 51L10 49L8 49L8 47L9 47L9 46L10 46L10 48L11 48L11 52L10 52L10 53L8 53L8 54L9 54L9 55L8 55L8 57L11 57L11 56L10 56L10 55L11 55L11 54L12 54L12 55L13 55L13 57L15 57L15 56L14 56L14 55L15 55L15 52L14 52L14 51L15 51L15 50L14 50L14 49L15 49L15 48L16 48L16 51L17 51L17 53L16 53L16 54L18 54L18 53L19 53L19 55L17 55L17 56L16 56L16 57L17 57L17 56L18 56L18 57L19 57L19 55L21 55L21 53L22 53L22 51L23 51L23 52L24 52L24 53L23 53L23 54L25 54L25 55L24 55L24 56L23 56L23 55L22 55L22 56L20 56L20 57L26 57L26 56L27 56L27 55L28 55L28 56L29 56L29 57L31 57L31 56L33 56L33 57L35 57L35 56L36 56L36 57L41 57L41 55L42 55L42 56L43 56L43 57L44 57L44 56L43 56L43 55L45 55L45 56L46 56L46 52L48 52L48 53L52 53L52 54L51 54L51 56L50 56L50 54L47 54L47 57L48 57L48 55L49 55L49 56L50 56L50 57L51 57L51 56L52 56L52 57L53 57L53 55L54 55L54 54L56 54L56 55L57 55L57 52L54 52L54 54L53 54L53 48L54 48L54 47L55 47L55 46L56 46L56 48L57 48L57 44L56 44L56 43L57 43L57 40L56 40L56 39L57 39L57 36L56 36L56 35L57 35L57 34L56 34L56 33L57 33L57 32L56 32L56 31L57 31L57 30L55 30L55 32L54 32L54 33L53 33L53 34L52 34L52 32L50 32L50 33L49 33L49 31L53 31L53 29L54 29L54 28L53 28L53 27L56 27L56 26L57 26L57 18L55 18L55 16L53 16L53 17L52 17L52 15L51 15L51 14L52 14L52 13L54 13L54 11L55 11L55 9L56 9L56 8L54 8L54 9L53 9L53 8L50 8L50 9L49 9L49 6L48 6L48 7L47 7L47 5L48 5L48 0L44 0L44 1L45 1L45 2L44 2L44 3L45 3L45 2L46 2L46 3L47 3L47 5L45 5L45 4L44 4L44 7L43 7L43 3L42 3L42 2L41 2L41 4L38 4L38 5L37 5L37 6L36 6L36 7L35 7L35 5L36 5L36 4L35 4L35 5L34 5L34 7L33 7L33 5L32 5L32 4L31 4L31 3L30 3L30 2L32 2L32 3L33 3L33 2L34 2L34 1L36 1L36 2L37 2L37 1L38 1L38 2L40 2L40 1L43 1L43 0L40 0L40 1L39 1L39 0L37 0L37 1L36 1L36 0L33 0L33 1L31 1L31 0L29 0L29 1L28 1L28 2L27 2L27 0L22 0L22 2L21 2L21 0L18 0L18 1L17 1L17 0ZM11 1L11 2L12 2L12 1ZM15 1L15 2L14 2L14 3L13 3L13 4L12 4L12 6L11 6L11 8L14 8L14 9L13 9L13 10L10 10L10 9L9 9L9 8L8 8L8 9L9 9L9 10L7 10L7 11L8 11L8 13L10 13L10 14L11 14L11 13L12 13L12 11L14 11L14 13L13 13L13 15L11 15L11 16L10 16L10 17L9 17L9 18L10 18L10 17L11 17L11 19L14 19L14 20L13 20L13 21L12 21L12 22L11 22L11 23L10 23L10 25L9 25L9 27L10 27L10 26L12 26L12 27L13 27L13 29L12 29L12 28L11 28L11 29L9 29L9 31L8 31L8 33L5 33L5 34L8 34L8 35L9 35L9 34L10 34L10 40L11 40L11 41L13 41L13 43L14 43L14 44L19 44L19 45L13 45L13 46L12 46L12 45L11 45L11 42L10 42L10 43L9 43L9 45L8 45L8 46L9 46L9 45L11 45L11 47L15 47L15 46L16 46L16 48L18 48L18 47L19 47L19 49L17 49L17 51L18 51L18 52L19 52L19 53L20 53L20 52L19 52L19 49L20 49L20 50L21 50L21 49L20 49L20 47L19 47L19 46L21 46L21 48L24 48L24 49L22 49L22 50L24 50L24 51L26 51L26 48L24 48L24 46L25 46L25 45L27 45L27 46L26 46L26 47L28 47L28 48L31 48L31 50L32 50L32 51L33 51L33 53L32 53L32 55L34 55L34 56L35 56L35 55L36 55L36 56L40 56L40 55L41 55L41 54L40 54L40 53L41 53L41 52L40 52L40 51L41 51L41 50L43 50L43 45L42 45L42 44L44 44L44 45L45 45L45 47L44 47L44 48L45 48L45 50L44 50L44 51L43 51L43 53L42 53L42 54L43 54L43 53L44 53L44 54L45 54L45 53L44 53L44 51L46 51L46 48L47 48L47 50L48 50L48 48L47 48L47 47L48 47L48 46L51 46L51 47L49 47L49 48L52 48L52 47L54 47L54 46L55 46L55 43L54 43L54 42L56 42L56 41L55 41L55 39L53 39L53 41L52 41L52 40L50 40L50 39L52 39L52 36L53 36L53 35L54 35L54 36L55 36L55 37L53 37L53 38L55 38L55 37L56 37L56 36L55 36L55 35L56 35L56 34L55 34L55 33L56 33L56 32L55 32L55 33L54 33L54 34L53 34L53 35L52 35L52 36L51 36L51 35L50 35L50 34L49 34L49 35L50 35L50 36L51 36L51 37L50 37L50 39L49 39L49 40L47 40L47 41L46 41L46 39L45 39L45 38L46 38L46 37L47 37L47 39L48 39L48 37L49 37L49 36L48 36L48 34L47 34L47 32L48 32L48 29L46 29L46 25L43 25L43 23L44 23L44 22L47 22L47 23L45 23L45 24L47 24L47 23L49 23L49 19L50 19L50 17L51 17L51 18L52 18L52 19L53 19L53 20L54 20L54 21L55 21L55 20L56 20L56 19L53 19L53 18L54 18L54 17L53 17L53 18L52 18L52 17L51 17L51 15L50 15L50 14L51 14L51 13L52 13L52 12L51 12L51 9L50 9L50 10L49 10L49 9L46 9L46 10L47 10L47 14L46 14L46 13L44 13L44 15L43 15L43 12L44 12L44 11L45 11L45 8L43 8L43 7L42 7L42 5L40 5L40 6L39 6L39 7L40 7L40 6L41 6L41 7L42 7L42 9L41 9L41 10L40 10L40 9L37 9L37 10L40 10L40 11L36 11L36 10L35 10L35 9L36 9L36 8L35 8L35 7L34 7L34 8L33 8L33 7L32 7L32 6L31 6L31 8L32 8L32 9L27 9L27 10L26 10L26 9L24 9L24 8L26 8L26 6L25 6L25 5L24 5L24 4L29 4L29 2L28 2L28 3L27 3L27 2L26 2L26 1L23 1L23 2L24 2L24 3L22 3L22 4L23 4L23 5L21 5L21 2L19 2L19 1L18 1L18 2L17 2L17 1ZM46 1L46 2L47 2L47 1ZM16 2L16 3L17 3L17 2ZM19 3L19 4L18 4L18 5L17 5L17 6L16 6L16 7L15 7L15 6L14 6L14 5L15 5L15 4L13 4L13 6L12 6L12 7L13 7L13 6L14 6L14 8L17 8L17 6L18 6L18 9L19 9L19 8L21 8L21 10L18 10L18 11L17 11L17 10L16 10L16 11L15 11L15 14L14 14L14 15L13 15L13 16L12 16L12 17L13 17L13 18L14 18L14 19L15 19L15 20L16 20L16 24L15 24L15 23L12 23L12 25L13 25L13 26L14 26L14 29L13 29L13 30L12 30L12 29L11 29L11 30L10 30L10 31L9 31L9 33L8 33L8 34L9 34L9 33L10 33L10 34L11 34L11 33L10 33L10 32L11 32L11 31L13 31L13 30L14 30L14 33L13 33L13 32L12 32L12 33L13 33L13 35L11 35L11 38L12 38L12 39L11 39L11 40L13 40L13 41L16 41L16 39L17 39L17 38L18 38L18 37L19 37L19 38L20 38L20 40L17 40L17 42L14 42L14 43L17 43L17 42L18 42L18 43L19 43L19 41L20 41L20 42L21 42L21 43L20 43L20 44L21 44L21 46L22 46L22 47L23 47L23 46L22 46L22 42L21 42L21 41L22 41L22 39L23 39L23 41L24 41L24 39L25 39L25 42L23 42L23 44L27 44L27 42L26 42L26 41L27 41L27 40L28 40L28 39L29 39L29 40L30 40L30 41L31 41L31 42L29 42L29 43L31 43L31 44L29 44L29 46L28 46L28 47L32 47L32 46L30 46L30 45L31 45L31 44L33 44L33 45L34 45L34 44L33 44L33 42L32 42L32 41L34 41L34 40L35 40L35 42L34 42L34 43L35 43L35 44L36 44L36 45L35 45L35 46L34 46L34 48L32 48L32 50L33 50L33 51L35 51L35 50L36 50L36 49L37 49L37 50L38 50L38 51L39 51L39 50L38 50L38 49L37 49L37 48L35 48L35 46L36 46L36 47L37 47L37 45L41 45L41 44L42 44L42 43L43 43L43 42L42 42L42 40L43 40L43 41L44 41L44 43L45 43L45 39L44 39L44 40L43 40L43 39L42 39L42 38L39 38L39 39L37 39L37 38L38 38L38 37L39 37L39 36L40 36L40 37L41 37L41 36L42 36L42 34L41 34L41 32L42 32L42 33L43 33L43 32L46 32L46 31L44 31L44 30L46 30L46 29L45 29L45 27L44 27L44 28L43 28L43 27L42 27L42 26L41 26L41 24L42 24L42 23L43 23L43 22L41 22L41 21L42 21L42 20L43 20L43 21L44 21L44 20L45 20L45 21L47 21L47 20L46 20L46 19L47 19L47 18L48 18L48 19L49 19L49 18L48 18L48 17L49 17L49 14L50 14L50 13L51 13L51 12L50 12L50 11L49 11L49 10L48 10L48 12L49 12L49 14L48 14L48 16L47 16L47 15L45 15L45 16L44 16L44 18L45 18L45 19L44 19L44 20L43 20L43 18L42 18L42 14L38 14L38 12L34 12L34 14L36 14L36 15L33 15L33 14L32 14L32 13L33 13L33 12L32 12L32 10L29 10L29 11L28 11L28 10L27 10L27 11L26 11L26 12L28 12L28 13L29 13L29 14L27 14L27 13L26 13L26 14L27 14L27 18L26 18L26 16L25 16L25 18L24 18L24 17L22 17L22 20L21 20L21 17L20 17L20 13L19 13L19 12L21 12L21 14L23 14L23 13L25 13L25 10L23 10L23 8L24 8L24 7L25 7L25 6L24 6L24 5L23 5L23 6L22 6L22 7L21 7L21 6L20 6L20 5L19 5L19 4L20 4L20 3ZM27 5L27 8L30 8L30 5ZM19 6L19 7L20 7L20 6ZM23 6L23 7L24 7L24 6ZM28 6L28 7L29 7L29 6ZM37 6L37 7L38 7L38 6ZM45 6L45 7L46 7L46 8L47 8L47 7L46 7L46 6ZM34 8L34 9L35 9L35 8ZM9 10L9 12L10 12L10 13L11 13L11 11L10 11L10 10ZM33 10L33 11L34 11L34 10ZM41 10L41 11L40 11L40 13L41 13L41 11L42 11L42 12L43 12L43 10ZM52 10L52 11L54 11L54 10ZM56 10L56 11L57 11L57 10ZM18 11L18 12L16 12L16 13L17 13L17 15L16 15L16 14L15 14L15 15L16 15L16 16L17 16L17 15L18 15L18 16L19 16L19 15L18 15L18 14L19 14L19 13L18 13L18 12L19 12L19 11ZM23 11L23 12L22 12L22 13L23 13L23 12L24 12L24 11ZM29 11L29 13L30 13L30 14L29 14L29 15L28 15L28 16L31 16L31 17L30 17L30 19L31 19L31 18L32 18L32 16L31 16L31 12L30 12L30 11ZM55 12L55 13L56 13L56 14L54 14L54 15L56 15L56 17L57 17L57 15L56 15L56 14L57 14L57 12ZM36 13L36 14L37 14L37 15L38 15L38 17L37 17L37 18L36 18L36 17L35 17L35 16L34 16L34 17L33 17L33 18L35 18L35 21L34 21L34 19L33 19L33 20L32 20L32 22L34 22L34 23L35 23L35 22L39 22L39 21L38 21L38 20L37 20L37 21L36 21L36 19L38 19L38 17L39 17L39 15L38 15L38 14L37 14L37 13ZM7 14L7 15L6 15L6 16L7 16L7 17L8 17L8 16L9 16L9 14ZM7 15L7 16L8 16L8 15ZM13 16L13 17L14 17L14 18L15 18L15 19L17 19L17 20L20 20L20 22L19 22L19 23L17 23L17 24L19 24L19 23L20 23L20 22L21 22L21 20L20 20L20 17L18 17L18 18L19 18L19 19L17 19L17 17L16 17L16 18L15 18L15 17L14 17L14 16ZM40 16L40 17L41 17L41 16ZM45 16L45 18L47 18L47 17L46 17L46 16ZM23 18L23 20L25 20L25 22L24 22L24 21L22 21L22 23L21 23L21 24L20 24L20 25L18 25L18 26L17 26L17 27L16 27L16 25L14 25L14 26L15 26L15 28L17 28L17 27L19 27L19 28L18 28L18 29L16 29L16 30L15 30L15 29L14 29L14 30L15 30L15 32L16 32L16 30L17 30L17 31L18 31L18 30L19 30L19 29L21 29L21 30L23 30L23 27L24 27L24 28L26 28L26 26L27 26L27 25L26 25L26 24L30 24L30 23L31 23L31 21L30 21L30 23L29 23L29 21L28 21L28 23L27 23L27 22L26 22L26 21L27 21L27 19L26 19L26 20L25 20L25 19L24 19L24 18ZM28 18L28 19L29 19L29 18ZM39 18L39 19L40 19L40 20L41 20L41 19L42 19L42 18ZM5 19L5 22L8 22L8 23L9 23L9 22L10 22L10 19L8 19L8 20L9 20L9 21L6 21L6 20L7 20L7 19ZM2 21L2 22L4 22L4 21ZM17 21L17 22L18 22L18 21ZM50 21L50 23L51 23L51 24L53 24L53 26L55 26L55 25L54 25L54 24L56 24L56 22L53 22L53 23L52 23L52 22L51 22L51 21ZM25 22L25 23L22 23L22 25L25 25L25 26L24 26L24 27L25 27L25 26L26 26L26 25L25 25L25 23L26 23L26 22ZM4 23L4 24L2 24L2 25L1 25L1 26L2 26L2 27L1 27L1 28L2 28L2 29L3 29L3 30L2 30L2 32L3 32L3 33L2 33L2 35L1 35L1 37L2 37L2 38L3 38L3 39L4 39L4 41L3 41L3 40L2 40L2 41L3 41L3 43L2 43L2 46L1 46L1 47L2 47L2 46L3 46L3 47L5 47L5 45L4 45L4 46L3 46L3 43L4 43L4 44L5 44L5 43L6 43L6 44L8 44L8 43L6 43L6 42L8 42L8 41L5 41L5 39L4 39L4 38L8 38L8 40L9 40L9 37L8 37L8 36L7 36L7 35L6 35L6 36L7 36L7 37L4 37L4 35L3 35L3 33L4 33L4 32L7 32L7 31L3 31L3 30L4 30L4 28L2 28L2 27L3 27L3 25L4 25L4 26L5 26L5 25L6 25L6 26L8 26L8 24L7 24L7 23L6 23L6 24L5 24L5 23ZM32 23L32 24L33 24L33 25L32 25L32 26L31 26L31 25L30 25L30 26L31 26L31 27L32 27L32 28L31 28L31 31L32 31L32 33L33 33L33 35L32 35L32 34L31 34L31 32L30 32L30 31L27 31L27 32L26 32L26 31L25 31L25 30L26 30L26 29L24 29L24 31L22 31L22 32L24 32L24 33L22 33L22 35L20 35L20 34L21 34L21 33L18 33L18 32L17 32L17 33L15 33L15 34L19 34L19 35L18 35L18 36L19 36L19 37L20 37L20 36L22 36L22 35L23 35L23 36L26 36L26 37L24 37L24 38L23 38L23 39L24 39L24 38L25 38L25 39L26 39L26 40L27 40L27 39L26 39L26 37L27 37L27 36L33 36L33 39L32 39L32 40L31 40L31 41L32 41L32 40L33 40L33 39L34 39L34 37L35 37L35 39L36 39L36 38L37 38L37 37L38 37L38 34L39 34L39 32L40 32L40 31L39 31L39 30L37 30L37 29L38 29L38 27L39 27L39 26L40 26L40 25L39 25L39 24L40 24L40 23L39 23L39 24L38 24L38 26L34 26L34 25L35 25L35 24L33 24L33 23ZM36 23L36 24L37 24L37 23ZM53 23L53 24L54 24L54 23ZM4 24L4 25L5 25L5 24ZM6 24L6 25L7 25L7 24ZM49 24L49 25L47 25L47 26L49 26L49 25L50 25L50 26L51 26L51 25L50 25L50 24ZM28 25L28 26L29 26L29 25ZM19 26L19 27L20 27L20 26ZM22 26L22 27L23 27L23 26ZM32 26L32 27L33 27L33 28L32 28L32 31L33 31L33 33L35 33L35 32L36 32L36 33L37 33L37 31L36 31L36 29L37 29L37 28L35 28L35 27L34 27L34 26ZM5 27L5 30L8 30L8 27ZM27 27L27 30L30 30L30 27ZM41 27L41 28L40 28L40 30L41 30L41 31L43 31L43 30L44 30L44 29L43 29L43 28L42 28L42 27ZM47 27L47 28L48 28L48 27ZM49 27L49 30L52 30L52 27ZM6 28L6 29L7 29L7 28ZM28 28L28 29L29 29L29 28ZM34 28L34 29L33 29L33 31L34 31L34 32L35 32L35 28ZM50 28L50 29L51 29L51 28ZM55 28L55 29L56 29L56 28ZM41 29L41 30L42 30L42 29ZM19 31L19 32L21 32L21 31ZM38 31L38 32L39 32L39 31ZM25 32L25 34L24 34L24 35L25 35L25 34L26 34L26 35L28 35L28 34L27 34L27 33L28 33L28 32L27 32L27 33L26 33L26 32ZM29 32L29 33L30 33L30 32ZM44 33L44 34L43 34L43 37L44 37L44 38L45 38L45 36L47 36L47 35L46 35L46 34L45 34L45 33ZM30 34L30 35L31 35L31 34ZM34 34L34 35L33 35L33 36L35 36L35 37L37 37L37 35L36 35L36 36L35 36L35 34ZM2 35L2 36L3 36L3 35ZM14 35L14 36L13 36L13 37L12 37L12 38L15 38L15 36L17 36L17 35ZM19 35L19 36L20 36L20 35ZM44 35L44 36L45 36L45 35ZM3 37L3 38L4 38L4 37ZM21 37L21 38L22 38L22 37ZM29 38L29 39L30 39L30 38ZM6 39L6 40L7 40L7 39ZM13 39L13 40L14 40L14 39ZM39 39L39 40L40 40L40 42L41 42L41 43L42 43L42 42L41 42L41 39ZM37 40L37 41L36 41L36 42L35 42L35 43L36 43L36 44L37 44L37 42L38 42L38 43L39 43L39 44L40 44L40 43L39 43L39 42L38 42L38 40ZM4 41L4 43L5 43L5 41ZM53 41L53 42L54 42L54 41ZM25 42L25 43L26 43L26 42ZM47 42L47 45L48 45L48 44L49 44L49 43L50 43L50 45L51 45L51 42L49 42L49 43L48 43L48 42ZM52 43L52 45L53 45L53 43ZM6 45L6 46L7 46L7 45ZM40 46L40 47L38 47L38 48L39 48L39 49L40 49L40 50L41 50L41 49L42 49L42 48L41 48L41 46ZM46 46L46 47L47 47L47 46ZM12 48L12 49L14 49L14 48ZM27 49L27 52L30 52L30 49ZM33 49L33 50L34 50L34 49ZM49 49L49 52L52 52L52 49ZM55 49L55 50L57 50L57 49ZM12 50L12 52L11 52L11 53L12 53L12 54L13 54L13 53L14 53L14 52L13 52L13 51L14 51L14 50ZM28 50L28 51L29 51L29 50ZM50 50L50 51L51 51L51 50ZM36 51L36 52L35 52L35 54L34 54L34 55L35 55L35 54L36 54L36 55L38 55L38 54L39 54L39 53L40 53L40 52L38 52L38 53L37 53L37 51ZM25 53L25 54L27 54L27 53ZM36 53L36 54L37 54L37 53ZM29 54L29 56L30 56L30 55L31 55L31 54ZM55 56L55 57L56 57L56 56ZM0 0L0 7L7 7L7 0ZM1 1L1 6L6 6L6 1ZM2 2L2 5L5 5L5 2ZM50 0L50 7L57 7L57 0ZM51 1L51 6L56 6L56 1ZM52 2L52 5L55 5L55 2ZM0 50L0 57L7 57L7 50ZM1 51L1 56L6 56L6 51ZM2 52L2 55L5 55L5 52Z" fill="#000000"/></g></g></svg>
