<?xml version="1.0" encoding="UTF-8"?>
<svg xmlns="http://www.w3.org/2000/svg" version="1.1" width="300" height="300" viewBox="0 0 300 300"><rect x="0" y="0" width="300" height="300" fill="#fefefe"/><g transform="scale(4.615)"><g transform="translate(4,4)"><path fill-rule="evenodd" d="M9 0L9 1L8 1L8 2L10 2L10 5L11 5L11 6L10 6L10 7L9 7L9 5L8 5L8 7L9 7L9 8L6 8L6 9L7 9L7 10L6 10L6 11L8 11L8 13L12 13L12 14L13 14L13 15L12 15L12 16L10 16L10 15L9 15L9 14L6 14L6 13L7 13L7 12L5 12L5 8L0 8L0 12L2 12L2 13L1 13L1 14L0 14L0 15L1 15L1 14L5 14L5 15L4 15L4 17L5 17L5 18L4 18L4 19L3 19L3 20L2 20L2 18L1 18L1 19L0 19L0 21L1 21L1 22L0 22L0 27L1 27L1 29L2 29L2 28L3 28L3 30L2 30L2 32L1 32L1 30L0 30L0 35L2 35L2 36L0 36L0 38L2 38L2 37L4 37L4 38L5 38L5 40L4 40L4 39L3 39L3 41L2 41L2 40L0 40L0 41L1 41L1 42L0 42L0 43L1 43L1 44L0 44L0 45L3 45L3 44L4 44L4 45L5 45L5 47L3 47L3 46L2 46L2 47L1 47L1 46L0 46L0 48L5 48L5 47L9 47L9 49L8 49L8 48L6 48L6 49L8 49L8 51L9 51L9 52L8 52L8 57L10 57L10 55L9 55L9 54L10 54L10 53L11 53L11 54L13 54L13 55L12 55L12 56L14 56L14 54L13 54L13 53L14 53L14 52L15 52L15 53L16 53L16 54L15 54L15 55L16 55L16 56L15 56L15 57L16 57L16 56L17 56L17 57L19 57L19 55L20 55L20 54L19 54L19 53L20 53L20 52L22 52L22 51L21 51L21 50L25 50L25 49L24 49L24 47L25 47L25 48L26 48L26 52L24 52L24 53L23 53L23 54L22 54L22 55L23 55L23 56L24 56L24 57L26 57L26 56L24 56L24 55L23 55L23 54L24 54L24 53L26 53L26 54L25 54L25 55L26 55L26 54L30 54L30 53L31 53L31 49L32 49L32 50L33 50L33 51L32 51L32 52L33 52L33 53L32 53L32 54L31 54L31 56L30 56L30 55L29 55L29 56L27 56L27 57L29 57L29 56L30 56L30 57L31 57L31 56L35 56L35 57L39 57L39 56L37 56L37 55L44 55L44 54L45 54L45 57L48 57L48 56L50 56L50 57L52 57L52 55L51 55L51 53L52 53L52 54L53 54L53 57L54 57L54 56L55 56L55 57L56 57L56 56L55 56L55 54L54 54L54 53L55 53L55 52L57 52L57 51L56 51L56 49L57 49L57 48L56 48L56 46L57 46L57 45L56 45L56 44L55 44L55 43L56 43L56 42L57 42L57 41L56 41L56 42L55 42L55 39L57 39L57 37L56 37L56 36L55 36L55 35L56 35L56 34L55 34L55 32L56 32L56 33L57 33L57 32L56 32L56 30L57 30L57 29L56 29L56 28L55 28L55 27L56 27L56 26L57 26L57 25L56 25L56 22L57 22L57 21L56 21L56 22L55 22L55 23L53 23L53 21L51 21L51 20L52 20L52 19L53 19L53 20L55 20L55 19L56 19L56 20L57 20L57 19L56 19L56 18L53 18L53 17L51 17L51 15L52 15L52 16L55 16L55 17L56 17L56 16L57 16L57 15L56 15L56 14L57 14L57 12L56 12L56 14L55 14L55 13L54 13L54 12L55 12L55 11L56 11L56 8L55 8L55 10L54 10L54 11L50 11L50 12L49 12L49 10L50 10L50 8L49 8L49 6L48 6L48 7L47 7L47 5L48 5L48 0L45 0L45 2L44 2L44 3L42 3L42 2L43 2L43 0L41 0L41 1L40 1L40 0L39 0L39 1L38 1L38 0L37 0L37 1L38 1L38 2L37 2L37 3L36 3L36 0L35 0L35 1L33 1L33 0L30 0L30 1L29 1L29 0L27 0L27 1L26 1L26 0L23 0L23 1L22 1L22 0L21 0L21 1L22 1L22 2L25 2L25 1L26 1L26 2L27 2L27 1L28 1L28 3L27 3L27 4L26 4L26 3L23 3L23 4L19 4L19 3L20 3L20 2L19 2L19 3L18 3L18 1L20 1L20 0L17 0L17 4L18 4L18 5L20 5L20 7L19 7L19 6L18 6L18 7L17 7L17 6L16 6L16 7L15 7L15 5L16 5L16 4L15 4L15 5L13 5L13 4L14 4L14 2L15 2L15 3L16 3L16 1L14 1L14 0L13 0L13 1L14 1L14 2L12 2L12 0L11 0L11 2L10 2L10 0ZM30 1L30 2L29 2L29 3L28 3L28 4L31 4L31 8L32 8L32 10L31 10L31 11L30 11L30 10L29 10L29 9L27 9L27 10L29 10L29 12L28 12L28 13L26 13L26 12L27 12L27 11L26 11L26 12L25 12L25 11L24 11L24 12L23 12L23 13L22 13L22 12L19 12L19 13L20 13L20 14L19 14L19 15L18 15L18 16L19 16L19 17L18 17L18 18L17 18L17 17L16 17L16 16L17 16L17 13L18 13L18 12L17 12L17 13L16 13L16 11L15 11L15 13L13 13L13 14L15 14L15 13L16 13L16 16L14 16L14 18L13 18L13 19L11 19L11 20L12 20L12 22L13 22L13 23L11 23L11 25L10 25L10 23L9 23L9 24L8 24L8 23L6 23L6 24L8 24L8 25L6 25L6 26L9 26L9 25L10 25L10 27L9 27L9 30L10 30L10 29L11 29L11 28L12 28L12 29L14 29L14 26L18 26L18 27L16 27L16 28L15 28L15 29L16 29L16 31L15 31L15 30L13 30L13 31L15 31L15 32L16 32L16 33L15 33L15 34L16 34L16 36L15 36L15 35L14 35L14 34L13 34L13 36L12 36L12 35L11 35L11 36L10 36L10 35L9 35L9 36L8 36L8 37L10 37L10 39L11 39L11 40L9 40L9 39L8 39L8 41L9 41L9 42L7 42L7 41L6 41L6 40L7 40L7 39L6 39L6 40L5 40L5 41L4 41L4 42L7 42L7 43L6 43L6 44L7 44L7 45L6 45L6 46L8 46L8 45L9 45L9 47L10 47L10 45L11 45L11 44L12 44L12 43L11 43L11 42L10 42L10 41L13 41L13 44L14 44L14 45L13 45L13 47L11 47L11 48L10 48L10 49L9 49L9 51L10 51L10 50L11 50L11 51L12 51L12 52L13 52L13 51L12 51L12 50L13 50L13 49L14 49L14 50L15 50L15 51L16 51L16 53L17 53L17 52L18 52L18 51L17 51L17 50L19 50L19 49L20 49L20 50L21 50L21 49L23 49L23 47L24 47L24 46L23 46L23 45L22 45L22 44L21 44L21 43L22 43L22 42L23 42L23 40L24 40L24 41L25 41L25 43L29 43L29 45L28 45L28 44L24 44L24 45L25 45L25 47L26 47L26 48L27 48L27 47L28 47L28 48L29 48L29 46L31 46L31 47L33 47L33 46L35 46L35 48L36 48L36 47L37 47L37 45L34 45L34 43L35 43L35 44L36 44L36 43L37 43L37 42L35 42L35 40L38 40L38 42L39 42L39 45L38 45L38 46L41 46L41 48L39 48L39 47L38 47L38 48L37 48L37 49L38 49L38 50L36 50L36 49L33 49L33 48L32 48L32 49L33 49L33 50L34 50L34 51L33 51L33 52L34 52L34 53L33 53L33 55L35 55L35 56L36 56L36 54L35 54L35 50L36 50L36 52L37 52L37 51L38 51L38 50L41 50L41 51L42 51L42 50L41 50L41 48L42 48L42 49L43 49L43 50L44 50L44 51L45 51L45 52L44 52L44 53L43 53L43 52L42 52L42 53L43 53L43 54L44 54L44 53L45 53L45 54L48 54L48 50L47 50L47 49L48 49L48 48L49 48L49 47L51 47L51 48L54 48L54 49L56 49L56 48L54 48L54 47L55 47L55 46L56 46L56 45L55 45L55 44L54 44L54 45L55 45L55 46L54 46L54 47L53 47L53 45L51 45L51 44L53 44L53 43L54 43L54 42L53 42L53 41L54 41L54 40L53 40L53 41L51 41L51 42L50 42L50 43L47 43L47 45L45 45L45 44L46 44L46 42L48 42L48 41L49 41L49 40L50 40L50 39L51 39L51 38L53 38L53 39L54 39L54 38L53 38L53 35L55 35L55 34L54 34L54 33L52 33L52 31L51 31L51 33L52 33L52 34L50 34L50 31L48 31L48 30L47 30L47 29L46 29L46 30L47 30L47 31L48 31L48 32L46 32L46 33L45 33L45 32L43 32L43 31L44 31L44 30L45 30L45 28L46 28L46 27L47 27L47 25L45 25L45 23L46 23L46 22L47 22L47 21L48 21L48 20L49 20L49 18L47 18L47 17L50 17L50 19L52 19L52 18L51 18L51 17L50 17L50 14L51 14L51 12L50 12L50 14L49 14L49 15L48 15L48 16L46 16L46 17L45 17L45 14L47 14L47 13L49 13L49 12L45 12L45 11L46 11L46 10L47 10L47 9L49 9L49 8L47 8L47 7L46 7L46 6L45 6L45 5L47 5L47 3L44 3L44 6L43 6L43 8L44 8L44 10L45 10L45 11L43 11L43 10L41 10L41 9L42 9L42 8L41 8L41 7L42 7L42 6L41 6L41 5L40 5L40 4L41 4L41 3L39 3L39 2L38 2L38 3L37 3L37 4L36 4L36 5L35 5L35 4L33 4L33 3L35 3L35 2L33 2L33 1L32 1L32 2L31 2L31 1ZM46 1L46 2L47 2L47 1ZM11 2L11 3L12 3L12 4L11 4L11 5L12 5L12 6L11 6L11 7L12 7L12 6L13 6L13 7L14 7L14 9L10 9L10 11L12 11L12 12L14 12L14 11L12 11L12 10L17 10L17 11L18 11L18 10L19 10L19 11L22 11L22 10L23 10L23 9L24 9L24 6L23 6L23 5L24 5L24 4L23 4L23 5L21 5L21 7L22 7L22 8L20 8L20 10L19 10L19 9L18 9L18 10L17 10L17 9L15 9L15 7L14 7L14 6L13 6L13 5L12 5L12 4L13 4L13 3L12 3L12 2ZM32 2L32 3L31 3L31 4L32 4L32 5L33 5L33 6L32 6L32 7L33 7L33 9L34 9L34 8L35 8L35 9L37 9L37 10L36 10L36 11L35 11L35 14L32 14L32 12L33 12L33 13L34 13L34 12L33 12L33 10L32 10L32 11L31 11L31 13L30 13L30 14L29 14L29 13L28 13L28 14L29 14L29 16L28 16L28 15L27 15L27 16L28 16L28 17L26 17L26 14L25 14L25 13L23 13L23 14L22 14L22 13L21 13L21 15L24 15L24 16L25 16L25 17L22 17L22 16L20 16L20 17L19 17L19 18L18 18L18 19L17 19L17 18L16 18L16 17L15 17L15 21L16 21L16 22L14 22L14 21L13 21L13 22L14 22L14 23L13 23L13 24L15 24L15 25L16 25L16 24L17 24L17 25L19 25L19 26L20 26L20 27L19 27L19 29L18 29L18 28L16 28L16 29L18 29L18 30L17 30L17 31L18 31L18 32L17 32L17 34L20 34L20 33L19 33L19 30L20 30L20 32L23 32L23 31L24 31L24 32L25 32L25 33L23 33L23 34L24 34L24 36L23 36L23 35L22 35L22 36L23 36L23 37L24 37L24 38L21 38L21 37L19 37L19 36L21 36L21 35L18 35L18 37L17 37L17 38L18 38L18 37L19 37L19 38L20 38L20 39L19 39L19 40L18 40L18 39L17 39L17 40L16 40L16 39L14 39L14 38L13 38L13 37L12 37L12 38L13 38L13 39L12 39L12 40L16 40L16 41L15 41L15 43L16 43L16 44L18 44L18 45L17 45L17 46L18 46L18 47L17 47L17 48L16 48L16 49L15 49L15 47L14 47L14 49L15 49L15 50L16 50L16 49L19 49L19 48L20 48L20 49L21 49L21 48L20 48L20 47L23 47L23 46L22 46L22 45L21 45L21 46L20 46L20 45L19 45L19 44L20 44L20 43L19 43L19 42L20 42L20 40L22 40L22 39L24 39L24 40L25 40L25 37L26 37L26 39L27 39L27 40L28 40L28 39L27 39L27 38L28 38L28 37L27 37L27 34L26 34L26 35L25 35L25 33L26 33L26 32L28 32L28 33L29 33L29 34L30 34L30 36L29 36L29 37L31 37L31 38L29 38L29 39L33 39L33 40L35 40L35 39L37 39L37 38L38 38L38 37L40 37L40 38L41 38L41 39L42 39L42 38L43 38L43 37L44 37L44 38L45 38L45 39L43 39L43 40L41 40L41 43L40 43L40 44L41 44L41 46L43 46L43 45L44 45L44 47L45 47L45 49L44 49L44 48L43 48L43 47L42 47L42 48L43 48L43 49L44 49L44 50L45 50L45 51L46 51L46 52L45 52L45 53L47 53L47 51L46 51L46 50L45 50L45 49L47 49L47 48L48 48L48 47L49 47L49 46L51 46L51 45L50 45L50 44L51 44L51 43L53 43L53 42L51 42L51 43L50 43L50 44L48 44L48 45L47 45L47 46L45 46L45 45L44 45L44 43L45 43L45 42L44 42L44 41L43 41L43 40L45 40L45 41L47 41L47 39L50 39L50 38L51 38L51 37L52 37L52 35L53 35L53 34L52 34L52 35L50 35L50 34L49 34L49 35L50 35L50 36L51 36L51 37L50 37L50 38L47 38L47 39L46 39L46 38L45 38L45 37L46 37L46 35L44 35L44 33L43 33L43 32L41 32L41 33L39 33L39 34L40 34L40 35L39 35L39 36L38 36L38 33L37 33L37 32L35 32L35 31L36 31L36 29L38 29L38 28L39 28L39 27L41 27L41 28L42 28L42 26L43 26L43 25L44 25L44 24L43 24L43 25L42 25L42 24L41 24L41 23L44 23L44 20L45 20L45 19L46 19L46 18L44 18L44 15L42 15L42 16L41 16L41 15L39 15L39 14L38 14L38 13L40 13L40 12L41 12L41 11L40 11L40 12L39 12L39 10L40 10L40 9L39 9L39 10L38 10L38 8L39 8L39 6L40 6L40 7L41 7L41 6L40 6L40 5L39 5L39 6L38 6L38 8L35 8L35 5L33 5L33 4L32 4L32 3L33 3L33 2ZM8 3L8 4L9 4L9 3ZM25 4L25 8L26 8L26 4ZM37 4L37 5L36 5L36 7L37 7L37 5L38 5L38 4ZM27 5L27 8L30 8L30 5ZM22 6L22 7L23 7L23 6ZM28 6L28 7L29 7L29 6ZM33 6L33 7L34 7L34 6ZM44 6L44 7L45 7L45 6ZM16 7L16 8L17 8L17 7ZM46 8L46 9L47 9L47 8ZM51 8L51 9L52 9L52 10L53 10L53 9L54 9L54 8L53 8L53 9L52 9L52 8ZM2 9L2 10L1 10L1 11L2 11L2 10L3 10L3 12L4 12L4 9ZM8 9L8 11L9 11L9 9ZM21 9L21 10L22 10L22 9ZM37 10L37 11L38 11L38 10ZM43 12L43 13L41 13L41 14L43 14L43 13L44 13L44 14L45 14L45 13L44 13L44 12ZM52 12L52 13L53 13L53 14L54 14L54 15L55 15L55 14L54 14L54 13L53 13L53 12ZM36 13L36 14L37 14L37 15L35 15L35 16L33 16L33 15L31 15L31 14L30 14L30 15L31 15L31 16L32 16L32 17L31 17L31 18L30 18L30 19L33 19L33 18L34 18L34 19L36 19L36 20L37 20L37 19L39 19L39 17L41 17L41 16L39 16L39 15L38 15L38 14L37 14L37 13ZM2 15L2 16L1 16L1 17L2 17L2 16L3 16L3 15ZM5 15L5 17L6 17L6 18L5 18L5 20L3 20L3 21L2 21L2 22L1 22L1 23L2 23L2 24L1 24L1 26L4 26L4 24L3 24L3 23L5 23L5 22L7 22L7 21L5 21L5 20L9 20L9 21L10 21L10 22L11 22L11 21L10 21L10 19L8 19L8 17L6 17L6 16L9 16L9 15ZM12 16L12 17L10 17L10 18L12 18L12 17L13 17L13 16ZM35 16L35 17L37 17L37 18L38 18L38 17L39 17L39 16L38 16L38 17L37 17L37 16ZM42 16L42 17L43 17L43 16ZM20 17L20 18L19 18L19 19L18 19L18 20L16 20L16 21L18 21L18 22L17 22L17 24L19 24L19 25L20 25L20 26L22 26L22 27L20 27L20 28L22 28L22 29L20 29L20 30L21 30L21 31L23 31L23 29L26 29L26 28L23 28L23 26L22 26L22 25L24 25L24 24L25 24L25 25L26 25L26 26L24 26L24 27L26 27L26 26L27 26L27 25L28 25L28 26L29 26L29 22L28 22L28 21L29 21L29 19L28 19L28 18L27 18L27 19L26 19L26 17L25 17L25 19L26 19L26 20L25 20L25 21L24 21L24 20L23 20L23 19L24 19L24 18L22 18L22 17ZM32 17L32 18L33 18L33 17ZM6 18L6 19L7 19L7 18ZM20 18L20 19L19 19L19 20L18 20L18 21L20 21L20 20L22 20L22 19L21 19L21 18ZM41 18L41 19L42 19L42 18ZM43 18L43 20L44 20L44 18ZM13 19L13 20L14 20L14 19ZM27 19L27 20L28 20L28 19ZM32 20L32 21L31 21L31 23L30 23L30 24L32 24L32 26L31 26L31 28L32 28L32 29L33 29L33 30L31 30L31 31L30 31L30 32L29 32L29 31L28 31L28 32L29 32L29 33L31 33L31 32L32 32L32 35L33 35L33 36L32 36L32 37L33 37L33 39L35 39L35 37L34 37L34 34L35 34L35 36L37 36L37 34L35 34L35 32L34 32L34 31L33 31L33 30L35 30L35 28L33 28L33 27L34 27L34 26L36 26L36 27L39 27L39 26L41 26L41 24L40 24L40 22L39 22L39 21L42 21L42 20L38 20L38 22L37 22L37 24L38 24L38 26L37 26L37 25L33 25L33 24L32 24L32 23L33 23L33 22L34 22L34 23L35 23L35 21L33 21L33 20ZM46 20L46 21L45 21L45 22L46 22L46 21L47 21L47 20ZM4 21L4 22L5 22L5 21ZM21 21L21 23L22 23L22 21ZM23 21L23 22L24 22L24 21ZM25 21L25 22L26 22L26 23L25 23L25 24L27 24L27 21ZM49 21L49 23L48 23L48 24L49 24L49 23L50 23L50 24L51 24L51 25L50 25L50 26L51 26L51 25L52 25L52 26L53 26L53 27L54 27L54 26L53 26L53 23L50 23L50 22L51 22L51 21ZM19 22L19 23L20 23L20 22ZM15 23L15 24L16 24L16 23ZM23 23L23 24L24 24L24 23ZM38 23L38 24L39 24L39 25L40 25L40 24L39 24L39 23ZM2 24L2 25L3 25L3 24ZM20 24L20 25L21 25L21 24ZM11 25L11 26L12 26L12 28L13 28L13 26L14 26L14 25ZM55 25L55 26L56 26L56 25ZM32 26L32 27L33 27L33 26ZM45 26L45 27L43 27L43 28L45 28L45 27L46 27L46 26ZM5 27L5 30L8 30L8 27ZM10 27L10 28L11 28L11 27ZM27 27L27 30L30 30L30 27ZM49 27L49 30L52 30L52 27ZM6 28L6 29L7 29L7 28ZM28 28L28 29L29 29L29 28ZM50 28L50 29L51 29L51 28ZM54 28L54 29L55 29L55 28ZM39 29L39 30L38 30L38 32L39 32L39 31L41 31L41 30L44 30L44 29ZM3 30L3 31L4 31L4 30ZM5 31L5 33L6 33L6 34L4 34L4 32L3 32L3 34L4 34L4 35L3 35L3 36L5 36L5 37L6 37L6 38L7 38L7 37L6 37L6 36L7 36L7 35L8 35L8 34L9 34L9 33L10 33L10 32L11 32L11 34L12 34L12 33L13 33L13 32L11 32L11 31ZM25 31L25 32L26 32L26 31ZM32 31L32 32L33 32L33 33L34 33L34 32L33 32L33 31ZM6 32L6 33L7 33L7 32ZM48 32L48 33L49 33L49 32ZM1 33L1 34L2 34L2 33ZM21 33L21 34L22 34L22 33ZM6 34L6 35L7 35L7 34ZM42 34L42 35L41 35L41 36L40 36L40 37L41 37L41 36L44 36L44 37L45 37L45 36L44 36L44 35L43 35L43 34ZM47 35L47 36L48 36L48 35ZM15 37L15 38L16 38L16 37ZM38 39L38 40L40 40L40 39ZM45 39L45 40L46 40L46 39ZM30 40L30 42L29 42L29 43L31 43L31 44L33 44L33 43L34 43L34 42L33 42L33 41L32 41L32 40ZM16 41L16 42L17 42L17 43L18 43L18 42L19 42L19 41L18 41L18 42L17 42L17 41ZM21 41L21 42L22 42L22 41ZM26 41L26 42L27 42L27 41ZM31 41L31 42L32 42L32 43L33 43L33 42L32 42L32 41ZM39 41L39 42L40 42L40 41ZM1 42L1 43L2 43L2 44L3 44L3 43L2 43L2 42ZM43 42L43 43L44 43L44 42ZM10 43L10 44L9 44L9 45L10 45L10 44L11 44L11 43ZM41 43L41 44L42 44L42 43ZM26 45L26 47L27 47L27 46L28 46L28 45ZM31 45L31 46L32 46L32 45ZM19 46L19 47L20 47L20 46ZM47 46L47 47L48 47L48 46ZM11 48L11 50L12 50L12 48ZM38 48L38 49L39 49L39 48ZM27 49L27 52L30 52L30 49ZM49 49L49 52L52 52L52 49ZM28 50L28 51L29 51L29 50ZM50 50L50 51L51 51L51 50ZM54 50L54 51L55 51L55 50ZM19 51L19 52L20 52L20 51ZM39 51L39 52L38 52L38 54L40 54L40 53L41 53L41 52L40 52L40 51ZM9 52L9 53L10 53L10 52ZM53 52L53 53L54 53L54 52ZM17 54L17 56L18 56L18 55L19 55L19 54ZM50 55L50 56L51 56L51 55ZM41 56L41 57L44 57L44 56ZM0 0L0 7L7 7L7 0ZM1 1L1 6L6 6L6 1ZM2 2L2 5L5 5L5 2ZM50 0L50 7L57 7L57 0ZM51 1L51 6L56 6L56 1ZM52 2L52 5L55 5L55 2ZM0 50L0 57L7 57L7 50ZM1 51L1 56L6 56L6 51ZM2 52L2 55L5 55L5 52Z" fill="#000000"/></g></g></svg>
