<?xml version="1.0" encoding="UTF-8"?>
<svg xmlns="http://www.w3.org/2000/svg" version="1.1" width="300" height="300" viewBox="0 0 300 300"><rect x="0" y="0" width="300" height="300" fill="#fefefe"/><g transform="scale(4.615)"><g transform="translate(4,4)"><path fill-rule="evenodd" d="M10 0L10 1L11 1L11 0ZM13 0L13 1L12 1L12 3L11 3L11 5L10 5L10 4L9 4L9 3L10 3L10 2L9 2L9 1L8 1L8 2L9 2L9 3L8 3L8 4L9 4L9 5L8 5L8 7L9 7L9 8L6 8L6 9L5 9L5 8L0 8L0 14L2 14L2 15L0 15L0 16L1 16L1 17L0 17L0 18L1 18L1 17L2 17L2 15L5 15L5 16L4 16L4 17L3 17L3 18L2 18L2 19L1 19L1 21L2 21L2 19L4 19L4 20L3 20L3 22L2 22L2 23L0 23L0 26L1 26L1 25L2 25L2 27L4 27L4 31L3 31L3 29L2 29L2 28L1 28L1 27L0 27L0 29L1 29L1 30L2 30L2 31L0 31L0 32L3 32L3 33L1 33L1 34L2 34L2 35L1 35L1 36L0 36L0 38L1 38L1 40L0 40L0 41L3 41L3 38L1 38L1 37L2 37L2 35L3 35L3 37L4 37L4 38L5 38L5 39L4 39L4 42L5 42L5 43L7 43L7 44L6 44L6 45L5 45L5 44L4 44L4 43L2 43L2 44L1 44L1 43L0 43L0 48L5 48L5 47L7 47L7 48L6 48L6 49L8 49L8 51L9 51L9 49L8 49L8 46L9 46L9 45L10 45L10 46L11 46L11 43L10 43L10 42L9 42L9 43L10 43L10 44L8 44L8 42L6 42L6 41L9 41L9 40L11 40L11 39L12 39L12 41L11 41L11 42L15 42L15 40L16 40L16 39L14 39L14 40L13 40L13 39L12 39L12 38L13 38L13 37L11 37L11 35L10 35L10 34L12 34L12 35L13 35L13 34L14 34L14 36L15 36L15 33L17 33L17 34L16 34L16 35L17 35L17 34L18 34L18 35L19 35L19 36L17 36L17 37L19 37L19 38L20 38L20 39L17 39L17 40L18 40L18 41L17 41L17 42L16 42L16 44L18 44L18 45L17 45L17 46L20 46L20 48L21 48L21 47L23 47L23 49L21 49L21 50L20 50L20 49L19 49L19 47L17 47L17 50L16 50L16 51L17 51L17 53L16 53L16 52L15 52L15 51L14 51L14 53L16 53L16 54L15 54L15 55L14 55L14 56L11 56L11 55L10 55L10 53L9 53L9 52L8 52L8 57L16 57L16 56L17 56L17 57L19 57L19 55L20 55L20 54L19 54L19 53L20 53L20 52L21 52L21 50L22 50L22 51L23 51L23 50L25 50L25 51L26 51L26 52L24 52L24 53L21 53L21 54L22 54L22 56L23 56L23 57L26 57L26 56L27 56L27 57L29 57L29 56L30 56L30 57L31 57L31 56L35 56L35 57L39 57L39 56L37 56L37 55L41 55L41 54L42 54L42 55L43 55L43 57L44 57L44 54L46 54L46 55L49 55L49 56L50 56L50 57L52 57L52 55L51 55L51 53L52 53L52 54L53 54L53 52L54 52L54 54L55 54L55 53L56 53L56 52L57 52L57 51L56 51L56 52L55 52L55 51L54 51L54 50L57 50L57 48L56 48L56 46L57 46L57 43L56 43L56 42L57 42L57 41L56 41L56 42L55 42L55 39L57 39L57 37L55 37L55 35L56 35L56 33L57 33L57 32L56 32L56 30L57 30L57 29L56 29L56 28L55 28L55 27L56 27L56 26L57 26L57 25L56 25L56 22L57 22L57 21L56 21L56 20L57 20L57 19L56 19L56 18L57 18L57 17L56 17L56 16L57 16L57 15L56 15L56 14L57 14L57 12L56 12L56 10L54 10L54 11L53 11L53 9L54 9L54 8L53 8L53 9L52 9L52 8L51 8L51 10L50 10L50 8L49 8L49 6L48 6L48 7L47 7L47 5L48 5L48 0L45 0L45 2L44 2L44 3L42 3L42 2L43 2L43 0L41 0L41 1L40 1L40 0L39 0L39 1L38 1L38 0L37 0L37 1L38 1L38 3L41 3L41 4L40 4L40 5L39 5L39 6L38 6L38 7L37 7L37 5L38 5L38 4L37 4L37 3L36 3L36 0L35 0L35 1L33 1L33 0L32 0L32 1L33 1L33 2L32 2L32 3L31 3L31 4L26 4L26 3L23 3L23 4L24 4L24 5L21 5L21 4L19 4L19 3L20 3L20 2L21 2L21 3L22 3L22 2L25 2L25 1L26 1L26 2L27 2L27 3L29 3L29 2L31 2L31 0L29 0L29 1L28 1L28 0L27 0L27 1L26 1L26 0L23 0L23 1L22 1L22 0L21 0L21 1L20 1L20 0L18 0L18 1L20 1L20 2L19 2L19 3L18 3L18 4L17 4L17 6L16 6L16 7L15 7L15 5L16 5L16 4L15 4L15 5L14 5L14 7L13 7L13 6L12 6L12 9L14 9L14 7L15 7L15 8L16 8L16 9L18 9L18 11L17 11L17 10L16 10L16 11L15 11L15 10L11 10L11 9L10 9L10 7L11 7L11 5L13 5L13 4L14 4L14 2L15 2L15 3L16 3L16 2L17 2L17 1L16 1L16 2L15 2L15 1L14 1L14 0ZM13 1L13 2L14 2L14 1ZM46 1L46 2L47 2L47 1ZM32 3L32 4L31 4L31 8L32 8L32 10L29 10L29 12L28 12L28 13L27 13L27 14L25 14L25 15L26 15L26 17L25 17L25 16L23 16L23 15L24 15L24 14L23 14L23 13L22 13L22 12L21 12L21 11L22 11L22 10L23 10L23 12L25 12L25 13L26 13L26 12L27 12L27 11L26 11L26 12L25 12L25 10L23 10L23 9L25 9L25 8L26 8L26 4L25 4L25 8L24 8L24 6L23 6L23 8L19 8L19 9L20 9L20 10L19 10L19 12L20 12L20 14L21 14L21 13L22 13L22 14L23 14L23 15L19 15L19 14L17 14L17 13L18 13L18 12L17 12L17 13L16 13L16 12L15 12L15 13L13 13L13 12L14 12L14 11L12 11L12 12L11 12L11 11L9 11L9 10L8 10L8 12L11 12L11 13L12 13L12 14L15 14L15 13L16 13L16 16L14 16L14 15L13 15L13 16L11 16L11 15L10 15L10 14L9 14L9 13L8 13L8 14L7 14L7 13L6 13L6 14L5 14L5 15L6 15L6 16L7 16L7 17L6 17L6 18L4 18L4 19L6 19L6 20L4 20L4 22L5 22L5 23L4 23L4 25L3 25L3 26L5 26L5 25L6 25L6 26L9 26L9 25L8 25L8 24L9 24L9 23L8 23L8 21L9 21L9 20L10 20L10 21L11 21L11 22L10 22L10 24L11 24L11 25L10 25L10 27L9 27L9 28L10 28L10 27L15 27L15 28L14 28L14 29L12 29L12 28L11 28L11 29L12 29L12 30L10 30L10 33L12 33L12 34L13 34L13 32L11 32L11 31L12 31L12 30L15 30L15 29L16 29L16 31L14 31L14 33L15 33L15 32L19 32L19 31L20 31L20 32L21 32L21 33L18 33L18 34L20 34L20 35L22 35L22 36L19 36L19 37L22 37L22 38L24 38L24 37L23 37L23 36L24 36L24 34L23 34L23 33L25 33L25 34L26 34L26 35L27 35L27 36L25 36L25 38L26 38L26 39L25 39L25 40L24 40L24 39L23 39L23 40L22 40L22 39L21 39L21 40L20 40L20 42L19 42L19 41L18 41L18 42L17 42L17 43L18 43L18 42L19 42L19 43L20 43L20 46L21 46L21 45L22 45L22 46L23 46L23 47L25 47L25 48L24 48L24 49L26 49L26 48L27 48L27 47L28 47L28 48L29 48L29 47L28 47L28 46L30 46L30 45L31 45L31 44L30 44L30 45L28 45L28 44L25 44L25 43L27 43L27 42L30 42L30 41L31 41L31 42L32 42L32 43L33 43L33 44L32 44L32 46L31 46L31 47L32 47L32 50L31 50L31 53L30 53L30 54L27 54L27 53L24 53L24 54L23 54L23 55L24 55L24 56L26 56L26 55L27 55L27 56L29 56L29 55L30 55L30 56L31 56L31 54L32 54L32 53L33 53L33 55L35 55L35 56L36 56L36 54L35 54L35 51L34 51L34 50L36 50L36 52L37 52L37 51L38 51L38 53L37 53L37 54L40 54L40 53L41 53L41 52L42 52L42 50L41 50L41 48L42 48L42 49L43 49L43 48L44 48L44 49L45 49L45 50L47 50L47 53L46 53L46 54L48 54L48 50L47 50L47 49L48 49L48 48L49 48L49 47L51 47L51 48L52 48L52 47L51 47L51 46L53 46L53 47L54 47L54 45L55 45L55 46L56 46L56 43L55 43L55 44L54 44L54 45L53 45L53 43L54 43L54 42L53 42L53 41L51 41L51 42L50 42L50 43L48 43L48 44L47 44L47 45L45 45L45 44L46 44L46 43L47 43L47 42L48 42L48 41L49 41L49 40L50 40L50 39L51 39L51 38L53 38L53 39L54 39L54 38L53 38L53 35L55 35L55 34L54 34L54 33L56 33L56 32L54 32L54 31L55 31L55 30L53 30L53 31L51 31L51 33L52 33L52 34L50 34L50 32L49 32L49 31L48 31L48 28L47 28L47 29L46 29L46 30L47 30L47 31L45 31L45 30L44 30L44 29L45 29L45 28L46 28L46 27L47 27L47 25L49 25L49 24L50 24L50 26L51 26L51 25L52 25L52 26L53 26L53 27L54 27L54 26L53 26L53 23L55 23L55 22L56 22L56 21L55 21L55 20L56 20L56 19L55 19L55 20L53 20L53 19L52 19L52 20L51 20L51 21L49 21L49 22L48 22L48 24L47 24L47 25L45 25L45 22L47 22L47 21L45 21L45 20L44 20L44 18L45 18L45 19L46 19L46 18L47 18L47 19L48 19L48 18L47 18L47 17L50 17L50 19L51 19L51 18L55 18L55 17L53 17L53 15L55 15L55 14L56 14L56 13L55 13L55 12L54 12L54 13L55 13L55 14L53 14L53 15L50 15L50 14L51 14L51 12L50 12L50 11L48 11L48 12L45 12L45 11L46 11L46 10L47 10L47 9L48 9L48 8L47 8L47 7L46 7L46 6L45 6L45 4L46 4L46 5L47 5L47 3L44 3L44 6L43 6L43 5L42 5L42 4L41 4L41 5L40 5L40 6L39 6L39 7L40 7L40 8L39 8L39 9L38 9L38 8L37 8L37 7L36 7L36 5L37 5L37 4L36 4L36 5L35 5L35 4L33 4L33 3ZM18 4L18 6L17 6L17 7L16 7L16 8L17 8L17 7L18 7L18 6L19 6L19 7L20 7L20 5L19 5L19 4ZM32 4L32 5L33 5L33 6L32 6L32 7L33 7L33 9L34 9L34 8L35 8L35 9L37 9L37 10L36 10L36 12L35 12L35 13L36 13L36 14L33 14L33 13L34 13L34 12L33 12L33 10L32 10L32 12L31 12L31 13L30 13L30 14L29 14L29 13L28 13L28 14L29 14L29 16L28 16L28 15L27 15L27 16L28 16L28 17L26 17L26 18L28 18L28 19L27 19L27 20L29 20L29 19L30 19L30 20L31 20L31 21L29 21L29 22L31 22L31 21L32 21L32 20L33 20L33 21L34 21L34 20L35 20L35 23L34 23L34 22L33 22L33 23L32 23L32 24L30 24L30 23L29 23L29 24L30 24L30 25L29 25L29 26L26 26L26 25L25 25L25 24L28 24L28 23L27 23L27 22L28 22L28 21L26 21L26 19L25 19L25 17L22 17L22 16L21 16L21 17L22 17L22 18L21 18L21 21L22 21L22 22L21 22L21 24L18 24L18 23L20 23L20 22L19 22L19 21L20 21L20 16L19 16L19 15L18 15L18 16L16 16L16 17L17 17L17 18L18 18L18 20L17 20L17 19L16 19L16 18L15 18L15 17L14 17L14 16L13 16L13 17L10 17L10 16L9 16L9 15L7 15L7 14L6 14L6 15L7 15L7 16L8 16L8 17L7 17L7 18L6 18L6 19L7 19L7 18L8 18L8 20L6 20L6 21L8 21L8 20L9 20L9 19L10 19L10 20L12 20L12 22L11 22L11 23L13 23L13 26L14 26L14 25L18 25L18 26L17 26L17 27L18 27L18 26L19 26L19 27L20 27L20 26L19 26L19 25L21 25L21 27L22 27L22 26L23 26L23 30L25 30L25 31L21 31L21 30L20 30L20 31L21 31L21 32L25 32L25 33L26 33L26 34L27 34L27 33L26 33L26 32L28 32L28 33L29 33L29 34L30 34L30 36L29 36L29 37L31 37L31 38L29 38L29 39L33 39L33 40L35 40L35 42L37 42L37 43L36 43L36 44L35 44L35 43L34 43L34 42L33 42L33 41L32 41L32 40L31 40L31 41L32 41L32 42L33 42L33 43L34 43L34 45L36 45L36 46L32 46L32 47L34 47L34 48L35 48L35 49L36 49L36 50L38 50L38 51L40 51L40 52L41 52L41 50L38 50L38 49L39 49L39 48L41 48L41 46L43 46L43 45L44 45L44 46L45 46L45 48L46 48L46 49L47 49L47 48L48 48L48 47L49 47L49 46L51 46L51 45L49 45L49 44L48 44L48 45L49 45L49 46L48 46L48 47L47 47L47 46L45 46L45 45L44 45L44 43L46 43L46 42L45 42L45 41L47 41L47 39L50 39L50 38L51 38L51 37L50 37L50 38L47 38L47 39L46 39L46 38L45 38L45 37L44 37L44 36L47 36L47 34L45 34L45 35L44 35L44 33L43 33L43 32L45 32L45 31L44 31L44 30L43 30L43 29L44 29L44 28L45 28L45 26L44 26L44 20L43 20L43 18L44 18L44 15L47 15L47 16L45 16L45 18L46 18L46 17L47 17L47 16L48 16L48 15L49 15L49 16L50 16L50 15L49 15L49 14L50 14L50 12L49 12L49 13L47 13L47 14L44 14L44 15L42 15L42 16L41 16L41 15L39 15L39 14L43 14L43 13L44 13L44 12L43 12L43 13L39 13L39 12L41 12L41 10L42 10L42 11L43 11L43 9L44 9L44 11L45 11L45 9L44 9L44 8L45 8L45 6L44 6L44 8L42 8L42 7L43 7L43 6L42 6L42 5L41 5L41 6L40 6L40 7L41 7L41 9L39 9L39 11L38 11L38 9L37 9L37 8L35 8L35 5L33 5L33 4ZM9 5L9 7L10 7L10 5ZM27 5L27 8L30 8L30 5ZM21 6L21 7L22 7L22 6ZM28 6L28 7L29 7L29 6ZM33 6L33 7L34 7L34 6ZM41 6L41 7L42 7L42 6ZM46 8L46 9L47 9L47 8ZM55 8L55 9L56 9L56 8ZM1 9L1 13L2 13L2 14L3 14L3 13L4 13L4 11L5 11L5 12L7 12L7 11L5 11L5 9L4 9L4 11L3 11L3 13L2 13L2 9ZM6 9L6 10L7 10L7 9ZM21 9L21 10L20 10L20 11L21 11L21 10L22 10L22 9ZM32 12L32 13L31 13L31 14L30 14L30 15L31 15L31 14L32 14L32 13L33 13L33 12ZM52 12L52 13L53 13L53 12ZM38 13L38 14L37 14L37 15L35 15L35 16L31 16L31 18L30 18L30 19L31 19L31 18L35 18L35 19L36 19L36 20L37 20L37 19L39 19L39 17L41 17L41 16L39 16L39 15L38 15L38 14L39 14L39 13ZM35 16L35 17L37 17L37 18L38 18L38 17L39 17L39 16L38 16L38 17L37 17L37 16ZM42 16L42 17L43 17L43 16ZM8 17L8 18L10 18L10 19L11 19L11 18L10 18L10 17ZM13 17L13 18L12 18L12 19L14 19L14 20L13 20L13 21L14 21L14 22L16 22L16 21L17 21L17 20L16 20L16 19L15 19L15 18L14 18L14 17ZM22 18L22 19L24 19L24 18ZM41 18L41 20L39 20L39 21L38 21L38 22L37 22L37 24L39 24L39 25L38 25L38 26L37 26L37 25L33 25L33 24L32 24L32 26L31 26L31 28L32 28L32 29L31 29L31 31L28 31L28 32L29 32L29 33L31 33L31 32L32 32L32 33L33 33L33 34L31 34L31 35L33 35L33 36L32 36L32 37L33 37L33 38L34 38L34 39L35 39L35 40L38 40L38 42L39 42L39 43L41 43L41 44L39 44L39 45L38 45L38 46L39 46L39 47L38 47L38 48L37 48L37 49L38 49L38 48L39 48L39 47L40 47L40 46L39 46L39 45L41 45L41 44L42 44L42 43L41 43L41 41L42 41L42 40L44 40L44 41L43 41L43 43L44 43L44 41L45 41L45 40L44 40L44 39L45 39L45 38L44 38L44 37L43 37L43 38L42 38L42 37L41 37L41 36L40 36L40 37L39 37L39 35L40 35L40 34L39 34L39 33L41 33L41 32L43 32L43 30L41 30L41 31L39 31L39 32L38 32L38 30L39 30L39 29L43 29L43 28L44 28L44 27L43 27L43 26L42 26L42 28L41 28L41 24L40 24L40 22L39 22L39 21L43 21L43 20L42 20L42 18ZM15 20L15 21L16 21L16 20ZM22 20L22 21L24 21L24 22L23 22L23 23L24 23L24 24L25 24L25 23L26 23L26 22L25 22L25 21L24 21L24 20ZM51 21L51 22L50 22L50 24L51 24L51 23L53 23L53 22L54 22L54 21ZM6 22L6 23L5 23L5 24L6 24L6 25L7 25L7 24L6 24L6 23L7 23L7 22ZM41 22L41 23L42 23L42 22ZM14 23L14 24L16 24L16 23ZM21 24L21 25L23 25L23 24ZM11 25L11 26L12 26L12 25ZM55 25L55 26L56 26L56 25ZM15 26L15 27L16 27L16 26ZM24 26L24 27L26 27L26 26ZM32 26L32 27L33 27L33 28L35 28L35 30L32 30L32 31L33 31L33 32L34 32L34 33L35 33L35 34L33 34L33 35L34 35L34 37L35 37L35 39L37 39L37 38L38 38L38 37L37 37L37 36L38 36L38 33L37 33L37 32L34 32L34 31L36 31L36 30L37 30L37 29L38 29L38 28L39 28L39 27L36 27L36 26L34 26L34 27L33 27L33 26ZM5 27L5 30L8 30L8 27ZM27 27L27 30L30 30L30 27ZM35 27L35 28L36 28L36 27ZM49 27L49 30L52 30L52 27ZM6 28L6 29L7 29L7 28ZM16 28L16 29L18 29L18 30L17 30L17 31L19 31L19 29L22 29L22 28L19 28L19 29L18 29L18 28ZM25 28L25 29L26 29L26 28ZM28 28L28 29L29 29L29 28ZM50 28L50 29L51 29L51 28ZM54 28L54 29L55 29L55 28ZM4 31L4 33L3 33L3 35L4 35L4 37L5 37L5 38L8 38L8 39L10 39L10 38L9 38L9 36L8 36L8 37L5 37L5 35L6 35L6 36L7 36L7 35L9 35L9 32L8 32L8 31ZM25 31L25 32L26 32L26 31ZM47 31L47 32L48 32L48 33L49 33L49 32L48 32L48 31ZM6 32L6 33L7 33L7 34L6 34L6 35L7 35L7 34L8 34L8 32ZM52 32L52 33L54 33L54 32ZM4 33L4 35L5 35L5 33ZM21 33L21 34L22 34L22 33ZM35 34L35 36L37 36L37 34ZM42 34L42 35L43 35L43 36L44 36L44 35L43 35L43 34ZM49 34L49 35L50 35L50 36L52 36L52 35L53 35L53 34L52 34L52 35L50 35L50 34ZM14 37L14 38L16 38L16 37ZM26 37L26 38L28 38L28 37ZM40 37L40 38L41 38L41 39L42 39L42 38L41 38L41 37ZM5 39L5 40L7 40L7 39ZM26 39L26 40L28 40L28 39ZM38 39L38 40L40 40L40 39ZM23 40L23 42L22 42L22 41L21 41L21 42L22 42L22 43L21 43L21 44L22 44L22 45L24 45L24 46L25 46L25 45L24 45L24 44L23 44L23 43L25 43L25 41L24 41L24 40ZM29 40L29 41L30 41L30 40ZM26 41L26 42L27 42L27 41ZM39 41L39 42L40 42L40 41ZM51 42L51 43L50 43L50 44L51 44L51 43L53 43L53 42ZM3 44L3 45L2 45L2 46L1 46L1 47L2 47L2 46L3 46L3 47L5 47L5 46L3 46L3 45L4 45L4 44ZM7 44L7 45L6 45L6 46L7 46L7 45L8 45L8 44ZM14 44L14 45L13 45L13 46L14 46L14 47L15 47L15 48L14 48L14 49L15 49L15 48L16 48L16 47L15 47L15 44ZM26 45L26 47L27 47L27 46L28 46L28 45ZM9 47L9 48L10 48L10 50L11 50L11 54L12 54L12 53L13 53L13 51L12 51L12 49L11 49L11 48L12 48L12 47ZM35 47L35 48L36 48L36 47ZM42 47L42 48L43 48L43 47ZM46 47L46 48L47 48L47 47ZM53 48L53 49L54 49L54 48ZM55 48L55 49L56 49L56 48ZM27 49L27 52L30 52L30 49ZM33 49L33 50L34 50L34 49ZM49 49L49 52L52 52L52 49ZM17 50L17 51L19 51L19 52L20 52L20 51L19 51L19 50ZM28 50L28 51L29 51L29 50ZM43 50L43 51L44 51L44 50ZM50 50L50 51L51 51L51 50ZM32 51L32 52L33 52L33 53L34 53L34 52L33 52L33 51ZM45 51L45 52L44 52L44 53L43 53L43 54L44 54L44 53L45 53L45 52L46 52L46 51ZM15 55L15 56L16 56L16 55ZM17 55L17 56L18 56L18 55ZM50 55L50 56L51 56L51 55ZM53 55L53 56L55 56L55 57L56 57L56 56L55 56L55 55ZM46 56L46 57L47 57L47 56ZM0 0L0 7L7 7L7 0ZM1 1L1 6L6 6L6 1ZM2 2L2 5L5 5L5 2ZM50 0L50 7L57 7L57 0ZM51 1L51 6L56 6L56 1ZM52 2L52 5L55 5L55 2ZM0 50L0 57L7 57L7 50ZM1 51L1 56L6 56L6 51ZM2 52L2 55L5 55L5 52Z" fill="#000000"/></g></g></svg>
