<?xml version="1.0" encoding="UTF-8"?>
<svg xmlns="http://www.w3.org/2000/svg" version="1.1" width="300" height="300" viewBox="0 0 300 300"><rect x="0" y="0" width="300" height="300" fill="#fefefe"/><g transform="scale(4.615)"><g transform="translate(4,4)"><path fill-rule="evenodd" d="M11 0L11 1L12 1L12 2L13 2L13 3L12 3L12 5L13 5L13 6L12 6L12 7L13 7L13 6L14 6L14 7L15 7L15 8L16 8L16 9L15 9L15 10L13 10L13 9L14 9L14 8L13 8L13 9L12 9L12 8L11 8L11 11L12 11L12 12L11 12L11 13L10 13L10 10L8 10L8 11L9 11L9 13L8 13L8 12L5 12L5 11L4 11L4 10L6 10L6 11L7 11L7 10L6 10L6 9L10 9L10 8L6 8L6 9L5 9L5 8L0 8L0 10L2 10L2 11L0 11L0 13L1 13L1 14L0 14L0 15L1 15L1 16L0 16L0 18L4 18L4 19L1 19L1 20L0 20L0 21L1 21L1 22L3 22L3 23L4 23L4 25L3 25L3 26L2 26L2 27L1 27L1 31L0 31L0 33L1 33L1 32L2 32L2 34L0 34L0 37L1 37L1 38L2 38L2 39L0 39L0 40L1 40L1 41L0 41L0 42L1 42L1 41L2 41L2 43L0 43L0 48L5 48L5 47L7 47L7 46L5 46L5 45L3 45L3 44L5 44L5 43L7 43L7 44L6 44L6 45L8 45L8 46L9 46L9 47L10 47L10 48L9 48L9 49L8 49L8 51L10 51L10 54L9 54L9 52L8 52L8 57L9 57L9 55L11 55L11 56L12 56L12 55L16 55L16 56L14 56L14 57L16 57L16 56L17 56L17 57L20 57L20 56L19 56L19 55L20 55L20 54L19 54L19 53L20 53L20 52L21 52L21 51L22 51L22 52L23 52L23 51L22 51L22 50L26 50L26 52L24 52L24 53L23 53L23 54L22 54L22 53L21 53L21 55L23 55L23 57L26 57L26 56L27 56L27 57L29 57L29 56L30 56L30 57L31 57L31 56L35 56L35 57L39 57L39 56L37 56L37 55L41 55L41 57L44 57L44 56L45 56L45 57L47 57L47 56L50 56L50 57L52 57L52 55L51 55L51 53L52 53L52 54L53 54L53 55L54 55L54 56L53 56L53 57L54 57L54 56L55 56L55 57L56 57L56 56L55 56L55 54L53 54L53 52L54 52L54 53L55 53L55 51L56 51L56 53L57 53L57 51L56 51L56 50L55 50L55 48L56 48L56 49L57 49L57 48L56 48L56 46L57 46L57 43L56 43L56 42L57 42L57 41L56 41L56 42L55 42L55 39L57 39L57 37L56 37L56 36L57 36L57 35L53 35L53 34L52 34L52 33L53 33L53 32L54 32L54 34L57 34L57 32L56 32L56 30L57 30L57 29L56 29L56 28L57 28L57 27L55 27L55 26L57 26L57 25L56 25L56 22L57 22L57 20L56 20L56 18L57 18L57 17L56 17L56 16L57 16L57 15L56 15L56 14L57 14L57 13L56 13L56 14L55 14L55 15L53 15L53 13L54 13L54 12L55 12L55 11L56 11L56 10L54 10L54 11L52 11L52 10L51 10L51 11L50 11L50 8L49 8L49 6L48 6L48 7L47 7L47 5L48 5L48 0L45 0L45 2L44 2L44 3L43 3L43 4L42 4L42 5L41 5L41 4L40 4L40 5L39 5L39 6L38 6L38 7L37 7L37 5L38 5L38 4L39 4L39 3L42 3L42 2L43 2L43 0L41 0L41 1L40 1L40 0L39 0L39 1L38 1L38 0L37 0L37 1L38 1L38 2L37 2L37 3L36 3L36 0L35 0L35 1L33 1L33 2L32 2L32 1L31 1L31 0L27 0L27 1L26 1L26 0L23 0L23 1L22 1L22 0L21 0L21 1L20 1L20 0L19 0L19 1L18 1L18 0L17 0L17 2L15 2L15 1L14 1L14 0L13 0L13 1L12 1L12 0ZM8 1L8 2L10 2L10 3L8 3L8 4L9 4L9 5L8 5L8 7L9 7L9 5L11 5L11 2L10 2L10 1ZM13 1L13 2L14 2L14 4L13 4L13 5L14 5L14 6L15 6L15 7L16 7L16 8L17 8L17 9L16 9L16 10L15 10L15 11L16 11L16 12L15 12L15 13L11 13L11 14L12 14L12 15L10 15L10 17L11 17L11 16L12 16L12 15L13 15L13 14L15 14L15 13L16 13L16 16L20 16L20 18L21 18L21 19L22 19L22 20L20 20L20 21L18 21L18 22L17 22L17 24L16 24L16 23L15 23L15 22L16 22L16 21L17 21L17 20L16 20L16 21L15 21L15 19L17 19L17 17L15 17L15 15L14 15L14 17L13 17L13 18L9 18L9 19L8 19L8 18L7 18L7 17L6 17L6 16L8 16L8 15L9 15L9 14L8 14L8 13L5 13L5 12L4 12L4 11L2 11L2 12L1 12L1 13L2 13L2 12L4 12L4 13L5 13L5 14L4 14L4 15L5 15L5 14L8 14L8 15L6 15L6 16L4 16L4 17L5 17L5 19L4 19L4 20L1 20L1 21L5 21L5 20L7 20L7 21L6 21L6 22L5 22L5 23L6 23L6 24L7 24L7 23L8 23L8 26L9 26L9 28L10 28L10 27L11 27L11 29L12 29L12 30L10 30L10 29L9 29L9 30L10 30L10 32L7 32L7 31L6 31L6 32L7 32L7 33L3 33L3 34L2 34L2 38L3 38L3 40L4 40L4 41L6 41L6 42L7 42L7 43L8 43L8 44L9 44L9 45L13 45L13 46L12 46L12 47L13 47L13 49L12 49L12 48L11 48L11 49L10 49L10 50L11 50L11 51L12 51L12 54L13 54L13 53L14 53L14 50L15 50L15 51L16 51L16 53L15 53L15 54L16 54L16 53L17 53L17 50L19 50L19 49L20 49L20 50L21 50L21 49L23 49L23 47L24 47L24 49L25 49L25 47L26 47L26 48L30 48L30 47L29 47L29 45L30 45L30 44L29 44L29 45L28 45L28 43L29 43L29 41L30 41L30 40L32 40L32 41L31 41L31 42L32 42L32 43L31 43L31 44L32 44L32 45L31 45L31 46L32 46L32 45L33 45L33 46L35 46L35 48L36 48L36 46L37 46L37 45L36 45L36 46L35 46L35 45L34 45L34 43L37 43L37 42L35 42L35 40L38 40L38 42L39 42L39 43L40 43L40 44L39 44L39 45L38 45L38 46L39 46L39 47L38 47L38 48L37 48L37 49L38 49L38 50L36 50L36 49L34 49L34 48L32 48L32 49L31 49L31 50L36 50L36 52L38 52L38 53L37 53L37 54L40 54L40 53L42 53L42 50L41 50L41 48L42 48L42 49L43 49L43 48L44 48L44 49L45 49L45 50L44 50L44 51L45 51L45 52L44 52L44 53L43 53L43 54L44 54L44 55L42 55L42 54L41 54L41 55L42 55L42 56L44 56L44 55L47 55L47 53L48 53L48 50L47 50L47 49L48 49L48 48L50 48L50 47L52 47L52 48L53 48L53 49L54 49L54 48L53 48L53 47L54 47L54 46L56 46L56 43L55 43L55 44L54 44L54 45L52 45L52 44L53 44L53 43L54 43L54 42L53 42L53 41L54 41L54 40L53 40L53 35L52 35L52 34L50 34L50 32L49 32L49 31L48 31L48 29L46 29L46 30L47 30L47 31L48 31L48 32L43 32L43 31L44 31L44 30L41 30L41 29L45 29L45 28L46 28L46 27L47 27L47 25L48 25L48 24L51 24L51 25L49 25L49 26L53 26L53 27L54 27L54 26L53 26L53 25L54 25L54 24L51 24L51 23L50 23L50 22L51 22L51 21L54 21L54 22L53 22L53 23L55 23L55 22L56 22L56 20L53 20L53 19L52 19L52 18L55 18L55 17L53 17L53 16L51 16L51 17L50 17L50 14L51 14L51 12L50 12L50 11L49 11L49 12L45 12L45 11L46 11L46 10L47 10L47 9L46 9L46 8L47 8L47 7L46 7L46 6L45 6L45 4L46 4L46 5L47 5L47 3L44 3L44 6L43 6L43 5L42 5L42 6L41 6L41 5L40 5L40 6L39 6L39 7L40 7L40 8L39 8L39 9L38 9L38 11L39 11L39 13L38 13L38 14L36 14L36 15L35 15L35 16L33 16L33 15L31 15L31 14L30 14L30 13L32 13L32 14L35 14L35 11L36 11L36 10L37 10L37 9L35 9L35 8L37 8L37 7L36 7L36 5L37 5L37 4L36 4L36 5L35 5L35 4L33 4L33 3L32 3L32 2L31 2L31 1L28 1L28 3L27 3L27 2L26 2L26 1L25 1L25 2L22 2L22 1L21 1L21 2L17 2L17 3L15 3L15 2L14 2L14 1ZM46 1L46 2L47 2L47 1ZM30 2L30 3L31 3L31 4L26 4L26 3L23 3L23 4L19 4L19 3L17 3L17 4L18 4L18 5L17 5L17 6L16 6L16 7L17 7L17 6L18 6L18 7L19 7L19 8L18 8L18 9L17 9L17 10L18 10L18 11L17 11L17 12L16 12L16 13L17 13L17 14L19 14L19 15L20 15L20 16L21 16L21 17L22 17L22 19L23 19L23 20L24 20L24 21L22 21L22 22L21 22L21 24L17 24L17 25L18 25L18 26L17 26L17 27L18 27L18 26L19 26L19 28L20 28L20 29L18 29L18 28L16 28L16 29L15 29L15 27L16 27L16 26L15 26L15 27L12 27L12 29L13 29L13 30L12 30L12 31L13 31L13 32L11 32L11 33L10 33L10 34L9 34L9 33L8 33L8 34L6 34L6 35L5 35L5 34L3 34L3 38L4 38L4 39L7 39L7 40L6 40L6 41L8 41L8 42L9 42L9 43L10 43L10 44L14 44L14 46L13 46L13 47L14 47L14 46L15 46L15 48L14 48L14 49L15 49L15 48L16 48L16 49L19 49L19 48L20 48L20 47L23 47L23 46L25 46L25 45L24 45L24 44L27 44L27 43L24 43L24 44L23 44L23 42L25 42L25 41L23 41L23 42L22 42L22 43L21 43L21 42L20 42L20 40L21 40L21 39L22 39L22 40L23 40L23 39L24 39L24 40L25 40L25 36L26 36L26 35L27 35L27 33L26 33L26 34L25 34L25 33L23 33L23 34L24 34L24 36L23 36L23 35L22 35L22 36L23 36L23 37L24 37L24 38L21 38L21 37L19 37L19 36L20 36L20 35L21 35L21 34L22 34L22 33L21 33L21 34L20 34L20 33L19 33L19 32L20 32L20 31L21 31L21 32L23 32L23 31L24 31L24 32L28 32L28 33L29 33L29 34L30 34L30 36L29 36L29 37L31 37L31 38L29 38L29 39L33 39L33 40L35 40L35 39L38 39L38 40L39 40L39 39L38 39L38 37L40 37L40 38L41 38L41 39L42 39L42 38L43 38L43 37L44 37L44 38L45 38L45 39L43 39L43 40L42 40L42 41L40 41L40 42L42 42L42 44L41 44L41 46L40 46L40 47L39 47L39 48L38 48L38 49L39 49L39 48L41 48L41 46L43 46L43 47L42 47L42 48L43 48L43 47L44 47L44 48L45 48L45 49L46 49L46 48L45 48L45 47L47 47L47 48L48 48L48 47L50 47L50 45L51 45L51 46L52 46L52 45L51 45L51 43L53 43L53 42L51 42L51 41L53 41L53 40L51 40L51 39L50 39L50 36L51 36L51 37L52 37L52 35L50 35L50 34L49 34L49 35L50 35L50 36L49 36L49 37L48 37L48 38L47 38L47 39L46 39L46 38L45 38L45 37L44 37L44 36L46 36L46 37L47 37L47 34L45 34L45 33L43 33L43 32L41 32L41 33L39 33L39 34L40 34L40 35L38 35L38 33L37 33L37 32L35 32L35 30L37 30L37 29L38 29L38 28L40 28L40 27L41 27L41 28L42 28L42 27L41 27L41 26L43 26L43 25L44 25L44 27L43 27L43 28L45 28L45 27L46 27L46 26L45 26L45 25L44 25L44 24L42 24L42 25L41 25L41 26L39 26L39 27L37 27L37 28L35 28L35 27L36 27L36 26L34 26L34 27L33 27L33 26L32 26L32 24L33 24L33 25L37 25L37 26L38 26L38 25L39 25L39 24L37 24L37 23L39 23L39 22L40 22L40 24L41 24L41 23L44 23L44 20L45 20L45 21L47 21L47 22L45 22L45 24L47 24L47 22L49 22L49 21L51 21L51 20L52 20L52 19L50 19L50 17L47 17L47 16L48 16L48 15L49 15L49 14L50 14L50 12L49 12L49 13L47 13L47 14L45 14L45 13L44 13L44 12L43 12L43 13L41 13L41 14L38 14L38 15L39 15L39 16L38 16L38 17L37 17L37 16L35 16L35 17L37 17L37 18L38 18L38 17L39 17L39 19L37 19L37 20L36 20L36 19L34 19L34 20L33 20L33 19L32 19L32 18L31 18L31 17L32 17L32 16L31 16L31 15L30 15L30 14L29 14L29 13L28 13L28 12L29 12L29 11L31 11L31 12L33 12L33 13L34 13L34 12L33 12L33 10L32 10L32 8L31 8L31 4L32 4L32 5L33 5L33 6L32 6L32 7L33 7L33 9L34 9L34 8L35 8L35 5L33 5L33 4L32 4L32 3L31 3L31 2ZM34 2L34 3L35 3L35 2ZM38 2L38 3L39 3L39 2ZM15 4L15 5L16 5L16 4ZM23 4L23 5L22 5L22 6L21 6L21 7L22 7L22 6L23 6L23 8L19 8L19 9L18 9L18 10L19 10L19 12L20 12L20 14L21 14L21 13L22 13L22 14L23 14L23 13L26 13L26 14L24 14L24 15L21 15L21 16L22 16L22 17L25 17L25 18L26 18L26 17L28 17L28 16L29 16L29 14L28 14L28 13L26 13L26 12L27 12L27 11L26 11L26 12L25 12L25 10L24 10L24 9L25 9L25 8L26 8L26 4L25 4L25 8L24 8L24 6L23 6L23 5L24 5L24 4ZM18 5L18 6L19 6L19 7L20 7L20 5ZM27 5L27 8L30 8L30 5ZM10 6L10 7L11 7L11 6ZM28 6L28 7L29 7L29 6ZM33 6L33 7L34 7L34 6ZM40 6L40 7L41 7L41 8L42 8L42 9L41 9L41 10L39 10L39 11L40 11L40 12L41 12L41 10L43 10L43 11L45 11L45 10L44 10L44 8L43 8L43 6L42 6L42 7L41 7L41 6ZM44 6L44 7L45 7L45 8L46 8L46 7L45 7L45 6ZM23 8L23 9L24 9L24 8ZM51 8L51 9L52 9L52 8ZM53 8L53 9L54 9L54 8ZM55 8L55 9L56 9L56 8ZM3 9L3 10L4 10L4 9ZM19 9L19 10L20 10L20 12L22 12L22 13L23 13L23 12L24 12L24 11L23 11L23 10L22 10L22 11L21 11L21 10L20 10L20 9ZM12 10L12 11L13 11L13 12L14 12L14 11L13 11L13 10ZM28 10L28 11L29 11L29 10ZM31 10L31 11L32 11L32 10ZM17 12L17 13L18 13L18 12ZM52 12L52 13L53 13L53 12ZM43 13L43 14L41 14L41 16L39 16L39 17L41 17L41 16L42 16L42 17L43 17L43 16L42 16L42 15L44 15L44 18L43 18L43 20L42 20L42 18L41 18L41 20L38 20L38 22L39 22L39 21L43 21L43 20L44 20L44 18L45 18L45 19L46 19L46 20L47 20L47 19L48 19L48 18L47 18L47 17L45 17L45 16L47 16L47 15L45 15L45 14L44 14L44 13ZM1 14L1 15L2 15L2 14ZM24 15L24 16L25 16L25 17L26 17L26 15ZM27 15L27 16L28 16L28 15ZM1 16L1 17L2 17L2 16ZM14 17L14 18L15 18L15 17ZM6 18L6 19L7 19L7 20L8 20L8 19L7 19L7 18ZM23 18L23 19L24 19L24 18ZM27 18L27 19L26 19L26 21L29 21L29 22L30 22L30 23L31 23L31 24L32 24L32 23L33 23L33 22L34 22L34 23L35 23L35 20L34 20L34 21L33 21L33 20L32 20L32 21L31 21L31 22L30 22L30 20L31 20L31 18L30 18L30 20L29 20L29 19L28 19L28 18ZM9 19L9 21L8 21L8 23L9 23L9 24L12 24L12 25L11 25L11 26L13 26L13 24L14 24L14 23L13 23L13 24L12 24L12 23L9 23L9 21L11 21L11 22L14 22L14 21L13 21L13 20L14 20L14 19L13 19L13 20L12 20L12 21L11 21L11 20L10 20L10 19ZM18 19L18 20L19 20L19 19ZM27 19L27 20L28 20L28 19ZM24 21L24 22L22 22L22 23L24 23L24 24L21 24L21 25L20 25L20 28L22 28L22 29L20 29L20 30L18 30L18 29L16 29L16 30L17 30L17 32L19 32L19 31L20 31L20 30L21 30L21 31L23 31L23 29L26 29L26 28L25 28L25 27L26 27L26 26L30 26L30 25L29 25L29 23L28 23L28 24L25 24L25 23L26 23L26 22L25 22L25 21ZM6 22L6 23L7 23L7 22ZM18 22L18 23L20 23L20 22ZM0 23L0 26L1 26L1 24L2 24L2 23ZM24 24L24 25L21 25L21 27L22 27L22 26L23 26L23 27L25 27L25 26L26 26L26 25L25 25L25 24ZM4 25L4 26L5 26L5 25ZM6 25L6 26L7 26L7 25ZM31 26L31 28L32 28L32 30L35 30L35 28L33 28L33 27L32 27L32 26ZM3 27L3 31L2 31L2 32L3 32L3 31L4 31L4 27ZM5 27L5 30L8 30L8 27ZM27 27L27 30L30 30L30 27ZM49 27L49 30L52 30L52 27ZM6 28L6 29L7 29L7 28ZM13 28L13 29L14 29L14 28ZM28 28L28 29L29 29L29 28ZM50 28L50 29L51 29L51 28ZM54 28L54 29L53 29L53 30L54 30L54 31L55 31L55 30L54 30L54 29L55 29L55 28ZM39 29L39 30L38 30L38 32L39 32L39 30L40 30L40 29ZM13 30L13 31L14 31L14 30ZM24 30L24 31L25 31L25 30ZM28 31L28 32L29 32L29 33L31 33L31 31L30 31L30 32L29 32L29 31ZM32 31L32 35L33 35L33 36L32 36L32 37L33 37L33 38L34 38L34 39L35 39L35 37L34 37L34 35L33 35L33 34L35 34L35 36L37 36L37 37L38 37L38 35L37 35L37 34L35 34L35 33L33 33L33 31ZM51 31L51 33L52 33L52 32L53 32L53 31ZM13 32L13 33L14 33L14 32ZM15 32L15 33L16 33L16 34L15 34L15 35L14 35L14 36L13 36L13 35L12 35L12 36L13 36L13 37L10 37L10 36L9 36L9 37L8 37L8 36L7 36L7 35L6 35L6 36L7 36L7 37L4 37L4 38L9 38L9 39L8 39L8 41L9 41L9 42L10 42L10 43L12 43L12 42L13 42L13 43L14 43L14 44L15 44L15 46L17 46L17 48L18 48L18 46L17 46L17 45L18 45L18 44L17 44L17 45L16 45L16 43L18 43L18 42L19 42L19 41L17 41L17 40L19 40L19 39L20 39L20 38L19 38L19 39L17 39L17 38L18 38L18 37L17 37L17 36L18 36L18 34L19 34L19 35L20 35L20 34L19 34L19 33L18 33L18 34L17 34L17 33L16 33L16 32ZM48 32L48 33L49 33L49 32ZM55 32L55 33L56 33L56 32ZM8 34L8 35L9 35L9 34ZM42 34L42 35L41 35L41 36L40 36L40 37L41 37L41 38L42 38L42 37L41 37L41 36L42 36L42 35L43 35L43 36L44 36L44 35L45 35L45 34ZM4 35L4 36L5 36L5 35ZM15 35L15 36L17 36L17 35ZM14 37L14 39L12 39L12 40L13 40L13 42L14 42L14 43L15 43L15 42L14 42L14 41L16 41L16 39L15 39L15 38L16 38L16 37ZM26 37L26 40L27 40L27 41L26 41L26 42L27 42L27 41L29 41L29 40L28 40L28 39L27 39L27 38L28 38L28 37ZM48 38L48 39L47 39L47 41L45 41L45 40L46 40L46 39L45 39L45 40L44 40L44 41L45 41L45 42L43 42L43 44L44 44L44 45L43 45L43 46L44 46L44 47L45 47L45 46L47 46L47 45L48 45L48 46L49 46L49 45L50 45L50 43L51 43L51 42L50 42L50 43L49 43L49 42L48 42L48 41L49 41L49 38ZM54 38L54 39L55 39L55 38ZM9 39L9 41L10 41L10 42L11 42L11 41L10 41L10 39ZM32 41L32 42L33 42L33 43L32 43L32 44L33 44L33 43L34 43L34 42L33 42L33 41ZM4 42L4 43L5 43L5 42ZM46 42L46 44L45 44L45 43L44 43L44 44L45 44L45 45L47 45L47 43L48 43L48 42ZM2 43L2 44L3 44L3 43ZM20 43L20 46L19 46L19 47L20 47L20 46L21 46L21 45L22 45L22 46L23 46L23 45L22 45L22 44L21 44L21 43ZM48 44L48 45L49 45L49 44ZM1 45L1 47L2 47L2 45ZM26 45L26 47L28 47L28 45ZM3 46L3 47L5 47L5 46ZM10 46L10 47L11 47L11 46ZM6 48L6 49L7 49L7 48ZM11 49L11 50L12 50L12 51L13 51L13 50L12 50L12 49ZM27 49L27 52L30 52L30 49ZM49 49L49 52L52 52L52 49ZM28 50L28 51L29 51L29 50ZM38 50L38 52L39 52L39 51L40 51L40 52L41 52L41 50ZM45 50L45 51L46 51L46 52L47 52L47 51L46 51L46 50ZM50 50L50 51L51 51L51 50ZM54 50L54 51L55 51L55 50ZM19 51L19 52L20 52L20 51ZM31 51L31 53L30 53L30 54L27 54L27 53L24 53L24 54L23 54L23 55L24 55L24 56L25 56L25 54L26 54L26 55L27 55L27 56L29 56L29 55L30 55L30 56L31 56L31 54L32 54L32 53L33 53L33 54L34 54L34 55L35 55L35 56L36 56L36 54L35 54L35 51L33 51L33 52L32 52L32 51ZM33 52L33 53L34 53L34 52ZM44 53L44 54L45 54L45 53ZM17 54L17 55L19 55L19 54ZM50 55L50 56L51 56L51 55ZM0 0L0 7L7 7L7 0ZM1 1L1 6L6 6L6 1ZM2 2L2 5L5 5L5 2ZM50 0L50 7L57 7L57 0ZM51 1L51 6L56 6L56 1ZM52 2L52 5L55 5L55 2ZM0 50L0 57L7 57L7 50ZM1 51L1 56L6 56L6 51ZM2 52L2 55L5 55L5 52Z" fill="#000000"/></g></g></svg>
