<?xml version="1.0" encoding="UTF-8"?>
<svg xmlns="http://www.w3.org/2000/svg" version="1.1" width="300" height="300" viewBox="0 0 300 300"><rect x="0" y="0" width="300" height="300" fill="#fefefe"/><g transform="scale(4.615)"><g transform="translate(4,4)"><path fill-rule="evenodd" d="M8 0L8 4L11 4L11 6L10 6L10 7L9 7L9 5L8 5L8 7L9 7L9 9L8 9L8 10L6 10L6 11L7 11L7 12L5 12L5 10L4 10L4 9L7 9L7 8L4 8L4 9L3 9L3 10L2 10L2 8L0 8L0 11L1 11L1 13L2 13L2 11L3 11L3 12L5 12L5 13L3 13L3 14L1 14L1 15L0 15L0 16L1 16L1 15L8 15L8 16L4 16L4 17L3 17L3 16L2 16L2 17L1 17L1 18L3 18L3 19L7 19L7 18L5 18L5 17L8 17L8 18L9 18L9 19L8 19L8 20L5 20L5 21L4 21L4 22L5 22L5 23L7 23L7 22L5 22L5 21L8 21L8 24L12 24L12 23L9 23L9 21L10 21L10 22L11 22L11 21L12 21L12 20L13 20L13 21L14 21L14 22L13 22L13 25L15 25L15 26L14 26L14 27L12 27L12 30L11 30L11 28L9 28L9 25L7 25L7 24L6 24L6 25L5 25L5 24L4 24L4 25L3 25L3 26L4 26L4 27L3 27L3 28L4 28L4 29L3 29L3 30L1 30L1 32L0 32L0 33L2 33L2 35L0 35L0 40L1 40L1 41L0 41L0 44L1 44L1 45L3 45L3 43L2 43L2 40L1 40L1 37L2 37L2 39L3 39L3 37L4 37L4 36L5 36L5 37L8 37L8 42L9 42L9 41L10 41L10 42L11 42L11 41L13 41L13 42L12 42L12 43L13 43L13 42L14 42L14 44L11 44L11 45L10 45L10 44L9 44L9 43L8 43L8 44L9 44L9 45L10 45L10 46L9 46L9 47L11 47L11 48L13 48L13 50L11 50L11 51L12 51L12 52L17 52L17 53L15 53L15 55L16 55L16 54L18 54L18 55L17 55L17 57L22 57L22 56L18 56L18 55L20 55L20 54L21 54L21 53L22 53L22 54L23 54L23 55L24 55L24 56L23 56L23 57L25 57L25 56L26 56L26 57L27 57L27 55L26 55L26 53L28 53L28 57L29 57L29 55L30 55L30 57L34 57L34 53L33 53L33 51L34 51L34 52L35 52L35 57L37 57L37 56L36 56L36 54L37 54L37 55L39 55L39 57L40 57L40 54L41 54L41 55L42 55L42 56L41 56L41 57L43 57L43 55L44 55L44 53L45 53L45 55L46 55L46 56L44 56L44 57L50 57L50 55L51 55L51 56L53 56L53 57L54 57L54 56L53 56L53 50L54 50L54 51L56 51L56 52L57 52L57 51L56 51L56 50L57 50L57 49L56 49L56 45L57 45L57 43L56 43L56 42L57 42L57 40L54 40L54 41L53 41L53 40L52 40L52 36L53 36L53 37L55 37L55 36L53 36L53 35L56 35L56 37L57 37L57 35L56 35L56 34L57 34L57 33L56 33L56 30L55 30L55 29L56 29L56 27L55 27L55 29L54 29L54 28L53 28L53 27L54 27L54 26L55 26L55 25L53 25L53 26L52 26L52 22L53 22L53 21L52 21L52 20L53 20L53 19L52 19L52 14L54 14L54 15L55 15L55 16L53 16L53 17L55 17L55 19L56 19L56 21L55 21L55 24L56 24L56 25L57 25L57 24L56 24L56 21L57 21L57 19L56 19L56 18L57 18L57 15L56 15L56 13L57 13L57 12L56 12L56 10L57 10L57 8L53 8L53 9L52 9L52 8L51 8L51 9L49 9L49 6L48 6L48 8L46 8L46 7L47 7L47 5L48 5L48 0L46 0L46 1L45 1L45 0L41 0L41 1L40 1L40 2L39 2L39 3L38 3L38 5L36 5L36 4L35 4L35 3L34 3L34 4L35 4L35 5L32 5L32 3L33 3L33 2L32 2L32 0L29 0L29 1L30 1L30 2L32 2L32 3L30 3L30 4L29 4L29 2L28 2L28 0L23 0L23 2L22 2L22 1L21 1L21 0L20 0L20 1L21 1L21 3L22 3L22 4L21 4L21 5L22 5L22 7L21 7L21 6L20 6L20 5L19 5L19 6L18 6L18 4L17 4L17 3L16 3L16 0ZM33 0L33 1L34 1L34 2L36 2L36 3L37 3L37 2L38 2L38 1L39 1L39 0L38 0L38 1L37 1L37 2L36 2L36 0L35 0L35 1L34 1L34 0ZM9 1L9 2L10 2L10 3L11 3L11 1ZM14 1L14 4L15 4L15 5L16 5L16 6L15 6L15 7L16 7L16 6L17 6L17 7L18 7L18 6L17 6L17 4L16 4L16 3L15 3L15 1ZM18 1L18 2L19 2L19 1ZM25 1L25 3L23 3L23 4L22 4L22 5L24 5L24 4L25 4L25 3L26 3L26 4L28 4L28 3L27 3L27 1ZM46 1L46 2L47 2L47 1ZM12 2L12 5L13 5L13 2ZM40 2L40 3L39 3L39 4L40 4L40 3L41 3L41 4L42 4L42 2ZM43 2L43 3L44 3L44 4L43 4L43 7L44 7L44 4L45 4L45 7L46 7L46 5L47 5L47 3L44 3L44 2ZM27 5L27 8L30 8L30 5ZM35 5L35 7L34 7L34 6L33 6L33 7L32 7L32 6L31 6L31 10L29 10L29 9L26 9L26 6L25 6L25 7L24 7L24 6L23 6L23 7L22 7L22 9L21 9L21 10L20 10L20 9L19 9L19 10L18 10L18 9L15 9L15 11L16 11L16 12L17 12L17 13L15 13L15 12L14 12L14 11L13 11L13 9L14 9L14 8L13 8L13 9L12 9L12 6L11 6L11 7L10 7L10 8L11 8L11 9L12 9L12 12L13 12L13 13L10 13L10 14L9 14L9 16L8 16L8 17L9 17L9 18L10 18L10 17L11 17L11 19L10 19L10 21L11 21L11 20L12 20L12 19L14 19L14 20L15 20L15 21L17 21L17 22L16 22L16 23L15 23L15 22L14 22L14 23L15 23L15 25L16 25L16 26L17 26L17 27L18 27L18 26L17 26L17 23L18 23L18 24L20 24L20 25L19 25L19 28L18 28L18 29L15 29L15 30L18 30L18 29L19 29L19 31L18 31L18 32L17 32L17 33L16 33L16 31L15 31L15 33L14 33L14 32L13 32L13 33L12 33L12 31L11 31L11 30L10 30L10 31L9 31L9 32L8 32L8 31L6 31L6 32L7 32L7 33L4 33L4 32L3 32L3 31L4 31L4 30L3 30L3 31L2 31L2 33L3 33L3 35L5 35L5 36L11 36L11 33L12 33L12 34L13 34L13 35L12 35L12 36L13 36L13 37L11 37L11 38L10 38L10 41L11 41L11 39L12 39L12 38L13 38L13 40L14 40L14 42L15 42L15 44L14 44L14 45L11 45L11 47L12 47L12 46L14 46L14 45L15 45L15 44L16 44L16 46L15 46L15 47L13 47L13 48L14 48L14 49L16 49L16 50L13 50L13 51L18 51L18 52L19 52L19 53L20 53L20 52L19 52L19 50L20 50L20 51L21 51L21 52L22 52L22 53L24 53L24 54L25 54L25 53L26 53L26 50L25 50L25 53L24 53L24 52L22 52L22 51L23 51L23 50L22 50L22 49L23 49L23 48L24 48L24 49L25 49L25 48L27 48L27 47L26 47L26 46L28 46L28 48L29 48L29 47L30 47L30 48L31 48L31 49L32 49L32 48L33 48L33 47L32 47L32 46L33 46L33 45L31 45L31 46L29 46L29 45L30 45L30 44L31 44L31 41L32 41L32 43L33 43L33 44L35 44L35 43L33 43L33 41L32 41L32 40L33 40L33 39L31 39L31 38L33 38L33 37L34 37L34 38L35 38L35 39L34 39L34 42L35 42L35 39L37 39L37 42L38 42L38 37L37 37L37 38L35 38L35 37L34 37L34 36L35 36L35 33L34 33L34 32L35 32L35 31L36 31L36 30L37 30L37 32L38 32L38 30L37 30L37 29L38 29L38 28L37 28L37 27L41 27L41 28L40 28L40 29L39 29L39 32L40 32L40 33L39 33L39 34L38 34L38 33L37 33L37 34L38 34L38 36L39 36L39 37L41 37L41 35L42 35L42 36L43 36L43 37L44 37L44 38L43 38L43 39L45 39L45 40L47 40L47 41L46 41L46 42L44 42L44 41L43 41L43 42L42 42L42 44L43 44L43 45L44 45L44 44L45 44L45 45L46 45L46 47L45 47L45 46L44 46L44 47L42 47L42 49L44 49L44 50L45 50L45 49L46 49L46 51L45 51L45 52L46 52L46 54L47 54L47 56L49 56L49 54L51 54L51 55L52 55L52 54L51 54L51 53L49 53L49 54L48 54L48 52L47 52L47 49L48 49L48 47L49 47L49 48L50 48L50 47L51 47L51 48L52 48L52 47L53 47L53 48L55 48L55 47L54 47L54 45L56 45L56 44L55 44L55 42L54 42L54 43L53 43L53 41L52 41L52 40L47 40L47 39L48 39L48 38L49 38L49 39L51 39L51 38L50 38L50 35L53 35L53 34L54 34L54 33L55 33L55 34L56 34L56 33L55 33L55 31L54 31L54 33L51 33L51 31L50 31L50 35L49 35L49 36L47 36L47 35L46 35L46 34L49 34L49 33L48 33L48 31L47 31L47 29L48 29L48 28L47 28L47 27L48 27L48 26L47 26L47 25L49 25L49 26L50 26L50 25L49 25L49 24L51 24L51 23L50 23L50 22L47 22L47 21L51 21L51 22L52 22L52 21L51 21L51 20L49 20L49 19L51 19L51 18L50 18L50 16L49 16L49 19L48 19L48 18L47 18L47 17L48 17L48 15L50 15L50 11L49 11L49 12L48 12L48 11L47 11L47 9L46 9L46 8L45 8L45 9L46 9L46 15L47 15L47 17L46 17L46 16L45 16L45 15L44 15L44 12L45 12L45 11L43 11L43 12L41 12L41 11L40 11L40 10L38 10L38 9L39 9L39 8L38 8L38 9L35 9L35 7L36 7L36 5ZM39 5L39 7L40 7L40 6L41 6L41 7L42 7L42 6L41 6L41 5ZM13 6L13 7L14 7L14 6ZM19 6L19 7L20 7L20 6ZM28 6L28 7L29 7L29 6ZM37 6L37 7L38 7L38 6ZM23 7L23 8L24 8L24 7ZM33 7L33 8L32 8L32 11L29 11L29 12L32 12L32 15L31 15L31 13L30 13L30 15L31 15L31 16L29 16L29 13L26 13L26 11L27 11L27 12L28 12L28 10L25 10L25 9L23 9L23 12L22 12L22 11L20 11L20 10L19 10L19 12L18 12L18 13L17 13L17 14L15 14L15 13L13 13L13 14L12 14L12 16L14 16L14 17L13 17L13 18L15 18L15 20L16 20L16 19L17 19L17 21L19 21L19 23L20 23L20 22L21 22L21 25L20 25L20 28L19 28L19 29L20 29L20 32L21 32L21 33L20 33L20 34L18 34L18 33L19 33L19 32L18 32L18 33L17 33L17 34L16 34L16 33L15 33L15 34L14 34L14 33L13 33L13 34L14 34L14 35L13 35L13 36L15 36L15 37L14 37L14 38L15 38L15 37L16 37L16 36L15 36L15 34L16 34L16 35L17 35L17 36L18 36L18 37L17 37L17 38L16 38L16 39L14 39L14 40L17 40L17 41L20 41L20 42L21 42L21 41L22 41L22 40L23 40L23 41L24 41L24 42L26 42L26 41L27 41L27 42L28 42L28 43L29 43L29 42L28 42L28 41L31 41L31 39L29 39L29 38L28 38L28 39L27 39L27 38L26 38L26 36L27 36L27 37L28 37L28 36L29 36L29 37L31 37L31 36L32 36L32 37L33 37L33 35L34 35L34 33L33 33L33 32L32 32L32 30L33 30L33 31L34 31L34 27L33 27L33 26L34 26L34 25L37 25L37 24L34 24L34 23L35 23L35 22L37 22L37 23L38 23L38 22L39 22L39 21L40 21L40 22L43 22L43 23L41 23L41 26L42 26L42 28L44 28L44 31L43 31L43 29L41 29L41 30L40 30L40 32L41 32L41 33L40 33L40 34L42 34L42 35L43 35L43 33L45 33L45 34L46 34L46 33L45 33L45 31L46 31L46 32L47 32L47 31L46 31L46 30L45 30L45 27L47 27L47 26L46 26L46 25L45 25L45 24L46 24L46 21L47 21L47 20L46 20L46 19L45 19L45 18L46 18L46 17L45 17L45 16L44 16L44 15L43 15L43 13L41 13L41 14L40 14L40 13L38 13L38 15L39 15L39 17L38 17L38 16L37 16L37 15L35 15L35 17L38 17L38 18L39 18L39 19L37 19L37 18L34 18L34 13L33 13L33 12L32 12L32 11L33 11L33 10L34 10L34 12L35 12L35 14L36 14L36 13L37 13L37 12L39 12L39 11L38 11L38 10L37 10L37 12L36 12L36 10L34 10L34 9L33 9L33 8L34 8L34 7ZM40 8L40 9L43 9L43 10L44 10L44 8ZM53 9L53 10L54 10L54 11L52 11L52 12L51 12L51 14L52 14L52 13L53 13L53 12L54 12L54 13L55 13L55 10L56 10L56 9ZM3 10L3 11L4 11L4 10ZM10 10L10 11L11 11L11 10ZM16 10L16 11L18 11L18 10ZM7 12L7 13L5 13L5 14L8 14L8 12ZM20 12L20 13L19 13L19 14L20 14L20 13L21 13L21 14L22 14L22 15L21 15L21 16L20 16L20 15L18 15L18 14L17 14L17 17L16 17L16 16L15 16L15 15L14 15L14 16L15 16L15 17L16 17L16 18L17 18L17 17L18 17L18 18L19 18L19 19L20 19L20 20L19 20L19 21L20 21L20 20L21 20L21 19L22 19L22 21L21 21L21 22L22 22L22 25L21 25L21 26L22 26L22 25L23 25L23 24L24 24L24 23L23 23L23 22L22 22L22 21L24 21L24 22L25 22L25 23L26 23L26 22L27 22L27 24L28 24L28 25L27 25L27 26L28 26L28 25L29 25L29 26L30 26L30 25L29 25L29 23L30 23L30 22L29 22L29 20L28 20L28 19L30 19L30 20L31 20L31 21L32 21L32 20L31 20L31 19L33 19L33 17L32 17L32 16L31 16L31 19L30 19L30 18L28 18L28 17L27 17L27 19L26 19L26 20L28 20L28 22L27 22L27 21L24 21L24 20L25 20L25 18L24 18L24 19L22 19L22 18L21 18L21 19L20 19L20 17L26 17L26 16L27 16L27 15L28 15L28 14L26 14L26 13L25 13L25 14L23 14L23 13L21 13L21 12ZM47 13L47 14L49 14L49 13ZM25 14L25 16L26 16L26 14ZM10 15L10 16L11 16L11 15ZM22 15L22 16L23 16L23 15ZM40 15L40 17L39 17L39 18L40 18L40 21L41 21L41 20L42 20L42 21L43 21L43 22L44 22L44 23L43 23L43 24L42 24L42 25L44 25L44 24L45 24L45 22L44 22L44 16L43 16L43 15L42 15L42 17L43 17L43 18L42 18L42 19L41 19L41 18L40 18L40 17L41 17L41 15ZM18 16L18 17L20 17L20 16ZM55 16L55 17L56 17L56 16ZM0 19L0 23L1 23L1 22L3 22L3 20L2 20L2 19ZM35 19L35 20L33 20L33 21L34 21L34 22L35 22L35 20L36 20L36 19ZM1 20L1 21L2 21L2 20ZM37 20L37 22L38 22L38 21L39 21L39 20ZM45 20L45 21L46 21L46 20ZM31 22L31 27L32 27L32 28L31 28L31 30L32 30L32 28L33 28L33 27L32 27L32 23L33 23L33 22ZM47 23L47 24L49 24L49 23ZM0 24L0 25L1 25L1 26L0 26L0 27L1 27L1 26L2 26L2 24ZM33 24L33 25L34 25L34 24ZM39 24L39 25L38 25L38 26L40 26L40 24ZM4 25L4 26L5 26L5 25ZM6 25L6 26L7 26L7 25ZM10 25L10 27L11 27L11 25ZM25 25L25 26L24 26L24 28L22 28L22 27L21 27L21 28L20 28L20 29L22 29L22 30L21 30L21 31L22 31L22 33L21 33L21 34L20 34L20 36L22 36L22 37L18 37L18 38L19 38L19 39L20 39L20 38L22 38L22 39L24 39L24 41L25 41L25 40L26 40L26 38L24 38L24 37L23 37L23 36L22 36L22 35L21 35L21 34L23 34L23 33L25 33L25 32L26 32L26 31L25 31L25 32L24 32L24 30L23 30L23 29L25 29L25 30L26 30L26 29L25 29L25 27L26 27L26 25ZM36 26L36 27L37 27L37 26ZM44 26L44 27L45 27L45 26ZM5 27L5 30L8 30L8 27ZM14 27L14 28L16 28L16 27ZM27 27L27 30L30 30L30 27ZM49 27L49 30L52 30L52 27ZM0 28L0 29L2 29L2 28ZM6 28L6 29L7 29L7 28ZM28 28L28 29L29 29L29 28ZM35 28L35 29L37 29L37 28ZM46 28L46 29L47 29L47 28ZM50 28L50 29L51 29L51 28ZM13 29L13 30L14 30L14 29ZM53 29L53 30L54 30L54 29ZM22 30L22 31L23 31L23 30ZM29 31L29 33L28 33L28 34L27 34L27 33L26 33L26 35L27 35L27 36L28 36L28 34L29 34L29 33L31 33L31 34L30 34L30 36L31 36L31 34L32 34L32 32L30 32L30 31ZM10 32L10 33L9 33L9 34L10 34L10 33L11 33L11 32ZM7 33L7 34L5 34L5 35L8 35L8 33ZM17 34L17 35L18 35L18 36L19 36L19 35L18 35L18 34ZM24 34L24 36L25 36L25 34ZM39 35L39 36L40 36L40 35ZM44 35L44 37L45 37L45 39L47 39L47 38L46 38L46 36L45 36L45 35ZM2 36L2 37L3 37L3 36ZM4 38L4 41L3 41L3 42L4 42L4 45L5 45L5 47L3 47L3 46L2 46L2 47L1 47L1 46L0 46L0 48L5 48L5 47L7 47L7 48L6 48L6 49L7 49L7 48L8 48L8 46L6 46L6 45L7 45L7 44L6 44L6 43L7 43L7 42L5 42L5 40L6 40L6 41L7 41L7 40L6 40L6 39L7 39L7 38ZM39 38L39 39L40 39L40 38ZM41 38L41 39L42 39L42 38ZM53 38L53 39L57 39L57 38ZM27 40L27 41L28 41L28 40ZM40 40L40 42L39 42L39 43L41 43L41 41L42 41L42 40ZM15 41L15 42L16 42L16 41ZM48 41L48 43L47 43L47 42L46 42L46 43L47 43L47 44L46 44L46 45L47 45L47 46L49 46L49 47L50 47L50 45L54 45L54 44L53 44L53 43L52 43L52 41L51 41L51 43L50 43L50 42L49 42L49 41ZM17 42L17 43L18 43L18 42ZM43 42L43 43L44 43L44 42ZM19 43L19 44L18 44L18 45L17 45L17 46L16 46L16 49L17 49L17 50L19 50L19 48L20 48L20 50L21 50L21 49L22 49L22 48L23 48L23 47L24 47L24 48L25 48L25 47L24 47L24 46L26 46L26 45L29 45L29 44L27 44L27 43L23 43L23 44L22 44L22 43L21 43L21 44L20 44L20 43ZM36 43L36 44L37 44L37 46L38 46L38 45L39 45L39 47L38 47L38 49L37 49L37 54L38 54L38 53L39 53L39 52L40 52L40 53L44 53L44 52L41 52L41 46L40 46L40 45L41 45L41 44L40 44L40 45L39 45L39 44L37 44L37 43ZM49 43L49 44L47 44L47 45L49 45L49 44L50 44L50 43ZM51 43L51 44L52 44L52 43ZM19 44L19 46L18 46L18 47L21 47L21 48L22 48L22 47L23 47L23 45L24 45L24 44L23 44L23 45L21 45L21 46L20 46L20 44ZM34 45L34 48L35 48L35 46L36 46L36 45ZM21 46L21 47L22 47L22 46ZM51 46L51 47L52 47L52 46ZM36 47L36 48L37 48L37 47ZM39 47L39 49L38 49L38 51L40 51L40 47ZM44 47L44 49L45 49L45 47ZM46 47L46 48L47 48L47 47ZM8 49L8 50L9 50L9 51L8 51L8 53L9 53L9 51L10 51L10 49ZM27 49L27 52L30 52L30 49ZM34 49L34 51L35 51L35 52L36 52L36 49ZM49 49L49 52L52 52L52 49ZM55 49L55 50L56 50L56 49ZM28 50L28 51L29 51L29 50ZM31 50L31 52L32 52L32 50ZM42 50L42 51L43 51L43 50ZM50 50L50 51L51 51L51 50ZM10 52L10 55L8 55L8 57L9 57L9 56L10 56L10 57L11 57L11 55L12 55L12 54L13 54L13 55L14 55L14 54L13 54L13 53L12 53L12 54L11 54L11 52ZM54 52L54 53L55 53L55 54L57 54L57 53L55 53L55 52ZM30 53L30 54L31 54L31 53ZM32 53L32 54L33 54L33 53ZM42 54L42 55L43 55L43 54ZM13 56L13 57L15 57L15 56ZM56 56L56 57L57 57L57 56ZM0 0L0 7L7 7L7 0ZM1 1L1 6L6 6L6 1ZM2 2L2 5L5 5L5 2ZM50 0L50 7L57 7L57 0ZM51 1L51 6L56 6L56 1ZM52 2L52 5L55 5L55 2ZM0 50L0 57L7 57L7 50ZM1 51L1 56L6 56L6 51ZM2 52L2 55L5 55L5 52Z" fill="#000000"/></g></g></svg>
