<?xml version="1.0" encoding="UTF-8"?>
<svg xmlns="http://www.w3.org/2000/svg" version="1.1" width="300" height="300" viewBox="0 0 300 300"><rect x="0" y="0" width="300" height="300" fill="#fefefe"/><g transform="scale(4.615)"><g transform="translate(4,4)"><path fill-rule="evenodd" d="M10 0L10 1L8 1L8 2L9 2L9 3L8 3L8 4L9 4L9 5L8 5L8 7L9 7L9 5L10 5L10 7L11 7L11 8L6 8L6 9L5 9L5 8L0 8L0 10L1 10L1 12L0 12L0 13L1 13L1 15L0 15L0 16L1 16L1 17L0 17L0 24L4 24L4 25L3 25L3 26L2 26L2 25L0 25L0 26L1 26L1 28L0 28L0 29L1 29L1 30L0 30L0 31L1 31L1 32L2 32L2 33L3 33L3 32L4 32L4 31L5 31L5 32L6 32L6 33L4 33L4 35L8 35L8 36L10 36L10 37L9 37L9 38L12 38L12 40L11 40L11 39L9 39L9 40L8 40L8 44L6 44L6 43L7 43L7 42L6 42L6 43L5 43L5 42L4 42L4 41L7 41L7 40L6 40L6 39L8 39L8 38L6 38L6 39L5 39L5 37L7 37L7 36L5 36L5 37L3 37L3 34L2 34L2 37L3 37L3 38L4 38L4 40L3 40L3 39L2 39L2 40L3 40L3 41L2 41L2 44L1 44L1 37L0 37L0 44L1 44L1 45L3 45L3 46L2 46L2 47L1 47L1 46L0 46L0 48L5 48L5 47L7 47L7 48L6 48L6 49L7 49L7 48L8 48L8 51L9 51L9 49L13 49L13 50L12 50L12 51L10 51L10 52L11 52L11 53L12 53L12 55L13 55L13 54L14 54L14 53L16 53L16 54L15 54L15 55L14 55L14 56L12 56L12 57L14 57L14 56L15 56L15 55L16 55L16 56L17 56L17 57L20 57L20 56L19 56L19 55L20 55L20 54L17 54L17 53L20 53L20 52L23 52L23 51L21 51L21 50L26 50L26 52L24 52L24 53L23 53L23 54L22 54L22 53L21 53L21 54L22 54L22 56L24 56L24 55L23 55L23 54L24 54L24 53L25 53L25 55L26 55L26 54L30 54L30 53L31 53L31 51L32 51L32 52L33 52L33 53L32 53L32 54L31 54L31 56L30 56L30 55L29 55L29 56L27 56L27 57L29 57L29 56L30 56L30 57L31 57L31 56L35 56L35 57L39 57L39 56L40 56L40 55L41 55L41 57L44 57L44 56L45 56L45 57L46 57L46 56L45 56L45 55L44 55L44 54L46 54L46 55L49 55L49 56L50 56L50 57L52 57L52 55L51 55L51 53L52 53L52 54L55 54L55 53L56 53L56 52L55 52L55 51L56 51L56 50L55 50L55 49L53 49L53 48L56 48L56 49L57 49L57 48L56 48L56 46L57 46L57 45L56 45L56 44L55 44L55 43L56 43L56 41L55 41L55 39L57 39L57 37L56 37L56 36L57 36L57 35L56 35L56 34L57 34L57 32L56 32L56 30L57 30L57 29L55 29L55 31L53 31L53 29L54 29L54 28L55 28L55 27L56 27L56 28L57 28L57 27L56 27L56 26L57 26L57 25L56 25L56 22L57 22L57 21L56 21L56 22L54 22L54 21L51 21L51 20L52 20L52 19L53 19L53 20L55 20L55 19L56 19L56 18L57 18L57 17L56 17L56 16L57 16L57 15L56 15L56 14L57 14L57 11L56 11L56 10L54 10L54 11L53 11L53 9L54 9L54 8L53 8L53 9L52 9L52 8L51 8L51 9L52 9L52 11L50 11L50 8L49 8L49 6L48 6L48 7L47 7L47 5L48 5L48 0L46 0L46 1L47 1L47 2L44 2L44 3L42 3L42 2L43 2L43 0L41 0L41 1L40 1L40 0L39 0L39 1L38 1L38 0L37 0L37 1L38 1L38 2L37 2L37 3L36 3L36 0L35 0L35 1L33 1L33 0L32 0L32 1L33 1L33 2L32 2L32 3L31 3L31 4L26 4L26 3L23 3L23 4L24 4L24 5L21 5L21 4L19 4L19 3L21 3L21 1L22 1L22 0L21 0L21 1L20 1L20 0L19 0L19 1L16 1L16 2L15 2L15 0L14 0L14 2L13 2L13 0L12 0L12 1L11 1L11 0ZM23 0L23 2L25 2L25 1L26 1L26 2L27 2L27 1L28 1L28 3L29 3L29 2L31 2L31 0L27 0L27 1L26 1L26 0ZM19 1L19 2L16 2L16 3L15 3L15 2L14 2L14 4L13 4L13 5L15 5L15 7L14 7L14 6L13 6L13 7L14 7L14 9L13 9L13 8L12 8L12 9L11 9L11 10L10 10L10 11L9 11L9 9L6 9L6 10L4 10L4 9L3 9L3 10L4 10L4 11L3 11L3 12L4 12L4 13L5 13L5 14L3 14L3 13L2 13L2 15L1 15L1 16L3 16L3 18L2 18L2 19L3 19L3 20L1 20L1 21L2 21L2 23L4 23L4 24L5 24L5 22L4 22L4 21L5 21L5 20L7 20L7 19L6 19L6 18L7 18L7 17L8 17L8 22L9 22L9 21L11 21L11 20L12 20L12 24L13 24L13 23L14 23L14 24L15 24L15 25L14 25L14 26L13 26L13 28L11 28L11 29L13 29L13 30L12 30L12 34L13 34L13 30L14 30L14 29L13 29L13 28L15 28L15 29L16 29L16 30L18 30L18 29L19 29L19 26L22 26L22 27L20 27L20 28L22 28L22 29L20 29L20 30L19 30L19 31L17 31L17 32L20 32L20 34L19 34L19 33L14 33L14 34L15 34L15 35L16 35L16 36L15 36L15 37L16 37L16 38L15 38L15 39L16 39L16 41L15 41L15 40L14 40L14 41L15 41L15 42L17 42L17 43L18 43L18 42L19 42L19 43L20 43L20 50L18 50L18 51L16 51L16 50L17 50L17 49L16 49L16 48L19 48L19 46L18 46L18 47L17 47L17 45L18 45L18 44L17 44L17 45L16 45L16 44L15 44L15 43L14 43L14 42L12 42L12 41L11 41L11 40L10 40L10 41L11 41L11 42L12 42L12 43L14 43L14 44L12 44L12 45L14 45L14 46L13 46L13 47L12 47L12 48L13 48L13 49L16 49L16 50L13 50L13 51L12 51L12 53L14 53L14 51L16 51L16 53L17 53L17 52L18 52L18 51L20 51L20 50L21 50L21 49L23 49L23 48L24 48L24 49L26 49L26 48L27 48L27 47L26 47L26 45L27 45L27 46L29 46L29 44L28 44L28 43L27 43L27 42L29 42L29 41L30 41L30 42L32 42L32 43L33 43L33 44L30 44L30 45L33 45L33 46L31 46L31 47L33 47L33 46L35 46L35 48L34 48L34 49L33 49L33 48L32 48L32 49L31 49L31 50L32 50L32 51L33 51L33 52L34 52L34 53L33 53L33 54L35 54L35 56L36 56L36 54L35 54L35 50L36 50L36 52L38 52L38 54L40 54L40 53L43 53L43 54L44 54L44 53L46 53L46 54L48 54L48 50L47 50L47 49L48 49L48 48L49 48L49 47L51 47L51 48L53 48L53 47L54 47L54 46L53 46L53 43L54 43L54 42L53 42L53 41L54 41L54 40L53 40L53 41L51 41L51 42L50 42L50 43L48 43L48 44L47 44L47 45L45 45L45 44L46 44L46 43L47 43L47 42L48 42L48 41L49 41L49 37L50 37L50 39L51 39L51 40L52 40L52 39L54 39L54 38L53 38L53 35L55 35L55 36L56 36L56 35L55 35L55 34L54 34L54 33L52 33L52 31L51 31L51 33L52 33L52 34L50 34L50 32L49 32L49 31L48 31L48 27L47 27L47 25L48 25L48 24L49 24L49 23L50 23L50 26L52 26L52 25L53 25L53 23L52 23L52 24L51 24L51 23L50 23L50 22L51 22L51 21L49 21L49 23L46 23L46 24L45 24L45 22L47 22L47 21L45 21L45 20L49 20L49 18L47 18L47 17L48 17L48 16L49 16L49 17L50 17L50 19L52 19L52 17L53 17L53 18L55 18L55 17L53 17L53 15L50 15L50 14L51 14L51 12L50 12L50 11L49 11L49 10L47 10L47 8L46 8L46 5L47 5L47 3L44 3L44 6L43 6L43 5L40 5L40 4L41 4L41 3L38 3L38 6L37 6L37 7L36 7L36 5L37 5L37 4L36 4L36 5L35 5L35 4L33 4L33 3L32 3L32 4L31 4L31 8L32 8L32 10L31 10L31 11L29 11L29 9L28 9L28 10L27 10L27 11L26 11L26 12L25 12L25 10L23 10L23 13L22 13L22 12L21 12L21 11L22 11L22 10L21 10L21 9L25 9L25 8L26 8L26 4L25 4L25 8L24 8L24 6L23 6L23 8L19 8L19 9L20 9L20 10L19 10L19 12L20 12L20 14L21 14L21 13L22 13L22 14L23 14L23 13L24 13L24 12L25 12L25 14L26 14L26 17L28 17L28 16L29 16L29 14L30 14L30 15L32 15L32 14L36 14L36 13L35 13L35 12L36 12L36 10L37 10L37 9L35 9L35 8L37 8L37 7L38 7L38 6L39 6L39 7L40 7L40 8L38 8L38 10L39 10L39 11L40 11L40 10L41 10L41 9L42 9L42 8L41 8L41 7L42 7L42 6L43 6L43 7L44 7L44 9L46 9L46 10L45 10L45 11L41 11L41 12L39 12L39 13L38 13L38 14L37 14L37 15L35 15L35 16L31 16L31 17L33 17L33 18L30 18L30 19L28 19L28 18L26 18L26 21L31 21L31 22L29 22L29 24L28 24L28 23L27 23L27 24L25 24L25 23L26 23L26 22L25 22L25 21L24 21L24 20L21 20L21 19L24 19L24 18L22 18L22 17L25 17L25 16L23 16L23 15L20 15L20 16L19 16L19 14L17 14L17 13L18 13L18 12L17 12L17 11L18 11L18 9L15 9L15 7L16 7L16 8L17 8L17 7L18 7L18 6L19 6L19 7L20 7L20 5L18 5L18 6L17 6L17 3L19 3L19 2L20 2L20 1ZM11 2L11 3L13 3L13 2ZM34 2L34 3L35 3L35 2ZM11 4L11 7L12 7L12 4ZM15 4L15 5L16 5L16 4ZM32 4L32 5L33 5L33 6L32 6L32 7L33 7L33 9L34 9L34 8L35 8L35 5L33 5L33 4ZM45 4L45 5L46 5L46 4ZM27 5L27 8L30 8L30 5ZM39 5L39 6L40 6L40 7L41 7L41 6L40 6L40 5ZM16 6L16 7L17 7L17 6ZM21 6L21 7L22 7L22 6ZM28 6L28 7L29 7L29 6ZM33 6L33 7L34 7L34 6ZM44 6L44 7L45 7L45 6ZM55 8L55 9L56 9L56 8ZM6 10L6 11L5 11L5 12L6 12L6 13L7 13L7 14L6 14L6 15L8 15L8 16L9 16L9 15L10 15L10 18L9 18L9 19L10 19L10 20L11 20L11 17L12 17L12 18L14 18L14 16L16 16L16 17L17 17L17 18L19 18L19 19L18 19L18 20L17 20L17 19L16 19L16 18L15 18L15 21L16 21L16 22L15 22L15 23L16 23L16 24L17 24L17 25L18 25L18 26L16 26L16 27L18 27L18 26L19 26L19 25L21 25L21 24L18 24L18 23L20 23L20 22L19 22L19 21L20 21L20 20L19 20L19 19L20 19L20 17L19 17L19 16L16 16L16 13L17 13L17 12L16 12L16 11L17 11L17 10L13 10L13 11L14 11L14 12L12 12L12 13L11 13L11 14L12 14L12 15L14 15L14 16L11 16L11 15L10 15L10 14L9 14L9 15L8 15L8 13L9 13L9 11L8 11L8 10ZM32 10L32 11L31 11L31 13L30 13L30 14L32 14L32 12L33 12L33 13L34 13L34 12L33 12L33 10ZM46 10L46 11L45 11L45 12L49 12L49 13L47 13L47 14L44 14L44 12L43 12L43 13L39 13L39 14L38 14L38 15L39 15L39 16L38 16L38 17L37 17L37 16L35 16L35 17L37 17L37 18L38 18L38 17L39 17L39 19L38 19L38 21L37 21L37 20L36 20L36 19L34 19L34 20L35 20L35 23L34 23L34 22L33 22L33 23L32 23L32 24L31 24L31 23L30 23L30 24L31 24L31 25L28 25L28 24L27 24L27 25L28 25L28 26L26 26L26 25L25 25L25 24L24 24L24 23L22 23L22 24L23 24L23 25L22 25L22 26L23 26L23 27L24 27L24 26L26 26L26 27L25 27L25 28L26 28L26 29L23 29L23 30L25 30L25 31L26 31L26 32L25 32L25 33L23 33L23 34L22 34L22 33L21 33L21 34L20 34L20 35L21 35L21 36L22 36L22 35L23 35L23 34L24 34L24 36L23 36L23 37L24 37L24 38L23 38L23 39L22 39L22 40L23 40L23 39L24 39L24 40L25 40L25 36L27 36L27 35L26 35L26 34L25 34L25 33L26 33L26 32L27 32L27 31L31 31L31 33L29 33L29 32L28 32L28 33L29 33L29 34L30 34L30 36L29 36L29 37L31 37L31 38L29 38L29 39L33 39L33 40L35 40L35 42L37 42L37 43L36 43L36 44L35 44L35 43L34 43L34 42L33 42L33 41L32 41L32 40L31 40L31 41L32 41L32 42L33 42L33 43L34 43L34 45L35 45L35 46L37 46L37 47L36 47L36 48L35 48L35 49L36 49L36 50L38 50L38 51L40 51L40 52L41 52L41 50L42 50L42 51L43 51L43 53L44 53L44 52L45 52L45 51L43 51L43 49L44 49L44 50L46 50L46 52L47 52L47 50L46 50L46 49L47 49L47 48L48 48L48 47L49 47L49 45L50 45L50 44L51 44L51 45L52 45L52 44L51 44L51 43L53 43L53 42L51 42L51 43L50 43L50 44L48 44L48 47L47 47L47 46L45 46L45 45L44 45L44 44L43 44L43 42L44 42L44 43L46 43L46 42L45 42L45 41L47 41L47 39L48 39L48 37L49 37L49 36L48 36L48 35L50 35L50 37L52 37L52 35L53 35L53 34L52 34L52 35L50 35L50 34L48 34L48 35L44 35L44 36L42 36L42 34L45 34L45 33L47 33L47 32L48 32L48 33L49 33L49 32L48 32L48 31L47 31L47 30L46 30L46 29L47 29L47 27L46 27L46 28L45 28L45 26L44 26L44 24L41 24L41 22L43 22L43 23L44 23L44 20L45 20L45 18L46 18L46 19L47 19L47 18L46 18L46 17L47 17L47 16L48 16L48 15L49 15L49 16L50 16L50 15L49 15L49 14L50 14L50 12L49 12L49 11L47 11L47 10ZM6 11L6 12L7 12L7 13L8 13L8 11ZM10 11L10 12L11 12L11 11ZM27 11L27 12L26 12L26 14L27 14L27 13L28 13L28 14L29 14L29 13L28 13L28 12L29 12L29 11ZM55 11L55 12L54 12L54 13L53 13L53 12L52 12L52 13L53 13L53 14L54 14L54 15L55 15L55 14L56 14L56 11ZM15 12L15 13L12 13L12 14L15 14L15 13L16 13L16 12ZM54 13L54 14L55 14L55 13ZM41 14L41 16L39 16L39 17L41 17L41 16L42 16L42 17L43 17L43 16L42 16L42 15L44 15L44 18L43 18L43 19L42 19L42 18L41 18L41 20L39 20L39 21L38 21L38 23L37 23L37 24L38 24L38 26L37 26L37 25L33 25L33 24L32 24L32 26L31 26L31 27L32 27L32 29L33 29L33 30L31 30L31 31L32 31L32 34L31 34L31 35L32 35L32 34L33 34L33 36L32 36L32 37L33 37L33 38L34 38L34 39L35 39L35 40L38 40L38 42L39 42L39 45L38 45L38 46L39 46L39 47L38 47L38 48L37 48L37 49L38 49L38 50L41 50L41 48L42 48L42 49L43 49L43 48L44 48L44 49L46 49L46 48L47 48L47 47L46 47L46 48L44 48L44 47L45 47L45 46L44 46L44 45L43 45L43 46L41 46L41 48L39 48L39 47L40 47L40 46L39 46L39 45L41 45L41 44L42 44L42 42L41 42L41 41L43 41L43 39L45 39L45 38L46 38L46 39L47 39L47 37L48 37L48 36L46 36L46 37L45 37L45 36L44 36L44 37L43 37L43 38L40 38L40 37L42 37L42 36L40 36L40 37L39 37L39 35L40 35L40 34L39 34L39 33L41 33L41 32L43 32L43 33L45 33L45 32L47 32L47 31L45 31L45 28L44 28L44 31L45 31L45 32L43 32L43 30L41 30L41 31L39 31L39 32L38 32L38 30L39 30L39 29L43 29L43 27L44 27L44 26L42 26L42 28L41 28L41 27L39 27L39 25L41 25L41 24L38 24L38 23L40 23L40 22L39 22L39 21L43 21L43 20L44 20L44 18L45 18L45 15L44 15L44 14ZM3 15L3 16L4 16L4 15ZM27 15L27 16L28 16L28 15ZM46 15L46 16L47 16L47 15ZM5 16L5 17L4 17L4 18L3 18L3 19L4 19L4 18L6 18L6 17L7 17L7 16ZM21 16L21 17L22 17L22 16ZM12 19L12 20L14 20L14 19ZM27 19L27 20L28 20L28 19ZM31 19L31 21L32 21L32 20L33 20L33 19ZM3 20L3 21L4 21L4 20ZM16 20L16 21L17 21L17 20ZM6 21L6 22L7 22L7 21ZM13 21L13 22L14 22L14 21ZM21 21L21 22L22 22L22 21ZM23 21L23 22L24 22L24 21ZM6 23L6 24L8 24L8 23ZM10 23L10 24L9 24L9 26L10 26L10 27L9 27L9 28L10 28L10 27L11 27L11 26L12 26L12 25L10 25L10 24L11 24L11 23ZM46 24L46 25L47 25L47 24ZM5 25L5 26L8 26L8 25ZM55 25L55 26L56 26L56 25ZM3 26L3 27L2 27L2 28L1 28L1 29L2 29L2 28L4 28L4 26ZM14 26L14 27L15 27L15 26ZM32 26L32 27L33 27L33 28L35 28L35 30L33 30L33 31L36 31L36 29L38 29L38 28L39 28L39 27L36 27L36 26L34 26L34 27L33 27L33 26ZM53 26L53 27L54 27L54 26ZM5 27L5 30L8 30L8 27ZM27 27L27 30L30 30L30 27ZM49 27L49 30L52 30L52 27ZM6 28L6 29L7 29L7 28ZM16 28L16 29L18 29L18 28ZM28 28L28 29L29 29L29 28ZM50 28L50 29L51 29L51 28ZM9 29L9 30L10 30L10 33L9 33L9 32L8 32L8 34L10 34L10 35L11 35L11 37L12 37L12 38L13 38L13 35L11 35L11 34L10 34L10 33L11 33L11 30L10 30L10 29ZM2 30L2 31L4 31L4 30ZM20 30L20 32L23 32L23 31L21 31L21 30ZM6 31L6 32L7 32L7 31ZM14 31L14 32L15 32L15 31ZM34 32L34 33L35 33L35 34L37 34L37 36L35 36L35 35L34 35L34 36L35 36L35 39L37 39L37 38L38 38L38 37L37 37L37 36L38 36L38 33L37 33L37 32ZM55 32L55 33L56 33L56 32ZM6 33L6 34L7 34L7 33ZM16 34L16 35L19 35L19 34ZM21 34L21 35L22 35L22 34ZM0 35L0 36L1 36L1 35ZM17 36L17 37L18 37L18 38L17 38L17 40L18 40L18 41L17 41L17 42L18 42L18 41L19 41L19 42L20 42L20 41L21 41L21 42L22 42L22 43L21 43L21 44L22 44L22 45L21 45L21 47L23 47L23 46L24 46L24 47L25 47L25 45L24 45L24 43L25 43L25 44L27 44L27 45L28 45L28 44L27 44L27 43L25 43L25 41L23 41L23 42L22 42L22 41L21 41L21 37L19 37L19 36ZM26 37L26 40L28 40L28 41L29 41L29 40L28 40L28 39L27 39L27 38L28 38L28 37ZM44 37L44 38L45 38L45 37ZM18 38L18 39L20 39L20 38ZM51 38L51 39L52 39L52 38ZM38 39L38 40L40 40L40 39ZM19 40L19 41L20 41L20 40ZM44 40L44 41L45 41L45 40ZM26 41L26 42L27 42L27 41ZM39 41L39 42L40 42L40 41ZM23 42L23 43L24 43L24 42ZM9 43L9 44L8 44L8 45L6 45L6 44L4 44L4 46L3 46L3 47L5 47L5 46L7 46L7 47L8 47L8 45L9 45L9 48L10 48L10 47L11 47L11 45L9 45L9 44L11 44L11 43ZM40 43L40 44L41 44L41 43ZM54 44L54 45L55 45L55 46L56 46L56 45L55 45L55 44ZM22 45L22 46L23 46L23 45ZM14 46L14 47L16 47L16 46ZM51 46L51 47L52 47L52 46ZM29 47L29 48L30 48L30 47ZM42 47L42 48L43 48L43 47ZM38 48L38 49L39 49L39 48ZM27 49L27 52L30 52L30 49ZM32 49L32 50L33 50L33 49ZM49 49L49 52L52 52L52 49ZM28 50L28 51L29 51L29 50ZM50 50L50 51L51 51L51 50ZM54 50L54 51L55 51L55 50ZM8 52L8 57L9 57L9 56L10 56L10 55L11 55L11 54L10 54L10 55L9 55L9 52ZM53 52L53 53L54 53L54 52ZM41 54L41 55L42 55L42 56L44 56L44 55L42 55L42 54ZM17 55L17 56L18 56L18 55ZM37 55L37 56L39 56L39 55ZM50 55L50 56L51 56L51 55ZM53 55L53 56L55 56L55 57L56 57L56 56L55 56L55 55ZM25 56L25 57L26 57L26 56ZM0 0L0 7L7 7L7 0ZM1 1L1 6L6 6L6 1ZM2 2L2 5L5 5L5 2ZM50 0L50 7L57 7L57 0ZM51 1L51 6L56 6L56 1ZM52 2L52 5L55 5L55 2ZM0 50L0 57L7 57L7 50ZM1 51L1 56L6 56L6 51ZM2 52L2 55L5 55L5 52Z" fill="#000000"/></g></g></svg>
