<?xml version="1.0" encoding="UTF-8"?>
<svg xmlns="http://www.w3.org/2000/svg" version="1.1" width="300" height="300" viewBox="0 0 300 300"><rect x="0" y="0" width="300" height="300" fill="#fefefe"/><g transform="scale(4.615)"><g transform="translate(4,4)"><path fill-rule="evenodd" d="M8 0L8 2L9 2L9 4L8 4L8 9L10 9L10 8L11 8L11 10L12 10L12 11L11 11L11 12L13 12L13 10L14 10L14 9L15 9L15 11L14 11L14 12L15 12L15 11L16 11L16 8L15 8L15 6L16 6L16 7L17 7L17 6L16 6L16 5L18 5L18 10L17 10L17 14L15 14L15 15L17 15L17 14L18 14L18 15L19 15L19 14L20 14L20 13L21 13L21 12L20 12L20 11L21 11L21 10L22 10L22 9L23 9L23 10L24 10L24 11L22 11L22 12L24 12L24 13L23 13L23 14L24 14L24 16L22 16L22 14L21 14L21 16L20 16L20 17L19 17L19 16L18 16L18 17L19 17L19 18L20 18L20 19L19 19L19 20L18 20L18 19L16 19L16 16L14 16L14 14L13 14L13 13L12 13L12 14L11 14L11 13L10 13L10 12L9 12L9 11L10 11L10 10L9 10L9 11L8 11L8 10L6 10L6 9L7 9L7 8L5 8L5 10L4 10L4 9L3 9L3 8L0 8L0 9L1 9L1 10L0 10L0 11L1 11L1 10L2 10L2 9L3 9L3 10L4 10L4 13L5 13L5 14L1 14L1 13L2 13L2 12L3 12L3 11L2 11L2 12L0 12L0 15L3 15L3 16L1 16L1 17L0 17L0 19L3 19L3 20L1 20L1 21L0 21L0 22L1 22L1 21L2 21L2 23L4 23L4 25L3 25L3 24L1 24L1 26L4 26L4 27L3 27L3 28L4 28L4 30L3 30L3 29L2 29L2 28L1 28L1 29L0 29L0 30L1 30L1 29L2 29L2 31L0 31L0 32L2 32L2 33L1 33L1 34L0 34L0 35L1 35L1 37L0 37L0 39L1 39L1 40L3 40L3 41L2 41L2 42L3 42L3 41L4 41L4 39L5 39L5 42L4 42L4 43L2 43L2 45L1 45L1 46L0 46L0 48L5 48L5 47L9 47L9 48L8 48L8 50L11 50L11 51L15 51L15 53L14 53L14 52L13 52L13 55L12 55L12 57L14 57L14 56L13 56L13 55L14 55L14 54L15 54L15 56L16 56L16 57L17 57L17 55L19 55L19 54L18 54L18 53L19 53L19 50L18 50L18 49L19 49L19 48L18 48L18 49L17 49L17 48L16 48L16 47L17 47L17 46L18 46L18 45L19 45L19 44L20 44L20 43L21 43L21 42L20 42L20 40L21 40L21 39L22 39L22 41L23 41L23 43L22 43L22 44L23 44L23 43L24 43L24 45L23 45L23 47L24 47L24 48L25 48L25 51L24 51L24 49L23 49L23 48L22 48L22 46L21 46L21 48L22 48L22 52L21 52L21 51L20 51L20 53L21 53L21 54L20 54L20 55L21 55L21 56L18 56L18 57L21 57L21 56L22 56L22 57L23 57L23 56L24 56L24 57L25 57L25 56L26 56L26 57L28 57L28 55L29 55L29 57L33 57L33 55L34 55L34 57L35 57L35 55L38 55L38 47L37 47L37 48L36 48L36 49L37 49L37 51L35 51L35 50L34 50L34 49L33 49L33 48L32 48L32 52L31 52L31 48L30 48L30 47L31 47L31 46L32 46L32 45L33 45L33 47L34 47L34 45L33 45L33 44L35 44L35 43L36 43L36 41L37 41L37 42L38 42L38 41L39 41L39 38L40 38L40 41L41 41L41 42L40 42L40 43L37 43L37 44L36 44L36 45L35 45L35 47L36 47L36 45L37 45L37 46L38 46L38 45L37 45L37 44L39 44L39 46L40 46L40 45L41 45L41 47L40 47L40 49L39 49L39 52L40 52L40 53L39 53L39 56L40 56L40 57L42 57L42 56L43 56L43 54L42 54L42 53L43 53L43 52L44 52L44 57L46 57L46 56L47 56L47 54L48 54L48 55L49 55L49 57L50 57L50 55L49 55L49 54L52 54L52 55L53 55L53 53L54 53L54 55L57 55L57 54L55 54L55 53L57 53L57 50L56 50L56 47L57 47L57 45L56 45L56 44L57 44L57 42L56 42L56 41L57 41L57 40L54 40L54 38L57 38L57 33L56 33L56 31L57 31L57 28L56 28L56 27L57 27L57 24L56 24L56 23L57 23L57 10L56 10L56 11L55 11L55 9L57 9L57 8L55 8L55 9L54 9L54 10L52 10L52 9L53 9L53 8L49 8L49 6L48 6L48 9L47 9L47 5L48 5L48 0L46 0L46 1L47 1L47 2L45 2L45 4L44 4L44 2L43 2L43 4L42 4L42 3L41 3L41 4L42 4L42 5L41 5L41 6L40 6L40 7L41 7L41 8L40 8L40 9L41 9L41 10L42 10L42 12L41 12L41 11L40 11L40 10L38 10L38 8L39 8L39 6L38 6L38 7L37 7L37 6L36 6L36 10L34 10L34 9L35 9L35 4L36 4L36 3L34 3L34 2L37 2L37 1L35 1L35 0L34 0L34 2L33 2L33 6L32 6L32 7L33 7L33 6L34 6L34 8L32 8L32 9L31 9L31 5L32 5L32 0L30 0L30 3L31 3L31 4L28 4L28 2L27 2L27 1L28 1L28 0L26 0L26 2L25 2L25 4L24 4L24 1L25 1L25 0L24 0L24 1L23 1L23 0L20 0L20 1L19 1L19 0L18 0L18 1L17 1L17 0L16 0L16 1L14 1L14 0L13 0L13 1L12 1L12 2L13 2L13 1L14 1L14 3L13 3L13 5L12 5L12 3L11 3L11 4L10 4L10 1L9 1L9 0ZM38 0L38 3L39 3L39 4L38 4L38 5L39 5L39 4L40 4L40 2L42 2L42 1L45 1L45 0L42 0L42 1L41 1L41 0ZM18 1L18 2L16 2L16 4L17 4L17 3L18 3L18 5L19 5L19 7L20 7L20 5L22 5L22 6L21 6L21 9L20 9L20 8L19 8L19 9L20 9L20 10L19 10L19 11L18 11L18 12L19 12L19 13L18 13L18 14L19 14L19 13L20 13L20 12L19 12L19 11L20 11L20 10L21 10L21 9L22 9L22 8L25 8L25 9L24 9L24 10L25 10L25 11L26 11L26 13L24 13L24 14L25 14L25 15L26 15L26 16L27 16L27 18L26 18L26 17L25 17L25 16L24 16L24 18L25 18L25 19L24 19L24 20L25 20L25 19L26 19L26 20L27 20L27 22L26 22L26 23L28 23L28 22L29 22L29 21L28 21L28 20L30 20L30 19L32 19L32 18L33 18L33 17L34 17L34 18L36 18L36 19L37 19L37 18L36 18L36 14L37 14L37 13L38 13L38 15L37 15L37 16L38 16L38 18L40 18L40 19L39 19L39 21L38 21L38 20L37 20L37 21L36 21L36 20L35 20L35 19L33 19L33 20L35 20L35 21L34 21L34 22L35 22L35 23L36 23L36 24L34 24L34 23L33 23L33 24L34 24L34 26L33 26L33 25L32 25L32 23L29 23L29 26L31 26L31 25L32 25L32 27L31 27L31 30L33 30L33 29L34 29L34 31L35 31L35 33L32 33L32 32L33 32L33 31L32 31L32 32L30 32L30 34L31 34L31 35L28 35L28 34L29 34L29 31L28 31L28 32L27 32L27 33L28 33L28 34L26 34L26 32L25 32L25 31L26 31L26 30L25 30L25 29L24 29L24 28L23 28L23 27L22 27L22 28L23 28L23 29L22 29L22 30L21 30L21 29L20 29L20 28L21 28L21 23L20 23L20 22L22 22L22 18L21 18L21 17L20 17L20 18L21 18L21 21L20 21L20 20L19 20L19 22L18 22L18 20L17 20L17 22L16 22L16 23L18 23L18 24L17 24L17 25L16 25L16 24L14 24L14 23L10 23L10 24L9 24L9 23L8 23L8 22L7 22L7 21L8 21L8 20L9 20L9 21L11 21L11 20L13 20L13 19L11 19L11 15L10 15L10 13L6 13L6 14L5 14L5 17L4 17L4 16L3 16L3 19L4 19L4 20L7 20L7 21L5 21L5 23L6 23L6 24L7 24L7 25L6 25L6 26L8 26L8 25L9 25L9 26L11 26L11 27L9 27L9 29L11 29L11 30L9 30L9 31L8 31L8 32L7 32L7 31L6 31L6 32L5 32L5 31L2 31L2 32L3 32L3 33L4 33L4 35L2 35L2 34L1 34L1 35L2 35L2 36L5 36L5 37L2 37L2 38L1 38L1 39L3 39L3 38L5 38L5 39L6 39L6 40L7 40L7 39L6 39L6 38L7 38L7 37L8 37L8 40L9 40L9 39L10 39L10 41L13 41L13 42L10 42L10 43L9 43L9 44L8 44L8 42L9 42L9 41L6 41L6 42L5 42L5 43L4 43L4 44L3 44L3 45L4 45L4 46L3 46L3 47L5 47L5 46L7 46L7 45L9 45L9 47L12 47L12 46L13 46L13 48L14 48L14 50L15 50L15 51L16 51L16 52L17 52L17 53L18 53L18 51L17 51L17 49L16 49L16 48L14 48L14 47L16 47L16 46L17 46L17 45L16 45L16 42L17 42L17 39L18 39L18 40L19 40L19 39L18 39L18 38L17 38L17 37L16 37L16 35L15 35L15 32L13 32L13 31L15 31L15 30L18 30L18 31L16 31L16 32L17 32L17 33L16 33L16 34L18 34L18 31L20 31L20 32L21 32L21 33L20 33L20 34L19 34L19 36L20 36L20 34L22 34L22 35L23 35L23 37L22 37L22 36L21 36L21 37L22 37L22 38L23 38L23 40L24 40L24 43L25 43L25 42L26 42L26 41L25 41L25 40L26 40L26 39L27 39L27 41L28 41L28 43L27 43L27 45L28 45L28 46L29 46L29 47L28 47L28 48L29 48L29 47L30 47L30 45L28 45L28 43L29 43L29 44L30 44L30 42L31 42L31 43L32 43L32 40L33 40L33 41L34 41L34 42L35 42L35 41L36 41L36 38L37 38L37 41L38 41L38 38L39 38L39 36L40 36L40 35L43 35L43 37L42 37L42 39L41 39L41 40L42 40L42 39L43 39L43 38L44 38L44 35L43 35L43 33L42 33L42 31L44 31L44 30L46 30L46 31L45 31L45 33L46 33L46 34L45 34L45 37L46 37L46 38L47 38L47 40L48 40L48 41L46 41L46 40L45 40L45 41L46 41L46 42L44 42L44 44L43 44L43 43L41 43L41 45L42 45L42 47L41 47L41 49L40 49L40 51L41 51L41 49L42 49L42 50L44 50L44 51L46 51L46 50L47 50L47 44L48 44L48 45L49 45L49 47L50 47L50 45L52 45L52 47L51 47L51 48L52 48L52 47L53 47L53 45L54 45L54 46L55 46L55 47L54 47L54 48L53 48L53 49L54 49L54 50L53 50L53 51L54 51L54 52L55 52L55 51L56 51L56 50L55 50L55 49L54 49L54 48L55 48L55 47L56 47L56 45L55 45L55 44L56 44L56 42L55 42L55 41L54 41L54 40L53 40L53 39L51 39L51 40L50 40L50 33L51 33L51 36L53 36L53 37L52 37L52 38L54 38L54 36L55 36L55 37L56 37L56 36L55 36L55 35L56 35L56 33L54 33L54 32L55 32L55 31L56 31L56 30L55 30L55 27L54 27L54 28L53 28L53 30L54 30L54 32L53 32L53 31L52 31L52 32L51 32L51 31L49 31L49 32L50 32L50 33L49 33L49 34L48 34L48 33L47 33L47 30L48 30L48 29L47 29L47 28L46 28L46 29L44 29L44 30L43 30L43 28L42 28L42 31L40 31L40 32L39 32L39 33L38 33L38 34L37 34L37 33L36 33L36 31L37 31L37 32L38 32L38 31L39 31L39 30L40 30L40 28L41 28L41 27L43 27L43 26L44 26L44 27L45 27L45 25L46 25L46 26L47 26L47 25L46 25L46 23L47 23L47 24L48 24L48 23L49 23L49 22L50 22L50 24L51 24L51 25L50 25L50 26L51 26L51 25L52 25L52 23L53 23L53 22L52 22L52 20L53 20L53 19L54 19L54 21L55 21L55 22L54 22L54 26L55 26L55 25L56 25L56 24L55 24L55 23L56 23L56 20L55 20L55 19L54 19L54 17L56 17L56 16L55 16L55 15L56 15L56 13L55 13L55 11L54 11L54 12L53 12L53 13L54 13L54 14L55 14L55 15L54 15L54 17L52 17L52 16L53 16L53 14L52 14L52 13L50 13L50 11L48 11L48 10L49 10L49 9L48 9L48 10L47 10L47 9L46 9L46 8L45 8L45 7L46 7L46 5L47 5L47 3L46 3L46 4L45 4L45 5L44 5L44 4L43 4L43 5L42 5L42 6L41 6L41 7L42 7L42 8L41 8L41 9L42 9L42 10L43 10L43 12L42 12L42 15L41 15L41 17L42 17L42 18L43 18L43 17L44 17L44 19L42 19L42 20L43 20L43 21L42 21L42 23L41 23L41 22L40 22L40 19L41 19L41 18L40 18L40 14L41 14L41 13L40 13L40 14L39 14L39 12L37 12L37 13L36 13L36 11L34 11L34 10L33 10L33 9L32 9L32 11L31 11L31 12L30 12L30 10L31 10L31 9L30 9L30 10L29 10L29 9L28 9L28 10L29 10L29 12L30 12L30 13L29 13L29 15L28 15L28 14L26 14L26 13L27 13L27 12L28 12L28 11L27 11L27 10L25 10L25 9L26 9L26 5L24 5L24 6L23 6L23 5L22 5L22 4L23 4L23 3L22 3L22 4L21 4L21 3L19 3L19 1ZM20 1L20 2L22 2L22 1ZM39 1L39 2L40 2L40 1ZM14 3L14 4L15 4L15 3ZM26 3L26 4L27 4L27 3ZM9 4L9 8L10 8L10 4ZM11 5L11 8L12 8L12 5ZM13 5L13 9L14 9L14 5ZM27 5L27 8L30 8L30 5ZM43 5L43 6L42 6L42 7L43 7L43 6L44 6L44 7L45 7L45 6L44 6L44 5ZM22 6L22 7L23 7L23 6ZM24 6L24 7L25 7L25 6ZM28 6L28 7L29 7L29 6ZM44 8L44 10L46 10L46 9L45 9L45 8ZM50 9L50 10L51 10L51 12L52 12L52 10L51 10L51 9ZM5 10L5 11L6 11L6 12L7 12L7 11L6 11L6 10ZM37 10L37 11L38 11L38 10ZM33 11L33 12L32 12L32 13L31 13L31 14L32 14L32 13L33 13L33 15L34 15L34 17L35 17L35 15L34 15L34 13L35 13L35 12L34 12L34 11ZM46 11L46 13L45 13L45 12L44 12L44 13L43 13L43 16L44 16L44 17L45 17L45 16L44 16L44 15L46 15L46 13L47 13L47 14L48 14L48 15L47 15L47 16L46 16L46 17L47 17L47 18L48 18L48 17L49 17L49 20L51 20L51 18L52 18L52 17L51 17L51 18L50 18L50 17L49 17L49 16L50 16L50 13L49 13L49 14L48 14L48 11ZM6 14L6 15L8 15L8 16L6 16L6 17L10 17L10 15L9 15L9 14ZM12 14L12 16L13 16L13 17L12 17L12 18L13 18L13 17L14 17L14 16L13 16L13 14ZM51 14L51 16L52 16L52 14ZM29 15L29 16L30 16L30 17L28 17L28 18L30 18L30 17L31 17L31 18L32 18L32 17L33 17L33 16L32 16L32 15L31 15L31 16L30 16L30 15ZM31 16L31 17L32 17L32 16ZM4 18L4 19L8 19L8 18ZM9 18L9 20L10 20L10 18ZM14 19L14 20L15 20L15 19ZM27 19L27 20L28 20L28 19ZM44 19L44 21L43 21L43 22L44 22L44 23L46 23L46 21L47 21L47 23L48 23L48 19L46 19L46 20L45 20L45 19ZM31 20L31 21L30 21L30 22L33 22L33 21L32 21L32 20ZM12 21L12 22L13 22L13 21ZM14 21L14 22L15 22L15 21ZM35 21L35 22L36 22L36 23L39 23L39 22L38 22L38 21L37 21L37 22L36 22L36 21ZM44 21L44 22L45 22L45 21ZM6 22L6 23L7 23L7 24L8 24L8 23L7 23L7 22ZM24 22L24 23L25 23L25 22ZM51 22L51 23L52 23L52 22ZM22 23L22 24L23 24L23 23ZM40 23L40 25L41 25L41 26L42 26L42 25L43 25L43 24L42 24L42 25L41 25L41 23ZM10 24L10 25L11 25L11 24ZM13 24L13 25L12 25L12 27L11 27L11 29L12 29L12 30L15 30L15 28L14 28L14 26L13 26L13 25L14 25L14 24ZM18 24L18 25L19 25L19 24ZM30 24L30 25L31 25L31 24ZM36 24L36 26L37 26L37 28L36 28L36 29L35 29L35 27L34 27L34 29L35 29L35 30L37 30L37 31L38 31L38 30L37 30L37 28L38 28L38 29L39 29L39 28L40 28L40 27L39 27L39 26L38 26L38 25L37 25L37 24ZM44 24L44 25L45 25L45 24ZM4 25L4 26L5 26L5 25ZM15 25L15 27L16 27L16 28L17 28L17 27L16 27L16 25ZM24 25L24 26L25 26L25 25ZM26 25L26 26L27 26L27 25ZM48 25L48 26L49 26L49 25ZM5 27L5 30L8 30L8 27ZM18 27L18 28L19 28L19 27ZM27 27L27 30L30 30L30 27ZM49 27L49 30L52 30L52 27ZM6 28L6 29L7 29L7 28ZM28 28L28 29L29 29L29 28ZM32 28L32 29L33 29L33 28ZM50 28L50 29L51 29L51 28ZM19 29L19 30L20 30L20 31L21 31L21 30L20 30L20 29ZM23 29L23 30L22 30L22 33L23 33L23 35L25 35L25 36L24 36L24 37L25 37L25 36L28 36L28 37L29 37L29 36L28 36L28 35L25 35L25 34L24 34L24 31L23 31L23 30L24 30L24 29ZM9 31L9 32L8 32L8 33L7 33L7 32L6 32L6 33L5 33L5 32L4 32L4 33L5 33L5 36L6 36L6 37L7 37L7 36L8 36L8 35L9 35L9 36L10 36L10 37L9 37L9 38L10 38L10 39L12 39L12 38L14 38L14 39L13 39L13 40L15 40L15 41L14 41L14 44L11 44L11 43L10 43L10 46L12 46L12 45L13 45L13 46L14 46L14 44L15 44L15 42L16 42L16 40L15 40L15 37L13 37L13 35L14 35L14 36L15 36L15 35L14 35L14 33L13 33L13 32L12 32L12 33L11 33L11 34L12 34L12 36L11 36L11 35L9 35L9 34L10 34L10 33L9 33L9 32L11 32L11 31ZM40 32L40 34L42 34L42 33L41 33L41 32ZM6 33L6 34L7 34L7 33ZM12 33L12 34L13 34L13 33ZM35 33L35 35L31 35L31 36L30 36L30 40L31 40L31 38L33 38L33 39L34 39L34 41L35 41L35 38L36 38L36 37L37 37L37 38L38 38L38 37L37 37L37 36L38 36L38 35L39 35L39 34L38 34L38 35L36 35L36 33ZM46 34L46 36L47 36L47 37L48 37L48 36L49 36L49 35L48 35L48 34ZM53 34L53 36L54 36L54 34ZM6 35L6 36L7 36L7 35ZM35 35L35 37L34 37L34 36L33 36L33 37L34 37L34 38L35 38L35 37L36 37L36 35ZM47 35L47 36L48 36L48 35ZM31 36L31 37L32 37L32 36ZM26 37L26 38L24 38L24 39L26 39L26 38L27 38L27 37ZM16 38L16 39L17 39L17 38ZM20 38L20 39L21 39L21 38ZM28 38L28 39L29 39L29 38ZM48 39L48 40L49 40L49 39ZM28 40L28 41L29 41L29 42L30 42L30 41L29 41L29 40ZM43 40L43 41L42 41L42 42L43 42L43 41L44 41L44 40ZM51 40L51 41L49 41L49 42L50 42L50 44L49 44L49 43L48 43L48 44L49 44L49 45L50 45L50 44L52 44L52 45L53 45L53 44L54 44L54 43L55 43L55 42L54 42L54 41L53 41L53 44L52 44L52 40ZM0 41L0 43L1 43L1 41ZM6 42L6 43L5 43L5 44L4 44L4 45L5 45L5 44L6 44L6 45L7 45L7 44L6 44L6 43L7 43L7 42ZM18 43L18 44L19 44L19 43ZM45 43L45 44L44 44L44 45L45 45L45 46L44 46L44 49L45 49L45 50L46 50L46 49L45 49L45 47L46 47L46 44L47 44L47 43ZM42 44L42 45L43 45L43 44ZM15 45L15 46L16 46L16 45ZM24 45L24 47L25 47L25 46L26 46L26 48L27 48L27 46L26 46L26 45ZM1 46L1 47L2 47L2 46ZM19 46L19 47L20 47L20 46ZM6 48L6 49L7 49L7 48ZM9 48L9 49L11 49L11 50L13 50L13 49L11 49L11 48ZM15 49L15 50L16 50L16 49ZM27 49L27 52L30 52L30 49ZM49 49L49 52L52 52L52 49ZM28 50L28 51L29 51L29 50ZM50 50L50 51L51 51L51 50ZM8 51L8 52L9 52L9 53L10 53L10 55L11 55L11 53L10 53L10 52L9 52L9 51ZM23 51L23 52L24 52L24 51ZM25 51L25 54L24 54L24 55L26 55L26 54L27 54L27 55L28 55L28 53L26 53L26 51ZM34 51L34 52L35 52L35 53L34 53L34 54L35 54L35 53L36 53L36 54L37 54L37 53L36 53L36 52L35 52L35 51ZM47 51L47 52L48 52L48 51ZM45 52L45 53L46 53L46 54L47 54L47 53L46 53L46 52ZM31 53L31 54L30 54L30 55L33 55L33 54L32 54L32 53ZM48 53L48 54L49 54L49 53ZM8 54L8 57L9 57L9 54ZM16 54L16 55L17 55L17 54ZM21 54L21 55L22 55L22 56L23 56L23 54ZM40 54L40 56L41 56L41 54ZM45 55L45 56L46 56L46 55ZM36 56L36 57L37 57L37 56ZM51 56L51 57L53 57L53 56ZM56 56L56 57L57 57L57 56ZM0 0L0 7L7 7L7 0ZM1 1L1 6L6 6L6 1ZM2 2L2 5L5 5L5 2ZM50 0L50 7L57 7L57 0ZM51 1L51 6L56 6L56 1ZM52 2L52 5L55 5L55 2ZM0 50L0 57L7 57L7 50ZM1 51L1 56L6 56L6 51ZM2 52L2 55L5 55L5 52Z" fill="#000000"/></g></g></svg>
