<?xml version="1.0" encoding="UTF-8"?>
<svg xmlns="http://www.w3.org/2000/svg" version="1.1" width="300" height="300" viewBox="0 0 300 300"><rect x="0" y="0" width="300" height="300" fill="#fefefe"/><g transform="scale(4.615)"><g transform="translate(4,4)"><path fill-rule="evenodd" d="M11 0L11 1L12 1L12 0ZM19 0L19 2L18 2L18 1L14 1L14 2L10 2L10 1L8 1L8 2L10 2L10 3L13 3L13 4L10 4L10 7L9 7L9 5L8 5L8 7L9 7L9 8L6 8L6 9L5 9L5 8L0 8L0 9L1 9L1 13L0 13L0 18L1 18L1 17L2 17L2 18L3 18L3 16L4 16L4 17L7 17L7 18L6 18L6 19L5 19L5 20L3 20L3 19L2 19L2 20L1 20L1 21L2 21L2 24L1 24L1 22L0 22L0 24L1 24L1 27L0 27L0 28L1 28L1 29L0 29L0 31L1 31L1 30L2 30L2 33L1 33L1 32L0 32L0 34L1 34L1 35L2 35L2 34L3 34L3 32L4 32L4 33L7 33L7 32L6 32L6 31L8 31L8 33L9 33L9 31L10 31L10 34L9 34L9 35L10 35L10 34L12 34L12 33L11 33L11 32L12 32L12 30L13 30L13 31L14 31L14 30L15 30L15 32L13 32L13 34L15 34L15 35L11 35L11 36L10 36L10 37L9 37L9 36L6 36L6 37L5 37L5 36L4 36L4 35L5 35L5 34L4 34L4 35L3 35L3 36L2 36L2 38L1 38L1 37L0 37L0 39L1 39L1 42L2 42L2 40L5 40L5 41L7 41L7 40L5 40L5 39L7 39L7 38L10 38L10 39L11 39L11 40L12 40L12 41L15 41L15 40L16 40L16 39L15 39L15 38L16 38L16 37L15 37L15 36L16 36L16 35L18 35L18 37L17 37L17 38L18 38L18 37L19 37L19 38L20 38L20 39L17 39L17 40L18 40L18 41L17 41L17 42L15 42L15 43L14 43L14 42L13 42L13 43L12 43L12 42L11 42L11 41L10 41L10 40L9 40L9 39L8 39L8 40L9 40L9 41L8 41L8 42L9 42L9 43L8 43L8 46L6 46L6 45L7 45L7 44L6 44L6 43L7 43L7 42L6 42L6 43L4 43L4 42L3 42L3 43L2 43L2 45L1 45L1 46L0 46L0 48L5 48L5 47L8 47L8 46L9 46L9 47L10 47L10 46L11 46L11 48L12 48L12 46L14 46L14 47L13 47L13 48L16 48L16 49L14 49L14 50L13 50L13 49L11 49L11 50L10 50L10 49L9 49L9 48L6 48L6 49L8 49L8 51L10 51L10 52L8 52L8 57L10 57L10 56L11 56L11 57L12 57L12 56L11 56L11 55L10 55L10 54L13 54L13 52L14 52L14 53L16 53L16 54L14 54L14 55L13 55L13 57L15 57L15 56L14 56L14 55L16 55L16 56L17 56L17 57L19 57L19 55L20 55L20 54L19 54L19 53L20 53L20 52L23 52L23 51L19 51L19 50L20 50L20 49L21 49L21 50L25 50L25 51L26 51L26 52L24 52L24 53L23 53L23 54L22 54L22 53L21 53L21 54L22 54L22 55L23 55L23 57L26 57L26 56L24 56L24 55L23 55L23 54L24 54L24 53L25 53L25 55L26 55L26 54L30 54L30 53L31 53L31 50L32 50L32 52L33 52L33 53L32 53L32 54L31 54L31 56L30 56L30 55L29 55L29 56L27 56L27 57L29 57L29 56L30 56L30 57L31 57L31 56L35 56L35 57L39 57L39 56L41 56L41 57L44 57L44 56L41 56L41 55L44 55L44 54L45 54L45 57L49 57L49 56L50 56L50 57L52 57L52 55L51 55L51 53L52 53L52 54L53 54L53 57L54 57L54 56L55 56L55 57L56 57L56 56L55 56L55 54L54 54L54 53L57 53L57 52L56 52L56 51L54 51L54 50L57 50L57 48L56 48L56 46L57 46L57 45L56 45L56 44L57 44L57 43L56 43L56 41L55 41L55 39L57 39L57 37L55 37L55 35L56 35L56 36L57 36L57 35L56 35L56 34L57 34L57 32L56 32L56 30L57 30L57 27L56 27L56 26L57 26L57 25L56 25L56 22L57 22L57 21L56 21L56 22L53 22L53 21L51 21L51 20L52 20L52 19L53 19L53 20L55 20L55 19L56 19L56 16L57 16L57 15L56 15L56 14L57 14L57 12L56 12L56 8L55 8L55 10L54 10L54 11L52 11L52 10L50 10L50 8L47 8L47 10L46 10L46 9L45 9L45 10L44 10L44 8L45 8L45 6L44 6L44 3L47 3L47 5L46 5L46 4L45 4L45 5L46 5L46 7L47 7L47 5L48 5L48 0L46 0L46 1L45 1L45 2L44 2L44 3L41 3L41 2L43 2L43 0L41 0L41 1L40 1L40 0L39 0L39 1L38 1L38 0L37 0L37 1L38 1L38 2L39 2L39 3L38 3L38 4L37 4L37 3L36 3L36 0L35 0L35 1L32 1L32 0L27 0L27 1L26 1L26 0L23 0L23 2L25 2L25 1L26 1L26 2L27 2L27 1L31 1L31 2L32 2L32 3L31 3L31 4L26 4L26 3L23 3L23 4L24 4L24 5L23 5L23 6L22 6L22 7L21 7L21 5L22 5L22 4L19 4L19 2L21 2L21 3L22 3L22 0L21 0L21 1L20 1L20 0ZM46 1L46 2L47 2L47 1ZM14 2L14 4L13 4L13 7L14 7L14 9L13 9L13 8L12 8L12 5L11 5L11 8L9 8L9 9L11 9L11 10L12 10L12 11L10 11L10 10L8 10L8 9L6 9L6 10L8 10L8 11L5 11L5 10L4 10L4 9L3 9L3 11L2 11L2 12L3 12L3 13L4 13L4 12L5 12L5 15L4 15L4 16L5 16L5 15L6 15L6 16L7 16L7 15L8 15L8 18L10 18L10 15L12 15L12 16L13 16L13 14L15 14L15 13L16 13L16 16L15 16L15 15L14 15L14 18L13 18L13 17L11 17L11 19L10 19L10 20L9 20L9 19L8 19L8 20L9 20L9 21L8 21L8 22L10 22L10 23L9 23L9 24L8 24L8 26L9 26L9 24L10 24L10 27L9 27L9 29L10 29L10 30L12 30L12 29L13 29L13 28L14 28L14 29L16 29L16 30L17 30L17 32L19 32L19 33L20 33L20 34L19 34L19 37L21 37L21 38L24 38L24 37L23 37L23 36L24 36L24 34L23 34L23 33L25 33L25 34L26 34L26 33L27 33L27 35L26 35L26 36L25 36L25 40L24 40L24 39L21 39L21 40L19 40L19 41L18 41L18 42L17 42L17 43L18 43L18 42L19 42L19 43L20 43L20 48L21 48L21 49L23 49L23 48L24 48L24 49L25 49L25 50L26 50L26 49L25 49L25 48L24 48L24 47L26 47L26 48L28 48L28 47L26 47L26 45L27 45L27 46L31 46L31 44L30 44L30 43L29 43L29 45L27 45L27 44L25 44L25 43L27 43L27 42L32 42L32 43L33 43L33 44L32 44L32 47L33 47L33 48L32 48L32 50L33 50L33 51L35 51L35 50L36 50L36 52L38 52L38 53L37 53L37 54L40 54L40 53L42 53L42 52L40 52L40 51L39 51L39 52L38 52L38 50L41 50L41 51L42 51L42 50L41 50L41 48L42 48L42 49L43 49L43 50L44 50L44 51L45 51L45 52L44 52L44 53L43 53L43 54L44 54L44 53L45 53L45 54L46 54L46 55L47 55L47 54L48 54L48 50L47 50L47 49L48 49L48 48L51 48L51 46L52 46L52 48L54 48L54 49L56 49L56 48L54 48L54 47L55 47L55 46L56 46L56 45L55 45L55 44L54 44L54 45L52 45L52 44L53 44L53 43L54 43L54 42L53 42L53 41L54 41L54 40L53 40L53 41L51 41L51 42L50 42L50 43L48 43L48 44L47 44L47 45L45 45L45 44L46 44L46 43L45 43L45 42L48 42L48 41L49 41L49 37L48 37L48 36L50 36L50 37L51 37L51 38L50 38L50 39L51 39L51 38L52 38L52 39L55 39L55 37L53 37L53 35L55 35L55 34L54 34L54 33L56 33L56 32L53 32L53 33L52 33L52 32L51 32L51 31L50 31L50 32L49 32L49 31L48 31L48 28L47 28L47 29L46 29L46 30L47 30L47 31L48 31L48 32L43 32L43 30L40 30L40 29L43 29L43 27L44 27L44 26L45 26L45 28L44 28L44 31L45 31L45 28L46 28L46 27L47 27L47 26L48 26L48 25L50 25L50 26L53 26L53 27L54 27L54 26L53 26L53 24L51 24L51 25L50 25L50 22L51 22L51 21L49 21L49 19L50 19L50 18L51 18L51 19L52 19L52 17L53 17L53 18L55 18L55 17L53 17L53 15L54 15L54 13L55 13L55 14L56 14L56 13L55 13L55 12L54 12L54 13L53 13L53 12L52 12L52 13L53 13L53 15L52 15L52 16L51 16L51 15L50 15L50 14L51 14L51 12L50 12L50 10L49 10L49 12L48 12L48 11L47 11L47 12L45 12L45 11L46 11L46 10L45 10L45 11L44 11L44 10L41 10L41 9L43 9L43 8L44 8L44 6L43 6L43 5L42 5L42 6L41 6L41 5L40 5L40 4L41 4L41 3L39 3L39 4L38 4L38 5L37 5L37 4L36 4L36 5L35 5L35 2L33 2L33 3L32 3L32 4L31 4L31 8L32 8L32 10L31 10L31 11L30 11L30 10L29 10L29 12L28 12L28 13L26 13L26 12L27 12L27 11L28 11L28 9L27 9L27 11L26 11L26 12L25 12L25 11L24 11L24 13L22 13L22 12L21 12L21 11L22 11L22 10L23 10L23 9L24 9L24 6L23 6L23 7L22 7L22 8L19 8L19 7L20 7L20 5L19 5L19 4L17 4L17 2ZM28 2L28 3L29 3L29 2ZM8 3L8 4L9 4L9 3ZM15 4L15 5L14 5L14 7L15 7L15 9L17 9L17 10L13 10L13 11L12 11L12 12L11 12L11 13L12 13L12 14L13 14L13 13L15 13L15 11L17 11L17 12L16 12L16 13L17 13L17 14L20 14L20 15L19 15L19 16L18 16L18 15L17 15L17 16L16 16L16 17L18 17L18 18L20 18L20 17L22 17L22 18L24 18L24 19L20 19L20 20L17 20L17 19L16 19L16 18L15 18L15 21L16 21L16 22L15 22L15 23L14 23L14 21L13 21L13 20L14 20L14 19L13 19L13 18L12 18L12 19L11 19L11 20L10 20L10 21L12 21L12 23L13 23L13 24L11 24L11 23L10 23L10 24L11 24L11 26L13 26L13 27L14 27L14 28L15 28L15 27L16 27L16 26L15 26L15 23L16 23L16 24L17 24L17 25L18 25L18 26L17 26L17 27L18 27L18 26L19 26L19 27L20 27L20 28L21 28L21 29L22 29L22 28L21 28L21 27L22 27L22 26L23 26L23 27L24 27L24 26L26 26L26 27L25 27L25 28L26 28L26 29L23 29L23 31L21 31L21 30L20 30L20 29L18 29L18 28L16 28L16 29L18 29L18 30L20 30L20 31L19 31L19 32L20 32L20 33L21 33L21 36L23 36L23 35L22 35L22 33L21 33L21 32L25 32L25 31L26 31L26 32L27 32L27 31L28 31L28 33L29 33L29 34L30 34L30 36L29 36L29 37L31 37L31 38L29 38L29 39L33 39L33 40L35 40L35 42L37 42L37 43L36 43L36 44L35 44L35 43L34 43L34 42L33 42L33 41L32 41L32 40L30 40L30 41L32 41L32 42L33 42L33 43L34 43L34 45L37 45L37 46L36 46L36 48L35 48L35 49L36 49L36 50L38 50L38 49L39 49L39 48L41 48L41 46L43 46L43 47L42 47L42 48L43 48L43 49L44 49L44 50L45 50L45 51L46 51L46 52L47 52L47 51L46 51L46 50L45 50L45 49L47 49L47 48L48 48L48 47L50 47L50 46L51 46L51 43L53 43L53 42L51 42L51 43L50 43L50 46L49 46L49 44L48 44L48 46L45 46L45 45L44 45L44 44L43 44L43 41L44 41L44 42L45 42L45 41L44 41L44 40L47 40L47 39L48 39L48 37L47 37L47 36L48 36L48 35L50 35L50 36L51 36L51 37L52 37L52 35L53 35L53 34L52 34L52 33L51 33L51 32L50 32L50 34L48 34L48 35L44 35L44 33L43 33L43 32L41 32L41 33L39 33L39 34L40 34L40 35L39 35L39 37L40 37L40 38L41 38L41 42L40 42L40 43L42 43L42 44L41 44L41 46L38 46L38 45L39 45L39 42L38 42L38 40L40 40L40 39L38 39L38 37L37 37L37 36L38 36L38 33L37 33L37 32L35 32L35 34L37 34L37 36L35 36L35 35L34 35L34 34L33 34L33 33L32 33L32 32L33 32L33 31L36 31L36 30L37 30L37 29L38 29L38 28L39 28L39 27L37 27L37 28L36 28L36 26L34 26L34 27L33 27L33 26L32 26L32 24L33 24L33 25L37 25L37 26L38 26L38 24L41 24L41 25L39 25L39 26L40 26L40 27L41 27L41 28L42 28L42 26L44 26L44 20L45 20L45 21L47 21L47 22L45 22L45 24L46 24L46 25L48 25L48 24L46 24L46 23L49 23L49 21L47 21L47 20L48 20L48 19L49 19L49 18L50 18L50 17L49 17L49 16L50 16L50 15L49 15L49 14L50 14L50 12L49 12L49 13L47 13L47 14L45 14L45 13L44 13L44 11L43 11L43 13L41 13L41 14L43 14L43 15L42 15L42 16L41 16L41 15L39 15L39 14L38 14L38 13L40 13L40 12L41 12L41 10L40 10L40 9L39 9L39 10L38 10L38 8L40 8L40 7L41 7L41 6L40 6L40 5L39 5L39 6L38 6L38 7L37 7L37 5L36 5L36 7L37 7L37 8L35 8L35 5L34 5L34 4L32 4L32 5L34 5L34 7L33 7L33 6L32 6L32 7L33 7L33 9L34 9L34 8L35 8L35 9L37 9L37 10L36 10L36 12L35 12L35 13L37 13L37 14L38 14L38 15L39 15L39 16L38 16L38 17L37 17L37 16L35 16L35 14L32 14L32 12L33 12L33 13L34 13L34 12L33 12L33 10L32 10L32 11L31 11L31 13L30 13L30 14L29 14L29 13L28 13L28 14L29 14L29 16L28 16L28 15L27 15L27 14L26 14L26 15L24 15L24 14L25 14L25 13L24 13L24 14L22 14L22 13L21 13L21 14L20 14L20 13L19 13L19 10L20 10L20 11L21 11L21 10L22 10L22 9L21 9L21 10L20 10L20 9L19 9L19 8L16 8L16 7L17 7L17 6L18 6L18 7L19 7L19 6L18 6L18 5L17 5L17 6L16 6L16 7L15 7L15 5L16 5L16 4ZM25 4L25 8L26 8L26 4ZM27 5L27 8L30 8L30 5ZM28 6L28 7L29 7L29 6ZM39 6L39 7L40 7L40 6ZM42 6L42 7L43 7L43 6ZM48 6L48 7L49 7L49 6ZM51 8L51 9L52 9L52 8ZM53 8L53 9L54 9L54 8ZM18 9L18 10L17 10L17 11L18 11L18 10L19 10L19 9ZM39 10L39 12L40 12L40 10ZM8 11L8 12L6 12L6 13L7 13L7 14L6 14L6 15L7 15L7 14L8 14L8 15L10 15L10 12L9 12L9 11ZM13 11L13 12L14 12L14 11ZM17 12L17 13L18 13L18 12ZM8 13L8 14L9 14L9 13ZM2 14L2 15L1 15L1 16L2 16L2 15L3 15L3 14ZM30 14L30 15L31 15L31 16L32 16L32 17L31 17L31 18L30 18L30 20L29 20L29 19L28 19L28 18L26 18L26 17L28 17L28 16L27 16L27 15L26 15L26 17L25 17L25 16L24 16L24 15L21 15L21 16L22 16L22 17L25 17L25 18L26 18L26 20L25 20L25 21L24 21L24 20L22 20L22 21L21 21L21 20L20 20L20 21L17 21L17 20L16 20L16 21L17 21L17 24L21 24L21 25L19 25L19 26L20 26L20 27L21 27L21 26L22 26L22 25L24 25L24 24L25 24L25 25L26 25L26 26L27 26L27 25L28 25L28 26L29 26L29 24L25 24L25 23L26 23L26 22L25 22L25 21L27 21L27 23L28 23L28 22L29 22L29 21L30 21L30 20L31 20L31 19L33 19L33 20L32 20L32 21L31 21L31 24L32 24L32 23L35 23L35 19L36 19L36 20L37 20L37 19L39 19L39 17L41 17L41 16L39 16L39 17L38 17L38 18L37 18L37 17L35 17L35 16L32 16L32 15L31 15L31 14ZM44 14L44 18L43 18L43 19L42 19L42 18L41 18L41 20L39 20L39 21L38 21L38 23L37 23L37 24L38 24L38 23L40 23L40 22L39 22L39 21L43 21L43 20L44 20L44 18L47 18L47 17L48 17L48 16L49 16L49 15L48 15L48 16L47 16L47 15L45 15L45 14ZM19 16L19 17L20 17L20 16ZM42 16L42 17L43 17L43 16ZM45 16L45 17L47 17L47 16ZM32 17L32 18L33 18L33 19L35 19L35 18L33 18L33 17ZM6 19L6 20L7 20L7 19ZM27 19L27 20L28 20L28 19ZM2 20L2 21L3 21L3 20ZM33 20L33 21L34 21L34 20ZM4 21L4 23L3 23L3 24L2 24L2 27L1 27L1 28L2 28L2 30L4 30L4 29L3 29L3 28L4 28L4 27L3 27L3 25L4 25L4 26L5 26L5 23L6 23L6 24L7 24L7 23L6 23L6 22L7 22L7 21ZM22 21L22 22L24 22L24 21ZM19 22L19 23L20 23L20 22ZM23 23L23 24L24 24L24 23ZM13 24L13 26L14 26L14 24ZM42 24L42 25L43 25L43 24ZM54 24L54 25L55 25L55 26L56 26L56 25L55 25L55 24ZM6 25L6 26L7 26L7 25ZM31 26L31 28L32 28L32 29L31 29L31 31L30 31L30 32L29 32L29 33L31 33L31 35L32 35L32 33L31 33L31 32L32 32L32 30L35 30L35 28L33 28L33 27L32 27L32 26ZM5 27L5 30L8 30L8 27ZM11 27L11 28L12 28L12 27ZM27 27L27 30L30 30L30 27ZM49 27L49 30L52 30L52 27ZM55 27L55 28L54 28L54 29L53 29L53 31L55 31L55 30L54 30L54 29L56 29L56 27ZM6 28L6 29L7 29L7 28ZM28 28L28 29L29 29L29 28ZM50 28L50 29L51 29L51 28ZM24 30L24 31L25 31L25 30ZM38 30L38 32L39 32L39 30ZM20 31L20 32L21 32L21 31ZM15 32L15 34L17 34L17 33L16 33L16 32ZM48 32L48 33L49 33L49 32ZM6 34L6 35L7 35L7 34ZM42 34L42 35L41 35L41 36L40 36L40 37L41 37L41 38L42 38L42 39L43 39L43 40L42 40L42 41L43 41L43 40L44 40L44 39L45 39L45 38L46 38L46 39L47 39L47 37L45 37L45 36L44 36L44 35L43 35L43 34ZM50 34L50 35L52 35L52 34ZM42 35L42 36L41 36L41 37L42 37L42 38L43 38L43 37L44 37L44 38L45 38L45 37L44 37L44 36L43 36L43 35ZM11 36L11 37L10 37L10 38L11 38L11 39L12 39L12 38L15 38L15 37L14 37L14 36ZM26 36L26 40L27 40L27 41L26 41L26 42L27 42L27 41L29 41L29 40L28 40L28 39L27 39L27 38L28 38L28 37L27 37L27 36ZM32 36L32 37L33 37L33 38L35 38L35 37L33 37L33 36ZM3 37L3 38L2 38L2 39L4 39L4 37ZM6 37L6 38L7 38L7 37ZM13 39L13 40L14 40L14 39ZM35 39L35 40L38 40L38 39ZM19 41L19 42L20 42L20 41ZM21 41L21 42L22 42L22 43L21 43L21 44L22 44L22 45L21 45L21 47L24 47L24 46L25 46L25 45L24 45L24 44L23 44L23 42L25 42L25 41L23 41L23 42L22 42L22 41ZM10 42L10 43L9 43L9 44L10 44L10 43L11 43L11 42ZM0 43L0 44L1 44L1 43ZM3 43L3 45L2 45L2 46L1 46L1 47L2 47L2 46L3 46L3 47L5 47L5 45L4 45L4 43ZM13 43L13 44L11 44L11 45L15 45L15 46L17 46L17 45L18 45L18 44L17 44L17 45L16 45L16 44L14 44L14 43ZM22 45L22 46L23 46L23 45ZM33 46L33 47L35 47L35 46ZM44 46L44 47L43 47L43 48L44 48L44 49L45 49L45 46ZM53 46L53 47L54 47L54 46ZM38 47L38 48L37 48L37 49L38 49L38 48L39 48L39 47ZM33 48L33 49L34 49L34 48ZM16 49L16 51L15 51L15 52L16 52L16 53L17 53L17 52L19 52L19 51L18 51L18 49ZM27 49L27 52L30 52L30 49ZM49 49L49 52L52 52L52 49ZM11 50L11 52L10 52L10 53L12 53L12 52L13 52L13 51L12 51L12 50ZM28 50L28 51L29 51L29 50ZM50 50L50 51L51 51L51 50ZM16 51L16 52L17 52L17 51ZM53 52L53 53L54 53L54 52ZM33 53L33 55L35 55L35 56L36 56L36 54L35 54L35 53ZM9 55L9 56L10 56L10 55ZM37 55L37 56L39 56L39 55ZM48 55L48 56L49 56L49 55ZM50 55L50 56L51 56L51 55ZM0 0L0 7L7 7L7 0ZM1 1L1 6L6 6L6 1ZM2 2L2 5L5 5L5 2ZM50 0L50 7L57 7L57 0ZM51 1L51 6L56 6L56 1ZM52 2L52 5L55 5L55 2ZM0 50L0 57L7 57L7 50ZM1 51L1 56L6 56L6 51ZM2 52L2 55L5 55L5 52Z" fill="#000000"/></g></g></svg>
