<?xml version="1.0" encoding="UTF-8"?>
<svg xmlns="http://www.w3.org/2000/svg" version="1.1" width="300" height="300" viewBox="0 0 300 300"><rect x="0" y="0" width="300" height="300" fill="#fefefe"/><g transform="scale(4.615)"><g transform="translate(4,4)"><path fill-rule="evenodd" d="M8 0L8 2L9 2L9 4L8 4L8 9L7 9L7 8L5 8L5 9L7 9L7 10L5 10L5 12L4 12L4 11L3 11L3 12L2 12L2 11L1 11L1 12L0 12L0 13L1 13L1 14L0 14L0 18L1 18L1 16L2 16L2 15L1 15L1 14L4 14L4 15L3 15L3 16L4 16L4 17L2 17L2 18L5 18L5 19L0 19L0 21L1 21L1 22L2 22L2 21L1 21L1 20L3 20L3 23L2 23L2 24L0 24L0 26L1 26L1 27L0 27L0 31L3 31L3 27L4 27L4 32L0 32L0 38L2 38L2 40L1 40L1 39L0 39L0 43L2 43L2 42L3 42L3 43L7 43L7 44L6 44L6 45L5 45L5 47L3 47L3 45L4 45L4 44L2 44L2 47L1 47L1 46L0 46L0 48L5 48L5 47L7 47L7 48L6 48L6 49L8 49L8 50L10 50L10 49L11 49L11 50L12 50L12 51L8 51L8 52L12 52L12 53L13 53L13 54L12 54L12 55L10 55L10 54L11 54L11 53L10 53L10 54L8 54L8 57L11 57L11 56L12 56L12 57L17 57L17 55L18 55L18 57L19 57L19 55L18 55L18 53L19 53L19 52L20 52L20 53L21 53L21 54L20 54L20 55L21 55L21 56L20 56L20 57L21 57L21 56L22 56L22 57L25 57L25 55L26 55L26 57L28 57L28 55L29 55L29 57L33 57L33 55L30 55L30 54L31 54L31 53L32 53L32 54L34 54L34 57L35 57L35 55L38 55L38 53L39 53L39 56L40 56L40 57L41 57L41 56L43 56L43 54L42 54L42 53L43 53L43 52L44 52L44 57L46 57L46 56L48 56L48 57L50 57L50 55L49 55L49 54L52 54L52 55L53 55L53 53L54 53L54 55L57 55L57 54L55 54L55 53L56 53L56 52L57 52L57 49L56 49L56 47L57 47L57 44L56 44L56 47L55 47L55 46L54 46L54 45L53 45L53 44L54 44L54 43L55 43L55 42L54 42L54 41L57 41L57 40L54 40L54 38L57 38L57 37L56 37L56 36L57 36L57 33L56 33L56 31L57 31L57 29L55 29L55 30L54 30L54 29L53 29L53 28L54 28L54 27L55 27L55 28L56 28L56 27L57 27L57 24L56 24L56 23L57 23L57 21L56 21L56 20L55 20L55 21L54 21L54 19L57 19L57 10L56 10L56 9L57 9L57 8L55 8L55 9L54 9L54 10L52 10L52 12L51 12L51 11L50 11L50 9L53 9L53 8L49 8L49 6L48 6L48 8L47 8L47 10L48 10L48 8L49 8L49 11L48 11L48 12L47 12L47 11L46 11L46 7L47 7L47 5L48 5L48 0L46 0L46 1L47 1L47 2L45 2L45 4L44 4L44 2L43 2L43 4L42 4L42 1L45 1L45 0L42 0L42 1L41 1L41 0L38 0L38 2L39 2L39 4L38 4L38 5L39 5L39 4L40 4L40 2L41 2L41 4L42 4L42 5L41 5L41 6L40 6L40 7L39 7L39 6L38 6L38 8L37 8L37 6L36 6L36 10L34 10L34 9L35 9L35 4L36 4L36 3L34 3L34 2L37 2L37 1L35 1L35 0L34 0L34 2L33 2L33 4L34 4L34 5L33 5L33 6L32 6L32 7L33 7L33 6L34 6L34 8L32 8L32 9L31 9L31 5L32 5L32 2L31 2L31 1L32 1L32 0L30 0L30 1L29 1L29 2L28 2L28 0L26 0L26 2L25 2L25 4L24 4L24 1L25 1L25 0L24 0L24 1L23 1L23 0L20 0L20 1L19 1L19 0L18 0L18 1L17 1L17 0L16 0L16 2L15 2L15 0L14 0L14 3L13 3L13 6L12 6L12 7L13 7L13 6L14 6L14 7L15 7L15 6L16 6L16 7L17 7L17 8L18 8L18 9L17 9L17 10L16 10L16 12L17 12L17 14L15 14L15 15L17 15L17 14L18 14L18 18L14 18L14 17L15 17L15 16L14 16L14 14L13 14L13 11L12 11L12 12L9 12L9 10L8 10L8 9L10 9L10 8L11 8L11 9L13 9L13 10L14 10L14 9L15 9L15 8L14 8L14 9L13 9L13 8L11 8L11 6L10 6L10 7L9 7L9 5L10 5L10 4L11 4L11 5L12 5L12 1L13 1L13 0L11 0L11 1L10 1L10 0ZM18 1L18 2L19 2L19 1ZM20 1L20 2L22 2L22 4L23 4L23 2L22 2L22 1ZM39 1L39 2L40 2L40 1ZM27 2L27 3L26 3L26 4L27 4L27 3L28 3L28 4L31 4L31 3L30 3L30 2L29 2L29 3L28 3L28 2ZM14 3L14 4L15 4L15 3ZM16 3L16 4L17 4L17 5L16 5L16 6L17 6L17 7L18 7L18 8L19 8L19 7L20 7L20 5L21 5L21 9L20 9L20 10L19 10L19 9L18 9L18 10L19 10L19 11L18 11L18 12L20 12L20 14L19 14L19 13L18 13L18 14L19 14L19 15L20 15L20 18L21 18L21 19L19 19L19 21L18 21L18 20L17 20L17 21L18 21L18 22L16 22L16 23L17 23L17 25L16 25L16 24L14 24L14 23L15 23L15 21L14 21L14 23L13 23L13 25L12 25L12 27L11 27L11 26L10 26L10 24L12 24L12 23L8 23L8 22L7 22L7 21L6 21L6 20L8 20L8 19L9 19L9 18L10 18L10 17L9 17L9 14L10 14L10 13L9 13L9 12L8 12L8 10L7 10L7 11L6 11L6 12L5 12L5 13L6 13L6 14L8 14L8 15L6 15L6 16L5 16L5 17L6 17L6 18L7 18L7 19L6 19L6 20L5 20L5 21L6 21L6 22L7 22L7 23L3 23L3 24L2 24L2 25L3 25L3 26L4 26L4 24L5 24L5 25L6 25L6 26L10 26L10 28L12 28L12 27L13 27L13 29L15 29L15 30L14 30L14 31L15 31L15 32L14 32L14 33L13 33L13 31L12 31L12 30L9 30L9 31L5 31L5 33L4 33L4 35L3 35L3 37L2 37L2 38L3 38L3 37L4 37L4 38L5 38L5 39L3 39L3 41L4 41L4 42L5 42L5 41L4 41L4 40L7 40L7 41L6 41L6 42L7 42L7 43L8 43L8 42L9 42L9 43L10 43L10 42L9 42L9 40L10 40L10 41L11 41L11 44L12 44L12 45L11 45L11 47L10 47L10 48L11 48L11 47L13 47L13 46L14 46L14 45L16 45L16 47L15 47L15 48L16 48L16 47L17 47L17 44L14 44L14 43L15 43L15 40L16 40L16 43L17 43L17 42L18 42L18 40L19 40L19 41L20 41L20 42L19 42L19 43L18 43L18 44L19 44L19 45L18 45L18 48L17 48L17 49L16 49L16 51L17 51L17 53L18 53L18 52L19 52L19 51L18 51L18 50L19 50L19 49L18 49L18 48L21 48L21 49L20 49L20 51L21 51L21 50L22 50L22 48L23 48L23 49L24 49L24 51L22 51L22 52L24 52L24 51L25 51L25 53L26 53L26 55L28 55L28 53L26 53L26 51L25 51L25 50L26 50L26 48L27 48L27 47L28 47L28 48L29 48L29 47L30 47L30 48L31 48L31 50L32 50L32 51L31 51L31 52L32 52L32 51L34 51L34 52L33 52L33 53L34 53L34 54L35 54L35 53L36 53L36 54L37 54L37 53L36 53L36 52L35 52L35 51L37 51L37 49L36 49L36 48L37 48L37 47L38 47L38 52L39 52L39 53L40 53L40 52L39 52L39 49L40 49L40 51L41 51L41 53L42 53L42 51L41 51L41 49L42 49L42 50L43 50L43 49L44 49L44 48L45 48L45 49L46 49L46 51L45 51L45 50L44 50L44 51L45 51L45 52L46 52L46 54L47 54L47 55L48 55L48 54L49 54L49 53L48 53L48 54L47 54L47 52L48 52L48 51L47 51L47 49L46 49L46 48L47 48L47 46L48 46L48 45L49 45L49 47L50 47L50 46L51 46L51 45L52 45L52 46L53 46L53 45L52 45L52 44L53 44L53 39L52 39L52 38L54 38L54 36L55 36L55 35L56 35L56 34L55 34L55 33L53 33L53 31L52 31L52 32L50 32L50 33L49 33L49 34L48 34L48 33L47 33L47 30L48 30L48 28L46 28L46 29L44 29L44 28L42 28L42 31L40 31L40 30L41 30L41 29L40 29L40 27L43 27L43 25L44 25L44 27L46 27L46 26L47 26L47 25L46 25L46 23L47 23L47 21L48 21L48 23L49 23L49 22L50 22L50 23L51 23L51 22L52 22L52 24L50 24L50 26L53 26L53 25L54 25L54 26L55 26L55 27L56 27L56 26L55 26L55 25L56 25L56 24L55 24L55 23L56 23L56 21L55 21L55 23L54 23L54 21L53 21L53 22L52 22L52 20L53 20L53 19L54 19L54 16L55 16L55 17L56 17L56 16L55 16L55 15L56 15L56 12L55 12L55 11L56 11L56 10L55 10L55 11L54 11L54 12L53 12L53 14L52 14L52 13L50 13L50 11L49 11L49 12L48 12L48 14L47 14L47 13L46 13L46 11L45 11L45 9L44 9L44 10L43 10L43 7L44 7L44 6L45 6L45 7L46 7L46 6L45 6L45 5L44 5L44 4L43 4L43 5L42 5L42 6L41 6L41 7L40 7L40 8L38 8L38 11L39 11L39 12L37 12L37 13L36 13L36 11L34 11L34 10L33 10L33 9L32 9L32 11L31 11L31 12L30 12L30 11L29 11L29 12L30 12L30 13L29 13L29 15L28 15L28 14L27 14L27 15L26 15L26 16L24 16L24 18L25 18L25 17L26 17L26 16L27 16L27 19L26 19L26 20L27 20L27 22L26 22L26 23L27 23L27 25L26 25L26 26L28 26L28 23L29 23L29 26L31 26L31 25L32 25L32 27L31 27L31 29L32 29L32 28L33 28L33 29L34 29L34 31L32 31L32 30L31 30L31 32L30 32L30 34L31 34L31 33L32 33L32 35L34 35L34 34L35 34L35 33L36 33L36 35L35 35L35 37L34 37L34 36L33 36L33 37L34 37L34 38L35 38L35 41L34 41L34 39L33 39L33 38L31 38L31 41L29 41L29 40L30 40L30 36L31 36L31 37L32 37L32 36L31 36L31 35L28 35L28 34L29 34L29 31L28 31L28 32L27 32L27 33L26 33L26 32L24 32L24 31L23 31L23 32L24 32L24 34L25 34L25 35L23 35L23 33L22 33L22 30L23 30L23 29L22 29L22 30L21 30L21 29L20 29L20 31L18 31L18 30L19 30L19 28L20 28L20 27L21 27L21 23L22 23L22 24L23 24L23 21L22 21L22 19L23 19L23 18L21 18L21 15L20 15L20 14L22 14L22 16L23 16L23 12L22 12L22 11L24 11L24 10L25 10L25 11L26 11L26 13L25 13L25 12L24 12L24 15L25 15L25 14L26 14L26 13L27 13L27 12L28 12L28 10L29 10L29 9L27 9L27 10L25 10L25 9L26 9L26 5L24 5L24 6L23 6L23 9L22 9L22 5L21 5L21 3ZM46 3L46 5L47 5L47 3ZM14 5L14 6L15 6L15 5ZM17 5L17 6L18 6L18 7L19 7L19 5ZM27 5L27 8L30 8L30 5ZM43 5L43 6L42 6L42 7L43 7L43 6L44 6L44 5ZM24 6L24 7L25 7L25 6ZM28 6L28 7L29 7L29 6ZM0 8L0 10L1 10L1 9L2 9L2 10L4 10L4 9L3 9L3 8ZM40 8L40 9L41 9L41 11L40 11L40 10L39 10L39 11L40 11L40 13L41 13L41 15L40 15L40 18L38 18L38 16L37 16L37 15L38 15L38 13L37 13L37 14L36 14L36 18L34 18L34 17L35 17L35 15L34 15L34 13L35 13L35 12L34 12L34 11L33 11L33 12L32 12L32 13L31 13L31 14L32 14L32 13L33 13L33 15L31 15L31 16L30 16L30 15L29 15L29 16L30 16L30 17L28 17L28 18L30 18L30 17L31 17L31 20L32 20L32 21L33 21L33 22L31 22L31 23L30 23L30 25L31 25L31 23L32 23L32 25L33 25L33 26L34 26L34 24L36 24L36 26L37 26L37 28L36 28L36 30L35 30L35 31L34 31L34 33L33 33L33 32L32 32L32 33L33 33L33 34L34 34L34 33L35 33L35 31L36 31L36 33L37 33L37 34L38 34L38 35L36 35L36 37L35 37L35 38L36 38L36 41L35 41L35 42L34 42L34 41L33 41L33 40L32 40L32 43L31 43L31 42L30 42L30 43L28 43L28 40L27 40L27 39L26 39L26 40L25 40L25 41L26 41L26 42L25 42L25 43L24 43L24 40L22 40L22 39L23 39L23 36L22 36L22 34L21 34L21 36L19 36L19 35L20 35L20 33L19 33L19 32L18 32L18 34L17 34L17 35L18 35L18 37L17 37L17 36L16 36L16 35L14 35L14 36L12 36L12 38L11 38L11 35L13 35L13 33L12 33L12 32L11 32L11 31L9 31L9 32L8 32L8 33L7 33L7 32L6 32L6 33L7 33L7 34L6 34L6 35L7 35L7 36L5 36L5 37L7 37L7 38L6 38L6 39L10 39L10 38L11 38L11 39L12 39L12 40L13 40L13 39L14 39L14 40L15 40L15 39L14 39L14 37L15 37L15 36L16 36L16 37L17 37L17 38L16 38L16 39L17 39L17 38L18 38L18 39L19 39L19 40L20 40L20 41L21 41L21 40L22 40L22 41L23 41L23 43L22 43L22 44L23 44L23 47L24 47L24 48L26 48L26 46L28 46L28 45L31 45L31 46L30 46L30 47L31 47L31 48L32 48L32 49L33 49L33 50L34 50L34 49L33 49L33 48L34 48L34 45L33 45L33 44L36 44L36 45L35 45L35 47L36 47L36 45L37 45L37 46L38 46L38 45L37 45L37 44L40 44L40 46L41 46L41 47L40 47L40 49L41 49L41 47L42 47L42 45L43 45L43 44L42 44L42 45L41 45L41 44L40 44L40 43L44 43L44 42L46 42L46 41L48 41L48 40L51 40L51 41L49 41L49 42L50 42L50 44L49 44L49 43L48 43L48 44L47 44L47 43L45 43L45 44L44 44L44 45L45 45L45 46L44 46L44 47L45 47L45 48L46 48L46 44L47 44L47 45L48 45L48 44L49 44L49 45L51 45L51 44L52 44L52 40L51 40L51 38L52 38L52 37L53 37L53 36L54 36L54 34L53 34L53 36L51 36L51 33L50 33L50 36L49 36L49 35L48 35L48 34L46 34L46 30L45 30L45 31L42 31L42 33L41 33L41 32L40 32L40 31L38 31L38 30L37 30L37 28L38 28L38 29L39 29L39 27L40 27L40 25L41 25L41 24L42 24L42 25L43 25L43 24L42 24L42 23L43 23L43 22L44 22L44 23L45 23L45 22L44 22L44 21L45 21L45 20L46 20L46 21L47 21L47 20L48 20L48 19L47 19L47 18L48 18L48 17L49 17L49 20L51 20L51 18L50 18L50 17L51 17L51 16L52 16L52 18L53 18L53 16L54 16L54 14L53 14L53 16L52 16L52 14L51 14L51 16L50 16L50 13L49 13L49 14L48 14L48 15L46 15L46 13L45 13L45 12L44 12L44 11L43 11L43 10L42 10L42 8ZM23 9L23 10L24 10L24 9ZM30 9L30 10L31 10L31 9ZM10 10L10 11L11 11L11 10ZM20 10L20 12L21 12L21 10ZM14 11L14 12L15 12L15 11ZM41 11L41 12L42 12L42 15L41 15L41 17L42 17L42 18L43 18L43 17L44 17L44 19L42 19L42 20L43 20L43 21L42 21L42 22L40 22L40 19L41 19L41 18L40 18L40 19L39 19L39 21L38 21L38 20L37 20L37 21L36 21L36 20L34 20L34 18L32 18L32 19L33 19L33 20L34 20L34 22L35 22L35 23L36 23L36 24L37 24L37 25L38 25L38 26L39 26L39 25L40 25L40 24L39 24L39 25L38 25L38 22L39 22L39 23L42 23L42 22L43 22L43 21L44 21L44 19L46 19L46 20L47 20L47 19L46 19L46 18L47 18L47 17L46 17L46 18L45 18L45 17L44 17L44 16L46 16L46 15L45 15L45 14L44 14L44 12L42 12L42 11ZM1 12L1 13L2 13L2 12ZM6 12L6 13L7 13L7 12ZM11 13L11 14L12 14L12 13ZM43 14L43 16L44 16L44 14ZM11 15L11 16L12 16L12 17L11 17L11 18L12 18L12 19L11 19L11 21L12 21L12 22L13 22L13 21L12 21L12 20L13 20L13 17L14 17L14 16L12 16L12 15ZM33 15L33 17L34 17L34 15ZM6 16L6 17L8 17L8 18L9 18L9 17L8 17L8 16ZM36 18L36 19L37 19L37 18ZM14 19L14 20L16 20L16 19ZM24 19L24 20L25 20L25 19ZM9 20L9 21L10 21L10 20ZM20 20L20 21L21 21L21 22L20 22L20 23L21 23L21 22L22 22L22 21L21 21L21 20ZM28 20L28 22L27 22L27 23L28 23L28 22L29 22L29 20ZM35 21L35 22L36 22L36 23L37 23L37 22L38 22L38 21L37 21L37 22L36 22L36 21ZM18 22L18 23L19 23L19 22ZM24 22L24 23L25 23L25 22ZM7 23L7 24L6 24L6 25L7 25L7 24L8 24L8 23ZM33 23L33 24L34 24L34 23ZM53 23L53 24L52 24L52 25L53 25L53 24L54 24L54 23ZM18 24L18 26L19 26L19 27L18 27L18 28L19 28L19 27L20 27L20 24ZM44 24L44 25L45 25L45 26L46 26L46 25L45 25L45 24ZM48 24L48 26L49 26L49 24ZM13 25L13 26L14 26L14 25ZM15 25L15 26L16 26L16 27L15 27L15 28L17 28L17 26L16 26L16 25ZM24 25L24 26L25 26L25 25ZM1 27L1 28L2 28L2 27ZM5 27L5 30L8 30L8 27ZM22 27L22 28L24 28L24 27ZM27 27L27 30L30 30L30 27ZM34 27L34 29L35 29L35 27ZM49 27L49 30L52 30L52 27ZM6 28L6 29L7 29L7 28ZM28 28L28 29L29 29L29 28ZM50 28L50 29L51 29L51 28ZM24 29L24 30L25 30L25 31L26 31L26 30L25 30L25 29ZM43 29L43 30L44 30L44 29ZM15 30L15 31L16 31L16 32L17 32L17 31L16 31L16 30ZM36 30L36 31L37 31L37 32L38 32L38 31L37 31L37 30ZM55 30L55 31L54 31L54 32L55 32L55 31L56 31L56 30ZM20 31L20 32L21 32L21 31ZM9 32L9 33L8 33L8 35L9 35L9 36L7 36L7 37L8 37L8 38L10 38L10 35L11 35L11 34L12 34L12 33L11 33L11 32ZM39 32L39 33L38 33L38 34L39 34L39 35L38 35L38 36L40 36L40 35L41 35L41 36L42 36L42 40L43 40L43 41L42 41L42 42L43 42L43 41L44 41L44 40L43 40L43 38L44 38L44 34L45 34L45 36L46 36L46 38L45 38L45 41L46 41L46 38L47 38L47 40L48 40L48 38L49 38L49 39L50 39L50 38L51 38L51 36L50 36L50 38L49 38L49 36L48 36L48 35L46 35L46 34L45 34L45 33L44 33L44 34L43 34L43 33L42 33L42 34L40 34L40 32ZM9 33L9 35L10 35L10 34L11 34L11 33ZM15 33L15 34L16 34L16 33ZM27 33L27 34L28 34L28 33ZM1 34L1 35L2 35L2 34ZM25 35L25 36L24 36L24 37L26 37L26 38L27 38L27 37L26 37L26 35ZM27 35L27 36L28 36L28 37L29 37L29 36L28 36L28 35ZM42 35L42 36L43 36L43 35ZM21 36L21 38L20 38L20 39L21 39L21 38L22 38L22 36ZM47 36L47 37L48 37L48 36ZM18 37L18 38L19 38L19 37ZM36 37L36 38L37 38L37 37ZM38 37L38 39L37 39L37 41L36 41L36 44L37 44L37 43L40 43L40 42L39 42L39 41L40 41L40 40L41 40L41 39L40 39L40 38L39 38L39 37ZM12 38L12 39L13 39L13 38ZM24 38L24 39L25 39L25 38ZM28 38L28 39L29 39L29 38ZM38 39L38 41L37 41L37 42L38 42L38 41L39 41L39 39ZM1 41L1 42L2 42L2 41ZM12 42L12 43L13 43L13 42ZM56 42L56 43L57 43L57 42ZM19 43L19 44L20 44L20 45L19 45L19 46L20 46L20 47L21 47L21 48L22 48L22 46L20 46L20 45L21 45L21 44L20 44L20 43ZM23 43L23 44L24 44L24 43ZM27 43L27 44L28 44L28 43ZM30 43L30 44L31 44L31 45L32 45L32 48L33 48L33 45L32 45L32 44L31 44L31 43ZM0 44L0 45L1 45L1 44ZM7 44L7 45L6 45L6 46L7 46L7 47L9 47L9 46L10 46L10 44ZM13 44L13 45L14 45L14 44ZM24 45L24 47L25 47L25 46L26 46L26 45ZM52 47L52 48L53 48L53 47ZM54 47L54 50L53 50L53 51L54 51L54 52L56 52L56 49L55 49L55 47ZM8 48L8 49L9 49L9 48ZM27 49L27 52L30 52L30 49ZM49 49L49 52L52 52L52 49ZM13 50L13 51L12 51L12 52L13 52L13 53L14 53L14 55L15 55L15 53L14 53L14 51L15 51L15 50ZM28 50L28 51L29 51L29 50ZM50 50L50 51L51 51L51 50ZM46 51L46 52L47 52L47 51ZM16 54L16 55L17 55L17 54ZM21 54L21 55L23 55L23 54ZM24 54L24 55L25 55L25 54ZM40 54L40 56L41 56L41 54ZM9 55L9 56L10 56L10 55ZM12 55L12 56L13 56L13 55ZM45 55L45 56L46 56L46 55ZM36 56L36 57L37 57L37 56ZM51 56L51 57L53 57L53 56ZM56 56L56 57L57 57L57 56ZM0 0L0 7L7 7L7 0ZM1 1L1 6L6 6L6 1ZM2 2L2 5L5 5L5 2ZM50 0L50 7L57 7L57 0ZM51 1L51 6L56 6L56 1ZM52 2L52 5L55 5L55 2ZM0 50L0 57L7 57L7 50ZM1 51L1 56L6 56L6 51ZM2 52L2 55L5 55L5 52Z" fill="#000000"/></g></g></svg>
