<?xml version="1.0" encoding="UTF-8"?>
<svg xmlns="http://www.w3.org/2000/svg" version="1.1" width="300" height="300" viewBox="0 0 300 300"><rect x="0" y="0" width="300" height="300" fill="#fefefe"/><g transform="scale(4.615)"><g transform="translate(4,4)"><path fill-rule="evenodd" d="M8 0L8 2L9 2L9 0ZM11 0L11 2L10 2L10 5L9 5L9 4L8 4L8 9L7 9L7 8L5 8L5 9L7 9L7 10L6 10L6 11L7 11L7 12L4 12L4 13L3 13L3 14L2 14L2 13L0 13L0 15L1 15L1 14L2 14L2 15L3 15L3 16L2 16L2 17L1 17L1 16L0 16L0 17L1 17L1 18L0 18L0 21L1 21L1 22L0 22L0 24L1 24L1 25L0 25L0 26L1 26L1 27L3 27L3 28L1 28L1 29L0 29L0 32L1 32L1 33L0 33L0 37L2 37L2 38L1 38L1 39L2 39L2 38L4 38L4 36L5 36L5 33L4 33L4 31L5 31L5 32L6 32L6 33L7 33L7 32L8 32L8 31L9 31L9 30L14 30L14 31L16 31L16 32L18 32L18 33L17 33L17 34L16 34L16 33L14 33L14 35L13 35L13 33L12 33L12 34L11 34L11 33L9 33L9 34L8 34L8 36L9 36L9 35L10 35L10 36L11 36L11 37L10 37L10 40L11 40L11 37L13 37L13 38L14 38L14 40L13 40L13 39L12 39L12 42L11 42L11 43L10 43L10 41L9 41L9 42L8 42L8 43L7 43L7 42L5 42L5 41L7 41L7 40L6 40L6 39L8 39L8 40L9 40L9 39L8 39L8 37L7 37L7 36L6 36L6 37L7 37L7 38L5 38L5 41L4 41L4 39L3 39L3 41L4 41L4 42L3 42L3 44L4 44L4 43L7 43L7 44L5 44L5 45L4 45L4 46L5 46L5 47L3 47L3 46L2 46L2 47L1 47L1 45L2 45L2 43L1 43L1 42L0 42L0 43L1 43L1 44L0 44L0 48L5 48L5 47L7 47L7 46L6 46L6 45L7 45L7 44L9 44L9 43L10 43L10 44L12 44L12 45L11 45L11 46L10 46L10 48L9 48L9 49L8 49L8 48L6 48L6 49L8 49L8 50L9 50L9 51L8 51L8 52L9 52L9 51L11 51L11 50L12 50L12 49L11 49L11 48L13 48L13 49L14 49L14 47L15 47L15 48L16 48L16 47L18 47L18 49L17 49L17 50L16 50L16 51L15 51L15 52L14 52L14 51L13 51L13 52L14 52L14 53L11 53L11 52L10 52L10 53L11 53L11 54L10 54L10 55L9 55L9 54L8 54L8 57L9 57L9 56L10 56L10 57L11 57L11 56L12 56L12 57L14 57L14 53L15 53L15 57L17 57L17 55L18 55L18 54L19 54L19 51L20 51L20 53L21 53L21 54L20 54L20 55L21 55L21 56L18 56L18 57L21 57L21 56L22 56L22 57L23 57L23 56L24 56L24 57L25 57L25 55L26 55L26 57L28 57L28 55L29 55L29 57L33 57L33 55L34 55L34 57L35 57L35 55L37 55L37 54L36 54L36 53L37 53L37 51L38 51L38 53L39 53L39 56L40 56L40 57L41 57L41 55L42 55L42 57L43 57L43 54L42 54L42 53L43 53L43 52L44 52L44 55L46 55L46 56L44 56L44 57L46 57L46 56L47 56L47 57L50 57L50 55L49 55L49 54L52 54L52 55L53 55L53 56L51 56L51 57L53 57L53 56L54 56L54 55L57 55L57 54L55 54L55 52L54 52L54 51L53 51L53 50L54 50L54 49L55 49L55 51L57 51L57 49L56 49L56 47L57 47L57 42L56 42L56 43L55 43L55 42L54 42L54 41L57 41L57 40L54 40L54 39L55 39L55 38L57 38L57 34L56 34L56 31L57 31L57 29L56 29L56 27L57 27L57 24L56 24L56 23L57 23L57 18L56 18L56 17L57 17L57 12L56 12L56 11L57 11L57 10L56 10L56 11L55 11L55 9L57 9L57 8L55 8L55 9L54 9L54 10L53 10L53 8L49 8L49 6L48 6L48 8L47 8L47 11L46 11L46 8L44 8L44 9L43 9L43 8L42 8L42 7L43 7L43 6L44 6L44 7L45 7L45 6L44 6L44 5L45 5L45 4L46 4L46 3L47 3L47 5L46 5L46 7L47 7L47 5L48 5L48 0L46 0L46 1L47 1L47 2L45 2L45 4L44 4L44 2L43 2L43 3L42 3L42 5L41 5L41 6L40 6L40 7L41 7L41 8L40 8L40 9L39 9L39 6L38 6L38 5L39 5L39 4L40 4L40 2L42 2L42 1L45 1L45 0L42 0L42 1L41 1L41 0L38 0L38 2L37 2L37 1L35 1L35 0L34 0L34 3L33 3L33 6L32 6L32 7L33 7L33 6L34 6L34 8L32 8L32 9L31 9L31 5L32 5L32 0L30 0L30 1L31 1L31 2L29 2L29 3L30 3L30 4L26 4L26 3L27 3L27 1L28 1L28 0L26 0L26 2L25 2L25 4L24 4L24 1L25 1L25 0L24 0L24 1L23 1L23 0L20 0L20 1L19 1L19 0L18 0L18 1L17 1L17 0L16 0L16 2L15 2L15 0L13 0L13 1L14 1L14 3L11 3L11 2L12 2L12 0ZM18 1L18 2L19 2L19 1ZM20 1L20 3L17 3L17 2L16 2L16 4L17 4L17 5L16 5L16 6L15 6L15 7L14 7L14 5L13 5L13 7L14 7L14 8L13 8L13 9L12 9L12 8L11 8L11 7L12 7L12 5L11 5L11 7L10 7L10 6L9 6L9 7L10 7L10 9L9 9L9 10L7 10L7 11L8 11L8 12L7 12L7 13L6 13L6 14L5 14L5 16L7 16L7 15L8 15L8 16L9 16L9 14L10 14L10 15L11 15L11 14L10 14L10 11L11 11L11 10L12 10L12 11L13 11L13 12L11 12L11 13L13 13L13 14L12 14L12 16L10 16L10 17L11 17L11 19L12 19L12 21L11 21L11 23L10 23L10 21L9 21L9 20L10 20L10 18L9 18L9 19L8 19L8 21L9 21L9 22L7 22L7 21L6 21L6 22L4 22L4 24L7 24L7 23L8 23L8 24L9 24L9 28L10 28L10 29L13 29L13 28L15 28L15 30L16 30L16 31L17 31L17 30L19 30L19 28L20 28L20 26L22 26L22 22L21 22L21 21L20 21L20 20L21 20L21 19L22 19L22 20L23 20L23 19L22 19L22 18L21 18L21 17L20 17L20 16L21 16L21 15L20 15L20 16L19 16L19 17L20 17L20 19L18 19L18 20L17 20L17 18L18 18L18 14L19 14L19 13L20 13L20 14L22 14L22 16L24 16L24 18L26 18L26 17L27 17L27 19L26 19L26 20L25 20L25 19L24 19L24 20L25 20L25 21L26 21L26 20L27 20L27 21L28 21L28 20L30 20L30 22L33 22L33 24L34 24L34 26L33 26L33 25L32 25L32 23L31 23L31 24L30 24L30 26L31 26L31 25L32 25L32 27L31 27L31 29L32 29L32 32L30 32L30 31L29 31L29 32L28 32L28 31L27 31L27 33L26 33L26 30L25 30L25 27L24 27L24 26L25 26L25 25L24 25L24 24L23 24L23 25L24 25L24 26L23 26L23 27L22 27L22 28L24 28L24 30L23 30L23 29L22 29L22 30L21 30L21 29L20 29L20 31L21 31L21 32L19 32L19 34L20 34L20 35L19 35L19 36L20 36L20 35L21 35L21 34L23 34L23 33L22 33L22 30L23 30L23 31L25 31L25 32L24 32L24 34L25 34L25 35L22 35L22 36L21 36L21 37L22 37L22 38L20 38L20 39L22 39L22 40L21 40L21 41L20 41L20 42L19 42L19 43L18 43L18 44L19 44L19 43L20 43L20 44L21 44L21 45L20 45L20 46L19 46L19 45L18 45L18 47L20 47L20 48L19 48L19 49L18 49L18 50L17 50L17 51L16 51L16 52L17 52L17 54L16 54L16 55L17 55L17 54L18 54L18 50L19 50L19 49L20 49L20 51L21 51L21 53L22 53L22 54L21 54L21 55L22 55L22 56L23 56L23 53L22 53L22 51L21 51L21 50L22 50L22 48L23 48L23 49L24 49L24 51L23 51L23 52L24 52L24 51L25 51L25 54L24 54L24 55L25 55L25 54L27 54L27 55L28 55L28 53L26 53L26 51L25 51L25 48L24 48L24 47L25 47L25 46L26 46L26 48L27 48L27 46L26 46L26 45L25 45L25 43L24 43L24 42L26 42L26 41L25 41L25 40L26 40L26 37L24 37L24 36L25 36L25 35L28 35L28 36L27 36L27 40L29 40L29 41L28 41L28 42L27 42L27 43L28 43L28 42L29 42L29 44L27 44L27 45L28 45L28 46L29 46L29 48L31 48L31 50L32 50L32 48L33 48L33 49L34 49L34 50L35 50L35 51L34 51L34 52L33 52L33 53L34 53L34 54L35 54L35 53L36 53L36 52L35 52L35 51L37 51L37 49L36 49L36 48L37 48L37 47L38 47L38 51L39 51L39 49L40 49L40 51L41 51L41 49L42 49L42 50L43 50L43 51L45 51L45 53L46 53L46 55L48 55L48 56L49 56L49 55L48 55L48 54L49 54L49 53L46 53L46 51L47 51L47 52L48 52L48 51L47 51L47 46L51 46L51 45L52 45L52 47L51 47L51 48L52 48L52 47L53 47L53 46L55 46L55 47L54 47L54 48L53 48L53 49L54 49L54 48L55 48L55 47L56 47L56 44L55 44L55 43L54 43L54 44L53 44L53 41L54 41L54 40L52 40L52 38L53 38L53 37L54 37L54 38L55 38L55 37L54 37L54 36L56 36L56 34L55 34L55 31L56 31L56 30L55 30L55 27L54 27L54 28L53 28L53 31L51 31L51 32L50 32L50 33L49 33L49 36L48 36L48 35L46 35L46 34L48 34L48 33L47 33L47 30L48 30L48 29L47 29L47 28L48 28L48 26L51 26L51 25L52 25L52 26L53 26L53 25L52 25L52 23L53 23L53 22L52 22L52 20L53 20L53 19L54 19L54 21L55 21L55 22L54 22L54 24L55 24L55 25L54 25L54 26L55 26L55 25L56 25L56 24L55 24L55 23L56 23L56 21L55 21L55 20L56 20L56 18L55 18L55 19L54 19L54 16L55 16L55 17L56 17L56 16L55 16L55 15L56 15L56 12L55 12L55 11L54 11L54 12L53 12L53 14L52 14L52 13L50 13L50 11L49 11L49 9L48 9L48 11L47 11L47 12L48 12L48 14L47 14L47 13L46 13L46 11L45 11L45 9L44 9L44 10L43 10L43 9L42 9L42 11L41 11L41 12L42 12L42 15L41 15L41 13L40 13L40 15L39 15L39 12L37 12L37 11L36 11L36 12L35 12L35 11L34 11L34 10L36 10L36 6L37 6L37 7L38 7L38 6L37 6L37 5L38 5L38 4L39 4L39 3L37 3L37 2L35 2L35 3L34 3L34 4L35 4L35 9L34 9L34 10L33 10L33 9L32 9L32 11L34 11L34 12L35 12L35 13L34 13L34 15L33 15L33 14L32 14L32 13L31 13L31 12L30 12L30 11L29 11L29 9L27 9L27 10L25 10L25 9L26 9L26 5L24 5L24 6L23 6L23 2L22 2L22 1ZM39 1L39 2L40 2L40 1ZM14 3L14 4L15 4L15 3ZM35 3L35 4L36 4L36 3ZM43 4L43 5L42 5L42 6L41 6L41 7L42 7L42 6L43 6L43 5L44 5L44 4ZM17 5L17 6L16 6L16 7L17 7L17 8L18 8L18 9L17 9L17 10L16 10L16 9L15 9L15 8L14 8L14 9L13 9L13 10L14 10L14 9L15 9L15 10L16 10L16 11L17 11L17 14L15 14L15 15L14 15L14 14L13 14L13 15L14 15L14 17L15 17L15 18L13 18L13 16L12 16L12 18L13 18L13 21L12 21L12 22L14 22L14 23L12 23L12 24L11 24L11 25L10 25L10 26L11 26L11 25L12 25L12 24L14 24L14 25L15 25L15 26L12 26L12 27L15 27L15 28L16 28L16 27L15 27L15 26L16 26L16 25L17 25L17 23L16 23L16 22L17 22L17 20L16 20L16 19L15 19L15 18L16 18L16 17L15 17L15 15L17 15L17 14L18 14L18 13L19 13L19 12L20 12L20 13L21 13L21 12L20 12L20 11L19 11L19 10L20 10L20 9L21 9L21 8L22 8L22 9L23 9L23 11L22 11L22 12L23 12L23 15L24 15L24 12L25 12L25 14L26 14L26 15L25 15L25 17L26 17L26 15L27 15L27 14L28 14L28 15L29 15L29 16L30 16L30 17L28 17L28 18L30 18L30 17L31 17L31 16L30 16L30 15L29 15L29 13L30 13L30 12L29 12L29 11L28 11L28 12L27 12L27 14L26 14L26 11L24 11L24 9L25 9L25 8L24 8L24 9L23 9L23 6L22 6L22 5L20 5L20 7L19 7L19 5ZM27 5L27 8L30 8L30 5ZM17 6L17 7L18 7L18 8L19 8L19 7L18 7L18 6ZM21 6L21 7L22 7L22 6ZM24 6L24 7L25 7L25 6ZM28 6L28 7L29 7L29 6ZM0 8L0 9L1 9L1 11L0 11L0 12L2 12L2 11L3 11L3 10L4 10L4 11L5 11L5 10L4 10L4 9L3 9L3 8ZM37 8L37 9L38 9L38 11L39 11L39 9L38 9L38 8ZM18 9L18 10L19 10L19 9ZM30 9L30 10L31 10L31 9ZM40 9L40 10L41 10L41 9ZM50 9L50 10L52 10L52 9ZM14 11L14 12L15 12L15 11ZM18 11L18 12L19 12L19 11ZM23 11L23 12L24 12L24 11ZM42 11L42 12L43 12L43 11ZM48 11L48 12L49 12L49 11ZM51 11L51 12L52 12L52 11ZM36 12L36 13L37 13L37 14L36 14L36 18L34 18L34 17L35 17L35 15L34 15L34 17L33 17L33 16L32 16L32 17L33 17L33 18L32 18L32 19L30 19L30 20L32 20L32 21L33 21L33 22L34 22L34 24L36 24L36 26L37 26L37 28L36 28L36 27L34 27L34 29L33 29L33 28L32 28L32 29L33 29L33 31L34 31L34 32L35 32L35 31L34 31L34 29L35 29L35 30L37 30L37 31L36 31L36 33L35 33L35 35L34 35L34 36L33 36L33 32L32 32L32 35L31 35L31 34L30 34L30 32L29 32L29 34L28 34L28 33L27 33L27 34L28 34L28 35L31 35L31 36L30 36L30 43L31 43L31 38L33 38L33 39L34 39L34 41L33 41L33 40L32 40L32 47L31 47L31 45L30 45L30 44L29 44L29 46L30 46L30 47L31 47L31 48L32 48L32 47L34 47L34 45L33 45L33 44L35 44L35 43L36 43L36 41L37 41L37 42L38 42L38 41L39 41L39 38L40 38L40 42L39 42L39 43L37 43L37 44L36 44L36 46L35 46L35 47L37 47L37 46L38 46L38 45L37 45L37 44L39 44L39 43L40 43L40 42L42 42L42 43L44 43L44 41L45 41L45 44L44 44L44 46L43 46L43 47L44 47L44 49L43 49L43 50L44 50L44 49L45 49L45 51L46 51L46 48L45 48L45 47L46 47L46 44L47 44L47 45L50 45L50 44L52 44L52 40L51 40L51 38L52 38L52 37L53 37L53 36L54 36L54 34L53 34L53 36L52 36L52 37L51 37L51 33L50 33L50 37L48 37L48 36L47 36L47 37L48 37L48 38L49 38L49 39L48 39L48 40L47 40L47 38L46 38L46 36L45 36L45 34L46 34L46 33L45 33L45 32L46 32L46 30L44 30L44 29L46 29L46 28L47 28L47 26L48 26L48 24L50 24L50 22L49 22L49 23L48 23L48 19L49 19L49 20L51 20L51 19L52 19L52 18L53 18L53 16L54 16L54 15L55 15L55 13L54 13L54 15L52 15L52 14L51 14L51 15L50 15L50 13L49 13L49 14L48 14L48 15L46 15L46 13L45 13L45 12L44 12L44 13L43 13L43 14L44 14L44 15L43 15L43 16L44 16L44 17L43 17L43 18L42 18L42 17L41 17L41 15L40 15L40 18L38 18L38 16L37 16L37 15L38 15L38 13L37 13L37 12ZM7 13L7 14L6 14L6 15L7 15L7 14L9 14L9 13ZM44 15L44 16L45 16L45 15ZM51 15L51 17L50 17L50 16L49 16L49 17L48 17L48 16L46 16L46 18L45 18L45 17L44 17L44 19L42 19L42 20L43 20L43 21L42 21L42 23L41 23L41 22L40 22L40 19L41 19L41 18L40 18L40 19L39 19L39 21L38 21L38 19L37 19L37 18L36 18L36 19L37 19L37 21L36 21L36 20L35 20L35 19L34 19L34 20L35 20L35 21L34 21L34 22L35 22L35 23L36 23L36 24L37 24L37 25L38 25L38 26L39 26L39 27L40 27L40 28L39 28L39 29L38 29L38 28L37 28L37 30L38 30L38 31L37 31L37 32L38 32L38 31L40 31L40 32L39 32L39 33L38 33L38 34L37 34L37 33L36 33L36 35L35 35L35 36L34 36L34 38L35 38L35 41L34 41L34 42L35 42L35 41L36 41L36 38L37 38L37 37L36 37L36 35L37 35L37 36L38 36L38 38L39 38L39 36L40 36L40 35L42 35L42 36L43 36L43 37L42 37L42 39L41 39L41 40L43 40L43 38L44 38L44 35L43 35L43 33L42 33L42 31L43 31L43 29L44 29L44 28L42 28L42 31L40 31L40 30L41 30L41 29L40 29L40 28L41 28L41 27L43 27L43 25L44 25L44 24L45 24L45 25L46 25L46 26L45 26L45 27L46 27L46 26L47 26L47 24L48 24L48 23L47 23L47 17L48 17L48 18L49 18L49 17L50 17L50 18L52 18L52 15ZM3 16L3 17L4 17L4 16ZM5 17L5 18L4 18L4 19L5 19L5 18L8 18L8 17ZM1 18L1 19L3 19L3 18ZM6 19L6 20L7 20L7 19ZM14 19L14 20L15 20L15 19ZM27 19L27 20L28 20L28 19ZM44 19L44 21L43 21L43 22L44 22L44 23L45 23L45 22L44 22L44 21L45 21L45 20L46 20L46 19ZM1 20L1 21L2 21L2 20ZM3 20L3 21L5 21L5 20ZM18 20L18 21L19 21L19 20ZM14 21L14 22L15 22L15 21ZM35 21L35 22L36 22L36 23L38 23L38 25L39 25L39 26L40 26L40 27L41 27L41 23L38 23L38 21L37 21L37 22L36 22L36 21ZM1 22L1 24L2 24L2 25L1 25L1 26L2 26L2 25L3 25L3 27L4 27L4 26L5 26L5 25L3 25L3 22ZM6 22L6 23L7 23L7 22ZM18 22L18 23L19 23L19 22ZM20 22L20 23L21 23L21 22ZM24 22L24 23L25 23L25 22ZM26 22L26 23L27 23L27 25L26 25L26 26L28 26L28 22ZM51 22L51 23L52 23L52 22ZM9 23L9 24L10 24L10 23ZM14 23L14 24L15 24L15 25L16 25L16 24L15 24L15 23ZM46 23L46 24L47 24L47 23ZM18 24L18 25L19 25L19 26L20 26L20 25L19 25L19 24ZM6 25L6 26L7 26L7 25ZM5 27L5 30L8 30L8 27ZM18 27L18 28L19 28L19 27ZM27 27L27 30L30 30L30 27ZM49 27L49 30L52 30L52 27ZM3 28L3 29L1 29L1 31L2 31L2 37L3 37L3 36L4 36L4 34L3 34L3 31L4 31L4 30L3 30L3 29L4 29L4 28ZM6 28L6 29L7 29L7 28ZM28 28L28 29L29 29L29 28ZM35 28L35 29L36 29L36 28ZM50 28L50 29L51 29L51 28ZM2 30L2 31L3 31L3 30ZM54 30L54 31L55 31L55 30ZM6 31L6 32L7 32L7 31ZM10 31L10 32L11 32L11 31ZM12 31L12 32L13 32L13 31ZM40 32L40 34L42 34L42 33L41 33L41 32ZM6 34L6 35L7 35L7 34ZM38 34L38 36L39 36L39 34ZM11 35L11 36L12 36L12 35ZM15 35L15 36L13 36L13 37L14 37L14 38L15 38L15 40L14 40L14 41L15 41L15 40L17 40L17 41L16 41L16 42L15 42L15 43L14 43L14 42L12 42L12 44L13 44L13 46L15 46L15 45L16 45L16 46L17 46L17 44L15 44L15 43L17 43L17 42L18 42L18 39L19 39L19 37L18 37L18 35ZM16 36L16 37L17 37L17 38L16 38L16 39L18 39L18 37L17 37L17 36ZM22 36L22 37L23 37L23 36ZM28 36L28 37L29 37L29 36ZM31 36L31 37L32 37L32 36ZM35 37L35 38L36 38L36 37ZM50 37L50 38L51 38L51 37ZM24 38L24 39L25 39L25 38ZM28 38L28 39L29 39L29 38ZM45 38L45 40L46 40L46 43L47 43L47 44L48 44L48 43L49 43L49 44L50 44L50 42L49 42L49 41L51 41L51 40L48 40L48 41L47 41L47 40L46 40L46 38ZM37 39L37 41L38 41L38 39ZM22 40L22 41L23 41L23 40ZM42 41L42 42L43 42L43 41ZM22 43L22 44L23 44L23 47L24 47L24 43ZM14 44L14 45L15 45L15 44ZM40 44L40 45L39 45L39 46L40 46L40 45L41 45L41 47L40 47L40 49L41 49L41 47L42 47L42 45L43 45L43 44L42 44L42 45L41 45L41 44ZM11 46L11 47L12 47L12 46ZM21 46L21 48L20 48L20 49L21 49L21 48L22 48L22 46ZM44 46L44 47L45 47L45 46ZM34 48L34 49L35 49L35 48ZM9 49L9 50L11 50L11 49ZM27 49L27 52L30 52L30 49ZM49 49L49 52L52 52L52 49ZM28 50L28 51L29 51L29 50ZM50 50L50 51L51 51L51 50ZM31 51L31 52L32 52L32 51ZM39 52L39 53L40 53L40 52ZM41 52L41 53L42 53L42 52ZM31 53L31 54L30 54L30 55L33 55L33 54L32 54L32 53ZM53 53L53 55L54 55L54 53ZM12 54L12 55L13 55L13 54ZM40 54L40 55L41 55L41 54ZM36 56L36 57L37 57L37 56ZM56 56L56 57L57 57L57 56ZM0 0L0 7L7 7L7 0ZM1 1L1 6L6 6L6 1ZM2 2L2 5L5 5L5 2ZM50 0L50 7L57 7L57 0ZM51 1L51 6L56 6L56 1ZM52 2L52 5L55 5L55 2ZM0 50L0 57L7 57L7 50ZM1 51L1 56L6 56L6 51ZM2 52L2 55L5 55L5 52Z" fill="#000000"/></g></g></svg>
