<?xml version="1.0" encoding="UTF-8"?>
<svg xmlns="http://www.w3.org/2000/svg" version="1.1" width="300" height="300" viewBox="0 0 300 300"><rect x="0" y="0" width="300" height="300" fill="#fefefe"/><g transform="scale(4.615)"><g transform="translate(4,4)"><path fill-rule="evenodd" d="M10 0L10 2L9 2L9 1L8 1L8 2L9 2L9 3L8 3L8 4L9 4L9 5L8 5L8 7L9 7L9 8L6 8L6 9L9 9L9 10L6 10L6 11L7 11L7 12L6 12L6 13L4 13L4 14L3 14L3 13L2 13L2 14L1 14L1 16L0 16L0 18L2 18L2 16L4 16L4 17L3 17L3 19L4 19L4 20L2 20L2 21L4 21L4 22L5 22L5 24L6 24L6 25L4 25L4 23L2 23L2 22L1 22L1 21L0 21L0 27L1 27L1 28L2 28L2 27L1 27L1 23L2 23L2 24L3 24L3 25L2 25L2 26L3 26L3 25L4 25L4 27L3 27L3 29L2 29L2 30L1 30L1 29L0 29L0 36L1 36L1 37L0 37L0 39L1 39L1 37L2 37L2 39L4 39L4 37L7 37L7 38L5 38L5 39L7 39L7 38L9 38L9 39L11 39L11 44L9 44L9 46L8 46L8 44L6 44L6 43L8 43L8 42L10 42L10 40L8 40L8 41L7 41L7 40L5 40L5 41L3 41L3 40L2 40L2 41L1 41L1 40L0 40L0 42L1 42L1 43L0 43L0 44L2 44L2 45L0 45L0 48L5 48L5 47L7 47L7 48L6 48L6 49L7 49L7 48L8 48L8 51L9 51L9 50L10 50L10 52L8 52L8 57L9 57L9 53L10 53L10 57L11 57L11 56L12 56L12 57L16 57L16 56L17 56L17 57L19 57L19 55L20 55L20 54L19 54L19 53L20 53L20 52L21 52L21 51L22 51L22 52L23 52L23 51L22 51L22 50L25 50L25 51L26 51L26 52L24 52L24 53L21 53L21 55L23 55L23 57L26 57L26 56L27 56L27 57L29 57L29 56L30 56L30 57L31 57L31 56L35 56L35 57L39 57L39 56L42 56L42 55L44 55L44 54L45 54L45 53L47 53L47 55L48 55L48 56L47 56L47 57L48 57L48 56L50 56L50 57L52 57L52 55L51 55L51 53L52 53L52 54L55 54L55 51L56 51L56 52L57 52L57 51L56 51L56 49L57 49L57 48L56 48L56 46L57 46L57 45L56 45L56 44L55 44L55 43L56 43L56 41L55 41L55 39L57 39L57 37L56 37L56 36L57 36L57 35L56 35L56 34L57 34L57 32L56 32L56 30L57 30L57 29L56 29L56 27L55 27L55 26L57 26L57 25L56 25L56 22L57 22L57 20L55 20L55 19L56 19L56 18L57 18L57 17L56 17L56 16L57 16L57 15L56 15L56 14L57 14L57 13L56 13L56 14L55 14L55 15L53 15L53 13L54 13L54 12L56 12L56 10L54 10L54 11L52 11L52 10L53 10L53 9L54 9L54 8L53 8L53 9L52 9L52 8L51 8L51 9L52 9L52 10L51 10L51 11L50 11L50 8L47 8L47 5L48 5L48 0L46 0L46 1L45 1L45 2L44 2L44 3L43 3L43 4L40 4L40 5L39 5L39 6L38 6L38 4L37 4L37 3L36 3L36 0L35 0L35 1L33 1L33 2L32 2L32 3L31 3L31 2L28 2L28 3L29 3L29 4L26 4L26 3L23 3L23 2L27 2L27 1L26 1L26 0L23 0L23 1L22 1L22 0L21 0L21 1L22 1L22 2L20 2L20 0L19 0L19 1L17 1L17 2L18 2L18 4L17 4L17 6L16 6L16 7L15 7L15 5L16 5L16 4L15 4L15 5L14 5L14 7L13 7L13 6L12 6L12 7L11 7L11 6L10 6L10 7L9 7L9 5L11 5L11 4L9 4L9 3L12 3L12 5L13 5L13 4L14 4L14 2L15 2L15 1L14 1L14 0L12 0L12 1L14 1L14 2L13 2L13 3L12 3L12 2L11 2L11 0ZM29 0L29 1L32 1L32 0ZM37 0L37 1L38 1L38 2L39 2L39 3L41 3L41 2L43 2L43 0L41 0L41 1L40 1L40 0L39 0L39 1L38 1L38 0ZM46 1L46 2L47 2L47 1ZM19 2L19 4L18 4L18 6L17 6L17 7L16 7L16 8L17 8L17 7L18 7L18 8L19 8L19 9L20 9L20 11L19 11L19 12L20 12L20 14L18 14L18 15L17 15L17 13L18 13L18 12L17 12L17 11L18 11L18 9L15 9L15 8L14 8L14 9L13 9L13 10L12 10L12 9L10 9L10 12L8 12L8 13L6 13L6 14L7 14L7 15L4 15L4 16L7 16L7 15L8 15L8 14L9 14L9 13L10 13L10 12L11 12L11 15L9 15L9 16L11 16L11 17L10 17L10 18L9 18L9 17L8 17L8 18L9 18L9 20L8 20L8 19L6 19L6 18L7 18L7 17L6 17L6 18L4 18L4 19L5 19L5 22L7 22L7 23L6 23L6 24L7 24L7 25L6 25L6 26L7 26L7 25L8 25L8 26L11 26L11 28L10 28L10 29L11 29L11 30L12 30L12 29L11 29L11 28L12 28L12 26L13 26L13 25L14 25L14 24L13 24L13 23L15 23L15 27L13 27L13 29L14 29L14 30L15 30L15 29L16 29L16 31L14 31L14 32L18 32L18 31L19 31L19 32L21 32L21 33L19 33L19 34L21 34L21 35L23 35L23 36L19 36L19 37L18 37L18 38L19 38L19 39L18 39L18 40L19 40L19 41L18 41L18 42L17 42L17 36L15 36L15 35L14 35L14 34L10 34L10 33L9 33L9 34L7 34L7 33L8 33L8 32L7 32L7 31L5 31L5 32L7 32L7 33L4 33L4 32L3 32L3 31L4 31L4 30L3 30L3 31L2 31L2 32L3 32L3 34L1 34L1 35L2 35L2 36L3 36L3 37L4 37L4 36L5 36L5 35L6 35L6 36L7 36L7 37L9 37L9 38L10 38L10 37L9 37L9 36L8 36L8 35L11 35L11 37L12 37L12 38L11 38L11 39L12 39L12 41L13 41L13 42L14 42L14 44L12 44L12 45L11 45L11 47L12 47L12 48L11 48L11 49L12 49L12 53L11 53L11 55L14 55L14 56L16 56L16 55L15 55L15 54L16 54L16 53L17 53L17 52L18 52L18 51L17 51L17 52L16 52L16 50L18 50L18 49L17 49L17 48L19 48L19 49L20 49L20 50L19 50L19 51L21 51L21 49L23 49L23 48L24 48L24 49L25 49L25 50L26 50L26 49L25 49L25 48L27 48L27 47L28 47L28 46L29 46L29 45L31 45L31 47L32 47L32 45L33 45L33 46L35 46L35 47L33 47L33 48L31 48L31 49L33 49L33 50L31 50L31 53L30 53L30 54L26 54L26 53L24 53L24 54L23 54L23 55L24 55L24 56L25 56L25 54L26 54L26 55L27 55L27 56L29 56L29 55L30 55L30 56L31 56L31 54L32 54L32 53L33 53L33 54L34 54L34 55L35 55L35 56L36 56L36 54L35 54L35 52L34 52L34 51L33 51L33 50L36 50L36 52L38 52L38 53L37 53L37 54L40 54L40 53L41 53L41 52L40 52L40 51L39 51L39 52L38 52L38 50L41 50L41 51L42 51L42 52L43 52L43 51L45 51L45 52L44 52L44 53L43 53L43 54L44 54L44 53L45 53L45 52L46 52L46 50L47 50L47 53L48 53L48 50L47 50L47 49L48 49L48 48L49 48L49 47L48 47L48 46L50 46L50 47L53 47L53 48L54 48L54 49L56 49L56 48L54 48L54 47L53 47L53 45L50 45L50 43L51 43L51 44L53 44L53 43L54 43L54 42L53 42L53 41L51 41L51 42L50 42L50 43L48 43L48 44L47 44L47 45L45 45L45 44L46 44L46 43L47 43L47 42L48 42L48 41L49 41L49 40L50 40L50 39L51 39L51 38L53 38L53 39L55 39L55 37L53 37L53 35L55 35L55 36L56 36L56 35L55 35L55 34L56 34L56 32L55 32L55 34L54 34L54 32L53 32L53 33L52 33L52 31L51 31L51 33L52 33L52 34L50 34L50 31L48 31L48 28L47 28L47 29L46 29L46 30L47 30L47 31L45 31L45 32L43 32L43 31L44 31L44 30L45 30L45 28L46 28L46 27L48 27L48 25L49 25L49 23L50 23L50 24L51 24L51 25L50 25L50 26L52 26L52 25L53 25L53 24L51 24L51 23L50 23L50 22L51 22L51 21L54 21L54 22L56 22L56 21L55 21L55 20L53 20L53 19L52 19L52 18L56 18L56 17L55 17L55 16L53 16L53 15L52 15L52 16L51 16L51 15L50 15L50 14L51 14L51 12L50 12L50 11L49 11L49 10L48 10L48 11L47 11L47 12L45 12L45 11L44 11L44 10L47 10L47 9L45 9L45 8L44 8L44 10L43 10L43 11L42 11L42 10L41 10L41 9L43 9L43 7L44 7L44 6L45 6L45 7L46 7L46 5L47 5L47 3L44 3L44 6L43 6L43 7L42 7L42 5L40 5L40 6L39 6L39 7L40 7L40 8L39 8L39 9L38 9L38 10L37 10L37 9L35 9L35 8L37 8L37 7L38 7L38 6L37 6L37 7L36 7L36 5L37 5L37 4L36 4L36 5L35 5L35 4L33 4L33 3L32 3L32 4L31 4L31 3L30 3L30 4L31 4L31 8L32 8L32 10L31 10L31 11L30 11L30 10L29 10L29 9L28 9L28 10L27 10L27 11L26 11L26 12L25 12L25 10L23 10L23 9L24 9L24 6L23 6L23 5L24 5L24 4L23 4L23 3L20 3L20 2ZM19 4L19 5L20 5L20 7L19 7L19 6L18 6L18 7L19 7L19 8L22 8L22 7L23 7L23 6L22 6L22 7L21 7L21 4ZM25 4L25 8L26 8L26 4ZM32 4L32 5L33 5L33 6L32 6L32 7L33 7L33 9L34 9L34 8L35 8L35 5L33 5L33 4ZM45 4L45 5L46 5L46 4ZM27 5L27 8L30 8L30 5ZM28 6L28 7L29 7L29 6ZM33 6L33 7L34 7L34 6ZM40 6L40 7L41 7L41 6ZM48 6L48 7L49 7L49 6ZM10 7L10 8L11 8L11 7ZM0 8L0 9L2 9L2 10L0 10L0 11L2 11L2 10L3 10L3 12L4 12L4 11L5 11L5 8ZM55 8L55 9L56 9L56 8ZM21 9L21 10L22 10L22 11L20 11L20 12L22 12L22 13L21 13L21 14L20 14L20 15L23 15L23 14L25 14L25 15L24 15L24 16L26 16L26 19L25 19L25 17L22 17L22 16L21 16L21 17L22 17L22 18L24 18L24 19L21 19L21 21L22 21L22 22L24 22L24 21L25 21L25 22L26 22L26 23L25 23L25 24L24 24L24 23L21 23L21 24L20 24L20 25L19 25L19 23L20 23L20 22L18 22L18 21L20 21L20 16L19 16L19 15L18 15L18 16L16 16L16 13L17 13L17 12L16 12L16 13L15 13L15 11L17 11L17 10L13 10L13 11L12 11L12 10L11 10L11 11L12 11L12 15L11 15L11 16L12 16L12 15L13 15L13 17L14 17L14 15L15 15L15 16L16 16L16 17L19 17L19 18L18 18L18 19L19 19L19 20L18 20L18 21L16 21L16 20L17 20L17 19L16 19L16 18L15 18L15 19L16 19L16 20L15 20L15 21L16 21L16 22L15 22L15 23L16 23L16 24L17 24L17 25L19 25L19 26L20 26L20 25L21 25L21 27L22 27L22 26L23 26L23 27L24 27L24 28L26 28L26 29L23 29L23 31L21 31L21 32L25 32L25 33L23 33L23 34L24 34L24 36L23 36L23 37L19 37L19 38L20 38L20 39L19 39L19 40L20 40L20 41L19 41L19 42L18 42L18 43L16 43L16 44L18 44L18 45L17 45L17 47L19 47L19 48L20 48L20 49L21 49L21 47L23 47L23 46L24 46L24 47L25 47L25 44L28 44L28 45L26 45L26 47L27 47L27 46L28 46L28 45L29 45L29 43L30 43L30 44L31 44L31 45L32 45L32 44L33 44L33 43L34 43L34 45L35 45L35 46L36 46L36 48L35 48L35 49L36 49L36 50L38 50L38 49L39 49L39 48L41 48L41 50L42 50L42 51L43 51L43 49L44 49L44 50L46 50L46 49L44 49L44 48L48 48L48 47L47 47L47 46L48 46L48 45L49 45L49 44L48 44L48 45L47 45L47 46L45 46L45 47L44 47L44 46L43 46L43 45L44 45L44 44L45 44L45 43L46 43L46 42L45 42L45 43L44 43L44 44L43 44L43 42L44 42L44 41L43 41L43 40L45 40L45 41L47 41L47 39L50 39L50 38L51 38L51 37L52 37L52 35L53 35L53 34L52 34L52 35L50 35L50 34L48 34L48 35L44 35L44 36L43 36L43 35L42 35L42 34L45 34L45 33L47 33L47 32L48 32L48 33L49 33L49 32L48 32L48 31L47 31L47 32L45 32L45 33L43 33L43 32L41 32L41 33L39 33L39 34L40 34L40 35L38 35L38 33L37 33L37 32L35 32L35 30L32 30L32 28L31 28L31 26L32 26L32 27L33 27L33 28L35 28L35 29L38 29L38 28L39 28L39 27L40 27L40 26L39 26L39 27L36 27L36 26L34 26L34 27L33 27L33 26L32 26L32 24L33 24L33 25L37 25L37 26L38 26L38 25L39 25L39 24L37 24L37 22L38 22L38 23L39 23L39 22L40 22L40 24L41 24L41 23L43 23L43 25L41 25L41 26L45 26L45 27L44 27L44 28L43 28L43 29L41 29L41 30L40 30L40 31L41 31L41 30L43 30L43 29L44 29L44 28L45 28L45 27L46 27L46 26L45 26L45 25L48 25L48 23L49 23L49 21L51 21L51 20L52 20L52 19L49 19L49 18L50 18L50 17L51 17L51 16L50 16L50 15L49 15L49 14L50 14L50 12L49 12L49 11L48 11L48 12L49 12L49 13L47 13L47 14L45 14L45 13L44 13L44 11L43 11L43 13L41 13L41 14L44 14L44 15L42 15L42 16L41 16L41 15L40 15L40 14L38 14L38 13L40 13L40 12L41 12L41 10L40 10L40 9L39 9L39 11L37 11L37 10L36 10L36 12L35 12L35 13L36 13L36 14L33 14L33 13L34 13L34 12L33 12L33 13L32 13L32 11L33 11L33 10L32 10L32 11L31 11L31 13L30 13L30 14L29 14L29 13L28 13L28 12L29 12L29 10L28 10L28 11L27 11L27 12L26 12L26 14L25 14L25 13L23 13L23 12L24 12L24 11L23 11L23 10L22 10L22 9ZM13 11L13 12L14 12L14 11ZM39 11L39 12L40 12L40 11ZM52 12L52 13L53 13L53 12ZM13 13L13 14L15 14L15 13ZM22 13L22 14L23 14L23 13ZM27 13L27 14L26 14L26 16L27 16L27 17L28 17L28 16L29 16L29 14L28 14L28 13ZM31 13L31 14L30 14L30 15L31 15L31 14L32 14L32 13ZM37 14L37 15L35 15L35 16L31 16L31 17L33 17L33 19L36 19L36 20L37 20L37 21L38 21L38 22L39 22L39 21L42 21L42 20L39 20L39 21L38 21L38 19L39 19L39 17L41 17L41 16L39 16L39 15L38 15L38 14ZM27 15L27 16L28 16L28 15ZM44 15L44 18L43 18L43 20L44 20L44 25L45 25L45 23L46 23L46 22L47 22L47 20L44 20L44 18L45 18L45 19L46 19L46 18L47 18L47 16L45 16L45 15ZM48 15L48 16L49 16L49 15ZM35 16L35 17L37 17L37 18L38 18L38 17L39 17L39 16L38 16L38 17L37 17L37 16ZM42 16L42 17L43 17L43 16ZM10 18L10 20L9 20L9 21L8 21L8 20L6 20L6 21L7 21L7 22L9 22L9 21L10 21L10 20L11 20L11 21L13 21L13 22L12 22L12 23L11 23L11 22L10 22L10 23L9 23L9 24L8 24L8 23L7 23L7 24L8 24L8 25L10 25L10 24L12 24L12 25L13 25L13 24L12 24L12 23L13 23L13 22L14 22L14 21L13 21L13 20L14 20L14 19L12 19L12 18ZM27 18L27 19L26 19L26 20L25 20L25 21L27 21L27 23L30 23L30 24L32 24L32 23L33 23L33 22L34 22L34 23L35 23L35 21L34 21L34 20L32 20L32 21L31 21L31 22L28 22L28 21L30 21L30 20L31 20L31 19L32 19L32 18L30 18L30 19L28 19L28 18ZM41 18L41 19L42 19L42 18ZM0 19L0 20L1 20L1 19ZM11 19L11 20L12 20L12 19ZM27 19L27 20L28 20L28 19ZM48 19L48 21L49 21L49 19ZM22 20L22 21L24 21L24 20ZM17 23L17 24L18 24L18 23ZM21 24L21 25L24 25L24 24ZM25 24L25 25L26 25L26 26L25 26L25 27L26 27L26 26L27 26L27 25L28 25L28 26L29 26L29 24ZM54 24L54 25L55 25L55 24ZM16 26L16 27L18 27L18 26ZM53 26L53 27L54 27L54 26ZM5 27L5 30L8 30L8 27ZM19 27L19 29L18 29L18 28L16 28L16 29L18 29L18 30L17 30L17 31L18 31L18 30L19 30L19 31L20 31L20 29L22 29L22 28L20 28L20 27ZM27 27L27 30L30 30L30 27ZM41 27L41 28L42 28L42 27ZM49 27L49 30L52 30L52 27ZM6 28L6 29L7 29L7 28ZM14 28L14 29L15 29L15 28ZM28 28L28 29L29 29L29 28ZM50 28L50 29L51 29L51 28ZM54 28L54 29L55 29L55 28ZM24 30L24 31L25 31L25 32L26 32L26 33L25 33L25 35L26 35L26 34L27 34L27 37L28 37L28 38L27 38L27 39L26 39L26 37L25 37L25 40L24 40L24 39L22 39L22 38L21 38L21 39L22 39L22 40L21 40L21 41L20 41L20 42L19 42L19 44L20 44L20 46L19 46L19 47L21 47L21 45L22 45L22 46L23 46L23 45L22 45L22 44L20 44L20 42L21 42L21 43L22 43L22 42L24 42L24 41L25 41L25 43L23 43L23 44L25 44L25 43L29 43L29 42L30 42L30 41L31 41L31 42L32 42L32 43L31 43L31 44L32 44L32 43L33 43L33 42L34 42L34 43L37 43L37 42L35 42L35 40L38 40L38 42L39 42L39 41L41 41L41 40L43 40L43 39L45 39L45 40L46 40L46 39L47 39L47 38L48 38L48 37L49 37L49 38L50 38L50 37L51 37L51 36L50 36L50 35L48 35L48 36L46 36L46 37L45 37L45 36L44 36L44 37L43 37L43 36L40 36L40 37L39 37L39 36L38 36L38 38L37 38L37 39L35 39L35 40L33 40L33 39L29 39L29 38L31 38L31 37L29 37L29 36L30 36L30 34L29 34L29 33L31 33L31 34L32 34L32 35L33 35L33 36L32 36L32 37L33 37L33 38L35 38L35 37L33 37L33 36L34 36L34 35L35 35L35 36L37 36L37 34L35 34L35 33L33 33L33 31L30 31L30 32L29 32L29 31L28 31L28 32L26 32L26 31L25 31L25 30ZM38 30L38 32L39 32L39 30ZM9 31L9 32L10 32L10 31ZM12 31L12 32L11 32L11 33L12 33L12 32L13 32L13 31ZM28 32L28 33L29 33L29 32ZM31 32L31 33L32 33L32 32ZM15 33L15 34L16 34L16 35L18 35L18 34L17 34L17 33ZM21 33L21 34L22 34L22 33ZM3 34L3 35L5 35L5 34ZM6 34L6 35L7 35L7 34ZM12 36L12 37L13 37L13 38L12 38L12 39L13 39L13 41L14 41L14 39L13 39L13 38L16 38L16 37L15 37L15 36ZM49 36L49 37L50 37L50 36ZM23 37L23 38L24 38L24 37ZM40 37L40 38L43 38L43 37ZM44 37L44 38L45 38L45 39L46 39L46 38L45 38L45 37ZM15 39L15 40L16 40L16 39ZM27 39L27 40L28 40L28 39ZM38 39L38 40L39 40L39 39ZM23 40L23 41L24 41L24 40ZM31 40L31 41L32 41L32 42L33 42L33 41L32 41L32 40ZM6 41L6 42L5 42L5 43L6 43L6 42L7 42L7 41ZM26 41L26 42L27 42L27 41ZM41 42L41 44L39 44L39 45L38 45L38 46L41 46L41 48L42 48L42 49L43 49L43 48L44 48L44 47L43 47L43 46L41 46L41 44L42 44L42 42ZM51 42L51 43L53 43L53 42ZM2 43L2 44L4 44L4 46L3 46L3 47L5 47L5 44L4 44L4 43ZM14 44L14 45L12 45L12 46L14 46L14 45L15 45L15 44ZM54 44L54 45L55 45L55 46L56 46L56 45L55 45L55 44ZM6 45L6 46L7 46L7 45ZM36 45L36 46L37 46L37 45ZM1 46L1 47L2 47L2 46ZM9 46L9 47L8 47L8 48L10 48L10 46ZM13 47L13 48L14 48L14 49L15 49L15 48L16 48L16 47ZM38 47L38 48L37 48L37 49L38 49L38 48L39 48L39 47ZM42 47L42 48L43 48L43 47ZM33 48L33 49L34 49L34 48ZM27 49L27 52L30 52L30 49ZM49 49L49 52L52 52L52 49ZM13 50L13 52L14 52L14 53L16 53L16 52L15 52L15 51L14 51L14 50ZM28 50L28 51L29 51L29 50ZM50 50L50 51L51 51L51 50ZM54 50L54 51L55 51L55 50ZM32 51L32 52L33 52L33 51ZM53 52L53 53L54 53L54 52ZM12 53L12 54L13 54L13 53ZM17 54L17 56L18 56L18 55L19 55L19 54ZM37 55L37 56L39 56L39 55ZM50 55L50 56L51 56L51 55ZM53 55L53 56L55 56L55 57L56 57L56 56L55 56L55 55ZM20 56L20 57L21 57L21 56ZM43 56L43 57L44 57L44 56ZM45 56L45 57L46 57L46 56ZM0 0L0 7L7 7L7 0ZM1 1L1 6L6 6L6 1ZM2 2L2 5L5 5L5 2ZM50 0L50 7L57 7L57 0ZM51 1L51 6L56 6L56 1ZM52 2L52 5L55 5L55 2ZM0 50L0 57L7 57L7 50ZM1 51L1 56L6 56L6 51ZM2 52L2 55L5 55L5 52Z" fill="#000000"/></g></g></svg>
