<?xml version="1.0" encoding="UTF-8"?>
<svg xmlns="http://www.w3.org/2000/svg" version="1.1" width="300" height="300" viewBox="0 0 300 300"><rect x="0" y="0" width="300" height="300" fill="#fefefe"/><g transform="scale(4.615)"><g transform="translate(4,4)"><path fill-rule="evenodd" d="M14 0L14 2L12 2L12 1L8 1L8 2L9 2L9 3L8 3L8 4L9 4L9 5L8 5L8 7L9 7L9 6L10 6L10 7L11 7L11 5L12 5L12 7L13 7L13 5L12 5L12 3L13 3L13 4L14 4L14 2L15 2L15 0ZM18 0L18 2L19 2L19 1L20 1L20 2L21 2L21 1L22 1L22 0L21 0L21 1L20 1L20 0ZM23 0L23 2L22 2L22 3L23 3L23 4L19 4L19 3L17 3L17 4L18 4L18 5L17 5L17 6L16 6L16 7L15 7L15 5L16 5L16 4L15 4L15 5L14 5L14 8L6 8L6 9L5 9L5 8L0 8L0 11L3 11L3 10L4 10L4 9L5 9L5 10L6 10L6 11L5 11L5 12L4 12L4 13L5 13L5 14L3 14L3 12L2 12L2 14L1 14L1 13L0 13L0 15L1 15L1 16L0 16L0 17L1 17L1 18L2 18L2 19L1 19L1 20L2 20L2 19L3 19L3 21L2 21L2 22L1 22L1 23L2 23L2 25L1 25L1 26L0 26L0 29L2 29L2 30L1 30L1 31L0 31L0 33L2 33L2 32L3 32L3 33L4 33L4 34L5 34L5 33L7 33L7 34L6 34L6 35L3 35L3 36L2 36L2 34L0 34L0 35L1 35L1 37L0 37L0 38L1 38L1 37L3 37L3 38L2 38L2 39L1 39L1 40L0 40L0 41L1 41L1 42L0 42L0 43L1 43L1 42L2 42L2 43L3 43L3 44L4 44L4 46L5 46L5 47L3 47L3 45L2 45L2 47L1 47L1 46L0 46L0 48L5 48L5 47L7 47L7 48L6 48L6 49L7 49L7 48L8 48L8 47L7 47L7 46L5 46L5 45L7 45L7 44L5 44L5 43L3 43L3 42L6 42L6 43L7 43L7 42L6 42L6 41L7 41L7 40L6 40L6 41L4 41L4 40L5 40L5 38L4 38L4 37L3 37L3 36L6 36L6 37L7 37L7 38L6 38L6 39L7 39L7 38L8 38L8 39L9 39L9 41L11 41L11 42L12 42L12 41L11 41L11 40L12 40L12 38L13 38L13 40L16 40L16 39L15 39L15 38L16 38L16 37L15 37L15 38L13 38L13 36L17 36L17 38L18 38L18 39L17 39L17 40L18 40L18 41L17 41L17 42L15 42L15 41L14 41L14 42L15 42L15 43L14 43L14 44L13 44L13 43L12 43L12 46L10 46L10 43L9 43L9 42L8 42L8 43L9 43L9 45L8 45L8 46L10 46L10 47L9 47L9 48L10 48L10 49L8 49L8 51L9 51L9 50L11 50L11 51L10 51L10 52L8 52L8 57L12 57L12 56L11 56L11 55L14 55L14 56L13 56L13 57L15 57L15 55L16 55L16 56L17 56L17 57L19 57L19 55L20 55L20 54L19 54L19 53L20 53L20 52L21 52L21 51L22 51L22 52L23 52L23 51L22 51L22 50L25 50L25 49L26 49L26 52L24 52L24 53L23 53L23 54L22 54L22 56L23 56L23 57L26 57L26 56L27 56L27 57L29 57L29 56L30 56L30 57L31 57L31 56L35 56L35 57L39 57L39 56L37 56L37 54L38 54L38 55L40 55L40 56L41 56L41 57L44 57L44 54L45 54L45 55L46 55L46 54L45 54L45 53L47 53L47 50L48 50L48 54L47 54L47 55L49 55L49 56L50 56L50 57L52 57L52 55L51 55L51 53L52 53L52 54L53 54L53 52L54 52L54 54L55 54L55 52L56 52L56 50L57 50L57 48L56 48L56 46L57 46L57 45L56 45L56 44L57 44L57 43L56 43L56 41L55 41L55 39L57 39L57 35L56 35L56 33L57 33L57 32L56 32L56 30L57 30L57 27L56 27L56 26L57 26L57 25L56 25L56 22L57 22L57 21L56 21L56 20L57 20L57 19L56 19L56 18L52 18L52 19L50 19L50 17L49 17L49 16L50 16L50 15L51 15L51 16L52 16L52 15L53 15L53 16L55 16L55 17L56 17L56 16L57 16L57 15L56 15L56 14L57 14L57 11L56 11L56 10L54 10L54 11L52 11L52 10L53 10L53 9L54 9L54 8L53 8L53 9L52 9L52 8L51 8L51 10L49 10L49 9L50 9L50 8L48 8L48 9L47 9L47 10L46 10L46 9L45 9L45 10L44 10L44 8L47 8L47 5L48 5L48 0L46 0L46 1L45 1L45 2L44 2L44 3L42 3L42 2L43 2L43 0L41 0L41 1L40 1L40 0L39 0L39 1L38 1L38 0L37 0L37 1L38 1L38 3L41 3L41 4L40 4L40 5L39 5L39 6L38 6L38 4L37 4L37 3L36 3L36 0L35 0L35 1L33 1L33 2L32 2L32 1L31 1L31 0L29 0L29 1L30 1L30 2L29 2L29 3L30 3L30 4L26 4L26 3L23 3L23 2L27 2L27 3L28 3L28 2L27 2L27 1L25 1L25 0ZM46 1L46 2L47 2L47 1ZM10 2L10 3L11 3L11 2ZM31 2L31 3L32 3L32 4L31 4L31 8L32 8L32 10L31 10L31 11L30 11L30 10L29 10L29 12L28 12L28 13L26 13L26 12L27 12L27 11L26 11L26 12L25 12L25 10L23 10L23 8L24 8L24 6L23 6L23 5L24 5L24 4L23 4L23 5L21 5L21 7L22 7L22 8L19 8L19 9L18 9L18 10L17 10L17 9L16 9L16 8L17 8L17 7L18 7L18 6L19 6L19 7L20 7L20 5L18 5L18 6L17 6L17 7L16 7L16 8L14 8L14 10L15 10L15 11L18 11L18 10L19 10L19 9L20 9L20 11L19 11L19 13L20 13L20 14L21 14L21 13L22 13L22 14L23 14L23 13L22 13L22 12L21 12L21 13L20 13L20 11L22 11L22 10L23 10L23 12L25 12L25 14L24 14L24 16L23 16L23 15L20 15L20 16L19 16L19 17L20 17L20 18L19 18L19 20L20 20L20 21L17 21L17 20L18 20L18 19L16 19L16 18L17 18L17 17L16 17L16 16L17 16L17 13L18 13L18 12L17 12L17 13L16 13L16 12L15 12L15 13L13 13L13 12L14 12L14 11L12 11L12 12L11 12L11 11L10 11L10 12L9 12L9 11L6 11L6 12L5 12L5 13L6 13L6 14L8 14L8 15L5 15L5 16L4 16L4 15L3 15L3 16L1 16L1 17L2 17L2 18L3 18L3 19L4 19L4 18L3 18L3 17L5 17L5 19L6 19L6 20L4 20L4 22L3 22L3 24L5 24L5 23L6 23L6 24L7 24L7 25L6 25L6 26L7 26L7 25L8 25L8 26L9 26L9 27L10 27L10 28L9 28L9 30L11 30L11 31L9 31L9 32L11 32L11 33L12 33L12 34L11 34L11 35L14 35L14 34L13 34L13 33L15 33L15 34L16 34L16 35L17 35L17 36L18 36L18 35L20 35L20 36L19 36L19 37L21 37L21 38L22 38L22 40L20 40L20 42L19 42L19 41L18 41L18 42L17 42L17 43L18 43L18 42L19 42L19 43L20 43L20 44L19 44L19 45L20 45L20 46L19 46L19 47L17 47L17 45L18 45L18 44L15 44L15 45L14 45L14 46L13 46L13 52L14 52L14 51L17 51L17 52L16 52L16 53L12 53L12 51L11 51L11 52L10 52L10 53L9 53L9 56L10 56L10 55L11 55L11 54L16 54L16 53L17 53L17 52L18 52L18 50L17 50L17 48L20 48L20 51L21 51L21 49L23 49L23 47L21 47L21 45L22 45L22 46L24 46L24 45L25 45L25 48L24 48L24 49L25 49L25 48L27 48L27 47L28 47L28 48L30 48L30 47L28 47L28 46L32 46L32 47L33 47L33 48L32 48L32 49L31 49L31 50L32 50L32 49L33 49L33 50L34 50L34 52L35 52L35 50L36 50L36 52L37 52L37 53L38 53L38 54L40 54L40 53L41 53L41 52L43 52L43 51L42 51L42 50L41 50L41 48L42 48L42 49L43 49L43 48L44 48L44 50L47 50L47 49L48 49L48 48L53 48L53 49L54 49L54 48L53 48L53 47L55 47L55 46L56 46L56 45L55 45L55 44L54 44L54 45L55 45L55 46L53 46L53 45L51 45L51 44L53 44L53 43L54 43L54 42L53 42L53 41L51 41L51 42L50 42L50 43L49 43L49 42L48 42L48 41L49 41L49 36L50 36L50 39L52 39L52 38L53 38L53 39L55 39L55 37L56 37L56 36L55 36L55 37L53 37L53 35L55 35L55 34L54 34L54 33L52 33L52 31L50 31L50 32L49 32L49 31L48 31L48 30L47 30L47 29L48 29L48 28L47 28L47 29L46 29L46 30L47 30L47 31L48 31L48 32L46 32L46 31L45 31L45 30L41 30L41 31L39 31L39 32L38 32L38 30L39 30L39 29L45 29L45 28L46 28L46 27L48 27L48 26L47 26L47 25L48 25L48 24L50 24L50 26L51 26L51 25L55 25L55 26L56 26L56 25L55 25L55 24L53 24L53 23L55 23L55 22L56 22L56 21L55 21L55 20L56 20L56 19L55 19L55 20L53 20L53 19L52 19L52 20L51 20L51 21L49 21L49 20L48 20L48 21L49 21L49 23L46 23L46 24L47 24L47 25L45 25L45 22L47 22L47 17L45 17L45 16L47 16L47 15L45 15L45 14L47 14L47 13L49 13L49 12L50 12L50 14L49 14L49 15L48 15L48 16L49 16L49 15L50 15L50 14L51 14L51 12L50 12L50 11L49 11L49 10L48 10L48 11L49 11L49 12L45 12L45 11L46 11L46 10L45 10L45 11L41 11L41 12L40 12L40 11L39 11L39 10L41 10L41 9L43 9L43 8L44 8L44 6L45 6L45 7L46 7L46 6L45 6L45 5L47 5L47 3L44 3L44 6L43 6L43 7L42 7L42 6L41 6L41 5L40 5L40 6L39 6L39 7L40 7L40 8L39 8L39 9L38 9L38 11L39 11L39 13L38 13L38 14L37 14L37 13L36 13L36 14L37 14L37 15L35 15L35 16L33 16L33 15L32 15L32 17L31 17L31 18L30 18L30 19L28 19L28 18L27 18L27 17L28 17L28 16L29 16L29 14L30 14L30 15L31 15L31 14L32 14L32 13L33 13L33 14L35 14L35 12L36 12L36 10L37 10L37 9L35 9L35 8L37 8L37 7L38 7L38 6L37 6L37 7L36 7L36 5L37 5L37 4L36 4L36 5L35 5L35 4L33 4L33 3L35 3L35 2L33 2L33 3L32 3L32 2ZM25 4L25 8L26 8L26 4ZM32 4L32 5L33 5L33 6L32 6L32 7L33 7L33 9L34 9L34 8L35 8L35 5L33 5L33 4ZM27 5L27 8L30 8L30 5ZM22 6L22 7L23 7L23 6ZM28 6L28 7L29 7L29 6ZM33 6L33 7L34 7L34 6ZM40 6L40 7L41 7L41 6ZM48 6L48 7L49 7L49 6ZM55 8L55 9L56 9L56 8ZM6 9L6 10L7 10L7 9ZM8 9L8 10L10 10L10 9ZM32 10L32 11L33 11L33 10ZM6 12L6 13L8 13L8 14L9 14L9 16L10 16L10 14L11 14L11 16L12 16L12 18L10 18L10 17L8 17L8 19L7 19L7 18L6 18L6 19L7 19L7 20L6 20L6 21L7 21L7 20L8 20L8 21L10 21L10 23L9 23L9 24L10 24L10 23L12 23L12 25L10 25L10 27L11 27L11 28L12 28L12 25L14 25L14 26L13 26L13 30L12 30L12 29L11 29L11 30L12 30L12 31L11 31L11 32L12 32L12 33L13 33L13 31L14 31L14 28L15 28L15 27L16 27L16 26L15 26L15 25L16 25L16 24L17 24L17 25L18 25L18 26L17 26L17 27L18 27L18 26L19 26L19 27L20 27L20 25L22 25L22 26L21 26L21 27L22 27L22 26L26 26L26 27L25 27L25 28L24 28L24 29L23 29L23 30L25 30L25 31L24 31L24 32L25 32L25 33L23 33L23 34L22 34L22 33L21 33L21 32L23 32L23 31L20 31L20 29L22 29L22 28L19 28L19 29L18 29L18 28L16 28L16 29L15 29L15 31L16 31L16 29L18 29L18 30L17 30L17 31L19 31L19 32L15 32L15 33L17 33L17 35L18 35L18 33L21 33L21 34L20 34L20 35L23 35L23 34L24 34L24 36L23 36L23 37L24 37L24 38L23 38L23 39L24 39L24 40L25 40L25 36L26 36L26 35L27 35L27 34L26 34L26 35L25 35L25 33L27 33L27 32L28 32L28 33L29 33L29 34L30 34L30 36L29 36L29 37L31 37L31 38L29 38L29 39L33 39L33 40L35 40L35 42L37 42L37 43L36 43L36 44L35 44L35 43L34 43L34 42L33 42L33 41L32 41L32 40L30 40L30 41L32 41L32 42L29 42L29 43L28 43L28 44L27 44L27 43L25 43L25 44L27 44L27 45L26 45L26 47L27 47L27 45L29 45L29 44L31 44L31 45L32 45L32 46L33 46L33 47L34 47L34 48L35 48L35 49L36 49L36 50L38 50L38 51L37 51L37 52L38 52L38 51L40 51L40 52L41 52L41 50L38 50L38 49L39 49L39 48L41 48L41 46L43 46L43 47L42 47L42 48L43 48L43 47L44 47L44 48L45 48L45 47L46 47L46 48L48 48L48 47L50 47L50 46L51 46L51 47L53 47L53 46L51 46L51 45L50 45L50 44L51 44L51 43L53 43L53 42L51 42L51 43L50 43L50 44L49 44L49 45L48 45L48 46L45 46L45 47L44 47L44 46L43 46L43 45L44 45L44 44L45 44L45 45L47 45L47 43L48 43L48 42L47 42L47 43L46 43L46 44L45 44L45 43L44 43L44 44L43 44L43 41L44 41L44 42L45 42L45 41L47 41L47 39L48 39L48 38L47 38L47 39L46 39L46 38L45 38L45 37L44 37L44 36L45 36L45 35L46 35L46 36L47 36L47 35L46 35L46 34L45 34L45 33L43 33L43 32L45 32L45 31L43 31L43 32L41 32L41 33L39 33L39 34L40 34L40 35L38 35L38 33L37 33L37 32L35 32L35 34L33 34L33 33L34 33L34 32L33 32L33 31L36 31L36 29L38 29L38 28L39 28L39 27L41 27L41 28L42 28L42 26L43 26L43 25L44 25L44 27L43 27L43 28L45 28L45 27L46 27L46 26L45 26L45 25L44 25L44 24L43 24L43 23L44 23L44 20L45 20L45 21L46 21L46 20L45 20L45 19L46 19L46 18L44 18L44 15L42 15L42 16L41 16L41 15L40 15L40 14L38 14L38 15L39 15L39 16L38 16L38 17L37 17L37 16L35 16L35 17L37 17L37 18L38 18L38 17L39 17L39 19L38 19L38 20L36 20L36 19L35 19L35 18L33 18L33 19L32 19L32 18L31 18L31 20L29 20L29 23L30 23L30 22L31 22L31 21L32 21L32 20L33 20L33 21L34 21L34 20L35 20L35 23L34 23L34 22L33 22L33 23L32 23L32 24L29 24L29 25L27 25L27 26L26 26L26 25L25 25L25 24L28 24L28 23L27 23L27 22L28 22L28 21L26 21L26 19L25 19L25 18L26 18L26 17L22 17L22 16L20 16L20 17L22 17L22 18L24 18L24 19L23 19L23 20L24 20L24 21L23 21L23 22L24 22L24 21L25 21L25 22L26 22L26 23L25 23L25 24L24 24L24 23L23 23L23 25L22 25L22 24L17 24L17 21L16 21L16 20L15 20L15 21L16 21L16 22L15 22L15 23L16 23L16 24L15 24L15 25L14 25L14 24L13 24L13 23L12 23L12 21L13 21L13 22L14 22L14 21L13 21L13 20L14 20L14 19L13 19L13 18L14 18L14 16L16 16L16 13L15 13L15 14L14 14L14 16L13 16L13 15L12 15L12 14L13 14L13 13L10 13L10 14L9 14L9 13L8 13L8 12ZM31 12L31 13L30 13L30 14L31 14L31 13L32 13L32 12ZM33 12L33 13L34 13L34 12ZM43 12L43 13L41 13L41 14L44 14L44 12ZM52 12L52 13L53 13L53 15L55 15L55 14L56 14L56 12L54 12L54 13L53 13L53 12ZM28 13L28 14L29 14L29 13ZM54 13L54 14L55 14L55 13ZM26 14L26 15L25 15L25 16L26 16L26 15L27 15L27 16L28 16L28 15L27 15L27 14ZM5 16L5 17L7 17L7 16ZM39 16L39 17L41 17L41 16ZM42 16L42 17L43 17L43 16ZM15 17L15 18L16 18L16 17ZM20 18L20 19L21 19L21 20L22 20L22 19L21 19L21 18ZM41 18L41 19L42 19L42 18ZM43 18L43 20L44 20L44 18ZM48 18L48 19L49 19L49 18ZM9 19L9 20L11 20L11 21L12 21L12 19ZM33 19L33 20L34 20L34 19ZM38 20L38 22L39 22L39 23L37 23L37 24L39 24L39 25L38 25L38 26L37 26L37 25L33 25L33 24L32 24L32 26L31 26L31 28L32 28L32 29L31 29L31 31L30 31L30 32L29 32L29 33L31 33L31 35L32 35L32 33L33 33L33 32L32 32L32 29L33 29L33 30L35 30L35 28L33 28L33 27L34 27L34 26L36 26L36 27L39 27L39 25L41 25L41 26L42 26L42 25L41 25L41 24L42 24L42 22L41 22L41 24L39 24L39 23L40 23L40 22L39 22L39 21L42 21L42 20ZM51 21L51 22L50 22L50 23L53 23L53 22L54 22L54 21ZM4 22L4 23L5 23L5 22ZM6 22L6 23L7 23L7 24L8 24L8 22ZM19 22L19 23L20 23L20 22ZM21 22L21 23L22 23L22 22ZM1 26L1 27L2 27L2 28L3 28L3 27L4 27L4 26L3 26L3 27L2 27L2 26ZM32 26L32 27L33 27L33 26ZM53 26L53 27L54 27L54 26ZM5 27L5 30L8 30L8 27ZM27 27L27 30L30 30L30 27ZM49 27L49 30L52 30L52 27ZM55 27L55 28L54 28L54 29L53 29L53 30L54 30L54 31L55 31L55 30L54 30L54 29L56 29L56 27ZM6 28L6 29L7 29L7 28ZM25 28L25 29L26 29L26 28ZM28 28L28 29L29 29L29 28ZM50 28L50 29L51 29L51 28ZM4 31L4 33L5 33L5 32L7 32L7 31ZM31 32L31 33L32 33L32 32ZM48 32L48 33L49 33L49 32ZM50 32L50 34L49 34L49 35L50 35L50 36L51 36L51 37L52 37L52 35L53 35L53 34L52 34L52 33L51 33L51 32ZM55 32L55 33L56 33L56 32ZM7 34L7 35L6 35L6 36L8 36L8 38L9 38L9 39L10 39L10 40L11 40L11 38L9 38L9 37L11 37L11 36L9 36L9 35L8 35L8 34ZM35 34L35 36L37 36L37 37L38 37L38 38L37 38L37 39L35 39L35 40L38 40L38 42L39 42L39 41L41 41L41 38L40 38L40 37L41 37L41 36L42 36L42 35L43 35L43 36L44 36L44 35L45 35L45 34L42 34L42 35L41 35L41 36L40 36L40 37L38 37L38 35L37 35L37 34ZM50 34L50 35L52 35L52 34ZM33 35L33 36L32 36L32 37L33 37L33 36L34 36L34 35ZM26 37L26 40L27 40L27 41L26 41L26 42L27 42L27 41L28 41L28 39L27 39L27 38L28 38L28 37ZM34 37L34 38L33 38L33 39L34 39L34 38L35 38L35 37ZM43 37L43 38L42 38L42 39L43 39L43 40L44 40L44 41L45 41L45 40L46 40L46 39L45 39L45 38L44 38L44 37ZM19 38L19 39L20 39L20 38ZM38 38L38 40L40 40L40 39L39 39L39 38ZM3 39L3 40L1 40L1 41L2 41L2 42L3 42L3 40L4 40L4 39ZM44 39L44 40L45 40L45 39ZM21 41L21 42L22 42L22 43L21 43L21 44L22 44L22 45L24 45L24 44L23 44L23 42L25 42L25 41L23 41L23 42L22 42L22 41ZM32 42L32 43L31 43L31 44L32 44L32 45L33 45L33 46L36 46L36 47L35 47L35 48L36 48L36 47L37 47L37 46L36 46L36 45L34 45L34 43L33 43L33 42ZM41 42L41 44L40 44L40 43L39 43L39 45L38 45L38 46L39 46L39 47L38 47L38 48L37 48L37 49L38 49L38 48L39 48L39 47L40 47L40 46L41 46L41 44L42 44L42 42ZM32 43L32 44L33 44L33 43ZM0 44L0 45L1 45L1 44ZM49 45L49 46L50 46L50 45ZM10 47L10 48L12 48L12 47ZM14 47L14 48L15 48L15 47ZM20 47L20 48L21 48L21 47ZM55 48L55 50L54 50L54 51L55 51L55 50L56 50L56 48ZM11 49L11 50L12 50L12 49ZM14 49L14 50L15 50L15 49ZM27 49L27 52L30 52L30 49ZM49 49L49 52L52 52L52 49ZM28 50L28 51L29 51L29 50ZM50 50L50 51L51 51L51 50ZM31 51L31 53L30 53L30 54L27 54L27 53L26 53L26 55L27 55L27 56L29 56L29 55L30 55L30 56L31 56L31 54L32 54L32 53L33 53L33 54L34 54L34 55L35 55L35 56L36 56L36 54L35 54L35 53L33 53L33 52L32 52L32 51ZM45 51L45 52L44 52L44 53L43 53L43 54L44 54L44 53L45 53L45 52L46 52L46 51ZM10 53L10 54L11 54L11 53ZM24 53L24 54L23 54L23 55L24 55L24 56L25 56L25 53ZM17 54L17 55L18 55L18 54ZM41 54L41 55L42 55L42 56L43 56L43 55L42 55L42 54ZM50 55L50 56L51 56L51 55ZM53 55L53 56L55 56L55 57L56 57L56 56L55 56L55 55ZM46 56L46 57L47 57L47 56ZM0 0L0 7L7 7L7 0ZM1 1L1 6L6 6L6 1ZM2 2L2 5L5 5L5 2ZM50 0L50 7L57 7L57 0ZM51 1L51 6L56 6L56 1ZM52 2L52 5L55 5L55 2ZM0 50L0 57L7 57L7 50ZM1 51L1 56L6 56L6 51ZM2 52L2 55L5 55L5 52Z" fill="#000000"/></g></g></svg>
