<?xml version="1.0" encoding="UTF-8"?>
<svg xmlns="http://www.w3.org/2000/svg" version="1.1" width="300" height="300" viewBox="0 0 300 300"><rect x="0" y="0" width="300" height="300" fill="#fefefe"/><g transform="scale(4.615)"><g transform="translate(4,4)"><path fill-rule="evenodd" d="M9 0L9 1L10 1L10 2L9 2L9 3L8 3L8 5L9 5L9 6L8 6L8 7L9 7L9 9L8 9L8 8L5 8L5 10L6 10L6 11L4 11L4 9L2 9L2 8L0 8L0 11L1 11L1 12L0 12L0 14L1 14L1 13L2 13L2 14L3 14L3 15L2 15L2 16L1 16L1 15L0 15L0 18L1 18L1 19L2 19L2 20L0 20L0 22L1 22L1 21L3 21L3 22L2 22L2 23L4 23L4 24L3 24L3 25L2 25L2 24L0 24L0 25L2 25L2 26L1 26L1 27L0 27L0 29L1 29L1 27L3 27L3 28L2 28L2 30L1 30L1 31L0 31L0 33L2 33L2 32L1 32L1 31L2 31L2 30L3 30L3 32L5 32L5 33L7 33L7 34L6 34L6 35L7 35L7 36L6 36L6 37L7 37L7 38L6 38L6 39L7 39L7 40L5 40L5 39L3 39L3 38L5 38L5 36L4 36L4 35L2 35L2 36L3 36L3 37L2 37L2 38L1 38L1 37L0 37L0 38L1 38L1 39L0 39L0 43L2 43L2 44L1 44L1 45L0 45L0 48L5 48L5 47L7 47L7 48L6 48L6 49L8 49L8 52L9 52L9 50L10 50L10 53L9 53L9 54L12 54L12 55L11 55L11 56L12 56L12 57L16 57L16 56L17 56L17 57L21 57L21 56L19 56L19 53L20 53L20 52L19 52L19 51L21 51L21 54L20 54L20 55L21 55L21 54L23 54L23 55L22 55L22 56L24 56L24 53L28 53L28 55L26 55L26 54L25 54L25 55L26 55L26 56L25 56L25 57L26 57L26 56L27 56L27 57L29 57L29 56L30 56L30 57L31 57L31 56L33 56L33 55L34 55L34 56L35 56L35 57L39 57L39 56L42 56L42 55L43 55L43 57L44 57L44 55L45 55L45 54L46 54L46 56L45 56L45 57L47 57L47 54L46 54L46 53L47 53L47 52L46 52L46 51L45 51L45 53L44 53L44 50L46 50L46 49L47 49L47 50L48 50L48 55L49 55L49 56L50 56L50 57L52 57L52 56L50 56L50 55L49 55L49 54L52 54L52 55L53 55L53 57L54 57L54 56L55 56L55 57L56 57L56 56L55 56L55 55L57 55L57 54L55 54L55 53L57 53L57 52L55 52L55 51L56 51L56 50L57 50L57 49L56 49L56 46L55 46L55 47L53 47L53 45L54 45L54 44L55 44L55 45L57 45L57 44L56 44L56 43L57 43L57 42L56 42L56 43L55 43L55 41L53 41L53 40L55 40L55 39L56 39L56 40L57 40L57 37L56 37L56 36L57 36L57 35L56 35L56 34L57 34L57 32L56 32L56 31L57 31L57 27L55 27L55 26L57 26L57 24L56 24L56 22L55 22L55 23L54 23L54 21L53 21L53 22L51 22L51 18L53 18L53 17L56 17L56 14L57 14L57 11L56 11L56 10L57 10L57 9L56 9L56 10L54 10L54 11L52 11L52 12L51 12L51 11L50 11L50 10L52 10L52 9L54 9L54 8L52 8L52 9L48 9L48 8L49 8L49 6L48 6L48 7L47 7L47 5L48 5L48 0L42 0L42 1L41 1L41 0L38 0L38 2L39 2L39 4L40 4L40 5L41 5L41 6L40 6L40 7L39 7L39 6L38 6L38 4L37 4L37 3L36 3L36 1L35 1L35 0L34 0L34 2L33 2L33 1L32 1L32 0L30 0L30 1L31 1L31 2L29 2L29 1L28 1L28 0L26 0L26 2L27 2L27 3L20 3L20 2L19 2L19 1L17 1L17 0L16 0L16 1L15 1L15 0L12 0L12 1L14 1L14 2L13 2L13 3L12 3L12 4L11 4L11 0ZM20 0L20 1L23 1L23 2L25 2L25 0L24 0L24 1L23 1L23 0ZM16 1L16 2L14 2L14 3L18 3L18 2L17 2L17 1ZM27 1L27 2L28 2L28 3L29 3L29 2L28 2L28 1ZM39 1L39 2L40 2L40 1ZM43 1L43 2L42 2L42 3L41 3L41 4L43 4L43 3L44 3L44 2L47 2L47 1ZM31 2L31 3L30 3L30 4L31 4L31 8L32 8L32 9L33 9L33 8L34 8L34 9L35 9L35 10L33 10L33 11L32 11L32 10L31 10L31 11L29 11L29 12L30 12L30 13L29 13L29 14L26 14L26 13L27 13L27 12L28 12L28 11L26 11L26 13L25 13L25 11L24 11L24 12L22 12L22 10L21 10L21 13L20 13L20 10L19 10L19 13L20 13L20 14L17 14L17 11L18 11L18 9L17 9L17 10L16 10L16 12L14 12L14 11L13 11L13 10L14 10L14 9L15 9L15 8L19 8L19 7L20 7L20 5L19 5L19 4L20 4L20 3L19 3L19 4L16 4L16 6L15 6L15 7L14 7L14 5L15 5L15 4L13 4L13 5L12 5L12 6L11 6L11 4L10 4L10 6L9 6L9 7L10 7L10 8L11 8L11 7L12 7L12 6L13 6L13 7L14 7L14 9L13 9L13 10L12 10L12 9L10 9L10 10L9 10L9 11L10 11L10 13L9 13L9 12L7 12L7 11L6 11L6 12L7 12L7 13L6 13L6 14L7 14L7 13L8 13L8 14L9 14L9 15L11 15L11 14L12 14L12 15L13 15L13 14L16 14L16 15L15 15L15 16L14 16L14 17L13 17L13 16L10 16L10 17L13 17L13 18L14 18L14 17L15 17L15 16L16 16L16 18L15 18L15 19L14 19L14 20L13 20L13 19L9 19L9 20L11 20L11 21L10 21L10 22L9 22L9 23L8 23L8 22L7 22L7 21L8 21L8 20L7 20L7 19L8 19L8 18L7 18L7 17L9 17L9 16L8 16L8 15L5 15L5 13L4 13L4 15L5 15L5 16L7 16L7 17L6 17L6 18L7 18L7 19L6 19L6 20L4 20L4 19L3 19L3 18L2 18L2 17L1 17L1 18L2 18L2 19L3 19L3 20L4 20L4 21L6 21L6 22L4 22L4 23L5 23L5 25L4 25L4 26L7 26L7 25L6 25L6 24L7 24L7 23L8 23L8 25L10 25L10 26L9 26L9 29L10 29L10 31L9 31L9 32L7 32L7 31L6 31L6 32L7 32L7 33L9 33L9 34L12 34L12 35L11 35L11 36L10 36L10 35L8 35L8 34L7 34L7 35L8 35L8 36L10 36L10 37L9 37L9 40L10 40L10 41L11 41L11 39L10 39L10 37L11 37L11 38L14 38L14 37L15 37L15 40L14 40L14 39L12 39L12 43L10 43L10 42L9 42L9 41L6 41L6 42L7 42L7 43L3 43L3 42L2 42L2 41L4 41L4 42L5 42L5 41L4 41L4 40L3 40L3 39L2 39L2 41L1 41L1 42L2 42L2 43L3 43L3 44L2 44L2 45L1 45L1 47L2 47L2 46L3 46L3 47L5 47L5 46L7 46L7 47L8 47L8 49L10 49L10 50L11 50L11 51L12 51L12 50L13 50L13 52L14 52L14 53L13 53L13 55L12 55L12 56L13 56L13 55L15 55L15 52L16 52L16 53L17 53L17 52L16 52L16 51L14 51L14 49L15 49L15 50L18 50L18 51L19 51L19 49L20 49L20 50L22 50L22 48L23 48L23 49L26 49L26 48L28 48L28 47L26 47L26 46L27 46L27 44L23 44L23 45L25 45L25 46L23 46L23 47L22 47L22 48L21 48L21 47L19 47L19 46L18 46L18 48L17 48L17 46L15 46L15 47L14 47L14 46L13 46L13 45L18 45L18 44L12 44L12 43L16 43L16 42L17 42L17 41L18 41L18 42L19 42L19 41L20 41L20 43L19 43L19 45L21 45L21 46L22 46L22 43L25 43L25 42L26 42L26 41L27 41L27 40L28 40L28 43L30 43L30 40L32 40L32 41L31 41L31 44L32 44L32 45L31 45L31 53L30 53L30 56L31 56L31 55L33 55L33 54L32 54L32 53L33 53L33 51L34 51L34 50L36 50L36 52L38 52L38 53L37 53L37 56L39 56L39 53L42 53L42 50L41 50L41 49L44 49L44 47L45 47L45 49L46 49L46 48L47 48L47 47L48 47L48 48L49 48L49 47L48 47L48 46L47 46L47 47L45 47L45 46L44 46L44 45L45 45L45 44L44 44L44 43L48 43L48 44L47 44L47 45L48 45L48 44L49 44L49 45L53 45L53 41L52 41L52 44L50 44L50 42L49 42L49 43L48 43L48 41L49 41L49 39L47 39L47 37L46 37L46 39L45 39L45 38L44 38L44 35L46 35L46 36L48 36L48 38L49 38L49 37L50 37L50 40L53 40L53 39L54 39L54 38L53 38L53 37L54 37L54 36L53 36L53 35L55 35L55 36L56 36L56 35L55 35L55 34L54 34L54 33L56 33L56 32L53 32L53 31L56 31L56 30L54 30L54 29L56 29L56 28L54 28L54 29L53 29L53 31L50 31L50 32L49 32L49 31L48 31L48 32L47 32L47 34L45 34L45 32L46 32L46 31L47 31L47 30L48 30L48 28L47 28L47 26L48 26L48 25L50 25L50 26L51 26L51 25L52 25L52 24L53 24L53 25L54 25L54 24L53 24L53 23L52 23L52 24L51 24L51 23L50 23L50 21L49 21L49 22L47 22L47 23L46 23L46 21L48 21L48 20L46 20L46 19L45 19L45 17L46 17L46 18L47 18L47 16L46 16L46 15L45 15L45 16L44 16L44 19L43 19L43 20L42 20L42 21L43 21L43 20L44 20L44 21L45 21L45 22L44 22L44 23L43 23L43 26L42 26L42 22L41 22L41 20L40 20L40 19L41 19L41 18L40 18L40 17L41 17L41 16L42 16L42 17L43 17L43 16L42 16L42 15L43 15L43 14L41 14L41 13L40 13L40 15L39 15L39 17L38 17L38 14L39 14L39 12L37 12L37 13L36 13L36 12L35 12L35 11L36 11L36 10L37 10L37 11L38 11L38 10L37 10L37 9L35 9L35 8L38 8L38 9L39 9L39 11L41 11L41 12L42 12L42 13L44 13L44 14L45 14L45 13L46 13L46 14L47 14L47 13L46 13L46 9L47 9L47 12L48 12L48 13L50 13L50 14L49 14L49 15L48 15L48 16L49 16L49 15L50 15L50 14L52 14L52 13L50 13L50 11L49 11L49 12L48 12L48 9L47 9L47 8L46 8L46 6L45 6L45 4L44 4L44 6L43 6L43 8L42 8L42 9L43 9L43 8L44 8L44 10L45 10L45 11L41 11L41 10L40 10L40 9L41 9L41 7L42 7L42 6L41 6L41 7L40 7L40 8L38 8L38 6L37 6L37 7L36 7L36 5L37 5L37 4L36 4L36 5L35 5L35 3L33 3L33 5L32 5L32 4L31 4L31 3L32 3L32 2ZM46 3L46 5L47 5L47 3ZM21 4L21 5L22 5L22 6L21 6L21 8L20 8L20 9L23 9L23 8L24 8L24 6L23 6L23 5L24 5L24 4ZM25 4L25 8L26 8L26 4ZM27 5L27 8L30 8L30 5ZM34 5L34 8L35 8L35 5ZM10 6L10 7L11 7L11 6ZM16 6L16 7L17 7L17 6ZM18 6L18 7L19 7L19 6ZM22 6L22 7L23 7L23 6ZM28 6L28 7L29 7L29 6ZM32 6L32 7L33 7L33 6ZM44 6L44 7L45 7L45 6ZM6 9L6 10L8 10L8 9ZM26 9L26 10L29 10L29 9ZM1 10L1 11L2 11L2 12L4 12L4 11L3 11L3 10ZM10 10L10 11L12 11L12 12L11 12L11 13L12 13L12 12L13 12L13 11L12 11L12 10ZM31 11L31 12L32 12L32 13L30 13L30 14L29 14L29 15L28 15L28 18L32 18L32 16L31 16L31 15L37 15L37 14L38 14L38 13L37 13L37 14L36 14L36 13L35 13L35 12L34 12L34 11L33 11L33 12L32 12L32 11ZM44 12L44 13L45 13L45 12ZM53 12L53 13L54 13L54 15L55 15L55 14L56 14L56 13L55 13L55 12ZM24 13L24 14L20 14L20 16L17 16L17 15L16 15L16 16L17 16L17 17L19 17L19 19L20 19L20 16L21 16L21 19L22 19L22 20L24 20L24 21L22 21L22 22L24 22L24 21L25 21L25 22L26 22L26 23L25 23L25 24L24 24L24 23L23 23L23 24L22 24L22 23L21 23L21 26L20 26L20 24L19 24L19 23L20 23L20 22L21 22L21 21L20 21L20 20L17 20L17 21L18 21L18 22L16 22L16 20L15 20L15 21L13 21L13 20L12 20L12 21L13 21L13 23L9 23L9 24L10 24L10 25L14 25L14 26L15 26L15 27L18 27L18 26L16 26L16 24L17 24L17 23L18 23L18 25L19 25L19 26L20 26L20 27L19 27L19 29L18 29L18 28L16 28L16 29L18 29L18 32L16 32L16 31L17 31L17 30L15 30L15 29L14 29L14 30L15 30L15 31L13 31L13 32L12 32L12 30L13 30L13 27L12 27L12 26L11 26L11 27L10 27L10 29L11 29L11 32L10 32L10 33L12 33L12 34L13 34L13 37L14 37L14 34L15 34L15 35L17 35L17 33L19 33L19 34L18 34L18 35L19 35L19 34L21 34L21 33L20 33L20 32L21 32L21 31L20 31L20 30L19 30L19 29L21 29L21 30L22 30L22 32L24 32L24 31L23 31L23 30L26 30L26 32L25 32L25 33L22 33L22 37L21 37L21 35L20 35L20 36L18 36L18 38L17 38L17 39L16 39L16 40L15 40L15 41L13 41L13 42L16 42L16 41L17 41L17 40L18 40L18 41L19 41L19 40L20 40L20 39L22 39L22 40L23 40L23 42L25 42L25 41L24 41L24 40L25 40L25 39L26 39L26 40L27 40L27 38L25 38L25 36L26 36L26 35L27 35L27 36L28 36L28 37L29 37L29 36L28 36L28 35L27 35L27 34L30 34L30 37L31 37L31 38L29 38L29 39L28 39L28 40L29 40L29 39L32 39L32 40L33 40L33 39L34 39L34 36L35 36L35 34L37 34L37 36L36 36L36 37L35 37L35 39L37 39L37 38L38 38L38 37L37 37L37 36L38 36L38 34L39 34L39 33L37 33L37 32L35 32L35 33L33 33L33 34L32 34L32 32L31 32L31 33L29 33L29 32L30 32L30 31L32 31L32 30L33 30L33 32L34 32L34 29L32 29L32 28L33 28L33 26L34 26L34 27L35 27L35 29L38 29L38 27L36 27L36 26L34 26L34 24L36 24L36 25L37 25L37 26L38 26L38 25L39 25L39 26L40 26L40 27L39 27L39 28L42 28L42 26L40 26L40 25L41 25L41 22L40 22L40 23L38 23L38 22L39 22L39 19L40 19L40 18L38 18L38 17L37 17L37 16L35 16L35 17L37 17L37 19L38 19L38 21L37 21L37 20L36 20L36 18L35 18L35 19L34 19L34 17L33 17L33 19L30 19L30 20L29 20L29 21L28 21L28 22L29 22L29 23L30 23L30 26L26 26L26 25L27 25L27 22L26 22L26 21L25 21L25 20L26 20L26 19L27 19L27 17L26 17L26 16L27 16L27 15L24 15L24 14L25 14L25 13ZM32 13L32 14L33 14L33 13ZM34 13L34 14L35 14L35 13ZM30 14L30 15L31 15L31 14ZM23 15L23 16L22 16L22 17L25 17L25 18L26 18L26 17L25 17L25 16L24 16L24 15ZM51 15L51 17L50 17L50 18L49 18L49 19L50 19L50 18L51 18L51 17L53 17L53 16L52 16L52 15ZM16 18L16 19L18 19L18 18ZM22 18L22 19L23 19L23 18ZM54 18L54 19L53 19L53 20L55 20L55 18ZM56 18L56 20L57 20L57 18ZM33 19L33 20L32 20L32 21L31 21L31 20L30 20L30 21L29 21L29 22L30 22L30 23L31 23L31 25L32 25L32 26L31 26L31 28L32 28L32 26L33 26L33 25L32 25L32 23L33 23L33 24L34 24L34 23L35 23L35 22L34 22L34 23L33 23L33 22L32 22L32 21L33 21L33 20L34 20L34 21L35 21L35 20L34 20L34 19ZM44 19L44 20L45 20L45 19ZM6 20L6 21L7 21L7 20ZM19 21L19 22L20 22L20 21ZM30 21L30 22L31 22L31 21ZM6 22L6 23L7 23L7 22ZM14 22L14 23L13 23L13 24L14 24L14 23L15 23L15 22ZM37 23L37 25L38 25L38 23ZM45 23L45 24L44 24L44 25L45 25L45 26L46 26L46 25L47 25L47 24L48 24L48 23L47 23L47 24L46 24L46 23ZM49 23L49 24L50 24L50 23ZM28 24L28 25L29 25L29 24ZM45 24L45 25L46 25L46 24ZM55 24L55 25L56 25L56 24ZM22 26L22 27L23 27L23 28L22 28L22 30L23 30L23 28L25 28L25 29L26 29L26 28L25 28L25 27L26 27L26 26L25 26L25 27L23 27L23 26ZM53 26L53 27L54 27L54 26ZM5 27L5 30L8 30L8 27ZM11 27L11 29L12 29L12 27ZM20 27L20 28L21 28L21 27ZM27 27L27 30L30 30L30 27ZM45 27L45 29L47 29L47 28L46 28L46 27ZM49 27L49 30L52 30L52 27ZM3 28L3 29L4 29L4 28ZM6 28L6 29L7 29L7 28ZM28 28L28 29L29 29L29 28ZM43 28L43 29L41 29L41 30L40 30L40 31L38 31L38 30L37 30L37 31L38 31L38 32L40 32L40 31L42 31L42 30L43 30L43 29L44 29L44 28ZM50 28L50 29L51 29L51 28ZM31 29L31 30L32 30L32 29ZM35 30L35 31L36 31L36 30ZM44 30L44 31L43 31L43 32L41 32L41 34L40 34L40 36L39 36L39 38L41 38L41 39L40 39L40 40L41 40L41 39L42 39L42 41L40 41L40 42L39 42L39 43L36 43L36 42L38 42L38 40L35 40L35 42L34 42L34 41L32 41L32 44L34 44L34 45L33 45L33 46L32 46L32 47L33 47L33 48L32 48L32 49L33 49L33 50L34 50L34 49L35 49L35 45L37 45L37 46L36 46L36 50L38 50L38 51L39 51L39 52L40 52L40 51L41 51L41 50L40 50L40 49L41 49L41 46L43 46L43 47L42 47L42 48L43 48L43 47L44 47L44 46L43 46L43 45L44 45L44 44L43 44L43 43L44 43L44 41L43 41L43 40L44 40L44 39L42 39L42 38L43 38L43 36L42 36L42 34L44 34L44 33L43 33L43 32L45 32L45 31L46 31L46 30ZM19 31L19 32L20 32L20 31ZM27 31L27 32L26 32L26 33L25 33L25 35L26 35L26 33L28 33L28 31ZM13 32L13 33L15 33L15 34L16 34L16 32ZM48 32L48 33L49 33L49 32ZM50 32L50 33L51 33L51 32ZM52 32L52 35L53 35L53 32ZM23 34L23 37L22 37L22 39L23 39L23 40L24 40L24 39L23 39L23 38L24 38L24 34ZM48 34L48 35L50 35L50 37L51 37L51 38L52 38L52 37L53 37L53 36L51 36L51 35L50 35L50 34ZM0 35L0 36L1 36L1 35ZM16 36L16 37L17 37L17 36ZM31 36L31 37L32 37L32 36ZM41 36L41 38L42 38L42 36ZM7 38L7 39L8 39L8 38ZM19 38L19 39L18 39L18 40L19 40L19 39L20 39L20 38ZM45 41L45 42L46 42L46 41ZM8 42L8 43L7 43L7 44L6 44L6 45L7 45L7 46L8 46L8 45L9 45L9 48L11 48L11 47L10 47L10 46L12 46L12 45L10 45L10 44L9 44L9 42ZM40 42L40 44L39 44L39 46L41 46L41 44L42 44L42 43L41 43L41 42ZM20 43L20 44L21 44L21 43ZM3 44L3 46L5 46L5 44ZM7 44L7 45L8 45L8 44ZM28 44L28 45L29 45L29 46L30 46L30 44ZM50 46L50 47L51 47L51 46ZM29 47L29 48L30 48L30 47ZM38 47L38 50L39 50L39 49L40 49L40 47ZM52 47L52 48L53 48L53 49L54 49L54 48L53 48L53 47ZM13 48L13 49L14 49L14 48ZM18 48L18 49L19 49L19 48ZM33 48L33 49L34 49L34 48ZM27 49L27 52L30 52L30 49ZM49 49L49 52L52 52L52 49ZM55 49L55 50L54 50L54 51L55 51L55 50L56 50L56 49ZM23 50L23 52L22 52L22 53L24 53L24 52L26 52L26 50ZM28 50L28 51L29 51L29 50ZM50 50L50 51L51 51L51 50ZM11 52L11 53L12 53L12 52ZM34 52L34 54L35 54L35 52ZM53 52L53 53L54 53L54 52ZM43 53L43 55L44 55L44 53ZM16 54L16 55L17 55L17 54ZM40 54L40 55L42 55L42 54ZM53 54L53 55L55 55L55 54ZM8 55L8 57L9 57L9 55ZM28 55L28 56L29 56L29 55ZM35 55L35 56L36 56L36 55ZM0 0L0 7L7 7L7 0ZM1 1L1 6L6 6L6 1ZM2 2L2 5L5 5L5 2ZM50 0L50 7L57 7L57 0ZM51 1L51 6L56 6L56 1ZM52 2L52 5L55 5L55 2ZM0 50L0 57L7 57L7 50ZM1 51L1 56L6 56L6 51ZM2 52L2 55L5 55L5 52Z" fill="#000000"/></g></g></svg>
