<?xml version="1.0" encoding="UTF-8"?>
<svg xmlns="http://www.w3.org/2000/svg" version="1.1" width="300" height="300" viewBox="0 0 300 300"><rect x="0" y="0" width="300" height="300" fill="#fefefe"/><g transform="scale(4.615)"><g transform="translate(4,4)"><path fill-rule="evenodd" d="M9 0L9 1L8 1L8 2L9 2L9 3L8 3L8 4L9 4L9 5L8 5L8 7L9 7L9 8L6 8L6 9L5 9L5 8L0 8L0 13L1 13L1 14L0 14L0 17L1 17L1 16L2 16L2 15L1 15L1 14L3 14L3 16L4 16L4 18L3 18L3 19L4 19L4 18L5 18L5 17L7 17L7 18L6 18L6 19L7 19L7 20L5 20L5 21L7 21L7 22L6 22L6 23L5 23L5 26L2 26L2 24L4 24L4 23L3 23L3 22L4 22L4 20L3 20L3 21L2 21L2 18L1 18L1 20L0 20L0 21L2 21L2 23L1 23L1 22L0 22L0 24L1 24L1 25L0 25L0 31L1 31L1 29L2 29L2 28L1 28L1 27L3 27L3 31L2 31L2 33L1 33L1 32L0 32L0 34L2 34L2 33L3 33L3 31L4 31L4 32L5 32L5 33L4 33L4 34L5 34L5 35L7 35L7 36L5 36L5 39L4 39L4 36L3 36L3 35L1 35L1 36L0 36L0 37L1 37L1 39L0 39L0 42L1 42L1 40L2 40L2 41L3 41L3 44L2 44L2 43L1 43L1 44L2 44L2 45L4 45L4 40L5 40L5 41L7 41L7 40L8 40L8 42L10 42L10 43L8 43L8 44L6 44L6 43L7 43L7 42L6 42L6 43L5 43L5 45L7 45L7 46L5 46L5 47L3 47L3 46L2 46L2 47L1 47L1 45L0 45L0 48L5 48L5 47L7 47L7 48L6 48L6 49L8 49L8 51L9 51L9 52L8 52L8 57L11 57L11 55L12 55L12 53L11 53L11 54L10 54L10 53L9 53L9 52L11 52L11 51L12 51L12 50L15 50L15 51L13 51L13 54L14 54L14 55L13 55L13 57L16 57L16 56L17 56L17 57L22 57L22 56L18 56L18 55L20 55L20 54L19 54L19 53L20 53L20 52L21 52L21 50L25 50L25 49L24 49L24 46L25 46L25 45L24 45L24 44L28 44L28 45L26 45L26 47L25 47L25 48L26 48L26 52L24 52L24 53L23 53L23 54L22 54L22 55L23 55L23 56L24 56L24 57L26 57L26 55L27 55L27 54L30 54L30 53L31 53L31 51L32 51L32 52L33 52L33 53L32 53L32 54L31 54L31 56L30 56L30 55L29 55L29 56L27 56L27 57L29 57L29 56L30 56L30 57L31 57L31 56L35 56L35 57L39 57L39 56L40 56L40 55L44 55L44 54L45 54L45 53L47 53L47 50L48 50L48 54L46 54L46 55L47 55L47 56L48 56L48 57L49 57L49 56L50 56L50 57L52 57L52 55L51 55L51 53L52 53L52 54L55 54L55 53L56 53L56 52L55 52L55 51L56 51L56 50L57 50L57 48L56 48L56 46L57 46L57 45L56 45L56 44L57 44L57 43L56 43L56 42L55 42L55 39L57 39L57 36L55 36L55 35L56 35L56 34L55 34L55 33L54 33L54 32L56 32L56 33L57 33L57 32L56 32L56 30L57 30L57 28L56 28L56 27L55 27L55 26L57 26L57 25L56 25L56 22L57 22L57 19L56 19L56 18L52 18L52 19L48 19L48 20L47 20L47 18L50 18L50 16L54 16L54 17L56 17L56 16L57 16L57 15L56 15L56 14L57 14L57 13L56 13L56 14L55 14L55 15L54 15L54 14L53 14L53 13L54 13L54 12L57 12L57 11L56 11L56 10L54 10L54 11L51 11L51 10L49 10L49 9L50 9L50 8L49 8L49 6L48 6L48 8L45 8L45 6L46 6L46 7L47 7L47 5L48 5L48 0L46 0L46 1L45 1L45 2L44 2L44 3L42 3L42 2L43 2L43 0L41 0L41 1L40 1L40 0L39 0L39 1L38 1L38 0L37 0L37 1L38 1L38 2L39 2L39 3L36 3L36 0L35 0L35 1L32 1L32 0L29 0L29 1L30 1L30 2L28 2L28 3L30 3L30 4L26 4L26 3L23 3L23 4L24 4L24 5L23 5L23 6L22 6L22 7L21 7L21 4L19 4L19 3L17 3L17 2L15 2L15 1L14 1L14 0ZM17 0L17 1L18 1L18 2L20 2L20 1L18 1L18 0ZM21 0L21 1L22 1L22 0ZM23 0L23 2L27 2L27 1L25 1L25 0ZM11 1L11 2L12 2L12 3L9 3L9 4L12 4L12 6L11 6L11 5L9 5L9 7L10 7L10 6L11 6L11 9L10 9L10 10L7 10L7 9L6 9L6 10L5 10L5 9L4 9L4 11L3 11L3 14L4 14L4 15L6 15L6 16L8 16L8 15L6 15L6 14L7 14L7 13L6 13L6 14L5 14L5 12L4 12L4 11L6 11L6 12L8 12L8 14L9 14L9 13L10 13L10 14L11 14L11 15L12 15L12 12L14 12L14 11L12 11L12 10L15 10L15 13L13 13L13 14L15 14L15 13L16 13L16 16L19 16L19 17L20 17L20 18L18 18L18 17L15 17L15 16L14 16L14 17L13 17L13 19L12 19L12 17L11 17L11 16L10 16L10 15L9 15L9 17L8 17L8 18L7 18L7 19L9 19L9 18L10 18L10 17L11 17L11 19L10 19L10 20L11 20L11 21L12 21L12 22L13 22L13 23L14 23L14 24L16 24L16 25L15 25L15 26L14 26L14 25L11 25L11 26L10 26L10 24L11 24L11 23L10 23L10 24L9 24L9 23L8 23L8 24L7 24L7 23L6 23L6 24L7 24L7 25L6 25L6 26L8 26L8 25L9 25L9 27L10 27L10 28L11 28L11 29L10 29L10 30L9 30L9 31L8 31L8 33L9 33L9 31L10 31L10 32L12 32L12 33L13 33L13 34L12 34L12 35L10 35L10 34L8 34L8 37L6 37L6 38L7 38L7 39L6 39L6 40L7 40L7 39L8 39L8 37L9 37L9 38L10 38L10 39L11 39L11 41L12 41L12 40L13 40L13 41L14 41L14 43L13 43L13 42L12 42L12 44L11 44L11 43L10 43L10 44L11 44L11 45L12 45L12 46L14 46L14 45L15 45L15 50L19 50L19 51L18 51L18 52L20 52L20 50L21 50L21 49L23 49L23 47L20 47L20 46L21 46L21 45L22 45L22 46L23 46L23 45L22 45L22 44L21 44L21 43L22 43L22 42L23 42L23 43L29 43L29 42L30 42L30 41L31 41L31 42L32 42L32 43L33 43L33 44L32 44L32 46L35 46L35 48L34 48L34 47L31 47L31 48L32 48L32 49L31 49L31 50L32 50L32 51L35 51L35 50L36 50L36 52L38 52L38 50L41 50L41 52L40 52L40 51L39 51L39 53L37 53L37 54L40 54L40 53L41 53L41 52L43 52L43 51L42 51L42 50L41 50L41 48L42 48L42 49L43 49L43 50L44 50L44 49L45 49L45 50L47 50L47 49L48 49L48 48L49 48L49 47L51 47L51 48L53 48L53 47L55 47L55 46L56 46L56 45L55 45L55 44L54 44L54 45L53 45L53 43L54 43L54 42L53 42L53 41L51 41L51 42L50 42L50 43L49 43L49 42L48 42L48 41L49 41L49 39L51 39L51 38L52 38L52 39L54 39L54 38L53 38L53 35L55 35L55 34L54 34L54 33L52 33L52 32L54 32L54 31L55 31L55 28L54 28L54 30L53 30L53 31L50 31L50 32L49 32L49 31L48 31L48 28L47 28L47 29L46 29L46 30L47 30L47 31L48 31L48 32L46 32L46 33L45 33L45 32L43 32L43 30L44 30L44 31L45 31L45 30L44 30L44 29L45 29L45 28L46 28L46 27L48 27L48 26L47 26L47 24L46 24L46 22L47 22L47 23L48 23L48 24L50 24L50 26L51 26L51 25L54 25L54 24L53 24L53 23L55 23L55 22L56 22L56 19L55 19L55 20L53 20L53 19L52 19L52 20L51 20L51 21L49 21L49 20L48 20L48 21L47 21L47 20L44 20L44 18L45 18L45 19L46 19L46 18L47 18L47 17L48 17L48 16L49 16L49 15L50 15L50 14L51 14L51 12L50 12L50 11L49 11L49 12L45 12L45 11L44 11L44 10L48 10L48 9L49 9L49 8L48 8L48 9L45 9L45 8L44 8L44 6L45 6L45 4L46 4L46 5L47 5L47 3L44 3L44 6L43 6L43 5L42 5L42 4L41 4L41 3L39 3L39 4L38 4L38 6L37 6L37 7L36 7L36 5L37 5L37 4L36 4L36 5L35 5L35 4L34 4L34 3L35 3L35 2L34 2L34 3L32 3L32 2L31 2L31 3L32 3L32 4L31 4L31 8L32 8L32 10L29 10L29 12L28 12L28 13L26 13L26 12L27 12L27 11L26 11L26 12L25 12L25 10L23 10L23 9L24 9L24 6L23 6L23 7L22 7L22 8L19 8L19 9L20 9L20 11L22 11L22 10L23 10L23 12L25 12L25 14L24 14L24 16L23 16L23 15L20 15L20 14L21 14L21 13L22 13L22 14L23 14L23 13L22 13L22 12L21 12L21 13L20 13L20 12L19 12L19 13L20 13L20 14L19 14L19 15L18 15L18 14L17 14L17 13L18 13L18 12L17 12L17 11L18 11L18 9L16 9L16 8L17 8L17 7L18 7L18 6L19 6L19 7L20 7L20 5L19 5L19 4L17 4L17 3L15 3L15 2L14 2L14 1L13 1L13 2L12 2L12 1ZM46 1L46 2L47 2L47 1ZM13 2L13 4L14 4L14 2ZM21 2L21 3L22 3L22 2ZM15 4L15 5L14 5L14 7L13 7L13 6L12 6L12 7L13 7L13 9L14 9L14 7L15 7L15 8L16 8L16 7L17 7L17 6L18 6L18 5L17 5L17 6L16 6L16 7L15 7L15 5L16 5L16 4ZM25 4L25 8L26 8L26 4ZM32 4L32 5L34 5L34 7L33 7L33 6L32 6L32 7L33 7L33 9L34 9L34 8L35 8L35 9L37 9L37 10L36 10L36 11L37 11L37 12L35 12L35 13L37 13L37 14L38 14L38 15L39 15L39 16L38 16L38 17L37 17L37 16L35 16L35 14L32 14L32 11L33 11L33 10L32 10L32 11L31 11L31 13L30 13L30 14L29 14L29 13L28 13L28 14L29 14L29 16L28 16L28 15L27 15L27 14L26 14L26 15L25 15L25 16L26 16L26 15L27 15L27 16L28 16L28 17L27 17L27 18L28 18L28 19L29 19L29 22L28 22L28 23L27 23L27 21L26 21L26 17L22 17L22 16L20 16L20 15L19 15L19 16L20 16L20 17L22 17L22 18L21 18L21 19L22 19L22 18L24 18L24 19L23 19L23 20L24 20L24 21L22 21L22 23L23 23L23 25L22 25L22 24L20 24L20 25L19 25L19 23L20 23L20 22L18 22L18 21L20 21L20 20L18 20L18 19L17 19L17 21L16 21L16 20L15 20L15 21L16 21L16 22L14 22L14 21L13 21L13 20L14 20L14 19L13 19L13 20L12 20L12 21L13 21L13 22L14 22L14 23L16 23L16 24L17 24L17 25L18 25L18 26L17 26L17 27L18 27L18 26L20 26L20 27L19 27L19 29L18 29L18 28L16 28L16 29L15 29L15 31L16 31L16 29L18 29L18 30L17 30L17 31L20 31L20 32L15 32L15 33L14 33L14 34L13 34L13 35L12 35L12 36L10 36L10 35L9 35L9 36L10 36L10 37L11 37L11 38L12 38L12 39L13 39L13 40L14 40L14 39L15 39L15 40L16 40L16 39L15 39L15 38L16 38L16 37L15 37L15 35L17 35L17 42L16 42L16 44L18 44L18 45L17 45L17 47L18 47L18 48L17 48L17 49L19 49L19 50L20 50L20 49L19 49L19 48L20 48L20 47L18 47L18 46L20 46L20 45L19 45L19 42L20 42L20 43L21 43L21 42L22 42L22 41L21 41L21 42L20 42L20 40L22 40L22 39L21 39L21 37L19 37L19 36L18 36L18 35L19 35L19 34L20 34L20 36L22 36L22 35L23 35L23 34L24 34L24 36L23 36L23 37L24 37L24 38L23 38L23 39L24 39L24 40L25 40L25 39L27 39L27 41L26 41L26 42L27 42L27 41L29 41L29 40L28 40L28 39L27 39L27 38L28 38L28 37L27 37L27 38L25 38L25 37L26 37L26 36L27 36L27 32L28 32L28 33L29 33L29 34L30 34L30 36L29 36L29 37L31 37L31 38L29 38L29 39L33 39L33 40L35 40L35 42L37 42L37 43L36 43L36 44L35 44L35 43L34 43L34 42L33 42L33 41L32 41L32 40L31 40L31 41L32 41L32 42L33 42L33 43L34 43L34 45L35 45L35 46L36 46L36 48L35 48L35 49L36 49L36 50L38 50L38 49L39 49L39 48L41 48L41 46L43 46L43 45L44 45L44 48L43 48L43 47L42 47L42 48L43 48L43 49L44 49L44 48L45 48L45 47L47 47L47 48L46 48L46 49L47 49L47 48L48 48L48 47L49 47L49 46L50 46L50 45L48 45L48 47L47 47L47 46L45 46L45 45L47 45L47 43L48 43L48 42L47 42L47 43L46 43L46 44L45 44L45 45L44 45L44 44L43 44L43 42L44 42L44 43L45 43L45 42L44 42L44 41L43 41L43 40L45 40L45 39L46 39L46 41L47 41L47 39L49 39L49 38L50 38L50 37L52 37L52 35L53 35L53 34L52 34L52 33L51 33L51 32L50 32L50 34L49 34L49 35L47 35L47 36L49 36L49 38L47 38L47 39L46 39L46 38L45 38L45 37L46 37L46 36L45 36L45 35L44 35L44 36L43 36L43 35L42 35L42 34L45 34L45 33L43 33L43 32L41 32L41 33L39 33L39 34L40 34L40 35L38 35L38 33L37 33L37 32L33 32L33 33L35 33L35 34L32 34L32 35L31 35L31 33L32 33L32 32L31 32L31 33L29 33L29 32L28 32L28 31L32 31L32 30L33 30L33 31L36 31L36 30L37 30L37 29L38 29L38 28L39 28L39 27L40 27L40 26L39 26L39 27L37 27L37 28L35 28L35 27L36 27L36 26L34 26L34 27L33 27L33 26L32 26L32 24L33 24L33 25L37 25L37 26L38 26L38 24L39 24L39 25L40 25L40 24L41 24L41 25L42 25L42 26L41 26L41 28L42 28L42 26L43 26L43 27L44 27L44 28L43 28L43 29L39 29L39 30L38 30L38 32L39 32L39 31L40 31L40 30L43 30L43 29L44 29L44 28L45 28L45 27L46 27L46 26L45 26L45 27L44 27L44 26L43 26L43 25L44 25L44 20L43 20L43 18L44 18L44 15L45 15L45 17L46 17L46 16L48 16L48 15L49 15L49 14L50 14L50 12L49 12L49 13L47 13L47 14L44 14L44 12L43 12L43 13L41 13L41 14L44 14L44 15L42 15L42 16L41 16L41 15L39 15L39 14L38 14L38 13L40 13L40 12L41 12L41 11L43 11L43 10L44 10L44 8L42 8L42 7L43 7L43 6L42 6L42 5L41 5L41 4L40 4L40 5L39 5L39 6L38 6L38 7L37 7L37 8L35 8L35 5L34 5L34 4ZM27 5L27 8L30 8L30 5ZM40 5L40 6L39 6L39 7L40 7L40 8L39 8L39 9L38 9L38 8L37 8L37 9L38 9L38 10L37 10L37 11L38 11L38 10L40 10L40 11L39 11L39 12L40 12L40 11L41 11L41 10L40 10L40 9L41 9L41 7L42 7L42 6L41 6L41 5ZM28 6L28 7L29 7L29 6ZM40 6L40 7L41 7L41 6ZM51 8L51 9L52 9L52 8ZM53 8L53 9L54 9L54 8ZM55 8L55 9L56 9L56 8ZM2 9L2 10L3 10L3 9ZM21 9L21 10L22 10L22 9ZM27 9L27 10L28 10L28 9ZM6 10L6 11L7 11L7 10ZM1 11L1 12L2 12L2 11ZM9 11L9 12L10 12L10 13L11 13L11 11ZM16 12L16 13L17 13L17 12ZM33 12L33 13L34 13L34 12ZM52 12L52 13L53 13L53 12ZM30 14L30 15L31 15L31 16L32 16L32 17L31 17L31 18L30 18L30 19L31 19L31 18L32 18L32 17L33 17L33 19L34 19L34 21L33 21L33 20L32 20L32 21L31 21L31 22L30 22L30 23L31 23L31 24L32 24L32 23L35 23L35 19L36 19L36 20L37 20L37 21L38 21L38 22L37 22L37 24L38 24L38 22L39 22L39 24L40 24L40 22L39 22L39 21L43 21L43 20L42 20L42 18L41 18L41 20L39 20L39 21L38 21L38 19L39 19L39 17L41 17L41 16L39 16L39 17L38 17L38 18L37 18L37 17L35 17L35 16L32 16L32 14ZM42 16L42 17L43 17L43 16ZM15 18L15 19L16 19L16 18ZM24 21L24 22L23 22L23 23L24 23L24 24L25 24L25 25L26 25L26 26L25 26L25 27L24 27L24 26L22 26L22 25L20 25L20 26L22 26L22 27L20 27L20 28L22 28L22 29L20 29L20 31L23 31L23 32L21 32L21 33L20 33L20 34L21 34L21 33L22 33L22 34L23 34L23 33L25 33L25 35L26 35L26 32L24 32L24 31L25 31L25 30L23 30L23 29L24 29L24 28L25 28L25 29L26 29L26 28L25 28L25 27L26 27L26 26L27 26L27 25L30 25L30 24L25 24L25 23L26 23L26 22L25 22L25 21ZM45 21L45 22L46 22L46 21ZM48 21L48 22L49 22L49 21ZM51 21L51 22L50 22L50 23L53 23L53 22L54 22L54 21ZM41 22L41 24L43 24L43 23L42 23L42 22ZM17 23L17 24L18 24L18 23ZM11 26L11 27L13 27L13 26ZM15 26L15 27L14 27L14 28L15 28L15 27L16 27L16 26ZM31 26L31 27L32 27L32 29L33 29L33 30L35 30L35 28L33 28L33 27L32 27L32 26ZM53 26L53 27L54 27L54 26ZM5 27L5 30L8 30L8 27ZM27 27L27 30L30 30L30 27ZM49 27L49 30L52 30L52 27ZM6 28L6 29L7 29L7 28ZM12 28L12 29L13 29L13 32L14 32L14 29L13 29L13 28ZM28 28L28 29L29 29L29 28ZM50 28L50 29L51 29L51 28ZM10 30L10 31L12 31L12 30ZM6 31L6 32L7 32L7 31ZM48 32L48 33L49 33L49 32ZM5 33L5 34L7 34L7 33ZM15 33L15 34L14 34L14 35L13 35L13 36L12 36L12 38L15 38L15 37L13 37L13 36L14 36L14 35L15 35L15 34L19 34L19 33ZM35 34L35 36L32 36L32 37L33 37L33 38L35 38L35 36L37 36L37 37L38 37L38 38L37 38L37 39L35 39L35 40L38 40L38 42L39 42L39 44L40 44L40 45L38 45L38 46L41 46L41 44L42 44L42 43L41 43L41 42L40 42L40 41L42 41L42 39L45 39L45 38L44 38L44 37L45 37L45 36L44 36L44 37L43 37L43 38L42 38L42 39L41 39L41 38L40 38L40 37L41 37L41 36L40 36L40 37L38 37L38 35L37 35L37 34ZM50 34L50 35L49 35L49 36L50 36L50 35L52 35L52 34ZM1 36L1 37L3 37L3 36ZM18 37L18 38L19 38L19 39L20 39L20 38L19 38L19 37ZM2 38L2 40L4 40L4 39L3 39L3 38ZM38 38L38 40L39 40L39 38ZM9 40L9 41L10 41L10 40ZM18 41L18 42L17 42L17 43L18 43L18 42L19 42L19 41ZM23 41L23 42L25 42L25 41ZM51 42L51 43L50 43L50 44L51 44L51 43L53 43L53 42ZM14 43L14 44L13 44L13 45L14 45L14 44L15 44L15 43ZM40 43L40 44L41 44L41 43ZM29 44L29 45L28 45L28 46L27 46L27 47L26 47L26 48L27 48L27 47L28 47L28 48L29 48L29 47L28 47L28 46L29 46L29 45L31 45L31 44ZM8 45L8 46L9 46L9 47L10 47L10 48L9 48L9 51L11 51L11 50L12 50L12 49L13 49L13 48L14 48L14 47L13 47L13 48L12 48L12 47L10 47L10 45ZM54 45L54 46L55 46L55 45ZM51 46L51 47L53 47L53 46ZM38 47L38 48L37 48L37 49L38 49L38 48L39 48L39 47ZM33 48L33 49L32 49L32 50L33 50L33 49L34 49L34 48ZM55 48L55 50L54 50L54 51L55 51L55 50L56 50L56 48ZM10 49L10 50L11 50L11 49ZM27 49L27 52L30 52L30 49ZM49 49L49 52L52 52L52 49ZM28 50L28 51L29 51L29 50ZM50 50L50 51L51 51L51 50ZM16 51L16 53L14 53L14 54L16 54L16 53L17 53L17 51ZM22 51L22 52L23 52L23 51ZM45 51L45 52L44 52L44 53L43 53L43 54L44 54L44 53L45 53L45 52L46 52L46 51ZM53 52L53 53L54 53L54 52ZM24 53L24 54L23 54L23 55L24 55L24 56L25 56L25 54L26 54L26 53ZM33 53L33 54L34 54L34 55L35 55L35 56L36 56L36 54L35 54L35 53ZM9 54L9 56L10 56L10 54ZM15 55L15 56L16 56L16 55ZM37 55L37 56L39 56L39 55ZM50 55L50 56L51 56L51 55ZM53 55L53 56L55 56L55 57L56 57L56 56L55 56L55 55ZM43 56L43 57L44 57L44 56ZM45 56L45 57L46 57L46 56ZM0 0L0 7L7 7L7 0ZM1 1L1 6L6 6L6 1ZM2 2L2 5L5 5L5 2ZM50 0L50 7L57 7L57 0ZM51 1L51 6L56 6L56 1ZM52 2L52 5L55 5L55 2ZM0 50L0 57L7 57L7 50ZM1 51L1 56L6 56L6 51ZM2 52L2 55L5 55L5 52Z" fill="#000000"/></g></g></svg>
