<?xml version="1.0" encoding="UTF-8"?>
<svg xmlns="http://www.w3.org/2000/svg" version="1.1" width="300" height="300" viewBox="0 0 300 300"><rect x="0" y="0" width="300" height="300" fill="#fefefe"/><g transform="scale(4.615)"><g transform="translate(4,4)"><path fill-rule="evenodd" d="M11 0L11 1L8 1L8 2L9 2L9 3L8 3L8 4L9 4L9 5L8 5L8 7L9 7L9 8L6 8L6 9L8 9L8 10L5 10L5 12L4 12L4 9L5 9L5 8L0 8L0 9L3 9L3 10L2 10L2 11L0 11L0 12L1 12L1 15L3 15L3 14L4 14L4 16L2 16L2 17L1 17L1 16L0 16L0 19L2 19L2 22L4 22L4 23L3 23L3 24L0 24L0 27L1 27L1 25L2 25L2 28L0 28L0 29L2 29L2 34L3 34L3 35L4 35L4 36L5 36L5 38L6 38L6 39L4 39L4 40L6 40L6 41L4 41L4 42L3 42L3 44L0 44L0 45L1 45L1 46L0 46L0 48L5 48L5 47L7 47L7 46L8 46L8 48L10 48L10 47L12 47L12 48L11 48L11 49L12 49L12 51L10 51L10 50L9 50L9 49L8 49L8 51L9 51L9 52L8 52L8 57L9 57L9 55L10 55L10 57L11 57L11 56L12 56L12 55L13 55L13 56L14 56L14 54L15 54L15 55L16 55L16 56L15 56L15 57L16 57L16 56L17 56L17 57L20 57L20 56L19 56L19 55L20 55L20 54L19 54L19 53L20 53L20 52L22 52L22 51L20 51L20 50L19 50L19 49L21 49L21 50L25 50L25 49L26 49L26 52L24 52L24 53L21 53L21 54L22 54L22 56L24 56L24 57L26 57L26 56L24 56L24 55L23 55L23 54L24 54L24 53L27 53L27 54L30 54L30 53L31 53L31 51L32 51L32 52L33 52L33 53L32 53L32 54L31 54L31 56L30 56L30 55L29 55L29 56L27 56L27 57L29 57L29 56L30 56L30 57L31 57L31 56L35 56L35 57L39 57L39 56L42 56L42 55L44 55L44 54L45 54L45 57L49 57L49 56L50 56L50 57L52 57L52 55L51 55L51 53L52 53L52 54L53 54L53 55L54 55L54 56L53 56L53 57L54 57L54 56L55 56L55 57L56 57L56 56L55 56L55 54L53 54L53 52L54 52L54 53L55 53L55 52L56 52L56 50L55 50L55 48L56 48L56 49L57 49L57 48L56 48L56 46L57 46L57 45L56 45L56 44L55 44L55 43L56 43L56 41L55 41L55 39L57 39L57 37L56 37L56 36L55 36L55 35L56 35L56 34L55 34L55 32L56 32L56 33L57 33L57 32L56 32L56 30L57 30L57 29L54 29L54 28L56 28L56 27L55 27L55 26L57 26L57 25L56 25L56 22L57 22L57 19L56 19L56 20L55 20L55 18L57 18L57 17L56 17L56 16L57 16L57 15L56 15L56 14L57 14L57 13L56 13L56 14L55 14L55 13L54 13L54 12L56 12L56 8L55 8L55 10L54 10L54 11L53 11L53 10L52 10L52 11L50 11L50 8L49 8L49 6L48 6L48 9L47 9L47 10L46 10L46 9L45 9L45 10L44 10L44 8L45 8L45 6L46 6L46 7L47 7L47 5L48 5L48 0L46 0L46 1L45 1L45 2L44 2L44 3L43 3L43 4L40 4L40 5L39 5L39 6L38 6L38 4L39 4L39 3L42 3L42 2L43 2L43 0L41 0L41 1L40 1L40 0L39 0L39 1L38 1L38 0L37 0L37 1L38 1L38 4L37 4L37 3L36 3L36 0L35 0L35 1L33 1L33 2L32 2L32 3L30 3L30 2L28 2L28 1L25 1L25 0L23 0L23 2L22 2L22 0L21 0L21 1L20 1L20 0L17 0L17 2L18 2L18 1L19 1L19 2L22 2L22 3L23 3L23 4L24 4L24 5L23 5L23 6L22 6L22 5L21 5L21 4L19 4L19 3L17 3L17 6L16 6L16 7L15 7L15 5L16 5L16 4L15 4L15 5L12 5L12 4L14 4L14 2L15 2L15 3L16 3L16 1L15 1L15 0L14 0L14 2L13 2L13 0ZM29 0L29 1L32 1L32 0ZM46 1L46 2L47 2L47 1ZM10 2L10 3L9 3L9 4L12 4L12 3L13 3L13 2ZM23 2L23 3L26 3L26 4L25 4L25 8L24 8L24 6L23 6L23 8L19 8L19 9L20 9L20 11L22 11L22 10L23 10L23 11L24 11L24 13L22 13L22 12L19 12L19 13L20 13L20 15L19 15L19 17L18 17L18 18L17 18L17 13L18 13L18 12L17 12L17 13L16 13L16 12L15 12L15 13L13 13L13 12L14 12L14 11L12 11L12 10L13 10L13 9L12 9L12 10L11 10L11 8L12 8L12 5L9 5L9 7L10 7L10 10L11 10L11 11L12 11L12 12L11 12L11 13L12 13L12 16L14 16L14 17L11 17L11 16L10 16L10 15L11 15L11 14L10 14L10 15L9 15L9 16L10 16L10 17L9 17L9 19L10 19L10 18L11 18L11 20L8 20L8 19L6 19L6 18L8 18L8 15L6 15L6 16L4 16L4 18L2 18L2 19L3 19L3 20L4 20L4 22L5 22L5 21L6 21L6 22L7 22L7 23L5 23L5 24L3 24L3 26L5 26L5 24L7 24L7 23L8 23L8 25L9 25L9 23L10 23L10 25L11 25L11 26L9 26L9 27L10 27L10 28L9 28L9 29L10 29L10 30L9 30L9 31L10 31L10 30L11 30L11 26L12 26L12 24L14 24L14 25L13 25L13 26L14 26L14 25L15 25L15 26L18 26L18 27L17 27L17 28L18 28L18 29L16 29L16 28L15 28L15 27L14 27L14 28L15 28L15 29L14 29L14 30L13 30L13 28L12 28L12 30L13 30L13 32L10 32L10 33L12 33L12 34L11 34L11 35L12 35L12 36L13 36L13 37L14 37L14 39L16 39L16 40L14 40L14 42L13 42L13 38L12 38L12 37L11 37L11 38L10 38L10 34L8 34L8 35L9 35L9 36L8 36L8 37L6 37L6 38L7 38L7 39L6 39L6 40L7 40L7 41L6 41L6 42L4 42L4 44L3 44L3 45L4 45L4 46L3 46L3 47L5 47L5 46L7 46L7 45L5 45L5 43L6 43L6 44L8 44L8 46L12 46L12 47L13 47L13 50L14 50L14 53L15 53L15 54L16 54L16 53L17 53L17 52L19 52L19 50L17 50L17 49L16 49L16 48L18 48L18 47L17 47L17 45L18 45L18 44L16 44L16 43L15 43L15 42L17 42L17 43L18 43L18 42L19 42L19 43L20 43L20 44L19 44L19 45L20 45L20 46L19 46L19 47L21 47L21 49L23 49L23 47L21 47L21 45L22 45L22 46L23 46L23 45L22 45L22 44L21 44L21 43L22 43L22 42L23 42L23 44L24 44L24 45L25 45L25 47L26 47L26 48L28 48L28 47L29 47L29 46L30 46L30 45L29 45L29 44L30 44L30 43L29 43L29 44L28 44L28 45L27 45L27 44L24 44L24 43L27 43L27 42L32 42L32 43L31 43L31 44L32 44L32 45L31 45L31 46L32 46L32 47L33 47L33 48L32 48L32 49L31 49L31 50L32 50L32 51L35 51L35 50L36 50L36 52L37 52L37 51L38 51L38 53L37 53L37 54L40 54L40 53L42 53L42 52L43 52L43 51L44 51L44 50L43 50L43 51L42 51L42 50L41 50L41 48L42 48L42 49L43 49L43 48L44 48L44 49L45 49L45 50L47 50L47 53L45 53L45 52L44 52L44 53L43 53L43 54L44 54L44 53L45 53L45 54L48 54L48 50L47 50L47 49L48 49L48 48L49 48L49 47L48 47L48 44L49 44L49 46L50 46L50 47L52 47L52 48L53 48L53 49L54 49L54 48L53 48L53 47L55 47L55 46L56 46L56 45L55 45L55 44L54 44L54 45L55 45L55 46L53 46L53 45L52 45L52 44L53 44L53 43L54 43L54 42L53 42L53 41L54 41L54 40L53 40L53 39L55 39L55 37L53 37L53 35L55 35L55 34L54 34L54 32L53 32L53 31L52 31L52 32L51 32L51 31L48 31L48 27L47 27L47 23L46 23L46 22L48 22L48 21L49 21L49 23L48 23L48 24L49 24L49 25L50 25L50 26L51 26L51 25L55 25L55 24L53 24L53 23L55 23L55 22L56 22L56 21L55 21L55 20L53 20L53 19L52 19L52 18L51 18L51 17L53 17L53 18L55 18L55 16L53 16L53 15L55 15L55 14L54 14L54 13L53 13L53 12L52 12L52 13L53 13L53 15L52 15L52 16L51 16L51 15L50 15L50 14L51 14L51 12L50 12L50 11L49 11L49 12L45 12L45 11L46 11L46 10L45 10L45 11L44 11L44 10L41 10L41 9L43 9L43 8L44 8L44 6L45 6L45 4L46 4L46 5L47 5L47 3L44 3L44 6L43 6L43 7L42 7L42 6L41 6L41 5L40 5L40 6L39 6L39 8L38 8L38 6L37 6L37 7L36 7L36 5L37 5L37 4L36 4L36 5L35 5L35 2L34 2L34 3L32 3L32 4L31 4L31 8L32 8L32 10L31 10L31 11L29 11L29 10L28 10L28 9L27 9L27 11L26 11L26 12L25 12L25 10L24 10L24 9L25 9L25 8L26 8L26 4L29 4L29 3L28 3L28 2ZM32 4L32 5L33 5L33 4ZM18 5L18 6L17 6L17 7L16 7L16 8L17 8L17 7L18 7L18 6L19 6L19 7L20 7L20 5ZM27 5L27 8L30 8L30 5ZM34 5L34 7L33 7L33 6L32 6L32 7L33 7L33 9L34 9L34 8L35 8L35 9L37 9L37 10L36 10L36 12L35 12L35 13L37 13L37 14L38 14L38 15L39 15L39 16L38 16L38 17L37 17L37 16L35 16L35 14L32 14L32 12L33 12L33 13L34 13L34 12L33 12L33 10L32 10L32 12L31 12L31 13L30 13L30 14L29 14L29 13L28 13L28 12L29 12L29 11L27 11L27 12L26 12L26 15L25 15L25 13L24 13L24 14L22 14L22 13L21 13L21 15L20 15L20 17L19 17L19 18L20 18L20 20L19 20L19 19L18 19L18 20L17 20L17 21L16 21L16 20L15 20L15 21L16 21L16 22L15 22L15 23L16 23L16 24L15 24L15 25L19 25L19 26L20 26L20 29L18 29L18 33L17 33L17 34L18 34L18 36L17 36L17 37L19 37L19 38L20 38L20 39L18 39L18 40L16 40L16 41L19 41L19 42L20 42L20 41L19 41L19 40L22 40L22 38L23 38L23 39L24 39L24 40L25 40L25 37L26 37L26 35L27 35L27 34L25 34L25 33L26 33L26 32L27 32L27 31L29 31L29 32L28 32L28 33L29 33L29 34L30 34L30 36L29 36L29 37L31 37L31 38L29 38L29 39L33 39L33 40L35 40L35 42L37 42L37 43L36 43L36 44L35 44L35 43L34 43L34 42L33 42L33 41L32 41L32 40L30 40L30 41L32 41L32 42L33 42L33 43L32 43L32 44L33 44L33 43L34 43L34 45L35 45L35 46L33 46L33 45L32 45L32 46L33 46L33 47L35 47L35 46L36 46L36 48L34 48L34 49L36 49L36 50L38 50L38 51L40 51L40 52L41 52L41 50L38 50L38 49L39 49L39 48L41 48L41 46L43 46L43 45L44 45L44 47L45 47L45 49L47 49L47 48L48 48L48 47L47 47L47 46L45 46L45 45L47 45L47 43L48 43L48 42L49 42L49 43L50 43L50 44L51 44L51 43L53 43L53 42L51 42L51 41L53 41L53 40L51 40L51 39L52 39L52 38L51 38L51 39L49 39L49 38L50 38L50 36L51 36L51 37L52 37L52 35L53 35L53 34L52 34L52 33L53 33L53 32L52 32L52 33L51 33L51 32L50 32L50 34L48 34L48 35L47 35L47 36L46 36L46 35L44 35L44 33L43 33L43 32L45 32L45 33L46 33L46 31L47 31L47 32L48 32L48 33L49 33L49 32L48 32L48 31L47 31L47 30L46 30L46 29L47 29L47 27L46 27L46 26L43 26L43 25L44 25L44 20L45 20L45 18L46 18L46 19L47 19L47 21L48 21L48 19L49 19L49 21L51 21L51 22L50 22L50 23L49 23L49 24L50 24L50 23L51 23L51 24L52 24L52 23L53 23L53 21L51 21L51 20L52 20L52 19L49 19L49 18L50 18L50 17L49 17L49 16L50 16L50 15L49 15L49 14L50 14L50 12L49 12L49 13L47 13L47 14L45 14L45 13L44 13L44 12L43 12L43 13L39 13L39 12L41 12L41 11L38 11L38 8L35 8L35 5ZM10 6L10 7L11 7L11 6ZM13 6L13 8L14 8L14 10L16 10L16 11L18 11L18 9L15 9L15 7L14 7L14 6ZM21 6L21 7L22 7L22 6ZM28 6L28 7L29 7L29 6ZM40 6L40 7L41 7L41 6ZM23 8L23 9L24 9L24 8ZM51 8L51 9L52 9L52 8ZM53 8L53 9L54 9L54 8ZM39 9L39 10L40 10L40 9ZM47 10L47 11L48 11L48 10ZM6 11L6 12L7 12L7 11ZM8 11L8 12L9 12L9 13L10 13L10 12L9 12L9 11ZM2 13L2 14L3 14L3 13ZM5 13L5 14L8 14L8 13ZM15 13L15 14L14 14L14 16L16 16L16 13ZM27 13L27 15L26 15L26 18L25 18L25 19L26 19L26 21L27 21L27 24L25 24L25 23L26 23L26 22L25 22L25 21L24 21L24 20L20 20L20 21L18 21L18 22L20 22L20 23L19 23L19 25L20 25L20 26L22 26L22 27L21 27L21 28L22 28L22 29L20 29L20 30L19 30L19 31L20 31L20 32L19 32L19 33L18 33L18 34L19 34L19 33L20 33L20 36L19 36L19 37L23 37L23 38L24 38L24 37L23 37L23 36L24 36L24 34L23 34L23 33L25 33L25 31L24 31L24 30L23 30L23 29L26 29L26 28L25 28L25 27L26 27L26 26L28 26L28 25L29 25L29 26L30 26L30 25L29 25L29 24L32 24L32 26L31 26L31 28L32 28L32 30L36 30L36 31L35 31L35 32L37 32L37 33L38 33L38 35L37 35L37 34L35 34L35 33L33 33L33 32L32 32L32 31L30 31L30 32L29 32L29 33L31 33L31 32L32 32L32 34L31 34L31 35L35 35L35 36L32 36L32 37L33 37L33 38L35 38L35 36L37 36L37 37L38 37L38 39L35 39L35 40L38 40L38 42L39 42L39 41L42 41L42 40L44 40L44 41L43 41L43 42L44 42L44 43L43 43L43 44L44 44L44 45L45 45L45 44L46 44L46 42L48 42L48 41L49 41L49 39L47 39L47 37L48 37L48 38L49 38L49 37L48 37L48 36L50 36L50 35L52 35L52 34L50 34L50 35L48 35L48 36L47 36L47 37L45 37L45 36L44 36L44 35L43 35L43 34L42 34L42 35L41 35L41 36L40 36L40 37L38 37L38 35L40 35L40 34L39 34L39 33L41 33L41 32L43 32L43 31L44 31L44 30L45 30L45 28L46 28L46 27L45 27L45 28L44 28L44 27L43 27L43 26L42 26L42 28L41 28L41 24L42 24L42 25L43 25L43 22L41 22L41 24L40 24L40 22L39 22L39 21L42 21L42 20L39 20L39 21L38 21L38 19L39 19L39 17L41 17L41 16L42 16L42 17L43 17L43 16L42 16L42 15L44 15L44 18L43 18L43 20L44 20L44 18L45 18L45 15L44 15L44 13L43 13L43 14L41 14L41 16L39 16L39 17L38 17L38 18L37 18L37 17L35 17L35 16L31 16L31 18L30 18L30 20L29 20L29 19L28 19L28 18L27 18L27 17L28 17L28 16L29 16L29 14L28 14L28 13ZM38 13L38 14L39 14L39 13ZM30 14L30 15L31 15L31 14ZM21 15L21 16L22 16L22 17L20 17L20 18L22 18L22 19L24 19L24 18L22 18L22 17L25 17L25 16L24 16L24 15ZM27 15L27 16L28 16L28 15ZM48 15L48 16L49 16L49 15ZM6 16L6 17L7 17L7 16ZM46 17L46 18L47 18L47 17ZM4 18L4 20L6 20L6 21L7 21L7 22L8 22L8 21L7 21L7 20L6 20L6 19L5 19L5 18ZM12 18L12 19L13 19L13 20L11 20L11 22L12 22L12 23L11 23L11 24L12 24L12 23L13 23L13 22L14 22L14 21L13 21L13 20L14 20L14 19L13 19L13 18ZM15 18L15 19L17 19L17 18ZM31 18L31 20L30 20L30 21L28 21L28 22L30 22L30 23L31 23L31 21L32 21L32 20L33 20L33 19L32 19L32 18ZM41 18L41 19L42 19L42 18ZM35 19L35 20L34 20L34 21L35 21L35 23L32 23L32 24L33 24L33 25L37 25L37 26L38 26L38 25L40 25L40 24L37 24L37 22L38 22L38 23L39 23L39 22L38 22L38 21L37 21L37 20L36 20L36 19ZM0 21L0 23L1 23L1 21ZM9 21L9 22L10 22L10 21ZM12 21L12 22L13 22L13 21ZM22 21L22 22L21 22L21 23L22 23L22 22L24 22L24 21ZM45 21L45 22L46 22L46 21ZM17 23L17 24L18 24L18 23ZM23 23L23 24L24 24L24 25L22 25L22 24L20 24L20 25L22 25L22 26L23 26L23 27L25 27L25 26L26 26L26 25L25 25L25 24L24 24L24 23ZM28 23L28 24L29 24L29 23ZM6 25L6 26L7 26L7 25ZM32 26L32 27L33 27L33 28L35 28L35 29L38 29L38 28L39 28L39 27L40 27L40 26L39 26L39 27L37 27L37 28L35 28L35 27L36 27L36 26L34 26L34 27L33 27L33 26ZM53 26L53 27L54 27L54 26ZM3 27L3 30L4 30L4 27ZM5 27L5 30L8 30L8 27ZM27 27L27 30L30 30L30 27ZM49 27L49 30L52 30L52 27ZM6 28L6 29L7 29L7 28ZM28 28L28 29L29 29L29 28ZM43 28L43 29L40 29L40 30L43 30L43 29L44 29L44 28ZM50 28L50 29L51 29L51 28ZM15 29L15 30L14 30L14 33L13 33L13 36L14 36L14 37L15 37L15 38L16 38L16 37L15 37L15 36L16 36L16 35L15 35L15 33L16 33L16 32L15 32L15 31L16 31L16 29ZM53 29L53 30L54 30L54 29ZM0 30L0 31L1 31L1 30ZM20 30L20 31L21 31L21 32L23 32L23 31L21 31L21 30ZM38 30L38 32L39 32L39 30ZM6 31L6 32L7 32L7 33L5 33L5 35L6 35L6 36L7 36L7 35L6 35L6 34L7 34L7 33L8 33L8 31ZM0 33L0 34L1 34L1 33ZM3 33L3 34L4 34L4 33ZM21 33L21 34L22 34L22 33ZM0 35L0 39L2 39L2 38L4 38L4 37L2 37L2 36L1 36L1 35ZM14 35L14 36L15 36L15 35ZM21 35L21 36L23 36L23 35ZM42 35L42 36L41 36L41 37L40 37L40 38L41 38L41 39L42 39L42 38L43 38L43 37L44 37L44 38L45 38L45 37L44 37L44 36L43 36L43 35ZM42 36L42 37L43 37L43 36ZM1 37L1 38L2 38L2 37ZM8 37L8 38L9 38L9 39L10 39L10 38L9 38L9 37ZM27 37L27 38L26 38L26 39L27 39L27 40L28 40L28 39L27 39L27 38L28 38L28 37ZM38 39L38 40L39 40L39 39ZM44 39L44 40L45 40L45 39ZM46 39L46 40L47 40L47 39ZM0 40L0 41L1 41L1 40ZM2 40L2 41L3 41L3 40ZM8 40L8 42L9 42L9 43L8 43L8 44L9 44L9 43L11 43L11 42L12 42L12 43L13 43L13 44L12 44L12 45L13 45L13 47L14 47L14 50L16 50L16 49L15 49L15 48L16 48L16 47L15 47L15 43L13 43L13 42L12 42L12 40L11 40L11 41L10 41L10 42L9 42L9 40ZM21 41L21 42L22 42L22 41ZM23 41L23 42L25 42L25 41ZM26 41L26 42L27 42L27 41ZM44 41L44 42L46 42L46 41ZM6 42L6 43L7 43L7 42ZM41 42L41 43L40 43L40 44L39 44L39 45L38 45L38 46L39 46L39 47L38 47L38 48L37 48L37 49L38 49L38 48L39 48L39 47L40 47L40 45L41 45L41 44L42 44L42 42ZM50 42L50 43L51 43L51 42ZM44 43L44 44L45 44L45 43ZM10 44L10 45L11 45L11 44ZM13 44L13 45L14 45L14 44ZM26 45L26 47L27 47L27 45ZM50 45L50 46L52 46L52 45ZM1 46L1 47L2 47L2 46ZM42 47L42 48L43 48L43 47ZM6 48L6 49L7 49L7 48ZM24 48L24 49L25 49L25 48ZM27 49L27 52L30 52L30 49ZM32 49L32 50L33 50L33 49ZM49 49L49 52L52 52L52 49ZM28 50L28 51L29 51L29 50ZM50 50L50 51L51 51L51 50ZM54 50L54 51L55 51L55 50ZM12 51L12 54L11 54L11 53L10 53L10 55L12 55L12 54L13 54L13 51ZM15 52L15 53L16 53L16 52ZM33 53L33 54L34 54L34 55L35 55L35 56L36 56L36 54L35 54L35 53ZM17 54L17 56L18 56L18 55L19 55L19 54ZM25 54L25 55L26 55L26 54ZM41 54L41 55L42 55L42 54ZM37 55L37 56L39 56L39 55ZM46 55L46 56L48 56L48 55ZM50 55L50 56L51 56L51 55ZM43 56L43 57L44 57L44 56ZM0 0L0 7L7 7L7 0ZM1 1L1 6L6 6L6 1ZM2 2L2 5L5 5L5 2ZM50 0L50 7L57 7L57 0ZM51 1L51 6L56 6L56 1ZM52 2L52 5L55 5L55 2ZM0 50L0 57L7 57L7 50ZM1 51L1 56L6 56L6 51ZM2 52L2 55L5 55L5 52Z" fill="#000000"/></g></g></svg>
