<?xml version="1.0" encoding="UTF-8"?>
<svg xmlns="http://www.w3.org/2000/svg" version="1.1" width="300" height="300" viewBox="0 0 300 300"><rect x="0" y="0" width="300" height="300" fill="#fefefe"/><g transform="scale(4.615)"><g transform="translate(4,4)"><path fill-rule="evenodd" d="M9 0L9 1L8 1L8 2L10 2L10 3L8 3L8 4L9 4L9 5L8 5L8 7L9 7L9 6L10 6L10 8L11 8L11 9L10 9L10 11L8 11L8 10L9 10L9 8L6 8L6 9L7 9L7 10L6 10L6 11L4 11L4 10L5 10L5 8L0 8L0 11L1 11L1 9L4 9L4 10L3 10L3 11L4 11L4 13L0 13L0 17L2 17L2 19L1 19L1 18L0 18L0 19L1 19L1 20L3 20L3 21L2 21L2 23L1 23L1 21L0 21L0 23L1 23L1 24L0 24L0 26L2 26L2 27L0 27L0 29L1 29L1 30L0 30L0 31L1 31L1 32L2 32L2 33L3 33L3 32L4 32L4 34L1 34L1 33L0 33L0 41L2 41L2 42L0 42L0 48L5 48L5 47L7 47L7 48L6 48L6 49L8 49L8 51L10 51L10 52L8 52L8 57L10 57L10 56L11 56L11 57L13 57L13 56L15 56L15 55L16 55L16 56L17 56L17 57L20 57L20 56L19 56L19 55L20 55L20 54L19 54L19 53L20 53L20 52L21 52L21 51L19 51L19 50L20 50L20 49L21 49L21 50L25 50L25 51L26 51L26 52L24 52L24 53L23 53L23 54L22 54L22 53L21 53L21 54L22 54L22 55L21 55L21 56L24 56L24 55L23 55L23 54L24 54L24 53L25 53L25 54L26 54L26 56L25 56L25 57L26 57L26 56L27 56L27 57L29 57L29 56L30 56L30 57L31 57L31 56L35 56L35 57L39 57L39 56L40 56L40 55L41 55L41 56L42 56L42 55L43 55L43 57L44 57L44 54L45 54L45 55L48 55L48 57L49 57L49 56L50 56L50 57L52 57L52 55L51 55L51 53L52 53L52 54L53 54L53 57L54 57L54 56L55 56L55 57L56 57L56 56L55 56L55 54L53 54L53 52L54 52L54 53L56 53L56 52L55 52L55 51L56 51L56 50L57 50L57 48L56 48L56 46L57 46L57 43L56 43L56 42L57 42L57 41L56 41L56 42L55 42L55 39L57 39L57 35L56 35L56 34L57 34L57 32L56 32L56 30L57 30L57 28L56 28L56 29L54 29L54 28L55 28L55 27L56 27L56 26L57 26L57 25L56 25L56 22L57 22L57 21L56 21L56 22L54 22L54 21L51 21L51 20L52 20L52 19L53 19L53 20L55 20L55 19L56 19L56 16L57 16L57 15L56 15L56 14L57 14L57 12L56 12L56 10L54 10L54 11L53 11L53 9L54 9L54 8L53 8L53 9L52 9L52 8L51 8L51 9L52 9L52 10L50 10L50 8L49 8L49 9L47 9L47 10L46 10L46 9L44 9L44 8L43 8L43 6L44 6L44 7L45 7L45 6L44 6L44 3L47 3L47 5L46 5L46 4L45 4L45 5L46 5L46 7L47 7L47 5L48 5L48 0L46 0L46 1L45 1L45 2L44 2L44 3L43 3L43 4L42 4L42 5L41 5L41 4L40 4L40 5L39 5L39 6L38 6L38 8L35 8L35 5L36 5L36 7L37 7L37 5L38 5L38 3L42 3L42 2L43 2L43 0L41 0L41 1L40 1L40 0L39 0L39 1L38 1L38 0L37 0L37 1L38 1L38 3L36 3L36 0L35 0L35 1L33 1L33 2L32 2L32 1L31 1L31 0L29 0L29 1L25 1L25 0L23 0L23 2L21 2L21 1L22 1L22 0L21 0L21 1L20 1L20 0L19 0L19 1L18 1L18 2L19 2L19 1L20 1L20 2L21 2L21 3L23 3L23 4L24 4L24 5L23 5L23 6L22 6L22 7L21 7L21 4L19 4L19 3L17 3L17 4L18 4L18 5L20 5L20 7L19 7L19 6L18 6L18 7L17 7L17 6L16 6L16 7L15 7L15 5L16 5L16 4L15 4L15 5L14 5L14 8L13 8L13 4L14 4L14 2L15 2L15 3L16 3L16 2L17 2L17 1L15 1L15 0L14 0L14 2L12 2L12 1L13 1L13 0L12 0L12 1L11 1L11 0ZM10 1L10 2L11 2L11 1ZM29 1L29 3L28 3L28 2L23 2L23 3L26 3L26 4L25 4L25 8L26 8L26 4L31 4L31 8L32 8L32 10L31 10L31 11L29 11L29 10L28 10L28 11L29 11L29 12L28 12L28 13L26 13L26 12L27 12L27 11L26 11L26 12L25 12L25 10L23 10L23 9L24 9L24 6L23 6L23 7L22 7L22 8L20 8L20 10L21 10L21 11L20 11L20 14L18 14L18 15L19 15L19 16L20 16L20 18L19 18L19 17L18 17L18 18L19 18L19 19L20 19L20 21L18 21L18 20L16 20L16 21L15 21L15 19L17 19L17 17L16 17L16 16L17 16L17 13L18 13L18 12L17 12L17 13L16 13L16 12L15 12L15 13L13 13L13 12L14 12L14 11L13 11L13 10L11 10L11 11L12 11L12 13L11 13L11 12L10 12L10 13L11 13L11 14L10 14L10 15L9 15L9 12L8 12L8 11L6 11L6 12L5 12L5 14L3 14L3 15L5 15L5 14L7 14L7 15L6 15L6 16L7 16L7 15L8 15L8 16L9 16L9 20L10 20L10 22L9 22L9 23L8 23L8 22L7 22L7 21L8 21L8 19L6 19L6 18L8 18L8 17L6 17L6 18L5 18L5 16L2 16L2 15L1 15L1 16L2 16L2 17L3 17L3 18L5 18L5 19L3 19L3 20L5 20L5 21L3 21L3 22L4 22L4 23L5 23L5 22L7 22L7 23L6 23L6 24L9 24L9 27L10 27L10 28L11 28L11 27L12 27L12 28L13 28L13 27L14 27L14 28L15 28L15 29L13 29L13 31L12 31L12 30L11 30L11 29L10 29L10 30L11 30L11 31L10 31L10 32L9 32L9 31L8 31L8 32L7 32L7 31L5 31L5 32L7 32L7 33L5 33L5 34L7 34L7 33L9 33L9 35L8 35L8 37L6 37L6 36L7 36L7 35L6 35L6 36L4 36L4 35L2 35L2 37L3 37L3 38L1 38L1 40L2 40L2 41L3 41L3 42L2 42L2 43L1 43L1 47L2 47L2 46L3 46L3 47L5 47L5 46L7 46L7 45L8 45L8 44L7 44L7 43L9 43L9 44L10 44L10 43L11 43L11 45L10 45L10 46L11 46L11 45L13 45L13 46L14 46L14 47L12 47L12 49L11 49L11 50L10 50L10 48L11 48L11 47L9 47L9 48L8 48L8 49L9 49L9 50L10 50L10 51L11 51L11 50L14 50L14 54L13 54L13 55L12 55L12 56L13 56L13 55L14 55L14 54L16 54L16 53L17 53L17 52L19 52L19 51L18 51L18 50L17 50L17 49L16 49L16 48L17 48L17 45L18 45L18 44L15 44L15 43L13 43L13 44L12 44L12 43L11 43L11 41L10 41L10 42L9 42L9 41L5 41L5 40L10 40L10 38L9 38L9 37L11 37L11 36L12 36L12 34L13 34L13 36L15 36L15 37L16 37L16 38L15 38L15 39L16 39L16 40L15 40L15 41L14 41L14 39L13 39L13 38L14 38L14 37L12 37L12 39L11 39L11 40L12 40L12 42L17 42L17 43L18 43L18 42L19 42L19 41L20 41L20 42L21 42L21 43L20 43L20 44L19 44L19 45L20 45L20 46L18 46L18 48L19 48L19 49L20 49L20 47L21 47L21 49L23 49L23 47L24 47L24 46L23 46L23 45L22 45L22 44L21 44L21 43L22 43L22 42L23 42L23 40L24 40L24 41L25 41L25 42L24 42L24 43L23 43L23 44L24 44L24 43L27 43L27 44L25 44L25 47L26 47L26 48L27 48L27 47L28 47L28 48L30 48L30 47L28 47L28 46L32 46L32 47L33 47L33 48L32 48L32 51L31 51L31 53L30 53L30 54L27 54L27 56L29 56L29 55L30 55L30 56L31 56L31 54L32 54L32 53L33 53L33 55L35 55L35 56L36 56L36 54L35 54L35 50L36 50L36 52L38 52L38 53L37 53L37 54L40 54L40 53L41 53L41 52L40 52L40 51L39 51L39 52L38 52L38 50L41 50L41 51L42 51L42 52L43 52L43 51L44 51L44 50L45 50L45 51L47 51L47 53L45 53L45 52L44 52L44 53L43 53L43 54L44 54L44 53L45 53L45 54L47 54L47 53L48 53L48 50L47 50L47 49L48 49L48 48L51 48L51 46L53 46L53 47L55 47L55 46L56 46L56 43L55 43L55 44L54 44L54 46L53 46L53 45L51 45L51 44L53 44L53 43L54 43L54 42L53 42L53 41L54 41L54 40L53 40L53 41L51 41L51 42L50 42L50 43L49 43L49 42L48 42L48 41L49 41L49 39L51 39L51 38L53 38L53 39L55 39L55 37L56 37L56 36L55 36L55 37L53 37L53 35L55 35L55 34L54 34L54 33L56 33L56 32L53 32L53 33L52 33L52 32L51 32L51 33L52 33L52 34L50 34L50 32L49 32L49 31L48 31L48 29L46 29L46 30L47 30L47 31L46 31L46 32L47 32L47 33L45 33L45 32L43 32L43 30L40 30L40 29L44 29L44 31L45 31L45 28L46 28L46 27L47 27L47 28L48 28L48 26L47 26L47 25L49 25L49 24L50 24L50 26L51 26L51 25L52 25L52 26L53 26L53 27L54 27L54 26L53 26L53 25L55 25L55 26L56 26L56 25L55 25L55 24L53 24L53 23L52 23L52 24L50 24L50 22L51 22L51 21L49 21L49 20L48 20L48 19L52 19L52 18L55 18L55 16L51 16L51 17L50 17L50 14L51 14L51 12L50 12L50 11L48 11L48 12L45 12L45 11L46 11L46 10L45 10L45 11L42 11L42 10L41 10L41 12L40 12L40 11L39 11L39 13L38 13L38 14L37 14L37 13L36 13L36 14L37 14L37 15L35 15L35 16L33 16L33 15L31 15L31 14L30 14L30 13L31 13L31 11L32 11L32 10L33 10L33 12L32 12L32 14L35 14L35 12L36 12L36 10L37 10L37 11L38 11L38 10L40 10L40 9L42 9L42 8L41 8L41 7L42 7L42 6L43 6L43 5L42 5L42 6L41 6L41 5L40 5L40 6L39 6L39 8L38 8L38 10L37 10L37 9L35 9L35 8L34 8L34 9L33 9L33 7L34 7L34 5L35 5L35 3L32 3L32 2L30 2L30 1ZM46 1L46 2L47 2L47 1ZM10 3L10 5L12 5L12 4L11 4L11 3ZM31 3L31 4L32 4L32 5L33 5L33 4L32 4L32 3ZM36 4L36 5L37 5L37 4ZM27 5L27 8L30 8L30 5ZM11 6L11 8L12 8L12 9L13 9L13 8L12 8L12 6ZM28 6L28 7L29 7L29 6ZM32 6L32 7L33 7L33 6ZM40 6L40 7L41 7L41 6ZM48 6L48 7L49 7L49 6ZM16 7L16 8L14 8L14 10L15 10L15 11L18 11L18 10L19 10L19 9L18 9L18 8L17 8L17 7ZM16 8L16 9L17 9L17 10L18 10L18 9L17 9L17 8ZM55 8L55 9L56 9L56 8ZM21 9L21 10L22 10L22 11L21 11L21 12L22 12L22 13L21 13L21 14L20 14L20 16L21 16L21 17L22 17L22 18L21 18L21 21L22 21L22 22L21 22L21 24L17 24L17 22L18 22L18 23L20 23L20 22L18 22L18 21L16 21L16 22L15 22L15 23L14 23L14 24L13 24L13 22L14 22L14 21L11 21L11 22L12 22L12 23L10 23L10 24L11 24L11 26L14 26L14 27L15 27L15 26L14 26L14 25L16 25L16 24L17 24L17 25L18 25L18 26L16 26L16 27L18 27L18 26L19 26L19 28L20 28L20 29L18 29L18 28L16 28L16 29L15 29L15 30L14 30L14 31L13 31L13 34L14 34L14 35L15 35L15 36L16 36L16 35L17 35L17 34L16 34L16 35L15 35L15 34L14 34L14 33L15 33L15 32L14 32L14 31L16 31L16 29L18 29L18 32L17 32L17 33L18 33L18 36L17 36L17 40L18 40L18 41L17 41L17 42L18 42L18 41L19 41L19 40L22 40L22 39L24 39L24 40L25 40L25 39L27 39L27 40L28 40L28 39L27 39L27 38L28 38L28 37L26 37L26 38L25 38L25 36L26 36L26 35L27 35L27 34L25 34L25 33L27 33L27 31L31 31L31 33L29 33L29 32L28 32L28 33L29 33L29 34L30 34L30 36L29 36L29 37L31 37L31 38L29 38L29 39L33 39L33 40L35 40L35 42L37 42L37 43L36 43L36 44L35 44L35 43L34 43L34 42L33 42L33 41L32 41L32 40L29 40L29 41L30 41L30 42L27 42L27 41L26 41L26 42L27 42L27 43L28 43L28 44L27 44L27 45L26 45L26 47L27 47L27 45L28 45L28 44L29 44L29 43L32 43L32 44L31 44L31 45L32 45L32 46L33 46L33 47L34 47L34 48L35 48L35 49L36 49L36 50L38 50L38 49L39 49L39 48L41 48L41 50L42 50L42 51L43 51L43 49L44 49L44 48L45 48L45 47L47 47L47 48L48 48L48 47L50 47L50 46L49 46L49 45L50 45L50 44L51 44L51 43L53 43L53 42L51 42L51 43L50 43L50 44L48 44L48 45L47 45L47 43L48 43L48 42L47 42L47 43L46 43L46 44L45 44L45 45L44 45L44 43L45 43L45 42L44 42L44 40L45 40L45 41L47 41L47 39L48 39L48 38L50 38L50 36L51 36L51 37L52 37L52 35L53 35L53 34L52 34L52 35L50 35L50 34L49 34L49 35L47 35L47 34L45 34L45 33L43 33L43 32L41 32L41 33L39 33L39 34L40 34L40 35L39 35L39 36L38 36L38 33L37 33L37 32L35 32L35 31L36 31L36 30L37 30L37 29L38 29L38 28L39 28L39 27L41 27L41 28L42 28L42 26L43 26L43 25L44 25L44 27L43 27L43 28L45 28L45 25L46 25L46 23L47 23L47 22L49 22L49 21L47 21L47 19L46 19L46 18L44 18L44 12L43 12L43 13L41 13L41 14L43 14L43 15L42 15L42 16L41 16L41 15L39 15L39 14L38 14L38 15L39 15L39 16L38 16L38 17L37 17L37 16L35 16L35 17L37 17L37 18L38 18L38 17L39 17L39 19L37 19L37 20L36 20L36 19L35 19L35 20L34 20L34 21L35 21L35 23L34 23L34 22L33 22L33 23L32 23L32 24L31 24L31 21L32 21L32 20L33 20L33 19L32 19L32 18L33 18L33 17L32 17L32 16L31 16L31 15L30 15L30 14L29 14L29 13L28 13L28 14L29 14L29 16L28 16L28 15L27 15L27 16L28 16L28 17L27 17L27 18L28 18L28 19L27 19L27 20L28 20L28 19L29 19L29 20L30 20L30 18L31 18L31 21L29 21L29 23L30 23L30 24L31 24L31 25L29 25L29 26L26 26L26 25L25 25L25 24L27 24L27 22L28 22L28 21L26 21L26 15L25 15L25 12L24 12L24 13L23 13L23 10L22 10L22 9ZM43 9L43 10L44 10L44 9ZM6 12L6 13L7 13L7 12ZM33 12L33 13L34 13L34 12ZM49 12L49 13L47 13L47 14L45 14L45 15L46 15L46 16L45 16L45 17L46 17L46 16L48 16L48 17L47 17L47 18L50 18L50 17L49 17L49 16L48 16L48 15L49 15L49 14L50 14L50 12ZM52 12L52 13L53 13L53 12ZM54 12L54 13L55 13L55 14L53 14L53 15L55 15L55 14L56 14L56 13L55 13L55 12ZM15 13L15 14L14 14L14 15L13 15L13 14L12 14L12 15L13 15L13 17L11 17L11 16L10 16L10 20L12 20L12 19L13 19L13 20L14 20L14 19L13 19L13 18L15 18L15 17L14 17L14 15L15 15L15 16L16 16L16 13ZM22 13L22 14L23 14L23 13ZM21 15L21 16L22 16L22 17L25 17L25 16L23 16L23 15ZM39 16L39 17L41 17L41 16ZM42 16L42 17L43 17L43 16ZM31 17L31 18L32 18L32 17ZM22 18L22 19L24 19L24 18ZM41 18L41 20L39 20L39 21L38 21L38 20L37 20L37 21L38 21L38 22L37 22L37 24L38 24L38 26L37 26L37 25L33 25L33 24L32 24L32 26L31 26L31 28L32 28L32 29L31 29L31 30L35 30L35 28L33 28L33 27L34 27L34 26L36 26L36 27L39 27L39 25L41 25L41 26L42 26L42 25L41 25L41 24L42 24L42 23L41 23L41 24L38 24L38 23L40 23L40 22L39 22L39 21L43 21L43 20L44 20L44 23L43 23L43 24L44 24L44 25L45 25L45 22L47 22L47 21L45 21L45 20L44 20L44 18L43 18L43 20L42 20L42 18ZM5 19L5 20L6 20L6 21L7 21L7 20L6 20L6 19ZM22 20L22 21L24 21L24 22L23 22L23 23L24 23L24 24L25 24L25 23L26 23L26 22L25 22L25 21L24 21L24 20ZM2 23L2 24L3 24L3 25L2 25L2 26L4 26L4 25L5 25L5 24L3 24L3 23ZM15 23L15 24L16 24L16 23ZM12 24L12 25L13 25L13 24ZM21 24L21 25L20 25L20 27L21 27L21 28L22 28L22 29L20 29L20 30L19 30L19 32L21 32L21 33L19 33L19 35L21 35L21 33L22 33L22 35L23 35L23 36L19 36L19 37L18 37L18 38L19 38L19 39L20 39L20 38L19 38L19 37L23 37L23 38L24 38L24 37L23 37L23 36L24 36L24 34L23 34L23 33L25 33L25 32L26 32L26 31L25 31L25 32L21 32L21 31L24 31L24 30L23 30L23 28L25 28L25 29L26 29L26 28L25 28L25 27L26 27L26 26L22 26L22 27L21 27L21 25L23 25L23 24ZM6 25L6 26L8 26L8 25ZM32 26L32 27L33 27L33 26ZM5 27L5 30L8 30L8 27ZM27 27L27 30L30 30L30 27ZM49 27L49 30L52 30L52 27ZM6 28L6 29L7 29L7 28ZM28 28L28 29L29 29L29 28ZM50 28L50 29L51 29L51 28ZM3 29L3 31L2 31L2 30L1 30L1 31L2 31L2 32L3 32L3 31L4 31L4 29ZM53 29L53 30L54 30L54 31L55 31L55 30L54 30L54 29ZM20 30L20 31L21 31L21 30ZM38 30L38 32L39 32L39 30ZM32 31L32 33L31 33L31 35L33 35L33 36L32 36L32 37L33 37L33 39L35 39L35 40L38 40L38 42L39 42L39 43L40 43L40 44L39 44L39 45L38 45L38 46L39 46L39 47L38 47L38 48L37 48L37 49L38 49L38 48L39 48L39 47L40 47L40 45L41 45L41 44L42 44L42 42L41 42L41 40L42 40L42 39L47 39L47 38L48 38L48 37L49 37L49 36L50 36L50 35L49 35L49 36L46 36L46 35L45 35L45 34L42 34L42 35L41 35L41 36L40 36L40 37L38 37L38 39L35 39L35 37L33 37L33 36L34 36L34 35L33 35L33 34L35 34L35 36L37 36L37 34L35 34L35 33L33 33L33 31ZM47 31L47 32L48 32L48 33L49 33L49 32L48 32L48 31ZM11 32L11 33L10 33L10 34L11 34L11 33L12 33L12 32ZM32 33L32 34L33 34L33 33ZM42 35L42 36L43 36L43 37L40 37L40 38L43 38L43 37L44 37L44 38L45 38L45 37L44 37L44 36L45 36L45 35L44 35L44 36L43 36L43 35ZM3 36L3 37L4 37L4 38L3 38L3 39L4 39L4 38L5 38L5 39L7 39L7 38L6 38L6 37L4 37L4 36ZM38 39L38 40L39 40L39 39ZM4 41L4 43L3 43L3 45L4 45L4 46L5 46L5 45L7 45L7 44L5 44L5 45L4 45L4 43L7 43L7 42L5 42L5 41ZM21 41L21 42L22 42L22 41ZM31 41L31 42L32 42L32 43L33 43L33 44L32 44L32 45L33 45L33 46L35 46L35 48L36 48L36 46L37 46L37 45L36 45L36 46L35 46L35 45L34 45L34 43L33 43L33 42L32 42L32 41ZM39 41L39 42L40 42L40 41ZM43 42L43 43L44 43L44 42ZM14 45L14 46L15 46L15 45ZM21 45L21 47L23 47L23 46L22 46L22 45ZM43 45L43 46L41 46L41 48L42 48L42 49L43 49L43 48L44 48L44 45ZM45 45L45 46L47 46L47 45ZM42 47L42 48L43 48L43 47ZM13 48L13 49L14 49L14 48ZM24 48L24 49L25 49L25 50L26 50L26 49L25 49L25 48ZM53 48L53 49L54 49L54 48ZM55 48L55 50L54 50L54 51L55 51L55 50L56 50L56 48ZM15 49L15 50L16 50L16 51L15 51L15 53L16 53L16 51L17 51L17 50L16 50L16 49ZM27 49L27 52L30 52L30 49ZM49 49L49 52L52 52L52 49ZM28 50L28 51L29 51L29 50ZM33 50L33 51L32 51L32 52L33 52L33 53L34 53L34 52L33 52L33 51L34 51L34 50ZM50 50L50 51L51 51L51 50ZM12 51L12 53L13 53L13 51ZM9 54L9 56L10 56L10 55L11 55L11 54ZM17 54L17 55L18 55L18 54ZM41 54L41 55L42 55L42 54ZM37 55L37 56L39 56L39 55ZM50 55L50 56L51 56L51 55ZM46 56L46 57L47 57L47 56ZM0 0L0 7L7 7L7 0ZM1 1L1 6L6 6L6 1ZM2 2L2 5L5 5L5 2ZM50 0L50 7L57 7L57 0ZM51 1L51 6L56 6L56 1ZM52 2L52 5L55 5L55 2ZM0 50L0 57L7 57L7 50ZM1 51L1 56L6 56L6 51ZM2 52L2 55L5 55L5 52Z" fill="#000000"/></g></g></svg>
