<?xml version="1.0" encoding="UTF-8"?>
<svg xmlns="http://www.w3.org/2000/svg" version="1.1" width="300" height="300" viewBox="0 0 300 300"><rect x="0" y="0" width="300" height="300" fill="#fefefe"/><g transform="scale(4.615)"><g transform="translate(4,4)"><path fill-rule="evenodd" d="M11 0L11 5L10 5L10 8L11 8L11 6L12 6L12 7L13 7L13 9L14 9L14 7L15 7L15 8L16 8L16 9L15 9L15 10L13 10L13 11L14 11L14 12L13 12L13 13L12 13L12 12L11 12L11 10L12 10L12 9L11 9L11 10L10 10L10 12L8 12L8 11L9 11L9 8L6 8L6 9L5 9L5 8L0 8L0 9L1 9L1 10L0 10L0 11L1 11L1 12L0 12L0 15L1 15L1 16L0 16L0 18L1 18L1 19L2 19L2 20L0 20L0 24L1 24L1 25L0 25L0 30L1 30L1 31L7 31L7 32L6 32L6 33L7 33L7 34L4 34L4 36L2 36L2 37L1 37L1 36L0 36L0 37L1 37L1 39L0 39L0 40L1 40L1 39L2 39L2 40L3 40L3 39L4 39L4 40L5 40L5 41L2 41L2 44L3 44L3 46L2 46L2 47L1 47L1 45L0 45L0 48L5 48L5 47L7 47L7 48L6 48L6 49L8 49L8 51L9 51L9 49L10 49L10 51L11 51L11 50L12 50L12 49L13 49L13 47L12 47L12 46L15 46L15 47L16 47L16 46L15 46L15 45L14 45L14 44L13 44L13 45L12 45L12 43L15 43L15 44L16 44L16 45L17 45L17 46L18 46L18 47L17 47L17 48L16 48L16 49L15 49L15 48L14 48L14 49L15 49L15 50L16 50L16 49L19 49L19 50L18 50L18 51L17 51L17 53L16 53L16 51L14 51L14 53L13 53L13 51L12 51L12 52L10 52L10 53L9 53L9 52L8 52L8 57L11 57L11 56L15 56L15 55L16 55L16 56L17 56L17 57L20 57L20 56L19 56L19 55L20 55L20 54L19 54L19 55L17 55L17 53L20 53L20 52L21 52L21 53L22 53L22 56L24 56L24 57L26 57L26 56L27 56L27 57L29 57L29 56L30 56L30 57L31 57L31 56L35 56L35 57L39 57L39 56L37 56L37 54L38 54L38 55L40 55L40 56L41 56L41 57L44 57L44 54L45 54L45 53L44 53L44 52L45 52L45 51L44 51L44 50L45 50L45 49L47 49L47 50L48 50L48 54L47 54L47 55L45 55L45 57L47 57L47 56L50 56L50 57L52 57L52 55L51 55L51 53L52 53L52 54L53 54L53 57L54 57L54 56L55 56L55 57L56 57L56 56L55 56L55 55L54 55L54 54L53 54L53 52L54 52L54 53L55 53L55 52L57 52L57 51L56 51L56 50L55 50L55 48L56 48L56 49L57 49L57 48L56 48L56 46L57 46L57 43L56 43L56 41L53 41L53 40L55 40L55 39L57 39L57 36L56 36L56 37L55 37L55 35L56 35L56 34L55 34L55 32L56 32L56 33L57 33L57 32L56 32L56 30L57 30L57 28L56 28L56 26L57 26L57 25L56 25L56 22L57 22L57 19L56 19L56 22L55 22L55 23L53 23L53 22L54 22L54 21L51 21L51 20L52 20L52 19L53 19L53 20L55 20L55 18L57 18L57 17L56 17L56 16L57 16L57 15L56 15L56 14L57 14L57 12L56 12L56 14L55 14L55 13L54 13L54 12L55 12L55 11L56 11L56 10L54 10L54 11L53 11L53 10L52 10L52 11L50 11L50 8L49 8L49 6L48 6L48 7L47 7L47 5L48 5L48 0L45 0L45 2L44 2L44 3L43 3L43 4L40 4L40 5L39 5L39 6L38 6L38 4L39 4L39 3L41 3L41 2L43 2L43 0L41 0L41 1L40 1L40 0L39 0L39 1L38 1L38 0L37 0L37 1L38 1L38 4L37 4L37 3L36 3L36 0L35 0L35 1L33 1L33 2L32 2L32 0L30 0L30 1L25 1L25 0L23 0L23 1L22 1L22 0L21 0L21 3L23 3L23 4L24 4L24 5L22 5L22 4L19 4L19 3L18 3L18 2L20 2L20 0L17 0L17 1L15 1L15 0L14 0L14 2L13 2L13 1L12 1L12 0ZM8 1L8 2L9 2L9 3L8 3L8 4L10 4L10 1ZM17 1L17 2L16 2L16 3L15 3L15 2L14 2L14 4L13 4L13 2L12 2L12 5L14 5L14 6L13 6L13 7L14 7L14 6L15 6L15 7L16 7L16 8L17 8L17 7L18 7L18 6L19 6L19 7L20 7L20 5L18 5L18 4L17 4L17 2L18 2L18 1ZM30 1L30 2L31 2L31 3L30 3L30 4L31 4L31 8L32 8L32 10L31 10L31 11L29 11L29 9L28 9L28 10L27 10L27 11L26 11L26 12L25 12L25 10L23 10L23 8L24 8L24 9L25 9L25 8L26 8L26 4L27 4L27 3L28 3L28 4L29 4L29 3L28 3L28 2L23 2L23 3L26 3L26 4L25 4L25 8L24 8L24 6L23 6L23 8L20 8L20 10L19 10L19 13L20 13L20 14L19 14L19 17L20 17L20 18L21 18L21 19L19 19L19 20L20 20L20 21L19 21L19 22L20 22L20 23L18 23L18 24L22 24L22 25L20 25L20 26L22 26L22 27L19 27L19 26L18 26L18 27L17 27L17 28L18 28L18 29L16 29L16 28L15 28L15 27L13 27L13 25L14 25L14 26L17 26L17 24L16 24L16 23L14 23L14 22L16 22L16 21L17 21L17 20L16 20L16 21L15 21L15 18L16 18L16 19L17 19L17 18L18 18L18 17L16 17L16 16L18 16L18 15L17 15L17 13L18 13L18 12L17 12L17 13L16 13L16 11L18 11L18 10L17 10L17 9L16 9L16 10L15 10L15 13L13 13L13 14L15 14L15 13L16 13L16 16L15 16L15 15L14 15L14 17L13 17L13 19L14 19L14 20L13 20L13 21L12 21L12 18L11 18L11 17L12 17L12 14L11 14L11 15L10 15L10 13L11 13L11 12L10 12L10 13L8 13L8 12L7 12L7 11L6 11L6 10L8 10L8 9L6 9L6 10L5 10L5 11L4 11L4 10L3 10L3 11L2 11L2 12L1 12L1 13L2 13L2 14L1 14L1 15L2 15L2 19L3 19L3 15L4 15L4 18L5 18L5 19L4 19L4 20L3 20L3 21L1 21L1 23L2 23L2 25L1 25L1 26L2 26L2 28L1 28L1 29L2 29L2 28L3 28L3 25L4 25L4 26L5 26L5 25L6 25L6 26L9 26L9 27L10 27L10 29L9 29L9 30L10 30L10 29L11 29L11 28L13 28L13 29L12 29L12 30L13 30L13 31L12 31L12 32L14 32L14 33L15 33L15 34L13 34L13 33L9 33L9 34L12 34L12 35L10 35L10 36L11 36L11 37L12 37L12 38L14 38L14 40L12 40L12 39L10 39L10 38L8 38L8 39L9 39L9 42L8 42L8 40L7 40L7 39L6 39L6 40L7 40L7 41L6 41L6 42L7 42L7 43L6 43L6 44L7 44L7 43L8 43L8 45L6 45L6 46L7 46L7 47L9 47L9 48L8 48L8 49L9 49L9 48L10 48L10 46L11 46L11 44L10 44L10 43L11 43L11 42L10 42L10 41L11 41L11 40L12 40L12 41L13 41L13 42L14 42L14 40L15 40L15 43L18 43L18 42L19 42L19 43L20 43L20 47L18 47L18 48L19 48L19 49L20 49L20 50L21 50L21 49L23 49L23 48L24 48L24 49L25 49L25 50L22 50L22 51L21 51L21 52L22 52L22 53L24 53L24 54L23 54L23 55L24 55L24 56L25 56L25 53L24 53L24 52L26 52L26 49L25 49L25 48L27 48L27 47L28 47L28 48L30 48L30 47L29 47L29 46L31 46L31 48L32 48L32 50L31 50L31 53L30 53L30 54L27 54L27 53L26 53L26 55L27 55L27 56L29 56L29 55L30 55L30 56L31 56L31 54L32 54L32 53L33 53L33 55L35 55L35 56L36 56L36 54L35 54L35 53L34 53L34 52L35 52L35 51L34 51L34 50L36 50L36 52L37 52L37 53L38 53L38 54L40 54L40 53L42 53L42 52L43 52L43 51L42 51L42 50L41 50L41 48L42 48L42 49L43 49L43 50L44 50L44 49L45 49L45 46L48 46L48 45L49 45L49 46L50 46L50 48L51 48L51 46L53 46L53 47L54 47L54 46L53 46L53 43L54 43L54 42L53 42L53 41L51 41L51 42L50 42L50 43L49 43L49 42L48 42L48 41L49 41L49 40L50 40L50 39L51 39L51 38L52 38L52 39L54 39L54 38L53 38L53 35L55 35L55 34L54 34L54 33L52 33L52 32L53 32L53 31L52 31L52 32L51 32L51 33L52 33L52 34L50 34L50 31L48 31L48 29L46 29L46 30L47 30L47 31L46 31L46 32L47 32L47 33L45 33L45 32L43 32L43 31L44 31L44 30L45 30L45 28L46 28L46 27L47 27L47 28L48 28L48 26L47 26L47 25L49 25L49 23L50 23L50 24L51 24L51 25L50 25L50 26L52 26L52 25L53 25L53 23L52 23L52 24L51 24L51 23L50 23L50 22L51 22L51 21L49 21L49 23L48 23L48 24L47 24L47 23L46 23L46 22L47 22L47 21L48 21L48 20L47 20L47 19L48 19L48 18L47 18L47 17L48 17L48 16L49 16L49 15L50 15L50 14L51 14L51 12L50 12L50 11L49 11L49 10L47 10L47 9L49 9L49 8L47 8L47 7L46 7L46 6L45 6L45 4L46 4L46 5L47 5L47 3L44 3L44 6L43 6L43 7L42 7L42 5L40 5L40 6L39 6L39 7L40 7L40 8L39 8L39 9L38 9L38 10L37 10L37 9L35 9L35 8L37 8L37 7L38 7L38 6L37 6L37 7L36 7L36 5L37 5L37 4L36 4L36 5L35 5L35 3L32 3L32 2L31 2L31 1ZM46 1L46 2L47 2L47 1ZM31 3L31 4L32 4L32 5L34 5L34 7L33 7L33 6L32 6L32 7L33 7L33 9L34 9L34 8L35 8L35 5L34 5L34 4L32 4L32 3ZM15 4L15 5L16 5L16 4ZM8 5L8 7L9 7L9 5ZM27 5L27 8L30 8L30 5ZM16 6L16 7L17 7L17 6ZM21 6L21 7L22 7L22 6ZM28 6L28 7L29 7L29 6ZM40 6L40 7L41 7L41 6ZM44 6L44 7L43 7L43 9L41 9L41 10L40 10L40 9L39 9L39 11L37 11L37 10L36 10L36 12L35 12L35 14L32 14L32 11L33 11L33 10L32 10L32 11L31 11L31 13L30 13L30 14L29 14L29 13L28 13L28 12L29 12L29 11L27 11L27 12L26 12L26 13L28 13L28 14L29 14L29 16L28 16L28 15L27 15L27 16L28 16L28 17L27 17L27 18L26 18L26 19L25 19L25 17L22 17L22 16L20 16L20 17L22 17L22 18L24 18L24 19L21 19L21 20L24 20L24 21L23 21L23 22L24 22L24 21L25 21L25 22L26 22L26 23L25 23L25 24L24 24L24 23L23 23L23 24L24 24L24 25L22 25L22 26L23 26L23 31L21 31L21 30L20 30L20 29L22 29L22 28L19 28L19 29L18 29L18 30L16 30L16 29L15 29L15 30L14 30L14 29L13 29L13 30L14 30L14 32L15 32L15 33L17 33L17 35L19 35L19 34L20 34L20 36L22 36L22 35L23 35L23 34L24 34L24 36L23 36L23 37L24 37L24 38L23 38L23 39L24 39L24 40L25 40L25 36L26 36L26 35L27 35L27 31L29 31L29 32L28 32L28 33L29 33L29 34L30 34L30 36L29 36L29 37L31 37L31 38L29 38L29 39L33 39L33 40L35 40L35 42L37 42L37 43L36 43L36 44L35 44L35 43L34 43L34 42L33 42L33 41L32 41L32 40L30 40L30 41L29 41L29 42L28 42L28 44L29 44L29 43L32 43L32 44L31 44L31 45L32 45L32 46L33 46L33 50L32 50L32 52L33 52L33 50L34 50L34 47L35 47L35 46L37 46L37 47L36 47L36 48L35 48L35 49L36 49L36 50L38 50L38 51L37 51L37 52L38 52L38 53L39 53L39 52L38 52L38 51L40 51L40 52L41 52L41 50L38 50L38 49L39 49L39 48L41 48L41 46L43 46L43 47L42 47L42 48L43 48L43 49L44 49L44 48L43 48L43 47L44 47L44 46L43 46L43 45L44 45L44 40L47 40L47 39L50 39L50 38L51 38L51 36L52 36L52 35L53 35L53 34L52 34L52 35L50 35L50 34L48 34L48 35L50 35L50 38L47 38L47 39L46 39L46 38L45 38L45 37L44 37L44 36L45 36L45 35L44 35L44 33L43 33L43 32L41 32L41 33L39 33L39 34L40 34L40 35L38 35L38 33L37 33L37 32L35 32L35 34L34 34L34 32L33 32L33 34L31 34L31 33L32 33L32 31L36 31L36 30L33 30L33 29L32 29L32 28L31 28L31 26L32 26L32 27L33 27L33 28L35 28L35 29L38 29L38 28L40 28L40 27L37 27L37 28L35 28L35 27L36 27L36 26L34 26L34 27L33 27L33 26L32 26L32 24L33 24L33 25L37 25L37 26L38 26L38 25L39 25L39 26L44 26L44 27L43 27L43 28L45 28L45 26L44 26L44 24L43 24L43 25L39 25L39 24L42 24L42 23L44 23L44 20L46 20L46 19L45 19L45 18L44 18L44 14L43 14L43 13L44 13L44 11L45 11L45 12L47 12L47 10L46 10L46 9L45 9L45 10L44 10L44 8L46 8L46 7L45 7L45 6ZM51 8L51 9L52 9L52 8ZM53 8L53 9L54 9L54 8ZM55 8L55 9L56 9L56 8ZM21 9L21 10L20 10L20 13L21 13L21 14L20 14L20 15L24 15L24 16L26 16L26 15L25 15L25 13L23 13L23 12L24 12L24 11L23 11L23 10L22 10L22 9ZM21 10L21 11L22 11L22 10ZM41 10L41 12L40 12L40 11L39 11L39 13L38 13L38 14L36 14L36 15L35 15L35 16L33 16L33 15L32 15L32 17L31 17L31 18L30 18L30 19L28 19L28 18L27 18L27 19L26 19L26 21L27 21L27 23L29 23L29 22L30 22L30 23L31 23L31 24L32 24L32 23L33 23L33 22L34 22L34 23L35 23L35 21L34 21L34 20L35 20L35 19L36 19L36 20L38 20L38 22L37 22L37 24L39 24L39 23L40 23L40 22L39 22L39 21L41 21L41 20L38 20L38 19L39 19L39 17L41 17L41 16L42 16L42 17L43 17L43 16L42 16L42 15L43 15L43 14L41 14L41 13L43 13L43 11L42 11L42 10ZM45 10L45 11L46 11L46 10ZM2 12L2 13L3 13L3 14L2 14L2 15L3 15L3 14L5 14L5 13L7 13L7 12L4 12L4 13L3 13L3 12ZM21 12L21 13L22 13L22 14L23 14L23 13L22 13L22 12ZM33 12L33 13L34 13L34 12ZM49 12L49 13L47 13L47 14L45 14L45 15L47 15L47 16L48 16L48 15L49 15L49 14L50 14L50 12ZM52 12L52 13L53 13L53 12ZM6 14L6 15L5 15L5 18L6 18L6 19L5 19L5 21L7 21L7 22L4 22L4 23L3 23L3 24L4 24L4 25L5 25L5 24L6 24L6 25L7 25L7 24L8 24L8 25L9 25L9 26L10 26L10 27L12 27L12 25L13 25L13 24L14 24L14 23L12 23L12 25L11 25L11 26L10 26L10 24L11 24L11 22L10 22L10 20L8 20L8 19L7 19L7 18L6 18L6 17L7 17L7 16L8 16L8 18L9 18L9 19L10 19L10 18L9 18L9 16L10 16L10 15L9 15L9 16L8 16L8 14ZM30 14L30 15L31 15L31 14ZM38 14L38 15L39 15L39 16L38 16L38 17L37 17L37 16L35 16L35 17L37 17L37 18L38 18L38 17L39 17L39 16L41 16L41 14ZM53 14L53 15L54 15L54 14ZM6 15L6 16L7 16L7 15ZM45 16L45 17L46 17L46 16ZM50 16L50 18L49 18L49 19L51 19L51 17L53 17L53 18L55 18L55 17L54 17L54 16ZM14 17L14 18L15 18L15 17ZM32 17L32 19L30 19L30 22L31 22L31 21L32 21L32 20L34 20L34 19L35 19L35 18L33 18L33 17ZM41 18L41 19L42 19L42 18ZM43 18L43 20L42 20L42 21L43 21L43 20L44 20L44 18ZM6 19L6 20L7 20L7 19ZM8 21L8 22L7 22L7 23L6 23L6 24L7 24L7 23L8 23L8 24L10 24L10 23L9 23L9 21ZM13 21L13 22L14 22L14 21ZM21 21L21 23L22 23L22 21ZM28 21L28 22L29 22L29 21ZM38 22L38 23L39 23L39 22ZM41 22L41 23L42 23L42 22ZM4 23L4 24L5 24L5 23ZM45 23L45 25L47 25L47 24L46 24L46 23ZM15 24L15 25L16 25L16 24ZM25 24L25 25L26 25L26 26L25 26L25 27L24 27L24 28L25 28L25 29L26 29L26 28L25 28L25 27L26 27L26 26L27 26L27 25L28 25L28 26L29 26L29 24ZM53 26L53 27L54 27L54 26ZM5 27L5 30L8 30L8 27ZM27 27L27 30L30 30L30 27ZM41 27L41 28L42 28L42 27ZM49 27L49 30L52 30L52 27ZM6 28L6 29L7 29L7 28ZM28 28L28 29L29 29L29 28ZM50 28L50 29L51 29L51 28ZM54 28L54 31L55 31L55 29L56 29L56 28ZM31 29L31 31L30 31L30 32L29 32L29 33L31 33L31 31L32 31L32 29ZM39 29L39 30L38 30L38 32L39 32L39 30L40 30L40 29ZM41 29L41 30L44 30L44 29ZM19 30L19 31L17 31L17 32L21 32L21 33L20 33L20 34L21 34L21 35L22 35L22 34L23 34L23 33L25 33L25 35L26 35L26 33L25 33L25 32L21 32L21 31L20 31L20 30ZM9 31L9 32L10 32L10 31ZM47 31L47 32L48 32L48 33L49 33L49 32L48 32L48 31ZM0 32L0 33L1 33L1 32ZM3 32L3 33L4 33L4 32ZM7 32L7 33L8 33L8 32ZM18 33L18 34L19 34L19 33ZM21 33L21 34L22 34L22 33ZM1 34L1 35L2 35L2 34ZM33 34L33 36L32 36L32 37L33 37L33 39L35 39L35 40L38 40L38 42L39 42L39 41L41 41L41 40L43 40L43 39L45 39L45 38L44 38L44 37L43 37L43 36L44 36L44 35L43 35L43 34L42 34L42 35L41 35L41 36L40 36L40 37L38 37L38 35L37 35L37 34L35 34L35 36L34 36L34 34ZM5 35L5 36L4 36L4 37L2 37L2 39L3 39L3 38L4 38L4 37L5 37L5 38L7 38L7 37L9 37L9 36L7 36L7 35ZM12 35L12 36L13 36L13 37L14 37L14 38L16 38L16 37L15 37L15 36L16 36L16 35L14 35L14 36L13 36L13 35ZM6 36L6 37L7 37L7 36ZM17 36L17 38L18 38L18 39L17 39L17 40L16 40L16 39L15 39L15 40L16 40L16 41L17 41L17 42L18 42L18 41L19 41L19 42L20 42L20 41L21 41L21 42L22 42L22 43L21 43L21 44L22 44L22 45L21 45L21 47L24 47L24 48L25 48L25 45L24 45L24 43L23 43L23 42L25 42L25 41L23 41L23 42L22 42L22 41L21 41L21 40L22 40L22 39L21 39L21 37L19 37L19 36ZM35 36L35 39L37 39L37 38L38 38L38 37L37 37L37 36ZM46 36L46 37L47 37L47 36ZM18 37L18 38L19 38L19 39L20 39L20 38L19 38L19 37ZM26 37L26 40L27 40L27 41L26 41L26 42L27 42L27 41L28 41L28 39L27 39L27 38L28 38L28 37ZM40 37L40 38L43 38L43 37ZM38 39L38 40L40 40L40 39ZM19 40L19 41L20 41L20 40ZM31 41L31 42L32 42L32 43L33 43L33 44L32 44L32 45L33 45L33 46L35 46L35 45L34 45L34 43L33 43L33 42L32 42L32 41ZM3 42L3 44L5 44L5 43L4 43L4 42ZM9 42L9 43L10 43L10 42ZM46 42L46 44L45 44L45 45L47 45L47 43L48 43L48 42ZM51 42L51 43L50 43L50 44L49 44L49 45L50 45L50 44L51 44L51 43L53 43L53 42ZM0 43L0 44L1 44L1 43ZM25 43L25 44L27 44L27 43ZM40 43L40 44L39 44L39 45L38 45L38 46L39 46L39 47L38 47L38 48L37 48L37 49L38 49L38 48L39 48L39 47L40 47L40 46L39 46L39 45L41 45L41 44L42 44L42 43ZM55 43L55 44L54 44L54 45L55 45L55 46L56 46L56 43ZM9 44L9 45L8 45L8 46L9 46L9 45L10 45L10 44ZM17 44L17 45L18 45L18 44ZM4 45L4 46L3 46L3 47L5 47L5 45ZM22 45L22 46L24 46L24 45ZM26 45L26 47L27 47L27 45ZM11 47L11 49L12 49L12 47ZM46 47L46 48L47 48L47 49L48 49L48 48L49 48L49 47L48 47L48 48L47 48L47 47ZM53 48L53 49L54 49L54 48ZM27 49L27 52L30 52L30 49ZM49 49L49 52L52 52L52 49ZM28 50L28 51L29 51L29 50ZM50 50L50 51L51 51L51 50ZM54 50L54 51L55 51L55 50ZM18 51L18 52L20 52L20 51ZM22 51L22 52L23 52L23 51ZM46 51L46 53L47 53L47 51ZM10 53L10 54L11 54L11 55L9 55L9 56L11 56L11 55L13 55L13 54L12 54L12 53ZM15 53L15 54L14 54L14 55L15 55L15 54L16 54L16 53ZM43 53L43 54L44 54L44 53ZM41 54L41 56L43 56L43 55L42 55L42 54ZM50 55L50 56L51 56L51 55ZM0 0L0 7L7 7L7 0ZM1 1L1 6L6 6L6 1ZM2 2L2 5L5 5L5 2ZM50 0L50 7L57 7L57 0ZM51 1L51 6L56 6L56 1ZM52 2L52 5L55 5L55 2ZM0 50L0 57L7 57L7 50ZM1 51L1 56L6 56L6 51ZM2 52L2 55L5 55L5 52Z" fill="#000000"/></g></g></svg>
