<?xml version="1.0" encoding="UTF-8"?>
<svg xmlns="http://www.w3.org/2000/svg" version="1.1" width="300" height="300" viewBox="0 0 300 300"><rect x="0" y="0" width="300" height="300" fill="#fefefe"/><g transform="scale(4.615)"><g transform="translate(4,4)"><path fill-rule="evenodd" d="M8 0L8 2L10 2L10 5L9 5L9 4L8 4L8 9L7 9L7 8L5 8L5 9L7 9L7 10L6 10L6 11L7 11L7 12L6 12L6 13L7 13L7 12L8 12L8 14L6 14L6 15L8 15L8 16L4 16L4 15L3 15L3 10L1 10L1 9L3 9L3 8L0 8L0 10L1 10L1 11L2 11L2 12L0 12L0 13L1 13L1 15L0 15L0 21L1 21L1 23L2 23L2 22L3 22L3 21L5 21L5 23L4 23L4 24L6 24L6 25L5 25L5 26L4 26L4 25L3 25L3 24L2 24L2 25L0 25L0 28L1 28L1 26L2 26L2 25L3 25L3 26L4 26L4 27L2 27L2 29L0 29L0 30L1 30L1 31L0 31L0 32L1 32L1 33L0 33L0 34L1 34L1 33L2 33L2 31L5 31L5 33L4 33L4 32L3 32L3 34L5 34L5 35L4 35L4 36L3 36L3 35L2 35L2 36L1 36L1 35L0 35L0 38L2 38L2 39L1 39L1 41L0 41L0 42L1 42L1 41L2 41L2 42L3 42L3 43L2 43L2 44L4 44L4 45L5 45L5 44L6 44L6 45L7 45L7 46L5 46L5 47L3 47L3 45L1 45L1 43L0 43L0 48L5 48L5 47L7 47L7 46L8 46L8 48L6 48L6 49L8 49L8 50L10 50L10 51L11 51L11 53L10 53L10 52L9 52L9 51L8 51L8 52L9 52L9 53L10 53L10 56L9 56L9 54L8 54L8 57L10 57L10 56L11 56L11 57L12 57L12 56L11 56L11 55L12 55L12 54L13 54L13 55L15 55L15 57L17 57L17 56L18 56L18 57L19 57L19 55L18 55L18 53L19 53L19 52L18 52L18 51L19 51L19 50L20 50L20 49L21 49L21 48L22 48L22 50L21 50L21 51L20 51L20 53L21 53L21 54L20 54L20 55L21 55L21 54L23 54L23 55L22 55L22 56L21 56L21 57L25 57L25 56L26 56L26 57L28 57L28 55L29 55L29 57L33 57L33 55L34 55L34 57L35 57L35 55L37 55L37 54L36 54L36 53L37 53L37 51L38 51L38 53L39 53L39 55L40 55L40 54L42 54L42 55L41 55L41 56L40 56L40 57L42 57L42 56L44 56L44 57L47 57L47 56L46 56L46 55L47 55L47 54L48 54L48 55L49 55L49 57L50 57L50 55L49 55L49 54L52 54L52 55L53 55L53 53L54 53L54 55L57 55L57 54L55 54L55 52L54 52L54 51L53 51L53 50L54 50L54 47L55 47L55 49L56 49L56 51L57 51L57 49L56 49L56 47L57 47L57 44L56 44L56 47L55 47L55 46L54 46L54 45L53 45L53 44L54 44L54 43L55 43L55 42L56 42L56 43L57 43L57 42L56 42L56 41L57 41L57 40L54 40L54 38L57 38L57 37L55 37L55 36L56 36L56 35L57 35L57 33L56 33L56 31L57 31L57 24L56 24L56 23L57 23L57 21L56 21L56 20L55 20L55 21L54 21L54 19L55 19L55 16L56 16L56 19L57 19L57 13L56 13L56 12L57 12L57 10L56 10L56 11L55 11L55 9L57 9L57 8L55 8L55 9L54 9L54 10L53 10L53 8L49 8L49 9L52 9L52 10L53 10L53 11L52 11L52 12L51 12L51 11L50 11L50 13L49 13L49 14L48 14L48 12L47 12L47 11L49 11L49 10L48 10L48 9L47 9L47 8L48 8L48 7L49 7L49 6L48 6L48 7L47 7L47 5L48 5L48 0L42 0L42 1L41 1L41 0L38 0L38 3L37 3L37 4L38 4L38 5L39 5L39 4L40 4L40 2L42 2L42 1L47 1L47 2L45 2L45 4L44 4L44 2L43 2L43 3L42 3L42 5L41 5L41 6L40 6L40 7L41 7L41 6L42 6L42 8L40 8L40 10L38 10L38 8L39 8L39 6L38 6L38 7L37 7L37 6L36 6L36 10L34 10L34 9L35 9L35 4L36 4L36 3L35 3L35 2L37 2L37 1L35 1L35 0L34 0L34 2L33 2L33 1L32 1L32 0L30 0L30 2L31 2L31 4L30 4L30 3L29 3L29 4L28 4L28 0L26 0L26 2L25 2L25 4L24 4L24 1L25 1L25 0L24 0L24 1L23 1L23 0L20 0L20 1L19 1L19 2L18 2L18 1L17 1L17 0L16 0L16 1L14 1L14 0L13 0L13 1L14 1L14 3L13 3L13 5L11 5L11 3L12 3L12 2L11 2L11 1L12 1L12 0L11 0L11 1L9 1L9 0ZM22 1L22 4L21 4L21 2L20 2L20 3L18 3L18 4L19 4L19 7L18 7L18 6L17 6L17 5L16 5L16 6L15 6L15 7L14 7L14 6L13 6L13 7L12 7L12 6L11 6L11 5L10 5L10 6L9 6L9 8L10 8L10 9L9 9L9 11L8 11L8 12L9 12L9 14L8 14L8 15L10 15L10 16L9 16L9 17L6 17L6 18L5 18L5 17L4 17L4 16L3 16L3 17L2 17L2 15L1 15L1 17L2 17L2 21L3 21L3 20L7 20L7 21L6 21L6 22L7 22L7 21L8 21L8 20L7 20L7 19L10 19L10 18L11 18L11 19L13 19L13 18L12 18L12 17L10 17L10 16L11 16L11 15L12 15L12 16L13 16L13 17L14 17L14 18L15 18L15 17L14 17L14 16L17 16L17 17L16 17L16 19L14 19L14 20L16 20L16 19L18 19L18 20L19 20L19 24L20 24L20 28L18 28L18 27L19 27L19 25L18 25L18 23L17 23L17 22L16 22L16 23L17 23L17 25L16 25L16 26L14 26L14 24L13 24L13 22L12 22L12 21L11 21L11 23L10 23L10 24L11 24L11 25L12 25L12 24L13 24L13 26L12 26L12 29L11 29L11 27L9 27L9 29L11 29L11 30L12 30L12 31L13 31L13 33L14 33L14 31L15 31L15 32L16 32L16 31L17 31L17 33L16 33L16 34L17 34L17 35L18 35L18 36L21 36L21 37L22 37L22 38L20 38L20 39L22 39L22 38L23 38L23 40L24 40L24 44L22 44L22 43L23 43L23 41L22 41L22 40L21 40L21 41L20 41L20 43L18 43L18 44L20 44L20 46L19 46L19 45L18 45L18 47L17 47L17 44L15 44L15 43L16 43L16 42L18 42L18 39L16 39L16 38L17 38L17 37L16 37L16 36L15 36L15 35L14 35L14 34L12 34L12 33L11 33L11 31L10 31L10 32L9 32L9 33L5 33L5 34L9 34L9 33L10 33L10 35L11 35L11 36L12 36L12 37L11 37L11 38L12 38L12 41L13 41L13 42L14 42L14 43L10 43L10 44L9 44L9 45L8 45L8 46L10 46L10 45L11 45L11 50L12 50L12 49L13 49L13 50L15 50L15 51L14 51L14 52L15 52L15 51L16 51L16 52L17 52L17 53L18 53L18 52L17 52L17 51L18 51L18 50L19 50L19 49L20 49L20 48L21 48L21 46L22 46L22 48L23 48L23 49L24 49L24 51L23 51L23 50L22 50L22 51L21 51L21 52L22 52L22 51L23 51L23 52L24 52L24 51L25 51L25 54L24 54L24 55L26 55L26 54L27 54L27 55L28 55L28 53L26 53L26 50L25 50L25 49L26 49L26 48L31 48L31 49L32 49L32 50L31 50L31 52L32 52L32 50L33 50L33 51L34 51L34 52L35 52L35 53L34 53L34 54L35 54L35 53L36 53L36 52L35 52L35 51L37 51L37 49L36 49L36 48L37 48L37 47L38 47L38 51L39 51L39 49L40 49L40 51L41 51L41 49L42 49L42 50L43 50L43 51L42 51L42 52L41 52L41 53L42 53L42 54L43 54L43 55L44 55L44 56L45 56L45 55L44 55L44 52L43 52L43 51L44 51L44 48L45 48L45 49L46 49L46 50L45 50L45 52L46 52L46 54L47 54L47 52L48 52L48 51L47 51L47 52L46 52L46 50L47 50L47 48L45 48L45 47L44 47L44 46L43 46L43 45L44 45L44 44L45 44L45 42L44 42L44 39L43 39L43 38L44 38L44 34L45 34L45 33L46 33L46 34L48 34L48 33L46 33L46 32L47 32L47 30L48 30L48 26L49 26L49 24L51 24L51 25L50 25L50 26L53 26L53 25L54 25L54 26L55 26L55 27L54 27L54 28L53 28L53 29L56 29L56 24L55 24L55 23L56 23L56 21L55 21L55 22L54 22L54 24L53 24L53 22L52 22L52 20L53 20L53 19L54 19L54 17L53 17L53 18L52 18L52 17L51 17L51 14L52 14L52 15L53 15L53 14L52 14L52 13L50 13L50 15L49 15L49 16L50 16L50 18L49 18L49 17L48 17L48 19L47 19L47 17L44 17L44 16L45 16L45 14L44 14L44 12L45 12L45 13L46 13L46 16L47 16L47 15L48 15L48 14L47 14L47 13L46 13L46 11L47 11L47 9L46 9L46 5L47 5L47 3L46 3L46 5L44 5L44 4L43 4L43 5L42 5L42 6L43 6L43 8L42 8L42 10L40 10L40 11L41 11L41 12L42 12L42 15L41 15L41 17L42 17L42 18L43 18L43 17L44 17L44 19L42 19L42 20L41 20L41 21L42 21L42 22L43 22L43 25L42 25L42 23L41 23L41 22L40 22L40 19L41 19L41 18L40 18L40 14L41 14L41 13L40 13L40 12L37 12L37 11L38 11L38 10L37 10L37 11L36 11L36 12L35 12L35 11L34 11L34 10L33 10L33 9L32 9L32 8L34 8L34 6L33 6L33 2L32 2L32 5L31 5L31 9L30 9L30 10L29 10L29 12L30 12L30 13L29 13L29 15L28 15L28 14L27 14L27 15L26 15L26 14L25 14L25 13L24 13L24 14L25 14L25 15L24 15L24 18L25 18L25 19L24 19L24 20L25 20L25 21L26 21L26 20L27 20L27 22L26 22L26 23L27 23L27 22L28 22L28 24L27 24L27 25L26 25L26 26L28 26L28 24L30 24L30 26L31 26L31 25L32 25L32 28L31 28L31 30L32 30L32 32L30 32L30 31L27 31L27 32L26 32L26 30L25 30L25 29L24 29L24 27L25 27L25 25L24 25L24 26L23 26L23 27L22 27L22 28L23 28L23 29L22 29L22 30L21 30L21 25L22 25L22 24L23 24L23 21L22 21L22 19L23 19L23 18L22 18L22 19L21 19L21 21L20 21L20 20L19 20L19 19L18 19L18 18L19 18L19 17L18 17L18 15L20 15L20 16L21 16L21 15L20 15L20 14L22 14L22 16L23 16L23 12L22 12L22 11L24 11L24 10L25 10L25 11L26 11L26 13L27 13L27 12L28 12L28 9L27 9L27 10L25 10L25 9L26 9L26 5L24 5L24 6L23 6L23 5L22 5L22 4L23 4L23 1ZM39 1L39 2L40 2L40 1ZM15 2L15 3L14 3L14 4L15 4L15 3L16 3L16 4L17 4L17 3L16 3L16 2ZM26 3L26 4L27 4L27 3ZM34 3L34 4L35 4L35 3ZM20 5L20 7L19 7L19 8L18 8L18 7L17 7L17 6L16 6L16 7L17 7L17 11L16 11L16 8L14 8L14 9L15 9L15 11L14 11L14 12L15 12L15 11L16 11L16 12L17 12L17 14L15 14L15 15L18 15L18 13L19 13L19 14L20 14L20 13L21 13L21 11L20 11L20 9L21 9L21 10L22 10L22 9L23 9L23 10L24 10L24 9L25 9L25 8L24 8L24 9L23 9L23 6L22 6L22 5ZM27 5L27 8L30 8L30 5ZM43 5L43 6L44 6L44 10L45 10L45 6L44 6L44 5ZM10 6L10 8L11 8L11 10L10 10L10 14L11 14L11 13L12 13L12 14L13 14L13 12L11 12L11 10L12 10L12 11L13 11L13 9L12 9L12 7L11 7L11 6ZM21 6L21 7L22 7L22 6ZM24 6L24 7L25 7L25 6ZM28 6L28 7L29 7L29 6ZM32 6L32 7L33 7L33 6ZM21 8L21 9L22 9L22 8ZM31 9L31 10L30 10L30 12L31 12L31 11L32 11L32 13L31 13L31 15L32 15L32 18L31 18L31 19L30 19L30 20L28 20L28 22L30 22L30 24L31 24L31 23L32 23L32 25L33 25L33 26L34 26L34 24L36 24L36 26L37 26L37 28L36 28L36 30L37 30L37 31L36 31L36 33L35 33L35 34L34 34L34 33L33 33L33 32L32 32L32 33L33 33L33 34L30 34L30 32L29 32L29 34L28 34L28 33L26 33L26 34L24 34L24 32L23 32L23 30L24 30L24 31L25 31L25 30L24 30L24 29L23 29L23 30L22 30L22 33L23 33L23 35L25 35L25 36L24 36L24 37L26 37L26 38L24 38L24 39L26 39L26 40L25 40L25 41L26 41L26 42L25 42L25 45L26 45L26 46L25 46L25 47L26 47L26 46L27 46L27 44L29 44L29 46L28 46L28 47L29 47L29 46L30 46L30 47L31 47L31 48L32 48L32 49L33 49L33 48L34 48L34 45L33 45L33 44L35 44L35 43L36 43L36 41L37 41L37 42L38 42L38 41L39 41L39 40L40 40L40 41L41 41L41 42L40 42L40 43L37 43L37 44L36 44L36 45L35 45L35 46L36 46L36 47L37 47L37 46L38 46L38 45L37 45L37 44L39 44L39 47L40 47L40 49L41 49L41 47L42 47L42 45L43 45L43 44L44 44L44 42L42 42L42 41L41 41L41 40L40 40L40 39L41 39L41 36L42 36L42 37L43 37L43 36L42 36L42 35L40 35L40 36L39 36L39 38L38 38L38 37L37 37L37 36L38 36L38 35L39 35L39 34L38 34L38 33L39 33L39 32L40 32L40 34L42 34L42 33L43 33L43 34L44 34L44 33L45 33L45 32L46 32L46 30L45 30L45 29L46 29L46 28L47 28L47 26L46 26L46 25L45 25L45 24L44 24L44 25L43 25L43 26L44 26L44 25L45 25L45 27L44 27L44 31L42 31L42 28L43 28L43 27L41 27L41 26L40 26L40 25L41 25L41 23L39 23L39 22L38 22L38 20L39 20L39 19L40 19L40 18L38 18L38 16L37 16L37 15L38 15L38 13L37 13L37 12L36 12L36 13L37 13L37 14L36 14L36 18L35 18L35 20L36 20L36 21L35 21L35 22L34 22L34 21L33 21L33 19L34 19L34 17L35 17L35 15L34 15L34 13L35 13L35 12L34 12L34 11L32 11L32 9ZM4 10L4 11L5 11L5 10ZM42 10L42 12L43 12L43 10ZM18 11L18 12L19 12L19 13L20 13L20 11ZM54 11L54 12L53 12L53 13L55 13L55 14L54 14L54 16L55 16L55 15L56 15L56 13L55 13L55 11ZM32 13L32 15L33 15L33 17L34 17L34 15L33 15L33 13ZM39 13L39 14L40 14L40 13ZM43 14L43 16L44 16L44 14ZM13 15L13 16L14 16L14 15ZM25 15L25 16L26 16L26 17L25 17L25 18L26 18L26 19L25 19L25 20L26 20L26 19L27 19L27 16L26 16L26 15ZM29 15L29 16L30 16L30 17L28 17L28 18L30 18L30 17L31 17L31 16L30 16L30 15ZM3 17L3 19L5 19L5 18L4 18L4 17ZM17 17L17 18L18 18L18 17ZM20 17L20 18L21 18L21 17ZM6 18L6 19L7 19L7 18ZM36 18L36 19L37 19L37 18ZM50 18L50 19L48 19L48 20L46 20L46 21L47 21L47 23L48 23L48 24L49 24L49 23L50 23L50 22L49 22L49 23L48 23L48 21L49 21L49 20L51 20L51 18ZM44 19L44 21L43 21L43 22L44 22L44 23L45 23L45 22L44 22L44 21L45 21L45 19ZM9 20L9 22L10 22L10 20ZM31 20L31 21L30 21L30 22L33 22L33 24L34 24L34 22L33 22L33 21L32 21L32 20ZM14 21L14 22L15 22L15 21ZM21 21L21 22L20 22L20 23L21 23L21 24L22 24L22 21ZM36 21L36 22L35 22L35 23L36 23L36 24L37 24L37 25L38 25L38 26L39 26L39 29L38 29L38 28L37 28L37 30L38 30L38 31L37 31L37 32L38 32L38 31L39 31L39 30L40 30L40 28L41 28L41 27L40 27L40 26L39 26L39 25L40 25L40 24L39 24L39 23L36 23L36 22L37 22L37 21ZM24 22L24 23L25 23L25 22ZM51 22L51 23L52 23L52 22ZM6 23L6 24L7 24L7 25L6 25L6 26L8 26L8 25L9 25L9 26L10 26L10 25L9 25L9 23ZM11 23L11 24L12 24L12 23ZM52 24L52 25L53 25L53 24ZM17 25L17 26L16 26L16 27L14 27L14 26L13 26L13 27L14 27L14 28L13 28L13 29L14 29L14 30L15 30L15 31L16 31L16 30L15 30L15 28L17 28L17 26L18 26L18 25ZM5 27L5 30L8 30L8 27ZM27 27L27 30L30 30L30 27ZM34 27L34 29L33 29L33 28L32 28L32 29L33 29L33 31L34 31L34 29L35 29L35 27ZM49 27L49 30L52 30L52 27ZM3 28L3 29L2 29L2 30L4 30L4 28ZM6 28L6 29L7 29L7 28ZM28 28L28 29L29 29L29 28ZM50 28L50 29L51 29L51 28ZM18 30L18 35L20 35L20 32L21 32L21 30ZM53 30L53 31L54 31L54 32L52 32L52 31L51 31L51 32L50 32L50 31L49 31L49 32L50 32L50 33L49 33L49 36L48 36L48 37L46 37L46 36L47 36L47 35L45 35L45 37L46 37L46 38L45 38L45 39L46 39L46 38L47 38L47 40L45 40L45 41L46 41L46 42L47 42L47 44L46 44L46 47L47 47L47 44L48 44L48 46L49 46L49 47L50 47L50 48L52 48L52 47L50 47L50 46L51 46L51 45L52 45L52 46L53 46L53 47L54 47L54 46L53 46L53 45L52 45L52 44L53 44L53 41L54 41L54 42L55 42L55 41L54 41L54 40L53 40L53 39L51 39L51 40L50 40L50 37L51 37L51 36L53 36L53 37L52 37L52 38L54 38L54 36L55 36L55 35L56 35L56 33L54 33L54 32L55 32L55 31L56 31L56 30L55 30L55 31L54 31L54 30ZM6 31L6 32L8 32L8 31ZM19 31L19 32L20 32L20 31ZM40 31L40 32L41 32L41 33L42 33L42 31ZM36 33L36 35L35 35L35 36L34 36L34 34L33 34L33 36L34 36L34 38L35 38L35 41L34 41L34 39L33 39L33 38L31 38L31 40L30 40L30 36L31 36L31 37L32 37L32 36L31 36L31 35L28 35L28 34L26 34L26 36L27 36L27 38L26 38L26 39L27 39L27 41L28 41L28 42L27 42L27 43L28 43L28 42L29 42L29 43L30 43L30 46L32 46L32 48L33 48L33 46L32 46L32 40L33 40L33 41L34 41L34 42L35 42L35 41L36 41L36 38L37 38L37 41L38 41L38 38L37 38L37 37L36 37L36 35L38 35L38 34L37 34L37 33ZM50 33L50 36L49 36L49 37L50 37L50 36L51 36L51 33ZM21 34L21 35L22 35L22 34ZM53 34L53 36L54 36L54 34ZM6 35L6 36L7 36L7 37L5 37L5 36L4 36L4 37L3 37L3 36L2 36L2 38L5 38L5 39L4 39L4 40L5 40L5 43L4 43L4 44L5 44L5 43L6 43L6 44L8 44L8 42L9 42L9 40L10 40L10 42L11 42L11 40L10 40L10 39L9 39L9 38L10 38L10 36L8 36L8 35ZM13 35L13 37L12 37L12 38L13 38L13 40L14 40L14 39L15 39L15 38L13 38L13 37L15 37L15 36L14 36L14 35ZM27 35L27 36L28 36L28 37L29 37L29 36L28 36L28 35ZM22 36L22 37L23 37L23 36ZM7 37L7 38L6 38L6 39L7 39L7 40L6 40L6 41L8 41L8 38L9 38L9 37ZM35 37L35 38L36 38L36 37ZM28 38L28 39L29 39L29 38ZM39 38L39 39L40 39L40 38ZM48 39L48 40L47 40L47 41L48 41L48 40L49 40L49 39ZM2 40L2 41L3 41L3 40ZM15 40L15 42L16 42L16 40ZM29 40L29 41L30 41L30 43L31 43L31 41L30 41L30 40ZM51 40L51 41L49 41L49 42L50 42L50 44L49 44L49 43L48 43L48 44L49 44L49 45L50 45L50 44L52 44L52 40ZM6 42L6 43L7 43L7 42ZM41 43L41 45L40 45L40 47L41 47L41 45L42 45L42 44L43 44L43 43ZM12 44L12 46L15 46L15 47L14 47L14 48L13 48L13 49L15 49L15 50L16 50L16 51L17 51L17 50L18 50L18 49L19 49L19 47L18 47L18 49L17 49L17 50L16 50L16 48L17 48L17 47L16 47L16 45L15 45L15 44L14 44L14 45L13 45L13 44ZM36 45L36 46L37 46L37 45ZM1 46L1 47L2 47L2 46ZM23 46L23 48L24 48L24 46ZM15 47L15 48L16 48L16 47ZM27 49L27 52L30 52L30 49ZM49 49L49 52L52 52L52 49ZM28 50L28 51L29 51L29 50ZM50 50L50 51L51 51L51 50ZM12 51L12 52L13 52L13 51ZM39 52L39 53L40 53L40 52ZM42 52L42 53L43 53L43 52ZM56 52L56 53L57 53L57 52ZM11 53L11 54L12 54L12 53ZM13 53L13 54L15 54L15 53ZM31 53L31 54L30 54L30 55L33 55L33 54L32 54L32 53ZM48 53L48 54L49 54L49 53ZM16 54L16 55L17 55L17 54ZM36 56L36 57L37 57L37 56ZM51 56L51 57L53 57L53 56ZM56 56L56 57L57 57L57 56ZM0 0L0 7L7 7L7 0ZM1 1L1 6L6 6L6 1ZM2 2L2 5L5 5L5 2ZM50 0L50 7L57 7L57 0ZM51 1L51 6L56 6L56 1ZM52 2L52 5L55 5L55 2ZM0 50L0 57L7 57L7 50ZM1 51L1 56L6 56L6 51ZM2 52L2 55L5 55L5 52Z" fill="#000000"/></g></g></svg>
