<?xml version="1.0" encoding="UTF-8"?>
<svg xmlns="http://www.w3.org/2000/svg" version="1.1" width="300" height="300" viewBox="0 0 300 300"><rect x="0" y="0" width="300" height="300" fill="#fefefe"/><g transform="scale(4.615)"><g transform="translate(4,4)"><path fill-rule="evenodd" d="M9 0L9 1L8 1L8 2L9 2L9 3L8 3L8 4L9 4L9 5L8 5L8 7L9 7L9 8L6 8L6 9L8 9L8 10L6 10L6 11L5 11L5 12L2 12L2 11L4 11L4 10L3 10L3 9L5 9L5 8L0 8L0 10L1 10L1 12L0 12L0 13L2 13L2 14L3 14L3 13L5 13L5 14L4 14L4 15L1 15L1 14L0 14L0 15L1 15L1 16L0 16L0 17L2 17L2 16L3 16L3 17L4 17L4 16L6 16L6 17L8 17L8 18L9 18L9 17L10 17L10 19L7 19L7 18L6 18L6 19L5 19L5 21L4 21L4 19L3 19L3 22L2 22L2 20L0 20L0 21L1 21L1 22L0 22L0 25L1 25L1 22L2 22L2 23L3 23L3 24L4 24L4 23L3 23L3 22L5 22L5 23L7 23L7 22L8 22L8 24L6 24L6 25L8 25L8 24L10 24L10 25L9 25L9 26L4 26L4 25L3 25L3 26L0 26L0 27L2 27L2 28L3 28L3 27L4 27L4 30L1 30L1 31L2 31L2 32L6 32L6 33L5 33L5 34L6 34L6 35L5 35L5 36L6 36L6 37L5 37L5 38L6 38L6 39L8 39L8 41L7 41L7 40L5 40L5 39L4 39L4 36L3 36L3 35L4 35L4 34L3 34L3 35L2 35L2 34L0 34L0 35L1 35L1 36L0 36L0 37L1 37L1 36L3 36L3 37L2 37L2 39L4 39L4 40L0 40L0 43L1 43L1 44L0 44L0 45L1 45L1 46L0 46L0 48L5 48L5 47L7 47L7 48L6 48L6 49L7 49L7 48L8 48L8 47L9 47L9 49L8 49L8 51L9 51L9 50L10 50L10 51L11 51L11 52L8 52L8 57L9 57L9 53L10 53L10 55L11 55L11 56L10 56L10 57L11 57L11 56L13 56L13 57L16 57L16 56L17 56L17 57L20 57L20 56L19 56L19 55L20 55L20 54L19 54L19 53L20 53L20 52L21 52L21 53L22 53L22 55L23 55L23 57L26 57L26 56L24 56L24 55L23 55L23 54L24 54L24 53L25 53L25 55L26 55L26 54L30 54L30 53L31 53L31 49L32 49L32 50L33 50L33 49L32 49L32 48L34 48L34 49L36 49L36 50L35 50L35 52L34 52L34 53L35 53L35 54L36 54L36 56L35 56L35 55L34 55L34 54L33 54L33 53L32 53L32 54L31 54L31 56L30 56L30 55L29 55L29 56L27 56L27 57L29 57L29 56L30 56L30 57L31 57L31 56L35 56L35 57L39 57L39 56L37 56L37 54L38 54L38 55L40 55L40 56L42 56L42 55L44 55L44 56L43 56L43 57L44 57L44 56L45 56L45 57L47 57L47 55L49 55L49 56L50 56L50 57L52 57L52 55L51 55L51 53L52 53L52 54L53 54L53 55L54 55L54 56L53 56L53 57L54 57L54 56L55 56L55 57L56 57L56 56L55 56L55 54L53 54L53 52L54 52L54 53L56 53L56 52L55 52L55 51L56 51L56 50L55 50L55 49L54 49L54 48L56 48L56 49L57 49L57 48L56 48L56 46L57 46L57 44L56 44L56 41L55 41L55 39L57 39L57 37L56 37L56 34L55 34L55 33L54 33L54 32L56 32L56 33L57 33L57 32L56 32L56 30L57 30L57 27L56 27L56 26L57 26L57 25L56 25L56 22L57 22L57 20L56 20L56 19L55 19L55 18L57 18L57 17L56 17L56 16L57 16L57 15L56 15L56 14L57 14L57 12L56 12L56 10L54 10L54 11L52 11L52 10L49 10L49 9L50 9L50 8L49 8L49 6L48 6L48 7L47 7L47 5L48 5L48 0L46 0L46 1L47 1L47 2L44 2L44 3L41 3L41 2L43 2L43 0L41 0L41 1L40 1L40 0L39 0L39 1L38 1L38 0L37 0L37 1L38 1L38 2L37 2L37 3L36 3L36 0L35 0L35 1L33 1L33 0L32 0L32 1L31 1L31 0L27 0L27 1L26 1L26 0L23 0L23 1L22 1L22 0L21 0L21 1L20 1L20 2L19 2L19 1L18 1L18 0L17 0L17 1L14 1L14 0L13 0L13 1L14 1L14 2L13 2L13 3L12 3L12 4L11 4L11 5L10 5L10 2L12 2L12 1L10 1L10 0ZM21 1L21 2L20 2L20 3L19 3L19 4L18 4L18 5L17 5L17 3L15 3L15 2L14 2L14 4L12 4L12 5L11 5L11 7L12 7L12 8L11 8L11 10L8 10L8 13L9 13L9 14L8 14L8 15L6 15L6 14L7 14L7 13L6 13L6 12L7 12L7 11L6 11L6 12L5 12L5 13L6 13L6 14L5 14L5 15L6 15L6 16L8 16L8 15L9 15L9 14L10 14L10 15L11 15L11 16L13 16L13 15L14 15L14 17L13 17L13 19L12 19L12 20L9 20L9 21L10 21L10 22L11 22L11 23L10 23L10 24L13 24L13 25L12 25L12 26L10 26L10 28L9 28L9 29L11 29L11 27L12 27L12 26L13 26L13 27L14 27L14 28L15 28L15 29L16 29L16 30L18 30L18 31L17 31L17 33L15 33L15 31L12 31L12 30L11 30L11 31L9 31L9 34L8 34L8 33L6 33L6 34L8 34L8 35L6 35L6 36L7 36L7 37L6 37L6 38L8 38L8 39L9 39L9 41L11 41L11 42L10 42L10 44L9 44L9 45L8 45L8 43L9 43L9 42L7 42L7 41L6 41L6 42L7 42L7 43L6 43L6 44L7 44L7 45L4 45L4 44L5 44L5 41L3 41L3 43L4 43L4 44L3 44L3 45L4 45L4 46L3 46L3 47L5 47L5 46L7 46L7 47L8 47L8 46L9 46L9 47L10 47L10 44L12 44L12 45L11 45L11 47L12 47L12 48L10 48L10 50L11 50L11 51L13 51L13 52L14 52L14 53L15 53L15 54L16 54L16 53L17 53L17 52L18 52L18 50L17 50L17 48L18 48L18 46L17 46L17 45L18 45L18 44L17 44L17 45L16 45L16 42L17 42L17 43L18 43L18 42L19 42L19 43L20 43L20 46L19 46L19 48L21 48L21 49L20 49L20 51L23 51L23 52L22 52L22 53L24 53L24 52L26 52L26 50L21 50L21 49L23 49L23 48L24 48L24 49L25 49L25 48L27 48L27 47L29 47L29 48L30 48L30 47L29 47L29 46L31 46L31 47L32 47L32 46L35 46L35 47L34 47L34 48L36 48L36 47L37 47L37 45L34 45L34 43L35 43L35 44L36 44L36 43L37 43L37 42L35 42L35 40L38 40L38 42L39 42L39 41L42 41L42 40L43 40L43 39L45 39L45 38L46 38L46 39L47 39L47 40L44 40L44 41L45 41L45 43L44 43L44 42L43 42L43 44L44 44L44 45L43 45L43 46L41 46L41 44L42 44L42 42L41 42L41 43L40 43L40 44L39 44L39 45L38 45L38 46L39 46L39 47L38 47L38 48L37 48L37 49L38 49L38 50L36 50L36 52L37 52L37 53L38 53L38 54L40 54L40 53L41 53L41 52L40 52L40 51L38 51L38 50L41 50L41 51L42 51L42 52L43 52L43 51L45 51L45 52L44 52L44 53L43 53L43 54L44 54L44 55L45 55L45 54L46 54L46 55L47 55L47 54L48 54L48 50L47 50L47 49L48 49L48 48L49 48L49 47L48 47L48 46L47 46L47 45L49 45L49 46L50 46L50 48L51 48L51 45L52 45L52 48L53 48L53 47L55 47L55 46L56 46L56 45L55 45L55 44L54 44L54 45L52 45L52 44L53 44L53 43L54 43L54 42L53 42L53 41L54 41L54 40L53 40L53 39L52 39L52 38L53 38L53 35L55 35L55 34L54 34L54 33L52 33L52 32L54 32L54 31L52 31L52 32L51 32L51 33L52 33L52 34L50 34L50 31L48 31L48 28L47 28L47 29L46 29L46 30L47 30L47 31L46 31L46 32L43 32L43 31L45 31L45 28L46 28L46 27L48 27L48 26L47 26L47 25L49 25L49 24L50 24L50 26L51 26L51 25L54 25L54 24L51 24L51 23L50 23L50 22L51 22L51 21L54 21L54 23L55 23L55 22L56 22L56 21L55 21L55 20L53 20L53 19L52 19L52 20L51 20L51 21L49 21L49 23L48 23L48 24L47 24L47 23L46 23L46 25L45 25L45 22L47 22L47 21L48 21L48 20L49 20L49 19L51 19L51 18L55 18L55 17L53 17L53 16L50 16L50 18L47 18L47 17L48 17L48 16L49 16L49 15L50 15L50 14L51 14L51 12L50 12L50 11L48 11L48 12L45 12L45 11L46 11L46 10L47 10L47 8L46 8L46 6L45 6L45 4L46 4L46 5L47 5L47 3L44 3L44 6L43 6L43 5L40 5L40 4L41 4L41 3L39 3L39 2L38 2L38 3L37 3L37 4L36 4L36 5L35 5L35 2L34 2L34 3L32 3L32 2L33 2L33 1L32 1L32 2L31 2L31 1L29 1L29 2L28 2L28 1L27 1L27 2L26 2L26 1L25 1L25 2L22 2L22 1ZM21 2L21 3L22 3L22 2ZM27 2L27 3L28 3L28 2ZM23 3L23 4L19 4L19 5L20 5L20 7L19 7L19 6L18 6L18 7L17 7L17 6L16 6L16 7L15 7L15 5L16 5L16 4L15 4L15 5L14 5L14 7L15 7L15 9L19 9L19 10L18 10L18 11L17 11L17 10L14 10L14 8L12 8L12 10L13 10L13 11L11 11L11 12L10 12L10 11L9 11L9 12L10 12L10 13L15 13L15 14L14 14L14 15L15 15L15 16L16 16L16 13L17 13L17 14L18 14L18 15L19 15L19 14L20 14L20 11L19 11L19 10L20 10L20 8L21 8L21 5L22 5L22 7L23 7L23 6L24 6L24 8L25 8L25 9L23 9L23 10L22 10L22 9L21 9L21 10L22 10L22 11L21 11L21 12L22 12L22 13L21 13L21 15L20 15L20 16L17 16L17 17L18 17L18 18L20 18L20 20L17 20L17 21L16 21L16 20L15 20L15 21L16 21L16 22L14 22L14 21L13 21L13 20L14 20L14 19L13 19L13 20L12 20L12 23L13 23L13 24L14 24L14 25L13 25L13 26L14 26L14 27L16 27L16 26L15 26L15 23L16 23L16 24L17 24L17 27L18 27L18 26L19 26L19 28L20 28L20 26L19 26L19 25L22 25L22 26L21 26L21 27L22 27L22 26L23 26L23 27L24 27L24 28L23 28L23 30L25 30L25 31L21 31L21 30L20 30L20 29L18 29L18 28L16 28L16 29L18 29L18 30L20 30L20 31L19 31L19 32L18 32L18 33L17 33L17 34L18 34L18 35L19 35L19 34L20 34L20 33L19 33L19 32L20 32L20 31L21 31L21 32L25 32L25 33L23 33L23 34L24 34L24 36L23 36L23 37L24 37L24 38L23 38L23 39L24 39L24 40L23 40L23 41L24 41L24 42L22 42L22 41L21 41L21 42L22 42L22 43L21 43L21 44L22 44L22 45L21 45L21 47L23 47L23 46L22 46L22 45L24 45L24 48L25 48L25 45L24 45L24 44L27 44L27 43L25 43L25 41L24 41L24 40L25 40L25 37L26 37L26 36L27 36L27 34L26 34L26 35L25 35L25 33L26 33L26 32L27 32L27 31L29 31L29 32L28 32L28 33L29 33L29 34L30 34L30 36L29 36L29 37L31 37L31 38L29 38L29 39L33 39L33 40L35 40L35 39L38 39L38 40L39 40L39 39L38 39L38 37L37 37L37 36L38 36L38 33L37 33L37 32L35 32L35 31L36 31L36 30L33 30L33 31L34 31L34 32L33 32L33 34L34 34L34 35L32 35L32 34L31 34L31 33L32 33L32 27L33 27L33 28L35 28L35 29L38 29L38 28L40 28L40 26L43 26L43 25L44 25L44 27L43 27L43 28L45 28L45 25L44 25L44 24L43 24L43 23L44 23L44 20L45 20L45 21L47 21L47 19L46 19L46 18L44 18L44 14L43 14L43 13L44 13L44 11L45 11L45 10L46 10L46 9L44 9L44 8L45 8L45 6L44 6L44 7L43 7L43 6L42 6L42 7L43 7L43 9L40 9L40 10L38 10L38 9L39 9L39 8L40 8L40 7L41 7L41 6L40 6L40 5L39 5L39 6L38 6L38 7L37 7L37 5L38 5L38 4L37 4L37 5L36 5L36 7L37 7L37 8L35 8L35 5L34 5L34 7L33 7L33 6L32 6L32 7L33 7L33 9L34 9L34 8L35 8L35 9L37 9L37 10L36 10L36 12L35 12L35 13L37 13L37 14L38 14L38 15L39 15L39 16L38 16L38 17L37 17L37 16L35 16L35 14L32 14L32 12L33 12L33 13L34 13L34 12L33 12L33 10L32 10L32 8L31 8L31 4L32 4L32 5L33 5L33 4L32 4L32 3L31 3L31 4L26 4L26 3ZM23 4L23 5L24 5L24 4ZM25 4L25 8L26 8L26 4ZM9 5L9 7L10 7L10 5ZM12 5L12 7L13 7L13 5ZM27 5L27 8L30 8L30 5ZM28 6L28 7L29 7L29 6ZM39 6L39 7L40 7L40 6ZM16 7L16 8L17 8L17 7ZM37 8L37 9L38 9L38 8ZM48 8L48 9L49 9L49 8ZM51 8L51 9L52 9L52 8ZM53 8L53 9L54 9L54 8ZM55 8L55 9L56 9L56 8ZM43 9L43 10L44 10L44 9ZM23 10L23 11L24 11L24 12L23 12L23 13L22 13L22 14L23 14L23 15L21 15L21 16L20 16L20 18L21 18L21 19L22 19L22 20L20 20L20 21L19 21L19 22L18 22L18 23L19 23L19 24L22 24L22 25L24 25L24 24L25 24L25 25L26 25L26 26L24 26L24 27L26 27L26 26L29 26L29 23L27 23L27 24L25 24L25 23L26 23L26 22L25 22L25 21L24 21L24 20L23 20L23 19L24 19L24 18L23 18L23 19L22 19L22 17L25 17L25 18L26 18L26 21L30 21L30 20L29 20L29 19L28 19L28 18L26 18L26 16L27 16L27 17L28 17L28 16L29 16L29 14L30 14L30 15L32 15L32 17L33 17L33 18L32 18L32 19L33 19L33 18L34 18L34 19L36 19L36 20L37 20L37 19L39 19L39 17L41 17L41 16L42 16L42 17L43 17L43 16L42 16L42 15L43 15L43 14L41 14L41 13L43 13L43 11L42 11L42 10L41 10L41 12L40 12L40 11L39 11L39 12L40 12L40 13L38 13L38 14L39 14L39 15L41 15L41 16L39 16L39 17L38 17L38 18L37 18L37 17L35 17L35 16L33 16L33 15L32 15L32 14L30 14L30 13L31 13L31 11L32 11L32 10L31 10L31 11L30 11L30 10L29 10L29 12L28 12L28 13L27 13L27 15L26 15L26 14L25 14L25 15L26 15L26 16L23 16L23 15L24 15L24 14L23 14L23 13L26 13L26 12L27 12L27 11L26 11L26 12L25 12L25 10ZM37 10L37 11L38 11L38 10ZM13 11L13 12L14 12L14 11ZM15 11L15 13L16 13L16 12L17 12L17 13L18 13L18 12L17 12L17 11ZM49 12L49 13L47 13L47 14L45 14L45 17L46 17L46 16L48 16L48 15L49 15L49 14L50 14L50 12ZM52 12L52 13L53 13L53 12ZM54 12L54 13L55 13L55 14L56 14L56 13L55 13L55 12ZM28 13L28 14L29 14L29 13ZM12 14L12 15L13 15L13 14ZM27 15L27 16L28 16L28 15ZM21 16L21 17L22 17L22 16ZM11 17L11 18L12 18L12 17ZM14 17L14 18L15 18L15 19L16 19L16 18L15 18L15 17ZM0 18L0 19L2 19L2 18ZM30 18L30 19L31 19L31 18ZM41 18L41 20L39 20L39 21L38 21L38 23L37 23L37 24L38 24L38 26L37 26L37 25L33 25L33 24L32 24L32 23L35 23L35 20L32 20L32 21L31 21L31 22L30 22L30 24L32 24L32 26L31 26L31 27L32 27L32 26L33 26L33 27L34 27L34 26L36 26L36 28L37 28L37 27L39 27L39 25L43 25L43 24L38 24L38 23L40 23L40 22L39 22L39 21L43 21L43 20L44 20L44 18L43 18L43 19L42 19L42 18ZM6 19L6 20L7 20L7 19ZM27 19L27 20L28 20L28 19ZM45 19L45 20L46 20L46 19ZM5 21L5 22L7 22L7 21ZM22 21L22 22L21 22L21 23L23 23L23 24L24 24L24 23L23 23L23 22L24 22L24 21ZM13 22L13 23L14 23L14 22ZM19 22L19 23L20 23L20 22ZM41 22L41 23L42 23L42 22ZM55 25L55 26L56 26L56 25ZM53 26L53 27L54 27L54 26ZM5 27L5 30L8 30L8 27ZM27 27L27 30L30 30L30 27ZM41 27L41 28L42 28L42 27ZM49 27L49 30L52 30L52 27ZM55 27L55 28L54 28L54 29L53 29L53 30L55 30L55 29L56 29L56 27ZM0 28L0 29L1 29L1 28ZM6 28L6 29L7 29L7 28ZM21 28L21 29L22 29L22 28ZM25 28L25 29L26 29L26 28ZM28 28L28 29L29 29L29 28ZM50 28L50 29L51 29L51 28ZM13 29L13 30L14 30L14 29ZM40 29L40 30L44 30L44 29ZM38 30L38 32L39 32L39 30ZM6 31L6 32L7 32L7 31ZM25 31L25 32L26 32L26 31ZM30 31L30 32L29 32L29 33L31 33L31 31ZM47 31L47 32L46 32L46 33L47 33L47 32L48 32L48 33L49 33L49 32L48 32L48 31ZM10 32L10 33L11 33L11 34L9 34L9 35L8 35L8 38L10 38L10 36L11 36L11 37L12 37L12 38L11 38L11 39L10 39L10 40L11 40L11 39L12 39L12 38L13 38L13 40L14 40L14 39L15 39L15 41L12 41L12 42L11 42L11 43L13 43L13 44L14 44L14 42L15 42L15 41L16 41L16 39L15 39L15 38L16 38L16 37L12 37L12 36L13 36L13 34L15 34L15 35L14 35L14 36L15 36L15 35L16 35L16 34L15 34L15 33L14 33L14 32L13 32L13 33L12 33L12 32ZM41 32L41 33L39 33L39 34L40 34L40 35L39 35L39 37L40 37L40 38L43 38L43 37L44 37L44 38L45 38L45 37L47 37L47 39L49 39L49 41L48 41L48 42L46 42L46 44L45 44L45 45L47 45L47 43L48 43L48 42L49 42L49 43L50 43L50 44L49 44L49 45L50 45L50 44L51 44L51 43L53 43L53 42L51 42L51 41L53 41L53 40L52 40L52 39L50 39L50 37L51 37L51 36L52 36L52 35L53 35L53 34L52 34L52 35L50 35L50 34L48 34L48 35L46 35L46 34L45 34L45 33L43 33L43 32ZM18 33L18 34L19 34L19 33ZM21 33L21 35L22 35L22 33ZM34 33L34 34L35 34L35 36L32 36L32 37L33 37L33 39L35 39L35 36L37 36L37 34L35 34L35 33ZM11 34L11 36L12 36L12 34ZM42 34L42 35L43 35L43 36L40 36L40 37L43 37L43 36L44 36L44 37L45 37L45 36L44 36L44 35L45 35L45 34ZM48 35L48 36L47 36L47 37L48 37L48 38L49 38L49 37L50 37L50 35ZM17 36L17 40L18 40L18 41L17 41L17 42L18 42L18 41L19 41L19 42L20 42L20 41L19 41L19 40L22 40L22 39L21 39L21 37L19 37L19 36ZM48 36L48 37L49 37L49 36ZM18 37L18 38L19 38L19 39L20 39L20 38L19 38L19 37ZM27 37L27 38L26 38L26 40L27 40L27 41L26 41L26 42L27 42L27 41L29 41L29 40L28 40L28 39L27 39L27 38L28 38L28 37ZM0 38L0 39L1 39L1 38ZM54 38L54 39L55 39L55 38ZM30 40L30 42L29 42L29 43L28 43L28 44L33 44L33 43L34 43L34 42L33 42L33 41L32 41L32 40ZM31 41L31 42L32 42L32 43L33 43L33 42L32 42L32 41ZM1 42L1 43L2 43L2 42ZM50 42L50 43L51 43L51 42ZM23 43L23 44L24 44L24 43ZM13 45L13 46L12 46L12 47L13 47L13 49L12 49L12 50L13 50L13 51L14 51L14 52L15 52L15 53L16 53L16 51L17 51L17 50L15 50L15 48L17 48L17 46L14 46L14 45ZM26 45L26 47L27 47L27 45ZM31 45L31 46L32 46L32 45ZM54 45L54 46L55 46L55 45ZM1 46L1 47L2 47L2 46ZM40 46L40 47L39 47L39 48L38 48L38 49L39 49L39 48L41 48L41 50L42 50L42 51L43 51L43 49L44 49L44 50L46 50L46 52L45 52L45 53L44 53L44 54L45 54L45 53L47 53L47 50L46 50L46 49L47 49L47 48L48 48L48 47L47 47L47 46L45 46L45 47L44 47L44 46L43 46L43 47L42 47L42 48L41 48L41 46ZM14 47L14 48L15 48L15 47ZM43 47L43 48L42 48L42 49L43 49L43 48L44 48L44 49L45 49L45 48L46 48L46 47L45 47L45 48L44 48L44 47ZM13 49L13 50L14 50L14 51L15 51L15 50L14 50L14 49ZM27 49L27 52L30 52L30 49ZM49 49L49 52L52 52L52 49ZM28 50L28 51L29 51L29 50ZM50 50L50 51L51 51L51 50ZM54 50L54 51L55 51L55 50ZM32 51L32 52L33 52L33 51ZM11 52L11 53L12 53L12 55L14 55L14 54L13 54L13 53L12 53L12 52ZM38 52L38 53L39 53L39 52ZM17 54L17 56L18 56L18 54ZM41 54L41 55L42 55L42 54ZM15 55L15 56L16 56L16 55ZM50 55L50 56L51 56L51 55ZM0 0L0 7L7 7L7 0ZM1 1L1 6L6 6L6 1ZM2 2L2 5L5 5L5 2ZM50 0L50 7L57 7L57 0ZM51 1L51 6L56 6L56 1ZM52 2L52 5L55 5L55 2ZM0 50L0 57L7 57L7 50ZM1 51L1 56L6 56L6 51ZM2 52L2 55L5 55L5 52Z" fill="#000000"/></g></g></svg>
