<?xml version="1.0" encoding="UTF-8"?>
<svg xmlns="http://www.w3.org/2000/svg" version="1.1" width="300" height="300" viewBox="0 0 300 300"><rect x="0" y="0" width="300" height="300" fill="#fefefe"/><g transform="scale(4.615)"><g transform="translate(4,4)"><path fill-rule="evenodd" d="M9 0L9 1L8 1L8 2L10 2L10 3L11 3L11 4L9 4L9 3L8 3L8 4L9 4L9 5L8 5L8 7L9 7L9 5L12 5L12 4L14 4L14 2L15 2L15 3L17 3L17 6L16 6L16 7L15 7L15 5L16 5L16 4L15 4L15 5L14 5L14 7L15 7L15 8L16 8L16 9L19 9L19 10L18 10L18 11L17 11L17 12L16 12L16 11L15 11L15 10L14 10L14 8L13 8L13 6L12 6L12 7L11 7L11 6L10 6L10 7L11 7L11 11L10 11L10 10L9 10L9 11L8 11L8 12L6 12L6 11L7 11L7 10L8 10L8 9L9 9L9 8L6 8L6 9L7 9L7 10L5 10L5 8L0 8L0 12L1 12L1 11L3 11L3 9L4 9L4 10L5 10L5 12L6 12L6 13L4 13L4 12L3 12L3 13L4 13L4 14L2 14L2 13L1 13L1 14L2 14L2 15L0 15L0 16L2 16L2 17L0 17L0 19L2 19L2 20L1 20L1 21L0 21L0 22L1 22L1 23L0 23L0 24L1 24L1 25L0 25L0 29L2 29L2 30L3 30L3 31L2 31L2 32L3 32L3 33L4 33L4 32L6 32L6 33L5 33L5 35L7 35L7 34L6 34L6 33L8 33L8 35L9 35L9 36L4 36L4 35L0 35L0 36L1 36L1 38L0 38L0 39L1 39L1 38L3 38L3 36L4 36L4 39L3 39L3 40L0 40L0 42L1 42L1 43L0 43L0 48L5 48L5 47L9 47L9 48L8 48L8 51L9 51L9 49L10 49L10 52L11 52L11 54L13 54L13 57L14 57L14 56L15 56L15 57L16 57L16 56L17 56L17 57L19 57L19 56L18 56L18 55L17 55L17 53L20 53L20 52L21 52L21 51L19 51L19 50L20 50L20 49L19 49L19 48L21 48L21 47L23 47L23 46L24 46L24 47L25 47L25 44L27 44L27 45L26 45L26 47L27 47L27 48L25 48L25 49L24 49L24 48L23 48L23 49L21 49L21 50L25 50L25 51L26 51L26 52L24 52L24 53L21 53L21 54L22 54L22 56L24 56L24 57L26 57L26 56L27 56L27 57L29 57L29 56L30 56L30 57L31 57L31 56L35 56L35 57L39 57L39 56L40 56L40 55L41 55L41 56L42 56L42 55L44 55L44 54L45 54L45 55L46 55L46 54L45 54L45 53L47 53L47 51L46 51L46 50L45 50L45 49L44 49L44 48L43 48L43 47L44 47L44 46L43 46L43 45L44 45L44 44L43 44L43 43L45 43L45 42L44 42L44 41L43 41L43 40L45 40L45 39L46 39L46 41L47 41L47 39L49 39L49 41L48 41L48 42L47 42L47 43L46 43L46 44L45 44L45 45L47 45L47 43L48 43L48 42L49 42L49 43L50 43L50 44L49 44L49 45L50 45L50 44L51 44L51 43L53 43L53 46L51 46L51 48L48 48L48 47L50 47L50 46L48 46L48 47L47 47L47 46L45 46L45 47L47 47L47 48L48 48L48 49L47 49L47 50L48 50L48 54L47 54L47 55L48 55L48 57L49 57L49 56L50 56L50 57L52 57L52 55L51 55L51 53L52 53L52 54L53 54L53 57L54 57L54 56L55 56L55 57L56 57L56 56L55 56L55 53L56 53L56 52L57 52L57 51L56 51L56 50L55 50L55 48L56 48L56 49L57 49L57 48L56 48L56 46L57 46L57 43L56 43L56 42L57 42L57 41L56 41L56 42L55 42L55 39L57 39L57 37L56 37L56 36L57 36L57 35L56 35L56 34L57 34L57 32L56 32L56 30L57 30L57 29L54 29L54 28L57 28L57 27L55 27L55 26L57 26L57 25L56 25L56 22L57 22L57 19L55 19L55 18L57 18L57 17L56 17L56 16L57 16L57 15L56 15L56 14L57 14L57 13L56 13L56 14L55 14L55 13L54 13L54 12L56 12L56 8L55 8L55 10L54 10L54 11L53 11L53 10L52 10L52 11L50 11L50 12L49 12L49 13L47 13L47 14L44 14L44 15L42 15L42 16L41 16L41 14L43 14L43 13L44 13L44 12L43 12L43 13L41 13L41 14L40 14L40 15L39 15L39 14L38 14L38 13L40 13L40 12L41 12L41 11L40 11L40 9L39 9L39 10L38 10L38 8L39 8L39 6L40 6L40 7L41 7L41 6L40 6L40 5L42 5L42 7L43 7L43 6L44 6L44 8L43 8L43 9L41 9L41 10L42 10L42 11L45 11L45 12L47 12L47 10L48 10L48 11L49 11L49 10L50 10L50 8L49 8L49 6L48 6L48 7L47 7L47 5L48 5L48 0L46 0L46 1L47 1L47 2L44 2L44 3L43 3L43 4L40 4L40 5L39 5L39 6L38 6L38 8L35 8L35 5L36 5L36 7L37 7L37 5L38 5L38 2L39 2L39 3L42 3L42 2L43 2L43 0L41 0L41 1L40 1L40 0L39 0L39 1L38 1L38 0L37 0L37 1L38 1L38 2L37 2L37 3L36 3L36 0L35 0L35 1L33 1L33 0L32 0L32 1L31 1L31 0L29 0L29 1L31 1L31 2L28 2L28 3L27 3L27 4L26 4L26 3L23 3L23 2L27 2L27 1L26 1L26 0L23 0L23 2L22 2L22 3L23 3L23 4L19 4L19 3L21 3L21 2L19 2L19 3L17 3L17 2L18 2L18 0L17 0L17 2L16 2L16 1L14 1L14 0L12 0L12 1L14 1L14 2L12 2L12 3L11 3L11 1L10 1L10 0ZM21 0L21 1L22 1L22 0ZM32 1L32 2L31 2L31 3L30 3L30 4L31 4L31 8L32 8L32 10L31 10L31 11L29 11L29 9L27 9L27 10L28 10L28 11L29 11L29 12L28 12L28 13L26 13L26 12L27 12L27 11L26 11L26 12L25 12L25 11L23 11L23 12L25 12L25 14L23 14L23 13L22 13L22 12L20 12L20 11L19 11L19 13L20 13L20 14L21 14L21 13L22 13L22 14L23 14L23 15L19 15L19 17L17 17L17 16L18 16L18 14L17 14L17 13L18 13L18 12L17 12L17 13L16 13L16 12L15 12L15 13L13 13L13 15L12 15L12 16L13 16L13 15L14 15L14 17L13 17L13 18L12 18L12 17L11 17L11 15L10 15L10 16L9 16L9 14L10 14L10 13L12 13L12 12L9 12L9 13L6 13L6 14L4 14L4 16L3 16L3 18L4 18L4 19L5 19L5 18L7 18L7 19L6 19L6 20L5 20L5 21L4 21L4 22L2 22L2 23L1 23L1 24L3 24L3 25L2 25L2 26L1 26L1 28L2 28L2 29L3 29L3 30L4 30L4 28L3 28L3 26L4 26L4 24L3 24L3 23L6 23L6 24L5 24L5 26L8 26L8 25L9 25L9 26L10 26L10 25L11 25L11 28L12 28L12 29L10 29L10 27L9 27L9 30L11 30L11 32L10 32L10 31L8 31L8 33L9 33L9 35L10 35L10 36L12 36L12 37L9 37L9 38L8 38L8 37L6 37L6 38L5 38L5 41L4 41L4 40L3 40L3 42L2 42L2 43L1 43L1 45L2 45L2 46L1 46L1 47L2 47L2 46L3 46L3 47L5 47L5 46L8 46L8 43L9 43L9 42L10 42L10 44L11 44L11 46L12 46L12 47L13 47L13 48L17 48L17 47L18 47L18 46L17 46L17 45L18 45L18 44L17 44L17 45L16 45L16 43L18 43L18 42L19 42L19 43L20 43L20 44L19 44L19 45L20 45L20 47L21 47L21 45L22 45L22 46L23 46L23 45L22 45L22 44L21 44L21 43L22 43L22 42L24 42L24 41L25 41L25 43L24 43L24 44L25 44L25 43L27 43L27 44L28 44L28 45L27 45L27 46L30 46L30 45L31 45L31 48L32 48L32 51L31 51L31 53L30 53L30 54L26 54L26 55L27 55L27 56L29 56L29 55L30 55L30 56L31 56L31 54L32 54L32 53L33 53L33 55L35 55L35 56L36 56L36 54L35 54L35 51L34 51L34 50L36 50L36 52L37 52L37 53L38 53L38 54L37 54L37 56L39 56L39 55L38 55L38 54L40 54L40 53L41 53L41 52L43 52L43 51L42 51L42 50L41 50L41 48L42 48L42 49L43 49L43 50L44 50L44 51L45 51L45 52L44 52L44 53L43 53L43 54L44 54L44 53L45 53L45 52L46 52L46 51L45 51L45 50L44 50L44 49L43 49L43 48L42 48L42 47L43 47L43 46L41 46L41 44L42 44L42 42L40 42L40 41L41 41L41 40L43 40L43 39L45 39L45 38L46 38L46 39L47 39L47 38L49 38L49 39L51 39L51 40L53 40L53 41L51 41L51 42L50 42L50 43L51 43L51 42L53 42L53 43L54 43L54 42L53 42L53 41L54 41L54 40L53 40L53 39L54 39L54 38L53 38L53 35L55 35L55 34L56 34L56 32L55 32L55 34L54 34L54 32L53 32L53 33L52 33L52 32L51 32L51 33L52 33L52 34L50 34L50 32L49 32L49 31L48 31L48 28L47 28L47 29L46 29L46 30L47 30L47 31L45 31L45 32L43 32L43 31L44 31L44 29L45 29L45 28L46 28L46 27L48 27L48 26L47 26L47 25L48 25L48 24L49 24L49 23L50 23L50 24L51 24L51 25L50 25L50 26L51 26L51 25L53 25L53 23L52 23L52 24L51 24L51 23L50 23L50 22L51 22L51 21L53 21L53 22L56 22L56 21L55 21L55 20L53 20L53 19L52 19L52 18L55 18L55 17L53 17L53 15L54 15L54 13L53 13L53 12L52 12L52 13L53 13L53 15L52 15L52 16L51 16L51 15L50 15L50 14L51 14L51 12L50 12L50 14L49 14L49 15L48 15L48 16L46 16L46 15L44 15L44 18L43 18L43 20L44 20L44 23L42 23L42 24L44 24L44 27L43 27L43 26L42 26L42 28L41 28L41 27L40 27L40 26L41 26L41 24L40 24L40 22L39 22L39 21L42 21L42 20L38 20L38 23L37 23L37 24L38 24L38 26L37 26L37 25L33 25L33 24L32 24L32 23L35 23L35 21L34 21L34 20L35 20L35 19L36 19L36 20L37 20L37 19L39 19L39 17L41 17L41 16L39 16L39 15L38 15L38 14L37 14L37 13L36 13L36 14L37 14L37 15L35 15L35 16L33 16L33 15L32 15L32 13L33 13L33 14L35 14L35 12L36 12L36 10L37 10L37 11L38 11L38 10L37 10L37 9L35 9L35 8L34 8L34 9L33 9L33 7L34 7L34 5L35 5L35 2L33 2L33 1ZM32 2L32 3L31 3L31 4L32 4L32 5L33 5L33 4L32 4L32 3L33 3L33 2ZM28 3L28 4L29 4L29 3ZM44 3L44 6L45 6L45 7L46 7L46 5L47 5L47 3ZM23 4L23 5L22 5L22 6L21 6L21 7L22 7L22 6L23 6L23 8L19 8L19 9L20 9L20 10L21 10L21 11L22 11L22 10L24 10L24 9L25 9L25 8L26 8L26 4L25 4L25 8L24 8L24 6L23 6L23 5L24 5L24 4ZM36 4L36 5L37 5L37 4ZM45 4L45 5L46 5L46 4ZM18 5L18 6L17 6L17 7L16 7L16 8L17 8L17 7L18 7L18 6L19 6L19 7L20 7L20 5ZM27 5L27 8L30 8L30 5ZM28 6L28 7L29 7L29 6ZM32 6L32 7L33 7L33 6ZM12 8L12 10L13 10L13 8ZM23 8L23 9L24 9L24 8ZM44 8L44 9L43 9L43 10L44 10L44 9L45 9L45 10L47 10L47 9L48 9L48 8L47 8L47 9L45 9L45 8ZM51 8L51 9L52 9L52 8ZM53 8L53 9L54 9L54 8ZM21 9L21 10L22 10L22 9ZM32 10L32 11L33 11L33 10ZM13 11L13 12L14 12L14 11ZM39 11L39 12L40 12L40 11ZM31 12L31 13L30 13L30 14L29 14L29 13L28 13L28 14L29 14L29 16L28 16L28 15L27 15L27 16L28 16L28 17L27 17L27 18L26 18L26 15L25 15L25 17L22 17L22 16L21 16L21 17L22 17L22 18L21 18L21 20L22 20L22 19L23 19L23 20L24 20L24 21L23 21L23 22L22 22L22 21L21 21L21 23L23 23L23 25L22 25L22 26L20 26L20 25L21 25L21 24L20 24L20 25L19 25L19 24L17 24L17 22L18 22L18 21L20 21L20 19L19 19L19 18L20 18L20 17L19 17L19 18L15 18L15 17L14 17L14 18L15 18L15 21L16 21L16 22L14 22L14 21L13 21L13 22L12 22L12 21L11 21L11 23L10 23L10 22L9 22L9 23L7 23L7 22L6 22L6 23L7 23L7 24L6 24L6 25L7 25L7 24L9 24L9 23L10 23L10 24L13 24L13 26L12 26L12 27L15 27L15 28L14 28L14 29L12 29L12 30L14 30L14 31L15 31L15 32L14 32L14 34L13 34L13 31L12 31L12 34L10 34L10 35L13 35L13 36L14 36L14 37L12 37L12 38L13 38L13 41L10 41L10 40L12 40L12 39L10 39L10 38L9 38L9 39L10 39L10 40L9 40L9 41L10 41L10 42L11 42L11 43L13 43L13 42L14 42L14 44L15 44L15 41L19 41L19 42L20 42L20 41L19 41L19 40L21 40L21 39L24 39L24 40L23 40L23 41L24 41L24 40L25 40L25 36L26 36L26 35L27 35L27 34L26 34L26 35L25 35L25 33L26 33L26 32L27 32L27 31L29 31L29 32L28 32L28 33L29 33L29 34L30 34L30 36L29 36L29 37L31 37L31 38L29 38L29 39L33 39L33 40L35 40L35 42L37 42L37 43L36 43L36 44L35 44L35 43L34 43L34 42L33 42L33 41L32 41L32 40L30 40L30 41L29 41L29 40L28 40L28 39L27 39L27 38L28 38L28 37L26 37L26 40L27 40L27 41L26 41L26 42L27 42L27 43L28 43L28 44L31 44L31 45L32 45L32 47L36 47L36 48L35 48L35 49L36 49L36 50L38 50L38 53L39 53L39 51L40 51L40 52L41 52L41 50L38 50L38 49L39 49L39 48L41 48L41 46L38 46L38 45L40 45L40 44L41 44L41 43L40 43L40 44L39 44L39 42L38 42L38 40L40 40L40 39L38 39L38 37L40 37L40 38L41 38L41 39L42 39L42 38L43 38L43 37L44 37L44 38L45 38L45 37L46 37L46 36L47 36L47 35L44 35L44 33L43 33L43 32L41 32L41 33L39 33L39 34L40 34L40 35L39 35L39 36L38 36L38 33L37 33L37 32L35 32L35 31L36 31L36 29L38 29L38 28L40 28L40 27L36 27L36 26L34 26L34 27L33 27L33 26L32 26L32 24L31 24L31 21L32 21L32 20L33 20L33 19L34 19L34 18L33 18L33 17L32 17L32 16L31 16L31 15L30 15L30 14L31 14L31 13L32 13L32 12ZM33 12L33 13L34 13L34 12ZM15 13L15 14L14 14L14 15L15 15L15 16L16 16L16 13ZM6 14L6 15L7 15L7 16L4 16L4 17L7 17L7 18L8 18L8 19L7 19L7 20L6 20L6 21L7 21L7 20L8 20L8 21L9 21L9 20L12 20L12 19L11 19L11 17L9 17L9 18L8 18L8 15L7 15L7 14ZM49 15L49 16L48 16L48 17L47 17L47 18L46 18L46 17L45 17L45 18L44 18L44 20L48 20L48 21L47 21L47 22L46 22L46 23L45 23L45 25L46 25L46 24L48 24L48 23L49 23L49 21L51 21L51 20L52 20L52 19L51 19L51 18L50 18L50 17L49 17L49 16L50 16L50 15ZM35 16L35 17L37 17L37 18L38 18L38 17L39 17L39 16L38 16L38 17L37 17L37 16ZM42 16L42 17L43 17L43 16ZM31 17L31 18L30 18L30 20L29 20L29 19L28 19L28 18L27 18L27 19L26 19L26 21L27 21L27 24L25 24L25 23L26 23L26 22L25 22L25 21L24 21L24 22L23 22L23 23L24 23L24 24L25 24L25 25L26 25L26 26L25 26L25 27L26 27L26 26L29 26L29 24L30 24L30 23L29 23L29 24L28 24L28 22L29 22L29 21L30 21L30 20L31 20L31 19L33 19L33 18L32 18L32 17ZM23 18L23 19L24 19L24 18ZM41 18L41 19L42 19L42 18ZM45 18L45 19L46 19L46 18ZM48 18L48 19L50 19L50 18ZM8 19L8 20L9 20L9 19ZM13 19L13 20L14 20L14 19ZM27 19L27 20L28 20L28 19ZM2 20L2 21L3 21L3 20ZM16 20L16 21L17 21L17 20ZM13 22L13 24L14 24L14 22ZM19 22L19 23L20 23L20 22ZM15 23L15 25L14 25L14 26L18 26L18 27L17 27L17 28L18 28L18 29L16 29L16 28L15 28L15 29L14 29L14 30L15 30L15 29L16 29L16 30L17 30L17 32L16 32L16 33L15 33L15 34L14 34L14 35L15 35L15 37L16 37L16 38L15 38L15 39L14 39L14 41L15 41L15 39L16 39L16 40L18 40L18 39L17 39L17 37L18 37L18 38L19 38L19 39L20 39L20 38L19 38L19 37L21 37L21 38L24 38L24 37L23 37L23 36L24 36L24 34L23 34L23 33L25 33L25 32L26 32L26 31L24 31L24 30L23 30L23 26L22 26L22 27L20 27L20 26L19 26L19 25L17 25L17 24L16 24L16 23ZM38 23L38 24L39 24L39 25L40 25L40 24L39 24L39 23ZM27 24L27 25L28 25L28 24ZM31 26L31 27L32 27L32 29L31 29L31 31L30 31L30 32L29 32L29 33L31 33L31 34L32 34L32 35L35 35L35 36L37 36L37 34L35 34L35 32L34 32L34 31L32 31L32 29L33 29L33 30L35 30L35 28L33 28L33 27L32 27L32 26ZM45 26L45 27L44 27L44 28L43 28L43 29L39 29L39 30L38 30L38 32L39 32L39 31L40 31L40 30L43 30L43 29L44 29L44 28L45 28L45 27L46 27L46 26ZM53 26L53 27L54 27L54 26ZM5 27L5 30L8 30L8 27ZM27 27L27 30L30 30L30 27ZM49 27L49 30L52 30L52 27ZM6 28L6 29L7 29L7 28ZM19 28L19 29L18 29L18 30L19 30L19 29L22 29L22 28ZM25 28L25 29L26 29L26 28ZM28 28L28 29L29 29L29 28ZM50 28L50 29L51 29L51 28ZM20 30L20 32L19 32L19 31L18 31L18 32L17 32L17 33L19 33L19 34L18 34L18 37L19 37L19 34L20 34L20 36L21 36L21 34L22 34L22 36L23 36L23 34L22 34L22 33L21 33L21 34L20 34L20 32L23 32L23 31L21 31L21 30ZM6 31L6 32L7 32L7 31ZM31 31L31 33L32 33L32 34L33 34L33 33L32 33L32 31ZM47 31L47 32L48 32L48 33L49 33L49 32L48 32L48 31ZM0 32L0 33L1 33L1 32ZM45 32L45 33L46 33L46 32ZM15 34L15 35L16 35L16 36L17 36L17 34ZM42 34L42 35L41 35L41 36L40 36L40 37L41 37L41 36L42 36L42 35L43 35L43 36L44 36L44 37L45 37L45 36L44 36L44 35L43 35L43 34ZM48 34L48 35L50 35L50 36L51 36L51 37L49 37L49 38L51 38L51 37L52 37L52 35L53 35L53 34L52 34L52 35L50 35L50 34ZM32 36L32 37L33 37L33 38L34 38L34 39L35 39L35 40L38 40L38 39L35 39L35 37L33 37L33 36ZM6 38L6 39L7 39L7 40L6 40L6 41L5 41L5 44L6 44L6 45L7 45L7 44L6 44L6 43L7 43L7 42L8 42L8 38ZM52 38L52 39L53 39L53 38ZM6 41L6 42L7 42L7 41ZM21 41L21 42L22 42L22 41ZM27 41L27 42L29 42L29 41ZM30 41L30 42L32 42L32 43L31 43L31 44L32 44L32 45L33 45L33 46L35 46L35 45L34 45L34 43L33 43L33 42L32 42L32 41ZM3 42L3 44L2 44L2 45L3 45L3 46L5 46L5 45L3 45L3 44L4 44L4 42ZM32 43L32 44L33 44L33 43ZM55 43L55 44L54 44L54 45L55 45L55 46L54 46L54 47L55 47L55 46L56 46L56 43ZM12 45L12 46L13 46L13 47L16 47L16 46L13 46L13 45ZM9 46L9 47L10 47L10 48L11 48L11 49L12 49L12 50L11 50L11 51L13 51L13 52L12 52L12 53L15 53L15 54L14 54L14 55L15 55L15 56L16 56L16 55L15 55L15 54L16 54L16 53L17 53L17 52L19 52L19 51L18 51L18 50L19 50L19 49L15 49L15 50L16 50L16 51L13 51L13 49L12 49L12 48L11 48L11 47L10 47L10 46ZM36 46L36 47L37 47L37 46ZM29 47L29 48L30 48L30 47ZM38 47L38 48L37 48L37 49L38 49L38 48L39 48L39 47ZM6 48L6 49L7 49L7 48ZM27 49L27 52L30 52L30 49ZM33 49L33 50L34 50L34 49ZM49 49L49 52L52 52L52 49ZM28 50L28 51L29 51L29 50ZM50 50L50 51L51 51L51 50ZM54 50L54 51L55 51L55 52L56 52L56 51L55 51L55 50ZM22 51L22 52L23 52L23 51ZM32 51L32 52L33 52L33 53L34 53L34 52L33 52L33 51ZM8 52L8 57L9 57L9 56L10 56L10 57L11 57L11 55L10 55L10 53L9 53L9 52ZM15 52L15 53L16 53L16 52ZM53 52L53 53L54 53L54 52ZM24 53L24 54L23 54L23 55L24 55L24 56L25 56L25 53ZM19 54L19 55L20 55L20 54ZM50 55L50 56L51 56L51 55ZM43 56L43 57L44 57L44 56ZM45 56L45 57L46 57L46 56ZM0 0L0 7L7 7L7 0ZM1 1L1 6L6 6L6 1ZM2 2L2 5L5 5L5 2ZM50 0L50 7L57 7L57 0ZM51 1L51 6L56 6L56 1ZM52 2L52 5L55 5L55 2ZM0 50L0 57L7 57L7 50ZM1 51L1 56L6 56L6 51ZM2 52L2 55L5 55L5 52Z" fill="#000000"/></g></g></svg>
