<?xml version="1.0" encoding="UTF-8"?>
<svg xmlns="http://www.w3.org/2000/svg" version="1.1" width="300" height="300" viewBox="0 0 300 300"><rect x="0" y="0" width="300" height="300" fill="#fefefe"/><g transform="scale(4.615)"><g transform="translate(4,4)"><path fill-rule="evenodd" d="M9 0L9 1L8 1L8 2L9 2L9 3L8 3L8 4L10 4L10 8L6 8L6 9L5 9L5 8L0 8L0 9L1 9L1 10L0 10L0 12L2 12L2 15L1 15L1 13L0 13L0 16L1 16L1 17L4 17L4 18L1 18L1 19L2 19L2 20L3 20L3 21L2 21L2 22L3 22L3 25L4 25L4 26L1 26L1 24L2 24L2 23L1 23L1 22L0 22L0 26L1 26L1 29L3 29L3 28L2 28L2 27L4 27L4 31L3 31L3 30L1 30L1 31L2 31L2 33L3 33L3 34L1 34L1 32L0 32L0 34L1 34L1 35L3 35L3 36L2 36L2 37L5 37L5 38L1 38L1 37L0 37L0 38L1 38L1 39L2 39L2 40L3 40L3 43L2 43L2 44L1 44L1 43L0 43L0 44L1 44L1 46L0 46L0 48L5 48L5 47L7 47L7 48L6 48L6 49L8 49L8 51L10 51L10 52L8 52L8 57L9 57L9 56L10 56L10 57L11 57L11 56L12 56L12 57L13 57L13 56L12 56L12 54L13 54L13 55L14 55L14 56L15 56L15 57L16 57L16 56L17 56L17 57L19 57L19 55L20 55L20 54L19 54L19 53L20 53L20 52L21 52L21 50L22 50L22 51L23 51L23 50L25 50L25 49L26 49L26 52L24 52L24 53L23 53L23 54L21 54L21 56L20 56L20 57L21 57L21 56L24 56L24 57L26 57L26 55L27 55L27 54L30 54L30 53L31 53L31 50L32 50L32 52L33 52L33 53L32 53L32 54L31 54L31 56L30 56L30 55L29 55L29 56L27 56L27 57L29 57L29 56L30 56L30 57L31 57L31 56L35 56L35 57L39 57L39 56L37 56L37 55L41 55L41 54L42 54L42 55L43 55L43 56L41 56L41 57L44 57L44 54L45 54L45 57L47 57L47 56L46 56L46 54L45 54L45 53L44 53L44 52L45 52L45 51L44 51L44 50L45 50L45 49L47 49L47 50L48 50L48 54L47 54L47 55L48 55L48 56L50 56L50 57L52 57L52 55L51 55L51 53L52 53L52 54L53 54L53 55L54 55L54 56L53 56L53 57L54 57L54 56L55 56L55 57L56 57L56 56L55 56L55 54L54 54L54 53L57 53L57 51L56 51L56 49L57 49L57 48L56 48L56 46L57 46L57 45L56 45L56 46L55 46L55 45L54 45L54 44L55 44L55 43L56 43L56 44L57 44L57 43L56 43L56 41L55 41L55 39L57 39L57 37L56 37L56 36L55 36L55 35L56 35L56 34L57 34L57 32L56 32L56 30L57 30L57 29L56 29L56 28L57 28L57 27L56 27L56 26L57 26L57 25L56 25L56 22L57 22L57 21L56 21L56 22L55 22L55 23L53 23L53 22L54 22L54 21L51 21L51 20L52 20L52 19L53 19L53 20L57 20L57 19L55 19L55 18L57 18L57 17L56 17L56 16L57 16L57 15L56 15L56 14L57 14L57 11L56 11L56 10L54 10L54 11L53 11L53 9L54 9L54 8L53 8L53 9L52 9L52 8L51 8L51 11L50 11L50 12L49 12L49 10L50 10L50 8L49 8L49 6L48 6L48 7L47 7L47 5L48 5L48 0L46 0L46 1L47 1L47 2L44 2L44 3L42 3L42 2L43 2L43 0L41 0L41 1L40 1L40 0L39 0L39 1L38 1L38 0L37 0L37 1L38 1L38 3L41 3L41 4L40 4L40 5L39 5L39 6L38 6L38 7L37 7L37 5L38 5L38 4L37 4L37 3L36 3L36 0L35 0L35 1L32 1L32 3L30 3L30 2L29 2L29 1L31 1L31 0L27 0L27 1L26 1L26 0L23 0L23 1L22 1L22 0L21 0L21 1L19 1L19 2L18 2L18 0L17 0L17 3L18 3L18 4L17 4L17 5L18 5L18 4L19 4L19 5L20 5L20 7L19 7L19 6L18 6L18 7L19 7L19 8L16 8L16 7L17 7L17 6L16 6L16 7L15 7L15 5L16 5L16 4L15 4L15 5L14 5L14 7L13 7L13 5L12 5L12 4L14 4L14 2L15 2L15 3L16 3L16 1L14 1L14 2L13 2L13 3L12 3L12 4L10 4L10 3L11 3L11 2L12 2L12 1L11 1L11 2L10 2L10 0ZM25 1L25 2L22 2L22 3L21 3L21 2L19 2L19 4L21 4L21 5L22 5L22 6L21 6L21 7L22 7L22 6L23 6L23 8L20 8L20 10L19 10L19 9L15 9L15 7L14 7L14 9L12 9L12 10L17 10L17 11L18 11L18 10L19 10L19 11L20 11L20 12L19 12L19 13L20 13L20 14L19 14L19 15L20 15L20 18L19 18L19 20L20 20L20 21L18 21L18 17L16 17L16 16L18 16L18 14L17 14L17 13L18 13L18 12L17 12L17 13L16 13L16 11L15 11L15 13L13 13L13 12L14 12L14 11L13 11L13 12L12 12L12 11L11 11L11 10L10 10L10 11L11 11L11 12L12 12L12 13L11 13L11 14L12 14L12 16L8 16L8 15L9 15L9 14L10 14L10 12L7 12L7 11L9 11L9 10L7 10L7 9L6 9L6 10L5 10L5 9L4 9L4 10L3 10L3 9L2 9L2 12L4 12L4 13L3 13L3 15L2 15L2 16L4 16L4 17L6 17L6 18L5 18L5 19L4 19L4 20L5 20L5 22L4 22L4 21L3 21L3 22L4 22L4 25L5 25L5 26L9 26L9 25L10 25L10 28L12 28L12 29L9 29L9 31L10 31L10 32L11 32L11 34L8 34L8 31L6 31L6 32L5 32L5 31L4 31L4 32L5 32L5 33L6 33L6 34L5 34L5 35L4 35L4 34L3 34L3 35L4 35L4 36L5 36L5 37L6 37L6 38L8 38L8 37L9 37L9 38L10 38L10 37L9 37L9 36L11 36L11 35L12 35L12 34L13 34L13 35L15 35L15 37L16 37L16 38L15 38L15 39L16 39L16 40L12 40L12 39L13 39L13 37L11 37L11 38L12 38L12 39L6 39L6 40L5 40L5 41L4 41L4 42L7 42L7 43L5 43L5 44L4 44L4 43L3 43L3 44L4 44L4 45L3 45L3 47L5 47L5 46L4 46L4 45L5 45L5 44L7 44L7 43L8 43L8 42L10 42L10 41L11 41L11 40L12 40L12 41L13 41L13 42L14 42L14 43L13 43L13 45L12 45L12 44L11 44L11 43L12 43L12 42L11 42L11 43L10 43L10 44L11 44L11 45L10 45L10 46L9 46L9 45L8 45L8 46L7 46L7 45L6 45L6 46L7 46L7 47L8 47L8 46L9 46L9 50L10 50L10 49L11 49L11 48L13 48L13 49L14 49L14 51L13 51L13 53L14 53L14 51L15 51L15 52L16 52L16 53L15 53L15 54L14 54L14 55L15 55L15 56L16 56L16 55L15 55L15 54L16 54L16 53L17 53L17 52L18 52L18 51L17 51L17 50L18 50L18 49L17 49L17 48L16 48L16 49L15 49L15 48L13 48L13 47L15 47L15 46L17 46L17 47L19 47L19 49L20 49L20 50L21 50L21 49L23 49L23 47L24 47L24 49L25 49L25 47L26 47L26 48L27 48L27 47L26 47L26 45L27 45L27 46L29 46L29 45L27 45L27 44L25 44L25 43L29 43L29 41L27 41L27 39L28 39L28 40L32 40L32 41L31 41L31 42L32 42L32 43L33 43L33 44L30 44L30 45L33 45L33 46L32 46L32 47L33 47L33 48L31 48L31 49L33 49L33 50L36 50L36 52L37 52L37 51L38 51L38 54L40 54L40 53L41 53L41 52L40 52L40 51L38 51L38 50L41 50L41 51L42 51L42 50L41 50L41 48L42 48L42 49L43 49L43 48L44 48L44 49L45 49L45 48L46 48L46 47L45 47L45 46L47 46L47 45L48 45L48 46L49 46L49 45L50 45L50 47L48 47L48 48L47 48L47 49L48 49L48 48L53 48L53 49L54 49L54 48L53 48L53 47L55 47L55 46L54 46L54 45L53 45L53 43L54 43L54 42L53 42L53 41L54 41L54 40L53 40L53 39L54 39L54 38L53 38L53 35L55 35L55 34L56 34L56 32L54 32L54 31L55 31L55 28L56 28L56 27L55 27L55 28L54 28L54 29L53 29L53 30L54 30L54 31L51 31L51 33L52 33L52 34L50 34L50 32L49 32L49 31L48 31L48 30L47 30L47 29L48 29L48 27L47 27L47 26L48 26L48 25L49 25L49 26L53 26L53 27L54 27L54 26L53 26L53 23L50 23L50 22L51 22L51 21L49 21L49 22L47 22L47 21L45 21L45 20L49 20L49 19L51 19L51 17L53 17L53 18L55 18L55 17L54 17L54 16L53 16L53 15L52 15L52 16L51 16L51 15L50 15L50 14L51 14L51 12L50 12L50 14L49 14L49 15L48 15L48 16L46 16L46 17L45 17L45 14L47 14L47 13L49 13L49 12L48 12L48 11L47 11L47 12L45 12L45 11L46 11L46 10L47 10L47 9L49 9L49 8L47 8L47 9L46 9L46 8L44 8L44 10L45 10L45 11L42 11L42 10L41 10L41 9L43 9L43 7L44 7L44 6L45 6L45 7L46 7L46 5L47 5L47 3L44 3L44 6L43 6L43 5L42 5L42 4L41 4L41 5L40 5L40 6L39 6L39 7L40 7L40 8L38 8L38 10L37 10L37 9L35 9L35 8L37 8L37 7L36 7L36 5L37 5L37 4L36 4L36 5L35 5L35 4L34 4L34 3L35 3L35 2L34 2L34 3L32 3L32 4L31 4L31 8L32 8L32 10L31 10L31 11L29 11L29 10L28 10L28 11L29 11L29 12L28 12L28 13L26 13L26 12L27 12L27 11L26 11L26 12L25 12L25 10L24 10L24 9L25 9L25 8L26 8L26 4L29 4L29 2L26 2L26 1ZM23 3L23 4L24 4L24 5L23 5L23 6L24 6L24 8L23 8L23 9L24 9L24 8L25 8L25 4L26 4L26 3ZM32 4L32 5L34 5L34 7L33 7L33 6L32 6L32 7L33 7L33 9L34 9L34 8L35 8L35 5L34 5L34 4ZM45 4L45 5L46 5L46 4ZM8 5L8 7L9 7L9 5ZM11 5L11 7L12 7L12 5ZM27 5L27 8L30 8L30 5ZM41 5L41 6L40 6L40 7L41 7L41 6L42 6L42 7L43 7L43 6L42 6L42 5ZM28 6L28 7L29 7L29 6ZM10 8L10 9L11 9L11 8ZM55 8L55 9L56 9L56 8ZM39 9L39 10L40 10L40 11L37 11L37 10L36 10L36 11L37 11L37 12L35 12L35 13L36 13L36 14L33 14L33 13L34 13L34 12L33 12L33 10L32 10L32 12L31 12L31 13L30 13L30 14L29 14L29 13L28 13L28 14L29 14L29 16L28 16L28 15L27 15L27 16L28 16L28 17L26 17L26 15L25 15L25 12L24 12L24 11L23 11L23 10L22 10L22 11L21 11L21 12L22 12L22 13L21 13L21 14L20 14L20 15L23 15L23 16L25 16L25 17L22 17L22 16L21 16L21 17L22 17L22 18L21 18L21 19L23 19L23 20L24 20L24 21L22 21L22 20L21 20L21 21L22 21L22 22L21 22L21 23L23 23L23 24L24 24L24 25L22 25L22 24L17 24L17 22L18 22L18 21L16 21L16 20L15 20L15 21L16 21L16 22L14 22L14 21L13 21L13 20L14 20L14 19L13 19L13 18L15 18L15 19L17 19L17 18L16 18L16 17L13 17L13 18L12 18L12 19L11 19L11 20L10 20L10 21L9 21L9 22L8 22L8 20L6 20L6 21L7 21L7 22L6 22L6 23L5 23L5 24L6 24L6 25L7 25L7 24L8 24L8 25L9 25L9 24L10 24L10 25L11 25L11 27L12 27L12 28L13 28L13 27L14 27L14 28L15 28L15 26L14 26L14 25L16 25L16 24L17 24L17 26L16 26L16 27L18 27L18 26L19 26L19 27L22 27L22 26L24 26L24 27L23 27L23 30L25 30L25 31L26 31L26 32L25 32L25 33L23 33L23 34L24 34L24 36L23 36L23 35L22 35L22 33L21 33L21 32L24 32L24 31L20 31L20 28L19 28L19 29L18 29L18 28L16 28L16 29L14 29L14 31L12 31L12 33L14 33L14 34L15 34L15 35L17 35L17 37L18 37L18 39L19 39L19 40L17 40L17 41L19 41L19 42L18 42L18 43L16 43L16 45L17 45L17 46L19 46L19 47L23 47L23 46L25 46L25 44L24 44L24 45L23 45L23 42L25 42L25 41L23 41L23 42L22 42L22 43L21 43L21 42L20 42L20 41L21 41L21 40L23 40L23 39L24 39L24 40L25 40L25 39L27 39L27 38L28 38L28 37L27 37L27 36L26 36L26 35L27 35L27 34L25 34L25 33L27 33L27 31L28 31L28 33L29 33L29 34L30 34L30 36L29 36L29 37L31 37L31 38L29 38L29 39L33 39L33 40L35 40L35 42L37 42L37 43L36 43L36 44L35 44L35 43L34 43L34 42L33 42L33 41L32 41L32 42L33 42L33 43L34 43L34 45L35 45L35 46L33 46L33 47L36 47L36 48L34 48L34 49L36 49L36 50L38 50L38 49L39 49L39 48L41 48L41 46L43 46L43 47L42 47L42 48L43 48L43 47L44 47L44 48L45 48L45 47L44 47L44 46L43 46L43 45L44 45L44 44L43 44L43 41L44 41L44 43L45 43L45 42L46 42L46 44L45 44L45 45L47 45L47 43L48 43L48 42L49 42L49 43L50 43L50 44L51 44L51 43L53 43L53 42L51 42L51 41L53 41L53 40L51 40L51 39L50 39L50 37L51 37L51 36L52 36L52 35L53 35L53 34L52 34L52 35L50 35L50 34L49 34L49 35L50 35L50 37L49 37L49 36L48 36L48 35L46 35L46 34L45 34L45 33L43 33L43 32L46 32L46 33L47 33L47 32L48 32L48 33L49 33L49 32L48 32L48 31L47 31L47 30L46 30L46 29L47 29L47 27L46 27L46 26L44 26L44 27L43 27L43 28L45 28L45 30L44 30L44 29L39 29L39 30L38 30L38 32L39 32L39 31L41 31L41 30L44 30L44 31L43 31L43 32L41 32L41 33L39 33L39 34L40 34L40 35L39 35L39 37L40 37L40 38L41 38L41 39L42 39L42 40L43 40L43 41L41 41L41 43L39 43L39 42L40 42L40 41L39 41L39 42L38 42L38 40L39 40L39 39L38 39L38 40L35 40L35 39L37 39L37 38L38 38L38 37L37 37L37 36L38 36L38 33L37 33L37 32L35 32L35 34L37 34L37 36L35 36L35 35L34 35L34 34L33 34L33 35L32 35L32 34L31 34L31 33L32 33L32 32L31 32L31 33L29 33L29 31L31 31L31 29L32 29L32 28L31 28L31 26L32 26L32 27L33 27L33 28L35 28L35 29L38 29L38 28L42 28L42 26L43 26L43 25L44 25L44 24L42 24L42 23L44 23L44 20L45 20L45 18L44 18L44 14L43 14L43 13L44 13L44 12L43 12L43 13L41 13L41 14L40 14L40 13L39 13L39 12L41 12L41 10L40 10L40 9ZM45 9L45 10L46 10L46 9ZM6 10L6 11L7 11L7 10ZM6 12L6 13L7 13L7 12ZM32 12L32 13L31 13L31 14L30 14L30 15L31 15L31 16L32 16L32 17L33 17L33 19L34 19L34 20L32 20L32 21L31 21L31 22L30 22L30 23L27 23L27 24L25 24L25 23L26 23L26 22L25 22L25 21L30 21L30 20L31 20L31 18L30 18L30 19L28 19L28 18L26 18L26 20L25 20L25 21L24 21L24 22L23 22L23 23L24 23L24 24L25 24L25 25L26 25L26 26L25 26L25 27L24 27L24 28L25 28L25 29L26 29L26 28L25 28L25 27L26 27L26 26L29 26L29 25L31 25L31 24L32 24L32 26L33 26L33 27L34 27L34 26L36 26L36 27L35 27L35 28L36 28L36 27L39 27L39 25L41 25L41 26L42 26L42 25L41 25L41 24L39 24L39 23L40 23L40 22L39 22L39 21L43 21L43 20L44 20L44 18L43 18L43 20L42 20L42 18L41 18L41 20L39 20L39 21L38 21L38 20L37 20L37 19L39 19L39 17L41 17L41 16L42 16L42 17L43 17L43 16L42 16L42 15L43 15L43 14L41 14L41 16L39 16L39 15L38 15L38 14L39 14L39 13L38 13L38 14L37 14L37 15L35 15L35 16L33 16L33 15L31 15L31 14L32 14L32 13L33 13L33 12ZM52 12L52 13L53 13L53 14L54 14L54 15L55 15L55 14L56 14L56 12L54 12L54 13L53 13L53 12ZM12 13L12 14L13 14L13 15L14 15L14 16L16 16L16 13L15 13L15 14L13 14L13 13ZM22 13L22 14L23 14L23 13ZM54 13L54 14L55 14L55 13ZM4 14L4 16L6 16L6 17L7 17L7 16L6 16L6 15L7 15L7 14L6 14L6 15L5 15L5 14ZM49 15L49 16L50 16L50 15ZM35 16L35 17L37 17L37 18L38 18L38 17L39 17L39 16L38 16L38 17L37 17L37 16ZM8 17L8 19L10 19L10 18L11 18L11 17L10 17L10 18L9 18L9 17ZM47 17L47 18L50 18L50 17ZM6 18L6 19L7 19L7 18ZM23 18L23 19L24 19L24 18ZM12 19L12 20L11 20L11 21L10 21L10 22L9 22L9 23L8 23L8 22L7 22L7 23L6 23L6 24L7 24L7 23L8 23L8 24L9 24L9 23L10 23L10 24L11 24L11 23L10 23L10 22L11 22L11 21L12 21L12 24L13 24L13 25L12 25L12 27L13 27L13 25L14 25L14 24L16 24L16 23L14 23L14 24L13 24L13 21L12 21L12 20L13 20L13 19ZM27 19L27 20L28 20L28 19ZM35 19L35 23L32 23L32 24L33 24L33 25L37 25L37 26L38 26L38 25L39 25L39 24L37 24L37 22L38 22L38 21L37 21L37 20L36 20L36 19ZM0 20L0 21L1 21L1 20ZM19 22L19 23L20 23L20 22ZM41 22L41 23L42 23L42 22ZM45 22L45 24L46 24L46 25L48 25L48 23L47 23L47 22ZM46 23L46 24L47 24L47 23ZM49 23L49 25L51 25L51 24L50 24L50 23ZM19 25L19 26L22 26L22 25ZM55 25L55 26L56 26L56 25ZM5 27L5 30L8 30L8 27ZM27 27L27 30L30 30L30 27ZM45 27L45 28L46 28L46 27ZM49 27L49 30L52 30L52 27ZM6 28L6 29L7 29L7 28ZM21 28L21 29L22 29L22 28ZM28 28L28 29L29 29L29 28ZM50 28L50 29L51 29L51 28ZM12 29L12 30L13 30L13 29ZM16 29L16 30L17 30L17 32L15 32L15 34L17 34L17 35L19 35L19 37L22 37L22 39L23 39L23 38L24 38L24 37L23 37L23 36L21 36L21 35L19 35L19 34L21 34L21 33L19 33L19 34L17 34L17 32L20 32L20 31L19 31L19 30L18 30L18 29ZM10 30L10 31L11 31L11 30ZM33 30L33 31L36 31L36 30ZM46 31L46 32L47 32L47 31ZM6 32L6 33L7 33L7 32ZM52 32L52 33L54 33L54 34L55 34L55 33L54 33L54 32ZM6 34L6 35L7 35L7 36L6 36L6 37L7 37L7 36L9 36L9 35L7 35L7 34ZM42 34L42 35L41 35L41 36L40 36L40 37L41 37L41 36L44 36L44 37L43 37L43 38L42 38L42 39L43 39L43 40L44 40L44 41L46 41L46 42L48 42L48 41L49 41L49 39L47 39L47 37L48 37L48 38L49 38L49 37L48 37L48 36L46 36L46 37L45 37L45 36L44 36L44 35L45 35L45 34ZM25 36L25 38L26 38L26 36ZM32 36L32 37L33 37L33 39L35 39L35 37L33 37L33 36ZM44 37L44 38L45 38L45 39L44 39L44 40L45 40L45 39L46 39L46 40L47 40L47 39L46 39L46 38L45 38L45 37ZM19 38L19 39L20 39L20 38ZM6 40L6 41L7 41L7 40ZM19 40L19 41L20 41L20 40ZM1 41L1 42L2 42L2 41ZM14 41L14 42L15 42L15 41ZM26 41L26 42L27 42L27 41ZM19 42L19 44L20 44L20 42ZM50 42L50 43L51 43L51 42ZM41 43L41 44L39 44L39 45L38 45L38 46L39 46L39 47L38 47L38 48L37 48L37 49L38 49L38 48L39 48L39 47L40 47L40 46L39 46L39 45L41 45L41 44L42 44L42 43ZM14 44L14 45L13 45L13 46L14 46L14 45L15 45L15 44ZM17 44L17 45L18 45L18 44ZM21 44L21 45L19 45L19 46L21 46L21 45L22 45L22 46L23 46L23 45L22 45L22 44ZM48 44L48 45L49 45L49 44ZM11 45L11 46L10 46L10 47L12 47L12 45ZM36 45L36 46L37 46L37 45ZM1 46L1 47L2 47L2 46ZM51 46L51 47L53 47L53 46ZM20 48L20 49L21 49L21 48ZM55 48L55 49L56 49L56 48ZM27 49L27 52L30 52L30 49ZM49 49L49 52L52 52L52 49ZM11 50L11 54L12 54L12 50ZM28 50L28 51L29 51L29 50ZM50 50L50 51L51 51L51 50ZM54 50L54 51L55 51L55 52L56 52L56 51L55 51L55 50ZM16 51L16 52L17 52L17 51ZM19 51L19 52L20 52L20 51ZM33 51L33 52L34 52L34 53L33 53L33 54L35 54L35 56L36 56L36 54L35 54L35 51ZM46 51L46 53L47 53L47 51ZM42 52L42 53L43 53L43 54L44 54L44 53L43 53L43 52ZM53 52L53 53L54 53L54 52ZM24 53L24 54L23 54L23 55L24 55L24 56L25 56L25 54L27 54L27 53ZM17 54L17 56L18 56L18 55L19 55L19 54ZM10 55L10 56L11 56L11 55ZM50 55L50 56L51 56L51 55ZM0 0L0 7L7 7L7 0ZM1 1L1 6L6 6L6 1ZM2 2L2 5L5 5L5 2ZM50 0L50 7L57 7L57 0ZM51 1L51 6L56 6L56 1ZM52 2L52 5L55 5L55 2ZM0 50L0 57L7 57L7 50ZM1 51L1 56L6 56L6 51ZM2 52L2 55L5 55L5 52Z" fill="#000000"/></g></g></svg>
