<?xml version="1.0" encoding="UTF-8"?>
<svg xmlns="http://www.w3.org/2000/svg" version="1.1" width="300" height="300" viewBox="0 0 300 300"><rect x="0" y="0" width="300" height="300" fill="#fefefe"/><g transform="scale(4.615)"><g transform="translate(4,4)"><path fill-rule="evenodd" d="M8 0L8 2L9 2L9 4L8 4L8 9L9 9L9 11L11 11L11 5L10 5L10 8L9 8L9 4L10 4L10 3L11 3L11 2L9 2L9 1L12 1L12 2L13 2L13 1L14 1L14 3L12 3L12 4L13 4L13 5L14 5L14 9L15 9L15 10L16 10L16 11L14 11L14 12L16 12L16 11L17 11L17 14L15 14L15 15L13 15L13 9L12 9L12 13L10 13L10 12L9 12L9 13L10 13L10 16L9 16L9 14L8 14L8 17L10 17L10 16L11 16L11 17L13 17L13 16L14 16L14 17L15 17L15 15L17 15L17 16L18 16L18 17L19 17L19 18L18 18L18 21L19 21L19 18L20 18L20 16L21 16L21 19L22 19L22 18L23 18L23 20L22 20L22 21L21 21L21 20L20 20L20 21L21 21L21 22L20 22L20 23L21 23L21 22L22 22L22 26L20 26L20 28L21 28L21 30L20 30L20 29L19 29L19 30L17 30L17 31L16 31L16 30L14 30L14 32L15 32L15 31L16 31L16 32L17 32L17 31L18 31L18 33L17 33L17 34L15 34L15 33L13 33L13 30L12 30L12 29L11 29L11 27L13 27L13 28L14 28L14 29L15 29L15 28L16 28L16 27L15 27L15 26L16 26L16 25L17 25L17 23L18 23L18 25L19 25L19 23L18 23L18 22L17 22L17 20L14 20L14 19L15 19L15 18L13 18L13 19L12 19L12 18L11 18L11 20L12 20L12 21L13 21L13 22L14 22L14 25L13 25L13 26L12 26L12 25L11 25L11 24L13 24L13 23L12 23L12 22L11 22L11 21L10 21L10 20L9 20L9 21L8 21L8 22L10 22L10 23L9 23L9 24L6 24L6 25L7 25L7 26L4 26L4 27L3 27L3 26L2 26L2 23L1 23L1 22L2 22L2 21L4 21L4 22L3 22L3 23L4 23L4 25L5 25L5 19L4 19L4 18L5 18L5 17L4 17L4 18L2 18L2 17L1 17L1 16L0 16L0 18L2 18L2 19L0 19L0 20L2 20L2 21L1 21L1 22L0 22L0 23L1 23L1 26L2 26L2 27L1 27L1 29L0 29L0 32L1 32L1 30L2 30L2 31L3 31L3 29L4 29L4 31L5 31L5 32L6 32L6 33L7 33L7 34L6 34L6 35L9 35L9 34L11 34L11 33L9 33L9 32L8 32L8 31L10 31L10 30L12 30L12 31L11 31L11 32L12 32L12 35L10 35L10 37L7 37L7 36L6 36L6 37L7 37L7 38L6 38L6 39L5 39L5 35L4 35L4 34L3 34L3 33L4 33L4 32L3 32L3 33L0 33L0 36L4 36L4 37L3 37L3 38L4 38L4 40L5 40L5 41L7 41L7 40L6 40L6 39L8 39L8 38L9 38L9 40L10 40L10 41L13 41L13 40L12 40L12 39L11 39L11 40L10 40L10 37L11 37L11 36L12 36L12 38L13 38L13 37L14 37L14 38L15 38L15 37L14 37L14 36L15 36L15 35L17 35L17 36L16 36L16 37L17 37L17 38L16 38L16 39L17 39L17 40L15 40L15 41L14 41L14 43L13 43L13 44L14 44L14 43L15 43L15 44L17 44L17 46L18 46L18 47L16 47L16 45L15 45L15 47L14 47L14 46L13 46L13 47L12 47L12 43L11 43L11 42L9 42L9 41L8 41L8 42L9 42L9 43L8 43L8 46L9 46L9 48L11 48L11 50L10 50L10 49L8 49L8 48L6 48L6 49L8 49L8 50L10 50L10 51L11 51L11 53L10 53L10 52L9 52L9 51L8 51L8 52L9 52L9 53L10 53L10 54L8 54L8 57L9 57L9 56L10 56L10 55L11 55L11 54L14 54L14 55L13 55L13 56L12 56L12 57L17 57L17 56L18 56L18 57L20 57L20 56L19 56L19 54L18 54L18 53L19 53L19 51L20 51L20 53L21 53L21 54L20 54L20 55L21 55L21 56L22 56L22 57L25 57L25 55L24 55L24 54L25 54L25 51L24 51L24 49L23 49L23 48L22 48L22 46L21 46L21 48L20 48L20 44L21 44L21 42L20 42L20 41L21 41L21 39L22 39L22 41L23 41L23 43L22 43L22 44L24 44L24 45L23 45L23 47L24 47L24 48L25 48L25 47L26 47L26 46L27 46L27 47L28 47L28 48L26 48L26 49L25 49L25 50L26 50L26 53L28 53L28 55L27 55L27 54L26 54L26 55L27 55L27 56L26 56L26 57L28 57L28 55L29 55L29 57L33 57L33 55L30 55L30 54L31 54L31 53L32 53L32 54L34 54L34 57L35 57L35 55L37 55L37 54L38 54L38 53L39 53L39 56L40 56L40 57L41 57L41 56L43 56L43 54L42 54L42 53L43 53L43 52L44 52L44 57L48 57L48 55L49 55L49 57L50 57L50 55L49 55L49 54L52 54L52 55L53 55L53 54L54 54L54 55L57 55L57 54L55 54L55 52L57 52L57 50L56 50L56 47L57 47L57 44L56 44L56 47L55 47L55 48L54 48L54 47L53 47L53 48L52 48L52 45L53 45L53 44L54 44L54 43L55 43L55 42L54 42L54 41L57 41L57 40L54 40L54 39L53 39L53 38L54 38L54 37L55 37L55 38L57 38L57 34L56 34L56 31L57 31L57 29L53 29L53 28L54 28L54 27L55 27L55 28L56 28L56 27L57 27L57 24L56 24L56 23L57 23L57 18L56 18L56 23L55 23L55 24L54 24L54 22L55 22L55 21L54 21L54 19L55 19L55 16L56 16L56 17L57 17L57 13L56 13L56 12L57 12L57 10L56 10L56 12L55 12L55 13L56 13L56 15L55 15L55 14L54 14L54 13L53 13L53 12L54 12L54 11L55 11L55 9L57 9L57 8L55 8L55 9L54 9L54 10L53 10L53 8L49 8L49 10L48 10L48 9L47 9L47 8L48 8L48 7L49 7L49 6L48 6L48 7L47 7L47 5L48 5L48 0L42 0L42 1L41 1L41 0L38 0L38 2L37 2L37 1L35 1L35 0L34 0L34 2L33 2L33 0L30 0L30 1L32 1L32 2L31 2L31 3L30 3L30 2L29 2L29 1L28 1L28 0L26 0L26 2L25 2L25 4L24 4L24 1L25 1L25 0L24 0L24 1L23 1L23 0L19 0L19 1L20 1L20 2L18 2L18 1L17 1L17 0L16 0L16 2L15 2L15 0L13 0L13 1L12 1L12 0ZM22 1L22 2L21 2L21 3L18 3L18 4L19 4L19 7L20 7L20 5L21 5L21 9L20 9L20 10L21 10L21 11L18 11L18 12L20 12L20 15L18 15L18 16L20 16L20 15L21 15L21 14L22 14L22 16L24 16L24 18L25 18L25 19L24 19L24 20L25 20L25 19L26 19L26 20L27 20L27 21L28 21L28 20L29 20L29 19L32 19L32 18L33 18L33 20L34 20L34 22L35 22L35 23L36 23L36 24L34 24L34 23L33 23L33 24L34 24L34 26L33 26L33 25L32 25L32 23L31 23L31 22L33 22L33 21L32 21L32 20L30 20L30 23L28 23L28 22L26 22L26 23L28 23L28 24L27 24L27 25L26 25L26 26L27 26L27 25L28 25L28 24L29 24L29 25L30 25L30 26L31 26L31 25L32 25L32 27L31 27L31 31L32 31L32 32L30 32L30 34L31 34L31 35L28 35L28 34L29 34L29 32L28 32L28 31L27 31L27 32L26 32L26 30L25 30L25 28L24 28L24 27L22 27L22 28L24 28L24 30L25 30L25 31L24 31L24 34L26 34L26 35L28 35L28 36L26 36L26 37L24 37L24 36L25 36L25 35L23 35L23 33L22 33L22 30L23 30L23 29L22 29L22 30L21 30L21 31L20 31L20 32L19 32L19 33L18 33L18 36L17 36L17 37L18 37L18 36L19 36L19 33L20 33L20 36L21 36L21 37L22 37L22 39L23 39L23 40L24 40L24 44L25 44L25 42L26 42L26 41L25 41L25 40L26 40L26 39L27 39L27 40L30 40L30 42L29 42L29 41L28 41L28 42L27 42L27 43L28 43L28 42L29 42L29 43L30 43L30 44L28 44L28 47L29 47L29 48L31 48L31 50L32 50L32 51L31 51L31 52L32 52L32 51L34 51L34 52L33 52L33 53L34 53L34 54L35 54L35 53L36 53L36 54L37 54L37 53L38 53L38 51L39 51L39 49L40 49L40 51L41 51L41 53L42 53L42 52L43 52L43 51L41 51L41 49L42 49L42 50L44 50L44 51L45 51L45 49L44 49L44 46L43 46L43 45L44 45L44 44L45 44L45 43L46 43L46 42L47 42L47 43L48 43L48 42L49 42L49 44L50 44L50 45L48 45L48 46L47 46L47 44L46 44L46 50L47 50L47 47L48 47L48 46L49 46L49 47L50 47L50 48L51 48L51 47L50 47L50 46L51 46L51 45L52 45L52 44L53 44L53 39L52 39L52 38L53 38L53 37L54 37L54 36L55 36L55 37L56 37L56 36L55 36L55 35L56 35L56 34L55 34L55 31L56 31L56 30L55 30L55 31L51 31L51 32L50 32L50 31L49 31L49 32L50 32L50 33L49 33L49 34L48 34L48 33L46 33L46 34L45 34L45 36L46 36L46 34L48 34L48 35L47 35L47 36L48 36L48 35L49 35L49 36L50 36L50 38L49 38L49 39L50 39L50 38L51 38L51 39L52 39L52 44L50 44L50 42L49 42L49 41L51 41L51 40L48 40L48 38L47 38L47 37L46 37L46 38L47 38L47 40L46 40L46 42L45 42L45 41L44 41L44 39L43 39L43 38L44 38L44 35L43 35L43 33L42 33L42 31L45 31L45 32L47 32L47 30L48 30L48 26L49 26L49 25L48 25L48 26L47 26L47 25L46 25L46 24L47 24L47 23L48 23L48 22L50 22L50 24L51 24L51 25L50 25L50 26L51 26L51 25L52 25L52 24L53 24L53 25L54 25L54 26L55 26L55 27L56 27L56 26L55 26L55 25L56 25L56 24L55 24L55 25L54 25L54 24L53 24L53 22L52 22L52 20L53 20L53 19L54 19L54 17L52 17L52 15L54 15L54 16L55 16L55 15L54 15L54 14L52 14L52 13L50 13L50 10L51 10L51 12L52 12L52 11L53 11L53 10L51 10L51 9L50 9L50 10L49 10L49 12L48 12L48 11L47 11L47 9L46 9L46 5L47 5L47 3L46 3L46 5L44 5L44 4L45 4L45 2L47 2L47 1L42 1L42 2L40 2L40 1L39 1L39 2L38 2L38 3L37 3L37 2L34 2L34 4L33 4L33 2L32 2L32 5L31 5L31 9L30 9L30 10L29 10L29 12L30 12L30 13L29 13L29 15L28 15L28 14L26 14L26 13L27 13L27 12L28 12L28 11L27 11L27 10L28 10L28 9L27 9L27 10L25 10L25 9L26 9L26 5L24 5L24 6L23 6L23 8L24 8L24 11L26 11L26 13L24 13L24 12L22 12L22 11L23 11L23 9L22 9L22 5L23 5L23 1ZM27 1L27 2L28 2L28 1ZM39 2L39 3L38 3L38 5L39 5L39 4L40 4L40 2ZM43 2L43 4L42 4L42 3L41 3L41 4L42 4L42 7L41 7L41 6L40 6L40 7L41 7L41 8L40 8L40 9L39 9L39 10L38 10L38 8L39 8L39 6L38 6L38 7L37 7L37 6L36 6L36 10L34 10L34 9L35 9L35 4L36 4L36 3L35 3L35 4L34 4L34 5L33 5L33 6L32 6L32 7L33 7L33 6L34 6L34 8L32 8L32 9L31 9L31 10L30 10L30 12L32 12L32 13L31 13L31 14L32 14L32 13L33 13L33 15L34 15L34 17L33 17L33 16L32 16L32 15L31 15L31 16L30 16L30 15L29 15L29 16L30 16L30 17L28 17L28 18L30 18L30 17L31 17L31 16L32 16L32 17L33 17L33 18L34 18L34 20L36 20L36 21L35 21L35 22L36 22L36 23L39 23L39 26L38 26L38 25L37 25L37 24L36 24L36 26L37 26L37 28L36 28L36 27L34 27L34 29L33 29L33 28L32 28L32 29L33 29L33 30L32 30L32 31L34 31L34 32L32 32L32 35L31 35L31 36L30 36L30 40L31 40L31 38L33 38L33 39L34 39L34 41L33 41L33 40L32 40L32 43L31 43L31 42L30 42L30 43L31 43L31 44L30 44L30 45L29 45L29 46L30 46L30 47L31 47L31 48L32 48L32 50L34 50L34 51L35 51L35 52L36 52L36 53L37 53L37 51L38 51L38 47L37 47L37 48L36 48L36 49L37 49L37 51L35 51L35 50L34 50L34 49L35 49L35 48L34 48L34 45L33 45L33 44L35 44L35 43L36 43L36 41L37 41L37 42L38 42L38 41L39 41L39 42L40 42L40 43L37 43L37 44L36 44L36 45L37 45L37 46L38 46L38 45L37 45L37 44L40 44L40 46L39 46L39 47L40 47L40 49L41 49L41 47L42 47L42 45L43 45L43 44L42 44L42 45L41 45L41 44L40 44L40 43L43 43L43 42L42 42L42 41L43 41L43 40L40 40L40 41L39 41L39 38L40 38L40 39L41 39L41 36L42 36L42 37L43 37L43 35L40 35L40 36L38 36L38 35L39 35L39 34L38 34L38 33L39 33L39 32L40 32L40 34L42 34L42 33L41 33L41 32L40 32L40 31L42 31L42 28L44 28L44 29L43 29L43 30L44 30L44 29L46 29L46 28L47 28L47 26L46 26L46 25L45 25L45 24L44 24L44 26L43 26L43 27L41 27L41 28L40 28L40 27L39 27L39 26L40 26L40 25L41 25L41 24L42 24L42 25L43 25L43 22L44 22L44 23L46 23L46 20L45 20L45 19L44 19L44 17L45 17L45 18L46 18L46 19L47 19L47 22L48 22L48 21L49 21L49 20L51 20L51 19L52 19L52 17L51 17L51 15L52 15L52 14L51 14L51 15L50 15L50 13L49 13L49 14L48 14L48 12L47 12L47 11L46 11L46 13L45 13L45 12L44 12L44 13L45 13L45 15L46 15L46 13L47 13L47 14L48 14L48 15L47 15L47 16L44 16L44 14L43 14L43 16L44 16L44 17L43 17L43 18L42 18L42 17L41 17L41 15L42 15L42 12L43 12L43 10L42 10L42 9L43 9L43 6L44 6L44 10L45 10L45 6L44 6L44 5L43 5L43 4L44 4L44 2ZM14 3L14 4L15 4L15 3ZM16 3L16 4L17 4L17 3ZM21 3L21 4L22 4L22 3ZM26 3L26 4L27 4L27 3ZM28 3L28 4L30 4L30 3ZM16 5L16 6L15 6L15 9L16 9L16 10L18 10L18 6L17 6L17 5ZM27 5L27 8L30 8L30 5ZM12 6L12 8L13 8L13 6ZM16 6L16 7L17 7L17 6ZM24 6L24 7L25 7L25 6ZM28 6L28 7L29 7L29 6ZM0 8L0 9L1 9L1 13L3 13L3 14L4 14L4 15L5 15L5 16L6 16L6 17L7 17L7 16L6 16L6 15L7 15L7 14L6 14L6 13L7 13L7 12L8 12L8 10L6 10L6 11L7 11L7 12L5 12L5 14L4 14L4 11L5 11L5 10L4 10L4 11L3 11L3 12L2 12L2 10L3 10L3 8ZM5 8L5 9L7 9L7 8ZM41 8L41 9L42 9L42 8ZM21 9L21 10L22 10L22 9ZM32 9L32 11L34 11L34 12L35 12L35 13L34 13L34 15L35 15L35 17L34 17L34 18L36 18L36 19L37 19L37 18L36 18L36 14L35 14L35 13L36 13L36 12L37 12L37 13L38 13L38 15L37 15L37 16L38 16L38 18L40 18L40 19L39 19L39 20L38 20L38 22L39 22L39 23L41 23L41 22L40 22L40 19L41 19L41 20L42 20L42 22L43 22L43 21L44 21L44 22L45 22L45 21L44 21L44 19L43 19L43 20L42 20L42 19L41 19L41 18L40 18L40 11L39 11L39 12L37 12L37 11L38 11L38 10L37 10L37 11L34 11L34 10L33 10L33 9ZM41 11L41 12L42 12L42 11ZM18 13L18 14L19 14L19 13ZM23 13L23 15L24 15L24 13ZM5 14L5 15L6 15L6 14ZM2 15L2 16L3 16L3 15ZM11 15L11 16L13 16L13 15ZM25 15L25 16L26 16L26 18L27 18L27 16L26 16L26 15ZM49 16L49 17L48 17L48 18L49 18L49 19L48 19L48 20L49 20L49 19L50 19L50 18L51 18L51 17L50 17L50 16ZM46 17L46 18L47 18L47 17ZM49 17L49 18L50 18L50 17ZM6 18L6 19L9 19L9 18ZM16 18L16 19L17 19L17 18ZM2 19L2 20L4 20L4 19ZM6 20L6 21L7 21L7 20ZM14 21L14 22L15 22L15 21ZM22 21L22 22L23 22L23 21ZM36 21L36 22L37 22L37 21ZM6 22L6 23L7 23L7 22ZM16 22L16 23L17 23L17 22ZM24 22L24 23L25 23L25 22ZM51 22L51 23L52 23L52 22ZM30 24L30 25L31 25L31 24ZM8 25L8 26L9 26L9 27L10 27L10 26L11 26L11 25L10 25L10 26L9 26L9 25ZM24 25L24 26L25 26L25 25ZM44 26L44 27L45 27L45 26ZM2 27L2 28L3 28L3 27ZM5 27L5 30L8 30L8 27ZM18 27L18 28L19 28L19 27ZM27 27L27 30L30 30L30 27ZM49 27L49 30L52 30L52 27ZM6 28L6 29L7 29L7 28ZM9 28L9 30L10 30L10 28ZM28 28L28 29L29 29L29 28ZM35 28L35 29L34 29L34 31L35 31L35 32L34 32L34 34L33 34L33 35L34 35L34 34L35 34L35 33L36 33L36 35L35 35L35 36L34 36L34 38L35 38L35 41L34 41L34 42L35 42L35 41L36 41L36 38L37 38L37 41L38 41L38 38L39 38L39 37L38 37L38 38L37 38L37 37L36 37L36 35L38 35L38 34L37 34L37 33L36 33L36 31L37 31L37 32L38 32L38 31L40 31L40 30L39 30L39 29L40 29L40 28L39 28L39 29L38 29L38 28L37 28L37 30L36 30L36 28ZM50 28L50 29L51 29L51 28ZM37 30L37 31L38 31L38 30ZM45 30L45 31L46 31L46 30ZM6 31L6 32L7 32L7 31ZM20 32L20 33L21 33L21 32ZM25 32L25 33L26 33L26 32ZM27 33L27 34L28 34L28 33ZM50 33L50 36L51 36L51 33ZM1 34L1 35L2 35L2 34ZM13 34L13 35L12 35L12 36L13 36L13 35L14 35L14 34ZM21 34L21 35L22 35L22 37L23 37L23 35L22 35L22 34ZM53 34L53 36L52 36L52 37L51 37L51 38L52 38L52 37L53 37L53 36L54 36L54 34ZM28 36L28 37L29 37L29 36ZM31 36L31 37L32 37L32 36ZM0 37L0 40L1 40L1 42L0 42L0 48L5 48L5 47L7 47L7 46L5 46L5 45L7 45L7 44L1 44L1 43L2 43L2 42L3 42L3 40L2 40L2 39L1 39L1 38L2 38L2 37ZM26 37L26 38L24 38L24 39L26 39L26 38L27 38L27 37ZM35 37L35 38L36 38L36 37ZM17 38L17 39L18 39L18 40L17 40L17 41L16 41L16 42L15 42L15 43L16 43L16 42L17 42L17 41L18 41L18 40L19 40L19 39L18 39L18 38ZM20 38L20 39L21 39L21 38ZM28 38L28 39L29 39L29 38ZM47 40L47 41L48 41L48 40ZM4 42L4 43L7 43L7 42ZM19 42L19 43L18 43L18 44L19 44L19 43L20 43L20 42ZM56 42L56 43L57 43L57 42ZM9 44L9 46L11 46L11 45L10 45L10 44ZM18 45L18 46L19 46L19 45ZM24 45L24 47L25 47L25 46L26 46L26 45ZM32 45L32 46L33 46L33 45ZM1 46L1 47L2 47L2 46ZM3 46L3 47L5 47L5 46ZM35 46L35 47L36 47L36 46ZM40 46L40 47L41 47L41 46ZM11 47L11 48L12 48L12 50L13 50L13 51L12 51L12 52L13 52L13 53L14 53L14 54L15 54L15 53L14 53L14 52L13 52L13 51L14 51L14 50L13 50L13 48L14 48L14 47L13 47L13 48L12 48L12 47ZM15 47L15 50L17 50L17 51L16 51L16 52L17 52L17 53L18 53L18 52L17 52L17 51L18 51L18 50L19 50L19 49L20 49L20 51L22 51L22 48L21 48L21 49L20 49L20 48L19 48L19 49L18 49L18 48L16 48L16 47ZM32 47L32 48L33 48L33 49L34 49L34 48L33 48L33 47ZM53 48L53 49L54 49L54 50L53 50L53 51L54 51L54 52L55 52L55 51L56 51L56 50L55 50L55 49L54 49L54 48ZM17 49L17 50L18 50L18 49ZM27 49L27 52L30 52L30 49ZM49 49L49 52L52 52L52 49ZM28 50L28 51L29 51L29 50ZM50 50L50 51L51 51L51 50ZM23 51L23 52L24 52L24 51ZM47 51L47 52L45 52L45 53L46 53L46 54L45 54L45 55L46 55L46 56L47 56L47 55L48 55L48 54L49 54L49 53L47 53L47 52L48 52L48 51ZM21 52L21 53L22 53L22 54L21 54L21 55L22 55L22 56L23 56L23 53L22 53L22 52ZM39 52L39 53L40 53L40 52ZM16 54L16 55L18 55L18 54ZM40 54L40 56L41 56L41 55L42 55L42 54ZM46 54L46 55L47 55L47 54ZM14 55L14 56L15 56L15 55ZM36 56L36 57L37 57L37 56ZM51 56L51 57L53 57L53 56ZM56 56L56 57L57 57L57 56ZM0 0L0 7L7 7L7 0ZM1 1L1 6L6 6L6 1ZM2 2L2 5L5 5L5 2ZM50 0L50 7L57 7L57 0ZM51 1L51 6L56 6L56 1ZM52 2L52 5L55 5L55 2ZM0 50L0 57L7 57L7 50ZM1 51L1 56L6 56L6 51ZM2 52L2 55L5 55L5 52Z" fill="#000000"/></g></g></svg>
