<?xml version="1.0" encoding="UTF-8"?>
<svg xmlns="http://www.w3.org/2000/svg" version="1.1" width="300" height="300" viewBox="0 0 300 300"><rect x="0" y="0" width="300" height="300" fill="#fefefe"/><g transform="scale(4.615)"><g transform="translate(4,4)"><path fill-rule="evenodd" d="M8 0L8 1L11 1L11 0ZM12 0L12 2L13 2L13 1L14 1L14 0ZM17 0L17 1L16 1L16 2L15 2L15 3L17 3L17 4L18 4L18 7L17 7L17 5L15 5L15 4L14 4L14 3L11 3L11 2L8 2L8 5L9 5L9 6L8 6L8 7L9 7L9 8L8 8L8 10L5 10L5 14L6 14L6 15L5 15L5 16L3 16L3 18L4 18L4 17L5 17L5 18L6 18L6 19L7 19L7 20L6 20L6 21L4 21L4 19L3 19L3 21L4 21L4 22L5 22L5 23L3 23L3 22L2 22L2 23L1 23L1 21L2 21L2 20L1 20L1 19L2 19L2 18L1 18L1 19L0 19L0 23L1 23L1 24L0 24L0 26L3 26L3 25L4 25L4 27L1 27L1 30L2 30L2 28L3 28L3 32L2 32L2 31L0 31L0 33L1 33L1 32L2 32L2 33L3 33L3 34L5 34L5 33L7 33L7 34L6 34L6 35L5 35L5 36L6 36L6 37L3 37L3 36L4 36L4 35L2 35L2 34L0 34L0 35L1 35L1 36L0 36L0 37L3 37L3 38L4 38L4 40L5 40L5 42L6 42L6 43L4 43L4 44L5 44L5 47L3 47L3 46L2 46L2 45L3 45L3 44L2 44L2 43L3 43L3 39L1 39L1 38L0 38L0 39L1 39L1 41L2 41L2 43L1 43L1 44L2 44L2 45L0 45L0 48L5 48L5 47L7 47L7 48L6 48L6 49L8 49L8 50L9 50L9 49L11 49L11 50L12 50L12 49L13 49L13 48L14 48L14 49L15 49L15 48L16 48L16 49L17 49L17 50L18 50L18 49L19 49L19 53L18 53L18 55L17 55L17 54L16 54L16 53L15 53L15 56L14 56L14 55L12 55L12 56L11 56L11 57L18 57L18 55L20 55L20 57L21 57L21 56L22 56L22 57L23 57L23 56L22 56L22 55L23 55L23 54L25 54L25 55L24 55L24 56L28 56L28 55L27 55L27 53L29 53L29 54L31 54L31 55L30 55L30 56L31 56L31 57L32 57L32 55L33 55L33 54L36 54L36 55L34 55L34 56L33 56L33 57L36 57L36 55L38 55L38 57L39 57L39 56L40 56L40 57L42 57L42 56L43 56L43 55L44 55L44 56L45 56L45 55L46 55L46 56L47 56L47 55L48 55L48 56L49 56L49 57L51 57L51 54L52 54L52 53L54 53L54 54L56 54L56 53L57 53L57 51L55 51L55 50L57 50L57 48L56 48L56 49L55 49L55 48L54 48L54 46L55 46L55 47L57 47L57 44L52 44L52 43L53 43L53 42L54 42L54 43L56 43L56 41L57 41L57 40L56 40L56 41L55 41L55 42L54 42L54 40L55 40L55 39L54 39L54 38L56 38L56 39L57 39L57 38L56 38L56 37L57 37L57 36L56 36L56 35L57 35L57 31L56 31L56 30L57 30L57 27L56 27L56 30L55 30L55 33L54 33L54 32L53 32L53 33L54 33L54 34L52 34L52 32L50 32L50 31L54 31L54 29L55 29L55 27L53 27L53 25L51 25L51 24L54 24L54 23L53 23L53 22L54 22L54 21L55 21L55 20L56 20L56 19L55 19L55 17L56 17L56 18L57 18L57 15L55 15L55 14L54 14L54 10L53 10L53 13L52 13L52 12L51 12L51 11L52 11L52 10L50 10L50 8L49 8L49 6L48 6L48 7L47 7L47 5L48 5L48 0L46 0L46 1L47 1L47 2L46 2L46 3L47 3L47 5L45 5L45 4L44 4L44 3L45 3L45 1L44 1L44 2L41 2L41 1L43 1L43 0L41 0L41 1L40 1L40 0L39 0L39 1L40 1L40 2L41 2L41 4L39 4L39 3L38 3L38 2L37 2L37 1L38 1L38 0L37 0L37 1L36 1L36 0L35 0L35 1L34 1L34 2L31 2L31 3L30 3L30 2L29 2L29 1L31 1L31 0L29 0L29 1L28 1L28 2L27 2L27 3L28 3L28 2L29 2L29 3L30 3L30 4L26 4L26 1L25 1L25 0L23 0L23 1L25 1L25 2L24 2L24 3L23 3L23 2L22 2L22 0L21 0L21 3L23 3L23 5L22 5L22 4L21 4L21 5L20 5L20 4L19 4L19 3L20 3L20 1L18 1L18 0ZM17 1L17 2L18 2L18 3L19 3L19 2L18 2L18 1ZM35 1L35 2L34 2L34 3L35 3L35 2L36 2L36 1ZM32 3L32 4L31 4L31 5L32 5L32 6L31 6L31 9L32 9L32 10L30 10L30 11L29 11L29 9L28 9L28 11L27 11L27 10L26 10L26 11L25 11L25 13L24 13L24 12L23 12L23 11L24 11L24 10L23 10L23 9L26 9L26 6L25 6L25 5L26 5L26 4L24 4L24 6L23 6L23 7L22 7L22 6L21 6L21 7L20 7L20 6L19 6L19 7L20 7L20 8L18 8L18 9L17 9L17 7L16 7L16 6L15 6L15 7L14 7L14 6L13 6L13 5L14 5L14 4L13 4L13 5L12 5L12 6L11 6L11 5L10 5L10 6L9 6L9 7L10 7L10 6L11 6L11 8L9 8L9 9L11 9L11 10L12 10L12 11L13 11L13 10L14 10L14 11L15 11L15 15L16 15L16 16L17 16L17 17L19 17L19 18L16 18L16 20L14 20L14 22L13 22L13 21L11 21L11 23L12 23L12 26L11 26L11 25L10 25L10 22L9 22L9 25L10 25L10 26L9 26L9 27L10 27L10 26L11 26L11 27L13 27L13 26L15 26L15 27L14 27L14 29L12 29L12 28L9 28L9 29L11 29L11 30L10 30L10 33L9 33L9 34L8 34L8 35L6 35L6 36L9 36L9 37L6 37L6 38L5 38L5 40L7 40L7 41L6 41L6 42L7 42L7 41L8 41L8 43L6 43L6 44L7 44L7 45L6 45L6 46L7 46L7 45L8 45L8 47L10 47L10 48L11 48L11 45L10 45L10 46L9 46L9 45L8 45L8 43L9 43L9 42L10 42L10 43L13 43L13 44L12 44L12 45L13 45L13 46L14 46L14 45L15 45L15 47L14 47L14 48L15 48L15 47L17 47L17 48L19 48L19 49L20 49L20 48L19 48L19 47L20 47L20 46L21 46L21 47L22 47L22 46L23 46L23 45L25 45L25 46L24 46L24 47L23 47L23 48L21 48L21 50L20 50L20 51L21 51L21 50L22 50L22 49L23 49L23 52L22 52L22 53L20 53L20 55L21 55L21 54L22 54L22 53L23 53L23 52L24 52L24 53L25 53L25 52L26 52L26 51L24 51L24 50L25 50L25 49L26 49L26 48L27 48L27 47L29 47L29 48L32 48L32 49L31 49L31 53L32 53L32 51L33 51L33 52L35 52L35 53L36 53L36 54L37 54L37 51L36 51L36 52L35 52L35 48L37 48L37 49L36 49L36 50L37 50L37 49L38 49L38 48L39 48L39 49L40 49L40 50L39 50L39 51L38 51L38 52L40 52L40 54L41 54L41 53L42 53L42 54L43 54L43 51L44 51L44 50L43 50L43 47L40 47L40 46L41 46L41 45L38 45L38 44L39 44L39 43L38 43L38 44L37 44L37 42L40 42L40 44L41 44L41 43L42 43L42 45L44 45L44 47L45 47L45 48L44 48L44 49L46 49L46 50L45 50L45 52L46 52L46 53L47 53L47 52L48 52L48 48L47 48L47 49L46 49L46 46L47 46L47 47L49 47L49 45L50 45L50 46L51 46L51 48L53 48L53 47L52 47L52 46L53 46L53 45L51 45L51 42L50 42L50 41L52 41L52 40L50 40L50 41L47 41L47 42L50 42L50 43L49 43L49 45L48 45L48 43L47 43L47 44L44 44L44 43L46 43L46 42L45 42L45 41L46 41L46 38L47 38L47 37L48 37L48 39L47 39L47 40L49 40L49 37L52 37L52 38L50 38L50 39L53 39L53 38L54 38L54 37L53 37L53 36L52 36L52 35L51 35L51 36L49 36L49 35L48 35L48 36L44 36L44 37L41 37L41 36L43 36L43 35L44 35L44 34L43 34L43 35L42 35L42 34L41 34L41 35L37 35L37 36L40 36L40 37L41 37L41 38L44 38L44 39L45 39L45 41L43 41L43 40L42 40L42 42L41 42L41 39L39 39L39 38L37 38L37 37L34 37L34 36L36 36L36 35L35 35L35 33L33 33L33 32L35 32L35 31L33 31L33 29L31 29L31 34L30 34L30 35L29 35L29 33L30 33L30 31L29 31L29 32L28 32L28 31L25 31L25 30L26 30L26 28L25 28L25 25L27 25L27 26L29 26L29 24L31 24L31 23L32 23L32 22L33 22L33 24L32 24L32 25L33 25L33 24L35 24L35 23L36 23L36 24L37 24L37 22L35 22L35 20L36 20L36 21L38 21L38 22L39 22L39 21L38 21L38 20L40 20L40 19L39 19L39 18L41 18L41 21L44 21L44 22L45 22L45 20L46 20L46 19L48 19L48 20L47 20L47 21L46 21L46 22L47 22L47 21L48 21L48 20L49 20L49 24L51 24L51 23L52 23L52 22L51 22L51 21L50 21L50 20L53 20L53 21L54 21L54 20L55 20L55 19L51 19L51 17L49 17L49 10L47 10L47 8L46 8L46 6L45 6L45 5L43 5L43 3L42 3L42 4L41 4L41 7L40 7L40 5L38 5L38 6L37 6L37 5L36 5L36 4L34 4L34 5L33 5L33 3ZM27 5L27 8L30 8L30 5ZM12 6L12 7L13 7L13 6ZM24 6L24 7L23 7L23 8L21 8L21 10L20 10L20 9L19 9L19 10L20 10L20 11L19 11L19 12L18 12L18 10L17 10L17 11L16 11L16 10L15 10L15 11L16 11L16 13L17 13L17 12L18 12L18 13L19 13L19 14L21 14L21 13L19 13L19 12L21 12L21 11L23 11L23 10L22 10L22 9L23 9L23 8L24 8L24 7L25 7L25 6ZM28 6L28 7L29 7L29 6ZM32 6L32 8L33 8L33 6ZM34 6L34 9L36 9L36 8L37 8L37 10L38 10L38 12L35 12L35 11L36 11L36 10L35 10L35 11L34 11L34 10L33 10L33 14L32 14L32 15L33 15L33 16L31 16L31 14L30 14L30 13L28 13L28 12L26 12L26 13L27 13L27 14L24 14L24 16L23 16L23 18L24 18L24 19L25 19L25 20L27 20L27 21L25 21L25 22L24 22L24 21L23 21L23 19L22 19L22 20L21 20L21 19L17 19L17 20L16 20L16 23L15 23L15 22L14 22L14 23L15 23L15 24L14 24L14 25L15 25L15 26L16 26L16 27L19 27L19 26L22 26L22 27L23 27L23 25L22 25L22 24L24 24L24 25L25 25L25 22L28 22L28 23L29 23L29 22L31 22L31 20L32 20L32 19L34 19L34 20L33 20L33 21L34 21L34 20L35 20L35 17L34 17L34 16L35 16L35 15L33 15L33 14L34 14L34 12L35 12L35 14L37 14L37 15L39 15L39 17L40 17L40 16L41 16L41 15L40 15L40 11L42 11L42 12L43 12L43 14L42 14L42 17L41 17L41 18L42 18L42 19L43 19L43 18L42 18L42 17L45 17L45 18L44 18L44 19L46 19L46 18L48 18L48 14L47 14L47 17L45 17L45 16L44 16L44 15L43 15L43 14L44 14L44 9L43 9L43 8L44 8L44 7L45 7L45 6L44 6L44 7L43 7L43 6L42 6L42 7L41 7L41 8L38 8L38 7L39 7L39 6L38 6L38 7L37 7L37 6L36 6L36 7L35 7L35 6ZM0 8L0 9L1 9L1 10L0 10L0 11L4 11L4 10L2 10L2 9L4 9L4 8ZM6 8L6 9L7 9L7 8ZM15 8L15 9L16 9L16 8ZM41 8L41 9L40 9L40 10L39 10L39 9L38 9L38 10L39 10L39 11L40 11L40 10L41 10L41 9L42 9L42 8ZM52 8L52 9L55 9L55 8ZM56 8L56 9L57 9L57 8ZM8 10L8 11L10 11L10 10ZM42 10L42 11L43 11L43 10ZM46 10L46 11L47 11L47 12L48 12L48 11L47 11L47 10ZM55 10L55 11L56 11L56 13L57 13L57 10ZM6 11L6 12L7 12L7 13L6 13L6 14L7 14L7 15L6 15L6 16L7 16L7 17L6 17L6 18L7 18L7 17L8 17L8 18L9 18L9 16L10 16L10 17L11 17L11 19L8 19L8 21L9 21L9 20L12 20L12 17L11 17L11 16L12 16L12 13L11 13L11 12L9 12L9 13L10 13L10 14L8 14L8 12L7 12L7 11ZM30 11L30 12L31 12L31 13L32 13L32 11ZM0 12L0 13L1 13L1 12ZM2 12L2 14L0 14L0 17L1 17L1 15L3 15L3 14L4 14L4 12ZM22 12L22 13L23 13L23 12ZM50 12L50 13L51 13L51 15L54 15L54 14L52 14L52 13L51 13L51 12ZM13 13L13 16L14 16L14 13ZM45 13L45 14L46 14L46 13ZM10 14L10 16L11 16L11 14ZM16 14L16 15L17 15L17 14ZM7 15L7 16L9 16L9 15ZM19 15L19 17L21 17L21 18L22 18L22 17L21 17L21 16L20 16L20 15ZM26 15L26 16L25 16L25 17L24 17L24 18L25 18L25 19L27 19L27 20L29 20L29 21L30 21L30 20L31 20L31 16L29 16L29 15L28 15L28 16L29 16L29 17L27 17L27 15ZM52 16L52 17L53 17L53 18L54 18L54 17L55 17L55 16ZM25 17L25 18L26 18L26 17ZM29 17L29 18L28 18L28 19L29 19L29 20L30 20L30 17ZM36 17L36 18L37 18L37 17ZM13 18L13 19L15 19L15 18ZM49 18L49 20L50 20L50 18ZM36 19L36 20L38 20L38 19ZM18 20L18 21L17 21L17 22L18 22L18 21L19 21L19 22L21 22L21 23L20 23L20 24L21 24L21 23L23 23L23 21L22 21L22 22L21 22L21 20ZM6 21L6 22L7 22L7 23L5 23L5 24L7 24L7 23L8 23L8 22L7 22L7 21ZM56 21L56 22L55 22L55 23L57 23L57 21ZM12 22L12 23L13 23L13 22ZM42 22L42 23L38 23L38 24L39 24L39 26L38 26L38 27L40 27L40 29L38 29L38 30L36 30L36 29L37 29L37 27L36 27L36 29L35 29L35 28L34 28L34 29L35 29L35 30L36 30L36 31L37 31L37 32L36 32L36 33L37 33L37 32L38 32L38 34L39 34L39 31L40 31L40 32L41 32L41 31L43 31L43 30L44 30L44 33L45 33L45 34L46 34L46 35L47 35L47 34L50 34L50 33L49 33L49 32L48 32L48 29L47 29L47 33L46 33L46 31L45 31L45 30L46 30L46 26L50 26L50 25L48 25L48 24L47 24L47 23L44 23L44 25L42 25L42 26L45 26L45 29L42 29L42 30L40 30L40 29L41 29L41 27L40 27L40 25L41 25L41 24L42 24L42 23L43 23L43 22ZM2 23L2 24L1 24L1 25L3 25L3 23ZM16 23L16 24L15 24L15 25L16 25L16 26L17 26L17 24L18 24L18 23ZM26 23L26 24L27 24L27 23ZM45 24L45 26L46 26L46 25L47 25L47 24ZM55 24L55 25L56 25L56 24ZM5 25L5 26L8 26L8 25ZM30 25L30 26L31 26L31 25ZM34 25L34 27L35 27L35 25ZM5 27L5 30L8 30L8 27ZM20 27L20 28L18 28L18 29L19 29L19 30L17 30L17 28L15 28L15 29L14 29L14 30L15 30L15 31L16 31L16 32L14 32L14 33L16 33L16 32L17 32L17 33L18 33L18 31L20 31L20 33L21 33L21 34L20 34L20 35L21 35L21 34L22 34L22 33L23 33L23 35L24 35L24 34L25 34L25 35L26 35L26 36L23 36L23 38L22 38L22 37L21 37L21 38L20 38L20 37L19 37L19 34L18 34L18 36L17 36L17 35L16 35L16 36L17 36L17 37L18 37L18 39L17 39L17 38L13 38L13 37L14 37L14 36L13 36L13 35L14 35L14 34L13 34L13 30L12 30L12 31L11 31L11 32L12 32L12 33L10 33L10 34L11 34L11 35L12 35L12 36L10 36L10 35L9 35L9 36L10 36L10 37L9 37L9 38L11 38L11 37L12 37L12 39L8 39L8 38L6 38L6 39L7 39L7 40L10 40L10 41L11 41L11 40L12 40L12 41L13 41L13 42L14 42L14 44L13 44L13 45L14 45L14 44L15 44L15 45L16 45L16 44L17 44L17 43L16 43L16 44L15 44L15 42L18 42L18 43L19 43L19 41L18 41L18 39L19 39L19 40L20 40L20 41L21 41L21 42L20 42L20 44L19 44L19 45L17 45L17 47L19 47L19 46L20 46L20 45L21 45L21 46L22 46L22 44L23 44L23 43L25 43L25 45L26 45L26 46L27 46L27 45L29 45L29 46L32 46L32 42L33 42L33 45L34 45L34 44L35 44L35 45L36 45L36 46L34 46L34 47L32 47L32 48L33 48L33 49L32 49L32 50L34 50L34 48L35 48L35 47L36 47L36 46L37 46L37 47L38 47L38 45L36 45L36 43L34 43L34 42L36 42L36 41L34 41L34 40L35 40L35 39L36 39L36 38L34 38L34 37L33 37L33 38L32 38L32 36L34 36L34 34L32 34L32 36L29 36L29 35L28 35L28 34L27 34L27 33L28 33L28 32L27 32L27 33L26 33L26 32L25 32L25 31L22 31L22 32L21 32L21 30L24 30L24 29L25 29L25 28L23 28L23 29L21 29L21 30L20 30L20 28L21 28L21 27ZM27 27L27 30L30 30L30 27ZM31 27L31 28L33 28L33 27ZM42 27L42 28L43 28L43 27ZM47 27L47 28L48 28L48 27ZM49 27L49 30L52 30L52 27ZM6 28L6 29L7 29L7 28ZM28 28L28 29L29 29L29 28ZM50 28L50 29L51 29L51 28ZM53 28L53 29L54 29L54 28ZM15 29L15 30L16 30L16 29ZM38 30L38 31L39 31L39 30ZM4 31L4 32L3 32L3 33L5 33L5 32L7 32L7 31ZM8 31L8 32L9 32L9 31ZM32 31L32 32L33 32L33 31ZM23 32L23 33L24 33L24 32ZM42 32L42 33L43 33L43 32ZM25 33L25 34L26 34L26 33ZM55 33L55 34L56 34L56 33ZM54 35L54 36L55 36L55 37L56 37L56 36L55 36L55 35ZM12 36L12 37L13 37L13 36ZM26 36L26 37L24 37L24 39L22 39L22 41L24 41L24 42L25 42L25 43L26 43L26 45L27 45L27 43L29 43L29 44L30 44L30 45L31 45L31 43L29 43L29 42L30 42L30 41L31 41L31 40L33 40L33 39L34 39L34 38L33 38L33 39L32 39L32 38L30 38L30 39L28 39L28 40L29 40L29 42L25 42L25 41L26 41L26 40L27 40L27 39L26 39L26 37L27 37L27 38L29 38L29 36ZM45 37L45 38L46 38L46 37ZM12 39L12 40L13 40L13 41L14 41L14 42L15 42L15 39ZM16 39L16 41L17 41L17 39ZM24 39L24 41L25 41L25 39ZM38 39L38 40L37 40L37 41L40 41L40 40L39 40L39 39ZM21 42L21 44L22 44L22 42ZM42 42L42 43L43 43L43 42ZM47 45L47 46L48 46L48 45ZM55 45L55 46L56 46L56 45ZM1 46L1 47L2 47L2 46ZM24 47L24 48L23 48L23 49L24 49L24 48L26 48L26 47ZM41 48L41 49L42 49L42 48ZM27 49L27 52L30 52L30 49ZM49 49L49 52L52 52L52 49ZM53 49L53 50L55 50L55 49ZM13 50L13 53L14 53L14 50ZM28 50L28 51L29 51L29 50ZM50 50L50 51L51 51L51 50ZM16 51L16 52L18 52L18 51ZM40 51L40 52L41 52L41 51ZM46 51L46 52L47 52L47 51ZM9 52L9 53L8 53L8 57L9 57L9 53L10 53L10 54L12 54L12 53L10 53L10 52ZM54 52L54 53L55 53L55 52ZM38 53L38 54L39 54L39 53ZM48 53L48 54L50 54L50 53ZM44 54L44 55L45 55L45 54ZM41 55L41 56L42 56L42 55ZM56 55L56 56L57 56L57 55ZM52 56L52 57L53 57L53 56ZM54 56L54 57L55 57L55 56ZM0 0L0 7L7 7L7 0ZM1 1L1 6L6 6L6 1ZM2 2L2 5L5 5L5 2ZM50 0L50 7L57 7L57 0ZM51 1L51 6L56 6L56 1ZM52 2L52 5L55 5L55 2ZM0 50L0 57L7 57L7 50ZM1 51L1 56L6 56L6 51ZM2 52L2 55L5 55L5 52Z" fill="#000000"/></g></g></svg>
