<?xml version="1.0" encoding="UTF-8"?>
<svg xmlns="http://www.w3.org/2000/svg" version="1.1" width="300" height="300" viewBox="0 0 300 300"><rect x="0" y="0" width="300" height="300" fill="#fefefe"/><g transform="scale(4.615)"><g transform="translate(4,4)"><path fill-rule="evenodd" d="M8 0L8 4L9 4L9 5L8 5L8 7L9 7L9 6L10 6L10 9L7 9L7 8L4 8L4 9L3 9L3 10L1 10L1 9L2 9L2 8L0 8L0 13L2 13L2 12L3 12L3 14L4 14L4 15L3 15L3 18L5 18L5 17L4 17L4 16L5 16L5 12L6 12L6 13L7 13L7 14L6 14L6 15L8 15L8 14L9 14L9 12L8 12L8 11L10 11L10 12L11 12L11 10L10 10L10 9L11 9L11 8L14 8L14 10L13 10L13 9L12 9L12 10L13 10L13 11L14 11L14 12L15 12L15 13L12 13L12 14L10 14L10 15L11 15L11 16L12 16L12 17L10 17L10 18L9 18L9 17L7 17L7 16L6 16L6 17L7 17L7 18L6 18L6 19L4 19L4 20L3 20L3 19L2 19L2 18L0 18L0 19L1 19L1 20L0 20L0 23L2 23L2 24L1 24L1 25L0 25L0 28L1 28L1 30L2 30L2 29L3 29L3 31L2 31L2 32L1 32L1 31L0 31L0 33L1 33L1 35L5 35L5 36L3 36L3 38L2 38L2 36L1 36L1 37L0 37L0 39L1 39L1 38L2 38L2 39L4 39L4 43L3 43L3 41L0 41L0 44L1 44L1 45L0 45L0 48L5 48L5 47L8 47L8 45L10 45L10 46L9 46L9 48L6 48L6 49L8 49L8 50L10 50L10 52L9 52L9 51L8 51L8 53L10 53L10 55L8 55L8 57L9 57L9 56L12 56L12 54L14 54L14 55L13 55L13 57L14 57L14 55L16 55L16 54L17 54L17 57L19 57L19 55L20 55L20 54L22 54L22 51L21 51L21 49L22 49L22 50L23 50L23 52L24 52L24 53L23 53L23 55L22 55L22 56L20 56L20 57L22 57L22 56L23 56L23 57L25 57L25 56L26 56L26 57L27 57L27 55L26 55L26 54L27 54L27 53L28 53L28 57L29 57L29 55L30 55L30 57L34 57L34 55L35 55L35 57L37 57L37 56L36 56L36 54L37 54L37 53L38 53L38 55L40 55L40 56L39 56L39 57L40 57L40 56L41 56L41 57L43 57L43 55L44 55L44 57L45 57L45 56L46 56L46 57L47 57L47 56L48 56L48 55L47 55L47 54L46 54L46 51L47 51L47 52L48 52L48 54L49 54L49 57L50 57L50 55L51 55L51 56L53 56L53 57L54 57L54 56L53 56L53 54L54 54L54 53L55 53L55 54L57 54L57 53L55 53L55 52L56 52L56 50L57 50L57 49L56 49L56 45L57 45L57 44L56 44L56 45L54 45L54 44L53 44L53 43L54 43L54 42L55 42L55 43L56 43L56 42L57 42L57 40L54 40L54 41L53 41L53 40L52 40L52 37L51 37L51 36L53 36L53 37L54 37L54 38L53 38L53 39L57 39L57 38L55 38L55 37L56 37L56 36L53 36L53 35L56 35L56 34L57 34L57 33L56 33L56 30L55 30L55 29L54 29L54 28L53 28L53 27L54 27L54 26L55 26L55 28L56 28L56 29L57 29L57 28L56 28L56 26L55 26L55 25L54 25L54 23L53 23L53 25L52 25L52 22L54 22L54 21L52 21L52 20L53 20L53 19L48 19L48 20L47 20L47 19L46 19L46 20L45 20L45 18L46 18L46 17L45 17L45 16L46 16L46 11L45 11L45 10L46 10L46 8L47 8L47 5L48 5L48 0L46 0L46 1L47 1L47 2L45 2L45 0L41 0L41 1L40 1L40 2L39 2L39 3L38 3L38 1L39 1L39 0L38 0L38 1L37 1L37 2L36 2L36 0L35 0L35 1L34 1L34 0L32 0L32 3L31 3L31 4L30 4L30 3L29 3L29 2L31 2L31 0L29 0L29 1L28 1L28 0L26 0L26 1L27 1L27 3L28 3L28 4L26 4L26 3L25 3L25 0L23 0L23 1L21 1L21 0L20 0L20 1L21 1L21 3L22 3L22 4L23 4L23 3L25 3L25 4L24 4L24 5L23 5L23 6L22 6L22 5L21 5L21 6L20 6L20 5L19 5L19 6L18 6L18 5L17 5L17 6L16 6L16 5L15 5L15 4L14 4L14 1L16 1L16 0L13 0L13 3L12 3L12 2L11 2L11 1L12 1L12 0L11 0L11 1L10 1L10 3L9 3L9 0ZM18 0L18 1L17 1L17 3L16 3L16 2L15 2L15 3L16 3L16 4L17 4L17 3L18 3L18 2L19 2L19 3L20 3L20 2L19 2L19 0ZM33 1L33 3L32 3L32 5L35 5L35 7L34 7L34 6L33 6L33 7L32 7L32 6L31 6L31 10L30 10L30 11L31 11L31 12L29 12L29 9L26 9L26 6L25 6L25 7L24 7L24 6L23 6L23 7L24 7L24 8L25 8L25 10L28 10L28 12L27 12L27 11L26 11L26 13L25 13L25 12L24 12L24 11L23 11L23 10L22 10L22 9L23 9L23 8L22 8L22 9L21 9L21 11L20 11L20 12L19 12L19 10L20 10L20 9L19 9L19 10L18 10L18 9L15 9L15 11L16 11L16 10L18 10L18 11L17 11L17 13L15 13L15 14L17 14L17 16L16 16L16 18L17 18L17 19L18 19L18 20L19 20L19 21L20 21L20 20L21 20L21 21L24 21L24 22L25 22L25 23L26 23L26 22L27 22L27 23L28 23L28 25L27 25L27 26L28 26L28 25L29 25L29 23L30 23L30 22L29 22L29 23L28 23L28 22L27 22L27 21L24 21L24 20L25 20L25 18L24 18L24 19L22 19L22 18L21 18L21 19L18 19L18 18L20 18L20 16L19 16L19 17L18 17L18 15L19 15L19 14L20 14L20 15L21 15L21 17L26 17L26 20L27 20L27 19L30 19L30 18L28 18L28 17L26 17L26 16L27 16L27 15L28 15L28 14L27 14L27 13L29 13L29 16L31 16L31 17L32 17L32 18L31 18L31 19L32 19L32 18L33 18L33 21L34 21L34 22L35 22L35 23L34 23L34 24L33 24L33 25L34 25L34 26L33 26L33 27L32 27L32 23L33 23L33 22L31 22L31 29L32 29L32 28L33 28L33 27L34 27L34 31L36 31L36 30L37 30L37 32L38 32L38 30L37 30L37 29L38 29L38 28L37 28L37 27L39 27L39 28L40 28L40 29L39 29L39 32L40 32L40 33L39 33L39 34L38 34L38 33L37 33L37 34L38 34L38 36L39 36L39 37L44 37L44 38L43 38L43 39L45 39L45 41L43 41L43 42L42 42L42 44L43 44L43 45L44 45L44 43L45 43L45 45L46 45L46 47L45 47L45 46L44 46L44 47L42 47L42 49L43 49L43 50L42 50L42 51L43 51L43 50L44 50L44 51L46 51L46 50L47 50L47 49L48 49L48 47L51 47L51 46L52 46L52 48L55 48L55 47L54 47L54 45L50 45L50 43L51 43L51 44L52 44L52 43L53 43L53 41L52 41L52 40L47 40L47 39L49 39L49 38L50 38L50 39L51 39L51 38L50 38L50 37L48 37L48 35L49 35L49 36L50 36L50 35L53 35L53 34L54 34L54 33L55 33L55 30L54 30L54 29L53 29L53 31L54 31L54 33L51 33L51 31L49 31L49 32L50 32L50 35L49 35L49 33L48 33L48 31L47 31L47 29L48 29L48 27L45 27L45 26L44 26L44 24L45 24L45 25L46 25L46 26L47 26L47 25L49 25L49 26L50 26L50 25L49 25L49 24L48 24L48 23L47 23L47 20L46 20L46 21L45 21L45 22L44 22L44 16L45 16L45 14L44 14L44 12L45 12L45 11L43 11L43 10L42 10L42 11L43 11L43 12L41 12L41 11L40 11L40 10L41 10L41 9L42 9L42 8L43 8L43 9L44 9L44 10L45 10L45 9L44 9L44 8L46 8L46 6L45 6L45 7L44 7L44 4L45 4L45 5L47 5L47 3L44 3L44 2L43 2L43 3L44 3L44 4L43 4L43 5L39 5L39 7L40 7L40 6L41 6L41 8L40 8L40 9L39 9L39 8L38 8L38 9L35 9L35 7L36 7L36 5L38 5L38 4L37 4L37 3L36 3L36 2L35 2L35 4L34 4L34 1ZM40 2L40 3L39 3L39 4L40 4L40 3L42 3L42 2ZM10 3L10 5L12 5L12 6L11 6L11 7L12 7L12 6L13 6L13 7L14 7L14 8L15 8L15 7L16 7L16 6L15 6L15 7L14 7L14 5L12 5L12 3ZM35 4L35 5L36 5L36 4ZM27 5L27 8L30 8L30 5ZM17 6L17 8L19 8L19 7L20 7L20 6L19 6L19 7L18 7L18 6ZM21 6L21 7L22 7L22 6ZM28 6L28 7L29 7L29 6ZM37 6L37 7L38 7L38 6ZM42 6L42 7L43 7L43 8L44 8L44 7L43 7L43 6ZM48 6L48 7L49 7L49 6ZM33 7L33 8L32 8L32 11L33 11L33 10L34 10L34 12L35 12L35 14L36 14L36 13L37 13L37 12L39 12L39 13L38 13L38 15L39 15L39 17L38 17L38 16L37 16L37 15L35 15L35 17L38 17L38 18L39 18L39 19L37 19L37 18L34 18L34 13L33 13L33 12L32 12L32 13L33 13L33 14L31 14L31 13L30 13L30 15L33 15L33 16L32 16L32 17L33 17L33 18L34 18L34 20L35 20L35 22L37 22L37 23L38 23L38 26L39 26L39 27L40 27L40 28L41 28L41 27L42 27L42 28L43 28L43 29L41 29L41 30L40 30L40 32L41 32L41 33L40 33L40 34L42 34L42 35L44 35L44 37L45 37L45 38L46 38L46 39L47 39L47 38L48 38L48 37L47 37L47 38L46 38L46 36L47 36L47 35L48 35L48 34L46 34L46 33L47 33L47 31L46 31L46 30L45 30L45 31L43 31L43 29L45 29L45 27L43 27L43 25L41 25L41 27L40 27L40 25L39 25L39 23L38 23L38 22L39 22L39 21L40 21L40 22L43 22L43 23L44 23L44 22L43 22L43 21L40 21L40 18L41 18L41 20L43 20L43 19L42 19L42 18L43 18L43 17L42 17L42 15L43 15L43 16L44 16L44 15L43 15L43 13L41 13L41 14L40 14L40 12L39 12L39 9L38 9L38 11L37 11L37 12L35 12L35 11L36 11L36 10L34 10L34 9L33 9L33 8L34 8L34 7ZM51 8L51 9L50 9L50 10L49 10L49 9L47 9L47 10L48 10L48 11L47 11L47 12L49 12L49 11L50 11L50 15L48 15L48 16L47 16L47 18L49 18L49 17L50 17L50 18L53 18L53 17L55 17L55 16L56 16L56 18L55 18L55 19L56 19L56 21L55 21L55 24L56 24L56 25L57 25L57 24L56 24L56 21L57 21L57 19L56 19L56 18L57 18L57 15L56 15L56 10L57 10L57 8L53 8L53 9L52 9L52 8ZM6 9L6 10L5 10L5 11L4 11L4 10L3 10L3 11L4 11L4 12L5 12L5 11L6 11L6 12L7 12L7 13L8 13L8 12L7 12L7 11L8 11L8 10L7 10L7 9ZM51 9L51 10L50 10L50 11L51 11L51 10L52 10L52 9ZM53 9L53 10L54 10L54 11L52 11L52 12L51 12L51 14L52 14L52 15L53 15L53 16L52 16L52 17L53 17L53 16L55 16L55 15L53 15L53 14L55 14L55 9ZM6 10L6 11L7 11L7 10ZM21 11L21 12L20 12L20 14L21 14L21 15L22 15L22 16L26 16L26 15L27 15L27 14L26 14L26 15L22 15L22 14L21 14L21 13L23 13L23 14L25 14L25 13L23 13L23 12L22 12L22 11ZM18 12L18 13L17 13L17 14L19 14L19 12ZM53 12L53 13L52 13L52 14L53 14L53 13L54 13L54 12ZM47 13L47 14L49 14L49 13ZM0 14L0 17L1 17L1 16L2 16L2 15L1 15L1 14ZM13 14L13 15L14 15L14 16L13 16L13 18L11 18L11 19L9 19L9 21L8 21L8 23L6 23L6 22L7 22L7 21L6 21L6 20L8 20L8 18L7 18L7 19L6 19L6 20L4 20L4 21L1 21L1 22L2 22L2 23L6 23L6 24L4 24L4 25L3 25L3 24L2 24L2 26L4 26L4 25L5 25L5 26L9 26L9 27L10 27L10 25L12 25L12 26L11 26L11 27L12 27L12 26L13 26L13 25L14 25L14 26L15 26L15 24L16 24L16 26L17 26L17 27L18 27L18 26L20 26L20 27L19 27L19 28L18 28L18 29L15 29L15 30L14 30L14 31L13 31L13 32L10 32L10 31L11 31L11 30L10 30L10 31L8 31L8 32L10 32L10 33L9 33L9 35L6 35L6 36L10 36L10 33L13 33L13 35L12 35L12 34L11 34L11 36L12 36L12 37L10 37L10 38L11 38L11 39L9 39L9 40L8 40L8 41L6 41L6 40L7 40L7 39L6 39L6 38L9 38L9 37L6 37L6 38L5 38L5 42L7 42L7 43L5 43L5 44L7 44L7 43L8 43L8 44L10 44L10 43L11 43L11 45L12 45L12 44L14 44L14 45L15 45L15 44L17 44L17 45L16 45L16 48L15 48L15 46L14 46L14 47L12 47L12 46L10 46L10 49L11 49L11 50L12 50L12 49L13 49L13 51L11 51L11 52L10 52L10 53L13 53L13 51L14 51L14 52L15 52L15 53L14 53L14 54L15 54L15 53L17 53L17 52L16 52L16 51L15 51L15 50L14 50L14 49L16 49L16 50L17 50L17 49L16 49L16 48L17 48L17 47L20 47L20 49L19 49L19 50L18 50L18 51L19 51L19 53L20 53L20 51L19 51L19 50L20 50L20 49L21 49L21 48L22 48L22 49L23 49L23 48L24 48L24 49L26 49L26 48L27 48L27 47L28 47L28 46L29 46L29 48L31 48L31 49L32 49L32 48L33 48L33 49L34 49L34 52L33 52L33 53L32 53L32 54L33 54L33 53L34 53L34 54L35 54L35 53L34 53L34 52L36 52L36 49L35 49L35 48L33 48L33 47L32 47L32 44L31 44L31 41L32 41L32 43L33 43L33 44L35 44L35 43L33 43L33 41L32 41L32 40L33 40L33 39L31 39L31 38L33 38L33 37L34 37L34 42L35 42L35 39L37 39L37 42L38 42L38 39L39 39L39 40L40 40L40 41L42 41L42 40L40 40L40 38L38 38L38 37L37 37L37 38L35 38L35 37L34 37L34 36L35 36L35 32L34 32L34 33L33 33L33 37L32 37L32 36L31 36L31 35L32 35L32 32L33 32L33 31L32 31L32 30L31 30L31 31L32 31L32 32L30 32L30 31L28 31L28 32L29 32L29 33L28 33L28 34L27 34L27 32L26 32L26 31L25 31L25 30L26 30L26 29L25 29L25 30L23 30L23 28L25 28L25 27L26 27L26 25L25 25L25 26L23 26L23 28L22 28L22 27L21 27L21 26L20 26L20 25L21 25L21 24L22 24L22 25L24 25L24 23L21 23L21 22L20 22L20 23L19 23L19 22L18 22L18 21L17 21L17 20L15 20L15 18L14 18L14 16L15 16L15 15L14 15L14 14ZM40 15L40 17L39 17L39 18L40 18L40 17L41 17L41 15ZM50 15L50 16L51 16L51 15ZM17 17L17 18L18 18L18 17ZM13 19L13 21L12 21L12 22L11 22L11 20L10 20L10 23L11 23L11 24L13 24L13 21L14 21L14 22L15 22L15 23L14 23L14 24L15 24L15 23L16 23L16 22L17 22L17 21L15 21L15 20L14 20L14 19ZM21 19L21 20L22 20L22 19ZM35 19L35 20L36 20L36 19ZM28 20L28 21L29 21L29 20ZM31 20L31 21L32 21L32 20ZM37 20L37 22L38 22L38 21L39 21L39 20ZM49 20L49 21L51 21L51 22L52 22L52 21L51 21L51 20ZM4 21L4 22L6 22L6 21ZM49 22L49 23L50 23L50 24L51 24L51 23L50 23L50 22ZM17 23L17 25L19 25L19 24L18 24L18 23ZM41 23L41 24L42 24L42 23ZM45 23L45 24L46 24L46 23ZM6 24L6 25L8 25L8 24ZM9 24L9 25L10 25L10 24ZM34 24L34 25L37 25L37 24ZM51 25L51 26L52 26L52 25ZM36 26L36 27L37 27L37 26ZM1 27L1 28L3 28L3 29L4 29L4 27ZM5 27L5 30L8 30L8 27ZM14 27L14 28L16 28L16 27ZM20 27L20 28L19 28L19 29L18 29L18 30L17 30L17 31L19 31L19 32L16 32L16 30L15 30L15 31L14 31L14 32L13 32L13 33L14 33L14 32L15 32L15 35L13 35L13 36L14 36L14 37L16 37L16 36L15 36L15 35L16 35L16 33L17 33L17 34L18 34L18 33L19 33L19 36L18 36L18 37L17 37L17 38L16 38L16 39L14 39L14 40L13 40L13 41L12 41L12 42L11 42L11 43L15 43L15 42L16 42L16 40L17 40L17 41L20 41L20 42L19 42L19 44L18 44L18 45L17 45L17 46L19 46L19 45L20 45L20 46L21 46L21 47L22 47L22 48L23 48L23 47L25 47L25 46L26 46L26 47L27 47L27 46L28 46L28 45L29 45L29 46L30 46L30 45L31 45L31 44L28 44L28 41L27 41L27 40L29 40L29 41L31 41L31 39L29 39L29 38L28 38L28 39L27 39L27 38L26 38L26 35L27 35L27 34L26 34L26 32L25 32L25 31L23 31L23 30L22 30L22 29L21 29L21 27ZM27 27L27 30L30 30L30 27ZM49 27L49 30L52 30L52 27ZM6 28L6 29L7 29L7 28ZM11 28L11 29L12 29L12 28ZM28 28L28 29L29 29L29 28ZM35 28L35 30L36 30L36 29L37 29L37 28ZM46 28L46 29L47 29L47 28ZM50 28L50 29L51 29L51 28ZM19 29L19 31L22 31L22 33L21 33L21 32L19 32L19 33L21 33L21 34L23 34L23 33L25 33L25 32L23 32L23 31L22 31L22 30L20 30L20 29ZM3 31L3 32L4 32L4 33L6 33L6 34L7 34L7 33L6 33L6 32L7 32L7 31L6 31L6 32L5 32L5 31ZM45 31L45 33L46 33L46 31ZM29 33L29 34L28 34L28 36L27 36L27 37L28 37L28 36L29 36L29 37L31 37L31 36L30 36L30 34L31 34L31 33ZM43 33L43 34L44 34L44 35L46 35L46 34L44 34L44 33ZM24 34L24 36L25 36L25 35L26 35L26 34ZM22 35L22 37L18 37L18 38L19 38L19 39L18 39L18 40L19 40L19 39L20 39L20 38L22 38L22 39L24 39L24 41L23 41L23 40L22 40L22 41L21 41L21 43L20 43L20 45L21 45L21 46L22 46L22 47L23 47L23 45L24 45L24 44L25 44L25 43L27 43L27 41L26 41L26 42L24 42L24 41L25 41L25 40L27 40L27 39L26 39L26 38L24 38L24 37L23 37L23 35ZM39 35L39 36L40 36L40 35ZM12 37L12 39L11 39L11 40L12 40L12 39L13 39L13 37ZM14 40L14 41L15 41L15 40ZM46 40L46 41L45 41L45 42L46 42L46 41L47 41L47 40ZM48 41L48 43L47 43L47 44L46 44L46 45L47 45L47 47L46 47L46 49L45 49L45 48L44 48L44 50L46 50L46 49L47 49L47 47L48 47L48 46L50 46L50 45L47 45L47 44L49 44L49 43L50 43L50 42L49 42L49 41ZM51 41L51 43L52 43L52 41ZM17 42L17 43L18 43L18 42ZM39 42L39 44L37 44L37 43L36 43L36 44L37 44L37 45L36 45L36 46L38 46L38 45L39 45L39 44L40 44L40 51L38 51L38 49L39 49L39 47L38 47L38 49L37 49L37 51L38 51L38 53L39 53L39 52L40 52L40 53L41 53L41 44L40 44L40 42ZM2 43L2 45L1 45L1 47L2 47L2 46L3 46L3 47L5 47L5 45L4 45L4 44L3 44L3 43ZM21 43L21 45L23 45L23 44L24 44L24 43L23 43L23 44L22 44L22 43ZM6 45L6 46L7 46L7 45ZM26 45L26 46L27 46L27 45ZM34 45L34 47L35 47L35 45ZM36 47L36 48L37 48L37 47ZM27 49L27 52L30 52L30 49ZM49 49L49 52L52 52L52 49ZM55 49L55 50L56 50L56 49ZM28 50L28 51L29 51L29 50ZM50 50L50 51L51 51L51 50ZM53 50L53 53L54 53L54 52L55 52L55 51L54 51L54 50ZM25 51L25 53L24 53L24 54L26 54L26 51ZM31 51L31 52L32 52L32 51ZM42 52L42 53L44 53L44 55L46 55L46 56L47 56L47 55L46 55L46 54L45 54L45 53L44 53L44 52ZM30 53L30 54L31 54L31 53ZM49 53L49 54L51 54L51 55L52 55L52 54L51 54L51 53ZM40 54L40 55L41 55L41 56L42 56L42 55L43 55L43 54ZM23 55L23 56L24 56L24 55ZM56 56L56 57L57 57L57 56ZM0 0L0 7L7 7L7 0ZM1 1L1 6L6 6L6 1ZM2 2L2 5L5 5L5 2ZM50 0L50 7L57 7L57 0ZM51 1L51 6L56 6L56 1ZM52 2L52 5L55 5L55 2ZM0 50L0 57L7 57L7 50ZM1 51L1 56L6 56L6 51ZM2 52L2 55L5 55L5 52Z" fill="#000000"/></g></g></svg>
