<?xml version="1.0" encoding="UTF-8"?>
<svg xmlns="http://www.w3.org/2000/svg" version="1.1" width="300" height="300" viewBox="0 0 300 300"><rect x="0" y="0" width="300" height="300" fill="#fefefe"/><g transform="scale(4.615)"><g transform="translate(4,4)"><path fill-rule="evenodd" d="M9 0L9 1L8 1L8 2L10 2L10 3L11 3L11 4L9 4L9 3L8 3L8 4L9 4L9 5L8 5L8 7L9 7L9 8L6 8L6 9L9 9L9 11L8 11L8 10L5 10L5 11L8 11L8 12L3 12L3 11L4 11L4 10L3 10L3 11L2 11L2 9L5 9L5 8L0 8L0 10L1 10L1 12L0 12L0 14L2 14L2 13L5 13L5 14L3 14L3 15L2 15L2 17L4 17L4 18L6 18L6 19L5 19L5 21L3 21L3 20L4 20L4 19L3 19L3 18L2 18L2 19L3 19L3 20L0 20L0 23L2 23L2 25L3 25L3 26L1 26L1 25L0 25L0 26L1 26L1 27L2 27L2 28L0 28L0 29L1 29L1 30L2 30L2 31L1 31L1 32L0 32L0 33L1 33L1 35L0 35L0 36L3 36L3 37L5 37L5 38L6 38L6 39L8 39L8 41L7 41L7 40L6 40L6 41L7 41L7 42L5 42L5 41L4 41L4 42L3 42L3 43L2 43L2 42L1 42L1 43L0 43L0 48L5 48L5 47L7 47L7 48L6 48L6 49L8 49L8 51L9 51L9 50L10 50L10 51L11 51L11 53L9 53L9 52L8 52L8 57L9 57L9 56L10 56L10 57L11 57L11 56L12 56L12 57L14 57L14 56L13 56L13 54L14 54L14 55L16 55L16 56L17 56L17 57L19 57L19 56L18 56L18 55L20 55L20 54L19 54L19 53L20 53L20 52L21 52L21 53L22 53L22 55L21 55L21 56L24 56L24 57L26 57L26 55L27 55L27 54L30 54L30 53L31 53L31 49L32 49L32 52L33 52L33 53L32 53L32 54L31 54L31 56L30 56L30 55L29 55L29 56L27 56L27 57L29 57L29 56L30 56L30 57L31 57L31 56L35 56L35 57L39 57L39 56L40 56L40 55L41 55L41 57L44 57L44 54L45 54L45 57L47 57L47 55L48 55L48 57L49 57L49 56L50 56L50 57L52 57L52 55L51 55L51 53L52 53L52 54L53 54L53 57L54 57L54 56L55 56L55 57L56 57L56 56L55 56L55 54L53 54L53 52L54 52L54 53L55 53L55 52L56 52L56 50L55 50L55 48L56 48L56 49L57 49L57 48L56 48L56 46L57 46L57 45L56 45L56 44L55 44L55 43L56 43L56 41L55 41L55 39L57 39L57 37L56 37L56 36L55 36L55 35L56 35L56 34L55 34L55 33L54 33L54 32L56 32L56 33L57 33L57 32L56 32L56 30L57 30L57 29L55 29L55 30L54 30L54 28L56 28L56 27L55 27L55 26L57 26L57 25L56 25L56 22L57 22L57 21L56 21L56 19L55 19L55 18L57 18L57 17L56 17L56 16L57 16L57 15L56 15L56 14L57 14L57 13L56 13L56 14L55 14L55 13L54 13L54 12L55 12L55 11L56 11L56 8L55 8L55 10L54 10L54 11L51 11L51 10L53 10L53 9L54 9L54 8L53 8L53 9L52 9L52 8L51 8L51 10L49 10L49 9L50 9L50 8L46 8L46 7L47 7L47 5L48 5L48 0L46 0L46 1L45 1L45 2L44 2L44 3L43 3L43 4L42 4L42 2L43 2L43 0L41 0L41 1L40 1L40 0L39 0L39 1L38 1L38 0L37 0L37 1L38 1L38 2L37 2L37 3L36 3L36 0L35 0L35 1L33 1L33 0L30 0L30 1L26 1L26 0L23 0L23 2L22 2L22 0L21 0L21 1L20 1L20 0L17 0L17 2L18 2L18 1L19 1L19 3L17 3L17 6L16 6L16 7L15 7L15 5L16 5L16 4L15 4L15 5L14 5L14 7L13 7L13 5L12 5L12 7L13 7L13 10L11 10L11 9L12 9L12 8L11 8L11 4L14 4L14 2L15 2L15 3L16 3L16 1L15 1L15 0L14 0L14 2L12 2L12 1L13 1L13 0L12 0L12 1L11 1L11 0ZM10 1L10 2L11 2L11 3L12 3L12 2L11 2L11 1ZM30 1L30 2L29 2L29 3L28 3L28 2L23 2L23 3L19 3L19 4L18 4L18 6L17 6L17 7L16 7L16 8L17 8L17 7L18 7L18 6L19 6L19 7L20 7L20 5L19 5L19 4L21 4L21 8L19 8L19 9L18 9L18 10L17 10L17 9L15 9L15 7L14 7L14 10L17 10L17 11L15 11L15 13L13 13L13 12L14 12L14 11L12 11L12 12L11 12L11 13L12 13L12 14L13 14L13 15L12 15L12 16L11 16L11 17L13 17L13 15L14 15L14 18L12 18L12 19L11 19L11 18L10 18L10 15L11 15L11 14L9 14L9 12L10 12L10 11L9 11L9 12L8 12L8 14L7 14L7 13L6 13L6 14L5 14L5 15L6 15L6 16L5 16L5 17L6 17L6 18L8 18L8 19L9 19L9 23L8 23L8 22L7 22L7 21L5 21L5 23L6 23L6 24L7 24L7 23L8 23L8 25L5 25L5 24L4 24L4 22L3 22L3 21L1 21L1 22L2 22L2 23L3 23L3 24L4 24L4 26L3 26L3 28L2 28L2 29L3 29L3 31L2 31L2 33L3 33L3 35L4 35L4 36L5 36L5 37L6 37L6 38L7 38L7 37L8 37L8 35L9 35L9 36L10 36L10 35L12 35L12 39L10 39L10 40L9 40L9 42L8 42L8 43L10 43L10 42L11 42L11 43L12 43L12 44L8 44L8 45L6 45L6 44L7 44L7 43L6 43L6 44L5 44L5 46L3 46L3 45L2 45L2 46L1 46L1 47L2 47L2 46L3 46L3 47L5 47L5 46L9 46L9 47L8 47L8 48L10 48L10 50L12 50L12 48L11 48L11 45L12 45L12 44L13 44L13 43L14 43L14 45L15 45L15 47L14 47L14 46L12 46L12 47L14 47L14 48L13 48L13 49L14 49L14 51L12 51L12 53L11 53L11 55L10 55L10 54L9 54L9 55L10 55L10 56L11 56L11 55L12 55L12 53L14 53L14 54L16 54L16 53L17 53L17 52L18 52L18 51L19 51L19 52L20 52L20 51L19 51L19 50L21 50L21 49L23 49L23 48L24 48L24 49L26 49L26 48L30 48L30 47L29 47L29 45L31 45L31 44L29 44L29 45L28 45L28 43L29 43L29 42L32 42L32 43L33 43L33 44L32 44L32 45L33 45L33 46L31 46L31 47L32 47L32 49L33 49L33 50L34 50L34 51L33 51L33 52L34 52L34 53L33 53L33 54L35 54L35 56L36 56L36 54L35 54L35 50L36 50L36 52L37 52L37 53L38 53L38 54L37 54L37 56L39 56L39 55L38 55L38 54L40 54L40 53L41 53L41 52L43 52L43 51L46 51L46 50L47 50L47 52L44 52L44 53L43 53L43 54L44 54L44 53L45 53L45 54L48 54L48 50L47 50L47 49L48 49L48 48L49 48L49 47L48 47L48 46L50 46L50 47L51 47L51 46L54 46L54 45L55 45L55 46L56 46L56 45L55 45L55 44L54 44L54 45L53 45L53 43L54 43L54 42L53 42L53 41L54 41L54 40L53 40L53 41L51 41L51 42L50 42L50 43L47 43L47 45L45 45L45 44L46 44L46 43L45 43L45 42L48 42L48 41L49 41L49 39L51 39L51 38L52 38L52 39L54 39L54 38L53 38L53 35L55 35L55 34L54 34L54 33L52 33L52 32L54 32L54 30L53 30L53 31L52 31L52 32L51 32L51 33L52 33L52 34L50 34L50 32L49 32L49 31L48 31L48 30L47 30L47 29L48 29L48 28L47 28L47 29L46 29L46 30L47 30L47 31L45 31L45 28L46 28L46 27L47 27L47 26L48 26L48 25L50 25L50 26L51 26L51 25L52 25L52 26L53 26L53 27L54 27L54 26L53 26L53 23L50 23L50 22L51 22L51 21L53 21L53 22L56 22L56 21L55 21L55 20L53 20L53 19L52 19L52 18L51 18L51 17L53 17L53 18L55 18L55 17L54 17L54 16L53 16L53 15L54 15L54 13L53 13L53 12L52 12L52 13L53 13L53 15L52 15L52 16L51 16L51 15L50 15L50 14L51 14L51 12L50 12L50 11L49 11L49 10L48 10L48 11L47 11L47 12L45 12L45 11L44 11L44 10L47 10L47 9L45 9L45 8L42 8L42 5L40 5L40 4L41 4L41 3L39 3L39 2L38 2L38 3L37 3L37 4L36 4L36 5L35 5L35 3L34 3L34 2L33 2L33 1L32 1L32 2L31 2L31 1ZM46 1L46 2L47 2L47 1ZM32 2L32 3L31 3L31 4L26 4L26 3L23 3L23 4L24 4L24 5L23 5L23 6L22 6L22 8L23 8L23 10L22 10L22 11L19 11L19 10L20 10L20 9L19 9L19 10L18 10L18 11L17 11L17 12L16 12L16 13L15 13L15 14L14 14L14 15L15 15L15 16L16 16L16 17L15 17L15 19L16 19L16 17L18 17L18 18L19 18L19 19L17 19L17 20L18 20L18 21L16 21L16 20L15 20L15 21L16 21L16 22L15 22L15 23L14 23L14 21L13 21L13 20L14 20L14 19L13 19L13 20L11 20L11 19L10 19L10 18L9 18L9 19L10 19L10 23L9 23L9 26L4 26L4 28L3 28L3 29L4 29L4 32L3 32L3 33L4 33L4 34L5 34L5 35L8 35L8 34L9 34L9 33L11 33L11 32L12 32L12 35L14 35L14 36L13 36L13 38L14 38L14 37L15 37L15 38L16 38L16 37L15 37L15 36L17 36L17 37L18 37L18 38L20 38L20 39L17 39L17 42L15 42L15 41L16 41L16 39L13 39L13 40L10 40L10 41L14 41L14 43L15 43L15 44L18 44L18 45L17 45L17 46L18 46L18 47L20 47L20 45L19 45L19 44L20 44L20 43L21 43L21 44L22 44L22 45L21 45L21 47L23 47L23 46L25 46L25 44L27 44L27 43L25 43L25 41L24 41L24 40L25 40L25 39L27 39L27 41L26 41L26 42L27 42L27 41L28 41L28 39L27 39L27 38L28 38L28 37L26 37L26 38L25 38L25 36L27 36L27 35L26 35L26 34L27 34L27 32L28 32L28 33L29 33L29 34L30 34L30 36L29 36L29 37L31 37L31 38L29 38L29 39L33 39L33 40L35 40L35 42L37 42L37 43L36 43L36 44L35 44L35 43L34 43L34 42L33 42L33 41L32 41L32 40L30 40L30 41L32 41L32 42L33 42L33 43L34 43L34 45L35 45L35 46L33 46L33 47L36 47L36 48L34 48L34 49L36 49L36 50L38 50L38 51L40 51L40 52L41 52L41 50L42 50L42 51L43 51L43 50L44 50L44 48L43 48L43 47L46 47L46 48L45 48L45 50L46 50L46 48L48 48L48 47L47 47L47 46L48 46L48 45L47 45L47 46L44 46L44 40L47 40L47 39L48 39L48 37L49 37L49 38L50 38L50 37L49 37L49 36L48 36L48 35L50 35L50 36L51 36L51 37L52 37L52 35L53 35L53 34L52 34L52 35L50 35L50 34L48 34L48 35L46 35L46 34L45 34L45 35L44 35L44 33L43 33L43 32L45 32L45 33L47 33L47 32L48 32L48 33L49 33L49 32L48 32L48 31L47 31L47 32L45 32L45 31L44 31L44 29L40 29L40 30L43 30L43 32L41 32L41 33L39 33L39 34L40 34L40 35L38 35L38 33L37 33L37 32L35 32L35 34L37 34L37 35L38 35L38 37L37 37L37 36L35 36L35 35L31 35L31 34L32 34L32 32L31 32L31 33L29 33L29 32L30 32L30 31L31 31L31 29L32 29L32 31L36 31L36 29L38 29L38 28L39 28L39 27L36 27L36 26L34 26L34 27L33 27L33 26L32 26L32 24L33 24L33 25L37 25L37 26L38 26L38 24L39 24L39 25L40 25L40 24L41 24L41 22L43 22L43 25L41 25L41 26L40 26L40 27L41 27L41 28L42 28L42 27L41 27L41 26L43 26L43 25L44 25L44 20L45 20L45 21L46 21L46 20L45 20L45 18L46 18L46 19L47 19L47 20L48 20L48 19L49 19L49 21L47 21L47 22L45 22L45 23L46 23L46 24L45 24L45 25L46 25L46 24L47 24L47 25L48 25L48 24L47 24L47 23L49 23L49 21L51 21L51 20L52 20L52 19L50 19L50 17L49 17L49 16L50 16L50 15L49 15L49 14L50 14L50 12L49 12L49 11L48 11L48 12L49 12L49 13L47 13L47 14L45 14L45 13L44 13L44 12L43 12L43 13L41 13L41 14L45 14L45 18L44 18L44 15L42 15L42 16L41 16L41 15L39 15L39 14L38 14L38 13L40 13L40 12L41 12L41 11L43 11L43 10L44 10L44 9L39 9L39 6L40 6L40 7L41 7L41 6L40 6L40 5L39 5L39 6L38 6L38 4L37 4L37 5L36 5L36 7L37 7L37 6L38 6L38 9L37 9L37 8L35 8L35 5L34 5L34 4L32 4L32 3L33 3L33 2ZM44 3L44 6L43 6L43 7L44 7L44 6L45 6L45 7L46 7L46 6L45 6L45 5L47 5L47 3ZM25 4L25 8L26 8L26 4ZM31 4L31 8L32 8L32 10L31 10L31 11L29 11L29 12L28 12L28 13L26 13L26 12L27 12L27 11L26 11L26 12L25 12L25 10L23 10L23 11L24 11L24 13L22 13L22 12L19 12L19 13L20 13L20 14L21 14L21 13L22 13L22 14L23 14L23 15L20 15L20 16L19 16L19 15L18 15L18 16L19 16L19 17L20 17L20 21L18 21L18 22L17 22L17 24L16 24L16 23L15 23L15 26L14 26L14 24L12 24L12 25L13 25L13 26L12 26L12 27L11 27L11 29L12 29L12 30L11 30L11 31L6 31L6 32L7 32L7 33L5 33L5 32L4 32L4 33L5 33L5 34L8 34L8 32L11 32L11 31L14 31L14 32L13 32L13 33L14 33L14 34L15 34L15 35L19 35L19 34L18 34L18 33L16 33L16 32L19 32L19 33L20 33L20 36L19 36L19 37L21 37L21 38L24 38L24 37L23 37L23 36L24 36L24 34L23 34L23 33L25 33L25 34L26 34L26 31L25 31L25 30L23 30L23 29L24 29L24 28L23 28L23 26L22 26L22 25L24 25L24 24L25 24L25 25L26 25L26 26L25 26L25 27L26 27L26 26L28 26L28 25L29 25L29 24L32 24L32 23L35 23L35 19L36 19L36 20L38 20L38 22L39 22L39 24L40 24L40 22L39 22L39 21L42 21L42 20L38 20L38 19L39 19L39 17L41 17L41 16L39 16L39 15L38 15L38 14L37 14L37 15L35 15L35 16L33 16L33 15L31 15L31 14L32 14L32 13L33 13L33 14L36 14L36 13L35 13L35 12L36 12L36 10L37 10L37 11L38 11L38 10L39 10L39 9L38 9L38 10L37 10L37 9L35 9L35 8L34 8L34 9L33 9L33 7L34 7L34 5L32 5L32 4ZM27 5L27 8L30 8L30 5ZM9 6L9 7L10 7L10 6ZM23 6L23 8L24 8L24 6ZM28 6L28 7L29 7L29 6ZM32 6L32 7L33 7L33 6ZM48 6L48 7L49 7L49 6ZM10 8L10 9L11 9L11 8ZM32 10L32 11L31 11L31 13L30 13L30 14L29 14L29 13L28 13L28 14L29 14L29 16L28 16L28 15L27 15L27 14L26 14L26 13L24 13L24 15L23 15L23 16L24 16L24 15L25 15L25 17L22 17L22 16L21 16L21 17L22 17L22 18L21 18L21 20L24 20L24 21L21 21L21 23L23 23L23 24L24 24L24 23L23 23L23 22L24 22L24 21L25 21L25 22L26 22L26 23L25 23L25 24L28 24L28 23L27 23L27 21L26 21L26 19L25 19L25 17L26 17L26 18L28 18L28 19L30 19L30 20L29 20L29 21L28 21L28 22L30 22L30 23L31 23L31 21L32 21L32 20L33 20L33 19L35 19L35 18L33 18L33 17L32 17L32 16L31 16L31 15L30 15L30 14L31 14L31 13L32 13L32 12L33 12L33 13L34 13L34 12L33 12L33 10ZM40 10L40 11L39 11L39 12L40 12L40 11L41 11L41 10ZM1 12L1 13L2 13L2 12ZM17 12L17 13L16 13L16 16L17 16L17 13L18 13L18 12ZM6 14L6 15L7 15L7 14ZM25 14L25 15L26 15L26 17L28 17L28 16L27 16L27 15L26 15L26 14ZM8 15L8 17L9 17L9 15ZM46 15L46 16L47 16L47 15ZM48 15L48 16L49 16L49 15ZM0 16L0 17L1 17L1 16ZM6 16L6 17L7 17L7 16ZM35 16L35 17L37 17L37 18L38 18L38 17L39 17L39 16L38 16L38 17L37 17L37 16ZM42 16L42 17L43 17L43 16ZM31 17L31 18L30 18L30 19L31 19L31 18L32 18L32 17ZM46 17L46 18L47 18L47 17ZM0 18L0 19L1 19L1 18ZM22 18L22 19L24 19L24 18ZM41 18L41 19L42 19L42 18ZM43 18L43 20L44 20L44 18ZM6 19L6 20L7 20L7 19ZM6 22L6 23L7 23L7 22ZM11 22L11 23L10 23L10 24L11 24L11 23L12 23L12 22ZM19 22L19 23L20 23L20 22ZM37 23L37 24L38 24L38 23ZM17 24L17 26L16 26L16 27L18 27L18 26L20 26L20 27L22 27L22 26L20 26L20 25L21 25L21 24L20 24L20 25L19 25L19 24ZM13 26L13 27L12 27L12 28L14 28L14 29L13 29L13 30L14 30L14 29L15 29L15 31L16 31L16 29L18 29L18 30L17 30L17 31L19 31L19 32L20 32L20 31L21 31L21 32L23 32L23 31L21 31L21 30L20 30L20 29L22 29L22 28L19 28L19 29L18 29L18 28L16 28L16 29L15 29L15 28L14 28L14 26ZM31 26L31 28L32 28L32 29L33 29L33 30L35 30L35 28L33 28L33 27L32 27L32 26ZM44 26L44 27L43 27L43 28L45 28L45 26ZM5 27L5 30L8 30L8 27ZM9 27L9 28L10 28L10 27ZM27 27L27 30L30 30L30 27ZM49 27L49 30L52 30L52 27ZM6 28L6 29L7 29L7 28ZM25 28L25 29L26 29L26 28ZM28 28L28 29L29 29L29 28ZM50 28L50 29L51 29L51 28ZM19 30L19 31L20 31L20 30ZM38 30L38 32L39 32L39 30ZM24 31L24 32L25 32L25 31ZM28 31L28 32L29 32L29 31ZM14 32L14 33L15 33L15 32ZM33 32L33 33L34 33L34 32ZM21 33L21 34L22 34L22 35L21 35L21 36L23 36L23 34L22 34L22 33ZM42 34L42 35L43 35L43 36L44 36L44 37L43 37L43 38L40 38L40 37L42 37L42 36L40 36L40 37L38 37L38 39L35 39L35 37L33 37L33 36L32 36L32 37L33 37L33 39L35 39L35 40L38 40L38 42L39 42L39 45L38 45L38 46L39 46L39 45L41 45L41 44L42 44L42 42L40 42L40 41L42 41L42 40L43 40L43 39L47 39L47 37L48 37L48 36L46 36L46 37L45 37L45 36L44 36L44 35L43 35L43 34ZM6 36L6 37L7 37L7 36ZM1 37L1 38L0 38L0 41L2 41L2 40L5 40L5 39L3 39L3 38L2 38L2 37ZM9 37L9 38L8 38L8 39L9 39L9 38L10 38L10 37ZM44 37L44 38L45 38L45 37ZM21 39L21 40L20 40L20 42L21 42L21 43L22 43L22 42L24 42L24 41L23 41L23 40L24 40L24 39ZM38 39L38 40L40 40L40 39ZM41 39L41 40L42 40L42 39ZM14 40L14 41L15 41L15 40ZM18 41L18 42L17 42L17 43L18 43L18 42L19 42L19 41ZM21 41L21 42L22 42L22 41ZM4 42L4 43L5 43L5 42ZM51 42L51 43L50 43L50 44L49 44L49 45L50 45L50 44L51 44L51 43L53 43L53 42ZM1 43L1 44L2 44L2 43ZM24 43L24 44L25 44L25 43ZM9 45L9 46L10 46L10 45ZM22 45L22 46L23 46L23 45ZM26 45L26 47L27 47L27 46L28 46L28 45ZM36 46L36 47L37 47L37 46ZM41 46L41 48L39 48L39 47L38 47L38 48L37 48L37 49L38 49L38 50L41 50L41 48L42 48L42 49L43 49L43 48L42 48L42 47L43 47L43 46ZM15 47L15 48L16 48L16 49L21 49L21 48L16 48L16 47ZM24 47L24 48L25 48L25 47ZM38 48L38 49L39 49L39 48ZM27 49L27 52L30 52L30 49ZM49 49L49 52L52 52L52 49ZM15 50L15 51L16 51L16 50ZM23 50L23 51L21 51L21 52L22 52L22 53L24 53L24 54L23 54L23 55L24 55L24 56L25 56L25 54L27 54L27 53L24 53L24 52L26 52L26 51L25 51L25 50ZM28 50L28 51L29 51L29 50ZM50 50L50 51L51 51L51 50ZM54 50L54 51L55 51L55 50ZM15 52L15 53L16 53L16 52ZM38 52L38 53L39 53L39 52ZM42 55L42 56L43 56L43 55ZM50 55L50 56L51 56L51 55ZM0 0L0 7L7 7L7 0ZM1 1L1 6L6 6L6 1ZM2 2L2 5L5 5L5 2ZM50 0L50 7L57 7L57 0ZM51 1L51 6L56 6L56 1ZM52 2L52 5L55 5L55 2ZM0 50L0 57L7 57L7 50ZM1 51L1 56L6 56L6 51ZM2 52L2 55L5 55L5 52Z" fill="#000000"/></g></g></svg>
