<?xml version="1.0" encoding="UTF-8"?>
<svg xmlns="http://www.w3.org/2000/svg" version="1.1" width="300" height="300" viewBox="0 0 300 300"><rect x="0" y="0" width="300" height="300" fill="#fefefe"/><g transform="scale(4.615)"><g transform="translate(4,4)"><path fill-rule="evenodd" d="M9 0L9 1L8 1L8 2L9 2L9 3L8 3L8 4L10 4L10 5L8 5L8 7L9 7L9 8L6 8L6 9L5 9L5 8L0 8L0 9L2 9L2 10L0 10L0 12L2 12L2 13L3 13L3 14L2 14L2 15L0 15L0 16L3 16L3 18L1 18L1 17L0 17L0 19L2 19L2 20L1 20L1 21L2 21L2 22L3 22L3 18L4 18L4 22L5 22L5 23L4 23L4 24L3 24L3 23L1 23L1 22L0 22L0 24L1 24L1 25L0 25L0 28L1 28L1 27L2 27L2 26L3 26L3 29L1 29L1 30L0 30L0 32L2 32L2 33L3 33L3 34L4 34L4 35L2 35L2 34L1 34L1 33L0 33L0 35L2 35L2 36L0 36L0 38L1 38L1 42L0 42L0 44L2 44L2 43L1 43L1 42L4 42L4 41L3 41L3 40L5 40L5 42L6 42L6 43L5 43L5 44L6 44L6 45L5 45L5 47L3 47L3 46L2 46L2 45L1 45L1 46L0 46L0 48L5 48L5 47L8 47L8 48L6 48L6 49L8 49L8 51L10 51L10 50L11 50L11 52L10 52L10 53L9 53L9 52L8 52L8 57L9 57L9 54L10 54L10 55L11 55L11 54L10 54L10 53L11 53L11 52L12 52L12 54L14 54L14 53L16 53L16 54L15 54L15 55L14 55L14 56L11 56L11 57L14 57L14 56L15 56L15 55L16 55L16 56L17 56L17 57L19 57L19 56L17 56L17 54L18 54L18 55L20 55L20 54L19 54L19 53L20 53L20 52L23 52L23 51L22 51L22 50L25 50L25 51L26 51L26 52L24 52L24 53L23 53L23 54L21 54L21 55L23 55L23 56L24 56L24 55L23 55L23 54L24 54L24 53L27 53L27 54L30 54L30 53L31 53L31 51L32 51L32 52L33 52L33 53L32 53L32 54L31 54L31 56L30 56L30 55L29 55L29 56L27 56L27 57L29 57L29 56L30 56L30 57L31 57L31 56L35 56L35 57L40 57L40 56L41 56L41 57L44 57L44 56L42 56L42 55L44 55L44 54L45 54L45 53L47 53L47 54L46 54L46 55L49 55L49 56L50 56L50 57L52 57L52 55L51 55L51 53L52 53L52 54L53 54L53 52L54 52L54 53L55 53L55 51L56 51L56 53L57 53L57 51L56 51L56 50L55 50L55 48L56 48L56 49L57 49L57 48L56 48L56 46L57 46L57 44L56 44L56 42L55 42L55 41L53 41L53 40L55 40L55 39L57 39L57 37L56 37L56 36L57 36L57 35L56 35L56 33L57 33L57 32L56 32L56 30L57 30L57 29L56 29L56 28L57 28L57 27L56 27L56 26L57 26L57 25L56 25L56 22L57 22L57 21L56 21L56 22L55 22L55 23L54 23L54 21L51 21L51 20L52 20L52 19L53 19L53 20L55 20L55 19L56 19L56 20L57 20L57 19L56 19L56 16L57 16L57 15L56 15L56 14L57 14L57 11L56 11L56 10L54 10L54 11L50 11L50 12L49 12L49 10L50 10L50 8L49 8L49 9L48 9L48 8L47 8L47 5L48 5L48 0L46 0L46 1L45 1L45 2L44 2L44 3L43 3L43 4L40 4L40 5L39 5L39 6L38 6L38 7L37 7L37 5L38 5L38 4L39 4L39 3L42 3L42 2L43 2L43 0L41 0L41 1L40 1L40 0L39 0L39 1L38 1L38 0L37 0L37 1L38 1L38 2L39 2L39 3L36 3L36 0L35 0L35 1L33 1L33 0L30 0L30 1L29 1L29 0L28 0L28 1L29 1L29 2L28 2L28 3L29 3L29 4L26 4L26 3L23 3L23 4L24 4L24 5L22 5L22 4L19 4L19 2L21 2L21 3L22 3L22 2L21 2L21 1L22 1L22 0L21 0L21 1L20 1L20 0L17 0L17 2L18 2L18 3L17 3L17 4L18 4L18 5L17 5L17 6L16 6L16 7L15 7L15 6L14 6L14 5L13 5L13 4L14 4L14 2L15 2L15 1L14 1L14 0L13 0L13 1L12 1L12 0ZM23 0L23 2L27 2L27 1L26 1L26 0ZM9 1L9 2L10 2L10 4L12 4L12 2L10 2L10 1ZM13 1L13 2L14 2L14 1ZM30 1L30 2L31 2L31 3L30 3L30 4L31 4L31 8L32 8L32 10L31 10L31 11L29 11L29 12L28 12L28 13L26 13L26 12L27 12L27 11L28 11L28 10L27 10L27 11L26 11L26 12L25 12L25 10L23 10L23 9L25 9L25 8L26 8L26 4L25 4L25 8L24 8L24 6L23 6L23 8L19 8L19 7L20 7L20 5L18 5L18 6L17 6L17 7L16 7L16 8L14 8L14 10L15 10L15 13L13 13L13 12L14 12L14 11L13 11L13 10L12 10L12 9L13 9L13 7L14 7L14 6L13 6L13 7L12 7L12 5L10 5L10 6L9 6L9 7L10 7L10 6L11 6L11 7L12 7L12 9L9 9L9 11L5 11L5 12L4 12L4 14L5 14L5 16L4 16L4 15L3 15L3 16L4 16L4 18L5 18L5 17L6 17L6 18L7 18L7 19L6 19L6 20L5 20L5 22L7 22L7 23L6 23L6 24L5 24L5 26L9 26L9 28L15 28L15 29L14 29L14 30L13 30L13 31L12 31L12 29L9 29L9 30L11 30L11 31L12 31L12 32L11 32L11 33L12 33L12 34L10 34L10 35L9 35L9 33L6 33L6 32L8 32L8 31L5 31L5 33L4 33L4 32L3 32L3 33L4 33L4 34L5 34L5 36L4 36L4 37L6 37L6 38L5 38L5 39L6 39L6 40L7 40L7 39L6 39L6 38L10 38L10 40L8 40L8 41L10 41L10 40L12 40L12 43L11 43L11 44L10 44L10 45L13 45L13 46L12 46L12 47L11 47L11 46L9 46L9 48L10 48L10 49L9 49L9 50L10 50L10 49L11 49L11 50L12 50L12 49L13 49L13 51L15 51L15 50L17 50L17 51L16 51L16 53L17 53L17 51L18 51L18 52L20 52L20 50L21 50L21 49L23 49L23 47L25 47L25 48L24 48L24 49L26 49L26 48L27 48L27 47L26 47L26 45L27 45L27 46L31 46L31 48L32 48L32 49L31 49L31 50L32 50L32 49L33 49L33 50L34 50L34 52L35 52L35 50L36 50L36 52L37 52L37 53L38 53L38 54L37 54L37 56L40 56L40 55L38 55L38 54L40 54L40 53L42 53L42 52L43 52L43 51L42 51L42 50L41 50L41 48L42 48L42 49L43 49L43 48L44 48L44 50L47 50L47 53L48 53L48 50L47 50L47 49L48 49L48 48L49 48L49 47L51 47L51 46L53 46L53 47L52 47L52 48L53 48L53 47L54 47L54 46L53 46L53 45L51 45L51 44L53 44L53 43L54 43L54 42L53 42L53 41L51 41L51 42L50 42L50 43L49 43L49 42L48 42L48 41L49 41L49 40L50 40L50 39L52 39L52 38L53 38L53 39L54 39L54 38L53 38L53 35L55 35L55 36L56 36L56 35L55 35L55 34L54 34L54 33L52 33L52 31L51 31L51 33L52 33L52 34L50 34L50 31L48 31L48 29L46 29L46 30L47 30L47 31L46 31L46 32L47 32L47 33L45 33L45 32L43 32L43 30L41 30L41 29L44 29L44 31L45 31L45 28L46 28L46 27L47 27L47 28L48 28L48 27L47 27L47 26L48 26L48 25L49 25L49 23L50 23L50 26L51 26L51 25L52 25L52 26L53 26L53 27L54 27L54 26L53 26L53 23L50 23L50 22L51 22L51 21L49 21L49 19L50 19L50 18L51 18L51 19L52 19L52 18L51 18L51 17L53 17L53 18L55 18L55 17L53 17L53 15L50 15L50 14L51 14L51 12L50 12L50 14L49 14L49 15L48 15L48 16L45 16L45 14L47 14L47 13L49 13L49 12L48 12L48 9L45 9L45 8L46 8L46 6L45 6L45 5L47 5L47 3L44 3L44 6L43 6L43 5L40 5L40 6L39 6L39 7L40 7L40 8L39 8L39 9L38 9L38 8L37 8L37 7L36 7L36 5L37 5L37 4L36 4L36 5L35 5L35 3L32 3L32 2L33 2L33 1L32 1L32 2L31 2L31 1ZM46 1L46 2L47 2L47 1ZM31 3L31 4L32 4L32 5L33 5L33 4L32 4L32 3ZM15 4L15 5L16 5L16 4ZM27 5L27 8L30 8L30 5ZM34 5L34 7L33 7L33 6L32 6L32 7L33 7L33 9L34 9L34 8L35 8L35 9L37 9L37 10L36 10L36 11L35 11L35 13L37 13L37 14L38 14L38 15L39 15L39 16L38 16L38 17L37 17L37 16L35 16L35 14L33 14L33 13L34 13L34 12L33 12L33 13L32 13L32 12L31 12L31 13L30 13L30 14L29 14L29 13L28 13L28 14L29 14L29 16L28 16L28 15L27 15L27 14L25 14L25 12L23 12L23 10L22 10L22 9L21 9L21 10L22 10L22 11L21 11L21 12L20 12L20 13L19 13L19 10L20 10L20 9L19 9L19 8L16 8L16 9L19 9L19 10L18 10L18 11L17 11L17 10L16 10L16 11L17 11L17 12L16 12L16 13L15 13L15 14L14 14L14 16L13 16L13 17L11 17L11 16L12 16L12 15L10 15L10 17L11 17L11 18L13 18L13 17L14 17L14 18L15 18L15 19L16 19L16 17L18 17L18 18L17 18L17 19L21 19L21 20L24 20L24 21L23 21L23 22L22 22L22 21L21 21L21 23L23 23L23 25L22 25L22 26L21 26L21 27L22 27L22 26L23 26L23 30L24 30L24 31L20 31L20 32L16 32L16 33L17 33L17 35L15 35L15 36L18 36L18 37L17 37L17 40L16 40L16 39L15 39L15 41L14 41L14 39L13 39L13 42L14 42L14 43L15 43L15 44L13 44L13 43L12 43L12 44L13 44L13 45L15 45L15 44L18 44L18 45L17 45L17 48L16 48L16 49L17 49L17 50L18 50L18 51L19 51L19 50L20 50L20 49L19 49L19 48L20 48L20 47L23 47L23 46L25 46L25 44L27 44L27 45L28 45L28 44L30 44L30 45L32 45L32 46L33 46L33 47L32 47L32 48L33 48L33 49L36 49L36 50L38 50L38 51L37 51L37 52L38 52L38 51L40 51L40 52L41 52L41 50L38 50L38 49L39 49L39 48L41 48L41 46L43 46L43 45L44 45L44 48L48 48L48 47L49 47L49 46L51 46L51 45L49 45L49 44L48 44L48 45L49 45L49 46L48 46L48 47L47 47L47 46L45 46L45 45L47 45L47 43L48 43L48 42L47 42L47 43L46 43L46 42L44 42L44 41L43 41L43 40L45 40L45 39L46 39L46 41L47 41L47 39L50 39L50 38L49 38L49 37L52 37L52 35L53 35L53 34L52 34L52 35L50 35L50 34L48 34L48 35L44 35L44 36L42 36L42 34L45 34L45 33L43 33L43 32L41 32L41 33L39 33L39 34L40 34L40 35L39 35L39 37L40 37L40 38L41 38L41 41L39 41L39 42L38 42L38 40L39 40L39 38L38 38L38 37L37 37L37 36L38 36L38 33L37 33L37 32L35 32L35 31L36 31L36 30L31 30L31 29L32 29L32 27L33 27L33 28L35 28L35 29L38 29L38 28L40 28L40 27L41 27L41 28L42 28L42 26L43 26L43 28L45 28L45 27L46 27L46 26L45 26L45 27L44 27L44 24L41 24L41 22L42 22L42 23L44 23L44 20L45 20L45 21L46 21L46 20L47 20L47 18L50 18L50 17L49 17L49 16L50 16L50 15L49 15L49 16L48 16L48 17L47 17L47 18L46 18L46 20L45 20L45 18L44 18L44 15L42 15L42 16L41 16L41 14L44 14L44 12L43 12L43 13L41 13L41 14L40 14L40 15L39 15L39 14L38 14L38 13L40 13L40 12L41 12L41 11L45 11L45 12L47 12L47 10L44 10L44 7L45 7L45 6L44 6L44 7L43 7L43 6L42 6L42 7L41 7L41 6L40 6L40 7L41 7L41 8L42 8L42 9L39 9L39 11L37 11L37 10L38 10L38 9L37 9L37 8L35 8L35 5ZM18 6L18 7L19 7L19 6ZM21 6L21 7L22 7L22 6ZM28 6L28 7L29 7L29 6ZM48 6L48 7L49 7L49 6ZM51 8L51 10L53 10L53 9L54 9L54 8L53 8L53 9L52 9L52 8ZM55 8L55 9L56 9L56 8ZM6 9L6 10L7 10L7 9ZM3 10L3 11L2 11L2 12L3 12L3 11L4 11L4 10ZM10 10L10 11L9 11L9 12L6 12L6 13L9 13L9 14L10 14L10 13L11 13L11 12L10 12L10 11L12 11L12 12L13 12L13 11L12 11L12 10ZM32 10L32 11L33 11L33 10ZM39 11L39 12L40 12L40 11ZM55 11L55 12L54 12L54 13L53 13L53 12L52 12L52 13L53 13L53 14L56 14L56 11ZM9 12L9 13L10 13L10 12ZM17 12L17 13L16 13L16 16L14 16L14 17L16 17L16 16L17 16L17 13L18 13L18 12ZM21 12L21 13L20 13L20 14L19 14L19 17L20 17L20 18L21 18L21 19L22 19L22 17L25 17L25 19L26 19L26 20L25 20L25 21L24 21L24 22L23 22L23 23L24 23L24 24L25 24L25 25L26 25L26 26L25 26L25 27L24 27L24 28L25 28L25 29L26 29L26 28L25 28L25 27L26 27L26 26L27 26L27 25L28 25L28 26L30 26L30 25L29 25L29 23L28 23L28 24L25 24L25 23L26 23L26 22L25 22L25 21L29 21L29 20L31 20L31 18L30 18L30 19L29 19L29 20L27 20L27 19L28 19L28 18L27 18L27 19L26 19L26 16L27 16L27 17L28 17L28 16L27 16L27 15L26 15L26 16L24 16L24 15L25 15L25 14L24 14L24 15L21 15L21 16L22 16L22 17L20 17L20 14L21 14L21 13L22 13L22 14L23 14L23 13L22 13L22 12ZM31 13L31 14L30 14L30 15L32 15L32 18L34 18L34 19L36 19L36 20L37 20L37 19L39 19L39 17L41 17L41 16L39 16L39 17L38 17L38 18L37 18L37 17L35 17L35 16L33 16L33 15L32 15L32 13ZM6 14L6 15L7 15L7 16L6 16L6 17L7 17L7 18L8 18L8 20L6 20L6 21L7 21L7 22L8 22L8 23L7 23L7 24L6 24L6 25L7 25L7 24L9 24L9 25L10 25L10 24L9 24L9 22L8 22L8 20L12 20L12 21L13 21L13 23L14 23L14 24L13 24L13 25L12 25L12 24L11 24L11 25L12 25L12 26L11 26L11 27L14 27L14 26L15 26L15 28L16 28L16 29L15 29L15 30L14 30L14 31L13 31L13 32L12 32L12 33L14 33L14 34L15 34L15 33L14 33L14 31L16 31L16 29L18 29L18 30L20 30L20 29L18 29L18 28L17 28L17 27L18 27L18 26L15 26L15 25L21 25L21 24L17 24L17 22L19 22L19 23L20 23L20 22L19 22L19 21L20 21L20 20L17 20L17 21L16 21L16 20L15 20L15 21L16 21L16 22L15 22L15 23L14 23L14 21L13 21L13 20L14 20L14 19L10 19L10 18L8 18L8 17L7 17L7 16L9 16L9 15L7 15L7 14ZM42 16L42 17L43 17L43 16ZM23 18L23 19L24 19L24 18ZM41 18L41 19L42 19L42 20L44 20L44 18L43 18L43 19L42 19L42 18ZM32 20L32 21L31 21L31 22L30 22L30 23L31 23L31 24L32 24L32 26L31 26L31 27L32 27L32 26L33 26L33 27L34 27L34 26L36 26L36 27L35 27L35 28L37 28L37 27L39 27L39 25L41 25L41 26L42 26L42 25L41 25L41 24L39 24L39 23L40 23L40 22L39 22L39 21L41 21L41 20L38 20L38 22L37 22L37 24L39 24L39 25L38 25L38 26L37 26L37 25L33 25L33 24L32 24L32 23L35 23L35 21L33 21L33 20ZM47 21L47 22L45 22L45 23L46 23L46 24L45 24L45 25L46 25L46 24L47 24L47 25L48 25L48 23L49 23L49 21ZM10 22L10 23L11 23L11 22ZM15 23L15 24L16 24L16 23ZM2 24L2 25L1 25L1 26L2 26L2 25L3 25L3 26L4 26L4 25L3 25L3 24ZM55 25L55 26L56 26L56 25ZM19 26L19 27L20 27L20 26ZM5 27L5 30L8 30L8 27ZM27 27L27 30L30 30L30 27ZM49 27L49 30L52 30L52 27ZM55 27L55 28L54 28L54 29L53 29L53 30L54 30L54 29L55 29L55 28L56 28L56 27ZM6 28L6 29L7 29L7 28ZM21 28L21 29L22 29L22 28ZM28 28L28 29L29 29L29 28ZM50 28L50 29L51 29L51 28ZM2 30L2 31L4 31L4 30ZM38 30L38 32L39 32L39 30ZM40 30L40 31L41 31L41 30ZM25 31L25 32L21 32L21 33L18 33L18 34L20 34L20 35L21 35L21 36L19 36L19 37L18 37L18 38L19 38L19 39L18 39L18 40L17 40L17 41L15 41L15 42L17 42L17 43L18 43L18 42L19 42L19 45L20 45L20 46L19 46L19 47L18 47L18 48L19 48L19 47L20 47L20 46L21 46L21 45L22 45L22 46L23 46L23 45L24 45L24 44L25 44L25 43L27 43L27 42L30 42L30 41L27 41L27 40L26 40L26 37L25 37L25 40L24 40L24 39L23 39L23 38L24 38L24 37L23 37L23 36L24 36L24 34L23 34L23 33L25 33L25 34L26 34L26 35L27 35L27 37L28 37L28 38L27 38L27 39L28 39L28 40L32 40L32 41L31 41L31 42L32 42L32 43L31 43L31 44L32 44L32 45L33 45L33 46L35 46L35 47L33 47L33 48L36 48L36 47L37 47L37 45L36 45L36 46L35 46L35 45L34 45L34 43L35 43L35 44L36 44L36 43L37 43L37 42L35 42L35 40L38 40L38 38L37 38L37 39L35 39L35 40L33 40L33 39L34 39L34 38L35 38L35 36L37 36L37 34L35 34L35 32L34 32L34 31L30 31L30 32L29 32L29 33L28 33L28 32L26 32L26 31ZM47 31L47 32L48 32L48 33L49 33L49 32L48 32L48 31ZM25 32L25 33L26 33L26 32ZM31 32L31 33L29 33L29 34L30 34L30 36L29 36L29 37L31 37L31 38L29 38L29 39L33 39L33 38L34 38L34 37L32 37L32 36L35 36L35 35L34 35L34 34L33 34L33 35L31 35L31 34L32 34L32 32ZM55 32L55 33L56 33L56 32ZM21 33L21 34L22 34L22 33ZM6 34L6 35L7 35L7 36L6 36L6 37L7 37L7 36L8 36L8 37L9 37L9 35L7 35L7 34ZM10 35L10 36L11 36L11 35ZM12 35L12 37L11 37L11 39L12 39L12 38L13 38L13 37L14 37L14 36L13 36L13 35ZM48 35L48 36L47 36L47 37L46 37L46 36L44 36L44 37L43 37L43 38L42 38L42 39L45 39L45 38L46 38L46 39L47 39L47 37L48 37L48 36L50 36L50 35ZM2 36L2 37L1 37L1 38L2 38L2 40L3 40L3 39L4 39L4 38L2 38L2 37L3 37L3 36ZM40 36L40 37L41 37L41 36ZM15 37L15 38L16 38L16 37ZM19 37L19 38L20 38L20 39L19 39L19 40L18 40L18 41L17 41L17 42L18 42L18 41L19 41L19 42L20 42L20 45L21 45L21 44L22 44L22 45L23 45L23 44L24 44L24 43L25 43L25 41L23 41L23 42L22 42L22 43L21 43L21 42L20 42L20 40L21 40L21 37ZM44 37L44 38L45 38L45 37ZM22 39L22 40L23 40L23 39ZM6 41L6 42L7 42L7 43L6 43L6 44L8 44L8 45L6 45L6 46L8 46L8 45L9 45L9 44L8 44L8 43L9 43L9 42L7 42L7 41ZM26 41L26 42L27 42L27 41ZM32 41L32 42L33 42L33 43L32 43L32 44L33 44L33 43L34 43L34 42L33 42L33 41ZM23 42L23 43L24 43L24 42ZM40 42L40 43L41 43L41 44L39 44L39 45L38 45L38 46L39 46L39 47L38 47L38 48L37 48L37 49L38 49L38 48L39 48L39 47L40 47L40 46L39 46L39 45L41 45L41 44L42 44L42 42ZM43 42L43 44L44 44L44 45L45 45L45 44L46 44L46 43L44 43L44 42ZM51 42L51 43L50 43L50 44L51 44L51 43L53 43L53 42ZM3 43L3 44L4 44L4 43ZM54 44L54 45L55 45L55 46L56 46L56 45L55 45L55 44ZM1 46L1 47L2 47L2 46ZM14 46L14 47L12 47L12 48L14 48L14 47L15 47L15 46ZM10 47L10 48L11 48L11 47ZM28 47L28 48L29 48L29 47ZM42 47L42 48L43 48L43 47ZM14 49L14 50L15 50L15 49ZM27 49L27 52L30 52L30 49ZM49 49L49 52L52 52L52 49ZM28 50L28 51L29 51L29 50ZM50 50L50 51L51 51L51 50ZM54 50L54 51L55 51L55 50ZM45 51L45 52L44 52L44 53L43 53L43 54L44 54L44 53L45 53L45 52L46 52L46 51ZM33 53L33 55L35 55L35 56L36 56L36 54L35 54L35 53ZM25 54L25 55L26 55L26 54ZM41 54L41 55L42 55L42 54ZM54 54L54 55L53 55L53 56L55 56L55 57L56 57L56 56L55 56L55 54ZM50 55L50 56L51 56L51 55ZM20 56L20 57L21 57L21 56ZM25 56L25 57L26 57L26 56ZM46 56L46 57L47 57L47 56ZM0 0L0 7L7 7L7 0ZM1 1L1 6L6 6L6 1ZM2 2L2 5L5 5L5 2ZM50 0L50 7L57 7L57 0ZM51 1L51 6L56 6L56 1ZM52 2L52 5L55 5L55 2ZM0 50L0 57L7 57L7 50ZM1 51L1 56L6 56L6 51ZM2 52L2 55L5 55L5 52Z" fill="#000000"/></g></g></svg>
