<?xml version="1.0" encoding="UTF-8"?>
<svg xmlns="http://www.w3.org/2000/svg" version="1.1" width="300" height="300" viewBox="0 0 300 300"><rect x="0" y="0" width="300" height="300" fill="#fefefe"/><g transform="scale(4.615)"><g transform="translate(4,4)"><path fill-rule="evenodd" d="M8 0L8 4L9 4L9 5L8 5L8 7L9 7L9 6L10 6L10 7L11 7L11 8L12 8L12 9L10 9L10 8L9 8L9 9L7 9L7 8L4 8L4 10L3 10L3 9L2 9L2 8L0 8L0 11L1 11L1 13L0 13L0 16L1 16L1 18L0 18L0 26L2 26L2 27L1 27L1 28L2 28L2 27L4 27L4 28L3 28L3 29L2 29L2 30L1 30L1 29L0 29L0 31L1 31L1 32L0 32L0 33L2 33L2 34L1 34L1 35L0 35L0 39L1 39L1 40L0 40L0 43L1 43L1 44L2 44L2 42L1 42L1 40L2 40L2 41L3 41L3 43L4 43L4 46L5 46L5 47L3 47L3 45L2 45L2 47L1 47L1 45L0 45L0 48L5 48L5 47L7 47L7 48L6 48L6 49L7 49L7 48L9 48L9 49L8 49L8 50L9 50L9 51L8 51L8 53L9 53L9 55L8 55L8 57L10 57L10 56L11 56L11 55L10 55L10 54L12 54L12 53L13 53L13 55L14 55L14 57L15 57L15 55L16 55L16 54L17 54L17 57L22 57L22 56L18 56L18 55L20 55L20 54L21 54L21 53L22 53L22 54L23 54L23 55L24 55L24 56L25 56L25 55L26 55L26 53L28 53L28 57L29 57L29 55L30 55L30 57L34 57L34 55L35 55L35 57L37 57L37 56L36 56L36 54L37 54L37 53L38 53L38 55L39 55L39 57L40 57L40 56L41 56L41 55L40 55L40 54L43 54L43 55L42 55L42 56L44 56L44 57L47 57L47 54L46 54L46 53L47 53L47 52L48 52L48 54L49 54L49 55L48 55L48 57L50 57L50 55L51 55L51 56L53 56L53 57L54 57L54 55L53 55L53 54L57 54L57 51L56 51L56 50L57 50L57 49L56 49L56 44L57 44L57 43L56 43L56 42L57 42L57 40L54 40L54 41L53 41L53 38L54 38L54 39L57 39L57 38L55 38L55 36L53 36L53 35L56 35L56 34L57 34L57 33L56 33L56 30L55 30L55 29L54 29L54 28L53 28L53 27L54 27L54 26L55 26L55 27L56 27L56 29L57 29L57 27L56 27L56 25L57 25L57 24L56 24L56 20L57 20L57 19L56 19L56 18L57 18L57 15L56 15L56 12L57 12L57 11L56 11L56 10L57 10L57 8L53 8L53 9L52 9L52 8L51 8L51 9L50 9L50 10L49 10L49 9L48 9L48 8L47 8L47 5L48 5L48 0L46 0L46 1L47 1L47 2L45 2L45 0L41 0L41 1L40 1L40 2L38 2L38 1L39 1L39 0L38 0L38 1L37 1L37 2L36 2L36 0L35 0L35 1L34 1L34 0L28 0L28 1L27 1L27 0L26 0L26 1L25 1L25 0L23 0L23 2L22 2L22 1L21 1L21 0L20 0L20 2L21 2L21 3L22 3L22 7L21 7L21 6L20 6L20 5L19 5L19 4L17 4L17 3L16 3L16 4L17 4L17 6L16 6L16 5L15 5L15 4L14 4L14 1L15 1L15 2L19 2L19 0L17 0L17 1L16 1L16 0L14 0L14 1L13 1L13 0L11 0L11 1L12 1L12 4L9 4L9 3L10 3L10 0ZM26 1L26 2L25 2L25 3L23 3L23 5L24 5L24 4L25 4L25 3L26 3L26 4L28 4L28 3L29 3L29 4L31 4L31 3L32 3L32 5L35 5L35 7L34 7L34 6L33 6L33 7L32 7L32 6L31 6L31 10L29 10L29 11L28 11L28 10L27 10L27 9L26 9L26 6L25 6L25 7L24 7L24 6L23 6L23 7L22 7L22 10L20 10L20 9L18 9L18 11L17 11L17 9L16 9L16 8L15 8L15 7L16 7L16 6L15 6L15 5L13 5L13 4L12 4L12 5L11 5L11 7L12 7L12 8L13 8L13 9L14 9L14 8L15 8L15 9L16 9L16 11L15 11L15 12L14 12L14 11L12 11L12 10L10 10L10 11L9 11L9 10L7 10L7 9L6 9L6 10L4 10L4 11L2 11L2 9L1 9L1 11L2 11L2 13L3 13L3 14L1 14L1 16L2 16L2 18L1 18L1 19L2 19L2 18L4 18L4 16L5 16L5 15L6 15L6 16L7 16L7 17L6 17L6 18L5 18L5 19L3 19L3 20L1 20L1 21L3 21L3 22L2 22L2 23L1 23L1 25L2 25L2 26L3 26L3 25L5 25L5 26L8 26L8 25L9 25L9 30L10 30L10 31L9 31L9 32L8 32L8 31L6 31L6 32L8 32L8 33L4 33L4 32L2 32L2 33L3 33L3 34L2 34L2 36L1 36L1 37L3 37L3 38L1 38L1 39L2 39L2 40L3 40L3 41L4 41L4 42L5 42L5 43L6 43L6 44L7 44L7 45L5 45L5 46L7 46L7 47L9 47L9 48L12 48L12 50L13 50L13 53L14 53L14 54L15 54L15 53L17 53L17 49L16 49L16 46L17 46L17 45L18 45L18 44L19 44L19 43L20 43L20 44L21 44L21 43L22 43L22 44L23 44L23 43L24 43L24 45L25 45L25 43L28 43L28 44L29 44L29 43L30 43L30 44L31 44L31 42L29 42L29 40L28 40L28 42L27 42L27 41L26 41L26 42L25 42L25 43L24 43L24 41L25 41L25 40L26 40L26 38L27 38L27 39L28 39L28 38L29 38L29 39L31 39L31 41L32 41L32 43L33 43L33 44L37 44L37 46L38 46L38 45L39 45L39 44L40 44L40 51L38 51L38 49L39 49L39 47L38 47L38 49L37 49L37 51L38 51L38 53L39 53L39 52L40 52L40 53L41 53L41 43L40 43L40 42L41 42L41 40L40 40L40 38L38 38L38 37L44 37L44 38L43 38L43 39L46 39L46 40L45 40L45 41L46 41L46 42L44 42L44 40L43 40L43 42L42 42L42 44L43 44L43 46L44 46L44 47L42 47L42 49L44 49L44 48L45 48L45 49L46 49L46 52L45 52L45 53L44 53L44 52L42 52L42 53L44 53L44 56L46 56L46 54L45 54L45 53L46 53L46 52L47 52L47 49L48 49L48 47L51 47L51 46L48 46L48 45L49 45L49 44L50 44L50 45L51 45L51 44L52 44L52 46L53 46L53 47L52 47L52 48L53 48L53 49L55 49L55 50L56 50L56 49L55 49L55 46L53 46L53 44L54 44L54 45L55 45L55 44L56 44L56 43L55 43L55 42L56 42L56 41L55 41L55 42L54 42L54 43L53 43L53 41L52 41L52 40L47 40L47 39L48 39L48 38L49 38L49 39L52 39L52 38L53 38L53 36L52 36L52 38L51 38L51 37L49 37L49 36L50 36L50 35L53 35L53 34L54 34L54 32L55 32L55 31L53 31L53 33L51 33L51 32L50 32L50 35L49 35L49 33L48 33L48 31L47 31L47 30L48 30L48 29L46 29L46 28L47 28L47 27L48 27L48 25L50 25L50 22L49 22L49 24L48 24L48 25L47 25L47 21L48 21L48 20L49 20L49 21L51 21L51 22L52 22L52 23L51 23L51 24L52 24L52 26L53 26L53 24L55 24L55 25L56 25L56 24L55 24L55 23L53 23L53 22L52 22L52 21L54 21L54 22L55 22L55 20L56 20L56 19L55 19L55 17L56 17L56 16L55 16L55 15L54 15L54 14L55 14L55 9L53 9L53 10L54 10L54 11L52 11L52 12L51 12L51 14L52 14L52 17L51 17L51 16L50 16L50 11L48 11L48 12L47 12L47 10L48 10L48 9L46 9L46 6L45 6L45 7L44 7L44 4L45 4L45 5L47 5L47 3L44 3L44 2L43 2L43 3L44 3L44 4L43 4L43 7L42 7L42 6L41 6L41 5L39 5L39 7L40 7L40 6L41 6L41 8L40 8L40 9L39 9L39 8L38 8L38 9L35 9L35 7L36 7L36 5L38 5L38 4L40 4L40 3L41 3L41 2L40 2L40 3L38 3L38 4L37 4L37 3L36 3L36 2L34 2L34 1L31 1L31 3L30 3L30 2L29 2L29 1L28 1L28 2L27 2L27 1ZM32 2L32 3L33 3L33 2ZM34 3L34 4L35 4L35 5L36 5L36 4L35 4L35 3ZM18 5L18 6L17 6L17 8L19 8L19 7L20 7L20 6L19 6L19 5ZM27 5L27 8L30 8L30 5ZM12 6L12 7L13 7L13 6ZM14 6L14 7L15 7L15 6ZM18 6L18 7L19 7L19 6ZM28 6L28 7L29 7L29 6ZM37 6L37 7L38 7L38 6ZM48 6L48 7L49 7L49 6ZM23 7L23 8L24 8L24 7ZM33 7L33 8L32 8L32 13L30 13L30 15L32 15L32 18L34 18L34 19L31 19L31 16L29 16L29 13L26 13L26 11L27 11L27 12L28 12L28 11L27 11L27 10L25 10L25 9L23 9L23 11L24 11L24 13L23 13L23 12L22 12L22 11L20 11L20 10L19 10L19 12L18 12L18 13L17 13L17 11L16 11L16 12L15 12L15 13L13 13L13 12L11 12L11 11L10 11L10 12L8 12L8 13L7 13L7 12L4 12L4 14L3 14L3 15L5 15L5 14L6 14L6 15L8 15L8 13L9 13L9 15L10 15L10 17L11 17L11 18L10 18L10 19L11 19L11 20L10 20L10 21L11 21L11 22L12 22L12 23L11 23L11 24L9 24L9 25L11 25L11 24L12 24L12 25L14 25L14 24L15 24L15 26L14 26L14 27L13 27L13 26L10 26L10 28L11 28L11 27L13 27L13 28L14 28L14 29L13 29L13 30L11 30L11 33L10 33L10 32L9 32L9 33L10 33L10 34L11 34L11 35L9 35L9 34L8 34L8 35L7 35L7 34L5 34L5 36L4 36L4 37L7 37L7 38L5 38L5 40L4 40L4 41L5 41L5 42L6 42L6 43L7 43L7 44L9 44L9 47L15 47L15 46L16 46L16 44L15 44L15 43L14 43L14 40L15 40L15 41L20 41L20 42L21 42L21 41L22 41L22 40L23 40L23 41L24 41L24 39L23 39L23 38L22 38L22 36L20 36L20 35L19 35L19 36L17 36L17 37L21 37L21 38L20 38L20 39L17 39L17 38L16 38L16 39L14 39L14 38L15 38L15 37L16 37L16 36L15 36L15 34L13 34L13 33L12 33L12 31L13 31L13 32L14 32L14 33L17 33L17 34L16 34L16 35L17 35L17 34L18 34L18 33L20 33L20 34L21 34L21 35L23 35L23 37L24 37L24 38L26 38L26 37L28 37L28 36L29 36L29 37L31 37L31 36L32 36L32 37L33 37L33 38L31 38L31 39L33 39L33 40L32 40L32 41L33 41L33 43L37 43L37 44L39 44L39 41L40 41L40 40L39 40L39 39L38 39L38 42L37 42L37 39L35 39L35 38L37 38L37 37L38 37L38 36L40 36L40 35L38 35L38 34L39 34L39 33L40 33L40 34L42 34L42 35L44 35L44 37L45 37L45 38L46 38L46 39L47 39L47 38L46 38L46 37L47 37L47 36L49 36L49 35L48 35L48 34L46 34L46 30L45 30L45 26L46 26L46 27L47 27L47 26L46 26L46 25L45 25L45 24L44 24L44 25L40 25L40 23L39 23L39 21L40 21L40 22L43 22L43 23L44 23L44 22L46 22L46 19L47 19L47 18L48 18L48 19L49 19L49 20L51 20L51 21L52 21L52 20L53 20L53 19L52 19L52 18L53 18L53 17L55 17L55 16L53 16L53 17L52 17L52 18L51 18L51 17L50 17L50 16L49 16L49 15L48 15L48 17L47 17L47 18L46 18L46 9L45 9L45 8L44 8L44 7L43 7L43 8L42 8L42 9L40 9L40 10L39 10L39 9L38 9L38 11L37 11L37 12L36 12L36 10L34 10L34 9L33 9L33 8L34 8L34 7ZM43 8L43 10L42 10L42 11L43 11L43 10L44 10L44 8ZM51 9L51 10L52 10L52 9ZM6 10L6 11L7 11L7 10ZM33 10L33 13L32 13L32 14L33 14L33 13L34 13L34 18L37 18L37 19L39 19L39 18L40 18L40 21L41 21L41 20L42 20L42 21L43 21L43 22L44 22L44 16L45 16L45 14L44 14L44 16L43 16L43 15L42 15L42 17L43 17L43 18L42 18L42 19L41 19L41 18L40 18L40 17L41 17L41 15L40 15L40 17L39 17L39 15L38 15L38 13L39 13L39 14L40 14L40 13L44 13L44 12L45 12L45 11L44 11L44 12L41 12L41 10L40 10L40 13L39 13L39 12L37 12L37 14L36 14L36 13L35 13L35 12L34 12L34 10ZM29 11L29 12L31 12L31 11ZM19 12L19 14L17 14L17 13L15 13L15 14L17 14L17 16L18 16L18 15L19 15L19 14L20 14L20 16L19 16L19 17L16 17L16 16L15 16L15 15L14 15L14 16L13 16L13 15L12 15L12 14L13 14L13 13L10 13L10 14L11 14L11 17L12 17L12 18L11 18L11 19L14 19L14 20L15 20L15 21L18 21L18 22L19 22L19 21L20 21L20 20L21 20L21 19L20 19L20 16L21 16L21 17L26 17L26 18L27 18L27 19L26 19L26 20L25 20L25 18L24 18L24 19L23 19L23 18L22 18L22 19L23 19L23 20L22 20L22 21L21 21L21 22L20 22L20 23L19 23L19 24L20 24L20 25L19 25L19 27L20 27L20 28L18 28L18 29L14 29L14 30L13 30L13 31L14 31L14 32L16 32L16 31L14 31L14 30L17 30L17 31L18 31L18 32L17 32L17 33L18 33L18 32L19 32L19 31L18 31L18 29L22 29L22 30L20 30L20 32L21 32L21 31L22 31L22 33L21 33L21 34L23 34L23 33L26 33L26 34L24 34L24 36L25 36L25 35L26 35L26 36L28 36L28 34L29 34L29 33L31 33L31 34L30 34L30 36L31 36L31 34L32 34L32 35L34 35L34 38L33 38L33 39L34 39L34 42L35 42L35 39L34 39L34 38L35 38L35 35L34 35L34 34L35 34L35 33L34 33L34 32L33 32L33 33L34 33L34 34L32 34L32 31L33 31L33 30L32 30L32 31L31 31L31 32L30 32L30 31L29 31L29 33L28 33L28 34L27 34L27 32L26 32L26 31L24 31L24 32L23 32L23 31L22 31L22 30L23 30L23 29L24 29L24 28L25 28L25 27L26 27L26 25L25 25L25 26L23 26L23 28L22 28L22 27L20 27L20 25L24 25L24 23L23 23L23 24L22 24L22 22L23 22L23 21L24 21L24 22L25 22L25 23L26 23L26 22L27 22L27 23L28 23L28 25L27 25L27 26L28 26L28 25L29 25L29 26L30 26L30 25L29 25L29 23L30 23L30 24L31 24L31 29L32 29L32 28L33 28L33 27L34 27L34 31L35 31L35 30L37 30L37 32L38 32L38 30L37 30L37 29L38 29L38 28L37 28L37 27L39 27L39 28L40 28L40 29L39 29L39 30L40 30L40 31L39 31L39 32L40 32L40 33L41 33L41 32L40 32L40 31L41 31L41 30L40 30L40 29L43 29L43 30L44 30L44 31L45 31L45 30L44 30L44 29L43 29L43 28L42 28L42 27L41 27L41 26L40 26L40 25L39 25L39 26L38 26L38 20L37 20L37 22L35 22L35 20L36 20L36 19L35 19L35 20L34 20L34 22L31 22L31 23L30 23L30 21L29 21L29 20L28 20L28 19L30 19L30 18L28 18L28 17L26 17L26 16L27 16L27 15L28 15L28 14L27 14L27 15L26 15L26 16L24 16L24 15L25 15L25 14L26 14L26 13L25 13L25 14L23 14L23 13L21 13L21 14L20 14L20 12ZM53 12L53 13L52 13L52 14L54 14L54 12ZM6 13L6 14L7 14L7 13ZM47 13L47 14L49 14L49 13ZM21 14L21 15L22 15L22 16L23 16L23 15L22 15L22 14ZM35 15L35 17L38 17L38 18L39 18L39 17L38 17L38 16L37 16L37 15ZM12 16L12 17L13 17L13 18L14 18L14 17L15 17L15 18L16 18L16 19L15 19L15 20L16 20L16 19L17 19L17 18L16 18L16 17L15 17L15 16L14 16L14 17L13 17L13 16ZM8 17L8 18L6 18L6 19L5 19L5 20L3 20L3 21L4 21L4 24L5 24L5 21L7 21L7 20L6 20L6 19L8 19L8 20L9 20L9 19L8 19L8 18L9 18L9 17ZM49 17L49 19L50 19L50 17ZM45 18L45 19L46 19L46 18ZM18 19L18 21L19 21L19 20L20 20L20 19ZM12 20L12 21L13 21L13 22L14 22L14 23L15 23L15 24L16 24L16 27L18 27L18 25L17 25L17 22L16 22L16 23L15 23L15 22L14 22L14 21L13 21L13 20ZM24 20L24 21L25 21L25 20ZM26 20L26 21L27 21L27 22L28 22L28 23L29 23L29 21L28 21L28 20ZM31 20L31 21L32 21L32 20ZM6 22L6 23L7 23L7 24L6 24L6 25L7 25L7 24L8 24L8 23L9 23L9 22ZM34 22L34 23L32 23L32 27L33 27L33 26L34 26L34 25L37 25L37 24L34 24L34 23L35 23L35 22ZM12 23L12 24L13 24L13 23ZM41 23L41 24L42 24L42 23ZM52 23L52 24L53 24L53 23ZM33 24L33 25L34 25L34 24ZM36 26L36 27L35 27L35 29L37 29L37 28L36 28L36 27L37 27L37 26ZM39 26L39 27L40 27L40 28L41 28L41 27L40 27L40 26ZM43 26L43 27L44 27L44 26ZM5 27L5 30L8 30L8 27ZM14 27L14 28L15 28L15 27ZM27 27L27 30L30 30L30 27ZM49 27L49 30L52 30L52 27ZM6 28L6 29L7 29L7 28ZM28 28L28 29L29 29L29 28ZM50 28L50 29L51 29L51 28ZM25 29L25 30L26 30L26 29ZM53 29L53 30L54 30L54 29ZM3 30L3 31L4 31L4 30ZM37 33L37 34L38 34L38 33ZM43 33L43 34L44 34L44 35L46 35L46 36L45 36L45 37L46 37L46 36L47 36L47 35L46 35L46 34L44 34L44 33ZM12 34L12 35L11 35L11 36L9 36L9 35L8 35L8 36L9 36L9 37L10 37L10 38L8 38L8 40L7 40L7 39L6 39L6 40L5 40L5 41L6 41L6 42L7 42L7 41L8 41L8 42L9 42L9 41L10 41L10 40L11 40L11 39L12 39L12 40L14 40L14 39L13 39L13 37L14 37L14 36L12 36L12 35L13 35L13 34ZM26 34L26 35L27 35L27 34ZM6 35L6 36L7 36L7 35ZM37 35L37 36L38 36L38 35ZM11 36L11 38L10 38L10 39L11 39L11 38L12 38L12 36ZM56 36L56 37L57 37L57 36ZM3 38L3 39L4 39L4 38ZM6 40L6 41L7 41L7 40ZM8 40L8 41L9 41L9 40ZM46 40L46 41L47 41L47 40ZM11 41L11 44L10 44L10 45L11 45L11 44L12 44L12 46L13 46L13 44L12 44L12 41ZM48 41L48 43L47 43L47 42L46 42L46 43L47 43L47 44L46 44L46 45L45 45L45 44L44 44L44 42L43 42L43 44L44 44L44 45L45 45L45 47L46 47L46 49L47 49L47 47L48 47L48 46L47 46L47 47L46 47L46 45L47 45L47 44L49 44L49 43L50 43L50 44L51 44L51 43L52 43L52 44L53 44L53 43L52 43L52 41L51 41L51 43L50 43L50 42L49 42L49 41ZM16 42L16 43L18 43L18 42ZM28 42L28 43L29 43L29 42ZM7 45L7 46L8 46L8 45ZM19 45L19 46L18 46L18 47L19 47L19 46L20 46L20 47L21 47L21 48L20 48L20 49L19 49L19 51L18 51L18 52L19 52L19 53L20 53L20 52L19 52L19 51L22 51L22 53L24 53L24 54L25 54L25 53L26 53L26 50L25 50L25 53L24 53L24 52L23 52L23 51L22 51L22 49L23 49L23 48L22 48L22 47L24 47L24 49L25 49L25 47L26 47L26 48L31 48L31 52L32 52L32 48L33 48L33 47L31 47L31 46L32 46L32 45L31 45L31 46L29 46L29 45L26 45L26 46L25 46L25 47L24 47L24 46L23 46L23 45L21 45L21 46L20 46L20 45ZM34 45L34 47L35 47L35 46L36 46L36 45ZM21 46L21 47L22 47L22 46ZM26 46L26 47L27 47L27 46ZM28 46L28 47L29 47L29 46ZM36 47L36 48L37 48L37 47ZM13 48L13 49L14 49L14 48ZM21 48L21 49L20 49L20 50L21 50L21 49L22 49L22 48ZM15 49L15 51L14 51L14 53L15 53L15 52L16 52L16 49ZM27 49L27 52L30 52L30 49ZM33 49L33 53L32 53L32 54L33 54L33 53L34 53L34 54L35 54L35 52L36 52L36 49ZM49 49L49 52L52 52L52 49ZM28 50L28 51L29 51L29 50ZM42 50L42 51L43 51L43 50ZM50 50L50 51L51 51L51 50ZM53 50L53 53L54 53L54 52L56 52L56 51L54 51L54 50ZM10 51L10 53L11 53L11 51ZM34 51L34 52L35 52L35 51ZM30 53L30 54L31 54L31 53ZM49 53L49 54L51 54L51 55L52 55L52 54L51 54L51 53ZM9 55L9 56L10 56L10 55ZM26 56L26 57L27 57L27 56ZM56 56L56 57L57 57L57 56ZM0 0L0 7L7 7L7 0ZM1 1L1 6L6 6L6 1ZM2 2L2 5L5 5L5 2ZM50 0L50 7L57 7L57 0ZM51 1L51 6L56 6L56 1ZM52 2L52 5L55 5L55 2ZM0 50L0 57L7 57L7 50ZM1 51L1 56L6 56L6 51ZM2 52L2 55L5 55L5 52Z" fill="#000000"/></g></g></svg>
