<?xml version="1.0" encoding="UTF-8"?>
<svg xmlns="http://www.w3.org/2000/svg" version="1.1" width="300" height="300" viewBox="0 0 300 300"><rect x="0" y="0" width="300" height="300" fill="#fefefe"/><g transform="scale(4.615)"><g transform="translate(4,4)"><path fill-rule="evenodd" d="M8 0L8 2L9 2L9 3L10 3L10 4L11 4L11 2L12 2L12 1L13 1L13 0L10 0L10 1L11 1L11 2L9 2L9 0ZM14 0L14 3L13 3L13 4L12 4L12 5L9 5L9 4L8 4L8 9L7 9L7 8L5 8L5 9L7 9L7 10L3 10L3 11L2 11L2 9L3 9L3 8L0 8L0 9L1 9L1 10L0 10L0 11L1 11L1 12L2 12L2 13L0 13L0 14L2 14L2 13L3 13L3 11L5 11L5 12L6 12L6 13L7 13L7 14L6 14L6 15L5 15L5 13L4 13L4 15L3 15L3 16L2 16L2 15L1 15L1 17L2 17L2 18L3 18L3 16L4 16L4 17L5 17L5 16L6 16L6 17L7 17L7 18L6 18L6 19L3 19L3 20L2 20L2 19L1 19L1 20L0 20L0 21L3 21L3 20L4 20L4 23L5 23L5 24L2 24L2 25L3 25L3 26L2 26L2 27L1 27L1 24L0 24L0 27L1 27L1 29L0 29L0 30L1 30L1 31L4 31L4 32L1 32L1 33L0 33L0 35L1 35L1 33L2 33L2 37L0 37L0 39L4 39L4 41L3 41L3 40L2 40L2 42L1 42L1 41L0 41L0 43L4 43L4 44L5 44L5 45L3 45L3 46L2 46L2 45L1 45L1 44L0 44L0 48L5 48L5 47L7 47L7 46L5 46L5 45L7 45L7 44L5 44L5 42L4 42L4 41L7 41L7 42L6 42L6 43L7 43L7 42L8 42L8 40L9 40L9 41L10 41L10 42L11 42L11 43L10 43L10 45L9 45L9 44L8 44L8 48L9 48L9 49L8 49L8 50L10 50L10 49L11 49L11 51L12 51L12 52L10 52L10 53L13 53L13 57L17 57L17 56L18 56L18 57L20 57L20 56L18 56L18 55L16 55L16 54L18 54L18 53L19 53L19 52L20 52L20 53L21 53L21 52L22 52L22 53L23 53L23 56L22 56L22 54L20 54L20 55L21 55L21 56L22 56L22 57L25 57L25 55L26 55L26 57L28 57L28 55L29 55L29 57L33 57L33 55L34 55L34 57L35 57L35 55L38 55L38 47L37 47L37 48L36 48L36 49L37 49L37 51L35 51L35 52L34 52L34 45L33 45L33 44L35 44L35 43L36 43L36 41L37 41L37 42L38 42L38 41L39 41L39 42L40 42L40 43L45 43L45 44L44 44L44 45L45 45L45 46L44 46L44 47L46 47L46 44L47 44L47 51L46 51L46 48L44 48L44 49L43 49L43 50L42 50L42 49L41 49L41 47L42 47L42 45L43 45L43 44L42 44L42 45L41 45L41 44L40 44L40 45L39 45L39 46L40 46L40 45L41 45L41 47L40 47L40 49L39 49L39 52L40 52L40 53L39 53L39 55L40 55L40 54L41 54L41 56L40 56L40 57L41 57L41 56L43 56L43 54L42 54L42 53L43 53L43 52L44 52L44 55L45 55L45 56L44 56L44 57L48 57L48 56L46 56L46 55L47 55L47 54L48 54L48 55L49 55L49 57L50 57L50 55L49 55L49 54L52 54L52 55L53 55L53 53L54 53L54 55L57 55L57 54L55 54L55 53L56 53L56 52L57 52L57 50L56 50L56 52L54 52L54 51L53 51L53 50L54 50L54 47L53 47L53 46L54 46L54 45L53 45L53 46L51 46L51 45L50 45L50 47L52 47L52 48L49 48L49 46L48 46L48 45L49 45L49 43L48 43L48 44L47 44L47 42L46 42L46 41L45 41L45 40L47 40L47 41L48 41L48 40L49 40L49 39L48 39L48 40L47 40L47 38L46 38L46 37L48 37L48 36L49 36L49 33L50 33L50 40L51 40L51 41L49 41L49 42L50 42L50 44L52 44L52 40L51 40L51 39L52 39L52 37L53 37L53 44L54 44L54 43L55 43L55 42L56 42L56 44L55 44L55 45L56 45L56 47L55 47L55 49L56 49L56 47L57 47L57 45L56 45L56 44L57 44L57 42L56 42L56 41L57 41L57 40L54 40L54 39L55 39L55 38L57 38L57 33L56 33L56 31L57 31L57 29L56 29L56 28L57 28L57 24L56 24L56 23L57 23L57 13L56 13L56 12L57 12L57 10L56 10L56 9L57 9L57 8L55 8L55 9L54 9L54 10L53 10L53 8L49 8L49 10L48 10L48 11L46 11L46 13L45 13L45 12L44 12L44 11L43 11L43 10L42 10L42 9L43 9L43 8L44 8L44 10L45 10L45 8L44 8L44 7L45 7L45 6L44 6L44 5L45 5L45 4L46 4L46 3L47 3L47 5L46 5L46 9L47 9L47 8L48 8L48 7L49 7L49 6L48 6L48 7L47 7L47 5L48 5L48 0L42 0L42 1L41 1L41 0L38 0L38 2L37 2L37 1L35 1L35 0L34 0L34 2L33 2L33 6L32 6L32 7L33 7L33 6L34 6L34 8L32 8L32 9L31 9L31 5L32 5L32 1L31 1L31 0L29 0L29 2L30 2L30 3L31 3L31 4L28 4L28 3L27 3L27 2L28 2L28 0L26 0L26 2L25 2L25 4L24 4L24 1L25 1L25 0L24 0L24 1L23 1L23 0L19 0L19 1L20 1L20 3L22 3L22 2L21 2L21 1L23 1L23 5L20 5L20 7L19 7L19 4L18 4L18 3L17 3L17 0L16 0L16 1L15 1L15 0ZM39 1L39 2L38 2L38 3L37 3L37 2L34 2L34 3L36 3L36 4L35 4L35 9L34 9L34 10L33 10L33 9L32 9L32 12L30 12L30 11L29 11L29 9L27 9L27 10L25 10L25 9L26 9L26 5L24 5L24 6L23 6L23 7L22 7L22 6L21 6L21 7L22 7L22 8L21 8L21 9L20 9L20 10L21 10L21 12L20 12L20 14L19 14L19 13L18 13L18 14L19 14L19 15L15 15L15 14L17 14L17 11L16 11L16 10L17 10L17 8L18 8L18 6L17 6L17 5L18 5L18 4L17 4L17 3L16 3L16 4L17 4L17 5L16 5L16 6L15 6L15 5L14 5L14 6L13 6L13 5L12 5L12 6L11 6L11 7L10 7L10 6L9 6L9 7L10 7L10 8L9 8L9 10L12 10L12 11L10 11L10 12L11 12L11 13L10 13L10 14L9 14L9 15L8 15L8 14L7 14L7 15L6 15L6 16L7 16L7 17L9 17L9 18L7 18L7 19L6 19L6 20L5 20L5 22L7 22L7 23L6 23L6 24L7 24L7 25L4 25L4 26L3 26L3 27L2 27L2 28L4 28L4 26L7 26L7 25L9 25L9 26L10 26L10 27L9 27L9 30L12 30L12 31L5 31L5 32L11 32L11 33L9 33L9 34L8 34L8 33L3 33L3 35L4 35L4 36L3 36L3 37L2 37L2 38L7 38L7 37L4 37L4 36L5 36L5 35L4 35L4 34L8 34L8 35L6 35L6 36L8 36L8 35L9 35L9 37L8 37L8 38L10 38L10 39L12 39L12 40L11 40L11 42L12 42L12 43L11 43L11 44L12 44L12 45L13 45L13 44L15 44L15 45L14 45L14 46L13 46L13 47L15 47L15 48L14 48L14 49L13 49L13 48L12 48L12 47L11 47L11 48L12 48L12 51L13 51L13 52L16 52L16 50L17 50L17 53L18 53L18 50L19 50L19 49L18 49L18 48L19 48L19 47L20 47L20 48L21 48L21 49L20 49L20 50L21 50L21 51L22 51L22 52L24 52L24 51L25 51L25 54L24 54L24 55L25 55L25 54L26 54L26 55L28 55L28 53L27 53L27 54L26 54L26 49L25 49L25 48L28 48L28 46L29 46L29 48L31 48L31 49L32 49L32 48L31 48L31 47L32 47L32 46L33 46L33 45L32 45L32 40L33 40L33 41L34 41L34 42L35 42L35 41L36 41L36 38L37 38L37 41L38 41L38 38L39 38L39 39L40 39L40 40L39 40L39 41L40 41L40 40L41 40L41 39L43 39L43 41L42 41L42 42L44 42L44 39L43 39L43 38L44 38L44 34L45 34L45 33L46 33L46 36L45 36L45 37L46 37L46 36L47 36L47 34L48 34L48 33L47 33L47 32L46 32L46 31L47 31L47 28L48 28L48 26L49 26L49 25L48 25L48 22L50 22L50 23L51 23L51 22L52 22L52 24L51 24L51 25L50 25L50 26L52 26L52 24L53 24L53 25L54 25L54 26L55 26L55 27L54 27L54 28L53 28L53 29L55 29L55 28L56 28L56 24L55 24L55 23L56 23L56 20L55 20L55 19L56 19L56 18L55 18L55 19L54 19L54 17L53 17L53 18L52 18L52 16L53 16L53 14L54 14L54 16L55 16L55 17L56 17L56 16L55 16L55 15L56 15L56 13L55 13L55 12L56 12L56 10L55 10L55 11L54 11L54 12L53 12L53 14L52 14L52 13L50 13L50 11L51 11L51 12L52 12L52 10L51 10L51 9L50 9L50 11L48 11L48 14L47 14L47 13L46 13L46 15L44 15L44 14L45 14L45 13L44 13L44 12L42 12L42 10L41 10L41 9L40 9L40 8L41 8L41 7L42 7L42 8L43 8L43 7L44 7L44 6L43 6L43 5L44 5L44 4L45 4L45 2L47 2L47 1L42 1L42 4L41 4L41 2L40 2L40 1ZM39 2L39 4L38 4L38 5L39 5L39 4L40 4L40 2ZM43 2L43 4L42 4L42 5L41 5L41 6L40 6L40 7L39 7L39 6L38 6L38 9L37 9L37 6L36 6L36 10L34 10L34 11L33 11L33 12L32 12L32 13L31 13L31 14L33 14L33 15L34 15L34 17L33 17L33 16L32 16L32 17L33 17L33 18L32 18L32 19L31 19L31 20L28 20L28 19L27 19L27 20L26 20L26 19L25 19L25 18L24 18L24 16L22 16L22 14L21 14L21 16L20 16L20 15L19 15L19 16L18 16L18 17L17 17L17 18L18 18L18 19L19 19L19 20L18 20L18 21L17 21L17 20L16 20L16 19L15 19L15 16L14 16L14 15L12 15L12 14L13 14L13 13L12 13L12 14L11 14L11 15L10 15L10 16L9 16L9 17L12 17L12 16L14 16L14 18L13 18L13 19L12 19L12 21L13 21L13 22L12 22L12 23L11 23L11 21L10 21L10 22L9 22L9 21L7 21L7 20L6 20L6 21L7 21L7 22L8 22L8 24L9 24L9 25L10 25L10 26L11 26L11 25L12 25L12 28L10 28L10 29L12 29L12 30L13 30L13 31L12 31L12 34L11 34L11 37L12 37L12 38L14 38L14 37L15 37L15 36L14 36L14 35L15 35L15 34L16 34L16 32L17 32L17 31L18 31L18 33L17 33L17 35L18 35L18 37L19 37L19 39L18 39L18 38L16 38L16 39L18 39L18 42L16 42L16 41L15 41L15 39L13 39L13 40L14 40L14 41L15 41L15 42L13 42L13 43L12 43L12 44L13 44L13 43L15 43L15 44L17 44L17 46L18 46L18 47L19 47L19 46L20 46L20 47L21 47L21 48L22 48L22 50L23 50L23 51L24 51L24 49L23 49L23 48L25 48L25 47L26 47L26 46L28 46L28 45L29 45L29 46L30 46L30 47L31 47L31 44L30 44L30 43L31 43L31 42L30 42L30 43L28 43L28 42L27 42L27 40L25 40L25 41L26 41L26 42L24 42L24 41L23 41L23 40L22 40L22 38L21 38L21 36L20 36L20 33L21 33L21 30L22 30L22 33L23 33L23 34L21 34L21 35L25 35L25 36L24 36L24 37L26 37L26 38L27 38L27 36L28 36L28 37L29 37L29 36L28 36L28 35L31 35L31 36L30 36L30 40L29 40L29 41L31 41L31 38L34 38L34 41L35 41L35 38L36 38L36 37L37 37L37 38L38 38L38 37L37 37L37 36L38 36L38 35L39 35L39 34L38 34L38 33L39 33L39 32L40 32L40 34L42 34L42 33L43 33L43 34L44 34L44 33L45 33L45 31L46 31L46 30L45 30L45 31L44 31L44 29L46 29L46 28L47 28L47 26L48 26L48 25L47 25L47 24L44 24L44 26L43 26L43 27L42 27L42 24L43 24L43 22L44 22L44 23L45 23L45 22L44 22L44 21L45 21L45 19L47 19L47 20L48 20L48 21L47 21L47 22L48 22L48 21L49 21L49 20L51 20L51 18L50 18L50 17L51 17L51 16L50 16L50 13L49 13L49 14L48 14L48 15L47 15L47 16L46 16L46 17L45 17L45 16L44 16L44 15L43 15L43 16L44 16L44 17L43 17L43 18L42 18L42 17L41 17L41 15L42 15L42 12L41 12L41 11L40 11L40 9L39 9L39 8L40 8L40 7L41 7L41 6L42 6L42 7L43 7L43 6L42 6L42 5L43 5L43 4L44 4L44 2ZM14 3L14 4L15 4L15 3ZM26 3L26 4L27 4L27 3ZM27 5L27 8L30 8L30 5ZM12 6L12 7L11 7L11 9L12 9L12 10L13 10L13 8L14 8L14 9L15 9L15 10L16 10L16 9L15 9L15 6L14 6L14 7L13 7L13 6ZM16 6L16 7L17 7L17 6ZM24 6L24 7L25 7L25 6ZM28 6L28 7L29 7L29 6ZM22 8L22 9L21 9L21 10L22 10L22 9L23 9L23 11L22 11L22 12L23 12L23 11L24 11L24 12L25 12L25 17L26 17L26 18L27 18L27 17L26 17L26 11L24 11L24 8ZM30 9L30 10L31 10L31 9ZM38 9L38 10L37 10L37 11L38 11L38 10L39 10L39 9ZM6 11L6 12L8 12L8 13L9 13L9 11ZM12 11L12 12L13 12L13 11ZM14 11L14 12L15 12L15 11ZM18 11L18 12L19 12L19 11ZM28 11L28 12L27 12L27 14L28 14L28 15L29 15L29 16L30 16L30 17L28 17L28 18L30 18L30 17L31 17L31 16L30 16L30 15L29 15L29 13L30 13L30 12L29 12L29 11ZM34 11L34 12L35 12L35 13L34 13L34 15L35 15L35 17L34 17L34 19L33 19L33 21L32 21L32 20L31 20L31 21L29 21L29 25L28 25L28 23L27 23L27 22L28 22L28 20L27 20L27 22L26 22L26 23L27 23L27 25L26 25L26 26L29 26L29 25L30 25L30 26L31 26L31 25L32 25L32 27L31 27L31 32L30 32L30 34L32 34L32 35L34 35L34 34L35 34L35 33L36 33L36 35L35 35L35 37L34 37L34 36L33 36L33 37L34 37L34 38L35 38L35 37L36 37L36 35L38 35L38 34L37 34L37 33L36 33L36 31L37 31L37 32L38 32L38 31L40 31L40 32L41 32L41 33L42 33L42 31L43 31L43 28L42 28L42 31L40 31L40 30L41 30L41 29L40 29L40 28L41 28L41 27L40 27L40 28L39 28L39 29L38 29L38 28L37 28L37 26L36 26L36 24L37 24L37 25L38 25L38 26L40 26L40 23L41 23L41 24L42 24L42 22L43 22L43 21L44 21L44 19L45 19L45 17L44 17L44 19L42 19L42 20L43 20L43 21L42 21L42 22L40 22L40 19L41 19L41 18L40 18L40 15L39 15L39 13L40 13L40 14L41 14L41 13L40 13L40 12L37 12L37 13L36 13L36 11ZM37 13L37 14L36 14L36 18L35 18L35 20L36 20L36 21L35 21L35 22L34 22L34 21L33 21L33 22L31 22L31 23L30 23L30 25L31 25L31 23L32 23L32 25L33 25L33 26L34 26L34 24L36 24L36 23L39 23L39 22L38 22L38 20L39 20L39 19L40 19L40 18L38 18L38 16L37 16L37 15L38 15L38 13ZM43 13L43 14L44 14L44 13ZM54 13L54 14L55 14L55 13ZM23 14L23 15L24 15L24 14ZM51 14L51 15L52 15L52 14ZM4 15L4 16L5 16L5 15ZM7 15L7 16L8 16L8 15ZM19 16L19 17L18 17L18 18L19 18L19 19L20 19L20 20L19 20L19 21L18 21L18 22L19 22L19 24L20 24L20 26L21 26L21 25L22 25L22 24L23 24L23 25L24 25L24 26L25 26L25 25L24 25L24 24L23 24L23 23L22 23L22 22L21 22L21 21L20 21L20 20L23 20L23 19L20 19L20 18L21 18L21 17L20 17L20 16ZM19 17L19 18L20 18L20 17ZM46 17L46 18L47 18L47 19L48 19L48 18L49 18L49 19L50 19L50 18L49 18L49 17L48 17L48 18L47 18L47 17ZM9 18L9 19L8 19L8 20L11 20L11 19L10 19L10 18ZM36 18L36 19L37 19L37 18ZM14 19L14 20L15 20L15 19ZM24 19L24 20L25 20L25 21L26 21L26 20L25 20L25 19ZM53 19L53 20L52 20L52 22L53 22L53 21L54 21L54 23L53 23L53 24L54 24L54 25L55 25L55 24L54 24L54 23L55 23L55 21L54 21L54 19ZM14 21L14 22L13 22L13 24L12 24L12 25L13 25L13 24L15 24L15 25L14 25L14 26L13 26L13 28L12 28L12 29L13 29L13 28L15 28L15 29L14 29L14 30L16 30L16 31L15 31L15 32L13 32L13 34L12 34L12 36L13 36L13 37L14 37L14 36L13 36L13 34L14 34L14 33L15 33L15 32L16 32L16 31L17 31L17 30L19 30L19 29L20 29L20 30L21 30L21 29L20 29L20 28L18 28L18 27L19 27L19 25L18 25L18 23L17 23L17 22L16 22L16 23L17 23L17 25L16 25L16 24L15 24L15 23L14 23L14 22L15 22L15 21ZM36 21L36 22L35 22L35 23L36 23L36 22L37 22L37 21ZM1 22L1 23L2 23L2 22ZM20 22L20 23L21 23L21 24L22 24L22 23L21 23L21 22ZM24 22L24 23L25 23L25 22ZM9 23L9 24L10 24L10 23ZM33 23L33 24L34 24L34 23ZM15 25L15 26L14 26L14 27L16 27L16 28L17 28L17 27L16 27L16 25ZM46 25L46 26L47 26L47 25ZM44 26L44 27L45 27L45 26ZM5 27L5 30L8 30L8 27ZM22 27L22 28L23 28L23 29L22 29L22 30L23 30L23 32L24 32L24 34L25 34L25 35L26 35L26 34L27 34L27 35L28 35L28 34L29 34L29 32L28 32L28 31L27 31L27 33L26 33L26 30L25 30L25 29L24 29L24 27ZM27 27L27 30L30 30L30 27ZM34 27L34 29L33 29L33 28L32 28L32 29L33 29L33 31L32 31L32 33L33 33L33 34L34 34L34 33L33 33L33 31L34 31L34 29L35 29L35 27ZM49 27L49 30L52 30L52 27ZM6 28L6 29L7 29L7 28ZM28 28L28 29L29 29L29 28ZM36 28L36 30L37 30L37 31L38 31L38 30L37 30L37 28ZM50 28L50 29L51 29L51 28ZM2 29L2 30L3 30L3 29ZM23 29L23 30L24 30L24 32L25 32L25 30L24 30L24 29ZM54 30L54 32L53 32L53 31L49 31L49 32L50 32L50 33L51 33L51 36L53 36L53 37L54 37L54 38L55 38L55 37L56 37L56 36L55 36L55 35L56 35L56 34L55 34L55 33L54 33L54 32L55 32L55 31L56 31L56 30ZM19 32L19 33L18 33L18 34L19 34L19 33L20 33L20 32ZM27 33L27 34L28 34L28 33ZM9 34L9 35L10 35L10 34ZM53 34L53 36L54 36L54 37L55 37L55 36L54 36L54 34ZM40 35L40 36L39 36L39 38L40 38L40 39L41 39L41 36L42 36L42 37L43 37L43 36L42 36L42 35ZM16 36L16 37L17 37L17 36ZM22 36L22 37L23 37L23 36ZM31 36L31 37L32 37L32 36ZM20 38L20 39L21 39L21 38ZM24 38L24 39L25 39L25 38ZM28 38L28 39L29 39L29 38ZM5 39L5 40L7 40L7 39ZM20 40L20 43L18 43L18 44L20 44L20 46L22 46L22 48L23 48L23 44L25 44L25 43L24 43L24 42L23 42L23 41L22 41L22 40ZM21 41L21 42L22 42L22 41ZM54 41L54 42L55 42L55 41ZM15 42L15 43L16 43L16 42ZM45 42L45 43L46 43L46 42ZM20 43L20 44L21 44L21 43ZM22 43L22 44L23 44L23 43ZM37 43L37 44L36 44L36 45L35 45L35 46L36 46L36 45L37 45L37 46L38 46L38 45L37 45L37 44L39 44L39 43ZM27 44L27 45L28 45L28 44ZM29 44L29 45L30 45L30 44ZM10 45L10 46L11 46L11 45ZM15 45L15 47L16 47L16 48L17 48L17 47L16 47L16 45ZM18 45L18 46L19 46L19 45ZM24 45L24 46L26 46L26 45ZM1 46L1 47L2 47L2 46ZM3 46L3 47L5 47L5 46ZM9 47L9 48L10 48L10 47ZM6 48L6 49L7 49L7 48ZM17 49L17 50L18 50L18 49ZM27 49L27 52L30 52L30 49ZM40 49L40 51L41 51L41 52L43 52L43 51L41 51L41 49ZM49 49L49 52L52 52L52 49ZM14 50L14 51L15 51L15 50ZM28 50L28 51L29 51L29 50ZM32 50L32 51L31 51L31 52L32 52L32 51L33 51L33 50ZM44 50L44 51L45 51L45 50ZM50 50L50 51L51 51L51 50ZM8 51L8 52L9 52L9 51ZM47 51L47 52L45 52L45 53L46 53L46 54L47 54L47 52L48 52L48 51ZM35 52L35 53L34 53L34 55L35 55L35 53L36 53L36 54L37 54L37 53L36 53L36 52ZM14 53L14 54L15 54L15 53ZM31 53L31 54L30 54L30 55L33 55L33 54L32 54L32 53ZM48 53L48 54L49 54L49 53ZM8 54L8 57L10 57L10 55L9 55L9 54ZM11 54L11 55L12 55L12 54ZM36 56L36 57L37 57L37 56ZM51 56L51 57L53 57L53 56ZM56 56L56 57L57 57L57 56ZM0 0L0 7L7 7L7 0ZM1 1L1 6L6 6L6 1ZM2 2L2 5L5 5L5 2ZM50 0L50 7L57 7L57 0ZM51 1L51 6L56 6L56 1ZM52 2L52 5L55 5L55 2ZM0 50L0 57L7 57L7 50ZM1 51L1 56L6 56L6 51ZM2 52L2 55L5 55L5 52Z" fill="#000000"/></g></g></svg>
