<?xml version="1.0" encoding="UTF-8"?>
<svg xmlns="http://www.w3.org/2000/svg" version="1.1" width="300" height="300" viewBox="0 0 300 300"><rect x="0" y="0" width="300" height="300" fill="#fefefe"/><g transform="scale(4.615)"><g transform="translate(4,4)"><path fill-rule="evenodd" d="M10 0L10 2L9 2L9 1L8 1L8 2L9 2L9 3L8 3L8 4L10 4L10 5L8 5L8 7L9 7L9 8L6 8L6 9L5 9L5 8L0 8L0 17L2 17L2 18L3 18L3 19L0 19L0 21L3 21L3 22L2 22L2 23L3 23L3 22L5 22L5 21L8 21L8 20L9 20L9 19L10 19L10 20L11 20L11 21L12 21L12 22L11 22L11 23L13 23L13 25L12 25L12 24L11 24L11 28L10 28L10 27L9 27L9 26L6 26L6 25L8 25L8 24L5 24L5 26L4 26L4 24L3 24L3 27L2 27L2 24L1 24L1 22L0 22L0 24L1 24L1 27L0 27L0 28L1 28L1 29L0 29L0 30L1 30L1 31L0 31L0 32L1 32L1 33L0 33L0 34L1 34L1 35L0 35L0 36L2 36L2 37L1 37L1 38L0 38L0 39L2 39L2 40L3 40L3 43L2 43L2 42L0 42L0 43L2 43L2 44L1 44L1 45L0 45L0 48L5 48L5 47L9 47L9 46L11 46L11 45L13 45L13 46L12 46L12 47L10 47L10 48L14 48L14 49L13 49L13 51L15 51L15 52L14 52L14 53L16 53L16 54L15 54L15 55L14 55L14 56L13 56L13 57L16 57L16 56L17 56L17 57L20 57L20 56L19 56L19 55L20 55L20 54L19 54L19 53L20 53L20 52L23 52L23 50L25 50L25 49L24 49L24 48L26 48L26 52L24 52L24 53L23 53L23 54L22 54L22 53L21 53L21 54L22 54L22 56L24 56L24 55L23 55L23 54L24 54L24 53L26 53L26 54L25 54L25 55L26 55L26 54L30 54L30 53L31 53L31 50L32 50L32 48L33 48L33 47L35 47L35 46L33 46L33 45L32 45L32 44L33 44L33 43L34 43L34 45L36 45L36 46L37 46L37 47L36 47L36 48L35 48L35 49L36 49L36 50L34 50L34 49L33 49L33 50L34 50L34 51L32 51L32 52L33 52L33 53L32 53L32 54L31 54L31 56L30 56L30 55L29 55L29 56L27 56L27 57L29 57L29 56L30 56L30 57L31 57L31 56L35 56L35 57L39 57L39 56L37 56L37 55L40 55L40 56L41 56L41 57L44 57L44 56L42 56L42 55L44 55L44 54L45 54L45 53L47 53L47 55L48 55L48 56L47 56L47 57L49 57L49 56L50 56L50 57L52 57L52 55L51 55L51 53L52 53L52 54L53 54L53 55L54 55L54 56L53 56L53 57L54 57L54 56L55 56L55 57L56 57L56 56L55 56L55 55L54 55L54 54L55 54L55 52L56 52L56 50L57 50L57 48L56 48L56 46L57 46L57 45L56 45L56 44L57 44L57 43L56 43L56 42L55 42L55 41L53 41L53 40L55 40L55 39L57 39L57 35L56 35L56 34L57 34L57 32L56 32L56 30L57 30L57 28L56 28L56 27L55 27L55 26L57 26L57 25L56 25L56 22L57 22L57 20L56 20L56 22L53 22L53 21L51 21L51 20L52 20L52 19L53 19L53 20L55 20L55 19L56 19L56 18L57 18L57 17L56 17L56 16L57 16L57 15L56 15L56 14L57 14L57 13L56 13L56 12L55 12L55 11L56 11L56 8L55 8L55 10L54 10L54 11L52 11L52 10L49 10L49 9L50 9L50 8L49 8L49 9L47 9L47 8L48 8L48 7L49 7L49 6L48 6L48 7L47 7L47 5L48 5L48 0L45 0L45 1L47 1L47 2L44 2L44 3L43 3L43 4L40 4L40 5L39 5L39 6L38 6L38 4L39 4L39 3L41 3L41 2L43 2L43 0L41 0L41 1L40 1L40 0L39 0L39 1L38 1L38 0L37 0L37 1L38 1L38 4L37 4L37 3L36 3L36 0L35 0L35 1L32 1L32 3L31 3L31 0L28 0L28 1L25 1L25 0L23 0L23 2L22 2L22 3L23 3L23 4L19 4L19 2L20 2L20 3L21 3L21 2L20 2L20 0L19 0L19 1L18 1L18 2L17 2L17 3L18 3L18 4L17 4L17 6L16 6L16 7L15 7L15 5L16 5L16 4L15 4L15 5L13 5L13 4L14 4L14 2L15 2L15 3L16 3L16 2L15 2L15 0L14 0L14 2L13 2L13 0L12 0L12 2L11 2L11 0ZM21 0L21 1L22 1L22 0ZM28 1L28 2L23 2L23 3L26 3L26 4L25 4L25 8L26 8L26 4L27 4L27 3L28 3L28 4L30 4L30 3L28 3L28 2L30 2L30 1ZM12 2L12 3L11 3L11 4L13 4L13 2ZM34 2L34 3L32 3L32 4L31 4L31 8L32 8L32 10L31 10L31 11L30 11L30 10L29 10L29 9L27 9L27 10L29 10L29 12L28 12L28 13L26 13L26 12L27 12L27 11L26 11L26 12L25 12L25 11L24 11L24 12L25 12L25 15L24 15L24 16L23 16L23 15L21 15L21 13L22 13L22 14L23 14L23 13L22 13L22 12L21 12L21 13L20 13L20 11L22 11L22 10L23 10L23 8L24 8L24 6L23 6L23 5L24 5L24 4L23 4L23 5L21 5L21 7L22 7L22 8L19 8L19 7L20 7L20 5L19 5L19 4L18 4L18 6L17 6L17 7L16 7L16 8L19 8L19 9L20 9L20 10L19 10L19 13L20 13L20 14L17 14L17 13L18 13L18 12L17 12L17 11L18 11L18 9L15 9L15 7L14 7L14 6L13 6L13 5L10 5L10 6L9 6L9 7L10 7L10 8L9 8L9 9L8 9L8 10L7 10L7 9L6 9L6 10L3 10L3 9L1 9L1 10L2 10L2 12L1 12L1 13L2 13L2 14L1 14L1 16L2 16L2 17L4 17L4 18L8 18L8 19L5 19L5 20L8 20L8 19L9 19L9 17L8 17L8 16L9 16L9 15L10 15L10 14L11 14L11 13L8 13L8 11L9 11L9 12L10 12L10 11L11 11L11 12L12 12L12 15L11 15L11 17L10 17L10 18L12 18L12 19L11 19L11 20L12 20L12 21L14 21L14 22L16 22L16 21L17 21L17 20L18 20L18 17L16 17L16 16L17 16L17 15L18 15L18 16L19 16L19 15L21 15L21 16L20 16L20 18L21 18L21 19L20 19L20 21L18 21L18 22L20 22L20 23L19 23L19 25L20 25L20 26L18 26L18 25L17 25L17 24L18 24L18 23L17 23L17 24L16 24L16 23L15 23L15 24L16 24L16 25L14 25L14 26L18 26L18 27L17 27L17 28L18 28L18 29L16 29L16 28L15 28L15 27L12 27L12 29L11 29L11 30L13 30L13 28L14 28L14 30L15 30L15 29L16 29L16 31L15 31L15 33L14 33L14 34L12 34L12 33L9 33L9 34L7 34L7 33L8 33L8 32L9 32L9 31L10 31L10 32L11 32L11 31L10 31L10 29L9 29L9 31L6 31L6 32L5 32L5 31L4 31L4 32L3 32L3 31L1 31L1 32L2 32L2 33L1 33L1 34L2 34L2 36L3 36L3 38L2 38L2 39L3 39L3 40L4 40L4 39L5 39L5 40L7 40L7 41L6 41L6 42L5 42L5 41L4 41L4 43L5 43L5 44L4 44L4 45L5 45L5 46L3 46L3 45L2 45L2 46L1 46L1 47L2 47L2 46L3 46L3 47L5 47L5 46L7 46L7 45L6 45L6 44L7 44L7 43L8 43L8 44L9 44L9 43L8 43L8 42L9 42L9 41L10 41L10 40L9 40L9 41L8 41L8 39L9 39L9 36L10 36L10 35L9 35L9 34L12 34L12 35L11 35L11 37L10 37L10 39L11 39L11 38L12 38L12 37L13 37L13 39L12 39L12 40L13 40L13 39L16 39L16 40L17 40L17 39L18 39L18 38L19 38L19 39L20 39L20 38L19 38L19 37L21 37L21 38L24 38L24 37L23 37L23 36L24 36L24 34L23 34L23 33L25 33L25 35L26 35L26 37L25 37L25 40L24 40L24 39L23 39L23 40L22 40L22 39L21 39L21 40L20 40L20 42L19 42L19 41L18 41L18 42L17 42L17 41L15 41L15 40L14 40L14 41L11 41L11 42L10 42L10 45L11 45L11 44L13 44L13 45L14 45L14 44L15 44L15 47L14 47L14 46L13 46L13 47L14 47L14 48L15 48L15 50L17 50L17 51L16 51L16 53L17 53L17 52L19 52L19 51L21 51L21 49L23 49L23 47L24 47L24 45L25 45L25 47L26 47L26 48L30 48L30 47L29 47L29 45L28 45L28 43L27 43L27 42L32 42L32 43L31 43L31 44L32 44L32 43L33 43L33 42L34 42L34 43L37 43L37 42L35 42L35 40L38 40L38 42L39 42L39 41L42 41L42 40L44 40L44 41L43 41L43 44L44 44L44 45L43 45L43 46L41 46L41 48L39 48L39 47L40 47L40 46L39 46L39 45L41 45L41 44L42 44L42 42L41 42L41 43L39 43L39 45L38 45L38 46L39 46L39 47L38 47L38 48L37 48L37 49L38 49L38 50L36 50L36 52L37 52L37 51L38 51L38 52L39 52L39 53L38 53L38 54L40 54L40 53L41 53L41 52L40 52L40 51L38 51L38 50L41 50L41 51L42 51L42 50L41 50L41 48L42 48L42 49L43 49L43 48L44 48L44 50L47 50L47 53L48 53L48 50L47 50L47 49L48 49L48 48L49 48L49 47L48 47L48 48L47 48L47 47L45 47L45 46L48 46L48 45L50 45L50 47L51 47L51 46L52 46L52 47L53 47L53 48L54 48L54 49L55 49L55 50L54 50L54 51L55 51L55 50L56 50L56 48L54 48L54 47L55 47L55 46L56 46L56 45L55 45L55 44L54 44L54 45L55 45L55 46L54 46L54 47L53 47L53 45L52 45L52 44L53 44L53 43L54 43L54 42L53 42L53 41L51 41L51 42L50 42L50 43L49 43L49 42L48 42L48 41L49 41L49 39L51 39L51 38L53 38L53 39L52 39L52 40L53 40L53 39L55 39L55 37L53 37L53 35L55 35L55 36L56 36L56 35L55 35L55 34L56 34L56 32L55 32L55 34L54 34L54 33L52 33L52 32L53 32L53 31L48 31L48 29L46 29L46 30L47 30L47 31L45 31L45 32L43 32L43 30L45 30L45 28L46 28L46 27L48 27L48 26L47 26L47 24L51 24L51 25L50 25L50 26L51 26L51 25L55 25L55 24L53 24L53 23L50 23L50 22L51 22L51 21L49 21L49 18L47 18L47 16L46 16L46 17L45 17L45 15L44 15L44 14L47 14L47 13L49 13L49 12L50 12L50 14L49 14L49 15L48 15L48 16L49 16L49 15L50 15L50 16L51 16L51 17L50 17L50 19L52 19L52 17L53 17L53 18L55 18L55 16L53 16L53 15L54 15L54 13L55 13L55 14L56 14L56 13L55 13L55 12L54 12L54 13L53 13L53 12L52 12L52 13L53 13L53 15L52 15L52 16L51 16L51 15L50 15L50 14L51 14L51 12L50 12L50 11L49 11L49 12L45 12L45 11L44 11L44 13L43 13L43 11L41 11L41 9L43 9L43 10L44 10L44 9L45 9L45 10L47 10L47 9L45 9L45 8L42 8L42 6L41 6L41 5L40 5L40 6L39 6L39 8L38 8L38 6L37 6L37 7L36 7L36 5L37 5L37 4L36 4L36 5L35 5L35 4L34 4L34 3L35 3L35 2ZM44 3L44 6L43 6L43 7L44 7L44 6L45 6L45 7L46 7L46 5L47 5L47 3ZM32 4L32 5L34 5L34 7L33 7L33 6L32 6L32 7L33 7L33 9L34 9L34 8L35 8L35 9L37 9L37 10L36 10L36 11L37 11L37 12L35 12L35 13L37 13L37 14L38 14L38 15L39 15L39 16L38 16L38 17L37 17L37 16L35 16L35 14L33 14L33 13L34 13L34 12L33 12L33 13L32 13L32 11L33 11L33 10L32 10L32 11L31 11L31 13L30 13L30 14L29 14L29 13L28 13L28 14L29 14L29 16L28 16L28 15L27 15L27 14L26 14L26 15L25 15L25 17L22 17L22 16L21 16L21 17L22 17L22 19L21 19L21 20L22 20L22 19L23 19L23 20L24 20L24 21L22 21L22 23L21 23L21 24L20 24L20 25L21 25L21 26L20 26L20 27L19 27L19 28L20 28L20 27L22 27L22 26L26 26L26 27L24 27L24 29L23 29L23 30L25 30L25 31L21 31L21 32L19 32L19 31L18 31L18 30L20 30L20 29L18 29L18 30L17 30L17 34L18 34L18 36L17 36L17 35L16 35L16 34L14 34L14 36L17 36L17 37L19 37L19 34L20 34L20 33L21 33L21 35L20 35L20 36L23 36L23 35L22 35L22 33L21 33L21 32L25 32L25 33L26 33L26 35L27 35L27 33L26 33L26 32L28 32L28 33L29 33L29 34L30 34L30 36L29 36L29 37L31 37L31 38L29 38L29 39L33 39L33 40L35 40L35 39L37 39L37 38L38 38L38 40L40 40L40 39L39 39L39 38L38 38L38 37L40 37L40 38L41 38L41 40L42 40L42 38L43 38L43 37L44 37L44 38L45 38L45 37L44 37L44 36L46 36L46 35L47 35L47 36L48 36L48 35L47 35L47 34L45 34L45 33L47 33L47 32L48 32L48 33L49 33L49 32L48 32L48 31L47 31L47 32L45 32L45 33L43 33L43 32L41 32L41 33L39 33L39 34L40 34L40 35L38 35L38 33L37 33L37 32L35 32L35 30L37 30L37 29L38 29L38 28L42 28L42 27L41 27L41 26L44 26L44 28L43 28L43 29L41 29L41 30L43 30L43 29L44 29L44 28L45 28L45 27L46 27L46 26L44 26L44 24L43 24L43 25L41 25L41 26L40 26L40 27L37 27L37 28L36 28L36 26L34 26L34 27L33 27L33 26L32 26L32 24L33 24L33 25L37 25L37 26L38 26L38 24L39 24L39 25L40 25L40 24L41 24L41 23L44 23L44 20L45 20L45 18L44 18L44 15L42 15L42 16L41 16L41 14L43 14L43 13L41 13L41 14L40 14L40 13L39 13L39 12L41 12L41 11L39 11L39 10L38 10L38 8L35 8L35 5L34 5L34 4ZM45 4L45 5L46 5L46 4ZM27 5L27 8L30 8L30 5ZM10 6L10 7L11 7L11 9L10 9L10 10L9 10L9 11L10 11L10 10L11 10L11 9L12 9L12 10L13 10L13 11L14 11L14 12L13 12L13 13L15 13L15 14L13 14L13 16L12 16L12 17L14 17L14 16L16 16L16 13L17 13L17 12L16 12L16 13L15 13L15 11L17 11L17 10L13 10L13 9L14 9L14 7L13 7L13 6L12 6L12 7L11 7L11 6ZM18 6L18 7L19 7L19 6ZM22 6L22 7L23 7L23 6ZM28 6L28 7L29 7L29 6ZM40 6L40 7L41 7L41 6ZM12 7L12 9L13 9L13 7ZM51 8L51 9L52 9L52 8ZM53 8L53 9L54 9L54 8ZM21 9L21 10L22 10L22 9ZM6 10L6 11L5 11L5 12L3 12L3 13L4 13L4 17L5 17L5 16L6 16L6 17L7 17L7 16L6 16L6 15L9 15L9 14L8 14L8 13L7 13L7 12L6 12L6 11L7 11L7 10ZM37 10L37 11L38 11L38 10ZM5 13L5 15L6 15L6 14L7 14L7 13ZM31 13L31 14L30 14L30 15L31 15L31 16L32 16L32 17L33 17L33 18L30 18L30 20L31 20L31 19L33 19L33 20L32 20L32 21L31 21L31 22L30 22L30 24L32 24L32 23L33 23L33 22L34 22L34 23L35 23L35 19L36 19L36 20L37 20L37 21L38 21L38 22L37 22L37 24L38 24L38 22L39 22L39 24L40 24L40 22L39 22L39 21L42 21L42 20L39 20L39 21L38 21L38 19L39 19L39 17L41 17L41 16L39 16L39 17L38 17L38 18L37 18L37 17L35 17L35 16L33 16L33 15L32 15L32 13ZM38 13L38 14L39 14L39 15L40 15L40 14L39 14L39 13ZM2 14L2 15L3 15L3 14ZM26 15L26 17L25 17L25 18L26 18L26 21L28 21L28 22L27 22L27 23L28 23L28 24L25 24L25 23L26 23L26 22L25 22L25 21L24 21L24 22L23 22L23 23L24 23L24 24L21 24L21 25L24 25L24 24L25 24L25 25L26 25L26 26L28 26L28 25L29 25L29 26L30 26L30 25L29 25L29 20L27 20L27 19L28 19L28 18L27 18L27 17L28 17L28 16L27 16L27 15ZM42 16L42 17L43 17L43 16ZM15 17L15 18L16 18L16 17ZM23 18L23 19L24 19L24 18ZM33 18L33 19L34 19L34 18ZM41 18L41 19L42 19L42 18ZM43 18L43 20L44 20L44 18ZM46 18L46 19L47 19L47 18ZM3 19L3 21L4 21L4 19ZM13 19L13 20L14 20L14 19ZM15 19L15 21L16 21L16 20L17 20L17 19ZM33 20L33 21L34 21L34 20ZM45 21L45 22L46 22L46 24L45 24L45 25L46 25L46 24L47 24L47 22L49 22L49 21L47 21L47 22L46 22L46 21ZM6 22L6 23L7 23L7 22ZM8 22L8 23L9 23L9 22ZM31 26L31 27L32 27L32 29L31 29L31 31L30 31L30 32L29 32L29 31L28 31L28 32L29 32L29 33L31 33L31 35L32 35L32 33L33 33L33 34L34 34L34 35L33 35L33 36L32 36L32 37L33 37L33 38L35 38L35 37L33 37L33 36L34 36L34 35L35 35L35 36L37 36L37 37L38 37L38 35L37 35L37 34L35 34L35 32L34 32L34 31L32 31L32 29L33 29L33 30L35 30L35 28L33 28L33 27L32 27L32 26ZM53 26L53 27L54 27L54 26ZM1 27L1 28L2 28L2 29L4 29L4 28L2 28L2 27ZM5 27L5 30L8 30L8 27ZM27 27L27 30L30 30L30 27ZM49 27L49 30L52 30L52 27ZM6 28L6 29L7 29L7 28ZM21 28L21 29L22 29L22 28ZM25 28L25 29L26 29L26 28ZM28 28L28 29L29 29L29 28ZM50 28L50 29L51 29L51 28ZM54 28L54 29L53 29L53 30L54 30L54 31L55 31L55 30L54 30L54 29L56 29L56 28ZM39 29L39 30L38 30L38 32L39 32L39 30L40 30L40 29ZM25 31L25 32L26 32L26 31ZM31 31L31 33L32 33L32 31ZM4 32L4 33L3 33L3 34L4 34L4 35L7 35L7 34L5 34L5 32ZM6 32L6 33L7 33L7 32ZM50 32L50 34L49 34L49 35L50 35L50 37L48 37L48 38L47 38L47 39L46 39L46 41L47 41L47 39L48 39L48 38L50 38L50 37L52 37L52 35L53 35L53 34L52 34L52 33L51 33L51 32ZM18 33L18 34L19 34L19 33ZM42 34L42 35L41 35L41 36L40 36L40 37L41 37L41 38L42 38L42 37L41 37L41 36L42 36L42 35L43 35L43 36L44 36L44 35L45 35L45 34ZM50 34L50 35L52 35L52 34ZM12 35L12 36L13 36L13 35ZM6 36L6 37L8 37L8 36ZM4 37L4 38L3 38L3 39L4 39L4 38L5 38L5 39L8 39L8 38L5 38L5 37ZM14 37L14 38L16 38L16 37ZM27 37L27 38L26 38L26 40L27 40L27 41L26 41L26 42L27 42L27 41L28 41L28 39L27 39L27 38L28 38L28 37ZM44 39L44 40L45 40L45 39ZM0 40L0 41L1 41L1 40ZM23 40L23 41L24 41L24 42L22 42L22 41L21 41L21 42L22 42L22 43L21 43L21 44L20 44L20 43L19 43L19 42L18 42L18 43L16 43L16 44L18 44L18 45L17 45L17 47L19 47L19 46L20 46L20 45L21 45L21 47L20 47L20 49L19 49L19 48L17 48L17 49L19 49L19 50L20 50L20 49L21 49L21 47L23 47L23 46L22 46L22 45L24 45L24 44L27 44L27 43L24 43L24 42L25 42L25 41L24 41L24 40ZM31 40L31 41L32 41L32 42L33 42L33 41L32 41L32 40ZM44 41L44 42L45 42L45 41ZM6 42L6 43L7 43L7 42ZM13 42L13 43L15 43L15 42ZM47 42L47 43L46 43L46 44L45 44L45 43L44 43L44 44L45 44L45 45L47 45L47 43L48 43L48 42ZM51 42L51 43L50 43L50 44L51 44L51 43L53 43L53 42ZM23 43L23 44L24 44L24 43ZM21 44L21 45L22 45L22 44ZM26 45L26 47L28 47L28 45ZM31 45L31 48L32 48L32 45ZM43 46L43 47L42 47L42 48L43 48L43 47L44 47L44 48L45 48L45 47L44 47L44 46ZM15 47L15 48L16 48L16 47ZM6 48L6 49L7 49L7 48ZM8 48L8 51L9 51L9 50L12 50L12 49L9 49L9 48ZM38 48L38 49L39 49L39 48ZM27 49L27 52L30 52L30 49ZM49 49L49 52L52 52L52 49ZM28 50L28 51L29 51L29 50ZM50 50L50 51L51 51L51 50ZM11 51L11 54L12 54L12 55L13 55L13 52L12 52L12 51ZM8 52L8 57L12 57L12 56L11 56L11 55L10 55L10 56L9 56L9 52ZM44 52L44 53L43 53L43 54L44 54L44 53L45 53L45 52ZM53 52L53 53L54 53L54 52ZM33 53L33 54L34 54L34 55L35 55L35 56L36 56L36 54L35 54L35 53ZM17 54L17 56L18 56L18 55L19 55L19 54ZM41 54L41 55L42 55L42 54ZM15 55L15 56L16 56L16 55ZM50 55L50 56L51 56L51 55ZM25 56L25 57L26 57L26 56ZM45 56L45 57L46 57L46 56ZM0 0L0 7L7 7L7 0ZM1 1L1 6L6 6L6 1ZM2 2L2 5L5 5L5 2ZM50 0L50 7L57 7L57 0ZM51 1L51 6L56 6L56 1ZM52 2L52 5L55 5L55 2ZM0 50L0 57L7 57L7 50ZM1 51L1 56L6 56L6 51ZM2 52L2 55L5 55L5 52Z" fill="#000000"/></g></g></svg>
