<?xml version="1.0" encoding="UTF-8"?>
<svg xmlns="http://www.w3.org/2000/svg" version="1.1" width="300" height="300" viewBox="0 0 300 300"><rect x="0" y="0" width="300" height="300" fill="#fefefe"/><g transform="scale(4.615)"><g transform="translate(4,4)"><path fill-rule="evenodd" d="M9 0L9 1L8 1L8 2L9 2L9 3L8 3L8 4L9 4L9 3L11 3L11 5L8 5L8 7L9 7L9 6L10 6L10 7L11 7L11 5L13 5L13 4L14 4L14 2L15 2L15 3L17 3L17 4L19 4L19 5L20 5L20 7L19 7L19 6L18 6L18 5L17 5L17 6L16 6L16 7L15 7L15 5L16 5L16 4L15 4L15 5L14 5L14 8L13 8L13 6L12 6L12 10L13 10L13 11L14 11L14 12L13 12L13 13L15 13L15 14L14 14L14 15L13 15L13 14L12 14L12 12L10 12L10 11L11 11L11 10L9 10L9 9L10 9L10 8L6 8L6 9L5 9L5 8L0 8L0 9L1 9L1 10L0 10L0 11L1 11L1 12L0 12L0 13L2 13L2 15L1 15L1 16L0 16L0 18L1 18L1 17L4 17L4 18L3 18L3 19L5 19L5 18L6 18L6 19L8 19L8 22L9 22L9 21L10 21L10 22L11 22L11 24L10 24L10 23L7 23L7 22L6 22L6 21L7 21L7 20L5 20L5 21L3 21L3 20L2 20L2 21L0 21L0 22L1 22L1 23L0 23L0 26L1 26L1 25L2 25L2 26L3 26L3 27L4 27L4 28L3 28L3 30L2 30L2 29L1 29L1 27L0 27L0 31L1 31L1 30L2 30L2 31L3 31L3 33L1 33L1 32L0 32L0 34L1 34L1 35L0 35L0 38L1 38L1 39L0 39L0 41L1 41L1 43L2 43L2 45L3 45L3 46L2 46L2 47L1 47L1 46L0 46L0 48L5 48L5 47L8 47L8 46L9 46L9 48L6 48L6 49L8 49L8 51L9 51L9 52L8 52L8 57L9 57L9 56L10 56L10 57L12 57L12 56L14 56L14 57L16 57L16 56L17 56L17 57L19 57L19 55L20 55L20 54L19 54L19 53L20 53L20 52L23 52L23 50L25 50L25 49L26 49L26 52L24 52L24 53L21 53L21 56L20 56L20 57L21 57L21 56L24 56L24 57L26 57L26 56L27 56L27 57L29 57L29 56L30 56L30 57L31 57L31 56L35 56L35 57L39 57L39 56L41 56L41 57L44 57L44 54L45 54L45 57L47 57L47 56L50 56L50 57L52 57L52 55L51 55L51 53L52 53L52 54L53 54L53 52L54 52L54 53L55 53L55 52L57 52L57 51L54 51L54 50L57 50L57 48L56 48L56 46L57 46L57 43L56 43L56 42L55 42L55 39L57 39L57 37L55 37L55 36L57 36L57 35L56 35L56 34L55 34L55 32L56 32L56 33L57 33L57 32L56 32L56 30L57 30L57 27L56 27L56 26L57 26L57 25L56 25L56 22L57 22L57 19L56 19L56 18L57 18L57 17L56 17L56 16L57 16L57 15L56 15L56 14L57 14L57 12L55 12L55 11L56 11L56 10L54 10L54 11L52 11L52 10L49 10L49 9L50 9L50 8L49 8L49 6L48 6L48 7L47 7L47 5L48 5L48 0L45 0L45 2L44 2L44 3L43 3L43 4L42 4L42 2L43 2L43 0L41 0L41 1L40 1L40 0L39 0L39 1L38 1L38 0L37 0L37 1L38 1L38 2L39 2L39 3L41 3L41 4L40 4L40 5L39 5L39 6L38 6L38 7L37 7L37 5L38 5L38 3L36 3L36 0L35 0L35 1L33 1L33 0L32 0L32 1L31 1L31 0L28 0L28 1L25 1L25 0L23 0L23 1L22 1L22 0L21 0L21 1L20 1L20 0L19 0L19 1L18 1L18 2L16 2L16 1L15 1L15 0L14 0L14 2L13 2L13 3L12 3L12 0ZM10 1L10 2L11 2L11 1ZM19 1L19 2L20 2L20 3L19 3L19 4L21 4L21 5L22 5L22 4L23 4L23 5L24 5L24 4L23 4L23 3L26 3L26 4L25 4L25 8L24 8L24 6L23 6L23 8L19 8L19 7L18 7L18 6L17 6L17 7L16 7L16 8L17 8L17 7L18 7L18 8L19 8L19 9L20 9L20 10L21 10L21 11L19 11L19 12L20 12L20 15L19 15L19 14L18 14L18 15L17 15L17 13L18 13L18 12L17 12L17 11L18 11L18 10L17 10L17 9L15 9L15 8L14 8L14 10L17 10L17 11L15 11L15 13L16 13L16 16L18 16L18 15L19 15L19 16L20 16L20 19L21 19L21 20L20 20L20 21L19 21L19 22L20 22L20 23L19 23L19 24L22 24L22 25L17 25L17 24L18 24L18 23L17 23L17 24L16 24L16 23L15 23L15 24L14 24L14 23L12 23L12 24L11 24L11 25L9 25L9 24L8 24L8 26L10 26L10 27L9 27L9 29L10 29L10 31L11 31L11 33L10 33L10 32L9 32L9 31L8 31L8 32L9 32L9 33L8 33L8 36L7 36L7 35L5 35L5 36L4 36L4 34L3 34L3 35L2 35L2 37L1 37L1 38L4 38L4 37L5 37L5 36L7 36L7 37L6 37L6 38L5 38L5 39L6 39L6 40L4 40L4 39L2 39L2 40L1 40L1 41L4 41L4 43L3 43L3 44L4 44L4 46L3 46L3 47L5 47L5 45L6 45L6 46L7 46L7 45L10 45L10 46L11 46L11 47L10 47L10 48L12 48L12 47L14 47L14 48L13 48L13 49L14 49L14 48L16 48L16 49L15 49L15 51L14 51L14 52L12 52L12 51L11 51L11 52L10 52L10 53L9 53L9 54L10 54L10 53L11 53L11 54L12 54L12 55L11 55L11 56L12 56L12 55L13 55L13 54L16 54L16 53L17 53L17 52L18 52L18 51L17 51L17 50L18 50L18 49L17 49L17 47L18 47L18 46L17 46L17 45L18 45L18 44L16 44L16 43L18 43L18 42L19 42L19 41L18 41L18 42L17 42L17 41L16 41L16 40L17 40L17 38L18 38L18 37L17 37L17 36L19 36L19 37L22 37L22 40L20 40L20 43L22 43L22 42L23 42L23 43L24 43L24 45L25 45L25 47L26 47L26 48L28 48L28 47L26 47L26 45L27 45L27 46L30 46L30 45L32 45L32 47L31 47L31 48L32 48L32 49L31 49L31 50L32 50L32 51L31 51L31 53L30 53L30 54L27 54L27 53L24 53L24 54L23 54L23 55L24 55L24 56L25 56L25 54L26 54L26 55L27 55L27 56L29 56L29 55L30 55L30 56L31 56L31 54L32 54L32 53L33 53L33 54L34 54L34 55L35 55L35 56L36 56L36 54L35 54L35 50L36 50L36 52L38 52L38 54L40 54L40 53L41 53L41 52L42 52L42 53L43 53L43 54L44 54L44 53L45 53L45 54L47 54L47 53L48 53L48 50L47 50L47 49L48 49L48 48L51 48L51 46L52 46L52 47L53 47L53 45L51 45L51 44L53 44L53 43L54 43L54 42L53 42L53 41L51 41L51 42L50 42L50 43L47 43L47 45L45 45L45 44L46 44L46 43L45 43L45 42L48 42L48 41L49 41L49 40L50 40L50 39L51 39L51 40L52 40L52 39L55 39L55 38L54 38L54 37L53 37L53 35L55 35L55 34L54 34L54 32L53 32L53 33L52 33L52 32L51 32L51 31L50 31L50 32L49 32L49 31L48 31L48 30L47 30L47 29L46 29L46 30L47 30L47 31L45 31L45 32L43 32L43 31L44 31L44 30L45 30L45 28L46 28L46 27L48 27L48 25L50 25L50 26L53 26L53 27L54 27L54 26L53 26L53 24L54 24L54 25L55 25L55 26L56 26L56 25L55 25L55 24L54 24L54 23L50 23L50 22L51 22L51 21L54 21L54 22L56 22L56 21L55 21L55 20L56 20L56 19L55 19L55 20L53 20L53 19L52 19L52 18L56 18L56 17L55 17L55 16L51 16L51 17L50 17L50 14L51 14L51 12L50 12L50 11L49 11L49 12L48 12L48 10L47 10L47 9L46 9L46 8L47 8L47 7L46 7L46 5L47 5L47 3L44 3L44 6L43 6L43 7L42 7L42 6L41 6L41 5L40 5L40 6L39 6L39 7L40 7L40 8L39 8L39 9L38 9L38 8L37 8L37 7L36 7L36 5L37 5L37 4L36 4L36 5L35 5L35 2L33 2L33 1L32 1L32 2L31 2L31 1L29 1L29 2L31 2L31 3L32 3L32 4L31 4L31 8L32 8L32 10L29 10L29 12L28 12L28 13L26 13L26 12L27 12L27 11L28 11L28 10L27 10L27 11L26 11L26 12L25 12L25 11L23 11L23 13L22 13L22 12L21 12L21 11L22 11L22 10L23 10L23 9L25 9L25 8L26 8L26 4L27 4L27 3L28 3L28 4L30 4L30 3L28 3L28 2L23 2L23 3L22 3L22 2L20 2L20 1ZM46 1L46 2L47 2L47 1ZM32 2L32 3L33 3L33 4L32 4L32 5L33 5L33 6L32 6L32 7L33 7L33 9L34 9L34 8L35 8L35 9L37 9L37 10L36 10L36 11L37 11L37 12L35 12L35 13L36 13L36 14L33 14L33 13L34 13L34 12L33 12L33 13L32 13L32 11L33 11L33 10L32 10L32 11L31 11L31 13L30 13L30 14L29 14L29 13L28 13L28 14L29 14L29 16L28 16L28 15L27 15L27 14L26 14L26 13L23 13L23 14L22 14L22 13L21 13L21 15L20 15L20 16L21 16L21 17L22 17L22 18L21 18L21 19L23 19L23 20L24 20L24 21L21 21L21 23L22 23L22 22L24 22L24 21L25 21L25 22L26 22L26 23L25 23L25 24L24 24L24 23L23 23L23 25L22 25L22 26L21 26L21 27L20 27L20 26L19 26L19 27L20 27L20 29L18 29L18 28L17 28L17 27L18 27L18 26L14 26L14 27L13 27L13 25L12 25L12 27L11 27L11 28L10 28L10 29L11 29L11 28L12 28L12 27L13 27L13 29L12 29L12 30L11 30L11 31L12 31L12 32L13 32L13 33L12 33L12 34L11 34L11 35L10 35L10 36L11 36L11 35L12 35L12 34L14 34L14 35L13 35L13 36L15 36L15 33L14 33L14 32L13 32L13 31L12 31L12 30L13 30L13 29L14 29L14 28L16 28L16 29L15 29L15 31L16 31L16 29L18 29L18 32L16 32L16 33L17 33L17 34L16 34L16 35L19 35L19 36L22 36L22 35L23 35L23 34L24 34L24 36L23 36L23 37L24 37L24 38L23 38L23 39L24 39L24 40L25 40L25 37L26 37L26 40L28 40L28 41L29 41L29 42L27 42L27 41L26 41L26 42L27 42L27 43L25 43L25 44L27 44L27 43L28 43L28 44L29 44L29 45L30 45L30 44L33 44L33 43L34 43L34 45L35 45L35 46L33 46L33 47L36 47L36 48L35 48L35 49L36 49L36 50L38 50L38 52L39 52L39 51L40 51L40 52L41 52L41 50L42 50L42 51L43 51L43 53L44 53L44 52L45 52L45 51L46 51L46 52L47 52L47 51L46 51L46 50L45 50L45 49L44 49L44 48L43 48L43 47L47 47L47 48L48 48L48 47L50 47L50 46L51 46L51 45L50 45L50 44L51 44L51 43L53 43L53 42L51 42L51 43L50 43L50 44L49 44L49 45L50 45L50 46L48 46L48 45L47 45L47 46L44 46L44 42L45 42L45 41L44 41L44 40L47 40L47 39L50 39L50 38L51 38L51 37L52 37L52 35L53 35L53 34L52 34L52 33L51 33L51 32L50 32L50 34L48 34L48 35L50 35L50 36L51 36L51 37L50 37L50 38L49 38L49 36L48 36L48 37L47 37L47 39L46 39L46 38L45 38L45 37L46 37L46 35L44 35L44 33L43 33L43 32L41 32L41 33L39 33L39 34L40 34L40 35L38 35L38 33L37 33L37 32L35 32L35 31L36 31L36 30L37 30L37 29L38 29L38 28L39 28L39 27L40 27L40 26L41 26L41 28L42 28L42 26L43 26L43 29L39 29L39 30L38 30L38 32L39 32L39 31L40 31L40 30L44 30L44 28L45 28L45 26L43 26L43 25L44 25L44 24L43 24L43 23L44 23L44 20L47 20L47 22L46 22L46 21L45 21L45 22L46 22L46 23L45 23L45 25L46 25L46 24L47 24L47 25L48 25L48 22L49 22L49 21L51 21L51 20L52 20L52 19L50 19L50 17L47 17L47 16L48 16L48 15L49 15L49 14L50 14L50 12L49 12L49 13L47 13L47 14L45 14L45 13L44 13L44 12L43 12L43 13L41 13L41 14L43 14L43 15L42 15L42 16L41 16L41 15L40 15L40 14L38 14L38 13L40 13L40 12L41 12L41 10L43 10L43 11L45 11L45 12L47 12L47 10L46 10L46 11L45 11L45 10L44 10L44 8L46 8L46 7L45 7L45 6L44 6L44 7L43 7L43 9L39 9L39 11L37 11L37 10L38 10L38 9L37 9L37 8L35 8L35 5L33 5L33 4L34 4L34 3L33 3L33 2ZM21 3L21 4L22 4L22 3ZM45 4L45 5L46 5L46 4ZM27 5L27 8L30 8L30 5ZM21 6L21 7L22 7L22 6ZM28 6L28 7L29 7L29 6ZM33 6L33 7L34 7L34 6ZM40 6L40 7L41 7L41 6ZM51 8L51 9L52 9L52 8ZM53 8L53 9L54 9L54 8ZM55 8L55 9L56 9L56 8ZM2 9L2 10L1 10L1 11L2 11L2 12L5 12L5 13L6 13L6 14L7 14L7 15L6 15L6 16L4 16L4 17L6 17L6 18L8 18L8 17L6 17L6 16L7 16L7 15L9 15L9 17L10 17L10 18L11 18L11 20L10 20L10 19L9 19L9 20L10 20L10 21L14 21L14 22L16 22L16 21L17 21L17 20L16 20L16 21L15 21L15 18L16 18L16 19L18 19L18 20L19 20L19 17L18 17L18 18L17 18L17 17L15 17L15 15L14 15L14 17L13 17L13 18L11 18L11 16L13 16L13 15L10 15L10 12L9 12L9 10L7 10L7 9L6 9L6 10L7 10L7 11L6 11L6 12L5 12L5 10L4 10L4 9ZM2 10L2 11L4 11L4 10ZM7 11L7 12L6 12L6 13L7 13L7 12L8 12L8 13L9 13L9 12L8 12L8 11ZM39 11L39 12L40 12L40 11ZM16 12L16 13L17 13L17 12ZM52 12L52 13L53 13L53 12ZM54 12L54 14L53 14L53 15L54 15L54 14L56 14L56 13L55 13L55 12ZM31 13L31 14L30 14L30 15L32 15L32 18L30 18L30 19L29 19L29 20L27 20L27 19L28 19L28 18L27 18L27 17L28 17L28 16L27 16L27 15L26 15L26 14L25 14L25 15L26 15L26 17L25 17L25 16L23 16L23 15L24 15L24 14L23 14L23 15L21 15L21 16L22 16L22 17L25 17L25 19L26 19L26 20L25 20L25 21L30 21L30 20L31 20L31 19L32 19L32 18L34 18L34 19L33 19L33 20L32 20L32 21L31 21L31 23L28 23L28 24L25 24L25 25L26 25L26 26L22 26L22 27L21 27L21 28L22 28L22 29L20 29L20 30L19 30L19 31L20 31L20 32L19 32L19 33L18 33L18 34L19 34L19 35L22 35L22 34L23 34L23 33L25 33L25 34L26 34L26 33L27 33L27 35L26 35L26 36L27 36L27 37L28 37L28 38L27 38L27 39L28 39L28 40L32 40L32 41L30 41L30 42L32 42L32 43L33 43L33 42L34 42L34 43L35 43L35 44L36 44L36 43L37 43L37 42L35 42L35 40L38 40L38 42L39 42L39 41L42 41L42 40L44 40L44 39L45 39L45 38L44 38L44 37L45 37L45 36L44 36L44 35L43 35L43 34L42 34L42 35L41 35L41 36L40 36L40 37L38 37L38 35L37 35L37 34L35 34L35 33L34 33L34 31L33 31L33 30L35 30L35 28L36 28L36 27L39 27L39 25L41 25L41 24L42 24L42 25L43 25L43 24L42 24L42 22L41 22L41 24L39 24L39 23L40 23L40 22L39 22L39 21L41 21L41 20L39 20L39 21L38 21L38 20L37 20L37 19L39 19L39 17L41 17L41 16L39 16L39 15L38 15L38 14L37 14L37 15L35 15L35 16L33 16L33 15L32 15L32 13ZM44 14L44 18L43 18L43 20L42 20L42 21L43 21L43 20L44 20L44 18L45 18L45 19L46 19L46 18L47 18L47 19L48 19L48 18L47 18L47 17L45 17L45 14ZM35 16L35 17L37 17L37 18L38 18L38 17L39 17L39 16L38 16L38 17L37 17L37 16ZM42 16L42 17L43 17L43 16ZM14 17L14 18L15 18L15 17ZM23 18L23 19L24 19L24 18ZM26 18L26 19L27 19L27 18ZM41 18L41 19L42 19L42 18ZM0 19L0 20L1 20L1 19ZM12 19L12 20L14 20L14 19ZM34 19L34 20L33 20L33 21L34 21L34 20L35 20L35 23L34 23L34 22L33 22L33 23L32 23L32 24L30 24L30 25L29 25L29 26L28 26L28 25L27 25L27 26L26 26L26 27L25 27L25 28L26 28L26 29L23 29L23 31L21 31L21 30L20 30L20 31L21 31L21 32L20 32L20 33L19 33L19 34L20 34L20 33L21 33L21 34L22 34L22 33L21 33L21 32L23 32L23 31L25 31L25 32L28 32L28 33L29 33L29 34L30 34L30 36L29 36L29 37L31 37L31 38L29 38L29 39L33 39L33 40L35 40L35 39L37 39L37 38L38 38L38 37L37 37L37 36L35 36L35 35L34 35L34 34L33 34L33 33L32 33L32 31L31 31L31 30L33 30L33 29L32 29L32 27L33 27L33 28L35 28L35 27L36 27L36 26L34 26L34 27L33 27L33 26L32 26L32 24L33 24L33 25L37 25L37 26L38 26L38 25L39 25L39 24L37 24L37 22L38 22L38 23L39 23L39 22L38 22L38 21L37 21L37 20L36 20L36 19ZM2 21L2 23L3 23L3 24L2 24L2 25L3 25L3 26L7 26L7 25L4 25L4 23L5 23L5 24L7 24L7 23L5 23L5 22L4 22L4 23L3 23L3 21ZM31 26L31 27L32 27L32 26ZM5 27L5 30L8 30L8 27ZM27 27L27 30L30 30L30 27ZM49 27L49 30L52 30L52 27ZM55 27L55 28L54 28L54 29L56 29L56 27ZM6 28L6 29L7 29L7 28ZM28 28L28 29L29 29L29 28ZM50 28L50 29L51 29L51 28ZM4 31L4 33L5 33L5 34L7 34L7 33L6 33L6 32L7 32L7 31L6 31L6 32L5 32L5 31ZM29 31L29 33L31 33L31 31ZM47 31L47 32L48 32L48 33L49 33L49 32L48 32L48 31ZM45 32L45 33L46 33L46 32ZM9 33L9 34L10 34L10 33ZM50 34L50 35L52 35L52 34ZM33 35L33 36L32 36L32 37L33 37L33 39L35 39L35 36L34 36L34 35ZM8 36L8 37L9 37L9 36ZM43 36L43 37L40 37L40 38L43 38L43 37L44 37L44 36ZM12 37L12 39L11 39L11 38L9 38L9 39L11 39L11 40L6 40L6 41L5 41L5 43L7 43L7 42L6 42L6 41L9 41L9 44L10 44L10 45L11 45L11 46L12 46L12 45L15 45L15 41L14 41L14 40L13 40L13 38L14 38L14 39L15 39L15 40L16 40L16 39L15 39L15 38L16 38L16 37ZM6 38L6 39L8 39L8 38ZM19 38L19 39L18 39L18 40L19 40L19 39L20 39L20 38ZM38 39L38 40L40 40L40 39ZM11 40L11 41L13 41L13 42L10 42L10 43L11 43L11 45L12 45L12 44L14 44L14 41L13 41L13 40ZM23 41L23 42L25 42L25 41ZM32 41L32 42L33 42L33 41ZM43 41L43 42L44 42L44 41ZM41 42L41 44L40 44L40 43L39 43L39 44L40 44L40 45L38 45L38 46L39 46L39 47L38 47L38 48L37 48L37 49L38 49L38 50L41 50L41 48L42 48L42 49L43 49L43 50L44 50L44 51L45 51L45 50L44 50L44 49L43 49L43 48L42 48L42 47L43 47L43 46L41 46L41 44L42 44L42 42ZM29 43L29 44L30 44L30 43ZM55 43L55 44L54 44L54 45L55 45L55 46L54 46L54 47L55 47L55 46L56 46L56 43ZM6 44L6 45L7 45L7 44ZM19 44L19 45L20 45L20 46L21 46L21 45L22 45L22 46L23 46L23 45L22 45L22 44ZM36 45L36 46L37 46L37 45ZM14 46L14 47L15 47L15 46ZM40 46L40 47L39 47L39 48L38 48L38 49L39 49L39 48L41 48L41 46ZM19 47L19 49L20 49L20 50L19 50L19 51L22 51L22 50L21 50L21 49L23 49L23 48L24 48L24 49L25 49L25 48L24 48L24 47L21 47L21 49L20 49L20 47ZM29 47L29 48L30 48L30 47ZM33 48L33 49L32 49L32 50L33 50L33 51L32 51L32 52L33 52L33 53L34 53L34 52L33 52L33 51L34 51L34 50L33 50L33 49L34 49L34 48ZM54 48L54 49L56 49L56 48ZM9 49L9 50L10 50L10 49ZM27 49L27 52L30 52L30 49ZM49 49L49 52L52 52L52 49ZM28 50L28 51L29 51L29 50ZM50 50L50 51L51 51L51 50ZM16 51L16 52L14 52L14 53L16 53L16 52L17 52L17 51ZM17 54L17 55L19 55L19 54ZM41 54L41 55L42 55L42 56L43 56L43 55L42 55L42 54ZM14 55L14 56L16 56L16 55ZM37 55L37 56L39 56L39 55ZM50 55L50 56L51 56L51 55ZM53 55L53 56L55 56L55 57L56 57L56 56L55 56L55 55ZM0 0L0 7L7 7L7 0ZM1 1L1 6L6 6L6 1ZM2 2L2 5L5 5L5 2ZM50 0L50 7L57 7L57 0ZM51 1L51 6L56 6L56 1ZM52 2L52 5L55 5L55 2ZM0 50L0 57L7 57L7 50ZM1 51L1 56L6 56L6 51ZM2 52L2 55L5 55L5 52Z" fill="#000000"/></g></g></svg>
