<?xml version="1.0" encoding="UTF-8"?>
<svg xmlns="http://www.w3.org/2000/svg" version="1.1" width="300" height="300" viewBox="0 0 300 300"><rect x="0" y="0" width="300" height="300" fill="#fefefe"/><g transform="scale(4.615)"><g transform="translate(4,4)"><path fill-rule="evenodd" d="M9 0L9 1L8 1L8 3L9 3L9 4L8 4L8 8L6 8L6 9L8 9L8 8L9 8L9 10L8 10L8 11L7 11L7 10L5 10L5 11L7 11L7 12L0 12L0 13L3 13L3 15L2 15L2 14L0 14L0 15L1 15L1 16L3 16L3 17L4 17L4 18L5 18L5 17L4 17L4 16L5 16L5 15L4 15L4 14L6 14L6 15L7 15L7 16L6 16L6 17L7 17L7 16L8 16L8 18L6 18L6 19L9 19L9 16L10 16L10 17L12 17L12 18L10 18L10 20L5 20L5 19L3 19L3 20L2 20L2 17L0 17L0 18L1 18L1 20L0 20L0 23L1 23L1 24L0 24L0 29L1 29L1 30L2 30L2 31L3 31L3 32L2 32L2 33L1 33L1 32L0 32L0 33L1 33L1 34L0 34L0 39L1 39L1 40L2 40L2 41L0 41L0 42L1 42L1 43L0 43L0 44L1 44L1 45L0 45L0 48L5 48L5 47L7 47L7 48L6 48L6 49L8 49L8 51L9 51L9 53L8 53L8 54L9 54L9 55L8 55L8 57L10 57L10 56L9 56L9 55L11 55L11 54L12 54L12 56L11 56L11 57L12 57L12 56L13 56L13 55L14 55L14 57L17 57L17 56L18 56L18 57L23 57L23 55L22 55L22 56L18 56L18 55L21 55L21 52L24 52L24 53L22 53L22 54L27 54L27 55L26 55L26 56L25 56L25 55L24 55L24 57L26 57L26 56L27 56L27 55L28 55L28 56L29 56L29 57L31 57L31 56L33 56L33 57L35 57L35 56L36 56L36 57L41 57L41 55L42 55L42 57L44 57L44 55L45 55L45 54L44 54L44 53L45 53L45 51L46 51L46 53L47 53L47 52L48 52L48 53L52 53L52 54L51 54L51 56L50 56L50 54L46 54L46 55L47 55L47 56L45 56L45 57L48 57L48 55L49 55L49 56L50 56L50 57L51 57L51 56L52 56L52 57L53 57L53 56L54 56L54 55L55 55L55 54L56 54L56 55L57 55L57 51L56 51L56 50L55 50L55 51L56 51L56 52L54 52L54 53L55 53L55 54L53 54L53 48L54 48L54 46L52 46L52 44L53 44L53 43L52 43L52 44L51 44L51 42L49 42L49 43L48 43L48 42L47 42L47 46L46 46L46 47L47 47L47 48L45 48L45 45L44 45L44 44L42 44L42 43L43 43L43 42L42 42L42 41L41 41L41 42L40 42L40 39L41 39L41 40L43 40L43 41L44 41L44 43L45 43L45 40L46 40L46 41L47 41L47 40L49 40L49 39L50 39L50 40L52 40L52 41L53 41L53 42L54 42L54 43L57 43L57 42L56 42L56 41L57 41L57 40L56 40L56 39L57 39L57 36L56 36L56 35L57 35L57 32L56 32L56 31L57 31L57 30L55 30L55 32L54 32L54 33L53 33L53 34L52 34L52 32L53 32L53 31L54 31L54 28L53 28L53 27L55 27L55 26L57 26L57 20L56 20L56 21L54 21L54 20L53 20L53 19L55 19L55 16L53 16L53 17L52 17L52 15L51 15L51 14L52 14L52 13L53 13L53 14L54 14L54 11L55 11L55 12L56 12L56 14L55 14L55 15L56 15L56 17L57 17L57 15L56 15L56 14L57 14L57 12L56 12L56 11L57 11L57 10L56 10L56 8L54 8L54 9L53 9L53 8L50 8L50 9L51 9L51 10L50 10L50 11L49 11L49 14L48 14L48 16L49 16L49 14L50 14L50 15L51 15L51 17L50 17L50 19L49 19L49 18L48 18L48 17L47 17L47 16L46 16L46 15L45 15L45 16L44 16L44 18L45 18L45 16L46 16L46 17L47 17L47 18L46 18L46 20L45 20L45 19L44 19L44 20L43 20L43 18L42 18L42 14L38 14L38 12L36 12L36 11L37 11L37 9L38 9L38 8L39 8L39 10L41 10L41 9L44 9L44 10L45 10L45 11L44 11L44 12L43 12L43 11L42 11L42 12L43 12L43 14L44 14L44 13L46 13L46 14L47 14L47 12L48 12L48 10L45 10L45 9L46 9L46 8L48 8L48 9L49 9L49 6L48 6L48 7L47 7L47 5L48 5L48 0L44 0L44 1L45 1L45 2L44 2L44 3L45 3L45 2L46 2L46 3L47 3L47 5L46 5L46 7L45 7L45 4L44 4L44 7L43 7L43 4L39 4L39 3L37 3L37 4L38 4L38 5L37 5L37 6L36 6L36 7L35 7L35 5L36 5L36 4L35 4L35 5L34 5L34 4L33 4L33 5L32 5L32 4L31 4L31 2L30 2L30 4L24 4L24 5L21 5L21 6L20 6L20 5L18 5L18 3L17 3L17 2L18 2L18 1L17 1L17 0L12 0L12 2L13 2L13 3L14 3L14 2L15 2L15 3L17 3L17 5L18 5L18 7L19 7L19 8L17 8L17 6L16 6L16 7L15 7L15 6L14 6L14 5L15 5L15 4L12 4L12 3L11 3L11 1L10 1L10 0ZM19 0L19 4L20 4L20 3L21 3L21 2L22 2L22 3L24 3L24 2L23 2L23 1L25 1L25 2L27 2L27 1L28 1L28 3L29 3L29 1L31 1L31 0L26 0L26 1L25 1L25 0L22 0L22 1L21 1L21 0ZM32 0L32 3L33 3L33 2L34 2L34 1L36 1L36 2L37 2L37 1L38 1L38 2L40 2L40 1L43 1L43 0L40 0L40 1L39 1L39 0L37 0L37 1L36 1L36 0ZM9 1L9 2L10 2L10 1ZM13 1L13 2L14 2L14 1ZM20 1L20 2L21 2L21 1ZM46 1L46 2L47 2L47 1ZM41 2L41 3L42 3L42 2ZM9 4L9 5L10 5L10 6L9 6L9 7L10 7L10 9L11 9L11 7L12 7L12 6L13 6L13 8L12 8L12 10L13 10L13 11L14 11L14 13L13 13L13 12L12 12L12 11L11 11L11 12L10 12L10 16L12 16L12 17L13 17L13 18L12 18L12 19L11 19L11 20L10 20L10 21L11 21L11 20L12 20L12 19L14 19L14 20L13 20L13 21L12 21L12 22L11 22L11 23L12 23L12 22L14 22L14 26L13 26L13 25L12 25L12 24L11 24L11 26L10 26L10 27L9 27L9 30L10 30L10 32L11 32L11 33L12 33L12 35L11 35L11 34L10 34L10 35L11 35L11 36L12 36L12 35L13 35L13 33L15 33L15 34L16 34L16 35L15 35L15 36L14 36L14 38L15 38L15 36L16 36L16 35L17 35L17 36L18 36L18 35L17 35L17 33L18 33L18 34L19 34L19 37L20 37L20 34L21 34L21 35L22 35L22 34L23 34L23 36L25 36L25 37L24 37L24 38L22 38L22 37L21 37L21 40L22 40L22 41L21 41L21 42L20 42L20 38L19 38L19 39L18 39L18 38L17 38L17 39L16 39L16 40L17 40L17 41L16 41L16 42L17 42L17 43L16 43L16 45L15 45L15 41L14 41L14 42L10 42L10 41L13 41L13 40L14 40L14 39L13 39L13 37L9 37L9 35L6 35L6 34L8 34L8 33L9 33L9 31L8 31L8 32L7 32L7 31L5 31L5 34L4 34L4 33L2 33L2 34L1 34L1 37L2 37L2 38L1 38L1 39L2 39L2 40L3 40L3 42L4 42L4 43L3 43L3 44L2 44L2 46L1 46L1 47L2 47L2 46L3 46L3 47L5 47L5 46L7 46L7 45L6 45L6 44L7 44L7 43L5 43L5 42L8 42L8 45L9 45L9 44L10 44L10 43L14 43L14 45L13 45L13 44L11 44L11 45L10 45L10 46L8 46L8 48L9 48L9 47L10 47L10 48L11 48L11 49L12 49L12 47L11 47L11 46L12 46L12 45L13 45L13 47L14 47L14 45L15 45L15 50L16 50L16 49L17 49L17 48L19 48L19 46L20 46L20 47L21 47L21 48L20 48L20 49L18 49L18 50L21 50L21 51L22 51L22 50L24 50L24 51L25 51L25 50L26 50L26 48L24 48L24 49L22 49L22 50L21 50L21 48L23 48L23 47L25 47L25 45L27 45L27 46L26 46L26 47L27 47L27 48L28 48L28 47L29 47L29 46L31 46L31 44L32 44L32 45L33 45L33 47L30 47L30 48L31 48L31 49L32 49L32 50L31 50L31 51L32 51L32 50L33 50L33 52L36 52L36 51L37 51L37 52L38 52L38 53L36 53L36 54L35 54L35 53L32 53L32 55L33 55L33 54L35 54L35 55L34 55L34 56L35 56L35 55L36 55L36 56L39 56L39 55L41 55L41 54L40 54L40 53L42 53L42 54L43 54L43 53L44 53L44 51L45 51L45 49L44 49L44 50L43 50L43 47L44 47L44 45L42 45L42 44L41 44L41 48L42 48L42 49L41 49L41 50L40 50L40 49L39 49L39 48L38 48L38 47L40 47L40 46L39 46L39 45L37 45L37 46L35 46L35 45L36 45L36 44L37 44L37 42L38 42L38 43L39 43L39 44L40 44L40 43L39 43L39 42L38 42L38 40L37 40L37 41L36 41L36 42L35 42L35 40L34 40L34 41L32 41L32 40L33 40L33 39L34 39L34 37L33 37L33 39L32 39L32 40L31 40L31 41L32 41L32 42L33 42L33 44L32 44L32 43L30 43L30 45L27 45L27 44L25 44L25 45L24 45L24 44L23 44L23 42L25 42L25 43L26 43L26 42L27 42L27 43L28 43L28 44L29 44L29 39L30 39L30 38L29 38L29 39L28 39L28 41L26 41L26 42L25 42L25 39L24 39L24 38L26 38L26 36L34 36L34 34L35 34L35 36L36 36L36 35L37 35L37 36L38 36L38 38L37 38L37 37L35 37L35 39L36 39L36 38L37 38L37 39L39 39L39 38L41 38L41 39L43 39L43 40L44 40L44 39L46 39L46 37L49 37L49 36L48 36L48 35L50 35L50 36L51 36L51 35L50 35L50 34L47 34L47 32L48 32L48 29L46 29L46 27L45 27L45 26L46 26L46 25L45 25L45 26L43 26L43 23L44 23L44 22L45 22L45 20L44 20L44 21L43 21L43 20L42 20L42 21L41 21L41 23L42 23L42 25L41 25L41 26L40 26L40 23L38 23L38 22L39 22L39 21L38 21L38 20L37 20L37 21L36 21L36 19L38 19L38 17L39 17L39 15L38 15L38 14L37 14L37 15L38 15L38 17L37 17L37 18L36 18L36 17L35 17L35 16L34 16L34 17L32 17L32 16L33 16L33 15L36 15L36 13L35 13L35 14L34 14L34 12L35 12L35 11L36 11L36 10L35 10L35 9L36 9L36 8L35 8L35 7L34 7L34 5L33 5L33 7L32 7L32 6L31 6L31 8L32 8L32 9L29 9L29 10L32 10L32 11L31 11L31 12L30 12L30 11L29 11L29 13L28 13L28 12L26 12L26 11L27 11L27 10L26 10L26 9L25 9L25 8L26 8L26 6L25 6L25 5L24 5L24 6L23 6L23 7L22 7L22 6L21 6L21 7L22 7L22 8L23 8L23 7L24 7L24 9L21 9L21 8L20 8L20 9L19 9L19 10L20 10L20 12L21 12L21 10L23 10L23 11L25 11L25 12L24 12L24 14L21 14L21 13L20 13L20 14L19 14L19 13L18 13L18 12L19 12L19 11L18 11L18 9L17 9L17 8L16 8L16 9L15 9L15 8L14 8L14 6L13 6L13 5L12 5L12 6L11 6L11 4ZM27 5L27 8L30 8L30 5ZM40 5L40 6L39 6L39 8L40 8L40 6L41 6L41 8L43 8L43 7L42 7L42 5ZM10 6L10 7L11 7L11 6ZM19 6L19 7L20 7L20 6ZM24 6L24 7L25 7L25 6ZM28 6L28 7L29 7L29 6ZM37 6L37 8L38 8L38 6ZM33 7L33 8L34 8L34 9L35 9L35 8L34 8L34 7ZM44 7L44 9L45 9L45 7ZM0 8L0 11L4 11L4 10L3 10L3 9L4 9L4 8L3 8L3 9L2 9L2 8ZM13 8L13 9L14 9L14 8ZM1 9L1 10L2 10L2 9ZM52 9L52 11L54 11L54 10L53 10L53 9ZM9 10L9 11L10 11L10 10ZM15 10L15 11L16 11L16 12L15 12L15 14L14 14L14 15L13 15L13 13L11 13L11 14L12 14L12 15L13 15L13 16L14 16L14 19L15 19L15 20L16 20L16 26L17 26L17 25L19 25L19 26L20 26L20 27L17 27L17 28L16 28L16 27L15 27L15 26L14 26L14 27L13 27L13 26L11 26L11 27L13 27L13 28L11 28L11 29L10 29L10 30L11 30L11 29L13 29L13 30L12 30L12 31L11 31L11 32L13 32L13 30L14 30L14 32L15 32L15 33L16 33L16 31L15 31L15 30L16 30L16 29L18 29L18 28L20 28L20 27L21 27L21 26L22 26L22 27L23 27L23 30L21 30L21 29L20 29L20 30L21 30L21 32L20 32L20 31L19 31L19 30L17 30L17 32L18 32L18 33L21 33L21 34L22 34L22 33L24 33L24 32L25 32L25 34L24 34L24 35L25 35L25 34L26 34L26 35L28 35L28 34L26 34L26 33L28 33L28 32L29 32L29 33L30 33L30 32L31 32L31 34L30 34L30 35L33 35L33 33L32 33L32 31L31 31L31 30L32 30L32 29L34 29L34 28L35 28L35 32L36 32L36 33L37 33L37 31L36 31L36 29L37 29L37 30L39 30L39 31L38 31L38 32L39 32L39 34L38 34L38 36L40 36L40 37L41 37L41 38L42 38L42 36L43 36L43 37L44 37L44 38L45 38L45 36L46 36L46 34L44 34L44 35L42 35L42 34L41 34L41 32L42 32L42 33L43 33L43 32L45 32L45 33L46 33L46 31L41 31L41 30L42 30L42 29L41 29L41 30L40 30L40 28L41 28L41 27L38 27L38 29L37 29L37 28L36 28L36 27L34 27L34 26L38 26L38 25L39 25L39 24L38 24L38 23L37 23L37 22L35 22L35 23L33 23L33 22L32 22L32 20L33 20L33 21L35 21L35 20L34 20L34 19L35 19L35 18L33 18L33 19L31 19L31 20L30 20L30 17L31 17L31 18L32 18L32 17L31 17L31 16L32 16L32 15L33 15L33 14L32 14L32 13L33 13L33 11L34 11L34 10L33 10L33 11L32 11L32 12L31 12L31 14L32 14L32 15L31 15L31 16L28 16L28 15L29 15L29 14L30 14L30 13L29 13L29 14L27 14L27 13L26 13L26 14L25 14L25 15L27 15L27 16L26 16L26 17L25 17L25 18L24 18L24 17L22 17L22 18L21 18L21 16L20 16L20 15L19 15L19 16L17 16L17 18L16 18L16 19L15 19L15 17L16 17L16 15L17 15L17 13L16 13L16 12L18 12L18 11L16 11L16 10ZM55 10L55 11L56 11L56 10ZM40 11L40 13L41 13L41 11ZM50 11L50 12L51 12L51 13L50 13L50 14L51 14L51 13L52 13L52 12L51 12L51 11ZM7 12L7 13L6 13L6 14L8 14L8 15L9 15L9 12ZM22 12L22 13L23 13L23 12ZM15 14L15 15L16 15L16 14ZM3 15L3 16L4 16L4 15ZM23 15L23 16L24 16L24 15ZM40 16L40 17L41 17L41 16ZM19 17L19 20L20 20L20 22L19 22L19 21L18 21L18 18L17 18L17 21L18 21L18 22L17 22L17 24L18 24L18 22L19 22L19 23L20 23L20 22L22 22L22 23L25 23L25 25L24 25L24 24L23 24L23 25L22 25L22 26L23 26L23 27L24 27L24 28L26 28L26 26L31 26L31 29L32 29L32 28L33 28L33 27L32 27L32 26L34 26L34 25L35 25L35 24L33 24L33 23L32 23L32 24L33 24L33 25L32 25L32 26L31 26L31 24L30 24L30 23L31 23L31 21L30 21L30 20L29 20L29 21L28 21L28 24L29 24L29 25L26 25L26 24L27 24L27 22L26 22L26 21L27 21L27 18L26 18L26 21L25 21L25 22L24 22L24 21L21 21L21 18L20 18L20 17ZM53 17L53 18L51 18L51 19L53 19L53 18L54 18L54 17ZM23 18L23 19L22 19L22 20L25 20L25 19L24 19L24 18ZM28 18L28 19L29 19L29 18ZM39 18L39 19L40 19L40 20L41 20L41 19L42 19L42 18ZM47 18L47 21L46 21L46 22L49 22L49 19L48 19L48 18ZM56 18L56 19L57 19L57 18ZM1 20L1 21L2 21L2 24L1 24L1 25L2 25L2 26L3 26L3 27L4 27L4 25L2 25L2 24L3 24L3 23L6 23L6 24L5 24L5 25L6 25L6 26L7 26L7 25L8 25L8 26L9 26L9 25L10 25L10 22L8 22L8 21L6 21L6 22L4 22L4 21L5 21L5 20L3 20L3 21L2 21L2 20ZM50 21L50 23L49 23L49 24L50 24L50 26L52 26L52 25L51 25L51 24L54 24L54 25L53 25L53 26L55 26L55 24L56 24L56 22L55 22L55 23L52 23L52 22L51 22L51 21ZM53 21L53 22L54 22L54 21ZM6 22L6 23L7 23L7 24L6 24L6 25L7 25L7 24L9 24L9 23L8 23L8 22ZM25 22L25 23L26 23L26 22ZM29 22L29 23L30 23L30 22ZM36 23L36 24L37 24L37 23ZM50 23L50 24L51 24L51 23ZM19 24L19 25L20 25L20 26L21 26L21 24ZM25 25L25 26L24 26L24 27L25 27L25 26L26 26L26 25ZM47 25L47 28L48 28L48 26L49 26L49 25ZM5 27L5 30L8 30L8 27ZM27 27L27 30L30 30L30 27ZM42 27L42 28L43 28L43 29L44 29L44 30L46 30L46 29L45 29L45 27L44 27L44 28L43 28L43 27ZM49 27L49 30L52 30L52 27ZM56 27L56 28L55 28L55 29L57 29L57 27ZM3 28L3 29L4 29L4 28ZM6 28L6 29L7 29L7 28ZM13 28L13 29L14 29L14 28ZM28 28L28 29L29 29L29 28ZM50 28L50 29L51 29L51 28ZM24 29L24 30L26 30L26 29ZM18 31L18 32L19 32L19 31ZM22 31L22 32L23 32L23 31ZM25 31L25 32L26 32L26 31ZM27 31L27 32L28 32L28 31ZM33 31L33 32L34 32L34 31ZM39 31L39 32L40 32L40 31ZM49 31L49 33L50 33L50 32L52 32L52 31ZM6 32L6 33L7 33L7 32ZM55 32L55 33L54 33L54 34L53 34L53 35L52 35L52 36L53 36L53 35L54 35L54 36L55 36L55 35L56 35L56 34L55 34L55 33L56 33L56 32ZM3 35L3 36L2 36L2 37L3 37L3 40L5 40L5 41L4 41L4 42L5 42L5 41L8 41L8 42L9 42L9 43L10 43L10 42L9 42L9 41L10 41L10 40L12 40L12 38L9 38L9 39L10 39L10 40L9 40L9 41L8 41L8 39L7 39L7 38L8 38L8 37L7 37L7 36L6 36L6 37L7 37L7 38L5 38L5 39L4 39L4 36L5 36L5 35ZM41 35L41 36L42 36L42 35ZM44 35L44 36L45 36L45 35ZM50 37L50 39L51 39L51 38L52 38L52 40L55 40L55 37L54 37L54 39L53 39L53 38L52 38L52 37ZM47 38L47 39L48 39L48 38ZM5 39L5 40L7 40L7 39ZM23 39L23 41L24 41L24 39ZM26 39L26 40L27 40L27 39ZM18 40L18 41L17 41L17 42L18 42L18 43L19 43L19 40ZM54 41L54 42L55 42L55 41ZM21 42L21 43L20 43L20 44L21 44L21 46L22 46L22 47L23 47L23 46L22 46L22 42ZM34 42L34 43L35 43L35 44L36 44L36 43L35 43L35 42ZM41 42L41 43L42 43L42 42ZM49 43L49 44L48 44L48 45L49 45L49 44L50 44L50 45L51 45L51 44L50 44L50 43ZM3 44L3 45L4 45L4 46L5 46L5 44ZM17 44L17 45L19 45L19 44ZM33 44L33 45L34 45L34 44ZM55 44L55 46L56 46L56 48L57 48L57 45L56 45L56 44ZM17 46L17 47L18 47L18 46ZM27 46L27 47L28 47L28 46ZM34 46L34 48L32 48L32 49L34 49L34 51L35 51L35 50L36 50L36 49L37 49L37 50L38 50L38 52L39 52L39 53L38 53L38 54L39 54L39 53L40 53L40 52L41 52L41 51L43 51L43 50L41 50L41 51L40 51L40 52L39 52L39 50L38 50L38 49L37 49L37 48L35 48L35 46ZM47 46L47 47L48 47L48 46ZM49 46L49 48L50 48L50 46ZM13 48L13 49L14 49L14 48ZM47 48L47 50L46 50L46 51L47 51L47 50L48 50L48 48ZM9 49L9 51L10 51L10 53L9 53L9 54L11 54L11 53L13 53L13 52L11 52L11 50L10 50L10 49ZM27 49L27 52L30 52L30 49ZM49 49L49 52L52 52L52 49ZM28 50L28 51L29 51L29 50ZM50 50L50 51L51 51L51 50ZM15 51L15 52L14 52L14 53L15 53L15 54L14 54L14 55L15 55L15 56L17 56L17 55L18 55L18 53L17 53L17 52L19 52L19 53L20 53L20 52L19 52L19 51L17 51L17 52L16 52L16 51ZM25 52L25 53L26 53L26 52ZM42 52L42 53L43 53L43 52ZM16 53L16 54L17 54L17 53ZM29 54L29 56L30 56L30 55L31 55L31 54ZM36 54L36 55L37 55L37 54ZM55 56L55 57L56 57L56 56ZM0 0L0 7L7 7L7 0ZM1 1L1 6L6 6L6 1ZM2 2L2 5L5 5L5 2ZM50 0L50 7L57 7L57 0ZM51 1L51 6L56 6L56 1ZM52 2L52 5L55 5L55 2ZM0 50L0 57L7 57L7 50ZM1 51L1 56L6 56L6 51ZM2 52L2 55L5 55L5 52Z" fill="#000000"/></g></g></svg>
