<?xml version="1.0" encoding="UTF-8"?>
<svg xmlns="http://www.w3.org/2000/svg" version="1.1" width="300" height="300" viewBox="0 0 300 300"><rect x="0" y="0" width="300" height="300" fill="#fefefe"/><g transform="scale(4.615)"><g transform="translate(4,4)"><path fill-rule="evenodd" d="M8 0L8 2L9 2L9 3L10 3L10 4L8 4L8 9L7 9L7 8L5 8L5 9L4 9L4 10L5 10L5 9L7 9L7 10L6 10L6 11L4 11L4 12L3 12L3 10L1 10L1 12L2 12L2 13L1 13L1 14L2 14L2 17L1 17L1 16L0 16L0 20L1 20L1 19L2 19L2 20L6 20L6 21L9 21L9 23L11 23L11 24L5 24L5 25L2 25L2 26L4 26L4 27L1 27L1 28L0 28L0 29L2 29L2 30L3 30L3 34L1 34L1 36L0 36L0 38L1 38L1 39L0 39L0 40L1 40L1 41L2 41L2 42L0 42L0 44L1 44L1 43L4 43L4 42L3 42L3 41L5 41L5 43L7 43L7 44L6 44L6 45L5 45L5 44L3 44L3 45L0 45L0 48L5 48L5 47L10 47L10 46L12 46L12 47L11 47L11 48L10 48L10 49L11 49L11 50L10 50L10 51L8 51L8 52L9 52L9 53L11 53L11 54L10 54L10 55L9 55L9 54L8 54L8 57L9 57L9 56L10 56L10 55L13 55L13 54L14 54L14 53L13 53L13 54L12 54L12 53L11 53L11 52L10 52L10 51L11 51L11 50L13 50L13 51L12 51L12 52L15 52L15 57L17 57L17 56L18 56L18 57L19 57L19 56L18 56L18 55L19 55L19 54L18 54L18 53L19 53L19 51L20 51L20 53L21 53L21 51L22 51L22 54L23 54L23 56L22 56L22 55L21 55L21 54L20 54L20 55L21 55L21 56L22 56L22 57L23 57L23 56L24 56L24 57L25 57L25 55L26 55L26 57L28 57L28 55L29 55L29 57L33 57L33 55L30 55L30 54L31 54L31 53L32 53L32 54L34 54L34 57L35 57L35 55L37 55L37 54L36 54L36 53L37 53L37 52L38 52L38 53L39 53L39 56L40 56L40 57L41 57L41 56L43 56L43 54L42 54L42 53L43 53L43 52L44 52L44 55L45 55L45 56L44 56L44 57L48 57L48 55L49 55L49 57L50 57L50 55L49 55L49 54L52 54L52 55L53 55L53 56L51 56L51 57L54 57L54 54L53 54L53 53L56 53L56 51L57 51L57 49L56 49L56 47L57 47L57 44L56 44L56 47L55 47L55 46L54 46L54 45L53 45L53 48L52 48L52 45L51 45L51 44L52 44L52 40L54 40L54 41L53 41L53 44L54 44L54 43L55 43L55 42L54 42L54 41L57 41L57 40L54 40L54 39L55 39L55 38L57 38L57 36L56 36L56 35L57 35L57 34L56 34L56 35L55 35L55 36L54 36L54 34L53 34L53 36L51 36L51 33L50 33L50 32L52 32L52 31L53 31L53 33L56 33L56 31L57 31L57 29L56 29L56 28L57 28L57 24L56 24L56 23L57 23L57 21L56 21L56 20L57 20L57 18L56 18L56 17L57 17L57 13L56 13L56 12L57 12L57 10L56 10L56 9L57 9L57 8L55 8L55 9L54 9L54 10L52 10L52 9L53 9L53 8L48 8L48 7L49 7L49 6L48 6L48 7L47 7L47 5L48 5L48 0L42 0L42 1L41 1L41 0L38 0L38 2L37 2L37 1L35 1L35 0L34 0L34 2L37 2L37 3L39 3L39 4L38 4L38 5L39 5L39 4L40 4L40 2L41 2L41 4L42 4L42 8L40 8L40 7L41 7L41 6L40 6L40 7L39 7L39 6L38 6L38 8L37 8L37 6L36 6L36 10L34 10L34 9L35 9L35 4L36 4L36 3L35 3L35 4L34 4L34 8L32 8L32 9L31 9L31 5L32 5L32 1L33 1L33 0L30 0L30 3L31 3L31 4L28 4L28 3L27 3L27 2L28 2L28 1L29 1L29 0L28 0L28 1L27 1L27 0L26 0L26 1L25 1L25 0L24 0L24 1L23 1L23 0L19 0L19 1L18 1L18 3L17 3L17 4L16 4L16 2L17 2L17 0L16 0L16 2L15 2L15 0L14 0L14 3L13 3L13 4L12 4L12 3L10 3L10 1L11 1L11 0ZM12 0L12 1L13 1L13 0ZM19 1L19 2L20 2L20 1ZM21 1L21 3L18 3L18 4L17 4L17 5L16 5L16 6L15 6L15 5L14 5L14 6L13 6L13 5L12 5L12 4L11 4L11 5L9 5L9 9L8 9L8 10L7 10L7 11L6 11L6 12L5 12L5 13L3 13L3 16L4 16L4 17L5 17L5 15L6 15L6 16L9 16L9 17L6 17L6 18L8 18L8 20L9 20L9 18L13 18L13 17L14 17L14 18L15 18L15 19L14 19L14 20L17 20L17 22L16 22L16 23L17 23L17 25L16 25L16 26L14 26L14 27L13 27L13 29L14 29L14 27L16 27L16 28L15 28L15 30L12 30L12 26L13 26L13 25L15 25L15 24L14 24L14 22L15 22L15 21L14 21L14 22L12 22L12 24L11 24L11 25L12 25L12 26L10 26L10 27L11 27L11 28L10 28L10 29L9 29L9 30L10 30L10 31L9 31L9 32L8 32L8 31L6 31L6 32L7 32L7 33L5 33L5 38L7 38L7 37L6 37L6 36L8 36L8 37L9 37L9 38L8 38L8 39L6 39L6 40L7 40L7 41L6 41L6 42L7 42L7 41L8 41L8 39L10 39L10 40L11 40L11 42L9 42L9 43L8 43L8 44L10 44L10 45L11 45L11 44L12 44L12 41L15 41L15 40L17 40L17 39L18 39L18 38L19 38L19 37L18 37L18 36L20 36L20 35L19 35L19 34L18 34L18 35L17 35L17 32L18 32L18 31L17 31L17 30L19 30L19 29L20 29L20 31L19 31L19 33L20 33L20 34L21 34L21 35L22 35L22 36L21 36L21 37L22 37L22 39L21 39L21 38L20 38L20 39L21 39L21 41L20 41L20 40L19 40L19 41L20 41L20 43L18 43L18 44L19 44L19 45L18 45L18 46L19 46L19 45L20 45L20 47L17 47L17 44L15 44L15 43L13 43L13 44L15 44L15 45L13 45L13 46L14 46L14 47L12 47L12 49L13 49L13 48L14 48L14 47L15 47L15 48L16 48L16 47L17 47L17 49L16 49L16 50L15 50L15 49L14 49L14 51L15 51L15 52L17 52L17 53L18 53L18 50L19 50L19 49L18 49L18 48L20 48L20 51L21 51L21 50L22 50L22 51L23 51L23 52L24 52L24 51L25 51L25 54L24 54L24 55L25 55L25 54L26 54L26 55L28 55L28 53L26 53L26 51L25 51L25 49L26 49L26 48L29 48L29 47L30 47L30 48L31 48L31 52L32 52L32 50L33 50L33 51L34 51L34 52L33 52L33 53L34 53L34 54L35 54L35 53L36 53L36 52L35 52L35 51L37 51L37 49L36 49L36 48L37 48L37 47L38 47L38 52L39 52L39 53L40 53L40 52L39 52L39 49L40 49L40 51L41 51L41 49L42 49L42 50L43 50L43 51L44 51L44 50L45 50L45 49L46 49L46 50L47 50L47 49L46 49L46 48L47 48L47 46L48 46L48 45L49 45L49 47L50 47L50 46L51 46L51 45L49 45L49 44L50 44L50 42L49 42L49 41L51 41L51 40L52 40L52 39L53 39L53 37L54 37L54 38L55 38L55 37L54 37L54 36L53 36L53 37L52 37L52 38L51 38L51 40L50 40L50 37L51 37L51 36L50 36L50 33L49 33L49 34L48 34L48 33L46 33L46 35L45 35L45 36L46 36L46 38L45 38L45 41L44 41L44 42L43 42L43 41L42 41L42 40L41 40L41 39L40 39L40 38L39 38L39 36L40 36L40 35L41 35L41 36L42 36L42 39L43 39L43 38L44 38L44 34L45 34L45 33L44 33L44 34L43 34L43 33L42 33L42 31L44 31L44 27L43 27L43 25L44 25L44 24L45 24L45 25L46 25L46 26L45 26L45 27L46 27L46 26L47 26L47 25L48 25L48 26L49 26L49 25L50 25L50 26L51 26L51 25L52 25L52 24L53 24L53 25L54 25L54 26L55 26L55 27L54 27L54 28L53 28L53 29L54 29L54 30L55 30L55 31L54 31L54 32L55 32L55 31L56 31L56 30L55 30L55 28L56 28L56 24L55 24L55 23L56 23L56 21L55 21L55 20L56 20L56 18L55 18L55 19L54 19L54 16L55 16L55 17L56 17L56 16L55 16L55 15L56 15L56 13L55 13L55 12L56 12L56 10L55 10L55 11L54 11L54 12L53 12L53 14L52 14L52 13L50 13L50 10L51 10L51 12L52 12L52 10L51 10L51 9L50 9L50 10L49 10L49 9L48 9L48 8L46 8L46 5L47 5L47 3L46 3L46 5L44 5L44 4L45 4L45 2L47 2L47 1L42 1L42 4L43 4L43 5L44 5L44 6L43 6L43 8L42 8L42 11L41 11L41 9L40 9L40 8L38 8L38 10L37 10L37 11L38 11L38 10L39 10L39 9L40 9L40 11L41 11L41 12L42 12L42 15L41 15L41 17L42 17L42 18L43 18L43 17L44 17L44 19L43 19L43 20L42 20L42 19L41 19L41 18L40 18L40 15L39 15L39 12L37 12L37 13L38 13L38 15L37 15L37 14L36 14L36 11L34 11L34 10L33 10L33 9L32 9L32 11L31 11L31 12L30 12L30 11L29 11L29 10L28 10L28 9L27 9L27 10L25 10L25 9L26 9L26 5L24 5L24 6L23 6L23 2L22 2L22 1ZM24 1L24 4L25 4L25 1ZM39 1L39 2L40 2L40 1ZM43 2L43 4L44 4L44 2ZM14 3L14 4L15 4L15 3ZM26 3L26 4L27 4L27 3ZM18 4L18 7L17 7L17 6L16 6L16 7L17 7L17 8L18 8L18 9L17 9L17 10L16 10L16 9L15 9L15 6L14 6L14 7L13 7L13 6L12 6L12 9L11 9L11 6L10 6L10 9L11 9L11 10L9 10L9 11L12 11L12 12L10 12L10 13L9 13L9 15L10 15L10 17L12 17L12 16L14 16L14 17L15 17L15 18L16 18L16 17L15 17L15 16L14 16L14 15L13 15L13 14L10 14L10 13L12 13L12 12L13 12L13 11L12 11L12 9L13 9L13 8L14 8L14 9L15 9L15 10L16 10L16 12L17 12L17 14L15 14L15 15L17 15L17 16L18 16L18 17L19 17L19 19L20 19L20 17L21 17L21 18L22 18L22 19L21 19L21 20L20 20L20 21L21 21L21 20L22 20L22 22L20 22L20 23L22 23L22 26L21 26L21 27L20 27L20 24L18 24L18 26L19 26L19 27L18 27L18 28L19 28L19 27L20 27L20 29L21 29L21 30L22 30L22 33L23 33L23 35L25 35L25 36L24 36L24 37L26 37L26 38L27 38L27 37L26 37L26 34L28 34L28 35L27 35L27 36L28 36L28 37L29 37L29 36L28 36L28 35L31 35L31 36L30 36L30 40L25 40L25 41L26 41L26 42L25 42L25 44L24 44L24 40L23 40L23 39L22 39L22 41L23 41L23 43L22 43L22 44L23 44L23 48L22 48L22 46L21 46L21 47L20 47L20 48L22 48L22 50L23 50L23 51L24 51L24 49L23 49L23 48L24 48L24 45L26 45L26 46L25 46L25 47L26 47L26 46L28 46L28 47L29 47L29 46L28 46L28 45L27 45L27 43L28 43L28 44L30 44L30 43L31 43L31 42L30 42L30 40L31 40L31 38L33 38L33 39L34 39L34 41L33 41L33 40L32 40L32 46L30 46L30 47L32 47L32 46L33 46L33 48L32 48L32 49L33 49L33 50L34 50L34 49L35 49L35 48L34 48L34 45L33 45L33 44L36 44L36 45L37 45L37 46L35 46L35 47L37 47L37 46L38 46L38 45L37 45L37 44L39 44L39 43L37 43L37 44L36 44L36 41L37 41L37 42L38 42L38 41L39 41L39 38L38 38L38 37L37 37L37 36L38 36L38 35L39 35L39 34L38 34L38 33L39 33L39 32L40 32L40 34L42 34L42 33L41 33L41 32L40 32L40 31L42 31L42 28L43 28L43 27L42 27L42 25L43 25L43 24L44 24L44 23L45 23L45 22L44 22L44 21L45 21L45 20L46 20L46 21L47 21L47 22L48 22L48 21L49 21L49 20L51 20L51 18L50 18L50 17L49 17L49 16L50 16L50 13L49 13L49 14L48 14L48 12L49 12L49 10L48 10L48 9L47 9L47 11L46 11L46 8L45 8L45 6L44 6L44 10L43 10L43 11L42 11L42 12L44 12L44 13L43 13L43 14L44 14L44 13L45 13L45 15L46 15L46 13L47 13L47 14L48 14L48 15L47 15L47 16L48 16L48 17L47 17L47 18L46 18L46 16L44 16L44 15L43 15L43 16L44 16L44 17L45 17L45 18L46 18L46 19L44 19L44 21L43 21L43 22L42 22L42 20L41 20L41 19L40 19L40 18L38 18L38 16L37 16L37 15L36 15L36 14L35 14L35 15L34 15L34 13L35 13L35 12L34 12L34 11L33 11L33 12L32 12L32 14L33 14L33 15L34 15L34 17L33 17L33 16L32 16L32 15L31 15L31 16L30 16L30 15L29 15L29 13L30 13L30 12L29 12L29 11L28 11L28 10L27 10L27 11L28 11L28 12L27 12L27 14L26 14L26 15L25 15L25 17L26 17L26 18L24 18L24 16L22 16L22 14L21 14L21 16L20 16L20 13L21 13L21 11L20 11L20 13L19 13L19 12L18 12L18 11L19 11L19 10L20 10L20 9L21 9L21 10L22 10L22 9L23 9L23 10L24 10L24 12L23 12L23 11L22 11L22 12L23 12L23 14L24 14L24 12L25 12L25 13L26 13L26 11L25 11L25 10L24 10L24 9L25 9L25 8L24 8L24 9L23 9L23 6L22 6L22 5L20 5L20 7L19 7L19 4ZM27 5L27 8L30 8L30 5ZM21 6L21 7L22 7L22 6ZM24 6L24 7L25 7L25 6ZM28 6L28 7L29 7L29 6ZM32 6L32 7L33 7L33 6ZM18 7L18 8L19 8L19 9L18 9L18 10L19 10L19 9L20 9L20 8L19 8L19 7ZM0 8L0 9L3 9L3 8ZM21 8L21 9L22 9L22 8ZM30 9L30 10L31 10L31 9ZM44 10L44 12L45 12L45 13L46 13L46 11L45 11L45 10ZM7 11L7 12L6 12L6 13L5 13L5 14L6 14L6 15L7 15L7 14L6 14L6 13L8 13L8 11ZM14 11L14 12L15 12L15 11ZM47 11L47 12L48 12L48 11ZM18 13L18 14L19 14L19 13ZM40 13L40 14L41 14L41 13ZM54 13L54 14L53 14L53 16L52 16L52 14L51 14L51 16L52 16L52 18L53 18L53 16L54 16L54 15L55 15L55 13ZM27 14L27 15L26 15L26 16L27 16L27 19L26 19L26 20L27 20L27 22L26 22L26 23L28 23L28 24L27 24L27 25L26 25L26 26L28 26L28 24L29 24L29 23L30 23L30 26L31 26L31 25L32 25L32 27L31 27L31 30L32 30L32 31L31 31L31 32L30 32L30 31L29 31L29 32L28 32L28 31L27 31L27 32L26 32L26 33L25 33L25 32L24 32L24 31L26 31L26 30L25 30L25 28L24 28L24 26L25 26L25 25L24 25L24 24L23 24L23 25L24 25L24 26L23 26L23 27L22 27L22 28L24 28L24 30L23 30L23 29L22 29L22 30L23 30L23 32L24 32L24 34L26 34L26 33L28 33L28 34L29 34L29 32L30 32L30 34L31 34L31 35L33 35L33 34L32 34L32 32L33 32L33 33L34 33L34 34L35 34L35 33L36 33L36 35L35 35L35 36L33 36L33 37L34 37L34 38L35 38L35 41L34 41L34 42L35 42L35 41L36 41L36 38L37 38L37 37L36 37L36 35L38 35L38 34L37 34L37 33L36 33L36 31L37 31L37 32L38 32L38 31L40 31L40 30L41 30L41 29L40 29L40 28L41 28L41 25L40 25L40 24L39 24L39 23L41 23L41 24L42 24L42 23L41 23L41 22L40 22L40 19L39 19L39 21L38 21L38 20L37 20L37 21L36 21L36 20L35 20L35 21L34 21L34 18L36 18L36 19L37 19L37 18L36 18L36 15L35 15L35 17L34 17L34 18L32 18L32 16L31 16L31 17L30 17L30 16L29 16L29 15L28 15L28 14ZM19 16L19 17L20 17L20 16ZM28 17L28 18L30 18L30 17ZM48 17L48 18L47 18L47 19L46 19L46 20L47 20L47 19L48 19L48 20L49 20L49 19L50 19L50 18L49 18L49 17ZM2 18L2 19L5 19L5 18ZM17 18L17 19L18 19L18 18ZM6 19L6 20L7 20L7 19ZM10 19L10 20L11 20L11 21L12 21L12 20L11 20L11 19ZM22 19L22 20L23 20L23 19ZM24 19L24 20L25 20L25 19ZM27 19L27 20L28 20L28 21L29 21L29 22L28 22L28 23L29 23L29 22L30 22L30 21L29 21L29 20L28 20L28 19ZM31 19L31 20L32 20L32 21L33 21L33 22L31 22L31 23L32 23L32 25L33 25L33 26L34 26L34 24L36 24L36 26L37 26L37 27L34 27L34 29L33 29L33 28L32 28L32 30L33 30L33 31L34 31L34 29L35 29L35 31L36 31L36 29L37 29L37 28L38 28L38 29L39 29L39 28L40 28L40 27L39 27L39 26L40 26L40 25L39 25L39 26L38 26L38 25L37 25L37 24L36 24L36 23L37 23L37 22L38 22L38 23L39 23L39 22L38 22L38 21L37 21L37 22L36 22L36 21L35 21L35 22L34 22L34 21L33 21L33 19ZM53 19L53 20L52 20L52 22L51 22L51 24L52 24L52 22L53 22L53 24L54 24L54 25L55 25L55 24L54 24L54 22L55 22L55 21L54 21L54 19ZM18 20L18 23L19 23L19 20ZM1 21L1 22L0 22L0 23L2 23L2 24L4 24L4 23L5 23L5 22L4 22L4 23L3 23L3 22L2 22L2 21ZM53 21L53 22L54 22L54 21ZM6 22L6 23L7 23L7 22ZM22 22L22 23L23 23L23 22ZM24 22L24 23L25 23L25 22ZM35 22L35 23L36 23L36 22ZM43 22L43 23L44 23L44 22ZM49 22L49 23L46 23L46 24L48 24L48 25L49 25L49 24L50 24L50 22ZM33 23L33 24L34 24L34 23ZM6 25L6 26L9 26L9 25ZM5 27L5 30L8 30L8 27ZM27 27L27 30L30 30L30 27ZM49 27L49 30L52 30L52 27ZM6 28L6 29L7 29L7 28ZM28 28L28 29L29 29L29 28ZM35 28L35 29L36 29L36 28ZM46 28L46 29L45 29L45 30L46 30L46 31L45 31L45 32L47 32L47 29L48 29L48 28ZM50 28L50 29L51 29L51 28ZM10 29L10 30L11 30L11 29ZM0 30L0 33L1 33L1 30ZM15 30L15 31L11 31L11 33L10 33L10 32L9 32L9 33L7 33L7 34L6 34L6 35L8 35L8 34L9 34L9 33L10 33L10 35L9 35L9 36L10 36L10 35L11 35L11 37L10 37L10 39L11 39L11 40L13 40L13 39L14 39L14 40L15 40L15 39L14 39L14 38L15 38L15 37L13 37L13 36L16 36L16 37L17 37L17 38L16 38L16 39L17 39L17 38L18 38L18 37L17 37L17 36L16 36L16 35L13 35L13 36L12 36L12 34L13 34L13 33L14 33L14 34L16 34L16 33L15 33L15 31L16 31L16 32L17 32L17 31L16 31L16 30ZM37 30L37 31L38 31L38 30ZM20 31L20 32L21 32L21 31ZM12 32L12 33L11 33L11 34L12 34L12 33L13 33L13 32ZM3 34L3 35L2 35L2 36L1 36L1 37L2 37L2 39L4 39L4 38L3 38L3 37L4 37L4 36L3 36L3 35L4 35L4 34ZM47 34L47 35L48 35L48 36L47 36L47 38L46 38L46 41L45 41L45 42L44 42L44 43L43 43L43 42L42 42L42 41L41 41L41 40L40 40L40 41L41 41L41 42L40 42L40 43L43 43L43 44L42 44L42 45L41 45L41 44L40 44L40 45L39 45L39 46L41 46L41 47L40 47L40 49L41 49L41 47L42 47L42 45L43 45L43 44L44 44L44 46L43 46L43 47L44 47L44 46L45 46L45 47L46 47L46 44L47 44L47 45L48 45L48 44L49 44L49 42L48 42L48 44L47 44L47 42L46 42L46 41L48 41L48 40L49 40L49 37L50 37L50 36L49 36L49 35L48 35L48 34ZM2 36L2 37L3 37L3 36ZM22 36L22 37L23 37L23 36ZM31 36L31 37L32 37L32 36ZM48 36L48 37L49 37L49 36ZM11 37L11 39L13 39L13 38L12 38L12 37ZM35 37L35 38L36 38L36 37ZM24 38L24 39L25 39L25 38ZM28 38L28 39L29 39L29 38ZM47 38L47 40L48 40L48 38ZM37 39L37 41L38 41L38 39ZM16 41L16 43L17 43L17 41ZM28 41L28 43L30 43L30 42L29 42L29 41ZM45 42L45 43L44 43L44 44L45 44L45 43L46 43L46 42ZM56 42L56 43L57 43L57 42ZM10 43L10 44L11 44L11 43ZM20 43L20 45L21 45L21 43ZM6 45L6 46L8 46L8 45ZM15 45L15 47L16 47L16 45ZM1 46L1 47L2 47L2 46ZM3 46L3 47L5 47L5 46ZM54 47L54 48L55 48L55 47ZM6 48L6 49L8 49L8 50L9 50L9 48ZM33 48L33 49L34 49L34 48ZM44 48L44 49L43 49L43 50L44 50L44 49L45 49L45 48ZM17 49L17 50L18 50L18 49ZM27 49L27 52L30 52L30 49ZM49 49L49 52L52 52L52 49ZM54 49L54 50L53 50L53 51L54 51L54 52L55 52L55 49ZM28 50L28 51L29 51L29 50ZM50 50L50 51L51 51L51 50ZM45 51L45 53L46 53L46 54L45 54L45 55L46 55L46 56L47 56L47 55L48 55L48 54L49 54L49 53L46 53L46 51ZM47 51L47 52L48 52L48 51ZM41 52L41 53L42 53L42 52ZM16 54L16 55L17 55L17 54ZM40 54L40 56L41 56L41 54ZM55 54L55 55L57 55L57 54ZM11 56L11 57L13 57L13 56ZM36 56L36 57L37 57L37 56ZM56 56L56 57L57 57L57 56ZM0 0L0 7L7 7L7 0ZM1 1L1 6L6 6L6 1ZM2 2L2 5L5 5L5 2ZM50 0L50 7L57 7L57 0ZM51 1L51 6L56 6L56 1ZM52 2L52 5L55 5L55 2ZM0 50L0 57L7 57L7 50ZM1 51L1 56L6 56L6 51ZM2 52L2 55L5 55L5 52Z" fill="#000000"/></g></g></svg>
