<?xml version="1.0" encoding="UTF-8"?>
<svg xmlns="http://www.w3.org/2000/svg" version="1.1" width="300" height="300" viewBox="0 0 300 300"><rect x="0" y="0" width="300" height="300" fill="#fefefe"/><g transform="scale(4.615)"><g transform="translate(4,4)"><path fill-rule="evenodd" d="M10 0L10 2L9 2L9 1L8 1L8 2L9 2L9 3L8 3L8 4L10 4L10 2L11 2L11 1L12 1L12 0ZM13 0L13 1L14 1L14 2L13 2L13 4L14 4L14 2L15 2L15 3L16 3L16 2L17 2L17 6L16 6L16 7L15 7L15 6L14 6L14 8L13 8L13 9L12 9L12 10L10 10L10 9L11 9L11 6L10 6L10 5L8 5L8 7L9 7L9 8L6 8L6 9L7 9L7 10L6 10L6 11L5 11L5 8L0 8L0 9L1 9L1 10L2 10L2 9L3 9L3 12L2 12L2 11L0 11L0 12L1 12L1 13L4 13L4 14L2 14L2 15L0 15L0 16L1 16L1 18L0 18L0 19L2 19L2 20L3 20L3 21L5 21L5 20L6 20L6 21L7 21L7 22L5 22L5 23L7 23L7 24L6 24L6 25L7 25L7 26L4 26L4 25L5 25L5 24L4 24L4 23L3 23L3 22L1 22L1 23L0 23L0 25L2 25L2 24L3 24L3 26L4 26L4 31L2 31L2 30L3 30L3 29L2 29L2 30L1 30L1 29L0 29L0 30L1 30L1 32L4 32L4 34L2 34L2 33L1 33L1 34L2 34L2 36L4 36L4 37L7 37L7 36L8 36L8 38L11 38L11 37L12 37L12 38L13 38L13 39L11 39L11 40L12 40L12 44L13 44L13 45L15 45L15 43L16 43L16 45L17 45L17 46L19 46L19 47L17 47L17 50L16 50L16 51L15 51L15 50L12 50L12 51L11 51L11 50L10 50L10 47L11 47L11 48L12 48L12 46L10 46L10 45L11 45L11 41L10 41L10 40L9 40L9 39L7 39L7 38L5 38L5 40L4 40L4 39L3 39L3 40L0 40L0 42L1 42L1 43L2 43L2 44L0 44L0 48L5 48L5 47L7 47L7 48L6 48L6 49L7 49L7 48L9 48L9 49L8 49L8 51L9 51L9 52L8 52L8 57L11 57L11 55L13 55L13 53L16 53L16 54L14 54L14 56L15 56L15 57L16 57L16 56L17 56L17 57L19 57L19 55L20 55L20 54L19 54L19 55L18 55L18 56L17 56L17 53L20 53L20 52L23 52L23 50L25 50L25 51L26 51L26 52L24 52L24 53L23 53L23 54L22 54L22 55L21 55L21 56L24 56L24 57L26 57L26 56L27 56L27 57L29 57L29 56L30 56L30 57L31 57L31 56L35 56L35 57L39 57L39 56L42 56L42 55L43 55L43 57L44 57L44 54L45 54L45 55L46 55L46 54L45 54L45 53L44 53L44 52L45 52L45 51L46 51L46 52L47 52L47 51L46 51L46 50L45 50L45 49L44 49L44 48L43 48L43 47L44 47L44 46L43 46L43 45L44 45L44 44L43 44L43 43L44 43L44 41L43 41L43 40L45 40L45 39L46 39L46 41L47 41L47 39L49 39L49 41L48 41L48 42L47 42L47 43L46 43L46 42L45 42L45 43L46 43L46 44L45 44L45 45L47 45L47 43L50 43L50 46L45 46L45 47L46 47L46 49L47 49L47 50L48 50L48 54L47 54L47 55L48 55L48 56L46 56L46 57L49 57L49 56L50 56L50 57L52 57L52 55L51 55L51 53L52 53L52 54L53 54L53 55L54 55L54 56L53 56L53 57L54 57L54 56L55 56L55 57L56 57L56 56L55 56L55 53L56 53L56 50L55 50L55 49L54 49L54 48L56 48L56 49L57 49L57 48L56 48L56 46L57 46L57 45L56 45L56 44L55 44L55 43L56 43L56 41L55 41L55 39L57 39L57 37L56 37L56 34L57 34L57 32L56 32L56 30L57 30L57 29L56 29L56 26L57 26L57 25L56 25L56 22L57 22L57 21L56 21L56 20L55 20L55 18L57 18L57 17L56 17L56 16L57 16L57 15L56 15L56 14L57 14L57 13L56 13L56 12L57 12L57 11L56 11L56 10L54 10L54 11L52 11L52 10L49 10L49 9L50 9L50 8L49 8L49 6L48 6L48 7L47 7L47 5L48 5L48 0L45 0L45 2L44 2L44 3L43 3L43 4L40 4L40 5L39 5L39 6L38 6L38 4L39 4L39 3L42 3L42 2L43 2L43 0L41 0L41 1L40 1L40 0L39 0L39 1L38 1L38 0L37 0L37 1L38 1L38 2L39 2L39 3L36 3L36 0L35 0L35 1L31 1L31 0L29 0L29 1L31 1L31 2L29 2L29 3L30 3L30 4L26 4L26 3L23 3L23 2L27 2L27 1L26 1L26 0L23 0L23 2L22 2L22 3L23 3L23 4L19 4L19 3L18 3L18 2L20 2L20 0L17 0L17 1L16 1L16 2L15 2L15 1L14 1L14 0ZM21 0L21 1L22 1L22 0ZM17 1L17 2L18 2L18 1ZM46 1L46 2L47 2L47 1ZM31 2L31 3L32 3L32 4L31 4L31 8L32 8L32 10L31 10L31 11L29 11L29 10L27 10L27 11L26 11L26 12L25 12L25 10L23 10L23 8L24 8L24 6L23 6L23 5L24 5L24 4L23 4L23 5L21 5L21 7L22 7L22 8L19 8L19 7L20 7L20 5L18 5L18 6L17 6L17 7L16 7L16 8L14 8L14 10L15 10L15 11L18 11L18 10L17 10L17 9L16 9L16 8L19 8L19 9L20 9L20 10L19 10L19 11L20 11L20 12L19 12L19 13L20 13L20 14L19 14L19 17L20 17L20 18L19 18L19 19L18 19L18 20L19 20L19 19L20 19L20 21L19 21L19 22L20 22L20 23L18 23L18 24L21 24L21 25L19 25L19 26L18 26L18 27L17 27L17 24L16 24L16 23L14 23L14 22L16 22L16 21L17 21L17 20L16 20L16 21L15 21L15 17L16 17L16 19L17 19L17 17L16 17L16 16L18 16L18 15L17 15L17 13L18 13L18 12L17 12L17 13L16 13L16 12L15 12L15 13L13 13L13 15L14 15L14 18L8 18L8 19L10 19L10 20L13 20L13 21L11 21L11 23L10 23L10 22L8 22L8 24L7 24L7 25L9 25L9 24L10 24L10 26L11 26L11 28L10 28L10 29L9 29L9 31L6 31L6 32L7 32L7 33L6 33L6 34L7 34L7 35L4 35L4 36L7 36L7 35L8 35L8 33L10 33L10 34L9 34L9 37L11 37L11 36L12 36L12 37L14 37L14 38L15 38L15 39L16 39L16 40L15 40L15 41L14 41L14 39L13 39L13 41L14 41L14 43L13 43L13 44L14 44L14 43L15 43L15 42L17 42L17 43L18 43L18 42L19 42L19 43L20 43L20 44L21 44L21 45L19 45L19 46L20 46L20 50L19 50L19 51L21 51L21 49L23 49L23 47L21 47L21 45L22 45L22 46L24 46L24 45L25 45L25 47L24 47L24 49L25 49L25 50L26 50L26 49L25 49L25 48L27 48L27 47L28 47L28 48L30 48L30 47L29 47L29 46L31 46L31 47L32 47L32 46L35 46L35 48L36 48L36 46L37 46L37 45L34 45L34 43L35 43L35 44L36 44L36 43L37 43L37 42L35 42L35 40L38 40L38 42L39 42L39 41L42 41L42 39L45 39L45 38L46 38L46 39L47 39L47 37L48 37L48 38L49 38L49 39L51 39L51 38L53 38L53 39L52 39L52 40L53 40L53 41L51 41L51 42L50 42L50 43L51 43L51 45L52 45L52 47L51 47L51 46L50 46L50 47L48 47L48 48L47 48L47 49L48 49L48 48L53 48L53 46L56 46L56 45L55 45L55 44L54 44L54 45L52 45L52 44L53 44L53 43L54 43L54 42L53 42L53 41L54 41L54 40L53 40L53 39L54 39L54 38L53 38L53 35L55 35L55 34L56 34L56 32L53 32L53 31L52 31L52 32L51 32L51 31L48 31L48 30L47 30L47 29L46 29L46 30L47 30L47 31L46 31L46 32L43 32L43 30L44 30L44 29L45 29L45 28L46 28L46 27L47 27L47 28L48 28L48 25L49 25L49 24L50 24L50 26L51 26L51 25L52 25L52 26L53 26L53 27L54 27L54 26L53 26L53 23L50 23L50 22L51 22L51 21L54 21L54 23L55 23L55 22L56 22L56 21L55 21L55 20L53 20L53 19L52 19L52 18L55 18L55 17L53 17L53 15L52 15L52 16L51 16L51 15L50 15L50 14L51 14L51 12L50 12L50 11L49 11L49 10L47 10L47 9L48 9L48 8L47 8L47 9L45 9L45 7L46 7L46 5L47 5L47 3L44 3L44 6L43 6L43 5L40 5L40 6L39 6L39 7L40 7L40 8L39 8L39 9L38 9L38 8L37 8L37 7L38 7L38 6L37 6L37 7L36 7L36 5L37 5L37 4L36 4L36 5L35 5L35 4L33 4L33 3L32 3L32 2ZM34 2L34 3L35 3L35 2ZM11 4L11 5L12 5L12 7L13 7L13 5L12 5L12 4ZM15 4L15 5L16 5L16 4ZM25 4L25 8L26 8L26 4ZM32 4L32 5L33 5L33 6L32 6L32 7L33 7L33 9L34 9L34 8L35 8L35 9L37 9L37 10L36 10L36 11L35 11L35 13L36 13L36 14L33 14L33 13L34 13L34 12L33 12L33 13L32 13L32 12L31 12L31 13L30 13L30 14L29 14L29 13L28 13L28 12L29 12L29 11L27 11L27 12L26 12L26 13L25 13L25 12L23 12L23 10L22 10L22 9L21 9L21 10L22 10L22 11L21 11L21 12L20 12L20 13L21 13L21 14L20 14L20 15L24 15L24 16L25 16L25 17L22 17L22 16L20 16L20 17L22 17L22 18L24 18L24 19L23 19L23 20L24 20L24 21L22 21L22 22L21 22L21 24L23 24L23 25L21 25L21 26L19 26L19 27L22 27L22 26L24 26L24 27L23 27L23 30L24 30L24 32L25 32L25 33L23 33L23 34L24 34L24 36L23 36L23 35L22 35L22 36L23 36L23 37L24 37L24 38L21 38L21 37L19 37L19 36L20 36L20 35L21 35L21 34L22 34L22 33L21 33L21 32L23 32L23 31L21 31L21 32L20 32L20 29L18 29L18 28L16 28L16 29L15 29L15 27L16 27L16 26L15 26L15 27L13 27L13 25L14 25L14 24L13 24L13 22L14 22L14 21L13 21L13 22L12 22L12 24L11 24L11 26L12 26L12 30L14 30L14 31L12 31L12 32L11 32L11 29L10 29L10 31L9 31L9 32L11 32L11 33L12 33L12 34L10 34L10 35L13 35L13 36L14 36L14 37L15 37L15 38L16 38L16 37L15 37L15 36L14 36L14 35L16 35L16 34L15 34L15 33L17 33L17 34L18 34L18 33L21 33L21 34L20 34L20 35L19 35L19 36L18 36L18 37L17 37L17 38L18 38L18 37L19 37L19 38L20 38L20 39L19 39L19 40L17 40L17 41L19 41L19 42L20 42L20 41L21 41L21 42L22 42L22 43L21 43L21 44L22 44L22 45L24 45L24 44L27 44L27 43L28 43L28 44L30 44L30 45L31 45L31 46L32 46L32 45L31 45L31 44L33 44L33 43L34 43L34 42L33 42L33 41L32 41L32 40L31 40L31 41L30 41L30 40L28 40L28 39L27 39L27 38L28 38L28 37L27 37L27 36L26 36L26 35L27 35L27 34L26 34L26 35L25 35L25 33L27 33L27 31L29 31L29 32L28 32L28 33L29 33L29 34L30 34L30 36L29 36L29 37L31 37L31 38L29 38L29 39L33 39L33 40L35 40L35 39L38 39L38 40L39 40L39 39L38 39L38 36L39 36L39 37L40 37L40 38L43 38L43 37L44 37L44 38L45 38L45 37L44 37L44 36L45 36L45 35L46 35L46 36L47 36L47 35L46 35L46 34L45 34L45 35L44 35L44 33L43 33L43 32L41 32L41 33L39 33L39 34L40 34L40 35L38 35L38 33L37 33L37 32L35 32L35 34L34 34L34 36L35 36L35 38L34 38L34 39L33 39L33 37L32 37L32 36L33 36L33 35L32 35L32 34L33 34L33 33L32 33L32 31L31 31L31 30L33 30L33 31L36 31L36 30L33 30L33 29L32 29L32 28L31 28L31 26L32 26L32 27L33 27L33 28L35 28L35 29L38 29L38 28L40 28L40 27L36 27L36 26L34 26L34 27L33 27L33 26L32 26L32 24L33 24L33 25L37 25L37 26L38 26L38 25L39 25L39 26L41 26L41 28L42 28L42 26L43 26L43 25L44 25L44 26L45 26L45 27L44 27L44 28L43 28L43 29L39 29L39 30L38 30L38 32L39 32L39 31L41 31L41 30L43 30L43 29L44 29L44 28L45 28L45 27L46 27L46 26L45 26L45 25L46 25L46 24L47 24L47 25L48 25L48 23L47 23L47 22L49 22L49 21L51 21L51 20L52 20L52 19L49 19L49 18L50 18L50 17L49 17L49 16L50 16L50 15L49 15L49 14L50 14L50 12L49 12L49 11L48 11L48 12L49 12L49 13L47 13L47 14L44 14L44 15L42 15L42 16L41 16L41 14L43 14L43 13L44 13L44 12L43 12L43 13L41 13L41 14L38 14L38 13L40 13L40 12L41 12L41 11L45 11L45 12L47 12L47 10L44 10L44 7L45 7L45 6L44 6L44 7L43 7L43 6L42 6L42 7L41 7L41 6L40 6L40 7L41 7L41 8L42 8L42 9L41 9L41 10L40 10L40 12L39 12L39 11L37 11L37 10L38 10L38 9L37 9L37 8L35 8L35 5L33 5L33 4ZM45 4L45 5L46 5L46 4ZM27 5L27 8L30 8L30 5ZM9 6L9 7L10 7L10 6ZM18 6L18 7L19 7L19 6ZM22 6L22 7L23 7L23 6ZM28 6L28 7L29 7L29 6ZM33 6L33 7L34 7L34 6ZM9 8L9 9L10 9L10 8ZM51 8L51 9L52 9L52 8ZM53 8L53 9L54 9L54 8ZM55 8L55 9L56 9L56 8ZM15 9L15 10L16 10L16 9ZM9 10L9 14L10 14L10 13L12 13L12 12L14 12L14 11L12 11L12 12L11 12L11 11L10 11L10 10ZM32 10L32 11L33 11L33 10ZM6 11L6 12L8 12L8 11ZM21 12L21 13L22 13L22 14L23 14L23 13L22 13L22 12ZM52 12L52 13L53 13L53 12ZM54 12L54 13L55 13L55 14L56 14L56 13L55 13L55 12ZM6 13L6 14L5 14L5 15L4 15L4 17L3 17L3 18L4 18L4 20L5 20L5 19L6 19L6 20L7 20L7 21L9 21L9 20L7 20L7 19L6 19L6 18L7 18L7 17L8 17L8 16L9 16L9 15L6 15L6 14L7 14L7 13ZM15 13L15 14L14 14L14 15L15 15L15 16L16 16L16 13ZM26 13L26 14L24 14L24 15L26 15L26 18L27 18L27 19L26 19L26 20L25 20L25 21L24 21L24 22L22 22L22 23L24 23L24 24L25 24L25 25L26 25L26 26L25 26L25 27L24 27L24 28L25 28L25 29L26 29L26 28L25 28L25 27L26 27L26 26L30 26L30 25L29 25L29 24L32 24L32 23L33 23L33 22L34 22L34 23L35 23L35 20L34 20L34 19L36 19L36 20L38 20L38 22L37 22L37 24L39 24L39 25L41 25L41 26L42 26L42 25L41 25L41 24L44 24L44 25L45 25L45 24L46 24L46 23L45 23L45 22L47 22L47 21L48 21L48 20L47 20L47 21L45 21L45 20L44 20L44 18L45 18L45 19L46 19L46 18L47 18L47 19L48 19L48 18L47 18L47 17L45 17L45 16L46 16L46 15L44 15L44 18L43 18L43 19L42 19L42 18L41 18L41 20L38 20L38 19L39 19L39 17L41 17L41 16L39 16L39 15L38 15L38 14L37 14L37 15L35 15L35 16L32 16L32 15L31 15L31 14L30 14L30 15L31 15L31 16L32 16L32 17L31 17L31 18L30 18L30 20L29 20L29 19L28 19L28 18L27 18L27 17L28 17L28 16L29 16L29 14L28 14L28 13ZM11 14L11 15L10 15L10 16L11 16L11 17L12 17L12 14ZM26 14L26 15L27 15L27 16L28 16L28 15L27 15L27 14ZM2 15L2 16L3 16L3 15ZM48 15L48 16L49 16L49 15ZM6 16L6 17L4 17L4 18L6 18L6 17L7 17L7 16ZM35 16L35 17L37 17L37 18L38 18L38 17L39 17L39 16L38 16L38 17L37 17L37 16ZM42 16L42 17L43 17L43 16ZM32 17L32 18L33 18L33 17ZM13 19L13 20L14 20L14 19ZM21 19L21 20L22 20L22 19ZM27 19L27 20L28 20L28 19ZM31 19L31 20L30 20L30 21L25 21L25 22L26 22L26 23L25 23L25 24L27 24L27 23L29 23L29 22L31 22L31 21L32 21L32 20L33 20L33 21L34 21L34 20L33 20L33 19ZM43 20L43 21L39 21L39 22L38 22L38 23L39 23L39 24L41 24L41 22L43 22L43 23L44 23L44 20ZM39 22L39 23L40 23L40 22ZM15 24L15 25L16 25L16 24ZM2 27L2 28L3 28L3 27ZM5 27L5 30L8 30L8 27ZM27 27L27 30L30 30L30 27ZM35 27L35 28L36 28L36 27ZM49 27L49 30L52 30L52 27ZM6 28L6 29L7 29L7 28ZM13 28L13 29L14 29L14 30L15 30L15 29L14 29L14 28ZM21 28L21 29L22 29L22 28ZM28 28L28 29L29 29L29 28ZM50 28L50 29L51 29L51 28ZM54 28L54 29L53 29L53 30L54 30L54 29L55 29L55 28ZM16 29L16 30L17 30L17 32L19 32L19 30L18 30L18 29ZM4 31L4 32L5 32L5 31ZM25 31L25 32L26 32L26 31ZM30 31L30 32L29 32L29 33L31 33L31 31ZM47 31L47 32L46 32L46 33L47 33L47 32L48 32L48 33L49 33L49 32L48 32L48 31ZM13 32L13 35L14 35L14 32ZM50 32L50 34L49 34L49 35L50 35L50 36L49 36L49 38L50 38L50 37L52 37L52 35L53 35L53 34L52 34L52 33L53 33L53 32L52 32L52 33L51 33L51 32ZM54 33L54 34L55 34L55 33ZM35 34L35 36L37 36L37 34ZM42 34L42 35L43 35L43 36L44 36L44 35L43 35L43 34ZM50 34L50 35L52 35L52 34ZM40 36L40 37L42 37L42 36ZM25 37L25 38L27 38L27 37ZM1 38L1 39L2 39L2 38ZM6 39L6 40L5 40L5 42L7 42L7 41L6 41L6 40L7 40L7 39ZM21 39L21 41L22 41L22 42L23 42L23 43L27 43L27 42L30 42L30 41L28 41L28 40L27 40L27 39L25 39L25 40L24 40L24 39ZM3 40L3 41L1 41L1 42L3 42L3 43L4 43L4 42L3 42L3 41L4 41L4 40ZM19 40L19 41L20 41L20 40ZM8 41L8 43L6 43L6 44L5 44L5 46L4 46L4 44L2 44L2 45L1 45L1 47L2 47L2 45L3 45L3 47L5 47L5 46L7 46L7 47L10 47L10 46L9 46L9 44L8 44L8 43L10 43L10 41ZM23 41L23 42L25 42L25 41ZM26 41L26 42L27 42L27 41ZM31 41L31 42L32 42L32 43L33 43L33 42L32 42L32 41ZM41 42L41 44L39 44L39 45L38 45L38 46L39 46L39 45L41 45L41 44L42 44L42 42ZM51 42L51 43L53 43L53 42ZM6 44L6 45L7 45L7 46L8 46L8 44ZM17 44L17 45L18 45L18 44ZM26 45L26 47L27 47L27 45ZM14 46L14 48L13 48L13 49L14 49L14 48L15 48L15 49L16 49L16 48L15 48L15 47L16 47L16 46ZM41 46L41 48L39 48L39 47L38 47L38 48L37 48L37 49L38 49L38 50L36 50L36 49L33 49L33 48L32 48L32 49L31 49L31 53L30 53L30 54L27 54L27 53L24 53L24 54L23 54L23 55L24 55L24 56L26 56L26 54L27 54L27 56L29 56L29 55L30 55L30 56L31 56L31 54L32 54L32 53L33 53L33 54L34 54L34 55L35 55L35 56L36 56L36 54L35 54L35 53L33 53L33 52L32 52L32 49L33 49L33 50L34 50L34 51L35 51L35 50L36 50L36 52L38 52L38 53L37 53L37 54L40 54L40 53L41 53L41 52L40 52L40 51L39 51L39 52L38 52L38 50L41 50L41 51L42 51L42 52L43 52L43 51L42 51L42 50L41 50L41 48L42 48L42 49L43 49L43 50L44 50L44 51L45 51L45 50L44 50L44 49L43 49L43 48L42 48L42 47L43 47L43 46ZM38 48L38 49L39 49L39 48ZM27 49L27 52L30 52L30 49ZM49 49L49 52L52 52L52 49ZM17 50L17 51L16 51L16 53L17 53L17 51L18 51L18 50ZM28 50L28 51L29 51L29 50ZM50 50L50 51L51 51L51 50ZM54 50L54 51L55 51L55 50ZM10 51L10 52L9 52L9 55L10 55L10 52L11 52L11 51ZM13 51L13 52L12 52L12 53L13 53L13 52L15 52L15 51ZM53 52L53 54L54 54L54 52ZM43 53L43 54L44 54L44 53ZM15 55L15 56L16 56L16 55ZM37 55L37 56L39 56L39 55ZM50 55L50 56L51 56L51 55ZM12 56L12 57L13 57L13 56ZM0 0L0 7L7 7L7 0ZM1 1L1 6L6 6L6 1ZM2 2L2 5L5 5L5 2ZM50 0L50 7L57 7L57 0ZM51 1L51 6L56 6L56 1ZM52 2L52 5L55 5L55 2ZM0 50L0 57L7 57L7 50ZM1 51L1 56L6 56L6 51ZM2 52L2 55L5 55L5 52Z" fill="#000000"/></g></g></svg>
