<?xml version="1.0" encoding="UTF-8"?>
<svg xmlns="http://www.w3.org/2000/svg" version="1.1" width="300" height="300" viewBox="0 0 300 300"><rect x="0" y="0" width="300" height="300" fill="#fefefe"/><g transform="scale(4.615)"><g transform="translate(4,4)"><path fill-rule="evenodd" d="M10 0L10 1L8 1L8 2L9 2L9 3L8 3L8 4L9 4L9 3L11 3L11 4L10 4L10 5L8 5L8 7L9 7L9 6L10 6L10 7L11 7L11 6L12 6L12 9L11 9L11 8L6 8L6 9L5 9L5 8L0 8L0 9L1 9L1 10L2 10L2 9L4 9L4 10L3 10L3 11L4 11L4 12L2 12L2 11L1 11L1 12L0 12L0 13L1 13L1 12L2 12L2 13L4 13L4 12L6 12L6 13L5 13L5 15L4 15L4 14L1 14L1 16L0 16L0 17L1 17L1 18L0 18L0 20L1 20L1 18L2 18L2 19L3 19L3 18L2 18L2 16L3 16L3 17L4 17L4 18L5 18L5 19L4 19L4 20L6 20L6 21L7 21L7 22L6 22L6 23L4 23L4 24L3 24L3 22L5 22L5 21L3 21L3 22L2 22L2 21L1 21L1 22L0 22L0 24L1 24L1 23L2 23L2 25L1 25L1 26L0 26L0 28L1 28L1 27L2 27L2 28L3 28L3 29L4 29L4 31L7 31L7 32L6 32L6 33L7 33L7 34L5 34L5 35L4 35L4 34L2 34L2 33L1 33L1 32L0 32L0 33L1 33L1 34L0 34L0 39L1 39L1 40L3 40L3 41L0 41L0 44L2 44L2 45L3 45L3 46L2 46L2 47L1 47L1 46L0 46L0 48L5 48L5 47L8 47L8 46L5 46L5 45L7 45L7 44L5 44L5 41L7 41L7 40L5 40L5 39L7 39L7 38L8 38L8 41L9 41L9 37L10 37L10 38L11 38L11 37L13 37L13 39L14 39L14 40L12 40L12 39L11 39L11 40L10 40L10 42L6 42L6 43L8 43L8 44L9 44L9 43L10 43L10 42L12 42L12 44L14 44L14 45L10 45L10 46L11 46L11 48L10 48L10 47L9 47L9 48L10 48L10 49L8 49L8 51L9 51L9 50L10 50L10 49L11 49L11 48L12 48L12 47L13 47L13 46L14 46L14 48L15 48L15 49L16 49L16 48L17 48L17 50L16 50L16 51L17 51L17 50L18 50L18 52L17 52L17 53L16 53L16 52L14 52L14 54L11 54L11 55L10 55L10 56L9 56L9 52L8 52L8 57L11 57L11 55L14 55L14 54L15 54L15 55L16 55L16 56L14 56L14 57L16 57L16 56L17 56L17 57L19 57L19 55L20 55L20 54L19 54L19 53L20 53L20 52L21 52L21 53L22 53L22 54L21 54L21 56L20 56L20 57L21 57L21 56L24 56L24 57L26 57L26 56L24 56L24 55L23 55L23 54L24 54L24 53L27 53L27 54L30 54L30 53L31 53L31 51L32 51L32 52L33 52L33 51L32 51L32 50L31 50L31 49L32 49L32 48L35 48L35 49L36 49L36 50L34 50L34 51L35 51L35 52L34 52L34 53L35 53L35 54L36 54L36 56L35 56L35 55L33 55L33 53L32 53L32 54L31 54L31 56L30 56L30 55L29 55L29 56L27 56L27 57L29 57L29 56L30 56L30 57L31 57L31 56L35 56L35 57L39 57L39 56L41 56L41 55L43 55L43 57L44 57L44 54L45 54L45 53L47 53L47 51L46 51L46 52L45 52L45 50L44 50L44 51L43 51L43 49L44 49L44 48L45 48L45 49L47 49L47 50L48 50L48 54L47 54L47 55L48 55L48 57L49 57L49 56L50 56L50 57L52 57L52 55L51 55L51 53L52 53L52 54L53 54L53 57L54 57L54 56L55 56L55 57L56 57L56 56L55 56L55 53L57 53L57 52L56 52L56 50L57 50L57 48L56 48L56 46L57 46L57 45L56 45L56 44L57 44L57 43L56 43L56 41L55 41L55 39L57 39L57 36L56 36L56 34L57 34L57 32L56 32L56 30L57 30L57 29L56 29L56 28L57 28L57 27L56 27L56 26L57 26L57 25L56 25L56 22L57 22L57 20L55 20L55 19L56 19L56 18L57 18L57 17L56 17L56 16L57 16L57 15L56 15L56 14L57 14L57 12L55 12L55 11L56 11L56 10L54 10L54 11L53 11L53 9L54 9L54 8L53 8L53 9L52 9L52 8L51 8L51 11L50 11L50 12L49 12L49 13L47 13L47 14L43 14L43 13L44 13L44 12L43 12L43 13L41 13L41 14L43 14L43 15L42 15L42 16L41 16L41 15L40 15L40 14L38 14L38 13L40 13L40 12L41 12L41 11L40 11L40 10L43 10L43 9L44 9L44 11L45 11L45 12L47 12L47 10L50 10L50 8L49 8L49 6L48 6L48 7L47 7L47 5L48 5L48 0L45 0L45 2L44 2L44 3L43 3L43 4L42 4L42 2L43 2L43 0L41 0L41 1L40 1L40 0L39 0L39 1L38 1L38 0L37 0L37 1L38 1L38 2L39 2L39 3L38 3L38 4L37 4L37 3L36 3L36 0L35 0L35 1L33 1L33 0L32 0L32 1L31 1L31 0L29 0L29 1L28 1L28 3L27 3L27 4L26 4L26 3L23 3L23 4L24 4L24 5L23 5L23 6L22 6L22 7L21 7L21 5L22 5L22 4L19 4L19 3L20 3L20 2L21 2L21 3L22 3L22 2L27 2L27 1L25 1L25 0L23 0L23 1L22 1L22 0L21 0L21 1L20 1L20 0L18 0L18 1L14 1L14 2L12 2L12 3L11 3L11 2L10 2L10 1L12 1L12 0ZM19 1L19 2L20 2L20 1ZM21 1L21 2L22 2L22 1ZM46 1L46 2L47 2L47 1ZM14 2L14 4L12 4L12 6L13 6L13 8L14 8L14 9L12 9L12 10L11 10L11 9L9 9L9 10L8 10L8 9L6 9L6 10L7 10L7 11L6 11L6 12L7 12L7 13L6 13L6 14L8 14L8 15L6 15L6 16L7 16L7 17L5 17L5 16L4 16L4 17L5 17L5 18L7 18L7 19L6 19L6 20L7 20L7 21L8 21L8 22L7 22L7 23L6 23L6 24L4 24L4 25L2 25L2 27L3 27L3 28L4 28L4 26L9 26L9 28L10 28L10 27L11 27L11 28L12 28L12 30L15 30L15 29L16 29L16 30L18 30L18 29L20 29L20 31L19 31L19 32L21 32L21 33L19 33L19 34L18 34L18 33L17 33L17 32L18 32L18 31L17 31L17 32L16 32L16 33L14 33L14 32L13 32L13 31L11 31L11 30L9 30L9 31L11 31L11 32L10 32L10 33L9 33L9 32L8 32L8 33L9 33L9 34L12 34L12 35L13 35L13 36L14 36L14 38L15 38L15 39L16 39L16 40L15 40L15 41L13 41L13 43L15 43L15 45L14 45L14 46L17 46L17 45L18 45L18 44L17 44L17 45L16 45L16 42L17 42L17 43L18 43L18 42L19 42L19 41L20 41L20 43L22 43L22 42L24 42L24 41L25 41L25 43L27 43L27 44L25 44L25 46L23 46L23 45L24 45L24 43L23 43L23 45L22 45L22 44L21 44L21 45L19 45L19 48L20 48L20 51L21 51L21 49L23 49L23 48L24 48L24 49L25 49L25 47L26 47L26 48L30 48L30 47L29 47L29 46L30 46L30 44L28 44L28 43L27 43L27 42L29 42L29 41L30 41L30 42L32 42L32 43L33 43L33 44L31 44L31 45L32 45L32 46L31 46L31 47L32 47L32 46L35 46L35 48L36 48L36 47L37 47L37 46L35 46L35 45L34 45L34 43L37 43L37 42L35 42L35 40L38 40L38 42L39 42L39 45L38 45L38 46L41 46L41 48L39 48L39 47L38 47L38 48L37 48L37 49L38 49L38 50L36 50L36 52L38 52L38 54L40 54L40 53L41 53L41 52L43 52L43 51L42 51L42 50L41 50L41 48L42 48L42 49L43 49L43 48L44 48L44 47L45 47L45 46L47 46L47 47L48 47L48 48L47 48L47 49L48 49L48 48L49 48L49 47L48 47L48 46L47 46L47 45L49 45L49 46L50 46L50 48L51 48L51 46L53 46L53 47L55 47L55 46L56 46L56 45L55 45L55 44L54 44L54 45L55 45L55 46L53 46L53 43L54 43L54 42L53 42L53 41L51 41L51 42L50 42L50 43L47 43L47 42L48 42L48 41L49 41L49 39L51 39L51 40L53 40L53 39L55 39L55 38L54 38L54 37L53 37L53 35L55 35L55 34L56 34L56 32L55 32L55 34L54 34L54 33L52 33L52 32L53 32L53 31L52 31L52 32L51 32L51 31L50 31L50 32L49 32L49 31L48 31L48 30L47 30L47 29L46 29L46 30L47 30L47 31L48 31L48 32L43 32L43 30L44 30L44 29L45 29L45 28L46 28L46 27L47 27L47 28L48 28L48 27L47 27L47 25L45 25L45 22L47 22L47 19L48 19L48 18L47 18L47 17L49 17L49 15L50 15L50 16L51 16L51 17L50 17L50 18L49 18L49 19L52 19L52 20L51 20L51 21L49 21L49 23L46 23L46 24L48 24L48 25L50 25L50 26L52 26L52 25L53 25L53 24L54 24L54 25L55 25L55 26L56 26L56 25L55 25L55 24L54 24L54 23L55 23L55 22L56 22L56 21L55 21L55 20L53 20L53 19L52 19L52 17L53 17L53 18L55 18L55 16L53 16L53 15L54 15L54 14L53 14L53 15L52 15L52 16L51 16L51 15L50 15L50 14L51 14L51 12L50 12L50 14L49 14L49 15L48 15L48 16L46 16L46 15L44 15L44 18L43 18L43 20L44 20L44 25L43 25L43 24L42 24L42 23L43 23L43 22L41 22L41 24L40 24L40 22L39 22L39 21L42 21L42 20L38 20L38 23L37 23L37 24L40 24L40 25L38 25L38 26L37 26L37 25L33 25L33 24L32 24L32 23L33 23L33 22L34 22L34 23L35 23L35 19L36 19L36 20L37 20L37 19L39 19L39 17L41 17L41 16L39 16L39 15L38 15L38 14L37 14L37 13L36 13L36 14L37 14L37 15L35 15L35 16L32 16L32 13L33 13L33 14L35 14L35 11L36 11L36 10L37 10L37 11L39 11L39 12L40 12L40 11L39 11L39 10L40 10L40 9L42 9L42 8L41 8L41 7L42 7L42 6L41 6L41 5L40 5L40 4L41 4L41 3L39 3L39 4L38 4L38 5L37 5L37 4L36 4L36 5L35 5L35 2L34 2L34 3L32 3L32 2L31 2L31 3L32 3L32 4L31 4L31 8L32 8L32 10L28 10L28 9L27 9L27 10L28 10L28 11L29 11L29 12L28 12L28 13L26 13L26 12L27 12L27 11L26 11L26 12L25 12L25 11L24 11L24 12L23 12L23 13L22 13L22 12L21 12L21 13L20 13L20 10L21 10L21 11L22 11L22 10L23 10L23 8L24 8L24 6L23 6L23 7L22 7L22 8L19 8L19 7L20 7L20 5L19 5L19 4L17 4L17 2L16 2L16 3L15 3L15 2ZM28 3L28 4L30 4L30 3ZM44 3L44 6L43 6L43 7L44 7L44 9L46 9L46 10L45 10L45 11L46 11L46 10L47 10L47 9L49 9L49 8L47 8L47 7L46 7L46 6L45 6L45 5L47 5L47 3ZM15 4L15 5L16 5L16 4ZM25 4L25 8L26 8L26 4ZM32 4L32 5L34 5L34 7L33 7L33 6L32 6L32 7L33 7L33 9L34 9L34 8L35 8L35 9L37 9L37 10L38 10L38 8L40 8L40 7L41 7L41 6L40 6L40 5L39 5L39 6L38 6L38 7L37 7L37 5L36 5L36 7L37 7L37 8L35 8L35 5L34 5L34 4ZM10 5L10 6L11 6L11 5ZM17 5L17 6L16 6L16 7L15 7L15 6L14 6L14 8L16 8L16 9L15 9L15 10L12 10L12 11L9 11L9 12L12 12L12 11L14 11L14 12L13 12L13 13L15 13L15 14L13 14L13 15L12 15L12 16L11 16L11 15L8 15L8 17L9 17L9 16L10 16L10 18L8 18L8 19L7 19L7 20L8 20L8 19L9 19L9 21L10 21L10 24L9 24L9 22L8 22L8 24L6 24L6 25L9 25L9 26L11 26L11 27L12 27L12 28L14 28L14 27L15 27L15 25L16 25L16 24L17 24L17 25L19 25L19 26L20 26L20 27L19 27L19 28L21 28L21 29L22 29L22 28L21 28L21 27L22 27L22 26L24 26L24 28L26 28L26 29L23 29L23 31L21 31L21 32L23 32L23 31L24 31L24 32L25 32L25 33L23 33L23 34L24 34L24 36L23 36L23 37L19 37L19 36L20 36L20 34L19 34L19 35L18 35L18 37L17 37L17 39L18 39L18 40L17 40L17 41L19 41L19 40L21 40L21 38L22 38L22 39L24 39L24 40L23 40L23 41L24 41L24 40L25 40L25 37L26 37L26 35L27 35L27 31L29 31L29 32L28 32L28 33L29 33L29 34L30 34L30 36L29 36L29 37L31 37L31 38L29 38L29 39L33 39L33 40L35 40L35 39L37 39L37 38L38 38L38 37L40 37L40 38L41 38L41 39L42 39L42 38L43 38L43 37L44 37L44 38L45 38L45 39L43 39L43 40L45 40L45 39L46 39L46 40L47 40L47 39L48 39L48 37L47 37L47 39L46 39L46 38L45 38L45 37L44 37L44 36L47 36L47 35L44 35L44 36L43 36L43 37L42 37L42 36L41 36L41 35L42 35L42 34L45 34L45 33L43 33L43 32L41 32L41 33L39 33L39 34L40 34L40 35L39 35L39 36L38 36L38 33L37 33L37 32L35 32L35 30L33 30L33 29L32 29L32 27L33 27L33 28L35 28L35 29L38 29L38 28L39 28L39 27L40 27L40 26L39 26L39 27L36 27L36 26L34 26L34 27L33 27L33 26L32 26L32 24L31 24L31 23L30 23L30 24L29 24L29 22L31 22L31 21L32 21L32 20L34 20L34 19L33 19L33 18L32 18L32 16L31 16L31 15L30 15L30 14L31 14L31 13L32 13L32 12L31 12L31 13L30 13L30 14L29 14L29 13L28 13L28 14L29 14L29 16L28 16L28 15L27 15L27 16L28 16L28 17L27 17L27 18L28 18L28 19L27 19L27 20L28 20L28 19L30 19L30 18L32 18L32 19L31 19L31 21L29 21L29 22L28 22L28 23L27 23L27 21L26 21L26 19L25 19L25 17L26 17L26 14L25 14L25 13L23 13L23 14L22 14L22 13L21 13L21 14L20 14L20 13L19 13L19 10L20 10L20 9L19 9L19 8L16 8L16 7L17 7L17 6L18 6L18 7L19 7L19 6L18 6L18 5ZM27 5L27 8L30 8L30 5ZM28 6L28 7L29 7L29 6ZM39 6L39 7L40 7L40 6ZM44 6L44 7L45 7L45 8L46 8L46 9L47 9L47 8L46 8L46 7L45 7L45 6ZM55 8L55 9L56 9L56 8ZM16 9L16 10L15 10L15 13L16 13L16 16L14 16L14 15L13 15L13 16L14 16L14 18L13 18L13 19L12 19L12 17L11 17L11 19L12 19L12 22L11 22L11 23L12 23L12 22L13 22L13 21L14 21L14 22L16 22L16 21L18 21L18 22L20 22L20 23L19 23L19 25L20 25L20 26L21 26L21 25L24 25L24 24L25 24L25 25L26 25L26 26L25 26L25 27L26 27L26 26L27 26L27 25L28 25L28 26L30 26L30 25L31 25L31 24L30 24L30 25L29 25L29 24L25 24L25 23L26 23L26 22L25 22L25 21L24 21L24 20L22 20L22 21L21 21L21 18L22 18L22 17L25 17L25 16L24 16L24 15L25 15L25 14L24 14L24 15L20 15L20 14L19 14L19 15L18 15L18 16L19 16L19 15L20 15L20 19L19 19L19 17L16 17L16 16L17 16L17 13L18 13L18 12L17 12L17 13L16 13L16 11L18 11L18 9ZM4 10L4 11L5 11L5 10ZM32 10L32 11L33 11L33 10ZM33 12L33 13L34 13L34 12ZM52 12L52 13L53 13L53 12ZM54 12L54 13L55 13L55 14L56 14L56 13L55 13L55 12ZM9 13L9 14L11 14L11 13ZM21 16L21 17L22 17L22 16ZM35 16L35 17L37 17L37 18L38 18L38 17L39 17L39 16L38 16L38 17L37 17L37 16ZM42 16L42 17L43 17L43 16ZM45 16L45 17L46 17L46 16ZM17 18L17 20L18 20L18 21L20 21L20 20L19 20L19 19L18 19L18 18ZM23 18L23 19L24 19L24 18ZM41 18L41 19L42 19L42 18ZM44 18L44 20L45 20L45 21L46 21L46 20L45 20L45 18ZM13 19L13 20L14 20L14 19ZM15 20L15 21L16 21L16 20ZM22 21L22 22L21 22L21 24L20 24L20 25L21 25L21 24L24 24L24 23L22 23L22 22L24 22L24 21ZM51 21L51 22L50 22L50 23L49 23L49 24L50 24L50 23L53 23L53 22L54 22L54 21ZM13 23L13 24L11 24L11 25L12 25L12 27L13 27L13 24L14 24L14 23ZM15 23L15 24L16 24L16 23ZM17 23L17 24L18 24L18 23ZM41 24L41 28L42 28L42 26L43 26L43 25L42 25L42 24ZM44 25L44 26L45 26L45 27L44 27L44 28L43 28L43 29L41 29L41 30L43 30L43 29L44 29L44 28L45 28L45 27L46 27L46 26L45 26L45 25ZM16 26L16 27L18 27L18 26ZM31 26L31 27L32 27L32 26ZM53 26L53 27L54 27L54 26ZM5 27L5 30L8 30L8 27ZM27 27L27 30L30 30L30 27ZM49 27L49 30L52 30L52 27ZM55 27L55 28L54 28L54 29L55 29L55 28L56 28L56 27ZM6 28L6 29L7 29L7 28ZM16 28L16 29L18 29L18 28ZM28 28L28 29L29 29L29 28ZM50 28L50 29L51 29L51 28ZM1 29L1 30L2 30L2 31L3 31L3 30L2 30L2 29ZM31 29L31 31L30 31L30 32L29 32L29 33L31 33L31 34L32 34L32 35L33 35L33 36L32 36L32 37L33 37L33 39L35 39L35 37L33 37L33 36L34 36L34 34L35 34L35 36L37 36L37 34L35 34L35 32L33 32L33 30L32 30L32 29ZM39 29L39 30L38 30L38 32L39 32L39 30L40 30L40 29ZM24 30L24 31L25 31L25 32L26 32L26 31L25 31L25 30ZM31 31L31 33L32 33L32 34L33 34L33 33L32 33L32 31ZM3 32L3 33L5 33L5 32ZM11 32L11 33L12 33L12 34L14 34L14 35L15 35L15 36L17 36L17 35L16 35L16 34L14 34L14 33L13 33L13 32ZM48 32L48 33L49 33L49 32ZM50 32L50 34L49 34L49 35L50 35L50 37L49 37L49 38L50 38L50 37L52 37L52 35L53 35L53 34L52 34L52 33L51 33L51 32ZM21 33L21 35L22 35L22 33ZM25 33L25 34L26 34L26 33ZM7 34L7 35L5 35L5 36L7 36L7 37L6 37L6 38L7 38L7 37L8 37L8 36L7 36L7 35L8 35L8 34ZM50 34L50 35L52 35L52 34ZM1 35L1 37L2 37L2 38L3 38L3 37L2 37L2 36L4 36L4 35ZM9 35L9 36L11 36L11 35ZM40 36L40 37L41 37L41 36ZM15 37L15 38L16 38L16 37ZM18 37L18 38L19 38L19 39L20 39L20 38L19 38L19 37ZM23 37L23 38L24 38L24 37ZM27 37L27 38L26 38L26 39L27 39L27 41L26 41L26 42L27 42L27 41L29 41L29 40L28 40L28 39L27 39L27 38L28 38L28 37ZM52 38L52 39L53 39L53 38ZM3 39L3 40L4 40L4 39ZM38 39L38 40L39 40L39 39ZM31 40L31 41L32 41L32 42L33 42L33 43L34 43L34 42L33 42L33 41L32 41L32 40ZM3 41L3 42L4 42L4 41ZM41 41L41 42L40 42L40 43L42 43L42 44L41 44L41 46L43 46L43 47L42 47L42 48L43 48L43 47L44 47L44 46L43 46L43 45L44 45L44 44L43 44L43 42L44 42L44 41ZM1 42L1 43L2 43L2 44L3 44L3 43L2 43L2 42ZM51 42L51 43L50 43L50 44L49 44L49 45L50 45L50 46L51 46L51 45L50 45L50 44L51 44L51 43L53 43L53 42ZM46 43L46 44L45 44L45 45L47 45L47 43ZM27 44L27 45L26 45L26 47L28 47L28 46L27 46L27 45L28 45L28 44ZM21 45L21 46L20 46L20 47L23 47L23 46L22 46L22 45ZM3 46L3 47L5 47L5 46ZM6 48L6 49L7 49L7 48ZM38 48L38 49L39 49L39 48ZM53 48L53 49L54 49L54 48ZM55 48L55 50L54 50L54 51L55 51L55 50L56 50L56 48ZM27 49L27 52L30 52L30 49ZM49 49L49 52L52 52L52 49ZM12 50L12 51L13 51L13 50ZM14 50L14 51L15 51L15 50ZM22 50L22 51L23 51L23 52L22 52L22 53L24 53L24 52L26 52L26 50ZM28 50L28 51L29 51L29 50ZM38 50L38 52L39 52L39 51L40 51L40 52L41 52L41 50ZM50 50L50 51L51 51L51 50ZM10 52L10 53L11 53L11 52ZM44 52L44 53L43 53L43 54L44 54L44 53L45 53L45 52ZM53 52L53 54L54 54L54 52ZM15 53L15 54L16 54L16 53ZM17 54L17 56L18 56L18 55L19 55L19 54ZM25 54L25 55L26 55L26 54ZM37 55L37 56L39 56L39 55ZM50 55L50 56L51 56L51 55ZM12 56L12 57L13 57L13 56ZM46 56L46 57L47 57L47 56ZM0 0L0 7L7 7L7 0ZM1 1L1 6L6 6L6 1ZM2 2L2 5L5 5L5 2ZM50 0L50 7L57 7L57 0ZM51 1L51 6L56 6L56 1ZM52 2L52 5L55 5L55 2ZM0 50L0 57L7 57L7 50ZM1 51L1 56L6 56L6 51ZM2 52L2 55L5 55L5 52Z" fill="#000000"/></g></g></svg>
