<?xml version="1.0" encoding="UTF-8"?>
<svg xmlns="http://www.w3.org/2000/svg" version="1.1" width="300" height="300" viewBox="0 0 300 300"><rect x="0" y="0" width="300" height="300" fill="#fefefe"/><g transform="scale(4.615)"><g transform="translate(4,4)"><path fill-rule="evenodd" d="M9 0L9 1L8 1L8 2L9 2L9 3L8 3L8 4L9 4L9 3L10 3L10 4L11 4L11 3L12 3L12 5L8 5L8 7L9 7L9 8L6 8L6 9L5 9L5 8L0 8L0 9L1 9L1 10L2 10L2 12L1 12L1 11L0 11L0 16L1 16L1 18L0 18L0 19L1 19L1 18L5 18L5 17L3 17L3 16L1 16L1 15L4 15L4 16L6 16L6 17L7 17L7 16L6 16L6 15L8 15L8 16L9 16L9 17L10 17L10 18L11 18L11 20L10 20L10 21L9 21L9 19L8 19L8 20L5 20L5 19L4 19L4 20L5 20L5 21L3 21L3 22L2 22L2 20L1 20L1 22L2 22L2 23L3 23L3 25L2 25L2 26L1 26L1 29L0 29L0 31L2 31L2 34L3 34L3 33L4 33L4 34L5 34L5 35L4 35L4 36L2 36L2 35L1 35L1 34L0 34L0 35L1 35L1 36L0 36L0 37L2 37L2 39L0 39L0 41L1 41L1 42L0 42L0 43L1 43L1 44L0 44L0 48L5 48L5 47L7 47L7 46L10 46L10 47L9 47L9 48L8 48L8 51L9 51L9 52L8 52L8 57L12 57L12 55L10 55L10 54L9 54L9 52L10 52L10 53L11 53L11 52L12 52L12 53L13 53L13 54L15 54L15 55L13 55L13 57L16 57L16 56L17 56L17 57L19 57L19 55L20 55L20 54L19 54L19 53L20 53L20 52L22 52L22 51L21 51L21 50L25 50L25 51L26 51L26 52L24 52L24 53L23 53L23 54L22 54L22 53L21 53L21 54L22 54L22 55L21 55L21 56L23 56L23 57L26 57L26 56L27 56L27 57L29 57L29 56L30 56L30 57L31 57L31 56L35 56L35 57L39 57L39 56L37 56L37 55L41 55L41 56L42 56L42 55L44 55L44 54L45 54L45 55L49 55L49 56L48 56L48 57L49 57L49 56L50 56L50 57L52 57L52 55L51 55L51 53L52 53L52 54L53 54L53 52L54 52L54 53L55 53L55 52L57 52L57 51L56 51L56 49L57 49L57 48L56 48L56 46L57 46L57 45L56 45L56 44L55 44L55 43L56 43L56 42L55 42L55 41L53 41L53 40L55 40L55 39L57 39L57 37L56 37L56 34L57 34L57 32L56 32L56 30L57 30L57 28L56 28L56 26L57 26L57 25L56 25L56 22L57 22L57 21L56 21L56 20L55 20L55 19L56 19L56 18L57 18L57 17L56 17L56 16L57 16L57 15L56 15L56 14L57 14L57 13L56 13L56 12L57 12L57 11L56 11L56 10L54 10L54 11L51 11L51 10L53 10L53 9L54 9L54 8L53 8L53 9L52 9L52 8L51 8L51 10L50 10L50 8L47 8L47 5L48 5L48 0L46 0L46 1L45 1L45 2L44 2L44 3L43 3L43 4L42 4L42 5L41 5L41 4L40 4L40 5L39 5L39 6L38 6L38 7L37 7L37 5L38 5L38 4L39 4L39 3L42 3L42 2L43 2L43 0L41 0L41 1L40 1L40 0L39 0L39 1L38 1L38 0L37 0L37 1L38 1L38 2L39 2L39 3L38 3L38 4L37 4L37 3L36 3L36 0L35 0L35 1L33 1L33 0L32 0L32 1L33 1L33 2L32 2L32 3L31 3L31 2L29 2L29 1L31 1L31 0L29 0L29 1L28 1L28 0L27 0L27 1L26 1L26 0L23 0L23 2L21 2L21 3L23 3L23 4L22 4L22 5L23 5L23 6L22 6L22 7L21 7L21 4L19 4L19 3L20 3L20 2L19 2L19 1L18 1L18 0L17 0L17 1L18 1L18 2L19 2L19 3L17 3L17 2L16 2L16 3L17 3L17 4L18 4L18 5L20 5L20 7L19 7L19 6L18 6L18 7L17 7L17 6L16 6L16 7L15 7L15 5L16 5L16 4L15 4L15 5L14 5L14 8L13 8L13 6L12 6L12 5L13 5L13 4L14 4L14 2L15 2L15 0L14 0L14 2L13 2L13 3L12 3L12 1L11 1L11 3L10 3L10 2L9 2L9 1L10 1L10 0ZM21 0L21 1L22 1L22 0ZM25 1L25 2L23 2L23 3L26 3L26 4L25 4L25 8L26 8L26 4L27 4L27 3L28 3L28 4L30 4L30 3L28 3L28 1L27 1L27 2L26 2L26 1ZM46 1L46 2L47 2L47 1ZM32 3L32 4L31 4L31 8L32 8L32 10L31 10L31 11L30 11L30 10L29 10L29 9L27 9L27 11L26 11L26 12L25 12L25 10L24 10L24 12L25 12L25 13L26 13L26 14L23 14L23 13L22 13L22 12L21 12L21 11L22 11L22 10L23 10L23 9L24 9L24 6L23 6L23 7L22 7L22 8L20 8L20 10L19 10L19 9L18 9L18 10L17 10L17 9L16 9L16 8L17 8L17 7L16 7L16 8L14 8L14 10L15 10L15 13L13 13L13 12L14 12L14 11L13 11L13 8L12 8L12 6L11 6L11 8L9 8L9 9L6 9L6 10L5 10L5 9L3 9L3 11L4 11L4 10L5 10L5 11L6 11L6 12L7 12L7 11L6 11L6 10L8 10L8 11L9 11L9 12L8 12L8 13L6 13L6 14L10 14L10 17L11 17L11 16L13 16L13 15L14 15L14 18L12 18L12 24L10 24L10 23L11 23L11 21L10 21L10 22L8 22L8 23L6 23L6 24L8 24L8 26L9 26L9 30L10 30L10 35L9 35L9 34L8 34L8 36L7 36L7 35L6 35L6 36L5 36L5 37L4 37L4 38L3 38L3 39L4 39L4 44L5 44L5 45L4 45L4 46L3 46L3 44L1 44L1 45L2 45L2 46L1 46L1 47L2 47L2 46L3 46L3 47L5 47L5 46L7 46L7 45L8 45L8 42L9 42L9 43L11 43L11 45L10 45L10 44L9 44L9 45L10 45L10 46L11 46L11 47L10 47L10 48L9 48L9 51L10 51L10 52L11 52L11 50L12 50L12 49L14 49L14 50L13 50L13 51L14 51L14 50L15 50L15 52L16 52L16 53L15 53L15 54L16 54L16 53L17 53L17 52L18 52L18 51L19 51L19 52L20 52L20 50L21 50L21 49L23 49L23 47L25 47L25 48L24 48L24 49L25 49L25 48L27 48L27 47L29 47L29 48L30 48L30 47L29 47L29 45L30 45L30 46L31 46L31 45L33 45L33 46L32 46L32 49L31 49L31 53L30 53L30 54L27 54L27 53L26 53L26 55L27 55L27 56L29 56L29 55L30 55L30 56L31 56L31 54L32 54L32 53L33 53L33 54L35 54L35 56L36 56L36 54L35 54L35 50L36 50L36 52L38 52L38 54L40 54L40 53L41 53L41 52L42 52L42 53L43 53L43 54L44 54L44 53L45 53L45 54L48 54L48 50L47 50L47 49L48 49L48 48L49 48L49 47L48 47L48 46L50 46L50 48L51 48L51 46L52 46L52 47L55 47L55 46L56 46L56 45L55 45L55 44L54 44L54 45L52 45L52 44L53 44L53 43L54 43L54 42L53 42L53 41L51 41L51 42L50 42L50 43L49 43L49 42L48 42L48 41L49 41L49 39L51 39L51 40L52 40L52 39L55 39L55 37L53 37L53 35L55 35L55 34L56 34L56 32L54 32L54 33L52 33L52 32L53 32L53 31L55 31L55 30L53 30L53 31L52 31L52 32L51 32L51 33L52 33L52 34L50 34L50 31L48 31L48 27L47 27L47 25L50 25L50 26L51 26L51 25L52 25L52 26L53 26L53 27L54 27L54 26L53 26L53 23L55 23L55 22L56 22L56 21L55 21L55 20L53 20L53 19L52 19L52 20L51 20L51 21L49 21L49 18L47 18L47 17L49 17L49 15L50 15L50 14L51 14L51 12L50 12L50 11L48 11L48 10L47 10L47 8L46 8L46 6L45 6L45 4L46 4L46 5L47 5L47 3L44 3L44 6L43 6L43 5L42 5L42 6L41 6L41 5L40 5L40 6L39 6L39 7L40 7L40 8L38 8L38 10L37 10L37 9L35 9L35 8L37 8L37 7L36 7L36 5L37 5L37 4L36 4L36 5L35 5L35 3ZM23 4L23 5L24 5L24 4ZM32 4L32 5L33 5L33 4ZM27 5L27 8L30 8L30 5ZM34 5L34 7L33 7L33 6L32 6L32 7L33 7L33 9L34 9L34 8L35 8L35 5ZM9 6L9 7L10 7L10 6ZM28 6L28 7L29 7L29 6ZM40 6L40 7L41 7L41 9L39 9L39 10L38 10L38 11L37 11L37 10L36 10L36 12L35 12L35 13L36 13L36 14L32 14L32 11L33 11L33 10L32 10L32 11L31 11L31 13L30 13L30 14L29 14L29 13L28 13L28 12L29 12L29 11L27 11L27 12L26 12L26 13L28 13L28 14L29 14L29 16L28 16L28 15L27 15L27 16L28 16L28 17L26 17L26 18L25 18L25 17L22 17L22 16L21 16L21 15L23 15L23 16L26 16L26 15L23 15L23 14L22 14L22 13L21 13L21 12L20 12L20 13L19 13L19 10L18 10L18 11L16 11L16 13L15 13L15 14L14 14L14 15L15 15L15 17L16 17L16 13L17 13L17 14L18 14L18 15L19 15L19 14L20 14L20 17L19 17L19 16L17 16L17 17L18 17L18 18L17 18L17 19L16 19L16 18L15 18L15 21L16 21L16 22L15 22L15 23L16 23L16 24L14 24L14 23L13 23L13 25L11 25L11 26L12 26L12 28L10 28L10 30L12 30L12 31L11 31L11 33L13 33L13 32L12 32L12 31L13 31L13 29L14 29L14 32L15 32L15 33L17 33L17 34L16 34L16 35L15 35L15 36L17 36L17 39L18 39L18 40L17 40L17 41L19 41L19 42L18 42L18 43L17 43L17 42L16 42L16 44L18 44L18 45L17 45L17 46L18 46L18 47L17 47L17 48L15 48L15 46L13 46L13 45L14 45L14 44L13 44L13 43L12 43L12 44L13 44L13 45L11 45L11 46L12 46L12 47L11 47L11 48L10 48L10 50L11 50L11 48L12 48L12 47L13 47L13 48L15 48L15 49L19 49L19 50L20 50L20 49L19 49L19 48L20 48L20 45L21 45L21 47L23 47L23 46L25 46L25 44L27 44L27 43L25 43L25 41L24 41L24 40L25 40L25 37L26 37L26 36L27 36L27 31L31 31L31 33L29 33L29 32L28 32L28 33L29 33L29 34L30 34L30 36L29 36L29 37L31 37L31 38L29 38L29 39L33 39L33 40L35 40L35 42L37 42L37 43L36 43L36 44L35 44L35 43L34 43L34 42L33 42L33 41L32 41L32 40L29 40L29 42L28 42L28 44L33 44L33 43L34 43L34 45L37 45L37 47L36 47L36 48L35 48L35 49L36 49L36 50L38 50L38 51L40 51L40 52L41 52L41 50L42 50L42 52L43 52L43 53L44 53L44 52L45 52L45 51L44 51L44 50L45 50L45 49L44 49L44 48L43 48L43 47L42 47L42 48L41 48L41 46L43 46L43 45L44 45L44 47L45 47L45 48L46 48L46 47L47 47L47 48L48 48L48 47L47 47L47 46L45 46L45 45L47 45L47 43L48 43L48 42L47 42L47 43L46 43L46 44L45 44L45 45L44 45L44 43L43 43L43 41L44 41L44 42L45 42L45 41L44 41L44 40L47 40L47 39L49 39L49 38L50 38L50 37L49 37L49 36L48 36L48 35L50 35L50 36L52 36L52 35L53 35L53 34L52 34L52 35L50 35L50 34L48 34L48 35L47 35L47 34L45 34L45 35L44 35L44 33L43 33L43 32L46 32L46 33L47 33L47 32L48 32L48 33L49 33L49 32L48 32L48 31L47 31L47 30L46 30L46 29L47 29L47 27L46 27L46 28L45 28L45 26L44 26L44 20L45 20L45 18L44 18L44 15L45 15L45 17L47 17L47 16L48 16L48 15L49 15L49 14L50 14L50 12L49 12L49 13L47 13L47 14L43 14L43 13L44 13L44 12L43 12L43 13L40 13L40 12L41 12L41 11L40 11L40 10L42 10L42 11L43 11L43 10L44 10L44 11L45 11L45 12L48 12L48 11L47 11L47 10L44 10L44 7L45 7L45 6L44 6L44 7L43 7L43 6L42 6L42 7L41 7L41 6ZM48 6L48 7L49 7L49 6ZM11 8L11 9L10 9L10 10L12 10L12 8ZM42 8L42 9L43 9L43 8ZM45 8L45 9L46 9L46 8ZM55 8L55 9L56 9L56 8ZM21 9L21 10L20 10L20 11L21 11L21 10L22 10L22 9ZM11 11L11 13L10 13L10 14L11 14L11 13L12 13L12 12L13 12L13 11ZM39 11L39 12L40 12L40 11ZM4 12L4 13L3 13L3 14L4 14L4 15L5 15L5 14L4 14L4 13L5 13L5 12ZM17 12L17 13L18 13L18 12ZM33 12L33 13L34 13L34 12ZM52 12L52 13L53 13L53 15L55 15L55 14L56 14L56 13L55 13L55 12L54 12L54 13L53 13L53 12ZM20 13L20 14L21 14L21 13ZM38 13L38 14L37 14L37 15L35 15L35 16L31 16L31 18L30 18L30 19L29 19L29 20L27 20L27 19L28 19L28 18L26 18L26 21L28 21L28 22L27 22L27 23L28 23L28 24L25 24L25 23L26 23L26 22L25 22L25 21L24 21L24 20L23 20L23 19L24 19L24 18L22 18L22 17L20 17L20 18L19 18L19 20L20 20L20 21L19 21L19 22L18 22L18 21L17 21L17 20L16 20L16 21L17 21L17 24L16 24L16 25L15 25L15 27L14 27L14 26L13 26L13 27L14 27L14 28L15 28L15 29L16 29L16 31L15 31L15 32L19 32L19 31L20 31L20 32L21 32L21 33L20 33L20 35L19 35L19 34L17 34L17 36L19 36L19 37L23 37L23 38L24 38L24 37L23 37L23 36L24 36L24 34L23 34L23 33L25 33L25 35L26 35L26 33L25 33L25 32L24 32L24 31L25 31L25 30L24 30L24 31L23 31L23 27L24 27L24 26L22 26L22 27L21 27L21 25L24 25L24 24L25 24L25 25L26 25L26 26L25 26L25 27L26 27L26 26L27 26L27 25L28 25L28 26L29 26L29 25L31 25L31 24L32 24L32 26L31 26L31 27L32 27L32 29L31 29L31 30L32 30L32 35L33 35L33 36L32 36L32 37L33 37L33 38L34 38L34 39L35 39L35 40L38 40L38 42L39 42L39 43L40 43L40 44L39 44L39 45L38 45L38 46L39 46L39 47L38 47L38 48L37 48L37 49L38 49L38 50L41 50L41 48L39 48L39 47L40 47L40 46L41 46L41 44L42 44L42 42L40 42L40 41L42 41L42 40L44 40L44 39L45 39L45 38L46 38L46 39L47 39L47 37L48 37L48 38L49 38L49 37L48 37L48 36L47 36L47 35L45 35L45 36L44 36L44 35L43 35L43 34L42 34L42 35L43 35L43 36L44 36L44 37L43 37L43 38L42 38L42 37L41 37L41 36L40 36L40 37L38 37L38 35L40 35L40 34L39 34L39 33L41 33L41 32L43 32L43 31L44 31L44 29L45 29L45 28L44 28L44 27L43 27L43 26L41 26L41 25L43 25L43 24L40 24L40 22L39 22L39 21L43 21L43 20L44 20L44 18L43 18L43 20L42 20L42 18L41 18L41 20L39 20L39 21L38 21L38 20L37 20L37 19L39 19L39 17L41 17L41 16L42 16L42 17L43 17L43 16L42 16L42 15L43 15L43 14L40 14L40 13ZM30 14L30 15L32 15L32 14ZM38 14L38 15L39 15L39 16L38 16L38 17L37 17L37 16L35 16L35 17L37 17L37 18L38 18L38 17L39 17L39 16L41 16L41 15L40 15L40 14ZM50 16L50 19L51 19L51 18L56 18L56 17L53 17L53 16ZM32 17L32 18L31 18L31 21L30 21L30 20L29 20L29 23L30 23L30 24L31 24L31 23L30 23L30 22L31 22L31 21L32 21L32 20L35 20L35 23L34 23L34 22L33 22L33 23L32 23L32 24L33 24L33 25L37 25L37 26L38 26L38 24L39 24L39 25L40 25L40 24L39 24L39 22L38 22L38 21L37 21L37 20L36 20L36 19L35 19L35 18L33 18L33 17ZM6 18L6 19L7 19L7 18ZM20 18L20 19L21 19L21 20L22 20L22 18ZM32 18L32 19L33 19L33 18ZM46 18L46 20L47 20L47 18ZM13 19L13 20L14 20L14 19ZM5 21L5 22L4 22L4 23L5 23L5 22L7 22L7 21ZM13 21L13 22L14 22L14 21ZM21 21L21 22L24 22L24 21ZM45 21L45 22L46 22L46 23L45 23L45 25L47 25L47 24L48 24L48 23L49 23L49 21L47 21L47 22L46 22L46 21ZM51 21L51 22L50 22L50 25L51 25L51 23L53 23L53 22L54 22L54 21ZM19 22L19 23L20 23L20 22ZM41 22L41 23L42 23L42 22ZM0 23L0 25L1 25L1 23ZM8 23L8 24L9 24L9 23ZM21 23L21 24L17 24L17 25L21 25L21 24L24 24L24 23ZM37 23L37 24L38 24L38 23ZM54 24L54 25L55 25L55 24ZM3 25L3 26L2 26L2 28L3 28L3 29L2 29L2 31L4 31L4 30L3 30L3 29L4 29L4 28L3 28L3 27L4 27L4 25ZM5 25L5 26L7 26L7 25ZM9 25L9 26L10 26L10 25ZM16 26L16 27L18 27L18 26ZM19 26L19 29L18 29L18 28L16 28L16 29L18 29L18 30L17 30L17 31L18 31L18 30L20 30L20 29L22 29L22 28L20 28L20 26ZM32 26L32 27L33 27L33 28L35 28L35 30L33 30L33 33L35 33L35 34L37 34L37 35L38 35L38 33L37 33L37 32L34 32L34 31L36 31L36 29L38 29L38 28L42 28L42 27L36 27L36 26L34 26L34 27L33 27L33 26ZM5 27L5 30L8 30L8 27ZM27 27L27 30L30 30L30 27ZM35 27L35 28L36 28L36 27ZM49 27L49 30L52 30L52 27ZM6 28L6 29L7 29L7 28ZM25 28L25 29L26 29L26 28ZM28 28L28 29L29 29L29 28ZM43 28L43 29L41 29L41 30L43 30L43 29L44 29L44 28ZM50 28L50 29L51 29L51 28ZM54 28L54 29L56 29L56 28ZM39 29L39 30L38 30L38 32L39 32L39 30L40 30L40 29ZM6 31L6 32L9 32L9 31ZM21 31L21 32L23 32L23 31ZM46 31L46 32L47 32L47 31ZM0 32L0 33L1 33L1 32ZM4 32L4 33L5 33L5 32ZM6 33L6 34L7 34L7 33ZM21 33L21 34L22 34L22 35L21 35L21 36L22 36L22 35L23 35L23 34L22 34L22 33ZM54 33L54 34L55 34L55 33ZM11 34L11 37L12 37L12 38L11 38L11 40L12 40L12 41L13 41L13 40L14 40L14 36L13 36L13 37L12 37L12 34ZM13 34L13 35L14 35L14 34ZM33 34L33 35L34 35L34 36L35 36L35 39L38 39L38 40L40 40L40 39L38 39L38 37L37 37L37 36L35 36L35 35L34 35L34 34ZM6 36L6 37L5 37L5 38L6 38L6 39L7 39L7 38L6 38L6 37L7 37L7 36ZM15 37L15 38L16 38L16 37ZM27 37L27 38L26 38L26 39L27 39L27 40L28 40L28 39L27 39L27 38L28 38L28 37ZM40 37L40 38L41 38L41 40L42 40L42 38L41 38L41 37ZM44 37L44 38L45 38L45 37ZM12 38L12 39L13 39L13 38ZM18 38L18 39L20 39L20 38ZM21 38L21 39L22 39L22 40L19 40L19 41L20 41L20 42L21 42L21 43L20 43L20 44L19 44L19 45L20 45L20 44L21 44L21 45L22 45L22 46L23 46L23 45L24 45L24 43L23 43L23 45L22 45L22 44L21 44L21 43L22 43L22 42L24 42L24 41L23 41L23 40L24 40L24 39L22 39L22 38ZM8 39L8 41L7 41L7 40L5 40L5 41L7 41L7 42L5 42L5 43L7 43L7 42L8 42L8 41L9 41L9 42L11 42L11 41L9 41L9 39ZM15 39L15 40L16 40L16 39ZM1 40L1 41L3 41L3 40ZM21 41L21 42L22 42L22 41ZM26 41L26 42L27 42L27 41ZM30 41L30 42L32 42L32 43L33 43L33 42L32 42L32 41ZM2 42L2 43L3 43L3 42ZM14 42L14 43L15 43L15 42ZM51 42L51 43L50 43L50 44L49 44L49 45L51 45L51 43L53 43L53 42ZM6 44L6 45L7 45L7 44ZM26 45L26 47L27 47L27 45ZM33 46L33 47L35 47L35 46ZM6 48L6 49L7 49L7 48ZM33 48L33 49L32 49L32 52L33 52L33 53L34 53L34 52L33 52L33 49L34 49L34 48ZM38 48L38 49L39 49L39 48ZM42 48L42 49L43 49L43 50L44 50L44 49L43 49L43 48ZM53 48L53 49L56 49L56 48ZM27 49L27 52L30 52L30 49ZM49 49L49 52L52 52L52 49ZM28 50L28 51L29 51L29 50ZM50 50L50 51L51 51L51 50ZM54 50L54 51L55 51L55 50ZM46 51L46 52L47 52L47 51ZM24 53L24 54L23 54L23 55L24 55L24 56L25 56L25 53ZM18 54L18 55L17 55L17 56L18 56L18 55L19 55L19 54ZM41 54L41 55L42 55L42 54ZM54 54L54 55L53 55L53 56L55 56L55 57L56 57L56 56L55 56L55 54ZM9 55L9 56L10 56L10 55ZM15 55L15 56L16 56L16 55ZM50 55L50 56L51 56L51 55ZM43 56L43 57L44 57L44 56ZM45 56L45 57L46 57L46 56ZM0 0L0 7L7 7L7 0ZM1 1L1 6L6 6L6 1ZM2 2L2 5L5 5L5 2ZM50 0L50 7L57 7L57 0ZM51 1L51 6L56 6L56 1ZM52 2L52 5L55 5L55 2ZM0 50L0 57L7 57L7 50ZM1 51L1 56L6 56L6 51ZM2 52L2 55L5 55L5 52Z" fill="#000000"/></g></g></svg>
