<?xml version="1.0" encoding="UTF-8"?>
<svg xmlns="http://www.w3.org/2000/svg" version="1.1" width="300" height="300" viewBox="0 0 300 300"><rect x="0" y="0" width="300" height="300" fill="#fefefe"/><g transform="scale(4.615)"><g transform="translate(4,4)"><path fill-rule="evenodd" d="M13 0L13 1L14 1L14 2L12 2L12 1L8 1L8 2L9 2L9 3L8 3L8 4L9 4L9 5L8 5L8 7L9 7L9 8L6 8L6 9L5 9L5 8L0 8L0 10L3 10L3 12L2 12L2 11L0 11L0 12L1 12L1 13L0 13L0 15L1 15L1 13L3 13L3 15L2 15L2 16L3 16L3 15L4 15L4 17L8 17L8 18L6 18L6 19L5 19L5 18L4 18L4 19L3 19L3 20L4 20L4 21L5 21L5 22L4 22L4 23L2 23L2 24L1 24L1 25L2 25L2 26L0 26L0 27L2 27L2 28L4 28L4 29L3 29L3 30L4 30L4 31L5 31L5 32L4 32L4 34L5 34L5 33L7 33L7 34L6 34L6 35L7 35L7 36L6 36L6 37L7 37L7 38L6 38L6 39L5 39L5 35L4 35L4 38L3 38L3 39L4 39L4 41L3 41L3 40L2 40L2 39L1 39L1 38L2 38L2 36L3 36L3 34L2 34L2 33L0 33L0 35L1 35L1 36L0 36L0 39L1 39L1 40L0 40L0 42L1 42L1 43L0 43L0 44L2 44L2 47L1 47L1 46L0 46L0 48L5 48L5 47L7 47L7 46L8 46L8 44L9 44L9 46L10 46L10 45L11 45L11 44L12 44L12 45L13 45L13 44L14 44L14 46L11 46L11 48L9 48L9 47L8 47L8 51L9 51L9 52L8 52L8 57L12 57L12 56L9 56L9 52L10 52L10 55L11 55L11 54L12 54L12 55L13 55L13 54L14 54L14 53L13 53L13 52L12 52L12 50L13 50L13 51L17 51L17 50L20 50L20 51L19 51L19 52L17 52L17 53L16 53L16 52L15 52L15 53L16 53L16 54L15 54L15 55L16 55L16 56L15 56L15 57L16 57L16 56L17 56L17 57L21 57L21 56L19 56L19 55L20 55L20 54L17 54L17 53L20 53L20 52L23 52L23 50L25 50L25 51L26 51L26 52L24 52L24 53L23 53L23 54L21 54L21 55L23 55L23 56L24 56L24 57L26 57L26 56L24 56L24 55L23 55L23 54L24 54L24 53L26 53L26 54L25 54L25 55L26 55L26 54L30 54L30 53L31 53L31 49L32 49L32 52L33 52L33 53L32 53L32 54L31 54L31 56L30 56L30 55L29 55L29 56L27 56L27 57L29 57L29 56L30 56L30 57L31 57L31 56L35 56L35 57L39 57L39 56L41 56L41 55L43 55L43 57L44 57L44 54L45 54L45 55L46 55L46 54L45 54L45 53L47 53L47 55L48 55L48 56L46 56L46 57L48 57L48 56L50 56L50 57L52 57L52 55L51 55L51 53L52 53L52 54L54 54L54 53L55 53L55 52L56 52L56 53L57 53L57 52L56 52L56 50L57 50L57 48L56 48L56 46L57 46L57 43L56 43L56 42L57 42L57 41L56 41L56 42L55 42L55 39L57 39L57 35L56 35L56 34L57 34L57 32L56 32L56 30L57 30L57 29L54 29L54 28L57 28L57 27L55 27L55 26L57 26L57 25L56 25L56 22L57 22L57 20L55 20L55 19L56 19L56 18L53 18L53 17L56 17L56 16L57 16L57 15L56 15L56 14L57 14L57 13L56 13L56 14L55 14L55 15L53 15L53 14L54 14L54 12L57 12L57 11L56 11L56 8L55 8L55 10L54 10L54 11L52 11L52 10L53 10L53 9L54 9L54 8L53 8L53 9L52 9L52 8L51 8L51 9L52 9L52 10L51 10L51 11L50 11L50 8L49 8L49 6L48 6L48 7L47 7L47 5L48 5L48 0L45 0L45 2L44 2L44 3L43 3L43 4L40 4L40 5L39 5L39 6L38 6L38 9L37 9L37 8L35 8L35 5L36 5L36 7L37 7L37 5L38 5L38 3L36 3L36 0L35 0L35 1L33 1L33 0L32 0L32 1L31 1L31 0L29 0L29 1L30 1L30 2L32 2L32 3L31 3L31 4L28 4L28 3L29 3L29 2L28 2L28 1L25 1L25 0L23 0L23 2L22 2L22 3L23 3L23 4L24 4L24 5L23 5L23 6L22 6L22 7L21 7L21 5L22 5L22 4L19 4L19 3L17 3L17 2L20 2L20 3L21 3L21 2L20 2L20 0L17 0L17 2L15 2L15 1L14 1L14 0ZM21 0L21 1L22 1L22 0ZM37 0L37 1L38 1L38 2L39 2L39 3L42 3L42 2L43 2L43 0L41 0L41 1L40 1L40 0L39 0L39 1L38 1L38 0ZM32 1L32 2L33 2L33 1ZM46 1L46 2L47 2L47 1ZM11 2L11 3L10 3L10 6L9 6L9 7L10 7L10 8L11 8L11 10L10 10L10 9L6 9L6 10L9 10L9 12L8 12L8 11L6 11L6 12L5 12L5 13L6 13L6 14L4 14L4 15L5 15L5 16L8 16L8 15L9 15L9 18L8 18L8 19L9 19L9 20L8 20L8 22L7 22L7 21L6 21L6 22L7 22L7 23L6 23L6 24L7 24L7 23L8 23L8 25L6 25L6 26L9 26L9 25L11 25L11 26L12 26L12 27L15 27L15 29L12 29L12 31L6 31L6 32L9 32L9 33L8 33L8 37L9 37L9 36L10 36L10 35L11 35L11 34L13 34L13 37L12 37L12 39L10 39L10 38L11 38L11 37L10 37L10 38L9 38L9 40L10 40L10 43L14 43L14 44L15 44L15 46L14 46L14 48L12 48L12 49L9 49L9 50L10 50L10 52L11 52L11 53L12 53L12 54L13 54L13 53L12 53L12 52L11 52L11 50L12 50L12 49L15 49L15 50L17 50L17 48L18 48L18 46L17 46L17 45L18 45L18 44L17 44L17 45L16 45L16 43L18 43L18 42L19 42L19 44L20 44L20 46L19 46L19 48L20 48L20 50L21 50L21 51L22 51L22 50L21 50L21 49L23 49L23 47L24 47L24 49L25 49L25 50L26 50L26 49L25 49L25 48L27 48L27 47L26 47L26 45L27 45L27 46L30 46L30 45L31 45L31 44L30 44L30 45L27 45L27 44L28 44L28 43L27 43L27 42L30 42L30 41L31 41L31 42L32 42L32 43L33 43L33 44L32 44L32 45L33 45L33 46L31 46L31 48L32 48L32 49L33 49L33 52L34 52L34 53L33 53L33 54L35 54L35 56L36 56L36 54L35 54L35 50L36 50L36 52L37 52L37 53L38 53L38 54L37 54L37 56L39 56L39 55L38 55L38 54L40 54L40 53L43 53L43 54L44 54L44 53L45 53L45 52L44 52L44 53L43 53L43 51L42 51L42 50L41 50L41 48L42 48L42 49L43 49L43 48L44 48L44 50L47 50L47 53L48 53L48 50L47 50L47 49L48 49L48 48L49 48L49 47L51 47L51 46L49 46L49 47L48 47L48 45L49 45L49 44L50 44L50 45L52 45L52 48L53 48L53 47L54 47L54 46L56 46L56 43L55 43L55 44L54 44L54 45L52 45L52 44L53 44L53 43L54 43L54 42L53 42L53 41L54 41L54 40L53 40L53 41L51 41L51 42L50 42L50 43L49 43L49 42L48 42L48 41L49 41L49 40L50 40L50 39L52 39L52 38L53 38L53 35L55 35L55 37L56 37L56 35L55 35L55 34L56 34L56 32L55 32L55 34L54 34L54 33L52 33L52 32L53 32L53 31L55 31L55 30L53 30L53 31L51 31L51 33L52 33L52 34L50 34L50 31L48 31L48 29L46 29L46 30L47 30L47 31L48 31L48 32L46 32L46 31L45 31L45 30L44 30L44 31L45 31L45 32L43 32L43 30L41 30L41 29L43 29L43 27L44 27L44 26L42 26L42 25L41 25L41 24L39 24L39 23L40 23L40 22L39 22L39 21L42 21L42 20L38 20L38 22L37 22L37 24L39 24L39 25L38 25L38 26L37 26L37 25L33 25L33 24L32 24L32 23L33 23L33 22L34 22L34 23L35 23L35 21L34 21L34 20L35 20L35 19L36 19L36 20L37 20L37 19L39 19L39 17L41 17L41 16L42 16L42 17L43 17L43 16L42 16L42 15L44 15L44 18L43 18L43 20L44 20L44 25L45 25L45 26L46 26L46 27L45 27L45 28L44 28L44 29L45 29L45 28L46 28L46 27L47 27L47 28L48 28L48 25L49 25L49 23L50 23L50 24L51 24L51 25L50 25L50 26L51 26L51 25L52 25L52 26L53 26L53 27L54 27L54 26L53 26L53 24L51 24L51 23L50 23L50 22L51 22L51 21L53 21L53 22L56 22L56 21L55 21L55 20L53 20L53 19L52 19L52 18L51 18L51 17L53 17L53 16L52 16L52 15L51 15L51 17L50 17L50 14L51 14L51 12L50 12L50 11L49 11L49 10L47 10L47 8L46 8L46 6L45 6L45 5L47 5L47 3L44 3L44 6L43 6L43 7L44 7L44 10L43 10L43 11L42 11L42 10L41 10L41 7L42 7L42 5L40 5L40 6L39 6L39 9L38 9L38 11L39 11L39 12L40 12L40 13L38 13L38 14L37 14L37 13L36 13L36 14L37 14L37 15L35 15L35 16L33 16L33 15L32 15L32 18L35 18L35 19L34 19L34 20L32 20L32 21L31 21L31 18L30 18L30 19L28 19L28 18L27 18L27 17L28 17L28 16L29 16L29 14L30 14L30 15L31 15L31 14L32 14L32 13L33 13L33 14L35 14L35 12L36 12L36 10L37 10L37 9L35 9L35 8L34 8L34 9L33 9L33 7L34 7L34 5L35 5L35 3L32 3L32 4L31 4L31 8L32 8L32 10L31 10L31 11L30 11L30 10L29 10L29 9L28 9L28 10L27 10L27 11L26 11L26 12L25 12L25 11L24 11L24 12L23 12L23 13L22 13L22 12L20 12L20 11L22 11L22 10L21 10L21 9L23 9L23 8L24 8L24 6L23 6L23 7L22 7L22 8L20 8L20 11L19 11L19 12L20 12L20 14L17 14L17 13L18 13L18 12L17 12L17 11L18 11L18 10L19 10L19 9L18 9L18 8L17 8L17 7L18 7L18 6L19 6L19 7L20 7L20 5L18 5L18 4L17 4L17 3L15 3L15 2L14 2L14 4L12 4L12 2ZM23 2L23 3L26 3L26 4L25 4L25 8L26 8L26 4L27 4L27 3L28 3L28 2ZM11 4L11 6L10 6L10 7L11 7L11 6L12 6L12 9L13 9L13 10L11 10L11 11L12 11L12 13L11 13L11 12L9 12L9 13L11 13L11 14L10 14L10 16L11 16L11 20L9 20L9 24L11 24L11 25L12 25L12 26L13 26L13 23L14 23L14 26L15 26L15 27L16 27L16 26L15 26L15 25L16 25L16 24L17 24L17 25L18 25L18 26L17 26L17 27L18 27L18 26L19 26L19 29L18 29L18 28L16 28L16 29L15 29L15 31L14 31L14 30L13 30L13 31L14 31L14 32L11 32L11 33L10 33L10 34L9 34L9 35L10 35L10 34L11 34L11 33L14 33L14 34L15 34L15 35L14 35L14 37L13 37L13 39L12 39L12 40L11 40L11 41L12 41L12 42L14 42L14 41L16 41L16 39L15 39L15 40L14 40L14 41L12 41L12 40L13 40L13 39L14 39L14 38L16 38L16 37L15 37L15 36L17 36L17 38L20 38L20 39L17 39L17 40L18 40L18 41L17 41L17 42L18 42L18 41L19 41L19 42L20 42L20 44L22 44L22 45L21 45L21 47L20 47L20 48L21 48L21 47L23 47L23 46L24 46L24 47L25 47L25 45L23 45L23 42L25 42L25 41L23 41L23 42L22 42L22 43L21 43L21 42L20 42L20 41L21 41L21 40L23 40L23 39L24 39L24 40L25 40L25 37L26 37L26 36L27 36L27 34L26 34L26 35L25 35L25 33L26 33L26 32L27 32L27 31L28 31L28 33L29 33L29 34L30 34L30 36L29 36L29 37L31 37L31 38L29 38L29 39L33 39L33 40L35 40L35 42L37 42L37 43L34 43L34 42L33 42L33 41L32 41L32 40L31 40L31 41L32 41L32 42L33 42L33 43L34 43L34 45L36 45L36 46L37 46L37 47L36 47L36 48L33 48L33 47L35 47L35 46L33 46L33 47L32 47L32 48L33 48L33 49L36 49L36 50L38 50L38 51L37 51L37 52L38 52L38 53L39 53L39 52L38 52L38 51L40 51L40 52L41 52L41 50L38 50L38 49L39 49L39 48L41 48L41 46L43 46L43 47L42 47L42 48L43 48L43 47L44 47L44 48L48 48L48 47L47 47L47 46L45 46L45 47L44 47L44 46L43 46L43 45L44 45L44 44L45 44L45 45L47 45L47 43L48 43L48 42L47 42L47 43L46 43L46 44L45 44L45 43L44 43L44 42L45 42L45 41L44 41L44 40L45 40L45 39L44 39L44 40L43 40L43 39L42 39L42 38L43 38L43 37L44 37L44 38L45 38L45 37L46 37L46 35L44 35L44 36L42 36L42 34L45 34L45 33L46 33L46 32L45 32L45 33L43 33L43 32L41 32L41 33L39 33L39 34L40 34L40 35L38 35L38 33L37 33L37 32L35 32L35 34L37 34L37 35L38 35L38 37L37 37L37 36L35 36L35 35L34 35L34 34L32 34L32 32L31 32L31 33L29 33L29 31L31 31L31 29L32 29L32 28L31 28L31 26L32 26L32 27L33 27L33 28L35 28L35 30L32 30L32 31L33 31L33 32L34 32L34 31L35 31L35 30L37 30L37 29L38 29L38 28L42 28L42 26L41 26L41 25L39 25L39 26L40 26L40 27L36 27L36 26L34 26L34 27L33 27L33 26L32 26L32 24L31 24L31 23L30 23L30 24L31 24L31 25L27 25L27 26L26 26L26 25L25 25L25 24L29 24L29 23L27 23L27 22L28 22L28 21L26 21L26 19L27 19L27 18L25 18L25 17L26 17L26 15L25 15L25 12L24 12L24 13L23 13L23 14L22 14L22 13L21 13L21 14L20 14L20 16L19 16L19 15L18 15L18 16L16 16L16 13L17 13L17 12L16 12L16 13L15 13L15 10L16 10L16 9L17 9L17 10L18 10L18 9L17 9L17 8L16 8L16 7L17 7L17 6L16 6L16 7L15 7L15 6L14 6L14 5L13 5L13 6L12 6L12 4ZM15 4L15 5L16 5L16 4ZM32 4L32 5L34 5L34 4ZM36 4L36 5L37 5L37 4ZM27 5L27 8L30 8L30 5ZM13 6L13 7L14 7L14 10L15 10L15 9L16 9L16 8L15 8L15 7L14 7L14 6ZM28 6L28 7L29 7L29 6ZM32 6L32 7L33 7L33 6ZM40 6L40 7L41 7L41 6ZM44 6L44 7L45 7L45 6ZM42 8L42 9L43 9L43 8ZM48 8L48 9L49 9L49 8ZM4 9L4 10L5 10L5 9ZM32 10L32 11L31 11L31 13L30 13L30 14L31 14L31 13L32 13L32 12L33 12L33 13L34 13L34 12L33 12L33 10ZM40 10L40 12L41 12L41 10ZM44 10L44 11L45 11L45 12L47 12L47 10L46 10L46 11L45 11L45 10ZM13 11L13 12L14 12L14 11ZM27 11L27 12L26 12L26 13L28 13L28 14L29 14L29 13L28 13L28 12L29 12L29 11ZM48 11L48 12L49 12L49 13L47 13L47 14L45 14L45 13L44 13L44 12L43 12L43 13L40 13L40 14L38 14L38 15L39 15L39 16L38 16L38 17L37 17L37 16L35 16L35 17L37 17L37 18L38 18L38 17L39 17L39 16L41 16L41 14L43 14L43 13L44 13L44 15L45 15L45 17L46 17L46 16L48 16L48 17L47 17L47 18L44 18L44 20L45 20L45 19L47 19L47 18L50 18L50 17L49 17L49 16L48 16L48 15L49 15L49 14L50 14L50 12L49 12L49 11ZM6 12L6 13L8 13L8 12ZM52 12L52 13L53 13L53 12ZM13 13L13 15L14 15L14 17L12 17L12 18L13 18L13 19L12 19L12 20L13 20L13 21L14 21L14 22L16 22L16 21L17 21L17 24L21 24L21 25L20 25L20 26L21 26L21 25L24 25L24 24L25 24L25 23L26 23L26 22L25 22L25 21L24 21L24 20L21 20L21 19L24 19L24 18L22 18L22 17L25 17L25 16L23 16L23 15L21 15L21 16L20 16L20 18L18 18L18 17L16 17L16 16L15 16L15 15L14 15L14 14L15 14L15 13ZM6 14L6 15L7 15L7 14ZM11 14L11 15L12 15L12 14ZM27 15L27 16L28 16L28 15ZM21 16L21 17L22 17L22 16ZM0 17L0 19L2 19L2 18L1 18L1 17ZM14 17L14 18L15 18L15 19L16 19L16 18L15 18L15 17ZM9 18L9 19L10 19L10 18ZM41 18L41 19L42 19L42 18ZM4 19L4 20L5 20L5 19ZM6 19L6 20L7 20L7 19ZM13 19L13 20L14 20L14 19ZM18 19L18 20L17 20L17 21L18 21L18 23L20 23L20 22L19 22L19 21L20 21L20 19ZM49 19L49 20L48 20L48 21L47 21L47 20L46 20L46 21L45 21L45 22L46 22L46 23L45 23L45 25L46 25L46 24L47 24L47 25L48 25L48 22L49 22L49 21L51 21L51 20L52 20L52 19ZM0 20L0 21L1 21L1 22L3 22L3 21L2 21L2 20ZM15 20L15 21L16 21L16 20ZM11 21L11 22L12 22L12 21ZM23 21L23 22L22 22L22 23L21 23L21 24L22 24L22 23L23 23L23 24L24 24L24 23L23 23L23 22L24 22L24 21ZM29 21L29 22L31 22L31 21ZM46 21L46 22L47 22L47 21ZM38 22L38 23L39 23L39 22ZM41 22L41 23L42 23L42 24L43 24L43 23L42 23L42 22ZM11 23L11 24L12 24L12 23ZM15 23L15 24L16 24L16 23ZM2 24L2 25L3 25L3 26L2 26L2 27L4 27L4 25L5 25L5 24ZM22 26L22 27L20 27L20 28L22 28L22 29L20 29L20 31L19 31L19 30L18 30L18 29L16 29L16 30L17 30L17 31L19 31L19 32L20 32L20 31L24 31L24 32L21 32L21 33L18 33L18 32L17 32L17 33L15 33L15 32L14 32L14 33L15 33L15 34L16 34L16 35L17 35L17 36L19 36L19 37L22 37L22 38L24 38L24 37L23 37L23 36L24 36L24 34L23 34L23 33L25 33L25 31L24 31L24 30L23 30L23 26ZM25 26L25 27L24 27L24 28L25 28L25 29L26 29L26 28L25 28L25 27L26 27L26 26ZM5 27L5 30L8 30L8 27ZM27 27L27 30L30 30L30 27ZM49 27L49 30L52 30L52 27ZM0 28L0 30L1 30L1 31L0 31L0 32L3 32L3 31L2 31L2 29L1 29L1 28ZM6 28L6 29L7 29L7 28ZM9 28L9 29L11 29L11 28ZM28 28L28 29L29 29L29 28ZM50 28L50 29L51 29L51 28ZM39 29L39 30L38 30L38 32L39 32L39 30L40 30L40 29ZM48 32L48 33L49 33L49 32ZM17 33L17 35L19 35L19 36L20 36L20 35L21 35L21 36L22 36L22 33L21 33L21 34L20 34L20 35L19 35L19 34L18 34L18 33ZM1 34L1 35L2 35L2 34ZM49 34L49 35L50 35L50 38L49 38L49 37L48 37L48 38L47 38L47 39L46 39L46 41L47 41L47 39L50 39L50 38L51 38L51 37L52 37L52 35L53 35L53 34L52 34L52 35L50 35L50 34ZM33 35L33 36L32 36L32 37L33 37L33 38L34 38L34 39L35 39L35 40L38 40L38 42L39 42L39 45L38 45L38 46L41 46L41 44L42 44L42 43L40 43L40 42L41 42L41 41L42 41L42 39L41 39L41 38L40 38L40 37L41 37L41 36L40 36L40 37L38 37L38 39L35 39L35 37L33 37L33 36L34 36L34 35ZM47 35L47 36L48 36L48 35ZM44 36L44 37L45 37L45 36ZM27 37L27 38L26 38L26 40L28 40L28 39L27 39L27 38L28 38L28 37ZM7 38L7 39L6 39L6 40L7 40L7 39L8 39L8 38ZM54 38L54 39L55 39L55 38ZM38 39L38 40L40 40L40 39ZM1 40L1 42L3 42L3 41L2 41L2 40ZM19 40L19 41L20 41L20 40ZM4 41L4 43L5 43L5 41ZM6 41L6 42L7 42L7 41ZM26 41L26 42L27 42L27 41ZM43 41L43 42L44 42L44 41ZM8 42L8 43L6 43L6 44L8 44L8 43L9 43L9 42ZM51 42L51 43L50 43L50 44L51 44L51 43L53 43L53 42ZM2 43L2 44L3 44L3 47L5 47L5 44L3 44L3 43ZM24 43L24 44L27 44L27 43ZM43 43L43 44L44 44L44 43ZM6 45L6 46L7 46L7 45ZM22 45L22 46L23 46L23 45ZM15 46L15 47L16 47L16 46ZM29 47L29 48L30 48L30 47ZM38 47L38 48L37 48L37 49L38 49L38 48L39 48L39 47ZM6 48L6 49L7 49L7 48ZM54 48L54 49L56 49L56 48ZM27 49L27 52L30 52L30 49ZM49 49L49 52L52 52L52 49ZM28 50L28 51L29 51L29 50ZM50 50L50 51L51 51L51 50ZM54 50L54 51L55 51L55 50ZM53 52L53 53L54 53L54 52ZM50 55L50 56L51 56L51 55ZM53 55L53 56L55 56L55 57L56 57L56 56L55 56L55 55ZM13 56L13 57L14 57L14 56ZM0 0L0 7L7 7L7 0ZM1 1L1 6L6 6L6 1ZM2 2L2 5L5 5L5 2ZM50 0L50 7L57 7L57 0ZM51 1L51 6L56 6L56 1ZM52 2L52 5L55 5L55 2ZM0 50L0 57L7 57L7 50ZM1 51L1 56L6 56L6 51ZM2 52L2 55L5 55L5 52Z" fill="#000000"/></g></g></svg>
