<?xml version="1.0" encoding="UTF-8"?>
<svg xmlns="http://www.w3.org/2000/svg" version="1.1" width="300" height="300" viewBox="0 0 300 300"><rect x="0" y="0" width="300" height="300" fill="#fefefe"/><g transform="scale(4.615)"><g transform="translate(4,4)"><path fill-rule="evenodd" d="M8 0L8 1L10 1L10 0ZM12 0L12 2L11 2L11 3L10 3L10 2L9 2L9 5L10 5L10 7L11 7L11 9L10 9L10 8L9 8L9 6L8 6L8 8L9 8L9 9L8 9L8 11L7 11L7 10L5 10L5 8L3 8L3 9L2 9L2 8L0 8L0 10L1 10L1 9L2 9L2 10L3 10L3 11L0 11L0 13L2 13L2 14L1 14L1 15L0 15L0 20L1 20L1 17L2 17L2 16L1 16L1 15L4 15L4 16L3 16L3 19L4 19L4 18L5 18L5 19L8 19L8 20L11 20L11 19L12 19L12 23L11 23L11 24L12 24L12 25L11 25L11 26L10 26L10 27L9 27L9 25L8 25L8 24L6 24L6 23L8 23L8 22L11 22L11 21L8 21L8 22L6 22L6 21L7 21L7 20L5 20L5 22L4 22L4 24L3 24L3 23L1 23L1 22L3 22L3 21L0 21L0 27L2 27L2 28L0 28L0 29L2 29L2 30L1 30L1 31L2 31L2 30L3 30L3 31L4 31L4 33L3 33L3 34L2 34L2 35L1 35L1 32L0 32L0 37L1 37L1 39L0 39L0 41L2 41L2 42L1 42L1 43L0 43L0 45L1 45L1 46L0 46L0 48L5 48L5 47L8 47L8 48L11 48L11 50L10 50L10 51L9 51L9 52L8 52L8 54L9 54L9 52L10 52L10 54L11 54L11 55L12 55L12 53L13 53L13 54L14 54L14 53L15 53L15 56L14 56L14 55L13 55L13 57L15 57L15 56L16 56L16 57L21 57L21 55L22 55L22 57L25 57L25 56L27 56L27 57L28 57L28 55L29 55L29 56L30 56L30 57L32 57L32 56L30 56L30 54L28 54L28 55L27 55L27 54L26 54L26 55L25 55L25 56L24 56L24 54L23 54L23 53L31 53L31 51L32 51L32 50L34 50L34 49L35 49L35 48L36 48L36 50L35 50L35 51L33 51L33 52L32 52L32 54L33 54L33 55L34 55L34 57L37 57L37 56L38 56L38 57L39 57L39 56L40 56L40 57L41 57L41 56L42 56L42 55L43 55L43 53L44 53L44 56L46 56L46 57L47 57L47 56L48 56L48 55L49 55L49 54L52 54L52 55L53 55L53 56L51 56L51 55L50 55L50 56L49 56L49 57L53 57L53 56L57 56L57 54L55 54L55 51L54 51L54 50L56 50L56 47L57 47L57 46L55 46L55 47L54 47L54 46L53 46L53 45L54 45L54 44L55 44L55 45L57 45L57 44L56 44L56 43L57 43L57 42L56 42L56 43L55 43L55 35L57 35L57 34L55 34L55 33L57 33L57 29L53 29L53 28L57 28L57 27L56 27L56 26L55 26L55 24L56 24L56 25L57 25L57 24L56 24L56 23L57 23L57 22L54 22L54 21L53 21L53 20L55 20L55 21L57 21L57 18L56 18L56 17L57 17L57 16L56 16L56 15L55 15L55 14L56 14L56 13L57 13L57 12L56 12L56 11L57 11L57 8L56 8L56 10L53 10L53 9L51 9L51 8L50 8L50 10L49 10L49 9L48 9L48 8L49 8L49 6L48 6L48 7L47 7L47 5L48 5L48 0L46 0L46 1L45 1L45 0L42 0L42 1L41 1L41 0L38 0L38 1L37 1L37 3L36 3L36 1L35 1L35 0L34 0L34 2L35 2L35 4L37 4L37 5L35 5L35 6L34 6L34 8L33 8L33 6L32 6L32 7L31 7L31 4L33 4L33 2L32 2L32 0L30 0L30 1L31 1L31 2L29 2L29 0L28 0L28 3L26 3L26 2L25 2L25 1L27 1L27 0L24 0L24 1L23 1L23 0L20 0L20 1L22 1L22 2L20 2L20 4L19 4L19 3L18 3L18 2L19 2L19 0L16 0L16 3L13 3L13 2L14 2L14 1L15 1L15 0L14 0L14 1L13 1L13 0ZM38 1L38 3L37 3L37 4L39 4L39 5L37 5L37 7L36 7L36 6L35 6L35 8L37 8L37 9L35 9L35 10L31 10L31 11L30 11L30 13L29 13L29 14L30 14L30 15L31 15L31 14L30 14L30 13L32 13L32 14L33 14L33 13L32 13L32 12L33 12L33 11L35 11L35 10L37 10L37 9L40 9L40 8L41 8L41 7L42 7L42 4L41 4L41 7L40 7L40 4L39 4L39 2L40 2L40 3L41 3L41 2L40 2L40 1ZM46 1L46 2L47 2L47 1ZM22 2L22 3L25 3L25 2ZM42 2L42 3L43 3L43 2ZM11 3L11 4L12 4L12 5L14 5L14 6L13 6L13 7L12 7L12 6L11 6L11 7L12 7L12 8L13 8L13 9L12 9L12 10L13 10L13 9L15 9L15 10L14 10L14 11L13 11L13 13L12 13L12 11L11 11L11 13L10 13L10 14L9 14L9 15L8 15L8 16L7 16L7 15L5 15L5 13L6 13L6 14L8 14L8 13L9 13L9 12L10 12L10 11L8 11L8 12L7 12L7 11L6 11L6 12L4 12L4 11L5 11L5 10L4 10L4 11L3 11L3 13L4 13L4 15L5 15L5 16L4 16L4 17L5 17L5 18L7 18L7 17L9 17L9 18L8 18L8 19L9 19L9 18L10 18L10 19L11 19L11 18L12 18L12 19L13 19L13 20L14 20L14 21L15 21L15 20L16 20L16 19L17 19L17 20L19 20L19 21L16 21L16 22L17 22L17 23L16 23L16 24L17 24L17 25L16 25L16 27L13 27L13 26L14 26L14 24L15 24L15 23L14 23L14 22L13 22L13 23L12 23L12 24L13 24L13 25L12 25L12 26L11 26L11 27L13 27L13 28L12 28L12 29L10 29L10 28L9 28L9 30L12 30L12 29L13 29L13 28L15 28L15 30L16 30L16 27L17 27L17 29L19 29L19 28L21 28L21 26L22 26L22 24L23 24L23 25L24 25L24 24L25 24L25 23L27 23L27 22L28 22L28 24L29 24L29 25L30 25L30 24L31 24L31 26L32 26L32 21L33 21L33 20L34 20L34 21L35 21L35 20L34 20L34 19L31 19L31 18L32 18L32 17L31 17L31 18L30 18L30 16L29 16L29 17L28 17L28 14L27 14L27 12L29 12L29 11L27 11L27 9L26 9L26 8L25 8L25 9L26 9L26 14L27 14L27 17L25 17L25 16L24 16L24 15L25 15L25 14L24 14L24 15L23 15L23 11L24 11L24 13L25 13L25 11L24 11L24 10L23 10L23 11L22 11L22 10L21 10L21 11L19 11L19 14L20 14L20 12L21 12L21 14L22 14L22 15L23 15L23 16L22 16L22 18L21 18L21 17L20 17L20 16L21 16L21 15L19 15L19 17L18 17L18 15L17 15L17 16L16 16L16 15L13 15L13 16L12 16L12 17L11 17L11 15L10 15L10 14L13 14L13 13L15 13L15 14L17 14L17 12L18 12L18 11L17 11L17 10L16 10L16 9L17 9L17 7L18 7L18 6L19 6L19 9L22 9L22 8L24 8L24 5L23 5L23 7L22 7L22 6L21 6L21 7L20 7L20 5L21 5L21 4L20 4L20 5L18 5L18 4L16 4L16 5L18 5L18 6L17 6L17 7L16 7L16 6L15 6L15 5L14 5L14 4L12 4L12 3ZM30 3L30 4L31 4L31 3ZM46 3L46 5L47 5L47 3ZM25 4L25 7L26 7L26 4ZM27 5L27 8L30 8L30 5ZM44 5L44 6L43 6L43 8L42 8L42 9L45 9L45 10L43 10L43 11L42 11L42 13L44 13L44 15L45 15L45 16L46 16L46 17L44 17L44 20L42 20L42 21L45 21L45 23L44 23L44 24L43 24L43 26L42 26L42 23L40 23L40 22L41 22L41 21L40 21L40 19L41 19L41 18L42 18L42 17L43 17L43 16L42 16L42 15L43 15L43 14L41 14L41 13L40 13L40 14L39 14L39 16L38 16L38 15L35 15L35 13L36 13L36 14L38 14L38 13L39 13L39 12L37 12L37 13L36 13L36 12L35 12L35 13L34 13L34 15L32 15L32 16L33 16L33 17L36 17L36 20L37 20L37 21L38 21L38 20L39 20L39 23L40 23L40 24L39 24L39 25L40 25L40 26L42 26L42 29L41 29L41 28L39 28L39 26L38 26L38 23L37 23L37 25L36 25L36 22L34 22L34 23L33 23L33 24L34 24L34 26L33 26L33 29L31 29L31 30L32 30L32 31L30 31L30 32L29 32L29 31L26 31L26 30L24 30L24 29L26 29L26 28L25 28L25 27L24 27L24 26L23 26L23 27L24 27L24 29L23 29L23 28L22 28L22 29L23 29L23 33L25 33L25 34L27 34L27 35L29 35L29 34L27 34L27 33L31 33L31 34L32 34L32 33L35 33L35 32L37 32L37 30L38 30L38 33L39 33L39 35L38 35L38 36L37 36L37 34L36 34L36 36L35 36L35 34L34 34L34 38L33 38L33 37L32 37L32 36L31 36L31 37L30 37L30 36L29 36L29 37L28 37L28 36L25 36L25 37L27 37L27 39L25 39L25 40L24 40L24 39L23 39L23 38L24 38L24 36L23 36L23 35L19 35L19 33L20 33L20 31L19 31L19 33L18 33L18 30L17 30L17 31L16 31L16 32L15 32L15 33L13 33L13 35L12 35L12 32L11 32L11 31L8 31L8 32L7 32L7 31L5 31L5 32L7 32L7 33L6 33L6 34L8 34L8 35L9 35L9 36L8 36L8 37L6 37L6 36L7 36L7 35L6 35L6 36L5 36L5 37L4 37L4 35L5 35L5 33L4 33L4 34L3 34L3 36L1 36L1 37L2 37L2 39L3 39L3 40L2 40L2 41L3 41L3 42L4 42L4 43L3 43L3 45L2 45L2 43L1 43L1 45L2 45L2 46L1 46L1 47L2 47L2 46L3 46L3 47L5 47L5 45L6 45L6 46L7 46L7 45L8 45L8 47L10 47L10 46L9 46L9 45L8 45L8 44L9 44L9 43L10 43L10 45L11 45L11 48L16 48L16 47L17 47L17 49L16 49L16 50L15 50L15 49L13 49L13 50L12 50L12 51L13 51L13 52L14 52L14 51L15 51L15 52L16 52L16 55L17 55L17 54L18 54L18 55L20 55L20 54L22 54L22 55L23 55L23 54L22 54L22 53L23 53L23 52L26 52L26 49L25 49L25 48L27 48L27 47L28 47L28 48L30 48L30 46L31 46L31 47L32 47L32 48L31 48L31 49L32 49L32 48L35 48L35 47L33 47L33 45L35 45L35 46L37 46L37 45L38 45L38 44L39 44L39 45L40 45L40 46L38 46L38 49L37 49L37 50L36 50L36 52L34 52L34 53L35 53L35 54L36 54L36 52L39 52L39 53L37 53L37 55L39 55L39 53L40 53L40 56L41 56L41 54L42 54L42 52L43 52L43 51L42 51L42 50L41 50L41 49L44 49L44 52L45 52L45 53L47 53L47 55L48 55L48 53L47 53L47 52L48 52L48 50L47 50L47 48L49 48L49 47L50 47L50 46L51 46L51 43L50 43L50 42L49 42L49 43L48 43L48 42L46 42L46 43L47 43L47 44L46 44L46 45L47 45L47 46L48 46L48 44L49 44L49 43L50 43L50 46L49 46L49 47L47 47L47 48L46 48L46 49L44 49L44 47L43 47L43 46L42 46L42 47L43 47L43 48L41 48L41 47L40 47L40 46L41 46L41 45L40 45L40 44L42 44L42 43L40 43L40 42L42 42L42 40L39 40L39 39L40 39L40 38L38 38L38 37L39 37L39 36L41 36L41 37L42 37L42 36L43 36L43 37L44 37L44 40L43 40L43 41L44 41L44 43L43 43L43 45L44 45L44 46L45 46L45 44L44 44L44 43L45 43L45 41L44 41L44 40L45 40L45 37L46 37L46 38L48 38L48 37L49 37L49 36L50 36L50 35L49 35L49 34L51 34L51 36L52 36L52 33L53 33L53 34L54 34L54 35L53 35L53 37L52 37L52 38L51 38L51 37L50 37L50 38L49 38L49 39L46 39L46 40L48 40L48 41L49 41L49 40L50 40L50 41L51 41L51 39L52 39L52 40L53 40L53 39L54 39L54 38L53 38L53 37L54 37L54 35L55 35L55 34L54 34L54 33L55 33L55 32L56 32L56 30L53 30L53 31L55 31L55 32L51 32L51 31L48 31L48 32L47 32L47 30L48 30L48 27L46 27L46 28L47 28L47 30L46 30L46 29L44 29L44 28L45 28L45 26L44 26L44 24L46 24L46 20L49 20L49 22L47 22L47 24L51 24L51 26L52 26L52 24L51 24L51 22L53 22L53 25L54 25L54 22L53 22L53 21L52 21L52 20L53 20L53 19L54 19L54 18L55 18L55 19L56 19L56 18L55 18L55 17L54 17L54 16L53 16L53 15L54 15L54 14L52 14L52 13L51 13L51 14L52 14L52 16L51 16L51 15L48 15L48 17L47 17L47 16L46 16L46 15L47 15L47 13L46 13L46 12L48 12L48 13L49 13L49 14L50 14L50 11L51 11L51 12L53 12L53 13L55 13L55 12L54 12L54 11L53 11L53 10L52 10L52 11L51 11L51 10L50 10L50 11L49 11L49 12L48 12L48 10L47 10L47 11L46 11L46 9L47 9L47 7L46 7L46 6L45 6L45 5ZM14 6L14 8L15 8L15 6ZM28 6L28 7L29 7L29 6ZM38 6L38 7L37 7L37 8L38 8L38 7L39 7L39 8L40 8L40 7L39 7L39 6ZM44 6L44 8L46 8L46 7L45 7L45 6ZM6 8L6 9L7 9L7 8ZM31 8L31 9L33 9L33 8ZM38 10L38 11L39 11L39 10ZM14 11L14 12L16 12L16 11ZM31 11L31 12L32 12L32 11ZM40 11L40 12L41 12L41 11ZM6 12L6 13L7 13L7 12ZM44 12L44 13L45 13L45 15L46 15L46 13L45 13L45 12ZM40 14L40 15L41 15L41 14ZM5 16L5 17L7 17L7 16ZM9 16L9 17L10 17L10 18L11 18L11 17L10 17L10 16ZM13 16L13 17L12 17L12 18L13 18L13 19L14 19L14 20L15 20L15 19L16 19L16 18L18 18L18 19L19 19L19 20L21 20L21 19L20 19L20 17L19 17L19 18L18 18L18 17L16 17L16 16ZM23 16L23 17L24 17L24 18L23 18L23 20L22 20L22 21L20 21L20 22L18 22L18 23L24 23L24 21L25 21L25 22L26 22L26 20L28 20L28 21L29 21L29 24L30 24L30 23L31 23L31 20L30 20L30 21L29 21L29 20L28 20L28 19L26 19L26 20L25 20L25 17L24 17L24 16ZM36 16L36 17L37 17L37 19L40 19L40 18L38 18L38 17L37 17L37 16ZM13 17L13 18L14 18L14 17ZM46 17L46 18L47 18L47 19L48 19L48 18L50 18L50 19L51 19L51 18L54 18L54 17L51 17L51 18L50 18L50 17L48 17L48 18L47 18L47 17ZM45 19L45 20L46 20L46 19ZM23 20L23 21L22 21L22 22L23 22L23 21L24 21L24 20ZM50 20L50 22L51 22L51 20ZM5 22L5 23L6 23L6 22ZM1 24L1 26L2 26L2 27L3 27L3 30L4 30L4 27L3 27L3 26L5 26L5 25L6 25L6 26L8 26L8 25L6 25L6 24L4 24L4 25L3 25L3 24ZM18 24L18 25L17 25L17 27L18 27L18 26L21 26L21 25L19 25L19 24ZM40 24L40 25L41 25L41 24ZM2 25L2 26L3 26L3 25ZM25 25L25 26L26 26L26 25ZM46 25L46 26L47 26L47 25ZM49 25L49 26L50 26L50 25ZM35 26L35 27L36 27L36 29L33 29L33 31L32 31L32 32L35 32L35 31L36 31L36 29L39 29L39 28L38 28L38 26L37 26L37 27L36 27L36 26ZM53 26L53 27L54 27L54 26ZM5 27L5 30L8 30L8 27ZM27 27L27 30L30 30L30 27ZM43 27L43 28L44 28L44 27ZM49 27L49 30L52 30L52 27ZM6 28L6 29L7 29L7 28ZM28 28L28 29L29 29L29 28ZM50 28L50 29L51 29L51 28ZM20 29L20 30L21 30L21 34L22 34L22 30L21 30L21 29ZM40 29L40 31L39 31L39 32L40 32L40 33L41 33L41 34L40 34L40 35L41 35L41 36L42 36L42 35L41 35L41 34L44 34L44 37L45 37L45 36L46 36L46 37L48 37L48 36L47 36L47 35L48 35L48 34L47 34L47 32L46 32L46 30L44 30L44 29L42 29L42 30L41 30L41 29ZM34 30L34 31L35 31L35 30ZM42 30L42 31L40 31L40 32L44 32L44 34L45 34L45 35L47 35L47 34L45 34L45 33L46 33L46 32L45 32L45 31L44 31L44 30ZM24 31L24 32L25 32L25 33L26 33L26 31ZM8 32L8 34L10 34L10 32ZM16 32L16 33L15 33L15 34L14 34L14 35L13 35L13 36L14 36L14 37L13 37L13 38L14 38L14 40L15 40L15 38L14 38L14 37L15 37L15 36L16 36L16 37L17 37L17 36L18 36L18 39L19 39L19 40L18 40L18 41L17 41L17 38L16 38L16 45L15 45L15 44L13 44L13 43L14 43L14 42L15 42L15 41L14 41L14 42L13 42L13 39L12 39L12 36L11 36L11 35L10 35L10 36L11 36L11 38L9 38L9 40L8 40L8 39L7 39L7 38L6 38L6 39L5 39L5 38L4 38L4 39L5 39L5 40L4 40L4 42L5 42L5 41L8 41L8 43L7 43L7 42L6 42L6 43L7 43L7 44L6 44L6 45L7 45L7 44L8 44L8 43L9 43L9 41L10 41L10 43L12 43L12 44L13 44L13 45L12 45L12 46L14 46L14 47L15 47L15 46L17 46L17 47L19 47L19 48L18 48L18 49L17 49L17 51L16 51L16 52L17 52L17 51L18 51L18 54L19 54L19 53L21 53L21 52L23 52L23 50L25 50L25 49L23 49L23 48L25 48L25 47L24 47L24 46L25 46L25 45L26 45L26 44L25 44L25 43L27 43L27 40L26 40L26 42L25 42L25 41L24 41L24 40L23 40L23 39L22 39L22 38L23 38L23 36L22 36L22 38L19 38L19 37L21 37L21 36L19 36L19 35L17 35L17 34L18 34L18 33L17 33L17 32ZM48 32L48 33L51 33L51 32ZM36 36L36 37L35 37L35 38L34 38L34 39L38 39L38 38L37 38L37 36ZM28 38L28 45L27 45L27 46L28 46L28 47L29 47L29 46L30 46L30 45L31 45L31 44L32 44L32 43L33 43L33 44L35 44L35 45L37 45L37 43L36 43L36 42L38 42L38 41L39 41L39 42L40 42L40 41L39 41L39 40L36 40L36 42L35 42L35 41L33 41L33 38L32 38L32 40L31 40L31 41L32 41L32 43L31 43L31 42L30 42L30 41L29 41L29 39L31 39L31 38ZM42 38L42 39L43 39L43 38ZM52 38L52 39L53 39L53 38ZM56 38L56 41L57 41L57 38ZM6 39L6 40L7 40L7 39ZM10 39L10 40L12 40L12 39ZM20 39L20 40L19 40L19 41L18 41L18 42L19 42L19 41L20 41L20 44L21 44L21 46L22 46L22 45L24 45L24 44L22 44L22 43L23 43L23 42L24 42L24 43L25 43L25 42L24 42L24 41L23 41L23 40L21 40L21 39ZM20 40L20 41L21 41L21 42L23 42L23 41L21 41L21 40ZM11 41L11 42L12 42L12 43L13 43L13 42L12 42L12 41ZM53 41L53 42L52 42L52 44L53 44L53 42L54 42L54 41ZM29 42L29 44L30 44L30 42ZM4 43L4 45L5 45L5 43ZM39 43L39 44L40 44L40 43ZM17 44L17 45L18 45L18 44ZM14 45L14 46L15 46L15 45ZM19 46L19 47L20 47L20 48L19 48L19 50L18 50L18 51L19 51L19 52L21 52L21 51L22 51L22 48L21 48L21 47L20 47L20 46ZM53 47L53 49L54 49L54 47ZM6 48L6 49L7 49L7 48ZM20 48L20 51L21 51L21 48ZM40 48L40 49L38 49L38 50L37 50L37 51L39 51L39 52L40 52L40 49L41 49L41 48ZM8 49L8 50L9 50L9 49ZM27 49L27 52L30 52L30 49ZM49 49L49 52L52 52L52 49ZM13 50L13 51L14 51L14 50ZM28 50L28 51L29 51L29 50ZM50 50L50 51L51 51L51 50ZM10 51L10 52L11 52L11 51ZM45 51L45 52L46 52L46 51ZM52 53L52 54L54 54L54 55L55 55L55 54L54 54L54 53ZM45 54L45 55L46 55L46 54ZM8 55L8 57L10 57L10 56L9 56L9 55ZM35 55L35 56L36 56L36 55ZM11 56L11 57L12 57L12 56ZM0 0L0 7L7 7L7 0ZM1 1L1 6L6 6L6 1ZM2 2L2 5L5 5L5 2ZM50 0L50 7L57 7L57 0ZM51 1L51 6L56 6L56 1ZM52 2L52 5L55 5L55 2ZM0 50L0 57L7 57L7 50ZM1 51L1 56L6 56L6 51ZM2 52L2 55L5 55L5 52Z" fill="#000000"/></g></g></svg>
