<?xml version="1.0" encoding="UTF-8"?>
<svg xmlns="http://www.w3.org/2000/svg" version="1.1" width="300" height="300" viewBox="0 0 300 300"><rect x="0" y="0" width="300" height="300" fill="#fefefe"/><g transform="scale(4.615)"><g transform="translate(4,4)"><path fill-rule="evenodd" d="M8 0L8 4L9 4L9 5L8 5L8 7L9 7L9 5L10 5L10 4L11 4L11 6L10 6L10 7L11 7L11 6L12 6L12 7L13 7L13 8L12 8L12 9L11 9L11 10L10 10L10 8L9 8L9 11L8 11L8 10L6 10L6 9L7 9L7 8L4 8L4 9L5 9L5 10L4 10L4 11L2 11L2 10L3 10L3 9L2 9L2 8L0 8L0 11L2 11L2 13L1 13L1 14L0 14L0 20L2 20L2 21L1 21L1 22L0 22L0 23L1 23L1 24L0 24L0 25L3 25L3 28L1 28L1 29L0 29L0 30L1 30L1 32L2 32L2 33L3 33L3 31L2 31L2 30L4 30L4 31L5 31L5 32L4 32L4 34L2 34L2 35L5 35L5 32L6 32L6 33L7 33L7 34L6 34L6 35L10 35L10 36L12 36L12 39L11 39L11 37L10 37L10 39L11 39L11 40L12 40L12 41L9 41L9 40L8 40L8 42L12 42L12 43L11 43L11 47L10 47L10 48L8 48L8 50L9 50L9 51L8 51L8 53L11 53L11 54L10 54L10 57L11 57L11 54L12 54L12 55L13 55L13 56L14 56L14 57L15 57L15 55L16 55L16 54L17 54L17 57L20 57L20 56L19 56L19 55L20 55L20 54L23 54L23 55L24 55L24 57L25 57L25 55L26 55L26 53L28 53L28 57L29 57L29 55L30 55L30 57L34 57L34 55L35 55L35 57L37 57L37 56L36 56L36 54L37 54L37 55L40 55L40 54L41 54L41 57L43 57L43 55L44 55L44 53L45 53L45 55L46 55L46 56L47 56L47 55L46 55L46 53L47 53L47 54L49 54L49 57L50 57L50 55L51 55L51 56L53 56L53 57L54 57L54 55L53 55L53 50L54 50L54 51L56 51L56 52L54 52L54 53L55 53L55 54L57 54L57 53L56 53L56 52L57 52L57 51L56 51L56 50L57 50L57 49L56 49L56 45L57 45L57 43L56 43L56 42L57 42L57 40L53 40L53 39L54 39L54 38L55 38L55 39L57 39L57 38L55 38L55 36L56 36L56 37L57 37L57 36L56 36L56 30L55 30L55 29L54 29L54 28L53 28L53 27L54 27L54 26L55 26L55 27L56 27L56 29L57 29L57 27L56 27L56 25L57 25L57 24L56 24L56 21L57 21L57 20L56 20L56 21L55 21L55 22L54 22L54 21L52 21L52 20L53 20L53 19L49 19L49 17L50 17L50 18L51 18L51 17L52 17L52 18L53 18L53 17L52 17L52 16L53 16L53 15L55 15L55 16L56 16L56 17L55 17L55 19L56 19L56 18L57 18L57 15L56 15L56 12L57 12L57 11L56 11L56 10L57 10L57 8L53 8L53 9L52 9L52 8L51 8L51 9L50 9L50 10L51 10L51 9L52 9L52 10L53 10L53 11L54 11L54 10L53 10L53 9L55 9L55 11L56 11L56 12L55 12L55 13L54 13L54 12L53 12L53 13L52 13L52 14L51 14L51 12L52 12L52 11L50 11L50 15L48 15L48 17L47 17L47 18L46 18L46 17L45 17L45 16L47 16L47 15L46 15L46 9L47 9L47 12L49 12L49 11L48 11L48 10L49 10L49 9L48 9L48 8L47 8L47 5L48 5L48 0L46 0L46 1L47 1L47 2L45 2L45 0L41 0L41 1L40 1L40 2L38 2L38 1L39 1L39 0L38 0L38 1L37 1L37 2L36 2L36 0L35 0L35 1L34 1L34 0L32 0L32 1L31 1L31 0L29 0L29 2L30 2L30 1L31 1L31 2L32 2L32 3L31 3L31 4L30 4L30 3L27 3L27 4L26 4L26 3L25 3L25 1L27 1L27 2L28 2L28 0L23 0L23 1L22 1L22 2L21 2L21 0L20 0L20 2L19 2L19 0L17 0L17 2L16 2L16 0L14 0L14 1L12 1L12 0ZM9 1L9 3L10 3L10 1ZM11 1L11 2L12 2L12 1ZM14 1L14 4L15 4L15 5L16 5L16 6L15 6L15 7L16 7L16 6L17 6L17 8L18 8L18 6L19 6L19 7L20 7L20 6L21 6L21 7L22 7L22 6L23 6L23 7L24 7L24 8L22 8L22 9L21 9L21 10L20 10L20 9L19 9L19 10L18 10L18 9L15 9L15 12L14 12L14 11L13 11L13 13L15 13L15 14L17 14L17 15L18 15L18 16L19 16L19 15L20 15L20 16L21 16L21 17L26 17L26 16L27 16L27 15L28 15L28 14L27 14L27 15L26 15L26 13L29 13L29 16L31 16L31 19L30 19L30 18L28 18L28 17L27 17L27 19L26 19L26 20L28 20L28 21L24 21L24 20L25 20L25 18L24 18L24 19L23 19L23 20L22 20L22 19L21 19L21 18L20 18L20 17L19 17L19 18L18 18L18 17L15 17L15 18L14 18L14 15L13 15L13 14L12 14L12 12L11 12L11 11L12 11L12 10L13 10L13 9L14 9L14 8L13 8L13 9L12 9L12 10L11 10L11 11L10 11L10 12L11 12L11 13L10 13L10 14L9 14L9 13L8 13L8 14L7 14L7 13L6 13L6 12L8 12L8 11L6 11L6 12L4 12L4 13L5 13L5 14L3 14L3 13L2 13L2 14L3 14L3 15L2 15L2 16L1 16L1 17L2 17L2 16L3 16L3 19L5 19L5 20L4 20L4 21L3 21L3 22L1 22L1 23L2 23L2 24L3 24L3 25L4 25L4 26L5 26L5 25L6 25L6 26L7 26L7 25L6 25L6 24L8 24L8 23L9 23L9 25L8 25L8 26L9 26L9 27L10 27L10 28L11 28L11 29L12 29L12 30L10 30L10 32L11 32L11 31L13 31L13 32L12 32L12 34L10 34L10 33L9 33L9 31L8 31L8 34L10 34L10 35L13 35L13 37L14 37L14 38L13 38L13 39L14 39L14 40L13 40L13 42L14 42L14 40L15 40L15 39L16 39L16 38L17 38L17 36L20 36L20 35L22 35L22 37L18 37L18 38L19 38L19 39L20 39L20 38L22 38L22 37L23 37L23 39L22 39L22 41L21 41L21 42L20 42L20 41L17 41L17 40L16 40L16 43L15 43L15 44L16 44L16 46L15 46L15 45L13 45L13 44L14 44L14 43L13 43L13 44L12 44L12 45L13 45L13 46L12 46L12 47L11 47L11 48L10 48L10 49L9 49L9 50L10 50L10 51L9 51L9 52L11 52L11 53L13 53L13 54L14 54L14 51L15 51L15 48L16 48L16 46L17 46L17 45L18 45L18 44L19 44L19 46L18 46L18 47L17 47L17 48L18 48L18 47L19 47L19 48L20 48L20 49L19 49L19 50L17 50L17 49L16 49L16 52L15 52L15 53L17 53L17 52L18 52L18 51L21 51L21 52L22 52L22 53L24 53L24 54L25 54L25 53L26 53L26 50L25 50L25 53L24 53L24 52L23 52L23 51L21 51L21 50L22 50L22 49L23 49L23 48L24 48L24 49L25 49L25 48L24 48L24 47L26 47L26 48L27 48L27 47L26 47L26 46L27 46L27 45L26 45L26 46L24 46L24 45L25 45L25 44L24 44L24 45L21 45L21 46L22 46L22 47L21 47L21 48L20 48L20 44L19 44L19 42L20 42L20 43L22 43L22 44L23 44L23 41L25 41L25 40L26 40L26 38L24 38L24 37L23 37L23 35L22 35L22 34L23 34L23 33L25 33L25 32L26 32L26 34L24 34L24 36L25 36L25 37L27 37L27 39L28 39L28 38L29 38L29 39L31 39L31 41L30 41L30 40L28 40L28 43L27 43L27 41L26 41L26 42L25 42L25 43L27 43L27 44L28 44L28 47L30 47L30 48L31 48L31 49L32 49L32 48L31 48L31 46L29 46L29 44L30 44L30 45L32 45L32 47L33 47L33 45L32 45L32 43L33 43L33 44L37 44L37 45L36 45L36 46L35 46L35 45L34 45L34 47L36 47L36 48L37 48L37 46L38 46L38 45L39 45L39 44L37 44L37 43L33 43L33 41L32 41L32 40L33 40L33 39L31 39L31 38L33 38L33 37L32 37L32 36L31 36L31 35L32 35L32 34L30 34L30 36L31 36L31 37L29 37L29 36L28 36L28 34L29 34L29 33L32 33L32 32L33 32L33 36L34 36L34 38L35 38L35 39L34 39L34 42L35 42L35 39L37 39L37 42L38 42L38 39L40 39L40 38L38 38L38 37L41 37L41 36L42 36L42 37L44 37L44 38L43 38L43 39L45 39L45 37L46 37L46 38L47 38L47 39L46 39L46 40L45 40L45 41L46 41L46 42L45 42L45 43L43 43L43 42L44 42L44 41L43 41L43 42L40 42L40 41L41 41L41 40L40 40L40 41L39 41L39 42L40 42L40 43L42 43L42 44L43 44L43 46L44 46L44 44L45 44L45 45L46 45L46 48L45 48L45 47L42 47L42 49L44 49L44 51L45 51L45 53L46 53L46 52L47 52L47 53L48 53L48 52L47 52L47 51L45 51L45 49L46 49L46 50L47 50L47 49L48 49L48 47L49 47L49 48L51 48L51 47L52 47L52 48L53 48L53 47L54 47L54 49L55 49L55 50L56 50L56 49L55 49L55 47L54 47L54 45L56 45L56 44L55 44L55 42L54 42L54 43L53 43L53 41L52 41L52 39L51 39L51 38L50 38L50 35L53 35L53 36L51 36L51 37L52 37L52 38L53 38L53 36L55 36L55 35L53 35L53 34L54 34L54 33L51 33L51 32L50 32L50 31L49 31L49 32L50 32L50 35L49 35L49 33L48 33L48 31L47 31L47 30L48 30L48 28L47 28L47 27L48 27L48 26L47 26L47 24L48 24L48 22L47 22L47 21L46 21L46 22L44 22L44 16L45 16L45 15L44 15L44 14L43 14L43 15L42 15L42 17L43 17L43 18L42 18L42 19L41 19L41 18L40 18L40 17L41 17L41 14L40 14L40 17L39 17L39 15L38 15L38 13L39 13L39 12L40 12L40 13L44 13L44 12L45 12L45 11L44 11L44 10L45 10L45 9L46 9L46 8L45 8L45 7L46 7L46 5L47 5L47 3L44 3L44 2L43 2L43 3L44 3L44 4L43 4L43 7L42 7L42 6L41 6L41 5L39 5L39 8L40 8L40 9L39 9L39 10L38 10L38 6L37 6L37 9L35 9L35 7L36 7L36 5L38 5L38 4L40 4L40 3L42 3L42 2L40 2L40 3L38 3L38 2L37 2L37 3L36 3L36 2L34 2L34 1L32 1L32 2L34 2L34 3L32 3L32 5L35 5L35 7L34 7L34 6L33 6L33 7L32 7L32 6L31 6L31 10L30 10L30 11L31 11L31 12L29 12L29 11L28 11L28 12L27 12L27 11L26 11L26 13L25 13L25 14L24 14L24 15L23 15L23 13L24 13L24 11L23 11L23 9L24 9L24 8L25 8L25 10L28 10L28 9L26 9L26 6L25 6L25 7L24 7L24 6L23 6L23 5L24 5L24 4L25 4L25 3L23 3L23 4L22 4L22 3L19 3L19 2L18 2L18 6L17 6L17 4L16 4L16 3L15 3L15 1ZM11 3L11 4L12 4L12 6L13 6L13 7L14 7L14 6L13 6L13 4L12 4L12 3ZM34 3L34 4L35 4L35 5L36 5L36 4L35 4L35 3ZM37 3L37 4L38 4L38 3ZM44 4L44 7L45 7L45 5L46 5L46 4ZM19 5L19 6L20 6L20 5ZM21 5L21 6L22 6L22 5ZM27 5L27 8L30 8L30 5ZM28 6L28 7L29 7L29 6ZM40 6L40 8L41 8L41 6ZM48 6L48 7L49 7L49 6ZM33 7L33 8L32 8L32 11L33 11L33 10L34 10L34 12L35 12L35 13L36 13L36 14L37 14L37 12L39 12L39 11L38 11L38 10L37 10L37 12L35 12L35 11L36 11L36 10L34 10L34 9L33 9L33 8L34 8L34 7ZM42 8L42 9L41 9L41 10L40 10L40 11L41 11L41 12L43 12L43 11L42 11L42 10L44 10L44 9L45 9L45 8L44 8L44 9L43 9L43 8ZM1 9L1 10L2 10L2 9ZM16 10L16 12L15 12L15 13L17 13L17 14L19 14L19 13L20 13L20 15L22 15L22 16L23 16L23 15L22 15L22 14L21 14L21 13L23 13L23 12L22 12L22 11L21 11L21 13L20 13L20 12L18 12L18 13L17 13L17 11L18 11L18 10ZM19 10L19 11L20 11L20 10ZM32 12L32 13L30 13L30 15L31 15L31 14L32 14L32 17L33 17L33 19L31 19L31 20L30 20L30 21L29 21L29 22L28 22L28 24L27 24L27 22L26 22L26 23L25 23L25 22L24 22L24 21L22 21L22 20L20 20L20 19L19 19L19 20L17 20L17 19L18 19L18 18L17 18L17 19L15 19L15 20L14 20L14 19L13 19L13 15L11 15L11 14L10 14L10 16L8 16L8 17L7 17L7 16L6 16L6 15L7 15L7 14L6 14L6 15L3 15L3 16L5 16L5 17L4 17L4 18L5 18L5 19L10 19L10 20L6 20L6 21L4 21L4 22L3 22L3 23L4 23L4 22L5 22L5 24L4 24L4 25L5 25L5 24L6 24L6 23L8 23L8 22L6 22L6 21L10 21L10 22L9 22L9 23L10 23L10 25L12 25L12 26L11 26L11 28L12 28L12 29L18 29L18 31L17 31L17 30L15 30L15 31L14 31L14 30L13 30L13 31L14 31L14 34L15 34L15 36L14 36L14 37L16 37L16 33L18 33L18 34L19 34L19 32L20 32L20 31L21 31L21 33L20 33L20 34L21 34L21 33L22 33L22 31L23 31L23 32L24 32L24 30L25 30L25 31L26 31L26 32L27 32L27 34L26 34L26 35L25 35L25 36L27 36L27 37L28 37L28 36L27 36L27 34L28 34L28 33L29 33L29 32L32 32L32 31L34 31L34 32L35 32L35 38L37 38L37 39L38 39L38 38L37 38L37 37L38 37L38 36L37 36L37 35L38 35L38 34L39 34L39 33L40 33L40 34L42 34L42 35L44 35L44 37L45 37L45 36L46 36L46 35L48 35L48 36L49 36L49 35L48 35L48 34L46 34L46 33L47 33L47 32L45 32L45 31L46 31L46 30L45 30L45 27L43 27L43 25L41 25L41 26L40 26L40 25L38 25L38 26L39 26L39 27L37 27L37 26L36 26L36 27L35 27L35 29L37 29L37 30L35 30L35 31L34 31L34 27L33 27L33 26L34 26L34 25L37 25L37 24L34 24L34 23L35 23L35 22L37 22L37 23L39 23L39 21L40 21L40 22L41 22L41 24L42 24L42 23L43 23L43 24L44 24L44 26L46 26L46 27L47 27L47 26L46 26L46 23L45 23L45 24L44 24L44 22L43 22L43 20L42 20L42 21L40 21L40 18L39 18L39 17L38 17L38 16L37 16L37 15L35 15L35 17L38 17L38 18L39 18L39 19L37 19L37 18L35 18L35 19L34 19L34 13L33 13L33 12ZM32 13L32 14L33 14L33 13ZM47 13L47 14L49 14L49 13ZM53 13L53 14L52 14L52 15L53 15L53 14L54 14L54 13ZM8 14L8 15L9 15L9 14ZM25 15L25 16L26 16L26 15ZM43 15L43 16L44 16L44 15ZM50 15L50 16L51 16L51 15ZM10 16L10 17L9 17L9 18L10 18L10 19L11 19L11 21L12 21L12 23L11 23L11 22L10 22L10 23L11 23L11 24L14 24L14 23L15 23L15 24L16 24L16 26L15 26L15 25L14 25L14 28L16 28L16 27L18 27L18 26L17 26L17 24L18 24L18 23L19 23L19 25L24 25L24 23L23 23L23 22L20 22L20 23L19 23L19 22L16 22L16 23L15 23L15 22L14 22L14 21L12 21L12 20L13 20L13 19L12 19L12 17L11 17L11 16ZM6 17L6 18L7 18L7 17ZM10 17L10 18L11 18L11 17ZM28 19L28 20L29 20L29 19ZM35 19L35 20L36 20L36 19ZM46 19L46 20L47 20L47 19ZM15 20L15 21L17 21L17 20ZM19 20L19 21L20 21L20 20ZM31 20L31 21L32 21L32 20ZM33 20L33 21L34 21L34 22L35 22L35 21L34 21L34 20ZM38 20L38 21L39 21L39 20ZM49 20L49 21L51 21L51 22L52 22L52 23L53 23L53 24L52 24L52 26L53 26L53 25L54 25L54 24L55 24L55 25L56 25L56 24L55 24L55 23L54 23L54 22L52 22L52 21L51 21L51 20ZM13 22L13 23L14 23L14 22ZM30 22L30 23L29 23L29 24L28 24L28 25L27 25L27 26L29 26L29 25L31 25L31 27L32 27L32 28L31 28L31 30L32 30L32 28L33 28L33 27L32 27L32 23L33 23L33 22ZM49 22L49 23L50 23L50 24L51 24L51 23L50 23L50 22ZM22 23L22 24L23 24L23 23ZM30 23L30 24L31 24L31 23ZM33 24L33 25L34 25L34 24ZM25 25L25 26L23 26L23 28L22 28L22 27L21 27L21 26L20 26L20 27L21 27L21 28L18 28L18 29L19 29L19 31L20 31L20 29L22 29L22 30L21 30L21 31L22 31L22 30L23 30L23 28L24 28L24 27L26 27L26 25ZM49 25L49 26L50 26L50 25ZM0 26L0 27L2 27L2 26ZM5 27L5 30L8 30L8 27ZM12 27L12 28L13 28L13 27ZM27 27L27 30L30 30L30 27ZM36 27L36 28L37 28L37 29L38 29L38 28L37 28L37 27ZM40 27L40 29L39 29L39 32L40 32L40 33L41 33L41 32L40 32L40 30L41 30L41 29L43 29L43 30L44 30L44 28L42 28L42 27ZM49 27L49 30L52 30L52 27ZM6 28L6 29L7 29L7 28ZM28 28L28 29L29 29L29 28ZM46 28L46 29L47 29L47 28ZM50 28L50 29L51 29L51 28ZM25 29L25 30L26 30L26 29ZM37 30L37 32L38 32L38 30ZM54 30L54 31L53 31L53 32L55 32L55 30ZM6 31L6 32L7 32L7 31ZM15 31L15 33L16 33L16 31ZM27 31L27 32L28 32L28 31ZM0 33L0 35L1 35L1 33ZM37 33L37 34L38 34L38 33ZM43 33L43 34L44 34L44 35L46 35L46 34L44 34L44 33ZM39 35L39 36L40 36L40 35ZM0 36L0 44L1 44L1 45L0 45L0 48L5 48L5 47L7 47L7 46L5 46L5 47L3 47L3 46L4 46L4 45L5 45L5 44L6 44L6 45L7 45L7 44L8 44L8 43L7 43L7 42L6 42L6 41L7 41L7 40L6 40L6 41L3 41L3 42L2 42L2 41L1 41L1 39L2 39L2 40L5 40L5 39L2 39L2 38L1 38L1 37L3 37L3 38L5 38L5 36ZM6 36L6 37L7 37L7 36ZM8 36L8 38L6 38L6 39L9 39L9 36ZM48 37L48 38L49 38L49 39L47 39L47 40L46 40L46 41L47 41L47 40L51 40L51 39L50 39L50 38L49 38L49 37ZM14 38L14 39L15 39L15 38ZM41 38L41 39L42 39L42 38ZM23 39L23 40L24 40L24 39ZM31 41L31 43L32 43L32 41ZM48 41L48 43L47 43L47 42L46 42L46 43L47 43L47 44L46 44L46 45L47 45L47 46L48 46L48 45L47 45L47 44L49 44L49 43L50 43L50 45L49 45L49 47L50 47L50 46L52 46L52 47L53 47L53 46L52 46L52 45L54 45L54 44L53 44L53 43L52 43L52 41L51 41L51 43L50 43L50 42L49 42L49 41ZM1 42L1 44L2 44L2 42ZM4 42L4 44L5 44L5 42ZM17 42L17 43L18 43L18 42ZM6 43L6 44L7 44L7 43ZM9 43L9 44L10 44L10 43ZM51 43L51 45L52 45L52 43ZM40 44L40 45L41 45L41 44ZM1 45L1 47L2 47L2 45ZM8 45L8 47L9 47L9 46L10 46L10 45ZM14 46L14 47L15 47L15 46ZM23 46L23 47L22 47L22 48L21 48L21 49L20 49L20 50L21 50L21 49L22 49L22 48L23 48L23 47L24 47L24 46ZM39 46L39 47L38 47L38 49L37 49L37 54L38 54L38 49L39 49L39 47L40 47L40 51L39 51L39 52L40 52L40 53L42 53L42 52L41 52L41 46ZM12 47L12 50L13 50L13 47ZM6 48L6 49L7 49L7 48ZM33 48L33 49L34 49L34 50L32 50L32 51L31 51L31 52L32 52L32 51L33 51L33 52L34 52L34 51L35 51L35 52L36 52L36 49L35 49L35 48ZM44 48L44 49L45 49L45 48ZM46 48L46 49L47 49L47 48ZM10 49L10 50L11 50L11 49ZM27 49L27 52L30 52L30 49ZM49 49L49 52L52 52L52 49ZM28 50L28 51L29 51L29 50ZM42 50L42 51L43 51L43 50ZM50 50L50 51L51 51L51 50ZM12 51L12 52L13 52L13 51ZM19 52L19 53L20 53L20 52ZM43 52L43 53L44 53L44 52ZM30 53L30 54L31 54L31 53ZM32 53L32 54L33 54L33 53ZM34 53L34 54L35 54L35 53ZM49 53L49 54L51 54L51 55L52 55L52 54L51 54L51 53ZM42 54L42 55L43 55L43 54ZM8 55L8 57L9 57L9 55ZM21 55L21 57L22 57L22 55ZM26 56L26 57L27 57L27 56ZM39 56L39 57L40 57L40 56ZM44 56L44 57L45 57L45 56ZM56 56L56 57L57 57L57 56ZM0 0L0 7L7 7L7 0ZM1 1L1 6L6 6L6 1ZM2 2L2 5L5 5L5 2ZM50 0L50 7L57 7L57 0ZM51 1L51 6L56 6L56 1ZM52 2L52 5L55 5L55 2ZM0 50L0 57L7 57L7 50ZM1 51L1 56L6 56L6 51ZM2 52L2 55L5 55L5 52Z" fill="#000000"/></g></g></svg>
