<?xml version="1.0" encoding="UTF-8"?>
<svg xmlns="http://www.w3.org/2000/svg" version="1.1" width="300" height="300" viewBox="0 0 300 300"><rect x="0" y="0" width="300" height="300" fill="#fefefe"/><g transform="scale(4.615)"><g transform="translate(4,4)"><path fill-rule="evenodd" d="M8 0L8 1L9 1L9 2L8 2L8 5L9 5L9 6L8 6L8 7L9 7L9 8L8 8L8 10L9 10L9 9L10 9L10 12L11 12L11 5L10 5L10 4L11 4L11 2L13 2L13 1L14 1L14 0L13 0L13 1L12 1L12 0L11 0L11 1L9 1L9 0ZM18 0L18 1L16 1L16 2L17 2L17 5L15 5L15 4L14 4L14 3L12 3L12 4L14 4L14 5L15 5L15 6L14 6L14 7L13 7L13 5L12 5L12 8L14 8L14 7L15 7L15 6L16 6L16 7L17 7L17 6L18 6L18 7L19 7L19 9L18 9L18 8L17 8L17 9L18 9L18 10L17 10L17 12L16 12L16 13L17 13L17 12L18 12L18 13L19 13L19 15L18 15L18 14L16 14L16 15L15 15L15 11L16 11L16 10L15 10L15 11L14 11L14 10L13 10L13 9L12 9L12 10L13 10L13 11L12 11L12 13L10 13L10 14L9 14L9 13L8 13L8 14L6 14L6 15L4 15L4 14L5 14L5 13L7 13L7 12L6 12L6 11L7 11L7 10L6 10L6 9L7 9L7 8L6 8L6 9L5 9L5 10L4 10L4 8L0 8L0 9L2 9L2 10L1 10L1 11L0 11L0 13L2 13L2 12L3 12L3 10L4 10L4 11L5 11L5 12L4 12L4 14L3 14L3 15L2 15L2 17L1 17L1 18L0 18L0 19L1 19L1 18L2 18L2 20L1 20L1 23L0 23L0 25L1 25L1 27L0 27L0 31L1 31L1 32L2 32L2 33L3 33L3 31L2 31L2 30L4 30L4 31L7 31L7 32L6 32L6 33L4 33L4 34L1 34L1 33L0 33L0 34L1 34L1 35L0 35L0 36L3 36L3 38L2 38L2 39L1 39L1 38L0 38L0 40L2 40L2 41L0 41L0 42L1 42L1 43L2 43L2 44L3 44L3 45L1 45L1 46L0 46L0 48L5 48L5 47L7 47L7 48L6 48L6 49L8 49L8 50L9 50L9 51L10 51L10 52L11 52L11 51L10 51L10 50L9 50L9 49L8 49L8 47L9 47L9 48L10 48L10 47L9 47L9 46L11 46L11 48L12 48L12 47L14 47L14 49L13 49L13 52L16 52L16 48L17 48L17 49L19 49L19 50L20 50L20 52L19 52L19 55L20 55L20 56L21 56L21 57L23 57L23 54L25 54L25 53L29 53L29 54L31 54L31 55L30 55L30 56L31 56L31 57L32 57L32 55L34 55L34 56L33 56L33 57L36 57L36 55L38 55L38 57L42 57L42 56L43 56L43 55L44 55L44 56L46 56L46 57L47 57L47 56L48 56L48 55L49 55L49 57L51 57L51 54L52 54L52 53L54 53L54 54L53 54L53 56L52 56L52 57L55 57L55 56L54 56L54 55L55 55L55 54L56 54L56 53L57 53L57 51L56 51L56 49L57 49L57 48L56 48L56 49L55 49L55 48L54 48L54 47L57 47L57 45L56 45L56 46L55 46L55 44L52 44L52 43L53 43L53 42L54 42L54 43L56 43L56 44L57 44L57 43L56 43L56 42L54 42L54 41L53 41L53 40L55 40L55 39L53 39L53 38L52 38L52 36L53 36L53 37L55 37L55 38L56 38L56 39L57 39L57 38L56 38L56 37L55 37L55 36L54 36L54 35L56 35L56 36L57 36L57 34L55 34L55 33L57 33L57 31L56 31L56 30L57 30L57 29L56 29L56 30L55 30L55 33L54 33L54 32L53 32L53 31L54 31L54 30L53 30L53 28L54 28L54 29L55 29L55 27L53 27L53 26L51 26L51 24L54 24L54 25L56 25L56 24L54 24L54 23L57 23L57 21L56 21L56 20L57 20L57 19L55 19L55 17L56 17L56 18L57 18L57 15L53 15L53 16L55 16L55 17L54 17L54 18L52 18L52 19L55 19L55 20L54 20L54 21L53 21L53 20L50 20L50 19L51 19L51 18L50 18L50 19L49 19L49 18L48 18L48 17L49 17L49 16L50 16L50 17L52 17L52 16L50 16L50 15L51 15L51 13L52 13L52 14L54 14L54 10L53 10L53 9L55 9L55 8L52 8L52 9L51 9L51 10L53 10L53 13L52 13L52 12L51 12L51 11L49 11L49 16L48 16L48 14L47 14L47 17L45 17L45 16L46 16L46 15L45 15L45 14L46 14L46 13L44 13L44 10L45 10L45 11L47 11L47 12L48 12L48 11L47 11L47 10L50 10L50 8L47 8L47 10L45 10L45 9L46 9L46 7L47 7L47 5L48 5L48 0L45 0L45 1L44 1L44 2L41 2L41 1L43 1L43 0L41 0L41 1L40 1L40 0L39 0L39 1L40 1L40 2L41 2L41 3L43 3L43 5L45 5L45 4L44 4L44 3L45 3L45 1L47 1L47 2L46 2L46 3L47 3L47 5L46 5L46 7L45 7L45 6L44 6L44 7L43 7L43 6L42 6L42 7L43 7L43 8L45 8L45 9L44 9L44 10L43 10L43 9L41 9L41 8L40 8L40 7L41 7L41 4L38 4L38 3L39 3L39 2L38 2L38 3L37 3L37 1L38 1L38 0L37 0L37 1L36 1L36 0L35 0L35 1L34 1L34 2L35 2L35 4L36 4L36 5L37 5L37 6L36 6L36 7L35 7L35 6L34 6L34 4L33 4L33 6L32 6L32 5L31 5L31 4L32 4L32 3L33 3L33 0L32 0L32 1L31 1L31 0L29 0L29 2L28 2L28 0L27 0L27 3L29 3L29 4L26 4L26 2L24 2L24 3L23 3L23 6L22 6L22 4L21 4L21 5L20 5L20 4L19 4L19 3L18 3L18 2L21 2L21 3L22 3L22 0L21 0L21 1L20 1L20 0ZM23 0L23 1L26 1L26 0ZM30 1L30 4L31 4L31 1ZM35 1L35 2L36 2L36 1ZM9 2L9 3L10 3L10 2ZM24 4L24 6L23 6L23 7L22 7L22 6L21 6L21 7L20 7L20 6L19 6L19 7L20 7L20 10L18 10L18 12L19 12L19 11L20 11L20 10L23 10L23 9L24 9L24 8L25 8L25 9L26 9L26 6L25 6L25 5L26 5L26 4ZM27 5L27 8L30 8L30 5ZM38 5L38 6L37 6L37 8L36 8L36 9L34 9L34 6L33 6L33 8L32 8L32 6L31 6L31 9L32 9L32 10L30 10L30 11L29 11L29 10L28 10L28 11L27 11L27 10L26 10L26 11L25 11L25 13L22 13L22 12L24 12L24 11L21 11L21 12L20 12L20 13L21 13L21 15L19 15L19 16L18 16L18 15L16 15L16 16L15 16L15 15L14 15L14 13L12 13L12 15L14 15L14 16L15 16L15 17L13 17L13 16L12 16L12 17L13 17L13 18L11 18L11 22L10 22L10 21L9 21L9 20L10 20L10 19L9 19L9 20L8 20L8 18L10 18L10 17L11 17L11 16L10 16L10 15L11 15L11 14L10 14L10 15L9 15L9 14L8 14L8 15L9 15L9 17L6 17L6 16L7 16L7 15L6 15L6 16L5 16L5 17L6 17L6 18L7 18L7 19L6 19L6 20L5 20L5 21L4 21L4 22L3 22L3 24L2 24L2 23L1 23L1 24L2 24L2 25L3 25L3 26L4 26L4 25L5 25L5 26L7 26L7 25L9 25L9 27L10 27L10 29L9 29L9 33L6 33L6 34L8 34L8 35L5 35L5 37L6 37L6 38L5 38L5 39L4 39L4 40L3 40L3 39L2 39L2 40L3 40L3 41L4 41L4 42L2 42L2 43L5 43L5 44L4 44L4 45L3 45L3 47L5 47L5 46L7 46L7 47L8 47L8 46L9 46L9 43L8 43L8 42L9 42L9 41L10 41L10 42L12 42L12 43L11 43L11 46L13 46L13 45L12 45L12 43L13 43L13 42L14 42L14 41L17 41L17 42L15 42L15 43L14 43L14 44L15 44L15 43L17 43L17 45L14 45L14 46L16 46L16 47L15 47L15 48L16 48L16 47L17 47L17 48L18 48L18 47L22 47L22 46L23 46L23 44L24 44L24 45L25 45L25 47L24 47L24 49L23 49L23 48L21 48L21 50L22 50L22 49L23 49L23 51L22 51L22 54L21 54L21 53L20 53L20 55L22 55L22 54L23 54L23 52L24 52L24 53L25 53L25 52L26 52L26 49L25 49L25 48L27 48L27 47L29 47L29 48L31 48L31 46L29 46L29 45L31 45L31 43L29 43L29 44L28 44L28 45L27 45L27 42L25 42L25 41L26 41L26 39L27 39L27 38L29 38L29 36L32 36L32 38L30 38L30 39L28 39L28 40L27 40L27 41L30 41L30 42L31 42L31 40L33 40L33 39L32 39L32 38L33 38L33 37L34 37L34 38L36 38L36 39L35 39L35 40L34 40L34 41L36 41L36 42L34 42L34 43L36 43L36 45L35 45L35 44L34 44L34 45L33 45L33 42L32 42L32 47L33 47L33 48L32 48L32 49L31 49L31 50L33 50L33 48L34 48L34 50L35 50L35 48L37 48L37 49L36 49L36 50L37 50L37 49L38 49L38 48L39 48L39 49L40 49L40 50L39 50L39 51L36 51L36 52L35 52L35 51L33 51L33 53L36 53L36 54L34 54L34 55L36 55L36 54L37 54L37 52L40 52L40 54L41 54L41 53L42 53L42 54L43 54L43 53L42 53L42 51L43 51L43 47L44 47L44 45L45 45L45 48L44 48L44 51L45 51L45 54L44 54L44 55L46 55L46 56L47 56L47 55L46 55L46 51L47 51L47 52L48 52L48 48L47 48L47 47L46 47L46 46L47 46L47 45L48 45L48 44L43 44L43 43L42 43L42 45L43 45L43 47L40 47L40 46L39 46L39 45L38 45L38 44L41 44L41 43L38 43L38 44L37 44L37 42L41 42L41 40L43 40L43 41L42 41L42 42L45 42L45 43L47 43L47 42L48 42L48 43L49 43L49 44L51 44L51 42L50 42L50 41L52 41L52 40L53 40L53 39L51 39L51 37L50 37L50 36L48 36L48 35L49 35L49 34L50 34L50 33L49 33L49 32L52 32L52 34L54 34L54 33L53 33L53 32L52 32L52 31L49 31L49 32L48 32L48 30L47 30L47 31L46 31L46 33L45 33L45 30L46 30L46 26L47 26L47 27L48 27L48 26L49 26L49 25L50 25L50 24L49 24L49 25L48 25L48 23L52 23L52 22L51 22L51 21L50 21L50 20L49 20L49 19L48 19L48 18L45 18L45 17L42 17L42 14L44 14L44 13L43 13L43 12L42 12L42 11L43 11L43 10L41 10L41 9L40 9L40 10L39 10L39 9L38 9L38 10L37 10L37 8L39 8L39 7L40 7L40 5ZM9 6L9 7L10 7L10 6ZM24 6L24 7L23 7L23 8L22 8L22 7L21 7L21 9L23 9L23 8L24 8L24 7L25 7L25 6ZM28 6L28 7L29 7L29 6ZM38 6L38 7L39 7L39 6ZM48 6L48 7L49 7L49 6ZM15 8L15 9L16 9L16 8ZM56 8L56 9L57 9L57 8ZM33 10L33 14L30 14L30 13L28 13L28 12L26 12L26 14L24 14L24 15L23 15L23 18L24 18L24 19L25 19L25 22L24 22L24 21L23 21L23 20L22 20L22 19L20 19L20 20L21 20L21 21L22 21L22 22L23 22L23 23L21 23L21 22L19 22L19 24L17 24L17 25L19 25L19 26L16 26L16 25L15 25L15 24L16 24L16 23L17 23L17 22L18 22L18 21L17 21L17 20L16 20L16 23L15 23L15 24L14 24L14 25L13 25L13 24L12 24L12 23L11 23L11 25L13 25L13 26L12 26L12 27L13 27L13 28L11 28L11 29L13 29L13 33L14 33L14 34L13 34L13 35L12 35L12 36L11 36L11 37L15 37L15 36L14 36L14 35L15 35L15 33L16 33L16 30L17 30L17 28L15 28L15 27L13 27L13 26L16 26L16 27L19 27L19 26L22 26L22 27L23 27L23 25L25 25L25 26L24 26L24 27L25 27L25 28L26 28L26 30L24 30L24 28L23 28L23 29L21 29L21 30L20 30L20 28L21 28L21 27L20 27L20 28L18 28L18 29L19 29L19 30L20 30L20 31L21 31L21 30L24 30L24 31L22 31L22 32L20 32L20 33L18 33L18 32L19 32L19 31L17 31L17 33L18 33L18 34L17 34L17 37L19 37L19 41L18 41L18 43L19 43L19 44L21 44L21 46L22 46L22 44L23 44L23 42L24 42L24 41L25 41L25 39L24 39L24 37L26 37L26 38L27 38L27 36L29 36L29 35L30 35L30 34L32 34L32 33L31 33L31 29L33 29L33 31L35 31L35 34L34 34L34 33L33 33L33 35L32 35L32 36L34 36L34 35L36 35L36 36L35 36L35 37L37 37L37 39L38 39L38 40L37 40L37 41L40 41L40 39L43 39L43 40L44 40L44 41L45 41L45 42L47 42L47 41L50 41L50 40L51 40L51 39L50 39L50 37L47 37L47 35L48 35L48 34L47 34L47 35L46 35L46 34L45 34L45 33L44 33L44 31L41 31L41 32L40 32L40 31L39 31L39 30L40 30L40 28L39 28L39 27L38 27L38 26L40 26L40 27L41 27L41 30L42 30L42 29L45 29L45 27L44 27L44 23L45 23L45 24L46 24L46 25L45 25L45 26L46 26L46 25L47 25L47 22L49 22L49 21L48 21L48 20L47 20L47 19L45 19L45 18L44 18L44 19L45 19L45 22L44 22L44 21L41 21L41 18L42 18L42 19L43 19L43 18L42 18L42 17L41 17L41 18L39 18L39 19L40 19L40 20L39 20L39 24L38 24L38 23L37 23L37 24L36 24L36 23L35 23L35 24L33 24L33 22L32 22L32 23L31 23L31 20L32 20L32 18L31 18L31 20L30 20L30 21L29 21L29 19L30 19L30 17L29 17L29 16L31 16L31 17L33 17L33 18L35 18L35 17L34 17L34 16L35 16L35 15L36 15L36 13L37 13L37 15L39 15L39 17L40 17L40 16L41 16L41 13L40 13L40 15L39 15L39 10L38 10L38 12L36 12L36 10L35 10L35 11L34 11L34 10ZM40 10L40 11L41 11L41 10ZM55 10L55 12L56 12L56 13L57 13L57 10ZM1 11L1 12L2 12L2 11ZM8 11L8 12L9 12L9 11ZM30 11L30 12L31 12L31 13L32 13L32 11ZM34 12L34 14L33 14L33 15L31 15L31 16L33 16L33 15L35 15L35 12ZM50 12L50 13L51 13L51 12ZM0 15L0 16L1 16L1 15ZM24 15L24 16L25 16L25 17L24 17L24 18L25 18L25 17L27 17L27 20L26 20L26 21L27 21L27 20L28 20L28 18L29 18L29 17L27 17L27 15L26 15L26 16L25 16L25 15ZM28 15L28 16L29 16L29 15ZM44 15L44 16L45 16L45 15ZM3 16L3 17L4 17L4 16ZM15 17L15 19L12 19L12 20L13 20L13 21L12 21L12 22L14 22L14 20L15 20L15 19L16 19L16 18L17 18L17 19L18 19L18 18L17 18L17 17ZM21 17L21 18L22 18L22 17ZM36 17L36 18L37 18L37 17ZM4 18L4 19L5 19L5 18ZM34 19L34 21L35 21L35 22L38 22L38 21L36 21L36 20L38 20L38 19L36 19L36 20L35 20L35 19ZM2 20L2 21L3 21L3 20ZM6 20L6 21L5 21L5 22L4 22L4 24L6 24L6 25L7 25L7 24L9 24L9 25L10 25L10 24L9 24L9 21L7 21L7 20ZM6 21L6 22L5 22L5 23L6 23L6 24L7 24L7 23L6 23L6 22L7 22L7 21ZM28 21L28 23L27 23L27 22L25 22L25 25L27 25L27 26L28 26L28 25L29 25L29 24L28 24L28 23L30 23L30 22L29 22L29 21ZM46 21L46 22L47 22L47 21ZM54 21L54 22L53 22L53 23L54 23L54 22L56 22L56 21ZM42 22L42 23L40 23L40 24L39 24L39 25L40 25L40 26L43 26L43 25L41 25L41 24L43 24L43 22ZM20 23L20 24L21 24L21 23ZM26 23L26 24L27 24L27 23ZM22 24L22 25L23 25L23 24ZM32 24L32 25L33 25L33 24ZM30 25L30 26L31 26L31 25ZM34 25L34 27L35 27L35 25ZM10 26L10 27L11 27L11 26ZM1 27L1 28L2 28L2 27ZM5 27L5 30L8 30L8 27ZM27 27L27 30L30 30L30 27ZM32 27L32 28L33 28L33 27ZM42 27L42 28L43 28L43 27ZM49 27L49 30L52 30L52 27ZM56 27L56 28L57 28L57 27ZM3 28L3 29L4 29L4 28ZM6 28L6 29L7 29L7 28ZM13 28L13 29L14 29L14 30L16 30L16 29L15 29L15 28ZM28 28L28 29L29 29L29 28ZM34 28L34 29L37 29L37 28ZM50 28L50 29L51 29L51 28ZM38 29L38 30L36 30L36 31L37 31L37 32L36 32L36 33L37 33L37 32L38 32L38 34L39 34L39 31L38 31L38 30L39 30L39 29ZM25 31L25 32L28 32L28 33L27 33L27 34L26 34L26 33L25 33L25 34L24 34L24 35L23 35L23 33L24 33L24 32L23 32L23 33L22 33L22 35L20 35L20 34L21 34L21 33L20 33L20 34L19 34L19 35L18 35L18 36L19 36L19 37L20 37L20 38L21 38L21 40L22 40L22 41L19 41L19 43L21 43L21 44L22 44L22 41L23 41L23 40L24 40L24 39L22 39L22 37L23 37L23 36L27 36L27 34L28 34L28 35L29 35L29 33L30 33L30 31L29 31L29 32L28 32L28 31ZM10 32L10 33L9 33L9 34L12 34L12 32ZM42 32L42 33L43 33L43 32ZM25 34L25 35L26 35L26 34ZM41 34L41 35L39 35L39 36L40 36L40 37L41 37L41 35L42 35L42 36L43 36L43 35L44 35L44 34L43 34L43 35L42 35L42 34ZM3 35L3 36L4 36L4 35ZM8 35L8 36L6 36L6 37L8 37L8 38L6 38L6 39L5 39L5 41L7 41L7 40L6 40L6 39L8 39L8 38L10 38L10 41L11 41L11 40L13 40L13 41L14 41L14 40L16 40L16 39L17 39L17 38L15 38L15 39L14 39L14 38L12 38L12 39L11 39L11 38L10 38L10 35ZM19 35L19 36L20 36L20 35ZM45 35L45 36L44 36L44 37L42 37L42 38L44 38L44 39L45 39L45 40L46 40L46 38L47 38L47 37L46 37L46 35ZM51 35L51 36L52 36L52 35ZM8 36L8 37L9 37L9 36ZM37 36L37 37L38 37L38 36ZM45 37L45 38L46 38L46 37ZM38 38L38 39L39 39L39 38ZM47 39L47 40L49 40L49 39ZM56 40L56 41L57 41L57 40ZM5 42L5 43L7 43L7 44L5 44L5 45L7 45L7 46L8 46L8 43L7 43L7 42ZM49 42L49 43L50 43L50 42ZM25 43L25 45L26 45L26 46L27 46L27 45L26 45L26 43ZM17 45L17 47L18 47L18 46L20 46L20 45ZM36 45L36 46L34 46L34 48L35 48L35 47L36 47L36 46L37 46L37 47L38 47L38 45ZM49 45L49 46L48 46L48 47L49 47L49 48L50 48L50 46L51 46L51 47L52 47L52 46L53 46L53 47L54 47L54 46L53 46L53 45ZM1 46L1 47L2 47L2 46ZM41 48L41 49L42 49L42 48ZM14 49L14 51L15 51L15 49ZM27 49L27 52L30 52L30 49ZM49 49L49 52L52 52L52 49ZM53 49L53 50L55 50L55 49ZM24 50L24 51L25 51L25 50ZM28 50L28 51L29 51L29 50ZM45 50L45 51L46 51L46 50ZM50 50L50 51L51 51L51 50ZM17 51L17 52L18 52L18 51ZM31 51L31 53L32 53L32 51ZM40 51L40 52L41 52L41 51ZM55 51L55 52L54 52L54 53L55 53L55 52L56 52L56 51ZM8 53L8 57L9 57L9 56L10 56L10 57L12 57L12 56L13 56L13 57L15 57L15 56L16 56L16 57L18 57L18 56L17 56L17 54L18 54L18 53L17 53L17 54L16 54L16 53L15 53L15 54L14 54L14 56L13 56L13 55L12 55L12 53L10 53L10 54L9 54L9 53ZM38 53L38 54L39 54L39 53ZM47 53L47 54L50 54L50 53ZM10 55L10 56L12 56L12 55ZM24 55L24 56L25 56L25 55ZM27 55L27 56L28 56L28 55ZM56 55L56 56L57 56L57 55ZM0 0L0 7L7 7L7 0ZM1 1L1 6L6 6L6 1ZM2 2L2 5L5 5L5 2ZM50 0L50 7L57 7L57 0ZM51 1L51 6L56 6L56 1ZM52 2L52 5L55 5L55 2ZM0 50L0 57L7 57L7 50ZM1 51L1 56L6 56L6 51ZM2 52L2 55L5 55L5 52Z" fill="#000000"/></g></g></svg>
