<?xml version="1.0" encoding="UTF-8"?>
<svg xmlns="http://www.w3.org/2000/svg" version="1.1" width="300" height="300" viewBox="0 0 300 300"><rect x="0" y="0" width="300" height="300" fill="#fefefe"/><g transform="scale(4.615)"><g transform="translate(4,4)"><path fill-rule="evenodd" d="M8 0L8 1L9 1L9 2L8 2L8 5L10 5L10 4L11 4L11 2L12 2L12 4L14 4L14 5L13 5L13 6L12 6L12 7L11 7L11 6L10 6L10 11L9 11L9 8L8 8L8 9L7 9L7 8L6 8L6 9L4 9L4 8L0 8L0 10L1 10L1 9L3 9L3 10L2 10L2 11L1 11L1 12L0 12L0 20L1 20L1 21L0 21L0 25L1 25L1 26L0 26L0 27L1 27L1 28L0 28L0 31L2 31L2 32L0 32L0 33L3 33L3 31L5 31L5 32L4 32L4 35L5 35L5 33L7 33L7 32L8 32L8 31L9 31L9 32L10 32L10 31L12 31L12 32L15 32L15 31L16 31L16 33L18 33L18 34L15 34L15 33L14 33L14 34L13 34L13 33L12 33L12 34L13 34L13 37L12 37L12 36L11 36L11 33L9 33L9 35L10 35L10 37L8 37L8 39L7 39L7 38L6 38L6 39L5 39L5 40L4 40L4 38L3 38L3 39L2 39L2 38L1 38L1 39L2 39L2 40L1 40L1 41L2 41L2 40L4 40L4 41L3 41L3 42L2 42L2 43L1 43L1 42L0 42L0 43L1 43L1 44L0 44L0 45L1 45L1 46L0 46L0 48L5 48L5 47L7 47L7 46L5 46L5 45L9 45L9 46L10 46L10 47L11 47L11 49L12 49L12 51L11 51L11 52L10 52L10 51L9 51L9 53L8 53L8 57L9 57L9 56L10 56L10 57L12 57L12 56L11 56L11 55L14 55L14 57L15 57L15 56L16 56L16 57L18 57L18 56L19 56L19 57L20 57L20 56L21 56L21 57L23 57L23 54L25 54L25 55L24 55L24 56L26 56L26 54L25 54L25 53L29 53L29 54L31 54L31 55L30 55L30 56L31 56L31 57L32 57L32 55L33 55L33 54L36 54L36 55L34 55L34 56L33 56L33 57L36 57L36 55L37 55L37 54L36 54L36 53L35 53L35 52L36 52L36 51L39 51L39 50L40 50L40 49L39 49L39 48L38 48L38 49L37 49L37 48L35 48L35 46L34 46L34 47L33 47L33 45L34 45L34 44L35 44L35 45L36 45L36 47L38 47L38 45L41 45L41 46L39 46L39 47L43 47L43 51L42 51L42 52L41 52L41 51L40 51L40 52L39 52L39 54L38 54L38 57L42 57L42 56L43 56L43 55L44 55L44 56L45 56L45 57L46 57L46 55L47 55L47 56L48 56L48 57L51 57L51 54L52 54L52 53L53 53L53 56L52 56L52 57L55 57L55 56L54 56L54 55L55 55L55 54L56 54L56 53L54 53L54 52L55 52L55 50L57 50L57 48L56 48L56 49L55 49L55 48L54 48L54 47L57 47L57 45L56 45L56 46L55 46L55 44L52 44L52 43L53 43L53 42L54 42L54 43L56 43L56 44L57 44L57 43L56 43L56 42L54 42L54 40L55 40L55 38L56 38L56 39L57 39L57 38L56 38L56 35L57 35L57 34L55 34L55 33L57 33L57 31L56 31L56 30L57 30L57 27L56 27L56 30L55 30L55 33L54 33L54 32L53 32L53 31L54 31L54 29L55 29L55 27L53 27L53 26L52 26L52 25L49 25L49 20L50 20L50 21L51 21L51 22L52 22L52 24L54 24L54 25L56 25L56 24L54 24L54 23L57 23L57 21L56 21L56 20L54 20L54 21L56 21L56 22L53 22L53 20L50 20L50 18L48 18L48 14L47 14L47 16L46 16L46 15L45 15L45 16L44 16L44 14L46 14L46 13L44 13L44 12L43 12L43 11L44 11L44 10L45 10L45 11L47 11L47 12L48 12L48 11L47 11L47 10L50 10L50 11L49 11L49 16L50 16L50 17L52 17L52 15L51 15L51 13L52 13L52 14L54 14L54 15L53 15L53 16L55 16L55 17L54 17L54 18L52 18L52 19L56 19L56 18L55 18L55 17L57 17L57 15L55 15L55 13L57 13L57 12L55 12L55 13L54 13L54 10L53 10L53 9L55 9L55 11L57 11L57 10L56 10L56 9L57 9L57 8L56 8L56 9L55 9L55 8L52 8L52 10L50 10L50 8L49 8L49 6L48 6L48 8L47 8L47 5L48 5L48 0L45 0L45 1L44 1L44 2L42 2L42 3L41 3L41 4L37 4L37 1L38 1L38 0L37 0L37 1L36 1L36 0L35 0L35 1L34 1L34 3L35 3L35 4L36 4L36 5L37 5L37 6L36 6L36 7L35 7L35 6L34 6L34 5L33 5L33 6L32 6L32 5L31 5L31 4L32 4L32 3L33 3L33 0L32 0L32 2L30 2L30 1L31 1L31 0L29 0L29 1L28 1L28 2L27 2L27 3L29 3L29 2L30 2L30 3L31 3L31 4L26 4L26 0L23 0L23 1L25 1L25 2L24 2L24 3L23 3L23 5L22 5L22 4L21 4L21 5L20 5L20 4L19 4L19 3L18 3L18 2L19 2L19 1L20 1L20 0L18 0L18 2L17 2L17 5L15 5L15 4L14 4L14 3L13 3L13 2L12 2L12 1L11 1L11 2L10 2L10 0ZM13 0L13 1L14 1L14 0ZM21 0L21 2L20 2L20 3L22 3L22 0ZM39 0L39 1L40 1L40 2L41 2L41 1L43 1L43 0L41 0L41 1L40 1L40 0ZM15 1L15 3L16 3L16 1ZM35 1L35 2L36 2L36 1ZM46 1L46 2L45 2L45 3L44 3L44 4L45 4L45 5L43 5L43 4L42 4L42 5L43 5L43 10L41 10L41 9L42 9L42 8L41 8L41 7L42 7L42 6L41 6L41 7L40 7L40 5L38 5L38 6L37 6L37 8L36 8L36 9L34 9L34 6L33 6L33 8L32 8L32 6L31 6L31 9L32 9L32 10L31 10L31 12L30 12L30 11L28 11L28 10L26 10L26 11L25 11L25 10L24 10L24 9L21 9L21 8L22 8L22 5L21 5L21 7L20 7L20 6L19 6L19 7L20 7L20 8L18 8L18 9L17 9L17 7L18 7L18 5L19 5L19 4L18 4L18 5L17 5L17 7L16 7L16 6L15 6L15 8L14 8L14 6L13 6L13 7L12 7L12 9L13 9L13 10L14 10L14 11L15 11L15 15L14 15L14 13L13 13L13 11L12 11L12 12L11 12L11 11L10 11L10 12L11 12L11 13L10 13L10 14L9 14L9 13L6 13L6 12L7 12L7 11L6 11L6 10L7 10L7 9L6 9L6 10L5 10L5 14L4 14L4 12L3 12L3 11L2 11L2 12L1 12L1 13L2 13L2 14L1 14L1 16L2 16L2 17L1 17L1 20L2 20L2 22L1 22L1 25L3 25L3 23L2 23L2 22L3 22L3 20L5 20L5 18L3 18L3 19L2 19L2 17L6 17L6 18L7 18L7 19L6 19L6 20L7 20L7 21L6 21L6 22L4 22L4 26L3 26L3 28L4 28L4 26L7 26L7 25L6 25L6 24L8 24L8 23L10 23L10 24L11 24L11 25L10 25L10 26L9 26L9 27L10 27L10 28L9 28L9 29L10 29L10 30L14 30L14 31L15 31L15 30L16 30L16 29L14 29L14 28L13 28L13 23L14 23L14 22L15 22L15 23L16 23L16 26L15 26L15 28L17 28L17 31L19 31L19 32L18 32L18 33L19 33L19 32L20 32L20 34L18 34L18 35L17 35L17 36L16 36L16 35L14 35L14 38L13 38L13 39L11 39L11 37L10 37L10 38L9 38L9 39L8 39L8 40L7 40L7 39L6 39L6 40L7 40L7 41L5 41L5 42L3 42L3 43L2 43L2 44L1 44L1 45L2 45L2 44L3 44L3 45L5 45L5 44L3 44L3 43L6 43L6 44L8 44L8 41L12 41L12 42L11 42L11 43L10 43L10 42L9 42L9 44L10 44L10 46L13 46L13 45L14 45L14 46L15 46L15 48L14 48L14 47L12 47L12 49L15 49L15 50L19 50L19 52L18 52L18 51L16 51L16 52L15 52L15 51L13 51L13 52L15 52L15 53L16 53L16 54L17 54L17 55L19 55L19 56L20 56L20 55L22 55L22 54L23 54L23 52L24 52L24 53L25 53L25 52L26 52L26 51L24 51L24 50L26 50L26 48L27 48L27 46L28 46L28 47L30 47L30 48L31 48L31 47L32 47L32 45L33 45L33 42L32 42L32 43L29 43L29 42L25 42L25 41L26 41L26 39L25 39L25 38L29 38L29 36L32 36L32 38L30 38L30 39L28 39L28 41L29 41L29 40L30 40L30 41L31 41L31 40L33 40L33 39L34 39L34 38L36 38L36 39L35 39L35 40L34 40L34 41L36 41L36 42L34 42L34 43L36 43L36 45L38 45L38 44L40 44L40 42L39 42L39 41L37 41L37 40L38 40L38 39L39 39L39 38L37 38L37 37L34 37L34 38L33 38L33 36L32 36L32 35L33 35L33 34L34 34L34 36L36 36L36 35L35 35L35 32L31 32L31 33L32 33L32 34L30 34L30 35L29 35L29 33L30 33L30 31L28 31L28 33L27 33L27 31L25 31L25 34L24 34L24 35L23 35L23 33L24 33L24 32L23 32L23 33L22 33L22 34L21 34L21 32L22 32L22 31L24 31L24 30L26 30L26 28L25 28L25 25L29 25L29 24L30 24L30 26L31 26L31 24L30 24L30 21L31 21L31 23L32 23L32 22L33 22L33 24L32 24L32 25L33 25L33 24L35 24L35 23L36 23L36 24L37 24L37 23L39 23L39 20L40 20L40 19L39 19L39 18L41 18L41 19L42 19L42 20L41 20L41 21L42 21L42 20L43 20L43 21L44 21L44 22L45 22L45 19L46 19L46 20L47 20L47 21L46 21L46 22L47 22L47 21L48 21L48 20L49 20L49 19L48 19L48 18L47 18L47 19L46 19L46 17L42 17L42 14L43 14L43 12L42 12L42 11L43 11L43 10L44 10L44 9L45 9L45 7L46 7L46 5L47 5L47 3L46 3L46 2L47 2L47 1ZM38 2L38 3L39 3L39 2ZM9 3L9 4L10 4L10 3ZM24 4L24 6L23 6L23 7L24 7L24 8L25 8L25 9L26 9L26 6L25 6L25 5L26 5L26 4ZM27 5L27 8L30 8L30 5ZM8 6L8 7L9 7L9 6ZM24 6L24 7L25 7L25 6ZM28 6L28 7L29 7L29 6ZM38 6L38 7L39 7L39 9L41 9L41 8L40 8L40 7L39 7L39 6ZM44 6L44 7L45 7L45 6ZM18 9L18 10L16 10L16 13L17 13L17 12L18 12L18 13L19 13L19 14L21 14L21 13L19 13L19 12L20 12L20 9ZM37 9L37 11L38 11L38 12L36 12L36 10L35 10L35 11L34 11L34 10L33 10L33 11L32 11L32 12L31 12L31 13L32 13L32 12L33 12L33 14L32 14L32 15L31 15L31 14L30 14L30 13L28 13L28 12L26 12L26 13L27 13L27 17L25 17L25 16L26 16L26 15L25 15L25 16L24 16L24 14L23 14L23 18L24 18L24 19L25 19L25 22L24 22L24 21L23 21L23 19L22 19L22 17L21 17L21 15L20 15L20 17L21 17L21 18L17 18L17 16L16 16L16 15L18 15L18 14L16 14L16 15L15 15L15 16L14 16L14 15L9 15L9 14L8 14L8 15L7 15L7 14L5 14L5 16L6 16L6 17L7 17L7 16L13 16L13 17L12 17L12 18L11 18L11 17L9 17L9 21L10 21L10 23L11 23L11 24L12 24L12 23L13 23L13 22L14 22L14 20L15 20L15 19L16 19L16 23L17 23L17 22L19 22L19 24L17 24L17 26L16 26L16 27L19 27L19 25L20 25L20 26L21 26L21 24L20 24L20 23L21 23L21 22L22 22L22 21L23 21L23 25L22 25L22 27L23 27L23 29L21 29L21 27L20 27L20 29L21 29L21 30L20 30L20 32L21 32L21 30L24 30L24 27L23 27L23 25L25 25L25 22L27 22L27 23L26 23L26 24L29 24L29 23L28 23L28 21L30 21L30 20L32 20L32 18L31 18L31 19L30 19L30 17L29 17L29 16L32 16L32 17L33 17L33 19L34 19L34 18L35 18L35 17L34 17L34 16L35 16L35 15L33 15L33 14L34 14L34 12L35 12L35 14L36 14L36 15L39 15L39 17L40 17L40 16L41 16L41 13L40 13L40 14L39 14L39 11L40 11L40 10L39 10L39 11L38 11L38 9ZM46 9L46 10L47 10L47 9ZM18 10L18 12L19 12L19 10ZM21 10L21 11L23 11L23 10ZM8 11L8 12L9 12L9 11ZM24 11L24 13L25 13L25 11ZM51 11L51 12L50 12L50 13L51 13L51 12L52 12L52 13L53 13L53 11ZM22 12L22 13L23 13L23 12ZM11 13L11 14L12 14L12 13ZM3 14L3 16L4 16L4 14ZM6 15L6 16L7 16L7 15ZM28 15L28 16L29 16L29 15ZM50 15L50 16L51 16L51 15ZM15 16L15 17L13 17L13 18L12 18L12 19L11 19L11 20L10 20L10 21L11 21L11 22L13 22L13 21L11 21L11 20L13 20L13 19L15 19L15 17L16 17L16 16ZM24 17L24 18L25 18L25 19L28 19L28 20L29 20L29 19L28 19L28 18L29 18L29 17L27 17L27 18L25 18L25 17ZM36 17L36 18L37 18L37 17ZM41 17L41 18L42 18L42 19L43 19L43 18L42 18L42 17ZM44 18L44 19L45 19L45 18ZM7 19L7 20L8 20L8 19ZM17 19L17 20L18 20L18 21L19 21L19 22L21 22L21 20L22 20L22 19L21 19L21 20L19 20L19 19ZM36 19L36 20L33 20L33 21L35 21L35 22L38 22L38 21L36 21L36 20L38 20L38 19ZM26 20L26 21L27 21L27 20ZM6 22L6 23L5 23L5 24L6 24L6 23L7 23L7 22ZM42 22L42 23L40 23L40 27L39 27L39 26L38 26L38 27L39 27L39 28L40 28L40 29L41 29L41 24L43 24L43 22ZM44 23L44 25L42 25L42 26L44 26L44 27L45 27L45 29L44 29L44 28L43 28L43 27L42 27L42 28L43 28L43 29L42 29L42 30L41 30L41 31L40 31L40 30L39 30L39 29L38 29L38 30L37 30L37 27L36 27L36 28L34 28L34 29L36 29L36 31L37 31L37 32L36 32L36 33L37 33L37 32L38 32L38 34L39 34L39 31L40 31L40 32L41 32L41 31L44 31L44 34L46 34L46 35L47 35L47 36L46 36L46 38L45 38L45 36L44 36L44 37L42 37L42 38L44 38L44 39L45 39L45 40L46 40L46 41L47 41L47 42L46 42L46 43L47 43L47 44L43 44L43 43L42 43L42 45L43 45L43 47L44 47L44 49L45 49L45 50L44 50L44 51L45 51L45 54L44 54L44 55L46 55L46 51L47 51L47 52L48 52L48 48L46 48L46 49L45 49L45 47L46 47L46 46L47 46L47 47L49 47L49 46L50 46L50 44L51 44L51 48L53 48L53 50L55 50L55 49L54 49L54 48L53 48L53 47L54 47L54 46L53 46L53 45L52 45L52 44L51 44L51 42L50 42L50 41L52 41L52 40L53 40L53 39L51 39L51 38L49 38L49 39L47 39L47 40L46 40L46 38L48 38L48 35L47 35L47 34L50 34L50 33L49 33L49 32L50 32L50 31L49 31L49 32L48 32L48 29L47 29L47 31L44 31L44 30L46 30L46 26L49 26L49 25L47 25L47 24L48 24L48 23L47 23L47 24L46 24L46 23ZM38 24L38 25L39 25L39 24ZM45 24L45 25L44 25L44 26L46 26L46 24ZM11 25L11 26L10 26L10 27L11 27L11 26L12 26L12 25ZM34 25L34 27L35 27L35 25ZM1 26L1 27L2 27L2 26ZM5 27L5 30L8 30L8 27ZM27 27L27 30L30 30L30 27ZM31 27L31 28L33 28L33 27ZM47 27L47 28L48 28L48 27ZM49 27L49 30L52 30L52 27ZM6 28L6 29L7 29L7 28ZM11 28L11 29L13 29L13 28ZM18 28L18 29L19 29L19 28ZM28 28L28 29L29 29L29 28ZM50 28L50 29L51 29L51 28ZM53 28L53 29L54 29L54 28ZM2 29L2 31L3 31L3 29ZM32 29L32 30L31 30L31 31L32 31L32 30L33 30L33 29ZM38 30L38 31L39 31L39 30ZM6 31L6 32L7 32L7 31ZM51 31L51 32L52 32L52 34L54 34L54 33L53 33L53 32L52 32L52 31ZM42 32L42 33L43 33L43 32ZM46 32L46 33L47 33L47 32ZM26 33L26 34L27 34L27 35L26 35L26 37L27 37L27 36L29 36L29 35L28 35L28 34L27 34L27 33ZM0 34L0 36L1 36L1 37L3 37L3 35L2 35L2 34ZM6 34L6 35L8 35L8 34ZM20 34L20 35L21 35L21 34ZM41 34L41 35L39 35L39 36L38 36L38 35L37 35L37 36L38 36L38 37L39 37L39 36L40 36L40 37L41 37L41 35L42 35L42 34ZM18 35L18 36L17 36L17 38L14 38L14 40L16 40L16 39L18 39L18 40L20 40L20 41L22 41L22 44L21 44L21 43L19 43L19 41L18 41L18 43L19 43L19 44L21 44L21 46L20 46L20 45L17 45L17 46L16 46L16 47L18 47L18 48L16 48L16 49L19 49L19 50L20 50L20 52L19 52L19 55L20 55L20 53L22 53L22 52L21 52L21 48L23 48L23 49L22 49L22 51L23 51L23 49L24 49L24 48L25 48L25 45L26 45L26 46L27 46L27 45L29 45L29 46L31 46L31 45L30 45L30 44L29 44L29 43L28 43L28 44L27 44L27 45L26 45L26 43L24 43L24 44L25 44L25 45L23 45L23 46L22 46L22 44L23 44L23 42L24 42L24 41L25 41L25 39L24 39L24 37L25 37L25 36L23 36L23 37L22 37L22 38L23 38L23 39L21 39L21 38L20 38L20 37L19 37L19 35ZM51 35L51 36L50 36L50 37L51 37L51 36L52 36L52 38L55 38L55 37L53 37L53 36L52 36L52 35ZM54 35L54 36L55 36L55 35ZM6 36L6 37L7 37L7 36ZM18 37L18 38L19 38L19 37ZM32 38L32 39L33 39L33 38ZM23 39L23 40L22 40L22 41L23 41L23 40L24 40L24 39ZM40 39L40 41L42 41L42 42L45 42L45 41L44 41L44 40L42 40L42 39ZM49 39L49 40L47 40L47 41L50 41L50 40L51 40L51 39ZM56 40L56 41L57 41L57 40ZM13 41L13 42L12 42L12 44L11 44L11 45L13 45L13 42L14 42L14 43L15 43L15 45L16 45L16 44L17 44L17 41L15 41L15 42L14 42L14 41ZM6 42L6 43L7 43L7 42ZM37 42L37 44L38 44L38 43L39 43L39 42ZM47 42L47 43L48 43L48 44L49 44L49 43L50 43L50 42ZM44 45L44 47L45 47L45 45ZM47 45L47 46L48 46L48 45ZM1 46L1 47L2 47L2 46ZM3 46L3 47L5 47L5 46ZM18 46L18 47L19 47L19 48L20 48L20 47L19 47L19 46ZM21 46L21 47L22 47L22 46ZM52 46L52 47L53 47L53 46ZM23 47L23 48L24 48L24 47ZM6 48L6 49L7 49L7 48ZM9 48L9 49L8 49L8 50L10 50L10 48ZM32 48L32 49L33 49L33 50L32 50L32 51L31 51L31 53L32 53L32 51L33 51L33 52L35 52L35 48ZM41 48L41 49L42 49L42 48ZM27 49L27 52L30 52L30 49ZM36 49L36 50L37 50L37 49ZM49 49L49 52L52 52L52 49ZM28 50L28 51L29 51L29 50ZM33 50L33 51L34 51L34 50ZM45 50L45 51L46 51L46 50ZM50 50L50 51L51 51L51 50ZM56 51L56 52L57 52L57 51ZM40 52L40 54L41 54L41 55L42 55L42 54L43 54L43 52L42 52L42 54L41 54L41 52ZM11 53L11 54L10 54L10 55L11 55L11 54L12 54L12 53ZM17 53L17 54L18 54L18 53ZM47 53L47 54L50 54L50 53ZM14 54L14 55L15 55L15 54ZM27 55L27 56L28 56L28 55ZM39 55L39 56L40 56L40 55ZM48 55L48 56L49 56L49 55ZM56 55L56 56L57 56L57 55ZM0 0L0 7L7 7L7 0ZM1 1L1 6L6 6L6 1ZM2 2L2 5L5 5L5 2ZM50 0L50 7L57 7L57 0ZM51 1L51 6L56 6L56 1ZM52 2L52 5L55 5L55 2ZM0 50L0 57L7 57L7 50ZM1 51L1 56L6 56L6 51ZM2 52L2 55L5 55L5 52Z" fill="#000000"/></g></g></svg>
