<?xml version="1.0" encoding="UTF-8"?>
<svg xmlns="http://www.w3.org/2000/svg" version="1.1" width="300" height="300" viewBox="0 0 300 300"><rect x="0" y="0" width="300" height="300" fill="#fefefe"/><g transform="scale(4.615)"><g transform="translate(4,4)"><path fill-rule="evenodd" d="M8 0L8 1L9 1L9 0ZM10 0L10 2L8 2L8 5L10 5L10 4L11 4L11 3L12 3L12 4L14 4L14 5L15 5L15 6L14 6L14 7L13 7L13 5L11 5L11 6L10 6L10 7L11 7L11 6L12 6L12 7L13 7L13 8L12 8L12 9L11 9L11 8L8 8L8 9L7 9L7 8L6 8L6 9L7 9L7 10L6 10L6 11L5 11L5 10L4 10L4 8L0 8L0 9L1 9L1 10L2 10L2 11L1 11L1 12L0 12L0 14L2 14L2 16L3 16L3 18L4 18L4 20L3 20L3 19L1 19L1 18L2 18L2 17L1 17L1 15L0 15L0 17L1 17L1 18L0 18L0 19L1 19L1 20L0 20L0 21L2 21L2 22L0 22L0 23L1 23L1 24L0 24L0 25L2 25L2 26L0 26L0 27L2 27L2 28L1 28L1 29L0 29L0 31L1 31L1 29L2 29L2 28L3 28L3 30L2 30L2 32L3 32L3 31L4 31L4 32L5 32L5 31L8 31L8 32L6 32L6 33L1 33L1 32L0 32L0 34L3 34L3 35L4 35L4 34L5 34L5 35L7 35L7 36L6 36L6 37L7 37L7 36L9 36L9 37L10 37L10 36L11 36L11 37L12 37L12 36L13 36L13 35L16 35L16 36L17 36L17 37L18 37L18 38L15 38L15 36L14 36L14 40L13 40L13 39L12 39L12 38L11 38L11 39L10 39L10 38L8 38L8 40L9 40L9 41L11 41L11 42L12 42L12 43L10 43L10 42L9 42L9 43L10 43L10 44L12 44L12 43L13 43L13 45L9 45L9 44L8 44L8 45L9 45L9 47L7 47L7 46L5 46L5 45L3 45L3 46L2 46L2 47L1 47L1 44L3 44L3 43L4 43L4 44L5 44L5 43L4 43L4 42L6 42L6 43L8 43L8 41L7 41L7 40L5 40L5 39L4 39L4 38L5 38L5 37L3 37L3 36L2 36L2 35L0 35L0 36L1 36L1 37L0 37L0 39L2 39L2 38L1 38L1 37L3 37L3 40L4 40L4 41L2 41L2 40L1 40L1 41L2 41L2 43L1 43L1 42L0 42L0 43L1 43L1 44L0 44L0 48L5 48L5 47L7 47L7 48L6 48L6 49L8 49L8 50L9 50L9 51L10 51L10 52L11 52L11 53L10 53L10 54L9 54L9 53L8 53L8 57L9 57L9 55L10 55L10 57L11 57L11 56L12 56L12 57L14 57L14 55L12 55L12 54L11 54L11 53L12 53L12 52L14 52L14 54L15 54L15 56L16 56L16 57L18 57L18 55L17 55L17 54L16 54L16 53L15 53L15 52L17 52L17 51L16 51L16 50L14 50L14 48L12 48L12 47L15 47L15 48L16 48L16 49L17 49L17 50L18 50L18 51L19 51L19 50L20 50L20 52L19 52L19 53L18 53L18 54L19 54L19 55L20 55L20 56L21 56L21 57L23 57L23 56L22 56L22 55L23 55L23 54L25 54L25 55L24 55L24 56L26 56L26 54L27 54L27 53L29 53L29 54L31 54L31 55L30 55L30 56L31 56L31 57L32 57L32 55L34 55L34 56L33 56L33 57L36 57L36 55L37 55L37 54L36 54L36 53L35 53L35 52L36 52L36 51L37 51L37 52L38 52L38 51L39 51L39 50L40 50L40 49L39 49L39 48L38 48L38 49L37 49L37 48L35 48L35 47L38 47L38 45L39 45L39 46L40 46L40 47L43 47L43 52L41 52L41 51L40 51L40 52L39 52L39 54L38 54L38 57L43 57L43 55L44 55L44 56L45 56L45 57L46 57L46 55L47 55L47 56L49 56L49 57L51 57L51 54L52 54L52 53L54 53L54 54L53 54L53 56L52 56L52 57L55 57L55 56L54 56L54 54L56 54L56 53L57 53L57 52L56 52L56 51L55 51L55 50L53 50L53 48L54 48L54 49L55 49L55 48L54 48L54 47L57 47L57 43L56 43L56 42L54 42L54 41L55 41L55 38L56 38L56 39L57 39L57 38L56 38L56 37L57 37L57 34L55 34L55 33L57 33L57 31L56 31L56 30L57 30L57 28L56 28L56 24L55 24L55 27L53 27L53 25L52 25L52 26L51 26L51 24L54 24L54 23L53 23L53 22L54 22L54 21L55 21L55 20L54 20L54 21L53 21L53 20L50 20L50 18L49 18L49 19L47 19L47 18L48 18L48 17L49 17L49 16L48 16L48 14L47 14L47 15L45 15L45 16L44 16L44 14L46 14L46 13L44 13L44 10L45 10L45 9L41 9L41 8L39 8L39 10L38 10L38 9L37 9L37 10L38 10L38 12L36 12L36 10L35 10L35 11L34 11L34 10L33 10L33 11L32 11L32 12L33 12L33 14L32 14L32 15L31 15L31 14L30 14L30 13L28 13L28 12L26 12L26 13L27 13L27 14L26 14L26 15L25 15L25 14L24 14L24 15L23 15L23 18L22 18L22 17L21 17L21 15L20 15L20 16L19 16L19 17L21 17L21 19L22 19L22 20L21 20L21 21L23 21L23 22L19 22L19 21L18 21L18 20L20 20L20 19L19 19L19 18L18 18L18 17L17 17L17 16L16 16L16 15L18 15L18 14L16 14L16 15L15 15L15 12L16 12L16 13L17 13L17 12L18 12L18 13L19 13L19 14L21 14L21 13L20 13L20 11L23 11L23 10L25 10L25 11L24 11L24 13L25 13L25 11L26 11L26 10L28 10L28 11L30 11L30 12L31 12L31 11L30 11L30 10L32 10L32 9L31 9L31 6L32 6L32 8L33 8L33 6L34 6L34 9L36 9L36 8L38 8L38 7L39 7L39 6L38 6L38 5L40 5L40 7L41 7L41 4L43 4L43 5L45 5L45 6L44 6L44 8L46 8L46 9L47 9L47 10L46 10L46 11L47 11L47 12L49 12L49 15L51 15L51 13L52 13L52 14L53 14L53 15L52 15L52 16L55 16L55 17L54 17L54 18L52 18L52 19L56 19L56 17L57 17L57 15L54 15L54 14L53 14L53 13L54 13L54 10L53 10L53 9L55 9L55 8L52 8L52 9L51 9L51 11L47 11L47 10L50 10L50 8L49 8L49 6L48 6L48 8L47 8L47 5L48 5L48 0L45 0L45 1L44 1L44 2L41 2L41 1L43 1L43 0L41 0L41 1L40 1L40 0L39 0L39 1L40 1L40 2L41 2L41 4L37 4L37 3L38 3L38 2L37 2L37 1L38 1L38 0L37 0L37 1L36 1L36 0L35 0L35 1L34 1L34 3L35 3L35 4L36 4L36 5L37 5L37 6L36 6L36 7L35 7L35 6L34 6L34 5L33 5L33 6L32 6L32 5L31 5L31 4L32 4L32 3L33 3L33 0L29 0L29 1L28 1L28 3L29 3L29 2L30 2L30 1L31 1L31 4L26 4L26 1L25 1L25 0L23 0L23 1L25 1L25 2L24 2L24 3L23 3L23 5L22 5L22 4L21 4L21 5L20 5L20 4L19 4L19 2L20 2L20 0L18 0L18 1L19 1L19 2L18 2L18 3L17 3L17 2L16 2L16 3L17 3L17 5L15 5L15 4L14 4L14 3L13 3L13 0L12 0L12 1L11 1L11 0ZM14 0L14 1L15 1L15 0ZM21 0L21 2L22 2L22 0ZM35 1L35 2L36 2L36 1ZM46 1L46 2L45 2L45 3L44 3L44 4L45 4L45 5L47 5L47 3L46 3L46 2L47 2L47 1ZM9 3L9 4L10 4L10 3ZM18 4L18 5L17 5L17 7L16 7L16 6L15 6L15 8L13 8L13 9L12 9L12 10L11 10L11 9L10 9L10 10L8 10L8 11L6 11L6 12L5 12L5 13L4 13L4 12L3 12L3 11L4 11L4 10L3 10L3 9L2 9L2 10L3 10L3 11L2 11L2 12L1 12L1 13L2 13L2 14L3 14L3 16L4 16L4 17L6 17L6 18L5 18L5 20L7 20L7 21L3 21L3 22L2 22L2 23L3 23L3 25L4 25L4 26L5 26L5 25L6 25L6 26L8 26L8 24L9 24L9 23L10 23L10 20L11 20L11 22L12 22L12 23L11 23L11 24L10 24L10 25L9 25L9 27L10 27L10 28L11 28L11 29L9 29L9 30L10 30L10 31L9 31L9 32L10 32L10 33L11 33L11 34L10 34L10 35L11 35L11 34L12 34L12 35L13 35L13 34L12 34L12 33L13 33L13 32L12 32L12 31L11 31L11 30L12 30L12 28L13 28L13 30L16 30L16 29L14 29L14 28L15 28L15 27L17 27L17 31L18 31L18 30L19 30L19 32L18 32L18 36L19 36L19 37L20 37L20 38L21 38L21 39L22 39L22 41L19 41L19 38L18 38L18 39L16 39L16 40L17 40L17 42L15 42L15 43L14 43L14 42L13 42L13 41L12 41L12 39L11 39L11 41L12 41L12 42L13 42L13 43L14 43L14 44L15 44L15 43L17 43L17 44L16 44L16 45L14 45L14 46L15 46L15 47L17 47L17 48L19 48L19 49L18 49L18 50L19 50L19 49L20 49L20 48L19 48L19 47L20 47L20 46L21 46L21 47L22 47L22 46L23 46L23 45L25 45L25 46L24 46L24 47L23 47L23 48L21 48L21 52L22 52L22 53L23 53L23 52L24 52L24 53L25 53L25 52L26 52L26 49L25 49L25 48L24 48L24 47L26 47L26 48L27 48L27 47L29 47L29 48L32 48L32 49L31 49L31 50L32 50L32 51L31 51L31 53L32 53L32 51L33 51L33 49L34 49L34 50L35 50L35 48L33 48L33 47L34 47L34 46L37 46L37 45L38 45L38 44L39 44L39 43L40 43L40 44L41 44L41 43L42 43L42 45L44 45L44 47L46 47L46 49L45 49L45 48L44 48L44 51L45 51L45 50L46 50L46 51L47 51L47 52L48 52L48 48L47 48L47 47L46 47L46 46L47 46L47 45L50 45L50 46L48 46L48 47L49 47L49 48L50 48L50 46L51 46L51 48L53 48L53 47L52 47L52 46L53 46L53 44L55 44L55 45L54 45L54 46L56 46L56 44L55 44L55 43L54 43L54 42L53 42L53 43L52 43L52 45L51 45L51 42L50 42L50 41L52 41L52 40L53 40L53 39L54 39L54 38L53 38L53 36L52 36L52 35L51 35L51 36L52 36L52 38L53 38L53 39L51 39L51 38L50 38L50 39L51 39L51 40L50 40L50 41L47 41L47 42L46 42L46 43L47 43L47 42L48 42L48 43L49 43L49 44L43 44L43 43L42 43L42 42L44 42L44 43L45 43L45 41L46 41L46 39L45 39L45 36L44 36L44 37L43 37L43 35L44 35L44 34L43 34L43 35L42 35L42 34L41 34L41 35L37 35L37 37L35 37L35 36L36 36L36 35L35 35L35 31L37 31L37 32L36 32L36 33L37 33L37 32L38 32L38 34L39 34L39 31L40 31L40 32L41 32L41 31L43 31L43 30L44 30L44 33L45 33L45 35L47 35L47 34L48 34L48 35L49 35L49 34L50 34L50 33L49 33L49 32L48 32L48 30L47 30L47 31L45 31L45 30L46 30L46 26L49 26L49 25L50 25L50 23L52 23L52 22L51 22L51 21L50 21L50 20L49 20L49 22L47 22L47 21L48 21L48 20L47 20L47 19L46 19L46 17L47 17L47 16L45 16L45 17L42 17L42 14L43 14L43 12L42 12L42 11L41 11L41 9L40 9L40 10L39 10L39 11L40 11L40 14L39 14L39 15L37 15L37 14L36 14L36 13L35 13L35 12L34 12L34 14L33 14L33 15L32 15L32 16L33 16L33 15L35 15L35 16L34 16L34 17L35 17L35 18L33 18L33 17L31 17L31 16L29 16L29 15L28 15L28 16L29 16L29 17L27 17L27 15L26 15L26 16L25 16L25 17L24 17L24 18L23 18L23 21L24 21L24 22L25 22L25 25L23 25L23 24L21 24L21 23L20 23L20 24L21 24L21 25L23 25L23 27L22 27L22 26L20 26L20 25L18 25L18 26L19 26L19 27L17 27L17 23L18 23L18 24L19 24L19 23L18 23L18 21L17 21L17 23L16 23L16 20L17 20L17 19L15 19L15 18L16 18L16 17L15 17L15 18L13 18L13 19L15 19L15 20L14 20L14 22L12 22L12 20L11 20L11 19L12 19L12 16L13 16L13 15L11 15L11 14L14 14L14 13L13 13L13 11L12 11L12 10L13 10L13 9L14 9L14 11L15 11L15 8L16 8L16 12L17 12L17 10L18 10L18 12L19 12L19 11L20 11L20 10L21 10L21 8L23 8L23 7L24 7L24 9L26 9L26 6L25 6L25 5L26 5L26 4L24 4L24 6L23 6L23 7L22 7L22 6L21 6L21 7L20 7L20 6L19 6L19 7L18 7L18 5L19 5L19 4ZM27 5L27 8L30 8L30 5ZM8 6L8 7L9 7L9 6ZM24 6L24 7L25 7L25 6ZM28 6L28 7L29 7L29 6ZM37 6L37 7L38 7L38 6ZM42 6L42 7L43 7L43 6ZM45 6L45 7L46 7L46 6ZM19 7L19 8L20 8L20 7ZM17 8L17 9L18 9L18 8ZM56 8L56 9L57 9L57 8ZM19 9L19 10L20 10L20 9ZM22 9L22 10L23 10L23 9ZM10 10L10 11L8 11L8 13L10 13L10 14L11 14L11 13L12 13L12 12L11 12L11 10ZM52 10L52 11L51 11L51 12L50 12L50 13L51 13L51 12L52 12L52 13L53 13L53 10ZM55 10L55 11L56 11L56 12L57 12L57 10ZM2 12L2 13L3 13L3 12ZM6 12L6 13L5 13L5 15L7 15L7 16L6 16L6 17L7 17L7 16L8 16L8 18L9 18L9 20L10 20L10 19L11 19L11 16L10 16L10 15L9 15L9 14L8 14L8 15L7 15L7 14L6 14L6 13L7 13L7 12ZM10 12L10 13L11 13L11 12ZM22 12L22 13L23 13L23 12ZM35 14L35 15L36 15L36 14ZM8 15L8 16L9 16L9 18L10 18L10 16L9 16L9 15ZM14 15L14 16L15 16L15 15ZM39 15L39 17L40 17L40 16L41 16L41 15ZM29 17L29 18L28 18L28 19L25 19L25 18L24 18L24 19L25 19L25 20L27 20L27 21L25 21L25 22L27 22L27 23L26 23L26 24L27 24L27 23L28 23L28 24L29 24L29 23L30 23L30 24L31 24L31 26L29 26L29 25L25 25L25 26L24 26L24 28L26 28L26 30L25 30L25 31L24 31L24 29L21 29L21 28L20 28L20 27L19 27L19 28L18 28L18 29L21 29L21 30L20 30L20 32L19 32L19 34L20 34L20 35L19 35L19 36L23 36L23 37L22 37L22 38L23 38L23 39L24 39L24 41L25 41L25 42L23 42L23 41L22 41L22 44L21 44L21 42L19 42L19 41L18 41L18 43L19 43L19 45L17 45L17 47L18 47L18 46L20 46L20 44L21 44L21 46L22 46L22 44L25 44L25 45L26 45L26 46L27 46L27 45L26 45L26 43L25 43L25 42L29 42L29 43L27 43L27 44L28 44L28 45L30 45L30 46L31 46L31 47L33 47L33 45L34 45L34 44L35 44L35 45L36 45L36 44L35 44L35 43L34 43L34 42L36 42L36 41L34 41L34 40L35 40L35 39L36 39L36 38L35 38L35 39L33 39L33 38L34 38L34 37L33 37L33 38L32 38L32 36L34 36L34 35L32 35L32 36L29 36L29 35L30 35L30 34L31 34L31 30L32 30L32 31L35 31L35 29L34 29L34 28L35 28L35 27L36 27L36 28L37 28L37 29L36 29L36 30L38 30L38 31L39 31L39 30L40 30L40 28L39 28L39 27L41 27L41 30L42 30L42 29L43 29L43 28L44 28L44 29L45 29L45 27L43 27L43 26L46 26L46 25L44 25L44 23L45 23L45 24L46 24L46 23L47 23L47 22L46 22L46 21L47 21L47 20L46 20L46 19L45 19L45 18L44 18L44 19L45 19L45 22L44 22L44 21L41 21L41 18L42 18L42 19L43 19L43 18L42 18L42 17L41 17L41 18L39 18L39 19L40 19L40 20L39 20L39 22L38 22L38 21L36 21L36 20L38 20L38 19L36 19L36 20L34 20L34 19L33 19L33 20L34 20L34 21L35 21L35 22L37 22L37 24L36 24L36 23L35 23L35 24L33 24L33 22L32 22L32 23L30 23L30 22L31 22L31 20L32 20L32 18L31 18L31 19L30 19L30 17ZM36 17L36 18L37 18L37 17ZM6 18L6 19L7 19L7 20L8 20L8 19L7 19L7 18ZM28 19L28 20L29 20L29 21L27 21L27 22L29 22L29 21L30 21L30 19ZM56 20L56 22L55 22L55 23L57 23L57 20ZM7 21L7 22L6 22L6 23L5 23L5 22L4 22L4 23L5 23L5 24L4 24L4 25L5 25L5 24L6 24L6 25L7 25L7 24L8 24L8 23L9 23L9 21ZM7 22L7 23L6 23L6 24L7 24L7 23L8 23L8 22ZM14 22L14 24L15 24L15 25L13 25L13 23L12 23L12 24L11 24L11 28L12 28L12 27L13 27L13 28L14 28L14 26L16 26L16 23L15 23L15 22ZM41 22L41 23L40 23L40 26L41 26L41 27L42 27L42 28L43 28L43 27L42 27L42 26L43 26L43 25L42 25L42 24L41 24L41 23L43 23L43 22ZM38 23L38 24L39 24L39 23ZM48 23L48 24L49 24L49 23ZM32 24L32 25L33 25L33 24ZM34 25L34 27L35 27L35 25ZM38 26L38 27L39 27L39 26ZM5 27L5 30L8 30L8 27ZM27 27L27 30L30 30L30 27ZM31 27L31 28L33 28L33 27ZM47 27L47 28L48 28L48 27ZM49 27L49 30L52 30L52 27ZM6 28L6 29L7 29L7 28ZM28 28L28 29L29 29L29 28ZM50 28L50 29L51 29L51 28ZM53 28L53 29L54 29L54 30L53 30L53 31L51 31L51 32L52 32L52 34L54 34L54 32L55 32L55 30L56 30L56 29L54 29L54 28ZM32 29L32 30L33 30L33 29ZM38 29L38 30L39 30L39 29ZM21 30L21 32L22 32L22 31L23 31L23 33L22 33L22 34L21 34L21 33L20 33L20 34L21 34L21 35L22 35L22 34L23 34L23 33L24 33L24 31L23 31L23 30ZM10 31L10 32L11 32L11 33L12 33L12 32L11 32L11 31ZM14 31L14 32L15 32L15 34L16 34L16 35L17 35L17 33L16 33L16 31ZM25 31L25 32L26 32L26 33L25 33L25 34L24 34L24 35L23 35L23 36L26 36L26 37L24 37L24 39L25 39L25 41L26 41L26 39L25 39L25 38L26 38L26 37L27 37L27 38L29 38L29 36L27 36L27 34L28 34L28 35L29 35L29 33L30 33L30 32L29 32L29 31L28 31L28 33L27 33L27 31ZM33 32L33 33L34 33L34 32ZM42 32L42 33L43 33L43 32ZM6 33L6 34L9 34L9 33ZM26 33L26 34L27 34L27 33ZM41 35L41 36L42 36L42 35ZM54 35L54 36L55 36L55 37L56 37L56 35ZM39 36L39 37L37 37L37 38L39 38L39 39L38 39L38 40L37 40L37 41L40 41L40 42L42 42L42 41L40 41L40 40L39 40L39 39L41 39L41 40L42 40L42 39L43 39L43 40L44 40L44 41L45 41L45 39L44 39L44 38L42 38L42 39L41 39L41 37L40 37L40 36ZM46 36L46 38L49 38L49 37L50 37L50 36L49 36L49 37L48 37L48 36ZM6 38L6 39L7 39L7 38ZM30 38L30 39L28 39L28 40L27 40L27 41L28 41L28 40L29 40L29 42L31 42L31 41L30 41L30 40L33 40L33 39L32 39L32 38ZM47 39L47 40L49 40L49 39ZM14 40L14 41L15 41L15 40ZM56 40L56 41L57 41L57 40ZM6 41L6 42L7 42L7 41ZM32 42L32 44L31 44L31 43L29 43L29 44L31 44L31 45L33 45L33 42ZM37 42L37 44L38 44L38 43L39 43L39 42ZM49 42L49 43L50 43L50 42ZM6 44L6 45L7 45L7 44ZM3 46L3 47L5 47L5 46ZM10 46L10 47L9 47L9 48L8 48L8 49L9 49L9 48L10 48L10 50L11 50L11 47L12 47L12 46ZM23 48L23 49L22 49L22 52L23 52L23 49L24 49L24 48ZM41 48L41 49L42 49L42 48ZM56 48L56 49L57 49L57 48ZM12 49L12 51L14 51L14 50L13 50L13 49ZM27 49L27 52L30 52L30 49ZM36 49L36 50L37 50L37 49ZM49 49L49 52L52 52L52 49ZM24 50L24 51L25 51L25 50ZM28 50L28 51L29 51L29 50ZM50 50L50 51L51 51L51 50ZM33 52L33 53L34 53L34 52ZM40 52L40 54L41 54L41 52ZM45 52L45 53L46 53L46 52ZM54 52L54 53L56 53L56 52ZM20 53L20 55L22 55L22 54L21 54L21 53ZM42 53L42 54L43 54L43 53ZM48 53L48 54L50 54L50 53ZM35 54L35 55L36 55L36 54ZM44 54L44 55L45 55L45 54ZM27 55L27 56L28 56L28 55ZM40 55L40 56L42 56L42 55ZM56 55L56 56L57 56L57 55ZM0 0L0 7L7 7L7 0ZM1 1L1 6L6 6L6 1ZM2 2L2 5L5 5L5 2ZM50 0L50 7L57 7L57 0ZM51 1L51 6L56 6L56 1ZM52 2L52 5L55 5L55 2ZM0 50L0 57L7 57L7 50ZM1 51L1 56L6 56L6 51ZM2 52L2 55L5 55L5 52Z" fill="#000000"/></g></g></svg>
