<?xml version="1.0" encoding="UTF-8"?>
<svg xmlns="http://www.w3.org/2000/svg" version="1.1" width="300" height="300" viewBox="0 0 300 300"><rect x="0" y="0" width="300" height="300" fill="#fefefe"/><g transform="scale(4.615)"><g transform="translate(4,4)"><path fill-rule="evenodd" d="M9 0L9 1L8 1L8 2L9 2L9 3L8 3L8 4L10 4L10 5L8 5L8 7L9 7L9 8L6 8L6 9L8 9L8 10L10 10L10 9L9 9L9 8L10 8L10 7L11 7L11 6L10 6L10 5L11 5L11 4L12 4L12 7L13 7L13 6L14 6L14 7L15 7L15 9L17 9L17 10L18 10L18 11L17 11L17 12L16 12L16 13L15 13L15 11L16 11L16 10L13 10L13 9L14 9L14 8L13 8L13 9L12 9L12 8L11 8L11 10L12 10L12 11L10 11L10 13L9 13L9 12L6 12L6 11L7 11L7 10L5 10L5 11L4 11L4 14L5 14L5 15L4 15L4 17L2 17L2 15L0 15L0 16L1 16L1 17L2 17L2 19L1 19L1 18L0 18L0 19L1 19L1 20L0 20L0 22L1 22L1 23L0 23L0 25L1 25L1 26L0 26L0 34L2 34L2 35L4 35L4 37L5 37L5 38L3 38L3 37L2 37L2 38L1 38L1 40L0 40L0 48L5 48L5 47L7 47L7 48L6 48L6 49L8 49L8 51L9 51L9 52L8 52L8 57L9 57L9 54L10 54L10 57L11 57L11 56L12 56L12 57L16 57L16 56L17 56L17 57L19 57L19 56L18 56L18 55L17 55L17 53L20 53L20 52L21 52L21 51L22 51L22 52L23 52L23 51L22 51L22 50L26 50L26 52L24 52L24 53L23 53L23 54L21 54L21 56L20 56L20 57L21 57L21 56L24 56L24 55L23 55L23 54L24 54L24 53L25 53L25 54L26 54L26 56L25 56L25 57L26 57L26 56L27 56L27 57L29 57L29 56L30 56L30 57L31 57L31 56L35 56L35 57L39 57L39 56L37 56L37 54L38 54L38 55L41 55L41 57L42 57L42 55L43 55L43 57L44 57L44 54L45 54L45 55L48 55L48 57L49 57L49 56L50 56L50 57L52 57L52 55L51 55L51 53L52 53L52 54L53 54L53 57L54 57L54 56L55 56L55 57L56 57L56 56L55 56L55 55L54 55L54 54L53 54L53 52L54 52L54 53L56 53L56 52L57 52L57 51L56 51L56 50L55 50L55 49L54 49L54 48L56 48L56 49L57 49L57 48L56 48L56 46L57 46L57 45L56 45L56 44L57 44L57 43L56 43L56 41L53 41L53 40L55 40L55 39L57 39L57 37L56 37L56 36L57 36L57 35L56 35L56 34L55 34L55 33L54 33L54 34L55 34L55 35L53 35L53 34L52 34L52 33L53 33L53 32L56 32L56 33L57 33L57 32L56 32L56 30L57 30L57 29L54 29L54 28L55 28L55 27L56 27L56 28L57 28L57 27L56 27L56 26L57 26L57 25L56 25L56 22L57 22L57 20L56 20L56 18L57 18L57 17L56 17L56 16L57 16L57 15L56 15L56 14L57 14L57 11L56 11L56 10L54 10L54 11L51 11L51 10L53 10L53 9L54 9L54 8L53 8L53 9L52 9L52 8L51 8L51 10L50 10L50 8L49 8L49 6L48 6L48 7L47 7L47 5L48 5L48 0L46 0L46 1L47 1L47 2L44 2L44 3L43 3L43 4L42 4L42 2L43 2L43 0L41 0L41 1L40 1L40 0L39 0L39 1L38 1L38 0L37 0L37 1L38 1L38 2L37 2L37 3L36 3L36 0L35 0L35 1L33 1L33 2L32 2L32 0L29 0L29 1L30 1L30 2L32 2L32 3L31 3L31 4L26 4L26 3L23 3L23 4L24 4L24 5L23 5L23 6L22 6L22 7L21 7L21 4L19 4L19 2L20 2L20 3L21 3L21 2L20 2L20 1L18 1L18 0L17 0L17 2L18 2L18 3L17 3L17 4L19 4L19 5L20 5L20 7L19 7L19 6L18 6L18 5L17 5L17 6L16 6L16 7L15 7L15 5L16 5L16 4L15 4L15 5L13 5L13 4L14 4L14 2L15 2L15 3L16 3L16 1L14 1L14 0L12 0L12 1L11 1L11 0ZM21 0L21 1L22 1L22 2L27 2L27 1L26 1L26 0L23 0L23 1L22 1L22 0ZM9 1L9 2L10 2L10 3L11 3L11 2L10 2L10 1ZM12 1L12 2L14 2L14 1ZM33 2L33 3L32 3L32 4L31 4L31 8L32 8L32 10L31 10L31 11L30 11L30 10L29 10L29 9L28 9L28 10L27 10L27 11L26 11L26 12L25 12L25 10L23 10L23 8L24 8L24 6L23 6L23 7L22 7L22 8L19 8L19 9L18 9L18 10L19 10L19 9L20 9L20 10L21 10L21 11L20 11L20 12L19 12L19 13L20 13L20 14L21 14L21 13L22 13L22 14L23 14L23 15L19 15L19 16L20 16L20 18L19 18L19 17L16 17L16 16L17 16L17 15L18 15L18 14L17 14L17 13L18 13L18 12L17 12L17 13L16 13L16 16L14 16L14 15L13 15L13 14L15 14L15 13L13 13L13 12L14 12L14 11L13 11L13 12L11 12L11 13L10 13L10 15L9 15L9 13L6 13L6 12L5 12L5 14L7 14L7 15L5 15L5 16L8 16L8 17L9 17L9 16L11 16L11 17L10 17L10 18L12 18L12 17L13 17L13 19L12 19L12 20L11 20L11 21L10 21L10 19L8 19L8 18L7 18L7 17L5 17L5 18L4 18L4 20L5 20L5 21L2 21L2 22L3 22L3 23L5 23L5 24L7 24L7 23L8 23L8 25L4 25L4 26L8 26L8 25L9 25L9 29L10 29L10 30L9 30L9 31L4 31L4 33L6 33L6 34L4 34L4 35L6 35L6 36L7 36L7 35L6 35L6 34L7 34L7 33L8 33L8 37L6 37L6 38L5 38L5 41L3 41L3 42L4 42L4 43L3 43L3 44L7 44L7 43L8 43L8 42L9 42L9 40L8 40L8 42L7 42L7 41L6 41L6 40L7 40L7 39L10 39L10 40L11 40L11 41L10 41L10 42L11 42L11 41L12 41L12 42L14 42L14 44L13 44L13 45L12 45L12 44L11 44L11 43L9 43L9 44L11 44L11 45L9 45L9 47L8 47L8 49L9 49L9 51L11 51L11 53L10 53L10 52L9 52L9 53L10 53L10 54L12 54L12 50L11 50L11 49L9 49L9 48L11 48L11 47L12 47L12 48L13 48L13 49L15 49L15 50L13 50L13 51L15 51L15 52L16 52L16 53L15 53L15 54L14 54L14 55L13 55L13 56L14 56L14 55L15 55L15 56L16 56L16 55L15 55L15 54L16 54L16 53L17 53L17 51L21 51L21 49L23 49L23 48L24 48L24 49L25 49L25 48L29 48L29 47L26 47L26 45L27 45L27 46L30 46L30 45L31 45L31 46L32 46L32 47L31 47L31 48L32 48L32 49L31 49L31 53L30 53L30 54L27 54L27 53L26 53L26 54L27 54L27 56L29 56L29 55L30 55L30 56L31 56L31 54L32 54L32 53L33 53L33 54L35 54L35 56L36 56L36 54L35 54L35 51L34 51L34 50L36 50L36 52L37 52L37 53L38 53L38 54L40 54L40 53L43 53L43 54L44 54L44 53L45 53L45 54L48 54L48 50L47 50L47 49L48 49L48 48L51 48L51 46L52 46L52 48L53 48L53 47L55 47L55 46L56 46L56 45L55 45L55 44L54 44L54 46L53 46L53 43L54 43L54 42L53 42L53 41L51 41L51 42L50 42L50 43L49 43L49 42L48 42L48 41L49 41L49 39L51 39L51 40L53 40L53 39L55 39L55 37L53 37L53 35L52 35L52 34L50 34L50 31L48 31L48 29L46 29L46 30L47 30L47 31L48 31L48 32L43 32L43 30L44 30L44 31L45 31L45 30L44 30L44 29L45 29L45 28L46 28L46 27L47 27L47 25L50 25L50 26L53 26L53 27L54 27L54 26L53 26L53 25L55 25L55 26L56 26L56 25L55 25L55 24L53 24L53 23L51 23L51 25L50 25L50 22L51 22L51 21L54 21L54 22L56 22L56 20L53 20L53 19L52 19L52 20L51 20L51 21L49 21L49 22L47 22L47 20L44 20L44 18L45 18L45 19L46 19L46 18L47 18L47 19L48 19L48 18L47 18L47 15L46 15L46 16L45 16L45 15L44 15L44 14L41 14L41 13L43 13L43 12L44 12L44 13L45 13L45 14L47 14L47 13L49 13L49 12L50 12L50 14L49 14L49 15L48 15L48 16L49 16L49 17L50 17L50 18L49 18L49 19L51 19L51 18L55 18L55 17L53 17L53 16L52 16L52 15L51 15L51 17L50 17L50 14L51 14L51 12L50 12L50 10L47 10L47 7L46 7L46 6L45 6L45 4L46 4L46 5L47 5L47 3L44 3L44 6L43 6L43 7L42 7L42 5L40 5L40 4L41 4L41 3L37 3L37 4L36 4L36 5L35 5L35 3L34 3L34 2ZM33 3L33 4L32 4L32 5L33 5L33 6L32 6L32 7L33 7L33 9L34 9L34 8L35 8L35 9L37 9L37 10L36 10L36 11L37 11L37 12L35 12L35 13L36 13L36 14L33 14L33 13L34 13L34 12L33 12L33 10L32 10L32 12L31 12L31 13L30 13L30 14L29 14L29 13L28 13L28 12L29 12L29 11L27 11L27 12L26 12L26 13L28 13L28 14L29 14L29 16L28 16L28 15L27 15L27 16L28 16L28 17L26 17L26 14L25 14L25 13L23 13L23 10L22 10L22 11L21 11L21 12L20 12L20 13L21 13L21 12L22 12L22 13L23 13L23 14L25 14L25 15L24 15L24 16L25 16L25 17L22 17L22 16L21 16L21 17L22 17L22 18L20 18L20 19L21 19L21 20L24 20L24 21L23 21L23 22L24 22L24 21L25 21L25 22L26 22L26 23L25 23L25 24L24 24L24 23L23 23L23 25L22 25L22 24L17 24L17 22L19 22L19 23L20 23L20 22L19 22L19 21L20 21L20 20L19 20L19 19L18 19L18 18L16 18L16 17L15 17L15 21L16 21L16 22L15 22L15 23L16 23L16 24L14 24L14 28L12 28L12 26L13 26L13 24L12 24L12 23L11 23L11 24L9 24L9 25L12 25L12 26L10 26L10 28L12 28L12 29L11 29L11 30L10 30L10 32L9 32L9 33L11 33L11 35L10 35L10 34L9 34L9 37L10 37L10 39L11 39L11 38L12 38L12 40L13 40L13 41L14 41L14 42L15 42L15 40L16 40L16 39L15 39L15 38L16 38L16 37L14 37L14 36L12 36L12 34L13 34L13 33L14 33L14 32L13 32L13 31L12 31L12 29L14 29L14 28L15 28L15 27L16 27L16 26L15 26L15 25L18 25L18 26L17 26L17 27L18 27L18 26L19 26L19 27L20 27L20 28L19 28L19 29L18 29L18 28L16 28L16 29L15 29L15 32L17 32L17 31L18 31L18 33L17 33L17 34L16 34L16 35L17 35L17 34L18 34L18 33L19 33L19 35L21 35L21 34L22 34L22 33L21 33L21 32L23 32L23 31L20 31L20 30L19 30L19 29L22 29L22 28L21 28L21 27L22 27L22 26L23 26L23 28L24 28L24 27L25 27L25 28L26 28L26 29L23 29L23 30L24 30L24 31L26 31L26 32L25 32L25 33L23 33L23 34L24 34L24 36L23 36L23 35L22 35L22 36L23 36L23 37L19 37L19 36L17 36L17 38L20 38L20 39L19 39L19 40L17 40L17 41L19 41L19 42L18 42L18 43L17 43L17 42L16 42L16 45L17 45L17 46L18 46L18 47L23 47L23 46L25 46L25 44L31 44L31 45L32 45L32 44L33 44L33 43L34 43L34 45L35 45L35 46L33 46L33 47L34 47L34 48L33 48L33 49L36 49L36 50L38 50L38 51L37 51L37 52L38 52L38 53L39 53L39 52L38 52L38 51L40 51L40 52L41 52L41 50L42 50L42 52L43 52L43 53L44 53L44 52L45 52L45 51L46 51L46 52L47 52L47 51L46 51L46 50L45 50L45 49L44 49L44 48L43 48L43 47L45 47L45 48L46 48L46 49L47 49L47 48L48 48L48 47L50 47L50 46L44 46L44 44L43 44L43 42L44 42L44 41L43 41L43 40L45 40L45 41L47 41L47 39L49 39L49 38L50 38L50 37L49 37L49 38L47 38L47 39L46 39L46 38L45 38L45 37L46 37L46 36L45 36L45 35L47 35L47 34L45 34L45 35L44 35L44 33L43 33L43 32L41 32L41 33L39 33L39 34L40 34L40 35L39 35L39 37L40 37L40 38L41 38L41 39L42 39L42 38L43 38L43 37L44 37L44 38L45 38L45 39L43 39L43 40L41 40L41 41L40 41L40 42L42 42L42 44L41 44L41 43L40 43L40 44L41 44L41 46L40 46L40 47L39 47L39 46L38 46L38 45L39 45L39 42L38 42L38 40L39 40L39 39L38 39L38 37L37 37L37 36L38 36L38 33L37 33L37 32L33 32L33 33L32 33L32 31L36 31L36 30L32 30L32 28L31 28L31 26L32 26L32 27L33 27L33 28L35 28L35 29L38 29L38 28L42 28L42 26L43 26L43 25L44 25L44 26L45 26L45 27L44 27L44 28L43 28L43 29L39 29L39 30L38 30L38 32L39 32L39 31L41 31L41 30L43 30L43 29L44 29L44 28L45 28L45 27L46 27L46 26L45 26L45 25L44 25L44 20L43 20L43 18L44 18L44 15L42 15L42 16L41 16L41 15L39 15L39 14L40 14L40 13L39 13L39 12L41 12L41 11L43 11L43 10L44 10L44 11L45 11L45 12L48 12L48 11L47 11L47 10L46 10L46 9L45 9L45 10L44 10L44 8L46 8L46 7L45 7L45 6L44 6L44 8L42 8L42 7L41 7L41 6L40 6L40 5L39 5L39 6L38 6L38 4L37 4L37 5L36 5L36 7L37 7L37 6L38 6L38 9L37 9L37 8L35 8L35 5L33 5L33 4L34 4L34 3ZM25 4L25 8L26 8L26 4ZM27 5L27 8L30 8L30 5ZM9 6L9 7L10 7L10 6ZM17 6L17 7L16 7L16 8L17 8L17 7L18 7L18 6ZM28 6L28 7L29 7L29 6ZM33 6L33 7L34 7L34 6ZM39 6L39 9L38 9L38 10L37 10L37 11L39 11L39 10L40 10L40 11L41 11L41 7L40 7L40 6ZM0 8L0 10L1 10L1 11L0 11L0 14L1 14L1 12L2 12L2 11L3 11L3 9L5 9L5 8ZM55 8L55 9L56 9L56 8ZM45 10L45 11L46 11L46 10ZM55 11L55 12L54 12L54 13L53 13L53 12L52 12L52 13L53 13L53 15L54 15L54 14L56 14L56 11ZM32 12L32 13L31 13L31 14L30 14L30 15L31 15L31 14L32 14L32 13L33 13L33 12ZM12 13L12 14L13 14L13 13ZM38 13L38 14L37 14L37 15L35 15L35 16L33 16L33 15L32 15L32 17L31 17L31 18L30 18L30 20L29 20L29 19L28 19L28 18L26 18L26 17L25 17L25 19L26 19L26 20L25 20L25 21L31 21L31 22L28 22L28 23L31 23L31 24L32 24L32 26L33 26L33 27L34 27L34 26L36 26L36 27L39 27L39 26L40 26L40 27L41 27L41 24L42 24L42 23L41 23L41 24L40 24L40 22L39 22L39 21L42 21L42 20L38 20L38 19L39 19L39 17L41 17L41 16L39 16L39 15L38 15L38 14L39 14L39 13ZM12 15L12 16L13 16L13 17L14 17L14 16L13 16L13 15ZM35 16L35 17L37 17L37 18L38 18L38 17L39 17L39 16L38 16L38 17L37 17L37 16ZM42 16L42 17L43 17L43 16ZM32 17L32 18L31 18L31 21L32 21L32 20L35 20L35 23L34 23L34 22L33 22L33 23L32 23L32 24L33 24L33 25L37 25L37 26L38 26L38 25L40 25L40 24L37 24L37 23L38 23L38 20L36 20L36 19L32 19L32 18L33 18L33 17ZM5 18L5 19L7 19L7 18ZM22 18L22 19L24 19L24 18ZM41 18L41 19L42 19L42 18ZM13 19L13 20L14 20L14 19ZM27 19L27 20L28 20L28 19ZM6 20L6 21L7 21L7 22L5 22L5 23L7 23L7 22L9 22L9 23L10 23L10 21L8 21L8 20ZM16 20L16 21L17 21L17 20ZM11 21L11 22L14 22L14 21ZM21 21L21 22L22 22L22 21ZM45 21L45 22L46 22L46 23L45 23L45 24L46 24L46 23L47 23L47 24L48 24L48 23L47 23L47 22L46 22L46 21ZM1 24L1 25L2 25L2 24ZM25 24L25 25L26 25L26 26L25 26L25 27L26 27L26 26L28 26L28 25L29 25L29 24ZM20 25L20 26L22 26L22 25ZM1 26L1 27L3 27L3 28L4 28L4 27L3 27L3 26ZM5 27L5 30L8 30L8 27ZM27 27L27 30L30 30L30 27ZM49 27L49 30L52 30L52 27ZM6 28L6 29L7 29L7 28ZM28 28L28 29L29 29L29 28ZM50 28L50 29L51 29L51 28ZM2 29L2 30L1 30L1 31L2 31L2 30L4 30L4 29ZM16 29L16 30L18 30L18 29ZM53 29L53 30L54 30L54 29ZM31 30L31 31L30 31L30 32L29 32L29 31L27 31L27 32L26 32L26 33L25 33L25 35L26 35L26 36L27 36L27 37L25 37L25 38L27 38L27 39L28 39L28 40L26 40L26 39L25 39L25 40L24 40L24 39L23 39L23 38L24 38L24 37L23 37L23 38L22 38L22 40L21 40L21 41L20 41L20 40L19 40L19 41L20 41L20 42L19 42L19 44L20 44L20 42L21 42L21 43L22 43L22 42L23 42L23 43L24 43L24 42L23 42L23 41L25 41L25 43L29 43L29 42L32 42L32 43L31 43L31 44L32 44L32 43L33 43L33 42L34 42L34 43L35 43L35 44L36 44L36 43L37 43L37 42L35 42L35 40L38 40L38 39L35 39L35 36L37 36L37 34L35 34L35 33L33 33L33 34L32 34L32 33L31 33L31 31L32 31L32 30ZM19 31L19 32L20 32L20 31ZM51 31L51 33L52 33L52 32L53 32L53 31ZM1 32L1 33L3 33L3 32ZM6 32L6 33L7 33L7 32ZM28 32L28 33L29 33L29 34L30 34L30 36L29 36L29 37L31 37L31 38L29 38L29 39L33 39L33 40L35 40L35 39L34 39L34 38L33 38L33 37L32 37L32 36L33 36L33 35L34 35L34 36L35 36L35 34L33 34L33 35L32 35L32 34L31 34L31 33L29 33L29 32ZM48 32L48 33L49 33L49 32ZM20 33L20 34L21 34L21 33ZM26 33L26 35L27 35L27 33ZM42 34L42 35L41 35L41 36L40 36L40 37L41 37L41 38L42 38L42 37L41 37L41 36L44 36L44 37L45 37L45 36L44 36L44 35L43 35L43 34ZM48 34L48 35L50 35L50 36L52 36L52 35L50 35L50 34ZM0 35L0 37L1 37L1 35ZM55 35L55 36L56 36L56 35ZM10 36L10 37L11 37L11 36ZM12 37L12 38L13 38L13 37ZM27 37L27 38L28 38L28 37ZM2 38L2 40L4 40L4 39L3 39L3 38ZM6 38L6 39L7 39L7 38ZM52 38L52 39L53 39L53 38ZM13 39L13 40L15 40L15 39ZM45 39L45 40L46 40L46 39ZM28 40L28 41L26 41L26 42L28 42L28 41L30 41L30 40ZM31 40L31 41L32 41L32 42L33 42L33 41L32 41L32 40ZM1 41L1 42L2 42L2 41ZM5 41L5 42L6 42L6 43L7 43L7 42L6 42L6 41ZM45 42L45 43L46 43L46 44L45 44L45 45L47 45L47 43L48 43L48 42L47 42L47 43L46 43L46 42ZM51 42L51 43L50 43L50 45L52 45L52 44L51 44L51 43L53 43L53 42ZM1 43L1 47L2 47L2 43ZM14 44L14 46L12 46L12 45L11 45L11 46L12 46L12 47L13 47L13 48L15 48L15 49L16 49L16 48L15 48L15 47L16 47L16 46L15 46L15 44ZM17 44L17 45L18 45L18 44ZM21 44L21 45L19 45L19 46L21 46L21 45L22 45L22 46L23 46L23 45L22 45L22 44ZM48 44L48 45L49 45L49 44ZM4 45L4 46L3 46L3 47L5 47L5 46L8 46L8 45ZM36 45L36 46L35 46L35 48L36 48L36 47L37 47L37 45ZM14 46L14 47L15 47L15 46ZM41 46L41 48L39 48L39 47L38 47L38 48L37 48L37 49L38 49L38 50L41 50L41 48L42 48L42 49L43 49L43 50L44 50L44 51L45 51L45 50L44 50L44 49L43 49L43 48L42 48L42 47L43 47L43 46ZM24 47L24 48L25 48L25 47ZM46 47L46 48L47 48L47 47ZM17 48L17 50L16 50L16 51L17 51L17 50L20 50L20 49L21 49L21 48L20 48L20 49L19 49L19 48ZM38 48L38 49L39 49L39 48ZM27 49L27 52L30 52L30 49ZM49 49L49 52L52 52L52 49ZM28 50L28 51L29 51L29 50ZM50 50L50 51L51 51L51 50ZM54 50L54 51L55 51L55 52L56 52L56 51L55 51L55 50ZM32 51L32 52L33 52L33 53L34 53L34 52L33 52L33 51ZM13 52L13 53L14 53L14 52ZM19 54L19 55L20 55L20 54ZM41 54L41 55L42 55L42 54ZM50 55L50 56L51 56L51 55ZM45 56L45 57L46 57L46 56ZM0 0L0 7L7 7L7 0ZM1 1L1 6L6 6L6 1ZM2 2L2 5L5 5L5 2ZM50 0L50 7L57 7L57 0ZM51 1L51 6L56 6L56 1ZM52 2L52 5L55 5L55 2ZM0 50L0 57L7 57L7 50ZM1 51L1 56L6 56L6 51ZM2 52L2 55L5 55L5 52Z" fill="#000000"/></g></g></svg>
