<?xml version="1.0" encoding="UTF-8"?>
<svg xmlns="http://www.w3.org/2000/svg" version="1.1" width="300" height="300" viewBox="0 0 300 300"><rect x="0" y="0" width="300" height="300" fill="#fefefe"/><g transform="scale(4.615)"><g transform="translate(4,4)"><path fill-rule="evenodd" d="M8 0L8 1L9 1L9 0ZM10 0L10 1L11 1L11 0ZM19 0L19 2L18 2L18 1L17 1L17 2L16 2L16 3L17 3L17 2L18 2L18 5L15 5L15 4L14 4L14 3L13 3L13 2L12 2L12 3L10 3L10 4L9 4L9 2L8 2L8 5L10 5L10 4L12 4L12 3L13 3L13 4L14 4L14 5L13 5L13 6L12 6L12 7L11 7L11 6L10 6L10 7L11 7L11 8L10 8L10 9L11 9L11 10L12 10L12 12L10 12L10 11L9 11L9 12L10 12L10 13L8 13L8 11L7 11L7 10L6 10L6 9L7 9L7 8L6 8L6 9L4 9L4 8L0 8L0 9L1 9L1 10L0 10L0 11L1 11L1 13L2 13L2 14L1 14L1 15L0 15L0 16L1 16L1 17L0 17L0 20L1 20L1 22L0 22L0 23L1 23L1 25L0 25L0 26L1 26L1 25L2 25L2 24L3 24L3 26L2 26L2 27L3 27L3 26L4 26L4 29L2 29L2 28L1 28L1 27L0 27L0 28L1 28L1 30L0 30L0 31L1 31L1 32L0 32L0 34L1 34L1 35L0 35L0 37L1 37L1 38L0 38L0 39L1 39L1 40L3 40L3 39L5 39L5 38L6 38L6 39L7 39L7 38L9 38L9 37L10 37L10 38L11 38L11 39L12 39L12 38L15 38L15 39L14 39L14 40L11 40L11 41L14 41L14 42L10 42L10 43L9 43L9 42L8 42L8 41L9 41L9 39L8 39L8 40L4 40L4 41L3 41L3 42L4 42L4 44L3 44L3 43L2 43L2 44L1 44L1 45L0 45L0 48L5 48L5 47L7 47L7 48L6 48L6 49L7 49L7 48L8 48L8 47L10 47L10 48L11 48L11 49L10 49L10 51L12 51L12 50L13 50L13 51L14 51L14 52L11 52L11 53L10 53L10 52L9 52L9 53L8 53L8 57L11 57L11 56L12 56L12 57L13 57L13 56L12 56L12 55L13 55L13 54L15 54L15 55L14 55L14 56L15 56L15 57L18 57L18 56L17 56L17 54L18 54L18 55L20 55L20 57L21 57L21 55L20 55L20 53L22 53L22 57L23 57L23 54L26 54L26 55L27 55L27 56L28 56L28 55L27 55L27 54L26 54L26 53L29 53L29 54L31 54L31 55L30 55L30 56L31 56L31 57L32 57L32 55L34 55L34 56L33 56L33 57L36 57L36 55L38 55L38 57L41 57L41 55L42 55L42 57L43 57L43 55L44 55L44 54L47 54L47 56L46 56L46 55L45 55L45 56L46 56L46 57L51 57L51 54L52 54L52 53L54 53L54 54L53 54L53 56L52 56L52 57L55 57L55 56L54 56L54 54L56 54L56 51L55 51L55 50L53 50L53 49L54 49L54 48L53 48L53 47L54 47L54 46L55 46L55 47L57 47L57 44L53 44L53 45L54 45L54 46L53 46L53 47L52 47L52 43L53 43L53 42L54 42L54 43L56 43L56 42L54 42L54 41L55 41L55 38L56 38L56 39L57 39L57 38L56 38L56 37L57 37L57 31L56 31L56 30L57 30L57 29L56 29L56 30L54 30L54 29L55 29L55 27L53 27L53 26L52 26L52 25L51 25L51 23L49 23L49 21L48 21L48 20L50 20L50 21L51 21L51 22L52 22L52 24L54 24L54 23L57 23L57 21L56 21L56 22L54 22L54 21L55 21L55 20L54 20L54 21L53 21L53 20L50 20L50 18L48 18L48 17L47 17L47 16L48 16L48 14L47 14L47 16L46 16L46 17L45 17L45 16L44 16L44 15L45 15L45 14L46 14L46 13L45 13L45 14L42 14L42 17L41 17L41 18L39 18L39 19L40 19L40 20L39 20L39 24L38 24L38 21L36 21L36 20L38 20L38 19L36 19L36 20L35 20L35 19L34 19L34 18L35 18L35 17L34 17L34 16L35 16L35 15L39 15L39 17L40 17L40 16L41 16L41 15L39 15L39 14L40 14L40 10L41 10L41 11L42 11L42 12L43 12L43 13L44 13L44 9L42 9L42 8L43 8L43 5L45 5L45 6L44 6L44 7L45 7L45 6L46 6L46 8L45 8L45 9L47 9L47 10L45 10L45 11L48 11L48 12L49 12L49 15L51 15L51 13L52 13L52 14L53 14L53 13L54 13L54 10L53 10L53 9L55 9L55 8L52 8L52 9L51 9L51 11L49 11L49 10L50 10L50 8L49 8L49 9L48 9L48 8L47 8L47 5L48 5L48 0L45 0L45 1L44 1L44 2L41 2L41 1L43 1L43 0L41 0L41 1L40 1L40 0L39 0L39 1L40 1L40 2L41 2L41 3L43 3L43 5L42 5L42 8L38 8L38 7L39 7L39 6L38 6L38 5L40 5L40 7L41 7L41 4L39 4L39 3L38 3L38 2L37 2L37 1L38 1L38 0L37 0L37 1L36 1L36 0L35 0L35 1L34 1L34 2L35 2L35 3L33 3L33 1L32 1L32 0L30 0L30 2L29 2L29 1L27 1L27 2L28 2L28 3L29 3L29 4L26 4L26 1L25 1L25 0L23 0L23 1L22 1L22 0L21 0L21 1L20 1L20 0ZM23 1L23 3L21 3L21 2L20 2L20 3L19 3L19 4L20 4L20 5L21 5L21 7L20 7L20 6L19 6L19 7L20 7L20 10L21 10L21 8L22 8L22 6L23 6L23 7L24 7L24 8L23 8L23 9L22 9L22 10L23 10L23 9L24 9L24 8L25 8L25 9L26 9L26 6L25 6L25 5L26 5L26 4L24 4L24 6L23 6L23 5L21 5L21 4L23 4L23 3L24 3L24 2L25 2L25 1ZM35 1L35 2L36 2L36 1ZM45 1L45 3L44 3L44 4L45 4L45 5L47 5L47 3L46 3L46 2L47 2L47 1ZM30 2L30 4L31 4L31 5L32 5L32 6L31 6L31 9L32 9L32 10L30 10L30 11L29 11L29 10L28 10L28 11L27 11L27 10L26 10L26 11L25 11L25 12L24 12L24 11L21 11L21 12L20 12L20 11L19 11L19 10L18 10L18 9L19 9L19 8L18 8L18 6L17 6L17 7L16 7L16 6L15 6L15 8L14 8L14 6L13 6L13 7L12 7L12 8L11 8L11 9L12 9L12 10L14 10L14 11L15 11L15 15L14 15L14 13L12 13L12 15L11 15L11 13L10 13L10 14L7 14L7 13L6 13L6 14L5 14L5 13L4 13L4 12L5 12L5 11L6 11L6 12L7 12L7 11L6 11L6 10L5 10L5 11L4 11L4 10L3 10L3 11L2 11L2 10L1 10L1 11L2 11L2 13L4 13L4 14L2 14L2 16L3 16L3 15L4 15L4 16L5 16L5 15L6 15L6 16L7 16L7 17L6 17L6 18L5 18L5 17L3 17L3 18L5 18L5 19L6 19L6 20L2 20L2 21L3 21L3 22L2 22L2 23L3 23L3 22L4 22L4 24L5 24L5 25L4 25L4 26L5 26L5 25L6 25L6 26L8 26L8 25L9 25L9 27L10 27L10 25L9 25L9 23L10 23L10 24L12 24L12 25L11 25L11 27L13 27L13 28L14 28L14 30L16 30L16 32L17 32L17 31L18 31L18 33L15 33L15 35L14 35L14 34L12 34L12 33L11 33L11 34L12 34L12 35L14 35L14 37L15 37L15 38L18 38L18 39L19 39L19 38L18 38L18 36L19 36L19 37L20 37L20 38L21 38L21 39L23 39L23 40L22 40L22 41L19 41L19 40L18 40L18 41L19 41L19 43L18 43L18 42L17 42L17 45L15 45L15 44L16 44L16 43L15 43L15 42L14 42L14 43L15 43L15 44L13 44L13 43L11 43L11 44L8 44L8 42L7 42L7 41L6 41L6 42L7 42L7 43L5 43L5 44L4 44L4 45L5 45L5 44L8 44L8 45L6 45L6 46L7 46L7 47L8 47L8 45L9 45L9 46L12 46L12 48L13 48L13 50L14 50L14 51L16 51L16 52L14 52L14 53L16 53L16 54L17 54L17 53L18 53L18 54L19 54L19 52L17 52L17 51L21 51L21 50L22 50L22 51L23 51L23 52L22 52L22 53L23 53L23 52L24 52L24 53L25 53L25 52L26 52L26 51L24 51L24 50L25 50L25 49L26 49L26 48L29 48L29 47L30 47L30 48L32 48L32 49L31 49L31 53L32 53L32 51L33 51L33 52L35 52L35 53L36 53L36 54L34 54L34 55L36 55L36 54L39 54L39 53L37 53L37 52L40 52L40 54L41 54L41 52L42 52L42 54L43 54L43 52L42 52L42 51L44 51L44 50L45 50L45 51L47 51L47 52L46 52L46 53L47 53L47 52L48 52L48 48L47 48L47 49L46 49L46 50L45 50L45 48L46 48L46 46L47 46L47 47L49 47L49 46L51 46L51 45L49 45L49 44L51 44L51 42L50 42L50 41L52 41L52 40L53 40L53 39L54 39L54 38L53 38L53 36L52 36L52 35L51 35L51 36L50 36L50 37L48 37L48 36L47 36L47 34L48 34L48 35L49 35L49 34L50 34L50 33L49 33L49 32L51 32L51 31L49 31L49 32L48 32L48 30L47 30L47 31L46 31L46 32L45 32L45 30L46 30L46 26L47 26L47 27L48 27L48 26L49 26L49 24L48 24L48 23L46 23L46 22L47 22L47 20L48 20L48 19L47 19L47 18L45 18L45 17L42 17L42 18L41 18L41 19L42 19L42 18L43 18L43 21L44 21L44 22L45 22L45 23L44 23L44 25L43 25L43 24L42 24L42 23L43 23L43 22L41 22L41 23L40 23L40 24L39 24L39 25L40 25L40 26L41 26L41 27L39 27L39 26L38 26L38 27L39 27L39 28L40 28L40 29L41 29L41 27L42 27L42 28L44 28L44 27L42 27L42 26L44 26L44 25L45 25L45 24L47 24L47 25L46 25L46 26L45 26L45 30L44 30L44 33L45 33L45 34L46 34L46 35L45 35L45 36L44 36L44 37L42 37L42 38L44 38L44 39L45 39L45 40L46 40L46 41L47 41L47 42L46 42L46 43L47 43L47 42L50 42L50 43L49 43L49 44L43 44L43 43L42 43L42 42L44 42L44 43L45 43L45 42L44 42L44 41L43 41L43 39L42 39L42 40L41 40L41 39L40 39L40 41L42 41L42 42L41 42L41 43L42 43L42 45L43 45L43 46L45 46L45 48L44 48L44 49L43 49L43 47L40 47L40 46L41 46L41 45L38 45L38 44L40 44L40 42L39 42L39 41L37 41L37 40L38 40L38 39L39 39L39 38L37 38L37 37L38 37L38 36L37 36L37 37L34 37L34 36L36 36L36 35L35 35L35 33L33 33L33 31L32 31L32 30L33 30L33 29L32 29L32 30L31 30L31 33L33 33L33 35L34 35L34 36L32 36L32 35L31 35L31 34L30 34L30 35L29 35L29 33L30 33L30 32L29 32L29 31L26 31L26 33L25 33L25 34L24 34L24 35L22 35L22 34L23 34L23 33L24 33L24 32L23 32L23 33L22 33L22 34L21 34L21 33L20 33L20 34L19 34L19 32L22 32L22 31L23 31L23 30L21 30L21 29L24 29L24 30L26 30L26 28L25 28L25 25L29 25L29 26L31 26L31 24L26 24L26 23L27 23L27 22L28 22L28 23L29 23L29 22L28 22L28 21L27 21L27 20L29 20L29 19L28 19L28 18L29 18L29 17L30 17L30 19L32 19L32 20L30 20L30 21L31 21L31 22L30 22L30 23L32 23L32 22L33 22L33 24L32 24L32 25L33 25L33 24L35 24L35 23L36 23L36 24L37 24L37 22L35 22L35 21L33 21L33 18L31 18L31 16L29 16L29 15L28 15L28 16L29 16L29 17L24 17L24 18L23 18L23 16L24 16L24 15L23 15L23 14L25 14L25 13L26 13L26 16L27 16L27 13L26 13L26 12L28 12L28 13L30 13L30 14L31 14L31 15L32 15L32 16L33 16L33 15L35 15L35 14L37 14L37 13L35 13L35 12L34 12L34 14L33 14L33 15L32 15L32 14L31 14L31 12L32 12L32 13L33 13L33 10L34 10L34 11L35 11L35 10L36 10L36 12L38 12L38 10L40 10L40 9L38 9L38 10L37 10L37 8L36 8L36 9L34 9L34 6L35 6L35 7L36 7L36 6L37 6L37 7L38 7L38 6L37 6L37 5L36 5L36 4L34 4L34 5L33 5L33 3L32 3L32 4L31 4L31 2ZM27 5L27 8L30 8L30 5ZM8 6L8 7L9 7L9 6ZM24 6L24 7L25 7L25 6ZM28 6L28 7L29 7L29 6ZM32 6L32 8L33 8L33 6ZM48 6L48 7L49 7L49 6ZM8 8L8 10L9 10L9 8ZM12 8L12 9L13 9L13 8ZM15 8L15 9L16 9L16 8ZM17 8L17 9L18 9L18 8ZM56 8L56 9L57 9L57 8ZM15 10L15 11L16 11L16 13L17 13L17 12L18 12L18 13L19 13L19 14L18 14L18 15L17 15L17 14L16 14L16 15L15 15L15 16L14 16L14 15L13 15L13 17L11 17L11 16L10 16L10 15L8 15L8 16L9 16L9 19L8 19L8 20L9 20L9 21L12 21L12 20L9 20L9 19L11 19L11 18L15 18L15 19L13 19L13 22L12 22L12 24L14 24L14 23L15 23L15 24L16 24L16 23L17 23L17 27L19 27L19 28L18 28L18 29L20 29L20 27L21 27L21 26L22 26L22 27L23 27L23 28L24 28L24 27L23 27L23 25L25 25L25 22L27 22L27 21L25 21L25 22L24 22L24 21L23 21L23 20L21 20L21 22L19 22L19 23L17 23L17 22L18 22L18 21L17 21L17 20L20 20L20 19L23 19L23 18L22 18L22 17L21 17L21 15L20 15L20 14L21 14L21 13L20 13L20 12L18 12L18 10L17 10L17 11L16 11L16 10ZM42 10L42 11L43 11L43 10ZM55 10L55 11L57 11L57 10ZM30 11L30 12L31 12L31 11ZM51 11L51 12L50 12L50 13L51 13L51 12L52 12L52 13L53 13L53 11ZM22 12L22 13L23 13L23 12ZM56 12L56 13L57 13L57 12ZM6 14L6 15L7 15L7 14ZM54 14L54 15L52 15L52 16L55 16L55 17L54 17L54 18L52 18L52 19L56 19L56 20L57 20L57 19L56 19L56 18L57 18L57 15L55 15L55 14ZM16 15L16 16L17 16L17 17L19 17L19 19L20 19L20 18L21 18L21 17L19 17L19 16L20 16L20 15L18 15L18 16L17 16L17 15ZM1 17L1 19L2 19L2 17ZM10 17L10 18L11 18L11 17ZM15 17L15 18L16 18L16 17ZM36 17L36 18L37 18L37 17ZM55 17L55 18L56 18L56 17ZM6 18L6 19L7 19L7 18ZM17 18L17 19L16 19L16 20L14 20L14 22L15 22L15 23L16 23L16 20L17 20L17 19L18 19L18 18ZM24 18L24 19L25 19L25 20L27 20L27 19L25 19L25 18ZM44 18L44 19L45 19L45 18ZM6 20L6 21L7 21L7 20ZM41 20L41 21L42 21L42 20ZM22 21L22 22L21 22L21 23L20 23L20 24L19 24L19 25L18 25L18 26L19 26L19 25L20 25L20 24L21 24L21 25L23 25L23 24L21 24L21 23L22 23L22 22L23 22L23 21ZM5 22L5 23L7 23L7 24L6 24L6 25L7 25L7 24L8 24L8 22ZM55 24L55 25L56 25L56 24ZM12 25L12 26L13 26L13 27L14 27L14 28L15 28L15 29L16 29L16 30L17 30L17 28L15 28L15 27L16 27L16 25ZM34 25L34 27L35 27L35 28L34 28L34 29L35 29L35 30L36 30L36 31L37 31L37 32L36 32L36 33L37 33L37 32L38 32L38 34L39 34L39 31L40 31L40 32L41 32L41 31L43 31L43 29L42 29L42 30L41 30L41 31L40 31L40 30L39 30L39 29L38 29L38 30L36 30L36 29L37 29L37 27L35 27L35 25ZM5 27L5 30L8 30L8 27ZM27 27L27 30L30 30L30 27ZM31 27L31 28L33 28L33 27ZM49 27L49 30L52 30L52 27ZM56 27L56 28L57 28L57 27ZM6 28L6 29L7 29L7 28ZM10 28L10 29L11 29L11 28ZM28 28L28 29L29 29L29 28ZM47 28L47 29L48 29L48 28ZM50 28L50 29L51 29L51 28ZM53 28L53 29L54 29L54 28ZM2 30L2 33L3 33L3 32L5 32L5 35L4 35L4 34L3 34L3 35L2 35L2 38L3 38L3 35L4 35L4 36L5 36L5 37L4 37L4 38L5 38L5 37L6 37L6 38L7 38L7 37L6 37L6 36L8 36L8 37L9 37L9 36L11 36L11 35L9 35L9 33L8 33L8 34L7 34L7 33L6 33L6 32L7 32L7 31L4 31L4 30ZM9 30L9 31L8 31L8 32L9 32L9 31L10 31L10 32L12 32L12 31L11 31L11 30ZM38 30L38 31L39 31L39 30ZM53 30L53 31L52 31L52 34L54 34L54 33L53 33L53 31L54 31L54 32L55 32L55 31L54 31L54 30ZM13 31L13 33L14 33L14 32L15 32L15 31ZM27 32L27 33L26 33L26 34L25 34L25 35L26 35L26 36L29 36L29 38L26 38L26 39L27 39L27 40L26 40L26 41L25 41L25 39L24 39L24 37L25 37L25 36L23 36L23 39L24 39L24 40L23 40L23 41L22 41L22 44L21 44L21 42L20 42L20 44L19 44L19 45L17 45L17 47L16 47L16 46L13 46L13 47L15 47L15 48L14 48L14 50L16 50L16 48L17 48L17 50L21 50L21 49L20 49L20 48L18 48L18 46L20 46L20 45L21 45L21 46L22 46L22 47L21 47L21 48L23 48L23 49L22 49L22 50L23 50L23 49L24 49L24 48L23 48L23 47L25 47L25 45L26 45L26 46L27 46L27 47L29 47L29 46L32 46L32 45L31 45L31 44L32 44L32 42L33 42L33 45L34 45L34 44L35 44L35 46L34 46L34 47L38 47L38 45L36 45L36 43L34 43L34 42L36 42L36 41L34 41L34 40L35 40L35 39L36 39L36 38L34 38L34 37L33 37L33 38L32 38L32 36L29 36L29 35L28 35L28 34L27 34L27 33L28 33L28 32ZM42 32L42 33L43 33L43 32ZM46 32L46 33L47 33L47 32ZM55 33L55 34L56 34L56 33ZM6 34L6 35L5 35L5 36L6 36L6 35L7 35L7 34ZM17 34L17 35L15 35L15 36L18 36L18 34ZM26 34L26 35L27 35L27 34ZM41 34L41 35L39 35L39 36L40 36L40 37L41 37L41 35L42 35L42 36L43 36L43 35L44 35L44 34L43 34L43 35L42 35L42 34ZM8 35L8 36L9 36L9 35ZM19 35L19 36L20 36L20 35ZM21 35L21 36L22 36L22 35ZM54 35L54 36L55 36L55 37L56 37L56 35ZM51 36L51 38L52 38L52 39L50 39L50 40L47 40L47 39L49 39L49 38L46 38L46 37L45 37L45 39L46 39L46 40L47 40L47 41L50 41L50 40L52 40L52 39L53 39L53 38L52 38L52 36ZM30 38L30 39L28 39L28 41L30 41L30 42L31 42L31 40L33 40L33 39L34 39L34 38L33 38L33 39L32 39L32 38ZM16 39L16 40L15 40L15 41L17 41L17 39ZM56 40L56 41L57 41L57 40ZM0 41L0 43L1 43L1 41ZM24 41L24 42L23 42L23 43L24 43L24 42L25 42L25 43L26 43L26 45L27 45L27 44L28 44L28 46L29 46L29 44L28 44L28 43L27 43L27 42L25 42L25 41ZM37 42L37 44L38 44L38 43L39 43L39 42ZM30 43L30 44L31 44L31 43ZM12 44L12 45L13 45L13 44ZM22 44L22 46L23 46L23 45L24 45L24 44ZM1 45L1 47L2 47L2 46L3 46L3 47L5 47L5 46L3 46L3 45ZM55 45L55 46L56 46L56 45ZM32 47L32 48L33 48L33 49L32 49L32 50L34 50L34 48L33 48L33 47ZM50 47L50 48L51 48L51 47ZM35 48L35 52L36 52L36 51L39 51L39 50L40 50L40 49L39 49L39 48L38 48L38 49L37 49L37 48ZM41 48L41 49L42 49L42 48ZM56 48L56 49L57 49L57 48ZM8 49L8 50L9 50L9 49ZM27 49L27 52L30 52L30 49ZM36 49L36 50L37 50L37 49ZM49 49L49 52L52 52L52 49ZM28 50L28 51L29 51L29 50ZM50 50L50 51L51 51L51 50ZM40 51L40 52L41 52L41 51ZM54 52L54 53L55 53L55 52ZM9 53L9 56L11 56L11 55L10 55L10 53ZM11 53L11 54L13 54L13 53ZM48 53L48 54L50 54L50 53ZM24 55L24 57L25 57L25 55ZM39 55L39 56L40 56L40 55ZM48 55L48 56L49 56L49 55ZM56 55L56 56L57 56L57 55ZM0 0L0 7L7 7L7 0ZM1 1L1 6L6 6L6 1ZM2 2L2 5L5 5L5 2ZM50 0L50 7L57 7L57 0ZM51 1L51 6L56 6L56 1ZM52 2L52 5L55 5L55 2ZM0 50L0 57L7 57L7 50ZM1 51L1 56L6 56L6 51ZM2 52L2 55L5 55L5 52Z" fill="#000000"/></g></g></svg>
