<?xml version="1.0" encoding="UTF-8"?>
<svg xmlns="http://www.w3.org/2000/svg" version="1.1" width="300" height="300" viewBox="0 0 300 300"><rect x="0" y="0" width="300" height="300" fill="#fefefe"/><g transform="scale(4.615)"><g transform="translate(4,4)"><path fill-rule="evenodd" d="M9 0L9 1L8 1L8 2L9 2L9 3L8 3L8 4L9 4L9 5L8 5L8 7L9 7L9 5L10 5L10 4L9 4L9 3L11 3L11 6L10 6L10 7L11 7L11 8L6 8L6 9L7 9L7 10L5 10L5 8L0 8L0 10L1 10L1 11L0 11L0 12L1 12L1 15L2 15L2 17L1 17L1 16L0 16L0 17L1 17L1 18L0 18L0 19L2 19L2 18L3 18L3 17L4 17L4 19L3 19L3 20L2 20L2 21L1 21L1 22L2 22L2 23L3 23L3 26L2 26L2 25L0 25L0 27L1 27L1 28L0 28L0 29L1 29L1 28L3 28L3 29L4 29L4 30L2 30L2 31L1 31L1 30L0 30L0 34L1 34L1 36L2 36L2 34L1 34L1 32L2 32L2 31L4 31L4 33L5 33L5 34L3 34L3 35L7 35L7 36L3 36L3 37L1 37L1 39L0 39L0 40L1 40L1 45L0 45L0 48L5 48L5 47L8 47L8 46L10 46L10 45L9 45L9 44L13 44L13 46L12 46L12 47L13 47L13 48L11 48L11 49L10 49L10 48L6 48L6 49L8 49L8 51L11 51L11 49L13 49L13 51L12 51L12 55L13 55L13 57L16 57L16 56L17 56L17 57L19 57L19 55L20 55L20 54L19 54L19 53L20 53L20 52L22 52L22 51L21 51L21 50L25 50L25 51L26 51L26 52L24 52L24 53L23 53L23 54L22 54L22 53L21 53L21 54L22 54L22 55L21 55L21 56L20 56L20 57L21 57L21 56L23 56L23 57L26 57L26 55L27 55L27 54L30 54L30 53L31 53L31 51L32 51L32 52L33 52L33 51L34 51L34 50L33 50L33 49L36 49L36 50L35 50L35 52L34 52L34 53L35 53L35 54L36 54L36 56L35 56L35 55L34 55L34 54L33 54L33 53L32 53L32 54L31 54L31 56L30 56L30 55L29 55L29 56L27 56L27 57L29 57L29 56L30 56L30 57L31 57L31 56L35 56L35 57L39 57L39 56L41 56L41 57L44 57L44 56L41 56L41 55L44 55L44 54L45 54L45 53L47 53L47 51L46 51L46 50L45 50L45 51L44 51L44 48L43 48L43 47L42 47L42 48L41 48L41 46L43 46L43 45L44 45L44 47L47 47L47 48L46 48L46 49L47 49L47 50L48 50L48 54L46 54L46 55L45 55L45 57L47 57L47 56L48 56L48 57L49 57L49 56L50 56L50 57L52 57L52 55L51 55L51 53L52 53L52 54L54 54L54 55L53 55L53 56L55 56L55 57L56 57L56 56L55 56L55 54L54 54L54 53L57 53L57 51L56 51L56 49L57 49L57 48L56 48L56 46L57 46L57 45L56 45L56 44L55 44L55 43L56 43L56 41L53 41L53 40L55 40L55 39L57 39L57 37L56 37L56 36L57 36L57 35L56 35L56 34L57 34L57 32L56 32L56 30L57 30L57 29L56 29L56 27L55 27L55 26L57 26L57 25L56 25L56 22L57 22L57 21L56 21L56 22L55 22L55 23L53 23L53 21L51 21L51 20L52 20L52 19L53 19L53 20L55 20L55 19L56 19L56 16L57 16L57 15L56 15L56 14L57 14L57 13L56 13L56 14L55 14L55 13L54 13L54 12L55 12L55 11L56 11L56 12L57 12L57 11L56 11L56 8L55 8L55 10L54 10L54 11L50 11L50 8L47 8L47 5L48 5L48 0L46 0L46 1L45 1L45 2L44 2L44 3L42 3L42 2L43 2L43 0L41 0L41 1L40 1L40 0L39 0L39 1L38 1L38 0L37 0L37 1L38 1L38 3L36 3L36 0L35 0L35 1L33 1L33 0L27 0L27 1L26 1L26 0L23 0L23 2L22 2L22 0L21 0L21 2L20 2L20 0L19 0L19 1L16 1L16 2L17 2L17 4L19 4L19 5L20 5L20 7L19 7L19 6L18 6L18 5L17 5L17 6L16 6L16 7L15 7L15 6L14 6L14 5L13 5L13 4L14 4L14 2L15 2L15 1L14 1L14 2L12 2L12 1L13 1L13 0L12 0L12 1L11 1L11 0ZM9 1L9 2L10 2L10 1ZM25 1L25 2L23 2L23 3L20 3L20 2L18 2L18 3L19 3L19 4L23 4L23 5L21 5L21 7L22 7L22 8L19 8L19 9L18 9L18 8L17 8L17 7L18 7L18 6L17 6L17 7L16 7L16 8L14 8L14 9L12 9L12 10L11 10L11 9L9 9L9 10L8 10L8 11L9 11L9 10L11 10L11 11L10 11L10 12L14 12L14 11L13 11L13 10L15 10L15 13L11 13L11 14L9 14L9 12L7 12L7 11L5 11L5 12L4 12L4 9L3 9L3 10L2 10L2 11L1 11L1 12L2 12L2 11L3 11L3 13L2 13L2 15L4 15L4 14L5 14L5 15L6 15L6 16L9 16L9 15L13 15L13 16L11 16L11 17L8 17L8 18L10 18L10 19L5 19L5 20L4 20L4 21L3 21L3 23L4 23L4 25L5 25L5 26L8 26L8 25L10 25L10 26L9 26L9 31L6 31L6 32L5 32L5 33L6 33L6 34L7 34L7 35L8 35L8 36L7 36L7 37L6 37L6 38L5 38L5 40L4 40L4 41L5 41L5 44L8 44L8 43L10 43L10 42L13 42L13 41L14 41L14 42L15 42L15 43L13 43L13 44L14 44L14 46L13 46L13 47L14 47L14 48L15 48L15 49L16 49L16 50L15 50L15 51L14 51L14 53L13 53L13 54L14 54L14 56L16 56L16 55L15 55L15 54L16 54L16 53L17 53L17 52L16 52L16 53L15 53L15 51L18 51L18 52L19 52L19 51L20 51L20 50L21 50L21 49L23 49L23 47L24 47L24 46L23 46L23 45L24 45L24 44L23 44L23 45L22 45L22 44L19 44L19 45L20 45L20 46L19 46L19 48L20 48L20 50L19 50L19 51L18 51L18 50L17 50L17 49L16 49L16 48L17 48L17 45L18 45L18 44L16 44L16 42L17 42L17 43L18 43L18 42L19 42L19 41L20 41L20 43L22 43L22 42L24 42L24 41L25 41L25 43L27 43L27 44L25 44L25 48L24 48L24 49L25 49L25 48L27 48L27 47L26 47L26 45L28 45L28 46L29 46L29 45L28 45L28 43L29 43L29 41L31 41L31 42L32 42L32 43L33 43L33 44L32 44L32 47L33 47L33 48L32 48L32 49L31 49L31 50L32 50L32 49L33 49L33 48L36 48L36 47L37 47L37 45L34 45L34 43L35 43L35 44L36 44L36 43L37 43L37 42L35 42L35 40L38 40L38 42L39 42L39 43L40 43L40 44L39 44L39 45L38 45L38 46L39 46L39 45L41 45L41 44L42 44L42 43L40 43L40 42L41 42L41 41L42 41L42 39L45 39L45 38L46 38L46 39L47 39L47 41L45 41L45 40L43 40L43 41L44 41L44 42L43 42L43 44L44 44L44 45L45 45L45 46L47 46L47 47L48 47L48 48L47 48L47 49L48 49L48 48L49 48L49 47L51 47L51 46L53 46L53 45L51 45L51 46L50 46L50 43L51 43L51 44L53 44L53 43L54 43L54 42L53 42L53 41L51 41L51 42L50 42L50 43L48 43L48 44L47 44L47 45L45 45L45 44L46 44L46 43L44 43L44 42L48 42L48 41L49 41L49 39L52 39L52 38L53 38L53 39L54 39L54 38L53 38L53 35L55 35L55 36L56 36L56 35L55 35L55 34L54 34L54 33L52 33L52 32L51 32L51 31L50 31L50 32L49 32L49 31L48 31L48 29L46 29L46 30L47 30L47 31L46 31L46 32L47 32L47 33L45 33L45 32L43 32L43 30L44 30L44 31L45 31L45 30L44 30L44 29L45 29L45 28L46 28L46 27L47 27L47 28L48 28L48 26L47 26L47 25L46 25L46 24L45 24L45 23L46 23L46 22L47 22L47 21L49 21L49 23L48 23L48 24L49 24L49 25L50 25L50 26L51 26L51 25L53 25L53 23L50 23L50 22L51 22L51 21L49 21L49 20L47 20L47 19L48 19L48 18L47 18L47 17L48 17L48 16L49 16L49 15L50 15L50 16L51 16L51 17L50 17L50 18L49 18L49 19L51 19L51 17L53 17L53 18L55 18L55 17L53 17L53 15L52 15L52 16L51 16L51 15L50 15L50 14L51 14L51 12L50 12L50 11L49 11L49 10L48 10L48 11L49 11L49 12L45 12L45 11L42 11L42 10L41 10L41 12L39 12L39 13L38 13L38 14L37 14L37 15L35 15L35 16L33 16L33 15L32 15L32 13L33 13L33 14L36 14L36 13L35 13L35 12L37 12L37 11L36 11L36 10L37 10L37 9L38 9L38 10L40 10L40 9L41 9L41 7L42 7L42 6L43 6L43 8L42 8L42 9L43 9L43 8L44 8L44 9L45 9L45 10L47 10L47 9L45 9L45 7L46 7L46 6L45 6L45 4L46 4L46 5L47 5L47 3L44 3L44 6L43 6L43 5L40 5L40 4L41 4L41 3L38 3L38 6L37 6L37 7L36 7L36 5L37 5L37 4L36 4L36 5L35 5L35 4L34 4L34 3L35 3L35 2L33 2L33 1L30 1L30 2L31 2L31 3L30 3L30 4L31 4L31 8L32 8L32 10L31 10L31 11L29 11L29 12L28 12L28 13L26 13L26 12L27 12L27 11L28 11L28 10L29 10L29 9L28 9L28 10L27 10L27 11L26 11L26 12L25 12L25 10L24 10L24 13L22 13L22 12L20 12L20 11L22 11L22 10L23 10L23 9L24 9L24 6L23 6L23 5L24 5L24 4L23 4L23 3L26 3L26 4L25 4L25 8L26 8L26 4L29 4L29 3L28 3L28 2L29 2L29 1L27 1L27 2L26 2L26 1ZM46 1L46 2L47 2L47 1ZM11 2L11 3L12 3L12 4L13 4L13 3L12 3L12 2ZM32 2L32 3L31 3L31 4L32 4L32 5L34 5L34 7L33 7L33 6L32 6L32 7L33 7L33 9L34 9L34 8L35 8L35 9L37 9L37 8L38 8L38 9L39 9L39 8L40 8L40 7L41 7L41 6L40 6L40 5L39 5L39 6L38 6L38 7L37 7L37 8L35 8L35 5L34 5L34 4L32 4L32 3L33 3L33 2ZM15 4L15 5L16 5L16 4ZM12 5L12 6L11 6L11 7L12 7L12 6L13 6L13 7L14 7L14 6L13 6L13 5ZM27 5L27 8L30 8L30 5ZM22 6L22 7L23 7L23 6ZM28 6L28 7L29 7L29 6ZM39 6L39 7L40 7L40 6ZM44 6L44 7L45 7L45 6ZM48 6L48 7L49 7L49 6ZM16 8L16 9L17 9L17 10L18 10L18 11L17 11L17 12L16 12L16 13L15 13L15 14L13 14L13 15L14 15L14 16L13 16L13 17L14 17L14 16L16 16L16 13L17 13L17 14L19 14L19 16L17 16L17 18L15 18L15 21L16 21L16 22L14 22L14 21L12 21L12 19L10 19L10 20L9 20L9 21L8 21L8 22L6 22L6 23L9 23L9 24L10 24L10 25L11 25L11 23L12 23L12 22L14 22L14 24L15 24L15 25L13 25L13 24L12 24L12 27L10 27L10 28L11 28L11 29L12 29L12 30L10 30L10 31L9 31L9 35L10 35L10 34L12 34L12 35L13 35L13 36L14 36L14 37L13 37L13 39L9 39L9 38L8 38L8 40L6 40L6 41L8 41L8 42L6 42L6 43L8 43L8 42L10 42L10 41L11 41L11 40L14 40L14 41L15 41L15 40L16 40L16 39L15 39L15 38L16 38L16 37L15 37L15 36L16 36L16 34L15 34L15 32L14 32L14 33L12 33L12 32L13 32L13 31L16 31L16 29L18 29L18 31L20 31L20 33L19 33L19 32L18 32L18 33L17 33L17 36L18 36L18 37L17 37L17 38L18 38L18 39L19 39L19 40L17 40L17 41L19 41L19 40L22 40L22 39L24 39L24 40L23 40L23 41L24 41L24 40L25 40L25 39L27 39L27 41L26 41L26 42L27 42L27 41L29 41L29 40L28 40L28 39L27 39L27 38L28 38L28 37L26 37L26 38L25 38L25 36L27 36L27 33L26 33L26 32L28 32L28 33L29 33L29 34L30 34L30 36L29 36L29 37L31 37L31 38L29 38L29 39L33 39L33 40L35 40L35 39L38 39L38 40L39 40L39 39L38 39L38 36L39 36L39 37L40 37L40 38L41 38L41 39L42 39L42 38L43 38L43 37L44 37L44 38L45 38L45 37L44 37L44 36L47 36L47 35L44 35L44 33L43 33L43 32L41 32L41 33L39 33L39 34L40 34L40 35L38 35L38 33L37 33L37 32L35 32L35 34L37 34L37 36L35 36L35 35L31 35L31 34L33 34L33 33L34 33L34 32L33 32L33 33L32 33L32 32L31 32L31 33L29 33L29 32L28 32L28 31L31 31L31 29L32 29L32 27L33 27L33 28L35 28L35 30L32 30L32 31L36 31L36 30L37 30L37 29L38 29L38 28L39 28L39 27L41 27L41 28L42 28L42 26L43 26L43 25L44 25L44 26L45 26L45 25L44 25L44 24L42 24L42 23L44 23L44 20L46 20L46 19L47 19L47 18L46 18L46 17L45 17L45 18L44 18L44 15L45 15L45 16L48 16L48 15L49 15L49 14L50 14L50 12L49 12L49 13L47 13L47 14L43 14L43 13L44 13L44 12L43 12L43 13L39 13L39 14L38 14L38 15L39 15L39 16L38 16L38 17L37 17L37 16L35 16L35 17L37 17L37 18L38 18L38 17L39 17L39 19L38 19L38 20L36 20L36 19L35 19L35 23L32 23L32 24L31 24L31 23L30 23L30 22L31 22L31 21L32 21L32 20L33 20L33 17L32 17L32 15L30 15L30 14L31 14L31 13L32 13L32 11L33 11L33 10L32 10L32 11L31 11L31 13L30 13L30 14L29 14L29 13L28 13L28 14L29 14L29 16L28 16L28 15L27 15L27 16L28 16L28 17L26 17L26 13L24 13L24 14L25 14L25 17L22 17L22 16L21 16L21 17L22 17L22 19L21 19L21 18L20 18L20 12L19 12L19 11L20 11L20 9L19 9L19 10L18 10L18 9L17 9L17 8ZM51 8L51 9L52 9L52 10L53 10L53 9L54 9L54 8L53 8L53 9L52 9L52 8ZM21 9L21 10L22 10L22 9ZM5 12L5 13L7 13L7 12ZM17 12L17 13L18 13L18 12ZM33 12L33 13L34 13L34 12ZM52 12L52 13L53 13L53 14L54 14L54 15L55 15L55 14L54 14L54 13L53 13L53 12ZM3 13L3 14L4 14L4 13ZM21 13L21 15L23 15L23 14L22 14L22 13ZM6 14L6 15L7 15L7 14ZM40 14L40 15L41 15L41 16L39 16L39 17L41 17L41 16L42 16L42 17L43 17L43 16L42 16L42 15L43 15L43 14ZM6 17L6 18L7 18L7 17ZM25 17L25 19L26 19L26 21L29 21L29 20L30 20L30 21L31 21L31 20L30 20L30 19L31 19L31 18L30 18L30 19L28 19L28 18L27 18L27 19L26 19L26 17ZM18 18L18 19L16 19L16 21L17 21L17 20L19 20L19 18ZM23 18L23 19L22 19L22 21L21 21L21 20L20 20L20 21L19 21L19 22L20 22L20 23L18 23L18 22L17 22L17 24L16 24L16 23L15 23L15 24L16 24L16 25L15 25L15 26L14 26L14 28L13 28L13 27L12 27L12 29L13 29L13 30L14 30L14 29L16 29L16 28L18 28L18 29L19 29L19 30L20 30L20 31L23 31L23 28L24 28L24 27L23 27L23 26L22 26L22 27L21 27L21 25L24 25L24 24L25 24L25 25L26 25L26 26L25 26L25 27L26 27L26 26L27 26L27 25L31 25L31 24L25 24L25 23L26 23L26 22L25 22L25 21L24 21L24 20L23 20L23 19L24 19L24 18ZM41 18L41 19L42 19L42 20L44 20L44 18L43 18L43 19L42 19L42 18ZM45 18L45 19L46 19L46 18ZM13 19L13 20L14 20L14 19ZM5 20L5 21L7 21L7 20ZM38 20L38 22L37 22L37 24L38 24L38 26L37 26L37 25L33 25L33 24L32 24L32 26L31 26L31 27L32 27L32 26L33 26L33 27L34 27L34 26L36 26L36 27L39 27L39 25L41 25L41 26L42 26L42 25L41 25L41 24L38 24L38 22L39 22L39 23L40 23L40 22L39 22L39 21L41 21L41 20ZM10 21L10 22L11 22L11 21ZM22 21L22 22L24 22L24 21ZM4 22L4 23L5 23L5 22ZM41 22L41 23L42 23L42 22ZM21 23L21 24L17 24L17 26L16 26L16 27L18 27L18 26L19 26L19 27L20 27L20 28L19 28L19 29L22 29L22 28L21 28L21 27L20 27L20 25L21 25L21 24L24 24L24 23ZM49 23L49 24L50 24L50 23ZM5 24L5 25L7 25L7 24ZM3 26L3 28L4 28L4 26ZM53 26L53 27L54 27L54 26ZM5 27L5 30L8 30L8 27ZM27 27L27 30L30 30L30 27ZM44 27L44 28L43 28L43 29L41 29L41 30L43 30L43 29L44 29L44 28L45 28L45 27ZM49 27L49 30L52 30L52 27ZM6 28L6 29L7 29L7 28ZM25 28L25 29L26 29L26 28ZM28 28L28 29L29 29L29 28ZM50 28L50 29L51 29L51 28ZM54 28L54 29L53 29L53 30L54 30L54 31L55 31L55 30L54 30L54 29L55 29L55 28ZM39 29L39 30L38 30L38 32L39 32L39 30L40 30L40 29ZM24 30L24 32L21 32L21 33L20 33L20 34L19 34L19 33L18 33L18 34L19 34L19 35L20 35L20 36L19 36L19 37L18 37L18 38L19 38L19 39L20 39L20 38L19 38L19 37L23 37L23 38L24 38L24 37L23 37L23 36L24 36L24 34L23 34L23 33L25 33L25 35L26 35L26 33L25 33L25 32L26 32L26 31L25 31L25 30ZM10 31L10 32L11 32L11 31ZM47 31L47 32L48 32L48 33L49 33L49 32L48 32L48 31ZM6 32L6 33L7 33L7 32ZM50 32L50 34L48 34L48 35L50 35L50 36L49 36L49 38L47 38L47 39L49 39L49 38L50 38L50 37L51 37L51 36L52 36L52 35L53 35L53 34L52 34L52 33L51 33L51 32ZM55 32L55 33L56 33L56 32ZM21 33L21 34L20 34L20 35L22 35L22 36L23 36L23 35L22 35L22 33ZM14 34L14 35L15 35L15 34ZM42 34L42 36L44 36L44 35L43 35L43 34ZM50 34L50 35L52 35L52 34ZM8 36L8 37L10 37L10 38L12 38L12 37L11 37L11 36ZM32 36L32 37L33 37L33 38L34 38L34 39L35 39L35 37L33 37L33 36ZM40 36L40 37L41 37L41 38L42 38L42 37L41 37L41 36ZM3 37L3 38L2 38L2 41L3 41L3 38L4 38L4 37ZM6 38L6 39L7 39L7 38ZM31 40L31 41L32 41L32 42L33 42L33 43L34 43L34 42L33 42L33 41L32 41L32 40ZM21 41L21 42L22 42L22 41ZM2 42L2 43L3 43L3 44L2 44L2 46L1 46L1 47L2 47L2 46L3 46L3 47L5 47L5 46L3 46L3 45L4 45L4 43L3 43L3 42ZM51 42L51 43L53 43L53 42ZM30 44L30 45L31 45L31 44ZM54 44L54 45L55 45L55 46L56 46L56 45L55 45L55 44ZM6 45L6 46L8 46L8 45ZM21 45L21 47L20 47L20 48L21 48L21 47L23 47L23 46L22 46L22 45ZM47 45L47 46L48 46L48 47L49 47L49 45ZM33 46L33 47L35 47L35 46ZM15 47L15 48L16 48L16 47ZM28 47L28 48L30 48L30 47ZM38 47L38 48L37 48L37 49L38 49L38 50L36 50L36 52L37 52L37 53L38 53L38 54L37 54L37 56L39 56L39 55L38 55L38 54L40 54L40 53L41 53L41 52L42 52L42 53L43 53L43 54L44 54L44 53L45 53L45 52L46 52L46 51L45 51L45 52L44 52L44 53L43 53L43 52L42 52L42 50L41 50L41 48L39 48L39 47ZM52 47L52 48L53 48L53 47ZM38 48L38 49L39 49L39 48ZM42 48L42 49L43 49L43 48ZM55 48L55 49L56 49L56 48ZM9 49L9 50L10 50L10 49ZM27 49L27 52L30 52L30 49ZM49 49L49 52L52 52L52 49ZM28 50L28 51L29 51L29 50ZM38 50L38 51L40 51L40 52L41 52L41 50ZM50 50L50 51L51 51L51 50ZM54 50L54 51L55 51L55 50ZM8 52L8 57L9 57L9 56L11 56L11 57L12 57L12 56L11 56L11 55L9 55L9 54L11 54L11 53L10 53L10 52ZM38 52L38 53L39 53L39 52ZM53 52L53 53L54 53L54 52ZM14 53L14 54L15 54L15 53ZM24 53L24 54L23 54L23 55L24 55L24 56L25 56L25 54L26 54L26 53ZM17 54L17 55L19 55L19 54ZM50 55L50 56L51 56L51 55ZM0 0L0 7L7 7L7 0ZM1 1L1 6L6 6L6 1ZM2 2L2 5L5 5L5 2ZM50 0L50 7L57 7L57 0ZM51 1L51 6L56 6L56 1ZM52 2L52 5L55 5L55 2ZM0 50L0 57L7 57L7 50ZM1 51L1 56L6 56L6 51ZM2 52L2 55L5 55L5 52Z" fill="#000000"/></g></g></svg>
