<?xml version="1.0" encoding="UTF-8"?>
<svg xmlns="http://www.w3.org/2000/svg" version="1.1" width="300" height="300" viewBox="0 0 300 300"><rect x="0" y="0" width="300" height="300" fill="#fefefe"/><g transform="scale(4.615)"><g transform="translate(4,4)"><path fill-rule="evenodd" d="M9 0L9 1L8 1L8 2L9 2L9 3L8 3L8 4L10 4L10 5L8 5L8 7L9 7L9 6L10 6L10 8L6 8L6 9L5 9L5 8L0 8L0 11L1 11L1 9L2 9L2 11L3 11L3 12L2 12L2 13L3 13L3 12L5 12L5 11L7 11L7 12L6 12L6 13L7 13L7 12L8 12L8 14L9 14L9 15L10 15L10 16L9 16L9 18L10 18L10 19L9 19L9 20L8 20L8 19L7 19L7 18L8 18L8 16L6 16L6 15L7 15L7 14L5 14L5 13L4 13L4 15L2 15L2 16L1 16L1 12L0 12L0 19L1 19L1 20L0 20L0 22L1 22L1 24L0 24L0 25L3 25L3 26L2 26L2 30L1 30L1 27L0 27L0 31L1 31L1 32L0 32L0 33L3 33L3 34L5 34L5 32L6 32L6 33L7 33L7 34L6 34L6 35L4 35L4 36L3 36L3 35L2 35L2 34L0 34L0 36L1 36L1 35L2 35L2 37L0 37L0 39L1 39L1 40L0 40L0 41L1 41L1 42L0 42L0 43L1 43L1 44L0 44L0 45L1 45L1 46L0 46L0 48L5 48L5 47L7 47L7 48L6 48L6 49L7 49L7 48L10 48L10 47L9 47L9 46L13 46L13 47L11 47L11 48L13 48L13 49L10 49L10 50L9 50L9 49L8 49L8 51L10 51L10 52L8 52L8 57L9 57L9 55L10 55L10 56L11 56L11 57L13 57L13 55L14 55L14 54L15 54L15 55L16 55L16 56L17 56L17 57L20 57L20 56L18 56L18 55L17 55L17 54L19 54L19 55L20 55L20 54L19 54L19 53L20 53L20 52L21 52L21 51L20 51L20 50L19 50L19 49L21 49L21 50L22 50L22 51L23 51L23 50L26 50L26 52L24 52L24 53L21 53L21 56L24 56L24 57L26 57L26 55L27 55L27 54L30 54L30 53L31 53L31 49L32 49L32 50L33 50L33 49L34 49L34 48L35 48L35 49L36 49L36 50L35 50L35 54L36 54L36 56L35 56L35 55L34 55L34 54L33 54L33 53L34 53L34 52L33 52L33 51L32 51L32 52L33 52L33 53L32 53L32 54L31 54L31 56L30 56L30 55L29 55L29 56L27 56L27 57L29 57L29 56L30 56L30 57L31 57L31 56L35 56L35 57L39 57L39 56L37 56L37 55L41 55L41 54L42 54L42 55L43 55L43 56L41 56L41 57L44 57L44 54L45 54L45 55L46 55L46 54L45 54L45 53L47 53L47 51L46 51L46 52L45 52L45 51L44 51L44 50L45 50L45 49L47 49L47 50L48 50L48 54L47 54L47 55L48 55L48 57L49 57L49 56L50 56L50 57L52 57L52 55L51 55L51 53L52 53L52 54L53 54L53 55L54 55L54 56L53 56L53 57L54 57L54 56L55 56L55 57L56 57L56 56L55 56L55 54L53 54L53 52L54 52L54 53L57 53L57 52L56 52L56 50L57 50L57 48L56 48L56 46L57 46L57 45L56 45L56 44L57 44L57 43L56 43L56 41L55 41L55 39L57 39L57 36L55 36L55 35L56 35L56 34L57 34L57 32L56 32L56 30L57 30L57 29L56 29L56 26L57 26L57 25L56 25L56 22L57 22L57 20L55 20L55 19L56 19L56 18L53 18L53 17L51 17L51 19L49 19L49 18L50 18L50 17L47 17L47 18L48 18L48 19L47 19L47 20L46 20L46 18L44 18L44 15L42 15L42 16L41 16L41 15L39 15L39 14L38 14L38 13L40 13L40 14L45 14L45 17L46 17L46 16L48 16L48 15L49 15L49 16L50 16L50 15L53 15L53 16L55 16L55 17L56 17L56 16L57 16L57 15L56 15L56 14L57 14L57 12L56 12L56 14L53 14L53 13L54 13L54 12L55 12L55 11L56 11L56 10L54 10L54 11L52 11L52 10L50 10L50 8L49 8L49 6L48 6L48 8L47 8L47 5L48 5L48 0L46 0L46 1L45 1L45 2L44 2L44 3L43 3L43 4L40 4L40 5L39 5L39 6L38 6L38 7L37 7L37 5L38 5L38 3L36 3L36 0L35 0L35 1L33 1L33 0L32 0L32 1L33 1L33 2L32 2L32 3L31 3L31 2L28 2L28 3L29 3L29 4L26 4L26 3L23 3L23 2L27 2L27 1L26 1L26 0L23 0L23 2L22 2L22 3L21 3L21 4L19 4L19 3L20 3L20 2L21 2L21 1L22 1L22 0L21 0L21 1L20 1L20 0L18 0L18 2L17 2L17 3L18 3L18 4L17 4L17 5L18 5L18 4L19 4L19 5L20 5L20 7L19 7L19 6L18 6L18 7L19 7L19 8L16 8L16 7L17 7L17 6L16 6L16 7L15 7L15 6L14 6L14 7L15 7L15 8L16 8L16 9L15 9L15 10L13 10L13 9L14 9L14 8L13 8L13 9L12 9L12 10L11 10L11 11L10 11L10 10L9 10L9 9L10 9L10 8L12 8L12 7L13 7L13 4L14 4L14 2L15 2L15 3L16 3L16 2L15 2L15 1L14 1L14 2L13 2L13 0L11 0L11 1L10 1L10 0ZM28 0L28 1L31 1L31 0ZM37 0L37 1L38 1L38 2L39 2L39 3L42 3L42 2L43 2L43 0L41 0L41 1L40 1L40 0L39 0L39 1L38 1L38 0ZM9 1L9 2L10 2L10 3L11 3L11 4L12 4L12 3L13 3L13 2L10 2L10 1ZM46 1L46 2L47 2L47 1ZM34 2L34 3L32 3L32 4L31 4L31 3L30 3L30 4L31 4L31 8L32 8L32 10L31 10L31 11L29 11L29 10L27 10L27 11L26 11L26 12L25 12L25 10L23 10L23 12L25 12L25 14L23 14L23 13L22 13L22 12L21 12L21 11L22 11L22 10L21 10L21 9L23 9L23 8L24 8L24 6L23 6L23 5L24 5L24 4L23 4L23 3L22 3L22 4L21 4L21 7L22 7L22 8L20 8L20 10L19 10L19 11L20 11L20 12L19 12L19 13L20 13L20 14L19 14L19 15L18 15L18 16L20 16L20 18L22 18L22 19L19 19L19 20L20 20L20 21L18 21L18 18L17 18L17 17L15 17L15 15L14 15L14 18L13 18L13 17L12 17L12 16L10 16L10 17L12 17L12 19L10 19L10 20L9 20L9 21L8 21L8 22L7 22L7 21L5 21L5 20L7 20L7 19L6 19L6 18L7 18L7 17L6 17L6 16L2 16L2 17L1 17L1 19L2 19L2 20L1 20L1 21L2 21L2 20L3 20L3 19L2 19L2 18L4 18L4 21L5 21L5 22L7 22L7 23L6 23L6 24L7 24L7 25L6 25L6 26L8 26L8 24L9 24L9 25L10 25L10 24L11 24L11 27L14 27L14 26L15 26L15 29L16 29L16 31L15 31L15 30L12 30L12 29L14 29L14 28L11 28L11 29L10 29L10 31L11 31L11 30L12 30L12 31L13 31L13 32L15 32L15 33L11 33L11 32L9 32L9 31L8 31L8 32L7 32L7 31L6 31L6 32L7 32L7 33L8 33L8 34L9 34L9 35L8 35L8 36L9 36L9 37L6 37L6 36L7 36L7 35L6 35L6 36L5 36L5 37L6 37L6 38L4 38L4 37L2 37L2 38L4 38L4 39L3 39L3 40L4 40L4 41L3 41L3 42L4 42L4 41L5 41L5 44L9 44L9 45L12 45L12 44L11 44L11 42L14 42L14 39L13 39L13 38L12 38L12 39L13 39L13 40L12 40L12 41L11 41L11 39L10 39L10 38L9 38L9 37L10 37L10 34L9 34L9 33L11 33L11 34L13 34L13 35L11 35L11 36L13 36L13 37L16 37L16 38L15 38L15 39L16 39L16 40L15 40L15 43L18 43L18 42L19 42L19 43L20 43L20 44L19 44L19 45L20 45L20 46L21 46L21 45L22 45L22 46L23 46L23 47L21 47L21 49L23 49L23 48L24 48L24 49L25 49L25 48L27 48L27 47L26 47L26 45L28 45L28 46L29 46L29 45L28 45L28 43L29 43L29 42L32 42L32 43L33 43L33 44L30 44L30 45L32 45L32 46L35 46L35 48L36 48L36 46L37 46L37 45L36 45L36 46L35 46L35 45L34 45L34 43L37 43L37 42L35 42L35 40L38 40L38 42L39 42L39 43L40 43L40 44L39 44L39 45L38 45L38 46L39 46L39 47L38 47L38 48L37 48L37 49L38 49L38 50L36 50L36 52L38 52L38 53L37 53L37 54L40 54L40 53L41 53L41 52L42 52L42 53L43 53L43 54L44 54L44 53L45 53L45 52L44 52L44 53L43 53L43 51L42 51L42 50L41 50L41 48L42 48L42 49L43 49L43 48L44 48L44 49L45 49L45 48L44 48L44 47L45 47L45 46L50 46L50 47L48 47L48 48L47 48L47 47L46 47L46 48L47 48L47 49L48 49L48 48L50 48L50 47L51 47L51 46L53 46L53 47L55 47L55 46L56 46L56 45L55 45L55 44L54 44L54 46L53 46L53 45L51 45L51 46L50 46L50 43L51 43L51 44L53 44L53 43L54 43L54 42L53 42L53 41L51 41L51 42L50 42L50 43L48 43L48 44L47 44L47 45L45 45L45 44L46 44L46 43L47 43L47 42L48 42L48 41L49 41L49 39L51 39L51 40L53 40L53 39L55 39L55 38L54 38L54 37L53 37L53 35L55 35L55 34L56 34L56 32L53 32L53 33L52 33L52 32L51 32L51 31L50 31L50 32L49 32L49 31L48 31L48 29L46 29L46 30L47 30L47 31L46 31L46 32L47 32L47 33L45 33L45 32L43 32L43 30L41 30L41 29L44 29L44 30L45 30L45 28L46 28L46 27L47 27L47 28L48 28L48 26L47 26L47 25L49 25L49 23L50 23L50 22L51 22L51 21L54 21L54 22L56 22L56 21L55 21L55 20L53 20L53 19L52 19L52 20L51 20L51 21L49 21L49 20L48 20L48 21L45 21L45 20L44 20L44 18L43 18L43 20L42 20L42 21L43 21L43 20L44 20L44 23L41 23L41 24L39 24L39 23L40 23L40 22L39 22L39 21L41 21L41 20L39 20L39 21L38 21L38 23L37 23L37 24L39 24L39 25L38 25L38 26L37 26L37 25L33 25L33 24L32 24L32 23L33 23L33 22L34 22L34 23L35 23L35 19L36 19L36 20L37 20L37 19L39 19L39 17L41 17L41 16L39 16L39 15L38 15L38 14L37 14L37 15L35 15L35 16L31 16L31 18L30 18L30 21L31 21L31 22L30 22L30 23L28 23L28 24L25 24L25 23L26 23L26 22L25 22L25 21L29 21L29 20L27 20L27 19L28 19L28 18L27 18L27 17L28 17L28 16L29 16L29 14L30 14L30 15L31 15L31 14L30 14L30 13L31 13L31 11L32 11L32 13L33 13L33 14L36 14L36 13L35 13L35 11L36 11L36 10L37 10L37 9L35 9L35 8L37 8L37 7L36 7L36 5L37 5L37 4L36 4L36 5L35 5L35 2ZM44 3L44 6L43 6L43 7L44 7L44 9L43 9L43 8L42 8L42 9L43 9L43 10L44 10L44 9L45 9L45 10L47 10L47 8L46 8L46 9L45 9L45 7L46 7L46 5L47 5L47 3ZM15 4L15 5L16 5L16 4ZM22 4L22 5L23 5L23 4ZM25 4L25 8L26 8L26 4ZM32 4L32 5L34 5L34 7L33 7L33 6L32 6L32 7L33 7L33 9L34 9L34 8L35 8L35 5L34 5L34 4ZM45 4L45 5L46 5L46 4ZM11 5L11 7L12 7L12 5ZM27 5L27 8L30 8L30 5ZM40 5L40 6L39 6L39 7L40 7L40 8L39 8L39 9L38 9L38 11L39 11L39 12L40 12L40 13L43 13L43 12L44 12L44 13L45 13L45 14L47 14L47 13L49 13L49 12L50 12L50 14L49 14L49 15L50 15L50 14L51 14L51 12L50 12L50 10L48 10L48 11L47 11L47 12L45 12L45 11L42 11L42 10L41 10L41 12L40 12L40 11L39 11L39 9L41 9L41 7L42 7L42 6L41 6L41 5ZM22 6L22 7L23 7L23 6ZM28 6L28 7L29 7L29 6ZM40 6L40 7L41 7L41 6ZM44 6L44 7L45 7L45 6ZM48 8L48 9L49 9L49 8ZM51 8L51 9L52 9L52 8ZM53 8L53 9L54 9L54 8ZM55 8L55 9L56 9L56 8ZM4 9L4 10L5 10L5 9ZM6 9L6 10L7 10L7 11L8 11L8 12L9 12L9 14L10 14L10 15L12 15L12 12L14 12L14 11L13 11L13 10L12 10L12 12L11 12L11 13L10 13L10 11L9 11L9 10L7 10L7 9ZM16 9L16 10L15 10L15 13L13 13L13 14L15 14L15 13L16 13L16 16L17 16L17 13L18 13L18 12L17 12L17 11L18 11L18 10L17 10L17 9ZM32 10L32 11L33 11L33 10ZM27 11L27 12L26 12L26 15L25 15L25 17L22 17L22 16L21 16L21 17L22 17L22 18L24 18L24 19L23 19L23 20L24 20L24 21L23 21L23 22L22 22L22 23L21 23L21 24L18 24L18 23L20 23L20 22L18 22L18 21L16 21L16 20L15 20L15 21L16 21L16 22L14 22L14 21L13 21L13 20L14 20L14 19L13 19L13 20L12 20L12 21L9 21L9 22L8 22L8 23L7 23L7 24L8 24L8 23L9 23L9 24L10 24L10 23L13 23L13 24L12 24L12 26L13 26L13 24L15 24L15 25L16 25L16 24L17 24L17 25L18 25L18 26L16 26L16 27L18 27L18 26L19 26L19 29L18 29L18 28L16 28L16 29L18 29L18 31L19 31L19 32L16 32L16 33L15 33L15 34L16 34L16 35L17 35L17 37L19 37L19 38L20 38L20 39L19 39L19 40L17 40L17 41L19 41L19 42L20 42L20 41L19 41L19 40L21 40L21 38L22 38L22 39L24 39L24 40L23 40L23 41L24 41L24 42L22 42L22 43L21 43L21 44L22 44L22 45L23 45L23 46L25 46L25 44L27 44L27 43L25 43L25 41L24 41L24 40L25 40L25 39L27 39L27 41L26 41L26 42L27 42L27 41L29 41L29 40L28 40L28 39L27 39L27 38L28 38L28 37L27 37L27 34L26 34L26 35L25 35L25 33L27 33L27 32L28 32L28 33L29 33L29 34L30 34L30 36L29 36L29 37L31 37L31 38L29 38L29 39L33 39L33 40L35 40L35 39L37 39L37 38L38 38L38 37L40 37L40 38L43 38L43 37L44 37L44 38L45 38L45 39L42 39L42 40L41 40L41 43L42 43L42 44L41 44L41 45L40 45L40 47L39 47L39 48L38 48L38 49L39 49L39 48L41 48L41 46L43 46L43 47L42 47L42 48L43 48L43 47L44 47L44 46L45 46L45 45L44 45L44 44L43 44L43 42L44 42L44 40L45 40L45 41L47 41L47 39L48 39L48 37L49 37L49 38L50 38L50 37L51 37L51 36L52 36L52 35L53 35L53 34L52 34L52 33L51 33L51 32L50 32L50 34L49 34L49 35L50 35L50 36L48 36L48 37L47 37L47 39L46 39L46 38L45 38L45 37L46 37L46 36L47 36L47 35L46 35L46 36L45 36L45 35L44 35L44 36L43 36L43 35L42 35L42 34L45 34L45 33L43 33L43 32L41 32L41 33L39 33L39 34L40 34L40 35L39 35L39 36L38 36L38 33L37 33L37 32L35 32L35 30L33 30L33 33L35 33L35 34L33 34L33 35L31 35L31 34L32 34L32 32L31 32L31 33L29 33L29 32L28 32L28 31L32 31L32 30L31 30L31 29L32 29L32 28L31 28L31 26L32 26L32 27L33 27L33 28L35 28L35 29L38 29L38 28L42 28L42 26L43 26L43 25L44 25L44 27L43 27L43 28L45 28L45 25L44 25L44 24L41 24L41 25L39 25L39 27L36 27L36 26L34 26L34 27L33 27L33 26L32 26L32 24L31 24L31 25L28 25L28 26L26 26L26 25L25 25L25 24L24 24L24 23L23 23L23 22L24 22L24 21L25 21L25 20L26 20L26 19L27 19L27 18L26 18L26 15L27 15L27 16L28 16L28 15L27 15L27 13L28 13L28 14L29 14L29 13L28 13L28 12L29 12L29 11ZM16 12L16 13L17 13L17 12ZM20 12L20 13L21 13L21 14L20 14L20 15L23 15L23 14L22 14L22 13L21 13L21 12ZM33 12L33 13L34 13L34 12ZM52 12L52 13L53 13L53 12ZM35 16L35 17L37 17L37 18L38 18L38 17L39 17L39 16L38 16L38 17L37 17L37 16ZM42 16L42 17L43 17L43 16ZM4 17L4 18L5 18L5 17ZM31 18L31 21L32 21L32 20L34 20L34 19L33 19L33 18ZM41 18L41 19L42 19L42 18ZM48 21L48 22L45 22L45 23L46 23L46 24L47 24L47 23L49 23L49 21ZM2 22L2 24L5 24L5 23L4 23L4 22ZM9 22L9 23L10 23L10 22ZM13 22L13 23L14 23L14 22ZM15 23L15 24L16 24L16 23ZM22 23L22 24L21 24L21 25L19 25L19 26L20 26L20 27L21 27L21 28L22 28L22 29L20 29L20 30L19 30L19 31L20 31L20 32L21 32L21 33L18 33L18 34L19 34L19 37L22 37L22 38L24 38L24 37L23 37L23 36L24 36L24 34L23 34L23 33L25 33L25 32L26 32L26 31L25 31L25 32L21 32L21 31L23 31L23 28L24 28L24 27L26 27L26 26L22 26L22 27L21 27L21 25L23 25L23 23ZM51 23L51 24L50 24L50 26L51 26L51 25L52 25L52 26L53 26L53 27L54 27L54 26L53 26L53 24L54 24L54 25L55 25L55 24L54 24L54 23ZM4 25L4 26L3 26L3 27L4 27L4 26L5 26L5 25ZM41 25L41 26L42 26L42 25ZM5 27L5 30L8 30L8 27ZM27 27L27 30L30 30L30 27ZM49 27L49 30L52 30L52 27ZM6 28L6 29L7 29L7 28ZM25 28L25 29L26 29L26 28ZM28 28L28 29L29 29L29 28ZM50 28L50 29L51 29L51 28ZM54 28L54 29L55 29L55 28ZM39 29L39 30L38 30L38 32L39 32L39 30L40 30L40 29ZM2 30L2 32L3 32L3 33L4 33L4 32L5 32L5 31L3 31L3 30ZM20 30L20 31L21 31L21 30ZM53 30L53 31L54 31L54 30ZM47 31L47 32L48 32L48 33L49 33L49 32L48 32L48 31ZM16 33L16 34L17 34L17 33ZM21 33L21 35L22 35L22 33ZM54 33L54 34L55 34L55 33ZM35 34L35 36L37 36L37 34ZM50 34L50 35L52 35L52 34ZM14 35L14 36L15 36L15 35ZM33 35L33 36L32 36L32 37L33 37L33 38L34 38L34 39L35 39L35 37L34 37L34 35ZM41 35L41 36L40 36L40 37L43 37L43 36L42 36L42 35ZM44 36L44 37L45 37L45 36ZM25 37L25 38L27 38L27 37ZM6 38L6 39L4 39L4 40L5 40L5 41L7 41L7 42L6 42L6 43L7 43L7 42L8 42L8 43L9 43L9 44L10 44L10 42L11 42L11 41L10 41L10 39L9 39L9 38ZM17 38L17 39L18 39L18 38ZM6 39L6 40L7 40L7 41L8 41L8 42L9 42L9 40L8 40L8 39ZM38 39L38 40L39 40L39 39ZM1 40L1 41L2 41L2 40ZM31 40L31 41L32 41L32 42L33 42L33 43L34 43L34 42L33 42L33 41L32 41L32 40ZM42 40L42 41L43 41L43 40ZM39 41L39 42L40 42L40 41ZM1 42L1 43L2 43L2 42ZM51 42L51 43L53 43L53 42ZM3 43L3 44L2 44L2 46L1 46L1 47L2 47L2 46L3 46L3 47L5 47L5 46L8 46L8 45L4 45L4 43ZM15 44L15 47L16 47L16 49L15 49L15 48L14 48L14 47L13 47L13 48L14 48L14 49L13 49L13 50L14 50L14 52L15 52L15 51L16 51L16 53L15 53L15 54L16 54L16 53L17 53L17 51L16 51L16 50L17 50L17 48L20 48L20 47L17 47L17 45L18 45L18 44ZM23 44L23 45L24 45L24 44ZM3 45L3 46L4 46L4 45ZM24 47L24 48L25 48L25 47ZM29 47L29 48L30 48L30 47ZM33 47L33 48L32 48L32 49L33 49L33 48L34 48L34 47ZM55 48L55 50L54 50L54 51L55 51L55 50L56 50L56 48ZM14 49L14 50L15 50L15 49ZM27 49L27 52L30 52L30 49ZM49 49L49 52L52 52L52 49ZM11 50L11 51L12 51L12 52L10 52L10 53L9 53L9 54L10 54L10 55L11 55L11 54L14 54L14 53L12 53L12 52L13 52L13 51L12 51L12 50ZM18 50L18 51L19 51L19 50ZM28 50L28 51L29 51L29 50ZM38 50L38 52L39 52L39 51L40 51L40 52L41 52L41 50ZM50 50L50 51L51 51L51 50ZM10 53L10 54L11 54L11 53ZM24 53L24 54L23 54L23 55L24 55L24 56L25 56L25 54L27 54L27 53ZM50 55L50 56L51 56L51 55ZM46 56L46 57L47 57L47 56ZM0 0L0 7L7 7L7 0ZM1 1L1 6L6 6L6 1ZM2 2L2 5L5 5L5 2ZM50 0L50 7L57 7L57 0ZM51 1L51 6L56 6L56 1ZM52 2L52 5L55 5L55 2ZM0 50L0 57L7 57L7 50ZM1 51L1 56L6 56L6 51ZM2 52L2 55L5 55L5 52Z" fill="#000000"/></g></g></svg>
