<?xml version="1.0" encoding="UTF-8"?>
<svg xmlns="http://www.w3.org/2000/svg" version="1.1" width="300" height="300" viewBox="0 0 300 300"><rect x="0" y="0" width="300" height="300" fill="#fefefe"/><g transform="scale(4.615)"><g transform="translate(4,4)"><path fill-rule="evenodd" d="M8 0L8 1L9 1L9 0ZM13 0L13 1L12 1L12 2L11 2L11 3L12 3L12 5L13 5L13 6L12 6L12 7L11 7L11 6L10 6L10 5L11 5L11 4L9 4L9 3L10 3L10 2L8 2L8 5L9 5L9 6L8 6L8 7L9 7L9 8L8 8L8 9L7 9L7 8L6 8L6 9L4 9L4 8L0 8L0 15L2 15L2 14L3 14L3 15L4 15L4 16L2 16L2 18L1 18L1 16L0 16L0 18L1 18L1 19L2 19L2 20L0 20L0 23L1 23L1 22L3 22L3 23L2 23L2 25L1 25L1 24L0 24L0 25L1 25L1 27L0 27L0 28L1 28L1 27L4 27L4 30L3 30L3 29L2 29L2 30L1 30L1 29L0 29L0 30L1 30L1 31L0 31L0 33L1 33L1 34L2 34L2 35L3 35L3 36L0 36L0 37L1 37L1 40L2 40L2 41L1 41L1 42L2 42L2 43L1 43L1 44L2 44L2 43L3 43L3 44L5 44L5 45L1 45L1 46L0 46L0 48L5 48L5 47L7 47L7 48L6 48L6 49L7 49L7 48L9 48L9 47L7 47L7 46L8 46L8 45L9 45L9 44L8 44L8 43L10 43L10 42L8 42L8 41L11 41L11 42L12 42L12 43L11 43L11 44L10 44L10 48L11 48L11 46L12 46L12 49L13 49L13 51L12 51L12 50L11 50L11 53L12 53L12 54L11 54L11 55L12 55L12 54L13 54L13 56L15 56L15 57L18 57L18 56L17 56L17 54L16 54L16 53L15 53L15 52L14 52L14 51L15 51L15 50L16 50L16 49L14 49L14 48L17 48L17 51L16 51L16 52L18 52L18 49L19 49L19 51L20 51L20 52L19 52L19 53L18 53L18 55L20 55L20 56L19 56L19 57L20 57L20 56L21 56L21 57L23 57L23 56L22 56L22 55L23 55L23 54L25 54L25 55L24 55L24 56L25 56L25 55L26 55L26 56L28 56L28 55L26 55L26 54L27 54L27 53L29 53L29 54L31 54L31 55L30 55L30 56L31 56L31 57L32 57L32 55L34 55L34 56L33 56L33 57L36 57L36 55L37 55L37 54L36 54L36 53L35 53L35 52L36 52L36 51L38 51L38 52L39 52L39 54L38 54L38 57L42 57L42 56L43 56L43 55L44 55L44 56L45 56L45 55L44 55L44 54L47 54L47 56L49 56L49 57L51 57L51 54L52 54L52 53L53 53L53 56L52 56L52 57L55 57L55 56L54 56L54 55L55 55L55 54L56 54L56 53L57 53L57 52L56 52L56 51L55 51L55 50L57 50L57 48L56 48L56 49L55 49L55 48L54 48L54 47L57 47L57 44L53 44L53 46L52 46L52 47L51 47L51 46L49 46L49 45L48 45L48 46L46 46L46 48L45 48L45 49L44 49L44 47L45 47L45 46L43 46L43 45L42 45L42 43L45 43L45 44L47 44L47 43L48 43L48 44L49 44L49 43L50 43L50 42L51 42L51 45L52 45L52 43L53 43L53 42L54 42L54 43L56 43L56 41L57 41L57 40L56 40L56 41L55 41L55 42L54 42L54 40L55 40L55 39L53 39L53 38L52 38L52 36L53 36L53 37L55 37L55 38L56 38L56 39L57 39L57 38L56 38L56 36L54 36L54 35L57 35L57 31L56 31L56 30L57 30L57 28L56 28L56 27L53 27L53 25L55 25L55 26L56 26L56 24L54 24L54 23L57 23L57 21L56 21L56 22L54 22L54 21L55 21L55 20L56 20L56 19L55 19L55 17L56 17L56 18L57 18L57 15L55 15L55 14L54 14L54 10L53 10L53 13L52 13L52 12L51 12L51 11L52 11L52 9L55 9L55 8L52 8L52 9L51 9L51 11L49 11L49 10L50 10L50 8L49 8L49 6L48 6L48 7L47 7L47 5L48 5L48 0L46 0L46 1L47 1L47 2L46 2L46 3L47 3L47 5L45 5L45 4L44 4L44 3L45 3L45 1L44 1L44 2L42 2L42 3L41 3L41 4L39 4L39 3L37 3L37 1L38 1L38 0L37 0L37 1L36 1L36 0L35 0L35 1L34 1L34 2L31 2L31 4L26 4L26 1L25 1L25 0L23 0L23 1L22 1L22 0L21 0L21 1L22 1L22 2L21 2L21 3L22 3L22 2L23 2L23 1L25 1L25 2L24 2L24 3L23 3L23 6L22 6L22 8L21 8L21 10L20 10L20 7L21 7L21 5L20 5L20 4L19 4L19 3L20 3L20 2L18 2L18 1L20 1L20 0L18 0L18 1L16 1L16 2L15 2L15 3L17 3L17 4L19 4L19 5L15 5L15 4L14 4L14 3L12 3L12 2L13 2L13 1L14 1L14 0ZM29 0L29 2L28 2L28 1L27 1L27 2L28 2L28 3L29 3L29 2L30 2L30 1L33 1L33 0ZM39 0L39 1L40 1L40 2L41 2L41 1L43 1L43 0L41 0L41 1L40 1L40 0ZM35 1L35 2L36 2L36 1ZM32 3L32 4L31 4L31 5L32 5L32 6L31 6L31 9L32 9L32 10L28 10L28 11L27 11L27 10L26 10L26 11L25 11L25 10L23 10L23 9L24 9L24 8L25 8L25 9L26 9L26 6L25 6L25 5L26 5L26 4L24 4L24 6L23 6L23 7L24 7L24 8L23 8L23 9L22 9L22 10L23 10L23 11L21 11L21 12L20 12L20 13L21 13L21 15L19 15L19 13L18 13L18 12L19 12L19 8L18 8L18 12L17 12L17 13L16 13L16 12L15 12L15 15L14 15L14 16L15 16L15 15L16 15L16 16L17 16L17 17L19 17L19 20L18 20L18 19L17 19L17 18L11 18L11 19L12 19L12 20L13 20L13 19L16 19L16 20L14 20L14 22L13 22L13 23L14 23L14 24L15 24L15 23L16 23L16 24L18 24L18 23L16 23L16 20L18 20L18 21L17 21L17 22L21 22L21 20L22 20L22 19L23 19L23 21L22 21L22 23L23 23L23 21L24 21L24 22L25 22L25 25L23 25L23 24L22 24L22 25L23 25L23 27L22 27L22 26L19 26L19 27L16 27L16 26L17 26L17 25L16 25L16 26L14 26L14 27L13 27L13 24L12 24L12 21L11 21L11 20L9 20L9 21L10 21L10 22L11 22L11 23L8 23L8 22L7 22L7 21L5 21L5 22L7 22L7 23L6 23L6 24L7 24L7 25L4 25L4 26L7 26L7 25L8 25L8 26L9 26L9 29L10 29L10 28L11 28L11 29L14 29L14 30L16 30L16 29L15 29L15 28L17 28L17 31L18 31L18 35L21 35L21 32L22 32L22 31L23 31L23 33L22 33L22 36L19 36L19 37L20 37L20 38L21 38L21 37L22 37L22 38L23 38L23 36L25 36L25 37L24 37L24 39L21 39L21 40L22 40L22 41L19 41L19 39L18 39L18 37L17 37L17 36L15 36L15 38L14 38L14 40L15 40L15 38L17 38L17 39L16 39L16 41L17 41L17 39L18 39L18 41L19 41L19 43L18 43L18 42L15 42L15 41L13 41L13 42L14 42L14 43L12 43L12 44L11 44L11 45L12 45L12 46L13 46L13 47L17 47L17 48L20 48L20 49L21 49L21 51L23 51L23 52L22 52L22 53L20 53L20 55L22 55L22 53L23 53L23 52L24 52L24 53L25 53L25 54L26 54L26 50L25 50L25 49L26 49L26 48L28 48L28 47L27 47L27 46L29 46L29 48L31 48L31 50L32 50L32 51L31 51L31 53L32 53L32 51L33 51L33 50L32 50L32 49L34 49L34 51L35 51L35 48L37 48L37 49L36 49L36 50L37 50L37 49L38 49L38 48L39 48L39 49L40 49L40 50L39 50L39 52L40 52L40 54L41 54L41 55L40 55L40 56L41 56L41 55L42 55L42 54L43 54L43 51L45 51L45 53L46 53L46 51L45 51L45 50L43 50L43 47L39 47L39 46L40 46L40 45L38 45L38 44L41 44L41 42L40 42L40 41L41 41L41 39L42 39L42 42L43 42L43 40L44 40L44 39L46 39L46 38L47 38L47 37L49 37L49 36L47 36L47 37L46 37L46 34L48 34L48 35L49 35L49 34L50 34L50 33L49 33L49 32L48 32L48 29L47 29L47 31L46 31L46 32L45 32L45 31L44 31L44 29L42 29L42 30L41 30L41 27L42 27L42 28L43 28L43 27L44 27L44 25L45 25L45 23L44 23L44 25L43 25L43 24L42 24L42 23L38 23L38 22L39 22L39 21L38 21L38 22L35 22L35 20L36 20L36 21L37 21L37 20L40 20L40 19L39 19L39 18L41 18L41 21L44 21L44 22L45 22L45 20L47 20L47 21L46 21L46 22L47 22L47 21L48 21L48 19L47 19L47 18L46 18L46 19L44 19L44 18L45 18L45 17L42 17L42 14L43 14L43 12L44 12L44 13L46 13L46 14L45 14L45 15L44 15L44 16L45 16L45 15L47 15L47 14L48 14L48 16L46 16L46 17L48 17L48 18L49 18L49 19L50 19L50 20L49 20L49 24L50 24L50 25L51 25L51 26L52 26L52 25L53 25L53 23L52 23L52 22L51 22L51 21L50 21L50 20L53 20L53 21L54 21L54 20L55 20L55 19L52 19L52 18L54 18L54 17L55 17L55 16L53 16L53 14L52 14L52 13L51 13L51 12L50 12L50 13L51 13L51 15L50 15L50 17L49 17L49 11L48 11L48 9L46 9L46 10L47 10L47 11L45 11L45 10L44 10L44 9L45 9L45 8L44 8L44 6L45 6L45 7L46 7L46 8L47 8L47 7L46 7L46 6L45 6L45 5L43 5L43 4L41 4L41 5L42 5L42 6L41 6L41 7L40 7L40 5L36 5L36 4L35 4L35 3L34 3L34 5L33 5L33 3ZM13 4L13 5L14 5L14 4ZM27 5L27 8L30 8L30 5ZM9 6L9 7L10 7L10 8L9 8L9 9L10 9L10 14L8 14L8 12L7 12L7 11L6 11L6 12L5 12L5 14L8 14L8 15L5 15L5 16L7 16L7 17L4 17L4 19L3 19L3 22L4 22L4 20L5 20L5 18L8 18L8 19L6 19L6 20L8 20L8 19L10 19L10 17L11 17L11 16L13 16L13 14L14 14L14 13L13 13L13 14L11 14L11 13L12 13L12 12L13 12L13 10L12 10L12 12L11 12L11 9L10 9L10 8L11 8L11 7L10 7L10 6ZM13 6L13 7L12 7L12 9L14 9L14 11L15 11L15 10L17 10L17 7L18 7L18 6L17 6L17 7L16 7L16 6L15 6L15 8L13 8L13 7L14 7L14 6ZM19 6L19 7L20 7L20 6ZM24 6L24 7L25 7L25 6ZM28 6L28 7L29 7L29 6ZM32 6L32 8L33 8L33 6ZM34 6L34 9L36 9L36 8L38 8L38 9L37 9L37 11L36 11L36 10L35 10L35 11L34 11L34 10L33 10L33 11L32 11L32 12L33 12L33 14L32 14L32 16L31 16L31 14L30 14L30 13L28 13L28 12L26 12L26 15L25 15L25 14L24 14L24 16L23 16L23 18L24 18L24 19L25 19L25 22L29 22L29 23L28 23L28 24L29 24L29 25L31 25L31 26L28 26L28 25L25 25L25 26L24 26L24 27L25 27L25 28L23 28L23 29L21 29L21 30L20 30L20 32L21 32L21 30L24 30L24 29L25 29L25 28L26 28L26 30L25 30L25 32L24 32L24 33L23 33L23 35L24 35L24 34L25 34L25 33L26 33L26 34L27 34L27 35L26 35L26 37L27 37L27 36L29 36L29 38L25 38L25 39L24 39L24 40L23 40L23 41L22 41L22 44L21 44L21 43L19 43L19 45L17 45L17 47L19 47L19 46L20 46L20 47L21 47L21 48L23 48L23 49L22 49L22 50L23 50L23 49L24 49L24 48L26 48L26 47L24 47L24 48L23 48L23 46L25 46L25 45L26 45L26 46L27 46L27 45L29 45L29 46L30 46L30 44L29 44L29 43L32 43L32 42L33 42L33 45L32 45L32 46L33 46L33 45L34 45L34 44L35 44L35 46L34 46L34 48L35 48L35 47L38 47L38 45L36 45L36 43L34 43L34 42L36 42L36 41L34 41L34 40L35 40L35 39L36 39L36 38L35 38L35 39L33 39L33 38L34 38L34 37L37 37L37 39L38 39L38 40L37 40L37 41L40 41L40 40L39 40L39 39L41 39L41 37L40 37L40 36L37 36L37 35L41 35L41 36L42 36L42 37L44 37L44 36L45 36L45 34L44 34L44 31L41 31L41 32L40 32L40 31L39 31L39 30L40 30L40 27L41 27L41 25L40 25L40 26L39 26L39 24L38 24L38 23L37 23L37 24L36 24L36 23L35 23L35 24L33 24L33 23L34 23L34 22L32 22L32 23L31 23L31 20L32 20L32 19L31 19L31 20L30 20L30 21L29 21L29 20L28 20L28 19L30 19L30 17L29 17L29 16L31 16L31 18L35 18L35 17L34 17L34 16L35 16L35 15L36 15L36 13L37 13L37 15L39 15L39 17L40 17L40 16L41 16L41 14L40 14L40 13L39 13L39 12L40 12L40 11L41 11L41 10L43 10L43 11L42 11L42 12L43 12L43 11L44 11L44 10L43 10L43 8L38 8L38 7L39 7L39 6L38 6L38 7L37 7L37 6L36 6L36 7L35 7L35 6ZM42 6L42 7L43 7L43 6ZM15 8L15 9L16 9L16 8ZM56 8L56 9L57 9L57 8ZM6 9L6 10L7 10L7 9ZM38 9L38 10L39 10L39 9ZM40 9L40 10L41 10L41 9ZM1 10L1 13L2 13L2 12L3 12L3 10ZM8 10L8 11L9 11L9 10ZM55 10L55 11L56 11L56 12L55 12L55 13L56 13L56 12L57 12L57 10ZM24 11L24 12L25 12L25 11ZM30 11L30 12L31 12L31 11ZM35 11L35 12L34 12L34 14L33 14L33 15L35 15L35 12L36 12L36 11ZM37 11L37 12L38 12L38 11ZM47 11L47 12L48 12L48 11ZM6 12L6 13L7 13L7 12ZM22 12L22 13L23 13L23 12ZM16 14L16 15L18 15L18 14ZM9 15L9 17L8 17L8 18L9 18L9 17L10 17L10 15ZM26 15L26 16L27 16L27 15ZM28 15L28 16L29 16L29 15ZM51 15L51 18L52 18L52 15ZM21 17L21 18L20 18L20 19L21 19L21 18L22 18L22 17ZM24 17L24 18L26 18L26 19L28 19L28 18L29 18L29 17ZM36 17L36 18L37 18L37 17ZM41 17L41 18L42 18L42 19L43 19L43 18L42 18L42 17ZM34 19L34 20L35 20L35 19ZM36 19L36 20L37 20L37 19ZM26 20L26 21L27 21L27 20ZM14 22L14 23L15 23L15 22ZM4 23L4 24L5 24L5 23ZM20 23L20 24L21 24L21 23ZM26 23L26 24L27 24L27 23ZM29 23L29 24L30 24L30 23ZM50 23L50 24L51 24L51 23ZM9 24L9 25L11 25L11 24ZM32 24L32 25L33 25L33 24ZM46 24L46 26L49 26L49 25L48 25L48 24ZM34 25L34 27L35 27L35 25ZM10 26L10 27L12 27L12 26ZM38 26L38 27L39 27L39 26ZM42 26L42 27L43 27L43 26ZM5 27L5 30L8 30L8 27ZM27 27L27 30L30 30L30 27ZM31 27L31 28L33 28L33 27ZM45 27L45 30L46 30L46 27ZM47 27L47 28L48 28L48 27ZM49 27L49 30L52 30L52 27ZM6 28L6 29L7 29L7 28ZM18 28L18 29L20 29L20 28ZM28 28L28 29L29 29L29 28ZM34 28L34 29L36 29L36 31L37 31L37 32L36 32L36 33L37 33L37 32L38 32L38 34L39 34L39 31L38 31L38 30L39 30L39 29L38 29L38 30L37 30L37 28ZM50 28L50 29L51 29L51 28ZM53 28L53 29L54 29L54 31L50 31L50 32L52 32L52 34L54 34L54 33L55 33L55 34L56 34L56 33L55 33L55 30L56 30L56 29L54 29L54 28ZM2 30L2 31L1 31L1 33L3 33L3 34L4 34L4 32L8 32L8 33L9 33L9 32L10 32L10 33L12 33L12 35L11 35L11 34L8 34L8 35L9 35L9 36L7 36L7 35L6 35L6 34L7 34L7 33L6 33L6 34L5 34L5 35L4 35L4 36L3 36L3 37L2 37L2 39L3 39L3 43L5 43L5 44L7 44L7 45L6 45L6 46L7 46L7 45L8 45L8 44L7 44L7 43L8 43L8 42L7 42L7 41L8 41L8 40L10 40L10 38L11 38L11 37L10 37L10 35L11 35L11 36L12 36L12 35L13 35L13 34L14 34L14 35L15 35L15 32L16 32L16 34L17 34L17 32L16 32L16 31L14 31L14 33L12 33L12 32L13 32L13 30L11 30L11 31L12 31L12 32L10 32L10 31L4 31L4 32L2 32L2 31L3 31L3 30ZM18 30L18 31L19 31L19 30ZM31 30L31 31L32 31L32 30ZM26 31L26 33L27 33L27 34L28 34L28 35L29 35L29 36L32 36L32 38L30 38L30 39L28 39L28 40L33 40L33 39L32 39L32 38L33 38L33 36L36 36L36 35L33 35L33 36L32 36L32 34L30 34L30 35L29 35L29 33L30 33L30 31L28 31L28 33L27 33L27 31ZM33 31L33 32L31 32L31 33L34 33L34 34L35 34L35 31ZM42 32L42 33L43 33L43 32ZM46 32L46 33L47 33L47 32ZM53 32L53 33L54 33L54 32ZM19 33L19 34L20 34L20 33ZM41 34L41 35L42 35L42 34ZM51 35L51 36L52 36L52 35ZM5 36L5 37L4 37L4 38L3 38L3 39L5 39L5 40L4 40L4 41L5 41L5 42L6 42L6 43L7 43L7 42L6 42L6 41L7 41L7 40L6 40L6 39L9 39L9 38L10 38L10 37L7 37L7 36ZM6 37L6 38L5 38L5 39L6 39L6 38L7 38L7 37ZM45 37L45 38L46 38L46 37ZM38 38L38 39L39 39L39 38ZM42 38L42 39L44 39L44 38ZM48 38L48 39L47 39L47 40L46 40L46 41L45 41L45 43L46 43L46 41L47 41L47 42L50 42L50 41L52 41L52 40L53 40L53 39L52 39L52 38L50 38L50 39L51 39L51 40L50 40L50 41L47 41L47 40L49 40L49 38ZM25 39L25 41L24 41L24 42L23 42L23 43L26 43L26 45L27 45L27 42L28 42L28 41L27 41L27 42L25 42L25 41L26 41L26 40L27 40L27 39ZM29 41L29 42L30 42L30 41ZM37 42L37 44L38 44L38 43L39 43L39 42ZM14 43L14 44L13 44L13 46L15 46L15 45L16 45L16 44L17 44L17 43L16 43L16 44L15 44L15 43ZM20 44L20 46L21 46L21 47L22 47L22 46L23 46L23 45L25 45L25 44L22 44L22 46L21 46L21 44ZM55 45L55 46L56 46L56 45ZM1 46L1 47L2 47L2 46ZM3 46L3 47L5 47L5 46ZM48 46L48 47L49 47L49 48L51 48L51 47L49 47L49 46ZM32 47L32 48L33 48L33 47ZM52 47L52 48L53 48L53 50L55 50L55 49L54 49L54 48L53 48L53 47ZM41 48L41 49L42 49L42 48ZM47 48L47 49L46 49L46 50L47 50L47 52L48 52L48 48ZM8 49L8 50L9 50L9 52L10 52L10 50L9 50L9 49ZM27 49L27 52L30 52L30 49ZM49 49L49 52L52 52L52 49ZM24 50L24 51L25 51L25 50ZM28 50L28 51L29 51L29 50ZM50 50L50 51L51 51L51 50ZM40 51L40 52L42 52L42 51ZM12 52L12 53L13 53L13 54L15 54L15 53L14 53L14 52ZM33 52L33 53L34 53L34 52ZM54 52L54 54L55 54L55 53L56 53L56 52ZM8 53L8 57L9 57L9 56L10 56L10 57L11 57L11 56L10 56L10 55L9 55L9 53ZM41 53L41 54L42 54L42 53ZM47 53L47 54L50 54L50 53ZM34 54L34 55L36 55L36 54ZM56 55L56 56L57 56L57 55ZM0 0L0 7L7 7L7 0ZM1 1L1 6L6 6L6 1ZM2 2L2 5L5 5L5 2ZM50 0L50 7L57 7L57 0ZM51 1L51 6L56 6L56 1ZM52 2L52 5L55 5L55 2ZM0 50L0 57L7 57L7 50ZM1 51L1 56L6 56L6 51ZM2 52L2 55L5 55L5 52Z" fill="#000000"/></g></g></svg>
