<?xml version="1.0" encoding="UTF-8"?>
<svg xmlns="http://www.w3.org/2000/svg" version="1.1" width="300" height="300" viewBox="0 0 300 300"><rect x="0" y="0" width="300" height="300" fill="#fefefe"/><g transform="scale(4.615)"><g transform="translate(4,4)"><path fill-rule="evenodd" d="M11 0L11 2L12 2L12 1L13 1L13 0ZM14 0L14 2L13 2L13 3L12 3L12 4L14 4L14 2L15 2L15 3L16 3L16 2L19 2L19 3L17 3L17 4L19 4L19 5L20 5L20 7L19 7L19 6L18 6L18 7L19 7L19 8L16 8L16 7L17 7L17 6L16 6L16 7L15 7L15 6L14 6L14 5L13 5L13 6L12 6L12 8L11 8L11 6L10 6L10 9L9 9L9 8L6 8L6 9L8 9L8 10L6 10L6 11L8 11L8 12L10 12L10 11L9 11L9 10L10 10L10 9L12 9L12 10L11 10L11 11L12 11L12 12L11 12L11 13L12 13L12 12L13 12L13 13L15 13L15 14L14 14L14 15L12 15L12 14L9 14L9 13L7 13L7 12L5 12L5 14L4 14L4 13L3 13L3 14L1 14L1 13L2 13L2 12L4 12L4 11L5 11L5 8L0 8L0 9L1 9L1 10L2 10L2 11L1 11L1 13L0 13L0 15L3 15L3 16L2 16L2 17L0 17L0 19L2 19L2 21L1 21L1 22L3 22L3 19L2 19L2 17L4 17L4 18L6 18L6 19L7 19L7 20L5 20L5 19L4 19L4 20L5 20L5 21L4 21L4 22L5 22L5 24L6 24L6 25L5 25L5 26L4 26L4 25L1 25L1 24L2 24L2 23L0 23L0 25L1 25L1 26L4 26L4 27L3 27L3 28L4 28L4 29L2 29L2 30L1 30L1 31L0 31L0 32L1 32L1 31L2 31L2 30L3 30L3 31L4 31L4 32L2 32L2 33L0 33L0 38L1 38L1 39L0 39L0 42L2 42L2 40L1 40L1 39L3 39L3 37L1 37L1 36L2 36L2 35L1 35L1 34L3 34L3 36L4 36L4 37L5 37L5 38L4 38L4 40L3 40L3 43L0 43L0 44L1 44L1 45L0 45L0 48L5 48L5 47L7 47L7 46L8 46L8 48L6 48L6 49L8 49L8 51L9 51L9 47L10 47L10 46L11 46L11 48L10 48L10 50L12 50L12 51L10 51L10 52L8 52L8 57L9 57L9 56L11 56L11 55L12 55L12 57L16 57L16 56L17 56L17 57L19 57L19 55L20 55L20 54L19 54L19 53L20 53L20 52L23 52L23 50L25 50L25 49L26 49L26 52L24 52L24 53L23 53L23 54L22 54L22 53L21 53L21 54L22 54L22 55L23 55L23 57L26 57L26 56L27 56L27 57L29 57L29 56L30 56L30 57L31 57L31 56L35 56L35 57L39 57L39 56L41 56L41 54L42 54L42 55L44 55L44 54L45 54L45 57L47 57L47 56L50 56L50 57L52 57L52 55L51 55L51 53L52 53L52 54L53 54L53 57L54 57L54 56L55 56L55 57L56 57L56 56L55 56L55 54L53 54L53 52L54 52L54 53L56 53L56 52L55 52L55 51L56 51L56 50L55 50L55 49L54 49L54 48L56 48L56 49L57 49L57 48L56 48L56 46L57 46L57 45L56 45L56 44L55 44L55 43L56 43L56 41L55 41L55 39L57 39L57 37L56 37L56 36L57 36L57 35L53 35L53 34L52 34L52 33L53 33L53 32L56 32L56 33L54 33L54 34L57 34L57 32L56 32L56 30L57 30L57 29L56 29L56 27L55 27L55 26L57 26L57 25L56 25L56 22L57 22L57 21L56 21L56 20L55 20L55 18L57 18L57 17L56 17L56 16L57 16L57 15L56 15L56 14L57 14L57 13L56 13L56 14L55 14L55 13L54 13L54 12L55 12L55 11L56 11L56 12L57 12L57 11L56 11L56 10L54 10L54 11L53 11L53 9L54 9L54 8L53 8L53 9L52 9L52 8L51 8L51 9L52 9L52 10L50 10L50 8L49 8L49 6L48 6L48 7L47 7L47 5L48 5L48 0L46 0L46 1L47 1L47 2L44 2L44 3L42 3L42 2L43 2L43 0L41 0L41 1L40 1L40 0L39 0L39 1L38 1L38 0L37 0L37 1L38 1L38 2L39 2L39 3L41 3L41 4L40 4L40 5L39 5L39 6L38 6L38 7L37 7L37 5L38 5L38 3L36 3L36 0L35 0L35 1L32 1L32 0L30 0L30 1L25 1L25 0L23 0L23 1L22 1L22 0L21 0L21 1L20 1L20 2L19 2L19 1L18 1L18 0L17 0L17 1L15 1L15 0ZM8 1L8 2L10 2L10 1ZM21 1L21 2L20 2L20 3L19 3L19 4L23 4L23 5L21 5L21 7L22 7L22 8L20 8L20 11L19 11L19 12L20 12L20 15L21 15L21 16L20 16L20 19L19 19L19 18L17 18L17 17L16 17L16 16L17 16L17 15L18 15L18 14L17 14L17 13L18 13L18 12L17 12L17 11L18 11L18 10L19 10L19 9L16 9L16 8L15 8L15 7L14 7L14 6L13 6L13 8L12 8L12 9L13 9L13 8L14 8L14 10L15 10L15 13L16 13L16 16L15 16L15 15L14 15L14 18L13 18L13 16L11 16L11 15L10 15L10 16L9 16L9 14L8 14L8 16L7 16L7 15L6 15L6 14L7 14L7 13L6 13L6 14L5 14L5 15L4 15L4 14L3 14L3 15L4 15L4 17L6 17L6 18L7 18L7 19L8 19L8 18L7 18L7 17L9 17L9 19L10 19L10 20L11 20L11 21L12 21L12 22L13 22L13 21L14 21L14 22L16 22L16 21L17 21L17 20L20 20L20 21L19 21L19 22L17 22L17 24L16 24L16 23L15 23L15 24L16 24L16 25L14 25L14 24L13 24L13 23L12 23L12 24L11 24L11 22L9 22L9 20L7 20L7 21L5 21L5 22L9 22L9 24L8 24L8 25L6 25L6 26L10 26L10 25L12 25L12 27L13 27L13 26L14 26L14 29L13 29L13 28L11 28L11 27L10 27L10 29L9 29L9 31L5 31L5 32L4 32L4 33L5 33L5 32L8 32L8 35L6 35L6 34L7 34L7 33L6 33L6 34L5 34L5 35L6 35L6 36L8 36L8 37L6 37L6 38L8 38L8 37L9 37L9 36L8 36L8 35L9 35L9 34L10 34L10 35L12 35L12 32L10 32L10 31L11 31L11 30L12 30L12 31L13 31L13 32L14 32L14 30L15 30L15 29L16 29L16 31L15 31L15 32L16 32L16 33L15 33L15 34L17 34L17 36L15 36L15 35L13 35L13 36L12 36L12 38L11 38L11 40L8 40L8 39L5 39L5 41L4 41L4 42L5 42L5 44L2 44L2 45L1 45L1 47L2 47L2 46L3 46L3 47L5 47L5 45L6 45L6 46L7 46L7 45L8 45L8 44L7 44L7 43L9 43L9 46L10 46L10 45L11 45L11 44L12 44L12 46L14 46L14 47L15 47L15 48L19 48L19 49L14 49L14 51L15 51L15 50L19 50L19 49L20 49L20 50L21 50L21 51L22 51L22 50L21 50L21 49L23 49L23 47L26 47L26 48L28 48L28 47L26 47L26 45L27 45L27 46L30 46L30 45L32 45L32 46L31 46L31 47L32 47L32 46L35 46L35 45L34 45L34 43L35 43L35 44L36 44L36 43L37 43L37 42L35 42L35 40L38 40L38 42L39 42L39 43L40 43L40 44L39 44L39 45L38 45L38 46L39 46L39 47L38 47L38 48L37 48L37 49L38 49L38 50L36 50L36 49L33 49L33 48L36 48L36 47L37 47L37 46L36 46L36 47L33 47L33 48L32 48L32 49L31 49L31 53L30 53L30 54L27 54L27 53L24 53L24 54L23 54L23 55L24 55L24 56L26 56L26 54L27 54L27 56L29 56L29 55L30 55L30 56L31 56L31 54L32 54L32 53L33 53L33 55L35 55L35 56L36 56L36 54L35 54L35 53L33 53L33 52L32 52L32 50L36 50L36 52L37 52L37 53L38 53L38 54L37 54L37 56L39 56L39 55L38 55L38 54L40 54L40 53L41 53L41 52L42 52L42 53L43 53L43 54L44 54L44 53L45 53L45 54L47 54L47 53L48 53L48 50L47 50L47 49L48 49L48 48L49 48L49 47L48 47L48 48L47 48L47 47L46 47L46 48L45 48L45 47L43 47L43 46L41 46L41 48L39 48L39 47L40 47L40 45L41 45L41 44L42 44L42 43L40 43L40 42L41 42L41 40L44 40L44 41L43 41L43 44L44 44L44 46L48 46L48 44L50 44L50 43L51 43L51 46L50 46L50 45L49 45L49 46L50 46L50 47L51 47L51 48L53 48L53 46L54 46L54 47L55 47L55 46L56 46L56 45L55 45L55 44L54 44L54 45L52 45L52 44L53 44L53 43L54 43L54 42L53 42L53 41L54 41L54 40L53 40L53 39L55 39L55 37L53 37L53 35L52 35L52 34L50 34L50 32L51 32L51 33L52 33L52 32L53 32L53 31L52 31L52 32L51 32L51 31L48 31L48 28L47 28L47 29L46 29L46 30L47 30L47 31L46 31L46 32L43 32L43 31L44 31L44 30L45 30L45 28L46 28L46 27L48 27L48 26L47 26L47 25L48 25L48 24L49 24L49 25L50 25L50 26L51 26L51 25L55 25L55 24L53 24L53 23L52 23L52 24L51 24L51 25L50 25L50 22L51 22L51 21L54 21L54 22L56 22L56 21L55 21L55 20L53 20L53 19L52 19L52 20L51 20L51 21L49 21L49 22L47 22L47 21L48 21L48 20L49 20L49 19L51 19L51 18L55 18L55 17L53 17L53 16L51 16L51 17L50 17L50 14L51 14L51 12L50 12L50 11L48 11L48 10L47 10L47 9L45 9L45 8L47 8L47 7L46 7L46 5L47 5L47 3L44 3L44 6L43 6L43 8L44 8L44 9L43 9L43 10L44 10L44 9L45 9L45 10L47 10L47 12L45 12L45 11L42 11L42 10L41 10L41 12L40 12L40 11L39 11L39 12L40 12L40 13L38 13L38 14L36 14L36 15L35 15L35 16L32 16L32 15L31 15L31 14L32 14L32 13L33 13L33 14L35 14L35 12L36 12L36 10L37 10L37 9L38 9L38 10L39 10L39 9L42 9L42 8L41 8L41 7L42 7L42 5L40 5L40 6L39 6L39 7L40 7L40 8L39 8L39 9L38 9L38 8L37 8L37 7L36 7L36 5L37 5L37 4L36 4L36 5L35 5L35 4L33 4L33 3L34 3L34 2L33 2L33 3L32 3L32 1L30 1L30 2L31 2L31 3L30 3L30 4L31 4L31 8L32 8L32 10L31 10L31 11L30 11L30 10L27 10L27 11L26 11L26 12L25 12L25 10L24 10L24 12L23 12L23 13L22 13L22 12L20 12L20 11L22 11L22 10L21 10L21 9L24 9L24 6L23 6L23 5L24 5L24 4L23 4L23 3L26 3L26 4L25 4L25 8L26 8L26 4L29 4L29 2L28 2L28 3L27 3L27 2L22 2L22 1ZM21 2L21 3L22 3L22 2ZM8 3L8 4L9 4L9 3ZM31 3L31 4L32 4L32 5L33 5L33 6L32 6L32 7L33 7L33 9L34 9L34 8L35 8L35 9L37 9L37 8L35 8L35 5L33 5L33 4L32 4L32 3ZM15 4L15 5L16 5L16 4ZM45 4L45 5L46 5L46 4ZM8 5L8 7L9 7L9 5ZM27 5L27 8L30 8L30 5ZM22 6L22 7L23 7L23 6ZM28 6L28 7L29 7L29 6ZM33 6L33 7L34 7L34 6ZM40 6L40 7L41 7L41 6ZM44 6L44 7L45 7L45 6ZM48 8L48 9L49 9L49 8ZM55 8L55 9L56 9L56 8ZM15 9L15 10L16 10L16 9ZM32 10L32 11L33 11L33 10ZM13 11L13 12L14 12L14 11ZM27 11L27 12L26 12L26 14L27 14L27 13L28 13L28 14L29 14L29 16L28 16L28 15L27 15L27 16L28 16L28 17L27 17L27 18L26 18L26 19L25 19L25 17L26 17L26 15L24 15L24 14L25 14L25 13L23 13L23 14L22 14L22 13L21 13L21 15L24 15L24 16L25 16L25 17L22 17L22 16L21 16L21 17L22 17L22 19L21 19L21 20L22 20L22 19L23 19L23 20L24 20L24 21L21 21L21 22L24 22L24 21L25 21L25 22L26 22L26 23L25 23L25 24L24 24L24 23L22 23L22 24L20 24L20 25L19 25L19 24L17 24L17 25L18 25L18 26L15 26L15 28L16 28L16 29L18 29L18 31L19 31L19 32L17 32L17 33L18 33L18 35L19 35L19 34L20 34L20 36L21 36L21 34L22 34L22 36L23 36L23 37L24 37L24 38L23 38L23 39L22 39L22 37L19 37L19 36L17 36L17 37L18 37L18 38L17 38L17 40L16 40L16 39L15 39L15 40L16 40L16 41L17 41L17 42L18 42L18 43L16 43L16 44L18 44L18 45L17 45L17 46L19 46L19 48L20 48L20 47L23 47L23 46L25 46L25 45L23 45L23 43L24 43L24 44L27 44L27 45L28 45L28 44L29 44L29 43L30 43L30 44L33 44L33 43L34 43L34 42L33 42L33 41L32 41L32 40L30 40L30 41L32 41L32 42L27 42L27 41L28 41L28 39L27 39L27 38L28 38L28 37L27 37L27 38L25 38L25 37L26 37L26 35L27 35L27 31L31 31L31 33L29 33L29 32L28 32L28 33L29 33L29 34L30 34L30 36L29 36L29 37L31 37L31 38L29 38L29 39L33 39L33 40L35 40L35 39L37 39L37 38L38 38L38 40L40 40L40 39L39 39L39 38L38 38L38 37L37 37L37 36L38 36L38 33L37 33L37 32L35 32L35 31L36 31L36 30L37 30L37 29L38 29L38 28L39 28L39 27L41 27L41 28L42 28L42 26L43 26L43 25L44 25L44 27L43 27L43 28L45 28L45 27L46 27L46 26L45 26L45 25L44 25L44 24L43 24L43 23L44 23L44 20L48 20L48 19L49 19L49 18L50 18L50 17L49 17L49 16L48 16L48 15L49 15L49 14L50 14L50 12L49 12L49 13L47 13L47 14L45 14L45 17L46 17L46 15L47 15L47 19L45 19L45 18L44 18L44 15L42 15L42 16L41 16L41 15L40 15L40 14L38 14L38 15L39 15L39 16L38 16L38 17L37 17L37 16L35 16L35 17L37 17L37 18L38 18L38 17L39 17L39 19L37 19L37 20L36 20L36 19L32 19L32 18L31 18L31 17L32 17L32 16L31 16L31 15L30 15L30 14L31 14L31 13L32 13L32 12L31 12L31 13L30 13L30 14L29 14L29 13L28 13L28 12L29 12L29 11ZM16 12L16 13L17 13L17 12ZM33 12L33 13L34 13L34 12ZM43 12L43 13L41 13L41 14L43 14L43 13L44 13L44 12ZM52 12L52 13L53 13L53 12ZM53 14L53 15L54 15L54 14ZM5 15L5 16L6 16L6 17L7 17L7 16L6 16L6 15ZM10 16L10 17L11 17L11 18L10 18L10 19L11 19L11 20L12 20L12 21L13 21L13 20L14 20L14 19L13 19L13 18L12 18L12 17L11 17L11 16ZM39 16L39 17L41 17L41 16ZM42 16L42 17L43 17L43 16ZM15 17L15 18L16 18L16 17ZM23 18L23 19L24 19L24 18ZM27 18L27 19L26 19L26 21L28 21L28 22L27 22L27 23L28 23L28 24L25 24L25 25L26 25L26 26L22 26L22 25L24 25L24 24L22 24L22 25L20 25L20 26L18 26L18 27L17 27L17 28L18 28L18 29L20 29L20 30L19 30L19 31L20 31L20 32L21 32L21 33L20 33L20 34L21 34L21 33L22 33L22 34L23 34L23 36L24 36L24 34L23 34L23 33L25 33L25 34L26 34L26 31L25 31L25 30L24 30L24 31L23 31L23 28L24 28L24 27L26 27L26 26L27 26L27 25L31 25L31 24L32 24L32 26L31 26L31 28L32 28L32 29L31 29L31 31L32 31L32 34L31 34L31 35L32 35L32 34L33 34L33 36L32 36L32 37L33 37L33 39L34 39L34 38L35 38L35 37L33 37L33 36L34 36L34 35L35 35L35 36L37 36L37 34L35 34L35 33L33 33L33 30L35 30L35 28L37 28L37 27L39 27L39 25L41 25L41 24L42 24L42 23L43 23L43 22L41 22L41 24L38 24L38 23L40 23L40 22L39 22L39 21L42 21L42 20L38 20L38 23L37 23L37 24L38 24L38 26L37 26L37 25L33 25L33 24L32 24L32 23L33 23L33 22L34 22L34 23L35 23L35 20L32 20L32 21L31 21L31 22L30 22L30 21L29 21L29 20L31 20L31 18L30 18L30 19L28 19L28 18ZM41 18L41 19L42 19L42 18ZM43 18L43 20L44 20L44 18ZM12 19L12 20L13 20L13 19ZM15 19L15 21L16 21L16 20L17 20L17 19ZM19 22L19 23L20 23L20 22ZM29 22L29 24L31 24L31 23L30 23L30 22ZM46 22L46 23L45 23L45 24L48 24L48 23L47 23L47 22ZM3 23L3 24L4 24L4 23ZM6 23L6 24L7 24L7 23ZM20 26L20 27L19 27L19 28L21 28L21 29L22 29L22 28L21 28L21 27L22 27L22 26ZM32 26L32 27L33 27L33 28L35 28L35 27L36 27L36 26L34 26L34 27L33 27L33 26ZM53 26L53 27L54 27L54 26ZM0 27L0 28L1 28L1 27ZM5 27L5 30L8 30L8 27ZM27 27L27 30L30 30L30 27ZM49 27L49 30L52 30L52 27ZM6 28L6 29L7 29L7 28ZM25 28L25 29L26 29L26 28ZM28 28L28 29L29 29L29 28ZM50 28L50 29L51 29L51 28ZM54 28L54 29L53 29L53 30L54 30L54 29L55 29L55 28ZM12 29L12 30L13 30L13 29ZM32 29L32 30L33 30L33 29ZM40 29L40 30L44 30L44 29ZM20 30L20 31L21 31L21 32L23 32L23 31L21 31L21 30ZM38 30L38 32L39 32L39 30ZM47 31L47 32L48 32L48 33L49 33L49 32L48 32L48 31ZM41 32L41 33L39 33L39 34L40 34L40 35L39 35L39 37L40 37L40 38L43 38L43 37L44 37L44 38L45 38L45 37L44 37L44 36L48 36L48 37L47 37L47 39L46 39L46 40L47 40L47 39L50 39L50 40L49 40L49 41L48 41L48 42L46 42L46 44L45 44L45 45L47 45L47 43L48 43L48 42L49 42L49 43L50 43L50 42L51 42L51 43L53 43L53 42L51 42L51 41L53 41L53 40L51 40L51 39L50 39L50 38L51 38L51 36L52 36L52 35L50 35L50 34L48 34L48 35L44 35L44 33L43 33L43 32ZM13 33L13 34L14 34L14 33ZM42 34L42 35L43 35L43 36L44 36L44 35L43 35L43 34ZM48 35L48 36L50 36L50 35ZM40 36L40 37L42 37L42 36ZM13 37L13 38L12 38L12 40L11 40L11 43L10 43L10 41L7 41L7 40L6 40L6 41L7 41L7 42L6 42L6 43L7 43L7 42L9 42L9 43L10 43L10 44L11 44L11 43L13 43L13 41L14 41L14 39L13 39L13 38L16 38L16 37ZM49 37L49 38L50 38L50 37ZM18 38L18 39L20 39L20 38ZM52 38L52 39L53 39L53 38ZM21 39L21 40L19 40L19 41L18 41L18 42L19 42L19 41L20 41L20 42L21 42L21 43L20 43L20 44L19 44L19 45L20 45L20 46L21 46L21 45L22 45L22 46L23 46L23 45L22 45L22 44L21 44L21 43L22 43L22 42L24 42L24 41L25 41L25 43L27 43L27 44L28 44L28 43L27 43L27 42L26 42L26 41L27 41L27 39L25 39L25 40L24 40L24 39L23 39L23 40L22 40L22 39ZM44 39L44 40L45 40L45 39ZM12 40L12 41L13 41L13 40ZM23 40L23 41L24 41L24 40ZM21 41L21 42L22 42L22 41ZM44 41L44 43L45 43L45 41ZM14 42L14 43L15 43L15 42ZM32 42L32 43L33 43L33 42ZM6 44L6 45L7 45L7 44ZM13 44L13 45L14 45L14 46L15 46L15 45L14 45L14 44ZM51 46L51 47L52 47L52 46ZM12 47L12 48L11 48L11 49L12 49L12 48L13 48L13 47ZM29 47L29 48L30 48L30 47ZM42 47L42 48L41 48L41 50L38 50L38 51L37 51L37 52L39 52L39 51L40 51L40 52L41 52L41 50L42 50L42 51L43 51L43 53L44 53L44 52L47 52L47 50L46 50L46 49L47 49L47 48L46 48L46 49L45 49L45 50L46 50L46 51L43 51L43 50L44 50L44 48L43 48L43 47ZM24 48L24 49L25 49L25 48ZM38 48L38 49L39 49L39 48ZM42 48L42 49L43 49L43 48ZM27 49L27 52L30 52L30 49ZM49 49L49 52L52 52L52 49ZM28 50L28 51L29 51L29 50ZM50 50L50 51L51 51L51 50ZM54 50L54 51L55 51L55 50ZM16 51L16 53L14 53L14 54L12 54L12 55L14 55L14 56L16 56L16 55L14 55L14 54L16 54L16 53L17 53L17 51ZM19 51L19 52L20 52L20 51ZM11 52L11 53L9 53L9 55L10 55L10 54L11 54L11 53L13 53L13 52ZM17 54L17 56L18 56L18 55L19 55L19 54ZM50 55L50 56L51 56L51 55ZM43 56L43 57L44 57L44 56ZM0 0L0 7L7 7L7 0ZM1 1L1 6L6 6L6 1ZM2 2L2 5L5 5L5 2ZM50 0L50 7L57 7L57 0ZM51 1L51 6L56 6L56 1ZM52 2L52 5L55 5L55 2ZM0 50L0 57L7 57L7 50ZM1 51L1 56L6 56L6 51ZM2 52L2 55L5 55L5 52Z" fill="#000000"/></g></g></svg>
