<?xml version="1.0" encoding="UTF-8"?>
<svg xmlns="http://www.w3.org/2000/svg" version="1.1" width="300" height="300" viewBox="0 0 300 300"><rect x="0" y="0" width="300" height="300" fill="#fefefe"/><g transform="scale(4.615)"><g transform="translate(4,4)"><path fill-rule="evenodd" d="M9 0L9 1L8 1L8 2L9 2L9 1L11 1L11 2L10 2L10 3L11 3L11 2L12 2L12 1L14 1L14 2L13 2L13 4L12 4L12 5L11 5L11 4L9 4L9 3L8 3L8 4L9 4L9 5L8 5L8 7L9 7L9 5L11 5L11 6L10 6L10 8L6 8L6 9L5 9L5 8L0 8L0 10L1 10L1 9L2 9L2 11L0 11L0 15L1 15L1 16L4 16L4 15L5 15L5 17L7 17L7 16L6 16L6 15L8 15L8 14L9 14L9 12L11 12L11 11L10 11L10 10L12 10L12 11L14 11L14 12L12 12L12 14L11 14L11 15L9 15L9 16L10 16L10 19L9 19L9 20L8 20L8 21L7 21L7 20L6 20L6 19L8 19L8 18L9 18L9 17L8 17L8 18L4 18L4 20L2 20L2 19L3 19L3 18L1 18L1 17L0 17L0 18L1 18L1 20L2 20L2 25L1 25L1 26L0 26L0 27L1 27L1 28L0 28L0 29L2 29L2 30L1 30L1 31L2 31L2 32L3 32L3 31L4 31L4 32L5 32L5 34L6 34L6 35L5 35L5 36L4 36L4 38L5 38L5 39L3 39L3 40L1 40L1 41L0 41L0 45L1 45L1 46L0 46L0 48L5 48L5 47L7 47L7 48L6 48L6 49L8 49L8 51L9 51L9 49L11 49L11 52L8 52L8 57L9 57L9 55L10 55L10 57L13 57L13 56L11 56L11 54L12 54L12 52L13 52L13 54L14 54L14 53L16 53L16 54L15 54L15 55L16 55L16 56L14 56L14 57L16 57L16 56L17 56L17 57L20 57L20 56L18 56L18 55L20 55L20 54L19 54L19 53L20 53L20 52L23 52L23 51L18 51L18 50L20 50L20 49L19 49L19 48L20 48L20 45L21 45L21 47L23 47L23 46L25 46L25 45L23 45L23 43L24 43L24 44L27 44L27 43L25 43L25 41L24 41L24 40L25 40L25 39L26 39L26 40L28 40L28 41L26 41L26 42L28 42L28 41L29 41L29 43L28 43L28 44L29 44L29 43L31 43L31 45L30 45L30 46L27 46L27 45L26 45L26 47L27 47L27 48L25 48L25 49L24 49L24 48L23 48L23 49L21 49L21 50L25 50L25 49L26 49L26 52L24 52L24 53L23 53L23 54L22 54L22 53L21 53L21 54L22 54L22 55L21 55L21 56L23 56L23 57L26 57L26 56L27 56L27 57L29 57L29 56L30 56L30 57L31 57L31 56L35 56L35 57L39 57L39 56L41 56L41 57L44 57L44 56L41 56L41 54L42 54L42 55L44 55L44 54L45 54L45 57L47 57L47 56L50 56L50 57L52 57L52 55L51 55L51 53L52 53L52 54L53 54L53 52L54 52L54 53L55 53L55 51L56 51L56 52L57 52L57 51L56 51L56 49L57 49L57 48L56 48L56 46L57 46L57 45L56 45L56 44L55 44L55 43L56 43L56 42L55 42L55 39L57 39L57 37L56 37L56 33L57 33L57 32L56 32L56 30L57 30L57 29L56 29L56 26L57 26L57 25L56 25L56 22L57 22L57 21L56 21L56 22L55 22L55 23L54 23L54 24L53 24L53 25L52 25L52 26L50 26L50 24L51 24L51 23L53 23L53 22L54 22L54 21L51 21L51 20L52 20L52 19L53 19L53 20L55 20L55 19L56 19L56 20L57 20L57 19L56 19L56 18L57 18L57 17L56 17L56 16L57 16L57 15L56 15L56 14L57 14L57 12L56 12L56 14L55 14L55 15L54 15L54 12L55 12L55 11L56 11L56 10L54 10L54 11L53 11L53 10L50 10L50 8L49 8L49 6L48 6L48 7L47 7L47 5L48 5L48 0L45 0L45 2L44 2L44 3L43 3L43 4L40 4L40 5L39 5L39 6L38 6L38 9L37 9L37 8L35 8L35 5L36 5L36 7L37 7L37 5L38 5L38 2L39 2L39 3L42 3L42 2L43 2L43 0L41 0L41 1L40 1L40 0L39 0L39 1L38 1L38 0L37 0L37 1L38 1L38 2L37 2L37 3L36 3L36 0L35 0L35 1L33 1L33 0L27 0L27 1L26 1L26 0L23 0L23 1L22 1L22 0L21 0L21 1L20 1L20 0L18 0L18 2L16 2L16 1L14 1L14 0L12 0L12 1L11 1L11 0ZM19 1L19 2L18 2L18 3L19 3L19 4L17 4L17 3L15 3L15 2L14 2L14 4L13 4L13 5L12 5L12 6L11 6L11 9L12 9L12 8L13 8L13 7L14 7L14 6L15 6L15 7L16 7L16 8L14 8L14 9L13 9L13 10L15 10L15 13L13 13L13 14L15 14L15 13L16 13L16 17L15 17L15 16L14 16L14 18L13 18L13 15L11 15L11 16L12 16L12 17L11 17L11 18L13 18L13 19L14 19L14 20L11 20L11 21L8 21L8 22L7 22L7 21L6 21L6 22L5 22L5 20L4 20L4 22L3 22L3 23L4 23L4 24L3 24L3 25L2 25L2 26L7 26L7 25L8 25L8 26L9 26L9 28L10 28L10 32L9 32L9 31L6 31L6 32L9 32L9 33L11 33L11 34L10 34L10 37L12 37L12 40L11 40L11 39L10 39L10 40L7 40L7 39L5 39L5 40L7 40L7 41L6 41L6 42L5 42L5 41L4 41L4 40L3 40L3 41L1 41L1 43L2 43L2 44L1 44L1 45L2 45L2 44L3 44L3 43L4 43L4 44L7 44L7 45L5 45L5 46L3 46L3 47L5 47L5 46L7 46L7 47L8 47L8 46L9 46L9 47L10 47L10 42L9 42L9 41L11 41L11 44L14 44L14 45L11 45L11 46L12 46L12 48L11 48L11 49L12 49L12 50L13 50L13 48L14 48L14 49L15 49L15 50L14 50L14 51L13 51L13 52L14 52L14 51L15 51L15 52L16 52L16 53L17 53L17 52L18 52L18 51L15 51L15 50L17 50L17 48L18 48L18 46L17 46L17 45L18 45L18 44L16 44L16 43L18 43L18 42L19 42L19 43L20 43L20 44L19 44L19 45L20 45L20 44L21 44L21 45L22 45L22 46L23 46L23 45L22 45L22 44L21 44L21 43L22 43L22 42L23 42L23 40L24 40L24 39L22 39L22 38L24 38L24 37L23 37L23 36L24 36L24 34L23 34L23 33L25 33L25 35L26 35L26 36L27 36L27 37L25 37L25 38L26 38L26 39L28 39L28 40L29 40L29 41L31 41L31 42L32 42L32 43L33 43L33 44L32 44L32 46L31 46L31 47L33 47L33 46L35 46L35 48L34 48L34 49L33 49L33 48L31 48L31 50L32 50L32 51L31 51L31 53L30 53L30 54L27 54L27 53L24 53L24 54L23 54L23 55L24 55L24 56L26 56L26 55L27 55L27 56L29 56L29 55L30 55L30 56L31 56L31 54L32 54L32 53L33 53L33 54L34 54L34 55L35 55L35 56L36 56L36 54L35 54L35 50L36 50L36 52L39 52L39 53L38 53L38 54L40 54L40 53L43 53L43 54L44 54L44 53L45 53L45 54L46 54L46 55L47 55L47 54L48 54L48 50L47 50L47 49L48 49L48 48L50 48L50 47L51 47L51 48L53 48L53 49L54 49L54 48L53 48L53 47L55 47L55 46L56 46L56 45L55 45L55 44L54 44L54 45L53 45L53 43L54 43L54 42L53 42L53 41L51 41L51 42L50 42L50 43L49 43L49 42L48 42L48 41L49 41L49 40L50 40L50 39L51 39L51 40L52 40L52 39L55 39L55 38L54 38L54 37L53 37L53 35L55 35L55 34L54 34L54 33L56 33L56 32L54 32L54 30L55 30L55 28L54 28L54 30L53 30L53 32L54 32L54 33L52 33L52 31L51 31L51 33L52 33L52 34L50 34L50 32L49 32L49 31L48 31L48 29L46 29L46 30L47 30L47 31L46 31L46 33L45 33L45 32L43 32L43 31L45 31L45 28L46 28L46 27L47 27L47 25L49 25L49 24L50 24L50 22L51 22L51 21L49 21L49 22L47 22L47 21L48 21L48 20L47 20L47 19L46 19L46 18L47 18L47 16L46 16L46 15L45 15L45 14L47 14L47 13L49 13L49 12L50 12L50 14L49 14L49 15L48 15L48 16L49 16L49 17L50 17L50 19L52 19L52 18L51 18L51 17L50 17L50 16L52 16L52 17L53 17L53 18L56 18L56 17L54 17L54 16L52 16L52 15L50 15L50 14L51 14L51 12L50 12L50 10L47 10L47 9L49 9L49 8L47 8L47 7L46 7L46 5L47 5L47 3L44 3L44 6L43 6L43 8L42 8L42 9L43 9L43 11L41 11L41 12L40 12L40 11L39 11L39 10L41 10L41 7L42 7L42 5L40 5L40 6L39 6L39 9L38 9L38 11L39 11L39 12L40 12L40 13L38 13L38 14L37 14L37 15L35 15L35 16L31 16L31 18L30 18L30 19L31 19L31 18L32 18L32 19L34 19L34 20L32 20L32 21L31 21L31 20L29 20L29 19L28 19L28 18L27 18L27 19L26 19L26 17L28 17L28 16L29 16L29 14L30 14L30 15L32 15L32 14L36 14L36 13L35 13L35 11L36 11L36 10L37 10L37 9L35 9L35 8L34 8L34 9L33 9L33 7L34 7L34 5L35 5L35 2L34 2L34 3L32 3L32 2L33 2L33 1L31 1L31 3L30 3L30 2L29 2L29 1L28 1L28 3L27 3L27 2L26 2L26 1L25 1L25 2L22 2L22 1L21 1L21 2L20 2L20 1ZM46 1L46 2L47 2L47 1ZM21 2L21 3L22 3L22 2ZM23 3L23 4L24 4L24 5L23 5L23 6L22 6L22 7L21 7L21 4L19 4L19 5L20 5L20 7L19 7L19 6L18 6L18 5L17 5L17 6L16 6L16 7L17 7L17 6L18 6L18 7L19 7L19 8L18 8L18 9L17 9L17 8L16 8L16 9L17 9L17 10L16 10L16 11L17 11L17 12L16 12L16 13L17 13L17 15L19 15L19 16L17 16L17 17L18 17L18 18L15 18L15 21L16 21L16 22L14 22L14 21L13 21L13 22L14 22L14 23L16 23L16 24L14 24L14 25L13 25L13 24L12 24L12 25L11 25L11 24L10 24L10 26L11 26L11 27L10 27L10 28L12 28L12 25L13 25L13 26L14 26L14 28L13 28L13 29L14 29L14 28L15 28L15 27L16 27L16 26L14 26L14 25L18 25L18 26L17 26L17 27L18 27L18 26L19 26L19 27L20 27L20 28L21 28L21 29L22 29L22 28L21 28L21 27L22 27L22 26L26 26L26 27L25 27L25 28L26 28L26 29L23 29L23 31L21 31L21 32L20 32L20 31L19 31L19 32L17 32L17 34L19 34L19 36L17 36L17 37L19 37L19 38L20 38L20 39L18 39L18 38L17 38L17 42L18 42L18 41L19 41L19 42L20 42L20 41L21 41L21 42L22 42L22 41L21 41L21 40L22 40L22 39L21 39L21 37L19 37L19 36L20 36L20 33L21 33L21 36L23 36L23 35L22 35L22 33L21 33L21 32L24 32L24 30L25 30L25 31L26 31L26 32L25 32L25 33L26 33L26 35L27 35L27 31L31 31L31 33L29 33L29 32L28 32L28 33L29 33L29 34L30 34L30 36L29 36L29 37L31 37L31 38L29 38L29 39L33 39L33 40L35 40L35 42L37 42L37 43L36 43L36 44L35 44L35 43L34 43L34 42L33 42L33 41L32 41L32 40L31 40L31 41L32 41L32 42L33 42L33 43L34 43L34 45L35 45L35 46L37 46L37 47L36 47L36 48L35 48L35 49L36 49L36 50L38 50L38 51L40 51L40 52L41 52L41 50L42 50L42 51L43 51L43 53L44 53L44 52L45 52L45 53L47 53L47 50L46 50L46 49L47 49L47 48L48 48L48 47L50 47L50 46L45 46L45 48L46 48L46 49L45 49L45 50L46 50L46 52L45 52L45 51L43 51L43 50L44 50L44 48L43 48L43 47L44 47L44 46L43 46L43 45L44 45L44 43L45 43L45 41L47 41L47 39L50 39L50 38L51 38L51 37L52 37L52 35L53 35L53 34L52 34L52 35L50 35L50 34L48 34L48 35L50 35L50 36L49 36L49 37L50 37L50 38L47 38L47 39L46 39L46 38L45 38L45 37L47 37L47 34L45 34L45 35L44 35L44 33L43 33L43 32L41 32L41 33L39 33L39 34L40 34L40 35L38 35L38 33L37 33L37 32L34 32L34 31L36 31L36 30L37 30L37 29L38 29L38 28L39 28L39 27L36 27L36 26L34 26L34 27L33 27L33 26L32 26L32 24L33 24L33 25L37 25L37 26L38 26L38 25L39 25L39 24L37 24L37 23L39 23L39 22L40 22L40 24L43 24L43 25L41 25L41 26L40 26L40 27L41 27L41 28L42 28L42 27L41 27L41 26L43 26L43 28L45 28L45 27L46 27L46 26L43 26L43 25L44 25L44 20L45 20L45 21L47 21L47 20L46 20L46 19L45 19L45 18L44 18L44 14L43 14L43 13L44 13L44 12L43 12L43 13L41 13L41 14L38 14L38 15L39 15L39 16L38 16L38 17L37 17L37 16L35 16L35 17L37 17L37 18L38 18L38 17L39 17L39 19L37 19L37 20L36 20L36 19L35 19L35 20L34 20L34 21L35 21L35 23L32 23L32 24L31 24L31 25L29 25L29 26L28 26L28 25L27 25L27 26L26 26L26 25L25 25L25 24L28 24L28 22L30 22L30 23L31 23L31 21L25 21L25 20L26 20L26 19L25 19L25 17L26 17L26 15L25 15L25 14L27 14L27 13L28 13L28 14L29 14L29 13L28 13L28 12L29 12L29 11L28 11L28 10L30 10L30 11L31 11L31 12L33 12L33 13L34 13L34 12L33 12L33 10L32 10L32 8L31 8L31 4L32 4L32 5L34 5L34 4L32 4L32 3L31 3L31 4L26 4L26 3ZM15 4L15 5L16 5L16 4ZM25 4L25 8L26 8L26 4ZM36 4L36 5L37 5L37 4ZM45 4L45 5L46 5L46 4ZM13 5L13 6L12 6L12 7L13 7L13 6L14 6L14 5ZM27 5L27 8L30 8L30 5ZM23 6L23 7L22 7L22 8L19 8L19 9L18 9L18 10L17 10L17 11L18 11L18 10L19 10L19 9L20 9L20 11L19 11L19 13L20 13L20 16L19 16L19 17L20 17L20 18L18 18L18 19L16 19L16 21L17 21L17 20L18 20L18 19L19 19L19 20L20 20L20 21L19 21L19 22L20 22L20 23L18 23L18 22L17 22L17 24L21 24L21 25L20 25L20 26L21 26L21 25L24 25L24 24L25 24L25 23L26 23L26 22L25 22L25 21L24 21L24 20L23 20L23 19L24 19L24 18L22 18L22 17L25 17L25 16L24 16L24 15L21 15L21 13L22 13L22 14L23 14L23 13L26 13L26 12L27 12L27 11L26 11L26 12L25 12L25 11L24 11L24 12L23 12L23 13L22 13L22 12L21 12L21 13L20 13L20 11L22 11L22 10L23 10L23 9L24 9L24 6ZM28 6L28 7L29 7L29 6ZM32 6L32 7L33 7L33 6ZM40 6L40 7L41 7L41 6ZM44 6L44 7L45 7L45 6ZM43 8L43 9L44 9L44 11L45 11L45 12L47 12L47 10L46 10L46 11L45 11L45 9L44 9L44 8ZM51 8L51 9L52 9L52 8ZM53 8L53 9L54 9L54 8ZM55 8L55 9L56 9L56 8ZM3 9L3 10L4 10L4 9ZM6 9L6 10L7 10L7 11L3 11L3 12L2 12L2 13L3 13L3 15L4 15L4 12L5 12L5 14L8 14L8 13L6 13L6 12L7 12L7 11L8 11L8 10L9 10L9 9ZM21 9L21 10L22 10L22 9ZM31 10L31 11L32 11L32 10ZM17 12L17 13L18 13L18 12ZM52 12L52 13L53 13L53 12ZM30 13L30 14L32 14L32 13ZM1 14L1 15L2 15L2 14ZM41 14L41 16L39 16L39 17L41 17L41 16L42 16L42 17L43 17L43 16L42 16L42 15L43 15L43 14ZM27 15L27 16L28 16L28 15ZM20 16L20 17L22 17L22 16ZM45 16L45 17L46 17L46 16ZM32 17L32 18L33 18L33 17ZM20 18L20 20L21 20L21 19L22 19L22 18ZM41 18L41 19L42 19L42 18ZM43 18L43 20L42 20L42 21L43 21L43 20L44 20L44 18ZM48 18L48 19L49 19L49 18ZM38 20L38 22L39 22L39 21L41 21L41 20ZM0 21L0 24L1 24L1 21ZM22 21L22 23L21 23L21 24L24 24L24 23L23 23L23 22L24 22L24 21ZM6 22L6 23L7 23L7 22ZM9 22L9 23L11 23L11 22ZM45 22L45 25L46 25L46 24L48 24L48 23L47 23L47 22ZM5 24L5 25L7 25L7 24ZM54 24L54 25L55 25L55 24ZM31 26L31 27L32 27L32 29L31 29L31 31L32 31L32 33L31 33L31 34L32 34L32 35L35 35L35 36L37 36L37 37L38 37L38 38L37 38L37 39L35 39L35 37L33 37L33 36L32 36L32 37L33 37L33 39L35 39L35 40L38 40L38 42L39 42L39 45L38 45L38 46L39 46L39 47L38 47L38 48L37 48L37 49L38 49L38 50L41 50L41 48L42 48L42 49L43 49L43 48L42 48L42 47L43 47L43 46L41 46L41 44L42 44L42 43L40 43L40 42L41 42L41 41L42 41L42 40L44 40L44 41L43 41L43 42L44 42L44 41L45 41L45 40L46 40L46 39L45 39L45 38L44 38L44 37L45 37L45 36L44 36L44 35L43 35L43 34L42 34L42 35L43 35L43 36L40 36L40 37L38 37L38 35L37 35L37 34L35 34L35 33L34 33L34 32L33 32L33 31L32 31L32 30L35 30L35 28L36 28L36 27L35 27L35 28L33 28L33 27L32 27L32 26ZM53 26L53 27L54 27L54 26ZM3 27L3 28L4 28L4 27ZM5 27L5 30L8 30L8 27ZM27 27L27 30L30 30L30 27ZM49 27L49 30L52 30L52 27ZM6 28L6 29L7 29L7 28ZM16 28L16 29L15 29L15 30L12 30L12 31L11 31L11 32L12 32L12 31L16 31L16 29L18 29L18 30L20 30L20 29L18 29L18 28ZM28 28L28 29L29 29L29 28ZM50 28L50 29L51 29L51 28ZM3 29L3 30L2 30L2 31L3 31L3 30L4 30L4 29ZM39 29L39 30L38 30L38 32L39 32L39 30L40 30L40 29ZM41 29L41 30L44 30L44 29ZM47 31L47 32L48 32L48 33L49 33L49 32L48 32L48 31ZM14 32L14 33L15 33L15 32ZM6 33L6 34L8 34L8 35L9 35L9 34L8 34L8 33ZM12 33L12 34L11 34L11 35L13 35L13 36L12 36L12 37L13 37L13 38L14 38L14 39L13 39L13 40L14 40L14 41L13 41L13 43L14 43L14 41L15 41L15 40L16 40L16 39L15 39L15 38L16 38L16 37L14 37L14 36L15 36L15 34L14 34L14 35L13 35L13 33ZM0 34L0 35L1 35L1 36L0 36L0 38L1 38L1 37L2 37L2 36L3 36L3 35L2 35L2 34ZM6 35L6 36L7 36L7 37L6 37L6 38L7 38L7 37L8 37L8 38L9 38L9 36L7 36L7 35ZM43 36L43 37L40 37L40 38L43 38L43 37L44 37L44 36ZM50 36L50 37L51 37L51 36ZM27 37L27 38L28 38L28 37ZM38 38L38 40L40 40L40 39L39 39L39 38ZM14 39L14 40L15 40L15 39ZM44 39L44 40L45 40L45 39ZM19 40L19 41L20 41L20 40ZM6 42L6 43L7 43L7 44L8 44L8 45L9 45L9 44L8 44L8 43L9 43L9 42ZM46 42L46 44L45 44L45 45L47 45L47 43L48 43L48 42ZM51 42L51 43L50 43L50 44L48 44L48 45L50 45L50 44L51 44L51 45L52 45L52 44L51 44L51 43L53 43L53 42ZM54 45L54 46L55 46L55 45ZM1 46L1 47L2 47L2 46ZM14 46L14 47L15 47L15 49L16 49L16 47L15 47L15 46ZM40 46L40 47L39 47L39 48L38 48L38 49L39 49L39 48L41 48L41 46ZM51 46L51 47L53 47L53 46ZM28 47L28 48L30 48L30 47ZM46 47L46 48L47 48L47 47ZM55 48L55 49L56 49L56 48ZM27 49L27 52L30 52L30 49ZM32 49L32 50L33 50L33 49ZM49 49L49 52L52 52L52 49ZM28 50L28 51L29 51L29 50ZM50 50L50 51L51 51L51 50ZM54 50L54 51L55 51L55 50ZM32 51L32 52L33 52L33 53L34 53L34 52L33 52L33 51ZM10 53L10 54L11 54L11 53ZM37 55L37 56L39 56L39 55ZM50 55L50 56L51 56L51 55ZM53 55L53 56L55 56L55 57L56 57L56 56L55 56L55 55ZM0 0L0 7L7 7L7 0ZM1 1L1 6L6 6L6 1ZM2 2L2 5L5 5L5 2ZM50 0L50 7L57 7L57 0ZM51 1L51 6L56 6L56 1ZM52 2L52 5L55 5L55 2ZM0 50L0 57L7 57L7 50ZM1 51L1 56L6 56L6 51ZM2 52L2 55L5 55L5 52Z" fill="#000000"/></g></g></svg>
