<?xml version="1.0" encoding="UTF-8"?>
<svg xmlns="http://www.w3.org/2000/svg" version="1.1" width="300" height="300" viewBox="0 0 300 300"><rect x="0" y="0" width="300" height="300" fill="#fefefe"/><g transform="scale(4.615)"><g transform="translate(4,4)"><path fill-rule="evenodd" d="M9 0L9 1L8 1L8 2L9 2L9 1L11 1L11 2L10 2L10 4L9 4L9 3L8 3L8 4L9 4L9 5L8 5L8 7L9 7L9 5L11 5L11 6L10 6L10 8L12 8L12 7L13 7L13 6L12 6L12 5L13 5L13 4L14 4L14 2L15 2L15 3L16 3L16 2L15 2L15 0L14 0L14 2L13 2L13 0ZM17 0L17 1L18 1L18 2L19 2L19 1L20 1L20 2L21 2L21 3L23 3L23 4L24 4L24 5L22 5L22 4L19 4L19 3L18 3L18 4L17 4L17 5L18 5L18 4L19 4L19 5L20 5L20 7L19 7L19 6L18 6L18 7L17 7L17 6L16 6L16 7L15 7L15 6L14 6L14 7L15 7L15 8L16 8L16 9L15 9L15 10L13 10L13 9L14 9L14 8L13 8L13 9L9 9L9 8L6 8L6 9L8 9L8 13L7 13L7 12L6 12L6 11L7 11L7 10L5 10L5 12L6 12L6 13L7 13L7 14L6 14L6 15L7 15L7 16L6 16L6 17L3 17L3 16L1 16L1 14L2 14L2 15L3 15L3 14L2 14L2 13L4 13L4 12L2 12L2 13L1 13L1 10L0 10L0 18L1 18L1 19L2 19L2 20L3 20L3 22L5 22L5 23L4 23L4 24L2 24L2 22L0 22L0 25L1 25L1 24L2 24L2 25L3 25L3 27L2 27L2 26L1 26L1 27L0 27L0 29L1 29L1 30L3 30L3 31L0 31L0 35L2 35L2 32L3 32L3 31L5 31L5 34L4 34L4 33L3 33L3 35L5 35L5 36L4 36L4 37L1 37L1 36L0 36L0 42L1 42L1 43L0 43L0 48L5 48L5 47L7 47L7 48L6 48L6 49L7 49L7 48L8 48L8 44L9 44L9 45L10 45L10 46L9 46L9 49L8 49L8 51L9 51L9 52L8 52L8 57L9 57L9 55L10 55L10 57L11 57L11 56L12 56L12 55L13 55L13 56L14 56L14 57L15 57L15 56L14 56L14 55L13 55L13 53L14 53L14 54L15 54L15 55L16 55L16 56L17 56L17 57L20 57L20 56L17 56L17 54L19 54L19 55L20 55L20 54L19 54L19 53L20 53L20 52L21 52L21 50L25 50L25 51L26 51L26 52L24 52L24 53L21 53L21 54L22 54L22 55L21 55L21 56L23 56L23 57L26 57L26 56L27 56L27 57L29 57L29 56L30 56L30 57L31 57L31 56L35 56L35 57L39 57L39 56L41 56L41 57L44 57L44 56L45 56L45 57L46 57L46 56L45 56L45 55L44 55L44 54L45 54L45 53L44 53L44 52L45 52L45 51L43 51L43 50L44 50L44 48L43 48L43 47L44 47L44 46L45 46L45 50L46 50L46 53L47 53L47 57L49 57L49 56L50 56L50 57L52 57L52 55L51 55L51 53L52 53L52 54L55 54L55 51L54 51L54 50L57 50L57 48L56 48L56 46L57 46L57 45L56 45L56 44L55 44L55 43L56 43L56 42L57 42L57 41L56 41L56 42L55 42L55 39L57 39L57 37L55 37L55 35L56 35L56 34L55 34L55 32L56 32L56 33L57 33L57 32L56 32L56 30L57 30L57 29L54 29L54 28L57 28L57 27L56 27L56 26L57 26L57 25L56 25L56 22L57 22L57 21L56 21L56 20L57 20L57 19L56 19L56 18L57 18L57 17L56 17L56 16L57 16L57 15L56 15L56 14L57 14L57 11L56 11L56 10L54 10L54 11L52 11L52 10L53 10L53 9L54 9L54 8L53 8L53 9L52 9L52 8L51 8L51 11L50 11L50 8L49 8L49 6L48 6L48 7L47 7L47 5L48 5L48 0L45 0L45 2L44 2L44 3L43 3L43 4L42 4L42 2L43 2L43 0L41 0L41 1L40 1L40 0L39 0L39 1L38 1L38 0L37 0L37 1L38 1L38 4L37 4L37 3L36 3L36 0L35 0L35 1L33 1L33 0L27 0L27 1L26 1L26 0L23 0L23 1L22 1L22 0L21 0L21 1L20 1L20 0ZM25 1L25 2L23 2L23 3L26 3L26 4L25 4L25 8L24 8L24 6L23 6L23 7L22 7L22 5L21 5L21 8L20 8L20 10L19 10L19 13L20 13L20 15L19 15L19 17L20 17L20 18L19 18L19 19L18 19L18 18L17 18L17 17L16 17L16 16L18 16L18 15L17 15L17 13L18 13L18 12L17 12L17 13L16 13L16 12L15 12L15 13L13 13L13 14L15 14L15 13L16 13L16 16L14 16L14 17L13 17L13 16L11 16L11 17L10 17L10 18L9 18L9 16L10 16L10 15L9 15L9 14L7 14L7 15L9 15L9 16L7 16L7 17L6 17L6 18L2 18L2 17L1 17L1 18L2 18L2 19L3 19L3 20L4 20L4 21L6 21L6 22L7 22L7 21L6 21L6 20L8 20L8 22L9 22L9 24L8 24L8 23L6 23L6 24L7 24L7 25L4 25L4 26L8 26L8 25L9 25L9 27L10 27L10 29L9 29L9 31L10 31L10 32L7 32L7 31L6 31L6 32L7 32L7 33L6 33L6 34L7 34L7 35L6 35L6 36L5 36L5 37L6 37L6 38L8 38L8 37L9 37L9 36L11 36L11 37L10 37L10 38L9 38L9 39L8 39L8 40L7 40L7 39L6 39L6 40L7 40L7 41L6 41L6 42L9 42L9 44L10 44L10 43L11 43L11 44L12 44L12 46L11 46L11 47L10 47L10 48L11 48L11 49L13 49L13 50L12 50L12 51L11 51L11 55L12 55L12 53L13 53L13 52L14 52L14 53L15 53L15 54L16 54L16 53L17 53L17 52L19 52L19 51L20 51L20 50L21 50L21 49L23 49L23 47L21 47L21 49L20 49L20 47L19 47L19 49L13 49L13 48L15 48L15 47L16 47L16 48L18 48L18 47L17 47L17 45L18 45L18 44L15 44L15 42L17 42L17 43L18 43L18 42L19 42L19 43L20 43L20 44L19 44L19 45L20 45L20 46L21 46L21 45L22 45L22 46L23 46L23 45L22 45L22 44L21 44L21 43L22 43L22 42L23 42L23 40L24 40L24 41L25 41L25 43L29 43L29 42L32 42L32 43L31 43L31 44L32 44L32 45L31 45L31 46L32 46L32 47L33 47L33 46L35 46L35 45L34 45L34 43L35 43L35 44L36 44L36 43L37 43L37 42L35 42L35 40L38 40L38 42L39 42L39 45L38 45L38 46L39 46L39 47L38 47L38 48L37 48L37 49L38 49L38 50L36 50L36 49L35 49L35 48L36 48L36 47L34 47L34 49L33 49L33 48L31 48L31 49L33 49L33 50L32 50L32 51L31 51L31 53L30 53L30 54L27 54L27 56L29 56L29 55L30 55L30 56L31 56L31 54L32 54L32 53L33 53L33 54L34 54L34 55L35 55L35 56L36 56L36 54L35 54L35 53L34 53L34 52L35 52L35 51L34 51L34 50L36 50L36 52L37 52L37 51L38 51L38 50L41 50L41 52L40 52L40 51L39 51L39 52L38 52L38 54L40 54L40 53L42 53L42 52L43 52L43 51L42 51L42 50L41 50L41 48L42 48L42 49L43 49L43 48L42 48L42 47L43 47L43 46L41 46L41 44L42 44L42 42L41 42L41 40L44 40L44 41L43 41L43 42L45 42L45 43L43 43L43 44L44 44L44 45L45 45L45 46L47 46L47 47L46 47L46 48L47 48L47 49L46 49L46 50L47 50L47 53L48 53L48 50L47 50L47 49L48 49L48 48L49 48L49 47L48 47L48 46L50 46L50 47L51 47L51 48L52 48L52 47L51 47L51 46L53 46L53 47L55 47L55 46L56 46L56 45L55 45L55 44L54 44L54 45L55 45L55 46L53 46L53 45L51 45L51 44L53 44L53 43L54 43L54 42L53 42L53 41L54 41L54 40L53 40L53 41L51 41L51 42L50 42L50 43L49 43L49 42L48 42L48 41L49 41L49 39L51 39L51 38L53 38L53 39L54 39L54 38L53 38L53 35L55 35L55 34L54 34L54 33L52 33L52 32L51 32L51 33L52 33L52 34L50 34L50 32L49 32L49 31L48 31L48 30L47 30L47 29L48 29L48 27L47 27L47 26L48 26L48 25L49 25L49 26L51 26L51 25L52 25L52 26L53 26L53 27L54 27L54 26L53 26L53 25L54 25L54 24L53 24L53 23L55 23L55 22L56 22L56 21L55 21L55 20L56 20L56 19L55 19L55 20L53 20L53 19L52 19L52 20L51 20L51 21L49 21L49 22L47 22L47 21L48 21L48 20L47 20L47 19L48 19L48 18L47 18L47 17L50 17L50 18L49 18L49 19L50 19L50 18L51 18L51 17L53 17L53 18L56 18L56 17L55 17L55 16L51 16L51 17L50 17L50 14L51 14L51 12L50 12L50 11L49 11L49 10L47 10L47 9L48 9L48 8L47 8L47 9L46 9L46 8L45 8L45 7L46 7L46 5L47 5L47 3L44 3L44 6L43 6L43 7L44 7L44 9L45 9L45 11L41 11L41 10L40 10L40 9L41 9L41 7L42 7L42 6L41 6L41 5L40 5L40 4L41 4L41 3L39 3L39 4L38 4L38 5L37 5L37 4L36 4L36 5L35 5L35 4L33 4L33 3L35 3L35 2L33 2L33 1L31 1L31 2L30 2L30 1L27 1L27 2L26 2L26 1ZM46 1L46 2L47 2L47 1ZM27 2L27 3L28 3L28 2ZM32 2L32 3L31 3L31 4L26 4L26 8L25 8L25 9L23 9L23 10L22 10L22 11L20 11L20 13L21 13L21 15L25 15L25 16L26 16L26 19L25 19L25 17L22 17L22 16L20 16L20 17L22 17L22 19L20 19L20 20L17 20L17 21L16 21L16 20L15 20L15 21L16 21L16 22L15 22L15 23L16 23L16 24L17 24L17 25L19 25L19 26L20 26L20 28L19 28L19 29L18 29L18 28L16 28L16 29L15 29L15 31L16 31L16 29L18 29L18 31L19 31L19 29L22 29L22 28L21 28L21 27L22 27L22 26L23 26L23 27L25 27L25 28L23 28L23 31L20 31L20 32L25 32L25 31L26 31L26 32L28 32L28 33L29 33L29 34L30 34L30 36L29 36L29 37L31 37L31 38L29 38L29 39L33 39L33 40L35 40L35 39L37 39L37 38L38 38L38 37L40 37L40 38L41 38L41 39L42 39L42 38L43 38L43 37L44 37L44 38L45 38L45 39L44 39L44 40L45 40L45 41L47 41L47 39L48 39L48 38L51 38L51 36L52 36L52 35L53 35L53 34L52 34L52 35L50 35L50 34L49 34L49 35L50 35L50 37L49 37L49 36L48 36L48 37L47 37L47 39L46 39L46 38L45 38L45 37L44 37L44 36L46 36L46 35L44 35L44 33L43 33L43 32L45 32L45 31L47 31L47 32L48 32L48 33L49 33L49 32L48 32L48 31L47 31L47 30L46 30L46 29L47 29L47 27L46 27L46 26L44 26L44 24L43 24L43 23L44 23L44 20L45 20L45 18L44 18L44 15L45 15L45 17L47 17L47 16L48 16L48 15L49 15L49 14L50 14L50 12L49 12L49 11L48 11L48 12L49 12L49 13L47 13L47 14L44 14L44 12L43 12L43 13L39 13L39 12L41 12L41 11L38 11L38 9L39 9L39 6L40 6L40 7L41 7L41 6L40 6L40 5L39 5L39 6L38 6L38 9L37 9L37 8L35 8L35 5L33 5L33 4L32 4L32 3L33 3L33 2ZM11 4L11 5L12 5L12 4ZM15 4L15 5L16 5L16 4ZM31 4L31 8L32 8L32 10L31 10L31 11L30 11L30 10L29 10L29 12L28 12L28 13L27 13L27 15L26 15L26 14L25 14L25 15L26 15L26 16L27 16L27 17L28 17L28 16L29 16L29 14L30 14L30 15L32 15L32 14L35 14L35 16L31 16L31 18L30 18L30 19L31 19L31 18L32 18L32 19L33 19L33 18L35 18L35 19L36 19L36 20L37 20L37 22L39 22L39 23L37 23L37 24L39 24L39 25L38 25L38 26L37 26L37 25L33 25L33 24L32 24L32 23L33 23L33 22L34 22L34 23L35 23L35 21L33 21L33 20L32 20L32 21L31 21L31 20L29 20L29 19L28 19L28 18L27 18L27 19L26 19L26 21L31 21L31 24L32 24L32 26L31 26L31 27L32 27L32 29L31 29L31 31L30 31L30 32L29 32L29 31L28 31L28 32L29 32L29 33L31 33L31 35L33 35L33 36L32 36L32 37L33 37L33 38L34 38L34 39L35 39L35 36L37 36L37 37L38 37L38 36L39 36L39 35L40 35L40 34L39 34L39 33L41 33L41 32L43 32L43 30L44 30L44 31L45 31L45 30L44 30L44 29L45 29L45 28L46 28L46 27L45 27L45 28L44 28L44 26L42 26L42 28L41 28L41 27L39 27L39 26L41 26L41 24L42 24L42 23L41 23L41 24L40 24L40 22L39 22L39 21L41 21L41 20L39 20L39 21L38 21L38 20L37 20L37 19L39 19L39 17L41 17L41 16L42 16L42 17L43 17L43 16L42 16L42 15L44 15L44 14L41 14L41 16L39 16L39 15L38 15L38 14L39 14L39 13L38 13L38 14L37 14L37 13L35 13L35 12L36 12L36 10L37 10L37 9L35 9L35 8L34 8L34 9L33 9L33 7L34 7L34 6L33 6L33 5L32 5L32 4ZM45 4L45 5L46 5L46 4ZM27 5L27 8L30 8L30 5ZM36 5L36 7L37 7L37 5ZM11 6L11 7L12 7L12 6ZM28 6L28 7L29 7L29 6ZM32 6L32 7L33 7L33 6ZM44 6L44 7L45 7L45 6ZM16 7L16 8L17 8L17 7ZM0 8L0 9L3 9L3 10L4 10L4 9L5 9L5 8ZM42 8L42 9L43 9L43 8ZM55 8L55 9L56 9L56 8ZM16 9L16 10L15 10L15 11L18 11L18 10L17 10L17 9ZM12 10L12 11L10 11L10 12L9 12L9 13L10 13L10 12L11 12L11 15L12 15L12 12L14 12L14 11L13 11L13 10ZM23 10L23 11L24 11L24 13L26 13L26 12L27 12L27 11L26 11L26 12L25 12L25 10ZM32 10L32 11L31 11L31 13L30 13L30 14L32 14L32 12L33 12L33 13L34 13L34 12L33 12L33 10ZM46 10L46 11L45 11L45 12L47 12L47 10ZM55 11L55 12L54 12L54 13L53 13L53 12L52 12L52 13L53 13L53 15L55 15L55 14L56 14L56 11ZM21 12L21 13L22 13L22 14L23 14L23 13L22 13L22 12ZM28 13L28 14L29 14L29 13ZM36 14L36 15L37 15L37 14ZM27 15L27 16L28 16L28 15ZM35 16L35 17L37 17L37 18L38 18L38 17L39 17L39 16L38 16L38 17L37 17L37 16ZM6 18L6 19L8 19L8 18ZM10 18L10 19L9 19L9 21L10 21L10 20L11 20L11 18ZM15 18L15 19L17 19L17 18ZM23 18L23 19L24 19L24 18ZM41 18L41 19L42 19L42 18ZM43 18L43 20L42 20L42 21L43 21L43 20L44 20L44 18ZM4 19L4 20L5 20L5 19ZM13 19L13 20L12 20L12 21L11 21L11 22L10 22L10 23L11 23L11 24L9 24L9 25L12 25L12 28L11 28L11 29L12 29L12 28L14 28L14 27L13 27L13 26L15 26L15 27L16 27L16 26L15 26L15 24L14 24L14 25L12 25L12 24L13 24L13 23L14 23L14 21L13 21L13 20L14 20L14 19ZM0 20L0 21L1 21L1 20ZM20 20L20 21L18 21L18 22L20 22L20 23L19 23L19 25L20 25L20 26L21 26L21 25L24 25L24 24L25 24L25 25L26 25L26 26L25 26L25 27L26 27L26 26L27 26L27 25L29 25L29 26L30 26L30 25L29 25L29 23L28 23L28 24L25 24L25 23L26 23L26 22L25 22L25 21L24 21L24 20ZM23 21L23 22L21 22L21 24L20 24L20 25L21 25L21 24L24 24L24 23L23 23L23 22L24 22L24 21ZM45 21L45 22L46 22L46 23L45 23L45 25L46 25L46 24L47 24L47 25L48 25L48 24L47 24L47 22L46 22L46 21ZM51 21L51 22L50 22L50 23L49 23L49 25L50 25L50 23L53 23L53 22L54 22L54 21ZM12 22L12 23L13 23L13 22ZM17 23L17 24L18 24L18 23ZM10 26L10 27L11 27L11 26ZM17 26L17 27L18 27L18 26ZM32 26L32 27L33 27L33 28L36 28L36 29L35 29L35 30L33 30L33 29L32 29L32 31L31 31L31 33L32 33L32 34L34 34L34 36L35 36L35 34L37 34L37 35L38 35L38 33L37 33L37 32L35 32L35 34L34 34L34 32L33 32L33 33L32 33L32 31L36 31L36 30L37 30L37 29L38 29L38 28L39 28L39 27L37 27L37 28L36 28L36 26L34 26L34 27L33 27L33 26ZM3 27L3 28L2 28L2 29L3 29L3 28L4 28L4 27ZM5 27L5 30L8 30L8 27ZM27 27L27 30L30 30L30 27ZM49 27L49 30L52 30L52 27ZM6 28L6 29L7 29L7 28ZM25 28L25 29L26 29L26 28ZM28 28L28 29L29 29L29 28ZM43 28L43 29L40 29L40 30L43 30L43 29L44 29L44 28ZM50 28L50 29L51 29L51 28ZM13 29L13 30L10 30L10 31L11 31L11 32L12 32L12 33L9 33L9 35L10 35L10 34L12 34L12 35L11 35L11 36L12 36L12 37L13 37L13 38L10 38L10 39L9 39L9 40L10 40L10 42L11 42L11 43L12 43L12 44L13 44L13 43L12 43L12 41L13 41L13 42L14 42L14 41L13 41L13 40L16 40L16 39L15 39L15 38L16 38L16 37L13 37L13 36L14 36L14 34L13 34L13 33L14 33L14 32L12 32L12 31L13 31L13 30L14 30L14 29ZM24 30L24 31L25 31L25 30ZM38 30L38 32L39 32L39 30ZM53 30L53 31L54 31L54 30ZM15 32L15 33L16 33L16 32ZM17 32L17 34L15 34L15 36L17 36L17 39L18 39L18 40L17 40L17 41L19 41L19 42L20 42L20 41L19 41L19 40L21 40L21 37L19 37L19 36L18 36L18 35L19 35L19 34L20 34L20 33L19 33L19 32ZM7 33L7 34L8 34L8 33ZM21 33L21 35L20 35L20 36L23 36L23 37L24 37L24 38L22 38L22 39L24 39L24 40L25 40L25 39L27 39L27 40L28 40L28 41L29 41L29 40L28 40L28 39L27 39L27 38L28 38L28 37L26 37L26 38L25 38L25 36L26 36L26 35L27 35L27 33L26 33L26 35L25 35L25 33L23 33L23 34L24 34L24 36L23 36L23 35L22 35L22 33ZM42 34L42 35L43 35L43 36L44 36L44 35L43 35L43 34ZM7 35L7 36L6 36L6 37L7 37L7 36L8 36L8 35ZM40 36L40 37L41 37L41 36ZM18 37L18 39L20 39L20 38L19 38L19 37ZM3 38L3 39L4 39L4 41L3 41L3 40L1 40L1 41L2 41L2 43L3 43L3 44L8 44L8 43L5 43L5 38ZM13 38L13 39L14 39L14 38ZM10 39L10 40L11 40L11 39ZM38 39L38 40L39 40L39 39ZM45 39L45 40L46 40L46 39ZM31 40L31 41L32 41L32 42L33 42L33 43L32 43L32 44L33 44L33 43L34 43L34 42L33 42L33 41L32 41L32 40ZM21 41L21 42L22 42L22 41ZM26 41L26 42L27 42L27 41ZM40 42L40 43L41 43L41 42ZM47 42L47 43L46 43L46 44L45 44L45 45L47 45L47 46L48 46L48 45L47 45L47 43L48 43L48 42ZM51 42L51 43L50 43L50 44L51 44L51 43L53 43L53 42ZM1 44L1 45L2 45L2 44ZM14 44L14 46L13 46L13 47L14 47L14 46L15 46L15 44ZM20 44L20 45L21 45L21 44ZM24 44L24 45L25 45L25 46L24 46L24 49L25 49L25 50L26 50L26 49L25 49L25 48L27 48L27 47L28 47L28 48L29 48L29 47L28 47L28 46L29 46L29 45L28 45L28 44ZM3 45L3 47L5 47L5 45ZM6 45L6 46L7 46L7 45ZM26 45L26 47L27 47L27 46L28 46L28 45ZM32 45L32 46L33 46L33 45ZM36 45L36 46L37 46L37 45ZM1 46L1 47L2 47L2 46ZM40 46L40 47L39 47L39 48L38 48L38 49L39 49L39 48L41 48L41 46ZM47 47L47 48L48 48L48 47ZM53 48L53 49L54 49L54 48ZM55 48L55 49L56 49L56 48ZM19 49L19 50L20 50L20 49ZM27 49L27 52L30 52L30 49ZM49 49L49 52L52 52L52 49ZM9 50L9 51L10 51L10 50ZM13 50L13 51L12 51L12 52L13 52L13 51L14 51L14 52L15 52L15 53L16 53L16 52L15 52L15 51L16 51L16 50ZM28 50L28 51L29 51L29 50ZM50 50L50 51L51 51L51 50ZM22 51L22 52L23 52L23 51ZM32 51L32 52L33 52L33 51ZM56 51L56 52L57 52L57 51ZM9 52L9 54L10 54L10 52ZM53 52L53 53L54 53L54 52ZM24 53L24 54L23 54L23 55L24 55L24 56L26 56L26 53ZM43 53L43 54L44 54L44 53ZM41 54L41 55L42 55L42 56L44 56L44 55L42 55L42 54ZM37 55L37 56L39 56L39 55ZM50 55L50 56L51 56L51 55ZM53 55L53 56L55 56L55 57L56 57L56 56L55 56L55 55ZM0 0L0 7L7 7L7 0ZM1 1L1 6L6 6L6 1ZM2 2L2 5L5 5L5 2ZM50 0L50 7L57 7L57 0ZM51 1L51 6L56 6L56 1ZM52 2L52 5L55 5L55 2ZM0 50L0 57L7 57L7 50ZM1 51L1 56L6 56L6 51ZM2 52L2 55L5 55L5 52Z" fill="#000000"/></g></g></svg>
