<?xml version="1.0" encoding="UTF-8"?>
<svg xmlns="http://www.w3.org/2000/svg" version="1.1" width="300" height="300" viewBox="0 0 300 300"><rect x="0" y="0" width="300" height="300" fill="#fefefe"/><g transform="scale(4.615)"><g transform="translate(4,4)"><path fill-rule="evenodd" d="M9 0L9 1L8 1L8 2L9 2L9 3L8 3L8 4L11 4L11 5L8 5L8 7L9 7L9 6L10 6L10 8L11 8L11 9L9 9L9 8L6 8L6 9L9 9L9 10L6 10L6 11L8 11L8 12L6 12L6 13L8 13L8 12L9 12L9 15L7 15L7 14L6 14L6 15L4 15L4 16L6 16L6 17L4 17L4 18L2 18L2 16L3 16L3 15L1 15L1 14L2 14L2 12L1 12L1 11L3 11L3 13L4 13L4 14L5 14L5 13L4 13L4 12L5 12L5 10L4 10L4 9L5 9L5 8L0 8L0 9L3 9L3 10L1 10L1 11L0 11L0 12L1 12L1 13L0 13L0 15L1 15L1 17L0 17L0 18L2 18L2 20L4 20L4 21L5 21L5 20L6 20L6 21L7 21L7 20L9 20L9 22L12 22L12 23L10 23L10 25L11 25L11 26L10 26L10 27L9 27L9 26L8 26L8 24L9 24L9 23L8 23L8 22L4 22L4 23L3 23L3 21L0 21L0 23L1 23L1 24L0 24L0 26L1 26L1 27L0 27L0 30L1 30L1 27L3 27L3 29L2 29L2 32L4 32L4 31L5 31L5 33L7 33L7 34L4 34L4 35L3 35L3 36L2 36L2 33L1 33L1 32L0 32L0 33L1 33L1 35L0 35L0 36L1 36L1 39L2 39L2 37L3 37L3 38L4 38L4 40L3 40L3 41L2 41L2 42L3 42L3 43L2 43L2 44L3 44L3 43L4 43L4 44L5 44L5 45L7 45L7 46L5 46L5 47L3 47L3 46L2 46L2 47L1 47L1 46L0 46L0 48L5 48L5 47L7 47L7 48L6 48L6 49L7 49L7 48L8 48L8 51L9 51L9 52L8 52L8 57L9 57L9 56L10 56L10 55L12 55L12 56L11 56L11 57L16 57L16 56L17 56L17 57L19 57L19 56L17 56L17 53L20 53L20 52L21 52L21 50L22 50L22 52L23 52L23 50L26 50L26 52L24 52L24 53L23 53L23 54L22 54L22 53L21 53L21 54L22 54L22 55L21 55L21 56L20 56L20 57L21 57L21 56L23 56L23 57L26 57L26 56L24 56L24 55L23 55L23 54L24 54L24 53L25 53L25 55L26 55L26 53L27 53L27 54L30 54L30 53L31 53L31 49L32 49L32 52L33 52L33 49L32 49L32 47L33 47L33 48L34 48L34 47L35 47L35 46L37 46L37 47L36 47L36 48L35 48L35 49L36 49L36 50L35 50L35 52L34 52L34 53L35 53L35 54L36 54L36 56L35 56L35 55L34 55L34 54L33 54L33 53L32 53L32 54L31 54L31 56L30 56L30 55L29 55L29 56L27 56L27 57L29 57L29 56L30 56L30 57L31 57L31 56L35 56L35 57L39 57L39 56L40 56L40 55L41 55L41 57L42 57L42 55L44 55L44 54L45 54L45 53L47 53L47 55L48 55L48 56L47 56L47 57L49 57L49 56L50 56L50 57L52 57L52 55L51 55L51 53L52 53L52 54L53 54L53 55L54 55L54 56L53 56L53 57L54 57L54 56L55 56L55 57L56 57L56 56L55 56L55 54L54 54L54 53L56 53L56 52L57 52L57 51L56 51L56 49L57 49L57 48L56 48L56 46L57 46L57 45L56 45L56 44L55 44L55 43L56 43L56 42L55 42L55 39L57 39L57 37L56 37L56 36L55 36L55 35L56 35L56 34L57 34L57 32L56 32L56 30L57 30L57 29L56 29L56 28L57 28L57 27L56 27L56 26L57 26L57 25L56 25L56 22L57 22L57 21L56 21L56 20L55 20L55 19L56 19L56 18L53 18L53 17L56 17L56 16L57 16L57 15L56 15L56 14L57 14L57 11L56 11L56 10L54 10L54 11L50 11L50 12L49 12L49 13L47 13L47 14L45 14L45 13L44 13L44 11L45 11L45 12L47 12L47 11L49 11L49 10L50 10L50 8L49 8L49 9L48 9L48 8L47 8L47 5L48 5L48 0L46 0L46 1L45 1L45 2L44 2L44 3L43 3L43 4L40 4L40 5L39 5L39 6L38 6L38 4L39 4L39 3L41 3L41 2L43 2L43 0L41 0L41 1L40 1L40 0L39 0L39 1L38 1L38 0L37 0L37 1L38 1L38 2L39 2L39 3L38 3L38 4L37 4L37 3L36 3L36 0L35 0L35 1L32 1L32 0L27 0L27 1L26 1L26 0L23 0L23 1L22 1L22 0L21 0L21 1L20 1L20 0L17 0L17 1L14 1L14 0L13 0L13 1L12 1L12 4L11 4L11 3L10 3L10 2L11 2L11 0ZM9 1L9 2L10 2L10 1ZM13 1L13 2L14 2L14 4L12 4L12 5L11 5L11 7L12 7L12 6L13 6L13 8L14 8L14 9L12 9L12 11L10 11L10 10L9 10L9 12L10 12L10 13L11 13L11 14L10 14L10 15L9 15L9 16L8 16L8 17L6 17L6 18L5 18L5 19L4 19L4 20L5 20L5 19L6 19L6 20L7 20L7 19L6 19L6 18L8 18L8 19L9 19L9 18L8 18L8 17L9 17L9 16L10 16L10 15L12 15L12 16L11 16L11 17L12 17L12 19L14 19L14 20L12 20L12 21L14 21L14 22L13 22L13 23L14 23L14 24L15 24L15 25L14 25L14 26L17 26L17 24L21 24L21 25L19 25L19 26L18 26L18 27L17 27L17 28L18 28L18 29L16 29L16 28L15 28L15 27L13 27L13 24L12 24L12 27L13 27L13 28L11 28L11 27L10 27L10 29L9 29L9 30L11 30L11 31L10 31L10 34L13 34L13 32L12 32L12 33L11 33L11 31L12 31L12 30L13 30L13 29L14 29L14 31L15 31L15 29L16 29L16 30L18 30L18 31L17 31L17 32L20 32L20 31L19 31L19 30L18 30L18 29L19 29L19 28L20 28L20 27L21 27L21 28L22 28L22 29L20 29L20 30L21 30L21 31L23 31L23 32L21 32L21 33L20 33L20 34L19 34L19 35L18 35L18 34L17 34L17 33L15 33L15 32L14 32L14 34L16 34L16 35L14 35L14 37L12 37L12 38L13 38L13 39L14 39L14 38L15 38L15 39L16 39L16 40L14 40L14 41L15 41L15 42L13 42L13 41L12 41L12 40L11 40L11 41L12 41L12 42L10 42L10 39L11 39L11 38L10 38L10 37L11 37L11 36L10 36L10 35L9 35L9 36L7 36L7 35L6 35L6 36L5 36L5 35L4 35L4 36L3 36L3 37L4 37L4 36L5 36L5 39L6 39L6 40L7 40L7 39L8 39L8 38L9 38L9 42L8 42L8 41L5 41L5 40L4 40L4 41L3 41L3 42L4 42L4 41L5 41L5 42L7 42L7 43L5 43L5 44L8 44L8 43L9 43L9 42L10 42L10 43L13 43L13 44L12 44L12 45L11 45L11 44L9 44L9 46L10 46L10 47L12 47L12 45L13 45L13 48L14 48L14 49L12 49L12 48L11 48L11 49L12 49L12 51L10 51L10 50L9 50L9 51L10 51L10 52L9 52L9 55L10 55L10 53L12 53L12 55L14 55L14 54L13 54L13 53L12 53L12 51L13 51L13 50L16 50L16 51L14 51L14 52L16 52L16 53L15 53L15 54L16 54L16 53L17 53L17 51L18 51L18 52L20 52L20 51L19 51L19 49L20 49L20 50L21 50L21 49L23 49L23 47L25 47L25 48L24 48L24 49L26 49L26 48L28 48L28 47L29 47L29 46L30 46L30 45L31 45L31 47L32 47L32 45L33 45L33 46L35 46L35 45L34 45L34 43L37 43L37 42L35 42L35 40L38 40L38 42L39 42L39 45L38 45L38 46L39 46L39 47L38 47L38 48L37 48L37 49L38 49L38 50L36 50L36 52L37 52L37 53L38 53L38 54L37 54L37 56L39 56L39 55L38 55L38 54L40 54L40 53L43 53L43 54L44 54L44 53L45 53L45 52L44 52L44 53L43 53L43 51L42 51L42 50L41 50L41 48L42 48L42 49L43 49L43 50L44 50L44 51L45 51L45 50L46 50L46 51L47 51L47 53L48 53L48 50L47 50L47 49L48 49L48 48L49 48L49 47L51 47L51 45L52 45L52 47L55 47L55 46L56 46L56 45L55 45L55 44L54 44L54 45L52 45L52 44L53 44L53 43L54 43L54 42L53 42L53 41L54 41L54 40L53 40L53 39L54 39L54 38L53 38L53 35L55 35L55 34L56 34L56 32L54 32L54 30L53 30L53 31L52 31L52 32L51 32L51 33L52 33L52 34L50 34L50 31L48 31L48 28L47 28L47 29L46 29L46 30L47 30L47 31L46 31L46 33L45 33L45 32L43 32L43 30L44 30L44 31L45 31L45 30L44 30L44 29L45 29L45 28L46 28L46 27L47 27L47 25L49 25L49 23L50 23L50 26L51 26L51 25L54 25L54 24L53 24L53 23L55 23L55 22L56 22L56 21L55 21L55 20L53 20L53 19L52 19L52 20L51 20L51 21L49 21L49 18L47 18L47 17L49 17L49 15L50 15L50 16L51 16L51 17L50 17L50 19L51 19L51 17L53 17L53 15L50 15L50 14L51 14L51 12L50 12L50 14L49 14L49 15L48 15L48 16L45 16L45 15L44 15L44 14L41 14L41 13L43 13L43 11L42 11L42 10L41 10L41 7L42 7L42 6L43 6L43 8L42 8L42 9L43 9L43 8L44 8L44 10L48 10L48 9L47 9L47 8L46 8L46 6L45 6L45 5L47 5L47 3L44 3L44 6L43 6L43 5L40 5L40 6L39 6L39 9L38 9L38 6L37 6L37 7L36 7L36 5L37 5L37 4L36 4L36 5L35 5L35 4L33 4L33 3L34 3L34 2L33 2L33 3L32 3L32 2L30 2L30 1L28 1L28 2L26 2L26 1L25 1L25 2L23 2L23 3L19 3L19 2L20 2L20 1L18 1L18 3L19 3L19 4L21 4L21 8L19 8L19 9L18 9L18 10L17 10L17 9L15 9L15 8L14 8L14 5L15 5L15 7L16 7L16 8L17 8L17 7L18 7L18 6L19 6L19 7L20 7L20 5L18 5L18 6L17 6L17 2L14 2L14 1ZM21 1L21 2L22 2L22 1ZM46 1L46 2L47 2L47 1ZM28 2L28 3L29 3L29 2ZM23 3L23 4L24 4L24 5L23 5L23 6L22 6L22 8L23 8L23 10L22 10L22 9L21 9L21 10L22 10L22 11L21 11L21 12L22 12L22 13L21 13L21 14L20 14L20 13L19 13L19 11L20 11L20 9L19 9L19 10L18 10L18 11L17 11L17 10L13 10L13 11L14 11L14 12L11 12L11 13L12 13L12 14L13 14L13 15L14 15L14 16L12 16L12 17L14 17L14 16L16 16L16 17L18 17L18 18L19 18L19 19L18 19L18 20L17 20L17 21L16 21L16 20L15 20L15 21L16 21L16 22L15 22L15 23L16 23L16 24L17 24L17 21L18 21L18 22L19 22L19 23L20 23L20 22L19 22L19 21L20 21L20 20L24 20L24 21L22 21L22 23L23 23L23 25L22 25L22 26L21 26L21 27L22 27L22 26L24 26L24 27L23 27L23 31L24 31L24 32L25 32L25 31L26 31L26 33L27 33L27 31L28 31L28 33L29 33L29 34L30 34L30 36L29 36L29 37L31 37L31 38L29 38L29 39L33 39L33 40L35 40L35 39L37 39L37 38L38 38L38 40L40 40L40 39L39 39L39 38L38 38L38 37L37 37L37 36L38 36L38 33L37 33L37 32L34 32L34 31L35 31L35 30L37 30L37 29L38 29L38 28L39 28L39 27L41 27L41 28L42 28L42 27L41 27L41 26L43 26L43 25L44 25L44 24L43 24L43 25L39 25L39 27L37 27L37 28L36 28L36 26L34 26L34 27L33 27L33 26L32 26L32 24L33 24L33 25L37 25L37 26L38 26L38 24L41 24L41 22L43 22L43 23L44 23L44 20L45 20L45 21L46 21L46 20L47 20L47 18L46 18L46 20L45 20L45 18L44 18L44 15L42 15L42 16L41 16L41 15L39 15L39 14L38 14L38 13L40 13L40 12L41 12L41 10L40 10L40 9L39 9L39 10L38 10L38 9L37 9L37 8L35 8L35 5L33 5L33 4L32 4L32 3L31 3L31 4L26 4L26 3ZM15 4L15 5L16 5L16 4ZM25 4L25 8L26 8L26 4ZM31 4L31 8L32 8L32 10L31 10L31 11L30 11L30 10L27 10L27 11L26 11L26 12L25 12L25 10L23 10L23 13L22 13L22 14L23 14L23 13L25 13L25 15L26 15L26 16L23 16L23 15L20 15L20 14L19 14L19 15L20 15L20 16L19 16L19 17L20 17L20 19L19 19L19 20L20 20L20 19L21 19L21 18L22 18L22 17L25 17L25 18L26 18L26 16L27 16L27 17L28 17L28 16L29 16L29 14L30 14L30 15L31 15L31 16L32 16L32 19L33 19L33 20L32 20L32 21L31 21L31 22L30 22L30 21L29 21L29 20L31 20L31 18L30 18L30 19L28 19L28 18L27 18L27 19L26 19L26 20L25 20L25 21L24 21L24 22L23 22L23 23L24 23L24 24L25 24L25 25L26 25L26 26L25 26L25 27L24 27L24 28L25 28L25 29L26 29L26 28L25 28L25 27L26 27L26 26L29 26L29 24L30 24L30 23L31 23L31 24L32 24L32 23L33 23L33 22L34 22L34 23L35 23L35 20L34 20L34 19L36 19L36 20L37 20L37 21L38 21L38 22L37 22L37 24L38 24L38 23L40 23L40 22L39 22L39 21L43 21L43 20L44 20L44 18L43 18L43 19L42 19L42 18L41 18L41 20L39 20L39 21L38 21L38 19L39 19L39 17L41 17L41 16L39 16L39 15L38 15L38 14L37 14L37 13L35 13L35 12L36 12L36 10L37 10L37 11L38 11L38 10L37 10L37 9L35 9L35 8L34 8L34 9L33 9L33 7L34 7L34 6L33 6L33 5L32 5L32 4ZM27 5L27 8L30 8L30 5ZM16 6L16 7L17 7L17 6ZM23 6L23 8L24 8L24 6ZM28 6L28 7L29 7L29 6ZM32 6L32 7L33 7L33 6ZM40 6L40 7L41 7L41 6ZM44 6L44 7L45 7L45 6ZM48 6L48 7L49 7L49 6ZM45 8L45 9L46 9L46 8ZM51 8L51 9L52 9L52 8ZM53 8L53 9L54 9L54 8ZM55 8L55 9L56 9L56 8ZM3 10L3 11L4 11L4 10ZM32 10L32 11L31 11L31 13L30 13L30 14L32 14L32 16L35 16L35 17L37 17L37 18L38 18L38 17L39 17L39 16L38 16L38 17L37 17L37 16L35 16L35 14L32 14L32 12L33 12L33 13L34 13L34 12L33 12L33 10ZM15 11L15 13L13 13L13 14L15 14L15 13L16 13L16 16L17 16L17 13L18 13L18 12L17 12L17 11ZM27 11L27 12L26 12L26 15L27 15L27 16L28 16L28 15L27 15L27 13L28 13L28 14L29 14L29 13L28 13L28 12L29 12L29 11ZM39 11L39 12L40 12L40 11ZM16 12L16 13L17 13L17 12ZM52 12L52 13L53 13L53 12ZM54 12L54 15L55 15L55 14L56 14L56 12ZM36 14L36 15L37 15L37 14ZM6 15L6 16L7 16L7 15ZM21 16L21 17L22 17L22 16ZM42 16L42 17L43 17L43 16ZM10 18L10 20L11 20L11 18ZM16 18L16 19L17 19L17 18ZM23 18L23 19L24 19L24 18ZM33 20L33 21L34 21L34 20ZM25 21L25 22L26 22L26 23L25 23L25 24L28 24L28 23L27 23L27 22L28 22L28 21ZM47 21L47 22L45 22L45 24L46 24L46 25L47 25L47 22L49 22L49 21ZM51 21L51 22L50 22L50 23L53 23L53 22L54 22L54 21ZM29 22L29 23L30 23L30 22ZM2 23L2 24L1 24L1 26L3 26L3 27L4 27L4 26L7 26L7 25L6 25L6 24L8 24L8 23L6 23L6 24L5 24L5 23L4 23L4 24L3 24L3 23ZM2 24L2 25L3 25L3 24ZM4 24L4 25L5 25L5 24ZM55 25L55 26L56 26L56 25ZM19 26L19 27L20 27L20 26ZM31 26L31 27L32 27L32 29L31 29L31 31L30 31L30 32L29 32L29 33L31 33L31 32L32 32L32 34L31 34L31 35L33 35L33 36L32 36L32 37L33 37L33 39L35 39L35 37L34 37L34 34L35 34L35 36L37 36L37 34L35 34L35 33L34 33L34 34L33 34L33 32L32 32L32 29L33 29L33 30L35 30L35 29L36 29L36 28L33 28L33 27L32 27L32 26ZM44 26L44 28L43 28L43 29L41 29L41 30L43 30L43 29L44 29L44 28L45 28L45 27L46 27L46 26ZM53 26L53 27L54 27L54 26ZM5 27L5 30L8 30L8 27ZM27 27L27 30L30 30L30 27ZM49 27L49 30L52 30L52 27ZM55 27L55 28L54 28L54 29L55 29L55 28L56 28L56 27ZM6 28L6 29L7 29L7 28ZM14 28L14 29L15 29L15 28ZM28 28L28 29L29 29L29 28ZM50 28L50 29L51 29L51 28ZM11 29L11 30L12 30L12 29ZM39 29L39 30L38 30L38 32L39 32L39 30L40 30L40 29ZM6 31L6 32L7 32L7 33L8 33L8 34L9 34L9 33L8 33L8 31ZM47 31L47 32L48 32L48 33L49 33L49 32L48 32L48 31ZM41 32L41 33L39 33L39 34L40 34L40 35L39 35L39 37L40 37L40 38L41 38L41 40L42 40L42 41L41 41L41 42L42 42L42 44L41 44L41 45L39 45L39 46L40 46L40 47L39 47L39 48L38 48L38 49L39 49L39 48L41 48L41 46L43 46L43 47L42 47L42 48L43 48L43 49L44 49L44 50L45 50L45 49L44 49L44 48L43 48L43 47L44 47L44 46L45 46L45 47L47 47L47 48L46 48L46 49L47 49L47 48L48 48L48 47L49 47L49 46L48 46L48 47L47 47L47 46L45 46L45 45L47 45L47 43L48 43L48 42L49 42L49 43L50 43L50 44L49 44L49 45L51 45L51 43L53 43L53 42L51 42L51 41L53 41L53 40L52 40L52 39L49 39L49 41L48 41L48 42L47 42L47 43L46 43L46 44L45 44L45 45L44 45L44 44L43 44L43 43L44 43L44 42L45 42L45 41L44 41L44 40L45 40L45 39L44 39L44 40L42 40L42 38L43 38L43 37L44 37L44 38L45 38L45 37L44 37L44 36L45 36L45 35L44 35L44 33L43 33L43 32ZM52 32L52 33L54 33L54 34L55 34L55 33L54 33L54 32ZM21 33L21 34L20 34L20 35L19 35L19 36L17 36L17 35L16 35L16 36L17 36L17 37L18 37L18 38L17 38L17 40L16 40L16 41L17 41L17 42L18 42L18 43L16 43L16 45L17 45L17 48L15 48L15 49L19 49L19 48L20 48L20 45L21 45L21 47L23 47L23 46L25 46L25 45L23 45L23 44L27 44L27 45L26 45L26 47L27 47L27 45L29 45L29 43L30 43L30 44L31 44L31 45L32 45L32 44L33 44L33 43L34 43L34 42L33 42L33 41L32 41L32 40L30 40L30 41L29 41L29 42L27 42L27 41L28 41L28 39L27 39L27 38L28 38L28 37L27 37L27 35L26 35L26 34L25 34L25 33L23 33L23 34L22 34L22 33ZM23 34L23 35L21 35L21 36L19 36L19 37L22 37L22 38L24 38L24 37L23 37L23 36L24 36L24 34ZM42 34L42 35L41 35L41 36L40 36L40 37L41 37L41 36L42 36L42 37L43 37L43 36L44 36L44 35L43 35L43 34ZM48 34L48 35L46 35L46 36L48 36L48 37L47 37L47 39L46 39L46 41L47 41L47 39L48 39L48 38L50 38L50 37L51 37L51 36L52 36L52 35L53 35L53 34L52 34L52 35L50 35L50 34ZM12 35L12 36L13 36L13 35ZM48 35L48 36L49 36L49 37L50 37L50 35ZM6 36L6 37L7 37L7 36ZM15 37L15 38L16 38L16 37ZM25 37L25 40L24 40L24 39L22 39L22 40L19 40L19 41L18 41L18 40L17 40L17 41L18 41L18 42L19 42L19 45L20 45L20 42L21 42L21 43L22 43L22 42L23 42L23 43L27 43L27 42L26 42L26 41L27 41L27 39L26 39L26 38L27 38L27 37ZM6 38L6 39L7 39L7 38ZM19 38L19 39L20 39L20 38ZM19 41L19 42L20 42L20 41ZM21 41L21 42L22 42L22 41ZM23 41L23 42L25 42L25 41ZM30 41L30 42L32 42L32 43L31 43L31 44L32 44L32 43L33 43L33 42L32 42L32 41ZM39 41L39 42L40 42L40 41ZM43 41L43 42L44 42L44 41ZM0 42L0 43L1 43L1 42ZM50 42L50 43L51 43L51 42ZM14 43L14 44L15 44L15 43ZM17 44L17 45L18 45L18 44ZM21 44L21 45L22 45L22 46L23 46L23 45L22 45L22 44ZM10 45L10 46L11 46L11 45ZM54 45L54 46L55 46L55 45ZM15 46L15 47L16 47L16 46ZM8 47L8 48L9 48L9 49L10 49L10 48L9 48L9 47ZM18 47L18 48L19 48L19 47ZM53 48L53 49L56 49L56 48ZM27 49L27 52L30 52L30 49ZM49 49L49 52L52 52L52 49ZM28 50L28 51L29 51L29 50ZM38 50L38 52L39 52L39 51L40 51L40 52L41 52L41 50ZM50 50L50 51L51 51L51 50ZM54 50L54 51L55 51L55 52L56 52L56 51L55 51L55 50ZM53 52L53 53L54 53L54 52ZM18 54L18 55L20 55L20 54ZM41 54L41 55L42 55L42 54ZM15 55L15 56L16 56L16 55ZM50 55L50 56L51 56L51 55ZM43 56L43 57L44 57L44 56ZM45 56L45 57L46 57L46 56ZM0 0L0 7L7 7L7 0ZM1 1L1 6L6 6L6 1ZM2 2L2 5L5 5L5 2ZM50 0L50 7L57 7L57 0ZM51 1L51 6L56 6L56 1ZM52 2L52 5L55 5L55 2ZM0 50L0 57L7 57L7 50ZM1 51L1 56L6 56L6 51ZM2 52L2 55L5 55L5 52Z" fill="#000000"/></g></g></svg>
