<?xml version="1.0" encoding="UTF-8"?>
<svg xmlns="http://www.w3.org/2000/svg" version="1.1" width="300" height="300" viewBox="0 0 300 300"><rect x="0" y="0" width="300" height="300" fill="#fefefe"/><g transform="scale(4.615)"><g transform="translate(4,4)"><path fill-rule="evenodd" d="M8 0L8 4L10 4L10 5L8 5L8 7L9 7L9 8L10 8L10 9L11 9L11 8L10 8L10 7L11 7L11 6L10 6L10 5L11 5L11 3L12 3L12 2L13 2L13 4L12 4L12 5L13 5L13 6L12 6L12 8L13 8L13 6L14 6L14 10L13 10L13 11L11 11L11 10L10 10L10 11L11 11L11 12L10 12L10 13L8 13L8 12L9 12L9 9L7 9L7 8L4 8L4 9L2 9L2 8L0 8L0 9L2 9L2 11L1 11L1 12L0 12L0 13L1 13L1 12L2 12L2 13L3 13L3 12L4 12L4 13L5 13L5 14L4 14L4 15L5 15L5 14L6 14L6 15L7 15L7 16L4 16L4 17L3 17L3 14L1 14L1 15L2 15L2 16L0 16L0 19L1 19L1 20L0 20L0 21L1 21L1 20L3 20L3 21L2 21L2 22L3 22L3 25L1 25L1 24L2 24L2 23L1 23L1 22L0 22L0 25L1 25L1 28L0 28L0 32L2 32L2 33L1 33L1 36L0 36L0 37L1 37L1 38L0 38L0 39L1 39L1 38L2 38L2 40L1 40L1 41L2 41L2 40L4 40L4 41L5 41L5 43L7 43L7 44L5 44L5 47L3 47L3 46L4 46L4 42L2 42L2 43L1 43L1 42L0 42L0 44L1 44L1 45L0 45L0 48L5 48L5 47L7 47L7 46L10 46L10 47L9 47L9 48L10 48L10 47L11 47L11 46L10 46L10 45L11 45L11 43L14 43L14 44L12 44L12 45L15 45L15 46L14 46L14 47L13 47L13 49L12 49L12 48L11 48L11 49L8 49L8 50L9 50L9 51L8 51L8 53L10 53L10 54L11 54L11 55L10 55L10 56L9 56L9 55L8 55L8 57L10 57L10 56L11 56L11 55L12 55L12 56L13 56L13 57L14 57L14 56L15 56L15 57L16 57L16 56L15 56L15 55L16 55L16 54L17 54L17 57L19 57L19 56L18 56L18 55L20 55L20 54L21 54L21 53L22 53L22 54L23 54L23 55L24 55L24 57L25 57L25 55L26 55L26 54L24 54L24 53L28 53L28 57L29 57L29 55L30 55L30 57L34 57L34 53L35 53L35 57L37 57L37 56L36 56L36 54L37 54L37 55L40 55L40 56L39 56L39 57L40 57L40 56L41 56L41 57L42 57L42 56L43 56L43 55L44 55L44 57L45 57L45 56L46 56L46 57L48 57L48 55L47 55L47 56L46 56L46 55L44 55L44 53L45 53L45 54L46 54L46 53L47 53L47 54L49 54L49 57L50 57L50 55L51 55L51 56L53 56L53 57L54 57L54 55L53 55L53 50L54 50L54 51L55 51L55 52L54 52L54 54L57 54L57 51L56 51L56 50L57 50L57 49L56 49L56 44L57 44L57 43L56 43L56 42L57 42L57 40L54 40L54 41L53 41L53 39L54 39L54 38L55 38L55 39L57 39L57 38L55 38L55 36L56 36L56 37L57 37L57 36L56 36L56 34L57 34L57 33L56 33L56 30L55 30L55 29L54 29L54 28L53 28L53 27L54 27L54 26L55 26L55 24L56 24L56 25L57 25L57 24L56 24L56 20L57 20L57 19L56 19L56 20L55 20L55 24L53 24L53 23L52 23L52 22L54 22L54 21L52 21L52 20L53 20L53 19L52 19L52 18L53 18L53 17L55 17L55 16L56 16L56 17L57 17L57 15L56 15L56 13L57 13L57 12L56 12L56 10L57 10L57 8L53 8L53 9L52 9L52 8L51 8L51 9L50 9L50 10L49 10L49 8L48 8L48 7L49 7L49 6L48 6L48 7L47 7L47 5L48 5L48 0L41 0L41 1L40 1L40 2L38 2L38 1L39 1L39 0L38 0L38 1L37 1L37 2L36 2L36 0L35 0L35 1L34 1L34 0L33 0L33 1L32 1L32 3L31 3L31 4L30 4L30 3L29 3L29 2L30 2L30 1L31 1L31 0L28 0L28 1L29 1L29 2L27 2L27 3L28 3L28 4L26 4L26 3L25 3L25 2L26 2L26 1L27 1L27 0L26 0L26 1L25 1L25 0L23 0L23 2L22 2L22 1L21 1L21 0L20 0L20 1L18 1L18 0L17 0L17 2L16 2L16 0L14 0L14 1L13 1L13 0L12 0L12 1L11 1L11 2L9 2L9 1L10 1L10 0ZM14 1L14 4L15 4L15 5L14 5L14 6L15 6L15 7L16 7L16 6L17 6L17 7L18 7L18 6L19 6L19 7L20 7L20 6L21 6L21 8L22 8L22 10L20 10L20 9L16 9L16 10L15 10L15 11L16 11L16 12L17 12L17 13L15 13L15 12L14 12L14 11L13 11L13 12L11 12L11 13L10 13L10 14L9 14L9 15L10 15L10 16L7 16L7 17L6 17L6 18L7 18L7 17L10 17L10 18L8 18L8 19L6 19L6 20L5 20L5 18L3 18L3 20L4 20L4 21L3 21L3 22L4 22L4 24L5 24L5 22L7 22L7 21L8 21L8 22L9 22L9 21L10 21L10 22L11 22L11 25L9 25L9 27L10 27L10 29L9 29L9 30L12 30L12 31L11 31L11 32L12 32L12 33L11 33L11 34L12 34L12 35L11 35L11 36L12 36L12 39L13 39L13 40L12 40L12 41L11 41L11 39L10 39L10 40L9 40L9 39L8 39L8 37L9 37L9 38L11 38L11 37L10 37L10 35L9 35L9 34L10 34L10 31L6 31L6 32L9 32L9 34L8 34L8 33L5 33L5 32L4 32L4 31L3 31L3 32L4 32L4 34L3 34L3 33L2 33L2 34L3 34L3 35L2 35L2 38L3 38L3 37L4 37L4 36L3 36L3 35L5 35L5 34L8 34L8 35L9 35L9 36L8 36L8 37L6 37L6 36L7 36L7 35L6 35L6 36L5 36L5 37L6 37L6 38L7 38L7 39L5 39L5 40L7 40L7 41L6 41L6 42L7 42L7 41L8 41L8 42L9 42L9 43L8 43L8 44L7 44L7 45L6 45L6 46L7 46L7 45L8 45L8 44L9 44L9 45L10 45L10 42L14 42L14 43L15 43L15 42L14 42L14 38L15 38L15 39L16 39L16 38L17 38L17 39L20 39L20 38L21 38L21 39L24 39L24 40L22 40L22 41L21 41L21 43L20 43L20 41L17 41L17 40L16 40L16 44L17 44L17 45L16 45L16 48L14 48L14 49L13 49L13 50L14 50L14 51L15 51L15 53L17 53L17 52L18 52L18 51L21 51L21 52L22 52L22 53L24 53L24 52L23 52L23 51L21 51L21 50L22 50L22 49L23 49L23 48L24 48L24 49L25 49L25 50L26 50L26 49L25 49L25 47L26 47L26 48L31 48L31 50L32 50L32 51L31 51L31 52L32 52L32 51L34 51L34 52L33 52L33 53L32 53L32 54L33 54L33 53L34 53L34 52L36 52L36 49L35 49L35 48L33 48L33 47L32 47L32 46L31 46L31 45L32 45L32 43L33 43L33 44L37 44L37 45L34 45L34 47L35 47L35 46L38 46L38 45L39 45L39 46L40 46L40 51L38 51L38 49L39 49L39 47L38 47L38 49L37 49L37 51L38 51L38 52L37 52L37 54L38 54L38 52L40 52L40 53L41 53L41 46L40 46L40 45L41 45L41 44L40 44L40 42L41 42L41 41L44 41L44 39L45 39L45 41L46 41L46 43L43 43L43 42L42 42L42 44L43 44L43 45L44 45L44 46L43 46L43 47L42 47L42 49L43 49L43 50L42 50L42 51L43 51L43 50L44 50L44 51L45 51L45 53L46 53L46 52L47 52L47 53L48 53L48 52L47 52L47 51L46 51L46 50L47 50L47 49L48 49L48 47L51 47L51 48L52 48L52 47L53 47L53 48L55 48L55 46L53 46L53 44L54 44L54 45L55 45L55 44L56 44L56 43L55 43L55 42L54 42L54 43L53 43L53 41L52 41L52 40L50 40L50 39L53 39L53 36L55 36L55 35L53 35L53 34L54 34L54 33L51 33L51 32L52 32L52 31L51 31L51 32L50 32L50 31L49 31L49 32L50 32L50 35L47 35L47 36L46 36L46 34L49 34L49 33L48 33L48 31L47 31L47 30L48 30L48 29L46 29L46 28L48 28L48 27L45 27L45 30L44 30L44 29L43 29L43 28L42 28L42 25L41 25L41 23L42 23L42 24L43 24L43 26L44 26L44 24L46 24L46 26L47 26L47 25L48 25L48 23L49 23L49 24L50 24L50 25L49 25L49 26L50 26L50 25L51 25L51 26L53 26L53 24L52 24L52 23L51 23L51 24L50 24L50 22L48 22L48 21L51 21L51 22L52 22L52 21L51 21L51 20L49 20L49 19L48 19L48 21L47 21L47 20L46 20L46 18L47 18L47 17L48 17L48 15L50 15L50 16L51 16L51 15L50 15L50 11L49 11L49 10L47 10L47 9L48 9L48 8L47 8L47 7L46 7L46 5L47 5L47 3L44 3L44 2L43 2L43 3L41 3L41 2L40 2L40 3L38 3L38 4L37 4L37 3L36 3L36 2L34 2L34 1L33 1L33 2L34 2L34 3L32 3L32 5L35 5L35 7L34 7L34 6L33 6L33 7L32 7L32 6L31 6L31 10L29 10L29 9L26 9L26 6L25 6L25 7L24 7L24 6L23 6L23 5L24 5L24 4L25 4L25 3L23 3L23 4L22 4L22 3L21 3L21 1L20 1L20 3L19 3L19 2L17 2L17 4L16 4L16 3L15 3L15 1ZM45 1L45 2L47 2L47 1ZM40 3L40 4L38 4L38 5L36 5L36 4L35 4L35 5L36 5L36 7L35 7L35 9L38 9L38 10L40 10L40 11L36 11L36 10L34 10L34 9L33 9L33 8L34 8L34 7L33 7L33 8L32 8L32 11L33 11L33 10L34 10L34 12L35 12L35 13L37 13L37 12L39 12L39 13L38 13L38 15L39 15L39 17L38 17L38 16L37 16L37 14L35 14L35 17L38 17L38 18L39 18L39 19L37 19L37 18L34 18L34 13L33 13L33 12L32 12L32 13L30 13L30 15L31 15L31 16L29 16L29 13L26 13L26 11L27 11L27 12L28 12L28 10L25 10L25 8L24 8L24 7L23 7L23 6L22 6L22 5L21 5L21 6L22 6L22 7L23 7L23 8L24 8L24 9L23 9L23 10L25 10L25 11L24 11L24 12L22 12L22 11L21 11L21 12L20 12L20 19L19 19L19 20L18 20L18 19L16 19L16 18L15 18L15 19L16 19L16 20L17 20L17 21L15 21L15 20L14 20L14 19L13 19L13 18L14 18L14 17L17 17L17 18L19 18L19 12L18 12L18 13L17 13L17 14L15 14L15 13L13 13L13 14L14 14L14 17L13 17L13 18L12 18L12 16L10 16L10 17L11 17L11 18L10 18L10 19L11 19L11 20L10 20L10 21L11 21L11 22L12 22L12 24L13 24L13 23L14 23L14 24L15 24L15 25L13 25L13 27L14 27L14 26L15 26L15 27L16 27L16 28L14 28L14 29L12 29L12 27L11 27L11 26L10 26L10 27L11 27L11 29L12 29L12 30L14 30L14 31L12 31L12 32L14 32L14 33L12 33L12 34L13 34L13 35L12 35L12 36L13 36L13 35L16 35L16 36L14 36L14 37L13 37L13 38L14 38L14 37L16 37L16 36L17 36L17 35L18 35L18 33L20 33L20 34L21 34L21 33L22 33L22 31L26 31L26 33L23 33L23 37L22 37L22 35L21 35L21 36L18 36L18 37L17 37L17 38L18 38L18 37L22 37L22 38L23 38L23 37L24 37L24 38L26 38L26 40L25 40L25 41L23 41L23 44L22 44L22 43L21 43L21 44L18 44L18 45L17 45L17 46L19 46L19 45L20 45L20 48L21 48L21 49L20 49L20 50L21 50L21 49L22 49L22 48L23 48L23 47L24 47L24 46L26 46L26 47L28 47L28 43L29 43L29 44L30 44L30 45L29 45L29 46L30 46L30 45L31 45L31 44L30 44L30 43L29 43L29 42L28 42L28 41L30 41L30 42L31 42L31 43L32 43L32 41L33 41L33 43L37 43L37 44L39 44L39 45L40 45L40 44L39 44L39 41L40 41L40 40L42 40L42 39L43 39L43 38L44 38L44 37L45 37L45 39L47 39L47 40L46 40L46 41L47 41L47 40L49 40L49 39L50 39L50 37L51 37L51 38L52 38L52 36L53 36L53 35L50 35L50 36L49 36L49 37L48 37L48 38L49 38L49 39L47 39L47 38L46 38L46 36L45 36L45 35L44 35L44 34L46 34L46 33L47 33L47 31L46 31L46 30L45 30L45 31L43 31L43 29L41 29L41 30L40 30L40 32L39 32L39 29L40 29L40 28L41 28L41 27L40 27L40 24L39 24L39 25L38 25L38 26L39 26L39 27L37 27L37 26L36 26L36 27L35 27L35 29L37 29L37 30L35 30L35 32L34 32L34 27L33 27L33 26L34 26L34 25L37 25L37 24L34 24L34 23L35 23L35 22L37 22L37 20L39 20L39 21L38 21L38 22L39 22L39 21L40 21L40 22L43 22L43 24L44 24L44 22L45 22L45 21L46 21L46 20L45 20L45 18L46 18L46 17L47 17L47 15L46 15L46 11L45 11L45 10L44 10L44 9L46 9L46 7L45 7L45 4L44 4L44 3L43 3L43 4L41 4L41 3ZM17 4L17 6L18 6L18 5L19 5L19 6L20 6L20 5L19 5L19 4ZM43 4L43 5L39 5L39 8L38 8L38 6L37 6L37 8L38 8L38 9L39 9L39 8L40 8L40 9L42 9L42 8L43 8L43 9L44 9L44 8L45 8L45 7L44 7L44 4ZM15 5L15 6L16 6L16 5ZM27 5L27 8L30 8L30 5ZM9 6L9 7L10 7L10 6ZM28 6L28 7L29 7L29 6ZM40 6L40 8L41 8L41 6ZM42 6L42 7L43 7L43 8L44 8L44 7L43 7L43 6ZM6 9L6 10L7 10L7 11L6 11L6 12L7 12L7 11L8 11L8 10L7 10L7 9ZM51 9L51 10L52 10L52 9ZM53 9L53 10L54 10L54 11L52 11L52 12L51 12L51 14L52 14L52 15L53 15L53 16L52 16L52 17L51 17L51 18L50 18L50 17L49 17L49 18L50 18L50 19L51 19L51 18L52 18L52 17L53 17L53 16L55 16L55 14L54 14L54 13L55 13L55 9ZM3 10L3 11L4 11L4 10ZM16 10L16 11L18 11L18 10ZM41 10L41 11L40 11L40 13L39 13L39 15L40 15L40 17L39 17L39 18L40 18L40 21L41 21L41 20L42 20L42 19L43 19L43 22L44 22L44 16L45 16L45 17L46 17L46 15L45 15L45 14L44 14L44 12L45 12L45 11L44 11L44 10ZM29 11L29 12L31 12L31 11ZM41 11L41 12L44 12L44 11ZM53 12L53 13L52 13L52 14L53 14L53 13L54 13L54 12ZM6 13L6 14L8 14L8 13ZM21 13L21 14L22 14L22 15L21 15L21 17L26 17L26 18L24 18L24 19L23 19L23 18L21 18L21 19L22 19L22 21L21 21L21 22L20 22L20 23L18 23L18 22L16 22L16 23L15 23L15 22L14 22L14 21L12 21L12 20L13 20L13 19L12 19L12 18L11 18L11 19L12 19L12 20L11 20L11 21L12 21L12 22L14 22L14 23L15 23L15 24L16 24L16 26L17 26L17 27L18 27L18 26L17 26L17 24L19 24L19 25L21 25L21 26L20 26L20 27L19 27L19 28L18 28L18 29L14 29L14 30L16 30L16 34L17 34L17 31L19 31L19 30L20 30L20 32L21 32L21 31L22 31L22 30L23 30L23 29L24 29L24 28L22 28L22 27L21 27L21 26L22 26L22 25L24 25L24 23L23 23L23 22L22 22L22 21L24 21L24 22L25 22L25 23L26 23L26 22L28 22L28 23L27 23L27 24L28 24L28 26L30 26L30 25L29 25L29 23L30 23L30 24L31 24L31 27L32 27L32 28L31 28L31 29L32 29L32 30L31 30L31 32L30 32L30 31L29 31L29 33L28 33L28 34L27 34L27 33L26 33L26 34L27 34L27 35L26 35L26 36L25 36L25 34L24 34L24 36L25 36L25 37L27 37L27 39L28 39L28 38L29 38L29 39L31 39L31 41L32 41L32 40L33 40L33 39L31 39L31 38L33 38L33 37L32 37L32 36L31 36L31 34L30 34L30 36L31 36L31 37L29 37L29 36L28 36L28 34L29 34L29 33L32 33L32 34L33 34L33 35L34 35L34 42L35 42L35 39L37 39L37 42L38 42L38 39L40 39L40 38L38 38L38 37L41 37L41 35L42 35L42 34L40 34L40 33L41 33L41 32L40 32L40 33L39 33L39 34L38 34L38 33L37 33L37 34L38 34L38 36L37 36L37 38L35 38L35 33L32 33L32 30L33 30L33 29L32 29L32 28L33 28L33 27L32 27L32 23L34 23L34 22L35 22L35 20L36 20L36 19L35 19L35 20L34 20L34 19L33 19L33 18L32 18L32 19L33 19L33 21L34 21L34 22L31 22L31 23L30 23L30 21L32 21L32 20L31 20L31 19L30 19L30 18L28 18L28 17L26 17L26 16L27 16L27 15L28 15L28 14L27 14L27 15L26 15L26 16L24 16L24 14L23 14L23 13ZM25 13L25 14L26 14L26 13ZM32 13L32 14L31 14L31 15L32 15L32 16L31 16L31 17L32 17L32 16L33 16L33 15L32 15L32 14L33 14L33 13ZM40 13L40 14L41 14L41 17L40 17L40 18L41 18L41 19L42 19L42 18L43 18L43 17L42 17L42 15L43 15L43 16L44 16L44 15L43 15L43 13ZM47 13L47 14L49 14L49 13ZM10 14L10 15L12 15L12 14ZM22 15L22 16L23 16L23 15ZM1 17L1 19L2 19L2 17ZM26 18L26 19L25 19L25 20L24 20L24 21L28 21L28 22L29 22L29 21L30 21L30 19L27 19L27 18ZM8 19L8 20L9 20L9 19ZM26 19L26 20L27 20L27 19ZM6 20L6 21L7 21L7 20ZM19 20L19 21L20 21L20 20ZM28 20L28 21L29 21L29 20ZM4 21L4 22L5 22L5 21ZM21 22L21 25L22 25L22 22ZM6 23L6 24L7 24L7 25L5 25L5 26L8 26L8 24L7 24L7 23ZM9 23L9 24L10 24L10 23ZM46 23L46 24L47 24L47 23ZM33 24L33 25L34 25L34 24ZM51 24L51 25L52 25L52 24ZM25 25L25 26L24 26L24 27L26 27L26 25ZM2 26L2 27L3 27L3 29L2 29L2 28L1 28L1 30L3 30L3 29L4 29L4 26ZM5 27L5 30L8 30L8 27ZM20 27L20 28L21 28L21 27ZM27 27L27 30L30 30L30 27ZM49 27L49 30L52 30L52 27ZM55 27L55 28L56 28L56 29L57 29L57 28L56 28L56 27ZM6 28L6 29L7 29L7 28ZM28 28L28 29L29 29L29 28ZM37 28L37 29L38 29L38 28ZM50 28L50 29L51 29L51 28ZM18 29L18 30L19 30L19 29ZM20 29L20 30L22 30L22 29ZM25 29L25 30L26 30L26 29ZM37 30L37 32L38 32L38 30ZM53 30L53 32L55 32L55 31L54 31L54 30ZM27 31L27 32L28 32L28 31ZM45 32L45 33L46 33L46 32ZM14 33L14 34L15 34L15 33ZM43 33L43 34L44 34L44 33ZM55 33L55 34L56 34L56 33ZM39 35L39 36L40 36L40 35ZM43 35L43 37L44 37L44 35ZM27 36L27 37L28 37L28 36ZM41 38L41 39L42 39L42 38ZM7 39L7 40L8 40L8 39ZM27 40L27 41L26 41L26 42L25 42L25 43L24 43L24 45L25 45L25 43L28 43L28 42L27 42L27 41L28 41L28 40ZM9 41L9 42L10 42L10 41ZM48 41L48 43L47 43L47 44L46 44L46 45L45 45L45 44L44 44L44 45L45 45L45 46L44 46L44 47L45 47L45 48L44 48L44 50L46 50L46 49L47 49L47 48L46 48L46 45L47 45L47 47L48 47L48 46L49 46L49 45L50 45L50 44L51 44L51 47L52 47L52 44L53 44L53 43L52 43L52 41L51 41L51 43L50 43L50 42L49 42L49 41ZM17 42L17 43L18 43L18 42ZM2 43L2 44L3 44L3 43ZM49 43L49 44L47 44L47 45L49 45L49 44L50 44L50 43ZM51 43L51 44L52 44L52 43ZM21 45L21 46L22 46L22 47L21 47L21 48L22 48L22 47L23 47L23 45ZM26 45L26 46L27 46L27 45ZM1 46L1 47L2 47L2 46ZM36 47L36 48L37 48L37 47ZM6 48L6 49L7 49L7 48ZM17 48L17 51L16 51L16 52L17 52L17 51L18 51L18 50L19 50L19 48ZM32 48L32 50L33 50L33 48ZM45 48L45 49L46 49L46 48ZM11 49L11 51L12 51L12 49ZM15 49L15 50L16 50L16 49ZM27 49L27 52L30 52L30 49ZM49 49L49 52L52 52L52 49ZM28 50L28 51L29 51L29 50ZM50 50L50 51L51 51L51 50ZM9 51L9 52L10 52L10 53L12 53L12 52L10 52L10 51ZM25 51L25 52L26 52L26 51ZM13 52L13 54L12 54L12 55L13 55L13 54L14 54L14 55L15 55L15 54L14 54L14 52ZM19 52L19 53L20 53L20 52ZM43 52L43 53L44 53L44 52ZM55 52L55 53L56 53L56 52ZM30 53L30 54L31 54L31 53ZM49 53L49 54L51 54L51 55L52 55L52 54L51 54L51 53ZM40 54L40 55L41 55L41 56L42 56L42 55L43 55L43 54ZM21 55L21 56L22 56L22 55ZM26 56L26 57L27 57L27 56ZM56 56L56 57L57 57L57 56ZM0 0L0 7L7 7L7 0ZM1 1L1 6L6 6L6 1ZM2 2L2 5L5 5L5 2ZM50 0L50 7L57 7L57 0ZM51 1L51 6L56 6L56 1ZM52 2L52 5L55 5L55 2ZM0 50L0 57L7 57L7 50ZM1 51L1 56L6 56L6 51ZM2 52L2 55L5 55L5 52Z" fill="#000000"/></g></g></svg>
