<?xml version="1.0" encoding="UTF-8"?>
<svg xmlns="http://www.w3.org/2000/svg" version="1.1" width="300" height="300" viewBox="0 0 300 300"><rect x="0" y="0" width="300" height="300" fill="#fefefe"/><g transform="scale(4.615)"><g transform="translate(4,4)"><path fill-rule="evenodd" d="M9 0L9 1L8 1L8 2L10 2L10 3L11 3L11 1L13 1L13 0L11 0L11 1L10 1L10 0ZM14 0L14 2L13 2L13 3L12 3L12 4L14 4L14 2L15 2L15 3L17 3L17 4L19 4L19 5L20 5L20 7L19 7L19 6L18 6L18 7L19 7L19 8L16 8L16 7L17 7L17 6L16 6L16 7L15 7L15 5L16 5L16 4L15 4L15 5L14 5L14 7L13 7L13 5L12 5L12 8L11 8L11 9L10 9L10 7L11 7L11 5L10 5L10 4L9 4L9 3L8 3L8 4L9 4L9 5L8 5L8 7L9 7L9 8L6 8L6 9L7 9L7 10L6 10L6 11L2 11L2 10L3 10L3 9L4 9L4 10L5 10L5 8L0 8L0 11L2 11L2 12L1 12L1 13L0 13L0 14L1 14L1 15L0 15L0 19L1 19L1 20L0 20L0 21L5 21L5 19L7 19L7 20L6 20L6 21L7 21L7 20L8 20L8 22L9 22L9 23L8 23L8 24L6 24L6 23L7 23L7 22L3 22L3 24L2 24L2 27L1 27L1 26L0 26L0 27L1 27L1 28L2 28L2 27L3 27L3 29L2 29L2 30L1 30L1 31L2 31L2 32L1 32L1 33L0 33L0 36L1 36L1 37L0 37L0 39L1 39L1 40L3 40L3 41L4 41L4 42L5 42L5 41L10 41L10 40L12 40L12 41L11 41L11 42L8 42L8 44L5 44L5 45L8 45L8 46L5 46L5 47L3 47L3 45L4 45L4 43L3 43L3 42L2 42L2 43L3 43L3 45L2 45L2 44L0 44L0 48L5 48L5 47L7 47L7 48L6 48L6 49L7 49L7 48L8 48L8 51L9 51L9 52L8 52L8 57L10 57L10 55L9 55L9 53L11 53L11 54L12 54L12 55L11 55L11 57L12 57L12 55L14 55L14 56L13 56L13 57L14 57L14 56L15 56L15 57L16 57L16 56L17 56L17 57L20 57L20 56L19 56L19 55L20 55L20 54L19 54L19 53L20 53L20 52L21 52L21 51L22 51L22 50L25 50L25 51L26 51L26 53L25 53L25 52L24 52L24 53L23 53L23 54L22 54L22 55L21 55L21 56L24 56L24 55L23 55L23 54L24 54L24 53L25 53L25 54L26 54L26 56L25 56L25 57L26 57L26 56L27 56L27 57L29 57L29 56L30 56L30 57L31 57L31 56L35 56L35 57L39 57L39 56L40 56L40 55L41 55L41 57L42 57L42 55L44 55L44 56L43 56L43 57L44 57L44 56L45 56L45 57L46 57L46 56L45 56L45 55L44 55L44 54L45 54L45 53L44 53L44 52L45 52L45 50L44 50L44 51L43 51L43 49L44 49L44 48L45 48L45 47L47 47L47 48L46 48L46 49L47 49L47 50L48 50L48 54L46 54L46 55L47 55L47 56L48 56L48 57L49 57L49 56L50 56L50 57L52 57L52 55L51 55L51 53L52 53L52 54L53 54L53 52L54 52L54 53L56 53L56 50L57 50L57 48L56 48L56 46L57 46L57 45L56 45L56 44L57 44L57 43L56 43L56 41L53 41L53 40L55 40L55 39L57 39L57 35L56 35L56 34L57 34L57 32L56 32L56 30L57 30L57 27L56 27L56 26L57 26L57 25L56 25L56 22L57 22L57 21L56 21L56 20L57 20L57 19L55 19L55 18L57 18L57 17L56 17L56 16L57 16L57 15L56 15L56 14L57 14L57 12L55 12L55 11L56 11L56 10L54 10L54 11L52 11L52 10L53 10L53 9L54 9L54 8L53 8L53 9L52 9L52 8L51 8L51 9L52 9L52 10L51 10L51 11L50 11L50 8L49 8L49 9L48 9L48 8L47 8L47 10L46 10L46 9L44 9L44 8L43 8L43 6L44 6L44 7L45 7L45 6L46 6L46 7L47 7L47 5L48 5L48 0L46 0L46 1L45 1L45 2L44 2L44 3L42 3L42 2L43 2L43 0L41 0L41 1L40 1L40 0L39 0L39 1L38 1L38 0L37 0L37 1L38 1L38 2L39 2L39 3L41 3L41 4L40 4L40 5L39 5L39 6L38 6L38 7L37 7L37 5L38 5L38 3L36 3L36 0L35 0L35 1L33 1L33 2L32 2L32 3L31 3L31 1L32 1L32 0L29 0L29 1L28 1L28 2L27 2L27 1L25 1L25 0L23 0L23 1L22 1L22 0L21 0L21 1L20 1L20 0L17 0L17 2L15 2L15 0ZM18 1L18 2L17 2L17 3L19 3L19 4L21 4L21 8L20 8L20 10L21 10L21 11L22 11L22 10L23 10L23 11L24 11L24 13L25 13L25 15L26 15L26 16L23 16L23 15L21 15L21 16L20 16L20 14L21 14L21 13L22 13L22 14L23 14L23 13L22 13L22 12L20 12L20 11L19 11L19 13L20 13L20 14L19 14L19 15L17 15L17 13L18 13L18 12L17 12L17 11L18 11L18 10L19 10L19 9L16 9L16 8L15 8L15 7L14 7L14 9L13 9L13 10L15 10L15 11L16 11L16 12L15 12L15 13L12 13L12 12L11 12L11 13L12 13L12 14L11 14L11 15L12 15L12 16L10 16L10 15L6 15L6 16L5 16L5 15L2 15L2 16L1 16L1 17L2 17L2 16L4 16L4 17L3 17L3 18L4 18L4 19L3 19L3 20L4 20L4 19L5 19L5 18L7 18L7 17L9 17L9 16L10 16L10 18L11 18L11 17L13 17L13 16L14 16L14 18L13 18L13 19L14 19L14 20L12 20L12 19L11 19L11 21L14 21L14 22L16 22L16 21L18 21L18 23L19 23L19 25L20 25L20 26L18 26L18 27L16 27L16 26L17 26L17 24L16 24L16 23L15 23L15 27L14 27L14 26L13 26L13 25L12 25L12 26L11 26L11 28L12 28L12 26L13 26L13 28L14 28L14 29L16 29L16 30L17 30L17 31L20 31L20 32L21 32L21 33L18 33L18 34L17 34L17 33L16 33L16 32L14 32L14 30L13 30L13 29L11 29L11 30L10 30L10 32L8 32L8 33L6 33L6 32L7 32L7 31L4 31L4 30L3 30L3 33L4 33L4 35L3 35L3 36L2 36L2 37L1 37L1 39L4 39L4 40L5 40L5 38L8 38L8 37L9 37L9 40L10 40L10 38L11 38L11 39L12 39L12 40L15 40L15 42L14 42L14 41L12 41L12 42L11 42L11 43L10 43L10 46L8 46L8 47L10 47L10 48L9 48L9 51L10 51L10 52L11 52L11 53L12 53L12 52L13 52L13 53L14 53L14 54L16 54L16 53L17 53L17 51L18 51L18 52L19 52L19 51L18 51L18 50L20 50L20 51L21 51L21 49L23 49L23 48L24 48L24 49L25 49L25 50L26 50L26 48L30 48L30 47L29 47L29 45L30 45L30 44L32 44L32 45L31 45L31 46L32 46L32 47L33 47L33 46L35 46L35 48L34 48L34 49L33 49L33 48L32 48L32 49L31 49L31 50L32 50L32 51L31 51L31 53L30 53L30 54L27 54L27 56L29 56L29 55L30 55L30 56L31 56L31 54L32 54L32 53L33 53L33 54L34 54L34 55L35 55L35 56L36 56L36 54L35 54L35 50L36 50L36 52L37 52L37 53L38 53L38 54L37 54L37 56L39 56L39 55L38 55L38 54L40 54L40 53L42 53L42 52L40 52L40 51L38 51L38 50L41 50L41 51L42 51L42 50L41 50L41 48L42 48L42 49L43 49L43 48L44 48L44 45L45 45L45 46L48 46L48 44L50 44L50 47L51 47L51 48L52 48L52 46L53 46L53 45L52 45L52 44L53 44L53 43L54 43L54 42L53 42L53 41L51 41L51 42L50 42L50 43L48 43L48 44L47 44L47 45L45 45L45 44L46 44L46 43L47 43L47 42L48 42L48 41L49 41L49 39L51 39L51 38L52 38L52 39L54 39L54 38L53 38L53 35L55 35L55 34L54 34L54 32L53 32L53 31L55 31L55 30L54 30L54 29L56 29L56 27L55 27L55 28L54 28L54 29L53 29L53 31L48 31L48 28L47 28L47 29L46 29L46 30L47 30L47 31L46 31L46 32L47 32L47 33L45 33L45 32L43 32L43 31L44 31L44 30L45 30L45 28L46 28L46 27L48 27L48 26L47 26L47 25L48 25L48 24L49 24L49 23L50 23L50 26L51 26L51 25L52 25L52 26L53 26L53 27L54 27L54 26L53 26L53 23L50 23L50 22L51 22L51 21L54 21L54 22L56 22L56 21L55 21L55 20L53 20L53 19L52 19L52 18L51 18L51 17L53 17L53 18L55 18L55 16L53 16L53 15L54 15L54 13L55 13L55 14L56 14L56 13L55 13L55 12L54 12L54 13L53 13L53 12L52 12L52 13L53 13L53 15L52 15L52 16L51 16L51 15L50 15L50 14L51 14L51 12L50 12L50 11L49 11L49 10L48 10L48 11L47 11L47 12L45 12L45 11L46 11L46 10L45 10L45 11L41 11L41 12L40 12L40 10L41 10L41 7L42 7L42 5L40 5L40 6L39 6L39 7L40 7L40 8L38 8L38 11L39 11L39 12L40 12L40 13L38 13L38 14L37 14L37 13L36 13L36 14L37 14L37 15L35 15L35 16L31 16L31 18L30 18L30 19L31 19L31 18L32 18L32 17L33 17L33 18L34 18L34 19L36 19L36 20L37 20L37 19L39 19L39 17L41 17L41 16L42 16L42 17L43 17L43 16L42 16L42 15L44 15L44 18L43 18L43 20L44 20L44 23L42 23L42 22L41 22L41 24L39 24L39 23L40 23L40 22L39 22L39 21L42 21L42 20L38 20L38 22L37 22L37 24L39 24L39 25L38 25L38 26L37 26L37 25L33 25L33 24L32 24L32 23L33 23L33 22L34 22L34 23L35 23L35 21L33 21L33 20L32 20L32 21L31 21L31 22L30 22L30 23L29 23L29 22L28 22L28 21L29 21L29 19L28 19L28 18L27 18L27 17L28 17L28 16L29 16L29 14L30 14L30 15L31 15L31 14L32 14L32 13L33 13L33 14L35 14L35 12L36 12L36 10L37 10L37 9L35 9L35 8L37 8L37 7L36 7L36 5L37 5L37 4L36 4L36 5L35 5L35 4L33 4L33 3L34 3L34 2L33 2L33 3L32 3L32 4L31 4L31 3L30 3L30 4L31 4L31 8L32 8L32 10L31 10L31 11L29 11L29 12L28 12L28 13L27 13L27 15L26 15L26 12L27 12L27 11L28 11L28 10L27 10L27 11L26 11L26 12L25 12L25 10L23 10L23 8L24 8L24 6L23 6L23 5L24 5L24 4L23 4L23 3L26 3L26 4L25 4L25 8L26 8L26 4L29 4L29 3L27 3L27 2L21 2L21 3L20 3L20 1ZM29 1L29 2L30 2L30 1ZM46 1L46 2L47 2L47 1ZM44 3L44 6L45 6L45 4L46 4L46 5L47 5L47 3ZM22 4L22 5L23 5L23 4ZM32 4L32 5L33 5L33 6L32 6L32 7L33 7L33 9L34 9L34 8L35 8L35 5L33 5L33 4ZM9 5L9 7L10 7L10 5ZM27 5L27 8L30 8L30 5ZM22 6L22 8L23 8L23 6ZM28 6L28 7L29 7L29 6ZM33 6L33 7L34 7L34 6ZM40 6L40 7L41 7L41 6ZM48 6L48 7L49 7L49 6ZM42 8L42 9L43 9L43 8ZM55 8L55 9L56 9L56 8ZM1 9L1 10L2 10L2 9ZM9 9L9 10L7 10L7 11L6 11L6 12L7 12L7 11L9 11L9 12L8 12L8 13L5 13L5 12L4 12L4 14L10 14L10 13L9 13L9 12L10 12L10 11L12 11L12 10L10 10L10 9ZM21 9L21 10L22 10L22 9ZM32 10L32 11L31 11L31 13L30 13L30 14L31 14L31 13L32 13L32 11L33 11L33 10ZM13 11L13 12L14 12L14 11ZM48 11L48 12L49 12L49 13L47 13L47 14L45 14L45 16L46 16L46 17L45 17L45 18L44 18L44 20L45 20L45 21L47 21L47 22L45 22L45 25L47 25L47 24L48 24L48 23L49 23L49 21L51 21L51 20L52 20L52 19L51 19L51 18L50 18L50 17L49 17L49 16L50 16L50 15L49 15L49 14L50 14L50 12L49 12L49 11ZM2 12L2 13L1 13L1 14L3 14L3 12ZM16 12L16 13L15 13L15 14L12 14L12 15L14 15L14 16L16 16L16 17L18 17L18 18L20 18L20 19L17 19L17 20L18 20L18 21L20 21L20 19L21 19L21 20L22 20L22 19L21 19L21 18L20 18L20 16L16 16L16 13L17 13L17 12ZM33 12L33 13L34 13L34 12ZM43 12L43 13L41 13L41 14L38 14L38 15L39 15L39 16L38 16L38 17L37 17L37 16L35 16L35 17L37 17L37 18L38 18L38 17L39 17L39 16L41 16L41 14L43 14L43 13L44 13L44 12ZM28 13L28 14L29 14L29 13ZM27 15L27 16L26 16L26 17L27 17L27 16L28 16L28 15ZM46 15L46 16L47 16L47 15ZM48 15L48 16L49 16L49 15ZM6 16L6 17L7 17L7 16ZM21 16L21 17L22 17L22 18L24 18L24 19L23 19L23 20L24 20L24 21L23 21L23 22L22 22L22 21L21 21L21 22L22 22L22 23L23 23L23 24L24 24L24 25L22 25L22 26L20 26L20 27L19 27L19 29L18 29L18 28L16 28L16 29L18 29L18 30L20 30L20 31L21 31L21 32L23 32L23 31L24 31L24 30L25 30L25 31L26 31L26 33L27 33L27 31L29 31L29 32L28 32L28 33L29 33L29 34L30 34L30 36L29 36L29 37L31 37L31 38L29 38L29 39L33 39L33 40L35 40L35 42L37 42L37 43L34 43L34 42L33 42L33 41L32 41L32 40L31 40L31 41L30 41L30 42L28 42L28 44L27 44L27 43L24 43L24 42L25 42L25 41L24 41L24 40L25 40L25 39L27 39L27 40L28 40L28 39L27 39L27 38L28 38L28 37L26 37L26 38L25 38L25 36L26 36L26 35L27 35L27 34L25 34L25 33L23 33L23 34L22 34L22 33L21 33L21 36L22 36L22 35L23 35L23 34L24 34L24 36L23 36L23 37L19 37L19 35L20 35L20 34L19 34L19 35L17 35L17 34L16 34L16 35L17 35L17 36L18 36L18 37L17 37L17 38L18 38L18 37L19 37L19 38L20 38L20 39L17 39L17 40L18 40L18 41L17 41L17 42L18 42L18 43L16 43L16 45L17 45L17 46L15 46L15 45L14 45L14 46L13 46L13 48L17 48L17 49L21 49L21 47L25 47L25 48L26 48L26 47L27 47L27 45L28 45L28 44L29 44L29 43L32 43L32 44L33 44L33 43L34 43L34 45L35 45L35 46L37 46L37 47L36 47L36 48L35 48L35 49L36 49L36 50L38 50L38 49L39 49L39 48L41 48L41 46L43 46L43 45L44 45L44 44L43 44L43 43L44 43L44 42L43 42L43 41L44 41L44 40L45 40L45 39L46 39L46 41L47 41L47 39L49 39L49 38L51 38L51 37L52 37L52 35L53 35L53 34L52 34L52 33L53 33L53 32L52 32L52 33L51 33L51 32L50 32L50 34L48 34L48 35L50 35L50 37L49 37L49 38L48 38L48 37L47 37L47 35L44 35L44 36L42 36L42 34L45 34L45 33L43 33L43 32L41 32L41 33L39 33L39 34L40 34L40 35L39 35L39 37L40 37L40 38L41 38L41 41L40 41L40 42L42 42L42 44L41 44L41 45L39 45L39 44L40 44L40 43L39 43L39 42L38 42L38 40L40 40L40 39L38 39L38 37L37 37L37 36L38 36L38 33L37 33L37 32L35 32L35 30L32 30L32 31L34 31L34 33L35 33L35 34L37 34L37 36L35 36L35 35L34 35L34 34L33 34L33 35L31 35L31 33L32 33L32 32L31 32L31 33L29 33L29 32L30 32L30 31L31 31L31 29L32 29L32 28L31 28L31 26L32 26L32 27L33 27L33 28L35 28L35 29L38 29L38 28L39 28L39 27L41 27L41 28L42 28L42 27L41 27L41 26L44 26L44 27L43 27L43 28L45 28L45 27L46 27L46 26L44 26L44 24L43 24L43 25L39 25L39 27L36 27L36 26L34 26L34 27L33 27L33 26L32 26L32 24L31 24L31 23L30 23L30 24L29 24L29 25L28 25L28 26L26 26L26 25L25 25L25 24L28 24L28 23L27 23L27 21L26 21L26 18L25 18L25 17L22 17L22 16ZM46 17L46 18L45 18L45 20L47 20L47 21L49 21L49 20L47 20L47 19L46 19L46 18L47 18L47 17ZM15 18L15 19L16 19L16 18ZM41 18L41 19L42 19L42 18ZM48 18L48 19L50 19L50 18ZM8 19L8 20L9 20L9 22L10 22L10 23L9 23L9 24L8 24L8 25L4 25L4 24L3 24L3 27L4 27L4 26L9 26L9 28L10 28L10 26L9 26L9 24L10 24L10 25L11 25L11 24L12 24L12 23L13 23L13 22L12 22L12 23L11 23L11 22L10 22L10 19ZM27 19L27 20L28 20L28 19ZM15 20L15 21L16 21L16 20ZM24 21L24 22L23 22L23 23L24 23L24 24L25 24L25 23L26 23L26 22L25 22L25 21ZM0 22L0 23L2 23L2 22ZM19 22L19 23L20 23L20 22ZM46 23L46 24L47 24L47 23ZM0 24L0 25L1 25L1 24ZM20 24L20 25L21 25L21 24ZM29 25L29 26L30 26L30 25ZM55 25L55 26L56 26L56 25ZM22 26L22 27L20 27L20 30L21 30L21 31L23 31L23 27L24 27L24 26ZM25 26L25 27L26 27L26 26ZM5 27L5 30L8 30L8 27ZM27 27L27 30L30 30L30 27ZM49 27L49 30L52 30L52 27ZM6 28L6 29L7 29L7 28ZM21 28L21 29L22 29L22 28ZM25 28L25 29L26 29L26 28ZM28 28L28 29L29 29L29 28ZM50 28L50 29L51 29L51 28ZM39 29L39 30L38 30L38 32L39 32L39 30L40 30L40 29ZM41 29L41 30L44 30L44 29ZM12 30L12 33L11 33L11 34L10 34L10 35L8 35L8 36L11 36L11 34L14 34L14 35L15 35L15 34L14 34L14 32L13 32L13 30ZM47 31L47 32L48 32L48 33L49 33L49 32L48 32L48 31ZM55 32L55 33L56 33L56 32ZM1 33L1 34L2 34L2 33ZM8 33L8 34L9 34L9 33ZM6 34L6 35L7 35L7 34ZM50 34L50 35L52 35L52 34ZM4 35L4 37L7 37L7 36L5 36L5 35ZM12 35L12 37L14 37L14 38L13 38L13 39L14 39L14 38L16 38L16 37L15 37L15 36L13 36L13 35ZM33 35L33 36L32 36L32 37L33 37L33 39L35 39L35 40L38 40L38 39L35 39L35 37L33 37L33 36L34 36L34 35ZM40 36L40 37L41 37L41 38L42 38L42 40L44 40L44 39L45 39L45 38L46 38L46 39L47 39L47 37L46 37L46 36L44 36L44 37L43 37L43 38L42 38L42 37L41 37L41 36ZM55 36L55 37L56 37L56 36ZM2 37L2 38L3 38L3 37ZM23 37L23 38L24 38L24 37ZM44 37L44 38L45 38L45 37ZM6 39L6 40L8 40L8 39ZM15 39L15 40L16 40L16 39ZM22 39L22 40L19 40L19 41L18 41L18 42L19 42L19 41L20 41L20 42L21 42L21 43L20 43L20 44L19 44L19 45L20 45L20 46L17 46L17 48L20 48L20 47L21 47L21 45L22 45L22 46L23 46L23 45L24 45L24 43L23 43L23 45L22 45L22 44L21 44L21 43L22 43L22 42L24 42L24 41L23 41L23 40L24 40L24 39ZM21 41L21 42L22 42L22 41ZM26 41L26 42L27 42L27 41ZM31 41L31 42L32 42L32 43L33 43L33 42L32 42L32 41ZM0 42L0 43L1 43L1 42ZM6 42L6 43L7 43L7 42ZM45 42L45 43L46 43L46 42ZM51 42L51 43L50 43L50 44L51 44L51 43L53 43L53 42ZM11 43L11 46L12 46L12 45L13 45L13 43ZM14 43L14 44L15 44L15 43ZM17 44L17 45L18 45L18 44ZM25 44L25 47L26 47L26 45L27 45L27 44ZM54 44L54 45L55 45L55 46L56 46L56 45L55 45L55 44ZM1 45L1 47L2 47L2 45ZM32 45L32 46L33 46L33 45ZM38 45L38 46L39 46L39 47L38 47L38 48L37 48L37 49L38 49L38 48L39 48L39 47L40 47L40 46L39 46L39 45ZM51 45L51 46L52 46L52 45ZM14 46L14 47L15 47L15 46ZM11 47L11 49L10 49L10 51L13 51L13 52L14 52L14 53L16 53L16 52L15 52L15 51L16 51L16 50L15 50L15 49L12 49L12 47ZM42 47L42 48L43 48L43 47ZM48 47L48 48L47 48L47 49L48 49L48 48L49 48L49 47ZM53 48L53 49L55 49L55 50L54 50L54 51L55 51L55 50L56 50L56 48ZM27 49L27 52L30 52L30 49ZM32 49L32 50L33 50L33 49ZM49 49L49 52L52 52L52 49ZM28 50L28 51L29 51L29 50ZM50 50L50 51L51 51L51 50ZM32 51L32 52L33 52L33 53L34 53L34 52L33 52L33 51ZM37 51L37 52L38 52L38 53L39 53L39 52L38 52L38 51ZM46 51L46 52L47 52L47 51ZM43 53L43 54L44 54L44 53ZM41 54L41 55L42 55L42 54ZM54 54L54 55L53 55L53 56L55 56L55 57L56 57L56 56L55 56L55 54ZM15 55L15 56L16 56L16 55ZM17 55L17 56L18 56L18 55ZM48 55L48 56L49 56L49 55ZM50 55L50 56L51 56L51 55ZM0 0L0 7L7 7L7 0ZM1 1L1 6L6 6L6 1ZM2 2L2 5L5 5L5 2ZM50 0L50 7L57 7L57 0ZM51 1L51 6L56 6L56 1ZM52 2L52 5L55 5L55 2ZM0 50L0 57L7 57L7 50ZM1 51L1 56L6 56L6 51ZM2 52L2 55L5 55L5 52Z" fill="#000000"/></g></g></svg>
