<?xml version="1.0" encoding="UTF-8"?>
<svg xmlns="http://www.w3.org/2000/svg" version="1.1" width="300" height="300" viewBox="0 0 300 300"><rect x="0" y="0" width="300" height="300" fill="#fefefe"/><g transform="scale(4.615)"><g transform="translate(4,4)"><path fill-rule="evenodd" d="M8 0L8 1L9 1L9 0ZM10 0L10 2L8 2L8 5L9 5L9 6L8 6L8 7L9 7L9 6L10 6L10 7L11 7L11 6L12 6L12 8L8 8L8 9L9 9L9 11L8 11L8 13L12 13L12 14L6 14L6 13L7 13L7 12L6 12L6 11L7 11L7 10L6 10L6 11L4 11L4 8L0 8L0 9L1 9L1 12L0 12L0 13L1 13L1 14L0 14L0 18L2 18L2 21L1 21L1 22L0 22L0 24L1 24L1 25L0 25L0 28L1 28L1 30L0 30L0 31L1 31L1 30L2 30L2 32L3 32L3 33L1 33L1 32L0 32L0 34L3 34L3 33L5 33L5 34L4 34L4 35L3 35L3 36L2 36L2 35L1 35L1 37L4 37L4 38L5 38L5 39L8 39L8 38L9 38L9 40L8 40L8 41L7 41L7 40L6 40L6 41L7 41L7 42L5 42L5 41L4 41L4 42L3 42L3 40L4 40L4 39L3 39L3 38L1 38L1 39L0 39L0 44L1 44L1 46L0 46L0 48L5 48L5 47L7 47L7 46L8 46L8 47L9 47L9 49L8 49L8 48L6 48L6 49L8 49L8 50L9 50L9 52L10 52L10 53L8 53L8 57L10 57L10 56L9 56L9 55L11 55L11 57L13 57L13 56L12 56L12 55L13 55L13 54L14 54L14 55L15 55L15 56L16 56L16 57L18 57L18 56L19 56L19 55L20 55L20 56L21 56L21 57L24 57L24 56L28 56L28 55L27 55L27 54L26 54L26 53L29 53L29 54L31 54L31 55L30 55L30 56L31 56L31 57L32 57L32 55L33 55L33 54L36 54L36 55L34 55L34 56L33 56L33 57L36 57L36 55L38 55L38 57L42 57L42 56L45 56L45 57L46 57L46 54L47 54L47 56L49 56L49 57L51 57L51 54L52 54L52 53L54 53L54 52L55 52L55 54L53 54L53 55L55 55L55 54L56 54L56 53L57 53L57 52L56 52L56 49L57 49L57 48L56 48L56 49L55 49L55 50L53 50L53 48L54 48L54 47L57 47L57 45L56 45L56 46L55 46L55 44L53 44L53 48L50 48L50 47L51 47L51 46L49 46L49 45L50 45L50 44L49 44L49 43L50 43L50 42L51 42L51 45L52 45L52 43L53 43L53 42L54 42L54 43L56 43L56 44L57 44L57 43L56 43L56 42L57 42L57 40L56 40L56 41L55 41L55 42L54 42L54 40L55 40L55 38L56 38L56 39L57 39L57 38L56 38L56 37L55 37L55 36L56 36L56 35L57 35L57 31L56 31L56 30L57 30L57 29L56 29L56 28L55 28L55 27L53 27L53 25L51 25L51 24L50 24L50 23L49 23L49 20L50 20L50 21L51 21L51 22L52 22L52 24L54 24L54 23L57 23L57 19L56 19L56 17L57 17L57 15L55 15L55 13L57 13L57 12L55 12L55 13L54 13L54 10L51 10L51 11L50 11L50 10L49 10L49 9L50 9L50 8L49 8L49 9L48 9L48 7L49 7L49 6L48 6L48 7L47 7L47 5L48 5L48 0L46 0L46 1L47 1L47 2L46 2L46 3L47 3L47 5L46 5L46 7L45 7L45 6L44 6L44 7L43 7L43 6L42 6L42 7L43 7L43 8L45 8L45 9L41 9L41 8L40 8L40 7L41 7L41 4L43 4L43 5L45 5L45 4L44 4L44 3L45 3L45 1L44 1L44 2L41 2L41 1L43 1L43 0L41 0L41 1L40 1L40 0L39 0L39 1L40 1L40 2L41 2L41 4L39 4L39 2L37 2L37 1L38 1L38 0L37 0L37 1L36 1L36 0L35 0L35 1L34 1L34 2L35 2L35 4L36 4L36 5L40 5L40 7L39 7L39 6L38 6L38 7L39 7L39 10L40 10L40 11L38 11L38 9L37 9L37 11L38 11L38 12L35 12L35 11L36 11L36 10L35 10L35 11L34 11L34 10L33 10L33 14L32 14L32 11L30 11L30 12L31 12L31 14L30 14L30 13L28 13L28 12L26 12L26 14L23 14L23 18L22 18L22 17L21 17L21 13L20 13L20 12L21 12L21 11L24 11L24 12L22 12L22 13L25 13L25 11L26 11L26 10L28 10L28 11L29 11L29 10L32 10L32 9L31 9L31 6L32 6L32 8L33 8L33 6L34 6L34 9L36 9L36 8L37 8L37 6L36 6L36 7L35 7L35 6L34 6L34 4L33 4L33 6L32 6L32 5L31 5L31 4L32 4L32 3L33 3L33 1L32 1L32 0L28 0L28 1L29 1L29 4L28 4L28 2L27 2L27 4L26 4L26 0L23 0L23 1L25 1L25 2L24 2L24 3L23 3L23 2L22 2L22 0L21 0L21 2L19 2L19 3L18 3L18 2L17 2L17 1L18 1L18 0L17 0L17 1L15 1L15 3L17 3L17 5L15 5L15 4L14 4L14 3L13 3L13 1L14 1L14 0L12 0L12 1L11 1L11 0ZM35 1L35 2L36 2L36 1ZM11 2L11 4L10 4L10 3L9 3L9 5L10 5L10 6L11 6L11 4L12 4L12 5L13 5L13 7L14 7L14 6L15 6L15 8L13 8L13 9L10 9L10 11L9 11L9 12L10 12L10 11L11 11L11 12L12 12L12 13L13 13L13 14L12 14L12 15L10 15L10 16L9 16L9 20L8 20L8 19L6 19L6 18L8 18L8 15L6 15L6 14L5 14L5 12L3 12L3 11L2 11L2 15L3 15L3 13L4 13L4 14L5 14L5 15L6 15L6 16L2 16L2 17L4 17L4 19L3 19L3 20L4 20L4 21L5 21L5 22L4 22L4 23L2 23L2 22L1 22L1 24L2 24L2 25L1 25L1 26L2 26L2 28L3 28L3 29L4 29L4 28L3 28L3 27L4 27L4 26L2 26L2 25L3 25L3 24L4 24L4 25L5 25L5 26L9 26L9 25L6 25L6 24L12 24L12 27L11 27L11 26L10 26L10 27L11 27L11 28L10 28L10 29L9 29L9 34L8 34L8 35L6 35L6 34L7 34L7 33L6 33L6 32L8 32L8 31L3 31L3 32L5 32L5 33L6 33L6 34L5 34L5 35L6 35L6 36L7 36L7 37L6 37L6 38L8 38L8 37L9 37L9 38L10 38L10 37L11 37L11 40L12 40L12 41L10 41L10 40L9 40L9 41L8 41L8 42L7 42L7 43L6 43L6 44L3 44L3 43L2 43L2 41L1 41L1 44L2 44L2 46L1 46L1 47L2 47L2 46L3 46L3 47L5 47L5 46L7 46L7 45L6 45L6 44L7 44L7 43L8 43L8 46L9 46L9 47L10 47L10 49L11 49L11 50L10 50L10 52L11 52L11 51L13 51L13 52L12 52L12 53L10 53L10 54L11 54L11 55L12 55L12 54L13 54L13 53L16 53L16 54L17 54L17 55L18 55L18 54L19 54L19 52L20 52L20 51L19 51L19 49L21 49L21 50L22 50L22 51L21 51L21 52L22 52L22 53L20 53L20 55L21 55L21 56L22 56L22 55L21 55L21 54L22 54L22 53L23 53L23 52L24 52L24 53L25 53L25 52L26 52L26 51L24 51L24 50L25 50L25 48L27 48L27 47L28 47L28 48L31 48L31 47L32 47L32 49L31 49L31 53L32 53L32 49L33 49L33 48L34 48L34 46L35 46L35 48L37 48L37 49L36 49L36 50L37 50L37 49L38 49L38 48L39 48L39 49L40 49L40 50L39 50L39 51L38 51L38 54L39 54L39 52L40 52L40 54L41 54L41 55L42 55L42 54L43 54L43 53L42 53L42 54L41 54L41 52L43 52L43 51L44 51L44 50L45 50L45 53L46 53L46 51L47 51L47 52L48 52L48 48L47 48L47 49L46 49L46 50L45 50L45 48L44 48L44 49L43 49L43 47L39 47L39 46L41 46L41 45L38 45L38 44L41 44L41 43L38 43L38 44L37 44L37 42L41 42L41 41L42 41L42 42L43 42L43 43L42 43L42 45L45 45L45 47L46 47L46 46L47 46L47 47L49 47L49 46L48 46L48 45L49 45L49 44L43 44L43 43L45 43L45 41L43 41L43 39L42 39L42 38L44 38L44 39L45 39L45 40L46 40L46 38L47 38L47 37L48 37L48 39L47 39L47 40L49 40L49 36L48 36L48 35L47 35L47 34L50 34L50 33L49 33L49 32L48 32L48 30L47 30L47 31L44 31L44 30L43 30L43 29L42 29L42 30L40 30L40 29L41 29L41 27L42 27L42 28L44 28L44 27L42 27L42 26L44 26L44 25L45 25L45 24L46 24L46 26L45 26L45 30L46 30L46 26L49 26L49 25L48 25L48 24L47 24L47 23L44 23L44 25L43 25L43 22L42 22L42 23L40 23L40 24L38 24L38 25L40 25L40 27L39 27L39 26L38 26L38 27L39 27L39 28L40 28L40 29L38 29L38 30L37 30L37 28L36 28L36 27L35 27L35 25L34 25L34 27L35 27L35 28L34 28L34 29L36 29L36 31L37 31L37 32L36 32L36 33L37 33L37 32L38 32L38 34L39 34L39 31L40 31L40 32L41 32L41 31L44 31L44 33L45 33L45 34L46 34L46 35L45 35L45 36L44 36L44 37L43 37L43 36L42 36L42 34L41 34L41 35L39 35L39 36L40 36L40 37L41 37L41 39L40 39L40 41L37 41L37 40L38 40L38 39L37 39L37 37L38 37L38 36L37 36L37 37L35 37L35 36L36 36L36 35L34 35L34 36L32 36L32 34L30 34L30 35L29 35L29 33L30 33L30 31L29 31L29 32L28 32L28 33L25 33L25 34L24 34L24 35L22 35L22 34L23 34L23 33L24 33L24 32L27 32L27 31L25 31L25 30L26 30L26 28L25 28L25 27L22 27L22 25L23 25L23 26L25 26L25 25L27 25L27 26L28 26L28 25L29 25L29 26L31 26L31 25L29 25L29 24L30 24L30 21L28 21L28 23L27 23L27 22L25 22L25 21L27 21L27 20L28 20L28 18L29 18L29 17L30 17L30 20L31 20L31 23L32 23L32 22L33 22L33 24L32 24L32 25L33 25L33 24L35 24L35 23L36 23L36 24L37 24L37 23L39 23L39 21L38 21L38 22L35 22L35 21L33 21L33 20L34 20L34 19L35 19L35 20L36 20L36 21L37 21L37 20L40 20L40 19L39 19L39 18L41 18L41 21L44 21L44 22L48 22L48 21L45 21L45 19L46 19L46 20L49 20L49 19L50 19L50 20L53 20L53 21L54 21L54 22L56 22L56 21L54 21L54 20L56 20L56 19L52 19L52 18L54 18L54 17L55 17L55 16L53 16L53 14L54 14L54 13L53 13L53 11L51 11L51 12L50 12L50 13L51 13L51 15L50 15L50 17L49 17L49 12L48 12L48 11L49 11L49 10L48 10L48 11L45 11L45 10L47 10L47 9L45 9L45 10L44 10L44 13L46 13L46 14L45 14L45 15L44 15L44 16L45 16L45 17L42 17L42 14L43 14L43 12L42 12L42 11L43 11L43 10L42 10L42 11L40 11L40 12L39 12L39 13L40 13L40 14L39 14L39 15L37 15L37 14L36 14L36 13L35 13L35 12L34 12L34 14L33 14L33 15L32 15L32 14L31 14L31 16L29 16L29 15L28 15L28 16L29 16L29 17L27 17L27 20L25 20L25 19L26 19L26 18L25 18L25 17L24 17L24 18L23 18L23 19L22 19L22 20L23 20L23 21L22 21L22 23L20 23L20 24L21 24L21 26L19 26L19 25L18 25L18 26L19 26L19 27L16 27L16 26L17 26L17 24L19 24L19 22L21 22L21 20L20 20L20 19L21 19L21 17L19 17L19 16L18 16L18 15L20 15L20 14L19 14L19 13L18 13L18 12L19 12L19 11L21 11L21 10L23 10L23 9L24 9L24 8L25 8L25 9L26 9L26 6L25 6L25 5L26 5L26 4L24 4L24 6L23 6L23 5L21 5L21 3L19 3L19 4L20 4L20 5L21 5L21 7L20 7L20 6L19 6L19 7L20 7L20 10L18 10L18 12L17 12L17 7L18 7L18 6L17 6L17 7L16 7L16 6L15 6L15 5L14 5L14 4L13 4L13 3L12 3L12 2ZM30 2L30 4L31 4L31 2ZM22 3L22 4L23 4L23 3ZM37 3L37 4L38 4L38 3ZM27 5L27 8L30 8L30 5ZM22 6L22 8L21 8L21 9L23 9L23 8L24 8L24 7L25 7L25 6L24 6L24 7L23 7L23 6ZM28 6L28 7L29 7L29 6ZM46 7L46 8L47 8L47 7ZM6 8L6 9L7 9L7 8ZM15 8L15 11L14 11L14 9L13 9L13 10L12 10L12 12L13 12L13 13L14 13L14 14L13 14L13 15L12 15L12 17L11 17L11 16L10 16L10 17L11 17L11 18L10 18L10 19L11 19L11 18L12 18L12 20L11 20L11 21L10 21L10 20L9 20L9 23L10 23L10 22L11 22L11 21L13 21L13 23L15 23L15 24L14 24L14 25L13 25L13 27L12 27L12 28L11 28L11 30L12 30L12 32L11 32L11 31L10 31L10 35L8 35L8 36L9 36L9 37L10 37L10 35L11 35L11 33L12 33L12 36L13 36L13 37L12 37L12 39L13 39L13 42L11 42L11 43L10 43L10 42L9 42L9 43L10 43L10 44L9 44L9 45L10 45L10 46L12 46L12 48L13 48L13 49L12 49L12 50L13 50L13 51L14 51L14 52L16 52L16 49L19 49L19 48L23 48L23 49L22 49L22 50L23 50L23 49L24 49L24 47L25 47L25 45L26 45L26 46L27 46L27 45L26 45L26 43L25 43L25 44L24 44L24 43L23 43L23 42L24 42L24 41L25 41L25 42L29 42L29 43L27 43L27 44L30 44L30 46L31 46L31 44L30 44L30 43L32 43L32 42L33 42L33 45L32 45L32 47L33 47L33 45L34 45L34 44L35 44L35 45L36 45L36 46L37 46L37 47L38 47L38 45L36 45L36 43L34 43L34 42L36 42L36 41L34 41L34 40L35 40L35 39L36 39L36 38L35 38L35 39L34 39L34 37L33 37L33 38L32 38L32 36L29 36L29 35L28 35L28 34L27 34L27 36L29 36L29 38L26 38L26 39L27 39L27 40L26 40L26 41L25 41L25 39L24 39L24 37L25 37L25 36L23 36L23 39L24 39L24 40L23 40L23 41L22 41L22 39L21 39L21 38L20 38L20 37L19 37L19 35L18 35L18 33L17 33L17 28L15 28L15 29L14 29L14 28L13 28L13 27L15 27L15 26L16 26L16 23L17 23L17 22L19 22L19 21L18 21L18 20L19 20L19 19L20 19L20 18L19 18L19 17L15 17L15 16L16 16L16 15L17 15L17 14L16 14L16 15L15 15L15 12L16 12L16 13L17 13L17 12L16 12L16 8ZM18 8L18 9L19 9L19 8ZM52 8L52 9L55 9L55 8ZM56 8L56 9L57 9L57 8ZM2 9L2 10L3 10L3 9ZM55 10L55 11L57 11L57 10ZM51 12L51 13L52 13L52 14L53 14L53 13L52 13L52 12ZM35 14L35 15L33 15L33 16L31 16L31 17L32 17L32 18L33 18L33 19L34 19L34 18L35 18L35 17L34 17L34 16L35 16L35 15L36 15L36 14ZM47 14L47 15L45 15L45 16L46 16L46 17L45 17L45 18L44 18L44 19L45 19L45 18L48 18L48 19L49 19L49 18L48 18L48 17L47 17L47 16L48 16L48 14ZM14 15L14 16L15 16L15 15ZM26 15L26 16L27 16L27 15ZM39 15L39 17L40 17L40 16L41 16L41 15ZM51 15L51 18L52 18L52 15ZM6 16L6 17L7 17L7 16ZM13 17L13 19L15 19L15 20L14 20L14 22L15 22L15 23L16 23L16 19L15 19L15 17ZM36 17L36 18L37 18L37 17ZM41 17L41 18L42 18L42 19L43 19L43 18L42 18L42 17ZM17 18L17 20L18 20L18 19L19 19L19 18ZM24 18L24 19L25 19L25 18ZM0 19L0 20L1 20L1 19ZM5 19L5 21L7 21L7 22L6 22L6 23L4 23L4 24L6 24L6 23L8 23L8 20L6 20L6 19ZM31 19L31 20L32 20L32 19ZM36 19L36 20L37 20L37 19ZM23 21L23 25L25 25L25 22L24 22L24 21ZM26 23L26 24L27 24L27 23ZM28 23L28 24L29 24L29 23ZM55 24L55 25L56 25L56 24ZM5 27L5 30L8 30L8 27ZM19 27L19 28L18 28L18 29L19 29L19 28L20 28L20 27ZM27 27L27 30L30 30L30 27ZM31 27L31 28L33 28L33 27ZM49 27L49 30L52 30L52 27ZM6 28L6 29L7 29L7 28ZM28 28L28 29L29 29L29 28ZM47 28L47 29L48 29L48 28ZM50 28L50 29L51 29L51 28ZM53 28L53 29L54 29L54 30L56 30L56 29L54 29L54 28ZM12 29L12 30L13 30L13 29ZM15 29L15 30L16 30L16 29ZM21 29L21 30L24 30L24 29ZM31 29L31 31L32 31L32 29ZM18 30L18 32L19 32L19 30ZM38 30L38 31L39 31L39 30ZM14 31L14 32L15 32L15 34L17 34L17 33L16 33L16 31ZM22 31L22 32L20 32L20 33L21 33L21 34L22 34L22 33L23 33L23 32L24 32L24 31ZM50 31L50 32L51 32L51 31ZM52 31L52 34L54 34L54 33L55 33L55 31ZM12 32L12 33L13 33L13 34L14 34L14 33L13 33L13 32ZM31 32L31 33L33 33L33 32ZM42 32L42 33L43 33L43 32ZM53 32L53 33L54 33L54 32ZM34 33L34 34L35 34L35 33ZM25 34L25 35L26 35L26 34ZM43 34L43 35L44 35L44 34ZM15 35L15 36L14 36L14 37L13 37L13 39L14 39L14 42L15 42L15 38L17 38L17 39L16 39L16 41L17 41L17 39L18 39L18 37L17 37L17 36L18 36L18 35ZM21 35L21 36L22 36L22 35ZM51 35L51 36L50 36L50 37L51 37L51 36L52 36L52 38L53 38L53 39L54 39L54 38L53 38L53 36L52 36L52 35ZM54 35L54 36L55 36L55 35ZM45 36L45 38L46 38L46 36ZM14 37L14 38L15 38L15 37ZM30 38L30 39L28 39L28 41L30 41L30 42L31 42L31 40L33 40L33 39L32 39L32 38ZM50 38L50 39L51 39L51 38ZM2 39L2 40L3 40L3 39ZM41 39L41 40L42 40L42 39ZM18 40L18 41L19 41L19 43L18 43L18 42L17 42L17 44L16 44L16 45L15 45L15 43L12 43L12 44L11 44L11 45L12 45L12 46L13 46L13 47L14 47L14 49L13 49L13 50L14 50L14 51L15 51L15 48L17 48L17 47L16 47L16 46L17 46L17 45L19 45L19 43L21 43L21 44L22 44L22 46L21 46L21 45L20 45L20 46L18 46L18 48L19 48L19 47L20 47L20 46L21 46L21 47L22 47L22 46L24 46L24 45L23 45L23 44L22 44L22 42L21 42L21 41L19 41L19 40ZM50 40L50 41L47 41L47 42L46 42L46 43L47 43L47 42L50 42L50 41L52 41L52 40ZM13 44L13 45L14 45L14 47L15 47L15 45L14 45L14 44ZM3 45L3 46L5 46L5 45ZM28 46L28 47L29 47L29 46ZM41 48L41 49L42 49L42 48ZM27 49L27 52L30 52L30 49ZM34 49L34 50L33 50L33 51L35 51L35 49ZM49 49L49 52L52 52L52 49ZM17 50L17 51L18 51L18 50ZM28 50L28 51L29 51L29 50ZM50 50L50 51L51 51L51 50ZM36 51L36 52L35 52L35 53L36 53L36 54L37 54L37 51ZM40 51L40 52L41 52L41 51ZM33 52L33 53L34 53L34 52ZM17 53L17 54L18 54L18 53ZM48 53L48 54L50 54L50 53ZM23 54L23 56L24 56L24 55L25 55L25 54ZM44 54L44 55L45 55L45 54ZM56 55L56 56L57 56L57 55ZM52 56L52 57L55 57L55 56ZM0 0L0 7L7 7L7 0ZM1 1L1 6L6 6L6 1ZM2 2L2 5L5 5L5 2ZM50 0L50 7L57 7L57 0ZM51 1L51 6L56 6L56 1ZM52 2L52 5L55 5L55 2ZM0 50L0 57L7 57L7 50ZM1 51L1 56L6 56L6 51ZM2 52L2 55L5 55L5 52Z" fill="#000000"/></g></g></svg>
