<?xml version="1.0" encoding="UTF-8"?>
<svg xmlns="http://www.w3.org/2000/svg" version="1.1" width="300" height="300" viewBox="0 0 300 300"><rect x="0" y="0" width="300" height="300" fill="#fefefe"/><g transform="scale(4.615)"><g transform="translate(4,4)"><path fill-rule="evenodd" d="M8 0L8 2L10 2L10 3L9 3L9 4L8 4L8 9L7 9L7 8L5 8L5 9L4 9L4 13L3 13L3 14L2 14L2 17L1 17L1 15L0 15L0 20L2 20L2 21L4 21L4 22L6 22L6 23L7 23L7 22L6 22L6 21L7 21L7 20L8 20L8 22L9 22L9 23L8 23L8 24L6 24L6 25L8 25L8 26L4 26L4 28L3 28L3 27L2 27L2 28L3 28L3 29L0 29L0 30L2 30L2 32L1 32L1 31L0 31L0 32L1 32L1 33L0 33L0 34L2 34L2 35L1 35L1 37L2 37L2 41L3 41L3 38L5 38L5 40L4 40L4 42L5 42L5 43L7 43L7 44L6 44L6 45L5 45L5 44L4 44L4 43L3 43L3 44L2 44L2 43L1 43L1 42L0 42L0 43L1 43L1 44L2 44L2 47L1 47L1 46L0 46L0 48L5 48L5 47L7 47L7 46L6 46L6 45L7 45L7 44L8 44L8 43L7 43L7 42L9 42L9 41L10 41L10 42L11 42L11 43L9 43L9 44L10 44L10 45L11 45L11 46L12 46L12 47L13 47L13 48L11 48L11 47L10 47L10 46L9 46L9 45L8 45L8 47L10 47L10 48L6 48L6 49L8 49L8 50L9 50L9 49L10 49L10 48L11 48L11 50L10 50L10 51L8 51L8 52L9 52L9 54L8 54L8 57L11 57L11 56L10 56L10 54L12 54L12 55L13 55L13 56L12 56L12 57L14 57L14 53L15 53L15 57L17 57L17 56L18 56L18 57L19 57L19 56L18 56L18 55L16 55L16 54L18 54L18 53L19 53L19 52L18 52L18 51L19 51L19 50L20 50L20 49L21 49L21 48L22 48L22 53L23 53L23 55L22 55L22 54L20 54L20 55L22 55L22 57L25 57L25 55L24 55L24 54L26 54L26 55L27 55L27 56L26 56L26 57L28 57L28 55L29 55L29 57L33 57L33 55L34 55L34 57L35 57L35 55L38 55L38 53L39 53L39 56L40 56L40 57L41 57L41 56L43 56L43 54L42 54L42 53L41 53L41 51L43 51L43 52L44 52L44 55L45 55L45 56L44 56L44 57L45 57L45 56L46 56L46 52L47 52L47 53L49 53L49 54L48 54L48 56L47 56L47 57L48 57L48 56L49 56L49 57L50 57L50 55L49 55L49 54L52 54L52 55L53 55L53 53L55 53L55 52L54 52L54 51L53 51L53 50L54 50L54 49L55 49L55 50L56 50L56 51L57 51L57 50L56 50L56 47L57 47L57 42L56 42L56 41L57 41L57 40L55 40L55 42L54 42L54 38L57 38L57 36L56 36L56 35L57 35L57 33L56 33L56 31L57 31L57 29L56 29L56 27L57 27L57 24L56 24L56 23L57 23L57 20L56 20L56 19L57 19L57 10L56 10L56 11L55 11L55 9L57 9L57 8L55 8L55 9L54 9L54 10L53 10L53 11L52 11L52 12L51 12L51 10L52 10L52 9L53 9L53 8L48 8L48 7L49 7L49 6L48 6L48 7L47 7L47 5L48 5L48 0L46 0L46 1L45 1L45 0L42 0L42 1L41 1L41 0L38 0L38 2L37 2L37 1L35 1L35 0L34 0L34 3L33 3L33 6L32 6L32 7L33 7L33 6L34 6L34 8L32 8L32 9L31 9L31 5L32 5L32 1L33 1L33 0L30 0L30 1L29 1L29 2L30 2L30 3L31 3L31 4L26 4L26 3L27 3L27 2L28 2L28 0L26 0L26 2L25 2L25 4L24 4L24 1L25 1L25 0L24 0L24 1L23 1L23 0L20 0L20 1L19 1L19 0L18 0L18 1L17 1L17 0L16 0L16 2L17 2L17 4L16 4L16 3L15 3L15 0L14 0L14 3L13 3L13 1L12 1L12 2L10 2L10 1L9 1L9 0ZM18 1L18 2L19 2L19 3L18 3L18 4L17 4L17 5L16 5L16 6L15 6L15 5L14 5L14 6L13 6L13 5L11 5L11 4L10 4L10 5L11 5L11 8L10 8L10 6L9 6L9 11L8 11L8 10L7 10L7 9L6 9L6 10L7 10L7 11L6 11L6 12L5 12L5 14L7 14L7 15L6 15L6 16L9 16L9 15L8 15L8 14L7 14L7 13L6 13L6 12L10 12L10 10L11 10L11 11L12 11L12 12L11 12L11 13L10 13L10 17L8 17L8 18L9 18L9 19L8 19L8 20L9 20L9 21L10 21L10 22L11 22L11 23L9 23L9 24L10 24L10 25L11 25L11 27L12 27L12 25L11 25L11 23L12 23L12 24L13 24L13 25L14 25L14 26L13 26L13 28L14 28L14 29L15 29L15 30L17 30L17 31L16 31L16 32L17 32L17 33L16 33L16 34L18 34L18 36L17 36L17 37L16 37L16 36L15 36L15 35L14 35L14 36L15 36L15 37L14 37L14 38L13 38L13 37L11 37L11 36L8 36L8 37L10 37L10 38L9 38L9 39L8 39L8 38L7 38L7 37L6 37L6 38L7 38L7 39L6 39L6 40L5 40L5 42L7 42L7 41L8 41L8 40L10 40L10 41L11 41L11 42L12 42L12 43L13 43L13 44L12 44L12 45L13 45L13 44L14 44L14 46L15 46L15 48L16 48L16 50L15 50L15 51L14 51L14 52L10 52L10 53L14 53L14 52L16 52L16 50L17 50L17 51L18 51L18 50L19 50L19 49L18 49L18 47L19 47L19 45L18 45L18 47L16 47L16 46L17 46L17 45L16 45L16 44L15 44L15 43L16 43L16 42L18 42L18 39L16 39L16 38L19 38L19 37L18 37L18 36L19 36L19 33L20 33L20 35L22 35L22 36L21 36L21 37L22 37L22 38L23 38L23 41L22 41L22 39L21 39L21 38L20 38L20 39L21 39L21 41L20 41L20 40L19 40L19 41L20 41L20 42L19 42L19 43L18 43L18 44L19 44L19 43L20 43L20 44L21 44L21 45L20 45L20 46L22 46L22 48L23 48L23 49L24 49L24 51L23 51L23 52L24 52L24 51L25 51L25 53L26 53L26 54L27 54L27 55L28 55L28 53L26 53L26 50L25 50L25 49L26 49L26 48L27 48L27 46L26 46L26 45L24 45L24 44L22 44L22 43L24 43L24 42L26 42L26 41L25 41L25 40L27 40L27 41L28 41L28 43L27 43L27 44L28 44L28 47L30 47L30 48L31 48L31 50L32 50L32 51L31 51L31 52L32 52L32 51L33 51L33 52L34 52L34 54L35 54L35 53L36 53L36 54L37 54L37 53L36 53L36 52L34 52L34 51L33 51L33 50L32 50L32 48L34 48L34 50L35 50L35 51L37 51L37 49L36 49L36 48L37 48L37 47L38 47L38 51L39 51L39 49L40 49L40 51L41 51L41 49L42 49L42 50L43 50L43 51L44 51L44 48L45 48L45 49L46 49L46 50L47 50L47 49L46 49L46 48L47 48L47 47L48 47L48 46L49 46L49 47L50 47L50 46L49 46L49 44L50 44L50 45L51 45L51 44L50 44L50 42L49 42L49 41L51 41L51 40L48 40L48 38L47 38L47 37L46 37L46 36L48 36L48 35L46 35L46 34L48 34L48 33L46 33L46 31L47 31L47 30L48 30L48 26L49 26L49 25L48 25L48 24L47 24L47 25L46 25L46 24L45 24L45 23L49 23L49 22L50 22L50 24L51 24L51 25L50 25L50 26L53 26L53 25L54 25L54 26L55 26L55 27L54 27L54 28L53 28L53 29L55 29L55 27L56 27L56 26L55 26L55 25L56 25L56 24L55 24L55 23L56 23L56 20L55 20L55 19L56 19L56 18L55 18L55 19L54 19L54 17L52 17L52 19L51 19L51 20L49 20L49 19L48 19L48 20L49 20L49 21L48 21L48 22L47 22L47 21L46 21L46 20L47 20L47 17L48 17L48 18L49 18L49 17L48 17L48 16L46 16L46 18L45 18L45 17L44 17L44 16L45 16L45 15L44 15L44 16L43 16L43 14L44 14L44 12L45 12L45 13L46 13L46 15L48 15L48 14L49 14L49 13L50 13L50 15L49 15L49 16L50 16L50 18L51 18L51 14L52 14L52 15L53 15L53 14L54 14L54 16L55 16L55 17L56 17L56 16L55 16L55 15L56 15L56 12L55 12L55 11L54 11L54 12L53 12L53 14L52 14L52 13L50 13L50 11L48 11L48 10L49 10L49 9L48 9L48 10L47 10L47 7L46 7L46 6L45 6L45 5L44 5L44 4L45 4L45 1L42 1L42 2L40 2L40 1L39 1L39 2L38 2L38 3L37 3L37 2L35 2L35 3L34 3L34 4L35 4L35 9L34 9L34 10L33 10L33 9L32 9L32 12L30 12L30 11L29 11L29 9L28 9L28 11L27 11L27 10L25 10L25 9L26 9L26 5L24 5L24 6L23 6L23 8L24 8L24 11L23 11L23 9L22 9L22 4L23 4L23 3L22 3L22 2L23 2L23 1L22 1L22 2L19 2L19 1ZM30 1L30 2L31 2L31 1ZM46 1L46 2L47 2L47 1ZM39 2L39 4L38 4L38 5L39 5L39 4L40 4L40 2ZM43 2L43 4L42 4L42 3L41 3L41 4L42 4L42 5L41 5L41 6L40 6L40 7L41 7L41 6L42 6L42 8L40 8L40 9L39 9L39 10L38 10L38 9L37 9L37 8L39 8L39 6L38 6L38 7L37 7L37 6L36 6L36 10L34 10L34 11L33 11L33 12L32 12L32 13L31 13L31 14L32 14L32 13L33 13L33 15L34 15L34 17L33 17L33 16L32 16L32 15L31 15L31 16L30 16L30 15L29 15L29 13L30 13L30 12L29 12L29 11L28 11L28 12L27 12L27 14L28 14L28 15L29 15L29 16L30 16L30 17L28 17L28 18L30 18L30 17L31 17L31 20L32 20L32 21L33 21L33 22L30 22L30 20L28 20L28 19L27 19L27 16L26 16L26 15L25 15L25 14L24 14L24 13L26 13L26 11L24 11L24 12L23 12L23 11L22 11L22 12L23 12L23 14L24 14L24 15L23 15L23 16L22 16L22 14L20 14L20 12L21 12L21 10L22 10L22 9L21 9L21 5L20 5L20 7L19 7L19 4L18 4L18 7L17 7L17 6L16 6L16 7L17 7L17 8L18 8L18 9L17 9L17 14L15 14L15 15L11 15L11 22L12 22L12 23L13 23L13 24L14 24L14 25L15 25L15 27L16 27L16 28L17 28L17 27L16 27L16 24L17 24L17 23L16 23L16 22L18 22L18 23L19 23L19 20L18 20L18 19L19 19L19 18L20 18L20 21L21 21L21 18L22 18L22 21L23 21L23 22L22 22L22 23L21 23L21 22L20 22L20 23L21 23L21 30L22 30L22 33L23 33L23 34L22 34L22 35L25 35L25 36L24 36L24 37L26 37L26 38L24 38L24 39L26 39L26 38L27 38L27 37L26 37L26 34L24 34L24 31L23 31L23 30L24 30L24 29L25 29L25 30L26 30L26 32L27 32L27 31L28 31L28 32L29 32L29 34L28 34L28 33L27 33L27 34L28 34L28 35L27 35L27 36L28 36L28 37L29 37L29 36L28 36L28 35L31 35L31 36L30 36L30 40L28 40L28 41L29 41L29 42L30 42L30 43L31 43L31 38L33 38L33 39L34 39L34 41L33 41L33 40L32 40L32 46L30 46L30 47L31 47L31 48L32 48L32 47L34 47L34 48L35 48L35 47L36 47L36 45L37 45L37 46L38 46L38 45L37 45L37 44L39 44L39 43L37 43L37 44L36 44L36 45L35 45L35 47L34 47L34 45L33 45L33 44L35 44L35 43L36 43L36 41L37 41L37 42L38 42L38 41L39 41L39 39L38 39L38 37L39 37L39 38L40 38L40 39L41 39L41 40L40 40L40 41L41 41L41 42L40 42L40 46L41 46L41 47L40 47L40 49L41 49L41 47L42 47L42 45L43 45L43 44L42 44L42 45L41 45L41 43L44 43L44 42L46 42L46 43L45 43L45 44L44 44L44 46L43 46L43 47L44 47L44 46L45 46L45 48L46 48L46 44L47 44L47 45L48 45L48 44L49 44L49 43L48 43L48 44L47 44L47 42L46 42L46 41L48 41L48 40L47 40L47 38L46 38L46 37L45 37L45 36L46 36L46 35L45 35L45 34L46 34L46 33L45 33L45 31L46 31L46 30L44 30L44 29L46 29L46 28L47 28L47 26L48 26L48 25L47 25L47 26L46 26L46 25L45 25L45 24L44 24L44 25L43 25L43 27L42 27L42 24L43 24L43 22L44 22L44 23L45 23L45 22L44 22L44 21L45 21L45 19L44 19L44 17L43 17L43 18L42 18L42 17L41 17L41 15L42 15L42 12L43 12L43 10L44 10L44 9L45 9L45 11L46 11L46 13L47 13L47 14L48 14L48 11L46 11L46 7L45 7L45 6L44 6L44 5L43 5L43 4L44 4L44 2ZM12 3L12 4L13 4L13 3ZM14 3L14 4L15 4L15 3ZM21 3L21 4L22 4L22 3ZM35 3L35 4L36 4L36 3ZM46 3L46 5L47 5L47 3ZM27 5L27 8L30 8L30 5ZM42 5L42 6L43 6L43 8L42 8L42 10L43 10L43 9L44 9L44 6L43 6L43 5ZM12 6L12 8L14 8L14 9L15 9L15 8L14 8L14 7L15 7L15 6L14 6L14 7L13 7L13 6ZM24 6L24 7L25 7L25 6ZM28 6L28 7L29 7L29 6ZM18 7L18 8L19 8L19 9L18 9L18 10L19 10L19 9L20 9L20 10L21 10L21 9L20 9L20 8L19 8L19 7ZM0 8L0 9L1 9L1 10L0 10L0 12L1 12L1 13L0 13L0 14L1 14L1 13L2 13L2 11L1 11L1 10L3 10L3 8ZM11 9L11 10L12 10L12 11L13 11L13 9ZM30 9L30 10L31 10L31 9ZM40 9L40 11L39 11L39 12L37 12L37 11L38 11L38 10L37 10L37 11L36 11L36 12L35 12L35 11L34 11L34 12L35 12L35 13L34 13L34 15L35 15L35 17L34 17L34 18L36 18L36 19L37 19L37 18L36 18L36 14L35 14L35 13L36 13L36 12L37 12L37 13L38 13L38 15L37 15L37 16L38 16L38 18L40 18L40 19L39 19L39 21L38 21L38 20L37 20L37 21L36 21L36 20L35 20L35 19L33 19L33 21L34 21L34 22L35 22L35 23L36 23L36 24L34 24L34 23L33 23L33 24L34 24L34 26L33 26L33 25L32 25L32 23L31 23L31 24L30 24L30 22L29 22L29 24L30 24L30 26L31 26L31 25L32 25L32 27L31 27L31 29L32 29L32 32L30 32L30 31L29 31L29 32L30 32L30 34L32 34L32 32L33 32L33 33L34 33L34 34L33 34L33 35L35 35L35 37L34 37L34 36L33 36L33 37L34 37L34 39L35 39L35 41L34 41L34 42L35 42L35 41L36 41L36 38L37 38L37 37L36 37L36 35L38 35L38 36L40 36L40 35L41 35L41 39L43 39L43 41L42 41L42 42L44 42L44 39L43 39L43 38L44 38L44 34L45 34L45 33L44 33L44 34L43 34L43 33L42 33L42 31L44 31L44 30L43 30L43 28L42 28L42 31L41 31L41 30L40 30L40 28L41 28L41 26L40 26L40 23L41 23L41 24L42 24L42 22L43 22L43 21L44 21L44 19L42 19L42 20L43 20L43 21L42 21L42 22L40 22L40 19L41 19L41 18L40 18L40 15L39 15L39 14L40 14L40 11L41 11L41 12L42 12L42 11L41 11L41 9ZM50 9L50 10L51 10L51 9ZM14 11L14 12L15 12L15 11ZM18 11L18 12L19 12L19 11ZM11 13L11 14L13 14L13 13ZM18 13L18 14L17 14L17 15L15 15L15 16L17 16L17 17L16 17L16 20L17 20L17 19L18 19L18 18L19 18L19 17L18 17L18 16L17 16L17 15L18 15L18 14L19 14L19 15L20 15L20 16L21 16L21 15L20 15L20 14L19 14L19 13ZM3 14L3 15L4 15L4 14ZM24 15L24 18L25 18L25 19L24 19L24 20L25 20L25 19L26 19L26 20L27 20L27 21L28 21L28 20L27 20L27 19L26 19L26 16L25 16L25 15ZM3 16L3 17L4 17L4 19L5 19L5 20L7 20L7 19L5 19L5 18L7 18L7 17L5 17L5 16ZM13 16L13 17L14 17L14 18L15 18L15 17L14 17L14 16ZM31 16L31 17L32 17L32 16ZM20 17L20 18L21 18L21 17ZM2 18L2 19L3 19L3 18ZM12 18L12 20L13 20L13 18ZM14 19L14 20L15 20L15 19ZM53 19L53 20L52 20L52 22L51 22L51 23L52 23L52 22L54 22L54 23L53 23L53 24L52 24L52 25L53 25L53 24L54 24L54 23L55 23L55 21L54 21L54 19ZM34 20L34 21L35 21L35 22L36 22L36 23L39 23L39 22L38 22L38 21L37 21L37 22L36 22L36 21L35 21L35 20ZM14 21L14 22L13 22L13 23L14 23L14 22L15 22L15 21ZM1 22L1 23L2 23L2 22ZM24 22L24 23L25 23L25 22ZM26 22L26 23L28 23L28 22ZM3 23L3 25L4 25L4 23ZM22 23L22 24L23 24L23 25L24 25L24 26L25 26L25 25L24 25L24 24L23 24L23 23ZM18 24L18 25L17 25L17 26L18 26L18 25L19 25L19 27L18 27L18 28L19 28L19 27L20 27L20 24ZM36 24L36 26L37 26L37 28L36 28L36 27L34 27L34 29L33 29L33 28L32 28L32 29L33 29L33 31L34 31L34 32L35 32L35 31L34 31L34 29L35 29L35 30L37 30L37 31L36 31L36 33L35 33L35 35L36 35L36 33L37 33L37 34L38 34L38 35L39 35L39 34L38 34L38 33L39 33L39 32L40 32L40 34L42 34L42 33L41 33L41 32L40 32L40 30L39 30L39 31L38 31L38 30L37 30L37 28L38 28L38 29L39 29L39 28L40 28L40 26L38 26L38 25L37 25L37 24ZM0 25L0 28L1 28L1 26L2 26L2 25ZM26 25L26 26L27 26L27 25ZM44 25L44 27L46 27L46 26L45 26L45 25ZM9 26L9 29L12 29L12 28L10 28L10 26ZM5 27L5 30L8 30L8 27ZM22 27L22 28L23 28L23 29L22 29L22 30L23 30L23 29L24 29L24 28L25 28L25 27L24 27L24 28L23 28L23 27ZM27 27L27 30L30 30L30 27ZM49 27L49 30L52 30L52 27ZM6 28L6 29L7 29L7 28ZM28 28L28 29L29 29L29 28ZM35 28L35 29L36 29L36 28ZM50 28L50 29L51 29L51 28ZM3 29L3 31L4 31L4 29ZM19 29L19 30L18 30L18 33L19 33L19 32L20 32L20 33L21 33L21 32L20 32L20 29ZM12 30L12 31L11 31L11 32L9 32L9 31L8 31L8 32L9 32L9 33L6 33L6 32L7 32L7 31L6 31L6 32L4 32L4 34L3 34L3 33L2 33L2 34L3 34L3 36L2 36L2 37L4 37L4 35L5 35L5 36L7 36L7 35L6 35L6 34L9 34L9 33L10 33L10 35L11 35L11 34L12 34L12 35L13 35L13 34L15 34L15 32L14 32L14 33L13 33L13 34L12 34L12 33L11 33L11 32L13 32L13 30ZM53 30L53 31L54 31L54 33L53 33L53 32L50 32L50 31L49 31L49 32L50 32L50 33L49 33L49 37L50 37L50 38L49 38L49 39L50 39L50 38L51 38L51 39L52 39L52 47L51 47L51 48L52 48L52 47L54 47L54 48L53 48L53 49L54 49L54 48L55 48L55 47L56 47L56 44L55 44L55 43L56 43L56 42L55 42L55 43L54 43L54 44L53 44L53 39L52 39L52 38L54 38L54 36L55 36L55 37L56 37L56 36L55 36L55 31L56 31L56 30L55 30L55 31L54 31L54 30ZM37 31L37 32L38 32L38 31ZM5 33L5 34L6 34L6 33ZM50 33L50 37L51 37L51 38L52 38L52 37L53 37L53 36L54 36L54 34L53 34L53 36L52 36L52 37L51 37L51 33ZM42 35L42 37L43 37L43 35ZM22 36L22 37L23 37L23 36ZM31 36L31 37L32 37L32 36ZM35 37L35 38L36 38L36 37ZM11 38L11 41L12 41L12 42L13 42L13 40L12 40L12 39L13 39L13 38ZM28 38L28 39L29 39L29 38ZM45 38L45 41L46 41L46 38ZM0 39L0 40L1 40L1 39ZM14 39L14 43L15 43L15 42L16 42L16 41L15 41L15 39ZM37 39L37 41L38 41L38 39ZM6 40L6 41L7 41L7 40ZM21 41L21 42L22 42L22 41ZM28 43L28 44L29 44L29 45L30 45L30 44L29 44L29 43ZM4 45L4 46L3 46L3 47L5 47L5 45ZM15 45L15 46L16 46L16 45ZM23 45L23 47L24 47L24 45ZM54 45L54 46L55 46L55 45ZM25 46L25 47L26 47L26 46ZM20 47L20 48L21 48L21 47ZM13 48L13 49L14 49L14 48ZM17 49L17 50L18 50L18 49ZM27 49L27 52L30 52L30 49ZM49 49L49 52L52 52L52 49ZM28 50L28 51L29 51L29 50ZM50 50L50 51L51 51L51 50ZM20 51L20 53L21 53L21 51ZM45 51L45 52L46 52L46 51ZM47 51L47 52L48 52L48 51ZM17 52L17 53L18 53L18 52ZM39 52L39 53L40 53L40 52ZM56 52L56 53L57 53L57 52ZM31 53L31 54L30 54L30 55L33 55L33 54L32 54L32 53ZM40 54L40 56L41 56L41 54ZM55 54L55 55L57 55L57 54ZM20 56L20 57L21 57L21 56ZM36 56L36 57L37 57L37 56ZM51 56L51 57L53 57L53 56ZM56 56L56 57L57 57L57 56ZM0 0L0 7L7 7L7 0ZM1 1L1 6L6 6L6 1ZM2 2L2 5L5 5L5 2ZM50 0L50 7L57 7L57 0ZM51 1L51 6L56 6L56 1ZM52 2L52 5L55 5L55 2ZM0 50L0 57L7 57L7 50ZM1 51L1 56L6 56L6 51ZM2 52L2 55L5 55L5 52Z" fill="#000000"/></g></g></svg>
