<?xml version="1.0" encoding="UTF-8"?>
<svg xmlns="http://www.w3.org/2000/svg" version="1.1" width="300" height="300" viewBox="0 0 300 300"><rect x="0" y="0" width="300" height="300" fill="#fefefe"/><g transform="scale(4.615)"><g transform="translate(4,4)"><path fill-rule="evenodd" d="M8 0L8 2L9 2L9 4L8 4L8 9L12 9L12 10L11 10L11 11L13 11L13 10L14 10L14 9L15 9L15 8L14 8L14 7L15 7L15 6L16 6L16 7L17 7L17 6L16 6L16 5L17 5L17 4L18 4L18 10L16 10L16 12L17 12L17 14L15 14L15 15L18 15L18 17L19 17L19 18L18 18L18 19L19 19L19 18L20 18L20 19L22 19L22 21L21 21L21 20L20 20L20 21L21 21L21 22L20 22L20 23L21 23L21 24L22 24L22 25L21 25L21 26L20 26L20 25L19 25L19 23L18 23L18 22L19 22L19 20L18 20L18 22L17 22L17 20L14 20L14 19L15 19L15 18L14 18L14 17L15 17L15 16L14 16L14 14L13 14L13 12L12 12L12 13L11 13L11 12L10 12L10 13L8 13L8 12L9 12L9 10L8 10L8 11L7 11L7 10L5 10L5 9L7 9L7 8L5 8L5 9L3 9L3 8L0 8L0 9L3 9L3 10L4 10L4 11L2 11L2 10L0 10L0 12L3 12L3 13L5 13L5 16L4 16L4 15L2 15L2 17L4 17L4 18L2 18L2 19L1 19L1 20L2 20L2 21L3 21L3 22L4 22L4 23L3 23L3 24L2 24L2 25L3 25L3 27L2 27L2 26L0 26L0 27L2 27L2 28L0 28L0 32L1 32L1 33L0 33L0 34L1 34L1 33L3 33L3 34L2 34L2 36L3 36L3 37L4 37L4 38L1 38L1 39L0 39L0 40L2 40L2 39L5 39L5 38L6 38L6 39L8 39L8 38L9 38L9 37L8 37L8 38L6 38L6 37L7 37L7 36L3 36L3 34L5 34L5 35L7 35L7 34L9 34L9 30L10 30L10 29L9 29L9 27L12 27L12 28L11 28L11 30L12 30L12 31L11 31L11 32L10 32L10 34L11 34L11 32L12 32L12 35L13 35L13 34L15 34L15 33L13 33L13 32L12 32L12 31L13 31L13 30L12 30L12 29L13 29L13 27L14 27L14 29L15 29L15 27L16 27L16 28L17 28L17 27L16 27L16 25L17 25L17 23L18 23L18 25L19 25L19 26L20 26L20 27L18 27L18 28L20 28L20 29L19 29L19 31L18 31L18 30L14 30L14 31L15 31L15 32L16 32L16 31L18 31L18 33L17 33L17 34L16 34L16 35L15 35L15 36L16 36L16 37L17 37L17 38L16 38L16 39L17 39L17 42L16 42L16 41L15 41L15 40L13 40L13 39L12 39L12 38L11 38L11 37L13 37L13 36L11 36L11 35L10 35L10 39L9 39L9 40L3 40L3 41L0 41L0 43L2 43L2 47L1 47L1 46L0 46L0 48L5 48L5 47L7 47L7 48L6 48L6 49L8 49L8 50L9 50L9 51L8 51L8 52L9 52L9 54L8 54L8 57L11 57L11 56L13 56L13 57L14 57L14 56L16 56L16 57L17 57L17 56L18 56L18 57L21 57L21 56L22 56L22 57L23 57L23 56L24 56L24 57L25 57L25 56L26 56L26 57L28 57L28 55L29 55L29 57L33 57L33 55L30 55L30 54L31 54L31 53L32 53L32 54L34 54L34 57L35 57L35 55L37 55L37 54L36 54L36 53L37 53L37 51L38 51L38 53L39 53L39 55L40 55L40 57L42 57L42 56L43 56L43 54L42 54L42 53L43 53L43 52L44 52L44 57L48 57L48 56L46 56L46 55L47 55L47 54L48 54L48 55L49 55L49 57L50 57L50 55L49 55L49 54L52 54L52 55L53 55L53 56L51 56L51 57L53 57L53 56L54 56L54 55L57 55L57 54L55 54L55 52L56 52L56 53L57 53L57 49L56 49L56 47L57 47L57 42L56 42L56 41L57 41L57 40L54 40L54 39L55 39L55 38L57 38L57 37L55 37L55 36L54 36L54 34L53 34L53 36L52 36L52 37L51 37L51 38L50 38L50 36L51 36L51 33L50 33L50 32L49 32L49 31L51 31L51 32L52 32L52 31L53 31L53 32L54 32L54 33L56 33L56 35L57 35L57 33L56 33L56 31L57 31L57 28L56 28L56 27L57 27L57 24L56 24L56 23L57 23L57 21L56 21L56 23L55 23L55 24L56 24L56 25L55 25L55 26L54 26L54 22L55 22L55 21L54 21L54 19L55 19L55 17L54 17L54 13L53 13L53 12L54 12L54 11L55 11L55 12L56 12L56 15L55 15L55 16L56 16L56 17L57 17L57 10L56 10L56 11L55 11L55 9L57 9L57 8L55 8L55 9L54 9L54 10L53 10L53 8L48 8L48 7L49 7L49 6L48 6L48 7L47 7L47 5L48 5L48 0L42 0L42 1L41 1L41 0L38 0L38 2L37 2L37 1L35 1L35 0L34 0L34 8L32 8L32 9L31 9L31 5L32 5L32 1L33 1L33 0L30 0L30 3L31 3L31 4L28 4L28 3L27 3L27 2L28 2L28 1L29 1L29 0L28 0L28 1L27 1L27 0L26 0L26 1L25 1L25 0L24 0L24 1L23 1L23 0L19 0L19 2L18 2L18 1L17 1L17 0L16 0L16 1L15 1L15 0L14 0L14 3L13 3L13 2L12 2L12 1L11 1L11 2L9 2L9 1L10 1L10 0ZM16 1L16 2L15 2L15 3L14 3L14 4L15 4L15 3L16 3L16 4L17 4L17 3L18 3L18 4L19 4L19 7L20 7L20 5L21 5L21 3L18 3L18 2L17 2L17 1ZM20 1L20 2L23 2L23 1ZM24 1L24 4L25 4L25 1ZM39 1L39 2L38 2L38 3L37 3L37 2L35 2L35 3L36 3L36 4L35 4L35 9L34 9L34 10L33 10L33 9L32 9L32 11L31 11L31 12L30 12L30 11L29 11L29 12L30 12L30 13L29 13L29 15L28 15L28 14L27 14L27 12L28 12L28 11L27 11L27 10L28 10L28 9L27 9L27 10L25 10L25 9L26 9L26 5L24 5L24 6L23 6L23 5L22 5L22 6L21 6L21 9L20 9L20 8L19 8L19 9L20 9L20 10L21 10L21 13L20 13L20 11L18 11L18 12L19 12L19 13L18 13L18 14L19 14L19 13L20 13L20 14L22 14L22 16L24 16L24 18L26 18L26 17L27 17L27 19L26 19L26 20L27 20L27 22L26 22L26 23L28 23L28 24L27 24L27 25L26 25L26 26L28 26L28 24L29 24L29 23L30 23L30 26L31 26L31 25L32 25L32 27L31 27L31 29L32 29L32 28L33 28L33 29L34 29L34 31L33 31L33 30L32 30L32 31L31 31L31 32L30 32L30 31L29 31L29 32L28 32L28 31L27 31L27 32L26 32L26 30L25 30L25 29L24 29L24 30L23 30L23 29L22 29L22 30L21 30L21 29L20 29L20 30L21 30L21 31L19 31L19 33L18 33L18 34L17 34L17 35L18 35L18 34L19 34L19 33L20 33L20 35L19 35L19 36L21 36L21 38L20 38L20 39L21 39L21 41L20 41L20 40L19 40L19 38L18 38L18 40L19 40L19 41L20 41L20 42L19 42L19 43L18 43L18 44L19 44L19 45L18 45L18 46L19 46L19 45L20 45L20 46L22 46L22 48L21 48L21 47L18 47L18 48L17 48L17 47L16 47L16 46L17 46L17 45L16 45L16 42L14 42L14 41L13 41L13 40L12 40L12 39L10 39L10 40L12 40L12 41L13 41L13 44L12 44L12 45L10 45L10 44L9 44L9 46L14 46L14 48L13 48L13 47L11 47L11 48L9 48L9 47L8 47L8 41L6 41L6 42L7 42L7 43L4 43L4 41L3 41L3 42L2 42L2 43L3 43L3 44L7 44L7 45L4 45L4 46L3 46L3 47L5 47L5 46L7 46L7 47L8 47L8 48L9 48L9 50L10 50L10 49L12 49L12 50L11 50L11 51L10 51L10 52L11 52L11 51L13 51L13 50L14 50L14 52L12 52L12 53L10 53L10 54L9 54L9 55L11 55L11 54L12 54L12 53L13 53L13 56L14 56L14 54L15 54L15 53L14 53L14 52L15 52L15 48L16 48L16 52L17 52L17 53L18 53L18 54L19 54L19 56L21 56L21 55L23 55L23 54L21 54L21 53L20 53L20 52L19 52L19 53L18 53L18 51L17 51L17 49L18 49L18 50L19 50L19 49L18 49L18 48L21 48L21 49L20 49L20 50L22 50L22 48L23 48L23 49L24 49L24 51L23 51L23 52L24 52L24 51L25 51L25 53L26 53L26 54L24 54L24 55L26 55L26 54L27 54L27 55L28 55L28 53L26 53L26 51L25 51L25 49L26 49L26 48L27 48L27 46L26 46L26 45L25 45L25 43L24 43L24 42L26 42L26 41L25 41L25 40L26 40L26 39L27 39L27 41L28 41L28 43L27 43L27 44L28 44L28 48L29 48L29 47L30 47L30 48L31 48L31 49L32 49L32 50L31 50L31 52L32 52L32 50L33 50L33 51L37 51L37 49L36 49L36 48L37 48L37 47L38 47L38 51L39 51L39 49L40 49L40 51L41 51L41 49L42 49L42 50L43 50L43 51L42 51L42 52L43 52L43 51L44 51L44 50L43 50L43 49L44 49L44 46L45 46L45 45L44 45L44 44L45 44L45 43L46 43L46 42L47 42L47 44L46 44L46 47L45 47L45 49L46 49L46 50L45 50L45 52L46 52L46 54L47 54L47 52L48 52L48 51L47 51L47 52L46 52L46 50L47 50L47 49L46 49L46 47L47 47L47 44L48 44L48 45L50 45L50 46L49 46L49 47L50 47L50 46L51 46L51 48L53 48L53 45L54 45L54 46L55 46L55 47L54 47L54 50L53 50L53 51L54 51L54 52L55 52L55 51L56 51L56 49L55 49L55 47L56 47L56 44L55 44L55 43L56 43L56 42L55 42L55 41L54 41L54 40L52 40L52 39L54 39L54 38L53 38L53 37L54 37L54 36L53 36L53 37L52 37L52 39L51 39L51 40L48 40L48 38L49 38L49 39L50 39L50 38L49 38L49 37L48 37L48 38L47 38L47 36L48 36L48 35L47 35L47 36L46 36L46 34L48 34L48 33L47 33L47 30L48 30L48 29L47 29L47 28L46 28L46 29L44 29L44 30L43 30L43 28L42 28L42 31L40 31L40 30L41 30L41 29L40 29L40 28L41 28L41 27L43 27L43 26L44 26L44 24L45 24L45 25L46 25L46 26L47 26L47 27L48 27L48 26L49 26L49 25L50 25L50 26L52 26L52 24L53 24L53 22L52 22L52 20L53 20L53 19L54 19L54 17L53 17L53 18L52 18L52 15L53 15L53 14L52 14L52 13L50 13L50 10L51 10L51 9L50 9L50 10L49 10L49 9L48 9L48 10L47 10L47 9L46 9L46 8L47 8L47 7L46 7L46 5L47 5L47 3L46 3L46 4L45 4L45 2L47 2L47 1L42 1L42 2L40 2L40 1ZM16 2L16 3L17 3L17 2ZM39 2L39 4L38 4L38 5L37 5L37 6L36 6L36 10L34 10L34 11L33 11L33 12L32 12L32 13L31 13L31 14L32 14L32 13L33 13L33 15L34 15L34 17L33 17L33 16L32 16L32 17L33 17L33 18L32 18L32 19L30 19L30 20L32 20L32 21L33 21L33 22L31 22L31 23L32 23L32 25L33 25L33 26L34 26L34 24L36 24L36 26L37 26L37 27L36 27L36 29L35 29L35 27L34 27L34 29L35 29L35 30L36 30L36 29L37 29L37 28L38 28L38 29L39 29L39 27L40 27L40 25L41 25L41 24L42 24L42 25L43 25L43 23L42 23L42 20L43 20L43 19L44 19L44 21L43 21L43 22L44 22L44 23L45 23L45 24L46 24L46 25L47 25L47 24L50 24L50 25L51 25L51 24L52 24L52 22L51 22L51 24L50 24L50 22L49 22L49 23L48 23L48 21L49 21L49 20L51 20L51 19L52 19L52 18L50 18L50 16L51 16L51 15L52 15L52 14L51 14L51 15L50 15L50 13L49 13L49 14L48 14L48 12L47 12L47 11L46 11L46 13L45 13L45 12L44 12L44 13L45 13L45 14L43 14L43 16L44 16L44 17L43 17L43 18L42 18L42 17L41 17L41 15L42 15L42 12L43 12L43 10L44 10L44 9L45 9L45 8L44 8L44 9L43 9L43 10L42 10L42 9L41 9L41 8L42 8L42 7L43 7L43 6L44 6L44 7L45 7L45 6L44 6L44 5L45 5L45 4L44 4L44 2L43 2L43 3L42 3L42 5L41 5L41 6L40 6L40 7L41 7L41 8L40 8L40 9L39 9L39 6L38 6L38 5L39 5L39 4L40 4L40 2ZM11 3L11 7L10 7L10 6L9 6L9 7L10 7L10 8L12 8L12 5L13 5L13 7L14 7L14 6L15 6L15 5L13 5L13 4L12 4L12 3ZM22 3L22 4L23 4L23 3ZM26 3L26 4L27 4L27 3ZM9 4L9 5L10 5L10 4ZM43 4L43 5L44 5L44 4ZM27 5L27 8L30 8L30 5ZM22 6L22 7L23 7L23 6ZM24 6L24 7L25 7L25 6ZM28 6L28 7L29 7L29 6ZM32 6L32 7L33 7L33 6ZM37 6L37 7L38 7L38 6ZM41 6L41 7L42 7L42 6ZM13 8L13 9L14 9L14 8ZM22 8L22 9L21 9L21 10L22 10L22 9L23 9L23 10L24 10L24 11L22 11L22 12L25 12L25 15L24 15L24 16L25 16L25 17L26 17L26 15L27 15L27 14L26 14L26 11L25 11L25 10L24 10L24 9L25 9L25 8L24 8L24 9L23 9L23 8ZM37 8L37 9L38 9L38 10L37 10L37 11L34 11L34 12L35 12L35 13L34 13L34 15L35 15L35 17L34 17L34 18L33 18L33 19L34 19L34 18L36 18L36 19L37 19L37 21L36 21L36 20L35 20L35 21L34 21L34 20L33 20L33 21L34 21L34 22L33 22L33 24L34 24L34 22L35 22L35 23L36 23L36 24L37 24L37 25L38 25L38 26L39 26L39 23L41 23L41 22L40 22L40 19L41 19L41 20L42 20L42 19L41 19L41 18L40 18L40 11L39 11L39 12L37 12L37 11L38 11L38 10L39 10L39 9L38 9L38 8ZM30 9L30 10L31 10L31 9ZM4 11L4 12L5 12L5 13L6 13L6 14L7 14L7 15L6 15L6 16L5 16L5 17L6 17L6 18L4 18L4 20L3 20L3 19L2 19L2 20L3 20L3 21L4 21L4 22L7 22L7 23L4 23L4 24L5 24L5 25L4 25L4 26L5 26L5 25L6 25L6 26L7 26L7 25L6 25L6 24L7 24L7 23L8 23L8 25L10 25L10 24L9 24L9 23L11 23L11 25L12 25L12 26L13 26L13 25L14 25L14 27L15 27L15 25L14 25L14 24L13 24L13 23L12 23L12 21L13 21L13 20L11 20L11 19L12 19L12 18L13 18L13 17L14 17L14 16L13 16L13 15L12 15L12 14L10 14L10 15L11 15L11 16L13 16L13 17L10 17L10 16L9 16L9 14L8 14L8 13L6 13L6 12L7 12L7 11ZM14 11L14 12L15 12L15 11ZM41 11L41 12L42 12L42 11ZM51 11L51 12L52 12L52 11ZM36 12L36 13L35 13L35 14L36 14L36 13L37 13L37 15L36 15L36 18L37 18L37 19L38 19L38 21L37 21L37 22L36 22L36 21L35 21L35 22L36 22L36 23L37 23L37 22L38 22L38 23L39 23L39 22L38 22L38 21L39 21L39 19L40 19L40 18L38 18L38 16L37 16L37 15L38 15L38 13L37 13L37 12ZM0 13L0 15L1 15L1 14L2 14L2 13ZM46 13L46 15L48 15L48 14L47 14L47 13ZM7 15L7 16L6 16L6 17L9 17L9 18L8 18L8 19L9 19L9 20L10 20L10 21L9 21L9 22L10 22L10 21L11 21L11 20L10 20L10 19L11 19L11 18L10 18L10 17L9 17L9 16L8 16L8 15ZM19 15L19 17L20 17L20 18L21 18L21 17L20 17L20 16L21 16L21 15ZM29 15L29 16L30 16L30 17L28 17L28 18L30 18L30 17L31 17L31 16L30 16L30 15ZM44 15L44 16L45 16L45 15ZM49 15L49 16L50 16L50 15ZM46 16L46 18L47 18L47 16ZM0 17L0 18L1 18L1 17ZM44 17L44 19L45 19L45 17ZM48 17L48 18L49 18L49 19L48 19L48 20L47 20L47 21L46 21L46 24L47 24L47 21L48 21L48 20L49 20L49 19L50 19L50 18L49 18L49 17ZM6 18L6 19L7 19L7 18ZM9 18L9 19L10 19L10 18ZM16 18L16 19L17 19L17 18ZM22 18L22 19L23 19L23 18ZM56 18L56 19L57 19L57 18ZM24 19L24 20L25 20L25 19ZM5 20L5 21L8 21L8 20ZM28 20L28 21L29 21L29 20ZM0 21L0 22L1 22L1 23L0 23L0 24L1 24L1 23L2 23L2 22L1 22L1 21ZM14 21L14 23L15 23L15 21ZM22 21L22 22L23 22L23 21ZM44 21L44 22L45 22L45 21ZM16 22L16 23L17 23L17 22ZM24 22L24 23L25 23L25 22ZM28 22L28 23L29 23L29 22ZM22 23L22 24L23 24L23 23ZM12 24L12 25L13 25L13 24ZM24 25L24 26L25 26L25 25ZM55 26L55 27L54 27L54 28L53 28L53 31L54 31L54 32L55 32L55 31L56 31L56 30L55 30L55 27L56 27L56 26ZM5 27L5 30L8 30L8 27ZM20 27L20 28L21 28L21 27ZM22 27L22 28L25 28L25 27ZM27 27L27 30L30 30L30 27ZM49 27L49 30L52 30L52 27ZM2 28L2 29L1 29L1 32L2 32L2 29L4 29L4 28ZM6 28L6 29L7 29L7 28ZM28 28L28 29L29 29L29 28ZM50 28L50 29L51 29L51 28ZM3 30L3 32L5 32L5 34L7 34L7 33L6 33L6 32L8 32L8 31L6 31L6 32L5 32L5 31L4 31L4 30ZM22 30L22 33L23 33L23 34L21 34L21 35L25 35L25 36L24 36L24 37L26 37L26 38L24 38L24 39L26 39L26 38L27 38L27 37L26 37L26 36L28 36L28 37L29 37L29 36L28 36L28 35L31 35L31 36L30 36L30 40L28 40L28 41L31 41L31 38L33 38L33 39L34 39L34 41L33 41L33 40L32 40L32 46L30 46L30 43L31 43L31 42L30 42L30 43L28 43L28 44L29 44L29 46L30 46L30 47L32 47L32 49L33 49L33 47L34 47L34 48L35 48L35 47L37 47L37 46L38 46L38 45L37 45L37 44L40 44L40 45L39 45L39 47L40 47L40 49L41 49L41 47L42 47L42 45L43 45L43 44L42 44L42 45L41 45L41 44L40 44L40 42L41 42L41 43L44 43L44 42L46 42L46 40L47 40L47 41L48 41L48 40L47 40L47 38L46 38L46 37L45 37L45 34L46 34L46 30L45 30L45 31L42 31L42 33L41 33L41 32L40 32L40 31L38 31L38 30L37 30L37 31L36 31L36 33L35 33L35 35L34 35L34 32L33 32L33 31L32 31L32 33L31 33L31 34L30 34L30 32L29 32L29 34L28 34L28 33L27 33L27 34L28 34L28 35L26 35L26 34L24 34L24 32L25 32L25 33L26 33L26 32L25 32L25 30L24 30L24 32L23 32L23 30ZM37 31L37 32L38 32L38 31ZM39 32L39 33L38 33L38 34L37 34L37 33L36 33L36 35L35 35L35 36L34 36L34 35L33 35L33 34L32 34L32 35L33 35L33 36L34 36L34 39L35 39L35 41L34 41L34 42L35 42L35 41L36 41L36 43L35 43L35 44L33 44L33 45L34 45L34 47L35 47L35 46L37 46L37 45L36 45L36 44L37 44L37 43L39 43L39 42L40 42L40 40L41 40L41 41L42 41L42 42L43 42L43 41L42 41L42 40L43 40L43 38L44 38L44 35L43 35L43 33L42 33L42 34L40 34L40 32ZM49 33L49 36L50 36L50 33ZM38 34L38 35L36 35L36 37L35 37L35 38L36 38L36 41L37 41L37 42L38 42L38 41L39 41L39 40L40 40L40 39L41 39L41 40L42 40L42 39L41 39L41 36L42 36L42 35L40 35L40 36L38 36L38 35L39 35L39 34ZM0 35L0 36L1 36L1 35ZM17 36L17 37L18 37L18 36ZM22 36L22 38L21 38L21 39L22 39L22 38L23 38L23 36ZM31 36L31 37L32 37L32 36ZM36 37L36 38L37 38L37 41L38 41L38 38L39 38L39 39L40 39L40 38L39 38L39 37L38 37L38 38L37 38L37 37ZM28 38L28 39L29 39L29 38ZM45 38L45 39L46 39L46 38ZM22 40L22 41L23 41L23 40ZM51 40L51 41L49 41L49 42L50 42L50 44L52 44L52 40ZM9 41L9 42L10 42L10 41ZM53 41L53 44L54 44L54 43L55 43L55 42L54 42L54 41ZM14 43L14 44L13 44L13 45L14 45L14 46L16 46L16 45L14 45L14 44L15 44L15 43ZM19 43L19 44L20 44L20 43ZM22 43L22 44L23 44L23 43ZM48 43L48 44L49 44L49 43ZM0 44L0 45L1 45L1 44ZM23 45L23 46L24 46L24 48L25 48L25 47L26 47L26 46L24 46L24 45ZM40 45L40 47L41 47L41 45ZM51 45L51 46L52 46L52 45ZM32 46L32 47L33 47L33 46ZM12 48L12 49L13 49L13 48ZM27 49L27 52L30 52L30 49ZM49 49L49 52L52 52L52 49ZM28 50L28 51L29 51L29 50ZM50 50L50 51L51 51L51 50ZM33 52L33 53L34 53L34 54L35 54L35 53L36 53L36 52L35 52L35 53L34 53L34 52ZM39 52L39 53L40 53L40 52ZM48 53L48 54L49 54L49 53ZM53 53L53 55L54 55L54 53ZM16 54L16 55L17 55L17 54ZM20 54L20 55L21 55L21 54ZM40 54L40 55L42 55L42 54ZM36 56L36 57L37 57L37 56ZM56 56L56 57L57 57L57 56ZM0 0L0 7L7 7L7 0ZM1 1L1 6L6 6L6 1ZM2 2L2 5L5 5L5 2ZM50 0L50 7L57 7L57 0ZM51 1L51 6L56 6L56 1ZM52 2L52 5L55 5L55 2ZM0 50L0 57L7 57L7 50ZM1 51L1 56L6 56L6 51ZM2 52L2 55L5 55L5 52Z" fill="#000000"/></g></g></svg>
