<?xml version="1.0" encoding="UTF-8"?>
<svg xmlns="http://www.w3.org/2000/svg" version="1.1" width="300" height="300" viewBox="0 0 300 300"><rect x="0" y="0" width="300" height="300" fill="#fefefe"/><g transform="scale(4.615)"><g transform="translate(4,4)"><path fill-rule="evenodd" d="M8 0L8 2L10 2L10 3L9 3L9 4L8 4L8 9L7 9L7 8L5 8L5 10L6 10L6 11L7 11L7 12L6 12L6 13L4 13L4 12L5 12L5 11L4 11L4 9L3 9L3 8L0 8L0 11L1 11L1 10L2 10L2 11L4 11L4 12L0 12L0 13L2 13L2 16L0 16L0 17L2 17L2 16L3 16L3 18L1 18L1 19L0 19L0 26L1 26L1 27L2 27L2 29L3 29L3 28L4 28L4 33L3 33L3 34L6 34L6 35L5 35L5 36L3 36L3 35L1 35L1 36L2 36L2 39L3 39L3 41L4 41L4 42L5 42L5 43L4 43L4 44L5 44L5 45L8 45L8 48L6 48L6 49L8 49L8 50L9 50L9 49L8 49L8 48L9 48L9 47L11 47L11 48L10 48L10 49L11 49L11 51L8 51L8 52L9 52L9 53L10 53L10 52L11 52L11 51L12 51L12 52L13 52L13 54L8 54L8 57L9 57L9 56L13 56L13 55L14 55L14 56L15 56L15 57L17 57L17 55L18 55L18 53L19 53L19 52L18 52L18 53L17 53L17 51L20 51L20 53L21 53L21 52L22 52L22 54L23 54L23 55L22 55L22 57L23 57L23 56L24 56L24 57L25 57L25 55L24 55L24 54L25 54L25 51L26 51L26 53L28 53L28 55L27 55L27 54L26 54L26 55L27 55L27 56L26 56L26 57L28 57L28 55L29 55L29 57L33 57L33 55L30 55L30 54L31 54L31 53L32 53L32 54L34 54L34 57L35 57L35 55L37 55L37 54L36 54L36 53L37 53L37 51L38 51L38 53L39 53L39 57L42 57L42 56L44 56L44 57L47 57L47 56L46 56L46 55L45 55L45 54L46 54L46 53L47 53L47 54L48 54L48 55L49 55L49 57L50 57L50 55L49 55L49 54L52 54L52 55L53 55L53 56L51 56L51 57L53 57L53 56L54 56L54 55L57 55L57 54L54 54L54 55L53 55L53 53L55 53L55 52L54 52L54 51L53 51L53 50L54 50L54 49L56 49L56 47L57 47L57 45L56 45L56 44L57 44L57 42L56 42L56 44L55 44L55 45L54 45L54 46L53 46L53 48L52 48L52 46L51 46L51 45L50 45L50 44L52 44L52 40L54 40L54 41L53 41L53 44L54 44L54 43L55 43L55 42L54 42L54 41L57 41L57 40L54 40L54 39L55 39L55 38L57 38L57 36L56 36L56 35L57 35L57 34L56 34L56 31L57 31L57 29L56 29L56 27L57 27L57 24L56 24L56 23L57 23L57 20L56 20L56 19L57 19L57 13L56 13L56 12L55 12L55 13L56 13L56 15L55 15L55 16L54 16L54 15L52 15L52 14L54 14L54 13L53 13L53 12L54 12L54 11L55 11L55 9L57 9L57 8L55 8L55 9L54 9L54 10L52 10L52 9L53 9L53 8L49 8L49 9L51 9L51 11L50 11L50 13L49 13L49 14L48 14L48 12L47 12L47 11L49 11L49 10L48 10L48 9L47 9L47 11L46 11L46 13L45 13L45 12L44 12L44 11L42 11L42 8L44 8L44 10L45 10L45 8L46 8L46 7L47 7L47 8L48 8L48 7L49 7L49 6L48 6L48 7L47 7L47 5L48 5L48 0L42 0L42 1L41 1L41 0L38 0L38 2L39 2L39 4L38 4L38 3L37 3L37 4L38 4L38 5L37 5L37 6L36 6L36 10L34 10L34 9L35 9L35 4L36 4L36 3L35 3L35 2L37 2L37 1L35 1L35 0L34 0L34 3L33 3L33 6L32 6L32 7L33 7L33 6L34 6L34 8L32 8L32 9L31 9L31 5L32 5L32 2L33 2L33 1L32 1L32 0L30 0L30 3L31 3L31 4L26 4L26 3L27 3L27 2L29 2L29 0L28 0L28 1L27 1L27 0L26 0L26 1L25 1L25 0L24 0L24 1L23 1L23 0L19 0L19 1L20 1L20 2L21 2L21 5L20 5L20 7L19 7L19 5L17 5L17 4L18 4L18 3L19 3L19 2L18 2L18 3L17 3L17 4L16 4L16 1L17 1L17 0L16 0L16 1L15 1L15 0L14 0L14 3L13 3L13 1L12 1L12 0L10 0L10 1L9 1L9 0ZM11 1L11 2L12 2L12 1ZM24 1L24 4L25 4L25 1ZM31 1L31 2L32 2L32 1ZM39 1L39 2L40 2L40 4L39 4L39 5L38 5L38 6L37 6L37 7L38 7L38 6L39 6L39 8L37 8L37 9L38 9L38 10L39 10L39 9L40 9L40 10L41 10L41 9L40 9L40 8L42 8L42 4L43 4L43 5L44 5L44 6L43 6L43 7L44 7L44 6L45 6L45 7L46 7L46 6L45 6L45 5L44 5L44 4L45 4L45 2L47 2L47 1L42 1L42 4L41 4L41 2L40 2L40 1ZM22 2L22 4L23 4L23 2ZM43 2L43 4L44 4L44 2ZM11 3L11 4L10 4L10 6L9 6L9 8L10 8L10 9L9 9L9 10L8 10L8 13L6 13L6 14L5 14L5 15L4 15L4 17L6 17L6 18L5 18L5 20L4 20L4 18L3 18L3 19L2 19L2 20L1 20L1 21L2 21L2 23L4 23L4 24L3 24L3 25L6 25L6 26L7 26L7 25L6 25L6 24L8 24L8 26L9 26L9 24L11 24L11 27L9 27L9 29L11 29L11 30L9 30L9 31L6 31L6 32L5 32L5 33L6 33L6 34L7 34L7 33L6 33L6 32L8 32L8 34L10 34L10 35L8 35L8 36L7 36L7 35L6 35L6 36L7 36L7 37L6 37L6 38L7 38L7 39L5 39L5 38L4 38L4 37L3 37L3 39L4 39L4 41L6 41L6 42L7 42L7 43L6 43L6 44L9 44L9 45L10 45L10 44L11 44L11 43L13 43L13 44L14 44L14 43L15 43L15 42L14 42L14 41L16 41L16 43L17 43L17 41L18 41L18 40L19 40L19 41L20 41L20 42L19 42L19 43L18 43L18 44L19 44L19 43L20 43L20 44L21 44L21 45L20 45L20 46L19 46L19 45L18 45L18 46L17 46L17 45L16 45L16 44L15 44L15 45L14 45L14 46L13 46L13 45L12 45L12 46L11 46L11 47L12 47L12 48L11 48L11 49L12 49L12 48L14 48L14 49L15 49L15 48L14 48L14 46L15 46L15 47L16 47L16 48L17 48L17 49L16 49L16 50L13 50L13 52L14 52L14 53L15 53L15 52L14 52L14 51L16 51L16 50L19 50L19 49L18 49L18 46L19 46L19 47L20 47L20 46L22 46L22 48L21 48L21 49L20 49L20 51L21 51L21 50L22 50L22 48L23 48L23 49L24 49L24 51L23 51L23 52L24 52L24 51L25 51L25 49L26 49L26 48L27 48L27 46L29 46L29 47L28 47L28 48L31 48L31 49L32 49L32 51L31 51L31 52L32 52L32 51L34 51L34 52L33 52L33 53L34 53L34 54L35 54L35 53L36 53L36 52L35 52L35 51L37 51L37 49L36 49L36 48L37 48L37 47L38 47L38 51L39 51L39 49L40 49L40 51L41 51L41 53L42 53L42 54L43 54L43 55L44 55L44 56L45 56L45 55L44 55L44 52L43 52L43 51L45 51L45 49L46 49L46 51L47 51L47 52L48 52L48 51L47 51L47 49L46 49L46 48L47 48L47 47L48 47L48 46L47 46L47 44L48 44L48 45L49 45L49 48L51 48L51 47L50 47L50 45L49 45L49 44L50 44L50 42L49 42L49 41L51 41L51 40L52 40L52 39L53 39L53 37L54 37L54 38L55 38L55 37L56 37L56 36L55 36L55 35L56 35L56 34L55 34L55 31L56 31L56 30L55 30L55 27L56 27L56 26L55 26L55 25L56 25L56 24L55 24L55 23L56 23L56 20L55 20L55 19L56 19L56 18L55 18L55 19L54 19L54 16L53 16L53 18L52 18L52 15L51 15L51 14L52 14L52 13L50 13L50 15L51 15L51 17L50 17L50 16L48 16L48 18L49 18L49 19L48 19L48 20L46 20L46 19L47 19L47 17L46 17L46 18L45 18L45 17L44 17L44 16L47 16L47 15L48 15L48 14L47 14L47 13L46 13L46 15L45 15L45 13L44 13L44 12L42 12L42 11L41 11L41 12L42 12L42 15L41 15L41 17L42 17L42 18L43 18L43 17L44 17L44 19L43 19L43 20L42 20L42 19L41 19L41 18L40 18L40 14L41 14L41 13L40 13L40 11L39 11L39 12L37 12L37 13L36 13L36 11L34 11L34 10L33 10L33 9L32 9L32 12L30 12L30 11L29 11L29 10L28 10L28 11L27 11L27 10L25 10L25 9L26 9L26 5L24 5L24 6L23 6L23 9L22 9L22 5L21 5L21 9L20 9L20 10L19 10L19 9L18 9L18 8L17 8L17 7L18 7L18 6L17 6L17 5L16 5L16 6L15 6L15 7L14 7L14 5L12 5L12 4L13 4L13 3ZM14 3L14 4L15 4L15 3ZM46 3L46 5L47 5L47 3ZM11 5L11 6L10 6L10 8L11 8L11 9L10 9L10 11L9 11L9 13L8 13L8 15L7 15L7 14L6 14L6 15L7 15L7 16L6 16L6 17L8 17L8 19L7 19L7 18L6 18L6 19L7 19L7 20L5 20L5 22L4 22L4 20L2 20L2 21L3 21L3 22L4 22L4 23L7 23L7 22L6 22L6 21L7 21L7 20L8 20L8 19L11 19L11 18L9 18L9 17L10 17L10 16L11 16L11 17L12 17L12 19L13 19L13 22L11 22L11 20L9 20L9 21L8 21L8 22L10 22L10 23L13 23L13 24L15 24L15 25L14 25L14 26L15 26L15 27L14 27L14 28L12 28L12 27L13 27L13 25L12 25L12 27L11 27L11 29L13 29L13 30L11 30L11 31L9 31L9 32L11 32L11 33L10 33L10 34L12 34L12 36L11 36L11 35L10 35L10 36L8 36L8 37L9 37L9 38L8 38L8 39L9 39L9 38L11 38L11 39L12 39L12 40L10 40L10 41L9 41L9 42L8 42L8 40L6 40L6 41L7 41L7 42L8 42L8 43L9 43L9 42L10 42L10 43L11 43L11 42L13 42L13 41L12 41L12 40L15 40L15 39L14 39L14 38L15 38L15 37L14 37L14 36L13 36L13 35L14 35L14 34L15 34L15 36L16 36L16 37L17 37L17 38L16 38L16 39L17 39L17 40L18 40L18 39L19 39L19 40L20 40L20 41L21 41L21 40L22 40L22 41L23 41L23 40L22 40L22 39L23 39L23 38L22 38L22 37L23 37L23 35L25 35L25 36L24 36L24 37L25 37L25 36L26 36L26 35L25 35L25 34L24 34L24 32L23 32L23 31L24 31L24 29L25 29L25 30L26 30L26 33L27 33L27 34L28 34L28 35L27 35L27 36L28 36L28 37L29 37L29 36L28 36L28 35L31 35L31 36L30 36L30 40L25 40L25 41L26 41L26 42L24 42L24 44L25 44L25 45L26 45L26 46L24 46L24 45L23 45L23 46L24 46L24 47L23 47L23 48L24 48L24 47L25 47L25 48L26 48L26 46L27 46L27 44L29 44L29 45L30 45L30 47L32 47L32 49L35 49L35 48L33 48L33 47L34 47L34 45L33 45L33 44L35 44L35 43L36 43L36 41L37 41L37 42L38 42L38 41L39 41L39 38L40 38L40 39L41 39L41 35L40 35L40 36L38 36L38 35L39 35L39 34L38 34L38 33L39 33L39 32L40 32L40 34L42 34L42 33L43 33L43 35L44 35L44 38L43 38L43 39L42 39L42 40L40 40L40 42L39 42L39 43L37 43L37 44L36 44L36 46L35 46L35 47L37 47L37 46L38 46L38 45L37 45L37 44L39 44L39 43L40 43L40 46L41 46L41 47L40 47L40 49L41 49L41 51L43 51L43 50L44 50L44 49L45 49L45 48L46 48L46 44L47 44L47 42L46 42L46 41L48 41L48 40L49 40L49 39L48 39L48 40L47 40L47 38L48 38L48 37L50 37L50 40L51 40L51 39L52 39L52 37L53 37L53 36L54 36L54 37L55 37L55 36L54 36L54 34L53 34L53 36L52 36L52 37L51 37L51 33L50 33L50 32L49 32L49 31L51 31L51 32L52 32L52 31L53 31L53 33L54 33L54 31L53 31L53 30L54 30L54 29L53 29L53 28L54 28L54 27L55 27L55 26L54 26L54 25L55 25L55 24L54 24L54 23L55 23L55 21L54 21L54 19L53 19L53 20L52 20L52 22L51 22L51 23L52 23L52 25L51 25L51 24L50 24L50 25L49 25L49 26L46 26L46 25L47 25L47 24L46 24L46 20L45 20L45 19L44 19L44 21L43 21L43 22L42 22L42 20L41 20L41 19L40 19L40 18L38 18L38 16L37 16L37 15L38 15L38 13L37 13L37 14L36 14L36 18L34 18L34 17L35 17L35 15L34 15L34 13L35 13L35 12L34 12L34 11L33 11L33 12L32 12L32 13L31 13L31 14L33 14L33 15L31 15L31 16L30 16L30 15L29 15L29 13L30 13L30 12L29 12L29 11L28 11L28 12L27 12L27 14L28 14L28 15L29 15L29 16L30 16L30 17L28 17L28 18L30 18L30 17L31 17L31 16L32 16L32 17L33 17L33 18L32 18L32 19L29 19L29 20L28 20L28 21L31 21L31 20L32 20L32 21L33 21L33 22L31 22L31 23L29 23L29 22L28 22L28 25L27 25L27 23L26 23L26 22L27 22L27 20L26 20L26 19L25 19L25 18L26 18L26 17L27 17L27 16L26 16L26 14L24 14L24 12L25 12L25 13L26 13L26 11L25 11L25 10L24 10L24 9L23 9L23 10L24 10L24 11L22 11L22 12L23 12L23 16L22 16L22 14L21 14L21 15L20 15L20 16L19 16L19 14L20 14L20 12L21 12L21 11L20 11L20 12L18 12L18 11L19 11L19 10L16 10L16 9L15 9L15 8L14 8L14 7L13 7L13 6L12 6L12 5ZM27 5L27 8L30 8L30 5ZM11 6L11 8L12 8L12 6ZM16 6L16 7L17 7L17 6ZM24 6L24 7L25 7L25 6ZM28 6L28 7L29 7L29 6ZM40 6L40 7L41 7L41 6ZM13 8L13 9L11 9L11 11L12 11L12 12L13 12L13 13L11 13L11 14L12 14L12 17L13 17L13 18L14 18L14 15L15 15L15 17L16 17L16 18L17 18L17 17L18 17L18 15L15 15L15 14L17 14L17 12L14 12L14 11L16 11L16 10L15 10L15 9L14 9L14 8ZM2 9L2 10L3 10L3 9ZM6 9L6 10L7 10L7 9ZM13 9L13 10L12 10L12 11L13 11L13 10L14 10L14 9ZM30 9L30 10L31 10L31 9ZM56 10L56 11L57 11L57 10ZM51 11L51 12L52 12L52 11ZM3 13L3 14L4 14L4 13ZM18 13L18 14L19 14L19 13ZM43 13L43 16L44 16L44 13ZM0 14L0 15L1 15L1 14ZM13 14L13 15L14 15L14 14ZM8 15L8 17L9 17L9 15ZM24 15L24 18L25 18L25 17L26 17L26 16L25 16L25 15ZM33 15L33 17L34 17L34 15ZM55 16L55 17L56 17L56 16ZM20 17L20 18L21 18L21 19L20 19L20 20L19 20L19 23L18 23L18 19L19 19L19 18L18 18L18 19L17 19L17 22L16 22L16 23L17 23L17 25L16 25L16 27L15 27L15 29L14 29L14 30L19 30L19 28L18 28L18 27L19 27L19 25L18 25L18 24L20 24L20 31L21 31L21 32L19 32L19 31L16 31L16 34L17 34L17 35L16 35L16 36L17 36L17 35L18 35L18 34L19 34L19 35L20 35L20 34L22 34L22 35L21 35L21 37L22 37L22 35L23 35L23 33L22 33L22 30L23 30L23 29L24 29L24 28L25 28L25 27L24 27L24 26L25 26L25 25L24 25L24 26L23 26L23 27L22 27L22 28L23 28L23 29L22 29L22 30L21 30L21 23L20 23L20 22L22 22L22 24L23 24L23 22L22 22L22 19L23 19L23 18L21 18L21 17ZM49 17L49 18L50 18L50 19L49 19L49 20L48 20L48 21L47 21L47 22L48 22L48 24L49 24L49 23L50 23L50 22L48 22L48 21L49 21L49 20L51 20L51 19L52 19L52 18L50 18L50 17ZM36 18L36 19L37 19L37 21L36 21L36 20L35 20L35 19L34 19L34 20L33 20L33 21L34 21L34 22L35 22L35 23L36 23L36 24L34 24L34 23L33 23L33 24L34 24L34 26L33 26L33 25L32 25L32 23L31 23L31 25L30 25L30 24L29 24L29 26L31 26L31 25L32 25L32 27L31 27L31 30L32 30L32 32L30 32L30 34L32 34L32 35L35 35L35 36L34 36L34 38L31 38L31 41L30 41L30 42L29 42L29 41L28 41L28 42L27 42L27 43L30 43L30 44L31 44L31 45L32 45L32 47L33 47L33 45L32 45L32 44L31 44L31 43L32 43L32 40L33 40L33 41L34 41L34 42L35 42L35 41L36 41L36 38L37 38L37 41L38 41L38 38L39 38L39 37L38 37L38 38L37 38L37 37L36 37L36 35L38 35L38 34L37 34L37 33L36 33L36 31L37 31L37 32L38 32L38 31L39 31L39 30L40 30L40 32L41 32L41 33L42 33L42 31L44 31L44 26L45 26L45 25L46 25L46 24L45 24L45 23L44 23L44 22L45 22L45 21L44 21L44 22L43 22L43 25L42 25L42 27L43 27L43 28L42 28L42 31L41 31L41 30L40 30L40 26L41 26L41 25L40 25L40 26L39 26L39 23L42 23L42 22L40 22L40 19L39 19L39 21L38 21L38 19L37 19L37 18ZM14 19L14 20L15 20L15 19ZM24 19L24 20L25 20L25 19ZM20 20L20 21L21 21L21 20ZM34 20L34 21L35 21L35 22L36 22L36 23L37 23L37 22L38 22L38 23L39 23L39 22L38 22L38 21L37 21L37 22L36 22L36 21L35 21L35 20ZM14 21L14 22L15 22L15 21ZM24 22L24 23L25 23L25 22ZM52 22L52 23L54 23L54 22ZM1 24L1 26L2 26L2 27L4 27L4 26L2 26L2 24ZM36 24L36 26L37 26L37 28L36 28L36 27L34 27L34 29L33 29L33 28L32 28L32 29L33 29L33 31L34 31L34 32L35 32L35 31L34 31L34 29L35 29L35 30L37 30L37 31L38 31L38 30L37 30L37 28L38 28L38 29L39 29L39 26L38 26L38 25L37 25L37 24ZM44 24L44 25L43 25L43 26L44 26L44 25L45 25L45 24ZM17 25L17 26L18 26L18 25ZM26 25L26 26L27 26L27 25ZM50 25L50 26L51 26L51 25ZM52 25L52 26L53 26L53 25ZM5 27L5 30L8 30L8 27ZM16 27L16 28L17 28L17 27ZM27 27L27 30L30 30L30 27ZM49 27L49 30L52 30L52 27ZM6 28L6 29L7 29L7 28ZM28 28L28 29L29 29L29 28ZM35 28L35 29L36 29L36 28ZM46 28L46 29L45 29L45 30L46 30L46 31L45 31L45 33L46 33L46 34L45 34L45 35L46 35L46 34L48 34L48 35L47 35L47 36L48 36L48 35L49 35L49 36L50 36L50 33L49 33L49 34L48 34L48 33L46 33L46 31L47 31L47 29L48 29L48 28ZM50 28L50 29L51 29L51 28ZM0 29L0 30L1 30L1 29ZM2 30L2 32L1 32L1 31L0 31L0 34L2 34L2 32L3 32L3 30ZM11 31L11 32L12 32L12 31ZM13 31L13 34L14 34L14 33L15 33L15 32L14 32L14 31ZM27 31L27 33L28 33L28 34L29 34L29 31ZM18 32L18 33L17 33L17 34L18 34L18 33L19 33L19 32ZM32 32L32 34L33 34L33 32ZM35 33L35 35L36 35L36 33ZM31 36L31 37L32 37L32 36ZM42 36L42 37L43 37L43 36ZM45 36L45 37L46 37L46 38L47 38L47 37L46 37L46 36ZM0 37L0 38L1 38L1 37ZM11 37L11 38L12 38L12 39L13 39L13 38L14 38L14 37L13 37L13 38L12 38L12 37ZM35 37L35 38L34 38L34 41L35 41L35 38L36 38L36 37ZM20 38L20 39L22 39L22 38ZM24 38L24 39L26 39L26 38ZM28 38L28 39L29 39L29 38ZM1 40L1 42L2 42L2 43L0 43L0 44L2 44L2 43L3 43L3 42L2 42L2 40ZM45 40L45 41L44 41L44 42L43 42L43 41L42 41L42 42L43 42L43 43L41 43L41 45L42 45L42 47L41 47L41 49L42 49L42 50L43 50L43 49L44 49L44 47L45 47L45 46L44 46L44 44L45 44L45 43L44 43L44 42L45 42L45 41L46 41L46 40ZM10 41L10 42L11 42L11 41ZM30 42L30 43L31 43L31 42ZM48 42L48 44L49 44L49 42ZM22 43L22 44L23 44L23 43ZM43 43L43 44L42 44L42 45L43 45L43 44L44 44L44 43ZM1 45L1 46L0 46L0 48L5 48L5 47L7 47L7 46L5 46L5 47L3 47L3 46L2 46L2 45ZM15 45L15 46L16 46L16 47L17 47L17 46L16 46L16 45ZM55 45L55 46L54 46L54 48L53 48L53 49L54 49L54 48L55 48L55 47L56 47L56 45ZM1 46L1 47L2 47L2 46ZM43 46L43 47L44 47L44 46ZM27 49L27 52L30 52L30 49ZM49 49L49 52L52 52L52 49ZM28 50L28 51L29 51L29 50ZM50 50L50 51L51 51L51 50ZM56 50L56 51L57 51L57 50ZM39 52L39 53L40 53L40 52ZM45 52L45 53L46 53L46 52ZM56 52L56 53L57 53L57 52ZM48 53L48 54L49 54L49 53ZM16 54L16 55L17 55L17 54ZM20 54L20 55L21 55L21 54ZM40 54L40 55L41 55L41 54ZM18 56L18 57L19 57L19 56ZM20 56L20 57L21 57L21 56ZM36 56L36 57L37 57L37 56ZM56 56L56 57L57 57L57 56ZM0 0L0 7L7 7L7 0ZM1 1L1 6L6 6L6 1ZM2 2L2 5L5 5L5 2ZM50 0L50 7L57 7L57 0ZM51 1L51 6L56 6L56 1ZM52 2L52 5L55 5L55 2ZM0 50L0 57L7 57L7 50ZM1 51L1 56L6 56L6 51ZM2 52L2 55L5 55L5 52Z" fill="#000000"/></g></g></svg>
