<?xml version="1.0" encoding="UTF-8"?>
<svg xmlns="http://www.w3.org/2000/svg" version="1.1" width="300" height="300" viewBox="0 0 300 300"><rect x="0" y="0" width="300" height="300" fill="#fefefe"/><g transform="scale(4.615)"><g transform="translate(4,4)"><path fill-rule="evenodd" d="M8 0L8 2L9 2L9 1L12 1L12 0ZM13 0L13 1L14 1L14 3L13 3L13 2L10 2L10 3L9 3L9 4L8 4L8 9L7 9L7 8L5 8L5 9L7 9L7 10L5 10L5 11L4 11L4 10L2 10L2 11L1 11L1 10L0 10L0 11L1 11L1 12L0 12L0 15L1 15L1 14L2 14L2 16L1 16L1 21L0 21L0 23L1 23L1 25L2 25L2 27L1 27L1 28L0 28L0 34L1 34L1 31L2 31L2 32L3 32L3 33L2 33L2 35L1 35L1 36L0 36L0 38L1 38L1 36L2 36L2 38L5 38L5 39L3 39L3 40L4 40L4 41L2 41L2 47L1 47L1 46L0 46L0 48L5 48L5 47L7 47L7 48L6 48L6 49L8 49L8 50L9 50L9 51L8 51L8 52L9 52L9 54L8 54L8 57L9 57L9 56L10 56L10 55L9 55L9 54L11 54L11 55L12 55L12 56L11 56L11 57L13 57L13 55L12 55L12 54L11 54L11 53L12 53L12 52L13 52L13 51L16 51L16 48L15 48L15 49L14 49L14 48L13 48L13 47L12 47L12 46L14 46L14 45L13 45L13 44L12 44L12 43L14 43L14 44L16 44L16 45L15 45L15 46L16 46L16 47L20 47L20 48L22 48L22 51L24 51L24 52L22 52L22 53L21 53L21 50L20 50L20 49L19 49L19 48L18 48L18 49L17 49L17 50L18 50L18 51L19 51L19 50L20 50L20 53L21 53L21 54L20 54L20 55L21 55L21 56L22 56L22 57L25 57L25 55L26 55L26 57L28 57L28 55L29 55L29 57L33 57L33 55L30 55L30 54L31 54L31 53L32 53L32 54L34 54L34 57L35 57L35 55L37 55L37 54L36 54L36 53L37 53L37 52L38 52L38 53L39 53L39 55L40 55L40 57L42 57L42 56L44 56L44 57L46 57L46 56L44 56L44 55L46 55L46 53L49 53L49 54L48 54L48 55L49 55L49 57L50 57L50 55L49 55L49 54L52 54L52 55L53 55L53 56L51 56L51 57L53 57L53 56L54 56L54 55L57 55L57 54L54 54L54 53L57 53L57 52L56 52L56 51L57 51L57 50L56 50L56 51L55 51L55 52L54 52L54 51L53 51L53 50L54 50L54 49L53 49L53 48L51 48L51 46L52 46L52 47L53 47L53 46L54 46L54 47L55 47L55 49L56 49L56 47L57 47L57 45L56 45L56 44L57 44L57 42L56 42L56 41L57 41L57 40L54 40L54 38L57 38L57 34L56 34L56 31L57 31L57 28L56 28L56 27L57 27L57 24L56 24L56 23L57 23L57 12L56 12L56 11L57 11L57 10L56 10L56 9L57 9L57 8L55 8L55 9L54 9L54 10L52 10L52 12L51 12L51 11L50 11L50 13L49 13L49 14L48 14L48 11L46 11L46 8L44 8L44 7L45 7L45 6L46 6L46 7L47 7L47 5L48 5L48 0L46 0L46 1L47 1L47 2L45 2L45 4L44 4L44 2L43 2L43 3L42 3L42 1L45 1L45 0L42 0L42 1L41 1L41 0L38 0L38 2L37 2L37 1L35 1L35 0L34 0L34 2L33 2L33 6L32 6L32 7L33 7L33 6L34 6L34 8L32 8L32 9L31 9L31 5L32 5L32 2L31 2L31 0L30 0L30 2L29 2L29 3L30 3L30 4L28 4L28 3L27 3L27 2L28 2L28 1L29 1L29 0L28 0L28 1L27 1L27 0L24 0L24 1L23 1L23 0L20 0L20 1L19 1L19 0L18 0L18 1L17 1L17 0L16 0L16 3L15 3L15 1L14 1L14 0ZM32 0L32 1L33 1L33 0ZM18 1L18 2L17 2L17 3L16 3L16 4L17 4L17 3L18 3L18 4L19 4L19 7L20 7L20 5L21 5L21 3L20 3L20 2L22 2L22 6L21 6L21 9L20 9L20 10L19 10L19 9L18 9L18 6L17 6L17 5L16 5L16 6L15 6L15 8L16 8L16 10L17 10L17 9L18 9L18 10L19 10L19 11L18 11L18 12L19 12L19 11L20 11L20 14L19 14L19 13L18 13L18 14L17 14L17 12L14 12L14 11L15 11L15 9L14 9L14 8L13 8L13 7L14 7L14 5L13 5L13 4L11 4L11 3L10 3L10 4L11 4L11 5L9 5L9 7L10 7L10 8L9 8L9 9L8 9L8 10L7 10L7 11L5 11L5 12L7 12L7 13L6 13L6 14L5 14L5 15L3 15L3 16L5 16L5 17L4 17L4 18L3 18L3 20L2 20L2 23L5 23L5 24L3 24L3 28L4 28L4 25L5 25L5 26L8 26L8 25L9 25L9 26L11 26L11 25L10 25L10 23L9 23L9 22L8 22L8 20L9 20L9 21L10 21L10 22L11 22L11 24L12 24L12 27L13 27L13 28L12 28L12 29L10 29L10 31L11 31L11 32L12 32L12 33L13 33L13 34L12 34L12 35L14 35L14 36L12 36L12 37L10 37L10 36L11 36L11 34L10 34L10 33L9 33L9 31L6 31L6 32L5 32L5 31L4 31L4 29L3 29L3 30L2 30L2 28L1 28L1 30L2 30L2 31L4 31L4 32L5 32L5 33L3 33L3 37L4 37L4 36L5 36L5 37L6 37L6 38L7 38L7 39L6 39L6 40L7 40L7 39L8 39L8 40L9 40L9 41L8 41L8 42L7 42L7 41L4 41L4 45L3 45L3 47L5 47L5 45L6 45L6 46L7 46L7 47L8 47L8 48L10 48L10 49L9 49L9 50L11 50L11 51L9 51L9 52L12 52L12 48L10 48L10 47L11 47L11 46L12 46L12 44L11 44L11 42L12 42L12 41L11 41L11 40L14 40L14 41L13 41L13 42L14 42L14 43L16 43L16 42L18 42L18 40L19 40L19 41L20 41L20 42L19 42L19 43L18 43L18 44L19 44L19 45L18 45L18 46L19 46L19 45L20 45L20 46L22 46L22 48L23 48L23 49L24 49L24 51L25 51L25 54L24 54L24 55L25 55L25 54L26 54L26 55L28 55L28 53L26 53L26 51L25 51L25 50L26 50L26 49L25 49L25 48L24 48L24 47L25 47L25 46L26 46L26 48L27 48L27 47L28 47L28 46L29 46L29 48L31 48L31 50L33 50L33 51L34 51L34 52L35 52L35 53L34 53L34 54L35 54L35 53L36 53L36 52L35 52L35 51L37 51L37 49L36 49L36 48L37 48L37 47L38 47L38 52L39 52L39 53L40 53L40 52L39 52L39 49L40 49L40 51L41 51L41 52L42 52L42 51L41 51L41 49L42 49L42 50L43 50L43 51L45 51L45 49L44 49L44 47L45 47L45 45L44 45L44 44L45 44L45 43L47 43L47 44L46 44L46 51L47 51L47 52L48 52L48 51L47 51L47 46L49 46L49 47L50 47L50 42L49 42L49 41L51 41L51 40L52 40L52 44L53 44L53 45L52 45L52 46L53 46L53 45L54 45L54 46L55 46L55 47L56 47L56 45L55 45L55 44L56 44L56 42L55 42L55 41L54 41L54 42L55 42L55 43L54 43L54 44L53 44L53 40L52 40L52 38L54 38L54 36L55 36L55 37L56 37L56 36L55 36L55 35L56 35L56 34L55 34L55 33L54 33L54 32L55 32L55 31L56 31L56 30L55 30L55 27L54 27L54 28L53 28L53 29L54 29L54 30L53 30L53 31L54 31L54 32L52 32L52 31L50 31L50 33L49 33L49 34L48 34L48 33L47 33L47 30L48 30L48 29L47 29L47 28L48 28L48 26L49 26L49 25L48 25L48 24L47 24L47 25L46 25L46 26L47 26L47 28L46 28L46 29L44 29L44 30L43 30L43 28L42 28L42 31L40 31L40 30L41 30L41 29L40 29L40 26L41 26L41 27L43 27L43 26L44 26L44 27L45 27L45 25L44 25L44 24L45 24L45 23L44 23L44 22L45 22L45 21L44 21L44 19L45 19L45 20L46 20L46 23L48 23L48 22L50 22L50 23L49 23L49 24L50 24L50 26L52 26L52 23L53 23L53 22L54 22L54 26L55 26L55 25L56 25L56 24L55 24L55 23L56 23L56 21L55 21L55 20L56 20L56 18L55 18L55 19L54 19L54 16L55 16L55 17L56 17L56 16L55 16L55 15L56 15L56 13L55 13L55 11L56 11L56 10L55 10L55 11L54 11L54 12L53 12L53 14L52 14L52 13L50 13L50 15L49 15L49 16L50 16L50 18L49 18L49 17L48 17L48 19L47 19L47 20L46 20L46 19L45 19L45 17L46 17L46 18L47 18L47 17L46 17L46 16L47 16L47 15L48 15L48 14L47 14L47 13L46 13L46 11L45 11L45 10L43 10L43 9L44 9L44 8L43 8L43 7L44 7L44 6L45 6L45 5L44 5L44 4L43 4L43 5L42 5L42 3L41 3L41 2L40 2L40 1L39 1L39 2L38 2L38 3L37 3L37 2L34 2L34 3L36 3L36 4L35 4L35 9L34 9L34 10L33 10L33 9L32 9L32 11L31 11L31 9L30 9L30 11L29 11L29 12L30 12L30 13L29 13L29 15L28 15L28 14L27 14L27 12L28 12L28 9L27 9L27 10L25 10L25 9L26 9L26 5L24 5L24 6L23 6L23 1L20 1L20 2L19 2L19 1ZM24 1L24 4L25 4L25 1ZM18 2L18 3L19 3L19 2ZM30 2L30 3L31 3L31 2ZM39 2L39 4L38 4L38 5L39 5L39 4L40 4L40 2ZM14 3L14 4L15 4L15 3ZM26 3L26 4L27 4L27 3ZM46 3L46 5L47 5L47 3ZM27 5L27 8L30 8L30 5ZM41 5L41 6L40 6L40 7L39 7L39 6L38 6L38 8L37 8L37 6L36 6L36 10L34 10L34 11L32 11L32 13L31 13L31 14L32 14L32 13L33 13L33 15L31 15L31 16L30 16L30 15L29 15L29 16L30 16L30 17L28 17L28 18L30 18L30 17L32 17L32 18L34 18L34 19L30 19L30 20L28 20L28 19L27 19L27 18L26 18L26 11L25 11L25 10L24 10L24 9L25 9L25 8L22 8L22 9L23 9L23 10L24 10L24 11L22 11L22 12L25 12L25 15L24 15L24 14L23 14L23 15L24 15L24 16L22 16L22 14L21 14L21 16L20 16L20 17L19 17L19 16L18 16L18 19L19 19L19 20L18 20L18 21L19 21L19 20L20 20L20 21L21 21L21 22L20 22L20 23L21 23L21 26L20 26L20 25L19 25L19 24L18 24L18 26L20 26L20 27L18 27L18 28L20 28L20 27L21 27L21 30L20 30L20 32L18 32L18 33L17 33L17 32L16 32L16 31L18 31L18 30L13 30L13 29L12 29L12 30L11 30L11 31L12 31L12 32L13 32L13 31L14 31L14 32L15 32L15 33L14 33L14 35L15 35L15 36L14 36L14 37L13 37L13 38L12 38L12 39L14 39L14 40L15 40L15 36L16 36L16 37L17 37L17 38L16 38L16 39L18 39L18 38L19 38L19 40L20 40L20 41L21 41L21 42L20 42L20 43L19 43L19 44L20 44L20 45L21 45L21 42L22 42L22 41L23 41L23 43L22 43L22 44L23 44L23 47L24 47L24 45L26 45L26 46L28 46L28 44L29 44L29 45L31 45L31 46L30 46L30 47L32 47L32 45L33 45L33 47L34 47L34 45L33 45L33 44L36 44L36 45L35 45L35 47L37 47L37 46L38 46L38 45L37 45L37 44L40 44L40 45L39 45L39 46L41 46L41 47L40 47L40 49L41 49L41 47L42 47L42 45L43 45L43 46L44 46L44 45L43 45L43 44L42 44L42 45L41 45L41 44L40 44L40 43L37 43L37 44L36 44L36 41L37 41L37 42L38 42L38 41L39 41L39 42L40 42L40 41L41 41L41 42L42 42L42 43L45 43L45 42L44 42L44 41L45 41L45 40L46 40L46 41L48 41L48 40L51 40L51 38L52 38L52 37L53 37L53 36L54 36L54 34L53 34L53 36L51 36L51 33L50 33L50 36L49 36L49 35L48 35L48 34L46 34L46 33L45 33L45 32L46 32L46 30L44 30L44 31L42 31L42 33L41 33L41 32L40 32L40 31L38 31L38 30L37 30L37 28L38 28L38 29L39 29L39 26L40 26L40 25L41 25L41 23L42 23L42 25L43 25L43 22L44 22L44 21L43 21L43 20L42 20L42 19L44 19L44 17L45 17L45 16L46 16L46 13L45 13L45 12L44 12L44 11L43 11L43 10L42 10L42 9L41 9L41 8L42 8L42 7L43 7L43 6L44 6L44 5L43 5L43 6L42 6L42 5ZM10 6L10 7L11 7L11 8L12 8L12 7L13 7L13 6L12 6L12 7L11 7L11 6ZM16 6L16 7L17 7L17 6ZM22 6L22 7L23 7L23 6ZM24 6L24 7L25 7L25 6ZM28 6L28 7L29 7L29 6ZM41 6L41 7L40 7L40 8L38 8L38 11L39 11L39 12L37 12L37 13L38 13L38 15L37 15L37 14L36 14L36 11L34 11L34 12L35 12L35 13L34 13L34 15L33 15L33 17L34 17L34 18L36 18L36 19L37 19L37 18L36 18L36 15L37 15L37 16L38 16L38 18L40 18L40 19L39 19L39 20L38 20L38 23L36 23L36 22L37 22L37 21L36 21L36 20L35 20L35 19L34 19L34 20L33 20L33 21L32 21L32 20L31 20L31 21L30 21L30 22L33 22L33 24L34 24L34 26L33 26L33 25L32 25L32 23L30 23L30 24L29 24L29 23L28 23L28 22L29 22L29 21L28 21L28 20L27 20L27 19L26 19L26 18L25 18L25 16L24 16L24 18L25 18L25 19L24 19L24 20L25 20L25 19L26 19L26 20L27 20L27 22L26 22L26 23L27 23L27 25L26 25L26 26L28 26L28 24L29 24L29 26L31 26L31 25L32 25L32 27L31 27L31 30L32 30L32 31L31 31L31 32L30 32L30 34L31 34L31 33L32 33L32 35L33 35L33 36L34 36L34 38L35 38L35 41L34 41L34 39L33 39L33 38L31 38L31 41L30 41L30 36L31 36L31 37L32 37L32 36L31 36L31 35L28 35L28 34L29 34L29 32L26 32L26 30L25 30L25 29L24 29L24 28L23 28L23 27L22 27L22 28L23 28L23 29L22 29L22 30L21 30L21 32L20 32L20 34L22 34L22 36L21 36L21 35L20 35L20 36L21 36L21 38L20 38L20 39L21 39L21 41L22 41L22 40L24 40L24 44L25 44L25 42L26 42L26 41L25 41L25 40L26 40L26 39L27 39L27 40L29 40L29 41L28 41L28 43L29 43L29 44L31 44L31 45L32 45L32 44L31 44L31 43L32 43L32 40L33 40L33 41L34 41L34 42L35 42L35 41L36 41L36 38L37 38L37 41L38 41L38 38L39 38L39 41L40 41L40 40L41 40L41 41L42 41L42 42L43 42L43 41L44 41L44 40L43 40L43 38L44 38L44 35L43 35L43 33L42 33L42 34L40 34L40 32L39 32L39 33L38 33L38 34L37 34L37 33L36 33L36 31L37 31L37 32L38 32L38 31L37 31L37 30L36 30L36 27L37 27L37 26L36 26L36 24L37 24L37 25L38 25L38 26L39 26L39 25L38 25L38 23L41 23L41 22L40 22L40 19L41 19L41 18L40 18L40 15L41 15L41 17L42 17L42 18L43 18L43 17L44 17L44 16L45 16L45 15L44 15L44 16L43 16L43 14L45 14L45 13L44 13L44 12L42 12L42 11L41 11L41 12L42 12L42 15L41 15L41 13L40 13L40 11L39 11L39 9L40 9L40 8L41 8L41 7L42 7L42 6ZM48 6L48 7L49 7L49 6ZM0 8L0 9L3 9L3 8ZM49 8L49 10L50 10L50 9L53 9L53 8ZM9 9L9 10L8 10L8 11L7 11L7 12L8 12L8 11L9 11L9 13L7 13L7 14L6 14L6 15L5 15L5 16L6 16L6 17L5 17L5 19L4 19L4 20L3 20L3 21L4 21L4 22L6 22L6 23L7 23L7 24L6 24L6 25L7 25L7 24L8 24L8 22L6 22L6 21L7 21L7 20L6 20L6 21L4 21L4 20L5 20L5 19L11 19L11 20L10 20L10 21L12 21L12 23L13 23L13 24L14 24L14 25L15 25L15 27L14 27L14 26L13 26L13 27L14 27L14 29L15 29L15 28L16 28L16 27L17 27L17 26L16 26L16 24L17 24L17 23L16 23L16 22L17 22L17 20L14 20L14 19L15 19L15 18L16 18L16 19L17 19L17 18L16 18L16 17L15 17L15 15L17 15L17 14L15 14L15 15L14 15L14 14L11 14L11 13L13 13L13 11L12 11L12 10L11 10L11 11L9 11L9 10L10 10L10 9ZM13 9L13 10L14 10L14 9ZM11 11L11 12L10 12L10 13L9 13L9 14L8 14L8 15L6 15L6 16L7 16L7 17L6 17L6 18L7 18L7 17L8 17L8 18L9 18L9 17L11 17L11 19L12 19L12 18L14 18L14 15L13 15L13 16L12 16L12 17L11 17L11 15L10 15L10 16L9 16L9 14L10 14L10 13L11 13L11 12L12 12L12 11ZM30 11L30 12L31 12L31 11ZM3 12L3 14L4 14L4 12ZM54 13L54 14L53 14L53 15L52 15L52 14L51 14L51 18L50 18L50 19L48 19L48 20L51 20L51 18L52 18L52 17L53 17L53 16L54 16L54 14L55 14L55 13ZM18 14L18 15L19 15L19 14ZM35 14L35 15L34 15L34 17L35 17L35 15L36 15L36 14ZM8 16L8 17L9 17L9 16ZM20 17L20 18L19 18L19 19L20 19L20 18L21 18L21 19L23 19L23 18L21 18L21 17ZM53 19L53 20L52 20L52 22L51 22L51 23L50 23L50 24L51 24L51 23L52 23L52 22L53 22L53 21L54 21L54 22L55 22L55 21L54 21L54 19ZM21 20L21 21L22 21L22 20ZM34 20L34 21L33 21L33 22L34 22L34 24L36 24L36 23L35 23L35 22L36 22L36 21L35 21L35 20ZM14 21L14 24L15 24L15 21ZM34 21L34 22L35 22L35 21ZM42 21L42 22L43 22L43 21ZM18 22L18 23L19 23L19 22ZM21 22L21 23L22 23L22 24L23 24L23 23L22 23L22 22ZM24 22L24 23L25 23L25 22ZM24 25L24 26L25 26L25 25ZM47 25L47 26L48 26L48 25ZM5 27L5 30L8 30L8 27ZM9 27L9 28L10 28L10 27ZM27 27L27 30L30 30L30 27ZM34 27L34 29L33 29L33 28L32 28L32 30L33 30L33 31L34 31L34 33L35 33L35 35L34 35L34 36L35 36L35 35L36 35L36 37L35 37L35 38L36 38L36 37L37 37L37 38L38 38L38 37L39 37L39 38L40 38L40 39L41 39L41 40L42 40L42 41L43 41L43 40L42 40L42 35L40 35L40 36L39 36L39 34L38 34L38 35L36 35L36 33L35 33L35 31L36 31L36 30L35 30L35 31L34 31L34 29L35 29L35 27ZM49 27L49 30L52 30L52 27ZM6 28L6 29L7 29L7 28ZM28 28L28 29L29 29L29 28ZM50 28L50 29L51 29L51 28ZM23 29L23 30L22 30L22 33L23 33L23 35L25 35L25 36L24 36L24 37L26 37L26 38L27 38L27 37L26 37L26 34L24 34L24 32L25 32L25 33L26 33L26 32L25 32L25 31L24 31L24 32L23 32L23 30L24 30L24 29ZM54 30L54 31L55 31L55 30ZM6 32L6 33L5 33L5 35L8 35L8 36L6 36L6 37L7 37L7 38L8 38L8 39L9 39L9 40L11 40L11 38L10 38L10 37L8 37L8 36L9 36L9 33L7 33L7 32ZM32 32L32 33L33 33L33 32ZM6 33L6 34L7 34L7 33ZM16 33L16 34L17 34L17 33ZM18 33L18 35L17 35L17 37L18 37L18 35L19 35L19 33ZM27 33L27 34L28 34L28 33ZM45 34L45 37L46 37L46 38L47 38L47 40L48 40L48 37L49 37L49 36L48 36L48 37L47 37L47 36L46 36L46 34ZM27 35L27 36L28 36L28 37L29 37L29 36L28 36L28 35ZM22 36L22 39L23 39L23 36ZM37 36L37 37L38 37L38 36ZM50 37L50 38L49 38L49 39L50 39L50 38L51 38L51 37ZM24 38L24 39L25 39L25 38ZM28 38L28 39L29 39L29 38ZM0 40L0 44L1 44L1 40ZM16 40L16 41L15 41L15 42L16 42L16 41L17 41L17 40ZM10 41L10 42L11 42L11 41ZM5 42L5 44L6 44L6 45L7 45L7 44L6 44L6 43L7 43L7 42ZM30 42L30 43L31 43L31 42ZM8 43L8 44L9 44L9 45L8 45L8 47L10 47L10 46L11 46L11 45L10 45L10 44L9 44L9 43ZM48 43L48 44L47 44L47 45L48 45L48 44L49 44L49 43ZM9 45L9 46L10 46L10 45ZM16 45L16 46L17 46L17 45ZM32 48L32 49L33 49L33 50L34 50L34 49L35 49L35 48L34 48L34 49L33 49L33 48ZM13 49L13 50L14 50L14 49ZM18 49L18 50L19 50L19 49ZM27 49L27 52L30 52L30 49ZM43 49L43 50L44 50L44 49ZM49 49L49 52L52 52L52 49ZM28 50L28 51L29 51L29 50ZM50 50L50 51L51 51L51 50ZM31 51L31 52L32 52L32 51ZM14 52L14 53L13 53L13 54L15 54L15 55L14 55L14 56L15 56L15 57L17 57L17 55L16 55L16 54L18 54L18 53L19 53L19 52L18 52L18 53L17 53L17 52ZM43 52L43 53L42 53L42 54L43 54L43 55L44 55L44 52ZM45 52L45 53L46 53L46 52ZM22 53L22 56L23 56L23 53ZM40 54L40 55L41 55L41 56L42 56L42 55L41 55L41 54ZM53 54L53 55L54 55L54 54ZM18 56L18 57L20 57L20 56ZM36 56L36 57L37 57L37 56ZM47 56L47 57L48 57L48 56ZM56 56L56 57L57 57L57 56ZM0 0L0 7L7 7L7 0ZM1 1L1 6L6 6L6 1ZM2 2L2 5L5 5L5 2ZM50 0L50 7L57 7L57 0ZM51 1L51 6L56 6L56 1ZM52 2L52 5L55 5L55 2ZM0 50L0 57L7 57L7 50ZM1 51L1 56L6 56L6 51ZM2 52L2 55L5 55L5 52Z" fill="#000000"/></g></g></svg>
