<?xml version="1.0" encoding="UTF-8"?>
<svg xmlns="http://www.w3.org/2000/svg" version="1.1" width="300" height="300" viewBox="0 0 300 300"><rect x="0" y="0" width="300" height="300" fill="#fefefe"/><g transform="scale(4.615)"><g transform="translate(4,4)"><path fill-rule="evenodd" d="M11 0L11 1L10 1L10 2L11 2L11 3L8 3L8 4L10 4L10 5L8 5L8 7L9 7L9 6L10 6L10 8L6 8L6 9L7 9L7 10L5 10L5 8L0 8L0 9L3 9L3 10L2 10L2 11L1 11L1 10L0 10L0 14L1 14L1 12L3 12L3 11L4 11L4 12L5 12L5 11L7 11L7 10L8 10L8 9L10 9L10 8L12 8L12 9L11 9L11 10L13 10L13 11L14 11L14 12L13 12L13 13L12 13L12 15L11 15L11 11L10 11L10 10L9 10L9 12L8 12L8 14L5 14L5 15L4 15L4 14L3 14L3 13L2 13L2 14L3 14L3 15L0 15L0 16L2 16L2 17L3 17L3 19L1 19L1 18L0 18L0 19L1 19L1 20L0 20L0 23L3 23L3 22L5 22L5 23L4 23L4 26L3 26L3 28L4 28L4 32L5 32L5 33L4 33L4 34L5 34L5 35L4 35L4 36L3 36L3 38L2 38L2 36L1 36L1 35L3 35L3 32L2 32L2 31L1 31L1 30L0 30L0 31L1 31L1 32L0 32L0 36L1 36L1 37L0 37L0 38L1 38L1 40L2 40L2 41L3 41L3 42L1 42L1 41L0 41L0 42L1 42L1 43L0 43L0 44L1 44L1 46L0 46L0 48L5 48L5 47L7 47L7 48L6 48L6 49L7 49L7 48L8 48L8 51L9 51L9 49L12 49L12 48L13 48L13 47L12 47L12 46L13 46L13 44L12 44L12 43L10 43L10 44L9 44L9 43L7 43L7 42L6 42L6 41L7 41L7 40L8 40L8 39L10 39L10 38L11 38L11 39L12 39L12 40L11 40L11 41L9 41L9 42L11 42L11 41L13 41L13 43L14 43L14 44L15 44L15 43L14 43L14 42L15 42L15 40L16 40L16 39L15 39L15 38L16 38L16 37L14 37L14 36L15 36L15 35L16 35L16 36L17 36L17 40L18 40L18 41L17 41L17 42L18 42L18 43L16 43L16 44L18 44L18 45L17 45L17 46L19 46L19 48L18 48L18 47L17 47L17 48L16 48L16 47L15 47L15 45L14 45L14 49L17 49L17 50L16 50L16 51L15 51L15 50L10 50L10 51L12 51L12 52L13 52L13 53L12 53L12 54L11 54L11 52L10 52L10 53L9 53L9 52L8 52L8 57L12 57L12 56L14 56L14 53L16 53L16 54L15 54L15 55L16 55L16 56L15 56L15 57L16 57L16 56L17 56L17 57L19 57L19 55L20 55L20 54L19 54L19 53L20 53L20 52L22 52L22 51L20 51L20 49L21 49L21 50L26 50L26 52L24 52L24 53L23 53L23 54L22 54L22 55L21 55L21 56L23 56L23 57L26 57L26 55L27 55L27 54L30 54L30 53L31 53L31 50L32 50L32 52L33 52L33 50L34 50L34 51L35 51L35 52L34 52L34 53L35 53L35 54L36 54L36 56L35 56L35 55L33 55L33 53L32 53L32 54L31 54L31 56L30 56L30 55L29 55L29 56L27 56L27 57L29 57L29 56L30 56L30 57L31 57L31 56L35 56L35 57L39 57L39 56L37 56L37 54L38 54L38 55L41 55L41 56L42 56L42 55L43 55L43 57L44 57L44 54L45 54L45 53L47 53L47 50L48 50L48 54L47 54L47 56L48 56L48 55L49 55L49 56L50 56L50 57L52 57L52 55L51 55L51 53L52 53L52 54L53 54L53 55L54 55L54 56L53 56L53 57L54 57L54 56L55 56L55 57L56 57L56 56L55 56L55 51L56 51L56 52L57 52L57 51L56 51L56 50L57 50L57 48L56 48L56 46L57 46L57 43L56 43L56 42L57 42L57 41L56 41L56 42L55 42L55 39L57 39L57 35L56 35L56 34L55 34L55 32L56 32L56 33L57 33L57 32L56 32L56 30L57 30L57 29L56 29L56 28L57 28L57 27L55 27L55 26L57 26L57 25L56 25L56 22L57 22L57 19L56 19L56 16L57 16L57 15L56 15L56 14L57 14L57 13L56 13L56 14L53 14L53 13L54 13L54 12L56 12L56 8L55 8L55 10L54 10L54 11L53 11L53 10L50 10L50 8L49 8L49 6L48 6L48 7L47 7L47 5L48 5L48 0L45 0L45 2L44 2L44 3L43 3L43 4L42 4L42 2L43 2L43 0L41 0L41 1L40 1L40 0L39 0L39 1L38 1L38 0L37 0L37 1L38 1L38 2L39 2L39 3L36 3L36 0L35 0L35 1L33 1L33 2L32 2L32 3L31 3L31 1L32 1L32 0L27 0L27 1L26 1L26 0L23 0L23 1L22 1L22 0L21 0L21 1L22 1L22 2L20 2L20 0L17 0L17 1L15 1L15 0L14 0L14 2L13 2L13 1L12 1L12 0ZM8 1L8 2L9 2L9 1ZM11 1L11 2L12 2L12 4L11 4L11 5L12 5L12 6L11 6L11 7L12 7L12 6L13 6L13 8L14 8L14 10L15 10L15 13L13 13L13 15L12 15L12 16L11 16L11 15L10 15L10 19L9 19L9 18L8 18L8 16L9 16L9 14L8 14L8 15L5 15L5 16L3 16L3 17L4 17L4 19L3 19L3 20L1 20L1 22L3 22L3 21L6 21L6 22L7 22L7 21L6 21L6 20L8 20L8 23L9 23L9 24L8 24L8 25L6 25L6 24L7 24L7 23L6 23L6 24L5 24L5 26L8 26L8 25L11 25L11 23L12 23L12 24L13 24L13 22L12 22L12 21L14 21L14 25L13 25L13 27L12 27L12 26L10 26L10 27L12 27L12 29L9 29L9 30L10 30L10 31L9 31L9 33L6 33L6 34L7 34L7 35L5 35L5 37L4 37L4 40L5 40L5 41L6 41L6 40L7 40L7 39L5 39L5 38L7 38L7 37L6 37L6 36L8 36L8 37L10 37L10 35L11 35L11 34L12 34L12 32L13 32L13 33L15 33L15 34L14 34L14 35L15 35L15 34L18 34L18 35L21 35L21 36L19 36L19 37L18 37L18 38L19 38L19 39L20 39L20 38L19 38L19 37L23 37L23 38L24 38L24 37L23 37L23 36L24 36L24 34L23 34L23 33L25 33L25 34L26 34L26 33L27 33L27 36L26 36L26 37L25 37L25 38L27 38L27 39L25 39L25 40L24 40L24 39L23 39L23 40L19 40L19 41L18 41L18 42L19 42L19 43L20 43L20 44L19 44L19 45L20 45L20 46L21 46L21 45L22 45L22 46L23 46L23 47L20 47L20 48L19 48L19 49L20 49L20 48L21 48L21 49L23 49L23 48L24 48L24 49L26 49L26 48L27 48L27 47L28 47L28 48L29 48L29 46L30 46L30 45L28 45L28 44L24 44L24 43L23 43L23 44L24 44L24 45L25 45L25 46L23 46L23 45L22 45L22 44L21 44L21 43L22 43L22 42L23 42L23 40L24 40L24 41L25 41L25 43L29 43L29 44L32 44L32 45L31 45L31 48L32 48L32 50L33 50L33 49L34 49L34 50L36 50L36 52L37 52L37 53L38 53L38 54L40 54L40 53L41 53L41 52L40 52L40 51L39 51L39 53L38 53L38 50L41 50L41 51L42 51L42 50L41 50L41 48L42 48L42 49L43 49L43 48L44 48L44 49L45 49L45 50L47 50L47 49L48 49L48 48L52 48L52 47L53 47L53 45L52 45L52 44L53 44L53 43L54 43L54 42L53 42L53 41L51 41L51 42L50 42L50 43L47 43L47 42L48 42L48 41L49 41L49 40L50 40L50 39L51 39L51 40L53 40L53 35L55 35L55 34L54 34L54 33L52 33L52 32L51 32L51 33L52 33L52 34L50 34L50 31L48 31L48 30L47 30L47 29L46 29L46 30L47 30L47 31L45 31L45 32L43 32L43 31L44 31L44 29L45 29L45 28L46 28L46 27L47 27L47 28L48 28L48 27L47 27L47 25L49 25L49 24L50 24L50 22L51 22L51 21L53 21L53 23L51 23L51 25L50 25L50 26L51 26L51 25L53 25L53 23L55 23L55 22L56 22L56 21L55 21L55 20L56 20L56 19L55 19L55 20L53 20L53 19L52 19L52 20L51 20L51 21L49 21L49 22L47 22L47 21L48 21L48 20L47 20L47 15L46 15L46 17L45 17L45 15L44 15L44 14L47 14L47 13L49 13L49 12L50 12L50 14L49 14L49 15L48 15L48 16L49 16L49 15L50 15L50 16L51 16L51 17L50 17L50 18L48 18L48 19L51 19L51 18L55 18L55 16L53 16L53 15L50 15L50 14L51 14L51 12L50 12L50 10L47 10L47 7L46 7L46 5L47 5L47 3L44 3L44 6L43 6L43 7L42 7L42 6L41 6L41 5L40 5L40 4L41 4L41 3L39 3L39 4L38 4L38 5L37 5L37 4L36 4L36 5L35 5L35 2L33 2L33 3L32 3L32 4L31 4L31 8L32 8L32 10L31 10L31 11L29 11L29 10L28 10L28 11L29 11L29 12L28 12L28 13L26 13L26 12L27 12L27 11L26 11L26 12L25 12L25 10L23 10L23 11L24 11L24 12L23 12L23 13L22 13L22 12L20 12L20 10L21 10L21 11L22 11L22 10L21 10L21 9L23 9L23 8L24 8L24 9L25 9L25 8L26 8L26 4L30 4L30 3L28 3L28 2L29 2L29 1L27 1L27 2L26 2L26 1L25 1L25 2L23 2L23 3L19 3L19 1L17 1L17 2L16 2L16 3L15 3L15 2L14 2L14 4L13 4L13 2L12 2L12 1ZM46 1L46 2L47 2L47 1ZM17 3L17 4L18 4L18 5L17 5L17 6L16 6L16 7L15 7L15 6L14 6L14 8L16 8L16 9L15 9L15 10L16 10L16 9L17 9L17 10L18 10L18 11L17 11L17 12L16 12L16 13L15 13L15 14L14 14L14 15L13 15L13 16L12 16L12 18L11 18L11 19L12 19L12 20L9 20L9 19L8 19L8 18L6 18L6 17L7 17L7 16L6 16L6 17L5 17L5 19L8 19L8 20L9 20L9 21L10 21L10 23L11 23L11 21L12 21L12 20L14 20L14 19L13 19L13 17L14 17L14 18L15 18L15 17L14 17L14 15L15 15L15 16L16 16L16 17L18 17L18 18L16 18L16 20L15 20L15 21L16 21L16 22L15 22L15 23L16 23L16 24L17 24L17 26L16 26L16 27L18 27L18 26L20 26L20 27L22 27L22 26L23 26L23 30L25 30L25 31L20 31L20 30L19 30L19 29L22 29L22 28L19 28L19 29L18 29L18 28L16 28L16 29L15 29L15 28L13 28L13 30L11 30L11 31L13 31L13 32L15 32L15 33L18 33L18 34L20 34L20 33L21 33L21 35L22 35L22 33L21 33L21 32L25 32L25 31L26 31L26 32L28 32L28 33L29 33L29 34L30 34L30 36L29 36L29 37L31 37L31 38L29 38L29 39L33 39L33 40L35 40L35 42L37 42L37 43L36 43L36 44L35 44L35 43L34 43L34 42L33 42L33 41L32 41L32 40L31 40L31 41L29 41L29 43L32 43L32 44L33 44L33 43L34 43L34 45L35 45L35 46L33 46L33 45L32 45L32 46L33 46L33 47L36 47L36 48L34 48L34 49L36 49L36 50L38 50L38 49L39 49L39 48L41 48L41 46L43 46L43 47L42 47L42 48L43 48L43 47L44 47L44 46L45 46L45 47L47 47L47 48L45 48L45 49L47 49L47 48L48 48L48 47L50 47L50 46L48 46L48 45L49 45L49 44L48 44L48 45L47 45L47 43L46 43L46 42L45 42L45 43L46 43L46 44L45 44L45 45L44 45L44 43L43 43L43 42L44 42L44 40L45 40L45 39L42 39L42 38L43 38L43 37L44 37L44 38L45 38L45 37L47 37L47 39L46 39L46 40L47 40L47 39L50 39L50 38L51 38L51 37L50 37L50 36L52 36L52 35L53 35L53 34L52 34L52 35L50 35L50 34L48 34L48 35L50 35L50 36L49 36L49 37L50 37L50 38L48 38L48 37L47 37L47 36L46 36L46 35L44 35L44 33L43 33L43 32L41 32L41 33L39 33L39 34L40 34L40 35L38 35L38 33L37 33L37 32L35 32L35 31L36 31L36 30L32 30L32 32L31 32L31 33L29 33L29 32L30 32L30 31L31 31L31 29L32 29L32 28L31 28L31 26L32 26L32 27L33 27L33 28L35 28L35 29L38 29L38 28L39 28L39 27L41 27L41 28L42 28L42 26L43 26L43 25L44 25L44 28L43 28L43 29L39 29L39 30L38 30L38 32L39 32L39 31L40 31L40 30L43 30L43 29L44 29L44 28L45 28L45 27L46 27L46 26L45 26L45 25L47 25L47 24L48 24L48 23L47 23L47 22L46 22L46 21L45 21L45 22L46 22L46 23L45 23L45 25L44 25L44 20L45 20L45 19L46 19L46 18L44 18L44 15L42 15L42 16L41 16L41 15L40 15L40 14L38 14L38 13L40 13L40 12L41 12L41 10L42 10L42 11L43 11L43 9L44 9L44 11L45 11L45 12L48 12L48 11L47 11L47 10L46 10L46 9L44 9L44 8L45 8L45 6L44 6L44 8L42 8L42 7L41 7L41 6L40 6L40 5L39 5L39 6L38 6L38 9L37 9L37 8L35 8L35 5L33 5L33 4L34 4L34 3L33 3L33 4L32 4L32 5L33 5L33 6L32 6L32 7L33 7L33 9L34 9L34 8L35 8L35 9L37 9L37 10L36 10L36 11L37 11L37 12L35 12L35 13L36 13L36 14L32 14L32 11L33 11L33 10L32 10L32 11L31 11L31 13L30 13L30 14L29 14L29 13L28 13L28 14L29 14L29 16L28 16L28 15L27 15L27 14L26 14L26 15L25 15L25 16L26 16L26 18L25 18L25 17L22 17L22 16L21 16L21 17L22 17L22 18L20 18L20 17L19 17L19 15L20 15L20 12L19 12L19 10L20 10L20 9L19 9L19 8L23 8L23 6L24 6L24 8L25 8L25 4L26 4L26 3L23 3L23 4L24 4L24 5L22 5L22 4L19 4L19 3ZM15 4L15 5L16 5L16 4ZM45 4L45 5L46 5L46 4ZM18 5L18 6L17 6L17 7L16 7L16 8L17 8L17 7L18 7L18 6L19 6L19 7L20 7L20 5ZM27 5L27 8L30 8L30 5ZM36 5L36 7L37 7L37 5ZM21 6L21 7L22 7L22 6ZM28 6L28 7L29 7L29 6ZM33 6L33 7L34 7L34 6ZM39 6L39 9L38 9L38 11L39 11L39 12L40 12L40 11L39 11L39 9L41 9L41 7L40 7L40 6ZM48 8L48 9L49 9L49 8ZM51 8L51 9L52 9L52 8ZM53 8L53 9L54 9L54 8ZM18 9L18 10L19 10L19 9ZM45 10L45 11L46 11L46 10ZM6 12L6 13L7 13L7 12ZM9 12L9 13L10 13L10 12ZM17 12L17 13L16 13L16 16L17 16L17 13L18 13L18 12ZM33 12L33 13L34 13L34 12ZM43 12L43 13L41 13L41 14L43 14L43 13L44 13L44 12ZM52 12L52 13L53 13L53 12ZM21 13L21 15L23 15L23 14L25 14L25 13L23 13L23 14L22 14L22 13ZM30 14L30 15L31 15L31 14ZM37 14L37 15L35 15L35 16L31 16L31 18L30 18L30 19L28 19L28 18L27 18L27 19L26 19L26 21L27 21L27 24L25 24L25 23L26 23L26 22L25 22L25 21L24 21L24 20L20 20L20 19L18 19L18 20L20 20L20 21L19 21L19 22L18 22L18 21L17 21L17 20L16 20L16 21L17 21L17 24L19 24L19 25L20 25L20 26L21 26L21 25L24 25L24 24L25 24L25 25L26 25L26 26L24 26L24 27L26 27L26 26L28 26L28 25L29 25L29 26L30 26L30 25L29 25L29 24L32 24L32 26L33 26L33 27L34 27L34 26L36 26L36 27L35 27L35 28L36 28L36 27L39 27L39 26L42 26L42 25L41 25L41 24L40 24L40 22L39 22L39 21L41 21L41 20L39 20L39 21L38 21L38 20L37 20L37 19L39 19L39 17L41 17L41 16L39 16L39 15L38 15L38 14ZM26 15L26 16L27 16L27 17L28 17L28 16L27 16L27 15ZM35 16L35 17L37 17L37 18L38 18L38 17L39 17L39 16L38 16L38 17L37 17L37 16ZM42 16L42 17L43 17L43 16ZM32 17L32 18L33 18L33 17ZM23 18L23 19L24 19L24 18ZM41 18L41 19L42 19L42 18ZM43 18L43 20L42 20L42 21L43 21L43 20L44 20L44 18ZM31 19L31 21L28 21L28 22L29 22L29 23L30 23L30 22L31 22L31 21L32 21L32 20L35 20L35 23L32 23L32 24L33 24L33 25L37 25L37 26L38 26L38 25L39 25L39 24L37 24L37 22L38 22L38 23L39 23L39 22L38 22L38 21L37 21L37 20L36 20L36 19ZM22 21L22 23L21 23L21 24L20 24L20 25L21 25L21 24L22 24L22 23L23 23L23 24L24 24L24 23L23 23L23 22L24 22L24 21ZM19 22L19 23L20 23L20 22ZM42 23L42 24L43 24L43 23ZM46 23L46 24L47 24L47 23ZM14 25L14 27L15 27L15 25ZM1 26L1 27L2 27L2 26ZM53 26L53 27L54 27L54 26ZM5 27L5 30L8 30L8 27ZM27 27L27 30L30 30L30 27ZM49 27L49 30L52 30L52 27ZM6 28L6 29L7 29L7 28ZM25 28L25 29L26 29L26 28ZM28 28L28 29L29 29L29 28ZM50 28L50 29L51 29L51 28ZM54 28L54 29L53 29L53 30L54 30L54 29L55 29L55 28ZM2 29L2 30L3 30L3 29ZM14 29L14 30L13 30L13 31L15 31L15 32L19 32L19 33L20 33L20 32L19 32L19 30L18 30L18 29L16 29L16 31L15 31L15 29ZM17 30L17 31L18 31L18 30ZM6 31L6 32L7 32L7 31ZM28 31L28 32L29 32L29 31ZM47 31L47 32L48 32L48 33L49 33L49 32L48 32L48 31ZM32 32L32 33L31 33L31 35L32 35L32 33L33 33L33 35L35 35L35 36L32 36L32 37L33 37L33 39L35 39L35 40L38 40L38 42L39 42L39 44L40 44L40 45L38 45L38 46L41 46L41 44L42 44L42 42L40 42L40 41L42 41L42 39L41 39L41 38L40 38L40 37L41 37L41 36L40 36L40 37L39 37L39 36L38 36L38 38L37 38L37 39L35 39L35 36L37 36L37 34L35 34L35 33L33 33L33 32ZM45 32L45 33L46 33L46 32ZM1 33L1 34L2 34L2 33ZM9 33L9 34L8 34L8 35L9 35L9 34L11 34L11 33ZM42 34L42 35L43 35L43 36L44 36L44 37L45 37L45 36L44 36L44 35L43 35L43 34ZM12 35L12 36L11 36L11 37L12 37L12 39L14 39L14 40L13 40L13 41L14 41L14 40L15 40L15 39L14 39L14 37L12 37L12 36L13 36L13 35ZM55 36L55 37L56 37L56 36ZM27 37L27 38L28 38L28 37ZM54 38L54 39L55 39L55 38ZM27 39L27 40L28 40L28 39ZM38 39L38 40L40 40L40 39ZM19 41L19 42L20 42L20 41ZM21 41L21 42L22 42L22 41ZM26 41L26 42L27 42L27 41ZM31 41L31 42L32 42L32 43L33 43L33 42L32 42L32 41ZM4 42L4 43L6 43L6 44L4 44L4 45L3 45L3 43L2 43L2 45L3 45L3 47L5 47L5 45L6 45L6 46L7 46L7 47L9 47L9 46L12 46L12 45L11 45L11 44L10 44L10 45L9 45L9 46L7 46L7 45L6 45L6 44L7 44L7 43L6 43L6 42ZM51 42L51 43L50 43L50 45L51 45L51 43L53 43L53 42ZM40 43L40 44L41 44L41 43ZM55 43L55 44L54 44L54 45L55 45L55 46L54 46L54 47L55 47L55 46L56 46L56 43ZM26 45L26 47L24 47L24 48L26 48L26 47L27 47L27 46L28 46L28 45ZM45 45L45 46L47 46L47 45ZM1 46L1 47L2 47L2 46ZM36 46L36 47L37 47L37 46ZM10 47L10 48L11 48L11 47ZM38 47L38 48L37 48L37 49L38 49L38 48L39 48L39 47ZM53 48L53 49L54 49L54 48ZM55 48L55 50L54 50L54 51L55 51L55 50L56 50L56 48ZM27 49L27 52L30 52L30 49ZM49 49L49 52L52 52L52 49ZM17 50L17 51L16 51L16 53L17 53L17 52L19 52L19 51L18 51L18 50ZM28 50L28 51L29 51L29 50ZM43 50L43 51L44 51L44 50ZM50 50L50 51L51 51L51 50ZM13 51L13 52L15 52L15 51ZM42 52L42 53L43 53L43 54L44 54L44 53L45 53L45 52L44 52L44 53L43 53L43 52ZM53 52L53 53L54 53L54 52ZM24 53L24 54L23 54L23 55L24 55L24 56L25 56L25 54L27 54L27 53ZM9 54L9 56L12 56L12 55L13 55L13 54L12 54L12 55L11 55L11 54ZM17 54L17 55L18 55L18 54ZM50 55L50 56L51 56L51 55ZM45 56L45 57L46 57L46 56ZM0 0L0 7L7 7L7 0ZM1 1L1 6L6 6L6 1ZM2 2L2 5L5 5L5 2ZM50 0L50 7L57 7L57 0ZM51 1L51 6L56 6L56 1ZM52 2L52 5L55 5L55 2ZM0 50L0 57L7 57L7 50ZM1 51L1 56L6 56L6 51ZM2 52L2 55L5 55L5 52Z" fill="#000000"/></g></g></svg>
