<?xml version="1.0" encoding="UTF-8"?>
<svg xmlns="http://www.w3.org/2000/svg" version="1.1" width="300" height="300" viewBox="0 0 300 300"><rect x="0" y="0" width="300" height="300" fill="#fefefe"/><g transform="scale(4.615)"><g transform="translate(4,4)"><path fill-rule="evenodd" d="M8 0L8 1L9 1L9 2L8 2L8 5L9 5L9 6L8 6L8 7L9 7L9 6L10 6L10 7L11 7L11 8L8 8L8 9L7 9L7 8L6 8L6 9L5 9L5 10L4 10L4 8L0 8L0 11L1 11L1 12L2 12L2 13L3 13L3 12L4 12L4 11L5 11L5 14L4 14L4 15L5 15L5 16L3 16L3 14L1 14L1 13L0 13L0 15L1 15L1 18L0 18L0 21L1 21L1 22L0 22L0 24L1 24L1 25L2 25L2 26L3 26L3 25L2 25L2 24L4 24L4 25L5 25L5 26L4 26L4 27L2 27L2 28L4 28L4 29L2 29L2 30L1 30L1 32L2 32L2 33L0 33L0 34L4 34L4 35L3 35L3 38L2 38L2 40L4 40L4 41L3 41L3 42L2 42L2 41L1 41L1 40L0 40L0 43L1 43L1 44L0 44L0 48L5 48L5 47L7 47L7 46L8 46L8 47L9 47L9 48L6 48L6 49L8 49L8 50L9 50L9 49L11 49L11 47L12 47L12 48L14 48L14 49L12 49L12 50L10 50L10 51L9 51L9 53L8 53L8 57L9 57L9 56L10 56L10 57L12 57L12 56L10 56L10 54L9 54L9 53L10 53L10 52L12 52L12 53L11 53L11 55L12 55L12 54L13 54L13 55L14 55L14 53L15 53L15 56L14 56L14 57L15 57L15 56L16 56L16 57L18 57L18 56L19 56L19 55L20 55L20 56L21 56L21 57L23 57L23 56L22 56L22 55L23 55L23 54L26 54L26 55L27 55L27 56L28 56L28 55L27 55L27 53L29 53L29 54L31 54L31 55L30 55L30 56L31 56L31 57L32 57L32 55L33 55L33 54L36 54L36 55L34 55L34 56L33 56L33 57L36 57L36 55L38 55L38 57L42 57L42 56L43 56L43 55L44 55L44 56L46 56L46 57L47 57L47 56L46 56L46 54L47 54L47 55L49 55L49 57L51 57L51 54L52 54L52 53L54 53L54 52L55 52L55 54L53 54L53 56L52 56L52 57L55 57L55 56L54 56L54 55L55 55L55 54L56 54L56 53L57 53L57 52L55 52L55 50L53 50L53 49L54 49L54 47L57 47L57 45L56 45L56 46L55 46L55 44L56 44L56 42L54 42L54 41L53 41L53 40L55 40L55 38L56 38L56 39L57 39L57 38L56 38L56 36L54 36L54 35L57 35L57 31L56 31L56 30L57 30L57 29L56 29L56 30L53 30L53 28L54 28L54 29L55 29L55 28L56 28L56 24L54 24L54 23L53 23L53 22L54 22L54 21L55 21L55 20L54 20L54 21L53 21L53 20L50 20L50 19L49 19L49 20L50 20L50 21L51 21L51 22L52 22L52 23L53 23L53 24L54 24L54 25L55 25L55 27L53 27L53 25L52 25L52 26L51 26L51 24L49 24L49 21L47 21L47 19L48 19L48 14L47 14L47 15L45 15L45 14L46 14L46 13L44 13L44 10L45 10L45 11L47 11L47 12L49 12L49 17L51 17L51 18L52 18L52 19L56 19L56 22L55 22L55 23L57 23L57 19L56 19L56 18L55 18L55 17L57 17L57 15L55 15L55 13L54 13L54 10L53 10L53 13L52 13L52 12L51 12L51 11L52 11L52 9L55 9L55 8L52 8L52 9L51 9L51 10L50 10L50 8L49 8L49 9L48 9L48 8L46 8L46 7L47 7L47 5L48 5L48 0L45 0L45 1L44 1L44 2L41 2L41 1L43 1L43 0L41 0L41 1L40 1L40 0L39 0L39 1L40 1L40 2L41 2L41 3L43 3L43 5L41 5L41 4L37 4L37 3L39 3L39 2L37 2L37 1L38 1L38 0L37 0L37 1L36 1L36 0L35 0L35 1L34 1L34 2L35 2L35 3L34 3L34 4L36 4L36 5L37 5L37 6L36 6L36 7L35 7L35 6L34 6L34 5L33 5L33 6L32 6L32 5L31 5L31 4L32 4L32 3L33 3L33 1L31 1L31 0L27 0L27 2L28 2L28 3L29 3L29 2L30 2L30 3L31 3L31 4L26 4L26 2L24 2L24 3L23 3L23 4L22 4L22 5L20 5L20 4L19 4L19 3L18 3L18 1L19 1L19 2L20 2L20 0L18 0L18 1L16 1L16 2L15 2L15 3L16 3L16 2L17 2L17 5L15 5L15 4L14 4L14 3L13 3L13 2L12 2L12 1L13 1L13 0L12 0L12 1L11 1L11 2L12 2L12 3L13 3L13 4L14 4L14 5L12 5L12 4L11 4L11 3L10 3L10 4L9 4L9 2L10 2L10 1L9 1L9 0ZM14 0L14 1L15 1L15 0ZM21 0L21 2L22 2L22 0ZM23 0L23 1L26 1L26 0ZM30 1L30 2L31 2L31 1ZM35 1L35 2L36 2L36 1ZM45 1L45 3L44 3L44 4L46 4L46 5L43 5L43 7L42 7L42 6L41 6L41 7L40 7L40 5L38 5L38 6L37 6L37 8L36 8L36 9L34 9L34 6L33 6L33 8L32 8L32 6L31 6L31 9L32 9L32 10L30 10L30 11L27 11L27 10L26 10L26 11L25 11L25 13L24 13L24 12L23 12L23 11L24 11L24 10L23 10L23 9L21 9L21 7L22 7L22 6L21 6L21 7L20 7L20 6L19 6L19 7L18 7L18 6L17 6L17 7L16 7L16 6L15 6L15 8L14 8L14 6L13 6L13 8L11 8L11 9L9 9L9 10L7 10L7 9L6 9L6 10L7 10L7 11L6 11L6 12L7 12L7 13L6 13L6 14L7 14L7 13L8 13L8 14L10 14L10 15L6 15L6 16L7 16L7 17L5 17L5 18L3 18L3 20L2 20L2 19L1 19L1 20L2 20L2 21L3 21L3 20L5 20L5 21L4 21L4 23L5 23L5 25L6 25L6 26L9 26L9 28L10 28L10 32L9 32L9 33L6 33L6 32L7 32L7 31L6 31L6 32L4 32L4 31L3 31L3 30L2 30L2 32L3 32L3 33L4 33L4 34L5 34L5 35L4 35L4 36L7 36L7 37L5 37L5 38L7 38L7 39L5 39L5 41L4 41L4 42L5 42L5 43L6 43L6 44L7 44L7 45L6 45L6 46L7 46L7 45L8 45L8 46L9 46L9 47L11 47L11 46L10 46L10 44L13 44L13 45L12 45L12 47L15 47L15 46L16 46L16 47L17 47L17 45L20 45L20 47L22 47L22 46L23 46L23 45L25 45L25 46L24 46L24 47L26 47L26 48L27 48L27 46L29 46L29 48L32 48L32 49L31 49L31 50L33 50L33 49L34 49L34 50L35 50L35 49L34 49L34 48L33 48L33 47L34 47L34 46L35 46L35 48L37 48L37 49L36 49L36 50L37 50L37 49L38 49L38 48L39 48L39 49L40 49L40 50L39 50L39 52L38 52L38 51L36 51L36 52L35 52L35 53L36 53L36 54L37 54L37 52L38 52L38 54L39 54L39 52L40 52L40 54L41 54L41 55L42 55L42 54L43 54L43 53L42 53L42 52L40 52L40 51L43 51L43 50L44 50L44 49L46 49L46 50L45 50L45 52L46 52L46 53L47 53L47 54L50 54L50 53L47 53L47 52L48 52L48 48L47 48L47 47L49 47L49 46L50 46L50 45L51 45L51 46L54 46L54 45L53 45L53 44L55 44L55 43L54 43L54 42L53 42L53 43L52 43L52 45L51 45L51 42L50 42L50 41L52 41L52 40L53 40L53 38L55 38L55 37L53 37L53 36L52 36L52 35L51 35L51 36L52 36L52 38L50 38L50 39L52 39L52 40L50 40L50 41L47 41L47 42L45 42L45 43L47 43L47 44L44 44L44 42L43 42L43 40L44 40L44 39L45 39L45 41L46 41L46 38L48 38L48 37L49 37L49 36L48 36L48 35L49 35L49 34L50 34L50 33L49 33L49 32L48 32L48 29L47 29L47 33L46 33L46 31L44 31L44 30L46 30L46 26L47 26L47 27L48 27L48 26L49 26L49 24L48 24L48 23L47 23L47 25L46 25L46 24L45 24L45 23L46 23L46 22L47 22L47 21L46 21L46 20L45 20L45 19L46 19L46 18L45 18L45 17L42 17L42 14L44 14L44 13L43 13L43 12L42 12L42 11L41 11L41 9L43 9L43 10L44 10L44 9L45 9L45 10L47 10L47 11L50 11L50 10L47 10L47 9L45 9L45 8L44 8L44 6L45 6L45 7L46 7L46 5L47 5L47 3L46 3L46 2L47 2L47 1ZM10 4L10 5L11 5L11 4ZM24 4L24 6L23 6L23 7L24 7L24 9L26 9L26 6L25 6L25 5L26 5L26 4ZM27 5L27 8L30 8L30 5ZM11 6L11 7L12 7L12 6ZM24 6L24 7L25 7L25 6ZM28 6L28 7L29 7L29 6ZM38 6L38 7L39 7L39 11L38 11L38 9L37 9L37 11L36 11L36 10L35 10L35 11L34 11L34 10L33 10L33 11L32 11L32 12L31 12L31 11L30 11L30 12L31 12L31 13L32 13L32 12L33 12L33 14L32 14L32 15L31 15L31 14L30 14L30 13L28 13L28 12L26 12L26 13L25 13L25 14L24 14L24 15L23 15L23 18L22 18L22 17L21 17L21 16L19 16L19 17L21 17L21 19L20 19L20 18L19 18L19 19L17 19L17 16L18 16L18 14L16 14L16 15L15 15L15 11L16 11L16 10L15 10L15 11L14 11L14 10L13 10L13 11L12 11L12 12L11 12L11 11L10 11L10 10L9 10L9 11L8 11L8 12L9 12L9 13L10 13L10 14L11 14L11 16L10 16L10 18L9 18L9 16L8 16L8 17L7 17L7 18L5 18L5 19L8 19L8 20L9 20L9 22L10 22L10 25L11 25L11 27L12 27L12 28L11 28L11 29L12 29L12 32L10 32L10 33L12 33L12 34L11 34L11 35L12 35L12 37L10 37L10 38L12 38L12 39L13 39L13 40L11 40L11 41L13 41L13 42L9 42L9 39L8 39L8 43L7 43L7 42L6 42L6 43L7 43L7 44L8 44L8 45L9 45L9 43L15 43L15 44L14 44L14 45L17 45L17 43L15 43L15 42L17 42L17 40L16 40L16 39L19 39L19 41L18 41L18 43L19 43L19 44L20 44L20 45L21 45L21 46L22 46L22 44L24 44L24 42L23 42L23 41L22 41L22 40L23 40L23 39L24 39L24 41L25 41L25 42L28 42L28 43L27 43L27 44L29 44L29 43L32 43L32 42L33 42L33 45L32 45L32 46L33 46L33 45L34 45L34 44L35 44L35 45L36 45L36 46L37 46L37 47L38 47L38 45L40 45L40 46L39 46L39 47L43 47L43 49L44 49L44 48L46 48L46 47L47 47L47 46L49 46L49 45L50 45L50 44L49 44L49 43L50 43L50 42L47 42L47 43L48 43L48 44L49 44L49 45L47 45L47 46L46 46L46 47L45 47L45 46L43 46L43 45L42 45L42 43L43 43L43 42L42 42L42 41L41 41L41 42L37 42L37 44L38 44L38 45L36 45L36 44L35 44L35 43L34 43L34 42L36 42L36 41L34 41L34 40L35 40L35 39L36 39L36 38L35 38L35 39L33 39L33 38L34 38L34 37L37 37L37 39L38 39L38 40L37 40L37 41L40 41L40 40L41 40L41 39L44 39L44 38L41 38L41 37L44 37L44 36L45 36L45 38L46 38L46 37L47 37L47 36L45 36L45 33L44 33L44 31L41 31L41 32L40 32L40 31L39 31L39 30L38 30L38 29L40 29L40 30L42 30L42 29L45 29L45 26L46 26L46 25L44 25L44 23L45 23L45 22L44 22L44 21L43 21L43 18L42 18L42 17L41 17L41 18L39 18L39 19L40 19L40 20L38 20L38 19L36 19L36 20L34 20L34 19L33 19L33 21L35 21L35 22L37 22L37 24L36 24L36 23L35 23L35 24L33 24L33 23L34 23L34 22L32 22L32 23L29 23L29 25L28 25L28 26L27 26L27 25L25 25L25 22L27 22L27 23L26 23L26 24L27 24L27 23L28 23L28 21L29 21L29 22L31 22L31 20L32 20L32 18L31 18L31 20L30 20L30 17L29 17L29 16L31 16L31 17L33 17L33 18L35 18L35 17L34 17L34 16L35 16L35 15L33 15L33 14L34 14L34 12L35 12L35 14L36 14L36 15L39 15L39 17L40 17L40 16L41 16L41 13L39 13L39 12L40 12L40 9L41 9L41 8L40 8L40 7L39 7L39 6ZM48 6L48 7L49 7L49 6ZM19 7L19 9L18 9L18 8L17 8L17 12L16 12L16 13L17 13L17 12L18 12L18 13L19 13L19 15L20 15L20 14L21 14L21 13L20 13L20 12L21 12L21 11L23 11L23 10L20 10L20 7ZM15 8L15 9L16 9L16 8ZM56 8L56 9L57 9L57 8ZM1 9L1 11L2 11L2 12L3 12L3 11L4 11L4 10L3 10L3 11L2 11L2 9ZM11 9L11 10L12 10L12 9ZM28 9L28 10L29 10L29 9ZM18 10L18 12L20 12L20 10ZM55 10L55 11L56 11L56 12L57 12L57 10ZM35 11L35 12L36 12L36 11ZM37 11L37 12L38 12L38 11ZM22 12L22 13L23 13L23 12ZM50 12L50 13L51 13L51 15L54 15L54 14L52 14L52 13L51 13L51 12ZM12 13L12 15L13 15L13 16L14 16L14 13ZM26 14L26 16L25 16L25 17L24 17L24 18L23 18L23 19L21 19L21 20L18 20L18 21L19 21L19 22L17 22L17 23L16 23L16 20L17 20L17 19L15 19L15 17L16 17L16 16L17 16L17 15L16 15L16 16L15 16L15 17L11 17L11 19L12 19L12 20L10 20L10 22L11 22L11 23L12 23L12 21L13 21L13 19L15 19L15 20L14 20L14 22L13 22L13 23L16 23L16 24L14 24L14 26L15 26L15 27L17 27L17 30L16 30L16 29L15 29L15 28L14 28L14 27L13 27L13 24L12 24L12 27L13 27L13 28L12 28L12 29L13 29L13 30L14 30L14 31L15 31L15 30L16 30L16 32L14 32L14 33L15 33L15 35L16 35L16 36L14 36L14 37L15 37L15 38L13 38L13 37L12 37L12 38L13 38L13 39L14 39L14 41L15 41L15 38L18 38L18 37L17 37L17 36L18 36L18 35L16 35L16 34L17 34L17 33L16 33L16 32L18 32L18 34L21 34L21 33L20 33L20 31L21 31L21 32L22 32L22 31L23 31L23 33L22 33L22 34L23 34L23 33L24 33L24 31L25 31L25 32L26 32L26 33L25 33L25 34L24 34L24 35L22 35L22 36L20 36L20 35L19 35L19 37L20 37L20 38L21 38L21 37L22 37L22 38L23 38L23 36L25 36L25 37L24 37L24 39L25 39L25 41L26 41L26 40L27 40L27 39L26 39L26 38L29 38L29 36L32 36L32 38L30 38L30 39L28 39L28 41L29 41L29 40L30 40L30 41L31 41L31 40L33 40L33 39L32 39L32 38L33 38L33 36L36 36L36 35L35 35L35 31L37 31L37 32L36 32L36 33L37 33L37 32L38 32L38 34L39 34L39 31L38 31L38 30L37 30L37 27L35 27L35 25L34 25L34 27L35 27L35 28L34 28L34 29L36 29L36 30L35 30L35 31L32 31L32 30L31 30L31 34L30 34L30 35L29 35L29 33L30 33L30 31L29 31L29 32L28 32L28 33L27 33L27 31L25 31L25 30L26 30L26 28L24 28L24 27L25 27L25 25L24 25L24 24L21 24L21 23L22 23L22 22L21 22L21 20L23 20L23 21L24 21L24 22L25 22L25 21L27 21L27 20L29 20L29 21L30 21L30 20L29 20L29 19L28 19L28 18L29 18L29 17L27 17L27 14ZM39 14L39 15L40 15L40 14ZM28 15L28 16L29 16L29 15ZM32 15L32 16L33 16L33 15ZM44 15L44 16L45 16L45 15ZM2 16L2 17L3 17L3 16ZM46 16L46 17L47 17L47 16ZM52 16L52 17L53 17L53 18L54 18L54 17L55 17L55 16ZM25 17L25 18L24 18L24 19L25 19L25 20L27 20L27 19L25 19L25 18L27 18L27 17ZM36 17L36 18L37 18L37 17ZM12 18L12 19L13 19L13 18ZM41 18L41 19L42 19L42 18ZM44 18L44 19L45 19L45 18ZM6 20L6 21L7 21L7 20ZM36 20L36 21L37 21L37 20ZM41 20L41 21L42 21L42 20ZM38 21L38 23L39 23L39 21ZM1 22L1 24L2 24L2 23L3 23L3 22ZM5 22L5 23L7 23L7 24L6 24L6 25L7 25L7 24L8 24L8 23L7 23L7 22ZM19 22L19 24L17 24L17 27L21 27L21 26L22 26L22 27L23 27L23 25L21 25L21 24L20 24L20 23L21 23L21 22ZM42 22L42 23L40 23L40 25L41 25L41 27L42 27L42 28L43 28L43 27L42 27L42 26L44 26L44 25L42 25L42 23L43 23L43 22ZM19 24L19 25L18 25L18 26L19 26L19 25L20 25L20 24ZM32 24L32 25L33 25L33 24ZM38 24L38 25L39 25L39 24ZM15 25L15 26L16 26L16 25ZM30 25L30 26L31 26L31 25ZM38 26L38 27L40 27L40 26ZM0 27L0 28L1 28L1 27ZM5 27L5 30L8 30L8 27ZM27 27L27 30L30 30L30 27ZM31 27L31 28L33 28L33 27ZM49 27L49 30L52 30L52 27ZM6 28L6 29L7 29L7 28ZM13 28L13 29L14 29L14 30L15 30L15 29L14 29L14 28ZM18 28L18 29L21 29L21 30L23 30L23 31L24 31L24 29L21 29L21 28ZM28 28L28 29L29 29L29 28ZM40 28L40 29L41 29L41 28ZM50 28L50 29L51 29L51 28ZM17 30L17 31L19 31L19 30ZM52 31L52 34L54 34L54 33L53 33L53 31ZM54 31L54 32L55 32L55 31ZM12 32L12 33L13 33L13 32ZM33 32L33 33L34 33L34 32ZM42 32L42 33L43 33L43 32ZM26 33L26 34L27 34L27 35L26 35L26 36L29 36L29 35L28 35L28 34L27 34L27 33ZM55 33L55 34L56 34L56 33ZM6 34L6 35L8 35L8 34ZM9 34L9 35L10 35L10 34ZM13 34L13 35L14 35L14 34ZM41 34L41 35L39 35L39 36L40 36L40 37L41 37L41 36L42 36L42 34ZM43 34L43 35L44 35L44 34ZM47 34L47 35L48 35L48 34ZM0 35L0 39L1 39L1 35ZM32 35L32 36L33 36L33 35ZM37 36L37 37L38 37L38 36ZM7 37L7 38L8 38L8 37ZM3 38L3 39L4 39L4 38ZM21 39L21 40L22 40L22 39ZM47 39L47 40L49 40L49 39ZM6 40L6 41L7 41L7 40ZM56 40L56 41L57 41L57 40ZM19 41L19 42L21 42L21 44L22 44L22 42L21 42L21 41ZM1 42L1 43L2 43L2 44L3 44L3 43L2 43L2 42ZM25 43L25 45L26 45L26 46L27 46L27 45L26 45L26 43ZM38 43L38 44L39 44L39 43ZM40 43L40 44L41 44L41 43ZM4 44L4 45L5 45L5 44ZM2 45L2 46L1 46L1 47L2 47L2 46L3 46L3 47L5 47L5 46L3 46L3 45ZM30 45L30 46L31 46L31 45ZM18 47L18 48L19 48L19 49L16 49L16 52L15 52L15 51L14 51L14 50L15 50L15 49L14 49L14 50L13 50L13 51L14 51L14 52L13 52L13 53L14 53L14 52L15 52L15 53L16 53L16 54L17 54L17 56L18 56L18 55L19 55L19 52L20 52L20 51L19 51L19 49L21 49L21 51L23 51L23 52L22 52L22 53L20 53L20 55L21 55L21 54L23 54L23 52L24 52L24 53L25 53L25 52L26 52L26 51L24 51L24 50L25 50L25 48L24 48L24 49L23 49L23 48L19 48L19 47ZM51 47L51 48L52 48L52 47ZM41 48L41 49L42 49L42 48ZM56 48L56 50L57 50L57 48ZM22 49L22 50L23 50L23 49ZM27 49L27 52L30 52L30 49ZM49 49L49 52L52 52L52 49ZM28 50L28 51L29 51L29 50ZM46 50L46 52L47 52L47 50ZM50 50L50 51L51 51L51 50ZM17 51L17 52L18 52L18 51ZM31 51L31 53L32 53L32 51ZM33 52L33 53L34 53L34 52ZM17 53L17 54L18 54L18 53ZM41 53L41 54L42 54L42 53ZM44 54L44 55L45 55L45 54ZM24 55L24 57L25 57L25 55ZM39 55L39 56L40 56L40 55ZM56 55L56 56L57 56L57 55ZM0 0L0 7L7 7L7 0ZM1 1L1 6L6 6L6 1ZM2 2L2 5L5 5L5 2ZM50 0L50 7L57 7L57 0ZM51 1L51 6L56 6L56 1ZM52 2L52 5L55 5L55 2ZM0 50L0 57L7 57L7 50ZM1 51L1 56L6 56L6 51ZM2 52L2 55L5 55L5 52Z" fill="#000000"/></g></g></svg>
