<?xml version="1.0" encoding="UTF-8"?>
<svg xmlns="http://www.w3.org/2000/svg" version="1.1" width="300" height="300" viewBox="0 0 300 300"><rect x="0" y="0" width="300" height="300" fill="#fefefe"/><g transform="scale(4.615)"><g transform="translate(4,4)"><path fill-rule="evenodd" d="M9 0L9 1L8 1L8 2L9 2L9 3L8 3L8 4L9 4L9 5L8 5L8 7L9 7L9 5L10 5L10 4L9 4L9 3L10 3L10 2L12 2L12 4L11 4L11 5L13 5L13 4L14 4L14 2L15 2L15 1L14 1L14 0L11 0L11 1L10 1L10 0ZM19 0L19 1L16 1L16 3L17 3L17 6L16 6L16 7L15 7L15 5L16 5L16 4L15 4L15 5L14 5L14 8L12 8L12 7L13 7L13 6L12 6L12 7L11 7L11 6L10 6L10 8L6 8L6 9L8 9L8 12L10 12L10 13L7 13L7 12L6 12L6 11L7 11L7 10L5 10L5 11L4 11L4 12L3 12L3 14L4 14L4 16L5 16L5 17L4 17L4 18L5 18L5 21L7 21L7 22L5 22L5 24L4 24L4 25L2 25L2 23L0 23L0 24L1 24L1 25L2 25L2 27L1 27L1 26L0 26L0 27L1 27L1 29L3 29L3 28L4 28L4 31L2 31L2 33L3 33L3 32L4 32L4 31L5 31L5 33L4 33L4 34L5 34L5 35L4 35L4 36L3 36L3 37L4 37L4 38L2 38L2 36L1 36L1 35L2 35L2 34L1 34L1 35L0 35L0 36L1 36L1 37L0 37L0 38L1 38L1 39L2 39L2 40L0 40L0 41L1 41L1 42L0 42L0 43L2 43L2 42L4 42L4 45L2 45L2 47L1 47L1 46L0 46L0 48L5 48L5 47L7 47L7 48L6 48L6 49L8 49L8 51L10 51L10 52L8 52L8 57L10 57L10 56L11 56L11 57L13 57L13 56L12 56L12 55L14 55L14 57L16 57L16 56L17 56L17 57L19 57L19 55L20 55L20 54L19 54L19 53L20 53L20 52L23 52L23 50L25 50L25 51L26 51L26 52L24 52L24 53L23 53L23 54L22 54L22 53L21 53L21 56L20 56L20 57L21 57L21 56L24 56L24 55L23 55L23 54L24 54L24 53L25 53L25 54L26 54L26 56L25 56L25 57L26 57L26 56L27 56L27 57L29 57L29 56L30 56L30 57L31 57L31 56L35 56L35 57L39 57L39 56L41 56L41 57L44 57L44 56L42 56L42 55L44 55L44 54L45 54L45 55L47 55L47 56L48 56L48 57L49 57L49 56L50 56L50 57L52 57L52 55L51 55L51 53L52 53L52 54L53 54L53 57L54 57L54 56L55 56L55 57L56 57L56 56L55 56L55 54L53 54L53 52L54 52L54 53L55 53L55 52L56 52L56 50L57 50L57 48L56 48L56 46L57 46L57 44L56 44L56 42L55 42L55 39L57 39L57 35L53 35L53 34L52 34L52 33L54 33L54 34L57 34L57 32L56 32L56 30L57 30L57 27L56 27L56 26L57 26L57 25L56 25L56 22L57 22L57 21L56 21L56 18L52 18L52 19L51 19L51 18L50 18L50 17L49 17L49 16L50 16L50 15L53 15L53 17L56 17L56 16L57 16L57 15L56 15L56 14L57 14L57 11L56 11L56 8L55 8L55 10L54 10L54 11L51 11L51 10L53 10L53 9L54 9L54 8L53 8L53 9L52 9L52 8L51 8L51 10L49 10L49 9L50 9L50 8L48 8L48 7L49 7L49 6L48 6L48 7L47 7L47 5L48 5L48 0L45 0L45 1L47 1L47 2L44 2L44 3L43 3L43 4L40 4L40 5L39 5L39 6L38 6L38 7L37 7L37 5L38 5L38 3L36 3L36 0L35 0L35 1L33 1L33 0L29 0L29 1L25 1L25 0L23 0L23 2L29 2L29 3L30 3L30 4L26 4L26 3L23 3L23 4L19 4L19 3L18 3L18 2L20 2L20 0ZM21 0L21 3L22 3L22 0ZM37 0L37 1L38 1L38 2L39 2L39 3L41 3L41 2L43 2L43 0L41 0L41 1L40 1L40 0L39 0L39 1L38 1L38 0ZM12 1L12 2L14 2L14 1ZM29 1L29 2L30 2L30 1ZM31 1L31 3L32 3L32 4L31 4L31 8L32 8L32 10L31 10L31 11L29 11L29 9L27 9L27 11L26 11L26 12L25 12L25 10L23 10L23 8L24 8L24 6L23 6L23 5L24 5L24 4L23 4L23 5L21 5L21 7L22 7L22 8L19 8L19 7L20 7L20 5L18 5L18 6L17 6L17 7L16 7L16 8L14 8L14 9L13 9L13 10L12 10L12 9L11 9L11 10L9 10L9 11L10 11L10 12L12 12L12 13L11 13L11 14L10 14L10 16L9 16L9 14L7 14L7 13L6 13L6 14L7 14L7 15L5 15L5 16L9 16L9 19L6 19L6 20L9 20L9 21L8 21L8 22L7 22L7 23L6 23L6 24L7 24L7 23L8 23L8 24L10 24L10 25L6 25L6 26L11 26L11 24L12 24L12 27L9 27L9 31L8 31L8 32L7 32L7 31L6 31L6 32L7 32L7 33L5 33L5 34L7 34L7 35L6 35L6 36L4 36L4 37L6 37L6 38L4 38L4 39L3 39L3 40L2 40L2 41L5 41L5 43L6 43L6 44L7 44L7 45L6 45L6 46L7 46L7 47L8 47L8 46L9 46L9 45L13 45L13 46L12 46L12 47L11 47L11 46L10 46L10 48L9 48L9 49L10 49L10 51L11 51L11 50L12 50L12 52L10 52L10 53L11 53L11 54L13 54L13 53L12 53L12 52L13 52L13 51L14 51L14 52L15 52L15 51L16 51L16 53L14 53L14 55L15 55L15 56L16 56L16 55L15 55L15 54L16 54L16 53L17 53L17 52L19 52L19 51L18 51L18 50L17 50L17 49L16 49L16 48L19 48L19 47L20 47L20 48L21 48L21 49L19 49L19 50L20 50L20 51L22 51L22 50L21 50L21 49L23 49L23 47L25 47L25 48L24 48L24 49L25 49L25 48L27 48L27 47L28 47L28 48L30 48L30 47L29 47L29 46L31 46L31 47L32 47L32 46L35 46L35 48L36 48L36 47L37 47L37 45L36 45L36 46L35 46L35 45L34 45L34 43L35 43L35 44L36 44L36 43L37 43L37 42L35 42L35 40L38 40L38 42L39 42L39 41L41 41L41 40L42 40L42 41L43 41L43 44L44 44L44 46L48 46L48 45L49 45L49 46L50 46L50 48L51 48L51 47L52 47L52 46L53 46L53 47L54 47L54 46L53 46L53 45L52 45L52 44L53 44L53 43L54 43L54 42L53 42L53 41L51 41L51 42L50 42L50 43L49 43L49 42L48 42L48 41L49 41L49 39L54 39L54 38L53 38L53 35L52 35L52 34L50 34L50 32L51 32L51 33L52 33L52 32L53 32L53 31L50 31L50 32L49 32L49 31L48 31L48 28L47 28L47 29L46 29L46 30L47 30L47 31L45 31L45 32L43 32L43 31L44 31L44 30L45 30L45 28L46 28L46 27L47 27L47 24L51 24L51 25L50 25L50 26L53 26L53 27L54 27L54 26L53 26L53 25L54 25L54 24L53 24L53 23L55 23L55 22L56 22L56 21L55 21L55 20L53 20L53 19L52 19L52 20L51 20L51 21L49 21L49 19L50 19L50 18L47 18L47 17L48 17L48 16L49 16L49 15L50 15L50 14L51 14L51 12L50 12L50 11L49 11L49 10L48 10L48 11L49 11L49 12L45 12L45 11L46 11L46 10L47 10L47 7L46 7L46 6L45 6L45 4L46 4L46 5L47 5L47 3L44 3L44 6L43 6L43 7L42 7L42 5L40 5L40 6L39 6L39 7L40 7L40 8L38 8L38 11L39 11L39 12L40 12L40 13L38 13L38 14L37 14L37 15L35 15L35 16L31 16L31 17L33 17L33 18L30 18L30 19L33 19L33 18L34 18L34 19L36 19L36 20L37 20L37 19L39 19L39 17L41 17L41 16L42 16L42 17L43 17L43 16L42 16L42 15L44 15L44 18L43 18L43 20L44 20L44 25L45 25L45 28L44 28L44 30L40 30L40 29L43 29L43 27L44 27L44 26L41 26L41 27L39 27L39 25L42 25L42 24L39 24L39 23L40 23L40 22L39 22L39 21L42 21L42 20L39 20L39 21L38 21L38 22L37 22L37 24L39 24L39 25L38 25L38 26L37 26L37 25L33 25L33 24L32 24L32 23L35 23L35 20L32 20L32 21L31 21L31 22L30 22L30 21L29 21L29 19L28 19L28 18L27 18L27 17L28 17L28 16L29 16L29 14L30 14L30 15L31 15L31 14L32 14L32 13L33 13L33 14L36 14L36 13L35 13L35 11L36 11L36 10L37 10L37 9L35 9L35 8L37 8L37 7L36 7L36 5L37 5L37 4L36 4L36 5L35 5L35 3L32 3L32 2L33 2L33 1ZM25 4L25 8L26 8L26 4ZM32 4L32 5L33 5L33 4ZM27 5L27 8L30 8L30 5ZM34 5L34 7L33 7L33 6L32 6L32 7L33 7L33 9L34 9L34 8L35 8L35 5ZM18 6L18 7L19 7L19 6ZM22 6L22 7L23 7L23 6ZM28 6L28 7L29 7L29 6ZM40 6L40 7L41 7L41 6ZM44 6L44 7L43 7L43 9L41 9L41 10L40 10L40 12L41 12L41 10L44 10L44 11L43 11L43 13L41 13L41 14L38 14L38 15L39 15L39 16L38 16L38 17L37 17L37 16L35 16L35 17L37 17L37 18L38 18L38 17L39 17L39 16L41 16L41 14L43 14L43 13L44 13L44 15L45 15L45 17L47 17L47 16L48 16L48 15L49 15L49 14L50 14L50 12L49 12L49 13L47 13L47 14L45 14L45 13L44 13L44 11L45 11L45 10L46 10L46 9L45 9L45 10L44 10L44 8L46 8L46 7L45 7L45 6ZM0 8L0 9L2 9L2 11L1 11L1 12L2 12L2 11L3 11L3 9L5 9L5 8ZM16 8L16 9L17 9L17 10L18 10L18 11L17 11L17 12L16 12L16 13L15 13L15 10L13 10L13 11L12 11L12 12L13 12L13 13L15 13L15 14L13 14L13 15L14 15L14 16L12 16L12 14L11 14L11 16L10 16L10 17L11 17L11 16L12 16L12 17L14 17L14 18L15 18L15 19L17 19L17 21L16 21L16 20L15 20L15 21L16 21L16 22L14 22L14 21L13 21L13 20L14 20L14 19L13 19L13 20L11 20L11 19L12 19L12 18L10 18L10 19L9 19L9 20L10 20L10 21L9 21L9 22L8 22L8 23L9 23L9 22L10 22L10 21L11 21L11 22L13 22L13 25L16 25L16 24L17 24L17 26L15 26L15 28L16 28L16 29L15 29L15 31L14 31L14 29L11 29L11 28L10 28L10 29L11 29L11 30L13 30L13 32L11 32L11 31L10 31L10 32L11 32L11 33L9 33L9 32L8 32L8 33L7 33L7 34L8 34L8 33L9 33L9 34L12 34L12 35L11 35L11 36L10 36L10 35L8 35L8 36L6 36L6 37L9 37L9 36L10 36L10 37L11 37L11 38L6 38L6 39L5 39L5 41L10 41L10 40L11 40L11 38L13 38L13 40L12 40L12 41L11 41L11 42L6 42L6 43L8 43L8 44L9 44L9 43L14 43L14 45L15 45L15 43L16 43L16 44L18 44L18 45L17 45L17 46L18 46L18 47L19 47L19 46L20 46L20 47L23 47L23 46L25 46L25 45L23 45L23 43L24 43L24 44L27 44L27 45L26 45L26 47L27 47L27 45L28 45L28 44L29 44L29 43L31 43L31 44L30 44L30 45L31 45L31 46L32 46L32 45L31 45L31 44L33 44L33 43L34 43L34 42L33 42L33 41L32 41L32 40L30 40L30 41L32 41L32 42L28 42L28 44L27 44L27 43L24 43L24 42L25 42L25 41L24 41L24 40L25 40L25 39L26 39L26 40L28 40L28 39L27 39L27 38L28 38L28 37L26 37L26 38L25 38L25 36L26 36L26 35L27 35L27 31L29 31L29 32L28 32L28 33L29 33L29 34L30 34L30 36L29 36L29 37L31 37L31 38L29 38L29 39L33 39L33 40L35 40L35 39L38 39L38 40L39 40L39 39L38 39L38 37L37 37L37 36L38 36L38 33L37 33L37 32L35 32L35 31L36 31L36 30L37 30L37 29L38 29L38 28L39 28L39 27L36 27L36 26L34 26L34 27L33 27L33 26L32 26L32 24L31 24L31 23L30 23L30 22L29 22L29 23L28 23L28 24L27 24L27 22L28 22L28 21L26 21L26 17L27 17L27 16L28 16L28 15L27 15L27 16L26 16L26 15L24 15L24 16L26 16L26 17L22 17L22 16L21 16L21 17L22 17L22 19L20 19L20 20L19 20L19 18L20 18L20 15L23 15L23 14L22 14L22 13L24 13L24 14L25 14L25 13L24 13L24 11L23 11L23 10L22 10L22 11L19 11L19 10L20 10L20 9L19 9L19 8ZM18 9L18 10L19 10L19 9ZM32 10L32 11L31 11L31 13L30 13L30 14L31 14L31 13L32 13L32 11L33 11L33 10ZM13 11L13 12L14 12L14 11ZM27 11L27 12L26 12L26 14L27 14L27 13L28 13L28 14L29 14L29 13L28 13L28 12L29 12L29 11ZM55 11L55 12L54 12L54 13L55 13L55 14L53 14L53 15L55 15L55 14L56 14L56 11ZM17 12L17 13L16 13L16 17L15 17L15 16L14 16L14 17L15 17L15 18L17 18L17 16L19 16L19 15L20 15L20 14L21 14L21 13L22 13L22 12L20 12L20 14L18 14L18 15L17 15L17 13L18 13L18 12ZM33 12L33 13L34 13L34 12ZM52 12L52 13L53 13L53 12ZM1 13L1 14L0 14L0 15L1 15L1 16L0 16L0 22L3 22L3 21L4 21L4 20L2 20L2 19L1 19L1 18L3 18L3 17L1 17L1 16L2 16L2 15L1 15L1 14L2 14L2 13ZM4 13L4 14L5 14L5 13ZM46 15L46 16L47 16L47 15ZM5 17L5 18L8 18L8 17ZM18 17L18 18L19 18L19 17ZM23 18L23 19L22 19L22 20L20 20L20 21L18 21L18 22L17 22L17 24L19 24L19 25L20 25L20 26L18 26L18 27L16 27L16 28L18 28L18 29L16 29L16 31L15 31L15 32L13 32L13 34L14 34L14 35L16 35L16 36L15 36L15 37L16 37L16 38L15 38L15 39L16 39L16 40L15 40L15 41L16 41L16 42L17 42L17 43L18 43L18 42L19 42L19 41L18 41L18 42L17 42L17 41L16 41L16 40L17 40L17 39L18 39L18 38L19 38L19 39L20 39L20 38L19 38L19 37L22 37L22 40L20 40L20 43L22 43L22 42L24 42L24 41L23 41L23 40L24 40L24 39L23 39L23 38L24 38L24 37L23 37L23 36L24 36L24 34L23 34L23 33L25 33L25 35L26 35L26 31L25 31L25 32L24 32L24 31L23 31L23 29L26 29L26 28L24 28L24 27L26 27L26 26L28 26L28 25L29 25L29 26L30 26L30 25L29 25L29 24L28 24L28 25L27 25L27 24L25 24L25 23L26 23L26 22L25 22L25 21L24 21L24 20L23 20L23 19L24 19L24 18ZM41 18L41 19L42 19L42 18ZM44 18L44 20L47 20L47 18L46 18L46 19L45 19L45 18ZM1 20L1 21L2 21L2 20ZM22 21L22 22L24 22L24 21ZM45 21L45 22L46 22L46 23L45 23L45 24L46 24L46 23L47 23L47 22L49 22L49 21L47 21L47 22L46 22L46 21ZM51 21L51 22L50 22L50 23L53 23L53 21ZM19 22L19 23L20 23L20 22ZM15 23L15 24L16 24L16 23ZM23 23L23 24L24 24L24 25L22 25L22 24L20 24L20 25L22 25L22 26L20 26L20 28L19 28L19 29L18 29L18 33L17 33L17 34L16 34L16 35L18 35L18 37L17 37L17 38L18 38L18 37L19 37L19 36L20 36L20 33L21 33L21 34L22 34L22 33L21 33L21 32L23 32L23 31L21 31L21 30L20 30L20 32L19 32L19 29L22 29L22 28L21 28L21 27L22 27L22 26L26 26L26 25L25 25L25 24L24 24L24 23ZM55 25L55 26L56 26L56 25ZM3 26L3 27L2 27L2 28L3 28L3 27L4 27L4 26ZM13 26L13 27L12 27L12 28L14 28L14 26ZM31 26L31 28L32 28L32 30L31 30L31 31L30 31L30 32L29 32L29 33L31 33L31 31L32 31L32 35L33 35L33 34L35 34L35 36L37 36L37 34L35 34L35 33L33 33L33 32L34 32L34 31L33 31L33 30L35 30L35 28L33 28L33 27L32 27L32 26ZM5 27L5 30L8 30L8 27ZM27 27L27 30L30 30L30 27ZM41 27L41 28L42 28L42 27ZM49 27L49 30L52 30L52 27ZM55 27L55 28L54 28L54 29L55 29L55 28L56 28L56 27ZM6 28L6 29L7 29L7 28ZM28 28L28 29L29 29L29 28ZM50 28L50 29L51 29L51 28ZM0 30L0 31L1 31L1 30ZM38 30L38 32L39 32L39 30ZM47 31L47 32L46 32L46 33L47 33L47 32L48 32L48 33L49 33L49 32L48 32L48 31ZM15 32L15 33L16 33L16 32ZM41 32L41 33L39 33L39 34L40 34L40 35L39 35L39 37L40 37L40 38L43 38L43 37L44 37L44 38L45 38L45 39L44 39L44 40L43 40L43 41L44 41L44 42L45 42L45 41L47 41L47 39L48 39L48 38L51 38L51 37L52 37L52 35L50 35L50 34L48 34L48 35L47 35L47 34L45 34L45 33L43 33L43 32ZM55 32L55 33L56 33L56 32ZM18 33L18 34L19 34L19 33ZM42 34L42 35L41 35L41 36L40 36L40 37L43 37L43 36L44 36L44 37L45 37L45 38L46 38L46 39L47 39L47 38L48 38L48 37L50 37L50 35L48 35L48 36L47 36L47 35L45 35L45 34ZM12 35L12 36L13 36L13 35ZM22 35L22 36L23 36L23 35ZM44 35L44 36L45 36L45 37L46 37L46 36L45 36L45 35ZM32 36L32 37L33 37L33 39L35 39L35 37L33 37L33 36ZM55 36L55 37L56 37L56 36ZM13 37L13 38L14 38L14 37ZM6 39L6 40L7 40L7 39ZM8 39L8 40L10 40L10 39ZM13 40L13 42L14 42L14 40ZM44 40L44 41L45 41L45 40ZM26 41L26 42L27 42L27 41ZM32 42L32 43L33 43L33 42ZM41 42L41 43L39 43L39 45L38 45L38 46L39 46L39 45L41 45L41 44L42 44L42 42ZM47 42L47 43L46 43L46 44L45 44L45 45L47 45L47 43L48 43L48 42ZM51 42L51 43L50 43L50 46L52 46L52 45L51 45L51 43L53 43L53 42ZM20 44L20 46L21 46L21 45L22 45L22 46L23 46L23 45L22 45L22 44ZM54 44L54 45L55 45L55 46L56 46L56 45L55 45L55 44ZM4 45L4 46L3 46L3 47L5 47L5 45ZM14 46L14 47L13 47L13 48L11 48L11 49L14 49L14 51L15 51L15 50L16 50L16 49L15 49L15 48L16 48L16 47L15 47L15 46ZM41 46L41 48L39 48L39 47L38 47L38 48L37 48L37 49L38 49L38 50L36 50L36 49L33 49L33 48L34 48L34 47L33 47L33 48L32 48L32 49L31 49L31 50L32 50L32 51L31 51L31 53L30 53L30 54L27 54L27 53L26 53L26 54L27 54L27 56L29 56L29 55L30 55L30 56L31 56L31 54L32 54L32 53L33 53L33 54L34 54L34 55L35 55L35 56L36 56L36 54L35 54L35 53L34 53L34 52L35 52L35 50L36 50L36 52L37 52L37 53L38 53L38 54L37 54L37 56L39 56L39 55L38 55L38 54L40 54L40 53L43 53L43 54L44 54L44 53L45 53L45 54L47 54L47 53L48 53L48 50L47 50L47 49L48 49L48 48L49 48L49 47L48 47L48 48L47 48L47 47L46 47L46 48L44 48L44 47L43 47L43 46ZM14 47L14 48L15 48L15 47ZM42 47L42 48L41 48L41 50L38 50L38 51L37 51L37 52L38 52L38 53L39 53L39 52L38 52L38 51L40 51L40 52L41 52L41 50L42 50L42 51L43 51L43 53L44 53L44 52L45 52L45 53L47 53L47 51L46 51L46 52L45 52L45 51L44 51L44 50L45 50L45 49L44 49L44 48L43 48L43 47ZM38 48L38 49L39 49L39 48ZM42 48L42 49L43 49L43 48ZM53 48L53 49L55 49L55 50L54 50L54 51L55 51L55 50L56 50L56 48ZM27 49L27 52L30 52L30 49ZM32 49L32 50L33 50L33 51L32 51L32 52L33 52L33 51L34 51L34 50L33 50L33 49ZM49 49L49 52L52 52L52 49ZM28 50L28 51L29 51L29 50ZM50 50L50 51L51 51L51 50ZM9 54L9 55L10 55L10 54ZM17 54L17 56L18 56L18 55L19 55L19 54ZM48 55L48 56L49 56L49 55ZM50 55L50 56L51 56L51 55ZM45 56L45 57L46 57L46 56ZM0 0L0 7L7 7L7 0ZM1 1L1 6L6 6L6 1ZM2 2L2 5L5 5L5 2ZM50 0L50 7L57 7L57 0ZM51 1L51 6L56 6L56 1ZM52 2L52 5L55 5L55 2ZM0 50L0 57L7 57L7 50ZM1 51L1 56L6 56L6 51ZM2 52L2 55L5 55L5 52Z" fill="#000000"/></g></g></svg>
