<?xml version="1.0" encoding="UTF-8"?>
<svg xmlns="http://www.w3.org/2000/svg" version="1.1" width="300" height="300" viewBox="0 0 300 300"><rect x="0" y="0" width="300" height="300" fill="#fefefe"/><g transform="scale(4.615)"><g transform="translate(4,4)"><path fill-rule="evenodd" d="M8 0L8 4L9 4L9 5L8 5L8 7L9 7L9 5L10 5L10 4L11 4L11 3L12 3L12 5L13 5L13 6L12 6L12 7L11 7L11 6L10 6L10 7L11 7L11 9L12 9L12 10L13 10L13 11L14 11L14 12L15 12L15 13L13 13L13 12L12 12L12 14L14 14L14 17L13 17L13 15L12 15L12 17L11 17L11 15L10 15L10 14L11 14L11 13L10 13L10 14L9 14L9 11L10 11L10 12L11 12L11 11L10 11L10 8L9 8L9 10L8 10L8 9L7 9L7 8L4 8L4 9L3 9L3 10L1 10L1 9L2 9L2 8L0 8L0 10L1 10L1 12L2 12L2 13L3 13L3 14L2 14L2 16L3 16L3 18L1 18L1 14L0 14L0 19L1 19L1 20L5 20L5 21L3 21L3 22L2 22L2 21L0 21L0 25L1 25L1 26L0 26L0 28L2 28L2 29L0 29L0 30L1 30L1 32L0 32L0 33L1 33L1 34L2 34L2 36L4 36L4 37L7 37L7 36L9 36L9 37L8 37L8 39L7 39L7 38L6 38L6 39L7 39L7 40L6 40L6 41L7 41L7 42L4 42L4 45L5 45L5 47L3 47L3 46L2 46L2 45L3 45L3 43L1 43L1 42L0 42L0 44L2 44L2 45L1 45L1 46L0 46L0 48L5 48L5 47L8 47L8 46L6 46L6 45L7 45L7 44L8 44L8 45L10 45L10 46L9 46L9 47L10 47L10 48L9 48L9 49L8 49L8 48L6 48L6 49L8 49L8 50L9 50L9 51L8 51L8 53L9 53L9 55L8 55L8 57L12 57L12 55L11 55L11 56L10 56L10 54L13 54L13 53L11 53L11 51L12 51L12 52L14 52L14 53L15 53L15 54L14 54L14 56L15 56L15 57L16 57L16 56L15 56L15 55L16 55L16 54L17 54L17 55L20 55L20 54L21 54L21 55L22 55L22 56L20 56L20 57L22 57L22 56L23 56L23 55L24 55L24 57L25 57L25 54L27 54L27 53L28 53L28 57L29 57L29 55L30 55L30 57L34 57L34 55L35 55L35 57L37 57L37 56L36 56L36 54L37 54L37 55L40 55L40 56L39 56L39 57L40 57L40 56L41 56L41 57L43 57L43 55L44 55L44 57L45 57L45 56L46 56L46 57L47 57L47 56L48 56L48 55L47 55L47 56L46 56L46 55L44 55L44 53L45 53L45 54L46 54L46 49L47 49L47 52L48 52L48 54L49 54L49 57L50 57L50 55L51 55L51 56L53 56L53 57L54 57L54 55L55 55L55 54L57 54L57 53L55 53L55 52L56 52L56 45L57 45L57 43L56 43L56 42L57 42L57 40L55 40L55 41L53 41L53 39L54 39L54 38L55 38L55 39L57 39L57 38L55 38L55 37L56 37L56 36L57 36L57 35L56 35L56 34L57 34L57 33L56 33L56 30L55 30L55 29L57 29L57 27L56 27L56 25L57 25L57 24L56 24L56 21L57 21L57 20L56 20L56 19L55 19L55 22L53 22L53 21L52 21L52 20L53 20L53 19L50 19L50 18L52 18L52 16L53 16L53 15L54 15L54 14L55 14L55 16L56 16L56 17L57 17L57 15L56 15L56 13L54 13L54 12L53 12L53 13L52 13L52 14L51 14L51 12L52 12L52 10L53 10L53 11L54 11L54 10L53 10L53 9L56 9L56 10L55 10L55 11L56 11L56 10L57 10L57 8L53 8L53 9L52 9L52 8L51 8L51 9L48 9L48 8L47 8L47 5L48 5L48 0L46 0L46 1L47 1L47 2L45 2L45 0L41 0L41 1L40 1L40 2L38 2L38 1L39 1L39 0L38 0L38 1L37 1L37 2L36 2L36 0L35 0L35 1L34 1L34 0L32 0L32 3L30 3L30 4L29 4L29 3L28 3L28 4L26 4L26 3L25 3L25 2L26 2L26 1L27 1L27 0L26 0L26 1L25 1L25 0L23 0L23 2L22 2L22 1L21 1L21 0L20 0L20 2L18 2L18 3L17 3L17 2L16 2L16 4L17 4L17 6L16 6L16 5L15 5L15 4L14 4L14 1L16 1L16 0L13 0L13 1L12 1L12 2L11 2L11 0ZM18 0L18 1L19 1L19 0ZM28 0L28 2L31 2L31 0ZM9 1L9 4L10 4L10 3L11 3L11 2L10 2L10 1ZM33 1L33 3L32 3L32 5L33 5L33 7L32 7L32 6L31 6L31 10L28 10L28 9L26 9L26 6L25 6L25 7L24 7L24 6L23 6L23 5L24 5L24 4L25 4L25 3L23 3L23 5L22 5L22 2L20 2L20 3L18 3L18 6L17 6L17 8L19 8L19 7L20 7L20 6L21 6L21 7L22 7L22 6L23 6L23 7L24 7L24 8L22 8L22 9L21 9L21 10L20 10L20 9L19 9L19 10L18 10L18 9L16 9L16 10L15 10L15 12L16 12L16 10L18 10L18 11L17 11L17 13L15 13L15 14L17 14L17 16L18 16L18 15L19 15L19 17L18 17L18 19L17 19L17 17L16 17L16 20L15 20L15 18L13 18L13 17L12 17L12 19L14 19L14 20L15 20L15 21L17 21L17 22L16 22L16 23L15 23L15 24L14 24L14 25L13 25L13 27L14 27L14 28L13 28L13 29L11 29L11 28L10 28L10 27L11 27L11 26L12 26L12 25L10 25L10 24L11 24L11 23L13 23L13 22L14 22L14 21L13 21L13 22L12 22L12 21L11 21L11 23L10 23L10 22L9 22L9 23L5 23L5 22L4 22L4 25L2 25L2 24L3 24L3 23L2 23L2 22L1 22L1 23L2 23L2 24L1 24L1 25L2 25L2 26L1 26L1 27L2 27L2 28L4 28L4 25L5 25L5 26L7 26L7 25L10 25L10 27L9 27L9 29L10 29L10 30L11 30L11 31L9 31L9 32L8 32L8 31L4 31L4 30L3 30L3 29L2 29L2 30L3 30L3 31L2 31L2 32L7 32L7 33L6 33L6 34L3 34L3 35L6 35L6 36L7 36L7 35L6 35L6 34L7 34L7 33L9 33L9 34L8 34L8 35L9 35L9 36L10 36L10 38L9 38L9 39L8 39L8 40L7 40L7 41L8 41L8 42L7 42L7 43L6 43L6 44L5 44L5 45L6 45L6 44L7 44L7 43L9 43L9 44L10 44L10 45L11 45L11 44L10 44L10 42L11 42L11 43L12 43L12 44L13 44L13 45L14 45L14 44L13 44L13 43L15 43L15 42L13 42L13 43L12 43L12 42L11 42L11 41L12 41L12 40L10 40L10 38L11 38L11 39L12 39L12 38L13 38L13 37L15 37L15 38L14 38L14 41L16 41L16 46L14 46L14 47L15 47L15 49L14 49L14 48L13 48L13 46L11 46L11 47L12 47L12 48L13 48L13 49L11 49L11 48L10 48L10 49L11 49L11 50L12 50L12 51L14 51L14 52L15 52L15 53L17 53L17 52L16 52L16 50L17 50L17 48L19 48L19 51L18 51L18 52L19 52L19 53L20 53L20 52L19 52L19 51L21 51L21 50L22 50L22 49L23 49L23 48L24 48L24 49L25 49L25 53L24 53L24 52L23 52L23 51L22 51L22 53L21 53L21 54L22 54L22 55L23 55L23 54L22 54L22 53L24 53L24 54L25 54L25 53L26 53L26 49L25 49L25 48L24 48L24 47L23 47L23 45L25 45L25 44L24 44L24 43L23 43L23 41L25 41L25 40L26 40L26 39L28 39L28 38L29 38L29 39L31 39L31 40L29 40L29 41L28 41L28 42L27 42L27 41L26 41L26 42L25 42L25 43L27 43L27 45L26 45L26 46L25 46L25 47L26 47L26 48L27 48L27 47L28 47L28 46L29 46L29 47L30 47L30 48L31 48L31 49L32 49L32 51L31 51L31 52L32 52L32 51L34 51L34 52L33 52L33 53L32 53L32 54L33 54L33 53L34 53L34 54L35 54L35 53L34 53L34 52L36 52L36 49L34 49L34 50L33 50L33 49L32 49L32 48L34 48L34 47L36 47L36 48L37 48L37 46L38 46L38 45L39 45L39 47L38 47L38 49L37 49L37 53L38 53L38 52L40 52L40 53L42 53L42 52L43 52L43 53L44 53L44 52L43 52L43 50L42 50L42 52L41 52L41 46L40 46L40 45L41 45L41 44L40 44L40 42L41 42L41 43L42 43L42 44L43 44L43 45L44 45L44 46L43 46L43 47L42 47L42 49L44 49L44 48L45 48L45 49L46 49L46 48L47 48L47 49L48 49L48 47L49 47L49 48L51 48L51 47L52 47L52 48L53 48L53 47L54 47L54 49L55 49L55 47L54 47L54 46L55 46L55 45L56 45L56 44L55 44L55 42L56 42L56 41L55 41L55 42L54 42L54 43L53 43L53 41L52 41L52 38L53 38L53 36L55 36L55 35L53 35L53 34L54 34L54 33L55 33L55 34L56 34L56 33L55 33L55 31L54 31L54 29L55 29L55 28L56 28L56 27L55 27L55 26L54 26L54 27L53 27L53 28L54 28L54 29L53 29L53 33L51 33L51 31L49 31L49 32L50 32L50 35L49 35L49 36L46 36L46 35L45 35L45 34L44 34L44 33L43 33L43 34L44 34L44 35L42 35L42 34L40 34L40 33L41 33L41 32L40 32L40 30L39 30L39 32L40 32L40 33L39 33L39 34L38 34L38 33L37 33L37 34L38 34L38 35L37 35L37 36L38 36L38 37L37 37L37 38L35 38L35 35L34 35L34 34L35 34L35 33L34 33L34 31L36 31L36 30L35 30L35 27L36 27L36 28L37 28L37 29L38 29L38 28L37 28L37 27L39 27L39 28L40 28L40 29L43 29L43 31L45 31L45 30L46 30L46 32L45 32L45 33L46 33L46 34L49 34L49 33L48 33L48 31L47 31L47 30L48 30L48 29L46 29L46 28L47 28L47 27L48 27L48 26L47 26L47 25L48 25L48 24L46 24L46 23L47 23L47 21L45 21L45 22L44 22L44 16L46 16L46 19L47 19L47 20L49 20L49 21L51 21L51 22L52 22L52 23L50 23L50 22L49 22L49 24L50 24L50 25L49 25L49 26L50 26L50 25L51 25L51 24L52 24L52 25L53 25L53 24L55 24L55 25L56 25L56 24L55 24L55 23L53 23L53 22L52 22L52 21L51 21L51 20L49 20L49 18L50 18L50 17L49 17L49 18L48 18L48 19L47 19L47 17L48 17L48 15L50 15L50 16L52 16L52 15L53 15L53 14L54 14L54 13L53 13L53 14L52 14L52 15L50 15L50 11L48 11L48 9L47 9L47 8L46 8L46 9L44 9L44 4L46 4L46 5L45 5L45 7L46 7L46 5L47 5L47 3L44 3L44 2L43 2L43 3L44 3L44 4L43 4L43 9L44 9L44 10L42 10L42 11L44 11L44 12L41 12L41 8L42 8L42 5L39 5L39 7L40 7L40 6L41 6L41 8L40 8L40 10L38 10L38 9L39 9L39 8L37 8L37 9L35 9L35 7L36 7L36 5L38 5L38 4L40 4L40 3L41 3L41 2L40 2L40 3L38 3L38 2L37 2L37 3L36 3L36 2L35 2L35 4L34 4L34 5L33 5L33 3L34 3L34 1ZM12 2L12 3L13 3L13 2ZM35 4L35 5L34 5L34 7L33 7L33 8L32 8L32 11L29 11L29 12L32 12L32 13L30 13L30 15L33 15L33 16L32 16L32 17L31 17L31 16L29 16L29 13L26 13L26 11L27 11L27 12L28 12L28 10L25 10L25 8L24 8L24 9L22 9L22 10L23 10L23 11L24 11L24 12L22 12L22 11L20 11L20 12L18 12L18 13L17 13L17 14L19 14L19 13L20 13L20 14L21 14L21 15L20 15L20 21L19 21L19 19L18 19L18 20L17 20L17 21L19 21L19 23L18 23L18 24L17 24L17 25L18 25L18 27L17 27L17 28L16 28L16 24L15 24L15 25L14 25L14 27L15 27L15 29L18 29L18 30L15 30L15 31L14 31L14 29L13 29L13 31L14 31L14 32L12 32L12 31L11 31L11 33L13 33L13 34L14 34L14 36L15 36L15 37L16 37L16 36L17 36L17 38L16 38L16 39L15 39L15 40L16 40L16 41L20 41L20 42L22 42L22 36L23 36L23 37L24 37L24 38L25 38L25 39L26 39L26 37L28 37L28 36L29 36L29 37L31 37L31 36L32 36L32 37L33 37L33 38L31 38L31 39L33 39L33 40L32 40L32 41L31 41L31 43L29 43L29 42L28 42L28 43L29 43L29 44L30 44L30 46L31 46L31 48L32 48L32 45L33 45L33 47L34 47L34 45L36 45L36 46L37 46L37 44L39 44L39 45L40 45L40 44L39 44L39 41L40 41L40 40L42 40L42 41L41 41L41 42L43 42L43 43L44 43L44 45L45 45L45 46L44 46L44 47L46 47L46 45L47 45L47 44L49 44L49 43L50 43L50 45L48 45L48 46L49 46L49 47L50 47L50 45L51 45L51 46L52 46L52 47L53 47L53 46L52 46L52 45L54 45L54 44L53 44L53 43L52 43L52 41L51 41L51 43L50 43L50 42L49 42L49 41L48 41L48 43L47 43L47 44L46 44L46 45L45 45L45 43L46 43L46 41L47 41L47 40L49 40L49 39L50 39L50 40L51 40L51 39L50 39L50 36L53 36L53 35L50 35L50 36L49 36L49 38L48 38L48 39L47 39L47 38L46 38L46 37L45 37L45 35L44 35L44 37L42 37L42 35L41 35L41 37L38 37L38 38L37 38L37 39L35 39L35 42L34 42L34 39L33 39L33 38L34 38L34 35L32 35L32 34L34 34L34 33L33 33L33 32L32 32L32 34L31 34L31 33L29 33L29 32L28 32L28 31L30 31L30 32L31 32L31 30L32 30L32 31L34 31L34 27L33 27L33 26L34 26L34 25L37 25L37 24L34 24L34 23L35 23L35 22L37 22L37 23L39 23L39 25L38 25L38 26L39 26L39 25L40 25L40 26L41 26L41 25L42 25L42 28L44 28L44 29L45 29L45 27L44 27L44 26L46 26L46 27L47 27L47 26L46 26L46 25L45 25L45 24L44 24L44 22L43 22L43 20L42 20L42 21L40 21L40 18L41 18L41 19L42 19L42 18L43 18L43 17L42 17L42 15L43 15L43 16L44 16L44 15L46 15L46 16L47 16L47 15L46 15L46 11L45 11L45 10L44 10L44 11L45 11L45 12L44 12L44 15L43 15L43 13L41 13L41 14L40 14L40 12L39 12L39 11L38 11L38 10L37 10L37 11L36 11L36 10L34 10L34 9L33 9L33 8L34 8L34 7L35 7L35 5L36 5L36 4ZM14 5L14 6L13 6L13 7L12 7L12 8L13 8L13 10L14 10L14 6L15 6L15 7L16 7L16 6L15 6L15 5ZM19 5L19 6L18 6L18 7L19 7L19 6L20 6L20 5ZM21 5L21 6L22 6L22 5ZM27 5L27 8L30 8L30 5ZM28 6L28 7L29 7L29 6ZM37 6L37 7L38 7L38 6ZM48 6L48 7L49 7L49 6ZM5 9L5 12L8 12L8 11L6 11L6 10L7 10L7 9ZM51 9L51 10L52 10L52 9ZM3 10L3 11L2 11L2 12L3 12L3 13L4 13L4 12L3 12L3 11L4 11L4 10ZM33 10L33 11L32 11L32 12L33 12L33 13L32 13L32 14L33 14L33 13L34 13L34 18L33 18L33 17L32 17L32 18L33 18L33 19L34 19L34 20L36 20L36 19L34 19L34 18L37 18L37 19L39 19L39 18L40 18L40 17L41 17L41 15L40 15L40 14L39 14L39 15L38 15L38 13L39 13L39 12L37 12L37 14L36 14L36 13L35 13L35 12L34 12L34 10ZM6 13L6 14L8 14L8 13ZM21 13L21 14L22 14L22 15L21 15L21 17L25 17L25 18L24 18L24 19L23 19L23 18L22 18L22 19L23 19L23 20L22 20L22 21L21 21L21 22L20 22L20 23L19 23L19 24L20 24L20 25L19 25L19 27L20 27L20 28L18 28L18 29L19 29L19 30L18 30L18 32L19 32L19 30L20 30L20 29L22 29L22 30L21 30L21 31L20 31L20 33L17 33L17 32L16 32L16 31L15 31L15 33L16 33L16 34L19 34L19 35L18 35L18 36L22 36L22 35L23 35L23 33L26 33L26 34L27 34L27 35L26 35L26 36L28 36L28 34L29 34L29 33L28 33L28 34L27 34L27 33L26 33L26 31L25 31L25 30L26 30L26 29L25 29L25 30L23 30L23 28L22 28L22 27L21 27L21 26L20 26L20 25L21 25L21 24L22 24L22 25L24 25L24 23L21 23L21 22L22 22L22 21L24 21L24 22L25 22L25 23L26 23L26 22L28 22L28 23L27 23L27 24L28 24L28 25L27 25L27 26L30 26L30 25L29 25L29 24L31 24L31 29L32 29L32 30L33 30L33 29L32 29L32 28L33 28L33 27L32 27L32 23L34 23L34 22L35 22L35 21L34 21L34 22L31 22L31 23L30 23L30 22L28 22L28 21L29 21L29 20L31 20L31 21L32 21L32 20L31 20L31 19L30 19L30 18L28 18L28 17L26 17L26 16L27 16L27 15L28 15L28 14L26 14L26 16L25 16L25 15L23 15L23 13ZM47 13L47 14L49 14L49 13ZM6 15L6 16L4 16L4 17L5 17L5 18L8 18L8 19L6 19L6 20L8 20L8 19L9 19L9 17L6 17L6 16L9 16L9 15ZM22 15L22 16L23 16L23 15ZM35 15L35 17L38 17L38 18L39 18L39 17L40 17L40 15L39 15L39 17L38 17L38 16L37 16L37 15ZM10 18L10 20L11 20L11 18ZM25 18L25 20L24 20L24 21L25 21L25 20L26 20L26 21L28 21L28 20L29 20L29 19L27 19L27 20L26 20L26 18ZM38 20L38 21L37 21L37 22L38 22L38 21L39 21L39 23L40 23L40 25L41 25L41 22L40 22L40 21L39 21L39 20ZM6 21L6 22L8 22L8 21ZM9 23L9 24L10 24L10 23ZM28 23L28 24L29 24L29 23ZM52 23L52 24L53 24L53 23ZM5 24L5 25L7 25L7 24ZM33 24L33 25L34 25L34 24ZM43 24L43 26L44 26L44 24ZM25 25L25 27L26 27L26 25ZM2 26L2 27L3 27L3 26ZM36 26L36 27L37 27L37 26ZM5 27L5 30L8 30L8 27ZM27 27L27 30L30 30L30 27ZM40 27L40 28L41 28L41 27ZM49 27L49 30L52 30L52 27ZM6 28L6 29L7 29L7 28ZM28 28L28 29L29 29L29 28ZM50 28L50 29L51 29L51 28ZM22 30L22 31L21 31L21 33L20 33L20 35L21 35L21 33L22 33L22 31L23 31L23 30ZM37 30L37 32L38 32L38 30ZM24 31L24 32L25 32L25 31ZM10 34L10 36L11 36L11 38L12 38L12 37L13 37L13 36L12 36L12 34ZM24 34L24 36L25 36L25 34ZM30 34L30 36L31 36L31 34ZM15 35L15 36L16 36L16 35ZM38 35L38 36L40 36L40 35ZM2 37L2 38L3 38L3 37ZM19 37L19 39L20 39L20 38L21 38L21 37ZM41 37L41 39L42 39L42 40L43 40L43 39L46 39L46 40L45 40L45 41L43 41L43 42L44 42L44 43L45 43L45 41L46 41L46 40L47 40L47 39L46 39L46 38L45 38L45 37L44 37L44 38L43 38L43 39L42 39L42 37ZM51 37L51 38L52 38L52 37ZM4 38L4 40L3 40L3 39L2 39L2 40L1 40L1 39L0 39L0 40L1 40L1 41L2 41L2 40L3 40L3 41L5 41L5 38ZM17 38L17 39L18 39L18 38ZM38 38L38 39L37 39L37 42L38 42L38 39L40 39L40 38ZM23 39L23 40L24 40L24 39ZM20 40L20 41L21 41L21 40ZM32 41L32 43L31 43L31 45L32 45L32 43L33 43L33 44L35 44L35 43L33 43L33 41ZM17 42L17 43L18 43L18 42ZM19 43L19 44L18 44L18 45L17 45L17 46L16 46L16 48L17 48L17 47L18 47L18 46L19 46L19 45L20 45L20 47L19 47L19 48L20 48L20 50L21 50L21 49L22 49L22 48L23 48L23 47L22 47L22 46L21 46L21 45L23 45L23 44L22 44L22 43L21 43L21 45L20 45L20 43ZM36 43L36 44L37 44L37 43ZM51 43L51 44L52 44L52 43ZM27 45L27 46L26 46L26 47L27 47L27 46L28 46L28 45ZM1 46L1 47L2 47L2 46ZM21 47L21 48L22 48L22 47ZM39 47L39 49L38 49L38 51L40 51L40 47ZM13 49L13 50L14 50L14 49ZM15 49L15 50L16 50L16 49ZM27 49L27 52L30 52L30 49ZM49 49L49 52L52 52L52 49ZM28 50L28 51L29 51L29 50ZM34 50L34 51L35 51L35 50ZM50 50L50 51L51 51L51 50ZM53 50L53 53L54 53L54 52L55 52L55 51L54 51L54 50ZM9 51L9 52L10 52L10 51ZM30 53L30 54L31 54L31 53ZM49 53L49 54L51 54L51 55L52 55L52 54L51 54L51 53ZM40 54L40 55L41 55L41 54ZM42 54L42 55L43 55L43 54ZM53 54L53 55L54 55L54 54ZM26 55L26 57L27 57L27 55ZM17 56L17 57L19 57L19 56ZM56 56L56 57L57 57L57 56ZM0 0L0 7L7 7L7 0ZM1 1L1 6L6 6L6 1ZM2 2L2 5L5 5L5 2ZM50 0L50 7L57 7L57 0ZM51 1L51 6L56 6L56 1ZM52 2L52 5L55 5L55 2ZM0 50L0 57L7 57L7 50ZM1 51L1 56L6 56L6 51ZM2 52L2 55L5 55L5 52Z" fill="#000000"/></g></g></svg>
