<?xml version="1.0" encoding="UTF-8"?>
<svg xmlns="http://www.w3.org/2000/svg" version="1.1" width="300" height="300" viewBox="0 0 300 300"><rect x="0" y="0" width="300" height="300" fill="#fefefe"/><g transform="scale(4.615)"><g transform="translate(4,4)"><path fill-rule="evenodd" d="M9 0L9 1L8 1L8 2L9 2L9 3L8 3L8 4L9 4L9 3L10 3L10 0ZM11 0L11 3L12 3L12 5L11 5L11 4L10 4L10 5L8 5L8 7L9 7L9 6L10 6L10 7L11 7L11 6L12 6L12 9L11 9L11 8L10 8L10 10L8 10L8 11L7 11L7 10L6 10L6 11L7 11L7 12L6 12L6 13L5 13L5 12L4 12L4 9L5 9L5 8L0 8L0 9L1 9L1 10L0 10L0 11L1 11L1 12L2 12L2 9L3 9L3 14L2 14L2 16L1 16L1 14L0 14L0 18L2 18L2 16L3 16L3 14L6 14L6 15L7 15L7 16L5 16L5 15L4 15L4 16L5 16L5 18L4 18L4 17L3 17L3 18L4 18L4 20L3 20L3 19L2 19L2 20L1 20L1 19L0 19L0 21L1 21L1 22L3 22L3 23L1 23L1 24L0 24L0 26L1 26L1 27L3 27L3 25L2 25L2 24L3 24L3 23L5 23L5 21L4 21L4 20L6 20L6 21L7 21L7 22L6 22L6 23L7 23L7 22L8 22L8 20L9 20L9 21L12 21L12 20L14 20L14 19L12 19L12 18L15 18L15 17L18 17L18 18L19 18L19 19L18 19L18 20L17 20L17 21L16 21L16 19L15 19L15 21L16 21L16 22L15 22L15 23L16 23L16 24L17 24L17 25L22 25L22 26L21 26L21 27L22 27L22 26L23 26L23 31L20 31L20 33L19 33L19 32L16 32L16 33L15 33L15 32L14 32L14 31L16 31L16 29L18 29L18 30L17 30L17 31L18 31L18 30L20 30L20 29L22 29L22 28L20 28L20 26L19 26L19 29L18 29L18 28L16 28L16 29L10 29L10 27L9 27L9 26L10 26L10 24L11 24L11 25L12 25L12 24L13 24L13 25L14 25L14 27L13 27L13 28L15 28L15 27L16 27L16 26L15 26L15 24L14 24L14 23L13 23L13 22L14 22L14 21L13 21L13 22L12 22L12 23L10 23L10 22L9 22L9 25L8 25L8 24L5 24L5 26L4 26L4 29L3 29L3 28L1 28L1 29L0 29L0 31L1 31L1 32L2 32L2 33L0 33L0 34L1 34L1 35L0 35L0 36L1 36L1 37L0 37L0 39L1 39L1 41L0 41L0 43L2 43L2 41L3 41L3 42L4 42L4 41L3 41L3 40L2 40L2 39L3 39L3 38L6 38L6 39L7 39L7 40L6 40L6 41L7 41L7 42L5 42L5 43L7 43L7 44L6 44L6 45L5 45L5 47L3 47L3 46L4 46L4 44L3 44L3 46L2 46L2 44L0 44L0 48L5 48L5 47L7 47L7 46L6 46L6 45L7 45L7 44L8 44L8 48L6 48L6 49L8 49L8 51L9 51L9 52L8 52L8 57L11 57L11 55L9 55L9 53L10 53L10 54L11 54L11 53L13 53L13 51L15 51L15 53L14 53L14 54L15 54L15 55L16 55L16 56L17 56L17 57L19 57L19 55L20 55L20 54L19 54L19 53L20 53L20 52L23 52L23 51L20 51L20 49L21 49L21 50L25 50L25 51L26 51L26 52L24 52L24 53L23 53L23 54L22 54L22 56L23 56L23 57L26 57L26 56L27 56L27 57L29 57L29 56L30 56L30 57L31 57L31 56L35 56L35 57L40 57L40 56L41 56L41 57L44 57L44 56L42 56L42 55L44 55L44 54L45 54L45 57L47 57L47 56L48 56L48 57L49 57L49 56L50 56L50 57L52 57L52 55L51 55L51 53L52 53L52 54L53 54L53 52L54 52L54 54L55 54L55 52L57 52L57 51L56 51L56 49L57 49L57 48L56 48L56 46L57 46L57 43L56 43L56 42L55 42L55 39L57 39L57 36L56 36L56 37L55 37L55 35L56 35L56 33L57 33L57 32L56 32L56 30L57 30L57 27L56 27L56 26L57 26L57 25L56 25L56 22L57 22L57 19L56 19L56 18L53 18L53 17L56 17L56 16L57 16L57 15L56 15L56 14L57 14L57 12L56 12L56 10L54 10L54 11L53 11L53 9L54 9L54 8L53 8L53 9L52 9L52 8L51 8L51 11L50 11L50 12L49 12L49 11L48 11L48 10L50 10L50 8L49 8L49 9L48 9L48 8L47 8L47 5L48 5L48 0L46 0L46 1L45 1L45 2L44 2L44 3L43 3L43 4L40 4L40 5L39 5L39 6L38 6L38 9L37 9L37 8L35 8L35 5L36 5L36 7L37 7L37 5L38 5L38 3L41 3L41 2L43 2L43 0L41 0L41 1L40 1L40 0L39 0L39 1L38 1L38 0L37 0L37 1L38 1L38 3L36 3L36 0L35 0L35 1L33 1L33 0L32 0L32 1L31 1L31 0L27 0L27 1L26 1L26 0L23 0L23 2L25 2L25 1L26 1L26 2L27 2L27 1L31 1L31 2L32 2L32 3L31 3L31 4L26 4L26 3L23 3L23 4L24 4L24 5L22 5L22 4L19 4L19 3L17 3L17 2L15 2L15 0L14 0L14 2L13 2L13 3L12 3L12 0ZM17 0L17 1L18 1L18 0ZM21 0L21 1L20 1L20 3L21 3L21 1L22 1L22 0ZM46 1L46 2L47 2L47 1ZM14 2L14 4L13 4L13 5L12 5L12 6L13 6L13 8L14 8L14 10L17 10L17 11L16 11L16 12L15 12L15 13L13 13L13 12L14 12L14 11L13 11L13 12L12 12L12 11L11 11L11 10L10 10L10 12L9 12L9 11L8 11L8 12L9 12L9 15L8 15L8 14L7 14L7 13L6 13L6 14L7 14L7 15L8 15L8 16L9 16L9 18L8 18L8 17L6 17L6 18L5 18L5 19L6 19L6 20L7 20L7 19L6 19L6 18L8 18L8 19L9 19L9 18L10 18L10 16L12 16L12 17L13 17L13 16L12 16L12 15L14 15L14 17L15 17L15 15L14 15L14 14L15 14L15 13L16 13L16 16L17 16L17 15L18 15L18 16L19 16L19 15L20 15L20 18L21 18L21 19L24 19L24 18L22 18L22 17L25 17L25 16L23 16L23 15L21 15L21 13L22 13L22 14L23 14L23 13L22 13L22 12L21 12L21 11L22 11L22 10L21 10L21 9L25 9L25 8L26 8L26 4L25 4L25 8L24 8L24 6L23 6L23 8L19 8L19 9L18 9L18 10L17 10L17 9L15 9L15 7L16 7L16 8L17 8L17 7L18 7L18 6L19 6L19 7L20 7L20 5L18 5L18 4L17 4L17 3L15 3L15 2ZM28 2L28 3L29 3L29 2ZM34 2L34 3L32 3L32 4L31 4L31 8L32 8L32 10L31 10L31 11L29 11L29 9L27 9L27 10L28 10L28 11L29 11L29 12L28 12L28 13L26 13L26 12L27 12L27 11L26 11L26 12L25 12L25 10L23 10L23 11L24 11L24 12L25 12L25 15L26 15L26 17L28 17L28 16L29 16L29 14L30 14L30 15L31 15L31 16L32 16L32 18L30 18L30 19L28 19L28 18L26 18L26 20L25 20L25 21L24 21L24 20L20 20L20 19L19 19L19 20L20 20L20 21L17 21L17 24L22 24L22 25L24 25L24 24L25 24L25 25L26 25L26 26L24 26L24 27L26 27L26 26L27 26L27 25L29 25L29 26L30 26L30 25L29 25L29 21L30 21L30 20L31 20L31 19L33 19L33 18L34 18L34 20L32 20L32 21L31 21L31 24L32 24L32 26L31 26L31 28L32 28L32 29L33 29L33 30L32 30L32 33L31 33L31 31L30 31L30 32L29 32L29 33L28 33L28 32L26 32L26 31L23 31L23 32L21 32L21 33L20 33L20 34L18 34L18 33L16 33L16 34L15 34L15 33L8 33L8 32L10 32L10 29L9 29L9 31L8 31L8 32L7 32L7 31L5 31L5 33L6 33L6 34L4 34L4 33L3 33L3 34L2 34L2 35L1 35L1 36L2 36L2 35L3 35L3 37L4 37L4 36L5 36L5 37L6 37L6 38L7 38L7 39L8 39L8 40L7 40L7 41L8 41L8 42L7 42L7 43L8 43L8 44L9 44L9 47L11 47L11 49L10 49L10 48L8 48L8 49L9 49L9 50L10 50L10 53L11 53L11 51L13 51L13 50L14 50L14 49L15 49L15 50L17 50L17 51L18 51L18 52L19 52L19 51L18 51L18 50L17 50L17 45L18 45L18 44L15 44L15 48L14 48L14 46L13 46L13 48L12 48L12 46L11 46L11 45L10 45L10 43L11 43L11 44L12 44L12 45L13 45L13 42L12 42L12 43L11 43L11 42L10 42L10 43L9 43L9 41L12 41L12 40L11 40L11 37L12 37L12 38L13 38L13 41L14 41L14 42L17 42L17 43L18 43L18 42L19 42L19 41L20 41L20 42L21 42L21 43L20 43L20 44L19 44L19 45L20 45L20 48L21 48L21 49L23 49L23 47L24 47L24 49L25 49L25 50L26 50L26 49L25 49L25 48L28 48L28 47L26 47L26 45L27 45L27 46L29 46L29 45L30 45L30 43L29 43L29 45L27 45L27 44L28 44L28 42L29 42L29 40L32 40L32 41L31 41L31 42L32 42L32 43L33 43L33 44L32 44L32 47L31 47L31 48L32 48L32 49L31 49L31 50L32 50L32 51L31 51L31 53L30 53L30 54L26 54L26 53L24 53L24 54L23 54L23 55L24 55L24 56L25 56L25 54L26 54L26 55L27 55L27 56L29 56L29 55L30 55L30 56L31 56L31 54L32 54L32 53L33 53L33 55L35 55L35 56L36 56L36 54L35 54L35 53L34 53L34 52L35 52L35 50L36 50L36 52L38 52L38 50L41 50L41 52L40 52L40 51L39 51L39 53L37 53L37 54L40 54L40 53L42 53L42 52L43 52L43 51L42 51L42 50L41 50L41 48L42 48L42 49L43 49L43 50L44 50L44 51L45 51L45 52L44 52L44 53L43 53L43 54L44 54L44 53L45 53L45 54L47 54L47 53L48 53L48 50L47 50L47 49L48 49L48 48L51 48L51 46L52 46L52 47L55 47L55 46L56 46L56 43L55 43L55 44L54 44L54 45L53 45L53 43L54 43L54 42L53 42L53 41L54 41L54 40L53 40L53 41L51 41L51 42L50 42L50 43L48 43L48 44L47 44L47 45L45 45L45 44L46 44L46 42L48 42L48 41L49 41L49 39L51 39L51 38L52 38L52 39L55 39L55 37L53 37L53 35L55 35L55 34L54 34L54 33L56 33L56 32L54 32L54 31L55 31L55 30L54 30L54 29L56 29L56 27L55 27L55 28L54 28L54 29L53 29L53 31L52 31L52 32L51 32L51 33L52 33L52 34L50 34L50 32L49 32L49 31L48 31L48 28L47 28L47 29L46 29L46 30L47 30L47 31L48 31L48 32L47 32L47 33L45 33L45 32L46 32L46 31L45 31L45 28L46 28L46 27L48 27L48 26L47 26L47 25L45 25L45 22L47 22L47 21L49 21L49 23L48 23L48 24L49 24L49 23L50 23L50 25L49 25L49 26L51 26L51 25L55 25L55 26L56 26L56 25L55 25L55 24L53 24L53 23L50 23L50 22L51 22L51 21L54 21L54 22L56 22L56 19L55 19L55 20L53 20L53 19L52 19L52 20L51 20L51 21L49 21L49 20L46 20L46 21L45 21L45 20L44 20L44 18L47 18L47 19L48 19L48 18L47 18L47 17L49 17L49 15L50 15L50 14L51 14L51 12L50 12L50 14L49 14L49 15L48 15L48 16L47 16L47 15L46 15L46 17L45 17L45 14L47 14L47 13L49 13L49 12L45 12L45 11L44 11L44 18L43 18L43 20L44 20L44 23L42 23L42 22L41 22L41 24L39 24L39 23L40 23L40 22L39 22L39 21L42 21L42 20L39 20L39 21L38 21L38 20L37 20L37 19L39 19L39 17L41 17L41 16L42 16L42 17L43 17L43 16L42 16L42 15L43 15L43 14L41 14L41 13L43 13L43 10L44 10L44 9L45 9L45 10L47 10L47 8L46 8L46 6L45 6L45 5L47 5L47 3L44 3L44 6L43 6L43 8L44 8L44 9L43 9L43 10L41 10L41 9L42 9L42 8L41 8L41 7L42 7L42 5L40 5L40 6L39 6L39 9L38 9L38 10L37 10L37 9L35 9L35 8L34 8L34 9L33 9L33 7L34 7L34 5L35 5L35 2ZM15 4L15 5L13 5L13 6L14 6L14 7L15 7L15 5L16 5L16 4ZM32 4L32 5L34 5L34 4ZM36 4L36 5L37 5L37 4ZM10 5L10 6L11 6L11 5ZM17 5L17 6L16 6L16 7L17 7L17 6L18 6L18 5ZM27 5L27 8L30 8L30 5ZM21 6L21 7L22 7L22 6ZM28 6L28 7L29 7L29 6ZM32 6L32 7L33 7L33 6ZM40 6L40 7L41 7L41 6ZM44 6L44 7L45 7L45 6ZM48 6L48 7L49 7L49 6ZM6 8L6 9L9 9L9 8ZM45 8L45 9L46 9L46 8ZM55 8L55 9L56 9L56 8ZM19 9L19 10L18 10L18 11L17 11L17 12L16 12L16 13L17 13L17 14L18 14L18 15L19 15L19 14L20 14L20 12L19 12L19 11L20 11L20 9ZM39 9L39 11L37 11L37 10L36 10L36 11L35 11L35 13L36 13L36 14L32 14L32 12L33 12L33 13L34 13L34 12L33 12L33 10L32 10L32 11L31 11L31 13L30 13L30 14L31 14L31 15L32 15L32 16L35 16L35 17L37 17L37 18L38 18L38 17L39 17L39 16L41 16L41 14L38 14L38 13L39 13L39 11L40 11L40 12L41 12L41 10L40 10L40 9ZM10 12L10 13L11 13L11 15L12 15L12 12ZM17 12L17 13L18 13L18 12ZM52 12L52 13L53 13L53 12ZM54 12L54 13L55 13L55 14L53 14L53 15L55 15L55 14L56 14L56 13L55 13L55 12ZM28 13L28 14L29 14L29 13ZM26 14L26 15L27 15L27 16L28 16L28 15L27 15L27 14ZM37 14L37 15L35 15L35 16L37 16L37 17L38 17L38 16L39 16L39 15L38 15L38 14ZM21 16L21 17L22 17L22 16ZM50 16L50 18L49 18L49 19L51 19L51 17L53 17L53 16ZM41 18L41 19L42 19L42 18ZM11 19L11 20L12 20L12 19ZM35 19L35 23L32 23L32 24L33 24L33 25L37 25L37 26L38 26L38 25L39 25L39 27L36 27L36 26L34 26L34 27L33 27L33 26L32 26L32 27L33 27L33 28L35 28L35 29L38 29L38 28L40 28L40 27L41 27L41 28L42 28L42 27L41 27L41 26L43 26L43 28L45 28L45 27L46 27L46 26L43 26L43 25L44 25L44 24L42 24L42 25L39 25L39 24L37 24L37 22L38 22L38 21L37 21L37 20L36 20L36 19ZM3 21L3 22L4 22L4 21ZM21 21L21 22L22 22L22 21ZM23 21L23 22L24 22L24 21ZM25 21L25 22L26 22L26 23L25 23L25 24L27 24L27 22L28 22L28 21ZM19 22L19 23L20 23L20 22ZM22 23L22 24L24 24L24 23ZM1 25L1 26L2 26L2 25ZM6 25L6 26L7 26L7 25ZM11 26L11 28L12 28L12 26ZM17 26L17 27L18 27L18 26ZM53 26L53 27L54 27L54 26ZM5 27L5 30L8 30L8 27ZM27 27L27 30L30 30L30 27ZM35 27L35 28L36 28L36 27ZM49 27L49 30L52 30L52 27ZM6 28L6 29L7 29L7 28ZM25 28L25 29L26 29L26 28ZM28 28L28 29L29 29L29 28ZM50 28L50 29L51 29L51 28ZM2 29L2 30L3 30L3 29ZM39 29L39 30L38 30L38 32L39 32L39 30L40 30L40 29ZM41 29L41 30L44 30L44 29ZM13 30L13 31L12 31L12 32L13 32L13 31L14 31L14 30ZM33 30L33 31L34 31L34 33L35 33L35 34L37 34L37 36L35 36L35 35L33 35L33 34L31 34L31 33L29 33L29 34L30 34L30 36L29 36L29 37L31 37L31 38L29 38L29 39L33 39L33 40L35 40L35 42L37 42L37 43L36 43L36 44L35 44L35 43L34 43L34 42L33 42L33 41L32 41L32 42L33 42L33 43L34 43L34 45L35 45L35 46L33 46L33 47L32 47L32 48L33 48L33 47L35 47L35 46L36 46L36 48L35 48L35 49L36 49L36 50L38 50L38 49L39 49L39 48L41 48L41 46L43 46L43 45L44 45L44 47L46 47L46 48L45 48L45 49L44 49L44 48L43 48L43 47L42 47L42 48L43 48L43 49L44 49L44 50L45 50L45 51L46 51L46 52L47 52L47 51L46 51L46 50L45 50L45 49L47 49L47 48L48 48L48 47L50 47L50 44L51 44L51 43L53 43L53 42L51 42L51 43L50 43L50 44L48 44L48 45L47 45L47 46L45 46L45 45L44 45L44 44L43 44L43 41L44 41L44 43L45 43L45 41L47 41L47 39L49 39L49 38L50 38L50 36L52 36L52 35L53 35L53 34L52 34L52 35L50 35L50 34L49 34L49 35L50 35L50 36L49 36L49 37L48 37L48 38L47 38L47 39L46 39L46 38L45 38L45 37L44 37L44 36L46 36L46 37L47 37L47 35L46 35L46 34L45 34L45 35L44 35L44 33L43 33L43 32L45 32L45 31L43 31L43 32L41 32L41 33L39 33L39 34L40 34L40 35L39 35L39 37L40 37L40 38L43 38L43 37L44 37L44 38L45 38L45 39L44 39L44 40L42 40L42 39L41 39L41 40L42 40L42 41L39 41L39 42L38 42L38 40L39 40L39 38L38 38L38 37L37 37L37 36L38 36L38 33L37 33L37 32L35 32L35 31L36 31L36 30ZM2 31L2 32L4 32L4 31ZM6 32L6 33L7 33L7 32ZM48 32L48 33L49 33L49 32ZM52 32L52 33L54 33L54 32ZM21 33L21 34L22 34L22 33ZM23 33L23 34L24 34L24 36L23 36L23 35L21 35L21 36L23 36L23 37L24 37L24 38L23 38L23 39L24 39L24 40L23 40L23 42L22 42L22 41L21 41L21 42L22 42L22 43L21 43L21 44L20 44L20 45L21 45L21 47L23 47L23 46L24 46L24 47L25 47L25 44L27 44L27 43L25 43L25 41L24 41L24 40L25 40L25 37L27 37L27 38L26 38L26 39L27 39L27 40L28 40L28 39L27 39L27 38L28 38L28 37L27 37L27 33L26 33L26 35L25 35L25 33ZM3 34L3 35L4 35L4 34ZM6 34L6 35L5 35L5 36L6 36L6 37L7 37L7 38L8 38L8 39L9 39L9 38L10 38L10 36L9 36L9 34ZM10 34L10 35L11 35L11 36L13 36L13 38L14 38L14 41L16 41L16 39L15 39L15 38L16 38L16 37L15 37L15 38L14 38L14 36L15 36L15 34L14 34L14 35L12 35L12 34ZM17 34L17 36L18 36L18 37L17 37L17 38L18 38L18 37L19 37L19 38L20 38L20 39L19 39L19 40L18 40L18 39L17 39L17 42L18 42L18 41L19 41L19 40L21 40L21 39L22 39L22 38L21 38L21 37L19 37L19 36L18 36L18 34ZM42 34L42 36L40 36L40 37L43 37L43 36L44 36L44 35L43 35L43 34ZM6 35L6 36L7 36L7 35ZM32 36L32 37L33 37L33 39L35 39L35 40L38 40L38 38L37 38L37 39L35 39L35 37L33 37L33 36ZM8 37L8 38L9 38L9 37ZM1 38L1 39L2 39L2 38ZM4 39L4 40L5 40L5 39ZM45 39L45 40L44 40L44 41L45 41L45 40L46 40L46 39ZM26 41L26 42L27 42L27 41ZM40 42L40 43L39 43L39 45L38 45L38 46L39 46L39 47L38 47L38 48L37 48L37 49L38 49L38 48L39 48L39 47L40 47L40 46L41 46L41 44L42 44L42 42ZM23 43L23 45L22 45L22 44L21 44L21 45L22 45L22 46L23 46L23 45L24 45L24 44L25 44L25 43ZM36 45L36 46L37 46L37 45ZM48 45L48 46L49 46L49 45ZM54 45L54 46L55 46L55 45ZM1 46L1 47L2 47L2 46ZM18 46L18 47L19 47L19 46ZM29 47L29 48L30 48L30 47ZM54 48L54 49L56 49L56 48ZM11 49L11 50L13 50L13 49ZM27 49L27 52L30 52L30 49ZM32 49L32 50L33 50L33 51L32 51L32 52L33 52L33 51L34 51L34 50L33 50L33 49ZM49 49L49 52L52 52L52 49ZM28 50L28 51L29 51L29 50ZM50 50L50 51L51 51L51 50ZM54 50L54 51L55 51L55 50ZM16 52L16 53L15 53L15 54L16 54L16 53L17 53L17 52ZM12 54L12 55L13 55L13 57L14 57L14 55L13 55L13 54ZM17 54L17 56L18 56L18 55L19 55L19 54ZM41 54L41 55L42 55L42 54ZM37 55L37 56L40 56L40 55ZM50 55L50 56L51 56L51 55ZM53 55L53 56L55 56L55 57L56 57L56 56L55 56L55 55ZM0 0L0 7L7 7L7 0ZM1 1L1 6L6 6L6 1ZM2 2L2 5L5 5L5 2ZM50 0L50 7L57 7L57 0ZM51 1L51 6L56 6L56 1ZM52 2L52 5L55 5L55 2ZM0 50L0 57L7 57L7 50ZM1 51L1 56L6 56L6 51ZM2 52L2 55L5 55L5 52Z" fill="#000000"/></g></g></svg>
