<?xml version="1.0" encoding="UTF-8"?>
<svg xmlns="http://www.w3.org/2000/svg" version="1.1" width="300" height="300" viewBox="0 0 300 300"><rect x="0" y="0" width="300" height="300" fill="#fefefe"/><g transform="scale(4.615)"><g transform="translate(4,4)"><path fill-rule="evenodd" d="M8 0L8 4L9 4L9 5L8 5L8 7L9 7L9 5L10 5L10 9L12 9L12 10L11 10L11 12L10 12L10 11L9 11L9 12L10 12L10 13L12 13L12 14L9 14L9 13L8 13L8 11L7 11L7 10L6 10L6 9L7 9L7 8L4 8L4 9L2 9L2 8L0 8L0 11L2 11L2 12L3 12L3 13L1 13L1 12L0 12L0 14L1 14L1 15L0 15L0 19L1 19L1 20L0 20L0 22L1 22L1 23L0 23L0 26L1 26L1 27L2 27L2 29L1 29L1 30L0 30L0 31L1 31L1 32L0 32L0 33L1 33L1 32L2 32L2 31L3 31L3 30L2 30L2 29L4 29L4 32L3 32L3 34L6 34L6 35L7 35L7 36L6 36L6 37L5 37L5 35L4 35L4 36L3 36L3 37L1 37L1 38L0 38L0 40L1 40L1 41L2 41L2 42L1 42L1 43L0 43L0 45L1 45L1 46L0 46L0 48L5 48L5 47L7 47L7 48L6 48L6 49L7 49L7 48L8 48L8 47L9 47L9 46L10 46L10 48L9 48L9 49L8 49L8 50L10 50L10 51L8 51L8 53L9 53L9 52L10 52L10 53L11 53L11 52L10 52L10 51L12 51L12 52L13 52L13 53L12 53L12 54L9 54L9 55L8 55L8 57L9 57L9 55L10 55L10 57L12 57L12 54L13 54L13 57L16 57L16 56L15 56L15 55L16 55L16 54L17 54L17 55L20 55L20 54L22 54L22 52L21 52L21 49L22 49L22 50L23 50L23 52L24 52L24 53L23 53L23 55L24 55L24 56L23 56L23 57L25 57L25 55L26 55L26 53L28 53L28 57L29 57L29 55L30 55L30 57L34 57L34 55L35 55L35 57L37 57L37 56L36 56L36 54L37 54L37 55L39 55L39 57L40 57L40 54L41 54L41 56L43 56L43 55L44 55L44 53L45 53L45 55L46 55L46 56L47 56L47 55L46 55L46 53L47 53L47 54L49 54L49 56L48 56L48 57L50 57L50 55L51 55L51 56L53 56L53 55L54 55L54 54L57 54L57 52L56 52L56 53L55 53L55 52L54 52L54 53L53 53L53 50L54 50L54 51L56 51L56 50L57 50L57 49L56 49L56 45L57 45L57 43L56 43L56 42L57 42L57 40L55 40L55 41L53 41L53 40L52 40L52 41L51 41L51 43L50 43L50 42L49 42L49 41L48 41L48 43L47 43L47 42L46 42L46 39L47 39L47 40L51 40L51 39L54 39L54 38L55 38L55 39L57 39L57 38L55 38L55 36L56 36L56 37L57 37L57 35L56 35L56 34L57 34L57 33L56 33L56 30L55 30L55 29L56 29L56 28L57 28L57 27L56 27L56 25L57 25L57 24L56 24L56 21L57 21L57 19L56 19L56 18L57 18L57 15L56 15L56 13L55 13L55 16L53 16L53 17L52 17L52 18L53 18L53 17L55 17L55 16L56 16L56 18L55 18L55 19L56 19L56 20L55 20L55 22L53 22L53 21L52 21L52 20L53 20L53 19L50 19L50 18L51 18L51 17L50 17L50 16L49 16L49 15L48 15L48 16L49 16L49 17L47 17L47 19L46 19L46 21L45 21L45 18L46 18L46 16L47 16L47 15L46 15L46 11L45 11L45 9L47 9L47 11L50 11L50 15L52 15L52 14L53 14L53 13L54 13L54 12L53 12L53 13L52 13L52 14L51 14L51 12L52 12L52 11L54 11L54 10L52 10L52 8L51 8L51 9L50 9L50 10L49 10L49 6L48 6L48 7L47 7L47 5L48 5L48 0L41 0L41 1L40 1L40 2L39 2L39 3L37 3L37 2L38 2L38 1L39 1L39 0L38 0L38 1L37 1L37 2L36 2L36 0L35 0L35 1L34 1L34 0L32 0L32 3L31 3L31 2L30 2L30 3L31 3L31 4L29 4L29 1L31 1L31 0L23 0L23 3L22 3L22 7L21 7L21 6L20 6L20 5L19 5L19 4L18 4L18 5L19 5L19 6L18 6L18 7L19 7L19 8L17 8L17 6L16 6L16 5L15 5L15 4L14 4L14 1L16 1L16 2L15 2L15 3L16 3L16 4L17 4L17 2L18 2L18 3L20 3L20 2L22 2L22 1L21 1L21 0L20 0L20 2L19 2L19 0L17 0L17 1L16 1L16 0L14 0L14 1L13 1L13 3L12 3L12 2L11 2L11 1L10 1L10 0ZM9 1L9 2L10 2L10 3L11 3L11 5L12 5L12 6L11 6L11 7L12 7L12 6L13 6L13 9L14 9L14 8L15 8L15 7L16 7L16 6L15 6L15 5L14 5L14 6L13 6L13 4L12 4L12 3L11 3L11 2L10 2L10 1ZM25 1L25 3L23 3L23 5L24 5L24 4L25 4L25 3L26 3L26 4L28 4L28 3L27 3L27 2L28 2L28 1ZM33 1L33 2L34 2L34 3L32 3L32 5L35 5L35 7L34 7L34 6L33 6L33 7L32 7L32 6L31 6L31 10L30 10L30 11L31 11L31 12L29 12L29 9L28 9L28 12L27 12L27 11L26 11L26 13L25 13L25 14L23 14L23 13L24 13L24 12L23 12L23 11L25 11L25 10L27 10L27 9L26 9L26 6L25 6L25 7L24 7L24 6L23 6L23 7L22 7L22 10L21 10L21 11L20 11L20 8L19 8L19 9L18 9L18 11L17 11L17 13L15 13L15 12L14 12L14 11L13 11L13 10L12 10L12 12L13 12L13 13L15 13L15 14L17 14L17 15L18 15L18 16L19 16L19 18L17 18L17 16L15 16L15 15L14 15L14 16L15 16L15 17L12 17L12 18L13 18L13 19L14 19L14 20L15 20L15 21L17 21L17 20L18 20L18 19L19 19L19 21L18 21L18 22L19 22L19 21L20 21L20 20L21 20L21 19L20 19L20 15L21 15L21 17L25 17L25 18L24 18L24 19L23 19L23 18L22 18L22 19L23 19L23 20L22 20L22 21L21 21L21 22L20 22L20 23L19 23L19 25L17 25L17 22L16 22L16 23L15 23L15 24L14 24L14 21L13 21L13 20L12 20L12 19L11 19L11 18L10 18L10 19L8 19L8 20L7 20L7 19L4 19L4 18L5 18L5 16L4 16L4 15L3 15L3 16L4 16L4 17L3 17L3 19L2 19L2 21L1 21L1 22L3 22L3 24L1 24L1 25L3 25L3 24L4 24L4 26L2 26L2 27L4 27L4 26L7 26L7 25L6 25L6 24L8 24L8 25L10 25L10 24L11 24L11 25L13 25L13 27L12 27L12 26L11 26L11 30L10 30L10 29L9 29L9 30L10 30L10 31L9 31L9 32L12 32L12 28L13 28L13 27L14 27L14 28L16 28L16 27L14 27L14 25L16 25L16 26L17 26L17 27L18 27L18 26L19 26L19 25L23 25L23 24L24 24L24 23L23 23L23 24L22 24L22 22L23 22L23 21L24 21L24 22L25 22L25 23L26 23L26 22L28 22L28 23L27 23L27 25L31 25L31 27L32 27L32 28L31 28L31 32L29 32L29 31L28 31L28 32L29 32L29 33L28 33L28 34L27 34L27 33L26 33L26 31L25 31L25 30L26 30L26 29L25 29L25 30L24 30L24 32L23 32L23 31L22 31L22 30L23 30L23 29L24 29L24 28L25 28L25 27L26 27L26 25L25 25L25 26L23 26L23 28L22 28L22 27L21 27L21 26L20 26L20 27L19 27L19 28L18 28L18 29L15 29L15 30L18 30L18 31L22 31L22 33L21 33L21 32L19 32L19 34L18 34L18 36L22 36L22 37L19 37L19 39L20 39L20 38L23 38L23 39L22 39L22 41L21 41L21 42L20 42L20 40L19 40L19 41L18 41L18 43L16 43L16 42L17 42L17 40L18 40L18 39L17 39L17 40L16 40L16 42L15 42L15 41L14 41L14 40L15 40L15 39L16 39L16 38L18 38L18 37L17 37L17 36L16 36L16 37L15 37L15 34L13 34L13 33L9 33L9 35L8 35L8 38L7 38L7 37L6 37L6 38L5 38L5 39L4 39L4 37L3 37L3 38L1 38L1 39L2 39L2 40L3 40L3 41L5 41L5 42L4 42L4 43L6 43L6 44L8 44L8 45L5 45L5 46L3 46L3 45L4 45L4 44L3 44L3 43L1 43L1 44L3 44L3 45L2 45L2 46L1 46L1 47L2 47L2 46L3 46L3 47L5 47L5 46L8 46L8 45L10 45L10 46L12 46L12 47L13 47L13 48L12 48L12 50L13 50L13 52L15 52L15 53L17 53L17 51L18 51L18 52L19 52L19 53L20 53L20 51L19 51L19 50L20 50L20 49L21 49L21 48L22 48L22 49L23 49L23 48L24 48L24 49L25 49L25 50L26 50L26 48L28 48L28 47L26 47L26 46L27 46L27 45L28 45L28 46L29 46L29 47L30 47L30 48L31 48L31 46L32 46L32 47L33 47L33 48L34 48L34 49L33 49L33 50L32 50L32 51L31 51L31 52L32 52L32 51L33 51L33 53L32 53L32 54L33 54L33 55L34 55L34 54L35 54L35 52L36 52L36 49L35 49L35 47L36 47L36 48L37 48L37 46L38 46L38 45L39 45L39 44L37 44L37 43L33 43L33 41L32 41L32 40L33 40L33 39L34 39L34 42L35 42L35 39L37 39L37 42L38 42L38 39L40 39L40 41L39 41L39 42L40 42L40 43L42 43L42 44L43 44L43 46L44 46L44 44L45 44L45 45L46 45L46 47L45 47L45 49L44 49L44 47L42 47L42 49L43 49L43 50L42 50L42 51L41 51L41 46L39 46L39 47L38 47L38 49L37 49L37 51L38 51L38 52L37 52L37 54L38 54L38 52L40 52L40 53L41 53L41 52L43 52L43 53L44 53L44 52L43 52L43 50L44 50L44 51L46 51L46 52L45 52L45 53L46 53L46 52L47 52L47 53L48 53L48 52L47 52L47 51L46 51L46 50L47 50L47 49L48 49L48 47L49 47L49 46L50 46L50 47L51 47L51 46L50 46L50 45L49 45L49 46L47 46L47 45L48 45L48 44L47 44L47 43L46 43L46 42L45 42L45 41L44 41L44 39L46 39L46 38L47 38L47 39L51 39L51 38L50 38L50 37L49 37L49 36L50 36L50 35L53 35L53 36L51 36L51 37L52 37L52 38L53 38L53 36L55 36L55 35L53 35L53 34L54 34L54 32L55 32L55 30L54 30L54 31L53 31L53 33L51 33L51 31L50 31L50 35L49 35L49 33L48 33L48 31L47 31L47 30L48 30L48 29L46 29L46 28L48 28L48 27L46 27L46 26L47 26L47 25L48 25L48 23L47 23L47 21L46 21L46 23L45 23L45 22L44 22L44 16L45 16L45 15L44 15L44 14L45 14L45 13L44 13L44 12L45 12L45 11L43 11L43 12L41 12L41 11L39 11L39 10L38 10L38 9L39 9L39 8L38 8L38 9L35 9L35 7L36 7L36 5L37 5L37 7L38 7L38 4L37 4L37 3L36 3L36 2L34 2L34 1ZM45 1L45 2L47 2L47 1ZM40 2L40 3L39 3L39 4L40 4L40 3L41 3L41 4L42 4L42 2ZM43 2L43 3L44 3L44 4L43 4L43 8L40 8L40 10L41 10L41 9L43 9L43 10L44 10L44 4L45 4L45 5L47 5L47 3L44 3L44 2ZM34 3L34 4L35 4L35 5L36 5L36 4L35 4L35 3ZM27 5L27 8L30 8L30 5ZM39 5L39 7L40 7L40 6L41 6L41 7L42 7L42 6L41 6L41 5ZM14 6L14 7L15 7L15 6ZM19 6L19 7L20 7L20 6ZM28 6L28 7L29 7L29 6ZM45 6L45 8L46 8L46 6ZM23 7L23 10L25 10L25 9L24 9L24 7ZM33 7L33 8L32 8L32 15L33 15L33 16L32 16L32 18L31 18L31 16L29 16L29 13L27 13L27 14L26 14L26 15L24 15L24 16L26 16L26 18L27 18L27 17L28 17L28 18L30 18L30 19L29 19L29 20L30 20L30 21L28 21L28 19L27 19L27 20L26 20L26 19L25 19L25 20L24 20L24 21L25 21L25 20L26 20L26 21L28 21L28 22L29 22L29 24L31 24L31 22L33 22L33 23L32 23L32 27L33 27L33 28L32 28L32 29L33 29L33 31L32 31L32 34L33 34L33 35L31 35L31 36L30 36L30 34L31 34L31 33L29 33L29 34L28 34L28 36L26 36L26 35L27 35L27 34L26 34L26 33L23 33L23 34L22 34L22 35L23 35L23 37L24 37L24 38L26 38L26 40L25 40L25 41L24 41L24 39L23 39L23 41L24 41L24 42L26 42L26 41L27 41L27 43L25 43L25 45L24 45L24 44L22 44L22 43L21 43L21 45L20 45L20 43L19 43L19 44L18 44L18 45L17 45L17 46L16 46L16 43L15 43L15 42L14 42L14 41L12 41L12 40L14 40L14 39L13 39L13 38L15 38L15 37L13 37L13 38L12 38L12 37L10 37L10 35L11 35L11 36L14 36L14 35L13 35L13 34L10 34L10 35L9 35L9 37L10 37L10 38L8 38L8 39L9 39L9 40L6 40L6 39L7 39L7 38L6 38L6 39L5 39L5 41L7 41L7 42L6 42L6 43L8 43L8 44L11 44L11 43L8 43L8 41L9 41L9 40L11 40L11 41L10 41L10 42L13 42L13 43L14 43L14 45L13 45L13 44L12 44L12 46L14 46L14 47L15 47L15 49L14 49L14 48L13 48L13 50L14 50L14 51L17 51L17 50L15 50L15 49L18 49L18 50L19 50L19 48L20 48L20 47L22 47L22 48L23 48L23 47L24 47L24 46L26 46L26 45L27 45L27 43L28 43L28 41L30 41L30 40L31 40L31 39L33 39L33 38L34 38L34 39L35 39L35 38L37 38L37 37L38 37L38 38L40 38L40 39L41 39L41 37L42 37L42 39L43 39L43 38L44 38L44 37L45 37L45 38L46 38L46 37L47 37L47 36L46 36L46 30L45 30L45 26L46 26L46 25L45 25L45 24L44 24L44 25L42 25L42 23L44 23L44 22L43 22L43 20L42 20L42 21L40 21L40 18L41 18L41 19L42 19L42 18L43 18L43 17L42 17L42 15L43 15L43 16L44 16L44 15L43 15L43 14L44 14L44 13L41 13L41 17L40 17L40 15L39 15L39 14L40 14L40 13L38 13L38 15L39 15L39 17L38 17L38 16L37 16L37 15L35 15L35 17L38 17L38 18L39 18L39 19L38 19L38 22L37 22L37 18L34 18L34 13L33 13L33 10L34 10L34 12L35 12L35 13L36 13L36 14L37 14L37 12L39 12L39 11L38 11L38 10L37 10L37 12L35 12L35 11L36 11L36 10L34 10L34 9L33 9L33 8L34 8L34 7ZM47 8L47 9L48 9L48 8ZM53 8L53 9L56 9L56 10L55 10L55 11L56 11L56 10L57 10L57 8ZM1 9L1 10L2 10L2 11L3 11L3 12L4 12L4 11L6 11L6 12L7 12L7 11L6 11L6 10L2 10L2 9ZM8 9L8 10L9 10L9 9ZM16 9L16 10L15 10L15 11L16 11L16 10L17 10L17 9ZM21 11L21 12L20 12L20 14L19 14L19 12L18 12L18 13L17 13L17 14L19 14L19 15L20 15L20 14L21 14L21 15L22 15L22 16L23 16L23 15L22 15L22 14L21 14L21 13L23 13L23 12L22 12L22 11ZM5 13L5 15L6 15L6 16L7 16L7 17L6 17L6 18L8 18L8 16L7 16L7 15L9 15L9 17L10 17L10 16L11 16L11 15L9 15L9 14L7 14L7 13ZM30 13L30 15L31 15L31 13ZM47 13L47 14L49 14L49 13ZM6 14L6 15L7 15L7 14ZM12 14L12 16L13 16L13 14ZM27 14L27 15L26 15L26 16L27 16L27 15L28 15L28 14ZM1 17L1 18L2 18L2 17ZM15 17L15 19L16 19L16 20L17 20L17 19L16 19L16 17ZM39 17L39 18L40 18L40 17ZM49 17L49 18L50 18L50 17ZM32 18L32 19L33 19L33 21L34 21L34 22L35 22L35 23L34 23L34 24L33 24L33 25L34 25L34 26L33 26L33 27L34 27L34 35L33 35L33 36L34 36L34 38L35 38L35 30L37 30L37 32L38 32L38 30L37 30L37 29L38 29L38 28L37 28L37 27L39 27L39 26L38 26L38 25L41 25L41 26L40 26L40 27L41 27L41 28L40 28L40 29L39 29L39 32L40 32L40 33L39 33L39 34L38 34L38 33L37 33L37 34L38 34L38 36L39 36L39 37L41 37L41 35L42 35L42 37L44 37L44 35L45 35L45 33L43 33L43 35L42 35L42 34L40 34L40 33L41 33L41 32L40 32L40 30L41 30L41 29L43 29L43 31L45 31L45 30L44 30L44 28L42 28L42 25L41 25L41 22L40 22L40 21L39 21L39 22L38 22L38 23L37 23L37 22L35 22L35 20L36 20L36 19L35 19L35 20L34 20L34 18ZM4 20L4 21L5 21L5 22L6 22L6 23L9 23L9 24L10 24L10 23L9 23L9 22L11 22L11 23L12 23L12 24L13 24L13 25L14 25L14 24L13 24L13 23L12 23L12 22L11 22L11 21L12 21L12 20L11 20L11 21L10 21L10 20L8 20L8 21L7 21L7 20L6 20L6 21L5 21L5 20ZM31 20L31 21L32 21L32 20ZM48 20L48 21L51 21L51 22L52 22L52 23L51 23L51 24L50 24L50 22L49 22L49 24L50 24L50 25L49 25L49 26L50 26L50 25L51 25L51 24L52 24L52 25L54 25L54 24L55 24L55 25L56 25L56 24L55 24L55 23L53 23L53 22L52 22L52 21L51 21L51 20ZM6 21L6 22L7 22L7 21ZM46 23L46 24L47 24L47 23ZM52 23L52 24L53 24L53 23ZM34 24L34 25L37 25L37 24ZM36 26L36 27L35 27L35 29L37 29L37 28L36 28L36 27L37 27L37 26ZM43 26L43 27L44 27L44 26ZM54 26L54 27L53 27L53 28L54 28L54 29L55 29L55 28L56 28L56 27L55 27L55 26ZM5 27L5 30L8 30L8 27ZM20 27L20 28L19 28L19 29L18 29L18 30L19 30L19 29L20 29L20 30L22 30L22 29L21 29L21 27ZM27 27L27 30L30 30L30 27ZM49 27L49 30L52 30L52 27ZM6 28L6 29L7 29L7 28ZM28 28L28 29L29 29L29 28ZM50 28L50 29L51 29L51 28ZM13 29L13 31L14 31L14 29ZM1 30L1 31L2 31L2 30ZM5 31L5 32L4 32L4 33L6 33L6 34L7 34L7 33L6 33L6 32L8 32L8 31ZM15 31L15 32L16 32L16 35L17 35L17 32L16 32L16 31ZM20 33L20 34L19 34L19 35L21 35L21 33ZM55 33L55 34L56 34L56 33ZM1 34L1 35L0 35L0 36L1 36L1 35L2 35L2 34ZM24 34L24 36L25 36L25 37L26 37L26 36L25 36L25 35L26 35L26 34ZM47 34L47 35L48 35L48 36L49 36L49 35L48 35L48 34ZM39 35L39 36L40 36L40 35ZM28 36L28 37L27 37L27 39L28 39L28 38L29 38L29 39L31 39L31 38L33 38L33 37L32 37L32 36L31 36L31 37L29 37L29 36ZM45 36L45 37L46 37L46 36ZM48 37L48 38L49 38L49 37ZM11 38L11 39L12 39L12 38ZM42 40L42 41L40 41L40 42L43 42L43 44L44 44L44 41L43 41L43 40ZM31 41L31 43L29 43L29 44L28 44L28 45L30 45L30 46L31 46L31 45L32 45L32 46L33 46L33 47L34 47L34 45L35 45L35 46L36 46L36 45L37 45L37 44L33 44L33 43L32 43L32 41ZM52 41L52 43L51 43L51 44L52 44L52 43L53 43L53 44L54 44L54 45L55 45L55 44L56 44L56 43L55 43L55 42L54 42L54 43L53 43L53 41ZM49 43L49 44L50 44L50 43ZM30 44L30 45L31 45L31 44ZM40 44L40 45L41 45L41 44ZM46 44L46 45L47 45L47 44ZM14 45L14 46L15 46L15 47L16 47L16 46L15 46L15 45ZM19 45L19 46L20 46L20 45ZM21 45L21 46L22 46L22 47L23 47L23 45ZM52 45L52 46L53 46L53 47L52 47L52 48L54 48L54 49L55 49L55 47L54 47L54 46L53 46L53 45ZM17 47L17 48L19 48L19 47ZM39 47L39 49L38 49L38 51L40 51L40 47ZM46 47L46 48L47 48L47 47ZM27 49L27 52L30 52L30 49ZM45 49L45 50L46 50L46 49ZM49 49L49 52L52 52L52 49ZM28 50L28 51L29 51L29 50ZM50 50L50 51L51 51L51 50ZM25 51L25 53L24 53L24 54L25 54L25 53L26 53L26 51ZM34 51L34 52L35 52L35 51ZM30 53L30 54L31 54L31 53ZM33 53L33 54L34 54L34 53ZM49 53L49 54L51 54L51 55L52 55L52 54L51 54L51 53ZM42 54L42 55L43 55L43 54ZM17 56L17 57L22 57L22 56ZM26 56L26 57L27 57L27 56ZM44 56L44 57L45 57L45 56ZM56 56L56 57L57 57L57 56ZM0 0L0 7L7 7L7 0ZM1 1L1 6L6 6L6 1ZM2 2L2 5L5 5L5 2ZM50 0L50 7L57 7L57 0ZM51 1L51 6L56 6L56 1ZM52 2L52 5L55 5L55 2ZM0 50L0 57L7 57L7 50ZM1 51L1 56L6 56L6 51ZM2 52L2 55L5 55L5 52Z" fill="#000000"/></g></g></svg>
