<?xml version="1.0" encoding="UTF-8"?>
<svg xmlns="http://www.w3.org/2000/svg" version="1.1" width="300" height="300" viewBox="0 0 300 300"><rect x="0" y="0" width="300" height="300" fill="#fefefe"/><g transform="scale(4.615)"><g transform="translate(4,4)"><path fill-rule="evenodd" d="M8 0L8 2L10 2L10 3L9 3L9 4L8 4L8 9L7 9L7 8L5 8L5 9L3 9L3 8L0 8L0 9L3 9L3 11L2 11L2 12L5 12L5 13L4 13L4 14L2 14L2 13L0 13L0 16L2 16L2 17L3 17L3 16L4 16L4 14L5 14L5 15L7 15L7 14L6 14L6 13L7 13L7 12L6 12L6 11L7 11L7 10L8 10L8 9L9 9L9 6L10 6L10 7L11 7L11 8L12 8L12 9L13 9L13 10L14 10L14 9L15 9L15 11L14 11L14 12L15 12L15 11L16 11L16 12L17 12L17 14L15 14L15 15L17 15L17 16L16 16L16 17L15 17L15 16L14 16L14 14L12 14L12 13L13 13L13 12L12 12L12 10L11 10L11 9L10 9L10 10L9 10L9 12L11 12L11 13L8 13L8 14L9 14L9 15L8 15L8 16L9 16L9 15L11 15L11 16L12 16L12 15L13 15L13 16L14 16L14 17L9 17L9 18L8 18L8 17L7 17L7 16L5 16L5 17L7 17L7 18L6 18L6 19L5 19L5 21L4 21L4 18L3 18L3 19L2 19L2 18L1 18L1 17L0 17L0 19L1 19L1 21L2 21L2 22L1 22L1 24L0 24L0 25L1 25L1 26L0 26L0 29L1 29L1 30L0 30L0 38L1 38L1 36L2 36L2 38L4 38L4 39L7 39L7 40L2 40L2 39L1 39L1 40L0 40L0 43L1 43L1 44L0 44L0 48L5 48L5 47L7 47L7 46L5 46L5 47L3 47L3 46L4 46L4 45L3 45L3 43L5 43L5 44L6 44L6 45L7 45L7 44L6 44L6 43L8 43L8 46L11 46L11 47L8 47L8 48L9 48L9 49L8 49L8 50L9 50L9 51L8 51L8 52L10 52L10 54L8 54L8 57L10 57L10 56L12 56L12 57L17 57L17 56L18 56L18 57L19 57L19 56L18 56L18 55L16 55L16 54L17 54L17 51L15 51L15 54L14 54L14 52L13 52L13 50L14 50L14 47L15 47L15 50L16 50L16 49L17 49L17 48L18 48L18 49L19 49L19 50L20 50L20 51L19 51L19 52L18 52L18 54L19 54L19 52L20 52L20 53L21 53L21 54L20 54L20 55L21 55L21 56L20 56L20 57L21 57L21 56L22 56L22 57L25 57L25 56L26 56L26 57L28 57L28 55L29 55L29 57L33 57L33 55L30 55L30 54L31 54L31 53L32 53L32 54L34 54L34 57L35 57L35 55L38 55L38 52L40 52L40 53L39 53L39 55L40 55L40 54L41 54L41 55L42 55L42 56L40 56L40 57L42 57L42 56L43 56L43 54L42 54L42 53L43 53L43 52L44 52L44 55L45 55L45 56L44 56L44 57L45 57L45 56L46 56L46 55L47 55L47 54L48 54L48 56L47 56L47 57L48 57L48 56L49 56L49 57L50 57L50 55L49 55L49 54L52 54L52 55L53 55L53 53L54 53L54 55L57 55L57 54L55 54L55 52L56 52L56 53L57 53L57 50L56 50L56 51L55 51L55 52L54 52L54 51L53 51L53 50L54 50L54 49L56 49L56 47L57 47L57 42L56 42L56 43L55 43L55 42L54 42L54 41L57 41L57 40L54 40L54 39L53 39L53 38L54 38L54 37L55 37L55 38L57 38L57 33L56 33L56 31L57 31L57 29L56 29L56 27L57 27L57 24L56 24L56 23L57 23L57 21L56 21L56 20L55 20L55 21L54 21L54 19L55 19L55 16L56 16L56 17L57 17L57 10L56 10L56 11L55 11L55 9L57 9L57 8L55 8L55 9L54 9L54 10L52 10L52 12L51 12L51 10L50 10L50 9L53 9L53 8L48 8L48 9L47 9L47 8L46 8L46 7L47 7L47 5L48 5L48 0L46 0L46 1L47 1L47 2L45 2L45 4L44 4L44 2L43 2L43 3L42 3L42 1L45 1L45 0L42 0L42 1L41 1L41 0L38 0L38 2L37 2L37 1L35 1L35 0L34 0L34 3L33 3L33 6L32 6L32 7L33 7L33 6L34 6L34 8L32 8L32 9L31 9L31 5L32 5L32 1L33 1L33 0L32 0L32 1L31 1L31 0L30 0L30 1L29 1L29 0L28 0L28 1L27 1L27 0L24 0L24 1L23 1L23 0L19 0L19 2L18 2L18 1L17 1L17 0L16 0L16 1L17 1L17 2L16 2L16 3L15 3L15 0L14 0L14 3L13 3L13 1L9 1L9 0ZM22 1L22 2L21 2L21 3L18 3L18 2L17 2L17 3L16 3L16 4L17 4L17 3L18 3L18 4L19 4L19 7L18 7L18 6L17 6L17 5L16 5L16 6L15 6L15 7L14 7L14 5L13 5L13 7L14 7L14 8L13 8L13 9L14 9L14 8L16 8L16 11L17 11L17 9L18 9L18 10L19 10L19 9L18 9L18 8L19 8L19 7L20 7L20 5L21 5L21 9L20 9L20 10L21 10L21 13L20 13L20 11L18 11L18 12L19 12L19 13L18 13L18 14L19 14L19 17L18 17L18 16L17 16L17 17L16 17L16 19L14 19L14 20L16 20L16 19L18 19L18 18L19 18L19 23L18 23L18 22L16 22L16 23L17 23L17 25L16 25L16 26L17 26L17 27L16 27L16 28L15 28L15 27L14 27L14 28L11 28L11 27L10 27L10 28L11 28L11 30L12 30L12 31L14 31L14 29L15 29L15 30L16 30L16 31L15 31L15 32L14 32L14 33L16 33L16 34L15 34L15 35L14 35L14 34L13 34L13 32L11 32L11 33L9 33L9 32L10 32L10 30L9 30L9 31L5 31L5 32L4 32L4 31L3 31L3 32L2 32L2 33L3 33L3 34L2 34L2 35L5 35L5 33L6 33L6 34L8 34L8 35L6 35L6 36L5 36L5 37L4 37L4 38L7 38L7 39L8 39L8 40L7 40L7 41L6 41L6 42L7 42L7 41L8 41L8 40L9 40L9 42L8 42L8 43L9 43L9 42L10 42L10 41L13 41L13 40L17 40L17 41L16 41L16 42L15 42L15 41L14 41L14 43L13 43L13 42L12 42L12 43L11 43L11 44L9 44L9 45L12 45L12 46L13 46L13 47L14 47L14 43L17 43L17 42L18 42L18 36L21 36L21 38L20 38L20 39L21 39L21 41L20 41L20 40L19 40L19 41L20 41L20 42L21 42L21 43L20 43L20 44L19 44L19 43L18 43L18 44L19 44L19 45L18 45L18 46L17 46L17 44L15 44L15 45L16 45L16 46L17 46L17 47L16 47L16 48L17 48L17 47L18 47L18 48L19 48L19 49L20 49L20 50L22 50L22 51L23 51L23 52L24 52L24 51L25 51L25 53L26 53L26 54L24 54L24 55L26 55L26 54L27 54L27 55L28 55L28 53L26 53L26 51L25 51L25 49L26 49L26 48L28 48L28 46L29 46L29 47L30 47L30 48L31 48L31 52L32 52L32 51L33 51L33 52L34 52L34 54L35 54L35 53L36 53L36 54L37 54L37 53L36 53L36 52L35 52L35 51L37 51L37 52L38 52L38 51L39 51L39 49L40 49L40 51L41 51L41 52L42 52L42 51L41 51L41 49L42 49L42 50L43 50L43 51L44 51L44 50L43 50L43 49L44 49L44 46L43 46L43 45L44 45L44 44L45 44L45 41L44 41L44 42L43 42L43 38L44 38L44 35L43 35L43 33L42 33L42 31L44 31L44 30L46 30L46 31L45 31L45 33L46 33L46 34L48 34L48 35L49 35L49 36L48 36L48 37L46 37L46 38L47 38L47 40L46 40L46 39L45 39L45 40L46 40L46 42L47 42L47 43L48 43L48 42L49 42L49 45L48 45L48 46L49 46L49 47L50 47L50 46L51 46L51 45L50 45L50 42L49 42L49 41L51 41L51 40L52 40L52 47L51 47L51 48L52 48L52 47L54 47L54 48L53 48L53 49L54 49L54 48L55 48L55 47L56 47L56 44L55 44L55 43L54 43L54 44L53 44L53 39L52 39L52 38L53 38L53 37L54 37L54 36L55 36L55 37L56 37L56 33L55 33L55 31L56 31L56 30L55 30L55 27L56 27L56 26L55 26L55 25L56 25L56 24L55 24L55 23L56 23L56 21L55 21L55 22L54 22L54 24L53 24L53 22L52 22L52 20L53 20L53 19L54 19L54 16L55 16L55 15L56 15L56 12L55 12L55 11L54 11L54 12L53 12L53 13L54 13L54 14L55 14L55 15L54 15L54 16L53 16L53 17L52 17L52 16L50 16L50 15L51 15L51 14L52 14L52 15L53 15L53 14L52 14L52 13L50 13L50 11L49 11L49 12L48 12L48 14L47 14L47 13L46 13L46 11L47 11L47 9L46 9L46 8L45 8L45 9L44 9L44 8L42 8L42 3L41 3L41 2L40 2L40 1L39 1L39 2L38 2L38 3L37 3L37 2L35 2L35 3L34 3L34 4L35 4L35 9L34 9L34 10L33 10L33 9L32 9L32 11L34 11L34 12L35 12L35 13L34 13L34 15L33 15L33 13L32 13L32 16L31 16L31 12L30 12L30 10L31 10L31 9L30 9L30 10L28 10L28 9L27 9L27 10L25 10L25 9L26 9L26 5L24 5L24 6L23 6L23 8L24 8L24 11L26 11L26 13L24 13L24 12L22 12L22 11L23 11L23 9L22 9L22 5L23 5L23 3L22 3L22 2L23 2L23 1ZM24 1L24 4L25 4L25 1ZM28 1L28 4L30 4L30 3L29 3L29 1ZM30 1L30 2L31 2L31 1ZM39 2L39 3L38 3L38 5L37 5L37 6L36 6L36 10L34 10L34 11L37 11L37 12L36 12L36 13L35 13L35 14L36 14L36 18L34 18L34 17L35 17L35 15L34 15L34 17L33 17L33 16L32 16L32 17L31 17L31 16L30 16L30 15L29 15L29 13L30 13L30 12L29 12L29 11L28 11L28 10L27 10L27 11L28 11L28 12L27 12L27 13L26 13L26 14L25 14L25 15L24 15L24 13L23 13L23 16L22 16L22 14L20 14L20 13L19 13L19 14L20 14L20 15L21 15L21 16L20 16L20 17L19 17L19 18L20 18L20 21L21 21L21 22L20 22L20 23L21 23L21 22L22 22L22 26L21 26L21 30L20 30L20 29L19 29L19 30L18 30L18 33L17 33L17 31L16 31L16 33L17 33L17 34L16 34L16 35L15 35L15 36L12 36L12 35L13 35L13 34L10 34L10 35L11 35L11 38L12 38L12 40L13 40L13 39L15 39L15 36L16 36L16 37L17 37L17 36L16 36L16 35L18 35L18 33L19 33L19 34L20 34L20 33L19 33L19 30L20 30L20 32L21 32L21 30L22 30L22 33L23 33L23 34L22 34L22 35L21 35L21 36L22 36L22 37L23 37L23 36L22 36L22 35L25 35L25 36L24 36L24 37L25 37L25 36L26 36L26 35L25 35L25 34L24 34L24 32L23 32L23 30L24 30L24 31L25 31L25 33L26 33L26 34L28 34L28 35L27 35L27 36L28 36L28 37L29 37L29 36L28 36L28 35L31 35L31 36L30 36L30 40L29 40L29 41L30 41L30 43L28 43L28 40L25 40L25 41L26 41L26 42L25 42L25 44L24 44L24 40L22 40L22 41L23 41L23 43L22 43L22 44L24 44L24 45L23 45L23 47L24 47L24 48L26 48L26 46L28 46L28 45L30 45L30 43L31 43L31 46L30 46L30 47L32 47L32 45L33 45L33 48L32 48L32 49L33 49L33 51L34 51L34 45L33 45L33 44L35 44L35 43L36 43L36 41L37 41L37 42L38 42L38 41L39 41L39 40L40 40L40 41L41 41L41 42L40 42L40 43L37 43L37 44L36 44L36 45L37 45L37 46L38 46L38 45L37 45L37 44L40 44L40 46L41 46L41 47L40 47L40 49L41 49L41 47L42 47L42 45L43 45L43 44L42 44L42 45L41 45L41 44L40 44L40 43L41 43L41 42L42 42L42 43L43 43L43 42L42 42L42 41L41 41L41 40L40 40L40 39L41 39L41 38L42 38L42 37L43 37L43 36L42 36L42 37L41 37L41 35L40 35L40 36L38 36L38 35L39 35L39 34L38 34L38 33L39 33L39 32L40 32L40 34L42 34L42 33L41 33L41 32L40 32L40 31L42 31L42 28L43 28L43 30L44 30L44 29L46 29L46 28L47 28L47 27L48 27L48 30L47 30L47 33L48 33L48 34L49 34L49 33L50 33L50 36L49 36L49 37L50 37L50 40L51 40L51 38L52 38L52 37L53 37L53 36L54 36L54 34L53 34L53 36L52 36L52 37L51 37L51 33L50 33L50 32L53 32L53 33L54 33L54 31L55 31L55 30L54 30L54 29L53 29L53 28L54 28L54 27L55 27L55 26L54 26L54 25L55 25L55 24L54 24L54 25L53 25L53 24L52 24L52 22L51 22L51 24L50 24L50 22L49 22L49 23L48 23L48 22L47 22L47 26L46 26L46 24L44 24L44 23L45 23L45 22L44 22L44 21L45 21L45 19L44 19L44 17L45 17L45 18L46 18L46 13L45 13L45 12L44 12L44 9L43 9L43 10L42 10L42 8L40 8L40 10L38 10L38 8L39 8L39 6L38 6L38 5L39 5L39 4L40 4L40 2ZM12 3L12 4L13 4L13 3ZM14 3L14 4L15 4L15 3ZM21 3L21 5L22 5L22 3ZM26 3L26 4L27 4L27 3ZM35 3L35 4L36 4L36 3ZM46 3L46 5L47 5L47 3ZM9 4L9 5L10 5L10 6L11 6L11 7L12 7L12 5L11 5L11 4ZM43 4L43 5L44 5L44 6L43 6L43 7L44 7L44 6L45 6L45 7L46 7L46 6L45 6L45 5L44 5L44 4ZM27 5L27 8L30 8L30 5ZM16 6L16 7L17 7L17 8L18 8L18 7L17 7L17 6ZM24 6L24 7L25 7L25 6ZM28 6L28 7L29 7L29 6ZM37 6L37 7L38 7L38 6ZM40 6L40 7L41 7L41 6ZM48 6L48 7L49 7L49 6ZM6 9L6 10L5 10L5 11L6 11L6 10L7 10L7 9ZM21 9L21 10L22 10L22 9ZM48 9L48 10L49 10L49 9ZM37 10L37 11L38 11L38 10ZM40 10L40 11L41 11L41 12L42 12L42 15L41 15L41 17L42 17L42 18L43 18L43 17L44 17L44 16L45 16L45 15L44 15L44 16L43 16L43 13L44 13L44 14L45 14L45 13L44 13L44 12L42 12L42 10ZM0 11L0 12L1 12L1 11ZM37 12L37 13L38 13L38 15L37 15L37 16L38 16L38 18L40 18L40 19L39 19L39 21L38 21L38 19L37 19L37 18L36 18L36 19L37 19L37 21L36 21L36 20L35 20L35 19L33 19L33 20L35 20L35 21L34 21L34 22L33 22L33 21L32 21L32 20L31 20L31 19L32 19L32 18L33 18L33 17L32 17L32 18L31 18L31 17L30 17L30 16L29 16L29 15L28 15L28 14L26 14L26 16L27 16L27 17L25 17L25 16L24 16L24 18L27 18L27 19L26 19L26 20L27 20L27 22L26 22L26 23L27 23L27 22L28 22L28 24L27 24L27 25L26 25L26 26L29 26L29 25L28 25L28 24L29 24L29 23L30 23L30 26L31 26L31 25L32 25L32 28L31 28L31 30L33 30L33 29L34 29L34 31L35 31L35 32L34 32L34 34L35 34L35 33L36 33L36 35L35 35L35 37L34 37L34 35L33 35L33 34L32 34L32 35L33 35L33 38L31 38L31 40L30 40L30 41L31 41L31 43L32 43L32 40L33 40L33 41L34 41L34 42L35 42L35 41L36 41L36 38L37 38L37 37L36 37L36 35L38 35L38 34L37 34L37 33L36 33L36 31L37 31L37 32L38 32L38 31L40 31L40 30L41 30L41 29L40 29L40 28L41 28L41 27L44 27L44 26L45 26L45 27L46 27L46 26L45 26L45 25L44 25L44 24L43 24L43 25L42 25L42 22L43 22L43 23L44 23L44 22L43 22L43 21L44 21L44 19L43 19L43 21L42 21L42 20L41 20L41 21L42 21L42 22L40 22L40 19L41 19L41 18L40 18L40 15L39 15L39 13L40 13L40 14L41 14L41 13L40 13L40 12ZM49 13L49 14L48 14L48 15L47 15L47 19L46 19L46 21L47 21L47 19L48 19L48 20L51 20L51 19L52 19L52 17L51 17L51 18L50 18L50 16L49 16L49 15L50 15L50 13ZM14 17L14 18L15 18L15 17ZM20 17L20 18L21 18L21 19L22 19L22 18L21 18L21 17ZM28 17L28 18L30 18L30 17ZM48 17L48 19L49 19L49 17ZM7 18L7 19L6 19L6 20L7 20L7 19L8 19L8 20L9 20L9 21L5 21L5 22L3 22L3 24L1 24L1 25L2 25L2 26L1 26L1 29L3 29L3 28L4 28L4 26L3 26L3 24L4 24L4 23L5 23L5 22L7 22L7 23L6 23L6 24L7 24L7 25L5 25L5 26L14 26L14 25L13 25L13 24L14 24L14 23L15 23L15 21L14 21L14 23L13 23L13 20L12 20L12 19L10 19L10 18L9 18L9 19L8 19L8 18ZM56 18L56 19L57 19L57 18ZM9 19L9 20L10 20L10 21L9 21L9 22L10 22L10 23L11 23L11 25L12 25L12 23L11 23L11 20L10 20L10 19ZM24 19L24 20L25 20L25 19ZM2 20L2 21L3 21L3 20ZM17 20L17 21L18 21L18 20ZM28 20L28 22L30 22L30 20ZM35 21L35 22L34 22L34 24L33 24L33 22L31 22L31 23L32 23L32 25L33 25L33 26L34 26L34 24L36 24L36 26L37 26L37 28L36 28L36 27L34 27L34 29L35 29L35 30L36 30L36 29L37 29L37 28L38 28L38 29L39 29L39 27L41 27L41 23L40 23L40 26L38 26L38 25L37 25L37 24L36 24L36 23L37 23L37 22L38 22L38 23L39 23L39 22L38 22L38 21L37 21L37 22L36 22L36 21ZM24 22L24 23L25 23L25 22ZM35 22L35 23L36 23L36 22ZM8 23L8 24L9 24L9 25L10 25L10 24L9 24L9 23ZM18 24L18 25L19 25L19 27L18 27L18 28L19 28L19 27L20 27L20 24ZM48 24L48 26L49 26L49 25L50 25L50 26L51 26L51 25L52 25L52 24L51 24L51 25L50 25L50 24ZM24 25L24 26L23 26L23 27L22 27L22 28L24 28L24 26L25 26L25 25ZM43 25L43 26L44 26L44 25ZM5 27L5 30L8 30L8 27ZM27 27L27 30L30 30L30 27ZM49 27L49 30L52 30L52 27ZM6 28L6 29L7 29L7 28ZM28 28L28 29L29 29L29 28ZM32 28L32 29L33 29L33 28ZM35 28L35 29L36 29L36 28ZM50 28L50 29L51 29L51 28ZM12 29L12 30L13 30L13 29ZM22 29L22 30L23 30L23 29ZM24 29L24 30L25 30L25 31L26 31L26 30L25 30L25 29ZM1 30L1 31L2 31L2 30ZM37 30L37 31L38 31L38 30ZM53 30L53 31L54 31L54 30ZM28 31L28 32L26 32L26 33L28 33L28 34L29 34L29 32L30 32L30 34L31 34L31 33L32 33L32 32L33 32L33 31L32 31L32 32L30 32L30 31ZM3 32L3 33L4 33L4 32ZM6 32L6 33L8 33L8 32ZM45 35L45 36L47 36L47 35ZM6 36L6 37L7 37L7 38L10 38L10 37L9 37L9 36L8 36L8 37L7 37L7 36ZM31 36L31 37L32 37L32 36ZM12 37L12 38L13 38L13 37ZM35 37L35 38L36 38L36 37ZM38 37L38 38L39 38L39 39L40 39L40 38L39 38L39 37ZM16 38L16 39L17 39L17 38ZM21 38L21 39L22 39L22 38ZM24 38L24 39L26 39L26 38ZM28 38L28 39L29 39L29 38ZM48 38L48 40L47 40L47 41L48 41L48 40L49 40L49 38ZM34 39L34 41L35 41L35 39ZM37 39L37 41L38 41L38 39ZM1 41L1 43L3 43L3 42L5 42L5 41ZM12 43L12 45L13 45L13 43ZM27 43L27 45L28 45L28 43ZM1 44L1 47L2 47L2 44ZM46 44L46 47L47 47L47 44ZM24 45L24 47L25 47L25 46L26 46L26 45ZM53 45L53 46L54 46L54 47L55 47L55 45ZM18 46L18 47L21 47L21 48L22 48L22 50L23 50L23 51L24 51L24 49L23 49L23 48L22 48L22 46ZM11 47L11 48L12 48L12 47ZM37 47L37 48L36 48L36 49L37 49L37 51L38 51L38 47ZM6 48L6 49L7 49L7 48ZM45 48L45 49L46 49L46 50L47 50L47 49L46 49L46 48ZM12 49L12 50L13 50L13 49ZM27 49L27 52L30 52L30 49ZM49 49L49 52L52 52L52 49ZM28 50L28 51L29 51L29 50ZM50 50L50 51L51 51L51 50ZM10 51L10 52L11 52L11 51ZM47 51L47 52L48 52L48 51ZM12 52L12 53L13 53L13 52ZM45 52L45 53L46 53L46 54L45 54L45 55L46 55L46 54L47 54L47 53L46 53L46 52ZM48 53L48 54L49 54L49 53ZM10 54L10 55L9 55L9 56L10 56L10 55L13 55L13 56L15 56L15 55L14 55L14 54ZM21 54L21 55L23 55L23 54ZM36 56L36 57L37 57L37 56ZM51 56L51 57L53 57L53 56ZM56 56L56 57L57 57L57 56ZM0 0L0 7L7 7L7 0ZM1 1L1 6L6 6L6 1ZM2 2L2 5L5 5L5 2ZM50 0L50 7L57 7L57 0ZM51 1L51 6L56 6L56 1ZM52 2L52 5L55 5L55 2ZM0 50L0 57L7 57L7 50ZM1 51L1 56L6 56L6 51ZM2 52L2 55L5 55L5 52Z" fill="#000000"/></g></g></svg>
