<?xml version="1.0" encoding="UTF-8"?>
<svg xmlns="http://www.w3.org/2000/svg" version="1.1" width="300" height="300" viewBox="0 0 300 300"><rect x="0" y="0" width="300" height="300" fill="#fefefe"/><g transform="scale(4.615)"><g transform="translate(4,4)"><path fill-rule="evenodd" d="M8 0L8 1L9 1L9 2L8 2L8 5L9 5L9 4L10 4L10 5L12 5L12 7L13 7L13 6L14 6L14 8L15 8L15 11L14 11L14 9L11 9L11 6L10 6L10 7L9 7L9 6L8 6L8 7L9 7L9 8L8 8L8 10L6 10L6 9L7 9L7 8L6 8L6 9L4 9L4 8L0 8L0 9L1 9L1 10L0 10L0 11L1 11L1 10L2 10L2 11L3 11L3 12L2 12L2 13L1 13L1 12L0 12L0 14L2 14L2 13L3 13L3 15L0 15L0 16L2 16L2 17L0 17L0 20L1 20L1 18L2 18L2 17L3 17L3 19L4 19L4 17L3 17L3 16L4 16L4 15L5 15L5 18L6 18L6 19L7 19L7 18L8 18L8 19L10 19L10 18L11 18L11 20L10 20L10 21L9 21L9 20L8 20L8 22L4 22L4 21L5 21L5 20L3 20L3 22L2 22L2 21L1 21L1 22L0 22L0 23L1 23L1 24L0 24L0 28L1 28L1 27L2 27L2 29L1 29L1 30L0 30L0 33L2 33L2 32L4 32L4 31L5 31L5 33L4 33L4 36L3 36L3 38L4 38L4 39L7 39L7 38L11 38L11 39L9 39L9 40L2 40L2 41L0 41L0 42L2 42L2 43L1 43L1 44L0 44L0 48L5 48L5 47L7 47L7 48L6 48L6 49L8 49L8 50L9 50L9 53L8 53L8 57L9 57L9 55L10 55L10 54L11 54L11 55L12 55L12 54L11 54L11 53L12 53L12 52L11 52L11 53L10 53L10 51L12 51L12 50L11 50L11 49L10 49L10 45L11 45L11 46L14 46L14 47L16 47L16 48L14 48L14 49L13 49L13 50L14 50L14 51L17 51L17 52L19 52L19 55L20 55L20 56L19 56L19 57L24 57L24 56L26 56L26 54L27 54L27 53L29 53L29 54L31 54L31 55L30 55L30 56L31 56L31 57L32 57L32 55L34 55L34 56L33 56L33 57L36 57L36 55L38 55L38 57L43 57L43 55L44 55L44 54L45 54L45 55L46 55L46 56L47 56L47 55L48 55L48 57L51 57L51 54L52 54L52 53L53 53L53 56L52 56L52 57L55 57L55 56L54 56L54 55L55 55L55 54L56 54L56 52L55 52L55 51L56 51L56 49L57 49L57 48L56 48L56 49L55 49L55 50L53 50L53 48L54 48L54 46L55 46L55 47L57 47L57 44L52 44L52 43L53 43L53 42L54 42L54 43L56 43L56 41L57 41L57 40L56 40L56 41L55 41L55 42L54 42L54 40L55 40L55 39L53 39L53 38L52 38L52 36L53 36L53 37L55 37L55 38L56 38L56 39L57 39L57 38L56 38L56 37L55 37L55 36L56 36L56 35L57 35L57 34L56 34L56 33L57 33L57 31L56 31L56 30L57 30L57 29L56 29L56 30L55 30L55 27L53 27L53 26L51 26L51 25L50 25L50 24L49 24L49 23L47 23L47 22L49 22L49 20L50 20L50 21L51 21L51 22L52 22L52 24L53 24L53 25L56 25L56 24L54 24L54 23L57 23L57 21L56 21L56 20L54 20L54 21L56 21L56 22L53 22L53 20L50 20L50 19L51 19L51 18L50 18L50 19L47 19L47 20L48 20L48 21L47 21L47 22L46 22L46 23L45 23L45 22L44 22L44 21L43 21L43 18L42 18L42 17L45 17L45 18L44 18L44 19L45 19L45 18L48 18L48 17L45 17L45 16L44 16L44 15L45 15L45 14L46 14L46 13L44 13L44 11L42 11L42 12L43 12L43 13L44 13L44 14L42 14L42 17L41 17L41 18L39 18L39 19L40 19L40 20L38 20L38 19L36 19L36 20L35 20L35 19L34 19L34 18L35 18L35 17L34 17L34 16L35 16L35 15L33 15L33 14L34 14L34 12L35 12L35 14L36 14L36 15L39 15L39 17L40 17L40 16L41 16L41 13L40 13L40 15L39 15L39 11L41 11L41 10L44 10L44 9L42 9L42 8L43 8L43 5L45 5L45 6L44 6L44 7L45 7L45 6L46 6L46 7L47 7L47 5L48 5L48 0L45 0L45 1L44 1L44 2L41 2L41 1L43 1L43 0L41 0L41 1L40 1L40 0L39 0L39 1L40 1L40 2L41 2L41 3L43 3L43 5L42 5L42 8L40 8L40 7L41 7L41 4L37 4L37 3L39 3L39 2L37 2L37 1L38 1L38 0L37 0L37 1L36 1L36 0L35 0L35 1L34 1L34 2L33 2L33 1L32 1L32 2L31 2L31 0L27 0L27 3L28 3L28 1L30 1L30 3L31 3L31 4L26 4L26 2L24 2L24 3L23 3L23 2L21 2L21 3L23 3L23 5L20 5L20 4L19 4L19 3L18 3L18 2L20 2L20 0L19 0L19 1L18 1L18 2L16 2L16 1L15 1L15 2L16 2L16 3L17 3L17 4L19 4L19 5L15 5L15 4L14 4L14 3L13 3L13 4L14 4L14 5L12 5L12 4L11 4L11 3L12 3L12 2L13 2L13 1L12 1L12 0L11 0L11 1L10 1L10 0ZM21 0L21 1L22 1L22 0ZM23 0L23 1L26 1L26 0ZM35 1L35 2L34 2L34 5L33 5L33 3L32 3L32 4L31 4L31 5L32 5L32 6L31 6L31 9L32 9L32 10L29 10L29 11L28 11L28 10L26 10L26 11L25 11L25 12L24 12L24 16L25 16L25 17L24 17L24 18L23 18L23 13L22 13L22 12L23 12L23 11L21 11L21 8L23 8L23 9L22 9L22 10L23 10L23 9L26 9L26 6L25 6L25 5L26 5L26 4L24 4L24 6L23 6L23 7L22 7L22 6L21 6L21 7L20 7L20 6L19 6L19 7L18 7L18 6L17 6L17 7L16 7L16 6L15 6L15 5L14 5L14 6L15 6L15 8L16 8L16 12L15 12L15 15L14 15L14 16L15 16L15 15L16 15L16 16L17 16L17 18L20 18L20 19L19 19L19 20L18 20L18 19L16 19L16 17L15 17L15 18L13 18L13 17L11 17L11 18L12 18L12 19L16 19L16 20L14 20L14 23L12 23L12 25L11 25L11 23L3 23L3 24L8 24L8 25L5 25L5 26L8 26L8 25L11 25L11 26L10 26L10 27L12 27L12 25L13 25L13 26L14 26L14 27L13 27L13 28L11 28L11 29L9 29L9 30L11 30L11 31L12 31L12 32L13 32L13 34L14 34L14 35L13 35L13 36L12 36L12 34L11 34L11 35L9 35L9 34L10 34L10 33L11 33L11 32L10 32L10 31L6 31L6 32L7 32L7 33L5 33L5 34L7 34L7 35L5 35L5 36L4 36L4 37L5 37L5 38L7 38L7 37L6 37L6 36L7 36L7 35L8 35L8 37L11 37L11 38L12 38L12 37L13 37L13 38L14 38L14 40L15 40L15 38L17 38L17 39L16 39L16 40L17 40L17 45L15 45L15 43L14 43L14 44L13 44L13 42L14 42L14 41L13 41L13 39L12 39L12 40L11 40L11 41L10 41L10 40L9 40L9 41L4 41L4 42L3 42L3 41L2 41L2 42L3 42L3 43L4 43L4 45L3 45L3 44L2 44L2 45L3 45L3 47L5 47L5 46L7 46L7 45L6 45L6 44L8 44L8 45L10 45L10 44L11 44L11 45L15 45L15 46L16 46L16 47L18 47L18 48L19 48L19 47L20 47L20 49L21 49L21 50L22 50L22 52L21 52L21 53L20 53L20 55L21 55L21 56L22 56L22 55L21 55L21 53L22 53L22 54L23 54L23 56L24 56L24 55L25 55L25 54L26 54L26 53L25 53L25 52L26 52L26 49L25 49L25 48L24 48L24 47L26 47L26 48L28 48L28 46L29 46L29 47L30 47L30 48L31 48L31 47L34 47L34 48L37 48L37 49L36 49L36 50L37 50L37 49L38 49L38 48L39 48L39 49L40 49L40 50L39 50L39 51L38 51L38 52L40 52L40 54L41 54L41 55L40 55L40 56L42 56L42 54L43 54L43 52L42 52L42 54L41 54L41 52L40 52L40 51L44 51L44 50L43 50L43 47L39 47L39 46L41 46L41 45L38 45L38 44L40 44L40 43L42 43L42 45L43 45L43 46L45 46L45 48L44 48L44 49L45 49L45 48L46 48L46 46L47 46L47 47L49 47L49 46L51 46L51 47L50 47L50 48L51 48L51 47L53 47L53 46L54 46L54 45L52 45L52 44L51 44L51 42L50 42L50 41L52 41L52 40L53 40L53 39L52 39L52 38L50 38L50 36L47 36L47 35L46 35L46 34L48 34L48 35L49 35L49 34L50 34L50 33L49 33L49 32L52 32L52 34L54 34L54 33L53 33L53 32L52 32L52 31L49 31L49 32L48 32L48 29L47 29L47 31L45 31L45 30L46 30L46 26L49 26L49 24L47 24L47 23L46 23L46 24L45 24L45 23L43 23L43 22L42 22L42 23L39 23L39 21L38 21L38 22L35 22L35 20L34 20L34 19L33 19L33 18L32 18L32 16L29 16L29 15L28 15L28 16L29 16L29 17L27 17L27 18L26 18L26 16L27 16L27 14L26 14L26 16L25 16L25 13L26 13L26 12L28 12L28 13L30 13L30 14L31 14L31 15L32 15L32 14L31 14L31 12L32 12L32 13L33 13L33 12L32 12L32 11L33 11L33 10L34 10L34 11L35 11L35 12L36 12L36 11L37 11L37 12L38 12L38 10L39 10L39 9L38 9L38 10L37 10L37 8L39 8L39 7L40 7L40 5L38 5L38 6L37 6L37 5L36 5L36 4L35 4L35 2L36 2L36 1ZM46 1L46 2L45 2L45 3L44 3L44 4L45 4L45 5L47 5L47 3L46 3L46 2L47 2L47 1ZM9 2L9 3L10 3L10 2ZM27 5L27 8L30 8L30 5ZM24 6L24 7L23 7L23 8L24 8L24 7L25 7L25 6ZM28 6L28 7L29 7L29 6ZM32 6L32 8L33 8L33 6ZM34 6L34 9L36 9L36 8L37 8L37 6L36 6L36 7L35 7L35 6ZM38 6L38 7L39 7L39 6ZM48 6L48 9L47 9L47 10L46 10L46 11L47 11L47 12L49 12L49 16L50 16L50 17L52 17L52 15L51 15L51 13L52 13L52 14L53 14L53 16L55 16L55 17L54 17L54 18L52 18L52 19L56 19L56 17L57 17L57 15L55 15L55 13L57 13L57 12L56 12L56 11L57 11L57 10L56 10L56 9L57 9L57 8L56 8L56 9L55 9L55 8L52 8L52 10L50 10L50 8L49 8L49 6ZM19 7L19 12L18 12L18 8L17 8L17 12L16 12L16 13L17 13L17 12L18 12L18 13L19 13L19 14L16 14L16 15L17 15L17 16L19 16L19 17L21 17L21 18L22 18L22 17L21 17L21 13L19 13L19 12L21 12L21 11L20 11L20 7ZM9 8L9 9L10 9L10 10L9 10L9 12L10 12L10 10L11 10L11 9L10 9L10 8ZM2 9L2 10L3 10L3 11L5 11L5 14L7 14L7 13L6 13L6 12L8 12L8 11L6 11L6 10L3 10L3 9ZM40 9L40 10L41 10L41 9ZM53 9L53 10L54 10L54 13L53 13L53 11L51 11L51 12L50 12L50 13L51 13L51 12L52 12L52 13L53 13L53 14L54 14L54 13L55 13L55 9ZM35 10L35 11L36 11L36 10ZM48 10L48 11L50 11L50 10ZM11 11L11 13L9 13L9 14L11 14L11 15L10 15L10 16L8 16L8 17L9 17L9 18L10 18L10 16L11 16L11 15L12 15L12 13L13 13L13 14L14 14L14 13L13 13L13 11ZM30 11L30 12L31 12L31 11ZM3 12L3 13L4 13L4 12ZM19 14L19 16L20 16L20 14ZM47 14L47 16L48 16L48 14ZM6 15L6 16L7 16L7 15ZM50 15L50 16L51 16L51 15ZM6 17L6 18L7 18L7 17ZM29 17L29 18L28 18L28 19L25 19L25 18L24 18L24 19L25 19L25 22L24 22L24 21L23 21L23 19L22 19L22 20L21 20L21 21L22 21L22 22L18 22L18 21L17 21L17 20L16 20L16 23L15 23L15 26L16 26L16 23L18 23L18 24L17 24L17 27L20 27L20 28L21 28L21 24L20 24L20 23L23 23L23 24L24 24L24 25L25 25L25 26L24 26L24 28L23 28L23 29L21 29L21 30L20 30L20 31L21 31L21 30L24 30L24 28L26 28L26 30L25 30L25 31L24 31L24 33L23 33L23 31L22 31L22 32L20 32L20 33L18 33L18 32L19 32L19 31L18 31L18 30L17 30L17 28L16 28L16 27L14 27L14 28L15 28L15 29L16 29L16 30L15 30L15 32L14 32L14 34L15 34L15 32L16 32L16 30L17 30L17 35L18 35L18 34L20 34L20 33L21 33L21 35L19 35L19 36L18 36L18 39L19 39L19 41L18 41L18 43L19 43L19 41L21 41L21 42L20 42L20 43L21 43L21 42L22 42L22 44L21 44L21 46L22 46L22 47L21 47L21 48L23 48L23 49L22 49L22 50L23 50L23 49L24 49L24 48L23 48L23 47L24 47L24 46L25 46L25 45L26 45L26 46L27 46L27 45L26 45L26 43L25 43L25 42L27 42L27 43L28 43L28 44L29 44L29 46L30 46L30 44L29 44L29 43L31 43L31 46L32 46L32 42L33 42L33 45L34 45L34 44L35 44L35 46L34 46L34 47L36 47L36 43L34 43L34 42L36 42L36 41L34 41L34 40L35 40L35 39L36 39L36 38L34 38L34 37L33 37L33 38L32 38L32 36L34 36L34 35L36 35L36 36L35 36L35 37L37 37L37 38L39 38L39 39L38 39L38 40L37 40L37 41L40 41L40 42L42 42L42 43L43 43L43 42L44 42L44 44L47 44L47 43L48 43L48 44L49 44L49 45L51 45L51 44L49 44L49 43L50 43L50 42L47 42L47 41L50 41L50 40L52 40L52 39L50 39L50 40L47 40L47 39L48 39L48 37L47 37L47 38L46 38L46 37L45 37L45 38L46 38L46 41L45 41L45 39L44 39L44 38L42 38L42 37L44 37L44 36L46 36L46 35L45 35L45 33L44 33L44 30L43 30L43 31L41 31L41 30L42 30L42 29L45 29L45 26L46 26L46 25L45 25L45 26L44 26L44 24L41 24L41 25L40 25L40 26L41 26L41 30L38 30L38 29L40 29L40 28L39 28L39 27L38 27L38 26L39 26L39 24L38 24L38 23L37 23L37 24L36 24L36 23L35 23L35 24L33 24L33 22L32 22L32 23L31 23L31 21L29 21L29 20L32 20L32 19L30 19L30 17ZM36 17L36 18L37 18L37 17ZM41 18L41 19L42 19L42 18ZM28 19L28 20L29 20L29 19ZM6 20L6 21L7 21L7 20ZM12 20L12 22L13 22L13 20ZM26 20L26 21L27 21L27 22L25 22L25 25L27 25L27 26L31 26L31 25L29 25L29 24L26 24L26 23L27 23L27 22L28 22L28 23L30 23L30 24L31 24L31 23L30 23L30 22L28 22L28 21L27 21L27 20ZM33 20L33 21L34 21L34 20ZM36 20L36 21L37 21L37 20ZM41 20L41 21L42 21L42 20ZM1 22L1 23L2 23L2 22ZM1 24L1 26L2 26L2 27L3 27L3 28L4 28L4 25L3 25L3 26L2 26L2 24ZM19 24L19 25L18 25L18 26L19 26L19 25L20 25L20 24ZM32 24L32 25L33 25L33 24ZM22 25L22 27L23 27L23 25ZM34 25L34 27L35 27L35 28L34 28L34 29L35 29L35 30L36 30L36 31L37 31L37 32L36 32L36 33L37 33L37 32L38 32L38 34L39 34L39 31L38 31L38 30L36 30L36 29L37 29L37 27L35 27L35 25ZM41 25L41 26L43 26L43 25ZM5 27L5 30L8 30L8 27ZM27 27L27 30L30 30L30 27ZM31 27L31 28L33 28L33 27ZM42 27L42 28L43 28L43 27ZM47 27L47 28L48 28L48 27ZM49 27L49 30L52 30L52 27ZM56 27L56 28L57 28L57 27ZM6 28L6 29L7 29L7 28ZM18 28L18 29L19 29L19 28ZM28 28L28 29L29 29L29 28ZM50 28L50 29L51 29L51 28ZM53 28L53 31L54 31L54 32L55 32L55 30L54 30L54 28ZM2 29L2 30L1 30L1 32L2 32L2 31L4 31L4 29ZM11 29L11 30L12 30L12 31L13 31L13 30L12 30L12 29ZM31 29L31 31L33 31L33 29ZM26 31L26 32L25 32L25 34L24 34L24 35L23 35L23 33L22 33L22 36L19 36L19 37L20 37L20 38L21 38L21 39L22 39L22 41L23 41L23 42L25 42L25 41L26 41L26 40L27 40L27 41L29 41L29 40L30 40L30 42L31 42L31 40L33 40L33 39L32 39L32 38L30 38L30 39L28 39L28 40L27 40L27 39L25 39L25 38L26 38L26 37L24 37L24 39L23 39L23 36L26 36L26 35L27 35L27 34L28 34L28 35L29 35L29 36L27 36L27 38L29 38L29 36L32 36L32 35L34 35L34 34L35 34L35 33L33 33L33 32L31 32L31 34L30 34L30 35L29 35L29 33L30 33L30 31L29 31L29 32L28 32L28 33L26 33L26 32L27 32L27 31ZM40 31L40 32L41 32L41 31ZM9 32L9 33L10 33L10 32ZM42 32L42 33L43 33L43 32ZM7 33L7 34L8 34L8 33ZM32 33L32 34L31 34L31 35L32 35L32 34L33 34L33 33ZM0 34L0 37L1 37L1 38L0 38L0 40L1 40L1 39L2 39L2 35L3 35L3 34L2 34L2 35L1 35L1 34ZM41 34L41 35L39 35L39 36L40 36L40 37L41 37L41 35L42 35L42 36L43 36L43 35L44 35L44 34L43 34L43 35L42 35L42 34ZM14 35L14 36L13 36L13 37L14 37L14 38L15 38L15 36L16 36L16 35ZM51 35L51 36L52 36L52 35ZM54 35L54 36L55 36L55 35ZM11 36L11 37L12 37L12 36ZM37 36L37 37L38 37L38 36ZM24 39L24 41L25 41L25 39ZM39 39L39 40L40 40L40 41L42 41L42 42L43 42L43 41L42 41L42 40L41 40L41 39ZM43 39L43 40L44 40L44 39ZM9 41L9 42L4 42L4 43L9 43L9 42L10 42L10 43L11 43L11 44L12 44L12 43L11 43L11 42L10 42L10 41ZM12 41L12 42L13 42L13 41ZM15 41L15 42L16 42L16 41ZM44 41L44 42L45 42L45 43L46 43L46 42L45 42L45 41ZM37 42L37 44L38 44L38 43L39 43L39 42ZM24 43L24 44L22 44L22 46L23 46L23 45L25 45L25 43ZM17 45L17 46L20 46L20 45ZM37 45L37 47L38 47L38 45ZM55 45L55 46L56 46L56 45ZM1 46L1 47L2 47L2 46ZM8 46L8 47L9 47L9 46ZM11 47L11 48L13 48L13 47ZM8 48L8 49L9 49L9 48ZM32 48L32 49L31 49L31 53L32 53L32 51L33 51L33 52L35 52L35 53L36 53L36 54L34 54L34 55L36 55L36 54L37 54L37 51L36 51L36 52L35 52L35 49L34 49L34 50L32 50L32 49L33 49L33 48ZM41 48L41 49L42 49L42 48ZM47 48L47 49L46 49L46 50L45 50L45 52L46 52L46 53L47 53L47 52L48 52L48 48ZM14 49L14 50L15 50L15 49ZM16 49L16 50L18 50L18 51L19 51L19 52L20 52L20 51L19 51L19 49ZM27 49L27 52L30 52L30 49ZM49 49L49 52L52 52L52 49ZM24 50L24 51L25 51L25 50ZM28 50L28 51L29 51L29 50ZM50 50L50 51L51 51L51 50ZM46 51L46 52L47 52L47 51ZM13 52L13 55L15 55L15 56L16 56L16 57L18 57L18 56L17 56L17 54L18 54L18 53L17 53L17 54L16 54L16 53L15 53L15 52ZM23 52L23 54L25 54L25 53L24 53L24 52ZM54 52L54 54L55 54L55 52ZM9 53L9 54L10 54L10 53ZM38 53L38 54L39 54L39 53ZM48 53L48 54L50 54L50 53ZM46 54L46 55L47 55L47 54ZM27 55L27 56L28 56L28 55ZM56 55L56 56L57 56L57 55ZM10 56L10 57L11 57L11 56ZM12 56L12 57L13 57L13 56ZM0 0L0 7L7 7L7 0ZM1 1L1 6L6 6L6 1ZM2 2L2 5L5 5L5 2ZM50 0L50 7L57 7L57 0ZM51 1L51 6L56 6L56 1ZM52 2L52 5L55 5L55 2ZM0 50L0 57L7 57L7 50ZM1 51L1 56L6 56L6 51ZM2 52L2 55L5 55L5 52Z" fill="#000000"/></g></g></svg>
