<?xml version="1.0" encoding="UTF-8"?>
<svg xmlns="http://www.w3.org/2000/svg" version="1.1" width="300" height="300" viewBox="0 0 300 300"><rect x="0" y="0" width="300" height="300" fill="#fefefe"/><g transform="scale(4.615)"><g transform="translate(4,4)"><path fill-rule="evenodd" d="M8 0L8 1L9 1L9 2L8 2L8 5L9 5L9 4L10 4L10 3L11 3L11 5L10 5L10 7L9 7L9 6L8 6L8 7L9 7L9 8L8 8L8 10L4 10L4 8L0 8L0 11L1 11L1 9L2 9L2 10L3 10L3 11L2 11L2 12L1 12L1 13L0 13L0 14L2 14L2 15L1 15L1 16L0 16L0 18L2 18L2 17L3 17L3 21L5 21L5 20L4 20L4 18L5 18L5 19L7 19L7 18L8 18L8 21L9 21L9 22L10 22L10 20L12 20L12 19L13 19L13 21L11 21L11 22L13 22L13 25L14 25L14 20L16 20L16 23L15 23L15 26L12 26L12 25L11 25L11 26L10 26L10 24L9 24L9 23L8 23L8 22L5 22L5 24L4 24L4 22L3 22L3 24L4 24L4 25L2 25L2 26L3 26L3 30L2 30L2 29L0 29L0 30L1 30L1 31L3 31L3 30L4 30L4 32L2 32L2 34L0 34L0 35L1 35L1 37L0 37L0 38L1 38L1 39L0 39L0 40L1 40L1 39L2 39L2 38L3 38L3 37L2 37L2 34L3 34L3 36L4 36L4 37L8 37L8 38L9 38L9 39L8 39L8 40L10 40L10 38L9 38L9 37L8 37L8 36L5 36L5 35L4 35L4 34L3 34L3 33L4 33L4 32L6 32L6 33L7 33L7 32L6 32L6 31L8 31L8 33L9 33L9 34L10 34L10 35L11 35L11 38L12 38L12 39L11 39L11 42L9 42L9 43L7 43L7 42L8 42L8 41L7 41L7 40L6 40L6 41L5 41L5 40L3 40L3 42L2 42L2 41L0 41L0 44L1 44L1 42L2 42L2 43L4 43L4 44L6 44L6 45L5 45L5 47L3 47L3 46L2 46L2 45L1 45L1 46L0 46L0 48L5 48L5 47L7 47L7 46L6 46L6 45L8 45L8 44L10 44L10 46L11 46L11 47L10 47L10 48L9 48L9 46L8 46L8 48L6 48L6 49L8 49L8 50L9 50L9 49L10 49L10 48L12 48L12 49L13 49L13 50L10 50L10 52L9 52L9 53L8 53L8 57L9 57L9 56L10 56L10 57L12 57L12 56L10 56L10 55L11 55L11 54L12 54L12 53L11 53L11 52L12 52L12 51L13 51L13 53L14 53L14 54L13 54L13 56L14 56L14 55L15 55L15 56L16 56L16 57L18 57L18 55L17 55L17 54L16 54L16 53L14 53L14 47L15 47L15 50L16 50L16 51L17 51L17 52L19 52L19 53L18 53L18 54L19 54L19 55L20 55L20 57L23 57L23 56L22 56L22 55L23 55L23 54L25 54L25 55L24 55L24 56L26 56L26 54L27 54L27 53L29 53L29 54L31 54L31 55L30 55L30 56L31 56L31 57L32 57L32 55L34 55L34 56L33 56L33 57L36 57L36 55L37 55L37 54L36 54L36 53L33 53L33 51L35 51L35 52L36 52L36 51L37 51L37 52L38 52L38 51L39 51L39 50L40 50L40 49L39 49L39 48L38 48L38 49L37 49L37 48L35 48L35 50L34 50L34 48L33 48L33 51L32 51L32 53L31 53L31 49L32 49L32 48L30 48L30 47L29 47L29 46L28 46L28 47L27 47L27 48L26 48L26 47L24 47L24 48L23 48L23 46L25 46L25 45L26 45L26 46L27 46L27 45L29 45L29 44L30 44L30 46L32 46L32 47L33 47L33 46L32 46L32 42L33 42L33 45L34 45L34 44L35 44L35 46L34 46L34 47L38 47L38 45L39 45L39 44L40 44L40 45L41 45L41 46L39 46L39 47L43 47L43 50L46 50L46 51L42 51L42 52L41 52L41 51L40 51L40 52L39 52L39 54L38 54L38 57L42 57L42 56L43 56L43 55L44 55L44 56L45 56L45 55L46 55L46 56L47 56L47 55L49 55L49 57L51 57L51 54L52 54L52 53L54 53L54 54L53 54L53 55L55 55L55 54L56 54L56 51L55 51L55 50L53 50L53 48L54 48L54 49L55 49L55 48L54 48L54 47L57 47L57 43L56 43L56 41L57 41L57 40L56 40L56 41L55 41L55 42L54 42L54 40L55 40L55 39L50 39L50 38L52 38L52 36L53 36L53 37L55 37L55 38L56 38L56 39L57 39L57 38L56 38L56 37L57 37L57 36L54 36L54 35L55 35L55 34L56 34L56 35L57 35L57 31L56 31L56 30L57 30L57 28L56 28L56 27L53 27L53 26L52 26L52 25L49 25L49 24L51 24L51 23L49 23L49 21L47 21L47 20L50 20L50 21L51 21L51 22L52 22L52 24L53 24L53 25L55 25L55 26L56 26L56 24L54 24L54 23L53 23L53 22L54 22L54 21L55 21L55 20L54 20L54 21L53 21L53 20L50 20L50 18L49 18L49 19L46 19L46 20L45 20L45 22L44 22L44 21L43 21L43 18L42 18L42 17L45 17L45 18L44 18L44 19L45 19L45 18L48 18L48 17L45 17L45 16L44 16L44 15L45 15L45 14L46 14L46 13L44 13L44 12L43 12L43 11L42 11L42 10L43 10L43 8L45 8L45 9L44 9L44 10L45 10L45 11L47 11L47 12L48 12L48 11L47 11L47 10L50 10L50 11L49 11L49 16L50 16L50 17L51 17L51 18L52 18L52 19L55 19L55 17L56 17L56 18L57 18L57 15L54 15L54 14L53 14L53 13L54 13L54 10L53 10L53 9L55 9L55 8L52 8L52 10L50 10L50 8L48 8L48 9L47 9L47 5L48 5L48 0L45 0L45 1L44 1L44 2L42 2L42 3L41 3L41 4L37 4L37 1L38 1L38 0L37 0L37 1L36 1L36 0L35 0L35 1L34 1L34 2L35 2L35 3L34 3L34 4L36 4L36 5L37 5L37 6L36 6L36 7L35 7L35 6L34 6L34 5L33 5L33 6L32 6L32 5L31 5L31 4L32 4L32 3L33 3L33 0L32 0L32 1L31 1L31 0L28 0L28 2L27 2L27 3L30 3L30 4L26 4L26 1L25 1L25 0L23 0L23 1L25 1L25 2L24 2L24 3L23 3L23 4L22 4L22 5L20 5L20 4L19 4L19 2L20 2L20 3L21 3L21 2L22 2L22 0L21 0L21 1L20 1L20 0L17 0L17 1L15 1L15 2L16 2L16 3L17 3L17 4L19 4L19 5L15 5L15 4L14 4L14 3L13 3L13 0L12 0L12 2L11 2L11 1L10 1L10 0ZM39 0L39 1L40 1L40 2L41 2L41 1L43 1L43 0L41 0L41 1L40 1L40 0ZM30 1L30 3L31 3L31 1ZM35 1L35 2L36 2L36 1ZM45 1L45 3L44 3L44 4L45 4L45 5L43 5L43 4L41 4L41 5L43 5L43 7L42 7L42 6L41 6L41 7L40 7L40 5L38 5L38 6L37 6L37 7L38 7L38 8L36 8L36 9L34 9L34 6L33 6L33 8L32 8L32 6L31 6L31 9L32 9L32 10L31 10L31 11L32 11L32 14L31 14L31 12L30 12L30 11L28 11L28 10L29 10L29 9L27 9L27 10L26 10L26 11L25 11L25 13L24 13L24 12L23 12L23 11L24 11L24 10L23 10L23 9L22 9L22 10L23 10L23 11L21 11L21 12L20 12L20 13L21 13L21 14L20 14L20 16L17 16L17 15L16 15L16 14L18 14L18 15L19 15L19 13L18 13L18 12L19 12L19 11L20 11L20 10L21 10L21 8L23 8L23 7L24 7L24 9L26 9L26 6L25 6L25 5L26 5L26 4L24 4L24 6L23 6L23 7L22 7L22 6L21 6L21 7L20 7L20 6L19 6L19 7L20 7L20 10L18 10L18 9L19 9L19 8L18 8L18 9L17 9L17 7L18 7L18 6L17 6L17 7L16 7L16 6L15 6L15 5L14 5L14 4L13 4L13 3L12 3L12 5L11 5L11 7L10 7L10 8L12 8L12 9L11 9L11 11L12 11L12 12L11 12L11 13L13 13L13 14L12 14L12 17L11 17L11 14L10 14L10 13L8 13L8 11L6 11L6 12L5 12L5 11L3 11L3 12L2 12L2 13L4 13L4 15L5 15L5 16L3 16L3 15L2 15L2 16L3 16L3 17L5 17L5 18L7 18L7 17L5 17L5 16L8 16L8 18L10 18L10 19L9 19L9 20L10 20L10 19L11 19L11 18L12 18L12 17L13 17L13 15L14 15L14 16L15 16L15 15L16 15L16 17L19 17L19 18L20 18L20 19L19 19L19 20L18 20L18 19L17 19L17 18L16 18L16 20L18 20L18 22L17 22L17 23L16 23L16 24L19 24L19 22L22 22L22 23L20 23L20 24L21 24L21 26L19 26L19 25L18 25L18 26L19 26L19 27L17 27L17 25L16 25L16 26L15 26L15 27L12 27L12 26L11 26L11 27L12 27L12 28L15 28L15 27L17 27L17 31L18 31L18 33L17 33L17 32L16 32L16 31L15 31L15 35L16 35L16 36L14 36L14 37L12 37L12 38L14 38L14 37L15 37L15 38L17 38L17 39L16 39L16 40L17 40L17 44L16 44L16 45L15 45L15 47L17 47L17 48L21 48L21 51L22 51L22 49L23 49L23 52L22 52L22 53L20 53L20 55L22 55L22 53L23 53L23 52L24 52L24 53L25 53L25 54L26 54L26 50L25 50L25 49L26 49L26 48L24 48L24 49L23 49L23 48L21 48L21 47L22 47L22 46L23 46L23 44L24 44L24 43L26 43L26 45L27 45L27 44L28 44L28 43L27 43L27 42L25 42L25 41L26 41L26 39L25 39L25 38L29 38L29 36L32 36L32 38L30 38L30 39L28 39L28 41L29 41L29 42L30 42L30 41L31 41L31 40L33 40L33 39L32 39L32 38L33 38L33 36L32 36L32 34L33 34L33 35L34 35L34 36L36 36L36 35L35 35L35 33L33 33L33 32L35 32L35 31L37 31L37 32L36 32L36 33L37 33L37 32L38 32L38 34L39 34L39 31L38 31L38 30L40 30L40 32L41 32L41 31L44 31L44 34L45 34L45 36L44 36L44 37L42 37L42 38L44 38L44 39L45 39L45 37L46 37L46 38L48 38L48 36L46 36L46 35L47 35L47 34L48 34L48 35L49 35L49 34L50 34L50 33L49 33L49 32L52 32L52 34L54 34L54 33L53 33L53 32L52 32L52 31L49 31L49 32L48 32L48 30L47 30L47 31L45 31L45 30L46 30L46 27L45 27L45 30L43 30L43 29L42 29L42 30L41 30L41 24L42 24L42 23L43 23L43 24L44 24L44 25L46 25L46 26L47 26L47 27L48 27L48 26L49 26L49 25L47 25L47 24L48 24L48 23L43 23L43 22L42 22L42 23L40 23L40 24L39 24L39 23L38 23L38 22L39 22L39 21L38 21L38 22L35 22L35 21L33 21L33 17L32 17L32 20L31 20L31 16L33 16L33 15L35 15L35 16L34 16L34 17L35 17L35 19L34 19L34 20L36 20L36 21L37 21L37 20L36 20L36 19L38 19L38 20L40 20L40 19L39 19L39 18L41 18L41 19L42 19L42 18L41 18L41 17L42 17L42 14L43 14L43 15L44 15L44 13L43 13L43 12L42 12L42 11L41 11L41 10L40 10L40 9L38 9L38 8L43 8L43 7L44 7L44 6L45 6L45 8L46 8L46 6L45 6L45 5L47 5L47 3L46 3L46 2L47 2L47 1ZM17 2L17 3L18 3L18 2ZM38 2L38 3L39 3L39 2ZM27 5L27 8L30 8L30 5ZM12 6L12 7L13 7L13 6ZM14 6L14 8L15 8L15 11L14 11L14 10L13 10L13 9L12 9L12 11L13 11L13 13L14 13L14 15L15 15L15 11L16 11L16 13L17 13L17 12L18 12L18 10L16 10L16 8L15 8L15 6ZM24 6L24 7L25 7L25 6ZM28 6L28 7L29 7L29 6ZM38 6L38 7L39 7L39 6ZM48 6L48 7L49 7L49 6ZM6 8L6 9L7 9L7 8ZM56 8L56 9L57 9L57 8ZM9 9L9 10L10 10L10 9ZM37 9L37 10L38 10L38 12L37 12L37 11L36 11L36 10L35 10L35 11L34 11L34 10L33 10L33 14L32 14L32 15L33 15L33 14L34 14L34 12L35 12L35 14L36 14L36 15L39 15L39 17L40 17L40 16L41 16L41 13L40 13L40 14L39 14L39 11L40 11L40 10L38 10L38 9ZM45 9L45 10L47 10L47 9ZM55 10L55 11L57 11L57 10ZM35 11L35 12L36 12L36 11ZM51 11L51 12L50 12L50 13L51 13L51 15L50 15L50 16L51 16L51 15L52 15L52 17L53 17L53 18L54 18L54 17L55 17L55 16L54 16L54 17L53 17L53 14L52 14L52 13L53 13L53 11ZM6 12L6 13L5 13L5 15L7 15L7 14L6 14L6 13L7 13L7 12ZM22 12L22 13L23 13L23 12ZM26 12L26 13L25 13L25 14L23 14L23 18L22 18L22 17L21 17L21 16L20 16L20 17L21 17L21 19L20 19L20 20L22 20L22 22L23 22L23 24L24 24L24 25L25 25L25 26L23 26L23 25L22 25L22 27L25 27L25 28L26 28L26 30L24 30L24 29L21 29L21 30L20 30L20 28L18 28L18 29L19 29L19 30L20 30L20 31L19 31L19 32L20 32L20 33L21 33L21 34L20 34L20 35L19 35L19 36L17 36L17 38L18 38L18 39L19 39L19 41L18 41L18 43L19 43L19 41L22 41L22 44L21 44L21 46L22 46L22 44L23 44L23 42L24 42L24 41L25 41L25 39L24 39L24 37L27 37L27 36L29 36L29 35L30 35L30 34L32 34L32 33L31 33L31 30L33 30L33 31L35 31L35 30L36 30L36 29L34 29L34 28L36 28L36 27L37 27L37 30L38 30L38 29L40 29L40 25L39 25L39 24L38 24L38 23L37 23L37 24L36 24L36 23L35 23L35 24L33 24L33 22L32 22L32 23L31 23L31 21L30 21L30 17L29 17L29 16L31 16L31 14L30 14L30 13L28 13L28 12ZM51 12L51 13L52 13L52 12ZM56 12L56 13L57 13L57 12ZM8 14L8 15L9 15L9 14ZM26 14L26 16L25 16L25 17L24 17L24 18L23 18L23 21L24 21L24 22L25 22L25 25L27 25L27 24L26 24L26 23L27 23L27 22L25 22L25 19L26 19L26 18L27 18L27 20L26 20L26 21L27 21L27 20L28 20L28 18L29 18L29 17L26 17L26 16L27 16L27 14ZM47 14L47 16L48 16L48 14ZM28 15L28 16L29 16L29 15ZM9 16L9 17L10 17L10 18L11 18L11 17L10 17L10 16ZM25 17L25 18L24 18L24 19L25 19L25 18L26 18L26 17ZM36 17L36 18L37 18L37 17ZM13 18L13 19L15 19L15 18ZM0 19L0 22L1 22L1 20L2 20L2 19ZM56 19L56 20L57 20L57 19ZM6 20L6 21L7 21L7 20ZM41 20L41 21L42 21L42 20ZM28 21L28 25L29 25L29 26L31 26L31 25L30 25L30 24L29 24L29 23L30 23L30 22L29 22L29 21ZM46 21L46 22L47 22L47 21ZM56 21L56 22L55 22L55 23L57 23L57 21ZM1 23L1 24L0 24L0 25L1 25L1 24L2 24L2 23ZM6 23L6 24L5 24L5 26L8 26L8 25L9 25L9 24L7 24L7 23ZM11 23L11 24L12 24L12 23ZM6 24L6 25L7 25L7 24ZM32 24L32 25L33 25L33 24ZM34 25L34 27L35 27L35 25ZM42 25L42 26L43 26L43 25ZM0 26L0 28L1 28L1 26ZM9 26L9 27L10 27L10 26ZM38 26L38 27L39 27L39 26ZM5 27L5 30L8 30L8 27ZM27 27L27 30L30 30L30 27ZM31 27L31 28L33 28L33 27ZM42 27L42 28L44 28L44 27ZM49 27L49 30L52 30L52 27ZM6 28L6 29L7 29L7 28ZM9 28L9 32L10 32L10 31L11 31L11 28ZM28 28L28 29L29 29L29 28ZM50 28L50 29L51 29L51 28ZM53 28L53 30L54 30L54 32L55 32L55 30L56 30L56 29L55 29L55 30L54 30L54 28ZM14 29L14 30L16 30L16 29ZM21 30L21 31L20 31L20 32L22 32L22 31L23 31L23 33L22 33L22 34L21 34L21 35L23 35L23 36L19 36L19 37L18 37L18 38L19 38L19 37L20 37L20 38L21 38L21 39L22 39L22 41L23 41L23 40L24 40L24 39L23 39L23 36L27 36L27 34L28 34L28 35L29 35L29 33L30 33L30 32L29 32L29 31L28 31L28 33L27 33L27 34L26 34L26 32L27 32L27 31L26 31L26 32L25 32L25 31L23 31L23 30ZM12 31L12 32L11 32L11 33L13 33L13 35L12 35L12 34L11 34L11 35L12 35L12 36L13 36L13 35L14 35L14 31ZM0 32L0 33L1 33L1 32ZM24 32L24 33L23 33L23 35L24 35L24 34L25 34L25 32ZM42 32L42 33L43 33L43 32ZM6 34L6 35L8 35L8 34ZM41 34L41 35L37 35L37 36L40 36L40 37L41 37L41 36L43 36L43 35L42 35L42 34ZM51 35L51 36L52 36L52 35ZM49 36L49 37L50 37L50 36ZM21 37L21 38L22 38L22 37ZM34 37L34 38L36 38L36 39L35 39L35 40L34 40L34 41L36 41L36 42L34 42L34 43L35 43L35 44L36 44L36 46L37 46L37 45L38 45L38 44L39 44L39 43L40 43L40 42L39 42L39 41L37 41L37 40L38 40L38 39L39 39L39 38L37 38L37 37ZM5 38L5 39L7 39L7 38ZM13 39L13 40L12 40L12 42L14 42L14 43L15 43L15 41L14 41L14 39ZM40 39L40 41L42 41L42 42L43 42L43 43L42 43L42 45L43 45L43 47L44 47L44 49L46 49L46 50L47 50L47 52L48 52L48 48L47 48L47 47L49 47L49 46L51 46L51 48L53 48L53 47L52 47L52 46L54 46L54 45L53 45L53 44L55 44L55 46L56 46L56 44L55 44L55 43L54 43L54 42L53 42L53 43L52 43L52 44L51 44L51 42L50 42L50 41L52 41L52 40L50 40L50 41L47 41L47 42L48 42L48 43L49 43L49 44L44 44L44 43L45 43L45 41L46 41L46 40L45 40L45 41L43 41L43 40L42 40L42 39ZM47 39L47 40L49 40L49 39ZM29 40L29 41L30 41L30 40ZM6 41L6 42L4 42L4 43L6 43L6 44L7 44L7 43L6 43L6 42L7 42L7 41ZM20 42L20 43L21 43L21 42ZM37 42L37 44L38 44L38 43L39 43L39 42ZM49 42L49 43L50 43L50 42ZM10 43L10 44L11 44L11 43ZM30 43L30 44L31 44L31 43ZM19 44L19 45L17 45L17 46L18 46L18 47L20 47L20 44ZM50 44L50 45L51 45L51 44ZM11 45L11 46L12 46L12 47L14 47L14 45ZM44 45L44 46L45 46L45 45ZM47 45L47 46L46 46L46 47L45 47L45 48L46 48L46 49L47 49L47 48L46 48L46 47L47 47L47 46L49 46L49 45ZM1 46L1 47L2 47L2 46ZM28 47L28 48L29 48L29 47ZM41 48L41 49L42 49L42 48ZM56 48L56 49L57 49L57 48ZM16 49L16 50L17 50L17 51L18 51L18 50L17 50L17 49ZM27 49L27 52L30 52L30 49ZM36 49L36 50L37 50L37 49ZM49 49L49 52L52 52L52 49ZM19 50L19 52L20 52L20 50ZM24 50L24 51L25 51L25 50ZM28 50L28 51L29 51L29 50ZM50 50L50 51L51 51L51 50ZM40 52L40 54L41 54L41 55L42 55L42 54L43 54L43 52L42 52L42 54L41 54L41 52ZM45 52L45 53L46 53L46 52ZM54 52L54 53L55 53L55 52ZM47 53L47 54L50 54L50 53ZM9 54L9 55L10 55L10 54ZM34 54L34 55L36 55L36 54ZM44 54L44 55L45 55L45 54ZM27 55L27 56L28 56L28 55ZM39 55L39 56L40 56L40 55ZM56 55L56 56L57 56L57 55ZM52 56L52 57L55 57L55 56ZM0 0L0 7L7 7L7 0ZM1 1L1 6L6 6L6 1ZM2 2L2 5L5 5L5 2ZM50 0L50 7L57 7L57 0ZM51 1L51 6L56 6L56 1ZM52 2L52 5L55 5L55 2ZM0 50L0 57L7 57L7 50ZM1 51L1 56L6 56L6 51ZM2 52L2 55L5 55L5 52Z" fill="#000000"/></g></g></svg>
