<?xml version="1.0" encoding="UTF-8"?>
<svg xmlns="http://www.w3.org/2000/svg" version="1.1" width="300" height="300" viewBox="0 0 300 300"><rect x="0" y="0" width="300" height="300" fill="#fefefe"/><g transform="scale(4.615)"><g transform="translate(4,4)"><path fill-rule="evenodd" d="M8 0L8 1L9 1L9 0ZM13 0L13 1L12 1L12 2L11 2L11 1L10 1L10 2L8 2L8 5L9 5L9 6L8 6L8 7L9 7L9 6L10 6L10 8L8 8L8 9L7 9L7 8L6 8L6 9L4 9L4 8L0 8L0 10L1 10L1 9L3 9L3 10L2 10L2 12L3 12L3 13L2 13L2 15L1 15L1 16L3 16L3 14L4 14L4 18L2 18L2 17L1 17L1 18L0 18L0 19L1 19L1 21L0 21L0 22L1 22L1 23L2 23L2 24L5 24L5 25L4 25L4 28L2 28L2 30L1 30L1 32L0 32L0 33L1 33L1 34L0 34L0 39L1 39L1 41L0 41L0 43L1 43L1 44L0 44L0 48L5 48L5 47L7 47L7 46L6 46L6 45L8 45L8 44L11 44L11 45L9 45L9 46L10 46L10 47L9 47L9 49L8 49L8 48L6 48L6 49L8 49L8 50L9 50L9 49L11 49L11 50L10 50L10 52L9 52L9 53L8 53L8 57L10 57L10 56L11 56L11 55L12 55L12 57L13 57L13 55L14 55L14 57L15 57L15 56L16 56L16 57L18 57L18 56L19 56L19 57L23 57L23 56L22 56L22 55L23 55L23 54L25 54L25 55L24 55L24 56L28 56L28 55L27 55L27 53L29 53L29 54L31 54L31 55L30 55L30 56L31 56L31 57L32 57L32 55L34 55L34 56L33 56L33 57L36 57L36 55L38 55L38 57L42 57L42 56L45 56L45 57L46 57L46 55L48 55L48 56L49 56L49 57L51 57L51 54L52 54L52 53L54 53L54 52L55 52L55 50L56 50L56 49L57 49L57 48L56 48L56 49L55 49L55 50L53 50L53 48L54 48L54 47L57 47L57 45L56 45L56 46L54 46L54 45L55 45L55 44L56 44L56 42L54 42L54 41L53 41L53 40L55 40L55 38L56 38L56 39L57 39L57 38L56 38L56 37L57 37L57 34L55 34L55 33L57 33L57 31L56 31L56 30L57 30L57 29L56 29L56 30L55 30L55 27L53 27L53 26L51 26L51 25L49 25L49 26L48 26L48 24L49 24L49 21L47 21L47 20L45 20L45 22L44 22L44 21L41 21L41 18L42 18L42 19L43 19L43 18L42 18L42 17L45 17L45 18L44 18L44 19L46 19L46 18L47 18L47 19L48 19L48 17L47 17L47 16L48 16L48 14L47 14L47 16L46 16L46 15L45 15L45 14L46 14L46 13L45 13L45 14L44 14L44 10L45 10L45 11L47 11L47 10L48 10L48 11L49 11L49 15L50 15L50 16L51 16L51 19L56 19L56 18L55 18L55 17L57 17L57 15L52 15L52 16L51 16L51 13L52 13L52 14L53 14L53 13L54 13L54 10L53 10L53 13L52 13L52 12L51 12L51 11L52 11L52 10L51 10L51 11L49 11L49 10L50 10L50 8L49 8L49 9L47 9L47 8L45 8L45 6L44 6L44 7L43 7L43 6L42 6L42 5L41 5L41 4L37 4L37 1L38 1L38 0L37 0L37 1L36 1L36 0L35 0L35 1L34 1L34 2L31 2L31 0L27 0L27 4L26 4L26 2L24 2L24 3L23 3L23 2L20 2L20 3L23 3L23 4L22 4L22 5L23 5L23 6L22 6L22 8L21 8L21 10L20 10L20 9L19 9L19 12L18 12L18 10L17 10L17 11L14 11L14 10L12 10L12 9L13 9L13 6L14 6L14 8L15 8L15 6L16 6L16 7L17 7L17 5L18 5L18 7L19 7L19 8L20 8L20 7L21 7L21 5L20 5L20 4L19 4L19 3L17 3L17 2L16 2L16 1L15 1L15 3L17 3L17 5L15 5L15 4L14 4L14 3L12 3L12 2L13 2L13 1L14 1L14 0ZM18 0L18 1L20 1L20 0ZM21 0L21 1L22 1L22 0ZM23 0L23 1L26 1L26 0ZM39 0L39 1L40 1L40 2L41 2L41 3L43 3L43 5L45 5L45 4L44 4L44 3L45 3L45 1L47 1L47 2L46 2L46 3L47 3L47 5L46 5L46 7L47 7L47 5L48 5L48 0L45 0L45 1L44 1L44 2L41 2L41 1L43 1L43 0L41 0L41 1L40 1L40 0ZM28 1L28 4L31 4L31 5L32 5L32 6L31 6L31 9L32 9L32 10L31 10L31 12L30 12L30 11L28 11L28 9L27 9L27 10L26 10L26 11L25 11L25 12L24 12L24 14L26 14L26 16L25 16L25 15L23 15L23 13L22 13L22 12L23 12L23 11L21 11L21 12L20 12L20 13L21 13L21 14L20 14L20 15L19 15L19 13L18 13L18 12L17 12L17 13L16 13L16 12L15 12L15 15L14 15L14 13L13 13L13 15L14 15L14 16L15 16L15 17L12 17L12 18L13 18L13 19L15 19L15 20L14 20L14 23L13 23L13 20L12 20L12 21L11 21L11 20L9 20L9 21L11 21L11 22L12 22L12 23L8 23L8 24L9 24L9 25L5 25L5 26L9 26L9 27L12 27L12 28L13 28L13 29L11 29L11 28L9 28L9 29L11 29L11 30L10 30L10 31L9 31L9 32L8 32L8 31L6 31L6 32L5 32L5 34L3 34L3 33L4 33L4 31L3 31L3 30L2 30L2 31L3 31L3 33L2 33L2 34L3 34L3 35L5 35L5 34L7 34L7 35L6 35L6 36L4 36L4 38L5 38L5 40L4 40L4 41L1 41L1 43L2 43L2 44L3 44L3 45L4 45L4 44L8 44L8 43L9 43L9 42L10 42L10 43L11 43L11 44L12 44L12 45L11 45L11 48L12 48L12 45L13 45L13 48L15 48L15 50L16 50L16 52L15 52L15 51L13 51L13 52L12 52L12 50L13 50L13 49L12 49L12 50L11 50L11 53L10 53L10 54L9 54L9 56L10 56L10 54L13 54L13 52L14 52L14 54L15 54L15 53L16 53L16 54L17 54L17 56L18 56L18 54L19 54L19 51L18 51L18 50L19 50L19 49L20 49L20 48L21 48L21 50L22 50L22 51L23 51L23 52L22 52L22 53L23 53L23 52L24 52L24 53L25 53L25 52L26 52L26 51L24 51L24 50L25 50L25 49L26 49L26 48L28 48L28 47L29 47L29 48L32 48L32 49L31 49L31 53L32 53L32 49L33 49L33 47L34 47L34 46L35 46L35 44L34 44L34 45L33 45L33 42L32 42L32 44L30 44L30 45L32 45L32 46L29 46L29 44L27 44L27 43L29 43L29 42L30 42L30 41L31 41L31 40L33 40L33 39L34 39L34 38L36 38L36 39L35 39L35 40L34 40L34 41L36 41L36 42L34 42L34 43L36 43L36 47L35 47L35 48L34 48L34 50L33 50L33 53L36 53L36 54L34 54L34 55L36 55L36 54L37 54L37 52L40 52L40 54L41 54L41 53L42 53L42 54L43 54L43 50L44 50L44 51L45 51L45 50L46 50L46 51L47 51L47 52L46 52L46 53L45 53L45 54L44 54L44 55L46 55L46 53L47 53L47 54L50 54L50 53L47 53L47 52L48 52L48 48L47 48L47 47L49 47L49 46L53 46L53 44L55 44L55 43L54 43L54 42L53 42L53 43L52 43L52 45L50 45L50 44L51 44L51 42L50 42L50 41L52 41L52 38L53 38L53 39L54 39L54 38L53 38L53 36L52 36L52 35L51 35L51 36L48 36L48 35L49 35L49 34L50 34L50 33L49 33L49 32L52 32L52 34L54 34L54 32L55 32L55 30L53 30L53 32L52 32L52 31L49 31L49 32L48 32L48 26L47 26L47 25L46 25L46 24L45 24L45 23L44 23L44 25L43 25L43 24L41 24L41 23L43 23L43 22L41 22L41 23L40 23L40 26L38 26L38 27L40 27L40 29L38 29L38 30L36 30L36 29L37 29L37 27L36 27L36 29L35 29L35 28L34 28L34 29L35 29L35 30L36 30L36 31L37 31L37 32L36 32L36 33L37 33L37 32L38 32L38 34L39 34L39 31L38 31L38 30L41 30L41 31L40 31L40 32L41 32L41 31L43 31L43 29L42 29L42 30L41 30L41 27L42 27L42 28L44 28L44 27L45 27L45 30L44 30L44 34L45 34L45 35L47 35L47 36L46 36L46 38L48 38L48 39L47 39L47 40L49 40L49 38L48 38L48 37L52 37L52 38L50 38L50 39L51 39L51 40L50 40L50 41L47 41L47 42L46 42L46 43L47 43L47 42L48 42L48 43L49 43L49 46L48 46L48 44L43 44L43 43L42 43L42 42L44 42L44 43L45 43L45 41L46 41L46 39L45 39L45 36L44 36L44 37L41 37L41 36L42 36L42 34L41 34L41 35L37 35L37 36L40 36L40 37L41 37L41 38L44 38L44 39L45 39L45 41L44 41L44 40L43 40L43 39L40 39L40 41L42 41L42 42L41 42L41 43L42 43L42 45L43 45L43 47L40 47L40 46L41 46L41 45L38 45L38 44L39 44L39 43L40 43L40 42L39 42L39 41L37 41L37 40L38 40L38 39L39 39L39 38L37 38L37 37L35 37L35 36L36 36L36 35L35 35L35 33L33 33L33 31L32 31L32 30L31 30L31 33L33 33L33 34L34 34L34 36L32 36L32 34L30 34L30 35L29 35L29 33L30 33L30 31L29 31L29 32L28 32L28 33L25 33L25 34L24 34L24 35L23 35L23 33L24 33L24 32L23 32L23 33L22 33L22 34L21 34L21 33L20 33L20 34L19 34L19 32L18 32L18 30L19 30L19 31L20 31L20 30L21 30L21 32L22 32L22 31L23 31L23 30L21 30L21 29L23 29L23 28L24 28L24 30L26 30L26 28L25 28L25 27L24 27L24 26L25 26L25 25L28 25L28 26L29 26L29 23L30 23L30 26L31 26L31 23L32 23L32 22L33 22L33 24L32 24L32 25L33 25L33 24L35 24L35 23L36 23L36 24L37 24L37 22L35 22L35 21L34 21L34 20L36 20L36 21L37 21L37 20L40 20L40 19L39 19L39 18L41 18L41 17L42 17L42 14L43 14L43 12L42 12L42 11L43 11L43 10L42 10L42 11L41 11L41 9L38 9L38 10L37 10L37 8L39 8L39 7L40 7L40 8L43 8L43 9L45 9L45 10L47 10L47 9L45 9L45 8L43 8L43 7L42 7L42 6L41 6L41 7L40 7L40 5L36 5L36 4L35 4L35 2L36 2L36 1L35 1L35 2L34 2L34 3L32 3L32 4L31 4L31 3L30 3L30 1ZM10 2L10 3L9 3L9 4L10 4L10 5L11 5L11 7L12 7L12 3L11 3L11 2ZM10 3L10 4L11 4L11 3ZM13 4L13 5L14 5L14 4ZM24 4L24 6L23 6L23 7L24 7L24 8L23 8L23 9L24 9L24 8L25 8L25 9L26 9L26 6L25 6L25 5L26 5L26 4ZM27 5L27 8L30 8L30 5ZM33 5L33 6L32 6L32 8L33 8L33 6L34 6L34 9L36 9L36 8L37 8L37 6L36 6L36 7L35 7L35 6L34 6L34 5ZM19 6L19 7L20 7L20 6ZM24 6L24 7L25 7L25 6ZM28 6L28 7L29 7L29 6ZM38 6L38 7L39 7L39 6ZM48 6L48 7L49 7L49 6ZM11 8L11 9L12 9L12 8ZM17 8L17 9L18 9L18 8ZM52 8L52 9L55 9L55 8ZM56 8L56 9L57 9L57 8ZM6 9L6 10L4 10L4 11L3 11L3 12L4 12L4 11L5 11L5 12L7 12L7 13L4 13L4 14L7 14L7 13L8 13L8 16L9 16L9 17L6 17L6 18L4 18L4 19L2 19L2 18L1 18L1 19L2 19L2 20L4 20L4 19L5 19L5 21L4 21L4 23L5 23L5 21L6 21L6 22L7 22L7 21L8 21L8 20L7 20L7 19L9 19L9 17L11 17L11 16L9 16L9 14L12 14L12 12L10 12L10 13L9 13L9 12L8 12L8 11L9 11L9 10L7 10L7 9ZM6 10L6 11L7 11L7 10ZM10 10L10 11L11 11L11 10ZM33 10L33 11L32 11L32 12L31 12L31 13L32 13L32 12L33 12L33 14L32 14L32 15L33 15L33 16L31 16L31 14L30 14L30 13L28 13L28 12L26 12L26 14L27 14L27 17L25 17L25 16L23 16L23 18L24 18L24 19L25 19L25 20L27 20L27 21L25 21L25 22L24 22L24 21L23 21L23 19L21 19L21 20L22 20L22 22L23 22L23 24L24 24L24 25L25 25L25 22L27 22L27 23L26 23L26 24L27 24L27 23L28 23L28 21L29 21L29 20L30 20L30 17L29 17L29 16L31 16L31 17L32 17L32 18L35 18L35 17L34 17L34 16L35 16L35 15L33 15L33 14L34 14L34 12L35 12L35 14L37 14L37 15L39 15L39 17L40 17L40 16L41 16L41 15L39 15L39 14L40 14L40 11L38 11L38 12L35 12L35 11L36 11L36 10L35 10L35 11L34 11L34 10ZM55 10L55 11L56 11L56 13L57 13L57 10ZM0 11L0 14L1 14L1 11ZM50 12L50 13L51 13L51 12ZM16 14L16 15L15 15L15 16L16 16L16 15L18 15L18 14ZM5 15L5 16L7 16L7 15ZM28 15L28 16L29 16L29 15ZM44 15L44 16L45 16L45 17L46 17L46 16L45 16L45 15ZM20 16L20 17L21 17L21 18L22 18L22 17L21 17L21 16ZM52 16L52 17L53 17L53 18L54 18L54 17L55 17L55 16L54 16L54 17L53 17L53 16ZM15 17L15 19L17 19L17 17ZM18 17L18 18L19 18L19 19L18 19L18 20L16 20L16 23L15 23L15 24L14 24L14 26L13 26L13 25L12 25L12 26L13 26L13 27L15 27L15 26L16 26L16 27L19 27L19 26L22 26L22 27L23 27L23 25L21 25L21 24L22 24L22 23L21 23L21 22L19 22L19 21L18 21L18 20L19 20L19 19L20 19L20 18L19 18L19 17ZM24 17L24 18L25 18L25 19L28 19L28 20L29 20L29 19L28 19L28 18L29 18L29 17L27 17L27 18L25 18L25 17ZM36 17L36 18L37 18L37 17ZM6 18L6 19L7 19L7 18ZM31 19L31 20L32 20L32 19ZM36 19L36 20L37 20L37 19ZM49 19L49 20L50 20L50 21L51 21L51 22L52 22L52 23L50 23L50 24L53 24L53 25L54 25L54 23L53 23L53 22L54 22L54 21L56 21L56 22L55 22L55 23L57 23L57 20L54 20L54 21L53 21L53 20L50 20L50 19ZM6 20L6 21L7 21L7 20ZM17 21L17 22L18 22L18 21ZM30 21L30 23L31 23L31 21ZM38 21L38 22L39 22L39 21ZM46 21L46 22L47 22L47 21ZM6 23L6 24L7 24L7 23ZM12 23L12 24L13 24L13 23ZM16 23L16 24L18 24L18 23ZM20 23L20 24L21 24L21 23ZM10 24L10 25L9 25L9 26L10 26L10 25L11 25L11 24ZM38 24L38 25L39 25L39 24ZM55 24L55 25L56 25L56 24ZM0 25L0 26L1 26L1 25ZM2 25L2 27L3 27L3 25ZM16 25L16 26L17 26L17 25ZM18 25L18 26L19 26L19 25ZM34 25L34 27L35 27L35 25ZM45 25L45 26L46 26L46 30L45 30L45 32L46 32L46 31L47 31L47 26L46 26L46 25ZM42 26L42 27L44 27L44 26ZM5 27L5 30L8 30L8 27ZM20 27L20 28L18 28L18 29L20 29L20 28L21 28L21 27ZM27 27L27 30L30 30L30 27ZM31 27L31 28L33 28L33 27ZM49 27L49 30L52 30L52 27ZM56 27L56 28L57 28L57 27ZM0 28L0 29L1 29L1 28ZM6 28L6 29L7 29L7 28ZM15 28L15 29L16 29L16 30L15 30L15 31L14 31L14 32L13 32L13 30L14 30L14 29L13 29L13 30L12 30L12 31L10 31L10 32L9 32L9 33L10 33L10 35L11 35L11 36L10 36L10 37L11 37L11 39L10 39L10 40L9 40L9 36L8 36L8 35L9 35L9 34L8 34L8 32L6 32L6 33L7 33L7 34L8 34L8 35L7 35L7 36L6 36L6 37L5 37L5 38L6 38L6 39L7 39L7 40L5 40L5 41L4 41L4 42L2 42L2 43L4 43L4 42L5 42L5 41L7 41L7 40L9 40L9 41L8 41L8 42L6 42L6 43L8 43L8 42L9 42L9 41L10 41L10 42L11 42L11 43L12 43L12 44L13 44L13 45L14 45L14 47L16 47L16 49L19 49L19 48L17 48L17 47L16 47L16 46L15 46L15 45L17 45L17 46L20 46L20 47L21 47L21 48L23 48L23 49L22 49L22 50L23 50L23 49L24 49L24 48L26 48L26 47L24 47L24 46L25 46L25 45L26 45L26 46L27 46L27 47L28 47L28 46L27 46L27 45L26 45L26 43L23 43L23 42L24 42L24 41L25 41L25 42L29 42L29 41L28 41L28 39L30 39L30 38L32 38L32 39L33 39L33 38L34 38L34 37L33 37L33 38L32 38L32 36L29 36L29 35L28 35L28 34L25 34L25 35L26 35L26 36L23 36L23 38L20 38L20 37L19 37L19 34L18 34L18 33L17 33L17 32L16 32L16 30L17 30L17 28ZM28 28L28 29L29 29L29 28ZM50 28L50 29L51 29L51 28ZM53 28L53 29L54 29L54 28ZM25 31L25 32L27 32L27 31ZM34 31L34 32L35 32L35 31ZM42 32L42 33L43 33L43 32ZM13 33L13 34L12 34L12 39L11 39L11 40L13 40L13 41L14 41L14 42L12 42L12 43L13 43L13 44L14 44L14 45L15 45L15 44L14 44L14 42L15 42L15 41L17 41L17 39L19 39L19 38L18 38L18 37L17 37L17 36L18 36L18 35L17 35L17 33ZM13 34L13 35L14 35L14 36L13 36L13 37L15 37L15 34ZM20 34L20 35L21 35L21 34ZM47 34L47 35L48 35L48 34ZM16 35L16 36L17 36L17 35ZM54 35L54 36L55 36L55 37L56 37L56 36L55 36L55 35ZM7 36L7 37L6 37L6 38L7 38L7 39L8 39L8 36ZM26 36L26 37L24 37L24 39L23 39L23 40L22 40L22 39L21 39L21 40L22 40L22 41L20 41L20 40L18 40L18 41L19 41L19 42L20 42L20 44L19 44L19 43L18 43L18 42L17 42L17 45L20 45L20 46L21 46L21 47L22 47L22 46L23 46L23 45L24 45L24 44L22 44L22 41L23 41L23 40L24 40L24 39L25 39L25 41L26 41L26 40L27 40L27 39L26 39L26 37L27 37L27 38L29 38L29 36ZM1 38L1 39L2 39L2 40L3 40L3 38ZM14 38L14 39L13 39L13 40L14 40L14 41L15 41L15 40L16 40L16 39L17 39L17 38ZM56 40L56 41L57 41L57 40ZM37 42L37 44L38 44L38 43L39 43L39 42ZM49 42L49 43L50 43L50 42ZM21 44L21 46L22 46L22 44ZM37 45L37 47L38 47L38 45ZM44 45L44 47L43 47L43 49L44 49L44 50L45 50L45 49L47 49L47 48L46 48L46 47L47 47L47 46L46 46L46 47L45 47L45 45ZM1 46L1 47L2 47L2 46ZM3 46L3 47L5 47L5 46ZM32 46L32 47L33 47L33 46ZM23 47L23 48L24 48L24 47ZM44 47L44 49L45 49L45 47ZM50 47L50 48L51 48L51 47ZM52 47L52 48L53 48L53 47ZM35 48L35 52L36 52L36 51L39 51L39 50L40 50L40 49L39 49L39 48L38 48L38 49L37 49L37 48ZM41 48L41 49L42 49L42 48ZM27 49L27 52L30 52L30 49ZM36 49L36 50L37 50L37 49ZM49 49L49 52L52 52L52 49ZM28 50L28 51L29 51L29 50ZM50 50L50 51L51 51L51 50ZM40 51L40 52L41 52L41 51ZM56 51L56 53L55 53L55 54L56 54L56 53L57 53L57 51ZM17 53L17 54L18 54L18 53ZM20 53L20 55L19 55L19 56L20 56L20 55L22 55L22 54L21 54L21 53ZM38 53L38 54L39 54L39 53ZM39 55L39 56L40 56L40 55ZM41 55L41 56L42 56L42 55ZM56 55L56 56L57 56L57 55ZM52 56L52 57L53 57L53 56ZM54 56L54 57L55 57L55 56ZM0 0L0 7L7 7L7 0ZM1 1L1 6L6 6L6 1ZM2 2L2 5L5 5L5 2ZM50 0L50 7L57 7L57 0ZM51 1L51 6L56 6L56 1ZM52 2L52 5L55 5L55 2ZM0 50L0 57L7 57L7 50ZM1 51L1 56L6 56L6 51ZM2 52L2 55L5 55L5 52Z" fill="#000000"/></g></g></svg>
