<?xml version="1.0" encoding="UTF-8"?>
<svg xmlns="http://www.w3.org/2000/svg" version="1.1" width="300" height="300" viewBox="0 0 300 300"><rect x="0" y="0" width="300" height="300" fill="#fefefe"/><g transform="scale(4.615)"><g transform="translate(4,4)"><path fill-rule="evenodd" d="M9 0L9 1L8 1L8 2L10 2L10 0ZM14 0L14 2L11 2L11 5L12 5L12 7L13 7L13 9L12 9L12 8L11 8L11 9L10 9L10 7L11 7L11 6L10 6L10 7L9 7L9 5L10 5L10 3L8 3L8 4L9 4L9 5L8 5L8 7L9 7L9 8L6 8L6 9L8 9L8 10L5 10L5 8L0 8L0 12L1 12L1 9L3 9L3 10L5 10L5 11L4 11L4 12L6 12L6 13L7 13L7 14L6 14L6 15L8 15L8 16L9 16L9 17L10 17L10 15L8 15L8 14L10 14L10 13L11 13L11 12L12 12L12 11L14 11L14 12L13 12L13 13L12 13L12 14L11 14L11 15L13 15L13 16L12 16L12 17L14 17L14 18L15 18L15 19L17 19L17 21L16 21L16 20L15 20L15 21L16 21L16 22L14 22L14 21L13 21L13 20L14 20L14 19L13 19L13 20L12 20L12 19L11 19L11 18L10 18L10 20L8 20L8 18L6 18L6 17L7 17L7 16L6 16L6 17L5 17L5 14L4 14L4 16L3 16L3 15L2 15L2 14L1 14L1 13L0 13L0 21L1 21L1 20L2 20L2 19L3 19L3 20L4 20L4 21L3 21L3 22L2 22L2 25L1 25L1 22L0 22L0 25L1 25L1 26L2 26L2 25L3 25L3 27L1 27L1 28L0 28L0 29L2 29L2 28L3 28L3 30L2 30L2 31L1 31L1 34L0 34L0 38L1 38L1 36L2 36L2 37L3 37L3 39L2 39L2 40L1 40L1 39L0 39L0 40L1 40L1 41L0 41L0 42L2 42L2 43L1 43L1 44L2 44L2 43L3 43L3 45L2 45L2 47L1 47L1 46L0 46L0 48L5 48L5 47L7 47L7 48L6 48L6 49L8 49L8 51L9 51L9 52L8 52L8 57L12 57L12 55L14 55L14 54L15 54L15 55L16 55L16 56L15 56L15 57L16 57L16 56L17 56L17 57L20 57L20 56L18 56L18 55L20 55L20 54L19 54L19 53L20 53L20 52L22 52L22 51L19 51L19 50L20 50L20 49L19 49L19 48L20 48L20 46L19 46L19 45L21 45L21 47L23 47L23 49L21 49L21 50L26 50L26 52L24 52L24 53L23 53L23 54L22 54L22 53L21 53L21 54L22 54L22 56L24 56L24 57L26 57L26 56L27 56L27 57L29 57L29 56L30 56L30 57L31 57L31 56L35 56L35 57L39 57L39 56L41 56L41 57L44 57L44 56L42 56L42 55L44 55L44 54L45 54L45 55L49 55L49 56L50 56L50 57L52 57L52 55L51 55L51 53L52 53L52 54L53 54L53 52L54 52L54 54L55 54L55 52L57 52L57 51L56 51L56 49L57 49L57 48L56 48L56 46L57 46L57 43L56 43L56 42L55 42L55 39L57 39L57 37L56 37L56 36L57 36L57 35L56 35L56 33L57 33L57 32L56 32L56 30L57 30L57 27L56 27L56 26L57 26L57 25L56 25L56 22L57 22L57 21L56 21L56 19L55 19L55 18L57 18L57 17L56 17L56 16L57 16L57 15L56 15L56 14L57 14L57 12L56 12L56 14L55 14L55 13L54 13L54 12L55 12L55 11L56 11L56 8L55 8L55 10L54 10L54 11L50 11L50 12L49 12L49 10L50 10L50 8L48 8L48 7L49 7L49 6L48 6L48 7L47 7L47 5L48 5L48 0L45 0L45 1L47 1L47 2L44 2L44 3L41 3L41 2L43 2L43 0L41 0L41 1L40 1L40 0L39 0L39 1L38 1L38 0L37 0L37 1L38 1L38 2L37 2L37 3L36 3L36 0L35 0L35 1L32 1L32 3L31 3L31 0L29 0L29 1L25 1L25 0L23 0L23 1L22 1L22 0L21 0L21 2L20 2L20 0L19 0L19 2L20 2L20 3L22 3L22 2L27 2L27 3L28 3L28 2L29 2L29 3L30 3L30 4L26 4L26 3L23 3L23 4L19 4L19 3L17 3L17 2L18 2L18 1L16 1L16 2L15 2L15 0ZM14 2L14 4L13 4L13 7L14 7L14 5L15 5L15 7L16 7L16 8L17 8L17 7L18 7L18 8L19 8L19 9L20 9L20 11L19 11L19 13L20 13L20 18L18 18L18 19L20 19L20 21L17 21L17 22L20 22L20 23L19 23L19 24L21 24L21 25L13 25L13 26L12 26L12 28L13 28L13 27L14 27L14 29L13 29L13 30L12 30L12 29L11 29L11 27L10 27L10 26L9 26L9 27L10 27L10 29L9 29L9 30L10 30L10 29L11 29L11 30L12 30L12 32L11 32L11 31L10 31L10 32L9 32L9 31L8 31L8 32L9 32L9 33L6 33L6 32L7 32L7 31L6 31L6 32L5 32L5 33L6 33L6 34L5 34L5 35L6 35L6 36L5 36L5 37L6 37L6 38L7 38L7 39L6 39L6 40L4 40L4 39L5 39L5 38L4 38L4 39L3 39L3 40L2 40L2 41L3 41L3 40L4 40L4 42L3 42L3 43L4 43L4 44L5 44L5 43L4 43L4 42L5 42L5 41L6 41L6 42L7 42L7 43L6 43L6 44L7 44L7 43L8 43L8 44L10 44L10 45L11 45L11 46L10 46L10 47L8 47L8 46L9 46L9 45L3 45L3 47L5 47L5 46L7 46L7 47L8 47L8 49L9 49L9 48L10 48L10 49L11 49L11 50L9 50L9 51L11 51L11 54L13 54L13 53L15 53L15 54L16 54L16 53L17 53L17 52L18 52L18 50L19 50L19 49L15 49L15 48L14 48L14 49L13 49L13 48L12 48L12 45L13 45L13 47L14 47L14 45L15 45L15 47L16 47L16 48L17 48L17 45L18 45L18 44L16 44L16 42L17 42L17 43L18 43L18 42L19 42L19 43L20 43L20 44L21 44L21 45L22 45L22 46L23 46L23 47L24 47L24 46L23 46L23 45L24 45L24 44L25 44L25 48L24 48L24 49L26 49L26 48L27 48L27 47L26 47L26 45L27 45L27 46L30 46L30 45L31 45L31 47L33 47L33 48L32 48L32 49L31 49L31 50L32 50L32 51L31 51L31 53L30 53L30 54L26 54L26 53L24 53L24 54L23 54L23 55L24 55L24 56L25 56L25 54L26 54L26 55L27 55L27 56L29 56L29 55L30 55L30 56L31 56L31 54L32 54L32 53L33 53L33 55L35 55L35 56L36 56L36 54L35 54L35 53L33 53L33 52L32 52L32 51L33 51L33 50L36 50L36 52L37 52L37 53L38 53L38 54L37 54L37 56L39 56L39 55L38 55L38 54L40 54L40 53L42 53L42 52L40 52L40 51L38 51L38 50L41 50L41 51L42 51L42 50L41 50L41 48L42 48L42 49L43 49L43 51L46 51L46 50L47 50L47 53L45 53L45 52L44 52L44 53L43 53L43 54L44 54L44 53L45 53L45 54L48 54L48 50L47 50L47 49L48 49L48 48L50 48L50 47L51 47L51 46L53 46L53 47L54 47L54 46L53 46L53 45L51 45L51 44L53 44L53 43L54 43L54 42L53 42L53 41L54 41L54 40L53 40L53 41L51 41L51 42L50 42L50 43L49 43L49 42L48 42L48 41L49 41L49 40L50 40L50 39L51 39L51 40L52 40L52 39L54 39L54 38L53 38L53 35L55 35L55 34L54 34L54 33L52 33L52 32L51 32L51 31L50 31L50 32L49 32L49 31L48 31L48 27L47 27L47 26L48 26L48 25L50 25L50 26L52 26L52 25L53 25L53 23L50 23L50 22L51 22L51 21L53 21L53 22L56 22L56 21L55 21L55 20L53 20L53 19L52 19L52 18L55 18L55 17L53 17L53 16L52 16L52 15L51 15L51 17L50 17L50 14L51 14L51 12L50 12L50 14L49 14L49 15L48 15L48 16L47 16L47 17L45 17L45 16L46 16L46 15L45 15L45 14L47 14L47 13L49 13L49 12L48 12L48 10L47 10L47 9L48 9L48 8L47 8L47 7L46 7L46 6L45 6L45 4L46 4L46 5L47 5L47 3L44 3L44 6L43 6L43 8L44 8L44 9L43 9L43 10L44 10L44 9L45 9L45 10L47 10L47 12L45 12L45 11L44 11L44 13L45 13L45 14L41 14L41 13L43 13L43 11L42 11L42 10L41 10L41 9L42 9L42 8L41 8L41 7L42 7L42 6L41 6L41 5L40 5L40 4L41 4L41 3L39 3L39 2L38 2L38 3L39 3L39 4L38 4L38 5L37 5L37 4L36 4L36 5L35 5L35 2L34 2L34 3L32 3L32 4L31 4L31 8L32 8L32 10L29 10L29 9L28 9L28 10L29 10L29 12L28 12L28 13L27 13L27 14L26 14L26 17L25 17L25 16L23 16L23 15L21 15L21 13L22 13L22 14L23 14L23 13L22 13L22 12L21 12L21 11L22 11L22 10L23 10L23 8L24 8L24 6L23 6L23 5L24 5L24 4L23 4L23 5L21 5L21 8L19 8L19 7L20 7L20 5L19 5L19 4L17 4L17 3L15 3L15 2ZM15 4L15 5L16 5L16 4ZM25 4L25 8L26 8L26 4ZM32 4L32 5L33 5L33 4ZM17 5L17 6L16 6L16 7L17 7L17 6L18 6L18 7L19 7L19 6L18 6L18 5ZM27 5L27 8L30 8L30 5ZM34 5L34 7L33 7L33 6L32 6L32 7L33 7L33 9L34 9L34 8L35 8L35 9L37 9L37 10L36 10L36 11L35 11L35 13L36 13L36 14L33 14L33 13L34 13L34 12L33 12L33 13L32 13L32 11L33 11L33 10L32 10L32 11L31 11L31 13L30 13L30 14L29 14L29 13L28 13L28 14L29 14L29 16L28 16L28 15L27 15L27 16L28 16L28 17L27 17L27 18L25 18L25 17L22 17L22 16L21 16L21 17L22 17L22 19L21 19L21 18L20 18L20 19L21 19L21 20L22 20L22 19L23 19L23 20L24 20L24 21L23 21L23 22L22 22L22 21L21 21L21 24L23 24L23 25L21 25L21 26L19 26L19 27L22 27L22 26L26 26L26 27L25 27L25 28L26 28L26 29L23 29L23 30L25 30L25 31L24 31L24 32L25 32L25 33L23 33L23 34L24 34L24 36L23 36L23 35L22 35L22 33L21 33L21 32L23 32L23 31L20 31L20 29L22 29L22 28L19 28L19 29L18 29L18 28L16 28L16 29L15 29L15 31L13 31L13 32L12 32L12 33L13 33L13 32L15 32L15 33L16 33L16 32L15 32L15 31L16 31L16 29L18 29L18 30L17 30L17 31L20 31L20 32L17 32L17 34L16 34L16 35L14 35L14 36L18 36L18 37L17 37L17 38L18 38L18 39L17 39L17 40L18 40L18 41L17 41L17 42L18 42L18 41L19 41L19 42L20 42L20 41L21 41L21 42L22 42L22 43L21 43L21 44L22 44L22 45L23 45L23 43L25 43L25 44L27 44L27 45L28 45L28 44L31 44L31 45L32 45L32 46L33 46L33 47L34 47L34 48L35 48L35 49L36 49L36 50L38 50L38 49L39 49L39 48L41 48L41 46L43 46L43 45L44 45L44 47L46 47L46 48L48 48L48 47L50 47L50 46L51 46L51 45L50 45L50 46L49 46L49 45L47 45L47 43L48 43L48 42L47 42L47 43L46 43L46 44L45 44L45 45L44 45L44 44L43 44L43 42L44 42L44 43L45 43L45 42L44 42L44 41L43 41L43 40L45 40L45 41L47 41L47 39L48 39L48 37L47 37L47 39L43 39L43 40L42 40L42 41L39 41L39 42L38 42L38 40L41 40L41 39L42 39L42 38L43 38L43 37L44 37L44 38L45 38L45 37L46 37L46 34L45 34L45 35L44 35L44 33L43 33L43 32L45 32L45 33L46 33L46 32L48 32L48 33L49 33L49 32L48 32L48 31L47 31L47 30L46 30L46 29L47 29L47 27L46 27L46 28L45 28L45 27L43 27L43 28L45 28L45 31L44 31L44 29L41 29L41 30L43 30L43 32L41 32L41 33L39 33L39 34L40 34L40 35L39 35L39 37L40 37L40 38L41 38L41 39L38 39L38 40L35 40L35 39L37 39L37 38L38 38L38 37L37 37L37 36L38 36L38 33L37 33L37 32L34 32L34 31L35 31L35 30L32 30L32 32L31 32L31 33L29 33L29 32L30 32L30 31L31 31L31 29L32 29L32 28L31 28L31 26L32 26L32 27L33 27L33 28L35 28L35 29L38 29L38 28L40 28L40 27L41 27L41 28L42 28L42 27L41 27L41 26L44 26L44 24L43 24L43 25L40 25L40 24L42 24L42 23L44 23L44 20L45 20L45 19L46 19L46 18L44 18L44 15L42 15L42 16L41 16L41 14L40 14L40 15L39 15L39 14L38 14L38 13L39 13L39 11L40 11L40 12L41 12L41 11L40 11L40 9L39 9L39 10L38 10L38 8L40 8L40 7L41 7L41 6L40 6L40 5L39 5L39 6L38 6L38 7L37 7L37 5L36 5L36 7L37 7L37 8L35 8L35 5ZM22 6L22 8L23 8L23 6ZM28 6L28 7L29 7L29 6ZM39 6L39 7L40 7L40 6ZM44 6L44 7L45 7L45 6ZM14 8L14 9L13 9L13 10L16 10L16 11L15 11L15 13L13 13L13 14L15 14L15 13L16 13L16 17L15 17L15 15L14 15L14 17L15 17L15 18L17 18L17 13L18 13L18 12L17 12L17 13L16 13L16 11L18 11L18 10L17 10L17 9L15 9L15 8ZM45 8L45 9L47 9L47 8ZM51 8L51 9L52 9L52 8ZM53 8L53 9L54 9L54 8ZM9 9L9 10L8 10L8 11L9 11L9 10L10 10L10 9ZM21 9L21 10L22 10L22 9ZM11 10L11 11L10 11L10 12L11 12L11 11L12 11L12 10ZM6 11L6 12L7 12L7 11ZM23 11L23 12L25 12L25 13L26 13L26 12L27 12L27 11L26 11L26 12L25 12L25 11ZM52 12L52 13L53 13L53 15L55 15L55 14L54 14L54 13L53 13L53 12ZM18 14L18 15L19 15L19 14ZM30 14L30 15L31 15L31 16L32 16L32 17L33 17L33 18L30 18L30 19L28 19L28 18L27 18L27 19L26 19L26 20L25 20L25 21L24 21L24 22L23 22L23 23L24 23L24 24L25 24L25 25L26 25L26 26L27 26L27 25L29 25L29 24L30 24L30 25L31 25L31 24L32 24L32 26L33 26L33 27L34 27L34 26L36 26L36 27L39 27L39 26L40 26L40 25L39 25L39 24L40 24L40 22L39 22L39 21L42 21L42 20L38 20L38 23L37 23L37 24L38 24L38 26L37 26L37 25L33 25L33 24L32 24L32 23L33 23L33 22L34 22L34 23L35 23L35 21L33 21L33 20L32 20L32 21L31 21L31 19L33 19L33 18L35 18L35 19L36 19L36 20L37 20L37 19L39 19L39 17L41 17L41 16L39 16L39 15L38 15L38 14L37 14L37 15L35 15L35 16L33 16L33 15L31 15L31 14ZM1 15L1 16L2 16L2 15ZM35 16L35 17L37 17L37 18L38 18L38 17L39 17L39 16L38 16L38 17L37 17L37 16ZM42 16L42 17L43 17L43 16ZM48 16L48 17L47 17L47 20L49 20L49 21L47 21L47 22L46 22L46 21L45 21L45 22L46 22L46 23L45 23L45 24L47 24L47 25L48 25L48 24L47 24L47 22L49 22L49 21L51 21L51 20L52 20L52 19L48 19L48 18L50 18L50 17L49 17L49 16ZM1 17L1 18L2 18L2 17ZM4 17L4 20L5 20L5 17ZM23 18L23 19L24 19L24 18ZM41 18L41 19L42 19L42 18ZM43 18L43 20L44 20L44 18ZM6 19L6 20L7 20L7 21L6 21L6 22L7 22L7 21L8 21L8 23L6 23L6 24L8 24L8 25L9 25L9 24L8 24L8 23L9 23L9 22L10 22L10 23L11 23L11 22L13 22L13 21L8 21L8 20L7 20L7 19ZM4 21L4 22L3 22L3 23L4 23L4 25L5 25L5 26L7 26L7 25L5 25L5 21ZM25 21L25 22L26 22L26 23L25 23L25 24L29 24L29 23L31 23L31 21L29 21L29 23L27 23L27 22L28 22L28 21ZM41 22L41 23L42 23L42 22ZM12 23L12 24L13 24L13 23ZM14 23L14 24L16 24L16 23ZM17 23L17 24L18 24L18 23ZM38 23L38 24L39 24L39 23ZM49 23L49 24L50 24L50 23ZM10 24L10 25L11 25L11 24ZM55 25L55 26L56 26L56 25ZM14 26L14 27L16 27L16 26ZM17 26L17 27L18 27L18 26ZM53 26L53 27L54 27L54 26ZM5 27L5 30L8 30L8 27ZM27 27L27 30L30 30L30 27ZM49 27L49 30L52 30L52 27ZM55 27L55 28L54 28L54 29L53 29L53 30L54 30L54 29L56 29L56 27ZM6 28L6 29L7 29L7 28ZM28 28L28 29L29 29L29 28ZM50 28L50 29L51 29L51 28ZM39 29L39 30L38 30L38 32L39 32L39 30L40 30L40 29ZM3 30L3 31L2 31L2 34L1 34L1 35L2 35L2 36L3 36L3 37L4 37L4 34L3 34L3 33L4 33L4 32L3 32L3 31L4 31L4 30ZM25 31L25 32L26 32L26 33L25 33L25 34L26 34L26 35L27 35L27 37L25 37L25 40L24 40L24 39L23 39L23 40L21 40L21 41L22 41L22 42L23 42L23 40L24 40L24 41L25 41L25 43L27 43L27 44L28 44L28 43L29 43L29 41L31 41L31 42L32 42L32 43L31 43L31 44L32 44L32 45L33 45L33 46L35 46L35 48L36 48L36 47L37 47L37 46L35 46L35 45L34 45L34 43L37 43L37 42L35 42L35 40L33 40L33 39L34 39L34 38L35 38L35 37L33 37L33 36L34 36L34 35L33 35L33 34L35 34L35 36L37 36L37 34L35 34L35 33L34 33L34 32L32 32L32 33L33 33L33 34L31 34L31 35L33 35L33 36L32 36L32 37L33 37L33 39L29 39L29 38L31 38L31 37L29 37L29 36L30 36L30 34L29 34L29 33L28 33L28 32L29 32L29 31L27 31L27 32L26 32L26 31ZM50 32L50 34L49 34L49 35L50 35L50 36L49 36L49 37L50 37L50 38L49 38L49 39L50 39L50 38L51 38L51 37L52 37L52 35L53 35L53 34L52 34L52 33L51 33L51 32ZM55 32L55 33L56 33L56 32ZM9 33L9 35L7 35L7 34L6 34L6 35L7 35L7 36L6 36L6 37L8 37L8 43L10 43L10 44L11 44L11 45L12 45L12 43L13 43L13 42L10 42L10 41L11 41L11 40L13 40L13 41L14 41L14 44L13 44L13 45L14 45L14 44L15 44L15 41L16 41L16 39L15 39L15 38L16 38L16 37L14 37L14 38L12 38L12 39L11 39L11 38L10 38L10 37L11 37L11 36L12 36L12 37L13 37L13 36L12 36L12 35L13 35L13 34L11 34L11 35L10 35L10 33ZM19 33L19 35L18 35L18 34L17 34L17 35L18 35L18 36L19 36L19 37L18 37L18 38L19 38L19 39L18 39L18 40L19 40L19 41L20 41L20 40L19 40L19 39L20 39L20 38L19 38L19 37L21 37L21 38L24 38L24 37L23 37L23 36L21 36L21 35L20 35L20 34L21 34L21 33ZM2 34L2 35L3 35L3 34ZM42 34L42 35L41 35L41 36L40 36L40 37L41 37L41 38L42 38L42 37L41 37L41 36L42 36L42 35L43 35L43 36L44 36L44 37L45 37L45 36L44 36L44 35L43 35L43 34ZM50 34L50 35L52 35L52 34ZM19 35L19 36L20 36L20 35ZM8 36L8 37L9 37L9 36ZM50 36L50 37L51 37L51 36ZM27 37L27 38L26 38L26 40L28 40L28 39L27 39L27 38L28 38L28 37ZM9 39L9 41L10 41L10 39ZM14 39L14 41L15 41L15 39ZM6 40L6 41L7 41L7 40ZM31 40L31 41L32 41L32 42L33 42L33 43L32 43L32 44L33 44L33 43L34 43L34 42L33 42L33 41L32 41L32 40ZM26 41L26 42L27 42L27 41ZM41 42L41 43L39 43L39 45L38 45L38 46L39 46L39 47L38 47L38 48L37 48L37 49L38 49L38 48L39 48L39 47L40 47L40 46L39 46L39 45L41 45L41 44L42 44L42 42ZM51 42L51 43L50 43L50 44L51 44L51 43L53 43L53 42ZM55 43L55 44L54 44L54 45L55 45L55 46L56 46L56 43ZM45 45L45 46L47 46L47 45ZM18 47L18 48L19 48L19 47ZM28 47L28 48L30 48L30 47ZM42 47L42 48L43 48L43 49L44 49L44 48L43 48L43 47ZM11 48L11 49L12 49L12 50L13 50L13 49L12 49L12 48ZM55 48L55 49L56 49L56 48ZM27 49L27 52L30 52L30 49ZM45 49L45 50L46 50L46 49ZM49 49L49 52L52 52L52 49ZM14 50L14 52L15 52L15 53L16 53L16 51L17 51L17 50L16 50L16 51L15 51L15 50ZM28 50L28 51L29 51L29 50ZM50 50L50 51L51 51L51 50ZM54 50L54 51L55 51L55 50ZM9 52L9 54L10 54L10 52ZM38 52L38 53L39 53L39 52ZM17 54L17 55L18 55L18 54ZM41 54L41 55L42 55L42 54ZM9 55L9 56L11 56L11 55ZM50 55L50 56L51 56L51 55ZM53 55L53 56L55 56L55 57L56 57L56 56L55 56L55 55ZM45 56L45 57L46 57L46 56ZM0 0L0 7L7 7L7 0ZM1 1L1 6L6 6L6 1ZM2 2L2 5L5 5L5 2ZM50 0L50 7L57 7L57 0ZM51 1L51 6L56 6L56 1ZM52 2L52 5L55 5L55 2ZM0 50L0 57L7 57L7 50ZM1 51L1 56L6 56L6 51ZM2 52L2 55L5 55L5 52Z" fill="#000000"/></g></g></svg>
