<?xml version="1.0" encoding="UTF-8"?>
<svg xmlns="http://www.w3.org/2000/svg" version="1.1" width="300" height="300" viewBox="0 0 300 300"><rect x="0" y="0" width="300" height="300" fill="#fefefe"/><g transform="scale(4.615)"><g transform="translate(4,4)"><path fill-rule="evenodd" d="M8 0L8 4L9 4L9 1L10 1L10 2L12 2L12 1L13 1L13 5L12 5L12 8L13 8L13 6L14 6L14 7L15 7L15 8L14 8L14 9L13 9L13 10L12 10L12 9L11 9L11 5L10 5L10 7L9 7L9 5L8 5L8 7L9 7L9 8L10 8L10 10L12 10L12 11L7 11L7 10L5 10L5 11L3 11L3 10L2 10L2 12L1 12L1 10L0 10L0 12L1 12L1 14L0 14L0 16L1 16L1 17L2 17L2 18L1 18L1 19L0 19L0 20L1 20L1 19L2 19L2 20L3 20L3 22L0 22L0 23L3 23L3 24L2 24L2 25L3 25L3 24L4 24L4 20L5 20L5 21L9 21L9 20L10 20L10 18L9 18L9 17L11 17L11 18L12 18L12 19L11 19L11 20L12 20L12 21L11 21L11 22L10 22L10 23L9 23L9 22L5 22L5 25L4 25L4 33L5 33L5 34L4 34L4 36L2 36L2 37L1 37L1 36L0 36L0 38L3 38L3 37L4 37L4 38L5 38L5 39L7 39L7 38L6 38L6 37L8 37L8 35L10 35L10 36L9 36L9 38L10 38L10 39L11 39L11 41L10 41L10 40L8 40L8 41L7 41L7 40L6 40L6 41L7 41L7 42L4 42L4 41L5 41L5 40L4 40L4 39L3 39L3 41L2 41L2 39L0 39L0 40L1 40L1 41L0 41L0 42L1 42L1 43L0 43L0 48L5 48L5 47L7 47L7 46L9 46L9 44L10 44L10 45L11 45L11 44L10 44L10 42L11 42L11 43L13 43L13 42L14 42L14 41L15 41L15 46L14 46L14 47L12 47L12 48L11 48L11 46L10 46L10 47L9 47L9 49L8 49L8 48L6 48L6 49L8 49L8 50L9 50L9 51L8 51L8 53L9 53L9 55L8 55L8 57L12 57L12 56L11 56L11 54L12 54L12 55L14 55L14 57L16 57L16 56L15 56L15 55L16 55L16 54L17 54L17 55L20 55L20 54L23 54L23 55L22 55L22 56L20 56L20 57L22 57L22 56L23 56L23 55L24 55L24 57L25 57L25 56L26 56L26 57L27 57L27 55L26 55L26 54L24 54L24 53L28 53L28 57L29 57L29 55L30 55L30 57L34 57L34 55L35 55L35 57L37 57L37 56L36 56L36 54L37 54L37 53L38 53L38 55L39 55L39 57L40 57L40 54L41 54L41 57L43 57L43 56L44 56L44 57L45 57L45 56L46 56L46 57L47 57L47 56L46 56L46 55L45 55L45 56L44 56L44 53L45 53L45 54L46 54L46 53L47 53L47 52L48 52L48 54L49 54L49 57L50 57L50 55L51 55L51 56L53 56L53 57L54 57L54 55L53 55L53 50L54 50L54 51L55 51L55 49L56 49L56 45L57 45L57 44L56 44L56 45L54 45L54 44L53 44L53 43L54 43L54 42L55 42L55 43L56 43L56 42L57 42L57 40L53 40L53 39L52 39L52 37L51 37L51 39L50 39L50 36L53 36L53 38L54 38L54 37L57 37L57 35L56 35L56 30L55 30L55 29L57 29L57 27L56 27L56 25L57 25L57 24L56 24L56 21L57 21L57 19L56 19L56 18L55 18L55 24L56 24L56 25L53 25L53 26L51 26L51 25L52 25L52 24L53 24L53 23L52 23L52 22L54 22L54 21L52 21L52 20L53 20L53 19L50 19L50 18L52 18L52 16L53 16L53 15L52 15L52 14L54 14L54 15L55 15L55 16L56 16L56 17L57 17L57 15L56 15L56 12L57 12L57 11L56 11L56 10L57 10L57 8L53 8L53 9L52 9L52 8L51 8L51 9L50 9L50 15L48 15L48 17L47 17L47 18L46 18L46 17L45 17L45 16L47 16L47 15L46 15L46 11L45 11L45 10L46 10L46 8L44 8L44 7L45 7L45 6L46 6L46 7L47 7L47 5L48 5L48 0L41 0L41 1L40 1L40 2L39 2L39 3L38 3L38 5L36 5L36 4L35 4L35 5L32 5L32 3L33 3L33 1L34 1L34 3L35 3L35 2L36 2L36 3L37 3L37 2L38 2L38 1L39 1L39 0L38 0L38 1L37 1L37 2L36 2L36 0L35 0L35 1L34 1L34 0L33 0L33 1L32 1L32 3L31 3L31 0L28 0L28 1L27 1L27 0L26 0L26 1L25 1L25 0L23 0L23 1L21 1L21 0L19 0L19 1L18 1L18 0L17 0L17 1L16 1L16 0L14 0L14 1L13 1L13 0ZM14 1L14 4L15 4L15 5L14 5L14 6L15 6L15 7L16 7L16 6L17 6L17 8L19 8L19 7L20 7L20 6L21 6L21 7L22 7L22 10L21 10L21 11L22 11L22 12L23 12L23 13L21 13L21 12L20 12L20 9L16 9L16 10L15 10L15 11L16 11L16 10L18 10L18 11L17 11L17 13L15 13L15 12L14 12L14 11L12 11L12 12L13 12L13 13L15 13L15 14L17 14L17 13L18 13L18 12L20 12L20 13L19 13L19 14L18 14L18 16L15 16L15 17L16 17L16 18L17 18L17 20L16 20L16 19L15 19L15 18L13 18L13 19L12 19L12 20L13 20L13 19L14 19L14 20L15 20L15 21L17 21L17 22L16 22L16 23L15 23L15 24L16 24L16 26L15 26L15 28L13 28L13 30L10 30L10 29L9 29L9 31L10 31L10 32L9 32L9 33L8 33L8 31L5 31L5 32L7 32L7 33L6 33L6 34L10 34L10 35L11 35L11 36L10 36L10 38L11 38L11 37L12 37L12 36L13 36L13 35L16 35L16 37L15 37L15 39L16 39L16 38L17 38L17 40L16 40L16 44L17 44L17 45L16 45L16 46L17 46L17 48L19 48L19 50L18 50L18 52L19 52L19 53L17 53L17 49L16 49L16 47L14 47L14 48L12 48L12 50L13 50L13 49L14 49L14 48L15 48L15 49L16 49L16 52L14 52L14 51L15 51L15 50L14 50L14 51L13 51L13 52L12 52L12 54L13 54L13 52L14 52L14 55L15 55L15 53L17 53L17 54L19 54L19 53L20 53L20 52L19 52L19 50L20 50L20 51L22 51L22 52L21 52L21 53L24 53L24 52L23 52L23 50L22 50L22 49L23 49L23 48L22 48L22 47L24 47L24 49L25 49L25 50L26 50L26 49L25 49L25 47L26 47L26 48L27 48L27 47L28 47L28 46L29 46L29 47L30 47L30 48L31 48L31 50L32 50L32 48L31 48L31 46L29 46L29 45L30 45L30 44L31 44L31 45L32 45L32 46L33 46L33 45L32 45L32 43L33 43L33 44L35 44L35 43L33 43L33 41L32 41L32 40L33 40L33 39L31 39L31 38L33 38L33 37L32 37L32 36L31 36L31 35L33 35L33 36L34 36L34 42L35 42L35 39L37 39L37 42L38 42L38 37L42 37L42 34L40 34L40 33L41 33L41 32L40 32L40 31L41 31L41 30L40 30L40 29L44 29L44 30L43 30L43 31L44 31L44 30L46 30L46 31L45 31L45 32L46 32L46 34L44 34L44 33L43 33L43 34L44 34L44 35L43 35L43 37L44 37L44 38L43 38L43 39L40 39L40 38L39 38L39 39L40 39L40 41L39 41L39 42L40 42L40 46L39 46L39 47L38 47L38 49L37 49L37 52L38 52L38 49L39 49L39 47L40 47L40 51L39 51L39 52L40 52L40 53L42 53L42 52L41 52L41 43L42 43L42 44L43 44L43 45L44 45L44 46L43 46L43 47L42 47L42 49L44 49L44 51L45 51L45 53L46 53L46 52L47 52L47 51L45 51L45 49L46 49L46 50L47 50L47 49L48 49L48 47L49 47L49 46L48 46L48 47L47 47L47 45L48 45L48 44L47 44L47 43L49 43L49 45L51 45L51 46L50 46L50 48L52 48L52 46L53 46L53 48L55 48L55 46L54 46L54 45L51 45L51 44L52 44L52 43L53 43L53 41L52 41L52 40L50 40L50 39L49 39L49 37L48 37L48 36L50 36L50 35L53 35L53 36L55 36L55 35L53 35L53 34L54 34L54 33L55 33L55 30L54 30L54 29L55 29L55 28L56 28L56 27L55 27L55 26L54 26L54 27L53 27L53 28L54 28L54 29L53 29L53 31L54 31L54 33L51 33L51 32L50 32L50 31L49 31L49 32L50 32L50 35L46 35L46 34L49 34L49 33L48 33L48 31L47 31L47 29L48 29L48 25L49 25L49 26L50 26L50 25L51 25L51 24L52 24L52 23L51 23L51 24L50 24L50 22L49 22L49 24L48 24L48 23L47 23L47 21L46 21L46 18L45 18L45 21L46 21L46 23L45 23L45 22L44 22L44 16L45 16L45 15L44 15L44 12L45 12L45 11L44 11L44 8L43 8L43 7L44 7L44 4L45 4L45 5L47 5L47 3L44 3L44 2L43 2L43 3L41 3L41 2L40 2L40 3L39 3L39 4L40 4L40 3L41 3L41 4L43 4L43 5L42 5L42 6L41 6L41 5L39 5L39 7L40 7L40 6L41 6L41 8L40 8L40 9L39 9L39 8L37 8L37 9L35 9L35 7L36 7L36 5L35 5L35 7L34 7L34 6L33 6L33 7L32 7L32 6L31 6L31 11L32 11L32 8L33 8L33 9L34 9L34 10L33 10L33 13L32 13L32 12L29 12L29 9L26 9L26 6L25 6L25 7L24 7L24 6L23 6L23 5L24 5L24 4L25 4L25 3L26 3L26 4L27 4L27 3L29 3L29 2L30 2L30 1L29 1L29 2L27 2L27 1L26 1L26 2L25 2L25 3L23 3L23 5L21 5L21 3L22 3L22 2L20 2L20 3L19 3L19 2L18 2L18 1L17 1L17 2L16 2L16 3L15 3L15 1ZM46 1L46 2L47 2L47 1ZM10 3L10 4L12 4L12 3ZM16 3L16 4L17 4L17 3ZM43 3L43 4L44 4L44 3ZM18 4L18 5L17 5L17 6L18 6L18 7L19 7L19 6L20 6L20 5L19 5L19 4ZM15 5L15 6L16 6L16 5ZM18 5L18 6L19 6L19 5ZM27 5L27 8L30 8L30 5ZM22 6L22 7L23 7L23 9L24 9L24 10L25 10L25 11L23 11L23 12L25 12L25 13L23 13L23 14L25 14L25 15L24 15L24 16L25 16L25 17L20 17L20 16L21 16L21 15L22 15L22 16L23 16L23 15L22 15L22 14L21 14L21 13L20 13L20 14L19 14L19 15L20 15L20 16L18 16L18 17L17 17L17 18L18 18L18 17L20 17L20 18L21 18L21 19L22 19L22 20L23 20L23 19L24 19L24 18L25 18L25 17L26 17L26 14L28 14L28 15L27 15L27 17L28 17L28 18L30 18L30 19L31 19L31 20L32 20L32 21L29 21L29 22L28 22L28 23L27 23L27 22L26 22L26 23L25 23L25 22L24 22L24 21L28 21L28 20L29 20L29 19L27 19L27 20L26 20L26 19L25 19L25 20L24 20L24 21L21 21L21 20L20 20L20 19L18 19L18 20L17 20L17 21L19 21L19 22L18 22L18 23L20 23L20 22L22 22L22 24L21 24L21 25L20 25L20 24L17 24L17 25L18 25L18 27L16 27L16 28L15 28L15 29L18 29L18 30L17 30L17 31L18 31L18 30L19 30L19 29L18 29L18 28L19 28L19 25L20 25L20 31L19 31L19 32L16 32L16 30L13 30L13 31L12 31L12 32L10 32L10 33L11 33L11 35L12 35L12 34L13 34L13 33L15 33L15 34L16 34L16 33L18 33L18 34L21 34L21 33L22 33L22 31L23 31L23 32L25 32L25 33L23 33L23 34L22 34L22 35L21 35L21 36L20 36L20 35L19 35L19 36L18 36L18 35L17 35L17 38L18 38L18 37L22 37L22 35L23 35L23 37L24 37L24 38L26 38L26 40L25 40L25 41L24 41L24 39L22 39L22 38L20 38L20 39L19 39L19 40L17 40L17 43L18 43L18 41L20 41L20 42L21 42L21 41L22 41L22 40L23 40L23 42L26 42L26 41L27 41L27 42L28 42L28 43L29 43L29 42L28 42L28 41L27 41L27 40L29 40L29 41L30 41L30 42L31 42L31 43L32 43L32 41L31 41L31 39L29 39L29 38L28 38L28 39L27 39L27 37L28 37L28 36L29 36L29 37L31 37L31 36L30 36L30 34L32 34L32 33L33 33L33 32L34 32L34 33L35 33L35 38L37 38L37 37L38 37L38 36L40 36L40 35L38 35L38 34L39 34L39 33L40 33L40 32L39 32L39 31L40 31L40 30L39 30L39 29L40 29L40 28L41 28L41 27L40 27L40 26L39 26L39 25L40 25L40 23L39 23L39 21L40 21L40 22L41 22L41 23L43 23L43 24L41 24L41 25L42 25L42 28L43 28L43 24L44 24L44 29L45 29L45 26L46 26L46 27L47 27L47 26L46 26L46 25L48 25L48 24L47 24L47 23L46 23L46 24L44 24L44 22L43 22L43 21L40 21L40 18L41 18L41 20L43 20L43 19L42 19L42 18L43 18L43 17L42 17L42 15L43 15L43 16L44 16L44 15L43 15L43 13L41 13L41 17L40 17L40 13L38 13L38 15L39 15L39 17L38 17L38 16L37 16L37 14L35 14L35 17L38 17L38 18L39 18L39 19L37 19L37 18L34 18L34 13L33 13L33 14L32 14L32 13L30 13L30 15L31 15L31 16L29 16L29 13L26 13L26 11L27 11L27 12L28 12L28 11L27 11L27 10L25 10L25 9L24 9L24 7L23 7L23 6ZM28 6L28 7L29 7L29 6ZM37 6L37 7L38 7L38 6ZM42 6L42 7L43 7L43 6ZM48 6L48 7L49 7L49 6ZM33 7L33 8L34 8L34 7ZM0 8L0 9L2 9L2 8ZM4 8L4 9L7 9L7 8ZM41 8L41 12L44 12L44 11L42 11L42 10L43 10L43 9L42 9L42 8ZM47 8L47 12L48 12L48 10L49 10L49 9L48 9L48 8ZM38 9L38 10L39 10L39 11L36 11L36 10L34 10L34 12L35 12L35 13L37 13L37 12L39 12L39 11L40 11L40 10L39 10L39 9ZM51 9L51 10L52 10L52 9ZM53 9L53 10L54 10L54 11L52 11L52 12L51 12L51 14L52 14L52 13L53 13L53 12L54 12L54 13L55 13L55 12L56 12L56 11L55 11L55 9ZM6 11L6 12L2 12L2 14L1 14L1 16L3 16L3 17L4 17L4 18L3 18L3 20L4 20L4 19L6 19L6 20L9 20L9 18L8 18L8 19L6 19L6 18L7 18L7 17L8 17L8 16L7 16L7 15L9 15L9 16L10 16L10 15L9 15L9 14L10 14L10 13L11 13L11 14L12 14L12 16L11 16L11 17L14 17L14 16L13 16L13 14L12 14L12 13L11 13L11 12L9 12L9 14L8 14L8 12L7 12L7 11ZM6 12L6 13L7 13L7 12ZM3 13L3 14L2 14L2 15L3 15L3 14L4 14L4 15L7 15L7 14L5 14L5 13ZM47 13L47 14L49 14L49 13ZM20 14L20 15L21 15L21 14ZM32 15L32 16L31 16L31 18L33 18L33 19L34 19L34 18L33 18L33 17L32 17L32 16L33 16L33 15ZM50 15L50 16L49 16L49 18L50 18L50 17L51 17L51 15ZM5 16L5 17L7 17L7 16ZM39 17L39 18L40 18L40 17ZM22 18L22 19L23 19L23 18ZM35 19L35 20L36 20L36 19ZM48 19L48 20L49 20L49 21L51 21L51 22L52 22L52 21L51 21L51 20L49 20L49 19ZM19 20L19 21L20 21L20 20ZM38 20L38 21L37 21L37 22L35 22L35 21L34 21L34 22L35 22L35 23L34 23L34 24L33 24L33 25L34 25L34 26L33 26L33 27L32 27L32 23L33 23L33 22L31 22L31 24L30 24L30 25L29 25L29 23L30 23L30 22L29 22L29 23L28 23L28 25L27 25L27 26L28 26L28 25L29 25L29 26L30 26L30 25L31 25L31 29L32 29L32 28L33 28L33 27L34 27L34 32L35 32L35 31L36 31L36 30L35 30L35 28L36 28L36 26L37 26L37 27L39 27L39 28L40 28L40 27L39 27L39 26L38 26L38 25L39 25L39 23L37 23L37 22L38 22L38 21L39 21L39 20ZM12 21L12 22L11 22L11 24L9 24L9 25L8 25L8 26L9 26L9 25L10 25L10 27L9 27L9 28L11 28L11 29L12 29L12 28L11 28L11 26L12 26L12 27L14 27L14 26L13 26L13 24L14 24L14 21ZM12 22L12 24L13 24L13 22ZM6 23L6 24L7 24L7 23ZM23 23L23 24L22 24L22 25L23 25L23 24L24 24L24 23ZM0 24L0 27L1 27L1 28L0 28L0 30L1 30L1 29L2 29L2 31L0 31L0 32L1 32L1 34L0 34L0 35L2 35L2 33L3 33L3 28L2 28L2 27L3 27L3 26L1 26L1 24ZM34 24L34 25L37 25L37 24ZM49 24L49 25L50 25L50 24ZM6 25L6 26L7 26L7 25ZM25 25L25 27L24 27L24 26L23 26L23 28L22 28L22 27L21 27L21 29L22 29L22 30L21 30L21 31L20 31L20 32L19 32L19 33L21 33L21 31L22 31L22 30L23 30L23 29L24 29L24 28L25 28L25 27L26 27L26 25ZM5 27L5 30L8 30L8 27ZM27 27L27 30L30 30L30 27ZM49 27L49 30L52 30L52 27ZM6 28L6 29L7 29L7 28ZM28 28L28 29L29 29L29 28ZM37 28L37 29L38 29L38 28ZM46 28L46 29L47 29L47 28ZM50 28L50 29L51 29L51 28ZM25 29L25 30L26 30L26 29ZM37 30L37 32L38 32L38 30ZM14 31L14 32L15 32L15 31ZM25 31L25 32L26 32L26 33L27 33L27 32L28 32L28 31L27 31L27 32L26 32L26 31ZM29 31L29 33L28 33L28 34L27 34L27 35L26 35L26 36L25 36L25 34L24 34L24 36L25 36L25 37L27 37L27 36L28 36L28 34L29 34L29 33L32 33L32 32L33 32L33 31L31 31L31 32L30 32L30 31ZM46 31L46 32L47 32L47 31ZM12 32L12 33L13 33L13 32ZM37 33L37 34L38 34L38 33ZM5 35L5 36L4 36L4 37L6 37L6 36L7 36L7 35ZM37 35L37 36L38 36L38 35ZM44 35L44 37L45 37L45 39L43 39L43 40L41 40L41 41L40 41L40 42L43 42L43 40L44 40L44 43L43 43L43 44L44 44L44 45L45 45L45 46L44 46L44 47L46 47L46 48L47 48L47 47L46 47L46 45L47 45L47 44L46 44L46 45L45 45L45 44L44 44L44 43L46 43L46 39L47 39L47 40L49 40L49 39L47 39L47 38L48 38L48 37L47 37L47 38L46 38L46 35ZM12 38L12 39L13 39L13 41L12 41L12 42L13 42L13 41L14 41L14 39L13 39L13 38ZM55 38L55 39L57 39L57 38ZM21 39L21 40L22 40L22 39ZM1 41L1 42L2 42L2 44L1 44L1 45L3 45L3 44L4 44L4 42L2 42L2 41ZM9 41L9 42L8 42L8 43L9 43L9 42L10 42L10 41ZM48 41L48 42L49 42L49 43L50 43L50 44L51 44L51 43L52 43L52 41L51 41L51 43L50 43L50 42L49 42L49 41ZM55 41L55 42L56 42L56 41ZM5 43L5 46L3 46L3 47L5 47L5 46L7 46L7 45L6 45L6 44L7 44L7 43ZM19 43L19 44L18 44L18 45L17 45L17 46L19 46L19 47L22 47L22 46L21 46L21 45L23 45L23 46L26 46L26 47L27 47L27 46L28 46L28 44L27 44L27 43L24 43L24 44L22 44L22 43L21 43L21 44L20 44L20 43ZM36 43L36 44L37 44L37 46L38 46L38 45L39 45L39 44L37 44L37 43ZM12 44L12 46L13 46L13 44ZM19 44L19 46L20 46L20 44ZM24 44L24 45L25 45L25 44ZM26 45L26 46L27 46L27 45ZM34 45L34 47L36 47L36 48L37 48L37 47L36 47L36 46L35 46L35 45ZM1 46L1 47L2 47L2 46ZM21 48L21 49L20 49L20 50L21 50L21 49L22 49L22 48ZM44 48L44 49L45 49L45 48ZM9 49L9 50L10 50L10 49ZM27 49L27 52L30 52L30 49ZM34 49L34 50L35 50L35 51L34 51L34 52L33 52L33 53L32 53L32 54L33 54L33 53L34 53L34 54L35 54L35 53L34 53L34 52L36 52L36 49ZM49 49L49 52L52 52L52 49ZM28 50L28 51L29 51L29 50ZM42 50L42 51L43 51L43 50ZM50 50L50 51L51 51L51 50ZM10 51L10 52L9 52L9 53L10 53L10 52L11 52L11 51ZM25 51L25 52L26 52L26 51ZM31 51L31 52L32 52L32 51ZM56 51L56 53L55 53L55 52L54 52L54 54L57 54L57 51ZM43 52L43 53L44 53L44 52ZM30 53L30 54L31 54L31 53ZM49 53L49 54L51 54L51 55L52 55L52 54L51 54L51 53ZM42 54L42 55L43 55L43 54ZM9 55L9 56L10 56L10 55ZM17 56L17 57L19 57L19 56ZM56 56L56 57L57 57L57 56ZM0 0L0 7L7 7L7 0ZM1 1L1 6L6 6L6 1ZM2 2L2 5L5 5L5 2ZM50 0L50 7L57 7L57 0ZM51 1L51 6L56 6L56 1ZM52 2L52 5L55 5L55 2ZM0 50L0 57L7 57L7 50ZM1 51L1 56L6 56L6 51ZM2 52L2 55L5 55L5 52Z" fill="#000000"/></g></g></svg>
