<?xml version="1.0" encoding="UTF-8"?>
<svg xmlns="http://www.w3.org/2000/svg" version="1.1" width="300" height="300" viewBox="0 0 300 300"><rect x="0" y="0" width="300" height="300" fill="#fefefe"/><g transform="scale(4.615)"><g transform="translate(4,4)"><path fill-rule="evenodd" d="M8 0L8 2L9 2L9 0ZM10 0L10 2L12 2L12 0ZM14 0L14 3L12 3L12 4L10 4L10 3L9 3L9 4L8 4L8 10L6 10L6 11L7 11L7 12L6 12L6 13L5 13L5 16L6 16L6 17L7 17L7 18L6 18L6 19L7 19L7 18L8 18L8 21L9 21L9 23L8 23L8 24L10 24L10 26L12 26L12 25L11 25L11 23L12 23L12 22L14 22L14 24L13 24L13 25L14 25L14 24L16 24L16 25L15 25L15 26L14 26L14 28L13 28L13 30L14 30L14 29L15 29L15 28L16 28L16 27L17 27L17 26L16 26L16 25L17 25L17 23L16 23L16 22L17 22L17 20L14 20L14 19L15 19L15 18L16 18L16 19L17 19L17 18L18 18L18 17L19 17L19 18L20 18L20 21L21 21L21 22L20 22L20 23L21 23L21 22L22 22L22 26L21 26L21 28L20 28L20 24L18 24L18 25L19 25L19 27L18 27L18 28L19 28L19 30L17 30L17 31L16 31L16 30L15 30L15 31L13 31L13 32L9 32L9 33L8 33L8 31L11 31L11 29L12 29L12 27L9 27L9 25L7 25L7 24L6 24L6 23L7 23L7 22L6 22L6 21L7 21L7 20L5 20L5 17L4 17L4 16L2 16L2 17L1 17L1 16L0 16L0 19L2 19L2 20L0 20L0 23L1 23L1 24L2 24L2 26L1 26L1 30L2 30L2 32L4 32L4 31L5 31L5 33L3 33L3 34L2 34L2 33L1 33L1 32L0 32L0 33L1 33L1 34L0 34L0 35L1 35L1 36L3 36L3 37L1 37L1 38L3 38L3 37L4 37L4 39L5 39L5 38L6 38L6 39L9 39L9 40L6 40L6 41L7 41L7 42L6 42L6 43L8 43L8 44L9 44L9 46L10 46L10 47L11 47L11 46L12 46L12 48L13 48L13 50L12 50L12 49L11 49L11 48L10 48L10 49L8 49L8 50L9 50L9 51L8 51L8 52L9 52L9 53L10 53L10 54L8 54L8 57L9 57L9 55L11 55L11 53L12 53L12 51L13 51L13 52L14 52L14 54L13 54L13 55L14 55L14 56L11 56L11 57L14 57L14 56L16 56L16 57L17 57L17 55L18 55L18 57L20 57L20 56L19 56L19 55L18 55L18 53L19 53L19 52L20 52L20 53L21 53L21 54L20 54L20 55L22 55L22 57L24 57L24 56L25 56L25 55L24 55L24 54L26 54L26 55L27 55L27 56L26 56L26 57L28 57L28 55L29 55L29 57L33 57L33 55L30 55L30 54L31 54L31 53L32 53L32 54L34 54L34 57L35 57L35 55L37 55L37 54L36 54L36 53L37 53L37 51L38 51L38 53L39 53L39 55L40 55L40 54L42 54L42 55L41 55L41 56L40 56L40 57L41 57L41 56L42 56L42 57L43 57L43 54L42 54L42 53L41 53L41 51L43 51L43 52L44 52L44 57L47 57L47 56L46 56L46 55L45 55L45 53L46 53L46 52L47 52L47 53L49 53L49 54L48 54L48 55L49 55L49 56L48 56L48 57L50 57L50 55L49 55L49 54L52 54L52 55L53 55L53 56L51 56L51 57L53 57L53 56L54 56L54 55L57 55L57 54L54 54L54 55L53 55L53 53L56 53L56 52L57 52L57 49L56 49L56 47L57 47L57 42L56 42L56 41L57 41L57 40L54 40L54 38L57 38L57 37L56 37L56 36L57 36L57 34L56 34L56 31L57 31L57 28L56 28L56 27L57 27L57 24L56 24L56 23L57 23L57 12L55 12L55 13L56 13L56 15L55 15L55 14L53 14L53 12L54 12L54 11L55 11L55 10L56 10L56 11L57 11L57 10L56 10L56 9L57 9L57 8L55 8L55 9L54 9L54 10L53 10L53 8L47 8L47 5L48 5L48 0L46 0L46 1L47 1L47 2L45 2L45 4L44 4L44 2L43 2L43 3L42 3L42 1L45 1L45 0L42 0L42 1L41 1L41 0L38 0L38 2L37 2L37 1L35 1L35 0L34 0L34 3L35 3L35 4L34 4L34 8L32 8L32 9L31 9L31 5L32 5L32 2L33 2L33 1L32 1L32 2L31 2L31 0L30 0L30 1L29 1L29 2L30 2L30 3L31 3L31 4L28 4L28 3L27 3L27 2L28 2L28 0L26 0L26 2L25 2L25 4L24 4L24 1L25 1L25 0L24 0L24 1L23 1L23 0L19 0L19 3L21 3L21 2L22 2L22 3L23 3L23 5L20 5L20 7L19 7L19 5L18 5L18 1L17 1L17 0L16 0L16 2L15 2L15 0ZM22 1L22 2L23 2L23 1ZM39 1L39 2L40 2L40 4L39 4L39 5L38 5L38 3L37 3L37 2L35 2L35 3L36 3L36 4L35 4L35 9L34 9L34 10L33 10L33 9L32 9L32 12L30 12L30 11L31 11L31 9L30 9L30 11L29 11L29 12L30 12L30 13L29 13L29 15L28 15L28 14L27 14L27 15L26 15L26 13L27 13L27 12L28 12L28 11L27 11L27 10L25 10L25 9L26 9L26 5L24 5L24 6L23 6L23 7L22 7L22 6L21 6L21 7L22 7L22 8L21 8L21 9L20 9L20 8L19 8L19 7L18 7L18 5L16 5L16 6L15 6L15 7L14 7L14 5L13 5L13 4L12 4L12 5L11 5L11 7L12 7L12 11L11 11L11 13L10 13L10 11L9 11L9 10L8 10L8 13L10 13L10 15L9 15L9 14L8 14L8 15L6 15L6 16L7 16L7 17L9 17L9 18L10 18L10 19L11 19L11 22L10 22L10 23L11 23L11 22L12 22L12 21L13 21L13 20L12 20L12 19L13 19L13 18L12 18L12 19L11 19L11 17L12 17L12 16L14 16L14 15L15 15L15 17L16 17L16 18L17 18L17 17L18 17L18 15L15 15L15 14L17 14L17 11L16 11L16 10L17 10L17 9L18 9L18 10L19 10L19 11L18 11L18 12L19 12L19 13L18 13L18 14L19 14L19 15L21 15L21 14L22 14L22 16L24 16L24 18L26 18L26 16L27 16L27 19L26 19L26 20L27 20L27 22L26 22L26 23L27 23L27 22L28 22L28 20L31 20L31 21L30 21L30 23L28 23L28 24L27 24L27 25L26 25L26 26L28 26L28 24L29 24L29 25L30 25L30 26L31 26L31 25L32 25L32 28L31 28L31 29L32 29L32 30L33 30L33 29L34 29L34 31L35 31L35 33L34 33L34 32L33 32L33 33L32 33L32 31L31 31L31 32L30 32L30 34L31 34L31 33L32 33L32 34L33 34L33 33L34 33L34 34L35 34L35 33L36 33L36 35L35 35L35 37L34 37L34 35L33 35L33 37L34 37L34 38L31 38L31 40L30 40L30 36L31 36L31 37L32 37L32 36L31 36L31 35L28 35L28 34L29 34L29 32L28 32L28 31L27 31L27 33L28 33L28 34L26 34L26 33L25 33L25 31L26 31L26 30L25 30L25 29L24 29L24 27L25 27L25 25L24 25L24 27L22 27L22 28L23 28L23 29L22 29L22 30L21 30L21 29L20 29L20 34L21 34L21 37L22 37L22 38L20 38L20 39L21 39L21 41L20 41L20 40L19 40L19 38L17 38L17 37L18 37L18 36L17 36L17 35L18 35L18 34L17 34L17 33L18 33L18 32L19 32L19 31L18 31L18 32L17 32L17 33L16 33L16 31L15 31L15 33L14 33L14 32L13 32L13 33L14 33L14 34L13 34L13 35L12 35L12 34L11 34L11 33L10 33L10 36L11 36L11 35L12 35L12 36L14 36L14 34L15 34L15 35L16 35L16 36L15 36L15 37L14 37L14 38L13 38L13 37L8 37L8 36L9 36L9 34L7 34L7 33L5 33L5 34L7 34L7 35L6 35L6 36L7 36L7 37L6 37L6 38L7 38L7 37L8 37L8 38L10 38L10 39L11 39L11 40L12 40L12 41L11 41L11 43L13 43L13 44L14 44L14 42L15 42L15 40L17 40L17 41L16 41L16 43L15 43L15 45L16 45L16 47L15 47L15 46L14 46L14 48L16 48L16 47L17 47L17 49L16 49L16 52L17 52L17 53L18 53L18 52L19 52L19 49L18 49L18 47L19 47L19 48L20 48L20 50L22 50L22 48L23 48L23 49L24 49L24 51L23 51L23 52L24 52L24 51L25 51L25 53L26 53L26 54L27 54L27 55L28 55L28 53L26 53L26 51L25 51L25 49L26 49L26 48L28 48L28 46L29 46L29 47L30 47L30 48L31 48L31 50L32 50L32 48L33 48L33 49L34 49L34 50L33 50L33 51L34 51L34 52L33 52L33 53L34 53L34 54L35 54L35 53L36 53L36 52L35 52L35 51L37 51L37 49L36 49L36 48L37 48L37 47L38 47L38 51L39 51L39 49L40 49L40 51L41 51L41 49L42 49L42 50L43 50L43 51L44 51L44 50L43 50L43 49L44 49L44 47L43 47L43 46L44 46L44 44L45 44L45 43L46 43L46 42L47 42L47 44L46 44L46 47L45 47L45 48L46 48L46 50L47 50L47 46L49 46L49 48L50 48L50 45L49 45L49 44L50 44L50 42L49 42L49 41L51 41L51 40L52 40L52 44L51 44L51 45L52 45L52 46L53 46L53 47L54 47L54 50L53 50L53 51L54 51L54 52L56 52L56 49L55 49L55 47L56 47L56 45L55 45L55 44L56 44L56 42L55 42L55 41L54 41L54 42L55 42L55 43L54 43L54 44L53 44L53 40L52 40L52 39L53 39L53 38L54 38L54 36L56 36L56 34L55 34L55 33L53 33L53 32L52 32L52 31L49 31L49 32L50 32L50 33L49 33L49 36L48 36L48 35L47 35L47 36L46 36L46 34L48 34L48 33L46 33L46 32L47 32L47 29L48 29L48 27L47 27L47 28L46 28L46 29L44 29L44 28L42 28L42 31L40 31L40 30L41 30L41 29L40 29L40 28L41 28L41 27L40 27L40 26L41 26L41 25L40 25L40 26L39 26L39 23L41 23L41 24L42 24L42 27L43 27L43 26L44 26L44 27L46 27L46 26L49 26L49 25L50 25L50 26L53 26L53 25L52 25L52 24L53 24L53 22L54 22L54 26L55 26L55 25L56 25L56 24L55 24L55 23L56 23L56 21L55 21L55 20L56 20L56 18L55 18L55 19L54 19L54 16L55 16L55 17L56 17L56 16L55 16L55 15L54 15L54 16L53 16L53 14L52 14L52 13L50 13L50 11L51 11L51 12L52 12L52 11L51 11L51 10L52 10L52 9L48 9L48 10L47 10L47 8L46 8L46 6L45 6L45 5L44 5L44 4L43 4L43 5L42 5L42 3L41 3L41 2L40 2L40 1ZM16 2L16 4L17 4L17 2ZM14 3L14 4L15 4L15 3ZM26 3L26 4L27 4L27 3ZM46 3L46 5L47 5L47 3ZM9 4L9 7L10 7L10 4ZM27 5L27 8L30 8L30 5ZM37 5L37 6L36 6L36 10L34 10L34 11L33 11L33 12L32 12L32 14L31 14L31 15L32 15L32 17L31 17L31 16L30 16L30 15L29 15L29 16L30 16L30 17L28 17L28 18L30 18L30 17L31 17L31 20L32 20L32 21L33 21L33 22L31 22L31 23L32 23L32 25L33 25L33 26L34 26L34 24L36 24L36 26L37 26L37 28L36 28L36 27L34 27L34 29L35 29L35 28L36 28L36 30L37 30L37 31L36 31L36 33L37 33L37 34L38 34L38 35L36 35L36 37L35 37L35 38L34 38L34 41L33 41L33 40L32 40L32 43L31 43L31 41L30 41L30 40L29 40L29 42L28 42L28 44L27 44L27 40L25 40L25 41L26 41L26 42L24 42L24 40L22 40L22 41L21 41L21 42L22 42L22 41L23 41L23 43L22 43L22 44L23 44L23 47L24 47L24 48L26 48L26 46L28 46L28 44L29 44L29 46L30 46L30 47L31 47L31 48L32 48L32 45L33 45L33 48L34 48L34 45L33 45L33 44L35 44L35 43L36 43L36 41L37 41L37 42L38 42L38 41L39 41L39 42L40 42L40 43L37 43L37 44L36 44L36 45L37 45L37 46L36 46L36 47L37 47L37 46L38 46L38 45L37 45L37 44L40 44L40 45L39 45L39 47L40 47L40 49L41 49L41 47L42 47L42 45L43 45L43 44L44 44L44 43L45 43L45 42L46 42L46 41L48 41L48 40L51 40L51 39L52 39L52 37L53 37L53 36L54 36L54 34L53 34L53 36L51 36L51 33L50 33L50 37L48 37L48 36L47 36L47 37L48 37L48 40L47 40L47 38L46 38L46 37L45 37L45 34L46 34L46 33L45 33L45 32L46 32L46 30L45 30L45 31L44 31L44 29L43 29L43 31L42 31L42 33L41 33L41 32L40 32L40 31L38 31L38 30L37 30L37 28L38 28L38 29L39 29L39 26L38 26L38 25L37 25L37 24L36 24L36 23L37 23L37 22L38 22L38 23L39 23L39 22L38 22L38 20L39 20L39 19L40 19L40 22L41 22L41 23L42 23L42 24L43 24L43 22L44 22L44 23L45 23L45 24L44 24L44 26L46 26L46 25L47 25L47 24L49 24L49 23L50 23L50 22L48 22L48 23L46 23L46 20L48 20L48 19L49 19L49 20L51 20L51 19L50 19L50 17L51 17L51 18L53 18L53 16L52 16L52 14L51 14L51 16L50 16L50 13L49 13L49 14L48 14L48 12L47 12L47 11L46 11L46 8L44 8L44 9L43 9L43 8L42 8L42 7L43 7L43 6L44 6L44 7L45 7L45 6L44 6L44 5L43 5L43 6L42 6L42 5L41 5L41 6L40 6L40 7L39 7L39 6L38 6L38 5ZM12 6L12 7L13 7L13 6ZM16 6L16 7L17 7L17 8L18 8L18 9L19 9L19 10L20 10L20 9L19 9L19 8L18 8L18 7L17 7L17 6ZM24 6L24 7L25 7L25 6ZM28 6L28 7L29 7L29 6ZM32 6L32 7L33 7L33 6ZM37 6L37 8L38 8L38 10L39 10L39 11L40 11L40 10L41 10L41 12L42 12L42 15L41 15L41 17L42 17L42 18L43 18L43 17L44 17L44 19L42 19L42 20L43 20L43 21L42 21L42 22L43 22L43 21L44 21L44 22L45 22L45 21L44 21L44 19L45 19L45 20L46 20L46 19L47 19L47 17L46 17L46 16L45 16L45 14L44 14L44 12L45 12L45 13L46 13L46 15L48 15L48 14L47 14L47 13L46 13L46 11L45 11L45 10L43 10L43 9L42 9L42 10L41 10L41 9L40 9L40 8L41 8L41 7L42 7L42 6L41 6L41 7L40 7L40 8L38 8L38 6ZM48 6L48 7L49 7L49 6ZM0 8L0 15L3 15L3 14L4 14L4 13L3 13L3 14L2 14L2 13L1 13L1 11L3 11L3 12L5 12L5 11L4 11L4 9L3 9L3 8ZM5 8L5 9L7 9L7 8ZM9 8L9 9L11 9L11 8ZM14 8L14 9L15 9L15 10L16 10L16 9L15 9L15 8ZM22 8L22 9L23 9L23 11L22 11L22 12L24 12L24 13L23 13L23 14L24 14L24 16L26 16L26 15L25 15L25 14L24 14L24 13L26 13L26 11L24 11L24 8ZM2 9L2 10L3 10L3 9ZM28 9L28 10L29 10L29 9ZM39 9L39 10L40 10L40 9ZM42 10L42 12L44 12L44 11L43 11L43 10ZM48 10L48 11L49 11L49 10ZM12 11L12 12L13 12L13 11ZM14 11L14 12L15 12L15 11ZM20 11L20 13L19 13L19 14L20 14L20 13L21 13L21 11ZM34 11L34 12L35 12L35 13L34 13L34 15L33 15L33 14L32 14L32 15L33 15L33 17L34 17L34 18L36 18L36 19L37 19L37 20L38 20L38 19L37 19L37 18L36 18L36 14L37 14L37 13L38 13L38 15L37 15L37 16L38 16L38 18L40 18L40 19L41 19L41 18L40 18L40 14L41 14L41 13L40 13L40 14L39 14L39 12L37 12L37 13L36 13L36 11ZM6 13L6 14L7 14L7 13ZM11 13L11 15L10 15L10 16L9 16L9 15L8 15L8 16L9 16L9 17L11 17L11 16L12 16L12 15L13 15L13 14L12 14L12 13ZM43 14L43 16L44 16L44 17L45 17L45 16L44 16L44 14ZM34 15L34 17L35 17L35 15ZM20 16L20 18L21 18L21 16ZM51 16L51 17L52 17L52 16ZM3 17L3 18L2 18L2 19L3 19L3 18L4 18L4 17ZM48 17L48 18L49 18L49 17ZM18 19L18 23L19 23L19 19ZM22 19L22 20L23 20L23 19ZM24 19L24 20L25 20L25 19ZM27 19L27 20L28 20L28 19ZM53 19L53 20L52 20L52 22L51 22L51 24L50 24L50 25L51 25L51 24L52 24L52 22L53 22L53 21L54 21L54 22L55 22L55 21L54 21L54 19ZM33 20L33 21L34 21L34 22L33 22L33 24L34 24L34 22L35 22L35 23L36 23L36 22L37 22L37 21L36 21L36 20L35 20L35 21L34 21L34 20ZM2 21L2 22L1 22L1 23L2 23L2 22L3 22L3 24L5 24L5 23L4 23L4 22L3 22L3 21ZM14 21L14 22L15 22L15 21ZM35 21L35 22L36 22L36 21ZM24 22L24 23L25 23L25 22ZM45 24L45 25L46 25L46 24ZM4 25L4 26L3 26L3 27L2 27L2 29L3 29L3 30L4 30L4 28L3 28L3 27L4 27L4 26L5 26L5 25ZM6 25L6 26L7 26L7 25ZM5 27L5 30L8 30L8 27ZM27 27L27 30L30 30L30 27ZM49 27L49 30L52 30L52 27ZM54 27L54 28L53 28L53 29L54 29L54 30L53 30L53 31L54 31L54 32L55 32L55 31L56 31L56 30L55 30L55 27ZM6 28L6 29L7 29L7 28ZM9 28L9 29L10 29L10 28ZM28 28L28 29L29 29L29 28ZM32 28L32 29L33 29L33 28ZM50 28L50 29L51 29L51 28ZM23 29L23 30L22 30L22 33L23 33L23 34L22 34L22 37L23 37L23 35L25 35L25 36L24 36L24 37L25 37L25 36L26 36L26 35L25 35L25 34L24 34L24 32L23 32L23 31L24 31L24 29ZM54 30L54 31L55 31L55 30ZM6 31L6 32L7 32L7 31ZM37 31L37 32L38 32L38 31ZM39 32L39 33L38 33L38 34L39 34L39 35L38 35L38 36L37 36L37 37L36 37L36 38L35 38L35 41L34 41L34 42L35 42L35 41L36 41L36 38L37 38L37 41L38 41L38 38L39 38L39 41L40 41L40 40L42 40L42 39L43 39L43 41L42 41L42 42L43 42L43 43L40 43L40 44L41 44L41 45L40 45L40 47L41 47L41 45L42 45L42 44L43 44L43 43L44 43L44 42L45 42L45 41L46 41L46 39L45 39L45 41L44 41L44 39L43 39L43 38L44 38L44 35L43 35L43 33L42 33L42 34L40 34L40 32ZM15 33L15 34L16 34L16 33ZM1 34L1 35L2 35L2 34ZM3 34L3 35L4 35L4 34ZM27 35L27 36L28 36L28 37L29 37L29 36L28 36L28 35ZM40 35L40 36L39 36L39 38L40 38L40 39L41 39L41 35ZM42 35L42 37L43 37L43 35ZM4 36L4 37L5 37L5 36ZM16 36L16 37L17 37L17 36ZM26 37L26 38L24 38L24 39L26 39L26 38L27 38L27 37ZM37 37L37 38L38 38L38 37ZM11 38L11 39L12 39L12 38ZM16 38L16 39L17 39L17 40L18 40L18 41L17 41L17 43L16 43L16 44L17 44L17 47L18 47L18 45L19 45L19 47L20 47L20 48L22 48L22 46L20 46L20 45L21 45L21 43L20 43L20 41L19 41L19 40L18 40L18 39L17 39L17 38ZM28 38L28 39L29 39L29 38ZM0 39L0 42L1 42L1 45L2 45L2 47L1 47L1 46L0 46L0 48L5 48L5 47L8 47L8 48L9 48L9 47L8 47L8 46L6 46L6 45L7 45L7 44L6 44L6 45L5 45L5 44L4 44L4 43L3 43L3 42L5 42L5 41L3 41L3 40L2 40L2 41L3 41L3 42L1 42L1 39ZM13 39L13 40L15 40L15 39ZM9 40L9 41L10 41L10 40ZM12 41L12 42L14 42L14 41ZM9 42L9 43L10 43L10 42ZM29 42L29 43L30 43L30 46L31 46L31 43L30 43L30 42ZM48 42L48 44L47 44L47 45L48 45L48 44L49 44L49 42ZM18 43L18 44L20 44L20 43ZM3 44L3 45L4 45L4 46L3 46L3 47L5 47L5 45L4 45L4 44ZM10 44L10 45L12 45L12 44ZM24 45L24 47L25 47L25 46L26 46L26 45ZM53 45L53 46L54 46L54 47L55 47L55 46L54 46L54 45ZM6 48L6 49L7 49L7 48ZM10 49L10 52L11 52L11 49ZM14 49L14 50L13 50L13 51L14 51L14 50L15 50L15 49ZM17 49L17 51L18 51L18 49ZM27 49L27 52L30 52L30 49ZM49 49L49 52L52 52L52 49ZM28 50L28 51L29 51L29 50ZM34 50L34 51L35 51L35 50ZM50 50L50 51L51 51L51 50ZM31 51L31 52L32 52L32 51ZM47 51L47 52L48 52L48 51ZM21 52L21 53L22 53L22 55L23 55L23 53L22 53L22 52ZM39 52L39 53L40 53L40 52ZM16 54L16 55L17 55L17 54ZM36 56L36 57L37 57L37 56ZM56 56L56 57L57 57L57 56ZM0 0L0 7L7 7L7 0ZM1 1L1 6L6 6L6 1ZM2 2L2 5L5 5L5 2ZM50 0L50 7L57 7L57 0ZM51 1L51 6L56 6L56 1ZM52 2L52 5L55 5L55 2ZM0 50L0 57L7 57L7 50ZM1 51L1 56L6 56L6 51ZM2 52L2 55L5 55L5 52Z" fill="#000000"/></g></g></svg>
