<?xml version="1.0" encoding="UTF-8"?>
<svg xmlns="http://www.w3.org/2000/svg" version="1.1" width="300" height="300" viewBox="0 0 300 300"><rect x="0" y="0" width="300" height="300" fill="#fefefe"/><g transform="scale(4.615)"><g transform="translate(4,4)"><path fill-rule="evenodd" d="M8 0L8 1L9 1L9 2L8 2L8 5L9 5L9 6L8 6L8 7L9 7L9 8L8 8L8 9L9 9L9 10L10 10L10 11L8 11L8 12L9 12L9 15L8 15L8 13L7 13L7 12L6 12L6 13L4 13L4 12L3 12L3 9L4 9L4 10L5 10L5 11L7 11L7 10L6 10L6 9L7 9L7 8L6 8L6 9L4 9L4 8L0 8L0 9L1 9L1 10L2 10L2 12L1 12L1 13L0 13L0 16L1 16L1 17L0 17L0 20L1 20L1 19L2 19L2 20L5 20L5 15L8 15L8 16L6 16L6 17L7 17L7 18L6 18L6 19L9 19L9 18L8 18L8 17L9 17L9 16L10 16L10 19L11 19L11 21L9 21L9 20L8 20L8 22L6 22L6 21L7 21L7 20L6 20L6 21L3 21L3 22L2 22L2 23L0 23L0 24L1 24L1 25L0 25L0 28L1 28L1 25L2 25L2 27L3 27L3 28L4 28L4 29L0 29L0 31L1 31L1 30L4 30L4 33L5 33L5 34L3 34L3 36L2 36L2 35L1 35L1 37L0 37L0 39L1 39L1 41L0 41L0 43L1 43L1 44L0 44L0 48L5 48L5 47L7 47L7 48L6 48L6 49L7 49L7 48L8 48L8 47L9 47L9 48L10 48L10 49L8 49L8 50L9 50L9 53L8 53L8 57L9 57L9 54L11 54L11 55L12 55L12 56L10 56L10 57L12 57L12 56L14 56L14 55L12 55L12 54L13 54L13 53L12 53L12 54L11 54L11 53L10 53L10 51L11 51L11 49L12 49L12 50L14 50L14 51L16 51L16 52L17 52L17 51L18 51L18 49L19 49L19 51L20 51L20 52L19 52L19 55L20 55L20 56L21 56L21 57L24 57L24 56L25 56L25 55L24 55L24 56L23 56L23 54L27 54L27 53L29 53L29 54L31 54L31 55L30 55L30 56L31 56L31 57L32 57L32 55L33 55L33 54L36 54L36 55L34 55L34 56L33 56L33 57L36 57L36 55L38 55L38 57L41 57L41 56L40 56L40 55L41 55L41 54L42 54L42 57L43 57L43 56L45 56L45 55L44 55L44 54L47 54L47 55L46 55L46 56L47 56L47 55L49 55L49 56L48 56L48 57L51 57L51 54L52 54L52 53L53 53L53 55L55 55L55 54L56 54L56 53L57 53L57 51L56 51L56 53L55 53L55 54L54 54L54 52L55 52L55 50L53 50L53 49L54 49L54 48L53 48L53 47L52 47L52 48L51 48L51 46L52 46L52 43L53 43L53 42L54 42L54 43L56 43L56 41L57 41L57 40L56 40L56 41L55 41L55 42L54 42L54 41L53 41L53 40L55 40L55 39L49 39L49 38L52 38L52 36L53 36L53 37L55 37L55 38L56 38L56 39L57 39L57 38L56 38L56 37L57 37L57 34L56 34L56 33L57 33L57 31L56 31L56 30L57 30L57 29L56 29L56 30L54 30L54 29L55 29L55 27L53 27L53 26L52 26L52 25L51 25L51 24L50 24L50 25L49 25L49 23L48 23L48 25L49 25L49 26L48 26L48 32L49 32L49 33L50 33L50 34L49 34L49 35L48 35L48 34L47 34L47 35L46 35L46 34L44 34L44 30L43 30L43 31L41 31L41 30L42 30L42 29L43 29L43 28L44 28L44 29L45 29L45 27L44 27L44 26L46 26L46 30L45 30L45 31L47 31L47 26L46 26L46 25L44 25L44 23L47 23L47 22L49 22L49 20L50 20L50 21L51 21L51 22L52 22L52 23L53 23L53 25L56 25L56 24L54 24L54 23L53 23L53 22L54 22L54 21L56 21L56 22L55 22L55 23L57 23L57 21L56 21L56 20L54 20L54 21L53 21L53 20L50 20L50 18L49 18L49 19L47 19L47 18L48 18L48 17L49 17L49 16L50 16L50 17L51 17L51 18L52 18L52 19L56 19L56 17L57 17L57 15L53 15L53 17L52 17L52 16L50 16L50 15L51 15L51 13L52 13L52 14L53 14L53 13L54 13L54 10L53 10L53 9L55 9L55 8L52 8L52 10L53 10L53 13L52 13L52 12L51 12L51 10L50 10L50 8L49 8L49 6L48 6L48 7L47 7L47 5L48 5L48 0L46 0L46 1L47 1L47 2L46 2L46 3L47 3L47 5L45 5L45 4L44 4L44 3L45 3L45 1L44 1L44 2L41 2L41 1L43 1L43 0L41 0L41 1L40 1L40 0L39 0L39 1L40 1L40 2L41 2L41 3L43 3L43 5L45 5L45 6L44 6L44 8L45 8L45 9L44 9L44 10L43 10L43 9L41 9L41 8L38 8L38 7L39 7L39 6L38 6L38 5L40 5L40 7L41 7L41 6L42 6L42 7L43 7L43 6L42 6L42 5L41 5L41 4L39 4L39 2L37 2L37 1L38 1L38 0L37 0L37 1L36 1L36 0L35 0L35 1L34 1L34 2L35 2L35 3L33 3L33 2L31 2L31 0L29 0L29 2L28 2L28 0L27 0L27 2L28 2L28 3L29 3L29 2L30 2L30 3L31 3L31 4L26 4L26 2L24 2L24 3L23 3L23 4L21 4L21 5L20 5L20 4L19 4L19 3L20 3L20 2L21 2L21 3L22 3L22 2L21 2L21 1L22 1L22 0L21 0L21 1L19 1L19 2L16 2L16 3L17 3L17 4L19 4L19 5L15 5L15 4L14 4L14 3L12 3L12 2L10 2L10 1L11 1L11 0ZM12 0L12 1L14 1L14 0ZM17 0L17 1L18 1L18 0ZM23 0L23 1L26 1L26 0ZM35 1L35 2L36 2L36 1ZM9 3L9 5L10 5L10 3ZM32 3L32 4L31 4L31 5L32 5L32 6L31 6L31 9L32 9L32 10L31 10L31 11L33 11L33 10L34 10L34 11L35 11L35 12L34 12L34 14L33 14L33 12L32 12L32 13L31 13L31 12L30 12L30 11L28 11L28 10L29 10L29 9L28 9L28 10L26 10L26 11L25 11L25 10L23 10L23 11L21 11L21 8L22 8L22 6L23 6L23 7L24 7L24 8L25 8L25 9L26 9L26 6L25 6L25 5L26 5L26 4L24 4L24 6L23 6L23 5L21 5L21 7L20 7L20 6L19 6L19 7L18 7L18 6L17 6L17 7L16 7L16 6L15 6L15 5L14 5L14 4L13 4L13 5L12 5L12 4L11 4L11 5L12 5L12 6L11 6L11 7L10 7L10 6L9 6L9 7L10 7L10 9L12 9L12 10L11 10L11 11L10 11L10 12L12 12L12 16L11 16L11 18L13 18L13 19L12 19L12 20L13 20L13 19L15 19L15 20L14 20L14 22L13 22L13 21L11 21L11 22L10 22L10 24L9 24L9 23L6 23L6 24L5 24L5 23L4 23L4 24L5 24L5 26L8 26L8 24L9 24L9 26L10 26L10 25L11 25L11 24L12 24L12 23L11 23L11 22L13 22L13 23L14 23L14 24L13 24L13 25L12 25L12 26L14 26L14 25L15 25L15 23L16 23L16 27L15 27L15 28L14 28L14 27L12 27L12 28L10 28L10 29L9 29L9 30L10 30L10 31L11 31L11 30L12 30L12 28L14 28L14 29L13 29L13 30L14 30L14 31L15 31L15 32L16 32L16 34L17 34L17 35L18 35L18 36L19 36L19 37L20 37L20 38L21 38L21 40L22 40L22 41L20 41L20 40L17 40L17 39L16 39L16 40L14 40L14 39L15 39L15 38L18 38L18 39L19 39L19 38L18 38L18 37L17 37L17 36L15 36L15 38L14 38L14 37L13 37L13 38L14 38L14 39L13 39L13 42L12 42L12 38L11 38L11 37L9 37L9 35L10 35L10 36L11 36L11 35L12 35L12 36L13 36L13 35L12 35L12 33L13 33L13 34L15 34L15 33L13 33L13 32L11 32L11 33L10 33L10 32L9 32L9 31L5 31L5 32L8 32L8 33L6 33L6 34L5 34L5 35L4 35L4 36L3 36L3 37L4 37L4 36L5 36L5 35L6 35L6 36L7 36L7 35L6 35L6 34L8 34L8 40L9 40L9 41L6 41L6 42L7 42L7 43L6 43L6 44L5 44L5 43L4 43L4 42L5 42L5 39L6 39L6 40L7 40L7 39L6 39L6 38L7 38L7 37L6 37L6 38L4 38L4 39L2 39L2 41L3 41L3 44L1 44L1 47L2 47L2 45L5 45L5 46L3 46L3 47L5 47L5 46L7 46L7 47L8 47L8 46L7 46L7 45L9 45L9 44L10 44L10 45L12 45L12 44L13 44L13 46L11 46L11 47L12 47L12 48L14 48L14 49L16 49L16 51L17 51L17 48L20 48L20 49L21 49L21 51L22 51L22 49L23 49L23 52L22 52L22 53L23 53L23 52L24 52L24 53L25 53L25 52L26 52L26 51L24 51L24 50L26 50L26 49L25 49L25 48L28 48L28 46L29 46L29 48L32 48L32 49L31 49L31 53L32 53L32 51L33 51L33 52L35 52L35 53L36 53L36 54L37 54L37 51L36 51L36 52L35 52L35 49L34 49L34 50L32 50L32 49L33 49L33 48L32 48L32 46L33 46L33 47L34 47L34 48L37 48L37 49L36 49L36 50L37 50L37 49L38 49L38 48L39 48L39 49L40 49L40 50L39 50L39 51L38 51L38 52L40 52L40 54L41 54L41 52L42 52L42 54L43 54L43 52L42 52L42 51L43 51L43 47L39 47L39 45L38 45L38 44L40 44L40 43L42 43L42 45L43 45L43 46L45 46L45 47L44 47L44 50L45 50L45 52L46 52L46 53L47 53L47 52L48 52L48 48L46 48L46 46L47 46L47 47L49 47L49 46L51 46L51 45L50 45L50 44L51 44L51 42L50 42L50 41L52 41L52 40L50 40L50 41L47 41L47 42L50 42L50 43L49 43L49 44L48 44L48 43L47 43L47 44L44 44L44 43L45 43L45 41L46 41L46 38L49 38L49 37L50 37L50 36L49 36L49 37L48 37L48 36L44 36L44 37L42 37L42 38L44 38L44 39L45 39L45 41L44 41L44 40L41 40L41 39L39 39L39 38L37 38L37 37L39 37L39 36L40 36L40 37L41 37L41 36L43 36L43 35L42 35L42 34L41 34L41 35L37 35L37 37L35 37L35 36L36 36L36 35L34 35L34 34L35 34L35 33L33 33L33 29L32 29L32 30L31 30L31 33L33 33L33 35L34 35L34 36L32 36L32 34L30 34L30 35L29 35L29 33L30 33L30 31L28 31L28 33L27 33L27 31L25 31L25 32L26 32L26 33L25 33L25 34L24 34L24 35L22 35L22 34L23 34L23 33L24 33L24 31L23 31L23 30L21 30L21 29L23 29L23 28L24 28L24 27L25 27L25 25L28 25L28 26L31 26L31 23L32 23L32 22L33 22L33 24L32 24L32 25L33 25L33 24L35 24L35 23L36 23L36 24L37 24L37 23L38 23L38 22L39 22L39 20L40 20L40 19L39 19L39 18L41 18L41 21L44 21L44 22L45 22L45 19L46 19L46 20L47 20L47 21L46 21L46 22L47 22L47 21L48 21L48 20L47 20L47 19L46 19L46 18L45 18L45 17L46 17L46 15L47 15L47 14L48 14L48 16L49 16L49 12L48 12L48 11L50 11L50 10L48 10L48 11L45 11L45 10L47 10L47 9L49 9L49 8L47 8L47 7L46 7L46 6L45 6L45 8L46 8L46 9L45 9L45 10L44 10L44 13L43 13L43 12L42 12L42 11L43 11L43 10L41 10L41 9L40 9L40 10L39 10L39 9L38 9L38 11L37 11L37 8L36 8L36 9L34 9L34 6L35 6L35 7L36 7L36 6L37 6L37 7L38 7L38 6L37 6L37 5L36 5L36 4L34 4L34 5L33 5L33 3ZM27 5L27 8L30 8L30 5ZM12 6L12 7L11 7L11 8L12 8L12 9L13 9L13 10L12 10L12 11L13 11L13 13L14 13L14 14L13 14L13 16L12 16L12 17L13 17L13 16L14 16L14 18L17 18L17 17L16 17L16 15L17 15L17 14L16 14L16 15L15 15L15 12L16 12L16 13L17 13L17 12L18 12L18 13L19 13L19 15L18 15L18 16L19 16L19 15L20 15L20 16L21 16L21 13L20 13L20 11L19 11L19 12L18 12L18 10L17 10L17 12L16 12L16 10L15 10L15 11L14 11L14 9L13 9L13 8L14 8L14 7L15 7L15 6L14 6L14 7L13 7L13 6ZM24 6L24 7L25 7L25 6ZM28 6L28 7L29 7L29 6ZM32 6L32 8L33 8L33 6ZM12 7L12 8L13 8L13 7ZM19 7L19 10L20 10L20 7ZM15 8L15 9L16 9L16 8ZM17 8L17 9L18 9L18 8ZM56 8L56 9L57 9L57 8ZM35 10L35 11L36 11L36 10ZM40 10L40 11L41 11L41 10ZM55 10L55 13L57 13L57 12L56 12L56 11L57 11L57 10ZM24 11L24 13L25 13L25 11ZM38 11L38 12L35 12L35 13L37 13L37 14L35 14L35 15L33 15L33 14L32 14L32 15L33 15L33 16L31 16L31 14L30 14L30 13L28 13L28 12L26 12L26 15L25 15L25 14L23 14L23 15L24 15L24 16L23 16L23 18L24 18L24 19L25 19L25 20L27 20L27 21L25 21L25 22L24 22L24 21L23 21L23 20L21 20L21 22L19 22L19 21L18 21L18 19L16 19L16 23L18 23L18 24L17 24L17 25L20 25L20 26L21 26L21 24L20 24L20 23L21 23L21 22L22 22L22 24L23 24L23 25L22 25L22 27L24 27L24 26L23 26L23 25L25 25L25 22L27 22L27 23L26 23L26 24L27 24L27 23L28 23L28 21L29 21L29 22L30 22L30 23L31 23L31 21L29 21L29 20L32 20L32 18L31 18L31 19L30 19L30 17L29 17L29 16L31 16L31 17L33 17L33 18L35 18L35 17L34 17L34 16L35 16L35 15L39 15L39 17L40 17L40 16L41 16L41 15L40 15L40 14L41 14L41 13L40 13L40 14L39 14L39 11ZM2 12L2 13L3 13L3 14L2 14L2 15L1 15L1 16L2 16L2 17L3 17L3 18L4 18L4 15L5 15L5 14L4 14L4 13L3 13L3 12ZM22 12L22 13L23 13L23 12ZM50 12L50 13L51 13L51 12ZM6 13L6 14L7 14L7 13ZM44 13L44 14L46 14L46 13ZM3 14L3 15L2 15L2 16L3 16L3 15L4 15L4 14ZM10 14L10 15L11 15L11 14ZM42 14L42 17L41 17L41 18L42 18L42 19L43 19L43 18L42 18L42 17L45 17L45 16L44 16L44 15L43 15L43 14ZM14 15L14 16L15 16L15 15ZM26 15L26 16L25 16L25 17L24 17L24 18L25 18L25 19L27 19L27 20L28 20L28 18L29 18L29 17L27 17L27 15ZM28 15L28 16L29 16L29 15ZM21 17L21 18L20 18L20 19L21 19L21 18L22 18L22 17ZM26 17L26 18L27 18L27 17ZM36 17L36 18L37 18L37 17ZM53 17L53 18L54 18L54 17ZM44 18L44 19L45 19L45 18ZM34 19L34 20L33 20L33 21L35 21L35 22L38 22L38 21L36 21L36 20L38 20L38 19L36 19L36 20L35 20L35 19ZM0 21L0 22L1 22L1 21ZM17 21L17 22L18 22L18 21ZM22 21L22 22L23 22L23 21ZM14 22L14 23L15 23L15 22ZM41 22L41 23L40 23L40 24L38 24L38 25L40 25L40 26L41 26L41 23L42 23L42 24L43 24L43 22ZM2 24L2 25L3 25L3 24ZM6 24L6 25L7 25L7 24ZM29 24L29 25L30 25L30 24ZM34 25L34 27L35 27L35 28L34 28L34 29L36 29L36 30L35 30L35 31L34 31L34 32L35 32L35 31L37 31L37 32L36 32L36 33L37 33L37 32L38 32L38 34L39 34L39 31L40 31L40 32L41 32L41 31L40 31L40 30L39 30L39 29L38 29L38 30L37 30L37 27L35 27L35 25ZM42 25L42 26L44 26L44 25ZM17 26L17 27L19 27L19 28L18 28L18 29L19 29L19 28L20 28L20 29L21 29L21 28L20 28L20 27L19 27L19 26ZM38 26L38 27L39 27L39 26ZM5 27L5 30L8 30L8 27ZM27 27L27 30L30 30L30 27ZM31 27L31 28L33 28L33 27ZM40 27L40 29L41 29L41 27ZM42 27L42 28L43 28L43 27ZM49 27L49 30L52 30L52 27ZM56 27L56 28L57 28L57 27ZM6 28L6 29L7 29L7 28ZM15 28L15 29L14 29L14 30L15 30L15 31L16 31L16 32L17 32L17 33L18 33L18 32L19 32L19 34L20 34L20 32L19 32L19 31L17 31L17 28ZM25 28L25 29L24 29L24 30L26 30L26 28ZM28 28L28 29L29 29L29 28ZM50 28L50 29L51 29L51 28ZM53 28L53 29L54 29L54 28ZM15 29L15 30L16 30L16 29ZM20 30L20 31L21 31L21 30ZM38 30L38 31L39 31L39 30ZM53 30L53 31L52 31L52 34L54 34L54 33L55 33L55 31L54 31L54 30ZM22 31L22 32L21 32L21 34L22 34L22 33L23 33L23 31ZM49 31L49 32L51 32L51 31ZM0 32L0 34L1 34L1 33L2 33L2 32ZM42 32L42 33L43 33L43 32ZM45 32L45 33L46 33L46 32ZM53 32L53 33L54 33L54 32ZM8 33L8 34L10 34L10 35L11 35L11 34L10 34L10 33ZM26 33L26 34L25 34L25 35L26 35L26 34L27 34L27 36L29 36L29 38L27 38L27 39L26 39L26 41L25 41L25 39L24 39L24 37L25 37L25 36L23 36L23 37L22 37L22 38L23 38L23 39L22 39L22 40L23 40L23 39L24 39L24 41L25 41L25 42L23 42L23 41L22 41L22 44L21 44L21 42L19 42L19 41L15 41L15 42L16 42L16 43L13 43L13 44L15 44L15 45L16 45L16 44L17 44L17 42L18 42L18 43L19 43L19 45L17 45L17 46L16 46L16 47L17 47L17 46L18 46L18 47L20 47L20 44L21 44L21 46L22 46L22 47L21 47L21 48L23 48L23 49L24 49L24 48L25 48L25 47L24 47L24 46L25 46L25 45L26 45L26 46L27 46L27 45L26 45L26 43L25 43L25 42L29 42L29 43L27 43L27 44L28 44L28 45L29 45L29 46L32 46L32 42L33 42L33 45L34 45L34 44L35 44L35 45L36 45L36 46L37 46L37 47L38 47L38 45L36 45L36 44L35 44L35 43L34 43L34 42L36 42L36 41L34 41L34 40L35 40L35 39L36 39L36 38L34 38L34 37L33 37L33 38L32 38L32 36L29 36L29 35L28 35L28 34L27 34L27 33ZM21 35L21 36L22 36L22 35ZM51 35L51 36L52 36L52 35ZM54 35L54 36L55 36L55 37L56 37L56 36L55 36L55 35ZM1 37L1 38L2 38L2 37ZM45 37L45 38L46 38L46 37ZM9 38L9 40L10 40L10 39L11 39L11 38ZM30 38L30 39L28 39L28 41L29 41L29 42L30 42L30 41L31 41L31 40L33 40L33 39L32 39L32 38ZM38 39L38 40L37 40L37 41L39 41L39 42L37 42L37 44L38 44L38 43L39 43L39 42L40 42L40 40L39 40L39 39ZM47 39L47 40L49 40L49 39ZM9 41L9 43L11 43L11 44L12 44L12 43L11 43L11 41ZM41 41L41 42L42 42L42 43L44 43L44 42L42 42L42 41ZM23 43L23 44L22 44L22 46L23 46L23 45L25 45L25 43ZM29 43L29 45L30 45L30 44L31 44L31 43ZM6 44L6 45L7 45L7 44ZM53 44L53 46L54 46L54 47L57 47L57 45L56 45L56 44ZM47 45L47 46L49 46L49 45ZM55 45L55 46L56 46L56 45ZM14 46L14 48L15 48L15 46ZM34 46L34 47L35 47L35 46ZM23 47L23 48L24 48L24 47ZM41 48L41 49L42 49L42 48ZM56 48L56 49L57 49L57 48ZM27 49L27 52L30 52L30 49ZM45 49L45 50L46 50L46 49ZM49 49L49 52L52 52L52 49ZM28 50L28 51L29 51L29 50ZM50 50L50 51L51 51L51 50ZM40 51L40 52L41 52L41 51ZM46 51L46 52L47 52L47 51ZM14 52L14 54L15 54L15 56L16 56L16 57L18 57L18 56L17 56L17 54L18 54L18 53L17 53L17 54L16 54L16 53L15 53L15 52ZM20 53L20 55L22 55L22 54L21 54L21 53ZM38 53L38 54L39 54L39 53ZM48 53L48 54L50 54L50 53ZM27 55L27 56L28 56L28 55ZM56 55L56 56L57 56L57 55ZM52 56L52 57L55 57L55 56ZM0 0L0 7L7 7L7 0ZM1 1L1 6L6 6L6 1ZM2 2L2 5L5 5L5 2ZM50 0L50 7L57 7L57 0ZM51 1L51 6L56 6L56 1ZM52 2L52 5L55 5L55 2ZM0 50L0 57L7 57L7 50ZM1 51L1 56L6 56L6 51ZM2 52L2 55L5 55L5 52Z" fill="#000000"/></g></g></svg>
