<?xml version="1.0" encoding="UTF-8"?>
<svg xmlns="http://www.w3.org/2000/svg" version="1.1" width="300" height="300" viewBox="0 0 300 300"><rect x="0" y="0" width="300" height="300" fill="#fefefe"/><g transform="scale(4.615)"><g transform="translate(4,4)"><path fill-rule="evenodd" d="M9 0L9 1L8 1L8 2L9 2L9 3L8 3L8 4L10 4L10 3L11 3L11 5L8 5L8 7L9 7L9 8L6 8L6 9L5 9L5 8L0 8L0 11L1 11L1 12L0 12L0 13L1 13L1 14L2 14L2 13L3 13L3 15L2 15L2 16L1 16L1 19L0 19L0 23L1 23L1 19L2 19L2 16L3 16L3 17L4 17L4 16L5 16L5 17L8 17L8 18L6 18L6 19L5 19L5 18L3 18L3 19L5 19L5 20L2 20L2 21L8 21L8 20L10 20L10 22L6 22L6 23L5 23L5 22L4 22L4 27L3 27L3 25L0 25L0 27L1 27L1 26L2 26L2 27L3 27L3 28L4 28L4 29L3 29L3 30L4 30L4 31L2 31L2 33L3 33L3 32L5 32L5 31L8 31L8 33L7 33L7 32L6 32L6 33L7 33L7 34L5 34L5 33L4 33L4 34L1 34L1 33L0 33L0 34L1 34L1 37L0 37L0 38L1 38L1 39L0 39L0 40L1 40L1 41L0 41L0 42L1 42L1 43L0 43L0 44L3 44L3 45L4 45L4 46L5 46L5 47L3 47L3 46L2 46L2 47L1 47L1 46L0 46L0 48L5 48L5 47L7 47L7 48L6 48L6 49L7 49L7 48L8 48L8 51L9 51L9 52L8 52L8 57L10 57L10 56L9 56L9 55L10 55L10 54L11 54L11 52L12 52L12 53L14 53L14 52L13 52L13 50L14 50L14 51L15 51L15 53L16 53L16 54L12 54L12 55L14 55L14 56L11 56L11 57L14 57L14 56L15 56L15 55L16 55L16 56L17 56L17 57L22 57L22 56L19 56L19 55L20 55L20 54L19 54L19 53L20 53L20 52L21 52L21 51L19 51L19 50L20 50L20 49L19 49L19 48L20 48L20 45L21 45L21 47L25 47L25 45L23 45L23 42L25 42L25 41L23 41L23 42L22 42L22 41L21 41L21 42L20 42L20 40L22 40L22 39L21 39L21 37L19 37L19 36L20 36L20 35L23 35L23 34L24 34L24 36L23 36L23 37L24 37L24 38L23 38L23 39L24 39L24 40L25 40L25 37L26 37L26 35L27 35L27 34L26 34L26 35L25 35L25 33L26 33L26 32L27 32L27 31L28 31L28 33L29 33L29 34L30 34L30 36L29 36L29 37L31 37L31 38L29 38L29 39L33 39L33 40L35 40L35 42L37 42L37 43L36 43L36 44L35 44L35 43L34 43L34 42L33 42L33 41L32 41L32 40L31 40L31 41L29 41L29 43L28 43L28 44L27 44L27 43L24 43L24 44L27 44L27 45L26 45L26 47L27 47L27 48L26 48L26 49L24 49L24 48L23 48L23 49L21 49L21 50L25 50L25 51L26 51L26 53L25 53L25 52L24 52L24 53L23 53L23 54L22 54L22 53L21 53L21 54L22 54L22 55L23 55L23 56L24 56L24 57L26 57L26 56L24 56L24 55L23 55L23 54L24 54L24 53L25 53L25 55L26 55L26 54L30 54L30 53L31 53L31 51L32 51L32 52L33 52L33 53L32 53L32 54L31 54L31 56L30 56L30 55L29 55L29 56L27 56L27 57L29 57L29 56L30 56L30 57L31 57L31 56L35 56L35 57L39 57L39 56L41 56L41 57L44 57L44 56L42 56L42 55L44 55L44 54L45 54L45 53L44 53L44 52L45 52L45 51L44 51L44 50L45 50L45 49L46 49L46 48L45 48L45 47L47 47L47 48L48 48L48 49L47 49L47 50L48 50L48 53L47 53L47 55L48 55L48 56L46 56L46 57L49 57L49 56L50 56L50 57L52 57L52 55L51 55L51 53L52 53L52 54L53 54L53 55L54 55L54 56L53 56L53 57L54 57L54 56L55 56L55 57L56 57L56 56L55 56L55 52L57 52L57 51L56 51L56 50L57 50L57 48L56 48L56 46L57 46L57 45L56 45L56 44L55 44L55 43L56 43L56 42L57 42L57 41L56 41L56 42L55 42L55 39L57 39L57 36L56 36L56 34L57 34L57 32L56 32L56 30L57 30L57 28L55 28L55 27L56 27L56 26L57 26L57 25L56 25L56 22L57 22L57 21L56 21L56 20L55 20L55 19L56 19L56 16L57 16L57 15L56 15L56 14L57 14L57 12L56 12L56 8L55 8L55 10L54 10L54 11L52 11L52 10L49 10L49 9L50 9L50 8L49 8L49 6L48 6L48 7L47 7L47 5L48 5L48 0L45 0L45 2L44 2L44 3L43 3L43 4L40 4L40 5L39 5L39 6L38 6L38 8L35 8L35 5L36 5L36 7L37 7L37 5L38 5L38 4L39 4L39 3L42 3L42 2L43 2L43 0L41 0L41 1L40 1L40 0L39 0L39 1L38 1L38 0L37 0L37 1L38 1L38 4L37 4L37 3L36 3L36 0L35 0L35 1L33 1L33 2L32 2L32 0L29 0L29 1L25 1L25 0L23 0L23 2L27 2L27 3L28 3L28 2L29 2L29 1L30 1L30 2L32 2L32 3L31 3L31 4L26 4L26 3L23 3L23 4L19 4L19 3L22 3L22 0L21 0L21 1L20 1L20 0L17 0L17 1L16 1L16 2L17 2L17 3L18 3L18 4L17 4L17 6L16 6L16 7L15 7L15 5L16 5L16 4L15 4L15 5L14 5L14 8L13 8L13 6L12 6L12 8L11 8L11 5L12 5L12 4L14 4L14 2L15 2L15 1L14 1L14 0L13 0L13 1L14 1L14 2L13 2L13 3L12 3L12 0L11 0L11 2L9 2L9 1L10 1L10 0ZM17 1L17 2L18 2L18 1ZM19 1L19 2L20 2L20 1ZM46 1L46 2L47 2L47 1ZM33 2L33 3L32 3L32 4L31 4L31 8L32 8L32 10L29 10L29 9L28 9L28 10L27 10L27 11L26 11L26 12L25 12L25 11L23 11L23 12L24 12L24 13L22 13L22 12L20 12L20 11L22 11L22 10L24 10L24 9L25 9L25 8L26 8L26 4L25 4L25 8L24 8L24 6L23 6L23 5L24 5L24 4L23 4L23 5L22 5L22 6L21 6L21 7L22 7L22 6L23 6L23 8L19 8L19 9L20 9L20 10L19 10L19 12L20 12L20 14L17 14L17 13L18 13L18 12L17 12L17 11L18 11L18 10L17 10L17 9L16 9L16 8L17 8L17 7L18 7L18 6L19 6L19 7L20 7L20 5L19 5L19 4L18 4L18 6L17 6L17 7L16 7L16 8L14 8L14 9L12 9L12 13L13 13L13 14L12 14L12 16L11 16L11 15L10 15L10 14L11 14L11 13L10 13L10 14L9 14L9 15L8 15L8 13L6 13L6 12L7 12L7 11L6 11L6 12L5 12L5 9L4 9L4 10L3 10L3 9L1 9L1 10L2 10L2 11L3 11L3 13L6 13L6 14L5 14L5 15L6 15L6 16L7 16L7 15L8 15L8 17L9 17L9 18L11 18L11 17L12 17L12 16L13 16L13 14L15 14L15 13L16 13L16 16L15 16L15 15L14 15L14 18L13 18L13 19L12 19L12 20L11 20L11 22L13 22L13 24L12 24L12 23L10 23L10 25L11 25L11 24L12 24L12 26L11 26L11 27L12 27L12 28L10 28L10 27L9 27L9 30L10 30L10 29L11 29L11 30L12 30L12 31L9 31L9 32L10 32L10 33L11 33L11 34L14 34L14 32L13 32L13 30L14 30L14 29L16 29L16 31L15 31L15 35L14 35L14 36L15 36L15 37L16 37L16 38L14 38L14 37L12 37L12 40L11 40L11 41L9 41L9 42L8 42L8 43L10 43L10 44L12 44L12 43L14 43L14 44L15 44L15 47L16 47L16 48L15 48L15 49L16 49L16 50L15 50L15 51L16 51L16 53L17 53L17 51L18 51L18 50L19 50L19 49L16 49L16 48L19 48L19 47L18 47L18 46L17 46L17 45L18 45L18 44L15 44L15 43L18 43L18 42L19 42L19 45L20 45L20 44L21 44L21 45L22 45L22 46L23 46L23 45L22 45L22 44L21 44L21 43L22 43L22 42L21 42L21 43L20 43L20 42L19 42L19 41L17 41L17 40L19 40L19 39L20 39L20 38L19 38L19 37L18 37L18 38L19 38L19 39L17 39L17 36L19 36L19 35L20 35L20 34L21 34L21 33L22 33L22 34L23 34L23 33L25 33L25 32L26 32L26 31L25 31L25 30L23 30L23 27L24 27L24 28L25 28L25 29L26 29L26 28L25 28L25 27L26 27L26 26L30 26L30 25L31 25L31 24L32 24L32 26L31 26L31 28L32 28L32 29L31 29L31 31L30 31L30 32L29 32L29 33L31 33L31 34L32 34L32 35L33 35L33 34L34 34L34 35L35 35L35 36L32 36L32 37L34 37L34 38L33 38L33 39L34 39L34 38L35 38L35 36L37 36L37 34L35 34L35 33L34 33L34 32L37 32L37 33L38 33L38 36L39 36L39 35L40 35L40 34L39 34L39 33L41 33L41 32L43 32L43 33L45 33L45 34L42 34L42 35L41 35L41 36L40 36L40 37L38 37L38 39L35 39L35 40L38 40L38 42L39 42L39 43L40 43L40 42L41 42L41 44L39 44L39 45L38 45L38 46L39 46L39 45L41 45L41 44L42 44L42 42L41 42L41 38L40 38L40 37L41 37L41 36L44 36L44 37L43 37L43 38L42 38L42 39L45 39L45 40L44 40L44 42L46 42L46 43L44 43L44 45L45 45L45 46L44 46L44 47L43 47L43 46L41 46L41 48L39 48L39 47L38 47L38 48L37 48L37 49L38 49L38 50L36 50L36 49L34 49L34 48L36 48L36 47L37 47L37 45L34 45L34 43L33 43L33 42L32 42L32 41L31 41L31 42L32 42L32 43L33 43L33 44L32 44L32 47L33 47L33 46L35 46L35 47L34 47L34 48L32 48L32 49L31 49L31 50L32 50L32 51L34 51L34 52L35 52L35 51L34 51L34 50L36 50L36 52L37 52L37 53L38 53L38 54L37 54L37 56L39 56L39 55L38 55L38 54L40 54L40 53L42 53L42 52L43 52L43 51L42 51L42 50L41 50L41 48L42 48L42 49L43 49L43 48L44 48L44 49L45 49L45 48L44 48L44 47L45 47L45 46L47 46L47 45L48 45L48 44L50 44L50 45L52 45L52 47L51 47L51 46L50 46L50 47L51 47L51 48L53 48L53 46L54 46L54 47L55 47L55 46L56 46L56 45L55 45L55 44L54 44L54 45L52 45L52 44L53 44L53 43L54 43L54 42L53 42L53 41L54 41L54 40L53 40L53 35L55 35L55 34L54 34L54 32L53 32L53 31L55 31L55 30L54 30L54 29L55 29L55 28L54 28L54 29L53 29L53 31L52 31L52 32L51 32L51 33L52 33L52 34L50 34L50 31L48 31L48 30L47 30L47 29L46 29L46 30L47 30L47 31L48 31L48 32L47 32L47 33L45 33L45 32L43 32L43 30L44 30L44 31L45 31L45 30L44 30L44 29L45 29L45 28L46 28L46 27L47 27L47 28L48 28L48 27L47 27L47 23L48 23L48 24L51 24L51 25L50 25L50 26L51 26L51 25L52 25L52 26L53 26L53 27L54 27L54 26L53 26L53 24L51 24L51 23L50 23L50 22L51 22L51 21L53 21L53 23L55 23L55 22L56 22L56 21L55 21L55 20L53 20L53 19L52 19L52 20L51 20L51 21L49 21L49 22L47 22L47 21L48 21L48 20L47 20L47 17L48 17L48 16L49 16L49 17L50 17L50 18L48 18L48 19L51 19L51 17L53 17L53 18L55 18L55 16L51 16L51 17L50 17L50 14L51 14L51 12L50 12L50 11L49 11L49 10L47 10L47 8L44 8L44 6L45 6L45 7L46 7L46 6L45 6L45 5L47 5L47 3L44 3L44 6L43 6L43 7L42 7L42 5L40 5L40 6L39 6L39 8L38 8L38 10L40 10L40 11L39 11L39 13L38 13L38 14L37 14L37 13L36 13L36 14L37 14L37 15L35 15L35 16L33 16L33 15L31 15L31 14L32 14L32 13L33 13L33 14L35 14L35 11L36 11L36 10L37 10L37 9L35 9L35 8L34 8L34 9L33 9L33 7L34 7L34 6L33 6L33 5L35 5L35 4L33 4L33 3L35 3L35 2ZM32 4L32 5L33 5L33 4ZM36 4L36 5L37 5L37 4ZM27 5L27 8L30 8L30 5ZM9 6L9 7L10 7L10 6ZM28 6L28 7L29 7L29 6ZM32 6L32 7L33 7L33 6ZM40 6L40 7L41 7L41 6ZM9 8L9 9L6 9L6 10L8 10L8 11L9 11L9 12L11 12L11 11L10 11L10 9L11 9L11 8ZM23 8L23 9L24 9L24 8ZM43 8L43 9L40 9L40 10L43 10L43 11L45 11L45 12L49 12L49 13L47 13L47 14L44 14L44 15L42 15L42 16L41 16L41 14L43 14L43 13L44 13L44 12L43 12L43 13L41 13L41 14L38 14L38 15L39 15L39 16L38 16L38 17L37 17L37 16L35 16L35 17L37 17L37 18L38 18L38 17L39 17L39 19L37 19L37 20L36 20L36 19L31 19L31 21L28 21L28 22L30 22L30 23L28 23L28 24L29 24L29 25L30 25L30 24L31 24L31 21L32 21L32 20L33 20L33 21L35 21L35 23L32 23L32 24L33 24L33 25L37 25L37 26L38 26L38 24L39 24L39 25L40 25L40 24L41 24L41 25L42 25L42 26L41 26L41 28L42 28L42 26L43 26L43 27L44 27L44 28L43 28L43 29L39 29L39 30L38 30L38 32L39 32L39 31L41 31L41 30L43 30L43 29L44 29L44 28L45 28L45 27L46 27L46 26L45 26L45 25L46 25L46 24L45 24L45 25L44 25L44 24L43 24L43 23L44 23L44 20L45 20L45 18L44 18L44 15L45 15L45 17L47 17L47 16L48 16L48 15L49 15L49 14L50 14L50 12L49 12L49 11L47 11L47 10L46 10L46 9L45 9L45 10L44 10L44 8ZM51 8L51 9L52 9L52 8ZM53 8L53 9L54 9L54 8ZM21 9L21 10L22 10L22 9ZM13 10L13 11L14 11L14 12L13 12L13 13L15 13L15 10ZM16 10L16 11L17 11L17 10ZM32 10L32 11L31 11L31 13L30 13L30 14L29 14L29 13L28 13L28 12L29 12L29 11L27 11L27 12L26 12L26 13L24 13L24 14L22 14L22 13L21 13L21 15L23 15L23 16L25 16L25 17L22 17L22 16L21 16L21 17L22 17L22 18L21 18L21 19L19 19L19 18L20 18L20 17L19 17L19 16L20 16L20 15L18 15L18 16L16 16L16 17L18 17L18 20L17 20L17 19L15 19L15 21L16 21L16 22L14 22L14 21L13 21L13 22L14 22L14 25L13 25L13 26L12 26L12 27L13 27L13 28L14 28L14 26L15 26L15 27L16 27L16 26L15 26L15 25L18 25L18 26L17 26L17 27L18 27L18 26L19 26L19 29L18 29L18 28L16 28L16 29L18 29L18 30L17 30L17 31L20 31L20 32L23 32L23 31L21 31L21 30L19 30L19 29L22 29L22 28L20 28L20 25L22 25L22 26L21 26L21 27L22 27L22 26L24 26L24 27L25 27L25 26L26 26L26 25L25 25L25 24L27 24L27 21L26 21L26 19L27 19L27 20L28 20L28 19L29 19L29 20L30 20L30 18L32 18L32 16L31 16L31 15L30 15L30 14L31 14L31 13L32 13L32 12L33 12L33 13L34 13L34 12L33 12L33 10ZM45 10L45 11L46 11L46 10ZM40 11L40 12L41 12L41 11ZM16 12L16 13L17 13L17 12ZM52 12L52 13L53 13L53 12ZM54 12L54 13L55 13L55 14L53 14L53 15L55 15L55 14L56 14L56 12ZM26 13L26 14L25 14L25 15L26 15L26 17L25 17L25 18L27 18L27 19L28 19L28 18L27 18L27 17L28 17L28 16L29 16L29 14L28 14L28 13ZM6 14L6 15L7 15L7 14ZM26 14L26 15L27 15L27 16L28 16L28 15L27 15L27 14ZM9 15L9 16L10 16L10 17L11 17L11 16L10 16L10 15ZM46 15L46 16L47 16L47 15ZM39 16L39 17L41 17L41 16ZM42 16L42 17L43 17L43 16ZM23 18L23 19L22 19L22 20L20 20L20 21L19 21L19 22L20 22L20 23L19 23L19 24L22 24L22 25L23 25L23 23L24 23L24 24L25 24L25 23L26 23L26 22L25 22L25 21L24 21L24 20L23 20L23 19L24 19L24 18ZM41 18L41 19L42 19L42 18ZM43 18L43 20L44 20L44 18ZM6 19L6 20L7 20L7 19ZM13 19L13 20L14 20L14 19ZM16 20L16 21L17 21L17 20ZM37 20L37 21L38 21L38 23L37 23L37 24L38 24L38 23L39 23L39 24L40 24L40 22L39 22L39 21L42 21L42 20L39 20L39 21L38 21L38 20ZM46 20L46 21L45 21L45 22L46 22L46 23L47 23L47 22L46 22L46 21L47 21L47 20ZM22 21L22 22L24 22L24 21ZM41 22L41 23L42 23L42 22ZM2 23L2 24L3 24L3 23ZM6 23L6 24L5 24L5 25L6 25L6 26L7 26L7 25L6 25L6 24L8 24L8 26L9 26L9 24L8 24L8 23ZM15 23L15 24L16 24L16 23ZM17 23L17 24L18 24L18 23ZM42 24L42 25L43 25L43 24ZM55 25L55 26L56 26L56 25ZM32 26L32 27L33 27L33 28L35 28L35 29L38 29L38 28L40 28L40 27L36 27L36 26L34 26L34 27L33 27L33 26ZM44 26L44 27L45 27L45 26ZM5 27L5 30L8 30L8 27ZM27 27L27 30L30 30L30 27ZM49 27L49 30L52 30L52 27ZM1 28L1 29L0 29L0 30L2 30L2 28ZM6 28L6 29L7 29L7 28ZM28 28L28 29L29 29L29 28ZM50 28L50 29L51 29L51 28ZM12 29L12 30L13 30L13 29ZM32 30L32 32L31 32L31 33L32 33L32 34L33 34L33 33L32 33L32 32L33 32L33 31L36 31L36 30ZM11 32L11 33L12 33L12 32ZM18 32L18 33L17 33L17 35L19 35L19 34L20 34L20 33L19 33L19 32ZM48 32L48 33L49 33L49 32ZM52 32L52 33L53 33L53 32ZM55 32L55 33L56 33L56 32ZM8 33L8 34L7 34L7 35L5 35L5 34L4 34L4 35L3 35L3 38L4 38L4 39L2 39L2 41L1 41L1 42L2 42L2 43L3 43L3 44L7 44L7 43L6 43L6 42L7 42L7 41L6 41L6 40L10 40L10 39L11 39L11 37L10 37L10 36L11 36L11 35L10 35L10 34L9 34L9 33ZM18 33L18 34L19 34L19 33ZM8 34L8 37L7 37L7 36L6 36L6 37L7 37L7 38L6 38L6 39L4 39L4 41L5 41L5 42L4 42L4 43L5 43L5 42L6 42L6 41L5 41L5 40L6 40L6 39L7 39L7 38L8 38L8 39L9 39L9 34ZM49 34L49 35L50 35L50 36L52 36L52 35L53 35L53 34L52 34L52 35L50 35L50 34ZM15 35L15 36L16 36L16 35ZM44 35L44 36L46 36L46 37L47 37L47 36L46 36L46 35ZM4 36L4 38L5 38L5 36ZM55 36L55 37L56 37L56 36ZM1 37L1 38L2 38L2 37ZM27 37L27 38L26 38L26 40L28 40L28 39L27 39L27 38L28 38L28 37ZM44 37L44 38L45 38L45 39L46 39L46 40L45 40L45 41L47 41L47 39L49 39L49 41L48 41L48 42L47 42L47 43L46 43L46 44L45 44L45 45L47 45L47 43L50 43L50 44L51 44L51 43L53 43L53 42L51 42L51 41L53 41L53 40L52 40L52 38L51 38L51 39L49 39L49 38L50 38L50 37L48 37L48 38L47 38L47 39L46 39L46 38L45 38L45 37ZM13 38L13 39L14 39L14 38ZM54 38L54 39L55 39L55 38ZM15 39L15 40L16 40L16 39ZM38 39L38 40L39 40L39 39ZM13 40L13 42L15 42L15 41L14 41L14 40ZM26 41L26 42L27 42L27 41ZM50 42L50 43L51 43L51 42ZM29 43L29 45L27 45L27 47L28 47L28 48L30 48L30 47L29 47L29 46L30 46L30 44L31 44L31 43ZM5 45L5 46L8 46L8 48L11 48L11 49L10 49L10 50L11 50L11 51L12 51L12 49L13 49L13 48L14 48L14 47L13 47L13 46L10 46L10 45L9 45L9 46L8 46L8 45ZM54 45L54 46L55 46L55 45ZM9 46L9 47L10 47L10 46ZM11 47L11 48L13 48L13 47ZM42 47L42 48L43 48L43 47ZM48 47L48 48L49 48L49 47ZM38 48L38 49L39 49L39 48ZM54 48L54 49L55 49L55 50L54 50L54 51L55 51L55 50L56 50L56 48ZM27 49L27 52L30 52L30 49ZM49 49L49 52L52 52L52 49ZM16 50L16 51L17 51L17 50ZM28 50L28 51L29 51L29 50ZM38 50L38 51L40 51L40 52L41 52L41 50ZM50 50L50 51L51 51L51 50ZM22 51L22 52L23 52L23 51ZM46 51L46 52L47 52L47 51ZM9 52L9 54L10 54L10 52ZM38 52L38 53L39 53L39 52ZM53 52L53 53L54 53L54 52ZM33 53L33 54L34 54L34 55L35 55L35 56L36 56L36 54L35 54L35 53ZM43 53L43 54L44 54L44 53ZM17 54L17 55L19 55L19 54ZM50 55L50 56L51 56L51 55ZM0 0L0 7L7 7L7 0ZM1 1L1 6L6 6L6 1ZM2 2L2 5L5 5L5 2ZM50 0L50 7L57 7L57 0ZM51 1L51 6L56 6L56 1ZM52 2L52 5L55 5L55 2ZM0 50L0 57L7 57L7 50ZM1 51L1 56L6 56L6 51ZM2 52L2 55L5 55L5 52Z" fill="#000000"/></g></g></svg>
