<?xml version="1.0" encoding="UTF-8"?>
<svg xmlns="http://www.w3.org/2000/svg" version="1.1" width="300" height="300" viewBox="0 0 300 300"><rect x="0" y="0" width="300" height="300" fill="#fefefe"/><g transform="scale(4.615)"><g transform="translate(4,4)"><path fill-rule="evenodd" d="M11 0L11 1L10 1L10 2L9 2L9 1L8 1L8 2L9 2L9 3L8 3L8 4L9 4L9 3L10 3L10 4L11 4L11 5L12 5L12 7L11 7L11 6L10 6L10 5L8 5L8 7L9 7L9 6L10 6L10 7L11 7L11 8L10 8L10 9L11 9L11 8L12 8L12 9L13 9L13 11L14 11L14 12L12 12L12 11L11 11L11 12L12 12L12 14L11 14L11 13L9 13L9 12L8 12L8 11L9 11L9 8L6 8L6 9L8 9L8 10L6 10L6 11L7 11L7 12L5 12L5 11L4 11L4 12L5 12L5 13L7 13L7 14L6 14L6 15L5 15L5 16L4 16L4 19L5 19L5 16L6 16L6 17L8 17L8 19L12 19L12 18L14 18L14 16L15 16L15 17L16 17L16 13L17 13L17 17L19 17L19 18L18 18L18 19L17 19L17 20L18 20L18 21L16 21L16 20L15 20L15 21L16 21L16 22L14 22L14 21L13 21L13 20L14 20L14 19L13 19L13 20L4 20L4 21L3 21L3 20L1 20L1 18L0 18L0 21L2 21L2 23L0 23L0 24L1 24L1 29L2 29L2 30L3 30L3 34L2 34L2 33L1 33L1 32L2 32L2 31L1 31L1 30L0 30L0 33L1 33L1 34L0 34L0 35L1 35L1 36L0 36L0 37L1 37L1 38L2 38L2 39L3 39L3 40L4 40L4 41L2 41L2 40L1 40L1 42L0 42L0 45L1 45L1 46L0 46L0 48L5 48L5 47L8 47L8 51L10 51L10 52L8 52L8 57L10 57L10 55L11 55L11 57L13 57L13 56L12 56L12 54L10 54L10 52L12 52L12 53L13 53L13 55L14 55L14 57L16 57L16 56L17 56L17 57L20 57L20 56L19 56L19 55L20 55L20 54L19 54L19 53L20 53L20 52L21 52L21 51L22 51L22 52L23 52L23 51L22 51L22 50L26 50L26 52L24 52L24 53L22 53L22 54L21 54L21 56L23 56L23 57L26 57L26 56L27 56L27 57L29 57L29 56L30 56L30 57L31 57L31 56L35 56L35 57L39 57L39 56L40 56L40 55L44 55L44 54L45 54L45 55L47 55L47 57L48 57L48 56L50 56L50 57L52 57L52 55L51 55L51 53L52 53L52 54L53 54L53 55L54 55L54 56L53 56L53 57L54 57L54 56L55 56L55 57L56 57L56 56L55 56L55 52L57 52L57 51L54 51L54 50L57 50L57 48L56 48L56 46L57 46L57 45L56 45L56 44L57 44L57 43L56 43L56 41L55 41L55 39L57 39L57 37L55 37L55 35L56 35L56 36L57 36L57 35L56 35L56 34L57 34L57 32L56 32L56 30L57 30L57 29L56 29L56 28L57 28L57 27L56 27L56 26L57 26L57 25L56 25L56 22L57 22L57 21L56 21L56 22L55 22L55 23L54 23L54 21L51 21L51 20L52 20L52 19L53 19L53 20L55 20L55 19L56 19L56 18L57 18L57 17L56 17L56 16L57 16L57 15L56 15L56 14L57 14L57 12L56 12L56 10L54 10L54 11L53 11L53 9L54 9L54 8L53 8L53 9L52 9L52 8L51 8L51 10L52 10L52 11L50 11L50 8L49 8L49 9L48 9L48 7L49 7L49 6L48 6L48 7L47 7L47 5L48 5L48 0L45 0L45 1L47 1L47 2L44 2L44 3L43 3L43 4L40 4L40 5L39 5L39 6L38 6L38 7L37 7L37 5L38 5L38 4L37 4L37 3L42 3L42 2L43 2L43 0L41 0L41 1L40 1L40 0L39 0L39 1L38 1L38 0L37 0L37 1L38 1L38 2L37 2L37 3L36 3L36 0L35 0L35 1L33 1L33 0L29 0L29 1L28 1L28 2L29 2L29 1L30 1L30 2L32 2L32 3L31 3L31 4L26 4L26 3L23 3L23 2L27 2L27 1L26 1L26 0L23 0L23 1L22 1L22 0L21 0L21 2L22 2L22 3L21 3L21 4L19 4L19 3L20 3L20 0L17 0L17 1L19 1L19 3L17 3L17 6L16 6L16 7L15 7L15 5L16 5L16 4L15 4L15 5L14 5L14 8L12 8L12 7L13 7L13 4L14 4L14 2L16 2L16 1L15 1L15 0L14 0L14 2L13 2L13 1L12 1L12 0ZM11 1L11 2L12 2L12 1ZM32 1L32 2L33 2L33 3L32 3L32 4L31 4L31 8L32 8L32 10L31 10L31 11L30 11L30 10L29 10L29 9L28 9L28 10L27 10L27 11L26 11L26 12L25 12L25 11L23 11L23 13L22 13L22 12L20 12L20 11L22 11L22 10L23 10L23 8L24 8L24 6L23 6L23 5L24 5L24 4L23 4L23 3L22 3L22 4L21 4L21 8L19 8L19 7L20 7L20 5L18 5L18 6L17 6L17 7L16 7L16 8L14 8L14 10L15 10L15 11L16 11L16 10L17 10L17 11L18 11L18 10L19 10L19 9L20 9L20 11L19 11L19 12L20 12L20 16L19 16L19 15L18 15L18 16L19 16L19 17L20 17L20 18L19 18L19 19L18 19L18 20L19 20L19 19L20 19L20 21L18 21L18 22L17 22L17 24L19 24L19 25L15 25L15 24L16 24L16 23L13 23L13 21L10 21L10 22L12 22L12 24L10 24L10 25L11 25L11 26L10 26L10 28L12 28L12 29L13 29L13 28L15 28L15 29L14 29L14 30L15 30L15 29L16 29L16 31L13 31L13 30L12 30L12 31L10 31L10 32L11 32L11 36L10 36L10 34L9 34L9 33L6 33L6 32L7 32L7 31L6 31L6 32L5 32L5 31L4 31L4 35L3 35L3 36L5 36L5 33L6 33L6 34L9 34L9 35L6 35L6 36L8 36L8 38L7 38L7 37L5 37L5 38L4 38L4 37L3 37L3 38L4 38L4 39L5 39L5 38L7 38L7 39L6 39L6 40L5 40L5 41L4 41L4 43L3 43L3 42L1 42L1 43L3 43L3 44L1 44L1 45L3 45L3 47L5 47L5 45L6 45L6 46L7 46L7 45L6 45L6 44L7 44L7 43L8 43L8 44L9 44L9 45L8 45L8 46L9 46L9 48L10 48L10 49L9 49L9 50L10 50L10 51L12 51L12 52L13 52L13 53L15 53L15 54L16 54L16 53L17 53L17 48L18 48L18 47L17 47L17 45L18 45L18 44L16 44L16 43L15 43L15 42L17 42L17 43L18 43L18 42L19 42L19 41L16 41L16 40L18 40L18 39L20 39L20 38L19 38L19 37L23 37L23 38L22 38L22 40L20 40L20 42L21 42L21 43L20 43L20 44L19 44L19 45L20 45L20 46L19 46L19 49L20 49L20 51L21 51L21 49L23 49L23 47L25 47L25 48L24 48L24 49L25 49L25 48L29 48L29 45L30 45L30 46L31 46L31 47L32 47L32 49L31 49L31 53L30 53L30 54L27 54L27 53L26 53L26 55L27 55L27 56L29 56L29 55L30 55L30 56L31 56L31 54L32 54L32 53L33 53L33 55L35 55L35 56L36 56L36 54L35 54L35 51L34 51L34 50L36 50L36 52L39 52L39 53L37 53L37 54L40 54L40 53L42 53L42 52L40 52L40 51L38 51L38 50L41 50L41 51L42 51L42 50L41 50L41 48L42 48L42 49L43 49L43 48L44 48L44 49L45 49L45 50L47 50L47 53L45 53L45 52L44 52L44 53L43 53L43 54L44 54L44 53L45 53L45 54L47 54L47 53L48 53L48 50L47 50L47 49L48 49L48 48L49 48L49 47L53 47L53 46L54 46L54 47L55 47L55 46L56 46L56 45L55 45L55 44L54 44L54 45L52 45L52 44L53 44L53 43L54 43L54 42L53 42L53 41L51 41L51 42L50 42L50 43L49 43L49 42L48 42L48 41L49 41L49 40L50 40L50 39L52 39L52 40L53 40L53 35L55 35L55 34L54 34L54 33L56 33L56 32L53 32L53 31L55 31L55 28L56 28L56 27L55 27L55 28L54 28L54 29L53 29L53 31L52 31L52 32L51 32L51 33L52 33L52 34L50 34L50 32L49 32L49 31L48 31L48 28L47 28L47 29L46 29L46 30L47 30L47 31L45 31L45 32L43 32L43 31L44 31L44 29L45 29L45 28L46 28L46 27L48 27L48 26L47 26L47 25L49 25L49 23L50 23L50 24L51 24L51 25L50 25L50 26L52 26L52 25L54 25L54 24L53 24L53 23L52 23L52 24L51 24L51 23L50 23L50 22L51 22L51 21L49 21L49 19L52 19L52 18L55 18L55 17L53 17L53 15L50 15L50 14L51 14L51 12L50 12L50 11L47 11L47 12L45 12L45 11L46 11L46 10L47 10L47 8L45 8L45 7L46 7L46 6L45 6L45 4L46 4L46 5L47 5L47 3L44 3L44 6L43 6L43 8L42 8L42 9L43 9L43 8L44 8L44 10L45 10L45 11L41 11L41 12L39 12L39 13L38 13L38 14L37 14L37 13L36 13L36 14L37 14L37 15L35 15L35 16L33 16L33 15L32 15L32 14L35 14L35 11L36 11L36 10L37 10L37 11L38 11L38 10L39 10L39 11L40 11L40 10L41 10L41 7L42 7L42 5L40 5L40 6L39 6L39 7L40 7L40 8L39 8L39 9L38 9L38 8L37 8L37 7L36 7L36 5L37 5L37 4L36 4L36 5L35 5L35 2L33 2L33 1ZM12 3L12 4L13 4L13 3ZM22 4L22 5L23 5L23 4ZM25 4L25 8L26 8L26 4ZM32 4L32 5L34 5L34 7L33 7L33 6L32 6L32 7L33 7L33 9L34 9L34 8L35 8L35 9L37 9L37 10L38 10L38 9L37 9L37 8L35 8L35 5L34 5L34 4ZM27 5L27 8L30 8L30 5ZM18 6L18 7L19 7L19 6ZM22 6L22 8L23 8L23 6ZM28 6L28 7L29 7L29 6ZM40 6L40 7L41 7L41 6ZM44 6L44 7L45 7L45 6ZM0 8L0 9L1 9L1 10L0 10L0 14L1 14L1 13L2 13L2 15L1 15L1 16L0 16L0 17L3 17L3 14L4 14L4 13L3 13L3 12L1 12L1 10L2 10L2 9L4 9L4 10L5 10L5 8ZM16 8L16 9L19 9L19 8ZM55 8L55 9L56 9L56 8ZM21 9L21 10L22 10L22 9ZM39 9L39 10L40 10L40 9ZM45 9L45 10L46 10L46 9ZM32 10L32 12L31 12L31 13L30 13L30 14L29 14L29 13L28 13L28 12L29 12L29 11L27 11L27 12L26 12L26 13L28 13L28 14L29 14L29 16L28 16L28 15L27 15L27 16L28 16L28 17L26 17L26 14L25 14L25 13L23 13L23 14L22 14L22 13L21 13L21 15L24 15L24 16L25 16L25 17L22 17L22 16L20 16L20 17L22 17L22 18L24 18L24 19L23 19L23 20L24 20L24 21L23 21L23 22L24 22L24 21L25 21L25 22L26 22L26 23L25 23L25 24L24 24L24 23L23 23L23 25L22 25L22 24L20 24L20 25L19 25L19 26L20 26L20 27L19 27L19 29L18 29L18 28L17 28L17 27L18 27L18 26L15 26L15 25L12 25L12 26L11 26L11 27L15 27L15 28L16 28L16 29L18 29L18 30L17 30L17 31L18 31L18 32L16 32L16 33L18 33L18 34L20 34L20 33L21 33L21 34L22 34L22 33L21 33L21 32L25 32L25 33L23 33L23 34L24 34L24 36L23 36L23 37L24 37L24 38L23 38L23 39L24 39L24 40L25 40L25 37L26 37L26 35L27 35L27 34L26 34L26 35L25 35L25 33L26 33L26 32L27 32L27 31L31 31L31 30L32 30L32 32L31 32L31 33L29 33L29 32L28 32L28 33L29 33L29 34L30 34L30 36L29 36L29 37L31 37L31 38L29 38L29 39L33 39L33 40L35 40L35 42L37 42L37 43L34 43L34 42L33 42L33 41L32 41L32 40L31 40L31 41L30 41L30 42L27 42L27 41L28 41L28 39L27 39L27 38L28 38L28 37L27 37L27 38L26 38L26 40L27 40L27 41L26 41L26 42L27 42L27 43L25 43L25 44L23 44L23 42L25 42L25 41L23 41L23 42L22 42L22 43L21 43L21 44L20 44L20 45L21 45L21 46L20 46L20 49L21 49L21 47L23 47L23 46L25 46L25 44L29 44L29 43L32 43L32 44L31 44L31 45L32 45L32 47L34 47L34 48L33 48L33 49L36 49L36 50L38 50L38 49L39 49L39 48L41 48L41 46L43 46L43 47L42 47L42 48L43 48L43 47L47 47L47 48L48 48L48 47L49 47L49 46L48 46L48 47L47 47L47 46L44 46L44 44L43 44L43 42L44 42L44 43L46 43L46 44L45 44L45 45L47 45L47 43L48 43L48 42L47 42L47 43L46 43L46 42L44 42L44 40L45 40L45 41L47 41L47 39L50 39L50 38L51 38L51 37L52 37L52 35L53 35L53 34L52 34L52 35L50 35L50 34L48 34L48 35L47 35L47 34L45 34L45 35L44 35L44 33L43 33L43 32L41 32L41 33L39 33L39 34L40 34L40 35L38 35L38 33L37 33L37 32L35 32L35 34L33 34L33 33L32 33L32 32L34 32L34 31L35 31L35 30L33 30L33 29L32 29L32 27L33 27L33 28L35 28L35 29L38 29L38 28L40 28L40 27L41 27L41 28L42 28L42 26L43 26L43 25L44 25L44 24L41 24L41 22L43 22L43 23L44 23L44 20L45 20L45 21L47 21L47 22L45 22L45 23L47 23L47 24L48 24L48 23L47 23L47 22L49 22L49 21L47 21L47 20L48 20L48 19L49 19L49 18L50 18L50 17L51 17L51 16L50 16L50 15L49 15L49 14L50 14L50 12L49 12L49 13L47 13L47 14L45 14L45 13L44 13L44 12L43 12L43 13L39 13L39 14L38 14L38 15L39 15L39 16L38 16L38 17L37 17L37 16L35 16L35 17L37 17L37 18L38 18L38 17L39 17L39 19L37 19L37 20L36 20L36 19L35 19L35 18L33 18L33 17L32 17L32 16L31 16L31 15L30 15L30 14L32 14L32 12L33 12L33 13L34 13L34 12L33 12L33 10ZM7 12L7 13L8 13L8 12ZM15 12L15 13L13 13L13 14L12 14L12 15L11 15L11 14L7 14L7 15L6 15L6 16L8 16L8 17L11 17L11 16L12 16L12 17L13 17L13 16L14 16L14 14L15 14L15 13L16 13L16 12ZM17 12L17 13L18 13L18 12ZM52 12L52 13L53 13L53 14L56 14L56 12L54 12L54 13L53 13L53 12ZM43 13L43 14L39 14L39 15L41 15L41 16L39 16L39 17L41 17L41 16L42 16L42 17L43 17L43 16L42 16L42 15L44 15L44 18L43 18L43 20L44 20L44 18L46 18L46 19L47 19L47 17L48 17L48 16L49 16L49 15L48 15L48 16L47 16L47 15L44 15L44 13ZM8 15L8 16L10 16L10 15ZM45 16L45 17L46 17L46 16ZM25 17L25 18L26 18L26 21L28 21L28 22L27 22L27 24L25 24L25 25L26 25L26 26L24 26L24 27L23 27L23 26L22 26L22 25L20 25L20 26L22 26L22 27L20 27L20 30L19 30L19 32L20 32L20 31L23 31L23 28L25 28L25 29L26 29L26 28L25 28L25 27L26 27L26 26L28 26L28 25L31 25L31 24L32 24L32 26L31 26L31 27L32 27L32 26L33 26L33 27L34 27L34 26L36 26L36 27L39 27L39 25L41 25L41 26L42 26L42 25L41 25L41 24L38 24L38 23L37 23L37 24L38 24L38 26L37 26L37 25L33 25L33 24L32 24L32 23L33 23L33 22L34 22L34 23L35 23L35 19L33 19L33 18L30 18L30 19L33 19L33 20L32 20L32 21L31 21L31 22L30 22L30 23L29 23L29 19L28 19L28 18L26 18L26 17ZM6 18L6 19L7 19L7 18ZM15 18L15 19L16 19L16 18ZM41 18L41 19L42 19L42 18ZM27 19L27 20L28 20L28 19ZM33 20L33 21L34 21L34 20ZM38 20L38 22L39 22L39 23L40 23L40 22L39 22L39 21L42 21L42 20ZM5 21L5 22L3 22L3 23L2 23L2 24L4 24L4 25L3 25L3 27L4 27L4 26L5 26L5 25L6 25L6 26L8 26L8 25L9 25L9 24L8 24L8 25L6 25L6 24L7 24L7 23L6 23L6 22L8 22L8 23L9 23L9 22L8 22L8 21ZM21 21L21 22L22 22L22 21ZM19 22L19 23L20 23L20 22ZM4 23L4 24L5 24L5 23ZM28 23L28 24L29 24L29 23ZM45 24L45 25L46 25L46 24ZM55 25L55 26L56 26L56 25ZM44 26L44 28L43 28L43 29L41 29L41 30L40 30L40 31L41 31L41 30L43 30L43 29L44 29L44 28L45 28L45 27L46 27L46 26ZM53 26L53 27L54 27L54 26ZM5 27L5 30L8 30L8 27ZM27 27L27 30L30 30L30 27ZM49 27L49 30L52 30L52 27ZM2 28L2 29L3 29L3 28ZM6 28L6 29L7 29L7 28ZM21 28L21 29L22 29L22 28ZM28 28L28 29L29 29L29 28ZM50 28L50 29L51 29L51 28ZM24 30L24 31L25 31L25 32L26 32L26 31L25 31L25 30ZM38 30L38 32L39 32L39 30ZM47 31L47 32L48 32L48 33L49 33L49 32L48 32L48 31ZM12 32L12 34L13 34L13 35L14 35L14 38L16 38L16 37L15 37L15 36L16 36L16 35L17 35L17 36L18 36L18 37L17 37L17 38L18 38L18 37L19 37L19 35L17 35L17 34L16 34L16 35L14 35L14 34L15 34L15 33L14 33L14 34L13 34L13 32ZM45 32L45 33L46 33L46 32ZM52 32L52 33L53 33L53 32ZM1 34L1 35L2 35L2 34ZM31 34L31 35L33 35L33 36L32 36L32 37L33 37L33 38L34 38L34 39L35 39L35 40L38 40L38 42L39 42L39 43L41 43L41 44L39 44L39 45L38 45L38 46L41 46L41 44L42 44L42 43L41 43L41 41L43 41L43 40L42 40L42 39L45 39L45 40L46 40L46 39L47 39L47 37L48 37L48 36L49 36L49 38L50 38L50 35L48 35L48 36L47 36L47 37L46 37L46 36L44 36L44 35L43 35L43 34L42 34L42 35L41 35L41 36L40 36L40 37L38 37L38 35L37 35L37 34L35 34L35 36L37 36L37 37L38 37L38 38L37 38L37 39L35 39L35 37L33 37L33 36L34 36L34 35L33 35L33 34ZM20 35L20 36L21 36L21 35ZM42 35L42 36L41 36L41 37L40 37L40 38L41 38L41 39L42 39L42 38L43 38L43 37L44 37L44 38L45 38L45 37L44 37L44 36L43 36L43 35ZM1 36L1 37L2 37L2 36ZM9 36L9 37L10 37L10 38L11 38L11 37L10 37L10 36ZM42 36L42 37L41 37L41 38L42 38L42 37L43 37L43 36ZM8 38L8 39L7 39L7 40L6 40L6 41L5 41L5 42L6 42L6 43L7 43L7 42L8 42L8 43L9 43L9 44L10 44L10 45L11 45L11 44L10 44L10 43L12 43L12 46L11 46L11 47L10 47L10 48L12 48L12 49L10 49L10 50L12 50L12 49L13 49L13 50L14 50L14 51L15 51L15 53L16 53L16 51L15 51L15 49L14 49L14 48L12 48L12 46L14 46L14 47L15 47L15 44L13 44L13 43L14 43L14 42L15 42L15 40L16 40L16 39L13 39L13 42L12 42L12 39L10 39L10 40L9 40L9 41L7 41L7 40L8 40L8 39L9 39L9 38ZM38 38L38 40L40 40L40 39L39 39L39 38ZM54 38L54 39L55 39L55 38ZM6 41L6 42L7 42L7 41ZM9 41L9 42L11 42L11 41ZM31 41L31 42L32 42L32 43L33 43L33 44L32 44L32 45L33 45L33 46L35 46L35 48L36 48L36 46L37 46L37 45L36 45L36 46L35 46L35 45L34 45L34 43L33 43L33 42L32 42L32 41ZM39 41L39 42L40 42L40 41ZM51 42L51 43L50 43L50 45L51 45L51 46L52 46L52 45L51 45L51 43L53 43L53 42ZM4 43L4 44L3 44L3 45L5 45L5 43ZM21 44L21 45L22 45L22 46L23 46L23 45L22 45L22 44ZM48 44L48 45L49 45L49 44ZM26 45L26 47L28 47L28 46L27 46L27 45ZM1 46L1 47L2 47L2 46ZM38 47L38 48L37 48L37 49L38 49L38 48L39 48L39 47ZM6 48L6 49L7 49L7 48ZM45 48L45 49L46 49L46 48ZM55 48L55 49L56 49L56 48ZM27 49L27 52L30 52L30 49ZM49 49L49 52L52 52L52 49ZM28 50L28 51L29 51L29 50ZM43 50L43 51L44 51L44 50ZM50 50L50 51L51 51L51 50ZM32 51L32 52L33 52L33 53L34 53L34 52L33 52L33 51ZM53 52L53 54L54 54L54 52ZM24 53L24 54L23 54L23 55L24 55L24 56L25 56L25 53ZM17 54L17 56L18 56L18 55L19 55L19 54ZM15 55L15 56L16 56L16 55ZM37 55L37 56L39 56L39 55ZM50 55L50 56L51 56L51 55ZM43 56L43 57L44 57L44 56ZM45 56L45 57L46 57L46 56ZM0 0L0 7L7 7L7 0ZM1 1L1 6L6 6L6 1ZM2 2L2 5L5 5L5 2ZM50 0L50 7L57 7L57 0ZM51 1L51 6L56 6L56 1ZM52 2L52 5L55 5L55 2ZM0 50L0 57L7 57L7 50ZM1 51L1 56L6 56L6 51ZM2 52L2 55L5 55L5 52Z" fill="#000000"/></g></g></svg>
