<?xml version="1.0" encoding="UTF-8"?>
<svg xmlns="http://www.w3.org/2000/svg" version="1.1" width="300" height="300" viewBox="0 0 300 300"><rect x="0" y="0" width="300" height="300" fill="#fefefe"/><g transform="scale(4.615)"><g transform="translate(4,4)"><path fill-rule="evenodd" d="M8 0L8 2L10 2L10 0ZM11 0L11 3L10 3L10 4L11 4L11 3L12 3L12 4L13 4L13 5L12 5L12 7L13 7L13 6L14 6L14 7L15 7L15 6L16 6L16 7L17 7L17 6L18 6L18 8L17 8L17 14L15 14L15 15L14 15L14 14L13 14L13 15L14 15L14 17L15 17L15 18L12 18L12 19L13 19L13 20L12 20L12 21L11 21L11 20L10 20L10 19L11 19L11 17L12 17L12 16L11 16L11 15L12 15L12 13L13 13L13 11L12 11L12 10L14 10L14 9L15 9L15 11L14 11L14 12L15 12L15 11L16 11L16 8L14 8L14 9L12 9L12 8L11 8L11 9L10 9L10 7L11 7L11 5L10 5L10 7L9 7L9 4L8 4L8 9L9 9L9 10L10 10L10 11L9 11L9 12L11 12L11 15L8 15L8 14L9 14L9 13L8 13L8 10L6 10L6 9L7 9L7 8L5 8L5 9L3 9L3 8L0 8L0 13L1 13L1 14L0 14L0 15L1 15L1 16L0 16L0 17L1 17L1 18L0 18L0 19L1 19L1 21L0 21L0 22L1 22L1 21L2 21L2 19L3 19L3 20L4 20L4 18L5 18L5 20L6 20L6 21L5 21L5 26L3 26L3 25L1 25L1 24L3 24L3 23L0 23L0 25L1 25L1 26L0 26L0 28L1 28L1 26L3 26L3 27L4 27L4 28L3 28L3 31L4 31L4 32L5 32L5 33L7 33L7 34L6 34L6 35L7 35L7 36L6 36L6 37L5 37L5 35L3 35L3 34L4 34L4 33L3 33L3 34L1 34L1 36L2 36L2 37L0 37L0 38L1 38L1 39L2 39L2 38L4 38L4 39L3 39L3 40L2 40L2 41L3 41L3 43L1 43L1 42L0 42L0 44L1 44L1 46L0 46L0 48L5 48L5 47L7 47L7 48L6 48L6 49L7 49L7 48L10 48L10 47L11 47L11 49L8 49L8 50L11 50L11 51L10 51L10 52L13 52L13 53L10 53L10 54L8 54L8 57L9 57L9 56L10 56L10 57L12 57L12 56L11 56L11 55L12 55L12 54L15 54L15 56L14 56L14 55L13 55L13 57L17 57L17 55L18 55L18 57L19 57L19 55L18 55L18 53L19 53L19 51L20 51L20 53L21 53L21 54L20 54L20 55L21 55L21 54L22 54L22 53L23 53L23 55L22 55L22 57L25 57L25 55L24 55L24 54L26 54L26 55L27 55L27 56L26 56L26 57L28 57L28 55L29 55L29 57L33 57L33 55L30 55L30 54L31 54L31 53L32 53L32 54L34 54L34 57L35 57L35 55L37 55L37 54L36 54L36 53L37 53L37 51L38 51L38 52L40 52L40 53L39 53L39 55L40 55L40 57L42 57L42 56L44 56L44 57L46 57L46 56L48 56L48 57L50 57L50 55L49 55L49 54L52 54L52 55L53 55L53 54L54 54L54 55L57 55L57 54L54 54L54 53L55 53L55 52L54 52L54 51L53 51L53 50L54 50L54 46L55 46L55 45L54 45L54 46L51 46L51 44L52 44L52 40L51 40L51 39L53 39L53 40L54 40L54 41L53 41L53 44L54 44L54 43L55 43L55 42L54 42L54 41L56 41L56 43L57 43L57 40L54 40L54 39L53 39L53 38L54 38L54 37L55 37L55 38L57 38L57 37L55 37L55 36L54 36L54 34L53 34L53 36L51 36L51 33L50 33L50 32L49 32L49 31L53 31L53 33L54 33L54 30L56 30L56 31L55 31L55 33L56 33L56 36L57 36L57 33L56 33L56 31L57 31L57 29L56 29L56 28L57 28L57 24L56 24L56 23L57 23L57 21L56 21L56 23L55 23L55 21L54 21L54 19L55 19L55 18L56 18L56 19L57 19L57 18L56 18L56 17L57 17L57 13L56 13L56 12L55 12L55 13L56 13L56 15L55 15L55 16L54 16L54 14L53 14L53 12L54 12L54 11L55 11L55 9L57 9L57 8L55 8L55 9L54 9L54 10L52 10L52 12L51 12L51 10L50 10L50 9L53 9L53 8L49 8L49 10L48 10L48 7L49 7L49 6L48 6L48 7L47 7L47 5L48 5L48 0L42 0L42 1L41 1L41 0L38 0L38 2L37 2L37 1L35 1L35 0L34 0L34 2L33 2L33 6L32 6L32 7L33 7L33 6L34 6L34 8L32 8L32 9L31 9L31 5L32 5L32 2L31 2L31 1L32 1L32 0L30 0L30 1L29 1L29 0L28 0L28 1L29 1L29 2L27 2L27 0L26 0L26 1L25 1L25 0L24 0L24 1L23 1L23 0L20 0L20 2L21 2L21 5L20 5L20 7L19 7L19 4L18 4L18 3L17 3L17 2L19 2L19 0L18 0L18 1L17 1L17 0L16 0L16 2L15 2L15 0ZM13 1L13 3L14 3L14 4L15 4L15 3L14 3L14 1ZM24 1L24 4L25 4L25 1ZM39 1L39 2L40 2L40 4L39 4L39 3L38 3L38 4L37 4L37 2L34 2L34 4L35 4L35 9L34 9L34 10L33 10L33 9L32 9L32 11L34 11L34 12L35 12L35 13L34 13L34 15L33 15L33 13L32 13L32 12L30 12L30 11L31 11L31 9L30 9L30 11L29 11L29 12L30 12L30 13L29 13L29 15L28 15L28 14L25 14L25 12L24 12L24 10L25 10L25 11L26 11L26 13L27 13L27 12L28 12L28 11L27 11L27 10L29 10L29 9L27 9L27 10L25 10L25 9L26 9L26 5L24 5L24 6L23 6L23 8L24 8L24 10L23 10L23 9L22 9L22 5L21 5L21 9L20 9L20 10L19 10L19 11L18 11L18 12L20 12L20 11L21 11L21 13L20 13L20 14L22 14L22 16L23 16L23 12L24 12L24 14L25 14L25 15L24 15L24 18L26 18L26 20L25 20L25 19L24 19L24 20L25 20L25 21L26 21L26 20L27 20L27 21L28 21L28 22L26 22L26 23L29 23L29 25L28 25L28 24L27 24L27 25L26 25L26 26L27 26L27 25L28 25L28 26L29 26L29 25L30 25L30 26L31 26L31 25L32 25L32 28L31 28L31 29L32 29L32 28L33 28L33 29L34 29L34 34L33 34L33 35L35 35L35 36L34 36L34 39L33 39L33 38L31 38L31 40L30 40L30 36L31 36L31 37L32 37L32 36L31 36L31 35L32 35L32 34L31 34L31 33L32 33L32 31L33 31L33 30L32 30L32 31L31 31L31 32L30 32L30 34L31 34L31 35L28 35L28 34L29 34L29 31L27 31L27 33L26 33L26 30L25 30L25 28L24 28L24 31L23 31L23 32L24 32L24 34L26 34L26 35L28 35L28 36L27 36L27 38L26 38L26 37L24 37L24 36L25 36L25 35L22 35L22 34L23 34L23 33L22 33L22 30L23 30L23 29L22 29L22 30L21 30L21 25L22 25L22 24L23 24L23 25L24 25L24 26L23 26L23 27L22 27L22 28L23 28L23 27L24 27L24 26L25 26L25 25L24 25L24 24L23 24L23 21L22 21L22 19L21 19L21 17L20 17L20 19L19 19L19 21L18 21L18 20L17 20L17 21L18 21L18 22L19 22L19 24L20 24L20 28L18 28L18 27L19 27L19 25L18 25L18 23L17 23L17 22L16 22L16 23L17 23L17 25L16 25L16 26L17 26L17 27L16 27L16 28L15 28L15 26L14 26L14 28L15 28L15 30L17 30L17 31L16 31L16 32L17 32L17 33L16 33L16 34L13 34L13 32L14 32L14 30L13 30L13 29L11 29L11 28L9 28L9 29L11 29L11 31L10 31L10 32L11 32L11 33L9 33L9 32L7 32L7 31L5 31L5 32L7 32L7 33L8 33L8 34L7 34L7 35L9 35L9 36L10 36L10 39L9 39L9 37L6 37L6 38L5 38L5 37L4 37L4 38L5 38L5 39L4 39L4 40L7 40L7 41L6 41L6 42L8 42L8 41L9 41L9 43L8 43L8 44L7 44L7 43L5 43L5 42L4 42L4 44L3 44L3 45L2 45L2 46L1 46L1 47L2 47L2 46L3 46L3 47L5 47L5 45L4 45L4 44L7 44L7 45L6 45L6 46L8 46L8 47L10 47L10 46L13 46L13 47L12 47L12 50L13 50L13 51L15 51L15 50L16 50L16 51L17 51L17 50L19 50L19 49L20 49L20 51L21 51L21 53L22 53L22 52L24 52L24 51L25 51L25 53L26 53L26 54L27 54L27 55L28 55L28 53L26 53L26 51L25 51L25 50L26 50L26 49L25 49L25 47L24 47L24 46L26 46L26 48L28 48L28 46L29 46L29 48L31 48L31 49L32 49L32 50L31 50L31 52L32 52L32 50L33 50L33 51L34 51L34 50L35 50L35 51L37 51L37 49L36 49L36 48L37 48L37 47L38 47L38 51L39 51L39 49L40 49L40 51L41 51L41 52L42 52L42 54L40 54L40 55L42 55L42 54L43 54L43 55L44 55L44 56L46 56L46 55L48 55L48 54L49 54L49 53L48 53L48 54L47 54L47 52L48 52L48 51L47 51L47 52L46 52L46 50L47 50L47 49L46 49L46 48L47 48L47 46L49 46L49 47L50 47L50 45L49 45L49 44L50 44L50 42L49 42L49 41L51 41L51 40L48 40L48 39L50 39L50 38L51 38L51 37L50 37L50 33L49 33L49 36L48 36L48 37L46 37L46 36L45 36L45 37L46 37L46 38L45 38L45 39L46 39L46 38L47 38L47 40L48 40L48 41L46 41L46 40L45 40L45 41L44 41L44 42L43 42L43 38L44 38L44 34L45 34L45 35L46 35L46 34L48 34L48 33L47 33L47 30L48 30L48 29L47 29L47 28L48 28L48 26L49 26L49 25L48 25L48 23L49 23L49 22L50 22L50 26L51 26L51 25L52 25L52 26L53 26L53 25L52 25L52 23L54 23L54 24L55 24L55 25L54 25L54 26L55 26L55 27L54 27L54 28L53 28L53 30L54 30L54 29L55 29L55 27L56 27L56 26L55 26L55 25L56 25L56 24L55 24L55 23L54 23L54 22L52 22L52 20L53 20L53 19L54 19L54 16L53 16L53 18L52 18L52 17L51 17L51 14L52 14L52 15L53 15L53 14L52 14L52 13L50 13L50 10L49 10L49 11L48 11L48 14L47 14L47 13L46 13L46 11L47 11L47 7L46 7L46 5L47 5L47 3L46 3L46 5L44 5L44 4L45 4L45 2L47 2L47 1L42 1L42 2L40 2L40 1ZM22 2L22 4L23 4L23 2ZM30 2L30 3L28 3L28 4L30 4L30 3L31 3L31 2ZM43 2L43 4L42 4L42 3L41 3L41 6L40 6L40 7L39 7L39 6L38 6L38 8L37 8L37 6L36 6L36 10L34 10L34 11L35 11L35 12L36 12L36 13L37 13L37 14L36 14L36 18L34 18L34 17L35 17L35 15L34 15L34 17L33 17L33 15L32 15L32 13L31 13L31 16L30 16L30 15L29 15L29 16L30 16L30 17L28 17L28 18L30 18L30 17L33 17L33 18L32 18L32 19L31 19L31 20L32 20L32 21L33 21L33 22L31 22L31 23L32 23L32 25L33 25L33 26L34 26L34 24L36 24L36 26L37 26L37 28L36 28L36 27L34 27L34 29L35 29L35 28L36 28L36 30L35 30L35 31L36 31L36 33L35 33L35 35L36 35L36 37L35 37L35 38L36 38L36 41L35 41L35 39L34 39L34 41L33 41L33 40L32 40L32 46L30 46L30 47L31 47L31 48L32 48L32 49L33 49L33 50L34 50L34 48L35 48L35 47L37 47L37 46L38 46L38 45L37 45L37 44L40 44L40 46L39 46L39 47L40 47L40 49L41 49L41 51L43 51L43 52L44 52L44 55L46 55L46 52L45 52L45 50L46 50L46 49L45 49L45 48L44 48L44 49L43 49L43 50L42 50L42 49L41 49L41 47L42 47L42 45L43 45L43 44L44 44L44 46L43 46L43 47L44 47L44 46L45 46L45 47L46 47L46 44L47 44L47 45L48 45L48 44L49 44L49 42L48 42L48 43L46 43L46 41L45 41L45 42L44 42L44 43L43 43L43 42L42 42L42 40L41 40L41 35L40 35L40 36L38 36L38 35L39 35L39 34L38 34L38 33L39 33L39 32L40 32L40 34L42 34L42 33L43 33L43 34L44 34L44 33L45 33L45 34L46 34L46 30L44 30L44 29L46 29L46 28L47 28L47 26L48 26L48 25L47 25L47 24L46 24L46 25L45 25L45 24L44 24L44 23L46 23L46 19L44 19L44 17L47 17L47 19L48 19L48 21L47 21L47 23L48 23L48 21L49 21L49 20L51 20L51 18L50 18L50 16L49 16L49 15L50 15L50 13L49 13L49 14L48 14L48 15L46 15L46 13L45 13L45 12L44 12L44 14L43 14L43 16L44 16L44 17L43 17L43 18L42 18L42 17L41 17L41 15L42 15L42 12L43 12L43 11L44 11L44 9L45 9L45 8L46 8L46 7L45 7L45 6L44 6L44 5L43 5L43 4L44 4L44 2ZM16 3L16 4L17 4L17 3ZM26 3L26 4L27 4L27 3ZM35 3L35 4L36 4L36 3ZM38 4L38 5L39 5L39 4ZM16 5L16 6L17 6L17 5ZM27 5L27 8L30 8L30 5ZM24 6L24 7L25 7L25 6ZM28 6L28 7L29 7L29 6ZM41 6L41 7L40 7L40 8L38 8L38 10L37 10L37 11L36 11L36 12L37 12L37 13L38 13L38 15L37 15L37 16L38 16L38 18L40 18L40 19L39 19L39 20L38 20L38 22L37 22L37 21L36 21L36 20L35 20L35 19L34 19L34 18L33 18L33 19L34 19L34 20L33 20L33 21L34 21L34 22L35 22L35 23L36 23L36 24L37 24L37 25L38 25L38 26L39 26L39 27L40 27L40 28L39 28L39 29L38 29L38 28L37 28L37 30L36 30L36 31L37 31L37 32L38 32L38 31L40 31L40 32L41 32L41 33L42 33L42 31L44 31L44 30L43 30L43 28L42 28L42 31L40 31L40 30L41 30L41 29L40 29L40 28L41 28L41 27L43 27L43 25L44 25L44 24L43 24L43 23L44 23L44 22L45 22L45 21L44 21L44 19L41 19L41 18L40 18L40 15L41 15L41 13L40 13L40 15L39 15L39 12L37 12L37 11L38 11L38 10L40 10L40 11L41 11L41 12L42 12L42 11L43 11L43 9L44 9L44 8L42 8L42 6ZM43 6L43 7L44 7L44 6ZM40 8L40 9L41 9L41 11L42 11L42 8ZM2 9L2 10L1 10L1 11L2 11L2 10L3 10L3 11L4 11L4 12L3 12L3 14L1 14L1 15L2 15L2 16L4 16L4 17L6 17L6 18L7 18L7 19L6 19L6 20L7 20L7 19L8 19L8 18L7 18L7 17L9 17L9 18L10 18L10 17L11 17L11 16L7 16L7 15L6 15L6 14L7 14L7 13L6 13L6 14L5 14L5 15L6 15L6 16L4 16L4 12L5 12L5 10L3 10L3 9ZM11 9L11 10L12 10L12 9ZM56 10L56 11L57 11L57 10ZM6 11L6 12L7 12L7 11ZM11 11L11 12L12 12L12 11ZM22 11L22 12L23 12L23 11ZM1 12L1 13L2 13L2 12ZM18 13L18 14L17 14L17 15L15 15L15 16L17 16L17 17L16 17L16 19L18 19L18 18L19 18L19 17L18 17L18 14L19 14L19 13ZM20 15L20 16L21 16L21 15ZM25 15L25 17L26 17L26 18L27 18L27 17L26 17L26 15ZM44 15L44 16L45 16L45 15ZM6 16L6 17L7 17L7 16ZM48 16L48 19L49 19L49 16ZM55 16L55 17L56 17L56 16ZM1 18L1 19L2 19L2 18ZM36 18L36 19L37 19L37 18ZM14 19L14 20L15 20L15 19ZM20 19L20 21L21 21L21 22L20 22L20 23L21 23L21 24L22 24L22 23L21 23L21 22L22 22L22 21L21 21L21 19ZM27 19L27 20L28 20L28 21L29 21L29 22L30 22L30 21L29 21L29 20L28 20L28 19ZM40 19L40 22L41 22L41 23L39 23L39 22L38 22L38 23L39 23L39 24L40 24L40 25L39 25L39 26L40 26L40 27L41 27L41 24L42 24L42 23L43 23L43 22L44 22L44 21L43 21L43 22L42 22L42 20L41 20L41 19ZM8 20L8 21L6 21L6 22L8 22L8 24L7 24L7 23L6 23L6 24L7 24L7 25L6 25L6 26L9 26L9 27L10 27L10 26L9 26L9 25L8 25L8 24L9 24L9 21L10 21L10 20ZM34 20L34 21L35 21L35 22L36 22L36 23L37 23L37 22L36 22L36 21L35 21L35 20ZM12 21L12 22L13 22L13 21ZM14 21L14 23L15 23L15 21ZM24 22L24 23L25 23L25 22ZM51 22L51 23L52 23L52 22ZM10 23L10 24L11 24L11 23ZM12 23L12 24L13 24L13 23ZM33 23L33 24L34 24L34 23ZM12 25L12 26L11 26L11 27L12 27L12 26L13 26L13 25ZM17 25L17 26L18 26L18 25ZM46 25L46 26L47 26L47 25ZM5 27L5 30L8 30L8 27ZM27 27L27 30L30 30L30 27ZM49 27L49 30L52 30L52 27ZM6 28L6 29L7 29L7 28ZM28 28L28 29L29 29L29 28ZM50 28L50 29L51 29L51 28ZM1 29L1 32L0 32L0 33L1 33L1 32L2 32L2 29ZM19 29L19 30L18 30L18 31L17 31L17 32L18 32L18 33L17 33L17 35L18 35L18 37L19 37L19 39L18 39L18 38L16 38L16 39L18 39L18 42L17 42L17 43L16 43L16 41L17 41L17 40L16 40L16 41L15 41L15 40L14 40L14 42L15 42L15 44L13 44L13 40L12 40L12 39L15 39L15 37L14 37L14 36L15 36L15 35L14 35L14 36L13 36L13 35L12 35L12 34L11 34L11 35L12 35L12 36L11 36L11 38L12 38L12 39L10 39L10 40L9 40L9 39L8 39L8 38L6 38L6 39L7 39L7 40L9 40L9 41L10 41L10 43L12 43L12 44L11 44L11 45L12 45L12 44L13 44L13 46L14 46L14 47L13 47L13 50L14 50L14 49L15 49L15 46L16 46L16 47L17 47L17 48L18 48L18 49L19 49L19 48L20 48L20 49L21 49L21 48L22 48L22 51L24 51L24 49L23 49L23 48L24 48L24 47L23 47L23 48L22 48L22 46L20 46L20 45L19 45L19 44L20 44L20 43L19 43L19 42L20 42L20 41L21 41L21 40L22 40L22 41L23 41L23 43L22 43L22 44L24 44L24 40L22 40L22 38L23 38L23 36L22 36L22 38L21 38L21 36L20 36L20 33L21 33L21 32L20 32L20 31L21 31L21 30L20 30L20 29ZM37 30L37 31L38 31L38 30ZM11 31L11 32L13 32L13 31ZM18 31L18 32L19 32L19 31ZM24 31L24 32L25 32L25 31ZM27 33L27 34L28 34L28 33ZM36 33L36 35L38 35L38 34L37 34L37 33ZM9 34L9 35L10 35L10 34ZM18 34L18 35L19 35L19 34ZM42 35L42 37L43 37L43 35ZM12 36L12 37L13 37L13 36ZM16 36L16 37L17 37L17 36ZM28 36L28 37L29 37L29 36ZM53 36L53 37L52 37L52 38L53 38L53 37L54 37L54 36ZM36 37L36 38L37 38L37 37ZM38 37L38 39L37 39L37 41L36 41L36 44L33 44L33 45L34 45L34 47L33 47L33 46L32 46L32 47L33 47L33 48L34 48L34 47L35 47L35 45L36 45L36 44L37 44L37 43L39 43L39 42L40 42L40 44L41 44L41 45L42 45L42 44L43 44L43 43L41 43L41 42L40 42L40 38L39 38L39 37ZM49 37L49 38L50 38L50 37ZM20 38L20 39L21 39L21 38ZM24 38L24 39L26 39L26 40L25 40L25 41L26 41L26 42L25 42L25 45L26 45L26 46L27 46L27 44L29 44L29 45L30 45L30 43L31 43L31 41L30 41L30 40L29 40L29 41L30 41L30 43L28 43L28 40L27 40L27 39L26 39L26 38ZM28 38L28 39L29 39L29 38ZM38 39L38 41L37 41L37 42L38 42L38 41L39 41L39 39ZM0 40L0 41L1 41L1 40ZM10 40L10 41L12 41L12 40ZM19 40L19 41L20 41L20 40ZM34 41L34 42L35 42L35 41ZM18 43L18 44L19 44L19 43ZM44 43L44 44L45 44L45 43ZM8 44L8 45L9 45L9 46L10 46L10 44ZM15 44L15 45L14 45L14 46L15 46L15 45L16 45L16 46L17 46L17 45L16 45L16 44ZM56 44L56 47L55 47L55 49L56 49L56 52L57 52L57 49L56 49L56 47L57 47L57 44ZM18 45L18 48L19 48L19 47L20 47L20 48L21 48L21 47L20 47L20 46L19 46L19 45ZM23 45L23 46L24 46L24 45ZM40 46L40 47L41 47L41 46ZM27 49L27 52L30 52L30 49ZM44 49L44 50L43 50L43 51L44 51L44 50L45 50L45 49ZM49 49L49 52L52 52L52 49ZM28 50L28 51L29 51L29 50ZM50 50L50 51L51 51L51 50ZM8 51L8 52L9 52L9 51ZM14 52L14 53L15 53L15 52ZM17 52L17 53L18 53L18 52ZM33 52L33 53L34 53L34 54L35 54L35 53L36 53L36 52L35 52L35 53L34 53L34 52ZM10 54L10 55L11 55L11 54ZM16 54L16 55L17 55L17 54ZM20 56L20 57L21 57L21 56ZM36 56L36 57L37 57L37 56ZM51 56L51 57L53 57L53 56ZM56 56L56 57L57 57L57 56ZM0 0L0 7L7 7L7 0ZM1 1L1 6L6 6L6 1ZM2 2L2 5L5 5L5 2ZM50 0L50 7L57 7L57 0ZM51 1L51 6L56 6L56 1ZM52 2L52 5L55 5L55 2ZM0 50L0 57L7 57L7 50ZM1 51L1 56L6 56L6 51ZM2 52L2 55L5 55L5 52Z" fill="#000000"/></g></g></svg>
