<?xml version="1.0" encoding="UTF-8"?>
<svg xmlns="http://www.w3.org/2000/svg" version="1.1" width="300" height="300" viewBox="0 0 300 300"><rect x="0" y="0" width="300" height="300" fill="#fefefe"/><g transform="scale(4.615)"><g transform="translate(4,4)"><path fill-rule="evenodd" d="M8 0L8 1L9 1L9 2L8 2L8 5L9 5L9 6L8 6L8 7L9 7L9 8L8 8L8 9L9 9L9 10L10 10L10 11L8 11L8 12L5 12L5 11L7 11L7 10L4 10L4 8L0 8L0 9L2 9L2 10L4 10L4 12L5 12L5 14L4 14L4 13L2 13L2 14L1 14L1 16L0 16L0 17L1 17L1 20L0 20L0 21L2 21L2 22L3 22L3 23L4 23L4 24L2 24L2 27L3 27L3 26L4 26L4 28L1 28L1 29L2 29L2 30L3 30L3 31L2 31L2 32L1 32L1 35L0 35L0 39L1 39L1 40L0 40L0 43L3 43L3 39L1 39L1 38L2 38L2 36L3 36L3 38L5 38L5 34L6 34L6 35L8 35L8 33L7 33L7 32L9 32L9 34L10 34L10 35L12 35L12 36L11 36L11 37L9 37L9 36L6 36L6 37L9 37L9 38L8 38L8 39L10 39L10 40L6 40L6 39L7 39L7 38L6 38L6 39L5 39L5 40L4 40L4 42L6 42L6 43L4 43L4 44L0 44L0 48L5 48L5 47L7 47L7 48L6 48L6 49L7 49L7 48L8 48L8 46L9 46L9 48L10 48L10 46L9 46L9 43L11 43L11 42L13 42L13 43L12 43L12 45L13 45L13 48L12 48L12 49L8 49L8 50L11 50L11 52L10 52L10 51L9 51L9 53L8 53L8 57L9 57L9 55L10 55L10 56L11 56L11 53L14 53L14 54L15 54L15 56L13 56L13 55L12 55L12 57L15 57L15 56L16 56L16 57L18 57L18 55L20 55L20 57L23 57L23 56L22 56L22 55L23 55L23 54L25 54L25 55L24 55L24 56L26 56L26 54L27 54L27 53L29 53L29 54L31 54L31 55L30 55L30 56L31 56L31 57L32 57L32 55L33 55L33 54L36 54L36 55L34 55L34 56L33 56L33 57L36 57L36 55L38 55L38 57L41 57L41 55L42 55L42 57L43 57L43 55L44 55L44 56L45 56L45 55L44 55L44 54L47 54L47 55L46 55L46 56L47 56L47 57L48 57L48 56L47 56L47 55L49 55L49 57L51 57L51 54L52 54L52 53L54 53L54 52L57 52L57 51L56 51L56 49L57 49L57 48L56 48L56 49L55 49L55 48L54 48L54 47L53 47L53 46L54 46L54 45L55 45L55 44L56 44L56 46L55 46L55 47L57 47L57 43L56 43L56 42L54 42L54 40L55 40L55 39L50 39L50 38L52 38L52 36L53 36L53 37L55 37L55 38L56 38L56 39L57 39L57 38L56 38L56 37L55 37L55 36L57 36L57 34L55 34L55 33L57 33L57 31L56 31L56 30L57 30L57 27L56 27L56 30L55 30L55 32L54 32L54 34L52 34L52 32L53 32L53 31L54 31L54 30L53 30L53 28L54 28L54 29L55 29L55 27L53 27L53 26L51 26L51 25L49 25L49 26L48 26L48 27L47 27L47 26L46 26L46 25L44 25L44 24L43 24L43 23L45 23L45 24L46 24L46 23L47 23L47 22L49 22L49 20L50 20L50 21L51 21L51 22L52 22L52 24L53 24L53 25L56 25L56 24L54 24L54 23L53 23L53 22L54 22L54 21L55 21L55 20L54 20L54 21L53 21L53 20L50 20L50 18L49 18L49 19L47 19L47 22L46 22L46 19L45 19L45 18L48 18L48 17L49 17L49 16L50 16L50 17L51 17L51 18L52 18L52 19L56 19L56 18L55 18L55 17L57 17L57 15L55 15L55 14L53 14L53 13L54 13L54 10L53 10L53 9L55 9L55 8L52 8L52 10L50 10L50 8L49 8L49 6L48 6L48 7L47 7L47 5L48 5L48 0L46 0L46 1L47 1L47 2L46 2L46 3L47 3L47 5L46 5L46 4L44 4L44 3L45 3L45 1L44 1L44 2L42 2L42 3L41 3L41 4L39 4L39 3L38 3L38 2L37 2L37 1L38 1L38 0L37 0L37 1L36 1L36 0L35 0L35 1L34 1L34 2L35 2L35 4L36 4L36 5L37 5L37 6L36 6L36 7L35 7L35 6L34 6L34 4L33 4L33 6L32 6L32 5L31 5L31 4L32 4L32 3L33 3L33 0L29 0L29 1L27 1L27 3L28 3L28 2L29 2L29 3L30 3L30 4L26 4L26 1L25 1L25 0L23 0L23 1L22 1L22 0L21 0L21 1L20 1L20 0L17 0L17 1L15 1L15 2L17 2L17 5L15 5L15 4L14 4L14 3L12 3L12 4L14 4L14 5L11 5L11 3L10 3L10 5L9 5L9 2L13 2L13 0L11 0L11 1L9 1L9 0ZM39 0L39 1L40 1L40 2L41 2L41 1L43 1L43 0L41 0L41 1L40 1L40 0ZM17 1L17 2L18 2L18 3L19 3L19 4L20 4L20 5L22 5L22 4L23 4L23 3L24 3L24 2L25 2L25 1L23 1L23 2L22 2L22 1L21 1L21 2L19 2L19 1ZM29 1L29 2L30 2L30 3L31 3L31 1ZM35 1L35 2L36 2L36 1ZM24 4L24 6L23 6L23 7L22 7L22 6L21 6L21 7L20 7L20 6L19 6L19 7L20 7L20 10L18 10L18 9L19 9L19 8L18 8L18 9L17 9L17 7L18 7L18 6L17 6L17 7L16 7L16 6L15 6L15 5L14 5L14 6L13 6L13 8L12 8L12 9L11 9L11 8L9 8L9 9L10 9L10 10L11 10L11 11L10 11L10 12L9 12L9 14L7 14L7 13L6 13L6 14L7 14L7 15L6 15L6 16L7 16L7 17L5 17L5 15L3 15L3 14L2 14L2 16L1 16L1 17L2 17L2 18L3 18L3 19L4 19L4 18L5 18L5 20L4 20L4 21L3 21L3 20L2 20L2 21L3 21L3 22L4 22L4 21L5 21L5 20L7 20L7 19L6 19L6 18L9 18L9 17L8 17L8 15L9 15L9 16L10 16L10 15L11 15L11 17L10 17L10 18L11 18L11 20L12 20L12 21L13 21L13 19L15 19L15 20L14 20L14 22L11 22L11 21L10 21L10 22L7 22L7 21L6 21L6 22L5 22L5 23L6 23L6 24L4 24L4 25L5 25L5 26L7 26L7 25L6 25L6 24L8 24L8 23L9 23L9 24L11 24L11 23L13 23L13 24L12 24L12 25L13 25L13 26L12 26L12 27L10 27L10 26L9 26L9 25L8 25L8 26L9 26L9 28L12 28L12 27L14 27L14 28L17 28L17 30L16 30L16 29L15 29L15 30L14 30L14 29L13 29L13 32L12 32L12 31L10 31L10 29L9 29L9 32L10 32L10 33L11 33L11 34L12 34L12 33L13 33L13 34L15 34L15 35L14 35L14 36L12 36L12 37L11 37L11 38L10 38L10 39L12 39L12 41L14 41L14 40L15 40L15 39L14 39L14 40L13 40L13 37L14 37L14 36L15 36L15 38L17 38L17 39L16 39L16 41L17 41L17 39L18 39L18 38L19 38L19 37L20 37L20 38L21 38L21 37L22 37L22 41L20 41L20 40L18 40L18 41L19 41L19 43L18 43L18 42L17 42L17 45L14 45L14 43L15 43L15 42L14 42L14 43L13 43L13 45L14 45L14 48L13 48L13 50L12 50L12 52L14 52L14 53L16 53L16 54L17 54L17 53L18 53L18 54L19 54L19 52L20 52L20 50L17 50L17 49L16 49L16 47L17 47L17 48L19 48L19 49L21 49L21 50L22 50L22 49L23 49L23 51L21 51L21 52L22 52L22 53L20 53L20 55L22 55L22 53L23 53L23 52L24 52L24 53L25 53L25 52L26 52L26 48L28 48L28 47L27 47L27 46L29 46L29 48L32 48L32 49L31 49L31 50L33 50L33 53L36 53L36 54L39 54L39 53L37 53L37 51L36 51L36 52L35 52L35 51L34 51L34 50L35 50L35 48L37 48L37 49L36 49L36 50L37 50L37 49L38 49L38 48L39 48L39 49L40 49L40 50L39 50L39 51L38 51L38 52L40 52L40 54L41 54L41 52L40 52L40 51L46 51L46 50L47 50L47 52L46 52L46 53L47 53L47 54L50 54L50 53L47 53L47 52L48 52L48 48L46 48L46 46L47 46L47 47L49 47L49 46L50 46L50 45L48 45L48 43L47 43L47 44L44 44L44 43L45 43L45 41L46 41L46 40L45 40L45 41L42 41L42 42L41 42L41 43L42 43L42 45L43 45L43 46L45 46L45 48L44 48L44 50L43 50L43 47L40 47L40 46L41 46L41 45L38 45L38 44L40 44L40 42L39 42L39 41L37 41L37 40L38 40L38 39L39 39L39 40L40 40L40 41L41 41L41 40L43 40L43 39L39 39L39 38L38 38L38 39L37 39L37 37L38 37L38 36L37 36L37 37L34 37L34 38L36 38L36 39L35 39L35 40L34 40L34 41L36 41L36 42L34 42L34 43L36 43L36 45L35 45L35 44L34 44L34 45L33 45L33 42L32 42L32 46L31 46L31 44L30 44L30 46L29 46L29 44L27 44L27 42L25 42L25 41L26 41L26 39L25 39L25 38L26 38L26 37L24 37L24 39L23 39L23 36L26 36L26 35L25 35L25 34L28 34L28 35L29 35L29 36L27 36L27 38L29 38L29 36L32 36L32 38L30 38L30 39L28 39L28 41L29 41L29 42L30 42L30 41L31 41L31 40L33 40L33 39L32 39L32 38L33 38L33 36L36 36L36 35L35 35L35 33L34 33L34 32L35 32L35 31L34 31L34 32L32 32L32 31L33 31L33 30L32 30L32 29L31 29L31 34L30 34L30 35L29 35L29 33L30 33L30 31L29 31L29 32L28 32L28 31L26 31L26 32L25 32L25 34L24 34L24 35L22 35L22 34L23 34L23 33L24 33L24 32L23 32L23 33L22 33L22 34L21 34L21 32L22 32L22 31L25 31L25 30L26 30L26 28L25 28L25 29L24 29L24 30L21 30L21 29L23 29L23 27L22 27L22 25L23 25L23 26L24 26L24 27L25 27L25 25L29 25L29 26L31 26L31 23L32 23L32 22L34 22L34 23L33 23L33 24L32 24L32 25L33 25L33 24L35 24L35 23L36 23L36 24L37 24L37 22L35 22L35 21L34 21L34 19L32 19L32 20L31 20L31 23L30 23L30 20L29 20L29 19L28 19L28 18L29 18L29 17L30 17L30 19L31 19L31 18L33 18L33 17L31 17L31 16L29 16L29 15L28 15L28 16L29 16L29 17L26 17L26 16L27 16L27 13L26 13L26 12L28 12L28 13L30 13L30 14L31 14L31 15L32 15L32 16L33 16L33 15L35 15L35 16L34 16L34 17L35 17L35 20L36 20L36 21L38 21L38 23L39 23L39 24L38 24L38 25L39 25L39 26L38 26L38 27L39 27L39 28L40 28L40 29L38 29L38 30L37 30L37 27L35 27L35 25L34 25L34 27L35 27L35 28L34 28L34 29L36 29L36 31L37 31L37 32L36 32L36 33L37 33L37 32L38 32L38 34L39 34L39 31L38 31L38 30L41 30L41 31L40 31L40 32L41 32L41 31L43 31L43 30L44 30L44 33L45 33L45 35L46 35L46 34L48 34L48 35L49 35L49 34L50 34L50 33L49 33L49 32L50 32L50 31L49 31L49 32L48 32L48 29L47 29L47 31L45 31L45 30L46 30L46 27L45 27L45 29L42 29L42 30L41 30L41 27L42 27L42 28L43 28L43 27L42 27L42 26L44 26L44 25L43 25L43 24L42 24L42 23L43 23L43 22L42 22L42 23L39 23L39 20L40 20L40 19L39 19L39 18L41 18L41 19L42 19L42 20L41 20L41 21L42 21L42 20L43 20L43 21L44 21L44 22L45 22L45 19L44 19L44 18L45 18L45 17L46 17L46 16L47 16L47 14L48 14L48 16L49 16L49 12L47 12L47 11L46 11L46 10L47 10L47 9L46 9L46 5L43 5L43 4L42 4L42 5L43 5L43 8L42 8L42 6L41 6L41 7L40 7L40 5L38 5L38 6L37 6L37 8L36 8L36 9L34 9L34 6L33 6L33 8L32 8L32 6L31 6L31 9L32 9L32 10L31 10L31 11L32 11L32 14L31 14L31 12L30 12L30 11L29 11L29 9L27 9L27 10L26 10L26 11L25 11L25 12L24 12L24 11L21 11L21 14L19 14L19 13L20 13L20 12L19 12L19 11L20 11L20 10L21 10L21 8L23 8L23 7L24 7L24 9L26 9L26 6L25 6L25 5L26 5L26 4ZM10 5L10 6L9 6L9 7L10 7L10 6L11 6L11 7L12 7L12 6L11 6L11 5ZM27 5L27 8L30 8L30 5ZM14 6L14 7L15 7L15 6ZM24 6L24 7L25 7L25 6ZM28 6L28 7L29 7L29 6ZM38 6L38 7L39 7L39 9L41 9L41 10L39 10L39 11L38 11L38 9L37 9L37 11L38 11L38 12L36 12L36 10L35 10L35 11L34 11L34 10L33 10L33 14L32 14L32 15L33 15L33 14L34 14L34 12L35 12L35 14L36 14L36 15L39 15L39 17L40 17L40 16L41 16L41 15L39 15L39 14L40 14L40 11L41 11L41 10L43 10L43 9L42 9L42 8L40 8L40 7L39 7L39 6ZM44 6L44 7L45 7L45 6ZM6 8L6 9L7 9L7 8ZM15 8L15 11L14 11L14 9L12 9L12 11L13 11L13 13L12 13L12 12L11 12L11 13L10 13L10 14L12 14L12 15L14 15L14 16L13 16L13 17L12 17L12 19L13 19L13 18L17 18L17 19L16 19L16 23L15 23L15 22L14 22L14 24L13 24L13 25L14 25L14 24L15 24L15 27L16 27L16 23L17 23L17 22L19 22L19 24L17 24L17 25L19 25L19 26L17 26L17 27L19 27L19 28L18 28L18 29L21 29L21 28L20 28L20 27L19 27L19 26L21 26L21 24L20 24L20 23L22 23L22 24L23 24L23 25L25 25L25 22L27 22L27 23L26 23L26 24L27 24L27 23L28 23L28 24L29 24L29 25L30 25L30 23L28 23L28 21L29 21L29 20L27 20L27 18L26 18L26 17L25 17L25 16L26 16L26 15L25 15L25 14L23 14L23 15L24 15L24 16L23 16L23 18L22 18L22 17L21 17L21 16L19 16L19 15L18 15L18 14L16 14L16 15L15 15L15 11L16 11L16 8ZM48 8L48 9L49 9L49 8ZM56 8L56 9L57 9L57 8ZM44 9L44 10L45 10L45 9ZM0 10L0 11L1 11L1 12L3 12L3 11L1 11L1 10ZM17 10L17 12L16 12L16 13L17 13L17 12L18 12L18 13L19 13L19 12L18 12L18 10ZM27 10L27 11L28 11L28 10ZM48 10L48 11L49 11L49 10ZM55 10L55 11L57 11L57 10ZM42 11L42 12L43 12L43 13L44 13L44 12L43 12L43 11ZM51 11L51 12L50 12L50 13L51 13L51 15L50 15L50 16L52 16L52 17L53 17L53 18L54 18L54 17L53 17L53 14L52 14L52 13L53 13L53 11ZM22 12L22 13L24 13L24 12ZM51 12L51 13L52 13L52 12ZM56 12L56 13L57 13L57 12ZM13 13L13 14L14 14L14 13ZM45 13L45 14L42 14L42 17L41 17L41 18L42 18L42 19L43 19L43 18L42 18L42 17L45 17L45 16L46 16L46 15L45 15L45 14L46 14L46 13ZM16 15L16 16L15 16L15 17L17 17L17 18L18 18L18 21L19 21L19 22L23 22L23 21L24 21L24 22L25 22L25 19L24 19L24 18L25 18L25 17L24 17L24 18L23 18L23 19L22 19L22 18L21 18L21 17L19 17L19 16L17 16L17 15ZM44 15L44 16L45 16L45 15ZM3 16L3 18L4 18L4 16ZM36 17L36 18L37 18L37 17ZM36 19L36 20L38 20L38 19ZM21 20L21 21L23 21L23 20ZM26 20L26 21L27 21L27 20ZM56 21L56 22L55 22L55 23L57 23L57 21ZM6 22L6 23L7 23L7 22ZM10 22L10 23L11 23L11 22ZM0 23L0 26L1 26L1 23ZM48 23L48 24L49 24L49 23ZM40 25L40 27L41 27L41 25ZM5 27L5 30L8 30L8 27ZM27 27L27 30L30 30L30 27ZM31 27L31 28L33 28L33 27ZM49 27L49 30L52 30L52 27ZM6 28L6 29L7 29L7 28ZM28 28L28 29L29 29L29 28ZM50 28L50 29L51 29L51 28ZM3 29L3 30L4 30L4 29ZM0 30L0 31L1 31L1 30ZM15 30L15 34L16 34L16 30ZM17 30L17 35L16 35L16 36L17 36L17 37L19 37L19 36L21 36L21 35L18 35L18 34L20 34L20 32L19 32L19 30ZM20 30L20 31L21 31L21 30ZM5 31L5 32L7 32L7 31ZM3 32L3 33L4 33L4 32ZM18 32L18 33L19 33L19 32ZM26 32L26 33L28 33L28 32ZM42 32L42 33L43 33L43 32ZM46 32L46 33L47 33L47 32ZM6 33L6 34L7 34L7 33ZM32 33L32 34L33 34L33 35L32 35L32 36L33 36L33 35L34 35L34 34L33 34L33 33ZM2 34L2 35L4 35L4 34ZM41 34L41 35L39 35L39 36L40 36L40 37L41 37L41 36L42 36L42 34ZM43 34L43 35L44 35L44 34ZM17 35L17 36L18 36L18 35ZM51 35L51 36L49 36L49 37L51 37L51 36L52 36L52 35ZM54 35L54 36L55 36L55 35ZM44 36L44 37L42 37L42 38L44 38L44 39L45 39L45 37L46 37L46 38L48 38L48 36ZM24 39L24 41L25 41L25 39ZM47 39L47 40L49 40L49 39ZM10 40L10 41L6 41L6 42L8 42L8 43L6 43L6 44L7 44L7 45L5 45L5 44L4 44L4 45L2 45L2 46L1 46L1 47L2 47L2 46L3 46L3 47L5 47L5 46L7 46L7 45L8 45L8 43L9 43L9 42L11 42L11 40ZM29 40L29 41L30 41L30 40ZM50 40L50 41L47 41L47 42L50 42L50 43L49 43L49 44L51 44L51 47L50 47L50 48L53 48L53 47L52 47L52 46L53 46L53 45L52 45L52 44L55 44L55 43L54 43L54 42L53 42L53 43L52 43L52 44L51 44L51 42L50 42L50 41L52 41L52 40ZM56 40L56 41L57 41L57 40ZM22 41L22 44L21 44L21 46L20 46L20 44L19 44L19 45L17 45L17 47L18 47L18 46L19 46L19 47L21 47L21 48L23 48L23 49L24 49L24 48L26 48L26 47L24 47L24 46L25 46L25 45L26 45L26 46L27 46L27 45L26 45L26 43L25 43L25 42L23 42L23 41ZM20 42L20 43L21 43L21 42ZM37 42L37 44L38 44L38 43L39 43L39 42ZM42 42L42 43L43 43L43 42ZM23 43L23 44L22 44L22 46L21 46L21 47L22 47L22 46L23 46L23 44L24 44L24 45L25 45L25 44L24 44L24 43ZM10 44L10 45L11 45L11 44ZM4 45L4 46L5 46L5 45ZM36 45L36 46L34 46L34 47L33 47L33 46L32 46L32 48L33 48L33 50L34 50L34 48L35 48L35 47L38 47L38 45ZM15 46L15 47L16 47L16 46ZM41 48L41 49L42 49L42 48ZM14 49L14 50L13 50L13 51L14 51L14 50L15 50L15 49ZM27 49L27 52L30 52L30 49ZM45 49L45 50L46 50L46 49ZM49 49L49 52L52 52L52 49ZM53 49L53 50L55 50L55 49ZM24 50L24 51L25 51L25 50ZM28 50L28 51L29 51L29 50ZM50 50L50 51L51 51L51 50ZM15 51L15 52L16 52L16 51ZM31 51L31 53L32 53L32 51ZM42 52L42 54L43 54L43 52ZM55 53L55 54L56 54L56 53ZM27 55L27 56L28 56L28 55ZM39 55L39 56L40 56L40 55ZM56 55L56 56L57 56L57 55ZM52 56L52 57L53 57L53 56ZM54 56L54 57L55 57L55 56ZM0 0L0 7L7 7L7 0ZM1 1L1 6L6 6L6 1ZM2 2L2 5L5 5L5 2ZM50 0L50 7L57 7L57 0ZM51 1L51 6L56 6L56 1ZM52 2L52 5L55 5L55 2ZM0 50L0 57L7 57L7 50ZM1 51L1 56L6 56L6 51ZM2 52L2 55L5 55L5 52Z" fill="#000000"/></g></g></svg>
