<?xml version="1.0" encoding="UTF-8"?>
<svg xmlns="http://www.w3.org/2000/svg" version="1.1" width="300" height="300" viewBox="0 0 300 300"><rect x="0" y="0" width="300" height="300" fill="#fefefe"/><g transform="scale(4.615)"><g transform="translate(4,4)"><path fill-rule="evenodd" d="M8 0L8 2L10 2L10 3L12 3L12 7L11 7L11 6L10 6L10 7L9 7L9 5L11 5L11 4L8 4L8 10L6 10L6 9L7 9L7 8L5 8L5 9L4 9L4 11L5 11L5 15L4 15L4 14L3 14L3 13L4 13L4 12L3 12L3 13L2 13L2 11L3 11L3 10L2 10L2 11L0 11L0 13L1 13L1 14L2 14L2 15L3 15L3 16L4 16L4 17L7 17L7 16L8 16L8 18L6 18L6 19L8 19L8 18L10 18L10 19L9 19L9 20L5 20L5 21L4 21L4 19L5 19L5 18L3 18L3 17L2 17L2 16L0 16L0 17L2 17L2 18L3 18L3 21L1 21L1 20L2 20L2 19L1 19L1 18L0 18L0 22L1 22L1 23L0 23L0 26L2 26L2 27L1 27L1 28L2 28L2 29L1 29L1 30L0 30L0 32L2 32L2 33L1 33L1 34L2 34L2 33L7 33L7 34L6 34L6 35L3 35L3 36L4 36L4 37L5 37L5 39L4 39L4 44L6 44L6 45L5 45L5 47L3 47L3 46L4 46L4 45L3 45L3 44L2 44L2 40L1 40L1 41L0 41L0 43L1 43L1 44L2 44L2 47L1 47L1 45L0 45L0 48L5 48L5 47L7 47L7 48L6 48L6 49L8 49L8 50L10 50L10 51L8 51L8 52L10 52L10 53L9 53L9 54L8 54L8 57L12 57L12 55L13 55L13 56L14 56L14 55L15 55L15 57L17 57L17 56L18 56L18 57L19 57L19 56L18 56L18 53L19 53L19 51L20 51L20 53L21 53L21 52L22 52L22 54L23 54L23 55L21 55L21 54L20 54L20 55L21 55L21 56L20 56L20 57L21 57L21 56L22 56L22 57L25 57L25 55L24 55L24 54L26 54L26 55L27 55L27 56L26 56L26 57L28 57L28 55L29 55L29 57L33 57L33 55L30 55L30 54L31 54L31 53L32 53L32 54L34 54L34 57L35 57L35 55L37 55L37 54L36 54L36 53L37 53L37 52L38 52L38 53L39 53L39 56L40 56L40 57L41 57L41 55L40 55L40 54L42 54L42 57L43 57L43 56L44 56L44 57L45 57L45 56L46 56L46 57L48 57L48 56L47 56L47 55L46 55L46 52L47 52L47 53L49 53L49 54L48 54L48 55L49 55L49 57L50 57L50 55L49 55L49 54L52 54L52 55L53 55L53 54L54 54L54 55L57 55L57 54L54 54L54 53L55 53L55 52L56 52L56 53L57 53L57 50L56 50L56 47L57 47L57 42L56 42L56 43L55 43L55 42L54 42L54 41L57 41L57 40L54 40L54 39L53 39L53 38L54 38L54 37L55 37L55 38L57 38L57 36L56 36L56 35L57 35L57 34L56 34L56 31L57 31L57 24L56 24L56 23L57 23L57 18L56 18L56 23L55 23L55 24L54 24L54 22L55 22L55 21L54 21L54 19L55 19L55 16L56 16L56 17L57 17L57 13L56 13L56 12L55 12L55 13L53 13L53 12L54 12L54 11L55 11L55 10L56 10L56 11L57 11L57 10L56 10L56 9L57 9L57 8L55 8L55 9L54 9L54 10L53 10L53 8L49 8L49 6L48 6L48 9L47 9L47 8L46 8L46 7L47 7L47 5L48 5L48 0L46 0L46 1L47 1L47 2L45 2L45 4L44 4L44 2L43 2L43 4L42 4L42 1L45 1L45 0L42 0L42 1L41 1L41 0L38 0L38 3L37 3L37 4L38 4L38 5L37 5L37 6L36 6L36 10L34 10L34 9L35 9L35 4L36 4L36 3L35 3L35 2L37 2L37 1L35 1L35 0L34 0L34 2L33 2L33 0L30 0L30 3L31 3L31 4L28 4L28 2L29 2L29 1L28 1L28 0L26 0L26 2L25 2L25 4L24 4L24 1L25 1L25 0L24 0L24 1L23 1L23 0L19 0L19 1L18 1L18 3L17 3L17 2L15 2L15 0L14 0L14 3L12 3L12 2L11 2L11 0L10 0L10 1L9 1L9 0ZM16 0L16 1L17 1L17 0ZM19 1L19 2L20 2L20 1ZM22 1L22 2L21 2L21 3L18 3L18 4L17 4L17 3L16 3L16 4L17 4L17 5L16 5L16 6L15 6L15 5L13 5L13 7L14 7L14 8L13 8L13 10L10 10L10 11L6 11L6 12L8 12L8 13L9 13L9 12L10 12L10 11L11 11L11 12L12 12L12 11L13 11L13 15L11 15L11 16L10 16L10 15L9 15L9 16L10 16L10 18L11 18L11 16L12 16L12 19L13 19L13 17L14 17L14 18L15 18L15 19L14 19L14 20L16 20L16 18L18 18L18 19L17 19L17 22L16 22L16 23L17 23L17 25L16 25L16 24L14 24L14 23L13 23L13 24L14 24L14 25L13 25L13 27L12 27L12 24L11 24L11 23L12 23L12 22L11 22L11 23L8 23L8 21L6 21L6 22L5 22L5 23L3 23L3 25L4 25L4 26L3 26L3 27L2 27L2 28L4 28L4 26L7 26L7 25L8 25L8 26L9 26L9 29L11 29L11 30L10 30L10 32L11 32L11 30L16 30L16 31L15 31L15 32L14 32L14 31L13 31L13 32L12 32L12 33L10 33L10 34L9 34L9 35L8 35L8 34L7 34L7 35L6 35L6 36L7 36L7 37L6 37L6 38L7 38L7 37L8 37L8 38L9 38L9 37L10 37L10 39L8 39L8 40L9 40L9 41L8 41L8 42L7 42L7 41L6 41L6 40L7 40L7 39L5 39L5 41L6 41L6 42L7 42L7 43L6 43L6 44L7 44L7 45L6 45L6 46L7 46L7 45L8 45L8 46L11 46L11 47L12 47L12 46L11 46L11 45L13 45L13 44L14 44L14 45L16 45L16 47L15 47L15 48L14 48L14 46L13 46L13 48L12 48L12 49L15 49L15 50L14 50L14 51L13 51L13 52L14 52L14 53L12 53L12 52L11 52L11 51L10 51L10 52L11 52L11 53L10 53L10 54L9 54L9 55L10 55L10 56L11 56L11 55L12 55L12 54L13 54L13 55L14 55L14 54L15 54L15 52L14 52L14 51L15 51L15 50L18 50L18 51L16 51L16 52L17 52L17 53L18 53L18 51L19 51L19 50L18 50L18 48L16 48L16 47L17 47L17 44L15 44L15 41L12 41L12 40L14 40L14 39L15 39L15 40L16 40L16 43L17 43L17 42L18 42L18 39L19 39L19 38L17 38L17 37L18 37L18 36L19 36L19 34L18 34L18 31L19 31L19 32L20 32L20 31L19 31L19 30L21 30L21 33L20 33L20 34L21 34L21 35L20 35L20 36L21 36L21 38L20 38L20 39L21 39L21 41L20 41L20 42L21 42L21 43L20 43L20 47L19 47L19 45L18 45L18 47L19 47L19 48L20 48L20 51L21 51L21 50L22 50L22 48L23 48L23 49L24 49L24 51L22 51L22 52L24 52L24 51L25 51L25 53L26 53L26 50L25 50L25 49L26 49L26 48L27 48L27 46L26 46L26 45L25 45L25 44L22 44L22 43L23 43L23 41L22 41L22 39L23 39L23 40L24 40L24 43L25 43L25 42L26 42L26 41L25 41L25 40L27 40L27 41L28 41L28 43L30 43L30 45L28 45L28 44L27 44L27 45L28 45L28 46L29 46L29 47L28 47L28 48L31 48L31 47L30 47L30 46L32 46L32 47L33 47L33 46L32 46L32 40L33 40L33 41L34 41L34 42L35 42L35 41L36 41L36 43L35 43L35 44L33 44L33 45L34 45L34 48L33 48L33 49L31 49L31 52L32 52L32 51L33 51L33 49L34 49L34 51L37 51L37 49L36 49L36 48L37 48L37 47L38 47L38 51L39 51L39 49L40 49L40 51L41 51L41 53L42 53L42 54L43 54L43 55L44 55L44 56L45 56L45 55L44 55L44 52L42 52L42 51L41 51L41 49L42 49L42 50L43 50L43 51L45 51L45 49L46 49L46 51L47 51L47 52L48 52L48 51L47 51L47 49L46 49L46 48L47 48L47 46L49 46L49 47L50 47L50 48L51 48L51 47L50 47L50 45L49 45L49 44L50 44L50 42L49 42L49 41L51 41L51 40L52 40L52 44L53 44L53 45L52 45L52 47L53 47L53 45L54 45L54 46L55 46L55 47L54 47L54 48L55 48L55 47L56 47L56 44L55 44L55 43L54 43L54 44L53 44L53 39L52 39L52 38L53 38L53 37L54 37L54 36L55 36L55 37L56 37L56 36L55 36L55 35L56 35L56 34L55 34L55 33L53 33L53 32L51 32L51 31L49 31L49 32L50 32L50 33L49 33L49 34L48 34L48 33L47 33L47 32L46 32L46 31L47 31L47 30L48 30L48 26L49 26L49 24L50 24L50 23L51 23L51 25L50 25L50 26L51 26L51 25L52 25L52 23L53 23L53 22L54 22L54 21L53 21L53 22L52 22L52 20L53 20L53 19L54 19L54 16L55 16L55 15L56 15L56 13L55 13L55 15L54 15L54 14L52 14L52 13L50 13L50 10L51 10L51 9L50 9L50 10L49 10L49 9L48 9L48 10L47 10L47 9L46 9L46 8L45 8L45 9L44 9L44 10L43 10L43 7L44 7L44 6L45 6L45 7L46 7L46 5L47 5L47 3L46 3L46 5L44 5L44 4L43 4L43 5L42 5L42 4L41 4L41 2L40 2L40 1L39 1L39 2L40 2L40 4L39 4L39 3L38 3L38 4L39 4L39 5L38 5L38 6L37 6L37 8L38 8L38 11L39 11L39 10L40 10L40 8L42 8L42 10L43 10L43 11L44 11L44 12L42 12L42 11L41 11L41 12L42 12L42 15L41 15L41 13L40 13L40 14L39 14L39 12L37 12L37 11L36 11L36 12L35 12L35 11L34 11L34 10L33 10L33 9L32 9L32 8L34 8L34 3L33 3L33 2L32 2L32 1L31 1L31 2L32 2L32 5L31 5L31 9L30 9L30 11L29 11L29 12L30 12L30 13L29 13L29 15L28 15L28 14L27 14L27 15L26 15L26 17L25 17L25 14L26 14L26 13L27 13L27 12L28 12L28 11L27 11L27 10L25 10L25 9L26 9L26 5L24 5L24 6L23 6L23 8L24 8L24 11L26 11L26 13L24 13L24 15L23 15L23 12L22 12L22 11L23 11L23 9L22 9L22 5L21 5L21 3L22 3L22 4L23 4L23 1ZM27 1L27 2L28 2L28 1ZM14 3L14 4L15 4L15 3ZM26 3L26 4L27 4L27 3ZM18 4L18 5L17 5L17 6L16 6L16 7L17 7L17 8L18 8L18 9L19 9L19 10L16 10L16 12L17 12L17 14L15 14L15 15L14 15L14 17L15 17L15 15L17 15L17 16L18 16L18 17L19 17L19 20L18 20L18 23L19 23L19 20L20 20L20 21L21 21L21 22L20 22L20 23L21 23L21 24L22 24L22 25L21 25L21 27L20 27L20 24L18 24L18 25L19 25L19 27L18 27L18 28L21 28L21 30L22 30L22 33L23 33L23 34L22 34L22 38L21 38L21 39L22 39L22 38L23 38L23 35L25 35L25 36L24 36L24 37L25 37L25 36L26 36L26 37L27 37L27 36L28 36L28 37L29 37L29 36L28 36L28 35L31 35L31 36L30 36L30 40L28 40L28 41L30 41L30 43L31 43L31 41L30 41L30 40L31 40L31 38L33 38L33 39L34 39L34 41L35 41L35 39L34 39L34 37L35 37L35 38L36 38L36 41L37 41L37 42L38 42L38 41L39 41L39 38L40 38L40 39L41 39L41 40L40 40L40 42L39 42L39 43L37 43L37 44L36 44L36 45L37 45L37 46L35 46L35 47L37 47L37 46L38 46L38 45L37 45L37 44L39 44L39 43L40 43L40 42L42 42L42 43L44 43L44 41L45 41L45 44L44 44L44 46L43 46L43 47L44 47L44 46L45 46L45 48L44 48L44 49L45 49L45 48L46 48L46 44L47 44L47 45L48 45L48 44L49 44L49 42L48 42L48 43L46 43L46 41L48 41L48 40L51 40L51 38L52 38L52 37L53 37L53 36L54 36L54 34L53 34L53 36L51 36L51 33L50 33L50 37L49 37L49 35L48 35L48 34L46 34L46 32L45 32L45 31L46 31L46 30L45 30L45 29L46 29L46 28L47 28L47 26L48 26L48 24L49 24L49 23L50 23L50 22L49 22L49 23L48 23L48 21L47 21L47 20L48 20L48 19L49 19L49 20L51 20L51 19L50 19L50 17L51 17L51 18L53 18L53 16L54 16L54 15L53 15L53 16L52 16L52 17L51 17L51 16L50 16L50 13L49 13L49 14L48 14L48 12L49 12L49 11L48 11L48 12L47 12L47 11L46 11L46 13L45 13L45 12L44 12L44 13L43 13L43 14L44 14L44 13L45 13L45 16L44 16L44 15L43 15L43 16L44 16L44 17L43 17L43 18L42 18L42 17L41 17L41 15L40 15L40 18L38 18L38 16L37 16L37 15L38 15L38 13L37 13L37 12L36 12L36 13L35 13L35 12L34 12L34 11L33 11L33 12L32 12L32 9L31 9L31 11L30 11L30 12L32 12L32 14L33 14L33 15L34 15L34 17L33 17L33 16L32 16L32 15L31 15L31 16L30 16L30 15L29 15L29 16L30 16L30 17L28 17L28 18L30 18L30 17L31 17L31 18L32 18L32 19L30 19L30 20L28 20L28 19L27 19L27 17L26 17L26 19L25 19L25 18L24 18L24 16L22 16L22 14L21 14L21 18L23 18L23 19L22 19L22 21L21 21L21 20L20 20L20 16L19 16L19 15L20 15L20 13L21 13L21 10L22 10L22 9L21 9L21 5L20 5L20 7L19 7L19 4ZM27 5L27 8L30 8L30 5ZM41 5L41 6L40 6L40 7L39 7L39 6L38 6L38 8L40 8L40 7L41 7L41 6L42 6L42 7L43 7L43 6L44 6L44 5L43 5L43 6L42 6L42 5ZM14 6L14 7L15 7L15 6ZM17 6L17 7L18 7L18 8L19 8L19 7L18 7L18 6ZM24 6L24 7L25 7L25 6ZM28 6L28 7L29 7L29 6ZM32 6L32 7L33 7L33 6ZM10 7L10 8L11 8L11 9L12 9L12 8L11 8L11 7ZM0 8L0 10L1 10L1 9L3 9L3 8ZM14 8L14 9L15 9L15 8ZM20 9L20 10L19 10L19 11L18 11L18 12L19 12L19 13L18 13L18 14L19 14L19 13L20 13L20 12L19 12L19 11L20 11L20 10L21 10L21 9ZM28 9L28 10L29 10L29 9ZM45 9L45 10L46 10L46 9ZM14 11L14 12L15 12L15 11ZM51 11L51 12L52 12L52 11ZM6 13L6 14L7 14L7 13ZM10 13L10 14L12 14L12 13ZM34 13L34 15L35 15L35 17L34 17L34 18L33 18L33 21L32 21L32 20L31 20L31 21L30 21L30 24L31 24L31 25L30 25L30 26L31 26L31 25L32 25L32 27L31 27L31 30L32 30L32 32L30 32L30 31L28 31L28 32L27 32L27 33L26 33L26 30L25 30L25 29L24 29L24 26L25 26L25 25L24 25L24 26L23 26L23 27L22 27L22 28L23 28L23 29L22 29L22 30L23 30L23 31L24 31L24 34L26 34L26 35L28 35L28 34L29 34L29 32L30 32L30 34L31 34L31 35L32 35L32 32L33 32L33 33L34 33L34 34L33 34L33 37L34 37L34 34L35 34L35 33L36 33L36 35L35 35L35 37L36 37L36 38L37 38L37 37L36 37L36 35L37 35L37 36L38 36L38 38L39 38L39 36L40 36L40 35L41 35L41 36L42 36L42 40L41 40L41 41L42 41L42 42L43 42L43 41L42 41L42 40L43 40L43 38L44 38L44 34L45 34L45 36L46 36L46 38L47 38L47 40L48 40L48 38L47 38L47 36L48 36L48 35L47 35L47 36L46 36L46 34L45 34L45 33L44 33L44 34L43 34L43 33L42 33L42 31L43 31L43 30L44 30L44 31L45 31L45 30L44 30L44 27L43 27L43 26L44 26L44 24L45 24L45 25L46 25L46 26L47 26L47 25L46 25L46 23L47 23L47 21L46 21L46 20L45 20L45 21L44 21L44 19L47 19L47 17L48 17L48 18L49 18L49 17L48 17L48 16L47 16L47 15L48 15L48 14L47 14L47 13L46 13L46 16L45 16L45 17L44 17L44 19L42 19L42 20L43 20L43 21L42 21L42 22L43 22L43 25L42 25L42 23L41 23L41 22L40 22L40 19L41 19L41 18L40 18L40 19L39 19L39 20L38 20L38 19L37 19L37 18L36 18L36 14L35 14L35 13ZM51 14L51 15L52 15L52 14ZM6 15L6 16L7 16L7 15ZM31 16L31 17L32 17L32 16ZM46 16L46 17L45 17L45 18L46 18L46 17L47 17L47 16ZM34 18L34 21L33 21L33 22L31 22L31 23L32 23L32 25L33 25L33 26L34 26L34 24L36 24L36 26L37 26L37 28L36 28L36 27L34 27L34 29L33 29L33 28L32 28L32 29L33 29L33 31L34 31L34 29L35 29L35 28L36 28L36 30L37 30L37 31L36 31L36 33L37 33L37 34L38 34L38 36L39 36L39 34L38 34L38 33L39 33L39 32L40 32L40 34L42 34L42 33L41 33L41 32L40 32L40 31L42 31L42 28L43 28L43 27L41 27L41 26L40 26L40 25L41 25L41 23L38 23L38 20L37 20L37 19L36 19L36 18ZM10 19L10 20L9 20L9 22L10 22L10 21L11 21L11 19ZM24 19L24 20L25 20L25 21L26 21L26 20L27 20L27 21L28 21L28 20L27 20L27 19L26 19L26 20L25 20L25 19ZM35 20L35 21L34 21L34 22L33 22L33 24L34 24L34 22L35 22L35 23L36 23L36 24L37 24L37 25L38 25L38 26L39 26L39 25L38 25L38 23L36 23L36 22L37 22L37 21L36 21L36 20ZM3 21L3 22L4 22L4 21ZM14 21L14 22L15 22L15 21ZM35 21L35 22L36 22L36 21ZM43 21L43 22L44 22L44 23L45 23L45 22L46 22L46 21L45 21L45 22L44 22L44 21ZM6 22L6 23L7 23L7 24L4 24L4 25L7 25L7 24L8 24L8 25L11 25L11 24L8 24L8 23L7 23L7 22ZM22 22L22 24L23 24L23 22ZM24 22L24 23L25 23L25 22ZM26 22L26 23L28 23L28 22ZM51 22L51 23L52 23L52 22ZM1 23L1 25L2 25L2 23ZM53 24L53 25L54 25L54 26L55 26L55 27L54 27L54 28L53 28L53 30L54 30L54 32L55 32L55 31L56 31L56 30L55 30L55 29L56 29L56 24L55 24L55 25L54 25L54 24ZM14 25L14 27L13 27L13 28L12 28L12 27L11 27L11 26L10 26L10 28L11 28L11 29L13 29L13 28L14 28L14 27L15 27L15 28L17 28L17 26L16 26L16 25ZM26 25L26 26L27 26L27 25ZM28 25L28 26L29 26L29 25ZM15 26L15 27L16 27L16 26ZM5 27L5 30L8 30L8 27ZM27 27L27 30L30 30L30 27ZM39 27L39 29L38 29L38 28L37 28L37 30L38 30L38 31L37 31L37 32L38 32L38 31L40 31L40 30L41 30L41 29L40 29L40 28L41 28L41 27ZM49 27L49 30L52 30L52 27ZM6 28L6 29L7 29L7 28ZM28 28L28 29L29 29L29 28ZM50 28L50 29L51 29L51 28ZM3 29L3 30L2 30L2 32L5 32L5 31L4 31L4 29ZM23 29L23 30L24 30L24 29ZM6 31L6 32L7 32L7 33L8 33L8 31ZM16 31L16 32L15 32L15 34L14 34L14 33L13 33L13 35L12 35L12 34L11 34L11 36L10 36L10 35L9 35L9 36L8 36L8 35L7 35L7 36L8 36L8 37L9 37L9 36L10 36L10 37L12 37L12 36L14 36L14 35L15 35L15 34L16 34L16 33L17 33L17 31ZM34 32L34 33L35 33L35 32ZM27 33L27 34L28 34L28 33ZM17 34L17 35L18 35L18 34ZM0 35L0 39L1 39L1 37L2 37L2 38L3 38L3 37L2 37L2 36L1 36L1 35ZM42 35L42 36L43 36L43 35ZM16 36L16 37L17 37L17 36ZM31 36L31 37L32 37L32 36ZM13 37L13 38L12 38L12 39L13 39L13 38L14 38L14 37ZM16 38L16 39L17 39L17 38ZM24 38L24 39L26 39L26 38ZM28 38L28 39L29 39L29 38ZM49 38L49 39L50 39L50 38ZM37 39L37 41L38 41L38 39ZM45 40L45 41L46 41L46 40ZM8 42L8 45L10 45L10 43L11 43L11 44L12 44L12 43L13 43L13 42L12 42L12 43L11 43L11 42L10 42L10 43L9 43L9 42ZM18 43L18 44L19 44L19 43ZM40 44L40 46L39 46L39 47L40 47L40 49L41 49L41 47L42 47L42 45L43 45L43 44L42 44L42 45L41 45L41 44ZM23 45L23 46L24 46L24 45ZM21 46L21 47L20 47L20 48L22 48L22 46ZM25 46L25 47L26 47L26 46ZM40 46L40 47L41 47L41 46ZM23 47L23 48L24 48L24 47ZM8 48L8 49L10 49L10 50L11 50L11 48ZM34 48L34 49L35 49L35 48ZM27 49L27 52L30 52L30 49ZM49 49L49 52L52 52L52 49ZM54 49L54 50L53 50L53 51L54 51L54 52L55 52L55 51L56 51L56 50L55 50L55 49ZM28 50L28 51L29 51L29 50ZM50 50L50 51L51 51L51 50ZM33 52L33 53L34 53L34 54L35 54L35 53L36 53L36 52L35 52L35 53L34 53L34 52ZM39 52L39 53L40 53L40 52ZM27 53L27 55L28 55L28 53ZM16 54L16 55L17 55L17 54ZM36 56L36 57L37 57L37 56ZM51 56L51 57L53 57L53 56ZM56 56L56 57L57 57L57 56ZM0 0L0 7L7 7L7 0ZM1 1L1 6L6 6L6 1ZM2 2L2 5L5 5L5 2ZM50 0L50 7L57 7L57 0ZM51 1L51 6L56 6L56 1ZM52 2L52 5L55 5L55 2ZM0 50L0 57L7 57L7 50ZM1 51L1 56L6 56L6 51ZM2 52L2 55L5 55L5 52Z" fill="#000000"/></g></g></svg>
