<?xml version="1.0" encoding="UTF-8"?>
<svg xmlns="http://www.w3.org/2000/svg" version="1.1" width="300" height="300" viewBox="0 0 300 300"><rect x="0" y="0" width="300" height="300" fill="#fefefe"/><g transform="scale(4.615)"><g transform="translate(4,4)"><path fill-rule="evenodd" d="M11 0L11 1L8 1L8 2L9 2L9 3L8 3L8 4L10 4L10 3L11 3L11 6L10 6L10 7L9 7L9 5L8 5L8 7L9 7L9 8L6 8L6 9L5 9L5 8L0 8L0 12L1 12L1 13L0 13L0 17L3 17L3 18L2 18L2 19L1 19L1 20L0 20L0 21L1 21L1 22L0 22L0 23L1 23L1 22L2 22L2 24L0 24L0 29L3 29L3 28L1 28L1 25L2 25L2 27L3 27L3 26L4 26L4 31L3 31L3 30L2 30L2 31L1 31L1 33L2 33L2 34L0 34L0 36L1 36L1 37L0 37L0 39L1 39L1 37L3 37L3 38L4 38L4 40L3 40L3 39L2 39L2 42L1 42L1 41L0 41L0 42L1 42L1 43L0 43L0 45L1 45L1 44L2 44L2 45L3 45L3 46L2 46L2 47L1 47L1 46L0 46L0 48L5 48L5 47L7 47L7 48L6 48L6 49L7 49L7 48L8 48L8 47L9 47L9 48L11 48L11 47L12 47L12 48L13 48L13 47L14 47L14 46L15 46L15 48L14 48L14 49L18 49L18 50L20 50L20 49L21 49L21 51L17 51L17 50L12 50L12 51L13 51L13 53L14 53L14 54L15 54L15 55L14 55L14 57L16 57L16 56L17 56L17 57L22 57L22 56L24 56L24 55L23 55L23 54L24 54L24 53L26 53L26 54L25 54L25 55L26 55L26 54L30 54L30 53L31 53L31 49L32 49L32 48L31 48L31 47L32 47L32 46L33 46L33 47L35 47L35 46L33 46L33 45L31 45L31 44L33 44L33 43L34 43L34 45L37 45L37 47L36 47L36 48L35 48L35 49L36 49L36 50L34 50L34 51L35 51L35 54L33 54L33 53L34 53L34 52L33 52L33 51L32 51L32 52L33 52L33 53L32 53L32 54L31 54L31 56L30 56L30 55L29 55L29 56L27 56L27 57L29 57L29 56L30 56L30 57L31 57L31 56L35 56L35 57L39 57L39 56L37 56L37 55L40 55L40 56L41 56L41 57L44 57L44 56L42 56L42 55L44 55L44 54L45 54L45 53L47 53L47 50L48 50L48 54L47 54L47 56L48 56L48 57L49 57L49 56L50 56L50 57L52 57L52 55L51 55L51 53L52 53L52 54L53 54L53 57L54 57L54 56L55 56L55 57L56 57L56 56L55 56L55 54L53 54L53 52L54 52L54 53L56 53L56 52L55 52L55 51L56 51L56 49L57 49L57 48L56 48L56 46L57 46L57 45L56 45L56 44L57 44L57 43L56 43L56 42L55 42L55 39L57 39L57 37L56 37L56 34L57 34L57 32L56 32L56 30L57 30L57 27L56 27L56 26L57 26L57 25L56 25L56 22L57 22L57 21L56 21L56 22L55 22L55 23L54 23L54 24L53 24L53 22L54 22L54 21L51 21L51 20L52 20L52 19L53 19L53 20L55 20L55 19L56 19L56 18L57 18L57 17L56 17L56 16L57 16L57 15L56 15L56 14L57 14L57 12L56 12L56 10L54 10L54 11L52 11L52 10L53 10L53 9L54 9L54 8L53 8L53 9L52 9L52 8L51 8L51 10L50 10L50 8L49 8L49 6L48 6L48 7L47 7L47 5L48 5L48 0L45 0L45 2L44 2L44 3L42 3L42 2L43 2L43 0L41 0L41 1L40 1L40 0L39 0L39 1L38 1L38 0L37 0L37 1L38 1L38 2L39 2L39 3L38 3L38 4L37 4L37 3L36 3L36 0L35 0L35 1L33 1L33 0L27 0L27 1L26 1L26 0L23 0L23 2L22 2L22 0L21 0L21 2L22 2L22 3L23 3L23 4L19 4L19 3L17 3L17 4L18 4L18 5L17 5L17 6L16 6L16 7L15 7L15 5L16 5L16 4L15 4L15 5L13 5L13 6L12 6L12 4L14 4L14 2L15 2L15 3L16 3L16 2L18 2L18 1L19 1L19 2L20 2L20 0L17 0L17 1L16 1L16 2L15 2L15 1L14 1L14 0L13 0L13 1L14 1L14 2L13 2L13 3L11 3L11 1L12 1L12 0ZM25 1L25 2L23 2L23 3L26 3L26 4L25 4L25 8L26 8L26 4L27 4L27 3L28 3L28 4L30 4L30 3L28 3L28 2L26 2L26 1ZM29 1L29 2L30 2L30 1ZM31 1L31 3L32 3L32 4L31 4L31 8L32 8L32 10L31 10L31 11L30 11L30 10L29 10L29 12L28 12L28 13L26 13L26 12L27 12L27 11L26 11L26 12L25 12L25 10L23 10L23 11L24 11L24 13L22 13L22 12L21 12L21 11L22 11L22 10L21 10L21 9L23 9L23 8L24 8L24 6L23 6L23 5L24 5L24 4L23 4L23 5L21 5L21 7L22 7L22 8L19 8L19 7L20 7L20 5L18 5L18 6L17 6L17 7L16 7L16 8L19 8L19 9L18 9L18 10L17 10L17 9L15 9L15 7L14 7L14 6L13 6L13 8L12 8L12 6L11 6L11 9L8 9L8 10L10 10L10 11L8 11L8 13L6 13L6 14L7 14L7 15L6 15L6 16L5 16L5 13L4 13L4 15L3 15L3 14L2 14L2 16L3 16L3 17L6 17L6 18L4 18L4 19L6 19L6 20L11 20L11 21L12 21L12 20L13 20L13 21L14 21L14 22L13 22L13 23L11 23L11 24L10 24L10 21L9 21L9 23L8 23L8 21L5 21L5 20L4 20L4 23L5 23L5 24L4 24L4 25L6 25L6 26L7 26L7 25L10 25L10 26L11 26L11 29L10 29L10 27L9 27L9 29L10 29L10 30L12 30L12 31L11 31L11 32L12 32L12 35L13 35L13 36L12 36L12 38L13 38L13 37L14 37L14 38L15 38L15 39L16 39L16 41L15 41L15 40L14 40L14 39L13 39L13 40L12 40L12 39L11 39L11 40L10 40L10 39L8 39L8 38L7 38L7 37L9 37L9 38L10 38L10 36L11 36L11 35L10 35L10 36L9 36L9 33L10 33L10 32L8 32L8 33L6 33L6 34L5 34L5 33L4 33L4 32L3 32L3 31L2 31L2 33L4 33L4 34L3 34L3 35L1 35L1 36L7 36L7 37L6 37L6 38L7 38L7 39L5 39L5 40L4 40L4 41L3 41L3 42L2 42L2 44L3 44L3 42L7 42L7 43L4 43L4 46L3 46L3 47L5 47L5 45L6 45L6 46L7 46L7 47L8 47L8 45L9 45L9 46L10 46L10 45L9 45L9 42L11 42L11 43L10 43L10 44L11 44L11 45L12 45L12 47L13 47L13 46L14 46L14 45L15 45L15 46L17 46L17 45L18 45L18 44L17 44L17 45L16 45L16 42L17 42L17 43L18 43L18 42L19 42L19 45L20 45L20 46L21 46L21 45L22 45L22 46L23 46L23 45L22 45L22 44L21 44L21 43L22 43L22 42L23 42L23 44L24 44L24 45L25 45L25 46L24 46L24 47L20 47L20 48L19 48L19 49L20 49L20 48L21 48L21 49L23 49L23 48L24 48L24 49L26 49L26 48L28 48L28 46L29 46L29 45L30 45L30 46L31 46L31 45L30 45L30 43L29 43L29 44L28 44L28 43L27 43L27 42L30 42L30 41L31 41L31 42L32 42L32 43L33 43L33 42L34 42L34 43L35 43L35 44L36 44L36 43L37 43L37 42L35 42L35 40L38 40L38 42L39 42L39 41L42 41L42 40L44 40L44 41L43 41L43 43L44 43L44 45L45 45L45 46L44 46L44 47L43 47L43 46L41 46L41 44L42 44L42 42L41 42L41 44L40 44L40 43L39 43L39 45L38 45L38 46L41 46L41 48L39 48L39 47L38 47L38 48L37 48L37 49L38 49L38 50L36 50L36 52L38 52L38 54L40 54L40 53L42 53L42 52L43 52L43 51L42 51L42 50L41 50L41 48L42 48L42 49L43 49L43 50L44 50L44 49L45 49L45 50L47 50L47 49L48 49L48 48L49 48L49 47L51 47L51 48L53 48L53 49L56 49L56 48L53 48L53 47L54 47L54 46L56 46L56 45L55 45L55 44L54 44L54 46L53 46L53 43L54 43L54 42L53 42L53 41L54 41L54 40L53 40L53 41L51 41L51 42L50 42L50 43L49 43L49 42L48 42L48 41L49 41L49 39L55 39L55 38L54 38L54 37L53 37L53 35L55 35L55 34L54 34L54 33L56 33L56 32L53 32L53 31L52 31L52 32L51 32L51 33L52 33L52 34L50 34L50 31L48 31L48 30L47 30L47 29L48 29L48 28L47 28L47 29L46 29L46 30L47 30L47 31L48 31L48 32L46 32L46 31L45 31L45 32L43 32L43 31L44 31L44 29L45 29L45 28L46 28L46 27L48 27L48 26L47 26L47 25L48 25L48 24L49 24L49 23L50 23L50 22L51 22L51 21L49 21L49 22L47 22L47 21L48 21L48 20L49 20L49 19L52 19L52 18L56 18L56 17L54 17L54 16L53 16L53 15L55 15L55 14L56 14L56 12L54 12L54 13L53 13L53 12L52 12L52 13L53 13L53 15L52 15L52 16L51 16L51 15L50 15L50 14L51 14L51 12L50 12L50 10L49 10L49 12L45 12L45 11L44 11L44 10L47 10L47 11L48 11L48 10L47 10L47 9L49 9L49 8L47 8L47 7L46 7L46 6L45 6L45 4L46 4L46 5L47 5L47 3L44 3L44 6L43 6L43 5L40 5L40 4L41 4L41 3L39 3L39 4L38 4L38 5L37 5L37 4L36 4L36 5L35 5L35 3L32 3L32 1ZM46 1L46 2L47 2L47 1ZM32 4L32 5L34 5L34 7L33 7L33 6L32 6L32 7L33 7L33 9L34 9L34 8L35 8L35 9L37 9L37 10L36 10L36 11L35 11L35 14L33 14L33 13L34 13L34 12L33 12L33 13L32 13L32 11L33 11L33 10L32 10L32 11L31 11L31 13L30 13L30 14L29 14L29 13L28 13L28 14L29 14L29 16L28 16L28 15L27 15L27 16L26 16L26 15L25 15L25 13L24 13L24 15L23 15L23 14L22 14L22 13L21 13L21 14L20 14L20 13L19 13L19 12L20 12L20 11L21 11L21 10L20 10L20 9L19 9L19 10L18 10L18 11L17 11L17 10L12 10L12 9L11 9L11 10L12 10L12 12L13 12L13 13L15 13L15 14L13 14L13 16L12 16L12 15L11 15L11 16L10 16L10 18L9 18L9 17L8 17L8 16L9 16L9 15L10 15L10 14L12 14L12 13L10 13L10 14L9 14L9 13L8 13L8 16L6 16L6 17L7 17L7 18L6 18L6 19L7 19L7 18L8 18L8 19L10 19L10 18L11 18L11 19L13 19L13 20L14 20L14 19L13 19L13 17L14 17L14 16L15 16L15 17L16 17L16 13L17 13L17 16L18 16L18 17L17 17L17 18L15 18L15 21L16 21L16 22L14 22L14 23L13 23L13 25L12 25L12 24L11 24L11 25L12 25L12 27L14 27L14 26L15 26L15 25L14 25L14 24L15 24L15 23L16 23L16 24L17 24L17 25L19 25L19 28L20 28L20 29L18 29L18 28L16 28L16 29L14 29L14 28L13 28L13 29L12 29L12 30L13 30L13 31L12 31L12 32L13 32L13 33L14 33L14 30L15 30L15 32L17 32L17 34L18 34L18 33L19 33L19 36L17 36L17 35L16 35L16 36L17 36L17 37L18 37L18 38L17 38L17 39L18 39L18 40L17 40L17 41L19 41L19 42L20 42L20 43L21 43L21 42L22 42L22 41L21 41L21 42L20 42L20 41L19 41L19 40L22 40L22 39L24 39L24 40L25 40L25 37L26 37L26 39L27 39L27 41L26 41L26 42L27 42L27 41L30 41L30 40L28 40L28 39L27 39L27 38L28 38L28 37L27 37L27 36L26 36L26 35L27 35L27 31L29 31L29 32L28 32L28 33L29 33L29 34L30 34L30 36L29 36L29 37L31 37L31 38L29 38L29 39L33 39L33 40L35 40L35 39L38 39L38 40L39 40L39 39L38 39L38 37L40 37L40 38L43 38L43 37L44 37L44 38L45 38L45 39L44 39L44 40L45 40L45 39L46 39L46 41L47 41L47 39L49 39L49 38L50 38L50 37L52 37L52 35L53 35L53 34L52 34L52 35L50 35L50 34L49 34L49 35L50 35L50 36L48 36L48 35L47 35L47 36L48 36L48 37L47 37L47 39L46 39L46 38L45 38L45 37L44 37L44 36L45 36L45 35L44 35L44 36L43 36L43 35L42 35L42 34L45 34L45 33L43 33L43 32L41 32L41 33L39 33L39 34L40 34L40 35L38 35L38 33L37 33L37 32L35 32L35 34L37 34L37 35L38 35L38 37L37 37L37 36L35 36L35 35L34 35L34 34L33 34L33 33L34 33L34 32L33 32L33 33L32 33L32 28L31 28L31 26L32 26L32 27L33 27L33 28L35 28L35 30L33 30L33 31L36 31L36 29L38 29L38 28L40 28L40 26L44 26L44 28L43 28L43 29L39 29L39 30L38 30L38 32L39 32L39 31L41 31L41 30L43 30L43 29L44 29L44 28L45 28L45 27L46 27L46 26L45 26L45 25L47 25L47 24L48 24L48 23L47 23L47 22L46 22L46 21L45 21L45 22L46 22L46 23L45 23L45 25L44 25L44 20L46 20L46 19L47 19L47 18L50 18L50 17L51 17L51 16L50 16L50 15L49 15L49 14L50 14L50 12L49 12L49 13L47 13L47 14L44 14L44 12L43 12L43 13L41 13L41 14L38 14L38 13L40 13L40 12L41 12L41 10L42 10L42 11L43 11L43 10L44 10L44 8L45 8L45 9L46 9L46 8L45 8L45 6L44 6L44 8L42 8L42 7L43 7L43 6L42 6L42 7L41 7L41 6L40 6L40 5L39 5L39 6L38 6L38 7L37 7L37 5L36 5L36 7L37 7L37 8L35 8L35 5L34 5L34 4ZM27 5L27 8L30 8L30 5ZM18 6L18 7L19 7L19 6ZM22 6L22 7L23 7L23 6ZM28 6L28 7L29 7L29 6ZM39 6L39 7L40 7L40 8L39 8L39 9L38 9L38 8L37 8L37 9L38 9L38 10L37 10L37 11L38 11L38 10L39 10L39 12L40 12L40 10L41 10L41 7L40 7L40 6ZM13 8L13 9L14 9L14 8ZM55 8L55 9L56 9L56 8ZM1 9L1 11L2 11L2 13L3 13L3 11L4 11L4 12L5 12L5 11L6 11L6 12L7 12L7 11L6 11L6 10L7 10L7 9L6 9L6 10L5 10L5 9L3 9L3 10L2 10L2 9ZM39 9L39 10L40 10L40 9ZM13 11L13 12L14 12L14 11ZM15 12L15 13L16 13L16 12ZM17 12L17 13L18 13L18 12ZM31 13L31 14L30 14L30 15L31 15L31 16L32 16L32 17L31 17L31 18L30 18L30 19L31 19L31 18L32 18L32 19L34 19L34 21L33 21L33 20L32 20L32 21L31 21L31 20L29 20L29 19L28 19L28 18L26 18L26 20L25 20L25 21L24 21L24 20L23 20L23 19L24 19L24 18L23 18L23 19L22 19L22 20L21 20L21 19L20 19L20 21L19 21L19 22L17 22L17 24L21 24L21 25L20 25L20 27L21 27L21 28L22 28L22 29L20 29L20 30L18 30L18 29L16 29L16 30L17 30L17 31L19 31L19 32L20 32L20 30L21 30L21 31L23 31L23 32L21 32L21 33L20 33L20 34L21 34L21 35L20 35L20 36L19 36L19 37L23 37L23 38L24 38L24 37L23 37L23 36L24 36L24 34L23 34L23 33L25 33L25 34L26 34L26 31L25 31L25 30L23 30L23 29L24 29L24 28L25 28L25 29L26 29L26 28L25 28L25 27L26 27L26 26L30 26L30 25L29 25L29 23L30 23L30 24L32 24L32 26L33 26L33 27L34 27L34 26L36 26L36 27L39 27L39 25L43 25L43 23L42 23L42 24L38 24L38 22L39 22L39 23L40 23L40 22L39 22L39 21L41 21L41 20L39 20L39 21L38 21L38 20L37 20L37 19L39 19L39 17L41 17L41 16L42 16L42 17L43 17L43 16L42 16L42 15L43 15L43 14L41 14L41 16L39 16L39 15L38 15L38 14L37 14L37 13L36 13L36 14L37 14L37 15L35 15L35 16L32 16L32 15L31 15L31 14L32 14L32 13ZM19 14L19 15L18 15L18 16L19 16L19 17L18 17L18 18L19 18L19 17L20 17L20 18L22 18L22 17L26 17L26 16L25 16L25 15L24 15L24 16L23 16L23 15L21 15L21 16L22 16L22 17L20 17L20 14ZM44 15L44 18L43 18L43 19L42 19L42 18L41 18L41 19L42 19L42 20L44 20L44 18L47 18L47 17L49 17L49 15L48 15L48 16L47 16L47 15ZM27 16L27 17L28 17L28 16ZM35 16L35 17L37 17L37 18L38 18L38 17L39 17L39 16L38 16L38 17L37 17L37 16ZM45 16L45 17L46 17L46 16ZM11 17L11 18L12 18L12 17ZM2 19L2 20L1 20L1 21L2 21L2 22L3 22L3 19ZM16 19L16 21L17 21L17 20L18 20L18 19ZM27 19L27 20L28 20L28 19ZM35 19L35 23L34 23L34 22L33 22L33 23L32 23L32 24L33 24L33 25L37 25L37 26L38 26L38 24L37 24L37 22L38 22L38 21L37 21L37 20L36 20L36 19ZM21 21L21 22L22 22L22 21ZM23 21L23 22L24 22L24 21ZM25 21L25 22L26 22L26 23L25 23L25 24L24 24L24 23L23 23L23 24L24 24L24 25L21 25L21 27L22 27L22 26L24 26L24 27L25 27L25 26L26 26L26 25L25 25L25 24L28 24L28 23L29 23L29 22L31 22L31 21L29 21L29 22L28 22L28 23L27 23L27 21ZM6 22L6 23L7 23L7 22ZM19 22L19 23L20 23L20 22ZM21 23L21 24L22 24L22 23ZM6 24L6 25L7 25L7 24ZM50 24L50 26L51 26L51 25L52 25L52 26L53 26L53 27L54 27L54 26L53 26L53 24ZM54 24L54 25L55 25L55 26L56 26L56 25L55 25L55 24ZM16 26L16 27L18 27L18 26ZM5 27L5 30L8 30L8 27ZM27 27L27 30L30 30L30 27ZM41 27L41 28L42 28L42 27ZM49 27L49 30L52 30L52 27ZM55 27L55 28L54 28L54 30L55 30L55 29L56 29L56 27ZM6 28L6 29L7 29L7 28ZM28 28L28 29L29 29L29 28ZM50 28L50 29L51 29L51 28ZM13 29L13 30L14 30L14 29ZM5 31L5 32L7 32L7 31ZM24 31L24 32L25 32L25 31ZM30 31L30 32L29 32L29 33L31 33L31 31ZM48 32L48 33L49 33L49 32ZM52 32L52 33L53 33L53 32ZM21 33L21 34L22 34L22 35L21 35L21 36L22 36L22 35L23 35L23 34L22 34L22 33ZM6 34L6 35L7 35L7 34ZM13 34L13 35L14 35L14 37L15 37L15 38L16 38L16 37L15 37L15 34ZM33 35L33 36L32 36L32 37L33 37L33 39L35 39L35 36L34 36L34 35ZM41 35L41 36L40 36L40 37L43 37L43 36L42 36L42 35ZM48 37L48 38L49 38L49 37ZM18 38L18 39L20 39L20 38ZM21 38L21 39L22 39L22 38ZM7 39L7 40L5 40L5 41L8 41L8 42L9 42L9 41L10 41L10 40L8 40L8 39ZM11 40L11 42L12 42L12 40ZM13 40L13 41L14 41L14 42L15 42L15 41L14 41L14 40ZM31 40L31 41L32 41L32 42L33 42L33 41L32 41L32 40ZM23 41L23 42L24 42L24 43L25 43L25 44L27 44L27 45L26 45L26 47L24 47L24 48L26 48L26 47L27 47L27 45L28 45L28 44L27 44L27 43L25 43L25 41ZM44 41L44 43L46 43L46 44L45 44L45 45L47 45L47 43L48 43L48 42L47 42L47 43L46 43L46 42L45 42L45 41ZM51 42L51 43L50 43L50 45L51 45L51 43L53 43L53 42ZM13 43L13 45L14 45L14 44L15 44L15 43ZM6 44L6 45L7 45L7 44ZM48 44L48 47L47 47L47 46L45 46L45 47L44 47L44 48L43 48L43 47L42 47L42 48L43 48L43 49L44 49L44 48L45 48L45 49L47 49L47 48L48 48L48 47L49 47L49 44ZM51 46L51 47L52 47L52 46ZM29 47L29 48L30 48L30 47ZM46 47L46 48L47 48L47 47ZM38 48L38 49L39 49L39 48ZM8 49L8 51L9 51L9 52L8 52L8 57L10 57L10 56L9 56L9 54L10 54L10 55L12 55L12 56L11 56L11 57L13 57L13 55L12 55L12 54L10 54L10 51L9 51L9 50L10 50L10 49ZM27 49L27 52L30 52L30 49ZM49 49L49 52L52 52L52 49ZM22 50L22 51L21 51L21 52L20 52L20 53L19 53L19 54L17 54L17 55L19 55L19 56L21 56L21 55L22 55L22 54L23 54L23 53L24 53L24 52L26 52L26 50ZM28 50L28 51L29 51L29 50ZM38 50L38 51L40 51L40 52L41 52L41 50ZM50 50L50 51L51 51L51 50ZM54 50L54 51L55 51L55 50ZM15 51L15 52L16 52L16 53L15 53L15 54L16 54L16 53L17 53L17 52L16 52L16 51ZM22 51L22 52L23 52L23 51ZM45 51L45 52L44 52L44 53L43 53L43 54L44 54L44 53L45 53L45 52L46 52L46 51ZM11 52L11 53L12 53L12 52ZM21 53L21 54L22 54L22 53ZM19 54L19 55L20 55L20 54ZM35 54L35 56L36 56L36 54ZM15 55L15 56L16 56L16 55ZM50 55L50 56L51 56L51 55ZM25 56L25 57L26 57L26 56ZM45 56L45 57L46 57L46 56ZM0 0L0 7L7 7L7 0ZM1 1L1 6L6 6L6 1ZM2 2L2 5L5 5L5 2ZM50 0L50 7L57 7L57 0ZM51 1L51 6L56 6L56 1ZM52 2L52 5L55 5L55 2ZM0 50L0 57L7 57L7 50ZM1 51L1 56L6 56L6 51ZM2 52L2 55L5 55L5 52Z" fill="#000000"/></g></g></svg>
