<?xml version="1.0" encoding="UTF-8"?>
<svg xmlns="http://www.w3.org/2000/svg" version="1.1" width="300" height="300" viewBox="0 0 300 300"><rect x="0" y="0" width="300" height="300" fill="#fefefe"/><g transform="scale(4.615)"><g transform="translate(4,4)"><path fill-rule="evenodd" d="M8 0L8 1L10 1L10 4L9 4L9 2L8 2L8 5L9 5L9 6L8 6L8 7L9 7L9 8L8 8L8 9L7 9L7 8L6 8L6 9L7 9L7 10L6 10L6 11L7 11L7 10L8 10L8 11L10 11L10 10L9 10L9 9L10 9L10 8L12 8L12 7L13 7L13 8L14 8L14 7L15 7L15 6L16 6L16 7L17 7L17 5L15 5L15 4L14 4L14 3L13 3L13 1L14 1L14 0L12 0L12 1L11 1L11 0ZM19 0L19 3L18 3L18 1L16 1L16 2L17 2L17 4L18 4L18 7L19 7L19 8L20 8L20 7L21 7L21 11L23 11L23 12L22 12L22 13L23 13L23 12L25 12L25 11L26 11L26 10L27 10L27 11L28 11L28 10L29 10L29 11L30 11L30 12L31 12L31 11L30 11L30 10L32 10L32 9L31 9L31 6L32 6L32 8L33 8L33 6L34 6L34 9L36 9L36 8L37 8L37 10L38 10L38 12L36 12L36 10L35 10L35 11L34 11L34 10L33 10L33 11L32 11L32 12L33 12L33 13L31 13L31 14L30 14L30 13L28 13L28 12L26 12L26 14L23 14L23 18L24 18L24 19L25 19L25 22L24 22L24 21L23 21L23 20L22 20L22 22L18 22L18 20L16 20L16 19L17 19L17 18L19 18L19 20L21 20L21 18L22 18L22 17L21 17L21 18L19 18L19 17L16 17L16 15L17 15L17 16L20 16L20 15L21 15L21 12L20 12L20 11L19 11L19 12L18 12L18 10L17 10L17 11L16 11L16 10L15 10L15 11L14 11L14 10L13 10L13 9L12 9L12 11L13 11L13 12L12 12L12 14L11 14L11 15L10 15L10 16L9 16L9 17L10 17L10 19L9 19L9 20L6 20L6 21L4 21L4 20L1 20L1 18L2 18L2 19L3 19L3 17L4 17L4 18L5 18L5 19L7 19L7 18L8 18L8 17L7 17L7 16L8 16L8 15L9 15L9 14L10 14L10 12L6 12L6 13L5 13L5 12L4 12L4 11L5 11L5 10L4 10L4 8L0 8L0 9L1 9L1 10L0 10L0 14L3 14L3 15L0 15L0 17L1 17L1 18L0 18L0 21L1 21L1 22L2 22L2 24L1 24L1 23L0 23L0 26L2 26L2 30L3 30L3 31L0 31L0 33L4 33L4 34L3 34L3 37L4 37L4 38L5 38L5 39L3 39L3 40L2 40L2 41L0 41L0 42L2 42L2 41L4 41L4 42L3 42L3 43L2 43L2 45L1 45L1 43L0 43L0 48L5 48L5 47L7 47L7 48L6 48L6 49L7 49L7 48L8 48L8 47L9 47L9 48L10 48L10 49L11 49L11 50L9 50L9 49L8 49L8 50L9 50L9 53L8 53L8 57L12 57L12 56L13 56L13 57L14 57L14 56L16 56L16 57L18 57L18 56L19 56L19 57L20 57L20 56L21 56L21 57L23 57L23 54L25 54L25 53L26 53L26 55L27 55L27 56L28 56L28 55L27 55L27 53L29 53L29 54L31 54L31 55L30 55L30 56L31 56L31 57L32 57L32 55L34 55L34 56L33 56L33 57L36 57L36 55L38 55L38 57L43 57L43 55L44 55L44 56L46 56L46 57L51 57L51 54L52 54L52 53L54 53L54 54L53 54L53 56L52 56L52 57L55 57L55 56L54 56L54 54L56 54L56 53L57 53L57 51L55 51L55 50L57 50L57 48L56 48L56 49L55 49L55 48L54 48L54 46L52 46L52 47L51 47L51 45L52 45L52 43L53 43L53 42L54 42L54 43L56 43L56 44L57 44L57 43L56 43L56 41L57 41L57 40L56 40L56 41L55 41L55 39L53 39L53 38L52 38L52 36L53 36L53 37L55 37L55 38L56 38L56 39L57 39L57 38L56 38L56 36L54 36L54 35L57 35L57 34L55 34L55 33L57 33L57 31L56 31L56 30L57 30L57 29L56 29L56 30L55 30L55 33L54 33L54 34L52 34L52 32L53 32L53 28L54 28L54 29L55 29L55 28L56 28L56 24L54 24L54 23L57 23L57 21L56 21L56 22L54 22L54 21L55 21L55 20L54 20L54 21L53 21L53 20L50 20L50 19L47 19L47 18L48 18L48 14L47 14L47 15L46 15L46 16L44 16L44 14L46 14L46 13L44 13L44 10L45 10L45 11L47 11L47 10L50 10L50 8L49 8L49 6L48 6L48 7L47 7L47 5L48 5L48 0L46 0L46 1L47 1L47 2L46 2L46 3L47 3L47 5L45 5L45 4L44 4L44 3L45 3L45 1L44 1L44 2L41 2L41 1L43 1L43 0L41 0L41 1L40 1L40 0L39 0L39 1L40 1L40 2L41 2L41 3L43 3L43 5L45 5L45 6L44 6L44 8L45 8L45 9L44 9L44 10L43 10L43 8L40 8L40 7L41 7L41 6L42 6L42 7L43 7L43 6L42 6L42 5L41 5L41 4L39 4L39 2L37 2L37 1L38 1L38 0L37 0L37 1L36 1L36 0L35 0L35 1L34 1L34 3L35 3L35 4L36 4L36 5L40 5L40 7L39 7L39 6L38 6L38 7L39 7L39 8L37 8L37 6L36 6L36 7L35 7L35 6L34 6L34 5L33 5L33 6L32 6L32 5L31 5L31 4L32 4L32 3L33 3L33 0L29 0L29 1L28 1L28 3L29 3L29 1L30 1L30 2L31 2L31 4L26 4L26 0L23 0L23 1L22 1L22 0L21 0L21 1L20 1L20 0ZM21 1L21 2L20 2L20 3L19 3L19 4L20 4L20 5L22 5L22 6L21 6L21 7L22 7L22 8L23 8L23 9L22 9L22 10L23 10L23 11L25 11L25 10L23 10L23 9L24 9L24 8L25 8L25 9L26 9L26 6L25 6L25 5L26 5L26 4L24 4L24 6L23 6L23 5L22 5L22 4L23 4L23 3L24 3L24 2L25 2L25 1L23 1L23 2L22 2L22 1ZM31 1L31 2L32 2L32 1ZM35 1L35 2L36 2L36 1ZM21 2L21 3L22 3L22 2ZM11 3L11 4L10 4L10 6L9 6L9 7L10 7L10 6L11 6L11 7L12 7L12 6L13 6L13 7L14 7L14 6L15 6L15 5L14 5L14 4L12 4L12 3ZM37 3L37 4L38 4L38 3ZM11 5L11 6L12 6L12 5ZM27 5L27 8L30 8L30 5ZM19 6L19 7L20 7L20 6ZM22 6L22 7L23 7L23 8L24 8L24 7L25 7L25 6L24 6L24 7L23 7L23 6ZM28 6L28 7L29 7L29 6ZM45 6L45 7L46 7L46 8L47 8L47 9L45 9L45 10L47 10L47 9L49 9L49 8L47 8L47 7L46 7L46 6ZM15 8L15 9L16 9L16 8ZM17 8L17 9L18 9L18 8ZM52 8L52 9L55 9L55 8ZM56 8L56 9L57 9L57 8ZM19 9L19 10L20 10L20 9ZM38 9L38 10L40 10L40 11L39 11L39 14L40 14L40 13L41 13L41 16L40 16L40 17L39 17L39 15L37 15L37 13L36 13L36 15L35 15L35 12L34 12L34 14L33 14L33 15L32 15L32 14L31 14L31 16L29 16L29 15L28 15L28 16L29 16L29 17L27 17L27 15L26 15L26 16L25 16L25 17L24 17L24 18L25 18L25 17L27 17L27 18L26 18L26 19L28 19L28 20L29 20L29 21L28 21L28 23L27 23L27 22L25 22L25 25L24 25L24 24L23 24L23 22L22 22L22 23L20 23L20 24L21 24L21 26L20 26L20 25L19 25L19 27L17 27L17 24L18 24L18 23L16 23L16 20L14 20L14 23L11 23L11 20L10 20L10 22L9 22L9 23L10 23L10 25L9 25L9 27L11 27L11 29L10 29L10 28L9 28L9 31L10 31L10 30L11 30L11 31L12 31L12 32L9 32L9 33L13 33L13 31L14 31L14 33L15 33L15 38L14 38L14 36L13 36L13 34L12 34L12 35L11 35L11 34L10 34L10 35L9 35L9 34L8 34L8 36L7 36L7 35L5 35L5 34L4 34L4 37L5 37L5 36L7 36L7 37L6 37L6 38L7 38L7 39L6 39L6 40L9 40L9 42L7 42L7 41L5 41L5 40L4 40L4 41L5 41L5 42L4 42L4 43L3 43L3 45L2 45L2 46L1 46L1 47L2 47L2 46L3 46L3 47L5 47L5 43L6 43L6 44L7 44L7 45L6 45L6 46L7 46L7 45L8 45L8 46L9 46L9 47L10 47L10 45L11 45L11 49L12 49L12 50L13 50L13 51L15 51L15 52L14 52L14 53L16 53L16 54L17 54L17 55L19 55L19 56L20 56L20 55L21 55L21 56L22 56L22 55L21 55L21 53L22 53L22 54L23 54L23 52L24 52L24 53L25 53L25 52L26 52L26 50L25 50L25 47L26 47L26 48L27 48L27 46L28 46L28 48L29 48L29 47L30 47L30 48L31 48L31 46L32 46L32 47L34 47L34 46L35 46L35 48L37 48L37 49L36 49L36 50L37 50L37 49L38 49L38 48L39 48L39 49L40 49L40 50L39 50L39 51L38 51L38 52L40 52L40 54L41 54L41 53L42 53L42 54L43 54L43 51L44 51L44 50L43 50L43 47L40 47L40 46L41 46L41 45L38 45L38 44L39 44L39 43L40 43L40 44L41 44L41 43L42 43L42 45L43 45L43 46L45 46L45 47L46 47L46 46L47 46L47 47L49 47L49 48L50 48L50 47L49 47L49 46L47 46L47 45L49 45L49 44L50 44L50 45L51 45L51 42L50 42L50 41L52 41L52 40L53 40L53 39L52 39L52 40L50 40L50 39L51 39L51 36L52 36L52 35L51 35L51 36L50 36L50 37L49 37L49 36L47 36L47 34L48 34L48 35L49 35L49 34L50 34L50 33L49 33L49 32L48 32L48 28L47 28L47 32L46 32L46 31L45 31L45 30L46 30L46 27L45 27L45 29L44 29L44 28L43 28L43 27L42 27L42 26L45 26L45 24L47 24L47 23L52 23L52 22L51 22L51 21L50 21L50 20L49 20L49 22L47 22L47 20L46 20L46 18L45 18L45 17L42 17L42 14L43 14L43 12L42 12L42 11L43 11L43 10L42 10L42 11L41 11L41 10L40 10L40 9ZM2 10L2 11L3 11L3 10ZM53 10L53 13L52 13L52 12L51 12L51 11L49 11L49 16L50 16L50 17L51 17L51 18L52 18L52 19L56 19L56 18L55 18L55 17L57 17L57 15L53 15L53 17L52 17L52 15L51 15L51 13L52 13L52 14L55 14L55 13L54 13L54 10ZM55 10L55 11L57 11L57 10ZM15 11L15 15L16 15L16 14L19 14L19 15L20 15L20 14L19 14L19 13L20 13L20 12L19 12L19 13L18 13L18 12L17 12L17 13L16 13L16 11ZM1 12L1 13L3 13L3 12ZM50 12L50 13L51 13L51 12ZM4 13L4 17L5 17L5 18L7 18L7 17L6 17L6 16L7 16L7 15L6 15L6 14L8 14L8 13L6 13L6 14L5 14L5 13ZM13 13L13 14L12 14L12 15L11 15L11 16L10 16L10 17L11 17L11 18L12 18L12 17L11 17L11 16L12 16L12 15L14 15L14 13ZM5 15L5 16L6 16L6 15ZM33 15L33 16L31 16L31 20L32 20L32 17L33 17L33 19L34 19L34 18L35 18L35 17L34 17L34 16L35 16L35 15ZM50 15L50 16L51 16L51 15ZM1 16L1 17L2 17L2 16ZM46 16L46 17L47 17L47 16ZM14 17L14 18L13 18L13 19L12 19L12 21L13 21L13 19L15 19L15 17ZM29 17L29 18L28 18L28 19L30 19L30 17ZM36 17L36 18L37 18L37 17ZM41 17L41 18L39 18L39 19L40 19L40 20L37 20L37 19L36 19L36 20L35 20L35 22L38 22L38 21L39 21L39 24L38 24L38 23L37 23L37 24L36 24L36 23L35 23L35 24L33 24L33 22L32 22L32 23L31 23L31 21L29 21L29 22L30 22L30 23L28 23L28 24L29 24L29 25L25 25L25 27L24 27L24 26L23 26L23 25L22 25L22 27L23 27L23 28L26 28L26 30L24 30L24 29L21 29L21 27L20 27L20 29L21 29L21 30L24 30L24 33L23 33L23 31L22 31L22 32L21 32L21 34L22 34L22 33L23 33L23 35L24 35L24 34L25 34L25 31L27 31L27 33L26 33L26 34L27 34L27 35L26 35L26 36L23 36L23 39L24 39L24 41L25 41L25 42L23 42L23 41L22 41L22 37L21 37L21 38L20 38L20 37L19 37L19 36L20 36L20 35L19 35L19 36L17 36L17 37L18 37L18 38L15 38L15 39L14 39L14 40L15 40L15 41L14 41L14 42L15 42L15 44L14 44L14 45L13 45L13 44L12 44L12 47L13 47L13 48L12 48L12 49L13 49L13 50L14 50L14 49L15 49L15 50L16 50L16 49L15 49L15 48L17 48L17 50L18 50L18 49L19 49L19 50L20 50L20 52L19 52L19 55L20 55L20 53L21 53L21 52L22 52L22 51L23 51L23 49L24 49L24 46L25 46L25 45L26 45L26 46L27 46L27 45L29 45L29 44L30 44L30 43L32 43L32 42L33 42L33 45L34 45L34 44L35 44L35 45L36 45L36 46L37 46L37 47L38 47L38 45L36 45L36 43L34 43L34 42L36 42L36 41L34 41L34 40L35 40L35 39L36 39L36 38L34 38L34 37L37 37L37 38L39 38L39 39L38 39L38 40L37 40L37 41L40 41L40 42L42 42L42 43L43 43L43 44L49 44L49 43L50 43L50 42L49 42L49 43L48 43L48 42L47 42L47 41L50 41L50 40L47 40L47 39L48 39L48 37L47 37L47 38L46 38L46 37L45 37L45 38L46 38L46 39L44 39L44 38L41 38L41 37L44 37L44 36L46 36L46 34L45 34L45 33L44 33L44 30L43 30L43 31L41 31L41 32L40 32L40 31L39 31L39 30L40 30L40 28L39 28L39 27L38 27L38 26L40 26L40 25L39 25L39 24L40 24L40 23L41 23L41 24L43 24L43 25L44 25L44 23L45 23L45 22L44 22L44 21L41 21L41 18L42 18L42 19L43 19L43 18L42 18L42 17ZM53 17L53 18L54 18L54 17ZM44 18L44 19L45 19L45 18ZM26 20L26 21L27 21L27 20ZM33 20L33 21L34 21L34 20ZM36 20L36 21L37 21L37 20ZM3 21L3 22L4 22L4 25L5 25L5 26L8 26L8 24L7 24L7 23L6 23L6 24L5 24L5 22L4 22L4 21ZM6 21L6 22L7 22L7 21ZM42 22L42 23L43 23L43 22ZM46 22L46 23L47 23L47 22ZM15 23L15 25L14 25L14 26L13 26L13 27L12 27L12 26L11 26L11 25L12 25L12 24L11 24L11 25L10 25L10 26L11 26L11 27L12 27L12 29L14 29L14 31L15 31L15 33L18 33L18 31L19 31L19 30L17 30L17 27L15 27L15 28L13 28L13 27L14 27L14 26L16 26L16 23ZM26 23L26 24L27 24L27 23ZM30 23L30 24L31 24L31 23ZM2 24L2 26L3 26L3 28L4 28L4 26L3 26L3 24ZM6 24L6 25L7 25L7 24ZM32 24L32 25L33 25L33 24ZM48 24L48 26L47 26L47 25L46 25L46 26L47 26L47 27L48 27L48 26L49 26L49 24ZM51 24L51 25L52 25L52 26L53 26L53 27L55 27L55 25L53 25L53 24ZM30 25L30 26L31 26L31 25ZM34 25L34 27L35 27L35 25ZM0 27L0 28L1 28L1 27ZM5 27L5 30L8 30L8 27ZM27 27L27 30L30 30L30 27ZM31 27L31 28L33 28L33 27ZM41 27L41 30L42 30L42 29L43 29L43 28L42 28L42 27ZM49 27L49 30L52 30L52 27ZM6 28L6 29L7 29L7 28ZM18 28L18 29L19 29L19 28ZM28 28L28 29L29 29L29 28ZM34 28L34 29L35 29L35 30L36 30L36 31L37 31L37 32L36 32L36 33L37 33L37 32L38 32L38 34L39 34L39 31L38 31L38 30L39 30L39 29L38 29L38 30L36 30L36 29L37 29L37 28ZM50 28L50 29L51 29L51 28ZM3 29L3 30L4 30L4 29ZM15 29L15 30L16 30L16 32L17 32L17 30L16 30L16 29ZM31 29L31 30L33 30L33 29ZM12 30L12 31L13 31L13 30ZM3 31L3 32L4 32L4 33L6 33L6 34L7 34L7 33L6 33L6 32L8 32L8 31L6 31L6 32L5 32L5 31ZM28 31L28 33L27 33L27 34L28 34L28 35L29 35L29 36L27 36L27 38L29 38L29 36L32 36L32 38L30 38L30 39L28 39L28 41L29 41L29 42L25 42L25 43L23 43L23 44L22 44L22 42L21 42L21 41L19 41L19 38L18 38L18 40L17 40L17 39L16 39L16 40L17 40L17 41L19 41L19 43L18 43L18 42L17 42L17 45L15 45L15 46L16 46L16 47L17 47L17 48L19 48L19 47L18 47L18 46L17 46L17 45L19 45L19 43L21 43L21 44L22 44L22 46L21 46L21 45L20 45L20 46L21 46L21 47L20 47L20 49L21 49L21 50L22 50L22 49L23 49L23 48L21 48L21 47L22 47L22 46L23 46L23 45L24 45L24 44L25 44L25 43L26 43L26 45L27 45L27 44L28 44L28 43L29 43L29 42L31 42L31 40L33 40L33 39L34 39L34 38L33 38L33 36L32 36L32 35L34 35L34 36L36 36L36 35L35 35L35 32L33 32L33 31L31 31L31 34L30 34L30 35L29 35L29 33L30 33L30 31ZM50 31L50 32L52 32L52 31ZM42 32L42 33L43 33L43 32ZM19 33L19 34L20 34L20 33ZM32 33L32 34L31 34L31 35L32 35L32 34L33 34L33 33ZM41 34L41 35L39 35L39 36L38 36L38 35L37 35L37 36L38 36L38 37L39 37L39 36L40 36L40 37L41 37L41 35L42 35L42 34ZM43 34L43 35L44 35L44 34ZM0 35L0 36L1 36L1 38L0 38L0 39L1 39L1 38L2 38L2 35ZM8 36L8 38L9 38L9 40L12 40L12 41L10 41L10 42L9 42L9 44L8 44L8 43L7 43L7 42L6 42L6 43L7 43L7 44L8 44L8 45L10 45L10 42L12 42L12 43L13 43L13 39L11 39L11 37L10 37L10 36ZM9 37L9 38L10 38L10 37ZM12 37L12 38L13 38L13 37ZM24 37L24 39L25 39L25 41L26 41L26 40L27 40L27 39L26 39L26 37ZM32 38L32 39L33 39L33 38ZM40 39L40 41L42 41L42 42L43 42L43 43L44 43L44 42L45 42L45 43L47 43L47 42L45 42L45 41L46 41L46 40L45 40L45 41L43 41L43 39ZM29 40L29 41L30 41L30 40ZM54 41L54 42L55 42L55 41ZM37 42L37 44L38 44L38 43L39 43L39 42ZM53 44L53 45L55 45L55 44ZM30 45L30 46L31 46L31 45ZM56 45L56 46L55 46L55 47L57 47L57 45ZM13 46L13 47L14 47L14 46ZM32 48L32 49L31 49L31 50L32 50L32 51L31 51L31 53L32 53L32 51L33 51L33 53L36 53L36 54L35 54L35 55L36 55L36 54L37 54L37 51L36 51L36 52L35 52L35 51L33 51L33 48ZM41 48L41 49L42 49L42 48ZM44 48L44 49L45 49L45 48ZM47 48L47 49L46 49L46 50L45 50L45 52L46 52L46 53L47 53L47 52L48 52L48 48ZM53 48L53 50L55 50L55 49L54 49L54 48ZM27 49L27 52L30 52L30 49ZM34 49L34 50L35 50L35 49ZM49 49L49 52L52 52L52 49ZM24 50L24 51L25 51L25 50ZM28 50L28 51L29 51L29 50ZM50 50L50 51L51 51L51 50ZM10 51L10 54L9 54L9 55L10 55L10 56L12 56L12 55L13 55L13 56L14 56L14 55L13 55L13 54L12 54L12 55L10 55L10 54L11 54L11 51ZM16 51L16 52L17 52L17 51ZM40 51L40 52L41 52L41 51ZM46 51L46 52L47 52L47 51ZM54 52L54 53L55 53L55 52ZM17 53L17 54L18 54L18 53ZM38 53L38 54L39 54L39 53ZM48 53L48 54L50 54L50 53ZM44 54L44 55L46 55L46 56L49 56L49 55L47 55L47 54ZM24 55L24 56L25 56L25 55ZM39 55L39 56L42 56L42 55ZM56 55L56 56L57 56L57 55ZM0 0L0 7L7 7L7 0ZM1 1L1 6L6 6L6 1ZM2 2L2 5L5 5L5 2ZM50 0L50 7L57 7L57 0ZM51 1L51 6L56 6L56 1ZM52 2L52 5L55 5L55 2ZM0 50L0 57L7 57L7 50ZM1 51L1 56L6 56L6 51ZM2 52L2 55L5 55L5 52Z" fill="#000000"/></g></g></svg>
