<?xml version="1.0" encoding="UTF-8"?>
<svg xmlns="http://www.w3.org/2000/svg" version="1.1" width="300" height="300" viewBox="0 0 300 300"><rect x="0" y="0" width="300" height="300" fill="#fefefe"/><g transform="scale(4.615)"><g transform="translate(4,4)"><path fill-rule="evenodd" d="M8 0L8 4L10 4L10 7L11 7L11 9L10 9L10 8L9 8L9 10L11 10L11 11L14 11L14 12L15 12L15 13L12 13L12 14L11 14L11 12L9 12L9 11L8 11L8 9L7 9L7 8L4 8L4 10L3 10L3 9L2 9L2 8L0 8L0 9L1 9L1 10L0 10L0 11L1 11L1 10L2 10L2 11L3 11L3 12L4 12L4 13L5 13L5 14L4 14L4 15L2 15L2 14L3 14L3 13L2 13L2 14L1 14L1 13L0 13L0 14L1 14L1 16L0 16L0 18L1 18L1 20L0 20L0 21L1 21L1 22L0 22L0 23L1 23L1 24L2 24L2 25L3 25L3 26L1 26L1 28L0 28L0 29L1 29L1 30L2 30L2 31L3 31L3 30L4 30L4 32L3 32L3 34L2 34L2 35L1 35L1 36L0 36L0 38L1 38L1 39L2 39L2 40L4 40L4 39L3 39L3 38L5 38L5 39L7 39L7 38L5 38L5 37L10 37L10 36L11 36L11 39L12 39L12 40L11 40L11 41L13 41L13 42L14 42L14 41L15 41L15 42L16 42L16 43L18 43L18 42L16 42L16 40L17 40L17 41L19 41L19 40L20 40L20 42L19 42L19 44L18 44L18 45L17 45L17 46L16 46L16 44L15 44L15 43L14 43L14 46L13 46L13 45L12 45L12 42L11 42L11 43L10 43L10 42L9 42L9 40L8 40L8 44L11 44L11 46L10 46L10 48L9 48L9 49L8 49L8 50L9 50L9 49L10 49L10 51L12 51L12 52L10 52L10 53L9 53L9 51L8 51L8 53L9 53L9 55L8 55L8 57L12 57L12 56L11 56L11 54L12 54L12 52L13 52L13 57L14 57L14 52L13 52L13 51L15 51L15 52L17 52L17 53L15 53L15 55L16 55L16 54L17 54L17 57L19 57L19 56L18 56L18 55L20 55L20 54L21 54L21 56L20 56L20 57L22 57L22 54L23 54L23 55L24 55L24 57L25 57L25 55L26 55L26 54L27 54L27 53L28 53L28 57L29 57L29 55L30 55L30 57L34 57L34 55L35 55L35 57L37 57L37 56L36 56L36 54L37 54L37 55L40 55L40 54L43 54L43 55L41 55L41 57L43 57L43 55L44 55L44 53L46 53L46 52L45 52L45 51L43 51L43 52L42 52L42 50L43 50L43 49L42 49L42 47L43 47L43 46L44 46L44 45L45 45L45 47L44 47L44 49L47 49L47 52L48 52L48 54L49 54L49 57L50 57L50 55L51 55L51 56L53 56L53 57L54 57L54 56L53 56L53 50L54 50L54 51L56 51L56 52L54 52L54 53L55 53L55 54L57 54L57 53L56 53L56 52L57 52L57 51L56 51L56 45L54 45L54 44L53 44L53 43L54 43L54 42L55 42L55 44L56 44L56 42L57 42L57 40L53 40L53 39L52 39L52 41L51 41L51 43L50 43L50 42L49 42L49 41L48 41L48 43L47 43L47 44L46 44L46 45L45 45L45 44L44 44L44 43L43 43L43 44L42 44L42 43L41 43L41 45L40 45L40 42L44 42L44 41L45 41L45 42L46 42L46 39L47 39L47 40L51 40L51 39L50 39L50 38L52 38L52 37L51 37L51 36L53 36L53 38L54 38L54 37L56 37L56 36L57 36L57 35L56 35L56 34L55 34L55 33L56 33L56 30L55 30L55 32L53 32L53 29L54 29L54 28L53 28L53 27L54 27L54 26L55 26L55 28L56 28L56 29L57 29L57 28L56 28L56 26L55 26L55 25L53 25L53 26L51 26L51 25L52 25L52 24L53 24L53 23L52 23L52 22L54 22L54 21L52 21L52 20L53 20L53 19L49 19L49 17L50 17L50 18L52 18L52 16L51 16L51 15L52 15L52 14L53 14L53 15L55 15L55 16L53 16L53 17L55 17L55 16L56 16L56 17L57 17L57 15L56 15L56 10L57 10L57 8L53 8L53 9L55 9L55 13L54 13L54 12L53 12L53 13L52 13L52 14L51 14L51 12L52 12L52 8L51 8L51 9L50 9L50 10L49 10L49 6L48 6L48 7L47 7L47 5L48 5L48 0L41 0L41 1L40 1L40 2L39 2L39 3L40 3L40 4L38 4L38 5L36 5L36 4L35 4L35 5L34 5L34 3L33 3L33 1L34 1L34 2L36 2L36 3L38 3L38 1L39 1L39 0L38 0L38 1L37 1L37 2L36 2L36 0L35 0L35 1L34 1L34 0L29 0L29 1L28 1L28 0L23 0L23 1L22 1L22 2L21 2L21 0L20 0L20 1L19 1L19 0L18 0L18 1L16 1L16 0L14 0L14 1L12 1L12 0ZM9 1L9 2L10 2L10 4L11 4L11 5L12 5L12 6L11 6L11 7L12 7L12 9L13 9L13 10L14 10L14 6L15 6L15 7L16 7L16 6L17 6L17 8L19 8L19 9L16 9L16 10L15 10L15 12L16 12L16 10L18 10L18 11L17 11L17 13L15 13L15 14L17 14L17 16L15 16L15 15L14 15L14 14L13 14L13 15L11 15L11 14L10 14L10 13L9 13L9 12L7 12L7 11L6 11L6 10L7 10L7 9L6 9L6 10L5 10L5 12L7 12L7 13L6 13L6 14L5 14L5 16L3 16L3 17L1 17L1 18L2 18L2 19L3 19L3 20L1 20L1 21L3 21L3 20L4 20L4 19L5 19L5 21L4 21L4 22L1 22L1 23L2 23L2 24L3 24L3 25L5 25L5 26L8 26L8 25L5 25L5 24L8 24L8 22L9 22L9 24L10 24L10 23L13 23L13 24L14 24L14 25L15 25L15 24L16 24L16 26L17 26L17 27L18 27L18 26L20 26L20 27L19 27L19 28L18 28L18 29L14 29L14 28L16 28L16 27L14 27L14 26L13 26L13 27L12 27L12 28L13 28L13 29L12 29L12 31L13 31L13 32L11 32L11 33L10 33L10 35L9 35L9 36L10 36L10 35L11 35L11 36L12 36L12 39L13 39L13 38L15 38L15 39L14 39L14 40L15 40L15 39L16 39L16 38L17 38L17 39L18 39L18 40L19 40L19 39L20 39L20 38L21 38L21 37L17 37L17 35L18 35L18 36L20 36L20 33L21 33L21 34L23 34L23 33L25 33L25 32L26 32L26 34L27 34L27 35L26 35L26 36L25 36L25 34L24 34L24 36L25 36L25 37L27 37L27 39L28 39L28 38L29 38L29 39L31 39L31 40L30 40L30 41L29 41L29 40L27 40L27 41L26 41L26 42L25 42L25 43L27 43L27 41L28 41L28 44L27 44L27 45L26 45L26 46L24 46L24 45L25 45L25 44L24 44L24 43L23 43L23 41L25 41L25 40L26 40L26 38L24 38L24 37L23 37L23 35L22 35L22 39L24 39L24 40L22 40L22 42L21 42L21 43L20 43L20 44L19 44L19 47L18 47L18 48L19 48L19 49L16 49L16 48L15 48L15 47L16 47L16 46L15 46L15 47L13 47L13 46L11 46L11 48L10 48L10 49L11 49L11 50L12 50L12 51L13 51L13 50L14 50L14 48L15 48L15 49L16 49L16 51L18 51L18 50L19 50L19 51L20 51L20 44L21 44L21 43L22 43L22 44L24 44L24 45L21 45L21 46L22 46L22 47L21 47L21 48L22 48L22 49L21 49L21 50L22 50L22 51L21 51L21 52L22 52L22 53L21 53L21 54L22 54L22 53L24 53L24 54L25 54L25 53L26 53L26 49L25 49L25 48L24 48L24 47L26 47L26 48L31 48L31 49L32 49L32 45L30 45L30 46L29 46L29 45L28 45L28 44L29 44L29 43L30 43L30 44L31 44L31 42L30 42L30 41L32 41L32 43L33 43L33 44L35 44L35 43L33 43L33 41L32 41L32 40L33 40L33 39L34 39L34 42L35 42L35 39L37 39L37 42L38 42L38 37L41 37L41 39L42 39L42 37L44 37L44 38L43 38L43 41L44 41L44 39L45 39L45 37L44 37L44 35L45 35L45 36L46 36L46 38L47 38L47 39L49 39L49 38L50 38L50 35L53 35L53 36L55 36L55 35L53 35L53 34L54 34L54 33L51 33L51 31L49 31L49 32L50 32L50 35L49 35L49 36L48 36L48 35L47 35L47 36L46 36L46 34L49 34L49 33L48 33L48 31L47 31L47 30L48 30L48 27L46 27L46 26L48 26L48 25L49 25L49 26L50 26L50 24L52 24L52 23L50 23L50 22L49 22L49 23L50 23L50 24L48 24L48 23L47 23L47 21L51 21L51 22L52 22L52 21L51 21L51 20L47 20L47 19L46 19L46 18L47 18L47 17L48 17L48 15L49 15L49 16L50 16L50 17L51 17L51 16L50 16L50 11L51 11L51 10L50 10L50 11L49 11L49 10L47 10L47 9L48 9L48 8L47 8L47 7L46 7L46 5L47 5L47 3L44 3L44 2L43 2L43 3L44 3L44 4L43 4L43 5L39 5L39 8L38 8L38 6L37 6L37 8L38 8L38 9L35 9L35 7L36 7L36 5L35 5L35 7L34 7L34 5L33 5L33 3L32 3L32 1L31 1L31 2L28 2L28 1L25 1L25 3L23 3L23 2L22 2L22 3L21 3L21 2L20 2L20 3L17 3L17 2L16 2L16 3L15 3L15 1L14 1L14 4L15 4L15 5L14 5L14 6L13 6L13 5L12 5L12 3L11 3L11 2L12 2L12 1L11 1L11 2L10 2L10 1ZM45 1L45 2L47 2L47 1ZM40 2L40 3L42 3L42 2ZM16 3L16 4L17 4L17 3ZM22 3L22 4L21 4L21 6L20 6L20 5L19 5L19 4L18 4L18 5L19 5L19 6L18 6L18 7L19 7L19 8L20 8L20 10L19 10L19 11L20 11L20 15L22 15L22 16L24 16L24 15L25 15L25 17L21 17L21 16L20 16L20 18L19 18L19 16L17 16L17 18L19 18L19 19L20 19L20 18L21 18L21 19L22 19L22 20L20 20L20 21L19 21L19 20L18 20L18 19L17 19L17 21L15 21L15 20L14 20L14 19L13 19L13 18L14 18L14 17L15 17L15 19L16 19L16 17L15 17L15 16L14 16L14 15L13 15L13 16L11 16L11 15L10 15L10 14L9 14L9 13L8 13L8 14L6 14L6 15L8 15L8 16L9 16L9 18L10 18L10 21L9 21L9 22L10 22L10 21L14 21L14 22L13 22L13 23L14 23L14 24L15 24L15 23L16 23L16 22L17 22L17 25L19 25L19 23L20 23L20 22L21 22L21 25L20 25L20 26L21 26L21 27L22 27L22 28L23 28L23 27L24 27L24 28L25 28L25 29L23 29L23 30L22 30L22 29L21 29L21 28L19 28L19 29L18 29L18 30L15 30L15 31L16 31L16 32L17 32L17 34L18 34L18 33L19 33L19 32L20 32L20 31L21 31L21 33L22 33L22 31L23 31L23 32L24 32L24 31L23 31L23 30L25 30L25 31L26 31L26 32L27 32L27 34L28 34L28 36L27 36L27 37L28 37L28 36L29 36L29 37L31 37L31 36L32 36L32 37L33 37L33 38L31 38L31 39L33 39L33 38L34 38L34 39L35 39L35 38L37 38L37 37L38 37L38 36L40 36L40 35L38 35L38 34L39 34L39 33L40 33L40 34L42 34L42 35L41 35L41 37L42 37L42 36L43 36L43 33L45 33L45 34L46 34L46 32L47 32L47 31L46 31L46 30L45 30L45 26L46 26L46 25L45 25L45 24L44 24L44 27L43 27L43 25L40 25L40 23L39 23L39 21L40 21L40 22L41 22L41 24L43 24L43 23L44 23L44 22L45 22L45 21L47 21L47 20L46 20L46 19L45 19L45 18L46 18L46 17L47 17L47 15L46 15L46 9L47 9L47 8L46 8L46 7L45 7L45 5L46 5L46 4L44 4L44 9L43 9L43 6L42 6L42 8L41 8L41 6L40 6L40 8L39 8L39 9L38 9L38 10L39 10L39 11L37 11L37 12L36 12L36 10L34 10L34 9L33 9L33 8L34 8L34 7L33 7L33 5L32 5L32 3L31 3L31 4L30 4L30 3L28 3L28 4L26 4L26 3L25 3L25 4L24 4L24 5L23 5L23 6L22 6L22 4L23 4L23 3ZM8 5L8 7L9 7L9 5ZM15 5L15 6L16 6L16 5ZM27 5L27 8L30 8L30 5ZM12 6L12 7L13 7L13 6ZM19 6L19 7L20 7L20 6ZM21 6L21 7L22 7L22 6ZM23 6L23 7L24 7L24 8L22 8L22 10L20 10L20 11L22 11L22 12L24 12L24 13L25 13L25 12L24 12L24 11L23 11L23 9L24 9L24 8L25 8L25 10L27 10L27 11L26 11L26 13L29 13L29 16L31 16L31 17L32 17L32 19L34 19L34 20L33 20L33 21L34 21L34 22L31 22L31 23L30 23L30 25L31 25L31 29L32 29L32 30L31 30L31 31L32 31L32 32L30 32L30 31L27 31L27 32L29 32L29 33L28 33L28 34L29 34L29 33L31 33L31 34L30 34L30 36L31 36L31 35L32 35L32 34L33 34L33 35L34 35L34 36L33 36L33 37L34 37L34 38L35 38L35 37L34 37L34 36L35 36L35 35L34 35L34 34L35 34L35 32L34 32L34 34L33 34L33 33L32 33L32 32L33 32L33 29L32 29L32 28L33 28L33 27L34 27L34 31L36 31L36 30L37 30L37 32L38 32L38 30L37 30L37 29L38 29L38 28L37 28L37 29L35 29L35 27L36 27L36 26L37 26L37 27L39 27L39 28L40 28L40 30L39 30L39 32L40 32L40 33L41 33L41 32L40 32L40 31L41 31L41 29L43 29L43 31L45 31L45 30L44 30L44 29L43 29L43 28L42 28L42 27L41 27L41 26L40 26L40 25L39 25L39 23L38 23L38 21L39 21L39 20L38 20L38 21L37 21L37 22L35 22L35 21L34 21L34 20L36 20L36 19L34 19L34 18L37 18L37 19L39 19L39 18L40 18L40 21L43 21L43 22L44 22L44 16L45 16L45 17L46 17L46 15L45 15L45 14L44 14L44 16L43 16L43 15L42 15L42 17L43 17L43 18L42 18L42 19L43 19L43 20L41 20L41 18L40 18L40 17L41 17L41 15L40 15L40 14L41 14L41 13L44 13L44 12L45 12L45 11L43 11L43 10L41 10L41 8L40 8L40 11L39 11L39 12L37 12L37 13L35 13L35 12L34 12L34 10L33 10L33 11L32 11L32 8L33 8L33 7L32 7L32 6L31 6L31 11L32 11L32 12L29 12L29 9L26 9L26 6L25 6L25 7L24 7L24 6ZM28 6L28 7L29 7L29 6ZM45 8L45 9L44 9L44 10L45 10L45 9L46 9L46 8ZM53 10L53 11L54 11L54 10ZM27 11L27 12L28 12L28 11ZM41 11L41 12L43 12L43 11ZM47 11L47 12L48 12L48 11ZM18 12L18 13L17 13L17 14L19 14L19 12ZM32 12L32 13L33 13L33 14L31 14L31 13L30 13L30 15L33 15L33 16L32 16L32 17L33 17L33 18L34 18L34 13L33 13L33 12ZM21 13L21 14L22 14L22 15L24 15L24 14L23 14L23 13ZM38 13L38 15L39 15L39 17L38 17L38 16L37 16L37 14L35 14L35 17L38 17L38 18L39 18L39 17L40 17L40 15L39 15L39 14L40 14L40 13ZM47 13L47 14L49 14L49 13ZM53 13L53 14L54 14L54 13ZM8 14L8 15L9 15L9 14ZM26 14L26 17L27 17L27 19L26 19L26 20L27 20L27 19L30 19L30 20L28 20L28 21L24 21L24 20L25 20L25 18L24 18L24 19L23 19L23 20L22 20L22 21L24 21L24 22L25 22L25 23L26 23L26 22L27 22L27 23L28 23L28 25L27 25L27 26L29 26L29 23L28 23L28 22L29 22L29 21L32 21L32 20L31 20L31 19L30 19L30 18L28 18L28 17L27 17L27 15L28 15L28 14ZM5 16L5 17L4 17L4 18L6 18L6 19L7 19L7 18L6 18L6 17L7 17L7 16ZM10 16L10 17L11 17L11 16ZM13 16L13 17L12 17L12 18L13 18L13 17L14 17L14 16ZM8 19L8 20L6 20L6 21L7 21L7 22L6 22L6 23L7 23L7 22L8 22L8 20L9 20L9 19ZM11 19L11 20L13 20L13 19ZM55 19L55 20L56 20L56 21L55 21L55 24L56 24L56 25L57 25L57 24L56 24L56 21L57 21L57 19ZM17 21L17 22L19 22L19 21ZM4 22L4 23L3 23L3 24L4 24L4 23L5 23L5 22ZM34 22L34 23L32 23L32 27L33 27L33 26L34 26L34 25L37 25L37 24L34 24L34 23L35 23L35 22ZM22 23L22 25L21 25L21 26L22 26L22 25L24 25L24 23ZM11 24L11 25L10 25L10 26L12 26L12 24ZM33 24L33 25L34 25L34 24ZM47 24L47 25L48 25L48 24ZM25 25L25 26L24 26L24 27L26 27L26 25ZM38 25L38 26L39 26L39 27L40 27L40 28L41 28L41 27L40 27L40 26L39 26L39 25ZM2 27L2 28L1 28L1 29L2 29L2 30L3 30L3 29L4 29L4 27ZM5 27L5 30L8 30L8 27ZM9 27L9 29L10 29L10 30L9 30L9 31L5 31L5 33L4 33L4 34L3 34L3 35L4 35L4 37L5 37L5 35L6 35L6 36L8 36L8 35L6 35L6 34L8 34L8 33L9 33L9 31L11 31L11 27ZM27 27L27 30L30 30L30 27ZM49 27L49 30L52 30L52 27ZM6 28L6 29L7 29L7 28ZM28 28L28 29L29 29L29 28ZM46 28L46 29L47 29L47 28ZM50 28L50 29L51 29L51 28ZM19 29L19 31L20 31L20 29ZM25 29L25 30L26 30L26 29ZM21 30L21 31L22 31L22 30ZM0 32L0 34L1 34L1 32ZM6 32L6 33L5 33L5 34L4 34L4 35L5 35L5 34L6 34L6 33L7 33L7 32ZM13 32L13 33L11 33L11 35L12 35L12 36L13 36L13 37L14 37L14 36L15 36L15 37L16 37L16 33L15 33L15 34L13 34L13 33L14 33L14 32ZM37 33L37 34L38 34L38 33ZM12 34L12 35L13 35L13 36L14 36L14 35L13 35L13 34ZM37 35L37 36L38 36L38 35ZM1 37L1 38L3 38L3 37ZM18 38L18 39L19 39L19 38ZM39 38L39 39L40 39L40 38ZM55 38L55 39L57 39L57 38ZM6 40L6 41L7 41L7 40ZM40 40L40 41L39 41L39 42L40 42L40 41L42 41L42 40ZM3 41L3 42L4 42L4 44L1 44L1 43L2 43L2 42L1 42L1 43L0 43L0 45L1 45L1 46L0 46L0 48L5 48L5 47L7 47L7 46L9 46L9 45L7 45L7 44L6 44L6 43L7 43L7 42L6 42L6 43L5 43L5 42L4 42L4 41ZM52 41L52 43L51 43L51 44L50 44L50 43L49 43L49 45L48 45L48 44L47 44L47 45L46 45L46 47L47 47L47 49L48 49L48 47L49 47L49 48L51 48L51 44L52 44L52 43L53 43L53 41ZM55 41L55 42L56 42L56 41ZM36 43L36 44L37 44L37 45L36 45L36 46L35 46L35 45L34 45L34 47L33 47L33 49L34 49L34 50L31 50L31 52L32 52L32 51L33 51L33 52L34 52L34 51L35 51L35 52L36 52L36 49L34 49L34 47L36 47L36 48L37 48L37 46L38 46L38 45L39 45L39 46L40 46L40 51L38 51L38 49L39 49L39 47L38 47L38 49L37 49L37 54L38 54L38 53L39 53L39 52L40 52L40 53L41 53L41 46L40 46L40 45L39 45L39 44L37 44L37 43ZM5 44L5 45L6 45L6 46L7 46L7 45L6 45L6 44ZM43 44L43 45L44 45L44 44ZM2 45L2 46L1 46L1 47L2 47L2 46L3 46L3 47L5 47L5 46L3 46L3 45ZM27 45L27 46L26 46L26 47L27 47L27 46L28 46L28 47L29 47L29 46L28 46L28 45ZM49 45L49 47L50 47L50 45ZM52 45L52 47L53 47L53 49L54 49L54 48L55 48L55 47L53 47L53 45ZM12 47L12 49L13 49L13 47ZM22 47L22 48L23 48L23 49L22 49L22 50L23 50L23 51L22 51L22 52L24 52L24 53L25 53L25 49L24 49L24 48L23 48L23 47ZM6 48L6 49L7 49L7 48ZM27 49L27 52L30 52L30 49ZM49 49L49 52L52 52L52 49ZM28 50L28 51L29 51L29 50ZM50 50L50 51L51 51L51 50ZM19 52L19 53L20 53L20 52ZM43 52L43 53L44 53L44 52ZM30 53L30 54L31 54L31 53ZM32 53L32 54L33 54L33 55L34 55L34 54L35 54L35 53L34 53L34 54L33 54L33 53ZM49 53L49 54L51 54L51 55L52 55L52 54L51 54L51 53ZM9 55L9 56L10 56L10 55ZM45 55L45 56L44 56L44 57L45 57L45 56L46 56L46 57L47 57L47 56L46 56L46 55ZM26 56L26 57L27 57L27 56ZM39 56L39 57L40 57L40 56ZM56 56L56 57L57 57L57 56ZM0 0L0 7L7 7L7 0ZM1 1L1 6L6 6L6 1ZM2 2L2 5L5 5L5 2ZM50 0L50 7L57 7L57 0ZM51 1L51 6L56 6L56 1ZM52 2L52 5L55 5L55 2ZM0 50L0 57L7 57L7 50ZM1 51L1 56L6 56L6 51ZM2 52L2 55L5 55L5 52Z" fill="#000000"/></g></g></svg>
