<?xml version="1.0" encoding="UTF-8"?>
<svg xmlns="http://www.w3.org/2000/svg" version="1.1" width="300" height="300" viewBox="0 0 300 300"><rect x="0" y="0" width="300" height="300" fill="#fefefe"/><g transform="scale(4.615)"><g transform="translate(4,4)"><path fill-rule="evenodd" d="M10 0L10 1L11 1L11 2L10 2L10 3L12 3L12 0ZM13 0L13 1L14 1L14 2L13 2L13 4L14 4L14 2L17 2L17 4L18 4L18 5L17 5L17 6L16 6L16 7L15 7L15 6L14 6L14 5L13 5L13 6L12 6L12 7L11 7L11 6L10 6L10 7L9 7L9 5L12 5L12 4L9 4L9 3L8 3L8 4L9 4L9 5L8 5L8 7L9 7L9 8L6 8L6 9L7 9L7 10L5 10L5 8L0 8L0 9L3 9L3 10L0 10L0 13L1 13L1 14L2 14L2 15L1 15L1 17L0 17L0 20L1 20L1 17L2 17L2 19L3 19L3 20L4 20L4 21L3 21L3 22L2 22L2 21L1 21L1 22L0 22L0 23L1 23L1 24L2 24L2 23L3 23L3 22L4 22L4 23L5 23L5 24L6 24L6 25L7 25L7 26L4 26L4 25L3 25L3 26L4 26L4 27L3 27L3 29L2 29L2 32L1 32L1 31L0 31L0 32L1 32L1 34L0 34L0 35L1 35L1 37L0 37L0 38L2 38L2 41L3 41L3 37L4 37L4 40L5 40L5 39L8 39L8 40L9 40L9 41L10 41L10 42L9 42L9 43L10 43L10 44L8 44L8 42L5 42L5 41L4 41L4 43L3 43L3 42L2 42L2 43L1 43L1 40L0 40L0 44L1 44L1 45L0 45L0 48L5 48L5 47L7 47L7 46L6 46L6 45L7 45L7 44L8 44L8 46L10 46L10 44L11 44L11 47L9 47L9 49L8 49L8 48L6 48L6 49L8 49L8 51L12 51L12 52L11 52L11 53L10 53L10 52L8 52L8 57L9 57L9 56L10 56L10 54L11 54L11 53L12 53L12 54L14 54L14 56L15 56L15 57L16 57L16 56L17 56L17 57L20 57L20 56L19 56L19 55L20 55L20 54L19 54L19 55L17 55L17 53L20 53L20 52L21 52L21 53L22 53L22 55L23 55L23 56L24 56L24 55L23 55L23 54L24 54L24 53L27 53L27 54L30 54L30 53L31 53L31 49L32 49L32 52L33 52L33 53L32 53L32 54L31 54L31 56L30 56L30 55L29 55L29 56L27 56L27 57L29 57L29 56L30 56L30 57L31 57L31 56L35 56L35 57L39 57L39 56L37 56L37 55L41 55L41 57L42 57L42 55L44 55L44 54L45 54L45 53L44 53L44 52L47 52L47 51L46 51L46 50L45 50L45 51L44 51L44 48L43 48L43 47L44 47L44 46L45 46L45 48L46 48L46 49L47 49L47 50L48 50L48 54L47 54L47 55L48 55L48 56L46 56L46 57L49 57L49 56L50 56L50 57L52 57L52 55L51 55L51 53L52 53L52 54L53 54L53 52L54 52L54 53L56 53L56 52L57 52L57 51L56 51L56 50L55 50L55 49L54 49L54 48L56 48L56 49L57 49L57 48L56 48L56 46L57 46L57 45L56 45L56 44L55 44L55 43L56 43L56 42L55 42L55 39L57 39L57 37L55 37L55 36L57 36L57 35L56 35L56 34L57 34L57 32L56 32L56 30L57 30L57 29L56 29L56 28L57 28L57 27L56 27L56 26L57 26L57 25L56 25L56 22L57 22L57 21L56 21L56 20L55 20L55 19L56 19L56 18L57 18L57 17L56 17L56 16L57 16L57 15L56 15L56 14L57 14L57 11L56 11L56 8L55 8L55 10L54 10L54 11L51 11L51 10L52 10L52 8L51 8L51 10L49 10L49 9L50 9L50 8L49 8L49 6L48 6L48 7L47 7L47 5L48 5L48 0L45 0L45 2L44 2L44 3L43 3L43 4L42 4L42 2L43 2L43 0L41 0L41 1L40 1L40 0L39 0L39 1L38 1L38 0L37 0L37 1L38 1L38 3L36 3L36 0L35 0L35 1L33 1L33 0L30 0L30 1L29 1L29 0L28 0L28 1L25 1L25 0L23 0L23 2L28 2L28 3L29 3L29 4L26 4L26 3L23 3L23 4L24 4L24 5L23 5L23 6L22 6L22 7L21 7L21 5L22 5L22 4L19 4L19 2L18 2L18 1L14 1L14 0ZM19 0L19 1L20 1L20 3L22 3L22 0L21 0L21 1L20 1L20 0ZM8 1L8 2L9 2L9 1ZM30 1L30 2L31 2L31 3L30 3L30 4L31 4L31 8L32 8L32 10L31 10L31 11L30 11L30 10L29 10L29 12L28 12L28 13L27 13L27 14L26 14L26 12L27 12L27 11L28 11L28 9L27 9L27 11L26 11L26 12L25 12L25 10L23 10L23 12L24 12L24 13L22 13L22 12L20 12L20 11L22 11L22 10L21 10L21 9L23 9L23 8L24 8L24 6L23 6L23 7L22 7L22 8L19 8L19 7L20 7L20 5L18 5L18 6L17 6L17 7L16 7L16 8L15 8L15 7L14 7L14 6L13 6L13 7L14 7L14 9L13 9L13 8L11 8L11 10L12 10L12 11L13 11L13 12L14 12L14 11L13 11L13 10L15 10L15 13L13 13L13 14L10 14L10 13L8 13L8 14L7 14L7 13L6 13L6 14L5 14L5 15L3 15L3 16L2 16L2 17L3 17L3 16L4 16L4 17L6 17L6 18L5 18L5 20L7 20L7 21L6 21L6 22L5 22L5 23L6 23L6 24L7 24L7 25L8 25L8 26L10 26L10 27L9 27L9 29L10 29L10 31L5 31L5 32L8 32L8 35L6 35L6 34L7 34L7 33L5 33L5 34L3 34L3 35L2 35L2 36L4 36L4 37L6 37L6 38L7 38L7 37L6 37L6 36L8 36L8 35L9 35L9 36L12 36L12 35L13 35L13 38L12 38L12 37L8 37L8 39L9 39L9 40L10 40L10 41L11 41L11 42L10 42L10 43L11 43L11 44L12 44L12 43L13 43L13 41L14 41L14 43L15 43L15 46L16 46L16 47L14 47L14 46L13 46L13 45L12 45L12 47L11 47L11 48L12 48L12 50L13 50L13 51L14 51L14 52L12 52L12 53L14 53L14 54L16 54L16 53L17 53L17 52L18 52L18 51L19 51L19 50L20 50L20 51L21 51L21 52L22 52L22 53L24 53L24 52L26 52L26 48L27 48L27 47L28 47L28 48L30 48L30 47L28 47L28 46L29 46L29 44L28 44L28 43L29 43L29 42L32 42L32 43L33 43L33 44L31 44L31 45L33 45L33 46L31 46L31 47L33 47L33 48L32 48L32 49L33 49L33 50L34 50L34 51L33 51L33 52L34 52L34 53L33 53L33 54L35 54L35 56L36 56L36 54L35 54L35 50L36 50L36 52L37 52L37 51L38 51L38 50L41 50L41 52L40 52L40 51L39 51L39 52L38 52L38 54L40 54L40 53L42 53L42 52L43 52L43 51L42 51L42 50L41 50L41 48L42 48L42 49L43 49L43 48L42 48L42 47L43 47L43 46L41 46L41 44L42 44L42 42L40 42L40 41L44 41L44 42L45 42L45 43L43 43L43 44L44 44L44 45L45 45L45 46L50 46L50 47L48 47L48 48L47 48L47 47L46 47L46 48L47 48L47 49L48 49L48 48L50 48L50 47L51 47L51 46L52 46L52 48L53 48L53 47L55 47L55 46L56 46L56 45L55 45L55 44L54 44L54 45L52 45L52 44L53 44L53 43L54 43L54 42L53 42L53 41L51 41L51 42L50 42L50 43L49 43L49 42L48 42L48 41L49 41L49 39L55 39L55 37L53 37L53 35L55 35L55 34L54 34L54 33L56 33L56 32L54 32L54 31L53 31L53 32L54 32L54 33L52 33L52 32L51 32L51 33L52 33L52 34L50 34L50 32L49 32L49 31L48 31L48 30L47 30L47 29L48 29L48 28L47 28L47 29L46 29L46 30L47 30L47 31L45 31L45 32L43 32L43 30L44 30L44 29L45 29L45 28L46 28L46 27L48 27L48 25L50 25L50 26L53 26L53 27L54 27L54 26L53 26L53 23L50 23L50 22L51 22L51 21L53 21L53 22L56 22L56 21L55 21L55 20L53 20L53 19L52 19L52 17L53 17L53 18L56 18L56 17L53 17L53 15L52 15L52 16L51 16L51 15L50 15L50 14L51 14L51 12L50 12L50 11L49 11L49 12L48 12L48 10L47 10L47 9L49 9L49 8L44 8L44 6L45 6L45 7L46 7L46 5L47 5L47 3L44 3L44 6L43 6L43 7L42 7L42 6L41 6L41 5L40 5L40 4L41 4L41 3L38 3L38 5L37 5L37 4L36 4L36 5L35 5L35 3L32 3L32 2L33 2L33 1ZM46 1L46 2L47 2L47 1ZM31 3L31 4L32 4L32 5L34 5L34 7L33 7L33 6L32 6L32 7L33 7L33 9L34 9L34 8L35 8L35 9L37 9L37 10L36 10L36 12L35 12L35 14L33 14L33 13L34 13L34 12L33 12L33 13L32 13L32 12L31 12L31 13L30 13L30 14L29 14L29 13L28 13L28 14L29 14L29 16L28 16L28 15L27 15L27 16L28 16L28 17L27 17L27 18L28 18L28 19L27 19L27 20L29 20L29 22L31 22L31 21L32 21L32 20L33 20L33 19L35 19L35 23L32 23L32 24L29 24L29 23L27 23L27 22L28 22L28 21L25 21L25 20L26 20L26 19L25 19L25 18L26 18L26 14L25 14L25 13L24 13L24 14L22 14L22 13L21 13L21 15L23 15L23 16L24 16L24 15L25 15L25 17L22 17L22 16L21 16L21 17L22 17L22 18L20 18L20 16L19 16L19 15L20 15L20 13L19 13L19 10L20 10L20 9L19 9L19 8L16 8L16 9L15 9L15 10L16 10L16 9L17 9L17 10L18 10L18 11L16 11L16 13L15 13L15 14L13 14L13 15L10 15L10 14L8 14L8 15L9 15L9 16L8 16L8 18L11 18L11 16L12 16L12 18L13 18L13 17L14 17L14 16L16 16L16 17L18 17L18 18L17 18L17 19L15 19L15 21L16 21L16 22L15 22L15 23L16 23L16 24L15 24L15 25L16 25L16 24L17 24L17 25L19 25L19 26L20 26L20 27L19 27L19 29L18 29L18 28L16 28L16 29L15 29L15 32L14 32L14 31L13 31L13 33L12 33L12 32L11 32L11 34L13 34L13 35L15 35L15 32L17 32L17 31L19 31L19 32L18 32L18 33L17 33L17 34L16 34L16 35L17 35L17 34L18 34L18 35L19 35L19 34L20 34L20 33L21 33L21 35L20 35L20 36L22 36L22 33L21 33L21 32L23 32L23 31L24 31L24 32L25 32L25 33L23 33L23 34L24 34L24 36L23 36L23 37L24 37L24 38L23 38L23 39L22 39L22 40L23 40L23 39L24 39L24 40L25 40L25 37L26 37L26 39L27 39L27 40L28 40L28 39L27 39L27 38L28 38L28 37L27 37L27 36L26 36L26 35L27 35L27 33L26 33L26 32L28 32L28 33L29 33L29 34L30 34L30 36L29 36L29 37L31 37L31 38L29 38L29 39L33 39L33 40L35 40L35 42L37 42L37 43L36 43L36 44L35 44L35 43L34 43L34 42L33 42L33 41L32 41L32 40L31 40L31 41L32 41L32 42L33 42L33 43L34 43L34 45L35 45L35 46L33 46L33 47L35 47L35 46L37 46L37 47L36 47L36 48L33 48L33 49L36 49L36 50L38 50L38 49L39 49L39 48L41 48L41 46L40 46L40 47L39 47L39 46L38 46L38 45L39 45L39 44L41 44L41 43L39 43L39 42L38 42L38 40L40 40L40 39L38 39L38 40L35 40L35 39L37 39L37 38L38 38L38 37L37 37L37 36L38 36L38 33L37 33L37 32L34 32L34 31L36 31L36 30L37 30L37 29L38 29L38 28L40 28L40 27L36 27L36 26L34 26L34 27L33 27L33 26L32 26L32 24L33 24L33 25L37 25L37 26L38 26L38 24L42 24L42 25L39 25L39 26L44 26L44 20L45 20L45 21L47 21L47 22L45 22L45 23L47 23L47 22L49 22L49 21L51 21L51 20L52 20L52 19L50 19L50 17L49 17L49 16L50 16L50 15L49 15L49 14L50 14L50 12L49 12L49 13L47 13L47 14L44 14L44 15L42 15L42 16L41 16L41 14L43 14L43 13L44 13L44 12L43 12L43 13L39 13L39 12L41 12L41 10L44 10L44 11L45 11L45 12L47 12L47 10L46 10L46 11L45 11L45 10L44 10L44 8L43 8L43 9L41 9L41 10L38 10L38 9L39 9L39 8L40 8L40 7L41 7L41 6L40 6L40 5L39 5L39 6L38 6L38 7L37 7L37 5L36 5L36 7L37 7L37 8L35 8L35 5L34 5L34 4L32 4L32 3ZM15 4L15 5L16 5L16 4ZM25 4L25 8L26 8L26 4ZM45 4L45 5L46 5L46 4ZM27 5L27 8L30 8L30 5ZM18 6L18 7L19 7L19 6ZM28 6L28 7L29 7L29 6ZM39 6L39 7L40 7L40 6ZM37 8L37 9L38 9L38 8ZM53 8L53 9L54 9L54 8ZM9 9L9 11L10 11L10 9ZM12 9L12 10L13 10L13 9ZM18 9L18 10L19 10L19 9ZM32 10L32 11L33 11L33 10ZM37 10L37 11L38 11L38 10ZM2 11L2 14L3 14L3 12L4 12L4 13L5 13L5 12L7 12L7 11L5 11L5 12L4 12L4 11ZM11 12L11 13L12 13L12 12ZM17 12L17 13L16 13L16 16L17 16L17 13L18 13L18 12ZM52 12L52 13L53 13L53 14L54 14L54 13L55 13L55 14L56 14L56 12L54 12L54 13L53 13L53 12ZM31 13L31 14L30 14L30 15L32 15L32 17L31 17L31 18L30 18L30 19L29 19L29 20L31 20L31 19L32 19L32 17L33 17L33 18L35 18L35 19L36 19L36 20L37 20L37 19L39 19L39 17L41 17L41 16L39 16L39 15L38 15L38 14L39 14L39 13L38 13L38 14L37 14L37 13L36 13L36 14L37 14L37 15L35 15L35 16L33 16L33 15L32 15L32 13ZM6 14L6 15L5 15L5 16L6 16L6 17L7 17L7 16L6 16L6 15L7 15L7 14ZM18 14L18 15L19 15L19 14ZM13 15L13 16L14 16L14 15ZM44 15L44 18L43 18L43 20L44 20L44 18L45 18L45 19L46 19L46 18L47 18L47 21L48 21L48 20L49 20L49 18L47 18L47 15ZM48 15L48 16L49 16L49 15ZM35 16L35 17L37 17L37 18L38 18L38 17L39 17L39 16L38 16L38 17L37 17L37 16ZM42 16L42 17L43 17L43 16ZM45 16L45 17L46 17L46 16ZM6 18L6 19L7 19L7 18ZM19 18L19 19L17 19L17 20L16 20L16 21L17 21L17 20L20 20L20 21L19 21L19 22L17 22L17 24L19 24L19 25L20 25L20 26L22 26L22 27L20 27L20 30L19 30L19 31L20 31L20 30L21 30L21 31L23 31L23 29L24 29L24 28L25 28L25 29L26 29L26 28L25 28L25 27L26 27L26 26L27 26L27 25L28 25L28 26L30 26L30 25L29 25L29 24L25 24L25 23L26 23L26 22L25 22L25 21L24 21L24 20L21 20L21 19L20 19L20 18ZM23 18L23 19L24 19L24 18ZM41 18L41 19L42 19L42 18ZM11 19L11 21L12 21L12 20L14 20L14 19ZM38 20L38 22L37 22L37 24L38 24L38 23L40 23L40 22L39 22L39 21L42 21L42 20ZM9 21L9 22L8 22L8 23L7 23L7 22L6 22L6 23L7 23L7 24L9 24L9 25L11 25L11 24L12 24L12 23L13 23L13 25L12 25L12 26L13 26L13 25L14 25L14 21L13 21L13 22L12 22L12 23L11 23L11 24L9 24L9 22L10 22L10 21ZM22 21L22 22L21 22L21 23L22 23L22 24L23 24L23 25L22 25L22 26L23 26L23 27L24 27L24 26L26 26L26 25L25 25L25 24L24 24L24 23L22 23L22 22L24 22L24 21ZM1 22L1 23L2 23L2 22ZM19 22L19 23L20 23L20 22ZM41 22L41 23L42 23L42 22ZM20 24L20 25L21 25L21 24ZM46 24L46 25L48 25L48 24ZM54 24L54 25L55 25L55 26L56 26L56 25L55 25L55 24ZM0 25L0 26L2 26L2 25ZM14 26L14 27L13 27L13 28L15 28L15 27L16 27L16 26ZM17 26L17 27L18 27L18 26ZM31 26L31 27L32 27L32 30L31 30L31 31L30 31L30 32L29 32L29 33L31 33L31 35L32 35L32 33L33 33L33 35L35 35L35 36L37 36L37 34L35 34L35 33L34 33L34 32L33 32L33 30L35 30L35 28L33 28L33 27L32 27L32 26ZM0 27L0 28L2 28L2 27ZM5 27L5 30L8 30L8 27ZM11 27L11 28L10 28L10 29L11 29L11 30L14 30L14 29L11 29L11 28L12 28L12 27ZM27 27L27 30L30 30L30 27ZM41 27L41 28L42 28L42 27ZM44 27L44 28L43 28L43 29L39 29L39 30L38 30L38 32L39 32L39 31L41 31L41 30L43 30L43 29L44 29L44 28L45 28L45 27ZM49 27L49 30L52 30L52 27ZM55 27L55 28L54 28L54 29L53 29L53 30L55 30L55 28L56 28L56 27ZM6 28L6 29L7 29L7 28ZM21 28L21 29L22 29L22 28ZM28 28L28 29L29 29L29 28ZM50 28L50 29L51 29L51 28ZM3 29L3 30L4 30L4 29ZM16 29L16 30L18 30L18 29ZM3 31L3 33L4 33L4 31ZM25 31L25 32L26 32L26 31ZM31 31L31 33L32 33L32 31ZM47 31L47 32L48 32L48 33L49 33L49 32L48 32L48 31ZM9 32L9 34L10 34L10 32ZM41 32L41 33L39 33L39 34L40 34L40 35L39 35L39 37L40 37L40 38L41 38L41 39L42 39L42 38L43 38L43 37L44 37L44 38L45 38L45 37L44 37L44 36L48 36L48 35L44 35L44 33L43 33L43 32ZM45 32L45 33L46 33L46 32ZM18 33L18 34L19 34L19 33ZM25 33L25 35L26 35L26 33ZM42 34L42 36L44 36L44 35L43 35L43 34ZM49 34L49 35L50 35L50 37L49 37L49 38L50 38L50 37L52 37L52 35L53 35L53 34L52 34L52 35L50 35L50 34ZM4 35L4 36L5 36L5 35ZM14 36L14 38L13 38L13 39L11 39L11 38L9 38L9 39L11 39L11 40L13 40L13 39L14 39L14 41L15 41L15 40L16 40L16 39L15 39L15 38L16 38L16 37L15 37L15 36ZM17 36L17 42L16 42L16 45L17 45L17 46L18 46L18 47L17 47L17 49L21 49L21 51L22 51L22 52L23 52L23 51L22 51L22 50L25 50L25 49L24 49L24 48L23 48L23 49L21 49L21 48L19 48L19 47L20 47L20 45L19 45L19 44L20 44L20 43L19 43L19 42L20 42L20 40L21 40L21 37L19 37L19 36ZM32 36L32 37L33 37L33 38L34 38L34 39L35 39L35 37L33 37L33 36ZM40 36L40 37L41 37L41 36ZM19 38L19 39L18 39L18 40L19 40L19 39L20 39L20 38ZM47 38L47 39L43 39L43 40L47 40L47 39L48 39L48 38ZM6 40L6 41L7 41L7 40ZM29 40L29 41L30 41L30 40ZM18 41L18 42L17 42L17 43L18 43L18 42L19 42L19 41ZM21 41L21 42L22 42L22 43L21 43L21 44L22 44L22 45L21 45L21 47L23 47L23 46L25 46L25 45L23 45L23 44L24 44L24 43L25 43L25 44L27 44L27 45L26 45L26 47L25 47L25 48L26 48L26 47L27 47L27 45L28 45L28 44L27 44L27 43L25 43L25 41L23 41L23 42L22 42L22 41ZM26 41L26 42L27 42L27 41ZM11 42L11 43L12 43L12 42ZM23 42L23 43L24 43L24 42ZM47 42L47 43L46 43L46 44L45 44L45 45L47 45L47 43L48 43L48 42ZM51 42L51 43L50 43L50 45L51 45L51 43L53 43L53 42ZM4 43L4 45L5 45L5 43ZM6 43L6 44L7 44L7 43ZM2 44L2 45L1 45L1 47L2 47L2 46L3 46L3 47L5 47L5 46L3 46L3 44ZM17 44L17 45L18 45L18 44ZM48 44L48 45L49 45L49 44ZM22 45L22 46L23 46L23 45ZM54 45L54 46L55 46L55 45ZM13 47L13 48L14 48L14 49L13 49L13 50L15 50L15 51L16 51L16 50L15 50L15 49L16 49L16 48L14 48L14 47ZM38 47L38 48L37 48L37 49L38 49L38 48L39 48L39 47ZM9 49L9 50L11 50L11 49ZM27 49L27 52L30 52L30 49ZM49 49L49 52L52 52L52 49ZM28 50L28 51L29 51L29 50ZM50 50L50 51L51 51L51 50ZM54 50L54 51L55 51L55 50ZM15 52L15 53L16 53L16 52ZM9 53L9 54L10 54L10 53ZM43 53L43 54L44 54L44 53ZM25 54L25 55L26 55L26 54ZM41 54L41 55L42 55L42 54ZM15 55L15 56L16 56L16 55ZM50 55L50 56L51 56L51 55ZM53 55L53 56L55 56L55 57L56 57L56 56L55 56L55 55ZM12 56L12 57L13 57L13 56ZM25 56L25 57L26 57L26 56ZM43 56L43 57L44 57L44 56ZM0 0L0 7L7 7L7 0ZM1 1L1 6L6 6L6 1ZM2 2L2 5L5 5L5 2ZM50 0L50 7L57 7L57 0ZM51 1L51 6L56 6L56 1ZM52 2L52 5L55 5L55 2ZM0 50L0 57L7 57L7 50ZM1 51L1 56L6 56L6 51ZM2 52L2 55L5 55L5 52Z" fill="#000000"/></g></g></svg>
