<?xml version="1.0" encoding="UTF-8"?>
<svg xmlns="http://www.w3.org/2000/svg" version="1.1" width="300" height="300" viewBox="0 0 300 300"><rect x="0" y="0" width="300" height="300" fill="#fefefe"/><g transform="scale(4.615)"><g transform="translate(4,4)"><path fill-rule="evenodd" d="M10 0L10 1L11 1L11 0ZM12 0L12 1L14 1L14 2L10 2L10 3L12 3L12 4L14 4L14 2L16 2L16 1L14 1L14 0ZM17 0L17 1L18 1L18 2L17 2L17 4L19 4L19 5L20 5L20 7L19 7L19 6L18 6L18 5L17 5L17 6L16 6L16 7L15 7L15 5L16 5L16 4L15 4L15 5L14 5L14 8L12 8L12 9L10 9L10 12L9 12L9 13L10 13L10 15L9 15L9 14L8 14L8 12L6 12L6 11L7 11L7 10L6 10L6 9L9 9L9 8L11 8L11 6L12 6L12 7L13 7L13 6L12 6L12 5L11 5L11 4L10 4L10 5L8 5L8 7L9 7L9 8L6 8L6 9L5 9L5 8L0 8L0 9L1 9L1 10L0 10L0 11L2 11L2 12L1 12L1 14L0 14L0 17L1 17L1 18L2 18L2 19L0 19L0 20L1 20L1 22L2 22L2 21L3 21L3 23L2 23L2 24L1 24L1 23L0 23L0 25L1 25L1 26L2 26L2 28L1 28L1 29L0 29L0 30L1 30L1 29L2 29L2 31L1 31L1 33L2 33L2 34L3 34L3 33L4 33L4 34L5 34L5 35L0 35L0 36L1 36L1 37L0 37L0 38L1 38L1 40L0 40L0 44L2 44L2 45L3 45L3 46L2 46L2 47L1 47L1 45L0 45L0 48L5 48L5 47L7 47L7 48L6 48L6 49L7 49L7 48L9 48L9 47L7 47L7 46L6 46L6 45L8 45L8 43L7 43L7 42L8 42L8 41L7 41L7 40L6 40L6 39L9 39L9 38L6 38L6 39L4 39L4 41L3 41L3 39L2 39L2 38L1 38L1 37L3 37L3 38L4 38L4 37L3 37L3 36L5 36L5 35L7 35L7 34L9 34L9 33L7 33L7 32L10 32L10 34L11 34L11 33L14 33L14 34L13 34L13 35L14 35L14 34L15 34L15 36L14 36L14 37L15 37L15 38L16 38L16 37L15 37L15 36L17 36L17 37L18 37L18 38L17 38L17 42L16 42L16 44L18 44L18 45L17 45L17 46L19 46L19 47L17 47L17 48L16 48L16 47L15 47L15 45L14 45L14 42L15 42L15 41L16 41L16 39L15 39L15 40L14 40L14 38L13 38L13 40L11 40L11 39L10 39L10 40L9 40L9 41L10 41L10 42L9 42L9 46L10 46L10 47L11 47L11 49L10 49L10 50L9 50L9 49L8 49L8 51L10 51L10 52L8 52L8 57L10 57L10 56L12 56L12 57L14 57L14 55L13 55L13 56L12 56L12 54L13 54L13 53L14 53L14 54L15 54L15 55L16 55L16 56L15 56L15 57L16 57L16 56L17 56L17 57L19 57L19 55L20 55L20 54L19 54L19 53L20 53L20 52L23 52L23 51L21 51L21 50L25 50L25 49L26 49L26 52L24 52L24 53L21 53L21 54L22 54L22 55L23 55L23 56L24 56L24 57L26 57L26 56L24 56L24 55L23 55L23 54L24 54L24 53L27 53L27 54L30 54L30 53L31 53L31 49L32 49L32 50L33 50L33 51L32 51L32 52L33 52L33 53L32 53L32 54L31 54L31 56L30 56L30 55L29 55L29 56L27 56L27 57L29 57L29 56L30 56L30 57L31 57L31 56L35 56L35 57L39 57L39 56L41 56L41 57L44 57L44 54L45 54L45 55L47 55L47 56L46 56L46 57L47 57L47 56L48 56L48 57L49 57L49 56L50 56L50 57L52 57L52 55L51 55L51 53L52 53L52 54L53 54L53 52L54 52L54 53L55 53L55 52L56 52L56 53L57 53L57 52L56 52L56 51L54 51L54 50L57 50L57 48L56 48L56 46L57 46L57 45L56 45L56 44L55 44L55 43L56 43L56 42L55 42L55 39L57 39L57 37L55 37L55 36L56 36L56 34L57 34L57 32L56 32L56 30L57 30L57 27L56 27L56 26L57 26L57 25L56 25L56 22L57 22L57 21L56 21L56 20L57 20L57 19L56 19L56 18L57 18L57 17L56 17L56 16L57 16L57 15L56 15L56 14L57 14L57 11L56 11L56 10L54 10L54 11L53 11L53 9L54 9L54 8L53 8L53 9L52 9L52 8L51 8L51 9L52 9L52 10L50 10L50 8L49 8L49 6L48 6L48 7L47 7L47 5L48 5L48 0L46 0L46 1L47 1L47 2L44 2L44 3L43 3L43 4L40 4L40 5L39 5L39 6L38 6L38 7L37 7L37 5L38 5L38 4L39 4L39 3L42 3L42 2L43 2L43 0L41 0L41 1L40 1L40 0L39 0L39 1L38 1L38 0L37 0L37 1L38 1L38 2L37 2L37 3L36 3L36 0L35 0L35 1L33 1L33 0L27 0L27 1L26 1L26 0L23 0L23 1L22 1L22 0L21 0L21 1L20 1L20 0ZM8 1L8 2L9 2L9 1ZM25 1L25 2L23 2L23 3L19 3L19 2L18 2L18 3L19 3L19 4L23 4L23 5L24 5L24 4L23 4L23 3L26 3L26 4L25 4L25 8L24 8L24 6L23 6L23 8L19 8L19 7L18 7L18 6L17 6L17 7L16 7L16 8L14 8L14 10L15 10L15 13L13 13L13 15L12 15L12 14L11 14L11 15L10 15L10 16L11 16L11 18L10 18L10 17L6 17L6 16L8 16L8 14L7 14L7 13L3 13L3 12L2 12L2 14L1 14L1 17L3 17L3 16L2 16L2 15L4 15L4 14L5 14L5 15L6 15L6 16L4 16L4 17L5 17L5 18L3 18L3 20L4 20L4 25L5 25L5 26L9 26L9 28L10 28L10 25L11 25L11 27L12 27L12 29L13 29L13 30L12 30L12 31L11 31L11 30L10 30L10 29L9 29L9 31L11 31L11 32L12 32L12 31L13 31L13 32L14 32L14 33L15 33L15 34L17 34L17 36L19 36L19 37L21 37L21 41L20 41L20 40L19 40L19 41L18 41L18 42L17 42L17 43L18 43L18 42L19 42L19 44L20 44L20 42L21 42L21 43L22 43L22 42L24 42L24 41L25 41L25 43L24 43L24 44L23 44L23 45L22 45L22 44L21 44L21 45L19 45L19 46L21 46L21 45L22 45L22 46L23 46L23 47L21 47L21 49L20 49L20 47L19 47L19 49L20 49L20 50L18 50L18 49L16 49L16 48L15 48L15 47L14 47L14 45L12 45L12 44L13 44L13 42L12 42L12 41L11 41L11 40L10 40L10 41L11 41L11 42L12 42L12 44L10 44L10 45L11 45L11 46L13 46L13 47L14 47L14 48L15 48L15 49L14 49L14 51L12 51L12 53L13 53L13 52L14 52L14 53L15 53L15 54L16 54L16 53L17 53L17 52L16 52L16 51L18 51L18 52L20 52L20 50L21 50L21 49L23 49L23 47L26 47L26 48L28 48L28 47L26 47L26 45L27 45L27 46L29 46L29 45L30 45L30 43L29 43L29 44L28 44L28 43L27 43L27 42L30 42L30 41L27 41L27 40L26 40L26 38L27 38L27 39L28 39L28 40L32 40L32 41L31 41L31 42L32 42L32 43L31 43L31 44L32 44L32 45L31 45L31 46L32 46L32 47L33 47L33 46L35 46L35 48L34 48L34 49L33 49L33 48L32 48L32 49L33 49L33 50L34 50L34 51L33 51L33 52L34 52L34 53L33 53L33 54L35 54L35 56L36 56L36 54L35 54L35 50L36 50L36 52L37 52L37 53L38 53L38 54L37 54L37 56L39 56L39 55L38 55L38 54L40 54L40 53L41 53L41 52L40 52L40 51L38 51L38 50L41 50L41 51L42 51L42 50L41 50L41 48L42 48L42 49L43 49L43 48L44 48L44 49L45 49L45 50L47 50L47 52L44 52L44 53L43 53L43 52L42 52L42 53L43 53L43 54L44 54L44 53L45 53L45 54L47 54L47 53L48 53L48 50L47 50L47 49L48 49L48 48L49 48L49 47L48 47L48 48L47 48L47 47L46 47L46 48L45 48L45 47L44 47L44 45L45 45L45 46L47 46L47 45L48 45L48 44L49 44L49 46L50 46L50 48L51 48L51 46L50 46L50 43L51 43L51 45L52 45L52 46L54 46L54 45L55 45L55 46L56 46L56 45L55 45L55 44L54 44L54 45L52 45L52 44L53 44L53 43L54 43L54 42L53 42L53 41L54 41L54 40L53 40L53 41L51 41L51 42L50 42L50 43L49 43L49 42L48 42L48 41L49 41L49 39L52 39L52 38L53 38L53 35L55 35L55 34L56 34L56 32L54 32L54 31L55 31L55 30L54 30L54 29L56 29L56 27L55 27L55 28L54 28L54 29L53 29L53 30L54 30L54 31L50 31L50 32L49 32L49 31L48 31L48 29L46 29L46 30L47 30L47 31L45 31L45 30L44 30L44 29L45 29L45 28L46 28L46 27L48 27L48 26L47 26L47 25L46 25L46 24L47 24L47 23L48 23L48 24L49 24L49 25L50 25L50 26L51 26L51 25L55 25L55 26L56 26L56 25L55 25L55 24L53 24L53 23L55 23L55 22L56 22L56 21L55 21L55 20L53 20L53 19L52 19L52 20L51 20L51 21L49 21L49 22L47 22L47 19L48 19L48 18L47 18L47 17L46 17L46 18L45 18L45 16L46 16L46 15L44 15L44 14L47 14L47 13L49 13L49 12L50 12L50 14L49 14L49 15L48 15L48 16L49 16L49 15L50 15L50 14L51 14L51 12L50 12L50 11L49 11L49 10L47 10L47 9L48 9L48 8L47 8L47 7L46 7L46 5L47 5L47 3L44 3L44 6L43 6L43 7L42 7L42 6L41 6L41 5L40 5L40 6L39 6L39 7L40 7L40 8L39 8L39 9L38 9L38 10L37 10L37 9L35 9L35 8L37 8L37 7L36 7L36 5L37 5L37 4L36 4L36 5L35 5L35 4L33 4L33 3L32 3L32 1L31 1L31 3L32 3L32 4L31 4L31 8L32 8L32 10L29 10L29 9L28 9L28 10L29 10L29 12L28 12L28 13L26 13L26 12L27 12L27 11L26 11L26 12L25 12L25 10L23 10L23 9L25 9L25 8L26 8L26 4L30 4L30 3L28 3L28 2L26 2L26 1ZM29 1L29 2L30 2L30 1ZM38 2L38 3L39 3L39 2ZM8 3L8 4L9 4L9 3ZM32 4L32 5L33 5L33 6L32 6L32 7L33 7L33 9L34 9L34 8L35 8L35 5L33 5L33 4ZM45 4L45 5L46 5L46 4ZM10 5L10 6L9 6L9 7L10 7L10 6L11 6L11 5ZM27 5L27 8L30 8L30 5ZM21 6L21 7L22 7L22 6ZM28 6L28 7L29 7L29 6ZM33 6L33 7L34 7L34 6ZM40 6L40 7L41 7L41 9L40 9L40 10L39 10L39 11L37 11L37 10L36 10L36 11L35 11L35 13L37 13L37 14L38 14L38 15L39 15L39 16L38 16L38 17L37 17L37 16L35 16L35 14L33 14L33 13L34 13L34 12L33 12L33 13L32 13L32 12L31 12L31 13L30 13L30 14L29 14L29 13L28 13L28 14L29 14L29 16L28 16L28 15L27 15L27 14L26 14L26 13L23 13L23 10L22 10L22 11L20 11L20 9L19 9L19 8L18 8L18 9L17 9L17 8L16 8L16 9L17 9L17 10L16 10L16 11L17 11L17 12L16 12L16 13L15 13L15 14L14 14L14 16L12 16L12 18L11 18L11 19L12 19L12 18L13 18L13 17L14 17L14 16L16 16L16 17L15 17L15 19L16 19L16 20L15 20L15 21L16 21L16 22L14 22L14 21L13 21L13 20L14 20L14 19L13 19L13 20L12 20L12 21L13 21L13 22L10 22L10 23L9 23L9 19L8 19L8 18L5 18L5 20L6 20L6 21L7 21L7 22L6 22L6 23L7 23L7 22L8 22L8 24L11 24L11 25L12 25L12 27L13 27L13 28L15 28L15 27L16 27L16 26L15 26L15 25L18 25L18 26L17 26L17 27L18 27L18 26L20 26L20 25L22 25L22 26L21 26L21 27L22 27L22 26L26 26L26 27L24 27L24 28L26 28L26 29L23 29L23 30L24 30L24 31L26 31L26 32L25 32L25 33L23 33L23 34L24 34L24 36L23 36L23 37L24 37L24 38L23 38L23 39L24 39L24 40L23 40L23 41L24 41L24 40L25 40L25 37L27 37L27 38L28 38L28 37L27 37L27 36L26 36L26 35L27 35L27 32L28 32L28 33L29 33L29 34L30 34L30 36L29 36L29 37L31 37L31 38L29 38L29 39L33 39L33 40L35 40L35 42L37 42L37 43L36 43L36 44L35 44L35 43L34 43L34 42L33 42L33 41L32 41L32 42L33 42L33 43L32 43L32 44L33 44L33 43L34 43L34 45L35 45L35 46L37 46L37 47L36 47L36 48L35 48L35 49L36 49L36 50L38 50L38 49L39 49L39 48L41 48L41 46L43 46L43 45L44 45L44 43L43 43L43 42L44 42L44 40L45 40L45 41L47 41L47 39L49 39L49 38L50 38L50 37L51 37L51 36L52 36L52 35L53 35L53 34L52 34L52 33L54 33L54 34L55 34L55 33L54 33L54 32L52 32L52 33L51 33L51 32L50 32L50 34L49 34L49 35L50 35L50 36L49 36L49 37L48 37L48 38L47 38L47 39L46 39L46 40L45 40L45 39L43 39L43 40L42 40L42 38L43 38L43 37L44 37L44 38L45 38L45 37L44 37L44 36L46 36L46 35L47 35L47 34L45 34L45 35L44 35L44 33L43 33L43 32L45 32L45 31L44 31L44 30L43 30L43 29L44 29L44 28L45 28L45 27L46 27L46 26L45 26L45 25L44 25L44 20L46 20L46 19L47 19L47 18L46 18L46 19L45 19L45 18L44 18L44 15L42 15L42 16L41 16L41 14L43 14L43 13L44 13L44 12L43 12L43 13L41 13L41 14L38 14L38 13L39 13L39 11L40 11L40 12L41 12L41 10L42 10L42 11L43 11L43 10L44 10L44 11L45 11L45 12L49 12L49 11L47 11L47 10L46 10L46 11L45 11L45 10L44 10L44 8L46 8L46 7L45 7L45 6L44 6L44 8L42 8L42 7L41 7L41 6ZM55 8L55 9L56 9L56 8ZM4 9L4 10L2 10L2 11L6 11L6 10L5 10L5 9ZM18 9L18 10L17 10L17 11L18 11L18 10L19 10L19 9ZM32 10L32 11L33 11L33 10ZM12 11L12 12L14 12L14 11ZM19 11L19 12L20 12L20 16L19 16L19 15L18 15L18 16L19 16L19 17L20 17L20 18L18 18L18 19L17 19L17 17L16 17L16 19L17 19L17 20L16 20L16 21L17 21L17 24L19 24L19 25L20 25L20 24L22 24L22 25L23 25L23 23L24 23L24 24L25 24L25 25L26 25L26 26L28 26L28 25L29 25L29 26L30 26L30 25L31 25L31 24L32 24L32 26L31 26L31 28L32 28L32 29L33 29L33 30L36 30L36 31L33 31L33 32L32 32L32 30L31 30L31 31L30 31L30 32L29 32L29 31L28 31L28 32L29 32L29 33L31 33L31 34L32 34L32 35L35 35L35 36L37 36L37 34L35 34L35 32L37 32L37 33L38 33L38 36L39 36L39 35L40 35L40 34L39 34L39 33L41 33L41 32L43 32L43 30L41 30L41 29L43 29L43 28L44 28L44 25L43 25L43 23L42 23L42 22L41 22L41 24L39 24L39 23L40 23L40 22L39 22L39 21L42 21L42 20L39 20L39 21L38 21L38 22L37 22L37 24L39 24L39 25L38 25L38 26L37 26L37 25L33 25L33 24L32 24L32 23L35 23L35 20L34 20L34 19L33 19L33 18L35 18L35 19L36 19L36 20L37 20L37 19L39 19L39 17L41 17L41 16L39 16L39 17L38 17L38 18L37 18L37 17L35 17L35 16L32 16L32 15L31 15L31 14L32 14L32 13L31 13L31 14L30 14L30 15L31 15L31 16L32 16L32 19L33 19L33 20L32 20L32 21L31 21L31 18L30 18L30 19L28 19L28 18L25 18L25 19L26 19L26 20L25 20L25 21L24 21L24 20L23 20L23 19L24 19L24 18L23 18L23 19L22 19L22 17L25 17L25 16L24 16L24 15L21 15L21 13L22 13L22 14L23 14L23 13L22 13L22 12L20 12L20 11ZM17 12L17 13L16 13L16 16L17 16L17 13L18 13L18 12ZM52 12L52 13L53 13L53 15L54 15L54 14L56 14L56 12L54 12L54 13L53 13L53 12ZM6 14L6 15L7 15L7 14ZM26 15L26 17L28 17L28 16L27 16L27 15ZM21 16L21 17L22 17L22 16ZM42 16L42 17L43 17L43 16ZM50 16L50 18L49 18L49 19L51 19L51 17L53 17L53 18L55 18L55 16ZM20 18L20 19L18 19L18 20L17 20L17 21L18 21L18 23L20 23L20 22L19 22L19 21L20 21L20 19L21 19L21 20L22 20L22 19L21 19L21 18ZM41 18L41 19L42 19L42 18ZM43 18L43 20L44 20L44 18ZM6 19L6 20L7 20L7 21L8 21L8 19ZM10 20L10 21L11 21L11 20ZM33 20L33 21L34 21L34 20ZM23 21L23 22L24 22L24 21ZM25 21L25 22L26 22L26 23L25 23L25 24L27 24L27 25L28 25L28 24L29 24L29 25L30 25L30 24L31 24L31 21L29 21L29 22L28 22L28 24L27 24L27 21ZM45 21L45 22L46 22L46 23L47 23L47 22L46 22L46 21ZM51 21L51 22L50 22L50 25L51 25L51 24L52 24L52 23L53 23L53 22L54 22L54 21ZM13 22L13 23L12 23L12 25L13 25L13 26L14 26L14 27L15 27L15 26L14 26L14 25L13 25L13 23L14 23L14 22ZM21 22L21 23L22 23L22 22ZM29 22L29 23L30 23L30 22ZM15 23L15 24L16 24L16 23ZM2 24L2 26L3 26L3 24ZM5 24L5 25L7 25L7 24ZM39 25L39 26L43 26L43 25ZM32 26L32 27L33 27L33 28L35 28L35 29L38 29L38 28L39 28L39 27L37 27L37 28L36 28L36 26L34 26L34 27L33 27L33 26ZM53 26L53 27L54 27L54 26ZM5 27L5 30L8 30L8 27ZM19 27L19 29L18 29L18 28L16 28L16 29L15 29L15 31L16 31L16 29L18 29L18 31L20 31L20 32L15 32L15 33L18 33L18 34L19 34L19 35L20 35L20 36L21 36L21 34L22 34L22 33L21 33L21 32L23 32L23 31L20 31L20 27ZM27 27L27 30L30 30L30 27ZM41 27L41 28L42 28L42 27ZM49 27L49 30L52 30L52 27ZM2 28L2 29L3 29L3 30L4 30L4 28ZM6 28L6 29L7 29L7 28ZM21 28L21 29L22 29L22 28ZM28 28L28 29L29 29L29 28ZM50 28L50 29L51 29L51 28ZM39 29L39 30L38 30L38 32L39 32L39 30L40 30L40 29ZM4 31L4 32L7 32L7 31ZM47 31L47 32L48 32L48 33L49 33L49 32L48 32L48 31ZM31 32L31 33L32 33L32 34L33 34L33 33L34 33L34 32L33 32L33 33L32 33L32 32ZM5 33L5 34L7 34L7 33ZM20 33L20 34L21 34L21 33ZM25 33L25 34L26 34L26 33ZM42 34L42 35L41 35L41 36L40 36L40 37L38 37L38 39L35 39L35 37L33 37L33 36L32 36L32 37L33 37L33 38L34 38L34 39L35 39L35 40L38 40L38 42L39 42L39 41L41 41L41 38L40 38L40 37L41 37L41 36L44 36L44 35L43 35L43 34ZM50 34L50 35L52 35L52 34ZM11 35L11 36L12 36L12 35ZM6 36L6 37L7 37L7 36ZM8 36L8 37L10 37L10 36ZM11 37L11 38L12 38L12 37ZM54 37L54 38L55 38L55 37ZM18 38L18 39L20 39L20 38ZM38 39L38 40L40 40L40 39ZM1 40L1 42L2 42L2 43L3 43L3 41L2 41L2 40ZM13 40L13 41L14 41L14 40ZM4 41L4 42L5 42L5 43L4 43L4 44L3 44L3 45L4 45L4 46L3 46L3 47L5 47L5 45L6 45L6 44L7 44L7 43L6 43L6 42L7 42L7 41ZM19 41L19 42L20 42L20 41ZM21 41L21 42L22 42L22 41ZM26 41L26 42L27 42L27 41ZM41 42L41 43L40 43L40 44L39 44L39 45L38 45L38 46L39 46L39 47L38 47L38 48L37 48L37 49L38 49L38 48L39 48L39 47L40 47L40 46L39 46L39 45L41 45L41 44L42 44L42 42ZM47 42L47 43L46 43L46 44L45 44L45 45L47 45L47 43L48 43L48 42ZM51 42L51 43L53 43L53 42ZM5 43L5 44L6 44L6 43ZM25 43L25 44L24 44L24 45L23 45L23 46L25 46L25 44L27 44L27 45L28 45L28 44L27 44L27 43ZM29 47L29 48L30 48L30 47ZM42 47L42 48L43 48L43 47ZM52 47L52 48L53 48L53 49L54 49L54 48L53 48L53 47ZM12 48L12 49L11 49L11 50L13 50L13 48ZM24 48L24 49L25 49L25 48ZM46 48L46 49L47 49L47 48ZM55 48L55 49L56 49L56 48ZM27 49L27 52L30 52L30 49ZM49 49L49 52L52 52L52 49ZM15 50L15 51L16 51L16 50ZM28 50L28 51L29 51L29 50ZM43 50L43 51L44 51L44 50ZM50 50L50 51L51 51L51 50ZM15 52L15 53L16 53L16 52ZM38 52L38 53L39 53L39 52ZM9 54L9 55L11 55L11 54ZM17 54L17 56L18 56L18 55L19 55L19 54ZM25 54L25 55L26 55L26 54ZM41 54L41 55L42 55L42 56L43 56L43 55L42 55L42 54ZM48 55L48 56L49 56L49 55ZM50 55L50 56L51 56L51 55ZM53 55L53 56L55 56L55 57L56 57L56 56L55 56L55 55ZM20 56L20 57L21 57L21 56ZM0 0L0 7L7 7L7 0ZM1 1L1 6L6 6L6 1ZM2 2L2 5L5 5L5 2ZM50 0L50 7L57 7L57 0ZM51 1L51 6L56 6L56 1ZM52 2L52 5L55 5L55 2ZM0 50L0 57L7 57L7 50ZM1 51L1 56L6 56L6 51ZM2 52L2 55L5 55L5 52Z" fill="#000000"/></g></g></svg>
