<?xml version="1.0" encoding="UTF-8"?>
<svg xmlns="http://www.w3.org/2000/svg" version="1.1" width="300" height="300" viewBox="0 0 300 300"><rect x="0" y="0" width="300" height="300" fill="#fefefe"/><g transform="scale(4.615)"><g transform="translate(4,4)"><path fill-rule="evenodd" d="M8 0L8 4L10 4L10 3L9 3L9 2L10 2L10 0ZM12 0L12 1L11 1L11 2L12 2L12 3L13 3L13 4L12 4L12 5L13 5L13 6L12 6L12 9L10 9L10 7L11 7L11 6L10 6L10 5L8 5L8 7L9 7L9 9L7 9L7 8L4 8L4 9L5 9L5 10L6 10L6 11L7 11L7 10L8 10L8 11L9 11L9 10L11 10L11 11L10 11L10 13L9 13L9 12L8 12L8 13L9 13L9 15L8 15L8 16L11 16L11 15L10 15L10 14L11 14L11 13L12 13L12 17L11 17L11 18L9 18L9 19L8 19L8 20L9 20L9 19L12 19L12 21L14 21L14 22L15 22L15 23L16 23L16 22L17 22L17 21L19 21L19 22L18 22L18 23L20 23L20 22L21 22L21 23L22 23L22 24L21 24L21 25L20 25L20 24L17 24L17 26L18 26L18 27L16 27L16 28L15 28L15 29L18 29L18 30L14 30L14 31L13 31L13 32L12 32L12 31L11 31L11 30L13 30L13 28L14 28L14 27L15 27L15 26L16 26L16 25L15 25L15 24L14 24L14 23L12 23L12 24L9 24L9 23L10 23L10 22L11 22L11 21L9 21L9 23L8 23L8 21L7 21L7 20L6 20L6 19L7 19L7 18L6 18L6 17L7 17L7 16L3 16L3 20L2 20L2 21L4 21L4 22L6 22L6 23L8 23L8 24L9 24L9 25L7 25L7 24L6 24L6 25L5 25L5 24L4 24L4 23L3 23L3 24L4 24L4 25L1 25L1 24L2 24L2 22L1 22L1 18L0 18L0 22L1 22L1 24L0 24L0 25L1 25L1 26L2 26L2 27L0 27L0 28L2 28L2 29L1 29L1 30L0 30L0 31L1 31L1 32L3 32L3 31L5 31L5 32L4 32L4 33L5 33L5 35L8 35L8 33L9 33L9 38L10 38L10 37L12 37L12 36L11 36L11 35L10 35L10 33L11 33L11 34L12 34L12 35L13 35L13 37L14 37L14 39L15 39L15 40L17 40L17 42L16 42L16 41L15 41L15 42L16 42L16 43L18 43L18 41L20 41L20 42L19 42L19 44L18 44L18 45L17 45L17 46L16 46L16 44L14 44L14 43L13 43L13 42L12 42L12 39L13 39L13 38L12 38L12 39L11 39L11 40L8 40L8 39L7 39L7 38L6 38L6 37L8 37L8 36L6 36L6 37L5 37L5 36L4 36L4 35L3 35L3 34L2 34L2 35L1 35L1 34L0 34L0 36L1 36L1 37L0 37L0 38L1 38L1 37L2 37L2 39L0 39L0 40L1 40L1 42L0 42L0 45L1 45L1 43L3 43L3 44L2 44L2 45L3 45L3 46L2 46L2 47L1 47L1 46L0 46L0 48L5 48L5 47L7 47L7 48L6 48L6 49L8 49L8 50L9 50L9 47L10 47L10 48L11 48L11 47L10 47L10 46L11 46L11 45L12 45L12 47L15 47L15 46L16 46L16 48L14 48L14 49L13 49L13 51L12 51L12 50L10 50L10 51L8 51L8 53L10 53L10 52L11 52L11 53L12 53L12 54L10 54L10 55L8 55L8 57L9 57L9 56L10 56L10 57L14 57L14 55L13 55L13 56L11 56L11 55L12 55L12 54L15 54L15 55L16 55L16 54L19 54L19 55L18 55L18 56L17 56L17 57L19 57L19 55L20 55L20 54L21 54L21 53L22 53L22 54L23 54L23 55L24 55L24 56L25 56L25 54L26 54L26 57L27 57L27 54L26 54L26 53L28 53L28 57L29 57L29 55L30 55L30 57L34 57L34 55L35 55L35 57L37 57L37 56L36 56L36 54L37 54L37 55L39 55L39 57L40 57L40 56L41 56L41 57L42 57L42 56L43 56L43 55L44 55L44 57L45 57L45 56L46 56L46 57L47 57L47 56L48 56L48 57L50 57L50 55L51 55L51 56L53 56L53 57L54 57L54 56L53 56L53 54L54 54L54 53L55 53L55 54L57 54L57 53L56 53L56 52L57 52L57 51L55 51L55 49L56 49L56 45L57 45L57 43L56 43L56 42L57 42L57 40L54 40L54 41L53 41L53 40L52 40L52 39L57 39L57 38L52 38L52 36L53 36L53 37L57 37L57 35L56 35L56 34L57 34L57 33L56 33L56 30L55 30L55 29L56 29L56 28L57 28L57 27L56 27L56 25L57 25L57 24L56 24L56 18L55 18L55 24L56 24L56 25L53 25L53 26L52 26L52 24L53 24L53 23L52 23L52 22L54 22L54 21L52 21L52 20L53 20L53 19L52 19L52 16L53 16L53 17L55 17L55 16L56 16L56 17L57 17L57 15L56 15L56 13L55 13L55 16L53 16L53 15L54 15L54 14L53 14L53 13L54 13L54 12L53 12L53 13L52 13L52 14L51 14L51 12L52 12L52 11L54 11L54 10L53 10L53 9L55 9L55 12L56 12L56 10L57 10L57 8L53 8L53 9L52 9L52 8L51 8L51 9L47 9L47 10L49 10L49 11L50 11L50 15L48 15L48 17L47 17L47 18L46 18L46 17L45 17L45 16L44 16L44 14L43 14L43 13L41 13L41 14L40 14L40 13L38 13L38 15L39 15L39 17L38 17L38 16L37 16L37 14L35 14L35 17L38 17L38 18L39 18L39 19L38 19L38 22L37 22L37 18L34 18L34 13L33 13L33 12L32 12L32 11L33 11L33 10L34 10L34 12L35 12L35 13L37 13L37 12L39 12L39 9L40 9L40 8L41 8L41 10L43 10L43 11L41 11L41 12L43 12L43 11L45 11L45 12L44 12L44 13L45 13L45 15L46 15L46 11L45 11L45 9L46 9L46 8L45 8L45 6L46 6L46 7L47 7L47 8L49 8L49 6L48 6L48 7L47 7L47 5L48 5L48 0L41 0L41 1L40 1L40 2L39 2L39 3L40 3L40 4L38 4L38 7L37 7L37 5L36 5L36 4L35 4L35 5L34 5L34 3L35 3L35 2L36 2L36 3L37 3L37 2L38 2L38 1L39 1L39 0L38 0L38 1L37 1L37 2L36 2L36 0L35 0L35 1L34 1L34 0L28 0L28 2L29 2L29 1L34 1L34 2L32 2L32 3L30 3L30 4L29 4L29 3L27 3L27 4L26 4L26 3L25 3L25 2L26 2L26 1L27 1L27 0L26 0L26 1L25 1L25 0L23 0L23 3L22 3L22 2L21 2L21 6L20 6L20 5L19 5L19 4L17 4L17 3L19 3L19 2L20 2L20 1L21 1L21 0L20 0L20 1L19 1L19 0L17 0L17 3L16 3L16 0ZM14 1L14 4L15 4L15 5L14 5L14 6L13 6L13 7L14 7L14 6L15 6L15 7L16 7L16 6L17 6L17 8L19 8L19 9L16 9L16 8L15 8L15 9L16 9L16 11L15 11L15 12L14 12L14 11L13 11L13 12L12 12L12 13L15 13L15 14L17 14L17 15L19 15L19 14L20 14L20 15L21 15L21 17L25 17L25 18L24 18L24 19L23 19L23 20L22 20L22 19L21 19L21 18L20 18L20 16L19 16L19 18L17 18L17 16L16 16L16 20L15 20L15 18L14 18L14 15L13 15L13 17L12 17L12 19L14 19L14 20L15 20L15 21L17 21L17 20L19 20L19 21L20 21L20 20L19 20L19 18L20 18L20 19L21 19L21 20L22 20L22 21L21 21L21 22L23 22L23 21L24 21L24 22L25 22L25 23L26 23L26 22L27 22L27 23L28 23L28 25L27 25L27 26L30 26L30 25L29 25L29 23L30 23L30 20L28 20L28 19L30 19L30 18L28 18L28 17L27 17L27 15L28 15L28 14L27 14L27 15L26 15L26 14L25 14L25 15L26 15L26 17L25 17L25 16L24 16L24 15L23 15L23 14L24 14L24 13L25 13L25 12L24 12L24 11L25 11L25 10L27 10L27 9L26 9L26 6L25 6L25 7L24 7L24 6L23 6L23 7L24 7L24 8L22 8L22 6L21 6L21 8L22 8L22 10L20 10L20 8L19 8L19 7L20 7L20 6L19 6L19 5L17 5L17 4L16 4L16 3L15 3L15 1ZM45 1L45 2L47 2L47 1ZM40 2L40 3L41 3L41 4L43 4L43 10L44 10L44 4L45 4L45 5L47 5L47 3L44 3L44 2L43 2L43 3L42 3L42 2ZM23 3L23 5L24 5L24 4L25 4L25 3ZM32 3L32 5L33 5L33 7L32 7L32 6L31 6L31 10L29 10L29 11L28 11L28 12L27 12L27 11L26 11L26 13L29 13L29 16L31 16L31 18L32 18L32 19L33 19L33 18L32 18L32 14L33 14L33 13L32 13L32 12L29 12L29 11L32 11L32 8L33 8L33 9L34 9L34 10L36 10L36 12L37 12L37 11L38 11L38 8L37 8L37 9L35 9L35 7L36 7L36 5L35 5L35 7L34 7L34 5L33 5L33 3ZM43 3L43 4L44 4L44 3ZM15 5L15 6L16 6L16 5ZM27 5L27 8L30 8L30 5ZM39 5L39 7L40 7L40 6L41 6L41 8L42 8L42 6L41 6L41 5ZM9 6L9 7L10 7L10 6ZM18 6L18 7L19 7L19 6ZM28 6L28 7L29 7L29 6ZM33 7L33 8L34 8L34 7ZM0 8L0 9L2 9L2 10L3 10L3 12L2 12L2 13L3 13L3 14L2 14L2 15L1 15L1 14L0 14L0 16L2 16L2 15L4 15L4 10L3 10L3 9L2 9L2 8ZM13 8L13 9L12 9L12 10L13 10L13 9L14 9L14 8ZM6 9L6 10L7 10L7 9ZM23 9L23 10L25 10L25 9ZM51 9L51 10L52 10L52 9ZM17 10L17 11L16 11L16 12L15 12L15 13L17 13L17 14L19 14L19 12L20 12L20 14L21 14L21 15L22 15L22 16L23 16L23 15L22 15L22 14L21 14L21 13L24 13L24 12L22 12L22 11L20 11L20 10L19 10L19 12L18 12L18 13L17 13L17 11L18 11L18 10ZM0 12L0 13L1 13L1 12ZM5 12L5 14L6 14L6 15L7 15L7 14L6 14L6 13L7 13L7 12ZM30 13L30 15L31 15L31 14L32 14L32 13ZM47 13L47 14L49 14L49 13ZM52 14L52 15L50 15L50 16L52 16L52 15L53 15L53 14ZM40 15L40 17L39 17L39 18L40 18L40 21L39 21L39 22L38 22L38 23L37 23L37 22L35 22L35 21L34 21L34 20L36 20L36 19L34 19L34 20L33 20L33 21L34 21L34 22L35 22L35 23L34 23L34 24L33 24L33 25L34 25L34 26L33 26L33 27L32 27L32 23L33 23L33 22L31 22L31 27L32 27L32 28L31 28L31 29L32 29L32 30L31 30L31 32L30 32L30 31L27 31L27 32L26 32L26 31L24 31L24 30L23 30L23 29L24 29L24 28L22 28L22 27L20 27L20 25L19 25L19 27L20 27L20 28L21 28L21 29L22 29L22 30L20 30L20 29L19 29L19 28L18 28L18 29L19 29L19 30L18 30L18 31L20 31L20 33L19 33L19 35L18 35L18 36L16 36L16 37L15 37L15 39L16 39L16 38L17 38L17 40L19 40L19 39L20 39L20 38L22 38L22 41L21 41L21 43L20 43L20 44L19 44L19 46L18 46L18 47L19 47L19 48L20 48L20 49L19 49L19 50L18 50L18 51L16 51L16 50L17 50L17 49L15 49L15 50L14 50L14 52L13 52L13 53L17 53L17 52L19 52L19 53L20 53L20 52L19 52L19 51L22 51L22 53L24 53L24 54L25 54L25 53L26 53L26 51L25 51L25 53L24 53L24 52L23 52L23 50L22 50L22 49L23 49L23 48L24 48L24 49L25 49L25 50L26 50L26 48L27 48L27 47L26 47L26 46L27 46L27 45L28 45L28 47L30 47L30 48L31 48L31 46L30 46L30 45L28 45L28 44L31 44L31 45L32 45L32 46L33 46L33 45L32 45L32 43L33 43L33 44L35 44L35 43L33 43L33 41L32 41L32 40L33 40L33 39L31 39L31 38L33 38L33 37L32 37L32 36L31 36L31 35L33 35L33 36L34 36L34 42L35 42L35 39L37 39L37 42L38 42L38 39L40 39L40 41L39 41L39 43L40 43L40 46L39 46L39 47L38 47L38 49L37 49L37 54L38 54L38 49L39 49L39 47L40 47L40 51L39 51L39 52L40 52L40 53L44 53L44 55L45 55L45 53L44 53L44 52L41 52L41 43L40 43L40 42L41 42L41 39L40 39L40 38L38 38L38 37L44 37L44 38L43 38L43 39L45 39L45 37L46 37L46 38L47 38L47 39L46 39L46 43L45 43L45 41L44 41L44 40L43 40L43 42L42 42L42 44L43 44L43 45L44 45L44 46L43 46L43 47L42 47L42 49L44 49L44 51L45 51L45 52L46 52L46 56L47 56L47 55L48 55L48 56L49 56L49 54L51 54L51 55L52 55L52 54L51 54L51 53L49 53L49 54L48 54L48 52L47 52L47 51L45 51L45 49L44 49L44 48L46 48L46 50L47 50L47 49L48 49L48 47L51 47L51 44L52 44L52 43L53 43L53 44L54 44L54 45L52 45L52 46L55 46L55 45L56 45L56 44L55 44L55 42L56 42L56 41L55 41L55 42L54 42L54 43L53 43L53 41L52 41L52 40L47 40L47 39L48 39L48 38L49 38L49 39L51 39L51 37L50 37L50 35L53 35L53 36L56 36L56 35L53 35L53 34L54 34L54 33L55 33L55 30L53 30L53 33L51 33L51 32L52 32L52 31L51 31L51 32L50 32L50 31L49 31L49 32L50 32L50 35L49 35L49 33L48 33L48 31L47 31L47 30L48 30L48 26L47 26L47 25L48 25L48 24L47 24L47 25L46 25L46 26L45 26L45 25L44 25L44 24L45 24L45 23L49 23L49 26L50 26L50 25L51 25L51 24L52 24L52 23L50 23L50 22L47 22L47 21L51 21L51 22L52 22L52 21L51 21L51 20L49 20L49 19L50 19L50 17L49 17L49 18L48 18L48 19L47 19L47 20L46 20L46 21L45 21L45 22L44 22L44 16L43 16L43 15L42 15L42 17L43 17L43 18L42 18L42 19L41 19L41 18L40 18L40 17L41 17L41 15ZM4 17L4 19L6 19L6 18L5 18L5 17ZM25 19L25 20L24 20L24 21L27 21L27 22L28 22L28 23L29 23L29 21L28 21L28 20L26 20L26 19ZM4 20L4 21L5 21L5 20ZM31 20L31 21L32 21L32 20ZM42 20L42 21L40 21L40 22L41 22L41 23L42 23L42 22L43 22L43 23L44 23L44 22L43 22L43 20ZM6 21L6 22L7 22L7 21ZM23 23L23 24L22 24L22 25L24 25L24 23ZM38 23L38 26L39 26L39 25L40 25L40 23ZM34 24L34 25L37 25L37 24ZM6 25L6 26L7 26L7 25ZM13 25L13 26L10 26L10 27L13 27L13 26L14 26L14 25ZM25 25L25 27L26 27L26 25ZM41 25L41 27L40 27L40 28L39 28L39 27L37 27L37 26L36 26L36 28L35 28L35 30L36 30L36 31L35 31L35 32L33 32L33 31L34 31L34 27L33 27L33 28L32 28L32 29L33 29L33 30L32 30L32 33L29 33L29 32L27 32L27 34L26 34L26 32L25 32L25 33L23 33L23 37L24 37L24 38L25 38L25 39L27 39L27 40L25 40L25 41L24 41L24 39L23 39L23 42L24 42L24 43L25 43L25 45L24 45L24 44L22 44L22 43L21 43L21 45L20 45L20 46L19 46L19 47L20 47L20 48L21 48L21 49L20 49L20 50L21 50L21 49L22 49L22 48L23 48L23 47L24 47L24 46L26 46L26 45L27 45L27 43L25 43L25 42L26 42L26 41L27 41L27 42L28 42L28 40L29 40L29 42L31 42L31 43L32 43L32 41L31 41L31 39L29 39L29 38L28 38L28 39L27 39L27 38L26 38L26 36L27 36L27 37L28 37L28 36L29 36L29 37L31 37L31 36L30 36L30 34L33 34L33 35L35 35L35 38L37 38L37 39L38 39L38 38L37 38L37 36L38 36L38 34L39 34L39 33L40 33L40 34L42 34L42 35L41 35L41 36L43 36L43 35L44 35L44 37L45 37L45 35L44 35L44 34L46 34L46 36L49 36L49 35L48 35L48 34L46 34L46 33L47 33L47 31L46 31L46 30L45 30L45 27L44 27L44 26L43 26L43 25ZM3 26L3 29L2 29L2 31L3 31L3 30L4 30L4 26ZM46 26L46 27L47 27L47 26ZM54 26L54 27L53 27L53 28L54 28L54 29L55 29L55 28L56 28L56 27L55 27L55 26ZM5 27L5 30L8 30L8 27ZM27 27L27 30L30 30L30 27ZM41 27L41 28L40 28L40 29L39 29L39 30L40 30L40 31L39 31L39 32L40 32L40 33L41 33L41 32L40 32L40 31L41 31L41 30L40 30L40 29L43 29L43 31L45 31L45 30L44 30L44 28L42 28L42 27ZM49 27L49 30L52 30L52 27ZM6 28L6 29L7 29L7 28ZM10 28L10 29L9 29L9 30L11 30L11 29L12 29L12 28ZM28 28L28 29L29 29L29 28ZM37 28L37 29L38 29L38 28ZM46 28L46 29L47 29L47 28ZM50 28L50 29L51 29L51 28ZM25 29L25 30L26 30L26 29ZM22 30L22 31L21 31L21 33L20 33L20 34L21 34L21 33L22 33L22 31L23 31L23 32L24 32L24 31L23 31L23 30ZM37 30L37 32L38 32L38 30ZM6 31L6 32L5 32L5 33L6 33L6 34L7 34L7 33L8 33L8 32L9 32L9 33L10 33L10 32L11 32L11 31L10 31L10 32L9 32L9 31L8 31L8 32L7 32L7 31ZM15 31L15 33L16 33L16 34L15 34L15 35L14 35L14 33L12 33L12 34L13 34L13 35L14 35L14 36L15 36L15 35L16 35L16 34L17 34L17 32L16 32L16 31ZM6 32L6 33L7 33L7 32ZM45 32L45 33L46 33L46 32ZM28 33L28 34L27 34L27 36L28 36L28 34L29 34L29 33ZM34 33L34 34L35 34L35 33ZM37 33L37 34L38 34L38 33ZM43 33L43 34L44 34L44 33ZM24 34L24 36L25 36L25 35L26 35L26 34ZM20 35L20 36L18 36L18 37L17 37L17 38L18 38L18 37L22 37L22 36L21 36L21 35ZM39 35L39 36L40 36L40 35ZM2 36L2 37L3 37L3 38L4 38L4 39L5 39L5 38L4 38L4 37L3 37L3 36ZM2 39L2 42L3 42L3 43L4 43L4 42L3 42L3 41L5 41L5 40L3 40L3 39ZM6 39L6 40L7 40L7 41L6 41L6 42L5 42L5 43L6 43L6 44L4 44L4 46L3 46L3 47L5 47L5 46L7 46L7 47L9 47L9 46L10 46L10 45L6 45L6 44L8 44L8 43L9 43L9 41L8 41L8 40L7 40L7 39ZM10 41L10 42L11 42L11 43L12 43L12 42L11 42L11 41ZM48 41L48 42L49 42L49 43L48 43L48 44L49 44L49 45L48 45L48 46L47 46L47 47L46 47L46 45L47 45L47 44L46 44L46 45L45 45L45 44L44 44L44 45L45 45L45 46L44 46L44 47L46 47L46 48L47 48L47 47L48 47L48 46L49 46L49 45L50 45L50 44L51 44L51 43L52 43L52 41L51 41L51 43L50 43L50 42L49 42L49 41ZM6 42L6 43L7 43L7 42ZM36 43L36 44L37 44L37 45L34 45L34 48L33 48L33 49L31 49L31 50L33 50L33 49L34 49L34 52L33 52L33 53L32 53L32 54L33 54L33 53L34 53L34 54L35 54L35 53L34 53L34 52L36 52L36 49L35 49L35 46L38 46L38 45L39 45L39 44L37 44L37 43ZM49 43L49 44L50 44L50 43ZM13 45L13 46L15 46L15 45ZM21 45L21 46L20 46L20 47L21 47L21 48L22 48L22 47L23 47L23 45ZM21 46L21 47L22 47L22 46ZM36 47L36 48L37 48L37 47ZM52 47L52 48L53 48L53 49L55 49L55 47ZM27 49L27 52L30 52L30 49ZM49 49L49 52L52 52L52 49ZM28 50L28 51L29 51L29 50ZM42 50L42 51L43 51L43 50ZM50 50L50 51L51 51L51 50ZM53 50L53 53L54 53L54 52L55 52L55 51L54 51L54 50ZM15 51L15 52L16 52L16 51ZM31 51L31 52L32 52L32 51ZM30 53L30 54L31 54L31 53ZM40 54L40 55L41 55L41 56L42 56L42 55L43 55L43 54L42 54L42 55L41 55L41 54ZM21 55L21 56L20 56L20 57L22 57L22 55ZM56 56L56 57L57 57L57 56ZM0 0L0 7L7 7L7 0ZM1 1L1 6L6 6L6 1ZM2 2L2 5L5 5L5 2ZM50 0L50 7L57 7L57 0ZM51 1L51 6L56 6L56 1ZM52 2L52 5L55 5L55 2ZM0 50L0 57L7 57L7 50ZM1 51L1 56L6 56L6 51ZM2 52L2 55L5 55L5 52Z" fill="#000000"/></g></g></svg>
