<?xml version="1.0" encoding="UTF-8"?>
<svg xmlns="http://www.w3.org/2000/svg" version="1.1" width="300" height="300" viewBox="0 0 300 300"><rect x="0" y="0" width="300" height="300" fill="#fefefe"/><g transform="scale(4.615)"><g transform="translate(4,4)"><path fill-rule="evenodd" d="M9 0L9 1L8 1L8 2L9 2L9 3L8 3L8 4L11 4L11 5L8 5L8 7L9 7L9 6L10 6L10 7L11 7L11 5L13 5L13 4L14 4L14 2L15 2L15 3L16 3L16 2L17 2L17 3L18 3L18 4L17 4L17 5L18 5L18 4L19 4L19 5L20 5L20 7L19 7L19 6L18 6L18 7L17 7L17 6L16 6L16 7L15 7L15 5L16 5L16 4L15 4L15 5L14 5L14 7L15 7L15 9L17 9L17 10L13 10L13 9L14 9L14 8L13 8L13 6L12 6L12 8L13 8L13 9L10 9L10 8L6 8L6 9L5 9L5 8L0 8L0 10L1 10L1 9L3 9L3 10L2 10L2 11L0 11L0 13L1 13L1 14L0 14L0 15L1 15L1 16L3 16L3 17L4 17L4 18L5 18L5 19L3 19L3 18L2 18L2 17L1 17L1 18L0 18L0 21L1 21L1 20L2 20L2 22L0 22L0 23L1 23L1 24L0 24L0 25L2 25L2 23L3 23L3 26L4 26L4 28L2 28L2 29L1 29L1 28L0 28L0 29L1 29L1 30L0 30L0 31L1 31L1 32L0 32L0 35L1 35L1 36L0 36L0 37L3 37L3 38L1 38L1 39L3 39L3 42L2 42L2 40L0 40L0 41L1 41L1 42L0 42L0 43L1 43L1 44L3 44L3 42L4 42L4 40L5 40L5 41L7 41L7 42L6 42L6 43L4 43L4 45L3 45L3 46L2 46L2 45L0 45L0 48L5 48L5 47L8 47L8 51L9 51L9 52L8 52L8 57L10 57L10 56L11 56L11 57L12 57L12 56L11 56L11 55L13 55L13 52L14 52L14 55L16 55L16 56L15 56L15 57L16 57L16 56L17 56L17 57L21 57L21 56L19 56L19 55L20 55L20 54L19 54L19 53L20 53L20 52L21 52L21 53L22 53L22 55L23 55L23 56L24 56L24 55L23 55L23 54L24 54L24 53L26 53L26 54L25 54L25 55L26 55L26 54L30 54L30 53L31 53L31 51L32 51L32 52L33 52L33 51L32 51L32 50L31 50L31 48L33 48L33 47L36 47L36 48L34 48L34 49L33 49L33 50L34 50L34 52L35 52L35 54L36 54L36 56L35 56L35 55L33 55L33 53L32 53L32 54L31 54L31 56L30 56L30 55L29 55L29 56L27 56L27 57L29 57L29 56L30 56L30 57L31 57L31 56L35 56L35 57L39 57L39 56L41 56L41 57L44 57L44 54L45 54L45 55L46 55L46 56L50 56L50 57L52 57L52 55L51 55L51 53L52 53L52 54L53 54L53 57L54 57L54 56L55 56L55 57L56 57L56 56L55 56L55 53L56 53L56 52L55 52L55 51L56 51L56 50L57 50L57 48L56 48L56 46L57 46L57 45L56 45L56 44L55 44L55 43L56 43L56 41L55 41L55 39L57 39L57 36L56 36L56 34L57 34L57 32L56 32L56 30L57 30L57 29L56 29L56 28L57 28L57 27L56 27L56 26L57 26L57 25L56 25L56 22L57 22L57 21L56 21L56 20L57 20L57 19L56 19L56 18L57 18L57 17L56 17L56 16L57 16L57 15L56 15L56 14L57 14L57 11L56 11L56 10L54 10L54 11L53 11L53 9L54 9L54 8L53 8L53 9L52 9L52 8L51 8L51 10L50 10L50 8L46 8L46 7L47 7L47 5L48 5L48 0L46 0L46 1L45 1L45 2L44 2L44 3L43 3L43 4L42 4L42 2L43 2L43 0L41 0L41 1L40 1L40 0L39 0L39 1L38 1L38 0L37 0L37 1L38 1L38 2L37 2L37 3L36 3L36 0L35 0L35 1L33 1L33 2L32 2L32 3L31 3L31 4L26 4L26 3L23 3L23 4L19 4L19 3L20 3L20 2L17 2L17 1L15 1L15 0L14 0L14 2L13 2L13 1L12 1L12 0L11 0L11 2L9 2L9 1L10 1L10 0ZM19 0L19 1L20 1L20 0ZM21 0L21 1L22 1L22 0ZM23 0L23 2L27 2L27 3L28 3L28 2L27 2L27 1L25 1L25 0ZM29 0L29 2L31 2L31 1L32 1L32 0ZM46 1L46 2L47 2L47 1ZM11 2L11 4L13 4L13 2ZM21 2L21 3L22 3L22 2ZM33 2L33 3L32 3L32 4L31 4L31 8L32 8L32 10L31 10L31 11L29 11L29 10L28 10L28 11L29 11L29 12L28 12L28 13L27 13L27 15L26 15L26 16L25 16L25 15L20 15L20 14L21 14L21 13L22 13L22 14L23 14L23 13L22 13L22 12L21 12L21 11L22 11L22 10L23 10L23 12L25 12L25 14L26 14L26 12L27 12L27 11L26 11L26 12L25 12L25 10L23 10L23 8L24 8L24 6L23 6L23 5L24 5L24 4L23 4L23 5L21 5L21 7L22 7L22 8L20 8L20 10L19 10L19 12L20 12L20 14L17 14L17 13L18 13L18 12L17 12L17 13L16 13L16 12L15 12L15 13L13 13L13 12L14 12L14 11L13 11L13 12L11 12L11 11L12 11L12 10L11 10L11 11L10 11L10 12L9 12L9 13L8 13L8 11L9 11L9 10L10 10L10 9L8 9L8 10L7 10L7 9L6 9L6 10L5 10L5 11L6 11L6 12L7 12L7 13L6 13L6 14L5 14L5 15L4 15L4 13L5 13L5 12L4 12L4 11L3 11L3 14L1 14L1 15L4 15L4 16L5 16L5 17L6 17L6 18L8 18L8 17L6 17L6 16L8 16L8 15L9 15L9 13L10 13L10 16L9 16L9 20L7 20L7 19L5 19L5 20L4 20L4 21L3 21L3 23L4 23L4 21L5 21L5 20L7 20L7 21L6 21L6 22L5 22L5 23L6 23L6 24L5 24L5 25L4 25L4 26L5 26L5 25L6 25L6 26L7 26L7 25L8 25L8 26L9 26L9 29L10 29L10 31L8 31L8 32L10 32L10 31L11 31L11 34L12 34L12 33L14 33L14 31L13 31L13 30L15 30L15 29L16 29L16 30L17 30L17 32L16 32L16 33L15 33L15 34L13 34L13 36L12 36L12 35L10 35L10 37L8 37L8 35L9 35L9 34L10 34L10 33L5 33L5 31L4 31L4 29L2 29L2 32L3 32L3 33L2 33L2 34L1 34L1 35L2 35L2 36L3 36L3 37L4 37L4 38L3 38L3 39L4 39L4 38L5 38L5 37L4 37L4 35L3 35L3 33L5 33L5 35L6 35L6 36L7 36L7 37L6 37L6 38L7 38L7 39L6 39L6 40L7 40L7 41L8 41L8 42L7 42L7 43L6 43L6 44L7 44L7 45L6 45L6 46L7 46L7 45L8 45L8 43L9 43L9 41L10 41L10 42L13 42L13 41L12 41L12 40L11 40L11 39L13 39L13 38L12 38L12 37L14 37L14 38L15 38L15 39L16 39L16 40L19 40L19 39L20 39L20 38L19 38L19 39L17 39L17 38L18 38L18 37L17 37L17 36L18 36L18 35L19 35L19 37L22 37L22 38L24 38L24 37L23 37L23 36L24 36L24 34L23 34L23 33L25 33L25 35L26 35L26 36L25 36L25 40L24 40L24 39L23 39L23 40L20 40L20 42L19 42L19 41L15 41L15 40L14 40L14 41L15 41L15 45L14 45L14 43L12 43L12 45L13 45L13 47L12 47L12 46L11 46L11 45L10 45L10 44L11 44L11 43L10 43L10 44L9 44L9 45L10 45L10 46L9 46L9 47L10 47L10 48L11 48L11 47L12 47L12 48L14 48L14 49L11 49L11 50L10 50L10 49L9 49L9 51L10 51L10 52L9 52L9 54L10 54L10 53L11 53L11 52L13 52L13 51L14 51L14 52L16 52L16 53L15 53L15 54L16 54L16 53L17 53L17 52L16 52L16 51L22 51L22 50L21 50L21 49L23 49L23 47L24 47L24 46L23 46L23 45L24 45L24 43L27 43L27 42L30 42L30 41L31 41L31 42L32 42L32 43L33 43L33 44L32 44L32 46L31 46L31 45L30 45L30 43L29 43L29 44L25 44L25 48L24 48L24 49L25 49L25 48L28 48L28 46L31 46L31 47L33 47L33 46L35 46L35 45L34 45L34 43L35 43L35 44L36 44L36 43L37 43L37 42L35 42L35 40L38 40L38 42L39 42L39 45L38 45L38 46L39 46L39 45L41 45L41 44L42 44L42 43L40 43L40 42L41 42L41 41L42 41L42 40L43 40L43 41L44 41L44 42L43 42L43 43L44 43L44 45L43 45L43 46L41 46L41 48L39 48L39 47L38 47L38 48L37 48L37 49L38 49L38 50L36 50L36 49L34 49L34 50L36 50L36 52L39 52L39 53L38 53L38 54L40 54L40 53L41 53L41 52L42 52L42 53L43 53L43 54L44 54L44 53L45 53L45 54L48 54L48 50L47 50L47 49L48 49L48 48L49 48L49 47L48 47L48 48L47 48L47 49L45 49L45 48L44 48L44 45L45 45L45 46L48 46L48 45L50 45L50 47L52 47L52 48L54 48L54 49L55 49L55 50L54 50L54 51L55 51L55 50L56 50L56 48L54 48L54 47L53 47L53 45L52 45L52 44L53 44L53 43L54 43L54 42L53 42L53 41L54 41L54 40L53 40L53 39L52 39L52 38L53 38L53 35L55 35L55 34L56 34L56 32L53 32L53 31L54 31L54 30L53 30L53 31L50 31L50 32L49 32L49 31L48 31L48 30L47 30L47 29L46 29L46 30L47 30L47 31L48 31L48 32L46 32L46 33L45 33L45 32L43 32L43 31L45 31L45 30L44 30L44 29L45 29L45 28L46 28L46 27L48 27L48 26L47 26L47 25L48 25L48 24L49 24L49 25L50 25L50 26L52 26L52 25L54 25L54 24L53 24L53 23L51 23L51 25L50 25L50 24L49 24L49 23L50 23L50 22L51 22L51 21L54 21L54 23L55 23L55 22L56 22L56 21L55 21L55 20L53 20L53 19L52 19L52 20L51 20L51 21L49 21L49 20L48 20L48 21L49 21L49 23L48 23L48 24L46 24L46 22L47 22L47 20L44 20L44 18L45 18L45 19L46 19L46 18L47 18L47 17L45 17L45 15L44 15L44 18L43 18L43 20L42 20L42 21L43 21L43 20L44 20L44 25L43 25L43 26L42 26L42 28L41 28L41 24L40 24L40 22L39 22L39 21L41 21L41 20L38 20L38 19L39 19L39 17L41 17L41 16L42 16L42 17L43 17L43 16L42 16L42 15L43 15L43 14L41 14L41 13L43 13L43 12L44 12L44 14L47 14L47 13L49 13L49 12L50 12L50 14L49 14L49 15L48 15L48 16L49 16L49 17L50 17L50 19L51 19L51 17L53 17L53 18L55 18L55 16L53 16L53 15L55 15L55 14L56 14L56 12L54 12L54 13L53 13L53 12L52 12L52 13L53 13L53 15L50 15L50 14L51 14L51 12L50 12L50 10L48 10L48 11L49 11L49 12L45 12L45 11L44 11L44 9L45 9L45 10L47 10L47 9L45 9L45 8L44 8L44 6L45 6L45 7L46 7L46 5L47 5L47 3L44 3L44 6L43 6L43 7L42 7L42 6L41 6L41 5L40 5L40 4L41 4L41 3L39 3L39 2L38 2L38 6L37 6L37 7L36 7L36 5L37 5L37 4L36 4L36 5L35 5L35 4L33 4L33 3L34 3L34 2ZM25 4L25 8L26 8L26 4ZM32 4L32 5L33 5L33 6L32 6L32 7L33 7L33 9L34 9L34 8L35 8L35 9L37 9L37 10L36 10L36 12L35 12L35 13L37 13L37 14L38 14L38 15L39 15L39 16L38 16L38 17L37 17L37 16L35 16L35 14L32 14L32 12L33 12L33 13L34 13L34 12L33 12L33 10L32 10L32 11L31 11L31 13L30 13L30 14L29 14L29 13L28 13L28 14L29 14L29 16L28 16L28 15L27 15L27 16L28 16L28 17L27 17L27 18L26 18L26 19L25 19L25 17L22 17L22 16L20 16L20 15L19 15L19 16L18 16L18 15L17 15L17 16L16 16L16 13L15 13L15 14L13 14L13 13L11 13L11 12L10 12L10 13L11 13L11 15L12 15L12 16L13 16L13 17L10 17L10 19L11 19L11 20L9 20L9 21L8 21L8 25L9 25L9 26L10 26L10 27L11 27L11 29L14 29L14 28L12 28L12 27L11 27L11 26L14 26L14 27L15 27L15 26L14 26L14 25L16 25L16 24L17 24L17 25L18 25L18 26L17 26L17 27L16 27L16 29L18 29L18 30L19 30L19 29L22 29L22 28L20 28L20 26L19 26L19 25L21 25L21 24L19 24L19 23L20 23L20 22L17 22L17 21L20 21L20 20L21 20L21 21L22 21L22 22L24 22L24 21L25 21L25 22L26 22L26 23L25 23L25 24L24 24L24 23L23 23L23 25L22 25L22 26L21 26L21 27L22 27L22 26L24 26L24 28L23 28L23 30L25 30L25 31L24 31L24 32L26 32L26 35L27 35L27 31L29 31L29 32L28 32L28 33L29 33L29 34L30 34L30 36L29 36L29 37L31 37L31 38L29 38L29 39L33 39L33 40L35 40L35 39L37 39L37 38L38 38L38 40L40 40L40 39L39 39L39 38L38 38L38 37L40 37L40 38L43 38L43 37L44 37L44 38L45 38L45 39L43 39L43 40L45 40L45 41L47 41L47 39L50 39L50 40L49 40L49 41L48 41L48 42L44 42L44 43L46 43L46 44L45 44L45 45L47 45L47 43L50 43L50 45L51 45L51 43L53 43L53 42L51 42L51 41L53 41L53 40L51 40L51 39L50 39L50 38L51 38L51 36L52 36L52 35L53 35L53 34L52 34L52 33L53 33L53 32L52 32L52 33L51 33L51 32L50 32L50 34L49 34L49 35L50 35L50 38L48 38L48 37L47 37L47 36L46 36L46 35L44 35L44 36L43 36L43 35L42 35L42 34L45 34L45 33L43 33L43 32L41 32L41 33L39 33L39 34L40 34L40 35L38 35L38 33L37 33L37 32L35 32L35 34L37 34L37 35L38 35L38 37L37 37L37 36L35 36L35 35L32 35L32 31L36 31L36 30L32 30L32 27L33 27L33 28L35 28L35 29L38 29L38 28L40 28L40 27L37 27L37 28L35 28L35 27L36 27L36 26L34 26L34 27L33 27L33 26L32 26L32 24L33 24L33 25L37 25L37 26L38 26L38 24L39 24L39 25L40 25L40 24L39 24L39 22L38 22L38 20L36 20L36 19L35 19L35 18L33 18L33 17L31 17L31 16L35 16L35 17L37 17L37 18L38 18L38 17L39 17L39 16L41 16L41 14L40 14L40 15L39 15L39 14L38 14L38 13L40 13L40 12L41 12L41 11L40 11L40 12L39 12L39 10L38 10L38 8L39 8L39 6L40 6L40 7L41 7L41 10L42 10L42 11L43 11L43 9L44 9L44 8L42 8L42 7L41 7L41 6L40 6L40 5L39 5L39 6L38 6L38 8L35 8L35 5L33 5L33 4ZM45 4L45 5L46 5L46 4ZM27 5L27 8L30 8L30 5ZM22 6L22 7L23 7L23 6ZM28 6L28 7L29 7L29 6ZM33 6L33 7L34 7L34 6ZM48 6L48 7L49 7L49 6ZM16 7L16 8L17 8L17 7ZM55 8L55 9L56 9L56 8ZM6 10L6 11L7 11L7 10ZM17 10L17 11L18 11L18 10ZM20 10L20 11L21 11L21 10ZM37 10L37 11L38 11L38 10ZM7 13L7 14L6 14L6 15L8 15L8 13ZM54 13L54 14L55 14L55 13ZM30 14L30 15L32 15L32 14ZM13 15L13 16L14 16L14 17L13 17L13 18L11 18L11 19L12 19L12 21L11 21L11 22L10 22L10 21L9 21L9 23L10 23L10 24L9 24L9 25L11 25L11 24L13 24L13 25L14 25L14 24L13 24L13 23L14 23L14 22L16 22L16 21L17 21L17 19L18 19L18 20L20 20L20 19L22 19L22 21L24 21L24 20L23 20L23 19L24 19L24 18L23 18L23 19L22 19L22 17L20 17L20 16L19 16L19 17L20 17L20 19L18 19L18 17L16 17L16 16L14 16L14 15ZM46 15L46 16L47 16L47 15ZM49 15L49 16L50 16L50 15ZM27 18L27 19L26 19L26 20L25 20L25 21L27 21L27 24L25 24L25 25L26 25L26 26L25 26L25 27L26 27L26 26L30 26L30 25L29 25L29 23L31 23L31 24L32 24L32 23L35 23L35 20L34 20L34 19L33 19L33 18L30 18L30 19L28 19L28 18ZM41 18L41 19L42 19L42 18ZM48 18L48 19L49 19L49 18ZM13 19L13 20L14 20L14 19ZM27 19L27 20L28 20L28 19ZM30 19L30 20L31 20L31 21L28 21L28 22L31 22L31 21L32 21L32 20L33 20L33 21L34 21L34 20L33 20L33 19ZM15 20L15 21L16 21L16 20ZM12 21L12 23L13 23L13 22L14 22L14 21ZM45 21L45 22L46 22L46 21ZM6 22L6 23L7 23L7 22ZM37 22L37 24L38 24L38 22ZM41 22L41 23L42 23L42 22ZM15 23L15 24L16 24L16 23ZM17 23L17 24L18 24L18 23ZM6 24L6 25L7 25L7 24ZM45 24L45 25L46 25L46 24ZM55 25L55 26L56 26L56 25ZM1 26L1 27L2 27L2 26ZM18 26L18 27L17 27L17 28L18 28L18 29L19 29L19 26ZM31 26L31 27L32 27L32 26ZM43 26L43 27L44 27L44 28L43 28L43 29L41 29L41 30L43 30L43 29L44 29L44 28L45 28L45 27L44 27L44 26ZM53 26L53 27L54 27L54 26ZM5 27L5 30L8 30L8 27ZM27 27L27 30L30 30L30 27ZM49 27L49 30L52 30L52 27ZM55 27L55 28L54 28L54 29L55 29L55 28L56 28L56 27ZM6 28L6 29L7 29L7 28ZM25 28L25 29L26 29L26 28ZM28 28L28 29L29 29L29 28ZM50 28L50 29L51 29L51 28ZM39 29L39 30L38 30L38 32L39 32L39 30L40 30L40 29ZM11 30L11 31L12 31L12 32L13 32L13 31L12 31L12 30ZM31 30L31 31L30 31L30 32L29 32L29 33L31 33L31 31L32 31L32 30ZM3 31L3 32L4 32L4 31ZM6 31L6 32L7 32L7 31ZM19 31L19 32L17 32L17 33L18 33L18 34L20 34L20 35L21 35L21 36L22 36L22 35L21 35L21 34L22 34L22 33L21 33L21 34L20 34L20 32L23 32L23 31ZM48 32L48 33L49 33L49 32ZM54 33L54 34L55 34L55 33ZM6 34L6 35L7 35L7 34ZM16 34L16 35L15 35L15 36L16 36L16 35L17 35L17 34ZM50 34L50 35L52 35L52 34ZM11 36L11 37L10 37L10 38L8 38L8 37L7 37L7 38L8 38L8 40L9 40L9 39L10 39L10 38L11 38L11 37L12 37L12 36ZM26 36L26 39L27 39L27 40L28 40L28 39L27 39L27 38L28 38L28 37L27 37L27 36ZM32 36L32 37L33 37L33 38L35 38L35 36ZM40 36L40 37L43 37L43 36ZM44 36L44 37L45 37L45 38L46 38L46 39L47 39L47 37L46 37L46 36ZM15 37L15 38L16 38L16 37ZM54 38L54 39L55 39L55 38ZM10 40L10 41L11 41L11 40ZM23 40L23 41L24 41L24 42L22 42L22 41L21 41L21 42L20 42L20 45L19 45L19 42L18 42L18 43L16 43L16 45L17 45L17 46L15 46L15 47L14 47L14 48L16 48L16 49L14 49L14 51L15 51L15 50L16 50L16 49L18 49L18 50L20 50L20 49L19 49L19 48L17 48L17 47L19 47L19 46L20 46L20 47L23 47L23 46L22 46L22 45L23 45L23 43L24 43L24 42L25 42L25 41L24 41L24 40ZM31 40L31 41L32 41L32 42L33 42L33 43L34 43L34 42L33 42L33 41L32 41L32 40ZM26 41L26 42L27 42L27 41ZM21 42L21 43L22 43L22 42ZM50 42L50 43L51 43L51 42ZM17 44L17 45L18 45L18 44ZM21 44L21 45L20 45L20 46L21 46L21 45L22 45L22 44ZM54 44L54 46L56 46L56 45L55 45L55 44ZM4 45L4 46L3 46L3 47L5 47L5 45ZM26 45L26 47L27 47L27 45ZM36 45L36 46L37 46L37 45ZM1 46L1 47L2 47L2 46ZM10 46L10 47L11 47L11 46ZM42 47L42 48L41 48L41 50L38 50L38 51L40 51L40 52L41 52L41 50L42 50L42 51L43 51L43 53L44 53L44 52L45 52L45 51L46 51L46 52L47 52L47 51L46 51L46 50L45 50L45 49L44 49L44 48L43 48L43 47ZM6 48L6 49L7 49L7 48ZM38 48L38 49L39 49L39 48ZM42 48L42 49L43 49L43 48ZM27 49L27 52L30 52L30 49ZM49 49L49 52L52 52L52 49ZM11 50L11 51L13 51L13 50ZM23 50L23 52L22 52L22 53L24 53L24 52L26 52L26 51L25 51L25 50ZM28 50L28 51L29 51L29 50ZM44 50L44 51L45 51L45 50ZM50 50L50 51L51 51L51 50ZM53 52L53 53L54 53L54 52ZM18 54L18 55L17 55L17 56L18 56L18 55L19 55L19 54ZM9 55L9 56L10 56L10 55ZM37 55L37 56L39 56L39 55ZM41 55L41 56L43 56L43 55ZM50 55L50 56L51 56L51 55ZM25 56L25 57L26 57L26 56ZM0 0L0 7L7 7L7 0ZM1 1L1 6L6 6L6 1ZM2 2L2 5L5 5L5 2ZM50 0L50 7L57 7L57 0ZM51 1L51 6L56 6L56 1ZM52 2L52 5L55 5L55 2ZM0 50L0 57L7 57L7 50ZM1 51L1 56L6 56L6 51ZM2 52L2 55L5 55L5 52Z" fill="#000000"/></g></g></svg>
