<?xml version="1.0" encoding="UTF-8"?>
<svg xmlns="http://www.w3.org/2000/svg" version="1.1" width="300" height="300" viewBox="0 0 300 300"><rect x="0" y="0" width="300" height="300" fill="#fefefe"/><g transform="scale(4.615)"><g transform="translate(4,4)"><path fill-rule="evenodd" d="M10 0L10 1L8 1L8 3L9 3L9 4L8 4L8 8L6 8L6 9L7 9L7 10L5 10L5 9L4 9L4 8L3 8L3 9L4 9L4 10L5 10L5 11L3 11L3 13L1 13L1 12L0 12L0 14L1 14L1 15L0 15L0 16L2 16L2 18L3 18L3 19L5 19L5 21L7 21L7 20L6 20L6 19L9 19L9 20L10 20L10 22L9 22L9 21L8 21L8 22L9 22L9 24L10 24L10 25L9 25L9 26L8 26L8 25L7 25L7 24L8 24L8 23L7 23L7 22L6 22L6 23L5 23L5 22L4 22L4 20L2 20L2 21L0 21L0 23L2 23L2 22L3 22L3 23L4 23L4 24L0 24L0 25L1 25L1 26L2 26L2 27L0 27L0 28L2 28L2 27L3 27L3 28L4 28L4 32L3 32L3 29L0 29L0 30L1 30L1 31L0 31L0 32L2 32L2 33L1 33L1 34L3 34L3 35L4 35L4 36L3 36L3 37L4 37L4 36L5 36L5 38L6 38L6 39L9 39L9 40L8 40L8 43L7 43L7 42L6 42L6 41L7 41L7 40L4 40L4 42L3 42L3 41L2 41L2 39L1 39L1 38L2 38L2 37L0 37L0 39L1 39L1 42L0 42L0 44L1 44L1 42L3 42L3 43L2 43L2 44L3 44L3 45L2 45L2 47L1 47L1 45L0 45L0 48L5 48L5 47L7 47L7 48L6 48L6 49L7 49L7 48L8 48L8 51L9 51L9 48L10 48L10 46L11 46L11 43L12 43L12 44L13 44L13 43L14 43L14 45L13 45L13 46L14 46L14 48L13 48L13 47L11 47L11 49L12 49L12 50L10 50L10 51L11 51L11 52L12 52L12 53L10 53L10 52L9 52L9 53L8 53L8 54L10 54L10 56L9 56L9 55L8 55L8 57L10 57L10 56L11 56L11 55L12 55L12 56L13 56L13 55L14 55L14 56L15 56L15 55L14 55L14 54L13 54L13 53L15 53L15 52L16 52L16 51L15 51L15 52L13 52L13 49L14 49L14 48L15 48L15 49L16 49L16 50L18 50L18 52L17 52L17 53L16 53L16 54L18 54L18 53L19 53L19 55L22 55L22 54L21 54L21 53L22 53L22 52L24 52L24 53L23 53L23 54L25 54L25 55L24 55L24 56L21 56L21 57L24 57L24 56L25 56L25 57L26 57L26 56L25 56L25 55L28 55L28 56L29 56L29 57L31 57L31 56L33 56L33 57L35 57L35 56L36 56L36 57L41 57L41 55L40 55L40 56L36 56L36 55L37 55L37 54L36 54L36 53L38 53L38 54L39 54L39 53L40 53L40 54L42 54L42 56L43 56L43 57L44 57L44 56L43 56L43 55L45 55L45 56L46 56L46 55L47 55L47 57L48 57L48 56L50 56L50 57L51 57L51 56L52 56L52 57L54 57L54 56L53 56L53 54L54 54L54 55L55 55L55 54L56 54L56 55L57 55L57 52L56 52L56 49L55 49L55 48L54 48L54 47L55 47L55 46L56 46L56 48L57 48L57 45L56 45L56 44L55 44L55 46L54 46L54 47L53 47L53 46L52 46L52 47L51 47L51 45L52 45L52 44L53 44L53 43L52 43L52 44L51 44L51 42L49 42L49 43L48 43L48 42L47 42L47 46L46 46L46 47L45 47L45 45L44 45L44 43L45 43L45 42L44 42L44 41L45 41L45 39L46 39L46 41L47 41L47 40L49 40L49 39L50 39L50 40L52 40L52 41L53 41L53 42L54 42L54 43L57 43L57 42L56 42L56 41L57 41L57 40L56 40L56 39L57 39L57 34L56 34L56 33L57 33L57 32L56 32L56 31L57 31L57 30L55 30L55 29L57 29L57 27L56 27L56 28L55 28L55 29L54 29L54 28L53 28L53 27L55 27L55 26L57 26L57 18L56 18L56 17L57 17L57 15L56 15L56 14L57 14L57 10L56 10L56 8L54 8L54 9L53 9L53 8L50 8L50 9L51 9L51 12L50 12L50 10L48 10L48 9L47 9L47 8L48 8L48 7L49 7L49 6L48 6L48 7L47 7L47 5L48 5L48 0L44 0L44 1L45 1L45 2L44 2L44 3L45 3L45 2L46 2L46 3L47 3L47 5L46 5L46 7L47 7L47 8L45 8L45 4L44 4L44 8L43 8L43 6L42 6L42 5L43 5L43 3L42 3L42 2L41 2L41 4L38 4L38 3L37 3L37 4L38 4L38 9L39 9L39 10L38 10L38 11L39 11L39 10L40 10L40 13L41 13L41 11L42 11L42 12L43 12L43 14L44 14L44 15L45 15L45 16L44 16L44 18L45 18L45 19L44 19L44 20L40 20L40 19L39 19L39 18L42 18L42 19L43 19L43 18L42 18L42 14L40 14L40 15L39 15L39 14L38 14L38 12L36 12L36 11L37 11L37 6L36 6L36 7L35 7L35 5L36 5L36 4L35 4L35 5L34 5L34 7L33 7L33 5L32 5L32 4L31 4L31 2L32 2L32 3L33 3L33 2L34 2L34 1L36 1L36 2L37 2L37 1L38 1L38 2L40 2L40 1L43 1L43 0L40 0L40 1L39 1L39 0L37 0L37 1L36 1L36 0L33 0L33 2L32 2L32 1L31 1L31 0L22 0L22 1L25 1L25 2L27 2L27 3L29 3L29 2L30 2L30 4L24 4L24 5L23 5L23 4L21 4L21 5L23 5L23 6L22 6L22 7L23 7L23 8L21 8L21 6L20 6L20 5L17 5L17 6L16 6L16 7L15 7L15 6L14 6L14 5L15 5L15 4L13 4L13 3L14 3L14 2L15 2L15 3L16 3L16 2L17 2L17 3L19 3L19 4L20 4L20 3L19 3L19 2L20 2L20 1L21 1L21 0L18 0L18 1L19 1L19 2L17 2L17 0L15 0L15 1L14 1L14 2L12 2L12 4L11 4L11 6L10 6L10 5L9 5L9 4L10 4L10 2L11 2L11 1L13 1L13 0ZM30 1L30 2L31 2L31 1ZM46 1L46 2L47 2L47 1ZM21 2L21 3L24 3L24 2ZM12 5L12 6L11 6L11 8L10 8L10 6L9 6L9 8L8 8L8 9L9 9L9 8L10 8L10 10L7 10L7 11L6 11L6 12L8 12L8 13L6 13L6 14L5 14L5 12L4 12L4 13L3 13L3 14L2 14L2 15L3 15L3 16L4 16L4 15L6 15L6 16L5 16L5 17L3 17L3 18L5 18L5 19L6 19L6 18L7 18L7 17L6 17L6 16L7 16L7 15L8 15L8 13L9 13L9 14L10 14L10 15L9 15L9 17L8 17L8 18L9 18L9 19L10 19L10 17L11 17L11 19L14 19L14 20L13 20L13 21L12 21L12 20L11 20L11 21L12 21L12 24L11 24L11 22L10 22L10 24L11 24L11 25L10 25L10 26L9 26L9 32L8 32L8 33L6 33L6 34L7 34L7 35L5 35L5 34L4 34L4 35L5 35L5 36L7 36L7 35L8 35L8 33L9 33L9 32L10 32L10 30L12 30L12 31L11 31L11 32L13 32L13 33L12 33L12 34L11 34L11 35L12 35L12 36L11 36L11 37L12 37L12 36L13 36L13 38L9 38L9 37L10 37L10 36L9 36L9 37L6 37L6 38L9 38L9 39L10 39L10 42L9 42L9 43L11 43L11 42L12 42L12 41L13 41L13 42L14 42L14 43L15 43L15 44L19 44L19 43L20 43L20 44L21 44L21 43L20 43L20 41L19 41L19 43L18 43L18 41L17 41L17 39L16 39L16 40L14 40L14 36L19 36L19 37L20 37L20 35L22 35L22 34L23 34L23 36L26 36L26 35L27 35L27 36L33 36L33 38L34 38L34 39L36 39L36 38L37 38L37 37L38 37L38 39L39 39L39 38L41 38L41 39L40 39L40 41L39 41L39 42L38 42L38 40L37 40L37 41L36 41L36 42L35 42L35 40L34 40L34 41L32 41L32 40L33 40L33 39L32 39L32 40L31 40L31 41L30 41L30 40L29 40L29 39L30 39L30 38L29 38L29 39L28 39L28 41L26 41L26 42L25 42L25 39L26 39L26 40L27 40L27 39L26 39L26 38L27 38L27 37L24 37L24 38L23 38L23 39L24 39L24 41L23 41L23 40L22 40L22 37L21 37L21 40L22 40L22 46L21 46L21 45L20 45L20 46L19 46L19 45L15 45L15 46L16 46L16 47L15 47L15 48L17 48L17 46L19 46L19 47L18 47L18 48L19 48L19 49L20 49L20 51L19 51L19 53L20 53L20 51L21 51L21 52L22 52L22 51L21 51L21 49L20 49L20 46L21 46L21 48L24 48L24 49L22 49L22 50L24 50L24 51L25 51L25 50L26 50L26 49L25 49L25 48L24 48L24 46L25 46L25 45L27 45L27 46L26 46L26 47L27 47L27 48L29 48L29 46L33 46L33 47L30 47L30 48L31 48L31 49L32 49L32 48L33 48L33 50L32 50L32 51L35 51L35 52L36 52L36 51L38 51L38 53L39 53L39 52L40 52L40 53L42 53L42 54L43 54L43 53L44 53L44 54L45 54L45 55L46 55L46 54L50 54L50 56L51 56L51 54L52 54L52 53L48 53L48 52L47 52L47 53L46 53L46 52L45 52L45 53L44 53L44 51L45 51L45 50L44 50L44 49L43 49L43 47L44 47L44 48L45 48L45 47L44 47L44 45L42 45L42 44L43 44L43 43L42 43L42 42L43 42L43 41L44 41L44 40L41 40L41 39L45 39L45 38L46 38L46 37L47 37L47 39L48 39L48 35L50 35L50 36L49 36L49 37L50 37L50 39L53 39L53 41L54 41L54 42L55 42L55 39L53 39L53 38L55 38L55 37L53 37L53 38L52 38L52 37L51 37L51 35L50 35L50 34L47 34L47 32L48 32L48 30L47 30L47 29L48 29L48 27L47 27L47 29L46 29L46 25L44 25L44 26L45 26L45 29L44 29L44 28L42 28L42 27L43 27L43 25L41 25L41 28L40 28L40 30L41 30L41 31L46 31L46 32L43 32L43 33L42 33L42 32L41 32L41 34L42 34L42 35L41 35L41 36L42 36L42 38L41 38L41 37L40 37L40 36L39 36L39 35L38 35L38 34L39 34L39 32L40 32L40 31L39 31L39 30L36 30L36 31L37 31L37 33L36 33L36 32L33 32L33 31L35 31L35 28L34 28L34 29L33 29L33 31L31 31L31 32L30 32L30 31L29 31L29 32L28 32L28 31L27 31L27 32L28 32L28 33L27 33L27 34L26 34L26 35L24 35L24 34L25 34L25 32L26 32L26 31L25 31L25 30L26 30L26 29L25 29L25 28L26 28L26 26L29 26L29 25L26 25L26 24L27 24L27 22L26 22L26 21L27 21L27 20L28 20L28 19L29 19L29 20L30 20L30 21L28 21L28 24L29 24L29 22L31 22L31 20L30 20L30 19L31 19L31 18L32 18L32 19L33 19L33 18L35 18L35 20L34 20L34 21L33 21L33 20L32 20L32 22L33 22L33 23L32 23L32 24L33 24L33 25L32 25L32 26L31 26L31 25L30 25L30 26L31 26L31 30L32 30L32 28L33 28L33 27L32 27L32 26L34 26L34 27L36 27L36 28L37 28L37 29L38 29L38 27L39 27L39 26L40 26L40 25L39 25L39 24L40 24L40 23L39 23L39 20L38 20L38 17L39 17L39 15L38 15L38 14L37 14L37 15L38 15L38 17L37 17L37 18L36 18L36 17L35 17L35 16L34 16L34 17L32 17L32 16L33 16L33 15L36 15L36 13L35 13L35 14L34 14L34 12L35 12L35 11L36 11L36 10L35 10L35 9L36 9L36 8L35 8L35 7L34 7L34 8L33 8L33 7L32 7L32 6L31 6L31 8L32 8L32 9L29 9L29 10L32 10L32 11L33 11L33 15L32 15L32 13L31 13L31 12L30 12L30 11L29 11L29 13L28 13L28 12L26 12L26 11L28 11L28 10L26 10L26 9L24 9L24 8L26 8L26 6L25 6L25 5L24 5L24 6L23 6L23 7L24 7L24 8L23 8L23 9L22 9L22 10L25 10L25 12L22 12L22 13L23 13L23 14L21 14L21 11L20 11L20 10L21 10L21 8L19 8L19 9L18 9L18 6L17 6L17 8L15 8L15 7L14 7L14 6L13 6L13 5ZM27 5L27 8L30 8L30 5ZM40 5L40 6L39 6L39 8L40 8L40 6L41 6L41 10L44 10L44 11L43 11L43 12L44 12L44 11L45 11L45 8L44 8L44 9L42 9L42 6L41 6L41 5ZM12 6L12 8L11 8L11 9L12 9L12 8L13 8L13 9L14 9L14 8L13 8L13 6ZM19 6L19 7L20 7L20 6ZM24 6L24 7L25 7L25 6ZM28 6L28 7L29 7L29 6ZM0 8L0 9L1 9L1 11L2 11L2 8ZM34 8L34 9L35 9L35 8ZM17 9L17 10L16 10L16 11L17 11L17 12L18 12L18 13L19 13L19 14L18 14L18 16L16 16L16 15L17 15L17 13L16 13L16 12L15 12L15 14L14 14L14 15L13 15L13 14L11 14L11 13L12 13L12 12L13 12L13 13L14 13L14 11L12 11L12 10L10 10L10 11L9 11L9 13L10 13L10 14L11 14L11 15L10 15L10 16L12 16L12 15L13 15L13 16L14 16L14 17L13 17L13 18L14 18L14 19L15 19L15 16L16 16L16 17L17 17L17 19L16 19L16 24L15 24L15 22L14 22L14 24L15 24L15 25L14 25L14 26L13 26L13 24L12 24L12 25L11 25L11 26L10 26L10 27L11 27L11 29L12 29L12 30L14 30L14 31L13 31L13 32L15 32L15 30L16 30L16 33L17 33L17 32L18 32L18 33L19 33L19 31L21 31L21 32L20 32L20 33L21 33L21 34L22 34L22 33L24 33L24 32L22 32L22 31L24 31L24 29L23 29L23 30L21 30L21 29L19 29L19 30L18 30L18 31L17 31L17 30L16 30L16 29L18 29L18 28L21 28L21 26L20 26L20 25L19 25L19 24L21 24L21 23L22 23L22 22L20 22L20 20L21 20L21 21L24 21L24 22L25 22L25 23L23 23L23 24L22 24L22 25L23 25L23 24L24 24L24 25L25 25L25 26L24 26L24 27L25 27L25 26L26 26L26 25L25 25L25 23L26 23L26 22L25 22L25 21L26 21L26 18L27 18L27 19L28 19L28 18L29 18L29 19L30 19L30 17L31 17L31 16L28 16L28 15L29 15L29 14L30 14L30 13L29 13L29 14L27 14L27 16L26 16L26 18L24 18L24 17L22 17L22 18L21 18L21 17L20 17L20 16L19 16L19 14L20 14L20 13L19 13L19 12L20 12L20 11L19 11L19 10L18 10L18 9ZM46 9L46 10L47 10L47 14L46 14L46 13L44 13L44 14L45 14L45 15L46 15L46 17L45 17L45 18L47 18L47 20L44 20L44 21L41 21L41 23L42 23L42 24L44 24L44 22L45 22L45 24L47 24L47 23L46 23L46 22L47 22L47 21L48 21L48 22L49 22L49 19L48 19L48 18L50 18L50 17L51 17L51 19L53 19L53 20L54 20L54 21L53 21L53 22L54 22L54 21L55 21L55 20L56 20L56 19L53 19L53 18L54 18L54 16L55 16L55 17L56 17L56 15L55 15L55 14L56 14L56 13L55 13L55 11L56 11L56 10L55 10L55 11L54 11L54 10L52 10L52 11L54 11L54 13L52 13L52 12L51 12L51 13L50 13L50 14L49 14L49 11L48 11L48 10L47 10L47 9ZM17 10L17 11L18 11L18 12L19 12L19 11L18 11L18 10ZM33 10L33 11L34 11L34 10ZM10 12L10 13L11 13L11 12ZM25 13L25 15L26 15L26 13ZM51 13L51 14L50 14L50 15L49 15L49 14L48 14L48 17L47 17L47 18L48 18L48 17L50 17L50 16L51 16L51 17L52 17L52 16L53 16L53 15L54 15L54 14L55 14L55 13L54 13L54 14L53 14L53 15L52 15L52 16L51 16L51 14L52 14L52 13ZM3 14L3 15L4 15L4 14ZM6 14L6 15L7 15L7 14ZM15 14L15 15L16 15L16 14ZM23 15L23 16L24 16L24 15ZM40 16L40 17L41 17L41 16ZM0 17L0 20L1 20L1 17ZM5 17L5 18L6 18L6 17ZM18 17L18 19L17 19L17 21L18 21L18 20L20 20L20 19L21 19L21 18L20 18L20 17ZM19 18L19 19L20 19L20 18ZM23 18L23 20L25 20L25 19L24 19L24 18ZM36 19L36 21L38 21L38 20L37 20L37 19ZM50 21L50 23L49 23L49 24L48 24L48 26L49 26L49 24L53 24L53 25L52 25L52 26L55 26L55 25L54 25L54 24L56 24L56 22L55 22L55 23L54 23L54 24L53 24L53 23L52 23L52 22L51 22L51 21ZM19 22L19 23L17 23L17 24L19 24L19 23L20 23L20 22ZM35 22L35 23L33 23L33 24L35 24L35 25L34 25L34 26L38 26L38 24L39 24L39 23L37 23L37 22ZM6 23L6 24L7 24L7 23ZM30 23L30 24L31 24L31 23ZM36 23L36 24L37 24L37 23ZM2 25L2 26L5 26L5 25ZM6 25L6 26L7 26L7 25ZM15 25L15 27L12 27L12 29L14 29L14 28L17 28L17 27L20 27L20 26L19 26L19 25L18 25L18 26L17 26L17 27L16 27L16 25ZM50 25L50 26L51 26L51 25ZM22 26L22 27L23 27L23 26ZM5 27L5 30L8 30L8 27ZM27 27L27 30L30 30L30 27ZM49 27L49 30L52 30L52 27ZM6 28L6 29L7 29L7 28ZM28 28L28 29L29 29L29 28ZM50 28L50 29L51 29L51 28ZM41 29L41 30L42 30L42 29ZM43 29L43 30L44 30L44 29ZM45 29L45 30L46 30L46 29ZM54 30L54 31L53 31L53 32L52 32L52 31L51 31L51 32L52 32L52 34L53 34L53 35L52 35L52 36L53 36L53 35L54 35L54 36L55 36L55 35L56 35L56 34L55 34L55 33L56 33L56 32L55 32L55 30ZM5 31L5 32L4 32L4 33L5 33L5 32L7 32L7 31ZM38 31L38 32L39 32L39 31ZM29 32L29 33L30 33L30 32ZM31 32L31 34L30 34L30 35L34 35L34 36L35 36L35 37L34 37L34 38L35 38L35 37L37 37L37 36L38 36L38 35L36 35L36 36L35 36L35 35L34 35L34 34L32 34L32 32ZM49 32L49 33L50 33L50 32ZM53 32L53 34L54 34L54 33L55 33L55 32ZM13 33L13 35L14 35L14 33ZM44 33L44 34L43 34L43 35L42 35L42 36L43 36L43 37L44 37L44 38L45 38L45 36L47 36L47 34L46 34L46 35L45 35L45 33ZM15 34L15 35L16 35L16 34ZM19 34L19 35L20 35L20 34ZM27 34L27 35L28 35L28 34ZM44 35L44 36L45 36L45 35ZM17 37L17 38L18 38L18 37ZM19 38L19 40L20 40L20 38ZM24 38L24 39L25 39L25 38ZM14 41L14 42L15 42L15 41ZM29 41L29 43L31 43L31 44L28 44L28 43L27 43L27 42L26 42L26 43L25 43L25 44L24 44L24 45L25 45L25 44L28 44L28 45L31 45L31 44L33 44L33 45L34 45L34 44L33 44L33 42L32 42L32 41L31 41L31 42L30 42L30 41ZM40 41L40 42L39 42L39 43L38 43L38 42L37 42L37 44L36 44L36 43L35 43L35 42L34 42L34 43L35 43L35 44L36 44L36 45L39 45L39 47L38 47L38 48L39 48L39 49L40 49L40 50L41 50L41 51L40 51L40 52L42 52L42 53L43 53L43 52L42 52L42 51L43 51L43 50L41 50L41 49L42 49L42 48L41 48L41 44L42 44L42 43L41 43L41 42L42 42L42 41ZM5 42L5 43L3 43L3 44L4 44L4 45L5 45L5 46L3 46L3 47L5 47L5 46L7 46L7 47L8 47L8 48L9 48L9 47L8 47L8 46L9 46L9 45L10 45L10 44L8 44L8 45L6 45L6 44L7 44L7 43L6 43L6 42ZM23 42L23 43L24 43L24 42ZM39 43L39 44L40 44L40 43ZM49 43L49 45L48 45L48 46L49 46L49 48L51 48L51 47L50 47L50 45L51 45L51 44L50 44L50 43ZM22 46L22 47L23 47L23 46ZM27 46L27 47L28 47L28 46ZM34 46L34 47L33 47L33 48L34 48L34 50L36 50L36 49L37 49L37 50L38 50L38 51L39 51L39 50L38 50L38 49L37 49L37 48L35 48L35 47L36 47L36 46ZM46 47L46 48L47 48L47 50L46 50L46 51L47 51L47 50L48 50L48 48L47 48L47 47ZM12 48L12 49L13 49L13 48ZM53 48L53 53L54 53L54 52L55 52L55 53L56 53L56 52L55 52L55 49L54 49L54 48ZM27 49L27 52L30 52L30 49ZM49 49L49 52L52 52L52 49ZM28 50L28 51L29 51L29 50ZM50 50L50 51L51 51L51 50ZM25 52L25 54L27 54L27 53L26 53L26 52ZM33 52L33 53L32 53L32 55L33 55L33 54L35 54L35 55L34 55L34 56L35 56L35 55L36 55L36 54L35 54L35 53L34 53L34 52ZM12 54L12 55L13 55L13 54ZM29 54L29 56L30 56L30 55L31 55L31 54ZM17 55L17 56L16 56L16 57L17 57L17 56L18 56L18 57L20 57L20 56L18 56L18 55ZM55 56L55 57L56 57L56 56ZM0 0L0 7L7 7L7 0ZM1 1L1 6L6 6L6 1ZM2 2L2 5L5 5L5 2ZM50 0L50 7L57 7L57 0ZM51 1L51 6L56 6L56 1ZM52 2L52 5L55 5L55 2ZM0 50L0 57L7 57L7 50ZM1 51L1 56L6 56L6 51ZM2 52L2 55L5 55L5 52Z" fill="#000000"/></g></g></svg>
