<?xml version="1.0" encoding="UTF-8"?>
<svg xmlns="http://www.w3.org/2000/svg" version="1.1" width="300" height="300" viewBox="0 0 300 300"><rect x="0" y="0" width="300" height="300" fill="#fefefe"/><g transform="scale(4.615)"><g transform="translate(4,4)"><path fill-rule="evenodd" d="M8 0L8 1L10 1L10 2L8 2L8 5L9 5L9 6L8 6L8 7L9 7L9 6L10 6L10 11L11 11L11 13L9 13L9 14L10 14L10 16L12 16L12 15L13 15L13 17L14 17L14 18L19 18L19 19L16 19L16 23L15 23L15 24L16 24L16 23L17 23L17 21L18 21L18 22L19 22L19 24L17 24L17 26L16 26L16 25L15 25L15 26L14 26L14 27L15 27L15 26L16 26L16 27L19 27L19 28L18 28L18 29L19 29L19 30L18 30L18 31L17 31L17 32L16 32L16 30L17 30L17 28L15 28L15 29L14 29L14 30L15 30L15 32L13 32L13 28L12 28L12 26L13 26L13 25L14 25L14 24L13 24L13 25L12 25L12 24L11 24L11 23L10 23L10 22L12 22L12 23L14 23L14 20L15 20L15 19L13 19L13 18L12 18L12 19L11 19L11 18L10 18L10 17L8 17L8 14L6 14L6 13L7 13L7 12L6 12L6 13L5 13L5 12L3 12L3 11L2 11L2 10L3 10L3 9L4 9L4 8L0 8L0 9L1 9L1 10L0 10L0 14L1 14L1 15L2 15L2 16L1 16L1 18L0 18L0 19L1 19L1 20L2 20L2 19L3 19L3 21L2 21L2 23L3 23L3 21L5 21L5 22L4 22L4 23L5 23L5 24L6 24L6 25L7 25L7 26L5 26L5 25L3 25L3 26L2 26L2 24L1 24L1 23L0 23L0 25L1 25L1 26L0 26L0 27L1 27L1 26L2 26L2 27L4 27L4 30L3 30L3 29L2 29L2 28L1 28L1 29L0 29L0 31L1 31L1 32L3 32L3 35L1 35L1 33L0 33L0 37L3 37L3 38L0 38L0 41L1 41L1 42L0 42L0 45L2 45L2 47L1 47L1 46L0 46L0 48L5 48L5 47L7 47L7 48L6 48L6 49L7 49L7 48L8 48L8 50L9 50L9 48L8 48L8 47L9 47L9 46L10 46L10 45L12 45L12 49L11 49L11 50L12 50L12 52L10 52L10 51L9 51L9 52L10 52L10 53L8 53L8 57L9 57L9 56L10 56L10 55L11 55L11 57L12 57L12 56L13 56L13 57L18 57L18 56L19 56L19 57L20 57L20 56L21 56L21 57L24 57L24 56L25 56L25 55L26 55L26 56L28 56L28 55L26 55L26 53L29 53L29 54L31 54L31 55L30 55L30 56L31 56L31 57L32 57L32 55L33 55L33 54L36 54L36 55L34 55L34 56L33 56L33 57L36 57L36 55L38 55L38 57L42 57L42 56L43 56L43 55L44 55L44 56L45 56L45 55L46 55L46 56L48 56L48 57L51 57L51 54L52 54L52 53L54 53L54 52L55 52L55 54L53 54L53 56L52 56L52 57L55 57L55 56L54 56L54 55L55 55L55 54L56 54L56 53L57 53L57 51L55 51L55 50L53 50L53 49L54 49L54 45L56 45L56 46L55 46L55 47L57 47L57 44L53 44L53 47L52 47L52 48L51 48L51 45L52 45L52 43L53 43L53 42L54 42L54 43L56 43L56 41L57 41L57 40L56 40L56 41L55 41L55 42L54 42L54 41L53 41L53 40L55 40L55 38L56 38L56 39L57 39L57 38L56 38L56 37L57 37L57 34L55 34L55 33L57 33L57 31L56 31L56 30L57 30L57 29L56 29L56 27L53 27L53 26L51 26L51 25L49 25L49 24L51 24L51 23L48 23L48 25L49 25L49 26L46 26L46 25L47 25L47 22L49 22L49 20L50 20L50 21L51 21L51 22L52 22L52 23L53 23L53 24L54 24L54 23L57 23L57 20L56 20L56 22L54 22L54 21L55 21L55 20L54 20L54 21L53 21L53 20L50 20L50 18L48 18L48 14L47 14L47 15L45 15L45 16L44 16L44 15L43 15L43 14L42 14L42 17L41 17L41 18L39 18L39 19L40 19L40 20L39 20L39 23L41 23L41 29L40 29L40 27L38 27L38 26L39 26L39 24L38 24L38 23L37 23L37 24L36 24L36 23L35 23L35 24L33 24L33 22L32 22L32 23L31 23L31 20L32 20L32 18L31 18L31 20L30 20L30 24L29 24L29 19L30 19L30 17L29 17L29 16L31 16L31 17L33 17L33 21L35 21L35 22L38 22L38 21L36 21L36 20L37 20L37 19L36 19L36 20L35 20L35 17L34 17L34 16L35 16L35 15L39 15L39 17L40 17L40 16L41 16L41 15L40 15L40 14L41 14L41 13L40 13L40 14L39 14L39 10L38 10L38 9L41 9L41 10L40 10L40 11L42 11L42 12L43 12L43 13L44 13L44 14L46 14L46 13L44 13L44 11L42 11L42 10L44 10L44 9L42 9L42 8L43 8L43 6L42 6L42 5L41 5L41 4L42 4L42 3L43 3L43 5L46 5L46 7L45 7L45 6L44 6L44 7L45 7L45 11L47 11L47 10L46 10L46 9L48 9L48 11L49 11L49 17L50 17L50 15L51 15L51 18L52 18L52 19L56 19L56 17L57 17L57 15L55 15L55 13L54 13L54 10L53 10L53 9L55 9L55 8L52 8L52 9L51 9L51 10L50 10L50 8L49 8L49 6L48 6L48 7L47 7L47 5L48 5L48 0L46 0L46 1L47 1L47 2L46 2L46 3L47 3L47 5L46 5L46 4L44 4L44 3L45 3L45 1L44 1L44 2L41 2L41 1L43 1L43 0L41 0L41 1L40 1L40 0L39 0L39 1L40 1L40 2L41 2L41 4L38 4L38 3L39 3L39 2L38 2L38 3L37 3L37 1L38 1L38 0L37 0L37 1L36 1L36 0L35 0L35 1L34 1L34 2L35 2L35 3L33 3L33 2L31 2L31 4L30 4L30 2L27 2L27 3L29 3L29 4L26 4L26 1L25 1L25 0L23 0L23 1L25 1L25 2L24 2L24 3L23 3L23 4L22 4L22 5L23 5L23 6L22 6L22 8L21 8L21 9L23 9L23 10L20 10L20 9L18 9L18 8L20 8L20 7L21 7L21 5L20 5L20 4L19 4L19 3L21 3L21 2L22 2L22 0L21 0L21 2L19 2L19 3L18 3L18 2L17 2L17 1L15 1L15 3L17 3L17 4L18 4L18 7L17 7L17 5L15 5L15 4L14 4L14 3L12 3L12 2L13 2L13 1L14 1L14 0L13 0L13 1L10 1L10 0ZM19 0L19 1L20 1L20 0ZM28 0L28 1L31 1L31 0ZM35 1L35 2L36 2L36 1ZM9 3L9 5L11 5L11 7L12 7L12 5L14 5L14 6L13 6L13 7L14 7L14 8L13 8L13 9L14 9L14 11L15 11L15 15L14 15L14 16L15 16L15 15L16 15L16 16L17 16L17 15L18 15L18 17L19 17L19 18L21 18L21 19L19 19L19 20L18 20L18 21L19 21L19 22L21 22L21 23L20 23L20 24L21 24L21 23L23 23L23 22L22 22L22 20L21 20L21 19L23 19L23 21L24 21L24 22L25 22L25 25L24 25L24 24L22 24L22 25L23 25L23 26L24 26L24 27L22 27L22 26L20 26L20 25L19 25L19 27L21 27L21 28L20 28L20 30L19 30L19 31L18 31L18 34L19 34L19 35L18 35L18 36L15 36L15 38L13 38L13 37L14 37L14 35L13 35L13 36L12 36L12 35L11 35L11 36L12 36L12 37L10 37L10 36L8 36L8 37L6 37L6 38L5 38L5 36L7 36L7 35L6 35L6 34L7 34L7 33L6 33L6 32L7 32L7 31L3 31L3 30L1 30L1 31L3 31L3 32L4 32L4 33L6 33L6 34L4 34L4 36L3 36L3 37L4 37L4 38L3 38L3 39L2 39L2 40L1 40L1 41L2 41L2 42L3 42L3 41L2 41L2 40L3 40L3 39L6 39L6 40L5 40L5 42L4 42L4 44L3 44L3 43L2 43L2 44L3 44L3 47L5 47L5 46L7 46L7 47L8 47L8 45L9 45L9 44L10 44L10 42L11 42L11 41L12 41L12 40L13 40L13 42L12 42L12 45L14 45L14 44L13 44L13 42L14 42L14 43L15 43L15 44L16 44L16 43L17 43L17 45L15 45L15 46L16 46L16 47L17 47L17 48L15 48L15 49L16 49L16 50L17 50L17 51L15 51L15 53L14 53L14 52L12 52L12 53L13 53L13 54L11 54L11 55L13 55L13 54L15 54L15 53L16 53L16 54L17 54L17 55L18 55L18 54L19 54L19 52L17 52L17 51L19 51L19 49L21 49L21 50L20 50L20 51L21 51L21 52L22 52L22 53L23 53L23 52L24 52L24 53L25 53L25 52L26 52L26 51L24 51L24 50L25 50L25 49L26 49L26 48L27 48L27 46L26 46L26 45L27 45L27 44L28 44L28 48L29 48L29 47L30 47L30 48L31 48L31 43L30 43L30 44L28 44L28 43L29 43L29 42L31 42L31 40L33 40L33 39L34 39L34 38L36 38L36 39L35 39L35 40L34 40L34 41L36 41L36 42L34 42L34 43L35 43L35 44L34 44L34 45L33 45L33 42L32 42L32 46L33 46L33 48L32 48L32 49L31 49L31 53L32 53L32 51L33 51L33 53L36 53L36 54L37 54L37 52L40 52L40 54L41 54L41 52L43 52L43 51L44 51L44 49L46 49L46 50L45 50L45 52L46 52L46 53L47 53L47 52L48 52L48 48L46 48L46 46L47 46L47 45L48 45L48 44L44 44L44 43L46 43L46 42L44 42L44 43L42 43L42 42L43 42L43 41L42 41L42 39L41 39L41 40L40 40L40 41L37 41L37 40L38 40L38 39L39 39L39 38L37 38L37 37L34 37L34 38L33 38L33 36L32 36L32 35L34 35L34 36L36 36L36 35L35 35L35 31L37 31L37 32L36 32L36 33L37 33L37 32L38 32L38 34L39 34L39 31L40 31L40 32L41 32L41 31L43 31L43 30L46 30L46 26L45 26L45 25L46 25L46 22L47 22L47 21L48 21L48 19L47 19L47 21L46 21L46 18L45 18L45 17L47 17L47 16L45 16L45 17L42 17L42 18L41 18L41 21L44 21L44 22L45 22L45 23L43 23L43 22L42 22L42 24L44 24L44 26L45 26L45 29L44 29L44 28L43 28L43 27L42 27L42 28L43 28L43 29L42 29L42 30L40 30L40 29L38 29L38 30L37 30L37 27L35 27L35 25L34 25L34 27L35 27L35 28L34 28L34 29L36 29L36 30L35 30L35 31L33 31L33 30L32 30L32 29L31 29L31 31L33 31L33 32L31 32L31 33L32 33L32 34L30 34L30 35L29 35L29 33L30 33L30 31L26 31L26 32L25 32L25 34L24 34L24 35L23 35L23 33L24 33L24 31L25 31L25 30L26 30L26 28L25 28L25 25L29 25L29 24L28 24L28 22L25 22L25 19L24 19L24 18L25 18L25 17L24 17L24 18L23 18L23 16L25 16L25 15L24 15L24 14L26 14L26 16L27 16L27 13L26 13L26 12L28 12L28 13L30 13L30 14L31 14L31 16L33 16L33 15L35 15L35 14L37 14L37 13L35 13L35 12L34 12L34 14L33 14L33 10L34 10L34 11L35 11L35 10L36 10L36 12L38 12L38 10L37 10L37 8L39 8L39 7L40 7L40 8L42 8L42 6L41 6L41 7L40 7L40 5L36 5L36 4L34 4L34 5L33 5L33 3L32 3L32 4L31 4L31 5L32 5L32 6L31 6L31 9L32 9L32 10L28 10L28 11L27 11L27 10L26 10L26 11L25 11L25 13L24 13L24 12L23 12L23 11L19 11L19 10L18 10L18 9L17 9L17 7L16 7L16 6L15 6L15 5L14 5L14 4L12 4L12 3ZM24 4L24 6L23 6L23 7L24 7L24 8L23 8L23 9L24 9L24 8L25 8L25 9L26 9L26 6L25 6L25 5L26 5L26 4ZM27 5L27 8L30 8L30 5ZM14 6L14 7L15 7L15 6ZM19 6L19 7L20 7L20 6ZM24 6L24 7L25 7L25 6ZM28 6L28 7L29 7L29 6ZM32 6L32 8L33 8L33 6ZM34 6L34 9L36 9L36 8L37 8L37 6L36 6L36 7L35 7L35 6ZM38 6L38 7L39 7L39 6ZM6 8L6 9L7 9L7 10L4 10L4 11L7 11L7 10L8 10L8 12L9 12L9 10L8 10L8 9L9 9L9 8L8 8L8 9L7 9L7 8ZM11 8L11 10L12 10L12 8ZM15 8L15 11L16 11L16 8ZM56 8L56 9L57 9L57 8ZM17 10L17 12L16 12L16 13L17 13L17 12L18 12L18 13L19 13L19 14L18 14L18 15L19 15L19 14L20 14L20 15L21 15L21 13L20 13L20 12L18 12L18 10ZM49 10L49 11L50 11L50 10ZM51 10L51 12L50 12L50 13L51 13L51 15L52 15L52 17L53 17L53 18L54 18L54 17L55 17L55 16L54 16L54 17L53 17L53 14L54 14L54 13L53 13L53 10ZM55 10L55 12L56 12L56 13L57 13L57 10ZM1 11L1 12L2 12L2 11ZM12 11L12 13L11 13L11 15L12 15L12 14L14 14L14 13L13 13L13 11ZM30 11L30 12L31 12L31 14L32 14L32 15L33 15L33 14L32 14L32 11ZM22 12L22 13L23 13L23 12ZM51 12L51 13L52 13L52 14L53 14L53 13L52 13L52 12ZM2 13L2 14L3 14L3 15L4 15L4 17L5 17L5 18L3 18L3 19L6 19L6 20L8 20L8 19L6 19L6 18L7 18L7 17L6 17L6 16L7 16L7 15L5 15L5 14L4 14L4 13ZM16 14L16 15L17 15L17 14ZM28 15L28 16L29 16L29 15ZM2 16L2 17L3 17L3 16ZM19 16L19 17L21 17L21 18L22 18L22 17L21 17L21 16ZM26 17L26 18L27 18L27 20L26 20L26 21L27 21L27 20L28 20L28 18L29 18L29 17ZM36 17L36 18L37 18L37 17ZM42 18L42 19L43 19L43 18ZM44 18L44 19L45 19L45 18ZM10 19L10 20L9 20L9 21L12 21L12 20L11 20L11 19ZM6 21L6 22L5 22L5 23L6 23L6 24L7 24L7 23L8 23L8 24L9 24L9 23L8 23L8 21ZM6 22L6 23L7 23L7 22ZM26 23L26 24L27 24L27 23ZM32 24L32 25L33 25L33 24ZM55 24L55 26L56 26L56 24ZM9 25L9 29L10 29L10 28L11 28L11 30L9 30L9 32L8 32L8 35L9 35L9 32L12 32L12 34L13 34L13 32L12 32L12 28L11 28L11 27L10 27L10 26L12 26L12 25ZM30 25L30 26L31 26L31 25ZM42 25L42 26L43 26L43 25ZM5 27L5 30L8 30L8 27ZM27 27L27 30L30 30L30 27ZM31 27L31 28L33 28L33 27ZM47 27L47 29L48 29L48 27ZM49 27L49 30L52 30L52 27ZM6 28L6 29L7 29L7 28ZM28 28L28 29L29 29L29 28ZM50 28L50 29L51 29L51 28ZM53 28L53 29L54 29L54 28ZM15 29L15 30L16 30L16 29ZM21 29L21 30L20 30L20 32L19 32L19 34L20 34L20 32L21 32L21 35L19 35L19 36L18 36L18 38L15 38L15 39L13 39L13 38L10 38L10 37L9 37L9 38L8 38L8 40L6 40L6 41L7 41L7 42L6 42L6 43L5 43L5 45L4 45L4 46L5 46L5 45L8 45L8 44L9 44L9 42L8 42L8 40L12 40L12 39L13 39L13 40L14 40L14 41L15 41L15 42L18 42L18 43L19 43L19 44L21 44L21 46L20 46L20 45L17 45L17 46L19 46L19 47L18 47L18 48L17 48L17 49L19 49L19 47L21 47L21 48L23 48L23 49L22 49L22 50L21 50L21 51L23 51L23 49L24 49L24 48L23 48L23 47L25 47L25 45L26 45L26 43L25 43L25 42L29 42L29 41L30 41L30 40L28 40L28 39L30 39L30 38L32 38L32 39L33 39L33 38L32 38L32 36L29 36L29 35L28 35L28 34L27 34L27 35L26 35L26 34L25 34L25 35L26 35L26 37L27 37L27 36L29 36L29 38L25 38L25 39L24 39L24 37L25 37L25 36L23 36L23 35L22 35L22 33L23 33L23 31L24 31L24 29ZM55 29L55 30L56 30L56 29ZM21 30L21 32L22 32L22 31L23 31L23 30ZM38 30L38 31L39 31L39 30ZM47 30L47 33L46 33L46 31L44 31L44 34L45 34L45 36L44 36L44 37L41 37L41 36L42 36L42 34L41 34L41 35L39 35L39 36L38 36L38 35L37 35L37 36L38 36L38 37L39 37L39 36L40 36L40 37L41 37L41 38L44 38L44 39L43 39L43 40L44 40L44 39L45 39L45 41L46 41L46 38L49 38L49 39L47 39L47 40L49 40L49 39L51 39L51 40L50 40L50 41L47 41L47 42L50 42L50 43L49 43L49 44L50 44L50 45L51 45L51 42L50 42L50 41L52 41L52 40L53 40L53 39L54 39L54 38L53 38L53 36L52 36L52 35L51 35L51 36L52 36L52 38L49 38L49 37L50 37L50 36L49 36L49 37L48 37L48 36L47 36L47 35L46 35L46 34L48 34L48 35L49 35L49 34L50 34L50 33L49 33L49 32L51 32L51 31L49 31L49 32L48 32L48 30ZM52 31L52 34L54 34L54 32L55 32L55 31ZM15 32L15 33L14 33L14 34L16 34L16 35L17 35L17 33L16 33L16 32ZM27 32L27 33L28 33L28 32ZM42 32L42 33L43 33L43 32ZM10 33L10 34L11 34L11 33ZM21 35L21 36L19 36L19 37L20 37L20 38L21 38L21 39L22 39L22 38L23 38L23 36L22 36L22 35ZM54 35L54 36L55 36L55 37L56 37L56 35ZM21 37L21 38L22 38L22 37ZM45 37L45 38L46 38L46 37ZM6 38L6 39L7 39L7 38ZM9 38L9 39L10 39L10 38ZM18 38L18 41L19 41L19 42L21 42L21 44L22 44L22 46L21 46L21 47L22 47L22 46L23 46L23 45L24 45L24 44L22 44L22 41L24 41L24 42L25 42L25 41L26 41L26 40L27 40L27 39L25 39L25 41L24 41L24 39L23 39L23 40L22 40L22 41L20 41L20 40L19 40L19 38ZM52 38L52 39L53 39L53 38ZM16 39L16 41L17 41L17 39ZM40 41L40 42L42 42L42 41ZM7 42L7 43L6 43L6 44L7 44L7 43L8 43L8 42ZM37 42L37 44L38 44L38 45L37 45L37 47L38 47L38 45L39 45L39 46L40 46L40 47L43 47L43 49L44 49L44 47L45 47L45 45L42 45L42 43L41 43L41 44L38 44L38 43L39 43L39 42ZM35 44L35 45L36 45L36 44ZM34 46L34 49L32 49L32 50L33 50L33 51L34 51L34 49L35 49L35 52L36 52L36 51L39 51L39 50L40 50L40 49L39 49L39 48L38 48L38 49L37 49L37 48L35 48L35 47L36 47L36 46ZM48 46L48 47L49 47L49 48L50 48L50 46ZM41 48L41 49L42 49L42 48ZM56 48L56 49L57 49L57 48ZM12 49L12 50L13 50L13 51L14 51L14 49ZM27 49L27 52L30 52L30 49ZM36 49L36 50L37 50L37 49ZM49 49L49 52L52 52L52 49ZM28 50L28 51L29 51L29 50ZM50 50L50 51L51 51L51 50ZM40 51L40 52L41 52L41 51ZM46 51L46 52L47 52L47 51ZM17 53L17 54L18 54L18 53ZM20 53L20 55L19 55L19 56L20 56L20 55L22 55L22 56L24 56L24 55L25 55L25 54L23 54L23 55L22 55L22 54L21 54L21 53ZM38 53L38 54L39 54L39 53ZM42 53L42 54L43 54L43 53ZM48 53L48 54L50 54L50 53ZM9 54L9 55L10 55L10 54ZM44 54L44 55L45 55L45 54ZM46 54L46 55L47 55L47 54ZM14 55L14 56L15 56L15 55ZM39 55L39 56L42 56L42 55ZM48 55L48 56L49 56L49 55ZM56 55L56 56L57 56L57 55ZM0 0L0 7L7 7L7 0ZM1 1L1 6L6 6L6 1ZM2 2L2 5L5 5L5 2ZM50 0L50 7L57 7L57 0ZM51 1L51 6L56 6L56 1ZM52 2L52 5L55 5L55 2ZM0 50L0 57L7 57L7 50ZM1 51L1 56L6 56L6 51ZM2 52L2 55L5 55L5 52Z" fill="#000000"/></g></g></svg>
