<?xml version="1.0" encoding="UTF-8"?>
<svg xmlns="http://www.w3.org/2000/svg" version="1.1" width="300" height="300" viewBox="0 0 300 300"><rect x="0" y="0" width="300" height="300" fill="#fefefe"/><g transform="scale(4.615)"><g transform="translate(4,4)"><path fill-rule="evenodd" d="M8 0L8 2L9 2L9 4L8 4L8 10L6 10L6 11L4 11L4 10L5 10L5 9L7 9L7 8L5 8L5 9L3 9L3 8L0 8L0 10L1 10L1 11L0 11L0 13L1 13L1 11L2 11L2 14L3 14L3 16L2 16L2 15L1 15L1 16L0 16L0 18L2 18L2 17L4 17L4 14L6 14L6 15L5 15L5 16L6 16L6 17L5 17L5 18L3 18L3 19L2 19L2 20L1 20L1 19L0 19L0 20L1 20L1 21L0 21L0 25L3 25L3 26L1 26L1 29L2 29L2 31L0 31L0 32L1 32L1 33L3 33L3 34L1 34L1 35L0 35L0 36L1 36L1 37L2 37L2 38L3 38L3 39L1 39L1 38L0 38L0 39L1 39L1 40L0 40L0 41L1 41L1 43L0 43L0 44L3 44L3 43L4 43L4 44L5 44L5 43L8 43L8 44L9 44L9 43L10 43L10 45L11 45L11 46L13 46L13 45L14 45L14 44L16 44L16 45L15 45L15 46L14 46L14 47L15 47L15 46L16 46L16 47L17 47L17 46L18 46L18 49L17 49L17 48L16 48L16 49L15 49L15 48L13 48L13 47L12 47L12 48L13 48L13 49L14 49L14 50L13 50L13 51L12 51L12 52L14 52L14 53L15 53L15 57L17 57L17 55L18 55L18 53L19 53L19 52L20 52L20 53L21 53L21 52L22 52L22 53L23 53L23 56L22 56L22 55L21 55L21 54L20 54L20 55L21 55L21 56L20 56L20 57L21 57L21 56L22 56L22 57L23 57L23 56L24 56L24 57L25 57L25 55L26 55L26 57L28 57L28 55L29 55L29 57L33 57L33 55L34 55L34 57L35 57L35 55L37 55L37 54L38 54L38 53L39 53L39 55L40 55L40 57L42 57L42 56L44 56L44 57L46 57L46 56L47 56L47 57L50 57L50 55L49 55L49 54L52 54L52 55L53 55L53 53L54 53L54 55L57 55L57 54L55 54L55 52L54 52L54 51L53 51L53 50L54 50L54 49L56 49L56 51L57 51L57 49L56 49L56 47L57 47L57 42L56 42L56 44L55 44L55 45L56 45L56 47L55 47L55 48L54 48L54 45L53 45L53 47L52 47L52 40L51 40L51 39L52 39L52 37L53 37L53 36L54 36L54 38L53 38L53 40L54 40L54 41L53 41L53 44L54 44L54 43L55 43L55 42L54 42L54 41L57 41L57 40L54 40L54 38L57 38L57 37L55 37L55 36L54 36L54 34L53 34L53 36L52 36L52 37L51 37L51 38L50 38L50 36L51 36L51 33L50 33L50 32L49 32L49 31L52 31L52 32L54 32L54 33L56 33L56 35L57 35L57 33L56 33L56 31L57 31L57 29L55 29L55 30L56 30L56 31L55 31L55 32L54 32L54 29L53 29L53 28L54 28L54 27L55 27L55 28L56 28L56 27L57 27L57 24L56 24L56 23L57 23L57 21L56 21L56 20L55 20L55 21L54 21L54 19L55 19L55 16L56 16L56 17L57 17L57 10L56 10L56 11L55 11L55 9L57 9L57 8L55 8L55 9L54 9L54 10L53 10L53 8L49 8L49 10L48 10L48 12L47 12L47 11L46 11L46 13L45 13L45 12L44 12L44 9L45 9L45 8L46 8L46 7L47 7L47 8L48 8L48 7L49 7L49 6L48 6L48 7L47 7L47 5L48 5L48 0L42 0L42 1L41 1L41 0L38 0L38 2L37 2L37 1L35 1L35 0L34 0L34 2L33 2L33 3L34 3L34 8L32 8L32 9L31 9L31 5L32 5L32 1L33 1L33 0L30 0L30 2L29 2L29 3L30 3L30 4L28 4L28 3L27 3L27 0L24 0L24 1L23 1L23 0L20 0L20 1L18 1L18 3L17 3L17 2L16 2L16 3L15 3L15 1L14 1L14 0L11 0L11 1L14 1L14 3L12 3L12 2L11 2L11 3L10 3L10 0ZM16 0L16 1L17 1L17 0ZM22 1L22 2L23 2L23 1ZM24 1L24 4L25 4L25 1ZM39 1L39 2L40 2L40 4L39 4L39 3L38 3L38 4L37 4L37 2L34 2L34 3L36 3L36 4L35 4L35 9L34 9L34 10L33 10L33 9L32 9L32 11L34 11L34 12L35 12L35 13L34 13L34 15L33 15L33 13L32 13L32 12L30 12L30 11L31 11L31 9L30 9L30 11L29 11L29 10L28 10L28 9L27 9L27 10L25 10L25 9L26 9L26 5L24 5L24 6L23 6L23 3L22 3L22 6L21 6L21 7L22 7L22 6L23 6L23 9L22 9L22 8L21 8L21 9L20 9L20 10L19 10L19 9L18 9L18 6L17 6L17 5L16 5L16 6L15 6L15 8L16 8L16 11L15 11L15 9L14 9L14 5L13 5L13 7L12 7L12 6L11 6L11 8L12 8L12 9L11 9L11 10L13 10L13 11L12 11L12 12L8 12L8 11L6 11L6 12L7 12L7 13L6 13L6 14L7 14L7 15L6 15L6 16L8 16L8 17L6 17L6 18L5 18L5 20L8 20L8 21L9 21L9 22L7 22L7 21L5 21L5 22L7 22L7 23L6 23L6 24L4 24L4 22L3 22L3 21L4 21L4 19L3 19L3 21L1 21L1 22L2 22L2 23L1 23L1 24L2 24L2 23L3 23L3 25L6 25L6 26L8 26L8 25L6 25L6 24L7 24L7 23L9 23L9 25L10 25L10 26L9 26L9 27L10 27L10 28L9 28L9 29L11 29L11 30L9 30L9 31L11 31L11 30L12 30L12 29L13 29L13 28L14 28L14 29L15 29L15 30L17 30L17 31L16 31L16 32L14 32L14 30L13 30L13 32L14 32L14 33L16 33L16 34L15 34L15 35L16 35L16 36L14 36L14 35L10 35L10 34L11 34L11 33L12 33L12 32L10 32L10 34L9 34L9 35L10 35L10 36L11 36L11 37L9 37L9 36L8 36L8 37L6 37L6 36L7 36L7 35L8 35L8 34L7 34L7 33L9 33L9 32L7 32L7 31L6 31L6 32L3 32L3 33L4 33L4 34L7 34L7 35L6 35L6 36L5 36L5 35L3 35L3 38L4 38L4 37L5 37L5 38L8 38L8 37L9 37L9 39L6 39L6 40L5 40L5 39L3 39L3 40L1 40L1 41L3 41L3 42L4 42L4 41L5 41L5 42L7 42L7 41L8 41L8 40L9 40L9 41L10 41L10 42L13 42L13 44L12 44L12 45L13 45L13 44L14 44L14 43L16 43L16 42L17 42L17 41L18 41L18 40L19 40L19 39L18 39L18 38L19 38L19 37L18 37L18 36L19 36L19 35L17 35L17 33L16 33L16 32L20 32L20 34L23 34L23 33L22 33L22 30L23 30L23 31L24 31L24 34L26 34L26 36L25 36L25 35L22 35L22 36L21 36L21 38L20 38L20 39L22 39L22 36L23 36L23 40L24 40L24 43L23 43L23 41L22 41L22 40L21 40L21 41L20 41L20 42L21 42L21 43L20 43L20 46L22 46L22 48L20 48L20 47L19 47L19 48L20 48L20 51L22 51L22 52L24 52L24 51L25 51L25 54L24 54L24 55L25 55L25 54L26 54L26 55L28 55L28 53L27 53L27 54L26 54L26 50L25 50L25 49L26 49L26 48L27 48L27 46L26 46L26 45L24 45L24 46L26 46L26 47L25 47L25 48L24 48L24 47L23 47L23 44L24 44L24 43L25 43L25 42L26 42L26 41L25 41L25 40L27 40L27 41L28 41L28 42L27 42L27 43L28 43L28 42L29 42L29 43L30 43L30 45L28 45L28 48L31 48L31 47L33 47L33 48L34 48L34 50L35 50L35 51L37 51L37 49L36 49L36 48L37 48L37 47L38 47L38 52L37 52L37 53L36 53L36 52L35 52L35 53L34 53L34 52L33 52L33 53L34 53L34 54L35 54L35 53L36 53L36 54L37 54L37 53L38 53L38 52L39 52L39 53L40 53L40 52L39 52L39 49L40 49L40 51L41 51L41 49L42 49L42 50L43 50L43 51L44 51L44 48L45 48L45 49L46 49L46 50L45 50L45 51L46 51L46 50L47 50L47 47L48 47L48 45L47 45L47 44L48 44L48 43L49 43L49 48L51 48L51 47L50 47L50 42L49 42L49 41L51 41L51 40L48 40L48 38L47 38L47 37L46 37L46 36L48 36L48 35L49 35L49 36L50 36L50 33L49 33L49 34L48 34L48 33L47 33L47 30L48 30L48 27L47 27L47 28L46 28L46 29L44 29L44 30L43 30L43 28L42 28L42 31L41 31L41 29L40 29L40 28L41 28L41 27L40 27L40 26L41 26L41 25L40 25L40 24L39 24L39 23L41 23L41 24L42 24L42 27L44 27L44 26L45 26L45 25L46 25L46 26L47 26L47 25L48 25L48 26L49 26L49 24L50 24L50 26L51 26L51 25L52 25L52 26L53 26L53 25L54 25L54 26L55 26L55 25L56 25L56 24L55 24L55 23L56 23L56 21L55 21L55 22L54 22L54 24L53 24L53 22L52 22L52 20L53 20L53 19L54 19L54 16L55 16L55 15L56 15L56 13L55 13L55 11L54 11L54 12L53 12L53 14L52 14L52 13L50 13L50 11L51 11L51 12L52 12L52 11L51 11L51 9L50 9L50 10L49 10L49 12L48 12L48 14L47 14L47 13L46 13L46 15L44 15L44 16L43 16L43 13L44 13L44 12L42 12L42 10L43 10L43 9L44 9L44 8L45 8L45 7L46 7L46 6L45 6L45 5L44 5L44 4L45 4L45 2L47 2L47 1L42 1L42 3L41 3L41 2L40 2L40 1ZM30 2L30 3L31 3L31 2ZM43 2L43 3L42 3L42 5L41 5L41 6L40 6L40 7L39 7L39 6L38 6L38 5L39 5L39 4L38 4L38 5L37 5L37 6L36 6L36 10L34 10L34 11L35 11L35 12L36 12L36 13L35 13L35 14L36 14L36 13L37 13L37 15L36 15L36 18L34 18L34 17L35 17L35 15L34 15L34 17L33 17L33 16L32 16L32 13L31 13L31 16L30 16L30 15L29 15L29 13L30 13L30 12L29 12L29 11L28 11L28 10L27 10L27 11L28 11L28 12L27 12L27 14L28 14L28 15L29 15L29 16L30 16L30 17L28 17L28 18L30 18L30 17L31 17L31 20L30 20L30 19L28 19L28 21L29 21L29 22L28 22L28 23L29 23L29 22L30 22L30 24L31 24L31 23L32 23L32 25L31 25L31 26L30 26L30 25L29 25L29 24L28 24L28 26L26 26L26 25L27 25L27 23L26 23L26 22L27 22L27 20L26 20L26 18L24 18L24 16L26 16L26 17L27 17L27 16L26 16L26 11L25 11L25 10L24 10L24 9L25 9L25 8L24 8L24 9L23 9L23 10L24 10L24 13L23 13L23 14L24 14L24 15L23 15L23 16L22 16L22 14L21 14L21 18L20 18L20 16L19 16L19 15L18 15L18 13L19 13L19 14L20 14L20 13L21 13L21 10L22 10L22 9L21 9L21 10L20 10L20 13L19 13L19 12L18 12L18 11L19 11L19 10L18 10L18 9L17 9L17 14L15 14L15 15L14 15L14 16L13 16L13 15L12 15L12 14L11 14L11 13L10 13L10 14L9 14L9 13L7 13L7 14L8 14L8 15L9 15L9 17L8 17L8 19L10 19L10 20L9 20L9 21L10 21L10 20L13 20L13 21L11 21L11 23L15 23L15 24L13 24L13 26L12 26L12 27L11 27L11 26L10 26L10 27L11 27L11 28L13 28L13 27L14 27L14 25L15 25L15 26L16 26L16 25L17 25L17 23L16 23L16 22L18 22L18 23L19 23L19 20L18 20L18 19L16 19L16 18L15 18L15 15L18 15L18 18L20 18L20 19L21 19L21 18L23 18L23 20L22 20L22 21L21 21L21 20L20 20L20 21L21 21L21 22L20 22L20 23L21 23L21 24L22 24L22 25L21 25L21 30L22 30L22 29L23 29L23 30L24 30L24 29L25 29L25 30L26 30L26 32L28 32L28 31L29 31L29 34L28 34L28 33L27 33L27 34L28 34L28 35L27 35L27 36L26 36L26 37L27 37L27 36L28 36L28 37L29 37L29 36L28 36L28 35L31 35L31 36L30 36L30 41L31 41L31 38L33 38L33 39L34 39L34 41L33 41L33 40L32 40L32 43L31 43L31 42L30 42L30 43L31 43L31 44L32 44L32 45L31 45L31 46L30 46L30 47L31 47L31 46L32 46L32 45L33 45L33 47L34 47L34 48L35 48L35 47L36 47L36 46L38 46L38 45L37 45L37 44L39 44L39 43L37 43L37 44L36 44L36 46L35 46L35 47L34 47L34 45L33 45L33 44L35 44L35 43L36 43L36 41L37 41L37 42L38 42L38 41L39 41L39 42L40 42L40 41L41 41L41 43L40 43L40 46L41 46L41 47L40 47L40 49L41 49L41 47L42 47L42 45L43 45L43 44L42 44L42 45L41 45L41 43L45 43L45 44L44 44L44 46L43 46L43 47L45 47L45 48L46 48L46 44L47 44L47 43L45 43L45 42L46 42L46 41L48 41L48 40L47 40L47 38L46 38L46 37L45 37L45 36L46 36L46 35L48 35L48 34L46 34L46 33L45 33L45 31L46 31L46 30L44 30L44 31L42 31L42 33L41 33L41 32L40 32L40 31L38 31L38 30L37 30L37 28L38 28L38 29L39 29L39 30L40 30L40 29L39 29L39 28L40 28L40 27L39 27L39 26L40 26L40 25L39 25L39 26L38 26L38 25L37 25L37 24L36 24L36 23L39 23L39 22L38 22L38 20L39 20L39 19L40 19L40 22L41 22L41 23L43 23L43 24L44 24L44 25L45 25L45 24L44 24L44 23L45 23L45 22L44 22L44 21L45 21L45 20L46 20L46 21L47 21L47 22L48 22L48 21L49 21L49 20L51 20L51 19L52 19L52 18L53 18L53 16L54 16L54 15L52 15L52 14L51 14L51 15L50 15L50 13L49 13L49 14L48 14L48 15L46 15L46 17L45 17L45 16L44 16L44 17L43 17L43 18L42 18L42 17L41 17L41 15L42 15L42 12L41 12L41 11L40 11L40 10L42 10L42 9L43 9L43 8L44 8L44 7L45 7L45 6L44 6L44 5L43 5L43 4L44 4L44 2ZM11 3L11 4L12 4L12 3ZM14 3L14 4L15 4L15 3ZM16 3L16 4L17 4L17 3ZM18 3L18 5L19 5L19 7L20 7L20 5L21 5L21 3ZM26 3L26 4L27 4L27 3ZM46 3L46 5L47 5L47 3ZM9 4L9 8L10 8L10 4ZM27 5L27 8L30 8L30 5ZM42 5L42 6L41 6L41 7L40 7L40 8L38 8L38 6L37 6L37 8L38 8L38 10L40 10L40 8L41 8L41 7L42 7L42 8L43 8L43 7L44 7L44 6L43 6L43 5ZM16 6L16 7L17 7L17 6ZM24 6L24 7L25 7L25 6ZM28 6L28 7L29 7L29 6ZM32 6L32 7L33 7L33 6ZM42 6L42 7L43 7L43 6ZM1 9L1 10L2 10L2 11L3 11L3 13L5 13L5 12L4 12L4 11L3 11L3 10L2 10L2 9ZM14 11L14 12L15 12L15 11ZM22 11L22 12L23 12L23 11ZM36 11L36 12L37 12L37 13L38 13L38 15L37 15L37 16L38 16L38 18L40 18L40 19L41 19L41 18L40 18L40 15L41 15L41 13L40 13L40 15L39 15L39 12L37 12L37 11ZM12 12L12 13L13 13L13 12ZM24 13L24 14L25 14L25 13ZM11 15L11 17L9 17L9 18L11 18L11 17L12 17L12 19L13 19L13 16L12 16L12 15ZM51 15L51 17L50 17L50 16L48 16L48 18L49 18L49 17L50 17L50 18L52 18L52 15ZM31 16L31 17L32 17L32 19L33 19L33 17L32 17L32 16ZM44 17L44 19L42 19L42 20L41 20L41 21L42 21L42 22L43 22L43 23L44 23L44 22L43 22L43 21L44 21L44 19L46 19L46 20L47 20L47 21L48 21L48 20L49 20L49 19L48 19L48 20L47 20L47 19L46 19L46 18L47 18L47 17L46 17L46 18L45 18L45 17ZM6 18L6 19L7 19L7 18ZM36 18L36 19L37 19L37 20L38 20L38 19L37 19L37 18ZM56 18L56 19L57 19L57 18ZM14 19L14 20L16 20L16 19ZM24 19L24 20L25 20L25 21L26 21L26 20L25 20L25 19ZM17 20L17 21L18 21L18 20ZM31 20L31 21L30 21L30 22L33 22L33 24L34 24L34 26L33 26L33 25L32 25L32 28L31 28L31 29L32 29L32 32L30 32L30 34L31 34L31 35L32 35L32 34L33 34L33 33L32 33L32 32L33 32L33 29L34 29L34 31L35 31L35 32L34 32L34 35L33 35L33 37L34 37L34 39L35 39L35 41L34 41L34 42L35 42L35 41L36 41L36 38L37 38L37 41L38 41L38 38L39 38L39 41L40 41L40 40L42 40L42 42L43 42L43 40L42 40L42 39L43 39L43 38L44 38L44 34L45 34L45 35L46 35L46 34L45 34L45 33L44 33L44 34L43 34L43 33L42 33L42 34L40 34L40 32L39 32L39 33L38 33L38 34L37 34L37 33L36 33L36 31L37 31L37 32L38 32L38 31L37 31L37 30L36 30L36 27L37 27L37 26L36 26L36 24L34 24L34 22L35 22L35 23L36 23L36 22L37 22L37 21L36 21L36 20L35 20L35 21L34 21L34 22L33 22L33 21L32 21L32 20ZM14 21L14 22L15 22L15 21ZM35 21L35 22L36 22L36 21ZM24 22L24 23L25 23L25 22ZM49 22L49 23L47 23L47 24L49 24L49 23L50 23L50 24L52 24L52 25L53 25L53 24L52 24L52 22L51 22L51 23L50 23L50 22ZM22 23L22 24L23 24L23 25L24 25L24 26L23 26L23 27L22 27L22 28L23 28L23 27L24 27L24 26L25 26L25 25L24 25L24 24L23 24L23 23ZM10 24L10 25L12 25L12 24ZM15 24L15 25L16 25L16 24ZM18 24L18 25L19 25L19 27L18 27L18 28L20 28L20 24ZM2 27L2 28L3 28L3 29L4 29L4 28L3 28L3 27ZM5 27L5 30L8 30L8 27ZM15 27L15 28L16 28L16 27ZM27 27L27 30L30 30L30 27ZM34 27L34 29L35 29L35 27ZM49 27L49 30L52 30L52 27ZM6 28L6 29L7 29L7 28ZM28 28L28 29L29 29L29 28ZM32 28L32 29L33 29L33 28ZM50 28L50 29L51 29L51 28ZM20 31L20 32L21 32L21 31ZM6 32L6 33L7 33L7 32ZM31 33L31 34L32 34L32 33ZM35 33L35 35L34 35L34 37L35 37L35 38L36 38L36 37L37 37L37 38L38 38L38 37L39 37L39 38L40 38L40 39L42 39L42 36L43 36L43 35L42 35L42 36L41 36L41 35L40 35L40 36L38 36L38 35L39 35L39 34L38 34L38 35L36 35L36 33ZM1 35L1 36L2 36L2 35ZM35 35L35 37L36 37L36 35ZM12 36L12 37L11 37L11 38L12 38L12 39L10 39L10 41L11 41L11 40L12 40L12 41L13 41L13 42L14 42L14 41L15 41L15 42L16 42L16 41L17 41L17 40L18 40L18 39L17 39L17 38L18 38L18 37L17 37L17 36L16 36L16 37L17 37L17 38L16 38L16 39L17 39L17 40L15 40L15 39L14 39L14 37L13 37L13 36ZM24 36L24 37L25 37L25 36ZM31 36L31 37L32 37L32 36ZM12 37L12 38L13 38L13 37ZM24 38L24 39L25 39L25 38ZM28 38L28 39L29 39L29 38ZM12 39L12 40L14 40L14 39ZM6 40L6 41L7 41L7 40ZM28 40L28 41L29 41L29 40ZM45 40L45 41L44 41L44 42L45 42L45 41L46 41L46 40ZM8 42L8 43L9 43L9 42ZM18 43L18 44L19 44L19 43ZM22 43L22 44L23 44L23 43ZM6 44L6 45L3 45L3 46L2 46L2 45L0 45L0 48L5 48L5 47L7 47L7 48L6 48L6 49L8 49L8 50L9 50L9 49L8 49L8 47L9 47L9 48L10 48L10 46L8 46L8 45L7 45L7 44ZM6 45L6 46L7 46L7 47L8 47L8 46L7 46L7 45ZM16 45L16 46L17 46L17 45ZM18 45L18 46L19 46L19 45ZM1 46L1 47L2 47L2 46ZM3 46L3 47L5 47L5 46ZM22 48L22 51L24 51L24 49L23 49L23 48ZM10 49L10 54L8 54L8 57L9 57L9 55L11 55L11 49ZM16 49L16 50L14 50L14 51L15 51L15 52L17 52L17 53L18 53L18 51L16 51L16 50L17 50L17 49ZM18 49L18 50L19 50L19 49ZM27 49L27 52L30 52L30 49ZM31 49L31 50L32 50L32 51L31 51L31 52L32 52L32 51L33 51L33 50L32 50L32 49ZM49 49L49 52L52 52L52 49ZM28 50L28 51L29 51L29 50ZM50 50L50 51L51 51L51 50ZM8 51L8 52L9 52L9 51ZM47 51L47 52L46 52L46 53L45 53L45 55L44 55L44 52L43 52L43 53L42 53L42 52L41 52L41 53L42 53L42 54L43 54L43 55L44 55L44 56L46 56L46 55L48 55L48 54L49 54L49 53L47 53L47 52L48 52L48 51ZM56 52L56 53L57 53L57 52ZM12 53L12 54L13 54L13 55L12 55L12 56L11 56L11 57L12 57L12 56L14 56L14 54L13 54L13 53ZM31 53L31 54L30 54L30 55L33 55L33 54L32 54L32 53ZM16 54L16 55L17 55L17 54ZM40 54L40 55L41 55L41 54ZM18 56L18 57L19 57L19 56ZM36 56L36 57L37 57L37 56ZM51 56L51 57L53 57L53 56ZM56 56L56 57L57 57L57 56ZM0 0L0 7L7 7L7 0ZM1 1L1 6L6 6L6 1ZM2 2L2 5L5 5L5 2ZM50 0L50 7L57 7L57 0ZM51 1L51 6L56 6L56 1ZM52 2L52 5L55 5L55 2ZM0 50L0 57L7 57L7 50ZM1 51L1 56L6 56L6 51ZM2 52L2 55L5 55L5 52Z" fill="#000000"/></g></g></svg>
