<?xml version="1.0" encoding="UTF-8"?>
<svg xmlns="http://www.w3.org/2000/svg" version="1.1" width="300" height="300" viewBox="0 0 300 300"><rect x="0" y="0" width="300" height="300" fill="#fefefe"/><g transform="scale(4.615)"><g transform="translate(4,4)"><path fill-rule="evenodd" d="M8 0L8 4L9 4L9 5L8 5L8 7L9 7L9 6L10 6L10 8L9 8L9 9L10 9L10 10L11 10L11 11L12 11L12 12L13 12L13 11L14 11L14 12L15 12L15 13L11 13L11 14L12 14L12 16L14 16L14 17L12 17L12 18L11 18L11 17L10 17L10 18L9 18L9 19L8 19L8 17L9 17L9 15L10 15L10 16L11 16L11 15L10 15L10 12L9 12L9 11L8 11L8 10L6 10L6 11L5 11L5 9L7 9L7 8L4 8L4 10L3 10L3 9L2 9L2 8L0 8L0 9L1 9L1 10L0 10L0 11L1 11L1 10L2 10L2 12L3 12L3 13L1 13L1 12L0 12L0 14L2 14L2 16L3 16L3 17L1 17L1 16L0 16L0 21L1 21L1 22L0 22L0 25L2 25L2 27L3 27L3 28L4 28L4 29L3 29L3 30L1 30L1 31L3 31L3 35L2 35L2 36L1 36L1 35L0 35L0 38L1 38L1 39L0 39L0 40L1 40L1 41L2 41L2 42L4 42L4 43L1 43L1 42L0 42L0 44L1 44L1 45L3 45L3 46L2 46L2 47L1 47L1 46L0 46L0 48L5 48L5 47L7 47L7 48L6 48L6 49L7 49L7 48L8 48L8 50L13 50L13 52L14 52L14 53L15 53L15 54L14 54L14 56L13 56L13 53L12 53L12 51L10 51L10 52L11 52L11 53L10 53L10 55L8 55L8 57L11 57L11 56L10 56L10 55L12 55L12 57L14 57L14 56L15 56L15 57L16 57L16 56L15 56L15 55L16 55L16 54L17 54L17 55L20 55L20 54L21 54L21 57L22 57L22 54L21 54L21 53L22 53L22 52L24 52L24 53L23 53L23 55L24 55L24 57L25 57L25 54L26 54L26 57L27 57L27 54L26 54L26 53L28 53L28 57L29 57L29 55L30 55L30 57L34 57L34 55L35 55L35 57L37 57L37 56L36 56L36 54L37 54L37 53L38 53L38 55L40 55L40 56L39 56L39 57L40 57L40 56L41 56L41 57L43 57L43 55L44 55L44 53L45 53L45 54L46 54L46 55L45 55L45 56L44 56L44 57L45 57L45 56L46 56L46 57L50 57L50 55L51 55L51 56L53 56L53 57L54 57L54 55L53 55L53 50L54 50L54 51L56 51L56 50L57 50L57 49L56 49L56 45L57 45L57 44L56 44L56 45L54 45L54 44L53 44L53 43L54 43L54 42L55 42L55 43L56 43L56 41L57 41L57 40L53 40L53 39L54 39L54 38L55 38L55 39L57 39L57 38L55 38L55 36L56 36L56 37L57 37L57 36L56 36L56 34L55 34L55 33L56 33L56 30L55 30L55 29L56 29L56 28L55 28L55 29L54 29L54 28L53 28L53 27L54 27L54 26L55 26L55 27L56 27L56 25L57 25L57 24L56 24L56 20L55 20L55 22L53 22L53 21L52 21L52 20L53 20L53 19L52 19L52 16L51 16L51 15L52 15L52 14L53 14L53 15L54 15L54 14L53 14L53 13L54 13L54 12L53 12L53 13L52 13L52 14L51 14L51 12L52 12L52 11L51 11L51 9L52 9L52 10L53 10L53 11L54 11L54 10L53 10L53 9L56 9L56 10L55 10L55 16L56 16L56 17L55 17L55 19L56 19L56 17L57 17L57 15L56 15L56 10L57 10L57 8L53 8L53 9L52 9L52 8L51 8L51 9L50 9L50 16L49 16L49 15L48 15L48 16L47 16L47 15L46 15L46 9L47 9L47 12L49 12L49 8L47 8L47 5L48 5L48 0L41 0L41 1L40 1L40 2L38 2L38 1L39 1L39 0L38 0L38 1L37 1L37 2L36 2L36 0L35 0L35 1L34 1L34 0L32 0L32 3L30 3L30 4L29 4L29 2L28 2L28 1L30 1L30 2L31 2L31 0L23 0L23 3L22 3L22 4L23 4L23 3L25 3L25 4L24 4L24 5L23 5L23 6L22 6L22 5L21 5L21 6L20 6L20 5L19 5L19 6L18 6L18 4L17 4L17 1L18 1L18 3L19 3L19 1L18 1L18 0L17 0L17 1L16 1L16 0L15 0L15 3L16 3L16 4L17 4L17 6L16 6L16 5L15 5L15 4L14 4L14 0L13 0L13 3L12 3L12 2L11 2L11 3L12 3L12 4L13 4L13 6L12 6L12 7L11 7L11 6L10 6L10 3L9 3L9 2L10 2L10 0ZM11 0L11 1L12 1L12 0ZM20 0L20 1L21 1L21 2L20 2L20 3L21 3L21 2L22 2L22 1L21 1L21 0ZM25 1L25 3L26 3L26 4L28 4L28 3L27 3L27 1ZM33 1L33 3L32 3L32 5L33 5L33 7L32 7L32 6L31 6L31 10L30 10L30 11L32 11L32 12L29 12L29 9L28 9L28 12L27 12L27 11L26 11L26 16L25 16L25 15L23 15L23 13L24 13L24 11L23 11L23 9L24 9L24 8L25 8L25 10L27 10L27 9L26 9L26 6L25 6L25 7L24 7L24 6L23 6L23 7L22 7L22 6L21 6L21 8L22 8L22 10L21 10L21 11L22 11L22 12L23 12L23 13L21 13L21 12L20 12L20 9L19 9L19 10L18 10L18 9L15 9L15 12L17 12L17 13L15 13L15 14L17 14L17 13L18 13L18 12L20 12L20 13L19 13L19 14L20 14L20 15L17 15L17 16L16 16L16 19L15 19L15 18L12 18L12 19L14 19L14 20L15 20L15 21L17 21L17 22L16 22L16 23L15 23L15 22L14 22L14 21L11 21L11 22L14 22L14 23L13 23L13 24L11 24L11 25L10 25L10 23L8 23L8 22L9 22L9 20L8 20L8 19L4 19L4 18L5 18L5 17L6 17L6 18L7 18L7 17L6 17L6 16L8 16L8 15L9 15L9 14L7 14L7 13L8 13L8 12L7 12L7 11L6 11L6 12L4 12L4 11L3 11L3 12L4 12L4 13L3 13L3 14L4 14L4 13L6 13L6 14L5 14L5 15L6 15L6 16L5 16L5 17L3 17L3 19L4 19L4 21L3 21L3 20L1 20L1 21L2 21L2 22L3 22L3 26L7 26L7 25L6 25L6 24L7 24L7 23L8 23L8 26L9 26L9 27L11 27L11 28L9 28L9 29L12 29L12 27L13 27L13 32L12 32L12 30L9 30L9 31L6 31L6 32L8 32L8 33L10 33L10 34L11 34L11 36L10 36L10 37L9 37L9 36L8 36L8 37L9 37L9 38L10 38L10 39L6 39L6 38L7 38L7 37L6 37L6 36L7 36L7 35L9 35L9 34L7 34L7 33L6 33L6 34L4 34L4 35L5 35L5 37L6 37L6 38L5 38L5 39L3 39L3 38L4 38L4 36L3 36L3 38L2 38L2 37L1 37L1 38L2 38L2 39L3 39L3 41L4 41L4 42L5 42L5 41L4 41L4 40L5 40L5 39L6 39L6 40L7 40L7 41L6 41L6 42L7 42L7 43L6 43L6 44L5 44L5 43L4 43L4 45L5 45L5 46L3 46L3 47L5 47L5 46L8 46L8 47L9 47L9 49L11 49L11 47L14 47L14 48L16 48L16 47L15 47L15 45L13 45L13 46L12 46L12 45L11 45L11 44L10 44L10 43L12 43L12 44L13 44L13 43L16 43L16 44L17 44L17 45L16 45L16 46L17 46L17 45L18 45L18 44L20 44L20 40L19 40L19 39L20 39L20 38L22 38L22 37L23 37L23 39L22 39L22 42L21 42L21 43L22 43L22 44L24 44L24 45L25 45L25 44L24 44L24 43L23 43L23 41L25 41L25 40L27 40L27 41L26 41L26 42L25 42L25 43L27 43L27 44L28 44L28 46L27 46L27 45L26 45L26 46L24 46L24 47L23 47L23 45L21 45L21 46L20 46L20 45L19 45L19 47L20 47L20 48L19 48L19 49L21 49L21 50L20 50L20 51L21 51L21 52L22 52L22 51L21 51L21 50L22 50L22 49L23 49L23 48L24 48L24 49L25 49L25 48L24 48L24 47L26 47L26 48L29 48L29 47L30 47L30 48L31 48L31 52L32 52L32 50L33 50L33 49L34 49L34 51L33 51L33 52L34 52L34 51L35 51L35 52L36 52L36 49L34 49L34 48L33 48L33 49L32 49L32 48L31 48L31 47L33 47L33 45L32 45L32 43L33 43L33 44L35 44L35 43L33 43L33 41L32 41L32 40L33 40L33 39L31 39L31 38L33 38L33 37L34 37L34 38L35 38L35 39L34 39L34 42L35 42L35 39L37 39L37 42L38 42L38 39L40 39L40 38L38 38L38 37L37 37L37 38L35 38L35 37L34 37L34 36L35 36L35 32L34 32L34 33L32 33L32 30L33 30L33 29L32 29L32 28L33 28L33 27L34 27L34 31L36 31L36 30L37 30L37 32L38 32L38 30L37 30L37 29L38 29L38 28L37 28L37 29L35 29L35 28L36 28L36 26L37 26L37 27L39 27L39 26L40 26L40 27L41 27L41 28L40 28L40 29L44 29L44 30L46 30L46 31L47 31L47 32L45 32L45 33L46 33L46 36L45 36L45 37L44 37L44 35L45 35L45 34L44 34L44 33L43 33L43 34L44 34L44 35L43 35L43 37L44 37L44 38L43 38L43 39L42 39L42 37L41 37L41 36L42 36L42 34L40 34L40 33L41 33L41 32L40 32L40 30L39 30L39 32L40 32L40 33L39 33L39 34L38 34L38 33L37 33L37 34L38 34L38 36L39 36L39 37L41 37L41 40L40 40L40 41L39 41L39 43L40 43L40 42L41 42L41 43L42 43L42 44L43 44L43 46L44 46L44 47L42 47L42 49L43 49L43 50L42 50L42 51L41 51L41 46L39 46L39 47L38 47L38 49L37 49L37 52L38 52L38 53L39 53L39 52L40 52L40 53L41 53L41 52L43 52L43 53L44 53L44 52L43 52L43 50L44 50L44 51L45 51L45 52L46 52L46 54L47 54L47 55L46 55L46 56L47 56L47 55L48 55L48 56L49 56L49 54L51 54L51 55L52 55L52 54L51 54L51 53L49 53L49 54L47 54L47 53L48 53L48 52L47 52L47 51L45 51L45 50L44 50L44 48L45 48L45 45L46 45L46 47L47 47L47 48L46 48L46 50L47 50L47 49L48 49L48 47L49 47L49 46L50 46L50 47L51 47L51 45L50 45L50 43L51 43L51 44L52 44L52 43L53 43L53 41L52 41L52 40L47 40L47 39L51 39L51 38L50 38L50 35L53 35L53 36L52 36L52 38L53 38L53 36L55 36L55 35L53 35L53 34L54 34L54 33L51 33L51 32L52 32L52 31L51 31L51 32L50 32L50 31L49 31L49 32L50 32L50 35L47 35L47 34L49 34L49 33L48 33L48 31L47 31L47 30L48 30L48 26L47 26L47 25L46 25L46 26L45 26L45 25L44 25L44 24L45 24L45 22L44 22L44 16L45 16L45 21L46 21L46 24L48 24L48 25L49 25L49 26L50 26L50 25L51 25L51 26L52 26L52 25L54 25L54 24L55 24L55 25L56 25L56 24L55 24L55 23L53 23L53 22L52 22L52 21L51 21L51 20L49 20L49 19L51 19L51 18L50 18L50 17L51 17L51 16L50 16L50 17L49 17L49 19L48 19L48 20L49 20L49 21L51 21L51 22L52 22L52 23L53 23L53 24L52 24L52 25L51 25L51 24L50 24L50 22L49 22L49 24L48 24L48 23L47 23L47 21L46 21L46 19L47 19L47 17L46 17L46 15L44 15L44 14L45 14L45 13L44 13L44 12L45 12L45 11L43 11L43 10L45 10L45 9L46 9L46 8L45 8L45 7L46 7L46 5L47 5L47 3L44 3L44 2L43 2L43 3L42 3L42 2L40 2L40 3L39 3L39 4L40 4L40 3L41 3L41 4L43 4L43 5L39 5L39 7L40 7L40 6L41 6L41 8L40 8L40 9L39 9L39 8L38 8L38 9L35 9L35 7L36 7L36 5L38 5L38 2L37 2L37 3L36 3L36 2L34 2L34 1ZM46 1L46 2L47 2L47 1ZM33 3L33 5L34 5L34 7L33 7L33 8L32 8L32 11L33 11L33 10L34 10L34 12L35 12L35 13L37 13L37 12L39 12L39 13L38 13L38 15L39 15L39 17L38 17L38 16L37 16L37 14L35 14L35 17L38 17L38 18L39 18L39 19L37 19L37 18L34 18L34 13L33 13L33 12L32 12L32 13L33 13L33 14L31 14L31 13L30 13L30 15L33 15L33 16L32 16L32 18L31 18L31 16L29 16L29 13L27 13L27 14L28 14L28 15L27 15L27 16L26 16L26 17L21 17L21 16L17 16L17 19L16 19L16 20L17 20L17 21L19 21L19 23L20 23L20 22L21 22L21 23L22 23L22 24L23 24L23 23L24 23L24 25L20 25L20 24L18 24L18 23L17 23L17 26L18 26L18 27L16 27L16 28L15 28L15 29L14 29L14 32L13 32L13 33L14 33L14 32L16 32L16 30L15 30L15 29L18 29L18 30L19 30L19 32L18 32L18 31L17 31L17 33L19 33L19 32L21 32L21 33L20 33L20 34L17 34L17 35L16 35L16 33L15 33L15 37L14 37L14 36L12 36L12 37L10 37L10 38L12 38L12 39L10 39L10 41L9 41L9 40L8 40L8 41L9 41L9 42L12 42L12 43L13 43L13 42L16 42L16 43L18 43L18 41L19 41L19 40L17 40L17 38L19 38L19 37L22 37L22 36L18 36L18 35L20 35L20 34L21 34L21 33L22 33L22 31L23 31L23 32L25 32L25 31L26 31L26 33L23 33L23 34L22 34L22 35L23 35L23 37L24 37L24 38L25 38L25 39L27 39L27 40L28 40L28 41L27 41L27 43L28 43L28 41L29 41L29 42L31 42L31 43L32 43L32 41L31 41L31 39L29 39L29 38L28 38L28 39L27 39L27 38L26 38L26 37L28 37L28 36L29 36L29 37L31 37L31 36L32 36L32 37L33 37L33 36L34 36L34 35L32 35L32 34L31 34L31 33L29 33L29 32L31 32L31 30L32 30L32 29L31 29L31 25L27 25L27 23L28 23L28 22L29 22L29 23L30 23L30 24L31 24L31 23L30 23L30 22L34 22L34 23L32 23L32 27L33 27L33 26L34 26L34 25L37 25L37 24L34 24L34 23L35 23L35 22L37 22L37 21L38 21L38 22L39 22L39 21L40 21L40 22L41 22L41 25L40 25L40 23L39 23L39 25L38 25L38 26L39 26L39 25L40 25L40 26L41 26L41 25L42 25L42 28L43 28L43 26L44 26L44 29L45 29L45 26L44 26L44 25L43 25L43 24L42 24L42 22L43 22L43 23L44 23L44 22L43 22L43 19L42 19L42 18L43 18L43 17L42 17L42 15L43 15L43 16L44 16L44 15L43 15L43 13L40 13L40 11L37 11L37 12L36 12L36 10L34 10L34 9L33 9L33 8L34 8L34 7L35 7L35 5L36 5L36 4L35 4L35 5L34 5L34 3ZM43 3L43 4L44 4L44 7L45 7L45 4L44 4L44 3ZM27 5L27 8L30 8L30 5ZM13 6L13 7L12 7L12 8L13 8L13 9L12 9L12 11L13 11L13 9L14 9L14 6ZM15 6L15 7L16 7L16 6ZM17 6L17 8L19 8L19 7L20 7L20 6L19 6L19 7L18 7L18 6ZM28 6L28 7L29 7L29 6ZM37 6L37 7L38 7L38 6ZM42 6L42 7L43 7L43 6ZM48 6L48 7L49 7L49 6ZM23 7L23 8L24 8L24 7ZM10 8L10 9L11 9L11 8ZM41 8L41 10L43 10L43 9L42 9L42 8ZM44 8L44 9L45 9L45 8ZM38 9L38 10L39 10L39 9ZM16 10L16 11L18 11L18 10ZM41 11L41 12L43 12L43 11ZM6 12L6 13L7 13L7 12ZM20 13L20 14L21 14L21 15L22 15L22 16L23 16L23 15L22 15L22 14L21 14L21 13ZM39 13L39 15L40 15L40 17L39 17L39 18L40 18L40 21L41 21L41 20L42 20L42 19L41 19L41 18L40 18L40 17L41 17L41 14L40 14L40 13ZM47 13L47 14L49 14L49 13ZM6 14L6 15L7 15L7 14ZM3 15L3 16L4 16L4 15ZM14 15L14 16L15 16L15 15ZM18 17L18 18L20 18L20 17ZM27 17L27 18L26 18L26 20L25 20L25 18L24 18L24 19L23 19L23 18L21 18L21 19L20 19L20 20L19 20L19 21L20 21L20 20L22 20L22 21L24 21L24 22L25 22L25 23L26 23L26 22L28 22L28 21L32 21L32 20L31 20L31 19L30 19L30 18L28 18L28 17ZM10 18L10 20L11 20L11 18ZM32 18L32 19L34 19L34 20L36 20L36 19L34 19L34 18ZM22 19L22 20L23 20L23 19ZM27 19L27 20L26 20L26 21L28 21L28 19ZM6 20L6 21L7 21L7 22L6 22L6 23L7 23L7 22L8 22L8 20ZM24 20L24 21L25 21L25 20ZM38 20L38 21L39 21L39 20ZM4 21L4 22L5 22L5 21ZM34 21L34 22L35 22L35 21ZM22 22L22 23L23 23L23 22ZM1 23L1 24L2 24L2 23ZM4 23L4 24L5 24L5 23ZM14 23L14 24L13 24L13 25L14 25L14 26L13 26L13 27L15 27L15 26L16 26L16 25L14 25L14 24L15 24L15 23ZM33 24L33 25L34 25L34 24ZM9 25L9 26L10 26L10 25ZM19 25L19 28L18 28L18 29L22 29L22 30L20 30L20 31L22 31L22 30L23 30L23 31L25 31L25 30L26 30L26 29L25 29L25 30L23 30L23 28L22 28L22 27L21 27L21 28L20 28L20 25ZM25 25L25 26L23 26L23 27L26 27L26 25ZM0 26L0 27L1 27L1 26ZM11 26L11 27L12 27L12 26ZM46 26L46 27L47 27L47 26ZM5 27L5 30L8 30L8 27ZM27 27L27 30L30 30L30 27ZM49 27L49 30L52 30L52 27ZM0 28L0 29L1 29L1 28ZM6 28L6 29L7 29L7 28ZM28 28L28 29L29 29L29 28ZM46 28L46 29L47 29L47 28ZM50 28L50 29L51 29L51 28ZM53 30L53 32L55 32L55 30ZM9 31L9 32L11 32L11 34L12 34L12 32L11 32L11 31ZM0 32L0 33L2 33L2 32ZM28 33L28 34L27 34L27 36L28 36L28 34L29 34L29 33ZM6 34L6 35L7 35L7 34ZM13 34L13 35L14 35L14 34ZM24 34L24 36L25 36L25 35L26 35L26 34ZM30 34L30 36L31 36L31 34ZM39 35L39 36L40 36L40 35ZM16 36L16 37L15 37L15 39L14 39L14 37L12 37L12 38L13 38L13 39L14 39L14 40L11 40L11 41L12 41L12 42L13 42L13 41L15 41L15 39L16 39L16 38L17 38L17 36ZM46 36L46 37L45 37L45 39L44 39L44 41L43 41L43 40L41 40L41 42L44 42L44 43L46 43L46 41L47 41L47 40L46 40L46 39L47 39L47 38L46 38L46 37L47 37L47 36ZM48 37L48 38L49 38L49 37ZM37 38L37 39L38 39L38 38ZM23 39L23 40L24 40L24 39ZM16 40L16 42L17 42L17 40ZM45 40L45 41L44 41L44 42L45 42L45 41L46 41L46 40ZM48 41L48 43L47 43L47 44L46 44L46 45L47 45L47 47L48 47L48 45L49 45L49 43L50 43L50 42L49 42L49 41ZM51 41L51 43L52 43L52 41ZM7 43L7 44L6 44L6 45L8 45L8 46L11 46L11 45L8 45L8 44L9 44L9 43ZM29 43L29 44L30 44L30 43ZM36 43L36 44L37 44L37 46L38 46L38 45L39 45L39 44L37 44L37 43ZM40 44L40 45L41 45L41 44ZM44 44L44 45L45 45L45 44ZM47 44L47 45L48 45L48 44ZM30 45L30 46L32 46L32 45ZM34 45L34 47L35 47L35 45ZM52 45L52 47L53 47L53 48L55 48L55 47L53 47L53 45ZM21 46L21 47L22 47L22 48L21 48L21 49L22 49L22 48L23 48L23 47L22 47L22 46ZM26 46L26 47L27 47L27 46ZM28 46L28 47L29 47L29 46ZM17 47L17 48L18 48L18 47ZM36 47L36 48L37 48L37 47ZM39 47L39 49L38 49L38 51L40 51L40 47ZM13 49L13 50L14 50L14 52L15 52L15 53L17 53L17 54L19 54L19 53L20 53L20 52L19 52L19 53L17 53L17 51L15 51L15 50L18 50L18 49L15 49L15 50L14 50L14 49ZM27 49L27 52L30 52L30 49ZM49 49L49 52L52 52L52 49ZM55 49L55 50L56 50L56 49ZM25 50L25 53L24 53L24 54L25 54L25 53L26 53L26 50ZM28 50L28 51L29 51L29 50ZM50 50L50 51L51 51L51 50ZM8 51L8 53L9 53L9 51ZM54 52L54 53L55 53L55 54L57 54L57 52L56 52L56 53L55 53L55 52ZM11 53L11 54L12 54L12 53ZM30 53L30 54L31 54L31 53ZM32 53L32 54L33 54L33 55L34 55L34 54L35 54L35 53L34 53L34 54L33 54L33 53ZM40 54L40 55L41 55L41 54ZM42 54L42 55L43 55L43 54ZM17 56L17 57L20 57L20 56ZM56 56L56 57L57 57L57 56ZM0 0L0 7L7 7L7 0ZM1 1L1 6L6 6L6 1ZM2 2L2 5L5 5L5 2ZM50 0L50 7L57 7L57 0ZM51 1L51 6L56 6L56 1ZM52 2L52 5L55 5L55 2ZM0 50L0 57L7 57L7 50ZM1 51L1 56L6 56L6 51ZM2 52L2 55L5 55L5 52Z" fill="#000000"/></g></g></svg>
