<?xml version="1.0" encoding="UTF-8"?>
<svg xmlns="http://www.w3.org/2000/svg" version="1.1" width="300" height="300" viewBox="0 0 300 300"><rect x="0" y="0" width="300" height="300" fill="#fefefe"/><g transform="scale(4.615)"><g transform="translate(4,4)"><path fill-rule="evenodd" d="M9 0L9 1L8 1L8 2L9 2L9 3L8 3L8 4L9 4L9 5L8 5L8 7L9 7L9 6L10 6L10 8L6 8L6 9L7 9L7 10L5 10L5 8L0 8L0 9L1 9L1 10L0 10L0 11L1 11L1 10L3 10L3 11L2 11L2 12L1 12L1 14L0 14L0 16L1 16L1 17L0 17L0 18L1 18L1 17L2 17L2 18L3 18L3 17L5 17L5 18L4 18L4 19L3 19L3 21L2 21L2 22L4 22L4 23L5 23L5 24L4 24L4 26L3 26L3 23L1 23L1 22L0 22L0 23L1 23L1 24L2 24L2 27L0 27L0 29L1 29L1 31L2 31L2 34L1 34L1 33L0 33L0 35L2 35L2 36L1 36L1 37L2 37L2 36L3 36L3 38L4 38L4 39L5 39L5 38L4 38L4 36L5 36L5 37L7 37L7 38L6 38L6 39L9 39L9 40L2 40L2 38L1 38L1 40L2 40L2 41L0 41L0 42L1 42L1 43L2 43L2 47L1 47L1 46L0 46L0 48L5 48L5 47L7 47L7 48L6 48L6 49L8 49L8 51L9 51L9 49L10 49L10 48L9 48L9 47L11 47L11 49L12 49L12 52L10 52L10 54L11 54L11 56L12 56L12 57L14 57L14 56L12 56L12 53L13 53L13 49L12 49L12 48L13 48L13 45L12 45L12 44L11 44L11 43L10 43L10 42L11 42L11 41L9 41L9 40L12 40L12 43L13 43L13 44L14 44L14 45L15 45L15 41L16 41L16 39L15 39L15 38L16 38L16 37L15 37L15 36L17 36L17 42L18 42L18 43L16 43L16 44L18 44L18 45L17 45L17 46L20 46L20 47L23 47L23 46L25 46L25 45L24 45L24 44L23 44L23 42L25 42L25 41L23 41L23 42L22 42L22 43L21 43L21 42L20 42L20 41L19 41L19 40L21 40L21 39L24 39L24 40L25 40L25 39L27 39L27 40L28 40L28 41L26 41L26 42L27 42L27 43L25 43L25 44L27 44L27 43L28 43L28 44L29 44L29 43L30 43L30 44L31 44L31 45L30 45L30 46L28 46L28 48L25 48L25 49L24 49L24 48L23 48L23 49L21 49L21 50L20 50L20 49L19 49L19 47L17 47L17 48L16 48L16 47L14 47L14 49L19 49L19 50L14 50L14 51L15 51L15 52L14 52L14 54L13 54L13 55L14 55L14 54L15 54L15 55L16 55L16 56L15 56L15 57L16 57L16 56L17 56L17 57L20 57L20 56L18 56L18 55L20 55L20 54L19 54L19 53L20 53L20 52L21 52L21 53L22 53L22 54L21 54L21 55L23 55L23 56L24 56L24 57L26 57L26 56L27 56L27 57L29 57L29 56L30 56L30 57L31 57L31 56L35 56L35 57L39 57L39 56L40 56L40 55L41 55L41 56L42 56L42 55L44 55L44 56L43 56L43 57L44 57L44 56L45 56L45 57L47 57L47 55L48 55L48 56L50 56L50 57L52 57L52 55L51 55L51 53L52 53L52 54L53 54L53 55L54 55L54 56L53 56L53 57L54 57L54 56L55 56L55 57L56 57L56 56L55 56L55 51L54 51L54 50L57 50L57 48L56 48L56 46L57 46L57 43L56 43L56 41L55 41L55 39L57 39L57 37L55 37L55 36L57 36L57 35L56 35L56 34L55 34L55 33L54 33L54 32L56 32L56 33L57 33L57 32L56 32L56 30L57 30L57 29L54 29L54 28L56 28L56 26L57 26L57 25L56 25L56 22L57 22L57 19L56 19L56 18L57 18L57 17L56 17L56 16L57 16L57 15L56 15L56 14L57 14L57 12L56 12L56 14L55 14L55 13L54 13L54 12L55 12L55 11L56 11L56 8L55 8L55 10L54 10L54 11L50 11L50 8L49 8L49 6L48 6L48 7L47 7L47 5L48 5L48 0L46 0L46 1L47 1L47 2L44 2L44 3L43 3L43 4L40 4L40 5L39 5L39 6L38 6L38 3L36 3L36 0L35 0L35 1L32 1L32 3L30 3L30 2L31 2L31 0L27 0L27 1L26 1L26 0L23 0L23 2L22 2L22 0L21 0L21 1L20 1L20 3L23 3L23 4L22 4L22 5L23 5L23 6L22 6L22 8L23 8L23 10L22 10L22 11L21 11L21 10L20 10L20 8L21 8L21 4L19 4L19 3L18 3L18 4L17 4L17 5L18 5L18 4L19 4L19 5L20 5L20 7L19 7L19 6L18 6L18 7L19 7L19 8L16 8L16 7L17 7L17 6L16 6L16 7L15 7L15 5L16 5L16 4L15 4L15 5L14 5L14 7L15 7L15 9L17 9L17 10L14 10L14 8L11 8L11 6L12 6L12 7L13 7L13 4L14 4L14 2L15 2L15 3L17 3L17 2L15 2L15 0L14 0L14 2L12 2L12 3L11 3L11 2L9 2L9 1L10 1L10 0ZM11 0L11 1L12 1L12 0ZM17 0L17 1L18 1L18 0ZM37 0L37 1L38 1L38 2L39 2L39 3L41 3L41 2L43 2L43 0L41 0L41 1L40 1L40 0L39 0L39 1L38 1L38 0ZM25 1L25 2L23 2L23 3L26 3L26 4L25 4L25 8L26 8L26 4L29 4L29 1L27 1L27 2L26 2L26 1ZM27 2L27 3L28 3L28 2ZM33 2L33 3L32 3L32 4L31 4L31 8L32 8L32 10L31 10L31 11L29 11L29 12L28 12L28 13L27 13L27 14L26 14L26 17L25 17L25 14L24 14L24 13L26 13L26 12L27 12L27 11L28 11L28 10L27 10L27 11L26 11L26 12L25 12L25 11L24 11L24 13L22 13L22 12L21 12L21 11L20 11L20 14L19 14L19 15L18 15L18 14L17 14L17 13L18 13L18 12L17 12L17 13L16 13L16 12L15 12L15 13L13 13L13 12L14 12L14 11L13 11L13 12L12 12L12 13L13 13L13 14L10 14L10 16L11 16L11 17L12 17L12 18L13 18L13 19L14 19L14 20L13 20L13 21L12 21L12 19L10 19L10 20L8 20L8 19L9 19L9 18L10 18L10 17L9 17L9 18L8 18L8 19L5 19L5 20L4 20L4 21L5 21L5 22L8 22L8 21L10 21L10 20L11 20L11 22L12 22L12 23L11 23L11 26L12 26L12 27L10 27L10 28L9 28L9 29L11 29L11 28L12 28L12 30L11 30L11 31L12 31L12 32L11 32L11 34L10 34L10 33L9 33L9 32L10 32L10 31L8 31L8 33L3 33L3 34L4 34L4 35L3 35L3 36L4 36L4 35L5 35L5 36L7 36L7 37L8 37L8 36L7 36L7 35L5 35L5 34L8 34L8 35L9 35L9 38L10 38L10 36L11 36L11 38L12 38L12 39L13 39L13 38L14 38L14 37L12 37L12 36L11 36L11 34L13 34L13 35L16 35L16 34L17 34L17 32L18 32L18 31L19 31L19 30L18 30L18 29L19 29L19 26L18 26L18 27L17 27L17 24L16 24L16 23L15 23L15 24L14 24L14 26L16 26L16 27L13 27L13 26L12 26L12 24L13 24L13 23L14 23L14 22L16 22L16 21L17 21L17 19L18 19L18 18L19 18L19 19L20 19L20 18L22 18L22 20L20 20L20 21L19 21L19 22L20 22L20 23L18 23L18 24L21 24L21 25L20 25L20 27L21 27L21 28L22 28L22 29L20 29L20 32L19 32L19 33L20 33L20 34L19 34L19 35L17 35L17 36L19 36L19 37L22 37L22 38L24 38L24 37L23 37L23 36L24 36L24 34L23 34L23 33L25 33L25 35L26 35L26 34L27 34L27 37L28 37L28 38L27 38L27 39L28 39L28 40L29 40L29 41L28 41L28 42L30 42L30 40L32 40L32 41L31 41L31 42L32 42L32 43L31 43L31 44L32 44L32 45L31 45L31 46L32 46L32 49L31 49L31 50L32 50L32 51L31 51L31 53L30 53L30 54L27 54L27 53L24 53L24 52L26 52L26 49L25 49L25 50L23 50L23 52L22 52L22 51L21 51L21 52L22 52L22 53L24 53L24 54L23 54L23 55L24 55L24 56L26 56L26 54L27 54L27 56L29 56L29 55L30 55L30 56L31 56L31 54L32 54L32 53L33 53L33 55L35 55L35 56L36 56L36 54L35 54L35 53L33 53L33 52L32 52L32 51L34 51L34 50L36 50L36 52L37 52L37 53L38 53L38 54L37 54L37 56L39 56L39 55L38 55L38 54L40 54L40 53L41 53L41 52L42 52L42 53L43 53L43 54L44 54L44 55L45 55L45 54L46 54L46 55L47 55L47 53L48 53L48 50L47 50L47 49L48 49L48 48L50 48L50 47L51 47L51 46L52 46L52 48L53 48L53 47L55 47L55 46L56 46L56 43L55 43L55 44L54 44L54 45L53 45L53 43L54 43L54 42L53 42L53 41L54 41L54 40L53 40L53 39L54 39L54 38L53 38L53 35L55 35L55 34L54 34L54 33L52 33L52 32L54 32L54 31L55 31L55 30L54 30L54 29L53 29L53 31L51 31L51 33L52 33L52 34L50 34L50 31L48 31L48 29L46 29L46 30L47 30L47 31L46 31L46 32L43 32L43 31L44 31L44 30L45 30L45 28L46 28L46 27L47 27L47 28L48 28L48 27L47 27L47 25L48 25L48 24L49 24L49 23L50 23L50 24L51 24L51 25L50 25L50 26L51 26L51 25L52 25L52 26L53 26L53 27L54 27L54 26L53 26L53 23L55 23L55 22L56 22L56 19L55 19L55 20L53 20L53 19L52 19L52 20L51 20L51 21L49 21L49 22L48 22L48 24L47 24L47 23L46 23L46 22L47 22L47 20L49 20L49 19L50 19L50 18L55 18L55 17L53 17L53 15L50 15L50 14L51 14L51 12L50 12L50 11L49 11L49 10L48 10L48 11L47 11L47 12L45 12L45 11L46 11L46 10L47 10L47 7L46 7L46 5L47 5L47 3L44 3L44 6L43 6L43 7L44 7L44 10L45 10L45 11L44 11L44 13L45 13L45 14L41 14L41 13L43 13L43 11L41 11L41 12L40 12L40 11L39 11L39 12L40 12L40 13L38 13L38 14L37 14L37 15L35 15L35 16L33 16L33 15L32 15L32 18L30 18L30 19L34 19L34 21L33 21L33 20L32 20L32 21L31 21L31 20L29 20L29 19L28 19L28 18L26 18L26 17L28 17L28 16L29 16L29 14L30 14L30 15L31 15L31 14L32 14L32 13L33 13L33 14L36 14L36 13L35 13L35 12L36 12L36 10L37 10L37 9L35 9L35 8L38 8L38 10L39 10L39 9L41 9L41 7L42 7L42 5L40 5L40 6L39 6L39 8L38 8L38 6L37 6L37 7L36 7L36 5L37 5L37 4L36 4L36 5L35 5L35 3L34 3L34 2ZM9 3L9 4L10 4L10 5L12 5L12 4L13 4L13 3L12 3L12 4L10 4L10 3ZM23 4L23 5L24 5L24 4ZM32 4L32 5L34 5L34 7L33 7L33 6L32 6L32 7L33 7L33 9L34 9L34 8L35 8L35 5L34 5L34 4ZM45 4L45 5L46 5L46 4ZM27 5L27 8L30 8L30 5ZM23 6L23 8L24 8L24 6ZM28 6L28 7L29 7L29 6ZM40 6L40 7L41 7L41 6ZM44 6L44 7L45 7L45 8L46 8L46 7L45 7L45 6ZM42 8L42 9L43 9L43 8ZM48 8L48 9L49 9L49 8ZM51 8L51 10L52 10L52 8ZM53 8L53 9L54 9L54 8ZM3 9L3 10L4 10L4 11L5 11L5 10L4 10L4 9ZM9 9L9 10L7 10L7 11L6 11L6 12L3 12L3 13L2 13L2 15L1 15L1 16L7 16L7 17L6 17L6 18L7 18L7 17L8 17L8 16L7 16L7 15L6 15L6 14L8 14L8 15L9 15L9 14L8 14L8 11L9 11L9 13L11 13L11 12L10 12L10 11L11 11L11 10L12 10L12 9ZM45 9L45 10L46 10L46 9ZM9 10L9 11L10 11L10 10ZM17 10L17 11L18 11L18 10ZM32 10L32 12L31 12L31 13L30 13L30 14L31 14L31 13L32 13L32 12L33 12L33 13L34 13L34 12L33 12L33 10ZM48 11L48 12L49 12L49 13L47 13L47 14L45 14L45 15L47 15L47 18L50 18L50 17L49 17L49 16L50 16L50 15L49 15L49 14L50 14L50 12L49 12L49 11ZM6 12L6 13L7 13L7 12ZM52 12L52 13L53 13L53 14L54 14L54 13L53 13L53 12ZM3 13L3 15L5 15L5 14L4 14L4 13ZM15 13L15 14L14 14L14 15L11 15L11 16L13 16L13 18L15 18L15 21L16 21L16 19L17 19L17 18L15 18L15 17L16 17L16 13ZM21 13L21 14L20 14L20 16L18 16L18 15L17 15L17 17L19 17L19 18L20 18L20 16L21 16L21 17L22 17L22 18L24 18L24 19L23 19L23 20L24 20L24 21L22 21L22 22L24 22L24 21L25 21L25 22L26 22L26 23L25 23L25 24L24 24L24 23L23 23L23 24L24 24L24 25L22 25L22 26L21 26L21 27L22 27L22 26L23 26L23 27L24 27L24 26L26 26L26 27L25 27L25 28L24 28L24 29L23 29L23 31L21 31L21 32L20 32L20 33L21 33L21 34L20 34L20 36L22 36L22 35L21 35L21 34L22 34L22 33L21 33L21 32L23 32L23 31L24 31L24 32L25 32L25 33L27 33L27 31L29 31L29 32L28 32L28 33L29 33L29 34L30 34L30 36L29 36L29 37L31 37L31 38L29 38L29 39L33 39L33 40L35 40L35 42L37 42L37 43L36 43L36 44L35 44L35 43L34 43L34 42L33 42L33 41L32 41L32 42L33 42L33 43L32 43L32 44L33 44L33 43L34 43L34 45L36 45L36 46L33 46L33 45L32 45L32 46L33 46L33 47L36 47L36 48L34 48L34 49L36 49L36 50L38 50L38 51L37 51L37 52L38 52L38 53L39 53L39 52L38 52L38 51L40 51L40 52L41 52L41 50L42 50L42 51L43 51L43 53L44 53L44 54L45 54L45 53L47 53L47 50L45 50L45 49L44 49L44 48L45 48L45 47L46 47L46 48L48 48L48 47L50 47L50 46L48 46L48 45L51 45L51 43L53 43L53 42L51 42L51 41L53 41L53 40L52 40L52 39L53 39L53 38L51 38L51 37L50 37L50 36L52 36L52 35L53 35L53 34L52 34L52 35L50 35L50 34L49 34L49 35L50 35L50 36L49 36L49 37L48 37L48 38L47 38L47 39L46 39L46 40L45 40L45 39L43 39L43 41L40 41L40 42L42 42L42 44L41 44L41 43L40 43L40 44L41 44L41 46L40 46L40 47L39 47L39 46L38 46L38 45L39 45L39 42L38 42L38 40L39 40L39 39L38 39L38 36L39 36L39 37L40 37L40 38L43 38L43 37L44 37L44 38L45 38L45 37L44 37L44 36L45 36L45 35L46 35L46 34L45 34L45 33L43 33L43 32L41 32L41 33L39 33L39 34L40 34L40 35L38 35L38 33L37 33L37 32L33 32L33 33L35 33L35 34L37 34L37 36L35 36L35 35L34 35L34 36L35 36L35 38L33 38L33 37L32 37L32 36L33 36L33 34L32 34L32 35L31 35L31 33L32 33L32 31L36 31L36 29L38 29L38 28L39 28L39 27L36 27L36 26L34 26L34 27L33 27L33 26L32 26L32 24L33 24L33 25L37 25L37 26L38 26L38 24L41 24L41 25L39 25L39 26L41 26L41 28L42 28L42 26L43 26L43 25L44 25L44 27L43 27L43 28L45 28L45 27L46 27L46 26L45 26L45 25L46 25L46 24L45 24L45 25L44 25L44 24L43 24L43 23L44 23L44 20L45 20L45 19L46 19L46 18L44 18L44 15L42 15L42 16L41 16L41 15L39 15L39 14L38 14L38 15L39 15L39 16L38 16L38 17L37 17L37 16L35 16L35 17L37 17L37 18L38 18L38 17L39 17L39 19L38 19L38 21L37 21L37 20L36 20L36 19L35 19L35 23L34 23L34 22L33 22L33 23L32 23L32 24L29 24L29 25L28 25L28 26L26 26L26 25L25 25L25 24L28 24L28 22L29 22L29 23L30 23L30 22L31 22L31 21L30 21L30 22L29 22L29 21L25 21L25 20L26 20L26 19L25 19L25 17L22 17L22 16L21 16L21 15L23 15L23 16L24 16L24 15L23 15L23 14L22 14L22 13ZM28 13L28 14L29 14L29 13ZM14 15L14 17L15 17L15 15ZM27 15L27 16L28 16L28 15ZM48 15L48 16L49 16L49 15ZM39 16L39 17L41 17L41 16ZM42 16L42 17L43 17L43 16ZM45 16L45 17L46 17L46 16ZM41 18L41 19L42 19L42 18ZM43 18L43 20L42 20L42 21L43 21L43 20L44 20L44 18ZM0 19L0 21L1 21L1 19ZM27 19L27 20L28 20L28 19ZM5 20L5 21L7 21L7 20ZM39 20L39 21L38 21L38 22L37 22L37 24L38 24L38 22L39 22L39 23L40 23L40 22L39 22L39 21L41 21L41 20ZM13 21L13 22L14 22L14 21ZM45 21L45 22L46 22L46 21ZM51 21L51 22L50 22L50 23L53 23L53 21ZM6 23L6 24L7 24L7 25L5 25L5 26L7 26L7 25L10 25L10 24L9 24L9 23L8 23L8 24L7 24L7 23ZM41 23L41 24L42 24L42 23ZM15 24L15 25L16 25L16 24ZM31 26L31 28L32 28L32 30L31 30L31 31L30 31L30 32L29 32L29 33L31 33L31 31L32 31L32 30L35 30L35 28L33 28L33 27L32 27L32 26ZM3 27L3 28L1 28L1 29L3 29L3 30L2 30L2 31L3 31L3 32L4 32L4 31L3 31L3 30L4 30L4 27ZM5 27L5 30L8 30L8 27ZM27 27L27 30L30 30L30 27ZM49 27L49 30L52 30L52 27ZM6 28L6 29L7 29L7 28ZM14 28L14 29L13 29L13 30L14 30L14 31L16 31L16 29L18 29L18 28L16 28L16 29L15 29L15 28ZM25 28L25 29L26 29L26 28ZM28 28L28 29L29 29L29 28ZM50 28L50 29L51 29L51 28ZM39 29L39 30L38 30L38 32L39 32L39 31L41 31L41 30L44 30L44 29ZM24 30L24 31L25 31L25 32L26 32L26 31L25 31L25 30ZM5 31L5 32L7 32L7 31ZM47 31L47 32L46 32L46 33L47 33L47 32L48 32L48 33L49 33L49 32L48 32L48 31ZM12 32L12 33L14 33L14 32ZM9 34L9 35L10 35L10 34ZM42 34L42 35L43 35L43 36L40 36L40 37L43 37L43 36L44 36L44 35L45 35L45 34ZM47 35L47 36L48 36L48 35ZM25 36L25 38L26 38L26 36ZM19 38L19 39L20 39L20 38ZM50 38L50 39L51 39L51 38ZM35 39L35 40L38 40L38 39ZM47 39L47 41L45 41L45 40L44 40L44 41L45 41L45 42L48 42L48 43L47 43L47 45L45 45L45 44L46 44L46 43L44 43L44 42L43 42L43 43L44 43L44 45L43 45L43 46L41 46L41 48L39 48L39 47L38 47L38 48L37 48L37 49L38 49L38 50L41 50L41 48L42 48L42 49L43 49L43 50L44 50L44 49L43 49L43 48L44 48L44 47L45 47L45 46L47 46L47 45L48 45L48 44L50 44L50 43L51 43L51 42L50 42L50 43L49 43L49 42L48 42L48 41L49 41L49 39ZM13 40L13 41L15 41L15 40ZM3 41L3 42L2 42L2 43L3 43L3 42L4 42L4 45L3 45L3 47L5 47L5 44L7 44L7 43L8 43L8 45L9 45L9 46L7 46L7 45L6 45L6 46L7 46L7 47L9 47L9 46L11 46L11 47L12 47L12 45L9 45L9 43L8 43L8 42L9 42L9 41L6 41L6 42L7 42L7 43L5 43L5 41ZM18 41L18 42L19 42L19 41ZM13 42L13 43L14 43L14 42ZM20 43L20 44L19 44L19 45L20 45L20 46L21 46L21 45L22 45L22 46L23 46L23 45L22 45L22 44L21 44L21 43ZM0 44L0 45L1 45L1 44ZM26 45L26 47L27 47L27 45ZM54 45L54 46L55 46L55 45ZM36 46L36 47L37 47L37 46ZM43 46L43 47L42 47L42 48L43 48L43 47L44 47L44 46ZM29 47L29 48L30 48L30 47ZM8 48L8 49L9 49L9 48ZM38 48L38 49L39 49L39 48ZM54 48L54 49L56 49L56 48ZM27 49L27 52L30 52L30 49ZM49 49L49 52L52 52L52 49ZM28 50L28 51L29 51L29 50ZM50 50L50 51L51 51L51 50ZM16 51L16 53L15 53L15 54L16 54L16 53L17 53L17 51ZM18 51L18 52L20 52L20 51ZM56 51L56 52L57 52L57 51ZM8 52L8 57L10 57L10 55L9 55L9 52ZM44 52L44 53L45 53L45 52ZM53 52L53 54L54 54L54 52ZM41 54L41 55L42 55L42 54ZM50 55L50 56L51 56L51 55ZM0 0L0 7L7 7L7 0ZM1 1L1 6L6 6L6 1ZM2 2L2 5L5 5L5 2ZM50 0L50 7L57 7L57 0ZM51 1L51 6L56 6L56 1ZM52 2L52 5L55 5L55 2ZM0 50L0 57L7 57L7 50ZM1 51L1 56L6 56L6 51ZM2 52L2 55L5 55L5 52Z" fill="#000000"/></g></g></svg>
