<?xml version="1.0" encoding="UTF-8"?>
<svg xmlns="http://www.w3.org/2000/svg" version="1.1" width="300" height="300" viewBox="0 0 300 300"><rect x="0" y="0" width="300" height="300" fill="#fefefe"/><g transform="scale(4.615)"><g transform="translate(4,4)"><path fill-rule="evenodd" d="M9 0L9 1L8 1L8 2L10 2L10 3L8 3L8 4L9 4L9 5L8 5L8 7L9 7L9 6L10 6L10 7L11 7L11 6L10 6L10 4L12 4L12 5L13 5L13 4L14 4L14 2L15 2L15 3L16 3L16 2L17 2L17 1L16 1L16 2L15 2L15 0L14 0L14 2L12 2L12 3L11 3L11 2L10 2L10 0ZM11 0L11 1L12 1L12 0ZM19 0L19 2L20 2L20 0ZM21 0L21 1L22 1L22 0ZM23 0L23 2L25 2L25 1L26 1L26 2L27 2L27 3L28 3L28 2L27 2L27 1L29 1L29 3L30 3L30 4L26 4L26 3L23 3L23 4L19 4L19 3L17 3L17 4L18 4L18 5L20 5L20 7L19 7L19 6L18 6L18 7L19 7L19 8L16 8L16 7L17 7L17 6L16 6L16 7L15 7L15 5L16 5L16 4L15 4L15 5L14 5L14 8L13 8L13 6L12 6L12 8L6 8L6 9L9 9L9 10L11 10L11 11L12 11L12 10L11 10L11 9L12 9L12 8L13 8L13 9L14 9L14 8L16 8L16 9L17 9L17 10L18 10L18 11L17 11L17 12L16 12L16 13L15 13L15 10L13 10L13 11L14 11L14 12L13 12L13 13L15 13L15 14L12 14L12 12L9 12L9 11L8 11L8 12L9 12L9 13L8 13L8 14L5 14L5 13L7 13L7 12L6 12L6 11L7 11L7 10L6 10L6 11L4 11L4 9L5 9L5 8L0 8L0 10L2 10L2 9L3 9L3 12L2 12L2 11L1 11L1 12L0 12L0 13L1 13L1 12L2 12L2 13L4 13L4 14L3 14L3 15L1 15L1 14L0 14L0 15L1 15L1 16L0 16L0 17L1 17L1 19L0 19L0 21L3 21L3 22L6 22L6 23L2 23L2 22L1 22L1 23L0 23L0 27L1 27L1 28L2 28L2 25L3 25L3 26L4 26L4 27L3 27L3 28L4 28L4 29L3 29L3 30L0 30L0 33L1 33L1 34L0 34L0 35L1 35L1 38L2 38L2 39L1 39L1 41L3 41L3 43L4 43L4 42L5 42L5 40L6 40L6 41L9 41L9 42L6 42L6 43L7 43L7 44L6 44L6 45L7 45L7 44L8 44L8 46L5 46L5 47L3 47L3 46L4 46L4 45L5 45L5 44L4 44L4 45L3 45L3 44L2 44L2 42L1 42L1 44L0 44L0 45L1 45L1 44L2 44L2 47L1 47L1 46L0 46L0 48L5 48L5 47L7 47L7 48L6 48L6 49L7 49L7 48L8 48L8 51L10 51L10 49L11 49L11 46L10 46L10 47L9 47L9 44L10 44L10 43L9 43L9 42L10 42L10 41L11 41L11 44L12 44L12 46L13 46L13 43L15 43L15 41L16 41L16 39L15 39L15 38L16 38L16 37L14 37L14 38L13 38L13 36L12 36L12 38L13 38L13 39L14 39L14 41L13 41L13 42L12 42L12 40L6 40L6 39L7 39L7 38L8 38L8 39L9 39L9 38L10 38L10 39L11 39L11 38L10 38L10 37L11 37L11 35L10 35L10 34L11 34L11 32L10 32L10 31L11 31L11 30L12 30L12 29L13 29L13 32L14 32L14 29L13 29L13 28L14 28L14 27L15 27L15 23L16 23L16 24L17 24L17 25L18 25L18 26L16 26L16 27L18 27L18 26L20 26L20 27L19 27L19 28L20 28L20 29L18 29L18 28L16 28L16 29L15 29L15 33L17 33L17 34L15 34L15 35L16 35L16 36L17 36L17 39L19 39L19 40L17 40L17 41L19 41L19 42L18 42L18 43L17 43L17 42L16 42L16 45L17 45L17 46L18 46L18 47L19 47L19 48L15 48L15 47L16 47L16 46L15 46L15 45L14 45L14 46L15 46L15 47L14 47L14 48L12 48L12 49L13 49L13 50L14 50L14 49L17 49L17 50L15 50L15 53L13 53L13 52L14 52L14 51L13 51L13 52L8 52L8 57L9 57L9 56L10 56L10 55L9 55L9 53L10 53L10 54L11 54L11 55L12 55L12 53L13 53L13 54L14 54L14 55L13 55L13 56L14 56L14 57L16 57L16 56L17 56L17 57L22 57L22 56L17 56L17 53L20 53L20 52L21 52L21 51L22 51L22 52L23 52L23 51L22 51L22 50L26 50L26 52L24 52L24 53L23 53L23 54L22 54L22 55L23 55L23 56L24 56L24 55L23 55L23 54L24 54L24 53L26 53L26 54L25 54L25 55L26 55L26 54L30 54L30 53L31 53L31 51L32 51L32 52L33 52L33 53L32 53L32 54L31 54L31 56L30 56L30 55L29 55L29 56L27 56L27 57L29 57L29 56L30 56L30 57L31 57L31 56L35 56L35 57L39 57L39 56L37 56L37 55L40 55L40 56L41 56L41 57L44 57L44 54L45 54L45 55L47 55L47 56L46 56L46 57L49 57L49 56L50 56L50 57L52 57L52 55L51 55L51 53L52 53L52 54L53 54L53 52L54 52L54 53L55 53L55 51L56 51L56 52L57 52L57 51L56 51L56 50L55 50L55 48L56 48L56 49L57 49L57 48L56 48L56 46L57 46L57 43L56 43L56 41L55 41L55 39L57 39L57 37L56 37L56 36L55 36L55 35L56 35L56 34L55 34L55 33L54 33L54 32L56 32L56 33L57 33L57 32L56 32L56 30L57 30L57 29L55 29L55 31L53 31L53 29L54 29L54 28L56 28L56 27L55 27L55 26L57 26L57 25L56 25L56 22L57 22L57 21L56 21L56 22L55 22L55 23L53 23L53 22L54 22L54 21L51 21L51 20L52 20L52 19L53 19L53 20L55 20L55 19L56 19L56 20L57 20L57 19L56 19L56 18L57 18L57 17L56 17L56 16L57 16L57 15L56 15L56 14L57 14L57 13L56 13L56 14L55 14L55 13L54 13L54 12L55 12L55 11L56 11L56 10L54 10L54 11L52 11L52 10L51 10L51 11L50 11L50 8L49 8L49 6L48 6L48 7L47 7L47 5L48 5L48 0L46 0L46 1L47 1L47 2L44 2L44 3L42 3L42 2L43 2L43 0L41 0L41 1L40 1L40 0L39 0L39 1L38 1L38 0L37 0L37 1L38 1L38 3L41 3L41 4L40 4L40 5L39 5L39 6L38 6L38 8L35 8L35 5L36 5L36 7L37 7L37 5L38 5L38 4L37 4L37 3L36 3L36 0L35 0L35 1L33 1L33 0L27 0L27 1L26 1L26 0ZM31 1L31 3L32 3L32 4L31 4L31 8L32 8L32 10L31 10L31 11L29 11L29 12L28 12L28 13L26 13L26 12L27 12L27 11L26 11L26 12L25 12L25 10L23 10L23 13L22 13L22 12L20 12L20 11L19 11L19 12L20 12L20 14L21 14L21 13L22 13L22 14L23 14L23 13L24 13L24 12L25 12L25 13L26 13L26 17L28 17L28 16L29 16L29 14L30 14L30 15L31 15L31 16L32 16L32 18L30 18L30 19L32 19L32 18L35 18L35 19L36 19L36 20L37 20L37 19L39 19L39 17L41 17L41 16L42 16L42 17L43 17L43 16L42 16L42 15L44 15L44 18L43 18L43 19L42 19L42 18L41 18L41 20L38 20L38 22L39 22L39 23L40 23L40 22L39 22L39 21L43 21L43 20L44 20L44 25L43 25L43 26L42 26L42 28L38 28L38 29L36 29L36 31L33 31L33 30L35 30L35 28L36 28L36 27L39 27L39 25L40 25L40 26L41 26L41 24L38 24L38 23L37 23L37 24L38 24L38 26L37 26L37 25L33 25L33 24L32 24L32 23L33 23L33 22L34 22L34 23L35 23L35 21L33 21L33 20L32 20L32 21L31 21L31 22L30 22L30 21L29 21L29 19L28 19L28 18L25 18L25 19L26 19L26 20L25 20L25 21L24 21L24 20L23 20L23 19L24 19L24 18L23 18L23 19L22 19L22 20L20 20L20 19L21 19L21 18L22 18L22 17L25 17L25 15L24 15L24 16L23 16L23 15L21 15L21 16L20 16L20 15L19 15L19 14L18 14L18 15L19 15L19 16L20 16L20 19L18 19L18 20L20 20L20 21L18 21L18 22L20 22L20 23L18 23L18 24L19 24L19 25L20 25L20 26L21 26L21 25L23 25L23 23L24 23L24 24L25 24L25 25L26 25L26 26L25 26L25 27L26 27L26 26L27 26L27 25L28 25L28 26L29 26L29 24L30 24L30 23L31 23L31 24L32 24L32 26L31 26L31 28L32 28L32 30L31 30L31 31L30 31L30 32L29 32L29 31L27 31L27 32L26 32L26 31L25 31L25 30L24 30L24 31L25 31L25 32L21 32L21 31L23 31L23 29L24 29L24 27L23 27L23 26L22 26L22 27L20 27L20 28L22 28L22 29L20 29L20 30L19 30L19 31L17 31L17 33L18 33L18 34L17 34L17 36L18 36L18 34L19 34L19 37L23 37L23 38L24 38L24 37L23 37L23 36L24 36L24 34L23 34L23 33L25 33L25 34L26 34L26 33L27 33L27 35L26 35L26 36L25 36L25 40L24 40L24 39L23 39L23 40L22 40L22 39L21 39L21 40L19 40L19 41L20 41L20 42L19 42L19 45L20 45L20 46L21 46L21 45L22 45L22 46L23 46L23 47L20 47L20 48L19 48L19 49L20 49L20 50L19 50L19 51L16 51L16 53L15 53L15 54L16 54L16 53L17 53L17 52L19 52L19 51L21 51L21 49L23 49L23 48L24 48L24 49L26 49L26 48L30 48L30 47L29 47L29 46L30 46L30 45L32 45L32 47L33 47L33 46L35 46L35 47L34 47L34 48L31 48L31 50L32 50L32 51L33 51L33 52L34 52L34 53L33 53L33 54L34 54L34 55L35 55L35 56L36 56L36 54L35 54L35 51L34 51L34 50L36 50L36 52L37 52L37 51L38 51L38 50L41 50L41 52L40 52L40 51L39 51L39 52L38 52L38 54L40 54L40 53L41 53L41 52L43 52L43 51L46 51L46 50L47 50L47 52L44 52L44 53L43 53L43 54L44 54L44 53L45 53L45 54L48 54L48 50L47 50L47 49L48 49L48 48L51 48L51 46L53 46L53 47L52 47L52 48L53 48L53 49L54 49L54 48L53 48L53 47L55 47L55 46L56 46L56 43L55 43L55 44L54 44L54 45L51 45L51 46L50 46L50 43L51 43L51 44L53 44L53 43L54 43L54 42L53 42L53 41L54 41L54 40L53 40L53 41L51 41L51 42L50 42L50 43L48 43L48 44L47 44L47 45L45 45L45 44L46 44L46 43L47 43L47 42L48 42L48 41L49 41L49 39L47 39L47 37L48 37L48 38L49 38L49 36L50 36L50 39L51 39L51 40L52 40L52 39L54 39L54 38L53 38L53 35L55 35L55 34L54 34L54 33L52 33L52 32L51 32L51 31L50 31L50 32L49 32L49 31L48 31L48 29L46 29L46 30L47 30L47 31L48 31L48 32L43 32L43 31L45 31L45 28L46 28L46 27L47 27L47 28L48 28L48 27L47 27L47 25L49 25L49 23L50 23L50 26L51 26L51 25L52 25L52 26L53 26L53 27L54 27L54 26L53 26L53 25L54 25L54 24L53 24L53 23L50 23L50 22L51 22L51 21L49 21L49 22L47 22L47 16L46 16L46 15L45 15L45 14L47 14L47 13L49 13L49 12L50 12L50 14L49 14L49 15L48 15L48 16L49 16L49 17L50 17L50 18L48 18L48 19L51 19L51 17L53 17L53 18L56 18L56 17L53 17L53 15L52 15L52 16L51 16L51 15L50 15L50 14L51 14L51 12L50 12L50 11L49 11L49 10L48 10L48 11L47 11L47 12L45 12L45 11L46 11L46 10L47 10L47 9L49 9L49 8L45 8L45 7L46 7L46 5L47 5L47 3L44 3L44 6L43 6L43 5L40 5L40 6L39 6L39 8L38 8L38 10L37 10L37 9L35 9L35 8L34 8L34 9L33 9L33 7L34 7L34 6L33 6L33 5L35 5L35 4L33 4L33 3L35 3L35 2L33 2L33 3L32 3L32 1ZM21 2L21 3L22 3L22 2ZM23 4L23 5L24 5L24 4ZM25 4L25 8L24 8L24 6L23 6L23 8L20 8L20 10L21 10L21 11L22 11L22 10L21 10L21 9L25 9L25 8L26 8L26 4ZM32 4L32 5L33 5L33 4ZM36 4L36 5L37 5L37 4ZM45 4L45 5L46 5L46 4ZM27 5L27 8L30 8L30 5ZM21 6L21 7L22 7L22 6ZM28 6L28 7L29 7L29 6ZM32 6L32 7L33 7L33 6ZM40 6L40 7L41 7L41 8L42 8L42 9L41 9L41 10L38 10L38 11L37 11L37 10L36 10L36 11L35 11L35 14L33 14L33 13L34 13L34 12L33 12L33 13L32 13L32 12L31 12L31 13L30 13L30 14L31 14L31 15L32 15L32 16L35 16L35 17L37 17L37 18L38 18L38 17L39 17L39 16L41 16L41 14L45 14L45 13L44 13L44 12L43 12L43 13L40 13L40 14L38 14L38 13L39 13L39 11L40 11L40 12L41 12L41 10L42 10L42 11L43 11L43 9L44 9L44 11L45 11L45 10L46 10L46 9L44 9L44 7L45 7L45 6L44 6L44 7L43 7L43 6L42 6L42 7L41 7L41 6ZM51 8L51 9L52 9L52 8ZM53 8L53 9L54 9L54 8ZM55 8L55 9L56 9L56 8ZM32 10L32 11L33 11L33 10ZM17 12L17 13L16 13L16 16L15 16L15 15L14 15L14 17L16 17L16 19L15 19L15 18L13 18L13 19L12 19L12 23L14 23L14 22L16 22L16 21L17 21L17 18L18 18L18 17L16 17L16 16L17 16L17 13L18 13L18 12ZM52 12L52 13L53 13L53 14L54 14L54 13L53 13L53 12ZM9 13L9 14L8 14L8 15L9 15L9 14L10 14L10 16L9 16L9 18L7 18L7 17L8 17L8 16L7 16L7 15L5 15L5 16L4 16L4 15L3 15L3 16L1 16L1 17L2 17L2 18L3 18L3 19L2 19L2 20L4 20L4 21L6 21L6 22L7 22L7 21L6 21L6 20L8 20L8 19L10 19L10 17L11 17L11 18L12 18L12 17L13 17L13 15L12 15L12 14L10 14L10 13ZM28 13L28 14L29 14L29 13ZM31 13L31 14L32 14L32 13ZM36 13L36 14L37 14L37 15L35 15L35 16L37 16L37 17L38 17L38 16L39 16L39 15L38 15L38 14L37 14L37 13ZM27 15L27 16L28 16L28 15ZM49 15L49 16L50 16L50 15ZM5 16L5 17L3 17L3 18L4 18L4 20L6 20L6 19L7 19L7 18L6 18L6 17L7 17L7 16ZM11 16L11 17L12 17L12 16ZM21 16L21 17L22 17L22 16ZM45 16L45 17L46 17L46 16ZM44 18L44 20L45 20L45 18ZM13 19L13 20L14 20L14 19ZM15 20L15 21L16 21L16 20ZM9 21L9 23L6 23L6 24L10 24L10 21ZM13 21L13 22L14 22L14 21ZM23 21L23 22L22 22L22 23L21 23L21 24L20 24L20 25L21 25L21 24L22 24L22 23L23 23L23 22L24 22L24 21ZM25 21L25 22L26 22L26 23L25 23L25 24L27 24L27 21ZM28 21L28 22L29 22L29 23L30 23L30 22L29 22L29 21ZM45 21L45 22L46 22L46 23L47 23L47 24L48 24L48 23L47 23L47 22L46 22L46 21ZM41 22L41 23L42 23L42 22ZM1 23L1 24L2 24L2 23ZM3 24L3 25L4 25L4 26L7 26L7 25L4 25L4 24ZM12 24L12 25L11 25L11 28L10 28L10 27L9 27L9 28L10 28L10 30L11 30L11 28L13 28L13 27L12 27L12 25L13 25L13 24ZM45 24L45 25L44 25L44 26L45 26L45 25L46 25L46 24ZM8 25L8 26L9 26L9 25ZM32 26L32 27L33 27L33 28L35 28L35 27L36 27L36 26L34 26L34 27L33 27L33 26ZM5 27L5 30L8 30L8 27ZM27 27L27 30L30 30L30 27ZM43 27L43 28L45 28L45 27ZM49 27L49 30L52 30L52 27ZM6 28L6 29L7 29L7 28ZM25 28L25 29L26 29L26 28ZM28 28L28 29L29 29L29 28ZM50 28L50 29L51 29L51 28ZM16 29L16 30L18 30L18 29ZM39 29L39 30L38 30L38 32L39 32L39 31L41 31L41 30L44 30L44 29ZM2 31L2 33L3 33L3 34L2 34L2 36L4 36L4 38L3 38L3 40L4 40L4 38L5 38L5 39L6 39L6 38L7 38L7 37L6 37L6 36L9 36L9 37L10 37L10 36L9 36L9 35L5 35L5 36L4 36L4 35L3 35L3 34L5 34L5 33L6 33L6 34L7 34L7 33L6 33L6 32L7 32L7 31L6 31L6 32L4 32L4 33L3 33L3 31ZM19 31L19 32L18 32L18 33L19 33L19 34L20 34L20 36L23 36L23 35L22 35L22 33L21 33L21 32L20 32L20 31ZM31 31L31 33L29 33L29 32L28 32L28 33L29 33L29 34L30 34L30 36L29 36L29 37L31 37L31 38L29 38L29 39L33 39L33 40L35 40L35 42L37 42L37 43L36 43L36 44L35 44L35 43L34 43L34 42L33 42L33 41L32 41L32 40L30 40L30 41L29 41L29 42L28 42L28 44L27 44L27 43L24 43L24 42L25 42L25 41L24 41L24 40L23 40L23 41L24 41L24 42L22 42L22 41L21 41L21 42L20 42L20 43L21 43L21 44L20 44L20 45L21 45L21 44L22 44L22 45L23 45L23 46L24 46L24 47L25 47L25 48L26 48L26 47L28 47L28 46L27 46L27 45L28 45L28 44L33 44L33 43L34 43L34 45L37 45L37 47L36 47L36 48L34 48L34 49L36 49L36 50L38 50L38 49L39 49L39 48L41 48L41 50L42 50L42 51L43 51L43 49L44 49L44 50L46 50L46 49L44 49L44 48L46 48L46 47L47 47L47 48L48 48L48 47L50 47L50 46L49 46L49 45L48 45L48 46L44 46L44 43L46 43L46 42L44 42L44 41L43 41L43 40L45 40L45 41L47 41L47 39L43 39L43 40L41 40L41 39L38 39L38 40L35 40L35 39L37 39L37 38L38 38L38 37L40 37L40 38L43 38L43 37L44 37L44 38L45 38L45 37L46 37L46 36L45 36L45 35L47 35L47 34L45 34L45 33L43 33L43 32L41 32L41 33L39 33L39 34L40 34L40 35L38 35L38 33L37 33L37 32L35 32L35 34L37 34L37 35L38 35L38 37L37 37L37 36L35 36L35 35L34 35L34 34L33 34L33 35L32 35L32 31ZM9 32L9 33L8 33L8 34L10 34L10 32ZM33 32L33 33L34 33L34 32ZM48 32L48 33L49 33L49 32ZM50 32L50 34L49 34L49 35L50 35L50 36L52 36L52 35L53 35L53 34L52 34L52 33L51 33L51 32ZM20 33L20 34L21 34L21 33ZM12 34L12 35L13 35L13 34ZM42 34L42 35L41 35L41 36L40 36L40 37L43 37L43 36L44 36L44 37L45 37L45 36L44 36L44 35L45 35L45 34ZM50 34L50 35L52 35L52 34ZM33 35L33 36L32 36L32 37L33 37L33 38L34 38L34 39L35 39L35 37L34 37L34 35ZM26 36L26 40L27 40L27 41L26 41L26 42L27 42L27 41L28 41L28 39L27 39L27 38L28 38L28 37L27 37L27 36ZM19 38L19 39L20 39L20 38ZM38 40L38 42L39 42L39 41L41 41L41 40ZM30 41L30 42L32 42L32 43L33 43L33 42L32 42L32 41ZM21 42L21 43L22 43L22 42ZM41 42L41 44L40 44L40 43L39 43L39 45L38 45L38 46L39 46L39 47L38 47L38 48L37 48L37 49L38 49L38 48L39 48L39 47L40 47L40 46L39 46L39 45L41 45L41 44L42 44L42 42ZM43 42L43 43L44 43L44 42ZM51 42L51 43L53 43L53 42ZM23 43L23 45L24 45L24 43ZM17 44L17 45L18 45L18 44ZM25 44L25 47L26 47L26 45L27 45L27 44ZM41 46L41 48L42 48L42 49L43 49L43 48L44 48L44 47L43 47L43 46ZM42 47L42 48L43 48L43 47ZM27 49L27 52L30 52L30 49ZM49 49L49 52L52 52L52 49ZM28 50L28 51L29 51L29 50ZM50 50L50 51L51 51L51 50ZM54 50L54 51L55 51L55 50ZM19 54L19 55L20 55L20 54ZM41 54L41 55L42 55L42 56L43 56L43 55L42 55L42 54ZM15 55L15 56L16 56L16 55ZM48 55L48 56L49 56L49 55ZM50 55L50 56L51 56L51 55ZM53 55L53 56L55 56L55 57L56 57L56 56L55 56L55 55ZM25 56L25 57L26 57L26 56ZM0 0L0 7L7 7L7 0ZM1 1L1 6L6 6L6 1ZM2 2L2 5L5 5L5 2ZM50 0L50 7L57 7L57 0ZM51 1L51 6L56 6L56 1ZM52 2L52 5L55 5L55 2ZM0 50L0 57L7 57L7 50ZM1 51L1 56L6 56L6 51ZM2 52L2 55L5 55L5 52Z" fill="#000000"/></g></g></svg>
