<?xml version="1.0" encoding="UTF-8"?>
<svg xmlns="http://www.w3.org/2000/svg" version="1.1" width="300" height="300" viewBox="0 0 300 300"><rect x="0" y="0" width="300" height="300" fill="#fefefe"/><g transform="scale(4.615)"><g transform="translate(4,4)"><path fill-rule="evenodd" d="M8 0L8 1L10 1L10 7L9 7L9 6L8 6L8 7L9 7L9 8L8 8L8 9L9 9L9 10L10 10L10 11L12 11L12 12L13 12L13 13L14 13L14 14L13 14L13 17L12 17L12 19L13 19L13 21L12 21L12 20L11 20L11 19L9 19L9 20L8 20L8 18L11 18L11 16L9 16L9 17L7 17L7 16L8 16L8 15L7 15L7 14L9 14L9 15L10 15L10 14L9 14L9 13L10 13L10 12L9 12L9 11L8 11L8 10L6 10L6 9L7 9L7 8L6 8L6 9L5 9L5 10L4 10L4 8L0 8L0 9L2 9L2 10L0 10L0 11L5 11L5 12L0 12L0 13L1 13L1 15L0 15L0 17L1 17L1 15L3 15L3 14L4 14L4 16L5 16L5 17L4 17L4 19L2 19L2 18L3 18L3 17L2 17L2 18L0 18L0 19L2 19L2 20L1 20L1 22L0 22L0 23L1 23L1 24L3 24L3 26L2 26L2 27L1 27L1 26L0 26L0 28L3 28L3 29L4 29L4 32L5 32L5 31L7 31L7 32L6 32L6 33L1 33L1 32L2 32L2 31L3 31L3 30L2 30L2 31L0 31L0 34L1 34L1 35L0 35L0 36L2 36L2 38L3 38L3 39L4 39L4 37L3 37L3 36L4 36L4 35L5 35L5 38L6 38L6 39L5 39L5 40L6 40L6 41L4 41L4 40L3 40L3 41L2 41L2 39L1 39L1 38L0 38L0 39L1 39L1 41L0 41L0 44L1 44L1 43L2 43L2 44L3 44L3 45L1 45L1 46L0 46L0 48L5 48L5 47L7 47L7 46L8 46L8 48L9 48L9 49L8 49L8 50L9 50L9 52L10 52L10 53L8 53L8 57L9 57L9 54L10 54L10 53L11 53L11 56L12 56L12 53L11 53L11 52L10 52L10 51L12 51L12 50L13 50L13 51L14 51L14 53L13 53L13 55L14 55L14 53L15 53L15 56L16 56L16 57L18 57L18 56L17 56L17 54L18 54L18 53L17 53L17 54L16 54L16 53L15 53L15 51L14 51L14 50L16 50L16 51L17 51L17 50L16 50L16 49L14 49L14 47L15 47L15 46L13 46L13 45L16 45L16 44L17 44L17 43L15 43L15 44L14 44L14 41L13 41L13 39L14 39L14 40L15 40L15 42L18 42L18 43L19 43L19 45L17 45L17 46L16 46L16 47L17 47L17 49L19 49L19 50L18 50L18 51L19 51L19 55L20 55L20 56L21 56L21 57L24 57L24 56L26 56L26 54L25 54L25 53L29 53L29 54L31 54L31 55L30 55L30 56L31 56L31 57L32 57L32 55L33 55L33 54L36 54L36 55L34 55L34 56L33 56L33 57L36 57L36 55L37 55L37 54L36 54L36 53L35 53L35 52L36 52L36 51L39 51L39 50L40 50L40 49L39 49L39 48L38 48L38 49L37 49L37 48L35 48L35 47L38 47L38 45L39 45L39 47L43 47L43 49L44 49L44 48L45 48L45 49L47 49L47 48L48 48L48 52L47 52L47 51L46 51L46 50L45 50L45 51L44 51L44 50L43 50L43 51L42 51L42 52L41 52L41 51L40 51L40 52L39 52L39 54L38 54L38 57L41 57L41 56L42 56L42 57L43 57L43 55L44 55L44 56L46 56L46 57L47 57L47 56L46 56L46 55L48 55L48 57L51 57L51 54L52 54L52 53L53 53L53 54L54 54L54 52L55 52L55 51L56 51L56 53L55 53L55 54L56 54L56 53L57 53L57 51L56 51L56 49L57 49L57 48L56 48L56 49L55 49L55 48L54 48L54 47L57 47L57 44L52 44L52 43L53 43L53 42L54 42L54 43L56 43L56 41L57 41L57 40L56 40L56 41L55 41L55 42L54 42L54 41L53 41L53 40L55 40L55 38L56 38L56 39L57 39L57 38L56 38L56 37L55 37L55 36L54 36L54 35L56 35L56 36L57 36L57 34L55 34L55 33L57 33L57 31L56 31L56 30L57 30L57 28L56 28L56 24L55 24L55 27L53 27L53 26L52 26L52 25L51 25L51 24L53 24L53 25L54 25L54 24L53 24L53 20L50 20L50 19L51 19L51 18L50 18L50 19L47 19L47 18L48 18L48 17L45 17L45 16L44 16L44 15L43 15L43 14L42 14L42 17L41 17L41 18L39 18L39 19L40 19L40 20L39 20L39 22L38 22L38 21L36 21L36 20L38 20L38 19L36 19L36 20L35 20L35 17L34 17L34 16L35 16L35 15L39 15L39 17L40 17L40 16L41 16L41 14L40 14L40 13L39 13L39 12L40 12L40 11L39 11L39 10L38 10L38 9L37 9L37 11L38 11L38 12L35 12L35 11L36 11L36 10L35 10L35 11L34 11L34 10L33 10L33 14L30 14L30 13L28 13L28 12L26 12L26 13L25 13L25 14L24 14L24 12L25 12L25 11L26 11L26 10L27 10L27 11L29 11L29 10L32 10L32 9L31 9L31 6L32 6L32 8L33 8L33 6L34 6L34 9L36 9L36 8L37 8L37 6L38 6L38 7L39 7L39 9L41 9L41 10L43 10L43 11L42 11L42 12L43 12L43 13L44 13L44 14L46 14L46 13L44 13L44 10L45 10L45 11L47 11L47 10L49 10L49 16L50 16L50 17L52 17L52 16L50 16L50 15L51 15L51 13L52 13L52 14L53 14L53 13L54 13L54 10L52 10L52 11L53 11L53 13L52 13L52 12L51 12L51 10L50 10L50 8L49 8L49 6L48 6L48 7L47 7L47 5L48 5L48 0L46 0L46 1L47 1L47 2L46 2L46 3L47 3L47 5L46 5L46 4L44 4L44 3L45 3L45 1L44 1L44 2L41 2L41 1L43 1L43 0L41 0L41 1L40 1L40 0L39 0L39 1L40 1L40 2L41 2L41 4L39 4L39 2L37 2L37 1L38 1L38 0L37 0L37 1L36 1L36 0L35 0L35 1L34 1L34 2L33 2L33 1L32 1L32 2L31 2L31 4L30 4L30 2L29 2L29 4L26 4L26 1L25 1L25 0L23 0L23 1L25 1L25 2L24 2L24 3L23 3L23 4L22 4L22 8L21 8L21 11L19 11L19 12L18 12L18 9L17 9L17 11L16 11L16 10L15 10L15 11L14 11L14 9L13 9L13 8L10 8L10 7L11 7L11 6L12 6L12 7L13 7L13 6L14 6L14 8L15 8L15 9L16 9L16 8L15 8L15 6L16 6L16 7L17 7L17 5L18 5L18 7L19 7L19 8L20 8L20 7L21 7L21 5L20 5L20 4L19 4L19 3L20 3L20 2L19 2L19 1L20 1L20 0L19 0L19 1L18 1L18 0L17 0L17 1L16 1L16 3L17 3L17 5L15 5L15 4L14 4L14 3L12 3L12 2L13 2L13 1L10 1L10 0ZM14 0L14 1L15 1L15 0ZM21 0L21 1L22 1L22 0ZM29 0L29 1L31 1L31 0ZM17 1L17 3L18 3L18 1ZM27 1L27 2L28 2L28 1ZM35 1L35 2L36 2L36 1ZM8 2L8 5L9 5L9 2ZM21 2L21 3L22 3L22 2ZM11 3L11 4L12 4L12 6L13 6L13 5L14 5L14 4L12 4L12 3ZM32 3L32 4L31 4L31 5L32 5L32 6L33 6L33 4L34 4L34 6L35 6L35 7L36 7L36 6L37 6L37 5L36 5L36 4L35 4L35 3ZM37 3L37 4L38 4L38 3ZM18 4L18 5L19 5L19 4ZM24 4L24 6L23 6L23 7L24 7L24 8L25 8L25 9L26 9L26 6L25 6L25 5L26 5L26 4ZM41 4L41 7L40 7L40 5L38 5L38 6L39 6L39 7L40 7L40 8L42 8L42 9L43 9L43 10L44 10L44 9L45 9L45 10L47 10L47 9L48 9L48 8L47 8L47 7L46 7L46 5L43 5L43 4ZM27 5L27 8L30 8L30 5ZM19 6L19 7L20 7L20 6ZM24 6L24 7L25 7L25 6ZM28 6L28 7L29 7L29 6ZM42 6L42 8L43 8L43 6ZM44 6L44 7L45 7L45 6ZM45 8L45 9L47 9L47 8ZM52 8L52 9L55 9L55 11L56 11L56 12L57 12L57 10L56 10L56 9L57 9L57 8L56 8L56 9L55 9L55 8ZM12 9L12 10L13 10L13 9ZM19 9L19 10L20 10L20 9ZM22 9L22 10L23 10L23 11L21 11L21 12L19 12L19 13L18 13L18 12L17 12L17 13L16 13L16 11L15 11L15 15L14 15L14 16L15 16L15 15L16 15L16 16L17 16L17 18L16 18L16 19L15 19L15 18L13 18L13 19L15 19L15 20L14 20L14 22L15 22L15 23L16 23L16 24L13 24L13 25L14 25L14 27L17 27L17 32L16 32L16 31L15 31L15 30L16 30L16 29L15 29L15 30L14 30L14 28L11 28L11 25L12 25L12 23L13 23L13 22L12 22L12 21L10 21L10 20L9 20L9 21L10 21L10 22L12 22L12 23L11 23L11 25L10 25L10 26L9 26L9 29L10 29L10 30L9 30L9 31L8 31L8 32L7 32L7 33L6 33L6 34L5 34L5 35L6 35L6 36L7 36L7 37L6 37L6 38L7 38L7 39L6 39L6 40L7 40L7 39L8 39L8 41L10 41L10 43L12 43L12 44L11 44L11 45L13 45L13 43L12 43L12 42L13 42L13 41L12 41L12 38L11 38L11 39L10 39L10 40L9 40L9 39L8 39L8 38L7 38L7 37L9 37L9 38L10 38L10 36L11 36L11 37L12 37L12 36L11 36L11 35L14 35L14 34L12 34L12 33L13 33L13 32L11 32L11 31L12 31L12 29L13 29L13 30L14 30L14 33L15 33L15 34L17 34L17 36L15 36L15 37L14 37L14 36L13 36L13 37L14 37L14 38L17 38L17 36L18 36L18 35L20 35L20 34L21 34L21 33L20 33L20 32L18 32L18 31L19 31L19 30L20 30L20 31L21 31L21 32L22 32L22 31L23 31L23 33L22 33L22 36L19 36L19 37L18 37L18 39L19 39L19 37L20 37L20 38L21 38L21 39L23 39L23 40L22 40L22 41L20 41L20 40L17 40L17 39L16 39L16 40L17 40L17 41L19 41L19 43L21 43L21 44L20 44L20 47L19 47L19 46L17 46L17 47L18 47L18 48L19 48L19 49L20 49L20 48L21 48L21 50L20 50L20 51L21 51L21 50L22 50L22 49L23 49L23 51L22 51L22 53L20 53L20 55L22 55L22 53L23 53L23 52L24 52L24 53L25 53L25 52L26 52L26 50L25 50L25 47L26 47L26 48L27 48L27 47L28 47L28 48L32 48L32 49L31 49L31 53L32 53L32 50L33 50L33 52L35 52L35 51L34 51L34 50L35 50L35 48L34 48L34 50L33 50L33 47L34 47L34 46L35 46L35 44L36 44L36 45L38 45L38 44L39 44L39 43L38 43L38 44L37 44L37 42L41 42L41 40L40 40L40 41L37 41L37 40L38 40L38 39L39 39L39 38L38 38L38 39L37 39L37 37L39 37L39 36L40 36L40 37L41 37L41 36L42 36L42 34L41 34L41 35L37 35L37 37L35 37L35 36L36 36L36 35L35 35L35 33L34 33L34 32L35 32L35 31L37 31L37 32L36 32L36 33L37 33L37 32L38 32L38 34L39 34L39 31L40 31L40 32L41 32L41 31L44 31L44 33L45 33L45 34L46 34L46 35L45 35L45 36L44 36L44 37L42 37L42 38L44 38L44 39L45 39L45 40L46 40L46 38L47 38L47 37L49 37L49 38L48 38L48 39L47 39L47 40L50 40L50 41L47 41L47 42L46 42L46 43L47 43L47 42L50 42L50 43L49 43L49 44L43 44L43 43L42 43L42 45L44 45L44 47L45 47L45 48L46 48L46 46L47 46L47 47L49 47L49 48L50 48L50 47L49 47L49 46L47 46L47 45L49 45L49 44L51 44L51 42L50 42L50 41L52 41L52 40L50 40L50 39L54 39L54 38L55 38L55 37L54 37L54 38L53 38L53 36L52 36L52 35L51 35L51 36L50 36L50 37L49 37L49 36L47 36L47 37L46 37L46 38L45 38L45 36L46 36L46 35L47 35L47 34L48 34L48 35L49 35L49 34L50 34L50 33L49 33L49 32L48 32L48 30L47 30L47 33L45 33L45 31L44 31L44 30L46 30L46 26L47 26L47 23L44 23L44 25L45 25L45 24L46 24L46 26L45 26L45 29L44 29L44 28L43 28L43 27L42 27L42 26L43 26L43 22L42 22L42 24L41 24L41 23L40 23L40 25L41 25L41 26L38 26L38 27L39 27L39 28L40 28L40 30L39 30L39 29L38 29L38 30L37 30L37 27L35 27L35 25L34 25L34 27L35 27L35 28L34 28L34 29L36 29L36 30L35 30L35 31L34 31L34 32L32 32L32 29L31 29L31 34L30 34L30 35L29 35L29 33L30 33L30 31L29 31L29 32L28 32L28 31L25 31L25 30L26 30L26 28L25 28L25 25L27 25L27 26L28 26L28 25L29 25L29 26L31 26L31 25L29 25L29 24L31 24L31 23L32 23L32 22L33 22L33 24L32 24L32 25L33 25L33 24L35 24L35 23L36 23L36 24L37 24L37 23L38 23L38 24L39 24L39 23L38 23L38 22L35 22L35 20L34 20L34 19L32 19L32 20L31 20L31 17L32 17L32 18L33 18L33 17L32 17L32 16L29 16L29 15L28 15L28 16L29 16L29 17L24 17L24 18L23 18L23 15L24 15L24 14L23 14L23 13L22 13L22 12L23 12L23 11L25 11L25 10L24 10L24 9ZM28 9L28 10L29 10L29 9ZM6 11L6 12L7 12L7 11ZM30 11L30 12L31 12L31 13L32 13L32 12L31 12L31 11ZM8 12L8 13L9 13L9 12ZM34 12L34 14L33 14L33 15L35 15L35 14L37 14L37 13L35 13L35 12ZM50 12L50 13L51 13L51 12ZM2 13L2 14L3 14L3 13ZM4 13L4 14L5 14L5 15L6 15L6 16L7 16L7 15L6 15L6 14L7 14L7 13ZM19 13L19 14L18 14L18 15L19 15L19 16L20 16L20 15L21 15L21 13ZM26 13L26 14L25 14L25 15L26 15L26 16L27 16L27 13ZM11 14L11 15L12 15L12 14ZM16 14L16 15L17 15L17 14ZM19 14L19 15L20 15L20 14ZM47 14L47 15L46 15L46 16L48 16L48 14ZM54 14L54 15L53 15L53 17L54 17L54 18L52 18L52 19L55 19L55 20L54 20L54 21L55 21L55 20L56 20L56 22L55 22L55 23L57 23L57 19L56 19L56 18L57 18L57 15L55 15L55 14ZM54 16L54 17L55 17L55 18L56 18L56 17L55 17L55 16ZM6 17L6 18L5 18L5 19L4 19L4 20L3 20L3 21L2 21L2 22L3 22L3 24L4 24L4 22L5 22L5 25L4 25L4 26L5 26L5 25L6 25L6 26L8 26L8 25L9 25L9 24L10 24L10 23L9 23L9 22L7 22L7 21L6 21L6 20L7 20L7 19L6 19L6 18L7 18L7 17ZM18 17L18 18L19 18L19 19L20 19L20 20L21 20L21 21L23 21L23 22L22 22L22 23L23 23L23 24L24 24L24 25L25 25L25 22L27 22L27 23L26 23L26 24L27 24L27 23L30 23L30 22L31 22L31 20L30 20L30 17L29 17L29 18L28 18L28 19L25 19L25 18L24 18L24 19L25 19L25 22L24 22L24 21L23 21L23 20L21 20L21 18L22 18L22 17L21 17L21 18L19 18L19 17ZM36 17L36 18L37 18L37 17ZM42 17L42 18L41 18L41 21L44 21L44 22L45 22L45 19L44 19L44 18L45 18L45 17ZM42 18L42 19L43 19L43 18ZM5 19L5 20L4 20L4 21L5 21L5 22L6 22L6 23L7 23L7 22L6 22L6 21L5 21L5 20L6 20L6 19ZM17 19L17 20L16 20L16 23L18 23L18 24L17 24L17 27L19 27L19 28L18 28L18 29L20 29L20 27L21 27L21 24L20 24L20 23L21 23L21 22L19 22L19 21L18 21L18 19ZM28 19L28 20L29 20L29 21L27 21L27 20L26 20L26 21L27 21L27 22L29 22L29 21L30 21L30 20L29 20L29 19ZM46 19L46 22L47 22L47 19ZM49 20L49 24L48 24L48 26L49 26L49 25L50 25L50 24L51 24L51 23L52 23L52 22L51 22L51 21L50 21L50 20ZM17 21L17 22L18 22L18 23L19 23L19 22L18 22L18 21ZM8 23L8 24L6 24L6 25L8 25L8 24L9 24L9 23ZM19 24L19 25L18 25L18 26L19 26L19 25L20 25L20 24ZM15 25L15 26L16 26L16 25ZM22 25L22 27L23 27L23 25ZM3 27L3 28L4 28L4 27ZM5 27L5 30L8 30L8 27ZM27 27L27 30L30 30L30 27ZM32 27L32 28L33 28L33 27ZM41 27L41 30L42 30L42 29L43 29L43 28L42 28L42 27ZM49 27L49 30L52 30L52 27ZM6 28L6 29L7 29L7 28ZM10 28L10 29L11 29L11 28ZM28 28L28 29L29 29L29 28ZM50 28L50 29L51 29L51 28ZM53 28L53 29L54 29L54 28ZM21 29L21 30L23 30L23 31L24 31L24 29ZM55 29L55 30L56 30L56 29ZM38 30L38 31L39 31L39 30ZM51 31L51 32L52 32L52 34L54 34L54 32L55 32L55 31L53 31L53 32L52 32L52 31ZM8 32L8 33L10 33L10 34L8 34L8 35L7 35L7 34L6 34L6 35L7 35L7 36L8 36L8 35L9 35L9 36L10 36L10 35L11 35L11 32ZM15 32L15 33L16 33L16 32ZM24 32L24 33L23 33L23 35L24 35L24 34L25 34L25 32ZM27 32L27 33L28 33L28 32ZM42 32L42 33L43 33L43 32ZM17 33L17 34L18 34L18 33ZM19 33L19 34L20 34L20 33ZM2 34L2 35L4 35L4 34ZM27 34L27 36L23 36L23 37L22 37L22 38L23 38L23 39L24 39L24 41L22 41L22 44L21 44L21 46L22 46L22 47L21 47L21 48L23 48L23 49L24 49L24 47L25 47L25 45L26 45L26 46L27 46L27 45L28 45L28 44L30 44L30 45L29 45L29 46L31 46L31 47L33 47L33 45L34 45L34 44L35 44L35 43L34 43L34 42L36 42L36 41L34 41L34 40L35 40L35 39L36 39L36 38L34 38L34 37L33 37L33 38L32 38L32 36L34 36L34 35L32 35L32 36L29 36L29 35L28 35L28 34ZM43 34L43 35L44 35L44 34ZM27 36L27 38L29 38L29 36ZM51 36L51 37L50 37L50 38L52 38L52 36ZM24 37L24 39L25 39L25 41L24 41L24 42L25 42L25 43L26 43L26 45L27 45L27 43L29 43L29 42L25 42L25 41L26 41L26 39L25 39L25 38L26 38L26 37ZM30 38L30 39L28 39L28 40L27 40L27 41L28 41L28 40L33 40L33 39L32 39L32 38ZM42 39L42 42L44 42L44 43L45 43L45 41L43 41L43 39ZM1 41L1 42L2 42L2 43L3 43L3 44L5 44L5 43L6 43L6 44L7 44L7 45L4 45L4 46L3 46L3 47L5 47L5 46L7 46L7 45L8 45L8 43L9 43L9 42L7 42L7 41L6 41L6 42L4 42L4 43L3 43L3 42L2 42L2 41ZM11 41L11 42L12 42L12 41ZM6 42L6 43L7 43L7 42ZM32 42L32 43L30 43L30 44L31 44L31 46L32 46L32 45L33 45L33 42ZM40 43L40 44L41 44L41 43ZM9 44L9 45L10 45L10 44ZM22 44L22 46L23 46L23 44ZM50 45L50 46L51 46L51 48L52 48L52 46L53 46L53 45ZM54 45L54 46L56 46L56 45ZM1 46L1 47L2 47L2 46ZM9 46L9 47L10 47L10 48L11 48L11 49L10 49L10 50L12 50L12 48L11 48L11 46ZM6 48L6 49L7 49L7 48ZM41 48L41 49L42 49L42 48ZM53 48L53 50L55 50L55 49L54 49L54 48ZM27 49L27 52L30 52L30 49ZM36 49L36 50L37 50L37 49ZM49 49L49 52L52 52L52 49ZM24 50L24 51L25 51L25 50ZM28 50L28 51L29 51L29 50ZM50 50L50 51L51 51L51 50ZM45 51L45 52L46 52L46 53L47 53L47 54L50 54L50 53L47 53L47 52L46 52L46 51ZM40 52L40 54L41 54L41 55L42 55L42 54L43 54L43 52L42 52L42 54L41 54L41 52ZM23 54L23 56L24 56L24 55L25 55L25 54ZM44 54L44 55L45 55L45 54ZM27 55L27 56L28 56L28 55ZM39 55L39 56L40 56L40 55ZM56 55L56 56L57 56L57 55ZM52 56L52 57L53 57L53 56ZM54 56L54 57L55 57L55 56ZM0 0L0 7L7 7L7 0ZM1 1L1 6L6 6L6 1ZM2 2L2 5L5 5L5 2ZM50 0L50 7L57 7L57 0ZM51 1L51 6L56 6L56 1ZM52 2L52 5L55 5L55 2ZM0 50L0 57L7 57L7 50ZM1 51L1 56L6 56L6 51ZM2 52L2 55L5 55L5 52Z" fill="#000000"/></g></g></svg>
