<?xml version="1.0" encoding="UTF-8"?>
<svg xmlns="http://www.w3.org/2000/svg" version="1.1" width="300" height="300" viewBox="0 0 300 300"><rect x="0" y="0" width="300" height="300" fill="#fefefe"/><g transform="scale(4.615)"><g transform="translate(4,4)"><path fill-rule="evenodd" d="M9 0L9 1L8 1L8 2L9 2L9 3L8 3L8 4L9 4L9 3L13 3L13 4L11 4L11 5L8 5L8 7L9 7L9 8L6 8L6 9L5 9L5 8L0 8L0 10L1 10L1 12L3 12L3 13L4 13L4 14L2 14L2 13L1 13L1 14L0 14L0 15L1 15L1 16L0 16L0 19L1 19L1 20L0 20L0 24L1 24L1 25L2 25L2 24L1 24L1 20L2 20L2 21L5 21L5 20L6 20L6 21L7 21L7 22L5 22L5 24L4 24L4 22L2 22L2 23L3 23L3 27L2 27L2 26L0 26L0 28L1 28L1 27L2 27L2 28L4 28L4 30L3 30L3 31L9 31L9 30L10 30L10 31L11 31L11 32L8 32L8 33L7 33L7 32L5 32L5 33L4 33L4 32L3 32L3 34L5 34L5 35L4 35L4 37L3 37L3 39L2 39L2 36L3 36L3 35L2 35L2 34L0 34L0 35L2 35L2 36L0 36L0 37L1 37L1 39L2 39L2 40L1 40L1 41L0 41L0 44L1 44L1 45L2 45L2 47L1 47L1 46L0 46L0 48L5 48L5 47L7 47L7 46L6 46L6 45L8 45L8 44L5 44L5 43L7 43L7 42L8 42L8 43L9 43L9 44L10 44L10 45L9 45L9 46L8 46L8 47L9 47L9 48L10 48L10 49L8 49L8 51L9 51L9 50L10 50L10 52L8 52L8 57L14 57L14 56L12 56L12 54L14 54L14 55L16 55L16 56L15 56L15 57L16 57L16 56L17 56L17 57L20 57L20 56L18 56L18 55L20 55L20 54L19 54L19 53L20 53L20 52L22 52L22 51L21 51L21 50L25 50L25 49L26 49L26 52L24 52L24 53L23 53L23 54L22 54L22 53L21 53L21 54L22 54L22 56L23 56L23 57L26 57L26 56L24 56L24 55L23 55L23 54L24 54L24 53L27 53L27 54L30 54L30 53L31 53L31 49L32 49L32 50L33 50L33 49L36 49L36 50L35 50L35 54L36 54L36 56L35 56L35 55L34 55L34 54L33 54L33 53L34 53L34 52L33 52L33 51L32 51L32 52L33 52L33 53L32 53L32 54L31 54L31 56L30 56L30 55L29 55L29 56L27 56L27 57L29 57L29 56L30 56L30 57L31 57L31 56L35 56L35 57L39 57L39 56L41 56L41 54L42 54L42 55L44 55L44 56L43 56L43 57L44 57L44 56L45 56L45 57L46 57L46 56L45 56L45 55L44 55L44 54L45 54L45 53L44 53L44 52L45 52L45 51L46 51L46 52L47 52L47 50L48 50L48 53L47 53L47 57L48 57L48 56L50 56L50 57L52 57L52 55L51 55L51 53L52 53L52 54L55 54L55 53L56 53L56 50L55 50L55 48L56 48L56 49L57 49L57 48L56 48L56 46L57 46L57 45L56 45L56 44L55 44L55 43L56 43L56 42L55 42L55 39L57 39L57 37L56 37L56 35L53 35L53 34L52 34L52 33L53 33L53 32L56 32L56 33L54 33L54 34L57 34L57 32L56 32L56 30L57 30L57 27L56 27L56 26L57 26L57 25L56 25L56 22L57 22L57 20L56 20L56 18L57 18L57 17L56 17L56 16L57 16L57 15L56 15L56 14L57 14L57 12L56 12L56 8L55 8L55 10L54 10L54 11L52 11L52 10L51 10L51 11L50 11L50 12L49 12L49 11L47 11L47 10L50 10L50 8L49 8L49 6L48 6L48 7L47 7L47 5L48 5L48 0L45 0L45 2L44 2L44 3L43 3L43 4L40 4L40 5L39 5L39 6L38 6L38 7L37 7L37 5L38 5L38 2L39 2L39 3L42 3L42 2L43 2L43 0L41 0L41 1L40 1L40 0L39 0L39 1L38 1L38 0L37 0L37 1L38 1L38 2L37 2L37 3L36 3L36 0L35 0L35 1L33 1L33 0L30 0L30 1L26 1L26 0L23 0L23 2L22 2L22 3L23 3L23 4L19 4L19 3L21 3L21 1L22 1L22 0L21 0L21 1L20 1L20 2L19 2L19 3L18 3L18 2L17 2L17 5L18 5L18 4L19 4L19 5L20 5L20 7L19 7L19 6L18 6L18 7L17 7L17 6L16 6L16 7L15 7L15 5L16 5L16 4L15 4L15 5L14 5L14 8L13 8L13 4L14 4L14 2L15 2L15 3L16 3L16 1L14 1L14 0L11 0L11 2L9 2L9 1L10 1L10 0ZM17 0L17 1L18 1L18 0ZM12 1L12 2L14 2L14 1ZM30 1L30 2L28 2L28 3L27 3L27 2L23 2L23 3L26 3L26 4L25 4L25 8L26 8L26 4L31 4L31 8L32 8L32 10L31 10L31 11L29 11L29 10L27 10L27 11L26 11L26 12L25 12L25 10L23 10L23 12L25 12L25 14L24 14L24 16L23 16L23 15L20 15L20 14L21 14L21 13L22 13L22 14L23 14L23 13L22 13L22 12L19 12L19 13L20 13L20 14L19 14L19 17L20 17L20 18L21 18L21 19L22 19L22 20L20 20L20 19L19 19L19 18L17 18L17 17L16 17L16 16L17 16L17 15L18 15L18 14L17 14L17 13L18 13L18 12L17 12L17 11L18 11L18 10L19 10L19 9L16 9L16 8L17 8L17 7L16 7L16 8L14 8L14 10L15 10L15 11L16 11L16 12L15 12L15 13L13 13L13 12L14 12L14 11L13 11L13 10L12 10L12 11L13 11L13 12L12 12L12 13L11 13L11 9L13 9L13 8L11 8L11 7L12 7L12 5L11 5L11 7L10 7L10 6L9 6L9 7L10 7L10 8L11 8L11 9L10 9L10 10L8 10L8 9L6 9L6 10L5 10L5 12L4 12L4 13L6 13L6 14L7 14L7 15L5 15L5 14L4 14L4 16L7 16L7 15L8 15L8 16L10 16L10 17L8 17L8 18L7 18L7 17L5 17L5 19L2 19L2 18L4 18L4 17L3 17L3 15L2 15L2 17L1 17L1 19L2 19L2 20L5 20L5 19L6 19L6 20L7 20L7 21L8 21L8 20L9 20L9 21L10 21L10 22L7 22L7 23L6 23L6 24L5 24L5 25L4 25L4 26L10 26L10 28L9 28L9 29L10 29L10 30L11 30L11 31L12 31L12 32L11 32L11 33L10 33L10 34L9 34L9 33L8 33L8 35L6 35L6 36L7 36L7 37L6 37L6 38L5 38L5 37L4 37L4 39L6 39L6 40L5 40L5 42L3 42L3 40L2 40L2 41L1 41L1 44L2 44L2 45L4 45L4 46L3 46L3 47L5 47L5 44L4 44L4 43L5 43L5 42L7 42L7 41L6 41L6 40L8 40L8 39L9 39L9 42L10 42L10 43L11 43L11 44L13 44L13 43L11 43L11 42L12 42L12 41L15 41L15 45L14 45L14 47L13 47L13 45L12 45L12 47L11 47L11 46L10 46L10 47L11 47L11 48L14 48L14 49L16 49L16 51L15 51L15 52L16 52L16 53L15 53L15 54L16 54L16 53L17 53L17 52L16 52L16 51L18 51L18 52L20 52L20 51L18 51L18 49L16 49L16 48L14 48L14 47L15 47L15 46L17 46L17 45L18 45L18 44L17 44L17 45L16 45L16 43L18 43L18 42L19 42L19 41L20 41L20 42L21 42L21 43L20 43L20 44L19 44L19 45L20 45L20 46L21 46L21 45L22 45L22 46L23 46L23 47L20 47L20 48L19 48L19 47L18 47L18 48L19 48L19 49L20 49L20 50L21 50L21 49L23 49L23 48L24 48L24 49L25 49L25 48L28 48L28 47L29 47L29 45L31 45L31 44L30 44L30 43L29 43L29 44L25 44L25 46L23 46L23 45L24 45L24 43L23 43L23 45L22 45L22 44L21 44L21 43L22 43L22 42L23 42L23 40L24 40L24 41L25 41L25 43L27 43L27 42L32 42L32 43L33 43L33 44L32 44L32 49L33 49L33 48L36 48L36 47L37 47L37 46L35 46L35 45L34 45L34 43L35 43L35 44L36 44L36 43L37 43L37 42L35 42L35 40L38 40L38 42L39 42L39 41L42 41L42 40L44 40L44 41L43 41L43 44L44 44L44 45L43 45L43 46L41 46L41 48L39 48L39 47L40 47L40 46L39 46L39 45L41 45L41 44L42 44L42 43L40 43L40 44L39 44L39 45L38 45L38 46L39 46L39 47L38 47L38 48L37 48L37 49L38 49L38 50L36 50L36 52L37 52L37 53L38 53L38 54L37 54L37 56L39 56L39 55L38 55L38 54L40 54L40 53L43 53L43 54L44 54L44 53L43 53L43 51L42 51L42 50L41 50L41 48L42 48L42 49L43 49L43 50L47 50L47 49L48 49L48 48L49 48L49 47L48 47L48 44L49 44L49 46L50 46L50 47L51 47L51 48L53 48L53 47L54 47L54 46L56 46L56 45L55 45L55 44L54 44L54 46L53 46L53 45L52 45L52 44L53 44L53 43L54 43L54 42L53 42L53 41L54 41L54 40L53 40L53 41L51 41L51 42L50 42L50 43L49 43L49 42L48 42L48 41L49 41L49 40L50 40L50 39L51 39L51 38L53 38L53 35L52 35L52 34L50 34L50 32L51 32L51 33L52 33L52 32L53 32L53 31L55 31L55 28L56 28L56 27L55 27L55 28L54 28L54 30L53 30L53 31L50 31L50 32L49 32L49 31L48 31L48 29L46 29L46 30L47 30L47 31L45 31L45 30L40 30L40 29L43 29L43 27L44 27L44 26L46 26L46 27L45 27L45 28L44 28L44 29L45 29L45 28L46 28L46 27L47 27L47 25L48 25L48 24L49 24L49 23L50 23L50 26L51 26L51 25L54 25L54 24L51 24L51 23L50 23L50 22L51 22L51 21L53 21L53 23L55 23L55 22L56 22L56 20L53 20L53 19L52 19L52 18L51 18L51 17L53 17L53 18L55 18L55 17L54 17L54 16L50 16L50 18L49 18L49 19L52 19L52 20L51 20L51 21L49 21L49 22L47 22L47 20L46 20L46 19L48 19L48 18L47 18L47 17L49 17L49 15L50 15L50 14L51 14L51 12L50 12L50 14L49 14L49 15L48 15L48 16L47 16L47 17L45 17L45 16L46 16L46 15L45 15L45 14L47 14L47 13L49 13L49 12L45 12L45 11L46 11L46 10L47 10L47 9L48 9L48 8L47 8L47 7L46 7L46 6L45 6L45 4L46 4L46 5L47 5L47 3L44 3L44 6L43 6L43 7L42 7L42 5L40 5L40 6L39 6L39 7L40 7L40 8L39 8L39 9L38 9L38 10L37 10L37 9L35 9L35 8L37 8L37 7L36 7L36 5L37 5L37 4L36 4L36 5L35 5L35 4L34 4L34 3L35 3L35 2L34 2L34 3L32 3L32 2L33 2L33 1L32 1L32 2L31 2L31 1ZM46 1L46 2L47 2L47 1ZM30 2L30 3L31 3L31 4L32 4L32 5L34 5L34 7L33 7L33 6L32 6L32 7L33 7L33 9L34 9L34 8L35 8L35 5L34 5L34 4L32 4L32 3L31 3L31 2ZM23 4L23 5L21 5L21 7L22 7L22 8L20 8L20 11L22 11L22 10L21 10L21 9L24 9L24 6L23 6L23 5L24 5L24 4ZM27 5L27 8L30 8L30 5ZM22 6L22 7L23 7L23 6ZM28 6L28 7L29 7L29 6ZM40 6L40 7L41 7L41 6ZM44 6L44 8L43 8L43 9L40 9L40 10L39 10L39 11L37 11L37 10L36 10L36 11L37 11L37 12L35 12L35 13L36 13L36 14L32 14L32 13L30 13L30 14L29 14L29 13L28 13L28 12L29 12L29 11L27 11L27 12L26 12L26 15L25 15L25 17L22 17L22 16L21 16L21 17L22 17L22 19L23 19L23 20L24 20L24 21L23 21L23 22L24 22L24 21L25 21L25 22L26 22L26 23L25 23L25 24L24 24L24 23L22 23L22 21L21 21L21 23L22 23L22 24L23 24L23 25L22 25L22 26L20 26L20 25L21 25L21 24L20 24L20 25L19 25L19 24L17 24L17 21L18 21L18 22L19 22L19 23L20 23L20 22L19 22L19 21L20 21L20 20L17 20L17 19L16 19L16 18L15 18L15 19L16 19L16 20L15 20L15 21L16 21L16 22L15 22L15 23L14 23L14 21L12 21L12 20L14 20L14 19L11 19L11 18L12 18L12 14L13 14L13 13L12 13L12 14L10 14L10 11L8 11L8 13L9 13L9 14L8 14L8 15L10 15L10 16L11 16L11 18L10 18L10 19L9 19L9 18L8 18L8 19L9 19L9 20L10 20L10 21L11 21L11 22L12 22L12 23L11 23L11 24L10 24L10 23L9 23L9 25L13 25L13 27L11 27L11 28L12 28L12 29L11 29L11 30L13 30L13 31L14 31L14 32L13 32L13 34L12 34L12 33L11 33L11 37L12 37L12 39L10 39L10 40L12 40L12 39L13 39L13 38L14 38L14 36L16 36L16 34L15 34L15 33L18 33L18 34L17 34L17 36L18 36L18 37L17 37L17 42L18 42L18 41L19 41L19 40L22 40L22 39L24 39L24 40L25 40L25 37L26 37L26 39L27 39L27 41L26 41L26 42L27 42L27 41L29 41L29 40L28 40L28 39L27 39L27 38L28 38L28 37L27 37L27 36L26 36L26 35L27 35L27 34L26 34L26 35L25 35L25 33L26 33L26 32L27 32L27 31L31 31L31 30L32 30L32 32L31 32L31 33L29 33L29 32L28 32L28 33L29 33L29 34L30 34L30 36L29 36L29 37L31 37L31 38L29 38L29 39L33 39L33 40L35 40L35 39L37 39L37 38L38 38L38 40L40 40L40 39L39 39L39 38L38 38L38 37L37 37L37 36L38 36L38 33L37 33L37 32L35 32L35 34L37 34L37 36L35 36L35 35L34 35L34 36L35 36L35 39L34 39L34 38L33 38L33 37L32 37L32 36L33 36L33 35L32 35L32 34L33 34L33 33L32 33L32 32L34 32L34 31L36 31L36 30L32 30L32 27L33 27L33 28L35 28L35 29L38 29L38 28L39 28L39 27L40 27L40 26L41 26L41 28L42 28L42 26L43 26L43 25L44 25L44 24L42 24L42 23L44 23L44 20L45 20L45 18L44 18L44 14L45 14L45 13L44 13L44 12L43 12L43 13L41 13L41 14L38 14L38 13L40 13L40 12L41 12L41 10L42 10L42 11L45 11L45 10L46 10L46 9L47 9L47 8L46 8L46 7L45 7L45 6ZM44 8L44 9L43 9L43 10L44 10L44 9L46 9L46 8ZM51 8L51 9L52 9L52 8ZM53 8L53 9L54 9L54 8ZM1 9L1 10L3 10L3 11L4 11L4 10L3 10L3 9ZM6 10L6 11L7 11L7 10ZM32 10L32 11L31 11L31 12L33 12L33 13L34 13L34 12L33 12L33 10ZM39 11L39 12L40 12L40 11ZM6 12L6 13L7 13L7 12ZM16 12L16 13L15 13L15 14L14 14L14 16L13 16L13 17L14 17L14 16L16 16L16 13L17 13L17 12ZM52 12L52 13L53 13L53 15L55 15L55 14L56 14L56 13L55 13L55 12L54 12L54 13L53 13L53 12ZM27 13L27 15L26 15L26 17L25 17L25 19L26 19L26 20L25 20L25 21L29 21L29 20L31 20L31 19L33 19L33 18L35 18L35 19L34 19L34 20L32 20L32 21L31 21L31 24L29 24L29 23L30 23L30 22L29 22L29 23L27 23L27 24L25 24L25 25L26 25L26 26L22 26L22 27L20 27L20 26L19 26L19 25L17 25L17 24L16 24L16 23L15 23L15 25L14 25L14 24L13 24L13 23L12 23L12 24L13 24L13 25L14 25L14 27L15 27L15 28L13 28L13 30L14 30L14 31L15 31L15 30L14 30L14 29L16 29L16 30L17 30L17 32L19 32L19 33L20 33L20 34L19 34L19 37L18 37L18 38L19 38L19 39L18 39L18 40L19 40L19 39L20 39L20 38L19 38L19 37L23 37L23 38L24 38L24 37L23 37L23 36L24 36L24 34L23 34L23 33L25 33L25 32L26 32L26 31L25 31L25 32L19 32L19 31L20 31L20 30L21 30L21 31L23 31L23 29L24 29L24 28L25 28L25 29L26 29L26 28L25 28L25 27L26 27L26 26L27 26L27 25L28 25L28 26L29 26L29 25L31 25L31 24L32 24L32 26L31 26L31 27L32 27L32 26L33 26L33 27L34 27L34 26L36 26L36 27L35 27L35 28L36 28L36 27L39 27L39 25L41 25L41 24L39 24L39 23L40 23L40 22L39 22L39 21L42 21L42 20L39 20L39 21L38 21L38 20L37 20L37 19L39 19L39 17L41 17L41 16L42 16L42 17L43 17L43 16L42 16L42 15L43 15L43 14L41 14L41 16L39 16L39 15L38 15L38 14L37 14L37 15L35 15L35 16L33 16L33 15L32 15L32 14L30 14L30 15L31 15L31 16L32 16L32 18L30 18L30 19L28 19L28 18L27 18L27 19L26 19L26 17L28 17L28 16L29 16L29 14L28 14L28 13ZM27 15L27 16L28 16L28 15ZM35 16L35 17L37 17L37 18L38 18L38 17L39 17L39 16L38 16L38 17L37 17L37 16ZM6 18L6 19L7 19L7 18ZM23 18L23 19L24 19L24 18ZM41 18L41 19L42 19L42 18ZM43 18L43 20L44 20L44 18ZM27 19L27 20L28 20L28 19ZM35 19L35 23L34 23L34 22L33 22L33 23L32 23L32 24L33 24L33 25L37 25L37 26L38 26L38 25L39 25L39 24L37 24L37 22L38 22L38 21L37 21L37 20L36 20L36 19ZM16 20L16 21L17 21L17 20ZM46 22L46 23L47 23L47 22ZM6 24L6 25L8 25L8 24ZM55 25L55 26L56 26L56 25ZM15 26L15 27L16 27L16 26ZM17 26L17 27L18 27L18 26ZM53 26L53 27L54 27L54 26ZM5 27L5 30L8 30L8 27ZM19 27L19 29L18 29L18 28L16 28L16 29L18 29L18 31L19 31L19 30L20 30L20 29L22 29L22 28L20 28L20 27ZM27 27L27 30L30 30L30 27ZM49 27L49 30L52 30L52 27ZM6 28L6 29L7 29L7 28ZM28 28L28 29L29 29L29 28ZM50 28L50 29L51 29L51 28ZM0 29L0 33L1 33L1 31L2 31L2 29ZM38 30L38 32L39 32L39 30ZM43 31L43 32L41 32L41 33L39 33L39 34L40 34L40 35L39 35L39 37L40 37L40 38L43 38L43 37L44 37L44 38L45 38L45 39L44 39L44 40L45 40L45 41L47 41L47 39L48 39L48 38L49 38L49 39L50 39L50 38L51 38L51 37L52 37L52 35L50 35L50 34L49 34L49 35L50 35L50 36L48 36L48 37L47 37L47 34L45 34L45 35L44 35L44 33L43 33L43 32L45 32L45 33L47 33L47 32L48 32L48 33L49 33L49 32L48 32L48 31L47 31L47 32L45 32L45 31ZM6 33L6 34L7 34L7 33ZM21 33L21 34L20 34L20 36L22 36L22 35L23 35L23 34L22 34L22 33ZM31 33L31 34L32 34L32 33ZM13 34L13 36L14 36L14 35L15 35L15 34ZM42 34L42 35L41 35L41 36L40 36L40 37L43 37L43 36L44 36L44 37L45 37L45 38L46 38L46 39L45 39L45 40L46 40L46 39L47 39L47 37L45 37L45 36L44 36L44 35L43 35L43 34ZM8 35L8 37L9 37L9 35ZM50 36L50 37L49 37L49 38L50 38L50 37L51 37L51 36ZM15 37L15 38L16 38L16 37ZM6 38L6 39L8 39L8 38ZM54 38L54 39L55 39L55 38ZM14 39L14 40L16 40L16 39ZM30 40L30 41L32 41L32 42L33 42L33 43L34 43L34 42L33 42L33 41L32 41L32 40ZM10 41L10 42L11 42L11 41ZM21 41L21 42L22 42L22 41ZM2 42L2 43L3 43L3 42ZM44 42L44 44L45 44L45 45L47 45L47 43L48 43L48 42L47 42L47 43L46 43L46 44L45 44L45 42ZM51 42L51 43L50 43L50 44L51 44L51 43L53 43L53 42ZM26 45L26 47L27 47L27 45ZM50 45L50 46L51 46L51 47L53 47L53 46L51 46L51 45ZM33 46L33 47L35 47L35 46ZM43 46L43 47L42 47L42 48L43 48L43 49L44 49L44 48L43 48L43 47L44 47L44 46ZM45 46L45 47L47 47L47 48L48 48L48 47L47 47L47 46ZM24 47L24 48L25 48L25 47ZM6 48L6 49L7 49L7 48ZM38 48L38 49L39 49L39 48ZM11 49L11 51L12 51L12 53L10 53L10 55L11 55L11 54L12 54L12 53L13 53L13 52L14 52L14 50L13 50L13 49ZM27 49L27 52L30 52L30 49ZM49 49L49 52L52 52L52 49ZM28 50L28 51L29 51L29 50ZM38 50L38 52L39 52L39 51L40 51L40 52L41 52L41 50ZM50 50L50 51L51 51L51 50ZM54 50L54 51L55 51L55 50ZM53 52L53 53L54 53L54 52ZM25 54L25 55L26 55L26 54ZM50 55L50 56L51 56L51 55ZM53 55L53 56L55 56L55 57L56 57L56 56L55 56L55 55ZM0 0L0 7L7 7L7 0ZM1 1L1 6L6 6L6 1ZM2 2L2 5L5 5L5 2ZM50 0L50 7L57 7L57 0ZM51 1L51 6L56 6L56 1ZM52 2L52 5L55 5L55 2ZM0 50L0 57L7 57L7 50ZM1 51L1 56L6 56L6 51ZM2 52L2 55L5 55L5 52Z" fill="#000000"/></g></g></svg>
