<?xml version="1.0" encoding="UTF-8"?>
<svg xmlns="http://www.w3.org/2000/svg" version="1.1" width="300" height="300" viewBox="0 0 300 300"><rect x="0" y="0" width="300" height="300" fill="#fefefe"/><g transform="scale(4.615)"><g transform="translate(4,4)"><path fill-rule="evenodd" d="M8 0L8 1L9 1L9 0ZM11 0L11 3L10 3L10 2L8 2L8 5L9 5L9 6L8 6L8 7L9 7L9 6L10 6L10 7L11 7L11 8L12 8L12 12L13 12L13 13L14 13L14 15L13 15L13 14L12 14L12 15L11 15L11 12L10 12L10 11L11 11L11 9L10 9L10 10L8 10L8 9L9 9L9 8L8 8L8 9L7 9L7 8L6 8L6 9L4 9L4 8L0 8L0 9L3 9L3 10L2 10L2 11L1 11L1 10L0 10L0 12L1 12L1 13L0 13L0 14L1 14L1 16L0 16L0 18L1 18L1 17L2 17L2 19L1 19L1 20L0 20L0 21L2 21L2 22L0 22L0 23L4 23L4 20L6 20L6 21L8 21L8 23L9 23L9 24L10 24L10 25L9 25L9 26L6 26L6 25L8 25L8 24L6 24L6 23L7 23L7 22L5 22L5 24L6 24L6 25L5 25L5 26L4 26L4 25L3 25L3 24L0 24L0 26L1 26L1 27L0 27L0 28L1 28L1 31L0 31L0 32L1 32L1 31L2 31L2 35L4 35L4 36L5 36L5 38L4 38L4 43L5 43L5 45L7 45L7 46L5 46L5 47L3 47L3 46L4 46L4 44L2 44L2 43L3 43L3 39L2 39L2 41L1 41L1 42L2 42L2 43L0 43L0 45L1 45L1 44L2 44L2 47L1 47L1 46L0 46L0 48L5 48L5 47L9 47L9 49L8 49L8 50L9 50L9 49L11 49L11 50L12 50L12 49L11 49L11 48L10 48L10 46L11 46L11 45L10 45L10 46L9 46L9 43L8 43L8 44L6 44L6 43L7 43L7 42L8 42L8 41L9 41L9 40L10 40L10 41L12 41L12 43L11 43L11 44L14 44L14 42L15 42L15 41L16 41L16 42L17 42L17 40L16 40L16 39L18 39L18 38L19 38L19 40L20 40L20 41L22 41L22 44L21 44L21 43L19 43L19 41L18 41L18 43L19 43L19 45L17 45L17 47L14 47L14 46L13 46L13 45L12 45L12 46L13 46L13 47L12 47L12 48L14 48L14 49L13 49L13 50L15 50L15 51L14 51L14 52L13 52L13 51L11 51L11 52L10 52L10 51L9 51L9 52L10 52L10 53L11 53L11 55L10 55L10 54L9 54L9 53L8 53L8 57L10 57L10 56L12 56L12 57L15 57L15 56L16 56L16 57L18 57L18 56L17 56L17 54L16 54L16 53L15 53L15 56L12 56L12 53L11 53L11 52L13 52L13 53L14 53L14 52L16 52L16 51L17 51L17 52L18 52L18 51L17 51L17 50L21 50L21 51L19 51L19 53L18 53L18 54L19 54L19 55L20 55L20 56L19 56L19 57L20 57L20 56L21 56L21 57L23 57L23 56L22 56L22 55L23 55L23 54L26 54L26 55L27 55L27 56L28 56L28 55L27 55L27 54L26 54L26 53L29 53L29 54L31 54L31 55L30 55L30 56L31 56L31 57L32 57L32 55L34 55L34 56L33 56L33 57L36 57L36 55L38 55L38 57L42 57L42 56L43 56L43 55L44 55L44 54L45 54L45 55L46 55L46 56L48 56L48 55L49 55L49 57L51 57L51 54L52 54L52 53L54 53L54 54L53 54L53 55L55 55L55 54L56 54L56 53L57 53L57 51L56 51L56 53L54 53L54 52L55 52L55 50L53 50L53 48L54 48L54 47L57 47L57 44L53 44L53 45L56 45L56 46L54 46L54 47L53 47L53 46L52 46L52 43L53 43L53 42L54 42L54 43L56 43L56 42L57 42L57 40L56 40L56 41L55 41L55 42L54 42L54 41L53 41L53 40L55 40L55 38L56 38L56 39L57 39L57 38L56 38L56 37L57 37L57 36L56 36L56 35L57 35L57 31L56 31L56 30L57 30L57 27L56 27L56 24L55 24L55 27L53 27L53 26L52 26L52 25L49 25L49 26L48 26L48 24L53 24L53 25L54 25L54 23L53 23L53 22L54 22L54 21L55 21L55 20L54 20L54 21L53 21L53 20L50 20L50 19L49 19L49 20L47 20L47 19L48 19L48 14L47 14L47 16L46 16L46 15L45 15L45 16L44 16L44 14L46 14L46 13L44 13L44 12L43 12L43 11L44 11L44 10L45 10L45 11L49 11L49 16L50 16L50 17L52 17L52 15L51 15L51 13L52 13L52 14L53 14L53 17L54 17L54 18L51 18L51 19L55 19L55 17L56 17L56 18L57 18L57 15L54 15L54 14L53 14L53 13L54 13L54 10L53 10L53 9L55 9L55 8L52 8L52 10L53 10L53 13L52 13L52 12L51 12L51 10L50 10L50 8L49 8L49 6L48 6L48 7L47 7L47 5L48 5L48 0L46 0L46 1L47 1L47 2L46 2L46 3L47 3L47 5L46 5L46 4L44 4L44 3L45 3L45 1L44 1L44 2L42 2L42 3L43 3L43 5L42 5L42 7L43 7L43 5L46 5L46 7L45 7L45 6L44 6L44 8L45 8L45 9L44 9L44 10L43 10L43 8L38 8L38 7L39 7L39 6L38 6L38 7L37 7L37 6L36 6L36 7L35 7L35 6L34 6L34 5L33 5L33 6L32 6L32 5L31 5L31 4L32 4L32 3L34 3L34 2L35 2L35 4L36 4L36 5L40 5L40 7L41 7L41 4L37 4L37 3L39 3L39 2L37 2L37 1L38 1L38 0L37 0L37 1L36 1L36 0L35 0L35 1L34 1L34 2L33 2L33 0L29 0L29 1L28 1L28 2L27 2L27 4L26 4L26 1L25 1L25 0L23 0L23 1L22 1L22 0L21 0L21 1L20 1L20 0L19 0L19 1L20 1L20 2L21 2L21 3L23 3L23 6L22 6L22 8L21 8L21 10L20 10L20 7L21 7L21 5L22 5L22 4L21 4L21 5L20 5L20 4L19 4L19 2L18 2L18 1L15 1L15 2L16 2L16 3L18 3L18 5L15 5L15 4L14 4L14 3L13 3L13 2L12 2L12 1L14 1L14 0ZM39 0L39 1L40 1L40 2L41 2L41 1L43 1L43 0L41 0L41 1L40 1L40 0ZM23 1L23 3L24 3L24 2L25 2L25 1ZM29 1L29 2L28 2L28 4L31 4L31 3L30 3L30 1ZM35 1L35 2L36 2L36 1ZM9 3L9 5L10 5L10 3ZM11 3L11 4L13 4L13 5L14 5L14 4L13 4L13 3ZM24 4L24 6L23 6L23 7L24 7L24 8L25 8L25 9L26 9L26 6L25 6L25 5L26 5L26 4ZM11 5L11 7L12 7L12 8L13 8L13 10L14 10L14 11L15 11L15 15L14 15L14 16L15 16L15 15L16 15L16 16L17 16L17 18L16 18L16 17L15 17L15 18L12 18L12 17L13 17L13 15L12 15L12 17L11 17L11 18L10 18L10 19L6 19L6 18L8 18L8 17L4 17L4 16L5 16L5 15L6 15L6 16L10 16L10 14L8 14L8 13L10 13L10 12L7 12L7 11L8 11L8 10L7 10L7 9L6 9L6 10L7 10L7 11L6 11L6 12L7 12L7 13L5 13L5 14L4 14L4 12L5 12L5 10L3 10L3 11L2 11L2 12L3 12L3 14L2 14L2 15L3 15L3 19L2 19L2 21L3 21L3 20L4 20L4 18L5 18L5 19L6 19L6 20L9 20L9 23L10 23L10 20L12 20L12 22L11 22L11 25L12 25L12 26L13 26L13 25L14 25L14 27L16 27L16 28L17 28L17 30L19 30L19 31L18 31L18 34L19 34L19 35L18 35L18 36L14 36L14 35L15 35L15 34L17 34L17 32L16 32L16 31L14 31L14 30L16 30L16 29L15 29L15 28L14 28L14 29L13 29L13 28L10 28L10 26L9 26L9 30L10 30L10 31L8 31L8 32L10 32L10 33L13 33L13 32L14 32L14 35L13 35L13 36L14 36L14 37L15 37L15 38L18 38L18 36L19 36L19 37L20 37L20 38L21 38L21 39L23 39L23 40L22 40L22 41L23 41L23 40L24 40L24 39L25 39L25 41L24 41L24 42L23 42L23 44L22 44L22 46L21 46L21 45L20 45L20 47L19 47L19 46L18 46L18 47L19 47L19 48L21 48L21 50L22 50L22 49L23 49L23 52L22 52L22 53L23 53L23 52L24 52L24 53L25 53L25 52L26 52L26 51L24 51L24 50L25 50L25 48L27 48L27 46L29 46L29 47L30 47L30 48L31 48L31 49L32 49L32 50L31 50L31 53L32 53L32 50L33 50L33 53L36 53L36 54L35 54L35 55L36 55L36 54L37 54L37 51L36 51L36 52L35 52L35 49L34 49L34 48L32 48L32 46L31 46L31 45L30 45L30 44L31 44L31 43L29 43L29 42L28 42L28 41L27 41L27 42L25 42L25 41L26 41L26 40L27 40L27 39L26 39L26 37L24 37L24 39L23 39L23 36L27 36L27 38L29 38L29 36L32 36L32 38L30 38L30 39L28 39L28 40L33 40L33 39L32 39L32 38L33 38L33 36L36 36L36 35L35 35L35 33L33 33L33 32L31 32L31 34L30 34L30 35L29 35L29 33L30 33L30 32L28 32L28 33L27 33L27 31L25 31L25 34L24 34L24 35L23 35L23 33L24 33L24 32L23 32L23 33L22 33L22 36L21 36L21 35L20 35L20 34L21 34L21 32L22 32L22 31L23 31L23 30L21 30L21 29L23 29L23 28L25 28L25 29L24 29L24 30L26 30L26 28L25 28L25 25L27 25L27 24L26 24L26 23L28 23L28 26L31 26L31 25L30 25L30 24L31 24L31 23L32 23L32 22L34 22L34 23L33 23L33 24L32 24L32 25L33 25L33 24L35 24L35 23L36 23L36 24L37 24L37 22L35 22L35 20L36 20L36 21L38 21L38 22L39 22L39 20L40 20L40 19L39 19L39 18L41 18L41 20L42 20L42 21L44 21L44 22L45 22L45 23L44 23L44 25L42 25L42 26L44 26L44 25L45 25L45 24L48 24L48 23L52 23L52 22L51 22L51 21L50 21L50 20L49 20L49 22L47 22L47 21L46 21L46 18L45 18L45 17L46 17L46 16L45 16L45 17L42 17L42 14L43 14L43 12L42 12L42 11L43 11L43 10L40 10L40 9L38 9L38 8L36 8L36 9L34 9L34 6L33 6L33 8L32 8L32 6L31 6L31 9L32 9L32 10L31 10L31 11L33 11L33 10L34 10L34 11L35 11L35 12L34 12L34 14L33 14L33 15L31 15L31 16L29 16L29 15L28 15L28 16L29 16L29 17L27 17L27 15L26 15L26 16L25 16L25 17L24 17L24 18L23 18L23 16L24 16L24 14L25 14L25 13L26 13L26 12L28 12L28 13L30 13L30 14L31 14L31 12L30 12L30 11L29 11L29 9L27 9L27 10L26 10L26 11L25 11L25 10L23 10L23 11L21 11L21 15L20 15L20 14L19 14L19 13L20 13L20 11L19 11L19 10L18 10L18 9L19 9L19 8L18 8L18 9L17 9L17 7L18 7L18 6L17 6L17 7L16 7L16 6L15 6L15 7L14 7L14 6L13 6L13 7L12 7L12 5ZM27 5L27 8L30 8L30 5ZM19 6L19 7L20 7L20 6ZM24 6L24 7L25 7L25 6ZM28 6L28 7L29 7L29 6ZM48 8L48 9L49 9L49 8ZM56 8L56 9L57 9L57 8ZM37 9L37 11L38 11L38 12L35 12L35 13L36 13L36 14L35 14L35 15L33 15L33 16L31 16L31 18L35 18L35 17L34 17L34 16L35 16L35 15L36 15L36 14L37 14L37 15L39 15L39 17L40 17L40 16L41 16L41 14L39 14L39 11L40 11L40 10L38 10L38 9ZM45 9L45 10L47 10L47 9ZM16 10L16 11L17 11L17 12L16 12L16 13L17 13L17 12L18 12L18 13L19 13L19 12L18 12L18 10ZM27 10L27 11L28 11L28 10ZM35 10L35 11L36 11L36 10ZM49 10L49 11L50 11L50 10ZM55 10L55 12L56 12L56 11L57 11L57 10ZM3 11L3 12L4 12L4 11ZM23 11L23 12L22 12L22 13L23 13L23 12L25 12L25 11ZM32 12L32 13L33 13L33 12ZM50 12L50 13L51 13L51 12ZM6 14L6 15L8 15L8 14ZM16 14L16 15L18 15L18 16L19 16L19 14ZM50 15L50 16L51 16L51 15ZM18 17L18 19L19 19L19 20L21 20L21 21L22 21L22 22L23 22L23 24L24 24L24 25L25 25L25 22L31 22L31 21L29 21L29 20L27 20L27 18L26 18L26 17L25 17L25 18L24 18L24 19L25 19L25 22L24 22L24 21L23 21L23 20L22 20L22 17L21 17L21 18L19 18L19 17ZM29 17L29 18L28 18L28 19L30 19L30 17ZM36 17L36 18L37 18L37 17ZM41 17L41 18L42 18L42 20L43 20L43 18L42 18L42 17ZM15 18L15 19L12 19L12 20L13 20L13 23L14 23L14 25L15 25L15 26L16 26L16 23L17 23L17 27L19 27L19 28L18 28L18 29L19 29L19 30L20 30L20 27L21 27L21 26L22 26L22 27L24 27L24 26L23 26L23 25L21 25L21 24L22 24L22 23L21 23L21 22L19 22L19 21L18 21L18 20L17 20L17 19L16 19L16 18ZM25 18L25 19L26 19L26 18ZM44 18L44 19L45 19L45 18ZM31 19L31 20L32 20L32 19ZM36 19L36 20L37 20L37 19ZM56 19L56 22L55 22L55 23L57 23L57 19ZM14 20L14 23L16 23L16 20ZM26 20L26 21L27 21L27 20ZM17 21L17 23L19 23L19 22L18 22L18 21ZM41 22L41 23L40 23L40 24L39 24L39 23L38 23L38 24L39 24L39 25L40 25L40 26L38 26L38 27L41 27L41 24L42 24L42 23L43 23L43 22ZM46 22L46 23L47 23L47 22ZM20 23L20 24L19 24L19 25L18 25L18 26L19 26L19 25L20 25L20 24L21 24L21 23ZM29 23L29 24L30 24L30 23ZM12 24L12 25L13 25L13 24ZM1 25L1 26L2 26L2 27L3 27L3 26L2 26L2 25ZM34 25L34 27L35 27L35 25ZM46 25L46 26L45 26L45 29L44 29L44 28L43 28L43 27L42 27L42 28L43 28L43 29L42 29L42 30L41 30L41 28L40 28L40 29L38 29L38 30L37 30L37 28L34 28L34 29L36 29L36 30L35 30L35 31L34 31L34 32L35 32L35 31L37 31L37 32L36 32L36 33L37 33L37 32L38 32L38 34L39 34L39 31L38 31L38 30L41 30L41 31L40 31L40 32L41 32L41 31L44 31L44 33L45 33L45 36L44 36L44 37L42 37L42 38L44 38L44 39L43 39L43 40L44 40L44 39L45 39L45 41L44 41L44 42L45 42L45 41L46 41L46 39L45 39L45 36L47 36L47 37L46 37L46 38L48 38L48 35L46 35L46 34L50 34L50 33L49 33L49 32L50 32L50 31L49 31L49 32L48 32L48 30L47 30L47 33L46 33L46 31L44 31L44 30L46 30L46 26L47 26L47 25ZM5 27L5 30L8 30L8 27ZM27 27L27 30L30 30L30 27ZM32 27L32 28L33 28L33 27ZM47 27L47 28L48 28L48 27ZM49 27L49 30L52 30L52 27ZM2 28L2 31L4 31L4 32L3 32L3 34L5 34L5 35L6 35L6 36L7 36L7 37L6 37L6 38L7 38L7 39L6 39L6 40L7 40L7 41L6 41L6 42L7 42L7 41L8 41L8 39L9 39L9 38L7 38L7 37L9 37L9 34L8 34L8 33L6 33L6 32L7 32L7 31L6 31L6 32L5 32L5 31L4 31L4 28ZM6 28L6 29L7 29L7 28ZM28 28L28 29L29 29L29 28ZM50 28L50 29L51 29L51 28ZM53 28L53 31L51 31L51 32L52 32L52 34L54 34L54 32L55 32L55 30L56 30L56 28L55 28L55 29L54 29L54 28ZM10 29L10 30L11 30L11 32L12 32L12 31L13 31L13 29L12 29L12 30L11 30L11 29ZM32 29L32 30L31 30L31 31L33 31L33 29ZM19 31L19 32L20 32L20 31ZM4 32L4 33L5 33L5 34L6 34L6 35L7 35L7 34L6 34L6 33L5 33L5 32ZM42 32L42 33L43 33L43 32ZM0 33L0 34L1 34L1 33ZM19 33L19 34L20 34L20 33ZM26 33L26 34L25 34L25 35L26 35L26 34L27 34L27 36L29 36L29 35L28 35L28 34L27 34L27 33ZM32 33L32 36L33 36L33 33ZM55 33L55 34L56 34L56 33ZM10 34L10 36L12 36L12 35L11 35L11 34ZM41 34L41 35L37 35L37 37L34 37L34 38L36 38L36 39L35 39L35 40L34 40L34 41L36 41L36 42L34 42L34 43L35 43L35 44L34 44L34 45L33 45L33 42L32 42L32 45L33 45L33 47L34 47L34 46L35 46L35 44L36 44L36 47L35 47L35 48L37 48L37 49L36 49L36 50L37 50L37 49L38 49L38 48L39 48L39 49L40 49L40 50L39 50L39 51L38 51L38 52L40 52L40 54L41 54L41 53L42 53L42 54L43 54L43 52L42 52L42 51L43 51L43 50L44 50L44 51L45 51L45 50L46 50L46 51L47 51L47 52L48 52L48 48L47 48L47 49L46 49L46 46L47 46L47 45L48 45L48 44L44 44L44 43L42 43L42 42L43 42L43 41L42 41L42 39L39 39L39 38L37 38L37 37L39 37L39 36L40 36L40 37L41 37L41 36L43 36L43 35L44 35L44 34L43 34L43 35L42 35L42 34ZM51 35L51 36L50 36L50 37L52 37L52 39L51 39L51 38L50 38L50 39L51 39L51 40L50 40L50 41L47 41L47 42L48 42L48 43L49 43L49 44L50 44L50 45L49 45L49 46L48 46L48 47L49 47L49 48L50 48L50 47L49 47L49 46L50 46L50 45L51 45L51 42L50 42L50 41L52 41L52 40L53 40L53 39L54 39L54 38L53 38L53 36L52 36L52 35ZM54 35L54 36L55 36L55 37L56 37L56 36L55 36L55 35ZM1 36L1 37L0 37L0 38L1 38L1 37L2 37L2 38L3 38L3 37L2 37L2 36ZM10 37L10 39L11 39L11 40L12 40L12 38L13 38L13 37L12 37L12 38L11 38L11 37ZM21 37L21 38L22 38L22 37ZM38 39L38 40L37 40L37 41L40 41L40 42L42 42L42 41L40 41L40 40L39 40L39 39ZM47 39L47 40L49 40L49 39ZM14 40L14 41L15 41L15 40ZM30 41L30 42L31 42L31 41ZM24 42L24 44L23 44L23 46L22 46L22 47L21 47L21 48L23 48L23 49L24 49L24 47L23 47L23 46L25 46L25 45L26 45L26 46L27 46L27 45L26 45L26 43L25 43L25 42ZM37 42L37 44L38 44L38 45L37 45L37 47L38 47L38 45L41 45L41 46L40 46L40 47L43 47L43 49L44 49L44 48L45 48L45 45L42 45L42 43L39 43L39 42ZM49 42L49 43L50 43L50 42ZM15 43L15 45L16 45L16 44L17 44L17 43ZM28 43L28 44L29 44L29 43ZM38 43L38 44L39 44L39 43ZM51 47L51 48L52 48L52 47ZM6 48L6 49L7 49L7 48ZM15 48L15 49L16 49L16 50L17 50L17 48ZM41 48L41 49L42 49L42 48ZM56 48L56 50L57 50L57 48ZM27 49L27 52L30 52L30 49ZM33 49L33 50L34 50L34 49ZM49 49L49 52L52 52L52 49ZM28 50L28 51L29 51L29 50ZM50 50L50 51L51 51L51 50ZM40 51L40 52L41 52L41 51ZM45 52L45 53L46 53L46 52ZM20 53L20 55L22 55L22 54L21 54L21 53ZM38 53L38 54L39 54L39 53ZM47 53L47 54L46 54L46 55L47 55L47 54L50 54L50 53ZM9 55L9 56L10 56L10 55ZM24 55L24 57L25 57L25 55ZM40 55L40 56L42 56L42 55ZM56 55L56 56L57 56L57 55ZM52 56L52 57L55 57L55 56ZM0 0L0 7L7 7L7 0ZM1 1L1 6L6 6L6 1ZM2 2L2 5L5 5L5 2ZM50 0L50 7L57 7L57 0ZM51 1L51 6L56 6L56 1ZM52 2L52 5L55 5L55 2ZM0 50L0 57L7 57L7 50ZM1 51L1 56L6 56L6 51ZM2 52L2 55L5 55L5 52Z" fill="#000000"/></g></g></svg>
