<?xml version="1.0" encoding="UTF-8"?>
<svg xmlns="http://www.w3.org/2000/svg" version="1.1" width="300" height="300" viewBox="0 0 300 300"><rect x="0" y="0" width="300" height="300" fill="#fefefe"/><g transform="scale(4.615)"><g transform="translate(4,4)"><path fill-rule="evenodd" d="M8 0L8 1L9 1L9 2L8 2L8 5L9 5L9 6L8 6L8 7L9 7L9 6L10 6L10 7L11 7L11 11L10 11L10 12L9 12L9 10L10 10L10 9L9 9L9 8L8 8L8 9L7 9L7 8L6 8L6 9L4 9L4 8L0 8L0 9L1 9L1 10L2 10L2 9L4 9L4 11L3 11L3 12L2 12L2 13L0 13L0 14L2 14L2 18L4 18L4 17L5 17L5 18L6 18L6 19L5 19L5 20L6 20L6 21L7 21L7 20L6 20L6 19L8 19L8 20L9 20L9 22L8 22L8 23L7 23L7 22L5 22L5 21L3 21L3 22L5 22L5 23L3 23L3 24L4 24L4 25L2 25L2 26L1 26L1 25L0 25L0 26L1 26L1 27L0 27L0 28L1 28L1 27L4 27L4 30L3 30L3 31L2 31L2 33L3 33L3 34L1 34L1 37L2 37L2 36L4 36L4 37L5 37L5 39L7 39L7 40L6 40L6 41L7 41L7 42L5 42L5 44L3 44L3 43L4 43L4 42L3 42L3 41L4 41L4 38L3 38L3 41L2 41L2 40L1 40L1 42L0 42L0 43L2 43L2 44L1 44L1 45L2 45L2 47L1 47L1 46L0 46L0 48L5 48L5 47L7 47L7 46L6 46L6 45L7 45L7 44L8 44L8 45L9 45L9 48L8 48L8 50L9 50L9 48L10 48L10 49L12 49L12 51L11 51L11 50L10 50L10 51L9 51L9 52L10 52L10 53L8 53L8 57L9 57L9 56L10 56L10 57L12 57L12 56L13 56L13 55L15 55L15 57L18 57L18 56L19 56L19 55L20 55L20 57L23 57L23 54L26 54L26 55L27 55L27 56L28 56L28 55L27 55L27 54L26 54L26 53L29 53L29 54L31 54L31 55L30 55L30 56L31 56L31 57L32 57L32 55L34 55L34 56L33 56L33 57L36 57L36 55L37 55L37 54L36 54L36 53L35 53L35 52L36 52L36 51L37 51L37 52L38 52L38 51L39 51L39 50L40 50L40 49L39 49L39 48L38 48L38 49L37 49L37 48L34 48L34 49L33 49L33 50L32 50L32 53L31 53L31 49L32 49L32 48L33 48L33 47L32 47L32 42L33 42L33 45L34 45L34 44L35 44L35 46L34 46L34 47L38 47L38 45L39 45L39 47L43 47L43 49L44 49L44 51L42 51L42 52L41 52L41 51L40 51L40 52L39 52L39 54L38 54L38 57L42 57L42 56L45 56L45 55L44 55L44 54L47 54L47 55L46 55L46 56L47 56L47 55L49 55L49 56L48 56L48 57L51 57L51 54L52 54L52 53L54 53L54 54L53 54L53 56L52 56L52 57L55 57L55 56L54 56L54 55L55 55L55 54L56 54L56 53L57 53L57 51L56 51L56 52L55 52L55 50L57 50L57 48L56 48L56 49L55 49L55 50L53 50L53 49L54 49L54 48L53 48L53 47L52 47L52 46L50 46L50 44L49 44L49 43L50 43L50 42L51 42L51 44L52 44L52 45L53 45L53 46L54 46L54 47L57 47L57 45L56 45L56 46L55 46L55 44L52 44L52 43L53 43L53 42L54 42L54 43L56 43L56 44L57 44L57 43L56 43L56 42L57 42L57 40L56 40L56 41L55 41L55 42L54 42L54 40L55 40L55 38L56 38L56 39L57 39L57 38L56 38L56 36L57 36L57 31L56 31L56 30L57 30L57 29L56 29L56 30L55 30L55 33L54 33L54 34L52 34L52 32L53 32L53 28L54 28L54 29L55 29L55 27L53 27L53 26L52 26L52 25L50 25L50 24L49 24L49 20L50 20L50 21L51 21L51 22L52 22L52 24L54 24L54 25L56 25L56 24L54 24L54 23L57 23L57 21L56 21L56 22L54 22L54 21L55 21L55 20L57 20L57 19L56 19L56 17L57 17L57 15L54 15L54 14L55 14L55 13L54 13L54 10L53 10L53 9L55 9L55 8L52 8L52 10L50 10L50 8L49 8L49 6L48 6L48 8L47 8L47 10L45 10L45 9L46 9L46 8L45 8L45 9L44 9L44 10L45 10L45 11L47 11L47 12L48 12L48 11L47 11L47 10L50 10L50 11L49 11L49 16L48 16L48 14L47 14L47 15L45 15L45 14L46 14L46 13L44 13L44 11L42 11L42 10L43 10L43 5L45 5L45 6L44 6L44 7L45 7L45 6L46 6L46 7L47 7L47 5L48 5L48 0L45 0L45 1L44 1L44 2L41 2L41 1L43 1L43 0L41 0L41 1L40 1L40 0L39 0L39 1L40 1L40 2L41 2L41 4L37 4L37 1L38 1L38 0L37 0L37 1L36 1L36 0L35 0L35 1L34 1L34 2L33 2L33 0L29 0L29 1L31 1L31 4L26 4L26 1L25 1L25 0L23 0L23 1L25 1L25 2L24 2L24 3L23 3L23 5L20 5L20 4L19 4L19 3L20 3L20 2L21 2L21 3L22 3L22 0L21 0L21 1L20 1L20 0L19 0L19 1L18 1L18 0L17 0L17 1L15 1L15 3L16 3L16 2L17 2L17 5L15 5L15 4L14 4L14 3L12 3L12 2L11 2L11 0L10 0L10 1L9 1L9 0ZM12 0L12 1L14 1L14 0ZM35 1L35 2L34 2L34 3L32 3L32 4L31 4L31 5L32 5L32 6L31 6L31 9L32 9L32 10L28 10L28 11L27 11L27 10L26 10L26 11L25 11L25 13L24 13L24 11L21 11L21 10L23 10L23 9L21 9L21 8L23 8L23 7L24 7L24 9L26 9L26 6L25 6L25 5L26 5L26 4L24 4L24 6L23 6L23 7L22 7L22 6L21 6L21 7L20 7L20 6L19 6L19 7L20 7L20 10L18 10L18 12L17 12L17 8L18 8L18 9L19 9L19 8L18 8L18 6L17 6L17 7L16 7L16 6L15 6L15 8L14 8L14 6L13 6L13 7L12 7L12 5L11 5L11 4L9 4L9 5L11 5L11 7L12 7L12 9L13 9L13 10L14 10L14 11L15 11L15 15L16 15L16 16L15 16L15 17L14 17L14 18L13 18L13 16L14 16L14 13L13 13L13 15L12 15L12 14L11 14L11 12L13 12L13 11L11 11L11 12L10 12L10 13L8 13L8 10L9 10L9 9L8 9L8 10L7 10L7 9L6 9L6 10L7 10L7 11L6 11L6 12L7 12L7 13L6 13L6 14L7 14L7 15L6 15L6 16L7 16L7 17L6 17L6 18L7 18L7 17L9 17L9 18L8 18L8 19L9 19L9 18L10 18L10 17L11 17L11 18L12 18L12 19L11 19L11 20L10 20L10 22L9 22L9 23L8 23L8 24L7 24L7 23L5 23L5 25L4 25L4 26L5 26L5 25L6 25L6 26L7 26L7 25L8 25L8 24L10 24L10 23L11 23L11 24L12 24L12 25L10 25L10 26L9 26L9 27L11 27L11 28L9 28L9 31L8 31L8 32L7 32L7 31L6 31L6 32L7 32L7 33L5 33L5 31L3 31L3 33L5 33L5 35L4 35L4 36L5 36L5 37L6 37L6 38L8 38L8 37L9 37L9 38L10 38L10 40L9 40L9 41L8 41L8 40L7 40L7 41L8 41L8 42L7 42L7 43L6 43L6 44L5 44L5 45L6 45L6 44L7 44L7 43L8 43L8 44L9 44L9 45L10 45L10 46L11 46L11 48L12 48L12 46L11 46L11 45L10 45L10 44L9 44L9 42L10 42L10 41L12 41L12 42L11 42L11 43L12 43L12 44L13 44L13 47L15 47L15 48L14 48L14 50L13 50L13 51L14 51L14 52L11 52L11 51L10 51L10 52L11 52L11 53L10 53L10 54L9 54L9 55L10 55L10 56L11 56L11 55L13 55L13 54L15 54L15 53L16 53L16 54L17 54L17 55L18 55L18 54L19 54L19 50L18 50L18 51L14 51L14 50L15 50L15 49L16 49L16 50L17 50L17 48L16 48L16 47L18 47L18 48L19 48L19 49L21 49L21 50L20 50L20 51L21 51L21 52L22 52L22 53L23 53L23 52L24 52L24 53L25 53L25 52L26 52L26 51L24 51L24 50L26 50L26 49L25 49L25 48L24 48L24 49L23 49L23 48L19 48L19 47L20 47L20 46L21 46L21 47L22 47L22 46L23 46L23 45L24 45L24 44L25 44L25 43L26 43L26 45L25 45L25 47L26 47L26 48L27 48L27 46L28 46L28 47L29 47L29 48L32 48L32 47L31 47L31 46L30 46L30 45L28 45L28 44L27 44L27 42L25 42L25 41L26 41L26 40L27 40L27 39L26 39L26 37L24 37L24 39L23 39L23 38L22 38L22 37L23 37L23 36L26 36L26 35L27 35L27 34L28 34L28 35L29 35L29 36L27 36L27 38L29 38L29 36L32 36L32 38L30 38L30 39L28 39L28 41L29 41L29 42L30 42L30 41L31 41L31 40L33 40L33 39L34 39L34 38L36 38L36 39L35 39L35 40L34 40L34 41L36 41L36 42L34 42L34 43L35 43L35 44L36 44L36 45L38 45L38 44L39 44L39 43L42 43L42 45L43 45L43 46L45 46L45 47L44 47L44 49L46 49L46 50L45 50L45 52L46 52L46 51L47 51L47 52L48 52L48 48L45 48L45 47L46 47L46 46L47 46L47 45L48 45L48 47L49 47L49 48L51 48L51 47L49 47L49 44L43 44L43 43L45 43L45 41L43 41L43 39L40 39L40 41L37 41L37 40L38 40L38 39L39 39L39 38L38 38L38 39L37 39L37 37L39 37L39 36L40 36L40 37L41 37L41 36L43 36L43 35L42 35L42 34L41 34L41 35L37 35L37 37L34 37L34 38L33 38L33 36L36 36L36 35L34 35L34 34L35 34L35 31L37 31L37 32L36 32L36 33L37 33L37 32L38 32L38 34L39 34L39 31L38 31L38 30L41 30L41 31L40 31L40 32L41 32L41 31L44 31L44 34L46 34L46 35L45 35L45 36L44 36L44 37L42 37L42 38L44 38L44 39L46 39L46 38L48 38L48 35L49 35L49 34L50 34L50 33L49 33L49 32L48 32L48 26L50 26L50 25L46 25L46 24L45 24L45 23L46 23L46 22L47 22L47 21L48 21L48 20L49 20L49 19L50 19L50 20L53 20L53 21L54 21L54 20L55 20L55 19L52 19L52 18L54 18L54 17L53 17L53 16L52 16L52 17L48 17L48 18L46 18L46 19L44 19L44 18L45 18L45 17L47 17L47 16L45 16L45 15L44 15L44 16L45 16L45 17L42 17L42 14L44 14L44 13L43 13L43 12L42 12L42 11L40 11L40 10L41 10L41 9L42 9L42 8L41 8L41 7L42 7L42 6L41 6L41 7L40 7L40 5L36 5L36 4L35 4L35 2L36 2L36 1ZM46 1L46 2L45 2L45 3L44 3L44 4L45 4L45 5L47 5L47 3L46 3L46 2L47 2L47 1ZM9 2L9 3L11 3L11 2ZM18 2L18 3L19 3L19 2ZM38 2L38 3L39 3L39 2ZM13 4L13 5L14 5L14 4ZM41 4L41 5L43 5L43 4ZM27 5L27 8L30 8L30 5ZM33 5L33 6L32 6L32 8L33 8L33 6L34 6L34 9L36 9L36 8L37 8L37 11L38 11L38 12L35 12L35 11L36 11L36 10L35 10L35 11L34 11L34 10L33 10L33 11L32 11L32 12L33 12L33 14L32 14L32 15L31 15L31 14L30 14L30 13L28 13L28 12L26 12L26 13L25 13L25 14L24 14L24 15L25 15L25 16L23 16L23 18L22 18L22 17L21 17L21 16L20 16L20 14L21 14L21 13L20 13L20 12L21 12L21 11L19 11L19 12L18 12L18 13L19 13L19 14L18 14L18 15L19 15L19 17L21 17L21 18L22 18L22 20L21 20L21 22L19 22L19 23L17 23L17 22L18 22L18 20L16 20L16 19L18 19L18 17L15 17L15 19L13 19L13 20L11 20L11 21L12 21L12 24L13 24L13 22L14 22L14 24L15 24L15 26L16 26L16 23L17 23L17 27L14 27L14 25L12 25L12 27L14 27L14 28L13 28L13 29L14 29L14 30L13 30L13 31L14 31L14 30L15 30L15 32L12 32L12 30L11 30L11 29L12 29L12 28L11 28L11 29L10 29L10 30L11 30L11 31L9 31L9 32L8 32L8 33L7 33L7 34L6 34L6 35L5 35L5 36L6 36L6 37L7 37L7 36L6 36L6 35L7 35L7 34L8 34L8 35L9 35L9 36L10 36L10 38L12 38L12 37L11 37L11 36L13 36L13 38L14 38L14 39L11 39L11 40L12 40L12 41L13 41L13 40L14 40L14 44L15 44L15 45L17 45L17 46L20 46L20 44L19 44L19 45L17 45L17 43L16 43L16 44L15 44L15 42L18 42L18 43L19 43L19 41L18 41L18 40L21 40L21 41L22 41L22 44L21 44L21 46L22 46L22 44L24 44L24 42L23 42L23 41L22 41L22 40L21 40L21 39L22 39L22 38L20 38L20 37L19 37L19 36L22 36L22 35L21 35L21 34L22 34L22 33L23 33L23 35L24 35L24 34L25 34L25 33L28 33L28 31L29 31L29 32L30 32L30 33L29 33L29 35L30 35L30 34L31 34L31 35L32 35L32 36L33 36L33 34L31 34L31 30L33 30L33 32L34 32L34 31L35 31L35 29L34 29L34 28L35 28L35 27L36 27L36 28L37 28L37 29L36 29L36 30L38 30L38 29L40 29L40 28L39 28L39 27L38 27L38 26L40 26L40 25L38 25L38 24L40 24L40 23L41 23L41 25L43 25L43 26L41 26L41 30L42 30L42 29L43 29L43 30L45 30L45 32L47 32L47 26L46 26L46 25L44 25L44 24L42 24L42 23L41 23L41 22L43 22L43 23L45 23L45 22L44 22L44 21L43 21L43 18L42 18L42 17L41 17L41 18L39 18L39 19L40 19L40 20L37 20L37 19L36 19L36 20L34 20L34 21L35 21L35 22L38 22L38 23L37 23L37 24L36 24L36 23L35 23L35 24L33 24L33 23L34 23L34 22L32 22L32 23L30 23L30 22L31 22L31 20L32 20L32 19L31 19L31 20L30 20L30 17L29 17L29 16L31 16L31 17L32 17L32 18L35 18L35 17L34 17L34 16L35 16L35 15L36 15L36 13L37 13L37 15L39 15L39 17L40 17L40 16L41 16L41 15L39 15L39 11L38 11L38 9L41 9L41 8L38 8L38 7L39 7L39 6L38 6L38 7L37 7L37 6L36 6L36 7L35 7L35 6L34 6L34 5ZM24 6L24 7L25 7L25 6ZM28 6L28 7L29 7L29 6ZM15 8L15 9L16 9L16 8ZM56 8L56 9L57 9L57 8ZM15 10L15 11L16 11L16 10ZM55 10L55 12L56 12L56 13L57 13L57 10ZM0 11L0 12L1 12L1 11ZM30 11L30 12L31 12L31 11ZM51 11L51 12L50 12L50 13L51 13L51 15L53 15L53 14L52 14L52 13L53 13L53 11ZM3 12L3 13L5 13L5 12ZM16 12L16 13L17 13L17 12ZM22 12L22 13L23 13L23 12ZM34 12L34 14L33 14L33 15L32 15L32 16L33 16L33 15L35 15L35 12ZM51 12L51 13L52 13L52 12ZM26 13L26 14L27 14L27 13ZM40 13L40 14L41 14L41 13ZM8 14L8 16L9 16L9 17L10 17L10 16L9 16L9 14ZM16 14L16 15L17 15L17 14ZM0 15L0 18L1 18L1 15ZM11 15L11 16L12 16L12 15ZM26 15L26 16L25 16L25 17L24 17L24 18L23 18L23 21L22 21L22 22L21 22L21 23L20 23L20 24L21 24L21 28L20 28L20 26L19 26L19 25L18 25L18 26L19 26L19 27L17 27L17 30L16 30L16 29L15 29L15 28L14 28L14 29L15 29L15 30L16 30L16 32L17 32L17 30L19 30L19 32L18 32L18 33L14 33L14 34L12 34L12 32L10 32L10 33L11 33L11 35L14 35L14 34L17 34L17 35L19 35L19 34L18 34L18 33L20 33L20 34L21 34L21 33L20 33L20 30L21 30L21 32L22 32L22 31L23 31L23 30L21 30L21 29L24 29L24 30L26 30L26 28L24 28L24 26L25 26L25 25L29 25L29 26L31 26L31 24L30 24L30 23L29 23L29 21L30 21L30 20L29 20L29 19L28 19L28 18L29 18L29 17L27 17L27 15ZM28 15L28 16L29 16L29 15ZM3 16L3 17L4 17L4 16ZM36 17L36 18L37 18L37 17ZM19 18L19 19L20 19L20 18ZM24 18L24 19L25 19L25 22L24 22L24 21L23 21L23 25L22 25L22 27L23 27L23 25L25 25L25 22L27 22L27 23L26 23L26 24L29 24L29 23L28 23L28 21L29 21L29 20L27 20L27 19L25 19L25 18ZM41 18L41 19L42 19L42 18ZM48 18L48 19L49 19L49 18ZM0 19L0 24L1 24L1 21L2 21L2 20L1 20L1 19ZM3 19L3 20L4 20L4 19ZM46 19L46 20L47 20L47 19ZM14 20L14 22L15 22L15 23L16 23L16 20ZM26 20L26 21L27 21L27 20ZM36 20L36 21L37 21L37 20ZM41 20L41 21L42 21L42 20ZM38 21L38 22L39 22L39 21ZM47 23L47 24L48 24L48 23ZM6 24L6 25L7 25L7 24ZM32 24L32 25L33 25L33 24ZM34 25L34 27L35 27L35 25ZM5 27L5 30L8 30L8 27ZM27 27L27 30L30 30L30 27ZM31 27L31 28L33 28L33 27ZM42 27L42 28L44 28L44 27ZM45 27L45 30L46 30L46 27ZM49 27L49 30L52 30L52 27ZM6 28L6 29L7 29L7 28ZM18 28L18 29L19 29L19 30L20 30L20 28ZM28 28L28 29L29 29L29 28ZM50 28L50 29L51 29L51 28ZM0 29L0 30L2 30L2 29ZM0 31L0 32L1 32L1 31ZM25 31L25 32L27 32L27 31ZM50 31L50 32L51 32L51 31ZM23 32L23 33L24 33L24 32ZM42 32L42 33L43 33L43 32ZM8 33L8 34L9 34L9 33ZM47 34L47 35L48 35L48 34ZM55 34L55 35L54 35L54 36L56 36L56 34ZM51 35L51 36L52 36L52 38L49 38L49 39L47 39L47 40L46 40L46 41L47 41L47 42L48 42L48 43L49 43L49 42L50 42L50 41L52 41L52 40L53 40L53 39L52 39L52 38L55 38L55 37L53 37L53 36L52 36L52 35ZM15 36L15 38L17 38L17 39L16 39L16 40L17 40L17 39L18 39L18 37L17 37L17 36ZM45 37L45 38L46 38L46 37ZM1 38L1 39L2 39L2 38ZM32 38L32 39L33 39L33 38ZM24 39L24 41L25 41L25 39ZM49 39L49 40L47 40L47 41L50 41L50 40L52 40L52 39ZM29 40L29 41L30 41L30 40ZM41 40L41 41L40 41L40 42L42 42L42 43L43 43L43 42L42 42L42 40ZM20 42L20 43L21 43L21 42ZM37 42L37 44L38 44L38 43L39 43L39 42ZM29 43L29 44L31 44L31 43ZM2 44L2 45L3 45L3 44ZM26 45L26 46L27 46L27 45ZM3 46L3 47L5 47L5 46ZM15 46L15 47L16 47L16 46ZM6 48L6 49L7 49L7 48ZM41 48L41 49L42 49L42 48ZM22 49L22 51L23 51L23 49ZM27 49L27 52L30 52L30 49ZM34 49L34 50L33 50L33 52L35 52L35 51L34 51L34 50L35 50L35 49ZM36 49L36 50L37 50L37 49ZM49 49L49 52L52 52L52 49ZM28 50L28 51L29 51L29 50ZM50 50L50 51L51 51L51 50ZM14 52L14 53L15 53L15 52ZM40 52L40 54L41 54L41 55L40 55L40 56L42 56L42 54L43 54L43 52L42 52L42 54L41 54L41 52ZM54 52L54 53L55 53L55 52ZM11 53L11 54L12 54L12 53ZM17 53L17 54L18 54L18 53ZM20 53L20 55L21 55L21 56L22 56L22 54L21 54L21 53ZM47 53L47 54L50 54L50 53ZM34 54L34 55L36 55L36 54ZM24 55L24 57L25 57L25 55ZM56 55L56 56L57 56L57 55ZM0 0L0 7L7 7L7 0ZM1 1L1 6L6 6L6 1ZM2 2L2 5L5 5L5 2ZM50 0L50 7L57 7L57 0ZM51 1L51 6L56 6L56 1ZM52 2L52 5L55 5L55 2ZM0 50L0 57L7 57L7 50ZM1 51L1 56L6 56L6 51ZM2 52L2 55L5 55L5 52Z" fill="#000000"/></g></g></svg>
