<?xml version="1.0" encoding="UTF-8"?>
<svg xmlns="http://www.w3.org/2000/svg" version="1.1" width="300" height="300" viewBox="0 0 300 300"><rect x="0" y="0" width="300" height="300" fill="#fefefe"/><g transform="scale(4.615)"><g transform="translate(4,4)"><path fill-rule="evenodd" d="M10 0L10 1L8 1L8 2L9 2L9 3L8 3L8 4L9 4L9 5L8 5L8 7L9 7L9 8L6 8L6 9L7 9L7 10L6 10L6 11L7 11L7 12L6 12L6 13L5 13L5 14L4 14L4 13L3 13L3 14L1 14L1 17L0 17L0 19L1 19L1 18L2 18L2 20L0 20L0 21L1 21L1 22L0 22L0 23L1 23L1 22L2 22L2 21L3 21L3 24L4 24L4 25L2 25L2 26L1 26L1 25L0 25L0 27L2 27L2 28L1 28L1 30L0 30L0 32L2 32L2 31L3 31L3 32L4 32L4 34L3 34L3 33L2 33L2 35L3 35L3 36L2 36L2 37L1 37L1 35L0 35L0 37L1 37L1 38L0 38L0 40L1 40L1 41L3 41L3 40L5 40L5 39L4 39L4 38L5 38L5 37L8 37L8 38L6 38L6 39L7 39L7 40L6 40L6 41L10 41L10 42L8 42L8 43L10 43L10 44L5 44L5 41L4 41L4 44L3 44L3 42L0 42L0 44L1 44L1 43L2 43L2 44L3 44L3 46L2 46L2 45L0 45L0 48L5 48L5 47L7 47L7 48L6 48L6 49L7 49L7 48L8 48L8 51L9 51L9 52L8 52L8 57L9 57L9 56L11 56L11 57L12 57L12 56L11 56L11 55L13 55L13 57L14 57L14 54L15 54L15 55L16 55L16 56L15 56L15 57L16 57L16 56L17 56L17 57L19 57L19 55L20 55L20 54L19 54L19 53L20 53L20 52L21 52L21 53L22 53L22 55L21 55L21 56L24 56L24 57L26 57L26 56L27 56L27 57L29 57L29 56L30 56L30 57L31 57L31 56L35 56L35 57L39 57L39 56L37 56L37 55L40 55L40 56L41 56L41 57L44 57L44 54L45 54L45 55L46 55L46 54L45 54L45 53L44 53L44 52L45 52L45 51L44 51L44 50L45 50L45 49L44 49L44 48L43 48L43 47L44 47L44 46L43 46L43 45L44 45L44 43L46 43L46 44L45 44L45 45L47 45L47 46L45 46L45 47L47 47L47 48L46 48L46 49L47 49L47 50L48 50L48 53L47 53L47 51L46 51L46 53L47 53L47 56L48 56L48 57L49 57L49 56L50 56L50 57L52 57L52 55L51 55L51 53L52 53L52 54L53 54L53 52L54 52L54 53L56 53L56 49L57 49L57 48L56 48L56 46L57 46L57 45L56 45L56 46L55 46L55 45L54 45L54 44L55 44L55 43L56 43L56 44L57 44L57 43L56 43L56 41L55 41L55 39L57 39L57 37L55 37L55 36L57 36L57 35L53 35L53 34L52 34L52 33L54 33L54 34L57 34L57 32L56 32L56 30L57 30L57 29L56 29L56 27L55 27L55 26L57 26L57 25L56 25L56 22L57 22L57 20L56 20L56 19L55 19L55 18L57 18L57 17L56 17L56 16L57 16L57 15L56 15L56 14L57 14L57 13L56 13L56 14L55 14L55 13L54 13L54 12L55 12L55 11L56 11L56 12L57 12L57 11L56 11L56 10L54 10L54 11L52 11L52 10L53 10L53 9L54 9L54 8L53 8L53 9L52 9L52 8L51 8L51 10L49 10L49 9L50 9L50 8L49 8L49 6L48 6L48 9L47 9L47 8L45 8L45 6L44 6L44 3L47 3L47 5L46 5L46 4L45 4L45 5L46 5L46 7L47 7L47 5L48 5L48 0L46 0L46 1L45 1L45 2L44 2L44 3L41 3L41 2L43 2L43 0L41 0L41 1L40 1L40 0L39 0L39 1L38 1L38 0L37 0L37 1L38 1L38 2L37 2L37 3L36 3L36 0L35 0L35 1L33 1L33 0L32 0L32 3L31 3L31 4L28 4L28 3L29 3L29 1L30 1L30 2L31 2L31 0L27 0L27 1L26 1L26 0L23 0L23 2L21 2L21 1L22 1L22 0L21 0L21 1L20 1L20 0L19 0L19 1L15 1L15 0L14 0L14 2L12 2L12 1L13 1L13 0ZM10 1L10 2L11 2L11 1ZM25 1L25 2L23 2L23 3L21 3L21 2L20 2L20 3L19 3L19 4L17 4L17 2L16 2L16 3L15 3L15 2L14 2L14 4L13 4L13 5L12 5L12 6L11 6L11 7L12 7L12 11L13 11L13 12L12 12L12 13L13 13L13 14L15 14L15 13L16 13L16 16L15 16L15 15L14 15L14 16L13 16L13 15L10 15L10 14L11 14L11 13L10 13L10 12L9 12L9 9L11 9L11 8L9 8L9 9L8 9L8 12L9 12L9 13L10 13L10 14L9 14L9 15L10 15L10 16L7 16L7 15L6 15L6 14L7 14L7 13L6 13L6 14L5 14L5 15L6 15L6 16L3 16L3 15L2 15L2 16L3 16L3 17L2 17L2 18L3 18L3 21L4 21L4 24L5 24L5 25L4 25L4 26L8 26L8 25L6 25L6 24L9 24L9 22L10 22L10 24L11 24L11 25L12 25L12 24L13 24L13 25L15 25L15 26L13 26L13 28L11 28L11 27L10 27L10 26L9 26L9 27L10 27L10 28L11 28L11 29L13 29L13 28L14 28L14 27L15 27L15 26L18 26L18 27L17 27L17 28L18 28L18 29L16 29L16 28L15 28L15 29L16 29L16 31L15 31L15 30L14 30L14 31L11 31L11 30L10 30L10 29L9 29L9 30L10 30L10 32L9 32L9 31L8 31L8 32L9 32L9 33L10 33L10 34L8 34L8 33L6 33L6 32L7 32L7 31L4 31L4 30L3 30L3 31L4 31L4 32L5 32L5 33L6 33L6 34L7 34L7 35L6 35L6 36L8 36L8 37L9 37L9 38L8 38L8 39L12 39L12 42L13 42L13 43L15 43L15 47L13 47L13 48L14 48L14 49L15 49L15 50L13 50L13 53L12 53L12 50L10 50L10 49L11 49L11 46L14 46L14 44L12 44L12 43L11 43L11 42L10 42L10 43L11 43L11 46L10 46L10 45L9 45L9 47L8 47L8 46L7 46L7 45L6 45L6 46L7 46L7 47L8 47L8 48L9 48L9 47L10 47L10 49L9 49L9 51L11 51L11 52L9 52L9 53L12 53L12 54L13 54L13 53L14 53L14 51L16 51L16 53L15 53L15 54L16 54L16 53L17 53L17 50L19 50L19 49L17 49L17 48L18 48L18 47L19 47L19 48L20 48L20 51L21 51L21 52L22 52L22 53L24 53L24 54L23 54L23 55L24 55L24 56L26 56L26 54L27 54L27 56L29 56L29 55L30 55L30 56L31 56L31 54L32 54L32 53L33 53L33 55L35 55L35 56L36 56L36 54L35 54L35 50L36 50L36 52L37 52L37 51L38 51L38 53L37 53L37 54L40 54L40 53L41 53L41 52L43 52L43 51L42 51L42 50L41 50L41 48L42 48L42 49L43 49L43 50L44 50L44 49L43 49L43 48L42 48L42 47L43 47L43 46L41 46L41 44L42 44L42 43L39 43L39 45L38 45L38 46L39 46L39 47L38 47L38 48L37 48L37 49L38 49L38 50L36 50L36 49L34 49L34 48L36 48L36 47L32 47L32 45L33 45L33 46L35 46L35 45L34 45L34 43L35 43L35 44L36 44L36 43L37 43L37 42L35 42L35 40L38 40L38 42L39 42L39 41L41 41L41 39L45 39L45 40L43 40L43 41L44 41L44 42L43 42L43 43L44 43L44 42L46 42L46 43L47 43L47 45L48 45L48 46L50 46L50 47L48 47L48 48L47 48L47 49L48 49L48 48L53 48L53 49L56 49L56 48L53 48L53 46L54 46L54 45L53 45L53 43L54 43L54 42L53 42L53 41L54 41L54 40L53 40L53 41L51 41L51 42L50 42L50 43L49 43L49 42L48 42L48 41L49 41L49 39L51 39L51 40L52 40L52 39L54 39L54 38L53 38L53 35L52 35L52 34L50 34L50 31L48 31L48 28L47 28L47 29L46 29L46 30L47 30L47 31L48 31L48 32L46 32L46 33L45 33L45 32L43 32L43 30L44 30L44 31L45 31L45 30L44 30L44 29L45 29L45 28L46 28L46 27L47 27L47 25L49 25L49 24L50 24L50 26L53 26L53 27L54 27L54 26L53 26L53 25L54 25L54 24L51 24L51 23L50 23L50 22L51 22L51 21L54 21L54 22L53 22L53 23L55 23L55 22L56 22L56 20L53 20L53 19L52 19L52 18L51 18L51 17L53 17L53 18L55 18L55 16L53 16L53 15L54 15L54 14L53 14L53 15L52 15L52 16L51 16L51 15L50 15L50 14L51 14L51 12L50 12L50 11L49 11L49 10L47 10L47 9L45 9L45 8L44 8L44 6L43 6L43 5L40 5L40 4L41 4L41 3L39 3L39 2L38 2L38 3L37 3L37 4L36 4L36 5L35 5L35 3L34 3L34 4L33 4L33 3L32 3L32 4L31 4L31 8L32 8L32 10L29 10L29 12L28 12L28 13L26 13L26 12L27 12L27 11L26 11L26 12L25 12L25 10L23 10L23 9L24 9L24 6L23 6L23 5L24 5L24 4L23 4L23 3L26 3L26 4L25 4L25 8L26 8L26 4L27 4L27 3L28 3L28 1L27 1L27 2L26 2L26 1ZM46 1L46 2L47 2L47 1ZM9 3L9 4L10 4L10 5L9 5L9 7L10 7L10 5L11 5L11 4L10 4L10 3ZM15 4L15 5L16 5L16 4ZM19 4L19 5L20 5L20 7L19 7L19 6L18 6L18 5L17 5L17 6L16 6L16 7L15 7L15 6L14 6L14 8L13 8L13 9L14 9L14 8L16 8L16 9L15 9L15 10L13 10L13 11L14 11L14 12L13 12L13 13L15 13L15 12L16 12L16 13L17 13L17 14L19 14L19 15L20 15L20 13L21 13L21 15L24 15L24 16L25 16L25 17L22 17L22 16L21 16L21 17L22 17L22 18L24 18L24 19L20 19L20 16L18 16L18 15L17 15L17 16L16 16L16 17L17 17L17 18L16 18L16 19L15 19L15 21L16 21L16 22L14 22L14 21L13 21L13 20L14 20L14 19L13 19L13 18L15 18L15 17L12 17L12 16L10 16L10 17L8 17L8 18L10 18L10 17L11 17L11 18L12 18L12 19L11 19L11 20L8 20L8 19L7 19L7 18L6 18L6 17L7 17L7 16L6 16L6 17L4 17L4 18L6 18L6 19L4 19L4 20L5 20L5 24L6 24L6 23L7 23L7 22L9 22L9 21L10 21L10 22L11 22L11 20L12 20L12 21L13 21L13 22L12 22L12 23L16 23L16 24L15 24L15 25L16 25L16 24L17 24L17 25L18 25L18 26L20 26L20 27L19 27L19 28L20 28L20 29L18 29L18 30L20 30L20 31L17 31L17 32L14 32L14 33L13 33L13 34L14 34L14 33L19 33L19 34L20 34L20 35L18 35L18 34L17 34L17 35L18 35L18 36L17 36L17 37L18 37L18 38L17 38L17 40L16 40L16 39L15 39L15 41L17 41L17 42L18 42L18 43L16 43L16 44L18 44L18 45L17 45L17 47L18 47L18 46L20 46L20 47L23 47L23 46L25 46L25 45L23 45L23 43L24 43L24 44L29 44L29 43L32 43L32 44L31 44L31 45L29 45L29 46L28 46L28 47L27 47L27 45L26 45L26 47L24 47L24 48L23 48L23 49L21 49L21 50L22 50L22 51L23 51L23 50L26 50L26 52L24 52L24 53L27 53L27 54L30 54L30 53L31 53L31 49L32 49L32 52L33 52L33 53L34 53L34 52L33 52L33 51L34 51L34 50L33 50L33 49L32 49L32 47L31 47L31 45L32 45L32 44L33 44L33 43L34 43L34 42L33 42L33 41L32 41L32 40L31 40L31 41L32 41L32 42L30 42L30 40L29 40L29 42L27 42L27 41L26 41L26 42L27 42L27 43L25 43L25 41L24 41L24 40L25 40L25 39L26 39L26 40L28 40L28 39L27 39L27 38L28 38L28 37L26 37L26 38L25 38L25 36L26 36L26 35L27 35L27 33L26 33L26 34L25 34L25 33L23 33L23 34L24 34L24 36L23 36L23 35L22 35L22 33L21 33L21 32L24 32L24 30L25 30L25 31L26 31L26 32L27 32L27 31L29 31L29 32L28 32L28 33L29 33L29 34L30 34L30 36L29 36L29 37L31 37L31 38L29 38L29 39L33 39L33 40L35 40L35 39L38 39L38 40L40 40L40 39L38 39L38 36L39 36L39 37L40 37L40 38L43 38L43 37L44 37L44 38L45 38L45 39L46 39L46 40L47 40L47 39L49 39L49 38L50 38L50 36L51 36L51 37L52 37L52 35L50 35L50 34L48 34L48 35L44 35L44 33L43 33L43 32L41 32L41 33L39 33L39 34L40 34L40 35L38 35L38 33L37 33L37 32L34 32L34 33L35 33L35 34L37 34L37 36L35 36L35 35L34 35L34 34L32 34L32 35L31 35L31 33L32 33L32 32L31 32L31 33L29 33L29 32L30 32L30 31L31 31L31 29L32 29L32 28L31 28L31 26L32 26L32 27L33 27L33 28L35 28L35 30L32 30L32 31L36 31L36 29L38 29L38 28L40 28L40 27L41 27L41 28L42 28L42 26L45 26L45 27L44 27L44 28L43 28L43 29L40 29L40 30L43 30L43 29L44 29L44 28L45 28L45 27L46 27L46 26L45 26L45 25L46 25L46 24L48 24L48 23L47 23L47 22L45 22L45 23L46 23L46 24L45 24L45 25L44 25L44 24L43 24L43 23L44 23L44 20L45 20L45 21L48 21L48 22L49 22L49 21L51 21L51 20L52 20L52 19L50 19L50 17L49 17L49 16L50 16L50 15L49 15L49 14L50 14L50 12L49 12L49 13L47 13L47 14L45 14L45 13L44 13L44 11L45 11L45 12L48 12L48 11L47 11L47 10L44 10L44 8L43 8L43 9L41 9L41 10L42 10L42 11L43 11L43 13L41 13L41 14L44 14L44 15L42 15L42 16L41 16L41 15L39 15L39 14L38 14L38 13L40 13L40 12L41 12L41 11L40 11L40 10L39 10L39 11L37 11L37 10L38 10L38 9L39 9L39 8L40 8L40 7L41 7L41 6L40 6L40 5L39 5L39 6L38 6L38 4L37 4L37 5L36 5L36 7L37 7L37 8L35 8L35 5L33 5L33 4L32 4L32 5L33 5L33 6L32 6L32 7L33 7L33 9L34 9L34 8L35 8L35 9L37 9L37 10L36 10L36 11L37 11L37 12L35 12L35 13L36 13L36 14L33 14L33 13L34 13L34 12L33 12L33 10L32 10L32 11L31 11L31 13L30 13L30 14L29 14L29 13L28 13L28 14L29 14L29 16L28 16L28 15L27 15L27 14L25 14L25 12L23 12L23 10L22 10L22 11L21 11L21 10L20 10L20 9L19 9L19 8L21 8L21 5L22 5L22 4ZM27 5L27 8L30 8L30 5ZM12 6L12 7L13 7L13 6ZM17 6L17 7L16 7L16 8L19 8L19 7L18 7L18 6ZM22 6L22 8L23 8L23 6ZM28 6L28 7L29 7L29 6ZM33 6L33 7L34 7L34 6ZM37 6L37 7L38 7L38 6ZM39 6L39 7L40 7L40 6ZM42 6L42 7L43 7L43 6ZM0 8L0 11L1 11L1 10L2 10L2 11L3 11L3 12L5 12L5 11L4 11L4 9L5 9L5 8ZM37 8L37 9L38 9L38 8ZM55 8L55 9L56 9L56 8ZM2 9L2 10L3 10L3 9ZM16 9L16 10L15 10L15 11L18 11L18 10L19 10L19 13L20 13L20 10L19 10L19 9L18 9L18 10L17 10L17 9ZM27 9L27 10L28 10L28 9ZM39 11L39 12L40 12L40 11ZM17 12L17 13L18 13L18 12ZM21 12L21 13L22 13L22 14L23 14L23 13L22 13L22 12ZM32 12L32 13L31 13L31 14L30 14L30 15L31 15L31 14L32 14L32 13L33 13L33 12ZM52 12L52 13L53 13L53 12ZM24 14L24 15L25 15L25 14ZM37 14L37 15L35 15L35 16L32 16L32 17L31 17L31 18L30 18L30 19L28 19L28 18L26 18L26 17L28 17L28 16L27 16L27 15L26 15L26 17L25 17L25 18L26 18L26 21L27 21L27 23L29 23L29 24L25 24L25 23L26 23L26 22L25 22L25 21L24 21L24 20L20 20L20 21L17 21L17 20L19 20L19 17L18 17L18 16L17 16L17 17L18 17L18 18L17 18L17 19L16 19L16 21L17 21L17 24L19 24L19 25L20 25L20 26L22 26L22 27L20 27L20 28L22 28L22 29L20 29L20 30L21 30L21 31L20 31L20 32L19 32L19 33L20 33L20 34L21 34L21 33L20 33L20 32L21 32L21 31L23 31L23 29L26 29L26 28L23 28L23 26L22 26L22 25L23 25L23 23L24 23L24 24L25 24L25 25L26 25L26 26L25 26L25 27L26 27L26 26L28 26L28 25L29 25L29 24L30 24L30 25L31 25L31 24L32 24L32 26L33 26L33 27L34 27L34 26L36 26L36 27L39 27L39 26L42 26L42 25L41 25L41 24L40 24L40 22L39 22L39 21L41 21L41 20L38 20L38 19L39 19L39 17L41 17L41 16L39 16L39 15L38 15L38 14ZM44 15L44 18L43 18L43 19L42 19L42 18L41 18L41 19L42 19L42 20L44 20L44 18L45 18L45 19L46 19L46 18L47 18L47 17L48 17L48 16L49 16L49 15L48 15L48 16L47 16L47 15ZM35 16L35 17L37 17L37 18L38 18L38 17L39 17L39 16L38 16L38 17L37 17L37 16ZM42 16L42 17L43 17L43 16ZM45 16L45 17L47 17L47 16ZM32 17L32 18L31 18L31 19L30 19L30 20L31 20L31 21L28 21L28 22L30 22L30 23L31 23L31 21L32 21L32 20L33 20L33 17ZM6 19L6 20L7 20L7 21L6 21L6 22L7 22L7 21L8 21L8 20L7 20L7 19ZM12 19L12 20L13 20L13 19ZM27 19L27 20L28 20L28 19ZM34 19L34 20L35 20L35 23L34 23L34 22L33 22L33 23L32 23L32 24L33 24L33 25L37 25L37 26L38 26L38 25L40 25L40 24L37 24L37 22L38 22L38 23L39 23L39 22L38 22L38 20L36 20L36 19ZM48 19L48 21L49 21L49 19ZM22 21L22 22L24 22L24 21ZM19 22L19 23L20 23L20 22ZM41 22L41 23L42 23L42 22ZM20 24L20 25L22 25L22 24ZM3 27L3 29L4 29L4 27ZM5 27L5 30L8 30L8 27ZM27 27L27 30L30 30L30 27ZM49 27L49 30L52 30L52 27ZM6 28L6 29L7 29L7 28ZM28 28L28 29L29 29L29 28ZM50 28L50 29L51 29L51 28ZM54 28L54 29L53 29L53 31L51 31L51 33L52 33L52 32L54 32L54 33L56 33L56 32L54 32L54 31L55 31L55 30L54 30L54 29L55 29L55 28ZM38 30L38 32L39 32L39 30ZM11 32L11 33L12 33L12 32ZM48 32L48 33L49 33L49 32ZM0 33L0 34L1 34L1 33ZM4 34L4 36L3 36L3 37L2 37L2 38L1 38L1 39L2 39L2 40L3 40L3 37L4 37L4 36L5 36L5 34ZM11 34L11 35L9 35L9 36L11 36L11 37L12 37L12 38L14 38L14 36L15 36L15 35L16 35L16 34L15 34L15 35L12 35L12 34ZM42 34L42 35L43 35L43 36L40 36L40 37L43 37L43 36L44 36L44 37L45 37L45 38L46 38L46 39L47 39L47 37L48 37L48 36L50 36L50 35L48 35L48 36L47 36L47 37L45 37L45 36L44 36L44 35L43 35L43 34ZM20 35L20 36L19 36L19 37L22 37L22 40L20 40L20 42L19 42L19 41L18 41L18 40L17 40L17 41L18 41L18 42L19 42L19 43L20 43L20 46L21 46L21 45L22 45L22 46L23 46L23 45L22 45L22 44L21 44L21 43L22 43L22 42L24 42L24 41L23 41L23 40L24 40L24 39L23 39L23 38L24 38L24 37L23 37L23 36L22 36L22 35ZM33 35L33 36L32 36L32 37L33 37L33 38L34 38L34 39L35 39L35 37L34 37L34 35ZM12 36L12 37L13 37L13 36ZM15 37L15 38L16 38L16 37ZM19 38L19 39L20 39L20 38ZM51 38L51 39L52 39L52 38ZM13 39L13 40L14 40L14 39ZM10 40L10 41L11 41L11 40ZM21 41L21 42L22 42L22 41ZM6 42L6 43L7 43L7 42ZM32 42L32 43L33 43L33 42ZM47 42L47 43L48 43L48 42ZM51 42L51 43L50 43L50 44L48 44L48 45L50 45L50 44L51 44L51 45L52 45L52 44L51 44L51 43L53 43L53 42ZM4 44L4 45L5 45L5 44ZM1 46L1 47L2 47L2 46ZM3 46L3 47L5 47L5 46ZM40 46L40 47L39 47L39 48L38 48L38 49L39 49L39 48L41 48L41 46ZM51 46L51 47L52 47L52 46ZM15 47L15 49L16 49L16 47ZM26 47L26 48L24 48L24 49L26 49L26 48L27 48L27 47ZM28 47L28 48L29 48L29 47ZM27 49L27 52L30 52L30 49ZM49 49L49 52L52 52L52 49ZM28 50L28 51L29 51L29 50ZM38 50L38 51L40 51L40 52L41 52L41 50ZM50 50L50 51L51 51L51 50ZM54 50L54 51L55 51L55 50ZM43 53L43 54L44 54L44 53ZM9 54L9 55L11 55L11 54ZM17 54L17 56L18 56L18 54ZM41 54L41 56L43 56L43 55L42 55L42 54ZM48 55L48 56L49 56L49 55ZM50 55L50 56L51 56L51 55ZM53 55L53 56L55 56L55 57L56 57L56 56L55 56L55 55ZM45 56L45 57L46 57L46 56ZM0 0L0 7L7 7L7 0ZM1 1L1 6L6 6L6 1ZM2 2L2 5L5 5L5 2ZM50 0L50 7L57 7L57 0ZM51 1L51 6L56 6L56 1ZM52 2L52 5L55 5L55 2ZM0 50L0 57L7 57L7 50ZM1 51L1 56L6 56L6 51ZM2 52L2 55L5 55L5 52Z" fill="#000000"/></g></g></svg>
