<?xml version="1.0" encoding="UTF-8"?>
<svg xmlns="http://www.w3.org/2000/svg" version="1.1" width="300" height="300" viewBox="0 0 300 300"><rect x="0" y="0" width="300" height="300" fill="#fefefe"/><g transform="scale(4.615)"><g transform="translate(4,4)"><path fill-rule="evenodd" d="M9 0L9 1L8 1L8 2L9 2L9 1L10 1L10 5L8 5L8 7L9 7L9 6L10 6L10 7L11 7L11 8L10 8L10 9L9 9L9 8L6 8L6 9L5 9L5 8L0 8L0 9L1 9L1 10L0 10L0 11L1 11L1 10L2 10L2 11L4 11L4 10L6 10L6 11L7 11L7 12L1 12L1 14L0 14L0 15L1 15L1 16L0 16L0 17L1 17L1 18L0 18L0 24L1 24L1 21L4 21L4 22L3 22L3 26L1 26L1 28L0 28L0 29L1 29L1 30L0 30L0 31L1 31L1 32L2 32L2 31L1 31L1 30L4 30L4 31L10 31L10 32L11 32L11 33L10 33L10 34L11 34L11 35L8 35L8 34L6 34L6 35L8 35L8 36L4 36L4 37L8 37L8 38L9 38L9 39L11 39L11 37L12 37L12 40L13 40L13 41L14 41L14 42L15 42L15 43L14 43L14 45L13 45L13 46L12 46L12 47L11 47L11 49L10 49L10 48L8 48L8 47L10 47L10 46L11 46L11 44L13 44L13 42L12 42L12 41L11 41L11 40L9 40L9 41L8 41L8 40L5 40L5 41L4 41L4 38L3 38L3 37L2 37L2 36L3 36L3 34L5 34L5 33L9 33L9 32L3 32L3 33L2 33L2 34L1 34L1 33L0 33L0 35L1 35L1 37L2 37L2 38L1 38L1 39L2 39L2 40L0 40L0 43L2 43L2 42L3 42L3 43L4 43L4 42L5 42L5 43L7 43L7 42L9 42L9 41L11 41L11 42L10 42L10 43L11 43L11 44L9 44L9 43L8 43L8 44L6 44L6 45L5 45L5 44L3 44L3 45L4 45L4 46L5 46L5 47L3 47L3 46L2 46L2 47L1 47L1 46L0 46L0 48L5 48L5 47L7 47L7 48L6 48L6 49L8 49L8 51L10 51L10 52L8 52L8 57L10 57L10 56L11 56L11 55L10 55L10 54L9 54L9 53L12 53L12 52L11 52L11 50L12 50L12 51L14 51L14 54L13 54L13 55L12 55L12 57L16 57L16 56L17 56L17 57L21 57L21 56L19 56L19 55L20 55L20 54L19 54L19 53L20 53L20 52L21 52L21 51L20 51L20 49L21 49L21 50L25 50L25 49L26 49L26 52L24 52L24 53L21 53L21 54L22 54L22 55L23 55L23 57L26 57L26 56L27 56L27 57L29 57L29 56L30 56L30 57L31 57L31 56L35 56L35 57L39 57L39 56L41 56L41 57L44 57L44 56L41 56L41 54L42 54L42 55L44 55L44 54L45 54L45 53L44 53L44 52L47 52L47 51L46 51L46 50L45 50L45 49L44 49L44 48L43 48L43 47L44 47L44 46L43 46L43 45L44 45L44 43L45 43L45 42L44 42L44 41L43 41L43 40L45 40L45 41L47 41L47 39L48 39L48 38L51 38L51 39L49 39L49 41L48 41L48 42L47 42L47 43L46 43L46 44L45 44L45 45L47 45L47 46L45 46L45 47L47 47L47 48L48 48L48 49L47 49L47 50L48 50L48 53L47 53L47 55L49 55L49 56L48 56L48 57L49 57L49 56L50 56L50 57L52 57L52 55L51 55L51 53L52 53L52 54L53 54L53 57L54 57L54 56L55 56L55 57L56 57L56 56L55 56L55 54L54 54L54 53L55 53L55 51L56 51L56 52L57 52L57 51L56 51L56 50L55 50L55 49L53 49L53 48L56 48L56 49L57 49L57 48L56 48L56 46L57 46L57 44L56 44L56 41L55 41L55 39L57 39L57 37L56 37L56 36L55 36L55 35L56 35L56 34L57 34L57 32L56 32L56 30L57 30L57 28L56 28L56 26L57 26L57 25L56 25L56 22L57 22L57 21L56 21L56 20L55 20L55 19L56 19L56 18L57 18L57 17L56 17L56 16L57 16L57 15L56 15L56 14L57 14L57 11L56 11L56 10L54 10L54 11L52 11L52 10L53 10L53 9L54 9L54 8L53 8L53 9L52 9L52 8L51 8L51 11L50 11L50 8L49 8L49 6L48 6L48 7L47 7L47 5L48 5L48 0L45 0L45 2L44 2L44 3L43 3L43 4L40 4L40 5L39 5L39 6L38 6L38 7L37 7L37 5L38 5L38 4L39 4L39 3L41 3L41 2L43 2L43 0L41 0L41 1L40 1L40 0L39 0L39 1L38 1L38 0L37 0L37 1L38 1L38 2L39 2L39 3L38 3L38 4L37 4L37 3L36 3L36 0L35 0L35 1L32 1L32 3L31 3L31 0L29 0L29 1L28 1L28 2L29 2L29 4L26 4L26 3L23 3L23 2L27 2L27 1L25 1L25 0L23 0L23 2L22 2L22 0L21 0L21 1L20 1L20 0L19 0L19 1L18 1L18 2L17 2L17 6L16 6L16 7L15 7L15 6L14 6L14 8L13 8L13 9L14 9L14 8L16 8L16 9L15 9L15 10L12 10L12 7L13 7L13 6L12 6L12 7L11 7L11 6L10 6L10 5L11 5L11 3L12 3L12 4L14 4L14 2L15 2L15 3L16 3L16 2L15 2L15 1L14 1L14 0L13 0L13 1L14 1L14 2L11 2L11 1L12 1L12 0ZM19 1L19 2L18 2L18 3L19 3L19 4L22 4L22 5L21 5L21 7L22 7L22 8L19 8L19 9L16 9L16 10L15 10L15 11L18 11L18 10L19 10L19 9L20 9L20 14L18 14L18 15L17 15L17 13L18 13L18 12L17 12L17 13L16 13L16 12L15 12L15 13L13 13L13 12L14 12L14 11L13 11L13 12L12 12L12 13L11 13L11 11L12 11L12 10L11 10L11 9L10 9L10 10L8 10L8 9L6 9L6 10L8 10L8 12L9 12L9 11L10 11L10 13L9 13L9 14L8 14L8 13L3 13L3 14L2 14L2 15L3 15L3 14L4 14L4 15L5 15L5 17L6 17L6 18L4 18L4 17L2 17L2 16L1 16L1 17L2 17L2 18L1 18L1 19L2 19L2 18L4 18L4 20L7 20L7 21L6 21L6 22L4 22L4 25L5 25L5 26L8 26L8 25L9 25L9 26L10 26L10 27L9 27L9 28L10 28L10 29L11 29L11 30L12 30L12 31L11 31L11 32L12 32L12 33L11 33L11 34L12 34L12 35L13 35L13 36L14 36L14 37L13 37L13 40L14 40L14 41L15 41L15 42L17 42L17 43L18 43L18 42L19 42L19 45L20 45L20 47L21 47L21 49L23 49L23 47L25 47L25 48L24 48L24 49L25 49L25 48L30 48L30 47L29 47L29 46L31 46L31 47L33 47L33 48L32 48L32 49L31 49L31 50L36 50L36 52L37 52L37 51L38 51L38 50L41 50L41 51L42 51L42 50L41 50L41 48L42 48L42 49L43 49L43 50L44 50L44 51L45 51L45 50L44 50L44 49L43 49L43 48L42 48L42 47L43 47L43 46L41 46L41 48L39 48L39 47L40 47L40 46L39 46L39 45L41 45L41 44L42 44L42 43L41 43L41 44L39 44L39 45L38 45L38 46L39 46L39 47L38 47L38 48L37 48L37 49L38 49L38 50L36 50L36 49L33 49L33 48L36 48L36 46L37 46L37 45L36 45L36 46L35 46L35 45L34 45L34 43L35 43L35 44L36 44L36 43L37 43L37 42L35 42L35 40L38 40L38 42L39 42L39 43L40 43L40 42L41 42L41 41L42 41L42 40L41 40L41 38L42 38L42 39L47 39L47 37L48 37L48 36L50 36L50 37L51 37L51 38L53 38L53 39L55 39L55 37L53 37L53 35L55 35L55 34L56 34L56 32L53 32L53 31L48 31L48 29L46 29L46 30L47 30L47 31L46 31L46 33L45 33L45 32L43 32L43 31L45 31L45 28L46 28L46 27L47 27L47 28L48 28L48 26L47 26L47 24L48 24L48 25L50 25L50 26L53 26L53 27L54 27L54 26L53 26L53 24L50 24L50 22L51 22L51 21L54 21L54 22L56 22L56 21L55 21L55 20L53 20L53 19L52 19L52 20L51 20L51 21L49 21L49 23L47 23L47 24L46 24L46 25L45 25L45 22L47 22L47 21L45 21L45 20L47 20L47 19L48 19L48 18L47 18L47 17L48 17L48 16L49 16L49 17L50 17L50 18L49 18L49 19L50 19L50 18L51 18L51 17L53 17L53 18L55 18L55 16L53 16L53 15L50 15L50 14L51 14L51 12L50 12L50 11L49 11L49 10L47 10L47 9L49 9L49 8L47 8L47 7L46 7L46 5L47 5L47 3L44 3L44 6L43 6L43 8L42 8L42 9L43 9L43 10L44 10L44 9L45 9L45 10L47 10L47 12L45 12L45 11L44 11L44 13L45 13L45 14L44 14L44 18L43 18L43 20L42 20L42 21L43 21L43 20L44 20L44 23L41 23L41 24L39 24L39 23L40 23L40 22L39 22L39 21L41 21L41 20L39 20L39 21L38 21L38 23L37 23L37 24L39 24L39 25L38 25L38 26L37 26L37 25L33 25L33 24L32 24L32 23L35 23L35 20L32 20L32 21L31 21L31 18L30 18L30 19L28 19L28 18L27 18L27 17L28 17L28 16L29 16L29 14L30 14L30 15L31 15L31 14L30 14L30 13L31 13L31 11L32 11L32 13L33 13L33 14L35 14L35 12L36 12L36 10L37 10L37 11L39 11L39 12L40 12L40 13L38 13L38 14L37 14L37 13L36 13L36 14L37 14L37 15L35 15L35 16L33 16L33 15L32 15L32 18L35 18L35 19L36 19L36 20L37 20L37 19L39 19L39 17L41 17L41 16L42 16L42 17L43 17L43 16L42 16L42 15L43 15L43 14L41 14L41 13L43 13L43 11L42 11L42 10L41 10L41 7L42 7L42 6L41 6L41 5L40 5L40 6L39 6L39 7L40 7L40 8L39 8L39 9L38 9L38 8L37 8L37 7L36 7L36 5L37 5L37 4L36 4L36 5L35 5L35 4L33 4L33 3L35 3L35 2L33 2L33 3L32 3L32 4L31 4L31 3L30 3L30 4L31 4L31 8L32 8L32 10L31 10L31 11L29 11L29 9L27 9L27 11L26 11L26 12L25 12L25 10L23 10L23 12L24 12L24 13L22 13L22 12L21 12L21 11L22 11L22 10L21 10L21 9L24 9L24 6L23 6L23 5L24 5L24 4L23 4L23 3L20 3L20 1ZM29 1L29 2L30 2L30 1ZM46 1L46 2L47 2L47 1ZM8 3L8 4L9 4L9 3ZM15 4L15 5L16 5L16 4ZM25 4L25 8L26 8L26 4ZM32 4L32 5L33 5L33 6L32 6L32 7L33 7L33 9L34 9L34 8L35 8L35 9L37 9L37 10L38 10L38 9L37 9L37 8L35 8L35 5L33 5L33 4ZM45 4L45 5L46 5L46 4ZM18 5L18 6L17 6L17 7L16 7L16 8L17 8L17 7L18 7L18 6L19 6L19 7L20 7L20 5ZM27 5L27 8L30 8L30 5ZM22 6L22 7L23 7L23 6ZM28 6L28 7L29 7L29 6ZM33 6L33 7L34 7L34 6ZM40 6L40 7L41 7L41 6ZM44 6L44 7L45 7L45 6ZM43 8L43 9L44 9L44 8ZM45 8L45 9L47 9L47 8ZM55 8L55 9L56 9L56 8ZM2 9L2 10L3 10L3 9ZM32 10L32 11L33 11L33 10ZM39 10L39 11L40 11L40 12L41 12L41 10ZM27 11L27 12L26 12L26 13L28 13L28 14L29 14L29 13L28 13L28 12L29 12L29 11ZM55 11L55 12L54 12L54 13L53 13L53 12L52 12L52 13L53 13L53 14L56 14L56 11ZM33 12L33 13L34 13L34 12ZM49 12L49 13L47 13L47 14L45 14L45 18L44 18L44 20L45 20L45 18L46 18L46 19L47 19L47 18L46 18L46 16L48 16L48 15L49 15L49 16L50 16L50 15L49 15L49 14L50 14L50 12ZM12 13L12 14L13 14L13 15L11 15L11 14L10 14L10 15L11 15L11 19L9 19L9 20L8 20L8 21L7 21L7 22L6 22L6 23L5 23L5 25L8 25L8 24L9 24L9 22L10 22L10 21L12 21L12 22L13 22L13 23L11 23L11 24L10 24L10 25L11 25L11 26L12 26L12 27L11 27L11 29L12 29L12 30L15 30L15 31L12 31L12 32L15 32L15 33L16 33L16 32L15 32L15 31L16 31L16 29L18 29L18 30L19 30L19 29L22 29L22 28L19 28L19 29L18 29L18 28L16 28L16 29L14 29L14 28L15 28L15 26L14 26L14 28L13 28L13 29L12 29L12 27L13 27L13 26L12 26L12 24L13 24L13 23L14 23L14 24L15 24L15 23L16 23L16 24L17 24L17 25L18 25L18 26L16 26L16 27L18 27L18 26L19 26L19 27L20 27L20 26L19 26L19 25L22 25L22 26L21 26L21 27L22 27L22 26L26 26L26 27L24 27L24 28L23 28L23 31L21 31L21 32L20 32L20 31L19 31L19 32L17 32L17 33L18 33L18 34L19 34L19 36L18 36L18 37L17 37L17 38L18 38L18 39L17 39L17 40L18 40L18 41L17 41L17 42L18 42L18 41L19 41L19 42L20 42L20 45L21 45L21 47L23 47L23 46L25 46L25 45L24 45L24 44L27 44L27 43L28 43L28 45L26 45L26 47L27 47L27 46L28 46L28 45L29 45L29 44L30 44L30 45L31 45L31 46L32 46L32 45L31 45L31 44L33 44L33 43L34 43L34 42L33 42L33 41L32 41L32 40L31 40L31 41L32 41L32 42L27 42L27 41L28 41L28 39L27 39L27 38L28 38L28 37L27 37L27 36L26 36L26 35L27 35L27 32L28 32L28 33L29 33L29 34L30 34L30 36L29 36L29 37L31 37L31 38L29 38L29 39L33 39L33 40L35 40L35 39L37 39L37 38L38 38L38 37L37 37L37 36L38 36L38 33L37 33L37 32L34 32L34 31L36 31L36 30L37 30L37 29L38 29L38 28L40 28L40 27L41 27L41 28L42 28L42 26L43 26L43 29L39 29L39 30L38 30L38 32L39 32L39 31L41 31L41 30L44 30L44 28L45 28L45 27L44 27L44 24L41 24L41 25L39 25L39 27L36 27L36 26L34 26L34 27L33 27L33 26L32 26L32 24L31 24L31 21L28 21L28 22L29 22L29 23L28 23L28 24L27 24L27 21L25 21L25 20L26 20L26 19L27 19L27 20L28 20L28 19L27 19L27 18L26 18L26 19L25 19L25 17L22 17L22 16L21 16L21 17L22 17L22 19L21 19L21 18L20 18L20 15L23 15L23 16L26 16L26 17L27 17L27 16L28 16L28 15L27 15L27 14L25 14L25 13L24 13L24 14L25 14L25 15L23 15L23 14L22 14L22 13L21 13L21 14L20 14L20 15L18 15L18 16L16 16L16 13L15 13L15 14L13 14L13 13ZM6 14L6 15L7 15L7 14ZM38 14L38 15L39 15L39 16L38 16L38 17L37 17L37 16L35 16L35 17L37 17L37 18L38 18L38 17L39 17L39 16L41 16L41 14ZM14 15L14 17L13 17L13 19L14 19L14 20L12 20L12 19L11 19L11 20L12 20L12 21L14 21L14 23L15 23L15 22L16 22L16 21L17 21L17 20L18 20L18 19L19 19L19 20L20 20L20 21L19 21L19 22L17 22L17 24L22 24L22 25L23 25L23 24L22 24L22 23L21 23L21 22L22 22L22 21L24 21L24 22L23 22L23 23L24 23L24 24L25 24L25 25L26 25L26 26L27 26L27 24L25 24L25 23L26 23L26 22L25 22L25 21L24 21L24 20L21 20L21 19L19 19L19 18L17 18L17 17L16 17L16 16L15 16L15 15ZM26 15L26 16L27 16L27 15ZM6 16L6 17L8 17L8 16ZM14 17L14 18L15 18L15 19L17 19L17 18L15 18L15 17ZM6 18L6 19L7 19L7 18ZM23 18L23 19L24 19L24 18ZM41 18L41 19L42 19L42 18ZM15 20L15 21L16 21L16 20ZM19 22L19 23L20 23L20 22ZM6 23L6 24L7 24L7 23ZM28 24L28 25L29 25L29 26L30 26L30 25L29 25L29 24ZM54 24L54 25L55 25L55 24ZM41 25L41 26L42 26L42 25ZM3 26L3 27L2 27L2 28L1 28L1 29L2 29L2 28L3 28L3 27L4 27L4 26ZM31 26L31 28L32 28L32 29L31 29L31 30L32 30L32 31L30 31L30 32L29 32L29 31L28 31L28 32L29 32L29 33L31 33L31 35L33 35L33 34L34 34L34 35L35 35L35 36L32 36L32 37L34 37L34 38L33 38L33 39L34 39L34 38L35 38L35 36L37 36L37 34L35 34L35 33L34 33L34 32L33 32L33 30L35 30L35 28L33 28L33 27L32 27L32 26ZM5 27L5 30L8 30L8 27ZM27 27L27 30L30 30L30 27ZM49 27L49 30L52 30L52 27ZM6 28L6 29L7 29L7 28ZM25 28L25 29L26 29L26 28ZM28 28L28 29L29 29L29 28ZM50 28L50 29L51 29L51 28ZM54 28L54 29L53 29L53 30L54 30L54 29L56 29L56 28ZM23 31L23 32L21 32L21 33L19 33L19 34L21 34L21 33L22 33L22 34L23 34L23 36L21 36L21 35L20 35L20 36L19 36L19 37L18 37L18 38L19 38L19 39L20 39L20 38L19 38L19 37L21 37L21 38L22 38L22 39L21 39L21 40L19 40L19 41L20 41L20 42L21 42L21 43L22 43L22 42L24 42L24 41L25 41L25 43L27 43L27 42L26 42L26 41L27 41L27 40L26 40L26 37L25 37L25 40L24 40L24 39L23 39L23 38L24 38L24 37L23 37L23 36L24 36L24 34L23 34L23 33L25 33L25 35L26 35L26 31L25 31L25 32L24 32L24 31ZM47 31L47 32L48 32L48 33L49 33L49 32L48 32L48 31ZM31 32L31 33L32 33L32 32ZM41 32L41 33L39 33L39 34L40 34L40 35L39 35L39 37L40 37L40 38L41 38L41 37L42 37L42 38L43 38L43 37L44 37L44 38L45 38L45 37L46 37L46 36L47 36L47 34L45 34L45 35L44 35L44 33L43 33L43 32ZM50 32L50 34L49 34L49 35L50 35L50 36L52 36L52 35L53 35L53 34L52 34L52 33L53 33L53 32L52 32L52 33L51 33L51 32ZM12 33L12 34L13 34L13 33ZM54 33L54 34L55 34L55 33ZM14 34L14 36L15 36L15 34ZM42 34L42 35L41 35L41 36L40 36L40 37L41 37L41 36L42 36L42 35L43 35L43 36L44 36L44 37L45 37L45 36L46 36L46 35L45 35L45 36L44 36L44 35L43 35L43 34ZM50 34L50 35L52 35L52 34ZM8 36L8 37L9 37L9 38L10 38L10 37L9 37L9 36ZM15 37L15 38L16 38L16 37ZM6 38L6 39L7 39L7 38ZM14 39L14 40L16 40L16 39ZM38 39L38 40L39 40L39 39ZM23 40L23 41L24 41L24 40ZM53 40L53 41L51 41L51 42L50 42L50 43L48 43L48 44L47 44L47 45L49 45L49 46L50 46L50 47L48 47L48 46L47 46L47 47L48 47L48 48L52 48L52 47L53 47L53 46L54 46L54 47L55 47L55 46L56 46L56 45L55 45L55 44L54 44L54 45L53 45L53 43L54 43L54 42L53 42L53 41L54 41L54 40ZM6 41L6 42L7 42L7 41ZM21 41L21 42L22 42L22 41ZM32 42L32 43L33 43L33 42ZM51 42L51 43L50 43L50 46L51 46L51 47L52 47L52 46L51 46L51 45L52 45L52 44L51 44L51 43L53 43L53 42ZM15 43L15 46L14 46L14 47L12 47L12 48L14 48L14 49L13 49L13 50L14 50L14 51L15 51L15 50L17 50L17 52L16 52L16 53L15 53L15 54L16 54L16 53L17 53L17 52L19 52L19 51L18 51L18 50L17 50L17 48L19 48L19 49L20 49L20 48L19 48L19 47L18 47L18 46L17 46L17 45L18 45L18 44L16 44L16 43ZM23 43L23 44L24 44L24 43ZM0 44L0 45L1 45L1 44ZM8 44L8 45L6 45L6 46L8 46L8 45L9 45L9 46L10 46L10 45L9 45L9 44ZM21 44L21 45L22 45L22 46L23 46L23 45L22 45L22 44ZM33 46L33 47L35 47L35 46ZM15 48L15 49L16 49L16 48ZM38 48L38 49L39 49L39 48ZM9 49L9 50L10 50L10 49ZM27 49L27 52L30 52L30 49ZM49 49L49 52L52 52L52 49ZM28 50L28 51L29 51L29 50ZM50 50L50 51L51 51L51 50ZM54 50L54 51L55 51L55 50ZM22 51L22 52L23 52L23 51ZM31 51L31 53L30 53L30 54L27 54L27 53L26 53L26 55L27 55L27 56L29 56L29 55L30 55L30 56L31 56L31 54L32 54L32 53L33 53L33 55L35 55L35 56L36 56L36 54L35 54L35 53L33 53L33 52L32 52L32 51ZM34 51L34 52L35 52L35 51ZM39 51L39 52L38 52L38 53L37 53L37 54L40 54L40 53L41 53L41 52L40 52L40 51ZM53 52L53 53L54 53L54 52ZM24 53L24 54L23 54L23 55L24 55L24 56L25 56L25 53ZM43 53L43 54L44 54L44 53ZM14 55L14 56L16 56L16 55ZM17 55L17 56L18 56L18 55ZM37 55L37 56L39 56L39 55ZM50 55L50 56L51 56L51 55ZM45 56L45 57L46 57L46 56ZM0 0L0 7L7 7L7 0ZM1 1L1 6L6 6L6 1ZM2 2L2 5L5 5L5 2ZM50 0L50 7L57 7L57 0ZM51 1L51 6L56 6L56 1ZM52 2L52 5L55 5L55 2ZM0 50L0 57L7 57L7 50ZM1 51L1 56L6 56L6 51ZM2 52L2 55L5 55L5 52Z" fill="#000000"/></g></g></svg>
