<?xml version="1.0" encoding="UTF-8"?>
<svg xmlns="http://www.w3.org/2000/svg" version="1.1" width="300" height="300" viewBox="0 0 300 300"><rect x="0" y="0" width="300" height="300" fill="#fefefe"/><g transform="scale(4.615)"><g transform="translate(4,4)"><path fill-rule="evenodd" d="M9 0L9 1L8 1L8 2L9 2L9 3L8 3L8 4L11 4L11 3L12 3L12 2L13 2L13 4L14 4L14 2L16 2L16 1L14 1L14 0L12 0L12 2L9 2L9 1L10 1L10 0ZM18 0L18 2L20 2L20 0ZM21 0L21 1L22 1L22 2L21 2L21 3L23 3L23 4L24 4L24 5L21 5L21 4L19 4L19 3L17 3L17 4L19 4L19 5L20 5L20 7L19 7L19 6L18 6L18 5L17 5L17 6L16 6L16 7L15 7L15 5L16 5L16 4L15 4L15 5L14 5L14 8L13 8L13 9L14 9L14 8L16 8L16 9L17 9L17 10L16 10L16 11L15 11L15 10L12 10L12 9L11 9L11 6L10 6L10 7L9 7L9 5L8 5L8 7L9 7L9 8L6 8L6 9L9 9L9 11L8 11L8 10L5 10L5 11L2 11L2 12L1 12L1 10L0 10L0 12L1 12L1 14L0 14L0 19L2 19L2 18L1 18L1 15L4 15L4 17L3 17L3 16L2 16L2 17L3 17L3 18L4 18L4 17L5 17L5 15L7 15L7 16L6 16L6 17L9 17L9 15L10 15L10 18L9 18L9 19L8 19L8 18L6 18L6 19L4 19L4 20L1 20L1 21L2 21L2 22L1 22L1 24L0 24L0 25L1 25L1 24L2 24L2 26L0 26L0 29L3 29L3 30L4 30L4 32L3 32L3 31L2 31L2 33L3 33L3 34L1 34L1 33L0 33L0 34L1 34L1 35L0 35L0 38L1 38L1 37L2 37L2 39L1 39L1 41L2 41L2 39L3 39L3 43L2 43L2 42L0 42L0 44L1 44L1 45L3 45L3 46L2 46L2 47L1 47L1 46L0 46L0 48L5 48L5 47L9 47L9 48L10 48L10 50L9 50L9 49L8 49L8 48L6 48L6 49L8 49L8 51L9 51L9 52L8 52L8 57L9 57L9 56L11 56L11 57L12 57L12 56L13 56L13 54L14 54L14 55L16 55L16 56L17 56L17 57L19 57L19 55L20 55L20 54L19 54L19 55L18 55L18 56L17 56L17 53L20 53L20 52L21 52L21 53L22 53L22 54L21 54L21 55L23 55L23 56L24 56L24 57L26 57L26 56L27 56L27 57L29 57L29 56L30 56L30 57L31 57L31 56L35 56L35 57L39 57L39 56L37 56L37 55L41 55L41 56L42 56L42 55L44 55L44 56L43 56L43 57L44 57L44 56L45 56L45 57L46 57L46 56L45 56L45 55L46 55L46 54L45 54L45 53L44 53L44 52L45 52L45 51L46 51L46 52L47 52L47 51L46 51L46 50L45 50L45 51L44 51L44 48L43 48L43 47L44 47L44 46L43 46L43 45L44 45L44 42L43 42L43 41L44 41L44 40L45 40L45 39L46 39L46 41L47 41L47 39L49 39L49 41L48 41L48 42L47 42L47 43L46 43L46 42L45 42L45 43L46 43L46 44L45 44L45 45L47 45L47 46L45 46L45 49L47 49L47 50L48 50L48 53L47 53L47 56L48 56L48 57L49 57L49 56L50 56L50 57L52 57L52 55L51 55L51 53L52 53L52 54L53 54L53 57L54 57L54 56L55 56L55 57L56 57L56 56L55 56L55 52L57 52L57 51L56 51L56 50L55 50L55 48L56 48L56 49L57 49L57 48L56 48L56 46L57 46L57 45L56 45L56 44L55 44L55 43L56 43L56 42L55 42L55 39L57 39L57 37L56 37L56 36L57 36L57 35L56 35L56 33L57 33L57 32L56 32L56 30L57 30L57 28L56 28L56 26L57 26L57 25L56 25L56 22L57 22L57 20L56 20L56 18L57 18L57 17L56 17L56 16L57 16L57 15L56 15L56 14L57 14L57 12L56 12L56 10L54 10L54 11L53 11L53 10L52 10L52 11L51 11L51 10L50 10L50 8L45 8L45 9L47 9L47 10L44 10L44 8L43 8L43 6L44 6L44 7L45 7L45 6L46 6L46 7L47 7L47 5L48 5L48 0L46 0L46 1L45 1L45 2L44 2L44 3L43 3L43 4L40 4L40 5L39 5L39 6L38 6L38 9L37 9L37 8L35 8L35 5L36 5L36 7L37 7L37 5L38 5L38 4L39 4L39 3L42 3L42 2L43 2L43 0L41 0L41 1L40 1L40 0L39 0L39 1L38 1L38 0L37 0L37 1L38 1L38 3L36 3L36 0L35 0L35 1L32 1L32 0L29 0L29 3L30 3L30 4L26 4L26 3L23 3L23 2L27 2L27 1L25 1L25 0L23 0L23 1L22 1L22 0ZM13 1L13 2L14 2L14 1ZM30 1L30 2L31 2L31 3L32 3L32 4L31 4L31 8L32 8L32 10L29 10L29 9L27 9L27 11L26 11L26 12L25 12L25 11L23 11L23 13L22 13L22 12L21 12L21 11L22 11L22 10L23 10L23 9L25 9L25 8L26 8L26 4L25 4L25 8L24 8L24 6L23 6L23 8L19 8L19 7L18 7L18 6L17 6L17 7L16 7L16 8L19 8L19 9L18 9L18 10L17 10L17 11L18 11L18 10L19 10L19 12L20 12L20 16L19 16L19 15L17 15L17 13L18 13L18 12L17 12L17 13L16 13L16 12L15 12L15 13L13 13L13 14L12 14L12 12L14 12L14 11L12 11L12 10L11 10L11 9L10 9L10 10L11 10L11 11L12 11L12 12L10 12L10 11L9 11L9 13L10 13L10 15L11 15L11 16L12 16L12 15L13 15L13 16L14 16L14 17L13 17L13 18L12 18L12 17L11 17L11 18L10 18L10 19L9 19L9 20L10 20L10 22L11 22L11 21L14 21L14 22L13 22L13 23L9 23L9 22L8 22L8 23L6 23L6 24L7 24L7 25L6 25L6 26L7 26L7 25L8 25L8 26L9 26L9 25L8 25L8 24L10 24L10 27L9 27L9 32L8 32L8 31L5 31L5 32L4 32L4 34L3 34L3 35L1 35L1 36L4 36L4 37L5 37L5 39L4 39L4 38L3 38L3 39L4 39L4 40L5 40L5 41L4 41L4 42L5 42L5 43L3 43L3 45L4 45L4 44L5 44L5 43L6 43L6 44L7 44L7 45L5 45L5 46L3 46L3 47L5 47L5 46L9 46L9 45L8 45L8 44L9 44L9 43L11 43L11 45L10 45L10 46L12 46L12 43L13 43L13 45L14 45L14 46L16 46L16 47L13 47L13 48L12 48L12 47L11 47L11 50L10 50L10 51L11 51L11 50L12 50L12 51L16 51L16 53L15 53L15 52L14 52L14 53L15 53L15 54L16 54L16 53L17 53L17 49L15 49L15 48L17 48L17 45L18 45L18 44L17 44L17 45L16 45L16 44L15 44L15 43L18 43L18 42L19 42L19 45L20 45L20 46L21 46L21 45L22 45L22 46L23 46L23 47L19 47L19 46L18 46L18 47L19 47L19 48L21 48L21 49L20 49L20 50L19 50L19 51L18 51L18 52L19 52L19 51L21 51L21 49L23 49L23 48L24 48L24 49L25 49L25 48L29 48L29 45L30 45L30 46L31 46L31 47L32 47L32 46L35 46L35 48L36 48L36 45L34 45L34 43L37 43L37 42L35 42L35 40L38 40L38 42L39 42L39 43L40 43L40 44L39 44L39 45L38 45L38 46L39 46L39 47L38 47L38 48L37 48L37 49L38 49L38 50L36 50L36 49L34 49L34 48L31 48L31 50L32 50L32 51L31 51L31 53L30 53L30 54L27 54L27 53L24 53L24 52L26 52L26 50L22 50L22 51L23 51L23 52L22 52L22 53L24 53L24 54L23 54L23 55L24 55L24 56L26 56L26 54L27 54L27 56L29 56L29 55L30 55L30 56L31 56L31 54L32 54L32 53L33 53L33 55L35 55L35 56L36 56L36 54L35 54L35 53L33 53L33 52L32 52L32 51L34 51L34 52L35 52L35 51L34 51L34 50L36 50L36 52L37 52L37 51L38 51L38 53L37 53L37 54L40 54L40 53L41 53L41 52L42 52L42 53L43 53L43 54L44 54L44 55L45 55L45 54L44 54L44 53L43 53L43 52L42 52L42 50L41 50L41 48L42 48L42 49L43 49L43 48L42 48L42 47L43 47L43 46L41 46L41 44L42 44L42 42L41 42L41 41L42 41L42 39L43 39L43 40L44 40L44 39L45 39L45 38L46 38L46 39L47 39L47 38L48 38L48 37L50 37L50 38L49 38L49 39L51 39L51 40L53 40L53 41L51 41L51 42L50 42L50 43L48 43L48 44L47 44L47 45L48 45L48 46L50 46L50 47L48 47L48 48L47 48L47 49L48 49L48 48L50 48L50 47L51 47L51 48L53 48L53 47L51 47L51 46L53 46L53 45L51 45L51 46L50 46L50 45L49 45L49 44L50 44L50 43L51 43L51 44L53 44L53 43L54 43L54 42L53 42L53 41L54 41L54 40L53 40L53 39L55 39L55 37L53 37L53 35L55 35L55 36L56 36L56 35L55 35L55 34L54 34L54 33L52 33L52 31L48 31L48 29L46 29L46 30L47 30L47 31L45 31L45 32L43 32L43 31L44 31L44 30L45 30L45 28L46 28L46 27L47 27L47 28L48 28L48 26L47 26L47 25L46 25L46 24L45 24L45 22L47 22L47 23L48 23L48 24L49 24L49 25L50 25L50 26L51 26L51 25L52 25L52 26L53 26L53 27L54 27L54 26L53 26L53 25L55 25L55 24L53 24L53 23L52 23L52 24L51 24L51 25L50 25L50 24L49 24L49 23L50 23L50 22L51 22L51 21L54 21L54 22L56 22L56 20L53 20L53 19L52 19L52 20L51 20L51 21L49 21L49 20L48 20L48 19L51 19L51 17L53 17L53 18L55 18L55 17L54 17L54 16L51 16L51 17L50 17L50 14L51 14L51 12L50 12L50 10L48 10L48 11L49 11L49 12L45 12L45 11L43 11L43 10L41 10L41 9L42 9L42 8L41 8L41 7L42 7L42 6L43 6L43 5L42 5L42 6L41 6L41 5L40 5L40 6L39 6L39 9L38 9L38 10L37 10L37 9L35 9L35 8L34 8L34 9L33 9L33 7L34 7L34 5L35 5L35 3L32 3L32 1ZM46 1L46 2L47 2L47 1ZM44 3L44 6L45 6L45 4L46 4L46 5L47 5L47 3ZM32 4L32 5L33 5L33 4ZM36 4L36 5L37 5L37 4ZM12 5L12 7L13 7L13 5ZM27 5L27 8L30 8L30 5ZM21 6L21 7L22 7L22 6ZM28 6L28 7L29 7L29 6ZM32 6L32 7L33 7L33 6ZM40 6L40 7L41 7L41 6ZM48 6L48 7L49 7L49 6ZM0 8L0 9L3 9L3 10L4 10L4 9L5 9L5 8ZM51 8L51 9L52 9L52 8ZM53 8L53 9L54 9L54 8ZM55 8L55 9L56 9L56 8ZM19 9L19 10L20 10L20 11L21 11L21 10L22 10L22 9L21 9L21 10L20 10L20 9ZM32 10L32 11L31 11L31 13L30 13L30 14L29 14L29 13L28 13L28 12L29 12L29 11L27 11L27 12L26 12L26 13L23 13L23 14L22 14L22 13L21 13L21 15L24 15L24 16L26 16L26 13L28 13L28 14L29 14L29 16L28 16L28 15L27 15L27 16L28 16L28 17L27 17L27 18L28 18L28 19L29 19L29 20L30 20L30 21L29 21L29 22L30 22L30 24L29 24L29 23L28 23L28 24L27 24L27 22L28 22L28 21L25 21L25 20L26 20L26 17L22 17L22 16L20 16L20 17L19 17L19 16L16 16L16 13L15 13L15 14L13 14L13 15L14 15L14 16L16 16L16 17L19 17L19 19L18 19L18 18L15 18L15 19L16 19L16 20L15 20L15 21L16 21L16 22L14 22L14 23L16 23L16 24L13 24L13 26L12 26L12 25L11 25L11 27L12 27L12 29L11 29L11 30L12 30L12 32L11 32L11 31L10 31L10 32L11 32L11 34L10 34L10 35L9 35L9 34L8 34L8 33L7 33L7 32L6 32L6 33L5 33L5 35L9 35L9 39L8 39L8 38L6 38L6 39L8 39L8 40L6 40L6 41L5 41L5 42L6 42L6 43L7 43L7 42L6 42L6 41L8 41L8 40L9 40L9 41L10 41L10 42L11 42L11 43L12 43L12 42L14 42L14 41L15 41L15 40L16 40L16 41L19 41L19 42L20 42L20 44L22 44L22 45L24 45L24 46L25 46L25 45L24 45L24 44L29 44L29 43L31 43L31 44L30 44L30 45L31 45L31 46L32 46L32 45L31 45L31 44L33 44L33 43L34 43L34 42L33 42L33 41L32 41L32 40L31 40L31 41L32 41L32 42L30 42L30 40L29 40L29 42L27 42L27 41L26 41L26 42L27 42L27 43L25 43L25 41L24 41L24 40L25 40L25 39L27 39L27 40L28 40L28 39L27 39L27 38L28 38L28 37L27 37L27 36L26 36L26 35L27 35L27 34L26 34L26 35L25 35L25 33L27 33L27 31L29 31L29 32L28 32L28 33L29 33L29 34L30 34L30 36L29 36L29 37L31 37L31 38L29 38L29 39L33 39L33 40L35 40L35 39L37 39L37 38L38 38L38 37L40 37L40 38L41 38L41 39L38 39L38 40L41 40L41 39L42 39L42 38L43 38L43 37L44 37L44 38L45 38L45 37L46 37L46 36L49 36L49 35L50 35L50 37L51 37L51 36L52 36L52 35L53 35L53 34L52 34L52 33L51 33L51 32L50 32L50 34L49 34L49 35L44 35L44 33L43 33L43 32L41 32L41 33L39 33L39 34L40 34L40 35L38 35L38 33L37 33L37 32L35 32L35 30L33 30L33 32L35 32L35 34L33 34L33 33L32 33L32 31L31 31L31 29L32 29L32 28L31 28L31 26L32 26L32 27L33 27L33 28L35 28L35 29L38 29L38 28L42 28L42 26L43 26L43 28L45 28L45 27L46 27L46 26L44 26L44 24L43 24L43 25L42 25L42 24L41 24L41 22L42 22L42 23L44 23L44 20L45 20L45 21L47 21L47 22L49 22L49 21L48 21L48 20L47 20L47 18L50 18L50 17L49 17L49 16L48 16L48 15L49 15L49 14L50 14L50 12L49 12L49 13L47 13L47 14L45 14L45 13L44 13L44 12L43 12L43 13L41 13L41 14L40 14L40 13L39 13L39 12L41 12L41 10L39 10L39 11L37 11L37 10L36 10L36 11L35 11L35 14L32 14L32 11L33 11L33 10ZM6 11L6 12L3 12L3 14L4 14L4 15L5 15L5 14L8 14L8 15L9 15L9 14L8 14L8 13L6 13L6 12L8 12L8 11ZM33 12L33 13L34 13L34 12ZM52 12L52 13L53 13L53 15L55 15L55 14L56 14L56 12L54 12L54 13L53 13L53 12ZM38 13L38 14L36 14L36 15L35 15L35 16L32 16L32 18L30 18L30 19L32 19L32 18L33 18L33 19L36 19L36 20L37 20L37 19L39 19L39 17L41 17L41 16L42 16L42 17L43 17L43 16L42 16L42 15L44 15L44 18L43 18L43 19L42 19L42 18L41 18L41 20L38 20L38 22L37 22L37 24L39 24L39 25L38 25L38 26L37 26L37 25L33 25L33 24L32 24L32 23L33 23L33 22L34 22L34 23L35 23L35 20L34 20L34 21L33 21L33 20L32 20L32 21L31 21L31 24L30 24L30 25L29 25L29 24L28 24L28 25L27 25L27 24L25 24L25 23L26 23L26 22L25 22L25 21L24 21L24 20L20 20L20 19L21 19L21 18L22 18L22 19L24 19L24 18L22 18L22 17L20 17L20 19L19 19L19 20L20 20L20 21L19 21L19 22L17 22L17 24L21 24L21 25L15 25L15 26L13 26L13 28L15 28L15 29L16 29L16 30L18 30L18 29L19 29L19 30L20 30L20 31L19 31L19 32L20 32L20 31L23 31L23 32L21 32L21 33L20 33L20 34L19 34L19 33L17 33L17 32L18 32L18 31L17 31L17 32L16 32L16 33L15 33L15 34L14 34L14 32L15 32L15 30L14 30L14 32L12 32L12 33L13 33L13 34L11 34L11 35L10 35L10 37L11 37L11 38L13 38L13 39L16 39L16 40L18 40L18 39L20 39L20 38L19 38L19 37L23 37L23 38L24 38L24 37L23 37L23 36L24 36L24 34L23 34L23 33L25 33L25 32L24 32L24 30L23 30L23 28L24 28L24 27L23 27L23 26L22 26L22 27L21 27L21 25L23 25L23 24L21 24L21 23L24 23L24 24L25 24L25 25L26 25L26 26L25 26L25 27L26 27L26 26L30 26L30 25L31 25L31 24L32 24L32 26L33 26L33 27L34 27L34 26L36 26L36 27L35 27L35 28L37 28L37 27L40 27L40 26L42 26L42 25L41 25L41 24L39 24L39 23L40 23L40 22L39 22L39 21L43 21L43 20L44 20L44 18L45 18L45 19L46 19L46 18L47 18L47 17L48 17L48 16L47 16L47 15L46 15L46 16L47 16L47 17L45 17L45 14L44 14L44 13L43 13L43 14L41 14L41 16L39 16L39 15L40 15L40 14L39 14L39 13ZM30 14L30 15L31 15L31 14ZM38 14L38 15L39 15L39 14ZM35 16L35 17L37 17L37 18L38 18L38 17L39 17L39 16L38 16L38 17L37 17L37 16ZM11 18L11 19L10 19L10 20L11 20L11 19L12 19L12 20L14 20L14 19L12 19L12 18ZM6 19L6 20L4 20L4 21L3 21L3 22L2 22L2 24L3 24L3 25L5 25L5 24L3 24L3 22L4 22L4 23L5 23L5 22L7 22L7 21L8 21L8 19ZM17 19L17 20L16 20L16 21L17 21L17 20L18 20L18 19ZM6 20L6 21L7 21L7 20ZM23 21L23 22L24 22L24 21ZM19 22L19 23L20 23L20 22ZM38 22L38 23L39 23L39 22ZM39 25L39 26L40 26L40 25ZM2 26L2 27L1 27L1 28L3 28L3 29L4 29L4 26ZM15 26L15 28L16 28L16 29L18 29L18 28L17 28L17 27L18 27L18 26ZM19 26L19 29L22 29L22 28L21 28L21 27L20 27L20 26ZM5 27L5 30L8 30L8 27ZM27 27L27 30L30 30L30 27ZM49 27L49 30L52 30L52 27ZM6 28L6 29L7 29L7 28ZM25 28L25 29L26 29L26 28ZM28 28L28 29L29 29L29 28ZM50 28L50 29L51 29L51 28ZM54 28L54 30L55 30L55 29L56 29L56 28ZM12 29L12 30L13 30L13 29ZM39 29L39 30L38 30L38 32L39 32L39 30L40 30L40 29ZM41 29L41 30L44 30L44 29ZM30 31L30 32L29 32L29 33L31 33L31 31ZM47 31L47 32L48 32L48 33L49 33L49 32L48 32L48 31ZM55 32L55 33L56 33L56 32ZM6 33L6 34L7 34L7 33ZM21 33L21 36L23 36L23 34L22 34L22 33ZM13 34L13 37L14 37L14 34ZM15 34L15 35L16 35L16 36L17 36L17 38L18 38L18 37L19 37L19 34L18 34L18 35L17 35L17 34ZM31 34L31 35L33 35L33 36L32 36L32 37L34 37L34 38L33 38L33 39L34 39L34 38L35 38L35 36L37 36L37 37L38 37L38 35L37 35L37 34L35 34L35 36L34 36L34 35L33 35L33 34ZM42 34L42 35L41 35L41 36L40 36L40 37L41 37L41 38L42 38L42 37L41 37L41 36L42 36L42 35L43 35L43 36L44 36L44 37L45 37L45 36L44 36L44 35L43 35L43 34ZM50 34L50 35L52 35L52 34ZM11 35L11 37L12 37L12 35ZM5 36L5 37L7 37L7 36ZM15 37L15 38L16 38L16 37ZM25 37L25 38L27 38L27 37ZM52 38L52 39L53 39L53 38ZM10 39L10 40L11 40L11 39ZM23 39L23 40L19 40L19 41L20 41L20 42L21 42L21 43L22 43L22 42L24 42L24 41L23 41L23 40L24 40L24 39ZM12 40L12 41L13 41L13 40ZM39 41L39 42L40 42L40 41ZM32 42L32 43L33 43L33 42ZM51 42L51 43L53 43L53 42ZM1 43L1 44L2 44L2 43ZM14 44L14 45L15 45L15 44ZM54 44L54 45L55 45L55 46L54 46L54 47L55 47L55 46L56 46L56 45L55 45L55 44ZM26 45L26 47L28 47L28 46L27 46L27 45ZM40 46L40 47L39 47L39 48L38 48L38 49L39 49L39 48L41 48L41 46ZM12 49L12 50L13 50L13 49ZM27 49L27 52L30 52L30 49ZM49 49L49 52L52 52L52 49ZM28 50L28 51L29 51L29 50ZM38 50L38 51L40 51L40 52L41 52L41 50ZM50 50L50 51L51 51L51 50ZM54 50L54 51L55 51L55 50ZM9 52L9 53L10 53L10 55L11 55L11 53L12 53L12 52ZM53 52L53 53L54 53L54 52ZM41 54L41 55L42 55L42 54ZM48 55L48 56L49 56L49 55ZM50 55L50 56L51 56L51 55ZM20 56L20 57L21 57L21 56ZM0 0L0 7L7 7L7 0ZM1 1L1 6L6 6L6 1ZM2 2L2 5L5 5L5 2ZM50 0L50 7L57 7L57 0ZM51 1L51 6L56 6L56 1ZM52 2L52 5L55 5L55 2ZM0 50L0 57L7 57L7 50ZM1 51L1 56L6 56L6 51ZM2 52L2 55L5 55L5 52Z" fill="#000000"/></g></g></svg>
