<?xml version="1.0" encoding="UTF-8"?>
<svg xmlns="http://www.w3.org/2000/svg" version="1.1" width="300" height="300" viewBox="0 0 300 300"><rect x="0" y="0" width="300" height="300" fill="#fefefe"/><g transform="scale(4.615)"><g transform="translate(4,4)"><path fill-rule="evenodd" d="M8 0L8 4L9 4L9 5L8 5L8 7L9 7L9 5L10 5L10 4L11 4L11 2L13 2L13 6L12 6L12 7L11 7L11 6L10 6L10 7L11 7L11 10L9 10L9 9L10 9L10 8L9 8L9 9L7 9L7 8L4 8L4 9L2 9L2 8L0 8L0 9L2 9L2 10L0 10L0 12L3 12L3 13L4 13L4 14L2 14L2 13L0 13L0 14L2 14L2 15L0 15L0 16L4 16L4 15L5 15L5 17L3 17L3 18L2 18L2 17L1 17L1 18L0 18L0 19L1 19L1 21L0 21L0 22L1 22L1 21L2 21L2 23L0 23L0 24L4 24L4 23L7 23L7 24L5 24L5 25L7 25L7 26L4 26L4 25L3 25L3 28L2 28L2 25L0 25L0 30L2 30L2 31L3 31L3 33L4 33L4 31L5 31L5 32L6 32L6 33L5 33L5 34L6 34L6 35L3 35L3 37L2 37L2 35L1 35L1 34L0 34L0 37L1 37L1 38L0 38L0 39L1 39L1 38L3 38L3 39L2 39L2 40L1 40L1 42L0 42L0 48L5 48L5 47L7 47L7 48L6 48L6 49L8 49L8 50L9 50L9 49L8 49L8 47L7 47L7 46L5 46L5 45L8 45L8 46L9 46L9 47L10 47L10 52L9 52L9 51L8 51L8 53L9 53L9 54L10 54L10 55L12 55L12 53L15 53L15 54L13 54L13 56L12 56L12 57L13 57L13 56L15 56L15 55L16 55L16 54L19 54L19 55L18 55L18 56L17 56L17 57L22 57L22 54L21 54L21 53L22 53L22 51L20 51L20 50L21 50L21 49L22 49L22 50L23 50L23 52L24 52L24 53L23 53L23 55L24 55L24 56L23 56L23 57L25 57L25 56L26 56L26 57L27 57L27 55L26 55L26 53L28 53L28 57L29 57L29 55L30 55L30 57L34 57L34 55L35 55L35 57L37 57L37 56L36 56L36 54L37 54L37 55L39 55L39 57L40 57L40 56L41 56L41 55L40 55L40 54L43 54L43 55L42 55L42 56L43 56L43 55L44 55L44 53L45 53L45 56L44 56L44 57L45 57L45 56L46 56L46 57L47 57L47 56L46 56L46 55L47 55L47 54L46 54L46 53L47 53L47 52L48 52L48 54L49 54L49 56L48 56L48 57L50 57L50 55L51 55L51 56L53 56L53 57L54 57L54 56L53 56L53 50L54 50L54 51L56 51L56 52L57 52L57 51L56 51L56 50L57 50L57 49L56 49L56 45L57 45L57 44L56 44L56 45L55 45L55 46L53 46L53 47L52 47L52 45L54 45L54 44L53 44L53 43L54 43L54 42L55 42L55 43L56 43L56 42L57 42L57 40L54 40L54 41L53 41L53 40L52 40L52 36L53 36L53 39L54 39L54 38L55 38L55 39L57 39L57 38L55 38L55 36L53 36L53 35L56 35L56 37L57 37L57 35L56 35L56 34L57 34L57 33L56 33L56 30L55 30L55 33L54 33L54 34L53 34L53 35L50 35L50 32L51 32L51 33L53 33L53 29L54 29L54 28L53 28L53 27L54 27L54 26L55 26L55 24L56 24L56 25L57 25L57 24L56 24L56 20L57 20L57 19L56 19L56 18L57 18L57 15L56 15L56 13L57 13L57 11L56 11L56 10L57 10L57 8L53 8L53 9L52 9L52 8L51 8L51 9L50 9L50 10L52 10L52 11L50 11L50 15L48 15L48 16L47 16L47 15L46 15L46 11L45 11L45 10L44 10L44 9L46 9L46 8L47 8L47 10L49 10L49 9L48 9L48 8L47 8L47 5L48 5L48 0L46 0L46 1L47 1L47 2L45 2L45 0L41 0L41 1L40 1L40 2L39 2L39 3L40 3L40 4L38 4L38 1L39 1L39 0L38 0L38 1L37 1L37 2L36 2L36 0L35 0L35 1L34 1L34 0L33 0L33 1L34 1L34 4L35 4L35 5L32 5L32 3L33 3L33 2L32 2L32 0L29 0L29 1L28 1L28 0L26 0L26 1L28 1L28 2L27 2L27 3L28 3L28 4L26 4L26 3L25 3L25 0L23 0L23 1L22 1L22 2L21 2L21 3L22 3L22 4L21 4L21 6L20 6L20 5L19 5L19 6L18 6L18 3L19 3L19 2L20 2L20 1L21 1L21 0L20 0L20 1L19 1L19 2L17 2L17 1L16 1L16 0L13 0L13 1L12 1L12 0ZM10 1L10 2L9 2L9 3L10 3L10 2L11 2L11 1ZM14 1L14 4L15 4L15 5L14 5L14 6L13 6L13 7L12 7L12 10L14 10L14 8L15 8L15 9L16 9L16 11L15 11L15 12L14 12L14 11L11 11L11 13L10 13L10 12L9 12L9 11L8 11L8 10L7 10L7 9L5 9L5 10L7 10L7 11L6 11L6 12L5 12L5 13L6 13L6 14L5 14L5 15L6 15L6 16L8 16L8 18L7 18L7 17L5 17L5 18L7 18L7 19L6 19L6 20L7 20L7 19L9 19L9 20L8 20L8 21L6 21L6 22L7 22L7 23L9 23L9 22L8 22L8 21L10 21L10 18L11 18L11 19L12 19L12 20L11 20L11 21L12 21L12 22L14 22L14 21L12 21L12 20L13 20L13 19L14 19L14 20L15 20L15 21L17 21L17 22L16 22L16 23L14 23L14 24L13 24L13 25L12 25L12 30L11 30L11 31L13 31L13 30L14 30L14 31L15 31L15 33L16 33L16 34L17 34L17 33L18 33L18 34L19 34L19 33L21 33L21 34L23 34L23 33L26 33L26 34L24 34L24 36L25 36L25 37L27 37L27 39L26 39L26 38L24 38L24 37L23 37L23 35L19 35L19 36L22 36L22 37L19 37L19 39L17 39L17 40L14 40L14 39L16 39L16 38L18 38L18 37L17 37L17 36L16 36L16 37L13 37L13 36L11 36L11 35L10 35L10 36L11 36L11 37L8 37L8 39L9 39L9 40L8 40L8 41L9 41L9 40L10 40L10 42L9 42L9 44L8 44L8 45L9 45L9 44L10 44L10 45L11 45L11 44L10 44L10 42L11 42L11 40L12 40L12 41L13 41L13 42L12 42L12 44L13 44L13 45L14 45L14 43L13 43L13 42L15 42L15 41L16 41L16 43L15 43L15 44L16 44L16 46L15 46L15 47L16 47L16 46L17 46L17 45L18 45L18 44L19 44L19 46L18 46L18 47L20 47L20 49L19 49L19 50L18 50L18 49L15 49L15 48L14 48L14 46L11 46L11 48L12 48L12 47L13 47L13 48L14 48L14 50L13 50L13 49L12 49L12 50L11 50L11 52L10 52L10 54L11 54L11 52L12 52L12 51L13 51L13 52L14 52L14 50L15 50L15 53L17 53L17 51L19 51L19 50L20 50L20 49L21 49L21 48L22 48L22 49L23 49L23 48L22 48L22 47L24 47L24 49L25 49L25 50L26 50L26 48L28 48L28 46L29 46L29 47L30 47L30 48L31 48L31 49L32 49L32 48L31 48L31 46L32 46L32 47L33 47L33 49L34 49L34 51L33 51L33 53L32 53L32 54L33 54L33 55L34 55L34 54L35 54L35 52L36 52L36 49L35 49L35 46L38 46L38 45L39 45L39 46L40 46L40 51L39 51L39 52L40 52L40 53L42 53L42 52L43 52L43 53L44 53L44 52L43 52L43 50L42 50L42 52L41 52L41 46L40 46L40 45L41 45L41 44L40 44L40 45L39 45L39 44L37 44L37 43L36 43L36 44L37 44L37 45L34 45L34 47L33 47L33 46L32 46L32 44L29 44L29 43L31 43L31 41L32 41L32 43L33 43L33 44L35 44L35 43L33 43L33 41L32 41L32 40L33 40L33 39L31 39L31 38L33 38L33 37L34 37L34 38L35 38L35 39L34 39L34 42L35 42L35 39L37 39L37 42L38 42L38 39L40 39L40 38L38 38L38 37L41 37L41 39L42 39L42 37L41 37L41 35L42 35L42 34L40 34L40 33L41 33L41 32L40 32L40 30L41 30L41 29L44 29L44 27L45 27L45 30L46 30L46 32L47 32L47 33L46 33L46 34L44 34L44 33L43 33L43 34L44 34L44 35L43 35L43 37L44 37L44 38L43 38L43 39L45 39L45 40L46 40L46 43L45 43L45 42L44 42L44 41L43 41L43 40L40 40L40 41L43 41L43 42L42 42L42 44L43 44L43 45L44 45L44 43L45 43L45 45L46 45L46 47L45 47L45 46L44 46L44 47L42 47L42 49L44 49L44 51L45 51L45 52L47 52L47 51L45 51L45 49L46 49L46 50L47 50L47 49L48 49L48 47L49 47L49 46L50 46L50 48L52 48L52 47L51 47L51 46L50 46L50 45L52 45L52 43L53 43L53 41L52 41L52 40L47 40L47 39L51 39L51 38L50 38L50 37L51 37L51 36L50 36L50 35L49 35L49 36L47 36L47 35L46 35L46 34L49 34L49 33L48 33L48 31L47 31L47 30L48 30L48 29L46 29L46 28L47 28L47 27L45 27L45 25L44 25L44 24L45 24L45 22L44 22L44 16L45 16L45 17L46 17L46 18L47 18L47 16L46 16L46 15L44 15L44 16L43 16L43 15L42 15L42 17L43 17L43 18L42 18L42 20L41 20L41 18L40 18L40 17L41 17L41 15L40 15L40 17L39 17L39 15L38 15L38 13L40 13L40 14L41 14L41 13L44 13L44 12L45 12L45 11L44 11L44 10L41 10L41 8L42 8L42 6L43 6L43 9L44 9L44 4L46 4L46 5L45 5L45 8L46 8L46 5L47 5L47 3L44 3L44 2L43 2L43 3L44 3L44 4L43 4L43 5L42 5L42 4L41 4L41 5L39 5L39 8L40 8L40 9L39 9L39 10L41 10L41 11L39 11L39 12L37 12L37 10L38 10L38 4L37 4L37 3L36 3L36 2L35 2L35 4L36 4L36 5L35 5L35 7L34 7L34 6L33 6L33 7L32 7L32 6L31 6L31 10L29 10L29 9L26 9L26 6L25 6L25 7L24 7L24 6L23 6L23 5L24 5L24 4L25 4L25 3L23 3L23 4L22 4L22 6L21 6L21 7L22 7L22 6L23 6L23 7L24 7L24 8L22 8L22 9L21 9L21 10L20 10L20 9L19 9L19 10L18 10L18 9L16 9L16 8L15 8L15 7L16 7L16 6L17 6L17 8L19 8L19 7L20 7L20 6L19 6L19 7L18 7L18 6L17 6L17 4L16 4L16 3L15 3L15 1ZM29 1L29 2L28 2L28 3L29 3L29 4L30 4L30 3L32 3L32 2L30 2L30 1ZM40 2L40 3L42 3L42 2ZM15 5L15 6L14 6L14 7L15 7L15 6L16 6L16 5ZM27 5L27 8L30 8L30 5ZM36 5L36 7L35 7L35 9L37 9L37 5ZM41 5L41 6L40 6L40 8L41 8L41 6L42 6L42 5ZM28 6L28 7L29 7L29 6ZM48 6L48 7L49 7L49 6ZM33 7L33 8L32 8L32 11L29 11L29 12L32 12L32 13L33 13L33 14L31 14L31 13L30 13L30 15L31 15L31 16L29 16L29 13L27 13L27 14L26 14L26 11L27 11L27 12L28 12L28 10L25 10L25 8L24 8L24 9L22 9L22 10L25 10L25 11L24 11L24 12L22 12L22 11L21 11L21 12L20 12L20 15L22 15L22 16L23 16L23 15L22 15L22 14L21 14L21 13L23 13L23 14L26 14L26 15L25 15L25 17L21 17L21 16L20 16L20 18L21 18L21 20L20 20L20 19L18 19L18 18L17 18L17 19L16 19L16 17L15 17L15 16L17 16L17 17L19 17L19 12L18 12L18 13L17 13L17 11L18 11L18 10L17 10L17 11L16 11L16 12L15 12L15 13L13 13L13 14L14 14L14 18L15 18L15 19L16 19L16 20L17 20L17 21L18 21L18 22L19 22L19 23L18 23L18 24L17 24L17 26L18 26L18 27L16 27L16 28L15 28L15 27L13 27L13 29L14 29L14 30L15 30L15 31L16 31L16 32L17 32L17 31L18 31L18 33L19 33L19 31L18 31L18 30L19 30L19 29L20 29L20 30L22 30L22 31L21 31L21 33L22 33L22 31L23 31L23 30L24 30L24 31L26 31L26 33L27 33L27 34L26 34L26 35L25 35L25 36L27 36L27 37L28 37L28 36L29 36L29 37L31 37L31 36L32 36L32 37L33 37L33 35L34 35L34 32L33 32L33 31L34 31L34 27L33 27L33 26L34 26L34 25L37 25L37 24L34 24L34 23L35 23L35 22L37 22L37 23L38 23L38 26L39 26L39 27L37 27L37 26L36 26L36 29L37 29L37 30L36 30L36 31L35 31L35 36L34 36L34 37L35 37L35 38L37 38L37 37L38 37L38 36L37 36L37 35L38 35L38 34L39 34L39 33L40 33L40 32L39 32L39 29L40 29L40 28L41 28L41 27L42 27L42 28L43 28L43 26L44 26L44 25L41 25L41 27L40 27L40 25L39 25L39 21L40 21L40 22L41 22L41 23L42 23L42 22L43 22L43 24L44 24L44 22L43 22L43 21L40 21L40 18L39 18L39 17L38 17L38 16L37 16L37 15L36 15L36 14L35 14L35 17L38 17L38 18L39 18L39 19L38 19L38 21L37 21L37 18L34 18L34 13L33 13L33 12L32 12L32 11L33 11L33 10L34 10L34 12L35 12L35 13L37 13L37 12L36 12L36 10L34 10L34 9L33 9L33 8L34 8L34 7ZM53 9L53 10L54 10L54 11L52 11L52 12L51 12L51 14L52 14L52 15L53 15L53 16L52 16L52 17L51 17L51 15L50 15L50 16L49 16L49 18L48 18L48 19L45 19L45 21L46 21L46 23L47 23L47 24L48 24L48 23L47 23L47 20L49 20L49 21L51 21L51 22L52 22L52 23L50 23L50 22L49 22L49 23L50 23L50 24L49 24L49 25L51 25L51 24L52 24L52 26L53 26L53 24L55 24L55 20L56 20L56 19L55 19L55 18L56 18L56 16L55 16L55 14L52 14L52 13L53 13L53 12L54 12L54 13L55 13L55 9ZM3 10L3 11L4 11L4 10ZM7 11L7 12L6 12L6 13L8 13L8 11ZM41 11L41 12L43 12L43 11ZM15 13L15 14L17 14L17 15L18 15L18 14L17 14L17 13ZM47 13L47 14L49 14L49 13ZM6 14L6 15L8 15L8 16L9 16L9 17L11 17L11 18L13 18L13 16L11 16L11 14L10 14L10 16L9 16L9 14ZM27 14L27 15L26 15L26 18L24 18L24 19L23 19L23 18L22 18L22 21L21 21L21 22L20 22L20 23L19 23L19 25L24 25L24 23L21 23L21 22L23 22L23 21L24 21L24 22L25 22L25 23L26 23L26 22L28 22L28 25L27 25L27 26L29 26L29 22L28 22L28 21L32 21L32 20L30 20L30 18L28 18L28 17L27 17L27 15L28 15L28 14ZM31 16L31 17L32 17L32 18L31 18L31 19L33 19L33 21L34 21L34 22L35 22L35 20L36 20L36 19L35 19L35 20L34 20L34 19L33 19L33 17L32 17L32 16ZM53 16L53 17L52 17L52 18L51 18L51 17L50 17L50 18L51 18L51 19L49 19L49 20L51 20L51 21L52 21L52 22L54 22L54 21L52 21L52 20L53 20L53 19L52 19L52 18L53 18L53 17L55 17L55 16ZM1 18L1 19L2 19L2 18ZM3 18L3 19L4 19L4 18ZM17 19L17 20L18 20L18 19ZM25 19L25 20L24 20L24 21L28 21L28 20L29 20L29 19L28 19L28 20L26 20L26 19ZM2 20L2 21L3 21L3 20ZM4 20L4 21L5 21L5 20ZM19 20L19 21L20 21L20 20ZM10 22L10 25L9 25L9 24L8 24L8 26L9 26L9 27L10 27L10 25L11 25L11 24L12 24L12 23L11 23L11 22ZM30 22L30 23L31 23L31 29L32 29L32 28L33 28L33 27L32 27L32 23L33 23L33 22ZM52 23L52 24L53 24L53 23ZM14 24L14 25L15 25L15 26L16 26L16 25L15 25L15 24ZM33 24L33 25L34 25L34 24ZM25 25L25 26L23 26L23 27L24 27L24 28L25 28L25 27L26 27L26 25ZM46 25L46 26L47 26L47 25ZM20 26L20 27L19 27L19 28L18 28L18 29L15 29L15 30L18 30L18 29L19 29L19 28L21 28L21 29L22 29L22 30L23 30L23 28L22 28L22 27L21 27L21 26ZM5 27L5 30L8 30L8 27ZM27 27L27 30L30 30L30 27ZM39 27L39 28L40 28L40 27ZM49 27L49 30L52 30L52 27ZM55 27L55 28L56 28L56 27ZM6 28L6 29L7 29L7 28ZM9 28L9 29L10 29L10 28ZM28 28L28 29L29 29L29 28ZM37 28L37 29L38 29L38 28ZM50 28L50 29L51 29L51 28ZM2 29L2 30L3 30L3 31L4 31L4 29ZM25 29L25 30L26 30L26 29ZM9 30L9 31L8 31L8 32L7 32L7 31L6 31L6 32L7 32L7 33L6 33L6 34L8 34L8 33L9 33L9 34L11 34L11 32L10 32L10 33L9 33L9 31L10 31L10 30ZM31 30L31 32L30 32L30 31L28 31L28 32L29 32L29 33L28 33L28 34L27 34L27 36L28 36L28 34L29 34L29 33L31 33L31 34L30 34L30 36L31 36L31 35L32 35L32 30ZM37 30L37 32L38 32L38 30ZM43 30L43 31L44 31L44 30ZM1 32L1 33L2 33L2 32ZM12 33L12 34L13 34L13 35L14 35L14 36L15 36L15 34L13 34L13 33ZM37 33L37 34L38 34L38 33ZM6 35L6 36L4 36L4 37L3 37L3 38L5 38L5 37L6 37L6 38L7 38L7 37L6 37L6 36L8 36L8 35ZM39 35L39 36L40 36L40 35ZM44 35L44 37L45 37L45 39L47 39L47 38L46 38L46 37L45 37L45 35ZM49 36L49 37L50 37L50 36ZM9 38L9 39L10 39L10 40L11 40L11 39L10 39L10 38ZM13 38L13 39L14 39L14 38ZM20 38L20 39L19 39L19 40L17 40L17 43L18 43L18 41L19 41L19 40L20 40L20 42L19 42L19 44L20 44L20 43L21 43L21 45L20 45L20 47L22 47L22 46L21 46L21 45L23 45L23 46L24 46L24 47L25 47L25 46L26 46L26 47L27 47L27 46L28 46L28 44L27 44L27 43L23 43L23 44L22 44L22 43L21 43L21 42L22 42L22 40L21 40L21 39L23 39L23 41L24 41L24 42L26 42L26 41L27 41L27 42L28 42L28 43L29 43L29 42L30 42L30 40L31 40L31 39L29 39L29 38L28 38L28 39L27 39L27 40L25 40L25 41L24 41L24 39L23 39L23 38ZM5 39L5 40L7 40L7 39ZM3 40L3 41L2 41L2 42L1 42L1 45L2 45L2 42L3 42L3 45L4 45L4 44L5 44L5 43L6 43L6 44L7 44L7 43L8 43L8 42L7 42L7 41L6 41L6 42L5 42L5 43L4 43L4 40ZM13 40L13 41L14 41L14 40ZM27 40L27 41L28 41L28 42L29 42L29 41L28 41L28 40ZM48 41L48 43L47 43L47 44L46 44L46 45L47 45L47 44L49 44L49 45L48 45L48 46L49 46L49 45L50 45L50 44L51 44L51 43L52 43L52 41L51 41L51 43L50 43L50 42L49 42L49 41ZM6 42L6 43L7 43L7 42ZM39 42L39 43L40 43L40 42ZM49 43L49 44L50 44L50 43ZM24 44L24 45L25 45L25 44ZM26 45L26 46L27 46L27 45ZM29 45L29 46L31 46L31 45ZM1 46L1 47L2 47L2 46ZM3 46L3 47L5 47L5 46ZM36 47L36 48L37 48L37 47ZM38 47L38 49L37 49L37 51L38 51L38 49L39 49L39 47ZM46 47L46 48L47 48L47 47ZM53 47L53 48L55 48L55 47ZM44 48L44 49L45 49L45 48ZM27 49L27 52L30 52L30 49ZM49 49L49 52L52 52L52 49ZM16 50L16 51L17 51L17 50ZM28 50L28 51L29 51L29 50ZM50 50L50 51L51 51L51 50ZM25 51L25 53L24 53L24 54L25 54L25 53L26 53L26 51ZM31 51L31 52L32 52L32 51ZM34 51L34 52L35 52L35 51ZM19 52L19 53L20 53L20 52ZM37 52L37 54L38 54L38 52ZM54 52L54 53L55 53L55 54L57 54L57 53L55 53L55 52ZM30 53L30 54L31 54L31 53ZM33 53L33 54L34 54L34 53ZM49 53L49 54L51 54L51 55L52 55L52 54L51 54L51 53ZM20 54L20 55L19 55L19 56L21 56L21 54ZM8 55L8 57L10 57L10 56L9 56L9 55ZM56 56L56 57L57 57L57 56ZM0 0L0 7L7 7L7 0ZM1 1L1 6L6 6L6 1ZM2 2L2 5L5 5L5 2ZM50 0L50 7L57 7L57 0ZM51 1L51 6L56 6L56 1ZM52 2L52 5L55 5L55 2ZM0 50L0 57L7 57L7 50ZM1 51L1 56L6 56L6 51ZM2 52L2 55L5 55L5 52Z" fill="#000000"/></g></g></svg>
