<?xml version="1.0" encoding="UTF-8"?>
<svg xmlns="http://www.w3.org/2000/svg" version="1.1" width="300" height="300" viewBox="0 0 300 300"><rect x="0" y="0" width="300" height="300" fill="#fefefe"/><g transform="scale(4.615)"><g transform="translate(4,4)"><path fill-rule="evenodd" d="M9 0L9 1L8 1L8 2L10 2L10 4L9 4L9 3L8 3L8 4L9 4L9 5L8 5L8 7L9 7L9 8L6 8L6 9L8 9L8 10L5 10L5 8L0 8L0 9L3 9L3 10L0 10L0 11L8 11L8 12L9 12L9 13L7 13L7 12L6 12L6 13L7 13L7 14L3 14L3 13L5 13L5 12L2 12L2 14L0 14L0 15L2 15L2 17L1 17L1 16L0 16L0 17L1 17L1 18L0 18L0 20L1 20L1 18L2 18L2 19L3 19L3 20L2 20L2 21L1 21L1 22L2 22L2 21L3 21L3 23L4 23L4 22L5 22L5 23L7 23L7 22L5 22L5 21L4 21L4 20L6 20L6 21L7 21L7 20L8 20L8 19L9 19L9 18L10 18L10 20L9 20L9 24L10 24L10 25L9 25L9 26L5 26L5 25L3 25L3 24L2 24L2 23L1 23L1 24L0 24L0 27L2 27L2 29L3 29L3 30L2 30L2 31L4 31L4 32L3 32L3 33L1 33L1 34L0 34L0 36L1 36L1 35L2 35L2 37L4 37L4 36L5 36L5 35L7 35L7 34L8 34L8 31L10 31L10 32L9 32L9 34L10 34L10 32L11 32L11 34L13 34L13 36L15 36L15 35L16 35L16 36L17 36L17 38L20 38L20 39L19 39L19 40L16 40L16 39L15 39L15 38L16 38L16 37L15 37L15 38L14 38L14 37L11 37L11 35L8 35L8 36L10 36L10 37L11 37L11 38L9 38L9 37L7 37L7 36L6 36L6 37L5 37L5 38L4 38L4 39L3 39L3 38L0 38L0 41L1 41L1 42L3 42L3 43L4 43L4 44L5 44L5 45L2 45L2 43L0 43L0 45L1 45L1 46L0 46L0 48L5 48L5 47L8 47L8 45L7 45L7 44L5 44L5 43L9 43L9 42L10 42L10 41L11 41L11 38L12 38L12 41L13 41L13 40L14 40L14 41L19 41L19 42L18 42L18 43L16 43L16 44L18 44L18 45L17 45L17 46L18 46L18 47L17 47L17 48L16 48L16 47L15 47L15 45L13 45L13 44L12 44L12 46L14 46L14 48L13 48L13 47L12 47L12 48L11 48L11 50L10 50L10 51L9 51L9 49L8 49L8 48L6 48L6 49L8 49L8 51L9 51L9 52L8 52L8 57L9 57L9 55L10 55L10 53L12 53L12 54L11 54L11 56L10 56L10 57L11 57L11 56L12 56L12 54L13 54L13 55L14 55L14 52L15 52L15 53L16 53L16 54L15 54L15 55L16 55L16 56L15 56L15 57L16 57L16 56L17 56L17 57L19 57L19 55L20 55L20 54L19 54L19 53L20 53L20 52L21 52L21 50L22 50L22 52L23 52L23 50L25 50L25 51L26 51L26 52L24 52L24 53L23 53L23 54L22 54L22 53L21 53L21 54L22 54L22 55L23 55L23 57L26 57L26 56L24 56L24 55L23 55L23 54L24 54L24 53L25 53L25 55L26 55L26 53L27 53L27 54L30 54L30 53L31 53L31 51L32 51L32 52L33 52L33 53L32 53L32 54L31 54L31 56L30 56L30 55L29 55L29 56L27 56L27 57L29 57L29 56L30 56L30 57L31 57L31 56L35 56L35 57L39 57L39 56L42 56L42 55L44 55L44 56L43 56L43 57L44 57L44 56L45 56L45 57L46 57L46 56L45 56L45 55L49 55L49 56L50 56L50 57L52 57L52 55L51 55L51 53L52 53L52 54L55 54L55 53L56 53L56 52L57 52L57 51L56 51L56 52L55 52L55 51L54 51L54 50L57 50L57 48L56 48L56 46L57 46L57 45L56 45L56 44L57 44L57 43L56 43L56 42L55 42L55 39L57 39L57 37L55 37L55 35L56 35L56 36L57 36L57 35L56 35L56 33L57 33L57 32L56 32L56 30L57 30L57 29L56 29L56 26L57 26L57 25L56 25L56 22L57 22L57 21L56 21L56 20L57 20L57 19L56 19L56 18L57 18L57 17L56 17L56 16L57 16L57 15L56 15L56 14L57 14L57 11L56 11L56 10L54 10L54 11L53 11L53 9L54 9L54 8L53 8L53 9L52 9L52 8L51 8L51 10L52 10L52 11L50 11L50 12L49 12L49 13L47 13L47 14L45 14L45 15L46 15L46 16L45 16L45 17L47 17L47 18L46 18L46 20L47 20L47 22L46 22L46 23L45 23L45 25L46 25L46 24L47 24L47 22L49 22L49 21L51 21L51 22L50 22L50 23L49 23L49 25L47 25L47 27L46 27L46 26L45 26L45 27L43 27L43 28L45 28L45 31L44 31L44 29L39 29L39 30L38 30L38 32L39 32L39 31L41 31L41 30L43 30L43 32L41 32L41 33L39 33L39 34L40 34L40 35L38 35L38 33L37 33L37 32L34 32L34 31L36 31L36 29L38 29L38 28L39 28L39 27L40 27L40 26L43 26L43 25L44 25L44 20L45 20L45 18L44 18L44 14L43 14L43 13L44 13L44 12L43 12L43 13L41 13L41 14L43 14L43 15L42 15L42 16L41 16L41 15L40 15L40 14L38 14L38 13L39 13L39 11L40 11L40 12L41 12L41 11L40 11L40 10L42 10L42 11L43 11L43 10L44 10L44 11L45 11L45 12L48 12L48 11L49 11L49 10L50 10L50 8L49 8L49 6L48 6L48 7L47 7L47 5L48 5L48 0L45 0L45 2L44 2L44 3L43 3L43 4L40 4L40 5L39 5L39 6L38 6L38 9L37 9L37 8L35 8L35 5L36 5L36 7L37 7L37 5L38 5L38 3L42 3L42 2L43 2L43 0L41 0L41 1L40 1L40 0L39 0L39 1L38 1L38 0L37 0L37 1L38 1L38 3L36 3L36 0L35 0L35 1L32 1L32 0L27 0L27 1L26 1L26 0L23 0L23 2L25 2L25 1L26 1L26 2L27 2L27 3L28 3L28 2L27 2L27 1L31 1L31 2L32 2L32 3L31 3L31 4L26 4L26 3L23 3L23 4L19 4L19 2L20 2L20 0L19 0L19 1L17 1L17 4L19 4L19 5L20 5L20 7L19 7L19 6L18 6L18 5L17 5L17 6L16 6L16 7L15 7L15 5L16 5L16 4L15 4L15 5L14 5L14 8L12 8L12 7L13 7L13 4L14 4L14 2L15 2L15 3L16 3L16 2L15 2L15 1L14 1L14 0L13 0L13 1L14 1L14 2L13 2L13 3L12 3L12 2L10 2L10 1L11 1L11 0ZM21 0L21 3L22 3L22 0ZM46 1L46 2L47 2L47 1ZM33 2L33 3L32 3L32 4L31 4L31 8L32 8L32 10L31 10L31 11L30 11L30 10L27 10L27 11L26 11L26 12L25 12L25 10L24 10L24 13L22 13L22 12L21 12L21 13L20 13L20 11L22 11L22 10L23 10L23 8L24 8L24 6L23 6L23 5L24 5L24 4L23 4L23 5L21 5L21 8L19 8L19 9L20 9L20 10L19 10L19 13L20 13L20 14L21 14L21 13L22 13L22 14L23 14L23 15L20 15L20 18L19 18L19 17L15 17L15 16L14 16L14 15L12 15L12 14L11 14L11 13L12 13L12 11L13 11L13 12L14 12L14 11L13 11L13 10L15 10L15 13L13 13L13 14L15 14L15 13L16 13L16 16L17 16L17 13L18 13L18 12L17 12L17 11L18 11L18 9L16 9L16 8L17 8L17 7L18 7L18 6L17 6L17 7L16 7L16 8L14 8L14 9L13 9L13 10L12 10L12 9L11 9L11 10L9 10L9 11L11 11L11 12L10 12L10 14L11 14L11 15L10 15L10 16L9 16L9 17L10 17L10 18L11 18L11 17L12 17L12 18L13 18L13 19L14 19L14 20L11 20L11 21L10 21L10 24L11 24L11 23L13 23L13 24L12 24L12 25L11 25L11 26L10 26L10 28L9 28L9 29L13 29L13 31L15 31L15 34L16 34L16 35L17 35L17 36L19 36L19 37L22 37L22 38L24 38L24 37L23 37L23 36L24 36L24 34L23 34L23 33L25 33L25 34L26 34L26 35L27 35L27 37L25 37L25 40L24 40L24 39L22 39L22 40L20 40L20 42L21 42L21 43L20 43L20 44L19 44L19 45L20 45L20 46L19 46L19 47L20 47L20 50L21 50L21 49L23 49L23 48L24 48L24 49L26 49L26 48L27 48L27 47L26 47L26 45L27 45L27 46L31 46L31 47L32 47L32 46L31 46L31 45L33 45L33 46L36 46L36 45L34 45L34 43L35 43L35 44L36 44L36 43L37 43L37 42L35 42L35 40L38 40L38 42L39 42L39 41L41 41L41 40L43 40L43 41L45 41L45 42L43 42L43 43L44 43L44 46L47 46L47 47L48 47L48 48L47 48L47 49L45 49L45 48L46 48L46 47L43 47L43 46L41 46L41 48L39 48L39 47L40 47L40 46L39 46L39 45L41 45L41 44L42 44L42 42L41 42L41 44L40 44L40 43L39 43L39 45L38 45L38 46L39 46L39 47L38 47L38 48L37 48L37 49L38 49L38 50L36 50L36 49L35 49L35 48L36 48L36 47L35 47L35 48L34 48L34 49L33 49L33 48L32 48L32 49L31 49L31 50L32 50L32 51L33 51L33 50L34 50L34 51L35 51L35 50L36 50L36 52L38 52L38 53L37 53L37 54L40 54L40 53L41 53L41 52L40 52L40 51L38 51L38 50L41 50L41 51L42 51L42 50L41 50L41 48L42 48L42 49L43 49L43 50L44 50L44 51L45 51L45 52L44 52L44 53L43 53L43 54L44 54L44 55L45 55L45 54L48 54L48 50L47 50L47 49L48 49L48 48L49 48L49 47L48 47L48 46L49 46L49 45L48 45L48 44L50 44L50 47L51 47L51 48L52 48L52 47L55 47L55 46L56 46L56 45L55 45L55 44L54 44L54 45L52 45L52 44L53 44L53 43L54 43L54 42L53 42L53 41L54 41L54 40L53 40L53 41L51 41L51 42L50 42L50 43L49 43L49 42L48 42L48 41L49 41L49 40L50 40L50 39L51 39L51 38L52 38L52 39L54 39L54 38L53 38L53 35L55 35L55 34L54 34L54 33L56 33L56 32L54 32L54 33L52 33L52 32L53 32L53 31L55 31L55 30L54 30L54 29L55 29L55 28L54 28L54 29L53 29L53 31L48 31L48 29L46 29L46 30L47 30L47 31L45 31L45 32L43 32L43 33L44 33L44 35L43 35L43 34L42 34L42 35L43 35L43 36L44 36L44 37L43 37L43 38L42 38L42 37L41 37L41 36L40 36L40 37L38 37L38 35L37 35L37 34L35 34L35 33L34 33L34 32L32 32L32 31L33 31L33 30L35 30L35 28L36 28L36 27L39 27L39 26L40 26L40 25L43 25L43 23L42 23L42 22L41 22L41 23L42 23L42 24L40 24L40 22L39 22L39 21L41 21L41 20L39 20L39 21L38 21L38 20L37 20L37 19L39 19L39 17L41 17L41 16L39 16L39 15L38 15L38 14L37 14L37 13L36 13L36 14L37 14L37 15L35 15L35 16L32 16L32 15L31 15L31 14L30 14L30 13L31 13L31 11L32 11L32 10L33 10L33 12L32 12L32 14L35 14L35 11L36 11L36 10L37 10L37 11L39 11L39 9L42 9L42 8L41 8L41 7L42 7L42 5L40 5L40 6L39 6L39 9L38 9L38 10L37 10L37 9L35 9L35 8L34 8L34 9L33 9L33 7L34 7L34 6L33 6L33 5L35 5L35 4L33 4L33 3L35 3L35 2ZM44 3L44 6L43 6L43 7L44 7L44 10L45 10L45 11L46 11L46 10L47 10L47 11L48 11L48 10L47 10L47 9L48 9L48 8L47 8L47 7L46 7L46 6L45 6L45 4L46 4L46 5L47 5L47 3ZM11 4L11 5L12 5L12 4ZM25 4L25 8L26 8L26 4ZM32 4L32 5L33 5L33 4ZM36 4L36 5L37 5L37 4ZM9 5L9 7L10 7L10 8L11 8L11 7L12 7L12 6L11 6L11 7L10 7L10 5ZM27 5L27 8L30 8L30 5ZM22 6L22 8L23 8L23 6ZM28 6L28 7L29 7L29 6ZM32 6L32 7L33 7L33 6ZM40 6L40 7L41 7L41 6ZM44 6L44 7L45 7L45 8L46 8L46 9L47 9L47 8L46 8L46 7L45 7L45 6ZM55 8L55 9L56 9L56 8ZM27 11L27 12L26 12L26 13L28 13L28 14L29 14L29 16L28 16L28 15L27 15L27 14L25 14L25 13L24 13L24 14L25 14L25 16L26 16L26 15L27 15L27 16L28 16L28 17L22 17L22 16L21 16L21 17L22 17L22 18L20 18L20 19L21 19L21 20L22 20L22 19L23 19L23 20L24 20L24 21L21 21L21 22L24 22L24 21L25 21L25 22L26 22L26 23L25 23L25 24L24 24L24 23L21 23L21 24L18 24L18 23L20 23L20 22L19 22L19 21L20 21L20 20L17 20L17 21L16 21L16 20L15 20L15 21L16 21L16 22L15 22L15 23L16 23L16 24L13 24L13 25L12 25L12 26L14 26L14 25L16 25L16 24L17 24L17 27L16 27L16 29L15 29L15 27L13 27L13 29L14 29L14 30L15 30L15 31L16 31L16 29L18 29L18 30L17 30L17 32L18 32L18 33L17 33L17 35L18 35L18 33L19 33L19 34L20 34L20 35L19 35L19 36L20 36L20 35L23 35L23 34L22 34L22 33L21 33L21 34L20 34L20 32L18 32L18 30L20 30L20 31L21 31L21 32L25 32L25 33L26 33L26 34L27 34L27 33L26 33L26 32L28 32L28 33L29 33L29 34L30 34L30 36L29 36L29 37L31 37L31 38L29 38L29 39L33 39L33 40L35 40L35 39L37 39L37 38L38 38L38 37L37 37L37 36L35 36L35 35L34 35L34 36L33 36L33 35L32 35L32 34L33 34L33 33L32 33L32 32L31 32L31 33L29 33L29 31L32 31L32 30L31 30L31 29L32 29L32 28L31 28L31 26L32 26L32 27L33 27L33 28L35 28L35 27L36 27L36 26L34 26L34 27L33 27L33 26L32 26L32 24L33 24L33 25L37 25L37 26L38 26L38 25L40 25L40 24L37 24L37 22L38 22L38 23L39 23L39 22L38 22L38 21L37 21L37 20L36 20L36 19L34 19L34 20L33 20L33 19L30 19L30 18L33 18L33 17L32 17L32 16L31 16L31 15L30 15L30 14L29 14L29 13L28 13L28 12L29 12L29 11ZM55 11L55 12L54 12L54 14L53 14L53 15L50 15L50 14L51 14L51 12L50 12L50 14L49 14L49 15L48 15L48 16L47 16L47 17L49 17L49 15L50 15L50 16L51 16L51 17L50 17L50 19L51 19L51 17L53 17L53 18L56 18L56 17L55 17L55 16L53 16L53 15L55 15L55 14L56 14L56 11ZM0 12L0 13L1 13L1 12ZM16 12L16 13L17 13L17 12ZM33 12L33 13L34 13L34 12ZM52 12L52 13L53 13L53 12ZM8 14L8 15L3 15L3 17L4 17L4 16L7 16L7 17L6 17L6 18L3 18L3 19L6 19L6 20L7 20L7 19L6 19L6 18L7 18L7 17L8 17L8 15L9 15L9 14ZM18 14L18 15L19 15L19 14ZM11 15L11 16L10 16L10 17L11 17L11 16L12 16L12 15ZM23 15L23 16L24 16L24 15ZM13 16L13 18L14 18L14 16ZM35 16L35 17L37 17L37 18L38 18L38 17L39 17L39 16L38 16L38 17L37 17L37 16ZM42 16L42 17L43 17L43 16ZM15 18L15 19L17 19L17 18ZM23 18L23 19L24 19L24 18ZM26 18L26 20L25 20L25 21L30 21L30 20L29 20L29 19L28 19L28 18ZM41 18L41 19L42 19L42 18ZM43 18L43 20L42 20L42 21L43 21L43 20L44 20L44 18ZM47 18L47 19L48 19L48 18ZM52 19L52 20L51 20L51 21L54 21L54 23L55 23L55 22L56 22L56 21L55 21L55 20L56 20L56 19L55 19L55 20L53 20L53 19ZM32 20L32 21L31 21L31 23L30 23L30 22L29 22L29 23L27 23L27 24L25 24L25 25L26 25L26 26L24 26L24 27L26 27L26 26L27 26L27 25L28 25L28 26L29 26L29 25L31 25L31 24L32 24L32 23L33 23L33 22L34 22L34 23L35 23L35 20L34 20L34 21L33 21L33 20ZM11 21L11 22L14 22L14 21ZM17 21L17 22L18 22L18 21ZM29 23L29 24L30 24L30 23ZM50 23L50 26L53 26L53 27L54 27L54 26L53 26L53 25L54 25L54 24L53 24L53 23L52 23L52 24L51 24L51 23ZM1 24L1 26L2 26L2 24ZM6 24L6 25L7 25L7 24ZM21 24L21 25L20 25L20 27L19 27L19 26L18 26L18 27L17 27L17 28L18 28L18 29L19 29L19 28L20 28L20 30L21 30L21 31L24 31L24 30L23 30L23 29L24 29L24 28L23 28L23 26L22 26L22 27L21 27L21 25L24 25L24 24ZM5 27L5 30L8 30L8 27ZM20 27L20 28L21 28L21 29L22 29L22 28L21 28L21 27ZM27 27L27 30L30 30L30 27ZM41 27L41 28L42 28L42 27ZM45 27L45 28L46 28L46 27ZM49 27L49 30L52 30L52 27ZM6 28L6 29L7 29L7 28ZM25 28L25 29L26 29L26 28ZM28 28L28 29L29 29L29 28ZM50 28L50 29L51 29L51 28ZM0 29L0 32L1 32L1 29ZM5 31L5 32L7 32L7 31ZM11 31L11 32L12 32L12 31ZM47 31L47 32L45 32L45 33L47 33L47 32L48 32L48 33L49 33L49 32L48 32L48 31ZM13 32L13 33L14 33L14 32ZM50 32L50 34L49 34L49 35L50 35L50 36L49 36L49 37L50 37L50 38L49 38L49 39L50 39L50 38L51 38L51 37L50 37L50 36L52 36L52 35L53 35L53 34L52 34L52 33L51 33L51 32ZM3 33L3 34L2 34L2 35L3 35L3 34L4 34L4 35L5 35L5 34L7 34L7 33L5 33L5 34L4 34L4 33ZM45 34L45 35L44 35L44 36L47 36L47 35L46 35L46 34ZM50 34L50 35L52 35L52 34ZM32 36L32 37L33 37L33 39L34 39L34 38L35 38L35 37L33 37L33 36ZM6 37L6 38L5 38L5 40L4 40L4 41L3 41L3 39L2 39L2 40L1 40L1 41L3 41L3 42L4 42L4 43L5 43L5 42L7 42L7 41L8 41L8 42L9 42L9 41L10 41L10 39L8 39L8 40L7 40L7 39L6 39L6 38L7 38L7 37ZM27 37L27 38L26 38L26 39L27 39L27 40L28 40L28 41L29 41L29 40L28 40L28 39L27 39L27 38L28 38L28 37ZM40 37L40 38L41 38L41 39L38 39L38 40L41 40L41 39L42 39L42 38L41 38L41 37ZM44 37L44 38L45 38L45 39L43 39L43 40L45 40L45 39L46 39L46 41L47 41L47 39L48 39L48 37L47 37L47 39L46 39L46 38L45 38L45 37ZM13 38L13 39L14 39L14 38ZM6 40L6 41L7 41L7 40ZM8 40L8 41L9 41L9 40ZM23 40L23 42L22 42L22 41L21 41L21 42L22 42L22 43L21 43L21 44L22 44L22 45L21 45L21 47L23 47L23 46L25 46L25 45L24 45L24 44L23 44L23 43L25 43L25 44L27 44L27 43L25 43L25 41L24 41L24 40ZM31 40L31 41L30 41L30 42L29 42L29 43L28 43L28 44L29 44L29 43L31 43L31 44L33 44L33 43L34 43L34 42L33 42L33 41L32 41L32 40ZM26 41L26 42L27 42L27 41ZM31 41L31 42L32 42L32 43L33 43L33 42L32 42L32 41ZM11 42L11 43L10 43L10 44L11 44L11 43L12 43L12 42ZM45 42L45 43L46 43L46 44L45 44L45 45L47 45L47 46L48 46L48 45L47 45L47 43L48 43L48 42L47 42L47 43L46 43L46 42ZM51 42L51 43L50 43L50 44L51 44L51 43L53 43L53 42ZM5 45L5 46L3 46L3 47L5 47L5 46L7 46L7 45ZM10 45L10 46L9 46L9 48L10 48L10 46L11 46L11 45ZM22 45L22 46L23 46L23 45ZM1 46L1 47L2 47L2 46ZM51 46L51 47L52 47L52 46ZM24 47L24 48L25 48L25 47ZM28 47L28 48L30 48L30 47ZM42 47L42 48L43 48L43 49L44 49L44 50L45 50L45 51L46 51L46 52L45 52L45 53L44 53L44 54L45 54L45 53L47 53L47 51L46 51L46 50L45 50L45 49L44 49L44 48L43 48L43 47ZM12 48L12 50L13 50L13 48ZM38 48L38 49L39 49L39 48ZM53 48L53 49L56 49L56 48ZM14 49L14 51L15 51L15 52L16 52L16 53L17 53L17 52L20 52L20 51L17 51L17 50L19 50L19 49ZM27 49L27 52L30 52L30 49ZM32 49L32 50L33 50L33 49ZM49 49L49 52L52 52L52 49ZM15 50L15 51L16 51L16 50ZM28 50L28 51L29 51L29 50ZM50 50L50 51L51 51L51 50ZM10 51L10 52L12 52L12 53L13 53L13 52L12 52L12 51ZM53 52L53 53L54 53L54 52ZM33 53L33 54L35 54L35 56L36 56L36 54L35 54L35 53ZM18 54L18 55L17 55L17 56L18 56L18 55L19 55L19 54ZM41 54L41 55L42 55L42 54ZM37 55L37 56L39 56L39 55ZM50 55L50 56L51 56L51 55ZM53 55L53 56L55 56L55 57L56 57L56 56L55 56L55 55ZM0 0L0 7L7 7L7 0ZM1 1L1 6L6 6L6 1ZM2 2L2 5L5 5L5 2ZM50 0L50 7L57 7L57 0ZM51 1L51 6L56 6L56 1ZM52 2L52 5L55 5L55 2ZM0 50L0 57L7 57L7 50ZM1 51L1 56L6 56L6 51ZM2 52L2 55L5 55L5 52Z" fill="#000000"/></g></g></svg>
