<?xml version="1.0" encoding="UTF-8"?>
<svg xmlns="http://www.w3.org/2000/svg" version="1.1" width="300" height="300" viewBox="0 0 300 300"><rect x="0" y="0" width="300" height="300" fill="#fefefe"/><g transform="scale(4.615)"><g transform="translate(4,4)"><path fill-rule="evenodd" d="M8 0L8 1L9 1L9 2L8 2L8 5L10 5L10 7L9 7L9 6L8 6L8 7L9 7L9 8L8 8L8 9L9 9L9 8L11 8L11 10L10 10L10 12L6 12L6 11L9 11L9 10L4 10L4 8L0 8L0 9L1 9L1 13L2 13L2 12L3 12L3 15L2 15L2 14L1 14L1 15L2 15L2 16L1 16L1 17L0 17L0 19L1 19L1 21L0 21L0 22L1 22L1 23L0 23L0 24L1 24L1 26L0 26L0 27L2 27L2 29L1 29L1 28L0 28L0 29L1 29L1 30L0 30L0 31L2 31L2 32L0 32L0 33L2 33L2 34L3 34L3 33L2 33L2 32L4 32L4 35L2 35L2 36L1 36L1 35L0 35L0 36L1 36L1 37L0 37L0 40L1 40L1 41L0 41L0 43L1 43L1 45L0 45L0 48L5 48L5 47L7 47L7 48L6 48L6 49L7 49L7 48L9 48L9 49L8 49L8 50L9 50L9 51L10 51L10 50L12 50L12 52L13 52L13 53L12 53L12 54L10 54L10 56L9 56L9 53L10 53L10 52L9 52L9 53L8 53L8 57L10 57L10 56L12 56L12 57L15 57L15 56L16 56L16 57L18 57L18 56L19 56L19 55L20 55L20 57L21 57L21 55L20 55L20 53L22 53L22 57L23 57L23 54L25 54L25 55L24 55L24 56L25 56L25 55L26 55L26 56L28 56L28 55L26 55L26 54L27 54L27 53L29 53L29 54L31 54L31 55L30 55L30 56L31 56L31 57L32 57L32 55L33 55L33 54L36 54L36 55L34 55L34 56L33 56L33 57L36 57L36 55L38 55L38 57L39 57L39 56L40 56L40 57L42 57L42 56L45 56L45 55L44 55L44 54L45 54L45 53L46 53L46 56L48 56L48 57L51 57L51 54L52 54L52 53L54 53L54 55L55 55L55 54L56 54L56 53L57 53L57 51L55 51L55 50L57 50L57 48L56 48L56 49L55 49L55 48L54 48L54 47L53 47L53 48L50 48L50 47L52 47L52 43L53 43L53 42L54 42L54 43L56 43L56 44L57 44L57 43L56 43L56 42L54 42L54 41L55 41L55 38L56 38L56 39L57 39L57 38L56 38L56 36L54 36L54 35L57 35L57 34L55 34L55 33L57 33L57 31L56 31L56 30L57 30L57 29L56 29L56 30L54 30L54 29L55 29L55 28L56 28L56 24L55 24L55 27L53 27L53 26L52 26L52 25L49 25L49 24L54 24L54 23L57 23L57 20L54 20L54 21L53 21L53 20L50 20L50 18L49 18L49 20L50 20L50 21L51 21L51 22L52 22L52 23L49 23L49 21L47 21L47 19L48 19L48 17L47 17L47 16L48 16L48 14L47 14L47 16L46 16L46 15L45 15L45 14L46 14L46 13L44 13L44 10L45 10L45 11L48 11L48 12L49 12L49 15L50 15L50 16L51 16L51 17L52 17L52 16L55 16L55 17L54 17L54 18L52 18L52 19L56 19L56 18L55 18L55 17L57 17L57 15L55 15L55 14L54 14L54 15L52 15L52 16L51 16L51 13L52 13L52 14L53 14L53 13L54 13L54 10L52 10L52 11L53 11L53 13L52 13L52 12L51 12L51 10L50 10L50 8L48 8L48 9L47 9L47 5L48 5L48 0L45 0L45 1L44 1L44 2L41 2L41 1L43 1L43 0L41 0L41 1L40 1L40 0L39 0L39 1L40 1L40 2L41 2L41 3L43 3L43 5L45 5L45 6L44 6L44 7L43 7L43 6L42 6L42 5L41 5L41 4L39 4L39 3L38 3L38 2L37 2L37 1L38 1L38 0L37 0L37 1L36 1L36 0L35 0L35 1L34 1L34 2L33 2L33 0L32 0L32 2L31 2L31 0L27 0L27 1L28 1L28 2L29 2L29 4L26 4L26 2L24 2L24 3L23 3L23 5L22 5L22 4L21 4L21 5L20 5L20 4L19 4L19 3L20 3L20 2L21 2L21 1L22 1L22 2L23 2L23 1L26 1L26 0L23 0L23 1L22 1L22 0L21 0L21 1L19 1L19 3L17 3L17 2L15 2L15 3L17 3L17 4L19 4L19 5L15 5L15 4L14 4L14 3L12 3L12 4L11 4L11 1L12 1L12 0L11 0L11 1L10 1L10 0ZM13 0L13 1L14 1L14 0ZM17 0L17 1L18 1L18 0ZM35 1L35 2L36 2L36 1ZM45 1L45 3L44 3L44 4L45 4L45 5L47 5L47 3L46 3L46 2L47 2L47 1ZM9 3L9 4L10 4L10 5L11 5L11 4L10 4L10 3ZM32 3L32 4L31 4L31 5L32 5L32 6L31 6L31 9L32 9L32 10L30 10L30 11L29 11L29 10L28 10L28 11L27 11L27 10L26 10L26 11L25 11L25 12L23 12L23 11L24 11L24 10L23 10L23 9L26 9L26 6L25 6L25 5L26 5L26 4L24 4L24 6L23 6L23 7L24 7L24 8L23 8L23 9L21 9L21 7L22 7L22 6L21 6L21 7L20 7L20 6L19 6L19 7L18 7L18 6L17 6L17 7L16 7L16 6L15 6L15 8L14 8L14 6L13 6L13 7L12 7L12 6L11 6L11 7L12 7L12 8L13 8L13 10L14 10L14 11L15 11L15 15L16 15L16 16L17 16L17 18L19 18L19 19L18 19L18 21L17 21L17 23L16 23L16 20L17 20L17 19L16 19L16 17L14 17L14 18L11 18L11 19L10 19L10 18L9 18L9 16L10 16L10 13L11 13L11 14L12 14L12 16L11 16L11 17L13 17L13 16L14 16L14 13L13 13L13 11L12 11L12 10L11 10L11 11L12 11L12 12L10 12L10 13L6 13L6 12L5 12L5 11L4 11L4 10L3 10L3 9L2 9L2 10L3 10L3 11L4 11L4 14L5 14L5 15L3 15L3 16L2 16L2 17L1 17L1 18L3 18L3 19L4 19L4 20L2 20L2 21L3 21L3 22L5 22L5 21L6 21L6 22L7 22L7 21L6 21L6 20L8 20L8 19L4 19L4 18L7 18L7 17L8 17L8 18L9 18L9 20L11 20L11 19L16 19L16 20L14 20L14 22L13 22L13 20L12 20L12 21L8 21L8 23L5 23L5 25L4 25L4 26L7 26L7 25L9 25L9 27L10 27L10 28L9 28L9 29L11 29L11 30L10 30L10 31L5 31L5 32L7 32L7 33L6 33L6 34L5 34L5 35L4 35L4 36L2 36L2 39L1 39L1 40L2 40L2 41L1 41L1 43L3 43L3 47L5 47L5 46L9 46L9 45L10 45L10 44L9 44L9 43L11 43L11 41L10 41L10 40L9 40L9 41L6 41L6 40L7 40L7 39L9 39L9 38L10 38L10 37L8 37L8 35L10 35L10 36L12 36L12 39L11 39L11 40L12 40L12 41L13 41L13 42L12 42L12 43L13 43L13 44L11 44L11 48L10 48L10 47L9 47L9 48L10 48L10 49L9 49L9 50L10 50L10 49L12 49L12 47L13 47L13 44L14 44L14 45L15 45L15 46L14 46L14 47L15 47L15 46L16 46L16 47L18 47L18 46L17 46L17 45L20 45L20 46L19 46L19 47L20 47L20 46L21 46L21 47L22 47L22 46L23 46L23 45L25 45L25 46L24 46L24 49L23 49L23 48L20 48L20 49L21 49L21 50L19 50L19 49L18 49L18 51L17 51L17 52L16 52L16 51L15 51L15 53L16 53L16 54L17 54L17 55L18 55L18 54L19 54L19 52L18 52L18 51L21 51L21 52L22 52L22 53L23 53L23 52L24 52L24 53L25 53L25 54L26 54L26 53L25 53L25 52L26 52L26 50L25 50L25 47L26 47L26 48L27 48L27 46L26 46L26 45L27 45L27 43L28 43L28 42L25 42L25 41L26 41L26 39L25 39L25 38L26 38L26 37L24 37L24 39L23 39L23 40L22 40L22 41L19 41L19 40L18 40L18 41L19 41L19 43L18 43L18 42L17 42L17 45L15 45L15 44L14 44L14 43L16 43L16 42L14 42L14 40L13 40L13 36L12 36L12 35L10 35L10 34L8 34L8 35L6 35L6 34L7 34L7 33L8 33L8 32L9 32L9 33L11 33L11 34L12 34L12 33L13 33L13 35L14 35L14 33L13 33L13 32L14 32L14 30L16 30L16 32L15 32L15 38L14 38L14 39L15 39L15 38L17 38L17 39L16 39L16 41L17 41L17 39L18 39L18 38L19 38L19 37L20 37L20 38L21 38L21 39L22 39L22 38L23 38L23 36L26 36L26 35L27 35L27 34L28 34L28 35L29 35L29 36L27 36L27 38L29 38L29 36L32 36L32 38L30 38L30 39L28 39L28 40L27 40L27 41L30 41L30 42L31 42L31 41L30 41L30 40L33 40L33 39L35 39L35 40L34 40L34 41L36 41L36 42L34 42L34 43L35 43L35 44L34 44L34 45L33 45L33 42L32 42L32 43L29 43L29 44L28 44L28 47L29 47L29 48L32 48L32 49L31 49L31 53L32 53L32 51L35 51L35 48L37 48L37 49L36 49L36 50L37 50L37 49L38 49L38 48L39 48L39 49L40 49L40 50L39 50L39 51L36 51L36 52L35 52L35 53L36 53L36 54L37 54L37 52L40 52L40 54L41 54L41 55L42 55L42 54L43 54L43 53L42 53L42 54L41 54L41 52L43 52L43 51L46 51L46 50L47 50L47 52L46 52L46 53L47 53L47 52L48 52L48 48L47 48L47 47L49 47L49 46L50 46L50 44L51 44L51 42L50 42L50 41L52 41L52 39L51 39L51 38L49 38L49 36L48 36L48 35L47 35L47 34L50 34L50 33L49 33L49 32L50 32L50 31L49 31L49 32L48 32L48 28L47 28L47 31L46 31L46 33L45 33L45 31L44 31L44 30L43 30L43 29L42 29L42 30L41 30L41 27L40 27L40 29L38 29L38 30L36 30L36 29L37 29L37 28L36 28L36 27L35 27L35 25L34 25L34 27L35 27L35 28L34 28L34 29L35 29L35 31L33 31L33 32L32 32L32 30L33 30L33 29L32 29L32 30L31 30L31 33L33 33L33 36L32 36L32 35L31 35L31 34L30 34L30 35L29 35L29 33L30 33L30 31L26 31L26 32L25 32L25 30L26 30L26 28L25 28L25 25L28 25L28 26L31 26L31 25L29 25L29 24L28 24L28 23L29 23L29 22L28 22L28 21L27 21L27 20L29 20L29 21L31 21L31 22L30 22L30 23L32 23L32 22L34 22L34 23L33 23L33 24L32 24L32 25L33 25L33 24L35 24L35 23L36 23L36 24L37 24L37 22L35 22L35 21L34 21L34 20L33 20L33 19L32 19L32 20L31 20L31 17L32 17L32 18L33 18L33 17L32 17L32 16L29 16L29 15L28 15L28 16L29 16L29 17L27 17L27 20L26 20L26 21L27 21L27 22L25 22L25 19L24 19L24 18L25 18L25 17L24 17L24 18L23 18L23 16L24 16L24 14L25 14L25 15L26 15L26 16L27 16L27 13L26 13L26 12L28 12L28 13L30 13L30 14L33 14L33 15L35 15L35 16L34 16L34 17L35 17L35 20L36 20L36 21L38 21L38 22L39 22L39 20L40 20L40 19L39 19L39 18L41 18L41 20L43 20L43 21L44 21L44 22L45 22L45 20L46 20L46 18L45 18L45 17L42 17L42 14L43 14L43 15L44 15L44 16L45 16L45 15L44 15L44 13L43 13L43 12L42 12L42 11L43 11L43 10L44 10L44 9L45 9L45 8L46 8L46 6L45 6L45 8L43 8L43 7L42 7L42 6L41 6L41 7L40 7L40 5L38 5L38 6L37 6L37 5L36 5L36 4L35 4L35 3L34 3L34 5L33 5L33 3ZM37 3L37 4L38 4L38 3ZM12 4L12 5L14 5L14 4ZM27 5L27 8L30 8L30 5ZM24 6L24 7L25 7L25 6ZM28 6L28 7L29 7L29 6ZM32 6L32 8L33 8L33 6ZM34 6L34 9L36 9L36 8L37 8L37 10L38 10L38 12L37 12L37 11L36 11L36 10L35 10L35 11L34 11L34 10L33 10L33 11L30 11L30 12L31 12L31 13L32 13L32 12L33 12L33 14L34 14L34 12L35 12L35 15L36 15L36 13L37 13L37 15L39 15L39 17L40 17L40 16L41 16L41 14L40 14L40 11L42 11L42 10L43 10L43 9L41 9L41 8L40 8L40 7L39 7L39 6L38 6L38 7L39 7L39 8L37 8L37 6L36 6L36 7L35 7L35 6ZM48 6L48 7L49 7L49 6ZM19 7L19 10L20 10L20 7ZM6 8L6 9L7 9L7 8ZM15 8L15 9L16 9L16 8ZM17 8L17 9L18 9L18 8ZM52 8L52 9L55 9L55 8ZM56 8L56 9L57 9L57 8ZM38 9L38 10L39 10L39 11L40 11L40 10L41 10L41 9L40 9L40 10L39 10L39 9ZM46 9L46 10L47 10L47 9ZM15 10L15 11L16 11L16 10ZM17 10L17 12L16 12L16 13L17 13L17 12L18 12L18 13L19 13L19 17L21 17L21 18L20 18L20 20L21 20L21 22L19 22L19 21L18 21L18 23L17 23L17 27L19 27L19 28L18 28L18 29L19 29L19 30L17 30L17 28L13 28L13 29L12 29L12 30L13 30L13 29L16 29L16 30L17 30L17 33L18 33L18 34L17 34L17 35L16 35L16 36L17 36L17 37L19 37L19 36L20 36L20 35L19 35L19 34L20 34L20 33L21 33L21 35L24 35L24 34L25 34L25 32L24 32L24 33L23 33L23 31L22 31L22 32L21 32L21 30L24 30L24 29L21 29L21 30L20 30L20 27L19 27L19 26L18 26L18 25L20 25L20 26L22 26L22 27L23 27L23 28L24 28L24 27L23 27L23 25L22 25L22 24L24 24L24 25L25 25L25 22L24 22L24 21L23 21L23 19L22 19L22 17L21 17L21 16L20 16L20 15L21 15L21 12L20 12L20 11L19 11L19 12L18 12L18 10ZM21 10L21 11L23 11L23 10ZM48 10L48 11L49 11L49 10ZM55 10L55 12L56 12L56 11L57 11L57 10ZM35 11L35 12L36 12L36 11ZM19 12L19 13L20 13L20 12ZM22 12L22 13L23 13L23 12ZM50 12L50 13L51 13L51 12ZM25 13L25 14L26 14L26 13ZM6 14L6 15L5 15L5 16L4 16L4 17L7 17L7 16L6 16L6 15L7 15L7 14ZM8 14L8 16L9 16L9 14ZM16 14L16 15L17 15L17 14ZM29 17L29 18L28 18L28 19L30 19L30 17ZM36 17L36 18L37 18L37 17ZM41 17L41 18L42 18L42 19L43 19L43 18L42 18L42 17ZM44 18L44 19L45 19L45 18ZM21 19L21 20L22 20L22 19ZM36 19L36 20L38 20L38 19ZM22 21L22 22L21 22L21 23L20 23L20 24L21 24L21 23L23 23L23 21ZM46 21L46 22L47 22L47 23L48 23L48 22L47 22L47 21ZM54 21L54 22L56 22L56 21ZM9 22L9 23L10 23L10 24L11 24L11 27L14 27L14 26L13 26L13 25L15 25L15 27L16 27L16 23L15 23L15 24L14 24L14 23L13 23L13 22L11 22L11 23L10 23L10 22ZM27 22L27 23L26 23L26 24L27 24L27 23L28 23L28 22ZM42 22L42 23L40 23L40 24L39 24L39 23L38 23L38 24L39 24L39 25L40 25L40 26L45 26L45 24L46 24L46 23L44 23L44 25L41 25L41 24L43 24L43 22ZM1 23L1 24L2 24L2 25L3 25L3 23ZM11 23L11 24L12 24L12 25L13 25L13 24L12 24L12 23ZM18 23L18 24L19 24L19 23ZM6 24L6 25L7 25L7 24ZM46 25L46 26L49 26L49 25ZM38 26L38 27L39 27L39 26ZM5 27L5 30L8 30L8 27ZM27 27L27 30L30 30L30 27ZM32 27L32 28L33 28L33 27ZM42 27L42 28L44 28L44 27ZM45 27L45 30L46 30L46 27ZM49 27L49 30L52 30L52 27ZM6 28L6 29L7 29L7 28ZM28 28L28 29L29 29L29 28ZM50 28L50 29L51 29L51 28ZM53 28L53 29L54 29L54 28ZM2 29L2 30L3 30L3 31L4 31L4 29ZM19 30L19 32L18 32L18 33L20 33L20 30ZM38 30L38 31L39 31L39 34L38 34L38 32L37 32L37 31L35 31L35 32L33 32L33 33L35 33L35 35L36 35L36 36L33 36L33 38L32 38L32 39L33 39L33 38L34 38L34 37L37 37L37 38L39 38L39 39L38 39L38 40L37 40L37 41L40 41L40 40L39 40L39 39L43 39L43 41L45 41L45 42L46 42L46 43L44 43L44 42L42 42L42 40L41 40L41 43L40 43L40 42L37 42L37 44L38 44L38 45L36 45L36 44L35 44L35 45L36 45L36 46L34 46L34 47L33 47L33 45L32 45L32 47L33 47L33 48L35 48L35 47L36 47L36 46L37 46L37 47L38 47L38 45L39 45L39 47L43 47L43 50L44 50L44 48L45 48L45 50L46 50L46 49L47 49L47 48L46 48L46 47L47 47L47 46L49 46L49 43L50 43L50 42L49 42L49 43L48 43L48 42L47 42L47 41L50 41L50 40L51 40L51 39L49 39L49 40L47 40L47 39L48 39L48 37L47 37L47 38L46 38L46 37L45 37L45 39L44 39L44 38L41 38L41 37L44 37L44 36L47 36L47 35L45 35L45 33L44 33L44 31L41 31L41 30ZM53 30L53 31L52 31L52 34L54 34L54 33L53 33L53 31L54 31L54 32L55 32L55 31L54 31L54 30ZM40 31L40 32L41 32L41 31ZM11 32L11 33L12 33L12 32ZM27 32L27 33L28 33L28 32ZM36 32L36 33L37 33L37 32ZM42 32L42 33L43 33L43 32ZM22 33L22 34L23 34L23 33ZM41 34L41 35L37 35L37 36L40 36L40 37L41 37L41 35L42 35L42 36L43 36L43 35L44 35L44 34L43 34L43 35L42 35L42 34ZM5 35L5 36L4 36L4 37L3 37L3 39L4 39L4 40L6 40L6 39L7 39L7 38L5 38L5 39L4 39L4 37L7 37L7 36L6 36L6 35ZM17 35L17 36L18 36L18 35ZM51 35L51 36L50 36L50 37L51 37L51 36L52 36L52 38L53 38L53 39L54 39L54 38L53 38L53 36L52 36L52 35ZM21 37L21 38L22 38L22 37ZM35 38L35 39L36 39L36 38ZM24 39L24 40L23 40L23 41L22 41L22 44L21 44L21 42L20 42L20 44L21 44L21 46L22 46L22 44L25 44L25 45L26 45L26 43L23 43L23 42L24 42L24 41L25 41L25 39ZM46 40L46 41L47 41L47 40ZM56 40L56 41L57 41L57 40ZM2 41L2 42L3 42L3 41ZM4 41L4 42L5 42L5 43L4 43L4 45L5 45L5 44L6 44L6 45L7 45L7 44L6 44L6 43L7 43L7 42L5 42L5 41ZM9 41L9 42L10 42L10 41ZM38 43L38 44L40 44L40 43ZM42 43L42 45L43 45L43 47L44 47L44 45L45 45L45 47L46 47L46 46L47 46L47 45L48 45L48 44L44 44L44 43ZM29 44L29 46L30 46L30 44ZM53 44L53 45L54 45L54 46L55 46L55 47L57 47L57 45L56 45L56 46L55 46L55 44ZM1 45L1 47L2 47L2 45ZM13 48L13 50L14 50L14 49L15 49L15 50L17 50L17 49L16 49L16 48ZM41 48L41 49L42 49L42 48ZM53 48L53 50L55 50L55 49L54 49L54 48ZM22 49L22 52L23 52L23 49ZM27 49L27 52L30 52L30 49ZM32 49L32 50L34 50L34 49ZM49 49L49 52L52 52L52 49ZM24 50L24 51L25 51L25 50ZM28 50L28 51L29 51L29 50ZM50 50L50 51L51 51L51 50ZM40 51L40 52L41 52L41 51ZM33 52L33 53L34 53L34 52ZM54 52L54 53L55 53L55 52ZM13 53L13 55L12 55L12 56L14 56L14 55L15 55L15 54L14 54L14 53ZM17 53L17 54L18 54L18 53ZM38 53L38 54L39 54L39 53ZM48 53L48 54L50 54L50 53ZM56 55L56 56L57 56L57 55ZM52 56L52 57L53 57L53 56ZM54 56L54 57L55 57L55 56ZM0 0L0 7L7 7L7 0ZM1 1L1 6L6 6L6 1ZM2 2L2 5L5 5L5 2ZM50 0L50 7L57 7L57 0ZM51 1L51 6L56 6L56 1ZM52 2L52 5L55 5L55 2ZM0 50L0 57L7 57L7 50ZM1 51L1 56L6 56L6 51ZM2 52L2 55L5 55L5 52Z" fill="#000000"/></g></g></svg>
