<?xml version="1.0" encoding="UTF-8"?>
<svg xmlns="http://www.w3.org/2000/svg" version="1.1" width="300" height="300" viewBox="0 0 300 300"><rect x="0" y="0" width="300" height="300" fill="#fefefe"/><g transform="scale(4.615)"><g transform="translate(4,4)"><path fill-rule="evenodd" d="M8 0L8 2L9 2L9 1L11 1L11 0ZM12 0L12 1L14 1L14 3L13 3L13 4L12 4L12 5L14 5L14 9L15 9L15 11L14 11L14 12L15 12L15 11L16 11L16 12L17 12L17 14L15 14L15 15L12 15L12 17L8 17L8 16L9 16L9 15L10 15L10 16L11 16L11 14L10 14L10 13L9 13L9 15L8 15L8 16L6 16L6 15L7 15L7 14L8 14L8 12L11 12L11 13L12 13L12 12L13 12L13 9L12 9L12 10L11 10L11 11L7 11L7 10L6 10L6 9L7 9L7 8L5 8L5 11L7 11L7 12L3 12L3 14L1 14L1 16L2 16L2 15L5 15L5 16L3 16L3 18L4 18L4 19L7 19L7 20L4 20L4 21L2 21L2 23L3 23L3 22L4 22L4 21L7 21L7 20L8 20L8 22L5 22L5 23L8 23L8 24L4 24L4 25L2 25L2 26L4 26L4 29L3 29L3 27L2 27L2 28L0 28L0 29L3 29L3 30L4 30L4 31L2 31L2 30L0 30L0 31L2 31L2 33L1 33L1 35L2 35L2 36L1 36L1 37L2 37L2 38L1 38L1 40L0 40L0 45L1 45L1 44L2 44L2 47L1 47L1 46L0 46L0 48L5 48L5 47L7 47L7 48L6 48L6 49L7 49L7 48L10 48L10 49L8 49L8 50L9 50L9 51L8 51L8 52L9 52L9 53L10 53L10 54L11 54L11 53L12 53L12 57L15 57L15 56L16 56L16 57L17 57L17 56L18 56L18 57L19 57L19 54L18 54L18 53L19 53L19 51L18 51L18 53L17 53L17 52L13 52L13 53L12 53L12 51L15 51L15 50L16 50L16 49L17 49L17 48L18 48L18 50L19 50L19 48L20 48L20 47L19 47L19 46L20 46L20 45L19 45L19 44L18 44L18 43L20 43L20 44L21 44L21 43L20 43L20 41L21 41L21 40L22 40L22 41L23 41L23 40L22 40L22 39L23 39L23 35L25 35L25 36L24 36L24 37L26 37L26 38L27 38L27 37L26 37L26 36L28 36L28 37L29 37L29 36L28 36L28 35L31 35L31 36L30 36L30 40L28 40L28 41L27 41L27 40L25 40L25 41L26 41L26 42L24 42L24 44L23 44L23 43L22 43L22 44L23 44L23 47L24 47L24 48L25 48L25 47L26 47L26 46L28 46L28 45L29 45L29 46L30 46L30 47L31 47L31 48L29 48L29 47L27 47L27 48L26 48L26 49L25 49L25 51L24 51L24 49L23 49L23 48L22 48L22 46L21 46L21 48L22 48L22 50L21 50L21 51L20 51L20 53L21 53L21 54L20 54L20 55L21 55L21 54L22 54L22 53L23 53L23 55L22 55L22 57L23 57L23 56L24 56L24 57L25 57L25 56L26 56L26 57L28 57L28 55L29 55L29 57L33 57L33 55L34 55L34 57L35 57L35 55L37 55L37 54L36 54L36 53L37 53L37 52L38 52L38 53L39 53L39 55L40 55L40 57L42 57L42 56L44 56L44 57L46 57L46 56L47 56L47 57L48 57L48 56L49 56L49 57L50 57L50 55L49 55L49 54L52 54L52 55L53 55L53 56L51 56L51 57L54 57L54 54L53 54L53 53L57 53L57 52L56 52L56 51L57 51L57 50L56 50L56 47L57 47L57 42L56 42L56 43L55 43L55 42L54 42L54 41L57 41L57 40L54 40L54 39L53 39L53 38L54 38L54 37L55 37L55 38L57 38L57 36L56 36L56 35L57 35L57 34L56 34L56 31L57 31L57 29L56 29L56 28L57 28L57 24L56 24L56 23L57 23L57 18L56 18L56 20L55 20L55 21L54 21L54 19L55 19L55 16L56 16L56 17L57 17L57 13L56 13L56 15L55 15L55 14L54 14L54 13L53 13L53 12L54 12L54 11L55 11L55 12L56 12L56 11L57 11L57 10L56 10L56 9L57 9L57 8L55 8L55 9L54 9L54 10L52 10L52 12L51 12L51 11L50 11L50 13L49 13L49 14L48 14L48 12L47 12L47 11L46 11L46 13L45 13L45 12L44 12L44 13L45 13L45 14L43 14L43 16L44 16L44 17L43 17L43 18L42 18L42 17L41 17L41 15L42 15L42 12L43 12L43 10L42 10L42 8L43 8L43 6L44 6L44 10L46 10L46 9L47 9L47 8L48 8L48 7L49 7L49 6L48 6L48 7L47 7L47 5L48 5L48 0L42 0L42 1L41 1L41 0L38 0L38 2L37 2L37 1L35 1L35 0L34 0L34 2L37 2L37 4L38 4L38 5L39 5L39 4L40 4L40 2L42 2L42 1L47 1L47 2L45 2L45 4L44 4L44 2L43 2L43 3L41 3L41 4L42 4L42 5L41 5L41 6L40 6L40 7L39 7L39 6L38 6L38 8L37 8L37 6L36 6L36 10L34 10L34 9L35 9L35 4L36 4L36 3L34 3L34 8L32 8L32 9L31 9L31 5L32 5L32 1L31 1L31 0L30 0L30 2L29 2L29 0L28 0L28 2L29 2L29 3L30 3L30 4L28 4L28 3L27 3L27 0L24 0L24 1L23 1L23 0L20 0L20 1L23 1L23 5L22 5L22 9L23 9L23 11L22 11L22 12L25 12L25 13L26 13L26 15L25 15L25 17L26 17L26 15L27 15L27 14L28 14L28 15L29 15L29 16L30 16L30 17L28 17L28 18L30 18L30 17L31 17L31 18L34 18L34 20L33 20L33 19L31 19L31 20L30 20L30 19L29 19L29 20L28 20L28 19L27 19L27 20L26 20L26 19L25 19L25 18L24 18L24 16L22 16L22 14L21 14L21 16L20 16L20 17L19 17L19 16L18 16L18 18L17 18L17 19L16 19L16 17L15 17L15 15L18 15L18 13L19 13L19 14L20 14L20 13L21 13L21 12L20 12L20 13L19 13L19 12L18 12L18 11L20 11L20 9L21 9L21 5L20 5L20 7L19 7L19 5L18 5L18 2L19 2L19 0L16 0L16 2L15 2L15 1L14 1L14 0ZM17 1L17 2L16 2L16 4L17 4L17 2L18 2L18 1ZM24 1L24 4L25 4L25 1ZM39 1L39 2L38 2L38 4L39 4L39 2L40 2L40 1ZM11 2L11 3L9 3L9 4L8 4L8 9L9 9L9 8L10 8L10 7L11 7L11 8L12 8L12 7L13 7L13 6L12 6L12 7L11 7L11 3L12 3L12 2ZM20 2L20 3L22 3L22 2ZM30 2L30 3L31 3L31 2ZM14 3L14 4L15 4L15 3ZM26 3L26 4L27 4L27 3ZM46 3L46 5L44 5L44 4L43 4L43 5L42 5L42 6L41 6L41 7L40 7L40 8L38 8L38 11L39 11L39 10L40 10L40 8L42 8L42 6L43 6L43 5L44 5L44 6L45 6L45 9L46 9L46 5L47 5L47 3ZM9 5L9 7L10 7L10 5ZM16 5L16 6L15 6L15 8L16 8L16 11L17 11L17 10L18 10L18 8L19 8L19 9L20 9L20 8L19 8L19 7L18 7L18 5ZM24 5L24 6L23 6L23 8L24 8L24 11L26 11L26 13L27 13L27 12L28 12L28 11L29 11L29 12L30 12L30 13L29 13L29 15L30 15L30 16L31 16L31 17L32 17L32 16L33 16L33 17L34 17L34 18L36 18L36 19L37 19L37 18L36 18L36 15L37 15L37 16L38 16L38 18L40 18L40 19L39 19L39 20L37 20L37 21L36 21L36 20L34 20L34 22L35 22L35 23L36 23L36 24L34 24L34 23L33 23L33 24L34 24L34 26L33 26L33 25L32 25L32 23L30 23L30 22L33 22L33 21L32 21L32 20L31 20L31 21L30 21L30 22L29 22L29 21L28 21L28 20L27 20L27 22L26 22L26 23L27 23L27 25L26 25L26 26L29 26L29 25L30 25L30 26L31 26L31 25L32 25L32 28L31 28L31 29L32 29L32 31L31 31L31 32L30 32L30 34L32 34L32 32L33 32L33 29L34 29L34 34L35 34L35 33L36 33L36 35L35 35L35 36L33 36L33 37L34 37L34 38L31 38L31 41L30 41L30 42L29 42L29 41L28 41L28 43L29 43L29 44L30 44L30 46L31 46L31 47L33 47L33 45L34 45L34 48L33 48L33 49L32 49L32 48L31 48L31 49L32 49L32 50L31 50L31 52L32 52L32 50L33 50L33 51L34 51L34 52L35 52L35 53L34 53L34 54L35 54L35 53L36 53L36 52L35 52L35 51L37 51L37 49L36 49L36 48L37 48L37 47L38 47L38 52L39 52L39 53L40 53L40 52L39 52L39 49L40 49L40 51L41 51L41 53L42 53L42 54L43 54L43 55L44 55L44 56L46 56L46 54L47 54L47 55L48 55L48 54L49 54L49 53L48 53L48 54L47 54L47 52L48 52L48 51L47 51L47 49L44 49L44 48L45 48L45 47L44 47L44 46L43 46L43 45L44 45L44 44L45 44L45 43L47 43L47 44L46 44L46 47L48 47L48 46L47 46L47 44L48 44L48 43L49 43L49 44L50 44L50 45L49 45L49 48L50 48L50 46L51 46L51 45L52 45L52 46L53 46L53 45L55 45L55 47L54 47L54 48L53 48L53 47L51 47L51 48L53 48L53 49L54 49L54 50L53 50L53 51L54 51L54 52L55 52L55 51L56 51L56 50L55 50L55 47L56 47L56 44L55 44L55 43L54 43L54 44L53 44L53 41L54 41L54 40L52 40L52 39L51 39L51 40L50 40L50 33L51 33L51 37L52 37L52 38L53 38L53 37L54 37L54 36L55 36L55 37L56 37L56 36L55 36L55 35L56 35L56 34L55 34L55 31L56 31L56 30L55 30L55 31L54 31L54 29L55 29L55 28L56 28L56 24L55 24L55 23L56 23L56 21L55 21L55 23L54 23L54 21L53 21L53 22L52 22L52 20L53 20L53 19L54 19L54 16L55 16L55 15L54 15L54 16L53 16L53 18L52 18L52 15L53 15L53 14L52 14L52 13L50 13L50 15L49 15L49 16L50 16L50 18L49 18L49 17L48 17L48 18L47 18L47 17L46 17L46 15L48 15L48 14L47 14L47 13L46 13L46 15L44 15L44 16L45 16L45 17L44 17L44 19L42 19L42 20L41 20L41 21L42 21L42 22L43 22L43 25L42 25L42 24L41 24L41 25L40 25L40 28L39 28L39 29L38 29L38 28L37 28L37 30L36 30L36 27L37 27L37 26L36 26L36 24L37 24L37 25L38 25L38 26L39 26L39 25L38 25L38 23L36 23L36 22L37 22L37 21L38 21L38 22L39 22L39 23L41 23L41 22L40 22L40 19L41 19L41 18L40 18L40 14L41 14L41 13L40 13L40 12L37 12L37 11L34 11L34 10L33 10L33 9L32 9L32 11L31 11L31 12L30 12L30 10L31 10L31 9L30 9L30 10L28 10L28 9L27 9L27 10L25 10L25 9L26 9L26 5ZM27 5L27 8L30 8L30 5ZM16 6L16 7L17 7L17 8L18 8L18 7L17 7L17 6ZM24 6L24 7L25 7L25 6ZM28 6L28 7L29 7L29 6ZM32 6L32 7L33 7L33 6ZM0 8L0 9L1 9L1 10L0 10L0 13L2 13L2 11L4 11L4 9L3 9L3 8ZM49 8L49 9L53 9L53 8ZM2 9L2 10L3 10L3 9ZM55 10L55 11L56 11L56 10ZM32 11L32 13L31 13L31 16L32 16L32 13L33 13L33 15L34 15L34 17L35 17L35 15L36 15L36 14L37 14L37 15L38 15L38 13L37 13L37 12L36 12L36 14L35 14L35 15L34 15L34 13L35 13L35 12L34 12L34 11ZM41 11L41 12L42 12L42 11ZM4 13L4 14L7 14L7 13ZM39 13L39 14L40 14L40 13ZM51 14L51 15L50 15L50 16L51 16L51 15L52 15L52 14ZM5 16L5 17L6 17L6 18L7 18L7 19L8 19L8 20L10 20L10 18L9 18L9 19L8 19L8 18L7 18L7 17L6 17L6 16ZM13 16L13 17L14 17L14 18L15 18L15 17L14 17L14 16ZM0 17L0 19L1 19L1 20L0 20L0 21L1 21L1 20L3 20L3 19L2 19L2 17ZM20 17L20 18L21 18L21 17ZM12 18L12 20L13 20L13 18ZM18 18L18 19L19 19L19 21L18 21L18 20L17 20L17 22L16 22L16 23L17 23L17 25L16 25L16 24L14 24L14 22L15 22L15 21L14 21L14 22L13 22L13 21L9 21L9 22L8 22L8 23L9 23L9 22L11 22L11 25L10 25L10 24L8 24L8 26L9 26L9 31L10 31L10 32L9 32L9 33L8 33L8 31L4 31L4 32L3 32L3 33L2 33L2 35L3 35L3 36L2 36L2 37L4 37L4 35L3 35L3 34L4 34L4 33L5 33L5 34L9 34L9 35L10 35L10 36L9 36L9 37L10 37L10 36L11 36L11 37L12 37L12 38L13 38L13 40L14 40L14 41L16 41L16 42L12 42L12 40L11 40L11 38L10 38L10 41L11 41L11 42L12 42L12 44L11 44L11 45L10 45L10 44L7 44L7 43L5 43L5 42L4 42L4 43L3 43L3 39L5 39L5 38L7 38L7 39L6 39L6 40L7 40L7 41L6 41L6 42L7 42L7 41L8 41L8 42L9 42L9 39L8 39L8 38L7 38L7 37L6 37L6 36L8 36L8 35L5 35L5 38L2 38L2 40L1 40L1 41L2 41L2 42L1 42L1 43L3 43L3 44L4 44L4 45L3 45L3 47L5 47L5 44L7 44L7 45L6 45L6 46L7 46L7 47L8 47L8 46L9 46L9 47L10 47L10 46L15 46L15 47L13 47L13 48L15 48L15 49L16 49L16 48L17 48L17 47L16 47L16 46L17 46L17 45L16 45L16 42L17 42L17 41L18 41L18 40L19 40L19 39L18 39L18 40L17 40L17 39L16 39L16 38L19 38L19 37L18 37L18 34L19 34L19 35L20 35L20 36L21 36L21 38L20 38L20 39L21 39L21 38L22 38L22 35L20 35L20 34L23 34L23 33L22 33L22 30L23 30L23 31L25 31L25 32L24 32L24 34L26 34L26 35L28 35L28 34L29 34L29 31L28 31L28 32L27 32L27 33L28 33L28 34L26 34L26 33L25 33L25 32L26 32L26 30L25 30L25 29L24 29L24 28L25 28L25 25L24 25L24 27L22 27L22 28L23 28L23 29L22 29L22 30L21 30L21 28L18 28L18 27L20 27L20 26L21 26L21 23L20 23L20 22L22 22L22 24L23 24L23 21L22 21L22 20L23 20L23 19L22 19L22 20L21 20L21 19L19 19L19 18ZM48 18L48 19L46 19L46 21L47 21L47 22L48 22L48 24L47 24L47 23L46 23L46 25L45 25L45 24L44 24L44 25L43 25L43 27L41 27L41 28L40 28L40 29L41 29L41 30L40 30L40 31L38 31L38 30L37 30L37 31L36 31L36 33L37 33L37 34L38 34L38 35L36 35L36 37L35 37L35 38L34 38L34 41L33 41L33 40L32 40L32 43L31 43L31 42L30 42L30 43L31 43L31 44L32 44L32 45L31 45L31 46L32 46L32 45L33 45L33 44L35 44L35 43L36 43L36 41L37 41L37 42L38 42L38 41L39 41L39 38L40 38L40 39L42 39L42 36L43 36L43 35L40 35L40 36L39 36L39 38L38 38L38 37L37 37L37 36L38 36L38 35L39 35L39 34L38 34L38 33L39 33L39 32L40 32L40 34L42 34L42 33L43 33L43 34L44 34L44 38L43 38L43 40L42 40L42 41L41 41L41 40L40 40L40 42L39 42L39 43L37 43L37 44L36 44L36 45L35 45L35 47L37 47L37 46L38 46L38 45L37 45L37 44L40 44L40 45L39 45L39 46L40 46L40 45L41 45L41 47L40 47L40 49L41 49L41 51L42 51L42 53L43 53L43 52L44 52L44 55L45 55L45 54L46 54L46 52L47 52L47 51L46 51L46 52L45 52L45 50L42 50L42 49L41 49L41 47L42 47L42 45L43 45L43 44L44 44L44 43L45 43L45 42L46 42L46 41L48 41L48 40L49 40L49 39L48 39L48 40L47 40L47 38L48 38L48 37L49 37L49 33L50 33L50 32L51 32L51 31L53 31L53 33L54 33L54 31L53 31L53 28L54 28L54 27L55 27L55 26L54 26L54 25L55 25L55 24L54 24L54 23L52 23L52 22L51 22L51 23L52 23L52 25L51 25L51 24L50 24L50 25L49 25L49 23L50 23L50 22L48 22L48 21L49 21L49 20L51 20L51 19L52 19L52 18L50 18L50 19L49 19L49 18ZM14 19L14 20L15 20L15 19ZM24 19L24 20L25 20L25 19ZM44 19L44 21L43 21L43 22L44 22L44 23L45 23L45 22L44 22L44 21L45 21L45 19ZM20 20L20 21L21 21L21 20ZM47 20L47 21L48 21L48 20ZM35 21L35 22L36 22L36 21ZM17 22L17 23L18 23L18 25L17 25L17 26L18 26L18 25L19 25L19 23L18 23L18 22ZM24 22L24 23L25 23L25 22ZM28 22L28 23L29 23L29 22ZM12 23L12 25L13 25L13 28L12 28L12 26L11 26L11 27L10 27L10 28L11 28L11 30L13 30L13 32L12 32L12 31L11 31L11 32L12 32L12 33L11 33L11 34L10 34L10 35L11 35L11 36L12 36L12 37L14 37L14 33L15 33L15 35L16 35L16 37L17 37L17 34L18 34L18 33L19 33L19 34L20 34L20 33L19 33L19 32L18 32L18 33L17 33L17 32L16 32L16 31L18 31L18 30L14 30L14 29L15 29L15 28L16 28L16 27L15 27L15 26L16 26L16 25L14 25L14 24L13 24L13 23ZM0 24L0 26L1 26L1 24ZM28 24L28 25L29 25L29 24ZM30 24L30 25L31 25L31 24ZM53 24L53 25L52 25L52 26L53 26L53 25L54 25L54 24ZM5 25L5 26L7 26L7 25ZM46 25L46 26L47 26L47 27L48 27L48 26L49 26L49 25L48 25L48 26L47 26L47 25ZM50 25L50 26L51 26L51 25ZM5 27L5 30L8 30L8 27ZM14 27L14 28L13 28L13 29L14 29L14 28L15 28L15 27ZM27 27L27 30L30 30L30 27ZM34 27L34 29L35 29L35 27ZM49 27L49 30L52 30L52 27ZM6 28L6 29L7 29L7 28ZM28 28L28 29L29 29L29 28ZM32 28L32 29L33 29L33 28ZM42 28L42 31L40 31L40 32L41 32L41 33L42 33L42 31L44 31L44 30L46 30L46 32L47 32L47 30L48 30L48 29L47 29L47 28L46 28L46 29L44 29L44 30L43 30L43 28ZM50 28L50 29L51 29L51 28ZM19 29L19 31L21 31L21 30L20 30L20 29ZM23 29L23 30L24 30L24 29ZM14 31L14 32L13 32L13 33L12 33L12 34L11 34L11 35L13 35L13 33L14 33L14 32L15 32L15 31ZM37 31L37 32L38 32L38 31ZM49 31L49 32L50 32L50 31ZM5 32L5 33L7 33L7 32ZM16 33L16 34L17 34L17 33ZM44 33L44 34L45 34L45 33ZM46 33L46 34L48 34L48 33ZM53 34L53 36L52 36L52 37L53 37L53 36L54 36L54 34ZM45 35L45 37L46 37L46 38L45 38L45 39L46 39L46 38L47 38L47 37L46 37L46 36L47 36L47 35ZM31 36L31 37L32 37L32 36ZM36 37L36 38L35 38L35 41L34 41L34 42L35 42L35 41L36 41L36 38L37 38L37 37ZM24 38L24 39L25 39L25 38ZM28 38L28 39L29 39L29 38ZM14 39L14 40L15 40L15 39ZM37 39L37 41L38 41L38 39ZM4 40L4 41L5 41L5 40ZM16 40L16 41L17 41L17 40ZM45 40L45 41L44 41L44 42L43 42L43 41L42 41L42 42L43 42L43 43L41 43L41 42L40 42L40 44L41 44L41 45L42 45L42 44L43 44L43 43L44 43L44 42L45 42L45 41L46 41L46 40ZM51 40L51 41L49 41L49 42L50 42L50 44L52 44L52 45L53 45L53 44L52 44L52 40ZM14 43L14 45L15 45L15 46L16 46L16 45L15 45L15 43ZM12 44L12 45L13 45L13 44ZM24 44L24 46L26 46L26 45L25 45L25 44ZM27 44L27 45L28 45L28 44ZM7 45L7 46L8 46L8 45ZM9 45L9 46L10 46L10 45ZM18 45L18 46L19 46L19 45ZM11 47L11 48L12 48L12 47ZM15 47L15 48L16 48L16 47ZM18 47L18 48L19 48L19 47ZM10 49L10 52L11 52L11 50L14 50L14 49ZM27 49L27 52L30 52L30 49ZM33 49L33 50L34 50L34 51L35 51L35 50L34 50L34 49ZM49 49L49 52L52 52L52 49ZM28 50L28 51L29 51L29 50ZM50 50L50 51L51 51L51 50ZM22 51L22 52L21 52L21 53L22 53L22 52L24 52L24 51ZM25 51L25 54L24 54L24 55L26 55L26 56L27 56L27 55L28 55L28 53L27 53L27 54L26 54L26 51ZM31 53L31 54L30 54L30 55L33 55L33 54L32 54L32 53ZM8 54L8 57L10 57L10 56L11 56L11 55L10 55L10 56L9 56L9 54ZM13 54L13 56L14 56L14 55L15 55L15 54ZM16 54L16 55L18 55L18 54ZM40 54L40 55L41 55L41 54ZM55 54L55 55L57 55L57 54ZM36 56L36 57L37 57L37 56ZM56 56L56 57L57 57L57 56ZM0 0L0 7L7 7L7 0ZM1 1L1 6L6 6L6 1ZM2 2L2 5L5 5L5 2ZM50 0L50 7L57 7L57 0ZM51 1L51 6L56 6L56 1ZM52 2L52 5L55 5L55 2ZM0 50L0 57L7 57L7 50ZM1 51L1 56L6 56L6 51ZM2 52L2 55L5 55L5 52Z" fill="#000000"/></g></g></svg>
