<?xml version="1.0" encoding="UTF-8"?>
<svg xmlns="http://www.w3.org/2000/svg" version="1.1" width="300" height="300" viewBox="0 0 300 300"><rect x="0" y="0" width="300" height="300" fill="#fefefe"/><g transform="scale(4.615)"><g transform="translate(4,4)"><path fill-rule="evenodd" d="M9 0L9 1L8 1L8 2L9 2L9 3L8 3L8 4L10 4L10 5L8 5L8 7L9 7L9 6L10 6L10 8L12 8L12 9L14 9L14 8L13 8L13 4L14 4L14 2L15 2L15 3L17 3L17 2L18 2L18 4L17 4L17 6L16 6L16 7L15 7L15 5L16 5L16 4L15 4L15 5L14 5L14 7L15 7L15 8L16 8L16 9L17 9L17 10L16 10L16 11L15 11L15 10L13 10L13 11L14 11L14 12L11 12L11 9L9 9L9 8L6 8L6 9L7 9L7 10L6 10L6 11L5 11L5 12L6 12L6 13L9 13L9 14L5 14L5 13L4 13L4 11L3 11L3 12L1 12L1 13L0 13L0 14L2 14L2 13L4 13L4 14L3 14L3 16L4 16L4 14L5 14L5 15L8 15L8 16L6 16L6 17L5 17L5 18L6 18L6 19L5 19L5 20L4 20L4 19L3 19L3 17L2 17L2 16L0 16L0 17L2 17L2 18L1 18L1 19L0 19L0 20L1 20L1 19L3 19L3 20L2 20L2 21L0 21L0 26L1 26L1 25L2 25L2 26L4 26L4 27L1 27L1 28L0 28L0 30L3 30L3 29L2 29L2 28L4 28L4 31L8 31L8 34L9 34L9 33L12 33L12 31L11 31L11 30L12 30L12 29L10 29L10 28L11 28L11 26L12 26L12 27L13 27L13 29L14 29L14 31L15 31L15 32L13 32L13 33L16 33L16 32L18 32L18 33L17 33L17 34L18 34L18 33L19 33L19 34L20 34L20 35L17 35L17 36L18 36L18 37L17 37L17 38L18 38L18 37L19 37L19 38L20 38L20 39L19 39L19 40L17 40L17 41L19 41L19 42L18 42L18 43L17 43L17 42L15 42L15 44L16 44L16 45L17 45L17 46L15 46L15 45L14 45L14 46L15 46L15 47L14 47L14 48L17 48L17 50L13 50L13 51L17 51L17 50L18 50L18 52L17 52L17 53L16 53L16 52L14 52L14 53L13 53L13 52L12 52L12 51L11 51L11 54L10 54L10 55L9 55L9 53L10 53L10 51L9 51L9 49L8 49L8 48L10 48L10 50L12 50L12 49L13 49L13 48L12 48L12 47L10 47L10 46L9 46L9 47L8 47L8 46L6 46L6 45L9 45L9 44L8 44L8 43L10 43L10 41L11 41L11 43L12 43L12 44L14 44L14 43L13 43L13 42L14 42L14 41L16 41L16 39L15 39L15 40L14 40L14 37L13 37L13 36L12 36L12 35L11 35L11 34L10 34L10 35L11 35L11 36L12 36L12 37L13 37L13 39L12 39L12 38L11 38L11 37L8 37L8 38L6 38L6 39L7 39L7 40L6 40L6 41L7 41L7 42L6 42L6 43L5 43L5 42L4 42L4 41L5 41L5 39L4 39L4 37L5 37L5 36L6 36L6 37L7 37L7 36L6 36L6 35L7 35L7 34L6 34L6 35L4 35L4 37L2 37L2 36L3 36L3 35L1 35L1 33L5 33L5 32L2 32L2 31L0 31L0 36L1 36L1 37L0 37L0 39L1 39L1 40L2 40L2 41L3 41L3 43L2 43L2 44L0 44L0 45L3 45L3 46L2 46L2 47L1 47L1 46L0 46L0 48L5 48L5 47L8 47L8 48L6 48L6 49L8 49L8 51L9 51L9 52L8 52L8 57L9 57L9 56L10 56L10 57L11 57L11 56L12 56L12 57L13 57L13 55L14 55L14 53L16 53L16 54L15 54L15 55L16 55L16 56L17 56L17 57L20 57L20 56L19 56L19 55L20 55L20 54L19 54L19 53L20 53L20 52L23 52L23 51L22 51L22 50L25 50L25 49L26 49L26 52L24 52L24 53L23 53L23 54L21 54L21 55L23 55L23 57L26 57L26 56L27 56L27 57L29 57L29 56L30 56L30 57L31 57L31 56L35 56L35 57L39 57L39 56L37 56L37 54L38 54L38 55L41 55L41 54L42 54L42 55L44 55L44 56L43 56L43 57L44 57L44 56L45 56L45 57L47 57L47 56L50 56L50 57L52 57L52 55L51 55L51 53L52 53L52 54L53 54L53 55L54 55L54 56L53 56L53 57L54 57L54 56L55 56L55 57L56 57L56 56L55 56L55 55L54 55L54 54L55 54L55 52L56 52L56 49L57 49L57 48L56 48L56 46L57 46L57 45L56 45L56 44L55 44L55 43L56 43L56 41L53 41L53 40L55 40L55 39L57 39L57 36L56 36L56 37L55 37L55 35L56 35L56 34L55 34L55 32L56 32L56 33L57 33L57 32L56 32L56 30L57 30L57 29L55 29L55 31L53 31L53 30L54 30L54 28L56 28L56 27L55 27L55 26L57 26L57 25L56 25L56 22L57 22L57 21L56 21L56 20L57 20L57 19L56 19L56 18L57 18L57 17L56 17L56 16L57 16L57 15L56 15L56 14L57 14L57 13L56 13L56 14L54 14L54 12L55 12L55 11L56 11L56 12L57 12L57 11L56 11L56 10L54 10L54 11L53 11L53 9L54 9L54 8L53 8L53 9L52 9L52 8L51 8L51 11L50 11L50 8L49 8L49 9L48 9L48 8L47 8L47 5L48 5L48 0L46 0L46 1L45 1L45 2L44 2L44 3L43 3L43 4L40 4L40 5L39 5L39 6L38 6L38 8L35 8L35 5L36 5L36 7L37 7L37 5L38 5L38 4L37 4L37 3L41 3L41 2L43 2L43 0L41 0L41 1L40 1L40 0L39 0L39 1L38 1L38 0L37 0L37 1L38 1L38 2L37 2L37 3L36 3L36 0L35 0L35 1L33 1L33 2L32 2L32 3L31 3L31 2L29 2L29 4L26 4L26 3L23 3L23 2L25 2L25 1L26 1L26 2L27 2L27 3L28 3L28 1L32 1L32 0L27 0L27 1L26 1L26 0L23 0L23 2L22 2L22 3L23 3L23 4L19 4L19 3L20 3L20 0L18 0L18 1L15 1L15 0L14 0L14 2L13 2L13 0L12 0L12 2L13 2L13 4L12 4L12 3L10 3L10 2L9 2L9 1L11 1L11 0ZM21 0L21 1L22 1L22 0ZM46 1L46 2L47 2L47 1ZM30 3L30 4L31 4L31 8L32 8L32 10L31 10L31 11L29 11L29 9L28 9L28 10L27 10L27 11L26 11L26 12L25 12L25 10L23 10L23 11L24 11L24 12L25 12L25 14L24 14L24 15L21 15L21 13L22 13L22 14L23 14L23 13L22 13L22 12L21 12L21 11L22 11L22 10L21 10L21 9L24 9L24 6L23 6L23 5L24 5L24 4L23 4L23 5L21 5L21 7L22 7L22 8L19 8L19 7L20 7L20 5L19 5L19 4L18 4L18 6L17 6L17 7L16 7L16 8L19 8L19 9L20 9L20 10L19 10L19 12L20 12L20 16L19 16L19 15L17 15L17 13L18 13L18 12L17 12L17 11L18 11L18 10L17 10L17 11L16 11L16 12L15 12L15 13L11 13L11 12L10 12L10 14L9 14L9 15L10 15L10 17L11 17L11 18L9 18L9 19L12 19L12 18L13 18L13 19L14 19L14 20L12 20L12 21L11 21L11 20L9 20L9 21L8 21L8 20L7 20L7 19L8 19L8 17L6 17L6 18L7 18L7 19L6 19L6 20L7 20L7 21L6 21L6 22L1 22L1 23L3 23L3 24L2 24L2 25L4 25L4 26L5 26L5 25L6 25L6 26L7 26L7 25L8 25L8 26L9 26L9 27L10 27L10 26L11 26L11 24L12 24L12 26L14 26L14 24L16 24L16 23L14 23L14 24L13 24L13 22L12 22L12 21L14 21L14 22L16 22L16 21L17 21L17 22L18 22L18 21L17 21L17 20L18 20L18 18L19 18L19 17L20 17L20 19L19 19L19 20L20 20L20 21L19 21L19 22L20 22L20 23L19 23L19 24L21 24L21 25L19 25L19 26L18 26L18 27L17 27L17 25L15 25L15 26L16 26L16 27L15 27L15 28L14 28L14 29L16 29L16 30L18 30L18 32L20 32L20 34L21 34L21 36L19 36L19 37L23 37L23 38L24 38L24 37L23 37L23 36L24 36L24 34L23 34L23 33L25 33L25 35L26 35L26 36L25 36L25 40L24 40L24 39L23 39L23 40L19 40L19 41L20 41L20 42L19 42L19 43L20 43L20 46L19 46L19 47L20 47L20 48L19 48L19 49L20 49L20 50L19 50L19 51L20 51L20 50L21 50L21 49L23 49L23 48L24 48L24 49L25 49L25 48L30 48L30 47L29 47L29 44L32 44L32 45L31 45L31 47L32 47L32 46L35 46L35 45L34 45L34 43L35 43L35 44L36 44L36 43L37 43L37 42L35 42L35 40L38 40L38 42L39 42L39 45L38 45L38 46L39 46L39 47L38 47L38 48L37 48L37 49L38 49L38 50L36 50L36 49L35 49L35 48L36 48L36 47L37 47L37 46L36 46L36 47L35 47L35 48L34 48L34 47L33 47L33 48L31 48L31 50L32 50L32 51L31 51L31 53L30 53L30 54L27 54L27 53L26 53L26 55L27 55L27 56L29 56L29 55L30 55L30 56L31 56L31 54L32 54L32 53L33 53L33 54L35 54L35 56L36 56L36 54L35 54L35 53L33 53L33 52L32 52L32 51L33 51L33 50L34 50L34 51L35 51L35 50L36 50L36 52L37 52L37 53L38 53L38 54L40 54L40 53L41 53L41 52L42 52L42 50L41 50L41 48L42 48L42 49L43 49L43 48L44 48L44 51L47 51L47 53L45 53L45 52L44 52L44 53L43 53L43 54L44 54L44 55L47 55L47 53L48 53L48 50L47 50L47 49L48 49L48 48L49 48L49 47L48 47L48 48L47 48L47 47L46 47L46 48L45 48L45 46L48 46L48 45L50 45L50 48L53 48L53 47L54 47L54 46L53 46L53 43L54 43L54 42L53 42L53 41L51 41L51 42L50 42L50 43L49 43L49 42L48 42L48 41L49 41L49 40L50 40L50 39L51 39L51 40L53 40L53 39L54 39L54 38L53 38L53 35L55 35L55 34L54 34L54 32L53 32L53 33L52 33L52 31L51 31L51 33L52 33L52 34L50 34L50 32L49 32L49 31L48 31L48 29L46 29L46 30L47 30L47 31L45 31L45 32L43 32L43 31L44 31L44 29L45 29L45 28L46 28L46 27L48 27L48 25L49 25L49 26L53 26L53 27L54 27L54 26L53 26L53 25L54 25L54 24L53 24L53 23L55 23L55 22L56 22L56 21L55 21L55 20L56 20L56 19L55 19L55 20L53 20L53 19L52 19L52 20L51 20L51 21L49 21L49 20L48 20L48 21L49 21L49 23L48 23L48 25L47 25L47 23L45 23L45 22L47 22L47 21L45 21L45 20L46 20L46 18L47 18L47 19L48 19L48 18L47 18L47 17L49 17L49 15L50 15L50 16L51 16L51 17L50 17L50 18L49 18L49 19L51 19L51 17L53 17L53 18L56 18L56 17L54 17L54 16L53 16L53 15L50 15L50 14L51 14L51 12L50 12L50 11L49 11L49 10L47 10L47 9L46 9L46 8L45 8L45 7L46 7L46 6L45 6L45 4L46 4L46 5L47 5L47 3L44 3L44 6L43 6L43 8L42 8L42 9L43 9L43 10L44 10L44 9L46 9L46 10L45 10L45 11L44 11L44 13L45 13L45 14L47 14L47 13L49 13L49 12L50 12L50 14L49 14L49 15L48 15L48 16L47 16L47 15L46 15L46 18L45 18L45 15L44 15L44 14L41 14L41 16L39 16L39 15L40 15L40 14L39 14L39 13L43 13L43 11L42 11L42 10L41 10L41 12L39 12L39 13L38 13L38 14L36 14L36 15L35 15L35 16L31 16L31 18L30 18L30 19L31 19L31 18L32 18L32 19L33 19L33 20L32 20L32 21L31 21L31 20L30 20L30 21L29 21L29 19L28 19L28 18L26 18L26 16L27 16L27 17L28 17L28 16L29 16L29 14L30 14L30 15L32 15L32 13L33 13L33 14L35 14L35 11L36 11L36 10L37 10L37 9L35 9L35 8L34 8L34 9L33 9L33 7L34 7L34 5L35 5L35 3L32 3L32 4L31 4L31 3ZM25 4L25 8L26 8L26 4ZM32 4L32 5L34 5L34 4ZM36 4L36 5L37 5L37 4ZM11 5L11 7L12 7L12 5ZM27 5L27 8L30 8L30 5ZM40 5L40 6L39 6L39 8L38 8L38 11L39 11L39 10L40 10L40 9L41 9L41 7L42 7L42 5ZM18 6L18 7L19 7L19 6ZM22 6L22 7L23 7L23 6ZM28 6L28 7L29 7L29 6ZM32 6L32 7L33 7L33 6ZM40 6L40 7L41 7L41 6ZM44 6L44 7L45 7L45 6ZM48 6L48 7L49 7L49 6ZM0 8L0 9L1 9L1 10L0 10L0 11L1 11L1 10L4 10L4 9L5 9L5 8ZM43 8L43 9L44 9L44 8ZM55 8L55 9L56 9L56 8ZM7 10L7 11L6 11L6 12L7 12L7 11L8 11L8 10ZM32 10L32 11L33 11L33 10ZM46 10L46 11L45 11L45 12L47 12L47 10ZM27 11L27 12L26 12L26 15L24 15L24 16L26 16L26 15L27 15L27 16L28 16L28 15L27 15L27 13L28 13L28 14L29 14L29 13L28 13L28 12L29 12L29 11ZM48 11L48 12L49 12L49 11ZM16 12L16 13L15 13L15 14L12 14L12 15L11 15L11 16L12 16L12 15L13 15L13 17L14 17L14 15L15 15L15 16L16 16L16 13L17 13L17 12ZM31 12L31 13L30 13L30 14L31 14L31 13L32 13L32 12ZM33 12L33 13L34 13L34 12ZM52 12L52 13L53 13L53 12ZM38 14L38 15L39 15L39 14ZM42 15L42 16L41 16L41 17L39 17L39 16L38 16L38 17L37 17L37 16L35 16L35 17L37 17L37 18L38 18L38 17L39 17L39 19L37 19L37 20L36 20L36 19L35 19L35 23L34 23L34 22L33 22L33 23L32 23L32 24L29 24L29 23L30 23L30 22L31 22L31 21L30 21L30 22L28 22L28 24L29 24L29 25L30 25L30 26L26 26L26 25L25 25L25 24L27 24L27 21L25 21L25 20L26 20L26 18L25 18L25 17L22 17L22 16L20 16L20 17L22 17L22 18L24 18L24 19L23 19L23 20L24 20L24 21L23 21L23 22L24 22L24 21L25 21L25 22L26 22L26 23L25 23L25 24L24 24L24 23L23 23L23 24L24 24L24 25L21 25L21 27L20 27L20 26L19 26L19 27L20 27L20 28L19 28L19 29L18 29L18 28L16 28L16 29L18 29L18 30L20 30L20 31L21 31L21 32L23 32L23 31L24 31L24 32L25 32L25 31L26 31L26 35L27 35L27 31L29 31L29 32L28 32L28 33L29 33L29 34L30 34L30 36L29 36L29 37L31 37L31 38L29 38L29 39L33 39L33 40L35 40L35 39L37 39L37 38L38 38L38 40L39 40L39 38L38 38L38 37L40 37L40 38L41 38L41 41L40 41L40 42L41 42L41 43L42 43L42 44L41 44L41 46L40 46L40 47L39 47L39 48L38 48L38 49L39 49L39 48L41 48L41 46L43 46L43 47L42 47L42 48L43 48L43 47L44 47L44 46L45 46L45 45L47 45L47 43L48 43L48 42L45 42L45 41L43 41L43 40L45 40L45 39L43 39L43 40L42 40L42 38L43 38L43 37L44 37L44 38L45 38L45 37L46 37L46 36L47 36L47 35L44 35L44 33L43 33L43 32L41 32L41 33L39 33L39 34L40 34L40 35L38 35L38 33L37 33L37 32L35 32L35 31L36 31L36 30L37 30L37 29L38 29L38 28L40 28L40 27L37 27L37 28L35 28L35 27L36 27L36 26L34 26L34 27L33 27L33 26L32 26L32 24L33 24L33 25L37 25L37 26L38 26L38 25L39 25L39 26L43 26L43 25L44 25L44 24L43 24L43 23L44 23L44 20L45 20L45 18L44 18L44 15ZM17 16L17 17L19 17L19 16ZM42 16L42 17L43 17L43 16ZM32 17L32 18L33 18L33 17ZM15 18L15 21L16 21L16 20L17 20L17 18ZM41 18L41 19L42 19L42 18ZM43 18L43 20L42 20L42 21L43 21L43 20L44 20L44 18ZM21 19L21 20L22 20L22 19ZM37 20L37 21L38 21L38 22L37 22L37 24L39 24L39 25L43 25L43 24L39 24L39 23L40 23L40 22L39 22L39 21L41 21L41 20L39 20L39 21L38 21L38 20ZM7 21L7 22L6 22L6 23L5 23L5 24L4 24L4 25L5 25L5 24L6 24L6 25L7 25L7 24L8 24L8 25L9 25L9 26L10 26L10 25L9 25L9 24L10 24L10 22L8 22L8 21ZM21 21L21 22L22 22L22 21ZM51 21L51 22L50 22L50 23L49 23L49 25L50 25L50 23L53 23L53 22L54 22L54 21ZM7 22L7 23L6 23L6 24L7 24L7 23L8 23L8 24L9 24L9 23L8 23L8 22ZM11 22L11 23L12 23L12 22ZM38 22L38 23L39 23L39 22ZM41 22L41 23L42 23L42 22ZM17 23L17 24L18 24L18 23ZM21 23L21 24L22 24L22 23ZM22 26L22 27L21 27L21 28L20 28L20 30L21 30L21 31L23 31L23 27L24 27L24 26ZM25 26L25 27L26 27L26 26ZM31 26L31 27L32 27L32 30L35 30L35 28L33 28L33 27L32 27L32 26ZM45 26L45 27L44 27L44 28L43 28L43 29L41 29L41 30L43 30L43 29L44 29L44 28L45 28L45 27L46 27L46 26ZM5 27L5 30L8 30L8 27ZM27 27L27 30L30 30L30 27ZM41 27L41 28L42 28L42 27ZM49 27L49 30L52 30L52 27ZM6 28L6 29L7 29L7 28ZM21 28L21 29L22 29L22 28ZM25 28L25 29L26 29L26 28ZM28 28L28 29L29 29L29 28ZM50 28L50 29L51 29L51 28ZM9 29L9 30L10 30L10 29ZM39 29L39 30L38 30L38 32L39 32L39 30L40 30L40 29ZM9 31L9 32L10 32L10 31ZM30 31L30 32L29 32L29 33L31 33L31 35L33 35L33 36L32 36L32 37L33 37L33 39L34 39L34 38L35 38L35 36L37 36L37 37L38 37L38 35L37 35L37 34L35 34L35 32L33 32L33 31L32 31L32 33L31 33L31 31ZM47 31L47 32L48 32L48 33L49 33L49 32L48 32L48 31ZM6 32L6 33L7 33L7 32ZM45 32L45 33L46 33L46 32ZM21 33L21 34L22 34L22 36L23 36L23 34L22 34L22 33ZM13 34L13 35L14 35L14 36L15 36L15 35L14 35L14 34ZM33 34L33 35L34 35L34 36L35 36L35 34ZM42 34L42 35L43 35L43 36L44 36L44 37L45 37L45 36L44 36L44 35L43 35L43 34ZM49 34L49 35L50 35L50 36L48 36L48 37L47 37L47 39L46 39L46 40L47 40L47 39L50 39L50 38L51 38L51 37L50 37L50 36L52 36L52 35L53 35L53 34L52 34L52 35L50 35L50 34ZM8 35L8 36L9 36L9 35ZM26 36L26 39L27 39L27 41L26 41L26 42L27 42L27 43L25 43L25 41L24 41L24 40L23 40L23 41L24 41L24 42L22 42L22 43L21 43L21 44L22 44L22 45L21 45L21 47L23 47L23 46L25 46L25 44L27 44L27 43L28 43L28 44L29 44L29 43L32 43L32 44L33 44L33 43L34 43L34 42L33 42L33 41L32 41L32 40L30 40L30 42L27 42L27 41L29 41L29 40L28 40L28 39L27 39L27 38L28 38L28 37L27 37L27 36ZM40 36L40 37L41 37L41 38L42 38L42 37L41 37L41 36ZM15 37L15 38L16 38L16 37ZM49 37L49 38L50 38L50 37ZM1 38L1 39L2 39L2 38ZM8 38L8 39L9 39L9 40L7 40L7 41L8 41L8 42L7 42L7 43L6 43L6 44L7 44L7 43L8 43L8 42L9 42L9 40L11 40L11 38ZM3 40L3 41L4 41L4 40ZM13 40L13 41L14 41L14 40ZM0 41L0 42L1 42L1 41ZM31 41L31 42L32 42L32 43L33 43L33 42L32 42L32 41ZM43 42L43 44L44 44L44 45L45 45L45 44L46 44L46 43L45 43L45 42ZM51 42L51 43L50 43L50 45L52 45L52 44L51 44L51 43L53 43L53 42ZM3 43L3 44L4 44L4 45L5 45L5 44L4 44L4 43ZM17 44L17 45L18 45L18 44ZM54 44L54 45L55 45L55 46L56 46L56 45L55 45L55 44ZM22 45L22 46L23 46L23 45ZM26 45L26 47L27 47L27 45ZM3 46L3 47L5 47L5 46ZM17 46L17 47L18 47L18 46ZM51 46L51 47L53 47L53 46ZM24 47L24 48L25 48L25 47ZM33 48L33 49L32 49L32 50L33 50L33 49L34 49L34 48ZM55 48L55 49L56 49L56 48ZM27 49L27 52L30 52L30 49ZM49 49L49 52L52 52L52 49ZM28 50L28 51L29 51L29 50ZM38 50L38 52L39 52L39 51L40 51L40 52L41 52L41 50ZM50 50L50 51L51 51L51 50ZM54 50L54 51L55 51L55 50ZM53 52L53 53L54 53L54 52ZM24 53L24 54L23 54L23 55L24 55L24 56L25 56L25 53ZM44 53L44 54L45 54L45 53ZM11 54L11 55L13 55L13 54ZM17 54L17 55L19 55L19 54ZM50 55L50 56L51 56L51 55ZM0 0L0 7L7 7L7 0ZM1 1L1 6L6 6L6 1ZM2 2L2 5L5 5L5 2ZM50 0L50 7L57 7L57 0ZM51 1L51 6L56 6L56 1ZM52 2L52 5L55 5L55 2ZM0 50L0 57L7 57L7 50ZM1 51L1 56L6 56L6 51ZM2 52L2 55L5 55L5 52Z" fill="#000000"/></g></g></svg>
