<?xml version="1.0" encoding="UTF-8"?>
<svg xmlns="http://www.w3.org/2000/svg" version="1.1" width="300" height="300" viewBox="0 0 300 300"><rect x="0" y="0" width="300" height="300" fill="#fefefe"/><g transform="scale(4.615)"><g transform="translate(4,4)"><path fill-rule="evenodd" d="M8 0L8 1L9 1L9 0ZM10 0L10 2L8 2L8 5L9 5L9 6L8 6L8 7L9 7L9 6L10 6L10 8L14 8L14 7L15 7L15 6L16 6L16 7L17 7L17 9L18 9L18 10L17 10L17 12L16 12L16 10L15 10L15 11L14 11L14 9L11 9L11 10L12 10L12 11L13 11L13 12L12 12L12 13L11 13L11 12L10 12L10 10L9 10L9 8L8 8L8 10L9 10L9 12L10 12L10 13L8 13L8 12L6 12L6 13L7 13L7 14L6 14L6 15L7 15L7 14L8 14L8 16L6 16L6 17L7 17L7 18L6 18L6 19L7 19L7 20L5 20L5 22L4 22L4 20L3 20L3 19L2 19L2 18L1 18L1 17L0 17L0 18L1 18L1 20L0 20L0 22L1 22L1 23L0 23L0 24L1 24L1 25L2 25L2 26L0 26L0 27L1 27L1 28L0 28L0 29L2 29L2 31L3 31L3 32L2 32L2 33L3 33L3 32L4 32L4 33L8 33L8 35L7 35L7 34L6 34L6 35L7 35L7 36L5 36L5 38L4 38L4 35L5 35L5 34L4 34L4 35L3 35L3 34L2 34L2 35L1 35L1 33L0 33L0 35L1 35L1 36L3 36L3 37L1 37L1 38L0 38L0 39L1 39L1 40L3 40L3 43L2 43L2 42L1 42L1 41L0 41L0 42L1 42L1 45L0 45L0 48L5 48L5 47L7 47L7 46L8 46L8 47L9 47L9 48L6 48L6 49L8 49L8 50L9 50L9 52L10 52L10 51L11 51L11 52L14 52L14 55L13 55L13 53L11 53L11 54L10 54L10 55L11 55L11 56L9 56L9 53L8 53L8 57L11 57L11 56L12 56L12 57L13 57L13 56L14 56L14 57L18 57L18 56L19 56L19 57L20 57L20 56L21 56L21 57L23 57L23 56L22 56L22 55L23 55L23 54L25 54L25 55L24 55L24 57L25 57L25 55L26 55L26 56L28 56L28 55L26 55L26 54L27 54L27 53L29 53L29 54L31 54L31 55L30 55L30 56L31 56L31 57L32 57L32 55L34 55L34 56L33 56L33 57L36 57L36 55L38 55L38 57L42 57L42 56L43 56L43 55L44 55L44 56L45 56L45 55L44 55L44 54L47 54L47 56L48 56L48 57L51 57L51 54L52 54L52 53L53 53L53 56L52 56L52 57L55 57L55 56L54 56L54 55L55 55L55 54L56 54L56 53L57 53L57 52L55 52L55 50L53 50L53 48L54 48L54 49L55 49L55 48L54 48L54 47L53 47L53 46L54 46L54 45L56 45L56 46L55 46L55 47L57 47L57 45L56 45L56 44L53 44L53 46L52 46L52 47L51 47L51 46L49 46L49 47L47 47L47 46L48 46L48 45L49 45L49 43L50 43L50 42L51 42L51 44L52 44L52 43L53 43L53 42L54 42L54 43L56 43L56 42L54 42L54 40L55 40L55 39L53 39L53 38L52 38L52 37L49 37L49 36L51 36L51 35L52 35L52 36L53 36L53 37L55 37L55 38L56 38L56 39L57 39L57 38L56 38L56 36L54 36L54 35L57 35L57 34L56 34L56 33L57 33L57 31L56 31L56 30L57 30L57 28L56 28L56 24L54 24L54 23L57 23L57 21L56 21L56 22L53 22L53 20L50 20L50 19L49 19L49 18L48 18L48 17L45 17L45 16L46 16L46 15L45 15L45 14L46 14L46 13L44 13L44 10L45 10L45 11L47 11L47 10L48 10L48 11L49 11L49 16L50 16L50 17L52 17L52 16L50 16L50 15L51 15L51 13L52 13L52 14L53 14L53 16L55 16L55 17L54 17L54 18L51 18L51 19L56 19L56 18L57 18L57 15L54 15L54 10L53 10L53 9L55 9L55 13L56 13L56 11L57 11L57 10L56 10L56 9L57 9L57 8L56 8L56 9L55 9L55 8L52 8L52 9L51 9L51 10L53 10L53 13L52 13L52 12L51 12L51 11L50 11L50 10L49 10L49 9L50 9L50 8L47 8L47 5L48 5L48 0L45 0L45 1L44 1L44 2L41 2L41 1L43 1L43 0L41 0L41 1L40 1L40 0L39 0L39 1L40 1L40 2L41 2L41 3L43 3L43 5L42 5L42 4L38 4L38 3L39 3L39 2L37 2L37 1L38 1L38 0L37 0L37 1L36 1L36 0L35 0L35 1L34 1L34 2L35 2L35 3L33 3L33 0L32 0L32 1L31 1L31 0L29 0L29 1L31 1L31 2L30 2L30 3L31 3L31 4L26 4L26 0L23 0L23 1L22 1L22 0L21 0L21 1L20 1L20 0L19 0L19 1L18 1L18 2L17 2L17 1L15 1L15 0L14 0L14 1L15 1L15 3L17 3L17 5L15 5L15 4L14 4L14 3L13 3L13 4L11 4L11 3L12 3L12 2L13 2L13 1L11 1L11 0ZM19 1L19 2L18 2L18 3L19 3L19 4L20 4L20 5L21 5L21 4L22 4L22 5L23 5L23 3L24 3L24 2L25 2L25 1L23 1L23 3L22 3L22 1L21 1L21 2L20 2L20 1ZM35 1L35 2L36 2L36 1ZM45 1L45 3L44 3L44 4L45 4L45 5L43 5L43 7L42 7L42 6L41 6L41 7L40 7L40 5L38 5L38 6L37 6L37 5L36 5L36 4L34 4L34 5L33 5L33 3L32 3L32 4L31 4L31 5L32 5L32 6L31 6L31 9L32 9L32 10L30 10L30 11L27 11L27 10L26 10L26 11L25 11L25 10L23 10L23 9L22 9L22 10L23 10L23 11L20 11L20 12L19 12L19 10L18 10L18 12L17 12L17 13L16 13L16 12L15 12L15 15L14 15L14 16L12 16L12 15L11 15L11 17L10 17L10 15L9 15L9 16L8 16L8 19L9 19L9 18L10 18L10 20L7 20L7 21L6 21L6 22L5 22L5 24L4 24L4 26L2 26L2 27L4 27L4 26L8 26L8 25L9 25L9 24L11 24L11 22L13 22L13 23L16 23L16 26L15 26L15 27L13 27L13 25L12 25L12 27L10 27L10 29L11 29L11 28L12 28L12 27L13 27L13 28L15 28L15 27L16 27L16 28L17 28L17 30L16 30L16 29L13 29L13 30L12 30L12 31L13 31L13 32L14 32L14 33L15 33L15 34L14 34L14 36L15 36L15 38L12 38L12 37L13 37L13 36L12 36L12 35L11 35L11 34L10 34L10 30L9 30L9 34L10 34L10 35L11 35L11 36L9 36L9 37L8 37L8 36L7 36L7 37L6 37L6 38L8 38L8 39L9 39L9 40L8 40L8 43L6 43L6 42L7 42L7 41L6 41L6 42L5 42L5 39L3 39L3 40L4 40L4 44L3 44L3 47L5 47L5 46L4 46L4 44L5 44L5 45L6 45L6 46L7 46L7 45L6 45L6 44L8 44L8 46L10 46L10 45L11 45L11 44L10 44L10 45L9 45L9 43L11 43L11 42L12 42L12 44L13 44L13 45L12 45L12 46L11 46L11 47L10 47L10 48L11 48L11 47L13 47L13 48L15 48L15 49L14 49L14 50L15 50L15 51L14 51L14 52L15 52L15 53L16 53L16 54L17 54L17 55L19 55L19 56L20 56L20 55L22 55L22 54L23 54L23 52L24 52L24 53L25 53L25 52L26 52L26 51L24 51L24 50L25 50L25 48L29 48L29 47L30 47L30 48L31 48L31 50L32 50L32 49L33 49L33 48L34 48L34 50L33 50L33 51L35 51L35 48L37 48L37 49L36 49L36 50L37 50L37 49L38 49L38 48L39 48L39 49L40 49L40 50L39 50L39 52L40 52L40 54L41 54L41 53L42 53L42 54L43 54L43 51L45 51L45 52L46 52L46 53L47 53L47 52L48 52L48 48L47 48L47 49L46 49L46 50L45 50L45 48L46 48L46 46L47 46L47 45L48 45L48 44L44 44L44 43L42 43L42 42L45 42L45 43L46 43L46 41L47 41L47 42L48 42L48 43L49 43L49 42L50 42L50 41L52 41L52 40L53 40L53 39L52 39L52 40L50 40L50 41L47 41L47 40L49 40L49 39L51 39L51 38L49 38L49 37L48 37L48 36L47 36L47 35L46 35L46 34L48 34L48 35L49 35L49 34L50 34L50 33L49 33L49 32L52 32L52 34L54 34L54 32L55 32L55 30L56 30L56 29L55 29L55 30L54 30L54 28L53 28L53 32L52 32L52 31L49 31L49 32L48 32L48 27L47 27L47 32L46 32L46 31L44 31L44 30L43 30L43 29L42 29L42 30L40 30L40 29L41 29L41 27L39 27L39 26L41 26L41 23L39 23L39 20L40 20L40 19L39 19L39 18L41 18L41 19L42 19L42 20L41 20L41 21L42 21L42 20L43 20L43 21L44 21L44 22L45 22L45 23L44 23L44 25L42 25L42 26L44 26L44 25L45 25L45 24L46 24L46 22L47 22L47 20L48 20L48 21L49 21L49 23L50 23L50 25L53 25L53 27L55 27L55 25L53 25L53 23L52 23L52 22L51 22L51 21L50 21L50 20L48 20L48 19L47 19L47 20L46 20L46 19L44 19L44 18L45 18L45 17L42 17L42 14L43 14L43 15L44 15L44 16L45 16L45 15L44 15L44 14L43 14L43 12L42 12L42 11L43 11L43 10L42 10L42 11L40 11L40 10L41 10L41 9L45 9L45 8L46 8L46 6L45 6L45 5L47 5L47 3L46 3L46 2L47 2L47 1ZM28 2L28 3L29 3L29 2ZM9 3L9 5L10 5L10 6L11 6L11 7L12 7L12 6L13 6L13 7L14 7L14 6L15 6L15 5L14 5L14 4L13 4L13 5L12 5L12 6L11 6L11 5L10 5L10 3ZM24 4L24 6L23 6L23 7L22 7L22 6L21 6L21 7L20 7L20 6L19 6L19 7L20 7L20 10L21 10L21 8L23 8L23 7L24 7L24 9L26 9L26 6L25 6L25 5L26 5L26 4ZM27 5L27 8L30 8L30 5ZM17 6L17 7L18 7L18 6ZM24 6L24 7L25 7L25 6ZM28 6L28 7L29 7L29 6ZM32 6L32 8L33 8L33 6ZM34 6L34 9L36 9L36 8L37 8L37 11L38 11L38 12L36 12L36 10L35 10L35 11L34 11L34 10L33 10L33 11L30 11L30 12L31 12L31 13L32 13L32 12L33 12L33 14L32 14L32 15L31 15L31 14L30 14L30 13L28 13L28 12L26 12L26 13L27 13L27 14L26 14L26 15L25 15L25 14L23 14L23 18L24 18L24 19L25 19L25 22L24 22L24 21L23 21L23 19L22 19L22 20L21 20L21 19L20 19L20 18L19 18L19 17L21 17L21 18L22 18L22 17L21 17L21 16L20 16L20 15L21 15L21 13L19 13L19 12L18 12L18 13L19 13L19 14L18 14L18 15L17 15L17 14L16 14L16 15L15 15L15 16L14 16L14 18L15 18L15 19L13 19L13 18L11 18L11 19L13 19L13 22L14 22L14 20L15 20L15 19L16 19L16 23L17 23L17 22L18 22L18 20L21 20L21 22L19 22L19 24L17 24L17 25L20 25L20 26L22 26L22 27L23 27L23 28L26 28L26 30L24 30L24 29L21 29L21 30L24 30L24 31L22 31L22 32L21 32L21 31L20 31L20 33L19 33L19 34L20 34L20 33L21 33L21 34L22 34L22 33L23 33L23 35L24 35L24 34L25 34L25 35L26 35L26 34L25 34L25 31L29 31L29 32L30 32L30 33L29 33L29 35L28 35L28 34L27 34L27 36L23 36L23 38L22 38L22 37L21 37L21 38L20 38L20 37L19 37L19 36L22 36L22 35L19 35L19 36L18 36L18 38L19 38L19 39L17 39L17 38L15 38L15 41L13 41L13 40L12 40L12 41L13 41L13 44L14 44L14 45L17 45L17 47L16 47L16 46L14 46L14 47L15 47L15 48L16 48L16 49L17 49L17 50L16 50L16 51L18 51L18 52L19 52L19 55L20 55L20 53L22 53L22 52L21 52L21 51L20 51L20 50L21 50L21 49L20 49L20 48L23 48L23 49L22 49L22 51L23 51L23 49L24 49L24 47L25 47L25 45L26 45L26 46L27 46L27 47L28 47L28 44L29 44L29 43L31 43L31 44L30 44L30 45L31 45L31 47L32 47L32 48L33 48L33 45L34 45L34 44L35 44L35 45L36 45L36 46L34 46L34 47L36 47L36 46L37 46L37 47L38 47L38 45L41 45L41 46L40 46L40 47L43 47L43 49L44 49L44 47L45 47L45 45L42 45L42 43L41 43L41 44L40 44L40 43L39 43L39 42L37 42L37 44L38 44L38 45L36 45L36 43L34 43L34 42L36 42L36 41L34 41L34 40L35 40L35 39L36 39L36 38L35 38L35 39L33 39L33 38L34 38L34 37L33 37L33 38L32 38L32 36L33 36L33 33L34 33L34 32L33 32L33 31L35 31L35 35L36 35L36 36L35 36L35 37L37 37L37 38L39 38L39 39L38 39L38 40L37 40L37 41L40 41L40 42L42 42L42 40L43 40L43 41L46 41L46 40L47 40L47 39L49 39L49 38L46 38L46 37L47 37L47 36L45 36L45 34L44 34L44 31L41 31L41 32L40 32L40 31L39 31L39 30L38 30L38 29L40 29L40 28L39 28L39 27L38 27L38 26L39 26L39 24L38 24L38 21L36 21L36 20L38 20L38 19L36 19L36 20L35 20L35 17L34 17L34 16L35 16L35 15L33 15L33 14L34 14L34 12L35 12L35 14L37 14L37 15L39 15L39 17L40 17L40 16L41 16L41 14L40 14L40 13L39 13L39 12L40 12L40 11L39 11L39 10L40 10L40 9L41 9L41 8L40 8L40 7L39 7L39 6L38 6L38 7L39 7L39 8L37 8L37 6L36 6L36 7L35 7L35 6ZM44 6L44 7L43 7L43 8L45 8L45 6ZM48 6L48 7L49 7L49 6ZM0 8L0 12L2 12L2 13L0 13L0 14L4 14L4 16L5 16L5 11L7 11L7 10L5 10L5 9L4 9L4 8ZM6 8L6 9L7 9L7 8ZM15 8L15 9L16 9L16 8ZM18 8L18 9L19 9L19 8ZM2 9L2 10L1 10L1 11L2 11L2 12L4 12L4 11L5 11L5 10L4 10L4 9ZM28 9L28 10L29 10L29 9ZM38 9L38 10L39 10L39 9ZM46 9L46 10L47 10L47 9ZM2 10L2 11L4 11L4 10ZM24 11L24 12L22 12L22 13L25 13L25 11ZM50 12L50 13L51 13L51 12ZM10 13L10 14L11 14L11 13ZM13 13L13 14L14 14L14 13ZM19 14L19 15L18 15L18 16L17 16L17 15L16 15L16 16L15 16L15 17L17 17L17 18L16 18L16 19L17 19L17 20L18 20L18 19L19 19L19 18L18 18L18 17L19 17L19 15L20 15L20 14ZM39 14L39 15L40 15L40 14ZM47 14L47 16L48 16L48 14ZM2 15L2 17L3 17L3 18L5 18L5 17L3 17L3 15ZM26 15L26 16L25 16L25 17L24 17L24 18L25 18L25 19L26 19L26 18L25 18L25 17L27 17L27 20L26 20L26 21L27 21L27 20L29 20L29 21L30 21L30 20L29 20L29 19L28 19L28 18L29 18L29 17L30 17L30 19L31 19L31 16L29 16L29 15L28 15L28 16L29 16L29 17L27 17L27 15ZM32 15L32 16L33 16L33 15ZM36 17L36 18L37 18L37 17ZM41 17L41 18L42 18L42 19L43 19L43 18L42 18L42 17ZM55 17L55 18L56 18L56 17ZM32 19L32 20L31 20L31 22L30 22L30 23L28 23L28 22L25 22L25 25L23 25L23 24L22 24L22 25L23 25L23 26L25 26L25 25L29 25L29 26L31 26L31 24L30 24L30 23L32 23L32 22L34 22L34 23L33 23L33 24L32 24L32 25L33 25L33 24L35 24L35 23L36 23L36 24L37 24L37 22L35 22L35 21L34 21L34 20L33 20L33 19ZM54 20L54 21L55 21L55 20ZM1 21L1 22L2 22L2 23L1 23L1 24L2 24L2 25L3 25L3 21ZM7 21L7 22L6 22L6 23L8 23L8 21ZM10 21L10 22L11 22L11 21ZM22 21L22 22L21 22L21 23L20 23L20 24L21 24L21 23L22 23L22 22L23 22L23 21ZM42 22L42 24L43 24L43 22ZM26 23L26 24L27 24L27 23ZM47 23L47 24L48 24L48 26L49 26L49 24L48 24L48 23ZM5 24L5 25L7 25L7 24ZM10 25L10 26L11 26L11 25ZM34 25L34 27L35 27L35 25ZM46 25L46 26L47 26L47 25ZM17 26L17 27L19 27L19 28L18 28L18 29L20 29L20 28L21 28L21 27L19 27L19 26ZM5 27L5 30L8 30L8 27ZM27 27L27 30L30 30L30 27ZM31 27L31 28L33 28L33 27ZM36 27L36 29L35 29L35 28L34 28L34 29L35 29L35 30L36 30L36 31L37 31L37 32L36 32L36 33L37 33L37 32L38 32L38 34L39 34L39 31L38 31L38 30L36 30L36 29L37 29L37 27ZM42 27L42 28L44 28L44 27ZM45 27L45 30L46 30L46 27ZM49 27L49 30L52 30L52 27ZM2 28L2 29L3 29L3 30L4 30L4 28ZM6 28L6 29L7 29L7 28ZM28 28L28 29L29 29L29 28ZM50 28L50 29L51 29L51 28ZM31 29L31 33L33 33L33 32L32 32L32 31L33 31L33 30L32 30L32 29ZM15 30L15 33L16 33L16 30ZM17 30L17 31L18 31L18 32L17 32L17 35L16 35L16 36L17 36L17 35L18 35L18 32L19 32L19 31L18 31L18 30ZM4 31L4 32L5 32L5 31ZM6 31L6 32L7 32L7 31ZM11 32L11 33L12 33L12 32ZM23 32L23 33L24 33L24 32ZM27 32L27 33L28 33L28 32ZM42 32L42 33L43 33L43 32ZM30 34L30 35L29 35L29 36L27 36L27 37L24 37L24 39L23 39L23 40L22 40L22 38L21 38L21 40L22 40L22 41L20 41L20 40L17 40L17 39L16 39L16 40L17 40L17 41L19 41L19 42L21 42L21 44L22 44L22 46L21 46L21 45L20 45L20 44L19 44L19 43L18 43L18 42L16 42L16 41L15 41L15 44L16 44L16 43L17 43L17 45L19 45L19 46L20 46L20 47L22 47L22 46L23 46L23 47L24 47L24 46L23 46L23 44L22 44L22 41L24 41L24 43L26 43L26 45L27 45L27 44L28 44L28 43L27 43L27 42L25 42L25 41L26 41L26 39L25 39L25 38L29 38L29 36L32 36L32 34ZM41 34L41 35L39 35L39 36L40 36L40 37L41 37L41 39L42 39L42 38L44 38L44 39L46 39L46 38L45 38L45 36L44 36L44 37L43 37L43 35L42 35L42 34ZM41 35L41 36L42 36L42 35ZM37 36L37 37L38 37L38 36ZM10 37L10 38L9 38L9 39L10 39L10 41L9 41L9 42L11 42L11 39L12 39L12 38L11 38L11 37ZM10 38L10 39L11 39L11 38ZM30 38L30 39L28 39L28 40L27 40L27 41L28 41L28 40L29 40L29 42L30 42L30 40L33 40L33 39L32 39L32 38ZM6 39L6 40L7 40L7 39ZM24 39L24 41L25 41L25 39ZM40 40L40 41L41 41L41 40ZM56 40L56 41L57 41L57 40ZM32 42L32 45L33 45L33 42ZM5 43L5 44L6 44L6 43ZM38 43L38 44L39 44L39 43ZM1 45L1 47L2 47L2 45ZM17 47L17 48L19 48L19 47ZM50 47L50 48L51 48L51 47ZM41 48L41 49L42 49L42 48ZM56 48L56 50L57 50L57 48ZM9 49L9 50L13 50L13 49ZM27 49L27 52L30 52L30 49ZM49 49L49 52L52 52L52 49ZM18 50L18 51L19 51L19 50ZM28 50L28 51L29 51L29 50ZM46 50L46 52L47 52L47 50ZM50 50L50 51L51 51L51 50ZM31 51L31 53L32 53L32 51ZM36 51L36 52L35 52L35 53L36 53L36 54L35 54L35 55L36 55L36 54L37 54L37 52L38 52L38 51ZM40 51L40 52L41 52L41 51ZM33 52L33 53L34 53L34 52ZM54 52L54 53L55 53L55 52ZM17 53L17 54L18 54L18 53ZM38 53L38 54L39 54L39 53ZM48 53L48 54L50 54L50 53ZM14 55L14 56L15 56L15 55ZM40 55L40 56L42 56L42 55ZM56 55L56 56L57 56L57 55ZM0 0L0 7L7 7L7 0ZM1 1L1 6L6 6L6 1ZM2 2L2 5L5 5L5 2ZM50 0L50 7L57 7L57 0ZM51 1L51 6L56 6L56 1ZM52 2L52 5L55 5L55 2ZM0 50L0 57L7 57L7 50ZM1 51L1 56L6 56L6 51ZM2 52L2 55L5 55L5 52Z" fill="#000000"/></g></g></svg>
