<?xml version="1.0" encoding="UTF-8"?>
<svg xmlns="http://www.w3.org/2000/svg" version="1.1" width="300" height="300" viewBox="0 0 300 300"><rect x="0" y="0" width="300" height="300" fill="#fefefe"/><g transform="scale(4.615)"><g transform="translate(4,4)"><path fill-rule="evenodd" d="M12 0L12 2L11 2L11 3L13 3L13 4L12 4L12 5L8 5L8 7L9 7L9 8L6 8L6 9L5 9L5 8L0 8L0 11L1 11L1 13L2 13L2 14L1 14L1 15L2 15L2 14L3 14L3 13L4 13L4 15L3 15L3 17L2 17L2 16L0 16L0 18L1 18L1 17L2 17L2 18L4 18L4 19L7 19L7 20L6 20L6 21L9 21L9 22L6 22L6 23L5 23L5 21L4 21L4 20L3 20L3 19L2 19L2 21L0 21L0 22L1 22L1 23L0 23L0 24L2 24L2 25L0 25L0 26L2 26L2 25L3 25L3 24L5 24L5 25L7 25L7 24L9 24L9 25L10 25L10 22L11 22L11 25L12 25L12 23L13 23L13 24L15 24L15 25L16 25L16 24L17 24L17 25L18 25L18 26L15 26L15 27L14 27L14 26L3 26L3 28L4 28L4 31L3 31L3 29L1 29L1 28L2 28L2 27L0 27L0 29L1 29L1 31L2 31L2 32L0 32L0 34L1 34L1 33L3 33L3 32L4 32L4 31L10 31L10 32L8 32L8 33L7 33L7 32L5 32L5 33L4 33L4 34L5 34L5 35L3 35L3 34L2 34L2 35L1 35L1 36L0 36L0 40L1 40L1 39L2 39L2 38L1 38L1 36L2 36L2 37L3 37L3 36L6 36L6 37L4 37L4 38L3 38L3 40L2 40L2 44L1 44L1 43L0 43L0 44L1 44L1 45L0 45L0 48L5 48L5 47L8 47L8 46L5 46L5 47L3 47L3 46L2 46L2 44L3 44L3 45L5 45L5 44L6 44L6 45L9 45L9 48L8 48L8 51L9 51L9 50L10 50L10 49L9 49L9 48L11 48L11 49L12 49L12 50L11 50L11 51L12 51L12 50L15 50L15 51L14 51L14 53L13 53L13 52L12 52L12 53L10 53L10 52L8 52L8 57L10 57L10 54L11 54L11 55L13 55L13 54L14 54L14 56L11 56L11 57L14 57L14 56L15 56L15 57L16 57L16 56L17 56L17 57L20 57L20 56L17 56L17 54L19 54L19 55L20 55L20 54L19 54L19 53L20 53L20 52L23 52L23 50L25 50L25 49L24 49L24 48L23 48L23 49L21 49L21 51L20 51L20 47L23 47L23 46L25 46L25 44L27 44L27 45L26 45L26 47L25 47L25 48L26 48L26 52L24 52L24 53L23 53L23 54L22 54L22 53L21 53L21 54L22 54L22 56L24 56L24 55L23 55L23 54L24 54L24 53L27 53L27 54L30 54L30 53L31 53L31 49L32 49L32 52L33 52L33 53L32 53L32 54L31 54L31 56L30 56L30 55L29 55L29 56L27 56L27 57L29 57L29 56L30 56L30 57L31 57L31 56L35 56L35 57L39 57L39 56L40 56L40 55L41 55L41 57L42 57L42 55L44 55L44 54L45 54L45 55L46 55L46 56L47 56L47 57L49 57L49 56L50 56L50 57L52 57L52 55L51 55L51 53L52 53L52 54L54 54L54 53L56 53L56 52L57 52L57 51L56 51L56 50L57 50L57 48L56 48L56 46L57 46L57 45L56 45L56 44L57 44L57 43L56 43L56 42L55 42L55 39L57 39L57 36L56 36L56 34L55 34L55 33L54 33L54 34L55 34L55 35L53 35L53 34L52 34L52 33L53 33L53 32L56 32L56 33L57 33L57 32L56 32L56 30L57 30L57 29L56 29L56 26L57 26L57 25L56 25L56 22L57 22L57 20L56 20L56 19L55 19L55 18L57 18L57 17L56 17L56 16L57 16L57 15L56 15L56 14L57 14L57 13L56 13L56 12L57 12L57 11L56 11L56 8L55 8L55 10L54 10L54 11L51 11L51 10L50 10L50 8L49 8L49 9L48 9L48 7L49 7L49 6L48 6L48 7L47 7L47 5L48 5L48 0L45 0L45 1L47 1L47 2L44 2L44 3L43 3L43 4L40 4L40 5L39 5L39 6L38 6L38 7L37 7L37 5L38 5L38 4L37 4L37 3L38 3L38 2L39 2L39 3L41 3L41 2L43 2L43 0L41 0L41 1L40 1L40 0L39 0L39 1L38 1L38 0L37 0L37 1L38 1L38 2L37 2L37 3L36 3L36 0L35 0L35 1L31 1L31 0L29 0L29 1L26 1L26 0L23 0L23 2L22 2L22 3L23 3L23 4L19 4L19 2L21 2L21 1L22 1L22 0L21 0L21 1L20 1L20 0L17 0L17 1L14 1L14 0ZM8 1L8 2L9 2L9 3L8 3L8 4L10 4L10 1ZM13 1L13 2L14 2L14 4L13 4L13 5L12 5L12 6L11 6L11 7L10 7L10 6L9 6L9 7L10 7L10 8L9 8L9 9L8 9L8 10L11 10L11 9L12 9L12 10L17 10L17 11L18 11L18 9L15 9L15 8L14 8L14 9L13 9L13 7L14 7L14 5L15 5L15 7L16 7L16 8L19 8L19 9L20 9L20 11L19 11L19 13L20 13L20 14L21 14L21 13L22 13L22 14L23 14L23 13L24 13L24 12L25 12L25 14L24 14L24 15L21 15L21 16L20 16L20 18L19 18L19 17L18 17L18 19L17 19L17 13L18 13L18 12L17 12L17 13L16 13L16 12L15 12L15 13L13 13L13 12L14 12L14 11L12 11L12 12L11 12L11 13L8 13L8 12L10 12L10 11L6 11L6 10L7 10L7 9L6 9L6 10L5 10L5 9L1 9L1 10L2 10L2 11L3 11L3 10L4 10L4 11L5 11L5 15L4 15L4 17L6 17L6 18L7 18L7 19L9 19L9 20L10 20L10 21L11 21L11 22L13 22L13 23L14 23L14 22L16 22L16 21L17 21L17 22L18 22L18 21L17 21L17 20L18 20L18 19L19 19L19 20L20 20L20 21L19 21L19 22L20 22L20 23L18 23L18 24L19 24L19 25L20 25L20 26L18 26L18 27L17 27L17 28L18 28L18 29L16 29L16 28L15 28L15 29L16 29L16 31L15 31L15 30L13 30L13 31L12 31L12 32L13 32L13 31L15 31L15 34L14 34L14 33L13 33L13 34L14 34L14 35L12 35L12 34L11 34L11 33L10 33L10 35L8 35L8 36L7 36L7 35L6 35L6 36L7 36L7 37L6 37L6 38L7 38L7 39L6 39L6 40L3 40L3 42L4 42L4 43L3 43L3 44L5 44L5 43L6 43L6 44L7 44L7 43L8 43L8 44L10 44L10 43L11 43L11 46L10 46L10 47L11 47L11 48L12 48L12 46L13 46L13 48L14 48L14 49L15 49L15 50L16 50L16 51L15 51L15 52L16 52L16 53L15 53L15 54L16 54L16 53L17 53L17 52L19 52L19 51L18 51L18 50L19 50L19 49L17 49L17 48L19 48L19 46L18 46L18 47L17 47L17 45L18 45L18 44L16 44L16 43L15 43L15 42L17 42L17 43L18 43L18 42L19 42L19 43L20 43L20 44L19 44L19 45L20 45L20 46L21 46L21 45L22 45L22 46L23 46L23 45L22 45L22 44L21 44L21 43L22 43L22 42L24 42L24 43L23 43L23 44L24 44L24 43L27 43L27 42L32 42L32 43L33 43L33 44L32 44L32 46L31 46L31 48L32 48L32 49L33 49L33 51L35 51L35 50L36 50L36 52L38 52L38 54L40 54L40 53L43 53L43 54L44 54L44 53L45 53L45 54L48 54L48 50L47 50L47 49L48 49L48 48L51 48L51 46L53 46L53 47L55 47L55 46L56 46L56 45L55 45L55 44L54 44L54 46L53 46L53 45L51 45L51 44L53 44L53 43L54 43L54 42L53 42L53 41L54 41L54 40L53 40L53 41L51 41L51 42L50 42L50 43L48 43L48 44L47 44L47 45L45 45L45 44L46 44L46 43L43 43L43 44L44 44L44 46L47 46L47 47L46 47L46 48L47 48L47 49L45 49L45 48L44 48L44 47L43 47L43 46L41 46L41 44L42 44L42 42L41 42L41 40L42 40L42 41L43 41L43 39L45 39L45 40L44 40L44 42L48 42L48 41L49 41L49 39L53 39L53 35L52 35L52 34L50 34L50 31L48 31L48 29L46 29L46 30L47 30L47 31L45 31L45 32L43 32L43 31L44 31L44 29L45 29L45 28L46 28L46 27L47 27L47 28L48 28L48 26L47 26L47 25L48 25L48 24L50 24L50 22L51 22L51 21L53 21L53 23L51 23L51 25L50 25L50 26L51 26L51 25L53 25L53 23L55 23L55 22L56 22L56 21L55 21L55 20L53 20L53 19L52 19L52 17L53 17L53 18L55 18L55 17L53 17L53 15L50 15L50 14L51 14L51 12L50 12L50 10L48 10L48 9L47 9L47 8L44 8L44 10L43 10L43 11L42 11L42 10L41 10L41 9L43 9L43 7L44 7L44 6L45 6L45 7L46 7L46 6L45 6L45 4L46 4L46 5L47 5L47 3L44 3L44 6L43 6L43 7L42 7L42 5L40 5L40 6L39 6L39 7L40 7L40 8L39 8L39 9L38 9L38 8L37 8L37 7L36 7L36 5L37 5L37 4L36 4L36 5L35 5L35 2L34 2L34 3L32 3L32 2L31 2L31 1L29 1L29 2L28 2L28 3L27 3L27 2L23 2L23 3L26 3L26 4L25 4L25 8L24 8L24 6L23 6L23 7L22 7L22 5L21 5L21 8L19 8L19 7L20 7L20 5L19 5L19 4L17 4L17 2L14 2L14 1ZM18 1L18 2L19 2L19 1ZM31 3L31 4L26 4L26 8L25 8L25 9L23 9L23 10L22 10L22 9L21 9L21 10L22 10L22 11L20 11L20 12L22 12L22 13L23 13L23 10L25 10L25 12L26 12L26 14L25 14L25 15L24 15L24 16L25 16L25 17L22 17L22 16L21 16L21 17L22 17L22 18L20 18L20 19L22 19L22 20L21 20L21 21L22 21L22 23L21 23L21 24L20 24L20 25L21 25L21 26L20 26L20 29L18 29L18 32L16 32L16 33L19 33L19 34L16 34L16 35L20 35L20 33L21 33L21 34L22 34L22 33L21 33L21 32L23 32L23 31L26 31L26 32L25 32L25 33L23 33L23 34L24 34L24 36L23 36L23 37L24 37L24 38L21 38L21 37L19 37L19 36L18 36L18 37L17 37L17 38L18 38L18 37L19 37L19 38L20 38L20 39L19 39L19 40L16 40L16 39L15 39L15 38L16 38L16 37L15 37L15 35L14 35L14 36L13 36L13 37L14 37L14 38L13 38L13 40L11 40L11 37L12 37L12 35L11 35L11 36L8 36L8 37L7 37L7 38L9 38L9 39L10 39L10 40L11 40L11 41L9 41L9 40L6 40L6 41L8 41L8 42L9 42L9 43L10 43L10 42L11 42L11 41L12 41L12 45L13 45L13 46L14 46L14 48L15 48L15 49L16 49L16 47L15 47L15 46L14 46L14 45L13 45L13 42L15 42L15 40L16 40L16 41L19 41L19 42L20 42L20 40L23 40L23 41L24 41L24 42L25 42L25 41L24 41L24 40L25 40L25 37L26 37L26 36L27 36L27 31L28 31L28 33L29 33L29 34L30 34L30 36L29 36L29 37L31 37L31 38L29 38L29 39L33 39L33 40L35 40L35 42L37 42L37 43L36 43L36 44L35 44L35 43L34 43L34 42L33 42L33 41L32 41L32 40L31 40L31 41L32 41L32 42L33 42L33 43L34 43L34 45L37 45L37 47L36 47L36 48L35 48L35 46L33 46L33 49L36 49L36 50L38 50L38 51L40 51L40 52L41 52L41 50L42 50L42 52L43 52L43 53L44 53L44 52L47 52L47 51L46 51L46 50L45 50L45 49L44 49L44 48L43 48L43 47L42 47L42 48L41 48L41 46L40 46L40 47L39 47L39 46L38 46L38 45L39 45L39 42L40 42L40 41L39 41L39 42L38 42L38 40L41 40L41 39L42 39L42 38L43 38L43 37L44 37L44 38L45 38L45 37L44 37L44 36L45 36L45 35L47 35L47 36L46 36L46 37L47 37L47 36L48 36L48 35L50 35L50 36L49 36L49 38L50 38L50 36L51 36L51 37L52 37L52 35L50 35L50 34L48 34L48 35L47 35L47 34L45 34L45 33L43 33L43 32L41 32L41 33L39 33L39 34L40 34L40 35L38 35L38 33L37 33L37 32L35 32L35 34L34 34L34 35L31 35L31 34L33 34L33 33L32 33L32 31L33 31L33 32L34 32L34 31L36 31L36 30L37 30L37 29L38 29L38 28L42 28L42 27L37 27L37 28L35 28L35 27L36 27L36 26L34 26L34 27L33 27L33 26L32 26L32 24L33 24L33 25L37 25L37 26L38 26L38 25L39 25L39 26L40 26L40 25L39 25L39 24L43 24L43 25L41 25L41 26L43 26L43 27L44 27L44 28L43 28L43 29L41 29L41 30L43 30L43 29L44 29L44 28L45 28L45 27L46 27L46 26L45 26L45 25L47 25L47 24L46 24L46 23L49 23L49 21L51 21L51 20L52 20L52 19L49 19L49 21L47 21L47 22L46 22L46 23L45 23L45 25L44 25L44 20L45 20L45 18L46 18L46 19L47 19L47 18L50 18L50 17L49 17L49 16L50 16L50 15L49 15L49 14L50 14L50 12L49 12L49 11L48 11L48 10L46 10L46 9L45 9L45 10L44 10L44 11L43 11L43 13L40 13L40 12L41 12L41 10L40 10L40 12L39 12L39 11L37 11L37 10L38 10L38 9L37 9L37 8L35 8L35 5L34 5L34 7L33 7L33 6L32 6L32 7L33 7L33 9L34 9L34 8L35 8L35 9L37 9L37 10L36 10L36 12L35 12L35 13L37 13L37 14L38 14L38 15L39 15L39 16L38 16L38 17L37 17L37 16L35 16L35 14L32 14L32 12L33 12L33 13L34 13L34 12L33 12L33 10L32 10L32 8L31 8L31 4L32 4L32 5L33 5L33 4L32 4L32 3ZM15 4L15 5L16 5L16 4ZM23 4L23 5L24 5L24 4ZM17 5L17 6L16 6L16 7L17 7L17 6L18 6L18 7L19 7L19 6L18 6L18 5ZM27 5L27 8L30 8L30 5ZM12 6L12 7L13 7L13 6ZM28 6L28 7L29 7L29 6ZM40 6L40 7L41 7L41 6ZM51 8L51 9L52 9L52 10L53 10L53 9L54 9L54 8L53 8L53 9L52 9L52 8ZM27 10L27 11L26 11L26 12L27 12L27 11L28 11L28 10ZM31 10L31 11L29 11L29 12L28 12L28 13L27 13L27 15L26 15L26 17L25 17L25 18L26 18L26 21L27 21L27 23L28 23L28 24L25 24L25 23L26 23L26 22L25 22L25 21L24 21L24 20L22 20L22 21L24 21L24 22L23 22L23 23L24 23L24 24L25 24L25 25L26 25L26 26L25 26L25 27L26 27L26 26L29 26L29 22L28 22L28 21L30 21L30 20L29 20L29 19L28 19L28 18L26 18L26 17L28 17L28 16L29 16L29 14L30 14L30 15L31 15L31 16L32 16L32 17L31 17L31 18L30 18L30 19L31 19L31 18L32 18L32 19L33 19L33 20L32 20L32 21L31 21L31 22L30 22L30 23L31 23L31 24L32 24L32 23L35 23L35 21L34 21L34 20L35 20L35 19L36 19L36 20L37 20L37 19L39 19L39 17L41 17L41 16L42 16L42 17L43 17L43 16L42 16L42 15L44 15L44 18L43 18L43 20L44 20L44 18L45 18L45 17L46 17L46 18L47 18L47 15L44 15L44 13L45 13L45 14L47 14L47 13L49 13L49 12L45 12L45 11L46 11L46 10L45 10L45 11L44 11L44 13L43 13L43 14L40 14L40 13L38 13L38 14L40 14L40 15L41 15L41 16L39 16L39 17L38 17L38 18L37 18L37 17L35 17L35 16L32 16L32 15L31 15L31 14L30 14L30 13L31 13L31 11L32 11L32 10ZM6 12L6 13L7 13L7 14L6 14L6 15L7 15L7 16L6 16L6 17L7 17L7 18L10 18L10 20L11 20L11 19L12 19L12 21L13 21L13 22L14 22L14 21L13 21L13 20L14 20L14 19L13 19L13 18L14 18L14 16L15 16L15 17L16 17L16 13L15 13L15 14L13 14L13 13L11 13L11 15L10 15L10 14L9 14L9 15L7 15L7 14L8 14L8 13L7 13L7 12ZM52 12L52 13L53 13L53 14L54 14L54 13L55 13L55 14L56 14L56 13L55 13L55 12L54 12L54 13L53 13L53 12ZM28 13L28 14L29 14L29 13ZM12 14L12 15L11 15L11 16L8 16L8 17L10 17L10 18L12 18L12 16L13 16L13 14ZM18 15L18 16L19 16L19 15ZM27 15L27 16L28 16L28 15ZM48 15L48 16L49 16L49 15ZM32 17L32 18L33 18L33 17ZM15 18L15 21L16 21L16 20L17 20L17 19L16 19L16 18ZM22 18L22 19L24 19L24 18ZM41 18L41 19L42 19L42 18ZM27 19L27 20L28 20L28 19ZM38 20L38 22L37 22L37 24L39 24L39 23L40 23L40 22L39 22L39 21L42 21L42 20ZM3 21L3 23L4 23L4 21ZM38 22L38 23L39 23L39 22ZM41 22L41 23L42 23L42 22ZM6 23L6 24L7 24L7 23ZM15 23L15 24L16 24L16 23ZM21 24L21 25L23 25L23 24ZM22 26L22 27L21 27L21 28L22 28L22 29L20 29L20 30L19 30L19 31L23 31L23 28L24 28L24 26ZM31 26L31 28L32 28L32 30L31 30L31 31L30 31L30 32L29 32L29 33L31 33L31 31L32 31L32 30L35 30L35 28L33 28L33 27L32 27L32 26ZM44 26L44 27L45 27L45 26ZM53 26L53 27L54 27L54 26ZM5 27L5 30L8 30L8 27ZM9 27L9 30L10 30L10 31L11 31L11 29L13 29L13 28L12 28L12 27L11 27L11 29L10 29L10 27ZM27 27L27 30L30 30L30 27ZM49 27L49 30L52 30L52 27ZM6 28L6 29L7 29L7 28ZM25 28L25 29L26 29L26 28ZM28 28L28 29L29 29L29 28ZM50 28L50 29L51 29L51 28ZM54 28L54 29L55 29L55 28ZM39 29L39 30L38 30L38 32L39 32L39 30L40 30L40 29ZM53 30L53 31L54 31L54 30ZM47 31L47 32L48 32L48 33L49 33L49 32L48 32L48 31ZM51 32L51 33L52 33L52 32ZM6 33L6 34L7 34L7 33ZM8 33L8 34L9 34L9 33ZM25 33L25 35L26 35L26 33ZM35 34L35 36L32 36L32 37L33 37L33 39L34 39L34 38L35 38L35 36L37 36L37 34ZM42 34L42 35L41 35L41 36L40 36L40 37L39 37L39 36L38 36L38 39L35 39L35 40L38 40L38 39L41 39L41 38L42 38L42 37L41 37L41 36L42 36L42 35L43 35L43 36L44 36L44 35L45 35L45 34ZM21 35L21 36L22 36L22 35ZM9 37L9 38L10 38L10 37ZM27 37L27 38L26 38L26 40L28 40L28 39L27 39L27 38L28 38L28 37ZM40 37L40 38L41 38L41 37ZM4 38L4 39L5 39L5 38ZM47 38L47 39L46 39L46 40L45 40L45 41L47 41L47 39L48 39L48 38ZM54 38L54 39L55 39L55 38ZM14 39L14 40L15 40L15 39ZM23 39L23 40L24 40L24 39ZM0 41L0 42L1 42L1 41ZM21 41L21 42L22 42L22 41ZM26 41L26 42L27 42L27 41ZM6 42L6 43L7 43L7 42ZM51 42L51 43L50 43L50 44L48 44L48 45L47 45L47 46L48 46L48 47L47 47L47 48L48 48L48 47L50 47L50 46L49 46L49 45L50 45L50 44L51 44L51 43L53 43L53 42ZM29 43L29 45L27 45L27 46L28 46L28 47L26 47L26 48L29 48L29 45L31 45L31 43ZM20 44L20 45L21 45L21 44ZM1 46L1 47L2 47L2 46ZM38 47L38 48L37 48L37 49L38 49L38 50L41 50L41 48L39 48L39 47ZM6 48L6 49L7 49L7 48ZM38 48L38 49L39 49L39 48ZM42 48L42 49L43 49L43 48ZM55 48L55 50L54 50L54 51L55 51L55 52L56 52L56 51L55 51L55 50L56 50L56 48ZM27 49L27 52L30 52L30 49ZM49 49L49 52L52 52L52 49ZM28 50L28 51L29 51L29 50ZM44 50L44 51L45 51L45 50ZM50 50L50 51L51 51L51 50ZM53 52L53 53L54 53L54 52ZM9 53L9 54L10 54L10 53ZM33 53L33 55L35 55L35 56L36 56L36 54L35 54L35 53ZM25 54L25 55L26 55L26 54ZM41 54L41 55L42 55L42 54ZM15 55L15 56L16 56L16 55ZM37 55L37 56L39 56L39 55ZM50 55L50 56L51 56L51 55ZM53 55L53 56L55 56L55 57L56 57L56 56L55 56L55 55ZM25 56L25 57L26 57L26 56ZM43 56L43 57L44 57L44 56ZM0 0L0 7L7 7L7 0ZM1 1L1 6L6 6L6 1ZM2 2L2 5L5 5L5 2ZM50 0L50 7L57 7L57 0ZM51 1L51 6L56 6L56 1ZM52 2L52 5L55 5L55 2ZM0 50L0 57L7 57L7 50ZM1 51L1 56L6 56L6 51ZM2 52L2 55L5 55L5 52Z" fill="#000000"/></g></g></svg>
