<?xml version="1.0" encoding="UTF-8"?>
<svg xmlns="http://www.w3.org/2000/svg" version="1.1" width="300" height="300" viewBox="0 0 300 300"><rect x="0" y="0" width="300" height="300" fill="#fefefe"/><g transform="scale(4.615)"><g transform="translate(4,4)"><path fill-rule="evenodd" d="M8 0L8 1L10 1L10 0ZM11 0L11 2L10 2L10 4L9 4L9 2L8 2L8 5L9 5L9 6L8 6L8 7L9 7L9 6L10 6L10 8L11 8L11 10L10 10L10 9L9 9L9 8L8 8L8 9L9 9L9 11L8 11L8 10L4 10L4 8L0 8L0 9L3 9L3 12L4 12L4 13L7 13L7 12L4 12L4 11L8 11L8 12L9 12L9 14L10 14L10 15L9 15L9 16L11 16L11 17L15 17L15 18L18 18L18 17L16 17L16 15L17 15L17 16L19 16L19 17L21 17L21 18L22 18L22 17L21 17L21 13L20 13L20 12L18 12L18 10L20 10L20 11L23 11L23 12L22 12L22 13L23 13L23 12L24 12L24 13L25 13L25 15L24 15L24 14L23 14L23 18L24 18L24 19L25 19L25 22L24 22L24 21L23 21L23 19L22 19L22 20L21 20L21 22L19 22L19 21L18 21L18 20L19 20L19 19L20 19L20 18L19 18L19 19L17 19L17 20L16 20L16 19L13 19L13 18L12 18L12 21L13 21L13 22L12 22L12 26L11 26L11 25L9 25L9 23L7 23L7 22L8 22L8 21L9 21L9 20L8 20L8 19L7 19L7 18L6 18L6 19L7 19L7 20L6 20L6 21L7 21L7 22L6 22L6 23L5 23L5 22L4 22L4 23L2 23L2 22L1 22L1 21L2 21L2 20L4 20L4 21L5 21L5 17L8 17L8 14L6 14L6 15L5 15L5 17L4 17L4 18L3 18L3 17L2 17L2 18L3 18L3 19L2 19L2 20L1 20L1 17L0 17L0 20L1 20L1 21L0 21L0 22L1 22L1 24L0 24L0 25L1 25L1 26L0 26L0 27L1 27L1 26L3 26L3 27L2 27L2 29L3 29L3 27L4 27L4 30L0 30L0 31L2 31L2 32L1 32L1 33L0 33L0 34L2 34L2 32L4 32L4 35L5 35L5 33L8 33L8 34L6 34L6 35L7 35L7 36L6 36L6 37L7 37L7 38L3 38L3 35L2 35L2 36L1 36L1 37L0 37L0 44L1 44L1 45L0 45L0 48L5 48L5 47L10 47L10 50L9 50L9 49L8 49L8 50L9 50L9 51L10 51L10 53L11 53L11 54L9 54L9 53L8 53L8 57L9 57L9 56L10 56L10 55L11 55L11 56L12 56L12 57L15 57L15 56L16 56L16 57L18 57L18 55L17 55L17 54L18 54L18 53L17 53L17 54L16 54L16 53L15 53L15 56L13 56L13 55L12 55L12 54L14 54L14 53L13 53L13 51L11 51L11 50L16 50L16 51L17 51L17 50L19 50L19 51L20 51L20 52L19 52L19 55L20 55L20 56L19 56L19 57L23 57L23 56L22 56L22 55L23 55L23 54L25 54L25 55L24 55L24 57L25 57L25 55L26 55L26 56L28 56L28 55L26 55L26 54L27 54L27 53L29 53L29 54L31 54L31 55L30 55L30 56L31 56L31 57L32 57L32 55L34 55L34 56L33 56L33 57L36 57L36 55L37 55L37 54L36 54L36 53L35 53L35 52L36 52L36 51L38 51L38 52L39 52L39 54L38 54L38 57L41 57L41 56L42 56L42 57L43 57L43 56L45 56L45 55L46 55L46 56L47 56L47 55L49 55L49 56L48 56L48 57L51 57L51 54L52 54L52 53L54 53L54 52L55 52L55 54L53 54L53 56L52 56L52 57L55 57L55 56L54 56L54 55L55 55L55 54L56 54L56 51L55 51L55 50L53 50L53 48L54 48L54 46L55 46L55 47L57 47L57 45L56 45L56 46L55 46L55 44L53 44L53 46L52 46L52 43L53 43L53 42L54 42L54 43L56 43L56 44L57 44L57 43L56 43L56 42L54 42L54 40L55 40L55 38L56 38L56 39L57 39L57 38L56 38L56 36L54 36L54 35L55 35L55 34L56 34L56 35L57 35L57 31L56 31L56 30L57 30L57 29L56 29L56 30L54 30L54 29L55 29L55 28L56 28L56 27L53 27L53 26L51 26L51 25L49 25L49 24L51 24L51 23L48 23L48 24L47 24L47 22L49 22L49 20L50 20L50 21L51 21L51 22L52 22L52 23L53 23L53 24L54 24L54 23L57 23L57 19L56 19L56 18L57 18L57 15L55 15L55 13L54 13L54 10L53 10L53 13L52 13L52 12L51 12L51 11L52 11L52 9L55 9L55 12L56 12L56 13L57 13L57 12L56 12L56 11L57 11L57 10L56 10L56 9L57 9L57 8L56 8L56 9L55 9L55 8L52 8L52 9L51 9L51 10L50 10L50 8L49 8L49 6L48 6L48 9L47 9L47 8L45 8L45 6L46 6L46 7L47 7L47 5L48 5L48 0L45 0L45 1L44 1L44 2L42 2L42 3L43 3L43 5L45 5L45 6L44 6L44 7L43 7L43 6L42 6L42 5L41 5L41 4L39 4L39 3L37 3L37 1L38 1L38 0L37 0L37 1L36 1L36 0L35 0L35 1L34 1L34 2L35 2L35 3L33 3L33 1L32 1L32 0L27 0L27 3L28 3L28 2L29 2L29 4L26 4L26 2L24 2L24 3L23 3L23 5L22 5L22 4L21 4L21 5L20 5L20 4L19 4L19 3L20 3L20 2L22 2L22 0L21 0L21 1L20 1L20 0L17 0L17 1L16 1L16 2L15 2L15 3L17 3L17 4L18 4L18 7L19 7L19 8L20 8L20 7L21 7L21 6L22 6L22 7L23 7L23 8L21 8L21 9L23 9L23 10L20 10L20 9L18 9L18 8L17 8L17 10L16 10L16 13L17 13L17 12L18 12L18 13L19 13L19 15L18 15L18 14L16 14L16 15L15 15L15 11L14 11L14 10L13 10L13 9L12 9L12 8L11 8L11 6L12 6L12 7L13 7L13 8L15 8L15 6L16 6L16 7L17 7L17 5L15 5L15 4L14 4L14 3L12 3L12 1L13 1L13 0ZM23 0L23 1L26 1L26 0ZM39 0L39 1L40 1L40 2L41 2L41 1L43 1L43 0L41 0L41 1L40 1L40 0ZM30 1L30 4L31 4L31 5L32 5L32 6L31 6L31 9L32 9L32 10L29 10L29 9L28 9L28 10L29 10L29 11L27 11L27 10L26 10L26 11L25 11L25 10L23 10L23 11L25 11L25 13L26 13L26 12L28 12L28 13L30 13L30 14L31 14L31 15L32 15L32 14L33 14L33 15L35 15L35 16L34 16L34 17L35 17L35 20L34 20L34 19L33 19L33 18L31 18L31 17L32 17L32 16L29 16L29 15L28 15L28 16L29 16L29 17L27 17L27 18L25 18L25 17L24 17L24 18L25 18L25 19L27 19L27 20L26 20L26 21L27 21L27 22L25 22L25 25L24 25L24 24L21 24L21 23L20 23L20 24L21 24L21 25L23 25L23 26L25 26L25 25L27 25L27 26L28 26L28 25L29 25L29 26L31 26L31 24L30 24L30 23L32 23L32 22L33 22L33 24L32 24L32 25L33 25L33 24L35 24L35 23L36 23L36 24L37 24L37 23L38 23L38 24L39 24L39 21L38 21L38 22L35 22L35 20L36 20L36 21L37 21L37 20L40 20L40 19L39 19L39 18L41 18L41 21L44 21L44 22L45 22L45 23L44 23L44 25L46 25L46 26L49 26L49 25L46 25L46 24L45 24L45 23L46 23L46 22L47 22L47 21L48 21L48 20L47 20L47 19L49 19L49 18L50 18L50 20L53 20L53 22L56 22L56 21L54 21L54 20L55 20L55 19L52 19L52 18L51 18L51 15L52 15L52 17L53 17L53 18L54 18L54 17L53 17L53 15L54 15L54 14L52 14L52 13L51 13L51 12L50 12L50 13L51 13L51 15L50 15L50 17L49 17L49 12L48 12L48 11L49 11L49 10L48 10L48 11L45 11L45 10L47 10L47 9L45 9L45 8L43 8L43 7L42 7L42 6L41 6L41 7L40 7L40 5L36 5L36 4L34 4L34 5L33 5L33 3L32 3L32 4L31 4L31 2L32 2L32 1ZM35 1L35 2L36 2L36 1ZM46 1L46 2L45 2L45 3L44 3L44 4L45 4L45 5L47 5L47 3L46 3L46 2L47 2L47 1ZM18 2L18 3L19 3L19 2ZM11 4L11 5L10 5L10 6L11 6L11 5L12 5L12 4ZM13 4L13 5L14 5L14 4ZM24 4L24 6L23 6L23 7L24 7L24 8L23 8L23 9L26 9L26 6L25 6L25 5L26 5L26 4ZM27 5L27 8L30 8L30 5ZM13 6L13 7L14 7L14 6ZM19 6L19 7L20 7L20 6ZM24 6L24 7L25 7L25 6ZM28 6L28 7L29 7L29 6ZM32 6L32 8L33 8L33 6ZM34 6L34 9L36 9L36 8L38 8L38 9L37 9L37 11L38 11L38 12L35 12L35 11L36 11L36 10L35 10L35 11L34 11L34 10L33 10L33 14L34 14L34 12L35 12L35 15L36 15L36 13L37 13L37 15L39 15L39 17L40 17L40 16L41 16L41 14L40 14L40 13L39 13L39 12L40 12L40 9L41 9L41 10L43 10L43 11L42 11L42 12L43 12L43 13L44 13L44 14L42 14L42 17L41 17L41 18L42 18L42 19L43 19L43 18L42 18L42 17L45 17L45 18L44 18L44 19L45 19L45 18L48 18L48 17L45 17L45 16L44 16L44 15L45 15L45 14L46 14L46 13L44 13L44 12L43 12L43 11L44 11L44 10L45 10L45 9L44 9L44 10L43 10L43 9L41 9L41 8L38 8L38 7L39 7L39 6L38 6L38 7L37 7L37 6L36 6L36 7L35 7L35 6ZM6 8L6 9L7 9L7 8ZM38 9L38 10L39 10L39 9ZM0 10L0 12L1 12L1 11L2 11L2 10ZM11 10L11 12L10 12L10 11L9 11L9 12L10 12L10 13L12 13L12 10ZM30 11L30 12L31 12L31 14L32 14L32 11ZM0 13L0 14L1 14L1 15L0 15L0 16L4 16L4 14L3 14L3 13ZM13 13L13 15L12 15L12 16L14 16L14 13ZM2 14L2 15L3 15L3 14ZM39 14L39 15L40 15L40 14ZM47 14L47 16L48 16L48 14ZM6 15L6 16L7 16L7 15ZM19 15L19 16L20 16L20 15ZM26 15L26 16L27 16L27 15ZM9 17L9 18L10 18L10 17ZM29 17L29 18L28 18L28 19L30 19L30 17ZM36 17L36 18L37 18L37 17ZM31 19L31 20L30 20L30 21L29 21L29 20L27 20L27 21L28 21L28 22L27 22L27 23L26 23L26 24L27 24L27 23L28 23L28 22L31 22L31 20L32 20L32 19ZM36 19L36 20L37 20L37 19ZM7 20L7 21L8 21L8 20ZM10 20L10 21L11 21L11 20ZM14 20L14 22L13 22L13 26L15 26L15 27L17 27L17 30L20 30L20 31L19 31L19 32L16 32L16 31L15 31L15 30L16 30L16 29L15 29L15 28L14 28L14 30L13 30L13 27L11 27L11 26L9 26L9 25L6 25L6 24L7 24L7 23L6 23L6 24L5 24L5 25L6 25L6 26L9 26L9 29L10 29L10 28L12 28L12 29L11 29L11 30L10 30L10 31L11 31L11 33L10 33L10 32L9 32L9 31L5 31L5 32L8 32L8 33L10 33L10 35L9 35L9 34L8 34L8 35L9 35L9 36L8 36L8 37L9 37L9 36L10 36L10 37L12 37L12 36L13 36L13 34L14 34L14 33L15 33L15 32L16 32L16 35L17 35L17 36L15 36L15 35L14 35L14 37L13 37L13 38L14 38L14 39L12 39L12 38L10 38L10 39L9 39L9 38L7 38L7 39L3 39L3 38L2 38L2 39L1 39L1 42L3 42L3 41L2 41L2 39L3 39L3 40L9 40L9 42L10 42L10 44L9 44L9 43L8 43L8 42L7 42L7 41L6 41L6 42L5 42L5 41L4 41L4 42L5 42L5 43L4 43L4 44L3 44L3 43L2 43L2 45L1 45L1 47L2 47L2 46L3 46L3 47L5 47L5 46L8 46L8 45L5 45L5 43L6 43L6 44L7 44L7 43L8 43L8 44L9 44L9 45L10 45L10 44L11 44L11 43L12 43L12 45L13 45L13 42L14 42L14 41L15 41L15 38L17 38L17 39L16 39L16 40L17 40L17 44L16 44L16 45L15 45L15 49L16 49L16 50L17 50L17 48L19 48L19 49L21 49L21 52L22 52L22 53L20 53L20 55L22 55L22 53L23 53L23 52L24 52L24 53L25 53L25 52L26 52L26 50L25 50L25 49L26 49L26 48L27 48L27 47L28 47L28 48L31 48L31 46L30 46L30 44L31 44L31 45L32 45L32 49L31 49L31 53L32 53L32 51L33 51L33 52L35 52L35 51L34 51L34 50L35 50L35 49L34 49L34 50L33 50L33 48L34 48L34 46L35 46L35 48L37 48L37 49L36 49L36 50L37 50L37 49L38 49L38 48L39 48L39 49L40 49L40 50L39 50L39 52L40 52L40 54L41 54L41 52L42 52L42 54L43 54L43 50L44 50L44 49L45 49L45 48L44 48L44 49L43 49L43 47L46 47L46 48L47 48L47 49L46 49L46 50L45 50L45 51L46 51L46 50L47 50L47 52L48 52L48 48L47 48L47 47L49 47L49 46L50 46L50 45L51 45L51 42L50 42L50 41L52 41L52 40L53 40L53 39L54 39L54 38L53 38L53 36L52 36L52 35L51 35L51 36L47 36L47 34L48 34L48 35L49 35L49 34L50 34L50 33L49 33L49 32L48 32L48 27L47 27L47 31L46 31L46 32L47 32L47 33L45 33L45 30L46 30L46 27L45 27L45 26L44 26L44 27L45 27L45 29L42 29L42 30L40 30L40 29L41 29L41 26L43 26L43 25L41 25L41 24L42 24L42 23L43 23L43 22L42 22L42 23L40 23L40 27L39 27L39 26L38 26L38 27L39 27L39 28L40 28L40 29L38 29L38 30L37 30L37 28L34 28L34 29L36 29L36 31L37 31L37 32L36 32L36 33L37 33L37 32L38 32L38 34L39 34L39 31L40 31L40 32L41 32L41 31L44 31L44 33L45 33L45 36L44 36L44 37L43 37L43 35L44 35L44 34L43 34L43 35L42 35L42 34L41 34L41 35L39 35L39 36L40 36L40 37L41 37L41 39L40 39L40 41L37 41L37 40L38 40L38 39L39 39L39 38L37 38L37 37L38 37L38 36L37 36L37 37L34 37L34 36L36 36L36 35L34 35L34 36L32 36L32 35L31 35L31 34L30 34L30 35L29 35L29 33L30 33L30 32L28 32L28 31L25 31L25 32L26 32L26 33L25 33L25 34L24 34L24 35L23 35L23 36L21 36L21 32L22 32L22 31L24 31L24 30L26 30L26 28L25 28L25 27L22 27L22 26L21 26L21 27L20 27L20 25L17 25L17 23L19 23L19 22L17 22L17 23L16 23L16 20ZM33 20L33 21L34 21L34 20ZM22 21L22 23L23 23L23 21ZM10 22L10 23L11 23L11 22ZM14 22L14 23L15 23L15 24L14 24L14 25L15 25L15 26L16 26L16 25L15 25L15 24L16 24L16 23L15 23L15 22ZM1 24L1 25L2 25L2 24ZM3 24L3 26L4 26L4 24ZM55 24L55 26L56 26L56 24ZM34 25L34 27L35 27L35 25ZM17 26L17 27L19 27L19 28L18 28L18 29L20 29L20 27L19 27L19 26ZM5 27L5 30L8 30L8 27ZM27 27L27 30L30 30L30 27ZM31 27L31 28L33 28L33 27ZM42 27L42 28L43 28L43 27ZM49 27L49 30L52 30L52 27ZM6 28L6 29L7 29L7 28ZM28 28L28 29L29 29L29 28ZM50 28L50 29L51 29L51 28ZM53 28L53 29L54 29L54 28ZM21 29L21 30L24 30L24 29ZM31 29L31 33L32 33L32 34L33 34L33 33L34 33L34 34L35 34L35 33L34 33L34 32L35 32L35 31L34 31L34 32L33 32L33 31L32 31L32 30L33 30L33 29ZM11 30L11 31L12 31L12 30ZM38 30L38 31L39 31L39 30ZM14 31L14 32L12 32L12 34L11 34L11 35L10 35L10 36L12 36L12 34L13 34L13 33L14 33L14 32L15 32L15 31ZM51 31L51 32L52 32L52 34L54 34L54 33L55 33L55 31ZM19 32L19 34L20 34L20 32ZM23 32L23 33L22 33L22 34L23 34L23 33L24 33L24 32ZM27 32L27 33L26 33L26 34L25 34L25 35L26 35L26 34L27 34L27 36L23 36L23 39L24 39L24 40L23 40L23 41L22 41L22 39L21 39L21 38L22 38L22 37L21 37L21 38L20 38L20 37L19 37L19 36L20 36L20 35L18 35L18 36L17 36L17 37L19 37L19 38L18 38L18 39L19 39L19 40L21 40L21 41L22 41L22 44L20 44L20 45L21 45L21 46L19 46L19 45L17 45L17 46L16 46L16 47L18 47L18 46L19 46L19 47L21 47L21 48L23 48L23 49L22 49L22 52L23 52L23 49L24 49L24 48L25 48L25 47L24 47L24 46L25 46L25 45L26 45L26 46L27 46L27 45L28 45L28 44L30 44L30 43L31 43L31 44L32 44L32 42L33 42L33 45L34 45L34 44L35 44L35 45L36 45L36 47L38 47L38 45L39 45L39 46L40 46L40 47L43 47L43 45L42 45L42 43L43 43L43 44L49 44L49 45L47 45L47 46L46 46L46 47L47 47L47 46L49 46L49 45L50 45L50 44L49 44L49 43L50 43L50 42L49 42L49 43L48 43L48 42L47 42L47 41L50 41L50 40L52 40L52 39L53 39L53 38L52 38L52 36L51 36L51 37L47 37L47 36L46 36L46 37L45 37L45 39L44 39L44 38L42 38L42 39L43 39L43 40L41 40L41 42L37 42L37 44L38 44L38 45L36 45L36 43L34 43L34 42L36 42L36 41L34 41L34 40L35 40L35 39L36 39L36 38L34 38L34 37L33 37L33 38L32 38L32 36L29 36L29 35L28 35L28 34L27 34L27 33L28 33L28 32ZM42 32L42 33L43 33L43 32ZM53 32L53 33L54 33L54 32ZM17 33L17 34L18 34L18 33ZM41 35L41 36L42 36L42 35ZM4 36L4 37L5 37L5 36ZM27 36L27 37L24 37L24 39L25 39L25 41L24 41L24 42L23 42L23 44L22 44L22 46L21 46L21 47L22 47L22 46L23 46L23 45L24 45L24 44L25 44L25 43L26 43L26 45L27 45L27 43L29 43L29 42L25 42L25 41L26 41L26 39L25 39L25 38L29 38L29 36ZM14 37L14 38L15 38L15 37ZM46 37L46 38L47 38L47 37ZM30 38L30 39L28 39L28 40L27 40L27 41L31 41L31 40L33 40L33 39L32 39L32 38ZM49 38L49 39L47 39L47 40L46 40L46 41L47 41L47 40L49 40L49 39L51 39L51 38ZM11 39L11 40L10 40L10 41L11 41L11 40L12 40L12 41L14 41L14 40L12 40L12 39ZM43 40L43 41L42 41L42 42L43 42L43 43L44 43L44 42L45 42L45 43L46 43L46 42L45 42L45 41L44 41L44 40ZM56 40L56 41L57 41L57 40ZM18 41L18 43L19 43L19 41ZM6 42L6 43L7 43L7 42ZM20 42L20 43L21 43L21 42ZM24 42L24 43L25 43L25 42ZM14 43L14 44L15 44L15 43ZM38 43L38 44L41 44L41 43ZM3 45L3 46L5 46L5 45ZM44 45L44 46L45 46L45 45ZM10 46L10 47L12 47L12 46ZM13 46L13 48L12 48L12 49L13 49L13 48L14 48L14 46ZM51 47L51 48L52 48L52 47ZM6 48L6 49L7 49L7 48ZM41 48L41 49L42 49L42 48ZM56 48L56 50L57 50L57 48ZM27 49L27 52L30 52L30 49ZM49 49L49 52L52 52L52 49ZM24 50L24 51L25 51L25 50ZM28 50L28 51L29 51L29 50ZM50 50L50 51L51 51L51 50ZM14 51L14 52L15 52L15 51ZM40 51L40 52L41 52L41 51ZM45 52L45 53L46 53L46 52ZM47 53L47 54L50 54L50 53ZM34 54L34 55L36 55L36 54ZM44 54L44 55L45 55L45 54ZM39 55L39 56L40 56L40 55ZM56 55L56 56L57 56L57 55ZM0 0L0 7L7 7L7 0ZM1 1L1 6L6 6L6 1ZM2 2L2 5L5 5L5 2ZM50 0L50 7L57 7L57 0ZM51 1L51 6L56 6L56 1ZM52 2L52 5L55 5L55 2ZM0 50L0 57L7 57L7 50ZM1 51L1 56L6 56L6 51ZM2 52L2 55L5 55L5 52Z" fill="#000000"/></g></g></svg>
