<?xml version="1.0" encoding="UTF-8"?>
<svg xmlns="http://www.w3.org/2000/svg" version="1.1" width="300" height="300" viewBox="0 0 300 300"><rect x="0" y="0" width="300" height="300" fill="#fefefe"/><g transform="scale(4.615)"><g transform="translate(4,4)"><path fill-rule="evenodd" d="M8 0L8 1L9 1L9 0ZM11 0L11 3L10 3L10 2L8 2L8 5L9 5L9 4L10 4L10 7L9 7L9 6L8 6L8 7L9 7L9 8L8 8L8 9L7 9L7 8L6 8L6 9L5 9L5 10L4 10L4 8L0 8L0 9L1 9L1 11L0 11L0 13L1 13L1 12L3 12L3 13L4 13L4 11L5 11L5 10L6 10L6 11L7 11L7 10L8 10L8 11L11 11L11 10L12 10L12 11L13 11L13 13L12 13L12 12L11 12L11 16L12 16L12 18L11 18L11 17L10 17L10 15L9 15L9 18L10 18L10 19L9 19L9 20L11 20L11 22L10 22L10 21L9 21L9 23L8 23L8 25L7 25L7 24L6 24L6 25L5 25L5 23L4 23L4 22L3 22L3 23L2 23L2 26L1 26L1 25L0 25L0 26L1 26L1 27L0 27L0 30L1 30L1 29L2 29L2 28L4 28L4 31L3 31L3 30L2 30L2 31L3 31L3 32L0 32L0 33L2 33L2 34L1 34L1 35L0 35L0 36L4 36L4 40L2 40L2 39L1 39L1 38L3 38L3 37L1 37L1 38L0 38L0 39L1 39L1 41L0 41L0 42L1 42L1 41L3 41L3 42L2 42L2 43L1 43L1 44L0 44L0 45L1 45L1 46L0 46L0 48L5 48L5 47L7 47L7 48L6 48L6 49L8 49L8 50L9 50L9 53L8 53L8 57L9 57L9 55L10 55L10 57L11 57L11 56L12 56L12 57L13 57L13 56L12 56L12 55L13 55L13 54L14 54L14 55L15 55L15 56L14 56L14 57L18 57L18 55L20 55L20 56L19 56L19 57L20 57L20 56L21 56L21 57L24 57L24 56L25 56L25 55L24 55L24 56L23 56L23 54L26 54L26 55L27 55L27 56L28 56L28 55L27 55L27 53L29 53L29 54L31 54L31 55L30 55L30 56L31 56L31 57L32 57L32 55L33 55L33 54L36 54L36 55L34 55L34 56L33 56L33 57L36 57L36 55L37 55L37 54L36 54L36 53L34 53L34 52L36 52L36 51L37 51L37 52L38 52L38 53L39 53L39 54L38 54L38 57L43 57L43 55L44 55L44 54L45 54L45 56L46 56L46 57L48 57L48 56L49 56L49 57L51 57L51 54L52 54L52 53L54 53L54 54L53 54L53 56L52 56L52 57L55 57L55 56L54 56L54 55L55 55L55 54L56 54L56 53L57 53L57 51L56 51L56 53L54 53L54 52L55 52L55 50L53 50L53 48L54 48L54 49L55 49L55 48L54 48L54 47L53 47L53 46L55 46L55 47L57 47L57 44L52 44L52 43L53 43L53 42L54 42L54 43L56 43L56 42L57 42L57 40L56 40L56 41L55 41L55 42L54 42L54 41L53 41L53 40L55 40L55 38L56 38L56 39L57 39L57 38L56 38L56 37L57 37L57 34L55 34L55 33L57 33L57 31L56 31L56 30L57 30L57 27L53 27L53 26L51 26L51 25L50 25L50 24L49 24L49 21L48 21L48 20L50 20L50 21L51 21L51 22L52 22L52 23L51 23L51 24L53 24L53 25L55 25L55 26L56 26L56 24L54 24L54 23L53 23L53 20L50 20L50 18L48 18L48 17L46 17L46 15L45 15L45 14L46 14L46 13L44 13L44 12L43 12L43 11L42 11L42 10L44 10L44 7L45 7L45 6L46 6L46 8L45 8L45 9L47 9L47 10L45 10L45 11L47 11L47 10L50 10L50 11L49 11L49 17L51 17L51 18L52 18L52 19L56 19L56 18L57 18L57 15L55 15L55 14L53 14L53 13L54 13L54 10L53 10L53 9L55 9L55 12L56 12L56 13L57 13L57 12L56 12L56 11L57 11L57 10L56 10L56 9L57 9L57 8L56 8L56 9L55 9L55 8L52 8L52 9L51 9L51 10L50 10L50 8L49 8L49 9L48 9L48 8L47 8L47 5L48 5L48 0L45 0L45 1L44 1L44 2L42 2L42 3L41 3L41 4L37 4L37 1L38 1L38 0L37 0L37 1L36 1L36 0L35 0L35 1L34 1L34 2L31 2L31 1L33 1L33 0L30 0L30 2L31 2L31 4L26 4L26 2L24 2L24 3L23 3L23 4L21 4L21 5L20 5L20 4L19 4L19 3L18 3L18 2L21 2L21 3L22 3L22 0L21 0L21 1L20 1L20 0L18 0L18 2L17 2L17 3L18 3L18 7L19 7L19 8L20 8L20 7L21 7L21 6L22 6L22 7L23 7L23 8L21 8L21 9L23 9L23 10L20 10L20 9L19 9L19 12L18 12L18 10L17 10L17 12L16 12L16 8L15 8L15 6L16 6L16 7L17 7L17 5L15 5L15 4L14 4L14 3L13 3L13 2L12 2L12 0ZM13 0L13 1L14 1L14 0ZM23 0L23 1L26 1L26 0ZM27 0L27 2L28 2L28 1L29 1L29 0ZM39 0L39 1L40 1L40 2L41 2L41 1L43 1L43 0L41 0L41 1L40 1L40 0ZM15 1L15 3L16 3L16 1ZM35 1L35 2L36 2L36 1ZM45 1L45 3L44 3L44 4L45 4L45 5L43 5L43 4L41 4L41 5L42 5L42 6L41 6L41 7L40 7L40 5L36 5L36 4L35 4L35 3L32 3L32 4L31 4L31 5L32 5L32 6L31 6L31 9L32 9L32 10L30 10L30 11L27 11L27 10L26 10L26 11L25 11L25 13L24 13L24 11L20 11L20 12L19 12L19 13L18 13L18 12L17 12L17 13L16 13L16 12L15 12L15 15L14 15L14 16L15 16L15 17L17 17L17 19L18 19L18 21L17 21L17 22L21 22L21 23L20 23L20 24L21 24L21 26L20 26L20 25L17 25L17 24L18 24L18 23L16 23L16 20L14 20L14 26L13 26L13 27L12 27L12 25L13 25L13 23L12 23L12 22L13 22L13 19L15 19L15 18L14 18L14 17L13 17L13 18L12 18L12 22L11 22L11 23L10 23L10 25L8 25L8 26L10 26L10 25L11 25L11 27L10 27L10 28L9 28L9 31L10 31L10 32L11 32L11 33L12 33L12 34L10 34L10 33L9 33L9 34L7 34L7 33L8 33L8 32L7 32L7 31L4 31L4 32L3 32L3 33L5 33L5 32L7 32L7 33L6 33L6 34L7 34L7 35L6 35L6 36L7 36L7 37L6 37L6 38L7 38L7 37L9 37L9 38L8 38L8 40L7 40L7 39L6 39L6 40L5 40L5 43L4 43L4 44L3 44L3 43L2 43L2 46L1 46L1 47L2 47L2 46L3 46L3 47L5 47L5 46L9 46L9 45L11 45L11 46L12 46L12 48L14 48L14 49L13 49L13 50L12 50L12 49L11 49L11 47L10 47L10 48L9 48L9 47L8 47L8 49L9 49L9 50L11 50L11 51L10 51L10 52L12 52L12 53L10 53L10 54L11 54L11 55L12 55L12 54L13 54L13 53L16 53L16 54L17 54L17 53L18 53L18 54L19 54L19 49L17 49L17 48L18 48L18 47L20 47L20 49L21 49L21 50L22 50L22 51L21 51L21 53L20 53L20 55L21 55L21 56L22 56L22 54L23 54L23 52L24 52L24 53L25 53L25 52L26 52L26 51L24 51L24 50L25 50L25 49L26 49L26 48L32 48L32 49L31 49L31 53L32 53L32 49L33 49L33 48L32 48L32 45L33 45L33 47L34 47L34 46L35 46L35 44L36 44L36 46L37 46L37 45L38 45L38 47L35 47L35 48L34 48L34 50L33 50L33 52L34 52L34 51L35 51L35 48L37 48L37 49L36 49L36 50L37 50L37 49L38 49L38 48L39 48L39 49L40 49L40 50L39 50L39 52L40 52L40 54L41 54L41 53L42 53L42 54L43 54L43 51L45 51L45 53L46 53L46 51L45 51L45 48L46 48L46 46L47 46L47 47L49 47L49 48L51 48L51 47L52 47L52 46L53 46L53 45L52 45L52 44L51 44L51 42L50 42L50 41L52 41L52 40L53 40L53 39L52 39L52 38L55 38L55 37L53 37L53 36L52 36L52 35L51 35L51 36L50 36L50 37L51 37L51 36L52 36L52 38L49 38L49 37L48 37L48 36L47 36L47 34L48 34L48 35L49 35L49 34L50 34L50 33L49 33L49 32L51 32L51 31L49 31L49 32L48 32L48 29L47 29L47 31L46 31L46 33L45 33L45 30L46 30L46 26L47 26L47 25L46 25L46 24L45 24L45 23L43 23L43 22L42 22L42 23L43 23L43 24L41 24L41 23L38 23L38 24L39 24L39 26L38 26L38 27L40 27L40 29L38 29L38 30L37 30L37 27L36 27L36 28L34 28L34 29L36 29L36 30L35 30L35 31L32 31L32 29L31 29L31 33L32 33L32 34L34 34L34 36L36 36L36 35L35 35L35 33L33 33L33 32L35 32L35 31L37 31L37 32L36 32L36 33L37 33L37 32L38 32L38 34L39 34L39 31L38 31L38 30L41 30L41 31L40 31L40 32L41 32L41 31L44 31L44 34L46 34L46 35L45 35L45 36L44 36L44 37L43 37L43 35L42 35L42 34L41 34L41 35L37 35L37 37L34 37L34 38L33 38L33 36L32 36L32 35L31 35L31 34L30 34L30 35L29 35L29 33L30 33L30 31L28 31L28 33L27 33L27 34L26 34L26 33L25 33L25 34L24 34L24 35L23 35L23 36L21 36L21 32L22 32L22 31L25 31L25 32L27 32L27 31L25 31L25 30L26 30L26 28L25 28L25 27L22 27L22 25L23 25L23 26L25 26L25 25L28 25L28 26L29 26L29 24L28 24L28 23L30 23L30 24L31 24L31 23L32 23L32 22L33 22L33 24L32 24L32 25L33 25L33 24L35 24L35 23L36 23L36 24L37 24L37 22L35 22L35 20L36 20L36 21L37 21L37 20L40 20L40 19L39 19L39 18L41 18L41 20L43 20L43 21L44 21L44 22L47 22L47 21L45 21L45 20L46 20L46 18L45 18L45 17L42 17L42 14L43 14L43 12L42 12L42 11L40 11L40 9L39 9L39 8L41 8L41 9L42 9L42 8L43 8L43 7L44 7L44 6L45 6L45 5L47 5L47 3L46 3L46 2L47 2L47 1ZM38 2L38 3L39 3L39 2ZM11 3L11 5L12 5L12 6L11 6L11 8L9 8L9 9L11 9L11 8L12 8L12 9L14 9L14 11L15 11L15 8L14 8L14 6L15 6L15 5L14 5L14 4L13 4L13 3ZM12 4L12 5L13 5L13 6L12 6L12 7L13 7L13 6L14 6L14 5L13 5L13 4ZM24 4L24 6L23 6L23 7L24 7L24 8L23 8L23 9L26 9L26 6L25 6L25 5L26 5L26 4ZM33 4L33 6L32 6L32 8L33 8L33 6L34 6L34 9L36 9L36 8L38 8L38 7L39 7L39 6L38 6L38 7L37 7L37 6L36 6L36 7L35 7L35 6L34 6L34 4ZM27 5L27 8L30 8L30 5ZM19 6L19 7L20 7L20 6ZM24 6L24 7L25 7L25 6ZM28 6L28 7L29 7L29 6ZM42 6L42 7L41 7L41 8L42 8L42 7L43 7L43 6ZM48 6L48 7L49 7L49 6ZM17 8L17 9L18 9L18 8ZM2 9L2 11L3 11L3 9ZM6 9L6 10L7 10L7 9ZM37 9L37 10L38 10L38 12L36 12L36 10L35 10L35 11L34 11L34 10L33 10L33 11L32 11L32 12L33 12L33 13L31 13L31 14L30 14L30 13L28 13L28 12L26 12L26 13L27 13L27 14L25 14L25 15L24 15L24 14L23 14L23 18L22 18L22 17L21 17L21 18L20 18L20 19L23 19L23 18L24 18L24 19L25 19L25 20L27 20L27 21L25 21L25 22L24 22L24 21L23 21L23 20L21 20L21 22L22 22L22 23L23 23L23 25L25 25L25 22L27 22L27 23L26 23L26 24L27 24L27 23L28 23L28 22L31 22L31 21L30 21L30 20L32 20L32 19L30 19L30 17L29 17L29 16L31 16L31 17L32 17L32 18L33 18L33 21L34 21L34 19L35 19L35 17L34 17L34 16L35 16L35 15L33 15L33 14L34 14L34 12L35 12L35 14L36 14L36 15L39 15L39 17L40 17L40 16L41 16L41 13L40 13L40 15L39 15L39 10L38 10L38 9ZM51 10L51 12L50 12L50 13L51 13L51 15L53 15L53 14L52 14L52 13L53 13L53 10ZM30 11L30 12L31 12L31 11ZM6 12L6 13L5 13L5 15L4 15L4 16L2 16L2 17L4 17L4 18L3 18L3 19L2 19L2 18L1 18L1 16L0 16L0 18L1 18L1 19L2 19L2 20L3 20L3 19L4 19L4 20L5 20L5 22L6 22L6 23L7 23L7 22L8 22L8 21L7 21L7 20L6 20L6 19L8 19L8 18L6 18L6 17L8 17L8 16L5 16L5 15L8 15L8 14L10 14L10 13L8 13L8 12ZM22 12L22 13L23 13L23 12ZM51 12L51 13L52 13L52 12ZM6 13L6 14L7 14L7 13ZM13 13L13 14L12 14L12 16L13 16L13 14L14 14L14 13ZM19 13L19 14L20 14L20 15L19 15L19 16L20 16L20 15L21 15L21 13ZM16 14L16 15L15 15L15 16L16 16L16 15L18 15L18 14ZM47 14L47 16L48 16L48 14ZM26 15L26 16L27 16L27 15ZM28 15L28 16L29 16L29 15ZM31 15L31 16L32 16L32 15ZM44 15L44 16L45 16L45 15ZM4 16L4 17L5 17L5 16ZM52 16L52 17L53 17L53 18L54 18L54 17L55 17L55 18L56 18L56 17L55 17L55 16ZM24 17L24 18L25 18L25 19L27 19L27 20L29 20L29 19L28 19L28 18L29 18L29 17L27 17L27 18L26 18L26 17ZM36 17L36 18L37 18L37 17ZM41 17L41 18L42 18L42 19L43 19L43 18L42 18L42 17ZM4 18L4 19L5 19L5 18ZM18 18L18 19L19 19L19 18ZM44 18L44 19L45 19L45 18ZM36 19L36 20L37 20L37 19ZM47 19L47 20L48 20L48 19ZM54 20L54 21L55 21L55 20ZM0 21L0 22L2 22L2 21ZM6 21L6 22L7 22L7 21ZM22 21L22 22L23 22L23 21ZM27 21L27 22L28 22L28 21ZM38 21L38 22L39 22L39 21ZM56 21L56 22L55 22L55 23L57 23L57 21ZM0 23L0 24L1 24L1 23ZM3 23L3 25L4 25L4 26L2 26L2 27L1 27L1 28L2 28L2 27L4 27L4 26L5 26L5 25L4 25L4 23ZM11 23L11 25L12 25L12 23ZM15 23L15 26L14 26L14 27L13 27L13 30L12 30L12 29L10 29L10 30L11 30L11 31L12 31L12 33L13 33L13 34L15 34L15 36L14 36L14 35L11 35L11 37L10 37L10 38L9 38L9 42L8 42L8 43L9 43L9 44L8 44L8 45L9 45L9 44L11 44L11 45L12 45L12 46L14 46L14 47L15 47L15 51L14 51L14 52L16 52L16 48L17 48L17 47L18 47L18 46L20 46L20 45L21 45L21 46L22 46L22 47L21 47L21 48L23 48L23 49L22 49L22 50L23 50L23 49L24 49L24 46L25 46L25 45L26 45L26 46L27 46L27 47L28 47L28 46L27 46L27 45L29 45L29 46L31 46L31 45L29 45L29 43L32 43L32 42L33 42L33 45L34 45L34 44L35 44L35 43L34 43L34 42L36 42L36 41L34 41L34 40L35 40L35 39L36 39L36 38L35 38L35 39L33 39L33 38L32 38L32 36L29 36L29 35L28 35L28 34L27 34L27 36L29 36L29 38L27 38L27 37L26 37L26 36L23 36L23 39L22 39L22 40L21 40L21 38L20 38L20 37L19 37L19 36L17 36L17 34L20 34L20 33L18 33L18 32L19 32L19 31L18 31L18 30L17 30L17 28L15 28L15 29L16 29L16 30L14 30L14 27L16 27L16 23ZM43 24L43 25L44 25L44 26L42 26L42 27L41 27L41 25L40 25L40 27L41 27L41 30L42 30L42 29L43 29L43 30L45 30L45 27L44 27L44 26L46 26L46 25L44 25L44 24ZM48 24L48 26L49 26L49 24ZM6 25L6 26L7 26L7 25ZM30 25L30 26L31 26L31 25ZM34 25L34 27L35 27L35 25ZM17 26L17 27L19 27L19 26ZM5 27L5 30L8 30L8 27ZM11 27L11 28L12 28L12 27ZM27 27L27 30L30 30L30 27ZM32 27L32 28L33 28L33 27ZM42 27L42 28L44 28L44 27ZM47 27L47 28L48 28L48 27ZM49 27L49 30L52 30L52 27ZM6 28L6 29L7 29L7 28ZM18 28L18 29L21 29L21 30L24 30L24 29L21 29L21 28ZM28 28L28 29L29 29L29 28ZM50 28L50 29L51 29L51 28ZM53 28L53 32L52 32L52 34L54 34L54 33L55 33L55 30L56 30L56 28L55 28L55 29L54 29L54 28ZM16 30L16 32L15 32L15 31L14 31L14 32L15 32L15 34L17 34L17 33L16 33L16 32L17 32L17 30ZM23 32L23 33L22 33L22 34L23 34L23 33L24 33L24 32ZM42 32L42 33L43 33L43 32ZM4 34L4 35L5 35L5 34ZM9 34L9 35L8 35L8 36L9 36L9 35L10 35L10 34ZM25 34L25 35L26 35L26 34ZM41 35L41 36L42 36L42 35ZM54 35L54 36L55 36L55 35ZM15 36L15 37L13 37L13 39L12 39L12 40L11 40L11 42L9 42L9 43L11 43L11 44L12 44L12 45L13 45L13 44L12 44L12 42L14 42L14 41L15 41L15 40L14 40L14 41L12 41L12 40L13 40L13 39L15 39L15 38L17 38L17 39L16 39L16 41L17 41L17 39L18 39L18 38L19 38L19 37L18 37L18 38L17 38L17 36ZM39 36L39 37L37 37L37 39L38 39L38 40L37 40L37 41L40 41L40 42L42 42L42 43L40 43L40 44L38 44L38 43L39 43L39 42L37 42L37 44L38 44L38 45L41 45L41 46L40 46L40 47L43 47L43 49L44 49L44 45L42 45L42 43L43 43L43 44L47 44L47 43L48 43L48 44L49 44L49 43L50 43L50 42L47 42L47 41L50 41L50 40L51 40L51 39L49 39L49 40L47 40L47 39L48 39L48 38L46 38L46 36L45 36L45 38L46 38L46 41L45 41L45 39L44 39L44 38L42 38L42 39L43 39L43 40L41 40L41 41L40 41L40 39L41 39L41 37L40 37L40 36ZM11 37L11 38L10 38L10 39L11 39L11 38L12 38L12 37ZM24 37L24 39L23 39L23 40L22 40L22 41L19 41L19 40L18 40L18 41L19 41L19 42L21 42L21 44L22 44L22 46L23 46L23 44L22 44L22 41L23 41L23 40L24 40L24 39L25 39L25 41L24 41L24 42L23 42L23 43L26 43L26 45L27 45L27 42L25 42L25 41L26 41L26 40L27 40L27 41L29 41L29 42L30 42L30 41L31 41L31 40L33 40L33 39L32 39L32 38L30 38L30 39L28 39L28 40L27 40L27 39L26 39L26 37ZM6 40L6 41L7 41L7 40ZM29 40L29 41L30 41L30 40ZM43 40L43 41L42 41L42 42L43 42L43 43L44 43L44 40ZM6 42L6 43L7 43L7 42ZM15 42L15 43L14 43L14 46L16 46L16 47L17 47L17 45L19 45L19 43L18 43L18 42ZM46 42L46 43L47 43L47 42ZM16 43L16 44L15 44L15 45L17 45L17 43ZM4 44L4 45L3 45L3 46L4 46L4 45L7 45L7 44ZM47 45L47 46L49 46L49 47L51 47L51 46L49 46L49 45ZM55 45L55 46L56 46L56 45ZM41 48L41 49L42 49L42 48ZM47 48L47 49L46 49L46 50L47 50L47 52L48 52L48 48ZM56 48L56 49L57 49L57 48ZM27 49L27 52L30 52L30 49ZM49 49L49 52L52 52L52 49ZM28 50L28 51L29 51L29 50ZM50 50L50 51L51 51L51 50ZM40 51L40 52L42 52L42 51ZM21 53L21 54L22 54L22 53ZM48 53L48 54L50 54L50 53ZM40 55L40 56L42 56L42 55ZM46 55L46 56L48 56L48 55ZM56 55L56 56L57 56L57 55ZM0 0L0 7L7 7L7 0ZM1 1L1 6L6 6L6 1ZM2 2L2 5L5 5L5 2ZM50 0L50 7L57 7L57 0ZM51 1L51 6L56 6L56 1ZM52 2L52 5L55 5L55 2ZM0 50L0 57L7 57L7 50ZM1 51L1 56L6 56L6 51ZM2 52L2 55L5 55L5 52Z" fill="#000000"/></g></g></svg>
