<?xml version="1.0" encoding="UTF-8"?>
<svg xmlns="http://www.w3.org/2000/svg" version="1.1" width="300" height="300" viewBox="0 0 300 300"><rect x="0" y="0" width="300" height="300" fill="#fefefe"/><g transform="scale(4.615)"><g transform="translate(4,4)"><path fill-rule="evenodd" d="M10 0L10 1L12 1L12 2L13 2L13 4L14 4L14 2L16 2L16 3L17 3L17 5L20 5L20 7L19 7L19 6L18 6L18 7L17 7L17 6L16 6L16 7L15 7L15 6L14 6L14 7L13 7L13 5L12 5L12 4L10 4L10 3L11 3L11 2L10 2L10 3L8 3L8 4L10 4L10 5L8 5L8 7L9 7L9 8L6 8L6 9L5 9L5 8L0 8L0 9L2 9L2 10L3 10L3 11L1 11L1 13L0 13L0 15L2 15L2 16L4 16L4 17L1 17L1 16L0 16L0 18L2 18L2 19L4 19L4 20L6 20L6 21L7 21L7 22L4 22L4 21L3 21L3 22L2 22L2 24L6 24L6 25L8 25L8 26L4 26L4 29L3 29L3 26L2 26L2 25L0 25L0 28L1 28L1 27L2 27L2 29L1 29L1 30L0 30L0 32L1 32L1 30L2 30L2 32L3 32L3 34L2 34L2 33L0 33L0 37L1 37L1 38L0 38L0 42L1 42L1 41L2 41L2 40L3 40L3 42L2 42L2 43L0 43L0 44L1 44L1 45L0 45L0 48L5 48L5 47L7 47L7 46L5 46L5 47L3 47L3 45L4 45L4 44L3 44L3 43L5 43L5 45L7 45L7 44L6 44L6 43L7 43L7 42L6 42L6 41L7 41L7 40L6 40L6 41L5 41L5 38L4 38L4 37L1 37L1 34L2 34L2 36L5 36L5 35L7 35L7 36L6 36L6 37L7 37L7 38L6 38L6 39L7 39L7 38L8 38L8 39L9 39L9 40L10 40L10 41L8 41L8 42L10 42L10 48L9 48L9 49L8 49L8 51L9 51L9 52L8 52L8 57L11 57L11 56L13 56L13 57L14 57L14 56L15 56L15 57L16 57L16 56L17 56L17 57L20 57L20 56L18 56L18 55L20 55L20 54L19 54L19 53L20 53L20 52L21 52L21 51L22 51L22 50L26 50L26 52L24 52L24 53L23 53L23 54L22 54L22 55L21 55L21 56L23 56L23 57L26 57L26 56L24 56L24 55L23 55L23 54L24 54L24 53L27 53L27 54L30 54L30 53L31 53L31 50L32 50L32 52L33 52L33 51L34 51L34 52L35 52L35 54L36 54L36 56L35 56L35 55L34 55L34 54L33 54L33 53L32 53L32 54L31 54L31 56L30 56L30 55L29 55L29 56L27 56L27 57L29 57L29 56L30 56L30 57L31 57L31 56L35 56L35 57L39 57L39 56L37 56L37 55L40 55L40 56L41 56L41 57L44 57L44 56L41 56L41 54L42 54L42 55L44 55L44 54L45 54L45 57L47 57L47 56L50 56L50 57L52 57L52 55L51 55L51 53L52 53L52 54L53 54L53 55L54 55L54 56L53 56L53 57L54 57L54 56L55 56L55 57L56 57L56 56L55 56L55 54L53 54L53 52L54 52L54 53L55 53L55 51L56 51L56 52L57 52L57 51L56 51L56 50L57 50L57 48L56 48L56 46L57 46L57 45L56 45L56 44L55 44L55 43L56 43L56 42L57 42L57 41L56 41L56 42L55 42L55 39L57 39L57 35L56 35L56 34L55 34L55 32L56 32L56 33L57 33L57 32L56 32L56 30L57 30L57 29L56 29L56 28L55 28L55 27L56 27L56 26L57 26L57 25L56 25L56 22L57 22L57 21L56 21L56 22L54 22L54 21L51 21L51 20L52 20L52 19L53 19L53 20L55 20L55 19L56 19L56 20L57 20L57 19L56 19L56 18L57 18L57 17L56 17L56 16L57 16L57 15L56 15L56 14L57 14L57 12L55 12L55 11L56 11L56 10L54 10L54 11L52 11L52 10L53 10L53 9L54 9L54 8L53 8L53 9L52 9L52 8L51 8L51 9L52 9L52 10L50 10L50 8L49 8L49 9L47 9L47 8L48 8L48 7L49 7L49 6L48 6L48 7L47 7L47 5L48 5L48 0L45 0L45 1L47 1L47 2L44 2L44 3L41 3L41 2L43 2L43 0L41 0L41 1L40 1L40 0L39 0L39 1L38 1L38 0L37 0L37 1L38 1L38 3L41 3L41 4L40 4L40 5L39 5L39 6L38 6L38 7L37 7L37 5L38 5L38 4L37 4L37 3L36 3L36 0L35 0L35 1L33 1L33 0L29 0L29 2L28 2L28 3L29 3L29 2L31 2L31 1L32 1L32 3L31 3L31 4L26 4L26 3L23 3L23 4L19 4L19 3L20 3L20 0L18 0L18 1L15 1L15 0L14 0L14 2L13 2L13 0ZM21 0L21 3L22 3L22 2L27 2L27 1L25 1L25 0L23 0L23 1L22 1L22 0ZM8 1L8 2L9 2L9 1ZM33 2L33 3L32 3L32 4L31 4L31 8L32 8L32 10L31 10L31 11L30 11L30 10L28 10L28 9L27 9L27 10L28 10L28 11L29 11L29 12L28 12L28 13L26 13L26 12L27 12L27 11L26 11L26 12L25 12L25 11L23 11L23 12L25 12L25 13L26 13L26 14L27 14L27 15L26 15L26 16L23 16L23 15L21 15L21 13L22 13L22 14L23 14L23 13L22 13L22 12L21 12L21 13L20 13L20 12L19 12L19 13L20 13L20 15L19 15L19 16L20 16L20 18L19 18L19 19L20 19L20 21L17 21L17 20L18 20L18 19L17 19L17 17L15 17L15 16L14 16L14 17L13 17L13 16L12 16L12 17L11 17L11 16L9 16L9 15L10 15L10 14L9 14L9 15L8 15L8 13L6 13L6 12L7 12L7 11L6 11L6 10L8 10L8 12L9 12L9 13L10 13L10 12L11 12L11 13L12 13L12 11L13 11L13 12L14 12L14 11L13 11L13 10L15 10L15 11L16 11L16 12L15 12L15 13L13 13L13 14L12 14L12 15L13 15L13 14L15 14L15 13L16 13L16 16L18 16L18 15L17 15L17 13L18 13L18 12L17 12L17 11L18 11L18 10L17 10L17 9L16 9L16 8L17 8L17 7L16 7L16 8L14 8L14 9L13 9L13 10L12 10L12 11L11 11L11 10L10 10L10 8L11 8L11 7L12 7L12 8L13 8L13 7L12 7L12 6L11 6L11 7L10 7L10 6L9 6L9 7L10 7L10 8L9 8L9 10L8 10L8 9L6 9L6 10L4 10L4 12L3 12L3 13L2 13L2 14L4 14L4 15L5 15L5 16L9 16L9 18L8 18L8 20L7 20L7 19L6 19L6 18L7 18L7 17L6 17L6 18L5 18L5 17L4 17L4 19L6 19L6 20L7 20L7 21L8 21L8 22L7 22L7 23L6 23L6 24L7 24L7 23L8 23L8 24L9 24L9 25L11 25L11 26L12 26L12 28L11 28L11 29L12 29L12 30L11 30L11 31L12 31L12 30L13 30L13 29L14 29L14 32L20 32L20 31L23 31L23 32L21 32L21 33L13 33L13 32L11 32L11 33L10 33L10 34L11 34L11 35L12 35L12 37L10 37L10 38L9 38L9 36L10 36L10 35L8 35L8 38L9 38L9 39L10 39L10 38L12 38L12 43L13 43L13 44L12 44L12 45L13 45L13 48L14 48L14 47L15 47L15 48L18 48L18 47L20 47L20 48L21 48L21 49L19 49L19 50L20 50L20 51L19 51L19 52L20 52L20 51L21 51L21 49L23 49L23 47L24 47L24 49L26 49L26 48L30 48L30 47L29 47L29 45L31 45L31 46L32 46L32 45L33 45L33 46L35 46L35 48L34 48L34 47L33 47L33 48L32 48L32 50L34 50L34 51L35 51L35 50L36 50L36 52L38 52L38 54L40 54L40 53L41 53L41 52L43 52L43 51L45 51L45 52L44 52L44 53L43 53L43 54L44 54L44 53L45 53L45 54L46 54L46 55L47 55L47 54L48 54L48 50L47 50L47 49L48 49L48 48L53 48L53 49L55 49L55 50L54 50L54 51L55 51L55 50L56 50L56 48L53 48L53 47L54 47L54 46L53 46L53 43L54 43L54 42L53 42L53 41L54 41L54 40L53 40L53 39L52 39L52 40L53 40L53 41L51 41L51 42L50 42L50 43L49 43L49 42L48 42L48 41L49 41L49 39L47 39L47 37L48 37L48 38L49 38L49 36L50 36L50 39L51 39L51 38L53 38L53 35L55 35L55 36L56 36L56 35L55 35L55 34L54 34L54 33L52 33L52 31L48 31L48 30L47 30L47 29L48 29L48 28L47 28L47 29L46 29L46 30L47 30L47 31L45 31L45 30L44 30L44 29L45 29L45 28L46 28L46 27L48 27L48 26L47 26L47 24L46 24L46 22L47 22L47 23L48 23L48 24L50 24L50 22L51 22L51 21L49 21L49 20L47 20L47 19L46 19L46 18L47 18L47 17L48 17L48 16L49 16L49 15L50 15L50 16L51 16L51 17L50 17L50 19L51 19L51 17L53 17L53 18L55 18L55 17L53 17L53 15L52 15L52 16L51 16L51 15L50 15L50 14L51 14L51 12L50 12L50 10L49 10L49 12L45 12L45 11L44 11L44 14L41 14L41 13L43 13L43 11L41 11L41 12L40 12L40 11L39 11L39 13L38 13L38 14L37 14L37 13L36 13L36 14L37 14L37 15L35 15L35 16L32 16L32 14L35 14L35 11L36 11L36 10L37 10L37 9L38 9L38 10L41 10L41 9L43 9L43 7L44 7L44 6L45 6L45 8L44 8L44 10L47 10L47 11L48 11L48 10L47 10L47 9L45 9L45 8L46 8L46 5L47 5L47 3L44 3L44 6L43 6L43 5L42 5L42 6L41 6L41 5L40 5L40 6L39 6L39 7L40 7L40 8L39 8L39 9L38 9L38 8L37 8L37 7L36 7L36 5L37 5L37 4L36 4L36 5L35 5L35 4L33 4L33 3L35 3L35 2ZM15 4L15 5L16 5L16 4ZM23 4L23 5L24 5L24 4ZM25 4L25 8L24 8L24 6L23 6L23 8L20 8L20 11L22 11L22 10L23 10L23 8L24 8L24 9L25 9L25 8L26 8L26 4ZM32 4L32 5L33 5L33 6L32 6L32 7L33 7L33 9L34 9L34 8L35 8L35 9L37 9L37 8L35 8L35 5L33 5L33 4ZM45 4L45 5L46 5L46 4ZM27 5L27 8L30 8L30 5ZM21 6L21 7L22 7L22 6ZM28 6L28 7L29 7L29 6ZM33 6L33 7L34 7L34 6ZM40 6L40 7L41 7L41 6ZM42 6L42 7L43 7L43 6ZM55 8L55 9L56 9L56 8ZM15 9L15 10L16 10L16 11L17 11L17 10L16 10L16 9ZM21 9L21 10L22 10L22 9ZM9 10L9 12L10 12L10 10ZM32 10L32 11L31 11L31 13L30 13L30 14L29 14L29 13L28 13L28 14L29 14L29 16L28 16L28 15L27 15L27 16L28 16L28 17L27 17L27 18L28 18L28 19L27 19L27 20L28 20L28 19L30 19L30 20L31 20L31 21L28 21L28 22L29 22L29 23L27 23L27 21L26 21L26 19L25 19L25 18L26 18L26 17L22 17L22 16L21 16L21 15L20 15L20 16L21 16L21 17L22 17L22 18L24 18L24 19L23 19L23 20L24 20L24 21L21 21L21 23L22 23L22 22L24 22L24 21L25 21L25 22L26 22L26 23L25 23L25 24L24 24L24 23L23 23L23 25L22 25L22 24L20 24L20 25L19 25L19 23L20 23L20 22L17 22L17 21L16 21L16 20L17 20L17 19L16 19L16 18L15 18L15 21L16 21L16 22L14 22L14 21L13 21L13 22L12 22L12 21L11 21L11 20L10 20L10 19L12 19L12 20L14 20L14 19L13 19L13 17L12 17L12 18L11 18L11 17L10 17L10 18L9 18L9 20L8 20L8 21L11 21L11 23L9 23L9 24L11 24L11 25L13 25L13 24L15 24L15 25L17 25L17 27L18 27L18 26L20 26L20 27L19 27L19 28L21 28L21 29L22 29L22 28L21 28L21 27L22 27L22 26L23 26L23 31L25 31L25 33L23 33L23 34L22 34L22 33L21 33L21 34L22 34L22 36L23 36L23 37L24 37L24 38L23 38L23 39L24 39L24 40L23 40L23 42L22 42L22 41L21 41L21 42L22 42L22 43L21 43L21 44L20 44L20 43L19 43L19 42L20 42L20 41L19 41L19 40L22 40L22 38L21 38L21 37L19 37L19 35L20 35L20 36L21 36L21 35L20 35L20 34L14 34L14 35L13 35L13 34L12 34L12 35L13 35L13 36L14 36L14 35L16 35L16 36L17 36L17 35L18 35L18 37L17 37L17 38L18 38L18 39L17 39L17 40L18 40L18 41L17 41L17 42L18 42L18 43L16 43L16 44L18 44L18 45L17 45L17 47L18 47L18 46L20 46L20 45L21 45L21 47L23 47L23 46L25 46L25 45L24 45L24 44L23 44L23 43L25 43L25 44L27 44L27 45L26 45L26 47L25 47L25 48L26 48L26 47L28 47L28 46L27 46L27 45L29 45L29 43L32 43L32 44L31 44L31 45L32 45L32 44L33 44L33 43L34 43L34 45L37 45L37 47L36 47L36 48L35 48L35 49L36 49L36 50L38 50L38 52L39 52L39 51L40 51L40 52L41 52L41 50L42 50L42 51L43 51L43 49L44 49L44 48L43 48L43 47L44 47L44 46L43 46L43 45L44 45L44 41L43 41L43 40L45 40L45 41L47 41L47 39L46 39L46 38L45 38L45 37L47 37L47 35L46 35L46 34L45 34L45 35L44 35L44 33L43 33L43 32L45 32L45 31L44 31L44 30L43 30L43 29L44 29L44 28L45 28L45 27L46 27L46 26L45 26L45 27L44 27L44 26L43 26L43 25L44 25L44 24L43 24L43 23L44 23L44 20L45 20L45 18L46 18L46 16L45 16L45 18L44 18L44 15L47 15L47 16L48 16L48 15L49 15L49 14L50 14L50 12L49 12L49 13L47 13L47 14L44 14L44 15L42 15L42 16L41 16L41 15L39 15L39 14L38 14L38 15L39 15L39 16L38 16L38 17L37 17L37 16L35 16L35 17L37 17L37 18L38 18L38 17L39 17L39 19L37 19L37 20L36 20L36 19L30 19L30 18L32 18L32 16L31 16L31 15L30 15L30 14L32 14L32 12L33 12L33 13L34 13L34 12L33 12L33 10ZM5 11L5 12L6 12L6 11ZM16 12L16 13L17 13L17 12ZM52 12L52 13L53 13L53 14L54 14L54 15L55 15L55 14L56 14L56 13L55 13L55 12L54 12L54 13L53 13L53 12ZM5 13L5 15L7 15L7 14L6 14L6 13ZM54 13L54 14L55 14L55 13ZM24 14L24 15L25 15L25 14ZM39 16L39 17L41 17L41 16ZM42 16L42 17L43 17L43 16ZM20 18L20 19L21 19L21 20L22 20L22 19L21 19L21 18ZM41 18L41 20L38 20L38 23L37 23L37 24L38 24L38 26L37 26L37 25L33 25L33 24L32 24L32 23L33 23L33 22L34 22L34 23L35 23L35 21L33 21L33 20L32 20L32 21L31 21L31 22L30 22L30 23L29 23L29 24L25 24L25 25L26 25L26 26L24 26L24 27L26 27L26 26L27 26L27 25L29 25L29 24L32 24L32 26L31 26L31 27L32 27L32 29L33 29L33 30L36 30L36 31L35 31L35 32L32 32L32 30L31 30L31 31L30 31L30 32L29 32L29 33L28 33L28 32L27 32L27 33L25 33L25 34L27 34L27 35L26 35L26 36L25 36L25 40L24 40L24 41L25 41L25 43L27 43L27 44L28 44L28 42L29 42L29 41L31 41L31 42L32 42L32 43L33 43L33 42L34 42L34 43L35 43L35 44L36 44L36 43L37 43L37 42L35 42L35 40L38 40L38 42L39 42L39 41L42 41L42 40L43 40L43 39L45 39L45 40L46 40L46 39L45 39L45 38L44 38L44 37L45 37L45 36L44 36L44 35L43 35L43 34L42 34L42 35L41 35L41 36L40 36L40 37L38 37L38 39L35 39L35 40L33 40L33 39L29 39L29 38L31 38L31 37L29 37L29 36L30 36L30 34L29 34L29 33L31 33L31 35L32 35L32 33L33 33L33 34L35 34L35 36L37 36L37 34L35 34L35 32L37 32L37 33L38 33L38 36L39 36L39 35L40 35L40 34L39 34L39 33L41 33L41 32L43 32L43 30L41 30L41 29L43 29L43 28L44 28L44 27L43 27L43 26L40 26L40 27L39 27L39 25L43 25L43 24L42 24L42 23L41 23L41 24L38 24L38 23L40 23L40 22L39 22L39 21L43 21L43 20L44 20L44 18L43 18L43 19L42 19L42 18ZM48 18L48 19L49 19L49 18ZM0 20L0 21L1 21L1 20ZM47 21L47 22L49 22L49 21ZM13 22L13 23L11 23L11 24L13 24L13 23L14 23L14 22ZM15 23L15 24L16 24L16 23ZM17 23L17 24L18 24L18 23ZM45 24L45 25L46 25L46 24ZM51 24L51 25L50 25L50 26L53 26L53 27L54 27L54 26L53 26L53 25L55 25L55 26L56 26L56 25L55 25L55 24ZM20 25L20 26L22 26L22 25ZM9 26L9 27L10 27L10 26ZM13 26L13 28L12 28L12 29L13 29L13 28L15 28L15 27L16 27L16 26ZM32 26L32 27L33 27L33 28L35 28L35 29L38 29L38 28L39 28L39 27L36 27L36 26L34 26L34 27L33 27L33 26ZM5 27L5 30L8 30L8 27ZM27 27L27 30L30 30L30 27ZM35 27L35 28L36 28L36 27ZM41 27L41 28L42 28L42 27ZM49 27L49 30L52 30L52 27ZM6 28L6 29L7 29L7 28ZM9 28L9 29L10 29L10 28ZM16 28L16 29L15 29L15 31L16 31L16 29L18 29L18 31L19 31L19 30L20 30L20 29L18 29L18 28ZM25 28L25 29L26 29L26 28ZM28 28L28 29L29 29L29 28ZM50 28L50 29L51 29L51 28ZM54 28L54 29L55 29L55 28ZM2 29L2 30L3 30L3 29ZM39 29L39 30L38 30L38 32L39 32L39 30L40 30L40 29ZM9 30L9 31L3 31L3 32L5 32L5 34L3 34L3 35L5 35L5 34L9 34L9 33L8 33L8 32L9 32L9 31L10 31L10 30ZM47 31L47 32L48 32L48 33L49 33L49 32L48 32L48 31ZM6 32L6 33L7 33L7 32ZM31 32L31 33L32 33L32 32ZM50 32L50 34L48 34L48 35L50 35L50 36L52 36L52 35L53 35L53 34L52 34L52 33L51 33L51 32ZM23 34L23 36L24 36L24 34ZM50 34L50 35L52 35L52 34ZM33 35L33 36L32 36L32 37L33 37L33 38L35 38L35 37L33 37L33 36L34 36L34 35ZM41 36L41 37L40 37L40 38L41 38L41 39L42 39L42 38L43 38L43 37L44 37L44 36ZM12 37L12 38L13 38L13 40L14 40L14 41L15 41L15 40L16 40L16 39L14 39L14 38L16 38L16 37L14 37L14 38L13 38L13 37ZM18 37L18 38L19 38L19 39L20 39L20 38L19 38L19 37ZM26 37L26 40L28 40L28 39L27 39L27 38L28 38L28 37ZM54 37L54 38L55 38L55 37ZM1 38L1 40L2 40L2 39L3 39L3 38ZM38 39L38 40L40 40L40 39ZM31 40L31 41L32 41L32 42L33 42L33 41L32 41L32 40ZM10 41L10 42L11 42L11 41ZM18 41L18 42L19 42L19 41ZM26 41L26 42L27 42L27 41ZM5 42L5 43L6 43L6 42ZM45 42L45 43L46 43L46 44L45 44L45 45L47 45L47 46L45 46L45 47L46 47L46 48L45 48L45 50L46 50L46 53L47 53L47 50L46 50L46 49L47 49L47 48L48 48L48 47L50 47L50 46L51 46L51 47L52 47L52 46L51 46L51 45L52 45L52 44L51 44L51 43L53 43L53 42L51 42L51 43L50 43L50 46L49 46L49 44L48 44L48 45L47 45L47 43L48 43L48 42ZM8 43L8 47L9 47L9 43ZM40 43L40 44L39 44L39 45L38 45L38 46L39 46L39 47L38 47L38 48L37 48L37 49L38 49L38 50L41 50L41 48L42 48L42 49L43 49L43 48L42 48L42 47L43 47L43 46L41 46L41 44L42 44L42 43ZM19 44L19 45L20 45L20 44ZM21 44L21 45L22 45L22 46L23 46L23 45L22 45L22 44ZM54 44L54 45L55 45L55 46L56 46L56 45L55 45L55 44ZM14 45L14 46L15 46L15 45ZM1 46L1 47L2 47L2 46ZM40 46L40 47L39 47L39 48L38 48L38 49L39 49L39 48L41 48L41 46ZM11 47L11 48L10 48L10 50L9 50L9 51L10 51L10 52L11 52L11 53L9 53L9 56L11 56L11 55L12 55L12 53L13 53L13 54L14 54L14 55L13 55L13 56L14 56L14 55L15 55L15 56L16 56L16 55L15 55L15 54L16 54L16 53L17 53L17 52L16 52L16 53L13 53L13 52L11 52L11 51L13 51L13 50L11 50L11 48L12 48L12 47ZM6 48L6 49L7 49L7 48ZM15 49L15 50L14 50L14 52L15 52L15 51L17 51L17 49ZM27 49L27 52L30 52L30 49ZM49 49L49 52L52 52L52 49ZM10 50L10 51L11 51L11 50ZM28 50L28 51L29 51L29 50ZM50 50L50 51L51 51L51 50ZM10 54L10 55L11 55L11 54ZM17 54L17 55L18 55L18 54ZM25 54L25 55L26 55L26 54ZM50 55L50 56L51 56L51 55ZM0 0L0 7L7 7L7 0ZM1 1L1 6L6 6L6 1ZM2 2L2 5L5 5L5 2ZM50 0L50 7L57 7L57 0ZM51 1L51 6L56 6L56 1ZM52 2L52 5L55 5L55 2ZM0 50L0 57L7 57L7 50ZM1 51L1 56L6 56L6 51ZM2 52L2 55L5 55L5 52Z" fill="#000000"/></g></g></svg>
