<?xml version="1.0" encoding="UTF-8"?>
<svg xmlns="http://www.w3.org/2000/svg" version="1.1" width="300" height="300" viewBox="0 0 300 300"><rect x="0" y="0" width="300" height="300" fill="#fefefe"/><g transform="scale(4.615)"><g transform="translate(4,4)"><path fill-rule="evenodd" d="M10 0L10 2L11 2L11 3L10 3L10 5L11 5L11 6L10 6L10 7L11 7L11 6L12 6L12 8L13 8L13 9L14 9L14 7L15 7L15 8L16 8L16 9L15 9L15 10L11 10L11 9L10 9L10 8L6 8L6 9L8 9L8 10L6 10L6 11L5 11L5 12L6 12L6 13L4 13L4 12L3 12L3 11L4 11L4 9L5 9L5 8L0 8L0 10L1 10L1 11L2 11L2 12L3 12L3 13L2 13L2 14L3 14L3 13L4 13L4 14L5 14L5 15L3 15L3 17L2 17L2 15L1 15L1 13L0 13L0 15L1 15L1 16L0 16L0 20L2 20L2 22L1 22L1 21L0 21L0 25L1 25L1 24L2 24L2 26L1 26L1 27L2 27L2 29L3 29L3 28L4 28L4 30L2 30L2 32L1 32L1 30L0 30L0 32L1 32L1 34L0 34L0 37L2 37L2 38L3 38L3 39L2 39L2 40L3 40L3 41L1 41L1 42L0 42L0 45L1 45L1 46L0 46L0 48L5 48L5 47L7 47L7 48L6 48L6 49L8 49L8 51L9 51L9 50L10 50L10 52L8 52L8 57L9 57L9 55L10 55L10 56L11 56L11 57L12 57L12 56L13 56L13 57L14 57L14 55L16 55L16 56L15 56L15 57L16 57L16 56L17 56L17 57L20 57L20 56L17 56L17 54L19 54L19 55L20 55L20 54L19 54L19 53L20 53L20 52L23 52L23 51L19 51L19 50L20 50L20 49L21 49L21 50L25 50L25 49L26 49L26 52L24 52L24 53L21 53L21 54L22 54L22 55L21 55L21 56L24 56L24 57L26 57L26 56L24 56L24 55L23 55L23 54L24 54L24 53L27 53L27 54L30 54L30 53L31 53L31 50L32 50L32 47L36 47L36 48L35 48L35 49L36 49L36 50L34 50L34 49L33 49L33 50L34 50L34 51L35 51L35 54L36 54L36 56L35 56L35 55L33 55L33 53L34 53L34 52L33 52L33 51L32 51L32 52L33 52L33 53L32 53L32 54L31 54L31 56L30 56L30 55L29 55L29 56L27 56L27 57L29 57L29 56L30 56L30 57L31 57L31 56L35 56L35 57L39 57L39 56L37 56L37 55L40 55L40 56L42 56L42 55L44 55L44 54L45 54L45 53L44 53L44 52L47 52L47 50L48 50L48 54L47 54L47 55L45 55L45 57L47 57L47 55L48 55L48 56L50 56L50 57L52 57L52 55L51 55L51 53L52 53L52 54L54 54L54 53L55 53L55 52L57 52L57 51L54 51L54 50L57 50L57 48L56 48L56 46L57 46L57 45L56 45L56 44L55 44L55 43L56 43L56 42L55 42L55 39L57 39L57 37L55 37L55 36L56 36L56 34L55 34L55 32L56 32L56 33L57 33L57 32L56 32L56 30L57 30L57 29L56 29L56 28L57 28L57 27L56 27L56 26L57 26L57 25L56 25L56 22L57 22L57 21L56 21L56 22L55 22L55 23L54 23L54 24L53 24L53 25L52 25L52 26L50 26L50 25L51 25L51 24L52 24L52 23L53 23L53 22L54 22L54 21L51 21L51 20L52 20L52 19L53 19L53 20L55 20L55 19L56 19L56 20L57 20L57 19L56 19L56 18L57 18L57 17L56 17L56 16L57 16L57 15L56 15L56 14L57 14L57 12L56 12L56 14L55 14L55 15L53 15L53 14L54 14L54 12L55 12L55 11L56 11L56 10L54 10L54 11L53 11L53 9L54 9L54 8L53 8L53 9L52 9L52 8L51 8L51 10L52 10L52 11L50 11L50 8L49 8L49 6L48 6L48 7L47 7L47 5L48 5L48 0L46 0L46 1L47 1L47 2L44 2L44 3L42 3L42 2L43 2L43 0L41 0L41 1L40 1L40 0L39 0L39 1L38 1L38 0L37 0L37 1L38 1L38 2L37 2L37 3L36 3L36 0L35 0L35 1L33 1L33 0L32 0L32 1L31 1L31 0L27 0L27 1L26 1L26 0L23 0L23 2L25 2L25 1L26 1L26 2L27 2L27 3L28 3L28 2L29 2L29 1L30 1L30 2L32 2L32 3L31 3L31 4L26 4L26 3L23 3L23 4L24 4L24 5L23 5L23 6L22 6L22 8L23 8L23 10L22 10L22 9L21 9L21 10L22 10L22 11L20 11L20 9L19 9L19 8L21 8L21 5L22 5L22 4L19 4L19 3L18 3L18 0L17 0L17 4L18 4L18 5L17 5L17 6L16 6L16 7L15 7L15 6L14 6L14 7L13 7L13 4L14 4L14 2L15 2L15 3L16 3L16 1L14 1L14 0L13 0L13 1L14 1L14 2L13 2L13 3L12 3L12 2L11 2L11 1L12 1L12 0ZM21 0L21 1L22 1L22 0ZM8 1L8 2L9 2L9 1ZM19 1L19 2L20 2L20 3L22 3L22 2L20 2L20 1ZM32 1L32 2L33 2L33 3L32 3L32 4L31 4L31 8L32 8L32 10L29 10L29 9L28 9L28 10L29 10L29 12L28 12L28 13L26 13L26 12L27 12L27 11L26 11L26 12L25 12L25 10L23 10L23 12L25 12L25 13L26 13L26 14L25 14L25 15L26 15L26 16L23 16L23 15L21 15L21 13L22 13L22 14L23 14L23 13L22 13L22 12L19 12L19 13L20 13L20 14L19 14L19 15L20 15L20 18L19 18L19 19L16 19L16 18L17 18L17 17L16 17L16 16L18 16L18 14L17 14L17 13L18 13L18 12L17 12L17 13L16 13L16 12L15 12L15 13L13 13L13 12L14 12L14 11L13 11L13 12L12 12L12 11L11 11L11 10L10 10L10 9L9 9L9 10L8 10L8 11L6 11L6 12L7 12L7 13L6 13L6 14L7 14L7 15L5 15L5 16L4 16L4 17L5 17L5 18L4 18L4 19L3 19L3 18L2 18L2 17L1 17L1 19L2 19L2 20L4 20L4 21L5 21L5 22L7 22L7 23L6 23L6 24L9 24L9 25L10 25L10 23L11 23L11 24L12 24L12 25L11 25L11 28L10 28L10 27L9 27L9 28L10 28L10 29L11 29L11 28L12 28L12 31L13 31L13 30L14 30L14 32L13 32L13 35L12 35L12 32L10 32L10 31L11 31L11 30L10 30L10 31L9 31L9 32L10 32L10 38L11 38L11 39L10 39L10 42L12 42L12 41L11 41L11 39L13 39L13 35L15 35L15 37L16 37L16 38L14 38L14 39L16 39L16 40L15 40L15 41L13 41L13 44L12 44L12 43L10 43L10 44L11 44L11 45L12 45L12 47L13 47L13 48L15 48L15 50L13 50L13 49L12 49L12 50L11 50L11 46L10 46L10 45L9 45L9 43L8 43L8 41L6 41L6 42L5 42L5 37L6 37L6 38L7 38L7 39L6 39L6 40L7 40L7 39L8 39L8 40L9 40L9 39L8 39L8 38L9 38L9 35L8 35L8 38L7 38L7 37L6 37L6 36L7 36L7 35L6 35L6 34L8 34L8 33L5 33L5 32L7 32L7 31L4 31L4 33L2 33L2 34L4 34L4 35L3 35L3 36L4 36L4 39L3 39L3 40L4 40L4 41L3 41L3 42L1 42L1 44L3 44L3 47L5 47L5 46L4 46L4 44L5 44L5 45L6 45L6 46L7 46L7 47L8 47L8 48L10 48L10 50L11 50L11 54L10 54L10 53L9 53L9 54L10 54L10 55L11 55L11 56L12 56L12 50L13 50L13 51L16 51L16 53L15 53L15 52L13 52L13 54L16 54L16 53L17 53L17 48L18 48L18 47L17 47L17 45L18 45L18 44L16 44L16 43L15 43L15 41L16 41L16 42L17 42L17 43L18 43L18 42L19 42L19 41L16 41L16 40L19 40L19 39L20 39L20 38L19 38L19 37L21 37L21 38L24 38L24 37L23 37L23 36L24 36L24 34L23 34L23 33L25 33L25 35L26 35L26 36L27 36L27 37L28 37L28 38L27 38L27 39L28 39L28 40L26 40L26 37L25 37L25 40L24 40L24 39L22 39L22 40L20 40L20 42L21 42L21 43L20 43L20 44L21 44L21 45L20 45L20 46L21 46L21 45L22 45L22 46L24 46L24 45L25 45L25 48L24 48L24 47L21 47L21 49L23 49L23 48L24 48L24 49L25 49L25 48L27 48L27 47L28 47L28 48L29 48L29 47L28 47L28 46L29 46L29 45L30 45L30 44L29 44L29 45L28 45L28 44L25 44L25 43L29 43L29 40L32 40L32 41L30 41L30 42L32 42L32 43L31 43L31 44L32 44L32 45L31 45L31 47L32 47L32 45L33 45L33 46L35 46L35 45L34 45L34 43L37 43L37 42L35 42L35 40L38 40L38 42L39 42L39 41L41 41L41 38L42 38L42 39L43 39L43 40L44 40L44 41L43 41L43 42L44 42L44 41L45 41L45 44L44 44L44 43L43 43L43 44L44 44L44 45L43 45L43 46L41 46L41 48L39 48L39 47L38 47L38 48L37 48L37 49L38 49L38 50L36 50L36 52L37 52L37 51L38 51L38 53L37 53L37 54L40 54L40 53L41 53L41 52L40 52L40 51L38 51L38 50L41 50L41 51L42 51L42 50L41 50L41 48L42 48L42 49L43 49L43 48L44 48L44 50L47 50L47 49L48 49L48 48L49 48L49 47L51 47L51 48L52 48L52 47L55 47L55 46L56 46L56 45L55 45L55 44L54 44L54 45L55 45L55 46L53 46L53 43L54 43L54 42L53 42L53 41L54 41L54 40L53 40L53 41L51 41L51 42L50 42L50 43L49 43L49 42L48 42L48 41L49 41L49 40L50 40L50 39L52 39L52 38L53 38L53 39L55 39L55 38L54 38L54 37L53 37L53 35L55 35L55 34L54 34L54 32L53 32L53 31L52 31L52 32L51 32L51 33L52 33L52 34L50 34L50 31L48 31L48 29L46 29L46 30L47 30L47 31L48 31L48 32L46 32L46 31L45 31L45 30L44 30L44 31L45 31L45 32L43 32L43 30L41 30L41 29L43 29L43 27L44 27L44 26L42 26L42 25L41 25L41 24L42 24L42 23L41 23L41 24L38 24L38 22L39 22L39 23L40 23L40 22L39 22L39 21L43 21L43 20L44 20L44 25L45 25L45 26L46 26L46 27L45 27L45 28L44 28L44 29L45 29L45 28L46 28L46 27L47 27L47 25L48 25L48 24L49 24L49 25L50 25L50 24L51 24L51 23L50 23L50 22L51 22L51 21L49 21L49 22L47 22L47 21L48 21L48 20L47 20L47 19L48 19L48 18L47 18L47 17L48 17L48 16L49 16L49 17L50 17L50 19L52 19L52 18L51 18L51 17L53 17L53 18L56 18L56 17L55 17L55 16L52 16L52 15L51 15L51 17L50 17L50 14L51 14L51 12L50 12L50 11L49 11L49 12L45 12L45 11L46 11L46 10L47 10L47 9L48 9L48 8L47 8L47 7L46 7L46 5L47 5L47 3L44 3L44 6L43 6L43 5L40 5L40 4L41 4L41 3L39 3L39 2L38 2L38 3L39 3L39 4L38 4L38 5L37 5L37 4L36 4L36 5L35 5L35 4L33 4L33 3L35 3L35 2L33 2L33 1ZM8 3L8 4L9 4L9 3ZM11 3L11 5L12 5L12 3ZM15 4L15 5L16 5L16 4ZM25 4L25 8L26 8L26 4ZM32 4L32 5L33 5L33 6L32 6L32 7L33 7L33 9L34 9L34 8L35 8L35 9L37 9L37 10L36 10L36 11L35 11L35 13L36 13L36 14L32 14L32 12L33 12L33 13L34 13L34 12L33 12L33 10L32 10L32 11L31 11L31 13L30 13L30 14L29 14L29 13L28 13L28 14L29 14L29 16L28 16L28 15L27 15L27 14L26 14L26 15L27 15L27 16L26 16L26 18L25 18L25 17L22 17L22 16L21 16L21 17L22 17L22 19L21 19L21 18L20 18L20 20L17 20L17 21L16 21L16 19L15 19L15 21L16 21L16 22L15 22L15 23L16 23L16 24L15 24L15 25L12 25L12 28L13 28L13 29L14 29L14 30L15 30L15 31L16 31L16 29L18 29L18 30L20 30L20 27L22 27L22 26L24 26L24 27L25 27L25 28L26 28L26 29L23 29L23 31L20 31L20 33L19 33L19 31L17 31L17 32L16 32L16 33L17 33L17 34L16 34L16 35L17 35L17 34L18 34L18 37L17 37L17 39L19 39L19 38L18 38L18 37L19 37L19 36L21 36L21 35L22 35L22 36L23 36L23 35L22 35L22 33L21 33L21 32L25 32L25 31L26 31L26 33L27 33L27 32L28 32L28 33L29 33L29 34L30 34L30 36L29 36L29 37L31 37L31 38L29 38L29 39L33 39L33 40L35 40L35 39L38 39L38 40L40 40L40 39L38 39L38 36L39 36L39 37L40 37L40 38L41 38L41 37L42 37L42 38L43 38L43 37L44 37L44 38L45 38L45 37L44 37L44 36L45 36L45 35L47 35L47 34L45 34L45 33L46 33L46 32L45 32L45 33L43 33L43 32L41 32L41 33L39 33L39 34L40 34L40 35L38 35L38 33L37 33L37 32L35 32L35 34L37 34L37 36L35 36L35 35L32 35L32 34L33 34L33 33L34 33L34 32L33 32L33 33L32 33L32 31L35 31L35 30L32 30L32 27L33 27L33 28L35 28L35 29L38 29L38 28L40 28L40 27L41 27L41 28L42 28L42 26L41 26L41 25L39 25L39 26L40 26L40 27L36 27L36 26L34 26L34 27L33 27L33 26L32 26L32 24L33 24L33 25L37 25L37 26L38 26L38 24L37 24L37 22L38 22L38 21L39 21L39 20L41 20L41 18L42 18L42 19L43 19L43 18L44 18L44 20L46 20L46 19L47 19L47 18L44 18L44 15L45 15L45 17L47 17L47 16L48 16L48 15L49 15L49 14L50 14L50 12L49 12L49 13L47 13L47 14L44 14L44 12L43 12L43 13L41 13L41 14L38 14L38 13L39 13L39 11L40 11L40 12L41 12L41 10L42 10L42 11L43 11L43 9L44 9L44 11L45 11L45 10L46 10L46 9L44 9L44 8L43 8L43 6L42 6L42 7L41 7L41 6L40 6L40 5L39 5L39 6L38 6L38 9L37 9L37 8L35 8L35 5L33 5L33 4ZM45 4L45 5L46 5L46 4ZM8 5L8 7L9 7L9 5ZM18 5L18 6L17 6L17 7L16 7L16 8L17 8L17 9L16 9L16 10L15 10L15 11L18 11L18 10L19 10L19 9L18 9L18 8L19 8L19 7L20 7L20 5ZM27 5L27 8L30 8L30 5ZM36 5L36 7L37 7L37 5ZM18 6L18 7L19 7L19 6ZM23 6L23 8L24 8L24 6ZM28 6L28 7L29 7L29 6ZM33 6L33 7L34 7L34 6ZM39 6L39 9L38 9L38 10L37 10L37 11L38 11L38 10L39 10L39 9L42 9L42 8L41 8L41 7L40 7L40 6ZM44 6L44 7L45 7L45 6ZM55 8L55 9L56 9L56 8ZM17 9L17 10L18 10L18 9ZM8 11L8 12L9 12L9 11ZM10 12L10 13L9 13L9 14L8 14L8 15L7 15L7 16L6 16L6 17L8 17L8 18L10 18L10 19L8 19L8 22L9 22L9 23L10 23L10 21L9 21L9 20L10 20L10 19L12 19L12 22L11 22L11 23L12 23L12 24L13 24L13 23L14 23L14 21L13 21L13 20L14 20L14 19L13 19L13 18L14 18L14 16L16 16L16 13L15 13L15 14L12 14L12 13L11 13L11 12ZM52 12L52 13L53 13L53 12ZM9 14L9 16L10 16L10 14ZM30 14L30 15L32 15L32 17L33 17L33 18L30 18L30 19L28 19L28 18L27 18L27 19L26 19L26 20L25 20L25 21L24 21L24 20L20 20L20 21L18 21L18 22L17 22L17 24L16 24L16 25L15 25L15 26L13 26L13 28L14 28L14 29L16 29L16 28L18 28L18 29L19 29L19 27L20 27L20 26L22 26L22 25L23 25L23 23L24 23L24 24L25 24L25 25L26 25L26 26L25 26L25 27L26 27L26 26L27 26L27 25L29 25L29 26L30 26L30 25L31 25L31 24L32 24L32 23L35 23L35 21L34 21L34 20L32 20L32 21L31 21L31 19L36 19L36 20L37 20L37 21L38 21L38 20L37 20L37 19L39 19L39 17L41 17L41 16L42 16L42 17L43 17L43 16L42 16L42 15L44 15L44 14L41 14L41 16L39 16L39 15L38 15L38 14L37 14L37 15L35 15L35 16L33 16L33 15L32 15L32 14ZM11 15L11 16L12 16L12 17L11 17L11 18L12 18L12 17L13 17L13 16L12 16L12 15ZM27 16L27 17L28 17L28 16ZM35 16L35 17L37 17L37 18L38 18L38 17L39 17L39 16L38 16L38 17L37 17L37 16ZM15 17L15 18L16 18L16 17ZM6 18L6 19L4 19L4 20L5 20L5 21L7 21L7 20L6 20L6 19L7 19L7 18ZM23 18L23 19L24 19L24 18ZM21 21L21 23L23 23L23 22L24 22L24 21L23 21L23 22L22 22L22 21ZM25 21L25 22L26 22L26 23L25 23L25 24L27 24L27 21ZM28 21L28 22L30 22L30 24L29 24L29 23L28 23L28 24L29 24L29 25L30 25L30 24L31 24L31 21ZM45 21L45 22L46 22L46 23L47 23L47 24L48 24L48 23L47 23L47 22L46 22L46 21ZM2 22L2 24L4 24L4 22ZM18 22L18 23L20 23L20 22ZM49 23L49 24L50 24L50 23ZM17 24L17 25L18 25L18 26L15 26L15 27L14 27L14 28L16 28L16 27L18 27L18 26L20 26L20 25L21 25L21 24L20 24L20 25L19 25L19 24ZM54 24L54 25L55 25L55 26L56 26L56 25L55 25L55 24ZM5 25L5 26L7 26L7 25ZM31 26L31 27L32 27L32 26ZM53 26L53 27L54 27L54 26ZM5 27L5 30L8 30L8 27ZM27 27L27 30L30 30L30 27ZM35 27L35 28L36 28L36 27ZM49 27L49 30L52 30L52 27ZM55 27L55 28L54 28L54 29L53 29L53 30L54 30L54 29L55 29L55 28L56 28L56 27ZM0 28L0 29L1 29L1 28ZM6 28L6 29L7 29L7 28ZM21 28L21 29L22 29L22 28ZM28 28L28 29L29 29L29 28ZM50 28L50 29L51 29L51 28ZM39 29L39 30L38 30L38 32L39 32L39 30L40 30L40 29ZM28 31L28 32L29 32L29 33L31 33L31 34L32 34L32 33L31 33L31 31L30 31L30 32L29 32L29 31ZM17 32L17 33L18 33L18 34L19 34L19 35L21 35L21 33L20 33L20 34L19 34L19 33L18 33L18 32ZM48 32L48 33L49 33L49 32ZM52 32L52 33L53 33L53 32ZM26 34L26 35L27 35L27 34ZM42 34L42 35L41 35L41 36L40 36L40 37L41 37L41 36L44 36L44 35L45 35L45 34ZM48 34L48 35L50 35L50 36L51 36L51 37L50 37L50 38L47 38L47 39L46 39L46 40L45 40L45 39L44 39L44 40L45 40L45 41L47 41L47 39L50 39L50 38L51 38L51 37L52 37L52 35L53 35L53 34L52 34L52 35L50 35L50 34ZM1 35L1 36L2 36L2 35ZM4 35L4 36L5 36L5 35ZM11 35L11 38L12 38L12 35ZM32 36L32 37L33 37L33 39L35 39L35 36ZM0 39L0 40L1 40L1 39ZM21 41L21 42L22 42L22 43L21 43L21 44L22 44L22 45L24 45L24 44L23 44L23 42L25 42L25 41L23 41L23 42L22 42L22 41ZM26 41L26 42L27 42L27 41ZM32 41L32 42L33 42L33 43L32 43L32 44L33 44L33 43L34 43L34 42L33 42L33 41ZM6 42L6 43L7 43L7 42ZM41 42L41 43L39 43L39 45L38 45L38 46L39 46L39 45L41 45L41 44L42 44L42 42ZM46 42L46 44L45 44L45 45L47 45L47 43L48 43L48 42ZM51 42L51 43L50 43L50 44L48 44L48 45L49 45L49 46L48 46L48 47L47 47L47 46L45 46L45 47L44 47L44 46L43 46L43 47L42 47L42 48L43 48L43 47L44 47L44 48L45 48L45 47L47 47L47 48L48 48L48 47L49 47L49 46L51 46L51 47L52 47L52 46L51 46L51 45L50 45L50 44L51 44L51 43L53 43L53 42ZM6 44L6 45L7 45L7 46L9 46L9 45L7 45L7 44ZM14 44L14 45L15 45L15 44ZM26 45L26 47L27 47L27 46L28 46L28 45ZM1 46L1 47L2 47L2 46ZM13 46L13 47L15 47L15 48L16 48L16 47L15 47L15 46ZM19 47L19 49L20 49L20 47ZM38 48L38 49L39 49L39 48ZM53 48L53 49L56 49L56 48ZM27 49L27 52L30 52L30 49ZM49 49L49 52L52 52L52 49ZM28 50L28 51L29 51L29 50ZM50 50L50 51L51 51L51 50ZM53 52L53 53L54 53L54 52ZM43 53L43 54L44 54L44 53ZM25 54L25 55L26 55L26 54ZM50 55L50 56L51 56L51 55ZM53 55L53 56L55 56L55 57L56 57L56 56L55 56L55 55ZM43 56L43 57L44 57L44 56ZM0 0L0 7L7 7L7 0ZM1 1L1 6L6 6L6 1ZM2 2L2 5L5 5L5 2ZM50 0L50 7L57 7L57 0ZM51 1L51 6L56 6L56 1ZM52 2L52 5L55 5L55 2ZM0 50L0 57L7 57L7 50ZM1 51L1 56L6 56L6 51ZM2 52L2 55L5 55L5 52Z" fill="#000000"/></g></g></svg>
