<?xml version="1.0" encoding="UTF-8"?>
<svg xmlns="http://www.w3.org/2000/svg" version="1.1" width="300" height="300" viewBox="0 0 300 300"><rect x="0" y="0" width="300" height="300" fill="#fefefe"/><g transform="scale(4.615)"><g transform="translate(4,4)"><path fill-rule="evenodd" d="M9 0L9 1L8 1L8 2L9 2L9 3L8 3L8 4L11 4L11 3L12 3L12 5L10 5L10 7L9 7L9 5L8 5L8 7L9 7L9 8L6 8L6 9L8 9L8 10L10 10L10 12L11 12L11 13L10 13L10 14L9 14L9 12L8 12L8 11L7 11L7 10L6 10L6 11L7 11L7 12L4 12L4 11L5 11L5 10L4 10L4 11L2 11L2 9L5 9L5 8L0 8L0 9L1 9L1 11L2 11L2 12L4 12L4 13L3 13L3 14L2 14L2 13L1 13L1 12L0 12L0 13L1 13L1 15L0 15L0 17L1 17L1 18L0 18L0 19L1 19L1 20L2 20L2 21L3 21L3 20L4 20L4 19L5 19L5 21L7 21L7 22L6 22L6 23L7 23L7 24L5 24L5 23L3 23L3 22L2 22L2 23L1 23L1 21L0 21L0 27L1 27L1 29L0 29L0 30L2 30L2 31L1 31L1 32L0 32L0 42L1 42L1 45L0 45L0 48L5 48L5 47L7 47L7 48L6 48L6 49L8 49L8 51L9 51L9 52L8 52L8 57L12 57L12 55L13 55L13 57L14 57L14 54L15 54L15 55L16 55L16 56L15 56L15 57L16 57L16 56L17 56L17 57L19 57L19 55L20 55L20 54L19 54L19 53L20 53L20 52L22 52L22 51L21 51L21 50L25 50L25 49L24 49L24 47L23 47L23 46L25 46L25 45L23 45L23 44L24 44L24 43L25 43L25 44L27 44L27 43L25 43L25 41L24 41L24 40L25 40L25 36L27 36L27 33L26 33L26 35L25 35L25 33L23 33L23 34L22 34L22 33L21 33L21 34L20 34L20 33L19 33L19 32L20 32L20 31L19 31L19 30L20 30L20 29L22 29L22 28L21 28L21 27L22 27L22 26L24 26L24 27L23 27L23 28L26 28L26 29L23 29L23 30L25 30L25 32L27 32L27 31L29 31L29 32L28 32L28 33L29 33L29 34L30 34L30 36L29 36L29 37L31 37L31 38L29 38L29 39L33 39L33 40L35 40L35 42L37 42L37 43L36 43L36 44L35 44L35 43L34 43L34 42L33 42L33 41L32 41L32 40L30 40L30 41L32 41L32 42L29 42L29 43L28 43L28 44L29 44L29 46L28 46L28 48L26 48L26 47L27 47L27 45L26 45L26 47L25 47L25 48L26 48L26 52L24 52L24 53L23 53L23 54L22 54L22 53L21 53L21 54L22 54L22 55L23 55L23 56L24 56L24 57L26 57L26 56L24 56L24 55L23 55L23 54L24 54L24 53L27 53L27 54L30 54L30 53L31 53L31 49L32 49L32 52L33 52L33 53L32 53L32 54L31 54L31 56L30 56L30 55L29 55L29 56L27 56L27 57L29 57L29 56L30 56L30 57L31 57L31 56L35 56L35 57L39 57L39 56L37 56L37 54L38 54L38 55L41 55L41 56L42 56L42 55L44 55L44 54L45 54L45 55L46 55L46 54L45 54L45 53L44 53L44 52L45 52L45 51L46 51L46 53L47 53L47 50L48 50L48 54L47 54L47 55L48 55L48 56L50 56L50 57L52 57L52 55L51 55L51 53L52 53L52 54L53 54L53 57L54 57L54 56L55 56L55 57L56 57L56 56L55 56L55 54L54 54L54 53L56 53L56 50L57 50L57 48L56 48L56 46L57 46L57 43L56 43L56 42L57 42L57 41L56 41L56 42L55 42L55 39L57 39L57 35L56 35L56 34L55 34L55 32L56 32L56 33L57 33L57 32L56 32L56 30L57 30L57 29L56 29L56 28L57 28L57 27L56 27L56 26L57 26L57 25L56 25L56 22L57 22L57 19L56 19L56 16L57 16L57 15L56 15L56 14L57 14L57 12L56 12L56 14L55 14L55 13L54 13L54 12L55 12L55 11L56 11L56 10L54 10L54 11L50 11L50 12L49 12L49 13L47 13L47 14L45 14L45 13L44 13L44 11L45 11L45 12L48 12L48 11L47 11L47 10L50 10L50 8L49 8L49 9L48 9L48 8L46 8L46 7L47 7L47 5L48 5L48 0L46 0L46 1L45 1L45 2L44 2L44 3L43 3L43 4L40 4L40 5L39 5L39 6L38 6L38 7L37 7L37 5L38 5L38 2L39 2L39 3L41 3L41 2L43 2L43 0L41 0L41 1L40 1L40 0L39 0L39 1L38 1L38 0L37 0L37 1L38 1L38 2L37 2L37 3L36 3L36 0L35 0L35 1L33 1L33 2L32 2L32 0L29 0L29 1L25 1L25 0L23 0L23 2L22 2L22 0L21 0L21 2L22 2L22 3L23 3L23 4L24 4L24 5L23 5L23 6L22 6L22 7L21 7L21 5L22 5L22 4L19 4L19 3L20 3L20 1L18 1L18 0L17 0L17 1L18 1L18 2L17 2L17 4L19 4L19 5L20 5L20 7L19 7L19 6L18 6L18 5L17 5L17 6L16 6L16 7L15 7L15 5L16 5L16 4L15 4L15 5L13 5L13 4L14 4L14 2L15 2L15 3L16 3L16 2L15 2L15 0L14 0L14 2L13 2L13 0L12 0L12 2L11 2L11 0ZM9 1L9 2L10 2L10 1ZM46 1L46 2L47 2L47 1ZM12 2L12 3L13 3L13 2ZM18 2L18 3L19 3L19 2ZM23 2L23 3L26 3L26 4L25 4L25 8L26 8L26 4L31 4L31 8L32 8L32 10L31 10L31 11L29 11L29 10L27 10L27 11L26 11L26 12L25 12L25 11L24 11L24 13L22 13L22 12L20 12L20 11L19 11L19 12L20 12L20 14L19 14L19 16L20 16L20 18L18 18L18 19L17 19L17 17L16 17L16 16L17 16L17 15L18 15L18 14L17 14L17 13L18 13L18 12L17 12L17 13L16 13L16 11L18 11L18 10L17 10L17 9L15 9L15 7L14 7L14 6L13 6L13 5L12 5L12 6L11 6L11 7L10 7L10 8L9 8L9 9L10 9L10 10L11 10L11 9L10 9L10 8L12 8L12 12L14 12L14 11L13 11L13 10L16 10L16 11L15 11L15 13L11 13L11 16L13 16L13 15L12 15L12 14L15 14L15 13L16 13L16 16L15 16L15 15L14 15L14 17L16 17L16 19L17 19L17 20L16 20L16 21L15 21L15 18L13 18L13 17L12 17L12 18L13 18L13 19L14 19L14 20L13 20L13 21L12 21L12 19L11 19L11 17L10 17L10 18L9 18L9 16L10 16L10 15L9 15L9 16L8 16L8 15L6 15L6 14L7 14L7 13L8 13L8 12L7 12L7 13L5 13L5 15L4 15L4 14L3 14L3 16L2 16L2 15L1 15L1 16L2 16L2 18L5 18L5 17L6 17L6 18L8 18L8 19L6 19L6 20L7 20L7 21L8 21L8 22L9 22L9 23L8 23L8 26L9 26L9 27L11 27L11 28L10 28L10 29L9 29L9 30L10 30L10 31L4 31L4 30L3 30L3 31L2 31L2 32L1 32L1 34L2 34L2 35L3 35L3 34L4 34L4 35L5 35L5 36L7 36L7 35L5 35L5 34L4 34L4 32L8 32L8 33L9 33L9 36L8 36L8 37L9 37L9 36L10 36L10 37L11 37L11 35L12 35L12 36L14 36L14 35L12 35L12 32L13 32L13 31L15 31L15 32L17 32L17 33L14 33L14 34L15 34L15 35L16 35L16 34L17 34L17 33L18 33L18 34L19 34L19 37L18 37L18 36L15 36L15 37L14 37L14 38L15 38L15 39L14 39L14 40L13 40L13 42L12 42L12 40L11 40L11 38L10 38L10 40L8 40L8 38L7 38L7 37L4 37L4 36L3 36L3 37L2 37L2 36L1 36L1 40L2 40L2 41L1 41L1 42L3 42L3 43L2 43L2 46L1 46L1 47L2 47L2 46L3 46L3 47L5 47L5 45L4 45L4 46L3 46L3 44L5 44L5 43L6 43L6 44L7 44L7 45L6 45L6 46L8 46L8 44L9 44L9 45L10 45L10 44L11 44L11 46L12 46L12 49L14 49L14 50L13 50L13 51L14 51L14 52L13 52L13 53L11 53L11 52L12 52L12 51L11 51L11 50L10 50L10 49L11 49L11 47L9 47L9 51L10 51L10 53L11 53L11 55L10 55L10 54L9 54L9 56L11 56L11 55L12 55L12 54L14 54L14 53L15 53L15 54L16 54L16 53L17 53L17 51L14 51L14 50L17 50L17 49L14 49L14 48L15 48L15 47L16 47L16 48L17 48L17 45L18 45L18 44L16 44L16 43L18 43L18 42L19 42L19 41L20 41L20 42L21 42L21 43L20 43L20 44L21 44L21 45L19 45L19 46L21 46L21 45L22 45L22 46L23 46L23 45L22 45L22 44L21 44L21 43L22 43L22 42L24 42L24 41L23 41L23 40L24 40L24 39L23 39L23 38L24 38L24 37L23 37L23 36L24 36L24 34L23 34L23 36L20 36L20 34L19 34L19 33L18 33L18 32L19 32L19 31L17 31L17 30L18 30L18 29L19 29L19 28L20 28L20 26L22 26L22 25L24 25L24 24L25 24L25 25L26 25L26 26L25 26L25 27L26 27L26 26L27 26L27 25L28 25L28 26L30 26L30 25L29 25L29 24L32 24L32 26L31 26L31 27L32 27L32 29L33 29L33 30L31 30L31 31L30 31L30 32L29 32L29 33L31 33L31 35L32 35L32 34L33 34L33 36L32 36L32 37L33 37L33 38L34 38L34 39L35 39L35 40L38 40L38 42L39 42L39 44L40 44L40 45L38 45L38 46L41 46L41 48L39 48L39 47L38 47L38 48L37 48L37 49L38 49L38 50L36 50L36 49L35 49L35 48L36 48L36 47L37 47L37 46L36 46L36 45L34 45L34 43L33 43L33 42L32 42L32 43L33 43L33 44L31 44L31 45L32 45L32 46L31 46L31 47L33 47L33 46L35 46L35 47L34 47L34 48L32 48L32 49L33 49L33 50L34 50L34 51L33 51L33 52L34 52L34 53L33 53L33 55L35 55L35 56L36 56L36 54L35 54L35 50L36 50L36 52L37 52L37 53L38 53L38 54L40 54L40 53L42 53L42 52L40 52L40 51L38 51L38 50L41 50L41 51L42 51L42 50L41 50L41 48L42 48L42 49L43 49L43 48L44 48L44 49L45 49L45 50L47 50L47 49L48 49L48 48L51 48L51 47L52 47L52 48L53 48L53 49L55 49L55 50L54 50L54 51L55 51L55 50L56 50L56 48L53 48L53 47L54 47L54 46L56 46L56 43L55 43L55 44L54 44L54 45L52 45L52 44L53 44L53 43L54 43L54 42L53 42L53 41L54 41L54 40L53 40L53 41L51 41L51 42L50 42L50 43L48 43L48 44L47 44L47 45L45 45L45 44L46 44L46 43L47 43L47 42L48 42L48 41L49 41L49 40L50 40L50 39L54 39L54 38L53 38L53 35L55 35L55 37L56 37L56 35L55 35L55 34L54 34L54 33L52 33L52 32L51 32L51 31L50 31L50 32L49 32L49 31L48 31L48 29L46 29L46 30L47 30L47 31L45 31L45 32L43 32L43 31L44 31L44 29L45 29L45 28L46 28L46 27L47 27L47 28L48 28L48 26L47 26L47 25L50 25L50 26L51 26L51 25L52 25L52 26L53 26L53 27L54 27L54 26L53 26L53 25L54 25L54 24L53 24L53 23L51 23L51 24L50 24L50 22L51 22L51 21L54 21L54 22L56 22L56 19L55 19L55 20L53 20L53 19L52 19L52 18L51 18L51 17L53 17L53 18L55 18L55 17L53 17L53 15L55 15L55 14L54 14L54 13L53 13L53 12L52 12L52 13L53 13L53 15L50 15L50 14L51 14L51 12L50 12L50 14L49 14L49 15L48 15L48 16L47 16L47 15L46 15L46 17L45 17L45 15L44 15L44 13L43 13L43 11L44 11L44 9L45 9L45 10L47 10L47 9L45 9L45 7L46 7L46 6L45 6L45 4L46 4L46 5L47 5L47 3L44 3L44 6L43 6L43 5L40 5L40 6L39 6L39 7L40 7L40 8L38 8L38 10L37 10L37 9L35 9L35 8L37 8L37 7L36 7L36 5L37 5L37 4L36 4L36 5L35 5L35 2L34 2L34 3L32 3L32 2L29 2L29 3L27 3L27 2ZM31 3L31 4L32 4L32 5L33 5L33 4L32 4L32 3ZM27 5L27 8L30 8L30 5ZM34 5L34 7L33 7L33 6L32 6L32 7L33 7L33 9L34 9L34 8L35 8L35 5ZM12 6L12 8L13 8L13 9L14 9L14 7L13 7L13 6ZM17 6L17 7L16 7L16 8L17 8L17 7L18 7L18 6ZM23 6L23 7L22 7L22 8L19 8L19 9L20 9L20 10L21 10L21 11L22 11L22 10L23 10L23 9L24 9L24 6ZM28 6L28 7L29 7L29 6ZM40 6L40 7L41 7L41 8L42 8L42 9L39 9L39 11L37 11L37 10L36 10L36 11L35 11L35 13L36 13L36 14L32 14L32 12L33 12L33 13L34 13L34 12L33 12L33 10L32 10L32 11L31 11L31 13L30 13L30 14L29 14L29 13L28 13L28 12L29 12L29 11L27 11L27 12L26 12L26 15L25 15L25 13L24 13L24 14L22 14L22 13L21 13L21 14L20 14L20 16L21 16L21 17L22 17L22 18L20 18L20 20L19 20L19 19L18 19L18 20L17 20L17 21L16 21L16 22L15 22L15 23L16 23L16 24L15 24L15 25L14 25L14 23L13 23L13 22L14 22L14 21L13 21L13 22L12 22L12 21L11 21L11 22L12 22L12 23L11 23L11 24L10 24L10 23L9 23L9 24L10 24L10 26L12 26L12 25L13 25L13 27L12 27L12 28L16 28L16 29L15 29L15 31L16 31L16 29L18 29L18 28L17 28L17 27L18 27L18 26L20 26L20 25L22 25L22 24L20 24L20 25L19 25L19 23L20 23L20 22L19 22L19 21L20 21L20 20L21 20L21 19L22 19L22 18L24 18L24 19L23 19L23 20L24 20L24 21L22 21L22 22L24 22L24 21L25 21L25 22L26 22L26 23L25 23L25 24L27 24L27 23L28 23L28 22L29 22L29 23L30 23L30 22L31 22L31 21L32 21L32 20L33 20L33 19L35 19L35 20L34 20L34 21L35 21L35 23L34 23L34 22L33 22L33 23L32 23L32 24L33 24L33 25L37 25L37 26L38 26L38 25L40 25L40 26L39 26L39 27L36 27L36 26L34 26L34 27L33 27L33 26L32 26L32 27L33 27L33 28L35 28L35 29L38 29L38 28L40 28L40 27L41 27L41 28L42 28L42 26L43 26L43 25L44 25L44 20L45 20L45 21L47 21L47 22L45 22L45 24L46 24L46 25L47 25L47 24L48 24L48 23L49 23L49 21L51 21L51 20L52 20L52 19L49 19L49 21L47 21L47 18L50 18L50 17L51 17L51 16L50 16L50 15L49 15L49 16L48 16L48 17L47 17L47 18L46 18L46 19L45 19L45 18L44 18L44 15L42 15L42 16L41 16L41 14L43 14L43 13L41 13L41 14L40 14L40 15L39 15L39 14L38 14L38 13L40 13L40 12L41 12L41 11L40 11L40 10L43 10L43 9L44 9L44 8L43 8L43 6L42 6L42 7L41 7L41 6ZM44 6L44 7L45 7L45 6ZM48 6L48 7L49 7L49 6ZM51 8L51 10L52 10L52 8ZM53 8L53 9L54 9L54 8ZM55 8L55 9L56 9L56 8ZM21 9L21 10L22 10L22 9ZM39 11L39 12L40 12L40 11ZM27 13L27 15L26 15L26 17L25 17L25 16L24 16L24 15L21 15L21 16L22 16L22 17L25 17L25 18L27 18L27 19L26 19L26 21L29 21L29 22L30 22L30 21L31 21L31 20L30 20L30 19L31 19L31 18L30 18L30 19L28 19L28 18L27 18L27 17L28 17L28 16L29 16L29 14L28 14L28 13ZM30 14L30 15L31 15L31 16L32 16L32 17L33 17L33 18L32 18L32 19L33 19L33 18L35 18L35 19L36 19L36 20L37 20L37 19L39 19L39 17L41 17L41 16L39 16L39 15L38 15L38 14L37 14L37 15L35 15L35 16L33 16L33 15L32 15L32 14ZM5 15L5 16L4 16L4 17L5 17L5 16L6 16L6 17L7 17L7 16L6 16L6 15ZM27 15L27 16L28 16L28 15ZM35 16L35 17L37 17L37 18L38 18L38 17L39 17L39 16L38 16L38 17L37 17L37 16ZM42 16L42 17L43 17L43 16ZM41 18L41 19L42 19L42 20L44 20L44 18L43 18L43 19L42 19L42 18ZM9 19L9 20L8 20L8 21L9 21L9 20L11 20L11 19ZM27 19L27 20L28 20L28 19ZM39 20L39 21L38 21L38 22L37 22L37 24L40 24L40 25L41 25L41 26L42 26L42 25L43 25L43 24L42 24L42 23L41 23L41 24L40 24L40 22L39 22L39 21L41 21L41 20ZM2 23L2 24L3 24L3 25L4 25L4 24L3 24L3 23ZM12 23L12 24L11 24L11 25L12 25L12 24L13 24L13 23ZM17 23L17 24L18 24L18 23ZM23 23L23 24L24 24L24 23ZM41 24L41 25L42 25L42 24ZM1 25L1 27L3 27L3 29L4 29L4 26L2 26L2 25ZM6 25L6 26L7 26L7 25ZM15 25L15 26L18 26L18 25ZM44 26L44 28L43 28L43 29L39 29L39 30L38 30L38 32L39 32L39 31L40 31L40 30L43 30L43 29L44 29L44 28L45 28L45 27L46 27L46 26ZM5 27L5 30L8 30L8 27ZM27 27L27 30L30 30L30 27ZM49 27L49 30L52 30L52 27ZM6 28L6 29L7 29L7 28ZM28 28L28 29L29 29L29 28ZM50 28L50 29L51 29L51 28ZM54 28L54 29L55 29L55 28ZM10 29L10 30L11 30L11 31L10 31L10 32L9 32L9 33L10 33L10 34L11 34L11 33L10 33L10 32L12 32L12 31L13 31L13 30L11 30L11 29ZM33 30L33 32L34 32L34 31L36 31L36 30ZM3 31L3 32L4 32L4 31ZM21 31L21 32L23 32L23 31ZM31 31L31 33L32 33L32 31ZM47 31L47 32L46 32L46 33L47 33L47 32L48 32L48 33L49 33L49 32L48 32L48 31ZM35 32L35 34L34 34L34 33L33 33L33 34L34 34L34 36L35 36L35 39L37 39L37 38L38 38L38 40L41 40L41 39L42 39L42 40L43 40L43 41L41 41L41 42L42 42L42 44L41 44L41 43L40 43L40 44L41 44L41 46L43 46L43 47L42 47L42 48L43 48L43 47L44 47L44 46L45 46L45 48L48 48L48 47L50 47L50 46L51 46L51 45L50 45L50 46L49 46L49 45L47 45L47 46L45 46L45 45L44 45L44 44L43 44L43 42L44 42L44 43L45 43L45 42L44 42L44 40L45 40L45 41L47 41L47 39L50 39L50 38L51 38L51 37L52 37L52 35L53 35L53 34L52 34L52 33L51 33L51 32L50 32L50 34L48 34L48 35L44 35L44 33L43 33L43 32L41 32L41 33L39 33L39 34L40 34L40 35L39 35L39 37L40 37L40 38L41 38L41 39L39 39L39 38L38 38L38 37L37 37L37 36L38 36L38 33L37 33L37 32ZM2 33L2 34L3 34L3 33ZM6 33L6 34L7 34L7 33ZM35 34L35 36L37 36L37 34ZM42 34L42 35L41 35L41 36L40 36L40 37L41 37L41 38L42 38L42 39L45 39L45 40L46 40L46 39L47 39L47 38L50 38L50 35L52 35L52 34L50 34L50 35L48 35L48 36L46 36L46 37L45 37L45 36L44 36L44 35L43 35L43 34ZM41 36L41 37L42 37L42 38L43 38L43 37L44 37L44 38L45 38L45 39L46 39L46 38L45 38L45 37L44 37L44 36ZM3 37L3 38L4 38L4 37ZM15 37L15 38L16 38L16 37ZM17 37L17 38L18 38L18 39L17 39L17 40L16 40L16 39L15 39L15 40L16 40L16 41L17 41L17 42L18 42L18 41L19 41L19 40L22 40L22 38L21 38L21 37L19 37L19 38L18 38L18 37ZM26 37L26 40L28 40L28 41L26 41L26 42L28 42L28 41L29 41L29 40L28 40L28 39L27 39L27 38L28 38L28 37ZM5 38L5 39L4 39L4 40L5 40L5 39L7 39L7 38ZM19 38L19 39L20 39L20 38ZM2 39L2 40L3 40L3 39ZM6 40L6 41L3 41L3 42L6 42L6 43L10 43L10 42L11 42L11 40L10 40L10 42L9 42L9 41L8 41L8 40ZM6 41L6 42L8 42L8 41ZM14 41L14 45L13 45L13 47L14 47L14 45L15 45L15 41ZM21 41L21 42L22 42L22 41ZM39 41L39 42L40 42L40 41ZM51 42L51 43L50 43L50 44L51 44L51 43L53 43L53 42ZM29 43L29 44L30 44L30 43ZM47 46L47 47L48 47L48 46ZM52 46L52 47L53 47L53 46ZM20 47L20 48L19 48L19 49L20 49L20 50L19 50L19 51L20 51L20 50L21 50L21 49L23 49L23 47ZM29 47L29 48L30 48L30 47ZM38 48L38 49L39 49L39 48ZM27 49L27 52L30 52L30 49ZM49 49L49 52L52 52L52 49ZM28 50L28 51L29 51L29 50ZM43 50L43 51L44 51L44 50ZM50 50L50 51L51 51L51 50ZM37 51L37 52L38 52L38 51ZM15 52L15 53L16 53L16 52ZM53 52L53 53L54 53L54 52ZM43 53L43 54L44 54L44 53ZM17 54L17 55L19 55L19 54ZM25 54L25 55L26 55L26 54ZM50 55L50 56L51 56L51 55ZM43 56L43 57L44 57L44 56ZM45 56L45 57L46 57L46 56ZM0 0L0 7L7 7L7 0ZM1 1L1 6L6 6L6 1ZM2 2L2 5L5 5L5 2ZM50 0L50 7L57 7L57 0ZM51 1L51 6L56 6L56 1ZM52 2L52 5L55 5L55 2ZM0 50L0 57L7 57L7 50ZM1 51L1 56L6 56L6 51ZM2 52L2 55L5 55L5 52Z" fill="#000000"/></g></g></svg>
