<?xml version="1.0" encoding="UTF-8"?>
<svg xmlns="http://www.w3.org/2000/svg" version="1.1" width="300" height="300" viewBox="0 0 300 300"><rect x="0" y="0" width="300" height="300" fill="#fefefe"/><g transform="scale(4.615)"><g transform="translate(4,4)"><path fill-rule="evenodd" d="M8 0L8 2L9 2L9 0ZM12 0L12 1L11 1L11 2L10 2L10 5L9 5L9 4L8 4L8 10L9 10L9 8L10 8L10 10L11 10L11 9L12 9L12 8L13 8L13 6L14 6L14 7L15 7L15 6L16 6L16 7L17 7L17 6L16 6L16 5L18 5L18 9L17 9L17 11L16 11L16 8L14 8L14 9L13 9L13 10L14 10L14 9L15 9L15 11L14 11L14 12L15 12L15 11L16 11L16 12L17 12L17 14L15 14L15 15L17 15L17 14L18 14L18 13L19 13L19 15L20 15L20 17L19 17L19 16L18 16L18 17L19 17L19 19L18 19L18 18L16 18L16 17L15 17L15 16L14 16L14 14L13 14L13 13L12 13L12 12L11 12L11 11L10 11L10 12L9 12L9 11L8 11L8 12L6 12L6 13L7 13L7 14L6 14L6 15L7 15L7 14L8 14L8 12L9 12L9 15L8 15L8 17L10 17L10 18L13 18L13 22L14 22L14 21L15 21L15 23L12 23L12 24L11 24L11 23L10 23L10 21L12 21L12 19L8 19L8 18L6 18L6 17L7 17L7 16L6 16L6 17L5 17L5 16L4 16L4 15L5 15L5 13L4 13L4 12L5 12L5 11L7 11L7 10L5 10L5 11L3 11L3 10L4 10L4 9L3 9L3 8L0 8L0 12L2 12L2 11L3 11L3 13L4 13L4 15L3 15L3 14L2 14L2 13L0 13L0 14L2 14L2 15L3 15L3 17L2 17L2 18L3 18L3 19L5 19L5 21L7 21L7 22L6 22L6 23L5 23L5 22L3 22L3 26L4 26L4 28L3 28L3 27L1 27L1 26L0 26L0 27L1 27L1 28L0 28L0 30L1 30L1 31L0 31L0 33L1 33L1 34L0 34L0 36L1 36L1 37L0 37L0 40L2 40L2 41L1 41L1 43L0 43L0 45L1 45L1 46L0 46L0 48L5 48L5 47L7 47L7 48L6 48L6 49L8 49L8 50L9 50L9 51L8 51L8 52L9 52L9 54L8 54L8 57L9 57L9 56L10 56L10 57L13 57L13 56L14 56L14 54L12 54L12 53L15 53L15 56L16 56L16 57L17 57L17 56L18 56L18 57L21 57L21 56L19 56L19 50L20 50L20 48L19 48L19 47L21 47L21 48L22 48L22 50L21 50L21 51L20 51L20 53L21 53L21 54L20 54L20 55L21 55L21 54L23 54L23 55L22 55L22 57L23 57L23 56L24 56L24 57L25 57L25 56L26 56L26 57L28 57L28 55L29 55L29 57L33 57L33 55L30 55L30 54L31 54L31 53L32 53L32 54L34 54L34 57L35 57L35 55L37 55L37 54L36 54L36 53L37 53L37 52L38 52L38 53L39 53L39 56L40 56L40 57L41 57L41 56L42 56L42 57L43 57L43 56L44 56L44 57L46 57L46 56L44 56L44 55L46 55L46 52L47 52L47 53L49 53L49 54L48 54L48 55L47 55L47 57L48 57L48 56L49 56L49 57L50 57L50 55L49 55L49 54L52 54L52 55L53 55L53 56L51 56L51 57L53 57L53 56L54 56L54 55L53 55L53 54L54 54L54 53L55 53L55 52L54 52L54 51L53 51L53 50L54 50L54 49L55 49L55 51L56 51L56 53L57 53L57 49L56 49L56 47L57 47L57 45L56 45L56 44L57 44L57 42L56 42L56 41L57 41L57 40L55 40L55 42L54 42L54 38L57 38L57 36L54 36L54 34L53 34L53 36L51 36L51 33L50 33L50 31L51 31L51 32L54 32L54 33L56 33L56 31L57 31L57 24L56 24L56 23L57 23L57 21L56 21L56 23L55 23L55 24L56 24L56 28L55 28L55 30L56 30L56 31L55 31L55 32L54 32L54 30L53 30L53 28L54 28L54 27L55 27L55 26L54 26L54 25L53 25L53 24L54 24L54 22L55 22L55 21L54 21L54 19L55 19L55 17L54 17L54 14L53 14L53 12L54 12L54 11L55 11L55 13L56 13L56 15L55 15L55 16L56 16L56 17L57 17L57 13L56 13L56 11L57 11L57 10L56 10L56 11L55 11L55 9L57 9L57 8L55 8L55 9L54 9L54 10L53 10L53 8L49 8L49 10L48 10L48 7L49 7L49 6L48 6L48 7L47 7L47 5L48 5L48 0L46 0L46 1L45 1L45 0L42 0L42 1L41 1L41 0L38 0L38 3L37 3L37 4L38 4L38 5L37 5L37 6L36 6L36 10L34 10L34 9L35 9L35 4L36 4L36 3L35 3L35 4L34 4L34 2L37 2L37 1L35 1L35 0L34 0L34 2L33 2L33 6L32 6L32 7L33 7L33 6L34 6L34 8L32 8L32 9L31 9L31 5L32 5L32 1L33 1L33 0L32 0L32 1L31 1L31 0L30 0L30 2L29 2L29 3L30 3L30 4L28 4L28 3L27 3L27 0L26 0L26 1L25 1L25 0L24 0L24 1L23 1L23 0L20 0L20 1L19 1L19 2L18 2L18 3L17 3L17 4L16 4L16 2L17 2L17 1L18 1L18 0L16 0L16 2L15 2L15 0L14 0L14 3L13 3L13 0ZM28 0L28 1L29 1L29 0ZM20 1L20 2L19 2L19 3L18 3L18 5L19 5L19 7L20 7L20 5L21 5L21 3L20 3L20 2L22 2L22 4L23 4L23 2L22 2L22 1ZM24 1L24 4L25 4L25 1ZM39 1L39 2L40 2L40 4L39 4L39 5L38 5L38 6L37 6L37 7L38 7L38 6L39 6L39 8L37 8L37 9L38 9L38 10L39 10L39 11L40 11L40 10L41 10L41 12L42 12L42 15L41 15L41 17L42 17L42 18L43 18L43 17L44 17L44 19L42 19L42 20L43 20L43 21L42 21L42 22L43 22L43 23L41 23L41 22L40 22L40 19L41 19L41 18L40 18L40 14L41 14L41 13L40 13L40 12L37 12L37 11L36 11L36 12L35 12L35 11L34 11L34 10L33 10L33 9L32 9L32 11L31 11L31 9L30 9L30 11L29 11L29 12L30 12L30 13L29 13L29 15L28 15L28 14L27 14L27 12L28 12L28 11L27 11L27 10L29 10L29 9L27 9L27 10L25 10L25 9L26 9L26 5L24 5L24 6L23 6L23 5L22 5L22 6L21 6L21 7L22 7L22 6L23 6L23 9L22 9L22 8L21 8L21 9L20 9L20 8L19 8L19 9L18 9L18 10L19 10L19 11L18 11L18 12L19 12L19 13L20 13L20 14L22 14L22 16L23 16L23 15L24 15L24 18L26 18L26 20L25 20L25 19L24 19L24 20L25 20L25 21L26 21L26 20L27 20L27 21L28 21L28 22L26 22L26 23L30 23L30 24L31 24L31 25L30 25L30 26L31 26L31 25L32 25L32 28L31 28L31 29L32 29L32 28L33 28L33 29L34 29L34 31L33 31L33 30L32 30L32 32L30 32L30 31L28 31L28 32L26 32L26 30L25 30L25 29L24 29L24 28L25 28L25 25L24 25L24 24L23 24L23 25L24 25L24 26L23 26L23 27L22 27L22 28L23 28L23 29L22 29L22 30L21 30L21 28L20 28L20 27L21 27L21 26L22 26L22 23L23 23L23 22L21 22L21 21L22 21L22 19L23 19L23 18L21 18L21 17L20 17L20 19L19 19L19 21L18 21L18 20L17 20L17 19L16 19L16 20L17 20L17 22L16 22L16 23L18 23L18 22L19 22L19 25L18 25L18 24L17 24L17 25L16 25L16 24L15 24L15 25L16 25L16 26L17 26L17 27L16 27L16 28L15 28L15 27L14 27L14 28L13 28L13 26L14 26L14 24L13 24L13 26L10 26L10 27L9 27L9 30L10 30L10 31L13 31L13 32L11 32L11 36L12 36L12 33L13 33L13 34L15 34L15 35L16 35L16 36L15 36L15 37L13 37L13 38L12 38L12 37L10 37L10 36L8 36L8 35L9 35L9 34L8 34L8 35L5 35L5 34L3 34L3 33L6 33L6 34L7 34L7 33L6 33L6 32L7 32L7 31L6 31L6 32L3 32L3 31L4 31L4 30L2 30L2 32L3 32L3 33L2 33L2 34L1 34L1 35L2 35L2 34L3 34L3 35L4 35L4 36L5 36L5 37L4 37L4 38L5 38L5 37L6 37L6 38L7 38L7 39L3 39L3 38L2 38L2 37L1 37L1 38L2 38L2 39L3 39L3 41L2 41L2 42L7 42L7 43L3 43L3 45L2 45L2 46L1 46L1 47L2 47L2 46L3 46L3 47L5 47L5 44L7 44L7 45L6 45L6 46L7 46L7 45L8 45L8 47L9 47L9 50L11 50L11 52L10 52L10 56L11 56L11 55L12 55L12 54L11 54L11 53L12 53L12 48L11 48L11 46L10 46L10 44L11 44L11 43L12 43L12 46L13 46L13 50L15 50L15 52L17 52L17 54L16 54L16 55L17 55L17 54L18 54L18 52L17 52L17 51L16 51L16 50L18 50L18 47L19 47L19 45L20 45L20 46L22 46L22 48L23 48L23 49L24 49L24 51L23 51L23 52L24 52L24 51L25 51L25 52L26 52L26 48L27 48L27 46L26 46L26 45L25 45L25 43L24 43L24 42L26 42L26 41L25 41L25 40L28 40L28 42L27 42L27 43L28 43L28 42L29 42L29 45L28 45L28 46L29 46L29 47L28 47L28 48L31 48L31 50L32 50L32 51L31 51L31 52L32 52L32 51L33 51L33 52L34 52L34 54L35 54L35 53L36 53L36 52L35 52L35 51L37 51L37 49L36 49L36 48L37 48L37 47L38 47L38 52L39 52L39 53L40 53L40 52L39 52L39 49L40 49L40 51L41 51L41 52L43 52L43 53L42 53L42 54L43 54L43 55L44 55L44 52L43 52L43 51L41 51L41 49L42 49L42 50L44 50L44 51L45 51L45 52L46 52L46 51L45 51L45 49L44 49L44 47L45 47L45 48L46 48L46 50L47 50L47 44L46 44L46 47L45 47L45 46L44 46L44 44L45 44L45 43L48 43L48 42L49 42L49 44L48 44L48 45L49 45L49 47L50 47L50 48L51 48L51 47L50 47L50 45L51 45L51 44L50 44L50 42L49 42L49 41L51 41L51 40L52 40L52 44L53 44L53 45L52 45L52 48L53 48L53 45L54 45L54 46L55 46L55 47L54 47L54 48L55 48L55 47L56 47L56 45L55 45L55 44L56 44L56 42L55 42L55 43L54 43L54 44L53 44L53 40L52 40L52 39L51 39L51 40L50 40L50 37L51 37L51 36L50 36L50 33L49 33L49 36L48 36L48 35L47 35L47 34L48 34L48 33L46 33L46 35L45 35L45 36L46 36L46 35L47 35L47 36L48 36L48 37L46 37L46 38L45 38L45 41L44 41L44 40L43 40L43 38L44 38L44 35L43 35L43 33L42 33L42 31L43 31L43 30L44 30L44 27L46 27L46 26L47 26L47 23L48 23L48 22L50 22L50 24L51 24L51 25L50 25L50 26L51 26L51 25L52 25L52 26L53 26L53 25L52 25L52 24L53 24L53 22L52 22L52 20L53 20L53 19L54 19L54 17L52 17L52 16L53 16L53 14L52 14L52 13L50 13L50 10L51 10L51 12L52 12L52 9L50 9L50 10L49 10L49 12L48 12L48 14L47 14L47 13L46 13L46 11L48 11L48 10L47 10L47 9L46 9L46 8L47 8L47 7L46 7L46 5L47 5L47 3L46 3L46 5L44 5L44 4L45 4L45 1L42 1L42 2L40 2L40 1ZM46 1L46 2L47 2L47 1ZM30 2L30 3L31 3L31 2ZM43 2L43 3L42 3L42 5L41 5L41 6L40 6L40 7L41 7L41 8L40 8L40 9L39 9L39 10L40 10L40 9L41 9L41 10L42 10L42 12L43 12L43 10L42 10L42 9L41 9L41 8L42 8L42 7L43 7L43 6L44 6L44 7L45 7L45 8L44 8L44 10L45 10L45 8L46 8L46 7L45 7L45 6L44 6L44 5L43 5L43 4L44 4L44 2ZM11 3L11 8L12 8L12 6L13 6L13 5L12 5L12 3ZM14 3L14 4L15 4L15 3ZM26 3L26 4L27 4L27 3ZM27 5L27 8L30 8L30 5ZM42 5L42 6L41 6L41 7L42 7L42 6L43 6L43 5ZM9 6L9 7L10 7L10 6ZM24 6L24 7L25 7L25 6ZM28 6L28 7L29 7L29 6ZM5 8L5 9L7 9L7 8ZM24 8L24 9L23 9L23 10L24 10L24 12L25 12L25 13L26 13L26 11L25 11L25 10L24 10L24 9L25 9L25 8ZM2 9L2 10L1 10L1 11L2 11L2 10L3 10L3 9ZM19 9L19 10L20 10L20 11L21 11L21 10L20 10L20 9ZM22 11L22 12L23 12L23 11ZM30 11L30 12L31 12L31 11ZM32 11L32 13L31 13L31 16L30 16L30 15L29 15L29 16L30 16L30 17L28 17L28 18L30 18L30 17L31 17L31 16L32 16L32 19L31 19L31 20L32 20L32 21L33 21L33 22L31 22L31 23L32 23L32 25L33 25L33 26L34 26L34 24L36 24L36 26L37 26L37 27L34 27L34 29L35 29L35 31L34 31L34 32L32 32L32 34L30 34L30 32L29 32L29 34L28 34L28 33L27 33L27 34L28 34L28 35L26 35L26 34L24 34L24 32L25 32L25 31L24 31L24 29L23 29L23 30L22 30L22 33L23 33L23 34L22 34L22 35L25 35L25 36L24 36L24 37L26 37L26 38L27 38L27 36L28 36L28 37L29 37L29 36L28 36L28 35L31 35L31 36L30 36L30 40L29 40L29 41L30 41L30 44L31 44L31 38L33 38L33 35L34 35L34 37L35 37L35 38L36 38L36 41L35 41L35 39L34 39L34 41L33 41L33 40L32 40L32 46L30 46L30 47L31 47L31 48L32 48L32 49L33 49L33 47L34 47L34 49L35 49L35 47L34 47L34 45L33 45L33 44L36 44L36 45L35 45L35 46L36 46L36 47L37 47L37 46L38 46L38 45L37 45L37 44L39 44L39 43L37 43L37 44L36 44L36 41L37 41L37 42L38 42L38 41L39 41L39 40L40 40L40 41L41 41L41 42L40 42L40 43L43 43L43 44L42 44L42 45L41 45L41 44L40 44L40 45L39 45L39 46L40 46L40 45L41 45L41 47L40 47L40 49L41 49L41 47L42 47L42 45L43 45L43 44L44 44L44 43L45 43L45 42L44 42L44 41L43 41L43 40L42 40L42 39L41 39L41 36L42 36L42 37L43 37L43 36L42 36L42 35L40 35L40 36L38 36L38 35L39 35L39 34L38 34L38 33L39 33L39 32L40 32L40 34L42 34L42 33L41 33L41 32L40 32L40 31L42 31L42 28L43 28L43 27L44 27L44 25L45 25L45 26L46 26L46 25L45 25L45 24L44 24L44 25L43 25L43 24L42 24L42 25L43 25L43 27L41 27L41 26L40 26L40 25L41 25L41 23L39 23L39 22L38 22L38 21L39 21L39 19L40 19L40 18L38 18L38 16L37 16L37 15L38 15L38 13L37 13L37 12L36 12L36 14L35 14L35 15L34 15L34 13L35 13L35 12L34 12L34 11ZM10 12L10 14L11 14L11 15L12 15L12 17L14 17L14 16L13 16L13 15L12 15L12 14L11 14L11 12ZM20 12L20 13L21 13L21 12ZM44 12L44 13L43 13L43 14L44 14L44 13L45 13L45 16L44 16L44 15L43 15L43 16L44 16L44 17L45 17L45 18L46 18L46 17L47 17L47 18L48 18L48 17L49 17L49 20L48 20L48 19L46 19L46 20L45 20L45 19L44 19L44 21L43 21L43 22L44 22L44 23L46 23L46 20L47 20L47 22L48 22L48 21L49 21L49 20L51 20L51 18L52 18L52 17L51 17L51 18L50 18L50 17L49 17L49 16L50 16L50 13L49 13L49 14L48 14L48 15L46 15L46 13L45 13L45 12ZM23 13L23 14L24 14L24 15L25 15L25 16L26 16L26 18L27 18L27 16L26 16L26 14L24 14L24 13ZM32 13L32 16L33 16L33 17L34 17L34 18L33 18L33 20L34 20L34 22L33 22L33 24L34 24L34 22L35 22L35 23L36 23L36 24L37 24L37 25L38 25L38 26L39 26L39 29L38 29L38 28L37 28L37 29L36 29L36 28L35 28L35 29L36 29L36 31L35 31L35 32L34 32L34 35L35 35L35 37L36 37L36 38L37 38L37 41L38 41L38 38L39 38L39 39L40 39L40 40L41 40L41 41L42 41L42 42L43 42L43 41L42 41L42 40L41 40L41 39L40 39L40 38L39 38L39 37L38 37L38 38L37 38L37 37L36 37L36 35L38 35L38 34L37 34L37 33L36 33L36 31L37 31L37 32L38 32L38 31L40 31L40 30L41 30L41 29L40 29L40 28L41 28L41 27L40 27L40 26L39 26L39 23L38 23L38 22L37 22L37 21L38 21L38 19L37 19L37 18L36 18L36 15L37 15L37 14L36 14L36 15L35 15L35 17L34 17L34 15L33 15L33 13ZM39 13L39 14L40 14L40 13ZM51 14L51 15L52 15L52 14ZM0 15L0 16L1 16L1 15ZM9 15L9 16L10 16L10 15ZM3 17L3 18L4 18L4 17ZM34 18L34 19L35 19L35 20L36 20L36 21L35 21L35 22L36 22L36 23L37 23L37 22L36 22L36 21L37 21L37 19L36 19L36 18ZM56 18L56 20L57 20L57 18ZM0 19L0 22L1 22L1 23L0 23L0 24L1 24L1 25L2 25L2 24L1 24L1 23L2 23L2 22L1 22L1 21L3 21L3 20L1 20L1 19ZM6 19L6 20L7 20L7 21L10 21L10 20L8 20L8 19ZM14 19L14 20L15 20L15 19ZM20 19L20 21L21 21L21 19ZM27 19L27 20L28 20L28 21L29 21L29 22L30 22L30 21L29 21L29 20L28 20L28 19ZM44 21L44 22L45 22L45 21ZM20 22L20 23L21 23L21 22ZM24 22L24 23L25 23L25 22ZM51 22L51 24L52 24L52 22ZM4 23L4 26L5 26L5 25L6 25L6 26L7 26L7 25L8 25L8 26L9 26L9 25L8 25L8 24L10 24L10 23L8 23L8 24L7 24L7 23L6 23L6 24L5 24L5 23ZM6 24L6 25L7 25L7 24ZM27 24L27 25L26 25L26 26L28 26L28 24ZM48 24L48 26L49 26L49 24ZM17 25L17 26L18 26L18 25ZM5 27L5 30L8 30L8 27ZM10 27L10 28L11 28L11 29L12 29L12 28L11 28L11 27ZM18 27L18 28L19 28L19 31L18 31L18 33L19 33L19 34L20 34L20 33L19 33L19 31L20 31L20 32L21 32L21 31L20 31L20 28L19 28L19 27ZM27 27L27 30L30 30L30 27ZM49 27L49 30L52 30L52 27ZM1 28L1 29L2 29L2 28ZM6 28L6 29L7 29L7 28ZM14 28L14 29L13 29L13 30L14 30L14 31L16 31L16 32L17 32L17 31L16 31L16 30L15 30L15 28ZM28 28L28 29L29 29L29 28ZM46 28L46 29L45 29L45 30L46 30L46 31L45 31L45 32L47 32L47 30L48 30L48 29L47 29L47 28ZM50 28L50 29L51 29L51 28ZM37 30L37 31L38 31L38 30ZM23 31L23 32L24 32L24 31ZM35 33L35 35L36 35L36 33ZM17 34L17 35L18 35L18 36L16 36L16 37L17 37L17 38L16 38L16 39L17 39L17 40L16 40L16 41L15 41L15 39L14 39L14 38L13 38L13 39L14 39L14 41L13 41L13 42L14 42L14 44L15 44L15 43L16 43L16 44L17 44L17 46L16 46L16 45L13 45L13 46L14 46L14 48L15 48L15 50L16 50L16 49L17 49L17 48L16 48L16 47L18 47L18 45L19 45L19 44L20 44L20 45L21 45L21 44L20 44L20 43L21 43L21 42L20 42L20 40L21 40L21 39L20 39L20 38L22 38L22 37L23 37L23 36L22 36L22 37L21 37L21 35L20 35L20 36L19 36L19 35L18 35L18 34ZM32 34L32 35L33 35L33 34ZM56 34L56 35L57 35L57 34ZM6 36L6 37L7 37L7 38L8 38L8 36ZM31 36L31 37L32 37L32 36ZM49 36L49 37L48 37L48 40L47 40L47 38L46 38L46 41L48 41L48 40L49 40L49 37L50 37L50 36ZM53 36L53 37L52 37L52 38L54 38L54 36ZM9 37L9 39L10 39L10 40L9 40L9 41L10 41L10 40L11 40L11 39L10 39L10 37ZM17 38L17 39L18 39L18 40L19 40L19 39L18 39L18 38ZM24 38L24 39L25 39L25 38ZM28 38L28 39L29 39L29 38ZM6 40L6 41L8 41L8 40ZM22 40L22 41L23 41L23 40ZM14 41L14 42L15 42L15 41ZM16 41L16 43L17 43L17 41ZM34 41L34 42L35 42L35 41ZM8 42L8 43L9 43L9 44L8 44L8 45L9 45L9 44L10 44L10 42ZM18 43L18 44L19 44L19 43ZM22 43L22 44L23 44L23 46L24 46L24 48L25 48L25 47L26 47L26 46L24 46L24 44L23 44L23 43ZM49 44L49 45L50 45L50 44ZM36 45L36 46L37 46L37 45ZM43 46L43 47L44 47L44 46ZM27 49L27 52L30 52L30 49ZM49 49L49 52L52 52L52 49ZM28 50L28 51L29 51L29 50ZM50 50L50 51L51 51L51 50ZM21 51L21 52L22 52L22 51ZM47 51L47 52L48 52L48 51ZM27 53L27 54L24 54L24 55L26 55L26 56L27 56L27 55L28 55L28 53ZM40 54L40 56L41 56L41 54ZM55 54L55 55L57 55L57 54ZM36 56L36 57L37 57L37 56ZM56 56L56 57L57 57L57 56ZM0 0L0 7L7 7L7 0ZM1 1L1 6L6 6L6 1ZM2 2L2 5L5 5L5 2ZM50 0L50 7L57 7L57 0ZM51 1L51 6L56 6L56 1ZM52 2L52 5L55 5L55 2ZM0 50L0 57L7 57L7 50ZM1 51L1 56L6 56L6 51ZM2 52L2 55L5 55L5 52Z" fill="#000000"/></g></g></svg>
