<?xml version="1.0" encoding="UTF-8"?>
<svg xmlns="http://www.w3.org/2000/svg" version="1.1" width="300" height="300" viewBox="0 0 300 300"><rect x="0" y="0" width="300" height="300" fill="#fefefe"/><g transform="scale(4.615)"><g transform="translate(4,4)"><path fill-rule="evenodd" d="M8 0L8 2L10 2L10 3L11 3L11 4L10 4L10 5L9 5L9 4L8 4L8 10L6 10L6 11L7 11L7 12L6 12L6 13L7 13L7 14L6 14L6 15L5 15L5 13L4 13L4 12L2 12L2 11L5 11L5 9L7 9L7 8L5 8L5 9L4 9L4 10L2 10L2 11L1 11L1 12L0 12L0 17L3 17L3 18L0 18L0 19L2 19L2 20L0 20L0 21L1 21L1 22L3 22L3 23L2 23L2 24L0 24L0 26L1 26L1 27L0 27L0 28L1 28L1 27L3 27L3 29L1 29L1 30L3 30L3 29L4 29L4 31L3 31L3 32L2 32L2 31L0 31L0 32L1 32L1 33L0 33L0 34L2 34L2 35L0 35L0 36L1 36L1 37L4 37L4 38L5 38L5 39L4 39L4 40L3 40L3 39L2 39L2 40L1 40L1 38L0 38L0 41L1 41L1 42L2 42L2 43L0 43L0 44L1 44L1 46L0 46L0 48L5 48L5 47L7 47L7 48L6 48L6 49L7 49L7 48L9 48L9 49L8 49L8 50L9 50L9 51L8 51L8 52L9 52L9 54L8 54L8 57L9 57L9 55L10 55L10 56L11 56L11 55L10 55L10 51L11 51L11 52L13 52L13 51L16 51L16 52L14 52L14 54L13 54L13 57L14 57L14 54L15 54L15 57L17 57L17 56L18 56L18 57L19 57L19 56L18 56L18 55L16 55L16 54L17 54L17 52L18 52L18 54L19 54L19 50L18 50L18 49L19 49L19 48L20 48L20 47L21 47L21 48L22 48L22 51L24 51L24 52L22 52L22 53L21 53L21 51L20 51L20 53L21 53L21 54L20 54L20 55L21 55L21 56L20 56L20 57L21 57L21 56L22 56L22 57L25 57L25 56L26 56L26 57L28 57L28 55L29 55L29 57L33 57L33 55L34 55L34 57L35 57L35 55L37 55L37 54L36 54L36 53L37 53L37 52L38 52L38 53L39 53L39 56L40 56L40 57L41 57L41 56L43 56L43 54L42 54L42 53L41 53L41 51L43 51L43 52L44 52L44 55L45 55L45 56L44 56L44 57L45 57L45 56L46 56L46 57L50 57L50 55L49 55L49 54L52 54L52 55L53 55L53 56L51 56L51 57L53 57L53 56L54 56L54 55L57 55L57 54L55 54L55 53L57 53L57 50L56 50L56 52L54 52L54 51L53 51L53 50L54 50L54 47L55 47L55 49L56 49L56 47L57 47L57 45L56 45L56 44L57 44L57 42L56 42L56 41L57 41L57 40L54 40L54 39L53 39L53 44L52 44L52 39L51 39L51 38L52 38L52 37L53 37L53 38L54 38L54 37L55 37L55 38L57 38L57 36L56 36L56 35L57 35L57 34L56 34L56 35L55 35L55 36L54 36L54 34L53 34L53 36L52 36L52 37L51 37L51 33L50 33L50 32L51 32L51 31L52 31L52 32L54 32L54 33L56 33L56 31L57 31L57 28L56 28L56 27L57 27L57 24L56 24L56 23L57 23L57 21L56 21L56 20L57 20L57 18L56 18L56 20L55 20L55 21L54 21L54 19L55 19L55 16L56 16L56 17L57 17L57 12L56 12L56 11L57 11L57 10L56 10L56 11L55 11L55 9L57 9L57 8L55 8L55 9L54 9L54 10L53 10L53 8L49 8L49 6L48 6L48 8L47 8L47 10L48 10L48 11L49 11L49 10L50 10L50 13L49 13L49 14L48 14L48 12L47 12L47 11L46 11L46 7L47 7L47 5L48 5L48 0L46 0L46 1L47 1L47 2L45 2L45 4L44 4L44 2L43 2L43 3L42 3L42 4L41 4L41 6L40 6L40 7L41 7L41 8L40 8L40 9L41 9L41 10L42 10L42 12L41 12L41 11L40 11L40 10L38 10L38 9L37 9L37 8L39 8L39 6L38 6L38 7L37 7L37 6L36 6L36 10L34 10L34 9L35 9L35 4L36 4L36 3L35 3L35 4L34 4L34 2L37 2L37 4L38 4L38 5L39 5L39 4L40 4L40 2L42 2L42 1L45 1L45 0L42 0L42 1L41 1L41 0L38 0L38 2L37 2L37 1L35 1L35 0L34 0L34 2L33 2L33 1L32 1L32 0L30 0L30 1L28 1L28 0L26 0L26 2L25 2L25 4L24 4L24 1L25 1L25 0L24 0L24 1L23 1L23 0L20 0L20 1L19 1L19 0L16 0L16 1L18 1L18 3L17 3L17 4L16 4L16 2L15 2L15 0L14 0L14 3L13 3L13 4L12 4L12 3L11 3L11 2L13 2L13 1L9 1L9 0ZM22 1L22 2L21 2L21 3L18 3L18 5L16 5L16 6L15 6L15 7L14 7L14 6L13 6L13 7L12 7L12 5L10 5L10 6L9 6L9 7L10 7L10 6L11 6L11 9L13 9L13 10L11 10L11 11L10 11L10 12L8 12L8 14L9 14L9 15L8 15L8 16L7 16L7 15L6 15L6 16L5 16L5 17L4 17L4 15L3 15L3 17L4 17L4 18L5 18L5 17L6 17L6 18L7 18L7 17L9 17L9 18L8 18L8 19L5 19L5 22L10 22L10 23L6 23L6 24L8 24L8 25L9 25L9 27L10 27L10 28L9 28L9 29L10 29L10 30L9 30L9 31L8 31L8 33L5 33L5 32L7 32L7 31L4 31L4 33L3 33L3 34L4 34L4 36L5 36L5 37L6 37L6 38L7 38L7 37L9 37L9 36L10 36L10 35L9 35L9 34L8 34L8 33L9 33L9 31L10 31L10 30L11 30L11 32L10 32L10 33L11 33L11 34L12 34L12 35L11 35L11 37L10 37L10 38L8 38L8 39L5 39L5 40L4 40L4 43L6 43L6 44L8 44L8 45L9 45L9 43L8 43L8 41L6 41L6 42L5 42L5 40L8 40L8 39L9 39L9 40L10 40L10 41L9 41L9 42L11 42L11 43L10 43L10 45L11 45L11 47L10 47L10 48L12 48L12 46L13 46L13 44L14 44L14 43L17 43L17 42L18 42L18 38L19 38L19 37L18 37L18 36L19 36L19 35L20 35L20 36L21 36L21 37L22 37L22 38L20 38L20 39L22 39L22 40L20 40L20 42L21 42L21 43L20 43L20 44L21 44L21 45L20 45L20 46L22 46L22 48L23 48L23 49L24 49L24 51L25 51L25 53L26 53L26 50L25 50L25 49L26 49L26 48L28 48L28 47L30 47L30 48L31 48L31 50L32 50L32 51L31 51L31 52L32 52L32 51L33 51L33 50L32 50L32 48L31 48L31 47L33 47L33 49L34 49L34 50L35 50L35 51L34 51L34 52L33 52L33 53L34 53L34 54L35 54L35 53L36 53L36 52L35 52L35 51L37 51L37 49L36 49L36 48L37 48L37 47L38 47L38 51L39 51L39 49L40 49L40 51L41 51L41 49L42 49L42 50L43 50L43 51L44 51L44 50L45 50L45 51L46 51L46 50L47 50L47 44L48 44L48 42L49 42L49 45L48 45L48 46L49 46L49 47L50 47L50 46L49 46L49 45L50 45L50 42L49 42L49 41L51 41L51 40L48 40L48 38L49 38L49 37L48 37L48 38L47 38L47 37L46 37L46 38L47 38L47 40L48 40L48 41L46 41L46 39L45 39L45 41L44 41L44 40L43 40L43 41L42 41L42 40L41 40L41 41L40 41L40 38L39 38L39 36L40 36L40 35L42 35L42 36L41 36L41 39L43 39L43 38L44 38L44 34L45 34L45 35L46 35L46 36L48 36L48 35L46 35L46 34L48 34L48 33L47 33L47 28L46 28L46 29L44 29L44 28L42 28L42 31L41 31L41 30L40 30L40 28L41 28L41 27L40 27L40 26L41 26L41 25L40 25L40 23L41 23L41 24L42 24L42 27L44 27L44 26L43 26L43 25L44 25L44 24L45 24L45 25L46 25L46 26L45 26L45 27L46 27L46 26L47 26L47 27L48 27L48 26L49 26L49 24L47 24L47 25L46 25L46 24L45 24L45 23L48 23L48 22L50 22L50 26L51 26L51 25L52 25L52 26L53 26L53 25L54 25L54 26L55 26L55 25L56 25L56 24L55 24L55 23L56 23L56 21L55 21L55 23L54 23L54 22L52 22L52 20L53 20L53 19L54 19L54 16L55 16L55 15L56 15L56 13L55 13L55 11L54 11L54 12L53 12L53 13L54 13L54 14L52 14L52 13L50 13L50 15L49 15L49 16L50 16L50 19L51 19L51 20L49 20L49 17L48 17L48 16L46 16L46 15L48 15L48 14L47 14L47 13L46 13L46 11L45 11L45 9L44 9L44 8L45 8L45 7L46 7L46 5L47 5L47 3L46 3L46 4L45 4L45 5L44 5L44 4L43 4L43 5L44 5L44 6L43 6L43 7L42 7L42 6L41 6L41 7L42 7L42 8L41 8L41 9L42 9L42 10L43 10L43 9L44 9L44 11L43 11L43 12L42 12L42 15L41 15L41 17L42 17L42 18L43 18L43 17L44 17L44 19L41 19L41 18L40 18L40 15L39 15L39 14L40 14L40 11L39 11L39 12L37 12L37 11L36 11L36 12L35 12L35 11L34 11L34 10L33 10L33 9L32 9L32 8L34 8L34 6L33 6L33 5L34 5L34 4L33 4L33 2L32 2L32 1L30 1L30 3L29 3L29 2L27 2L27 3L26 3L26 4L30 4L30 3L31 3L31 2L32 2L32 5L31 5L31 9L30 9L30 11L29 11L29 9L27 9L27 10L25 10L25 9L26 9L26 5L24 5L24 6L23 6L23 5L22 5L22 4L23 4L23 1ZM39 1L39 2L38 2L38 3L39 3L39 2L40 2L40 1ZM14 3L14 4L15 4L15 3ZM21 3L21 4L22 4L22 3ZM18 5L18 9L17 9L17 11L16 11L16 8L14 8L14 7L13 7L13 8L14 8L14 9L15 9L15 11L14 11L14 12L15 12L15 11L16 11L16 12L17 12L17 14L15 14L15 15L17 15L17 16L14 16L14 15L13 15L13 11L12 11L12 14L11 14L11 15L9 15L9 17L10 17L10 18L11 18L11 19L13 19L13 20L12 20L12 22L13 22L13 23L12 23L12 24L10 24L10 27L11 27L11 29L12 29L12 28L13 28L13 29L14 29L14 30L15 30L15 31L16 31L16 32L17 32L17 31L18 31L18 30L17 30L17 31L16 31L16 30L15 30L15 29L14 29L14 27L15 27L15 28L16 28L16 27L15 27L15 26L16 26L16 25L17 25L17 23L16 23L16 22L17 22L17 20L14 20L14 19L18 19L18 23L19 23L19 19L20 19L20 21L21 21L21 19L20 19L20 17L21 17L21 18L22 18L22 21L23 21L23 22L22 22L22 23L23 23L23 24L22 24L22 26L21 26L21 30L20 30L20 29L19 29L19 30L20 30L20 31L19 31L19 32L18 32L18 34L17 34L17 35L18 35L18 34L20 34L20 35L21 35L21 34L20 34L20 32L21 32L21 30L22 30L22 33L23 33L23 34L22 34L22 37L23 37L23 35L25 35L25 36L24 36L24 37L25 37L25 36L26 36L26 37L27 37L27 36L28 36L28 37L29 37L29 36L28 36L28 35L31 35L31 36L30 36L30 41L29 41L29 42L28 42L28 40L27 40L27 39L26 39L26 38L24 38L24 39L26 39L26 40L25 40L25 41L26 41L26 42L24 42L24 41L23 41L23 40L22 40L22 41L23 41L23 42L24 42L24 44L23 44L23 43L22 43L22 44L23 44L23 48L24 48L24 47L26 47L26 46L27 46L27 47L28 47L28 44L29 44L29 45L30 45L30 43L31 43L31 46L30 46L30 47L31 47L31 46L32 46L32 45L33 45L33 47L34 47L34 45L33 45L33 44L35 44L35 43L36 43L36 41L37 41L37 42L38 42L38 41L39 41L39 38L38 38L38 36L39 36L39 34L38 34L38 33L39 33L39 32L40 32L40 34L42 34L42 33L43 33L43 34L44 34L44 33L45 33L45 34L46 34L46 32L45 32L45 31L46 31L46 30L45 30L45 31L42 31L42 33L41 33L41 32L40 32L40 30L39 30L39 31L38 31L38 30L37 30L37 28L38 28L38 29L39 29L39 26L38 26L38 25L37 25L37 24L36 24L36 23L38 23L38 21L39 21L39 19L40 19L40 22L42 22L42 24L44 24L44 23L45 23L45 22L44 22L44 21L45 21L45 20L46 20L46 19L47 19L47 20L48 20L48 19L47 19L47 18L48 18L48 17L47 17L47 18L46 18L46 16L44 16L44 14L45 14L45 15L46 15L46 13L45 13L45 12L44 12L44 14L43 14L43 16L44 16L44 17L45 17L45 18L46 18L46 19L44 19L44 21L43 21L43 22L42 22L42 20L41 20L41 19L40 19L40 18L38 18L38 16L37 16L37 15L38 15L38 13L37 13L37 12L36 12L36 13L35 13L35 12L34 12L34 11L32 11L32 9L31 9L31 11L30 11L30 12L29 12L29 11L28 11L28 10L27 10L27 11L28 11L28 12L27 12L27 14L26 14L26 11L25 11L25 10L24 10L24 9L25 9L25 8L24 8L24 9L23 9L23 8L22 8L22 10L24 10L24 11L22 11L22 12L23 12L23 14L24 14L24 15L23 15L23 16L22 16L22 14L21 14L21 16L20 16L20 17L19 17L19 15L20 15L20 13L21 13L21 11L20 11L20 9L21 9L21 6L22 6L22 7L23 7L23 6L22 6L22 5L20 5L20 7L19 7L19 5ZM27 5L27 8L30 8L30 5ZM16 6L16 7L17 7L17 6ZM24 6L24 7L25 7L25 6ZM28 6L28 7L29 7L29 6ZM32 6L32 7L33 7L33 6ZM44 6L44 7L43 7L43 8L44 8L44 7L45 7L45 6ZM0 8L0 10L1 10L1 9L3 9L3 8ZM9 8L9 9L10 9L10 8ZM19 8L19 9L18 9L18 10L19 10L19 9L20 9L20 8ZM48 9L48 10L49 10L49 9ZM50 9L50 10L52 10L52 9ZM18 11L18 12L19 12L19 13L18 13L18 14L17 14L17 15L18 15L18 14L19 14L19 13L20 13L20 11ZM31 11L31 12L30 12L30 13L29 13L29 15L28 15L28 14L27 14L27 15L26 15L26 17L25 17L25 15L24 15L24 18L26 18L26 17L27 17L27 19L26 19L26 20L25 20L25 19L24 19L24 20L25 20L25 21L26 21L26 20L27 20L27 21L28 21L28 22L26 22L26 23L27 23L27 25L26 25L26 26L27 26L27 25L28 25L28 23L30 23L30 24L29 24L29 25L30 25L30 26L31 26L31 25L32 25L32 28L31 28L31 29L32 29L32 28L33 28L33 29L34 29L34 31L32 31L32 32L30 32L30 34L31 34L31 33L32 33L32 34L33 34L33 35L35 35L35 37L34 37L34 36L33 36L33 37L34 37L34 38L35 38L35 41L34 41L34 39L33 39L33 38L31 38L31 43L32 43L32 40L33 40L33 41L34 41L34 42L35 42L35 41L36 41L36 38L37 38L37 37L36 37L36 35L37 35L37 36L38 36L38 34L37 34L37 33L36 33L36 31L37 31L37 32L38 32L38 31L37 31L37 30L35 30L35 29L36 29L36 28L37 28L37 26L36 26L36 24L34 24L34 23L33 23L33 24L34 24L34 26L33 26L33 25L32 25L32 23L30 23L30 22L33 22L33 21L34 21L34 22L35 22L35 23L36 23L36 22L37 22L37 21L38 21L38 20L37 20L37 21L36 21L36 20L35 20L35 19L34 19L34 18L36 18L36 19L37 19L37 18L36 18L36 14L35 14L35 13L34 13L34 15L33 15L33 14L32 14L32 11ZM51 11L51 12L52 12L52 11ZM1 12L1 13L2 13L2 14L4 14L4 13L2 13L2 12ZM24 13L24 14L25 14L25 13ZM31 14L31 15L32 15L32 17L33 17L33 18L32 18L32 19L31 19L31 20L32 20L32 21L33 21L33 20L34 20L34 19L33 19L33 18L34 18L34 17L35 17L35 15L34 15L34 17L33 17L33 15L32 15L32 14ZM51 14L51 15L50 15L50 16L52 16L52 17L51 17L51 19L52 19L52 17L53 17L53 16L54 16L54 15L52 15L52 14ZM1 15L1 16L2 16L2 15ZM11 15L11 16L10 16L10 17L11 17L11 18L13 18L13 17L14 17L14 16L13 16L13 15ZM29 15L29 16L30 16L30 17L28 17L28 18L30 18L30 17L31 17L31 16L30 16L30 15ZM6 16L6 17L7 17L7 16ZM11 16L11 17L13 17L13 16ZM17 16L17 17L16 17L16 18L17 18L17 17L18 17L18 16ZM18 18L18 19L19 19L19 18ZM3 19L3 22L4 22L4 19ZM29 19L29 20L28 20L28 21L29 21L29 22L30 22L30 19ZM6 20L6 21L7 21L7 20ZM8 20L8 21L10 21L10 22L11 22L11 21L10 21L10 20ZM14 21L14 22L15 22L15 21ZM35 21L35 22L36 22L36 21ZM47 21L47 22L48 22L48 21ZM20 22L20 23L21 23L21 22ZM24 22L24 23L25 23L25 22ZM43 22L43 23L44 23L44 22ZM51 22L51 23L52 23L52 25L53 25L53 24L54 24L54 25L55 25L55 24L54 24L54 23L52 23L52 22ZM14 23L14 24L12 24L12 25L11 25L11 27L13 27L13 26L14 26L14 25L16 25L16 24L15 24L15 23ZM2 24L2 26L3 26L3 25L5 25L5 26L7 26L7 25L5 25L5 24ZM18 24L18 25L19 25L19 26L20 26L20 25L19 25L19 24ZM24 25L24 27L22 27L22 28L23 28L23 29L22 29L22 30L23 30L23 31L24 31L24 34L26 34L26 35L28 35L28 34L29 34L29 32L28 32L28 31L27 31L27 33L28 33L28 34L26 34L26 33L25 33L25 32L26 32L26 30L25 30L25 29L24 29L24 27L25 27L25 25ZM5 27L5 30L8 30L8 27ZM18 27L18 28L20 28L20 27ZM27 27L27 30L30 30L30 27ZM34 27L34 29L35 29L35 27ZM49 27L49 30L52 30L52 27ZM54 27L54 28L53 28L53 31L54 31L54 32L55 32L55 31L56 31L56 30L55 30L55 27ZM6 28L6 29L7 29L7 28ZM28 28L28 29L29 29L29 28ZM50 28L50 29L51 29L51 28ZM23 29L23 30L24 30L24 29ZM43 29L43 30L44 30L44 29ZM54 30L54 31L55 31L55 30ZM12 31L12 32L11 32L11 33L12 33L12 34L13 34L13 35L12 35L12 36L13 36L13 41L12 41L12 37L11 37L11 39L10 39L10 40L11 40L11 42L12 42L12 44L13 44L13 42L14 42L14 40L15 40L15 42L16 42L16 41L17 41L17 40L15 40L15 39L14 39L14 38L15 38L15 37L14 37L14 36L15 36L15 35L14 35L14 34L16 34L16 33L15 33L15 32L13 32L13 31ZM34 31L34 32L32 32L32 33L34 33L34 32L35 32L35 31ZM49 31L49 32L50 32L50 31ZM12 32L12 33L13 33L13 34L14 34L14 33L13 33L13 32ZM4 33L4 34L5 34L5 33ZM35 33L35 35L36 35L36 33ZM49 33L49 36L50 36L50 33ZM6 34L6 35L5 35L5 36L6 36L6 37L7 37L7 36L8 36L8 35L7 35L7 34ZM2 35L2 36L3 36L3 35ZM6 35L6 36L7 36L7 35ZM16 36L16 37L17 37L17 38L16 38L16 39L17 39L17 38L18 38L18 37L17 37L17 36ZM31 36L31 37L32 37L32 36ZM42 36L42 37L43 37L43 36ZM53 36L53 37L54 37L54 36ZM55 36L55 37L56 37L56 36ZM35 37L35 38L36 38L36 37ZM28 38L28 39L29 39L29 38ZM37 39L37 41L38 41L38 39ZM2 40L2 42L3 42L3 40ZM41 41L41 42L40 42L40 45L39 45L39 46L40 46L40 45L41 45L41 47L40 47L40 49L41 49L41 47L42 47L42 45L43 45L43 46L44 46L44 45L45 45L45 48L44 48L44 49L43 49L43 50L44 50L44 49L45 49L45 50L46 50L46 44L47 44L47 43L46 43L46 41L45 41L45 44L44 44L44 45L43 45L43 44L42 44L42 45L41 45L41 43L44 43L44 41L43 41L43 42L42 42L42 41ZM54 41L54 42L55 42L55 43L54 43L54 44L53 44L53 45L52 45L52 46L53 46L53 45L54 45L54 46L55 46L55 47L56 47L56 45L55 45L55 44L56 44L56 42L55 42L55 41ZM6 42L6 43L7 43L7 42ZM27 42L27 44L28 44L28 42ZM29 42L29 43L30 43L30 42ZM18 43L18 44L19 44L19 43ZM37 43L37 44L36 44L36 45L37 45L37 46L36 46L36 47L37 47L37 46L38 46L38 45L37 45L37 44L39 44L39 43ZM3 44L3 45L5 45L5 46L3 46L3 47L5 47L5 46L7 46L7 47L8 47L8 46L7 46L7 45L5 45L5 44ZM15 44L15 45L16 45L16 46L17 46L17 47L16 47L16 48L15 48L15 47L13 47L13 48L15 48L15 50L16 50L16 51L18 51L18 50L17 50L17 49L18 49L18 48L19 48L19 45L18 45L18 46L17 46L17 44ZM24 45L24 46L26 46L26 45ZM1 46L1 47L2 47L2 46ZM17 47L17 48L18 48L18 47ZM52 47L52 48L53 48L53 47ZM34 48L34 49L35 49L35 48ZM11 49L11 50L12 50L12 51L13 51L13 50L14 50L14 49ZM27 49L27 52L30 52L30 49ZM49 49L49 52L52 52L52 49ZM28 50L28 51L29 51L29 50ZM50 50L50 51L51 51L51 50ZM47 51L47 52L46 52L46 55L47 55L47 56L48 56L48 54L49 54L49 53L48 53L48 54L47 54L47 52L48 52L48 51ZM39 52L39 53L40 53L40 52ZM11 53L11 54L12 54L12 53ZM22 53L22 54L21 54L21 55L23 55L23 53ZM27 53L27 55L28 55L28 53ZM31 53L31 54L30 54L30 55L33 55L33 54L32 54L32 53ZM24 54L24 55L26 55L26 54ZM40 54L40 56L41 56L41 54ZM53 54L53 55L54 55L54 54ZM36 56L36 57L37 57L37 56ZM56 56L56 57L57 57L57 56ZM0 0L0 7L7 7L7 0ZM1 1L1 6L6 6L6 1ZM2 2L2 5L5 5L5 2ZM50 0L50 7L57 7L57 0ZM51 1L51 6L56 6L56 1ZM52 2L52 5L55 5L55 2ZM0 50L0 57L7 57L7 50ZM1 51L1 56L6 56L6 51ZM2 52L2 55L5 55L5 52Z" fill="#000000"/></g></g></svg>
