<?xml version="1.0" encoding="UTF-8"?>
<svg xmlns="http://www.w3.org/2000/svg" version="1.1" width="300" height="300" viewBox="0 0 300 300"><rect x="0" y="0" width="300" height="300" fill="#fefefe"/><g transform="scale(4.615)"><g transform="translate(4,4)"><path fill-rule="evenodd" d="M10 0L10 2L11 2L11 3L10 3L10 4L9 4L9 3L8 3L8 4L9 4L9 5L8 5L8 7L9 7L9 8L6 8L6 9L7 9L7 10L5 10L5 11L7 11L7 12L5 12L5 13L4 13L4 12L2 12L2 10L3 10L3 9L5 9L5 8L0 8L0 9L1 9L1 10L0 10L0 12L1 12L1 13L3 13L3 15L4 15L4 14L6 14L6 15L7 15L7 16L6 16L6 17L5 17L5 16L4 16L4 17L5 17L5 18L4 18L4 19L3 19L3 18L1 18L1 19L3 19L3 20L1 20L1 21L0 21L0 22L1 22L1 23L0 23L0 25L1 25L1 26L0 26L0 27L1 27L1 29L2 29L2 28L3 28L3 27L2 27L2 26L4 26L4 30L3 30L3 31L4 31L4 32L3 32L3 33L4 33L4 34L3 34L3 38L2 38L2 36L1 36L1 35L2 35L2 34L1 34L1 33L2 33L2 32L1 32L1 31L0 31L0 36L1 36L1 39L0 39L0 45L1 45L1 46L0 46L0 48L5 48L5 47L7 47L7 46L5 46L5 44L6 44L6 45L7 45L7 44L8 44L8 45L9 45L9 44L14 44L14 45L13 45L13 46L14 46L14 45L15 45L15 44L14 44L14 43L16 43L16 44L18 44L18 45L17 45L17 47L19 47L19 46L20 46L20 47L23 47L23 46L25 46L25 44L27 44L27 45L26 45L26 47L25 47L25 49L24 49L24 48L23 48L23 49L21 49L21 50L20 50L20 48L16 48L16 49L15 49L15 50L14 50L14 48L15 48L15 47L14 47L14 48L12 48L12 47L11 47L11 45L10 45L10 46L8 46L8 51L9 51L9 48L12 48L12 49L10 49L10 53L11 53L11 51L12 51L12 52L13 52L13 53L14 53L14 55L16 55L16 56L13 56L13 57L16 57L16 56L17 56L17 57L20 57L20 56L19 56L19 55L20 55L20 54L19 54L19 53L20 53L20 52L21 52L21 53L22 53L22 54L21 54L21 56L24 56L24 57L26 57L26 56L27 56L27 57L29 57L29 56L30 56L30 57L31 57L31 56L35 56L35 57L39 57L39 56L40 56L40 55L41 55L41 56L42 56L42 55L44 55L44 54L45 54L45 53L47 53L47 51L46 51L46 50L45 50L45 51L44 51L44 48L43 48L43 47L44 47L44 46L45 46L45 47L47 47L47 48L48 48L48 49L47 49L47 50L48 50L48 54L47 54L47 55L45 55L45 57L48 57L48 56L50 56L50 57L52 57L52 55L51 55L51 53L52 53L52 54L53 54L53 52L54 52L54 54L55 54L55 52L56 52L56 49L57 49L57 48L56 48L56 46L57 46L57 44L56 44L56 42L55 42L55 39L57 39L57 36L56 36L56 37L55 37L55 35L56 35L56 34L55 34L55 33L54 33L54 32L56 32L56 33L57 33L57 32L56 32L56 30L57 30L57 28L56 28L56 26L57 26L57 25L56 25L56 22L57 22L57 19L56 19L56 18L52 18L52 19L50 19L50 17L51 17L51 15L52 15L52 16L54 16L54 17L56 17L56 16L57 16L57 15L56 15L56 14L57 14L57 12L56 12L56 14L55 14L55 15L54 15L54 14L53 14L53 13L54 13L54 12L55 12L55 11L56 11L56 10L54 10L54 11L53 11L53 10L50 10L50 8L46 8L46 9L47 9L47 10L46 10L46 11L45 11L45 9L44 9L44 8L43 8L43 6L44 6L44 7L45 7L45 6L46 6L46 7L47 7L47 5L48 5L48 0L46 0L46 1L45 1L45 2L44 2L44 3L42 3L42 2L43 2L43 0L41 0L41 1L40 1L40 0L39 0L39 1L38 1L38 0L37 0L37 1L38 1L38 2L39 2L39 3L38 3L38 4L37 4L37 3L36 3L36 0L35 0L35 1L33 1L33 0L32 0L32 1L33 1L33 2L32 2L32 3L31 3L31 2L30 2L30 1L31 1L31 0L30 0L30 1L29 1L29 3L30 3L30 4L26 4L26 3L23 3L23 4L22 4L22 3L21 3L21 4L19 4L19 2L20 2L20 0L19 0L19 1L18 1L18 2L17 2L17 1L16 1L16 2L17 2L17 6L16 6L16 7L15 7L15 6L14 6L14 7L13 7L13 6L12 6L12 5L10 5L10 4L12 4L12 2L13 2L13 4L14 4L14 2L15 2L15 0L14 0L14 2L13 2L13 1L11 1L11 0ZM21 0L21 2L27 2L27 1L25 1L25 0L23 0L23 1L22 1L22 0ZM8 1L8 2L9 2L9 1ZM46 1L46 2L47 2L47 1ZM33 2L33 3L32 3L32 4L31 4L31 8L32 8L32 10L31 10L31 11L29 11L29 10L28 10L28 11L29 11L29 12L28 12L28 13L26 13L26 12L27 12L27 11L26 11L26 12L25 12L25 11L24 11L24 12L23 12L23 13L22 13L22 12L21 12L21 11L22 11L22 10L23 10L23 8L24 8L24 6L23 6L23 5L24 5L24 4L23 4L23 5L22 5L22 4L21 4L21 7L22 7L22 8L19 8L19 9L20 9L20 10L19 10L19 13L20 13L20 14L18 14L18 15L17 15L17 13L18 13L18 12L17 12L17 11L18 11L18 9L16 9L16 8L17 8L17 7L18 7L18 6L19 6L19 7L20 7L20 5L18 5L18 6L17 6L17 7L16 7L16 8L15 8L15 7L14 7L14 10L15 10L15 13L13 13L13 15L11 15L11 13L12 13L12 12L11 12L11 13L10 13L10 16L9 16L9 12L10 12L10 10L11 10L11 11L13 11L13 12L14 12L14 11L13 11L13 8L12 8L12 6L11 6L11 7L10 7L10 5L9 5L9 7L10 7L10 10L9 10L9 9L8 9L8 10L9 10L9 11L8 11L8 12L7 12L7 13L6 13L6 14L8 14L8 19L9 19L9 22L8 22L8 23L9 23L9 24L8 24L8 25L5 25L5 24L7 24L7 23L6 23L6 22L7 22L7 21L8 21L8 20L7 20L7 19L6 19L6 20L5 20L5 19L4 19L4 20L5 20L5 21L6 21L6 22L3 22L3 23L4 23L4 25L5 25L5 26L10 26L10 27L11 27L11 28L12 28L12 30L11 30L11 32L12 32L12 30L13 30L13 29L16 29L16 31L15 31L15 30L14 30L14 32L13 32L13 34L12 34L12 33L10 33L10 31L9 31L9 32L7 32L7 31L5 31L5 32L7 32L7 33L6 33L6 34L7 34L7 35L5 35L5 34L4 34L4 37L6 37L6 38L5 38L5 39L4 39L4 41L3 41L3 42L2 42L2 39L1 39L1 44L2 44L2 45L3 45L3 47L5 47L5 46L4 46L4 45L3 45L3 44L2 44L2 43L4 43L4 42L5 42L5 43L6 43L6 44L7 44L7 43L8 43L8 44L9 44L9 42L7 42L7 41L6 41L6 40L8 40L8 41L9 41L9 39L10 39L10 40L11 40L11 41L10 41L10 42L11 42L11 43L12 43L12 42L17 42L17 43L18 43L18 42L19 42L19 41L18 41L18 40L17 40L17 39L20 39L20 38L18 38L18 37L17 37L17 36L19 36L19 37L23 37L23 38L22 38L22 39L23 39L23 40L20 40L20 42L21 42L21 43L20 43L20 44L21 44L21 45L20 45L20 46L21 46L21 45L22 45L22 46L23 46L23 45L24 45L24 44L23 44L23 45L22 45L22 44L21 44L21 43L22 43L22 42L23 42L23 43L27 43L27 44L28 44L28 45L27 45L27 46L29 46L29 44L28 44L28 43L29 43L29 40L32 40L32 41L30 41L30 42L32 42L32 43L33 43L33 44L32 44L32 49L31 49L31 53L30 53L30 54L27 54L27 53L26 53L26 55L27 55L27 56L29 56L29 55L30 55L30 56L31 56L31 54L32 54L32 53L33 53L33 55L35 55L35 56L36 56L36 54L35 54L35 53L34 53L34 52L35 52L35 51L33 51L33 52L32 52L32 50L36 50L36 52L37 52L37 51L38 51L38 52L39 52L39 53L37 53L37 54L40 54L40 53L42 53L42 52L43 52L43 51L42 51L42 50L41 50L41 48L42 48L42 49L43 49L43 48L42 48L42 47L43 47L43 46L41 46L41 48L39 48L39 47L40 47L40 45L41 45L41 44L42 44L42 42L41 42L41 41L44 41L44 42L43 42L43 44L44 44L44 45L45 45L45 46L47 46L47 47L48 47L48 48L49 48L49 47L51 47L51 48L52 48L52 47L51 47L51 46L54 46L54 47L55 47L55 46L56 46L56 45L55 45L55 44L54 44L54 45L51 45L51 44L53 44L53 43L54 43L54 42L53 42L53 41L51 41L51 42L50 42L50 43L49 43L49 42L48 42L48 41L49 41L49 40L50 40L50 39L54 39L54 38L53 38L53 35L55 35L55 34L54 34L54 33L52 33L52 32L51 32L51 33L52 33L52 34L50 34L50 31L48 31L48 29L46 29L46 30L47 30L47 31L46 31L46 33L45 33L45 32L43 32L43 31L44 31L44 30L45 30L45 28L46 28L46 27L47 27L47 25L49 25L49 24L50 24L50 22L51 22L51 21L54 21L54 22L53 22L53 23L51 23L51 25L50 25L50 26L53 26L53 27L54 27L54 26L53 26L53 25L54 25L54 24L53 24L53 23L55 23L55 22L56 22L56 21L55 21L55 20L56 20L56 19L55 19L55 20L53 20L53 19L52 19L52 20L51 20L51 21L49 21L49 20L47 20L47 19L48 19L48 18L47 18L47 17L50 17L50 14L51 14L51 12L50 12L50 10L47 10L47 12L45 12L45 11L41 11L41 12L40 12L40 11L39 11L39 10L40 10L40 9L42 9L42 8L41 8L41 7L42 7L42 6L43 6L43 5L42 5L42 6L41 6L41 5L40 5L40 4L41 4L41 3L39 3L39 4L38 4L38 5L37 5L37 4L36 4L36 5L35 5L35 2ZM44 3L44 6L45 6L45 5L47 5L47 3ZM15 4L15 5L16 5L16 4ZM25 4L25 8L26 8L26 4ZM32 4L32 5L34 5L34 7L33 7L33 6L32 6L32 7L33 7L33 9L34 9L34 8L35 8L35 9L37 9L37 10L36 10L36 12L35 12L35 13L37 13L37 14L38 14L38 15L39 15L39 16L38 16L38 17L37 17L37 16L35 16L35 14L33 14L33 13L34 13L34 12L33 12L33 13L32 13L32 11L33 11L33 10L32 10L32 11L31 11L31 13L30 13L30 14L29 14L29 13L28 13L28 14L29 14L29 16L28 16L28 15L27 15L27 14L26 14L26 15L24 15L24 16L26 16L26 15L27 15L27 16L28 16L28 17L27 17L27 18L28 18L28 19L27 19L27 20L28 20L28 19L29 19L29 23L30 23L30 24L29 24L29 25L30 25L30 26L28 26L28 25L27 25L27 26L26 26L26 25L25 25L25 24L28 24L28 23L27 23L27 22L28 22L28 21L25 21L25 20L26 20L26 17L22 17L22 16L21 16L21 17L22 17L22 18L20 18L20 16L19 16L19 15L18 15L18 16L17 16L17 17L19 17L19 18L17 18L17 19L16 19L16 18L15 18L15 17L16 17L16 13L17 13L17 12L16 12L16 13L15 13L15 14L14 14L14 15L13 15L13 17L9 17L9 18L13 18L13 17L14 17L14 18L15 18L15 19L16 19L16 20L15 20L15 21L16 21L16 22L15 22L15 23L14 23L14 21L13 21L13 20L14 20L14 19L10 19L10 20L11 20L11 21L10 21L10 22L9 22L9 23L10 23L10 22L11 22L11 23L12 23L12 21L13 21L13 23L14 23L14 24L15 24L15 25L16 25L16 24L17 24L17 25L18 25L18 26L17 26L17 27L18 27L18 26L19 26L19 27L20 27L20 26L19 26L19 25L22 25L22 26L21 26L21 27L22 27L22 26L23 26L23 27L24 27L24 26L26 26L26 27L25 27L25 28L23 28L23 31L21 31L21 32L18 32L18 31L19 31L19 30L20 30L20 29L22 29L22 28L19 28L19 29L18 29L18 28L16 28L16 29L18 29L18 31L17 31L17 32L14 32L14 34L15 34L15 33L17 33L17 34L16 34L16 35L14 35L14 36L12 36L12 34L11 34L11 35L10 35L10 33L9 33L9 35L8 35L8 36L6 36L6 37L7 37L7 38L6 38L6 39L5 39L5 40L6 40L6 39L8 39L8 37L10 37L10 38L11 38L11 39L13 39L13 40L16 40L16 39L15 39L15 38L16 38L16 37L15 37L15 36L16 36L16 35L17 35L17 34L18 34L18 35L19 35L19 36L20 36L20 35L22 35L22 36L23 36L23 37L24 37L24 38L23 38L23 39L24 39L24 40L25 40L25 37L27 37L27 38L26 38L26 40L27 40L27 41L26 41L26 42L27 42L27 41L28 41L28 39L27 39L27 38L28 38L28 37L27 37L27 36L26 36L26 35L27 35L27 32L28 32L28 33L29 33L29 34L30 34L30 36L29 36L29 37L31 37L31 38L29 38L29 39L33 39L33 40L35 40L35 42L37 42L37 43L36 43L36 44L35 44L35 43L34 43L34 42L33 42L33 41L32 41L32 42L33 42L33 43L34 43L34 45L35 45L35 46L33 46L33 47L34 47L34 48L33 48L33 49L34 49L34 48L35 48L35 49L36 49L36 50L38 50L38 51L40 51L40 52L41 52L41 50L38 50L38 49L39 49L39 48L38 48L38 47L39 47L39 46L38 46L38 45L39 45L39 44L40 44L40 43L39 43L39 42L40 42L40 41L39 41L39 42L38 42L38 40L40 40L40 39L39 39L39 38L38 38L38 37L40 37L40 38L43 38L43 37L44 37L44 38L45 38L45 37L46 37L46 36L47 36L47 34L45 34L45 35L44 35L44 33L43 33L43 32L41 32L41 33L39 33L39 34L40 34L40 35L38 35L38 33L37 33L37 32L35 32L35 34L32 34L32 35L31 35L31 33L32 33L32 31L36 31L36 30L37 30L37 29L38 29L38 28L40 28L40 27L41 27L41 28L42 28L42 26L43 26L43 25L44 25L44 24L43 24L43 23L44 23L44 20L45 20L45 21L46 21L46 20L45 20L45 18L44 18L44 15L42 15L42 16L41 16L41 15L40 15L40 14L38 14L38 13L40 13L40 12L39 12L39 11L37 11L37 10L38 10L38 9L39 9L39 8L40 8L40 7L41 7L41 6L40 6L40 5L39 5L39 6L38 6L38 7L37 7L37 5L36 5L36 7L37 7L37 8L35 8L35 5L34 5L34 4ZM27 5L27 8L30 8L30 5ZM22 6L22 7L23 7L23 6ZM28 6L28 7L29 7L29 6ZM39 6L39 7L40 7L40 6ZM48 6L48 7L49 7L49 6ZM11 8L11 10L12 10L12 8ZM51 8L51 9L52 9L52 8ZM53 8L53 9L54 9L54 8ZM55 8L55 9L56 9L56 8ZM15 9L15 10L16 10L16 9ZM21 9L21 10L20 10L20 11L21 11L21 10L22 10L22 9ZM43 9L43 10L44 10L44 9ZM20 12L20 13L21 13L21 15L23 15L23 14L25 14L25 13L23 13L23 14L22 14L22 13L21 13L21 12ZM43 12L43 13L41 13L41 14L44 14L44 12ZM49 12L49 13L47 13L47 14L45 14L45 17L47 17L47 16L48 16L48 15L49 15L49 14L50 14L50 12ZM52 12L52 13L53 13L53 12ZM31 13L31 14L30 14L30 15L31 15L31 14L32 14L32 13ZM0 14L0 17L1 17L1 16L2 16L2 15L1 15L1 14ZM14 15L14 17L15 17L15 15ZM31 16L31 18L30 18L30 19L33 19L33 20L32 20L32 21L31 21L31 22L30 22L30 23L31 23L31 24L32 24L32 26L31 26L31 28L32 28L32 29L31 29L31 31L30 31L30 32L29 32L29 33L31 33L31 31L32 31L32 30L35 30L35 28L33 28L33 27L34 27L34 26L36 26L36 28L37 28L37 27L39 27L39 25L41 25L41 26L42 26L42 25L41 25L41 24L42 24L42 23L43 23L43 22L41 22L41 24L39 24L39 23L40 23L40 22L39 22L39 21L43 21L43 20L44 20L44 18L43 18L43 19L42 19L42 18L41 18L41 20L39 20L39 21L38 21L38 20L37 20L37 19L39 19L39 17L41 17L41 16L39 16L39 17L38 17L38 18L37 18L37 17L35 17L35 16ZM42 16L42 17L43 17L43 16ZM6 17L6 18L7 18L7 17ZM32 17L32 18L33 18L33 19L35 19L35 23L34 23L34 22L33 22L33 23L32 23L32 24L33 24L33 25L37 25L37 26L38 26L38 25L39 25L39 24L37 24L37 22L38 22L38 23L39 23L39 22L38 22L38 21L37 21L37 20L36 20L36 19L35 19L35 18L33 18L33 17ZM23 18L23 19L17 19L17 20L16 20L16 21L17 21L17 20L20 20L20 21L19 21L19 22L20 22L20 23L18 23L18 24L22 24L22 25L24 25L24 24L25 24L25 23L26 23L26 22L25 22L25 21L24 21L24 20L23 20L23 19L24 19L24 18ZM6 20L6 21L7 21L7 20ZM33 20L33 21L34 21L34 20ZM22 21L22 22L21 22L21 23L23 23L23 24L24 24L24 23L23 23L23 22L24 22L24 21ZM47 21L47 22L45 22L45 24L47 24L47 23L49 23L49 21ZM1 23L1 24L2 24L2 25L3 25L3 24L2 24L2 23ZM15 23L15 24L16 24L16 23ZM9 24L9 25L12 25L12 26L11 26L11 27L12 27L12 26L13 26L13 27L14 27L14 28L15 28L15 27L16 27L16 26L15 26L15 27L14 27L14 25L13 25L13 24ZM32 26L32 27L33 27L33 26ZM5 27L5 30L8 30L8 27ZM27 27L27 30L30 30L30 27ZM43 27L43 28L45 28L45 27ZM49 27L49 30L52 30L52 27ZM6 28L6 29L7 29L7 28ZM9 28L9 29L10 29L10 28ZM25 28L25 29L26 29L26 28ZM28 28L28 29L29 29L29 28ZM50 28L50 29L51 29L51 28ZM54 28L54 30L53 30L53 32L54 32L54 31L55 31L55 29L56 29L56 28ZM39 29L39 30L38 30L38 32L39 32L39 30L40 30L40 29ZM41 29L41 30L44 30L44 29ZM23 31L23 32L21 32L21 33L18 33L18 34L19 34L19 35L20 35L20 34L21 34L21 33L22 33L22 35L23 35L23 36L24 36L24 34L23 34L23 33L25 33L25 34L26 34L26 32L25 32L25 31ZM47 31L47 32L48 32L48 33L49 33L49 32L48 32L48 31ZM7 33L7 34L8 34L8 33ZM35 34L35 36L37 36L37 37L38 37L38 35L37 35L37 34ZM42 34L42 36L40 36L40 37L42 37L42 36L44 36L44 37L45 37L45 36L44 36L44 35L43 35L43 34ZM49 34L49 35L50 35L50 36L48 36L48 37L47 37L47 39L42 39L42 40L47 40L47 39L48 39L48 37L50 37L50 38L49 38L49 39L50 39L50 38L51 38L51 37L52 37L52 35L53 35L53 34L52 34L52 35L50 35L50 34ZM33 35L33 36L32 36L32 37L33 37L33 39L35 39L35 40L38 40L38 38L37 38L37 39L35 39L35 37L34 37L34 35ZM10 36L10 37L12 37L12 36ZM50 36L50 37L51 37L51 36ZM13 37L13 39L14 39L14 38L15 38L15 37ZM17 41L17 42L18 42L18 41ZM23 41L23 42L25 42L25 41ZM6 42L6 43L7 43L7 42ZM45 42L45 43L46 43L46 44L45 44L45 45L47 45L47 43L48 43L48 42ZM51 42L51 43L50 43L50 44L51 44L51 43L53 43L53 42ZM48 44L48 45L49 45L49 46L48 46L48 47L49 47L49 46L51 46L51 45L49 45L49 44ZM36 45L36 46L35 46L35 48L36 48L36 46L37 46L37 45ZM54 45L54 46L55 46L55 45ZM1 46L1 47L2 47L2 46ZM26 47L26 48L27 48L27 47ZM28 47L28 48L30 48L30 47ZM6 48L6 49L7 49L7 48ZM37 48L37 49L38 49L38 48ZM45 48L45 49L46 49L46 48ZM53 48L53 49L54 49L54 48ZM55 48L55 49L56 49L56 48ZM16 49L16 50L18 50L18 49ZM27 49L27 52L30 52L30 49ZM49 49L49 52L52 52L52 49ZM13 50L13 52L14 52L14 53L15 53L15 54L16 54L16 53L17 53L17 52L18 52L18 51L17 51L17 52L16 52L16 51L14 51L14 50ZM19 50L19 51L20 51L20 50ZM22 50L22 51L21 51L21 52L22 52L22 53L24 53L24 54L23 54L23 55L24 55L24 56L25 56L25 53L24 53L24 52L26 52L26 50ZM28 50L28 51L29 51L29 50ZM50 50L50 51L51 51L51 50ZM54 50L54 51L55 51L55 50ZM8 52L8 57L9 57L9 52ZM15 52L15 53L16 53L16 52ZM44 52L44 53L43 53L43 54L44 54L44 53L45 53L45 52ZM41 54L41 55L42 55L42 54ZM11 55L11 57L12 57L12 55ZM17 55L17 56L18 56L18 55ZM37 55L37 56L39 56L39 55ZM47 55L47 56L48 56L48 55ZM50 55L50 56L51 56L51 55ZM53 55L53 56L55 56L55 57L56 57L56 56L55 56L55 55ZM43 56L43 57L44 57L44 56ZM0 0L0 7L7 7L7 0ZM1 1L1 6L6 6L6 1ZM2 2L2 5L5 5L5 2ZM50 0L50 7L57 7L57 0ZM51 1L51 6L56 6L56 1ZM52 2L52 5L55 5L55 2ZM0 50L0 57L7 57L7 50ZM1 51L1 56L6 56L6 51ZM2 52L2 55L5 55L5 52Z" fill="#000000"/></g></g></svg>
