<?xml version="1.0" encoding="UTF-8"?>
<svg xmlns="http://www.w3.org/2000/svg" version="1.1" width="300" height="300" viewBox="0 0 300 300"><rect x="0" y="0" width="300" height="300" fill="#fefefe"/><g transform="scale(4.615)"><g transform="translate(4,4)"><path fill-rule="evenodd" d="M10 0L10 1L9 1L9 2L10 2L10 4L11 4L11 5L9 5L9 3L8 3L8 5L9 5L9 6L8 6L8 7L9 7L9 8L10 8L10 9L8 9L8 8L5 8L5 9L4 9L4 11L5 11L5 9L8 9L8 10L6 10L6 11L7 11L7 12L2 12L2 13L1 13L1 15L0 15L0 19L1 19L1 20L0 20L0 26L2 26L2 27L1 27L1 28L2 28L2 29L3 29L3 26L4 26L4 31L10 31L10 26L9 26L9 25L11 25L11 24L12 24L12 22L13 22L13 23L14 23L14 22L15 22L15 26L13 26L13 25L12 25L12 27L11 27L11 29L12 29L12 30L11 30L11 33L12 33L12 35L14 35L14 36L11 36L11 34L10 34L10 33L9 33L9 32L6 32L6 33L5 33L5 32L4 32L4 34L3 34L3 32L2 32L2 31L3 31L3 30L0 30L0 31L1 31L1 32L0 32L0 34L1 34L1 37L2 37L2 39L1 39L1 40L0 40L0 42L2 42L2 41L1 41L1 40L2 40L2 39L3 39L3 40L4 40L4 39L5 39L5 40L6 40L6 41L7 41L7 40L6 40L6 39L8 39L8 42L9 42L9 43L10 43L10 44L6 44L6 43L7 43L7 42L6 42L6 43L5 43L5 44L6 44L6 45L4 45L4 43L2 43L2 45L1 45L1 43L0 43L0 48L5 48L5 47L7 47L7 46L6 46L6 45L10 45L10 46L11 46L11 47L12 47L12 48L13 48L13 49L11 49L11 48L9 48L9 46L8 46L8 48L6 48L6 49L8 49L8 52L9 52L9 55L8 55L8 57L9 57L9 55L10 55L10 57L12 57L12 54L13 54L13 53L14 53L14 55L13 55L13 56L14 56L14 57L16 57L16 56L17 56L17 57L22 57L22 55L21 55L21 54L22 54L22 53L21 53L21 54L20 54L20 55L21 55L21 56L18 56L18 55L19 55L19 53L20 53L20 52L17 52L17 50L18 50L18 51L19 51L19 50L20 50L20 51L21 51L21 52L23 52L23 51L22 51L22 50L26 50L26 52L24 52L24 53L23 53L23 57L26 57L26 56L27 56L27 57L29 57L29 56L30 56L30 57L31 57L31 56L33 56L33 55L34 55L34 56L35 56L35 57L39 57L39 56L37 56L37 54L38 54L38 52L40 52L40 51L41 51L41 52L42 52L42 53L39 53L39 55L40 55L40 54L41 54L41 55L43 55L43 53L44 53L44 56L43 56L43 57L44 57L44 56L45 56L45 57L46 57L46 55L47 55L47 57L49 57L49 56L50 56L50 57L52 57L52 56L50 56L50 55L49 55L49 54L52 54L52 55L53 55L53 54L54 54L54 56L53 56L53 57L54 57L54 56L55 56L55 57L56 57L56 56L55 56L55 55L57 55L57 54L55 54L55 53L56 53L56 52L57 52L57 51L56 51L56 50L57 50L57 49L56 49L56 46L55 46L55 45L54 45L54 44L55 44L55 39L56 39L56 40L57 40L57 37L55 37L55 36L56 36L56 35L53 35L53 33L54 33L54 34L56 34L56 33L57 33L57 32L56 32L56 31L57 31L57 29L56 29L56 28L57 28L57 27L56 27L56 26L57 26L57 24L56 24L56 22L54 22L54 21L53 21L53 22L51 22L51 19L50 19L50 17L49 17L49 16L51 16L51 15L52 15L52 16L53 16L53 17L55 17L55 18L54 18L54 19L53 19L53 20L55 20L55 21L56 21L56 19L57 19L57 18L56 18L56 14L57 14L57 13L56 13L56 12L57 12L57 11L56 11L56 10L57 10L57 9L56 9L56 10L54 10L54 11L52 11L52 10L53 10L53 9L54 9L54 8L52 8L52 9L48 9L48 8L49 8L49 6L48 6L48 7L47 7L47 5L48 5L48 0L46 0L46 1L45 1L45 0L42 0L42 1L41 1L41 0L38 0L38 2L39 2L39 3L38 3L38 4L37 4L37 3L36 3L36 1L35 1L35 0L34 0L34 2L35 2L35 5L34 5L34 8L33 8L33 9L32 9L32 8L31 8L31 4L32 4L32 5L33 5L33 2L32 2L32 1L33 1L33 0L32 0L32 1L31 1L31 0L29 0L29 1L28 1L28 3L22 3L22 8L23 8L23 10L22 10L22 12L24 12L24 13L23 13L23 14L21 14L21 15L20 15L20 12L19 12L19 10L21 10L21 9L20 9L20 8L21 8L21 3L20 3L20 2L19 2L19 1L18 1L18 0L16 0L16 1L15 1L15 0L14 0L14 2L10 2L10 1L11 1L11 0ZM12 0L12 1L13 1L13 0ZM20 0L20 1L21 1L21 2L22 2L22 1L23 1L23 2L27 2L27 0L26 0L26 1L25 1L25 0L24 0L24 1L23 1L23 0ZM30 1L30 2L29 2L29 4L31 4L31 3L32 3L32 2L31 2L31 1ZM39 1L39 2L40 2L40 1ZM43 1L43 2L41 2L41 4L43 4L43 3L44 3L44 2L45 2L45 1ZM46 1L46 2L47 2L47 1ZM14 2L14 3L18 3L18 2ZM19 3L19 4L16 4L16 6L15 6L15 4L12 4L12 5L11 5L11 7L10 7L10 6L9 6L9 7L10 7L10 8L11 8L11 10L13 10L13 7L14 7L14 9L15 9L15 12L14 12L14 11L10 11L10 10L8 10L8 11L10 11L10 12L7 12L7 13L6 13L6 14L5 14L5 13L3 13L3 14L5 14L5 16L7 16L7 15L6 15L6 14L10 14L10 13L11 13L11 14L13 14L13 15L10 15L10 20L9 20L9 19L8 19L8 18L7 18L7 17L5 17L5 18L4 18L4 19L3 19L3 18L2 18L2 17L3 17L3 16L2 16L2 15L1 15L1 18L2 18L2 19L3 19L3 20L2 20L2 22L1 22L1 25L2 25L2 26L3 26L3 25L4 25L4 26L7 26L7 25L5 25L5 23L4 23L4 24L3 24L3 23L2 23L2 22L3 22L3 20L9 20L9 21L10 21L10 23L9 23L9 22L7 22L7 21L4 21L4 22L7 22L7 23L6 23L6 24L11 24L11 22L12 22L12 21L15 21L15 19L14 19L14 20L13 20L13 18L14 18L14 17L16 17L16 18L17 18L17 19L16 19L16 22L18 22L18 21L17 21L17 20L20 20L20 21L19 21L19 22L20 22L20 23L18 23L18 24L16 24L16 26L18 26L18 27L15 27L15 29L14 29L14 27L12 27L12 28L13 28L13 29L14 29L14 30L12 30L12 32L13 32L13 34L15 34L15 32L16 32L16 31L18 31L18 29L19 29L19 30L20 30L20 31L19 31L19 32L20 32L20 33L21 33L21 35L22 35L22 33L25 33L25 34L27 34L27 35L26 35L26 36L25 36L25 38L27 38L27 40L26 40L26 39L25 39L25 40L24 40L24 39L23 39L23 40L21 40L21 39L20 39L20 38L19 38L19 37L18 37L18 39L20 39L20 43L19 43L19 44L20 44L20 45L21 45L21 46L20 46L20 48L21 48L21 49L20 49L20 50L22 50L22 48L23 48L23 49L26 49L26 48L27 48L27 47L26 47L26 46L27 46L27 44L24 44L24 45L25 45L25 46L23 46L23 47L22 47L22 48L21 48L21 46L22 46L22 43L23 43L23 41L25 41L25 42L24 42L24 43L25 43L25 42L26 42L26 41L27 41L27 40L28 40L28 42L27 42L27 43L28 43L28 42L29 42L29 44L28 44L28 45L30 45L30 46L33 46L33 45L34 45L34 44L32 44L32 41L34 41L34 42L35 42L35 40L38 40L38 42L36 42L36 43L39 43L39 45L41 45L41 44L42 44L42 42L41 42L41 40L42 40L42 41L43 41L43 42L44 42L44 43L43 43L43 44L44 44L44 45L43 45L43 46L41 46L41 49L40 49L40 46L39 46L39 47L38 47L38 50L36 50L36 47L32 47L32 48L31 48L31 53L30 53L30 56L31 56L31 55L33 55L33 54L32 54L32 53L33 53L33 51L35 51L35 50L36 50L36 52L38 52L38 50L39 50L39 49L40 49L40 50L41 50L41 51L42 51L42 52L43 52L43 51L42 51L42 50L41 50L41 49L43 49L43 50L44 50L44 47L45 47L45 49L46 49L46 50L47 50L47 51L44 51L44 53L45 53L45 52L47 52L47 53L46 53L46 54L47 54L47 55L48 55L48 54L47 54L47 53L48 53L48 50L47 50L47 49L46 49L46 47L45 47L45 46L44 46L44 45L45 45L45 40L47 40L47 41L46 41L46 42L47 42L47 45L48 45L48 44L50 44L50 45L49 45L49 47L48 47L48 46L47 46L47 47L48 47L48 48L49 48L49 47L51 47L51 48L52 48L52 47L55 47L55 46L54 46L54 45L53 45L53 46L51 46L51 45L52 45L52 44L53 44L53 41L54 41L54 40L53 40L53 41L52 41L52 44L50 44L50 42L48 42L48 41L49 41L49 39L50 39L50 40L52 40L52 38L53 38L53 39L54 39L54 38L53 38L53 37L54 37L54 36L53 36L53 35L52 35L52 32L54 32L54 33L56 33L56 32L54 32L54 30L53 30L53 31L48 31L48 32L47 32L47 30L48 30L48 29L45 29L45 27L46 27L46 28L48 28L48 27L47 27L47 25L48 25L48 24L49 24L49 23L50 23L50 21L49 21L49 22L47 22L47 24L46 24L46 22L44 22L44 24L43 24L43 23L42 23L42 22L41 22L41 21L42 21L42 20L40 20L40 19L41 19L41 18L40 18L40 17L41 17L41 16L42 16L42 17L43 17L43 16L42 16L42 15L44 15L44 14L45 14L45 13L46 13L46 14L47 14L47 13L46 13L46 11L44 11L44 10L45 10L45 7L46 7L46 8L47 8L47 7L46 7L46 6L45 6L45 4L44 4L44 6L43 6L43 8L42 8L42 9L43 9L43 11L42 11L42 10L40 10L40 11L41 11L41 12L42 12L42 13L44 13L44 14L41 14L41 13L40 13L40 15L39 15L39 17L38 17L38 14L39 14L39 12L37 12L37 13L36 13L36 12L35 12L35 11L36 11L36 10L37 10L37 11L39 11L39 10L37 10L37 9L35 9L35 8L37 8L37 7L38 7L38 6L39 6L39 8L38 8L38 9L41 9L41 7L42 7L42 6L41 6L41 5L40 5L40 4L38 4L38 5L37 5L37 4L36 4L36 5L35 5L35 8L34 8L34 9L35 9L35 10L33 10L33 11L34 11L34 12L35 12L35 13L34 13L34 14L35 14L35 13L36 13L36 14L37 14L37 15L33 15L33 16L32 16L32 14L33 14L33 13L32 13L32 10L31 10L31 11L30 11L30 10L28 10L28 9L26 9L26 10L27 10L27 11L26 11L26 13L25 13L25 14L26 14L26 15L27 15L27 19L26 19L26 16L24 16L24 15L23 15L23 16L22 16L22 17L25 17L25 19L26 19L26 22L25 22L25 21L24 21L24 20L23 20L23 19L22 19L22 20L21 20L21 17L20 17L20 16L19 16L19 14L17 14L17 11L18 11L18 10L17 10L17 11L16 11L16 8L19 8L19 7L20 7L20 5L19 5L19 4L20 4L20 3ZM46 3L46 5L47 5L47 3ZM23 4L23 5L24 5L24 4ZM25 4L25 8L24 8L24 6L23 6L23 8L24 8L24 9L25 9L25 8L26 8L26 4ZM13 5L13 6L12 6L12 7L11 7L11 8L12 8L12 7L13 7L13 6L14 6L14 7L15 7L15 6L14 6L14 5ZM27 5L27 8L30 8L30 5ZM36 5L36 7L37 7L37 5ZM16 6L16 7L17 7L17 6ZM18 6L18 7L19 7L19 6ZM28 6L28 7L29 7L29 6ZM32 6L32 7L33 7L33 6ZM40 6L40 7L41 7L41 6ZM44 6L44 7L45 7L45 6ZM0 8L0 11L1 11L1 9L2 9L2 10L3 10L3 9L2 9L2 8ZM43 8L43 9L44 9L44 8ZM47 9L47 10L48 10L48 9ZM23 10L23 11L24 11L24 12L25 12L25 10ZM49 10L49 12L48 12L48 13L50 13L50 14L49 14L49 15L48 15L48 16L46 16L46 15L45 15L45 16L44 16L44 19L43 19L43 20L44 20L44 21L48 21L48 20L46 20L46 19L45 19L45 17L46 17L46 18L47 18L47 19L49 19L49 18L47 18L47 17L48 17L48 16L49 16L49 15L50 15L50 14L52 14L52 13L50 13L50 10ZM28 11L28 12L27 12L27 13L26 13L26 14L29 14L29 15L28 15L28 18L31 18L31 17L32 17L32 16L31 16L31 15L30 15L30 14L32 14L32 13L30 13L30 12L29 12L29 11ZM43 11L43 12L44 12L44 13L45 13L45 12L44 12L44 11ZM51 11L51 12L52 12L52 11ZM55 11L55 12L53 12L53 14L54 14L54 15L55 15L55 14L56 14L56 13L55 13L55 12L56 12L56 11ZM12 12L12 13L13 13L13 12ZM29 13L29 14L30 14L30 13ZM37 13L37 14L38 14L38 13ZM54 13L54 14L55 14L55 13ZM14 14L14 15L16 15L16 16L18 16L18 17L17 17L17 18L18 18L18 17L19 17L19 18L20 18L20 17L19 17L19 16L18 16L18 15L16 15L16 14ZM8 15L8 16L9 16L9 15ZM11 16L11 17L12 17L12 16ZM13 16L13 17L14 17L14 16ZM35 16L35 17L37 17L37 20L36 20L36 18L34 18L34 17L33 17L33 18L32 18L32 19L31 19L31 20L29 20L29 19L28 19L28 20L29 20L29 21L28 21L28 22L29 22L29 23L27 23L27 22L26 22L26 23L25 23L25 24L24 24L24 23L21 23L21 24L22 24L22 25L21 25L21 27L20 27L20 26L19 26L19 24L18 24L18 26L19 26L19 29L21 29L21 30L22 30L22 32L25 32L25 33L26 33L26 32L28 32L28 33L27 33L27 34L30 34L30 37L31 37L31 38L29 38L29 39L28 39L28 40L29 40L29 39L32 39L32 40L30 40L30 43L31 43L31 41L32 41L32 40L33 40L33 38L34 38L34 37L35 37L35 39L38 39L38 37L39 37L39 38L43 38L43 37L42 37L42 34L44 34L44 33L43 33L43 32L46 32L46 33L45 33L45 34L47 34L47 32L46 32L46 30L45 30L45 29L44 29L44 28L43 28L43 29L40 29L40 30L39 30L39 31L38 31L38 30L37 30L37 31L38 31L38 32L40 32L40 30L41 30L41 31L42 31L42 30L43 30L43 32L41 32L41 34L40 34L40 36L38 36L38 34L39 34L39 33L37 33L37 32L35 32L35 31L36 31L36 30L35 30L35 31L34 31L34 29L33 29L33 31L32 31L32 28L33 28L33 26L34 26L34 27L35 27L35 29L38 29L38 27L36 27L36 26L34 26L34 24L36 24L36 25L37 25L37 26L38 26L38 25L37 25L37 23L38 23L38 22L39 22L39 21L38 21L38 20L39 20L39 19L40 19L40 18L38 18L38 17L37 17L37 16ZM51 17L51 18L52 18L52 17ZM6 18L6 19L7 19L7 18ZM11 18L11 19L12 19L12 18ZM55 18L55 19L56 19L56 18ZM33 19L33 20L32 20L32 21L31 21L31 23L30 23L30 25L32 25L32 26L31 26L31 27L32 27L32 26L33 26L33 25L32 25L32 23L33 23L33 24L34 24L34 23L35 23L35 22L32 22L32 21L34 21L34 19ZM44 19L44 20L45 20L45 19ZM10 20L10 21L12 21L12 20ZM20 21L20 22L21 22L21 21ZM23 21L23 22L24 22L24 21ZM40 22L40 23L39 23L39 28L42 28L42 27L40 27L40 25L41 25L41 26L43 26L43 25L42 25L42 23L41 23L41 22ZM51 23L51 25L50 25L50 26L52 26L52 23ZM2 24L2 25L3 25L3 24ZM27 24L27 25L26 25L26 26L25 26L25 27L24 27L24 28L25 28L25 29L26 29L26 28L25 28L25 27L26 27L26 26L27 26L27 25L28 25L28 24ZM44 24L44 25L45 25L45 26L44 26L44 27L45 27L45 26L46 26L46 24ZM53 24L53 25L54 25L54 24ZM55 24L55 26L56 26L56 24ZM22 26L22 27L23 27L23 26ZM53 26L53 27L54 27L54 26ZM5 27L5 30L8 30L8 27ZM27 27L27 30L30 30L30 27ZM49 27L49 30L52 30L52 27ZM55 27L55 28L54 28L54 29L55 29L55 28L56 28L56 27ZM6 28L6 29L7 29L7 28ZM16 28L16 29L18 29L18 28ZM22 28L22 30L23 30L23 28ZM28 28L28 29L29 29L29 28ZM50 28L50 29L51 29L51 28ZM43 29L43 30L44 30L44 29ZM15 30L15 31L14 31L14 32L15 32L15 31L16 31L16 30ZM24 30L24 31L25 31L25 32L26 32L26 30ZM55 30L55 31L56 31L56 30ZM20 31L20 32L21 32L21 31ZM28 31L28 32L29 32L29 33L31 33L31 34L32 34L32 35L33 35L33 37L34 37L34 31L33 31L33 32L32 32L32 31ZM1 32L1 34L2 34L2 35L3 35L3 34L2 34L2 32ZM17 32L17 33L18 33L18 35L19 35L19 36L20 36L20 34L19 34L19 33L18 33L18 32ZM31 32L31 33L32 33L32 32ZM48 32L48 33L49 33L49 32ZM50 32L50 33L51 33L51 32ZM6 33L6 34L7 34L7 33ZM9 34L9 35L5 35L5 36L2 36L2 37L3 37L3 39L4 39L4 37L5 37L5 36L7 36L7 37L6 37L6 38L5 38L5 39L6 39L6 38L9 38L9 40L10 40L10 41L9 41L9 42L10 42L10 43L11 43L11 46L12 46L12 44L13 44L13 46L14 46L14 47L13 47L13 48L14 48L14 51L15 51L15 52L14 52L14 53L15 53L15 52L16 52L16 53L17 53L17 52L16 52L16 50L17 50L17 49L18 49L18 46L17 46L17 48L16 48L16 47L15 47L15 46L14 46L14 43L13 43L13 42L12 42L12 39L11 39L11 40L10 40L10 38L9 38L9 37L10 37L10 34ZM16 34L16 35L15 35L15 36L14 36L14 37L13 37L13 40L16 40L16 39L17 39L17 37L16 37L16 36L17 36L17 34ZM23 34L23 37L22 37L22 36L21 36L21 37L22 37L22 38L24 38L24 34ZM35 34L35 37L36 37L36 36L37 36L37 34ZM49 34L49 35L50 35L50 36L47 36L47 35L46 35L46 36L45 36L45 35L44 35L44 38L46 38L46 36L47 36L47 39L48 39L48 38L52 38L52 37L53 37L53 36L51 36L51 35L50 35L50 34ZM27 35L27 36L26 36L26 37L27 37L27 36L28 36L28 37L29 37L29 36L28 36L28 35ZM8 36L8 37L9 37L9 36ZM31 36L31 37L32 37L32 36ZM11 37L11 38L12 38L12 37ZM39 39L39 40L41 40L41 39ZM43 40L43 41L44 41L44 40ZM14 41L14 42L15 42L15 41ZM16 41L16 43L17 43L17 41ZM18 41L18 42L19 42L19 41ZM56 41L56 45L57 45L57 41ZM40 42L40 44L41 44L41 42ZM15 44L15 45L16 45L16 44ZM17 44L17 45L18 45L18 44ZM31 44L31 45L32 45L32 44ZM2 45L2 46L1 46L1 47L2 47L2 46L3 46L3 47L5 47L5 46L3 46L3 45ZM36 45L36 46L37 46L37 45ZM28 46L28 48L30 48L30 47L29 47L29 46ZM43 46L43 47L42 47L42 48L43 48L43 47L44 47L44 46ZM14 47L14 48L15 48L15 47ZM24 47L24 48L26 48L26 47ZM8 48L8 49L9 49L9 48ZM32 48L32 50L34 50L34 49L35 49L35 48L34 48L34 49L33 49L33 48ZM53 48L53 49L54 49L54 48ZM27 49L27 52L30 52L30 49ZM49 49L49 52L52 52L52 49ZM55 49L55 50L54 50L54 51L55 51L55 50L56 50L56 49ZM9 50L9 51L11 51L11 53L10 53L10 55L11 55L11 53L12 53L12 52L13 52L13 51L11 51L11 50ZM28 50L28 51L29 51L29 50ZM50 50L50 51L51 51L51 50ZM34 52L34 54L35 54L35 52ZM53 52L53 53L54 53L54 52ZM24 53L24 56L26 56L26 55L28 55L28 56L29 56L29 55L28 55L28 53ZM16 54L16 55L18 55L18 54ZM25 54L25 55L26 55L26 54ZM14 55L14 56L15 56L15 55ZM35 55L35 56L36 56L36 55ZM0 0L0 7L7 7L7 0ZM1 1L1 6L6 6L6 1ZM2 2L2 5L5 5L5 2ZM50 0L50 7L57 7L57 0ZM51 1L51 6L56 6L56 1ZM52 2L52 5L55 5L55 2ZM0 50L0 57L7 57L7 50ZM1 51L1 56L6 56L6 51ZM2 52L2 55L5 55L5 52Z" fill="#000000"/></g></g></svg>
