<?xml version="1.0" encoding="UTF-8"?>
<svg xmlns="http://www.w3.org/2000/svg" version="1.1" width="300" height="300" viewBox="0 0 300 300"><rect x="0" y="0" width="300" height="300" fill="#fefefe"/><g transform="scale(4.615)"><g transform="translate(4,4)"><path fill-rule="evenodd" d="M8 0L8 4L9 4L9 5L8 5L8 7L9 7L9 5L10 5L10 8L9 8L9 10L6 10L6 9L7 9L7 8L4 8L4 9L2 9L2 8L0 8L0 10L1 10L1 11L0 11L0 12L1 12L1 13L0 13L0 15L1 15L1 17L0 17L0 22L1 22L1 24L0 24L0 25L1 25L1 24L2 24L2 23L3 23L3 22L2 22L2 21L8 21L8 22L5 22L5 23L7 23L7 24L4 24L4 25L2 25L2 26L1 26L1 27L2 27L2 28L3 28L3 30L1 30L1 28L0 28L0 31L1 31L1 32L0 32L0 34L1 34L1 35L2 35L2 37L0 37L0 38L1 38L1 39L0 39L0 40L1 40L1 42L0 42L0 43L1 43L1 42L2 42L2 41L3 41L3 40L4 40L4 42L3 42L3 43L2 43L2 44L1 44L1 45L2 45L2 44L3 44L3 43L7 43L7 44L6 44L6 45L3 45L3 46L2 46L2 47L1 47L1 46L0 46L0 48L5 48L5 47L7 47L7 48L6 48L6 49L8 49L8 50L9 50L9 51L8 51L8 53L9 53L9 55L8 55L8 57L10 57L10 56L9 56L9 55L11 55L11 56L12 56L12 57L13 57L13 56L14 56L14 57L15 57L15 56L14 56L14 55L13 55L13 54L10 54L10 53L12 53L12 51L11 51L11 48L12 48L12 47L13 47L13 48L15 48L15 46L16 46L16 48L17 48L17 49L18 49L18 50L16 50L16 49L13 49L13 52L14 52L14 51L15 51L15 50L16 50L16 51L19 51L19 49L20 49L20 53L19 53L19 52L17 52L17 53L14 53L14 54L15 54L15 55L16 55L16 54L17 54L17 57L22 57L22 56L23 56L23 55L24 55L24 57L25 57L25 54L24 54L24 53L25 53L25 51L26 51L26 53L28 53L28 57L29 57L29 55L30 55L30 57L34 57L34 53L33 53L33 51L34 51L34 52L35 52L35 57L37 57L37 56L36 56L36 54L37 54L37 55L39 55L39 57L40 57L40 54L41 54L41 55L42 55L42 56L41 56L41 57L43 57L43 56L44 56L44 57L47 57L47 56L48 56L48 57L50 57L50 55L51 55L51 56L53 56L53 55L55 55L55 54L57 54L57 51L56 51L56 50L57 50L57 49L56 49L56 45L57 45L57 44L56 44L56 45L55 45L55 49L54 49L54 47L53 47L53 46L54 46L54 44L53 44L53 43L54 43L54 42L55 42L55 43L56 43L56 41L57 41L57 40L54 40L54 41L53 41L53 40L52 40L52 41L51 41L51 43L50 43L50 42L49 42L49 41L48 41L48 43L47 43L47 42L46 42L46 40L45 40L45 39L47 39L47 40L51 40L51 39L53 39L53 38L54 38L54 39L57 39L57 38L55 38L55 36L53 36L53 35L56 35L56 34L57 34L57 33L56 33L56 30L55 30L55 29L54 29L54 28L53 28L53 27L54 27L54 26L55 26L55 27L56 27L56 25L57 25L57 24L56 24L56 20L57 20L57 19L56 19L56 18L57 18L57 15L56 15L56 12L57 12L57 11L56 11L56 10L57 10L57 8L53 8L53 9L52 9L52 8L51 8L51 9L50 9L50 10L49 10L49 9L47 9L47 11L50 11L50 15L48 15L48 17L47 17L47 18L46 18L46 17L45 17L45 16L44 16L44 15L46 15L46 16L47 16L47 15L46 15L46 11L45 11L45 10L43 10L43 8L42 8L42 9L41 9L41 10L43 10L43 11L41 11L41 12L43 12L43 11L45 11L45 12L44 12L44 13L41 13L41 17L40 17L40 12L39 12L39 11L40 11L40 10L39 10L39 9L40 9L40 8L41 8L41 6L40 6L40 8L39 8L39 5L43 5L43 4L44 4L44 7L45 7L45 8L44 8L44 9L46 9L46 8L47 8L47 5L48 5L48 0L46 0L46 1L47 1L47 2L45 2L45 0L41 0L41 1L40 1L40 2L38 2L38 1L39 1L39 0L38 0L38 1L37 1L37 2L36 2L36 0L35 0L35 1L34 1L34 0L33 0L33 1L32 1L32 3L30 3L30 4L29 4L29 3L27 3L27 4L26 4L26 3L25 3L25 1L27 1L27 2L28 2L28 1L29 1L29 2L30 2L30 1L31 1L31 0L23 0L23 1L21 1L21 0L19 0L19 1L18 1L18 0L17 0L17 1L18 1L18 2L19 2L19 3L22 3L22 4L21 4L21 6L20 6L20 5L19 5L19 4L17 4L17 3L16 3L16 0L14 0L14 1L13 1L13 5L15 5L15 6L14 6L14 7L15 7L15 8L14 8L14 9L13 9L13 6L12 6L12 5L11 5L11 2L12 2L12 0L11 0L11 1L10 1L10 0ZM9 1L9 2L10 2L10 1ZM14 1L14 4L15 4L15 5L16 5L16 6L15 6L15 7L16 7L16 6L17 6L17 8L19 8L19 7L20 7L20 6L19 6L19 5L18 5L18 6L17 6L17 4L16 4L16 3L15 3L15 1ZM20 1L20 2L21 2L21 1ZM33 1L33 3L32 3L32 5L33 5L33 4L34 4L34 5L35 5L35 7L34 7L34 6L33 6L33 7L32 7L32 6L31 6L31 10L29 10L29 11L28 11L28 10L27 10L27 9L26 9L26 6L25 6L25 7L24 7L24 6L23 6L23 5L24 5L24 4L25 4L25 3L23 3L23 2L22 2L22 3L23 3L23 4L22 4L22 6L21 6L21 7L22 7L22 6L23 6L23 7L24 7L24 8L25 8L25 10L23 10L23 8L22 8L22 10L21 10L21 11L19 11L19 10L20 10L20 9L16 9L16 8L15 8L15 9L16 9L16 12L17 12L17 13L15 13L15 12L14 12L14 11L13 11L13 9L12 9L12 10L11 10L11 11L12 11L12 12L11 12L11 13L10 13L10 12L9 12L9 11L8 11L8 12L7 12L7 11L5 11L5 9L4 9L4 11L5 11L5 12L4 12L4 13L3 13L3 12L2 12L2 11L3 11L3 10L2 10L2 9L1 9L1 10L2 10L2 11L1 11L1 12L2 12L2 13L1 13L1 14L3 14L3 15L5 15L5 16L7 16L7 15L5 15L5 14L4 14L4 13L6 13L6 14L8 14L8 16L11 16L11 18L10 18L10 17L9 17L9 18L8 18L8 21L9 21L9 22L8 22L8 23L9 23L9 22L11 22L11 23L10 23L10 25L11 25L11 26L9 26L9 27L11 27L11 26L12 26L12 28L13 28L13 30L10 30L10 29L9 29L9 31L8 31L8 33L6 33L6 34L8 34L8 36L11 36L11 37L12 37L12 40L11 40L11 41L10 41L10 40L9 40L9 39L5 39L5 38L7 38L7 37L5 37L5 36L4 36L4 35L5 35L5 33L4 33L4 35L3 35L3 37L2 37L2 39L1 39L1 40L3 40L3 39L5 39L5 40L7 40L7 41L6 41L6 42L9 42L9 41L10 41L10 42L11 42L11 43L9 43L9 46L8 46L8 47L9 47L9 46L10 46L10 47L12 47L12 46L13 46L13 45L14 45L14 46L15 46L15 45L14 45L14 44L16 44L16 46L17 46L17 48L18 48L18 46L17 46L17 45L18 45L18 44L19 44L19 42L20 42L20 41L18 41L18 43L16 43L16 42L17 42L17 41L13 41L13 43L14 43L14 44L12 44L12 45L11 45L11 43L12 43L12 42L11 42L11 41L12 41L12 40L13 40L13 39L14 39L14 40L15 40L15 39L16 39L16 38L17 38L17 36L16 36L16 34L20 34L20 35L19 35L19 36L21 36L21 34L22 34L22 35L23 35L23 33L27 33L27 32L28 32L28 31L27 31L27 32L23 32L23 31L25 31L25 30L26 30L26 29L25 29L25 30L23 30L23 28L22 28L22 27L21 27L21 26L20 26L20 27L19 27L19 28L18 28L18 29L15 29L15 27L13 27L13 26L12 26L12 25L13 25L13 24L16 24L16 27L18 27L18 26L17 26L17 22L18 22L18 21L17 21L17 19L19 19L19 21L20 21L20 19L21 19L21 18L20 18L20 17L19 17L19 18L17 18L17 16L21 16L21 17L25 17L25 18L24 18L24 19L23 19L23 18L22 18L22 22L20 22L20 23L19 23L19 25L21 25L21 24L22 24L22 25L24 25L24 23L23 23L23 24L22 24L22 22L23 22L23 21L24 21L24 22L25 22L25 23L26 23L26 22L27 22L27 24L28 24L28 26L29 26L29 23L28 23L28 22L29 22L29 21L30 21L30 20L31 20L31 21L32 21L32 20L31 20L31 19L30 19L30 18L28 18L28 17L27 17L27 18L26 18L26 17L25 17L25 14L23 14L23 13L25 13L25 12L24 12L24 11L25 11L25 10L27 10L27 11L26 11L26 13L29 13L29 16L31 16L31 17L32 17L32 18L33 18L33 19L34 19L34 20L33 20L33 21L34 21L34 22L35 22L35 23L34 23L34 24L33 24L33 25L34 25L34 26L33 26L33 27L32 27L32 23L33 23L33 22L30 22L30 24L31 24L31 29L32 29L32 30L31 30L31 32L30 32L30 31L29 31L29 33L28 33L28 34L27 34L27 35L26 35L26 39L25 39L25 38L24 38L24 37L23 37L23 36L22 36L22 39L21 39L21 40L22 40L22 41L21 41L21 43L20 43L20 45L19 45L19 46L20 46L20 48L22 48L22 49L21 49L21 51L22 51L22 49L23 49L23 48L22 48L22 47L23 47L23 45L24 45L24 43L23 43L23 41L25 41L25 40L26 40L26 39L28 39L28 38L29 38L29 39L31 39L31 40L27 40L27 41L26 41L26 42L25 42L25 43L27 43L27 45L26 45L26 46L24 46L24 47L26 47L26 48L29 48L29 47L30 47L30 48L31 48L31 49L32 49L32 47L31 47L31 46L29 46L29 45L32 45L32 43L33 43L33 44L37 44L37 46L35 46L35 45L34 45L34 47L36 47L36 48L37 48L37 46L38 46L38 45L39 45L39 47L38 47L38 49L37 49L37 51L38 51L38 49L39 49L39 47L40 47L40 51L39 51L39 52L40 52L40 53L42 53L42 52L41 52L41 46L40 46L40 45L41 45L41 42L40 42L40 41L41 41L41 40L40 40L40 38L38 38L38 37L41 37L41 35L42 35L42 34L40 34L40 33L41 33L41 32L40 32L40 31L41 31L41 30L40 30L40 29L44 29L44 30L43 30L43 31L45 31L45 32L46 32L46 31L47 31L47 33L46 33L46 38L47 38L47 39L51 39L51 37L49 37L49 36L50 36L50 35L53 35L53 34L54 34L54 33L55 33L55 34L56 34L56 33L55 33L55 30L54 30L54 31L53 31L53 33L51 33L51 32L50 32L50 31L49 31L49 32L50 32L50 35L49 35L49 33L48 33L48 31L47 31L47 30L48 30L48 27L45 27L45 29L44 29L44 26L43 26L43 28L42 28L42 27L41 27L41 28L40 28L40 29L39 29L39 30L40 30L40 31L39 31L39 32L40 32L40 33L39 33L39 34L38 34L38 33L37 33L37 34L38 34L38 36L37 36L37 38L35 38L35 37L34 37L34 36L35 36L35 30L37 30L37 32L38 32L38 30L37 30L37 29L38 29L38 28L37 28L37 27L39 27L39 26L40 26L40 25L44 25L44 24L45 24L45 23L47 23L47 24L46 24L46 26L47 26L47 24L48 24L48 23L50 23L50 25L49 25L49 26L50 26L50 25L51 25L51 23L50 23L50 22L47 22L47 21L48 21L48 20L49 20L49 21L51 21L51 22L52 22L52 26L53 26L53 24L55 24L55 25L56 25L56 24L55 24L55 23L53 23L53 22L52 22L52 21L54 21L54 22L55 22L55 20L56 20L56 19L55 19L55 18L56 18L56 16L55 16L55 15L54 15L54 13L55 13L55 12L56 12L56 11L55 11L55 9L53 9L53 10L54 10L54 11L52 11L52 12L51 12L51 14L52 14L52 15L50 15L50 16L52 16L52 17L51 17L51 18L52 18L52 19L53 19L53 20L52 20L52 21L51 21L51 20L49 20L49 19L50 19L50 17L49 17L49 18L48 18L48 19L46 19L46 18L45 18L45 19L46 19L46 22L44 22L44 16L43 16L43 15L44 15L44 14L43 14L43 15L42 15L42 17L43 17L43 18L42 18L42 19L41 19L41 18L40 18L40 17L39 17L39 15L38 15L38 13L39 13L39 12L37 12L37 11L39 11L39 10L38 10L38 9L39 9L39 8L38 8L38 6L37 6L37 8L38 8L38 9L35 9L35 7L36 7L36 5L38 5L38 4L40 4L40 3L41 3L41 4L43 4L43 3L44 3L44 4L45 4L45 5L47 5L47 3L44 3L44 2L43 2L43 3L42 3L42 2L40 2L40 3L38 3L38 2L37 2L37 3L36 3L36 2L35 2L35 4L34 4L34 1ZM37 3L37 4L38 4L38 3ZM35 4L35 5L36 5L36 4ZM27 5L27 8L30 8L30 5ZM11 6L11 7L12 7L12 6ZM18 6L18 7L19 7L19 6ZM28 6L28 7L29 7L29 6ZM42 6L42 7L43 7L43 6ZM45 6L45 7L46 7L46 6ZM48 6L48 7L49 7L49 6ZM33 7L33 8L32 8L32 11L33 11L33 10L34 10L34 12L35 12L35 14L36 14L36 13L37 13L37 12L35 12L35 11L36 11L36 10L34 10L34 9L33 9L33 8L34 8L34 7ZM10 8L10 9L11 9L11 8ZM51 9L51 10L50 10L50 11L51 11L51 10L52 10L52 9ZM17 10L17 11L18 11L18 10ZM21 11L21 13L20 13L20 12L18 12L18 13L17 13L17 14L15 14L15 13L13 13L13 12L12 12L12 14L13 14L13 16L14 16L14 17L12 17L12 19L13 19L13 20L9 20L9 21L14 21L14 22L12 22L12 24L13 24L13 23L16 23L16 22L17 22L17 21L15 21L15 20L16 20L16 17L15 17L15 16L17 16L17 15L18 15L18 14L19 14L19 15L20 15L20 14L21 14L21 15L22 15L22 16L24 16L24 15L22 15L22 14L21 14L21 13L23 13L23 12L22 12L22 11ZM27 11L27 12L28 12L28 11ZM29 11L29 12L31 12L31 11ZM6 12L6 13L7 13L7 12ZM8 12L8 13L9 13L9 14L10 14L10 15L11 15L11 14L10 14L10 13L9 13L9 12ZM32 12L32 14L31 14L31 13L30 13L30 15L33 15L33 16L32 16L32 17L33 17L33 18L34 18L34 19L36 19L36 20L35 20L35 22L37 22L37 21L38 21L38 22L39 22L39 21L40 21L40 22L43 22L43 23L44 23L44 22L43 22L43 19L42 19L42 20L41 20L41 21L40 21L40 18L39 18L39 17L38 17L38 16L37 16L37 15L35 15L35 17L38 17L38 18L39 18L39 19L37 19L37 18L34 18L34 13L33 13L33 12ZM53 12L53 13L52 13L52 14L53 14L53 13L54 13L54 12ZM19 13L19 14L20 14L20 13ZM47 13L47 14L49 14L49 13ZM27 14L27 15L26 15L26 16L27 16L27 15L28 15L28 14ZM14 15L14 16L15 16L15 15ZM52 15L52 16L53 16L53 17L52 17L52 18L53 18L53 17L55 17L55 16L53 16L53 15ZM3 16L3 17L2 17L2 18L1 18L1 21L2 21L2 20L3 20L3 19L4 19L4 18L3 18L3 17L4 17L4 16ZM6 17L6 18L5 18L5 20L7 20L7 19L6 19L6 18L7 18L7 17ZM2 18L2 19L3 19L3 18ZM9 18L9 19L10 19L10 18ZM13 18L13 19L14 19L14 20L15 20L15 18ZM19 18L19 19L20 19L20 18ZM25 18L25 20L24 20L24 21L28 21L28 19L27 19L27 20L26 20L26 18ZM38 20L38 21L39 21L39 20ZM39 23L39 25L38 25L38 26L39 26L39 25L40 25L40 23ZM7 24L7 25L5 25L5 26L8 26L8 24ZM34 24L34 25L37 25L37 24ZM25 25L25 27L26 27L26 25ZM3 26L3 27L4 27L4 26ZM23 26L23 27L24 27L24 26ZM36 26L36 27L37 27L37 26ZM5 27L5 30L8 30L8 27ZM20 27L20 28L21 28L21 27ZM27 27L27 30L30 30L30 27ZM33 27L33 28L32 28L32 29L33 29L33 30L32 30L32 31L33 31L33 32L32 32L32 34L33 34L33 33L34 33L34 27ZM49 27L49 30L52 30L52 27ZM6 28L6 29L7 29L7 28ZM28 28L28 29L29 29L29 28ZM35 28L35 29L37 29L37 28ZM46 28L46 29L47 29L47 28ZM50 28L50 29L51 29L51 28ZM14 29L14 32L13 32L13 31L11 31L11 32L12 32L12 33L13 33L13 34L11 34L11 35L13 35L13 34L16 34L16 33L15 33L15 31L16 31L16 32L17 32L17 33L19 33L19 32L21 32L21 33L20 33L20 34L21 34L21 33L22 33L22 31L23 31L23 30L22 30L22 29L18 29L18 30L15 30L15 29ZM19 30L19 31L22 31L22 30ZM45 30L45 31L46 31L46 30ZM2 31L2 32L1 32L1 33L2 33L2 34L3 34L3 31ZM4 31L4 32L7 32L7 31ZM9 31L9 33L8 33L8 34L10 34L10 31ZM29 33L29 34L28 34L28 36L27 36L27 37L28 37L28 36L29 36L29 37L31 37L31 36L32 36L32 37L33 37L33 38L31 38L31 39L33 39L33 40L32 40L32 41L29 41L29 42L28 42L28 41L27 41L27 42L28 42L28 43L29 43L29 44L30 44L30 43L29 43L29 42L31 42L31 43L32 43L32 41L33 41L33 43L37 43L37 44L39 44L39 45L40 45L40 44L39 44L39 43L40 43L40 42L39 42L39 41L40 41L40 40L39 40L39 39L38 39L38 42L37 42L37 39L35 39L35 38L34 38L34 37L33 37L33 35L31 35L31 36L30 36L30 34L31 34L31 33ZM43 33L43 34L44 34L44 35L43 35L43 37L44 37L44 38L43 38L43 39L45 39L45 37L44 37L44 35L45 35L45 34L44 34L44 33ZM24 34L24 36L25 36L25 34ZM47 34L47 36L49 36L49 35L48 35L48 34ZM6 35L6 36L7 36L7 35ZM39 35L39 36L40 36L40 35ZM14 36L14 38L15 38L15 37L16 37L16 36ZM52 36L52 38L53 38L53 36ZM56 36L56 37L57 37L57 36ZM3 37L3 38L5 38L5 37ZM8 37L8 38L9 38L9 37ZM18 37L18 39L17 39L17 40L19 40L19 39L20 39L20 38L21 38L21 37ZM33 38L33 39L34 39L34 42L35 42L35 39L34 39L34 38ZM41 38L41 39L42 39L42 38ZM22 39L22 40L24 40L24 39ZM8 40L8 41L9 41L9 40ZM42 40L42 41L43 41L43 42L42 42L42 44L43 44L43 45L44 45L44 46L43 46L43 47L42 47L42 49L44 49L44 51L45 51L45 53L44 53L44 52L43 52L43 53L44 53L44 56L46 56L46 55L49 55L49 54L51 54L51 55L52 55L52 54L51 54L51 53L49 53L49 54L48 54L48 52L47 52L47 51L45 51L45 49L44 49L44 48L46 48L46 50L47 50L47 49L48 49L48 47L52 47L52 46L53 46L53 45L52 45L52 43L53 43L53 41L52 41L52 43L51 43L51 45L50 45L50 43L49 43L49 45L48 45L48 44L47 44L47 43L45 43L45 42L44 42L44 40ZM43 42L43 44L44 44L44 45L45 45L45 46L44 46L44 47L46 47L46 48L47 48L47 47L48 47L48 46L47 46L47 47L46 47L46 45L47 45L47 44L46 44L46 45L45 45L45 44L44 44L44 42ZM21 43L21 45L20 45L20 46L21 46L21 47L22 47L22 46L21 46L21 45L23 45L23 44L22 44L22 43ZM7 44L7 45L6 45L6 46L7 46L7 45L8 45L8 44ZM27 45L27 46L26 46L26 47L27 47L27 46L28 46L28 47L29 47L29 46L28 46L28 45ZM51 45L51 46L52 46L52 45ZM3 46L3 47L5 47L5 46ZM8 48L8 49L9 49L9 50L10 50L10 49L9 49L9 48ZM24 48L24 49L25 49L25 50L26 50L26 49L25 49L25 48ZM34 48L34 51L35 51L35 52L36 52L36 49L35 49L35 48ZM27 49L27 52L30 52L30 49ZM49 49L49 52L52 52L52 49ZM55 49L55 50L56 50L56 49ZM28 50L28 51L29 51L29 50ZM42 50L42 51L43 51L43 50ZM50 50L50 51L51 51L51 50ZM53 50L53 53L54 53L54 52L56 52L56 51L54 51L54 50ZM10 51L10 52L9 52L9 53L10 53L10 52L11 52L11 51ZM31 51L31 52L32 52L32 51ZM22 52L22 54L20 54L20 55L19 55L19 56L22 56L22 55L23 55L23 53L24 53L24 52ZM37 52L37 53L38 53L38 52ZM46 52L46 53L45 53L45 54L46 54L46 53L47 53L47 52ZM30 53L30 54L31 54L31 53ZM32 53L32 54L33 54L33 53ZM42 54L42 55L43 55L43 54ZM12 55L12 56L13 56L13 55ZM26 55L26 57L27 57L27 55ZM56 56L56 57L57 57L57 56ZM0 0L0 7L7 7L7 0ZM1 1L1 6L6 6L6 1ZM2 2L2 5L5 5L5 2ZM50 0L50 7L57 7L57 0ZM51 1L51 6L56 6L56 1ZM52 2L52 5L55 5L55 2ZM0 50L0 57L7 57L7 50ZM1 51L1 56L6 56L6 51ZM2 52L2 55L5 55L5 52Z" fill="#000000"/></g></g></svg>
