<?xml version="1.0" encoding="UTF-8"?>
<svg xmlns="http://www.w3.org/2000/svg" version="1.1" width="300" height="300" viewBox="0 0 300 300"><rect x="0" y="0" width="300" height="300" fill="#fefefe"/><g transform="scale(4.615)"><g transform="translate(4,4)"><path fill-rule="evenodd" d="M8 0L8 4L9 4L9 5L8 5L8 7L9 7L9 9L8 9L8 10L6 10L6 11L5 11L5 12L2 12L2 11L4 11L4 10L2 10L2 11L0 11L0 12L2 12L2 13L1 13L1 14L0 14L0 16L1 16L1 20L2 20L2 21L3 21L3 22L4 22L4 23L2 23L2 22L1 22L1 21L0 21L0 22L1 22L1 24L0 24L0 26L1 26L1 24L4 24L4 27L3 27L3 26L2 26L2 27L3 27L3 28L1 28L1 29L0 29L0 30L1 30L1 29L4 29L4 33L3 33L3 31L2 31L2 33L0 33L0 34L1 34L1 36L2 36L2 38L1 38L1 37L0 37L0 44L1 44L1 43L3 43L3 42L4 42L4 44L3 44L3 45L0 45L0 48L5 48L5 47L7 47L7 48L6 48L6 49L8 49L8 50L11 50L11 51L8 51L8 53L9 53L9 54L10 54L10 52L11 52L11 51L13 51L13 52L15 52L15 51L13 51L13 50L11 50L11 48L12 48L12 47L13 47L13 46L11 46L11 45L15 45L15 46L16 46L16 45L17 45L17 47L16 47L16 48L15 48L15 47L14 47L14 49L17 49L17 50L16 50L16 52L17 52L17 53L15 53L15 55L16 55L16 54L18 54L18 53L19 53L19 55L20 55L20 54L21 54L21 57L22 57L22 55L24 55L24 56L23 56L23 57L25 57L25 55L26 55L26 54L28 54L28 55L27 55L27 56L26 56L26 57L27 57L27 56L28 56L28 57L29 57L29 56L28 56L28 55L30 55L30 57L31 57L31 54L30 54L30 53L31 53L31 51L32 51L32 55L33 55L33 54L34 54L34 55L35 55L35 56L34 56L34 57L37 57L37 56L36 56L36 55L38 55L38 57L40 57L40 56L39 56L39 55L38 55L38 54L41 54L41 57L43 57L43 55L45 55L45 56L44 56L44 57L45 57L45 56L46 56L46 55L45 55L45 54L44 54L44 53L46 53L46 52L48 52L48 53L49 53L49 54L50 54L50 55L49 55L49 56L48 56L48 55L47 55L47 57L51 57L51 56L53 56L53 54L54 54L54 53L55 53L55 54L57 54L57 52L56 52L56 50L55 50L55 52L54 52L54 53L53 53L53 48L52 48L52 47L49 47L49 46L51 46L51 45L53 45L53 47L54 47L54 46L55 46L55 47L56 47L56 49L57 49L57 47L56 47L56 45L57 45L57 44L56 44L56 42L57 42L57 40L54 40L54 41L53 41L53 40L52 40L52 41L51 41L51 40L50 40L50 38L52 38L52 39L53 39L53 38L52 38L52 34L51 34L51 33L50 33L50 32L52 32L52 33L53 33L53 34L54 34L54 35L55 35L55 36L56 36L56 37L55 37L55 38L54 38L54 39L57 39L57 38L56 38L56 37L57 37L57 35L56 35L56 34L57 34L57 33L56 33L56 32L57 32L57 31L56 31L56 30L57 30L57 29L55 29L55 31L56 31L56 32L55 32L55 33L56 33L56 34L54 34L54 30L53 30L53 29L54 29L54 28L53 28L53 27L54 27L54 26L55 26L55 25L52 25L52 24L53 24L53 23L55 23L55 24L57 24L57 23L56 23L56 20L57 20L57 19L56 19L56 13L57 13L57 11L56 11L56 10L57 10L57 8L53 8L53 9L55 9L55 11L56 11L56 12L55 12L55 14L53 14L53 13L54 13L54 12L53 12L53 13L51 13L51 12L52 12L52 11L54 11L54 10L52 10L52 8L51 8L51 9L50 9L50 10L49 10L49 6L48 6L48 7L47 7L47 5L48 5L48 0L45 0L45 2L44 2L44 0L40 0L40 2L41 2L41 3L40 3L40 4L39 4L39 3L38 3L38 1L39 1L39 0L38 0L38 1L37 1L37 0L35 0L35 2L36 2L36 3L37 3L37 4L36 4L36 7L35 7L35 6L34 6L34 3L33 3L33 2L34 2L34 0L32 0L32 1L31 1L31 0L28 0L28 2L27 2L27 0L26 0L26 1L25 1L25 0L22 0L22 1L24 1L24 2L23 2L23 3L22 3L22 2L21 2L21 0L20 0L20 1L19 1L19 0L17 0L17 1L16 1L16 0L12 0L12 3L13 3L13 4L11 4L11 3L10 3L10 1L11 1L11 0ZM13 1L13 2L14 2L14 1ZM17 1L17 2L18 2L18 5L20 5L20 6L19 6L19 7L18 7L18 6L17 6L17 4L16 4L16 3L14 3L14 4L15 4L15 5L16 5L16 6L15 6L15 7L14 7L14 5L12 5L12 6L11 6L11 5L9 5L9 7L10 7L10 6L11 6L11 7L12 7L12 6L13 6L13 8L11 8L11 9L12 9L12 10L11 10L11 12L12 12L12 13L10 13L10 12L9 12L9 14L13 14L13 13L15 13L15 12L16 12L16 15L17 15L17 16L18 16L18 15L20 15L20 16L19 16L19 19L17 19L17 18L18 18L18 17L12 17L12 15L8 15L8 14L7 14L7 13L8 13L8 12L7 12L7 11L6 11L6 12L5 12L5 14L4 14L4 13L2 13L2 14L1 14L1 16L2 16L2 19L3 19L3 18L4 18L4 20L5 20L5 19L6 19L6 20L8 20L8 18L7 18L7 17L10 17L10 16L11 16L11 18L9 18L9 19L11 19L11 20L10 20L10 21L5 21L5 22L7 22L7 23L5 23L5 24L7 24L7 25L5 25L5 26L7 26L7 25L8 25L8 26L10 26L10 27L12 27L12 28L11 28L11 29L10 29L10 30L9 30L9 31L8 31L8 32L7 32L7 31L6 31L6 32L5 32L5 33L6 33L6 34L7 34L7 35L6 35L6 36L8 36L8 37L5 37L5 38L4 38L4 39L6 39L6 40L9 40L9 41L8 41L8 42L7 42L7 41L6 41L6 42L5 42L5 44L7 44L7 45L3 45L3 47L5 47L5 46L7 46L7 47L9 47L9 45L8 45L8 44L11 44L11 43L8 43L8 42L12 42L12 40L11 40L11 41L10 41L10 39L11 39L11 38L12 38L12 39L16 39L16 38L19 38L19 39L20 39L20 38L21 38L21 40L22 40L22 42L20 42L20 41L19 41L19 42L18 42L18 43L17 43L17 45L18 45L18 44L19 44L19 49L18 49L18 47L17 47L17 49L18 49L18 50L19 50L19 51L17 51L17 52L19 52L19 53L20 53L20 52L21 52L21 51L22 51L22 53L21 53L21 54L22 54L22 53L24 53L24 54L26 54L26 49L25 49L25 48L27 48L27 47L28 47L28 48L31 48L31 49L32 49L32 50L33 50L33 49L32 49L32 48L34 48L34 47L35 47L35 48L37 48L37 49L34 49L34 50L38 50L38 49L39 49L39 52L40 52L40 53L43 53L43 52L41 52L41 51L45 51L45 52L46 52L46 51L48 51L48 48L49 48L49 47L47 47L47 46L48 46L48 44L45 44L45 43L43 43L43 42L44 42L44 40L45 40L45 41L46 41L46 43L47 43L47 42L48 42L48 43L51 43L51 44L54 44L54 45L55 45L55 42L54 42L54 43L53 43L53 41L52 41L52 43L51 43L51 42L50 42L50 41L48 41L48 39L49 39L49 38L50 38L50 37L51 37L51 34L50 34L50 33L49 33L49 32L50 32L50 31L47 31L47 30L48 30L48 29L46 29L46 28L47 28L47 27L48 27L48 25L49 25L49 26L50 26L50 23L49 23L49 22L48 22L48 23L47 23L47 21L51 21L51 22L52 22L52 23L51 23L51 24L52 24L52 23L53 23L53 22L52 22L52 21L55 21L55 20L56 20L56 19L53 19L53 20L52 20L52 19L51 19L51 18L52 18L52 17L53 17L53 18L55 18L55 15L53 15L53 14L51 14L51 15L52 15L52 17L51 17L51 16L50 16L50 15L49 15L49 18L50 18L50 19L51 19L51 20L49 20L49 19L48 19L48 20L47 20L47 19L46 19L46 18L47 18L47 16L48 16L48 15L47 15L47 14L48 14L48 13L49 13L49 14L50 14L50 12L51 12L51 11L49 11L49 10L47 10L47 9L46 9L46 8L47 8L47 7L46 7L46 5L47 5L47 3L41 3L41 4L40 4L40 6L39 6L39 7L38 7L38 6L37 6L37 8L38 8L38 9L37 9L37 11L36 11L36 12L37 12L37 13L34 13L34 12L33 12L33 13L34 13L34 15L33 15L33 16L34 16L34 18L31 18L31 20L32 20L32 19L33 19L33 21L31 21L31 22L32 22L32 23L31 23L31 24L30 24L30 23L29 23L29 20L30 20L30 18L28 18L28 17L27 17L27 15L28 15L28 14L29 14L29 13L30 13L30 15L29 15L29 16L31 16L31 14L32 14L32 13L31 13L31 12L30 12L30 11L33 11L33 10L32 10L32 9L31 9L31 10L30 10L30 11L28 11L28 10L29 10L29 9L28 9L28 10L27 10L27 9L26 9L26 6L25 6L25 7L24 7L24 6L23 6L23 7L24 7L24 8L22 8L22 10L21 10L21 11L22 11L22 12L23 12L23 9L26 9L26 12L27 12L27 11L28 11L28 13L27 13L27 14L26 14L26 13L25 13L25 14L23 14L23 13L21 13L21 12L20 12L20 8L19 8L19 7L20 7L20 6L21 6L21 7L22 7L22 5L24 5L24 4L25 4L25 3L26 3L26 4L28 4L28 3L27 3L27 2L25 2L25 3L23 3L23 4L22 4L22 3L21 3L21 2L18 2L18 1ZM29 1L29 2L30 2L30 3L32 3L32 4L31 4L31 7L32 7L32 8L33 8L33 7L34 7L34 10L35 10L35 7L34 7L34 6L33 6L33 3L32 3L32 2L30 2L30 1ZM36 1L36 2L37 2L37 1ZM41 1L41 2L43 2L43 1ZM46 1L46 2L47 2L47 1ZM21 4L21 5L22 5L22 4ZM37 4L37 5L38 5L38 4ZM42 4L42 5L41 5L41 6L40 6L40 8L39 8L39 9L38 9L38 11L39 11L39 9L40 9L40 10L41 10L41 11L40 11L40 12L39 12L39 13L38 13L38 14L37 14L37 16L36 16L36 14L35 14L35 15L34 15L34 16L35 16L35 19L34 19L34 20L35 20L35 22L34 22L34 21L33 21L33 24L34 24L34 25L38 25L38 26L37 26L37 27L36 27L36 29L35 29L35 30L36 30L36 31L37 31L37 29L38 29L38 34L39 34L39 33L40 33L40 32L42 32L42 31L44 31L44 35L42 35L42 34L43 34L43 33L41 33L41 38L40 38L40 36L38 36L38 38L39 38L39 39L38 39L38 40L37 40L37 38L36 38L36 41L35 41L35 42L33 42L33 41L34 41L34 39L33 39L33 40L32 40L32 38L33 38L33 37L34 37L34 35L35 35L35 36L36 36L36 37L37 37L37 35L35 35L35 34L34 34L34 33L33 33L33 32L35 32L35 33L37 33L37 32L35 32L35 31L32 31L32 30L31 30L31 27L33 27L33 26L32 26L32 25L30 25L30 24L29 24L29 23L28 23L28 24L27 24L27 22L26 22L26 23L25 23L25 22L24 22L24 21L26 21L26 19L25 19L25 20L24 20L24 19L23 19L23 18L25 18L25 17L26 17L26 18L27 18L27 17L26 17L26 15L25 15L25 17L24 17L24 16L23 16L23 17L22 17L22 15L23 15L23 14L21 14L21 13L19 13L19 12L18 12L18 13L17 13L17 14L21 14L21 17L20 17L20 19L19 19L19 20L17 20L17 19L16 19L16 18L15 18L15 20L14 20L14 19L13 19L13 21L14 21L14 22L15 22L15 23L13 23L13 22L10 22L10 23L9 23L9 24L10 24L10 26L12 26L12 25L11 25L11 24L10 24L10 23L12 23L12 24L13 24L13 26L14 26L14 28L15 28L15 26L16 26L16 25L15 25L15 26L14 26L14 24L15 24L15 23L16 23L16 22L17 22L17 23L18 23L18 24L17 24L17 26L18 26L18 27L16 27L16 29L15 29L15 30L14 30L14 31L15 31L15 32L16 32L16 33L15 33L15 37L13 37L13 36L14 36L14 34L13 34L13 33L12 33L12 32L13 32L13 31L10 31L10 32L11 32L11 33L10 33L10 34L9 34L9 35L8 35L8 36L10 36L10 37L8 37L8 38L6 38L6 39L8 39L8 38L9 38L9 39L10 39L10 37L13 37L13 38L15 38L15 37L16 37L16 36L17 36L17 37L22 37L22 34L21 34L21 33L22 33L22 32L23 32L23 35L24 35L24 36L23 36L23 37L24 37L24 38L25 38L25 39L26 39L26 40L25 40L25 41L23 41L23 42L26 42L26 41L27 41L27 43L26 43L26 44L27 44L27 45L24 45L24 44L25 44L25 43L23 43L23 44L22 44L22 43L20 43L20 42L19 42L19 43L20 43L20 46L21 46L21 45L24 45L24 46L26 46L26 47L27 47L27 46L28 46L28 47L29 47L29 46L28 46L28 45L30 45L30 46L32 46L32 47L34 47L34 45L36 45L36 46L37 46L37 44L36 44L36 43L38 43L38 48L39 48L39 49L40 49L40 51L41 51L41 50L43 50L43 47L44 47L44 46L45 46L45 48L44 48L44 49L45 49L45 50L46 50L46 46L45 46L45 44L44 44L44 46L43 46L43 44L42 44L42 42L43 42L43 41L42 41L42 39L43 39L43 40L44 40L44 39L43 39L43 37L44 37L44 38L45 38L45 40L46 40L46 41L47 41L47 39L48 39L48 37L47 37L47 38L46 38L46 36L45 36L45 35L49 35L49 37L50 37L50 34L48 34L48 33L47 33L47 31L45 31L45 30L43 30L43 28L44 28L44 29L45 29L45 28L44 28L44 26L46 26L46 27L47 27L47 26L46 26L46 25L48 25L48 24L49 24L49 23L48 23L48 24L47 24L47 23L46 23L46 21L47 21L47 20L46 20L46 21L45 21L45 18L46 18L46 17L45 17L45 16L47 16L47 15L46 15L46 14L45 14L45 16L44 16L44 14L43 14L43 12L44 12L44 13L45 13L45 12L47 12L47 13L48 13L48 12L49 12L49 11L47 11L47 10L46 10L46 9L45 9L45 8L46 8L46 7L45 7L45 6L44 6L44 5L45 5L45 4ZM27 5L27 8L30 8L30 5ZM42 5L42 6L41 6L41 7L42 7L42 8L40 8L40 9L42 9L42 8L43 8L43 7L44 7L44 6L43 6L43 5ZM16 6L16 7L15 7L15 8L14 8L14 10L13 10L13 11L14 11L14 12L15 12L15 11L16 11L16 8L17 8L17 6ZM28 6L28 7L29 7L29 6ZM32 6L32 7L33 7L33 6ZM42 6L42 7L43 7L43 6ZM0 8L0 9L2 9L2 8ZM4 8L4 9L7 9L7 8ZM18 8L18 9L17 9L17 11L18 11L18 9L19 9L19 8ZM9 9L9 10L8 10L8 11L9 11L9 10L10 10L10 9ZM43 9L43 10L42 10L42 12L40 12L40 13L39 13L39 14L40 14L40 22L39 22L39 23L40 23L40 27L39 27L39 26L38 26L38 28L40 28L40 31L42 31L42 28L43 28L43 26L42 26L42 28L40 28L40 27L41 27L41 24L42 24L42 23L43 23L43 25L44 25L44 24L46 24L46 23L44 23L44 22L45 22L45 21L44 21L44 22L41 22L41 21L43 21L43 19L42 19L42 20L41 20L41 17L42 17L42 16L41 16L41 15L42 15L42 12L43 12L43 10L44 10L44 9ZM44 11L44 12L45 12L45 11ZM6 12L6 13L7 13L7 12ZM40 13L40 14L41 14L41 13ZM6 14L6 15L5 15L5 16L4 16L4 15L2 15L2 16L3 16L3 17L4 17L4 18L6 18L6 19L7 19L7 18L6 18L6 17L7 17L7 16L6 16L6 15L7 15L7 14ZM14 14L14 16L15 16L15 14ZM5 16L5 17L6 17L6 16ZM37 16L37 19L38 19L38 17L39 17L39 16ZM43 16L43 17L44 17L44 18L45 18L45 17L44 17L44 16ZM21 17L21 18L22 18L22 17ZM50 17L50 18L51 18L51 17ZM11 18L11 19L12 19L12 18ZM20 19L20 20L19 20L19 21L20 21L20 20L22 20L22 21L24 21L24 20L22 20L22 19ZM28 19L28 20L27 20L27 21L28 21L28 20L29 20L29 19ZM35 19L35 20L36 20L36 19ZM11 20L11 21L12 21L12 20ZM15 20L15 21L17 21L17 22L18 22L18 23L19 23L19 24L20 24L20 25L19 25L19 27L20 27L20 25L21 25L21 24L22 24L22 26L23 26L23 24L24 24L24 23L23 23L23 22L22 22L22 23L21 23L21 22L20 22L20 23L19 23L19 22L18 22L18 21L17 21L17 20ZM37 20L37 21L36 21L36 22L35 22L35 23L34 23L34 24L35 24L35 23L36 23L36 24L38 24L38 23L36 23L36 22L37 22L37 21L38 21L38 20ZM51 20L51 21L52 21L52 20ZM40 22L40 23L41 23L41 22ZM7 23L7 24L8 24L8 23ZM22 23L22 24L23 24L23 23ZM28 24L28 25L26 25L26 26L25 26L25 27L26 27L26 26L29 26L29 24ZM51 25L51 26L52 26L52 25ZM5 27L5 30L8 30L8 27ZM21 27L21 29L22 29L22 30L20 30L20 28L18 28L18 29L16 29L16 30L15 30L15 31L16 31L16 32L19 32L19 33L16 33L16 35L17 35L17 36L20 36L20 32L21 32L21 31L23 31L23 30L24 30L24 29L25 29L25 28L24 28L24 29L23 29L23 28L22 28L22 27ZM27 27L27 30L30 30L30 27ZM34 27L34 28L32 28L32 29L33 29L33 30L34 30L34 28L35 28L35 27ZM49 27L49 30L52 30L52 27ZM55 27L55 28L56 28L56 27ZM6 28L6 29L7 29L7 28ZM12 28L12 29L11 29L11 30L13 30L13 28ZM28 28L28 29L29 29L29 28ZM50 28L50 29L51 29L51 28ZM18 29L18 31L19 31L19 32L20 32L20 30L19 30L19 29ZM16 30L16 31L17 31L17 30ZM24 31L24 32L26 32L26 33L28 33L28 34L29 34L29 33L30 33L30 32L31 32L31 34L30 34L30 35L29 35L29 36L28 36L28 37L26 37L26 36L25 36L25 37L26 37L26 39L28 39L28 38L29 38L29 39L30 39L30 41L31 41L31 42L30 42L30 43L29 43L29 41L28 41L28 40L27 40L27 41L28 41L28 43L29 43L29 44L30 44L30 43L31 43L31 45L32 45L32 46L33 46L33 45L34 45L34 43L33 43L33 42L32 42L32 41L31 41L31 38L32 38L32 36L31 36L31 34L32 34L32 35L34 35L34 34L33 34L33 33L32 33L32 32L31 32L31 31L28 31L28 32L26 32L26 31ZM6 32L6 33L7 33L7 34L8 34L8 33L9 33L9 32L8 32L8 33L7 33L7 32ZM28 32L28 33L29 33L29 32ZM2 33L2 34L3 34L3 35L2 35L2 36L3 36L3 37L4 37L4 36L5 36L5 34L3 34L3 33ZM46 33L46 34L47 34L47 33ZM10 34L10 36L13 36L13 35L11 35L11 34ZM17 34L17 35L19 35L19 34ZM25 34L25 35L26 35L26 34ZM3 35L3 36L4 36L4 35ZM29 37L29 38L31 38L31 37ZM22 38L22 39L23 39L23 40L24 40L24 39L23 39L23 38ZM2 39L2 41L1 41L1 42L2 42L2 41L4 41L4 40L3 40L3 39ZM13 40L13 42L15 42L15 43L14 43L14 44L15 44L15 45L16 45L16 44L15 44L15 43L16 43L16 42L17 42L17 41L16 41L16 42L15 42L15 40ZM38 40L38 41L37 41L37 42L38 42L38 41L39 41L39 40ZM40 40L40 41L41 41L41 40ZM6 42L6 43L7 43L7 44L8 44L8 43L7 43L7 42ZM12 43L12 44L13 44L13 43ZM39 43L39 44L40 44L40 46L42 46L42 44L41 44L41 43ZM32 44L32 45L33 45L33 44ZM49 44L49 45L50 45L50 44ZM1 46L1 47L2 47L2 46ZM10 46L10 47L11 47L11 46ZM20 47L20 50L22 50L22 51L23 51L23 52L24 52L24 53L25 53L25 51L23 51L23 50L25 50L25 49L21 49L21 48L22 48L22 47ZM23 47L23 48L25 48L25 47ZM40 47L40 49L42 49L42 48L41 48L41 47ZM8 48L8 49L9 49L9 48ZM54 48L54 49L55 49L55 48ZM27 49L27 52L30 52L30 49ZM49 49L49 52L52 52L52 49ZM28 50L28 51L29 51L29 50ZM50 50L50 51L51 51L51 50ZM19 51L19 52L20 52L20 51ZM37 52L37 53L36 53L36 54L35 54L35 53L34 53L34 54L35 54L35 55L36 55L36 54L38 54L38 52ZM55 52L55 53L56 53L56 52ZM11 53L11 55L8 55L8 57L9 57L9 56L11 56L11 57L12 57L12 56L13 56L13 57L15 57L15 56L14 56L14 55L13 55L13 54L14 54L14 53ZM50 53L50 54L51 54L51 53ZM42 54L42 55L43 55L43 54ZM17 55L17 57L20 57L20 56L18 56L18 55ZM50 55L50 56L51 56L51 55ZM56 56L56 57L57 57L57 56ZM0 0L0 7L7 7L7 0ZM1 1L1 6L6 6L6 1ZM2 2L2 5L5 5L5 2ZM50 0L50 7L57 7L57 0ZM51 1L51 6L56 6L56 1ZM52 2L52 5L55 5L55 2ZM0 50L0 57L7 57L7 50ZM1 51L1 56L6 56L6 51ZM2 52L2 55L5 55L5 52Z" fill="#000000"/></g></g></svg>
