<?xml version="1.0" encoding="UTF-8"?>
<svg xmlns="http://www.w3.org/2000/svg" version="1.1" width="300" height="300" viewBox="0 0 300 300"><rect x="0" y="0" width="300" height="300" fill="#fefefe"/><g transform="scale(4.615)"><g transform="translate(4,4)"><path fill-rule="evenodd" d="M10 0L10 1L8 1L8 3L9 3L9 4L8 4L8 8L6 8L6 9L4 9L4 8L3 8L3 10L2 10L2 12L3 12L3 13L1 13L1 9L2 9L2 8L0 8L0 14L1 14L1 15L3 15L3 16L1 16L1 17L5 17L5 18L6 18L6 19L7 19L7 20L6 20L6 21L3 21L3 19L4 19L4 20L5 20L5 19L4 19L4 18L3 18L3 19L2 19L2 21L1 21L1 19L0 19L0 21L1 21L1 22L0 22L0 24L1 24L1 27L0 27L0 28L1 28L1 27L3 27L3 28L4 28L4 31L10 31L10 32L11 32L11 33L13 33L13 31L14 31L14 30L16 30L16 32L14 32L14 34L11 34L11 35L10 35L10 33L7 33L7 32L5 32L5 33L4 33L4 32L3 32L3 33L2 33L2 36L1 36L1 34L0 34L0 38L1 38L1 40L0 40L0 41L1 41L1 40L2 40L2 42L1 42L1 43L2 43L2 45L0 45L0 48L5 48L5 47L7 47L7 48L6 48L6 49L8 49L8 51L9 51L9 52L10 52L10 53L8 53L8 54L9 54L9 55L8 55L8 57L11 57L11 54L12 54L12 53L13 53L13 51L15 51L15 52L16 52L16 51L15 51L15 50L14 50L14 49L13 49L13 48L14 48L14 47L12 47L12 50L13 50L13 51L12 51L12 53L11 53L11 52L10 52L10 51L9 51L9 49L10 49L10 50L11 50L11 46L12 46L12 45L14 45L14 46L15 46L15 49L16 49L16 50L17 50L17 51L20 51L20 53L19 53L19 52L17 52L17 53L16 53L16 54L17 54L17 55L21 55L21 56L18 56L18 57L26 57L26 56L27 56L27 55L28 55L28 56L29 56L29 57L31 57L31 56L33 56L33 57L35 57L35 56L36 56L36 57L42 57L42 56L43 56L43 57L44 57L44 56L45 56L45 55L46 55L46 57L48 57L48 55L49 55L49 56L50 56L50 57L51 57L51 56L52 56L52 57L53 57L53 55L55 55L55 54L56 54L56 55L57 55L57 51L56 51L56 49L55 49L55 48L54 48L54 47L55 47L55 46L56 46L56 48L57 48L57 45L56 45L56 44L55 44L55 45L53 45L53 46L54 46L54 47L52 47L52 44L53 44L53 43L52 43L52 44L51 44L51 42L46 42L46 43L48 43L48 44L47 44L47 45L49 45L49 46L48 46L48 47L47 47L47 46L46 46L46 47L45 47L45 46L44 46L44 43L45 43L45 42L42 42L42 41L41 41L41 43L40 43L40 42L39 42L39 41L40 41L40 40L39 40L39 39L41 39L41 40L42 40L42 39L41 39L41 38L42 38L42 37L44 37L44 38L45 38L45 37L46 37L46 40L45 40L45 39L44 39L44 40L43 40L43 41L47 41L47 40L52 40L52 41L53 41L53 42L54 42L54 43L57 43L57 42L56 42L56 41L57 41L57 40L56 40L56 39L57 39L57 32L56 32L56 31L57 31L57 30L54 30L54 28L53 28L53 27L56 27L56 28L55 28L55 29L57 29L57 27L56 27L56 26L57 26L57 21L56 21L56 19L57 19L57 18L56 18L56 19L55 19L55 16L53 16L53 15L54 15L54 11L55 11L55 10L56 10L56 11L57 11L57 10L56 10L56 8L54 8L54 9L53 9L53 8L50 8L50 9L51 9L51 10L50 10L50 11L49 11L49 10L45 10L45 9L49 9L49 8L48 8L48 7L49 7L49 6L48 6L48 7L47 7L47 5L48 5L48 0L44 0L44 1L45 1L45 2L44 2L44 3L45 3L45 2L46 2L46 3L47 3L47 5L46 5L46 8L45 8L45 4L44 4L44 8L43 8L43 6L42 6L42 7L41 7L41 6L40 6L40 5L43 5L43 3L42 3L42 2L41 2L41 4L38 4L38 8L37 8L37 6L36 6L36 7L35 7L35 5L36 5L36 4L35 4L35 2L34 2L34 1L36 1L36 2L37 2L37 3L39 3L39 2L40 2L40 1L43 1L43 0L40 0L40 1L39 1L39 0L37 0L37 1L36 1L36 0L32 0L32 1L31 1L31 0L26 0L26 1L25 1L25 0L22 0L22 1L25 1L25 2L27 2L27 4L24 4L24 5L23 5L23 4L21 4L21 5L22 5L22 8L21 8L21 6L20 6L20 5L17 5L17 6L16 6L16 7L15 7L15 6L14 6L14 5L15 5L15 4L13 4L13 3L14 3L14 2L16 2L16 3L18 3L18 2L19 2L19 4L20 4L20 3L24 3L24 2L21 2L21 0L15 0L15 1L14 1L14 2L12 2L12 1L13 1L13 0ZM17 1L17 2L18 2L18 1ZM27 1L27 2L28 2L28 4L29 4L29 3L30 3L30 4L32 4L32 5L33 5L33 3L32 3L32 2L33 2L33 1L32 1L32 2L31 2L31 1L30 1L30 2L28 2L28 1ZM37 1L37 2L38 2L38 1ZM46 1L46 2L47 2L47 1ZM10 2L10 3L11 3L11 4L12 4L12 3L11 3L11 2ZM30 2L30 3L31 3L31 2ZM9 4L9 7L10 7L10 6L11 6L11 9L10 9L10 11L14 11L14 13L13 13L13 12L9 12L9 13L6 13L6 12L7 12L7 11L8 11L8 10L9 10L9 8L8 8L8 10L7 10L7 9L6 9L6 10L7 10L7 11L5 11L5 15L4 15L4 16L5 16L5 17L6 17L6 18L7 18L7 19L8 19L8 21L9 21L9 23L8 23L8 22L7 22L7 21L6 21L6 22L5 22L5 23L6 23L6 24L5 24L5 25L6 25L6 26L7 26L7 25L6 25L6 24L8 24L8 25L9 25L9 26L10 26L10 27L9 27L9 29L10 29L10 27L11 27L11 28L12 28L12 29L11 29L11 30L10 30L10 31L11 31L11 32L12 32L12 29L13 29L13 28L14 28L14 29L15 29L15 28L17 28L17 27L19 27L19 26L20 26L20 28L18 28L18 29L16 29L16 30L19 30L19 31L18 31L18 32L17 32L17 33L15 33L15 34L14 34L14 35L15 35L15 36L14 36L14 37L15 37L15 36L17 36L17 38L18 38L18 39L16 39L16 40L15 40L15 39L13 39L13 38L12 38L12 37L13 37L13 36L12 36L12 35L11 35L11 36L10 36L10 35L6 35L6 34L7 34L7 33L6 33L6 34L5 34L5 35L4 35L4 33L3 33L3 35L4 35L4 36L5 36L5 38L7 38L7 37L6 37L6 36L9 36L9 37L8 37L8 39L6 39L6 40L9 40L9 39L10 39L10 41L6 41L6 42L5 42L5 39L4 39L4 40L3 40L3 38L4 38L4 37L2 37L2 40L3 40L3 41L4 41L4 42L2 42L2 43L3 43L3 47L5 47L5 46L7 46L7 47L9 47L9 48L8 48L8 49L9 49L9 48L10 48L10 47L9 47L9 46L11 46L11 43L12 43L12 42L13 42L13 40L15 40L15 41L14 41L14 43L13 43L13 44L14 44L14 45L15 45L15 46L16 46L16 48L18 48L18 47L19 47L19 49L17 49L17 50L19 50L19 49L20 49L20 51L21 51L21 52L22 52L22 53L24 53L24 52L23 52L23 50L24 50L24 51L26 51L26 47L27 47L27 48L29 48L29 45L30 45L30 46L31 46L31 45L30 45L30 44L29 44L29 43L28 43L28 44L29 44L29 45L27 45L27 44L25 44L25 43L26 43L26 42L29 42L29 41L28 41L28 40L29 40L29 39L30 39L30 38L29 38L29 39L28 39L28 40L27 40L27 41L26 41L26 42L25 42L25 39L24 39L24 38L26 38L26 36L34 36L34 35L35 35L35 36L36 36L36 35L37 35L37 36L39 36L39 37L38 37L38 38L37 38L37 37L35 37L35 39L36 39L36 38L37 38L37 39L39 39L39 38L41 38L41 37L40 37L40 36L39 36L39 35L38 35L38 34L39 34L39 32L40 32L40 31L39 31L39 30L37 30L37 29L38 29L38 27L40 27L40 23L39 23L39 20L38 20L38 17L39 17L39 15L38 15L38 14L39 14L39 8L40 8L40 6L39 6L39 8L38 8L38 9L37 9L37 10L38 10L38 11L36 11L36 10L35 10L35 9L36 9L36 8L35 8L35 7L34 7L34 6L33 6L33 7L32 7L32 6L31 6L31 8L32 8L32 9L27 9L27 10L26 10L26 9L25 9L25 8L26 8L26 6L25 6L25 5L24 5L24 6L23 6L23 7L24 7L24 9L22 9L22 10L23 10L23 12L22 12L22 13L23 13L23 14L21 14L21 13L20 13L20 12L19 12L19 11L18 11L18 10L20 10L20 11L21 11L21 8L19 8L19 9L18 9L18 8L14 8L14 6L13 6L13 8L14 8L14 10L13 10L13 9L12 9L12 6L11 6L11 5L10 5L10 4ZM34 4L34 5L35 5L35 4ZM27 5L27 8L30 8L30 5ZM17 6L17 7L18 7L18 6ZM19 6L19 7L20 7L20 6ZM24 6L24 7L25 7L25 6ZM28 6L28 7L29 7L29 6ZM33 7L33 8L34 8L34 9L35 9L35 8L34 8L34 7ZM42 8L42 9L40 9L40 11L41 11L41 14L40 14L40 15L41 15L41 14L42 14L42 18L39 18L39 19L40 19L40 20L44 20L44 21L41 21L41 23L42 23L42 24L44 24L44 22L45 22L45 20L44 20L44 19L45 19L45 18L44 18L44 16L45 16L45 17L46 17L46 19L50 19L50 17L51 17L51 18L52 18L52 19L53 19L53 20L54 20L54 21L53 21L53 22L54 22L54 24L56 24L56 22L54 22L54 21L55 21L55 19L53 19L53 18L54 18L54 17L53 17L53 16L52 16L52 17L51 17L51 16L50 16L50 17L48 17L48 18L47 18L47 17L46 17L46 16L48 16L48 14L49 14L49 15L50 15L50 14L51 14L51 15L53 15L53 13L52 13L52 12L51 12L51 11L54 11L54 10L51 10L51 11L50 11L50 12L51 12L51 13L50 13L50 14L49 14L49 11L48 11L48 12L47 12L47 14L46 14L46 13L44 13L44 15L43 15L43 12L44 12L44 11L45 11L45 10L44 10L44 11L43 11L43 12L42 12L42 11L41 11L41 10L43 10L43 8ZM44 8L44 9L45 9L45 8ZM17 9L17 10L16 10L16 11L17 11L17 12L18 12L18 13L19 13L19 14L18 14L18 15L19 15L19 16L17 16L17 17L18 17L18 18L17 18L17 19L15 19L15 17L16 17L16 15L17 15L17 13L16 13L16 12L15 12L15 14L13 14L13 13L10 13L10 14L12 14L12 15L15 15L15 16L14 16L14 19L12 19L12 20L14 20L14 19L15 19L15 20L16 20L16 24L15 24L15 23L14 23L14 22L11 22L11 21L10 21L10 22L11 22L11 23L9 23L9 24L11 24L11 23L13 23L13 24L12 24L12 25L10 25L10 26L12 26L12 27L14 27L14 26L15 26L15 25L16 25L16 27L17 27L17 25L20 25L20 24L21 24L21 26L22 26L22 27L23 27L23 28L25 28L25 29L26 29L26 30L25 30L25 31L26 31L26 32L27 32L27 33L25 33L25 34L24 34L24 35L26 35L26 34L27 34L27 35L28 35L28 34L27 34L27 33L28 33L28 32L29 32L29 33L30 33L30 32L31 32L31 33L32 33L32 34L30 34L30 35L34 35L34 34L33 34L33 33L34 33L34 32L36 32L36 33L37 33L37 31L36 31L36 29L37 29L37 28L35 28L35 27L34 27L34 26L38 26L38 25L39 25L39 24L38 24L38 22L35 22L35 23L33 23L33 22L32 22L32 20L33 20L33 21L35 21L35 20L33 20L33 17L34 17L34 16L35 16L35 17L36 17L36 18L37 18L37 17L38 17L38 15L37 15L37 14L38 14L38 12L34 12L34 14L35 14L35 13L36 13L36 15L33 15L33 11L34 11L34 10L33 10L33 11L32 11L32 10L30 10L30 12L31 12L31 13L32 13L32 14L31 14L31 15L33 15L33 16L32 16L32 19L30 19L30 17L31 17L31 16L28 16L28 15L29 15L29 14L30 14L30 13L29 13L29 10L28 10L28 11L26 11L26 12L28 12L28 13L29 13L29 14L27 14L27 16L26 16L26 18L24 18L24 17L22 17L22 19L21 19L21 21L22 21L22 22L20 22L20 20L19 20L19 19L20 19L20 18L21 18L21 14L20 14L20 13L19 13L19 12L18 12L18 11L17 11L17 10L18 10L18 9ZM3 10L3 11L4 11L4 10ZM24 11L24 12L25 12L25 11ZM31 11L31 12L32 12L32 11ZM55 12L55 13L56 13L56 14L55 14L55 15L56 15L56 17L57 17L57 15L56 15L56 14L57 14L57 12ZM3 13L3 14L4 14L4 13ZM25 13L25 14L24 14L24 15L26 15L26 13ZM51 13L51 14L52 14L52 13ZM6 14L6 15L5 15L5 16L6 16L6 17L7 17L7 16L8 16L8 17L9 17L9 20L10 20L10 17L9 17L9 16L10 16L10 15L9 15L9 16L8 16L8 14ZM15 14L15 15L16 15L16 14ZM19 14L19 15L20 15L20 14ZM6 15L6 16L7 16L7 15ZM11 16L11 17L12 17L12 16ZM40 16L40 17L41 17L41 16ZM19 17L19 18L18 18L18 19L19 19L19 18L20 18L20 17ZM23 18L23 20L25 20L25 19L24 19L24 18ZM28 18L28 19L26 19L26 21L25 21L25 22L24 22L24 21L23 21L23 22L22 22L22 23L25 23L25 25L22 25L22 26L23 26L23 27L25 27L25 28L26 28L26 26L29 26L29 25L26 25L26 24L27 24L27 22L30 22L30 23L28 23L28 24L31 24L31 20L30 20L30 19L29 19L29 18ZM42 18L42 19L43 19L43 18ZM28 19L28 20L27 20L27 21L26 21L26 22L25 22L25 23L26 23L26 22L27 22L27 21L30 21L30 20L29 20L29 19ZM36 19L36 21L38 21L38 20L37 20L37 19ZM17 20L17 21L18 21L18 22L19 22L19 23L20 23L20 22L19 22L19 21L18 21L18 20ZM47 20L47 21L46 21L46 22L47 22L47 23L49 23L49 20ZM2 21L2 22L1 22L1 24L2 24L2 25L4 25L4 23L3 23L3 24L2 24L2 22L3 22L3 21ZM47 21L47 22L48 22L48 21ZM50 21L50 24L49 24L49 25L47 25L47 26L49 26L49 25L50 25L50 26L51 26L51 25L50 25L50 24L53 24L53 23L52 23L52 22L51 22L51 21ZM6 22L6 23L7 23L7 22ZM42 22L42 23L43 23L43 22ZM32 23L32 24L33 24L33 25L32 25L32 26L31 26L31 25L30 25L30 26L31 26L31 27L32 27L32 28L31 28L31 29L32 29L32 28L33 28L33 27L32 27L32 26L34 26L34 25L35 25L35 24L33 24L33 23ZM36 23L36 24L37 24L37 23ZM14 24L14 25L13 25L13 26L14 26L14 25L15 25L15 24ZM25 25L25 26L26 26L26 25ZM42 25L42 26L41 26L41 28L40 28L40 30L41 30L41 31L44 31L44 29L43 29L43 28L44 28L44 27L45 27L45 29L46 29L46 30L45 30L45 31L47 31L47 32L46 32L46 33L45 33L45 32L43 32L43 33L42 33L42 32L41 32L41 34L42 34L42 35L41 35L41 36L42 36L42 35L43 35L43 34L44 34L44 33L45 33L45 35L44 35L44 36L45 36L45 35L46 35L46 36L47 36L47 39L48 39L48 36L47 36L47 35L50 35L50 36L49 36L49 38L50 38L50 39L52 39L52 36L53 36L53 35L54 35L54 36L56 36L56 35L55 35L55 34L56 34L56 32L55 32L55 31L54 31L54 30L53 30L53 32L52 32L52 34L53 34L53 35L52 35L52 36L51 36L51 35L50 35L50 34L47 34L47 32L48 32L48 29L46 29L46 25ZM52 25L52 26L55 26L55 25ZM3 26L3 27L4 27L4 26ZM43 26L43 27L42 27L42 28L43 28L43 27L44 27L44 26ZM5 27L5 30L8 30L8 27ZM27 27L27 30L30 30L30 27ZM49 27L49 30L52 30L52 27ZM6 28L6 29L7 29L7 28ZM28 28L28 29L29 29L29 28ZM34 28L34 29L33 29L33 30L32 30L32 33L33 33L33 31L35 31L35 28ZM50 28L50 29L51 29L51 28ZM20 29L20 31L19 31L19 32L18 32L18 33L17 33L17 34L18 34L18 38L20 38L20 42L21 42L21 43L20 43L20 44L16 44L16 43L15 43L15 45L19 45L19 46L20 46L20 47L21 47L21 46L22 46L22 47L23 47L23 48L20 48L20 49L21 49L21 51L22 51L22 49L24 49L24 47L26 47L26 46L27 46L27 45L25 45L25 46L24 46L24 45L23 45L23 46L22 46L22 40L24 40L24 39L22 39L22 40L21 40L21 38L24 38L24 37L25 37L25 36L23 36L23 35L22 35L22 36L20 36L20 34L18 34L18 33L19 33L19 32L20 32L20 31L21 31L21 34L22 34L22 33L24 33L24 29L23 29L23 30L21 30L21 29ZM41 29L41 30L42 30L42 29ZM0 30L0 33L1 33L1 30ZM22 31L22 32L23 32L23 31ZM27 31L27 32L28 32L28 31ZM29 31L29 32L30 32L30 31ZM38 31L38 32L39 32L39 31ZM49 31L49 33L50 33L50 31ZM54 32L54 33L53 33L53 34L54 34L54 33L55 33L55 32ZM46 34L46 35L47 35L47 34ZM5 35L5 36L6 36L6 35ZM11 36L11 37L12 37L12 36ZM19 36L19 37L20 37L20 36ZM50 36L50 38L51 38L51 36ZM33 37L33 38L34 38L34 37ZM53 37L53 38L55 38L55 37ZM10 38L10 39L11 39L11 40L13 40L13 39L12 39L12 38ZM32 39L32 40L31 40L31 41L30 41L30 42L31 42L31 41L32 41L32 42L33 42L33 44L32 44L32 43L31 43L31 44L32 44L32 45L33 45L33 46L32 46L32 47L30 47L30 48L37 48L37 49L36 49L36 50L34 50L34 49L31 49L31 51L32 51L32 50L34 50L34 51L33 51L33 52L36 52L36 51L37 51L37 52L38 52L38 53L36 53L36 54L35 54L35 53L32 53L32 55L34 55L34 56L35 56L35 55L36 55L36 56L39 56L39 55L40 55L40 56L41 56L41 55L42 55L42 54L43 54L43 53L44 53L44 54L50 54L50 56L51 56L51 54L52 54L52 53L48 53L48 52L47 52L47 53L46 53L46 49L45 49L45 50L44 50L44 51L41 51L41 50L43 50L43 47L44 47L44 48L45 48L45 47L44 47L44 46L43 46L43 45L42 45L42 44L43 44L43 43L42 43L42 44L41 44L41 48L42 48L42 49L41 49L41 50L40 50L40 49L39 49L39 48L38 48L38 47L39 47L39 46L40 46L40 45L37 45L37 46L36 46L36 44L37 44L37 42L38 42L38 43L39 43L39 42L38 42L38 40L37 40L37 41L36 41L36 42L35 42L35 40L34 40L34 41L32 41L32 40L33 40L33 39ZM53 39L53 40L55 40L55 39ZM18 40L18 41L17 41L17 42L18 42L18 43L19 43L19 40ZM23 41L23 42L24 42L24 41ZM54 41L54 42L55 42L55 41ZM6 42L6 43L8 43L8 42ZM10 42L10 43L9 43L9 44L10 44L10 43L11 43L11 42ZM34 42L34 43L35 43L35 44L36 44L36 43L35 43L35 42ZM4 43L4 45L7 45L7 46L8 46L8 44L5 44L5 43ZM49 43L49 45L50 45L50 46L51 46L51 45L50 45L50 43ZM33 44L33 45L34 45L34 44ZM20 45L20 46L21 46L21 45ZM1 46L1 47L2 47L2 46ZM17 46L17 47L18 47L18 46ZM34 46L34 47L35 47L35 46ZM46 47L46 48L47 48L47 50L48 50L48 48L47 48L47 47ZM49 47L49 48L51 48L51 47ZM27 49L27 52L30 52L30 49ZM37 49L37 50L38 50L38 51L39 51L39 50L38 50L38 49ZM49 49L49 52L52 52L52 49ZM53 49L53 53L54 53L54 54L55 54L55 53L54 53L54 52L56 52L56 51L55 51L55 49ZM28 50L28 51L29 51L29 50ZM50 50L50 51L51 51L51 50ZM40 51L40 52L39 52L39 53L38 53L38 54L39 54L39 53L40 53L40 54L42 54L42 53L43 53L43 52L42 52L42 53L40 53L40 52L41 52L41 51ZM44 51L44 53L45 53L45 51ZM25 52L25 53L26 53L26 52ZM18 53L18 54L19 54L19 53ZM22 54L22 56L24 56L24 55L25 55L25 56L26 56L26 55L27 55L27 54ZM29 54L29 56L30 56L30 55L31 55L31 54ZM34 54L34 55L35 55L35 54ZM36 54L36 55L37 55L37 54ZM43 55L43 56L44 56L44 55ZM12 56L12 57L17 57L17 56ZM55 56L55 57L56 57L56 56ZM0 0L0 7L7 7L7 0ZM1 1L1 6L6 6L6 1ZM2 2L2 5L5 5L5 2ZM50 0L50 7L57 7L57 0ZM51 1L51 6L56 6L56 1ZM52 2L52 5L55 5L55 2ZM0 50L0 57L7 57L7 50ZM1 51L1 56L6 56L6 51ZM2 52L2 55L5 55L5 52Z" fill="#000000"/></g></g></svg>
