<?xml version="1.0" encoding="UTF-8"?>
<svg xmlns="http://www.w3.org/2000/svg" version="1.1" width="300" height="300" viewBox="0 0 300 300"><rect x="0" y="0" width="300" height="300" fill="#fefefe"/><g transform="scale(4.615)"><g transform="translate(4,4)"><path fill-rule="evenodd" d="M8 0L8 1L9 1L9 0ZM12 0L12 1L11 1L11 2L10 2L10 3L11 3L11 2L12 2L12 1L13 1L13 0ZM17 0L17 1L16 1L16 2L15 2L15 3L17 3L17 4L19 4L19 5L15 5L15 4L14 4L14 3L13 3L13 4L14 4L14 5L12 5L12 4L10 4L10 7L9 7L9 6L8 6L8 7L9 7L9 8L8 8L8 9L9 9L9 8L10 8L10 10L9 10L9 11L8 11L8 10L6 10L6 9L7 9L7 8L6 8L6 9L4 9L4 8L0 8L0 13L1 13L1 15L0 15L0 17L2 17L2 18L0 18L0 22L1 22L1 23L0 23L0 24L1 24L1 23L3 23L3 24L2 24L2 25L1 25L1 26L0 26L0 30L2 30L2 33L0 33L0 40L1 40L1 41L0 41L0 42L1 42L1 43L0 43L0 44L1 44L1 45L0 45L0 48L5 48L5 47L7 47L7 48L6 48L6 49L7 49L7 48L8 48L8 47L9 47L9 49L8 49L8 50L9 50L9 51L10 51L10 50L9 50L9 49L11 49L11 48L12 48L12 47L11 47L11 48L10 48L10 45L11 45L11 46L15 46L15 45L16 45L16 44L17 44L17 42L18 42L18 43L19 43L19 41L15 41L15 40L16 40L16 39L17 39L17 40L20 40L20 41L21 41L21 42L20 42L20 44L21 44L21 46L20 46L20 45L17 45L17 46L16 46L16 47L17 47L17 50L16 50L16 48L13 48L13 51L12 51L12 50L11 50L11 52L10 52L10 55L9 55L9 53L8 53L8 57L9 57L9 56L10 56L10 57L11 57L11 56L13 56L13 57L15 57L15 56L16 56L16 57L18 57L18 56L19 56L19 55L20 55L20 57L21 57L21 56L22 56L22 57L24 57L24 56L28 56L28 55L27 55L27 53L29 53L29 54L31 54L31 55L30 55L30 56L31 56L31 57L32 57L32 55L33 55L33 54L36 54L36 55L34 55L34 56L33 56L33 57L36 57L36 55L37 55L37 54L36 54L36 53L35 53L35 52L36 52L36 51L37 51L37 52L38 52L38 51L39 51L39 50L40 50L40 49L39 49L39 48L38 48L38 49L37 49L37 48L35 48L35 47L38 47L38 45L39 45L39 46L40 46L40 47L43 47L43 49L44 49L44 47L45 47L45 48L48 48L48 52L47 52L47 50L46 50L46 49L45 49L45 51L43 51L43 54L42 54L42 53L41 53L41 54L40 54L40 52L42 52L42 51L40 51L40 52L39 52L39 54L38 54L38 57L41 57L41 56L42 56L42 57L43 57L43 55L44 55L44 56L45 56L45 57L46 57L46 54L47 54L47 55L49 55L49 56L47 56L47 57L51 57L51 54L52 54L52 53L53 53L53 54L54 54L54 55L55 55L55 54L56 54L56 52L55 52L55 51L56 51L56 49L57 49L57 48L56 48L56 49L55 49L55 48L54 48L54 47L53 47L53 46L55 46L55 47L57 47L57 43L56 43L56 41L57 41L57 40L56 40L56 41L55 41L55 38L56 38L56 39L57 39L57 38L56 38L56 37L55 37L55 36L54 36L54 35L57 35L57 31L56 31L56 30L57 30L57 27L56 27L56 28L55 28L55 27L53 27L53 25L54 25L54 23L57 23L57 19L56 19L56 22L54 22L54 21L55 21L55 20L54 20L54 21L53 21L53 20L50 20L50 19L51 19L51 18L52 18L52 19L55 19L55 17L56 17L56 18L57 18L57 15L54 15L54 14L53 14L53 13L54 13L54 10L53 10L53 9L55 9L55 8L52 8L52 9L51 9L51 10L53 10L53 13L52 13L52 12L51 12L51 11L49 11L49 10L50 10L50 8L49 8L49 9L47 9L47 8L48 8L48 7L49 7L49 6L48 6L48 7L47 7L47 5L48 5L48 0L46 0L46 1L47 1L47 2L46 2L46 3L47 3L47 5L45 5L45 4L44 4L44 3L45 3L45 1L44 1L44 2L41 2L41 1L43 1L43 0L41 0L41 1L40 1L40 0L39 0L39 1L40 1L40 2L41 2L41 4L39 4L39 2L37 2L37 1L38 1L38 0L37 0L37 1L36 1L36 0L35 0L35 1L34 1L34 2L35 2L35 4L36 4L36 5L40 5L40 7L41 7L41 8L38 8L38 7L39 7L39 6L38 6L38 7L37 7L37 6L36 6L36 7L35 7L35 6L34 6L34 5L33 5L33 6L32 6L32 5L31 5L31 4L32 4L32 3L33 3L33 0L32 0L32 1L31 1L31 0L28 0L28 1L29 1L29 2L27 2L27 3L30 3L30 4L26 4L26 0L23 0L23 1L22 1L22 0L21 0L21 1L22 1L22 3L23 3L23 6L22 6L22 8L21 8L21 10L20 10L20 7L21 7L21 5L22 5L22 4L21 4L21 5L20 5L20 4L19 4L19 1L18 1L18 0ZM17 1L17 3L18 3L18 1ZM23 1L23 3L24 3L24 2L25 2L25 1ZM30 1L30 3L31 3L31 1ZM35 1L35 2L36 2L36 1ZM8 2L8 5L9 5L9 2ZM37 3L37 4L38 4L38 3ZM24 4L24 6L23 6L23 7L24 7L24 8L23 8L23 9L22 9L22 10L23 10L23 9L24 9L24 8L25 8L25 9L26 9L26 6L25 6L25 5L26 5L26 4ZM41 4L41 5L42 5L42 6L41 6L41 7L42 7L42 6L43 6L43 11L44 11L44 14L45 14L45 15L44 15L44 16L45 16L45 15L47 15L47 14L48 14L48 18L47 18L47 19L46 19L46 18L45 18L45 17L42 17L42 14L43 14L43 12L42 12L42 11L41 11L41 9L42 9L42 8L41 8L41 9L40 9L40 10L39 10L39 9L38 9L38 11L37 11L37 8L36 8L36 9L34 9L34 6L33 6L33 8L32 8L32 6L31 6L31 9L32 9L32 10L29 10L29 11L27 11L27 10L26 10L26 11L25 11L25 13L24 13L24 12L23 12L23 11L21 11L21 12L19 12L19 10L18 10L18 9L19 9L19 8L18 8L18 6L17 6L17 7L16 7L16 6L15 6L15 8L14 8L14 6L13 6L13 7L12 7L12 5L11 5L11 7L10 7L10 8L11 8L11 9L12 9L12 10L11 10L11 12L9 12L9 13L8 13L8 14L7 14L7 13L6 13L6 14L7 14L7 15L6 15L6 16L7 16L7 15L9 15L9 18L10 18L10 19L11 19L11 20L13 20L13 19L15 19L15 18L13 18L13 16L14 16L14 13L13 13L13 16L12 16L12 18L13 18L13 19L11 19L11 18L10 18L10 16L11 16L11 15L12 15L12 13L11 13L11 12L12 12L12 10L14 10L14 11L15 11L15 10L18 10L18 12L17 12L17 13L16 13L16 12L15 12L15 15L16 15L16 16L15 16L15 17L17 17L17 18L18 18L18 17L19 17L19 19L18 19L18 21L17 21L17 23L16 23L16 20L14 20L14 23L16 23L16 24L17 24L17 23L19 23L19 22L21 22L21 23L20 23L20 24L21 24L21 26L19 26L19 25L16 25L16 26L14 26L14 27L15 27L15 28L12 28L12 27L13 27L13 26L12 26L12 27L11 27L11 25L10 25L10 24L11 24L11 23L12 23L12 24L13 24L13 25L14 25L14 24L13 24L13 21L11 21L11 23L9 23L9 22L8 22L8 21L9 21L9 20L8 20L8 19L6 19L6 18L7 18L7 17L6 17L6 18L4 18L4 21L3 21L3 19L2 19L2 21L1 21L1 22L2 22L2 21L3 21L3 23L5 23L5 22L8 22L8 23L6 23L6 24L7 24L7 25L5 25L5 26L8 26L8 23L9 23L9 26L10 26L10 27L9 27L9 28L10 28L10 29L9 29L9 30L10 30L10 29L11 29L11 30L13 30L13 29L15 29L15 30L16 30L16 29L15 29L15 28L17 28L17 30L18 30L18 31L17 31L17 32L18 32L18 34L17 34L17 33L16 33L16 31L15 31L15 33L14 33L14 32L11 32L11 31L10 31L10 33L9 33L9 34L8 34L8 33L6 33L6 32L9 32L9 31L5 31L5 33L4 33L4 35L3 35L3 33L2 33L2 34L1 34L1 36L2 36L2 35L3 35L3 36L4 36L4 35L5 35L5 36L7 36L7 35L10 35L10 36L11 36L11 37L10 37L10 38L8 38L8 37L9 37L9 36L8 36L8 37L6 37L6 38L8 38L8 39L9 39L9 40L8 40L8 41L6 41L6 40L7 40L7 39L6 39L6 40L5 40L5 41L4 41L4 42L2 42L2 41L3 41L3 39L5 39L5 38L1 38L1 40L2 40L2 41L1 41L1 42L2 42L2 43L1 43L1 44L2 44L2 43L4 43L4 44L5 44L5 45L6 45L6 46L7 46L7 47L8 47L8 44L9 44L9 45L10 45L10 43L11 43L11 44L12 44L12 45L15 45L15 43L16 43L16 42L15 42L15 41L12 41L12 40L15 40L15 38L17 38L17 39L18 39L18 38L17 38L17 36L18 36L18 35L19 35L19 37L20 37L20 38L22 38L22 39L21 39L21 40L22 40L22 41L23 41L23 40L24 40L24 39L25 39L25 41L24 41L24 42L23 42L23 44L22 44L22 42L21 42L21 44L22 44L22 46L21 46L21 47L22 47L22 46L23 46L23 44L24 44L24 45L25 45L25 46L24 46L24 49L23 49L23 48L20 48L20 49L21 49L21 50L22 50L22 51L23 51L23 52L22 52L22 53L23 53L23 52L24 52L24 53L25 53L25 52L26 52L26 50L25 50L25 47L26 47L26 48L27 48L27 46L28 46L28 48L32 48L32 49L31 49L31 53L32 53L32 50L33 50L33 51L34 51L34 50L35 50L35 48L32 48L32 47L31 47L31 46L32 46L32 45L33 45L33 47L34 47L34 46L37 46L37 45L38 45L38 44L40 44L40 43L41 43L41 42L40 42L40 41L42 41L42 42L43 42L43 43L42 43L42 45L43 45L43 46L45 46L45 47L46 47L46 46L47 46L47 45L48 45L48 44L44 44L44 42L43 42L43 41L42 41L42 38L44 38L44 39L43 39L43 40L44 40L44 39L46 39L46 38L48 38L48 39L47 39L47 40L50 40L50 41L47 41L47 42L45 42L45 43L47 43L47 42L48 42L48 43L49 43L49 44L50 44L50 45L49 45L49 46L48 46L48 47L49 47L49 48L50 48L50 47L49 47L49 46L51 46L51 48L52 48L52 46L53 46L53 44L55 44L55 46L56 46L56 44L55 44L55 43L54 43L54 42L55 42L55 41L54 41L54 42L53 42L53 43L52 43L52 46L51 46L51 42L50 42L50 41L52 41L52 40L50 40L50 39L54 39L54 38L53 38L53 36L52 36L52 35L51 35L51 36L52 36L52 38L50 38L50 36L49 36L49 35L48 35L48 36L47 36L47 34L50 34L50 33L49 33L49 32L48 32L48 28L47 28L47 33L46 33L46 31L44 31L44 30L43 30L43 29L42 29L42 30L41 30L41 27L39 27L39 26L38 26L38 27L39 27L39 28L40 28L40 29L38 29L38 30L36 30L36 29L37 29L37 28L34 28L34 29L35 29L35 30L36 30L36 31L37 31L37 32L36 32L36 33L37 33L37 32L38 32L38 34L39 34L39 31L38 31L38 30L41 30L41 31L40 31L40 32L41 32L41 31L44 31L44 34L46 34L46 35L45 35L45 36L44 36L44 37L43 37L43 35L42 35L42 34L41 34L41 35L39 35L39 36L38 36L38 35L37 35L37 36L38 36L38 37L39 37L39 36L40 36L40 37L41 37L41 40L40 40L40 41L37 41L37 40L38 40L38 39L39 39L39 38L37 38L37 37L35 37L35 36L36 36L36 35L35 35L35 31L33 31L33 32L31 32L31 33L32 33L32 34L30 34L30 35L29 35L29 33L30 33L30 31L29 31L29 32L28 32L28 31L25 31L25 30L26 30L26 28L25 28L25 27L24 27L24 26L25 26L25 25L27 25L27 26L29 26L29 24L28 24L28 22L25 22L25 21L27 21L27 20L28 20L28 18L29 18L29 17L30 17L30 19L31 19L31 16L33 16L33 15L35 15L35 16L34 16L34 17L35 17L35 19L33 19L33 17L32 17L32 20L31 20L31 23L30 23L30 22L29 22L29 23L30 23L30 24L31 24L31 23L32 23L32 22L34 22L34 23L33 23L33 24L32 24L32 25L33 25L33 24L35 24L35 23L36 23L36 24L37 24L37 23L39 23L39 20L40 20L40 19L39 19L39 18L41 18L41 21L44 21L44 22L47 22L47 23L43 23L43 22L41 22L41 23L40 23L40 25L41 25L41 24L42 24L42 26L43 26L43 24L44 24L44 25L45 25L45 24L47 24L47 23L49 23L49 24L48 24L48 26L47 26L47 25L46 25L46 26L47 26L47 27L48 27L48 26L49 26L49 25L53 25L53 23L52 23L52 22L51 22L51 21L50 21L50 20L49 20L49 19L50 19L50 18L51 18L51 17L50 17L50 16L52 16L52 17L53 17L53 18L54 18L54 17L55 17L55 16L53 16L53 14L52 14L52 13L51 13L51 12L50 12L50 13L51 13L51 15L50 15L50 16L49 16L49 11L48 11L48 10L47 10L47 9L45 9L45 8L46 8L46 6L45 6L45 5L43 5L43 4ZM27 5L27 8L30 8L30 5ZM19 6L19 7L20 7L20 6ZM24 6L24 7L25 7L25 6ZM28 6L28 7L29 7L29 6ZM44 6L44 7L45 7L45 6ZM15 8L15 9L16 9L16 8ZM17 8L17 9L18 9L18 8ZM56 8L56 9L57 9L57 8ZM44 9L44 10L45 10L45 11L47 11L47 10L45 10L45 9ZM1 10L1 12L2 12L2 13L3 13L3 14L2 14L2 16L3 16L3 15L4 15L4 14L5 14L5 11L6 11L6 12L8 12L8 11L6 11L6 10ZM33 10L33 14L30 14L30 13L28 13L28 12L26 12L26 14L27 14L27 17L25 17L25 16L26 16L26 15L25 15L25 14L24 14L24 16L23 16L23 18L24 18L24 19L25 19L25 20L27 20L27 19L26 19L26 18L27 18L27 17L29 17L29 16L31 16L31 15L33 15L33 14L34 14L34 12L35 12L35 13L36 13L36 14L35 14L35 15L36 15L36 14L37 14L37 15L39 15L39 17L40 17L40 16L41 16L41 14L40 14L40 13L39 13L39 12L40 12L40 11L38 11L38 12L36 12L36 10L35 10L35 11L34 11L34 10ZM55 10L55 12L56 12L56 13L57 13L57 10ZM30 11L30 12L31 12L31 13L32 13L32 11ZM3 12L3 13L4 13L4 12ZM18 12L18 13L19 13L19 17L21 17L21 19L19 19L19 20L21 20L21 21L23 21L23 24L24 24L24 25L25 25L25 22L24 22L24 21L23 21L23 19L22 19L22 17L21 17L21 13L19 13L19 12ZM22 12L22 13L23 13L23 12ZM9 13L9 15L11 15L11 13ZM45 13L45 14L46 14L46 13ZM16 14L16 15L17 15L17 14ZM39 14L39 15L40 15L40 14ZM28 15L28 16L29 16L29 15ZM4 16L4 17L5 17L5 16ZM46 16L46 17L47 17L47 16ZM24 17L24 18L25 18L25 17ZM36 17L36 18L37 18L37 17ZM41 17L41 18L42 18L42 19L43 19L43 18L42 18L42 17ZM44 18L44 19L45 19L45 21L48 21L48 22L49 22L49 20L48 20L48 19L47 19L47 20L46 20L46 19L45 19L45 18ZM21 19L21 20L22 20L22 19ZM36 19L36 20L33 20L33 21L35 21L35 22L38 22L38 21L36 21L36 20L37 20L37 19ZM5 20L5 21L4 21L4 22L5 22L5 21L7 21L7 20ZM29 20L29 21L30 21L30 20ZM18 21L18 22L19 22L19 21ZM26 23L26 24L27 24L27 23ZM50 23L50 24L51 24L51 23ZM38 24L38 25L39 25L39 24ZM55 24L55 25L56 25L56 24ZM22 25L22 27L23 27L23 25ZM30 25L30 26L31 26L31 25ZM34 25L34 27L35 27L35 25ZM1 26L1 27L2 27L2 28L1 28L1 29L2 29L2 30L4 30L4 29L2 29L2 28L3 28L3 27L2 27L2 26ZM16 26L16 27L19 27L19 28L18 28L18 29L19 29L19 28L20 28L20 27L19 27L19 26ZM5 27L5 30L8 30L8 27ZM10 27L10 28L11 28L11 27ZM27 27L27 30L30 30L30 27ZM32 27L32 28L33 28L33 27ZM42 27L42 28L44 28L44 27ZM45 27L45 30L46 30L46 27ZM49 27L49 30L52 30L52 27ZM6 28L6 29L7 29L7 28ZM28 28L28 29L29 29L29 28ZM50 28L50 29L51 29L51 28ZM53 28L53 29L54 29L54 30L56 30L56 29L54 29L54 28ZM21 29L21 30L20 30L20 31L18 31L18 32L20 32L20 33L19 33L19 34L20 34L20 33L21 33L21 36L23 36L23 39L24 39L24 37L25 37L25 36L23 36L23 35L24 35L24 34L25 34L25 32L24 32L24 31L22 31L22 32L21 32L21 30L24 30L24 29ZM31 30L31 31L32 31L32 30ZM0 31L0 32L1 32L1 31ZM50 31L50 32L52 32L52 34L54 34L54 33L55 33L55 34L56 34L56 33L55 33L55 31ZM23 32L23 33L22 33L22 35L23 35L23 33L24 33L24 32ZM27 32L27 33L26 33L26 34L27 34L27 36L29 36L29 38L26 38L26 39L27 39L27 40L26 40L26 41L25 41L25 42L27 42L27 45L26 45L26 43L25 43L25 45L26 45L26 46L27 46L27 45L29 45L29 44L30 44L30 43L32 43L32 42L33 42L33 45L34 45L34 44L35 44L35 45L36 45L36 43L34 43L34 42L36 42L36 41L34 41L34 40L35 40L35 39L36 39L36 38L35 38L35 39L33 39L33 38L34 38L34 37L33 37L33 38L32 38L32 36L33 36L33 34L32 34L32 36L29 36L29 35L28 35L28 34L27 34L27 33L28 33L28 32ZM33 32L33 33L34 33L34 32ZM42 32L42 33L43 33L43 32ZM5 33L5 34L6 34L6 35L7 35L7 34L6 34L6 33ZM10 33L10 35L11 35L11 34L13 34L13 35L12 35L12 36L13 36L13 35L15 35L15 36L17 36L17 34L16 34L16 35L15 35L15 34L14 34L14 33ZM48 36L48 38L49 38L49 36ZM13 37L13 38L12 38L12 39L11 39L11 38L10 38L10 39L11 39L11 40L10 40L10 41L8 41L8 43L9 43L9 42L10 42L10 41L11 41L11 42L12 42L12 41L11 41L11 40L12 40L12 39L13 39L13 38L14 38L14 37ZM45 37L45 38L46 38L46 37ZM30 38L30 39L28 39L28 40L33 40L33 39L32 39L32 38ZM45 40L45 41L46 41L46 40ZM5 41L5 42L4 42L4 43L5 43L5 44L6 44L6 45L7 45L7 44L6 44L6 43L7 43L7 42L6 42L6 41ZM29 41L29 42L31 42L31 41ZM5 42L5 43L6 43L6 42ZM13 42L13 43L12 43L12 44L13 44L13 43L15 43L15 42ZM37 42L37 44L38 44L38 43L39 43L39 42ZM49 42L49 43L50 43L50 42ZM2 45L2 46L1 46L1 47L2 47L2 46L3 46L3 47L5 47L5 46L3 46L3 45ZM30 45L30 46L31 46L31 45ZM17 46L17 47L20 47L20 46ZM41 48L41 49L42 49L42 48ZM14 49L14 50L15 50L15 49ZM18 49L18 50L17 50L17 51L18 51L18 50L19 50L19 49ZM22 49L22 50L23 50L23 49ZM27 49L27 52L30 52L30 49ZM33 49L33 50L34 50L34 49ZM36 49L36 50L37 50L37 49ZM49 49L49 52L52 52L52 49ZM53 49L53 50L55 50L55 49ZM24 50L24 51L25 51L25 50ZM28 50L28 51L29 51L29 50ZM50 50L50 51L51 51L51 50ZM13 51L13 52L12 52L12 53L11 53L11 54L12 54L12 53L14 53L14 54L15 54L15 53L16 53L16 54L17 54L17 55L19 55L19 52L16 52L16 51L15 51L15 52L14 52L14 51ZM45 51L45 53L46 53L46 51ZM33 52L33 53L34 53L34 52ZM54 52L54 54L55 54L55 52ZM17 53L17 54L18 54L18 53ZM20 53L20 55L21 55L21 53ZM47 53L47 54L50 54L50 53ZM23 54L23 55L22 55L22 56L24 56L24 55L25 55L25 54ZM44 54L44 55L45 55L45 54ZM39 55L39 56L41 56L41 55ZM56 55L56 56L57 56L57 55ZM52 56L52 57L53 57L53 56ZM54 56L54 57L55 57L55 56ZM0 0L0 7L7 7L7 0ZM1 1L1 6L6 6L6 1ZM2 2L2 5L5 5L5 2ZM50 0L50 7L57 7L57 0ZM51 1L51 6L56 6L56 1ZM52 2L52 5L55 5L55 2ZM0 50L0 57L7 57L7 50ZM1 51L1 56L6 56L6 51ZM2 52L2 55L5 55L5 52Z" fill="#000000"/></g></g></svg>
