<?xml version="1.0" encoding="UTF-8"?>
<svg xmlns="http://www.w3.org/2000/svg" version="1.1" width="300" height="300" viewBox="0 0 300 300"><rect x="0" y="0" width="300" height="300" fill="#fefefe"/><g transform="scale(4.615)"><g transform="translate(4,4)"><path fill-rule="evenodd" d="M8 0L8 1L9 1L9 2L8 2L8 5L9 5L9 6L8 6L8 7L9 7L9 8L8 8L8 9L7 9L7 8L6 8L6 9L7 9L7 10L5 10L5 9L4 9L4 8L0 8L0 9L1 9L1 10L2 10L2 11L4 11L4 13L5 13L5 14L2 14L2 12L0 12L0 13L1 13L1 15L0 15L0 17L2 17L2 18L5 18L5 19L2 19L2 20L0 20L0 21L1 21L1 22L0 22L0 24L4 24L4 23L2 23L2 22L3 22L3 21L2 21L2 20L5 20L5 21L7 21L7 22L5 22L5 25L1 25L1 27L0 27L0 30L1 30L1 31L0 31L0 34L1 34L1 35L0 35L0 36L2 36L2 37L0 37L0 38L1 38L1 40L0 40L0 41L1 41L1 42L0 42L0 43L1 43L1 45L0 45L0 48L5 48L5 47L7 47L7 48L6 48L6 49L7 49L7 48L8 48L8 45L7 45L7 44L6 44L6 43L9 43L9 41L10 41L10 40L9 40L9 39L10 39L10 38L11 38L11 39L12 39L12 38L14 38L14 39L13 39L13 40L12 40L12 41L13 41L13 42L14 42L14 43L12 43L12 42L10 42L10 43L12 43L12 44L11 44L11 45L12 45L12 44L14 44L14 45L16 45L16 44L17 44L17 43L16 43L16 44L15 44L15 41L16 41L16 42L17 42L17 40L16 40L16 39L17 39L17 38L14 38L14 37L15 37L15 36L17 36L17 37L18 37L18 39L19 39L19 40L21 40L21 42L22 42L22 44L21 44L21 43L19 43L19 41L18 41L18 43L19 43L19 44L20 44L20 45L21 45L21 46L19 46L19 45L17 45L17 46L16 46L16 47L17 47L17 49L19 49L19 55L20 55L20 56L21 56L21 57L23 57L23 54L25 54L25 55L24 55L24 56L26 56L26 54L27 54L27 53L29 53L29 54L31 54L31 55L30 55L30 56L31 56L31 57L32 57L32 55L34 55L34 56L33 56L33 57L36 57L36 55L38 55L38 57L41 57L41 56L42 56L42 57L43 57L43 55L44 55L44 56L46 56L46 57L47 57L47 56L49 56L49 57L51 57L51 54L52 54L52 53L53 53L53 56L52 56L52 57L55 57L55 56L54 56L54 55L55 55L55 54L56 54L56 53L57 53L57 52L56 52L56 51L55 51L55 50L57 50L57 48L56 48L56 49L55 49L55 48L54 48L54 46L55 46L55 47L57 47L57 45L56 45L56 46L55 46L55 44L56 44L56 42L54 42L54 40L55 40L55 39L53 39L53 38L52 38L52 36L53 36L53 37L55 37L55 38L56 38L56 39L57 39L57 38L56 38L56 37L57 37L57 36L56 36L56 35L57 35L57 34L55 34L55 33L57 33L57 31L56 31L56 30L57 30L57 29L56 29L56 30L54 30L54 29L55 29L55 28L56 28L56 24L54 24L54 23L57 23L57 19L55 19L55 17L56 17L56 18L57 18L57 15L54 15L54 14L53 14L53 13L54 13L54 10L53 10L53 9L55 9L55 8L52 8L52 10L50 10L50 8L48 8L48 9L47 9L47 5L48 5L48 0L46 0L46 1L44 1L44 2L41 2L41 1L43 1L43 0L41 0L41 1L40 1L40 0L39 0L39 1L40 1L40 2L41 2L41 4L39 4L39 3L37 3L37 1L38 1L38 0L37 0L37 1L36 1L36 0L35 0L35 1L34 1L34 2L31 2L31 3L30 3L30 1L31 1L31 0L29 0L29 1L28 1L28 3L30 3L30 4L26 4L26 1L25 1L25 0L23 0L23 1L25 1L25 2L24 2L24 3L23 3L23 6L22 6L22 8L21 8L21 9L23 9L23 10L21 10L21 11L23 11L23 12L22 12L22 13L25 13L25 11L26 11L26 10L29 10L29 11L30 11L30 12L31 12L31 13L32 13L32 11L30 11L30 10L32 10L32 9L31 9L31 6L32 6L32 8L33 8L33 6L32 6L32 5L31 5L31 4L32 4L32 3L33 3L33 5L34 5L34 4L36 4L36 5L37 5L37 6L36 6L36 7L35 7L35 6L34 6L34 9L36 9L36 8L37 8L37 11L38 11L38 12L36 12L36 10L35 10L35 11L34 11L34 10L33 10L33 14L32 14L32 15L31 15L31 14L30 14L30 13L28 13L28 12L26 12L26 13L27 13L27 14L25 14L25 15L24 15L24 14L23 14L23 15L24 15L24 16L23 16L23 18L24 18L24 19L25 19L25 22L24 22L24 21L23 21L23 19L22 19L22 20L21 20L21 19L20 19L20 18L18 18L18 17L17 17L17 16L16 16L16 15L18 15L18 16L19 16L19 15L21 15L21 12L20 12L20 9L19 9L19 12L18 12L18 9L17 9L17 12L16 12L16 13L17 13L17 12L18 12L18 13L19 13L19 15L18 15L18 14L16 14L16 15L15 15L15 11L16 11L16 10L15 10L15 11L14 11L14 10L13 10L13 11L11 11L11 12L10 12L10 11L8 11L8 12L5 12L5 11L7 11L7 10L8 10L8 9L9 9L9 10L12 10L12 8L10 8L10 7L11 7L11 6L10 6L10 5L9 5L9 4L11 4L11 3L12 3L12 5L13 5L13 6L12 6L12 7L13 7L13 8L15 8L15 9L16 9L16 8L15 8L15 6L16 6L16 7L17 7L17 5L18 5L18 7L19 7L19 8L20 8L20 7L21 7L21 5L22 5L22 4L21 4L21 5L20 5L20 4L19 4L19 3L20 3L20 0L17 0L17 2L18 2L18 3L17 3L17 5L15 5L15 4L14 4L14 3L12 3L12 2L13 2L13 1L14 1L14 0L13 0L13 1L12 1L12 0L11 0L11 1L9 1L9 0ZM21 0L21 3L22 3L22 0ZM32 0L32 1L33 1L33 0ZM15 1L15 3L16 3L16 1ZM18 1L18 2L19 2L19 1ZM35 1L35 2L36 2L36 1ZM46 1L46 2L45 2L45 3L44 3L44 4L45 4L45 5L43 5L43 3L42 3L42 4L41 4L41 7L40 7L40 5L38 5L38 6L37 6L37 7L38 7L38 8L41 8L41 9L38 9L38 10L41 10L41 11L40 11L40 12L39 12L39 13L40 13L40 14L39 14L39 15L37 15L37 13L36 13L36 15L35 15L35 12L34 12L34 14L33 14L33 15L35 15L35 16L34 16L34 17L35 17L35 18L33 18L33 17L32 17L32 20L31 20L31 16L29 16L29 15L28 15L28 16L29 16L29 17L26 17L26 18L25 18L25 17L24 17L24 18L25 18L25 19L26 19L26 18L27 18L27 19L28 19L28 20L29 20L29 21L30 21L30 20L31 20L31 22L30 22L30 23L32 23L32 22L34 22L34 23L33 23L33 24L32 24L32 25L33 25L33 24L35 24L35 23L36 23L36 24L37 24L37 23L38 23L38 24L39 24L39 26L38 26L38 27L39 27L39 28L40 28L40 30L39 30L39 29L38 29L38 30L36 30L36 29L37 29L37 28L36 28L36 27L35 27L35 25L34 25L34 27L35 27L35 28L34 28L34 29L35 29L35 30L36 30L36 31L37 31L37 32L36 32L36 33L37 33L37 32L38 32L38 34L39 34L39 31L40 31L40 32L41 32L41 31L43 31L43 29L42 29L42 30L41 30L41 26L43 26L43 27L42 27L42 28L44 28L44 27L45 27L45 30L44 30L44 34L45 34L45 36L44 36L44 37L41 37L41 36L42 36L42 34L41 34L41 35L37 35L37 37L35 37L35 36L36 36L36 35L35 35L35 33L33 33L33 32L35 32L35 31L32 31L32 30L33 30L33 29L31 29L31 34L30 34L30 35L29 35L29 33L30 33L30 31L28 31L28 33L25 33L25 34L24 34L24 35L23 35L23 33L24 33L24 32L27 32L27 31L25 31L25 30L26 30L26 28L25 28L25 25L27 25L27 26L29 26L29 24L28 24L28 22L25 22L25 25L24 25L24 24L22 24L22 25L23 25L23 27L22 27L22 26L21 26L21 27L20 27L20 25L18 25L18 26L19 26L19 27L17 27L17 24L18 24L18 23L19 23L19 22L21 22L21 23L20 23L20 24L21 24L21 23L23 23L23 22L22 22L22 21L21 21L21 20L20 20L20 19L19 19L19 20L18 20L18 21L17 21L17 22L18 22L18 23L16 23L16 20L14 20L14 22L13 22L13 21L12 21L12 20L10 20L10 19L15 19L15 17L16 17L16 16L15 16L15 17L13 17L13 18L12 18L12 15L11 15L11 13L10 13L10 12L8 12L8 13L6 13L6 14L5 14L5 15L6 15L6 16L7 16L7 17L6 17L6 18L7 18L7 19L5 19L5 20L7 20L7 21L8 21L8 22L9 22L9 23L10 23L10 21L11 21L11 23L12 23L12 24L11 24L11 25L10 25L10 24L9 24L9 25L10 25L10 26L11 26L11 27L9 27L9 28L10 28L10 29L11 29L11 31L10 31L10 30L9 30L9 31L4 31L4 26L2 26L2 28L3 28L3 29L2 29L2 32L1 32L1 34L2 34L2 35L4 35L4 34L5 34L5 37L4 37L4 36L3 36L3 37L2 37L2 38L5 38L5 37L6 37L6 38L10 38L10 37L11 37L11 33L12 33L12 34L15 34L15 35L16 35L16 34L17 34L17 32L16 32L16 31L14 31L14 32L13 32L13 31L12 31L12 29L14 29L14 30L16 30L16 29L15 29L15 28L12 28L12 29L11 29L11 27L14 27L14 26L15 26L15 27L16 27L16 28L17 28L17 30L19 30L19 32L18 32L18 34L19 34L19 37L20 37L20 38L21 38L21 39L22 39L22 41L24 41L24 42L25 42L25 43L23 43L23 44L22 44L22 46L21 46L21 47L19 47L19 46L17 46L17 47L18 47L18 48L19 48L19 49L21 49L21 50L22 50L22 49L23 49L23 52L22 52L22 53L20 53L20 55L21 55L21 56L22 56L22 55L21 55L21 54L22 54L22 53L23 53L23 52L24 52L24 53L25 53L25 54L26 54L26 50L25 50L25 49L26 49L26 48L27 48L27 47L28 47L28 48L29 48L29 47L30 47L30 48L31 48L31 49L33 49L33 50L32 50L32 51L31 51L31 53L32 53L32 51L33 51L33 50L34 50L34 51L35 51L35 49L34 49L34 48L32 48L32 47L34 47L34 46L36 46L36 47L35 47L35 48L37 48L37 49L36 49L36 50L37 50L37 49L38 49L38 48L39 48L39 49L40 49L40 50L39 50L39 52L40 52L40 54L41 54L41 53L42 53L42 54L43 54L43 53L42 53L42 52L40 52L40 51L45 51L45 54L44 54L44 55L46 55L46 56L47 56L47 55L46 55L46 50L47 50L47 52L48 52L48 48L47 48L47 47L49 47L49 46L51 46L51 47L52 47L52 48L53 48L53 50L55 50L55 49L54 49L54 48L53 48L53 47L52 47L52 46L53 46L53 44L55 44L55 43L54 43L54 42L53 42L53 43L52 43L52 46L51 46L51 42L50 42L50 41L52 41L52 40L53 40L53 39L51 39L51 37L50 37L50 36L49 36L49 37L48 37L48 35L49 35L49 34L50 34L50 33L49 33L49 32L51 32L51 31L49 31L49 32L48 32L48 26L49 26L49 25L47 25L47 24L48 24L48 23L47 23L47 24L46 24L46 26L44 26L44 25L45 25L45 23L44 23L44 25L41 25L41 24L43 24L43 22L41 22L41 23L38 23L38 22L39 22L39 21L38 21L38 20L40 20L40 19L39 19L39 18L41 18L41 21L44 21L44 22L45 22L45 20L46 20L46 19L47 19L47 21L46 21L46 22L47 22L47 21L49 21L49 24L50 24L50 25L51 25L51 26L53 26L53 27L55 27L55 25L53 25L53 24L52 24L52 22L51 22L51 21L50 21L50 20L53 20L53 21L54 21L54 22L56 22L56 21L54 21L54 20L55 20L55 19L52 19L52 18L54 18L54 17L55 17L55 16L53 16L53 14L52 14L52 13L53 13L53 11L51 11L51 12L50 12L50 13L51 13L51 15L50 15L50 16L49 16L49 11L50 11L50 10L49 10L49 11L48 11L48 10L47 10L47 9L46 9L46 10L47 10L47 11L45 11L45 8L44 8L44 6L45 6L45 7L46 7L46 5L47 5L47 3L46 3L46 2L47 2L47 1ZM13 4L13 5L14 5L14 4ZM18 4L18 5L19 5L19 4ZM24 4L24 6L23 6L23 7L24 7L24 8L23 8L23 9L24 9L24 8L25 8L25 9L26 9L26 6L25 6L25 5L26 5L26 4ZM27 5L27 8L30 8L30 5ZM9 6L9 7L10 7L10 6ZM13 6L13 7L14 7L14 6ZM19 6L19 7L20 7L20 6ZM24 6L24 7L25 7L25 6ZM28 6L28 7L29 7L29 6ZM38 6L38 7L39 7L39 6ZM42 6L42 7L43 7L43 6ZM48 6L48 7L49 7L49 6ZM9 8L9 9L10 9L10 8ZM56 8L56 9L57 9L57 8ZM3 9L3 10L4 10L4 11L5 11L5 10L4 10L4 9ZM41 9L41 10L43 10L43 11L42 11L42 12L43 12L43 13L44 13L44 14L42 14L42 17L41 17L41 18L42 18L42 19L43 19L43 18L42 18L42 17L45 17L45 18L44 18L44 19L46 19L46 18L47 18L47 19L48 19L48 14L47 14L47 17L45 17L45 16L44 16L44 15L45 15L45 14L46 14L46 13L44 13L44 9ZM55 10L55 12L57 12L57 10ZM47 11L47 12L48 12L48 11ZM19 12L19 13L20 13L20 12ZM51 12L51 13L52 13L52 12ZM9 13L9 14L8 14L8 15L7 15L7 14L6 14L6 15L7 15L7 16L8 16L8 15L9 15L9 16L10 16L10 17L7 17L7 18L11 18L11 16L10 16L10 15L9 15L9 14L10 14L10 13ZM12 13L12 14L13 14L13 16L14 16L14 13ZM2 15L2 16L3 16L3 15ZM26 15L26 16L27 16L27 15ZM39 15L39 17L40 17L40 16L41 16L41 15ZM51 15L51 16L50 16L50 17L52 17L52 15ZM4 16L4 17L5 17L5 16ZM21 17L21 18L22 18L22 17ZM29 17L29 18L28 18L28 19L30 19L30 17ZM36 17L36 18L37 18L37 17ZM16 18L16 19L17 19L17 18ZM50 18L50 19L49 19L49 20L50 20L50 19L51 19L51 18ZM7 19L7 20L9 20L9 21L10 21L10 20L9 20L9 19ZM33 19L33 20L34 20L34 21L35 21L35 22L38 22L38 21L36 21L36 20L38 20L38 19L36 19L36 20L35 20L35 19ZM26 20L26 21L27 21L27 20ZM18 21L18 22L19 22L19 21ZM12 22L12 23L13 23L13 24L12 24L12 25L11 25L11 26L12 26L12 25L13 25L13 24L14 24L14 23L13 23L13 22ZM6 23L6 24L7 24L7 25L5 25L5 26L7 26L7 25L8 25L8 23ZM15 23L15 24L16 24L16 23ZM26 23L26 24L27 24L27 23ZM15 25L15 26L16 26L16 25ZM30 25L30 26L31 26L31 25ZM39 26L39 27L40 27L40 26ZM46 26L46 30L45 30L45 31L46 31L46 33L47 33L47 26ZM5 27L5 30L8 30L8 27ZM27 27L27 30L30 30L30 27ZM31 27L31 28L33 28L33 27ZM49 27L49 30L52 30L52 27ZM6 28L6 29L7 29L7 28ZM18 28L18 29L19 29L19 30L20 30L20 28ZM28 28L28 29L29 29L29 28ZM50 28L50 29L51 29L51 28ZM53 28L53 29L54 29L54 28ZM21 29L21 30L24 30L24 29ZM38 30L38 31L39 31L39 30ZM53 30L53 31L52 31L52 34L54 34L54 33L55 33L55 31L54 31L54 30ZM11 31L11 32L12 32L12 31ZM22 31L22 32L21 32L21 35L20 35L20 36L21 36L21 35L22 35L22 36L23 36L23 38L22 38L22 37L21 37L21 38L22 38L22 39L24 39L24 41L25 41L25 42L29 42L29 43L28 43L28 44L27 44L27 45L26 45L26 43L25 43L25 44L23 44L23 46L22 46L22 47L21 47L21 48L23 48L23 49L24 49L24 48L26 48L26 47L24 47L24 48L23 48L23 46L25 46L25 45L26 45L26 46L27 46L27 45L29 45L29 44L30 44L30 43L32 43L32 42L33 42L33 45L32 45L32 46L33 46L33 45L34 45L34 44L35 44L35 45L36 45L36 43L34 43L34 42L36 42L36 41L34 41L34 40L35 40L35 39L36 39L36 38L35 38L35 39L33 39L33 38L34 38L34 37L33 37L33 38L32 38L32 36L33 36L33 35L34 35L34 34L33 34L33 33L32 33L32 34L31 34L31 35L32 35L32 36L29 36L29 35L28 35L28 34L27 34L27 36L23 36L23 35L22 35L22 33L23 33L23 31ZM5 32L5 33L7 33L7 32ZM9 32L9 33L8 33L8 35L7 35L7 34L6 34L6 35L7 35L7 36L6 36L6 37L7 37L7 36L8 36L8 37L9 37L9 36L8 36L8 35L9 35L9 34L10 34L10 32ZM42 32L42 33L43 33L43 32ZM53 32L53 33L54 33L54 32ZM19 33L19 34L20 34L20 33ZM47 34L47 35L46 35L46 36L45 36L45 38L46 38L46 40L45 40L45 39L44 39L44 38L41 38L41 37L40 37L40 36L39 36L39 37L37 37L37 39L38 39L38 40L37 40L37 41L40 41L40 42L41 42L41 44L38 44L38 43L39 43L39 42L37 42L37 44L38 44L38 45L37 45L37 47L38 47L38 45L39 45L39 46L40 46L40 47L43 47L43 49L44 49L44 47L45 47L45 48L46 48L46 49L45 49L45 50L46 50L46 49L47 49L47 48L46 48L46 47L47 47L47 46L49 46L49 45L47 45L47 46L46 46L46 47L45 47L45 45L44 45L44 47L43 47L43 45L42 45L42 43L43 43L43 44L49 44L49 43L50 43L50 42L49 42L49 43L48 43L48 42L47 42L47 41L50 41L50 40L51 40L51 39L50 39L50 37L49 37L49 38L46 38L46 36L47 36L47 35L48 35L48 34ZM12 35L12 36L13 36L13 35ZM17 35L17 36L18 36L18 35ZM51 35L51 36L52 36L52 35ZM54 35L54 36L55 36L55 37L56 37L56 36L55 36L55 35ZM27 36L27 38L29 38L29 36ZM24 37L24 39L25 39L25 41L26 41L26 39L25 39L25 38L26 38L26 37ZM30 38L30 39L28 39L28 40L27 40L27 41L28 41L28 40L29 40L29 42L30 42L30 40L33 40L33 39L32 39L32 38ZM38 38L38 39L39 39L39 38ZM3 39L3 40L8 40L8 41L3 41L3 43L2 43L2 45L1 45L1 47L2 47L2 45L3 45L3 47L5 47L5 46L4 46L4 45L6 45L6 46L7 46L7 45L6 45L6 44L5 44L5 43L4 43L4 42L8 42L8 41L9 41L9 40L8 40L8 39ZM41 39L41 40L40 40L40 41L41 41L41 40L42 40L42 42L43 42L43 43L47 43L47 42L45 42L45 41L44 41L44 40L43 40L43 39ZM47 39L47 40L46 40L46 41L47 41L47 40L49 40L49 39ZM1 40L1 41L2 41L2 40ZM14 40L14 41L15 41L15 40ZM56 40L56 41L57 41L57 40ZM3 44L3 45L4 45L4 44ZM9 44L9 45L10 45L10 44ZM10 46L10 48L9 48L9 49L8 49L8 50L10 50L10 51L9 51L9 53L8 53L8 57L9 57L9 56L11 56L11 57L13 57L13 56L14 56L14 57L18 57L18 55L17 55L17 54L18 54L18 53L17 53L17 54L16 54L16 53L14 53L14 52L18 52L18 51L17 51L17 50L16 50L16 49L15 49L15 47L13 47L13 48L12 48L12 46ZM28 46L28 47L29 47L29 46ZM41 48L41 49L42 49L42 48ZM13 49L13 50L12 50L12 51L11 51L11 52L10 52L10 53L11 53L11 55L12 55L12 54L14 54L14 56L15 56L15 54L14 54L14 53L11 53L11 52L14 52L14 51L13 51L13 50L14 50L14 49ZM27 49L27 52L30 52L30 49ZM49 49L49 52L52 52L52 49ZM24 50L24 51L25 51L25 50ZM28 50L28 51L29 51L29 50ZM50 50L50 51L51 51L51 50ZM36 51L36 52L35 52L35 53L36 53L36 54L34 54L34 55L36 55L36 54L37 54L37 51ZM33 52L33 53L34 53L34 52ZM54 52L54 54L55 54L55 53L56 53L56 52ZM38 53L38 54L39 54L39 53ZM48 53L48 54L50 54L50 53ZM9 54L9 55L10 55L10 54ZM27 55L27 56L28 56L28 55ZM40 55L40 56L41 56L41 55ZM56 55L56 56L57 56L57 55ZM0 0L0 7L7 7L7 0ZM1 1L1 6L6 6L6 1ZM2 2L2 5L5 5L5 2ZM50 0L50 7L57 7L57 0ZM51 1L51 6L56 6L56 1ZM52 2L52 5L55 5L55 2ZM0 50L0 57L7 57L7 50ZM1 51L1 56L6 56L6 51ZM2 52L2 55L5 55L5 52Z" fill="#000000"/></g></g></svg>
