<?xml version="1.0" encoding="UTF-8"?>
<svg xmlns="http://www.w3.org/2000/svg" version="1.1" width="300" height="300" viewBox="0 0 300 300"><rect x="0" y="0" width="300" height="300" fill="#fefefe"/><g transform="scale(4.615)"><g transform="translate(4,4)"><path fill-rule="evenodd" d="M9 0L9 1L8 1L8 2L9 2L9 3L8 3L8 4L9 4L9 5L8 5L8 7L9 7L9 8L6 8L6 9L5 9L5 8L0 8L0 9L1 9L1 10L0 10L0 12L1 12L1 11L2 11L2 10L3 10L3 11L4 11L4 13L5 13L5 10L6 10L6 11L7 11L7 12L6 12L6 13L7 13L7 14L4 14L4 15L7 15L7 16L6 16L6 17L5 17L5 18L4 18L4 17L2 17L2 15L3 15L3 13L2 13L2 14L1 14L1 13L0 13L0 14L1 14L1 16L0 16L0 18L2 18L2 20L1 20L1 21L0 21L0 23L1 23L1 24L0 24L0 25L1 25L1 26L2 26L2 28L4 28L4 29L3 29L3 30L1 30L1 31L0 31L0 33L1 33L1 34L0 34L0 35L1 35L1 36L0 36L0 37L1 37L1 38L0 38L0 39L3 39L3 40L0 40L0 41L1 41L1 42L2 42L2 43L3 43L3 44L0 44L0 45L3 45L3 46L2 46L2 47L1 47L1 46L0 46L0 48L5 48L5 47L8 47L8 46L9 46L9 45L8 45L8 43L9 43L9 42L8 42L8 43L7 43L7 42L6 42L6 43L5 43L5 44L4 44L4 41L8 41L8 40L9 40L9 41L10 41L10 42L11 42L11 44L10 44L10 46L11 46L11 44L13 44L13 45L12 45L12 46L13 46L13 45L14 45L14 44L16 44L16 45L17 45L17 46L20 46L20 45L21 45L21 47L23 47L23 49L21 49L21 50L20 50L20 48L19 48L19 47L17 47L17 49L18 49L18 50L19 50L19 51L20 51L20 52L17 52L17 50L16 50L16 52L14 52L14 51L9 51L9 50L11 50L11 49L12 49L12 48L13 48L13 50L15 50L15 49L14 49L14 48L15 48L15 47L16 47L16 46L14 46L14 48L13 48L13 47L12 47L12 48L11 48L11 47L10 47L10 49L8 49L8 51L9 51L9 52L8 52L8 57L9 57L9 53L10 53L10 52L11 52L11 53L12 53L12 52L13 52L13 54L12 54L12 55L11 55L11 54L10 54L10 56L12 56L12 57L13 57L13 56L14 56L14 57L15 57L15 56L14 56L14 55L16 55L16 56L17 56L17 57L19 57L19 55L20 55L20 54L19 54L19 55L17 55L17 53L20 53L20 52L21 52L21 53L22 53L22 56L24 56L24 57L26 57L26 56L27 56L27 57L29 57L29 56L30 56L30 57L31 57L31 56L35 56L35 57L39 57L39 56L42 56L42 55L44 55L44 54L45 54L45 55L46 55L46 54L45 54L45 53L44 53L44 52L45 52L45 50L44 50L44 51L43 51L43 49L44 49L44 48L45 48L45 47L46 47L46 48L48 48L48 49L47 49L47 50L48 50L48 53L47 53L47 57L49 57L49 56L50 56L50 57L52 57L52 55L51 55L51 53L52 53L52 54L53 54L53 52L54 52L54 54L55 54L55 53L56 53L56 52L57 52L57 51L56 51L56 50L55 50L55 49L54 49L54 48L56 48L56 49L57 49L57 48L56 48L56 46L57 46L57 45L56 45L56 44L55 44L55 43L56 43L56 42L55 42L55 39L57 39L57 37L56 37L56 34L55 34L55 33L54 33L54 34L55 34L55 35L53 35L53 34L52 34L52 33L53 33L53 32L56 32L56 33L57 33L57 32L56 32L56 30L57 30L57 29L55 29L55 30L54 30L54 28L55 28L55 27L56 27L56 28L57 28L57 27L56 27L56 26L57 26L57 25L56 25L56 22L57 22L57 19L56 19L56 16L57 16L57 15L56 15L56 14L57 14L57 12L55 12L55 11L56 11L56 10L54 10L54 11L50 11L50 12L49 12L49 13L47 13L47 14L45 14L45 13L44 13L44 12L43 12L43 13L41 13L41 14L43 14L43 13L44 13L44 15L42 15L42 16L41 16L41 15L39 15L39 14L38 14L38 13L40 13L40 12L41 12L41 11L40 11L40 12L39 12L39 10L40 10L40 9L39 9L39 8L40 8L40 7L41 7L41 10L42 10L42 11L45 11L45 12L48 12L48 11L49 11L49 10L50 10L50 8L49 8L49 9L47 9L47 10L46 10L46 11L45 11L45 9L44 9L44 7L45 7L45 6L46 6L46 7L47 7L47 5L48 5L48 0L46 0L46 1L45 1L45 2L44 2L44 3L42 3L42 2L43 2L43 0L41 0L41 1L40 1L40 0L39 0L39 1L38 1L38 0L37 0L37 1L38 1L38 2L39 2L39 3L36 3L36 0L35 0L35 1L33 1L33 0L32 0L32 1L31 1L31 0L29 0L29 1L30 1L30 2L28 2L28 1L25 1L25 0L23 0L23 1L22 1L22 0L21 0L21 2L28 2L28 3L30 3L30 4L26 4L26 3L23 3L23 4L22 4L22 5L23 5L23 6L22 6L22 7L21 7L21 4L19 4L19 2L20 2L20 0L19 0L19 1L18 1L18 0L17 0L17 2L18 2L18 3L17 3L17 4L19 4L19 5L20 5L20 7L19 7L19 6L18 6L18 7L19 7L19 8L16 8L16 7L17 7L17 6L16 6L16 7L15 7L15 6L14 6L14 7L13 7L13 4L14 4L14 2L15 2L15 3L16 3L16 2L15 2L15 1L14 1L14 0L12 0L12 1L14 1L14 2L13 2L13 3L10 3L10 2L9 2L9 1L11 1L11 0ZM46 1L46 2L47 2L47 1ZM31 2L31 3L32 3L32 4L31 4L31 8L32 8L32 10L31 10L31 11L30 11L30 10L29 10L29 12L28 12L28 13L26 13L26 12L27 12L27 11L26 11L26 12L25 12L25 10L23 10L23 8L24 8L24 6L23 6L23 7L22 7L22 8L20 8L20 10L19 10L19 11L20 11L20 14L17 14L17 13L18 13L18 12L17 12L17 13L16 13L16 11L18 11L18 10L17 10L17 9L16 9L16 8L15 8L15 7L14 7L14 9L13 9L13 10L15 10L15 13L13 13L13 14L15 14L15 13L16 13L16 16L14 16L14 15L13 15L13 16L11 16L11 13L12 13L12 12L14 12L14 11L11 11L11 7L12 7L12 5L11 5L11 4L10 4L10 3L9 3L9 4L10 4L10 5L9 5L9 7L10 7L10 9L9 9L9 10L8 10L8 9L6 9L6 10L8 10L8 12L7 12L7 13L8 13L8 14L9 14L9 15L8 15L8 16L7 16L7 17L6 17L6 18L5 18L5 20L7 20L7 21L6 21L6 22L9 22L9 24L8 24L8 23L6 23L6 24L5 24L5 23L4 23L4 24L5 24L5 25L3 25L3 24L1 24L1 25L3 25L3 27L4 27L4 26L5 26L5 25L6 25L6 26L8 26L8 25L9 25L9 24L10 24L10 23L12 23L12 22L13 22L13 23L14 23L14 24L16 24L16 25L14 25L14 26L16 26L16 27L13 27L13 29L11 29L11 28L12 28L12 26L11 26L11 25L10 25L10 26L9 26L9 27L10 27L10 28L9 28L9 29L10 29L10 30L11 30L11 31L8 31L8 32L7 32L7 31L6 31L6 32L5 32L5 31L4 31L4 30L3 30L3 31L4 31L4 36L8 36L8 35L10 35L10 36L9 36L9 38L7 38L7 37L5 37L5 38L4 38L4 37L3 37L3 38L4 38L4 39L5 39L5 38L7 38L7 39L6 39L6 40L7 40L7 39L9 39L9 38L10 38L10 40L11 40L11 38L10 38L10 36L11 36L11 37L12 37L12 38L13 38L13 37L16 37L16 38L14 38L14 39L13 39L13 40L12 40L12 41L14 41L14 42L12 42L12 43L15 43L15 42L17 42L17 43L18 43L18 42L19 42L19 43L20 43L20 44L19 44L19 45L20 45L20 44L21 44L21 45L22 45L22 46L23 46L23 47L24 47L24 46L23 46L23 45L22 45L22 44L21 44L21 43L22 43L22 42L23 42L23 40L24 40L24 41L25 41L25 43L24 43L24 45L25 45L25 48L24 48L24 49L25 49L25 50L23 50L23 51L22 51L22 50L21 50L21 51L22 51L22 53L24 53L24 54L23 54L23 55L24 55L24 56L26 56L26 54L25 54L25 53L26 53L26 51L25 51L25 50L26 50L26 49L25 49L25 48L30 48L30 47L28 47L28 46L29 46L29 44L28 44L28 43L27 43L27 42L29 42L29 41L27 41L27 39L28 39L28 40L32 40L32 41L30 41L30 42L32 42L32 43L33 43L33 44L30 44L30 45L33 45L33 46L32 46L32 47L33 47L33 46L35 46L35 45L34 45L34 43L37 43L37 42L35 42L35 40L38 40L38 42L39 42L39 41L44 41L44 42L43 42L43 44L44 44L44 45L45 45L45 46L44 46L44 47L43 47L43 46L41 46L41 44L42 44L42 42L41 42L41 43L39 43L39 45L38 45L38 46L39 46L39 47L38 47L38 48L37 48L37 49L38 49L38 50L36 50L36 49L34 49L34 48L36 48L36 47L34 47L34 48L31 48L31 53L30 53L30 54L27 54L27 56L29 56L29 55L30 55L30 56L31 56L31 54L32 54L32 53L33 53L33 54L35 54L35 56L36 56L36 54L35 54L35 50L36 50L36 52L38 52L38 54L40 54L40 53L42 53L42 52L43 52L43 51L42 51L42 50L41 50L41 48L42 48L42 49L43 49L43 48L44 48L44 47L45 47L45 46L47 46L47 47L48 47L48 48L49 48L49 47L51 47L51 46L52 46L52 48L54 48L54 47L53 47L53 45L52 45L52 44L53 44L53 43L54 43L54 42L53 42L53 41L51 41L51 42L50 42L50 43L48 43L48 44L47 44L47 45L45 45L45 44L46 44L46 43L47 43L47 42L48 42L48 41L49 41L49 39L53 39L53 35L52 35L52 34L50 34L50 31L48 31L48 28L47 28L47 29L46 29L46 30L47 30L47 31L45 31L45 30L44 30L44 29L45 29L45 28L46 28L46 27L48 27L48 26L47 26L47 25L50 25L50 26L51 26L51 25L52 25L52 26L53 26L53 27L54 27L54 26L53 26L53 25L55 25L55 26L56 26L56 25L55 25L55 24L53 24L53 23L50 23L50 22L51 22L51 21L54 21L54 22L56 22L56 21L55 21L55 20L56 20L56 19L55 19L55 20L53 20L53 19L52 19L52 18L51 18L51 17L53 17L53 18L55 18L55 17L54 17L54 16L50 16L50 18L47 18L47 17L48 17L48 16L49 16L49 15L50 15L50 14L51 14L51 12L50 12L50 14L49 14L49 15L48 15L48 16L47 16L47 15L44 15L44 18L43 18L43 20L42 20L42 21L43 21L43 20L44 20L44 23L41 23L41 24L40 24L40 22L39 22L39 21L41 21L41 20L38 20L38 19L39 19L39 17L41 17L41 16L39 16L39 15L38 15L38 14L37 14L37 13L36 13L36 14L37 14L37 15L35 15L35 16L32 16L32 15L31 15L31 14L32 14L32 13L33 13L33 14L35 14L35 11L36 11L36 10L37 10L37 11L38 11L38 10L39 10L39 9L38 9L38 8L37 8L37 7L38 7L38 6L39 6L39 7L40 7L40 6L41 6L41 7L42 7L42 6L41 6L41 5L40 5L40 4L41 4L41 3L39 3L39 4L38 4L38 6L37 6L37 7L36 7L36 5L37 5L37 4L36 4L36 5L35 5L35 2L33 2L33 3L32 3L32 2ZM44 3L44 6L43 6L43 7L44 7L44 6L45 6L45 5L47 5L47 3ZM15 4L15 5L16 5L16 4ZM23 4L23 5L24 5L24 4ZM25 4L25 8L26 8L26 4ZM32 4L32 5L34 5L34 7L33 7L33 6L32 6L32 7L33 7L33 9L34 9L34 8L35 8L35 9L37 9L37 10L38 10L38 9L37 9L37 8L35 8L35 5L34 5L34 4ZM27 5L27 8L30 8L30 5ZM39 5L39 6L40 6L40 5ZM10 6L10 7L11 7L11 6ZM28 6L28 7L29 7L29 6ZM48 6L48 7L49 7L49 6ZM42 8L42 9L43 9L43 10L44 10L44 9L43 9L43 8ZM51 8L51 9L52 9L52 10L53 10L53 9L54 9L54 8L53 8L53 9L52 9L52 8ZM55 8L55 9L56 9L56 8ZM4 9L4 10L5 10L5 9ZM15 9L15 10L16 10L16 9ZM21 9L21 10L22 10L22 11L21 11L21 12L22 12L22 13L21 13L21 15L19 15L19 16L16 16L16 17L18 17L18 18L20 18L20 19L21 19L21 20L22 20L22 19L21 19L21 18L20 18L20 16L21 16L21 17L22 17L22 18L24 18L24 19L23 19L23 20L24 20L24 21L21 21L21 22L22 22L22 23L23 23L23 24L24 24L24 25L22 25L22 24L19 24L19 23L20 23L20 22L18 22L18 21L20 21L20 20L18 20L18 19L16 19L16 18L15 18L15 21L16 21L16 22L14 22L14 21L13 21L13 22L14 22L14 23L16 23L16 24L17 24L17 25L18 25L18 26L17 26L17 27L18 27L18 26L19 26L19 28L20 28L20 29L18 29L18 28L16 28L16 29L15 29L15 30L13 30L13 31L12 31L12 32L14 32L14 33L12 33L12 34L11 34L11 35L13 35L13 36L12 36L12 37L13 37L13 36L14 36L14 35L13 35L13 34L15 34L15 33L17 33L17 34L18 34L18 33L21 33L21 34L20 34L20 36L22 36L22 35L23 35L23 34L24 34L24 36L23 36L23 37L24 37L24 38L23 38L23 39L22 39L22 37L19 37L19 35L18 35L18 36L17 36L17 38L18 38L18 37L19 37L19 38L20 38L20 39L17 39L17 42L18 42L18 41L19 41L19 42L20 42L20 41L19 41L19 40L21 40L21 39L22 39L22 40L23 40L23 39L24 39L24 40L25 40L25 39L27 39L27 38L28 38L28 37L27 37L27 36L26 36L26 35L27 35L27 34L26 34L26 35L25 35L25 33L27 33L27 31L31 31L31 33L29 33L29 32L28 32L28 33L29 33L29 34L30 34L30 36L29 36L29 37L31 37L31 38L29 38L29 39L33 39L33 40L35 40L35 39L38 39L38 40L41 40L41 39L42 39L42 38L43 38L43 37L44 37L44 38L45 38L45 39L43 39L43 40L47 40L47 39L48 39L48 38L50 38L50 37L52 37L52 35L50 35L50 34L49 34L49 35L46 35L46 34L45 34L45 33L43 33L43 32L45 32L45 31L44 31L44 30L43 30L43 29L44 29L44 28L45 28L45 27L44 27L44 28L43 28L43 29L40 29L40 30L43 30L43 32L41 32L41 33L39 33L39 34L40 34L40 35L38 35L38 33L37 33L37 32L35 32L35 34L34 34L34 33L33 33L33 34L34 34L34 35L32 35L32 34L31 34L31 33L32 33L32 31L31 31L31 29L32 29L32 30L33 30L33 32L34 32L34 31L35 31L35 30L33 30L33 29L32 29L32 28L31 28L31 26L32 26L32 27L33 27L33 28L35 28L35 29L38 29L38 28L40 28L40 27L36 27L36 26L34 26L34 27L33 27L33 26L32 26L32 24L33 24L33 25L37 25L37 26L38 26L38 24L39 24L39 25L40 25L40 26L41 26L41 28L42 28L42 26L43 26L43 25L44 25L44 24L41 24L41 25L40 25L40 24L39 24L39 22L38 22L38 20L36 20L36 19L35 19L35 23L32 23L32 24L31 24L31 23L30 23L30 22L31 22L31 21L32 21L32 20L33 20L33 21L34 21L34 19L32 19L32 18L31 18L31 17L32 17L32 16L31 16L31 15L30 15L30 14L31 14L31 13L32 13L32 11L33 11L33 10L32 10L32 11L31 11L31 13L30 13L30 14L29 14L29 13L28 13L28 14L29 14L29 16L28 16L28 15L27 15L27 14L25 14L25 13L23 13L23 12L24 12L24 11L23 11L23 10L22 10L22 9ZM47 10L47 11L48 11L48 10ZM9 11L9 12L8 12L8 13L9 13L9 14L10 14L10 13L11 13L11 12L10 12L10 11ZM9 12L9 13L10 13L10 12ZM33 12L33 13L34 13L34 12ZM52 12L52 13L53 13L53 15L55 15L55 14L56 14L56 13L55 13L55 12L54 12L54 13L53 13L53 12ZM22 13L22 14L23 14L23 15L21 15L21 16L22 16L22 17L25 17L25 19L26 19L26 20L25 20L25 21L24 21L24 22L23 22L23 23L24 23L24 24L25 24L25 25L26 25L26 26L25 26L25 27L24 27L24 26L22 26L22 25L19 25L19 26L20 26L20 28L22 28L22 29L20 29L20 30L19 30L19 31L23 31L23 32L21 32L21 33L22 33L22 34L21 34L21 35L22 35L22 34L23 34L23 33L25 33L25 32L24 32L24 31L25 31L25 30L23 30L23 28L25 28L25 29L26 29L26 28L25 28L25 27L26 27L26 26L29 26L29 25L31 25L31 24L30 24L30 23L28 23L28 22L29 22L29 20L30 20L30 19L31 19L31 18L30 18L30 19L28 19L28 18L27 18L27 17L28 17L28 16L27 16L27 15L26 15L26 16L23 16L23 15L25 15L25 14L23 14L23 13ZM8 16L8 17L7 17L7 18L6 18L6 19L7 19L7 20L8 20L8 21L11 21L11 22L12 22L12 19L13 19L13 20L14 20L14 19L13 19L13 18L14 18L14 16L13 16L13 18L10 18L10 20L9 20L9 17L10 17L10 16ZM35 16L35 17L37 17L37 18L38 18L38 17L39 17L39 16L38 16L38 17L37 17L37 16ZM42 16L42 17L43 17L43 16ZM45 16L45 17L46 17L46 16ZM3 18L3 20L4 20L4 18ZM41 18L41 19L42 19L42 18ZM44 18L44 20L46 20L46 21L47 21L47 22L46 22L46 23L45 23L45 25L47 25L47 22L49 22L49 21L51 21L51 20L52 20L52 19L48 19L48 20L49 20L49 21L47 21L47 19L45 19L45 18ZM16 20L16 21L18 21L18 20ZM1 21L1 22L2 22L2 23L3 23L3 22L2 22L2 21ZM4 21L4 22L5 22L5 21ZM25 21L25 22L26 22L26 23L25 23L25 24L28 24L28 23L27 23L27 21ZM37 22L37 24L38 24L38 22ZM17 23L17 24L18 24L18 23ZM49 23L49 24L50 24L50 23ZM6 24L6 25L7 25L7 24ZM12 24L12 25L13 25L13 24ZM21 26L21 27L22 27L22 26ZM5 27L5 30L8 30L8 27ZM27 27L27 30L30 30L30 27ZM35 27L35 28L36 28L36 27ZM49 27L49 30L52 30L52 27ZM6 28L6 29L7 29L7 28ZM28 28L28 29L29 29L29 28ZM50 28L50 29L51 29L51 28ZM16 29L16 30L17 30L17 31L18 31L18 29ZM38 30L38 32L39 32L39 30ZM1 31L1 33L2 33L2 34L1 34L1 35L2 35L2 36L1 36L1 37L2 37L2 36L3 36L3 35L2 35L2 34L3 34L3 33L2 33L2 31ZM47 31L47 32L46 32L46 33L47 33L47 32L48 32L48 33L49 33L49 32L48 32L48 31ZM6 32L6 33L7 33L7 34L5 34L5 35L8 35L8 33L7 33L7 32ZM51 32L51 33L52 33L52 32ZM9 33L9 34L10 34L10 33ZM35 34L35 36L32 36L32 37L33 37L33 39L35 39L35 36L37 36L37 37L38 37L38 39L41 39L41 38L40 38L40 37L41 37L41 36L44 36L44 37L45 37L45 38L46 38L46 39L47 39L47 38L48 38L48 37L49 37L49 36L50 36L50 35L49 35L49 36L47 36L47 37L45 37L45 36L44 36L44 35L45 35L45 34L42 34L42 35L41 35L41 36L40 36L40 37L38 37L38 35L37 35L37 34ZM25 37L25 38L27 38L27 37ZM54 37L54 38L55 38L55 37ZM14 39L14 40L15 40L15 41L16 41L16 39ZM21 41L21 42L22 42L22 41ZM26 41L26 42L27 42L27 41ZM32 41L32 42L33 42L33 43L34 43L34 42L33 42L33 41ZM51 42L51 43L50 43L50 45L49 45L49 44L48 44L48 45L49 45L49 46L48 46L48 47L49 47L49 46L51 46L51 43L53 43L53 42ZM6 43L6 44L7 44L7 43ZM25 43L25 44L27 44L27 45L26 45L26 47L27 47L27 45L28 45L28 44L27 44L27 43ZM17 44L17 45L18 45L18 44ZM54 44L54 46L56 46L56 45L55 45L55 44ZM6 45L6 46L7 46L7 45ZM36 45L36 46L37 46L37 45ZM3 46L3 47L5 47L5 46ZM40 46L40 47L39 47L39 48L38 48L38 49L39 49L39 48L41 48L41 46ZM42 47L42 48L43 48L43 47ZM6 48L6 49L7 49L7 48ZM27 49L27 52L30 52L30 49ZM32 49L32 50L33 50L33 49ZM49 49L49 52L52 52L52 49ZM28 50L28 51L29 51L29 50ZM38 50L38 52L39 52L39 51L40 51L40 52L41 52L41 50ZM50 50L50 51L51 51L51 50ZM54 50L54 51L55 51L55 50ZM32 51L32 52L33 52L33 53L34 53L34 52L33 52L33 51ZM46 51L46 52L47 52L47 51ZM16 52L16 53L15 53L15 54L16 54L16 53L17 53L17 52ZM24 52L24 53L25 53L25 52ZM43 53L43 54L44 54L44 53ZM13 54L13 55L14 55L14 54ZM41 54L41 55L42 55L42 54ZM37 55L37 56L39 56L39 55ZM50 55L50 56L51 56L51 55ZM53 55L53 56L55 56L55 57L56 57L56 56L55 56L55 55ZM43 56L43 57L44 57L44 56ZM45 56L45 57L46 57L46 56ZM0 0L0 7L7 7L7 0ZM1 1L1 6L6 6L6 1ZM2 2L2 5L5 5L5 2ZM50 0L50 7L57 7L57 0ZM51 1L51 6L56 6L56 1ZM52 2L52 5L55 5L55 2ZM0 50L0 57L7 57L7 50ZM1 51L1 56L6 56L6 51ZM2 52L2 55L5 55L5 52Z" fill="#000000"/></g></g></svg>
