<?xml version="1.0" encoding="UTF-8"?>
<svg xmlns="http://www.w3.org/2000/svg" version="1.1" width="300" height="300" viewBox="0 0 300 300"><rect x="0" y="0" width="300" height="300" fill="#fefefe"/><g transform="scale(4.615)"><g transform="translate(4,4)"><path fill-rule="evenodd" d="M8 0L8 2L9 2L9 4L8 4L8 11L7 11L7 10L5 10L5 9L7 9L7 8L5 8L5 9L3 9L3 8L0 8L0 11L1 11L1 13L2 13L2 14L0 14L0 15L1 15L1 16L2 16L2 18L3 18L3 20L2 20L2 21L1 21L1 18L0 18L0 21L1 21L1 22L2 22L2 21L3 21L3 25L2 25L2 23L1 23L1 25L0 25L0 26L3 26L3 27L2 27L2 28L1 28L1 27L0 27L0 29L2 29L2 30L1 30L1 31L2 31L2 33L1 33L1 32L0 32L0 34L1 34L1 36L2 36L2 37L1 37L1 39L0 39L0 40L1 40L1 41L5 41L5 42L0 42L0 48L5 48L5 47L7 47L7 48L6 48L6 49L7 49L7 48L9 48L9 49L8 49L8 50L9 50L9 49L10 49L10 50L11 50L11 49L12 49L12 46L13 46L13 48L14 48L14 49L13 49L13 50L14 50L14 52L13 52L13 51L12 51L12 53L10 53L10 52L9 52L9 51L8 51L8 52L9 52L9 53L10 53L10 54L12 54L12 55L9 55L9 54L8 54L8 57L11 57L11 56L12 56L12 57L13 57L13 56L14 56L14 55L15 55L15 56L16 56L16 57L17 57L17 56L18 56L18 57L21 57L21 56L18 56L18 53L19 53L19 52L20 52L20 53L21 53L21 54L20 54L20 55L21 55L21 54L23 54L23 55L22 55L22 57L23 57L23 56L24 56L24 57L25 57L25 56L26 56L26 57L28 57L28 55L29 55L29 57L33 57L33 55L30 55L30 54L31 54L31 53L32 53L32 54L34 54L34 57L35 57L35 55L38 55L38 52L40 52L40 53L39 53L39 55L40 55L40 57L41 57L41 56L42 56L42 57L43 57L43 54L42 54L42 52L44 52L44 55L46 55L46 56L44 56L44 57L46 57L46 56L48 56L48 57L50 57L50 55L49 55L49 54L52 54L52 55L53 55L53 56L51 56L51 57L54 57L54 54L53 54L53 53L55 53L55 52L57 52L57 50L56 50L56 47L57 47L57 45L56 45L56 47L55 47L55 50L56 50L56 51L55 51L55 52L54 52L54 51L53 51L53 50L54 50L54 49L53 49L53 48L51 48L51 47L53 47L53 46L54 46L54 45L53 45L53 46L52 46L52 45L51 45L51 44L52 44L52 40L53 40L53 44L54 44L54 43L55 43L55 44L56 44L56 43L57 43L57 42L56 42L56 43L55 43L55 42L54 42L54 41L57 41L57 40L54 40L54 39L55 39L55 38L57 38L57 33L56 33L56 31L57 31L57 29L56 29L56 27L57 27L57 24L56 24L56 23L57 23L57 20L55 20L55 21L54 21L54 19L55 19L55 17L54 17L54 14L55 14L55 13L56 13L56 15L55 15L55 16L56 16L56 17L57 17L57 10L56 10L56 9L57 9L57 8L55 8L55 9L54 9L54 10L53 10L53 8L49 8L49 10L50 10L50 13L49 13L49 14L48 14L48 12L47 12L47 11L46 11L46 13L45 13L45 12L44 12L44 11L43 11L43 10L42 10L42 8L43 8L43 6L44 6L44 10L46 10L46 9L47 9L47 8L48 8L48 7L49 7L49 6L48 6L48 7L47 7L47 5L48 5L48 0L42 0L42 1L41 1L41 0L38 0L38 2L37 2L37 1L35 1L35 0L34 0L34 2L37 2L37 3L38 3L38 5L39 5L39 4L40 4L40 2L41 2L41 4L42 4L42 5L41 5L41 6L40 6L40 7L39 7L39 6L38 6L38 9L37 9L37 6L36 6L36 10L34 10L34 9L35 9L35 4L36 4L36 3L35 3L35 4L34 4L34 3L33 3L33 6L32 6L32 7L33 7L33 6L34 6L34 8L32 8L32 9L31 9L31 5L32 5L32 1L33 1L33 0L30 0L30 1L31 1L31 3L30 3L30 2L28 2L28 1L29 1L29 0L26 0L26 2L25 2L25 4L24 4L24 1L25 1L25 0L24 0L24 1L23 1L23 0L20 0L20 1L19 1L19 2L20 2L20 1L23 1L23 2L22 2L22 3L21 3L21 5L20 5L20 7L19 7L19 4L18 4L18 3L17 3L17 2L18 2L18 0L16 0L16 1L17 1L17 2L15 2L15 0L11 0L11 1L12 1L12 3L11 3L11 2L10 2L10 1L9 1L9 0ZM13 1L13 3L12 3L12 4L11 4L11 3L10 3L10 5L9 5L9 7L10 7L10 8L11 8L11 7L12 7L12 6L13 6L13 11L12 11L12 10L11 10L11 11L12 11L12 12L11 12L11 13L10 13L10 10L9 10L9 11L8 11L8 12L7 12L7 11L6 11L6 12L7 12L7 13L6 13L6 14L4 14L4 11L5 11L5 10L4 10L4 11L3 11L3 9L1 9L1 11L2 11L2 12L3 12L3 14L2 14L2 16L3 16L3 17L5 17L5 15L6 15L6 16L7 16L7 15L8 15L8 16L9 16L9 17L10 17L10 20L9 20L9 22L8 22L8 20L7 20L7 19L8 19L8 18L7 18L7 17L6 17L6 18L7 18L7 19L6 19L6 20L7 20L7 21L6 21L6 22L7 22L7 23L6 23L6 24L5 24L5 18L4 18L4 20L3 20L3 21L4 21L4 25L3 25L3 26L9 26L9 25L8 25L8 24L10 24L10 25L11 25L11 22L12 22L12 20L11 20L11 19L13 19L13 18L14 18L14 16L15 16L15 17L16 17L16 19L14 19L14 20L16 20L16 19L17 19L17 21L18 21L18 23L17 23L17 22L16 22L16 23L17 23L17 25L16 25L16 26L14 26L14 24L13 24L13 26L12 26L12 28L11 28L11 29L10 29L10 30L11 30L11 29L12 29L12 30L13 30L13 29L12 29L12 28L13 28L13 27L14 27L14 28L15 28L15 30L16 30L16 31L13 31L13 33L12 33L12 36L9 36L9 35L10 35L10 34L7 34L7 33L8 33L8 32L9 32L9 31L8 31L8 32L7 32L7 31L6 31L6 32L4 32L4 30L2 30L2 31L3 31L3 33L2 33L2 34L3 34L3 35L4 35L4 36L3 36L3 37L2 37L2 39L1 39L1 40L3 40L3 39L4 39L4 40L5 40L5 41L6 41L6 42L5 42L5 44L4 44L4 45L3 45L3 43L1 43L1 45L3 45L3 47L5 47L5 46L7 46L7 47L8 47L8 46L9 46L9 47L11 47L11 44L10 44L10 43L11 43L11 42L13 42L13 43L12 43L12 44L13 44L13 46L14 46L14 48L16 48L16 50L15 50L15 49L14 49L14 50L15 50L15 52L17 52L17 53L18 53L18 51L20 51L20 50L21 50L21 51L22 51L22 52L24 52L24 51L25 51L25 54L24 54L24 55L26 55L26 51L25 51L25 50L26 50L26 48L31 48L31 50L32 50L32 48L33 48L33 47L32 47L32 46L33 46L33 45L34 45L34 50L33 50L33 51L34 51L34 52L33 52L33 53L34 53L34 54L35 54L35 53L36 53L36 54L37 54L37 53L36 53L36 52L35 52L35 51L37 51L37 52L38 52L38 51L39 51L39 49L40 49L40 51L41 51L41 52L42 52L42 51L41 51L41 49L42 49L42 50L43 50L43 51L45 51L45 49L44 49L44 48L45 48L45 47L44 47L44 46L43 46L43 45L44 45L44 44L45 44L45 43L44 43L44 44L43 44L43 43L41 43L41 42L40 42L40 40L42 40L42 42L44 42L44 39L43 39L43 38L44 38L44 34L45 34L45 35L46 35L46 36L45 36L45 37L46 37L46 38L47 38L47 40L48 40L48 41L46 41L46 39L45 39L45 41L46 41L46 43L47 43L47 44L46 44L46 48L47 48L47 47L48 47L48 46L47 46L47 44L48 44L48 43L49 43L49 48L50 48L50 46L51 46L51 45L50 45L50 42L49 42L49 41L51 41L51 40L48 40L48 39L50 39L50 38L48 38L48 37L49 37L49 36L50 36L50 37L51 37L51 36L53 36L53 37L52 37L52 38L51 38L51 39L52 39L52 38L53 38L53 37L54 37L54 38L55 38L55 37L56 37L56 36L55 36L55 35L56 35L56 34L55 34L55 33L54 33L54 32L55 32L55 31L56 31L56 30L55 30L55 27L54 27L54 28L53 28L53 29L54 29L54 30L53 30L53 31L54 31L54 32L52 32L52 31L51 31L51 32L50 32L50 33L49 33L49 36L48 36L48 35L46 35L46 34L48 34L48 33L47 33L47 30L48 30L48 28L46 28L46 29L44 29L44 28L42 28L42 31L41 31L41 30L40 30L40 28L41 28L41 27L40 27L40 26L41 26L41 25L40 25L40 26L39 26L39 25L38 25L38 23L36 23L36 22L37 22L37 21L38 21L38 22L39 22L39 23L41 23L41 24L42 24L42 27L43 27L43 25L44 25L44 27L46 27L46 26L47 26L47 27L48 27L48 26L49 26L49 25L50 25L50 26L52 26L52 24L53 24L53 25L54 25L54 26L55 26L55 25L56 25L56 24L55 24L55 23L56 23L56 21L55 21L55 22L54 22L54 21L53 21L53 22L52 22L52 20L53 20L53 19L54 19L54 17L53 17L53 18L52 18L52 16L53 16L53 14L54 14L54 13L55 13L55 12L56 12L56 10L55 10L55 11L54 11L54 12L53 12L53 14L52 14L52 13L50 13L50 16L51 16L51 17L50 17L50 19L51 19L51 20L49 20L49 19L48 19L48 20L47 20L47 19L46 19L46 18L47 18L47 17L46 17L46 15L48 15L48 14L47 14L47 13L46 13L46 15L45 15L45 14L44 14L44 12L42 12L42 10L41 10L41 9L40 9L40 8L42 8L42 6L43 6L43 5L44 5L44 6L45 6L45 7L46 7L46 6L45 6L45 5L44 5L44 4L45 4L45 2L47 2L47 1L42 1L42 4L43 4L43 5L42 5L42 6L41 6L41 7L40 7L40 8L39 8L39 9L38 9L38 11L39 11L39 10L41 10L41 12L42 12L42 15L41 15L41 17L42 17L42 18L43 18L43 17L44 17L44 19L42 19L42 20L43 20L43 21L42 21L42 23L41 23L41 22L40 22L40 19L41 19L41 18L40 18L40 15L39 15L39 12L37 12L37 11L34 11L34 10L33 10L33 9L32 9L32 11L31 11L31 12L30 12L30 10L31 10L31 9L30 9L30 10L29 10L29 12L30 12L30 13L29 13L29 15L28 15L28 14L27 14L27 12L28 12L28 11L27 11L27 10L28 10L28 9L27 9L27 10L25 10L25 9L26 9L26 5L24 5L24 6L23 6L23 5L22 5L22 6L21 6L21 7L22 7L22 6L23 6L23 9L22 9L22 8L21 8L21 9L20 9L20 10L19 10L19 11L18 11L18 12L19 12L19 13L18 13L18 15L15 15L15 14L17 14L17 11L16 11L16 10L17 10L17 9L18 9L18 6L17 6L17 5L16 5L16 6L15 6L15 5L12 5L12 4L13 4L13 3L14 3L14 4L15 4L15 3L14 3L14 1ZM39 1L39 2L40 2L40 1ZM27 2L27 3L26 3L26 4L27 4L27 3L28 3L28 4L30 4L30 3L28 3L28 2ZM43 2L43 4L44 4L44 2ZM16 3L16 4L17 4L17 3ZM22 3L22 4L23 4L23 3ZM46 3L46 5L47 5L47 3ZM10 5L10 7L11 7L11 5ZM27 5L27 8L30 8L30 5ZM14 6L14 7L15 7L15 6ZM16 6L16 7L17 7L17 6ZM24 6L24 7L25 7L25 6ZM28 6L28 7L29 7L29 6ZM14 8L14 9L15 9L15 8ZM24 8L24 9L23 9L23 11L22 11L22 12L25 12L25 14L26 14L26 15L25 15L25 18L24 18L24 14L23 14L23 16L22 16L22 14L21 14L21 16L20 16L20 15L18 15L18 17L19 17L19 18L18 18L18 19L19 19L19 20L18 20L18 21L19 21L19 20L20 20L20 21L21 21L21 22L20 22L20 23L21 23L21 24L22 24L22 25L21 25L21 26L20 26L20 27L18 27L18 28L19 28L19 30L17 30L17 31L16 31L16 32L14 32L14 33L15 33L15 34L16 34L16 35L15 35L15 36L16 36L16 37L17 37L17 38L16 38L16 39L18 39L18 42L17 42L17 43L16 43L16 40L15 40L15 39L14 39L14 38L15 38L15 37L13 37L13 36L14 36L14 35L13 35L13 36L12 36L12 37L13 37L13 39L12 39L12 38L11 38L11 39L8 39L8 38L9 38L9 37L8 37L8 38L5 38L5 39L7 39L7 40L6 40L6 41L7 41L7 42L6 42L6 43L7 43L7 44L6 44L6 45L7 45L7 44L8 44L8 43L10 43L10 42L8 42L8 41L11 41L11 40L13 40L13 41L15 41L15 42L14 42L14 43L13 43L13 44L14 44L14 43L16 43L16 44L17 44L17 46L18 46L18 45L19 45L19 46L20 46L20 43L21 43L21 42L20 42L20 41L21 41L21 40L22 40L22 41L23 41L23 42L24 42L24 43L22 43L22 44L24 44L24 45L23 45L23 48L22 48L22 46L21 46L21 48L20 48L20 49L19 49L19 47L16 47L16 45L15 45L15 47L16 47L16 48L18 48L18 50L17 50L17 51L18 51L18 50L20 50L20 49L21 49L21 48L22 48L22 51L24 51L24 49L23 49L23 48L24 48L24 47L26 47L26 46L28 46L28 45L30 45L30 43L31 43L31 46L30 46L30 47L31 47L31 46L32 46L32 45L33 45L33 44L35 44L35 43L36 43L36 41L37 41L37 42L38 42L38 41L39 41L39 38L40 38L40 39L42 39L42 40L43 40L43 39L42 39L42 37L43 37L43 35L40 35L40 36L38 36L38 35L39 35L39 34L38 34L38 33L39 33L39 32L40 32L40 34L42 34L42 33L43 33L43 34L44 34L44 33L45 33L45 34L46 34L46 33L45 33L45 32L46 32L46 30L44 30L44 29L43 29L43 31L42 31L42 33L41 33L41 32L40 32L40 30L39 30L39 31L38 31L38 30L37 30L37 28L38 28L38 29L39 29L39 28L40 28L40 27L39 27L39 26L38 26L38 25L37 25L37 24L36 24L36 23L35 23L35 22L36 22L36 21L37 21L37 20L38 20L38 21L39 21L39 19L40 19L40 18L38 18L38 16L37 16L37 15L38 15L38 13L37 13L37 12L36 12L36 13L35 13L35 12L34 12L34 11L32 11L32 14L33 14L33 15L34 15L34 17L33 17L33 16L32 16L32 17L33 17L33 18L32 18L32 19L28 19L28 21L29 21L29 22L28 22L28 23L26 23L26 22L27 22L27 20L26 20L26 19L27 19L27 17L26 17L26 15L27 15L27 14L26 14L26 11L24 11L24 9L25 9L25 8ZM45 8L45 9L46 9L46 8ZM21 9L21 10L22 10L22 9ZM50 9L50 10L51 10L51 12L52 12L52 11L53 11L53 10L52 10L52 9ZM14 11L14 12L16 12L16 11ZM8 12L8 13L7 13L7 14L6 14L6 15L7 15L7 14L8 14L8 15L11 15L11 17L12 17L12 18L13 18L13 16L14 16L14 15L13 15L13 14L12 14L12 15L11 15L11 14L9 14L9 12ZM12 12L12 13L13 13L13 12ZM20 12L20 13L19 13L19 14L20 14L20 13L21 13L21 12ZM34 13L34 15L35 15L35 17L34 17L34 18L33 18L33 21L32 21L32 20L30 20L30 22L29 22L29 23L28 23L28 24L27 24L27 25L26 25L26 26L28 26L28 24L30 24L30 26L31 26L31 25L32 25L32 27L31 27L31 30L32 30L32 28L33 28L33 29L34 29L34 31L33 31L33 33L34 33L34 34L31 34L31 33L32 33L32 31L31 31L31 32L30 32L30 31L28 31L28 32L26 32L26 30L25 30L25 29L24 29L24 28L25 28L25 25L24 25L24 26L23 26L23 27L22 27L22 28L23 28L23 29L22 29L22 30L21 30L21 29L20 29L20 30L21 30L21 33L20 33L20 31L19 31L19 33L20 33L20 35L19 35L19 34L18 34L18 31L17 31L17 33L16 33L16 34L18 34L18 35L17 35L17 37L18 37L18 39L19 39L19 37L18 37L18 35L19 35L19 36L20 36L20 35L22 35L22 36L21 36L21 37L22 37L22 40L23 40L23 41L24 41L24 42L26 42L26 41L25 41L25 40L27 40L27 41L28 41L28 42L27 42L27 43L30 43L30 42L31 42L31 43L32 43L32 40L33 40L33 41L34 41L34 42L35 42L35 41L36 41L36 38L37 38L37 41L38 41L38 38L39 38L39 37L38 37L38 38L37 38L37 37L36 37L36 35L38 35L38 34L37 34L37 33L36 33L36 31L37 31L37 32L38 32L38 31L37 31L37 30L35 30L35 29L36 29L36 28L37 28L37 26L36 26L36 24L34 24L34 23L33 23L33 24L34 24L34 26L33 26L33 25L32 25L32 23L31 23L31 22L33 22L33 21L34 21L34 22L35 22L35 21L36 21L36 20L35 20L35 19L34 19L34 18L36 18L36 19L37 19L37 18L36 18L36 14L35 14L35 13ZM40 13L40 14L41 14L41 13ZM3 14L3 15L4 15L4 14ZM43 14L43 16L44 16L44 17L45 17L45 18L46 18L46 17L45 17L45 16L44 16L44 14ZM51 14L51 16L52 16L52 14ZM12 15L12 16L13 16L13 15ZM29 15L29 16L30 16L30 17L28 17L28 18L30 18L30 17L31 17L31 16L30 16L30 15ZM20 17L20 18L19 18L19 19L20 19L20 20L21 20L21 19L20 19L20 18L21 18L21 17ZM48 17L48 18L49 18L49 17ZM22 18L22 20L23 20L23 18ZM56 18L56 19L57 19L57 18ZM24 19L24 20L25 20L25 19ZM44 19L44 21L43 21L43 22L44 22L44 23L45 23L45 22L44 22L44 21L45 21L45 19ZM10 20L10 21L11 21L11 20ZM34 20L34 21L35 21L35 20ZM46 20L46 21L47 21L47 22L48 22L48 24L47 24L47 23L46 23L46 24L44 24L44 25L45 25L45 26L46 26L46 24L47 24L47 26L48 26L48 25L49 25L49 24L50 24L50 22L48 22L48 21L49 21L49 20L48 20L48 21L47 21L47 20ZM14 21L14 22L15 22L15 21ZM9 22L9 23L10 23L10 22ZM22 22L22 24L23 24L23 22ZM24 22L24 23L25 23L25 22ZM51 22L51 23L52 23L52 22ZM53 22L53 24L54 24L54 25L55 25L55 24L54 24L54 22ZM18 23L18 25L19 25L19 23ZM42 23L42 24L43 24L43 23ZM6 24L6 25L7 25L7 24ZM10 26L10 27L11 27L11 26ZM16 26L16 27L15 27L15 28L17 28L17 26ZM3 27L3 28L2 28L2 29L3 29L3 28L4 28L4 27ZM5 27L5 30L8 30L8 27ZM20 27L20 28L21 28L21 27ZM23 27L23 28L24 28L24 27ZM27 27L27 30L30 30L30 27ZM34 27L34 29L35 29L35 28L36 28L36 27ZM49 27L49 30L52 30L52 27ZM6 28L6 29L7 29L7 28ZM28 28L28 29L29 29L29 28ZM50 28L50 29L51 29L51 28ZM23 29L23 30L22 30L22 33L23 33L23 34L22 34L22 35L25 35L25 36L24 36L24 37L25 37L25 36L26 36L26 34L28 34L28 35L27 35L27 36L28 36L28 37L29 37L29 36L28 36L28 35L31 35L31 36L30 36L30 40L28 40L28 41L30 41L30 40L31 40L31 38L33 38L33 39L34 39L34 41L35 41L35 38L36 38L36 37L35 37L35 38L34 38L34 36L35 36L35 35L36 35L36 33L35 33L35 31L34 31L34 33L35 33L35 34L34 34L34 35L31 35L31 34L30 34L30 32L29 32L29 34L28 34L28 33L26 33L26 32L25 32L25 33L26 33L26 34L24 34L24 32L23 32L23 30L24 30L24 31L25 31L25 30L24 30L24 29ZM54 30L54 31L55 31L55 30ZM11 31L11 32L10 32L10 33L11 33L11 32L12 32L12 31ZM6 32L6 33L3 33L3 34L5 34L5 35L7 35L7 36L5 36L5 37L7 37L7 36L8 36L8 35L7 35L7 34L6 34L6 33L7 33L7 32ZM50 33L50 36L51 36L51 33ZM53 34L53 36L54 36L54 37L55 37L55 36L54 36L54 34ZM22 36L22 37L23 37L23 36ZM31 36L31 37L32 37L32 36ZM46 36L46 37L48 37L48 36ZM3 37L3 38L4 38L4 37ZM26 37L26 38L24 38L24 39L26 39L26 38L27 38L27 37ZM20 38L20 39L21 39L21 38ZM28 38L28 39L29 39L29 38ZM19 40L19 41L20 41L20 40ZM7 42L7 43L8 43L8 42ZM39 42L39 43L37 43L37 44L36 44L36 45L35 45L35 47L36 47L36 46L38 46L38 45L37 45L37 44L39 44L39 43L40 43L40 46L41 46L41 47L40 47L40 49L41 49L41 47L42 47L42 45L43 45L43 44L42 44L42 45L41 45L41 43L40 43L40 42ZM18 43L18 44L19 44L19 43ZM24 43L24 44L25 44L25 43ZM9 44L9 45L10 45L10 44ZM4 45L4 46L5 46L5 45ZM24 45L24 46L26 46L26 45ZM1 46L1 47L2 47L2 46ZM37 47L37 48L36 48L36 49L37 49L37 51L38 51L38 47ZM10 48L10 49L11 49L11 48ZM27 49L27 52L30 52L30 49ZM46 49L46 51L47 51L47 52L48 52L48 51L47 51L47 49ZM49 49L49 52L52 52L52 49ZM28 50L28 51L29 51L29 50ZM34 50L34 51L35 51L35 50ZM50 50L50 51L51 51L51 50ZM31 51L31 52L32 52L32 51ZM45 52L45 53L46 53L46 54L47 54L47 55L48 55L48 54L49 54L49 53L46 53L46 52ZM12 53L12 54L13 54L13 55L12 55L12 56L13 56L13 55L14 55L14 54L15 54L15 53ZM27 53L27 55L28 55L28 53ZM16 54L16 55L17 55L17 54ZM40 54L40 55L41 55L41 54ZM55 54L55 55L57 55L57 54ZM36 56L36 57L37 57L37 56ZM56 56L56 57L57 57L57 56ZM0 0L0 7L7 7L7 0ZM1 1L1 6L6 6L6 1ZM2 2L2 5L5 5L5 2ZM50 0L50 7L57 7L57 0ZM51 1L51 6L56 6L56 1ZM52 2L52 5L55 5L55 2ZM0 50L0 57L7 57L7 50ZM1 51L1 56L6 56L6 51ZM2 52L2 55L5 55L5 52Z" fill="#000000"/></g></g></svg>
