<?xml version="1.0" encoding="UTF-8"?>
<svg xmlns="http://www.w3.org/2000/svg" version="1.1" width="300" height="300" viewBox="0 0 300 300"><rect x="0" y="0" width="300" height="300" fill="#fefefe"/><g transform="scale(4.615)"><g transform="translate(4,4)"><path fill-rule="evenodd" d="M10 0L10 1L11 1L11 2L10 2L10 4L12 4L12 5L10 5L10 7L11 7L11 6L12 6L12 8L6 8L6 9L7 9L7 10L5 10L5 11L8 11L8 12L4 12L4 11L3 11L3 12L1 12L1 13L0 13L0 14L1 14L1 16L0 16L0 19L1 19L1 18L3 18L3 20L0 20L0 22L1 22L1 23L0 23L0 25L1 25L1 24L3 24L3 25L2 25L2 28L4 28L4 29L2 29L2 30L4 30L4 32L3 32L3 31L2 31L2 32L1 32L1 33L0 33L0 38L2 38L2 39L0 39L0 40L1 40L1 42L0 42L0 45L1 45L1 46L0 46L0 48L5 48L5 47L9 47L9 48L10 48L10 49L8 49L8 48L6 48L6 49L8 49L8 51L9 51L9 50L11 50L11 51L10 51L10 53L9 53L9 52L8 52L8 57L9 57L9 54L11 54L11 56L10 56L10 57L11 57L11 56L13 56L13 55L14 55L14 54L13 54L13 53L14 53L14 50L15 50L15 48L17 48L17 50L18 50L18 51L19 51L19 52L17 52L17 53L16 53L16 51L15 51L15 53L16 53L16 54L15 54L15 55L16 55L16 56L14 56L14 57L16 57L16 56L17 56L17 57L19 57L19 56L18 56L18 55L20 55L20 54L19 54L19 53L20 53L20 52L22 52L22 51L19 51L19 50L20 50L20 49L21 49L21 50L26 50L26 52L24 52L24 53L23 53L23 54L22 54L22 55L21 55L21 56L20 56L20 57L21 57L21 56L24 56L24 57L26 57L26 56L27 56L27 57L29 57L29 56L30 56L30 57L31 57L31 56L35 56L35 57L39 57L39 56L40 56L40 55L41 55L41 54L42 54L42 55L44 55L44 56L43 56L43 57L44 57L44 56L45 56L45 57L46 57L46 56L45 56L45 55L44 55L44 54L45 54L45 53L44 53L44 52L45 52L45 51L46 51L46 53L47 53L47 55L48 55L48 56L50 56L50 57L52 57L52 55L51 55L51 53L52 53L52 54L53 54L53 52L54 52L54 54L55 54L55 53L57 53L57 51L56 51L56 52L55 52L55 51L54 51L54 50L57 50L57 48L56 48L56 46L57 46L57 44L56 44L56 41L55 41L55 39L57 39L57 37L55 37L55 35L53 35L53 34L52 34L52 33L53 33L53 32L56 32L56 33L54 33L54 34L57 34L57 32L56 32L56 30L57 30L57 29L54 29L54 28L55 28L55 27L56 27L56 28L57 28L57 27L56 27L56 26L57 26L57 25L56 25L56 22L57 22L57 21L56 21L56 22L55 22L55 23L53 23L53 22L54 22L54 21L51 21L51 20L52 20L52 19L53 19L53 20L56 20L56 16L57 16L57 15L56 15L56 14L57 14L57 11L56 11L56 10L54 10L54 11L53 11L53 10L52 10L52 11L51 11L51 10L49 10L49 9L50 9L50 8L47 8L47 10L46 10L46 11L45 11L45 10L44 10L44 8L43 8L43 6L44 6L44 7L45 7L45 8L46 8L46 7L47 7L47 5L48 5L48 0L46 0L46 1L45 1L45 2L44 2L44 3L43 3L43 4L40 4L40 5L39 5L39 6L38 6L38 7L37 7L37 5L38 5L38 3L41 3L41 2L43 2L43 0L41 0L41 1L40 1L40 0L39 0L39 1L38 1L38 0L37 0L37 1L38 1L38 3L36 3L36 0L35 0L35 1L33 1L33 0L32 0L32 1L31 1L31 0L29 0L29 2L30 2L30 3L31 3L31 4L26 4L26 3L23 3L23 4L24 4L24 5L23 5L23 6L22 6L22 7L21 7L21 5L22 5L22 4L19 4L19 3L22 3L22 0L21 0L21 2L20 2L20 1L18 1L18 0L17 0L17 1L16 1L16 2L17 2L17 4L19 4L19 5L20 5L20 7L19 7L19 6L18 6L18 5L17 5L17 6L16 6L16 7L15 7L15 5L16 5L16 4L15 4L15 5L13 5L13 4L14 4L14 2L15 2L15 1L14 1L14 2L12 2L12 1L13 1L13 0L12 0L12 1L11 1L11 0ZM23 0L23 2L27 2L27 3L28 3L28 1L25 1L25 0ZM8 1L8 2L9 2L9 1ZM32 1L32 2L31 2L31 3L32 3L32 4L31 4L31 8L32 8L32 10L31 10L31 11L30 11L30 10L29 10L29 9L28 9L28 10L29 10L29 12L28 12L28 13L26 13L26 12L27 12L27 11L26 11L26 12L25 12L25 10L23 10L23 12L24 12L24 13L22 13L22 12L21 12L21 13L20 13L20 10L21 10L21 11L22 11L22 10L21 10L21 9L23 9L23 8L24 8L24 6L23 6L23 7L22 7L22 8L19 8L19 7L18 7L18 6L17 6L17 7L16 7L16 8L19 8L19 9L20 9L20 10L19 10L19 13L20 13L20 14L19 14L19 17L16 17L16 16L18 16L18 14L17 14L17 13L18 13L18 12L17 12L17 13L16 13L16 11L15 11L15 13L13 13L13 12L14 12L14 11L13 11L13 10L17 10L17 11L18 11L18 10L17 10L17 9L15 9L15 7L14 7L14 6L13 6L13 5L12 5L12 6L13 6L13 7L14 7L14 9L13 9L13 8L12 8L12 9L10 9L10 11L9 11L9 12L10 12L10 14L9 14L9 15L10 15L10 16L11 16L11 17L10 17L10 18L9 18L9 17L8 17L8 16L7 16L7 15L5 15L5 17L3 17L3 13L2 13L2 17L3 17L3 18L4 18L4 20L3 20L3 21L1 21L1 22L2 22L2 23L4 23L4 25L3 25L3 26L4 26L4 25L5 25L5 26L9 26L9 27L12 27L12 28L13 28L13 29L11 29L11 28L10 28L10 29L9 29L9 30L10 30L10 29L11 29L11 30L12 30L12 33L11 33L11 31L10 31L10 33L11 33L11 34L10 34L10 35L9 35L9 33L6 33L6 34L3 34L3 33L1 33L1 34L2 34L2 36L1 36L1 37L2 37L2 36L3 36L3 37L5 37L5 38L7 38L7 39L6 39L6 40L7 40L7 41L6 41L6 42L7 42L7 41L8 41L8 46L11 46L11 48L12 48L12 49L13 49L13 50L14 50L14 48L15 48L15 46L17 46L17 45L18 45L18 44L17 44L17 45L16 45L16 43L18 43L18 42L19 42L19 41L20 41L20 43L22 43L22 42L24 42L24 41L25 41L25 43L24 43L24 44L23 44L23 45L22 45L22 44L21 44L21 45L20 45L20 44L19 44L19 45L20 45L20 46L18 46L18 47L17 47L17 48L18 48L18 47L20 47L20 48L19 48L19 49L20 49L20 48L21 48L21 49L23 49L23 48L24 48L24 49L26 49L26 48L30 48L30 47L29 47L29 46L31 46L31 44L29 44L29 45L27 45L27 44L28 44L28 43L27 43L27 42L29 42L29 41L30 41L30 42L32 42L32 43L33 43L33 44L32 44L32 47L31 47L31 48L32 48L32 50L31 50L31 53L30 53L30 54L27 54L27 53L26 53L26 55L27 55L27 56L29 56L29 55L30 55L30 56L31 56L31 54L32 54L32 53L33 53L33 55L35 55L35 56L36 56L36 54L35 54L35 51L34 51L34 50L36 50L36 52L37 52L37 51L38 51L38 50L41 50L41 52L40 52L40 51L39 51L39 52L38 52L38 53L37 53L37 54L40 54L40 53L43 53L43 54L44 54L44 53L43 53L43 52L42 52L42 50L41 50L41 48L42 48L42 49L43 49L43 48L44 48L44 51L45 51L45 50L46 50L46 51L47 51L47 53L48 53L48 50L47 50L47 49L48 49L48 48L50 48L50 47L51 47L51 46L53 46L53 47L55 47L55 46L56 46L56 45L55 45L55 44L54 44L54 45L52 45L52 44L53 44L53 43L54 43L54 42L53 42L53 41L51 41L51 42L50 42L50 43L47 43L47 42L48 42L48 41L49 41L49 38L48 38L48 37L50 37L50 39L54 39L54 38L53 38L53 35L52 35L52 34L50 34L50 32L51 32L51 33L52 33L52 32L51 32L51 31L50 31L50 32L49 32L49 31L48 31L48 30L47 30L47 29L48 29L48 28L47 28L47 29L46 29L46 30L47 30L47 31L48 31L48 32L47 32L47 33L46 33L46 31L45 31L45 32L43 32L43 31L44 31L44 29L45 29L45 28L46 28L46 27L47 27L47 26L48 26L48 25L49 25L49 24L51 24L51 25L50 25L50 26L51 26L51 25L52 25L52 26L53 26L53 27L54 27L54 26L53 26L53 23L52 23L52 24L51 24L51 23L50 23L50 22L51 22L51 21L49 21L49 19L52 19L52 18L55 18L55 16L50 16L50 18L47 18L47 17L48 17L48 16L49 16L49 15L50 15L50 14L51 14L51 12L50 12L50 11L49 11L49 12L48 12L48 10L47 10L47 12L45 12L45 11L44 11L44 14L47 14L47 13L49 13L49 12L50 12L50 14L49 14L49 15L48 15L48 16L47 16L47 15L44 15L44 18L43 18L43 19L42 19L42 18L41 18L41 20L38 20L38 22L39 22L39 23L37 23L37 24L39 24L39 25L38 25L38 26L37 26L37 25L33 25L33 24L32 24L32 23L35 23L35 19L36 19L36 20L37 20L37 19L39 19L39 17L41 17L41 16L42 16L42 17L43 17L43 16L42 16L42 15L43 15L43 14L41 14L41 13L43 13L43 11L42 11L42 10L40 10L40 9L41 9L41 7L42 7L42 6L43 6L43 5L40 5L40 6L39 6L39 7L40 7L40 8L38 8L38 10L37 10L37 9L35 9L35 8L37 8L37 7L36 7L36 5L37 5L37 4L36 4L36 5L35 5L35 2L33 2L33 1ZM46 1L46 2L47 2L47 1ZM32 2L32 3L33 3L33 2ZM8 3L8 4L9 4L9 3ZM12 3L12 4L13 4L13 3ZM44 3L44 6L45 6L45 7L46 7L46 6L45 6L45 5L47 5L47 3ZM25 4L25 8L26 8L26 4ZM32 4L32 5L34 5L34 7L33 7L33 6L32 6L32 7L33 7L33 9L34 9L34 8L35 8L35 5L34 5L34 4ZM8 5L8 7L9 7L9 5ZM27 5L27 8L30 8L30 5ZM28 6L28 7L29 7L29 6ZM40 6L40 7L41 7L41 6ZM48 6L48 7L49 7L49 6ZM0 8L0 9L1 9L1 10L2 10L2 9L3 9L3 10L4 10L4 9L5 9L5 8ZM42 8L42 9L43 9L43 8ZM51 8L51 9L52 9L52 8ZM53 8L53 9L54 9L54 8ZM55 8L55 9L56 9L56 8ZM8 9L8 10L9 10L9 9ZM11 10L11 11L10 11L10 12L11 12L11 13L12 13L12 14L13 14L13 15L14 15L14 16L12 16L12 15L11 15L11 16L12 16L12 17L11 17L11 18L10 18L10 20L11 20L11 18L12 18L12 21L13 21L13 22L11 22L11 21L9 21L9 23L7 23L7 22L6 22L6 21L7 21L7 20L6 20L6 19L7 19L7 18L6 18L6 17L7 17L7 16L6 16L6 17L5 17L5 21L4 21L4 23L5 23L5 24L6 24L6 25L7 25L7 24L9 24L9 25L10 25L10 26L14 26L14 21L13 21L13 20L14 20L14 19L13 19L13 17L14 17L14 18L15 18L15 19L16 19L16 18L15 18L15 17L14 17L14 16L16 16L16 13L15 13L15 14L13 14L13 13L12 13L12 12L11 12L11 11L12 11L12 10ZM32 10L32 11L31 11L31 12L33 12L33 13L32 13L32 14L31 14L31 13L30 13L30 14L29 14L29 13L28 13L28 14L29 14L29 16L28 16L28 15L27 15L27 14L26 14L26 13L24 13L24 14L25 14L25 15L24 15L24 16L26 16L26 17L27 17L27 18L28 18L28 19L30 19L30 20L29 20L29 21L30 21L30 22L28 22L28 24L29 24L29 26L26 26L26 25L25 25L25 24L27 24L27 21L25 21L25 20L26 20L26 19L25 19L25 17L22 17L22 16L21 16L21 15L23 15L23 14L22 14L22 13L21 13L21 14L20 14L20 16L21 16L21 17L22 17L22 18L20 18L20 17L19 17L19 20L18 20L18 19L17 19L17 21L16 21L16 20L15 20L15 21L16 21L16 22L15 22L15 23L16 23L16 24L15 24L15 25L16 25L16 24L17 24L17 27L16 27L16 29L15 29L15 31L13 31L13 32L14 32L14 33L13 33L13 34L11 34L11 35L14 35L14 36L13 36L13 38L14 38L14 41L17 41L17 42L18 42L18 41L19 41L19 40L22 40L22 39L24 39L24 40L23 40L23 41L24 41L24 40L25 40L25 37L27 37L27 38L26 38L26 39L27 39L27 41L26 41L26 42L27 42L27 41L29 41L29 40L28 40L28 39L27 39L27 38L28 38L28 37L27 37L27 34L25 34L25 33L26 33L26 32L27 32L27 31L28 31L28 33L29 33L29 34L30 34L30 36L29 36L29 37L31 37L31 38L29 38L29 39L33 39L33 40L35 40L35 42L37 42L37 43L36 43L36 44L35 44L35 43L34 43L34 42L33 42L33 41L32 41L32 40L30 40L30 41L32 41L32 42L33 42L33 43L34 43L34 45L36 45L36 48L35 48L35 49L36 49L36 50L38 50L38 49L39 49L39 48L41 48L41 46L43 46L43 47L42 47L42 48L43 48L43 47L44 47L44 46L43 46L43 45L44 45L44 44L43 44L43 42L45 42L45 43L46 43L46 44L45 44L45 45L47 45L47 46L45 46L45 48L46 48L46 49L47 49L47 48L48 48L48 47L50 47L50 46L51 46L51 45L50 45L50 44L51 44L51 43L53 43L53 42L51 42L51 43L50 43L50 44L49 44L49 45L50 45L50 46L48 46L48 45L47 45L47 43L46 43L46 42L45 42L45 41L42 41L42 40L45 40L45 39L46 39L46 41L47 41L47 39L48 39L48 38L47 38L47 39L46 39L46 38L45 38L45 37L47 37L47 36L48 36L48 35L50 35L50 37L52 37L52 35L50 35L50 34L48 34L48 35L47 35L47 34L45 34L45 35L44 35L44 33L43 33L43 32L41 32L41 33L39 33L39 34L40 34L40 35L38 35L38 33L37 33L37 32L35 32L35 34L37 34L37 35L38 35L38 37L37 37L37 36L35 36L35 35L34 35L34 34L33 34L33 33L32 33L32 30L33 30L33 31L36 31L36 30L33 30L33 29L32 29L32 28L31 28L31 26L32 26L32 27L33 27L33 28L35 28L35 29L38 29L38 28L40 28L40 27L36 27L36 26L34 26L34 27L33 27L33 26L32 26L32 24L30 24L30 22L31 22L31 21L32 21L32 20L34 20L34 19L32 19L32 18L31 18L31 17L32 17L32 15L33 15L33 16L35 16L35 17L37 17L37 18L38 18L38 17L39 17L39 16L41 16L41 14L40 14L40 15L39 15L39 14L38 14L38 13L39 13L39 11L37 11L37 10L36 10L36 12L35 12L35 14L33 14L33 13L34 13L34 12L33 12L33 10ZM40 11L40 12L41 12L41 11ZM55 11L55 12L54 12L54 13L53 13L53 12L52 12L52 13L53 13L53 14L56 14L56 11ZM4 13L4 14L7 14L7 13ZM36 13L36 14L37 14L37 15L35 15L35 16L37 16L37 17L38 17L38 16L39 16L39 15L38 15L38 14L37 14L37 13ZM30 14L30 15L31 15L31 14ZM26 15L26 16L27 16L27 17L28 17L28 16L27 16L27 15ZM45 16L45 17L47 17L47 16ZM23 18L23 19L24 19L24 18ZM30 18L30 19L31 19L31 18ZM44 18L44 20L43 20L43 21L39 21L39 22L40 22L40 24L41 24L41 25L42 25L42 26L41 26L41 28L42 28L42 26L43 26L43 25L44 25L44 24L43 24L43 23L44 23L44 20L46 20L46 21L45 21L45 22L46 22L46 23L45 23L45 25L46 25L46 24L47 24L47 25L48 25L48 24L47 24L47 22L49 22L49 21L47 21L47 18ZM20 19L20 21L18 21L18 22L20 22L20 23L18 23L18 24L21 24L21 25L20 25L20 27L19 27L19 26L18 26L18 27L17 27L17 28L18 28L18 29L16 29L16 30L18 30L18 29L19 29L19 28L20 28L20 30L19 30L19 32L20 32L20 31L23 31L23 29L26 29L26 28L24 28L24 26L22 26L22 25L23 25L23 24L22 24L22 23L24 23L24 24L25 24L25 23L26 23L26 22L25 22L25 21L24 21L24 20L21 20L21 19ZM22 21L22 22L24 22L24 21ZM46 21L46 22L47 22L47 21ZM5 22L5 23L6 23L6 24L7 24L7 23L6 23L6 22ZM11 23L11 24L12 24L12 25L13 25L13 24L12 24L12 23ZM55 25L55 26L56 26L56 25ZM0 26L0 27L1 27L1 26ZM21 26L21 27L20 27L20 28L21 28L21 29L22 29L22 28L21 28L21 27L22 27L22 26ZM25 26L25 27L26 27L26 26ZM45 26L45 27L44 27L44 28L43 28L43 29L39 29L39 30L38 30L38 32L39 32L39 31L41 31L41 30L43 30L43 29L44 29L44 28L45 28L45 27L46 27L46 26ZM5 27L5 30L8 30L8 27ZM27 27L27 30L30 30L30 27ZM35 27L35 28L36 28L36 27ZM49 27L49 30L52 30L52 27ZM0 28L0 29L1 29L1 28ZM6 28L6 29L7 29L7 28ZM28 28L28 29L29 29L29 28ZM50 28L50 29L51 29L51 28ZM13 29L13 30L14 30L14 29ZM53 29L53 30L54 30L54 29ZM24 30L24 32L21 32L21 33L20 33L20 34L21 34L21 33L22 33L22 36L21 36L21 35L19 35L19 33L14 33L14 35L15 35L15 36L14 36L14 38L15 38L15 39L16 39L16 40L17 40L17 37L18 37L18 38L19 38L19 39L20 39L20 38L19 38L19 37L21 37L21 38L24 38L24 37L23 37L23 36L24 36L24 34L23 34L23 33L25 33L25 32L26 32L26 31L25 31L25 30ZM5 31L5 32L4 32L4 33L5 33L5 32L8 32L8 31ZM17 31L17 32L18 32L18 31ZM30 31L30 32L29 32L29 33L31 33L31 31ZM48 32L48 33L49 33L49 32ZM6 34L6 35L7 35L7 34ZM16 34L16 35L17 35L17 34ZM31 34L31 35L32 35L32 34ZM42 34L42 35L41 35L41 36L40 36L40 37L38 37L38 38L37 38L37 39L35 39L35 37L33 37L33 36L32 36L32 37L33 37L33 38L34 38L34 39L35 39L35 40L38 40L38 42L39 42L39 43L41 43L41 44L39 44L39 45L38 45L38 46L39 46L39 47L38 47L38 48L37 48L37 49L38 49L38 48L39 48L39 47L40 47L40 46L41 46L41 44L42 44L42 43L41 43L41 42L40 42L40 41L41 41L41 40L42 40L42 39L45 39L45 38L44 38L44 37L45 37L45 36L44 36L44 35L43 35L43 34ZM8 35L8 36L9 36L9 37L8 37L8 38L9 38L9 39L7 39L7 40L8 40L8 41L10 41L10 40L9 40L9 39L10 39L10 38L11 38L11 40L12 40L12 41L13 41L13 39L12 39L12 38L11 38L11 37L12 37L12 36L9 36L9 35ZM18 35L18 37L19 37L19 35ZM42 35L42 36L41 36L41 37L40 37L40 38L41 38L41 39L42 39L42 38L43 38L43 37L44 37L44 36L43 36L43 35ZM46 35L46 36L47 36L47 35ZM5 36L5 37L7 37L7 36ZM9 37L9 38L10 38L10 37ZM15 37L15 38L16 38L16 37ZM41 37L41 38L42 38L42 37ZM2 39L2 40L3 40L3 41L2 41L2 43L1 43L1 44L2 44L2 43L5 43L5 39L4 39L4 40L3 40L3 39ZM38 39L38 40L39 40L39 39ZM21 41L21 42L22 42L22 41ZM10 42L10 43L11 43L11 44L9 44L9 45L11 45L11 46L13 46L13 44L14 44L14 46L15 46L15 44L14 44L14 43L15 43L15 42L14 42L14 43L12 43L12 42ZM6 43L6 44L5 44L5 46L4 46L4 45L2 45L2 46L1 46L1 47L2 47L2 46L3 46L3 47L5 47L5 46L7 46L7 45L6 45L6 44L7 44L7 43ZM25 43L25 44L27 44L27 43ZM11 44L11 45L12 45L12 44ZM21 45L21 46L20 46L20 47L23 47L23 46L25 46L25 45L23 45L23 46L22 46L22 45ZM26 45L26 47L25 47L25 48L26 48L26 47L28 47L28 46L27 46L27 45ZM33 46L33 47L32 47L32 48L33 48L33 47L35 47L35 46ZM46 47L46 48L47 48L47 47ZM53 48L53 49L54 49L54 48ZM55 48L55 49L56 49L56 48ZM27 49L27 52L30 52L30 49ZM33 49L33 50L34 50L34 49ZM49 49L49 52L52 52L52 49ZM28 50L28 51L29 51L29 50ZM50 50L50 51L51 51L51 50ZM11 51L11 52L13 52L13 51ZM32 51L32 52L33 52L33 53L34 53L34 52L33 52L33 51ZM11 53L11 54L12 54L12 55L13 55L13 54L12 54L12 53ZM24 53L24 54L23 54L23 55L24 55L24 56L25 56L25 53ZM37 55L37 56L39 56L39 55ZM50 55L50 56L51 56L51 55ZM53 55L53 56L55 56L55 57L56 57L56 56L55 56L55 55ZM0 0L0 7L7 7L7 0ZM1 1L1 6L6 6L6 1ZM2 2L2 5L5 5L5 2ZM50 0L50 7L57 7L57 0ZM51 1L51 6L56 6L56 1ZM52 2L52 5L55 5L55 2ZM0 50L0 57L7 57L7 50ZM1 51L1 56L6 56L6 51ZM2 52L2 55L5 55L5 52Z" fill="#000000"/></g></g></svg>
