<?xml version="1.0" encoding="UTF-8"?>
<svg xmlns="http://www.w3.org/2000/svg" version="1.1" width="300" height="300" viewBox="0 0 300 300"><rect x="0" y="0" width="300" height="300" fill="#fefefe"/><g transform="scale(4.615)"><g transform="translate(4,4)"><path fill-rule="evenodd" d="M8 0L8 1L9 1L9 2L8 2L8 5L9 5L9 4L10 4L10 3L11 3L11 6L10 6L10 8L12 8L12 9L13 9L13 11L12 11L12 10L11 10L11 11L10 11L10 9L9 9L9 8L8 8L8 9L7 9L7 8L6 8L6 9L5 9L5 10L1 10L1 9L4 9L4 8L0 8L0 11L4 11L4 13L5 13L5 14L3 14L3 12L2 12L2 13L1 13L1 12L0 12L0 13L1 13L1 15L2 15L2 16L6 16L6 17L3 17L3 18L4 18L4 20L3 20L3 21L4 21L4 22L2 22L2 19L1 19L1 21L0 21L0 22L1 22L1 23L2 23L2 24L1 24L1 25L2 25L2 26L1 26L1 27L2 27L2 28L1 28L1 29L0 29L0 30L1 30L1 31L2 31L2 28L3 28L3 30L4 30L4 32L3 32L3 33L2 33L2 32L0 32L0 33L2 33L2 34L3 34L3 33L4 33L4 34L5 34L5 33L4 33L4 32L6 32L6 33L8 33L8 32L9 32L9 31L11 31L11 32L10 32L10 33L9 33L9 34L8 34L8 36L5 36L5 35L2 35L2 36L1 36L1 37L0 37L0 38L2 38L2 39L4 39L4 37L5 37L5 41L4 41L4 40L1 40L1 41L0 41L0 48L5 48L5 47L7 47L7 48L6 48L6 49L7 49L7 48L8 48L8 47L7 47L7 46L9 46L9 47L11 47L11 48L13 48L13 49L12 49L12 50L11 50L11 49L10 49L10 48L9 48L9 49L8 49L8 50L9 50L9 53L8 53L8 57L9 57L9 56L10 56L10 57L11 57L11 55L10 55L10 54L12 54L12 57L14 57L14 56L13 56L13 55L14 55L14 54L15 54L15 56L16 56L16 57L18 57L18 55L17 55L17 54L18 54L18 53L17 53L17 54L16 54L16 53L14 53L14 52L15 52L15 51L14 51L14 52L13 52L13 53L12 53L12 52L11 52L11 53L10 53L10 51L13 51L13 50L16 50L16 51L18 51L18 52L19 52L19 55L20 55L20 57L23 57L23 56L22 56L22 55L23 55L23 54L25 54L25 55L24 55L24 57L25 57L25 55L26 55L26 56L28 56L28 55L26 55L26 53L29 53L29 54L31 54L31 55L30 55L30 56L31 56L31 57L32 57L32 55L33 55L33 54L36 54L36 55L34 55L34 56L33 56L33 57L36 57L36 55L38 55L38 57L41 57L41 55L42 55L42 57L43 57L43 55L44 55L44 56L46 56L46 57L47 57L47 56L46 56L46 55L44 55L44 54L47 54L47 55L49 55L49 57L51 57L51 54L52 54L52 53L53 53L53 54L54 54L54 52L55 52L55 54L56 54L56 53L57 53L57 52L55 52L55 50L53 50L53 48L54 48L54 49L55 49L55 48L54 48L54 47L57 47L57 43L56 43L56 41L57 41L57 40L56 40L56 41L55 41L55 42L54 42L54 41L53 41L53 40L55 40L55 39L53 39L53 38L52 38L52 37L50 37L50 36L51 36L51 35L52 35L52 36L53 36L53 37L55 37L55 38L56 38L56 39L57 39L57 38L56 38L56 37L57 37L57 36L56 36L56 35L57 35L57 34L55 34L55 33L57 33L57 31L56 31L56 30L57 30L57 28L56 28L56 27L53 27L53 26L51 26L51 25L50 25L50 24L51 24L51 23L50 23L50 24L49 24L49 21L47 21L47 22L46 22L46 23L45 23L45 22L44 22L44 21L43 21L43 18L42 18L42 17L45 17L45 18L44 18L44 19L45 19L45 20L47 20L47 19L48 19L48 17L45 17L45 16L48 16L48 14L47 14L47 15L45 15L45 16L44 16L44 15L43 15L43 14L46 14L46 13L44 13L44 11L42 11L42 12L43 12L43 14L42 14L42 17L41 17L41 18L39 18L39 19L40 19L40 20L39 20L39 23L37 23L37 24L36 24L36 23L35 23L35 24L33 24L33 22L32 22L32 23L30 23L30 24L29 24L29 25L31 25L31 26L28 26L28 23L29 23L29 22L31 22L31 21L29 21L29 20L27 20L27 19L25 19L25 18L24 18L24 17L26 17L26 18L27 18L27 17L29 17L29 18L28 18L28 19L30 19L30 20L32 20L32 19L30 19L30 17L29 17L29 16L31 16L31 18L33 18L33 19L34 19L34 20L35 20L35 22L38 22L38 21L36 21L36 20L38 20L38 19L36 19L36 20L35 20L35 17L34 17L34 16L35 16L35 15L36 15L36 13L37 13L37 15L39 15L39 17L40 17L40 16L41 16L41 13L40 13L40 11L41 11L41 10L44 10L44 9L43 9L43 8L46 8L46 7L47 7L47 5L48 5L48 0L45 0L45 1L44 1L44 2L41 2L41 1L43 1L43 0L41 0L41 1L40 1L40 0L39 0L39 1L40 1L40 2L41 2L41 4L39 4L39 3L38 3L38 2L37 2L37 1L38 1L38 0L37 0L37 1L36 1L36 0L35 0L35 1L34 1L34 2L35 2L35 4L36 4L36 5L37 5L37 6L36 6L36 7L35 7L35 6L34 6L34 9L36 9L36 8L38 8L38 7L39 7L39 6L38 6L38 5L40 5L40 7L41 7L41 4L43 4L43 5L42 5L42 7L43 7L43 8L39 8L39 9L40 9L40 11L38 11L38 12L37 12L37 11L36 11L36 10L35 10L35 11L34 11L34 10L33 10L33 14L32 14L32 12L31 12L31 11L30 11L30 10L32 10L32 9L31 9L31 6L32 6L32 8L33 8L33 6L32 6L32 5L31 5L31 4L32 4L32 3L33 3L33 5L34 5L34 3L33 3L33 2L31 2L31 0L27 0L27 1L29 1L29 3L30 3L30 4L26 4L26 2L24 2L24 3L23 3L23 5L22 5L22 4L21 4L21 5L20 5L20 4L19 4L19 2L18 2L18 1L20 1L20 2L21 2L21 1L22 1L22 2L23 2L23 1L26 1L26 0L23 0L23 1L22 1L22 0L21 0L21 1L20 1L20 0L18 0L18 1L17 1L17 2L16 2L16 1L15 1L15 2L16 2L16 3L18 3L18 5L15 5L15 4L14 4L14 3L13 3L13 4L14 4L14 5L13 5L13 6L12 6L12 3L11 3L11 2L12 2L12 1L11 1L11 0L10 0L10 1L9 1L9 0ZM13 0L13 1L14 1L14 0ZM32 0L32 1L33 1L33 0ZM10 1L10 2L11 2L11 1ZM35 1L35 2L36 2L36 1ZM45 1L45 3L44 3L44 4L45 4L45 5L43 5L43 7L44 7L44 6L45 6L45 7L46 7L46 5L47 5L47 3L46 3L46 2L47 2L47 1ZM27 2L27 3L28 3L28 2ZM30 2L30 3L31 3L31 2ZM37 3L37 4L38 4L38 3ZM24 4L24 6L23 6L23 7L24 7L24 8L23 8L23 9L21 9L21 7L22 7L22 6L21 6L21 7L20 7L20 6L19 6L19 7L18 7L18 6L17 6L17 7L16 7L16 6L15 6L15 8L14 8L14 6L13 6L13 7L12 7L12 6L11 6L11 7L12 7L12 8L13 8L13 9L14 9L14 11L16 11L16 12L15 12L15 15L14 15L14 16L15 16L15 15L16 15L16 17L19 17L19 19L21 19L21 20L18 20L18 18L17 18L17 20L18 20L18 21L17 21L17 23L16 23L16 19L15 19L15 18L12 18L12 17L13 17L13 14L14 14L14 13L13 13L13 12L12 12L12 11L11 11L11 13L10 13L10 15L12 15L12 17L11 17L11 18L10 18L10 19L12 19L12 21L5 21L5 22L4 22L4 23L3 23L3 24L2 24L2 25L3 25L3 24L7 24L7 25L6 25L6 26L7 26L7 25L8 25L8 26L9 26L9 28L10 28L10 29L9 29L9 30L10 30L10 29L11 29L11 30L12 30L12 29L11 29L11 28L12 28L12 27L10 27L10 26L9 26L9 25L8 25L8 24L9 24L9 23L10 23L10 24L11 24L11 25L12 25L12 24L14 24L14 26L13 26L13 30L16 30L16 29L15 29L15 28L14 28L14 26L15 26L15 27L17 27L17 30L19 30L19 29L18 29L18 28L19 28L19 27L21 27L21 28L20 28L20 31L18 31L18 34L17 34L17 33L16 33L16 31L14 31L14 35L13 35L13 36L14 36L14 37L13 37L13 39L15 39L15 38L17 38L17 36L18 36L18 34L19 34L19 37L18 37L18 38L19 38L19 37L20 37L20 38L21 38L21 39L22 39L22 41L20 41L20 40L19 40L19 39L16 39L16 40L17 40L17 42L13 42L13 41L12 41L12 39L11 39L11 37L10 37L10 38L9 38L9 37L6 37L6 38L8 38L8 39L6 39L6 40L8 40L8 39L9 39L9 40L10 40L10 41L5 41L5 42L4 42L4 41L3 41L3 44L1 44L1 45L2 45L2 46L1 46L1 47L2 47L2 46L3 46L3 47L5 47L5 46L7 46L7 45L9 45L9 46L11 46L11 47L13 47L13 48L14 48L14 47L13 47L13 46L15 46L15 48L17 48L17 47L19 47L19 49L20 49L20 48L21 48L21 50L19 50L19 51L22 51L22 49L23 49L23 52L22 52L22 53L20 53L20 55L22 55L22 53L23 53L23 52L24 52L24 53L25 53L25 52L26 52L26 51L24 51L24 50L25 50L25 48L24 48L24 47L23 47L23 48L21 48L21 47L22 47L22 46L23 46L23 44L22 44L22 41L24 41L24 43L26 43L26 45L25 45L25 47L26 47L26 48L28 48L28 47L27 47L27 46L29 46L29 48L32 48L32 49L31 49L31 53L32 53L32 50L33 50L33 52L35 52L35 53L36 53L36 54L37 54L37 51L36 51L36 52L35 52L35 51L34 51L34 50L35 50L35 48L37 48L37 49L36 49L36 50L37 50L37 49L38 49L38 48L39 48L39 49L40 49L40 50L39 50L39 51L38 51L38 52L40 52L40 54L41 54L41 52L42 52L42 54L43 54L43 51L45 51L45 52L46 52L46 53L47 53L47 54L50 54L50 53L47 53L47 52L48 52L48 48L47 48L47 47L46 47L46 46L47 46L47 45L48 45L48 47L49 47L49 45L50 45L50 46L51 46L51 47L50 47L50 48L51 48L51 47L52 47L52 48L53 48L53 47L54 47L54 46L53 46L53 45L51 45L51 42L50 42L50 41L52 41L52 38L50 38L50 39L51 39L51 40L50 40L50 41L47 41L47 42L45 42L45 41L46 41L46 38L47 38L47 37L49 37L49 36L48 36L48 35L49 35L49 34L50 34L50 33L49 33L49 32L48 32L48 29L47 29L47 31L46 31L46 32L45 32L45 30L46 30L46 26L50 26L50 25L48 25L48 24L47 24L47 23L48 23L48 22L47 22L47 23L46 23L46 24L45 24L45 23L43 23L43 22L42 22L42 23L39 23L39 24L38 24L38 25L39 25L39 26L38 26L38 27L41 27L41 26L45 26L45 29L44 29L44 28L43 28L43 27L42 27L42 28L43 28L43 29L42 29L42 30L41 30L41 28L40 28L40 29L38 29L38 30L36 30L36 31L37 31L37 32L36 32L36 33L37 33L37 32L38 32L38 34L39 34L39 31L38 31L38 30L41 30L41 31L40 31L40 32L41 32L41 31L43 31L43 30L44 30L44 34L45 34L45 36L44 36L44 37L41 37L41 35L42 35L42 34L41 34L41 35L39 35L39 36L38 36L38 35L37 35L37 36L38 36L38 37L39 37L39 36L40 36L40 37L41 37L41 38L44 38L44 39L45 39L45 41L42 41L42 40L41 40L41 39L39 39L39 38L38 38L38 39L37 39L37 37L35 37L35 36L36 36L36 35L34 35L34 36L32 36L32 34L30 34L30 35L29 35L29 33L30 33L30 31L29 31L29 32L28 32L28 33L27 33L27 31L26 31L26 33L25 33L25 34L24 34L24 35L23 35L23 36L21 36L21 35L22 35L22 34L23 34L23 33L24 33L24 32L23 32L23 33L22 33L22 34L21 34L21 33L20 33L20 32L22 32L22 31L23 31L23 30L21 30L21 29L24 29L24 30L26 30L26 28L25 28L25 27L24 27L24 26L25 26L25 25L27 25L27 24L26 24L26 23L28 23L28 22L25 22L25 19L24 19L24 18L23 18L23 14L25 14L25 15L26 15L26 16L27 16L27 15L26 15L26 14L25 14L25 13L26 13L26 12L28 12L28 13L30 13L30 14L31 14L31 16L32 16L32 14L31 14L31 12L30 12L30 11L29 11L29 9L27 9L27 10L26 10L26 11L25 11L25 12L23 12L23 11L24 11L24 10L23 10L23 9L26 9L26 6L25 6L25 5L26 5L26 4ZM27 5L27 8L30 8L30 5ZM8 6L8 7L9 7L9 6ZM24 6L24 7L25 7L25 6ZM28 6L28 7L29 7L29 6ZM37 6L37 7L38 7L38 6ZM48 6L48 7L49 7L49 6ZM19 7L19 9L18 9L18 8L17 8L17 10L16 10L16 11L17 11L17 12L16 12L16 13L17 13L17 12L18 12L18 13L19 13L19 17L21 17L21 18L22 18L22 17L21 17L21 16L20 16L20 14L21 14L21 13L20 13L20 12L21 12L21 11L23 11L23 10L20 10L20 7ZM48 8L48 9L47 9L47 10L46 10L46 11L48 11L48 12L49 12L49 15L50 15L50 16L51 16L51 17L52 17L52 16L55 16L55 17L54 17L54 18L51 18L51 19L55 19L55 20L54 20L54 21L53 21L53 20L50 20L50 18L49 18L49 20L50 20L50 21L51 21L51 22L52 22L52 24L54 24L54 25L55 25L55 26L56 26L56 24L54 24L54 23L57 23L57 21L56 21L56 20L57 20L57 19L56 19L56 18L57 18L57 15L55 15L55 14L54 14L54 15L51 15L51 13L52 13L52 14L53 14L53 13L54 13L54 10L51 10L51 11L48 11L48 10L50 10L50 8ZM52 8L52 9L55 9L55 8ZM56 8L56 9L57 9L57 8ZM6 9L6 10L7 10L7 9ZM37 9L37 10L38 10L38 9ZM8 10L8 11L6 11L6 12L7 12L7 13L6 13L6 14L5 14L5 15L6 15L6 16L8 16L8 18L7 18L7 17L6 17L6 18L7 18L7 19L6 19L6 20L7 20L7 19L8 19L8 20L9 20L9 19L8 19L8 18L9 18L9 17L10 17L10 16L9 16L9 15L6 15L6 14L8 14L8 12L10 12L10 11L9 11L9 10ZM18 10L18 12L19 12L19 11L20 11L20 10ZM55 10L55 12L56 12L56 13L57 13L57 12L56 12L56 11L57 11L57 10ZM35 11L35 12L34 12L34 14L33 14L33 15L35 15L35 12L36 12L36 11ZM51 11L51 12L50 12L50 13L51 13L51 12L52 12L52 13L53 13L53 11ZM22 12L22 13L23 13L23 12ZM11 13L11 14L13 14L13 13ZM2 14L2 15L3 15L3 14ZM16 14L16 15L17 15L17 16L18 16L18 14ZM39 14L39 15L40 15L40 14ZM28 15L28 16L29 16L29 15ZM36 17L36 18L37 18L37 17ZM55 17L55 18L56 18L56 17ZM41 18L41 19L42 19L42 18ZM45 18L45 19L47 19L47 18ZM13 19L13 21L12 21L12 23L14 23L14 24L15 24L15 26L16 26L16 23L15 23L15 22L14 22L14 20L15 20L15 19ZM22 19L22 20L21 20L21 22L19 22L19 21L18 21L18 22L19 22L19 24L17 24L17 27L19 27L19 26L21 26L21 24L20 24L20 23L21 23L21 22L23 22L23 24L24 24L24 25L25 25L25 22L24 22L24 21L23 21L23 19ZM26 20L26 21L27 21L27 20ZM41 20L41 21L42 21L42 20ZM54 21L54 22L56 22L56 21ZM6 22L6 23L7 23L7 24L8 24L8 23L9 23L9 22ZM10 22L10 23L11 23L11 22ZM42 23L42 24L41 24L41 25L40 25L40 26L41 26L41 25L44 25L44 24L43 24L43 23ZM32 24L32 25L33 25L33 24ZM18 25L18 26L19 26L19 25ZM22 25L22 27L23 27L23 25ZM34 25L34 27L35 27L35 28L34 28L34 29L37 29L37 28L36 28L36 27L35 27L35 25ZM45 25L45 26L46 26L46 25ZM3 26L3 27L4 27L4 26ZM5 27L5 30L8 30L8 27ZM27 27L27 30L30 30L30 27ZM31 27L31 28L33 28L33 27ZM49 27L49 30L52 30L52 27ZM6 28L6 29L7 29L7 28ZM28 28L28 29L29 29L29 28ZM50 28L50 29L51 29L51 28ZM53 28L53 30L54 30L54 31L53 31L53 32L52 32L52 31L50 31L50 32L52 32L52 34L54 34L54 33L55 33L55 30L56 30L56 29L54 29L54 28ZM31 29L31 31L33 31L33 32L31 32L31 33L33 33L33 32L35 32L35 31L33 31L33 30L32 30L32 29ZM6 31L6 32L8 32L8 31ZM11 32L11 35L12 35L12 34L13 34L13 32ZM42 32L42 33L43 33L43 32ZM26 33L26 34L27 34L27 35L26 35L26 36L23 36L23 37L22 37L22 38L23 38L23 39L24 39L24 41L25 41L25 42L27 42L27 44L29 44L29 46L30 46L30 44L31 44L31 47L33 47L33 46L32 46L32 42L33 42L33 45L34 45L34 44L35 44L35 46L34 46L34 48L33 48L33 50L34 50L34 48L35 48L35 47L36 47L36 46L37 46L37 47L38 47L38 45L41 45L41 46L40 46L40 47L43 47L43 50L45 50L45 51L46 51L46 52L47 52L47 50L46 50L46 49L47 49L47 48L46 48L46 47L45 47L45 46L43 46L43 45L42 45L42 43L43 43L43 44L47 44L47 43L48 43L48 44L49 44L49 43L50 43L50 42L47 42L47 43L45 43L45 42L44 42L44 43L43 43L43 42L42 42L42 41L41 41L41 42L37 42L37 44L38 44L38 45L36 45L36 43L34 43L34 42L36 42L36 41L34 41L34 40L35 40L35 39L36 39L36 38L34 38L34 37L33 37L33 38L32 38L32 36L29 36L29 35L28 35L28 34L27 34L27 33ZM34 33L34 34L35 34L35 33ZM0 34L0 35L1 35L1 34ZM6 34L6 35L7 35L7 34ZM9 34L9 36L10 36L10 34ZM15 34L15 36L16 36L16 34ZM20 34L20 35L21 35L21 34ZM47 34L47 35L48 35L48 34ZM54 35L54 36L55 36L55 35ZM2 36L2 37L3 37L3 36ZM27 36L27 38L29 38L29 36ZM45 36L45 38L46 38L46 36ZM24 37L24 39L25 39L25 41L26 41L26 39L25 39L25 38L26 38L26 37ZM30 38L30 39L28 39L28 40L27 40L27 41L28 41L28 40L29 40L29 41L30 41L30 42L31 42L31 40L33 40L33 39L32 39L32 38ZM48 38L48 39L47 39L47 40L49 40L49 38ZM10 39L10 40L11 40L11 39ZM38 39L38 40L37 40L37 41L40 41L40 40L39 40L39 39ZM10 41L10 42L6 42L6 43L4 43L4 44L3 44L3 45L7 45L7 44L8 44L8 43L10 43L10 44L9 44L9 45L10 45L10 44L11 44L11 46L12 46L12 45L16 45L16 44L17 44L17 43L15 43L15 44L13 44L13 43L11 43L11 42L12 42L12 41ZM18 41L18 43L19 43L19 41ZM1 42L1 43L2 43L2 42ZM20 42L20 43L21 43L21 42ZM41 42L41 43L42 43L42 42ZM53 42L53 43L52 43L52 44L55 44L55 46L56 46L56 44L55 44L55 43L54 43L54 42ZM6 43L6 44L7 44L7 43ZM38 43L38 44L40 44L40 43ZM19 44L19 45L17 45L17 46L16 46L16 47L17 47L17 46L20 46L20 47L21 47L21 46L22 46L22 44L21 44L21 46L20 46L20 44ZM26 45L26 46L27 46L27 45ZM52 46L52 47L53 47L53 46ZM44 47L44 49L46 49L46 48L45 48L45 47ZM23 48L23 49L24 49L24 48ZM41 48L41 49L42 49L42 48ZM56 48L56 49L57 49L57 48ZM16 49L16 50L17 50L17 49ZM27 49L27 52L30 52L30 49ZM49 49L49 52L52 52L52 49ZM28 50L28 51L29 51L29 50ZM50 50L50 51L51 51L51 50ZM40 51L40 52L41 52L41 51ZM9 53L9 54L10 54L10 53ZM38 53L38 54L39 54L39 53ZM39 55L39 56L40 56L40 55ZM56 55L56 56L57 56L57 55ZM52 56L52 57L53 57L53 56ZM54 56L54 57L55 57L55 56ZM0 0L0 7L7 7L7 0ZM1 1L1 6L6 6L6 1ZM2 2L2 5L5 5L5 2ZM50 0L50 7L57 7L57 0ZM51 1L51 6L56 6L56 1ZM52 2L52 5L55 5L55 2ZM0 50L0 57L7 57L7 50ZM1 51L1 56L6 56L6 51ZM2 52L2 55L5 55L5 52Z" fill="#000000"/></g></g></svg>
