<?xml version="1.0" encoding="UTF-8"?>
<svg xmlns="http://www.w3.org/2000/svg" version="1.1" width="300" height="300" viewBox="0 0 300 300"><rect x="0" y="0" width="300" height="300" fill="#fefefe"/><g transform="scale(4.615)"><g transform="translate(4,4)"><path fill-rule="evenodd" d="M9 0L9 1L8 1L8 2L9 2L9 3L8 3L8 4L9 4L9 3L10 3L10 2L12 2L12 3L11 3L11 5L8 5L8 7L9 7L9 8L6 8L6 9L10 9L10 10L6 10L6 11L8 11L8 12L6 12L6 13L5 13L5 8L0 8L0 10L1 10L1 11L0 11L0 14L1 14L1 15L0 15L0 16L2 16L2 15L4 15L4 14L5 14L5 15L7 15L7 14L9 14L9 15L10 15L10 14L11 14L11 16L12 16L12 18L13 18L13 17L14 17L14 16L15 16L15 17L16 17L16 13L17 13L17 15L18 15L18 14L20 14L20 13L19 13L19 10L20 10L20 9L19 9L19 8L23 8L23 6L24 6L24 8L25 8L25 9L23 9L23 10L22 10L22 9L21 9L21 10L22 10L22 11L21 11L21 12L22 12L22 13L21 13L21 15L19 15L19 16L17 16L17 18L15 18L15 21L16 21L16 22L14 22L14 21L13 21L13 22L14 22L14 23L12 23L12 20L10 20L10 21L9 21L9 22L8 22L8 21L7 21L7 20L8 20L8 19L7 19L7 18L6 18L6 17L7 17L7 16L6 16L6 17L4 17L4 16L3 16L3 17L0 17L0 18L1 18L1 19L0 19L0 20L1 20L1 22L3 22L3 25L4 25L4 28L2 28L2 27L3 27L3 26L2 26L2 24L1 24L1 23L0 23L0 24L1 24L1 26L0 26L0 28L2 28L2 29L0 29L0 30L2 30L2 29L4 29L4 30L3 30L3 31L0 31L0 33L1 33L1 34L0 34L0 38L1 38L1 39L0 39L0 41L1 41L1 39L2 39L2 41L4 41L4 43L3 43L3 42L2 42L2 43L3 43L3 44L2 44L2 45L1 45L1 44L0 44L0 48L5 48L5 47L7 47L7 48L6 48L6 49L7 49L7 48L8 48L8 51L9 51L9 50L12 50L12 52L11 52L11 53L12 53L12 55L11 55L11 54L10 54L10 52L8 52L8 57L9 57L9 55L11 55L11 56L10 56L10 57L12 57L12 56L13 56L13 55L14 55L14 54L15 54L15 55L16 55L16 56L17 56L17 57L20 57L20 56L19 56L19 55L20 55L20 54L19 54L19 53L20 53L20 52L21 52L21 53L22 53L22 56L23 56L23 57L26 57L26 56L27 56L27 57L29 57L29 56L30 56L30 57L31 57L31 56L35 56L35 57L39 57L39 56L40 56L40 55L44 55L44 56L43 56L43 57L44 57L44 56L45 56L45 57L46 57L46 56L45 56L45 55L44 55L44 54L45 54L45 53L44 53L44 52L45 52L45 51L43 51L43 49L44 49L44 50L46 50L46 52L47 52L47 50L48 50L48 54L46 54L46 55L48 55L48 56L47 56L47 57L48 57L48 56L50 56L50 57L52 57L52 55L51 55L51 53L52 53L52 54L53 54L53 55L54 55L54 56L53 56L53 57L54 57L54 56L55 56L55 57L56 57L56 56L55 56L55 53L56 53L56 50L57 50L57 48L56 48L56 46L57 46L57 45L56 45L56 44L57 44L57 43L56 43L56 41L55 41L55 39L57 39L57 36L55 36L55 35L56 35L56 34L55 34L55 33L54 33L54 32L56 32L56 33L57 33L57 32L56 32L56 30L57 30L57 29L56 29L56 27L55 27L55 26L57 26L57 25L56 25L56 22L57 22L57 19L56 19L56 18L51 18L51 19L50 19L50 17L49 17L49 16L50 16L50 15L53 15L53 17L56 17L56 16L57 16L57 15L56 15L56 14L57 14L57 13L56 13L56 14L55 14L55 13L54 13L54 12L57 12L57 11L56 11L56 10L54 10L54 11L52 11L52 10L53 10L53 9L54 9L54 8L53 8L53 9L52 9L52 8L51 8L51 10L49 10L49 9L50 9L50 8L49 8L49 6L48 6L48 9L47 9L47 8L45 8L45 9L44 9L44 7L45 7L45 6L46 6L46 7L47 7L47 5L48 5L48 0L46 0L46 1L45 1L45 2L44 2L44 3L43 3L43 4L40 4L40 5L39 5L39 6L38 6L38 3L41 3L41 2L43 2L43 0L41 0L41 1L40 1L40 0L39 0L39 1L38 1L38 0L37 0L37 1L38 1L38 3L36 3L36 0L35 0L35 1L33 1L33 0L28 0L28 1L30 1L30 2L29 2L29 4L26 4L26 3L23 3L23 4L19 4L19 3L18 3L18 1L17 1L17 6L16 6L16 7L15 7L15 5L16 5L16 4L15 4L15 5L14 5L14 8L12 8L12 7L13 7L13 6L12 6L12 7L11 7L11 5L12 5L12 3L13 3L13 4L14 4L14 2L15 2L15 0L14 0L14 2L12 2L12 1L11 1L11 0ZM19 0L19 1L20 1L20 2L21 2L21 1L22 1L22 0L21 0L21 1L20 1L20 0ZM23 0L23 2L27 2L27 1L26 1L26 0ZM32 1L32 2L31 2L31 3L30 3L30 4L31 4L31 8L32 8L32 10L31 10L31 11L30 11L30 10L29 10L29 12L28 12L28 13L26 13L26 12L27 12L27 11L26 11L26 12L25 12L25 10L23 10L23 11L24 11L24 12L25 12L25 14L24 14L24 16L23 16L23 15L21 15L21 16L22 16L22 17L20 17L20 16L19 16L19 17L20 17L20 18L21 18L21 19L20 19L20 21L17 21L17 20L19 20L19 19L16 19L16 21L17 21L17 24L16 24L16 23L14 23L14 24L16 24L16 25L15 25L15 26L14 26L14 27L13 27L13 26L12 26L12 25L11 25L11 23L9 23L9 24L7 24L7 23L8 23L8 22L7 22L7 21L6 21L6 20L7 20L7 19L6 19L6 18L5 18L5 19L6 19L6 20L4 20L4 21L6 21L6 22L7 22L7 23L4 23L4 25L5 25L5 26L7 26L7 25L9 25L9 26L10 26L10 28L9 28L9 29L10 29L10 30L9 30L9 31L6 31L6 32L5 32L5 31L4 31L4 32L5 32L5 33L6 33L6 34L5 34L5 37L4 37L4 33L3 33L3 32L2 32L2 33L3 33L3 34L2 34L2 35L1 35L1 36L2 36L2 35L3 35L3 37L1 37L1 38L2 38L2 39L3 39L3 40L4 40L4 41L5 41L5 40L4 40L4 39L5 39L5 37L6 37L6 38L7 38L7 39L6 39L6 40L7 40L7 41L6 41L6 42L7 42L7 41L9 41L9 44L8 44L8 43L4 43L4 44L3 44L3 45L5 45L5 44L7 44L7 45L6 45L6 46L8 46L8 47L10 47L10 49L13 49L13 52L14 52L14 53L13 53L13 54L14 54L14 53L15 53L15 54L16 54L16 53L17 53L17 52L18 52L18 51L20 51L20 50L21 50L21 49L23 49L23 48L24 48L24 49L25 49L25 48L27 48L27 47L28 47L28 48L30 48L30 47L28 47L28 46L29 46L29 45L30 45L30 46L31 46L31 45L30 45L30 44L29 44L29 45L28 45L28 43L29 43L29 42L30 42L30 41L31 41L31 42L32 42L32 43L33 43L33 44L32 44L32 45L33 45L33 46L32 46L32 47L33 47L33 48L31 48L31 50L36 50L36 52L38 52L38 53L37 53L37 54L40 54L40 53L42 53L42 52L43 52L43 51L42 51L42 50L41 50L41 48L42 48L42 49L43 49L43 48L44 48L44 49L46 49L46 50L47 50L47 49L48 49L48 48L49 48L49 47L51 47L51 46L52 46L52 48L53 48L53 46L54 46L54 45L55 45L55 46L56 46L56 45L55 45L55 44L54 44L54 45L53 45L53 43L54 43L54 42L53 42L53 41L51 41L51 42L50 42L50 43L49 43L49 42L48 42L48 41L49 41L49 40L50 40L50 39L52 39L52 40L53 40L53 39L55 39L55 38L54 38L54 37L53 37L53 35L55 35L55 34L54 34L54 33L52 33L52 32L51 32L51 31L48 31L48 29L46 29L46 30L47 30L47 31L48 31L48 32L46 32L46 33L45 33L45 32L43 32L43 31L44 31L44 30L45 30L45 28L46 28L46 27L47 27L47 28L48 28L48 26L47 26L47 25L49 25L49 24L51 24L51 25L50 25L50 26L52 26L52 25L53 25L53 24L54 24L54 25L55 25L55 24L54 24L54 23L55 23L55 22L56 22L56 19L55 19L55 20L53 20L53 19L52 19L52 20L51 20L51 21L49 21L49 20L48 20L48 21L47 21L47 20L44 20L44 18L46 18L46 19L48 19L48 18L47 18L47 17L48 17L48 16L49 16L49 15L50 15L50 14L51 14L51 12L50 12L50 11L48 11L48 12L45 12L45 11L44 11L44 9L43 9L43 11L41 11L41 9L42 9L42 8L41 8L41 7L42 7L42 6L41 6L41 5L40 5L40 6L39 6L39 7L40 7L40 8L39 8L39 9L38 9L38 8L37 8L37 7L38 7L38 6L37 6L37 7L36 7L36 5L37 5L37 4L36 4L36 5L35 5L35 4L34 4L34 3L35 3L35 2L34 2L34 3L32 3L32 2L33 2L33 1ZM46 1L46 2L47 2L47 1ZM31 3L31 4L32 4L32 5L34 5L34 7L33 7L33 6L32 6L32 7L33 7L33 9L34 9L34 8L35 8L35 9L37 9L37 10L36 10L36 11L37 11L37 12L35 12L35 13L37 13L37 14L38 14L38 15L39 15L39 16L38 16L38 17L37 17L37 16L35 16L35 14L33 14L33 13L34 13L34 12L33 12L33 13L32 13L32 12L31 12L31 13L30 13L30 14L29 14L29 13L28 13L28 14L29 14L29 16L28 16L28 15L27 15L27 16L26 16L26 14L25 14L25 16L26 16L26 17L22 17L22 18L24 18L24 19L23 19L23 20L24 20L24 21L22 21L22 19L21 19L21 21L22 21L22 23L23 23L23 24L24 24L24 25L22 25L22 24L17 24L17 26L15 26L15 28L16 28L16 29L15 29L15 30L13 30L13 29L12 29L12 27L11 27L11 29L12 29L12 30L13 30L13 31L11 31L11 30L10 30L10 31L11 31L11 32L10 32L10 33L12 33L12 32L13 32L13 35L14 35L14 32L15 32L15 31L16 31L16 29L18 29L18 30L17 30L17 31L19 31L19 30L20 30L20 29L18 29L18 28L17 28L17 27L18 27L18 26L19 26L19 27L20 27L20 28L21 28L21 29L22 29L22 28L21 28L21 27L22 27L22 26L23 26L23 27L24 27L24 26L26 26L26 27L25 27L25 28L24 28L24 29L23 29L23 31L20 31L20 32L17 32L17 33L19 33L19 35L18 35L18 34L17 34L17 35L18 35L18 36L17 36L17 38L18 38L18 39L17 39L17 40L16 40L16 39L15 39L15 38L16 38L16 37L14 37L14 36L13 36L13 37L11 37L11 36L12 36L12 34L11 34L11 36L10 36L10 34L9 34L9 35L7 35L7 34L8 34L8 32L6 32L6 33L7 33L7 34L6 34L6 35L7 35L7 36L6 36L6 37L7 37L7 36L9 36L9 37L11 37L11 38L13 38L13 42L12 42L12 41L11 41L11 39L9 39L9 38L8 38L8 39L7 39L7 40L9 40L9 41L10 41L10 43L11 43L11 44L14 44L14 43L13 43L13 42L15 42L15 44L18 44L18 45L17 45L17 47L18 47L18 48L17 48L17 49L18 49L18 50L20 50L20 49L21 49L21 48L20 48L20 49L19 49L19 47L18 47L18 46L20 46L20 47L23 47L23 46L25 46L25 45L23 45L23 42L25 42L25 41L23 41L23 42L22 42L22 41L21 41L21 40L22 40L22 38L21 38L21 37L19 37L19 35L20 35L20 36L22 36L22 33L21 33L21 32L24 32L24 30L25 30L25 31L26 31L26 32L25 32L25 33L23 33L23 34L24 34L24 36L23 36L23 37L24 37L24 38L23 38L23 39L24 39L24 40L25 40L25 36L26 36L26 40L27 40L27 41L26 41L26 42L27 42L27 41L28 41L28 39L27 39L27 38L28 38L28 37L27 37L27 36L26 36L26 35L27 35L27 33L26 33L26 32L28 32L28 33L29 33L29 34L30 34L30 36L29 36L29 37L31 37L31 38L29 38L29 39L33 39L33 40L35 40L35 42L37 42L37 43L36 43L36 44L35 44L35 43L34 43L34 42L33 42L33 41L32 41L32 40L31 40L31 41L32 41L32 42L33 42L33 43L34 43L34 45L35 45L35 46L33 46L33 47L35 47L35 46L36 46L36 48L33 48L33 49L36 49L36 50L38 50L38 52L39 52L39 51L40 51L40 52L42 52L42 51L41 51L41 50L38 50L38 49L39 49L39 48L41 48L41 46L43 46L43 45L44 45L44 48L46 48L46 47L47 47L47 48L48 48L48 47L49 47L49 46L50 46L50 44L51 44L51 45L52 45L52 44L51 44L51 43L53 43L53 42L51 42L51 43L50 43L50 44L48 44L48 45L49 45L49 46L48 46L48 47L47 47L47 46L45 46L45 45L47 45L47 43L48 43L48 42L47 42L47 43L46 43L46 42L45 42L45 41L47 41L47 39L48 39L48 37L50 37L50 38L49 38L49 39L50 39L50 38L51 38L51 37L50 37L50 36L52 36L52 35L53 35L53 34L52 34L52 33L51 33L51 32L50 32L50 34L48 34L48 35L50 35L50 36L48 36L48 37L47 37L47 36L46 36L46 35L47 35L47 34L45 34L45 33L43 33L43 32L41 32L41 33L39 33L39 34L40 34L40 35L38 35L38 33L37 33L37 32L35 32L35 34L37 34L37 36L35 36L35 35L34 35L34 36L35 36L35 39L34 39L34 38L33 38L33 37L32 37L32 36L33 36L33 35L31 35L31 34L33 34L33 33L32 33L32 32L33 32L33 31L36 31L36 30L33 30L33 29L32 29L32 28L31 28L31 26L32 26L32 27L33 27L33 28L35 28L35 29L38 29L38 28L40 28L40 27L37 27L37 28L36 28L36 26L34 26L34 27L33 27L33 26L32 26L32 24L33 24L33 25L37 25L37 26L38 26L38 24L39 24L39 25L40 25L40 24L41 24L41 22L42 22L42 24L43 24L43 25L41 25L41 26L43 26L43 25L44 25L44 27L43 27L43 28L45 28L45 27L46 27L46 26L45 26L45 25L46 25L46 24L47 24L47 23L49 23L49 21L48 21L48 22L46 22L46 21L45 21L45 22L46 22L46 24L45 24L45 25L44 25L44 20L43 20L43 18L44 18L44 15L42 15L42 16L41 16L41 15L39 15L39 14L45 14L45 17L47 17L47 16L48 16L48 15L49 15L49 14L50 14L50 12L49 12L49 13L47 13L47 14L45 14L45 13L44 13L44 11L43 11L43 13L39 13L39 12L41 12L41 11L40 11L40 9L39 9L39 10L38 10L38 9L37 9L37 8L35 8L35 5L34 5L34 4L32 4L32 3ZM44 3L44 6L43 6L43 7L44 7L44 6L45 6L45 4L46 4L46 5L47 5L47 3ZM23 4L23 5L24 5L24 4ZM25 4L25 8L26 8L26 4ZM18 5L18 6L17 6L17 7L16 7L16 8L14 8L14 10L15 10L15 11L18 11L18 10L19 10L19 9L18 9L18 8L19 8L19 7L20 7L20 5ZM27 5L27 8L30 8L30 5ZM9 6L9 7L10 7L10 9L12 9L12 11L11 11L11 12L12 12L12 13L11 13L11 14L12 14L12 13L13 13L13 16L14 16L14 14L15 14L15 13L16 13L16 12L15 12L15 13L13 13L13 12L14 12L14 11L13 11L13 9L12 9L12 8L11 8L11 7L10 7L10 6ZM18 6L18 7L19 7L19 6ZM21 6L21 7L22 7L22 6ZM28 6L28 7L29 7L29 6ZM40 6L40 7L41 7L41 6ZM16 8L16 9L17 9L17 10L18 10L18 9L17 9L17 8ZM55 8L55 9L56 9L56 8ZM1 9L1 10L2 10L2 11L4 11L4 10L2 10L2 9ZM45 9L45 10L47 10L47 9ZM32 10L32 11L33 11L33 10ZM37 10L37 11L38 11L38 10ZM9 11L9 12L8 12L8 13L9 13L9 14L10 14L10 13L9 13L9 12L10 12L10 11ZM12 11L12 12L13 12L13 11ZM1 12L1 14L3 14L3 12ZM17 12L17 13L18 13L18 12ZM52 12L52 13L53 13L53 12ZM6 13L6 14L7 14L7 13ZM22 13L22 14L23 14L23 13ZM31 13L31 14L30 14L30 15L31 15L31 16L32 16L32 18L30 18L30 19L33 19L33 18L35 18L35 19L34 19L34 20L32 20L32 21L31 21L31 20L27 20L27 19L28 19L28 18L27 18L27 17L28 17L28 16L27 16L27 17L26 17L26 18L27 18L27 19L26 19L26 20L25 20L25 21L24 21L24 22L23 22L23 23L24 23L24 24L25 24L25 25L26 25L26 26L27 26L27 25L29 25L29 26L30 26L30 25L29 25L29 23L30 23L30 22L29 22L29 21L31 21L31 24L32 24L32 23L33 23L33 22L34 22L34 23L35 23L35 19L36 19L36 20L38 20L38 22L37 22L37 24L38 24L38 22L39 22L39 24L40 24L40 22L39 22L39 21L42 21L42 20L38 20L38 19L39 19L39 17L41 17L41 16L39 16L39 17L38 17L38 18L37 18L37 17L35 17L35 16L33 16L33 15L31 15L31 14L32 14L32 13ZM38 13L38 14L39 14L39 13ZM53 14L53 15L55 15L55 14ZM8 16L8 17L10 17L10 18L9 18L9 19L11 19L11 17L10 17L10 16ZM42 16L42 17L43 17L43 16ZM3 18L3 19L4 19L4 18ZM41 18L41 19L42 19L42 18ZM1 19L1 20L2 20L2 21L3 21L3 20L2 20L2 19ZM13 19L13 20L14 20L14 19ZM10 21L10 22L11 22L11 21ZM25 21L25 22L26 22L26 23L25 23L25 24L28 24L28 23L27 23L27 22L28 22L28 21ZM51 21L51 22L50 22L50 23L51 23L51 24L53 24L53 22L54 22L54 21ZM18 22L18 23L20 23L20 22ZM6 24L6 25L7 25L7 24ZM9 24L9 25L10 25L10 24ZM19 25L19 26L22 26L22 25ZM1 26L1 27L2 27L2 26ZM53 26L53 27L54 27L54 26ZM5 27L5 30L8 30L8 27ZM27 27L27 30L30 30L30 27ZM41 27L41 28L42 28L42 27ZM49 27L49 30L52 30L52 27ZM6 28L6 29L7 29L7 28ZM25 28L25 29L26 29L26 28ZM28 28L28 29L29 29L29 28ZM50 28L50 29L51 29L51 28ZM54 28L54 29L53 29L53 32L54 32L54 31L55 31L55 30L54 30L54 29L55 29L55 28ZM40 29L40 30L44 30L44 29ZM32 30L32 31L30 31L30 32L29 32L29 31L28 31L28 32L29 32L29 33L31 33L31 32L32 32L32 31L33 31L33 30ZM38 30L38 32L39 32L39 30ZM13 31L13 32L14 32L14 31ZM48 32L48 33L49 33L49 32ZM20 33L20 34L21 34L21 33ZM25 33L25 35L26 35L26 33ZM15 34L15 35L16 35L16 34ZM42 34L42 35L43 35L43 36L40 36L40 37L39 37L39 36L38 36L38 39L35 39L35 40L38 40L38 42L39 42L39 43L40 43L40 44L39 44L39 45L38 45L38 46L39 46L39 45L41 45L41 44L42 44L42 43L41 43L41 41L42 41L42 40L43 40L43 39L45 39L45 40L44 40L44 41L45 41L45 40L46 40L46 39L47 39L47 37L45 37L45 36L44 36L44 35L45 35L45 34ZM50 34L50 35L52 35L52 34ZM43 36L43 37L40 37L40 38L43 38L43 37L44 37L44 38L45 38L45 39L46 39L46 38L45 38L45 37L44 37L44 36ZM19 38L19 39L20 39L20 38ZM52 38L52 39L53 39L53 38ZM38 39L38 40L39 40L39 39ZM41 39L41 40L42 40L42 39ZM17 40L17 41L15 41L15 42L17 42L17 43L18 43L18 42L19 42L19 43L20 43L20 44L19 44L19 45L20 45L20 46L21 46L21 45L22 45L22 46L23 46L23 45L22 45L22 44L21 44L21 43L22 43L22 42L21 42L21 41L20 41L20 40L19 40L19 41L18 41L18 40ZM17 41L17 42L18 42L18 41ZM19 41L19 42L20 42L20 41ZM39 41L39 42L40 42L40 41ZM43 42L43 44L44 44L44 45L45 45L45 44L46 44L46 43L45 43L45 42ZM25 43L25 44L27 44L27 43ZM20 44L20 45L21 45L21 44ZM13 45L13 47L11 47L11 46L10 46L10 47L11 47L11 48L13 48L13 49L14 49L14 48L15 48L15 49L16 49L16 48L15 48L15 47L14 47L14 46L15 46L15 45ZM26 45L26 47L27 47L27 46L28 46L28 45ZM36 45L36 46L37 46L37 45ZM1 46L1 47L2 47L2 46ZM3 46L3 47L5 47L5 46ZM24 47L24 48L25 48L25 47ZM38 47L38 48L37 48L37 49L38 49L38 48L39 48L39 47ZM42 47L42 48L43 48L43 47ZM54 48L54 49L55 49L55 50L54 50L54 51L55 51L55 50L56 50L56 48ZM27 49L27 52L30 52L30 49ZM49 49L49 52L52 52L52 49ZM14 50L14 52L15 52L15 53L16 53L16 52L17 52L17 50L16 50L16 52L15 52L15 50ZM23 50L23 51L21 51L21 52L22 52L22 53L24 53L24 54L23 54L23 55L24 55L24 56L25 56L25 53L24 53L24 52L26 52L26 50ZM28 50L28 51L29 51L29 50ZM50 50L50 51L51 51L51 50ZM31 51L31 53L30 53L30 54L27 54L27 53L26 53L26 55L27 55L27 56L29 56L29 55L30 55L30 56L31 56L31 54L32 54L32 53L33 53L33 54L35 54L35 56L36 56L36 54L35 54L35 51L33 51L33 52L32 52L32 51ZM33 52L33 53L34 53L34 52ZM53 52L53 54L54 54L54 52ZM43 53L43 54L44 54L44 53ZM17 54L17 55L18 55L18 54ZM37 55L37 56L39 56L39 55ZM50 55L50 56L51 56L51 55ZM14 56L14 57L15 57L15 56ZM0 0L0 7L7 7L7 0ZM1 1L1 6L6 6L6 1ZM2 2L2 5L5 5L5 2ZM50 0L50 7L57 7L57 0ZM51 1L51 6L56 6L56 1ZM52 2L52 5L55 5L55 2ZM0 50L0 57L7 57L7 50ZM1 51L1 56L6 56L6 51ZM2 52L2 55L5 55L5 52Z" fill="#000000"/></g></g></svg>
