<?xml version="1.0" encoding="UTF-8"?>
<svg xmlns="http://www.w3.org/2000/svg" version="1.1" width="300" height="300" viewBox="0 0 300 300"><rect x="0" y="0" width="300" height="300" fill="#fefefe"/><g transform="scale(4.615)"><g transform="translate(4,4)"><path fill-rule="evenodd" d="M10 0L10 2L9 2L9 1L8 1L8 2L9 2L9 3L8 3L8 4L9 4L9 5L8 5L8 7L9 7L9 5L11 5L11 3L12 3L12 1L13 1L13 0ZM17 0L17 1L14 1L14 2L13 2L13 4L14 4L14 2L17 2L17 4L18 4L18 5L17 5L17 6L16 6L16 7L15 7L15 5L16 5L16 4L15 4L15 5L14 5L14 7L15 7L15 8L16 8L16 9L17 9L17 10L18 10L18 11L15 11L15 10L13 10L13 11L12 11L12 12L13 12L13 13L15 13L15 14L12 14L12 15L11 15L11 13L10 13L10 12L8 12L8 11L10 11L10 9L9 9L9 8L6 8L6 9L5 9L5 8L0 8L0 9L1 9L1 10L3 10L3 11L2 11L2 12L3 12L3 13L4 13L4 12L5 12L5 14L6 14L6 15L4 15L4 14L2 14L2 15L1 15L1 14L0 14L0 15L1 15L1 17L0 17L0 20L1 20L1 18L3 18L3 17L2 17L2 15L4 15L4 17L8 17L8 19L7 19L7 18L6 18L6 19L4 19L4 20L3 20L3 19L2 19L2 20L3 20L3 22L2 22L2 21L1 21L1 22L2 22L2 24L1 24L1 23L0 23L0 24L1 24L1 26L0 26L0 27L1 27L1 29L2 29L2 30L1 30L1 31L0 31L0 35L1 35L1 38L0 38L0 41L2 41L2 40L3 40L3 41L4 41L4 42L3 42L3 43L4 43L4 44L2 44L2 45L3 45L3 46L2 46L2 47L1 47L1 46L0 46L0 48L5 48L5 47L7 47L7 48L6 48L6 49L7 49L7 48L8 48L8 51L9 51L9 50L10 50L10 49L11 49L11 50L12 50L12 49L11 49L11 48L12 48L12 47L13 47L13 48L16 48L16 49L15 49L15 50L14 50L14 49L13 49L13 50L14 50L14 51L15 51L15 50L16 50L16 49L17 49L17 51L18 51L18 52L17 52L17 53L16 53L16 52L15 52L15 53L16 53L16 54L14 54L14 52L11 52L11 51L10 51L10 52L8 52L8 57L9 57L9 55L10 55L10 56L11 56L11 57L12 57L12 56L13 56L13 57L16 57L16 56L17 56L17 57L19 57L19 56L18 56L18 55L17 55L17 54L19 54L19 55L20 55L20 54L19 54L19 53L20 53L20 52L22 52L22 51L21 51L21 50L25 50L25 49L26 49L26 52L24 52L24 53L21 53L21 54L22 54L22 55L21 55L21 56L24 56L24 55L23 55L23 54L24 54L24 53L27 53L27 54L30 54L30 53L31 53L31 50L33 50L33 49L32 49L32 48L33 48L33 47L35 47L35 46L33 46L33 45L32 45L32 44L33 44L33 43L34 43L34 45L37 45L37 47L36 47L36 48L34 48L34 49L36 49L36 50L34 50L34 51L32 51L32 52L33 52L33 53L32 53L32 54L31 54L31 56L30 56L30 55L29 55L29 56L27 56L27 57L29 57L29 56L30 56L30 57L31 57L31 56L35 56L35 57L39 57L39 56L40 56L40 55L41 55L41 54L42 54L42 55L44 55L44 54L45 54L45 55L49 55L49 56L48 56L48 57L49 57L49 56L50 56L50 57L52 57L52 55L51 55L51 53L52 53L52 54L53 54L53 57L54 57L54 56L55 56L55 57L56 57L56 56L55 56L55 55L54 55L54 54L53 54L53 52L54 52L54 53L57 53L57 51L56 51L56 50L55 50L55 48L56 48L56 49L57 49L57 48L56 48L56 46L57 46L57 45L56 45L56 44L55 44L55 43L56 43L56 41L53 41L53 40L55 40L55 39L57 39L57 37L56 37L56 36L55 36L55 35L56 35L56 33L57 33L57 32L56 32L56 30L57 30L57 27L56 27L56 26L57 26L57 25L56 25L56 22L57 22L57 19L56 19L56 16L57 16L57 15L56 15L56 14L57 14L57 12L56 12L56 8L55 8L55 10L54 10L54 11L53 11L53 9L54 9L54 8L53 8L53 9L52 9L52 8L51 8L51 10L49 10L49 9L50 9L50 8L47 8L47 10L46 10L46 9L45 9L45 10L44 10L44 8L46 8L46 7L47 7L47 5L48 5L48 0L46 0L46 1L45 1L45 2L44 2L44 3L43 3L43 4L42 4L42 2L43 2L43 0L41 0L41 1L40 1L40 0L39 0L39 1L38 1L38 0L37 0L37 1L38 1L38 2L39 2L39 3L41 3L41 4L40 4L40 5L39 5L39 6L38 6L38 3L36 3L36 0L35 0L35 1L31 1L31 0L28 0L28 1L26 1L26 0L23 0L23 2L22 2L22 0L21 0L21 1L20 1L20 0L19 0L19 1L18 1L18 0ZM28 1L28 2L23 2L23 3L22 3L22 2L19 2L19 4L21 4L21 7L22 7L22 8L19 8L19 7L20 7L20 5L18 5L18 6L17 6L17 7L16 7L16 8L17 8L17 7L18 7L18 8L19 8L19 9L20 9L20 10L19 10L19 12L20 12L20 15L19 15L19 14L17 14L17 13L18 13L18 12L17 12L17 13L16 13L16 12L15 12L15 13L16 13L16 16L14 16L14 15L12 15L12 17L11 17L11 19L12 19L12 18L13 18L13 19L14 19L14 20L13 20L13 21L14 21L14 26L13 26L13 22L12 22L12 21L9 21L9 19L8 19L8 20L7 20L7 19L6 19L6 20L7 20L7 21L5 21L5 20L4 20L4 22L7 22L7 23L6 23L6 24L5 24L5 23L3 23L3 24L2 24L2 25L3 25L3 24L5 24L5 26L7 26L7 25L6 25L6 24L7 24L7 23L8 23L8 24L9 24L9 23L8 23L8 21L9 21L9 22L10 22L10 25L11 25L11 22L12 22L12 26L13 26L13 27L11 27L11 26L10 26L10 27L11 27L11 28L10 28L10 29L9 29L9 31L6 31L6 32L8 32L8 35L5 35L5 34L7 34L7 33L5 33L5 34L3 34L3 35L2 35L2 32L1 32L1 35L2 35L2 37L3 37L3 38L2 38L2 39L1 39L1 40L2 40L2 39L3 39L3 38L7 38L7 39L6 39L6 40L5 40L5 39L4 39L4 41L5 41L5 42L7 42L7 43L6 43L6 44L4 44L4 46L3 46L3 47L5 47L5 45L6 45L6 46L7 46L7 45L9 45L9 44L10 44L10 43L11 43L11 45L10 45L10 46L9 46L9 47L8 47L8 48L9 48L9 47L10 47L10 48L11 48L11 45L12 45L12 46L13 46L13 47L14 47L14 46L13 46L13 45L12 45L12 44L14 44L14 45L15 45L15 46L17 46L17 48L20 48L20 47L18 47L18 46L17 46L17 45L18 45L18 44L17 44L17 45L16 45L16 42L17 42L17 43L18 43L18 42L19 42L19 41L17 41L17 40L19 40L19 39L20 39L20 38L19 38L19 37L21 37L21 40L20 40L20 42L21 42L21 43L20 43L20 44L21 44L21 45L19 45L19 46L21 46L21 45L22 45L22 46L23 46L23 47L21 47L21 49L19 49L19 50L21 50L21 49L23 49L23 48L24 48L24 49L25 49L25 47L26 47L26 48L29 48L29 46L30 46L30 45L31 45L31 47L33 47L33 46L32 46L32 45L31 45L31 44L32 44L32 43L33 43L33 42L34 42L34 43L37 43L37 42L35 42L35 40L38 40L38 42L39 42L39 45L38 45L38 46L39 46L39 47L38 47L38 48L37 48L37 49L38 49L38 50L36 50L36 52L38 52L38 50L41 50L41 52L40 52L40 51L39 51L39 53L38 53L38 54L40 54L40 53L43 53L43 54L44 54L44 53L45 53L45 54L48 54L48 50L47 50L47 49L48 49L48 48L49 48L49 47L48 47L48 46L50 46L50 48L51 48L51 46L53 46L53 47L52 47L52 48L53 48L53 47L55 47L55 46L56 46L56 45L55 45L55 44L54 44L54 45L51 45L51 46L50 46L50 43L51 43L51 44L53 44L53 43L54 43L54 42L53 42L53 41L51 41L51 42L50 42L50 43L47 43L47 42L48 42L48 41L49 41L49 39L51 39L51 38L52 38L52 39L54 39L54 38L53 38L53 35L55 35L55 34L54 34L54 33L56 33L56 32L54 32L54 31L53 31L53 32L54 32L54 33L52 33L52 31L48 31L48 30L47 30L47 29L46 29L46 30L47 30L47 31L46 31L46 32L47 32L47 33L45 33L45 32L43 32L43 31L44 31L44 29L45 29L45 28L46 28L46 27L47 27L47 25L46 25L46 24L47 24L47 23L48 23L48 24L49 24L49 25L50 25L50 26L53 26L53 27L54 27L54 26L53 26L53 23L52 23L52 24L51 24L51 23L50 23L50 22L51 22L51 21L53 21L53 22L56 22L56 19L55 19L55 20L53 20L53 19L52 19L52 20L51 20L51 21L49 21L49 20L47 20L47 17L45 17L45 15L44 15L44 14L47 14L47 13L49 13L49 12L50 12L50 14L49 14L49 15L48 15L48 16L49 16L49 17L50 17L50 19L51 19L51 18L55 18L55 17L53 17L53 16L52 16L52 15L51 15L51 17L50 17L50 14L51 14L51 12L50 12L50 11L48 11L48 10L47 10L47 12L45 12L45 11L46 11L46 10L45 10L45 11L43 11L43 10L41 10L41 9L43 9L43 8L44 8L44 6L45 6L45 7L46 7L46 5L47 5L47 3L44 3L44 6L43 6L43 7L42 7L42 6L41 6L41 5L40 5L40 6L39 6L39 7L40 7L40 8L38 8L38 10L37 10L37 9L35 9L35 8L37 8L37 7L38 7L38 6L37 6L37 7L36 7L36 5L37 5L37 4L36 4L36 5L35 5L35 4L33 4L33 3L35 3L35 2L33 2L33 3L32 3L32 2L31 2L31 1ZM46 1L46 2L47 2L47 1ZM28 2L28 3L27 3L27 4L26 4L26 3L23 3L23 4L22 4L22 3L21 3L21 4L22 4L22 5L23 5L23 6L22 6L22 7L23 7L23 6L24 6L24 8L23 8L23 9L21 9L21 10L20 10L20 12L22 12L22 13L21 13L21 15L24 15L24 16L25 16L25 17L22 17L22 16L20 16L20 17L19 17L19 16L16 16L16 17L19 17L19 18L16 18L16 19L15 19L15 21L16 21L16 22L15 22L15 23L16 23L16 24L15 24L15 25L16 25L16 24L17 24L17 25L18 25L18 26L17 26L17 27L18 27L18 26L20 26L20 27L19 27L19 28L20 28L20 29L18 29L18 28L16 28L16 29L15 29L15 32L14 32L14 29L12 29L12 28L11 28L11 29L10 29L10 31L9 31L9 32L10 32L10 31L12 31L12 30L13 30L13 32L11 32L11 33L9 33L9 35L8 35L8 36L6 36L6 37L7 37L7 38L8 38L8 39L9 39L9 40L10 40L10 41L8 41L8 40L6 40L6 41L8 41L8 43L7 43L7 44L6 44L6 45L7 45L7 44L9 44L9 43L10 43L10 42L11 42L11 40L12 40L12 41L13 41L13 42L12 42L12 43L14 43L14 42L15 42L15 41L13 41L13 39L10 39L10 38L8 38L8 37L10 37L10 36L13 36L13 37L12 37L12 38L13 38L13 37L14 37L14 40L16 40L16 39L15 39L15 38L16 38L16 37L15 37L15 36L16 36L16 35L15 35L15 33L17 33L17 34L18 34L18 37L17 37L17 38L18 38L18 37L19 37L19 35L20 35L20 32L18 32L18 31L20 31L20 29L22 29L22 28L20 28L20 27L22 27L22 26L24 26L24 27L25 27L25 28L26 28L26 29L23 29L23 30L25 30L25 31L24 31L24 32L25 32L25 33L23 33L23 34L24 34L24 36L23 36L23 37L24 37L24 38L23 38L23 39L24 39L24 40L25 40L25 37L26 37L26 35L27 35L27 34L25 34L25 33L27 33L27 31L29 31L29 32L28 32L28 33L29 33L29 34L30 34L30 36L29 36L29 37L31 37L31 38L29 38L29 39L33 39L33 40L35 40L35 39L37 39L37 38L38 38L38 40L39 40L39 38L38 38L38 37L40 37L40 38L41 38L41 39L42 39L42 40L43 40L43 41L40 41L40 42L41 42L41 43L42 43L42 44L41 44L41 45L40 45L40 47L39 47L39 48L38 48L38 49L39 49L39 48L41 48L41 50L42 50L42 52L43 52L43 53L44 53L44 52L45 52L45 53L47 53L47 50L43 50L43 49L44 49L44 48L43 48L43 47L42 47L42 48L41 48L41 46L43 46L43 45L44 45L44 47L47 47L47 48L48 48L48 47L47 47L47 46L45 46L45 45L47 45L47 43L46 43L46 42L45 42L45 43L46 43L46 44L45 44L45 45L44 45L44 44L43 44L43 43L44 43L44 40L45 40L45 39L46 39L46 41L47 41L47 39L49 39L49 38L50 38L50 37L51 37L51 36L52 36L52 35L53 35L53 34L52 34L52 33L51 33L51 32L50 32L50 34L49 34L49 35L50 35L50 37L49 37L49 38L48 38L48 37L47 37L47 39L46 39L46 38L45 38L45 37L46 37L46 36L45 36L45 35L47 35L47 34L45 34L45 35L44 35L44 33L43 33L43 32L41 32L41 33L39 33L39 34L40 34L40 35L38 35L38 33L37 33L37 32L35 32L35 34L37 34L37 35L38 35L38 37L37 37L37 36L35 36L35 35L34 35L34 36L35 36L35 38L33 38L33 37L32 37L32 36L33 36L33 34L32 34L32 31L35 31L35 30L37 30L37 29L38 29L38 28L42 28L42 26L44 26L44 28L43 28L43 29L41 29L41 30L43 30L43 29L44 29L44 28L45 28L45 27L46 27L46 26L44 26L44 24L43 24L43 23L44 23L44 20L46 20L46 19L45 19L45 18L44 18L44 15L42 15L42 16L41 16L41 15L40 15L40 14L43 14L43 13L44 13L44 12L43 12L43 13L40 13L40 12L41 12L41 11L40 11L40 9L39 9L39 10L38 10L38 11L37 11L37 10L36 10L36 12L35 12L35 13L37 13L37 14L38 14L38 15L39 15L39 16L38 16L38 17L37 17L37 16L35 16L35 14L33 14L33 13L34 13L34 12L33 12L33 13L32 13L32 11L33 11L33 10L32 10L32 8L31 8L31 4L32 4L32 5L33 5L33 6L32 6L32 7L33 7L33 9L34 9L34 8L35 8L35 5L33 5L33 4L32 4L32 3L31 3L31 2ZM28 3L28 4L30 4L30 3ZM23 4L23 5L24 5L24 4ZM25 4L25 8L26 8L26 4ZM45 4L45 5L46 5L46 4ZM12 5L12 7L11 7L11 6L10 6L10 8L11 8L11 9L12 9L12 8L13 8L13 9L14 9L14 8L13 8L13 5ZM27 5L27 8L30 8L30 5ZM18 6L18 7L19 7L19 6ZM28 6L28 7L29 7L29 6ZM33 6L33 7L34 7L34 6ZM40 6L40 7L41 7L41 6ZM48 6L48 7L49 7L49 6ZM3 9L3 10L4 10L4 11L3 11L3 12L4 12L4 11L6 11L6 12L7 12L7 13L6 13L6 14L7 14L7 15L6 15L6 16L8 16L8 17L9 17L9 18L10 18L10 17L9 17L9 15L8 15L8 12L7 12L7 11L6 11L6 10L7 10L7 9L6 9L6 10L5 10L5 9ZM8 9L8 10L9 10L9 9ZM28 9L28 10L27 10L27 11L26 11L26 12L25 12L25 10L23 10L23 13L22 13L22 14L23 14L23 13L24 13L24 12L25 12L25 13L26 13L26 14L24 14L24 15L26 15L26 18L27 18L27 19L26 19L26 21L28 21L28 22L27 22L27 23L29 23L29 22L30 22L30 24L32 24L32 26L31 26L31 28L32 28L32 30L31 30L31 31L30 31L30 32L29 32L29 33L31 33L31 31L32 31L32 30L35 30L35 28L33 28L33 27L34 27L34 26L36 26L36 28L37 28L37 27L39 27L39 26L42 26L42 25L43 25L43 24L42 24L42 25L41 25L41 24L40 24L40 22L39 22L39 21L41 21L41 20L39 20L39 21L38 21L38 19L39 19L39 17L41 17L41 16L39 16L39 17L38 17L38 18L37 18L37 17L35 17L35 16L32 16L32 15L31 15L31 14L32 14L32 13L31 13L31 11L32 11L32 10L31 10L31 11L30 11L30 10L29 10L29 9ZM21 10L21 11L22 11L22 10ZM51 10L51 11L52 11L52 10ZM13 11L13 12L14 12L14 11ZM27 11L27 12L26 12L26 13L28 13L28 14L29 14L29 16L28 16L28 15L27 15L27 14L26 14L26 15L27 15L27 16L28 16L28 17L27 17L27 18L28 18L28 19L27 19L27 20L29 20L29 21L30 21L30 22L31 22L31 21L32 21L32 20L33 20L33 19L34 19L34 20L35 20L35 23L34 23L34 22L33 22L33 23L32 23L32 24L33 24L33 25L37 25L37 26L38 26L38 24L39 24L39 25L40 25L40 24L39 24L39 22L38 22L38 21L37 21L37 20L36 20L36 19L35 19L35 18L33 18L33 17L32 17L32 16L31 16L31 15L30 15L30 14L31 14L31 13L30 13L30 14L29 14L29 13L28 13L28 12L29 12L29 11ZM39 11L39 12L40 12L40 11ZM0 12L0 13L1 13L1 12ZM52 12L52 13L53 13L53 12ZM54 12L54 13L55 13L55 14L54 14L54 15L55 15L55 14L56 14L56 12ZM9 13L9 14L10 14L10 13ZM38 13L38 14L40 14L40 13ZM10 15L10 16L11 16L11 15ZM13 16L13 17L14 17L14 16ZM42 16L42 17L43 17L43 16ZM20 17L20 18L19 18L19 20L20 20L20 21L18 21L18 22L20 22L20 23L19 23L19 25L20 25L20 26L22 26L22 25L23 25L23 24L22 24L22 23L21 23L21 22L22 22L22 21L24 21L24 22L23 22L23 23L24 23L24 24L25 24L25 25L26 25L26 26L25 26L25 27L26 27L26 26L27 26L27 25L28 25L28 26L29 26L29 24L25 24L25 23L26 23L26 22L25 22L25 21L24 21L24 20L23 20L23 19L24 19L24 18L23 18L23 19L22 19L22 21L21 21L21 19L20 19L20 18L22 18L22 17ZM30 18L30 21L31 21L31 19L33 19L33 18ZM41 18L41 19L42 19L42 18ZM43 18L43 20L42 20L42 21L43 21L43 20L44 20L44 18ZM48 18L48 19L49 19L49 18ZM16 19L16 21L17 21L17 19ZM45 21L45 22L46 22L46 23L45 23L45 24L46 24L46 23L47 23L47 22L49 22L49 21L47 21L47 22L46 22L46 21ZM37 22L37 24L38 24L38 22ZM17 23L17 24L18 24L18 23ZM20 24L20 25L22 25L22 24ZM55 25L55 26L56 26L56 25ZM3 26L3 27L2 27L2 29L3 29L3 30L2 30L2 31L3 31L3 32L5 32L5 31L4 31L4 26ZM14 26L14 27L13 27L13 28L15 28L15 27L16 27L16 26ZM32 26L32 27L33 27L33 26ZM5 27L5 30L8 30L8 27ZM27 27L27 30L30 30L30 27ZM49 27L49 30L52 30L52 27ZM55 27L55 28L54 28L54 29L53 29L53 30L55 30L55 29L56 29L56 27ZM6 28L6 29L7 29L7 28ZM28 28L28 29L29 29L29 28ZM50 28L50 29L51 29L51 28ZM16 29L16 30L18 30L18 29ZM39 29L39 30L38 30L38 32L39 32L39 30L40 30L40 29ZM21 31L21 32L23 32L23 31ZM25 31L25 32L26 32L26 31ZM47 31L47 32L48 32L48 33L49 33L49 32L48 32L48 31ZM17 32L17 33L18 33L18 34L19 34L19 33L18 33L18 32ZM11 33L11 34L12 34L12 33ZM13 33L13 36L15 36L15 35L14 35L14 33ZM21 33L21 34L22 34L22 33ZM31 34L31 35L32 35L32 34ZM42 34L42 35L41 35L41 36L40 36L40 37L41 37L41 38L42 38L42 39L45 39L45 38L44 38L44 37L45 37L45 36L44 36L44 35L43 35L43 34ZM50 34L50 35L52 35L52 34ZM9 35L9 36L10 36L10 35ZM3 36L3 37L4 37L4 36ZM41 36L41 37L42 37L42 38L43 38L43 37L44 37L44 36ZM27 37L27 38L26 38L26 40L28 40L28 39L27 39L27 38L28 38L28 37ZM30 40L30 41L29 41L29 42L27 42L27 41L26 41L26 42L27 42L27 43L25 43L25 41L23 41L23 42L22 42L22 41L21 41L21 42L22 42L22 43L21 43L21 44L22 44L22 45L24 45L24 46L25 46L25 45L24 45L24 43L25 43L25 44L27 44L27 45L26 45L26 47L28 47L28 46L27 46L27 45L28 45L28 44L31 44L31 43L32 43L32 42L33 42L33 41L32 41L32 40ZM31 41L31 42L32 42L32 41ZM0 42L0 45L1 45L1 43L2 43L2 42ZM23 42L23 43L24 43L24 42ZM51 42L51 43L53 43L53 42ZM54 45L54 46L55 46L55 45ZM42 48L42 49L43 49L43 48ZM45 48L45 49L46 49L46 48ZM27 49L27 52L30 52L30 49ZM49 49L49 52L52 52L52 49ZM28 50L28 51L29 51L29 50ZM50 50L50 51L51 51L51 50ZM54 50L54 51L55 51L55 50ZM19 51L19 52L20 52L20 51ZM45 51L45 52L46 52L46 51ZM9 53L9 54L10 54L10 55L11 55L11 56L12 56L12 55L13 55L13 56L14 56L14 55L13 55L13 54L12 54L12 55L11 55L11 54L10 54L10 53ZM33 53L33 55L35 55L35 56L36 56L36 54L35 54L35 53ZM25 54L25 55L26 55L26 54ZM15 55L15 56L16 56L16 55ZM37 55L37 56L39 56L39 55ZM50 55L50 56L51 56L51 55ZM25 56L25 57L26 57L26 56ZM43 56L43 57L44 57L44 56ZM46 56L46 57L47 57L47 56ZM0 0L0 7L7 7L7 0ZM1 1L1 6L6 6L6 1ZM2 2L2 5L5 5L5 2ZM50 0L50 7L57 7L57 0ZM51 1L51 6L56 6L56 1ZM52 2L52 5L55 5L55 2ZM0 50L0 57L7 57L7 50ZM1 51L1 56L6 56L6 51ZM2 52L2 55L5 55L5 52Z" fill="#000000"/></g></g></svg>
