<?xml version="1.0" encoding="UTF-8"?>
<svg xmlns="http://www.w3.org/2000/svg" version="1.1" width="300" height="300" viewBox="0 0 300 300"><rect x="0" y="0" width="300" height="300" fill="#fefefe"/><g transform="scale(4.615)"><g transform="translate(4,4)"><path fill-rule="evenodd" d="M8 0L8 2L9 2L9 0ZM12 0L12 1L10 1L10 3L9 3L9 4L8 4L8 11L7 11L7 10L6 10L6 9L7 9L7 8L5 8L5 10L4 10L4 9L3 9L3 8L0 8L0 10L3 10L3 11L4 11L4 12L2 12L2 11L1 11L1 12L0 12L0 13L1 13L1 15L0 15L0 16L1 16L1 17L0 17L0 18L1 18L1 19L2 19L2 18L3 18L3 17L9 17L9 16L10 16L10 14L11 14L11 17L10 17L10 18L8 18L8 19L10 19L10 21L8 21L8 20L5 20L5 22L6 22L6 23L7 23L7 24L5 24L5 23L4 23L4 22L3 22L3 21L4 21L4 20L0 20L0 22L1 22L1 23L0 23L0 28L1 28L1 29L0 29L0 33L2 33L2 35L1 35L1 36L2 36L2 39L1 39L1 38L0 38L0 48L5 48L5 47L7 47L7 48L6 48L6 49L8 49L8 50L10 50L10 51L8 51L8 52L10 52L10 54L11 54L11 53L12 53L12 51L13 51L13 50L11 50L11 47L12 47L12 46L11 46L11 47L10 47L10 49L9 49L9 48L8 48L8 47L9 47L9 46L8 46L8 45L11 45L11 44L9 44L9 42L10 42L10 43L11 43L11 41L12 41L12 43L13 43L13 42L15 42L15 43L14 43L14 44L12 44L12 45L13 45L13 46L16 46L16 47L15 47L15 48L14 48L14 47L13 47L13 48L14 48L14 53L13 53L13 54L12 54L12 55L13 55L13 56L15 56L15 57L17 57L17 55L16 55L16 54L18 54L18 53L19 53L19 52L18 52L18 51L19 51L19 50L18 50L18 49L19 49L19 48L18 48L18 49L17 49L17 51L16 51L16 47L17 47L17 46L18 46L18 45L19 45L19 46L20 46L20 47L21 47L21 48L22 48L22 51L24 51L24 52L21 52L21 51L20 51L20 53L21 53L21 54L20 54L20 55L21 55L21 54L23 54L23 55L22 55L22 57L25 57L25 55L26 55L26 57L28 57L28 55L29 55L29 57L33 57L33 55L34 55L34 57L35 57L35 55L37 55L37 54L38 54L38 53L39 53L39 56L40 56L40 57L41 57L41 56L44 56L44 57L46 57L46 56L44 56L44 55L45 55L45 54L46 54L46 53L49 53L49 54L48 54L48 56L47 56L47 57L50 57L50 55L49 55L49 54L52 54L52 55L53 55L53 53L55 53L55 52L54 52L54 51L53 51L53 50L54 50L54 49L56 49L56 47L57 47L57 45L56 45L56 44L57 44L57 42L56 42L56 41L57 41L57 40L54 40L54 39L55 39L55 38L57 38L57 37L56 37L56 36L54 36L54 34L53 34L53 36L52 36L52 37L51 37L51 33L50 33L50 32L51 32L51 31L52 31L52 32L53 32L53 33L54 33L54 30L56 30L56 31L55 31L55 34L56 34L56 35L57 35L57 34L56 34L56 31L57 31L57 24L56 24L56 23L57 23L57 13L56 13L56 11L57 11L57 10L56 10L56 9L57 9L57 8L55 8L55 9L54 9L54 10L52 10L52 9L53 9L53 8L48 8L48 7L49 7L49 6L48 6L48 7L47 7L47 5L48 5L48 0L42 0L42 1L41 1L41 0L38 0L38 2L37 2L37 1L35 1L35 0L34 0L34 2L33 2L33 3L34 3L34 8L32 8L32 9L31 9L31 5L32 5L32 1L33 1L33 0L32 0L32 1L31 1L31 0L30 0L30 1L28 1L28 2L27 2L27 0L26 0L26 1L25 1L25 0L24 0L24 1L23 1L23 0L20 0L20 1L19 1L19 2L18 2L18 0L16 0L16 1L14 1L14 0ZM13 1L13 3L11 3L11 5L9 5L9 9L10 9L10 12L11 12L11 11L12 11L12 12L13 12L13 13L11 13L11 14L14 14L14 15L12 15L12 16L13 16L13 17L12 17L12 19L11 19L11 18L10 18L10 19L11 19L11 20L12 20L12 19L13 19L13 18L14 18L14 15L15 15L15 18L17 18L17 19L18 19L18 20L17 20L17 21L18 21L18 20L19 20L19 23L18 23L18 22L16 22L16 23L17 23L17 25L16 25L16 24L14 24L14 26L13 26L13 29L12 29L12 27L10 27L10 28L9 28L9 29L10 29L10 30L11 30L11 31L10 31L10 32L11 32L11 33L10 33L10 34L9 34L9 36L11 36L11 37L10 37L10 38L7 38L7 37L8 37L8 34L7 34L7 33L8 33L8 32L7 32L7 31L6 31L6 32L5 32L5 33L4 33L4 28L2 28L2 26L3 26L3 25L4 25L4 26L7 26L7 25L8 25L8 24L7 24L7 25L4 25L4 24L3 24L3 25L2 25L2 26L1 26L1 28L2 28L2 30L1 30L1 32L2 32L2 33L4 33L4 34L3 34L3 35L2 35L2 36L3 36L3 35L4 35L4 36L5 36L5 37L4 37L4 38L3 38L3 40L1 40L1 42L2 42L2 41L3 41L3 42L4 42L4 41L3 41L3 40L4 40L4 39L5 39L5 37L6 37L6 38L7 38L7 39L6 39L6 40L5 40L5 42L9 42L9 41L8 41L8 40L7 40L7 39L9 39L9 40L10 40L10 39L11 39L11 40L12 40L12 39L13 39L13 38L12 38L12 39L11 39L11 37L14 37L14 38L15 38L15 41L16 41L16 43L17 43L17 42L18 42L18 40L19 40L19 38L17 38L17 37L16 37L16 35L17 35L17 36L20 36L20 34L22 34L22 36L21 36L21 38L20 38L20 39L21 39L21 41L20 41L20 42L19 42L19 43L18 43L18 44L19 44L19 43L20 43L20 46L22 46L22 48L23 48L23 49L24 49L24 51L25 51L25 54L24 54L24 55L25 55L25 54L26 54L26 55L28 55L28 53L27 53L27 54L26 54L26 51L25 51L25 49L26 49L26 48L31 48L31 50L32 50L32 48L31 48L31 47L32 47L32 40L33 40L33 41L34 41L34 42L35 42L35 41L36 41L36 44L33 44L33 45L34 45L34 47L35 47L35 48L34 48L34 50L35 50L35 51L37 51L37 53L36 53L36 52L34 52L34 51L33 51L33 52L34 52L34 54L35 54L35 53L36 53L36 54L37 54L37 53L38 53L38 52L39 52L39 53L40 53L40 52L39 52L39 49L40 49L40 51L41 51L41 52L42 52L42 54L40 54L40 56L41 56L41 55L42 55L42 54L43 54L43 55L44 55L44 52L42 52L42 51L41 51L41 49L42 49L42 50L45 50L45 53L46 53L46 51L47 51L47 52L48 52L48 51L47 51L47 49L44 49L44 48L45 48L45 46L44 46L44 44L45 44L45 43L48 43L48 42L49 42L49 44L48 44L48 45L49 45L49 47L50 47L50 48L53 48L53 45L55 45L55 46L54 46L54 48L55 48L55 47L56 47L56 45L55 45L55 44L56 44L56 42L55 42L55 41L54 41L54 40L53 40L53 39L54 39L54 38L53 38L53 37L54 37L54 36L53 36L53 37L52 37L52 39L51 39L51 40L48 40L48 38L47 38L47 37L46 37L46 38L45 38L45 43L41 43L41 45L40 45L40 42L41 42L41 41L42 41L42 42L44 42L44 39L43 39L43 38L44 38L44 34L45 34L45 33L44 33L44 34L43 34L43 33L42 33L42 31L44 31L44 27L46 27L46 26L47 26L47 28L46 28L46 29L45 29L45 30L46 30L46 31L45 31L45 32L47 32L47 30L48 30L48 29L47 29L47 28L48 28L48 26L49 26L49 25L50 25L50 26L52 26L52 24L53 24L53 22L54 22L54 26L55 26L55 27L54 27L54 28L53 28L53 30L54 30L54 29L56 29L56 24L55 24L55 23L56 23L56 21L55 21L55 20L56 20L56 19L54 19L54 16L55 16L55 17L56 17L56 16L55 16L55 15L56 15L56 13L55 13L55 11L56 11L56 10L55 10L55 11L54 11L54 12L53 12L53 14L52 14L52 13L50 13L50 11L51 11L51 12L52 12L52 10L51 10L51 9L50 9L50 11L49 11L49 9L48 9L48 10L47 10L47 9L46 9L46 8L47 8L47 7L46 7L46 5L47 5L47 3L46 3L46 5L44 5L44 4L45 4L45 2L47 2L47 1L42 1L42 2L40 2L40 1L39 1L39 2L40 2L40 4L39 4L39 3L38 3L38 4L37 4L37 2L35 2L35 3L36 3L36 4L35 4L35 9L34 9L34 10L33 10L33 9L32 9L32 12L30 12L30 10L31 10L31 9L30 9L30 10L28 10L28 9L27 9L27 10L25 10L25 9L26 9L26 5L24 5L24 6L23 6L23 5L22 5L22 4L23 4L23 3L22 3L22 2L21 2L21 3L20 3L20 2L19 2L19 3L18 3L18 2L17 2L17 1L16 1L16 2L17 2L17 3L16 3L16 4L17 4L17 5L16 5L16 6L15 6L15 7L14 7L14 6L13 6L13 7L14 7L14 8L11 8L11 7L12 7L12 4L13 4L13 3L14 3L14 4L15 4L15 3L14 3L14 1ZM24 1L24 4L25 4L25 1ZM28 2L28 4L29 4L29 3L30 3L30 2ZM43 2L43 4L42 4L42 3L41 3L41 4L42 4L42 5L43 5L43 6L42 6L42 7L41 7L41 6L40 6L40 7L39 7L39 6L38 6L38 9L37 9L37 6L36 6L36 10L34 10L34 11L33 11L33 12L32 12L32 13L31 13L31 14L32 14L32 13L33 13L33 15L34 15L34 17L33 17L33 16L32 16L32 15L31 15L31 16L30 16L30 15L29 15L29 13L30 13L30 12L29 12L29 11L28 11L28 10L27 10L27 11L28 11L28 12L27 12L27 13L26 13L26 11L24 11L24 9L25 9L25 8L24 8L24 9L23 9L23 6L22 6L22 5L20 5L20 7L19 7L19 4L18 4L18 3L17 3L17 4L18 4L18 5L17 5L17 6L16 6L16 7L17 7L17 8L18 8L18 9L19 9L19 10L17 10L17 14L15 14L15 15L17 15L17 18L18 18L18 19L19 19L19 18L20 18L20 17L21 17L21 19L20 19L20 21L21 21L21 19L22 19L22 22L20 22L20 23L21 23L21 24L22 24L22 25L21 25L21 26L20 26L20 27L18 27L18 28L21 28L21 30L20 30L20 29L19 29L19 30L15 30L15 27L16 27L16 28L17 28L17 27L16 27L16 25L15 25L15 26L14 26L14 29L13 29L13 30L12 30L12 29L11 29L11 28L10 28L10 29L11 29L11 30L12 30L12 31L11 31L11 32L12 32L12 33L11 33L11 34L10 34L10 35L11 35L11 36L13 36L13 35L14 35L14 37L15 37L15 34L16 34L16 31L17 31L17 32L18 32L18 33L19 33L19 34L20 34L20 32L21 32L21 30L22 30L22 33L23 33L23 35L25 35L25 36L24 36L24 37L25 37L25 36L28 36L28 37L29 37L29 36L28 36L28 35L31 35L31 36L30 36L30 41L29 41L29 40L27 40L27 39L26 39L26 40L25 40L25 41L26 41L26 42L24 42L24 43L22 43L22 44L24 44L24 45L23 45L23 47L24 47L24 48L25 48L25 47L26 47L26 46L27 46L27 47L28 47L28 44L29 44L29 43L28 43L28 41L29 41L29 42L30 42L30 45L29 45L29 46L30 46L30 47L31 47L31 42L30 42L30 41L31 41L31 38L33 38L33 39L34 39L34 41L35 41L35 39L34 39L34 37L35 37L35 38L36 38L36 41L37 41L37 42L38 42L38 41L39 41L39 38L40 38L40 39L42 39L42 41L43 41L43 39L42 39L42 35L40 35L40 36L38 36L38 35L39 35L39 34L38 34L38 33L39 33L39 32L40 32L40 34L42 34L42 33L41 33L41 32L40 32L40 30L41 30L41 31L42 31L42 28L43 28L43 27L44 27L44 26L46 26L46 25L47 25L47 26L48 26L48 25L49 25L49 24L50 24L50 25L51 25L51 24L52 24L52 22L53 22L53 21L54 21L54 22L55 22L55 21L54 21L54 19L53 19L53 20L52 20L52 22L51 22L51 23L50 23L50 22L49 22L49 23L48 23L48 21L49 21L49 20L51 20L51 19L52 19L52 17L53 17L53 16L54 16L54 15L55 15L55 14L54 14L54 15L52 15L52 14L51 14L51 15L50 15L50 13L49 13L49 14L48 14L48 11L46 11L46 13L45 13L45 12L44 12L44 13L43 13L43 14L44 14L44 13L45 13L45 15L46 15L46 16L44 16L44 15L43 15L43 16L44 16L44 17L43 17L43 18L42 18L42 17L41 17L41 15L42 15L42 12L43 12L43 10L44 10L44 9L45 9L45 10L46 10L46 9L45 9L45 8L46 8L46 7L45 7L45 6L44 6L44 5L43 5L43 4L44 4L44 2ZM21 3L21 4L22 4L22 3ZM26 3L26 4L27 4L27 3ZM38 4L38 5L39 5L39 4ZM27 5L27 8L30 8L30 5ZM10 6L10 7L11 7L11 6ZM17 6L17 7L18 7L18 8L19 8L19 7L18 7L18 6ZM21 6L21 7L22 7L22 6ZM24 6L24 7L25 7L25 6ZM28 6L28 7L29 7L29 6ZM32 6L32 7L33 7L33 6ZM43 6L43 9L42 9L42 8L41 8L41 7L40 7L40 8L39 8L39 9L38 9L38 10L37 10L37 11L36 11L36 12L35 12L35 11L34 11L34 12L35 12L35 13L34 13L34 15L35 15L35 17L34 17L34 18L33 18L33 17L32 17L32 16L31 16L31 17L30 17L30 16L29 16L29 15L28 15L28 14L26 14L26 13L25 13L25 12L24 12L24 11L23 11L23 9L22 9L22 8L21 8L21 9L20 9L20 10L19 10L19 11L18 11L18 12L19 12L19 13L18 13L18 14L17 14L17 15L18 15L18 16L19 16L19 17L20 17L20 16L21 16L21 15L20 15L20 14L22 14L22 16L24 16L24 18L25 18L25 19L24 19L24 20L25 20L25 19L26 19L26 20L27 20L27 22L26 22L26 23L27 23L27 25L26 25L26 26L28 26L28 24L29 24L29 25L30 25L30 26L31 26L31 25L32 25L32 27L31 27L31 30L32 30L32 31L31 31L31 32L30 32L30 34L31 34L31 33L32 33L32 35L33 35L33 37L34 37L34 35L35 35L35 37L36 37L36 38L37 38L37 37L36 37L36 35L38 35L38 34L37 34L37 33L36 33L36 31L37 31L37 32L38 32L38 31L39 31L39 30L40 30L40 28L41 28L41 27L43 27L43 25L44 25L44 24L45 24L45 25L46 25L46 23L47 23L47 21L48 21L48 20L49 20L49 17L48 17L48 16L46 16L46 18L45 18L45 17L44 17L44 19L42 19L42 20L41 20L41 21L42 21L42 22L40 22L40 19L41 19L41 18L40 18L40 14L41 14L41 13L40 13L40 14L39 14L39 12L37 12L37 11L38 11L38 10L40 10L40 8L41 8L41 9L42 9L42 10L43 10L43 9L44 9L44 6ZM10 8L10 9L11 9L11 10L12 10L12 11L13 11L13 10L14 10L14 9L15 9L15 11L14 11L14 12L16 12L16 8L14 8L14 9L13 9L13 10L12 10L12 9L11 9L11 8ZM20 10L20 11L21 11L21 10ZM5 11L5 12L4 12L4 13L3 13L3 14L5 14L5 15L4 15L4 16L9 16L9 15L8 15L8 14L10 14L10 13L9 13L9 11L8 11L8 14L7 14L7 13L5 13L5 12L7 12L7 11ZM22 11L22 12L23 12L23 14L24 14L24 12L23 12L23 11ZM41 11L41 12L42 12L42 11ZM20 12L20 13L19 13L19 14L20 14L20 13L21 13L21 12ZM36 12L36 13L37 13L37 14L36 14L36 18L34 18L34 19L33 19L33 18L32 18L32 17L31 17L31 20L32 20L32 21L33 21L33 22L31 22L31 23L32 23L32 25L33 25L33 26L34 26L34 24L36 24L36 26L37 26L37 28L36 28L36 27L34 27L34 29L33 29L33 28L32 28L32 29L33 29L33 31L32 31L32 33L33 33L33 35L34 35L34 33L35 33L35 35L36 35L36 33L35 33L35 32L34 32L34 33L33 33L33 31L34 31L34 29L35 29L35 28L36 28L36 30L35 30L35 31L36 31L36 30L37 30L37 31L38 31L38 30L37 30L37 28L38 28L38 29L39 29L39 28L40 28L40 25L41 25L41 26L42 26L42 25L43 25L43 22L44 22L44 23L46 23L46 20L48 20L48 19L46 19L46 20L45 20L45 19L44 19L44 21L43 21L43 22L42 22L42 25L41 25L41 23L39 23L39 22L38 22L38 21L39 21L39 19L40 19L40 18L38 18L38 16L37 16L37 15L38 15L38 13L37 13L37 12ZM46 13L46 15L48 15L48 14L47 14L47 13ZM6 14L6 15L7 15L7 14ZM2 15L2 16L3 16L3 15ZM25 15L25 18L26 18L26 15ZM49 15L49 16L50 16L50 19L51 19L51 17L52 17L52 15L51 15L51 16L50 16L50 15ZM28 17L28 18L30 18L30 17ZM47 17L47 18L48 18L48 17ZM4 18L4 19L7 19L7 18ZM36 18L36 19L37 19L37 18ZM14 19L14 20L16 20L16 19ZM28 19L28 21L29 21L29 19ZM35 20L35 21L34 21L34 22L33 22L33 24L34 24L34 22L35 22L35 23L36 23L36 24L37 24L37 25L38 25L38 26L39 26L39 23L38 23L38 22L37 22L37 21L38 21L38 20L37 20L37 21L36 21L36 20ZM1 21L1 22L2 22L2 21ZM6 21L6 22L8 22L8 23L10 23L10 25L9 25L9 26L12 26L12 24L13 24L13 22L12 22L12 21L11 21L11 22L8 22L8 21ZM14 21L14 22L15 22L15 21ZM35 21L35 22L36 22L36 23L37 23L37 22L36 22L36 21ZM44 21L44 22L45 22L45 21ZM22 22L22 24L23 24L23 25L24 25L24 27L22 27L22 28L23 28L23 29L22 29L22 30L23 30L23 31L24 31L24 34L26 34L26 35L28 35L28 34L29 34L29 32L26 32L26 30L25 30L25 29L24 29L24 28L25 28L25 25L24 25L24 24L23 24L23 22ZM24 22L24 23L25 23L25 22ZM28 22L28 23L29 23L29 24L30 24L30 25L31 25L31 24L30 24L30 23L29 23L29 22ZM1 23L1 24L2 24L2 23ZM11 23L11 24L12 24L12 23ZM18 24L18 26L19 26L19 24ZM5 27L5 30L8 30L8 27ZM27 27L27 30L30 30L30 27ZM49 27L49 30L52 30L52 27ZM6 28L6 29L7 29L7 28ZM28 28L28 29L29 29L29 28ZM50 28L50 29L51 29L51 28ZM23 29L23 30L24 30L24 29ZM14 30L14 32L13 32L13 31L12 31L12 32L13 32L13 34L11 34L11 35L13 35L13 34L15 34L15 33L14 33L14 32L15 32L15 30ZM2 31L2 32L3 32L3 31ZM18 31L18 32L20 32L20 31ZM6 32L6 33L7 33L7 32ZM25 32L25 33L26 33L26 34L28 34L28 33L26 33L26 32ZM46 33L46 34L48 34L48 35L47 35L47 36L48 36L48 37L49 37L49 36L50 36L50 33L49 33L49 34L48 34L48 33ZM5 34L5 36L6 36L6 37L7 37L7 36L6 36L6 35L7 35L7 34ZM17 34L17 35L18 35L18 34ZM48 35L48 36L49 36L49 35ZM22 36L22 38L21 38L21 39L22 39L22 38L23 38L23 36ZM31 36L31 37L32 37L32 36ZM38 37L38 38L39 38L39 37ZM16 38L16 39L17 39L17 38ZM24 38L24 39L25 39L25 38ZM28 38L28 39L29 39L29 38ZM46 38L46 41L48 41L48 40L47 40L47 38ZM37 39L37 41L38 41L38 39ZM6 40L6 41L7 41L7 40ZM22 40L22 41L23 41L23 40ZM40 40L40 41L41 41L41 40ZM51 40L51 41L49 41L49 42L50 42L50 45L51 45L51 46L50 46L50 47L52 47L52 45L51 45L51 44L52 44L52 40ZM53 41L53 44L54 44L54 43L55 43L55 42L54 42L54 41ZM1 43L1 44L2 44L2 45L1 45L1 47L2 47L2 46L3 46L3 47L5 47L5 46L7 46L7 47L8 47L8 46L7 46L7 45L8 45L8 44L7 44L7 43L5 43L5 46L3 46L3 45L4 45L4 43ZM37 43L37 44L36 44L36 46L35 46L35 47L36 47L36 46L38 46L38 45L37 45L37 44L39 44L39 43ZM6 44L6 45L7 45L7 44ZM14 44L14 45L16 45L16 46L17 46L17 45L16 45L16 44ZM42 44L42 45L41 45L41 47L40 47L40 45L39 45L39 47L40 47L40 49L41 49L41 47L42 47L42 45L43 45L43 44ZM46 44L46 47L47 47L47 44ZM24 45L24 46L26 46L26 45ZM43 46L43 47L44 47L44 46ZM37 47L37 48L36 48L36 49L37 49L37 51L38 51L38 47ZM27 49L27 52L30 52L30 49ZM49 49L49 52L52 52L52 49ZM28 50L28 51L29 51L29 50ZM50 50L50 51L51 51L51 50ZM56 50L56 51L57 51L57 50ZM10 51L10 52L11 52L11 51ZM15 51L15 52L16 52L16 51ZM31 51L31 52L32 52L32 51ZM17 52L17 53L18 53L18 52ZM56 52L56 53L57 53L57 52ZM14 53L14 54L15 54L15 53ZM31 53L31 54L30 54L30 55L33 55L33 54L32 54L32 53ZM8 54L8 57L12 57L12 56L9 56L9 54ZM54 54L54 55L57 55L57 54ZM18 56L18 57L21 57L21 56ZM36 56L36 57L37 57L37 56ZM51 56L51 57L53 57L53 56ZM56 56L56 57L57 57L57 56ZM0 0L0 7L7 7L7 0ZM1 1L1 6L6 6L6 1ZM2 2L2 5L5 5L5 2ZM50 0L50 7L57 7L57 0ZM51 1L51 6L56 6L56 1ZM52 2L52 5L55 5L55 2ZM0 50L0 57L7 57L7 50ZM1 51L1 56L6 56L6 51ZM2 52L2 55L5 55L5 52Z" fill="#000000"/></g></g></svg>
