<?xml version="1.0" encoding="UTF-8"?>
<svg xmlns="http://www.w3.org/2000/svg" version="1.1" width="300" height="300" viewBox="0 0 300 300"><rect x="0" y="0" width="300" height="300" fill="#fefefe"/><g transform="scale(4.615)"><g transform="translate(4,4)"><path fill-rule="evenodd" d="M14 0L14 2L13 2L13 1L12 1L12 2L11 2L11 3L10 3L10 1L8 1L8 2L9 2L9 3L8 3L8 4L9 4L9 5L8 5L8 7L9 7L9 8L6 8L6 9L7 9L7 10L6 10L6 11L7 11L7 12L4 12L4 11L5 11L5 8L0 8L0 11L2 11L2 13L0 13L0 14L2 14L2 15L3 15L3 16L1 16L1 15L0 15L0 19L1 19L1 21L3 21L3 23L5 23L5 24L4 24L4 25L3 25L3 24L1 24L1 26L0 26L0 29L1 29L1 30L0 30L0 31L1 31L1 32L0 32L0 33L3 33L3 35L4 35L4 36L1 36L1 35L0 35L0 39L1 39L1 40L2 40L2 41L3 41L3 43L2 43L2 44L1 44L1 41L0 41L0 45L2 45L2 47L1 47L1 46L0 46L0 48L5 48L5 47L7 47L7 48L6 48L6 49L7 49L7 48L8 48L8 47L11 47L11 48L13 48L13 47L11 47L11 45L10 45L10 46L8 46L8 45L7 45L7 44L5 44L5 42L4 42L4 41L9 41L9 42L10 42L10 44L14 44L14 45L13 45L13 46L14 46L14 45L15 45L15 43L14 43L14 42L15 42L15 41L16 41L16 39L14 39L14 40L12 40L12 39L11 39L11 40L8 40L8 38L6 38L6 37L9 37L9 36L8 36L8 34L6 34L6 33L9 33L9 34L10 34L10 32L8 32L8 31L9 31L9 29L10 29L10 31L12 31L12 30L14 30L14 28L15 28L15 27L13 27L13 26L15 26L15 25L16 25L16 24L17 24L17 25L18 25L18 26L16 26L16 27L18 27L18 26L20 26L20 27L22 27L22 26L24 26L24 27L23 27L23 30L25 30L25 31L21 31L21 32L20 32L20 29L22 29L22 28L20 28L20 29L18 29L18 28L16 28L16 29L15 29L15 33L18 33L18 34L17 34L17 35L16 35L16 36L17 36L17 38L20 38L20 39L19 39L19 40L17 40L17 41L19 41L19 42L18 42L18 43L16 43L16 45L17 45L17 46L15 46L15 47L14 47L14 48L15 48L15 49L13 49L13 50L11 50L11 51L10 51L10 48L9 48L9 49L8 49L8 51L9 51L9 52L8 52L8 57L9 57L9 53L10 53L10 52L11 52L11 54L12 54L12 55L10 55L10 56L12 56L12 55L13 55L13 57L16 57L16 56L17 56L17 57L20 57L20 56L18 56L18 55L17 55L17 54L19 54L19 55L20 55L20 54L19 54L19 53L20 53L20 52L23 52L23 50L25 50L25 51L26 51L26 52L24 52L24 53L23 53L23 54L22 54L22 56L24 56L24 57L26 57L26 56L27 56L27 57L29 57L29 56L30 56L30 57L31 57L31 56L35 56L35 57L39 57L39 56L37 56L37 55L41 55L41 57L44 57L44 56L42 56L42 55L44 55L44 54L45 54L45 55L47 55L47 56L48 56L48 57L49 57L49 56L50 56L50 57L52 57L52 55L51 55L51 53L52 53L52 54L53 54L53 55L54 55L54 56L53 56L53 57L54 57L54 56L55 56L55 57L56 57L56 56L55 56L55 55L54 55L54 54L53 54L53 52L54 52L54 53L55 53L55 51L56 51L56 52L57 52L57 51L56 51L56 50L55 50L55 48L56 48L56 49L57 49L57 48L56 48L56 46L57 46L57 45L56 45L56 44L55 44L55 43L56 43L56 42L55 42L55 41L53 41L53 40L55 40L55 39L57 39L57 37L56 37L56 36L55 36L55 35L56 35L56 33L57 33L57 32L56 32L56 30L57 30L57 29L56 29L56 26L57 26L57 25L56 25L56 22L57 22L57 19L56 19L56 18L57 18L57 17L56 17L56 16L57 16L57 15L56 15L56 14L57 14L57 12L56 12L56 14L55 14L55 13L54 13L54 12L55 12L55 11L56 11L56 10L54 10L54 11L52 11L52 10L53 10L53 9L54 9L54 8L53 8L53 9L52 9L52 8L51 8L51 9L52 9L52 10L50 10L50 8L49 8L49 6L48 6L48 8L46 8L46 7L47 7L47 5L48 5L48 0L46 0L46 1L45 1L45 2L44 2L44 3L43 3L43 4L40 4L40 5L39 5L39 6L38 6L38 4L37 4L37 3L41 3L41 2L43 2L43 0L41 0L41 1L40 1L40 0L39 0L39 1L38 1L38 0L37 0L37 1L38 1L38 2L37 2L37 3L36 3L36 0L35 0L35 1L32 1L32 0L29 0L29 2L28 2L28 1L25 1L25 0L23 0L23 2L22 2L22 3L23 3L23 4L24 4L24 5L22 5L22 4L19 4L19 2L20 2L20 0L19 0L19 1L18 1L18 0L17 0L17 1L18 1L18 2L17 2L17 3L18 3L18 4L17 4L17 5L18 5L18 4L19 4L19 5L20 5L20 7L19 7L19 6L18 6L18 7L17 7L17 6L16 6L16 7L15 7L15 5L16 5L16 4L15 4L15 5L14 5L14 8L13 8L13 6L12 6L12 5L13 5L13 4L14 4L14 2L15 2L15 3L16 3L16 1L15 1L15 0ZM21 0L21 1L22 1L22 0ZM46 1L46 2L47 2L47 1ZM23 2L23 3L26 3L26 4L25 4L25 8L24 8L24 6L23 6L23 8L20 8L20 10L19 10L19 9L16 9L16 8L17 8L17 7L16 7L16 8L14 8L14 9L12 9L12 6L11 6L11 7L10 7L10 6L9 6L9 7L10 7L10 8L9 8L9 10L8 10L8 11L10 11L10 10L11 10L11 13L12 13L12 14L11 14L11 15L10 15L10 16L9 16L9 15L8 15L8 14L7 14L7 13L10 13L10 12L7 12L7 13L6 13L6 14L7 14L7 15L5 15L5 13L4 13L4 16L5 16L5 17L2 17L2 18L1 18L1 19L2 19L2 20L3 20L3 19L4 19L4 18L8 18L8 19L6 19L6 20L9 20L9 22L10 22L10 23L6 23L6 22L7 22L7 21L4 21L4 22L5 22L5 23L6 23L6 24L7 24L7 25L5 25L5 26L9 26L9 27L10 27L10 28L12 28L12 29L13 29L13 27L11 27L11 26L10 26L10 25L9 25L9 24L10 24L10 23L11 23L11 22L10 22L10 20L12 20L12 22L13 22L13 23L12 23L12 24L13 24L13 25L12 25L12 26L13 26L13 25L15 25L15 24L16 24L16 23L15 23L15 24L14 24L14 22L16 22L16 21L18 21L18 23L19 23L19 25L20 25L20 26L22 26L22 25L24 25L24 24L25 24L25 25L26 25L26 26L25 26L25 27L26 27L26 26L27 26L27 25L29 25L29 26L30 26L30 25L31 25L31 24L32 24L32 26L31 26L31 28L32 28L32 29L31 29L31 31L30 31L30 32L29 32L29 33L28 33L28 32L26 32L26 31L25 31L25 32L21 32L21 33L20 33L20 32L19 32L19 31L17 31L17 32L19 32L19 33L20 33L20 34L19 34L19 35L20 35L20 36L19 36L19 37L22 37L22 40L20 40L20 42L19 42L19 43L20 43L20 44L21 44L21 45L19 45L19 46L21 46L21 45L22 45L22 46L23 46L23 47L20 47L20 48L21 48L21 49L20 49L20 51L22 51L22 50L21 50L21 49L23 49L23 48L24 48L24 49L25 49L25 50L26 50L26 49L25 49L25 48L27 48L27 47L28 47L28 48L30 48L30 47L29 47L29 46L30 46L30 44L29 44L29 45L27 45L27 44L28 44L28 43L27 43L27 42L30 42L30 40L32 40L32 41L31 41L31 42L32 42L32 43L33 43L33 44L32 44L32 46L31 46L31 47L33 47L33 46L36 46L36 45L34 45L34 43L37 43L37 42L35 42L35 40L38 40L38 42L39 42L39 44L40 44L40 45L38 45L38 46L39 46L39 47L38 47L38 48L37 48L37 49L38 49L38 50L36 50L36 49L34 49L34 48L36 48L36 47L34 47L34 48L31 48L31 49L33 49L33 50L32 50L32 51L31 51L31 53L30 53L30 54L27 54L27 56L29 56L29 55L30 55L30 56L31 56L31 54L32 54L32 53L33 53L33 55L35 55L35 56L36 56L36 54L35 54L35 51L33 51L33 50L36 50L36 52L38 52L38 53L37 53L37 54L40 54L40 53L41 53L41 52L43 52L43 51L44 51L44 50L45 50L45 51L47 51L47 52L44 52L44 53L43 53L43 54L44 54L44 53L45 53L45 54L47 54L47 53L48 53L48 50L47 50L47 49L48 49L48 48L51 48L51 47L52 47L52 48L53 48L53 46L54 46L54 45L55 45L55 46L56 46L56 45L55 45L55 44L54 44L54 45L52 45L52 44L53 44L53 43L54 43L54 42L53 42L53 41L51 41L51 42L50 42L50 43L49 43L49 42L48 42L48 41L49 41L49 39L52 39L52 40L53 40L53 39L54 39L54 38L53 38L53 35L55 35L55 34L54 34L54 33L56 33L56 32L54 32L54 30L53 30L53 32L54 32L54 33L52 33L52 32L51 32L51 31L50 31L50 32L49 32L49 31L48 31L48 30L47 30L47 29L48 29L48 28L47 28L47 29L46 29L46 30L47 30L47 31L46 31L46 32L47 32L47 33L45 33L45 32L43 32L43 30L44 30L44 31L45 31L45 30L44 30L44 29L45 29L45 28L46 28L46 27L48 27L48 26L47 26L47 25L50 25L50 26L51 26L51 25L53 25L53 24L49 24L49 23L50 23L50 22L51 22L51 21L54 21L54 23L55 23L55 22L56 22L56 19L55 19L55 20L53 20L53 19L52 19L52 18L55 18L55 16L51 16L51 17L50 17L50 14L51 14L51 12L50 12L50 10L49 10L49 11L47 11L47 12L45 12L45 11L46 11L46 10L48 10L48 9L49 9L49 8L48 8L48 9L46 9L46 8L44 8L44 6L45 6L45 7L46 7L46 5L47 5L47 3L44 3L44 6L43 6L43 7L42 7L42 6L41 6L41 5L40 5L40 6L39 6L39 7L40 7L40 8L38 8L38 10L37 10L37 9L35 9L35 8L37 8L37 7L38 7L38 6L37 6L37 7L36 7L36 5L37 5L37 4L36 4L36 5L35 5L35 2L33 2L33 3L32 3L32 2L31 2L31 3L32 3L32 4L31 4L31 8L32 8L32 10L29 10L29 12L28 12L28 13L26 13L26 12L27 12L27 11L26 11L26 12L25 12L25 11L24 11L24 12L25 12L25 14L23 14L23 13L22 13L22 12L21 12L21 13L20 13L20 12L19 12L19 13L20 13L20 14L17 14L17 13L18 13L18 12L17 12L17 11L18 11L18 10L19 10L19 11L22 11L22 10L23 10L23 8L24 8L24 9L25 9L25 8L26 8L26 4L30 4L30 3L27 3L27 2ZM12 3L12 4L13 4L13 3ZM33 3L33 4L32 4L32 5L33 5L33 6L32 6L32 7L33 7L33 9L34 9L34 8L35 8L35 5L33 5L33 4L34 4L34 3ZM45 4L45 5L46 5L46 4ZM27 5L27 8L30 8L30 5ZM21 6L21 7L22 7L22 6ZM28 6L28 7L29 7L29 6ZM33 6L33 7L34 7L34 6ZM40 6L40 7L41 7L41 6ZM10 8L10 9L11 9L11 8ZM43 8L43 9L41 9L41 10L39 10L39 11L37 11L37 10L36 10L36 11L37 11L37 12L35 12L35 13L36 13L36 14L32 14L32 11L33 11L33 10L32 10L32 11L31 11L31 13L30 13L30 14L29 14L29 13L28 13L28 14L29 14L29 16L28 16L28 15L27 15L27 16L28 16L28 17L27 17L27 18L28 18L28 19L29 19L29 20L31 20L31 21L29 21L29 22L28 22L28 23L30 23L30 22L31 22L31 21L32 21L32 20L34 20L34 21L35 21L35 23L32 23L32 24L33 24L33 25L37 25L37 26L38 26L38 25L39 25L39 26L41 26L41 28L42 28L42 26L43 26L43 27L44 27L44 28L43 28L43 29L39 29L39 30L38 30L38 32L39 32L39 31L40 31L40 30L43 30L43 29L44 29L44 28L45 28L45 27L44 27L44 26L43 26L43 25L44 25L44 20L45 20L45 21L48 21L48 22L45 22L45 25L47 25L47 23L49 23L49 21L51 21L51 20L52 20L52 19L49 19L49 18L50 18L50 17L47 17L47 18L46 18L46 16L48 16L48 15L49 15L49 14L50 14L50 12L49 12L49 13L47 13L47 14L43 14L43 13L44 13L44 11L45 11L45 9L44 9L44 8ZM55 8L55 9L56 9L56 8ZM21 9L21 10L22 10L22 9ZM43 9L43 10L41 10L41 12L39 12L39 13L38 13L38 14L37 14L37 15L35 15L35 16L32 16L32 15L31 15L31 14L30 14L30 15L31 15L31 16L32 16L32 18L30 18L30 19L36 19L36 20L37 20L37 21L38 21L38 22L37 22L37 24L39 24L39 25L41 25L41 24L42 24L42 25L43 25L43 24L42 24L42 22L41 22L41 24L39 24L39 23L40 23L40 22L39 22L39 21L42 21L42 20L39 20L39 21L38 21L38 19L39 19L39 17L41 17L41 16L42 16L42 17L43 17L43 16L42 16L42 15L43 15L43 14L39 14L39 13L43 13L43 11L44 11L44 9ZM3 10L3 11L4 11L4 10ZM12 10L12 11L14 11L14 12L12 12L12 13L15 13L15 14L12 14L12 15L11 15L11 16L10 16L10 19L9 19L9 20L10 20L10 19L11 19L11 17L12 17L12 19L13 19L13 20L14 20L14 19L13 19L13 18L14 18L14 15L15 15L15 16L16 16L16 17L18 17L18 19L19 19L19 18L20 18L20 16L21 16L21 17L22 17L22 19L20 19L20 20L18 20L18 21L20 21L20 20L24 20L24 21L21 21L21 23L23 23L23 24L24 24L24 23L23 23L23 22L24 22L24 21L25 21L25 22L26 22L26 23L25 23L25 24L27 24L27 21L25 21L25 20L26 20L26 18L25 18L25 17L26 17L26 14L25 14L25 15L23 15L23 14L22 14L22 13L21 13L21 15L20 15L20 16L16 16L16 13L17 13L17 12L16 12L16 13L15 13L15 10ZM33 12L33 13L34 13L34 12ZM52 12L52 13L53 13L53 12ZM2 13L2 14L3 14L3 13ZM38 14L38 15L39 15L39 16L38 16L38 17L37 17L37 16L35 16L35 17L37 17L37 18L38 18L38 17L39 17L39 16L41 16L41 15L39 15L39 14ZM54 14L54 15L55 15L55 14ZM12 15L12 17L13 17L13 15ZM21 15L21 16L22 16L22 17L25 17L25 16L23 16L23 15ZM44 15L44 18L43 18L43 20L44 20L44 18L45 18L45 19L46 19L46 20L47 20L47 19L48 19L48 18L47 18L47 19L46 19L46 18L45 18L45 15ZM6 16L6 17L8 17L8 18L9 18L9 16ZM2 18L2 19L3 19L3 18ZM15 18L15 19L16 19L16 18ZM23 18L23 19L24 19L24 18ZM41 18L41 19L42 19L42 18ZM15 20L15 21L16 21L16 20ZM48 20L48 21L49 21L49 20ZM13 21L13 22L14 22L14 21ZM0 22L0 23L1 23L1 22ZM19 22L19 23L20 23L20 22ZM20 24L20 25L22 25L22 24ZM29 24L29 25L30 25L30 24ZM2 25L2 27L3 27L3 25ZM32 26L32 27L33 27L33 28L35 28L35 30L33 30L33 29L32 29L32 31L31 31L31 33L29 33L29 34L30 34L30 36L29 36L29 37L31 37L31 38L29 38L29 39L33 39L33 40L35 40L35 39L37 39L37 38L38 38L38 37L37 37L37 36L38 36L38 33L37 33L37 32L35 32L35 34L34 34L34 32L33 32L33 34L34 34L34 35L31 35L31 34L32 34L32 31L35 31L35 30L37 30L37 29L38 29L38 28L39 28L39 27L36 27L36 26L34 26L34 27L33 27L33 26ZM53 26L53 27L54 27L54 26ZM5 27L5 30L8 30L8 27ZM27 27L27 30L30 30L30 27ZM49 27L49 30L52 30L52 27ZM2 28L2 29L3 29L3 30L4 30L4 28ZM6 28L6 29L7 29L7 28ZM25 28L25 29L26 29L26 28ZM28 28L28 29L29 29L29 28ZM50 28L50 29L51 29L51 28ZM54 28L54 29L55 29L55 28ZM16 29L16 30L18 30L18 29ZM2 31L2 32L4 32L4 33L6 33L6 32L7 32L7 31ZM13 31L13 33L14 33L14 31ZM47 31L47 32L48 32L48 33L49 33L49 32L48 32L48 31ZM11 32L11 34L12 34L12 35L10 35L10 36L11 36L11 37L10 37L10 38L16 38L16 37L14 37L14 35L13 35L13 34L12 34L12 32ZM25 32L25 33L23 33L23 34L22 34L22 33L21 33L21 36L22 36L22 35L23 35L23 34L24 34L24 36L23 36L23 37L24 37L24 38L23 38L23 39L24 39L24 40L23 40L23 41L24 41L24 42L22 42L22 41L21 41L21 42L22 42L22 43L21 43L21 44L22 44L22 45L23 45L23 46L24 46L24 47L25 47L25 44L27 44L27 43L25 43L25 41L24 41L24 40L25 40L25 39L27 39L27 41L26 41L26 42L27 42L27 41L29 41L29 40L28 40L28 39L27 39L27 38L28 38L28 37L27 37L27 33L26 33L26 32ZM41 32L41 33L39 33L39 34L40 34L40 35L39 35L39 37L40 37L40 38L41 38L41 39L42 39L42 38L43 38L43 37L44 37L44 38L45 38L45 37L46 37L46 36L47 36L47 34L45 34L45 33L43 33L43 32ZM50 32L50 34L49 34L49 35L50 35L50 36L49 36L49 37L48 37L48 38L47 38L47 39L43 39L43 40L42 40L42 41L40 41L40 42L42 42L42 44L41 44L41 43L40 43L40 44L41 44L41 46L40 46L40 47L39 47L39 48L38 48L38 49L39 49L39 48L41 48L41 50L38 50L38 51L40 51L40 52L41 52L41 50L42 50L42 51L43 51L43 49L44 49L44 48L45 48L45 49L46 49L46 48L45 48L45 47L47 47L47 48L48 48L48 47L50 47L50 46L51 46L51 43L53 43L53 42L51 42L51 43L50 43L50 46L45 46L45 45L47 45L47 43L48 43L48 42L47 42L47 43L46 43L46 44L45 44L45 45L44 45L44 43L45 43L45 42L44 42L44 41L43 41L43 40L47 40L47 39L48 39L48 38L50 38L50 36L51 36L51 37L52 37L52 35L53 35L53 34L52 34L52 33L51 33L51 32ZM25 33L25 35L26 35L26 33ZM35 34L35 36L37 36L37 34ZM42 34L42 35L41 35L41 36L40 36L40 37L41 37L41 36L42 36L42 35L43 35L43 36L44 36L44 37L45 37L45 36L44 36L44 35L45 35L45 34ZM50 34L50 35L52 35L52 34ZM5 35L5 36L4 36L4 38L5 38L5 37L6 37L6 36L7 36L7 35ZM25 36L25 38L26 38L26 36ZM32 36L32 37L33 37L33 39L35 39L35 37L33 37L33 36ZM1 37L1 38L2 38L2 40L3 40L3 41L4 41L4 39L3 39L3 38L2 38L2 37ZM52 38L52 39L53 39L53 38ZM6 39L6 40L7 40L7 39ZM38 39L38 40L39 40L39 39ZM14 40L14 41L15 41L15 40ZM10 41L10 42L12 42L12 43L13 43L13 42L12 42L12 41ZM32 41L32 42L33 42L33 43L34 43L34 42L33 42L33 41ZM6 42L6 43L7 43L7 42ZM8 43L8 44L9 44L9 43ZM2 44L2 45L3 45L3 47L5 47L5 46L7 46L7 45L5 45L5 44L4 44L4 45L3 45L3 44ZM17 44L17 45L18 45L18 44ZM23 44L23 45L24 45L24 44ZM4 45L4 46L5 46L5 45ZM26 45L26 47L27 47L27 45ZM43 45L43 46L41 46L41 48L42 48L42 49L43 49L43 48L44 48L44 45ZM17 47L17 48L19 48L19 47ZM42 47L42 48L43 48L43 47ZM15 49L15 50L14 50L14 51L11 51L11 52L12 52L12 53L13 53L13 52L15 52L15 51L16 51L16 53L14 53L14 54L13 54L13 55L14 55L14 56L16 56L16 55L14 55L14 54L16 54L16 53L17 53L17 52L18 52L18 50L19 50L19 49ZM27 49L27 52L30 52L30 49ZM49 49L49 52L52 52L52 49ZM28 50L28 51L29 51L29 50ZM50 50L50 51L51 51L51 50ZM54 50L54 51L55 51L55 50ZM32 51L32 52L33 52L33 53L34 53L34 52L33 52L33 51ZM24 53L24 54L23 54L23 55L24 55L24 56L26 56L26 53ZM41 54L41 55L42 55L42 54ZM50 55L50 56L51 56L51 55ZM45 56L45 57L46 57L46 56ZM0 0L0 7L7 7L7 0ZM1 1L1 6L6 6L6 1ZM2 2L2 5L5 5L5 2ZM50 0L50 7L57 7L57 0ZM51 1L51 6L56 6L56 1ZM52 2L52 5L55 5L55 2ZM0 50L0 57L7 57L7 50ZM1 51L1 56L6 56L6 51ZM2 52L2 55L5 55L5 52Z" fill="#000000"/></g></g></svg>
