<?xml version="1.0" encoding="UTF-8"?>
<svg xmlns="http://www.w3.org/2000/svg" version="1.1" width="300" height="300" viewBox="0 0 300 300"><rect x="0" y="0" width="300" height="300" fill="#fefefe"/><g transform="scale(4.615)"><g transform="translate(4,4)"><path fill-rule="evenodd" d="M8 0L8 4L10 4L10 7L11 7L11 6L12 6L12 7L13 7L13 5L14 5L14 7L15 7L15 8L14 8L14 9L13 9L13 11L14 11L14 12L15 12L15 13L13 13L13 14L12 14L12 15L11 15L11 13L10 13L10 16L9 16L9 15L7 15L7 14L8 14L8 13L9 13L9 11L8 11L8 9L7 9L7 8L4 8L4 10L3 10L3 9L2 9L2 8L0 8L0 9L2 9L2 10L0 10L0 12L2 12L2 11L3 11L3 13L0 13L0 14L1 14L1 15L2 15L2 14L4 14L4 15L5 15L5 16L6 16L6 17L7 17L7 18L5 18L5 19L4 19L4 20L5 20L5 23L7 23L7 24L6 24L6 25L7 25L7 24L8 24L8 26L3 26L3 27L1 27L1 22L2 22L2 24L4 24L4 25L5 25L5 24L4 24L4 21L3 21L3 20L2 20L2 18L4 18L4 16L0 16L0 17L2 17L2 18L1 18L1 20L2 20L2 21L1 21L1 22L0 22L0 27L1 27L1 28L4 28L4 30L3 30L3 29L1 29L1 30L2 30L2 31L3 31L3 32L5 32L5 31L7 31L7 32L6 32L6 33L3 33L3 34L1 34L1 35L0 35L0 41L1 41L1 42L4 42L4 46L5 46L5 47L3 47L3 46L2 46L2 44L1 44L1 46L0 46L0 48L5 48L5 47L7 47L7 46L5 46L5 45L7 45L7 44L5 44L5 43L7 43L7 42L6 42L6 41L7 41L7 40L8 40L8 45L9 45L9 43L10 43L10 44L11 44L11 46L10 46L10 47L13 47L13 48L9 48L9 49L8 49L8 48L6 48L6 49L8 49L8 50L9 50L9 51L8 51L8 53L9 53L9 54L10 54L10 55L8 55L8 57L15 57L15 55L16 55L16 54L17 54L17 55L18 55L18 54L19 54L19 55L20 55L20 54L22 54L22 52L24 52L24 53L23 53L23 55L24 55L24 56L23 56L23 57L25 57L25 54L27 54L27 53L28 53L28 57L29 57L29 55L30 55L30 57L34 57L34 55L35 55L35 57L37 57L37 56L36 56L36 54L37 54L37 55L40 55L40 56L39 56L39 57L40 57L40 56L41 56L41 55L42 55L42 56L44 56L44 57L46 57L46 56L44 56L44 53L45 53L45 54L46 54L46 55L47 55L47 54L46 54L46 53L47 53L47 52L48 52L48 54L49 54L49 57L50 57L50 55L51 55L51 56L53 56L53 55L55 55L55 54L57 54L57 51L56 51L56 52L54 52L54 53L55 53L55 54L53 54L53 50L54 50L54 51L55 51L55 49L56 49L56 45L57 45L57 43L56 43L56 42L57 42L57 40L54 40L54 41L53 41L53 40L52 40L52 41L51 41L51 43L50 43L50 42L49 42L49 41L48 41L48 42L49 42L49 43L48 43L48 45L47 45L47 44L46 44L46 45L45 45L45 44L44 44L44 42L45 42L45 43L46 43L46 41L47 41L47 40L49 40L49 39L50 39L50 40L51 40L51 39L50 39L50 37L51 37L51 38L52 38L52 39L54 39L54 38L55 38L55 39L57 39L57 38L55 38L55 37L57 37L57 35L56 35L56 34L57 34L57 33L56 33L56 30L55 30L55 29L54 29L54 28L53 28L53 27L54 27L54 26L55 26L55 27L56 27L56 29L57 29L57 27L56 27L56 25L57 25L57 24L56 24L56 21L57 21L57 19L56 19L56 17L57 17L57 15L56 15L56 13L55 13L55 16L53 16L53 15L54 15L54 14L53 14L53 13L54 13L54 12L53 12L53 13L52 13L52 14L51 14L51 12L52 12L52 10L53 10L53 11L54 11L54 10L53 10L53 9L55 9L55 11L56 11L56 10L57 10L57 8L53 8L53 9L52 9L52 8L51 8L51 9L50 9L50 10L51 10L51 11L50 11L50 15L48 15L48 16L47 16L47 15L46 15L46 11L45 11L45 9L46 9L46 8L47 8L47 11L49 11L49 9L48 9L48 8L47 8L47 5L48 5L48 0L41 0L41 1L40 1L40 2L39 2L39 3L40 3L40 4L38 4L38 1L39 1L39 0L38 0L38 1L37 1L37 2L36 2L36 0L35 0L35 1L34 1L34 0L28 0L28 1L32 1L32 3L31 3L31 4L30 4L30 3L28 3L28 4L26 4L26 3L25 3L25 2L26 2L26 1L27 1L27 0L26 0L26 1L25 1L25 0L23 0L23 1L21 1L21 0L20 0L20 1L19 1L19 0L18 0L18 1L17 1L17 3L16 3L16 2L15 2L15 3L16 3L16 4L17 4L17 3L20 3L20 2L21 2L21 3L22 3L22 5L21 5L21 6L20 6L20 5L19 5L19 6L18 6L18 7L19 7L19 8L17 8L17 6L16 6L16 5L15 5L15 4L14 4L14 0L13 0L13 2L12 2L12 1L11 1L11 0L10 0L10 1L9 1L9 0ZM15 0L15 1L16 1L16 0ZM18 1L18 2L19 2L19 1ZM33 1L33 2L34 2L34 1ZM46 1L46 2L47 2L47 1ZM9 2L9 3L11 3L11 2ZM22 2L22 3L23 3L23 5L24 5L24 4L25 4L25 3L23 3L23 2ZM35 2L35 4L34 4L34 3L32 3L32 5L33 5L33 4L34 4L34 5L35 5L35 7L34 7L34 6L33 6L33 7L32 7L32 6L31 6L31 10L30 10L30 11L31 11L31 12L29 12L29 9L28 9L28 12L27 12L27 11L26 11L26 13L25 13L25 12L24 12L24 11L23 11L23 9L25 9L25 10L27 10L27 9L26 9L26 6L25 6L25 7L24 7L24 6L23 6L23 7L24 7L24 8L22 8L22 6L21 6L21 8L22 8L22 10L21 10L21 11L20 11L20 12L21 12L21 11L22 11L22 12L23 12L23 13L21 13L21 14L20 14L20 13L19 13L19 15L18 15L18 16L20 16L20 17L16 17L16 18L20 18L20 17L26 17L26 20L25 20L25 18L24 18L24 19L22 19L22 18L21 18L21 20L22 20L22 21L24 21L24 22L25 22L25 23L26 23L26 22L27 22L27 24L28 24L28 25L31 25L31 27L32 27L32 28L31 28L31 31L32 31L32 32L29 32L29 31L28 31L28 32L29 32L29 33L28 33L28 34L27 34L27 32L26 32L26 31L25 31L25 30L26 30L26 29L25 29L25 27L26 27L26 25L25 25L25 26L24 26L24 28L22 28L22 27L21 27L21 26L22 26L22 25L24 25L24 23L22 23L22 25L21 25L21 22L20 22L20 23L19 23L19 22L16 22L16 23L15 23L15 22L14 22L14 21L12 21L12 20L13 20L13 19L14 19L14 20L15 20L15 21L17 21L17 20L15 20L15 18L14 18L14 16L12 16L12 17L11 17L11 16L10 16L10 18L9 18L9 19L8 19L8 20L7 20L7 19L5 19L5 20L7 20L7 21L6 21L6 22L7 22L7 23L8 23L8 22L7 22L7 21L9 21L9 20L11 20L11 24L12 24L12 25L10 25L10 30L11 30L11 31L12 31L12 32L13 32L13 33L12 33L12 37L11 37L11 38L9 38L9 37L10 37L10 36L11 36L11 34L10 34L10 33L11 33L11 32L9 32L9 31L8 31L8 34L9 34L9 37L8 37L8 35L6 35L6 36L5 36L5 35L4 35L4 34L3 34L3 35L1 35L1 38L2 38L2 37L4 37L4 38L3 38L3 40L2 40L2 39L1 39L1 41L4 41L4 42L5 42L5 41L4 41L4 40L5 40L5 39L4 39L4 38L5 38L5 37L6 37L6 38L9 38L9 39L8 39L8 40L9 40L9 41L10 41L10 40L11 40L11 41L12 41L12 37L15 37L15 39L14 39L14 38L13 38L13 40L14 40L14 42L12 42L12 43L14 43L14 42L15 42L15 44L17 44L17 45L16 45L16 48L15 48L15 47L14 47L14 48L13 48L13 50L12 50L12 49L9 49L9 50L10 50L10 51L9 51L9 52L11 52L11 53L13 53L13 55L11 55L11 56L13 56L13 55L14 55L14 54L15 54L15 53L17 53L17 52L18 52L18 50L17 50L17 49L16 49L16 48L19 48L19 51L21 51L21 52L22 52L22 49L23 49L23 48L24 48L24 49L25 49L25 53L24 53L24 54L25 54L25 53L26 53L26 48L28 48L28 47L26 47L26 46L27 46L27 45L28 45L28 46L29 46L29 47L30 47L30 48L31 48L31 52L32 52L32 51L34 51L34 50L35 50L35 52L36 52L36 49L35 49L35 48L33 48L33 49L34 49L34 50L32 50L32 48L31 48L31 46L32 46L32 45L31 45L31 44L30 44L30 45L28 45L28 44L29 44L29 43L31 43L31 41L32 41L32 43L33 43L33 44L37 44L37 46L35 46L35 45L34 45L34 47L36 47L36 48L37 48L37 46L38 46L38 45L39 45L39 44L40 44L40 46L39 46L39 47L38 47L38 49L37 49L37 53L38 53L38 49L39 49L39 47L40 47L40 51L39 51L39 52L40 52L40 53L44 53L44 52L41 52L41 44L40 44L40 42L41 42L41 41L43 41L43 42L42 42L42 44L43 44L43 46L44 46L44 47L42 47L42 49L43 49L43 50L42 50L42 51L45 51L45 52L47 52L47 49L48 49L48 47L49 47L49 48L51 48L51 45L52 45L52 48L55 48L55 47L53 47L53 46L54 46L54 45L56 45L56 44L55 44L55 42L56 42L56 41L55 41L55 42L54 42L54 43L53 43L53 41L52 41L52 43L51 43L51 45L50 45L50 47L49 47L49 45L48 45L48 47L47 47L47 45L46 45L46 47L45 47L45 45L44 45L44 44L43 44L43 42L44 42L44 41L43 41L43 39L45 39L45 41L46 41L46 40L47 40L47 39L49 39L49 36L50 36L50 35L53 35L53 36L51 36L51 37L52 37L52 38L53 38L53 36L55 36L55 35L53 35L53 34L54 34L54 33L55 33L55 34L56 34L56 33L55 33L55 31L54 31L54 33L51 33L51 32L53 32L53 31L49 31L49 32L50 32L50 35L46 35L46 34L49 34L49 33L48 33L48 31L47 31L47 30L48 30L48 29L46 29L46 28L47 28L47 27L45 27L45 25L44 25L44 24L46 24L46 26L47 26L47 25L48 25L48 23L47 23L47 21L48 21L48 20L49 20L49 21L51 21L51 22L52 22L52 23L51 23L51 24L52 24L52 25L54 25L54 24L55 24L55 25L56 25L56 24L55 24L55 23L53 23L53 22L52 22L52 21L54 21L54 22L55 22L55 20L56 20L56 19L55 19L55 17L56 17L56 16L55 16L55 17L53 17L53 16L52 16L52 18L50 18L50 17L49 17L49 18L50 18L50 19L53 19L53 20L52 20L52 21L51 21L51 20L49 20L49 19L48 19L48 20L47 20L47 19L46 19L46 20L45 20L45 21L46 21L46 23L45 23L45 22L44 22L44 16L45 16L45 17L46 17L46 18L47 18L47 16L45 16L45 15L44 15L44 14L43 14L43 15L42 15L42 17L43 17L43 18L42 18L42 19L41 19L41 18L40 18L40 17L41 17L41 14L40 14L40 17L39 17L39 15L38 15L38 13L44 13L44 12L45 12L45 11L43 11L43 10L44 10L44 9L43 9L43 7L44 7L44 4L45 4L45 5L47 5L47 3L44 3L44 2L43 2L43 3L42 3L42 2L40 2L40 3L41 3L41 4L43 4L43 7L42 7L42 6L41 6L41 5L39 5L39 8L38 8L38 6L37 6L37 8L38 8L38 9L35 9L35 7L36 7L36 5L38 5L38 4L37 4L37 3L36 3L36 2ZM12 3L12 4L11 4L11 5L12 5L12 4L13 4L13 3ZM43 3L43 4L44 4L44 3ZM35 4L35 5L36 5L36 4ZM8 5L8 7L9 7L9 5ZM27 5L27 8L30 8L30 5ZM15 6L15 7L16 7L16 6ZM19 6L19 7L20 7L20 6ZM28 6L28 7L29 7L29 6ZM40 6L40 8L39 8L39 9L38 9L38 10L39 10L39 11L37 11L37 12L36 12L36 10L34 10L34 9L33 9L33 8L34 8L34 7L33 7L33 8L32 8L32 11L33 11L33 10L34 10L34 12L35 12L35 13L37 13L37 12L39 12L39 11L40 11L40 10L41 10L41 12L43 12L43 11L42 11L42 10L43 10L43 9L40 9L40 8L42 8L42 7L41 7L41 6ZM45 6L45 8L46 8L46 6ZM48 6L48 7L49 7L49 6ZM9 8L9 9L10 9L10 10L11 10L11 9L12 9L12 8ZM19 8L19 10L18 10L18 11L17 11L17 13L15 13L15 14L17 14L17 13L18 13L18 12L19 12L19 10L20 10L20 8ZM5 9L5 10L7 10L7 9ZM15 9L15 11L16 11L16 10L17 10L17 9ZM39 9L39 10L40 10L40 9ZM51 9L51 10L52 10L52 9ZM5 11L5 12L4 12L4 13L6 13L6 14L5 14L5 15L6 15L6 16L7 16L7 17L9 17L9 16L7 16L7 15L6 15L6 14L7 14L7 13L8 13L8 12L7 12L7 11ZM6 12L6 13L7 13L7 12ZM32 12L32 13L30 13L30 15L31 15L31 16L29 16L29 13L26 13L26 14L25 14L25 13L23 13L23 15L22 15L22 14L21 14L21 15L22 15L22 16L24 16L24 15L25 15L25 16L26 16L26 17L28 17L28 18L30 18L30 19L28 19L28 20L26 20L26 21L28 21L28 20L29 20L29 21L30 21L30 23L31 23L31 22L34 22L34 23L32 23L32 27L33 27L33 28L32 28L32 30L33 30L33 32L32 32L32 33L29 33L29 34L28 34L28 36L26 36L26 35L27 35L27 34L26 34L26 33L23 33L23 34L22 34L22 35L21 35L21 33L22 33L22 31L23 31L23 32L24 32L24 30L25 30L25 29L23 29L23 30L22 30L22 29L20 29L20 30L22 30L22 31L21 31L21 32L18 32L18 31L17 31L17 32L16 32L16 30L15 30L15 29L18 29L18 30L19 30L19 29L18 29L18 28L19 28L19 27L20 27L20 26L21 26L21 25L20 25L20 26L19 26L19 24L18 24L18 23L17 23L17 26L18 26L18 27L16 27L16 28L15 28L15 29L14 29L14 30L15 30L15 31L13 31L13 30L12 30L12 29L13 29L13 28L14 28L14 25L15 25L15 26L16 26L16 24L15 24L15 23L14 23L14 22L12 22L12 23L13 23L13 26L11 26L11 27L12 27L12 29L11 29L11 30L12 30L12 31L13 31L13 32L14 32L14 33L13 33L13 35L14 35L14 33L15 33L15 35L16 35L16 33L17 33L17 34L19 34L19 33L20 33L20 35L21 35L21 36L19 36L19 35L17 35L17 37L22 37L22 38L20 38L20 39L19 39L19 40L18 40L18 41L17 41L17 43L18 43L18 41L19 41L19 40L20 40L20 42L21 42L21 41L22 41L22 40L21 40L21 39L22 39L22 38L23 38L23 37L24 37L24 38L25 38L25 39L26 39L26 40L25 40L25 41L24 41L24 39L23 39L23 41L24 41L24 42L26 42L26 41L27 41L27 42L28 42L28 43L29 43L29 42L30 42L30 41L31 41L31 39L33 39L33 40L32 40L32 41L33 41L33 43L37 43L37 44L39 44L39 41L40 41L40 39L41 39L41 40L42 40L42 39L43 39L43 38L44 38L44 37L45 37L45 39L47 39L47 38L46 38L46 37L47 37L47 36L46 36L46 35L44 35L44 37L42 37L42 36L41 36L41 37L39 37L39 36L40 36L40 35L39 35L39 36L38 36L38 34L39 34L39 33L40 33L40 34L42 34L42 35L43 35L43 33L45 33L45 34L46 34L46 33L47 33L47 32L46 32L46 30L44 30L44 29L45 29L45 27L44 27L44 29L41 29L41 30L40 30L40 32L39 32L39 29L40 29L40 27L41 27L41 26L40 26L40 27L37 27L37 26L36 26L36 28L35 28L35 31L34 31L34 27L33 27L33 26L34 26L34 25L37 25L37 24L34 24L34 23L35 23L35 22L37 22L37 20L39 20L39 21L38 21L38 22L39 22L39 21L40 21L40 22L41 22L41 23L42 23L42 24L41 24L41 25L42 25L42 28L43 28L43 26L44 26L44 25L43 25L43 23L44 23L44 22L43 22L43 20L42 20L42 21L40 21L40 18L39 18L39 17L38 17L38 16L37 16L37 14L35 14L35 17L38 17L38 18L39 18L39 19L37 19L37 18L35 18L35 19L36 19L36 20L35 20L35 22L34 22L34 13L33 13L33 12ZM32 13L32 14L31 14L31 15L32 15L32 16L31 16L31 19L30 19L30 21L32 21L32 20L31 20L31 19L33 19L33 18L32 18L32 16L33 16L33 15L32 15L32 14L33 14L33 13ZM47 13L47 14L49 14L49 13ZM27 14L27 15L26 15L26 16L27 16L27 15L28 15L28 14ZM52 14L52 15L53 15L53 14ZM43 15L43 16L44 16L44 15ZM50 15L50 16L51 16L51 15ZM10 18L10 19L11 19L11 20L12 20L12 19L11 19L11 18ZM19 19L19 21L20 21L20 19ZM24 20L24 21L25 21L25 20ZM46 20L46 21L47 21L47 20ZM28 22L28 24L29 24L29 22ZM49 22L49 24L50 24L50 22ZM39 23L39 25L38 25L38 26L39 26L39 25L40 25L40 23ZM46 23L46 24L47 24L47 23ZM52 23L52 24L53 24L53 23ZM33 24L33 25L34 25L34 24ZM49 25L49 26L50 26L50 25ZM5 27L5 30L8 30L8 27ZM27 27L27 30L30 30L30 27ZM49 27L49 30L52 30L52 27ZM6 28L6 29L7 29L7 28ZM28 28L28 29L29 29L29 28ZM37 28L37 29L38 29L38 28ZM50 28L50 29L51 29L51 28ZM37 30L37 32L38 32L38 30ZM43 30L43 31L44 31L44 30ZM0 31L0 33L2 33L2 32L1 32L1 31ZM33 32L33 35L34 35L34 37L32 37L32 36L31 36L31 35L32 35L32 34L30 34L30 36L31 36L31 37L29 37L29 36L28 36L28 37L26 37L26 39L28 39L28 38L29 38L29 39L31 39L31 38L33 38L33 39L34 39L34 42L35 42L35 39L37 39L37 42L38 42L38 39L40 39L40 38L38 38L38 37L37 37L37 38L35 38L35 33L34 33L34 32ZM40 32L40 33L41 33L41 32ZM45 32L45 33L46 33L46 32ZM6 33L6 34L7 34L7 33ZM37 33L37 34L38 34L38 33ZM24 34L24 36L25 36L25 35L26 35L26 34ZM22 35L22 37L23 37L23 35ZM4 36L4 37L5 37L5 36ZM6 36L6 37L7 37L7 36ZM15 36L15 37L16 37L16 36ZM45 36L45 37L46 37L46 36ZM16 38L16 39L15 39L15 42L16 42L16 40L17 40L17 38ZM41 38L41 39L42 39L42 38ZM6 39L6 40L7 40L7 39ZM28 40L28 42L29 42L29 41L30 41L30 40ZM10 42L10 43L11 43L11 42ZM19 43L19 44L18 44L18 45L17 45L17 46L19 46L19 44L20 44L20 43ZM21 43L21 45L20 45L20 47L19 47L19 48L20 48L20 50L21 50L21 49L22 49L22 48L23 48L23 47L25 47L25 46L26 46L26 45L27 45L27 43L23 43L23 44L22 44L22 43ZM49 43L49 44L50 44L50 43ZM52 43L52 44L53 44L53 45L54 45L54 44L53 44L53 43ZM12 44L12 45L13 45L13 46L14 46L14 44ZM24 44L24 45L21 45L21 46L22 46L22 47L20 47L20 48L22 48L22 47L23 47L23 46L24 46L24 45L25 45L25 44ZM30 45L30 46L31 46L31 45ZM1 46L1 47L2 47L2 46ZM44 47L44 49L45 49L45 47ZM46 47L46 48L47 48L47 47ZM15 49L15 50L14 50L14 51L11 51L11 52L13 52L13 53L14 53L14 52L16 52L16 51L17 51L17 50L16 50L16 49ZM27 49L27 52L30 52L30 49ZM49 49L49 52L52 52L52 49ZM15 50L15 51L16 51L16 50ZM28 50L28 51L29 51L29 50ZM50 50L50 51L51 51L51 50ZM19 52L19 53L20 53L20 52ZM33 52L33 53L32 53L32 54L33 54L33 53L34 53L34 54L35 54L35 53L34 53L34 52ZM30 53L30 54L31 54L31 53ZM49 53L49 54L51 54L51 55L52 55L52 54L51 54L51 53ZM40 54L40 55L41 55L41 54ZM42 54L42 55L43 55L43 54ZM26 55L26 57L27 57L27 55ZM17 56L17 57L22 57L22 56ZM47 56L47 57L48 57L48 56ZM56 56L56 57L57 57L57 56ZM0 0L0 7L7 7L7 0ZM1 1L1 6L6 6L6 1ZM2 2L2 5L5 5L5 2ZM50 0L50 7L57 7L57 0ZM51 1L51 6L56 6L56 1ZM52 2L52 5L55 5L55 2ZM0 50L0 57L7 57L7 50ZM1 51L1 56L6 56L6 51ZM2 52L2 55L5 55L5 52Z" fill="#000000"/></g></g></svg>
