<?xml version="1.0" encoding="UTF-8"?>
<svg xmlns="http://www.w3.org/2000/svg" version="1.1" width="300" height="300" viewBox="0 0 300 300"><rect x="0" y="0" width="300" height="300" fill="#fefefe"/><g transform="scale(4.615)"><g transform="translate(4,4)"><path fill-rule="evenodd" d="M10 0L10 1L11 1L11 2L10 2L10 3L8 3L8 4L9 4L9 5L8 5L8 7L9 7L9 6L10 6L10 8L11 8L11 9L9 9L9 8L6 8L6 9L8 9L8 10L5 10L5 8L0 8L0 10L2 10L2 11L0 11L0 16L2 16L2 17L1 17L1 18L0 18L0 23L2 23L2 24L0 24L0 25L2 25L2 27L0 27L0 33L2 33L2 34L3 34L3 36L4 36L4 37L5 37L5 36L6 36L6 37L7 37L7 38L4 38L4 39L3 39L3 38L1 38L1 39L2 39L2 40L0 40L0 41L1 41L1 42L0 42L0 44L1 44L1 46L0 46L0 48L5 48L5 47L7 47L7 48L6 48L6 49L8 49L8 51L9 51L9 49L10 49L10 52L8 52L8 57L10 57L10 56L11 56L11 57L13 57L13 56L14 56L14 57L16 57L16 56L17 56L17 57L19 57L19 56L17 56L17 54L19 54L19 55L20 55L20 54L19 54L19 53L20 53L20 52L21 52L21 51L22 51L22 52L23 52L23 51L22 51L22 50L25 50L25 49L24 49L24 48L26 48L26 52L24 52L24 53L22 53L22 54L21 54L21 55L23 55L23 57L26 57L26 56L24 56L24 55L23 55L23 54L24 54L24 53L27 53L27 54L30 54L30 53L31 53L31 51L32 51L32 52L33 52L33 53L32 53L32 54L31 54L31 56L30 56L30 55L29 55L29 56L27 56L27 57L29 57L29 56L30 56L30 57L31 57L31 56L35 56L35 57L39 57L39 56L37 56L37 55L41 55L41 54L42 54L42 55L43 55L43 56L41 56L41 57L44 57L44 54L45 54L45 53L44 53L44 52L45 52L45 51L46 51L46 52L47 52L47 50L48 50L48 54L46 54L46 55L45 55L45 57L49 57L49 56L50 56L50 57L52 57L52 55L51 55L51 53L52 53L52 54L53 54L53 55L54 55L54 56L53 56L53 57L54 57L54 56L55 56L55 57L56 57L56 56L55 56L55 52L57 52L57 51L56 51L56 50L57 50L57 48L56 48L56 46L57 46L57 44L56 44L56 41L55 41L55 39L57 39L57 36L55 36L55 35L56 35L56 34L57 34L57 32L56 32L56 30L57 30L57 29L56 29L56 28L57 28L57 27L56 27L56 26L57 26L57 25L56 25L56 22L57 22L57 20L56 20L56 22L55 22L55 23L54 23L54 21L51 21L51 20L52 20L52 19L53 19L53 20L55 20L55 19L56 19L56 18L57 18L57 17L56 17L56 16L57 16L57 15L56 15L56 14L57 14L57 11L56 11L56 10L54 10L54 11L53 11L53 9L54 9L54 8L53 8L53 9L52 9L52 8L51 8L51 9L52 9L52 11L50 11L50 8L49 8L49 9L48 9L48 8L47 8L47 5L48 5L48 0L46 0L46 1L45 1L45 2L44 2L44 3L43 3L43 4L40 4L40 5L39 5L39 6L38 6L38 3L42 3L42 2L43 2L43 0L41 0L41 1L40 1L40 0L39 0L39 1L38 1L38 0L37 0L37 1L38 1L38 3L36 3L36 0L35 0L35 1L33 1L33 0L32 0L32 1L31 1L31 0L29 0L29 1L31 1L31 2L28 2L28 3L27 3L27 4L26 4L26 3L23 3L23 2L25 2L25 1L26 1L26 2L27 2L27 1L28 1L28 0L27 0L27 1L26 1L26 0L23 0L23 2L22 2L22 3L23 3L23 4L22 4L22 5L23 5L23 6L22 6L22 7L21 7L21 4L19 4L19 3L18 3L18 4L17 4L17 5L18 5L18 4L19 4L19 5L20 5L20 7L19 7L19 6L18 6L18 7L17 7L17 6L16 6L16 7L15 7L15 6L14 6L14 7L15 7L15 8L16 8L16 9L15 9L15 10L14 10L14 8L13 8L13 11L14 11L14 12L11 12L11 10L12 10L12 8L11 8L11 6L10 6L10 5L11 5L11 2L12 2L12 3L13 3L13 4L14 4L14 2L15 2L15 3L17 3L17 1L14 1L14 0L13 0L13 1L12 1L12 0ZM18 0L18 2L21 2L21 1L22 1L22 0L21 0L21 1L20 1L20 0ZM8 1L8 2L9 2L9 1ZM13 1L13 2L14 2L14 1ZM32 1L32 2L31 2L31 3L30 3L30 4L31 4L31 8L32 8L32 10L31 10L31 11L30 11L30 10L29 10L29 12L28 12L28 13L26 13L26 12L27 12L27 11L26 11L26 12L25 12L25 10L23 10L23 8L24 8L24 6L23 6L23 7L22 7L22 8L20 8L20 11L22 11L22 10L23 10L23 11L24 11L24 12L25 12L25 14L26 14L26 17L25 17L25 16L23 16L23 15L21 15L21 13L22 13L22 14L23 14L23 13L22 13L22 12L21 12L21 13L20 13L20 12L19 12L19 13L20 13L20 15L19 15L19 16L20 16L20 18L19 18L19 17L18 17L18 16L17 16L17 13L18 13L18 12L17 12L17 11L18 11L18 10L19 10L19 9L18 9L18 8L17 8L17 7L16 7L16 8L17 8L17 9L16 9L16 10L15 10L15 13L11 13L11 12L8 12L8 11L6 11L6 12L4 12L4 11L5 11L5 10L4 10L4 9L3 9L3 13L4 13L4 14L7 14L7 15L6 15L6 16L7 16L7 17L6 17L6 18L7 18L7 17L9 17L9 18L8 18L8 19L6 19L6 20L5 20L5 16L3 16L3 15L2 15L2 14L1 14L1 15L2 15L2 16L3 16L3 17L2 17L2 18L3 18L3 17L4 17L4 20L5 20L5 21L1 21L1 22L2 22L2 23L5 23L5 21L6 21L6 22L7 22L7 23L6 23L6 24L2 24L2 25L3 25L3 26L4 26L4 25L5 25L5 26L8 26L8 25L9 25L9 26L10 26L10 25L12 25L12 20L13 20L13 21L14 21L14 23L13 23L13 26L12 26L12 29L10 29L10 27L9 27L9 29L10 29L10 30L9 30L9 31L12 31L12 36L11 36L11 35L10 35L10 34L11 34L11 32L9 32L9 33L8 33L8 35L6 35L6 36L7 36L7 37L8 37L8 38L7 38L7 39L6 39L6 40L7 40L7 41L4 41L4 40L5 40L5 39L4 39L4 40L2 40L2 42L1 42L1 44L2 44L2 46L1 46L1 47L2 47L2 46L3 46L3 47L5 47L5 46L8 46L8 49L9 49L9 46L10 46L10 45L9 45L9 44L8 44L8 42L9 42L9 41L10 41L10 43L11 43L11 48L14 48L14 51L13 51L13 53L12 53L12 52L11 52L11 53L10 53L10 54L13 54L13 53L14 53L14 55L15 55L15 56L16 56L16 55L15 55L15 54L16 54L16 53L17 53L17 52L19 52L19 51L21 51L21 49L23 49L23 47L26 47L26 48L27 48L27 47L28 47L28 48L30 48L30 47L28 47L28 46L29 46L29 45L27 45L27 44L28 44L28 42L29 42L29 41L30 41L30 40L32 40L32 41L31 41L31 42L32 42L32 43L31 43L31 44L32 44L32 45L31 45L31 47L33 47L33 48L32 48L32 49L33 49L33 50L32 50L32 51L33 51L33 52L34 52L34 53L33 53L33 55L35 55L35 56L36 56L36 54L35 54L35 51L33 51L33 50L36 50L36 52L37 52L37 51L38 51L38 54L40 54L40 53L43 53L43 54L44 54L44 53L43 53L43 51L44 51L44 50L43 50L43 51L42 51L42 50L41 50L41 48L42 48L42 49L43 49L43 48L44 48L44 49L45 49L45 50L47 50L47 49L48 49L48 48L50 48L50 47L51 47L51 48L53 48L53 45L52 45L52 44L53 44L53 43L54 43L54 42L53 42L53 41L54 41L54 40L53 40L53 39L52 39L52 40L53 40L53 41L51 41L51 42L50 42L50 43L49 43L49 42L48 42L48 41L49 41L49 39L51 39L51 38L53 38L53 35L55 35L55 34L56 34L56 32L53 32L53 31L52 31L52 32L51 32L51 31L48 31L48 28L47 28L47 29L46 29L46 30L47 30L47 31L46 31L46 32L43 32L43 31L44 31L44 30L45 30L45 28L46 28L46 27L47 27L47 25L48 25L48 24L49 24L49 23L50 23L50 24L51 24L51 25L50 25L50 26L52 26L52 25L53 25L53 23L52 23L52 24L51 24L51 23L50 23L50 22L51 22L51 21L49 21L49 20L48 20L48 21L49 21L49 23L48 23L48 24L46 24L46 22L47 22L47 21L46 21L46 20L47 20L47 19L46 19L46 18L47 18L47 17L48 17L48 16L49 16L49 17L50 17L50 19L52 19L52 18L56 18L56 17L53 17L53 16L52 16L52 15L51 15L51 17L50 17L50 14L51 14L51 12L50 12L50 11L49 11L49 10L48 10L48 9L45 9L45 8L46 8L46 6L45 6L45 5L47 5L47 3L44 3L44 6L43 6L43 5L40 5L40 6L39 6L39 7L40 7L40 8L38 8L38 10L37 10L37 9L35 9L35 8L37 8L37 7L38 7L38 6L37 6L37 7L36 7L36 5L37 5L37 4L36 4L36 5L35 5L35 4L33 4L33 3L32 3L32 2L33 2L33 1ZM46 1L46 2L47 2L47 1ZM28 3L28 4L29 4L29 3ZM31 3L31 4L32 4L32 5L33 5L33 6L32 6L32 7L33 7L33 9L34 9L34 8L35 8L35 5L33 5L33 4L32 4L32 3ZM15 4L15 5L16 5L16 4ZM23 4L23 5L24 5L24 4ZM25 4L25 8L26 8L26 4ZM12 5L12 7L13 7L13 5ZM27 5L27 8L30 8L30 5ZM28 6L28 7L29 7L29 6ZM33 6L33 7L34 7L34 6ZM40 6L40 7L41 7L41 9L39 9L39 10L38 10L38 11L37 11L37 10L36 10L36 12L35 12L35 13L37 13L37 14L36 14L36 15L37 15L37 14L38 14L38 15L39 15L39 16L38 16L38 17L37 17L37 16L35 16L35 14L33 14L33 13L34 13L34 12L33 12L33 13L32 13L32 11L33 11L33 10L32 10L32 11L31 11L31 13L30 13L30 14L29 14L29 13L28 13L28 14L29 14L29 16L28 16L28 15L27 15L27 16L28 16L28 17L26 17L26 18L28 18L28 19L27 19L27 20L30 20L30 21L29 21L29 23L27 23L27 22L28 22L28 21L25 21L25 20L26 20L26 19L25 19L25 17L22 17L22 16L21 16L21 17L22 17L22 18L21 18L21 19L20 19L20 20L19 20L19 18L18 18L18 17L17 17L17 18L15 18L15 17L16 17L16 13L17 13L17 12L16 12L16 13L15 13L15 14L14 14L14 15L13 15L13 14L11 14L11 13L10 13L10 14L11 14L11 15L13 15L13 16L12 16L12 17L11 17L11 16L10 16L10 15L9 15L9 14L8 14L8 15L7 15L7 16L9 16L9 17L10 17L10 18L12 18L12 19L13 19L13 20L14 20L14 19L13 19L13 18L12 18L12 17L14 17L14 18L15 18L15 19L17 19L17 18L18 18L18 20L17 20L17 21L16 21L16 20L15 20L15 21L16 21L16 22L15 22L15 23L16 23L16 24L17 24L17 25L18 25L18 26L16 26L16 27L18 27L18 26L20 26L20 27L19 27L19 28L20 28L20 29L18 29L18 28L16 28L16 29L15 29L15 28L14 28L14 27L13 27L13 29L14 29L14 30L13 30L13 33L14 33L14 34L15 34L15 35L14 35L14 36L13 36L13 37L12 37L12 38L14 38L14 39L13 39L13 40L11 40L11 39L10 39L10 35L9 35L9 38L8 38L8 39L7 39L7 40L8 40L8 41L7 41L7 42L6 42L6 43L7 43L7 42L8 42L8 41L9 41L9 40L11 40L11 43L13 43L13 42L15 42L15 41L16 41L16 39L15 39L15 38L16 38L16 37L15 37L15 38L14 38L14 36L15 36L15 35L17 35L17 34L18 34L18 33L19 33L19 34L20 34L20 33L21 33L21 35L20 35L20 36L21 36L21 35L23 35L23 34L24 34L24 36L23 36L23 37L19 37L19 36L17 36L17 39L19 39L19 40L17 40L17 41L19 41L19 42L18 42L18 43L16 43L16 45L17 45L17 46L15 46L15 47L14 47L14 45L12 45L12 46L13 46L13 47L14 47L14 48L17 48L17 49L19 49L19 50L17 50L17 51L19 51L19 50L20 50L20 49L21 49L21 47L23 47L23 46L25 46L25 44L27 44L27 43L24 43L24 44L23 44L23 42L25 42L25 41L23 41L23 42L22 42L22 43L21 43L21 42L20 42L20 41L19 41L19 40L23 40L23 39L24 39L24 40L25 40L25 36L26 36L26 40L27 40L27 41L26 41L26 42L27 42L27 41L28 41L28 39L27 39L27 38L28 38L28 37L27 37L27 33L26 33L26 35L25 35L25 33L23 33L23 34L22 34L22 33L21 33L21 32L23 32L23 31L21 31L21 30L20 30L20 29L22 29L22 28L20 28L20 27L22 27L22 26L23 26L23 28L24 28L24 27L25 27L25 28L26 28L26 29L23 29L23 30L24 30L24 31L26 31L26 32L27 32L27 31L28 31L28 33L29 33L29 34L30 34L30 36L29 36L29 37L31 37L31 38L29 38L29 39L33 39L33 40L35 40L35 42L37 42L37 43L34 43L34 42L33 42L33 41L32 41L32 42L33 42L33 43L32 43L32 44L33 44L33 43L34 43L34 45L36 45L36 46L37 46L37 47L36 47L36 48L33 48L33 49L36 49L36 50L38 50L38 51L40 51L40 52L41 52L41 50L38 50L38 49L39 49L39 48L41 48L41 46L43 46L43 45L44 45L44 47L45 47L45 49L47 49L47 48L48 48L48 47L50 47L50 46L52 46L52 45L51 45L51 43L53 43L53 42L51 42L51 43L50 43L50 44L48 44L48 45L47 45L47 43L48 43L48 42L45 42L45 43L46 43L46 44L45 44L45 45L44 45L44 43L43 43L43 42L44 42L44 40L47 40L47 39L49 39L49 38L50 38L50 37L49 37L49 38L48 38L48 37L47 37L47 35L44 35L44 33L43 33L43 32L41 32L41 33L39 33L39 34L40 34L40 35L38 35L38 33L37 33L37 32L34 32L34 31L35 31L35 30L37 30L37 29L38 29L38 28L42 28L42 26L43 26L43 25L44 25L44 20L45 20L45 18L46 18L46 17L45 17L45 18L44 18L44 12L43 12L43 13L40 13L40 14L38 14L38 13L39 13L39 11L40 11L40 12L41 12L41 10L42 10L42 11L43 11L43 9L44 9L44 11L45 11L45 12L49 12L49 13L47 13L47 14L45 14L45 16L48 16L48 15L49 15L49 14L50 14L50 12L49 12L49 11L48 11L48 10L45 10L45 9L44 9L44 8L43 8L43 6L42 6L42 7L41 7L41 6ZM44 6L44 7L45 7L45 6ZM48 6L48 7L49 7L49 6ZM42 8L42 9L43 9L43 8ZM55 8L55 9L56 9L56 8ZM17 9L17 10L18 10L18 9ZM21 9L21 10L22 10L22 9ZM27 9L27 10L28 10L28 9ZM55 11L55 12L54 12L54 13L53 13L53 12L52 12L52 13L53 13L53 15L54 15L54 14L56 14L56 11ZM6 12L6 13L8 13L8 12ZM30 14L30 15L31 15L31 14ZM41 14L41 16L39 16L39 17L38 17L38 18L37 18L37 17L35 17L35 16L33 16L33 15L32 15L32 17L31 17L31 18L30 18L30 19L32 19L32 17L33 17L33 18L35 18L35 19L36 19L36 20L38 20L38 22L39 22L39 24L38 24L38 23L37 23L37 24L38 24L38 26L37 26L37 25L33 25L33 24L32 24L32 23L33 23L33 22L34 22L34 23L35 23L35 20L34 20L34 19L33 19L33 20L32 20L32 21L31 21L31 22L30 22L30 23L29 23L29 24L25 24L25 23L26 23L26 22L25 22L25 21L24 21L24 20L23 20L23 19L24 19L24 18L23 18L23 19L22 19L22 20L20 20L20 21L19 21L19 22L20 22L20 23L18 23L18 22L17 22L17 24L19 24L19 25L20 25L20 26L22 26L22 25L24 25L24 24L25 24L25 25L26 25L26 26L25 26L25 27L26 27L26 26L27 26L27 25L28 25L28 26L30 26L30 25L29 25L29 24L32 24L32 26L31 26L31 28L32 28L32 29L33 29L33 30L35 30L35 29L36 29L36 28L37 28L37 27L39 27L39 26L41 26L41 24L40 24L40 22L39 22L39 21L43 21L43 20L44 20L44 18L43 18L43 19L42 19L42 18L41 18L41 20L38 20L38 19L39 19L39 17L41 17L41 16L42 16L42 17L43 17L43 16L42 16L42 15L43 15L43 14ZM14 15L14 17L15 17L15 15ZM48 18L48 19L49 19L49 18ZM1 19L1 20L2 20L2 19ZM9 19L9 20L6 20L6 21L7 21L7 22L8 22L8 23L9 23L9 22L11 22L11 19ZM9 20L9 21L10 21L10 20ZM33 20L33 21L34 21L34 20ZM21 21L21 23L23 23L23 24L24 24L24 23L23 23L23 22L24 22L24 21ZM41 22L41 23L43 23L43 22ZM10 23L10 24L11 24L11 23ZM6 24L6 25L7 25L7 24ZM14 24L14 26L15 26L15 24ZM20 24L20 25L21 25L21 24ZM55 25L55 26L56 26L56 25ZM32 26L32 27L33 27L33 28L36 28L36 26L34 26L34 27L33 27L33 26ZM44 26L44 27L43 27L43 28L45 28L45 26ZM53 26L53 27L54 27L54 26ZM2 27L2 28L3 28L3 27ZM5 27L5 30L8 30L8 27ZM27 27L27 30L30 30L30 27ZM49 27L49 30L52 30L52 27ZM55 27L55 28L54 28L54 29L53 29L53 30L54 30L54 31L55 31L55 30L54 30L54 29L55 29L55 28L56 28L56 27ZM6 28L6 29L7 29L7 28ZM28 28L28 29L29 29L29 28ZM50 28L50 29L51 29L51 28ZM2 29L2 30L1 30L1 31L2 31L2 33L3 33L3 31L4 31L4 30L3 30L3 29ZM16 29L16 30L17 30L17 31L18 31L18 29ZM39 29L39 30L38 30L38 32L39 32L39 30L40 30L40 29ZM41 29L41 30L44 30L44 29ZM14 30L14 31L15 31L15 30ZM19 30L19 33L20 33L20 32L21 32L21 31L20 31L20 30ZM31 30L31 31L30 31L30 32L29 32L29 33L31 33L31 34L32 34L32 35L33 35L33 36L32 36L32 37L33 37L33 39L35 39L35 40L38 40L38 42L39 42L39 45L38 45L38 46L39 46L39 47L38 47L38 48L37 48L37 49L38 49L38 48L39 48L39 47L40 47L40 46L39 46L39 45L41 45L41 44L42 44L42 43L41 43L41 42L40 42L40 41L41 41L41 40L43 40L43 39L45 39L45 38L46 38L46 39L47 39L47 37L45 37L45 36L44 36L44 35L43 35L43 34L42 34L42 36L40 36L40 37L38 37L38 35L37 35L37 34L35 34L35 33L33 33L33 31L32 31L32 30ZM6 31L6 32L4 32L4 34L7 34L7 33L6 33L6 32L7 32L7 31ZM31 31L31 33L32 33L32 34L33 34L33 35L34 35L34 36L35 36L35 39L38 39L38 40L39 40L39 39L38 39L38 37L37 37L37 36L35 36L35 35L34 35L34 34L33 34L33 33L32 33L32 31ZM47 31L47 32L46 32L46 33L47 33L47 32L48 32L48 33L49 33L49 32L48 32L48 31ZM14 32L14 33L15 33L15 34L17 34L17 32L16 32L16 33L15 33L15 32ZM50 32L50 34L49 34L49 35L50 35L50 36L51 36L51 37L52 37L52 35L53 35L53 34L52 34L52 33L53 33L53 32L52 32L52 33L51 33L51 32ZM54 33L54 34L55 34L55 33ZM50 34L50 35L52 35L52 34ZM0 35L0 37L2 37L2 35ZM42 36L42 37L40 37L40 38L43 38L43 37L44 37L44 38L45 38L45 37L44 37L44 36ZM23 37L23 38L24 38L24 37ZM19 38L19 39L20 39L20 38ZM54 38L54 39L55 39L55 38ZM8 39L8 40L9 40L9 39ZM14 39L14 40L13 40L13 41L12 41L12 42L13 42L13 41L14 41L14 40L15 40L15 39ZM3 41L3 42L4 42L4 43L3 43L3 44L4 44L4 43L5 43L5 42L4 42L4 41ZM19 42L19 45L20 45L20 46L19 46L19 47L18 47L18 46L17 46L17 48L19 48L19 49L20 49L20 46L21 46L21 45L22 45L22 46L23 46L23 45L22 45L22 44L20 44L20 42ZM6 44L6 45L7 45L7 44ZM17 44L17 45L18 45L18 44ZM54 44L54 46L56 46L56 45L55 45L55 44ZM3 45L3 46L4 46L4 45ZM8 45L8 46L9 46L9 45ZM26 45L26 47L27 47L27 45ZM32 45L32 46L33 46L33 47L35 47L35 46L33 46L33 45ZM45 45L45 46L47 46L47 45ZM48 45L48 46L50 46L50 45ZM42 47L42 48L43 48L43 47ZM46 47L46 48L47 48L47 47ZM55 48L55 50L54 50L54 51L55 51L55 50L56 50L56 48ZM12 49L12 50L13 50L13 49ZM27 49L27 52L30 52L30 49ZM49 49L49 52L52 52L52 49ZM28 50L28 51L29 51L29 50ZM50 50L50 51L51 51L51 50ZM14 52L14 53L16 53L16 52ZM53 52L53 53L54 53L54 52ZM25 54L25 55L26 55L26 54ZM11 55L11 56L13 56L13 55ZM50 55L50 56L51 56L51 55ZM20 56L20 57L21 57L21 56ZM0 0L0 7L7 7L7 0ZM1 1L1 6L6 6L6 1ZM2 2L2 5L5 5L5 2ZM50 0L50 7L57 7L57 0ZM51 1L51 6L56 6L56 1ZM52 2L52 5L55 5L55 2ZM0 50L0 57L7 57L7 50ZM1 51L1 56L6 56L6 51ZM2 52L2 55L5 55L5 52Z" fill="#000000"/></g></g></svg>
