<?xml version="1.0" encoding="UTF-8"?>
<svg xmlns="http://www.w3.org/2000/svg" version="1.1" width="300" height="300" viewBox="0 0 300 300"><rect x="0" y="0" width="300" height="300" fill="#fefefe"/><g transform="scale(4.615)"><g transform="translate(4,4)"><path fill-rule="evenodd" d="M12 0L12 1L11 1L11 4L10 4L10 1L8 1L8 2L9 2L9 3L8 3L8 4L9 4L9 5L8 5L8 7L9 7L9 8L6 8L6 9L5 9L5 8L0 8L0 10L1 10L1 12L4 12L4 14L5 14L5 15L7 15L7 16L4 16L4 19L3 19L3 17L2 17L2 20L1 20L1 22L0 22L0 23L1 23L1 22L2 22L2 21L4 21L4 23L3 23L3 24L2 24L2 25L4 25L4 26L3 26L3 29L4 29L4 31L3 31L3 32L5 32L5 33L8 33L8 34L6 34L6 35L5 35L5 34L4 34L4 35L5 35L5 36L6 36L6 37L5 37L5 38L4 38L4 37L1 37L1 35L2 35L2 36L3 36L3 33L0 33L0 34L1 34L1 35L0 35L0 38L4 38L4 39L2 39L2 40L0 40L0 41L1 41L1 42L0 42L0 44L2 44L2 45L1 45L1 46L0 46L0 48L5 48L5 47L9 47L9 48L8 48L8 51L9 51L9 52L8 52L8 57L10 57L10 55L11 55L11 54L9 54L9 53L12 53L12 54L13 54L13 53L14 53L14 55L12 55L12 56L13 56L13 57L14 57L14 56L15 56L15 57L16 57L16 56L17 56L17 57L20 57L20 56L19 56L19 55L20 55L20 54L19 54L19 53L20 53L20 52L21 52L21 53L22 53L22 54L21 54L21 56L24 56L24 57L26 57L26 56L24 56L24 55L23 55L23 54L24 54L24 53L26 53L26 54L25 54L25 55L26 55L26 54L30 54L30 53L31 53L31 51L32 51L32 52L33 52L33 53L32 53L32 54L31 54L31 56L30 56L30 55L29 55L29 56L27 56L27 57L29 57L29 56L30 56L30 57L31 57L31 56L35 56L35 57L39 57L39 56L37 56L37 55L41 55L41 57L42 57L42 55L43 55L43 57L44 57L44 54L45 54L45 53L47 53L47 51L46 51L46 52L45 52L45 51L44 51L44 50L45 50L45 49L47 49L47 50L48 50L48 54L46 54L46 55L45 55L45 57L47 57L47 56L50 56L50 57L52 57L52 55L51 55L51 53L52 53L52 54L54 54L54 55L53 55L53 56L55 56L55 57L56 57L56 56L55 56L55 52L57 52L57 51L56 51L56 50L57 50L57 48L56 48L56 46L57 46L57 45L56 45L56 44L57 44L57 43L56 43L56 42L55 42L55 41L53 41L53 40L55 40L55 39L57 39L57 35L56 35L56 34L57 34L57 32L56 32L56 30L57 30L57 28L56 28L56 27L55 27L55 26L57 26L57 25L56 25L56 22L57 22L57 20L55 20L55 19L56 19L56 18L53 18L53 17L51 17L51 19L49 19L49 18L50 18L50 17L49 17L49 16L50 16L50 15L51 15L51 16L52 16L52 15L53 15L53 16L54 16L54 17L56 17L56 16L57 16L57 15L56 15L56 14L57 14L57 13L56 13L56 14L55 14L55 15L53 15L53 14L54 14L54 12L55 12L55 11L56 11L56 12L57 12L57 11L56 11L56 10L54 10L54 11L52 11L52 10L49 10L49 9L50 9L50 8L49 8L49 6L48 6L48 7L47 7L47 5L48 5L48 0L45 0L45 2L44 2L44 3L42 3L42 2L43 2L43 0L41 0L41 1L40 1L40 0L39 0L39 1L38 1L38 0L37 0L37 1L38 1L38 2L39 2L39 3L41 3L41 4L40 4L40 5L39 5L39 6L38 6L38 3L36 3L36 0L35 0L35 1L33 1L33 0L28 0L28 1L26 1L26 0L23 0L23 1L22 1L22 0L21 0L21 1L20 1L20 0L19 0L19 1L18 1L18 0L17 0L17 1L14 1L14 0ZM12 1L12 4L11 4L11 5L9 5L9 7L10 7L10 6L11 6L11 8L9 8L9 9L6 9L6 10L8 10L8 13L9 13L9 12L10 12L10 15L11 15L11 16L10 16L10 17L9 17L9 16L8 16L8 17L9 17L9 18L7 18L7 17L5 17L5 19L4 19L4 20L5 20L5 21L6 21L6 22L5 22L5 24L4 24L4 25L5 25L5 26L9 26L9 29L10 29L10 25L12 25L12 26L13 26L13 27L11 27L11 29L13 29L13 31L12 31L12 30L10 30L10 31L5 31L5 32L9 32L9 34L8 34L8 36L9 36L9 35L10 35L10 36L11 36L11 37L12 37L12 36L11 36L11 35L12 35L12 34L11 34L11 32L12 32L12 33L13 33L13 31L14 31L14 32L15 32L15 34L14 34L14 36L13 36L13 38L14 38L14 39L16 39L16 40L15 40L15 46L14 46L14 47L13 47L13 45L14 45L14 42L13 42L13 43L12 43L12 42L11 42L11 43L12 43L12 44L10 44L10 41L11 41L11 40L12 40L12 41L13 41L13 40L12 40L12 39L10 39L10 41L9 41L9 42L8 42L8 41L6 41L6 40L7 40L7 39L6 39L6 38L10 38L10 37L6 37L6 38L5 38L5 39L4 39L4 41L3 41L3 40L2 40L2 42L1 42L1 43L2 43L2 44L3 44L3 45L2 45L2 46L1 46L1 47L2 47L2 46L3 46L3 47L5 47L5 46L8 46L8 45L9 45L9 44L10 44L10 45L11 45L11 46L9 46L9 47L11 47L11 48L10 48L10 50L9 50L9 51L10 51L10 50L11 50L11 49L12 49L12 51L11 51L11 52L12 52L12 53L13 53L13 52L16 52L16 53L15 53L15 54L16 54L16 53L17 53L17 52L20 52L20 50L21 50L21 51L23 51L23 52L22 52L22 53L24 53L24 52L26 52L26 50L21 50L21 49L23 49L23 48L24 48L24 49L25 49L25 48L27 48L27 47L28 47L28 48L30 48L30 47L28 47L28 46L30 46L30 45L33 45L33 46L31 46L31 47L32 47L32 49L31 49L31 50L32 50L32 51L33 51L33 50L36 50L36 52L38 52L38 53L37 53L37 54L40 54L40 53L41 53L41 52L42 52L42 53L43 53L43 54L44 54L44 53L45 53L45 52L44 52L44 53L43 53L43 52L42 52L42 50L41 50L41 48L42 48L42 49L43 49L43 50L44 50L44 49L45 49L45 48L46 48L46 47L44 47L44 45L45 45L45 46L47 46L47 47L48 47L48 48L47 48L47 49L48 49L48 48L51 48L51 46L52 46L52 47L53 47L53 45L51 45L51 44L53 44L53 43L54 43L54 42L53 42L53 41L51 41L51 42L50 42L50 43L49 43L49 42L48 42L48 41L49 41L49 40L50 40L50 39L52 39L52 38L53 38L53 39L54 39L54 38L53 38L53 35L55 35L55 36L56 36L56 35L55 35L55 34L56 34L56 32L55 32L55 34L54 34L54 32L53 32L53 33L52 33L52 32L51 32L51 31L48 31L48 30L47 30L47 29L48 29L48 28L47 28L47 29L46 29L46 30L47 30L47 31L48 31L48 32L43 32L43 31L45 31L45 28L46 28L46 27L48 27L48 26L47 26L47 25L48 25L48 24L51 24L51 25L50 25L50 26L52 26L52 25L54 25L54 24L53 24L53 23L50 23L50 22L51 22L51 21L54 21L54 23L55 23L55 22L56 22L56 21L55 21L55 20L53 20L53 19L52 19L52 20L51 20L51 21L49 21L49 22L47 22L47 21L48 21L48 20L46 20L46 18L47 18L47 19L48 19L48 18L47 18L47 16L46 16L46 17L45 17L45 15L44 15L44 14L47 14L47 13L49 13L49 12L50 12L50 14L49 14L49 15L48 15L48 16L49 16L49 15L50 15L50 14L51 14L51 12L50 12L50 11L49 11L49 10L48 10L48 11L49 11L49 12L45 12L45 11L46 11L46 10L47 10L47 9L49 9L49 8L47 8L47 7L46 7L46 6L45 6L45 4L46 4L46 5L47 5L47 3L44 3L44 6L43 6L43 7L42 7L42 5L40 5L40 6L39 6L39 7L40 7L40 8L38 8L38 11L39 11L39 12L40 12L40 13L38 13L38 14L37 14L37 13L35 13L35 11L36 11L36 10L37 10L37 9L35 9L35 8L37 8L37 7L38 7L38 6L37 6L37 7L36 7L36 5L37 5L37 4L36 4L36 5L35 5L35 3L32 3L32 2L33 2L33 1L30 1L30 2L31 2L31 3L30 3L30 4L31 4L31 8L32 8L32 10L31 10L31 11L29 11L29 9L28 9L28 10L27 10L27 11L26 11L26 12L25 12L25 10L24 10L24 9L25 9L25 8L26 8L26 4L29 4L29 3L27 3L27 2L23 2L23 3L21 3L21 2L20 2L20 1L19 1L19 2L14 2L14 1ZM46 1L46 2L47 2L47 1ZM13 2L13 4L14 4L14 2ZM18 3L18 4L17 4L17 6L16 6L16 7L15 7L15 5L16 5L16 4L15 4L15 5L14 5L14 8L11 8L11 10L12 10L12 11L10 11L10 10L9 10L9 11L10 11L10 12L12 12L12 11L14 11L14 12L13 12L13 13L15 13L15 14L12 14L12 17L11 17L11 20L10 20L10 19L7 19L7 18L6 18L6 19L7 19L7 20L6 20L6 21L7 21L7 20L9 20L9 21L8 21L8 22L6 22L6 23L7 23L7 24L5 24L5 25L10 25L10 24L8 24L8 22L9 22L9 23L11 23L11 21L12 21L12 23L13 23L13 24L12 24L12 25L13 25L13 26L14 26L14 25L15 25L15 24L14 24L14 23L16 23L16 24L17 24L17 25L18 25L18 26L17 26L17 27L18 27L18 26L19 26L19 27L20 27L20 25L21 25L21 27L22 27L22 26L23 26L23 27L24 27L24 28L26 28L26 29L23 29L23 30L24 30L24 31L21 31L21 30L20 30L20 29L18 29L18 28L16 28L16 29L14 29L14 31L16 31L16 29L18 29L18 30L20 30L20 31L19 31L19 32L16 32L16 33L18 33L18 34L15 34L15 35L18 35L18 34L20 34L20 35L22 35L22 36L23 36L23 37L24 37L24 38L22 38L22 39L24 39L24 40L23 40L23 41L24 41L24 42L22 42L22 43L21 43L21 44L22 44L22 45L21 45L21 46L20 46L20 45L19 45L19 44L20 44L20 43L19 43L19 42L20 42L20 41L19 41L19 40L21 40L21 37L19 37L19 36L17 36L17 37L18 37L18 38L17 38L17 40L18 40L18 41L17 41L17 42L16 42L16 44L18 44L18 45L17 45L17 50L13 50L13 51L12 51L12 52L13 52L13 51L19 51L19 50L20 50L20 49L19 49L19 47L18 47L18 46L20 46L20 47L23 47L23 46L24 46L24 47L25 47L25 45L24 45L24 43L25 43L25 44L27 44L27 45L26 45L26 47L27 47L27 45L28 45L28 44L29 44L29 43L31 43L31 44L33 44L33 43L34 43L34 45L35 45L35 46L33 46L33 47L36 47L36 48L35 48L35 49L36 49L36 50L38 50L38 51L40 51L40 52L41 52L41 50L38 50L38 49L39 49L39 48L41 48L41 46L43 46L43 45L44 45L44 43L46 43L46 44L45 44L45 45L47 45L47 43L48 43L48 42L44 42L44 41L43 41L43 40L47 40L47 39L50 39L50 38L51 38L51 36L52 36L52 35L53 35L53 34L52 34L52 33L51 33L51 32L50 32L50 34L48 34L48 35L50 35L50 36L48 36L48 37L47 37L47 36L46 36L46 37L47 37L47 39L46 39L46 38L45 38L45 37L44 37L44 36L45 36L45 35L46 35L46 34L45 34L45 35L44 35L44 33L43 33L43 32L41 32L41 33L39 33L39 34L40 34L40 35L39 35L39 36L38 36L38 37L37 37L37 36L35 36L35 35L33 35L33 34L32 34L32 32L33 32L33 33L35 33L35 34L37 34L37 35L38 35L38 33L37 33L37 32L34 32L34 31L36 31L36 30L37 30L37 29L38 29L38 28L42 28L42 26L44 26L44 24L43 24L43 23L44 23L44 20L45 20L45 18L44 18L44 15L42 15L42 16L41 16L41 14L44 14L44 12L43 12L43 13L40 13L40 14L38 14L38 15L39 15L39 16L38 16L38 17L37 17L37 16L35 16L35 14L33 14L33 13L34 13L34 12L33 12L33 13L32 13L32 11L33 11L33 10L32 10L32 11L31 11L31 13L30 13L30 14L29 14L29 13L28 13L28 12L29 12L29 11L27 11L27 12L26 12L26 14L25 14L25 13L23 13L23 12L24 12L24 11L23 11L23 10L22 10L22 9L21 9L21 10L20 10L20 9L19 9L19 8L23 8L23 9L24 9L24 8L25 8L25 4L26 4L26 3L23 3L23 4L24 4L24 5L23 5L23 6L22 6L22 4L19 4L19 3ZM31 3L31 4L32 4L32 5L34 5L34 7L33 7L33 6L32 6L32 7L33 7L33 9L34 9L34 8L35 8L35 5L34 5L34 4L32 4L32 3ZM18 4L18 6L17 6L17 7L16 7L16 8L14 8L14 9L13 9L13 10L15 10L15 11L18 11L18 10L17 10L17 9L16 9L16 8L17 8L17 7L18 7L18 6L19 6L19 7L20 7L20 5L19 5L19 4ZM11 5L11 6L12 6L12 7L13 7L13 6L12 6L12 5ZM27 5L27 8L30 8L30 5ZM21 6L21 7L22 7L22 6ZM23 6L23 8L24 8L24 6ZM28 6L28 7L29 7L29 6ZM40 6L40 7L41 7L41 6ZM44 6L44 7L43 7L43 9L41 9L41 10L40 10L40 9L39 9L39 11L40 11L40 12L41 12L41 10L42 10L42 11L45 11L45 10L44 10L44 8L45 8L45 6ZM51 8L51 9L52 9L52 8ZM53 8L53 9L54 9L54 8ZM55 8L55 9L56 9L56 8ZM3 9L3 10L2 10L2 11L5 11L5 14L7 14L7 15L9 15L9 14L7 14L7 13L6 13L6 12L7 12L7 11L5 11L5 9ZM21 10L21 11L20 11L20 14L21 14L21 13L22 13L22 14L23 14L23 15L20 15L20 16L19 16L19 14L17 14L17 13L18 13L18 12L17 12L17 13L16 13L16 12L15 12L15 13L16 13L16 16L15 16L15 15L14 15L14 18L12 18L12 19L14 19L14 20L13 20L13 21L14 21L14 22L16 22L16 21L17 21L17 22L18 22L18 21L17 21L17 19L18 19L18 20L20 20L20 21L19 21L19 22L20 22L20 23L18 23L18 24L21 24L21 25L24 25L24 24L25 24L25 25L26 25L26 26L25 26L25 27L26 27L26 26L28 26L28 25L31 25L31 24L32 24L32 26L31 26L31 28L32 28L32 29L31 29L31 30L32 30L32 31L27 31L27 33L26 33L26 31L25 31L25 32L21 32L21 31L20 31L20 34L21 34L21 33L22 33L22 35L23 35L23 36L24 36L24 34L23 34L23 33L25 33L25 35L26 35L26 37L25 37L25 40L24 40L24 41L25 41L25 43L27 43L27 44L28 44L28 43L29 43L29 41L31 41L31 42L32 42L32 43L33 43L33 42L34 42L34 43L35 43L35 44L36 44L36 43L37 43L37 42L35 42L35 40L38 40L38 42L39 42L39 45L38 45L38 46L39 46L39 47L38 47L38 48L37 48L37 49L38 49L38 48L39 48L39 47L40 47L40 46L41 46L41 44L42 44L42 42L41 42L41 40L42 40L42 39L45 39L45 38L44 38L44 37L43 37L43 38L42 38L42 37L41 37L41 36L40 36L40 37L38 37L38 39L35 39L35 40L33 40L33 39L34 39L34 38L35 38L35 36L32 36L32 37L33 37L33 39L29 39L29 38L31 38L31 37L29 37L29 36L30 36L30 34L29 34L29 33L31 33L31 32L32 32L32 31L33 31L33 30L35 30L35 29L36 29L36 28L37 28L37 27L39 27L39 25L41 25L41 26L40 26L40 27L41 27L41 26L42 26L42 25L41 25L41 24L39 24L39 23L40 23L40 22L39 22L39 21L42 21L42 20L38 20L38 19L39 19L39 17L41 17L41 16L39 16L39 17L38 17L38 18L37 18L37 17L35 17L35 16L31 16L31 17L32 17L32 18L30 18L30 19L29 19L29 20L27 20L27 19L28 19L28 18L26 18L26 16L27 16L27 17L28 17L28 16L29 16L29 14L28 14L28 13L27 13L27 15L26 15L26 16L23 16L23 15L24 15L24 14L23 14L23 13L22 13L22 12L21 12L21 11L22 11L22 10ZM52 12L52 13L53 13L53 12ZM0 13L0 14L1 14L1 16L0 16L0 19L1 19L1 16L2 16L2 15L3 15L3 13L2 13L2 14L1 14L1 13ZM31 13L31 14L30 14L30 15L31 15L31 14L32 14L32 13ZM36 14L36 15L37 15L37 14ZM27 15L27 16L28 16L28 15ZM17 16L17 17L18 17L18 19L21 19L21 21L22 21L22 22L24 22L24 21L25 21L25 22L26 22L26 23L25 23L25 24L27 24L27 23L28 23L28 24L31 24L31 21L32 21L32 20L34 20L34 21L35 21L35 23L32 23L32 24L33 24L33 25L37 25L37 26L38 26L38 25L39 25L39 24L37 24L37 23L39 23L39 22L37 22L37 21L38 21L38 20L36 20L36 19L35 19L35 20L34 20L34 19L30 19L30 21L26 21L26 19L25 19L25 17L22 17L22 16L20 16L20 17L19 17L19 16ZM42 16L42 17L43 17L43 16ZM20 17L20 18L22 18L22 19L24 19L24 18L22 18L22 17ZM15 18L15 21L16 21L16 18ZM41 18L41 19L42 19L42 18ZM43 18L43 20L44 20L44 18ZM22 20L22 21L24 21L24 20ZM9 21L9 22L10 22L10 21ZM29 22L29 23L30 23L30 22ZM41 22L41 23L42 23L42 22ZM46 22L46 23L45 23L45 24L48 24L48 23L47 23L47 22ZM21 23L21 24L24 24L24 23ZM0 24L0 25L1 25L1 24ZM13 24L13 25L14 25L14 24ZM1 26L1 27L0 27L0 32L1 32L1 30L2 30L2 26ZM15 26L15 27L16 27L16 26ZM32 26L32 27L33 27L33 28L36 28L36 26L34 26L34 27L33 27L33 26ZM53 26L53 27L54 27L54 26ZM5 27L5 30L8 30L8 27ZM27 27L27 30L30 30L30 27ZM43 27L43 29L41 29L41 30L44 30L44 28L45 28L45 27ZM49 27L49 30L52 30L52 27ZM6 28L6 29L7 29L7 28ZM21 28L21 29L22 29L22 28ZM28 28L28 29L29 29L29 28ZM50 28L50 29L51 29L51 28ZM54 28L54 30L53 30L53 31L55 31L55 29L56 29L56 28ZM39 29L39 30L38 30L38 32L39 32L39 30L40 30L40 29ZM28 32L28 33L29 33L29 32ZM48 32L48 33L49 33L49 32ZM26 34L26 35L27 35L27 34ZM31 34L31 35L32 35L32 34ZM42 34L42 36L44 36L44 35L43 35L43 34ZM50 34L50 35L52 35L52 34ZM6 35L6 36L7 36L7 35ZM14 36L14 38L16 38L16 37L15 37L15 36ZM27 37L27 38L26 38L26 40L28 40L28 41L29 41L29 40L28 40L28 39L27 39L27 38L28 38L28 37ZM40 37L40 38L41 38L41 39L42 39L42 38L41 38L41 37ZM48 37L48 38L50 38L50 37ZM19 38L19 39L20 39L20 38ZM5 39L5 40L6 40L6 39ZM8 39L8 40L9 40L9 39ZM38 39L38 40L40 40L40 39ZM31 40L31 41L32 41L32 42L33 42L33 41L32 41L32 40ZM18 41L18 42L17 42L17 43L18 43L18 42L19 42L19 41ZM26 41L26 42L27 42L27 41ZM39 41L39 42L40 42L40 41ZM3 42L3 44L4 44L4 43L5 43L5 42ZM6 42L6 43L7 43L7 44L6 44L6 45L8 45L8 44L9 44L9 43L8 43L8 42ZM43 42L43 43L44 43L44 42ZM51 42L51 43L50 43L50 44L48 44L48 45L50 45L50 46L48 46L48 47L50 47L50 46L51 46L51 45L50 45L50 44L51 44L51 43L53 43L53 42ZM12 44L12 45L13 45L13 44ZM54 44L54 45L55 45L55 46L56 46L56 45L55 45L55 44ZM4 45L4 46L5 46L5 45ZM22 45L22 46L23 46L23 45ZM14 47L14 48L13 48L13 49L15 49L15 47ZM42 47L42 48L43 48L43 49L44 49L44 48L43 48L43 47ZM6 48L6 49L7 49L7 48ZM53 48L53 49L55 49L55 50L54 50L54 51L55 51L55 50L56 50L56 48ZM27 49L27 52L30 52L30 49ZM49 49L49 52L52 52L52 49ZM28 50L28 51L29 51L29 50ZM50 50L50 51L51 51L51 50ZM53 52L53 53L54 53L54 52ZM33 53L33 54L35 54L35 56L36 56L36 54L35 54L35 53ZM17 54L17 55L18 55L18 54ZM41 54L41 55L42 55L42 54ZM15 55L15 56L16 56L16 55ZM50 55L50 56L51 56L51 55ZM0 0L0 7L7 7L7 0ZM1 1L1 6L6 6L6 1ZM2 2L2 5L5 5L5 2ZM50 0L50 7L57 7L57 0ZM51 1L51 6L56 6L56 1ZM52 2L52 5L55 5L55 2ZM0 50L0 57L7 57L7 50ZM1 51L1 56L6 56L6 51ZM2 52L2 55L5 55L5 52Z" fill="#000000"/></g></g></svg>
