<?xml version="1.0" encoding="UTF-8"?>
<svg xmlns="http://www.w3.org/2000/svg" version="1.1" width="300" height="300" viewBox="0 0 300 300"><rect x="0" y="0" width="300" height="300" fill="#fefefe"/><g transform="scale(4.615)"><g transform="translate(4,4)"><path fill-rule="evenodd" d="M9 0L9 1L8 1L8 2L9 2L9 1L11 1L11 2L10 2L10 3L13 3L13 4L14 4L14 2L15 2L15 3L17 3L17 4L18 4L18 5L17 5L17 6L16 6L16 7L15 7L15 5L16 5L16 4L15 4L15 5L14 5L14 7L13 7L13 5L11 5L11 4L10 4L10 8L11 8L11 9L10 9L10 10L9 10L9 12L10 12L10 14L12 14L12 13L15 13L15 14L13 14L13 16L12 16L12 15L9 15L9 14L8 14L8 12L5 12L5 13L4 13L4 10L3 10L3 9L5 9L5 8L0 8L0 9L2 9L2 10L1 10L1 11L0 11L0 12L2 12L2 10L3 10L3 13L2 13L2 14L3 14L3 15L2 15L2 16L1 16L1 15L0 15L0 17L3 17L3 18L2 18L2 19L1 19L1 18L0 18L0 20L1 20L1 21L0 21L0 22L1 22L1 21L2 21L2 24L0 24L0 25L4 25L4 23L5 23L5 22L4 22L4 23L3 23L3 21L7 21L7 22L6 22L6 23L7 23L7 24L6 24L6 25L8 25L8 26L1 26L1 30L2 30L2 31L0 31L0 33L2 33L2 35L1 35L1 34L0 34L0 35L1 35L1 36L0 36L0 39L1 39L1 41L0 41L0 42L1 42L1 43L0 43L0 44L1 44L1 46L0 46L0 48L5 48L5 47L7 47L7 48L6 48L6 49L7 49L7 48L9 48L9 49L8 49L8 51L9 51L9 50L11 50L11 51L12 51L12 52L8 52L8 57L9 57L9 56L10 56L10 57L12 57L12 54L10 54L10 55L9 55L9 53L12 53L12 52L13 52L13 51L15 51L15 50L14 50L14 49L17 49L17 50L16 50L16 51L17 51L17 53L16 53L16 52L14 52L14 54L13 54L13 55L14 55L14 57L15 57L15 55L16 55L16 56L17 56L17 57L20 57L20 56L17 56L17 54L19 54L19 55L20 55L20 54L19 54L19 53L20 53L20 52L21 52L21 51L23 51L23 50L26 50L26 52L24 52L24 53L23 53L23 54L21 54L21 55L23 55L23 56L24 56L24 57L26 57L26 56L27 56L27 57L29 57L29 56L30 56L30 57L31 57L31 56L35 56L35 57L39 57L39 56L37 56L37 54L38 54L38 55L40 55L40 56L41 56L41 57L44 57L44 54L45 54L45 53L44 53L44 52L47 52L47 50L48 50L48 54L47 54L47 55L46 55L46 56L47 56L47 57L49 57L49 56L50 56L50 57L52 57L52 55L51 55L51 53L52 53L52 54L53 54L53 57L54 57L54 56L55 56L55 57L56 57L56 56L55 56L55 51L56 51L56 53L57 53L57 51L56 51L56 49L57 49L57 48L56 48L56 46L57 46L57 45L56 45L56 46L55 46L55 45L54 45L54 44L55 44L55 43L56 43L56 44L57 44L57 43L56 43L56 42L55 42L55 39L57 39L57 37L56 37L56 36L57 36L57 35L56 35L56 34L57 34L57 32L56 32L56 30L57 30L57 28L56 28L56 27L55 27L55 26L57 26L57 25L56 25L56 22L57 22L57 20L56 20L56 22L55 22L55 23L53 23L53 21L51 21L51 20L52 20L52 19L53 19L53 20L55 20L55 19L56 19L56 18L57 18L57 17L56 17L56 16L57 16L57 15L56 15L56 14L57 14L57 13L56 13L56 12L55 12L55 11L56 11L56 8L55 8L55 10L54 10L54 11L53 11L53 9L54 9L54 8L53 8L53 9L52 9L52 8L51 8L51 10L52 10L52 11L50 11L50 8L48 8L48 9L47 9L47 10L46 10L46 11L45 11L45 9L44 9L44 7L45 7L45 6L46 6L46 7L47 7L47 5L48 5L48 0L46 0L46 1L45 1L45 2L44 2L44 3L43 3L43 4L40 4L40 5L39 5L39 6L38 6L38 7L37 7L37 5L38 5L38 3L42 3L42 2L43 2L43 0L41 0L41 1L40 1L40 0L39 0L39 1L38 1L38 0L37 0L37 1L38 1L38 2L37 2L37 3L36 3L36 0L35 0L35 1L33 1L33 2L32 2L32 0L28 0L28 1L26 1L26 0L23 0L23 1L22 1L22 0L21 0L21 2L20 2L20 0L19 0L19 1L17 1L17 2L16 2L16 1L14 1L14 0L13 0L13 1L14 1L14 2L12 2L12 0ZM28 1L28 2L23 2L23 3L22 3L22 2L21 2L21 3L20 3L20 2L19 2L19 4L21 4L21 5L22 5L22 4L23 4L23 5L24 5L24 4L23 4L23 3L26 3L26 4L25 4L25 8L24 8L24 6L23 6L23 8L19 8L19 9L20 9L20 10L19 10L19 12L20 12L20 14L21 14L21 13L22 13L22 14L23 14L23 15L19 15L19 14L17 14L17 13L18 13L18 12L17 12L17 11L18 11L18 10L17 10L17 9L15 9L15 7L14 7L14 9L13 9L13 10L16 10L16 11L15 11L15 13L16 13L16 17L15 17L15 15L14 15L14 16L13 16L13 17L15 17L15 18L13 18L13 19L12 19L12 17L11 17L11 16L10 16L10 17L11 17L11 18L7 18L7 17L8 17L8 16L9 16L9 15L8 15L8 16L7 16L7 15L6 15L6 16L7 16L7 17L5 17L5 14L7 14L7 13L5 13L5 14L4 14L4 13L3 13L3 14L4 14L4 17L5 17L5 19L4 19L4 18L3 18L3 20L5 20L5 19L6 19L6 20L7 20L7 19L9 19L9 20L8 20L8 21L14 21L14 22L16 22L16 21L17 21L17 20L16 20L16 21L15 21L15 19L17 19L17 18L19 18L19 19L18 19L18 20L19 20L19 19L20 19L20 21L18 21L18 22L20 22L20 23L18 23L18 24L21 24L21 25L20 25L20 27L19 27L19 26L18 26L18 25L15 25L15 26L16 26L16 27L14 27L14 24L16 24L16 23L14 23L14 24L13 24L13 23L11 23L11 22L7 22L7 23L10 23L10 24L9 24L9 26L11 26L11 25L12 25L12 26L13 26L13 28L12 28L12 29L14 29L14 30L12 30L12 31L14 31L14 33L13 33L13 35L11 35L11 36L10 36L10 34L12 34L12 32L11 32L11 33L10 33L10 31L11 31L11 29L10 29L10 28L9 28L9 32L8 32L8 33L5 33L5 34L4 34L4 32L7 32L7 31L4 31L4 32L3 32L3 31L2 31L2 33L3 33L3 35L4 35L4 36L5 36L5 35L6 35L6 36L10 36L10 37L5 37L5 38L4 38L4 39L6 39L6 40L7 40L7 39L6 39L6 38L8 38L8 40L10 40L10 41L11 41L11 42L10 42L10 43L9 43L9 44L7 44L7 43L6 43L6 42L8 42L8 41L6 41L6 42L5 42L5 40L4 40L4 41L3 41L3 43L2 43L2 44L3 44L3 45L4 45L4 46L3 46L3 47L5 47L5 45L6 45L6 46L8 46L8 45L9 45L9 46L10 46L10 45L9 45L9 44L11 44L11 45L13 45L13 46L11 46L11 48L13 48L13 49L14 49L14 47L16 47L16 48L18 48L18 47L19 47L19 46L17 46L17 45L18 45L18 44L15 44L15 43L18 43L18 42L19 42L19 43L20 43L20 44L21 44L21 45L20 45L20 46L21 46L21 45L22 45L22 46L23 46L23 47L20 47L20 48L19 48L19 49L20 49L20 50L19 50L19 51L18 51L18 50L17 50L17 51L18 51L18 52L19 52L19 51L20 51L20 50L21 50L21 49L23 49L23 48L24 48L24 49L26 49L26 48L27 48L27 47L26 47L26 45L27 45L27 46L30 46L30 45L29 45L29 44L31 44L31 43L29 43L29 44L28 44L28 43L27 43L27 42L32 42L32 43L33 43L33 44L32 44L32 45L33 45L33 46L32 46L32 47L31 47L31 48L32 48L32 49L31 49L31 53L30 53L30 54L27 54L27 53L24 53L24 54L23 54L23 55L24 55L24 56L25 56L25 54L26 54L26 55L27 55L27 56L29 56L29 55L30 55L30 56L31 56L31 54L32 54L32 53L33 53L33 54L35 54L35 56L36 56L36 54L35 54L35 53L33 53L33 52L32 52L32 51L33 51L33 50L34 50L34 51L35 51L35 50L36 50L36 52L37 52L37 53L38 53L38 54L40 54L40 53L42 53L42 52L43 52L43 51L46 51L46 50L47 50L47 49L48 49L48 48L49 48L49 47L48 47L48 44L50 44L50 45L49 45L49 46L50 46L50 48L51 48L51 46L53 46L53 43L54 43L54 42L53 42L53 41L54 41L54 40L53 40L53 41L51 41L51 42L50 42L50 43L49 43L49 42L48 42L48 41L49 41L49 39L47 39L47 37L48 37L48 38L49 38L49 37L50 37L50 39L51 39L51 38L53 38L53 39L54 39L54 38L53 38L53 35L55 35L55 36L56 36L56 35L55 35L55 34L56 34L56 32L55 32L55 34L54 34L54 32L53 32L53 33L52 33L52 31L50 31L50 32L49 32L49 31L48 31L48 29L46 29L46 30L47 30L47 31L48 31L48 32L43 32L43 31L44 31L44 30L41 30L41 29L45 29L45 28L46 28L46 27L47 27L47 28L48 28L48 27L47 27L47 25L48 25L48 24L49 24L49 25L50 25L50 26L52 26L52 25L54 25L54 24L53 24L53 23L52 23L52 24L51 24L51 23L50 23L50 22L51 22L51 21L49 21L49 20L48 20L48 21L49 21L49 22L47 22L47 19L46 19L46 18L47 18L47 17L48 17L48 16L49 16L49 17L50 17L50 18L48 18L48 19L52 19L52 18L55 18L55 17L53 17L53 16L52 16L52 15L50 15L50 14L51 14L51 12L50 12L50 11L49 11L49 10L48 10L48 11L49 11L49 12L45 12L45 11L42 11L42 10L41 10L41 7L42 7L42 6L43 6L43 7L44 7L44 6L45 6L45 5L47 5L47 3L44 3L44 6L43 6L43 5L42 5L42 6L41 6L41 5L40 5L40 6L39 6L39 7L40 7L40 8L39 8L39 9L38 9L38 10L37 10L37 9L35 9L35 8L37 8L37 7L36 7L36 5L37 5L37 4L36 4L36 5L35 5L35 4L33 4L33 3L32 3L32 2L30 2L30 1ZM46 1L46 2L47 2L47 1ZM17 2L17 3L18 3L18 2ZM34 2L34 3L35 3L35 2ZM8 3L8 4L9 4L9 3ZM21 3L21 4L22 4L22 3ZM31 3L31 4L26 4L26 8L25 8L25 9L23 9L23 10L22 10L22 11L20 11L20 12L22 12L22 13L23 13L23 14L25 14L25 17L22 17L22 16L21 16L21 17L22 17L22 18L24 18L24 19L23 19L23 20L24 20L24 21L23 21L23 22L21 22L21 23L23 23L23 25L22 25L22 26L21 26L21 27L20 27L20 28L21 28L21 29L22 29L22 28L21 28L21 27L22 27L22 26L26 26L26 27L24 27L24 29L23 29L23 30L25 30L25 31L26 31L26 32L27 32L27 31L29 31L29 32L28 32L28 33L29 33L29 34L30 34L30 36L29 36L29 37L31 37L31 38L29 38L29 39L33 39L33 40L35 40L35 42L37 42L37 43L34 43L34 42L33 42L33 41L32 41L32 40L30 40L30 41L32 41L32 42L33 42L33 43L34 43L34 45L35 45L35 46L33 46L33 48L34 48L34 47L35 47L35 46L36 46L36 45L37 45L37 47L36 47L36 48L35 48L35 49L36 49L36 50L38 50L38 51L37 51L37 52L38 52L38 53L39 53L39 52L38 52L38 51L40 51L40 52L41 52L41 50L42 50L42 51L43 51L43 50L46 50L46 49L47 49L47 48L48 48L48 47L47 47L47 46L45 46L45 47L44 47L44 46L43 46L43 45L44 45L44 44L45 44L45 45L47 45L47 43L48 43L48 42L45 42L45 43L44 43L44 40L45 40L45 39L42 39L42 40L43 40L43 41L39 41L39 42L38 42L38 40L39 40L39 39L38 39L38 40L35 40L35 39L37 39L37 38L38 38L38 37L40 37L40 38L43 38L43 37L44 37L44 38L45 38L45 37L46 37L46 36L47 36L47 35L46 35L46 34L45 34L45 33L43 33L43 32L41 32L41 33L39 33L39 34L40 34L40 35L38 35L38 33L37 33L37 32L35 32L35 34L34 34L34 32L33 32L33 33L32 33L32 32L31 32L31 33L29 33L29 32L30 32L30 31L31 31L31 29L32 29L32 31L35 31L35 30L33 30L33 29L32 29L32 27L33 27L33 28L35 28L35 29L38 29L38 28L42 28L42 26L43 26L43 25L44 25L44 27L43 27L43 28L45 28L45 27L46 27L46 26L45 26L45 25L47 25L47 24L48 24L48 23L47 23L47 22L45 22L45 25L44 25L44 24L41 24L41 23L44 23L44 20L45 20L45 21L46 21L46 20L45 20L45 18L44 18L44 15L42 15L42 16L41 16L41 14L44 14L44 12L43 12L43 13L41 13L41 14L40 14L40 13L39 13L39 12L41 12L41 11L40 11L40 10L39 10L39 11L37 11L37 10L36 10L36 12L35 12L35 13L36 13L36 14L33 14L33 13L34 13L34 12L33 12L33 10L32 10L32 8L31 8L31 4L32 4L32 5L33 5L33 6L32 6L32 7L33 7L33 9L34 9L34 8L35 8L35 5L33 5L33 4L32 4L32 3ZM8 5L8 7L9 7L9 5ZM18 5L18 6L17 6L17 7L16 7L16 8L17 8L17 7L18 7L18 6L19 6L19 7L20 7L20 5ZM27 5L27 8L30 8L30 5ZM11 6L11 8L12 8L12 6ZM21 6L21 7L22 7L22 6ZM28 6L28 7L29 7L29 6ZM33 6L33 7L34 7L34 6ZM40 6L40 7L41 7L41 6ZM48 6L48 7L49 7L49 6ZM6 8L6 9L7 9L7 10L6 10L6 11L8 11L8 9L9 9L9 8ZM42 8L42 9L43 9L43 10L44 10L44 9L43 9L43 8ZM11 9L11 10L12 10L12 9ZM28 9L28 10L27 10L27 11L26 11L26 12L25 12L25 10L23 10L23 13L26 13L26 17L25 17L25 19L26 19L26 20L25 20L25 21L24 21L24 22L23 22L23 23L24 23L24 24L25 24L25 25L26 25L26 26L30 26L30 25L29 25L29 24L30 24L30 23L31 23L31 24L32 24L32 26L31 26L31 27L32 27L32 26L33 26L33 27L34 27L34 26L36 26L36 27L39 27L39 26L42 26L42 25L41 25L41 24L40 24L40 22L39 22L39 21L43 21L43 20L44 20L44 18L43 18L43 19L42 19L42 18L41 18L41 20L38 20L38 22L37 22L37 24L40 24L40 25L38 25L38 26L37 26L37 25L33 25L33 24L32 24L32 23L33 23L33 22L34 22L34 23L35 23L35 20L32 20L32 21L31 21L31 22L30 22L30 23L29 23L29 20L31 20L31 18L30 18L30 19L29 19L29 20L27 20L27 19L28 19L28 18L27 18L27 19L26 19L26 17L28 17L28 16L29 16L29 14L30 14L30 15L31 15L31 16L32 16L32 17L33 17L33 18L35 18L35 19L36 19L36 20L37 20L37 19L39 19L39 17L41 17L41 16L39 16L39 15L40 15L40 14L39 14L39 13L38 13L38 14L37 14L37 15L35 15L35 16L33 16L33 15L32 15L32 13L33 13L33 12L32 12L32 10L31 10L31 11L30 11L30 10L29 10L29 9ZM13 11L13 12L14 12L14 11ZM27 11L27 12L26 12L26 13L28 13L28 14L29 14L29 13L28 13L28 12L29 12L29 11ZM11 12L11 13L12 13L12 12ZM16 12L16 13L17 13L17 12ZM31 12L31 13L30 13L30 14L31 14L31 13L32 13L32 12ZM49 12L49 13L47 13L47 14L45 14L45 17L47 17L47 16L48 16L48 15L49 15L49 14L50 14L50 12ZM52 12L52 13L53 13L53 14L54 14L54 15L55 15L55 14L56 14L56 13L55 13L55 12L54 12L54 13L53 13L53 12ZM54 13L54 14L55 14L55 13ZM38 14L38 15L39 15L39 14ZM17 15L17 17L19 17L19 18L20 18L20 19L21 19L21 18L20 18L20 16L18 16L18 15ZM23 15L23 16L24 16L24 15ZM27 15L27 16L28 16L28 15ZM35 16L35 17L37 17L37 18L38 18L38 17L39 17L39 16L38 16L38 17L37 17L37 16ZM42 16L42 17L43 17L43 16ZM50 16L50 17L52 17L52 16ZM6 18L6 19L7 19L7 18ZM10 19L10 20L12 20L12 19ZM13 19L13 20L14 20L14 19ZM25 21L25 22L26 22L26 23L25 23L25 24L27 24L27 22L28 22L28 21ZM38 22L38 23L39 23L39 22ZM28 23L28 24L29 24L29 23ZM49 23L49 24L50 24L50 25L51 25L51 24L50 24L50 23ZM12 24L12 25L13 25L13 24ZM17 26L17 27L18 27L18 26ZM53 26L53 27L54 27L54 26ZM5 27L5 30L8 30L8 27ZM27 27L27 30L30 30L30 27ZM49 27L49 30L52 30L52 27ZM3 28L3 29L2 29L2 30L3 30L3 29L4 29L4 28ZM6 28L6 29L7 29L7 28ZM16 28L16 29L15 29L15 31L16 31L16 29L18 29L18 30L17 30L17 31L18 31L18 32L16 32L16 33L14 33L14 35L13 35L13 37L14 37L14 38L13 38L13 39L12 39L12 38L11 38L11 37L10 37L10 38L11 38L11 40L14 40L14 39L15 39L15 40L16 40L16 39L15 39L15 38L16 38L16 37L14 37L14 35L15 35L15 34L16 34L16 33L18 33L18 34L19 34L19 33L21 33L21 35L20 35L20 36L21 36L21 35L23 35L23 34L24 34L24 36L23 36L23 37L24 37L24 38L21 38L21 37L19 37L19 35L18 35L18 36L17 36L17 35L16 35L16 36L17 36L17 37L18 37L18 38L20 38L20 39L17 39L17 42L18 42L18 41L19 41L19 42L20 42L20 41L19 41L19 40L21 40L21 39L24 39L24 40L23 40L23 41L24 41L24 42L22 42L22 43L21 43L21 44L22 44L22 45L23 45L23 46L25 46L25 45L23 45L23 43L25 43L25 44L27 44L27 43L25 43L25 41L24 41L24 40L25 40L25 37L27 37L27 38L26 38L26 40L27 40L27 41L26 41L26 42L27 42L27 41L28 41L28 39L27 39L27 38L28 38L28 37L27 37L27 36L26 36L26 35L27 35L27 33L26 33L26 34L25 34L25 33L23 33L23 34L22 34L22 33L21 33L21 32L23 32L23 31L20 31L20 32L19 32L19 30L20 30L20 29L18 29L18 28ZM25 28L25 29L26 29L26 28ZM28 28L28 29L29 29L29 28ZM50 28L50 29L51 29L51 28ZM54 28L54 29L53 29L53 31L55 31L55 29L56 29L56 28ZM39 29L39 30L38 30L38 32L39 32L39 30L40 30L40 29ZM48 32L48 33L49 33L49 32ZM50 32L50 34L48 34L48 35L50 35L50 37L52 37L52 35L53 35L53 34L52 34L52 33L51 33L51 32ZM9 33L9 34L6 34L6 35L9 35L9 34L10 34L10 33ZM33 34L33 36L32 36L32 37L33 37L33 38L35 38L35 36L37 36L37 37L38 37L38 35L37 35L37 34L35 34L35 36L34 36L34 34ZM42 34L42 35L41 35L41 36L40 36L40 37L43 37L43 36L44 36L44 37L45 37L45 36L44 36L44 35L45 35L45 34ZM50 34L50 35L52 35L52 34ZM42 35L42 36L43 36L43 35ZM1 36L1 37L2 37L2 38L1 38L1 39L3 39L3 36ZM46 39L46 40L47 40L47 39ZM12 41L12 42L11 42L11 43L12 43L12 44L13 44L13 45L14 45L14 46L13 46L13 47L14 47L14 46L15 46L15 45L14 45L14 44L13 44L13 43L14 43L14 42L13 42L13 41ZM41 42L41 43L39 43L39 45L38 45L38 46L41 46L41 48L39 48L39 47L38 47L38 48L37 48L37 49L38 49L38 50L41 50L41 48L42 48L42 49L43 49L43 48L44 48L44 49L46 49L46 48L44 48L44 47L43 47L43 46L41 46L41 44L42 44L42 42ZM51 42L51 43L50 43L50 44L51 44L51 45L50 45L50 46L51 46L51 45L52 45L52 44L51 44L51 43L53 43L53 42ZM4 43L4 44L6 44L6 45L7 45L7 44L6 44L6 43ZM43 43L43 44L44 44L44 43ZM45 43L45 44L46 44L46 43ZM1 46L1 47L2 47L2 46ZM54 46L54 47L55 47L55 46ZM24 47L24 48L26 48L26 47ZM28 47L28 48L30 48L30 47ZM42 47L42 48L43 48L43 47ZM20 48L20 49L21 49L21 48ZM38 48L38 49L39 49L39 48ZM53 48L53 49L54 49L54 48ZM55 48L55 49L56 49L56 48ZM27 49L27 52L30 52L30 49ZM32 49L32 50L33 50L33 49ZM49 49L49 52L52 52L52 49ZM12 50L12 51L13 51L13 50ZM28 50L28 51L29 51L29 50ZM50 50L50 51L51 51L51 50ZM54 50L54 51L55 51L55 50ZM53 52L53 53L54 53L54 52ZM15 53L15 54L14 54L14 55L15 55L15 54L16 54L16 53ZM43 53L43 54L44 54L44 53ZM10 55L10 56L11 56L11 55ZM42 55L42 56L43 56L43 55ZM48 55L48 56L49 56L49 55ZM50 55L50 56L51 56L51 55ZM0 0L0 7L7 7L7 0ZM1 1L1 6L6 6L6 1ZM2 2L2 5L5 5L5 2ZM50 0L50 7L57 7L57 0ZM51 1L51 6L56 6L56 1ZM52 2L52 5L55 5L55 2ZM0 50L0 57L7 57L7 50ZM1 51L1 56L6 56L6 51ZM2 52L2 55L5 55L5 52Z" fill="#000000"/></g></g></svg>
