<?xml version="1.0" encoding="UTF-8"?>
<svg xmlns="http://www.w3.org/2000/svg" version="1.1" width="300" height="300" viewBox="0 0 300 300"><rect x="0" y="0" width="300" height="300" fill="#fefefe"/><g transform="scale(4.615)"><g transform="translate(4,4)"><path fill-rule="evenodd" d="M8 0L8 2L9 2L9 0ZM10 0L10 1L11 1L11 2L10 2L10 3L9 3L9 4L8 4L8 9L7 9L7 8L5 8L5 9L7 9L7 10L5 10L5 12L3 12L3 11L4 11L4 10L3 10L3 8L0 8L0 10L2 10L2 12L1 12L1 14L0 14L0 15L7 15L7 14L8 14L8 15L10 15L10 18L8 18L8 17L7 17L7 16L1 16L1 18L0 18L0 19L1 19L1 18L2 18L2 19L4 19L4 20L6 20L6 21L8 21L8 23L12 23L12 22L14 22L14 23L13 23L13 24L14 24L14 25L12 25L12 24L6 24L6 23L7 23L7 22L6 22L6 23L5 23L5 25L4 25L4 24L3 24L3 22L5 22L5 21L3 21L3 22L2 22L2 23L1 23L1 25L0 25L0 26L1 26L1 27L0 27L0 28L1 28L1 31L0 31L0 33L2 33L2 32L1 32L1 31L2 31L2 28L3 28L3 31L4 31L4 32L5 32L5 33L4 33L4 34L3 34L3 35L2 35L2 34L1 34L1 36L0 36L0 37L3 37L3 38L2 38L2 40L0 40L0 41L2 41L2 42L0 42L0 43L2 43L2 42L3 42L3 44L0 44L0 45L3 45L3 46L2 46L2 47L1 47L1 46L0 46L0 48L5 48L5 47L7 47L7 48L6 48L6 49L8 49L8 50L9 50L9 47L8 47L8 46L6 46L6 45L9 45L9 46L10 46L10 47L11 47L11 49L10 49L10 50L11 50L11 49L12 49L12 48L13 48L13 46L14 46L14 47L15 47L15 46L16 46L16 47L17 47L17 48L18 48L18 49L17 49L17 50L16 50L16 48L14 48L14 49L15 49L15 50L12 50L12 53L11 53L11 54L8 54L8 57L11 57L11 56L12 56L12 55L13 55L13 53L15 53L15 54L14 54L14 55L15 55L15 56L14 56L14 57L17 57L17 55L16 55L16 54L18 54L18 53L19 53L19 52L20 52L20 53L21 53L21 52L22 52L22 54L23 54L23 55L22 55L22 57L25 57L25 56L26 56L26 57L28 57L28 55L29 55L29 57L33 57L33 55L30 55L30 54L31 54L31 53L32 53L32 54L34 54L34 57L35 57L35 55L38 55L38 53L39 53L39 55L40 55L40 57L42 57L42 56L43 56L43 54L42 54L42 53L43 53L43 52L44 52L44 55L46 55L46 56L44 56L44 57L46 57L46 56L48 56L48 57L50 57L50 55L49 55L49 54L52 54L52 55L53 55L53 54L54 54L54 55L57 55L57 54L54 54L54 53L55 53L55 52L54 52L54 51L53 51L53 50L54 50L54 49L56 49L56 52L57 52L57 49L56 49L56 47L57 47L57 45L56 45L56 44L57 44L57 42L56 42L56 44L55 44L55 45L56 45L56 47L55 47L55 48L54 48L54 47L52 47L52 45L53 45L53 46L54 46L54 45L53 45L53 44L54 44L54 43L55 43L55 42L54 42L54 41L57 41L57 40L54 40L54 38L53 38L53 40L54 40L54 41L53 41L53 44L52 44L52 40L51 40L51 38L52 38L52 37L53 37L53 36L54 36L54 37L55 37L55 38L57 38L57 37L56 37L56 36L57 36L57 33L56 33L56 31L57 31L57 28L56 28L56 27L57 27L57 24L56 24L56 23L57 23L57 10L56 10L56 12L55 12L55 13L56 13L56 15L55 15L55 14L54 14L54 13L53 13L53 12L54 12L54 11L55 11L55 9L57 9L57 8L55 8L55 9L54 9L54 10L53 10L53 8L49 8L49 6L48 6L48 8L49 8L49 10L48 10L48 9L47 9L47 8L46 8L46 9L47 9L47 10L48 10L48 11L46 11L46 13L45 13L45 12L44 12L44 13L45 13L45 14L43 14L43 16L44 16L44 17L43 17L43 18L42 18L42 17L41 17L41 15L42 15L42 12L43 12L43 10L42 10L42 9L43 9L43 8L42 8L42 7L43 7L43 6L44 6L44 7L45 7L45 6L46 6L46 7L47 7L47 5L48 5L48 0L46 0L46 1L47 1L47 2L45 2L45 4L44 4L44 2L43 2L43 3L42 3L42 5L43 5L43 6L42 6L42 7L41 7L41 6L40 6L40 7L41 7L41 8L40 8L40 9L41 9L41 11L40 11L40 10L39 10L39 11L37 11L37 10L38 10L38 8L39 8L39 6L38 6L38 7L37 7L37 6L36 6L36 10L34 10L34 9L35 9L35 4L36 4L36 3L35 3L35 4L34 4L34 2L37 2L37 1L35 1L35 0L34 0L34 2L33 2L33 4L34 4L34 5L33 5L33 6L32 6L32 7L33 7L33 6L34 6L34 8L32 8L32 9L31 9L31 5L32 5L32 2L31 2L31 1L32 1L32 0L30 0L30 1L29 1L29 0L28 0L28 2L27 2L27 0L24 0L24 1L23 1L23 0L20 0L20 2L19 2L19 1L18 1L18 0L16 0L16 1L17 1L17 2L19 2L19 3L20 3L20 2L21 2L21 5L20 5L20 7L19 7L19 4L18 4L18 3L17 3L17 4L16 4L16 2L15 2L15 0ZM38 0L38 3L39 3L39 4L38 4L38 5L39 5L39 4L40 4L40 2L42 2L42 1L45 1L45 0L42 0L42 1L41 1L41 0ZM13 1L13 3L14 3L14 4L15 4L15 3L14 3L14 1ZM22 1L22 2L23 2L23 1ZM24 1L24 4L25 4L25 1ZM39 1L39 2L40 2L40 1ZM29 2L29 3L28 3L28 4L31 4L31 3L30 3L30 2ZM22 3L22 4L23 4L23 3ZM26 3L26 4L27 4L27 3ZM46 3L46 5L47 5L47 3ZM12 4L12 6L11 6L11 7L12 7L12 6L13 6L13 7L14 7L14 6L15 6L15 9L14 9L14 8L10 8L10 11L9 11L9 13L8 13L8 12L7 12L7 11L8 11L8 10L7 10L7 11L6 11L6 12L7 12L7 13L5 13L5 14L7 14L7 13L8 13L8 14L9 14L9 13L10 13L10 11L11 11L11 14L10 14L10 15L11 15L11 19L12 19L12 20L10 20L10 21L9 21L9 20L8 20L8 18L7 18L7 17L5 17L5 18L4 18L4 19L6 19L6 20L8 20L8 21L9 21L9 22L12 22L12 20L13 20L13 19L12 19L12 17L13 17L13 18L14 18L14 16L15 16L15 17L16 17L16 18L15 18L15 19L14 19L14 20L15 20L15 19L16 19L16 20L17 20L17 22L16 22L16 23L18 23L18 22L19 22L19 25L18 25L18 24L17 24L17 25L16 25L16 24L15 24L15 23L14 23L14 24L15 24L15 25L14 25L14 27L13 27L13 26L12 26L12 25L8 25L8 26L9 26L9 27L11 27L11 26L12 26L12 28L11 28L11 29L9 29L9 32L10 32L10 34L9 34L9 33L6 33L6 34L4 34L4 35L5 35L5 36L8 36L8 35L9 35L9 36L10 36L10 34L12 34L12 36L11 36L11 37L12 37L12 36L13 36L13 34L12 34L12 31L13 31L13 33L14 33L14 32L15 32L15 31L13 31L13 29L14 29L14 30L19 30L19 28L21 28L21 27L20 27L20 26L22 26L22 23L23 23L23 22L21 22L21 21L22 21L22 20L23 20L23 19L22 19L22 18L21 18L21 17L20 17L20 16L21 16L21 14L22 14L22 16L23 16L23 15L24 15L24 18L26 18L26 20L25 20L25 19L24 19L24 20L25 20L25 21L26 21L26 20L27 20L27 22L26 22L26 23L27 23L27 25L26 25L26 26L27 26L27 25L28 25L28 26L29 26L29 25L28 25L28 23L29 23L29 24L30 24L30 26L31 26L31 25L32 25L32 28L31 28L31 29L32 29L32 28L33 28L33 29L34 29L34 31L33 31L33 33L32 33L32 30L31 30L31 32L30 32L30 31L29 31L29 32L27 32L27 33L28 33L28 34L26 34L26 33L25 33L25 31L26 31L26 30L25 30L25 29L24 29L24 28L23 28L23 27L22 27L22 28L23 28L23 29L22 29L22 30L21 30L21 29L20 29L20 31L16 31L16 35L18 35L18 36L19 36L19 34L17 34L17 33L18 33L18 32L19 32L19 33L20 33L20 35L21 35L21 38L20 38L20 39L21 39L21 41L20 41L20 40L19 40L19 41L20 41L20 43L18 43L18 44L19 44L19 45L18 45L18 46L17 46L17 45L16 45L16 44L15 44L15 43L16 43L16 42L18 42L18 38L17 38L17 37L16 37L16 36L15 36L15 34L14 34L14 37L13 37L13 38L11 38L11 39L12 39L12 40L9 40L9 42L7 42L7 41L5 41L5 40L4 40L4 39L5 39L5 38L4 38L4 39L3 39L3 40L2 40L2 41L4 41L4 42L7 42L7 43L4 43L4 44L3 44L3 45L4 45L4 46L3 46L3 47L5 47L5 45L6 45L6 44L11 44L11 45L12 45L12 44L14 44L14 45L16 45L16 46L17 46L17 47L18 47L18 46L19 46L19 45L20 45L20 47L19 47L19 48L20 48L20 47L21 47L21 46L22 46L22 48L21 48L21 49L20 49L20 51L22 51L22 52L24 52L24 51L25 51L25 54L24 54L24 55L26 55L26 54L27 54L27 55L28 55L28 53L26 53L26 48L27 48L27 47L28 47L28 48L31 48L31 47L32 47L32 46L33 46L33 45L34 45L34 47L33 47L33 49L34 49L34 50L33 50L33 52L34 52L34 54L35 54L35 53L36 53L36 54L37 54L37 53L36 53L36 52L34 52L34 50L35 50L35 51L37 51L37 52L38 52L38 51L39 51L39 49L40 49L40 51L41 51L41 53L42 53L42 52L43 52L43 51L41 51L41 49L42 49L42 50L43 50L43 49L44 49L44 48L45 48L45 49L46 49L46 51L45 51L45 50L44 50L44 51L45 51L45 53L46 53L46 55L48 55L48 54L49 54L49 53L46 53L46 51L47 51L47 52L48 52L48 51L47 51L47 49L46 49L46 48L47 48L47 44L48 44L48 43L49 43L49 45L48 45L48 46L49 46L49 45L50 45L50 46L51 46L51 45L52 45L52 44L50 44L50 42L49 42L49 41L51 41L51 40L48 40L48 39L50 39L50 38L47 38L47 37L46 37L46 36L45 36L45 37L46 37L46 38L45 38L45 41L44 41L44 40L43 40L43 38L44 38L44 34L45 34L45 33L44 33L44 34L43 34L43 33L42 33L42 31L44 31L44 30L46 30L46 31L45 31L45 32L46 32L46 35L47 35L47 36L48 36L48 37L50 37L50 33L51 33L51 36L53 36L53 34L54 34L54 36L55 36L55 35L56 35L56 34L55 34L55 33L53 33L53 31L54 31L54 32L55 32L55 31L56 31L56 30L55 30L55 29L56 29L56 28L55 28L55 27L54 27L54 28L53 28L53 31L49 31L49 32L50 32L50 33L49 33L49 36L48 36L48 35L47 35L47 34L48 34L48 33L47 33L47 28L48 28L48 26L49 26L49 24L48 24L48 22L50 22L50 23L51 23L51 25L50 25L50 26L52 26L52 23L53 23L53 25L54 25L54 26L55 26L55 25L56 25L56 24L55 24L55 23L56 23L56 21L55 21L55 19L54 19L54 17L56 17L56 16L55 16L55 15L54 15L54 14L52 14L52 13L50 13L50 11L51 11L51 12L52 12L52 11L51 11L51 9L50 9L50 11L49 11L49 12L48 12L48 14L47 14L47 13L46 13L46 15L44 15L44 16L47 16L47 15L48 15L48 14L49 14L49 13L50 13L50 15L49 15L49 16L50 16L50 19L51 19L51 20L49 20L49 19L48 19L48 22L47 22L47 20L46 20L46 19L45 19L45 17L44 17L44 19L42 19L42 20L43 20L43 21L42 21L42 23L41 23L41 22L40 22L40 19L41 19L41 18L40 18L40 15L41 15L41 13L40 13L40 15L39 15L39 12L37 12L37 11L34 11L34 10L33 10L33 9L32 9L32 11L31 11L31 12L30 12L30 11L29 11L29 9L27 9L27 10L25 10L25 9L26 9L26 5L24 5L24 6L23 6L23 5L22 5L22 6L21 6L21 9L20 9L20 10L21 10L21 11L18 11L18 12L21 12L21 13L20 13L20 14L19 14L19 13L18 13L18 14L17 14L17 12L16 12L16 10L17 10L17 9L18 9L18 10L19 10L19 9L18 9L18 8L19 8L19 7L18 7L18 6L17 6L17 5L18 5L18 4L17 4L17 5L16 5L16 6L15 6L15 5L14 5L14 6L13 6L13 4ZM43 4L43 5L44 5L44 6L45 6L45 5L44 5L44 4ZM9 5L9 7L10 7L10 5ZM27 5L27 8L30 8L30 5ZM16 6L16 7L17 7L17 8L18 8L18 7L17 7L17 6ZM22 6L22 7L23 7L23 6ZM24 6L24 7L25 7L25 6ZM28 6L28 7L29 7L29 6ZM22 8L22 9L23 9L23 11L22 11L22 12L23 12L23 11L24 11L24 13L23 13L23 14L24 14L24 13L26 13L26 14L28 14L28 15L29 15L29 16L30 16L30 17L28 17L28 18L30 18L30 17L31 17L31 19L30 19L30 20L28 20L28 19L27 19L27 20L28 20L28 22L27 22L27 23L28 23L28 22L29 22L29 21L31 21L31 20L32 20L32 21L33 21L33 22L31 22L31 23L30 23L30 24L31 24L31 23L32 23L32 25L33 25L33 26L34 26L34 24L36 24L36 26L37 26L37 28L36 28L36 27L34 27L34 29L35 29L35 30L36 30L36 29L37 29L37 28L38 28L38 29L39 29L39 28L40 28L40 29L41 29L41 30L40 30L40 31L38 31L38 30L37 30L37 31L36 31L36 33L35 33L35 35L34 35L34 36L33 36L33 34L32 34L32 33L31 33L31 34L30 34L30 32L29 32L29 34L28 34L28 35L27 35L27 36L26 36L26 35L25 35L25 34L24 34L24 31L25 31L25 30L24 30L24 29L23 29L23 30L22 30L22 33L23 33L23 34L21 34L21 35L22 35L22 38L21 38L21 39L22 39L22 41L23 41L23 43L22 43L22 44L23 44L23 43L24 43L24 44L25 44L25 45L26 45L26 46L24 46L24 48L26 48L26 46L28 46L28 47L29 47L29 46L30 46L30 47L31 47L31 46L32 46L32 45L33 45L33 44L35 44L35 43L36 43L36 41L37 41L37 42L38 42L38 41L39 41L39 40L40 40L40 42L39 42L39 43L37 43L37 44L36 44L36 45L35 45L35 47L36 47L36 46L38 46L38 45L37 45L37 44L40 44L40 45L39 45L39 46L41 46L41 47L40 47L40 49L41 49L41 47L42 47L42 45L43 45L43 46L44 46L44 45L45 45L45 48L46 48L46 44L47 44L47 43L45 43L45 42L46 42L46 41L48 41L48 40L47 40L47 38L46 38L46 41L45 41L45 42L44 42L44 41L43 41L43 40L42 40L42 39L41 39L41 35L40 35L40 36L39 36L39 34L38 34L38 33L39 33L39 32L40 32L40 34L42 34L42 33L41 33L41 32L40 32L40 31L42 31L42 28L43 28L43 30L44 30L44 29L46 29L46 28L47 28L47 26L48 26L48 24L46 24L46 20L45 20L45 19L44 19L44 21L43 21L43 22L44 22L44 23L45 23L45 24L44 24L44 25L45 25L45 26L46 26L46 27L44 27L44 26L43 26L43 27L41 27L41 23L40 23L40 26L38 26L38 25L39 25L39 23L38 23L38 21L39 21L39 19L40 19L40 18L38 18L38 16L37 16L37 15L38 15L38 13L37 13L37 12L36 12L36 13L35 13L35 12L34 12L34 11L33 11L33 12L32 12L32 14L31 14L31 16L30 16L30 15L29 15L29 13L30 13L30 12L29 12L29 11L28 11L28 12L27 12L27 13L26 13L26 11L24 11L24 9L25 9L25 8L24 8L24 9L23 9L23 8ZM44 8L44 10L45 10L45 8ZM13 9L13 10L12 10L12 11L13 11L13 10L14 10L14 9ZM15 9L15 10L16 10L16 9ZM30 9L30 10L31 10L31 9ZM14 11L14 12L15 12L15 11ZM41 11L41 12L42 12L42 11ZM2 12L2 13L3 13L3 12ZM34 13L34 15L33 15L33 14L32 14L32 15L33 15L33 17L34 17L34 18L36 18L36 19L37 19L37 18L36 18L36 14L35 14L35 13ZM11 14L11 15L12 15L12 16L14 16L14 14L13 14L13 15L12 15L12 14ZM15 14L15 15L17 15L17 18L18 18L18 19L17 19L17 20L18 20L18 21L19 21L19 20L20 20L20 21L21 21L21 20L22 20L22 19L21 19L21 20L20 20L20 19L19 19L19 18L20 18L20 17L19 17L19 16L20 16L20 15L19 15L19 16L18 16L18 15L17 15L17 14ZM51 14L51 15L50 15L50 16L51 16L51 15L52 15L52 18L53 18L53 17L54 17L54 15L52 15L52 14ZM25 15L25 16L26 16L26 17L27 17L27 16L26 16L26 15ZM34 15L34 17L35 17L35 15ZM2 17L2 18L3 18L3 17ZM46 17L46 18L47 18L47 17ZM48 17L48 18L49 18L49 17ZM6 18L6 19L7 19L7 18ZM18 19L18 20L19 20L19 19ZM33 19L33 20L34 20L34 22L33 22L33 24L34 24L34 22L35 22L35 23L36 23L36 24L37 24L37 25L38 25L38 23L36 23L36 22L37 22L37 21L38 21L38 20L37 20L37 21L36 21L36 20L34 20L34 19ZM53 19L53 20L52 20L52 22L51 22L51 23L52 23L52 22L53 22L53 23L54 23L54 22L55 22L55 21L54 21L54 19ZM1 20L1 21L0 21L0 22L1 22L1 21L2 21L2 20ZM14 21L14 22L15 22L15 21ZM35 21L35 22L36 22L36 21ZM44 21L44 22L45 22L45 21ZM20 22L20 23L21 23L21 22ZM24 22L24 23L25 23L25 22ZM42 23L42 25L43 25L43 23ZM2 24L2 27L1 27L1 28L2 28L2 27L3 27L3 26L4 26L4 25L3 25L3 24ZM23 24L23 25L24 25L24 26L25 26L25 25L24 25L24 24ZM45 24L45 25L46 25L46 26L47 26L47 25L46 25L46 24ZM5 25L5 26L7 26L7 25ZM15 25L15 28L14 28L14 29L15 29L15 28L16 28L16 27L17 27L17 26L16 26L16 25ZM5 27L5 30L8 30L8 27ZM18 27L18 28L19 28L19 27ZM27 27L27 30L30 30L30 27ZM40 27L40 28L41 28L41 27ZM49 27L49 30L52 30L52 27ZM6 28L6 29L7 29L7 28ZM12 28L12 29L11 29L11 30L10 30L10 32L11 32L11 30L12 30L12 29L13 29L13 28ZM28 28L28 29L29 29L29 28ZM35 28L35 29L36 29L36 28ZM50 28L50 29L51 29L51 28ZM54 30L54 31L55 31L55 30ZM5 31L5 32L8 32L8 31ZM20 31L20 33L21 33L21 31ZM34 31L34 32L35 32L35 31ZM37 31L37 32L38 32L38 31ZM36 33L36 35L35 35L35 36L34 36L34 39L33 39L33 38L31 38L31 43L32 43L32 40L33 40L33 41L34 41L34 42L35 42L35 41L36 41L36 38L37 38L37 37L36 37L36 35L37 35L37 36L38 36L38 39L37 39L37 41L38 41L38 39L40 39L40 40L41 40L41 41L42 41L42 42L40 42L40 44L41 44L41 45L42 45L42 44L43 44L43 45L44 45L44 44L45 44L45 43L42 43L42 42L43 42L43 41L42 41L42 40L41 40L41 39L40 39L40 38L39 38L39 36L38 36L38 34L37 34L37 33ZM6 34L6 35L8 35L8 34ZM31 34L31 35L28 35L28 36L27 36L27 38L26 38L26 37L24 37L24 36L25 36L25 35L23 35L23 38L22 38L22 39L23 39L23 40L24 40L24 43L25 43L25 42L26 42L26 41L25 41L25 40L26 40L26 39L27 39L27 40L28 40L28 43L29 43L29 44L28 44L28 46L29 46L29 44L30 44L30 46L31 46L31 45L32 45L32 44L30 44L30 41L29 41L29 40L30 40L30 36L31 36L31 37L32 37L32 36L31 36L31 35L32 35L32 34ZM3 36L3 37L4 37L4 36ZM28 36L28 37L29 37L29 36ZM6 37L6 38L7 38L7 37ZM9 37L9 39L10 39L10 37ZM35 37L35 38L36 38L36 37ZM16 38L16 39L17 39L17 38ZM24 38L24 39L26 39L26 38ZM28 38L28 39L29 39L29 38ZM6 39L6 40L8 40L8 39ZM13 39L13 40L14 40L14 41L12 41L12 42L11 42L11 41L10 41L10 42L9 42L9 43L10 43L10 42L11 42L11 43L12 43L12 42L13 42L13 43L14 43L14 41L15 41L15 42L16 42L16 41L17 41L17 40L16 40L16 41L15 41L15 39ZM34 39L34 41L35 41L35 39ZM20 43L20 45L21 45L21 43ZM37 47L37 48L36 48L36 49L37 49L37 51L38 51L38 47ZM51 47L51 48L52 48L52 47ZM22 48L22 51L24 51L24 49L23 49L23 48ZM34 48L34 49L35 49L35 48ZM53 48L53 49L54 49L54 48ZM18 49L18 50L19 50L19 49ZM27 49L27 52L30 52L30 49ZM31 49L31 52L32 52L32 49ZM49 49L49 52L52 52L52 49ZM15 50L15 52L16 52L16 50ZM28 50L28 51L29 51L29 50ZM50 50L50 51L51 51L51 50ZM8 51L8 52L10 52L10 51ZM13 51L13 52L14 52L14 51ZM18 51L18 52L17 52L17 53L18 53L18 52L19 52L19 51ZM39 52L39 53L40 53L40 52ZM11 54L11 55L10 55L10 56L11 56L11 55L12 55L12 54ZM20 54L20 55L21 55L21 54ZM40 54L40 55L41 55L41 56L42 56L42 55L41 55L41 54ZM18 56L18 57L19 57L19 56ZM36 56L36 57L37 57L37 56ZM51 56L51 57L53 57L53 56ZM56 56L56 57L57 57L57 56ZM0 0L0 7L7 7L7 0ZM1 1L1 6L6 6L6 1ZM2 2L2 5L5 5L5 2ZM50 0L50 7L57 7L57 0ZM51 1L51 6L56 6L56 1ZM52 2L52 5L55 5L55 2ZM0 50L0 57L7 57L7 50ZM1 51L1 56L6 56L6 51ZM2 52L2 55L5 55L5 52Z" fill="#000000"/></g></g></svg>
