<?xml version="1.0" encoding="UTF-8"?>
<svg xmlns="http://www.w3.org/2000/svg" version="1.1" width="300" height="300" viewBox="0 0 300 300"><rect x="0" y="0" width="300" height="300" fill="#fefefe"/><g transform="scale(4.615)"><g transform="translate(4,4)"><path fill-rule="evenodd" d="M8 0L8 1L9 1L9 2L8 2L8 5L10 5L10 7L9 7L9 6L8 6L8 7L9 7L9 8L8 8L8 9L7 9L7 8L6 8L6 9L7 9L7 10L5 10L5 9L4 9L4 8L0 8L0 10L2 10L2 11L0 11L0 12L1 12L1 13L0 13L0 14L1 14L1 15L0 15L0 18L1 18L1 16L2 16L2 20L3 20L3 22L2 22L2 21L1 21L1 24L2 24L2 23L3 23L3 25L1 25L1 26L0 26L0 28L2 28L2 26L4 26L4 28L3 28L3 29L1 29L1 31L0 31L0 33L1 33L1 31L2 31L2 33L5 33L5 34L3 34L3 35L2 35L2 34L1 34L1 35L2 35L2 37L4 37L4 36L5 36L5 38L2 38L2 40L4 40L4 39L5 39L5 38L6 38L6 39L7 39L7 40L6 40L6 41L7 41L7 42L6 42L6 43L7 43L7 44L5 44L5 43L4 43L4 44L3 44L3 41L0 41L0 48L5 48L5 47L7 47L7 48L6 48L6 49L7 49L7 48L8 48L8 47L10 47L10 48L11 48L11 49L8 49L8 50L9 50L9 53L8 53L8 57L9 57L9 56L10 56L10 57L13 57L13 56L12 56L12 54L14 54L14 55L15 55L15 56L14 56L14 57L15 57L15 56L16 56L16 57L18 57L18 56L17 56L17 55L20 55L20 56L19 56L19 57L23 57L23 54L25 54L25 55L24 55L24 57L25 57L25 55L26 55L26 56L28 56L28 55L26 55L26 54L27 54L27 53L29 53L29 54L31 54L31 55L30 55L30 56L31 56L31 57L32 57L32 55L34 55L34 56L33 56L33 57L36 57L36 55L37 55L37 54L36 54L36 53L33 53L33 51L35 51L35 52L36 52L36 51L39 51L39 50L40 50L40 49L39 49L39 48L38 48L38 49L37 49L37 48L35 48L35 47L38 47L38 45L39 45L39 46L40 46L40 47L43 47L43 50L44 50L44 51L43 51L43 52L42 52L42 53L41 53L41 54L40 54L40 52L41 52L41 51L40 51L40 52L39 52L39 54L38 54L38 57L41 57L41 56L42 56L42 57L43 57L43 56L46 56L46 57L51 57L51 54L52 54L52 53L53 53L53 55L54 55L54 52L55 52L55 51L56 51L56 53L55 53L55 54L56 54L56 53L57 53L57 51L56 51L56 49L57 49L57 48L56 48L56 49L55 49L55 50L53 50L53 48L54 48L54 47L57 47L57 45L56 45L56 46L55 46L55 44L53 44L53 46L52 46L52 43L53 43L53 42L54 42L54 43L56 43L56 44L57 44L57 43L56 43L56 42L54 42L54 41L55 41L55 38L56 38L56 39L57 39L57 38L56 38L56 37L55 37L55 36L54 36L54 35L57 35L57 31L56 31L56 30L57 30L57 28L56 28L56 24L55 24L55 27L53 27L53 25L54 25L54 23L53 23L53 22L54 22L54 21L55 21L55 20L54 20L54 21L53 21L53 20L50 20L50 19L49 19L49 20L50 20L50 21L51 21L51 22L52 22L52 23L53 23L53 25L52 25L52 26L51 26L51 25L49 25L49 21L48 21L48 20L47 20L47 19L48 19L48 17L47 17L47 16L48 16L48 14L47 14L47 16L44 16L44 15L43 15L43 14L42 14L42 17L41 17L41 18L39 18L39 19L40 19L40 20L37 20L37 19L36 19L36 20L35 20L35 17L34 17L34 16L35 16L35 15L33 15L33 14L34 14L34 12L35 12L35 14L36 14L36 15L39 15L39 17L40 17L40 16L41 16L41 15L39 15L39 14L40 14L40 13L39 13L39 12L40 12L40 11L42 11L42 12L43 12L43 13L44 13L44 14L46 14L46 13L44 13L44 12L43 12L43 11L42 11L42 10L44 10L44 9L43 9L43 8L44 8L44 7L45 7L45 6L46 6L46 7L47 7L47 5L48 5L48 0L45 0L45 1L44 1L44 2L42 2L42 3L43 3L43 5L45 5L45 6L44 6L44 7L43 7L43 6L42 6L42 5L41 5L41 4L37 4L37 3L39 3L39 2L37 2L37 1L38 1L38 0L37 0L37 1L36 1L36 0L35 0L35 1L34 1L34 2L33 2L33 1L32 1L32 2L31 2L31 0L27 0L27 1L28 1L28 2L27 2L27 3L29 3L29 4L26 4L26 2L24 2L24 3L23 3L23 1L26 1L26 0L23 0L23 1L22 1L22 0L21 0L21 1L20 1L20 0L19 0L19 3L18 3L18 1L16 1L16 3L17 3L17 5L15 5L15 4L14 4L14 3L13 3L13 0L10 0L10 1L9 1L9 0ZM14 0L14 1L15 1L15 0ZM39 0L39 1L40 1L40 2L41 2L41 1L43 1L43 0L41 0L41 1L40 1L40 0ZM29 1L29 2L30 2L30 1ZM35 1L35 2L34 2L34 3L35 3L35 2L36 2L36 1ZM45 1L45 3L44 3L44 4L45 4L45 5L47 5L47 3L46 3L46 2L47 2L47 1ZM10 2L10 5L12 5L12 6L11 6L11 7L12 7L12 6L13 6L13 8L10 8L10 9L8 9L8 11L5 11L5 12L7 12L7 13L6 13L6 14L5 14L5 13L4 13L4 9L2 9L2 10L3 10L3 14L2 14L2 16L3 16L3 15L4 15L4 17L3 17L3 20L4 20L4 21L5 21L5 24L4 24L4 25L5 25L5 24L8 24L8 23L9 23L9 24L10 24L10 22L13 22L13 23L11 23L11 24L12 24L12 25L14 25L14 24L15 24L15 25L16 25L16 26L15 26L15 28L12 28L12 29L10 29L10 30L9 30L9 32L7 32L7 31L5 31L5 32L7 32L7 33L6 33L6 34L7 34L7 35L5 35L5 36L7 36L7 37L6 37L6 38L8 38L8 37L9 37L9 39L10 39L10 40L9 40L9 41L10 41L10 40L11 40L11 39L14 39L14 38L18 38L18 35L21 35L21 36L19 36L19 37L20 37L20 38L21 38L21 40L18 40L18 41L19 41L19 43L18 43L18 42L15 42L15 41L17 41L17 39L16 39L16 40L13 40L13 42L12 42L12 41L11 41L11 42L10 42L10 43L9 43L9 42L8 42L8 44L10 44L10 45L8 45L8 46L7 46L7 45L6 45L6 46L7 46L7 47L8 47L8 46L10 46L10 45L11 45L11 47L12 47L12 46L13 46L13 48L12 48L12 49L11 49L11 50L12 50L12 52L13 52L13 50L14 50L14 53L16 53L16 54L17 54L17 53L18 53L18 54L19 54L19 52L20 52L20 50L19 50L19 49L21 49L21 52L22 52L22 53L23 53L23 52L24 52L24 53L25 53L25 54L26 54L26 53L25 53L25 52L26 52L26 51L24 51L24 50L26 50L26 49L25 49L25 48L28 48L28 47L27 47L27 46L29 46L29 47L30 47L30 48L32 48L32 49L31 49L31 53L32 53L32 51L33 51L33 47L34 47L34 46L35 46L35 44L34 44L34 45L33 45L33 42L32 42L32 47L31 47L31 46L30 46L30 45L31 45L31 44L30 44L30 45L29 45L29 44L28 44L28 43L29 43L29 42L31 42L31 41L30 41L30 40L33 40L33 39L34 39L34 38L36 38L36 39L35 39L35 40L34 40L34 41L36 41L36 42L34 42L34 43L36 43L36 46L37 46L37 45L38 45L38 44L40 44L40 43L41 43L41 41L42 41L42 42L44 42L44 43L42 43L42 45L43 45L43 46L45 46L45 47L46 47L46 48L47 48L47 49L46 49L46 50L45 50L45 51L47 51L47 52L48 52L48 48L47 48L47 47L46 47L46 46L47 46L47 45L49 45L49 46L48 46L48 47L49 47L49 46L50 46L50 44L51 44L51 42L50 42L50 41L52 41L52 40L53 40L53 39L54 39L54 38L53 38L53 36L52 36L52 35L51 35L51 37L50 37L50 36L48 36L48 35L47 35L47 34L50 34L50 33L49 33L49 32L50 32L50 31L49 31L49 32L48 32L48 29L47 29L47 31L45 31L45 30L46 30L46 26L49 26L49 25L48 25L48 23L47 23L47 25L46 25L46 24L45 24L45 23L46 23L46 22L47 22L47 20L46 20L46 17L42 17L42 18L41 18L41 20L43 20L43 21L44 21L44 22L45 22L45 23L43 23L43 22L41 22L41 23L38 23L38 22L39 22L39 21L38 21L38 22L35 22L35 20L34 20L34 19L32 19L32 16L29 16L29 15L28 15L28 16L29 16L29 17L27 17L27 18L25 18L25 17L24 17L24 18L23 18L23 15L26 15L26 16L27 16L27 14L25 14L25 13L26 13L26 12L28 12L28 13L30 13L30 14L31 14L31 12L30 12L30 11L33 11L33 10L34 10L34 11L35 11L35 12L38 12L38 11L37 11L37 9L38 9L38 10L39 10L39 9L38 9L38 8L41 8L41 9L40 9L40 10L41 10L41 9L42 9L42 8L41 8L41 7L42 7L42 6L41 6L41 7L40 7L40 5L36 5L36 4L34 4L34 5L33 5L33 3L32 3L32 4L31 4L31 5L32 5L32 6L31 6L31 9L32 9L32 10L30 10L30 11L29 11L29 10L26 10L26 11L25 11L25 10L23 10L23 9L24 9L24 8L25 8L25 9L26 9L26 6L25 6L25 5L26 5L26 4L24 4L24 6L23 6L23 3L22 3L22 2L21 2L21 3L19 3L19 4L20 4L20 5L21 5L21 7L20 7L20 6L19 6L19 7L20 7L20 8L18 8L18 9L20 9L20 13L21 13L21 14L19 14L19 13L18 13L18 12L19 12L19 10L18 10L18 12L17 12L17 13L16 13L16 12L15 12L15 15L16 15L16 16L15 16L15 17L14 17L14 18L13 18L13 16L14 16L14 13L13 13L13 11L12 11L12 13L11 13L11 10L12 10L12 9L13 9L13 10L14 10L14 11L15 11L15 8L16 8L16 11L17 11L17 7L18 7L18 5L17 5L17 7L16 7L16 6L15 6L15 5L14 5L14 4L13 4L13 5L12 5L12 4L11 4L11 2ZM13 5L13 6L14 6L14 7L15 7L15 6L14 6L14 5ZM27 5L27 8L30 8L30 5ZM22 6L22 8L21 8L21 11L23 11L23 10L22 10L22 9L23 9L23 8L24 8L24 7L25 7L25 6L24 6L24 7L23 7L23 6ZM28 6L28 7L29 7L29 6ZM32 6L32 8L33 8L33 6ZM34 6L34 9L36 9L36 8L38 8L38 7L39 7L39 6L38 6L38 7L37 7L37 6L36 6L36 7L35 7L35 6ZM48 6L48 7L49 7L49 6ZM45 8L45 9L47 9L47 10L45 10L45 11L47 11L47 12L48 12L48 11L49 11L49 17L50 17L50 15L51 15L51 13L52 13L52 14L54 14L54 15L53 15L53 17L54 17L54 18L51 18L51 19L55 19L55 17L56 17L56 18L57 18L57 15L55 15L55 14L54 14L54 10L53 10L53 9L55 9L55 8L52 8L52 10L53 10L53 13L52 13L52 12L51 12L51 10L50 10L50 8L48 8L48 9L47 9L47 8ZM56 8L56 9L57 9L57 8ZM35 10L35 11L36 11L36 10ZM47 10L47 11L48 11L48 10ZM49 10L49 11L50 11L50 10ZM55 10L55 13L56 13L56 11L57 11L57 10ZM24 11L24 12L25 12L25 11ZM22 12L22 13L23 13L23 12ZM32 12L32 13L33 13L33 12ZM50 12L50 13L51 13L51 12ZM7 13L7 14L6 14L6 15L5 15L5 14L4 14L4 15L5 15L5 17L7 17L7 16L6 16L6 15L8 15L8 16L9 16L9 17L8 17L8 19L7 19L7 18L4 18L4 20L6 20L6 21L7 21L7 22L6 22L6 23L8 23L8 22L10 22L10 20L8 20L8 19L11 19L11 18L10 18L10 17L11 17L11 16L12 16L12 15L13 15L13 14L12 14L12 15L11 15L11 14L10 14L10 13L9 13L9 14L10 14L10 15L8 15L8 13ZM16 14L16 15L17 15L17 16L19 16L19 17L15 17L15 19L13 19L13 18L12 18L12 19L13 19L13 20L12 20L12 21L13 21L13 22L14 22L14 20L15 20L15 19L16 19L16 23L15 23L15 24L16 24L16 23L17 23L17 21L18 21L18 22L19 22L19 24L17 24L17 26L16 26L16 27L19 27L19 26L18 26L18 25L20 25L20 27L21 27L21 26L22 26L22 27L23 27L23 25L25 25L25 28L23 28L23 29L21 29L21 28L18 28L18 29L21 29L21 30L24 30L24 33L23 33L23 31L22 31L22 32L21 32L21 31L20 31L20 30L17 30L17 28L15 28L15 29L12 29L12 30L13 30L13 31L11 31L11 30L10 30L10 31L11 31L11 32L12 32L12 33L13 33L13 32L14 32L14 30L15 30L15 31L16 31L16 32L15 32L15 33L14 33L14 34L12 34L12 35L14 35L14 36L11 36L11 35L9 35L9 33L7 33L7 34L8 34L8 36L9 36L9 37L10 37L10 36L11 36L11 37L13 37L13 38L14 38L14 37L15 37L15 35L16 35L16 36L17 36L17 35L18 35L18 31L19 31L19 34L20 34L20 33L21 33L21 34L22 34L22 33L23 33L23 35L24 35L24 34L25 34L25 35L26 35L26 34L27 34L27 36L29 36L29 38L27 38L27 37L26 37L26 36L23 36L23 39L24 39L24 40L23 40L23 41L22 41L22 40L21 40L21 41L22 41L22 44L20 44L20 45L21 45L21 46L19 46L19 45L17 45L17 46L16 46L16 47L17 47L17 48L16 48L16 49L19 49L19 48L18 48L18 46L19 46L19 47L21 47L21 48L23 48L23 49L22 49L22 50L23 50L23 49L24 49L24 48L23 48L23 47L24 47L24 46L25 46L25 45L26 45L26 46L27 46L27 45L26 45L26 43L25 43L25 42L29 42L29 40L28 40L28 39L30 39L30 38L32 38L32 39L33 39L33 38L34 38L34 37L37 37L37 38L39 38L39 39L38 39L38 40L37 40L37 41L39 41L39 42L37 42L37 44L38 44L38 43L39 43L39 42L40 42L40 39L41 39L41 37L40 37L40 36L37 36L37 35L41 35L41 34L42 34L42 36L43 36L43 37L44 37L44 36L45 36L45 33L47 33L47 32L45 32L45 33L44 33L44 31L41 31L41 30L42 30L42 29L43 29L43 28L44 28L44 29L45 29L45 27L44 27L44 26L46 26L46 25L44 25L44 24L43 24L43 23L41 23L41 24L43 24L43 26L42 26L42 27L41 27L41 25L40 25L40 26L39 26L39 24L38 24L38 23L37 23L37 24L36 24L36 23L35 23L35 24L33 24L33 22L32 22L32 23L31 23L31 21L29 21L29 20L32 20L32 19L30 19L30 17L29 17L29 18L28 18L28 19L29 19L29 20L27 20L27 19L25 19L25 18L24 18L24 19L25 19L25 20L27 20L27 21L25 21L25 22L24 22L24 21L23 21L23 19L22 19L22 17L21 17L21 16L20 16L20 15L19 15L19 14ZM10 15L10 16L11 16L11 15ZM51 16L51 17L52 17L52 16ZM54 16L54 17L55 17L55 16ZM19 17L19 18L18 18L18 21L19 21L19 22L22 22L22 23L23 23L23 22L22 22L22 19L19 19L19 18L21 18L21 17ZM36 17L36 18L37 18L37 17ZM42 18L42 19L43 19L43 18ZM44 18L44 19L45 19L45 18ZM6 19L6 20L7 20L7 21L8 21L8 20L7 20L7 19ZM56 19L56 20L57 20L57 19ZM33 20L33 21L34 21L34 20ZM36 20L36 21L37 21L37 20ZM56 21L56 22L55 22L55 23L57 23L57 21ZM3 22L3 23L4 23L4 22ZM25 22L25 25L27 25L27 26L28 26L28 25L29 25L29 24L30 24L30 23L29 23L29 24L26 24L26 23L28 23L28 22ZM20 23L20 24L21 24L21 25L23 25L23 24L21 24L21 23ZM32 24L32 25L33 25L33 24ZM6 25L6 26L7 26L7 25ZM8 25L8 26L10 26L10 27L9 27L9 28L10 28L10 27L11 27L11 26L10 26L10 25ZM30 25L30 26L31 26L31 25ZM34 25L34 27L35 27L35 28L34 28L34 29L35 29L35 30L36 30L36 31L37 31L37 32L36 32L36 33L37 33L37 32L38 32L38 34L39 34L39 31L40 31L40 32L41 32L41 31L40 31L40 30L39 30L39 29L38 29L38 30L36 30L36 29L37 29L37 27L35 27L35 25ZM12 26L12 27L14 27L14 26ZM38 26L38 27L39 27L39 28L40 28L40 29L41 29L41 27L39 27L39 26ZM5 27L5 30L8 30L8 27ZM27 27L27 30L30 30L30 27ZM32 27L32 28L33 28L33 27ZM42 27L42 28L43 28L43 27ZM49 27L49 30L52 30L52 27ZM6 28L6 29L7 29L7 28ZM25 28L25 29L24 29L24 30L26 30L26 28ZM28 28L28 29L29 29L29 28ZM50 28L50 29L51 29L51 28ZM53 28L53 29L54 29L54 28ZM55 28L55 30L56 30L56 28ZM15 29L15 30L16 30L16 29ZM31 29L31 34L30 34L30 35L29 35L29 33L30 33L30 31L29 31L29 32L28 32L28 33L27 33L27 31L26 31L26 33L25 33L25 34L26 34L26 33L27 33L27 34L28 34L28 35L29 35L29 36L32 36L32 38L33 38L33 37L34 37L34 36L36 36L36 35L35 35L35 33L33 33L33 32L32 32L32 31L33 31L33 29ZM38 30L38 31L39 31L39 30ZM3 31L3 32L4 32L4 31ZM34 31L34 32L35 32L35 31ZM51 31L51 32L52 32L52 34L54 34L54 33L55 33L55 34L56 34L56 33L55 33L55 31ZM42 32L42 33L43 33L43 32ZM53 32L53 33L54 33L54 32ZM15 33L15 34L14 34L14 35L15 35L15 34L16 34L16 35L17 35L17 33ZM32 34L32 36L34 36L34 34ZM43 34L43 35L44 35L44 34ZM46 36L46 37L45 37L45 39L44 39L44 38L42 38L42 39L43 39L43 40L44 40L44 41L45 41L45 42L47 42L47 43L44 43L44 44L49 44L49 43L50 43L50 42L49 42L49 43L48 43L48 42L47 42L47 41L50 41L50 40L51 40L51 39L52 39L52 37L51 37L51 39L50 39L50 40L47 40L47 39L49 39L49 38L48 38L48 37L47 37L47 36ZM21 37L21 38L22 38L22 37ZM24 37L24 39L25 39L25 41L24 41L24 42L23 42L23 43L24 43L24 42L25 42L25 41L26 41L26 40L27 40L27 39L25 39L25 38L26 38L26 37ZM46 37L46 38L47 38L47 37ZM10 38L10 39L11 39L11 38ZM45 39L45 41L46 41L46 39ZM7 40L7 41L8 41L8 40ZM56 40L56 41L57 41L57 40ZM20 42L20 43L21 43L21 42ZM10 43L10 44L11 44L11 45L13 45L13 44L11 44L11 43ZM14 43L14 49L15 49L15 45L16 45L16 44L17 44L17 43ZM1 44L1 47L2 47L2 46L3 46L3 47L5 47L5 46L3 46L3 45L2 45L2 44ZM4 44L4 45L5 45L5 44ZM22 44L22 46L21 46L21 47L22 47L22 46L23 46L23 45L24 45L24 44ZM53 46L53 47L52 47L52 48L53 48L53 47L54 47L54 46ZM50 47L50 48L51 48L51 47ZM41 48L41 49L42 49L42 48ZM44 48L44 49L45 49L45 48ZM27 49L27 52L30 52L30 49ZM34 49L34 50L35 50L35 49ZM36 49L36 50L37 50L37 49ZM49 49L49 52L52 52L52 49ZM17 50L17 51L18 51L18 52L19 52L19 51L18 51L18 50ZM28 50L28 51L29 51L29 50ZM50 50L50 51L51 51L51 50ZM15 51L15 52L16 52L16 51ZM45 52L45 53L46 53L46 52ZM9 53L9 55L11 55L11 53ZM20 53L20 55L21 55L21 56L22 56L22 54L21 54L21 53ZM42 53L42 54L43 54L43 53ZM48 53L48 54L50 54L50 53ZM34 54L34 55L36 55L36 54ZM44 54L44 55L45 55L45 54ZM46 54L46 56L47 56L47 54ZM40 55L40 56L41 56L41 55ZM48 55L48 56L49 56L49 55ZM56 55L56 56L57 56L57 55ZM52 56L52 57L55 57L55 56ZM0 0L0 7L7 7L7 0ZM1 1L1 6L6 6L6 1ZM2 2L2 5L5 5L5 2ZM50 0L50 7L57 7L57 0ZM51 1L51 6L56 6L56 1ZM52 2L52 5L55 5L55 2ZM0 50L0 57L7 57L7 50ZM1 51L1 56L6 56L6 51ZM2 52L2 55L5 55L5 52Z" fill="#000000"/></g></g></svg>
