<?xml version="1.0" encoding="UTF-8"?>
<svg xmlns="http://www.w3.org/2000/svg" version="1.1" width="300" height="300" viewBox="0 0 300 300"><rect x="0" y="0" width="300" height="300" fill="#fefefe"/><g transform="scale(4.615)"><g transform="translate(4,4)"><path fill-rule="evenodd" d="M8 0L8 2L9 2L9 4L8 4L8 9L7 9L7 8L5 8L5 9L4 9L4 10L2 10L2 9L3 9L3 8L0 8L0 10L2 10L2 11L4 11L4 12L5 12L5 14L4 14L4 15L3 15L3 14L1 14L1 12L0 12L0 14L1 14L1 15L0 15L0 16L1 16L1 17L3 17L3 19L2 19L2 18L0 18L0 20L1 20L1 19L2 19L2 21L3 21L3 24L2 24L2 26L1 26L1 25L0 25L0 26L1 26L1 28L0 28L0 29L1 29L1 28L2 28L2 30L3 30L3 29L4 29L4 31L1 31L1 30L0 30L0 31L1 31L1 32L0 32L0 35L1 35L1 36L0 36L0 37L1 37L1 36L2 36L2 38L1 38L1 40L0 40L0 42L2 42L2 43L1 43L1 44L0 44L0 45L1 45L1 46L0 46L0 48L5 48L5 47L7 47L7 48L6 48L6 49L8 49L8 50L9 50L9 49L10 49L10 47L11 47L11 46L10 46L10 47L9 47L9 46L8 46L8 45L10 45L10 44L11 44L11 45L13 45L13 46L12 46L12 47L13 47L13 48L14 48L14 49L12 49L12 48L11 48L11 50L13 50L13 51L10 51L10 53L11 53L11 54L8 54L8 57L9 57L9 55L10 55L10 57L13 57L13 53L11 53L11 52L14 52L14 55L15 55L15 56L14 56L14 57L17 57L17 55L18 55L18 57L21 57L21 56L19 56L19 54L18 54L18 53L19 53L19 52L20 52L20 53L21 53L21 52L22 52L22 53L23 53L23 55L22 55L22 54L20 54L20 55L22 55L22 57L25 57L25 55L24 55L24 54L26 54L26 55L27 55L27 56L26 56L26 57L28 57L28 55L29 55L29 57L33 57L33 55L34 55L34 57L35 57L35 55L38 55L38 52L40 52L40 53L39 53L39 55L40 55L40 57L42 57L42 56L43 56L43 54L42 54L42 53L43 53L43 52L44 52L44 57L48 57L48 56L49 56L49 57L50 57L50 55L49 55L49 54L52 54L52 55L53 55L53 56L51 56L51 57L54 57L54 55L57 55L57 54L55 54L55 52L54 52L54 51L53 51L53 50L54 50L54 49L53 49L53 48L54 48L54 47L55 47L55 49L56 49L56 51L57 51L57 49L56 49L56 47L57 47L57 45L56 45L56 47L55 47L55 46L52 46L52 40L53 40L53 44L54 44L54 43L55 43L55 44L56 44L56 43L57 43L57 42L56 42L56 41L57 41L57 40L55 40L55 42L54 42L54 38L57 38L57 37L56 37L56 36L57 36L57 33L56 33L56 31L57 31L57 28L56 28L56 27L57 27L57 24L56 24L56 23L57 23L57 21L56 21L56 19L57 19L57 18L56 18L56 19L55 19L55 16L56 16L56 17L57 17L57 12L55 12L55 13L54 13L54 15L52 15L52 14L53 14L53 12L54 12L54 11L55 11L55 9L57 9L57 8L55 8L55 9L54 9L54 10L53 10L53 11L52 11L52 9L53 9L53 8L49 8L49 6L48 6L48 7L47 7L47 5L48 5L48 0L42 0L42 1L41 1L41 0L38 0L38 2L37 2L37 1L35 1L35 0L34 0L34 8L32 8L32 9L31 9L31 5L32 5L32 2L33 2L33 0L30 0L30 1L29 1L29 0L28 0L28 2L30 2L30 1L31 1L31 4L30 4L30 3L29 3L29 4L26 4L26 3L27 3L27 0L26 0L26 1L25 1L25 0L24 0L24 1L23 1L23 0L20 0L20 2L19 2L19 0L18 0L18 2L17 2L17 0L16 0L16 2L15 2L15 1L14 1L14 0L13 0L13 1L12 1L12 2L11 2L11 3L10 3L10 2L9 2L9 0ZM10 0L10 1L11 1L11 0ZM13 1L13 3L14 3L14 4L15 4L15 3L14 3L14 1ZM24 1L24 4L25 4L25 1ZM39 1L39 2L40 2L40 4L39 4L39 3L37 3L37 2L35 2L35 3L36 3L36 4L35 4L35 9L34 9L34 10L33 10L33 9L32 9L32 11L31 11L31 12L30 12L30 11L29 11L29 12L30 12L30 13L29 13L29 15L28 15L28 14L27 14L27 12L28 12L28 9L27 9L27 10L25 10L25 9L26 9L26 5L24 5L24 6L23 6L23 9L24 9L24 10L22 10L22 4L23 4L23 3L22 3L22 4L21 4L21 3L19 3L19 2L18 2L18 4L17 4L17 3L16 3L16 4L17 4L17 5L16 5L16 6L15 6L15 8L16 8L16 11L17 11L17 10L18 10L18 4L19 4L19 7L20 7L20 5L21 5L21 9L20 9L20 8L19 8L19 9L20 9L20 11L18 11L18 12L19 12L19 13L18 13L18 15L15 15L15 14L17 14L17 12L14 12L14 11L15 11L15 9L14 9L14 8L13 8L13 7L14 7L14 5L13 5L13 4L11 4L11 5L9 5L9 8L10 8L10 10L9 10L9 9L8 9L8 10L7 10L7 9L6 9L6 10L7 10L7 11L6 11L6 12L7 12L7 13L6 13L6 14L7 14L7 13L8 13L8 14L9 14L9 16L8 16L8 15L6 15L6 16L5 16L5 21L6 21L6 22L5 22L5 23L4 23L4 24L5 24L5 23L6 23L6 24L7 24L7 23L6 23L6 22L8 22L8 25L9 25L9 28L10 28L10 29L9 29L9 30L10 30L10 29L11 29L11 31L10 31L10 33L11 33L11 34L8 34L8 33L6 33L6 32L9 32L9 31L6 31L6 32L5 32L5 31L4 31L4 32L3 32L3 34L2 34L2 36L5 36L5 37L6 37L6 38L5 38L5 40L3 40L3 39L4 39L4 38L2 38L2 41L3 41L3 42L4 42L4 43L2 43L2 44L1 44L1 45L3 45L3 44L4 44L4 43L5 43L5 45L4 45L4 46L3 46L3 47L5 47L5 45L6 45L6 46L7 46L7 45L8 45L8 43L11 43L11 42L10 42L10 39L9 39L9 40L7 40L7 39L8 39L8 38L7 38L7 37L8 37L8 36L7 36L7 35L6 35L6 34L8 34L8 35L10 35L10 37L9 37L9 38L13 38L13 40L14 40L14 41L13 41L13 43L15 43L15 42L16 42L16 43L17 43L17 39L16 39L16 38L17 38L17 37L16 37L16 35L17 35L17 34L18 34L18 36L19 36L19 33L18 33L18 31L19 31L19 30L21 30L21 31L20 31L20 34L22 34L22 35L20 35L20 36L21 36L21 38L20 38L20 39L21 39L21 38L22 38L22 40L20 40L20 42L21 42L21 43L20 43L20 44L19 44L19 43L18 43L18 44L19 44L19 45L18 45L18 46L17 46L17 45L16 45L16 44L15 44L15 45L16 45L16 46L13 46L13 47L14 47L14 48L15 48L15 47L16 47L16 50L15 50L15 52L17 52L17 53L18 53L18 52L19 52L19 51L18 51L18 50L19 50L19 49L18 49L18 48L19 48L19 47L20 47L20 51L22 51L22 52L24 52L24 51L25 51L25 53L26 53L26 51L25 51L25 50L26 50L26 49L25 49L25 48L27 48L27 47L28 47L28 48L31 48L31 52L32 52L32 46L33 46L33 45L34 45L34 48L33 48L33 49L34 49L34 50L35 50L35 51L34 51L34 52L35 52L35 53L34 53L34 54L35 54L35 53L36 53L36 54L37 54L37 53L36 53L36 52L35 52L35 51L37 51L37 52L38 52L38 51L39 51L39 49L40 49L40 51L41 51L41 52L42 52L42 51L41 51L41 49L42 49L42 50L43 50L43 51L44 51L44 50L43 50L43 49L44 49L44 47L45 47L45 48L46 48L46 50L45 50L45 51L46 51L46 50L47 50L47 44L48 44L48 45L49 45L49 48L51 48L51 47L50 47L50 46L51 46L51 45L50 45L50 42L49 42L49 41L51 41L51 40L52 40L52 38L54 38L54 36L55 36L55 31L56 31L56 30L54 30L54 31L53 31L53 32L50 32L50 31L49 31L49 32L50 32L50 33L49 33L49 36L48 36L48 37L47 37L47 34L48 34L48 33L47 33L47 32L46 32L46 36L45 36L45 37L46 37L46 38L47 38L47 40L45 40L45 41L46 41L46 42L44 42L44 43L42 43L42 42L43 42L43 38L44 38L44 35L43 35L43 33L42 33L42 31L43 31L43 30L44 30L44 26L45 26L45 25L46 25L46 26L47 26L47 28L46 28L46 29L45 29L45 30L46 30L46 31L47 31L47 30L48 30L48 26L49 26L49 25L48 25L48 24L47 24L47 23L48 23L48 22L50 22L50 23L49 23L49 24L50 24L50 26L53 26L53 25L52 25L52 24L53 24L53 23L54 23L54 26L55 26L55 25L56 25L56 24L55 24L55 23L56 23L56 21L55 21L55 19L54 19L54 17L52 17L52 15L51 15L51 14L52 14L52 13L50 13L50 11L51 11L51 12L52 12L52 11L51 11L51 9L50 9L50 11L49 11L49 12L48 12L48 11L47 11L47 9L48 9L48 10L49 10L49 9L48 9L48 8L47 8L47 7L46 7L46 5L47 5L47 3L46 3L46 5L44 5L44 4L45 4L45 1L42 1L42 2L40 2L40 1ZM46 1L46 2L47 2L47 1ZM43 2L43 3L42 3L42 5L41 5L41 6L40 6L40 7L39 7L39 6L38 6L38 9L37 9L37 6L36 6L36 10L34 10L34 11L32 11L32 13L31 13L31 14L32 14L32 13L33 13L33 15L32 15L32 17L31 17L31 16L30 16L30 15L29 15L29 16L30 16L30 17L28 17L28 18L30 18L30 17L31 17L31 20L32 20L32 21L33 21L33 22L30 22L30 20L28 20L28 19L27 19L27 17L26 17L26 11L25 11L25 10L24 10L24 12L23 12L23 11L22 11L22 12L23 12L23 14L24 14L24 15L23 15L23 16L22 16L22 14L20 14L20 13L21 13L21 11L20 11L20 13L19 13L19 14L20 14L20 15L19 15L19 16L18 16L18 17L19 17L19 18L18 18L18 19L17 19L17 18L16 18L16 19L15 19L15 15L14 15L14 14L13 14L13 11L12 11L12 10L10 10L10 12L12 12L12 13L11 13L11 14L10 14L10 13L9 13L9 11L8 11L8 13L9 13L9 14L10 14L10 15L11 15L11 14L12 14L12 15L14 15L14 18L12 18L12 20L11 20L11 19L10 19L10 20L9 20L9 19L7 19L7 18L8 18L8 17L7 17L7 16L6 16L6 17L7 17L7 18L6 18L6 19L7 19L7 20L6 20L6 21L7 21L7 20L8 20L8 21L12 21L12 22L11 22L11 23L12 23L12 25L11 25L11 24L10 24L10 23L9 23L9 24L10 24L10 28L11 28L11 29L12 29L12 28L13 28L13 29L15 29L15 28L13 28L13 27L14 27L14 26L15 26L15 27L16 27L16 25L17 25L17 24L18 24L18 25L19 25L19 26L20 26L20 25L19 25L19 24L18 24L18 23L16 23L16 22L17 22L17 20L18 20L18 21L19 21L19 20L20 20L20 21L21 21L21 22L20 22L20 23L21 23L21 24L22 24L22 25L21 25L21 27L20 27L20 28L21 28L21 30L22 30L22 33L23 33L23 35L22 35L22 38L23 38L23 35L25 35L25 36L24 36L24 37L25 37L25 36L28 36L28 37L29 37L29 36L28 36L28 35L31 35L31 36L30 36L30 40L29 40L29 42L30 42L30 43L28 43L28 40L25 40L25 41L26 41L26 42L24 42L24 43L22 43L22 44L24 44L24 45L23 45L23 47L24 47L24 48L25 48L25 47L26 47L26 46L28 46L28 47L29 47L29 46L28 46L28 45L30 45L30 43L31 43L31 44L32 44L32 45L31 45L31 46L30 46L30 47L31 47L31 46L32 46L32 45L33 45L33 44L36 44L36 45L35 45L35 47L36 47L36 45L37 45L37 46L38 46L38 45L37 45L37 44L40 44L40 46L41 46L41 47L40 47L40 49L41 49L41 47L42 47L42 45L43 45L43 44L42 44L42 45L41 45L41 44L40 44L40 43L37 43L37 44L36 44L36 41L37 41L37 42L38 42L38 41L39 41L39 42L40 42L40 41L41 41L41 42L42 42L42 41L41 41L41 40L40 40L40 39L42 39L42 35L40 35L40 36L38 36L38 35L39 35L39 34L38 34L38 33L39 33L39 32L40 32L40 34L42 34L42 33L41 33L41 32L40 32L40 31L42 31L42 28L43 28L43 27L41 27L41 23L40 23L40 27L41 27L41 28L40 28L40 29L41 29L41 30L40 30L40 31L38 31L38 30L37 30L37 28L38 28L38 29L39 29L39 26L38 26L38 25L39 25L39 22L38 22L38 21L37 21L37 20L39 20L39 19L40 19L40 22L42 22L42 24L43 24L43 22L44 22L44 23L45 23L45 24L44 24L44 25L45 25L45 24L46 24L46 25L47 25L47 26L48 26L48 25L47 25L47 24L46 24L46 23L45 23L45 22L46 22L46 21L47 21L47 22L48 22L48 20L51 20L51 18L52 18L52 17L51 17L51 15L50 15L50 13L49 13L49 14L48 14L48 12L47 12L47 11L46 11L46 13L45 13L45 12L44 12L44 13L43 13L43 14L44 14L44 13L45 13L45 16L44 16L44 15L43 15L43 16L44 16L44 17L43 17L43 18L42 18L42 17L41 17L41 15L42 15L42 12L43 12L43 11L42 11L42 8L44 8L44 10L45 10L45 8L46 8L46 9L47 9L47 8L46 8L46 7L45 7L45 6L44 6L44 5L43 5L43 4L44 4L44 2ZM38 4L38 5L39 5L39 4ZM11 5L11 6L10 6L10 7L11 7L11 8L12 8L12 7L13 7L13 5ZM27 5L27 8L30 8L30 5ZM11 6L11 7L12 7L12 6ZM16 6L16 7L17 7L17 6ZM24 6L24 7L25 7L25 6ZM28 6L28 7L29 7L29 6ZM32 6L32 7L33 7L33 6ZM41 6L41 7L40 7L40 8L39 8L39 9L38 9L38 11L39 11L39 10L40 10L40 11L41 11L41 12L42 12L42 11L41 11L41 9L40 9L40 8L42 8L42 6ZM43 6L43 7L44 7L44 6ZM13 9L13 10L14 10L14 9ZM30 9L30 10L31 10L31 9ZM4 10L4 11L5 11L5 10ZM56 10L56 11L57 11L57 10ZM34 11L34 12L35 12L35 13L34 13L34 15L33 15L33 17L32 17L32 19L33 19L33 21L34 21L34 22L35 22L35 23L36 23L36 24L34 24L34 23L33 23L33 24L34 24L34 26L33 26L33 25L32 25L32 23L31 23L31 25L30 25L30 22L28 22L28 20L27 20L27 19L26 19L26 20L27 20L27 22L26 22L26 23L27 23L27 22L28 22L28 24L27 24L27 25L26 25L26 26L28 26L28 24L29 24L29 25L30 25L30 26L31 26L31 25L32 25L32 27L31 27L31 30L32 30L32 32L30 32L30 34L31 34L31 35L34 35L34 34L35 34L35 33L36 33L36 35L35 35L35 37L34 37L34 36L33 36L33 37L34 37L34 38L35 38L35 41L34 41L34 39L33 39L33 38L31 38L31 41L30 41L30 42L31 42L31 43L32 43L32 40L33 40L33 41L34 41L34 42L35 42L35 41L36 41L36 38L37 38L37 37L36 37L36 35L38 35L38 34L37 34L37 33L36 33L36 31L37 31L37 32L38 32L38 31L37 31L37 30L36 30L36 28L37 28L37 26L36 26L36 24L37 24L37 25L38 25L38 22L37 22L37 21L36 21L36 20L34 20L34 18L36 18L36 19L37 19L37 18L36 18L36 14L35 14L35 13L36 13L36 12L37 12L37 13L38 13L38 15L37 15L37 16L38 16L38 18L40 18L40 19L41 19L41 20L42 20L42 22L43 22L43 21L44 21L44 22L45 22L45 21L46 21L46 20L45 20L45 21L44 21L44 19L45 19L45 17L44 17L44 19L43 19L43 20L42 20L42 19L41 19L41 18L40 18L40 15L41 15L41 13L40 13L40 15L39 15L39 12L37 12L37 11ZM24 12L24 14L25 14L25 12ZM46 13L46 18L47 18L47 19L48 19L48 18L49 18L49 19L50 19L50 18L51 18L51 17L50 17L50 16L49 16L49 17L48 17L48 16L47 16L47 15L48 15L48 14L47 14L47 13ZM55 13L55 15L54 15L54 16L55 16L55 15L56 15L56 13ZM1 15L1 16L3 16L3 15ZM20 15L20 16L19 16L19 17L20 17L20 18L19 18L19 19L18 19L18 20L19 20L19 19L22 19L22 20L21 20L21 21L22 21L22 20L23 20L23 19L22 19L22 18L21 18L21 17L20 17L20 16L21 16L21 15ZM24 15L24 18L26 18L26 17L25 17L25 15ZM34 15L34 17L33 17L33 18L34 18L34 17L35 17L35 15ZM10 16L10 17L9 17L9 18L10 18L10 17L11 17L11 16ZM47 17L47 18L48 18L48 17ZM49 17L49 18L50 18L50 17ZM3 19L3 21L4 21L4 19ZM14 19L14 20L15 20L15 19ZM16 19L16 20L17 20L17 19ZM24 19L24 20L25 20L25 19ZM53 19L53 20L52 20L52 22L51 22L51 23L50 23L50 24L52 24L52 22L54 22L54 23L55 23L55 21L54 21L54 19ZM12 20L12 21L13 21L13 20ZM0 21L0 22L1 22L1 21ZM14 21L14 22L12 22L12 23L13 23L13 24L14 24L14 25L13 25L13 26L14 26L14 25L15 25L15 23L14 23L14 22L15 22L15 21ZM35 21L35 22L36 22L36 23L37 23L37 22L36 22L36 21ZM22 22L22 23L23 23L23 22ZM24 22L24 23L25 23L25 22ZM23 24L23 25L24 25L24 26L23 26L23 27L22 27L22 28L23 28L23 27L24 27L24 30L25 30L25 31L23 31L23 32L24 32L24 34L25 34L25 35L26 35L26 34L27 34L27 35L28 35L28 34L29 34L29 31L28 31L28 32L27 32L27 33L26 33L26 30L25 30L25 27L24 27L24 26L25 26L25 25L24 25L24 24ZM3 25L3 27L2 27L2 28L3 28L3 27L4 27L4 26L5 26L5 25ZM6 25L6 26L7 26L7 25ZM5 27L5 30L8 30L8 27ZM11 27L11 28L12 28L12 27ZM18 27L18 28L19 28L19 27ZM27 27L27 30L30 30L30 27ZM34 27L34 29L33 29L33 28L32 28L32 29L33 29L33 31L34 31L34 29L35 29L35 28L36 28L36 27ZM49 27L49 30L52 30L52 27ZM54 27L54 28L53 28L53 29L56 29L56 28L55 28L55 27ZM6 28L6 29L7 29L7 28ZM28 28L28 29L29 29L29 28ZM50 28L50 29L51 29L51 28ZM22 29L22 30L23 30L23 29ZM12 30L12 34L11 34L11 36L12 36L12 37L13 37L13 38L14 38L14 39L15 39L15 36L14 36L14 35L16 35L16 33L17 33L17 32L16 32L16 31L17 31L17 30L15 30L15 32L14 32L14 30ZM35 30L35 31L36 31L36 30ZM1 32L1 33L2 33L2 32ZM4 32L4 34L3 34L3 35L4 35L4 34L6 34L6 33L5 33L5 32ZM32 32L32 33L31 33L31 34L34 34L34 32ZM27 33L27 34L28 34L28 33ZM50 33L50 36L49 36L49 38L48 38L48 40L47 40L47 41L48 41L48 40L51 40L51 38L52 38L52 37L53 37L53 36L54 36L54 34L53 34L53 36L51 36L51 33ZM5 35L5 36L6 36L6 37L7 37L7 36L6 36L6 35ZM12 35L12 36L13 36L13 37L14 37L14 36L13 36L13 35ZM31 36L31 37L32 37L32 36ZM26 37L26 38L24 38L24 39L26 39L26 38L27 38L27 37ZM35 37L35 38L36 38L36 37ZM38 37L38 38L39 38L39 39L40 39L40 38L39 38L39 37ZM50 37L50 38L49 38L49 39L50 39L50 38L51 38L51 37ZM6 38L6 39L7 39L7 38ZM18 38L18 40L19 40L19 38ZM28 38L28 39L29 39L29 38ZM11 39L11 40L12 40L12 39ZM37 39L37 41L38 41L38 39ZM5 40L5 41L4 41L4 42L5 42L5 43L8 43L8 42L5 42L5 41L7 41L7 40ZM22 40L22 41L21 41L21 42L22 42L22 41L23 41L23 40ZM39 40L39 41L40 41L40 40ZM14 41L14 42L15 42L15 41ZM46 42L46 43L45 43L45 44L44 44L44 46L43 46L43 47L44 47L44 46L45 46L45 47L46 47L46 44L47 44L47 42ZM55 42L55 43L56 43L56 42ZM48 43L48 44L49 44L49 43ZM6 44L6 45L7 45L7 44ZM13 44L13 45L14 45L14 44ZM27 44L27 45L28 45L28 44ZM19 45L19 46L20 46L20 47L21 47L21 48L22 48L22 51L24 51L24 49L23 49L23 48L22 48L22 46L20 46L20 45ZM24 45L24 46L26 46L26 45ZM1 46L1 47L2 47L2 46ZM16 46L16 47L17 47L17 46ZM37 47L37 48L36 48L36 49L37 49L37 51L38 51L38 47ZM52 47L52 48L53 48L53 47ZM8 48L8 49L9 49L9 48ZM34 48L34 49L35 49L35 48ZM17 49L17 50L16 50L16 51L17 51L17 50L18 50L18 49ZM27 49L27 52L30 52L30 49ZM49 49L49 52L52 52L52 49ZM28 50L28 51L29 51L29 50ZM50 50L50 51L51 51L51 50ZM8 51L8 52L9 52L9 51ZM47 51L47 52L46 52L46 54L45 54L45 55L46 55L46 56L48 56L48 54L49 54L49 53L48 53L48 54L47 54L47 52L48 52L48 51ZM56 52L56 53L57 53L57 52ZM27 53L27 55L28 55L28 53ZM31 53L31 54L30 54L30 55L33 55L33 54L32 54L32 53ZM53 53L53 54L54 54L54 53ZM11 54L11 55L12 55L12 54ZM16 54L16 55L17 55L17 54ZM40 54L40 55L41 55L41 56L42 56L42 55L41 55L41 54ZM36 56L36 57L37 57L37 56ZM56 56L56 57L57 57L57 56ZM0 0L0 7L7 7L7 0ZM1 1L1 6L6 6L6 1ZM2 2L2 5L5 5L5 2ZM50 0L50 7L57 7L57 0ZM51 1L51 6L56 6L56 1ZM52 2L52 5L55 5L55 2ZM0 50L0 57L7 57L7 50ZM1 51L1 56L6 56L6 51ZM2 52L2 55L5 55L5 52Z" fill="#000000"/></g></g></svg>
