<?xml version="1.0" encoding="UTF-8"?>
<svg xmlns="http://www.w3.org/2000/svg" version="1.1" width="300" height="300" viewBox="0 0 300 300"><rect x="0" y="0" width="300" height="300" fill="#fefefe"/><g transform="scale(4.615)"><g transform="translate(4,4)"><path fill-rule="evenodd" d="M9 0L9 1L8 1L8 2L9 2L9 3L8 3L8 4L9 4L9 3L10 3L10 4L11 4L11 3L12 3L12 4L14 4L14 2L15 2L15 3L16 3L16 1L14 1L14 0L12 0L12 1L14 1L14 2L11 2L11 0ZM17 0L17 1L18 1L18 2L17 2L17 4L19 4L19 5L20 5L20 7L19 7L19 6L18 6L18 7L19 7L19 8L16 8L16 7L17 7L17 6L16 6L16 7L15 7L15 6L14 6L14 7L13 7L13 5L12 5L12 7L11 7L11 6L10 6L10 5L8 5L8 7L9 7L9 8L6 8L6 9L5 9L5 8L0 8L0 11L1 11L1 14L0 14L0 17L1 17L1 18L0 18L0 22L1 22L1 20L4 20L4 21L3 21L3 22L2 22L2 23L7 23L7 24L5 24L5 25L3 25L3 24L2 24L2 25L3 25L3 26L0 26L0 27L3 27L3 28L0 28L0 29L1 29L1 31L3 31L3 34L1 34L1 33L2 33L2 32L0 32L0 34L1 34L1 36L0 36L0 37L1 37L1 38L0 38L0 39L1 39L1 38L2 38L2 40L1 40L1 41L0 41L0 42L1 42L1 41L2 41L2 42L3 42L3 41L5 41L5 39L7 39L7 40L6 40L6 41L7 41L7 42L5 42L5 43L4 43L4 45L2 45L2 47L1 47L1 45L0 45L0 48L5 48L5 47L7 47L7 46L6 46L6 45L7 45L7 44L8 44L8 43L10 43L10 44L11 44L11 45L9 45L9 47L11 47L11 45L12 45L12 46L15 46L15 45L14 45L14 44L15 44L15 41L14 41L14 39L15 39L15 40L16 40L16 39L15 39L15 38L16 38L16 37L15 37L15 36L16 36L16 35L13 35L13 34L12 34L12 35L13 35L13 36L11 36L11 37L10 37L10 39L9 39L9 38L8 38L8 37L9 37L9 36L10 36L10 35L11 35L11 34L10 34L10 35L9 35L9 36L8 36L8 34L9 34L9 32L6 32L6 31L11 31L11 32L12 32L12 33L15 33L15 31L16 31L16 29L18 29L18 30L20 30L20 31L21 31L21 32L20 32L20 33L19 33L19 32L18 32L18 31L17 31L17 32L16 32L16 33L17 33L17 34L18 34L18 33L19 33L19 34L20 34L20 35L19 35L19 36L17 36L17 37L18 37L18 38L20 38L20 39L17 39L17 40L18 40L18 41L17 41L17 42L16 42L16 44L18 44L18 45L17 45L17 46L18 46L18 47L19 47L19 48L16 48L16 47L14 47L14 48L12 48L12 49L11 49L11 48L8 48L8 51L12 51L12 50L13 50L13 49L14 49L14 48L16 48L16 49L15 49L15 50L14 50L14 51L13 51L13 52L10 52L10 53L14 53L14 54L9 54L9 52L8 52L8 57L9 57L9 56L10 56L10 57L11 57L11 56L10 56L10 55L13 55L13 56L14 56L14 57L16 57L16 56L17 56L17 57L22 57L22 56L24 56L24 57L26 57L26 56L27 56L27 57L29 57L29 56L30 56L30 57L31 57L31 56L35 56L35 57L39 57L39 56L42 56L42 55L43 55L43 57L44 57L44 54L46 54L46 55L45 55L45 57L47 57L47 55L48 55L48 56L50 56L50 57L52 57L52 55L51 55L51 53L52 53L52 54L53 54L53 57L54 57L54 56L55 56L55 57L56 57L56 56L55 56L55 54L53 54L53 52L54 52L54 53L55 53L55 52L57 52L57 51L56 51L56 49L57 49L57 48L56 48L56 46L57 46L57 43L56 43L56 41L55 41L55 39L57 39L57 36L56 36L56 37L55 37L55 35L56 35L56 33L57 33L57 32L56 32L56 30L57 30L57 28L56 28L56 27L55 27L55 26L57 26L57 25L56 25L56 22L57 22L57 21L56 21L56 22L53 22L53 21L51 21L51 20L52 20L52 19L53 19L53 20L55 20L55 18L57 18L57 17L56 17L56 16L57 16L57 15L56 15L56 14L57 14L57 13L56 13L56 14L55 14L55 13L54 13L54 12L55 12L55 11L56 11L56 8L55 8L55 10L54 10L54 11L53 11L53 9L54 9L54 8L53 8L53 9L52 9L52 8L51 8L51 11L50 11L50 12L49 12L49 10L50 10L50 8L49 8L49 6L48 6L48 7L47 7L47 5L48 5L48 0L46 0L46 1L47 1L47 2L44 2L44 3L42 3L42 2L43 2L43 0L41 0L41 1L40 1L40 0L39 0L39 1L38 1L38 0L37 0L37 1L38 1L38 2L37 2L37 3L36 3L36 0L35 0L35 1L33 1L33 0L29 0L29 1L26 1L26 0L23 0L23 2L28 2L28 3L29 3L29 1L30 1L30 2L31 2L31 1L32 1L32 3L31 3L31 4L26 4L26 3L23 3L23 4L24 4L24 5L23 5L23 6L22 6L22 5L21 5L21 4L19 4L19 3L18 3L18 2L21 2L21 3L22 3L22 2L21 2L21 1L22 1L22 0L21 0L21 1L18 1L18 0ZM9 1L9 2L10 2L10 1ZM33 2L33 3L32 3L32 4L31 4L31 8L32 8L32 10L29 10L29 9L28 9L28 11L29 11L29 12L28 12L28 13L26 13L26 12L27 12L27 11L26 11L26 12L25 12L25 10L24 10L24 9L25 9L25 8L26 8L26 4L25 4L25 8L24 8L24 6L23 6L23 8L20 8L20 11L19 11L19 13L20 13L20 14L19 14L19 15L18 15L18 14L17 14L17 13L18 13L18 12L17 12L17 13L16 13L16 12L15 12L15 13L13 13L13 12L14 12L14 11L13 11L13 12L12 12L12 11L11 11L11 10L13 10L13 8L11 8L11 7L10 7L10 6L9 6L9 7L10 7L10 10L9 10L9 9L6 9L6 10L8 10L8 11L6 11L6 12L4 12L4 11L3 11L3 12L2 12L2 13L4 13L4 14L2 14L2 15L1 15L1 17L2 17L2 16L3 16L3 18L7 18L7 19L6 19L6 20L5 20L5 21L4 21L4 22L7 22L7 23L10 23L10 24L7 24L7 25L5 25L5 26L8 26L8 25L10 25L10 24L13 24L13 23L11 23L11 21L8 21L8 20L11 20L11 19L8 19L8 18L7 18L7 17L8 17L8 16L9 16L9 14L10 14L10 11L11 11L11 15L10 15L10 18L12 18L12 19L14 19L14 20L12 20L12 22L13 22L13 21L14 21L14 22L16 22L16 21L17 21L17 19L18 19L18 20L20 20L20 21L19 21L19 22L18 22L18 23L19 23L19 24L22 24L22 25L19 25L19 26L18 26L18 27L17 27L17 25L13 25L13 26L12 26L12 25L11 25L11 26L10 26L10 27L11 27L11 29L12 29L12 27L13 27L13 26L14 26L14 27L15 27L15 28L13 28L13 29L16 29L16 28L18 28L18 29L19 29L19 26L20 26L20 28L22 28L22 29L20 29L20 30L21 30L21 31L23 31L23 32L21 32L21 33L20 33L20 34L21 34L21 35L20 35L20 36L19 36L19 37L21 37L21 39L22 39L22 40L19 40L19 41L18 41L18 42L17 42L17 43L18 43L18 42L19 42L19 45L20 45L20 46L19 46L19 47L20 47L20 51L21 51L21 52L20 52L20 53L19 53L19 54L20 54L20 55L18 55L18 54L17 54L17 56L21 56L21 55L22 55L22 54L23 54L23 55L24 55L24 56L26 56L26 53L24 53L24 52L26 52L26 49L25 49L25 48L27 48L27 47L28 47L28 48L30 48L30 47L29 47L29 45L27 45L27 44L28 44L28 43L27 43L27 42L32 42L32 43L33 43L33 44L31 44L31 43L29 43L29 44L30 44L30 45L33 45L33 46L31 46L31 47L32 47L32 49L31 49L31 53L30 53L30 54L27 54L27 56L29 56L29 55L30 55L30 56L31 56L31 54L32 54L32 53L33 53L33 54L35 54L35 56L36 56L36 54L35 54L35 50L36 50L36 52L37 52L37 51L38 51L38 54L40 54L40 53L42 53L42 50L41 50L41 48L42 48L42 49L43 49L43 48L44 48L44 49L45 49L45 50L44 50L44 51L45 51L45 52L44 52L44 53L43 53L43 54L44 54L44 53L45 53L45 52L46 52L46 51L47 51L47 53L46 53L46 54L47 54L47 53L48 53L48 50L47 50L47 49L48 49L48 48L49 48L49 47L48 47L48 48L47 48L47 47L46 47L46 48L47 48L47 49L45 49L45 48L44 48L44 47L45 47L45 46L48 46L48 44L49 44L49 45L50 45L50 43L51 43L51 46L50 46L50 47L52 47L52 48L54 48L54 49L56 49L56 48L54 48L54 47L53 47L53 43L54 43L54 42L53 42L53 41L51 41L51 42L50 42L50 43L49 43L49 42L48 42L48 41L49 41L49 40L50 40L50 39L51 39L51 38L53 38L53 39L54 39L54 38L53 38L53 35L55 35L55 34L54 34L54 32L53 32L53 31L52 31L52 32L51 32L51 33L52 33L52 34L50 34L50 31L48 31L48 29L46 29L46 30L47 30L47 31L45 31L45 32L43 32L43 31L44 31L44 30L45 30L45 28L46 28L46 27L47 27L47 28L48 28L48 27L47 27L47 25L46 25L46 24L47 24L47 23L48 23L48 24L49 24L49 23L50 23L50 24L51 24L51 25L50 25L50 26L52 26L52 25L53 25L53 23L50 23L50 22L51 22L51 21L49 21L49 22L47 22L47 21L48 21L48 20L47 20L47 19L48 19L48 18L47 18L47 17L48 17L48 16L49 16L49 17L50 17L50 18L49 18L49 19L50 19L50 18L51 18L51 17L53 17L53 18L55 18L55 16L53 16L53 15L54 15L54 14L53 14L53 15L50 15L50 14L51 14L51 12L50 12L50 14L49 14L49 15L48 15L48 16L47 16L47 17L46 17L46 18L45 18L45 14L47 14L47 13L49 13L49 12L45 12L45 11L46 11L46 10L47 10L47 9L48 9L48 8L46 8L46 5L47 5L47 3L44 3L44 6L43 6L43 8L42 8L42 9L43 9L43 8L44 8L44 10L45 10L45 11L41 11L41 12L40 12L40 11L39 11L39 10L40 10L40 9L41 9L41 7L42 7L42 5L40 5L40 4L41 4L41 3L39 3L39 2L38 2L38 5L37 5L37 4L36 4L36 5L35 5L35 3L34 3L34 2ZM15 4L15 5L16 5L16 4ZM32 4L32 5L33 5L33 4ZM45 4L45 5L46 5L46 4ZM27 5L27 8L30 8L30 5ZM34 5L34 7L33 7L33 6L32 6L32 7L33 7L33 9L34 9L34 8L35 8L35 9L37 9L37 10L36 10L36 12L35 12L35 14L32 14L32 12L33 12L33 13L34 13L34 12L33 12L33 10L32 10L32 12L31 12L31 13L30 13L30 14L29 14L29 13L28 13L28 14L29 14L29 16L28 16L28 15L27 15L27 14L26 14L26 15L25 15L25 12L24 12L24 11L23 11L23 10L22 10L22 9L21 9L21 10L22 10L22 11L21 11L21 12L20 12L20 13L21 13L21 14L20 14L20 15L23 15L23 16L26 16L26 18L28 18L28 19L27 19L27 20L28 20L28 19L30 19L30 18L31 18L31 21L26 21L26 19L25 19L25 17L22 17L22 16L20 16L20 17L19 17L19 16L16 16L16 13L15 13L15 14L14 14L14 15L13 15L13 14L12 14L12 15L11 15L11 17L13 17L13 18L15 18L15 21L16 21L16 18L15 18L15 17L14 17L14 15L15 15L15 16L16 16L16 17L19 17L19 19L20 19L20 20L21 20L21 21L22 21L22 23L23 23L23 24L24 24L24 25L22 25L22 26L21 26L21 27L22 27L22 26L23 26L23 31L24 31L24 32L25 32L25 33L23 33L23 34L24 34L24 36L23 36L23 37L24 37L24 38L23 38L23 39L24 39L24 40L23 40L23 41L24 41L24 42L22 42L22 41L21 41L21 42L20 42L20 41L19 41L19 42L20 42L20 43L21 43L21 44L22 44L22 45L21 45L21 47L23 47L23 46L24 46L24 47L25 47L25 45L23 45L23 44L24 44L24 43L25 43L25 44L27 44L27 43L25 43L25 41L24 41L24 40L25 40L25 39L26 39L26 40L27 40L27 41L26 41L26 42L27 42L27 41L32 41L32 42L33 42L33 43L34 43L34 45L36 45L36 46L37 46L37 47L36 47L36 48L35 48L35 49L36 49L36 50L38 50L38 51L40 51L40 52L41 52L41 50L38 50L38 49L39 49L39 48L41 48L41 46L43 46L43 45L44 45L44 46L45 46L45 45L47 45L47 43L48 43L48 42L46 42L46 44L45 44L45 45L44 45L44 43L45 43L45 42L44 42L44 41L43 41L43 40L47 40L47 39L50 39L50 38L49 38L49 37L51 37L51 36L52 36L52 35L53 35L53 34L52 34L52 35L50 35L50 34L49 34L49 35L50 35L50 36L48 36L48 37L47 37L47 39L46 39L46 38L45 38L45 37L46 37L46 36L47 36L47 34L45 34L45 33L43 33L43 32L41 32L41 33L39 33L39 34L40 34L40 35L38 35L38 33L37 33L37 32L34 32L34 31L36 31L36 29L38 29L38 28L39 28L39 27L40 27L40 26L45 26L45 25L44 25L44 24L43 24L43 25L39 25L39 24L41 24L41 22L42 22L42 23L44 23L44 20L45 20L45 21L47 21L47 20L46 20L46 19L47 19L47 18L46 18L46 19L45 19L45 18L44 18L44 15L42 15L42 16L41 16L41 15L40 15L40 14L38 14L38 13L40 13L40 12L39 12L39 11L37 11L37 10L38 10L38 9L39 9L39 8L40 8L40 7L41 7L41 6L40 6L40 5L39 5L39 6L38 6L38 7L37 7L37 5L36 5L36 7L37 7L37 8L35 8L35 5ZM21 6L21 7L22 7L22 6ZM28 6L28 7L29 7L29 6ZM39 6L39 7L40 7L40 6ZM44 6L44 7L45 7L45 6ZM14 8L14 10L15 10L15 11L16 11L16 10L17 10L17 11L18 11L18 10L19 10L19 9L16 9L16 8ZM23 8L23 9L24 9L24 8ZM37 8L37 9L38 9L38 8ZM2 9L2 10L4 10L4 9ZM15 9L15 10L16 10L16 9ZM45 9L45 10L46 10L46 9ZM8 11L8 13L7 13L7 12L6 12L6 13L7 13L7 14L5 14L5 15L3 15L3 16L4 16L4 17L7 17L7 16L6 16L6 15L7 15L7 14L8 14L8 13L9 13L9 11ZM21 12L21 13L22 13L22 14L23 14L23 13L22 13L22 12ZM43 12L43 13L41 13L41 14L43 14L43 13L44 13L44 12ZM52 12L52 13L53 13L53 12ZM36 13L36 14L37 14L37 15L35 15L35 16L32 16L32 15L31 15L31 14L30 14L30 15L31 15L31 16L32 16L32 18L35 18L35 19L36 19L36 20L37 20L37 21L38 21L38 22L39 22L39 23L37 23L37 24L39 24L39 23L40 23L40 22L39 22L39 21L41 21L41 20L39 20L39 21L38 21L38 20L37 20L37 19L39 19L39 17L41 17L41 16L39 16L39 15L38 15L38 14L37 14L37 13ZM26 15L26 16L27 16L27 17L28 17L28 16L27 16L27 15ZM49 15L49 16L50 16L50 15ZM35 16L35 17L37 17L37 18L38 18L38 17L39 17L39 16L38 16L38 17L37 17L37 16ZM42 16L42 17L43 17L43 16ZM20 17L20 19L21 19L21 18L22 18L22 19L24 19L24 18L22 18L22 17ZM41 18L41 19L42 19L42 18ZM43 18L43 20L42 20L42 21L43 21L43 20L44 20L44 18ZM7 19L7 20L6 20L6 21L7 21L7 22L8 22L8 21L7 21L7 20L8 20L8 19ZM56 19L56 20L57 20L57 19ZM22 20L22 21L24 21L24 22L23 22L23 23L24 23L24 24L25 24L25 25L26 25L26 26L25 26L25 27L26 27L26 26L28 26L28 25L30 25L30 24L28 24L28 23L27 23L27 24L25 24L25 23L26 23L26 22L25 22L25 21L24 21L24 20ZM32 20L32 21L31 21L31 24L32 24L32 26L31 26L31 28L32 28L32 29L31 29L31 31L29 31L29 33L28 33L28 32L26 32L26 31L25 31L25 32L26 32L26 33L25 33L25 35L26 35L26 36L25 36L25 38L26 38L26 37L28 37L28 38L27 38L27 39L28 39L28 40L32 40L32 41L33 41L33 42L34 42L34 43L35 43L35 44L36 44L36 43L37 43L37 42L35 42L35 40L38 40L38 42L39 42L39 41L41 41L41 40L43 40L43 39L45 39L45 38L44 38L44 37L45 37L45 36L46 36L46 35L45 35L45 34L42 34L42 36L44 36L44 37L43 37L43 38L42 38L42 37L41 37L41 36L40 36L40 37L38 37L38 35L37 35L37 34L35 34L35 33L33 33L33 30L35 30L35 28L33 28L33 27L34 27L34 26L36 26L36 27L39 27L39 25L38 25L38 26L37 26L37 25L33 25L33 24L32 24L32 23L35 23L35 21L33 21L33 20ZM19 22L19 23L20 23L20 22ZM29 22L29 23L30 23L30 22ZM45 22L45 24L46 24L46 23L47 23L47 22ZM14 23L14 24L16 24L16 23ZM27 24L27 25L28 25L28 24ZM3 26L3 27L4 27L4 26ZM15 26L15 27L16 27L16 26ZM32 26L32 27L33 27L33 26ZM53 26L53 27L54 27L54 26ZM5 27L5 30L8 30L8 27ZM27 27L27 30L30 30L30 27ZM41 27L41 28L42 28L42 27ZM43 27L43 28L45 28L45 27ZM49 27L49 30L52 30L52 27ZM6 28L6 29L7 29L7 28ZM9 28L9 29L10 29L10 28ZM25 28L25 29L26 29L26 28ZM28 28L28 29L29 29L29 28ZM50 28L50 29L51 29L51 28ZM54 28L54 29L53 29L53 30L54 30L54 29L56 29L56 28ZM2 29L2 30L3 30L3 31L4 31L4 33L5 33L5 31L4 31L4 29ZM32 29L32 30L33 30L33 29ZM40 29L40 30L44 30L44 29ZM11 30L11 31L13 31L13 32L14 32L14 31L15 31L15 30ZM38 30L38 32L39 32L39 30ZM47 31L47 32L48 32L48 33L49 33L49 32L48 32L48 31ZM17 32L17 33L18 33L18 32ZM31 32L31 33L29 33L29 34L30 34L30 36L29 36L29 37L31 37L31 38L29 38L29 39L33 39L33 40L35 40L35 39L37 39L37 38L38 38L38 37L37 37L37 36L35 36L35 35L32 35L32 34L33 34L33 33L32 33L32 32ZM52 32L52 33L53 33L53 32ZM55 32L55 33L56 33L56 32ZM6 33L6 34L5 34L5 35L4 35L4 36L3 36L3 35L2 35L2 36L1 36L1 37L2 37L2 38L3 38L3 37L6 37L6 38L7 38L7 37L6 37L6 36L7 36L7 35L6 35L6 34L8 34L8 33ZM21 33L21 34L22 34L22 33ZM26 34L26 35L27 35L27 34ZM5 35L5 36L6 36L6 35ZM21 35L21 36L22 36L22 35ZM44 35L44 36L45 36L45 35ZM13 36L13 37L12 37L12 39L11 39L11 40L9 40L9 39L8 39L8 40L7 40L7 41L8 41L8 42L10 42L10 43L12 43L12 42L13 42L13 44L14 44L14 42L13 42L13 41L12 41L12 39L14 39L14 38L15 38L15 37L14 37L14 36ZM32 36L32 37L33 37L33 39L35 39L35 36ZM40 37L40 38L41 38L41 39L42 39L42 38L41 38L41 37ZM4 38L4 39L3 39L3 40L4 40L4 39L5 39L5 38ZM38 39L38 40L39 40L39 39ZM8 40L8 41L9 41L9 40ZM10 41L10 42L12 42L12 41ZM21 42L21 43L22 43L22 42ZM41 42L41 43L39 43L39 45L38 45L38 46L39 46L39 45L41 45L41 44L42 44L42 42ZM43 42L43 43L44 43L44 42ZM51 42L51 43L53 43L53 42ZM0 43L0 44L1 44L1 43ZM2 43L2 44L3 44L3 43ZM5 43L5 45L6 45L6 44L7 44L7 43ZM55 43L55 44L54 44L54 45L55 45L55 46L56 46L56 43ZM22 45L22 46L23 46L23 45ZM26 45L26 47L27 47L27 45ZM3 46L3 47L5 47L5 46ZM33 46L33 47L35 47L35 46ZM38 47L38 48L37 48L37 49L38 49L38 48L39 48L39 47ZM42 47L42 48L43 48L43 47ZM6 48L6 49L7 49L7 48ZM23 48L23 49L21 49L21 51L22 51L22 52L23 52L23 51L22 51L22 50L25 50L25 49L24 49L24 48ZM9 49L9 50L11 50L11 49ZM16 49L16 50L18 50L18 49ZM27 49L27 52L30 52L30 49ZM32 49L32 50L33 50L33 49ZM49 49L49 52L52 52L52 49ZM28 50L28 51L29 51L29 50ZM50 50L50 51L51 51L51 50ZM54 50L54 51L55 51L55 50ZM15 51L15 52L14 52L14 53L15 53L15 54L16 54L16 53L17 53L17 52L19 52L19 51L17 51L17 52L16 52L16 51ZM32 51L32 52L33 52L33 53L34 53L34 52L33 52L33 51ZM15 52L15 53L16 53L16 52ZM23 53L23 54L24 54L24 53ZM14 55L14 56L16 56L16 55ZM37 55L37 56L39 56L39 55ZM50 55L50 56L51 56L51 55ZM0 0L0 7L7 7L7 0ZM1 1L1 6L6 6L6 1ZM2 2L2 5L5 5L5 2ZM50 0L50 7L57 7L57 0ZM51 1L51 6L56 6L56 1ZM52 2L52 5L55 5L55 2ZM0 50L0 57L7 57L7 50ZM1 51L1 56L6 56L6 51ZM2 52L2 55L5 55L5 52Z" fill="#000000"/></g></g></svg>
