<?xml version="1.0" encoding="UTF-8"?>
<svg xmlns="http://www.w3.org/2000/svg" version="1.1" width="300" height="300" viewBox="0 0 300 300"><rect x="0" y="0" width="300" height="300" fill="#fefefe"/><g transform="scale(4.615)"><g transform="translate(4,4)"><path fill-rule="evenodd" d="M8 0L8 1L11 1L11 3L10 3L10 2L9 2L9 4L11 4L11 3L12 3L12 2L14 2L14 1L15 1L15 3L13 3L13 4L14 4L14 5L12 5L12 7L11 7L11 6L10 6L10 5L9 5L9 6L8 6L8 8L10 8L10 9L12 9L12 10L11 10L11 11L10 11L10 10L9 10L9 9L7 9L7 8L6 8L6 9L5 9L5 8L3 8L3 10L2 10L2 8L0 8L0 10L2 10L2 11L0 11L0 12L1 12L1 13L0 13L0 14L2 14L2 15L0 15L0 16L3 16L3 17L4 17L4 15L5 15L5 17L8 17L8 16L9 16L9 15L10 15L10 16L11 16L11 15L12 15L12 18L13 18L13 19L12 19L12 20L10 20L10 21L12 21L12 22L11 22L11 23L12 23L12 25L9 25L9 24L10 24L10 22L9 22L9 21L8 21L8 19L9 19L9 18L10 18L10 19L11 19L11 18L10 18L10 17L9 17L9 18L8 18L8 19L7 19L7 18L6 18L6 19L5 19L5 18L2 18L2 17L1 17L1 18L0 18L0 19L1 19L1 20L0 20L0 21L1 21L1 22L0 22L0 24L1 24L1 26L0 26L0 27L3 27L3 26L4 26L4 28L3 28L3 29L2 29L2 28L1 28L1 29L0 29L0 33L1 33L1 34L2 34L2 33L3 33L3 32L4 32L4 33L5 33L5 32L6 32L6 33L8 33L8 34L6 34L6 35L8 35L8 36L5 36L5 35L4 35L4 36L5 36L5 37L3 37L3 36L2 36L2 35L0 35L0 38L1 38L1 39L2 39L2 41L1 41L1 40L0 40L0 42L1 42L1 43L0 43L0 44L1 44L1 45L0 45L0 48L5 48L5 47L7 47L7 48L6 48L6 49L7 49L7 48L8 48L8 50L9 50L9 52L8 52L8 54L9 54L9 55L8 55L8 57L9 57L9 55L10 55L10 54L11 54L11 52L12 52L12 51L13 51L13 49L14 49L14 51L15 51L15 53L14 53L14 54L13 54L13 53L12 53L12 54L13 54L13 56L12 56L12 57L13 57L13 56L14 56L14 57L15 57L15 56L16 56L16 57L19 57L19 56L20 56L20 57L21 57L21 54L22 54L22 52L20 52L20 51L18 51L18 54L17 54L17 55L16 55L16 52L17 52L17 50L19 50L19 49L20 49L20 50L21 50L21 51L23 51L23 50L25 50L25 49L26 49L26 52L23 52L23 53L25 53L25 54L26 54L26 55L25 55L25 56L24 56L24 54L23 54L23 55L22 55L22 57L25 57L25 56L27 56L27 57L28 57L28 55L29 55L29 56L30 56L30 57L32 57L32 56L30 56L30 54L28 54L28 55L27 55L27 54L26 54L26 53L31 53L31 51L32 51L32 50L34 50L34 49L35 49L35 48L36 48L36 50L35 50L35 51L33 51L33 52L32 52L32 54L34 54L34 57L37 57L37 56L38 56L38 57L39 57L39 55L40 55L40 53L39 53L39 52L40 52L40 49L41 49L41 50L42 50L42 52L41 52L41 53L42 53L42 55L41 55L41 56L40 56L40 57L43 57L43 56L45 56L45 57L46 57L46 56L47 56L47 53L48 53L48 56L49 56L49 57L54 57L54 56L57 56L57 54L55 54L55 53L56 53L56 52L57 52L57 51L54 51L54 50L56 50L56 47L57 47L57 46L55 46L55 45L54 45L54 44L55 44L55 42L56 42L56 43L57 43L57 42L56 42L56 41L57 41L57 38L56 38L56 41L54 41L54 40L55 40L55 36L56 36L56 35L57 35L57 28L56 28L56 29L53 29L53 28L55 28L55 26L56 26L56 25L57 25L57 24L56 24L56 23L57 23L57 22L55 22L55 23L54 23L54 21L53 21L53 20L56 20L56 21L57 21L57 20L56 20L56 19L57 19L57 16L56 16L56 15L52 15L52 14L53 14L53 12L51 12L51 11L54 11L54 12L55 12L55 14L56 14L56 12L55 12L55 11L57 11L57 8L56 8L56 10L51 10L51 8L50 8L50 9L48 9L48 8L49 8L49 6L48 6L48 7L47 7L47 5L48 5L48 0L42 0L42 1L41 1L41 0L38 0L38 1L37 1L37 3L36 3L36 1L35 1L35 0L34 0L34 2L33 2L33 1L31 1L31 0L30 0L30 1L29 1L29 0L28 0L28 1L27 1L27 0L24 0L24 1L23 1L23 0L20 0L20 1L18 1L18 2L16 2L16 1L17 1L17 0L16 0L16 1L15 1L15 0ZM20 1L20 2L19 2L19 4L20 4L20 5L18 5L18 4L16 4L16 5L17 5L17 7L16 7L16 6L15 6L15 8L14 8L14 6L13 6L13 7L12 7L12 8L13 8L13 10L14 10L14 11L13 11L13 13L12 13L12 12L11 12L11 13L10 13L10 14L13 14L13 15L14 15L14 16L15 16L15 17L13 17L13 18L16 18L16 15L14 15L14 14L13 14L13 13L15 13L15 14L17 14L17 17L18 17L18 18L17 18L17 19L16 19L16 20L17 20L17 19L18 19L18 20L19 20L19 22L20 22L20 21L21 21L21 22L23 22L23 21L24 21L24 23L23 23L23 24L25 24L25 23L27 23L27 25L28 25L28 24L29 24L29 26L30 26L30 25L31 25L31 26L32 26L32 21L34 21L34 19L35 19L35 18L34 18L34 19L33 19L33 17L36 17L36 20L37 20L37 21L39 21L39 22L37 22L37 25L36 25L36 22L34 22L34 23L33 23L33 24L34 24L34 26L33 26L33 29L31 29L31 30L32 30L32 31L33 31L33 32L31 32L31 31L30 31L30 32L28 32L28 31L26 31L26 30L24 30L24 29L26 29L26 28L24 28L24 27L23 27L23 28L22 28L22 29L23 29L23 33L25 33L25 34L26 34L26 32L27 32L27 33L32 33L32 34L31 34L31 35L33 35L33 32L34 32L34 33L35 33L35 32L37 32L37 30L38 30L38 33L39 33L39 36L41 36L41 38L42 38L42 40L40 40L40 38L38 38L38 36L37 36L37 34L36 34L36 36L35 36L35 34L34 34L34 36L33 36L33 37L32 37L32 36L31 36L31 37L30 37L30 36L29 36L29 37L28 37L28 36L25 36L25 37L26 37L26 38L27 38L27 39L25 39L25 40L24 40L24 39L22 39L22 36L23 36L23 38L24 38L24 36L23 36L23 35L21 35L21 34L22 34L22 30L21 30L21 28L20 28L20 30L21 30L21 32L20 32L20 33L21 33L21 34L18 34L18 35L17 35L17 34L15 34L15 33L14 33L14 34L13 34L13 31L14 31L14 32L16 32L16 33L17 33L17 32L18 32L18 30L16 30L16 27L17 27L17 29L19 29L19 26L20 26L20 25L22 25L22 24L21 24L21 23L19 23L19 24L20 24L20 25L19 25L19 26L18 26L18 24L17 24L17 23L18 23L18 22L17 22L17 21L16 21L16 22L17 22L17 23L16 23L16 24L15 24L15 22L12 22L12 23L14 23L14 24L13 24L13 25L12 25L12 26L11 26L11 27L10 27L10 26L9 26L9 25L6 25L6 26L9 26L9 29L10 29L10 28L12 28L12 29L13 29L13 30L12 30L12 31L10 31L10 32L11 32L11 33L9 33L9 34L8 34L8 35L11 35L11 36L10 36L10 37L11 37L11 38L9 38L9 37L8 37L8 40L7 40L7 39L6 39L6 38L7 38L7 37L5 37L5 39L4 39L4 38L3 38L3 37L2 37L2 36L1 36L1 38L2 38L2 39L3 39L3 41L2 41L2 43L1 43L1 44L2 44L2 46L1 46L1 47L2 47L2 46L3 46L3 47L5 47L5 46L9 46L9 47L8 47L8 48L11 48L11 50L12 50L12 49L13 49L13 47L12 47L12 46L11 46L11 44L12 44L12 45L13 45L13 44L12 44L12 43L13 43L13 42L14 42L14 43L15 43L15 44L14 44L14 45L18 45L18 44L16 44L16 38L17 38L17 41L18 41L18 42L19 42L19 41L20 41L20 44L19 44L19 45L20 45L20 44L21 44L21 46L18 46L18 47L15 47L15 46L14 46L14 48L17 48L17 49L16 49L16 50L17 50L17 49L18 49L18 47L19 47L19 48L21 48L21 50L22 50L22 48L21 48L21 46L22 46L22 45L23 45L23 47L24 47L24 45L25 45L25 48L23 48L23 49L25 49L25 48L28 48L28 47L27 47L27 44L28 44L28 45L29 45L29 44L31 44L31 49L32 49L32 48L35 48L35 47L32 47L32 46L33 46L33 45L35 45L35 44L36 44L36 43L37 43L37 45L36 45L36 46L37 46L37 45L38 45L38 44L39 44L39 45L40 45L40 41L41 41L41 42L42 42L42 40L45 40L45 41L47 41L47 40L48 40L48 41L49 41L49 40L50 40L50 41L51 41L51 40L52 40L52 39L54 39L54 38L53 38L53 37L54 37L54 35L55 35L55 34L56 34L56 33L55 33L55 32L56 32L56 30L53 30L53 31L51 31L51 33L48 33L48 32L49 32L49 31L48 31L48 32L46 32L46 31L47 31L47 30L46 30L46 29L45 29L45 30L44 30L44 29L43 29L43 28L45 28L45 27L43 27L43 26L45 26L45 25L46 25L46 26L47 26L47 27L46 27L46 28L47 28L47 29L48 29L48 28L47 28L47 27L48 27L48 26L47 26L47 25L48 25L48 24L49 24L49 23L50 23L50 24L51 24L51 25L52 25L52 24L51 24L51 22L53 22L53 21L52 21L52 20L53 20L53 19L54 19L54 18L55 18L55 19L56 19L56 17L54 17L54 16L50 16L50 18L48 18L48 17L47 17L47 13L46 13L46 12L48 12L48 13L49 13L49 14L50 14L50 11L49 11L49 10L48 10L48 9L47 9L47 11L46 11L46 10L43 10L43 11L42 11L42 10L41 10L41 9L46 9L46 5L47 5L47 3L46 3L46 4L45 4L45 5L44 5L44 6L43 6L43 5L42 5L42 4L43 4L43 2L42 2L42 3L41 3L41 2L40 2L40 1L38 1L38 3L37 3L37 4L31 4L31 7L32 7L32 6L33 6L33 8L31 8L31 9L33 9L33 8L34 8L34 6L35 6L35 8L37 8L37 9L35 9L35 10L30 10L30 13L29 13L29 14L30 14L30 15L32 15L32 16L31 16L31 18L30 18L30 16L29 16L29 17L28 17L28 14L27 14L27 17L26 17L26 16L24 16L24 15L26 15L26 13L27 13L27 12L29 12L29 9L28 9L28 10L27 10L27 9L26 9L26 8L24 8L24 5L21 5L21 4L20 4L20 2L21 2L21 3L25 3L25 2L26 2L26 3L29 3L29 4L30 4L30 3L29 3L29 1L28 1L28 2L27 2L27 1L25 1L25 2L23 2L23 1L22 1L22 2L21 2L21 1ZM45 1L45 2L47 2L47 1ZM39 2L39 4L37 4L37 5L35 5L35 6L36 6L36 7L37 7L37 6L38 6L38 7L39 7L39 6L38 6L38 5L39 5L39 4L40 4L40 7L41 7L41 6L42 6L42 7L43 7L43 6L42 6L42 5L41 5L41 3L40 3L40 2ZM25 4L25 7L26 7L26 4ZM20 5L20 7L21 7L21 5ZM27 5L27 8L30 8L30 5ZM33 5L33 6L34 6L34 5ZM9 6L9 7L10 7L10 6ZM18 6L18 7L17 7L17 9L16 9L16 8L15 8L15 9L14 9L14 10L15 10L15 11L14 11L14 12L15 12L15 11L16 11L16 12L17 12L17 14L19 14L19 13L20 13L20 14L21 14L21 16L20 16L20 17L19 17L19 16L18 16L18 17L19 17L19 18L18 18L18 19L19 19L19 20L21 20L21 19L19 19L19 18L20 18L20 17L21 17L21 18L22 18L22 19L23 19L23 20L22 20L22 21L23 21L23 20L24 20L24 21L25 21L25 22L26 22L26 20L28 20L28 21L27 21L27 22L28 22L28 23L30 23L30 24L31 24L31 23L30 23L30 22L31 22L31 21L29 21L29 20L28 20L28 19L27 19L27 18L26 18L26 17L24 17L24 16L23 16L23 15L22 15L22 14L21 14L21 13L20 13L20 12L21 12L21 11L20 11L20 12L19 12L19 10L21 10L21 9L20 9L20 8L19 8L19 6ZM22 6L22 11L23 11L23 10L24 10L24 11L25 11L25 12L23 12L23 14L25 14L25 13L26 13L26 9L24 9L24 8L23 8L23 6ZM28 6L28 7L29 7L29 6ZM44 6L44 7L45 7L45 6ZM38 8L38 9L37 9L37 10L35 10L35 11L33 11L33 12L32 12L32 15L34 15L34 13L35 13L35 15L38 15L38 16L39 16L39 14L40 14L40 13L41 13L41 14L44 14L44 15L42 15L42 16L43 16L43 17L42 17L42 18L41 18L41 19L40 19L40 18L38 18L38 17L37 17L37 16L36 16L36 17L37 17L37 20L38 20L38 19L40 19L40 21L41 21L41 22L40 22L40 23L39 23L39 24L40 24L40 25L38 25L38 26L37 26L37 27L36 27L36 26L35 26L35 27L36 27L36 30L37 30L37 29L39 29L39 28L38 28L38 26L39 26L39 27L40 27L40 28L41 28L41 29L42 29L42 30L41 30L41 31L42 31L42 30L43 30L43 31L44 31L44 30L43 30L43 29L42 29L42 27L40 27L40 25L41 25L41 26L43 26L43 25L42 25L42 23L43 23L43 24L44 24L44 25L45 25L45 24L44 24L44 23L45 23L45 21L41 21L41 19L43 19L43 20L44 20L44 17L45 17L45 18L47 18L47 17L46 17L46 16L45 16L45 15L46 15L46 13L45 13L45 12L44 12L44 13L42 13L42 11L41 11L41 10L39 10L39 8ZM40 8L40 9L41 9L41 8ZM6 9L6 10L7 10L7 11L5 11L5 13L6 13L6 14L7 14L7 15L6 15L6 16L8 16L8 14L9 14L9 13L6 13L6 12L8 12L8 11L9 11L9 12L10 12L10 11L9 11L9 10L7 10L7 9ZM3 10L3 11L2 11L2 12L3 12L3 13L2 13L2 14L4 14L4 10ZM37 10L37 11L38 11L38 10ZM17 11L17 12L18 12L18 11ZM35 11L35 13L36 13L36 14L38 14L38 13L39 13L39 12L37 12L37 13L36 13L36 11ZM40 11L40 12L41 12L41 11ZM48 11L48 12L49 12L49 11ZM30 13L30 14L31 14L31 13ZM51 13L51 14L52 14L52 13ZM48 15L48 16L49 16L49 15ZM22 16L22 18L24 18L24 17L23 17L23 16ZM32 16L32 17L33 17L33 16ZM53 17L53 18L54 18L54 17ZM25 18L25 20L26 20L26 18ZM50 18L50 19L52 19L52 18ZM6 19L6 20L7 20L7 19ZM13 19L13 20L12 20L12 21L13 21L13 20L14 20L14 21L15 21L15 20L14 20L14 19ZM46 19L46 20L47 20L47 21L46 21L46 23L47 23L47 24L46 24L46 25L47 25L47 24L48 24L48 23L49 23L49 19ZM2 20L2 22L1 22L1 23L3 23L3 21L4 21L4 22L5 22L5 24L7 24L7 23L8 23L8 24L9 24L9 22L8 22L8 21L4 21L4 20ZM50 20L50 22L51 22L51 20ZM6 22L6 23L7 23L7 22ZM47 22L47 23L48 23L48 22ZM40 23L40 24L41 24L41 23ZM53 23L53 25L54 25L54 23ZM3 24L3 25L4 25L4 24ZM16 24L16 25L14 25L14 27L13 27L13 26L12 26L12 28L14 28L14 29L15 29L15 28L14 28L14 27L16 27L16 25L17 25L17 24ZM55 24L55 25L56 25L56 24ZM25 25L25 26L26 26L26 25ZM49 25L49 26L50 26L50 25ZM17 26L17 27L18 27L18 26ZM53 26L53 27L54 27L54 26ZM5 27L5 30L8 30L8 27ZM27 27L27 30L30 30L30 27ZM31 27L31 28L32 28L32 27ZM49 27L49 30L52 30L52 27ZM6 28L6 29L7 29L7 28ZM23 28L23 29L24 29L24 28ZM28 28L28 29L29 29L29 28ZM50 28L50 29L51 29L51 28ZM33 29L33 31L34 31L34 30L35 30L35 29ZM1 30L1 31L4 31L4 30ZM15 30L15 31L16 31L16 32L17 32L17 31L16 31L16 30ZM39 30L39 32L40 32L40 33L41 33L41 34L40 34L40 35L41 35L41 36L42 36L42 38L43 38L43 39L44 39L44 37L45 37L45 40L46 40L46 39L48 39L48 38L50 38L50 36L51 36L51 34L49 34L49 35L50 35L50 36L48 36L48 34L47 34L47 33L46 33L46 32L45 32L45 34L44 34L44 32L40 32L40 30ZM45 30L45 31L46 31L46 30ZM6 31L6 32L7 32L7 31ZM24 31L24 32L25 32L25 31ZM54 31L54 32L53 32L53 33L52 33L52 37L51 37L51 38L52 38L52 37L53 37L53 35L54 35L54 34L55 34L55 33L54 33L54 32L55 32L55 31ZM1 32L1 33L2 33L2 32ZM11 33L11 35L12 35L12 37L13 37L13 36L14 36L14 35L13 35L13 34L12 34L12 33ZM53 33L53 34L54 34L54 33ZM27 34L27 35L29 35L29 34ZM41 34L41 35L43 35L43 37L44 37L44 34ZM45 34L45 35L47 35L47 34ZM15 35L15 36L16 36L16 37L17 37L17 38L18 38L18 39L19 39L19 40L18 40L18 41L19 41L19 40L20 40L20 41L21 41L21 40L22 40L22 39L21 39L21 38L18 38L18 37L21 37L21 35L18 35L18 37L17 37L17 35ZM34 36L34 37L33 37L33 38L32 38L32 40L29 40L29 39L31 39L31 38L28 38L28 40L26 40L26 42L25 42L25 41L22 41L22 42L24 42L24 43L22 43L22 44L23 44L23 45L24 45L24 44L25 44L25 45L26 45L26 44L25 44L25 43L28 43L28 44L29 44L29 43L28 43L28 42L29 42L29 41L30 41L30 43L31 43L31 44L32 44L32 43L33 43L33 44L35 44L35 43L36 43L36 42L38 42L38 41L39 41L39 40L36 40L36 42L35 42L35 41L33 41L33 38L34 38L34 39L37 39L37 36L36 36L36 37L35 37L35 36ZM45 36L45 37L46 37L46 38L47 38L47 37L46 37L46 36ZM34 37L34 38L35 38L35 37ZM12 38L12 40L10 40L10 39L9 39L9 40L8 40L8 41L7 41L7 40L6 40L6 41L7 41L7 42L3 42L3 43L2 43L2 44L3 44L3 46L5 46L5 45L8 45L8 44L11 44L11 43L10 43L10 41L11 41L11 42L13 42L13 40L15 40L15 38L14 38L14 39L13 39L13 38ZM20 39L20 40L21 40L21 39ZM8 41L8 43L9 43L9 41ZM31 41L31 43L32 43L32 41ZM43 41L43 45L44 45L44 46L45 46L45 44L44 44L44 41ZM53 41L53 42L52 42L52 44L51 44L51 43L50 43L50 42L45 42L45 43L47 43L47 44L46 44L46 45L47 45L47 46L51 46L51 47L50 47L50 48L51 48L51 47L52 47L52 48L54 48L54 47L55 47L55 46L54 46L54 45L53 45L53 42L54 42L54 41ZM3 43L3 44L4 44L4 45L5 45L5 44L7 44L7 43ZM41 43L41 44L42 44L42 43ZM49 43L49 44L48 44L48 45L51 45L51 44L50 44L50 43ZM52 45L52 46L53 46L53 47L54 47L54 46L53 46L53 45ZM10 46L10 47L11 47L11 46ZM29 46L29 48L30 48L30 46ZM38 46L38 49L37 49L37 50L36 50L36 52L35 52L35 54L36 54L36 52L38 52L38 51L37 51L37 50L38 50L38 49L40 49L40 48L41 48L41 49L43 49L43 51L44 51L44 52L45 52L45 53L47 53L47 52L48 52L48 50L47 50L47 48L49 48L49 47L47 47L47 48L45 48L45 49L44 49L44 47L43 47L43 46L42 46L42 47L43 47L43 48L41 48L41 47L39 47L39 46ZM27 49L27 52L30 52L30 49ZM45 49L45 50L46 50L46 51L45 51L45 52L46 52L46 51L47 51L47 50L46 50L46 49ZM49 49L49 52L52 52L52 49ZM28 50L28 51L29 51L29 50ZM50 50L50 51L51 51L51 50ZM10 51L10 52L9 52L9 53L10 53L10 52L11 52L11 51ZM33 52L33 53L34 53L34 52ZM42 52L42 53L43 53L43 55L42 55L42 56L43 56L43 55L44 55L44 53L43 53L43 52ZM19 53L19 54L18 54L18 55L20 55L20 54L21 54L21 53ZM37 53L37 55L39 55L39 53ZM52 53L52 54L49 54L49 56L50 56L50 55L51 55L51 56L54 56L54 55L55 55L55 54L54 54L54 53ZM14 54L14 55L15 55L15 54ZM45 54L45 56L46 56L46 54ZM52 54L52 55L53 55L53 54ZM35 55L35 56L36 56L36 55ZM10 56L10 57L11 57L11 56ZM0 0L0 7L7 7L7 0ZM1 1L1 6L6 6L6 1ZM2 2L2 5L5 5L5 2ZM50 0L50 7L57 7L57 0ZM51 1L51 6L56 6L56 1ZM52 2L52 5L55 5L55 2ZM0 50L0 57L7 57L7 50ZM1 51L1 56L6 56L6 51ZM2 52L2 55L5 55L5 52Z" fill="#000000"/></g></g></svg>
