<?xml version="1.0" encoding="UTF-8"?>
<svg xmlns="http://www.w3.org/2000/svg" version="1.1" width="300" height="300" viewBox="0 0 300 300"><rect x="0" y="0" width="300" height="300" fill="#fefefe"/><g transform="scale(4.615)"><g transform="translate(4,4)"><path fill-rule="evenodd" d="M8 0L8 1L9 1L9 0ZM10 0L10 2L8 2L8 5L9 5L9 6L8 6L8 7L9 7L9 6L10 6L10 7L11 7L11 6L10 6L10 3L12 3L12 7L13 7L13 8L12 8L12 9L11 9L11 8L8 8L8 10L9 10L9 9L10 9L10 11L9 11L9 12L8 12L8 13L7 13L7 12L6 12L6 13L4 13L4 12L5 12L5 11L7 11L7 10L3 10L3 9L4 9L4 8L0 8L0 16L2 16L2 17L0 17L0 20L1 20L1 21L0 21L0 26L1 26L1 28L0 28L0 29L1 29L1 30L2 30L2 32L3 32L3 33L8 33L8 34L9 34L9 33L8 33L8 31L9 31L9 28L10 28L10 29L11 29L11 28L10 28L10 25L11 25L11 27L13 27L13 28L12 28L12 29L16 29L16 30L14 30L14 31L13 31L13 30L12 30L12 31L11 31L11 30L10 30L10 32L12 32L12 33L13 33L13 34L15 34L15 36L13 36L13 38L12 38L12 39L13 39L13 40L16 40L16 39L18 39L18 38L19 38L19 40L20 40L20 41L21 41L21 42L22 42L22 44L21 44L21 43L19 43L19 41L18 41L18 43L19 43L19 44L21 44L21 46L22 46L22 47L20 47L20 45L17 45L17 46L19 46L19 48L18 48L18 47L13 47L13 46L12 46L12 50L14 50L14 51L15 51L15 52L14 52L14 53L15 53L15 55L14 55L14 56L13 56L13 55L12 55L12 54L13 54L13 51L12 51L12 52L11 52L11 49L10 49L10 47L11 47L11 46L9 46L9 47L7 47L7 46L8 46L8 45L9 45L9 44L8 44L8 43L9 43L9 41L10 41L10 38L11 38L11 36L12 36L12 35L11 35L11 36L10 36L10 35L9 35L9 37L8 37L8 35L7 35L7 34L6 34L6 35L7 35L7 36L6 36L6 37L4 37L4 36L3 36L3 37L4 37L4 38L5 38L5 39L4 39L4 40L2 40L2 42L1 42L1 40L0 40L0 42L1 42L1 44L0 44L0 48L5 48L5 47L7 47L7 48L6 48L6 49L7 49L7 48L9 48L9 49L8 49L8 50L9 50L9 52L11 52L11 53L10 53L10 54L9 54L9 53L8 53L8 57L11 57L11 56L13 56L13 57L15 57L15 56L16 56L16 57L18 57L18 56L19 56L19 55L20 55L20 56L21 56L21 57L23 57L23 54L25 54L25 55L24 55L24 56L26 56L26 53L29 53L29 54L31 54L31 55L30 55L30 56L31 56L31 57L32 57L32 55L33 55L33 54L36 54L36 55L34 55L34 56L33 56L33 57L36 57L36 55L38 55L38 57L43 57L43 56L45 56L45 57L46 57L46 55L44 55L44 54L47 54L47 57L51 57L51 54L52 54L52 53L54 53L54 54L56 54L56 53L57 53L57 52L56 52L56 51L55 51L55 50L53 50L53 49L54 49L54 48L53 48L53 47L54 47L54 46L55 46L55 47L57 47L57 45L56 45L56 46L55 46L55 44L56 44L56 42L54 42L54 41L53 41L53 40L55 40L55 39L50 39L50 40L47 40L47 39L48 39L48 38L46 38L46 36L45 36L45 35L46 35L46 34L45 34L45 33L44 33L44 31L45 31L45 32L46 32L46 33L47 33L47 26L46 26L46 25L47 25L47 24L49 24L49 21L48 21L48 20L46 20L46 18L47 18L47 19L48 19L48 14L47 14L47 17L46 17L46 15L45 15L45 14L46 14L46 13L45 13L45 14L44 14L44 12L43 12L43 11L44 11L44 10L45 10L45 9L41 9L41 8L40 8L40 7L41 7L41 4L43 4L43 5L42 5L42 7L43 7L43 8L47 8L47 9L48 9L48 10L50 10L50 8L47 8L47 5L48 5L48 0L45 0L45 1L44 1L44 2L42 2L42 3L41 3L41 4L39 4L39 2L37 2L37 1L38 1L38 0L37 0L37 1L36 1L36 0L35 0L35 1L34 1L34 3L33 3L33 1L32 1L32 0L30 0L30 2L29 2L29 4L28 4L28 0L27 0L27 4L26 4L26 2L24 2L24 3L23 3L23 4L22 4L22 5L20 5L20 4L19 4L19 3L20 3L20 2L21 2L21 1L22 1L22 2L23 2L23 1L26 1L26 0L23 0L23 1L22 1L22 0L21 0L21 1L19 1L19 2L18 2L18 0L17 0L17 1L16 1L16 2L15 2L15 3L17 3L17 5L15 5L15 4L14 4L14 3L13 3L13 2L11 2L11 1L14 1L14 0ZM39 0L39 1L40 1L40 2L41 2L41 1L43 1L43 0L41 0L41 1L40 1L40 0ZM35 1L35 2L36 2L36 1ZM45 1L45 3L44 3L44 4L45 4L45 5L43 5L43 7L44 7L44 6L45 6L45 7L46 7L46 5L47 5L47 3L46 3L46 2L47 2L47 1ZM30 2L30 4L31 4L31 5L32 5L32 6L31 6L31 9L32 9L32 10L26 10L26 11L25 11L25 10L23 10L23 9L26 9L26 6L25 6L25 5L26 5L26 4L24 4L24 6L23 6L23 7L22 7L22 6L21 6L21 7L20 7L20 6L19 6L19 7L20 7L20 10L18 10L18 12L17 12L17 8L18 8L18 9L19 9L19 8L18 8L18 6L17 6L17 7L16 7L16 6L15 6L15 5L14 5L14 4L13 4L13 5L14 5L14 6L13 6L13 7L14 7L14 6L15 6L15 8L13 8L13 9L14 9L14 11L15 11L15 8L16 8L16 12L15 12L15 15L14 15L14 16L15 16L15 15L16 15L16 16L17 16L17 18L15 18L15 17L13 17L13 15L12 15L12 17L13 17L13 18L11 18L11 20L10 20L10 19L9 19L9 20L8 20L8 23L6 23L6 22L7 22L7 21L2 21L2 22L4 22L4 23L1 23L1 24L3 24L3 25L1 25L1 26L2 26L2 27L3 27L3 25L5 25L5 26L8 26L8 23L10 23L10 24L11 24L11 25L12 25L12 26L13 26L13 27L14 27L14 28L17 28L17 33L15 33L15 32L16 32L16 31L14 31L14 32L13 32L13 33L15 33L15 34L17 34L17 33L18 33L18 35L17 35L17 36L15 36L15 38L17 38L17 36L18 36L18 35L20 35L20 36L19 36L19 37L20 37L20 38L21 38L21 39L22 39L22 41L24 41L24 42L25 42L25 43L26 43L26 45L25 45L25 46L24 46L24 45L23 45L23 44L22 44L22 46L23 46L23 47L24 47L24 49L23 49L23 48L20 48L20 49L21 49L21 50L19 50L19 51L18 51L18 50L17 50L17 48L16 48L16 52L15 52L15 53L16 53L16 54L17 54L17 55L19 55L19 54L18 54L18 53L19 53L19 51L21 51L21 52L22 52L22 53L20 53L20 55L21 55L21 56L22 56L22 55L21 55L21 54L23 54L23 52L24 52L24 53L25 53L25 52L26 52L26 50L25 50L25 47L26 47L26 48L27 48L27 46L28 46L28 48L31 48L31 49L33 49L33 48L37 48L37 49L36 49L36 50L37 50L37 49L38 49L38 48L39 48L39 49L40 49L40 50L39 50L39 51L38 51L38 52L40 52L40 54L41 54L41 52L43 52L43 51L45 51L45 53L46 53L46 51L45 51L45 49L46 49L46 50L47 50L47 52L48 52L48 48L47 48L47 49L46 49L46 46L47 46L47 45L48 45L48 44L43 44L43 43L44 43L44 42L45 42L45 43L47 43L47 42L48 42L48 43L49 43L49 46L48 46L48 47L49 47L49 48L50 48L50 46L52 46L52 47L53 47L53 46L54 46L54 45L53 45L53 44L55 44L55 43L54 43L54 42L53 42L53 43L52 43L52 45L50 45L50 44L51 44L51 42L50 42L50 41L52 41L52 40L50 40L50 41L47 41L47 42L45 42L45 41L46 41L46 38L45 38L45 36L44 36L44 37L43 37L43 36L42 36L42 34L41 34L41 35L39 35L39 36L38 36L38 35L37 35L37 36L38 36L38 37L39 37L39 36L40 36L40 37L41 37L41 39L39 39L39 38L37 38L37 37L34 37L34 38L33 38L33 36L32 36L32 35L31 35L31 34L30 34L30 35L29 35L29 33L30 33L30 31L29 31L29 32L28 32L28 31L26 31L26 32L28 32L28 33L27 33L27 34L26 34L26 33L25 33L25 34L24 34L24 35L23 35L23 33L24 33L24 32L25 32L25 31L24 31L24 30L26 30L26 28L25 28L25 25L27 25L27 26L29 26L29 24L26 24L26 23L28 23L28 22L25 22L25 21L27 21L27 20L28 20L28 18L29 18L29 17L30 17L30 19L31 19L31 18L32 18L32 20L30 20L30 21L29 21L29 23L30 23L30 24L31 24L31 23L32 23L32 22L33 22L33 24L32 24L32 25L33 25L33 24L35 24L35 23L36 23L36 24L37 24L37 23L39 23L39 20L40 20L40 19L39 19L39 18L41 18L41 20L42 20L42 21L44 21L44 22L47 22L47 21L45 21L45 19L44 19L44 18L45 18L45 17L42 17L42 14L43 14L43 12L42 12L42 11L41 11L41 9L38 9L38 10L37 10L37 8L39 8L39 7L40 7L40 5L36 5L36 4L34 4L34 5L33 5L33 3L32 3L32 4L31 4L31 2ZM37 3L37 4L38 4L38 3ZM18 4L18 5L19 5L19 4ZM27 5L27 8L30 8L30 5ZM24 6L24 7L23 7L23 8L21 8L21 10L20 10L20 11L19 11L19 12L18 12L18 13L19 13L19 14L21 14L21 13L20 13L20 12L21 12L21 11L23 11L23 12L22 12L22 13L24 13L24 12L25 12L25 11L23 11L23 10L22 10L22 9L23 9L23 8L24 8L24 7L25 7L25 6ZM28 6L28 7L29 7L29 6ZM32 6L32 8L33 8L33 6ZM34 6L34 9L36 9L36 8L37 8L37 6L36 6L36 7L35 7L35 6ZM38 6L38 7L39 7L39 6ZM48 6L48 7L49 7L49 6ZM6 8L6 9L7 9L7 8ZM52 8L52 10L53 10L53 13L52 13L52 12L51 12L51 11L47 11L47 10L46 10L46 11L47 11L47 12L49 12L49 17L51 17L51 18L52 18L52 19L55 19L55 20L54 20L54 21L56 21L56 22L53 22L53 20L50 20L50 19L49 19L49 20L50 20L50 21L51 21L51 22L52 22L52 23L50 23L50 25L49 25L49 26L48 26L48 32L49 32L49 33L50 33L50 34L49 34L49 35L48 35L48 34L47 34L47 35L48 35L48 37L49 37L49 36L50 36L50 37L51 37L51 38L52 38L52 36L53 36L53 37L55 37L55 38L56 38L56 39L57 39L57 38L56 38L56 36L57 36L57 34L56 34L56 33L57 33L57 31L56 31L56 30L57 30L57 28L56 28L56 24L54 24L54 23L57 23L57 21L56 21L56 20L57 20L57 19L56 19L56 18L57 18L57 15L55 15L55 14L54 14L54 10L53 10L53 9L55 9L55 12L56 12L56 11L57 11L57 10L56 10L56 9L57 9L57 8L56 8L56 9L55 9L55 8ZM2 10L2 11L1 11L1 15L2 15L2 14L3 14L3 17L4 17L4 13L3 13L3 12L4 12L4 11L3 11L3 10ZM11 10L11 11L10 11L10 12L9 12L9 13L8 13L8 14L9 14L9 13L10 13L10 12L12 12L12 13L11 13L11 14L10 14L10 15L6 15L6 14L7 14L7 13L6 13L6 14L5 14L5 15L6 15L6 16L5 16L5 18L4 18L4 19L3 19L3 18L1 18L1 20L4 20L4 19L5 19L5 20L7 20L7 19L8 19L8 18L7 18L7 17L8 17L8 16L10 16L10 15L11 15L11 14L14 14L14 13L13 13L13 10ZM33 10L33 13L32 13L32 12L31 12L31 11L30 11L30 12L31 12L31 14L30 14L30 13L28 13L28 12L26 12L26 15L25 15L25 14L24 14L24 15L25 15L25 16L23 16L23 18L22 18L22 17L21 17L21 15L20 15L20 16L19 16L19 15L18 15L18 16L19 16L19 17L18 17L18 18L19 18L19 17L21 17L21 19L20 19L20 20L22 20L22 22L19 22L19 21L18 21L18 19L17 19L17 20L16 20L16 23L14 23L14 20L15 20L15 19L13 19L13 20L12 20L12 21L11 21L11 22L10 22L10 20L9 20L9 22L10 22L10 23L11 23L11 24L12 24L12 25L14 25L14 26L15 26L15 27L16 27L16 23L17 23L17 22L19 22L19 24L17 24L17 25L19 25L19 26L17 26L17 27L19 27L19 26L22 26L22 27L23 27L23 25L21 25L21 24L24 24L24 25L25 25L25 22L24 22L24 21L23 21L23 18L24 18L24 19L25 19L25 20L27 20L27 19L26 19L26 18L27 18L27 17L29 17L29 16L31 16L31 17L33 17L33 19L34 19L34 21L35 21L35 22L38 22L38 21L36 21L36 20L37 20L37 19L36 19L36 20L35 20L35 19L34 19L34 18L35 18L35 17L34 17L34 16L35 16L35 15L36 15L36 14L37 14L37 15L39 15L39 17L40 17L40 16L41 16L41 14L40 14L40 13L39 13L39 12L40 12L40 11L38 11L38 12L36 12L36 10L35 10L35 11L34 11L34 10ZM2 11L2 12L3 12L3 11ZM16 12L16 13L17 13L17 12ZM34 12L34 14L33 14L33 15L32 15L32 16L33 16L33 15L35 15L35 14L36 14L36 13L35 13L35 12ZM50 12L50 13L51 13L51 15L54 15L54 14L52 14L52 13L51 13L51 12ZM16 14L16 15L17 15L17 14ZM39 14L39 15L40 15L40 14ZM26 15L26 16L25 16L25 17L24 17L24 18L26 18L26 16L27 16L27 15ZM28 15L28 16L29 16L29 15ZM44 15L44 16L45 16L45 15ZM6 16L6 17L7 17L7 16ZM52 16L52 17L53 17L53 18L54 18L54 17L55 17L55 18L56 18L56 17L55 17L55 16ZM9 17L9 18L10 18L10 17ZM36 17L36 18L37 18L37 17ZM41 17L41 18L42 18L42 20L43 20L43 18L42 18L42 17ZM6 18L6 19L7 19L7 18ZM12 21L12 22L13 22L13 21ZM30 21L30 23L31 23L31 21ZM22 22L22 23L23 23L23 22ZM41 22L41 23L40 23L40 26L38 26L38 27L40 27L40 29L38 29L38 30L36 30L36 29L37 29L37 28L34 28L34 29L35 29L35 31L37 31L37 32L36 32L36 33L37 33L37 32L38 32L38 34L39 34L39 31L40 31L40 32L41 32L41 31L44 31L44 30L43 30L43 29L42 29L42 30L40 30L40 29L41 29L41 27L42 27L42 28L44 28L44 27L42 27L42 26L44 26L44 25L45 25L45 24L47 24L47 23L44 23L44 25L42 25L42 24L43 24L43 22ZM12 23L12 24L13 24L13 23ZM20 23L20 24L21 24L21 23ZM41 23L41 24L42 24L42 23ZM5 24L5 25L7 25L7 24ZM14 24L14 25L15 25L15 24ZM38 24L38 25L39 25L39 24ZM51 24L51 26L52 26L52 25L53 25L53 27L55 27L55 25L54 25L54 24ZM30 25L30 26L31 26L31 25ZM34 25L34 27L35 27L35 25ZM40 26L40 27L41 27L41 26ZM45 26L45 30L46 30L46 26ZM5 27L5 30L8 30L8 27ZM27 27L27 30L30 30L30 27ZM32 27L32 28L33 28L33 27ZM49 27L49 30L52 30L52 27ZM1 28L1 29L2 29L2 30L3 30L3 31L4 31L4 28ZM6 28L6 29L7 29L7 28ZM18 28L18 29L20 29L20 28ZM28 28L28 29L29 29L29 28ZM50 28L50 29L51 29L51 28ZM53 28L53 31L54 31L54 32L55 32L55 30L56 30L56 29L55 29L55 30L54 30L54 28ZM21 29L21 30L20 30L20 31L21 31L21 30L24 30L24 29ZM31 29L31 31L33 31L33 30L32 30L32 29ZM38 30L38 31L39 31L39 30ZM0 31L0 37L1 37L1 38L2 38L2 37L1 37L1 36L2 36L2 35L5 35L5 34L2 34L2 35L1 35L1 31ZM5 31L5 32L7 32L7 31ZM18 31L18 32L19 32L19 31ZM22 31L22 32L20 32L20 33L19 33L19 34L20 34L20 33L21 33L21 34L22 34L22 33L23 33L23 32L24 32L24 31ZM49 31L49 32L52 32L52 34L54 34L54 33L53 33L53 32L52 32L52 31ZM31 32L31 33L32 33L32 34L35 34L35 33L34 33L34 32ZM42 32L42 33L43 33L43 32ZM10 33L10 34L11 34L11 33ZM27 34L27 35L26 35L26 36L23 36L23 35L21 35L21 36L23 36L23 39L24 39L24 41L25 41L25 42L27 42L27 44L28 44L28 45L29 45L29 44L30 44L30 43L31 43L31 45L30 45L30 46L32 46L32 48L33 48L33 46L32 46L32 42L33 42L33 45L34 45L34 44L35 44L35 45L36 45L36 46L37 46L37 47L38 47L38 45L39 45L39 46L40 46L40 47L43 47L43 50L44 50L44 48L45 48L45 45L42 45L42 43L43 43L43 42L42 42L42 39L43 39L43 41L45 41L45 39L44 39L44 38L42 38L42 39L41 39L41 42L42 42L42 43L41 43L41 44L40 44L40 43L39 43L39 42L40 42L40 40L39 40L39 39L38 39L38 40L37 40L37 41L39 41L39 42L37 42L37 44L38 44L38 45L36 45L36 44L35 44L35 43L34 43L34 42L36 42L36 41L34 41L34 40L35 40L35 39L36 39L36 38L35 38L35 39L33 39L33 38L32 38L32 36L29 36L29 35L28 35L28 34ZM43 34L43 35L44 35L44 34ZM34 35L34 36L36 36L36 35ZM51 35L51 36L52 36L52 35ZM54 35L54 36L55 36L55 35ZM26 36L26 37L24 37L24 39L25 39L25 41L26 41L26 39L25 39L25 38L26 38L26 37L27 37L27 38L29 38L29 36ZM6 37L6 38L7 38L7 39L6 39L6 40L5 40L5 41L6 41L6 42L7 42L7 43L6 43L6 44L5 44L5 45L4 45L4 43L3 43L3 42L4 42L4 41L3 41L3 42L2 42L2 43L3 43L3 45L2 45L2 44L1 44L1 47L2 47L2 46L3 46L3 47L5 47L5 46L7 46L7 45L8 45L8 44L7 44L7 43L8 43L8 42L7 42L7 41L9 41L9 39L8 39L8 37ZM9 37L9 38L10 38L10 37ZM30 38L30 39L28 39L28 40L29 40L29 42L30 42L30 41L31 41L31 40L33 40L33 39L32 39L32 38ZM7 39L7 40L6 40L6 41L7 41L7 40L8 40L8 39ZM11 40L11 41L12 41L12 40ZM56 40L56 41L57 41L57 40ZM13 41L13 43L14 43L14 44L13 44L13 45L14 45L14 46L15 46L15 45L16 45L16 44L17 44L17 41L15 41L15 42L14 42L14 41ZM10 42L10 45L12 45L12 44L11 44L11 43L12 43L12 42ZM49 42L49 43L50 43L50 42ZM38 43L38 44L39 44L39 43ZM6 44L6 45L7 45L7 44ZM14 44L14 45L15 45L15 44ZM26 45L26 46L27 46L27 45ZM34 46L34 47L35 47L35 46ZM13 48L13 49L14 49L14 50L15 50L15 48ZM41 48L41 49L42 49L42 48ZM56 48L56 50L57 50L57 48ZM22 49L22 50L21 50L21 51L22 51L22 50L23 50L23 49ZM27 49L27 52L30 52L30 49ZM34 49L34 50L35 50L35 49ZM49 49L49 52L52 52L52 49ZM24 50L24 51L25 51L25 50ZM28 50L28 51L29 51L29 50ZM32 50L32 51L31 51L31 53L32 53L32 51L33 51L33 52L34 52L34 53L36 53L36 54L37 54L37 51L36 51L36 52L34 52L34 51L33 51L33 50ZM50 50L50 51L51 51L51 50ZM40 51L40 52L41 52L41 51ZM54 52L54 53L55 53L55 52ZM38 53L38 54L39 54L39 53ZM42 53L42 54L43 54L43 53ZM48 53L48 54L50 54L50 53ZM10 54L10 56L11 56L11 54ZM27 55L27 56L28 56L28 55ZM40 55L40 56L42 56L42 55ZM48 55L48 56L49 56L49 55ZM56 55L56 56L57 56L57 55ZM52 56L52 57L53 57L53 56ZM54 56L54 57L55 57L55 56ZM0 0L0 7L7 7L7 0ZM1 1L1 6L6 6L6 1ZM2 2L2 5L5 5L5 2ZM50 0L50 7L57 7L57 0ZM51 1L51 6L56 6L56 1ZM52 2L52 5L55 5L55 2ZM0 50L0 57L7 57L7 50ZM1 51L1 56L6 56L6 51ZM2 52L2 55L5 55L5 52Z" fill="#000000"/></g></g></svg>
