<?xml version="1.0" encoding="UTF-8"?>
<svg xmlns="http://www.w3.org/2000/svg" version="1.1" width="300" height="300" viewBox="0 0 300 300"><rect x="0" y="0" width="300" height="300" fill="#fefefe"/><g transform="scale(4.615)"><g transform="translate(4,4)"><path fill-rule="evenodd" d="M9 0L9 1L8 1L8 2L9 2L9 3L8 3L8 4L9 4L9 5L8 5L8 7L9 7L9 6L10 6L10 8L11 8L11 10L10 10L10 9L9 9L9 8L6 8L6 9L5 9L5 8L0 8L0 11L1 11L1 10L2 10L2 9L3 9L3 12L4 12L4 9L5 9L5 10L6 10L6 11L7 11L7 12L5 12L5 13L3 13L3 14L2 14L2 15L1 15L1 13L2 13L2 12L0 12L0 15L1 15L1 17L0 17L0 19L1 19L1 18L2 18L2 20L1 20L1 23L0 23L0 24L1 24L1 23L3 23L3 17L4 17L4 18L5 18L5 21L4 21L4 23L5 23L5 24L6 24L6 25L7 25L7 24L6 24L6 23L7 23L7 22L8 22L8 25L10 25L10 26L5 26L5 25L4 25L4 24L2 24L2 25L1 25L1 26L0 26L0 30L1 30L1 31L2 31L2 29L1 29L1 28L3 28L3 27L4 27L4 31L3 31L3 32L2 32L2 33L1 33L1 32L0 32L0 35L2 35L2 33L8 33L8 35L7 35L7 34L3 34L3 36L4 36L4 37L3 37L3 39L1 39L1 38L2 38L2 36L1 36L1 38L0 38L0 39L1 39L1 40L0 40L0 41L2 41L2 43L1 43L1 42L0 42L0 43L1 43L1 44L5 44L5 45L4 45L4 46L5 46L5 47L3 47L3 45L2 45L2 47L1 47L1 45L0 45L0 48L5 48L5 47L10 47L10 48L9 48L9 49L8 49L8 48L6 48L6 49L8 49L8 51L9 51L9 52L8 52L8 57L11 57L11 56L12 56L12 57L15 57L15 55L16 55L16 56L17 56L17 57L19 57L19 55L20 55L20 54L19 54L19 53L20 53L20 52L21 52L21 51L22 51L22 50L25 50L25 49L26 49L26 52L24 52L24 53L23 53L23 54L22 54L22 53L21 53L21 54L22 54L22 55L21 55L21 56L20 56L20 57L21 57L21 56L24 56L24 55L23 55L23 54L24 54L24 53L25 53L25 55L26 55L26 53L27 53L27 54L30 54L30 53L31 53L31 51L32 51L32 52L33 52L33 53L32 53L32 54L31 54L31 56L30 56L30 55L29 55L29 56L27 56L27 57L29 57L29 56L30 56L30 57L31 57L31 56L35 56L35 57L39 57L39 56L37 56L37 54L38 54L38 55L41 55L41 57L44 57L44 54L45 54L45 57L48 57L48 56L50 56L50 57L52 57L52 55L51 55L51 53L52 53L52 54L53 54L53 57L54 57L54 56L55 56L55 57L56 57L56 56L55 56L55 55L54 55L54 54L55 54L55 53L57 53L57 52L56 52L56 50L57 50L57 48L56 48L56 46L57 46L57 45L56 45L56 44L55 44L55 43L56 43L56 41L53 41L53 40L55 40L55 39L57 39L57 36L56 36L56 33L57 33L57 32L56 32L56 30L57 30L57 29L56 29L56 27L55 27L55 26L57 26L57 25L56 25L56 22L57 22L57 20L56 20L56 19L55 19L55 18L57 18L57 17L56 17L56 16L57 16L57 15L56 15L56 14L57 14L57 13L56 13L56 14L55 14L55 13L54 13L54 12L56 12L56 10L54 10L54 11L53 11L53 9L54 9L54 8L53 8L53 9L52 9L52 8L51 8L51 9L52 9L52 10L49 10L49 9L50 9L50 8L49 8L49 6L48 6L48 8L49 8L49 9L47 9L47 10L46 10L46 11L45 11L45 9L44 9L44 8L47 8L47 5L48 5L48 0L46 0L46 1L45 1L45 2L44 2L44 3L43 3L43 4L40 4L40 5L39 5L39 6L38 6L38 3L41 3L41 2L43 2L43 0L41 0L41 1L40 1L40 0L39 0L39 1L38 1L38 0L37 0L37 1L38 1L38 3L36 3L36 0L35 0L35 1L33 1L33 0L27 0L27 1L26 1L26 0L23 0L23 2L25 2L25 1L26 1L26 2L28 2L28 3L30 3L30 4L26 4L26 3L23 3L23 4L24 4L24 5L23 5L23 6L22 6L22 8L23 8L23 6L24 6L24 9L23 9L23 10L22 10L22 11L21 11L21 12L22 12L22 13L21 13L21 14L20 14L20 9L19 9L19 8L21 8L21 5L22 5L22 4L19 4L19 3L18 3L18 2L21 2L21 3L22 3L22 0L21 0L21 1L20 1L20 0L18 0L18 1L17 1L17 2L16 2L16 1L14 1L14 2L13 2L13 1L11 1L11 0ZM9 1L9 2L11 2L11 3L9 3L9 4L10 4L10 6L11 6L11 7L12 7L12 10L11 10L11 12L10 12L10 10L9 10L9 9L8 9L8 10L7 10L7 9L6 9L6 10L7 10L7 11L8 11L8 13L9 13L9 12L10 12L10 13L13 13L13 14L8 14L8 15L11 15L11 17L10 17L10 16L9 16L9 17L5 17L5 16L7 16L7 15L5 15L5 14L7 14L7 13L5 13L5 14L3 14L3 15L2 15L2 16L3 16L3 15L5 15L5 16L4 16L4 17L5 17L5 18L7 18L7 19L6 19L6 20L8 20L8 22L9 22L9 24L10 24L10 25L12 25L12 26L10 26L10 27L9 27L9 29L10 29L10 30L9 30L9 31L8 31L8 32L9 32L9 33L10 33L10 34L9 34L9 35L8 35L8 36L7 36L7 35L6 35L6 36L5 36L5 35L4 35L4 36L5 36L5 37L4 37L4 38L5 38L5 39L4 39L4 40L3 40L3 42L5 42L5 44L7 44L7 45L5 45L5 46L7 46L7 45L8 45L8 43L9 43L9 45L10 45L10 44L12 44L12 43L13 43L13 42L15 42L15 43L14 43L14 44L13 44L13 46L12 46L12 47L11 47L11 46L10 46L10 47L11 47L11 51L10 51L10 52L9 52L9 55L10 55L10 52L11 52L11 54L12 54L12 55L13 55L13 54L12 54L12 52L11 52L11 51L12 51L12 50L13 50L13 48L14 48L14 50L15 50L15 51L17 51L17 49L16 49L16 48L19 48L19 47L20 47L20 50L18 50L18 51L19 51L19 52L20 52L20 50L21 50L21 49L23 49L23 48L24 48L24 49L25 49L25 48L28 48L28 47L29 47L29 48L30 48L30 47L29 47L29 46L30 46L30 45L32 45L32 46L31 46L31 47L32 47L32 46L36 46L36 47L34 47L34 48L32 48L32 49L31 49L31 50L32 50L32 49L33 49L33 50L34 50L34 51L35 51L35 50L36 50L36 52L37 52L37 53L38 53L38 54L40 54L40 53L41 53L41 52L43 52L43 51L42 51L42 50L41 50L41 48L42 48L42 49L43 49L43 48L44 48L44 49L45 49L45 50L44 50L44 51L45 51L45 52L44 52L44 53L43 53L43 54L44 54L44 53L45 53L45 54L47 54L47 53L48 53L48 50L47 50L47 49L48 49L48 48L49 48L49 47L51 47L51 48L52 48L52 47L51 47L51 46L54 46L54 47L55 47L55 46L56 46L56 45L55 45L55 44L54 44L54 45L53 45L53 43L54 43L54 42L53 42L53 41L51 41L51 42L50 42L50 43L47 43L47 45L45 45L45 44L46 44L46 43L44 43L44 42L48 42L48 41L49 41L49 40L50 40L50 39L51 39L51 38L53 38L53 39L54 39L54 38L53 38L53 35L55 35L55 34L54 34L54 33L56 33L56 32L54 32L54 30L53 30L53 31L51 31L51 33L52 33L52 34L50 34L50 31L48 31L48 30L47 30L47 29L46 29L46 30L47 30L47 31L45 31L45 28L46 28L46 27L48 27L48 26L47 26L47 25L48 25L48 24L50 24L50 26L51 26L51 25L53 25L53 23L55 23L55 22L56 22L56 20L53 20L53 19L52 19L52 18L51 18L51 17L53 17L53 18L55 18L55 16L53 16L53 15L55 15L55 14L54 14L54 13L53 13L53 12L52 12L52 13L53 13L53 15L50 15L50 14L51 14L51 12L50 12L50 11L48 11L48 10L47 10L47 12L45 12L45 11L44 11L44 14L40 14L40 15L41 15L41 16L39 16L39 15L38 15L38 14L39 14L39 13L43 13L43 11L42 11L42 10L41 10L41 12L39 12L39 13L38 13L38 14L37 14L37 15L35 15L35 16L32 16L32 14L36 14L36 13L35 13L35 12L37 12L37 11L36 11L36 10L37 10L37 9L38 9L38 10L40 10L40 9L41 9L41 7L42 7L42 8L44 8L44 6L45 6L45 7L46 7L46 5L47 5L47 3L44 3L44 6L43 6L43 7L42 7L42 6L41 6L41 5L40 5L40 6L39 6L39 7L40 7L40 8L39 8L39 9L38 9L38 8L37 8L37 7L38 7L38 6L37 6L37 7L36 7L36 5L37 5L37 4L36 4L36 5L35 5L35 4L34 4L34 3L35 3L35 2L33 2L33 3L32 3L32 1L31 1L31 3L32 3L32 4L31 4L31 8L32 8L32 10L31 10L31 11L30 11L30 10L29 10L29 9L28 9L28 10L27 10L27 11L26 11L26 12L25 12L25 10L23 10L23 11L24 11L24 13L22 13L22 14L24 14L24 13L25 13L25 14L27 14L27 15L26 15L26 16L24 16L24 15L20 15L20 19L18 19L18 20L20 20L20 21L17 21L17 20L16 20L16 21L15 21L15 18L16 18L16 19L17 19L17 17L16 17L16 16L18 16L18 15L17 15L17 13L18 13L18 12L17 12L17 13L16 13L16 11L18 11L18 9L16 9L16 8L17 8L17 7L18 7L18 8L19 8L19 7L20 7L20 5L18 5L18 4L17 4L17 3L15 3L15 2L14 2L14 4L13 4L13 5L12 5L12 4L11 4L11 3L12 3L12 2L11 2L11 1ZM29 1L29 2L30 2L30 1ZM46 1L46 2L47 2L47 1ZM15 4L15 5L16 5L16 4ZM25 4L25 8L26 8L26 4ZM32 4L32 5L33 5L33 4ZM45 4L45 5L46 5L46 4ZM11 5L11 6L12 6L12 7L13 7L13 6L12 6L12 5ZM17 5L17 6L16 6L16 7L15 7L15 6L14 6L14 7L15 7L15 8L16 8L16 7L17 7L17 6L18 6L18 7L19 7L19 6L18 6L18 5ZM27 5L27 8L30 8L30 5ZM34 5L34 7L33 7L33 6L32 6L32 7L33 7L33 9L34 9L34 8L35 8L35 9L37 9L37 8L35 8L35 5ZM28 6L28 7L29 7L29 6ZM40 6L40 7L41 7L41 6ZM13 8L13 10L12 10L12 12L13 12L13 13L15 13L15 14L14 14L14 16L12 16L12 17L11 17L11 18L10 18L10 17L9 17L9 18L8 18L8 19L9 19L9 22L10 22L10 24L12 24L12 25L13 25L13 26L12 26L12 29L11 29L11 28L10 28L10 29L11 29L11 30L10 30L10 32L11 32L11 34L10 34L10 35L11 35L11 36L9 36L9 37L11 37L11 36L12 36L12 40L11 40L11 41L10 41L10 39L9 39L9 38L8 38L8 37L7 37L7 36L6 36L6 37L7 37L7 38L6 38L6 39L9 39L9 42L10 42L10 43L11 43L11 41L12 41L12 42L13 42L13 41L12 41L12 40L14 40L14 41L15 41L15 40L16 40L16 39L13 39L13 37L14 37L14 38L16 38L16 37L15 37L15 36L16 36L16 35L15 35L15 34L14 34L14 36L12 36L12 35L13 35L13 33L12 33L12 32L13 32L13 31L12 31L12 30L13 30L13 29L14 29L14 33L17 33L17 35L18 35L18 36L17 36L17 37L19 37L19 38L20 38L20 39L19 39L19 40L18 40L18 39L17 39L17 40L18 40L18 41L17 41L17 42L18 42L18 43L15 43L15 44L14 44L14 45L15 45L15 44L18 44L18 45L17 45L17 47L19 47L19 46L20 46L20 45L19 45L19 42L20 42L20 44L22 44L22 45L21 45L21 47L23 47L23 46L25 46L25 45L23 45L23 44L24 44L24 43L25 43L25 44L27 44L27 45L26 45L26 47L27 47L27 45L28 45L28 44L29 44L29 45L30 45L30 44L33 44L33 43L34 43L34 45L36 45L36 46L37 46L37 47L36 47L36 48L35 48L35 49L36 49L36 50L38 50L38 51L37 51L37 52L39 52L39 51L40 51L40 52L41 52L41 50L38 50L38 49L39 49L39 48L41 48L41 46L43 46L43 45L44 45L44 48L45 48L45 47L47 47L47 48L48 48L48 47L49 47L49 46L51 46L51 45L52 45L52 44L51 44L51 43L53 43L53 42L51 42L51 43L50 43L50 45L49 45L49 46L48 46L48 47L47 47L47 46L45 46L45 45L44 45L44 44L43 44L43 42L44 42L44 41L43 41L43 40L47 40L47 39L48 39L48 38L49 38L49 39L50 39L50 38L51 38L51 37L52 37L52 35L53 35L53 34L52 34L52 35L50 35L50 34L49 34L49 35L47 35L47 34L45 34L45 33L46 33L46 32L45 32L45 31L44 31L44 29L39 29L39 30L38 30L38 32L39 32L39 31L41 31L41 30L43 30L43 32L41 32L41 33L39 33L39 34L40 34L40 35L38 35L38 33L37 33L37 32L35 32L35 31L36 31L36 30L33 30L33 29L32 29L32 27L33 27L33 28L35 28L35 29L38 29L38 28L39 28L39 27L41 27L41 28L42 28L42 26L44 26L44 24L41 24L41 22L43 22L43 23L44 23L44 20L45 20L45 18L44 18L44 15L42 15L42 16L41 16L41 17L39 17L39 16L38 16L38 17L37 17L37 16L35 16L35 17L37 17L37 18L38 18L38 17L39 17L39 19L38 19L38 21L37 21L37 20L36 20L36 19L35 19L35 20L34 20L34 21L35 21L35 23L32 23L32 24L31 24L31 25L29 25L29 26L28 26L28 25L27 25L27 26L26 26L26 25L25 25L25 24L30 24L30 23L31 23L31 21L32 21L32 20L33 20L33 19L34 19L34 18L33 18L33 17L32 17L32 16L31 16L31 15L30 15L30 14L32 14L32 11L33 11L33 10L32 10L32 11L31 11L31 13L30 13L30 14L29 14L29 13L28 13L28 12L29 12L29 11L27 11L27 12L26 12L26 13L28 13L28 14L29 14L29 16L28 16L28 15L27 15L27 16L28 16L28 17L22 17L22 16L21 16L21 17L22 17L22 18L21 18L21 19L23 19L23 20L24 20L24 21L22 21L22 20L21 20L21 21L22 21L22 22L24 22L24 21L25 21L25 22L26 22L26 23L25 23L25 24L24 24L24 23L21 23L21 24L19 24L19 23L20 23L20 22L17 22L17 21L16 21L16 22L14 22L14 21L13 21L13 20L14 20L14 19L13 19L13 18L14 18L14 16L16 16L16 13L15 13L15 10L16 10L16 9L15 9L15 10L14 10L14 8ZM55 8L55 9L56 9L56 8ZM43 9L43 10L44 10L44 9ZM13 11L13 12L14 12L14 11ZM33 12L33 13L34 13L34 12ZM49 12L49 13L47 13L47 14L45 14L45 17L46 17L46 16L47 16L47 18L50 18L50 17L49 17L49 16L50 16L50 15L49 15L49 14L50 14L50 12ZM48 15L48 16L49 16L49 15ZM42 16L42 17L43 17L43 16ZM31 17L31 18L30 18L30 19L28 19L28 18L26 18L26 20L25 20L25 21L27 21L27 23L29 23L29 22L28 22L28 21L31 21L31 19L33 19L33 18L32 18L32 17ZM9 18L9 19L10 19L10 21L11 21L11 22L13 22L13 21L12 21L12 20L11 20L11 19L12 19L12 18L11 18L11 19L10 19L10 18ZM23 18L23 19L24 19L24 18ZM41 18L41 19L42 19L42 18ZM43 18L43 20L44 20L44 18ZM48 19L48 20L47 20L47 21L48 21L48 22L46 22L46 21L45 21L45 22L46 22L46 23L45 23L45 24L47 24L47 23L49 23L49 21L51 21L51 22L50 22L50 23L51 23L51 24L52 24L52 23L53 23L53 22L54 22L54 21L51 21L51 20L52 20L52 19ZM39 20L39 21L38 21L38 22L37 22L37 24L38 24L38 26L37 26L37 25L33 25L33 24L32 24L32 26L31 26L31 27L32 27L32 26L33 26L33 27L34 27L34 26L36 26L36 27L35 27L35 28L36 28L36 27L39 27L39 25L41 25L41 26L42 26L42 25L41 25L41 24L38 24L38 22L39 22L39 23L40 23L40 22L39 22L39 21L42 21L42 20ZM48 20L48 21L49 21L49 20ZM5 21L5 22L7 22L7 21ZM15 23L15 24L13 24L13 25L14 25L14 26L13 26L13 28L14 28L14 27L15 27L15 29L16 29L16 31L15 31L15 32L19 32L19 31L17 31L17 30L18 30L18 29L19 29L19 26L20 26L20 27L21 27L21 28L22 28L22 29L20 29L20 32L21 32L21 33L20 33L20 34L19 34L19 33L18 33L18 34L19 34L19 35L20 35L20 36L19 36L19 37L23 37L23 38L24 38L24 37L23 37L23 36L24 36L24 34L23 34L23 33L25 33L25 35L26 35L26 36L27 36L27 37L25 37L25 40L24 40L24 39L23 39L23 40L19 40L19 41L18 41L18 42L19 42L19 41L20 41L20 42L21 42L21 43L22 43L22 42L23 42L23 43L24 43L24 42L23 42L23 41L25 41L25 43L27 43L27 44L28 44L28 43L29 43L29 44L30 44L30 43L29 43L29 42L32 42L32 43L33 43L33 42L34 42L34 43L35 43L35 44L36 44L36 43L37 43L37 42L35 42L35 40L38 40L38 42L39 42L39 43L41 43L41 44L39 44L39 45L38 45L38 46L39 46L39 45L41 45L41 44L42 44L42 42L40 42L40 41L42 41L42 39L45 39L45 38L46 38L46 39L47 39L47 38L48 38L48 37L49 37L49 38L50 38L50 37L51 37L51 36L50 36L50 35L49 35L49 36L47 36L47 35L46 35L46 36L47 36L47 37L45 37L45 36L44 36L44 35L45 35L45 34L42 34L42 35L41 35L41 36L40 36L40 37L38 37L38 35L37 35L37 34L35 34L35 33L34 33L34 34L33 34L33 35L34 35L34 34L35 34L35 36L37 36L37 37L38 37L38 38L37 38L37 39L35 39L35 40L33 40L33 39L29 39L29 38L31 38L31 37L29 37L29 36L30 36L30 34L29 34L29 33L31 33L31 35L32 35L32 33L33 33L33 32L34 32L34 31L33 31L33 30L32 30L32 29L31 29L31 31L27 31L27 35L26 35L26 32L25 32L25 31L23 31L23 28L25 28L25 29L26 29L26 28L25 28L25 27L26 27L26 26L22 26L22 27L21 27L21 25L24 25L24 24L21 24L21 25L17 25L17 24L18 24L18 23L17 23L17 24L16 24L16 23ZM15 24L15 25L16 25L16 24ZM2 25L2 26L1 26L1 27L3 27L3 25ZM15 26L15 27L16 27L16 26ZM17 26L17 27L18 27L18 26ZM53 26L53 27L54 27L54 26ZM5 27L5 30L8 30L8 27ZM27 27L27 30L30 30L30 27ZM43 27L43 28L45 28L45 27ZM49 27L49 30L52 30L52 27ZM6 28L6 29L7 29L7 28ZM16 28L16 29L18 29L18 28ZM28 28L28 29L29 29L29 28ZM50 28L50 29L51 29L51 28ZM54 28L54 29L55 29L55 28ZM4 31L4 32L5 32L5 31ZM6 31L6 32L7 32L7 31ZM21 31L21 32L23 32L23 31ZM31 31L31 33L32 33L32 31ZM47 31L47 32L48 32L48 33L49 33L49 32L48 32L48 31ZM28 32L28 33L29 33L29 32ZM43 32L43 33L45 33L45 32ZM52 32L52 33L54 33L54 32ZM21 33L21 34L20 34L20 35L21 35L21 36L22 36L22 33ZM11 34L11 35L12 35L12 34ZM32 36L32 37L33 37L33 38L35 38L35 37L33 37L33 36ZM42 36L42 37L40 37L40 38L43 38L43 37L44 37L44 38L45 38L45 37L44 37L44 36ZM49 36L49 37L50 37L50 36ZM27 37L27 38L26 38L26 39L27 39L27 40L28 40L28 39L27 39L27 38L28 38L28 37ZM38 38L38 40L40 40L40 39L39 39L39 38ZM6 40L6 41L5 41L5 42L6 42L6 43L8 43L8 42L6 42L6 41L7 41L7 40ZM31 40L31 41L32 41L32 42L33 42L33 41L32 41L32 40ZM21 41L21 42L22 42L22 41ZM26 41L26 42L27 42L27 41ZM22 45L22 46L23 46L23 45ZM54 45L54 46L55 46L55 45ZM12 47L12 48L13 48L13 47ZM14 47L14 48L16 48L16 47ZM24 47L24 48L25 48L25 47ZM38 47L38 48L37 48L37 49L38 49L38 48L39 48L39 47ZM42 47L42 48L43 48L43 47ZM53 48L53 49L54 49L54 48ZM55 48L55 50L54 50L54 51L55 51L55 50L56 50L56 48ZM9 49L9 50L10 50L10 49ZM15 49L15 50L16 50L16 49ZM27 49L27 52L30 52L30 49ZM49 49L49 52L52 52L52 49ZM28 50L28 51L29 51L29 50ZM45 50L45 51L46 51L46 52L45 52L45 53L47 53L47 51L46 51L46 50ZM50 50L50 51L51 51L51 50ZM16 52L16 53L14 53L14 55L15 55L15 54L16 54L16 53L17 53L17 52ZM53 52L53 54L54 54L54 52ZM33 53L33 54L34 54L34 55L35 55L35 56L36 56L36 54L35 54L35 53ZM17 54L17 55L18 55L18 54ZM42 55L42 56L43 56L43 55ZM47 55L47 56L48 56L48 55ZM50 55L50 56L51 56L51 55ZM25 56L25 57L26 57L26 56ZM0 0L0 7L7 7L7 0ZM1 1L1 6L6 6L6 1ZM2 2L2 5L5 5L5 2ZM50 0L50 7L57 7L57 0ZM51 1L51 6L56 6L56 1ZM52 2L52 5L55 5L55 2ZM0 50L0 57L7 57L7 50ZM1 51L1 56L6 56L6 51ZM2 52L2 55L5 55L5 52Z" fill="#000000"/></g></g></svg>
