<?xml version="1.0" encoding="UTF-8"?>
<svg xmlns="http://www.w3.org/2000/svg" version="1.1" width="300" height="300" viewBox="0 0 300 300"><rect x="0" y="0" width="300" height="300" fill="#fefefe"/><g transform="scale(4.615)"><g transform="translate(4,4)"><path fill-rule="evenodd" d="M8 0L8 1L9 1L9 2L8 2L8 5L10 5L10 7L9 7L9 6L8 6L8 7L9 7L9 8L8 8L8 9L9 9L9 10L6 10L6 9L7 9L7 8L6 8L6 9L5 9L5 10L6 10L6 11L4 11L4 12L3 12L3 11L2 11L2 12L1 12L1 13L0 13L0 18L1 18L1 21L3 21L3 22L5 22L5 21L7 21L7 22L6 22L6 23L5 23L5 26L4 26L4 28L3 28L3 26L2 26L2 25L3 25L3 23L2 23L2 22L1 22L1 23L0 23L0 24L1 24L1 26L0 26L0 31L1 31L1 33L0 33L0 35L3 35L3 36L5 36L5 37L3 37L3 39L4 39L4 41L5 41L5 40L6 40L6 41L8 41L8 44L9 44L9 45L7 45L7 44L6 44L6 45L5 45L5 44L3 44L3 46L2 46L2 44L0 44L0 48L5 48L5 47L7 47L7 48L6 48L6 49L8 49L8 50L9 50L9 53L8 53L8 57L11 57L11 56L12 56L12 57L13 57L13 55L14 55L14 56L16 56L16 57L18 57L18 56L17 56L17 54L18 54L18 53L17 53L17 54L16 54L16 53L15 53L15 54L13 54L13 52L14 52L14 50L15 50L15 52L16 52L16 50L15 50L15 49L14 49L14 48L12 48L12 47L11 47L11 46L12 46L12 44L14 44L14 43L15 43L15 45L13 45L13 47L16 47L16 49L17 49L17 52L19 52L19 55L20 55L20 56L19 56L19 57L23 57L23 54L25 54L25 55L24 55L24 56L25 56L25 55L26 55L26 56L28 56L28 55L26 55L26 54L27 54L27 53L29 53L29 54L31 54L31 55L30 55L30 56L31 56L31 57L32 57L32 55L34 55L34 56L33 56L33 57L36 57L36 55L37 55L37 54L36 54L36 53L35 53L35 52L36 52L36 51L37 51L37 52L38 52L38 53L39 53L39 54L38 54L38 57L41 57L41 56L39 56L39 55L41 55L41 54L42 54L42 57L43 57L43 56L45 56L45 55L44 55L44 54L45 54L45 53L46 53L46 56L48 56L48 57L51 57L51 54L52 54L52 53L54 53L54 52L56 52L56 53L55 53L55 54L56 54L56 53L57 53L57 52L56 52L56 49L57 49L57 48L56 48L56 49L55 49L55 48L54 48L54 47L57 47L57 43L56 43L56 41L57 41L57 40L56 40L56 41L55 41L55 42L54 42L54 41L53 41L53 40L55 40L55 38L56 38L56 39L57 39L57 38L56 38L56 37L55 37L55 36L56 36L56 35L57 35L57 34L55 34L55 33L57 33L57 31L56 31L56 30L57 30L57 29L56 29L56 30L55 30L55 33L54 33L54 32L53 32L53 33L54 33L54 34L52 34L52 32L51 32L51 31L53 31L53 28L54 28L54 29L55 29L55 28L56 28L56 24L55 24L55 27L53 27L53 26L52 26L52 25L51 25L51 23L47 23L47 22L49 22L49 20L50 20L50 21L51 21L51 22L52 22L52 23L53 23L53 24L54 24L54 23L57 23L57 20L56 20L56 22L53 22L53 20L50 20L50 18L49 18L49 20L48 20L48 21L47 21L47 22L46 22L46 20L47 20L47 19L48 19L48 17L45 17L45 16L46 16L46 15L45 15L45 14L46 14L46 13L44 13L44 11L42 11L42 12L43 12L43 14L42 14L42 17L41 17L41 18L39 18L39 19L40 19L40 20L39 20L39 24L38 24L38 21L36 21L36 20L38 20L38 19L36 19L36 20L35 20L35 17L34 17L34 16L35 16L35 15L36 15L36 13L37 13L37 15L39 15L39 17L40 17L40 16L41 16L41 14L40 14L40 13L39 13L39 12L40 12L40 11L41 11L41 10L44 10L44 9L43 9L43 8L45 8L45 9L47 9L47 10L45 10L45 11L47 11L47 12L48 12L48 11L49 11L49 16L50 16L50 17L52 17L52 15L51 15L51 13L52 13L52 14L53 14L53 16L55 16L55 17L54 17L54 18L52 18L52 19L55 19L55 17L56 17L56 18L57 18L57 15L54 15L54 14L53 14L53 13L54 13L54 10L53 10L53 13L52 13L52 12L51 12L51 11L52 11L52 10L51 10L51 11L49 11L49 10L50 10L50 8L49 8L49 6L48 6L48 7L47 7L47 5L48 5L48 0L46 0L46 1L47 1L47 2L46 2L46 3L47 3L47 5L46 5L46 4L44 4L44 3L45 3L45 1L44 1L44 2L41 2L41 1L43 1L43 0L41 0L41 1L40 1L40 0L39 0L39 1L40 1L40 2L41 2L41 4L39 4L39 3L37 3L37 1L38 1L38 0L37 0L37 1L36 1L36 0L35 0L35 1L34 1L34 2L35 2L35 3L33 3L33 1L32 1L32 2L31 2L31 3L30 3L30 2L29 2L29 1L31 1L31 0L29 0L29 1L27 1L27 2L28 2L28 3L30 3L30 4L26 4L26 1L25 1L25 0L23 0L23 1L25 1L25 2L24 2L24 3L23 3L23 2L22 2L22 0L21 0L21 1L20 1L20 0L17 0L17 1L16 1L16 2L18 2L18 3L17 3L17 5L15 5L15 4L14 4L14 3L12 3L12 4L9 4L9 3L10 3L10 1L11 1L11 0L10 0L10 1L9 1L9 0ZM12 0L12 2L13 2L13 0ZM14 0L14 1L15 1L15 0ZM18 1L18 2L19 2L19 1ZM35 1L35 2L36 2L36 1ZM20 2L20 3L19 3L19 4L18 4L18 5L19 5L19 4L20 4L20 5L21 5L21 7L20 7L20 6L19 6L19 7L20 7L20 10L19 10L19 8L18 8L18 12L17 12L17 13L16 13L16 12L15 12L15 15L16 15L16 16L17 16L17 15L16 15L16 14L18 14L18 17L19 17L19 18L21 18L21 20L19 20L19 19L17 19L17 18L13 18L13 19L15 19L15 20L14 20L14 22L15 22L15 23L16 23L16 26L15 26L15 25L14 25L14 26L15 26L15 27L13 27L13 29L12 29L12 26L11 26L11 27L10 27L10 28L9 28L9 29L10 29L10 32L9 32L9 33L8 33L8 34L9 34L9 33L10 33L10 34L11 34L11 36L10 36L10 35L9 35L9 37L8 37L8 40L10 40L10 39L9 39L9 38L11 38L11 36L13 36L13 37L12 37L12 39L13 39L13 41L12 41L12 42L13 42L13 41L15 41L15 40L14 40L14 39L15 39L15 38L17 38L17 39L16 39L16 40L17 40L17 41L19 41L19 42L20 42L20 44L22 44L22 46L21 46L21 45L20 45L20 46L19 46L19 47L18 47L18 48L19 48L19 49L20 49L20 48L19 48L19 47L22 47L22 46L24 46L24 49L23 49L23 48L21 48L21 50L22 50L22 51L21 51L21 52L22 52L22 54L23 54L23 52L24 52L24 53L25 53L25 54L26 54L26 53L25 53L25 52L26 52L26 50L25 50L25 49L26 49L26 48L27 48L27 47L28 47L28 48L29 48L29 47L30 47L30 48L32 48L32 49L31 49L31 50L33 50L33 52L35 52L35 51L34 51L34 50L35 50L35 48L37 48L37 49L36 49L36 50L37 50L37 49L38 49L38 48L39 48L39 49L40 49L40 50L39 50L39 51L38 51L38 52L40 52L40 54L41 54L41 53L42 53L42 54L43 54L43 52L42 52L42 51L44 51L44 50L45 50L45 52L46 52L46 53L47 53L47 54L50 54L50 53L47 53L47 52L48 52L48 48L46 48L46 46L47 46L47 47L49 47L49 48L50 48L50 47L49 47L49 46L48 46L48 44L44 44L44 43L45 43L45 41L44 41L44 40L43 40L43 39L40 39L40 41L37 41L37 40L38 40L38 39L37 39L37 37L38 37L38 36L37 36L37 37L35 37L35 36L36 36L36 35L35 35L35 33L33 33L33 32L35 32L35 31L31 31L31 33L32 33L32 34L30 34L30 35L29 35L29 33L30 33L30 32L29 32L29 31L28 31L28 33L25 33L25 34L24 34L24 35L23 35L23 33L24 33L24 32L27 32L27 31L24 31L24 30L26 30L26 28L24 28L24 27L25 27L25 25L27 25L27 26L28 26L28 25L29 25L29 26L31 26L31 24L30 24L30 20L31 20L31 23L32 23L32 22L34 22L34 23L33 23L33 24L32 24L32 25L33 25L33 24L35 24L35 23L36 23L36 24L37 24L37 22L35 22L35 20L34 20L34 19L33 19L33 17L32 17L32 16L29 16L29 15L28 15L28 16L29 16L29 17L24 17L24 18L23 18L23 14L26 14L26 16L27 16L27 13L26 13L26 12L28 12L28 13L30 13L30 14L31 14L31 15L32 15L32 14L33 14L33 15L35 15L35 12L38 12L38 11L37 11L37 9L38 9L38 10L39 10L39 11L40 11L40 10L41 10L41 9L40 9L40 10L39 10L39 7L40 7L40 8L43 8L43 7L44 7L44 6L45 6L45 8L46 8L46 5L43 5L43 3L42 3L42 4L41 4L41 7L40 7L40 5L38 5L38 6L37 6L37 5L36 5L36 4L34 4L34 5L33 5L33 3L32 3L32 4L31 4L31 5L32 5L32 6L31 6L31 9L32 9L32 10L30 10L30 11L27 11L27 10L26 10L26 11L25 11L25 13L24 13L24 12L23 12L23 11L21 11L21 14L19 14L19 13L20 13L20 12L19 12L19 11L20 11L20 10L23 10L23 9L24 9L24 8L25 8L25 9L26 9L26 6L25 6L25 5L26 5L26 4L24 4L24 6L23 6L23 5L22 5L22 4L23 4L23 3L21 3L21 2ZM12 4L12 5L11 5L11 7L10 7L10 9L11 9L11 10L9 10L9 11L6 11L6 12L4 12L4 14L3 14L3 15L2 15L2 14L1 14L1 16L4 16L4 20L3 20L3 21L4 21L4 20L7 20L7 21L8 21L8 20L7 20L7 19L6 19L6 18L8 18L8 19L9 19L9 20L12 20L12 21L10 21L10 23L8 23L8 22L7 22L7 23L6 23L6 24L7 24L7 25L6 25L6 26L8 26L8 25L10 25L10 24L14 24L14 23L13 23L13 22L12 22L12 21L13 21L13 20L12 20L12 18L11 18L11 17L10 17L10 16L8 16L8 17L5 17L5 16L4 16L4 15L5 15L5 14L7 14L7 13L6 13L6 12L8 12L8 15L10 15L10 14L9 14L9 11L11 11L11 10L12 10L12 12L11 12L11 14L12 14L12 15L11 15L11 16L14 16L14 15L13 15L13 14L14 14L14 13L12 13L12 12L13 12L13 9L14 9L14 11L15 11L15 10L16 10L16 11L17 11L17 7L18 7L18 6L17 6L17 7L16 7L16 6L15 6L15 8L13 8L13 7L14 7L14 6L13 6L13 5L14 5L14 4ZM27 5L27 8L30 8L30 5ZM12 6L12 7L11 7L11 8L12 8L12 9L13 9L13 8L12 8L12 7L13 7L13 6ZM22 6L22 8L21 8L21 9L23 9L23 8L24 8L24 7L25 7L25 6L24 6L24 7L23 7L23 6ZM28 6L28 7L29 7L29 6ZM32 6L32 8L33 8L33 6ZM34 6L34 9L36 9L36 8L37 8L37 6L36 6L36 7L35 7L35 6ZM38 6L38 7L39 7L39 6ZM42 6L42 7L43 7L43 6ZM0 8L0 9L1 9L1 10L4 10L4 8ZM15 8L15 9L16 9L16 8ZM52 8L52 9L55 9L55 12L56 12L56 11L57 11L57 10L56 10L56 9L57 9L57 8L56 8L56 9L55 9L55 8ZM28 9L28 10L29 10L29 9ZM33 10L33 14L34 14L34 12L35 12L35 11L36 11L36 10L35 10L35 11L34 11L34 10ZM47 10L47 11L48 11L48 10ZM30 11L30 12L31 12L31 14L32 14L32 11ZM18 12L18 13L19 13L19 12ZM22 12L22 13L23 13L23 12ZM50 12L50 13L51 13L51 12ZM39 14L39 15L40 15L40 14ZM43 14L43 15L44 15L44 16L45 16L45 15L44 15L44 14ZM47 14L47 16L48 16L48 14ZM6 15L6 16L7 16L7 15ZM20 15L20 16L19 16L19 17L21 17L21 18L22 18L22 17L21 17L21 15ZM50 15L50 16L51 16L51 15ZM2 17L2 19L3 19L3 17ZM9 17L9 18L10 18L10 19L11 19L11 18L10 18L10 17ZM29 17L29 18L28 18L28 19L29 19L29 20L27 20L27 19L26 19L26 18L24 18L24 19L25 19L25 22L24 22L24 21L23 21L23 20L21 20L21 21L23 21L23 22L22 22L22 23L21 23L21 22L18 22L18 21L17 21L17 19L16 19L16 23L18 23L18 24L17 24L17 27L15 27L15 29L14 29L14 30L13 30L13 31L12 31L12 29L11 29L11 28L10 28L10 29L11 29L11 33L12 33L12 32L15 32L15 33L13 33L13 35L14 35L14 34L16 34L16 36L17 36L17 37L19 37L19 39L17 39L17 40L20 40L20 41L21 41L21 42L22 42L22 44L23 44L23 45L24 45L24 46L25 46L25 45L26 45L26 46L27 46L27 45L26 45L26 43L25 43L25 42L27 42L27 43L28 43L28 45L30 45L30 46L31 46L31 47L32 47L32 48L35 48L35 47L38 47L38 45L41 45L41 46L39 46L39 47L43 47L43 49L44 49L44 48L45 48L45 45L44 45L44 47L43 47L43 45L42 45L42 43L43 43L43 42L42 42L42 40L41 40L41 41L40 41L40 42L42 42L42 43L39 43L39 42L37 42L37 44L38 44L38 45L36 45L36 43L34 43L34 42L36 42L36 41L34 41L34 40L35 40L35 39L36 39L36 38L34 38L34 37L33 37L33 38L32 38L32 36L33 36L33 35L34 35L34 34L32 34L32 36L29 36L29 35L28 35L28 34L27 34L27 35L26 35L26 37L27 37L27 36L29 36L29 38L25 38L25 39L24 39L24 37L25 37L25 36L23 36L23 35L22 35L22 36L23 36L23 38L20 38L20 37L19 37L19 36L21 36L21 35L20 35L20 33L21 33L21 34L22 34L22 33L23 33L23 31L22 31L22 32L20 32L20 33L18 33L18 32L17 32L17 33L18 33L18 34L16 34L16 30L17 30L17 27L19 27L19 28L18 28L18 29L21 29L21 30L24 30L24 29L21 29L21 28L20 28L20 27L21 27L21 26L22 26L22 27L23 27L23 25L22 25L22 24L24 24L24 25L25 25L25 22L28 22L28 23L29 23L29 20L30 20L30 17ZM36 17L36 18L37 18L37 17ZM42 17L42 18L41 18L41 21L44 21L44 22L45 22L45 20L46 20L46 19L44 19L44 18L45 18L45 17ZM42 18L42 19L43 19L43 18ZM31 19L31 20L32 20L32 19ZM26 20L26 21L27 21L27 20ZM33 20L33 21L34 21L34 20ZM54 20L54 21L55 21L55 20ZM11 22L11 23L12 23L12 22ZM41 22L41 23L40 23L40 24L39 24L39 25L40 25L40 27L39 27L39 26L38 26L38 27L39 27L39 28L40 28L40 29L38 29L38 30L36 30L36 29L37 29L37 28L36 28L36 27L35 27L35 25L34 25L34 27L35 27L35 28L34 28L34 29L35 29L35 30L36 30L36 31L37 31L37 32L36 32L36 33L37 33L37 32L38 32L38 34L39 34L39 31L38 31L38 30L41 30L41 31L40 31L40 32L41 32L41 31L43 31L43 29L42 29L42 30L41 30L41 26L43 26L43 25L41 25L41 24L42 24L42 23L43 23L43 24L44 24L44 27L42 27L42 28L44 28L44 27L45 27L45 30L46 30L46 27L45 27L45 24L47 24L47 23L43 23L43 22ZM1 23L1 24L2 24L2 23ZM7 23L7 24L8 24L8 23ZM20 23L20 24L19 24L19 25L18 25L18 26L19 26L19 25L20 25L20 24L21 24L21 23ZM26 23L26 24L27 24L27 23ZM49 24L49 25L46 25L46 26L47 26L47 27L48 27L48 26L49 26L49 25L50 25L50 24ZM5 27L5 30L8 30L8 27ZM27 27L27 30L30 30L30 27ZM31 27L31 28L33 28L33 27ZM49 27L49 30L52 30L52 27ZM2 28L2 30L1 30L1 31L2 31L2 33L1 33L1 34L4 34L4 35L5 35L5 36L8 36L8 35L6 35L6 34L7 34L7 33L6 33L6 34L4 34L4 33L5 33L5 32L7 32L7 31L4 31L4 33L3 33L3 28ZM6 28L6 29L7 29L7 28ZM28 28L28 29L29 29L29 28ZM50 28L50 29L51 29L51 28ZM15 29L15 30L14 30L14 31L15 31L15 30L16 30L16 29ZM32 29L32 30L33 30L33 29ZM18 30L18 31L19 31L19 30ZM47 30L47 32L46 32L46 31L44 31L44 33L45 33L45 34L46 34L46 35L45 35L45 36L44 36L44 37L42 37L42 38L44 38L44 39L46 39L46 38L48 38L48 39L47 39L47 40L46 40L46 41L47 41L47 42L48 42L48 43L49 43L49 44L50 44L50 46L51 46L51 47L52 47L52 46L53 46L53 44L55 44L55 46L56 46L56 44L55 44L55 43L54 43L54 42L53 42L53 43L52 43L52 44L51 44L51 42L50 42L50 41L52 41L52 38L53 38L53 39L54 39L54 38L53 38L53 36L52 36L52 35L51 35L51 36L49 36L49 37L51 37L51 36L52 36L52 38L48 38L48 35L47 35L47 34L50 34L50 33L49 33L49 32L50 32L50 31L49 31L49 32L48 32L48 30ZM42 32L42 33L43 33L43 32ZM18 34L18 36L19 36L19 34ZM41 34L41 35L39 35L39 36L40 36L40 37L41 37L41 36L43 36L43 35L44 35L44 34L43 34L43 35L42 35L42 34ZM46 35L46 37L45 37L45 38L46 38L46 37L47 37L47 35ZM54 35L54 36L55 36L55 35ZM0 36L0 37L2 37L2 36ZM14 36L14 37L15 37L15 36ZM5 37L5 38L4 38L4 39L5 39L5 38L7 38L7 37ZM0 38L0 39L1 39L1 40L2 40L2 38ZM30 38L30 39L28 39L28 40L27 40L27 39L25 39L25 41L24 41L24 39L22 39L22 41L23 41L23 42L25 42L25 41L26 41L26 40L27 40L27 41L28 41L28 40L30 40L30 41L29 41L29 42L31 42L31 40L33 40L33 39L32 39L32 38ZM6 39L6 40L7 40L7 39ZM49 39L49 40L47 40L47 41L50 41L50 40L51 40L51 39ZM0 41L0 43L2 43L2 42L3 42L3 43L4 43L4 42L3 42L3 41L2 41L2 42L1 42L1 41ZM9 41L9 42L11 42L11 41ZM5 42L5 43L7 43L7 42ZM17 42L17 45L15 45L15 46L16 46L16 47L17 47L17 45L19 45L19 43L18 43L18 42ZM32 42L32 43L30 43L30 44L31 44L31 46L32 46L32 45L33 45L33 47L34 47L34 46L36 46L36 45L35 45L35 44L34 44L34 45L33 45L33 42ZM49 42L49 43L50 43L50 42ZM10 43L10 45L9 45L9 47L8 47L8 46L7 46L7 45L6 45L6 46L7 46L7 47L8 47L8 49L9 49L9 50L10 50L10 49L11 49L11 50L12 50L12 49L11 49L11 48L10 48L10 45L11 45L11 44L12 44L12 43ZM23 43L23 44L24 44L24 43ZM38 43L38 44L39 44L39 43ZM1 46L1 47L2 47L2 46ZM3 46L3 47L5 47L5 46ZM28 46L28 47L29 47L29 46ZM25 47L25 48L26 48L26 47ZM41 48L41 49L42 49L42 48ZM53 48L53 50L55 50L55 49L54 49L54 48ZM22 49L22 50L23 50L23 49ZM27 49L27 52L30 52L30 49ZM33 49L33 50L34 50L34 49ZM45 49L45 50L46 50L46 49ZM49 49L49 52L52 52L52 49ZM18 50L18 51L19 51L19 52L20 52L20 51L19 51L19 50ZM24 50L24 51L25 51L25 50ZM28 50L28 51L29 51L29 50ZM50 50L50 51L51 51L51 50ZM11 51L11 52L10 52L10 54L9 54L9 56L11 56L11 55L10 55L10 54L12 54L12 55L13 55L13 54L12 54L12 51ZM31 51L31 53L32 53L32 51ZM40 51L40 52L41 52L41 51ZM46 51L46 52L47 52L47 51ZM20 53L20 55L21 55L21 56L22 56L22 55L21 55L21 53ZM34 54L34 55L36 55L36 54ZM48 55L48 56L49 56L49 55ZM56 55L56 56L57 56L57 55ZM52 56L52 57L53 57L53 56ZM54 56L54 57L55 57L55 56ZM0 0L0 7L7 7L7 0ZM1 1L1 6L6 6L6 1ZM2 2L2 5L5 5L5 2ZM50 0L50 7L57 7L57 0ZM51 1L51 6L56 6L56 1ZM52 2L52 5L55 5L55 2ZM0 50L0 57L7 57L7 50ZM1 51L1 56L6 56L6 51ZM2 52L2 55L5 55L5 52Z" fill="#000000"/></g></g></svg>
