<?xml version="1.0" encoding="UTF-8"?>
<svg xmlns="http://www.w3.org/2000/svg" version="1.1" width="300" height="300" viewBox="0 0 300 300"><rect x="0" y="0" width="300" height="300" fill="#fefefe"/><g transform="scale(4.615)"><g transform="translate(4,4)"><path fill-rule="evenodd" d="M10 0L10 1L8 1L8 2L10 2L10 1L11 1L11 0ZM17 0L17 1L14 1L14 2L13 2L13 1L12 1L12 2L11 2L11 5L10 5L10 3L8 3L8 4L9 4L9 5L8 5L8 7L9 7L9 8L6 8L6 9L5 9L5 8L0 8L0 9L2 9L2 10L3 10L3 9L5 9L5 10L6 10L6 11L7 11L7 12L6 12L6 13L5 13L5 12L3 12L3 11L1 11L1 12L0 12L0 13L1 13L1 12L3 12L3 13L2 13L2 14L4 14L4 17L5 17L5 15L7 15L7 16L6 16L6 17L7 17L7 18L5 18L5 19L7 19L7 18L8 18L8 17L9 17L9 18L11 18L11 17L12 17L12 16L11 16L11 17L10 17L10 15L12 15L12 14L13 14L13 18L14 18L14 15L15 15L15 16L16 16L16 17L15 17L15 19L16 19L16 17L19 17L19 18L20 18L20 19L18 19L18 18L17 18L17 21L16 21L16 20L15 20L15 21L16 21L16 22L14 22L14 21L11 21L11 20L10 20L10 19L8 19L8 20L5 20L5 21L7 21L7 22L6 22L6 23L5 23L5 24L3 24L3 25L2 25L2 22L4 22L4 20L3 20L3 19L4 19L4 18L3 18L3 16L2 16L2 17L0 17L0 18L1 18L1 20L0 20L0 21L1 21L1 23L0 23L0 27L1 27L1 28L0 28L0 29L1 29L1 28L3 28L3 26L4 26L4 31L3 31L3 29L2 29L2 30L1 30L1 31L0 31L0 32L1 32L1 33L0 33L0 34L1 34L1 36L0 36L0 37L1 37L1 36L2 36L2 34L1 34L1 33L3 33L3 34L4 34L4 35L3 35L3 40L1 40L1 42L0 42L0 43L1 43L1 44L0 44L0 45L1 45L1 46L0 46L0 48L5 48L5 47L7 47L7 48L6 48L6 49L8 49L8 51L10 51L10 50L11 50L11 52L8 52L8 57L11 57L11 56L12 56L12 57L13 57L13 56L14 56L14 57L15 57L15 56L14 56L14 54L11 54L11 53L13 53L13 52L12 52L12 50L13 50L13 51L14 51L14 49L13 49L13 48L14 48L14 47L16 47L16 46L15 46L15 44L16 44L16 45L17 45L17 46L20 46L20 48L21 48L21 47L24 47L24 48L23 48L23 49L21 49L21 50L20 50L20 49L19 49L19 47L18 47L18 48L16 48L16 49L15 49L15 51L17 51L17 53L16 53L16 52L14 52L14 53L16 53L16 54L15 54L15 55L16 55L16 56L17 56L17 57L20 57L20 56L19 56L19 55L20 55L20 54L18 54L18 55L17 55L17 53L20 53L20 52L23 52L23 51L21 51L21 50L26 50L26 52L24 52L24 53L21 53L21 54L22 54L22 56L24 56L24 55L23 55L23 54L24 54L24 53L26 53L26 54L25 54L25 55L26 55L26 54L30 54L30 53L31 53L31 51L32 51L32 52L33 52L33 53L32 53L32 54L31 54L31 56L30 56L30 55L29 55L29 56L27 56L27 57L29 57L29 56L30 56L30 57L31 57L31 56L35 56L35 57L40 57L40 56L41 56L41 57L44 57L44 56L41 56L41 54L42 54L42 55L44 55L44 54L45 54L45 55L47 55L47 56L46 56L46 57L47 57L47 56L48 56L48 55L49 55L49 56L50 56L50 57L52 57L52 55L51 55L51 53L52 53L52 54L53 54L53 57L54 57L54 56L55 56L55 57L56 57L56 56L55 56L55 55L54 55L54 54L53 54L53 52L54 52L54 53L55 53L55 52L56 52L56 53L57 53L57 51L54 51L54 50L57 50L57 48L56 48L56 46L57 46L57 45L56 45L56 44L55 44L55 43L56 43L56 41L53 41L53 40L55 40L55 39L57 39L57 37L55 37L55 35L56 35L56 36L57 36L57 35L56 35L56 34L57 34L57 32L56 32L56 30L57 30L57 27L56 27L56 26L57 26L57 25L56 25L56 22L57 22L57 21L56 21L56 22L55 22L55 23L53 23L53 21L51 21L51 20L52 20L52 19L53 19L53 20L55 20L55 19L56 19L56 18L57 18L57 17L56 17L56 16L57 16L57 15L56 15L56 14L57 14L57 12L55 12L55 11L56 11L56 8L55 8L55 10L54 10L54 11L52 11L52 10L53 10L53 9L54 9L54 8L53 8L53 9L52 9L52 8L51 8L51 9L52 9L52 10L50 10L50 8L49 8L49 9L48 9L48 8L47 8L47 5L48 5L48 0L46 0L46 1L45 1L45 2L44 2L44 3L42 3L42 2L43 2L43 0L41 0L41 1L40 1L40 0L39 0L39 1L38 1L38 0L37 0L37 1L38 1L38 2L39 2L39 3L41 3L41 4L40 4L40 5L39 5L39 6L38 6L38 7L37 7L37 5L38 5L38 4L37 4L37 3L36 3L36 0L35 0L35 1L33 1L33 2L32 2L32 0L29 0L29 1L28 1L28 0L27 0L27 1L26 1L26 0L23 0L23 2L22 2L22 3L23 3L23 4L24 4L24 5L23 5L23 6L22 6L22 7L21 7L21 4L19 4L19 3L20 3L20 0ZM21 0L21 1L22 1L22 0ZM17 1L17 2L16 2L16 3L15 3L15 2L14 2L14 4L12 4L12 5L13 5L13 8L11 8L11 9L10 9L10 8L9 8L9 9L10 9L10 10L9 10L9 12L10 12L10 10L11 10L11 12L12 12L12 13L13 13L13 14L15 14L15 13L16 13L16 16L17 16L17 13L18 13L18 12L17 12L17 13L16 13L16 12L15 12L15 13L13 13L13 12L14 12L14 11L13 11L13 10L17 10L17 11L18 11L18 10L19 10L19 12L20 12L20 14L19 14L19 15L18 15L18 16L19 16L19 15L20 15L20 14L21 14L21 13L22 13L22 14L23 14L23 15L21 15L21 16L20 16L20 18L22 18L22 19L24 19L24 18L22 18L22 17L26 17L26 16L27 16L27 17L28 17L28 16L29 16L29 14L30 14L30 15L32 15L32 17L33 17L33 18L32 18L32 19L33 19L33 18L35 18L35 19L36 19L36 20L37 20L37 19L39 19L39 17L41 17L41 16L42 16L42 17L43 17L43 16L42 16L42 15L44 15L44 18L43 18L43 20L42 20L42 21L43 21L43 20L44 20L44 26L41 26L41 25L43 25L43 24L40 24L40 22L39 22L39 21L41 21L41 20L38 20L38 23L37 23L37 24L40 24L40 25L38 25L38 26L37 26L37 25L33 25L33 24L32 24L32 23L33 23L33 22L34 22L34 23L35 23L35 21L33 21L33 20L32 20L32 21L31 21L31 24L30 24L30 23L29 23L29 24L28 24L28 23L27 23L27 24L25 24L25 23L26 23L26 22L25 22L25 21L30 21L30 20L27 20L27 19L28 19L28 18L25 18L25 19L26 19L26 20L25 20L25 21L24 21L24 20L21 20L21 19L20 19L20 21L17 21L17 24L16 24L16 23L14 23L14 25L15 25L15 26L12 26L12 27L15 27L15 29L14 29L14 30L13 30L13 29L12 29L12 28L11 28L11 25L13 25L13 23L12 23L12 22L10 22L10 20L8 20L8 21L9 21L9 22L10 22L10 24L9 24L9 25L8 25L8 26L9 26L9 29L11 29L11 30L10 30L10 37L11 37L11 36L12 36L12 37L13 37L13 38L11 38L11 40L10 40L10 41L6 41L6 42L7 42L7 43L6 43L6 44L7 44L7 45L5 45L5 43L4 43L4 41L5 41L5 39L6 39L6 40L7 40L7 39L8 39L8 40L9 40L9 39L10 39L10 38L9 38L9 39L8 39L8 38L7 38L7 37L9 37L9 31L6 31L6 32L7 32L7 33L6 33L6 34L5 34L5 35L4 35L4 37L5 37L5 39L4 39L4 41L3 41L3 43L4 43L4 45L5 45L5 46L3 46L3 47L5 47L5 46L8 46L8 47L9 47L9 48L8 48L8 49L9 49L9 48L11 48L11 49L12 49L12 48L11 48L11 47L12 47L12 46L13 46L13 47L14 47L14 46L13 46L13 45L14 45L14 44L13 44L13 43L14 43L14 41L13 41L13 42L11 42L11 43L8 43L8 42L10 42L10 41L12 41L12 39L13 39L13 40L15 40L15 42L17 42L17 43L18 43L18 42L19 42L19 43L20 43L20 44L19 44L19 45L20 45L20 46L21 46L21 45L22 45L22 46L24 46L24 47L26 47L26 48L30 48L30 47L29 47L29 45L33 45L33 46L32 46L32 47L33 47L33 46L35 46L35 48L34 48L34 49L33 49L33 48L32 48L32 51L33 51L33 52L34 52L34 53L33 53L33 54L35 54L35 56L36 56L36 54L35 54L35 50L36 50L36 52L37 52L37 53L38 53L38 54L37 54L37 56L40 56L40 55L38 55L38 54L40 54L40 53L42 53L42 52L43 52L43 51L42 51L42 50L41 50L41 48L42 48L42 49L43 49L43 50L44 50L44 49L45 49L45 50L47 50L47 52L46 52L46 51L45 51L45 52L44 52L44 53L43 53L43 54L44 54L44 53L45 53L45 54L48 54L48 50L47 50L47 49L48 49L48 48L49 48L49 47L51 47L51 48L53 48L53 49L54 49L54 48L53 48L53 45L52 45L52 44L53 44L53 43L54 43L54 42L53 42L53 41L51 41L51 42L50 42L50 43L49 43L49 42L48 42L48 41L49 41L49 40L50 40L50 39L51 39L51 40L53 40L53 39L54 39L54 38L53 38L53 35L55 35L55 34L54 34L54 32L53 32L53 33L52 33L52 32L51 32L51 33L52 33L52 34L50 34L50 31L48 31L48 29L46 29L46 30L47 30L47 31L45 31L45 32L43 32L43 31L44 31L44 30L45 30L45 28L46 28L46 27L47 27L47 23L45 23L45 22L47 22L47 21L45 21L45 20L44 20L44 18L45 18L45 19L47 19L47 17L48 17L48 16L49 16L49 17L50 17L50 18L48 18L48 19L51 19L51 17L53 17L53 18L55 18L55 17L53 17L53 15L50 15L50 14L51 14L51 12L50 12L50 11L49 11L49 10L47 10L47 8L46 8L46 5L47 5L47 3L44 3L44 6L43 6L43 7L44 7L44 10L43 10L43 11L41 11L41 9L42 9L42 8L41 8L41 7L42 7L42 6L41 6L41 5L40 5L40 6L39 6L39 7L40 7L40 8L39 8L39 9L38 9L38 10L37 10L37 9L35 9L35 8L37 8L37 7L36 7L36 5L37 5L37 4L36 4L36 5L35 5L35 3L32 3L32 2L31 2L31 1L29 1L29 2L31 2L31 3L32 3L32 4L31 4L31 8L32 8L32 10L31 10L31 11L30 11L30 10L29 10L29 9L27 9L27 10L29 10L29 12L28 12L28 13L27 13L27 14L26 14L26 12L27 12L27 11L26 11L26 12L25 12L25 10L23 10L23 8L24 8L24 6L23 6L23 7L22 7L22 8L20 8L20 10L19 10L19 9L18 9L18 8L17 8L17 7L18 7L18 6L19 6L19 7L20 7L20 5L19 5L19 4L17 4L17 3L19 3L19 1ZM25 1L25 2L23 2L23 3L26 3L26 4L25 4L25 8L26 8L26 4L30 4L30 3L27 3L27 2L26 2L26 1ZM46 1L46 2L47 2L47 1ZM15 4L15 5L14 5L14 7L15 7L15 9L17 9L17 10L18 10L18 9L17 9L17 8L16 8L16 7L17 7L17 6L16 6L16 7L15 7L15 5L16 5L16 4ZM32 4L32 5L33 5L33 4ZM45 4L45 5L46 5L46 4ZM9 5L9 7L10 7L10 5ZM27 5L27 8L30 8L30 5ZM34 5L34 7L33 7L33 6L32 6L32 7L33 7L33 9L34 9L34 8L35 8L35 5ZM11 6L11 7L12 7L12 6ZM28 6L28 7L29 7L29 6ZM40 6L40 7L41 7L41 6ZM44 6L44 7L45 7L45 6ZM48 6L48 7L49 7L49 6ZM13 8L13 9L12 9L12 10L13 10L13 9L14 9L14 8ZM6 9L6 10L7 10L7 11L8 11L8 10L7 10L7 9ZM45 9L45 10L44 10L44 11L45 11L45 12L49 12L49 13L47 13L47 14L45 14L45 13L44 13L44 12L43 12L43 13L40 13L40 12L41 12L41 11L40 11L40 12L39 12L39 11L37 11L37 10L36 10L36 11L35 11L35 13L36 13L36 14L33 14L33 13L34 13L34 12L33 12L33 13L32 13L32 11L33 11L33 10L32 10L32 11L31 11L31 13L30 13L30 14L31 14L31 13L32 13L32 15L33 15L33 16L35 16L35 17L37 17L37 18L38 18L38 17L39 17L39 16L41 16L41 15L40 15L40 14L43 14L43 13L44 13L44 15L45 15L45 17L46 17L46 15L47 15L47 16L48 16L48 15L49 15L49 16L50 16L50 15L49 15L49 14L50 14L50 12L49 12L49 11L47 11L47 10L46 10L46 9ZM22 10L22 11L20 11L20 12L22 12L22 13L23 13L23 14L24 14L24 15L23 15L23 16L26 16L26 14L25 14L25 12L23 12L23 10ZM45 10L45 11L46 11L46 10ZM12 11L12 12L13 12L13 11ZM7 12L7 13L6 13L6 14L7 14L7 15L8 15L8 14L9 14L9 15L10 15L10 14L9 14L9 13L8 13L8 12ZM52 12L52 13L53 13L53 14L54 14L54 15L55 15L55 14L56 14L56 13L55 13L55 12L54 12L54 13L53 13L53 12ZM7 13L7 14L8 14L8 13ZM28 13L28 14L29 14L29 13ZM38 13L38 14L37 14L37 15L35 15L35 16L37 16L37 17L38 17L38 16L39 16L39 15L38 15L38 14L40 14L40 13ZM54 13L54 14L55 14L55 13ZM0 15L0 16L1 16L1 15ZM27 15L27 16L28 16L28 15ZM7 16L7 17L8 17L8 16ZM21 16L21 17L22 17L22 16ZM2 18L2 19L3 19L3 18ZM30 18L30 19L31 19L31 18ZM41 18L41 19L42 19L42 18ZM12 19L12 20L14 20L14 19ZM48 20L48 21L49 21L49 23L48 23L48 24L49 24L49 25L50 25L50 26L51 26L51 25L54 25L54 24L51 24L51 25L50 25L50 22L51 22L51 21L49 21L49 20ZM21 21L21 23L23 23L23 25L22 25L22 24L20 24L20 25L19 25L19 24L17 24L17 27L18 27L18 26L20 26L20 27L22 27L22 26L23 26L23 30L25 30L25 31L24 31L24 32L25 32L25 31L26 31L26 32L27 32L27 31L31 31L31 33L29 33L29 32L28 32L28 33L29 33L29 34L30 34L30 36L29 36L29 37L31 37L31 38L29 38L29 39L33 39L33 40L35 40L35 42L37 42L37 43L36 43L36 44L35 44L35 43L34 43L34 42L33 42L33 41L32 41L32 40L31 40L31 41L32 41L32 42L27 42L27 41L29 41L29 40L28 40L28 39L27 39L27 38L28 38L28 37L27 37L27 36L26 36L26 35L27 35L27 33L26 33L26 34L25 34L25 33L23 33L23 34L24 34L24 36L23 36L23 35L22 35L22 33L21 33L21 34L20 34L20 31L21 31L21 32L23 32L23 31L21 31L21 30L20 30L20 29L18 29L18 28L16 28L16 29L15 29L15 33L17 33L17 34L15 34L15 35L14 35L14 34L13 34L13 33L12 33L12 32L13 32L13 30L12 30L12 31L11 31L11 33L12 33L12 34L11 34L11 35L12 35L12 34L13 34L13 35L14 35L14 36L13 36L13 37L14 37L14 36L16 36L16 35L18 35L18 36L17 36L17 37L19 37L19 38L18 38L18 39L17 39L17 40L18 40L18 41L17 41L17 42L18 42L18 41L19 41L19 42L20 42L20 41L19 41L19 40L21 40L21 39L22 39L22 40L23 40L23 42L22 42L22 41L21 41L21 42L22 42L22 43L21 43L21 44L22 44L22 45L24 45L24 46L25 46L25 45L24 45L24 44L23 44L23 43L24 43L24 42L25 42L25 41L24 41L24 40L25 40L25 37L26 37L26 39L27 39L27 41L26 41L26 42L27 42L27 43L25 43L25 44L27 44L27 45L26 45L26 47L27 47L27 45L28 45L28 44L33 44L33 43L34 43L34 45L36 45L36 46L37 46L37 47L36 47L36 48L35 48L35 49L36 49L36 50L38 50L38 51L40 51L40 52L42 52L42 51L41 51L41 50L38 50L38 49L39 49L39 48L41 48L41 46L43 46L43 47L42 47L42 48L43 48L43 49L44 49L44 48L45 48L45 47L46 47L46 48L48 48L48 47L49 47L49 45L51 45L51 43L53 43L53 42L51 42L51 43L50 43L50 44L49 44L49 45L48 45L48 47L47 47L47 46L44 46L44 43L46 43L46 44L45 44L45 45L47 45L47 43L48 43L48 42L47 42L47 43L46 43L46 42L44 42L44 41L43 41L43 40L45 40L45 39L46 39L46 40L47 40L47 39L50 39L50 38L51 38L51 37L50 37L50 36L52 36L52 35L53 35L53 34L52 34L52 35L50 35L50 34L48 34L48 35L50 35L50 36L49 36L49 37L50 37L50 38L48 38L48 37L47 37L47 39L46 39L46 38L45 38L45 37L46 37L46 36L47 36L47 35L46 35L46 34L45 34L45 33L46 33L46 32L45 32L45 33L43 33L43 32L41 32L41 33L39 33L39 34L40 34L40 35L39 35L39 37L40 37L40 38L43 38L43 37L44 37L44 38L45 38L45 39L43 39L43 40L42 40L42 41L39 41L39 42L38 42L38 40L39 40L39 39L38 39L38 37L37 37L37 36L38 36L38 33L37 33L37 32L34 32L34 31L36 31L36 30L33 30L33 33L35 33L35 34L37 34L37 36L35 36L35 35L34 35L34 36L35 36L35 39L33 39L33 37L32 37L32 36L33 36L33 34L32 34L32 31L31 31L31 30L32 30L32 27L33 27L33 28L35 28L35 29L38 29L38 28L42 28L42 27L41 27L41 26L39 26L39 27L36 27L36 26L34 26L34 27L33 27L33 26L32 26L32 24L31 24L31 25L29 25L29 26L26 26L26 25L25 25L25 24L24 24L24 23L23 23L23 22L24 22L24 21L23 21L23 22L22 22L22 21ZM18 22L18 23L20 23L20 22ZM41 22L41 23L42 23L42 22ZM6 23L6 24L5 24L5 25L6 25L6 26L7 26L7 25L6 25L6 24L7 24L7 23ZM11 23L11 24L10 24L10 25L9 25L9 26L10 26L10 25L11 25L11 24L12 24L12 23ZM15 24L15 25L16 25L16 24ZM27 24L27 25L28 25L28 24ZM45 24L45 25L46 25L46 24ZM1 25L1 27L2 27L2 25ZM20 25L20 26L22 26L22 25ZM55 25L55 26L56 26L56 25ZM15 26L15 27L16 27L16 26ZM24 26L24 27L26 27L26 26ZM31 26L31 27L32 27L32 26ZM45 26L45 27L43 27L43 29L39 29L39 30L38 30L38 32L39 32L39 31L41 31L41 30L44 30L44 28L45 28L45 27L46 27L46 26ZM53 26L53 27L54 27L54 26ZM5 27L5 30L8 30L8 27ZM27 27L27 30L30 30L30 27ZM35 27L35 28L36 28L36 27ZM49 27L49 30L52 30L52 27ZM55 27L55 28L54 28L54 29L56 29L56 27ZM6 28L6 29L7 29L7 28ZM21 28L21 29L22 29L22 28ZM25 28L25 29L26 29L26 28ZM28 28L28 29L29 29L29 28ZM50 28L50 29L51 29L51 28ZM16 29L16 30L17 30L17 31L18 31L18 32L19 32L19 31L20 31L20 30L19 30L19 31L18 31L18 29ZM53 30L53 31L54 31L54 30ZM2 31L2 32L3 32L3 33L5 33L5 32L3 32L3 31ZM47 31L47 32L48 32L48 33L49 33L49 32L48 32L48 31ZM55 32L55 33L56 33L56 32ZM18 33L18 35L19 35L19 37L21 37L21 38L22 38L22 39L23 39L23 40L24 40L24 39L23 39L23 38L24 38L24 37L23 37L23 36L21 36L21 35L20 35L20 34L19 34L19 33ZM6 34L6 35L7 35L7 36L5 36L5 37L7 37L7 36L8 36L8 35L7 35L7 34ZM31 34L31 35L32 35L32 34ZM42 34L42 35L41 35L41 36L40 36L40 37L43 37L43 36L44 36L44 37L45 37L45 36L46 36L46 35L45 35L45 34ZM44 35L44 36L45 36L45 35ZM15 37L15 38L16 38L16 37ZM0 38L0 39L1 39L1 38ZM6 38L6 39L7 39L7 38ZM19 38L19 39L20 39L20 38ZM52 38L52 39L53 39L53 38ZM15 39L15 40L16 40L16 39ZM35 39L35 40L38 40L38 39ZM1 42L1 43L2 43L2 42ZM32 42L32 43L33 43L33 42ZM40 42L40 43L41 43L41 44L39 44L39 45L38 45L38 46L39 46L39 47L38 47L38 48L37 48L37 49L38 49L38 48L39 48L39 47L40 47L40 46L41 46L41 44L42 44L42 43L41 43L41 42ZM7 43L7 44L8 44L8 43ZM27 43L27 44L28 44L28 43ZM1 44L1 45L3 45L3 44ZM11 44L11 46L10 46L10 47L11 47L11 46L12 46L12 45L13 45L13 44ZM17 44L17 45L18 45L18 44ZM54 44L54 45L55 45L55 46L54 46L54 47L55 47L55 46L56 46L56 45L55 45L55 44ZM1 46L1 47L2 47L2 46ZM43 47L43 48L44 48L44 47ZM24 48L24 49L25 49L25 48ZM55 48L55 49L56 49L56 48ZM16 49L16 50L17 50L17 51L18 51L18 52L20 52L20 50L17 50L17 49ZM27 49L27 52L30 52L30 49ZM49 49L49 52L52 52L52 49ZM28 50L28 51L29 51L29 50ZM50 50L50 51L51 51L51 50ZM38 52L38 53L39 53L39 52ZM9 53L9 56L10 56L10 55L11 55L11 54L10 54L10 53ZM12 55L12 56L13 56L13 55ZM50 55L50 56L51 56L51 55ZM25 56L25 57L26 57L26 56ZM0 0L0 7L7 7L7 0ZM1 1L1 6L6 6L6 1ZM2 2L2 5L5 5L5 2ZM50 0L50 7L57 7L57 0ZM51 1L51 6L56 6L56 1ZM52 2L52 5L55 5L55 2ZM0 50L0 57L7 57L7 50ZM1 51L1 56L6 56L6 51ZM2 52L2 55L5 55L5 52Z" fill="#000000"/></g></g></svg>
