<?xml version="1.0" encoding="UTF-8"?>
<svg xmlns="http://www.w3.org/2000/svg" version="1.1" width="300" height="300" viewBox="0 0 300 300"><rect x="0" y="0" width="300" height="300" fill="#fefefe"/><g transform="scale(4.615)"><g transform="translate(4,4)"><path fill-rule="evenodd" d="M8 0L8 1L9 1L9 2L8 2L8 5L9 5L9 6L8 6L8 7L9 7L9 6L10 6L10 8L8 8L8 10L9 10L9 11L10 11L10 12L8 12L8 13L7 13L7 12L6 12L6 11L7 11L7 10L3 10L3 13L2 13L2 15L1 15L1 17L0 17L0 20L1 20L1 18L2 18L2 19L3 19L3 18L2 18L2 15L3 15L3 16L5 16L5 17L8 17L8 18L9 18L9 19L8 19L8 21L7 21L7 20L6 20L6 19L7 19L7 18L4 18L4 19L5 19L5 20L3 20L3 21L2 21L2 22L1 22L1 24L0 24L0 26L1 26L1 27L3 27L3 29L2 29L2 30L3 30L3 29L4 29L4 31L7 31L7 32L5 32L5 34L3 34L3 35L4 35L4 36L6 36L6 37L7 37L7 38L5 38L5 37L4 37L4 40L3 40L3 42L2 42L2 43L4 43L4 44L1 44L1 39L0 39L0 44L1 44L1 45L2 45L2 47L1 47L1 46L0 46L0 48L5 48L5 47L7 47L7 46L5 46L5 47L3 47L3 46L4 46L4 45L8 45L8 41L7 41L7 40L9 40L9 41L10 41L10 42L9 42L9 45L11 45L11 44L13 44L13 47L11 47L11 46L8 46L8 48L6 48L6 49L8 49L8 50L9 50L9 53L8 53L8 57L10 57L10 54L9 54L9 53L10 53L10 52L12 52L12 53L11 53L11 54L13 54L13 55L11 55L11 56L12 56L12 57L14 57L14 56L16 56L16 57L18 57L18 56L19 56L19 55L20 55L20 57L24 57L24 56L25 56L25 55L24 55L24 56L22 56L22 55L23 55L23 54L26 54L26 55L27 55L27 56L28 56L28 55L27 55L27 53L29 53L29 54L31 54L31 55L30 55L30 56L31 56L31 57L32 57L32 55L34 55L34 56L33 56L33 57L36 57L36 55L38 55L38 57L42 57L42 56L43 56L43 55L44 55L44 56L46 56L46 57L48 57L48 56L46 56L46 55L44 55L44 54L47 54L47 55L49 55L49 57L51 57L51 54L52 54L52 53L54 53L54 54L56 54L56 53L57 53L57 52L56 52L56 49L57 49L57 48L56 48L56 49L55 49L55 48L54 48L54 47L57 47L57 45L56 45L56 44L53 44L53 45L56 45L56 46L52 46L52 47L51 47L51 46L49 46L49 45L50 45L50 44L49 44L49 43L50 43L50 42L51 42L51 45L52 45L52 43L53 43L53 42L54 42L54 43L56 43L56 41L57 41L57 40L56 40L56 41L55 41L55 42L54 42L54 41L53 41L53 40L55 40L55 39L50 39L50 38L52 38L52 36L53 36L53 37L55 37L55 38L56 38L56 39L57 39L57 38L56 38L56 37L55 37L55 36L54 36L54 35L56 35L56 36L57 36L57 34L55 34L55 33L57 33L57 31L56 31L56 30L57 30L57 29L56 29L56 24L54 24L54 23L57 23L57 21L56 21L56 22L53 22L53 20L50 20L50 19L49 19L49 18L48 18L48 14L47 14L47 17L46 17L46 16L44 16L44 15L45 15L45 14L46 14L46 13L44 13L44 11L42 11L42 10L44 10L44 9L43 9L43 8L45 8L45 11L49 11L49 16L50 16L50 17L51 17L51 18L52 18L52 19L56 19L56 18L55 18L55 17L57 17L57 15L55 15L55 14L54 14L54 10L53 10L53 9L55 9L55 12L57 12L57 10L56 10L56 9L57 9L57 8L56 8L56 9L55 9L55 8L52 8L52 10L50 10L50 8L46 8L46 7L47 7L47 5L48 5L48 0L45 0L45 1L44 1L44 2L41 2L41 1L43 1L43 0L41 0L41 1L40 1L40 0L39 0L39 1L40 1L40 2L41 2L41 3L43 3L43 5L46 5L46 7L45 7L45 6L44 6L44 7L43 7L43 6L42 6L42 7L43 7L43 8L39 8L39 9L41 9L41 10L38 10L38 9L37 9L37 10L38 10L38 12L36 12L36 10L35 10L35 11L34 11L34 10L33 10L33 14L32 14L32 15L33 15L33 16L31 16L31 14L30 14L30 13L28 13L28 12L26 12L26 13L25 13L25 11L26 11L26 10L27 10L27 9L28 9L28 10L29 10L29 11L30 11L30 12L31 12L31 13L32 13L32 11L30 11L30 10L32 10L32 9L31 9L31 6L32 6L32 8L33 8L33 6L34 6L34 9L36 9L36 8L38 8L38 7L39 7L39 6L38 6L38 7L37 7L37 6L36 6L36 7L35 7L35 6L34 6L34 5L33 5L33 6L32 6L32 5L31 5L31 4L32 4L32 3L33 3L33 1L32 1L32 0L29 0L29 1L31 1L31 3L30 3L30 2L29 2L29 3L30 3L30 4L26 4L26 1L25 1L25 0L23 0L23 1L25 1L25 2L24 2L24 3L23 3L23 2L22 2L22 0L21 0L21 1L20 1L20 0L19 0L19 2L20 2L20 3L21 3L21 5L20 5L20 4L19 4L19 3L18 3L18 2L16 2L16 1L15 1L15 0L14 0L14 1L15 1L15 3L18 3L18 7L17 7L17 5L15 5L15 4L14 4L14 3L13 3L13 4L12 4L12 5L13 5L13 6L12 6L12 7L13 7L13 6L14 6L14 7L15 7L15 6L16 6L16 7L17 7L17 9L18 9L18 10L16 10L16 11L14 11L14 10L13 10L13 11L12 11L12 12L11 12L11 9L10 9L10 8L11 8L11 4L9 4L9 3L11 3L11 2L12 2L12 0L11 0L11 2L10 2L10 1L9 1L9 0ZM35 0L35 1L34 1L34 2L35 2L35 4L36 4L36 5L40 5L40 7L41 7L41 4L37 4L37 3L38 3L38 2L37 2L37 1L38 1L38 0L37 0L37 1L36 1L36 0ZM27 1L27 3L28 3L28 1ZM35 1L35 2L36 2L36 1ZM45 1L45 3L44 3L44 4L46 4L46 5L47 5L47 3L46 3L46 2L47 2L47 1ZM22 3L22 4L23 4L23 3ZM13 4L13 5L14 5L14 4ZM24 4L24 6L23 6L23 5L21 5L21 7L20 7L20 6L19 6L19 7L20 7L20 8L18 8L18 9L20 9L20 10L18 10L18 12L17 12L17 13L16 13L16 12L15 12L15 15L14 15L14 13L13 13L13 12L12 12L12 13L11 13L11 14L13 14L13 15L14 15L14 16L13 16L13 18L12 18L12 17L10 17L10 14L8 14L8 17L9 17L9 18L10 18L10 19L12 19L12 20L13 20L13 19L15 19L15 20L14 20L14 22L13 22L13 23L12 23L12 21L11 21L11 20L10 20L10 21L9 21L9 22L10 22L10 21L11 21L11 23L10 23L10 24L9 24L9 23L5 23L5 22L7 22L7 21L4 21L4 22L2 22L2 23L4 23L4 25L2 25L2 24L1 24L1 25L2 25L2 26L3 26L3 27L4 27L4 26L7 26L7 25L5 25L5 24L8 24L8 25L9 25L9 27L11 27L11 30L10 30L10 28L9 28L9 31L8 31L8 32L7 32L7 33L6 33L6 34L7 34L7 35L6 35L6 36L7 36L7 35L8 35L8 36L9 36L9 40L11 40L11 42L12 42L12 43L14 43L14 42L15 42L15 43L17 43L17 45L15 45L15 44L14 44L14 45L15 45L15 46L16 46L16 47L15 47L15 48L16 48L16 50L17 50L17 51L15 51L15 50L14 50L14 49L10 49L10 48L8 48L8 49L10 49L10 51L11 51L11 50L12 50L12 52L13 52L13 53L14 53L14 52L13 52L13 50L14 50L14 51L15 51L15 53L16 53L16 54L17 54L17 55L18 55L18 54L19 54L19 52L20 52L20 49L17 49L17 48L20 48L20 46L21 46L21 47L22 47L22 46L23 46L23 48L21 48L21 51L22 51L22 49L23 49L23 52L22 52L22 53L20 53L20 55L22 55L22 54L23 54L23 52L24 52L24 53L25 53L25 52L26 52L26 50L25 50L25 49L26 49L26 48L27 48L27 47L28 47L28 46L29 46L29 48L32 48L32 50L31 50L31 53L32 53L32 51L33 51L33 53L36 53L36 54L34 54L34 55L36 55L36 54L37 54L37 51L36 51L36 52L35 52L35 48L37 48L37 49L36 49L36 50L37 50L37 49L38 49L38 48L39 48L39 49L40 49L40 50L39 50L39 51L38 51L38 52L40 52L40 54L41 54L41 53L42 53L42 54L43 54L43 53L42 53L42 52L40 52L40 51L43 51L43 47L40 47L40 46L41 46L41 45L38 45L38 44L39 44L39 43L42 43L42 45L43 45L43 46L45 46L45 47L46 47L46 48L47 48L47 49L45 49L45 48L44 48L44 51L45 51L45 50L46 50L46 51L47 51L47 52L46 52L46 53L47 53L47 54L50 54L50 53L47 53L47 52L48 52L48 48L47 48L47 47L49 47L49 48L50 48L50 47L49 47L49 46L48 46L48 43L47 43L47 42L50 42L50 41L52 41L52 40L50 40L50 41L47 41L47 42L45 42L45 41L46 41L46 40L45 40L45 41L43 41L43 39L41 39L41 40L40 40L40 41L37 41L37 40L38 40L38 39L39 39L39 38L37 38L37 37L34 37L34 38L36 38L36 39L35 39L35 40L34 40L34 41L36 41L36 42L34 42L34 43L36 43L36 45L35 45L35 44L34 44L34 45L33 45L33 42L32 42L32 43L29 43L29 42L25 42L25 41L26 41L26 40L27 40L27 41L29 41L29 40L33 40L33 39L32 39L32 38L33 38L33 36L36 36L36 35L34 35L34 34L35 34L35 31L33 31L33 32L31 32L31 34L30 34L30 35L29 35L29 33L30 33L30 31L26 31L26 32L28 32L28 33L27 33L27 34L26 34L26 33L25 33L25 34L24 34L24 35L22 35L22 34L23 34L23 33L24 33L24 32L25 32L25 30L26 30L26 28L25 28L25 27L24 27L24 26L25 26L25 25L27 25L27 26L31 26L31 25L29 25L29 24L30 24L30 23L32 23L32 22L34 22L34 23L33 23L33 24L32 24L32 25L33 25L33 24L35 24L35 23L36 23L36 24L37 24L37 22L35 22L35 21L34 21L34 20L36 20L36 21L38 21L38 22L39 22L39 20L40 20L40 19L39 19L39 18L41 18L41 21L44 21L44 22L47 22L47 23L48 23L48 22L47 22L47 21L49 21L49 24L48 24L48 26L47 26L47 24L46 24L46 23L43 23L43 24L44 24L44 25L41 25L41 24L42 24L42 23L38 23L38 24L39 24L39 26L38 26L38 27L39 27L39 26L45 26L45 25L46 25L46 26L47 26L47 33L45 33L45 30L46 30L46 27L45 27L45 30L44 30L44 33L45 33L45 36L44 36L44 37L43 37L43 35L44 35L44 34L43 34L43 35L42 35L42 34L41 34L41 35L37 35L37 36L40 36L40 37L41 37L41 38L44 38L44 39L45 39L45 36L47 36L47 37L46 37L46 38L48 38L48 39L47 39L47 40L49 40L49 38L48 38L48 35L49 35L49 34L50 34L50 33L49 33L49 32L48 32L48 26L49 26L49 24L51 24L51 26L52 26L52 25L53 25L53 27L55 27L55 25L54 25L54 24L51 24L51 23L52 23L52 22L51 22L51 21L50 21L50 20L49 20L49 19L48 19L48 18L47 18L47 20L46 20L46 19L44 19L44 18L45 18L45 17L42 17L42 14L43 14L43 15L44 15L44 13L43 13L43 12L42 12L42 11L40 11L40 14L39 14L39 15L37 15L37 13L36 13L36 15L35 15L35 12L34 12L34 14L33 14L33 15L35 15L35 16L34 16L34 17L35 17L35 19L34 19L34 20L33 20L33 18L31 18L31 16L29 16L29 15L28 15L28 16L29 16L29 17L26 17L26 16L27 16L27 15L26 15L26 14L25 14L25 13L22 13L22 12L24 12L24 11L21 11L21 8L22 8L22 6L23 6L23 7L24 7L24 8L23 8L23 9L22 9L22 10L23 10L23 9L24 9L24 8L25 8L25 9L26 9L26 6L25 6L25 5L26 5L26 4ZM27 5L27 8L30 8L30 5ZM24 6L24 7L25 7L25 6ZM28 6L28 7L29 7L29 6ZM48 6L48 7L49 7L49 6ZM0 8L0 10L1 10L1 11L2 11L2 9L4 9L4 8ZM6 8L6 9L7 9L7 8ZM46 9L46 10L48 10L48 9ZM52 10L52 11L51 11L51 12L50 12L50 13L51 13L51 15L50 15L50 16L52 16L52 17L53 17L53 18L54 18L54 17L53 17L53 15L54 15L54 14L52 14L52 13L53 13L53 10ZM19 11L19 12L18 12L18 13L19 13L19 14L16 14L16 15L15 15L15 16L14 16L14 18L15 18L15 19L16 19L16 23L15 23L15 22L14 22L14 24L15 24L15 26L16 26L16 27L21 27L21 24L20 24L20 23L21 23L21 22L22 22L22 23L23 23L23 25L22 25L22 27L23 27L23 25L25 25L25 22L27 22L27 23L26 23L26 24L28 24L28 21L29 21L29 22L31 22L31 20L32 20L32 19L31 19L31 20L30 20L30 21L29 21L29 20L28 20L28 19L30 19L30 17L29 17L29 18L28 18L28 19L27 19L27 18L26 18L26 17L25 17L25 16L26 16L26 15L24 15L24 14L23 14L23 18L24 18L24 19L25 19L25 22L24 22L24 21L23 21L23 20L22 20L22 17L21 17L21 16L20 16L20 15L19 15L19 14L21 14L21 13L20 13L20 12L21 12L21 11ZM0 12L0 14L1 14L1 12ZM5 12L5 13L3 13L3 15L4 15L4 14L7 14L7 13L6 13L6 12ZM51 12L51 13L52 13L52 12ZM40 14L40 15L39 15L39 17L40 17L40 16L41 16L41 14ZM6 15L6 16L7 16L7 15ZM11 15L11 16L12 16L12 15ZM16 15L16 17L19 17L19 18L20 18L20 19L21 19L21 17L20 17L20 16L17 16L17 15ZM24 17L24 18L25 18L25 17ZM36 17L36 18L37 18L37 17ZM41 17L41 18L42 18L42 19L43 19L43 18L42 18L42 17ZM17 18L17 19L18 19L18 18ZM36 19L36 20L37 20L37 19ZM18 20L18 21L19 21L19 22L17 22L17 23L16 23L16 26L17 26L17 24L19 24L19 25L18 25L18 26L19 26L19 25L20 25L20 24L19 24L19 22L21 22L21 20ZM26 20L26 21L27 21L27 20ZM45 20L45 21L46 21L46 20ZM54 20L54 21L55 21L55 20ZM22 21L22 22L23 22L23 21ZM10 24L10 25L11 25L11 27L12 27L12 28L13 28L13 26L12 26L12 24ZM34 25L34 27L35 27L35 25ZM5 27L5 30L8 30L8 27ZM27 27L27 30L30 30L30 27ZM31 27L31 28L33 28L33 27ZM40 27L40 29L38 29L38 30L37 30L37 28L34 28L34 29L36 29L36 31L37 31L37 32L36 32L36 33L37 33L37 32L38 32L38 34L39 34L39 31L38 31L38 30L41 30L41 31L40 31L40 32L41 32L41 31L43 31L43 29L42 29L42 30L41 30L41 27ZM42 27L42 28L44 28L44 27ZM49 27L49 30L52 30L52 27ZM6 28L6 29L7 29L7 28ZM14 28L14 29L12 29L12 31L13 31L13 30L14 30L14 29L16 29L16 30L15 30L15 31L14 31L14 32L13 32L13 34L12 34L12 33L11 33L11 31L9 31L9 32L10 32L10 33L8 33L8 35L9 35L9 34L10 34L10 33L11 33L11 36L10 36L10 37L12 37L12 38L10 38L10 39L12 39L12 40L13 40L13 39L15 39L15 40L16 40L16 39L17 39L17 41L15 41L15 42L18 42L18 43L19 43L19 41L18 41L18 40L20 40L20 41L22 41L22 44L21 44L21 46L22 46L22 44L23 44L23 46L24 46L24 47L25 47L25 45L26 45L26 46L28 46L28 44L29 44L29 43L27 43L27 45L26 45L26 43L25 43L25 44L24 44L24 43L23 43L23 42L24 42L24 41L25 41L25 39L24 39L24 37L25 37L25 36L23 36L23 37L22 37L22 38L23 38L23 39L24 39L24 40L23 40L23 41L22 41L22 40L21 40L21 38L20 38L20 37L19 37L19 36L18 36L18 33L17 33L17 32L18 32L18 31L19 31L19 32L20 32L20 33L19 33L19 35L21 35L21 34L22 34L22 33L23 33L23 32L24 32L24 31L22 31L22 32L21 32L21 30L24 30L24 29L21 29L21 28L20 28L20 29L21 29L21 30L20 30L20 31L19 31L19 30L18 30L18 31L17 31L17 32L16 32L16 30L17 30L17 28ZM18 28L18 29L19 29L19 28ZM28 28L28 29L29 29L29 28ZM50 28L50 29L51 29L51 28ZM53 28L53 32L52 32L52 31L50 31L50 32L52 32L52 34L54 34L54 32L55 32L55 30L56 30L56 29L54 29L54 28ZM31 29L31 31L32 31L32 29ZM0 30L0 31L1 31L1 30ZM2 31L2 32L1 32L1 33L2 33L2 32L3 32L3 31ZM14 32L14 34L13 34L13 35L12 35L12 37L13 37L13 38L12 38L12 39L13 39L13 38L14 38L14 37L13 37L13 35L14 35L14 36L15 36L15 38L17 38L17 39L19 39L19 38L18 38L18 37L17 37L17 36L15 36L15 35L16 35L16 34L17 34L17 33L15 33L15 32ZM42 32L42 33L43 33L43 32ZM20 33L20 34L21 34L21 33ZM32 33L32 34L31 34L31 35L32 35L32 36L29 36L29 35L28 35L28 34L27 34L27 36L26 36L26 37L27 37L27 36L29 36L29 38L26 38L26 39L27 39L27 40L28 40L28 39L30 39L30 38L32 38L32 36L33 36L33 33ZM0 34L0 36L1 36L1 38L2 38L2 39L3 39L3 36L2 36L2 35L1 35L1 34ZM14 34L14 35L15 35L15 34ZM25 34L25 35L26 35L26 34ZM47 34L47 35L48 35L48 34ZM41 35L41 37L42 37L42 35ZM51 35L51 36L52 36L52 35ZM49 36L49 37L50 37L50 36ZM6 39L6 40L7 40L7 39ZM4 40L4 41L5 41L5 42L4 42L4 43L5 43L5 44L7 44L7 43L5 43L5 42L7 42L7 41L5 41L5 40ZM41 40L41 41L40 41L40 42L42 42L42 43L43 43L43 44L47 44L47 43L44 43L44 42L42 42L42 40ZM30 41L30 42L31 42L31 41ZM20 42L20 43L21 43L21 42ZM37 42L37 44L38 44L38 43L39 43L39 42ZM10 43L10 44L11 44L11 43ZM19 44L19 45L17 45L17 47L16 47L16 48L17 48L17 47L18 47L18 46L20 46L20 44ZM30 44L30 46L31 46L31 47L32 47L32 48L33 48L33 50L34 50L34 47L35 47L35 46L34 46L34 47L32 47L32 46L33 46L33 45L32 45L32 46L31 46L31 44ZM36 45L36 46L37 46L37 47L38 47L38 45ZM46 46L46 47L47 47L47 46ZM13 47L13 48L14 48L14 47ZM23 48L23 49L24 49L24 48ZM41 48L41 49L42 49L42 48ZM27 49L27 52L30 52L30 49ZM49 49L49 52L52 52L52 49ZM53 49L53 50L55 50L55 49ZM18 50L18 51L17 51L17 52L19 52L19 50ZM24 50L24 51L25 51L25 50ZM28 50L28 51L29 51L29 50ZM50 50L50 51L51 51L51 50ZM54 52L54 53L56 53L56 52ZM17 53L17 54L18 54L18 53ZM38 53L38 54L39 54L39 53ZM39 55L39 56L42 56L42 55ZM56 55L56 56L57 56L57 55ZM52 56L52 57L53 57L53 56ZM54 56L54 57L55 57L55 56ZM0 0L0 7L7 7L7 0ZM1 1L1 6L6 6L6 1ZM2 2L2 5L5 5L5 2ZM50 0L50 7L57 7L57 0ZM51 1L51 6L56 6L56 1ZM52 2L52 5L55 5L55 2ZM0 50L0 57L7 57L7 50ZM1 51L1 56L6 56L6 51ZM2 52L2 55L5 55L5 52Z" fill="#000000"/></g></g></svg>
