<?xml version="1.0" encoding="UTF-8"?>
<svg xmlns="http://www.w3.org/2000/svg" version="1.1" width="300" height="300" viewBox="0 0 300 300"><rect x="0" y="0" width="300" height="300" fill="#fefefe"/><g transform="scale(4.615)"><g transform="translate(4,4)"><path fill-rule="evenodd" d="M10 0L10 1L8 1L8 2L9 2L9 3L8 3L8 4L10 4L10 7L9 7L9 5L8 5L8 7L9 7L9 8L6 8L6 9L5 9L5 8L0 8L0 10L1 10L1 11L0 11L0 18L1 18L1 17L3 17L3 18L4 18L4 14L2 14L2 15L3 15L3 16L1 16L1 13L3 13L3 12L4 12L4 13L5 13L5 16L6 16L6 17L5 17L5 18L6 18L6 19L4 19L4 21L3 21L3 19L2 19L2 20L1 20L1 22L2 22L2 23L3 23L3 24L2 24L2 26L1 26L1 27L2 27L2 26L3 26L3 27L4 27L4 28L3 28L3 32L1 32L1 31L2 31L2 28L1 28L1 31L0 31L0 34L1 34L1 35L0 35L0 37L1 37L1 38L0 38L0 40L1 40L1 41L0 41L0 43L2 43L2 47L1 47L1 46L0 46L0 48L5 48L5 47L7 47L7 46L6 46L6 45L7 45L7 44L8 44L8 46L10 46L10 45L11 45L11 46L12 46L12 47L13 47L13 48L14 48L14 49L11 49L11 48L10 48L10 47L9 47L9 48L10 48L10 51L11 51L11 50L12 50L12 52L8 52L8 57L10 57L10 56L9 56L9 54L10 54L10 55L11 55L11 57L15 57L15 55L16 55L16 56L17 56L17 57L19 57L19 55L20 55L20 54L19 54L19 53L20 53L20 52L21 52L21 50L26 50L26 52L24 52L24 53L21 53L21 56L20 56L20 57L21 57L21 56L23 56L23 57L26 57L26 56L24 56L24 55L23 55L23 54L24 54L24 53L27 53L27 54L30 54L30 53L31 53L31 49L32 49L32 48L31 48L31 45L32 45L32 46L33 46L33 47L35 47L35 46L33 46L33 45L32 45L32 44L33 44L33 43L34 43L34 45L37 45L37 46L36 46L36 48L33 48L33 49L36 49L36 50L32 50L32 52L33 52L33 53L32 53L32 54L31 54L31 56L30 56L30 55L29 55L29 56L27 56L27 57L29 57L29 56L30 56L30 57L31 57L31 56L35 56L35 57L39 57L39 56L37 56L37 55L43 55L43 56L41 56L41 57L44 57L44 54L45 54L45 55L46 55L46 54L45 54L45 53L47 53L47 56L46 56L46 57L47 57L47 56L48 56L48 55L49 55L49 56L50 56L50 57L52 57L52 55L51 55L51 53L52 53L52 54L53 54L53 57L54 57L54 56L55 56L55 57L56 57L56 56L55 56L55 55L54 55L54 54L55 54L55 51L56 51L56 53L57 53L57 51L56 51L56 50L57 50L57 48L56 48L56 46L57 46L57 43L56 43L56 41L53 41L53 40L55 40L55 39L57 39L57 35L56 35L56 33L57 33L57 32L56 32L56 30L57 30L57 29L56 29L56 27L55 27L55 26L57 26L57 25L56 25L56 22L57 22L57 21L56 21L56 20L57 20L57 19L56 19L56 18L51 18L51 19L50 19L50 17L51 17L51 15L52 15L52 16L53 16L53 17L56 17L56 16L57 16L57 15L56 15L56 14L57 14L57 13L56 13L56 12L55 12L55 11L56 11L56 8L55 8L55 10L54 10L54 11L52 11L52 10L53 10L53 9L54 9L54 8L53 8L53 9L52 9L52 8L51 8L51 9L52 9L52 10L49 10L49 9L50 9L50 8L48 8L48 9L47 9L47 5L48 5L48 0L46 0L46 1L45 1L45 2L44 2L44 3L41 3L41 2L43 2L43 0L41 0L41 1L40 1L40 0L39 0L39 1L38 1L38 0L37 0L37 1L38 1L38 4L37 4L37 3L36 3L36 0L35 0L35 1L33 1L33 0L29 0L29 2L27 2L27 1L25 1L25 0L23 0L23 1L22 1L22 0L21 0L21 1L20 1L20 0L17 0L17 1L16 1L16 2L17 2L17 1L18 1L18 2L22 2L22 3L21 3L21 4L19 4L19 3L18 3L18 4L17 4L17 6L16 6L16 7L15 7L15 5L16 5L16 4L15 4L15 5L12 5L12 4L14 4L14 2L15 2L15 1L14 1L14 0L12 0L12 1L11 1L11 0ZM12 1L12 2L11 2L11 4L12 4L12 2L14 2L14 1ZM31 1L31 3L32 3L32 4L31 4L31 8L32 8L32 10L29 10L29 12L28 12L28 13L27 13L27 15L26 15L26 14L25 14L25 15L26 15L26 16L24 16L24 15L21 15L21 13L22 13L22 14L23 14L23 13L26 13L26 12L27 12L27 11L26 11L26 12L25 12L25 10L23 10L23 9L25 9L25 8L26 8L26 4L30 4L30 3L27 3L27 2L23 2L23 3L22 3L22 4L21 4L21 5L22 5L22 4L23 4L23 5L24 5L24 4L23 4L23 3L26 3L26 4L25 4L25 8L24 8L24 6L23 6L23 8L19 8L19 7L20 7L20 5L19 5L19 4L18 4L18 6L17 6L17 7L16 7L16 8L19 8L19 9L20 9L20 10L19 10L19 12L20 12L20 14L19 14L19 15L17 15L17 13L18 13L18 12L17 12L17 13L16 13L16 11L15 11L15 13L11 13L11 12L12 12L12 10L13 10L13 8L12 8L12 5L11 5L11 8L10 8L10 10L8 10L8 11L9 11L9 13L11 13L11 14L13 14L13 15L12 15L12 16L13 16L13 15L14 15L14 17L11 17L11 19L9 19L9 21L8 21L8 19L6 19L6 20L5 20L5 21L4 21L4 22L5 22L5 21L6 21L6 22L7 22L7 23L4 23L4 25L3 25L3 26L4 26L4 25L5 25L5 26L9 26L9 27L13 27L13 30L14 30L14 31L15 31L15 32L14 32L14 33L15 33L15 34L14 34L14 35L11 35L11 34L12 34L12 33L13 33L13 32L12 32L12 33L11 33L11 34L10 34L10 32L9 32L9 31L12 31L12 30L9 30L9 31L6 31L6 32L8 32L8 33L6 33L6 34L4 34L4 35L3 35L3 36L2 36L2 35L1 35L1 36L2 36L2 38L1 38L1 39L2 39L2 40L3 40L3 39L2 39L2 38L4 38L4 41L1 41L1 42L3 42L3 45L4 45L4 43L5 43L5 42L4 42L4 41L6 41L6 42L7 42L7 43L6 43L6 44L5 44L5 45L6 45L6 44L7 44L7 43L9 43L9 44L11 44L11 43L10 43L10 42L9 42L9 40L10 40L10 39L11 39L11 38L12 38L12 37L14 37L14 38L13 38L13 39L12 39L12 40L13 40L13 41L11 41L11 42L12 42L12 46L13 46L13 45L14 45L14 44L13 44L13 41L15 41L15 42L17 42L17 43L18 43L18 42L19 42L19 45L20 45L20 47L21 47L21 48L19 48L19 46L17 46L17 45L18 45L18 44L15 44L15 46L14 46L14 48L15 48L15 47L16 47L16 49L15 49L15 50L13 50L13 51L15 51L15 52L14 52L14 53L15 53L15 54L12 54L12 53L11 53L11 54L12 54L12 55L13 55L13 56L14 56L14 55L15 55L15 54L16 54L16 53L17 53L17 52L16 52L16 51L15 51L15 50L17 50L17 51L18 51L18 52L20 52L20 50L21 50L21 49L23 49L23 47L21 47L21 45L22 45L22 46L23 46L23 45L22 45L22 44L20 44L20 42L21 42L21 43L22 43L22 42L23 42L23 44L24 44L24 45L25 45L25 47L24 47L24 49L26 49L26 48L27 48L27 47L28 47L28 48L30 48L30 47L28 47L28 46L30 46L30 44L28 44L28 43L29 43L29 41L30 41L30 40L32 40L32 41L31 41L31 42L32 42L32 43L31 43L31 44L32 44L32 43L33 43L33 42L34 42L34 43L35 43L35 44L36 44L36 43L37 43L37 42L35 42L35 40L38 40L38 42L39 42L39 45L38 45L38 46L39 46L39 45L41 45L41 44L42 44L42 43L41 43L41 41L42 41L42 39L45 39L45 40L44 40L44 43L43 43L43 44L44 44L44 45L43 45L43 46L41 46L41 48L39 48L39 47L38 47L38 48L37 48L37 49L38 49L38 50L36 50L36 52L38 52L38 53L37 53L37 54L40 54L40 53L43 53L43 54L44 54L44 53L45 53L45 52L46 52L46 51L47 51L47 53L48 53L48 50L47 50L47 49L48 49L48 48L49 48L49 47L51 47L51 46L52 46L52 47L55 47L55 46L56 46L56 43L55 43L55 44L54 44L54 46L53 46L53 45L52 45L52 44L53 44L53 43L54 43L54 42L53 42L53 41L51 41L51 42L50 42L50 43L49 43L49 42L48 42L48 41L49 41L49 40L50 40L50 39L51 39L51 38L52 38L52 39L54 39L54 38L53 38L53 35L55 35L55 36L56 36L56 35L55 35L55 34L54 34L54 33L56 33L56 32L53 32L53 31L48 31L48 29L46 29L46 30L47 30L47 31L45 31L45 32L43 32L43 30L40 30L40 29L44 29L44 30L45 30L45 28L46 28L46 27L48 27L48 26L47 26L47 24L50 24L50 26L53 26L53 27L54 27L54 26L53 26L53 25L54 25L54 24L53 24L53 23L55 23L55 22L56 22L56 21L55 21L55 20L56 20L56 19L55 19L55 20L53 20L53 19L52 19L52 20L51 20L51 21L49 21L49 20L48 20L48 21L49 21L49 23L47 23L47 24L45 24L45 23L46 23L46 22L47 22L47 20L44 20L44 18L45 18L45 19L46 19L46 18L47 18L47 19L48 19L48 18L47 18L47 17L50 17L50 14L51 14L51 12L50 12L50 11L49 11L49 10L48 10L48 11L49 11L49 12L45 12L45 11L46 11L46 10L47 10L47 9L46 9L46 8L45 8L45 7L46 7L46 5L47 5L47 3L44 3L44 6L43 6L43 5L40 5L40 4L41 4L41 3L39 3L39 4L38 4L38 5L37 5L37 4L36 4L36 5L35 5L35 3L32 3L32 2L33 2L33 1ZM46 1L46 2L47 2L47 1ZM32 4L32 5L34 5L34 7L33 7L33 6L32 6L32 7L33 7L33 9L34 9L34 8L35 8L35 9L37 9L37 10L36 10L36 11L35 11L35 14L33 14L33 13L34 13L34 12L33 12L33 13L32 13L32 12L31 12L31 13L30 13L30 14L29 14L29 13L28 13L28 14L29 14L29 16L28 16L28 15L27 15L27 16L28 16L28 17L27 17L27 18L28 18L28 19L27 19L27 20L28 20L28 19L30 19L30 20L29 20L29 21L25 21L25 20L26 20L26 18L25 18L25 17L22 17L22 16L21 16L21 17L22 17L22 18L24 18L24 19L23 19L23 20L24 20L24 21L23 21L23 22L24 22L24 21L25 21L25 22L26 22L26 23L25 23L25 24L24 24L24 23L21 23L21 24L20 24L20 25L19 25L19 24L18 24L18 23L20 23L20 22L17 22L17 21L20 21L20 20L17 20L17 21L16 21L16 20L15 20L15 21L16 21L16 22L14 22L14 21L13 21L13 20L14 20L14 19L13 19L13 20L12 20L12 19L11 19L11 20L10 20L10 21L11 21L11 22L10 22L10 23L11 23L11 22L12 22L12 24L8 24L8 23L7 23L7 24L6 24L6 25L9 25L9 26L10 26L10 25L12 25L12 24L13 24L13 27L14 27L14 29L15 29L15 31L16 31L16 29L18 29L18 30L17 30L17 31L18 31L18 32L17 32L17 35L18 35L18 36L17 36L17 37L19 37L19 38L17 38L17 39L19 39L19 40L17 40L17 41L19 41L19 42L20 42L20 40L21 40L21 39L24 39L24 40L25 40L25 37L26 37L26 39L27 39L27 41L26 41L26 42L27 42L27 41L29 41L29 40L28 40L28 39L27 39L27 38L28 38L28 37L27 37L27 36L26 36L26 35L27 35L27 34L25 34L25 33L27 33L27 31L29 31L29 32L28 32L28 33L29 33L29 34L30 34L30 36L29 36L29 37L31 37L31 38L29 38L29 39L33 39L33 40L35 40L35 39L38 39L38 40L41 40L41 39L42 39L42 38L43 38L43 37L44 37L44 38L45 38L45 39L46 39L46 40L45 40L45 41L47 41L47 39L48 39L48 38L49 38L49 39L50 39L50 38L51 38L51 37L50 37L50 38L49 38L49 36L48 36L48 37L47 37L47 39L46 39L46 38L45 38L45 37L46 37L46 36L45 36L45 35L47 35L47 34L45 34L45 35L44 35L44 33L43 33L43 32L41 32L41 33L39 33L39 34L40 34L40 35L39 35L39 37L40 37L40 38L41 38L41 39L38 39L38 37L37 37L37 36L38 36L38 33L37 33L37 32L35 32L35 34L37 34L37 36L35 36L35 35L34 35L34 34L33 34L33 33L34 33L34 32L33 32L33 33L32 33L32 32L31 32L31 33L29 33L29 32L30 32L30 31L31 31L31 30L32 30L32 31L36 31L36 30L37 30L37 29L38 29L38 28L39 28L39 27L41 27L41 28L42 28L42 26L43 26L43 28L45 28L45 27L46 27L46 26L45 26L45 25L44 25L44 24L42 24L42 23L44 23L44 20L43 20L43 21L39 21L39 20L41 20L41 18L42 18L42 19L43 19L43 18L44 18L44 15L42 15L42 16L41 16L41 15L39 15L39 14L45 14L45 15L46 15L46 16L45 16L45 17L47 17L47 16L48 16L48 15L49 15L49 14L50 14L50 12L49 12L49 13L47 13L47 14L45 14L45 13L44 13L44 11L45 11L45 9L44 9L44 7L45 7L45 6L44 6L44 7L43 7L43 6L42 6L42 7L41 7L41 6L40 6L40 5L39 5L39 6L38 6L38 7L37 7L37 5L36 5L36 7L37 7L37 8L35 8L35 5L34 5L34 4ZM45 4L45 5L46 5L46 4ZM27 5L27 8L30 8L30 5ZM13 6L13 7L14 7L14 10L17 10L17 11L18 11L18 10L17 10L17 9L15 9L15 7L14 7L14 6ZM18 6L18 7L19 7L19 6ZM21 6L21 7L22 7L22 6ZM28 6L28 7L29 7L29 6ZM39 6L39 7L40 7L40 8L39 8L39 9L38 9L38 11L39 11L39 9L41 9L41 7L40 7L40 6ZM48 6L48 7L49 7L49 6ZM11 8L11 10L12 10L12 8ZM42 8L42 9L43 9L43 10L44 10L44 9L43 9L43 8ZM6 9L6 10L7 10L7 9ZM2 10L2 11L1 11L1 12L2 12L2 11L3 11L3 10ZM4 10L4 11L5 11L5 10ZM22 10L22 11L20 11L20 12L22 12L22 13L23 13L23 12L24 12L24 11L23 11L23 10ZM32 10L32 11L33 11L33 10ZM40 10L40 11L41 11L41 12L39 12L39 13L38 13L38 14L36 14L36 15L35 15L35 16L31 16L31 18L30 18L30 19L31 19L31 18L33 18L33 19L34 19L34 21L33 21L33 20L32 20L32 21L31 21L31 22L30 22L30 21L29 21L29 22L30 22L30 23L27 23L27 24L25 24L25 25L26 25L26 26L25 26L25 27L23 27L23 26L22 26L22 27L21 27L21 28L20 28L20 26L21 26L21 25L24 25L24 24L21 24L21 25L20 25L20 26L18 26L18 25L17 25L17 24L16 24L16 23L13 23L13 24L14 24L14 27L15 27L15 29L16 29L16 28L18 28L18 29L20 29L20 30L18 30L18 31L19 31L19 32L20 32L20 30L21 30L21 31L23 31L23 32L21 32L21 33L20 33L20 34L19 34L19 33L18 33L18 35L19 35L19 37L21 37L21 38L24 38L24 37L23 37L23 36L24 36L24 34L23 34L23 33L25 33L25 30L23 30L23 28L25 28L25 29L26 29L26 28L25 28L25 27L26 27L26 26L28 26L28 25L29 25L29 26L30 26L30 25L31 25L31 24L32 24L32 26L31 26L31 28L32 28L32 30L35 30L35 28L37 28L37 27L39 27L39 26L40 26L40 25L41 25L41 26L42 26L42 25L41 25L41 24L40 24L40 22L39 22L39 21L38 21L38 20L37 20L37 19L39 19L39 17L41 17L41 16L39 16L39 15L38 15L38 14L39 14L39 13L43 13L43 11L42 11L42 10ZM6 11L6 12L7 12L7 11ZM10 11L10 12L11 12L11 11ZM13 11L13 12L14 12L14 11ZM52 12L52 13L53 13L53 12ZM54 12L54 13L55 13L55 14L53 14L53 15L55 15L55 14L56 14L56 13L55 13L55 12ZM6 13L6 14L7 14L7 15L6 15L6 16L7 16L7 17L6 17L6 18L9 18L9 17L8 17L8 16L11 16L11 15L8 15L8 14L7 14L7 13ZM15 13L15 14L14 14L14 15L15 15L15 17L14 17L14 18L15 18L15 19L17 19L17 18L15 18L15 17L16 17L16 13ZM30 14L30 15L31 15L31 14ZM7 15L7 16L8 16L8 15ZM19 15L19 16L17 16L17 17L19 17L19 18L18 18L18 19L19 19L19 18L20 18L20 15ZM35 16L35 17L37 17L37 18L38 18L38 17L39 17L39 16L38 16L38 17L37 17L37 16ZM42 16L42 17L43 17L43 16ZM35 19L35 23L32 23L32 24L33 24L33 25L37 25L37 26L38 26L38 25L40 25L40 24L37 24L37 23L38 23L38 21L37 21L37 20L36 20L36 19ZM6 20L6 21L7 21L7 20ZM21 21L21 22L22 22L22 21ZM45 21L45 22L46 22L46 21ZM51 21L51 22L50 22L50 23L53 23L53 21ZM41 22L41 23L42 23L42 22ZM0 23L0 25L1 25L1 23ZM30 23L30 24L29 24L29 25L30 25L30 24L31 24L31 23ZM15 24L15 25L16 25L16 24ZM15 26L15 27L16 27L16 26ZM17 26L17 27L18 27L18 26ZM32 26L32 27L33 27L33 28L35 28L35 27L36 27L36 26L34 26L34 27L33 27L33 26ZM44 26L44 27L45 27L45 26ZM5 27L5 30L8 30L8 27ZM27 27L27 30L30 30L30 27ZM49 27L49 30L52 30L52 27ZM6 28L6 29L7 29L7 28ZM9 28L9 29L12 29L12 28ZM21 28L21 29L22 29L22 28ZM28 28L28 29L29 29L29 28ZM50 28L50 29L51 29L51 28ZM54 28L54 29L53 29L53 30L54 30L54 31L55 31L55 30L54 30L54 29L55 29L55 28ZM38 30L38 32L39 32L39 30ZM4 31L4 32L3 32L3 33L1 33L1 34L3 34L3 33L4 33L4 32L5 32L5 31ZM47 31L47 32L48 32L48 33L49 33L49 32L48 32L48 31ZM15 32L15 33L16 33L16 32ZM50 32L50 34L49 34L49 35L50 35L50 36L52 36L52 35L53 35L53 34L52 34L52 33L53 33L53 32L52 32L52 33L51 33L51 32ZM21 33L21 34L20 34L20 35L21 35L21 36L23 36L23 34L22 34L22 33ZM6 34L6 35L5 35L5 36L3 36L3 37L4 37L4 38L6 38L6 39L7 39L7 38L8 38L8 40L9 40L9 39L10 39L10 38L9 38L9 37L8 37L8 34ZM15 34L15 35L14 35L14 37L15 37L15 38L16 38L16 37L15 37L15 35L16 35L16 34ZM42 34L42 35L41 35L41 36L40 36L40 37L41 37L41 38L42 38L42 37L41 37L41 36L44 36L44 37L45 37L45 36L44 36L44 35L43 35L43 34ZM50 34L50 35L52 35L52 34ZM6 35L6 36L5 36L5 37L6 37L6 38L7 38L7 37L6 37L6 36L7 36L7 35ZM10 35L10 37L11 37L11 35ZM32 36L32 37L33 37L33 39L35 39L35 37L33 37L33 36ZM19 38L19 39L20 39L20 38ZM15 39L15 40L16 40L16 39ZM6 40L6 41L7 41L7 42L8 42L8 41L7 41L7 40ZM23 41L23 42L25 42L25 41ZM32 41L32 42L33 42L33 41ZM39 41L39 42L40 42L40 41ZM47 42L47 43L46 43L46 44L45 44L45 45L47 45L47 46L45 46L45 48L46 48L46 49L47 49L47 48L48 48L48 47L49 47L49 45L47 45L47 43L48 43L48 42ZM51 42L51 43L50 43L50 46L51 46L51 43L53 43L53 42ZM25 43L25 44L27 44L27 45L26 45L26 47L25 47L25 48L26 48L26 47L27 47L27 45L28 45L28 44L27 44L27 43ZM0 44L0 45L1 45L1 44ZM3 46L3 47L5 47L5 46ZM43 46L43 47L42 47L42 48L41 48L41 50L38 50L38 52L39 52L39 51L40 51L40 52L41 52L41 50L42 50L42 52L43 52L43 53L44 53L44 52L45 52L45 51L44 51L44 48L43 48L43 47L44 47L44 46ZM47 46L47 47L46 47L46 48L47 48L47 47L48 47L48 46ZM6 48L6 49L7 49L7 48ZM17 48L17 49L18 49L18 50L20 50L20 49L19 49L19 48ZM38 48L38 49L39 49L39 48ZM42 48L42 49L43 49L43 48ZM53 48L53 49L55 49L55 50L54 50L54 51L55 51L55 50L56 50L56 48ZM8 49L8 51L9 51L9 49ZM27 49L27 52L30 52L30 49ZM49 49L49 52L52 52L52 49ZM28 50L28 51L29 51L29 50ZM50 50L50 51L51 51L51 50ZM33 51L33 52L34 52L34 53L33 53L33 55L35 55L35 56L36 56L36 54L35 54L35 51ZM15 52L15 53L16 53L16 52ZM53 52L53 53L54 53L54 52ZM17 54L17 55L19 55L19 54ZM25 54L25 55L26 55L26 54ZM50 55L50 56L51 56L51 55ZM0 0L0 7L7 7L7 0ZM1 1L1 6L6 6L6 1ZM2 2L2 5L5 5L5 2ZM50 0L50 7L57 7L57 0ZM51 1L51 6L56 6L56 1ZM52 2L52 5L55 5L55 2ZM0 50L0 57L7 57L7 50ZM1 51L1 56L6 56L6 51ZM2 52L2 55L5 55L5 52Z" fill="#000000"/></g></g></svg>
