<?xml version="1.0" encoding="UTF-8"?>
<svg xmlns="http://www.w3.org/2000/svg" version="1.1" width="300" height="300" viewBox="0 0 300 300"><rect x="0" y="0" width="300" height="300" fill="#fefefe"/><g transform="scale(4.615)"><g transform="translate(4,4)"><path fill-rule="evenodd" d="M9 0L9 1L8 1L8 2L10 2L10 4L9 4L9 3L8 3L8 4L9 4L9 5L8 5L8 7L9 7L9 6L10 6L10 8L11 8L11 9L9 9L9 8L6 8L6 9L5 9L5 8L0 8L0 10L1 10L1 11L2 11L2 9L3 9L3 10L4 10L4 11L5 11L5 13L7 13L7 14L6 14L6 15L7 15L7 14L8 14L8 13L9 13L9 15L8 15L8 16L5 16L5 20L4 20L4 21L3 21L3 22L2 22L2 21L1 21L1 19L2 19L2 20L3 20L3 19L2 19L2 18L4 18L4 16L3 16L3 17L2 17L2 18L0 18L0 23L1 23L1 24L3 24L3 25L8 25L8 26L4 26L4 27L3 27L3 26L2 26L2 27L3 27L3 28L4 28L4 30L3 30L3 29L2 29L2 28L1 28L1 26L0 26L0 29L1 29L1 31L0 31L0 33L1 33L1 32L2 32L2 33L3 33L3 34L4 34L4 35L7 35L7 34L8 34L8 33L7 33L7 32L6 32L6 31L8 31L8 32L9 32L9 34L10 34L10 35L9 35L9 36L10 36L10 38L8 38L8 37L7 37L7 36L5 36L5 37L4 37L4 38L2 38L2 40L3 40L3 39L4 39L4 40L5 40L5 37L7 37L7 38L6 38L6 39L7 39L7 38L8 38L8 40L9 40L9 44L8 44L8 45L7 45L7 44L5 44L5 42L6 42L6 43L8 43L8 41L7 41L7 40L6 40L6 41L3 41L3 44L2 44L2 42L1 42L1 44L2 44L2 45L1 45L1 46L0 46L0 48L5 48L5 47L7 47L7 48L6 48L6 49L8 49L8 51L9 51L9 52L8 52L8 57L9 57L9 56L10 56L10 55L9 55L9 53L10 53L10 54L11 54L11 56L15 56L15 55L16 55L16 56L17 56L17 57L19 57L19 56L17 56L17 54L18 54L18 55L20 55L20 54L19 54L19 53L20 53L20 52L21 52L21 50L26 50L26 52L24 52L24 53L23 53L23 54L22 54L22 53L21 53L21 54L22 54L22 55L23 55L23 57L26 57L26 56L27 56L27 57L29 57L29 56L30 56L30 57L31 57L31 56L35 56L35 57L39 57L39 56L40 56L40 55L41 55L41 56L42 56L42 55L44 55L44 54L45 54L45 55L49 55L49 56L50 56L50 57L52 57L52 55L51 55L51 53L52 53L52 54L53 54L53 55L54 55L54 56L53 56L53 57L54 57L54 56L55 56L55 57L56 57L56 56L55 56L55 55L54 55L54 54L55 54L55 52L56 52L56 50L57 50L57 48L56 48L56 46L57 46L57 43L56 43L56 42L57 42L57 41L56 41L56 42L55 42L55 41L53 41L53 40L55 40L55 39L57 39L57 35L56 35L56 34L57 34L57 32L56 32L56 30L57 30L57 27L56 27L56 26L57 26L57 25L56 25L56 22L57 22L57 21L56 21L56 20L55 20L55 19L56 19L56 18L52 18L52 19L48 19L48 18L50 18L50 17L52 17L52 16L54 16L54 17L56 17L56 16L57 16L57 15L56 15L56 14L57 14L57 12L56 12L56 14L53 14L53 13L54 13L54 12L55 12L55 11L56 11L56 10L54 10L54 11L50 11L50 12L49 12L49 10L50 10L50 8L47 8L47 5L48 5L48 0L46 0L46 1L45 1L45 2L44 2L44 3L43 3L43 4L42 4L42 2L43 2L43 0L41 0L41 1L40 1L40 0L39 0L39 1L38 1L38 0L37 0L37 1L38 1L38 2L39 2L39 3L41 3L41 4L40 4L40 5L39 5L39 6L38 6L38 7L37 7L37 5L38 5L38 3L36 3L36 0L35 0L35 1L33 1L33 0L29 0L29 2L28 2L28 3L30 3L30 4L26 4L26 3L23 3L23 2L27 2L27 1L25 1L25 0L23 0L23 1L22 1L22 0L21 0L21 3L23 3L23 4L24 4L24 5L21 5L21 4L19 4L19 3L20 3L20 2L19 2L19 3L17 3L17 1L14 1L14 0L12 0L12 1L11 1L11 2L10 2L10 0ZM18 0L18 1L20 1L20 0ZM13 1L13 2L12 2L12 3L11 3L11 4L10 4L10 5L12 5L12 3L13 3L13 2L14 2L14 4L13 4L13 5L14 5L14 6L13 6L13 7L12 7L12 6L11 6L11 7L12 7L12 9L11 9L11 10L9 10L9 11L6 11L6 12L7 12L7 13L8 13L8 12L9 12L9 13L10 13L10 16L8 16L8 17L9 17L9 19L6 19L6 20L9 20L9 21L10 21L10 23L11 23L11 22L12 22L12 24L11 24L11 25L10 25L10 24L9 24L9 22L7 22L7 21L6 21L6 22L5 22L5 23L6 23L6 24L7 24L7 23L8 23L8 24L9 24L9 26L10 26L10 27L9 27L9 28L10 28L10 27L11 27L11 29L13 29L13 28L12 28L12 27L15 27L15 29L14 29L14 30L12 30L12 31L11 31L11 30L10 30L10 29L9 29L9 31L11 31L11 32L10 32L10 34L11 34L11 35L14 35L14 36L15 36L15 37L14 37L14 39L13 39L13 40L11 40L11 41L13 41L13 42L14 42L14 41L15 41L15 43L11 43L11 44L10 44L10 45L8 45L8 46L7 46L7 45L4 45L4 44L3 44L3 45L4 45L4 46L3 46L3 47L5 47L5 46L7 46L7 47L8 47L8 46L10 46L10 47L9 47L9 50L10 50L10 51L11 51L11 52L10 52L10 53L11 53L11 54L12 54L12 55L15 55L15 54L16 54L16 53L17 53L17 51L18 51L18 52L20 52L20 51L19 51L19 50L17 50L17 49L15 49L15 48L17 48L17 45L18 45L18 44L15 44L15 43L18 43L18 42L19 42L19 44L20 44L20 42L21 42L21 43L22 43L22 42L24 42L24 41L25 41L25 43L29 43L29 44L24 44L24 45L25 45L25 46L23 46L23 45L22 45L22 44L21 44L21 45L20 45L20 48L21 48L21 49L20 49L20 50L21 50L21 49L23 49L23 47L25 47L25 48L24 48L24 49L25 49L25 48L28 48L28 47L29 47L29 45L30 45L30 46L31 46L31 45L30 45L30 43L29 43L29 42L30 42L30 40L32 40L32 41L31 41L31 42L32 42L32 43L33 43L33 44L32 44L32 47L31 47L31 48L32 48L32 49L31 49L31 50L32 50L32 51L31 51L31 53L30 53L30 54L27 54L27 53L24 53L24 54L23 54L23 55L24 55L24 56L26 56L26 55L27 55L27 56L29 56L29 55L30 55L30 56L31 56L31 54L32 54L32 53L33 53L33 55L35 55L35 56L36 56L36 54L35 54L35 53L34 53L34 52L35 52L35 51L33 51L33 50L36 50L36 52L37 52L37 51L38 51L38 54L40 54L40 53L41 53L41 52L42 52L42 50L41 50L41 48L42 48L42 49L43 49L43 50L44 50L44 49L45 49L45 50L47 50L47 52L46 52L46 51L45 51L45 52L44 52L44 53L43 53L43 54L44 54L44 53L45 53L45 54L48 54L48 50L47 50L47 49L48 49L48 48L49 48L49 47L48 47L48 46L50 46L50 48L51 48L51 47L52 47L52 48L53 48L53 49L54 49L54 48L53 48L53 47L55 47L55 46L56 46L56 43L55 43L55 44L54 44L54 46L53 46L53 45L52 45L52 44L53 44L53 43L54 43L54 42L53 42L53 41L51 41L51 42L50 42L50 43L48 43L48 44L47 44L47 45L45 45L45 44L46 44L46 43L47 43L47 42L48 42L48 41L49 41L49 39L47 39L47 38L49 38L49 37L50 37L50 39L52 39L52 40L53 40L53 39L55 39L55 37L56 37L56 35L55 35L55 34L56 34L56 32L53 32L53 31L52 31L52 32L51 32L51 33L52 33L52 34L50 34L50 31L48 31L48 29L46 29L46 30L47 30L47 31L46 31L46 32L47 32L47 33L45 33L45 32L43 32L43 30L40 30L40 31L39 31L39 32L38 32L38 30L39 30L39 29L44 29L44 31L45 31L45 28L46 28L46 27L47 27L47 28L48 28L48 25L50 25L50 26L52 26L52 25L55 25L55 24L53 24L53 23L55 23L55 22L56 22L56 21L55 21L55 20L53 20L53 19L52 19L52 20L51 20L51 21L49 21L49 20L48 20L48 21L49 21L49 22L47 22L47 19L46 19L46 18L47 18L47 17L46 17L46 18L45 18L45 16L47 16L47 15L45 15L45 14L47 14L47 13L49 13L49 12L48 12L48 10L47 10L47 9L45 9L45 8L44 8L44 6L45 6L45 7L46 7L46 5L47 5L47 3L44 3L44 6L43 6L43 7L42 7L42 5L40 5L40 6L39 6L39 7L40 7L40 8L39 8L39 9L38 9L38 8L37 8L37 7L36 7L36 5L37 5L37 4L36 4L36 5L35 5L35 3L34 3L34 2L33 2L33 1L32 1L32 2L31 2L31 3L32 3L32 4L31 4L31 8L32 8L32 10L31 10L31 11L29 11L29 10L28 10L28 9L27 9L27 10L28 10L28 11L29 11L29 12L28 12L28 13L27 13L27 14L26 14L26 12L27 12L27 11L26 11L26 12L25 12L25 11L24 11L24 12L23 12L23 13L22 13L22 12L20 12L20 11L22 11L22 10L23 10L23 9L25 9L25 8L26 8L26 4L25 4L25 8L24 8L24 6L23 6L23 8L19 8L19 7L20 7L20 5L19 5L19 4L17 4L17 3L15 3L15 2L14 2L14 1ZM46 1L46 2L47 2L47 1ZM32 2L32 3L33 3L33 4L32 4L32 5L33 5L33 6L32 6L32 7L33 7L33 9L34 9L34 8L35 8L35 9L37 9L37 10L36 10L36 11L37 11L37 12L35 12L35 13L37 13L37 14L38 14L38 15L39 15L39 16L38 16L38 17L37 17L37 16L35 16L35 14L33 14L33 13L34 13L34 12L33 12L33 13L32 13L32 11L33 11L33 10L32 10L32 11L31 11L31 13L30 13L30 14L29 14L29 13L28 13L28 14L29 14L29 16L28 16L28 15L27 15L27 16L26 16L26 14L25 14L25 13L23 13L23 14L22 14L22 13L21 13L21 15L23 15L23 16L26 16L26 17L22 17L22 16L21 16L21 17L22 17L22 18L24 18L24 19L20 19L20 12L19 12L19 11L20 11L20 9L19 9L19 8L18 8L18 7L19 7L19 6L18 6L18 5L17 5L17 6L16 6L16 7L15 7L15 6L14 6L14 7L13 7L13 9L14 9L14 8L16 8L16 9L18 9L18 11L17 11L17 12L16 12L16 11L15 11L15 10L11 10L11 13L12 13L12 11L14 11L14 12L13 12L13 13L15 13L15 14L13 14L13 15L12 15L12 16L13 16L13 18L15 18L15 19L17 19L17 20L18 20L18 21L16 21L16 20L15 20L15 21L16 21L16 22L15 22L15 23L14 23L14 24L15 24L15 25L12 25L12 26L15 26L15 27L16 27L16 26L15 26L15 25L16 25L16 24L17 24L17 25L19 25L19 29L18 29L18 28L16 28L16 29L15 29L15 30L14 30L14 32L13 32L13 31L12 31L12 34L13 34L13 33L14 33L14 34L15 34L15 35L16 35L16 36L17 36L17 37L18 37L18 38L20 38L20 39L19 39L19 40L18 40L18 39L17 39L17 40L18 40L18 41L17 41L17 42L18 42L18 41L19 41L19 42L20 42L20 41L19 41L19 40L22 40L22 38L21 38L21 37L19 37L19 34L20 34L20 33L19 33L19 32L20 32L20 31L21 31L21 32L23 32L23 31L21 31L21 30L19 30L19 29L22 29L22 28L21 28L21 27L22 27L22 26L23 26L23 27L24 27L24 28L23 28L23 30L25 30L25 31L24 31L24 32L25 32L25 33L23 33L23 34L22 34L22 33L21 33L21 35L20 35L20 36L23 36L23 37L24 37L24 38L23 38L23 39L24 39L24 40L23 40L23 41L24 41L24 40L25 40L25 39L26 39L26 40L27 40L27 41L26 41L26 42L27 42L27 41L29 41L29 40L28 40L28 39L26 39L26 38L28 38L28 37L27 37L27 33L26 33L26 32L27 32L27 31L29 31L29 32L28 32L28 33L29 33L29 34L30 34L30 36L29 36L29 37L31 37L31 38L29 38L29 39L33 39L33 40L35 40L35 42L37 42L37 43L34 43L34 42L33 42L33 41L32 41L32 42L33 42L33 43L34 43L34 45L35 45L35 46L33 46L33 47L32 47L32 48L33 48L33 49L36 49L36 50L38 50L38 51L40 51L40 52L41 52L41 50L38 50L38 49L39 49L39 48L41 48L41 46L43 46L43 45L44 45L44 48L43 48L43 47L42 47L42 48L43 48L43 49L44 49L44 48L48 48L48 47L47 47L47 46L45 46L45 45L44 45L44 44L43 44L43 43L46 43L46 42L44 42L44 41L41 41L41 42L42 42L42 44L41 44L41 43L40 43L40 44L39 44L39 42L40 42L40 41L39 41L39 42L38 42L38 40L41 40L41 39L42 39L42 40L45 40L45 39L46 39L46 40L47 40L47 39L46 39L46 38L45 38L45 37L47 37L47 35L44 35L44 36L41 36L41 35L42 35L42 34L45 34L45 33L43 33L43 32L41 32L41 33L39 33L39 34L40 34L40 35L39 35L39 37L40 37L40 38L41 38L41 39L38 39L38 37L37 37L37 36L38 36L38 33L37 33L37 32L33 32L33 33L35 33L35 34L32 34L32 32L31 32L31 33L29 33L29 32L30 32L30 31L31 31L31 29L32 29L32 28L31 28L31 26L32 26L32 27L33 27L33 28L35 28L35 30L32 30L32 31L35 31L35 30L37 30L37 29L38 29L38 28L40 28L40 26L41 26L41 28L42 28L42 26L43 26L43 28L45 28L45 27L46 27L46 26L45 26L45 27L44 27L44 26L43 26L43 25L44 25L44 24L43 24L43 23L44 23L44 20L46 20L46 19L45 19L45 18L44 18L44 12L43 12L43 13L41 13L41 14L43 14L43 15L42 15L42 16L41 16L41 15L39 15L39 14L38 14L38 13L40 13L40 12L41 12L41 10L42 10L42 11L45 11L45 12L47 12L47 10L45 10L45 9L44 9L44 8L43 8L43 9L41 9L41 10L38 10L38 9L37 9L37 8L35 8L35 5L33 5L33 4L34 4L34 3L33 3L33 2ZM15 4L15 5L16 5L16 4ZM45 4L45 5L46 5L46 4ZM27 5L27 8L30 8L30 5ZM17 6L17 7L16 7L16 8L17 8L17 7L18 7L18 6ZM21 6L21 7L22 7L22 6ZM28 6L28 7L29 7L29 6ZM33 6L33 7L34 7L34 6ZM40 6L40 7L41 7L41 6ZM48 6L48 7L49 7L49 6ZM51 8L51 10L52 10L52 8ZM53 8L53 9L54 9L54 8ZM55 8L55 9L56 9L56 8ZM4 9L4 10L5 10L5 9ZM6 9L6 10L7 10L7 9ZM43 9L43 10L44 10L44 9ZM37 10L37 11L38 11L38 10ZM9 11L9 12L10 12L10 11ZM39 11L39 12L40 12L40 11ZM15 12L15 13L16 13L16 16L15 16L15 15L14 15L14 17L15 17L15 18L18 18L18 19L19 19L19 20L20 20L20 21L18 21L18 22L20 22L20 23L19 23L19 24L22 24L22 25L20 25L20 27L21 27L21 26L22 26L22 25L24 25L24 24L25 24L25 25L26 25L26 26L25 26L25 27L26 27L26 26L30 26L30 25L29 25L29 24L32 24L32 26L33 26L33 27L34 27L34 26L36 26L36 28L37 28L37 27L39 27L39 26L40 26L40 25L41 25L41 26L42 26L42 25L41 25L41 24L42 24L42 22L41 22L41 24L40 24L40 22L39 22L39 21L42 21L42 20L39 20L39 21L38 21L38 23L37 23L37 24L38 24L38 26L37 26L37 25L33 25L33 24L32 24L32 23L35 23L35 20L34 20L34 19L36 19L36 20L37 20L37 19L39 19L39 17L41 17L41 16L39 16L39 17L38 17L38 18L37 18L37 17L35 17L35 16L33 16L33 15L32 15L32 18L33 18L33 20L32 20L32 21L31 21L31 20L29 20L29 19L28 19L28 18L27 18L27 17L28 17L28 16L27 16L27 17L26 17L26 18L25 18L25 19L26 19L26 20L25 20L25 21L24 21L24 20L20 20L20 19L19 19L19 18L18 18L18 17L16 17L16 16L18 16L18 15L19 15L19 14L17 14L17 13L18 13L18 12L17 12L17 13L16 13L16 12ZM50 12L50 14L49 14L49 15L48 15L48 16L49 16L49 17L50 17L50 16L52 16L52 15L50 15L50 14L51 14L51 12ZM52 12L52 13L53 13L53 12ZM0 13L0 14L1 14L1 13ZM31 13L31 14L30 14L30 15L31 15L31 14L32 14L32 13ZM2 14L2 15L1 15L1 16L0 16L0 17L1 17L1 16L2 16L2 15L5 15L5 14ZM23 14L23 15L24 15L24 14ZM42 16L42 17L43 17L43 16ZM6 17L6 18L7 18L7 17ZM10 18L10 19L9 19L9 20L10 20L10 21L11 21L11 20L10 20L10 19L12 19L12 18ZM30 18L30 19L31 19L31 18ZM41 18L41 19L42 19L42 18ZM43 18L43 20L44 20L44 18ZM13 19L13 20L14 20L14 19ZM27 19L27 20L28 20L28 19ZM33 20L33 21L34 21L34 20ZM12 21L12 22L14 22L14 21ZM22 21L22 22L24 22L24 21ZM25 21L25 22L26 22L26 23L25 23L25 24L29 24L29 23L30 23L30 22L31 22L31 21L30 21L30 22L29 22L29 21ZM51 21L51 22L50 22L50 23L49 23L49 24L50 24L50 23L53 23L53 22L54 22L54 21ZM3 22L3 23L4 23L4 22ZM6 22L6 23L7 23L7 22ZM46 22L46 24L45 24L45 25L46 25L46 24L47 24L47 25L48 25L48 23L47 23L47 22ZM15 23L15 24L16 24L16 23ZM17 23L17 24L18 24L18 23ZM23 23L23 24L24 24L24 23ZM38 23L38 24L39 24L39 23ZM17 26L17 27L18 27L18 26ZM53 26L53 27L54 27L54 26ZM5 27L5 30L8 30L8 27ZM27 27L27 30L30 30L30 27ZM49 27L49 30L52 30L52 27ZM6 28L6 29L7 29L7 28ZM25 28L25 29L26 29L26 28ZM28 28L28 29L29 29L29 28ZM50 28L50 29L51 29L51 28ZM54 28L54 30L55 30L55 29L56 29L56 28ZM16 29L16 31L15 31L15 32L16 32L16 33L15 33L15 34L16 34L16 35L18 35L18 34L19 34L19 33L18 33L18 34L17 34L17 32L19 32L19 31L18 31L18 29ZM2 30L2 31L3 31L3 30ZM25 31L25 32L26 32L26 31ZM47 31L47 32L48 32L48 33L49 33L49 32L48 32L48 31ZM52 32L52 33L53 33L53 32ZM5 33L5 34L7 34L7 33ZM25 33L25 35L26 35L26 33ZM54 33L54 34L55 34L55 33ZM1 34L1 35L0 35L0 36L1 36L1 37L2 37L2 36L1 36L1 35L2 35L2 34ZM23 34L23 36L24 36L24 34ZM31 34L31 35L32 35L32 34ZM35 34L35 36L37 36L37 34ZM49 34L49 35L50 35L50 37L52 37L52 35L53 35L53 37L55 37L55 35L53 35L53 34L52 34L52 35L50 35L50 34ZM25 36L25 38L26 38L26 36ZM32 36L32 37L33 37L33 39L35 39L35 40L38 40L38 39L35 39L35 37L33 37L33 36ZM40 36L40 37L41 37L41 38L42 38L42 39L45 39L45 38L44 38L44 37L45 37L45 36L44 36L44 37L43 37L43 38L42 38L42 37L41 37L41 36ZM11 37L11 39L12 39L12 38L13 38L13 37ZM15 37L15 38L16 38L16 37ZM0 39L0 41L1 41L1 39ZM9 39L9 40L10 40L10 39ZM14 39L14 40L16 40L16 39ZM6 41L6 42L7 42L7 41ZM21 41L21 42L22 42L22 41ZM51 42L51 43L50 43L50 44L48 44L48 45L51 45L51 46L52 46L52 45L51 45L51 43L53 43L53 42ZM11 44L11 45L12 45L12 44ZM40 44L40 45L38 45L38 46L39 46L39 47L38 47L38 48L37 48L37 49L38 49L38 48L39 48L39 47L40 47L40 46L41 46L41 44ZM14 45L14 47L12 47L12 46L11 46L11 47L10 47L10 50L11 50L11 51L12 51L12 52L11 52L11 53L12 53L12 54L13 54L13 53L14 53L14 51L15 51L15 50L14 50L14 49L13 49L13 48L14 48L14 47L15 47L15 45ZM21 45L21 47L23 47L23 46L22 46L22 45ZM26 45L26 47L27 47L27 45ZM36 45L36 46L37 46L37 45ZM1 46L1 47L2 47L2 46ZM35 47L35 48L36 48L36 47ZM11 48L11 50L12 50L12 48ZM55 48L55 49L56 49L56 48ZM27 49L27 52L30 52L30 49ZM49 49L49 52L52 52L52 49ZM16 50L16 51L17 51L17 50ZM28 50L28 51L29 51L29 50ZM50 50L50 51L51 51L51 50ZM54 50L54 51L55 51L55 50ZM22 51L22 52L23 52L23 51ZM32 51L32 52L33 52L33 51ZM12 52L12 53L13 53L13 52ZM15 52L15 53L16 53L16 52ZM53 52L53 53L54 53L54 52ZM41 54L41 55L42 55L42 54ZM37 55L37 56L39 56L39 55ZM50 55L50 56L51 56L51 55ZM20 56L20 57L21 57L21 56ZM43 56L43 57L44 57L44 56ZM46 56L46 57L47 57L47 56ZM0 0L0 7L7 7L7 0ZM1 1L1 6L6 6L6 1ZM2 2L2 5L5 5L5 2ZM50 0L50 7L57 7L57 0ZM51 1L51 6L56 6L56 1ZM52 2L52 5L55 5L55 2ZM0 50L0 57L7 57L7 50ZM1 51L1 56L6 56L6 51ZM2 52L2 55L5 55L5 52Z" fill="#000000"/></g></g></svg>
