<?xml version="1.0" encoding="UTF-8"?>
<svg xmlns="http://www.w3.org/2000/svg" version="1.1" width="300" height="300" viewBox="0 0 300 300"><rect x="0" y="0" width="300" height="300" fill="#fefefe"/><g transform="scale(4.615)"><g transform="translate(4,4)"><path fill-rule="evenodd" d="M9 0L9 1L8 1L8 2L9 2L9 3L8 3L8 4L9 4L9 5L8 5L8 7L9 7L9 6L10 6L10 9L12 9L12 8L11 8L11 6L10 6L10 4L11 4L11 5L12 5L12 7L13 7L13 10L9 10L9 8L6 8L6 9L5 9L5 8L0 8L0 9L1 9L1 10L0 10L0 12L1 12L1 13L2 13L2 15L3 15L3 16L4 16L4 17L2 17L2 16L1 16L1 14L0 14L0 17L1 17L1 18L0 18L0 19L2 19L2 20L4 20L4 22L5 22L5 23L4 23L4 24L3 24L3 22L2 22L2 21L1 21L1 20L0 20L0 21L1 21L1 25L0 25L0 26L1 26L1 25L3 25L3 26L2 26L2 27L1 27L1 28L2 28L2 29L3 29L3 31L7 31L7 32L6 32L6 33L5 33L5 34L4 34L4 35L3 35L3 33L4 33L4 32L2 32L2 34L1 34L1 33L0 33L0 34L1 34L1 35L0 35L0 36L1 36L1 39L0 39L0 42L1 42L1 44L2 44L2 45L3 45L3 46L2 46L2 47L1 47L1 46L0 46L0 48L5 48L5 47L10 47L10 49L9 49L9 48L6 48L6 49L8 49L8 51L9 51L9 50L10 50L10 49L14 49L14 50L12 50L12 51L11 51L11 52L10 52L10 53L11 53L11 54L9 54L9 52L8 52L8 57L14 57L14 56L15 56L15 55L16 55L16 56L17 56L17 57L21 57L21 56L23 56L23 57L26 57L26 56L27 56L27 57L29 57L29 56L30 56L30 57L31 57L31 56L35 56L35 57L39 57L39 56L40 56L40 55L41 55L41 57L42 57L42 55L43 55L43 57L44 57L44 54L45 54L45 57L47 57L47 56L48 56L48 55L49 55L49 56L50 56L50 57L52 57L52 55L51 55L51 53L52 53L52 54L55 54L55 51L54 51L54 50L57 50L57 48L56 48L56 46L57 46L57 45L56 45L56 44L55 44L55 43L56 43L56 42L57 42L57 41L56 41L56 42L55 42L55 39L57 39L57 37L55 37L55 36L56 36L56 34L57 34L57 32L56 32L56 30L57 30L57 27L55 27L55 26L57 26L57 25L56 25L56 22L57 22L57 21L56 21L56 22L55 22L55 23L53 23L53 22L54 22L54 21L51 21L51 20L52 20L52 19L53 19L53 20L55 20L55 19L56 19L56 18L53 18L53 17L51 17L51 19L50 19L50 17L49 17L49 16L50 16L50 15L51 15L51 16L52 16L52 15L53 15L53 16L54 16L54 17L56 17L56 16L57 16L57 15L56 15L56 14L57 14L57 13L56 13L56 14L55 14L55 15L53 15L53 14L54 14L54 12L55 12L55 11L56 11L56 10L54 10L54 11L52 11L52 10L53 10L53 9L54 9L54 8L53 8L53 9L52 9L52 8L51 8L51 10L49 10L49 9L50 9L50 8L49 8L49 6L48 6L48 7L47 7L47 5L48 5L48 0L46 0L46 1L47 1L47 2L44 2L44 3L41 3L41 2L43 2L43 0L41 0L41 1L40 1L40 0L39 0L39 1L38 1L38 0L37 0L37 1L38 1L38 2L37 2L37 3L36 3L36 0L35 0L35 1L33 1L33 2L32 2L32 1L31 1L31 0L28 0L28 1L25 1L25 0L23 0L23 1L22 1L22 0L21 0L21 1L20 1L20 0L19 0L19 2L17 2L17 1L14 1L14 0L13 0L13 1L14 1L14 2L12 2L12 1L11 1L11 2L9 2L9 1L10 1L10 0ZM29 1L29 2L31 2L31 3L30 3L30 4L31 4L31 8L32 8L32 10L31 10L31 11L29 11L29 12L28 12L28 13L26 13L26 12L27 12L27 11L28 11L28 9L27 9L27 11L26 11L26 12L25 12L25 11L24 11L24 12L23 12L23 13L22 13L22 12L20 12L20 11L19 11L19 12L20 12L20 14L18 14L18 15L20 15L20 18L19 18L19 17L18 17L18 16L17 16L17 13L18 13L18 12L17 12L17 13L16 13L16 12L15 12L15 13L13 13L13 12L14 12L14 11L13 11L13 12L12 12L12 11L10 11L10 12L12 12L12 13L13 13L13 14L12 14L12 15L11 15L11 14L10 14L10 15L11 15L11 16L10 16L10 17L12 17L12 15L13 15L13 16L14 16L14 18L9 18L9 14L8 14L8 13L6 13L6 14L8 14L8 15L4 15L4 16L7 16L7 17L6 17L6 18L2 18L2 19L5 19L5 22L7 22L7 23L5 23L5 24L4 24L4 26L7 26L7 25L6 25L6 24L7 24L7 23L8 23L8 22L9 22L9 19L10 19L10 20L11 20L11 19L12 19L12 21L14 21L14 22L11 22L11 21L10 21L10 22L11 22L11 23L10 23L10 24L12 24L12 23L14 23L14 22L16 22L16 21L17 21L17 22L18 22L18 21L17 21L17 17L18 17L18 19L20 19L20 21L19 21L19 22L20 22L20 23L18 23L18 24L19 24L19 25L20 25L20 26L18 26L18 25L15 25L15 26L18 26L18 27L17 27L17 28L18 28L18 29L16 29L16 28L15 28L15 27L14 27L14 28L13 28L13 25L14 25L14 24L13 24L13 25L12 25L12 26L10 26L10 25L9 25L9 24L8 24L8 25L9 25L9 26L10 26L10 28L9 28L9 29L10 29L10 30L9 30L9 31L8 31L8 32L7 32L7 33L6 33L6 34L5 34L5 36L4 36L4 38L5 38L5 39L1 39L1 41L2 41L2 40L3 40L3 41L6 41L6 42L10 42L10 44L9 44L9 43L6 43L6 44L8 44L8 46L9 46L9 45L10 45L10 44L11 44L11 42L12 42L12 43L13 43L13 44L12 44L12 45L11 45L11 46L12 46L12 45L13 45L13 47L12 47L12 48L15 48L15 52L14 52L14 51L12 51L12 52L14 52L14 53L15 53L15 54L14 54L14 55L12 55L12 54L13 54L13 53L12 53L12 54L11 54L11 55L10 55L10 56L11 56L11 55L12 55L12 56L14 56L14 55L15 55L15 54L16 54L16 53L17 53L17 54L20 54L20 55L19 55L19 56L21 56L21 55L22 55L22 54L23 54L23 55L24 55L24 56L25 56L25 54L26 54L26 55L27 55L27 56L29 56L29 55L30 55L30 56L31 56L31 54L32 54L32 53L33 53L33 54L34 54L34 55L35 55L35 56L36 56L36 54L35 54L35 53L33 53L33 52L32 52L32 51L31 51L31 53L30 53L30 54L27 54L27 53L24 53L24 52L26 52L26 48L27 48L27 47L28 47L28 48L30 48L30 47L29 47L29 44L30 44L30 45L31 45L31 47L32 47L32 45L33 45L33 46L35 46L35 47L34 47L34 48L36 48L36 47L37 47L37 45L34 45L34 43L35 43L35 44L36 44L36 43L37 43L37 42L35 42L35 40L38 40L38 42L39 42L39 45L38 45L38 46L41 46L41 48L39 48L39 47L38 47L38 48L37 48L37 49L38 49L38 50L36 50L36 49L33 49L33 48L31 48L31 50L36 50L36 52L38 52L38 54L40 54L40 53L42 53L42 52L40 52L40 51L39 51L39 52L38 52L38 50L41 50L41 51L42 51L42 50L41 50L41 48L42 48L42 49L43 49L43 50L44 50L44 51L45 51L45 52L44 52L44 53L43 53L43 54L44 54L44 53L45 53L45 54L46 54L46 55L47 55L47 53L48 53L48 50L47 50L47 49L48 49L48 48L50 48L50 47L51 47L51 46L52 46L52 48L53 48L53 47L54 47L54 46L56 46L56 45L55 45L55 44L54 44L54 45L53 45L53 43L54 43L54 42L53 42L53 41L54 41L54 40L53 40L53 41L51 41L51 42L50 42L50 43L48 43L48 44L47 44L47 45L45 45L45 44L46 44L46 42L48 42L48 41L49 41L49 40L50 40L50 39L51 39L51 40L52 40L52 39L53 39L53 35L55 35L55 34L54 34L54 33L52 33L52 32L53 32L53 31L55 31L55 29L56 29L56 28L54 28L54 30L53 30L53 31L52 31L52 32L51 32L51 33L52 33L52 34L50 34L50 32L49 32L49 31L48 31L48 29L46 29L46 30L47 30L47 31L46 31L46 32L43 32L43 31L45 31L45 30L44 30L44 29L45 29L45 28L46 28L46 27L47 27L47 28L48 28L48 27L47 27L47 25L45 25L45 23L46 23L46 22L47 22L47 24L49 24L49 26L51 26L51 25L53 25L53 24L51 24L51 23L50 23L50 22L51 22L51 21L49 21L49 22L47 22L47 21L48 21L48 20L47 20L47 19L48 19L48 18L47 18L47 17L48 17L48 16L49 16L49 15L50 15L50 14L51 14L51 12L50 12L50 11L49 11L49 10L48 10L48 11L49 11L49 12L45 12L45 11L46 11L46 10L47 10L47 7L46 7L46 6L45 6L45 4L46 4L46 5L47 5L47 3L44 3L44 6L43 6L43 5L42 5L42 6L41 6L41 5L40 5L40 4L41 4L41 3L38 3L38 5L37 5L37 4L36 4L36 5L35 5L35 4L33 4L33 3L35 3L35 2L33 2L33 3L32 3L32 2L31 2L31 1ZM11 2L11 3L12 3L12 2ZM14 2L14 4L12 4L12 5L13 5L13 7L14 7L14 10L16 10L16 11L18 11L18 10L17 10L17 9L15 9L15 7L16 7L16 8L19 8L19 7L20 7L20 5L19 5L19 4L23 4L23 5L21 5L21 7L22 7L22 8L20 8L20 10L21 10L21 11L22 11L22 10L21 10L21 9L23 9L23 8L24 8L24 6L23 6L23 5L24 5L24 4L23 4L23 3L26 3L26 4L25 4L25 8L26 8L26 4L27 4L27 3L28 3L28 4L29 4L29 3L28 3L28 2L23 2L23 3L22 3L22 2L20 2L20 3L19 3L19 4L17 4L17 2ZM31 3L31 4L32 4L32 5L33 5L33 6L32 6L32 7L33 7L33 9L34 9L34 8L35 8L35 9L37 9L37 10L36 10L36 12L35 12L35 14L33 14L33 13L34 13L34 12L33 12L33 13L32 13L32 11L33 11L33 10L32 10L32 11L31 11L31 13L30 13L30 14L29 14L29 13L28 13L28 14L29 14L29 16L28 16L28 15L27 15L27 16L28 16L28 17L27 17L27 18L28 18L28 19L27 19L27 20L30 20L30 21L26 21L26 14L25 14L25 13L23 13L23 14L22 14L22 13L21 13L21 15L23 15L23 16L25 16L25 17L22 17L22 16L21 16L21 17L22 17L22 18L21 18L21 20L22 20L22 19L23 19L23 20L24 20L24 21L21 21L21 24L20 24L20 25L21 25L21 26L20 26L20 28L19 28L19 29L18 29L18 30L16 30L16 29L15 29L15 28L14 28L14 29L12 29L12 30L11 30L11 31L12 31L12 33L10 33L10 34L11 34L11 35L7 35L7 34L6 34L6 35L7 35L7 36L5 36L5 38L6 38L6 39L5 39L5 40L6 40L6 41L7 41L7 40L9 40L9 41L10 41L10 42L11 42L11 41L12 41L12 40L13 40L13 41L17 41L17 42L18 42L18 43L14 43L14 42L13 42L13 43L14 43L14 44L13 44L13 45L15 45L15 44L16 44L16 45L17 45L17 49L19 49L19 50L18 50L18 52L17 52L17 53L20 53L20 52L23 52L23 51L22 51L22 50L25 50L25 49L24 49L24 48L23 48L23 49L21 49L21 48L20 48L20 45L21 45L21 47L23 47L23 46L25 46L25 44L27 44L27 45L26 45L26 47L25 47L25 48L26 48L26 47L27 47L27 45L28 45L28 44L29 44L29 43L32 43L32 44L31 44L31 45L32 45L32 44L33 44L33 43L34 43L34 42L33 42L33 41L32 41L32 40L30 40L30 41L29 41L29 40L28 40L28 39L27 39L27 38L28 38L28 37L27 37L27 38L26 38L26 40L28 40L28 41L29 41L29 43L28 43L28 44L27 44L27 43L25 43L25 44L23 44L23 42L25 42L25 41L23 41L23 42L22 42L22 41L21 41L21 42L20 42L20 40L21 40L21 37L19 37L19 36L17 36L17 38L18 38L18 37L19 37L19 38L20 38L20 39L17 39L17 40L16 40L16 39L14 39L14 40L13 40L13 37L14 37L14 36L15 36L15 34L13 34L13 32L16 32L16 33L18 33L18 34L20 34L20 33L21 33L21 35L20 35L20 36L22 36L22 35L23 35L23 34L24 34L24 36L23 36L23 37L24 37L24 38L22 38L22 39L24 39L24 40L25 40L25 37L26 37L26 35L27 35L27 31L32 31L32 32L31 32L31 33L29 33L29 32L28 32L28 33L29 33L29 34L30 34L30 36L29 36L29 37L31 37L31 38L29 38L29 39L33 39L33 40L35 40L35 39L37 39L37 38L38 38L38 37L40 37L40 38L41 38L41 39L38 39L38 40L41 40L41 39L42 39L42 41L41 41L41 42L42 42L42 44L41 44L41 43L40 43L40 44L41 44L41 46L43 46L43 47L42 47L42 48L43 48L43 49L44 49L44 50L45 50L45 49L44 49L44 48L43 48L43 47L44 47L44 46L45 46L45 48L46 48L46 49L47 49L47 48L48 48L48 47L50 47L50 44L51 44L51 45L52 45L52 44L51 44L51 43L53 43L53 42L51 42L51 43L50 43L50 44L48 44L48 45L47 45L47 46L45 46L45 45L44 45L44 43L43 43L43 42L44 42L44 41L43 41L43 40L45 40L45 41L47 41L47 39L48 39L48 38L49 38L49 39L50 39L50 38L51 38L51 39L52 39L52 38L51 38L51 36L52 36L52 35L53 35L53 34L52 34L52 35L50 35L50 34L49 34L49 35L50 35L50 38L49 38L49 36L48 36L48 37L47 37L47 39L46 39L46 38L45 38L45 37L44 37L44 36L45 36L45 35L47 35L47 34L45 34L45 35L44 35L44 33L43 33L43 32L41 32L41 33L39 33L39 34L40 34L40 35L38 35L38 33L37 33L37 32L35 32L35 31L36 31L36 30L37 30L37 29L38 29L38 28L42 28L42 26L43 26L43 27L44 27L44 28L43 28L43 29L39 29L39 30L38 30L38 32L39 32L39 31L41 31L41 30L43 30L43 29L44 29L44 28L45 28L45 27L46 27L46 26L45 26L45 27L44 27L44 20L45 20L45 18L46 18L46 19L47 19L47 18L46 18L46 15L47 15L47 16L48 16L48 15L49 15L49 14L50 14L50 12L49 12L49 13L47 13L47 14L45 14L45 13L44 13L44 11L45 11L45 10L44 10L44 8L46 8L46 7L45 7L45 6L44 6L44 8L42 8L42 7L43 7L43 6L42 6L42 7L41 7L41 6L40 6L40 5L39 5L39 6L38 6L38 7L37 7L37 5L36 5L36 7L37 7L37 8L35 8L35 5L33 5L33 4L32 4L32 3ZM15 4L15 5L14 5L14 7L15 7L15 5L16 5L16 4ZM27 5L27 8L30 8L30 5ZM16 6L16 7L17 7L17 6ZM18 6L18 7L19 7L19 6ZM22 6L22 7L23 7L23 6ZM28 6L28 7L29 7L29 6ZM33 6L33 7L34 7L34 6ZM39 6L39 7L40 7L40 8L38 8L38 10L37 10L37 11L38 11L38 10L40 10L40 11L41 11L41 12L39 12L39 13L38 13L38 14L37 14L37 13L36 13L36 14L37 14L37 15L35 15L35 16L33 16L33 15L32 15L32 17L33 17L33 18L30 18L30 19L33 19L33 18L34 18L34 19L36 19L36 20L37 20L37 21L38 21L38 22L39 22L39 24L38 24L38 23L37 23L37 24L38 24L38 26L37 26L37 25L33 25L33 24L32 24L32 23L35 23L35 20L34 20L34 21L33 21L33 20L32 20L32 21L31 21L31 22L30 22L30 23L29 23L29 24L25 24L25 23L26 23L26 22L25 22L25 21L24 21L24 22L23 22L23 23L22 23L22 24L21 24L21 25L24 25L24 24L25 24L25 25L26 25L26 26L25 26L25 27L23 27L23 26L22 26L22 27L21 27L21 28L22 28L22 29L19 29L19 31L20 31L20 32L21 32L21 33L22 33L22 34L23 34L23 33L25 33L25 35L26 35L26 33L25 33L25 32L26 32L26 31L25 31L25 32L24 32L24 31L23 31L23 29L26 29L26 28L25 28L25 27L26 27L26 26L28 26L28 25L31 25L31 24L32 24L32 26L31 26L31 28L32 28L32 30L35 30L35 28L36 28L36 27L41 27L41 26L42 26L42 25L41 25L41 24L40 24L40 22L39 22L39 21L43 21L43 20L44 20L44 18L45 18L45 15L44 15L44 14L41 14L41 13L43 13L43 11L44 11L44 10L43 10L43 11L42 11L42 10L41 10L41 7L40 7L40 6ZM48 8L48 9L49 9L49 8ZM55 8L55 9L56 9L56 8ZM2 9L2 10L1 10L1 11L2 11L2 13L3 13L3 14L4 14L4 13L5 13L5 12L3 12L3 11L4 11L4 10L3 10L3 9ZM6 9L6 10L7 10L7 9ZM2 10L2 11L3 11L3 10ZM8 10L8 11L9 11L9 10ZM6 11L6 12L7 12L7 11ZM52 12L52 13L53 13L53 12ZM15 13L15 14L14 14L14 16L16 16L16 13ZM31 13L31 14L30 14L30 15L31 15L31 14L32 14L32 13ZM39 13L39 14L38 14L38 15L39 15L39 16L38 16L38 17L37 17L37 16L35 16L35 17L37 17L37 18L38 18L38 17L39 17L39 19L37 19L37 20L38 20L38 21L39 21L39 20L41 20L41 18L42 18L42 19L43 19L43 18L44 18L44 15L42 15L42 16L41 16L41 14L40 14L40 13ZM23 14L23 15L24 15L24 14ZM39 14L39 15L40 15L40 14ZM39 16L39 17L41 17L41 16ZM42 16L42 17L43 17L43 16ZM6 18L6 19L7 19L7 20L6 20L6 21L7 21L7 20L8 20L8 18ZM15 18L15 21L16 21L16 18ZM23 18L23 19L24 19L24 18ZM13 19L13 20L14 20L14 19ZM45 21L45 22L46 22L46 21ZM41 22L41 23L42 23L42 24L43 24L43 23L42 23L42 22ZM15 23L15 24L16 24L16 23ZM23 23L23 24L24 24L24 23ZM30 23L30 24L31 24L31 23ZM39 24L39 25L40 25L40 26L41 26L41 25L40 25L40 24ZM32 26L32 27L33 27L33 28L35 28L35 27L36 27L36 26L34 26L34 27L33 27L33 26ZM53 26L53 27L54 27L54 26ZM3 27L3 28L4 28L4 27ZM5 27L5 30L8 30L8 27ZM27 27L27 30L30 30L30 27ZM49 27L49 30L52 30L52 27ZM6 28L6 29L7 29L7 28ZM10 28L10 29L11 29L11 28ZM28 28L28 29L29 29L29 28ZM50 28L50 29L51 29L51 28ZM0 29L0 30L1 30L1 29ZM14 29L14 30L13 30L13 31L14 31L14 30L15 30L15 29ZM0 31L0 32L1 32L1 31ZM21 31L21 32L23 32L23 31ZM33 31L33 32L32 32L32 33L31 33L31 34L32 34L32 35L34 35L34 34L35 34L35 36L32 36L32 37L33 37L33 39L34 39L34 38L35 38L35 36L37 36L37 37L38 37L38 35L37 35L37 34L35 34L35 32L34 32L34 31ZM47 31L47 32L46 32L46 33L47 33L47 32L48 32L48 33L49 33L49 32L48 32L48 31ZM55 32L55 33L56 33L56 32ZM8 33L8 34L9 34L9 33ZM33 33L33 34L34 34L34 33ZM12 34L12 35L13 35L13 34ZM16 34L16 35L17 35L17 34ZM42 34L42 35L43 35L43 36L44 36L44 35L43 35L43 34ZM2 35L2 36L3 36L3 35ZM8 36L8 37L6 37L6 38L8 38L8 37L9 37L9 36ZM10 36L10 37L11 37L11 38L9 38L9 40L10 40L10 41L11 41L11 40L10 40L10 39L12 39L12 37L11 37L11 36ZM40 36L40 37L41 37L41 38L42 38L42 39L45 39L45 40L46 40L46 39L45 39L45 38L44 38L44 37L43 37L43 38L42 38L42 37L41 37L41 36ZM2 37L2 38L3 38L3 37ZM15 37L15 38L16 38L16 37ZM54 38L54 39L55 39L55 38ZM6 39L6 40L7 40L7 39ZM17 40L17 41L18 41L18 42L19 42L19 45L20 45L20 42L19 42L19 41L18 41L18 40ZM26 41L26 42L27 42L27 41ZM31 41L31 42L32 42L32 43L33 43L33 42L32 42L32 41ZM39 41L39 42L40 42L40 41ZM4 42L4 43L2 43L2 44L3 44L3 45L4 45L4 43L5 43L5 42ZM21 42L21 43L22 43L22 42ZM17 44L17 45L18 45L18 44ZM21 44L21 45L22 45L22 46L23 46L23 45L22 45L22 44ZM5 45L5 46L3 46L3 47L5 47L5 46L7 46L7 45ZM14 46L14 47L16 47L16 46ZM46 47L46 48L47 48L47 47ZM38 48L38 49L39 49L39 48ZM54 48L54 49L56 49L56 48ZM20 49L20 51L21 51L21 49ZM27 49L27 52L30 52L30 49ZM49 49L49 52L52 52L52 49ZM28 50L28 51L29 51L29 50ZM50 50L50 51L51 51L51 50ZM46 51L46 52L47 52L47 51ZM56 51L56 53L57 53L57 51ZM15 52L15 53L16 53L16 52ZM53 52L53 53L54 53L54 52ZM21 53L21 54L22 54L22 53ZM23 53L23 54L24 54L24 53ZM37 55L37 56L39 56L39 55ZM50 55L50 56L51 56L51 55ZM53 55L53 56L55 56L55 57L56 57L56 56L55 56L55 55ZM0 0L0 7L7 7L7 0ZM1 1L1 6L6 6L6 1ZM2 2L2 5L5 5L5 2ZM50 0L50 7L57 7L57 0ZM51 1L51 6L56 6L56 1ZM52 2L52 5L55 5L55 2ZM0 50L0 57L7 57L7 50ZM1 51L1 56L6 56L6 51ZM2 52L2 55L5 55L5 52Z" fill="#000000"/></g></g></svg>
