<?xml version="1.0" encoding="UTF-8"?>
<svg xmlns="http://www.w3.org/2000/svg" version="1.1" width="300" height="300" viewBox="0 0 300 300"><rect x="0" y="0" width="300" height="300" fill="#fefefe"/><g transform="scale(4.615)"><g transform="translate(4,4)"><path fill-rule="evenodd" d="M10 0L10 1L8 1L8 2L10 2L10 3L8 3L8 4L9 4L9 5L8 5L8 7L9 7L9 6L10 6L10 11L8 11L8 10L9 10L9 8L6 8L6 9L7 9L7 10L6 10L6 11L7 11L7 12L6 12L6 13L7 13L7 14L5 14L5 15L2 15L2 17L1 17L1 14L0 14L0 19L1 19L1 22L0 22L0 24L1 24L1 26L2 26L2 27L3 27L3 28L1 28L1 27L0 27L0 29L2 29L2 31L1 31L1 30L0 30L0 32L1 32L1 33L0 33L0 34L1 34L1 35L3 35L3 36L0 36L0 39L1 39L1 41L2 41L2 40L3 40L3 39L7 39L7 38L6 38L6 37L8 37L8 36L10 36L10 38L11 38L11 37L13 37L13 38L12 38L12 39L10 39L10 40L8 40L8 42L6 42L6 41L7 41L7 40L4 40L4 41L3 41L3 44L2 44L2 42L1 42L1 44L0 44L0 45L1 45L1 46L0 46L0 48L5 48L5 47L7 47L7 46L5 46L5 44L4 44L4 43L5 43L5 42L6 42L6 43L8 43L8 42L9 42L9 41L10 41L10 42L11 42L11 43L9 43L9 44L10 44L10 46L9 46L9 47L8 47L8 51L9 51L9 52L8 52L8 57L9 57L9 56L10 56L10 57L13 57L13 56L11 56L11 54L13 54L13 55L14 55L14 54L13 54L13 53L14 53L14 52L15 52L15 53L16 53L16 54L15 54L15 55L16 55L16 56L14 56L14 57L16 57L16 56L17 56L17 57L19 57L19 55L20 55L20 54L19 54L19 53L20 53L20 52L23 52L23 51L22 51L22 50L25 50L25 49L26 49L26 52L24 52L24 53L23 53L23 54L21 54L21 56L24 56L24 57L26 57L26 56L27 56L27 57L29 57L29 56L30 56L30 57L31 57L31 56L35 56L35 57L39 57L39 56L41 56L41 57L44 57L44 56L42 56L42 55L44 55L44 54L45 54L45 55L48 55L48 56L50 56L50 57L52 57L52 55L51 55L51 53L52 53L52 54L53 54L53 55L54 55L54 56L53 56L53 57L54 57L54 56L55 56L55 57L56 57L56 56L55 56L55 55L54 55L54 54L55 54L55 51L54 51L54 50L57 50L57 48L56 48L56 46L57 46L57 45L56 45L56 44L55 44L55 43L56 43L56 41L53 41L53 40L55 40L55 39L57 39L57 37L55 37L55 36L56 36L56 34L57 34L57 32L56 32L56 30L57 30L57 29L55 29L55 31L53 31L53 29L54 29L54 28L55 28L55 27L56 27L56 28L57 28L57 27L56 27L56 26L57 26L57 25L56 25L56 22L57 22L57 20L55 20L55 19L56 19L56 16L57 16L57 15L56 15L56 14L57 14L57 12L56 12L56 8L55 8L55 10L54 10L54 11L53 11L53 9L54 9L54 8L53 8L53 9L52 9L52 8L51 8L51 10L52 10L52 11L50 11L50 12L49 12L49 11L47 11L47 10L50 10L50 8L49 8L49 6L48 6L48 7L47 7L47 5L48 5L48 0L45 0L45 2L44 2L44 3L43 3L43 4L42 4L42 2L43 2L43 0L41 0L41 1L40 1L40 0L39 0L39 1L38 1L38 0L37 0L37 1L38 1L38 3L36 3L36 0L35 0L35 1L33 1L33 2L32 2L32 0L29 0L29 2L27 2L27 1L26 1L26 0L23 0L23 2L27 2L27 3L29 3L29 2L32 2L32 3L31 3L31 4L26 4L26 3L23 3L23 4L22 4L22 3L21 3L21 4L19 4L19 3L20 3L20 2L19 2L19 1L20 1L20 0L19 0L19 1L14 1L14 0L12 0L12 1L11 1L11 0ZM21 0L21 1L22 1L22 0ZM10 1L10 2L11 2L11 4L10 4L10 6L11 6L11 9L12 9L12 10L13 10L13 9L12 9L12 3L13 3L13 2L14 2L14 4L13 4L13 5L15 5L15 7L14 7L14 6L13 6L13 7L14 7L14 10L16 10L16 11L18 11L18 10L17 10L17 9L15 9L15 7L16 7L16 8L17 8L17 7L18 7L18 6L19 6L19 7L20 7L20 5L18 5L18 4L17 4L17 3L18 3L18 2L17 2L17 3L16 3L16 2L14 2L14 1L13 1L13 2L11 2L11 1ZM46 1L46 2L47 2L47 1ZM34 2L34 3L32 3L32 4L31 4L31 8L32 8L32 10L29 10L29 9L28 9L28 10L27 10L27 11L26 11L26 12L25 12L25 10L23 10L23 9L25 9L25 8L26 8L26 4L25 4L25 8L24 8L24 6L23 6L23 8L19 8L19 9L20 9L20 10L21 10L21 11L20 11L20 12L19 12L19 13L20 13L20 14L18 14L18 15L20 15L20 14L21 14L21 13L22 13L22 14L23 14L23 13L24 13L24 12L25 12L25 14L26 14L26 17L25 17L25 15L24 15L24 16L23 16L23 15L21 15L21 16L20 16L20 21L19 21L19 22L20 22L20 23L19 23L19 24L21 24L21 25L20 25L20 27L21 27L21 28L19 28L19 25L15 25L15 24L16 24L16 23L15 23L15 22L16 22L16 21L17 21L17 22L18 22L18 21L17 21L17 20L19 20L19 19L17 19L17 18L19 18L19 17L15 17L15 16L14 16L14 14L15 14L15 13L16 13L16 16L17 16L17 13L18 13L18 12L17 12L17 13L16 13L16 12L15 12L15 13L13 13L13 14L12 14L12 15L10 15L10 12L11 12L11 13L12 13L12 12L14 12L14 11L10 11L10 12L9 12L9 13L8 13L8 12L7 12L7 13L8 13L8 14L7 14L7 15L6 15L6 16L8 16L8 18L7 18L7 17L5 17L5 18L4 18L4 17L3 17L3 18L4 18L4 19L3 19L3 20L4 20L4 19L5 19L5 18L7 18L7 19L6 19L6 20L7 20L7 19L8 19L8 20L9 20L9 21L11 21L11 20L10 20L10 19L11 19L11 17L10 17L10 16L12 16L12 17L13 17L13 16L14 16L14 18L13 18L13 19L12 19L12 23L11 23L11 24L13 24L13 25L12 25L12 26L14 26L14 28L12 28L12 29L11 29L11 28L10 28L10 30L11 30L11 31L10 31L10 32L13 32L13 35L12 35L12 34L11 34L11 33L9 33L9 31L8 31L8 32L7 32L7 31L2 31L2 32L5 32L5 33L2 33L2 34L5 34L5 35L4 35L4 36L3 36L3 38L1 38L1 39L3 39L3 38L5 38L5 37L6 37L6 36L8 36L8 35L9 35L9 34L10 34L10 36L13 36L13 37L16 37L16 38L15 38L15 39L16 39L16 40L15 40L15 41L13 41L13 39L14 39L14 38L13 38L13 39L12 39L12 41L11 41L11 42L12 42L12 43L14 43L14 44L13 44L13 45L12 45L12 47L13 47L13 48L11 48L11 46L10 46L10 48L9 48L9 51L10 51L10 50L11 50L11 49L12 49L12 50L13 50L13 51L14 51L14 50L15 50L15 51L16 51L16 53L17 53L17 52L18 52L18 50L20 50L20 51L19 51L19 52L20 52L20 51L21 51L21 49L23 49L23 47L24 47L24 46L23 46L23 45L24 45L24 44L23 44L23 45L22 45L22 44L21 44L21 43L22 43L22 42L23 42L23 43L27 43L27 44L25 44L25 48L24 48L24 49L25 49L25 48L27 48L27 47L28 47L28 48L30 48L30 47L28 47L28 46L31 46L31 45L32 45L32 47L31 47L31 48L32 48L32 51L31 51L31 53L30 53L30 54L26 54L26 53L24 53L24 54L23 54L23 55L24 55L24 56L25 56L25 54L26 54L26 55L27 55L27 56L29 56L29 55L30 55L30 56L31 56L31 54L32 54L32 53L33 53L33 55L35 55L35 56L36 56L36 54L35 54L35 51L34 51L34 50L36 50L36 52L37 52L37 53L38 53L38 54L37 54L37 56L39 56L39 55L38 55L38 54L40 54L40 53L43 53L43 54L44 54L44 53L45 53L45 54L48 54L48 50L47 50L47 49L48 49L48 48L49 48L49 47L51 47L51 46L53 46L53 47L55 47L55 46L56 46L56 45L55 45L55 44L54 44L54 45L55 45L55 46L53 46L53 45L52 45L52 44L53 44L53 43L54 43L54 42L53 42L53 41L51 41L51 42L50 42L50 43L49 43L49 42L48 42L48 41L49 41L49 40L50 40L50 39L51 39L51 40L53 40L53 39L55 39L55 37L53 37L53 35L55 35L55 34L56 34L56 32L55 32L55 34L54 34L54 32L53 32L53 33L52 33L52 32L51 32L51 33L52 33L52 34L50 34L50 31L48 31L48 28L47 28L47 29L46 29L46 30L47 30L47 31L46 31L46 32L43 32L43 31L45 31L45 28L46 28L46 27L48 27L48 26L47 26L47 25L45 25L45 23L46 23L46 24L47 24L47 23L46 23L46 22L47 22L47 20L44 20L44 18L45 18L45 19L48 19L48 18L47 18L47 17L50 17L50 18L49 18L49 19L50 19L50 18L51 18L51 19L52 19L52 20L51 20L51 21L49 21L49 22L48 22L48 24L49 24L49 23L50 23L50 24L51 24L51 25L50 25L50 26L51 26L51 25L55 25L55 26L56 26L56 25L55 25L55 24L53 24L53 23L55 23L55 22L56 22L56 21L55 21L55 20L53 20L53 19L52 19L52 18L51 18L51 17L53 17L53 18L55 18L55 17L53 17L53 16L52 16L52 15L51 15L51 17L50 17L50 14L51 14L51 12L50 12L50 14L49 14L49 15L48 15L48 16L47 16L47 15L46 15L46 16L47 16L47 17L45 17L45 14L47 14L47 13L49 13L49 12L45 12L45 11L46 11L46 10L47 10L47 9L46 9L46 8L47 8L47 7L46 7L46 6L45 6L45 4L46 4L46 5L47 5L47 3L44 3L44 6L43 6L43 7L44 7L44 9L43 9L43 10L44 10L44 9L46 9L46 10L45 10L45 11L41 11L41 12L39 12L39 13L38 13L38 14L37 14L37 13L35 13L35 12L37 12L37 11L38 11L38 10L39 10L39 9L42 9L42 8L41 8L41 7L42 7L42 6L41 6L41 5L40 5L40 4L41 4L41 3L38 3L38 6L37 6L37 7L36 7L36 5L37 5L37 4L36 4L36 5L35 5L35 4L34 4L34 3L35 3L35 2ZM15 4L15 5L16 5L16 4ZM21 4L21 5L22 5L22 4ZM23 4L23 5L24 5L24 4ZM32 4L32 5L34 5L34 7L33 7L33 6L32 6L32 7L33 7L33 9L34 9L34 8L35 8L35 9L37 9L37 10L36 10L36 11L37 11L37 10L38 10L38 8L40 8L40 7L41 7L41 6L40 6L40 5L39 5L39 6L38 6L38 7L37 7L37 8L35 8L35 5L34 5L34 4ZM17 5L17 6L16 6L16 7L17 7L17 6L18 6L18 5ZM27 5L27 8L30 8L30 5ZM21 6L21 7L22 7L22 6ZM28 6L28 7L29 7L29 6ZM39 6L39 7L40 7L40 6ZM44 6L44 7L45 7L45 6ZM0 8L0 10L2 10L2 11L1 11L1 12L0 12L0 13L1 13L1 12L3 12L3 11L5 11L5 8ZM3 9L3 10L4 10L4 9ZM21 9L21 10L22 10L22 11L21 11L21 12L20 12L20 13L21 13L21 12L22 12L22 13L23 13L23 12L24 12L24 11L23 11L23 10L22 10L22 9ZM32 10L32 12L31 12L31 13L30 13L30 14L29 14L29 13L28 13L28 12L29 12L29 11L27 11L27 12L26 12L26 14L27 14L27 13L28 13L28 14L29 14L29 16L28 16L28 15L27 15L27 16L28 16L28 17L26 17L26 19L25 19L25 17L22 17L22 16L21 16L21 17L22 17L22 18L21 18L21 21L22 21L22 22L24 22L24 21L25 21L25 22L26 22L26 23L25 23L25 24L24 24L24 23L23 23L23 24L24 24L24 25L22 25L22 26L21 26L21 27L22 27L22 26L24 26L24 27L23 27L23 28L24 28L24 29L23 29L23 31L20 31L20 29L18 29L18 28L16 28L16 29L14 29L14 30L13 30L13 29L12 29L12 31L13 31L13 32L14 32L14 33L18 33L18 34L16 34L16 35L13 35L13 36L16 36L16 35L18 35L18 34L19 34L19 35L20 35L20 36L22 36L22 33L21 33L21 32L23 32L23 31L24 31L24 30L25 30L25 31L26 31L26 32L25 32L25 33L23 33L23 34L24 34L24 36L23 36L23 37L19 37L19 36L17 36L17 38L20 38L20 39L19 39L19 40L18 40L18 39L17 39L17 42L16 42L16 44L18 44L18 45L17 45L17 48L16 48L16 47L15 47L15 44L14 44L14 49L13 49L13 50L14 50L14 49L15 49L15 50L16 50L16 49L21 49L21 48L18 48L18 47L23 47L23 46L22 46L22 45L21 45L21 44L20 44L20 43L19 43L19 42L20 42L20 41L19 41L19 40L22 40L22 39L24 39L24 40L25 40L25 37L26 37L26 39L27 39L27 41L26 41L26 42L27 42L27 41L28 41L28 39L27 39L27 38L28 38L28 37L27 37L27 36L26 36L26 35L27 35L27 34L26 34L26 35L25 35L25 33L27 33L27 32L28 32L28 33L29 33L29 34L30 34L30 36L29 36L29 37L31 37L31 38L29 38L29 39L33 39L33 40L35 40L35 42L37 42L37 43L36 43L36 44L35 44L35 43L34 43L34 42L33 42L33 41L32 41L32 40L30 40L30 41L29 41L29 42L28 42L28 45L26 45L26 47L27 47L27 46L28 46L28 45L29 45L29 44L33 44L33 43L34 43L34 45L35 45L35 46L33 46L33 47L32 47L32 48L33 48L33 47L35 47L35 46L37 46L37 47L36 47L36 48L34 48L34 49L33 49L33 50L34 50L34 49L36 49L36 50L38 50L38 52L39 52L39 51L40 51L40 52L41 52L41 50L42 50L42 52L43 52L43 53L44 53L44 52L45 52L45 53L47 53L47 51L46 51L46 50L45 50L45 51L44 51L44 48L43 48L43 47L45 47L45 49L47 49L47 48L48 48L48 47L49 47L49 45L47 45L47 43L48 43L48 42L47 42L47 43L46 43L46 42L45 42L45 41L44 41L44 40L45 40L45 39L46 39L46 41L47 41L47 39L50 39L50 38L48 38L48 37L50 37L50 36L51 36L51 37L52 37L52 35L53 35L53 34L52 34L52 35L50 35L50 34L48 34L48 35L50 35L50 36L48 36L48 37L47 37L47 36L46 36L46 35L44 35L44 33L43 33L43 32L41 32L41 33L39 33L39 34L40 34L40 35L39 35L39 37L40 37L40 38L41 38L41 39L42 39L42 38L43 38L43 37L44 37L44 38L45 38L45 39L44 39L44 40L42 40L42 41L39 41L39 42L38 42L38 40L39 40L39 38L38 38L38 37L37 37L37 36L38 36L38 33L37 33L37 32L34 32L34 31L36 31L36 30L37 30L37 29L38 29L38 28L40 28L40 26L39 26L39 27L37 27L37 28L36 28L36 26L34 26L34 27L33 27L33 26L32 26L32 24L33 24L33 25L37 25L37 26L38 26L38 24L39 24L39 23L38 23L38 21L39 21L39 22L40 22L40 24L41 24L41 22L43 22L43 23L44 23L44 20L43 20L43 18L44 18L44 15L42 15L42 16L41 16L41 14L44 14L44 12L43 12L43 13L39 13L39 14L38 14L38 15L39 15L39 16L38 16L38 17L37 17L37 16L35 16L35 14L32 14L32 12L33 12L33 13L34 13L34 12L33 12L33 10ZM52 12L52 13L53 13L53 12ZM54 12L54 13L55 13L55 14L53 14L53 15L55 15L55 14L56 14L56 13L55 13L55 12ZM2 13L2 14L3 14L3 13ZM30 14L30 15L31 15L31 16L32 16L32 19L33 19L33 18L35 18L35 19L34 19L34 20L32 20L32 21L31 21L31 20L30 20L30 19L31 19L31 18L30 18L30 19L28 19L28 18L27 18L27 19L26 19L26 20L25 20L25 21L28 21L28 22L27 22L27 23L29 23L29 24L25 24L25 25L26 25L26 26L25 26L25 27L24 27L24 28L25 28L25 29L26 29L26 28L25 28L25 27L26 27L26 26L27 26L27 25L28 25L28 26L29 26L29 25L30 25L30 24L32 24L32 23L35 23L35 21L34 21L34 20L35 20L35 19L36 19L36 20L37 20L37 21L38 21L38 19L39 19L39 17L41 17L41 16L39 16L39 17L38 17L38 18L37 18L37 17L35 17L35 16L33 16L33 15L32 15L32 14ZM9 15L9 16L10 16L10 15ZM42 16L42 17L43 17L43 16ZM1 18L1 19L2 19L2 18ZM8 18L8 19L9 19L9 18ZM15 18L15 19L16 19L16 20L15 20L15 21L16 21L16 20L17 20L17 19L16 19L16 18ZM22 18L22 21L24 21L24 20L23 20L23 19L24 19L24 18ZM41 18L41 19L42 19L42 18ZM13 19L13 20L14 20L14 19ZM39 20L39 21L42 21L42 20ZM3 21L3 22L4 22L4 23L5 23L5 22L7 22L7 23L6 23L6 24L5 24L5 26L9 26L9 27L11 27L11 26L9 26L9 25L8 25L8 24L9 24L9 22L8 22L8 21L5 21L5 22L4 22L4 21ZM13 21L13 23L14 23L14 21ZM30 21L30 22L29 22L29 23L30 23L30 22L31 22L31 21ZM45 21L45 22L46 22L46 21ZM51 21L51 22L50 22L50 23L51 23L51 24L52 24L52 23L53 23L53 21ZM1 23L1 24L2 24L2 26L4 26L4 24L2 24L2 23ZM7 23L7 24L6 24L6 25L7 25L7 24L8 24L8 23ZM17 23L17 24L18 24L18 23ZM37 23L37 24L38 24L38 23ZM43 24L43 25L41 25L41 26L44 26L44 27L43 27L43 28L45 28L45 27L46 27L46 26L44 26L44 24ZM15 26L15 27L16 27L16 26ZM17 26L17 27L18 27L18 26ZM31 26L31 27L32 27L32 33L33 33L33 35L35 35L35 36L32 36L32 37L33 37L33 39L35 39L35 40L38 40L38 38L37 38L37 39L35 39L35 36L37 36L37 34L35 34L35 33L33 33L33 30L35 30L35 28L33 28L33 27L32 27L32 26ZM53 26L53 27L54 27L54 26ZM5 27L5 30L8 30L8 27ZM27 27L27 30L30 30L30 27ZM41 27L41 28L42 28L42 27ZM49 27L49 30L52 30L52 27ZM3 28L3 29L4 29L4 28ZM6 28L6 29L7 29L7 28ZM21 28L21 29L22 29L22 28ZM28 28L28 29L29 29L29 28ZM50 28L50 29L51 29L51 28ZM16 29L16 31L15 31L15 30L14 30L14 32L18 32L18 31L19 31L19 32L20 32L20 31L19 31L19 30L18 30L18 29ZM39 29L39 30L38 30L38 32L39 32L39 30L40 30L40 29ZM41 29L41 30L44 30L44 29ZM28 31L28 32L29 32L29 33L31 33L31 31ZM47 31L47 32L46 32L46 33L47 33L47 32L48 32L48 33L49 33L49 32L48 32L48 31ZM6 32L6 33L7 33L7 32ZM19 33L19 34L20 34L20 35L21 35L21 33ZM6 34L6 35L5 35L5 36L6 36L6 35L8 35L8 34ZM31 34L31 35L32 35L32 34ZM42 34L42 35L41 35L41 36L40 36L40 37L41 37L41 38L42 38L42 37L43 37L43 36L44 36L44 37L45 37L45 38L46 38L46 39L47 39L47 37L45 37L45 36L44 36L44 35L43 35L43 34ZM42 35L42 36L41 36L41 37L42 37L42 36L43 36L43 35ZM23 37L23 38L24 38L24 37ZM51 38L51 39L52 39L52 38ZM18 41L18 42L17 42L17 43L18 43L18 42L19 42L19 41ZM23 41L23 42L25 42L25 41ZM30 41L30 42L32 42L32 43L33 43L33 42L32 42L32 41ZM43 41L43 42L44 42L44 41ZM41 42L41 43L40 43L40 44L39 44L39 45L38 45L38 46L39 46L39 45L41 45L41 44L42 44L42 42ZM51 42L51 43L50 43L50 45L51 45L51 43L53 43L53 42ZM44 43L44 46L47 46L47 47L48 47L48 46L47 46L47 45L45 45L45 44L46 44L46 43ZM3 44L3 45L2 45L2 46L1 46L1 47L2 47L2 46L3 46L3 47L5 47L5 46L4 46L4 44ZM6 44L6 45L8 45L8 44ZM19 45L19 46L21 46L21 45ZM41 46L41 48L39 48L39 47L38 47L38 48L37 48L37 49L38 49L38 50L41 50L41 48L42 48L42 49L43 49L43 48L42 48L42 47L43 47L43 46ZM6 48L6 49L7 49L7 48ZM10 48L10 49L11 49L11 48ZM15 48L15 49L16 49L16 48ZM38 48L38 49L39 49L39 48ZM53 48L53 49L54 49L54 48ZM55 48L55 49L56 49L56 48ZM27 49L27 52L30 52L30 49ZM49 49L49 52L52 52L52 49ZM28 50L28 51L29 51L29 50ZM50 50L50 51L51 51L51 50ZM11 51L11 52L12 52L12 53L13 53L13 52L12 52L12 51ZM32 51L32 52L33 52L33 53L34 53L34 52L33 52L33 51ZM45 51L45 52L46 52L46 51ZM56 51L56 53L57 53L57 51ZM9 52L9 53L10 53L10 54L9 54L9 55L10 55L10 54L11 54L11 53L10 53L10 52ZM53 52L53 53L54 53L54 52ZM17 54L17 55L19 55L19 54ZM50 55L50 56L51 56L51 55ZM46 56L46 57L47 57L47 56ZM0 0L0 7L7 7L7 0ZM1 1L1 6L6 6L6 1ZM2 2L2 5L5 5L5 2ZM50 0L50 7L57 7L57 0ZM51 1L51 6L56 6L56 1ZM52 2L52 5L55 5L55 2ZM0 50L0 57L7 57L7 50ZM1 51L1 56L6 56L6 51ZM2 52L2 55L5 55L5 52Z" fill="#000000"/></g></g></svg>
