<?xml version="1.0" encoding="UTF-8"?>
<svg xmlns="http://www.w3.org/2000/svg" version="1.1" width="300" height="300" viewBox="0 0 300 300"><rect x="0" y="0" width="300" height="300" fill="#fefefe"/><g transform="scale(4.615)"><g transform="translate(4,4)"><path fill-rule="evenodd" d="M10 0L10 2L9 2L9 1L8 1L8 2L9 2L9 3L8 3L8 4L9 4L9 5L8 5L8 7L9 7L9 8L6 8L6 9L7 9L7 10L4 10L4 11L5 11L5 12L1 12L1 11L2 11L2 10L3 10L3 9L5 9L5 8L0 8L0 10L1 10L1 11L0 11L0 13L1 13L1 15L2 15L2 16L4 16L4 17L1 17L1 18L0 18L0 19L1 19L1 18L3 18L3 19L5 19L5 17L7 17L7 18L6 18L6 19L7 19L7 20L6 20L6 21L8 21L8 22L9 22L9 23L10 23L10 22L9 22L9 21L10 21L10 19L11 19L11 24L12 24L12 25L11 25L11 27L10 27L10 26L9 26L9 24L8 24L8 23L7 23L7 22L6 22L6 23L5 23L5 22L4 22L4 20L3 20L3 22L2 22L2 23L1 23L1 22L0 22L0 24L2 24L2 25L1 25L1 26L0 26L0 28L2 28L2 30L1 30L1 29L0 29L0 30L1 30L1 31L0 31L0 32L1 32L1 33L0 33L0 34L1 34L1 35L0 35L0 36L2 36L2 33L3 33L3 36L4 36L4 35L5 35L5 36L6 36L6 37L7 37L7 38L5 38L5 37L4 37L4 38L5 38L5 39L3 39L3 38L2 38L2 37L1 37L1 39L0 39L0 40L1 40L1 43L0 43L0 44L1 44L1 43L2 43L2 44L3 44L3 45L4 45L4 46L5 46L5 47L3 47L3 46L2 46L2 47L1 47L1 46L0 46L0 48L5 48L5 47L7 47L7 48L6 48L6 49L7 49L7 48L8 48L8 51L9 51L9 52L8 52L8 57L9 57L9 55L11 55L11 56L10 56L10 57L12 57L12 54L14 54L14 53L13 53L13 52L14 52L14 51L17 51L17 50L19 50L19 52L17 52L17 53L16 53L16 52L15 52L15 53L16 53L16 54L15 54L15 55L16 55L16 56L14 56L14 55L13 55L13 56L14 56L14 57L16 57L16 56L17 56L17 57L20 57L20 56L17 56L17 54L19 54L19 55L20 55L20 54L19 54L19 53L20 53L20 52L23 52L23 50L25 50L25 51L26 51L26 53L25 53L25 52L24 52L24 53L23 53L23 54L21 54L21 55L23 55L23 57L26 57L26 56L27 56L27 57L29 57L29 56L30 56L30 57L31 57L31 56L35 56L35 57L39 57L39 56L37 56L37 54L38 54L38 55L41 55L41 56L42 56L42 55L44 55L44 54L45 54L45 55L47 55L47 56L46 56L46 57L48 57L48 56L50 56L50 57L52 57L52 55L51 55L51 53L52 53L52 54L53 54L53 52L54 52L54 54L55 54L55 52L57 52L57 51L56 51L56 50L57 50L57 48L56 48L56 46L57 46L57 43L56 43L56 42L57 42L57 41L56 41L56 42L55 42L55 39L57 39L57 35L56 35L56 33L57 33L57 32L56 32L56 30L57 30L57 28L55 28L55 27L56 27L56 26L57 26L57 25L56 25L56 22L57 22L57 21L56 21L56 18L57 18L57 17L56 17L56 16L57 16L57 15L56 15L56 14L57 14L57 12L55 12L55 11L56 11L56 8L55 8L55 10L54 10L54 11L51 11L51 10L53 10L53 9L54 9L54 8L53 8L53 9L52 9L52 8L51 8L51 10L50 10L50 8L49 8L49 6L48 6L48 7L47 7L47 5L48 5L48 0L45 0L45 2L44 2L44 3L43 3L43 4L40 4L40 5L39 5L39 6L38 6L38 4L37 4L37 3L36 3L36 0L35 0L35 1L33 1L33 0L32 0L32 3L30 3L30 2L31 2L31 0L29 0L29 1L28 1L28 0L27 0L27 1L26 1L26 0L23 0L23 2L22 2L22 0L21 0L21 3L23 3L23 4L24 4L24 5L23 5L23 6L22 6L22 8L23 8L23 6L24 6L24 9L23 9L23 10L22 10L22 11L21 11L21 10L20 10L20 9L19 9L19 8L21 8L21 5L22 5L22 4L19 4L19 3L20 3L20 0L19 0L19 1L17 1L17 2L16 2L16 3L17 3L17 6L16 6L16 7L15 7L15 6L14 6L14 8L11 8L11 6L10 6L10 7L9 7L9 5L10 5L10 2L11 2L11 4L14 4L14 2L15 2L15 1L14 1L14 0L13 0L13 1L12 1L12 0ZM37 0L37 1L38 1L38 2L39 2L39 3L42 3L42 2L43 2L43 0L41 0L41 1L40 1L40 0L39 0L39 1L38 1L38 0ZM13 1L13 2L12 2L12 3L13 3L13 2L14 2L14 1ZM25 1L25 2L23 2L23 3L26 3L26 4L25 4L25 8L26 8L26 4L29 4L29 2L26 2L26 1ZM46 1L46 2L47 2L47 1ZM18 2L18 3L19 3L19 2ZM33 2L33 3L32 3L32 4L31 4L31 8L32 8L32 10L31 10L31 11L30 11L30 10L29 10L29 12L28 12L28 13L27 13L27 15L26 15L26 12L27 12L27 11L28 11L28 10L27 10L27 11L26 11L26 12L25 12L25 10L24 10L24 13L22 13L22 12L21 12L21 11L20 11L20 14L17 14L17 13L18 13L18 12L17 12L17 11L18 11L18 10L19 10L19 9L18 9L18 10L17 10L17 9L16 9L16 8L19 8L19 7L20 7L20 5L18 5L18 6L17 6L17 7L16 7L16 8L14 8L14 10L15 10L15 13L13 13L13 14L12 14L12 9L11 9L11 10L10 10L10 8L9 8L9 9L8 9L8 11L6 11L6 12L5 12L5 13L4 13L4 14L3 14L3 13L2 13L2 14L3 14L3 15L4 15L4 16L8 16L8 13L6 13L6 12L8 12L8 11L9 11L9 12L10 12L10 13L9 13L9 14L11 14L11 15L9 15L9 17L8 17L8 18L9 18L9 19L8 19L8 21L9 21L9 19L10 19L10 18L11 18L11 16L12 16L12 15L14 15L14 17L15 17L15 18L12 18L12 22L13 22L13 23L14 23L14 22L16 22L16 21L17 21L17 24L16 24L16 23L15 23L15 24L16 24L16 25L15 25L15 26L14 26L14 25L12 25L12 27L13 27L13 26L14 26L14 29L12 29L12 30L11 30L11 29L10 29L10 30L11 30L11 32L9 32L9 31L5 31L5 32L9 32L9 33L6 33L6 34L7 34L7 35L6 35L6 36L7 36L7 37L8 37L8 36L7 36L7 35L9 35L9 38L7 38L7 39L6 39L6 40L7 40L7 39L11 39L11 40L9 40L9 42L10 42L10 43L9 43L9 44L8 44L8 41L6 41L6 42L5 42L5 41L4 41L4 40L3 40L3 42L2 42L2 43L4 43L4 42L5 42L5 44L4 44L4 45L6 45L6 46L7 46L7 47L8 47L8 48L9 48L9 47L8 47L8 46L9 46L9 44L10 44L10 47L11 47L11 48L10 48L10 50L9 50L9 51L10 51L10 50L12 50L12 51L13 51L13 46L12 46L12 47L11 47L11 45L13 45L13 44L14 44L14 43L15 43L15 45L14 45L14 46L15 46L15 47L14 47L14 48L15 48L15 47L16 47L16 48L19 48L19 49L20 49L20 51L21 51L21 49L23 49L23 48L24 48L24 49L25 49L25 48L30 48L30 47L29 47L29 46L30 46L30 45L31 45L31 44L30 44L30 45L27 45L27 44L28 44L28 43L27 43L27 42L29 42L29 40L30 40L30 42L32 42L32 43L33 43L33 44L32 44L32 47L31 47L31 48L32 48L32 49L31 49L31 50L36 50L36 52L37 52L37 53L38 53L38 54L40 54L40 53L41 53L41 52L43 52L43 51L44 51L44 50L45 50L45 51L47 51L47 53L45 53L45 52L44 52L44 53L43 53L43 54L44 54L44 53L45 53L45 54L48 54L48 50L47 50L47 49L48 49L48 48L49 48L49 47L48 47L48 45L49 45L49 44L50 44L50 47L51 47L51 46L53 46L53 47L54 47L54 46L56 46L56 43L55 43L55 44L54 44L54 45L53 45L53 43L54 43L54 42L53 42L53 41L51 41L51 42L50 42L50 43L49 43L49 42L48 42L48 41L49 41L49 40L50 40L50 39L51 39L51 38L52 38L52 39L54 39L54 38L53 38L53 35L55 35L55 37L56 37L56 35L55 35L55 34L54 34L54 33L52 33L52 32L51 32L51 33L52 33L52 34L50 34L50 32L49 32L49 31L48 31L48 27L47 27L47 26L48 26L48 25L49 25L49 26L53 26L53 27L54 27L54 26L53 26L53 23L55 23L55 22L56 22L56 21L55 21L55 20L53 20L53 19L52 19L52 18L51 18L51 17L53 17L53 18L55 18L55 17L53 17L53 15L55 15L55 14L56 14L56 13L55 13L55 12L54 12L54 13L53 13L53 12L52 12L52 13L53 13L53 15L52 15L52 16L51 16L51 15L50 15L50 14L51 14L51 12L50 12L50 10L47 10L47 9L49 9L49 8L47 8L47 9L46 9L46 8L45 8L45 7L46 7L46 6L45 6L45 4L46 4L46 5L47 5L47 3L44 3L44 6L43 6L43 5L40 5L40 6L39 6L39 9L38 9L38 6L37 6L37 7L36 7L36 5L37 5L37 4L36 4L36 5L35 5L35 2ZM15 4L15 5L16 5L16 4ZM32 4L32 5L33 5L33 4ZM12 5L12 7L13 7L13 5ZM27 5L27 8L30 8L30 5ZM34 5L34 7L33 7L33 6L32 6L32 7L33 7L33 9L34 9L34 8L35 8L35 9L37 9L37 10L36 10L36 12L35 12L35 13L37 13L37 14L38 14L38 15L39 15L39 16L38 16L38 17L37 17L37 16L35 16L35 14L32 14L32 12L33 12L33 13L34 13L34 12L33 12L33 10L32 10L32 12L31 12L31 13L30 13L30 14L29 14L29 13L28 13L28 14L29 14L29 16L28 16L28 15L27 15L27 16L28 16L28 17L26 17L26 15L25 15L25 13L24 13L24 14L22 14L22 13L21 13L21 14L20 14L20 15L23 15L23 16L24 16L24 15L25 15L25 17L22 17L22 16L20 16L20 17L19 17L19 16L18 16L18 15L17 15L17 16L16 16L16 13L17 13L17 12L16 12L16 13L15 13L15 14L14 14L14 15L15 15L15 17L17 17L17 18L15 18L15 19L19 19L19 20L17 20L17 21L20 21L20 19L19 19L19 18L20 18L20 17L22 17L22 19L21 19L21 20L24 20L24 21L22 21L22 22L24 22L24 21L25 21L25 22L26 22L26 23L25 23L25 24L24 24L24 23L23 23L23 24L24 24L24 25L22 25L22 24L17 24L17 25L18 25L18 26L15 26L15 28L16 28L16 29L15 29L15 30L12 30L12 33L13 33L13 32L14 32L14 34L11 34L11 35L12 35L12 37L11 37L11 36L10 36L10 37L11 37L11 38L12 38L12 37L13 37L13 35L15 35L15 36L14 36L14 37L15 37L15 38L14 38L14 39L15 39L15 41L19 41L19 42L18 42L18 43L16 43L16 44L18 44L18 45L17 45L17 46L18 46L18 47L19 47L19 48L20 48L20 45L21 45L21 47L25 47L25 45L24 45L24 44L23 44L23 43L25 43L25 44L27 44L27 43L25 43L25 41L24 41L24 40L25 40L25 37L26 37L26 35L27 35L27 34L26 34L26 35L25 35L25 33L26 33L26 32L27 32L27 31L28 31L28 33L29 33L29 34L30 34L30 36L29 36L29 37L31 37L31 38L29 38L29 39L33 39L33 40L35 40L35 42L37 42L37 43L36 43L36 44L35 44L35 43L34 43L34 42L33 42L33 41L32 41L32 40L31 40L31 41L32 41L32 42L33 42L33 43L34 43L34 45L36 45L36 46L37 46L37 47L36 47L36 48L34 48L34 47L35 47L35 46L33 46L33 47L32 47L32 48L33 48L33 49L36 49L36 50L38 50L38 53L39 53L39 51L40 51L40 52L41 52L41 50L42 50L42 51L43 51L43 49L44 49L44 48L45 48L45 47L47 47L47 48L48 48L48 47L47 47L47 46L45 46L45 45L47 45L47 43L48 43L48 42L47 42L47 43L46 43L46 44L45 44L45 43L44 43L44 41L43 41L43 40L45 40L45 39L43 39L43 40L42 40L42 41L41 41L41 42L42 42L42 44L41 44L41 46L40 46L40 47L39 47L39 46L38 46L38 45L39 45L39 44L40 44L40 43L39 43L39 42L40 42L40 41L39 41L39 42L38 42L38 40L40 40L40 39L38 39L38 40L35 40L35 39L37 39L37 38L38 38L38 37L40 37L40 38L43 38L43 37L44 37L44 38L45 38L45 37L46 37L46 36L47 36L47 34L45 34L45 33L47 33L47 32L48 32L48 33L49 33L49 32L48 32L48 31L47 31L47 30L46 30L46 29L47 29L47 27L46 27L46 26L45 26L45 27L44 27L44 26L43 26L43 25L44 25L44 24L43 24L43 25L42 25L42 24L41 24L41 22L42 22L42 23L44 23L44 20L45 20L45 21L47 21L47 22L45 22L45 24L46 24L46 25L48 25L48 23L49 23L49 21L51 21L51 22L50 22L50 24L49 24L49 25L51 25L51 23L53 23L53 21L51 21L51 20L52 20L52 19L50 19L50 17L47 17L47 18L48 18L48 19L47 19L47 20L46 20L46 18L44 18L44 15L47 15L47 16L48 16L48 15L49 15L49 16L50 16L50 15L49 15L49 14L50 14L50 12L49 12L49 11L48 11L48 12L49 12L49 13L47 13L47 14L44 14L44 12L43 12L43 13L41 13L41 14L43 14L43 15L42 15L42 16L41 16L41 15L40 15L40 14L38 14L38 13L40 13L40 12L41 12L41 10L43 10L43 11L45 11L45 12L47 12L47 10L46 10L46 9L44 9L44 8L43 8L43 6L42 6L42 7L41 7L41 6L40 6L40 7L41 7L41 8L42 8L42 9L40 9L40 10L39 10L39 11L37 11L37 10L38 10L38 9L37 9L37 8L35 8L35 5ZM18 6L18 7L19 7L19 6ZM28 6L28 7L29 7L29 6ZM44 6L44 7L45 7L45 6ZM1 9L1 10L2 10L2 9ZM15 9L15 10L16 10L16 9ZM43 9L43 10L44 10L44 9ZM9 10L9 11L10 11L10 10ZM45 10L45 11L46 11L46 10ZM13 11L13 12L14 12L14 11ZM39 11L39 12L40 12L40 11ZM5 13L5 14L4 14L4 15L5 15L5 14L6 14L6 15L7 15L7 14L6 14L6 13ZM30 14L30 15L32 15L32 14ZM32 16L32 19L33 19L33 18L34 18L34 19L36 19L36 20L38 20L38 22L39 22L39 23L37 23L37 24L39 24L39 25L38 25L38 26L37 26L37 25L33 25L33 24L32 24L32 23L33 23L33 22L34 22L34 23L35 23L35 21L33 21L33 20L32 20L32 21L31 21L31 20L30 20L30 19L31 19L31 18L30 18L30 19L29 19L29 20L27 20L27 19L28 19L28 18L27 18L27 19L26 19L26 21L28 21L28 22L27 22L27 23L28 23L28 24L25 24L25 25L26 25L26 26L24 26L24 27L26 27L26 26L29 26L29 25L31 25L31 24L32 24L32 26L31 26L31 27L32 27L32 30L31 30L31 31L29 31L29 33L31 33L31 34L33 34L33 36L32 36L32 37L33 37L33 38L34 38L34 39L35 39L35 37L33 37L33 36L34 36L34 34L35 34L35 36L37 36L37 37L38 37L38 35L40 35L40 34L39 34L39 33L41 33L41 32L43 32L43 33L45 33L45 32L43 32L43 31L44 31L44 30L45 30L45 28L46 28L46 27L45 27L45 28L44 28L44 27L43 27L43 26L42 26L42 28L41 28L41 26L39 26L39 25L41 25L41 24L39 24L39 23L40 23L40 22L39 22L39 21L43 21L43 20L44 20L44 18L43 18L43 19L42 19L42 18L41 18L41 20L38 20L38 19L39 19L39 17L41 17L41 16L39 16L39 17L38 17L38 18L37 18L37 17L35 17L35 16ZM42 16L42 17L43 17L43 16ZM45 16L45 17L46 17L46 16ZM9 17L9 18L10 18L10 17ZM25 17L25 18L26 18L26 17ZM23 18L23 19L24 19L24 18ZM13 19L13 20L14 20L14 19ZM0 20L0 21L1 21L1 20ZM15 20L15 21L16 21L16 20ZM13 21L13 22L14 22L14 21ZM29 21L29 22L30 22L30 23L31 23L31 21ZM19 22L19 23L20 23L20 22ZM3 23L3 26L1 26L1 27L2 27L2 28L3 28L3 30L4 30L4 24L5 24L5 26L7 26L7 25L8 25L8 24L7 24L7 23L6 23L6 24L5 24L5 23ZM46 23L46 24L47 24L47 23ZM6 24L6 25L7 25L7 24ZM20 25L20 27L19 27L19 26L18 26L18 27L17 27L17 28L18 28L18 29L16 29L16 31L14 31L14 32L16 32L16 33L15 33L15 35L16 35L16 34L17 34L17 36L15 36L15 37L16 37L16 38L15 38L15 39L16 39L16 40L19 40L19 39L20 39L20 38L19 38L19 37L21 37L21 38L22 38L22 39L23 39L23 40L20 40L20 42L21 42L21 43L20 43L20 44L19 44L19 45L20 45L20 44L21 44L21 45L22 45L22 46L24 46L24 45L22 45L22 44L21 44L21 43L22 43L22 42L23 42L23 40L24 40L24 39L23 39L23 38L24 38L24 37L23 37L23 36L24 36L24 34L23 34L23 33L25 33L25 32L26 32L26 31L25 31L25 32L20 32L20 31L23 31L23 29L24 29L24 28L23 28L23 26L22 26L22 25ZM55 25L55 26L56 26L56 25ZM21 26L21 27L22 27L22 26ZM32 26L32 27L33 27L33 28L35 28L35 29L38 29L38 28L40 28L40 27L37 27L37 28L35 28L35 27L36 27L36 26L34 26L34 27L33 27L33 26ZM5 27L5 30L8 30L8 27ZM9 27L9 28L10 28L10 27ZM27 27L27 30L30 30L30 27ZM49 27L49 30L52 30L52 27ZM6 28L6 29L7 29L7 28ZM21 28L21 29L22 29L22 28ZM25 28L25 29L26 29L26 28ZM28 28L28 29L29 29L29 28ZM43 28L43 29L41 29L41 30L43 30L43 29L44 29L44 28ZM50 28L50 29L51 29L51 28ZM54 28L54 29L53 29L53 30L54 30L54 29L55 29L55 28ZM18 29L18 31L19 31L19 30L20 30L20 29ZM39 29L39 30L38 30L38 32L39 32L39 30L40 30L40 29ZM32 30L32 31L31 31L31 33L32 33L32 31L34 31L34 32L33 32L33 34L34 34L34 33L35 33L35 34L37 34L37 35L38 35L38 33L37 33L37 32L35 32L35 31L36 31L36 30ZM1 31L1 32L2 32L2 31ZM17 32L17 34L18 34L18 33L19 33L19 34L20 34L20 35L18 35L18 36L17 36L17 39L19 39L19 38L18 38L18 37L19 37L19 36L20 36L20 35L22 35L22 36L23 36L23 35L22 35L22 33L21 33L21 34L20 34L20 33L19 33L19 32ZM55 32L55 33L56 33L56 32ZM4 33L4 34L5 34L5 33ZM9 33L9 34L10 34L10 33ZM42 34L42 35L43 35L43 36L40 36L40 37L43 37L43 36L44 36L44 37L45 37L45 36L46 36L46 35L45 35L45 34ZM48 34L48 35L50 35L50 38L48 38L48 37L49 37L49 36L48 36L48 37L47 37L47 39L46 39L46 41L47 41L47 39L50 39L50 38L51 38L51 37L52 37L52 35L53 35L53 34L52 34L52 35L50 35L50 34ZM44 35L44 36L45 36L45 35ZM27 37L27 38L26 38L26 39L27 39L27 41L26 41L26 42L27 42L27 41L28 41L28 39L27 39L27 38L28 38L28 37ZM1 39L1 40L2 40L2 39ZM12 39L12 42L13 42L13 43L14 43L14 40L13 40L13 39ZM10 41L10 42L11 42L11 41ZM6 42L6 43L7 43L7 42ZM51 42L51 43L50 43L50 44L51 44L51 43L53 43L53 42ZM10 43L10 44L12 44L12 43ZM43 43L43 44L44 44L44 45L43 45L43 46L41 46L41 48L39 48L39 47L38 47L38 48L37 48L37 49L38 49L38 50L41 50L41 48L42 48L42 49L43 49L43 48L44 48L44 45L45 45L45 44L44 44L44 43ZM6 44L6 45L7 45L7 46L8 46L8 45L7 45L7 44ZM26 45L26 47L27 47L27 45ZM42 47L42 48L43 48L43 47ZM38 48L38 49L39 49L39 48ZM53 48L53 49L54 49L54 48ZM55 48L55 49L56 49L56 48ZM15 49L15 50L17 50L17 49ZM27 49L27 52L30 52L30 49ZM49 49L49 52L52 52L52 49ZM28 50L28 51L29 51L29 50ZM50 50L50 51L51 51L51 50ZM54 50L54 51L55 51L55 50ZM31 51L31 53L30 53L30 54L26 54L26 55L27 55L27 56L29 56L29 55L30 55L30 56L31 56L31 54L32 54L32 53L33 53L33 55L35 55L35 56L36 56L36 54L35 54L35 53L34 53L34 52L35 52L35 51L33 51L33 52L32 52L32 51ZM9 52L9 54L10 54L10 52ZM24 53L24 54L23 54L23 55L24 55L24 56L25 56L25 53ZM41 54L41 55L42 55L42 54ZM50 55L50 56L51 56L51 55ZM53 55L53 56L55 56L55 57L56 57L56 56L55 56L55 55ZM43 56L43 57L44 57L44 56ZM0 0L0 7L7 7L7 0ZM1 1L1 6L6 6L6 1ZM2 2L2 5L5 5L5 2ZM50 0L50 7L57 7L57 0ZM51 1L51 6L56 6L56 1ZM52 2L52 5L55 5L55 2ZM0 50L0 57L7 57L7 50ZM1 51L1 56L6 56L6 51ZM2 52L2 55L5 55L5 52Z" fill="#000000"/></g></g></svg>
