<?xml version="1.0" encoding="UTF-8"?>
<svg xmlns="http://www.w3.org/2000/svg" version="1.1" width="300" height="300" viewBox="0 0 300 300"><rect x="0" y="0" width="300" height="300" fill="#fefefe"/><g transform="scale(4.615)"><g transform="translate(4,4)"><path fill-rule="evenodd" d="M8 0L8 1L9 1L9 2L8 2L8 5L9 5L9 6L8 6L8 7L9 7L9 6L10 6L10 7L11 7L11 6L12 6L12 7L13 7L13 8L12 8L12 13L11 13L11 11L10 11L10 9L11 9L11 8L10 8L10 9L9 9L9 8L8 8L8 9L9 9L9 11L8 11L8 12L6 12L6 11L7 11L7 10L6 10L6 9L7 9L7 8L6 8L6 9L5 9L5 10L3 10L3 9L4 9L4 8L0 8L0 9L2 9L2 11L3 11L3 12L2 12L2 13L1 13L1 14L2 14L2 13L3 13L3 14L6 14L6 15L3 15L3 17L2 17L2 18L1 18L1 16L2 16L2 15L0 15L0 18L1 18L1 19L2 19L2 20L0 20L0 21L2 21L2 20L4 20L4 19L3 19L3 17L4 17L4 18L5 18L5 17L7 17L7 16L6 16L6 15L7 15L7 14L6 14L6 13L8 13L8 14L11 14L11 15L10 15L10 16L9 16L9 15L8 15L8 16L9 16L9 17L10 17L10 16L11 16L11 17L12 17L12 18L13 18L13 17L16 17L16 18L17 18L17 19L18 19L18 20L19 20L19 17L18 17L18 18L17 18L17 16L16 16L16 15L18 15L18 14L16 14L16 15L15 15L15 12L16 12L16 13L17 13L17 12L18 12L18 13L19 13L19 15L21 15L21 11L23 11L23 12L22 12L22 13L23 13L23 14L24 14L24 15L25 15L25 16L23 16L23 18L24 18L24 19L25 19L25 22L24 22L24 21L23 21L23 19L22 19L22 17L21 17L21 19L20 19L20 20L21 20L21 21L22 21L22 22L19 22L19 23L17 23L17 22L18 22L18 21L17 21L17 20L16 20L16 19L13 19L13 20L12 20L12 21L11 21L11 20L10 20L10 19L9 19L9 18L8 18L8 19L9 19L9 21L8 21L8 20L6 20L6 19L7 19L7 18L6 18L6 19L5 19L5 21L3 21L3 22L6 22L6 23L4 23L4 24L6 24L6 25L10 25L10 26L5 26L5 25L4 25L4 26L3 26L3 25L2 25L2 23L1 23L1 22L0 22L0 24L1 24L1 25L0 25L0 26L3 26L3 29L2 29L2 28L1 28L1 29L0 29L0 30L1 30L1 31L2 31L2 32L6 32L6 33L7 33L7 34L5 34L5 33L4 33L4 34L3 34L3 33L2 33L2 35L3 35L3 36L2 36L2 37L3 37L3 38L4 38L4 39L8 39L8 40L5 40L5 43L4 43L4 42L3 42L3 41L4 41L4 40L1 40L1 37L0 37L0 43L2 43L2 44L0 44L0 45L1 45L1 46L0 46L0 48L5 48L5 47L7 47L7 48L6 48L6 49L7 49L7 48L8 48L8 50L10 50L10 51L11 51L11 52L9 52L9 53L8 53L8 57L10 57L10 56L11 56L11 57L12 57L12 56L14 56L14 57L18 57L18 55L20 55L20 56L19 56L19 57L24 57L24 56L25 56L25 55L24 55L24 56L22 56L22 55L23 55L23 54L25 54L25 53L29 53L29 54L31 54L31 55L30 55L30 56L31 56L31 57L32 57L32 55L34 55L34 56L33 56L33 57L36 57L36 55L37 55L37 54L36 54L36 53L35 53L35 52L36 52L36 51L37 51L37 52L38 52L38 53L39 53L39 54L38 54L38 57L42 57L42 56L43 56L43 55L44 55L44 56L45 56L45 57L47 57L47 55L49 55L49 56L48 56L48 57L51 57L51 54L52 54L52 53L54 53L54 52L55 52L55 54L56 54L56 53L57 53L57 51L56 51L56 52L55 52L55 50L56 50L56 49L57 49L57 48L56 48L56 49L55 49L55 48L54 48L54 47L53 47L53 46L55 46L55 47L57 47L57 45L56 45L56 46L55 46L55 44L56 44L56 41L57 41L57 40L56 40L56 41L55 41L55 42L54 42L54 40L55 40L55 38L56 38L56 39L57 39L57 38L56 38L56 37L57 37L57 34L55 34L55 33L57 33L57 31L56 31L56 30L57 30L57 28L56 28L56 27L53 27L53 25L51 25L51 24L49 24L49 23L48 23L48 24L47 24L47 26L46 26L46 24L45 24L45 25L44 25L44 23L47 23L47 22L49 22L49 20L50 20L50 21L51 21L51 22L52 22L52 23L53 23L53 24L54 24L54 23L53 23L53 20L50 20L50 19L49 19L49 18L48 18L48 17L47 17L47 16L48 16L48 14L47 14L47 16L46 16L46 15L45 15L45 14L46 14L46 13L45 13L45 14L42 14L42 17L41 17L41 18L39 18L39 19L40 19L40 20L38 20L38 19L36 19L36 20L35 20L35 19L34 19L34 20L35 20L35 22L38 22L38 21L39 21L39 23L37 23L37 24L36 24L36 23L35 23L35 24L33 24L33 22L32 22L32 23L31 23L31 26L27 26L27 25L25 25L25 22L28 22L28 24L29 24L29 25L30 25L30 24L29 24L29 22L31 22L31 20L32 20L32 18L35 18L35 17L34 17L34 16L35 16L35 15L36 15L36 13L37 13L37 15L39 15L39 17L40 17L40 16L41 16L41 15L39 15L39 14L40 14L40 11L42 11L42 12L43 12L43 13L44 13L44 12L43 12L43 11L44 11L44 10L45 10L45 11L47 11L47 10L49 10L49 17L50 17L50 15L51 15L51 13L52 13L52 14L53 14L53 16L55 16L55 17L54 17L54 18L52 18L52 16L51 16L51 18L52 18L52 19L56 19L56 18L57 18L57 15L54 15L54 14L53 14L53 13L54 13L54 10L53 10L53 9L55 9L55 11L56 11L56 12L55 12L55 13L56 13L56 12L57 12L57 10L56 10L56 9L57 9L57 8L56 8L56 9L55 9L55 8L52 8L52 9L51 9L51 10L50 10L50 8L49 8L49 6L48 6L48 7L47 7L47 5L48 5L48 0L46 0L46 1L47 1L47 2L46 2L46 3L47 3L47 5L46 5L46 7L45 7L45 6L44 6L44 7L43 7L43 5L45 5L45 4L44 4L44 3L45 3L45 1L44 1L44 2L42 2L42 3L41 3L41 4L38 4L38 2L37 2L37 1L38 1L38 0L37 0L37 1L36 1L36 0L35 0L35 1L34 1L34 2L31 2L31 3L30 3L30 2L29 2L29 3L30 3L30 4L28 4L28 2L27 2L27 4L26 4L26 0L23 0L23 1L25 1L25 2L24 2L24 3L23 3L23 4L22 4L22 5L20 5L20 4L19 4L19 3L18 3L18 2L15 2L15 3L17 3L17 5L15 5L15 4L14 4L14 3L12 3L12 2L13 2L13 1L14 1L14 0L13 0L13 1L12 1L12 0ZM18 0L18 1L20 1L20 2L21 2L21 3L22 3L22 2L21 2L21 1L22 1L22 0L21 0L21 1L20 1L20 0ZM28 0L28 1L31 1L31 0ZM39 0L39 1L40 1L40 2L41 2L41 1L43 1L43 0L41 0L41 1L40 1L40 0ZM35 1L35 2L34 2L34 5L33 5L33 3L32 3L32 4L31 4L31 5L32 5L32 6L31 6L31 9L32 9L32 10L31 10L31 12L30 12L30 11L29 11L29 9L27 9L27 10L26 10L26 11L25 11L25 12L24 12L24 14L25 14L25 13L26 13L26 12L28 12L28 13L30 13L30 14L31 14L31 16L29 16L29 15L28 15L28 16L29 16L29 17L27 17L27 18L26 18L26 19L27 19L27 20L26 20L26 21L27 21L27 20L28 20L28 18L29 18L29 17L30 17L30 19L29 19L29 21L30 21L30 20L31 20L31 18L32 18L32 17L31 17L31 16L33 16L33 15L35 15L35 12L36 12L36 11L37 11L37 12L38 12L38 11L40 11L40 9L39 9L39 7L40 7L40 8L41 8L41 9L42 9L42 8L41 8L41 7L42 7L42 5L43 5L43 4L41 4L41 7L40 7L40 5L38 5L38 6L37 6L37 5L36 5L36 4L35 4L35 2L36 2L36 1ZM10 3L10 4L9 4L9 5L10 5L10 6L11 6L11 3ZM12 4L12 5L14 5L14 6L13 6L13 7L14 7L14 8L13 8L13 9L14 9L14 11L15 11L15 8L16 8L16 11L17 11L17 10L18 10L18 12L19 12L19 13L20 13L20 12L19 12L19 10L18 10L18 9L20 9L20 11L21 11L21 10L23 10L23 9L24 9L24 8L25 8L25 9L26 9L26 6L25 6L25 5L26 5L26 4L24 4L24 6L23 6L23 5L22 5L22 6L21 6L21 7L20 7L20 6L19 6L19 7L20 7L20 8L18 8L18 9L17 9L17 7L18 7L18 5L19 5L19 4L18 4L18 5L17 5L17 7L16 7L16 6L15 6L15 5L14 5L14 4ZM27 5L27 8L30 8L30 5ZM14 6L14 7L15 7L15 6ZM22 6L22 7L21 7L21 9L23 9L23 8L24 8L24 7L25 7L25 6L24 6L24 7L23 7L23 6ZM28 6L28 7L29 7L29 6ZM32 6L32 8L33 8L33 6ZM34 6L34 9L36 9L36 8L37 8L37 6L36 6L36 7L35 7L35 6ZM38 6L38 7L39 7L39 6ZM22 7L22 8L23 8L23 7ZM44 7L44 8L43 8L43 10L44 10L44 9L45 9L45 10L47 10L47 9L49 9L49 8L47 8L47 7L46 7L46 8L47 8L47 9L45 9L45 7ZM37 9L37 11L38 11L38 9ZM0 10L0 12L1 12L1 10ZM5 10L5 11L4 11L4 12L3 12L3 13L4 13L4 12L5 12L5 13L6 13L6 12L5 12L5 11L6 11L6 10ZM33 10L33 13L32 13L32 12L31 12L31 14L32 14L32 15L33 15L33 14L34 14L34 12L35 12L35 11L36 11L36 10L35 10L35 11L34 11L34 10ZM51 10L51 12L50 12L50 13L51 13L51 12L52 12L52 13L53 13L53 10ZM12 13L12 14L14 14L14 13ZM26 14L26 16L27 16L27 14ZM13 15L13 16L14 16L14 15ZM44 15L44 16L45 16L45 17L42 17L42 18L41 18L41 19L42 19L42 18L43 18L43 21L44 21L44 22L47 22L47 21L48 21L48 20L49 20L49 19L48 19L48 18L47 18L47 21L45 21L45 19L44 19L44 18L45 18L45 17L46 17L46 16L45 16L45 15ZM4 16L4 17L5 17L5 16ZM24 17L24 18L25 18L25 17ZM36 17L36 18L37 18L37 17ZM55 17L55 18L56 18L56 17ZM14 20L14 23L13 23L13 22L12 22L12 24L13 24L13 25L11 25L11 26L10 26L10 27L9 27L9 28L12 28L12 29L9 29L9 33L8 33L8 31L6 31L6 32L7 32L7 33L8 33L8 36L10 36L10 35L13 35L13 36L14 36L14 37L13 37L13 38L12 38L12 39L13 39L13 40L12 40L12 41L11 41L11 40L10 40L10 39L11 39L11 37L12 37L12 36L11 36L11 37L8 37L8 39L9 39L9 41L8 41L8 42L7 42L7 41L6 41L6 42L7 42L7 43L5 43L5 45L4 45L4 46L3 46L3 47L5 47L5 45L6 45L6 46L7 46L7 47L8 47L8 48L9 48L9 47L8 47L8 46L7 46L7 45L8 45L8 42L9 42L9 43L10 43L10 41L11 41L11 42L12 42L12 43L11 43L11 44L9 44L9 45L11 45L11 47L10 47L10 50L11 50L11 51L12 51L12 50L13 50L13 52L14 52L14 53L16 53L16 54L17 54L17 53L18 53L18 54L19 54L19 49L21 49L21 50L22 50L22 54L23 54L23 52L24 52L24 53L25 53L25 52L26 52L26 50L25 50L25 49L26 49L26 48L28 48L28 46L29 46L29 48L32 48L32 49L31 49L31 50L32 50L32 51L31 51L31 53L32 53L32 51L33 51L33 49L34 49L34 50L35 50L35 49L34 49L34 46L35 46L35 48L37 48L37 49L36 49L36 50L37 50L37 49L38 49L38 48L39 48L39 49L40 49L40 50L39 50L39 52L40 52L40 54L41 54L41 53L42 53L42 54L43 54L43 53L42 53L42 51L43 51L43 47L40 47L40 46L41 46L41 45L40 45L40 44L39 44L39 43L42 43L42 45L44 45L44 49L45 49L45 50L44 50L44 51L45 51L45 52L46 52L46 53L47 53L47 54L50 54L50 53L47 53L47 52L48 52L48 48L46 48L46 49L45 49L45 47L46 47L46 46L47 46L47 45L48 45L48 47L49 47L49 48L51 48L51 47L52 47L52 46L53 46L53 45L51 45L51 42L50 42L50 41L52 41L52 40L50 40L50 39L52 39L52 38L53 38L53 39L54 39L54 38L53 38L53 36L52 36L52 35L51 35L51 36L50 36L50 37L49 37L49 36L48 36L48 35L49 35L49 34L50 34L50 33L49 33L49 32L48 32L48 26L49 26L49 24L48 24L48 26L47 26L47 32L46 32L46 31L45 31L45 30L46 30L46 26L44 26L44 25L43 25L43 22L42 22L42 25L41 25L41 23L39 23L39 24L38 24L38 25L39 25L39 26L38 26L38 27L40 27L40 29L38 29L38 30L36 30L36 31L37 31L37 32L36 32L36 33L37 33L37 32L38 32L38 34L39 34L39 31L38 31L38 30L40 30L40 32L41 32L41 31L43 31L43 30L44 30L44 34L46 34L46 35L45 35L45 36L44 36L44 37L42 37L42 38L44 38L44 39L45 39L45 40L46 40L46 41L47 41L47 42L50 42L50 43L49 43L49 45L48 45L48 43L47 43L47 44L43 44L43 43L42 43L42 42L45 42L45 41L44 41L44 40L43 40L43 39L39 39L39 40L40 40L40 42L39 42L39 41L37 41L37 40L38 40L38 39L37 39L37 37L38 37L38 36L37 36L37 37L35 37L35 36L36 36L36 35L34 35L34 36L32 36L32 35L31 35L31 34L30 34L30 35L29 35L29 33L30 33L30 31L28 31L28 33L27 33L27 31L26 31L26 32L25 32L25 31L23 31L23 30L21 30L21 29L24 29L24 30L26 30L26 28L24 28L24 26L25 26L25 25L24 25L24 24L21 24L21 23L20 23L20 24L19 24L19 25L18 25L18 26L19 26L19 25L20 25L20 24L21 24L21 25L23 25L23 27L22 27L22 26L21 26L21 27L20 27L20 29L18 29L18 28L19 28L19 27L16 27L16 26L17 26L17 23L16 23L16 20ZM36 20L36 21L37 21L37 20ZM41 20L41 21L42 21L42 20ZM54 20L54 21L56 21L56 22L55 22L55 23L57 23L57 21L56 21L56 20ZM6 21L6 22L7 22L7 23L6 23L6 24L9 24L9 23L8 23L8 22L7 22L7 21ZM9 21L9 22L11 22L11 21ZM22 22L22 23L23 23L23 22ZM10 23L10 24L11 24L11 23ZM14 23L14 25L13 25L13 26L11 26L11 27L12 27L12 28L13 28L13 29L14 29L14 30L13 30L13 31L11 31L11 30L10 30L10 32L11 32L11 33L13 33L13 34L14 34L14 35L15 35L15 36L17 36L17 38L15 38L15 37L14 37L14 38L13 38L13 39L14 39L14 38L15 38L15 42L13 42L13 41L14 41L14 40L13 40L13 41L12 41L12 42L13 42L13 43L14 43L14 44L12 44L12 45L14 45L14 46L13 46L13 47L12 47L12 48L15 48L15 49L13 49L13 50L14 50L14 51L15 51L15 52L16 52L16 48L15 48L15 45L16 45L16 44L17 44L17 42L18 42L18 43L19 43L19 44L20 44L20 42L19 42L19 41L18 41L18 40L20 40L20 41L21 41L21 42L22 42L22 44L21 44L21 46L22 46L22 47L17 47L17 46L20 46L20 45L17 45L17 46L16 46L16 47L17 47L17 49L19 49L19 48L23 48L23 49L22 49L22 50L23 50L23 49L24 49L24 48L23 48L23 47L25 47L25 48L26 48L26 47L25 47L25 45L26 45L26 46L27 46L27 45L26 45L26 43L25 43L25 42L29 42L29 43L27 43L27 44L28 44L28 45L29 45L29 44L30 44L30 45L31 45L31 43L32 43L32 42L33 42L33 45L32 45L32 46L33 46L33 45L34 45L34 44L35 44L35 45L36 45L36 47L38 47L38 45L39 45L39 44L38 44L38 43L39 43L39 42L37 42L37 44L38 44L38 45L36 45L36 43L34 43L34 42L36 42L36 41L34 41L34 40L35 40L35 39L36 39L36 38L35 38L35 39L33 39L33 38L34 38L34 37L33 37L33 38L32 38L32 36L29 36L29 35L28 35L28 34L25 34L25 32L24 32L24 33L23 33L23 31L22 31L22 32L21 32L21 31L20 31L20 30L17 30L17 28L13 28L13 26L16 26L16 23ZM26 23L26 24L27 24L27 23ZM32 24L32 25L33 25L33 24ZM55 24L55 26L56 26L56 24ZM34 25L34 27L35 27L35 28L34 28L34 29L37 29L37 28L36 28L36 27L35 27L35 25ZM40 25L40 27L41 27L41 30L42 30L42 29L45 29L45 27L43 27L43 26L41 26L41 25ZM5 27L5 30L8 30L8 27ZM27 27L27 30L30 30L30 27ZM31 27L31 28L33 28L33 27ZM42 27L42 28L43 28L43 27ZM49 27L49 30L52 30L52 27ZM6 28L6 29L7 29L7 28ZM28 28L28 29L29 29L29 28ZM50 28L50 29L51 29L51 28ZM53 28L53 29L54 29L54 30L53 30L53 31L52 31L52 34L54 34L54 33L55 33L55 31L54 31L54 30L56 30L56 29L54 29L54 28ZM1 29L1 30L2 30L2 29ZM3 29L3 31L4 31L4 29ZM15 29L15 30L14 30L14 31L13 31L13 33L14 33L14 31L15 31L15 34L16 34L16 35L17 35L17 33L16 33L16 31L15 31L15 30L16 30L16 29ZM31 29L31 30L33 30L33 29ZM17 31L17 32L18 32L18 34L19 34L19 35L18 35L18 36L19 36L19 37L18 37L18 38L19 38L19 37L20 37L20 38L21 38L21 39L23 39L23 40L22 40L22 41L23 41L23 42L25 42L25 41L26 41L26 39L27 39L27 38L29 38L29 36L27 36L27 38L26 38L26 37L24 37L24 39L23 39L23 36L26 36L26 35L25 35L25 34L24 34L24 35L23 35L23 36L22 36L22 34L23 34L23 33L22 33L22 34L21 34L21 32L18 32L18 31ZM34 31L34 32L31 32L31 33L34 33L34 34L35 34L35 33L34 33L34 32L35 32L35 31ZM50 31L50 32L51 32L51 31ZM0 32L0 33L1 33L1 32ZM42 32L42 33L43 33L43 32ZM9 33L9 35L10 35L10 33ZM19 33L19 34L20 34L20 33ZM4 34L4 36L5 36L5 34ZM41 34L41 35L39 35L39 36L40 36L40 37L41 37L41 36L43 36L43 35L42 35L42 34ZM47 34L47 35L48 35L48 34ZM6 35L6 36L7 36L7 35ZM20 35L20 36L21 36L21 35ZM54 35L54 36L55 36L55 37L56 37L56 36L55 36L55 35ZM45 36L45 38L46 38L46 40L47 40L47 41L50 41L50 40L47 40L47 39L49 39L49 37L48 37L48 38L46 38L46 37L47 37L47 36ZM51 36L51 38L52 38L52 36ZM5 37L5 38L7 38L7 37ZM30 38L30 39L28 39L28 40L30 40L30 41L29 41L29 42L31 42L31 40L33 40L33 39L32 39L32 38ZM16 39L16 41L17 41L17 39ZM24 39L24 41L25 41L25 39ZM41 40L41 42L42 42L42 41L43 41L43 40ZM1 41L1 42L2 42L2 43L3 43L3 44L2 44L2 45L3 45L3 44L4 44L4 43L3 43L3 42L2 42L2 41ZM53 42L53 43L52 43L52 44L55 44L55 43L54 43L54 42ZM15 43L15 44L14 44L14 45L15 45L15 44L16 44L16 43ZM6 44L6 45L7 45L7 44ZM22 44L22 46L23 46L23 44ZM24 44L24 45L25 45L25 44ZM1 46L1 47L2 47L2 46ZM49 46L49 47L51 47L51 46ZM32 47L32 48L33 48L33 47ZM41 48L41 49L42 49L42 48ZM53 48L53 50L55 50L55 49L54 49L54 48ZM11 49L11 50L12 50L12 49ZM27 49L27 52L30 52L30 49ZM49 49L49 52L52 52L52 49ZM24 50L24 51L25 51L25 50ZM28 50L28 51L29 51L29 50ZM45 50L45 51L46 51L46 52L47 52L47 51L46 51L46 50ZM50 50L50 51L51 51L51 50ZM40 51L40 52L41 52L41 51ZM33 52L33 53L34 53L34 52ZM20 53L20 55L21 55L21 53ZM10 54L10 55L11 55L11 54ZM13 54L13 55L14 55L14 56L15 56L15 55L14 55L14 54ZM34 54L34 55L36 55L36 54ZM44 54L44 55L45 55L45 54ZM27 55L27 56L28 56L28 55ZM39 55L39 56L42 56L42 55ZM56 55L56 56L57 56L57 55ZM52 56L52 57L53 57L53 56ZM54 56L54 57L55 57L55 56ZM0 0L0 7L7 7L7 0ZM1 1L1 6L6 6L6 1ZM2 2L2 5L5 5L5 2ZM50 0L50 7L57 7L57 0ZM51 1L51 6L56 6L56 1ZM52 2L52 5L55 5L55 2ZM0 50L0 57L7 57L7 50ZM1 51L1 56L6 56L6 51ZM2 52L2 55L5 55L5 52Z" fill="#000000"/></g></g></svg>
