<?xml version="1.0" encoding="UTF-8"?>
<svg xmlns="http://www.w3.org/2000/svg" version="1.1" width="300" height="300" viewBox="0 0 300 300"><rect x="0" y="0" width="300" height="300" fill="#fefefe"/><g transform="scale(4.615)"><g transform="translate(4,4)"><path fill-rule="evenodd" d="M9 0L9 1L8 1L8 2L9 2L9 1L11 1L11 0ZM12 0L12 2L13 2L13 4L14 4L14 2L15 2L15 3L16 3L16 2L17 2L17 4L19 4L19 5L20 5L20 7L19 7L19 6L18 6L18 7L17 7L17 6L16 6L16 7L15 7L15 5L16 5L16 4L15 4L15 5L14 5L14 7L13 7L13 5L12 5L12 3L8 3L8 4L9 4L9 5L8 5L8 7L9 7L9 6L10 6L10 7L11 7L11 6L10 6L10 4L11 4L11 5L12 5L12 7L13 7L13 8L11 8L11 9L14 9L14 8L15 8L15 9L17 9L17 10L13 10L13 11L14 11L14 12L12 12L12 11L10 11L10 10L9 10L9 9L10 9L10 8L6 8L6 9L8 9L8 11L7 11L7 10L6 10L6 11L5 11L5 10L4 10L4 9L5 9L5 8L0 8L0 11L1 11L1 13L0 13L0 15L1 15L1 13L2 13L2 14L3 14L3 15L2 15L2 16L0 16L0 19L1 19L1 21L2 21L2 22L0 22L0 23L2 23L2 24L3 24L3 23L2 23L2 22L4 22L4 24L6 24L6 25L4 25L4 27L3 27L3 29L2 29L2 28L1 28L1 27L0 27L0 28L1 28L1 29L2 29L2 31L1 31L1 30L0 30L0 31L1 31L1 32L2 32L2 33L0 33L0 34L1 34L1 35L0 35L0 37L2 37L2 38L0 38L0 40L2 40L2 42L1 42L1 41L0 41L0 43L2 43L2 44L0 44L0 45L1 45L1 46L0 46L0 48L5 48L5 47L7 47L7 46L8 46L8 47L9 47L9 49L8 49L8 48L6 48L6 49L8 49L8 51L9 51L9 50L10 50L10 51L11 51L11 50L10 50L10 48L11 48L11 49L12 49L12 50L14 50L14 52L15 52L15 53L14 53L14 54L13 54L13 51L12 51L12 53L11 53L11 52L10 52L10 54L11 54L11 56L12 56L12 57L14 57L14 56L13 56L13 55L14 55L14 54L15 54L15 55L16 55L16 56L15 56L15 57L16 57L16 56L17 56L17 57L19 57L19 55L20 55L20 54L19 54L19 55L18 55L18 54L17 54L17 53L20 53L20 52L21 52L21 53L22 53L22 54L21 54L21 56L20 56L20 57L21 57L21 56L23 56L23 57L26 57L26 55L27 55L27 54L30 54L30 53L31 53L31 49L32 49L32 48L33 48L33 47L34 47L34 48L35 48L35 49L36 49L36 50L34 50L34 51L35 51L35 52L34 52L34 53L35 53L35 54L36 54L36 56L35 56L35 55L34 55L34 54L33 54L33 53L32 53L32 54L31 54L31 56L30 56L30 55L29 55L29 56L27 56L27 57L29 57L29 56L30 56L30 57L31 57L31 56L35 56L35 57L39 57L39 56L40 56L40 55L41 55L41 57L44 57L44 54L45 54L45 53L44 53L44 52L45 52L45 51L46 51L46 53L47 53L47 50L48 50L48 54L47 54L47 55L45 55L45 57L47 57L47 55L48 55L48 56L50 56L50 57L52 57L52 55L51 55L51 53L52 53L52 54L53 54L53 52L54 52L54 54L55 54L55 53L56 53L56 49L57 49L57 48L56 48L56 46L57 46L57 45L56 45L56 44L55 44L55 43L56 43L56 42L55 42L55 39L57 39L57 37L56 37L56 36L55 36L55 35L56 35L56 33L57 33L57 32L56 32L56 30L57 30L57 29L56 29L56 28L57 28L57 27L56 27L56 26L57 26L57 25L56 25L56 22L57 22L57 19L56 19L56 18L57 18L57 17L56 17L56 16L57 16L57 15L56 15L56 14L57 14L57 12L56 12L56 14L53 14L53 13L54 13L54 12L55 12L55 11L56 11L56 10L54 10L54 11L53 11L53 10L52 10L52 8L51 8L51 10L49 10L49 9L50 9L50 8L49 8L49 6L48 6L48 7L47 7L47 5L48 5L48 0L46 0L46 1L47 1L47 2L44 2L44 3L43 3L43 4L40 4L40 5L39 5L39 6L38 6L38 7L37 7L37 5L38 5L38 2L39 2L39 3L41 3L41 2L43 2L43 0L41 0L41 1L40 1L40 0L39 0L39 1L38 1L38 0L37 0L37 1L38 1L38 2L37 2L37 3L36 3L36 0L35 0L35 1L33 1L33 0L32 0L32 3L31 3L31 2L29 2L29 1L31 1L31 0L29 0L29 1L28 1L28 2L27 2L27 1L26 1L26 0L23 0L23 2L21 2L21 1L22 1L22 0L21 0L21 1L20 1L20 0L17 0L17 1L16 1L16 2L15 2L15 0L14 0L14 2L13 2L13 0ZM17 1L17 2L18 2L18 1ZM20 2L20 3L19 3L19 4L22 4L22 5L21 5L21 7L22 7L22 8L20 8L20 11L19 11L19 13L20 13L20 15L18 15L18 16L20 16L20 18L18 18L18 17L16 17L16 16L17 16L17 13L18 13L18 12L17 12L17 13L16 13L16 11L15 11L15 13L13 13L13 14L15 14L15 13L16 13L16 16L14 16L14 15L12 15L12 12L10 12L10 11L8 11L8 13L6 13L6 12L7 12L7 11L6 11L6 12L5 12L5 11L4 11L4 10L3 10L3 9L2 9L2 12L5 12L5 13L6 13L6 14L5 14L5 15L3 15L3 16L4 16L4 17L2 17L2 18L1 18L1 19L6 19L6 20L7 20L7 21L5 21L5 20L2 20L2 21L5 21L5 22L7 22L7 23L6 23L6 24L7 24L7 25L6 25L6 26L7 26L7 25L8 25L8 26L9 26L9 28L10 28L10 26L11 26L11 27L12 27L12 28L13 28L13 30L14 30L14 28L15 28L15 29L16 29L16 30L18 30L18 31L17 31L17 32L19 32L19 31L20 31L20 35L17 35L17 33L15 33L15 32L14 32L14 33L13 33L13 31L12 31L12 29L11 29L11 30L10 30L10 29L9 29L9 30L10 30L10 31L11 31L11 33L9 33L9 32L7 32L7 31L6 31L6 32L7 32L7 33L5 33L5 36L4 36L4 35L1 35L1 36L2 36L2 37L3 37L3 38L4 38L4 37L5 37L5 39L4 39L4 40L5 40L5 41L4 41L4 42L3 42L3 43L4 43L4 42L5 42L5 41L6 41L6 42L7 42L7 43L6 43L6 44L3 44L3 45L2 45L2 46L1 46L1 47L2 47L2 46L3 46L3 47L5 47L5 46L7 46L7 45L8 45L8 46L9 46L9 47L10 47L10 46L11 46L11 45L12 45L12 47L13 47L13 44L10 44L10 42L11 42L11 43L12 43L12 42L13 42L13 43L15 43L15 44L14 44L14 48L15 48L15 49L14 49L14 50L17 50L17 48L21 48L21 49L19 49L19 50L21 50L21 51L22 51L22 50L21 50L21 49L23 49L23 48L24 48L24 49L25 49L25 50L23 50L23 52L22 52L22 53L24 53L24 54L23 54L23 55L24 55L24 56L25 56L25 53L24 53L24 52L26 52L26 49L25 49L25 48L29 48L29 45L30 45L30 46L31 46L31 45L32 45L32 46L35 46L35 45L34 45L34 43L37 43L37 42L35 42L35 40L38 40L38 42L39 42L39 43L40 43L40 44L39 44L39 45L38 45L38 46L39 46L39 47L38 47L38 48L37 48L37 49L38 49L38 50L36 50L36 52L37 52L37 53L38 53L38 54L37 54L37 56L39 56L39 55L38 55L38 54L40 54L40 53L43 53L43 54L44 54L44 53L43 53L43 51L42 51L42 50L41 50L41 48L42 48L42 49L43 49L43 48L44 48L44 50L47 50L47 49L48 49L48 48L49 48L49 47L48 47L48 48L47 48L47 47L45 47L45 46L48 46L48 44L49 44L49 45L50 45L50 47L51 47L51 46L52 46L52 47L53 47L53 43L54 43L54 42L53 42L53 41L51 41L51 42L50 42L50 43L48 43L48 44L47 44L47 45L45 45L45 44L46 44L46 43L44 43L44 42L48 42L48 41L49 41L49 40L50 40L50 39L51 39L51 40L52 40L52 39L53 39L53 35L55 35L55 34L54 34L54 33L52 33L52 31L48 31L48 28L47 28L47 29L46 29L46 30L47 30L47 31L45 31L45 28L46 28L46 27L47 27L47 25L48 25L48 24L49 24L49 25L50 25L50 26L52 26L52 25L53 25L53 23L52 23L52 24L51 24L51 23L50 23L50 22L51 22L51 21L54 21L54 22L56 22L56 19L55 19L55 20L53 20L53 19L52 19L52 17L53 17L53 18L55 18L55 17L53 17L53 15L50 15L50 14L51 14L51 12L50 12L50 11L48 11L48 10L47 10L47 9L49 9L49 8L46 8L46 5L47 5L47 3L44 3L44 6L43 6L43 7L42 7L42 6L41 6L41 5L40 5L40 6L39 6L39 7L40 7L40 8L39 8L39 9L38 9L38 8L37 8L37 7L36 7L36 5L37 5L37 4L36 4L36 5L35 5L35 2L33 2L33 3L32 3L32 4L31 4L31 8L32 8L32 10L31 10L31 11L30 11L30 10L29 10L29 12L28 12L28 13L27 13L27 14L26 14L26 17L25 17L25 16L23 16L23 15L21 15L21 13L22 13L22 14L23 14L23 13L22 13L22 12L21 12L21 11L22 11L22 10L21 10L21 9L23 9L23 8L24 8L24 6L23 6L23 5L24 5L24 4L23 4L23 3L26 3L26 4L25 4L25 8L26 8L26 4L30 4L30 3L29 3L29 2L28 2L28 3L27 3L27 2L23 2L23 3L21 3L21 2ZM32 4L32 5L33 5L33 4ZM45 4L45 5L46 5L46 4ZM27 5L27 8L30 8L30 5ZM34 5L34 7L33 7L33 6L32 6L32 7L33 7L33 9L34 9L34 8L35 8L35 9L37 9L37 10L36 10L36 11L35 11L35 14L32 14L32 11L33 11L33 10L32 10L32 11L31 11L31 13L30 13L30 14L29 14L29 13L28 13L28 14L29 14L29 16L28 16L28 15L27 15L27 16L28 16L28 17L26 17L26 18L25 18L25 17L22 17L22 16L21 16L21 15L20 15L20 16L21 16L21 17L22 17L22 18L24 18L24 19L20 19L20 20L18 20L18 19L16 19L16 18L15 18L15 21L16 21L16 22L14 22L14 21L12 21L12 20L14 20L14 19L13 19L13 18L14 18L14 16L13 16L13 17L12 17L12 19L11 19L11 16L12 16L12 15L11 15L11 14L10 14L10 15L11 15L11 16L10 16L10 17L9 17L9 18L6 18L6 19L9 19L9 18L10 18L10 19L11 19L11 20L10 20L10 21L12 21L12 22L11 22L11 23L10 23L10 22L9 22L9 21L8 21L8 23L7 23L7 24L8 24L8 25L9 25L9 26L10 26L10 24L11 24L11 25L12 25L12 27L13 27L13 28L14 28L14 27L13 27L13 25L14 25L14 26L15 26L15 28L16 28L16 29L18 29L18 30L20 30L20 29L18 29L18 28L16 28L16 27L18 27L18 26L19 26L19 28L20 28L20 26L19 26L19 25L21 25L21 24L17 24L17 22L19 22L19 23L20 23L20 22L19 22L19 21L20 21L20 20L24 20L24 21L22 21L22 22L21 22L21 23L22 23L22 24L24 24L24 25L22 25L22 26L21 26L21 27L22 27L22 26L26 26L26 27L25 27L25 28L23 28L23 30L25 30L25 31L21 31L21 32L25 32L25 33L23 33L23 34L22 34L22 33L21 33L21 35L20 35L20 36L21 36L21 35L23 35L23 34L24 34L24 36L23 36L23 37L24 37L24 38L22 38L22 37L19 37L19 36L17 36L17 37L18 37L18 39L19 39L19 40L16 40L16 39L15 39L15 38L16 38L16 37L15 37L15 36L14 36L14 39L13 39L13 37L12 37L12 36L13 36L13 34L10 34L10 35L9 35L9 33L7 33L7 34L6 34L6 35L7 35L7 34L8 34L8 37L7 37L7 36L6 36L6 37L7 37L7 38L6 38L6 39L7 39L7 40L6 40L6 41L7 41L7 40L8 40L8 41L9 41L9 42L8 42L8 44L9 44L9 45L10 45L10 44L9 44L9 42L10 42L10 41L11 41L11 42L12 42L12 41L13 41L13 42L16 42L16 41L19 41L19 42L18 42L18 43L16 43L16 45L17 45L17 46L19 46L19 47L23 47L23 46L22 46L22 45L24 45L24 46L25 46L25 45L24 45L24 44L28 44L28 45L26 45L26 47L28 47L28 45L29 45L29 43L31 43L31 44L30 44L30 45L31 45L31 44L33 44L33 43L34 43L34 42L33 42L33 41L32 41L32 40L30 40L30 41L29 41L29 42L27 42L27 41L28 41L28 39L27 39L27 38L28 38L28 37L26 37L26 38L25 38L25 36L27 36L27 34L26 34L26 35L25 35L25 33L26 33L26 32L28 32L28 33L29 33L29 34L30 34L30 36L29 36L29 37L31 37L31 38L29 38L29 39L33 39L33 40L35 40L35 39L38 39L38 40L39 40L39 39L38 39L38 37L37 37L37 36L38 36L38 33L37 33L37 32L35 32L35 30L37 30L37 29L38 29L38 28L39 28L39 27L40 27L40 26L44 26L44 24L42 24L42 23L44 23L44 20L46 20L46 19L47 19L47 18L50 18L50 17L51 17L51 16L50 16L50 15L49 15L49 14L50 14L50 12L49 12L49 13L47 13L47 14L44 14L44 15L42 15L42 16L41 16L41 15L40 15L40 14L38 14L38 13L40 13L40 12L41 12L41 10L43 10L43 13L41 13L41 14L43 14L43 13L44 13L44 11L45 11L45 12L47 12L47 10L46 10L46 9L45 9L45 10L44 10L44 8L45 8L45 6L44 6L44 8L43 8L43 9L41 9L41 10L40 10L40 9L39 9L39 11L38 11L38 9L37 9L37 8L35 8L35 5ZM22 6L22 7L23 7L23 6ZM28 6L28 7L29 7L29 6ZM40 6L40 7L41 7L41 6ZM16 7L16 8L17 8L17 7ZM53 8L53 9L54 9L54 8ZM55 8L55 9L56 9L56 8ZM18 9L18 10L17 10L17 11L18 11L18 10L19 10L19 9ZM23 10L23 11L24 11L24 12L25 12L25 13L26 13L26 12L27 12L27 11L28 11L28 10L27 10L27 11L26 11L26 12L25 12L25 10ZM45 10L45 11L46 11L46 10ZM51 10L51 11L52 11L52 10ZM39 11L39 12L40 12L40 11ZM9 12L9 13L10 13L10 12ZM20 12L20 13L21 13L21 12ZM33 12L33 13L34 13L34 12ZM52 12L52 13L53 13L53 12ZM6 14L6 15L7 15L7 14ZM24 14L24 15L25 15L25 14ZM30 14L30 15L31 15L31 14ZM36 14L36 15L35 15L35 16L32 16L32 17L31 17L31 18L30 18L30 19L31 19L31 18L32 18L32 19L36 19L36 20L37 20L37 21L38 21L38 23L37 23L37 24L39 24L39 25L38 25L38 26L37 26L37 25L33 25L33 24L32 24L32 23L35 23L35 20L34 20L34 21L33 21L33 20L32 20L32 21L31 21L31 22L30 22L30 23L29 23L29 21L30 21L30 20L29 20L29 19L28 19L28 18L26 18L26 21L28 21L28 22L27 22L27 23L28 23L28 24L25 24L25 23L26 23L26 22L25 22L25 21L24 21L24 22L22 22L22 23L24 23L24 24L25 24L25 25L26 25L26 26L28 26L28 25L29 25L29 26L30 26L30 25L29 25L29 24L30 24L30 23L31 23L31 24L32 24L32 26L31 26L31 28L32 28L32 31L30 31L30 32L29 32L29 31L28 31L28 32L29 32L29 33L31 33L31 34L32 34L32 35L33 35L33 34L35 34L35 36L37 36L37 34L35 34L35 33L33 33L33 32L32 32L32 31L33 31L33 30L35 30L35 28L37 28L37 27L39 27L39 25L42 25L42 24L39 24L39 23L40 23L40 22L39 22L39 21L42 21L42 20L39 20L39 21L38 21L38 20L37 20L37 19L39 19L39 17L41 17L41 16L39 16L39 15L38 15L38 14ZM44 15L44 18L43 18L43 20L44 20L44 18L45 18L45 19L46 19L46 18L47 18L47 17L48 17L48 16L49 16L49 15L48 15L48 16L47 16L47 15ZM5 16L5 17L4 17L4 18L5 18L5 17L8 17L8 16ZM35 16L35 17L37 17L37 18L38 18L38 17L39 17L39 16L38 16L38 17L37 17L37 16ZM42 16L42 17L43 17L43 16ZM45 16L45 18L46 18L46 16ZM41 18L41 19L42 19L42 18ZM27 19L27 20L28 20L28 19ZM49 19L49 20L47 20L47 22L46 22L46 23L45 23L45 24L46 24L46 25L47 25L47 24L46 24L46 23L47 23L47 22L49 22L49 21L51 21L51 20L52 20L52 19ZM16 20L16 21L17 21L17 20ZM41 22L41 23L42 23L42 22ZM8 23L8 24L9 24L9 23ZM11 23L11 24L13 24L13 23ZM15 23L15 24L14 24L14 25L15 25L15 26L17 26L17 24L16 24L16 23ZM0 24L0 26L1 26L1 24ZM15 24L15 25L16 25L16 24ZM50 24L50 25L51 25L51 24ZM2 25L2 26L3 26L3 25ZM55 25L55 26L56 26L56 25ZM32 26L32 27L33 27L33 28L35 28L35 27L36 27L36 26L34 26L34 27L33 27L33 26ZM45 26L45 27L43 27L43 29L41 29L41 30L44 30L44 28L45 28L45 27L46 27L46 26ZM53 26L53 27L54 27L54 26ZM5 27L5 30L8 30L8 27ZM27 27L27 30L30 30L30 27ZM41 27L41 28L42 28L42 27ZM49 27L49 30L52 30L52 27ZM55 27L55 28L54 28L54 29L53 29L53 30L54 30L54 29L55 29L55 28L56 28L56 27ZM6 28L6 29L7 29L7 28ZM21 28L21 29L22 29L22 28ZM25 28L25 29L26 29L26 28ZM28 28L28 29L29 29L29 28ZM50 28L50 29L51 29L51 28ZM39 29L39 30L38 30L38 32L39 32L39 30L40 30L40 29ZM2 31L2 32L3 32L3 31ZM25 31L25 32L26 32L26 31ZM43 31L43 32L41 32L41 33L39 33L39 34L40 34L40 35L39 35L39 37L40 37L40 38L41 38L41 39L42 39L42 38L43 38L43 37L44 37L44 38L45 38L45 39L43 39L43 40L45 40L45 39L46 39L46 40L47 40L47 39L48 39L48 38L47 38L47 39L46 39L46 38L45 38L45 37L47 37L47 36L48 36L48 35L44 35L44 36L41 36L41 35L42 35L42 34L45 34L45 33L47 33L47 32L48 32L48 33L49 33L49 32L48 32L48 31L47 31L47 32L45 32L45 31ZM31 32L31 33L32 33L32 32ZM43 32L43 33L45 33L45 32ZM50 32L50 34L49 34L49 35L50 35L50 36L49 36L49 37L50 37L50 38L49 38L49 39L50 39L50 38L51 38L51 39L52 39L52 38L51 38L51 37L52 37L52 35L53 35L53 34L52 34L52 33L51 33L51 32ZM55 32L55 33L56 33L56 32ZM2 33L2 34L3 34L3 33ZM14 33L14 34L15 34L15 33ZM18 33L18 34L19 34L19 33ZM50 34L50 35L52 35L52 34ZM10 35L10 36L12 36L12 35ZM3 36L3 37L4 37L4 36ZM32 36L32 37L33 37L33 38L34 38L34 39L35 39L35 37L33 37L33 36ZM40 36L40 37L41 37L41 36ZM44 36L44 37L45 37L45 36ZM9 37L9 38L10 38L10 37ZM11 37L11 38L12 38L12 37ZM7 38L7 39L8 39L8 38ZM19 38L19 39L20 39L20 38ZM54 38L54 39L55 39L55 38ZM9 39L9 41L10 41L10 39ZM12 39L12 40L13 40L13 41L16 41L16 40L15 40L15 39L14 39L14 40L13 40L13 39ZM21 39L21 40L20 40L20 42L19 42L19 45L20 45L20 46L21 46L21 45L22 45L22 44L21 44L21 45L20 45L20 42L21 42L21 43L22 43L22 42L23 42L23 40L24 40L24 41L25 41L25 43L27 43L27 42L26 42L26 41L27 41L27 39L25 39L25 40L24 40L24 39ZM41 40L41 41L40 41L40 42L42 42L42 44L41 44L41 46L40 46L40 47L39 47L39 48L38 48L38 49L39 49L39 48L41 48L41 46L43 46L43 47L42 47L42 48L43 48L43 47L44 47L44 48L45 48L45 49L46 49L46 48L45 48L45 47L44 47L44 46L43 46L43 45L44 45L44 43L43 43L43 42L44 42L44 41L42 41L42 40ZM31 41L31 42L32 42L32 43L33 43L33 42L32 42L32 41ZM51 42L51 43L50 43L50 45L52 45L52 44L51 44L51 43L53 43L53 42ZM6 44L6 45L7 45L7 44ZM17 44L17 45L18 45L18 44ZM54 44L54 45L55 45L55 46L56 46L56 45L55 45L55 44ZM4 45L4 46L5 46L5 45ZM15 46L15 47L16 47L16 46ZM36 46L36 47L35 47L35 48L36 48L36 47L37 47L37 46ZM54 48L54 49L56 49L56 48ZM27 49L27 52L30 52L30 49ZM49 49L49 52L52 52L52 49ZM28 50L28 51L29 51L29 50ZM32 50L32 52L33 52L33 50ZM38 50L38 51L37 51L37 52L38 52L38 53L39 53L39 52L38 52L38 51L40 51L40 52L41 52L41 50ZM50 50L50 51L51 51L51 50ZM54 50L54 51L55 51L55 50ZM16 51L16 53L15 53L15 54L16 54L16 53L17 53L17 52L20 52L20 51ZM8 52L8 57L10 57L10 55L9 55L9 52ZM26 53L26 54L27 54L27 53ZM12 54L12 55L13 55L13 54ZM41 54L41 55L42 55L42 56L43 56L43 55L42 55L42 54ZM17 55L17 56L18 56L18 55ZM50 55L50 56L51 56L51 55ZM53 55L53 56L55 56L55 57L56 57L56 56L55 56L55 55ZM0 0L0 7L7 7L7 0ZM1 1L1 6L6 6L6 1ZM2 2L2 5L5 5L5 2ZM50 0L50 7L57 7L57 0ZM51 1L51 6L56 6L56 1ZM52 2L52 5L55 5L55 2ZM0 50L0 57L7 57L7 50ZM1 51L1 56L6 56L6 51ZM2 52L2 55L5 55L5 52Z" fill="#000000"/></g></g></svg>
