<?xml version="1.0" encoding="UTF-8"?>
<svg xmlns="http://www.w3.org/2000/svg" version="1.1" width="300" height="300" viewBox="0 0 300 300"><rect x="0" y="0" width="300" height="300" fill="#fefefe"/><g transform="scale(4.615)"><g transform="translate(4,4)"><path fill-rule="evenodd" d="M9 0L9 1L8 1L8 2L10 2L10 3L8 3L8 4L9 4L9 5L8 5L8 7L9 7L9 8L6 8L6 9L7 9L7 10L4 10L4 11L5 11L5 12L4 12L4 14L3 14L3 12L2 12L2 13L0 13L0 14L3 14L3 15L2 15L2 17L3 17L3 20L2 20L2 23L3 23L3 24L1 24L1 22L0 22L0 24L1 24L1 25L0 25L0 26L1 26L1 25L2 25L2 27L1 27L1 28L0 28L0 29L2 29L2 27L4 27L4 28L3 28L3 29L4 29L4 30L3 30L3 31L4 31L4 32L6 32L6 33L5 33L5 34L6 34L6 35L3 35L3 36L4 36L4 37L5 37L5 38L4 38L4 39L3 39L3 38L2 38L2 37L1 37L1 36L0 36L0 39L3 39L3 41L4 41L4 39L7 39L7 38L8 38L8 37L11 37L11 38L12 38L12 41L11 41L11 40L9 40L9 39L8 39L8 40L6 40L6 41L5 41L5 42L6 42L6 43L4 43L4 42L3 42L3 43L4 43L4 44L1 44L1 41L2 41L2 40L1 40L1 41L0 41L0 45L1 45L1 46L0 46L0 48L5 48L5 47L7 47L7 48L6 48L6 49L7 49L7 48L8 48L8 51L9 51L9 52L8 52L8 57L9 57L9 56L11 56L11 57L12 57L12 56L13 56L13 57L16 57L16 56L17 56L17 57L19 57L19 56L17 56L17 54L19 54L19 55L20 55L20 54L19 54L19 53L20 53L20 52L21 52L21 50L22 50L22 51L23 51L23 50L25 50L25 49L26 49L26 52L24 52L24 53L21 53L21 54L22 54L22 55L21 55L21 56L24 56L24 57L26 57L26 56L24 56L24 55L23 55L23 54L24 54L24 53L25 53L25 55L26 55L26 53L27 53L27 54L30 54L30 53L31 53L31 51L32 51L32 52L33 52L33 51L32 51L32 49L31 49L31 48L34 48L34 49L36 49L36 50L35 50L35 52L34 52L34 53L35 53L35 54L36 54L36 56L35 56L35 55L33 55L33 53L32 53L32 54L31 54L31 56L30 56L30 55L29 55L29 56L27 56L27 57L29 57L29 56L30 56L30 57L31 57L31 56L35 56L35 57L39 57L39 56L37 56L37 54L38 54L38 55L43 55L43 56L41 56L41 57L44 57L44 54L45 54L45 55L46 55L46 54L45 54L45 53L47 53L47 50L48 50L48 54L47 54L47 55L48 55L48 56L46 56L46 57L48 57L48 56L50 56L50 57L52 57L52 55L51 55L51 53L52 53L52 54L53 54L53 52L54 52L54 54L55 54L55 52L56 52L56 50L57 50L57 48L56 48L56 46L57 46L57 45L56 45L56 44L55 44L55 43L56 43L56 42L55 42L55 39L57 39L57 36L55 36L55 35L56 35L56 33L57 33L57 32L56 32L56 30L57 30L57 28L56 28L56 27L55 27L55 26L57 26L57 25L56 25L56 22L57 22L57 21L56 21L56 22L54 22L54 21L51 21L51 20L52 20L52 19L53 19L53 20L55 20L55 19L56 19L56 20L57 20L57 19L56 19L56 18L57 18L57 17L56 17L56 16L57 16L57 15L56 15L56 14L57 14L57 13L56 13L56 14L55 14L55 15L53 15L53 14L54 14L54 12L57 12L57 11L56 11L56 10L54 10L54 11L52 11L52 10L53 10L53 9L54 9L54 8L53 8L53 9L52 9L52 8L51 8L51 10L49 10L49 9L50 9L50 8L49 8L49 6L48 6L48 7L47 7L47 5L48 5L48 0L46 0L46 1L47 1L47 2L44 2L44 3L43 3L43 4L40 4L40 5L39 5L39 6L38 6L38 7L37 7L37 5L38 5L38 4L37 4L37 3L36 3L36 0L35 0L35 1L33 1L33 2L32 2L32 0L30 0L30 1L29 1L29 2L28 2L28 3L30 3L30 4L26 4L26 3L23 3L23 4L24 4L24 5L23 5L23 6L22 6L22 7L21 7L21 4L19 4L19 3L17 3L17 4L18 4L18 5L17 5L17 6L16 6L16 7L15 7L15 5L16 5L16 4L15 4L15 5L14 5L14 7L15 7L15 9L17 9L17 10L14 10L14 8L13 8L13 6L12 6L12 5L13 5L13 4L14 4L14 2L16 2L16 1L14 1L14 0ZM18 0L18 1L17 1L17 2L20 2L20 0ZM21 0L21 1L22 1L22 0ZM23 0L23 2L25 2L25 1L26 1L26 2L27 2L27 1L28 1L28 0L27 0L27 1L26 1L26 0ZM37 0L37 1L38 1L38 3L42 3L42 2L43 2L43 0L41 0L41 1L40 1L40 0L39 0L39 1L38 1L38 0ZM10 1L10 2L12 2L12 1ZM13 1L13 2L14 2L14 1ZM30 1L30 2L31 2L31 3L32 3L32 4L31 4L31 8L32 8L32 10L31 10L31 11L30 11L30 10L29 10L29 9L28 9L28 11L29 11L29 12L28 12L28 13L27 13L27 15L26 15L26 12L27 12L27 11L26 11L26 12L25 12L25 10L23 10L23 8L24 8L24 6L23 6L23 7L22 7L22 8L19 8L19 7L20 7L20 5L18 5L18 6L17 6L17 7L16 7L16 8L19 8L19 9L20 9L20 10L19 10L19 12L20 12L20 14L21 14L21 13L22 13L22 14L23 14L23 13L22 13L22 12L20 12L20 10L21 10L21 11L22 11L22 10L23 10L23 11L24 11L24 12L25 12L25 15L24 15L24 16L23 16L23 15L18 15L18 14L17 14L17 13L18 13L18 12L17 12L17 11L18 11L18 10L17 10L17 11L16 11L16 12L15 12L15 13L13 13L13 14L9 14L9 15L8 15L8 14L7 14L7 13L10 13L10 12L11 12L11 13L12 13L12 12L14 12L14 11L13 11L13 10L12 10L12 9L13 9L13 8L11 8L11 7L12 7L12 6L11 6L11 7L10 7L10 6L9 6L9 7L10 7L10 8L11 8L11 9L10 9L10 10L8 10L8 11L6 11L6 12L5 12L5 13L6 13L6 14L7 14L7 15L5 15L5 17L4 17L4 16L3 16L3 17L4 17L4 20L5 20L5 19L6 19L6 20L7 20L7 19L6 19L6 18L8 18L8 16L9 16L9 15L10 15L10 17L9 17L9 18L10 18L10 19L8 19L8 21L5 21L5 23L4 23L4 24L3 24L3 26L9 26L9 27L10 27L10 29L9 29L9 30L10 30L10 29L11 29L11 31L9 31L9 32L8 32L8 31L6 31L6 32L7 32L7 33L6 33L6 34L8 34L8 36L7 36L7 35L6 35L6 36L7 36L7 37L6 37L6 38L7 38L7 37L8 37L8 36L9 36L9 35L10 35L10 34L11 34L11 36L12 36L12 38L13 38L13 40L15 40L15 41L16 41L16 42L15 42L15 43L13 43L13 46L12 46L12 43L11 43L11 42L10 42L10 43L9 43L9 44L8 44L8 43L6 43L6 44L8 44L8 45L6 45L6 46L7 46L7 47L9 47L9 46L8 46L8 45L9 45L9 44L10 44L10 43L11 43L11 46L10 46L10 47L11 47L11 46L12 46L12 48L10 48L10 50L9 50L9 51L11 51L11 49L12 49L12 48L13 48L13 47L16 47L16 48L18 48L18 46L17 46L17 45L18 45L18 44L16 44L16 43L18 43L18 42L19 42L19 43L20 43L20 47L21 47L21 48L20 48L20 50L18 50L18 51L19 51L19 52L20 52L20 50L21 50L21 49L23 49L23 47L25 47L25 48L24 48L24 49L25 49L25 48L30 48L30 47L29 47L29 46L30 46L30 45L31 45L31 47L33 47L33 46L35 46L35 48L36 48L36 47L37 47L37 46L35 46L35 45L34 45L34 43L35 43L35 44L36 44L36 43L37 43L37 42L35 42L35 40L38 40L38 42L39 42L39 43L41 43L41 44L39 44L39 45L38 45L38 46L41 46L41 48L39 48L39 47L38 47L38 48L37 48L37 49L38 49L38 50L36 50L36 52L37 52L37 53L38 53L38 54L40 54L40 53L41 53L41 52L40 52L40 51L38 51L38 50L41 50L41 51L42 51L42 50L41 50L41 48L42 48L42 49L43 49L43 48L44 48L44 49L45 49L45 50L47 50L47 49L48 49L48 48L51 48L51 46L53 46L53 47L54 47L54 46L56 46L56 45L55 45L55 44L54 44L54 45L51 45L51 44L53 44L53 43L54 43L54 42L53 42L53 41L51 41L51 42L50 42L50 43L47 43L47 42L48 42L48 41L49 41L49 40L50 40L50 39L51 39L51 40L52 40L52 39L55 39L55 37L53 37L53 35L55 35L55 34L54 34L54 33L52 33L52 31L50 31L50 32L49 32L49 31L48 31L48 30L47 30L47 29L46 29L46 30L47 30L47 31L45 31L45 32L43 32L43 30L44 30L44 29L45 29L45 28L46 28L46 27L48 27L48 26L47 26L47 25L48 25L48 24L51 24L51 25L50 25L50 26L51 26L51 25L53 25L53 23L50 23L50 22L51 22L51 21L49 21L49 22L48 22L48 24L47 24L47 23L46 23L46 22L47 22L47 21L48 21L48 20L49 20L49 19L52 19L52 18L56 18L56 17L53 17L53 15L50 15L50 14L51 14L51 12L50 12L50 11L48 11L48 10L47 10L47 9L48 9L48 8L44 8L44 6L45 6L45 7L46 7L46 5L47 5L47 3L44 3L44 6L43 6L43 5L40 5L40 6L39 6L39 7L40 7L40 8L39 8L39 9L38 9L38 8L37 8L37 7L36 7L36 5L37 5L37 4L36 4L36 5L35 5L35 3L32 3L32 2L31 2L31 1ZM11 3L11 4L10 4L10 5L12 5L12 3ZM25 4L25 8L26 8L26 4ZM32 4L32 5L34 5L34 7L33 7L33 6L32 6L32 7L33 7L33 9L34 9L34 8L35 8L35 9L37 9L37 10L36 10L36 12L35 12L35 13L37 13L37 14L38 14L38 15L39 15L39 16L38 16L38 17L37 17L37 16L35 16L35 14L33 14L33 13L34 13L34 12L33 12L33 13L32 13L32 11L33 11L33 10L32 10L32 11L31 11L31 13L30 13L30 14L29 14L29 13L28 13L28 14L29 14L29 16L28 16L28 15L27 15L27 16L28 16L28 17L26 17L26 15L25 15L25 17L22 17L22 16L20 16L20 17L19 17L19 16L18 16L18 15L17 15L17 16L16 16L16 13L17 13L17 12L16 12L16 13L15 13L15 14L14 14L14 15L12 15L12 17L13 17L13 18L14 18L14 15L15 15L15 16L16 16L16 17L15 17L15 18L16 18L16 17L17 17L17 18L18 18L18 17L19 17L19 19L18 19L18 20L17 20L17 21L16 21L16 20L15 20L15 21L16 21L16 22L14 22L14 21L13 21L13 22L11 22L11 21L10 21L10 20L14 20L14 19L12 19L12 18L11 18L11 17L10 17L10 18L11 18L11 19L10 19L10 20L9 20L9 23L7 23L7 22L6 22L6 23L5 23L5 24L4 24L4 25L5 25L5 24L6 24L6 25L8 25L8 24L10 24L10 25L13 25L13 26L15 26L15 28L16 28L16 29L15 29L15 30L14 30L14 29L12 29L12 31L11 31L11 32L12 32L12 31L13 31L13 30L14 30L14 32L13 32L13 33L14 33L14 34L12 34L12 33L11 33L11 34L12 34L12 35L15 35L15 36L14 36L14 37L13 37L13 38L16 38L16 37L15 37L15 36L17 36L17 37L18 37L18 38L17 38L17 39L18 39L18 40L16 40L16 39L15 39L15 40L16 40L16 41L19 41L19 42L20 42L20 40L21 40L21 39L22 39L22 37L19 37L19 34L20 34L20 36L21 36L21 35L22 35L22 36L23 36L23 37L24 37L24 38L23 38L23 39L24 39L24 40L23 40L23 41L24 41L24 42L22 42L22 41L21 41L21 42L22 42L22 43L21 43L21 44L22 44L22 45L21 45L21 47L23 47L23 46L25 46L25 44L27 44L27 43L28 43L28 45L26 45L26 47L28 47L28 45L29 45L29 44L31 44L31 45L32 45L32 46L33 46L33 45L32 45L32 44L33 44L33 43L34 43L34 42L33 42L33 41L32 41L32 40L30 40L30 41L29 41L29 40L28 40L28 39L27 39L27 38L28 38L28 37L27 37L27 33L26 33L26 35L25 35L25 33L23 33L23 34L24 34L24 36L23 36L23 35L22 35L22 33L21 33L21 34L20 34L20 33L19 33L19 32L20 32L20 31L21 31L21 32L23 32L23 31L21 31L21 30L20 30L20 31L17 31L17 34L16 34L16 35L15 35L15 33L16 33L16 32L15 32L15 31L16 31L16 29L18 29L18 30L19 30L19 29L22 29L22 28L19 28L19 29L18 29L18 28L16 28L16 27L18 27L18 26L15 26L15 23L16 23L16 24L17 24L17 25L19 25L19 27L20 27L20 25L22 25L22 26L21 26L21 27L22 27L22 26L24 26L24 27L23 27L23 28L24 28L24 29L23 29L23 30L25 30L25 31L24 31L24 32L25 32L25 31L26 31L26 32L28 32L28 33L29 33L29 34L30 34L30 36L29 36L29 37L31 37L31 38L29 38L29 39L33 39L33 40L35 40L35 39L38 39L38 40L40 40L40 39L38 39L38 36L39 36L39 37L40 37L40 38L41 38L41 39L42 39L42 38L43 38L43 37L44 37L44 38L45 38L45 39L43 39L43 40L45 40L45 39L46 39L46 41L47 41L47 39L50 39L50 38L51 38L51 37L52 37L52 35L53 35L53 34L52 34L52 33L51 33L51 32L50 32L50 34L48 34L48 35L47 35L47 36L48 36L48 37L47 37L47 39L46 39L46 38L45 38L45 37L44 37L44 36L45 36L45 35L44 35L44 33L43 33L43 32L41 32L41 33L39 33L39 34L40 34L40 35L38 35L38 33L37 33L37 32L35 32L35 31L36 31L36 30L31 30L31 29L32 29L32 28L31 28L31 26L32 26L32 27L33 27L33 28L35 28L35 29L38 29L38 28L39 28L39 27L37 27L37 28L36 28L36 26L34 26L34 27L33 27L33 26L32 26L32 24L33 24L33 25L37 25L37 26L38 26L38 25L39 25L39 26L40 26L40 27L41 27L41 28L42 28L42 27L41 27L41 26L43 26L43 27L44 27L44 28L43 28L43 29L39 29L39 30L38 30L38 32L39 32L39 31L41 31L41 30L43 30L43 29L44 29L44 28L45 28L45 27L46 27L46 26L45 26L45 27L44 27L44 26L43 26L43 25L44 25L44 20L46 20L46 18L44 18L44 15L45 15L45 17L47 17L47 18L50 18L50 17L49 17L49 16L50 16L50 15L49 15L49 14L50 14L50 12L49 12L49 13L47 13L47 14L45 14L45 13L44 13L44 12L43 12L43 13L39 13L39 12L41 12L41 11L43 11L43 10L44 10L44 11L45 11L45 12L47 12L47 10L46 10L46 9L45 9L45 10L44 10L44 8L42 8L42 7L43 7L43 6L42 6L42 7L41 7L41 6L40 6L40 7L41 7L41 10L40 10L40 9L39 9L39 10L40 10L40 11L37 11L37 10L38 10L38 9L37 9L37 8L35 8L35 5L34 5L34 4ZM45 4L45 5L46 5L46 4ZM27 5L27 8L30 8L30 5ZM18 6L18 7L19 7L19 6ZM28 6L28 7L29 7L29 6ZM0 8L0 9L5 9L5 8ZM55 8L55 9L56 9L56 8ZM21 9L21 10L22 10L22 9ZM0 10L0 11L3 11L3 10ZM45 10L45 11L46 11L46 10ZM6 12L6 13L7 13L7 12ZM52 12L52 13L53 13L53 12ZM38 13L38 14L39 14L39 13ZM43 13L43 14L41 14L41 16L39 16L39 17L38 17L38 18L37 18L37 17L35 17L35 16L33 16L33 15L32 15L32 18L30 18L30 19L29 19L29 20L27 20L27 19L28 19L28 18L27 18L27 19L26 19L26 17L25 17L25 19L26 19L26 20L25 20L25 21L24 21L24 20L20 20L20 19L19 19L19 20L20 20L20 21L18 21L18 22L20 22L20 23L19 23L19 24L22 24L22 25L24 25L24 24L25 24L25 25L26 25L26 26L25 26L25 27L26 27L26 26L27 26L27 25L31 25L31 24L32 24L32 23L33 23L33 22L34 22L34 23L35 23L35 19L36 19L36 20L37 20L37 21L38 21L38 22L37 22L37 24L39 24L39 25L43 25L43 24L42 24L42 23L41 23L41 24L39 24L39 23L40 23L40 22L39 22L39 21L43 21L43 20L44 20L44 18L43 18L43 19L42 19L42 18L41 18L41 20L39 20L39 21L38 21L38 20L37 20L37 19L39 19L39 17L41 17L41 16L42 16L42 17L43 17L43 16L42 16L42 15L44 15L44 13ZM30 14L30 15L31 15L31 14ZM46 15L46 16L47 16L47 17L48 17L48 16L49 16L49 15L48 15L48 16L47 16L47 15ZM0 16L0 17L1 17L1 16ZM6 16L6 17L5 17L5 18L6 18L6 17L7 17L7 16ZM17 16L17 17L18 17L18 16ZM20 17L20 18L22 18L22 17ZM0 18L0 20L1 20L1 19L2 19L2 18ZM23 18L23 19L24 19L24 18ZM32 18L32 19L31 19L31 20L29 20L29 21L25 21L25 22L26 22L26 23L25 23L25 24L27 24L27 23L28 23L28 24L29 24L29 23L31 23L31 21L32 21L32 20L33 20L33 21L34 21L34 20L33 20L33 19L34 19L34 18ZM21 21L21 22L22 22L22 23L23 23L23 24L24 24L24 23L23 23L23 22L24 22L24 21L23 21L23 22L22 22L22 21ZM45 21L45 22L46 22L46 21ZM10 22L10 24L11 24L11 22ZM13 22L13 24L14 24L14 22ZM38 22L38 23L39 23L39 22ZM6 23L6 24L7 24L7 23ZM17 23L17 24L18 24L18 23ZM45 24L45 25L46 25L46 24ZM54 24L54 25L55 25L55 24ZM10 26L10 27L12 27L12 26ZM53 26L53 27L54 27L54 26ZM5 27L5 30L8 30L8 27ZM27 27L27 30L30 30L30 27ZM49 27L49 30L52 30L52 27ZM6 28L6 29L7 29L7 28ZM25 28L25 29L26 29L26 28ZM28 28L28 29L29 29L29 28ZM50 28L50 29L51 29L51 28ZM54 28L54 29L53 29L53 30L55 30L55 28ZM0 30L0 31L2 31L2 30ZM28 31L28 32L29 32L29 33L31 33L31 31ZM32 31L32 35L33 35L33 36L32 36L32 37L33 37L33 38L34 38L34 39L35 39L35 36L37 36L37 34L35 34L35 32L34 32L34 31ZM47 31L47 32L48 32L48 33L49 33L49 32L48 32L48 31ZM0 32L0 33L2 33L2 34L4 34L4 33L3 33L3 32ZM55 32L55 33L56 33L56 32ZM8 33L8 34L10 34L10 33ZM0 34L0 35L1 35L1 34ZM17 34L17 36L18 36L18 34ZM33 34L33 35L34 35L34 36L35 36L35 34ZM42 34L42 35L41 35L41 36L40 36L40 37L41 37L41 36L42 36L42 35L43 35L43 36L44 36L44 35L43 35L43 34ZM50 34L50 35L48 35L48 36L50 36L50 37L48 37L48 38L50 38L50 37L51 37L51 36L50 36L50 35L52 35L52 34ZM25 37L25 40L24 40L24 41L25 41L25 43L23 43L23 44L25 44L25 43L27 43L27 42L29 42L29 41L28 41L28 40L26 40L26 38L27 38L27 37ZM19 38L19 39L20 39L20 38ZM41 40L41 43L42 43L42 44L41 44L41 46L43 46L43 47L42 47L42 48L43 48L43 47L44 47L44 46L43 46L43 45L44 45L44 44L43 44L43 42L44 42L44 41L42 41L42 40ZM6 41L6 42L7 42L7 41ZM8 41L8 42L9 42L9 41ZM26 41L26 42L27 42L27 41ZM30 41L30 42L32 42L32 43L31 43L31 44L32 44L32 43L33 43L33 42L32 42L32 41ZM39 41L39 42L40 42L40 41ZM45 42L45 43L46 43L46 44L45 44L45 45L47 45L47 43L46 43L46 42ZM51 42L51 43L50 43L50 44L49 44L49 45L48 45L48 46L45 46L45 48L46 48L46 49L47 49L47 48L48 48L48 47L50 47L50 46L51 46L51 45L50 45L50 44L51 44L51 43L53 43L53 42ZM4 44L4 45L5 45L5 44ZM22 45L22 46L23 46L23 45ZM49 45L49 46L50 46L50 45ZM1 46L1 47L2 47L2 46ZM3 46L3 47L5 47L5 46ZM46 47L46 48L47 48L47 47ZM38 48L38 49L39 49L39 48ZM53 48L53 49L54 49L54 48ZM55 48L55 50L54 50L54 51L55 51L55 50L56 50L56 48ZM13 49L13 50L12 50L12 51L14 51L14 54L13 54L13 52L12 52L12 53L11 53L11 52L10 52L10 54L9 54L9 55L11 55L11 56L12 56L12 54L13 54L13 55L14 55L14 56L16 56L16 55L15 55L15 54L16 54L16 53L17 53L17 51L14 51L14 50L17 50L17 49ZM27 49L27 52L30 52L30 49ZM49 49L49 52L52 52L52 49ZM28 50L28 51L29 51L29 50ZM43 50L43 51L44 51L44 50ZM50 50L50 51L51 51L51 50ZM37 51L37 52L38 52L38 53L39 53L39 52L38 52L38 51ZM45 51L45 52L44 52L44 53L43 53L43 52L42 52L42 53L43 53L43 54L44 54L44 53L45 53L45 52L46 52L46 51ZM15 52L15 53L16 53L16 52ZM50 55L50 56L51 56L51 55ZM53 55L53 56L55 56L55 57L56 57L56 56L55 56L55 55ZM0 0L0 7L7 7L7 0ZM1 1L1 6L6 6L6 1ZM2 2L2 5L5 5L5 2ZM50 0L50 7L57 7L57 0ZM51 1L51 6L56 6L56 1ZM52 2L52 5L55 5L55 2ZM0 50L0 57L7 57L7 50ZM1 51L1 56L6 56L6 51ZM2 52L2 55L5 55L5 52Z" fill="#000000"/></g></g></svg>
