<?xml version="1.0" encoding="UTF-8"?>
<svg xmlns="http://www.w3.org/2000/svg" version="1.1" width="300" height="300" viewBox="0 0 300 300"><rect x="0" y="0" width="300" height="300" fill="#fefefe"/><g transform="scale(4.615)"><g transform="translate(4,4)"><path fill-rule="evenodd" d="M9 0L9 1L8 1L8 2L9 2L9 3L8 3L8 4L9 4L9 5L8 5L8 7L9 7L9 5L10 5L10 4L11 4L11 5L12 5L12 7L11 7L11 6L10 6L10 8L11 8L11 10L9 10L9 8L6 8L6 9L8 9L8 11L7 11L7 10L6 10L6 11L7 11L7 12L6 12L6 13L4 13L4 11L5 11L5 10L4 10L4 9L5 9L5 8L0 8L0 9L2 9L2 10L3 10L3 11L1 11L1 10L0 10L0 12L1 12L1 13L0 13L0 16L1 16L1 17L2 17L2 18L0 18L0 21L1 21L1 24L0 24L0 25L2 25L2 26L0 26L0 28L1 28L1 27L2 27L2 29L1 29L1 31L2 31L2 32L0 32L0 34L4 34L4 33L5 33L5 32L6 32L6 33L7 33L7 32L10 32L10 33L9 33L9 34L5 34L5 35L2 35L2 36L1 36L1 35L0 35L0 38L3 38L3 37L5 37L5 38L4 38L4 40L3 40L3 39L2 39L2 40L1 40L1 39L0 39L0 40L1 40L1 41L2 41L2 43L3 43L3 44L0 44L0 48L5 48L5 47L8 47L8 48L6 48L6 49L8 49L8 51L9 51L9 52L8 52L8 57L10 57L10 56L9 56L9 53L11 53L11 54L10 54L10 55L11 55L11 54L12 54L12 53L11 53L11 51L13 51L13 53L14 53L14 54L13 54L13 55L12 55L12 56L11 56L11 57L12 57L12 56L13 56L13 57L16 57L16 56L17 56L17 57L22 57L22 56L24 56L24 57L26 57L26 56L27 56L27 57L29 57L29 56L30 56L30 57L31 57L31 56L35 56L35 57L39 57L39 56L37 56L37 55L40 55L40 56L42 56L42 55L44 55L44 56L43 56L43 57L44 57L44 56L45 56L45 57L46 57L46 56L45 56L45 55L47 55L47 56L48 56L48 57L49 57L49 56L50 56L50 57L52 57L52 55L51 55L51 53L52 53L52 54L53 54L53 57L54 57L54 56L55 56L55 57L56 57L56 56L55 56L55 54L54 54L54 53L55 53L55 51L56 51L56 52L57 52L57 51L56 51L56 50L55 50L55 48L56 48L56 49L57 49L57 48L56 48L56 46L57 46L57 45L56 45L56 44L57 44L57 43L56 43L56 42L55 42L55 39L57 39L57 37L56 37L56 36L57 36L57 35L56 35L56 33L57 33L57 32L56 32L56 30L57 30L57 28L56 28L56 27L55 27L55 26L57 26L57 25L56 25L56 22L57 22L57 21L56 21L56 20L57 20L57 19L56 19L56 16L57 16L57 15L56 15L56 14L57 14L57 13L56 13L56 14L55 14L55 13L54 13L54 12L56 12L56 10L54 10L54 11L53 11L53 10L52 10L52 11L50 11L50 8L49 8L49 9L48 9L48 7L49 7L49 6L48 6L48 7L47 7L47 5L48 5L48 0L45 0L45 1L47 1L47 2L44 2L44 3L43 3L43 4L40 4L40 5L39 5L39 6L38 6L38 7L37 7L37 5L38 5L38 4L37 4L37 3L36 3L36 0L35 0L35 1L32 1L32 3L31 3L31 4L26 4L26 3L23 3L23 4L24 4L24 5L23 5L23 6L22 6L22 8L23 8L23 6L24 6L24 9L23 9L23 10L22 10L22 9L21 9L21 10L22 10L22 11L19 11L19 10L20 10L20 9L19 9L19 8L21 8L21 5L22 5L22 4L19 4L19 3L17 3L17 4L18 4L18 5L17 5L17 6L16 6L16 7L15 7L15 5L16 5L16 4L15 4L15 5L14 5L14 7L13 7L13 4L14 4L14 2L15 2L15 3L16 3L16 2L20 2L20 0L17 0L17 1L15 1L15 0L14 0L14 2L13 2L13 1L12 1L12 0ZM21 0L21 1L22 1L22 0ZM23 0L23 2L25 2L25 1L26 1L26 2L28 2L28 3L29 3L29 2L31 2L31 0L27 0L27 1L26 1L26 0ZM37 0L37 1L38 1L38 3L41 3L41 2L43 2L43 0L41 0L41 1L40 1L40 0L39 0L39 1L38 1L38 0ZM9 1L9 2L10 2L10 3L11 3L11 4L12 4L12 2L11 2L11 1ZM21 2L21 3L22 3L22 2ZM32 3L32 4L31 4L31 8L32 8L32 10L31 10L31 11L30 11L30 10L28 10L28 11L29 11L29 12L28 12L28 13L26 13L26 12L27 12L27 11L26 11L26 12L25 12L25 10L23 10L23 12L25 12L25 14L23 14L23 13L22 13L22 12L20 12L20 14L19 14L19 17L18 17L18 18L19 18L19 19L17 19L17 17L16 17L16 16L17 16L17 13L18 13L18 12L17 12L17 11L18 11L18 10L19 10L19 9L15 9L15 8L14 8L14 9L13 9L13 8L12 8L12 9L13 9L13 10L17 10L17 11L15 11L15 13L13 13L13 12L14 12L14 11L12 11L12 10L11 10L11 11L12 11L12 12L10 12L10 11L8 11L8 12L7 12L7 13L6 13L6 14L8 14L8 15L6 15L6 16L5 16L5 17L3 17L3 16L4 16L4 14L3 14L3 12L2 12L2 13L1 13L1 15L3 15L3 16L2 16L2 17L3 17L3 18L2 18L2 19L4 19L4 18L5 18L5 19L6 19L6 20L2 20L2 21L3 21L3 22L4 22L4 23L3 23L3 24L2 24L2 25L3 25L3 26L2 26L2 27L3 27L3 26L4 26L4 25L6 25L6 26L7 26L7 25L6 25L6 24L8 24L8 26L9 26L9 27L10 27L10 28L9 28L9 29L10 29L10 30L9 30L9 31L11 31L11 32L12 32L12 33L10 33L10 35L11 35L11 34L12 34L12 33L14 33L14 34L13 34L13 35L12 35L12 36L11 36L11 38L13 38L13 37L12 37L12 36L13 36L13 35L15 35L15 37L14 37L14 39L13 39L13 41L15 41L15 42L17 42L17 43L18 43L18 42L19 42L19 44L20 44L20 46L19 46L19 47L20 47L20 48L19 48L19 49L20 49L20 50L18 50L18 49L17 49L17 48L18 48L18 47L17 47L17 48L16 48L16 49L15 49L15 50L14 50L14 51L15 51L15 52L16 52L16 53L15 53L15 54L16 54L16 53L17 53L17 52L16 52L16 51L17 51L17 50L18 50L18 52L19 52L19 51L22 51L22 52L20 52L20 53L19 53L19 54L18 54L18 55L19 55L19 56L21 56L21 55L22 55L22 54L23 54L23 55L24 55L24 56L25 56L25 53L24 53L24 52L26 52L26 51L25 51L25 50L21 50L21 49L23 49L23 48L24 48L24 49L25 49L25 48L27 48L27 47L28 47L28 48L30 48L30 47L29 47L29 45L30 45L30 46L31 46L31 48L32 48L32 49L31 49L31 50L36 50L36 52L37 52L37 51L38 51L38 54L40 54L40 53L42 53L42 52L43 52L43 51L46 51L46 50L47 50L47 52L44 52L44 53L43 53L43 54L44 54L44 55L45 55L45 54L47 54L47 53L48 53L48 50L47 50L47 49L48 49L48 48L49 48L49 47L48 47L48 46L50 46L50 47L51 47L51 46L53 46L53 47L55 47L55 46L56 46L56 45L55 45L55 44L54 44L54 46L53 46L53 43L54 43L54 42L53 42L53 41L54 41L54 40L53 40L53 41L51 41L51 42L50 42L50 43L49 43L49 42L48 42L48 41L49 41L49 39L51 39L51 38L53 38L53 35L55 35L55 36L56 36L56 35L55 35L55 34L54 34L54 33L56 33L56 32L53 32L53 31L54 31L54 30L53 30L53 31L51 31L51 33L52 33L52 34L50 34L50 32L49 32L49 31L48 31L48 30L47 30L47 29L48 29L48 27L47 27L47 24L49 24L49 23L50 23L50 26L51 26L51 25L52 25L52 26L53 26L53 27L54 27L54 26L53 26L53 23L52 23L52 24L51 24L51 23L50 23L50 22L51 22L51 21L54 21L54 23L55 23L55 22L56 22L56 21L55 21L55 20L56 20L56 19L55 19L55 20L53 20L53 19L52 19L52 17L53 17L53 18L55 18L55 17L53 17L53 15L55 15L55 14L54 14L54 13L53 13L53 12L52 12L52 13L53 13L53 15L50 15L50 14L51 14L51 12L50 12L50 11L49 11L49 10L48 10L48 11L49 11L49 12L45 12L45 11L46 11L46 10L47 10L47 7L46 7L46 5L47 5L47 3L44 3L44 6L43 6L43 7L42 7L42 5L40 5L40 6L39 6L39 7L40 7L40 8L39 8L39 9L38 9L38 8L37 8L37 7L36 7L36 5L37 5L37 4L36 4L36 5L35 5L35 4L33 4L33 3ZM25 4L25 8L26 8L26 4ZM32 4L32 5L33 5L33 6L32 6L32 7L33 7L33 9L34 9L34 8L35 8L35 9L37 9L37 10L36 10L36 12L35 12L35 13L37 13L37 14L36 14L36 15L37 15L37 14L38 14L38 15L39 15L39 16L38 16L38 17L37 17L37 16L35 16L35 14L33 14L33 13L34 13L34 12L33 12L33 10L32 10L32 12L31 12L31 13L30 13L30 14L29 14L29 13L28 13L28 14L29 14L29 16L28 16L28 15L27 15L27 16L28 16L28 17L26 17L26 15L25 15L25 17L22 17L22 16L21 16L21 15L23 15L23 14L22 14L22 13L21 13L21 15L20 15L20 17L19 17L19 18L20 18L20 17L22 17L22 19L21 19L21 21L22 21L22 22L24 22L24 21L25 21L25 22L26 22L26 23L25 23L25 24L24 24L24 23L21 23L21 24L20 24L20 25L19 25L19 23L20 23L20 22L19 22L19 23L18 23L18 22L17 22L17 21L20 21L20 20L17 20L17 19L16 19L16 20L15 20L15 21L16 21L16 22L15 22L15 23L14 23L14 21L11 21L11 17L12 17L12 18L14 18L14 16L16 16L16 13L17 13L17 12L16 12L16 13L15 13L15 14L13 14L13 13L12 13L12 15L10 15L10 14L9 14L9 13L8 13L8 14L9 14L9 15L10 15L10 16L9 16L9 17L10 17L10 21L9 21L9 19L7 19L7 18L6 18L6 17L8 17L8 16L6 16L6 17L5 17L5 18L6 18L6 19L7 19L7 20L6 20L6 21L5 21L5 22L6 22L6 23L5 23L5 24L6 24L6 23L7 23L7 22L8 22L8 21L9 21L9 24L10 24L10 22L13 22L13 23L12 23L12 24L11 24L11 25L12 25L12 26L10 26L10 25L9 25L9 26L10 26L10 27L13 27L13 28L15 28L15 26L13 26L13 25L14 25L14 24L15 24L15 23L16 23L16 24L17 24L17 25L18 25L18 26L16 26L16 27L18 27L18 26L20 26L20 27L19 27L19 28L20 28L20 27L22 27L22 26L23 26L23 31L21 31L21 30L20 30L20 29L18 29L18 28L16 28L16 29L12 29L12 30L11 30L11 31L13 31L13 32L14 32L14 33L16 33L16 32L18 32L18 33L17 33L17 35L18 35L18 36L17 36L17 37L18 37L18 38L20 38L20 39L19 39L19 40L17 40L17 41L19 41L19 42L20 42L20 43L21 43L21 44L22 44L22 45L21 45L21 47L23 47L23 46L25 46L25 45L23 45L23 43L25 43L25 44L27 44L27 43L25 43L25 41L24 41L24 40L25 40L25 37L26 37L26 36L27 36L27 33L26 33L26 32L28 32L28 33L29 33L29 34L30 34L30 36L29 36L29 37L31 37L31 38L29 38L29 39L33 39L33 40L35 40L35 42L37 42L37 43L34 43L34 42L33 42L33 41L32 41L32 40L30 40L30 42L28 42L28 45L26 45L26 47L27 47L27 46L28 46L28 45L29 45L29 43L31 43L31 44L33 44L33 43L34 43L34 45L37 45L37 47L36 47L36 48L35 48L35 49L36 49L36 50L38 50L38 51L40 51L40 52L41 52L41 50L42 50L42 51L43 51L43 50L44 50L44 48L43 48L43 47L45 47L45 50L46 50L46 49L47 49L47 48L48 48L48 47L47 47L47 46L48 46L48 45L47 45L47 43L48 43L48 42L47 42L47 43L46 43L46 42L43 42L43 41L44 41L44 40L45 40L45 39L44 39L44 40L43 40L43 39L42 39L42 38L43 38L43 37L44 37L44 38L45 38L45 37L47 37L47 36L48 36L48 35L50 35L50 36L49 36L49 37L48 37L48 38L47 38L47 39L46 39L46 40L47 40L47 39L48 39L48 38L50 38L50 36L51 36L51 37L52 37L52 35L53 35L53 34L52 34L52 35L50 35L50 34L48 34L48 35L47 35L47 34L45 34L45 35L44 35L44 33L43 33L43 32L45 32L45 31L47 31L47 32L48 32L48 33L49 33L49 32L48 32L48 31L47 31L47 30L46 30L46 29L47 29L47 27L46 27L46 26L45 26L45 25L44 25L44 20L46 20L46 19L47 19L47 18L49 18L49 21L47 21L47 22L46 22L46 21L45 21L45 22L46 22L46 23L45 23L45 24L47 24L47 23L49 23L49 21L51 21L51 20L52 20L52 19L50 19L50 17L49 17L49 16L50 16L50 15L49 15L49 14L50 14L50 12L49 12L49 13L47 13L47 14L43 14L43 13L44 13L44 11L45 11L45 10L44 10L44 8L46 8L46 7L45 7L45 6L44 6L44 8L42 8L42 7L41 7L41 6L40 6L40 7L41 7L41 9L39 9L39 10L38 10L38 9L37 9L37 8L35 8L35 5L33 5L33 4ZM45 4L45 5L46 5L46 4ZM18 5L18 6L17 6L17 7L16 7L16 8L19 8L19 7L20 7L20 5ZM27 5L27 8L30 8L30 5ZM18 6L18 7L19 7L19 6ZM28 6L28 7L29 7L29 6ZM33 6L33 7L34 7L34 6ZM51 8L51 9L52 9L52 8ZM53 8L53 9L54 9L54 8ZM55 8L55 9L56 9L56 8ZM37 10L37 11L38 11L38 10ZM40 10L40 11L39 11L39 13L38 13L38 14L41 14L41 16L39 16L39 17L38 17L38 18L37 18L37 17L35 17L35 16L33 16L33 15L32 15L32 17L31 17L31 18L30 18L30 19L28 19L28 18L25 18L25 19L26 19L26 21L28 21L28 22L27 22L27 24L25 24L25 25L26 25L26 26L25 26L25 27L26 27L26 26L29 26L29 25L31 25L31 24L32 24L32 26L31 26L31 28L32 28L32 30L31 30L31 31L28 31L28 32L29 32L29 33L31 33L31 34L33 34L33 35L34 35L34 34L35 34L35 36L37 36L37 37L38 37L38 39L35 39L35 37L33 37L33 36L32 36L32 37L33 37L33 38L34 38L34 39L35 39L35 40L38 40L38 42L39 42L39 41L42 41L42 40L41 40L41 38L40 38L40 37L41 37L41 36L44 36L44 37L45 37L45 36L44 36L44 35L43 35L43 34L42 34L42 35L41 35L41 36L40 36L40 37L38 37L38 35L40 35L40 34L39 34L39 33L41 33L41 32L43 32L43 31L44 31L44 29L45 29L45 28L46 28L46 27L45 27L45 28L44 28L44 26L42 26L42 25L41 25L41 24L40 24L40 22L39 22L39 21L41 21L41 20L38 20L38 22L39 22L39 24L38 24L38 23L37 23L37 24L38 24L38 26L37 26L37 25L33 25L33 24L32 24L32 23L35 23L35 20L34 20L34 19L33 19L33 20L32 20L32 21L31 21L31 22L30 22L30 21L29 21L29 20L30 20L30 19L31 19L31 18L32 18L32 17L33 17L33 18L35 18L35 19L36 19L36 20L37 20L37 19L39 19L39 17L41 17L41 16L42 16L42 17L43 17L43 16L42 16L42 15L43 15L43 14L41 14L41 13L43 13L43 11L44 11L44 10L43 10L43 11L42 11L42 10ZM40 11L40 12L41 12L41 11ZM32 12L32 13L31 13L31 14L30 14L30 15L31 15L31 14L32 14L32 13L33 13L33 12ZM12 15L12 17L13 17L13 15ZM44 15L44 18L43 18L43 20L42 20L42 21L43 21L43 20L44 20L44 18L45 18L45 19L46 19L46 18L47 18L47 17L48 17L48 16L49 16L49 15L48 15L48 16L47 16L47 15L46 15L46 16L45 16L45 15ZM10 16L10 17L11 17L11 16ZM46 16L46 17L45 17L45 18L46 18L46 17L47 17L47 16ZM23 18L23 19L24 19L24 18ZM41 18L41 19L42 19L42 18ZM12 19L12 20L14 20L14 19ZM7 20L7 21L6 21L6 22L7 22L7 21L8 21L8 20ZM16 20L16 21L17 21L17 20ZM22 20L22 21L24 21L24 20ZM33 20L33 21L34 21L34 20ZM29 22L29 23L30 23L30 24L31 24L31 23L30 23L30 22ZM41 22L41 23L42 23L42 24L43 24L43 23L42 23L42 22ZM3 24L3 25L4 25L4 24ZM12 24L12 25L13 25L13 24ZM21 24L21 25L20 25L20 26L21 26L21 25L23 25L23 24ZM39 24L39 25L40 25L40 24ZM32 26L32 27L33 27L33 28L36 28L36 29L35 29L35 30L33 30L33 31L35 31L35 30L37 30L37 29L38 29L38 28L40 28L40 27L41 27L41 28L42 28L42 26L39 26L39 27L37 27L37 28L36 28L36 26L34 26L34 27L33 27L33 26ZM5 27L5 30L8 30L8 27ZM27 27L27 30L30 30L30 27ZM49 27L49 30L52 30L52 27ZM3 28L3 29L2 29L2 31L4 31L4 30L3 30L3 29L4 29L4 28ZM6 28L6 29L7 29L7 28ZM10 28L10 29L11 29L11 28ZM21 28L21 29L22 29L22 28ZM25 28L25 29L26 29L26 28ZM28 28L28 29L29 29L29 28ZM43 28L43 29L41 29L41 30L43 30L43 29L44 29L44 28ZM50 28L50 29L51 29L51 28ZM54 28L54 29L55 29L55 28ZM16 29L16 30L17 30L17 31L18 31L18 32L19 32L19 31L20 31L20 32L21 32L21 33L20 33L20 34L19 34L19 33L18 33L18 34L19 34L19 37L23 37L23 38L24 38L24 37L23 37L23 36L24 36L24 34L23 34L23 33L25 33L25 35L26 35L26 33L25 33L25 32L26 32L26 31L25 31L25 30L24 30L24 31L23 31L23 32L21 32L21 31L20 31L20 30L19 30L19 31L18 31L18 29ZM39 29L39 30L38 30L38 32L39 32L39 30L40 30L40 29ZM13 30L13 31L15 31L15 30ZM6 31L6 32L7 32L7 31ZM2 32L2 33L3 33L3 32ZM31 32L31 33L32 33L32 32ZM33 32L33 34L34 34L34 32ZM35 32L35 34L37 34L37 35L38 35L38 33L37 33L37 32ZM52 32L52 33L53 33L53 32ZM21 33L21 34L20 34L20 36L21 36L21 35L22 35L22 33ZM6 35L6 36L5 36L5 37L6 37L6 38L8 38L8 37L9 37L9 39L5 39L5 40L7 40L7 41L6 41L6 42L7 42L7 43L6 43L6 44L5 44L5 42L3 42L3 43L4 43L4 45L1 45L1 47L2 47L2 46L3 46L3 47L5 47L5 46L7 46L7 45L8 45L8 47L9 47L9 51L10 51L10 50L13 50L13 48L14 48L14 47L15 47L15 46L17 46L17 45L18 45L18 44L17 44L17 45L16 45L16 43L15 43L15 46L13 46L13 47L12 47L12 45L11 45L11 44L10 44L10 45L9 45L9 43L12 43L12 44L14 44L14 43L12 43L12 41L10 41L10 40L9 40L9 39L10 39L10 37L9 37L9 36L8 36L8 37L6 37L6 36L7 36L7 35ZM46 35L46 36L47 36L47 35ZM15 37L15 38L16 38L16 37ZM27 37L27 38L26 38L26 39L27 39L27 40L28 40L28 39L27 39L27 38L28 38L28 37ZM54 38L54 39L55 39L55 38ZM15 39L15 40L16 40L16 39ZM21 39L21 40L19 40L19 41L20 41L20 42L21 42L21 43L22 43L22 42L24 42L24 41L23 41L23 40L24 40L24 39L23 39L23 40L22 40L22 39ZM38 39L38 40L40 40L40 39ZM2 40L2 41L3 41L3 40ZM7 41L7 42L8 42L8 43L9 43L9 41ZM21 41L21 42L22 42L22 41ZM26 41L26 42L27 42L27 41ZM31 41L31 42L32 42L32 43L33 43L33 42L32 42L32 41ZM41 42L41 43L39 43L39 45L38 45L38 46L41 46L41 48L39 48L39 47L38 47L38 48L37 48L37 49L38 49L38 50L41 50L41 48L42 48L42 49L43 49L43 48L42 48L42 47L43 47L43 46L41 46L41 44L42 44L42 42ZM51 42L51 43L50 43L50 44L49 44L49 45L50 45L50 44L51 44L51 43L53 43L53 42ZM43 43L43 44L44 44L44 46L47 46L47 45L45 45L45 44L46 44L46 43ZM6 44L6 45L7 45L7 44ZM10 45L10 46L9 46L9 47L10 47L10 48L12 48L12 47L11 47L11 45ZM22 45L22 46L23 46L23 45ZM31 45L31 46L32 46L32 45ZM33 46L33 47L32 47L32 48L34 48L34 47L35 47L35 46ZM24 47L24 48L25 48L25 47ZM46 47L46 48L47 48L47 47ZM38 48L38 49L39 49L39 48ZM27 49L27 52L30 52L30 49ZM49 49L49 52L52 52L52 49ZM28 50L28 51L29 51L29 50ZM50 50L50 51L51 51L51 50ZM54 50L54 51L55 51L55 50ZM31 51L31 53L30 53L30 54L27 54L27 53L26 53L26 55L27 55L27 56L29 56L29 55L30 55L30 56L31 56L31 54L32 54L32 53L33 53L33 55L35 55L35 56L36 56L36 54L35 54L35 53L34 53L34 52L35 52L35 51L33 51L33 52L32 52L32 51ZM53 52L53 53L54 53L54 52ZM23 53L23 54L24 54L24 53ZM44 53L44 54L45 54L45 53ZM19 54L19 55L20 55L20 54ZM13 55L13 56L16 56L16 55ZM48 55L48 56L49 56L49 55ZM50 55L50 56L51 56L51 55ZM0 0L0 7L7 7L7 0ZM1 1L1 6L6 6L6 1ZM2 2L2 5L5 5L5 2ZM50 0L50 7L57 7L57 0ZM51 1L51 6L56 6L56 1ZM52 2L52 5L55 5L55 2ZM0 50L0 57L7 57L7 50ZM1 51L1 56L6 56L6 51ZM2 52L2 55L5 55L5 52Z" fill="#000000"/></g></g></svg>
