<?xml version="1.0" encoding="UTF-8"?>
<svg xmlns="http://www.w3.org/2000/svg" version="1.1" width="300" height="300" viewBox="0 0 300 300"><rect x="0" y="0" width="300" height="300" fill="#fefefe"/><g transform="scale(4.615)"><g transform="translate(4,4)"><path fill-rule="evenodd" d="M9 0L9 1L8 1L8 2L9 2L9 1L10 1L10 2L11 2L11 3L13 3L13 4L14 4L14 2L15 2L15 3L17 3L17 1L18 1L18 2L19 2L19 3L18 3L18 4L17 4L17 6L16 6L16 7L15 7L15 5L16 5L16 4L15 4L15 5L14 5L14 7L15 7L15 8L16 8L16 9L19 9L19 10L18 10L18 11L16 11L16 13L15 13L15 10L13 10L13 11L14 11L14 12L13 12L13 13L12 13L12 12L10 12L10 14L9 14L9 13L8 13L8 12L9 12L9 11L12 11L12 9L14 9L14 8L12 8L12 9L11 9L11 10L10 10L10 9L9 9L9 8L10 8L10 7L11 7L11 6L12 6L12 7L13 7L13 6L12 6L12 5L11 5L11 6L10 6L10 7L9 7L9 5L10 5L10 4L9 4L9 3L8 3L8 4L9 4L9 5L8 5L8 7L9 7L9 8L6 8L6 9L5 9L5 8L0 8L0 15L2 15L2 14L1 14L1 13L3 13L3 12L2 12L2 11L4 11L4 14L3 14L3 16L2 16L2 17L3 17L3 18L1 18L1 16L0 16L0 19L3 19L3 20L0 20L0 25L1 25L1 24L4 24L4 26L3 26L3 27L0 27L0 28L2 28L2 29L1 29L1 30L0 30L0 31L1 31L1 30L2 30L2 29L3 29L3 31L2 31L2 32L1 32L1 34L0 34L0 44L1 44L1 45L0 45L0 48L5 48L5 47L7 47L7 48L6 48L6 49L7 49L7 48L8 48L8 51L9 51L9 50L11 50L11 51L12 51L12 49L13 49L13 47L14 47L14 49L15 49L15 47L16 47L16 46L15 46L15 45L14 45L14 44L13 44L13 43L12 43L12 44L13 44L13 45L14 45L14 46L12 46L12 48L11 48L11 49L9 49L9 48L8 48L8 46L9 46L9 47L11 47L11 46L10 46L10 45L11 45L11 44L10 44L10 43L11 43L11 42L13 42L13 41L11 41L11 39L12 39L12 37L11 37L11 36L10 36L10 35L11 35L11 34L9 34L9 33L8 33L8 31L9 31L9 32L10 32L10 30L12 30L12 29L9 29L9 27L10 27L10 28L13 28L13 27L14 27L14 26L15 26L15 25L16 25L16 24L17 24L17 25L22 25L22 26L21 26L21 27L22 27L22 26L26 26L26 27L25 27L25 28L26 28L26 29L23 29L23 31L20 31L20 33L19 33L19 30L20 30L20 29L22 29L22 28L19 28L19 29L18 29L18 28L16 28L16 29L15 29L15 33L16 33L16 32L17 32L17 34L16 34L16 35L17 35L17 34L18 34L18 36L17 36L17 37L18 37L18 38L17 38L17 39L18 39L18 40L17 40L17 41L19 41L19 42L18 42L18 43L17 43L17 42L15 42L15 41L14 41L14 43L15 43L15 44L16 44L16 45L17 45L17 47L19 47L19 48L17 48L17 49L18 49L18 50L19 50L19 52L17 52L17 50L14 50L14 51L16 51L16 52L13 52L13 53L12 53L12 52L10 52L10 53L11 53L11 54L13 54L13 53L16 53L16 54L15 54L15 55L13 55L13 57L15 57L15 55L16 55L16 56L17 56L17 57L20 57L20 56L19 56L19 55L20 55L20 54L19 54L19 55L18 55L18 54L17 54L17 53L20 53L20 52L22 52L22 51L20 51L20 49L21 49L21 50L25 50L25 51L26 51L26 52L24 52L24 53L23 53L23 54L22 54L22 53L21 53L21 56L24 56L24 55L23 55L23 54L24 54L24 53L27 53L27 54L30 54L30 53L31 53L31 50L32 50L32 48L31 48L31 46L32 46L32 47L35 47L35 46L32 46L32 45L31 45L31 44L33 44L33 43L34 43L34 45L36 45L36 46L37 46L37 47L36 47L36 48L35 48L35 49L36 49L36 50L34 50L34 49L33 49L33 50L34 50L34 51L35 51L35 52L34 52L34 53L35 53L35 54L36 54L36 56L35 56L35 55L34 55L34 54L33 54L33 53L32 53L32 54L31 54L31 56L30 56L30 55L29 55L29 56L27 56L27 57L29 57L29 56L30 56L30 57L31 57L31 56L35 56L35 57L39 57L39 56L37 56L37 54L38 54L38 55L40 55L40 56L41 56L41 57L44 57L44 54L45 54L45 53L44 53L44 52L45 52L45 51L46 51L46 53L47 53L47 56L48 56L48 55L49 55L49 56L50 56L50 57L52 57L52 55L51 55L51 53L52 53L52 54L53 54L53 55L54 55L54 56L53 56L53 57L54 57L54 56L55 56L55 57L56 57L56 56L55 56L55 51L56 51L56 52L57 52L57 51L56 51L56 49L57 49L57 48L56 48L56 46L57 46L57 45L56 45L56 46L55 46L55 45L54 45L54 44L55 44L55 43L56 43L56 44L57 44L57 43L56 43L56 42L55 42L55 39L57 39L57 37L56 37L56 36L55 36L55 35L56 35L56 34L57 34L57 32L56 32L56 30L57 30L57 28L56 28L56 27L55 27L55 26L57 26L57 25L56 25L56 22L57 22L57 21L56 21L56 20L55 20L55 19L56 19L56 18L57 18L57 17L56 17L56 16L57 16L57 15L56 15L56 14L57 14L57 13L56 13L56 14L54 14L54 12L56 12L56 8L55 8L55 10L54 10L54 11L50 11L50 12L49 12L49 13L47 13L47 14L45 14L45 13L44 13L44 12L43 12L43 13L41 13L41 14L38 14L38 13L40 13L40 12L41 12L41 10L43 10L43 11L45 11L45 12L47 12L47 11L48 11L48 10L50 10L50 8L48 8L48 7L49 7L49 6L48 6L48 7L47 7L47 5L48 5L48 0L45 0L45 1L47 1L47 2L44 2L44 3L42 3L42 2L43 2L43 0L41 0L41 1L40 1L40 0L39 0L39 1L38 1L38 0L37 0L37 1L38 1L38 2L39 2L39 3L36 3L36 0L35 0L35 1L33 1L33 0L32 0L32 1L31 1L31 0L29 0L29 2L28 2L28 1L26 1L26 0L23 0L23 2L21 2L21 1L22 1L22 0L21 0L21 1L20 1L20 2L19 2L19 1L18 1L18 0L17 0L17 1L15 1L15 0L14 0L14 2L13 2L13 0L12 0L12 2L11 2L11 1L10 1L10 0ZM23 2L23 3L19 3L19 4L18 4L18 6L17 6L17 7L16 7L16 8L19 8L19 9L20 9L20 10L19 10L19 11L20 11L20 12L19 12L19 13L20 13L20 15L19 15L19 17L15 17L15 16L14 16L14 15L11 15L11 14L12 14L12 13L11 13L11 14L10 14L10 15L8 15L8 16L10 16L10 17L9 17L9 18L8 18L8 17L6 17L6 16L7 16L7 15L5 15L5 16L4 16L4 17L6 17L6 18L5 18L5 19L6 19L6 20L7 20L7 21L6 21L6 22L5 22L5 23L6 23L6 24L8 24L8 25L6 25L6 26L10 26L10 27L12 27L12 26L14 26L14 25L15 25L15 24L16 24L16 23L14 23L14 22L16 22L16 21L17 21L17 20L18 20L18 18L19 18L19 17L20 17L20 18L21 18L21 20L20 20L20 21L18 21L18 22L17 22L17 24L22 24L22 25L24 25L24 24L25 24L25 25L26 25L26 26L30 26L30 25L31 25L31 24L32 24L32 26L31 26L31 28L32 28L32 30L31 30L31 31L30 31L30 32L29 32L29 31L27 31L27 33L26 33L26 31L25 31L25 32L24 32L24 31L23 31L23 32L21 32L21 33L20 33L20 34L19 34L19 33L18 33L18 34L19 34L19 35L21 35L21 33L22 33L22 35L23 35L23 36L19 36L19 37L23 37L23 38L22 38L22 40L20 40L20 42L21 42L21 43L20 43L20 44L19 44L19 45L20 45L20 48L19 48L19 49L20 49L20 48L21 48L21 49L23 49L23 47L21 47L21 45L22 45L22 46L24 46L24 45L25 45L25 47L24 47L24 49L25 49L25 50L26 50L26 48L27 48L27 47L28 47L28 48L29 48L29 47L28 47L28 46L29 46L29 44L25 44L25 43L29 43L29 42L32 42L32 43L33 43L33 42L34 42L34 43L37 43L37 42L35 42L35 40L38 40L38 42L39 42L39 41L43 41L43 39L45 39L45 40L44 40L44 43L43 43L43 44L44 44L44 45L43 45L43 46L41 46L41 48L39 48L39 47L38 47L38 48L37 48L37 49L38 49L38 50L36 50L36 52L37 52L37 53L38 53L38 54L40 54L40 53L41 53L41 52L40 52L40 51L38 51L38 50L41 50L41 51L42 51L42 50L41 50L41 48L42 48L42 49L43 49L43 51L44 51L44 50L46 50L46 51L47 51L47 53L48 53L48 50L47 50L47 49L48 49L48 48L49 48L49 47L48 47L48 45L49 45L49 46L50 46L50 48L51 48L51 46L52 46L52 47L55 47L55 46L54 46L54 45L51 45L51 44L53 44L53 43L54 43L54 42L53 42L53 41L54 41L54 40L53 40L53 39L54 39L54 38L53 38L53 35L55 35L55 34L56 34L56 32L54 32L54 31L53 31L53 32L54 32L54 33L52 33L52 31L51 31L51 33L52 33L52 34L50 34L50 32L49 32L49 31L48 31L48 27L47 27L47 25L49 25L49 23L50 23L50 24L51 24L51 25L50 25L50 26L51 26L51 25L52 25L52 26L53 26L53 27L54 27L54 26L53 26L53 23L50 23L50 22L51 22L51 21L53 21L53 22L56 22L56 21L55 21L55 20L53 20L53 19L52 19L52 18L51 18L51 17L53 17L53 18L56 18L56 17L53 17L53 15L52 15L52 16L51 16L51 15L50 15L50 14L51 14L51 12L50 12L50 14L49 14L49 15L48 15L48 16L49 16L49 15L50 15L50 16L51 16L51 17L50 17L50 19L52 19L52 20L51 20L51 21L49 21L49 18L47 18L47 17L45 17L45 16L47 16L47 15L44 15L44 13L43 13L43 14L41 14L41 16L39 16L39 15L38 15L38 14L37 14L37 13L36 13L36 14L37 14L37 15L35 15L35 16L32 16L32 15L31 15L31 14L32 14L32 13L33 13L33 14L35 14L35 11L36 11L36 10L37 10L37 11L38 11L38 10L40 10L40 9L42 9L42 8L41 8L41 7L42 7L42 6L43 6L43 8L44 8L44 9L45 9L45 10L47 10L47 9L48 9L48 8L47 8L47 9L45 9L45 7L46 7L46 6L45 6L45 4L46 4L46 5L47 5L47 3L44 3L44 6L43 6L43 5L42 5L42 6L41 6L41 5L40 5L40 4L41 4L41 3L39 3L39 4L38 4L38 5L37 5L37 4L36 4L36 5L35 5L35 3L32 3L32 2L29 2L29 3L28 3L28 2ZM23 3L23 4L19 4L19 5L20 5L20 7L19 7L19 6L18 6L18 7L19 7L19 8L22 8L22 7L23 7L23 6L24 6L24 8L23 8L23 10L22 10L22 11L21 11L21 12L20 12L20 13L21 13L21 15L24 15L24 16L26 16L26 17L22 17L22 16L21 16L21 17L22 17L22 20L24 20L24 21L22 21L22 22L21 22L21 23L23 23L23 24L24 24L24 23L23 23L23 22L24 22L24 21L25 21L25 22L26 22L26 23L25 23L25 24L29 24L29 25L30 25L30 24L31 24L31 23L30 23L30 22L31 22L31 21L32 21L32 20L35 20L35 23L34 23L34 22L33 22L33 23L32 23L32 24L33 24L33 25L37 25L37 26L38 26L38 24L41 24L41 25L39 25L39 26L40 26L40 27L41 27L41 28L42 28L42 26L43 26L43 25L44 25L44 28L43 28L43 29L41 29L41 30L43 30L43 29L44 29L44 31L43 31L43 32L41 32L41 33L39 33L39 34L40 34L40 35L38 35L38 33L37 33L37 32L35 32L35 34L37 34L37 36L35 36L35 35L34 35L34 34L33 34L33 33L34 33L34 32L33 32L33 33L32 33L32 31L31 31L31 33L29 33L29 32L28 32L28 33L29 33L29 34L30 34L30 36L29 36L29 37L31 37L31 38L29 38L29 39L33 39L33 40L35 40L35 39L38 39L38 40L40 40L40 39L38 39L38 36L39 36L39 37L40 37L40 38L41 38L41 39L42 39L42 38L43 38L43 37L44 37L44 38L45 38L45 39L46 39L46 40L45 40L45 41L47 41L47 39L50 39L50 40L49 40L49 41L48 41L48 42L47 42L47 43L46 43L46 42L45 42L45 43L46 43L46 44L45 44L45 45L47 45L47 44L48 44L48 43L50 43L50 44L51 44L51 43L53 43L53 42L51 42L51 41L53 41L53 40L52 40L52 38L51 38L51 37L52 37L52 35L53 35L53 34L52 34L52 35L50 35L50 34L48 34L48 35L47 35L47 36L46 36L46 35L44 35L44 36L43 36L43 35L42 35L42 34L45 34L45 33L43 33L43 32L46 32L46 31L47 31L47 32L48 32L48 33L49 33L49 32L48 32L48 31L47 31L47 30L46 30L46 29L47 29L47 27L46 27L46 26L45 26L45 25L46 25L46 24L48 24L48 23L47 23L47 22L49 22L49 21L47 21L47 22L46 22L46 21L45 21L45 22L46 22L46 23L45 23L45 25L44 25L44 24L43 24L43 23L44 23L44 20L45 20L45 18L44 18L44 15L42 15L42 16L41 16L41 17L39 17L39 16L38 16L38 17L37 17L37 16L35 16L35 17L37 17L37 18L38 18L38 17L39 17L39 19L37 19L37 20L36 20L36 19L33 19L33 17L32 17L32 16L31 16L31 15L30 15L30 14L31 14L31 13L32 13L32 12L33 12L33 13L34 13L34 12L33 12L33 10L32 10L32 8L31 8L31 4L32 4L32 5L33 5L33 4L32 4L32 3L31 3L31 4L26 4L26 3ZM23 4L23 5L21 5L21 7L22 7L22 6L23 6L23 5L24 5L24 4ZM25 4L25 8L26 8L26 4ZM27 5L27 8L30 8L30 5ZM34 5L34 7L33 7L33 6L32 6L32 7L33 7L33 9L34 9L34 8L35 8L35 9L37 9L37 10L38 10L38 8L40 8L40 7L41 7L41 6L40 6L40 5L39 5L39 6L38 6L38 7L37 7L37 5L36 5L36 7L37 7L37 8L35 8L35 5ZM28 6L28 7L29 7L29 6ZM39 6L39 7L40 7L40 6ZM44 6L44 7L45 7L45 6ZM51 8L51 10L53 10L53 9L54 9L54 8L53 8L53 9L52 9L52 8ZM6 9L6 10L4 10L4 11L5 11L5 12L7 12L7 11L8 11L8 10L9 10L9 9ZM28 9L28 10L27 10L27 11L26 11L26 12L25 12L25 10L23 10L23 11L24 11L24 12L25 12L25 15L26 15L26 16L27 16L27 17L26 17L26 18L27 18L27 19L26 19L26 20L25 20L25 21L29 21L29 20L30 20L30 19L32 19L32 17L31 17L31 18L30 18L30 19L28 19L28 18L27 18L27 17L28 17L28 16L29 16L29 14L30 14L30 13L31 13L31 11L32 11L32 10L29 10L29 9ZM1 10L1 11L2 11L2 10ZM6 10L6 11L7 11L7 10ZM28 10L28 11L27 11L27 12L26 12L26 14L27 14L27 13L28 13L28 14L29 14L29 13L28 13L28 12L29 12L29 10ZM39 11L39 12L40 12L40 11ZM17 12L17 13L16 13L16 16L17 16L17 15L18 15L18 14L17 14L17 13L18 13L18 12ZM21 12L21 13L22 13L22 14L23 14L23 13L22 13L22 12ZM52 12L52 13L53 13L53 12ZM5 13L5 14L8 14L8 13ZM13 13L13 14L15 14L15 13ZM10 15L10 16L11 16L11 17L12 17L12 16L11 16L11 15ZM27 15L27 16L28 16L28 15ZM42 16L42 17L43 17L43 16ZM13 17L13 18L10 18L10 19L9 19L9 20L10 20L10 19L13 19L13 20L11 20L11 22L12 22L12 21L13 21L13 22L14 22L14 21L13 21L13 20L14 20L14 19L13 19L13 18L15 18L15 21L16 21L16 20L17 20L17 18L15 18L15 17ZM3 18L3 19L4 19L4 18ZM6 18L6 19L7 19L7 20L8 20L8 18ZM23 18L23 19L24 19L24 18ZM41 18L41 20L39 20L39 21L38 21L38 20L37 20L37 21L38 21L38 22L37 22L37 24L38 24L38 22L39 22L39 23L40 23L40 22L39 22L39 21L43 21L43 20L44 20L44 18L43 18L43 19L42 19L42 18ZM4 20L4 21L1 21L1 23L2 23L2 22L4 22L4 21L5 21L5 20ZM8 21L8 22L9 22L9 21ZM6 22L6 23L7 23L7 22ZM19 22L19 23L20 23L20 22ZM41 22L41 23L42 23L42 22ZM9 23L9 25L10 25L10 26L11 26L11 25L12 25L12 24L11 24L11 23ZM13 23L13 25L14 25L14 23ZM42 24L42 25L43 25L43 24ZM16 26L16 27L18 27L18 26ZM19 26L19 27L20 27L20 26ZM32 26L32 27L33 27L33 28L35 28L35 29L38 29L38 28L39 28L39 27L36 27L36 26L34 26L34 27L33 27L33 26ZM3 27L3 29L4 29L4 27ZM5 27L5 30L8 30L8 27ZM27 27L27 30L30 30L30 27ZM35 27L35 28L36 28L36 27ZM45 27L45 28L44 28L44 29L45 29L45 28L46 28L46 27ZM49 27L49 30L52 30L52 27ZM6 28L6 29L7 29L7 28ZM28 28L28 29L29 29L29 28ZM50 28L50 29L51 29L51 28ZM54 28L54 29L55 29L55 28ZM13 29L13 31L11 31L11 32L13 32L13 31L14 31L14 29ZM16 29L16 30L18 30L18 29ZM39 29L39 30L38 30L38 32L39 32L39 30L40 30L40 29ZM33 30L33 31L35 31L35 30ZM3 31L3 32L2 32L2 36L1 36L1 41L2 41L2 42L1 42L1 43L2 43L2 42L3 42L3 44L2 44L2 45L1 45L1 47L2 47L2 45L3 45L3 44L5 44L5 45L4 45L4 46L3 46L3 47L5 47L5 46L7 46L7 45L8 45L8 44L9 44L9 45L10 45L10 44L9 44L9 43L10 43L10 42L9 42L9 41L10 41L10 40L9 40L9 39L8 39L8 38L7 38L7 37L8 37L8 33L6 33L6 32L7 32L7 31L5 31L5 32L4 32L4 31ZM17 31L17 32L18 32L18 31ZM3 32L3 35L5 35L5 34L6 34L6 35L7 35L7 34L6 34L6 33L4 33L4 32ZM13 33L13 34L12 34L12 36L14 36L14 35L15 35L15 34L14 34L14 33ZM23 33L23 34L24 34L24 36L23 36L23 37L24 37L24 38L23 38L23 39L24 39L24 40L25 40L25 36L26 36L26 40L28 40L28 41L29 41L29 40L28 40L28 39L27 39L27 38L28 38L28 37L27 37L27 35L26 35L26 34L25 34L25 33ZM54 33L54 34L55 34L55 33ZM13 34L13 35L14 35L14 34ZM31 34L31 35L32 35L32 34ZM33 35L33 36L32 36L32 37L33 37L33 39L35 39L35 36L34 36L34 35ZM48 35L48 36L47 36L47 37L45 37L45 36L44 36L44 37L45 37L45 38L46 38L46 39L47 39L47 38L48 38L48 37L49 37L49 38L50 38L50 39L51 39L51 38L50 38L50 37L51 37L51 36L50 36L50 35ZM3 36L3 38L4 38L4 42L5 42L5 41L7 41L7 42L6 42L6 43L7 43L7 44L6 44L6 45L7 45L7 44L8 44L8 40L6 40L6 39L7 39L7 38L6 38L6 37L7 37L7 36L5 36L5 38L4 38L4 36ZM40 36L40 37L41 37L41 38L42 38L42 37L41 37L41 36ZM14 37L14 39L15 39L15 40L16 40L16 39L15 39L15 38L16 38L16 37ZM5 38L5 39L6 39L6 38ZM10 38L10 39L11 39L11 38ZM19 38L19 39L20 39L20 38ZM30 40L30 41L32 41L32 42L33 42L33 41L32 41L32 40ZM23 41L23 42L22 42L22 43L21 43L21 44L20 44L20 45L21 45L21 44L22 44L22 45L24 45L24 43L25 43L25 41ZM26 41L26 42L27 42L27 41ZM23 42L23 43L24 43L24 42ZM41 42L41 43L40 43L40 44L39 44L39 45L38 45L38 46L39 46L39 45L41 45L41 44L42 44L42 42ZM50 42L50 43L51 43L51 42ZM17 44L17 45L18 45L18 44ZM26 45L26 47L27 47L27 45ZM14 46L14 47L15 47L15 46ZM43 46L43 47L42 47L42 48L43 48L43 49L44 49L44 48L46 48L46 49L47 49L47 48L48 48L48 47L47 47L47 46L45 46L45 47L44 47L44 46ZM43 47L43 48L44 48L44 47ZM46 47L46 48L47 48L47 47ZM38 48L38 49L39 49L39 48ZM54 48L54 49L56 49L56 48ZM27 49L27 52L30 52L30 49ZM49 49L49 52L52 52L52 49ZM28 50L28 51L29 51L29 50ZM50 50L50 51L51 51L51 50ZM54 50L54 51L55 51L55 50ZM32 51L32 52L33 52L33 51ZM8 52L8 57L12 57L12 55L11 55L11 56L10 56L10 55L9 55L9 52ZM16 52L16 53L17 53L17 52ZM38 52L38 53L39 53L39 52ZM53 52L53 54L54 54L54 52ZM43 53L43 54L44 54L44 53ZM25 54L25 55L26 55L26 54ZM17 55L17 56L18 56L18 55ZM42 55L42 56L43 56L43 55ZM50 55L50 56L51 56L51 55ZM25 56L25 57L26 57L26 56ZM45 56L45 57L46 57L46 56ZM0 0L0 7L7 7L7 0ZM1 1L1 6L6 6L6 1ZM2 2L2 5L5 5L5 2ZM50 0L50 7L57 7L57 0ZM51 1L51 6L56 6L56 1ZM52 2L52 5L55 5L55 2ZM0 50L0 57L7 57L7 50ZM1 51L1 56L6 56L6 51ZM2 52L2 55L5 55L5 52Z" fill="#000000"/></g></g></svg>
