<?xml version="1.0" encoding="UTF-8"?>
<svg xmlns="http://www.w3.org/2000/svg" version="1.1" width="300" height="300" viewBox="0 0 300 300"><rect x="0" y="0" width="300" height="300" fill="#fefefe"/><g transform="scale(4.615)"><g transform="translate(4,4)"><path fill-rule="evenodd" d="M9 0L9 1L8 1L8 2L9 2L9 1L10 1L10 0ZM12 0L12 1L14 1L14 2L12 2L12 3L8 3L8 4L10 4L10 5L11 5L11 6L10 6L10 7L9 7L9 5L8 5L8 7L9 7L9 8L6 8L6 9L8 9L8 11L7 11L7 10L5 10L5 8L0 8L0 9L2 9L2 10L1 10L1 11L2 11L2 10L3 10L3 13L1 13L1 12L0 12L0 14L3 14L3 15L5 15L5 16L4 16L4 17L3 17L3 18L4 18L4 17L5 17L5 16L6 16L6 17L8 17L8 18L6 18L6 19L8 19L8 18L11 18L11 19L12 19L12 18L13 18L13 17L14 17L14 16L16 16L16 17L18 17L18 18L16 18L16 19L18 19L18 18L19 18L19 19L21 19L21 20L24 20L24 21L23 21L23 22L24 22L24 21L25 21L25 22L26 22L26 23L25 23L25 24L24 24L24 23L23 23L23 25L22 25L22 24L19 24L19 23L20 23L20 22L19 22L19 21L20 21L20 20L17 20L17 21L16 21L16 20L15 20L15 21L16 21L16 22L15 22L15 23L14 23L14 24L12 24L12 23L10 23L10 20L9 20L9 21L8 21L8 20L5 20L5 19L3 19L3 22L1 22L1 24L0 24L0 28L1 28L1 30L3 30L3 32L4 32L4 34L3 34L3 33L2 33L2 34L1 34L1 32L0 32L0 37L1 37L1 36L2 36L2 39L1 39L1 40L2 40L2 41L5 41L5 43L4 43L4 42L2 42L2 44L1 44L1 42L0 42L0 45L3 45L3 43L4 43L4 44L6 44L6 45L8 45L8 46L5 46L5 47L3 47L3 46L2 46L2 47L1 47L1 46L0 46L0 48L5 48L5 47L8 47L8 46L9 46L9 45L8 45L8 44L16 44L16 45L17 45L17 46L19 46L19 47L17 47L17 48L15 48L15 49L13 49L13 48L12 48L12 45L11 45L11 46L10 46L10 48L9 48L9 49L8 49L8 48L6 48L6 49L8 49L8 51L13 51L13 50L14 50L14 51L15 51L15 53L16 53L16 54L14 54L14 52L13 52L13 54L11 54L11 53L12 53L12 52L11 52L11 53L10 53L10 52L8 52L8 57L9 57L9 56L11 56L11 57L14 57L14 56L15 56L15 55L16 55L16 56L17 56L17 57L19 57L19 55L20 55L20 54L19 54L19 55L17 55L17 53L20 53L20 52L21 52L21 53L22 53L22 54L21 54L21 56L24 56L24 57L26 57L26 56L24 56L24 55L23 55L23 54L24 54L24 53L26 53L26 54L25 54L25 55L26 55L26 54L30 54L30 53L31 53L31 51L32 51L32 52L33 52L33 51L34 51L34 52L35 52L35 54L36 54L36 56L35 56L35 55L34 55L34 54L33 54L33 53L32 53L32 54L31 54L31 56L30 56L30 55L29 55L29 56L27 56L27 57L29 57L29 56L30 56L30 57L31 57L31 56L35 56L35 57L39 57L39 56L37 56L37 54L38 54L38 55L41 55L41 54L42 54L42 55L43 55L43 56L41 56L41 57L44 57L44 54L45 54L45 55L48 55L48 57L49 57L49 56L50 56L50 57L52 57L52 55L51 55L51 53L52 53L52 54L53 54L53 55L54 55L54 56L53 56L53 57L54 57L54 56L55 56L55 57L56 57L56 56L55 56L55 55L54 55L54 54L53 54L53 52L54 52L54 53L55 53L55 51L54 51L54 50L57 50L57 48L56 48L56 46L57 46L57 45L56 45L56 44L57 44L57 43L56 43L56 42L55 42L55 41L53 41L53 40L55 40L55 39L57 39L57 37L55 37L55 35L56 35L56 33L57 33L57 32L56 32L56 30L57 30L57 27L56 27L56 26L57 26L57 25L56 25L56 22L57 22L57 19L56 19L56 16L57 16L57 15L56 15L56 14L57 14L57 12L56 12L56 10L54 10L54 11L52 11L52 10L53 10L53 9L54 9L54 8L53 8L53 9L52 9L52 8L51 8L51 9L52 9L52 10L49 10L49 9L50 9L50 8L49 8L49 6L48 6L48 7L47 7L47 5L48 5L48 0L45 0L45 2L44 2L44 3L43 3L43 4L40 4L40 5L39 5L39 6L38 6L38 4L39 4L39 3L41 3L41 2L43 2L43 0L41 0L41 1L40 1L40 0L39 0L39 1L38 1L38 0L37 0L37 1L38 1L38 2L39 2L39 3L38 3L38 4L37 4L37 3L36 3L36 0L35 0L35 1L32 1L32 3L31 3L31 0L29 0L29 1L26 1L26 0L23 0L23 2L28 2L28 3L30 3L30 4L26 4L26 3L23 3L23 4L24 4L24 5L22 5L22 4L19 4L19 2L21 2L21 1L22 1L22 0L21 0L21 1L20 1L20 0L19 0L19 1L14 1L14 0ZM29 1L29 2L30 2L30 1ZM46 1L46 2L47 2L47 1ZM14 2L14 4L13 4L13 3L12 3L12 6L11 6L11 7L10 7L10 8L11 8L11 9L13 9L13 10L12 10L12 11L13 11L13 12L12 12L12 14L11 14L11 15L12 15L12 16L11 16L11 17L13 17L13 15L12 15L12 14L15 14L15 13L16 13L16 16L19 16L19 17L20 17L20 18L21 18L21 19L22 19L22 17L25 17L25 18L26 18L26 21L31 21L31 24L28 24L28 23L29 23L29 22L28 22L28 23L27 23L27 24L25 24L25 25L26 25L26 26L22 26L22 25L19 25L19 26L18 26L18 25L17 25L17 24L18 24L18 23L17 23L17 24L16 24L16 23L15 23L15 24L16 24L16 25L11 25L11 24L10 24L10 25L11 25L11 26L18 26L18 27L16 27L16 28L15 28L15 27L10 27L10 28L9 28L9 29L10 29L10 28L13 28L13 29L16 29L16 30L18 30L18 31L17 31L17 32L21 32L21 33L19 33L19 34L17 34L17 33L15 33L15 34L14 34L14 32L13 32L13 31L14 31L14 30L13 30L13 31L12 31L12 33L11 33L11 32L10 32L10 33L9 33L9 35L8 35L8 36L7 36L7 35L6 35L6 34L8 34L8 33L6 33L6 32L7 32L7 31L4 31L4 32L5 32L5 33L6 33L6 34L4 34L4 35L5 35L5 37L4 37L4 36L3 36L3 38L7 38L7 39L6 39L6 40L5 40L5 41L6 41L6 42L10 42L10 43L11 43L11 41L12 41L12 42L14 42L14 41L16 41L16 42L15 42L15 43L18 43L18 42L19 42L19 41L18 41L18 42L17 42L17 41L16 41L16 40L17 40L17 38L19 38L19 39L20 39L20 38L19 38L19 37L21 37L21 40L20 40L20 42L21 42L21 43L20 43L20 46L21 46L21 45L22 45L22 46L23 46L23 47L19 47L19 49L20 49L20 51L23 51L23 52L22 52L22 53L24 53L24 52L26 52L26 51L25 51L25 50L26 50L26 48L28 48L28 47L26 47L26 45L27 45L27 46L31 46L31 47L32 47L32 46L36 46L36 47L34 47L34 48L36 48L36 47L37 47L37 46L36 46L36 45L34 45L34 43L35 43L35 44L36 44L36 43L37 43L37 42L35 42L35 40L38 40L38 42L39 42L39 43L40 43L40 44L39 44L39 45L38 45L38 46L39 46L39 47L38 47L38 48L37 48L37 49L38 49L38 50L36 50L36 49L33 49L33 48L32 48L32 49L31 49L31 50L32 50L32 51L33 51L33 50L34 50L34 51L35 51L35 50L36 50L36 52L37 52L37 53L38 53L38 54L40 54L40 53L41 53L41 52L42 52L42 53L43 53L43 54L44 54L44 53L45 53L45 54L48 54L48 50L47 50L47 49L48 49L48 48L51 48L51 46L53 46L53 47L54 47L54 46L53 46L53 45L50 45L50 43L51 43L51 44L53 44L53 43L54 43L54 42L53 42L53 41L51 41L51 42L50 42L50 43L47 43L47 42L48 42L48 41L49 41L49 39L51 39L51 40L53 40L53 39L55 39L55 37L53 37L53 35L55 35L55 34L54 34L54 32L53 32L53 33L52 33L52 31L51 31L51 33L52 33L52 34L50 34L50 32L49 32L49 31L48 31L48 30L47 30L47 29L46 29L46 30L47 30L47 31L46 31L46 33L45 33L45 32L43 32L43 31L44 31L44 30L45 30L45 28L46 28L46 27L47 27L47 25L45 25L45 23L46 23L46 22L47 22L47 19L48 19L48 18L47 18L47 17L50 17L50 19L52 19L52 20L51 20L51 21L49 21L49 23L48 23L48 24L49 24L49 26L53 26L53 27L54 27L54 26L53 26L53 24L51 24L51 23L50 23L50 22L51 22L51 21L54 21L54 22L53 22L53 23L55 23L55 22L56 22L56 19L55 19L55 20L53 20L53 19L52 19L52 18L51 18L51 17L53 17L53 18L55 18L55 16L51 16L51 17L50 17L50 14L51 14L51 12L50 12L50 11L49 11L49 10L47 10L47 9L46 9L46 8L45 8L45 7L46 7L46 6L45 6L45 4L46 4L46 5L47 5L47 3L44 3L44 6L43 6L43 7L44 7L44 10L43 10L43 11L41 11L41 9L42 9L42 8L41 8L41 7L42 7L42 5L40 5L40 6L39 6L39 7L40 7L40 8L39 8L39 9L38 9L38 8L37 8L37 7L38 7L38 6L37 6L37 7L36 7L36 5L37 5L37 4L36 4L36 5L35 5L35 2L34 2L34 3L32 3L32 4L31 4L31 8L32 8L32 10L31 10L31 11L30 11L30 10L29 10L29 9L27 9L27 11L26 11L26 12L25 12L25 11L23 11L23 13L22 13L22 12L21 12L21 11L22 11L22 10L23 10L23 8L24 8L24 9L25 9L25 8L26 8L26 4L25 4L25 8L24 8L24 6L23 6L23 8L19 8L19 7L20 7L20 5L19 5L19 4L17 4L17 3L18 3L18 2ZM15 4L15 5L16 5L16 4ZM32 4L32 5L34 5L34 7L33 7L33 6L32 6L32 7L33 7L33 9L34 9L34 8L35 8L35 9L37 9L37 10L36 10L36 12L35 12L35 13L36 13L36 14L32 14L32 11L33 11L33 10L32 10L32 11L31 11L31 13L30 13L30 14L29 14L29 13L28 13L28 12L29 12L29 11L27 11L27 12L26 12L26 13L28 13L28 14L29 14L29 16L28 16L28 15L27 15L27 14L26 14L26 15L25 15L25 12L24 12L24 13L23 13L23 14L22 14L22 13L21 13L21 15L23 15L23 16L24 16L24 15L25 15L25 16L26 16L26 15L27 15L27 16L28 16L28 17L26 17L26 18L28 18L28 19L27 19L27 20L28 20L28 19L30 19L30 18L31 18L31 21L32 21L32 20L34 20L34 21L35 21L35 23L34 23L34 22L33 22L33 23L32 23L32 24L31 24L31 25L28 25L28 24L27 24L27 25L28 25L28 26L26 26L26 27L24 27L24 29L23 29L23 31L21 31L21 30L20 30L20 31L21 31L21 32L23 32L23 31L25 31L25 33L23 33L23 34L22 34L22 33L21 33L21 35L20 35L20 34L19 34L19 35L20 35L20 36L22 36L22 35L23 35L23 34L24 34L24 36L23 36L23 37L24 37L24 38L23 38L23 39L24 39L24 40L23 40L23 41L24 41L24 42L22 42L22 43L21 43L21 44L22 44L22 45L23 45L23 46L24 46L24 47L25 47L25 45L24 45L24 44L27 44L27 45L29 45L29 43L30 43L30 44L31 44L31 46L32 46L32 44L33 44L33 43L34 43L34 42L33 42L33 41L32 41L32 40L31 40L31 41L29 41L29 40L28 40L28 39L27 39L27 38L28 38L28 37L27 37L27 38L26 38L26 40L28 40L28 41L26 41L26 42L28 42L28 41L29 41L29 43L28 43L28 44L27 44L27 43L25 43L25 41L24 41L24 40L25 40L25 37L26 37L26 36L27 36L27 35L26 35L26 34L27 34L27 33L26 33L26 32L28 32L28 33L29 33L29 34L30 34L30 36L29 36L29 37L31 37L31 38L29 38L29 39L33 39L33 40L35 40L35 39L37 39L37 38L38 38L38 37L40 37L40 38L43 38L43 37L44 37L44 38L45 38L45 39L44 39L44 40L42 40L42 41L40 41L40 42L41 42L41 43L42 43L42 44L41 44L41 45L40 45L40 47L39 47L39 48L38 48L38 49L39 49L39 48L41 48L41 50L38 50L38 51L37 51L37 52L38 52L38 53L39 53L39 52L38 52L38 51L40 51L40 52L41 52L41 50L42 50L42 51L43 51L43 53L44 53L44 52L45 52L45 53L47 53L47 51L46 51L46 50L45 50L45 49L46 49L46 48L45 48L45 49L44 49L44 48L43 48L43 47L47 47L47 48L48 48L48 47L50 47L50 45L49 45L49 44L48 44L48 45L47 45L47 43L46 43L46 44L45 44L45 45L47 45L47 46L44 46L44 42L45 42L45 41L47 41L47 39L49 39L49 38L50 38L50 36L51 36L51 37L52 37L52 35L53 35L53 34L52 34L52 35L50 35L50 34L49 34L49 35L50 35L50 36L49 36L49 38L48 38L48 37L47 37L47 39L46 39L46 38L45 38L45 37L46 37L46 35L44 35L44 33L43 33L43 32L41 32L41 33L39 33L39 34L40 34L40 35L38 35L38 33L37 33L37 32L35 32L35 31L36 31L36 30L33 30L33 29L32 29L32 28L31 28L31 26L32 26L32 27L33 27L33 28L35 28L35 29L38 29L38 28L40 28L40 27L41 27L41 28L42 28L42 27L41 27L41 26L43 26L43 28L45 28L45 27L46 27L46 26L44 26L44 20L45 20L45 18L46 18L46 19L47 19L47 18L46 18L46 17L47 17L47 16L48 16L48 15L49 15L49 14L50 14L50 12L49 12L49 11L47 11L47 10L46 10L46 11L45 11L45 10L44 10L44 11L43 11L43 13L41 13L41 14L43 14L43 15L42 15L42 16L41 16L41 15L39 15L39 14L38 14L38 13L40 13L40 12L41 12L41 11L40 11L40 9L39 9L39 11L38 11L38 9L37 9L37 8L35 8L35 5L34 5L34 4ZM13 5L13 6L12 6L12 7L13 7L13 6L14 6L14 7L15 7L15 8L16 8L16 9L15 9L15 10L13 10L13 11L14 11L14 12L13 12L13 13L15 13L15 10L16 10L16 9L17 9L17 10L18 10L18 11L16 11L16 13L17 13L17 15L18 15L18 14L20 14L20 12L19 12L19 11L20 11L20 9L19 9L19 8L18 8L18 7L19 7L19 6L18 6L18 5L17 5L17 6L16 6L16 7L15 7L15 6L14 6L14 5ZM27 5L27 8L30 8L30 5ZM17 6L17 7L16 7L16 8L17 8L17 7L18 7L18 6ZM21 6L21 7L22 7L22 6ZM28 6L28 7L29 7L29 6ZM40 6L40 7L41 7L41 6ZM44 6L44 7L45 7L45 6ZM13 8L13 9L14 9L14 8ZM55 8L55 9L56 9L56 8ZM9 9L9 10L10 10L10 9ZM21 9L21 10L22 10L22 9ZM5 11L5 12L7 12L7 13L6 13L6 14L5 14L5 13L3 13L3 14L5 14L5 15L6 15L6 16L8 16L8 17L10 17L10 16L9 16L9 15L8 15L8 14L9 14L9 13L11 13L11 12L10 12L10 11L8 11L8 12L7 12L7 11ZM39 11L39 12L40 12L40 11ZM44 11L44 13L43 13L43 14L44 14L44 18L43 18L43 20L44 20L44 18L45 18L45 14L47 14L47 13L49 13L49 12L45 12L45 11ZM8 12L8 13L9 13L9 12ZM17 12L17 13L18 13L18 12ZM33 12L33 13L34 13L34 12ZM52 12L52 13L53 13L53 15L55 15L55 14L56 14L56 13L55 13L55 12L54 12L54 13L53 13L53 12ZM6 14L6 15L7 15L7 14ZM30 14L30 15L31 15L31 16L32 16L32 19L33 19L33 18L34 18L34 20L35 20L35 19L36 19L36 20L38 20L38 22L37 22L37 24L40 24L40 25L38 25L38 26L37 26L37 25L33 25L33 24L32 24L32 26L33 26L33 27L34 27L34 26L36 26L36 27L39 27L39 26L41 26L41 25L43 25L43 24L40 24L40 22L39 22L39 21L42 21L42 20L38 20L38 19L39 19L39 17L41 17L41 16L39 16L39 15L38 15L38 14L37 14L37 15L35 15L35 16L33 16L33 15L31 15L31 14ZM0 15L0 19L1 19L1 18L2 18L2 17L1 17L1 15ZM19 15L19 16L20 16L20 17L22 17L22 16L20 16L20 15ZM46 15L46 16L47 16L47 15ZM35 16L35 17L37 17L37 18L38 18L38 17L39 17L39 16L38 16L38 17L37 17L37 16ZM42 16L42 17L43 17L43 16ZM23 18L23 19L24 19L24 18ZM41 18L41 19L42 19L42 18ZM13 19L13 20L14 20L14 19ZM1 20L1 21L2 21L2 20ZM11 20L11 21L12 21L12 22L14 22L14 21L12 21L12 20ZM6 21L6 22L4 22L4 24L3 24L3 25L1 25L1 26L4 26L4 24L5 24L5 23L6 23L6 24L7 24L7 25L6 25L6 26L7 26L7 25L9 25L9 22L8 22L8 21ZM45 21L45 22L46 22L46 21ZM6 22L6 23L7 23L7 24L8 24L8 22ZM21 22L21 23L22 23L22 22ZM38 22L38 23L39 23L39 22ZM54 24L54 25L55 25L55 26L56 26L56 25L55 25L55 24ZM19 26L19 29L18 29L18 28L16 28L16 29L18 29L18 30L19 30L19 29L22 29L22 28L20 28L20 26ZM21 26L21 27L22 27L22 26ZM3 27L3 28L2 28L2 29L3 29L3 30L4 30L4 29L3 29L3 28L4 28L4 27ZM5 27L5 30L8 30L8 27ZM27 27L27 30L30 30L30 27ZM49 27L49 30L52 30L52 27ZM55 27L55 28L54 28L54 29L53 29L53 30L54 30L54 29L56 29L56 27ZM6 28L6 29L7 29L7 28ZM25 28L25 29L26 29L26 28ZM28 28L28 29L29 29L29 28ZM50 28L50 29L51 29L51 28ZM40 29L40 30L44 30L44 29ZM32 30L32 33L31 33L31 31L29 31L29 33L31 33L31 34L32 34L32 35L33 35L33 36L32 36L32 37L33 37L33 38L35 38L35 36L37 36L37 37L38 37L38 35L37 35L37 34L35 34L35 32L34 32L34 31L33 31L33 30ZM38 30L38 32L39 32L39 30ZM8 31L8 32L9 32L9 31ZM47 31L47 32L48 32L48 33L49 33L49 32L48 32L48 31ZM55 32L55 33L56 33L56 32ZM12 33L12 34L11 34L11 38L10 38L10 37L9 37L9 36L10 36L10 35L9 35L9 36L8 36L8 37L7 37L7 36L6 36L6 37L7 37L7 38L10 38L10 39L9 39L9 40L6 40L6 41L10 41L10 39L12 39L12 37L13 37L13 38L16 38L16 37L15 37L15 36L17 36L17 37L19 37L19 36L17 36L17 34L16 34L16 35L15 35L15 36L14 36L14 35L13 35L13 33ZM25 33L25 34L26 34L26 33ZM33 33L33 34L34 34L34 36L35 36L35 34L34 34L34 33ZM2 34L2 35L3 35L3 34ZM42 34L42 35L43 35L43 36L40 36L40 37L43 37L43 36L44 36L44 37L45 37L45 36L44 36L44 35L43 35L43 34ZM12 35L12 36L13 36L13 37L14 37L14 36L13 36L13 35ZM3 39L3 40L4 40L4 39ZM13 39L13 40L12 40L12 41L13 41L13 40L14 40L14 39ZM15 39L15 40L16 40L16 39ZM38 39L38 40L40 40L40 39ZM45 39L45 40L44 40L44 41L43 41L43 42L44 42L44 41L45 41L45 40L46 40L46 39ZM31 41L31 42L32 42L32 43L33 43L33 42L32 42L32 41ZM51 42L51 43L53 43L53 42ZM6 43L6 44L7 44L7 43ZM17 44L17 45L18 45L18 44ZM54 44L54 45L55 45L55 46L56 46L56 45L55 45L55 44ZM13 46L13 47L16 47L16 46ZM41 46L41 48L42 48L42 49L43 49L43 50L44 50L44 51L45 51L45 52L46 52L46 51L45 51L45 50L44 50L44 49L43 49L43 48L42 48L42 47L43 47L43 46ZM47 46L47 47L48 47L48 46ZM29 47L29 48L30 48L30 47ZM10 48L10 49L9 49L9 50L10 50L10 49L11 49L11 50L12 50L12 49L11 49L11 48ZM23 48L23 49L21 49L21 50L25 50L25 49L24 49L24 48ZM55 48L55 49L56 49L56 48ZM15 49L15 51L16 51L16 53L17 53L17 49ZM27 49L27 52L30 52L30 49ZM32 49L32 50L33 50L33 49ZM49 49L49 52L52 52L52 49ZM18 50L18 51L19 51L19 50ZM28 50L28 51L29 51L29 50ZM50 50L50 51L51 51L51 50ZM56 51L56 53L57 53L57 51ZM9 53L9 54L10 54L10 55L11 55L11 56L14 56L14 54L13 54L13 55L11 55L11 54L10 54L10 53ZM50 55L50 56L51 56L51 55ZM45 56L45 57L46 57L46 56ZM0 0L0 7L7 7L7 0ZM1 1L1 6L6 6L6 1ZM2 2L2 5L5 5L5 2ZM50 0L50 7L57 7L57 0ZM51 1L51 6L56 6L56 1ZM52 2L52 5L55 5L55 2ZM0 50L0 57L7 57L7 50ZM1 51L1 56L6 56L6 51ZM2 52L2 55L5 55L5 52Z" fill="#000000"/></g></g></svg>
