<?xml version="1.0" encoding="UTF-8"?>
<svg xmlns="http://www.w3.org/2000/svg" version="1.1" width="300" height="300" viewBox="0 0 300 300"><rect x="0" y="0" width="300" height="300" fill="#fefefe"/><g transform="scale(4.615)"><g transform="translate(4,4)"><path fill-rule="evenodd" d="M8 0L8 2L10 2L10 3L11 3L11 4L10 4L10 5L9 5L9 4L8 4L8 9L7 9L7 8L5 8L5 9L3 9L3 8L0 8L0 9L1 9L1 10L0 10L0 12L1 12L1 13L2 13L2 14L3 14L3 13L7 13L7 14L4 14L4 15L5 15L5 16L4 16L4 17L3 17L3 15L1 15L1 14L0 14L0 17L1 17L1 16L2 16L2 18L3 18L3 20L2 20L2 22L1 22L1 21L0 21L0 22L1 22L1 23L0 23L0 24L1 24L1 23L2 23L2 24L3 24L3 23L4 23L4 25L7 25L7 26L3 26L3 27L1 27L1 26L0 26L0 28L1 28L1 29L0 29L0 30L2 30L2 31L1 31L1 32L0 32L0 34L1 34L1 32L2 32L2 34L3 34L3 35L1 35L1 37L0 37L0 38L1 38L1 39L0 39L0 41L1 41L1 42L0 42L0 43L1 43L1 42L2 42L2 41L1 41L1 39L3 39L3 38L4 38L4 40L3 40L3 45L2 45L2 47L1 47L1 46L0 46L0 48L5 48L5 47L7 47L7 48L6 48L6 49L7 49L7 48L9 48L9 47L10 47L10 48L11 48L11 50L10 50L10 49L8 49L8 50L10 50L10 52L12 52L12 54L11 54L11 53L10 53L10 54L8 54L8 57L12 57L12 56L13 56L13 51L14 51L14 52L15 52L15 53L14 53L14 55L15 55L15 56L16 56L16 57L17 57L17 55L16 55L16 54L17 54L17 52L18 52L18 54L19 54L19 52L20 52L20 53L21 53L21 54L20 54L20 55L21 55L21 56L20 56L20 57L21 57L21 56L22 56L22 57L25 57L25 56L26 56L26 57L28 57L28 55L29 55L29 57L33 57L33 55L30 55L30 54L31 54L31 53L32 53L32 54L34 54L34 57L35 57L35 55L38 55L38 52L40 52L40 53L39 53L39 55L40 55L40 54L41 54L41 56L40 56L40 57L41 57L41 56L42 56L42 57L43 57L43 54L42 54L42 53L43 53L43 52L44 52L44 57L50 57L50 55L49 55L49 54L52 54L52 55L53 55L53 54L54 54L54 55L57 55L57 54L55 54L55 52L57 52L57 50L56 50L56 51L55 51L55 52L54 52L54 51L53 51L53 50L54 50L54 49L53 49L53 48L54 48L54 47L53 47L53 46L54 46L54 45L53 45L53 44L54 44L54 43L55 43L55 42L54 42L54 41L57 41L57 40L54 40L54 39L53 39L53 38L54 38L54 37L55 37L55 38L57 38L57 34L56 34L56 35L55 35L55 36L54 36L54 34L53 34L53 36L51 36L51 33L50 33L50 32L49 32L49 31L52 31L52 32L54 32L54 33L56 33L56 31L57 31L57 29L55 29L55 30L56 30L56 31L55 31L55 32L54 32L54 31L53 31L53 28L54 28L54 27L55 27L55 28L56 28L56 27L57 27L57 24L56 24L56 23L57 23L57 10L56 10L56 9L57 9L57 8L55 8L55 9L54 9L54 10L52 10L52 9L53 9L53 8L48 8L48 7L49 7L49 6L48 6L48 7L47 7L47 5L48 5L48 0L46 0L46 1L45 1L45 0L42 0L42 1L41 1L41 0L38 0L38 2L37 2L37 1L35 1L35 0L34 0L34 3L33 3L33 4L34 4L34 5L33 5L33 6L32 6L32 7L33 7L33 6L34 6L34 8L32 8L32 9L31 9L31 5L32 5L32 2L33 2L33 1L32 1L32 0L30 0L30 1L29 1L29 0L28 0L28 1L27 1L27 0L24 0L24 1L23 1L23 0L20 0L20 1L22 1L22 2L20 2L20 3L21 3L21 5L20 5L20 7L19 7L19 4L18 4L18 3L19 3L19 2L18 2L18 0L16 0L16 1L17 1L17 4L16 4L16 2L15 2L15 0L13 0L13 1L14 1L14 3L11 3L11 2L12 2L12 1L11 1L11 0ZM24 1L24 4L25 4L25 1ZM28 1L28 2L27 2L27 3L26 3L26 4L27 4L27 3L28 3L28 4L30 4L30 3L31 3L31 2L32 2L32 1L30 1L30 3L28 3L28 2L29 2L29 1ZM39 1L39 2L40 2L40 4L39 4L39 3L38 3L38 4L37 4L37 2L35 2L35 3L34 3L34 4L35 4L35 9L34 9L34 10L33 10L33 9L32 9L32 11L31 11L31 12L30 12L30 11L29 11L29 12L30 12L30 13L29 13L29 15L28 15L28 14L27 14L27 12L28 12L28 9L27 9L27 10L25 10L25 9L26 9L26 5L24 5L24 6L23 6L23 8L24 8L24 10L23 10L23 9L22 9L22 5L23 5L23 3L22 3L22 5L21 5L21 9L20 9L20 8L19 8L19 7L18 7L18 4L17 4L17 5L16 5L16 6L15 6L15 7L14 7L14 5L13 5L13 4L12 4L12 5L10 5L10 6L9 6L9 7L10 7L10 6L11 6L11 7L12 7L12 6L13 6L13 9L14 9L14 10L13 10L13 11L10 11L10 12L9 12L9 11L8 11L8 10L7 10L7 9L6 9L6 10L5 10L5 12L7 12L7 13L10 13L10 14L9 14L9 15L10 15L10 16L8 16L8 15L6 15L6 16L5 16L5 18L4 18L4 21L3 21L3 22L4 22L4 23L5 23L5 24L7 24L7 23L8 23L8 26L9 26L9 27L11 27L11 28L12 28L12 29L11 29L11 30L10 30L10 31L4 31L4 30L3 30L3 32L4 32L4 33L3 33L3 34L4 34L4 33L5 33L5 32L8 32L8 33L6 33L6 34L5 34L5 35L3 35L3 37L2 37L2 38L3 38L3 37L4 37L4 38L5 38L5 37L6 37L6 38L7 38L7 37L9 37L9 38L8 38L8 41L4 41L4 42L5 42L5 43L4 43L4 44L5 44L5 46L3 46L3 47L5 47L5 46L7 46L7 45L9 45L9 46L8 46L8 47L9 47L9 46L10 46L10 47L11 47L11 48L12 48L12 47L11 47L11 45L12 45L12 46L13 46L13 47L14 47L14 48L13 48L13 50L14 50L14 51L16 51L16 52L17 52L17 49L18 49L18 50L19 50L19 51L18 51L18 52L19 52L19 51L20 51L20 50L21 50L21 51L23 51L23 52L24 52L24 51L25 51L25 54L24 54L24 55L26 55L26 51L25 51L25 50L26 50L26 48L28 48L28 46L29 46L29 48L31 48L31 50L32 50L32 51L31 51L31 52L32 52L32 51L33 51L33 50L32 50L32 48L31 48L31 47L30 47L30 46L31 46L31 45L30 45L30 44L31 44L31 43L32 43L32 40L33 40L33 41L34 41L34 42L35 42L35 41L36 41L36 44L33 44L33 45L32 45L32 47L33 47L33 48L34 48L34 47L35 47L35 49L34 49L34 50L35 50L35 51L34 51L34 52L35 52L35 53L34 53L34 54L35 54L35 53L36 53L36 54L37 54L37 53L36 53L36 52L35 52L35 51L37 51L37 52L38 52L38 51L39 51L39 49L40 49L40 51L41 51L41 53L42 53L42 51L41 51L41 49L42 49L42 50L43 50L43 51L45 51L45 49L44 49L44 46L45 46L45 45L44 45L44 44L45 44L45 43L41 43L41 45L40 45L40 42L41 42L41 41L40 41L40 40L43 40L43 38L44 38L44 35L43 35L43 33L42 33L42 31L43 31L43 30L44 30L44 27L43 27L43 26L45 26L45 27L46 27L46 26L47 26L47 27L48 27L48 26L49 26L49 24L50 24L50 23L51 23L51 25L50 25L50 26L52 26L52 23L53 23L53 22L54 22L54 24L53 24L53 25L54 25L54 26L55 26L55 25L56 25L56 24L55 24L55 23L56 23L56 18L55 18L55 19L54 19L54 17L56 17L56 16L55 16L55 15L56 15L56 13L55 13L55 11L56 11L56 10L55 10L55 11L54 11L54 12L53 12L53 14L52 14L52 13L50 13L50 10L51 10L51 9L50 9L50 10L49 10L49 9L48 9L48 10L47 10L47 7L46 7L46 5L47 5L47 3L46 3L46 5L44 5L44 4L45 4L45 1L42 1L42 2L40 2L40 1ZM46 1L46 2L47 2L47 1ZM43 2L43 3L42 3L42 5L43 5L43 6L42 6L42 7L41 7L41 6L40 6L40 7L41 7L41 8L40 8L40 9L39 9L39 6L38 6L38 7L37 7L37 6L36 6L36 10L34 10L34 11L32 11L32 13L31 13L31 14L32 14L32 13L33 13L33 15L31 15L31 16L30 16L30 15L29 15L29 16L30 16L30 17L28 17L28 18L30 18L30 17L31 17L31 16L32 16L32 17L33 17L33 18L32 18L32 19L31 19L31 20L32 20L32 21L33 21L33 22L30 22L30 20L28 20L28 19L27 19L27 18L26 18L26 17L27 17L27 16L26 16L26 15L27 15L27 14L26 14L26 11L25 11L25 10L24 10L24 13L23 13L23 14L24 14L24 13L25 13L25 15L23 15L23 16L22 16L22 14L20 14L20 12L21 12L21 10L22 10L22 9L21 9L21 10L20 10L20 9L19 9L19 8L18 8L18 7L17 7L17 6L16 6L16 7L17 7L17 8L18 8L18 9L17 9L17 10L16 10L16 8L14 8L14 9L15 9L15 11L14 11L14 12L16 12L16 11L17 11L17 14L15 14L15 15L17 15L17 14L18 14L18 13L19 13L19 15L18 15L18 22L17 22L17 20L16 20L16 19L17 19L17 18L16 18L16 17L15 17L15 16L14 16L14 14L13 14L13 16L14 16L14 17L12 17L12 16L11 16L11 17L9 17L9 18L8 18L8 17L7 17L7 16L6 16L6 17L7 17L7 18L5 18L5 21L4 21L4 22L6 22L6 23L7 23L7 22L8 22L8 23L10 23L10 24L12 24L12 22L14 22L14 21L15 21L15 24L14 24L14 25L13 25L13 27L12 27L12 28L13 28L13 29L12 29L12 30L11 30L11 31L12 31L12 32L10 32L10 34L11 34L11 33L12 33L12 35L13 35L13 34L14 34L14 33L15 33L15 34L16 34L16 35L15 35L15 36L11 36L11 35L9 35L9 33L8 33L8 34L6 34L6 35L5 35L5 36L6 36L6 37L7 37L7 36L6 36L6 35L8 35L8 36L11 36L11 37L15 37L15 36L16 36L16 37L17 37L17 36L16 36L16 35L17 35L17 34L16 34L16 33L17 33L17 31L16 31L16 30L15 30L15 29L14 29L14 28L16 28L16 27L17 27L17 26L16 26L16 24L17 24L17 23L18 23L18 26L19 26L19 27L18 27L18 28L19 28L19 27L20 27L20 29L19 29L19 31L20 31L20 29L21 29L21 30L22 30L22 33L23 33L23 34L22 34L22 35L21 35L21 34L20 34L20 33L21 33L21 32L20 32L20 33L19 33L19 32L18 32L18 34L19 34L19 36L18 36L18 38L16 38L16 39L18 39L18 38L19 38L19 40L18 40L18 42L16 42L16 41L17 41L17 40L16 40L16 41L15 41L15 42L16 42L16 44L17 44L17 46L16 46L16 45L15 45L15 44L14 44L14 42L13 42L13 43L12 43L12 41L14 41L14 39L12 39L12 41L11 41L11 43L12 43L12 44L13 44L13 45L14 45L14 47L15 47L15 48L14 48L14 50L16 50L16 49L17 49L17 48L18 48L18 49L19 49L19 50L20 50L20 47L21 47L21 48L22 48L22 50L23 50L23 51L24 51L24 49L23 49L23 48L24 48L24 47L26 47L26 46L28 46L28 45L27 45L27 44L30 44L30 43L31 43L31 42L30 42L30 43L29 43L29 42L28 42L28 41L31 41L31 38L33 38L33 39L34 39L34 41L35 41L35 38L36 38L36 41L37 41L37 42L38 42L38 41L39 41L39 38L40 38L40 39L41 39L41 38L42 38L42 37L41 37L41 36L42 36L42 35L40 35L40 36L39 36L39 38L38 38L38 37L37 37L37 36L38 36L38 35L39 35L39 34L38 34L38 33L39 33L39 32L40 32L40 34L42 34L42 33L41 33L41 32L40 32L40 30L41 30L41 31L42 31L42 28L43 28L43 27L41 27L41 26L40 26L40 25L41 25L41 23L42 23L42 25L43 25L43 23L42 23L42 21L43 21L43 22L44 22L44 23L45 23L45 24L44 24L44 25L45 25L45 26L46 26L46 25L47 25L47 24L49 24L49 23L50 23L50 22L49 22L49 23L45 23L45 22L44 22L44 21L45 21L45 20L46 20L46 21L47 21L47 22L48 22L48 21L49 21L49 20L51 20L51 18L50 18L50 17L51 17L51 15L52 15L52 18L53 18L53 17L54 17L54 15L55 15L55 14L53 14L53 15L52 15L52 14L51 14L51 15L50 15L50 13L49 13L49 14L48 14L48 12L47 12L47 11L46 11L46 8L44 8L44 9L43 9L43 10L42 10L42 9L41 9L41 8L42 8L42 7L43 7L43 6L44 6L44 7L45 7L45 6L44 6L44 5L43 5L43 4L44 4L44 2ZM14 3L14 4L15 4L15 3ZM35 3L35 4L36 4L36 3ZM38 4L38 5L39 5L39 4ZM27 5L27 8L30 8L30 5ZM24 6L24 7L25 7L25 6ZM28 6L28 7L29 7L29 6ZM9 8L9 10L10 10L10 9L11 9L11 10L12 10L12 9L11 9L11 8ZM37 8L37 9L38 9L38 10L39 10L39 11L40 11L40 10L41 10L41 9L40 9L40 10L39 10L39 9L38 9L38 8ZM2 9L2 12L4 12L4 11L3 11L3 9ZM30 9L30 10L31 10L31 9ZM6 10L6 11L7 11L7 12L8 12L8 11L7 11L7 10ZM43 10L43 12L42 12L42 11L41 11L41 12L42 12L42 15L41 15L41 13L40 13L40 15L39 15L39 12L37 12L37 11L34 11L34 12L35 12L35 13L34 13L34 15L33 15L33 17L34 17L34 19L33 19L33 21L34 21L34 22L35 22L35 23L36 23L36 24L34 24L34 23L33 23L33 24L34 24L34 26L33 26L33 25L32 25L32 23L31 23L31 25L30 25L30 22L29 22L29 23L28 23L28 22L26 22L26 23L27 23L27 25L26 25L26 26L28 26L28 24L29 24L29 26L31 26L31 25L32 25L32 27L31 27L31 30L32 30L32 28L33 28L33 29L34 29L34 32L35 32L35 33L34 33L34 34L35 34L35 33L36 33L36 35L35 35L35 37L34 37L34 36L33 36L33 37L34 37L34 38L35 38L35 37L36 37L36 38L37 38L37 37L36 37L36 35L38 35L38 34L37 34L37 33L36 33L36 31L37 31L37 32L38 32L38 31L39 31L39 30L40 30L40 28L41 28L41 27L40 27L40 28L39 28L39 29L38 29L38 28L37 28L37 26L36 26L36 24L37 24L37 25L38 25L38 26L39 26L39 23L41 23L41 22L40 22L40 19L41 19L41 18L40 18L40 15L41 15L41 17L42 17L42 18L43 18L43 17L44 17L44 19L42 19L42 20L43 20L43 21L44 21L44 19L46 19L46 20L48 20L48 19L50 19L50 18L49 18L49 17L50 17L50 16L49 16L49 17L48 17L48 19L47 19L47 17L46 17L46 16L47 16L47 15L48 15L48 14L47 14L47 13L46 13L46 11L45 11L45 10ZM48 10L48 11L49 11L49 10ZM18 11L18 12L19 12L19 11ZM22 11L22 12L23 12L23 11ZM51 11L51 12L52 12L52 11ZM11 12L11 13L13 13L13 12ZM36 12L36 13L37 13L37 14L36 14L36 18L35 18L35 19L34 19L34 21L35 21L35 22L36 22L36 23L39 23L39 22L38 22L38 21L37 21L37 20L39 20L39 19L40 19L40 18L38 18L38 16L37 16L37 15L38 15L38 13L37 13L37 12ZM44 12L44 13L43 13L43 16L44 16L44 17L45 17L45 16L46 16L46 13L45 13L45 12ZM44 13L44 16L45 16L45 13ZM19 15L19 16L20 16L20 18L21 18L21 15ZM34 15L34 17L35 17L35 15ZM24 16L24 18L25 18L25 17L26 17L26 16ZM14 17L14 18L15 18L15 19L14 19L14 20L15 20L15 19L16 19L16 18L15 18L15 17ZM7 18L7 19L6 19L6 20L7 20L7 21L6 21L6 22L7 22L7 21L8 21L8 22L9 22L9 21L11 21L11 22L12 22L12 19L11 19L11 18L10 18L10 20L9 20L9 19L8 19L8 18ZM22 18L22 19L23 19L23 18ZM36 18L36 19L37 19L37 18ZM7 19L7 20L8 20L8 21L9 21L9 20L8 20L8 19ZM20 19L20 20L19 20L19 22L18 22L18 23L19 23L19 24L20 24L20 27L21 27L21 25L22 25L22 24L23 24L23 25L24 25L24 26L23 26L23 27L22 27L22 28L24 28L24 26L25 26L25 25L24 25L24 24L23 24L23 22L22 22L22 24L21 24L21 23L20 23L20 22L21 22L21 21L22 21L22 20L21 20L21 19ZM24 19L24 20L25 20L25 19ZM26 19L26 20L27 20L27 21L28 21L28 20L27 20L27 19ZM53 19L53 20L52 20L52 22L51 22L51 23L52 23L52 22L53 22L53 21L54 21L54 22L55 22L55 21L54 21L54 19ZM20 20L20 21L21 21L21 20ZM35 20L35 21L36 21L36 22L37 22L37 21L36 21L36 20ZM16 22L16 23L17 23L17 22ZM24 22L24 23L25 23L25 22ZM54 24L54 25L55 25L55 24ZM9 25L9 26L11 26L11 25ZM14 25L14 27L13 27L13 28L14 28L14 27L15 27L15 25ZM5 27L5 30L8 30L8 27ZM27 27L27 30L30 30L30 27ZM34 27L34 29L35 29L35 27ZM49 27L49 30L52 30L52 27ZM3 28L3 29L4 29L4 28ZM6 28L6 29L7 29L7 28ZM28 28L28 29L29 29L29 28ZM36 28L36 30L35 30L35 31L36 31L36 30L37 30L37 31L38 31L38 30L37 30L37 28ZM46 28L46 29L45 29L45 30L46 30L46 31L45 31L45 32L47 32L47 30L48 30L48 29L47 29L47 28ZM50 28L50 29L51 29L51 28ZM22 29L22 30L23 30L23 32L24 32L24 34L26 34L26 36L25 36L25 35L23 35L23 37L22 37L22 36L21 36L21 35L20 35L20 36L21 36L21 38L20 38L20 39L22 39L22 38L23 38L23 40L24 40L24 44L22 44L22 43L23 43L23 41L22 41L22 40L21 40L21 41L20 41L20 40L19 40L19 41L20 41L20 42L21 42L21 43L20 43L20 44L19 44L19 43L18 43L18 44L19 44L19 45L18 45L18 46L17 46L17 47L16 47L16 48L15 48L15 49L16 49L16 48L17 48L17 47L18 47L18 48L19 48L19 47L20 47L20 46L22 46L22 48L23 48L23 46L26 46L26 45L25 45L25 42L26 42L26 41L25 41L25 40L26 40L26 39L27 39L27 41L28 41L28 40L30 40L30 36L31 36L31 37L32 37L32 36L31 36L31 35L28 35L28 34L29 34L29 32L28 32L28 31L27 31L27 33L26 33L26 32L25 32L25 31L26 31L26 30L25 30L25 29L24 29L24 30L23 30L23 29ZM13 30L13 31L14 31L14 30ZM15 31L15 33L16 33L16 31ZM31 31L31 32L30 32L30 34L32 34L32 35L33 35L33 33L32 33L32 31ZM13 32L13 33L14 33L14 32ZM27 33L27 34L28 34L28 33ZM46 33L46 36L45 36L45 37L46 37L46 38L47 38L47 40L46 40L46 39L45 39L45 40L46 40L46 42L47 42L47 43L48 43L48 42L49 42L49 45L50 45L50 46L49 46L49 47L50 47L50 46L51 46L51 44L50 44L50 42L49 42L49 41L51 41L51 40L48 40L48 37L50 37L50 38L51 38L51 37L50 37L50 33L49 33L49 36L48 36L48 37L46 37L46 36L47 36L47 34L48 34L48 33ZM27 35L27 36L28 36L28 37L29 37L29 36L28 36L28 35ZM24 36L24 37L25 37L25 36ZM53 36L53 37L52 37L52 38L53 38L53 37L54 37L54 36ZM55 36L55 37L56 37L56 36ZM26 37L26 38L24 38L24 39L26 39L26 38L27 38L27 37ZM10 38L10 39L9 39L9 40L11 40L11 38ZM28 38L28 39L29 39L29 38ZM5 39L5 40L7 40L7 39ZM37 39L37 41L38 41L38 39ZM52 39L52 44L53 44L53 39ZM47 40L47 41L48 41L48 40ZM8 41L8 42L6 42L6 43L5 43L5 44L6 44L6 45L7 45L7 44L8 44L8 43L9 43L9 41ZM42 41L42 42L43 42L43 41ZM27 42L27 43L28 43L28 42ZM56 42L56 43L57 43L57 42ZM6 43L6 44L7 44L7 43ZM37 43L37 44L36 44L36 46L35 46L35 47L36 47L36 46L38 46L38 45L37 45L37 44L39 44L39 43ZM0 44L0 45L1 45L1 44ZM9 44L9 45L10 45L10 44ZM20 44L20 45L19 45L19 46L20 46L20 45L21 45L21 44ZM42 44L42 45L41 45L41 47L40 47L40 49L41 49L41 47L42 47L42 45L43 45L43 44ZM46 44L46 48L47 48L47 44ZM56 44L56 47L55 47L55 49L56 49L56 47L57 47L57 44ZM33 45L33 47L34 47L34 45ZM39 45L39 46L40 46L40 45ZM52 45L52 46L53 46L53 45ZM37 47L37 48L36 48L36 49L37 49L37 51L38 51L38 47ZM51 47L51 48L53 48L53 47ZM27 49L27 52L30 52L30 49ZM43 49L43 50L44 50L44 49ZM46 49L46 51L47 51L47 52L45 52L45 53L46 53L46 54L47 54L47 55L46 55L46 56L49 56L49 55L48 55L48 54L49 54L49 53L47 53L47 52L48 52L48 51L47 51L47 49ZM49 49L49 52L52 52L52 49ZM28 50L28 51L29 51L29 50ZM50 50L50 51L51 51L51 50ZM8 51L8 52L9 52L9 51ZM21 52L21 53L22 53L22 54L21 54L21 55L22 55L22 56L23 56L23 53L22 53L22 52ZM27 53L27 55L28 55L28 53ZM10 55L10 56L12 56L12 55ZM18 56L18 57L19 57L19 56ZM36 56L36 57L37 57L37 56ZM51 56L51 57L53 57L53 56ZM56 56L56 57L57 57L57 56ZM0 0L0 7L7 7L7 0ZM1 1L1 6L6 6L6 1ZM2 2L2 5L5 5L5 2ZM50 0L50 7L57 7L57 0ZM51 1L51 6L56 6L56 1ZM52 2L52 5L55 5L55 2ZM0 50L0 57L7 57L7 50ZM1 51L1 56L6 56L6 51ZM2 52L2 55L5 55L5 52Z" fill="#000000"/></g></g></svg>
