<?xml version="1.0" encoding="UTF-8"?>
<svg xmlns="http://www.w3.org/2000/svg" version="1.1" width="300" height="300" viewBox="0 0 300 300"><rect x="0" y="0" width="300" height="300" fill="#fefefe"/><g transform="scale(4.615)"><g transform="translate(4,4)"><path fill-rule="evenodd" d="M9 0L9 1L8 1L8 2L9 2L9 1L10 1L10 2L11 2L11 3L8 3L8 4L9 4L9 5L8 5L8 7L9 7L9 5L10 5L10 8L12 8L12 9L11 9L11 11L10 11L10 9L9 9L9 8L6 8L6 9L5 9L5 8L0 8L0 9L1 9L1 10L0 10L0 12L4 12L4 13L2 13L2 14L3 14L3 15L4 15L4 14L5 14L5 13L7 13L7 14L6 14L6 15L7 15L7 14L8 14L8 16L6 16L6 17L4 17L4 16L3 16L3 17L2 17L2 15L1 15L1 14L0 14L0 16L1 16L1 17L0 17L0 19L1 19L1 17L2 17L2 19L3 19L3 17L4 17L4 18L5 18L5 20L4 20L4 21L5 21L5 23L7 23L7 24L6 24L6 25L7 25L7 26L4 26L4 25L3 25L3 26L2 26L2 24L1 24L1 22L2 22L2 23L3 23L3 24L4 24L4 22L3 22L3 21L1 21L1 22L0 22L0 24L1 24L1 26L0 26L0 27L1 27L1 28L3 28L3 29L2 29L2 30L1 30L1 29L0 29L0 30L1 30L1 31L2 31L2 30L4 30L4 31L3 31L3 33L2 33L2 34L3 34L3 33L4 33L4 34L5 34L5 35L3 35L3 37L2 37L2 36L1 36L1 35L0 35L0 36L1 36L1 37L0 37L0 39L1 39L1 40L0 40L0 42L1 42L1 43L0 43L0 45L5 45L5 47L3 47L3 46L2 46L2 47L1 47L1 46L0 46L0 48L5 48L5 47L7 47L7 46L6 46L6 45L8 45L8 51L9 51L9 52L8 52L8 57L9 57L9 56L10 56L10 57L12 57L12 56L14 56L14 55L13 55L13 53L14 53L14 54L15 54L15 55L16 55L16 56L15 56L15 57L16 57L16 56L17 56L17 57L19 57L19 56L18 56L18 55L17 55L17 54L19 54L19 55L20 55L20 54L19 54L19 53L20 53L20 52L21 52L21 51L19 51L19 52L17 52L17 53L16 53L16 51L15 51L15 48L16 48L16 49L19 49L19 50L20 50L20 49L21 49L21 50L22 50L22 52L23 52L23 50L26 50L26 52L24 52L24 53L23 53L23 54L22 54L22 53L21 53L21 56L23 56L23 57L26 57L26 56L24 56L24 55L23 55L23 54L24 54L24 53L27 53L27 54L30 54L30 53L31 53L31 50L32 50L32 48L33 48L33 47L34 47L34 48L35 48L35 49L36 49L36 50L34 50L34 49L33 49L33 50L34 50L34 51L35 51L35 54L36 54L36 56L35 56L35 55L34 55L34 54L33 54L33 53L34 53L34 52L33 52L33 51L32 51L32 52L33 52L33 53L32 53L32 54L31 54L31 56L30 56L30 55L29 55L29 56L27 56L27 57L29 57L29 56L30 56L30 57L31 57L31 56L35 56L35 57L39 57L39 56L37 56L37 55L40 55L40 56L42 56L42 55L44 55L44 54L46 54L46 55L47 55L47 57L48 57L48 56L50 56L50 57L52 57L52 55L51 55L51 53L52 53L52 54L53 54L53 52L54 52L54 54L55 54L55 53L56 53L56 52L55 52L55 51L56 51L56 50L57 50L57 48L56 48L56 46L57 46L57 43L56 43L56 42L57 42L57 41L56 41L56 42L55 42L55 39L57 39L57 35L56 35L56 34L57 34L57 32L56 32L56 30L57 30L57 29L56 29L56 28L57 28L57 27L55 27L55 26L57 26L57 25L56 25L56 22L57 22L57 20L55 20L55 18L57 18L57 17L56 17L56 16L57 16L57 15L56 15L56 14L57 14L57 13L56 13L56 14L55 14L55 13L54 13L54 12L55 12L55 11L56 11L56 12L57 12L57 11L56 11L56 10L54 10L54 11L52 11L52 10L53 10L53 9L54 9L54 8L53 8L53 9L52 9L52 8L51 8L51 10L49 10L49 9L50 9L50 8L49 8L49 6L48 6L48 7L47 7L47 5L48 5L48 0L45 0L45 2L44 2L44 3L43 3L43 4L40 4L40 5L39 5L39 6L38 6L38 4L37 4L37 3L36 3L36 0L35 0L35 1L31 1L31 0L28 0L28 1L26 1L26 0L23 0L23 1L22 1L22 0L21 0L21 1L20 1L20 0L17 0L17 1L16 1L16 2L15 2L15 1L14 1L14 0L13 0L13 1L12 1L12 0ZM37 0L37 1L38 1L38 3L42 3L42 2L43 2L43 0L41 0L41 1L40 1L40 0L39 0L39 1L38 1L38 0ZM13 1L13 2L12 2L12 3L13 3L13 2L14 2L14 4L11 4L11 5L12 5L12 6L11 6L11 7L12 7L12 6L13 6L13 7L14 7L14 9L13 9L13 10L15 10L15 11L18 11L18 10L19 10L19 13L20 13L20 14L19 14L19 16L20 16L20 18L19 18L19 20L20 20L20 21L18 21L18 22L17 22L17 24L16 24L16 23L15 23L15 22L16 22L16 21L17 21L17 20L18 20L18 17L16 17L16 16L17 16L17 13L18 13L18 12L17 12L17 13L16 13L16 12L15 12L15 13L13 13L13 12L14 12L14 11L13 11L13 12L8 12L8 13L9 13L9 14L10 14L10 15L9 15L9 16L10 16L10 15L11 15L11 14L10 14L10 13L12 13L12 15L13 15L13 16L14 16L14 17L12 17L12 16L11 16L11 18L10 18L10 17L8 17L8 18L10 18L10 19L6 19L6 20L7 20L7 21L6 21L6 22L7 22L7 23L8 23L8 22L9 22L9 21L8 21L8 20L10 20L10 19L12 19L12 20L13 20L13 21L14 21L14 22L12 22L12 21L10 21L10 22L11 22L11 25L10 25L10 23L9 23L9 24L7 24L7 25L9 25L9 27L11 27L11 28L12 28L12 29L13 29L13 28L12 28L12 27L14 27L14 28L15 28L15 29L14 29L14 31L15 31L15 32L12 32L12 33L13 33L13 34L12 34L12 35L11 35L11 36L12 36L12 37L10 37L10 38L11 38L11 40L12 40L12 39L13 39L13 40L15 40L15 39L16 39L16 40L18 40L18 39L17 39L17 38L19 38L19 39L20 39L20 38L19 38L19 37L22 37L22 39L21 39L21 40L20 40L20 42L21 42L21 43L20 43L20 44L21 44L21 45L19 45L19 46L21 46L21 45L22 45L22 46L23 46L23 47L20 47L20 48L21 48L21 49L23 49L23 47L26 47L26 48L24 48L24 49L26 49L26 48L27 48L27 47L28 47L28 48L30 48L30 47L28 47L28 46L29 46L29 45L32 45L32 46L31 46L31 47L32 47L32 46L36 46L36 45L34 45L34 43L37 43L37 42L35 42L35 40L38 40L38 42L39 42L39 41L41 41L41 40L42 40L42 41L43 41L43 39L45 39L45 38L46 38L46 39L47 39L47 40L44 40L44 42L43 42L43 43L44 43L44 45L43 45L43 46L41 46L41 48L39 48L39 47L40 47L40 46L39 46L39 45L41 45L41 44L42 44L42 42L41 42L41 44L39 44L39 45L38 45L38 46L39 46L39 47L38 47L38 48L37 48L37 49L38 49L38 50L36 50L36 52L38 52L38 53L37 53L37 54L40 54L40 53L41 53L41 52L43 52L43 51L45 51L45 52L44 52L44 53L43 53L43 54L44 54L44 53L46 53L46 54L47 54L47 53L48 53L48 50L47 50L47 49L48 49L48 48L49 48L49 47L48 47L48 46L47 46L47 45L48 45L48 44L49 44L49 46L50 46L50 48L51 48L51 46L53 46L53 47L52 47L52 48L53 48L53 47L55 47L55 46L56 46L56 43L55 43L55 44L54 44L54 45L55 45L55 46L53 46L53 45L52 45L52 44L53 44L53 43L54 43L54 42L53 42L53 41L51 41L51 42L50 42L50 43L49 43L49 42L48 42L48 41L49 41L49 40L50 40L50 39L51 39L51 40L52 40L52 39L55 39L55 37L56 37L56 35L55 35L55 34L56 34L56 32L55 32L55 34L54 34L54 33L52 33L52 32L53 32L53 31L52 31L52 32L51 32L51 31L50 31L50 32L49 32L49 31L48 31L48 30L47 30L47 29L48 29L48 28L47 28L47 29L46 29L46 30L47 30L47 31L46 31L46 32L47 32L47 33L45 33L45 32L43 32L43 31L44 31L44 29L45 29L45 28L46 28L46 27L48 27L48 26L47 26L47 25L49 25L49 24L51 24L51 25L50 25L50 26L52 26L52 25L55 25L55 24L51 24L51 23L50 23L50 22L51 22L51 21L54 21L54 22L53 22L53 23L55 23L55 22L56 22L56 21L55 21L55 20L53 20L53 19L52 19L52 18L55 18L55 16L52 16L52 15L50 15L50 14L51 14L51 12L50 12L50 11L48 11L48 10L47 10L47 8L45 8L45 7L46 7L46 6L45 6L45 4L46 4L46 5L47 5L47 3L44 3L44 6L43 6L43 5L42 5L42 6L41 6L41 5L40 5L40 6L39 6L39 7L40 7L40 8L39 8L39 9L38 9L38 10L37 10L37 9L35 9L35 8L37 8L37 7L38 7L38 6L37 6L37 7L36 7L36 5L37 5L37 4L36 4L36 5L35 5L35 2L33 2L33 3L32 3L32 2L30 2L30 1L28 1L28 2L22 2L22 1L21 1L21 2L20 2L20 1L19 1L19 2L18 2L18 1L17 1L17 2L16 2L16 3L15 3L15 2L14 2L14 1ZM46 1L46 2L47 2L47 1ZM17 2L17 3L18 3L18 4L17 4L17 5L18 5L18 4L19 4L19 5L20 5L20 7L19 7L19 6L18 6L18 7L17 7L17 6L16 6L16 7L15 7L15 5L16 5L16 4L15 4L15 5L14 5L14 7L15 7L15 8L16 8L16 9L17 9L17 10L18 10L18 9L19 9L19 10L20 10L20 13L21 13L21 15L20 15L20 16L21 16L21 17L22 17L22 18L24 18L24 19L21 19L21 18L20 18L20 19L21 19L21 20L24 20L24 21L23 21L23 22L22 22L22 21L21 21L21 22L22 22L22 23L23 23L23 24L24 24L24 25L22 25L22 24L17 24L17 25L19 25L19 27L20 27L20 28L21 28L21 29L22 29L22 28L21 28L21 27L22 27L22 26L23 26L23 27L24 27L24 28L23 28L23 30L25 30L25 31L26 31L26 34L25 34L25 33L23 33L23 34L22 34L22 33L21 33L21 32L23 32L23 31L20 31L20 29L18 29L18 28L17 28L17 27L18 27L18 26L17 26L17 27L16 27L16 29L15 29L15 31L16 31L16 29L18 29L18 30L19 30L19 31L20 31L20 32L18 32L18 33L17 33L17 32L15 32L15 33L14 33L14 34L15 34L15 35L13 35L13 37L12 37L12 38L13 38L13 39L15 39L15 38L16 38L16 37L15 37L15 36L17 36L17 37L19 37L19 35L18 35L18 36L17 36L17 34L18 34L18 33L21 33L21 35L23 35L23 34L24 34L24 36L23 36L23 37L24 37L24 38L23 38L23 39L24 39L24 40L23 40L23 41L24 41L24 42L22 42L22 43L21 43L21 44L22 44L22 45L23 45L23 46L25 46L25 45L23 45L23 44L27 44L27 45L26 45L26 47L27 47L27 45L28 45L28 44L33 44L33 43L34 43L34 42L33 42L33 41L32 41L32 40L30 40L30 42L27 42L27 41L28 41L28 39L27 39L27 38L28 38L28 37L27 37L27 31L31 31L31 33L29 33L29 32L28 32L28 33L29 33L29 34L30 34L30 36L29 36L29 37L31 37L31 38L29 38L29 39L33 39L33 40L35 40L35 39L37 39L37 38L38 38L38 37L40 37L40 38L41 38L41 39L42 39L42 38L43 38L43 37L44 37L44 38L45 38L45 37L44 37L44 36L46 36L46 35L44 35L44 33L43 33L43 32L41 32L41 33L39 33L39 34L40 34L40 35L39 35L39 36L38 36L38 33L37 33L37 32L35 32L35 34L33 34L33 33L32 33L32 27L33 27L33 28L35 28L35 29L38 29L38 28L40 28L40 27L41 27L41 28L42 28L42 27L41 27L41 26L44 26L44 28L43 28L43 29L41 29L41 30L40 30L40 31L41 31L41 30L43 30L43 29L44 29L44 28L45 28L45 26L44 26L44 20L46 20L46 19L47 19L47 20L48 20L48 21L47 21L47 22L46 22L46 21L45 21L45 22L46 22L46 23L45 23L45 24L48 24L48 23L47 23L47 22L49 22L49 21L51 21L51 20L52 20L52 19L50 19L50 17L52 17L52 16L50 16L50 17L49 17L49 16L48 16L48 15L49 15L49 14L50 14L50 12L49 12L49 13L47 13L47 14L44 14L44 12L43 12L43 13L39 13L39 12L41 12L41 11L43 11L43 9L44 9L44 11L45 11L45 12L48 12L48 11L47 11L47 10L46 10L46 11L45 11L45 9L44 9L44 8L43 8L43 6L42 6L42 7L41 7L41 6L40 6L40 7L41 7L41 10L39 10L39 11L37 11L37 10L36 10L36 12L35 12L35 14L32 14L32 12L33 12L33 13L34 13L34 12L33 12L33 10L32 10L32 8L31 8L31 4L32 4L32 5L34 5L34 7L33 7L33 6L32 6L32 7L33 7L33 9L34 9L34 8L35 8L35 5L34 5L34 4L32 4L32 3L31 3L31 4L28 4L28 3L29 3L29 2L28 2L28 3L27 3L27 4L26 4L26 3L23 3L23 4L24 4L24 5L23 5L23 6L22 6L22 7L21 7L21 4L19 4L19 3L18 3L18 2ZM21 2L21 3L22 3L22 2ZM25 4L25 8L26 8L26 4ZM27 5L27 8L30 8L30 5ZM23 6L23 7L22 7L22 8L20 8L20 10L21 10L21 11L22 11L22 10L23 10L23 8L24 8L24 6ZM28 6L28 7L29 7L29 6ZM44 6L44 7L45 7L45 6ZM16 7L16 8L17 8L17 7ZM42 8L42 9L43 9L43 8ZM55 8L55 9L56 9L56 8ZM2 9L2 10L5 10L5 11L4 11L4 12L5 12L5 11L6 11L6 12L7 12L7 11L6 11L6 10L8 10L8 11L9 11L9 10L8 10L8 9L6 9L6 10L5 10L5 9ZM21 9L21 10L22 10L22 9ZM28 10L28 11L29 11L29 12L28 12L28 13L26 13L26 12L27 12L27 11L26 11L26 12L25 12L25 11L24 11L24 12L23 12L23 13L22 13L22 12L21 12L21 13L22 13L22 14L23 14L23 13L25 13L25 14L24 14L24 15L26 15L26 17L25 17L25 16L23 16L23 15L21 15L21 16L22 16L22 17L25 17L25 19L26 19L26 20L25 20L25 21L24 21L24 22L23 22L23 23L24 23L24 24L25 24L25 25L26 25L26 26L24 26L24 27L26 27L26 26L27 26L27 25L31 25L31 24L32 24L32 26L31 26L31 27L32 27L32 26L33 26L33 27L34 27L34 26L36 26L36 27L35 27L35 28L37 28L37 27L39 27L39 26L41 26L41 25L43 25L43 24L40 24L40 22L39 22L39 21L43 21L43 20L44 20L44 18L45 18L45 19L46 19L46 18L47 18L47 19L48 19L48 18L47 18L47 17L48 17L48 16L47 16L47 15L44 15L44 14L41 14L41 16L39 16L39 15L38 15L38 14L39 14L39 13L38 13L38 14L36 14L36 15L35 15L35 16L32 16L32 14L30 14L30 13L31 13L31 12L32 12L32 10L31 10L31 11L30 11L30 10ZM52 12L52 13L53 13L53 14L54 14L54 15L55 15L55 14L54 14L54 13L53 13L53 12ZM15 13L15 14L13 14L13 15L14 15L14 16L16 16L16 13ZM28 13L28 14L29 14L29 16L28 16L28 15L27 15L27 16L28 16L28 17L26 17L26 18L28 18L28 19L27 19L27 20L31 20L31 21L29 21L29 23L30 23L30 24L31 24L31 23L30 23L30 22L31 22L31 21L32 21L32 20L34 20L34 19L30 19L30 18L31 18L31 17L32 17L32 18L33 18L33 17L32 17L32 16L31 16L31 15L30 15L30 14L29 14L29 13ZM42 15L42 16L41 16L41 17L39 17L39 16L38 16L38 17L37 17L37 16L35 16L35 17L37 17L37 18L38 18L38 17L39 17L39 19L38 19L38 21L37 21L37 20L36 20L36 19L35 19L35 23L34 23L34 22L33 22L33 23L32 23L32 24L33 24L33 25L37 25L37 26L38 26L38 25L39 25L39 24L37 24L37 22L38 22L38 21L39 21L39 20L41 20L41 18L42 18L42 19L43 19L43 18L44 18L44 15ZM42 16L42 17L43 17L43 16ZM45 16L45 17L47 17L47 16ZM6 17L6 18L7 18L7 17ZM14 17L14 18L15 18L15 19L16 19L16 20L15 20L15 21L16 21L16 20L17 20L17 19L16 19L16 18L15 18L15 17ZM13 19L13 20L14 20L14 19ZM25 21L25 22L26 22L26 23L25 23L25 24L27 24L27 22L28 22L28 21ZM19 22L19 23L20 23L20 22ZM41 22L41 23L42 23L42 22ZM12 23L12 25L13 25L13 23ZM14 23L14 24L15 24L15 25L16 25L16 24L15 24L15 23ZM20 25L20 27L21 27L21 26L22 26L22 25ZM11 26L11 27L12 27L12 26ZM53 26L53 27L54 27L54 26ZM5 27L5 30L8 30L8 27ZM27 27L27 30L30 30L30 27ZM49 27L49 30L52 30L52 27ZM6 28L6 29L7 29L7 28ZM9 28L9 30L10 30L10 31L9 31L9 34L8 34L8 33L6 33L6 32L8 32L8 31L4 31L4 32L5 32L5 34L7 34L7 35L6 35L6 36L8 36L8 35L9 35L9 34L10 34L10 33L11 33L11 30L10 30L10 28ZM25 28L25 29L26 29L26 28ZM28 28L28 29L29 29L29 28ZM50 28L50 29L51 29L51 28ZM54 28L54 29L53 29L53 30L54 30L54 29L55 29L55 28ZM33 30L33 31L35 31L35 30ZM38 30L38 32L39 32L39 30ZM47 31L47 32L48 32L48 33L49 33L49 32L48 32L48 31ZM50 32L50 34L48 34L48 35L50 35L50 38L49 38L49 36L48 36L48 37L47 37L47 39L50 39L50 38L51 38L51 39L52 39L52 38L51 38L51 37L52 37L52 35L53 35L53 37L55 37L55 35L53 35L53 34L52 34L52 33L51 33L51 32ZM15 33L15 34L17 34L17 33ZM31 33L31 35L32 35L32 33ZM35 34L35 36L37 36L37 34ZM42 34L42 36L44 36L44 35L43 35L43 34ZM50 34L50 35L52 35L52 34ZM33 35L33 36L32 36L32 37L33 37L33 39L35 39L35 37L33 37L33 36L34 36L34 35ZM4 36L4 38L5 38L5 39L6 39L6 40L5 40L5 41L6 41L6 42L5 42L5 43L6 43L6 44L5 44L5 45L6 45L6 44L9 44L9 46L10 46L10 47L11 47L11 48L13 48L13 47L12 47L12 46L14 46L14 42L13 42L13 41L12 41L12 42L11 42L11 43L12 43L12 42L13 42L13 45L12 45L12 44L10 44L10 41L9 41L9 39L8 39L8 40L7 40L7 39L6 39L6 38L8 38L8 37L5 37L5 36ZM40 36L40 37L41 37L41 36ZM1 37L1 38L2 38L2 39L3 39L3 38L2 38L2 37ZM14 37L14 38L15 38L15 37ZM25 37L25 40L24 40L24 41L25 41L25 43L27 43L27 44L28 44L28 43L27 43L27 42L26 42L26 41L27 41L27 40L26 40L26 37ZM38 39L38 40L39 40L39 39ZM3 40L3 41L2 41L2 42L3 42L3 43L4 43L4 40ZM6 40L6 41L7 41L7 40ZM8 41L8 43L9 43L9 41ZM15 41L15 42L17 42L17 43L18 43L18 42L19 42L19 41ZM31 41L31 42L32 42L32 43L33 43L33 42L32 42L32 41ZM6 42L6 43L7 43L7 42ZM44 42L44 43L45 43L45 42ZM47 42L47 43L46 43L46 44L45 44L45 45L44 45L44 46L45 46L45 50L46 50L46 52L47 52L47 50L46 50L46 49L47 49L47 48L48 48L48 47L47 47L47 46L45 46L45 45L47 45L47 43L48 43L48 42ZM51 42L51 43L50 43L50 44L51 44L51 43L53 43L53 42ZM15 43L15 47L16 47L16 48L19 48L19 47L17 47L17 45L18 45L18 44L16 44L16 43ZM10 45L10 46L11 46L11 45ZM50 45L50 46L51 46L51 45ZM35 47L35 48L36 48L36 47ZM42 47L42 48L41 48L41 50L38 50L38 52L39 52L39 51L40 51L40 52L41 52L41 50L42 50L42 51L43 51L43 49L44 49L44 48L43 48L43 47ZM46 47L46 48L47 48L47 47ZM6 48L6 49L7 49L7 48ZM38 48L38 49L39 49L39 48ZM42 48L42 49L43 49L43 48ZM55 48L55 49L56 49L56 48ZM9 49L9 50L11 50L11 51L10 51L10 53L9 53L9 55L10 55L10 53L11 53L11 54L12 54L12 52L11 52L11 51L13 51L13 52L14 52L14 53L15 53L15 54L16 54L16 53L15 53L15 51L13 51L13 50L12 50L12 49ZM27 49L27 52L30 52L30 49ZM49 49L49 52L52 52L52 49ZM17 50L17 51L18 51L18 50ZM28 50L28 51L29 51L29 50ZM50 50L50 51L51 51L51 50ZM54 50L54 51L55 51L55 50ZM25 54L25 55L26 55L26 54ZM41 54L41 55L42 55L42 54ZM11 55L11 56L12 56L12 55ZM50 55L50 56L51 56L51 55ZM53 55L53 56L55 56L55 57L56 57L56 56L55 56L55 55ZM43 56L43 57L44 57L44 56ZM45 56L45 57L46 57L46 56ZM0 0L0 7L7 7L7 0ZM1 1L1 6L6 6L6 1ZM2 2L2 5L5 5L5 2ZM50 0L50 7L57 7L57 0ZM51 1L51 6L56 6L56 1ZM52 2L52 5L55 5L55 2ZM0 50L0 57L7 57L7 50ZM1 51L1 56L6 56L6 51ZM2 52L2 55L5 55L5 52Z" fill="#000000"/></g></g></svg>
