<?xml version="1.0" encoding="UTF-8"?>
<svg xmlns="http://www.w3.org/2000/svg" version="1.1" width="300" height="300" viewBox="0 0 300 300"><rect x="0" y="0" width="300" height="300" fill="#fefefe"/><g transform="scale(4.615)"><g transform="translate(4,4)"><path fill-rule="evenodd" d="M8 0L8 2L10 2L10 3L9 3L9 4L8 4L8 9L10 9L10 10L9 10L9 11L12 11L12 12L13 12L13 11L12 11L12 10L13 10L13 9L10 9L10 7L11 7L11 8L14 8L14 9L15 9L15 8L14 8L14 7L15 7L15 6L16 6L16 7L17 7L17 6L18 6L18 10L16 10L16 12L17 12L17 14L15 14L15 15L14 15L14 18L13 18L13 17L12 17L12 16L11 16L11 18L13 18L13 22L12 22L12 20L8 20L8 19L7 19L7 18L9 18L9 19L10 19L10 17L8 17L8 15L9 15L9 14L10 14L10 13L9 13L9 12L6 12L6 11L7 11L7 10L6 10L6 9L7 9L7 8L5 8L5 9L3 9L3 8L0 8L0 9L3 9L3 10L2 10L2 11L1 11L1 12L0 12L0 18L1 18L1 20L0 20L0 21L3 21L3 20L4 20L4 22L3 22L3 23L0 23L0 25L1 25L1 26L0 26L0 27L1 27L1 28L0 28L0 30L1 30L1 32L0 32L0 33L1 33L1 34L2 34L2 37L3 37L3 38L0 38L0 41L1 41L1 42L2 42L2 41L4 41L4 42L3 42L3 44L2 44L2 43L1 43L1 45L2 45L2 47L1 47L1 46L0 46L0 48L5 48L5 47L7 47L7 48L6 48L6 49L8 49L8 50L10 50L10 49L12 49L12 50L11 50L11 51L8 51L8 52L11 52L11 53L10 53L10 54L8 54L8 57L10 57L10 55L11 55L11 53L12 53L12 55L13 55L13 53L12 53L12 52L14 52L14 53L15 53L15 55L14 55L14 57L17 57L17 56L18 56L18 57L19 57L19 56L18 56L18 55L19 55L19 54L18 54L18 53L19 53L19 52L18 52L18 51L17 51L17 52L15 52L15 51L12 51L12 50L13 50L13 49L12 49L12 48L13 48L13 47L16 47L16 48L17 48L17 47L16 47L16 45L15 45L15 44L17 44L17 46L18 46L18 49L17 49L17 50L18 50L18 49L19 49L19 50L20 50L20 49L21 49L21 48L22 48L22 50L23 50L23 51L20 51L20 53L21 53L21 52L22 52L22 53L23 53L23 55L22 55L22 57L25 57L25 55L24 55L24 54L26 54L26 55L27 55L27 56L26 56L26 57L28 57L28 55L29 55L29 57L33 57L33 55L30 55L30 54L31 54L31 53L32 53L32 54L34 54L34 57L35 57L35 55L37 55L37 54L38 54L38 53L39 53L39 56L40 56L40 57L42 57L42 56L43 56L43 54L42 54L42 53L41 53L41 51L42 51L42 52L44 52L44 55L45 55L45 52L46 52L46 53L49 53L49 54L48 54L48 55L49 55L49 57L50 57L50 55L49 55L49 54L52 54L52 55L53 55L53 56L51 56L51 57L53 57L53 56L54 56L54 55L57 55L57 54L55 54L55 52L56 52L56 53L57 53L57 52L56 52L56 51L57 51L57 50L56 50L56 47L57 47L57 45L56 45L56 47L55 47L55 50L56 50L56 51L55 51L55 52L54 52L54 51L53 51L53 50L54 50L54 49L53 49L53 48L54 48L54 45L53 45L53 46L52 46L52 40L53 40L53 44L54 44L54 43L55 43L55 44L56 44L56 43L57 43L57 42L56 42L56 41L57 41L57 40L54 40L54 38L57 38L57 34L56 34L56 37L55 37L55 36L54 36L54 34L53 34L53 36L51 36L51 33L50 33L50 32L51 32L51 31L52 31L52 32L53 32L53 33L56 33L56 31L57 31L57 29L56 29L56 28L57 28L57 24L56 24L56 23L57 23L57 21L56 21L56 20L57 20L57 18L56 18L56 20L55 20L55 21L54 21L54 19L55 19L55 16L56 16L56 17L57 17L57 13L56 13L56 15L55 15L55 13L54 13L54 14L53 14L53 12L54 12L54 11L55 11L55 10L56 10L56 11L57 11L57 10L56 10L56 9L57 9L57 8L55 8L55 9L54 9L54 10L52 10L52 12L51 12L51 10L50 10L50 9L53 9L53 8L49 8L49 6L48 6L48 9L47 9L47 8L46 8L46 7L47 7L47 5L48 5L48 0L46 0L46 1L47 1L47 2L45 2L45 4L44 4L44 2L43 2L43 4L42 4L42 1L45 1L45 0L42 0L42 1L41 1L41 0L38 0L38 2L37 2L37 1L35 1L35 0L34 0L34 3L33 3L33 6L32 6L32 7L33 7L33 6L34 6L34 8L32 8L32 9L31 9L31 5L32 5L32 2L33 2L33 0L30 0L30 2L29 2L29 0L28 0L28 2L29 2L29 3L30 3L30 4L26 4L26 3L27 3L27 0L24 0L24 1L23 1L23 0L20 0L20 2L21 2L21 5L20 5L20 7L19 7L19 5L18 5L18 3L17 3L17 0L16 0L16 2L15 2L15 1L14 1L14 0L12 0L12 1L11 1L11 0ZM18 0L18 1L19 1L19 0ZM12 1L12 2L11 2L11 3L12 3L12 4L13 4L13 3L14 3L14 4L15 4L15 3L14 3L14 1ZM21 1L21 2L23 2L23 1ZM24 1L24 4L25 4L25 1ZM31 1L31 2L30 2L30 3L31 3L31 2L32 2L32 1ZM39 1L39 2L38 2L38 4L37 4L37 2L35 2L35 3L34 3L34 4L35 4L35 9L34 9L34 10L33 10L33 9L32 9L32 11L34 11L34 12L35 12L35 13L34 13L34 15L33 15L33 14L32 14L32 12L30 12L30 11L31 11L31 9L30 9L30 11L29 11L29 12L30 12L30 13L29 13L29 15L28 15L28 14L27 14L27 12L28 12L28 11L27 11L27 10L28 10L28 9L27 9L27 10L25 10L25 9L26 9L26 5L24 5L24 6L23 6L23 8L24 8L24 10L23 10L23 9L22 9L22 5L23 5L23 3L22 3L22 5L21 5L21 9L20 9L20 10L19 10L19 11L18 11L18 12L20 12L20 15L18 15L18 14L19 14L19 13L18 13L18 14L17 14L17 15L15 15L15 17L16 17L16 19L14 19L14 20L16 20L16 19L17 19L17 22L16 22L16 23L18 23L18 24L17 24L17 25L16 25L16 24L15 24L15 21L14 21L14 23L11 23L11 21L10 21L10 22L9 22L9 21L8 21L8 20L7 20L7 19L5 19L5 16L7 16L7 15L6 15L6 14L8 14L8 13L6 13L6 14L5 14L5 11L4 11L4 10L3 10L3 11L4 11L4 12L1 12L1 16L2 16L2 17L4 17L4 19L5 19L5 21L6 21L6 22L9 22L9 23L6 23L6 24L5 24L5 25L4 25L4 24L3 24L3 25L2 25L2 26L1 26L1 27L2 27L2 26L3 26L3 27L4 27L4 26L7 26L7 25L8 25L8 24L9 24L9 27L12 27L12 26L13 26L13 29L15 29L15 30L13 30L13 31L12 31L12 33L14 33L14 34L15 34L15 33L16 33L16 34L17 34L17 33L18 33L18 32L19 32L19 33L20 33L20 35L19 35L19 34L18 34L18 35L14 35L14 38L13 38L13 37L12 37L12 36L13 36L13 35L11 35L11 34L10 34L10 33L11 33L11 32L10 32L10 33L9 33L9 32L8 32L8 31L5 31L5 32L8 32L8 33L6 33L6 34L9 34L9 35L8 35L8 36L7 36L7 35L5 35L5 33L3 33L3 32L4 32L4 31L3 31L3 32L1 32L1 33L2 33L2 34L3 34L3 36L4 36L4 37L5 37L5 36L7 36L7 37L6 37L6 38L3 38L3 39L1 39L1 41L2 41L2 40L3 40L3 39L4 39L4 40L7 40L7 41L5 41L5 42L4 42L4 44L3 44L3 47L5 47L5 45L4 45L4 44L5 44L5 42L7 42L7 43L6 43L6 44L7 44L7 45L6 45L6 46L7 46L7 47L8 47L8 48L9 48L9 47L8 47L8 46L10 46L10 45L12 45L12 47L13 47L13 45L12 45L12 44L13 44L13 43L14 43L14 42L15 42L15 43L16 43L16 42L17 42L17 41L16 41L16 40L17 40L17 39L18 39L18 40L19 40L19 41L20 41L20 43L18 43L18 44L19 44L19 45L18 45L18 46L19 46L19 47L20 47L20 48L21 48L21 46L22 46L22 48L23 48L23 49L24 49L24 51L23 51L23 52L24 52L24 51L25 51L25 52L26 52L26 49L25 49L25 48L24 48L24 46L26 46L26 48L27 48L27 47L28 47L28 48L29 48L29 47L30 47L30 48L31 48L31 47L30 47L30 46L32 46L32 47L33 47L33 46L32 46L32 40L33 40L33 41L34 41L34 42L35 42L35 41L36 41L36 43L35 43L35 44L33 44L33 45L34 45L34 48L33 48L33 49L32 49L32 51L31 51L31 52L32 52L32 51L33 51L33 49L34 49L34 50L35 50L35 51L34 51L34 52L35 52L35 53L34 53L34 54L35 54L35 53L36 53L36 54L37 54L37 53L38 53L38 52L39 52L39 53L40 53L40 52L39 52L39 49L40 49L40 51L41 51L41 49L42 49L42 50L43 50L43 49L44 49L44 48L46 48L46 51L47 51L47 52L48 52L48 51L47 51L47 48L46 48L46 47L47 47L47 46L49 46L49 47L50 47L50 48L53 48L53 47L50 47L50 46L51 46L51 45L50 45L50 42L49 42L49 41L51 41L51 40L52 40L52 39L53 39L53 38L54 38L54 36L53 36L53 37L52 37L52 39L51 39L51 40L50 40L50 37L51 37L51 36L50 36L50 33L49 33L49 36L48 36L48 37L47 37L47 36L46 36L46 34L48 34L48 33L47 33L47 29L48 29L48 28L46 28L46 29L45 29L45 30L44 30L44 27L43 27L43 25L44 25L44 26L45 26L45 27L46 27L46 26L47 26L47 25L46 25L46 24L47 24L47 23L48 23L48 22L50 22L50 26L51 26L51 25L52 25L52 23L54 23L54 24L53 24L53 25L54 25L54 26L55 26L55 27L54 27L54 28L53 28L53 30L54 30L54 32L55 32L55 31L56 31L56 30L55 30L55 28L56 28L56 24L55 24L55 23L56 23L56 21L55 21L55 23L54 23L54 21L53 21L53 22L52 22L52 20L53 20L53 19L54 19L54 16L55 16L55 15L54 15L54 16L53 16L53 18L52 18L52 15L53 15L53 14L52 14L52 13L50 13L50 10L49 10L49 9L48 9L48 10L49 10L49 12L48 12L48 11L47 11L47 9L46 9L46 8L45 8L45 7L46 7L46 5L47 5L47 3L46 3L46 5L44 5L44 4L43 4L43 5L42 5L42 4L41 4L41 2L40 2L40 1ZM39 2L39 4L38 4L38 5L39 5L39 4L40 4L40 2ZM16 3L16 4L17 4L17 3ZM35 3L35 4L36 4L36 3ZM9 5L9 7L10 7L10 6L11 6L11 7L12 7L12 6L11 6L11 5ZM13 5L13 7L14 7L14 6L15 6L15 5ZM16 5L16 6L17 6L17 5ZM27 5L27 8L30 8L30 5ZM41 5L41 6L40 6L40 7L39 7L39 6L38 6L38 8L37 8L37 6L36 6L36 10L34 10L34 11L37 11L37 12L36 12L36 14L35 14L35 15L34 15L34 17L33 17L33 16L32 16L32 17L31 17L31 16L30 16L30 15L29 15L29 16L30 16L30 17L28 17L28 18L30 18L30 17L31 17L31 19L30 19L30 20L28 20L28 19L27 19L27 18L24 18L24 15L25 15L25 17L26 17L26 15L27 15L27 14L26 14L26 15L25 15L25 14L23 14L23 16L22 16L22 14L21 14L21 16L18 16L18 15L17 15L17 18L19 18L19 19L20 19L20 17L21 17L21 18L22 18L22 19L23 19L23 20L22 20L22 21L21 21L21 20L20 20L20 21L21 21L21 22L20 22L20 23L21 23L21 30L20 30L20 29L19 29L19 30L17 30L17 31L16 31L16 30L15 30L15 31L14 31L14 33L15 33L15 31L16 31L16 33L17 33L17 31L19 31L19 30L20 30L20 33L21 33L21 30L22 30L22 33L23 33L23 34L21 34L21 35L20 35L20 36L19 36L19 35L18 35L18 37L19 37L19 40L20 40L20 41L21 41L21 39L23 39L23 38L21 38L21 35L25 35L25 36L24 36L24 37L25 37L25 36L26 36L26 35L25 35L25 34L24 34L24 32L23 32L23 30L24 30L24 31L25 31L25 30L26 30L26 34L28 34L28 35L27 35L27 36L28 36L28 37L29 37L29 36L28 36L28 35L31 35L31 36L30 36L30 40L27 40L27 39L26 39L26 38L27 38L27 37L26 37L26 38L24 38L24 39L26 39L26 40L25 40L25 41L26 41L26 42L25 42L25 43L24 43L24 40L22 40L22 41L23 41L23 43L22 43L22 44L23 44L23 43L24 43L24 44L25 44L25 45L26 45L26 46L28 46L28 47L29 47L29 46L30 46L30 45L29 45L29 44L30 44L30 43L31 43L31 42L30 42L30 40L31 40L31 38L34 38L34 41L35 41L35 38L36 38L36 41L37 41L37 42L38 42L38 41L39 41L39 40L40 40L40 41L41 41L41 42L40 42L40 43L37 43L37 44L36 44L36 45L35 45L35 47L36 47L36 45L37 45L37 46L38 46L38 45L37 45L37 44L40 44L40 46L41 46L41 47L40 47L40 49L41 49L41 47L42 47L42 45L43 45L43 44L44 44L44 46L43 46L43 47L46 47L46 44L47 44L47 45L49 45L49 42L48 42L48 44L47 44L47 43L45 43L45 44L44 44L44 41L45 41L45 39L46 39L46 41L48 41L48 40L49 40L49 37L50 37L50 36L49 36L49 37L48 37L48 40L47 40L47 38L46 38L46 37L45 37L45 34L46 34L46 32L45 32L45 31L46 31L46 30L45 30L45 31L44 31L44 30L43 30L43 31L42 31L42 28L43 28L43 27L42 27L42 24L44 24L44 25L45 25L45 26L46 26L46 25L45 25L45 24L44 24L44 23L46 23L46 20L47 20L47 22L48 22L48 20L51 20L51 18L50 18L50 17L51 17L51 15L52 15L52 14L51 14L51 15L50 15L50 13L49 13L49 14L48 14L48 12L47 12L47 11L46 11L46 13L45 13L45 12L44 12L44 10L45 10L45 8L44 8L44 10L42 10L42 9L41 9L41 8L42 8L42 7L43 7L43 6L44 6L44 7L45 7L45 6L44 6L44 5L43 5L43 6L42 6L42 5ZM24 6L24 7L25 7L25 6ZM28 6L28 7L29 7L29 6ZM41 6L41 7L40 7L40 8L38 8L38 10L39 10L39 11L40 11L40 10L41 10L41 12L42 12L42 15L41 15L41 14L40 14L40 15L39 15L39 13L40 13L40 12L37 12L37 13L38 13L38 15L37 15L37 14L36 14L36 15L35 15L35 17L34 17L34 18L33 18L33 20L34 20L34 22L35 22L35 23L36 23L36 24L34 24L34 23L33 23L33 24L34 24L34 26L33 26L33 25L32 25L32 23L31 23L31 22L33 22L33 21L32 21L32 20L31 20L31 21L30 21L30 23L31 23L31 25L30 25L30 26L31 26L31 25L32 25L32 27L31 27L31 29L32 29L32 28L33 28L33 29L34 29L34 31L33 31L33 30L32 30L32 31L31 31L31 32L30 32L30 31L28 31L28 32L27 32L27 33L28 33L28 34L29 34L29 32L30 32L30 34L32 34L32 31L33 31L33 32L34 32L34 34L35 34L35 33L36 33L36 35L35 35L35 36L34 36L34 38L35 38L35 37L36 37L36 38L37 38L37 41L38 41L38 38L39 38L39 39L40 39L40 40L41 40L41 39L40 39L40 38L39 38L39 36L40 36L40 35L41 35L41 36L42 36L42 39L43 39L43 38L44 38L44 34L45 34L45 33L44 33L44 34L43 34L43 33L42 33L42 31L41 31L41 30L40 30L40 26L41 26L41 25L40 25L40 26L39 26L39 23L41 23L41 24L42 24L42 23L41 23L41 22L40 22L40 19L41 19L41 18L40 18L40 15L41 15L41 17L42 17L42 18L43 18L43 17L44 17L44 19L42 19L42 20L43 20L43 21L42 21L42 22L43 22L43 23L44 23L44 22L45 22L45 21L44 21L44 19L45 19L45 20L46 20L46 19L47 19L47 20L48 20L48 19L49 19L49 17L50 17L50 16L49 16L49 17L48 17L48 16L47 16L47 15L48 15L48 14L47 14L47 13L46 13L46 15L45 15L45 13L44 13L44 12L42 12L42 10L41 10L41 9L40 9L40 8L41 8L41 7L42 7L42 6ZM39 9L39 10L40 10L40 9ZM24 10L24 12L25 12L25 13L26 13L26 11L25 11L25 10ZM14 11L14 12L15 12L15 11ZM20 11L20 12L21 12L21 11ZM22 11L22 12L23 12L23 11ZM2 13L2 16L3 16L3 13ZM11 13L11 15L12 15L12 13ZM4 14L4 16L5 16L5 14ZM43 14L43 16L44 16L44 17L45 17L45 18L46 18L46 16L44 16L44 14ZM36 15L36 18L34 18L34 19L35 19L35 20L36 20L36 21L35 21L35 22L36 22L36 23L38 23L38 20L39 20L39 19L40 19L40 18L38 18L38 16L37 16L37 15ZM6 17L6 18L7 18L7 17ZM47 17L47 19L48 19L48 17ZM2 18L2 19L3 19L3 18ZM36 18L36 19L37 19L37 18ZM24 19L24 20L25 20L25 19ZM26 19L26 20L27 20L27 22L26 22L26 23L28 23L28 24L27 24L27 25L26 25L26 26L28 26L28 24L29 24L29 23L28 23L28 22L29 22L29 21L28 21L28 20L27 20L27 19ZM6 20L6 21L7 21L7 20ZM18 20L18 21L19 21L19 20ZM22 21L22 24L23 24L23 25L24 25L24 26L23 26L23 27L22 27L22 28L23 28L23 29L22 29L22 30L23 30L23 29L24 29L24 30L25 30L25 29L24 29L24 28L23 28L23 27L24 27L24 26L25 26L25 25L24 25L24 24L23 24L23 21ZM36 21L36 22L37 22L37 21ZM43 21L43 22L44 22L44 21ZM24 22L24 23L25 23L25 22ZM51 22L51 23L52 23L52 22ZM6 24L6 25L7 25L7 24ZM10 24L10 25L11 25L11 26L12 26L12 25L11 25L11 24ZM13 24L13 26L16 26L16 25L15 25L15 24ZM18 24L18 25L19 25L19 27L18 27L18 28L20 28L20 24ZM36 24L36 26L37 26L37 27L36 27L36 30L37 30L37 31L36 31L36 33L37 33L37 34L38 34L38 36L37 36L37 35L36 35L36 37L37 37L37 38L38 38L38 36L39 36L39 34L38 34L38 33L39 33L39 32L40 32L40 34L42 34L42 33L41 33L41 32L40 32L40 30L39 30L39 31L38 31L38 30L37 30L37 28L38 28L38 29L39 29L39 26L38 26L38 25L37 25L37 24ZM3 25L3 26L4 26L4 25ZM48 25L48 26L49 26L49 25ZM5 27L5 30L8 30L8 27ZM14 27L14 28L16 28L16 27ZM27 27L27 30L30 30L30 27ZM34 27L34 29L35 29L35 27ZM49 27L49 30L52 30L52 27ZM2 28L2 30L4 30L4 29L3 29L3 28ZM6 28L6 29L7 29L7 28ZM9 28L9 30L12 30L12 29L10 29L10 28ZM28 28L28 29L29 29L29 28ZM50 28L50 29L51 29L51 28ZM37 31L37 32L38 32L38 31ZM49 31L49 32L50 32L50 31ZM4 35L4 36L5 36L5 35ZM9 35L9 36L11 36L11 35ZM42 35L42 36L43 36L43 35ZM0 36L0 37L1 37L1 36ZM16 36L16 37L17 37L17 36ZM22 36L22 37L23 37L23 36ZM31 36L31 37L32 37L32 36ZM7 37L7 38L6 38L6 39L7 39L7 40L8 40L8 41L7 41L7 42L9 42L9 44L12 44L12 43L13 43L13 42L14 42L14 41L15 41L15 42L16 42L16 41L15 41L15 40L14 40L14 41L12 41L12 40L13 40L13 38L12 38L12 40L10 40L10 38L11 38L11 37L10 37L10 38L9 38L9 37ZM8 38L8 40L9 40L9 42L10 42L10 43L12 43L12 42L10 42L10 40L9 40L9 38ZM14 38L14 39L15 39L15 38ZM16 38L16 39L17 39L17 38ZM20 38L20 39L21 39L21 38ZM28 38L28 39L29 39L29 38ZM28 41L28 43L27 43L27 45L28 45L28 46L29 46L29 45L28 45L28 43L30 43L30 42L29 42L29 41ZM42 41L42 42L41 42L41 45L42 45L42 44L43 44L43 43L42 43L42 42L43 42L43 41ZM54 41L54 42L55 42L55 43L56 43L56 42L55 42L55 41ZM20 43L20 44L21 44L21 43ZM7 45L7 46L8 46L8 45ZM14 45L14 46L15 46L15 45ZM23 45L23 46L24 46L24 45ZM37 47L37 48L36 48L36 49L37 49L37 51L35 51L35 52L36 52L36 53L37 53L37 51L38 51L38 47ZM14 48L14 49L15 49L15 48ZM34 48L34 49L35 49L35 48ZM27 49L27 52L30 52L30 49ZM49 49L49 52L52 52L52 49ZM28 50L28 51L29 51L29 50ZM44 50L44 51L45 51L45 50ZM50 50L50 51L51 51L51 50ZM11 51L11 52L12 52L12 51ZM17 52L17 53L18 53L18 52ZM27 53L27 55L28 55L28 53ZM16 54L16 55L17 55L17 54ZM20 54L20 55L21 55L21 54ZM40 54L40 56L42 56L42 55L41 55L41 54ZM53 54L53 55L54 55L54 54ZM11 56L11 57L12 57L12 56ZM36 56L36 57L37 57L37 56ZM44 56L44 57L46 57L46 56ZM47 56L47 57L48 57L48 56ZM56 56L56 57L57 57L57 56ZM0 0L0 7L7 7L7 0ZM1 1L1 6L6 6L6 1ZM2 2L2 5L5 5L5 2ZM50 0L50 7L57 7L57 0ZM51 1L51 6L56 6L56 1ZM52 2L52 5L55 5L55 2ZM0 50L0 57L7 57L7 50ZM1 51L1 56L6 56L6 51ZM2 52L2 55L5 55L5 52Z" fill="#000000"/></g></g></svg>
