<?xml version="1.0" encoding="UTF-8"?>
<svg xmlns="http://www.w3.org/2000/svg" version="1.1" width="300" height="300" viewBox="0 0 300 300"><rect x="0" y="0" width="300" height="300" fill="#fefefe"/><g transform="scale(4.615)"><g transform="translate(4,4)"><path fill-rule="evenodd" d="M8 0L8 1L10 1L10 4L9 4L9 2L8 2L8 5L9 5L9 6L8 6L8 7L9 7L9 6L10 6L10 8L11 8L11 9L13 9L13 10L9 10L9 11L8 11L8 9L9 9L9 8L8 8L8 9L7 9L7 8L6 8L6 9L4 9L4 8L0 8L0 10L1 10L1 11L2 11L2 12L3 12L3 13L2 13L2 14L3 14L3 13L5 13L5 14L6 14L6 15L7 15L7 14L8 14L8 16L6 16L6 17L7 17L7 18L6 18L6 19L5 19L5 21L3 21L3 22L2 22L2 21L1 21L1 22L0 22L0 24L2 24L2 28L1 28L1 29L0 29L0 32L1 32L1 29L2 29L2 31L5 31L5 32L2 32L2 33L1 33L1 34L0 34L0 36L1 36L1 37L2 37L2 38L1 38L1 40L0 40L0 41L2 41L2 42L0 42L0 44L1 44L1 45L0 45L0 48L5 48L5 47L7 47L7 48L6 48L6 49L8 49L8 50L9 50L9 49L10 49L10 51L9 51L9 52L10 52L10 51L11 51L11 52L12 52L12 53L8 53L8 57L9 57L9 55L10 55L10 57L11 57L11 55L12 55L12 53L13 53L13 52L14 52L14 54L13 54L13 56L12 56L12 57L18 57L18 55L20 55L20 56L19 56L19 57L20 57L20 56L21 56L21 57L23 57L23 54L26 54L26 55L27 55L27 56L28 56L28 55L27 55L27 53L29 53L29 54L31 54L31 55L30 55L30 56L31 56L31 57L32 57L32 55L33 55L33 54L36 54L36 55L34 55L34 56L33 56L33 57L36 57L36 55L37 55L37 54L36 54L36 53L35 53L35 52L36 52L36 51L39 51L39 50L40 50L40 49L39 49L39 48L38 48L38 49L37 49L37 48L35 48L35 47L38 47L38 45L39 45L39 46L40 46L40 47L43 47L43 50L44 50L44 48L48 48L48 52L47 52L47 50L46 50L46 49L45 49L45 50L46 50L46 52L45 52L45 51L40 51L40 52L39 52L39 54L38 54L38 57L41 57L41 56L42 56L42 57L43 57L43 55L44 55L44 56L45 56L45 55L44 55L44 54L46 54L46 55L49 55L49 57L51 57L51 54L52 54L52 53L53 53L53 55L55 55L55 54L56 54L56 53L57 53L57 52L55 52L55 50L53 50L53 48L54 48L54 49L55 49L55 48L54 48L54 47L57 47L57 44L52 44L52 43L53 43L53 42L54 42L54 43L56 43L56 41L57 41L57 40L56 40L56 41L55 41L55 42L54 42L54 41L53 41L53 40L55 40L55 39L53 39L53 38L52 38L52 36L53 36L53 37L55 37L55 38L56 38L56 39L57 39L57 38L56 38L56 37L57 37L57 31L56 31L56 30L57 30L57 29L56 29L56 24L54 24L54 23L57 23L57 21L56 21L56 20L57 20L57 19L56 19L56 17L57 17L57 15L55 15L55 14L54 14L54 10L52 10L52 11L53 11L53 13L52 13L52 12L51 12L51 10L50 10L50 8L49 8L49 6L48 6L48 8L47 8L47 10L45 10L45 11L47 11L47 12L48 12L48 11L49 11L49 16L48 16L48 14L47 14L47 17L45 17L45 16L46 16L46 15L45 15L45 16L44 16L44 15L43 15L43 14L42 14L42 17L41 17L41 18L39 18L39 19L40 19L40 20L38 20L38 19L36 19L36 20L34 20L34 21L35 21L35 22L38 22L38 21L39 21L39 23L41 23L41 25L40 25L40 27L38 27L38 26L39 26L39 24L38 24L38 23L37 23L37 24L36 24L36 23L35 23L35 24L33 24L33 22L32 22L32 23L31 23L31 20L32 20L32 19L31 19L31 20L30 20L30 17L29 17L29 16L31 16L31 17L32 17L32 18L33 18L33 19L35 19L35 17L34 17L34 16L35 16L35 15L36 15L36 13L37 13L37 15L39 15L39 17L40 17L40 16L41 16L41 13L40 13L40 14L39 14L39 10L38 10L38 9L41 9L41 10L40 10L40 11L42 11L42 12L43 12L43 13L44 13L44 14L46 14L46 13L44 13L44 12L43 12L43 11L44 11L44 9L43 9L43 8L40 8L40 7L41 7L41 4L43 4L43 5L42 5L42 7L43 7L43 5L45 5L45 6L44 6L44 8L45 8L45 9L46 9L46 8L45 8L45 6L46 6L46 7L47 7L47 5L48 5L48 0L45 0L45 1L44 1L44 2L42 2L42 3L41 3L41 4L39 4L39 2L37 2L37 1L38 1L38 0L37 0L37 1L36 1L36 0L35 0L35 1L34 1L34 2L31 2L31 4L30 4L30 1L31 1L31 0L29 0L29 1L27 1L27 2L28 2L28 3L29 3L29 4L26 4L26 1L25 1L25 0L23 0L23 1L22 1L22 0L21 0L21 2L20 2L20 3L23 3L23 4L22 4L22 5L23 5L23 6L22 6L22 8L21 8L21 9L23 9L23 10L20 10L20 9L19 9L19 10L20 10L20 11L19 11L19 12L18 12L18 10L17 10L17 12L16 12L16 11L14 11L14 9L13 9L13 8L14 8L14 7L15 7L15 6L16 6L16 7L17 7L17 9L18 9L18 8L20 8L20 7L21 7L21 5L20 5L20 4L19 4L19 2L18 2L18 1L16 1L16 3L17 3L17 5L15 5L15 4L14 4L14 3L13 3L13 2L12 2L12 0ZM14 0L14 1L15 1L15 0ZM19 0L19 1L20 1L20 0ZM39 0L39 1L40 1L40 2L41 2L41 1L43 1L43 0L41 0L41 1L40 1L40 0ZM23 1L23 3L24 3L24 2L25 2L25 1ZM35 1L35 2L36 2L36 1ZM46 1L46 2L45 2L45 3L44 3L44 4L45 4L45 5L47 5L47 3L46 3L46 2L47 2L47 1ZM11 2L11 3L12 3L12 4L10 4L10 5L11 5L11 7L12 7L12 8L13 8L13 7L14 7L14 6L13 6L13 7L12 7L12 5L14 5L14 4L13 4L13 3L12 3L12 2ZM32 3L32 4L31 4L31 5L32 5L32 6L31 6L31 9L32 9L32 10L30 10L30 11L28 11L28 10L29 10L29 9L28 9L28 10L26 10L26 11L25 11L25 12L23 12L23 11L21 11L21 12L20 12L20 13L21 13L21 15L20 15L20 14L19 14L19 13L18 13L18 12L17 12L17 13L16 13L16 12L15 12L15 15L16 15L16 16L17 16L17 15L18 15L18 17L19 17L19 18L17 18L17 19L16 19L16 17L15 17L15 18L13 18L13 19L15 19L15 20L14 20L14 22L15 22L15 23L16 23L16 24L18 24L18 23L16 23L16 20L17 20L17 19L20 19L20 18L21 18L21 20L18 20L18 21L17 21L17 22L18 22L18 21L19 21L19 22L21 22L21 23L20 23L20 24L21 24L21 25L23 25L23 26L24 26L24 27L22 27L22 26L19 26L19 25L18 25L18 26L19 26L19 27L16 27L16 26L17 26L17 25L16 25L16 26L15 26L15 25L14 25L14 23L10 23L10 24L12 24L12 25L11 25L11 26L10 26L10 28L11 28L11 26L13 26L13 25L14 25L14 26L15 26L15 27L13 27L13 29L12 29L12 30L14 30L14 31L15 31L15 32L13 32L13 31L11 31L11 30L10 30L10 29L9 29L9 30L10 30L10 31L9 31L9 32L7 32L7 31L6 31L6 32L7 32L7 33L5 33L5 35L2 35L2 34L4 34L4 33L2 33L2 34L1 34L1 35L2 35L2 36L3 36L3 37L4 37L4 36L7 36L7 37L6 37L6 38L5 38L5 39L4 39L4 38L2 38L2 39L4 39L4 40L5 40L5 39L6 39L6 40L8 40L8 42L7 42L7 41L5 41L5 42L4 42L4 41L3 41L3 45L1 45L1 47L2 47L2 46L3 46L3 47L5 47L5 46L7 46L7 47L8 47L8 46L7 46L7 45L5 45L5 46L4 46L4 43L5 43L5 44L7 44L7 43L8 43L8 44L9 44L9 47L10 47L10 48L11 48L11 49L12 49L12 52L13 52L13 50L14 50L14 48L17 48L17 47L19 47L19 49L18 49L18 51L17 51L17 52L16 52L16 51L14 51L14 52L15 52L15 53L16 53L16 54L17 54L17 53L18 53L18 54L19 54L19 52L20 52L20 50L19 50L19 49L20 49L20 48L21 48L21 50L22 50L22 49L23 49L23 52L22 52L22 53L20 53L20 55L22 55L22 53L23 53L23 52L24 52L24 53L25 53L25 52L26 52L26 51L24 51L24 50L26 50L26 48L28 48L28 47L27 47L27 46L26 46L26 45L27 45L27 44L28 44L28 46L29 46L29 47L30 47L30 48L32 48L32 49L31 49L31 53L32 53L32 49L34 49L34 50L33 50L33 51L35 51L35 49L34 49L34 46L37 46L37 45L38 45L38 44L41 44L41 42L40 42L40 41L42 41L42 42L43 42L43 43L42 43L42 45L43 45L43 47L46 47L46 46L47 46L47 45L49 45L49 46L48 46L48 47L49 47L49 46L51 46L51 47L50 47L50 48L51 48L51 47L52 47L52 46L54 46L54 45L52 45L52 44L51 44L51 42L50 42L50 41L52 41L52 40L50 40L50 41L47 41L47 40L49 40L49 39L47 39L47 40L46 40L46 41L44 41L44 40L43 40L43 41L42 41L42 40L41 40L41 39L40 39L40 41L37 41L37 40L38 40L38 39L39 39L39 38L37 38L37 37L38 37L38 36L37 36L37 37L35 37L35 36L36 36L36 35L34 35L34 36L32 36L32 35L31 35L31 34L30 34L30 35L29 35L29 33L30 33L30 32L29 32L29 31L26 31L26 32L25 32L25 30L26 30L26 28L25 28L25 25L29 25L29 26L31 26L31 24L29 24L29 22L28 22L28 21L27 21L27 20L29 20L29 21L30 21L30 20L29 20L29 19L28 19L28 18L29 18L29 17L26 17L26 16L27 16L27 15L26 15L26 14L27 14L27 13L26 13L26 12L28 12L28 13L30 13L30 14L31 14L31 12L32 12L32 13L33 13L33 10L34 10L34 11L35 11L35 12L34 12L34 14L33 14L33 15L31 15L31 16L33 16L33 15L35 15L35 12L36 12L36 11L37 11L37 12L38 12L38 10L37 10L37 8L39 8L39 7L40 7L40 5L38 5L38 6L37 6L37 5L36 5L36 4L34 4L34 3ZM37 3L37 4L38 4L38 3ZM24 4L24 6L23 6L23 7L24 7L24 8L23 8L23 9L24 9L24 8L25 8L25 9L26 9L26 6L25 6L25 5L26 5L26 4ZM17 5L17 7L18 7L18 5ZM27 5L27 8L30 8L30 5ZM33 5L33 6L32 6L32 8L33 8L33 6L34 6L34 9L36 9L36 8L37 8L37 6L36 6L36 7L35 7L35 6L34 6L34 5ZM19 6L19 7L20 7L20 6ZM24 6L24 7L25 7L25 6ZM28 6L28 7L29 7L29 6ZM38 6L38 7L39 7L39 6ZM52 8L52 9L55 9L55 8ZM56 8L56 9L57 9L57 8ZM3 9L3 11L4 11L4 12L7 12L7 13L6 13L6 14L7 14L7 13L8 13L8 14L9 14L9 17L8 17L8 19L6 19L6 20L8 20L8 22L7 22L7 21L5 21L5 22L3 22L3 23L2 23L2 22L1 22L1 23L2 23L2 24L3 24L3 26L4 26L4 23L5 23L5 22L7 22L7 23L6 23L6 24L5 24L5 26L7 26L7 25L6 25L6 24L9 24L9 22L10 22L10 21L11 21L11 22L13 22L13 21L12 21L12 19L11 19L11 20L9 20L9 17L10 17L10 18L12 18L12 17L13 17L13 16L14 16L14 15L10 15L10 14L9 14L9 13L10 13L10 12L12 12L12 14L14 14L14 13L13 13L13 11L10 11L10 12L8 12L8 11L4 11L4 9ZM6 9L6 10L7 10L7 9ZM35 10L35 11L36 11L36 10ZM42 10L42 11L43 11L43 10ZM47 10L47 11L48 11L48 10ZM55 10L55 12L57 12L57 10ZM30 11L30 12L31 12L31 11ZM0 12L0 14L1 14L1 12ZM22 12L22 13L23 13L23 12ZM50 12L50 13L51 13L51 15L50 15L50 16L49 16L49 17L48 17L48 18L46 18L46 20L45 20L45 19L44 19L44 18L45 18L45 17L42 17L42 18L41 18L41 19L42 19L42 18L43 18L43 21L44 21L44 22L45 22L45 23L44 23L44 25L41 25L41 26L43 26L43 27L42 27L42 28L43 28L43 29L42 29L42 30L41 30L41 27L40 27L40 30L39 30L39 29L38 29L38 30L36 30L36 29L37 29L37 28L34 28L34 29L35 29L35 31L33 31L33 29L32 29L32 30L31 30L31 31L33 31L33 32L31 32L31 33L34 33L34 34L35 34L35 31L37 31L37 32L36 32L36 33L37 33L37 32L38 32L38 34L39 34L39 31L40 31L40 32L41 32L41 31L44 31L44 33L45 33L45 34L46 34L46 36L44 36L44 37L43 37L43 35L44 35L44 34L43 34L43 35L42 35L42 34L41 34L41 35L39 35L39 36L40 36L40 37L41 37L41 35L42 35L42 38L44 38L44 39L46 39L46 38L47 38L47 37L49 37L49 36L47 36L47 34L48 34L48 35L49 35L49 34L50 34L50 33L49 33L49 32L51 32L51 31L49 31L49 32L48 32L48 27L47 27L47 31L46 31L46 32L47 32L47 33L45 33L45 30L46 30L46 27L45 27L45 26L44 26L44 25L45 25L45 24L48 24L48 23L49 23L49 24L50 24L50 25L52 25L52 26L53 26L53 27L55 27L55 25L54 25L54 24L51 24L51 23L52 23L52 22L51 22L51 21L50 21L50 20L53 20L53 21L54 21L54 22L53 22L53 23L54 23L54 22L56 22L56 21L54 21L54 20L56 20L56 19L52 19L52 18L54 18L54 17L53 17L53 14L52 14L52 13L51 13L51 12ZM25 13L25 14L26 14L26 13ZM16 14L16 15L17 15L17 14ZM18 14L18 15L19 15L19 14ZM23 14L23 18L24 18L24 19L25 19L25 22L24 22L24 21L23 21L23 20L21 20L21 21L22 21L22 23L21 23L21 24L24 24L24 25L25 25L25 22L27 22L27 23L26 23L26 24L27 24L27 23L28 23L28 22L27 22L27 21L26 21L26 20L27 20L27 19L25 19L25 18L24 18L24 17L25 17L25 16L26 16L26 15L24 15L24 14ZM3 15L3 16L4 16L4 15ZM28 15L28 16L29 16L29 15ZM51 15L51 16L50 16L50 17L51 17L51 18L52 18L52 15ZM0 16L0 17L1 17L1 18L0 18L0 20L4 20L4 18L5 18L5 17L4 17L4 18L3 18L3 17L2 17L2 16ZM20 16L20 17L21 17L21 18L22 18L22 17L21 17L21 16ZM36 17L36 18L37 18L37 17ZM47 19L47 20L48 20L48 21L47 21L47 22L46 22L46 23L47 23L47 22L49 22L49 20L50 20L50 19ZM36 20L36 21L37 21L37 20ZM41 20L41 21L42 21L42 20ZM42 23L42 24L43 24L43 23ZM32 24L32 25L33 25L33 24ZM0 25L0 27L1 27L1 25ZM34 25L34 27L35 27L35 25ZM46 25L46 26L49 26L49 25ZM3 27L3 28L4 28L4 27ZM5 27L5 30L8 30L8 27ZM27 27L27 30L30 30L30 27ZM32 27L32 28L33 28L33 27ZM43 27L43 28L44 28L44 29L45 29L45 27ZM49 27L49 30L52 30L52 27ZM6 28L6 29L7 29L7 28ZM14 28L14 29L16 29L16 30L15 30L15 31L16 31L16 32L17 32L17 34L16 34L16 35L17 35L17 34L18 34L18 36L17 36L17 37L19 37L19 39L18 39L18 38L15 38L15 37L14 37L14 36L13 36L13 37L12 37L12 35L13 35L13 34L14 34L14 35L15 35L15 33L13 33L13 32L11 32L11 33L12 33L12 35L11 35L11 34L10 34L10 37L9 37L9 35L7 35L7 34L6 34L6 35L7 35L7 36L8 36L8 38L6 38L6 39L9 39L9 40L10 40L10 39L11 39L11 40L12 40L12 38L15 38L15 39L13 39L13 41L14 41L14 40L16 40L16 39L17 39L17 41L15 41L15 43L16 43L16 44L14 44L14 43L12 43L12 41L11 41L11 43L9 43L9 44L10 44L10 47L11 47L11 48L14 48L14 47L12 47L12 46L13 46L13 44L14 44L14 46L15 46L15 45L16 45L16 44L17 44L17 42L18 42L18 43L19 43L19 45L17 45L17 46L16 46L16 47L17 47L17 46L19 46L19 47L20 47L20 45L21 45L21 46L22 46L22 47L21 47L21 48L23 48L23 49L24 49L24 48L25 48L25 47L24 47L24 46L25 46L25 45L26 45L26 43L24 43L24 44L25 44L25 45L23 45L23 46L22 46L22 44L23 44L23 42L24 42L24 41L25 41L25 42L29 42L29 43L28 43L28 44L29 44L29 43L31 43L31 44L30 44L30 45L29 45L29 46L30 46L30 45L31 45L31 46L32 46L32 47L33 47L33 46L32 46L32 42L33 42L33 45L34 45L34 44L35 44L35 45L36 45L36 44L35 44L35 43L34 43L34 42L36 42L36 41L34 41L34 40L35 40L35 39L36 39L36 38L35 38L35 39L34 39L34 37L33 37L33 38L32 38L32 36L29 36L29 35L28 35L28 34L27 34L27 35L26 35L26 37L27 37L27 36L29 36L29 38L26 38L26 39L27 39L27 40L26 40L26 41L25 41L25 39L24 39L24 37L25 37L25 36L23 36L23 39L24 39L24 40L23 40L23 41L22 41L22 39L21 39L21 38L22 38L22 37L21 37L21 38L20 38L20 37L19 37L19 34L20 34L20 35L22 35L22 33L23 33L23 35L24 35L24 34L25 34L25 32L24 32L24 33L23 33L23 31L24 31L24 29L25 29L25 28L23 28L23 29L21 29L21 30L23 30L23 31L22 31L22 32L21 32L21 31L19 31L19 32L20 32L20 33L18 33L18 32L17 32L17 28ZM18 28L18 29L20 29L20 28ZM28 28L28 29L29 29L29 28ZM50 28L50 29L51 29L51 28ZM53 28L53 31L52 31L52 34L54 34L54 33L53 33L53 31L54 31L54 32L55 32L55 30L56 30L56 29L54 29L54 28ZM3 29L3 30L4 30L4 29ZM38 30L38 31L39 31L39 30ZM26 32L26 33L28 33L28 32ZM42 32L42 33L43 33L43 32ZM8 33L8 34L9 34L9 33ZM20 33L20 34L21 34L21 33ZM51 35L51 36L50 36L50 37L51 37L51 36L52 36L52 35ZM54 35L54 36L55 36L55 35ZM11 37L11 38L12 38L12 37ZM45 37L45 38L46 38L46 37ZM9 38L9 39L10 39L10 38ZM30 38L30 39L28 39L28 41L30 41L30 42L31 42L31 41L30 41L30 40L33 40L33 39L32 39L32 38ZM50 38L50 39L51 39L51 38ZM18 40L18 41L19 41L19 43L21 43L21 44L22 44L22 41L20 41L20 40ZM9 41L9 42L10 42L10 41ZM46 41L46 43L45 43L45 42L44 42L44 44L47 44L47 43L48 43L48 44L49 44L49 45L51 45L51 44L49 44L49 43L50 43L50 42L47 42L47 41ZM5 42L5 43L7 43L7 42ZM37 42L37 44L38 44L38 43L39 43L39 42ZM1 43L1 44L2 44L2 43ZM11 44L11 46L12 46L12 44ZM44 45L44 46L45 46L45 45ZM55 45L55 46L56 46L56 45ZM23 47L23 48L24 48L24 47ZM41 48L41 49L42 49L42 48ZM56 48L56 49L57 49L57 48ZM16 49L16 50L17 50L17 49ZM27 49L27 52L30 52L30 49ZM36 49L36 50L37 50L37 49ZM49 49L49 52L52 52L52 49ZM28 50L28 51L29 51L29 50ZM50 50L50 51L51 51L51 50ZM33 52L33 53L34 53L34 52ZM40 52L40 54L41 54L41 53L42 53L42 54L43 54L43 52ZM46 52L46 53L47 53L47 54L50 54L50 53L47 53L47 52ZM54 52L54 54L55 54L55 52ZM10 54L10 55L11 55L11 54ZM14 54L14 55L15 55L15 54ZM24 55L24 56L25 56L25 55ZM39 55L39 56L41 56L41 55ZM56 55L56 56L57 56L57 55ZM47 56L47 57L48 57L48 56ZM52 56L52 57L55 57L55 56ZM0 0L0 7L7 7L7 0ZM1 1L1 6L6 6L6 1ZM2 2L2 5L5 5L5 2ZM50 0L50 7L57 7L57 0ZM51 1L51 6L56 6L56 1ZM52 2L52 5L55 5L55 2ZM0 50L0 57L7 57L7 50ZM1 51L1 56L6 56L6 51ZM2 52L2 55L5 55L5 52Z" fill="#000000"/></g></g></svg>
