<?xml version="1.0" encoding="UTF-8"?>
<svg xmlns="http://www.w3.org/2000/svg" version="1.1" width="300" height="300" viewBox="0 0 300 300"><rect x="0" y="0" width="300" height="300" fill="#fefefe"/><g transform="scale(4.615)"><g transform="translate(4,4)"><path fill-rule="evenodd" d="M8 0L8 4L9 4L9 5L8 5L8 7L9 7L9 9L10 9L10 10L8 10L8 11L7 11L7 10L6 10L6 11L5 11L5 9L7 9L7 8L4 8L4 12L3 12L3 9L2 9L2 8L0 8L0 10L2 10L2 11L0 11L0 15L1 15L1 16L0 16L0 19L1 19L1 16L2 16L2 18L4 18L4 15L5 15L5 17L8 17L8 16L9 16L9 17L11 17L11 20L13 20L13 21L14 21L14 23L16 23L16 22L17 22L17 24L16 24L16 25L14 25L14 26L11 26L11 27L9 27L9 26L10 26L10 25L11 25L11 24L12 24L12 25L13 25L13 24L12 24L12 23L13 23L13 22L12 22L12 21L10 21L10 22L11 22L11 23L9 23L9 24L10 24L10 25L9 25L9 26L6 26L6 25L7 25L7 24L6 24L6 25L3 25L3 24L5 24L5 21L4 21L4 20L5 20L5 19L4 19L4 20L1 20L1 21L0 21L0 22L2 22L2 21L4 21L4 22L3 22L3 23L2 23L2 25L3 25L3 26L4 26L4 27L3 27L3 28L4 28L4 29L2 29L2 26L1 26L1 30L0 30L0 33L1 33L1 34L0 34L0 38L1 38L1 39L2 39L2 40L3 40L3 41L1 41L1 40L0 40L0 41L1 41L1 42L0 42L0 43L2 43L2 45L1 45L1 44L0 44L0 45L1 45L1 46L0 46L0 48L5 48L5 47L7 47L7 46L8 46L8 47L9 47L9 46L10 46L10 47L12 47L12 49L13 49L13 47L12 47L12 45L11 45L11 42L13 42L13 43L12 43L12 44L13 44L13 43L14 43L14 45L13 45L13 46L14 46L14 47L15 47L15 48L14 48L14 50L12 50L12 51L11 51L11 50L9 50L9 49L10 49L10 48L9 48L9 49L8 49L8 48L6 48L6 49L8 49L8 50L9 50L9 51L8 51L8 53L9 53L9 51L11 51L11 52L13 52L13 53L14 53L14 54L15 54L15 55L13 55L13 54L12 54L12 53L10 53L10 54L9 54L9 55L8 55L8 57L9 57L9 55L10 55L10 54L12 54L12 56L14 56L14 57L15 57L15 55L16 55L16 54L17 54L17 57L19 57L19 56L18 56L18 54L19 54L19 55L20 55L20 54L22 54L22 51L23 51L23 52L24 52L24 53L23 53L23 55L22 55L22 56L23 56L23 57L25 57L25 55L26 55L26 54L27 54L27 53L28 53L28 57L29 57L29 55L30 55L30 57L34 57L34 55L35 55L35 57L37 57L37 56L36 56L36 54L37 54L37 53L38 53L38 55L40 55L40 56L39 56L39 57L40 57L40 56L41 56L41 57L43 57L43 55L44 55L44 53L45 53L45 56L44 56L44 57L45 57L45 56L46 56L46 57L47 57L47 56L46 56L46 55L47 55L47 54L49 54L49 55L48 55L48 57L50 57L50 55L51 55L51 56L53 56L53 57L54 57L54 55L53 55L53 54L54 54L54 53L55 53L55 54L57 54L57 51L56 51L56 50L57 50L57 49L56 49L56 45L57 45L57 44L56 44L56 45L55 45L55 46L54 46L54 47L55 47L55 49L53 49L53 47L50 47L50 46L52 46L52 45L54 45L54 44L53 44L53 43L54 43L54 42L55 42L55 43L56 43L56 42L57 42L57 40L54 40L54 41L53 41L53 38L54 38L54 39L57 39L57 38L55 38L55 36L56 36L56 37L57 37L57 36L56 36L56 34L57 34L57 33L56 33L56 30L55 30L55 29L57 29L57 28L56 28L56 27L55 27L55 29L54 29L54 28L53 28L53 27L54 27L54 26L55 26L55 24L56 24L56 25L57 25L57 24L56 24L56 21L57 21L57 19L56 19L56 18L57 18L57 15L56 15L56 13L57 13L57 12L55 12L55 16L56 16L56 18L55 18L55 19L56 19L56 21L55 21L55 24L53 24L53 26L51 26L51 25L52 25L52 22L54 22L54 21L52 21L52 20L53 20L53 19L51 19L51 17L52 17L52 18L53 18L53 17L52 17L52 16L53 16L53 15L54 15L54 14L53 14L53 13L54 13L54 12L53 12L53 13L52 13L52 14L51 14L51 12L52 12L52 11L54 11L54 10L52 10L52 11L50 11L50 10L51 10L51 9L52 9L52 8L51 8L51 9L50 9L50 10L49 10L49 9L47 9L47 11L48 11L48 12L49 12L49 11L50 11L50 15L48 15L48 17L47 17L47 22L48 22L48 24L50 24L50 23L51 23L51 25L50 25L50 26L49 26L49 25L47 25L47 26L46 26L46 24L47 24L47 23L46 23L46 24L44 24L44 25L42 25L42 24L43 24L43 23L44 23L44 22L46 22L46 17L45 17L45 16L46 16L46 11L45 11L45 9L46 9L46 7L47 7L47 5L48 5L48 0L46 0L46 1L47 1L47 2L45 2L45 0L41 0L41 1L40 1L40 2L38 2L38 1L39 1L39 0L38 0L38 1L37 1L37 2L36 2L36 0L35 0L35 1L34 1L34 0L33 0L33 1L32 1L32 0L29 0L29 1L28 1L28 0L26 0L26 1L28 1L28 2L29 2L29 3L28 3L28 4L26 4L26 3L25 3L25 0L23 0L23 1L22 1L22 3L21 3L21 6L20 6L20 5L19 5L19 6L18 6L18 4L17 4L17 2L15 2L15 3L16 3L16 4L17 4L17 6L16 6L16 5L15 5L15 4L14 4L14 1L16 1L16 0L14 0L14 1L12 1L12 0L11 0L11 2L9 2L9 0ZM17 0L17 1L19 1L19 3L20 3L20 1L21 1L21 0L20 0L20 1L19 1L19 0ZM29 1L29 2L31 2L31 3L32 3L32 5L33 5L33 7L32 7L32 6L31 6L31 10L30 10L30 11L31 11L31 12L29 12L29 9L26 9L26 6L25 6L25 7L24 7L24 6L23 6L23 7L24 7L24 8L22 8L22 6L21 6L21 8L22 8L22 9L21 9L21 11L22 11L22 12L23 12L23 13L21 13L21 14L20 14L20 9L18 9L18 8L19 8L19 7L20 7L20 6L19 6L19 7L18 7L18 6L17 6L17 9L16 9L16 8L15 8L15 9L16 9L16 10L17 10L17 9L18 9L18 11L16 11L16 12L17 12L17 13L15 13L15 12L14 12L14 11L12 11L12 10L14 10L14 8L12 8L12 10L11 10L11 11L12 11L12 12L13 12L13 13L11 13L11 12L10 12L10 11L9 11L9 12L7 12L7 11L6 11L6 12L4 12L4 13L2 13L2 12L1 12L1 13L2 13L2 14L3 14L3 15L4 15L4 14L5 14L5 15L6 15L6 16L8 16L8 13L9 13L9 15L10 15L10 16L13 16L13 17L12 17L12 19L14 19L14 20L15 20L15 21L17 21L17 17L18 17L18 18L20 18L20 16L21 16L21 17L26 17L26 18L24 18L24 19L23 19L23 18L22 18L22 19L23 19L23 20L21 20L21 21L24 21L24 22L25 22L25 23L26 23L26 22L27 22L27 23L28 23L28 25L27 25L27 26L29 26L29 23L30 23L30 22L29 22L29 23L28 23L28 22L27 22L27 21L26 21L26 20L27 20L27 19L29 19L29 20L28 20L28 21L30 21L30 20L31 20L31 21L32 21L32 20L31 20L31 19L30 19L30 18L28 18L28 17L26 17L26 16L27 16L27 15L28 15L28 14L26 14L26 13L29 13L29 16L31 16L31 18L32 18L32 19L34 19L34 20L33 20L33 21L34 21L34 22L35 22L35 23L34 23L34 24L33 24L33 25L34 25L34 26L33 26L33 27L32 27L32 23L33 23L33 22L31 22L31 31L32 31L32 32L30 32L30 31L29 31L29 33L28 33L28 34L27 34L27 32L26 32L26 31L24 31L24 32L23 32L23 31L22 31L22 30L23 30L23 28L22 28L22 27L21 27L21 26L20 26L20 25L23 25L23 24L24 24L24 23L23 23L23 24L22 24L22 22L20 22L20 23L19 23L19 22L18 22L18 23L19 23L19 26L20 26L20 28L18 28L18 29L15 29L15 30L18 30L18 31L17 31L17 32L16 32L16 31L14 31L14 30L11 30L11 34L12 34L12 33L13 33L13 35L10 35L10 36L12 36L12 37L11 37L11 38L12 38L12 39L11 39L11 40L12 40L12 39L14 39L14 40L13 40L13 41L14 41L14 42L15 42L15 44L16 44L16 46L15 46L15 47L16 47L16 46L17 46L17 47L18 47L18 48L19 48L19 46L17 46L17 45L18 45L18 44L19 44L19 45L21 45L21 46L20 46L20 48L22 48L22 49L21 49L21 50L20 50L20 49L19 49L19 51L21 51L21 50L22 50L22 49L23 49L23 48L24 48L24 49L25 49L25 53L24 53L24 54L26 54L26 48L27 48L27 47L28 47L28 48L29 48L29 47L30 47L30 48L31 48L31 49L32 49L32 50L31 50L31 52L32 52L32 51L34 51L34 52L33 52L33 53L32 53L32 54L33 54L33 53L34 53L34 54L35 54L35 53L34 53L34 52L36 52L36 49L34 49L34 50L33 50L33 49L32 49L32 48L34 48L34 47L36 47L36 48L37 48L37 47L36 47L36 46L35 46L35 45L34 45L34 47L33 47L33 46L32 46L32 45L31 45L31 41L32 41L32 43L33 43L33 44L37 44L37 46L38 46L38 45L39 45L39 46L40 46L40 51L38 51L38 49L39 49L39 47L38 47L38 49L37 49L37 51L38 51L38 53L39 53L39 52L40 52L40 53L44 53L44 52L41 52L41 46L40 46L40 45L41 45L41 43L40 43L40 42L41 42L41 41L42 41L42 40L40 40L40 38L38 38L38 37L41 37L41 35L42 35L42 36L43 36L43 37L44 37L44 38L43 38L43 39L45 39L45 40L46 40L46 43L45 43L45 42L44 42L44 40L43 40L43 42L42 42L42 44L43 44L43 45L44 45L44 44L45 44L45 45L46 45L46 47L47 47L47 49L46 49L46 50L44 50L44 48L45 48L45 46L44 46L44 47L42 47L42 49L43 49L43 50L42 50L42 51L43 51L43 50L44 50L44 51L46 51L46 52L45 52L45 53L46 53L46 54L47 54L47 53L48 53L48 52L47 52L47 51L46 51L46 50L47 50L47 49L48 49L48 47L49 47L49 44L50 44L50 43L51 43L51 44L52 44L52 43L53 43L53 41L52 41L52 38L53 38L53 36L55 36L55 35L53 35L53 34L54 34L54 33L55 33L55 34L56 34L56 33L55 33L55 30L54 30L54 29L53 29L53 31L52 31L52 32L53 32L53 33L51 33L51 32L50 32L50 35L49 35L49 33L48 33L48 31L47 31L47 30L48 30L48 26L47 26L47 27L45 27L45 30L44 30L44 28L42 28L42 26L41 26L41 23L43 23L43 22L44 22L44 16L45 16L45 15L44 15L44 14L45 14L45 13L44 13L44 12L45 12L45 11L43 11L43 12L41 12L41 10L40 10L40 9L43 9L43 10L44 10L44 8L40 8L40 6L41 6L41 7L42 7L42 6L43 6L43 7L44 7L44 4L45 4L45 7L46 7L46 5L47 5L47 3L44 3L44 2L43 2L43 3L44 3L44 4L43 4L43 5L39 5L39 8L38 8L38 4L40 4L40 3L42 3L42 2L40 2L40 3L36 3L36 2L35 2L35 4L34 4L34 5L33 5L33 3L34 3L34 1L33 1L33 3L32 3L32 1ZM11 2L11 4L10 4L10 3L9 3L9 4L10 4L10 5L11 5L11 4L12 4L12 2ZM23 3L23 5L24 5L24 4L25 4L25 3ZM35 4L35 5L34 5L34 7L33 7L33 8L32 8L32 14L31 14L31 13L30 13L30 15L33 15L33 16L32 16L32 17L33 17L33 18L34 18L34 19L36 19L36 20L35 20L35 22L37 22L37 23L38 23L38 22L39 22L39 21L40 21L40 22L43 22L43 21L40 21L40 18L41 18L41 20L43 20L43 19L42 19L42 18L43 18L43 17L42 17L42 15L43 15L43 16L44 16L44 15L43 15L43 14L44 14L44 13L40 13L40 10L39 10L39 9L40 9L40 8L39 8L39 9L38 9L38 8L37 8L37 5L36 5L36 4ZM12 5L12 6L11 6L11 7L12 7L12 6L13 6L13 7L14 7L14 6L15 6L15 7L16 7L16 6L15 6L15 5L14 5L14 6L13 6L13 5ZM27 5L27 8L30 8L30 5ZM35 5L35 7L34 7L34 8L33 8L33 9L34 9L34 10L33 10L33 13L34 13L34 18L37 18L37 22L38 22L38 19L39 19L39 18L40 18L40 17L41 17L41 15L40 15L40 17L39 17L39 15L38 15L38 13L39 13L39 14L40 14L40 13L39 13L39 12L37 12L37 14L36 14L36 13L35 13L35 12L34 12L34 10L36 10L36 11L39 11L39 10L38 10L38 9L35 9L35 7L36 7L36 5ZM9 6L9 7L10 7L10 6ZM28 6L28 7L29 7L29 6ZM48 6L48 7L49 7L49 6ZM53 8L53 9L55 9L55 11L56 11L56 10L57 10L57 8ZM23 9L23 12L25 12L25 13L23 13L23 15L22 15L22 14L21 14L21 15L22 15L22 16L23 16L23 15L25 15L25 16L26 16L26 15L25 15L25 13L26 13L26 11L27 11L27 12L28 12L28 11L27 11L27 10L25 10L25 9ZM6 12L6 13L5 13L5 14L6 14L6 15L7 15L7 14L6 14L6 13L7 13L7 12ZM9 12L9 13L10 13L10 12ZM18 12L18 13L17 13L17 14L15 14L15 13L13 13L13 14L12 14L12 15L13 15L13 14L14 14L14 18L15 18L15 19L16 19L16 18L15 18L15 17L17 17L17 14L19 14L19 16L18 16L18 17L19 17L19 16L20 16L20 14L19 14L19 12ZM47 13L47 14L49 14L49 13ZM10 14L10 15L11 15L11 14ZM52 14L52 15L50 15L50 16L52 16L52 15L53 15L53 14ZM35 15L35 17L38 17L38 18L39 18L39 17L38 17L38 16L37 16L37 15ZM49 17L49 19L50 19L50 17ZM6 18L6 19L7 19L7 18ZM9 18L9 20L6 20L6 21L8 21L8 22L6 22L6 23L8 23L8 22L9 22L9 20L10 20L10 18ZM26 18L26 19L25 19L25 20L24 20L24 21L25 21L25 20L26 20L26 19L27 19L27 18ZM19 19L19 21L20 21L20 19ZM49 20L49 21L51 21L51 22L52 22L52 21L51 21L51 20ZM49 22L49 23L50 23L50 22ZM34 24L34 25L37 25L37 24ZM39 24L39 25L38 25L38 26L39 26L39 27L37 27L37 26L36 26L36 27L35 27L35 29L37 29L37 30L35 30L35 31L34 31L34 27L33 27L33 28L32 28L32 29L33 29L33 31L34 31L34 32L35 32L35 34L34 34L34 33L33 33L33 32L32 32L32 35L31 35L31 36L30 36L30 34L31 34L31 33L29 33L29 34L28 34L28 36L26 36L26 35L27 35L27 34L26 34L26 32L25 32L25 33L23 33L23 34L21 34L21 33L22 33L22 31L21 31L21 33L20 33L20 32L17 32L17 33L18 33L18 34L17 34L17 35L16 35L16 36L15 36L15 35L14 35L14 36L15 36L15 37L13 37L13 38L14 38L14 39L15 39L15 40L14 40L14 41L15 41L15 42L16 42L16 43L18 43L18 41L20 41L20 43L21 43L21 45L23 45L23 47L22 47L22 46L21 46L21 47L22 47L22 48L23 48L23 47L25 47L25 46L26 46L26 47L27 47L27 46L26 46L26 45L29 45L29 44L30 44L30 43L29 43L29 44L27 44L27 43L23 43L23 44L22 44L22 43L21 43L21 41L22 41L22 40L23 40L23 42L26 42L26 41L27 41L27 42L28 42L28 41L27 41L27 40L30 40L30 41L29 41L29 42L30 42L30 41L31 41L31 39L33 39L33 40L32 40L32 41L33 41L33 43L37 43L37 44L39 44L39 45L40 45L40 43L39 43L39 41L40 41L40 40L39 40L39 39L38 39L38 42L37 42L37 39L35 39L35 42L34 42L34 37L35 37L35 38L37 38L37 36L38 36L38 34L39 34L39 33L40 33L40 34L42 34L42 35L44 35L44 37L45 37L45 38L46 38L46 39L47 39L47 40L51 40L51 39L47 39L47 38L49 38L49 37L51 37L51 38L52 38L52 37L51 37L51 36L53 36L53 35L50 35L50 36L49 36L49 35L48 35L48 34L47 34L47 35L46 35L46 33L47 33L47 32L46 32L46 33L45 33L45 31L46 31L46 30L45 30L45 31L43 31L43 29L40 29L40 28L41 28L41 26L40 26L40 24ZM16 25L16 28L17 28L17 27L18 27L18 26L17 26L17 25ZM25 25L25 26L23 26L23 27L26 27L26 25ZM43 26L43 27L44 27L44 26ZM5 27L5 30L8 30L8 27ZM12 27L12 28L11 28L11 29L14 29L14 28L13 28L13 27ZM27 27L27 30L30 30L30 27ZM36 27L36 28L37 28L37 29L38 29L38 28L37 28L37 27ZM49 27L49 30L52 30L52 27ZM6 28L6 29L7 29L7 28ZM9 28L9 29L10 29L10 28ZM28 28L28 29L29 29L29 28ZM46 28L46 29L47 29L47 28ZM50 28L50 29L51 29L51 28ZM18 29L18 30L19 30L19 31L20 31L20 30L22 30L22 29L20 29L20 30L19 30L19 29ZM25 29L25 30L26 30L26 29ZM39 29L39 30L40 30L40 31L39 31L39 32L40 32L40 33L41 33L41 32L40 32L40 31L41 31L41 30L40 30L40 29ZM37 30L37 32L38 32L38 30ZM2 31L2 35L1 35L1 36L2 36L2 37L1 37L1 38L3 38L3 40L4 40L4 39L5 39L5 40L7 40L7 39L8 39L8 41L6 41L6 42L8 42L8 43L6 43L6 44L7 44L7 45L4 45L4 44L5 44L5 42L3 42L3 43L4 43L4 44L3 44L3 47L5 47L5 46L7 46L7 45L10 45L10 42L11 42L11 41L9 41L9 39L10 39L10 38L9 38L9 39L8 39L8 38L7 38L7 37L6 37L6 36L7 36L7 35L9 35L9 34L8 34L8 33L6 33L6 32L8 32L8 31L6 31L6 32L4 32L4 31ZM13 31L13 32L14 32L14 34L16 34L16 33L15 33L15 32L14 32L14 31ZM3 32L3 33L4 33L4 32ZM19 33L19 35L20 35L20 36L21 36L21 35L20 35L20 33ZM37 33L37 34L38 34L38 33ZM43 33L43 34L44 34L44 35L45 35L45 36L46 36L46 35L45 35L45 34L44 34L44 33ZM3 34L3 38L5 38L5 37L4 37L4 35L5 35L5 36L6 36L6 35L7 35L7 34ZM24 34L24 36L25 36L25 37L26 37L26 36L25 36L25 35L26 35L26 34ZM33 35L33 37L32 37L32 36L31 36L31 37L29 37L29 36L28 36L28 37L27 37L27 39L26 39L26 38L24 38L24 37L23 37L23 36L22 36L22 38L23 38L23 39L24 39L24 41L25 41L25 40L27 40L27 39L28 39L28 38L29 38L29 39L31 39L31 38L33 38L33 37L34 37L34 36L35 36L35 35ZM39 35L39 36L40 36L40 35ZM47 35L47 37L46 37L46 38L47 38L47 37L48 37L48 35ZM8 36L8 37L9 37L9 36ZM16 36L16 37L15 37L15 39L16 39L16 38L17 38L17 41L16 41L16 40L15 40L15 41L16 41L16 42L17 42L17 41L18 41L18 40L19 40L19 39L20 39L20 38L21 38L21 37L19 37L19 38L17 38L17 36ZM6 38L6 39L7 39L7 38ZM41 38L41 39L42 39L42 38ZM21 39L21 40L22 40L22 39ZM8 41L8 42L9 42L9 41ZM48 41L48 43L47 43L47 44L46 44L46 45L47 45L47 44L49 44L49 43L50 43L50 42L49 42L49 41ZM51 41L51 43L52 43L52 41ZM55 41L55 42L56 42L56 41ZM8 43L8 44L9 44L9 43ZM43 43L43 44L44 44L44 43ZM24 44L24 45L25 45L25 44ZM30 45L30 46L31 46L31 45ZM1 46L1 47L2 47L2 46ZM47 46L47 47L48 47L48 46ZM16 48L16 50L15 50L15 51L13 51L13 52L15 52L15 53L17 53L17 52L15 52L15 51L17 51L17 48ZM27 49L27 52L30 52L30 49ZM49 49L49 52L52 52L52 49ZM28 50L28 51L29 51L29 50ZM34 50L34 51L35 51L35 50ZM50 50L50 51L51 51L51 50ZM53 50L53 53L54 53L54 52L55 52L55 53L56 53L56 52L55 52L55 51L54 51L54 50ZM19 52L19 53L20 53L20 52ZM46 52L46 53L47 53L47 52ZM30 53L30 54L31 54L31 53ZM49 53L49 54L51 54L51 55L52 55L52 54L51 54L51 53ZM40 54L40 55L41 55L41 56L42 56L42 55L43 55L43 54ZM23 55L23 56L24 56L24 55ZM26 56L26 57L27 57L27 56ZM56 56L56 57L57 57L57 56ZM0 0L0 7L7 7L7 0ZM1 1L1 6L6 6L6 1ZM2 2L2 5L5 5L5 2ZM50 0L50 7L57 7L57 0ZM51 1L51 6L56 6L56 1ZM52 2L52 5L55 5L55 2ZM0 50L0 57L7 57L7 50ZM1 51L1 56L6 56L6 51ZM2 52L2 55L5 55L5 52Z" fill="#000000"/></g></g></svg>
