<?xml version="1.0" encoding="UTF-8"?>
<svg xmlns="http://www.w3.org/2000/svg" version="1.1" width="300" height="300" viewBox="0 0 300 300"><rect x="0" y="0" width="300" height="300" fill="#fefefe"/><g transform="scale(4.615)"><g transform="translate(4,4)"><path fill-rule="evenodd" d="M8 0L8 1L9 1L9 2L8 2L8 5L10 5L10 8L11 8L11 10L12 10L12 9L13 9L13 12L12 12L12 14L13 14L13 15L11 15L11 17L10 17L10 16L9 16L9 18L11 18L11 19L7 19L7 18L8 18L8 17L7 17L7 16L6 16L6 15L7 15L7 14L5 14L5 13L10 13L10 12L11 12L11 11L10 11L10 10L9 10L9 8L8 8L8 9L7 9L7 8L6 8L6 9L7 9L7 10L6 10L6 11L7 11L7 10L9 10L9 11L8 11L8 12L5 12L5 11L4 11L4 10L5 10L5 9L4 9L4 8L0 8L0 9L1 9L1 10L0 10L0 12L1 12L1 13L2 13L2 14L1 14L1 15L0 15L0 17L1 17L1 18L0 18L0 19L1 19L1 20L0 20L0 24L1 24L1 25L2 25L2 29L0 29L0 35L1 35L1 34L2 34L2 36L0 36L0 37L2 37L2 38L4 38L4 39L2 39L2 41L1 41L1 44L2 44L2 45L3 45L3 46L2 46L2 47L1 47L1 45L0 45L0 48L5 48L5 47L7 47L7 48L6 48L6 49L8 49L8 50L9 50L9 49L10 49L10 47L12 47L12 48L11 48L11 49L12 49L12 51L11 51L11 52L9 52L9 53L8 53L8 57L14 57L14 56L16 56L16 57L18 57L18 56L19 56L19 57L20 57L20 56L21 56L21 57L24 57L24 56L26 56L26 54L25 54L25 53L29 53L29 54L31 54L31 55L30 55L30 56L31 56L31 57L32 57L32 55L33 55L33 54L36 54L36 55L34 55L34 56L33 56L33 57L36 57L36 55L38 55L38 57L39 57L39 56L40 56L40 57L41 57L41 54L42 54L42 57L43 57L43 55L44 55L44 54L47 54L47 55L46 55L46 56L47 56L47 57L51 57L51 54L52 54L52 53L54 53L54 52L56 52L56 53L55 53L55 54L56 54L56 53L57 53L57 51L55 51L55 50L53 50L53 48L54 48L54 45L56 45L56 46L55 46L55 47L57 47L57 45L56 45L56 44L53 44L53 48L51 48L51 45L50 45L50 46L49 46L49 43L50 43L50 42L51 42L51 44L52 44L52 43L53 43L53 42L54 42L54 43L56 43L56 42L54 42L54 41L55 41L55 39L53 39L53 38L52 38L52 36L53 36L53 37L55 37L55 38L56 38L56 39L57 39L57 38L56 38L56 37L57 37L57 31L56 31L56 30L57 30L57 28L56 28L56 24L54 24L54 23L57 23L57 19L56 19L56 17L57 17L57 15L51 15L51 13L52 13L52 14L55 14L55 13L54 13L54 10L52 10L52 11L53 11L53 13L52 13L52 12L51 12L51 10L50 10L50 8L49 8L49 6L48 6L48 8L49 8L49 9L47 9L47 10L46 10L46 11L47 11L47 10L49 10L49 17L51 17L51 18L52 18L52 19L56 19L56 20L54 20L54 21L53 21L53 20L50 20L50 19L49 19L49 18L48 18L48 17L47 17L47 16L48 16L48 14L47 14L47 16L46 16L46 15L45 15L45 16L44 16L44 15L43 15L43 14L42 14L42 17L41 17L41 18L39 18L39 19L40 19L40 20L39 20L39 23L42 23L42 24L43 24L43 26L42 26L42 27L41 27L41 25L40 25L40 26L39 26L39 24L38 24L38 23L37 23L37 24L36 24L36 23L35 23L35 24L33 24L33 22L32 22L32 23L29 23L29 22L31 22L31 21L29 21L29 20L32 20L32 19L30 19L30 17L29 17L29 16L31 16L31 17L33 17L33 20L34 20L34 21L35 21L35 22L38 22L38 21L36 21L36 20L37 20L37 19L36 19L36 20L34 20L34 19L35 19L35 17L34 17L34 16L35 16L35 15L36 15L36 13L37 13L37 15L39 15L39 17L40 17L40 16L41 16L41 15L39 15L39 10L40 10L40 11L42 11L42 12L43 12L43 13L44 13L44 14L46 14L46 13L44 13L44 12L43 12L43 11L42 11L42 10L43 10L43 8L45 8L45 6L44 6L44 7L43 7L43 5L45 5L45 4L44 4L44 3L45 3L45 2L46 2L46 3L47 3L47 5L46 5L46 7L47 7L47 5L48 5L48 0L45 0L45 1L44 1L44 2L42 2L42 3L41 3L41 4L38 4L38 3L39 3L39 2L37 2L37 1L38 1L38 0L37 0L37 1L36 1L36 0L35 0L35 1L34 1L34 2L35 2L35 4L36 4L36 5L40 5L40 7L41 7L41 6L42 6L42 7L43 7L43 8L38 8L38 7L39 7L39 6L38 6L38 7L37 7L37 6L36 6L36 7L35 7L35 6L34 6L34 5L33 5L33 6L32 6L32 5L31 5L31 4L32 4L32 3L33 3L33 0L28 0L28 1L27 1L27 2L28 2L28 1L29 1L29 2L30 2L30 3L31 3L31 4L26 4L26 1L25 1L25 0L23 0L23 1L25 1L25 2L24 2L24 3L23 3L23 4L22 4L22 2L21 2L21 1L22 1L22 0L21 0L21 1L20 1L20 2L21 2L21 5L20 5L20 4L19 4L19 2L16 2L16 1L15 1L15 2L16 2L16 3L17 3L17 5L15 5L15 4L14 4L14 3L13 3L13 2L12 2L12 1L11 1L11 2L12 2L12 3L10 3L10 0ZM13 0L13 1L14 1L14 0ZM17 0L17 1L18 1L18 0ZM39 0L39 1L40 1L40 2L41 2L41 1L43 1L43 0L41 0L41 1L40 1L40 0ZM35 1L35 2L36 2L36 1ZM46 1L46 2L47 2L47 1ZM12 3L12 5L11 5L11 4L10 4L10 5L11 5L11 7L12 7L12 8L13 8L13 9L14 9L14 11L15 11L15 15L14 15L14 16L13 16L13 17L12 17L12 18L13 18L13 19L12 19L12 20L13 20L13 19L15 19L15 20L14 20L14 24L10 24L10 22L9 22L9 20L8 20L8 22L7 22L7 21L5 21L5 20L7 20L7 19L5 19L5 18L7 18L7 17L5 17L5 16L4 16L4 17L5 17L5 18L3 18L3 17L2 17L2 16L1 16L1 17L2 17L2 18L3 18L3 19L2 19L2 20L1 20L1 21L2 21L2 20L3 20L3 21L4 21L4 22L3 22L3 23L2 23L2 25L3 25L3 23L4 23L4 22L7 22L7 23L5 23L5 25L6 25L6 26L7 26L7 25L6 25L6 24L8 24L8 23L9 23L9 25L8 25L8 26L9 26L9 29L10 29L10 28L11 28L11 26L9 26L9 25L13 25L13 26L12 26L12 27L13 27L13 28L12 28L12 29L11 29L11 32L10 32L10 30L9 30L9 32L10 32L10 33L11 33L11 32L12 32L12 33L13 33L13 34L10 34L10 35L9 35L9 33L8 33L8 31L6 31L6 32L7 32L7 33L5 33L5 32L4 32L4 30L3 30L3 29L4 29L4 28L3 28L3 29L2 29L2 31L1 31L1 33L2 33L2 34L3 34L3 33L2 33L2 32L4 32L4 36L7 36L7 37L5 37L5 38L7 38L7 39L6 39L6 40L5 40L5 39L4 39L4 41L3 41L3 42L2 42L2 43L3 43L3 44L4 44L4 45L5 45L5 46L3 46L3 47L5 47L5 46L7 46L7 47L10 47L10 45L9 45L9 44L12 44L12 45L11 45L11 46L13 46L13 48L12 48L12 49L13 49L13 50L17 50L17 51L16 51L16 52L15 52L15 53L14 53L14 52L13 52L13 51L12 51L12 52L11 52L11 53L9 53L9 56L10 56L10 55L12 55L12 54L11 54L11 53L12 53L12 52L13 52L13 53L14 53L14 54L13 54L13 56L14 56L14 54L15 54L15 53L16 53L16 54L17 54L17 56L18 56L18 54L19 54L19 49L16 49L16 48L14 48L14 47L15 47L15 46L16 46L16 47L17 47L17 48L18 48L18 47L19 47L19 48L20 48L20 49L21 49L21 50L20 50L20 51L21 51L21 52L22 52L22 53L23 53L23 52L24 52L24 53L25 53L25 52L26 52L26 49L25 49L25 48L29 48L29 47L30 47L30 48L31 48L31 46L32 46L32 45L33 45L33 47L32 47L32 49L33 49L33 50L32 50L32 51L31 51L31 53L32 53L32 51L33 51L33 52L34 52L34 53L36 53L36 54L37 54L37 52L40 52L40 54L41 54L41 52L42 52L42 51L43 51L43 50L44 50L44 49L46 49L46 50L47 50L47 52L46 52L46 53L47 53L47 52L48 52L48 48L46 48L46 46L47 46L47 45L48 45L48 44L43 44L43 43L44 43L44 41L43 41L43 39L42 39L42 40L41 40L41 39L39 39L39 38L37 38L37 37L38 37L38 36L37 36L37 37L34 37L34 38L33 38L33 36L32 36L32 33L33 33L33 34L34 34L34 36L36 36L36 35L35 35L35 33L33 33L33 32L31 32L31 34L30 34L30 35L29 35L29 33L30 33L30 32L28 32L28 33L27 33L27 31L26 31L26 33L25 33L25 34L24 34L24 35L22 35L22 36L21 36L21 33L20 33L20 30L21 30L21 32L22 32L22 31L23 31L23 33L22 33L22 34L23 34L23 33L24 33L24 31L25 31L25 30L26 30L26 28L25 28L25 25L27 25L27 26L31 26L31 25L30 25L30 24L28 24L28 22L25 22L25 21L27 21L27 20L28 20L28 18L29 18L29 17L26 17L26 18L25 18L25 17L24 17L24 18L23 18L23 16L24 16L24 14L25 14L25 15L26 15L26 16L27 16L27 15L26 15L26 14L27 14L27 13L26 13L26 12L28 12L28 13L30 13L30 14L31 14L31 12L32 12L32 13L33 13L33 12L32 12L32 11L33 11L33 10L34 10L34 11L35 11L35 10L36 10L36 12L38 12L38 11L37 11L37 9L38 9L38 10L39 10L39 9L38 9L38 8L36 8L36 9L34 9L34 6L33 6L33 8L32 8L32 6L31 6L31 9L32 9L32 10L31 10L31 12L30 12L30 11L28 11L28 10L26 10L26 11L25 11L25 13L22 13L22 12L24 12L24 11L20 11L20 10L21 10L21 7L22 7L22 8L23 8L23 9L22 9L22 10L23 10L23 9L24 9L24 8L25 8L25 9L26 9L26 6L25 6L25 5L26 5L26 4L24 4L24 6L23 6L23 5L22 5L22 6L21 6L21 7L20 7L20 6L19 6L19 7L20 7L20 10L19 10L19 8L18 8L18 9L17 9L17 7L18 7L18 6L17 6L17 7L16 7L16 6L15 6L15 8L13 8L13 7L14 7L14 6L13 6L13 7L12 7L12 5L14 5L14 4L13 4L13 3ZM42 4L42 5L43 5L43 4ZM27 5L27 8L30 8L30 5ZM8 6L8 7L9 7L9 6ZM22 6L22 7L23 7L23 8L24 8L24 7L25 7L25 6L24 6L24 7L23 7L23 6ZM28 6L28 7L29 7L29 6ZM15 8L15 9L16 9L16 8ZM52 8L52 9L55 9L55 8ZM56 8L56 9L57 9L57 8ZM44 9L44 10L45 10L45 9ZM2 10L2 11L3 11L3 14L4 14L4 13L5 13L5 12L4 12L4 11L3 11L3 10ZM15 10L15 11L16 11L16 10ZM17 10L17 12L16 12L16 13L17 13L17 12L18 12L18 13L19 13L19 15L17 15L17 14L16 14L16 15L15 15L15 16L14 16L14 18L15 18L15 19L16 19L16 18L17 18L17 19L18 19L18 18L17 18L17 17L16 17L16 15L17 15L17 16L19 16L19 15L20 15L20 14L21 14L21 13L20 13L20 11L19 11L19 12L18 12L18 10ZM55 10L55 11L56 11L56 12L57 12L57 10ZM34 12L34 14L33 14L33 15L32 15L32 16L33 16L33 15L35 15L35 12ZM50 12L50 13L51 13L51 12ZM13 13L13 14L14 14L14 13ZM25 13L25 14L26 14L26 13ZM40 13L40 14L41 14L41 13ZM8 14L8 15L9 15L9 14ZM28 15L28 16L29 16L29 15ZM45 16L45 17L42 17L42 18L41 18L41 19L42 19L42 20L41 20L41 21L42 21L42 20L43 20L43 21L44 21L44 22L45 22L45 19L46 19L46 20L47 20L47 21L46 21L46 22L47 22L47 23L46 23L46 26L45 26L45 23L43 23L43 22L42 22L42 23L43 23L43 24L44 24L44 26L43 26L43 27L42 27L42 28L43 28L43 29L42 29L42 30L41 30L41 27L39 27L39 26L38 26L38 27L39 27L39 28L40 28L40 30L39 30L39 29L38 29L38 30L36 30L36 31L37 31L37 32L36 32L36 33L37 33L37 32L38 32L38 34L39 34L39 31L40 31L40 32L41 32L41 31L43 31L43 30L44 30L44 33L45 33L45 34L46 34L46 35L45 35L45 36L44 36L44 37L42 37L42 38L44 38L44 39L45 39L45 41L46 41L46 39L45 39L45 36L46 36L46 35L47 35L47 37L46 37L46 38L47 38L47 37L48 37L48 39L47 39L47 40L50 40L50 41L47 41L47 42L48 42L48 43L49 43L49 42L50 42L50 41L52 41L52 40L50 40L50 39L51 39L51 37L49 37L49 36L48 36L48 35L47 35L47 34L50 34L50 33L49 33L49 32L48 32L48 30L47 30L47 31L45 31L45 30L46 30L46 26L47 26L47 27L48 27L48 26L49 26L49 25L51 25L51 26L53 26L53 27L55 27L55 25L54 25L54 24L48 24L48 26L47 26L47 23L52 23L52 22L51 22L51 21L50 21L50 20L49 20L49 19L48 19L48 18L47 18L47 19L46 19L46 16ZM52 16L52 17L53 17L53 18L54 18L54 17L55 17L55 16ZM21 17L21 19L20 19L20 18L19 18L19 19L20 19L20 20L21 20L21 22L18 22L18 20L16 20L16 23L15 23L15 25L14 25L14 26L16 26L16 23L17 23L17 27L14 27L14 28L13 28L13 32L15 32L15 33L14 33L14 34L13 34L13 35L15 35L15 33L16 33L16 30L17 30L17 27L19 27L19 28L18 28L18 29L21 29L21 30L23 30L23 31L24 31L24 29L21 29L21 27L19 27L19 26L18 26L18 25L20 25L20 26L22 26L22 27L23 27L23 25L25 25L25 22L24 22L24 21L23 21L23 20L22 20L22 19L23 19L23 18L22 18L22 17ZM36 17L36 18L37 18L37 17ZM24 18L24 19L25 19L25 20L27 20L27 19L25 19L25 18ZM42 18L42 19L43 19L43 18ZM44 18L44 19L45 19L45 18ZM4 19L4 20L5 20L5 19ZM48 20L48 21L47 21L47 22L49 22L49 20ZM22 21L22 23L23 23L23 21ZM54 21L54 22L53 22L53 23L54 23L54 22L56 22L56 21ZM11 22L11 23L12 23L12 22ZM17 22L17 23L18 23L18 24L19 24L19 23L18 23L18 22ZM20 23L20 24L21 24L21 23ZM26 23L26 24L27 24L27 23ZM22 24L22 25L23 25L23 24ZM32 24L32 25L33 25L33 24ZM34 25L34 27L35 27L35 25ZM3 26L3 27L4 27L4 26ZM5 27L5 30L8 30L8 27ZM27 27L27 30L30 30L30 27ZM32 27L32 28L33 28L33 27ZM43 27L43 28L44 28L44 29L45 29L45 27ZM49 27L49 30L52 30L52 27ZM6 28L6 29L7 29L7 28ZM28 28L28 29L29 29L29 28ZM34 28L34 29L37 29L37 28ZM50 28L50 29L51 29L51 28ZM53 28L53 29L54 29L54 30L53 30L53 32L52 32L52 31L51 31L51 32L52 32L52 34L54 34L54 32L55 32L55 30L56 30L56 28L55 28L55 29L54 29L54 28ZM14 29L14 31L15 31L15 30L16 30L16 29ZM18 30L18 31L17 31L17 33L18 33L18 34L20 34L20 33L18 33L18 32L19 32L19 30ZM31 30L31 31L32 31L32 30ZM38 30L38 31L39 31L39 30ZM34 31L34 32L35 32L35 31ZM42 32L42 33L43 33L43 32ZM46 32L46 33L47 33L47 32ZM7 33L7 34L6 34L6 35L8 35L8 33ZM26 33L26 34L25 34L25 35L26 35L26 34L27 34L27 36L29 36L29 38L25 38L25 39L24 39L24 37L25 37L25 36L23 36L23 37L22 37L22 39L21 39L21 38L20 38L20 37L19 37L19 36L20 36L20 35L16 35L16 36L18 36L18 38L15 38L15 42L14 42L14 43L12 43L12 41L14 41L14 40L13 40L13 39L11 39L11 38L14 38L14 36L12 36L12 37L10 37L10 36L11 36L11 35L10 35L10 36L8 36L8 37L7 37L7 38L8 38L8 39L7 39L7 40L6 40L6 41L7 41L7 42L5 42L5 41L4 41L4 42L3 42L3 43L4 43L4 42L5 42L5 44L6 44L6 45L7 45L7 46L9 46L9 45L8 45L8 43L10 43L10 42L9 42L9 41L11 41L11 43L12 43L12 44L15 44L15 45L14 45L14 46L15 46L15 45L17 45L17 47L18 47L18 46L19 46L19 47L21 47L21 48L23 48L23 49L22 49L22 52L23 52L23 49L24 49L24 47L25 47L25 45L26 45L26 46L27 46L27 45L26 45L26 43L25 43L25 42L27 42L27 43L28 43L28 44L29 44L29 43L32 43L32 42L33 42L33 45L34 45L34 44L35 44L35 45L36 45L36 43L34 43L34 42L36 42L36 41L34 41L34 40L35 40L35 39L36 39L36 38L35 38L35 39L33 39L33 38L32 38L32 36L29 36L29 35L28 35L28 34L27 34L27 33ZM55 33L55 34L56 34L56 33ZM41 34L41 35L39 35L39 36L40 36L40 37L41 37L41 36L42 36L42 34ZM43 34L43 35L44 35L44 34ZM51 35L51 36L52 36L52 35ZM54 35L54 36L55 36L55 37L56 37L56 35ZM2 36L2 37L3 37L3 36ZM0 38L0 40L1 40L1 38ZM18 38L18 39L19 39L19 38ZM30 38L30 39L28 39L28 40L27 40L27 41L28 41L28 40L33 40L33 39L32 39L32 38ZM8 39L8 40L9 40L9 39ZM10 39L10 40L11 40L11 41L12 41L12 40L11 40L11 39ZM16 39L16 40L17 40L17 39ZM22 39L22 41L24 41L24 42L25 42L25 41L26 41L26 39L25 39L25 41L24 41L24 39ZM38 39L38 40L37 40L37 41L40 41L40 40L39 40L39 39ZM18 40L18 41L19 41L19 43L18 43L18 42L15 42L15 43L17 43L17 45L20 45L20 46L21 46L21 47L22 47L22 46L23 46L23 45L24 45L24 44L22 44L22 42L21 42L21 41L20 41L20 40ZM56 40L56 41L57 41L57 40ZM29 41L29 42L30 42L30 41ZM41 41L41 42L42 42L42 43L41 43L41 44L38 44L38 43L40 43L40 42L37 42L37 44L38 44L38 45L37 45L37 47L38 47L38 45L40 45L40 46L39 46L39 47L43 47L43 49L44 49L44 48L45 48L45 45L42 45L42 43L43 43L43 42L42 42L42 41ZM7 42L7 43L6 43L6 44L7 44L7 43L8 43L8 42ZM45 42L45 43L46 43L46 42ZM19 43L19 44L21 44L21 46L22 46L22 44L21 44L21 43ZM30 44L30 45L29 45L29 46L28 46L28 47L29 47L29 46L30 46L30 45L31 45L31 44ZM34 46L34 47L33 47L33 48L35 48L35 51L34 51L34 50L33 50L33 51L34 51L34 52L36 52L36 51L39 51L39 50L40 50L40 49L39 49L39 48L38 48L38 49L37 49L37 48L35 48L35 47L36 47L36 46ZM48 46L48 47L49 47L49 48L50 48L50 47L49 47L49 46ZM41 48L41 49L42 49L42 48ZM56 48L56 49L57 49L57 48ZM27 49L27 52L30 52L30 49ZM36 49L36 50L37 50L37 49ZM49 49L49 52L52 52L52 49ZM24 50L24 51L25 51L25 50ZM28 50L28 51L29 51L29 50ZM50 50L50 51L51 51L51 50ZM17 51L17 52L18 52L18 51ZM40 51L40 52L41 52L41 51ZM17 53L17 54L18 54L18 53ZM20 53L20 55L19 55L19 56L20 56L20 55L21 55L21 56L22 56L22 55L21 55L21 53ZM38 53L38 54L39 54L39 53ZM42 53L42 54L43 54L43 53ZM48 53L48 54L50 54L50 53ZM23 54L23 56L24 56L24 55L25 55L25 54ZM53 54L53 55L54 55L54 54ZM27 55L27 56L28 56L28 55ZM48 55L48 56L49 56L49 55ZM56 55L56 56L57 56L57 55ZM52 56L52 57L55 57L55 56ZM0 0L0 7L7 7L7 0ZM1 1L1 6L6 6L6 1ZM2 2L2 5L5 5L5 2ZM50 0L50 7L57 7L57 0ZM51 1L51 6L56 6L56 1ZM52 2L52 5L55 5L55 2ZM0 50L0 57L7 57L7 50ZM1 51L1 56L6 56L6 51ZM2 52L2 55L5 55L5 52Z" fill="#000000"/></g></g></svg>
