<?xml version="1.0" encoding="UTF-8"?>
<svg xmlns="http://www.w3.org/2000/svg" version="1.1" width="300" height="300" viewBox="0 0 300 300"><rect x="0" y="0" width="300" height="300" fill="#fefefe"/><g transform="scale(4.615)"><g transform="translate(4,4)"><path fill-rule="evenodd" d="M8 0L8 1L9 1L9 0ZM10 0L10 1L13 1L13 0ZM14 0L14 1L15 1L15 0ZM18 0L18 1L17 1L17 2L16 2L16 3L18 3L18 7L19 7L19 8L20 8L20 7L21 7L21 9L23 9L23 10L21 10L21 11L23 11L23 12L22 12L22 13L23 13L23 12L25 12L25 11L26 11L26 10L28 10L28 11L30 11L30 12L31 12L31 13L32 13L32 11L31 11L31 10L32 10L32 9L31 9L31 6L32 6L32 8L33 8L33 6L34 6L34 9L36 9L36 8L37 8L37 11L36 11L36 10L35 10L35 11L34 11L34 10L33 10L33 14L30 14L30 13L28 13L28 12L26 12L26 13L25 13L25 14L26 14L26 13L27 13L27 17L29 17L29 18L28 18L28 19L25 19L25 18L26 18L26 17L25 17L25 16L26 16L26 15L24 15L24 14L23 14L23 18L22 18L22 17L21 17L21 16L20 16L20 14L21 14L21 12L20 12L20 13L19 13L19 12L18 12L18 9L17 9L17 10L16 10L16 13L17 13L17 12L18 12L18 13L19 13L19 15L18 15L18 14L16 14L16 15L15 15L15 11L14 11L14 10L13 10L13 8L15 8L15 6L16 6L16 7L17 7L17 5L15 5L15 4L14 4L14 3L12 3L12 4L11 4L11 3L10 3L10 2L8 2L8 5L10 5L10 7L9 7L9 6L8 6L8 7L9 7L9 8L8 8L8 10L6 10L6 11L5 11L5 10L4 10L4 8L0 8L0 9L2 9L2 10L0 10L0 11L1 11L1 12L0 12L0 13L2 13L2 14L1 14L1 15L0 15L0 17L3 17L3 16L4 16L4 17L5 17L5 16L4 16L4 13L5 13L5 12L6 12L6 13L7 13L7 14L5 14L5 15L8 15L8 16L9 16L9 14L8 14L8 13L9 13L9 12L6 12L6 11L9 11L9 10L10 10L10 11L12 11L12 12L13 12L13 13L14 13L14 18L15 18L15 19L13 19L13 20L12 20L12 19L11 19L11 18L13 18L13 16L11 16L11 18L10 18L10 17L9 17L9 18L6 18L6 19L5 19L5 18L4 18L4 19L5 19L5 20L4 20L4 21L3 21L3 18L2 18L2 21L1 21L1 20L0 20L0 25L1 25L1 26L2 26L2 25L3 25L3 26L4 26L4 28L3 28L3 27L2 27L2 28L3 28L3 29L2 29L2 30L1 30L1 28L0 28L0 31L2 31L2 33L1 33L1 32L0 32L0 33L1 33L1 34L0 34L0 39L3 39L3 37L4 37L4 39L5 39L5 37L4 37L4 35L3 35L3 37L1 37L1 34L4 34L4 32L3 32L3 31L8 31L8 32L10 32L10 33L11 33L11 32L12 32L12 33L14 33L14 35L15 35L15 36L16 36L16 35L17 35L17 34L16 34L16 35L15 35L15 33L18 33L18 34L20 34L20 33L21 33L21 34L22 34L22 35L21 35L21 36L22 36L22 35L24 35L24 34L25 34L25 32L24 32L24 33L23 33L23 31L22 31L22 32L20 32L20 33L18 33L18 31L17 31L17 28L15 28L15 29L16 29L16 30L13 30L13 29L14 29L14 27L15 27L15 26L16 26L16 27L19 27L19 26L21 26L21 24L20 24L20 23L22 23L22 22L23 22L23 24L24 24L24 25L25 25L25 26L23 26L23 25L22 25L22 27L23 27L23 28L26 28L26 30L24 30L24 29L21 29L21 27L20 27L20 29L21 29L21 30L24 30L24 31L27 31L27 33L26 33L26 34L27 34L27 35L26 35L26 36L29 36L29 38L27 38L27 39L26 39L26 41L25 41L25 39L24 39L24 37L25 37L25 36L23 36L23 39L24 39L24 41L22 41L22 37L21 37L21 38L20 38L20 37L19 37L19 36L20 36L20 35L18 35L18 36L17 36L17 37L19 37L19 39L17 39L17 38L15 38L15 39L14 39L14 36L13 36L13 35L11 35L11 36L8 36L8 37L7 37L7 36L6 36L6 37L7 37L7 38L6 38L6 39L7 39L7 40L6 40L6 41L5 41L5 40L3 40L3 41L2 41L2 44L1 44L1 45L2 45L2 47L1 47L1 46L0 46L0 48L5 48L5 47L8 47L8 50L11 50L11 51L10 51L10 54L9 54L9 53L8 53L8 57L13 57L13 56L14 56L14 57L18 57L18 55L20 55L20 57L24 57L24 56L25 56L25 55L24 55L24 56L22 56L22 55L23 55L23 54L26 54L26 53L29 53L29 54L31 54L31 55L30 55L30 56L31 56L31 57L32 57L32 55L34 55L34 56L33 56L33 57L36 57L36 55L38 55L38 57L42 57L42 56L43 56L43 55L44 55L44 56L46 56L46 57L51 57L51 54L52 54L52 53L53 53L53 56L52 56L52 57L55 57L55 56L54 56L54 55L55 55L55 54L56 54L56 53L57 53L57 52L56 52L56 51L55 51L55 50L53 50L53 49L55 49L55 48L54 48L54 47L57 47L57 45L56 45L56 44L52 44L52 43L53 43L53 42L54 42L54 43L56 43L56 42L54 42L54 40L55 40L55 39L53 39L53 38L52 38L52 36L53 36L53 37L55 37L55 38L56 38L56 39L57 39L57 38L56 38L56 37L57 37L57 36L56 36L56 35L57 35L57 34L55 34L55 33L57 33L57 31L56 31L56 30L57 30L57 29L56 29L56 30L55 30L55 32L54 32L54 31L53 31L53 30L54 30L54 29L55 29L55 28L56 28L56 24L54 24L54 23L57 23L57 21L56 21L56 20L54 20L54 21L53 21L53 20L50 20L50 18L48 18L48 14L47 14L47 17L45 17L45 16L44 16L44 15L45 15L45 14L46 14L46 13L44 13L44 12L43 12L43 11L44 11L44 10L45 10L45 11L48 11L48 10L50 10L50 11L49 11L49 17L50 17L50 15L51 15L51 13L52 13L52 14L53 14L53 13L54 13L54 10L53 10L53 13L52 13L52 12L51 12L51 10L50 10L50 8L45 8L45 9L44 9L44 10L43 10L43 8L44 8L44 7L45 7L45 6L44 6L44 7L43 7L43 5L46 5L46 7L47 7L47 5L48 5L48 0L45 0L45 1L44 1L44 2L42 2L42 3L43 3L43 5L42 5L42 7L41 7L41 4L37 4L37 1L38 1L38 0L37 0L37 1L36 1L36 0L35 0L35 1L34 1L34 2L32 2L32 1L31 1L31 0L29 0L29 2L28 2L28 3L30 3L30 4L26 4L26 1L25 1L25 0L23 0L23 1L22 1L22 0L21 0L21 1L20 1L20 0ZM39 0L39 1L40 1L40 2L41 2L41 1L43 1L43 0L41 0L41 1L40 1L40 0ZM18 1L18 3L19 3L19 4L20 4L20 5L23 5L23 3L24 3L24 2L25 2L25 1L23 1L23 2L22 2L22 1L21 1L21 3L20 3L20 2L19 2L19 1ZM30 1L30 3L31 3L31 1ZM35 1L35 2L36 2L36 1ZM45 1L45 3L44 3L44 4L46 4L46 5L47 5L47 3L46 3L46 2L47 2L47 1ZM38 2L38 3L39 3L39 2ZM32 3L32 4L31 4L31 5L32 5L32 6L33 6L33 5L34 5L34 6L35 6L35 7L36 7L36 6L37 6L37 8L39 8L39 7L40 7L40 8L41 8L41 9L38 9L38 10L41 10L41 11L39 11L39 15L36 15L36 14L35 14L35 12L36 12L36 11L35 11L35 12L34 12L34 14L33 14L33 15L35 15L35 16L34 16L34 17L35 17L35 19L33 19L33 18L31 18L31 16L32 16L32 15L31 15L31 16L29 16L29 15L28 15L28 16L29 16L29 17L30 17L30 19L32 19L32 20L31 20L31 23L32 23L32 22L33 22L33 24L32 24L32 25L33 25L33 24L35 24L35 23L36 23L36 24L37 24L37 23L38 23L38 24L39 24L39 26L38 26L38 27L40 27L40 25L41 25L41 27L42 27L42 28L43 28L43 27L42 27L42 26L45 26L45 30L44 30L44 29L42 29L42 30L40 30L40 29L41 29L41 28L40 28L40 29L38 29L38 30L36 30L36 29L37 29L37 27L35 27L35 25L34 25L34 27L35 27L35 28L34 28L34 29L35 29L35 31L33 31L33 29L32 29L32 30L31 30L31 31L33 31L33 32L31 32L31 34L30 34L30 35L29 35L29 33L30 33L30 31L28 31L28 33L27 33L27 34L28 34L28 35L29 35L29 36L32 36L32 38L30 38L30 39L28 39L28 40L27 40L27 41L30 41L30 42L31 42L31 40L33 40L33 39L32 39L32 38L33 38L33 37L34 37L34 38L36 38L36 39L35 39L35 40L34 40L34 41L36 41L36 42L34 42L34 43L35 43L35 44L34 44L34 45L33 45L33 42L32 42L32 45L33 45L33 47L34 47L34 46L35 46L35 44L36 44L36 45L38 45L38 47L35 47L35 48L34 48L34 50L33 50L33 53L36 53L36 54L35 54L35 55L36 55L36 54L39 54L39 53L37 53L37 51L36 51L36 52L35 52L35 48L37 48L37 49L36 49L36 50L37 50L37 49L38 49L38 48L39 48L39 49L40 49L40 50L39 50L39 52L40 52L40 54L41 54L41 52L42 52L42 54L43 54L43 50L44 50L44 49L45 49L45 48L44 48L44 49L43 49L43 47L40 47L40 46L41 46L41 45L38 45L38 44L39 44L39 43L40 43L40 44L41 44L41 43L42 43L42 45L43 45L43 46L45 46L45 47L46 47L46 46L48 46L48 47L49 47L49 48L50 48L50 46L51 46L51 48L53 48L53 47L54 47L54 45L52 45L52 44L51 44L51 42L50 42L50 41L52 41L52 40L53 40L53 39L52 39L52 38L51 38L51 36L52 36L52 35L51 35L51 36L50 36L50 37L49 37L49 39L47 39L47 40L50 40L50 41L47 41L47 42L46 42L46 43L47 43L47 42L48 42L48 43L49 43L49 44L50 44L50 46L48 46L48 44L45 44L45 43L44 43L44 42L43 42L43 40L44 40L44 39L45 39L45 41L46 41L46 39L45 39L45 36L46 36L46 38L48 38L48 35L49 35L49 34L50 34L50 33L49 33L49 32L48 32L48 27L47 27L47 31L46 31L46 32L45 32L45 30L46 30L46 26L47 26L47 24L48 24L48 26L49 26L49 25L50 25L50 24L51 24L51 26L52 26L52 25L53 25L53 27L55 27L55 25L53 25L53 23L54 23L54 22L56 22L56 21L54 21L54 22L53 22L53 23L52 23L52 22L51 22L51 21L50 21L50 20L49 20L49 19L48 19L48 18L47 18L47 19L46 19L46 18L45 18L45 17L42 17L42 14L44 14L44 13L43 13L43 12L42 12L42 11L43 11L43 10L41 10L41 9L42 9L42 8L41 8L41 7L40 7L40 5L38 5L38 6L37 6L37 5L36 5L36 4L34 4L34 3ZM10 4L10 5L11 5L11 7L12 7L12 8L13 8L13 7L14 7L14 6L13 6L13 5L14 5L14 4L13 4L13 5L11 5L11 4ZM24 4L24 6L23 6L23 7L24 7L24 9L26 9L26 6L25 6L25 5L26 5L26 4ZM27 5L27 8L30 8L30 5ZM12 6L12 7L13 7L13 6ZM19 6L19 7L20 7L20 6ZM21 6L21 7L22 7L22 6ZM24 6L24 7L25 7L25 6ZM28 6L28 7L29 7L29 6ZM38 6L38 7L39 7L39 6ZM48 6L48 7L49 7L49 6ZM6 8L6 9L7 9L7 8ZM9 8L9 9L10 9L10 8ZM52 8L52 9L55 9L55 8ZM56 8L56 9L57 9L57 8ZM11 9L11 10L12 10L12 9ZM19 9L19 11L20 11L20 9ZM46 9L46 10L47 10L47 9ZM2 10L2 13L3 13L3 11L4 11L4 12L5 12L5 11L4 11L4 10ZM23 10L23 11L25 11L25 10ZM55 10L55 12L56 12L56 11L57 11L57 10ZM37 11L37 12L38 12L38 11ZM10 12L10 15L11 15L11 12ZM50 12L50 13L51 13L51 12ZM2 14L2 16L3 16L3 14ZM12 14L12 15L13 15L13 14ZM16 15L16 17L17 17L17 19L18 19L18 17L19 17L19 20L18 20L18 21L17 21L17 22L18 22L18 23L16 23L16 19L15 19L15 20L14 20L14 22L11 22L11 24L10 24L10 22L9 22L9 21L11 21L11 20L9 20L9 19L10 19L10 18L9 18L9 19L6 19L6 20L7 20L7 21L6 21L6 22L3 22L3 21L2 21L2 22L1 22L1 23L2 23L2 22L3 22L3 24L4 24L4 26L5 26L5 24L7 24L7 25L6 25L6 26L7 26L7 25L8 25L8 26L9 26L9 31L10 31L10 29L11 29L11 30L12 30L12 31L13 31L13 30L12 30L12 29L13 29L13 28L12 28L12 25L13 25L13 27L14 27L14 26L15 26L15 25L16 25L16 26L19 26L19 25L17 25L17 24L18 24L18 23L19 23L19 22L21 22L21 20L22 20L22 18L21 18L21 17L20 17L20 16L17 16L17 15ZM39 15L39 17L40 17L40 16L41 16L41 15ZM53 15L53 16L55 16L55 17L54 17L54 18L53 18L53 17L52 17L52 16L51 16L51 18L52 18L52 19L55 19L55 17L56 17L56 18L57 18L57 15ZM6 16L6 17L7 17L7 16ZM24 17L24 18L23 18L23 21L24 21L24 22L25 22L25 25L27 25L27 26L31 26L31 24L30 24L30 20L29 20L29 19L28 19L28 20L29 20L29 21L28 21L28 23L27 23L27 22L25 22L25 21L27 21L27 20L25 20L25 19L24 19L24 18L25 18L25 17ZM36 17L36 18L37 18L37 17ZM41 17L41 18L39 18L39 19L40 19L40 20L38 20L38 19L36 19L36 20L34 20L34 21L35 21L35 22L38 22L38 23L42 23L42 24L43 24L43 25L44 25L44 23L45 23L45 26L46 26L46 24L47 24L47 22L49 22L49 21L48 21L48 20L47 20L47 22L44 22L44 21L43 21L43 18L42 18L42 17ZM0 18L0 19L1 19L1 18ZM41 18L41 19L42 19L42 18ZM44 18L44 19L45 19L45 21L46 21L46 19L45 19L45 18ZM8 20L8 21L7 21L7 22L6 22L6 23L9 23L9 22L8 22L8 21L9 21L9 20ZM36 20L36 21L37 21L37 20ZM41 20L41 21L42 21L42 20ZM18 21L18 22L19 22L19 21ZM38 21L38 22L39 22L39 21ZM14 22L14 23L13 23L13 25L15 25L15 24L16 24L16 23L15 23L15 22ZM26 23L26 24L27 24L27 23ZM28 23L28 24L29 24L29 25L30 25L30 24L29 24L29 23ZM48 23L48 24L49 24L49 23ZM1 24L1 25L2 25L2 24ZM8 24L8 25L9 25L9 26L10 26L10 24ZM11 24L11 25L12 25L12 24ZM5 27L5 30L8 30L8 27ZM10 27L10 28L11 28L11 27ZM27 27L27 30L30 30L30 27ZM32 27L32 28L33 28L33 27ZM49 27L49 30L52 30L52 27ZM6 28L6 29L7 29L7 28ZM18 28L18 29L19 29L19 28ZM28 28L28 29L29 29L29 28ZM50 28L50 29L51 29L51 28ZM53 28L53 29L54 29L54 28ZM3 29L3 30L2 30L2 31L3 31L3 30L4 30L4 29ZM38 30L38 31L39 31L39 34L38 34L38 32L37 32L37 31L35 31L35 35L36 35L36 36L34 36L34 34L33 34L33 33L32 33L32 34L31 34L31 35L32 35L32 36L34 36L34 37L37 37L37 39L38 39L38 40L37 40L37 41L40 41L40 42L42 42L42 43L43 43L43 42L42 42L42 40L41 40L41 41L40 41L40 39L41 39L41 37L40 37L40 36L37 36L37 35L41 35L41 36L42 36L42 37L44 37L44 36L45 36L45 33L44 33L44 30L43 30L43 31L41 31L41 32L40 32L40 31L39 31L39 30ZM14 31L14 33L15 33L15 32L16 32L16 31ZM6 32L6 33L5 33L5 34L6 34L6 35L8 35L8 34L6 34L6 33L7 33L7 32ZM36 32L36 33L37 33L37 32ZM42 32L42 33L43 33L43 32ZM46 32L46 33L47 33L47 32ZM52 32L52 34L54 34L54 33L53 33L53 32ZM22 33L22 34L23 34L23 33ZM9 34L9 35L10 35L10 34ZM41 34L41 35L42 35L42 34ZM43 34L43 35L44 35L44 34ZM46 34L46 35L48 35L48 34ZM54 35L54 36L55 36L55 37L56 37L56 36L55 36L55 35ZM11 36L11 37L10 37L10 38L9 38L9 40L8 40L8 41L6 41L6 42L8 42L8 43L5 43L5 41L3 41L3 43L5 43L5 44L3 44L3 47L5 47L5 46L8 46L8 47L10 47L10 46L11 46L11 48L12 48L12 49L14 49L14 48L12 48L12 47L13 47L13 46L12 46L12 45L15 45L15 47L17 47L17 48L18 48L18 46L17 46L17 45L20 45L20 46L21 46L21 47L19 47L19 48L20 48L20 49L21 49L21 50L22 50L22 49L23 49L23 52L22 52L22 51L21 51L21 52L22 52L22 53L23 53L23 52L24 52L24 53L25 53L25 52L26 52L26 51L24 51L24 50L26 50L26 48L28 48L28 47L29 47L29 48L32 48L32 49L31 49L31 53L32 53L32 49L33 49L33 48L32 48L32 47L31 47L31 43L29 43L29 44L30 44L30 46L29 46L29 45L27 45L27 42L25 42L25 41L24 41L24 42L25 42L25 43L26 43L26 45L25 45L25 47L23 47L23 48L21 48L21 47L22 47L22 46L24 46L24 45L23 45L23 44L22 44L22 41L20 41L20 40L18 40L18 41L19 41L19 43L18 43L18 42L17 42L17 44L16 44L16 43L15 43L15 42L14 42L14 41L17 41L17 39L16 39L16 40L14 40L14 41L13 41L13 39L12 39L12 38L13 38L13 36ZM11 37L11 38L12 38L12 37ZM38 38L38 39L39 39L39 38ZM42 38L42 39L44 39L44 38ZM10 39L10 40L9 40L9 41L8 41L8 42L9 42L9 43L8 43L8 46L10 46L10 45L9 45L9 44L10 44L10 43L12 43L12 44L13 44L13 43L12 43L12 41L10 41L10 40L12 40L12 39ZM50 39L50 40L52 40L52 39ZM0 40L0 42L1 42L1 40ZM56 40L56 41L57 41L57 40ZM9 41L9 42L10 42L10 41ZM20 42L20 43L21 43L21 42ZM37 42L37 44L38 44L38 43L39 43L39 42ZM49 42L49 43L50 43L50 42ZM14 43L14 44L15 44L15 45L16 45L16 44L15 44L15 43ZM5 44L5 45L4 45L4 46L5 46L5 45L7 45L7 44ZM20 44L20 45L21 45L21 46L22 46L22 44ZM26 45L26 46L27 46L27 47L28 47L28 46L27 46L27 45ZM55 45L55 46L56 46L56 45ZM52 46L52 47L53 47L53 46ZM6 48L6 49L7 49L7 48ZM23 48L23 49L24 49L24 48ZM41 48L41 49L42 49L42 48ZM46 48L46 50L47 50L47 52L48 52L48 48ZM56 48L56 50L57 50L57 48ZM16 49L16 50L17 50L17 51L15 51L15 50L14 50L14 52L15 52L15 53L16 53L16 54L18 54L18 53L19 53L19 50L17 50L17 49ZM27 49L27 52L30 52L30 49ZM49 49L49 52L52 52L52 49ZM28 50L28 51L29 51L29 50ZM50 50L50 51L51 51L51 50ZM11 51L11 53L13 53L13 54L10 54L10 55L9 55L9 56L10 56L10 55L11 55L11 56L12 56L12 55L14 55L14 56L15 56L15 55L14 55L14 53L13 53L13 51ZM17 51L17 52L18 52L18 51ZM40 51L40 52L41 52L41 51ZM45 52L45 53L46 53L46 52ZM54 52L54 53L55 53L55 52ZM20 53L20 55L22 55L22 54L21 54L21 53ZM47 53L47 54L44 54L44 55L46 55L46 56L47 56L47 54L50 54L50 53ZM27 55L27 56L28 56L28 55ZM40 55L40 56L42 56L42 55ZM48 55L48 56L49 56L49 55ZM56 55L56 56L57 56L57 55ZM0 0L0 7L7 7L7 0ZM1 1L1 6L6 6L6 1ZM2 2L2 5L5 5L5 2ZM50 0L50 7L57 7L57 0ZM51 1L51 6L56 6L56 1ZM52 2L52 5L55 5L55 2ZM0 50L0 57L7 57L7 50ZM1 51L1 56L6 56L6 51ZM2 52L2 55L5 55L5 52Z" fill="#000000"/></g></g></svg>
