<?xml version="1.0" encoding="UTF-8"?>
<svg xmlns="http://www.w3.org/2000/svg" version="1.1" width="300" height="300" viewBox="0 0 300 300"><rect x="0" y="0" width="300" height="300" fill="#fefefe"/><g transform="scale(4.615)"><g transform="translate(4,4)"><path fill-rule="evenodd" d="M8 0L8 2L9 2L9 1L10 1L10 2L11 2L11 4L10 4L10 3L9 3L9 4L8 4L8 9L7 9L7 8L5 8L5 9L7 9L7 10L6 10L6 11L5 11L5 12L4 12L4 11L3 11L3 10L2 10L2 12L4 12L4 14L5 14L5 16L4 16L4 17L3 17L3 18L2 18L2 20L1 20L1 19L0 19L0 20L1 20L1 21L0 21L0 22L1 22L1 23L0 23L0 24L1 24L1 26L2 26L2 24L1 24L1 23L3 23L3 21L2 21L2 20L4 20L4 21L5 21L5 22L4 22L4 24L5 24L5 22L6 22L6 23L7 23L7 22L6 22L6 21L7 21L7 20L8 20L8 17L9 17L9 18L11 18L11 19L12 19L12 20L11 20L11 21L13 21L13 22L12 22L12 23L11 23L11 22L9 22L9 21L8 21L8 22L9 22L9 23L8 23L8 24L9 24L9 25L10 25L10 26L8 26L8 25L7 25L7 24L6 24L6 25L5 25L5 26L4 26L4 27L2 27L2 28L1 28L1 31L0 31L0 33L1 33L1 34L0 34L0 35L2 35L2 33L1 33L1 32L2 32L2 31L3 31L3 33L4 33L4 32L5 32L5 33L7 33L7 32L5 32L5 31L9 31L9 33L8 33L8 34L9 34L9 33L10 33L10 35L7 35L7 34L6 34L6 35L5 35L5 36L0 36L0 37L2 37L2 38L1 38L1 40L0 40L0 42L1 42L1 45L0 45L0 48L5 48L5 47L9 47L9 49L8 49L8 48L6 48L6 49L8 49L8 50L11 50L11 52L12 52L12 53L10 53L10 51L8 51L8 52L9 52L9 54L8 54L8 57L12 57L12 56L9 56L9 54L11 54L11 55L12 55L12 53L13 53L13 56L14 56L14 57L15 57L15 56L16 56L16 57L17 57L17 55L19 55L19 54L18 54L18 53L19 53L19 52L18 52L18 50L19 50L19 51L20 51L20 53L21 53L21 52L22 52L22 54L23 54L23 55L21 55L21 54L20 54L20 55L21 55L21 56L20 56L20 57L21 57L21 56L22 56L22 57L23 57L23 56L24 56L24 57L25 57L25 55L24 55L24 54L25 54L25 51L26 51L26 55L27 55L27 56L26 56L26 57L28 57L28 55L29 55L29 57L33 57L33 55L34 55L34 57L35 57L35 55L37 55L37 54L36 54L36 53L37 53L37 51L38 51L38 47L37 47L37 46L38 46L38 45L37 45L37 44L39 44L39 43L37 43L37 44L36 44L36 41L37 41L37 42L38 42L38 41L39 41L39 40L40 40L40 41L41 41L41 42L40 42L40 43L41 43L41 42L42 42L42 43L43 43L43 42L42 42L42 41L43 41L43 40L42 40L42 41L41 41L41 40L40 40L40 39L41 39L41 36L42 36L42 35L40 35L40 36L38 36L38 35L39 35L39 34L38 34L38 33L39 33L39 32L40 32L40 34L42 34L42 33L43 33L43 35L44 35L44 38L43 38L43 39L44 39L44 43L45 43L45 44L44 44L44 45L43 45L43 44L42 44L42 45L41 45L41 44L40 44L40 45L39 45L39 46L40 46L40 45L41 45L41 47L40 47L40 49L39 49L39 52L40 52L40 53L39 53L39 56L40 56L40 57L41 57L41 56L40 56L40 54L41 54L41 55L42 55L42 57L43 57L43 54L42 54L42 53L43 53L43 52L44 52L44 55L45 55L45 54L46 54L46 55L47 55L47 57L48 57L48 55L49 55L49 57L50 57L50 55L49 55L49 54L52 54L52 55L53 55L53 56L51 56L51 57L54 57L54 54L55 54L55 55L57 55L57 54L55 54L55 52L54 52L54 51L53 51L53 50L54 50L54 47L55 47L55 50L56 50L56 51L57 51L57 50L56 50L56 47L57 47L57 44L56 44L56 47L55 47L55 46L54 46L54 47L53 47L53 46L52 46L52 45L53 45L53 44L54 44L54 43L55 43L55 42L56 42L56 43L57 43L57 42L56 42L56 41L57 41L57 40L54 40L54 39L53 39L53 38L54 38L54 37L55 37L55 38L57 38L57 36L56 36L56 35L57 35L57 33L56 33L56 31L57 31L57 29L56 29L56 27L57 27L57 24L56 24L56 23L57 23L57 21L56 21L56 20L55 20L55 21L54 21L54 19L55 19L55 18L56 18L56 19L57 19L57 18L56 18L56 17L57 17L57 13L56 13L56 12L57 12L57 10L56 10L56 12L55 12L55 13L56 13L56 15L55 15L55 16L56 16L56 17L54 17L54 14L53 14L53 12L54 12L54 11L55 11L55 9L57 9L57 8L55 8L55 9L54 9L54 10L52 10L52 9L53 9L53 8L49 8L49 10L50 10L50 13L49 13L49 14L48 14L48 11L46 11L46 13L45 13L45 12L44 12L44 13L43 13L43 16L44 16L44 17L43 17L43 18L42 18L42 17L41 17L41 15L42 15L42 12L43 12L43 10L44 10L44 9L45 9L45 8L46 8L46 7L47 7L47 8L48 8L48 7L49 7L49 6L48 6L48 7L47 7L47 5L48 5L48 0L46 0L46 1L45 1L45 0L42 0L42 1L41 1L41 0L38 0L38 2L37 2L37 1L35 1L35 0L34 0L34 2L33 2L33 6L32 6L32 7L33 7L33 6L34 6L34 8L32 8L32 9L31 9L31 5L32 5L32 2L31 2L31 1L32 1L32 0L30 0L30 1L28 1L28 2L27 2L27 0L24 0L24 1L23 1L23 0L20 0L20 1L19 1L19 0L16 0L16 1L19 1L19 2L22 2L22 1L23 1L23 4L22 4L22 3L21 3L21 5L20 5L20 7L19 7L19 5L18 5L18 2L16 2L16 3L15 3L15 0L14 0L14 3L13 3L13 4L12 4L12 2L13 2L13 0L11 0L11 1L10 1L10 0ZM24 1L24 4L25 4L25 1ZM39 1L39 2L40 2L40 4L39 4L39 5L38 5L38 4L37 4L37 2L34 2L34 4L35 4L35 9L34 9L34 10L33 10L33 9L32 9L32 12L30 12L30 10L31 10L31 9L30 9L30 10L29 10L29 12L30 12L30 13L29 13L29 15L28 15L28 14L26 14L26 16L25 16L25 15L24 15L24 14L25 14L25 13L24 13L24 14L23 14L23 12L22 12L22 11L24 11L24 10L25 10L25 11L26 11L26 13L27 13L27 12L28 12L28 11L27 11L27 10L28 10L28 9L27 9L27 10L25 10L25 9L26 9L26 5L24 5L24 6L23 6L23 7L22 7L22 6L21 6L21 7L22 7L22 8L21 8L21 9L20 9L20 10L21 10L21 11L18 11L18 12L19 12L19 13L18 13L18 14L17 14L17 12L14 12L14 11L16 11L16 10L19 10L19 9L18 9L18 6L17 6L17 5L16 5L16 6L15 6L15 5L12 5L12 4L11 4L11 5L10 5L10 6L9 6L9 7L10 7L10 6L11 6L11 7L12 7L12 6L13 6L13 7L14 7L14 6L15 6L15 9L14 9L14 8L12 8L12 10L13 10L13 11L11 11L11 10L10 10L10 11L9 11L9 10L8 10L8 11L6 11L6 12L5 12L5 13L6 13L6 14L7 14L7 13L9 13L9 15L6 15L6 16L9 16L9 15L10 15L10 16L13 16L13 17L11 17L11 18L12 18L12 19L13 19L13 17L14 17L14 18L15 18L15 19L14 19L14 20L15 20L15 19L17 19L17 17L18 17L18 19L19 19L19 17L18 17L18 16L21 16L21 14L22 14L22 16L23 16L23 15L24 15L24 18L25 18L25 19L24 19L24 20L25 20L25 21L26 21L26 20L27 20L27 22L26 22L26 23L27 23L27 22L28 22L28 24L27 24L27 25L26 25L26 26L31 26L31 25L32 25L32 27L31 27L31 29L32 29L32 31L31 31L31 32L30 32L30 34L31 34L31 35L28 35L28 34L29 34L29 31L28 31L28 32L27 32L27 33L28 33L28 34L27 34L27 35L28 35L28 36L27 36L27 37L26 37L26 36L25 36L25 35L26 35L26 30L25 30L25 29L24 29L24 26L25 26L25 25L24 25L24 26L23 26L23 27L22 27L22 28L23 28L23 29L22 29L22 30L21 30L21 29L20 29L20 30L19 30L19 28L20 28L20 27L21 27L21 25L22 25L22 24L23 24L23 21L22 21L22 19L23 19L23 18L22 18L22 19L20 19L20 20L19 20L19 21L18 21L18 20L17 20L17 21L18 21L18 22L16 22L16 23L17 23L17 25L16 25L16 26L14 26L14 27L13 27L13 26L12 26L12 25L13 25L13 24L15 24L15 21L14 21L14 22L13 22L13 23L12 23L12 25L11 25L11 24L10 24L10 25L11 25L11 26L10 26L10 27L9 27L9 28L10 28L10 29L11 29L11 28L10 28L10 27L12 27L12 28L15 28L15 29L13 29L13 30L10 30L10 33L11 33L11 31L12 31L12 33L14 33L14 35L15 35L15 38L14 38L14 36L13 36L13 37L10 37L10 39L11 39L11 38L14 38L14 39L15 39L15 40L12 40L12 42L10 42L10 40L8 40L8 39L6 39L6 40L5 40L5 39L4 39L4 40L5 40L5 41L6 41L6 42L4 42L4 41L3 41L3 38L2 38L2 40L1 40L1 42L4 42L4 43L3 43L3 44L4 44L4 45L6 45L6 46L7 46L7 45L9 45L9 44L10 44L10 46L9 46L9 47L10 47L10 46L11 46L11 47L12 47L12 46L13 46L13 47L14 47L14 49L13 49L13 51L12 51L12 52L13 52L13 51L16 51L16 52L17 52L17 53L18 53L18 52L17 52L17 51L16 51L16 50L18 50L18 47L17 47L17 44L16 44L16 43L17 43L17 41L16 41L16 40L17 40L17 39L16 39L16 38L17 38L17 37L18 37L18 35L17 35L17 37L16 37L16 35L15 35L15 32L16 32L16 34L17 34L17 33L18 33L18 32L19 32L19 33L20 33L20 35L19 35L19 36L21 36L21 38L20 38L20 39L21 39L21 40L20 40L20 42L21 42L21 43L20 43L20 44L19 44L19 43L18 43L18 44L19 44L19 45L18 45L18 46L19 46L19 48L20 48L20 46L22 46L22 48L21 48L21 49L20 49L20 51L21 51L21 50L22 50L22 48L23 48L23 49L24 49L24 51L23 51L23 52L24 52L24 51L25 51L25 48L29 48L29 47L30 47L30 48L31 48L31 52L32 52L32 48L34 48L34 47L35 47L35 49L34 49L34 50L35 50L35 51L34 51L34 52L35 52L35 53L34 53L34 55L35 55L35 53L36 53L36 52L35 52L35 51L37 51L37 49L36 49L36 48L37 48L37 47L35 47L35 45L36 45L36 44L33 44L33 45L34 45L34 47L32 47L32 46L31 46L31 47L30 47L30 45L28 45L28 46L26 46L26 45L24 45L24 46L26 46L26 47L24 47L24 48L23 48L23 44L24 44L24 43L25 43L25 42L26 42L26 41L25 41L25 40L26 40L26 39L27 39L27 41L28 41L28 42L27 42L27 44L28 44L28 42L29 42L29 44L30 44L30 42L31 42L31 43L32 43L32 40L33 40L33 41L34 41L34 42L35 42L35 41L36 41L36 38L37 38L37 37L36 37L36 35L38 35L38 34L37 34L37 33L36 33L36 31L37 31L37 32L38 32L38 31L40 31L40 32L41 32L41 33L42 33L42 31L43 31L43 30L44 30L44 31L45 31L45 32L46 32L46 35L45 35L45 37L46 37L46 38L47 38L47 40L48 40L48 41L46 41L46 39L45 39L45 43L47 43L47 44L46 44L46 47L45 47L45 51L47 51L47 52L45 52L45 53L46 53L46 54L47 54L47 55L48 55L48 54L49 54L49 53L47 53L47 52L48 52L48 51L47 51L47 46L51 46L51 45L49 45L49 44L50 44L50 42L49 42L49 41L51 41L51 40L52 40L52 44L53 44L53 41L54 41L54 42L55 42L55 41L54 41L54 40L52 40L52 39L51 39L51 40L48 40L48 39L50 39L50 38L51 38L51 37L52 37L52 38L53 38L53 37L54 37L54 36L55 36L55 37L56 37L56 36L55 36L55 35L56 35L56 33L55 33L55 31L56 31L56 30L55 30L55 27L56 27L56 26L55 26L55 25L56 25L56 24L55 24L55 23L56 23L56 21L55 21L55 23L54 23L54 22L52 22L52 20L53 20L53 19L54 19L54 17L52 17L52 15L53 15L53 14L52 14L52 13L50 13L50 15L51 15L51 17L50 17L50 16L48 16L48 18L49 18L49 17L50 17L50 18L51 18L51 17L52 17L52 19L51 19L51 20L49 20L49 19L48 19L48 20L49 20L49 21L48 21L48 23L47 23L47 20L46 20L46 23L44 23L44 22L45 22L45 21L44 21L44 19L47 19L47 17L46 17L46 16L47 16L47 15L48 15L48 14L47 14L47 13L46 13L46 16L45 16L45 14L44 14L44 16L45 16L45 17L44 17L44 19L42 19L42 20L43 20L43 21L42 21L42 23L41 23L41 22L40 22L40 19L41 19L41 18L40 18L40 15L41 15L41 13L40 13L40 15L39 15L39 12L37 12L37 11L36 11L36 12L35 12L35 11L34 11L34 10L36 10L36 6L37 6L37 7L38 7L38 6L39 6L39 8L38 8L38 11L39 11L39 10L40 10L40 11L41 11L41 12L42 12L42 10L43 10L43 9L44 9L44 8L45 8L45 7L46 7L46 5L47 5L47 3L46 3L46 5L44 5L44 4L45 4L45 1L42 1L42 2L40 2L40 1ZM46 1L46 2L47 2L47 1ZM29 2L29 3L28 3L28 4L31 4L31 3L30 3L30 2ZM43 2L43 4L42 4L42 3L41 3L41 4L42 4L42 5L43 5L43 6L42 6L42 7L41 7L41 6L40 6L40 7L41 7L41 8L40 8L40 9L41 9L41 10L42 10L42 9L43 9L43 8L42 8L42 7L43 7L43 6L44 6L44 7L45 7L45 6L44 6L44 5L43 5L43 4L44 4L44 2ZM14 3L14 4L15 4L15 3ZM16 3L16 4L17 4L17 3ZM26 3L26 4L27 4L27 3ZM35 3L35 4L36 4L36 3ZM11 5L11 6L12 6L12 5ZM27 5L27 8L30 8L30 5ZM37 5L37 6L38 6L38 5ZM16 6L16 7L17 7L17 6ZM24 6L24 7L25 7L25 6ZM28 6L28 7L29 7L29 6ZM0 8L0 9L3 9L3 8ZM9 8L9 9L10 9L10 8ZM22 8L22 9L21 9L21 10L22 10L22 9L23 9L23 10L24 10L24 8ZM50 9L50 10L51 10L51 9ZM0 11L0 12L1 12L1 11ZM10 11L10 12L9 12L9 13L10 13L10 15L13 15L13 16L14 16L14 17L15 17L15 15L17 15L17 14L15 14L15 15L13 15L13 14L12 14L12 13L11 13L11 11ZM33 11L33 12L32 12L32 14L33 14L33 15L31 15L31 16L30 16L30 15L29 15L29 16L30 16L30 17L28 17L28 18L30 18L30 17L32 17L32 18L31 18L31 20L30 20L30 19L28 19L28 22L30 22L30 21L31 21L31 20L32 20L32 21L33 21L33 22L31 22L31 23L30 23L30 25L31 25L31 23L32 23L32 25L33 25L33 26L34 26L34 24L36 24L36 26L37 26L37 28L36 28L36 30L35 30L35 31L36 31L36 30L37 30L37 31L38 31L38 30L37 30L37 28L38 28L38 29L39 29L39 28L40 28L40 29L41 29L41 30L40 30L40 31L42 31L42 28L43 28L43 27L44 27L44 30L45 30L45 31L46 31L46 32L47 32L47 33L48 33L48 34L47 34L47 35L46 35L46 36L47 36L47 38L50 38L50 36L51 36L51 33L50 33L50 32L53 32L53 28L54 28L54 27L55 27L55 26L54 26L54 25L55 25L55 24L54 24L54 23L52 23L52 22L51 22L51 23L50 23L50 22L49 22L49 23L48 23L48 24L47 24L47 26L46 26L46 24L44 24L44 25L45 25L45 26L46 26L46 27L44 27L44 26L43 26L43 27L41 27L41 23L40 23L40 26L38 26L38 25L39 25L39 22L38 22L38 20L39 20L39 19L40 19L40 18L38 18L38 16L37 16L37 15L38 15L38 13L37 13L37 12L36 12L36 13L35 13L35 12L34 12L34 11ZM51 11L51 12L52 12L52 11ZM6 12L6 13L7 13L7 12ZM20 12L20 13L19 13L19 14L18 14L18 15L19 15L19 14L20 14L20 13L21 13L21 12ZM0 13L0 16L1 16L1 17L2 17L2 16L3 16L3 14L2 14L2 15L1 15L1 13ZM34 13L34 15L33 15L33 17L34 17L34 18L33 18L33 20L34 20L34 22L33 22L33 24L34 24L34 22L35 22L35 23L36 23L36 24L37 24L37 25L38 25L38 22L37 22L37 21L36 21L36 20L35 20L35 19L34 19L34 18L36 18L36 19L37 19L37 20L38 20L38 19L37 19L37 18L36 18L36 14L35 14L35 13ZM51 14L51 15L52 15L52 14ZM34 15L34 17L35 17L35 15ZM26 16L26 17L25 17L25 18L26 18L26 19L25 19L25 20L26 20L26 19L27 19L27 18L26 18L26 17L27 17L27 16ZM4 17L4 18L3 18L3 19L4 19L4 18L5 18L5 20L7 20L7 19L6 19L6 18L7 18L7 17ZM20 17L20 18L21 18L21 17ZM45 17L45 18L46 18L46 17ZM20 20L20 21L21 21L21 22L20 22L20 23L21 23L21 24L22 24L22 21L21 21L21 20ZM1 21L1 22L2 22L2 21ZM35 21L35 22L36 22L36 23L37 23L37 22L36 22L36 21ZM43 21L43 22L44 22L44 21ZM18 22L18 23L19 23L19 22ZM24 22L24 23L25 23L25 22ZM42 23L42 25L43 25L43 23ZM49 23L49 24L50 24L50 23ZM51 23L51 25L50 25L50 26L53 26L53 25L54 25L54 24L53 24L53 25L52 25L52 23ZM18 24L18 25L17 25L17 26L18 26L18 25L19 25L19 24ZM28 24L28 25L29 25L29 24ZM6 25L6 26L7 26L7 25ZM48 25L48 26L49 26L49 25ZM5 27L5 30L8 30L8 27ZM15 27L15 28L16 28L16 27ZM18 27L18 28L19 28L19 27ZM27 27L27 30L30 30L30 27ZM34 27L34 29L33 29L33 28L32 28L32 29L33 29L33 31L32 31L32 33L33 33L33 34L32 34L32 35L31 35L31 36L30 36L30 40L29 40L29 42L30 42L30 40L31 40L31 38L34 38L34 41L35 41L35 38L36 38L36 37L35 37L35 35L36 35L36 33L35 33L35 34L34 34L34 32L33 32L33 31L34 31L34 29L35 29L35 27ZM40 27L40 28L41 28L41 27ZM49 27L49 30L52 30L52 27ZM2 28L2 30L3 30L3 31L4 31L4 28ZM6 28L6 29L7 29L7 28ZM28 28L28 29L29 29L29 28ZM46 28L46 29L45 29L45 30L46 30L46 31L47 31L47 29L48 29L48 28ZM50 28L50 29L51 29L51 28ZM23 29L23 30L22 30L22 33L23 33L23 34L22 34L22 35L21 35L21 36L22 36L22 38L21 38L21 39L22 39L22 41L23 41L23 43L22 43L22 44L23 44L23 43L24 43L24 40L23 40L23 39L22 39L22 38L23 38L23 36L22 36L22 35L25 35L25 34L24 34L24 32L25 32L25 31L24 31L24 32L23 32L23 30L24 30L24 29ZM13 30L13 31L14 31L14 32L15 32L15 31L16 31L16 32L18 32L18 30L17 30L17 31L16 31L16 30ZM20 30L20 32L21 32L21 30ZM49 33L49 36L48 36L48 35L47 35L47 36L48 36L48 37L49 37L49 36L50 36L50 33ZM12 34L12 35L11 35L11 36L12 36L12 35L13 35L13 34ZM33 34L33 37L34 37L34 38L35 38L35 37L34 37L34 34ZM53 34L53 36L52 36L52 37L53 37L53 36L54 36L54 34ZM6 35L6 36L7 36L7 37L4 37L4 38L7 38L7 37L9 37L9 36L7 36L7 35ZM24 36L24 37L25 37L25 36ZM28 36L28 37L29 37L29 36ZM31 36L31 37L32 37L32 36ZM38 37L38 39L37 39L37 41L38 41L38 39L40 39L40 38L39 38L39 37ZM24 38L24 39L26 39L26 38ZM28 38L28 39L29 39L29 38ZM18 39L18 40L19 40L19 39ZM6 40L6 41L8 41L8 43L9 43L9 41L8 41L8 40ZM13 41L13 42L12 42L12 43L10 43L10 44L12 44L12 45L11 45L11 46L12 46L12 45L14 45L14 47L16 47L16 49L15 49L15 50L16 50L16 49L17 49L17 47L16 47L16 45L15 45L15 44L14 44L14 43L16 43L16 41L15 41L15 42L14 42L14 41ZM6 42L6 43L4 43L4 44L6 44L6 45L7 45L7 44L6 44L6 43L7 43L7 42ZM48 42L48 44L47 44L47 45L48 45L48 44L49 44L49 42ZM31 44L31 45L32 45L32 44ZM1 45L1 47L2 47L2 45ZM42 45L42 47L41 47L41 49L40 49L40 51L41 51L41 49L42 49L42 50L43 50L43 49L44 49L44 46L43 46L43 45ZM3 46L3 47L5 47L5 46ZM31 47L31 48L32 48L32 47ZM11 48L11 50L12 50L12 48ZM27 49L27 52L30 52L30 49ZM49 49L49 52L52 52L52 49ZM28 50L28 51L29 51L29 50ZM50 50L50 51L51 51L51 50ZM42 51L42 52L43 52L43 51ZM14 52L14 54L15 54L15 52ZM56 52L56 53L57 53L57 52ZM27 53L27 55L28 55L28 53ZM31 53L31 54L30 54L30 55L33 55L33 54L32 54L32 53ZM53 53L53 54L54 54L54 53ZM16 54L16 55L17 55L17 54ZM18 56L18 57L19 57L19 56ZM36 56L36 57L37 57L37 56ZM44 56L44 57L46 57L46 56ZM56 56L56 57L57 57L57 56ZM0 0L0 7L7 7L7 0ZM1 1L1 6L6 6L6 1ZM2 2L2 5L5 5L5 2ZM50 0L50 7L57 7L57 0ZM51 1L51 6L56 6L56 1ZM52 2L52 5L55 5L55 2ZM0 50L0 57L7 57L7 50ZM1 51L1 56L6 56L6 51ZM2 52L2 55L5 55L5 52Z" fill="#000000"/></g></g></svg>
