<?xml version="1.0" encoding="UTF-8"?>
<svg xmlns="http://www.w3.org/2000/svg" version="1.1" width="300" height="300" viewBox="0 0 300 300"><rect x="0" y="0" width="300" height="300" fill="#fefefe"/><g transform="scale(4.615)"><g transform="translate(4,4)"><path fill-rule="evenodd" d="M8 0L8 4L9 4L9 5L8 5L8 7L9 7L9 8L11 8L11 10L10 10L10 9L8 9L8 10L6 10L6 9L7 9L7 8L4 8L4 9L3 9L3 10L2 10L2 8L0 8L0 11L1 11L1 12L0 12L0 15L1 15L1 12L3 12L3 10L4 10L4 9L5 9L5 10L6 10L6 11L8 11L8 14L6 14L6 13L7 13L7 12L5 12L5 11L4 11L4 13L2 13L2 14L3 14L3 15L2 15L2 16L0 16L0 19L2 19L2 18L3 18L3 19L5 19L5 20L6 20L6 21L5 21L5 23L4 23L4 22L0 22L0 23L4 23L4 24L5 24L5 26L4 26L4 28L2 28L2 27L1 27L1 26L2 26L2 25L3 25L3 24L2 24L2 25L1 25L1 24L0 24L0 25L1 25L1 26L0 26L0 28L2 28L2 29L1 29L1 31L0 31L0 32L1 32L1 33L0 33L0 34L2 34L2 35L1 35L1 37L0 37L0 39L1 39L1 40L0 40L0 41L1 41L1 42L0 42L0 45L3 45L3 46L2 46L2 47L1 47L1 46L0 46L0 48L5 48L5 47L8 47L8 45L9 45L9 49L8 49L8 50L9 50L9 51L8 51L8 53L10 53L10 55L8 55L8 57L9 57L9 56L10 56L10 57L11 57L11 56L12 56L12 57L13 57L13 55L12 55L12 54L13 54L13 52L14 52L14 53L15 53L15 55L14 55L14 57L15 57L15 55L16 55L16 54L17 54L17 55L18 55L18 54L19 54L19 55L20 55L20 54L21 54L21 56L20 56L20 57L22 57L22 54L23 54L23 55L24 55L24 56L23 56L23 57L25 57L25 55L26 55L26 54L27 54L27 53L28 53L28 57L29 57L29 55L30 55L30 57L34 57L34 55L35 55L35 57L37 57L37 56L36 56L36 54L37 54L37 55L40 55L40 56L39 56L39 57L40 57L40 56L41 56L41 55L40 55L40 54L43 54L43 55L42 55L42 56L43 56L43 55L44 55L44 57L45 57L45 55L46 55L46 56L48 56L48 57L50 57L50 55L51 55L51 56L53 56L53 55L55 55L55 54L57 54L57 51L56 51L56 50L55 50L55 49L56 49L56 45L57 45L57 44L56 44L56 45L55 45L55 48L54 48L54 49L53 49L53 48L51 48L51 47L52 47L52 45L51 45L51 47L48 47L48 46L50 46L50 44L51 44L51 43L52 43L52 44L53 44L53 45L54 45L54 44L53 44L53 43L54 43L54 42L55 42L55 43L56 43L56 41L57 41L57 40L54 40L54 41L53 41L53 40L52 40L52 39L47 39L47 38L48 38L48 37L50 37L50 36L53 36L53 37L56 37L56 36L57 36L57 35L56 35L56 34L57 34L57 33L56 33L56 30L55 30L55 29L56 29L56 28L57 28L57 27L56 27L56 26L55 26L55 25L52 25L52 24L53 24L53 23L55 23L55 24L56 24L56 25L57 25L57 24L56 24L56 21L57 21L57 19L56 19L56 18L57 18L57 15L56 15L56 12L55 12L55 16L53 16L53 17L55 17L55 19L56 19L56 20L55 20L55 22L54 22L54 21L52 21L52 20L53 20L53 19L51 19L51 18L52 18L52 16L51 16L51 15L52 15L52 14L53 14L53 15L54 15L54 14L53 14L53 13L54 13L54 12L53 12L53 13L52 13L52 14L51 14L51 12L52 12L52 11L54 11L54 10L52 10L52 8L51 8L51 9L50 9L50 10L52 10L52 11L50 11L50 16L49 16L49 15L48 15L48 16L49 16L49 17L47 17L47 15L46 15L46 11L45 11L45 10L44 10L44 9L47 9L47 12L49 12L49 6L48 6L48 7L47 7L47 5L48 5L48 0L41 0L41 1L40 1L40 2L39 2L39 3L40 3L40 4L38 4L38 1L39 1L39 0L38 0L38 1L37 1L37 2L36 2L36 0L35 0L35 1L34 1L34 0L33 0L33 1L34 1L34 2L36 2L36 3L37 3L37 4L38 4L38 5L36 5L36 4L35 4L35 3L34 3L34 4L33 4L33 5L32 5L32 3L33 3L33 2L32 2L32 0L29 0L29 1L28 1L28 0L26 0L26 1L27 1L27 3L28 3L28 4L26 4L26 3L25 3L25 0L23 0L23 1L21 1L21 0L20 0L20 1L19 1L19 3L20 3L20 1L21 1L21 2L22 2L22 7L21 7L21 6L20 6L20 5L19 5L19 6L18 6L18 7L19 7L19 8L17 8L17 6L16 6L16 5L15 5L15 4L14 4L14 1L16 1L16 4L17 4L17 2L18 2L18 1L16 1L16 0L14 0L14 1L13 1L13 0L12 0L12 1L13 1L13 3L12 3L12 7L13 7L13 8L14 8L14 9L12 9L12 8L11 8L11 4L10 4L10 3L11 3L11 1L10 1L10 2L9 2L9 0ZM29 1L29 4L31 4L31 3L32 3L32 2L31 2L31 1ZM45 1L45 2L47 2L47 1ZM30 2L30 3L31 3L31 2ZM40 2L40 3L42 3L42 2ZM43 2L43 3L44 3L44 4L43 4L43 5L42 5L42 4L41 4L41 5L39 5L39 7L40 7L40 6L41 6L41 7L42 7L42 6L43 6L43 7L44 7L44 4L46 4L46 5L45 5L45 7L46 7L46 8L47 8L47 9L48 9L48 8L47 8L47 7L46 7L46 5L47 5L47 3L44 3L44 2ZM23 3L23 5L24 5L24 4L25 4L25 3ZM34 4L34 5L35 5L35 7L34 7L34 6L33 6L33 7L32 7L32 6L31 6L31 10L30 10L30 11L31 11L31 12L29 12L29 11L28 11L28 10L29 10L29 9L26 9L26 6L25 6L25 7L24 7L24 6L23 6L23 7L22 7L22 10L20 10L20 8L19 8L19 9L18 9L18 11L17 11L17 13L15 13L15 12L16 12L16 10L17 10L17 9L15 9L15 12L14 12L14 11L13 11L13 10L11 10L11 11L12 11L12 12L10 12L10 13L9 13L9 14L10 14L10 16L11 16L11 15L12 15L12 16L13 16L13 19L12 19L12 18L9 18L9 17L8 17L8 15L6 15L6 14L5 14L5 13L4 13L4 15L6 15L6 16L4 16L4 17L5 17L5 18L8 18L8 19L9 19L9 20L10 20L10 21L8 21L8 20L7 20L7 19L6 19L6 20L7 20L7 21L6 21L6 22L7 22L7 23L6 23L6 24L7 24L7 25L6 25L6 26L7 26L7 25L9 25L9 26L10 26L10 27L9 27L9 28L10 28L10 27L12 27L12 28L11 28L11 29L10 29L10 31L12 31L12 32L11 32L11 33L12 33L12 35L11 35L11 34L10 34L10 33L9 33L9 31L8 31L8 32L7 32L7 31L4 31L4 29L3 29L3 30L2 30L2 31L1 31L1 32L3 32L3 33L4 33L4 34L7 34L7 35L6 35L6 36L5 36L5 35L3 35L3 37L2 37L2 39L3 39L3 40L1 40L1 41L3 41L3 42L5 42L5 43L6 43L6 44L4 44L4 43L1 43L1 44L3 44L3 45L5 45L5 46L3 46L3 47L5 47L5 46L7 46L7 45L8 45L8 44L9 44L9 45L11 45L11 46L10 46L10 47L11 47L11 49L9 49L9 50L11 50L11 51L10 51L10 52L11 52L11 53L12 53L12 52L13 52L13 51L12 51L12 50L15 50L15 51L16 51L16 52L15 52L15 53L17 53L17 51L19 51L19 53L20 53L20 51L19 51L19 50L20 50L20 49L19 49L19 50L17 50L17 48L16 48L16 46L17 46L17 47L18 47L18 48L20 48L20 44L21 44L21 43L22 43L22 44L23 44L23 43L24 43L24 45L25 45L25 43L27 43L27 45L26 45L26 46L23 46L23 45L21 45L21 46L22 46L22 47L21 47L21 48L22 48L22 49L21 49L21 50L22 50L22 53L24 53L24 54L25 54L25 53L26 53L26 50L25 50L25 53L24 53L24 52L23 52L23 50L22 50L22 49L23 49L23 48L22 48L22 47L26 47L26 48L29 48L29 47L30 47L30 48L31 48L31 49L32 49L32 50L31 50L31 52L32 52L32 50L33 50L33 49L34 49L34 50L35 50L35 51L34 51L34 52L33 52L33 53L32 53L32 54L33 54L33 53L34 53L34 54L35 54L35 53L34 53L34 52L36 52L36 49L34 49L34 47L35 47L35 45L34 45L34 47L33 47L33 49L32 49L32 45L31 45L31 46L29 46L29 45L30 45L30 44L31 44L31 41L32 41L32 43L33 43L33 44L35 44L35 43L33 43L33 41L32 41L32 40L33 40L33 39L34 39L34 42L35 42L35 39L37 39L37 42L38 42L38 39L40 39L40 38L38 38L38 37L37 37L37 38L35 38L35 35L34 35L34 38L33 38L33 37L32 37L32 36L31 36L31 34L30 34L30 36L31 36L31 37L29 37L29 36L28 36L28 34L29 34L29 33L32 33L32 34L33 34L33 33L32 33L32 32L35 32L35 31L36 31L36 30L35 30L35 28L37 28L37 29L38 29L38 28L37 28L37 27L40 27L40 29L39 29L39 30L40 30L40 31L39 31L39 32L40 32L40 33L39 33L39 34L38 34L38 33L37 33L37 34L38 34L38 36L39 36L39 37L44 37L44 38L43 38L43 41L44 41L44 39L45 39L45 40L47 40L47 41L46 41L46 42L44 42L44 43L43 43L43 42L42 42L42 44L43 44L43 45L44 45L44 46L43 46L43 47L42 47L42 49L43 49L43 50L42 50L42 51L43 51L43 50L44 50L44 51L45 51L45 52L46 52L46 55L48 55L48 56L49 56L49 54L51 54L51 55L52 55L52 54L51 54L51 53L49 53L49 54L48 54L48 52L47 52L47 51L46 51L46 50L47 50L47 49L48 49L48 47L47 47L47 45L49 45L49 44L50 44L50 43L51 43L51 41L52 41L52 43L53 43L53 41L52 41L52 40L47 40L47 39L45 39L45 37L44 37L44 35L46 35L46 34L48 34L48 35L47 35L47 36L46 36L46 38L47 38L47 37L48 37L48 35L49 35L49 36L50 36L50 35L53 35L53 36L56 36L56 35L53 35L53 34L54 34L54 33L51 33L51 31L49 31L49 32L50 32L50 35L49 35L49 33L48 33L48 31L47 31L47 30L48 30L48 28L47 28L47 27L48 27L48 26L47 26L47 24L48 24L48 25L49 25L49 26L50 26L50 25L49 25L49 24L50 24L50 22L49 22L49 24L48 24L48 23L47 23L47 21L51 21L51 22L52 22L52 23L51 23L51 24L52 24L52 23L53 23L53 22L52 22L52 21L51 21L51 20L47 20L47 21L45 21L45 22L44 22L44 16L45 16L45 17L46 17L46 18L45 18L45 19L46 19L46 18L47 18L47 17L46 17L46 15L45 15L45 13L44 13L44 12L45 12L45 11L43 11L43 10L42 10L42 11L43 11L43 12L41 12L41 11L40 11L40 10L41 10L41 9L44 9L44 8L40 8L40 10L38 10L38 9L39 9L39 8L37 8L37 9L35 9L35 7L36 7L36 5L35 5L35 4ZM27 5L27 8L30 8L30 5ZM41 5L41 6L42 6L42 5ZM9 6L9 7L10 7L10 6ZM13 6L13 7L14 7L14 8L15 8L15 7L16 7L16 6L15 6L15 7L14 7L14 6ZM19 6L19 7L20 7L20 6ZM28 6L28 7L29 7L29 6ZM37 6L37 7L38 7L38 6ZM23 7L23 10L25 10L25 11L24 11L24 12L25 12L25 13L23 13L23 12L22 12L22 11L21 11L21 12L18 12L18 13L17 13L17 14L15 14L15 13L13 13L13 12L12 12L12 15L13 15L13 16L14 16L14 18L15 18L15 19L17 19L17 21L15 21L15 20L14 20L14 19L13 19L13 21L14 21L14 23L12 23L12 24L15 24L15 25L14 25L14 26L12 26L12 25L10 25L10 26L12 26L12 27L13 27L13 28L14 28L14 29L13 29L13 30L12 30L12 29L11 29L11 30L12 30L12 31L13 31L13 32L12 32L12 33L13 33L13 35L12 35L12 36L6 36L6 37L5 37L5 38L3 38L3 39L4 39L4 40L5 40L5 41L8 41L8 42L6 42L6 43L9 43L9 44L11 44L11 43L12 43L12 44L13 44L13 42L11 42L11 41L13 41L13 40L11 40L11 38L13 38L13 39L14 39L14 35L16 35L16 36L15 36L15 37L16 37L16 36L17 36L17 38L16 38L16 39L15 39L15 40L14 40L14 41L15 41L15 42L14 42L14 46L16 46L16 44L15 44L15 43L16 43L16 41L17 41L17 43L18 43L18 41L19 41L19 40L20 40L20 42L19 42L19 44L18 44L18 45L17 45L17 46L19 46L19 44L20 44L20 43L21 43L21 42L22 42L22 36L23 36L23 37L24 37L24 38L26 38L26 40L25 40L25 41L24 41L24 39L23 39L23 41L24 41L24 42L26 42L26 41L27 41L27 42L28 42L28 43L29 43L29 44L28 44L28 45L27 45L27 46L26 46L26 47L28 47L28 45L29 45L29 44L30 44L30 43L29 43L29 42L28 42L28 41L27 41L27 40L29 40L29 41L31 41L31 39L33 39L33 38L31 38L31 39L29 39L29 38L28 38L28 39L27 39L27 38L26 38L26 37L25 37L25 36L26 36L26 35L27 35L27 34L28 34L28 33L29 33L29 32L28 32L28 31L30 31L30 32L31 32L31 30L32 30L32 29L33 29L33 31L34 31L34 27L33 27L33 26L34 26L34 25L37 25L37 24L34 24L34 23L35 23L35 22L37 22L37 21L38 21L38 22L39 22L39 21L40 21L40 22L43 22L43 23L44 23L44 22L43 22L43 21L40 21L40 18L41 18L41 20L42 20L42 18L43 18L43 17L42 17L42 15L43 15L43 16L44 16L44 15L43 15L43 14L44 14L44 13L38 13L38 15L39 15L39 17L38 17L38 16L37 16L37 15L35 15L35 17L38 17L38 18L39 18L39 19L37 19L37 18L34 18L34 13L33 13L33 10L34 10L34 12L35 12L35 14L36 14L36 13L37 13L37 12L39 12L39 11L37 11L37 12L36 12L36 10L34 10L34 9L33 9L33 8L34 8L34 7L33 7L33 8L32 8L32 13L30 13L30 15L31 15L31 14L32 14L32 17L31 17L31 16L29 16L29 13L26 13L26 11L27 11L27 12L28 12L28 11L27 11L27 10L25 10L25 9L24 9L24 7ZM53 8L53 9L55 9L55 11L56 11L56 10L57 10L57 8ZM9 10L9 11L10 11L10 10ZM19 10L19 11L20 11L20 10ZM10 13L10 14L11 14L11 13ZM19 13L19 14L20 14L20 16L19 16L19 15L18 15L18 14L17 14L17 16L19 16L19 21L20 21L20 20L21 20L21 19L20 19L20 16L21 16L21 17L26 17L26 18L24 18L24 19L23 19L23 18L22 18L22 19L23 19L23 20L22 20L22 21L21 21L21 22L20 22L20 23L19 23L19 25L21 25L21 24L22 24L22 25L24 25L24 23L23 23L23 24L22 24L22 21L24 21L24 22L25 22L25 23L26 23L26 22L27 22L27 24L28 24L28 25L29 25L29 26L30 26L30 25L29 25L29 24L31 24L31 27L32 27L32 28L31 28L31 29L32 29L32 28L33 28L33 27L32 27L32 23L34 23L34 22L35 22L35 21L34 21L34 20L36 20L36 19L34 19L34 20L33 20L33 21L34 21L34 22L31 22L31 23L30 23L30 22L29 22L29 20L30 20L30 21L32 21L32 20L31 20L31 19L30 19L30 18L28 18L28 17L26 17L26 16L27 16L27 15L28 15L28 14L27 14L27 15L26 15L26 16L22 16L22 15L23 15L23 13L21 13L21 14L20 14L20 13ZM25 13L25 14L26 14L26 13ZM32 13L32 14L33 14L33 13ZM47 13L47 14L49 14L49 13ZM21 14L21 15L22 15L22 14ZM39 14L39 15L40 15L40 17L39 17L39 18L40 18L40 17L41 17L41 15L40 15L40 14ZM14 15L14 16L15 16L15 15ZM2 16L2 17L3 17L3 16ZM6 16L6 17L7 17L7 16ZM50 16L50 17L49 17L49 19L50 19L50 17L51 17L51 16ZM55 16L55 17L56 17L56 16ZM16 17L16 18L17 18L17 19L18 19L18 18L17 18L17 17ZM32 17L32 18L33 18L33 17ZM10 19L10 20L12 20L12 19ZM25 19L25 20L24 20L24 21L28 21L28 20L29 20L29 19L27 19L27 20L26 20L26 19ZM0 20L0 21L3 21L3 20ZM38 20L38 21L39 21L39 20ZM7 21L7 22L8 22L8 23L7 23L7 24L8 24L8 23L9 23L9 24L10 24L10 23L9 23L9 22L8 22L8 21ZM11 21L11 22L12 22L12 21ZM17 21L17 22L16 22L16 23L15 23L15 24L16 24L16 28L17 28L17 27L18 27L18 25L17 25L17 22L18 22L18 21ZM28 22L28 23L29 23L29 22ZM41 23L41 24L42 24L42 23ZM46 23L46 24L44 24L44 25L41 25L41 27L42 27L42 28L43 28L43 29L40 29L40 30L41 30L41 31L40 31L40 32L41 32L41 33L40 33L40 34L42 34L42 35L41 35L41 36L42 36L42 35L44 35L44 34L46 34L46 33L47 33L47 31L46 31L46 30L45 30L45 31L44 31L44 30L43 30L43 29L45 29L45 27L47 27L47 26L46 26L46 24L47 24L47 23ZM33 24L33 25L34 25L34 24ZM25 25L25 26L24 26L24 27L23 27L23 28L22 28L22 27L21 27L21 26L20 26L20 27L19 27L19 28L18 28L18 29L14 29L14 30L13 30L13 31L14 31L14 32L13 32L13 33L16 33L16 35L20 35L20 33L21 33L21 34L22 34L22 35L23 35L23 33L25 33L25 32L26 32L26 33L27 33L27 32L26 32L26 31L25 31L25 30L26 30L26 29L25 29L25 30L24 30L24 31L25 31L25 32L23 32L23 31L22 31L22 30L23 30L23 28L25 28L25 27L26 27L26 25ZM38 25L38 26L40 26L40 25ZM44 25L44 26L43 26L43 27L44 27L44 26L45 26L45 25ZM14 26L14 27L15 27L15 26ZM36 26L36 27L37 27L37 26ZM54 26L54 27L53 27L53 28L54 28L54 29L55 29L55 26ZM5 27L5 30L8 30L8 27ZM27 27L27 30L30 30L30 27ZM49 27L49 30L52 30L52 27ZM6 28L6 29L7 29L7 28ZM19 28L19 29L18 29L18 30L19 30L19 29L20 29L20 31L17 31L17 30L15 30L15 31L16 31L16 33L18 33L18 34L19 34L19 32L20 32L20 31L21 31L21 33L22 33L22 31L21 31L21 30L22 30L22 29L21 29L21 28ZM28 28L28 29L29 29L29 28ZM46 28L46 29L47 29L47 28ZM50 28L50 29L51 29L51 28ZM37 30L37 32L38 32L38 30ZM53 30L53 32L55 32L55 31L54 31L54 30ZM4 32L4 33L5 33L5 32ZM6 32L6 33L7 33L7 34L9 34L9 33L7 33L7 32ZM45 32L45 33L46 33L46 32ZM34 33L34 34L35 34L35 33ZM43 33L43 34L44 34L44 33ZM55 33L55 34L56 34L56 33ZM24 34L24 36L25 36L25 35L26 35L26 34ZM39 35L39 36L40 36L40 35ZM27 36L27 37L28 37L28 36ZM6 37L6 38L7 38L7 39L5 39L5 40L7 40L7 39L8 39L8 41L9 41L9 39L8 39L8 38L9 38L9 37L8 37L8 38L7 38L7 37ZM10 37L10 38L11 38L11 37ZM19 37L19 39L17 39L17 41L18 41L18 40L19 40L19 39L20 39L20 38L21 38L21 37ZM51 37L51 38L52 38L52 37ZM37 38L37 39L38 39L38 38ZM53 38L53 39L57 39L57 38ZM40 40L40 41L41 41L41 40ZM48 41L48 42L49 42L49 43L48 43L48 44L49 44L49 43L50 43L50 42L49 42L49 41ZM9 42L9 43L11 43L11 42ZM39 42L39 43L40 43L40 45L39 45L39 44L37 44L37 43L36 43L36 44L37 44L37 46L36 46L36 48L37 48L37 46L38 46L38 45L39 45L39 46L40 46L40 51L38 51L38 49L39 49L39 47L38 47L38 49L37 49L37 51L38 51L38 52L37 52L37 53L38 53L38 52L40 52L40 53L41 53L41 46L40 46L40 45L41 45L41 43L40 43L40 42ZM46 42L46 43L47 43L47 42ZM44 43L44 45L45 45L45 46L44 46L44 47L46 47L46 48L47 48L47 47L46 47L46 45L47 45L47 44L46 44L46 45L45 45L45 43ZM6 44L6 45L7 45L7 44ZM11 46L11 47L12 47L12 49L11 49L11 50L12 50L12 49L13 49L13 48L14 48L14 49L15 49L15 50L16 50L16 51L17 51L17 50L16 50L16 48L15 48L15 47L12 47L12 46ZM53 46L53 47L54 47L54 46ZM6 48L6 49L7 49L7 48ZM24 48L24 49L25 49L25 48ZM44 48L44 50L46 50L46 49L45 49L45 48ZM27 49L27 52L30 52L30 49ZM49 49L49 52L52 52L52 49ZM28 50L28 51L29 51L29 50ZM50 50L50 51L51 51L51 50ZM53 50L53 54L55 54L55 53L54 53L54 52L56 52L56 51L54 51L54 50ZM11 51L11 52L12 52L12 51ZM43 52L43 53L44 53L44 55L45 55L45 53L44 53L44 52ZM30 53L30 54L31 54L31 53ZM17 56L17 57L19 57L19 56ZM26 56L26 57L27 57L27 56ZM56 56L56 57L57 57L57 56ZM0 0L0 7L7 7L7 0ZM1 1L1 6L6 6L6 1ZM2 2L2 5L5 5L5 2ZM50 0L50 7L57 7L57 0ZM51 1L51 6L56 6L56 1ZM52 2L52 5L55 5L55 2ZM0 50L0 57L7 57L7 50ZM1 51L1 56L6 56L6 51ZM2 52L2 55L5 55L5 52Z" fill="#000000"/></g></g></svg>
