<?xml version="1.0" encoding="UTF-8"?>
<svg xmlns="http://www.w3.org/2000/svg" version="1.1" width="300" height="300" viewBox="0 0 300 300"><rect x="0" y="0" width="300" height="300" fill="#fefefe"/><g transform="scale(4.615)"><g transform="translate(4,4)"><path fill-rule="evenodd" d="M9 0L9 1L8 1L8 2L11 2L11 1L10 1L10 0ZM12 0L12 3L10 3L10 4L9 4L9 3L8 3L8 4L9 4L9 5L8 5L8 7L9 7L9 5L11 5L11 4L12 4L12 8L11 8L11 6L10 6L10 8L6 8L6 9L5 9L5 8L0 8L0 9L5 9L5 10L3 10L3 11L2 11L2 10L0 10L0 12L1 12L1 11L2 11L2 13L1 13L1 15L0 15L0 18L1 18L1 16L2 16L2 19L0 19L0 21L2 21L2 22L3 22L3 23L0 23L0 26L1 26L1 27L0 27L0 29L3 29L3 30L4 30L4 31L3 31L3 32L2 32L2 30L0 30L0 31L1 31L1 32L0 32L0 35L1 35L1 34L3 34L3 32L4 32L4 37L2 37L2 36L0 36L0 39L1 39L1 37L2 37L2 39L3 39L3 38L5 38L5 39L4 39L4 41L3 41L3 40L0 40L0 41L1 41L1 42L0 42L0 43L1 43L1 44L4 44L4 45L5 45L5 47L3 47L3 45L0 45L0 48L5 48L5 47L7 47L7 48L6 48L6 49L7 49L7 48L8 48L8 51L9 51L9 49L10 49L10 50L11 50L11 51L10 51L10 52L8 52L8 57L11 57L11 56L9 56L9 53L11 53L11 54L12 54L12 57L13 57L13 56L14 56L14 57L15 57L15 55L16 55L16 56L17 56L17 57L19 57L19 55L20 55L20 54L18 54L18 55L17 55L17 53L20 53L20 52L21 52L21 51L22 51L22 50L26 50L26 52L24 52L24 53L23 53L23 54L22 54L22 53L21 53L21 54L22 54L22 56L23 56L23 57L26 57L26 56L27 56L27 57L29 57L29 56L30 56L30 57L31 57L31 56L35 56L35 57L39 57L39 56L37 56L37 55L41 55L41 57L42 57L42 55L43 55L43 57L44 57L44 54L45 54L45 57L47 57L47 56L48 56L48 57L49 57L49 56L50 56L50 57L52 57L52 55L51 55L51 53L52 53L52 54L53 54L53 55L54 55L54 56L53 56L53 57L54 57L54 56L55 56L55 57L56 57L56 56L55 56L55 53L56 53L56 52L55 52L55 51L56 51L56 50L57 50L57 48L56 48L56 46L57 46L57 45L56 45L56 44L57 44L57 43L56 43L56 42L55 42L55 39L57 39L57 36L55 36L55 35L56 35L56 34L55 34L55 33L54 33L54 32L56 32L56 33L57 33L57 32L56 32L56 30L57 30L57 28L56 28L56 27L55 27L55 26L57 26L57 25L56 25L56 22L57 22L57 19L56 19L56 16L57 16L57 15L56 15L56 14L57 14L57 13L56 13L56 10L54 10L54 11L50 11L50 8L49 8L49 6L48 6L48 7L47 7L47 5L48 5L48 0L45 0L45 2L44 2L44 3L43 3L43 4L40 4L40 5L39 5L39 6L38 6L38 4L39 4L39 3L41 3L41 2L43 2L43 0L41 0L41 1L40 1L40 0L39 0L39 1L38 1L38 0L37 0L37 1L38 1L38 2L37 2L37 3L36 3L36 0L35 0L35 1L33 1L33 0L32 0L32 1L31 1L31 0L29 0L29 1L28 1L28 2L27 2L27 1L25 1L25 0L23 0L23 2L27 2L27 3L30 3L30 4L26 4L26 3L23 3L23 4L19 4L19 3L21 3L21 2L22 2L22 0L21 0L21 1L20 1L20 0L19 0L19 1L17 1L17 2L15 2L15 0L14 0L14 2L13 2L13 0ZM19 1L19 2L20 2L20 1ZM29 1L29 2L31 2L31 3L32 3L32 4L31 4L31 8L32 8L32 10L29 10L29 9L28 9L28 11L29 11L29 12L28 12L28 13L27 13L27 14L26 14L26 12L27 12L27 11L26 11L26 12L25 12L25 10L24 10L24 9L25 9L25 8L26 8L26 4L25 4L25 8L24 8L24 6L23 6L23 5L24 5L24 4L23 4L23 5L22 5L22 6L21 6L21 7L22 7L22 6L23 6L23 8L19 8L19 7L20 7L20 5L19 5L19 4L17 4L17 3L15 3L15 2L14 2L14 4L13 4L13 3L12 3L12 4L13 4L13 8L12 8L12 9L13 9L13 8L14 8L14 10L15 10L15 13L12 13L12 14L13 14L13 15L12 15L12 16L14 16L14 17L11 17L11 12L10 12L10 10L9 10L9 9L6 9L6 10L5 10L5 11L3 11L3 14L2 14L2 16L3 16L3 14L5 14L5 15L4 15L4 17L3 17L3 18L4 18L4 17L5 17L5 16L9 16L9 17L8 17L8 18L7 18L7 17L6 17L6 18L5 18L5 19L2 19L2 21L5 21L5 22L8 22L8 21L5 21L5 20L7 20L7 19L8 19L8 20L9 20L9 23L8 23L8 24L7 24L7 23L4 23L4 24L2 24L2 25L1 25L1 26L2 26L2 27L1 27L1 28L2 28L2 27L3 27L3 26L9 26L9 31L4 31L4 32L7 32L7 33L6 33L6 34L5 34L5 37L6 37L6 38L7 38L7 39L6 39L6 40L7 40L7 41L6 41L6 42L3 42L3 41L2 41L2 43L4 43L4 44L5 44L5 45L6 45L6 46L8 46L8 45L9 45L9 48L10 48L10 49L11 49L11 48L12 48L12 46L13 46L13 44L14 44L14 42L12 42L12 41L14 41L14 40L15 40L15 39L16 39L16 40L17 40L17 41L15 41L15 42L17 42L17 43L18 43L18 42L19 42L19 43L20 43L20 44L19 44L19 45L20 45L20 46L18 46L18 47L20 47L20 48L19 48L19 49L17 49L17 45L18 45L18 44L17 44L17 45L16 45L16 44L15 44L15 45L14 45L14 46L16 46L16 47L14 47L14 48L13 48L13 50L12 50L12 51L11 51L11 52L12 52L12 54L13 54L13 55L15 55L15 54L16 54L16 53L17 53L17 52L18 52L18 51L17 51L17 50L19 50L19 51L21 51L21 49L23 49L23 48L24 48L24 49L26 49L26 48L28 48L28 47L29 47L29 48L30 48L30 47L29 47L29 46L30 46L30 45L31 45L31 44L30 44L30 43L29 43L29 42L30 42L30 41L31 41L31 42L32 42L32 43L33 43L33 44L32 44L32 46L31 46L31 47L32 47L32 46L35 46L35 45L34 45L34 43L37 43L37 42L35 42L35 40L38 40L38 42L39 42L39 45L38 45L38 46L39 46L39 47L38 47L38 48L37 48L37 49L38 49L38 50L36 50L36 49L34 49L34 48L36 48L36 47L34 47L34 48L31 48L31 49L33 49L33 50L31 50L31 53L30 53L30 54L27 54L27 56L29 56L29 55L30 55L30 56L31 56L31 54L32 54L32 53L33 53L33 54L34 54L34 55L35 55L35 56L36 56L36 54L35 54L35 53L33 53L33 52L32 52L32 51L34 51L34 52L35 52L35 51L34 51L34 50L36 50L36 52L38 52L38 54L40 54L40 53L43 53L43 54L44 54L44 53L45 53L45 54L47 54L47 53L48 53L48 50L47 50L47 49L48 49L48 48L49 48L49 47L48 47L48 48L47 48L47 47L46 47L46 48L45 48L45 47L44 47L44 45L45 45L45 46L47 46L47 45L48 45L48 44L50 44L50 45L49 45L49 46L50 46L50 48L51 48L51 46L52 46L52 48L54 48L54 49L55 49L55 50L54 50L54 51L55 51L55 50L56 50L56 48L54 48L54 47L55 47L55 46L56 46L56 45L55 45L55 44L54 44L54 45L52 45L52 44L53 44L53 43L54 43L54 42L53 42L53 41L51 41L51 42L50 42L50 43L48 43L48 44L47 44L47 45L45 45L45 44L46 44L46 43L45 43L45 42L48 42L48 41L49 41L49 39L52 39L52 40L53 40L53 39L55 39L55 38L54 38L54 37L53 37L53 35L55 35L55 34L54 34L54 33L52 33L52 32L54 32L54 31L50 31L50 32L49 32L49 31L48 31L48 29L46 29L46 30L47 30L47 31L45 31L45 30L44 30L44 29L45 29L45 28L46 28L46 27L47 27L47 28L48 28L48 26L47 26L47 25L46 25L46 24L47 24L47 23L48 23L48 24L49 24L49 25L50 25L50 26L52 26L52 25L53 25L53 24L54 24L54 25L55 25L55 24L54 24L54 23L55 23L55 22L56 22L56 21L55 21L55 20L56 20L56 19L55 19L55 20L53 20L53 19L52 19L52 18L51 18L51 17L53 17L53 18L55 18L55 17L53 17L53 15L52 15L52 16L51 16L51 15L50 15L50 14L51 14L51 12L50 12L50 11L49 11L49 12L45 12L45 11L46 11L46 10L47 10L47 7L46 7L46 6L45 6L45 5L47 5L47 3L44 3L44 6L43 6L43 5L40 5L40 6L39 6L39 9L38 9L38 6L37 6L37 7L36 7L36 5L37 5L37 4L36 4L36 5L35 5L35 4L33 4L33 3L34 3L34 2L33 2L33 1L32 1L32 2L31 2L31 1ZM46 1L46 2L47 2L47 1ZM32 2L32 3L33 3L33 2ZM38 2L38 3L39 3L39 2ZM15 4L15 5L14 5L14 7L15 7L15 8L16 8L16 9L17 9L17 10L18 10L18 11L16 11L16 13L15 13L15 14L14 14L14 16L15 16L15 17L16 17L16 13L17 13L17 14L20 14L20 12L19 12L19 11L21 11L21 12L22 12L22 13L21 13L21 15L23 15L23 14L22 14L22 13L24 13L24 14L25 14L25 13L24 13L24 11L23 11L23 10L22 10L22 9L21 9L21 10L20 10L20 9L19 9L19 8L18 8L18 7L19 7L19 6L18 6L18 5L17 5L17 6L16 6L16 7L15 7L15 5L16 5L16 4ZM32 4L32 5L33 5L33 6L32 6L32 7L33 7L33 9L34 9L34 8L35 8L35 9L37 9L37 10L36 10L36 12L35 12L35 13L37 13L37 14L38 14L38 15L39 15L39 16L38 16L38 17L37 17L37 16L35 16L35 14L32 14L32 11L33 11L33 10L32 10L32 11L31 11L31 13L30 13L30 14L29 14L29 13L28 13L28 14L29 14L29 16L28 16L28 15L27 15L27 16L28 16L28 17L27 17L27 18L28 18L28 19L27 19L27 20L28 20L28 19L29 19L29 20L30 20L30 21L29 21L29 22L30 22L30 23L28 23L28 24L30 24L30 25L29 25L29 26L28 26L28 25L27 25L27 26L26 26L26 25L25 25L25 24L27 24L27 22L28 22L28 21L25 21L25 20L26 20L26 18L25 18L25 17L26 17L26 15L24 15L24 16L25 16L25 17L22 17L22 16L21 16L21 17L22 17L22 18L21 18L21 20L22 20L22 19L23 19L23 20L24 20L24 21L23 21L23 22L22 22L22 21L21 21L21 22L22 22L22 23L21 23L21 24L19 24L19 23L20 23L20 22L19 22L19 21L20 21L20 19L19 19L19 20L18 20L18 19L17 19L17 21L16 21L16 20L15 20L15 21L16 21L16 22L14 22L14 21L13 21L13 20L14 20L14 19L12 19L12 20L10 20L10 23L9 23L9 24L10 24L10 23L11 23L11 24L12 24L12 26L11 26L11 25L10 25L10 26L11 26L11 27L10 27L10 29L11 29L11 32L10 32L10 31L9 31L9 32L10 32L10 33L9 33L9 34L12 34L12 33L13 33L13 35L10 35L10 37L9 37L9 35L7 35L7 34L6 34L6 35L7 35L7 36L6 36L6 37L8 37L8 38L10 38L10 39L9 39L9 40L10 40L10 39L11 39L11 38L12 38L12 40L11 40L11 41L12 41L12 40L14 40L14 39L13 39L13 38L12 38L12 37L14 37L14 33L13 33L13 32L16 32L16 33L15 33L15 34L16 34L16 33L19 33L19 34L20 34L20 35L19 35L19 36L18 36L18 37L17 37L17 38L18 38L18 37L19 37L19 38L20 38L20 39L17 39L17 40L18 40L18 41L17 41L17 42L18 42L18 41L19 41L19 42L20 42L20 41L19 41L19 40L21 40L21 39L22 39L22 40L23 40L23 39L24 39L24 40L25 40L25 39L26 39L26 40L27 40L27 41L26 41L26 42L27 42L27 41L28 41L28 39L27 39L27 38L28 38L28 37L27 37L27 35L26 35L26 34L27 34L27 32L28 32L28 33L29 33L29 34L30 34L30 36L29 36L29 37L31 37L31 38L29 38L29 39L33 39L33 40L35 40L35 39L37 39L37 38L38 38L38 37L37 37L37 36L38 36L38 33L37 33L37 32L35 32L35 34L37 34L37 36L35 36L35 35L34 35L34 34L33 34L33 33L32 33L32 31L35 31L35 30L37 30L37 29L38 29L38 28L39 28L39 27L37 27L37 28L36 28L36 26L34 26L34 27L33 27L33 26L32 26L32 24L33 24L33 25L37 25L37 26L38 26L38 25L40 25L40 24L41 24L41 22L43 22L43 23L42 23L42 24L43 24L43 25L41 25L41 26L43 26L43 27L44 27L44 28L43 28L43 29L41 29L41 30L43 30L43 32L41 32L41 33L39 33L39 34L40 34L40 35L39 35L39 37L40 37L40 38L41 38L41 39L42 39L42 38L43 38L43 37L44 37L44 38L45 38L45 37L44 37L44 36L47 36L47 35L44 35L44 33L43 33L43 32L45 32L45 33L46 33L46 32L45 32L45 31L44 31L44 30L43 30L43 29L44 29L44 28L45 28L45 27L46 27L46 26L45 26L45 27L44 27L44 24L43 24L43 23L44 23L44 20L45 20L45 21L46 21L46 20L45 20L45 18L44 18L44 15L47 15L47 16L48 16L48 17L47 17L47 18L46 18L46 19L47 19L47 20L48 20L48 21L47 21L47 22L45 22L45 23L47 23L47 22L49 22L49 21L51 21L51 22L50 22L50 23L49 23L49 24L50 24L50 25L51 25L51 24L53 24L53 22L54 22L54 21L51 21L51 20L52 20L52 19L50 19L50 17L51 17L51 16L50 16L50 15L49 15L49 14L50 14L50 12L49 12L49 13L47 13L47 14L45 14L45 13L44 13L44 11L45 11L45 9L44 9L44 8L43 8L43 6L42 6L42 7L41 7L41 6L40 6L40 7L41 7L41 8L42 8L42 9L41 9L41 11L40 11L40 12L41 12L41 11L43 11L43 13L41 13L41 14L43 14L43 13L44 13L44 15L42 15L42 16L41 16L41 15L39 15L39 14L38 14L38 13L39 13L39 11L38 11L38 9L37 9L37 8L35 8L35 5L33 5L33 4ZM27 5L27 8L30 8L30 5ZM17 6L17 7L16 7L16 8L17 8L17 7L18 7L18 6ZM28 6L28 7L29 7L29 6ZM33 6L33 7L34 7L34 6ZM44 6L44 7L45 7L45 6ZM23 8L23 9L24 9L24 8ZM48 8L48 9L49 9L49 8ZM51 8L51 10L52 10L52 8ZM53 8L53 9L54 9L54 8ZM55 8L55 9L56 9L56 8ZM39 9L39 10L40 10L40 9ZM6 10L6 11L5 11L5 12L4 12L4 13L5 13L5 14L6 14L6 15L7 15L7 14L6 14L6 13L9 13L9 14L8 14L8 15L9 15L9 14L10 14L10 13L9 13L9 12L6 12L6 11L7 11L7 10ZM11 10L11 11L13 11L13 12L14 12L14 11L13 11L13 10ZM21 10L21 11L22 11L22 10ZM17 12L17 13L18 13L18 12ZM33 12L33 13L34 13L34 12ZM52 12L52 13L53 13L53 14L54 14L54 13L55 13L55 14L56 14L56 13L55 13L55 12L54 12L54 13L53 13L53 12ZM30 14L30 15L32 15L32 18L30 18L30 20L31 20L31 19L32 19L32 18L33 18L33 19L36 19L36 20L38 20L38 23L37 23L37 24L40 24L40 22L39 22L39 21L43 21L43 20L44 20L44 18L43 18L43 19L42 19L42 18L41 18L41 20L38 20L38 19L39 19L39 17L41 17L41 16L39 16L39 17L38 17L38 18L37 18L37 17L35 17L35 16L33 16L33 15L32 15L32 14ZM17 15L17 17L18 17L18 18L20 18L20 17L19 17L19 16L20 16L20 15L19 15L19 16L18 16L18 15ZM48 15L48 16L49 16L49 15ZM42 16L42 17L43 17L43 16ZM45 16L45 17L46 17L46 16ZM6 18L6 19L7 19L7 18ZM8 18L8 19L9 19L9 18ZM23 18L23 19L24 19L24 18ZM47 18L47 19L48 19L48 18ZM32 20L32 21L31 21L31 24L32 24L32 23L35 23L35 21L34 21L34 20ZM12 21L12 22L11 22L11 23L12 23L12 22L13 22L13 21ZM17 21L17 22L18 22L18 21ZM24 21L24 22L23 22L23 23L24 23L24 24L21 24L21 25L19 25L19 26L18 26L18 25L17 25L17 24L18 24L18 23L17 23L17 24L16 24L16 23L13 23L13 25L14 25L14 26L12 26L12 27L11 27L11 29L12 29L12 31L15 31L15 29L16 29L16 30L18 30L18 29L19 29L19 26L20 26L20 27L21 27L21 28L20 28L20 30L19 30L19 31L17 31L17 32L20 32L20 34L21 34L21 33L22 33L22 34L23 34L23 35L20 35L20 36L19 36L19 37L23 37L23 38L24 38L24 37L23 37L23 36L24 36L24 34L23 34L23 33L25 33L25 34L26 34L26 31L23 31L23 28L25 28L25 29L26 29L26 28L25 28L25 27L26 27L26 26L22 26L22 27L21 27L21 25L24 25L24 24L25 24L25 23L26 23L26 22L25 22L25 21ZM50 23L50 24L51 24L51 23ZM5 24L5 25L7 25L7 24ZM15 24L15 25L16 25L16 24ZM2 25L2 26L3 26L3 25ZM17 26L17 27L16 27L16 29L18 29L18 28L17 28L17 27L18 27L18 26ZM31 26L31 27L32 27L32 30L31 30L31 31L28 31L28 32L29 32L29 33L31 33L31 35L33 35L33 34L32 34L32 33L31 33L31 31L32 31L32 30L35 30L35 28L33 28L33 27L32 27L32 26ZM53 26L53 27L54 27L54 26ZM5 27L5 30L8 30L8 27ZM13 27L13 28L12 28L12 29L13 29L13 30L14 30L14 28L15 28L15 27ZM27 27L27 30L30 30L30 27ZM41 27L41 28L42 28L42 27ZM49 27L49 30L52 30L52 27ZM6 28L6 29L7 29L7 28ZM21 28L21 29L22 29L22 28ZM28 28L28 29L29 29L29 28ZM50 28L50 29L51 29L51 28ZM54 28L54 29L53 29L53 30L54 30L54 29L55 29L55 28ZM39 29L39 30L38 30L38 32L39 32L39 30L40 30L40 29ZM20 30L20 32L23 32L23 31L21 31L21 30ZM47 31L47 32L48 32L48 33L49 33L49 32L48 32L48 31ZM1 32L1 33L2 33L2 32ZM11 32L11 33L12 33L12 32ZM50 32L50 34L48 34L48 35L50 35L50 36L51 36L51 37L52 37L52 35L53 35L53 34L52 34L52 33L51 33L51 32ZM17 34L17 35L18 35L18 34ZM42 34L42 35L41 35L41 36L40 36L40 37L41 37L41 36L42 36L42 37L43 37L43 36L44 36L44 35L43 35L43 34ZM50 34L50 35L52 35L52 34ZM11 36L11 37L12 37L12 36ZM25 36L25 38L26 38L26 36ZM32 36L32 37L34 37L34 38L33 38L33 39L34 39L34 38L35 38L35 36ZM48 36L48 37L47 37L47 39L46 39L46 40L47 40L47 39L49 39L49 38L50 38L50 37L49 37L49 36ZM15 37L15 38L16 38L16 37ZM52 38L52 39L53 39L53 38ZM7 39L7 40L8 40L8 39ZM38 39L38 40L40 40L40 39ZM43 39L43 40L42 40L42 41L41 41L41 42L42 42L42 44L41 44L41 45L40 45L40 47L39 47L39 48L38 48L38 49L39 49L39 48L41 48L41 50L38 50L38 52L39 52L39 51L40 51L40 52L41 52L41 50L42 50L42 51L43 51L43 53L44 53L44 52L47 52L47 50L43 50L43 49L44 49L44 48L43 48L43 47L42 47L42 48L41 48L41 46L43 46L43 45L44 45L44 43L43 43L43 42L44 42L44 41L43 41L43 40L45 40L45 39ZM31 40L31 41L32 41L32 42L33 42L33 43L34 43L34 42L33 42L33 41L32 41L32 40ZM7 41L7 42L6 42L6 43L5 43L5 44L6 44L6 45L7 45L7 44L8 44L8 43L10 43L10 45L12 45L12 44L13 44L13 43L10 43L10 42L9 42L9 41ZM21 41L21 42L22 42L22 43L21 43L21 44L22 44L22 45L21 45L21 46L20 46L20 47L24 47L24 48L25 48L25 47L24 47L24 46L25 46L25 45L24 45L24 44L23 44L23 42L25 42L25 41L23 41L23 42L22 42L22 41ZM39 41L39 42L40 42L40 41ZM7 42L7 43L6 43L6 44L7 44L7 43L8 43L8 42ZM51 42L51 43L50 43L50 44L51 44L51 43L53 43L53 42ZM25 43L25 44L27 44L27 43ZM28 43L28 45L26 45L26 47L27 47L27 46L28 46L28 45L29 45L29 43ZM22 45L22 46L23 46L23 45ZM36 45L36 46L37 46L37 45ZM50 45L50 46L51 46L51 45ZM54 45L54 46L55 46L55 45ZM1 46L1 47L2 47L2 46ZM10 46L10 47L11 47L11 46ZM15 48L15 49L14 49L14 51L13 51L13 54L14 54L14 53L16 53L16 52L15 52L15 51L16 51L16 50L15 50L15 49L16 49L16 48ZM42 48L42 49L43 49L43 48ZM19 49L19 50L20 50L20 49ZM27 49L27 52L30 52L30 49ZM49 49L49 52L52 52L52 49ZM28 50L28 51L29 51L29 50ZM50 50L50 51L51 51L51 50ZM53 52L53 54L54 54L54 52ZM24 53L24 54L23 54L23 55L24 55L24 56L26 56L26 53ZM41 54L41 55L42 55L42 54ZM48 55L48 56L49 56L49 55ZM50 55L50 56L51 56L51 55ZM0 0L0 7L7 7L7 0ZM1 1L1 6L6 6L6 1ZM2 2L2 5L5 5L5 2ZM50 0L50 7L57 7L57 0ZM51 1L51 6L56 6L56 1ZM52 2L52 5L55 5L55 2ZM0 50L0 57L7 57L7 50ZM1 51L1 56L6 56L6 51ZM2 52L2 55L5 55L5 52Z" fill="#000000"/></g></g></svg>
