<?xml version="1.0" encoding="UTF-8"?>
<svg xmlns="http://www.w3.org/2000/svg" version="1.1" width="300" height="300" viewBox="0 0 300 300"><rect x="0" y="0" width="300" height="300" fill="#fefefe"/><g transform="scale(4.615)"><g transform="translate(4,4)"><path fill-rule="evenodd" d="M9 0L9 1L8 1L8 2L10 2L10 1L14 1L14 2L13 2L13 3L12 3L12 4L11 4L11 3L8 3L8 4L11 4L11 5L13 5L13 6L12 6L12 7L11 7L11 6L10 6L10 8L6 8L6 9L8 9L8 10L6 10L6 11L5 11L5 12L4 12L4 9L5 9L5 8L0 8L0 9L2 9L2 11L0 11L0 13L1 13L1 12L4 12L4 13L2 13L2 15L1 15L1 14L0 14L0 15L1 15L1 16L2 16L2 15L7 15L7 16L6 16L6 17L5 17L5 16L3 16L3 17L0 17L0 18L2 18L2 19L1 19L1 20L0 20L0 21L2 21L2 22L0 22L0 23L1 23L1 24L0 24L0 25L1 25L1 24L2 24L2 27L0 27L0 29L1 29L1 30L0 30L0 31L1 31L1 32L0 32L0 33L1 33L1 34L0 34L0 35L1 35L1 37L2 37L2 36L5 36L5 37L3 37L3 38L2 38L2 39L3 39L3 38L4 38L4 40L2 40L2 41L1 41L1 42L2 42L2 44L0 44L0 48L5 48L5 47L7 47L7 46L9 46L9 44L10 44L10 45L13 45L13 44L12 44L12 43L11 43L11 40L12 40L12 42L13 42L13 40L14 40L14 42L15 42L15 43L14 43L14 46L15 46L15 43L16 43L16 44L18 44L18 45L17 45L17 46L18 46L18 48L17 48L17 49L19 49L19 50L20 50L20 51L17 51L17 53L16 53L16 51L14 51L14 50L15 50L15 49L16 49L16 47L15 47L15 48L14 48L14 47L13 47L13 46L11 46L11 48L10 48L10 47L8 47L8 51L9 51L9 52L8 52L8 57L11 57L11 54L12 54L12 53L13 53L13 52L14 52L14 53L16 53L16 54L15 54L15 55L12 55L12 57L16 57L16 56L17 56L17 57L20 57L20 56L17 56L17 54L19 54L19 55L20 55L20 54L19 54L19 53L20 53L20 52L21 52L21 51L22 51L22 50L25 50L25 49L26 49L26 52L24 52L24 53L21 53L21 54L22 54L22 55L23 55L23 56L24 56L24 57L26 57L26 56L27 56L27 57L29 57L29 56L30 56L30 57L31 57L31 56L35 56L35 57L39 57L39 56L37 56L37 55L40 55L40 56L42 56L42 55L44 55L44 54L45 54L45 57L47 57L47 55L49 55L49 56L50 56L50 57L52 57L52 55L51 55L51 53L52 53L52 54L53 54L53 55L54 55L54 56L53 56L53 57L54 57L54 56L55 56L55 57L56 57L56 56L55 56L55 52L56 52L56 53L57 53L57 52L56 52L56 50L57 50L57 48L56 48L56 46L57 46L57 45L56 45L56 44L55 44L55 43L56 43L56 41L55 41L55 39L57 39L57 35L56 35L56 34L57 34L57 32L56 32L56 30L57 30L57 29L54 29L54 28L56 28L56 26L57 26L57 25L56 25L56 22L57 22L57 20L56 20L56 22L53 22L53 21L51 21L51 20L52 20L52 19L53 19L53 20L55 20L55 19L56 19L56 18L53 18L53 17L56 17L56 16L57 16L57 15L56 15L56 14L57 14L57 12L56 12L56 14L54 14L54 12L55 12L55 11L56 11L56 8L55 8L55 10L54 10L54 11L52 11L52 10L51 10L51 11L50 11L50 8L49 8L49 9L48 9L48 8L45 8L45 9L44 9L44 7L45 7L45 6L44 6L44 3L47 3L47 5L46 5L46 4L45 4L45 5L46 5L46 7L47 7L47 5L48 5L48 0L46 0L46 1L45 1L45 2L44 2L44 3L43 3L43 4L40 4L40 5L39 5L39 6L38 6L38 9L37 9L37 8L35 8L35 5L36 5L36 7L37 7L37 5L38 5L38 4L39 4L39 3L42 3L42 2L43 2L43 0L41 0L41 1L40 1L40 0L39 0L39 1L38 1L38 0L37 0L37 1L38 1L38 3L36 3L36 0L35 0L35 1L33 1L33 0L27 0L27 1L26 1L26 0L23 0L23 1L22 1L22 0L21 0L21 3L22 3L22 2L25 2L25 1L26 1L26 2L27 2L27 1L33 1L33 2L32 2L32 3L31 3L31 4L28 4L28 3L29 3L29 2L28 2L28 3L27 3L27 4L26 4L26 3L23 3L23 4L24 4L24 5L21 5L21 4L19 4L19 3L18 3L18 2L20 2L20 1L18 1L18 0L17 0L17 1L18 1L18 2L16 2L16 1L14 1L14 0ZM46 1L46 2L47 2L47 1ZM14 2L14 4L13 4L13 5L14 5L14 6L13 6L13 8L14 8L14 9L12 9L12 10L10 10L10 9L9 9L9 10L10 10L10 12L9 12L9 11L6 11L6 12L7 12L7 13L4 13L4 14L7 14L7 15L8 15L8 16L7 16L7 17L6 17L6 18L7 18L7 19L4 19L4 20L7 20L7 21L5 21L5 22L2 22L2 24L3 24L3 23L6 23L6 24L5 24L5 26L7 26L7 25L6 25L6 24L7 24L7 23L8 23L8 26L9 26L9 30L10 30L10 28L11 28L11 30L13 30L13 31L12 31L12 32L10 32L10 31L4 31L4 30L3 30L3 29L4 29L4 25L3 25L3 27L2 27L2 28L1 28L1 29L2 29L2 30L1 30L1 31L3 31L3 32L1 32L1 33L3 33L3 34L5 34L5 33L6 33L6 34L7 34L7 35L5 35L5 36L8 36L8 33L6 33L6 32L9 32L9 34L10 34L10 35L9 35L9 36L10 36L10 37L8 37L8 38L7 38L7 37L5 37L5 38L7 38L7 39L6 39L6 40L7 40L7 41L6 41L6 42L5 42L5 41L2 41L2 42L3 42L3 44L5 44L5 45L4 45L4 46L3 46L3 47L5 47L5 46L7 46L7 45L6 45L6 44L8 44L8 43L9 43L9 41L8 41L8 38L9 38L9 40L10 40L10 39L12 39L12 40L13 40L13 39L14 39L14 40L15 40L15 39L16 39L16 41L15 41L15 42L17 42L17 43L18 43L18 42L19 42L19 43L20 43L20 44L19 44L19 45L20 45L20 46L19 46L19 47L21 47L21 48L19 48L19 49L20 49L20 50L21 50L21 49L23 49L23 47L25 47L25 48L24 48L24 49L25 49L25 48L27 48L27 47L26 47L26 45L28 45L28 46L29 46L29 45L30 45L30 46L31 46L31 47L32 47L32 46L35 46L35 45L34 45L34 43L35 43L35 44L36 44L36 43L37 43L37 42L35 42L35 40L38 40L38 42L39 42L39 41L43 41L43 39L45 39L45 38L46 38L46 39L47 39L47 40L44 40L44 45L43 45L43 46L41 46L41 44L42 44L42 42L41 42L41 43L39 43L39 45L38 45L38 46L39 46L39 47L38 47L38 48L37 48L37 49L38 49L38 50L36 50L36 49L33 49L33 48L31 48L31 49L33 49L33 50L31 50L31 53L30 53L30 54L27 54L27 53L24 53L24 54L23 54L23 55L24 55L24 56L26 56L26 54L27 54L27 56L29 56L29 55L30 55L30 56L31 56L31 54L32 54L32 53L33 53L33 54L34 54L34 55L35 55L35 56L36 56L36 54L35 54L35 53L33 53L33 52L32 52L32 51L33 51L33 50L36 50L36 52L37 52L37 51L38 51L38 53L37 53L37 54L40 54L40 53L41 53L41 52L42 52L42 53L43 53L43 54L44 54L44 53L45 53L45 54L46 54L46 55L47 55L47 53L48 53L48 50L47 50L47 49L48 49L48 48L49 48L49 47L48 47L48 46L47 46L47 45L48 45L48 44L50 44L50 47L53 47L53 45L52 45L52 44L53 44L53 43L54 43L54 42L53 42L53 41L51 41L51 42L50 42L50 43L49 43L49 42L48 42L48 41L49 41L49 39L47 39L47 38L48 38L48 37L49 37L49 36L50 36L50 39L52 39L52 40L53 40L53 39L54 39L54 38L53 38L53 35L55 35L55 34L54 34L54 32L53 32L53 31L54 31L54 30L53 30L53 31L51 31L51 33L52 33L52 34L50 34L50 32L49 32L49 31L48 31L48 30L47 30L47 29L48 29L48 28L47 28L47 29L46 29L46 30L47 30L47 31L48 31L48 32L43 32L43 30L40 30L40 29L43 29L43 26L42 26L42 28L41 28L41 24L39 24L39 23L40 23L40 22L39 22L39 21L41 21L41 20L38 20L38 22L37 22L37 24L39 24L39 25L38 25L38 26L37 26L37 25L33 25L33 24L32 24L32 23L35 23L35 20L34 20L34 19L33 19L33 20L32 20L32 21L31 21L31 24L32 24L32 26L31 26L31 27L32 27L32 29L31 29L31 31L28 31L28 32L26 32L26 31L24 31L24 30L23 30L23 29L26 29L26 28L24 28L24 27L26 27L26 26L27 26L27 25L28 25L28 26L29 26L29 25L30 25L30 24L25 24L25 23L26 23L26 22L25 22L25 21L24 21L24 20L21 20L21 19L24 19L24 18L22 18L22 17L25 17L25 19L26 19L26 21L27 21L27 23L30 23L30 22L28 22L28 21L30 21L30 20L31 20L31 19L32 19L32 17L33 17L33 18L35 18L35 19L36 19L36 20L37 20L37 19L39 19L39 17L41 17L41 16L42 16L42 17L43 17L43 16L42 16L42 15L44 15L44 18L43 18L43 19L42 19L42 18L41 18L41 19L42 19L42 20L44 20L44 23L43 23L43 24L44 24L44 25L45 25L45 26L44 26L44 27L45 27L45 28L44 28L44 31L45 31L45 28L46 28L46 27L48 27L48 26L47 26L47 25L46 25L46 24L45 24L45 23L46 23L46 22L47 22L47 20L48 20L48 21L49 21L49 23L48 23L48 24L49 24L49 23L50 23L50 25L49 25L49 26L51 26L51 25L52 25L52 26L53 26L53 27L54 27L54 26L53 26L53 23L50 23L50 22L51 22L51 21L49 21L49 18L47 18L47 15L44 15L44 14L47 14L47 13L49 13L49 12L50 12L50 14L49 14L49 15L48 15L48 16L49 16L49 17L50 17L50 19L51 19L51 17L53 17L53 15L54 15L54 14L53 14L53 15L52 15L52 16L51 16L51 15L50 15L50 14L51 14L51 12L50 12L50 11L49 11L49 12L45 12L45 11L42 11L42 10L41 10L41 9L42 9L42 8L41 8L41 7L42 7L42 6L43 6L43 7L44 7L44 6L43 6L43 5L40 5L40 6L39 6L39 9L38 9L38 10L37 10L37 9L35 9L35 8L34 8L34 9L33 9L33 7L34 7L34 6L33 6L33 5L35 5L35 3L34 3L34 4L33 4L33 3L32 3L32 4L31 4L31 8L32 8L32 10L29 10L29 9L28 9L28 10L29 10L29 12L28 12L28 13L26 13L26 12L27 12L27 11L26 11L26 12L25 12L25 10L23 10L23 8L24 8L24 9L25 9L25 8L26 8L26 4L25 4L25 8L24 8L24 6L23 6L23 8L19 8L19 9L20 9L20 10L19 10L19 13L20 13L20 19L19 19L19 20L20 20L20 21L19 21L19 22L20 22L20 23L19 23L19 25L20 25L20 26L18 26L18 25L17 25L17 24L18 24L18 23L17 23L17 24L16 24L16 23L15 23L15 22L16 22L16 21L17 21L17 22L18 22L18 21L17 21L17 20L18 20L18 19L17 19L17 17L16 17L16 16L17 16L17 15L18 15L18 14L17 14L17 13L18 13L18 12L17 12L17 13L16 13L16 12L15 12L15 13L13 13L13 12L14 12L14 11L12 11L12 10L15 10L15 11L18 11L18 10L17 10L17 9L16 9L16 8L17 8L17 7L18 7L18 6L19 6L19 7L20 7L20 5L18 5L18 6L17 6L17 3L15 3L15 2ZM15 4L15 5L16 5L16 4ZM32 4L32 5L33 5L33 4ZM36 4L36 5L37 5L37 4ZM8 5L8 7L9 7L9 5ZM27 5L27 8L30 8L30 5ZM14 6L14 7L15 7L15 8L16 8L16 7L17 7L17 6L16 6L16 7L15 7L15 6ZM21 6L21 7L22 7L22 6ZM28 6L28 7L29 7L29 6ZM32 6L32 7L33 7L33 6ZM40 6L40 7L41 7L41 6ZM48 6L48 7L49 7L49 6ZM51 8L51 9L52 9L52 8ZM53 8L53 9L54 9L54 8ZM15 9L15 10L16 10L16 9ZM45 9L45 10L47 10L47 9ZM22 10L22 11L20 11L20 13L21 13L21 15L23 15L23 14L26 14L26 13L25 13L25 12L24 12L24 11L23 11L23 10ZM32 10L32 11L31 11L31 13L30 13L30 14L29 14L29 13L28 13L28 14L29 14L29 16L28 16L28 15L27 15L27 16L28 16L28 17L26 17L26 15L24 15L24 16L25 16L25 17L26 17L26 19L27 19L27 20L28 20L28 19L29 19L29 20L30 20L30 18L31 18L31 16L35 16L35 17L37 17L37 18L38 18L38 17L39 17L39 16L41 16L41 15L39 15L39 14L43 14L43 13L44 13L44 12L43 12L43 13L39 13L39 12L41 12L41 10L39 10L39 11L37 11L37 10L36 10L36 11L37 11L37 12L35 12L35 13L36 13L36 14L32 14L32 12L33 12L33 13L34 13L34 12L33 12L33 10ZM11 11L11 14L10 14L10 13L9 13L9 12L8 12L8 15L11 15L11 14L13 14L13 15L12 15L12 17L14 17L14 15L15 15L15 16L16 16L16 13L15 13L15 14L13 14L13 13L12 13L12 11ZM21 12L21 13L22 13L22 14L23 14L23 13L24 13L24 12L23 12L23 13L22 13L22 12ZM52 12L52 13L53 13L53 12ZM38 13L38 14L37 14L37 15L35 15L35 16L37 16L37 17L38 17L38 16L39 16L39 15L38 15L38 14L39 14L39 13ZM30 14L30 15L32 15L32 14ZM49 15L49 16L50 16L50 15ZM9 16L9 18L8 18L8 17L7 17L7 18L8 18L8 19L7 19L7 20L9 20L9 18L11 18L11 17L10 17L10 16ZM21 16L21 17L22 17L22 16ZM45 16L45 17L46 17L46 16ZM4 17L4 18L5 18L5 17ZM18 17L18 18L19 18L19 17ZM15 18L15 19L16 19L16 18ZM27 18L27 19L28 19L28 18ZM44 18L44 20L47 20L47 19L45 19L45 18ZM2 19L2 20L3 20L3 19ZM10 19L10 21L7 21L7 22L6 22L6 23L7 23L7 22L10 22L10 23L9 23L9 24L10 24L10 25L9 25L9 26L12 26L12 29L13 29L13 30L14 30L14 32L15 32L15 33L17 33L17 34L16 34L16 35L19 35L19 34L20 34L20 35L21 35L21 36L23 36L23 37L19 37L19 36L17 36L17 37L19 37L19 38L17 38L17 39L19 39L19 40L17 40L17 41L19 41L19 42L20 42L20 41L21 41L21 42L22 42L22 43L21 43L21 44L22 44L22 45L21 45L21 47L23 47L23 46L25 46L25 45L24 45L24 43L25 43L25 44L27 44L27 43L28 43L28 45L29 45L29 44L31 44L31 46L32 46L32 44L33 44L33 43L34 43L34 42L33 42L33 41L32 41L32 40L31 40L31 41L30 41L30 40L29 40L29 41L30 41L30 42L27 42L27 41L28 41L28 39L27 39L27 38L28 38L28 37L27 37L27 38L25 38L25 37L26 37L26 35L27 35L27 34L26 34L26 35L25 35L25 33L26 33L26 32L25 32L25 33L23 33L23 34L24 34L24 36L23 36L23 35L22 35L22 33L21 33L21 34L20 34L20 32L23 32L23 31L21 31L21 30L20 30L20 32L19 32L19 29L22 29L22 28L20 28L20 27L19 27L19 29L18 29L18 28L16 28L16 29L15 29L15 26L14 26L14 25L13 25L13 26L12 26L12 23L11 23L11 20L12 20L12 19ZM13 19L13 20L14 20L14 19ZM15 20L15 21L16 21L16 20ZM13 21L13 22L14 22L14 21ZM22 21L22 22L24 22L24 21ZM45 21L45 22L46 22L46 21ZM41 22L41 23L42 23L42 22ZM10 23L10 24L11 24L11 23ZM13 23L13 24L14 24L14 23ZM23 23L23 24L24 24L24 25L22 25L22 24L20 24L20 25L22 25L22 26L21 26L21 27L22 27L22 26L26 26L26 25L25 25L25 24L24 24L24 23ZM39 25L39 26L40 26L40 25ZM16 26L16 27L18 27L18 26ZM32 26L32 27L33 27L33 28L35 28L35 29L38 29L38 28L39 28L39 27L36 27L36 26L34 26L34 27L33 27L33 26ZM5 27L5 30L8 30L8 27ZM27 27L27 30L30 30L30 27ZM35 27L35 28L36 28L36 27ZM49 27L49 30L52 30L52 27ZM6 28L6 29L7 29L7 28ZM28 28L28 29L29 29L29 28ZM50 28L50 29L51 29L51 28ZM14 29L14 30L15 30L15 29ZM16 29L16 31L15 31L15 32L18 32L18 29ZM32 29L32 31L31 31L31 33L29 33L29 32L28 32L28 33L29 33L29 34L30 34L30 36L29 36L29 37L31 37L31 38L29 38L29 39L33 39L33 40L35 40L35 39L37 39L37 38L38 38L38 37L40 37L40 38L41 38L41 39L38 39L38 40L41 40L41 39L42 39L42 38L43 38L43 37L44 37L44 38L45 38L45 37L44 37L44 36L46 36L46 35L44 35L44 36L43 36L43 35L42 35L42 34L45 34L45 33L43 33L43 32L41 32L41 33L39 33L39 34L40 34L40 35L39 35L39 36L38 36L38 33L37 33L37 32L34 32L34 31L36 31L36 30L33 30L33 29ZM38 30L38 32L39 32L39 30ZM32 31L32 33L31 33L31 34L32 34L32 35L34 35L34 34L35 34L35 36L37 36L37 34L35 34L35 33L33 33L33 31ZM3 32L3 33L4 33L4 32ZM12 32L12 34L11 34L11 35L10 35L10 36L11 36L11 37L10 37L10 38L12 38L12 39L13 39L13 38L12 38L12 37L14 37L14 36L11 36L11 35L12 35L12 34L13 34L13 32ZM48 32L48 33L49 33L49 32ZM52 32L52 33L53 33L53 32ZM55 32L55 33L56 33L56 32ZM18 33L18 34L19 34L19 33ZM1 34L1 35L2 35L2 34ZM14 34L14 35L15 35L15 34ZM48 34L48 35L47 35L47 36L48 36L48 35L50 35L50 36L52 36L52 35L53 35L53 34L52 34L52 35L50 35L50 34ZM32 36L32 37L33 37L33 38L35 38L35 37L33 37L33 36ZM40 36L40 37L41 37L41 38L42 38L42 37L41 37L41 36ZM55 36L55 37L56 37L56 36ZM15 37L15 38L14 38L14 39L15 39L15 38L16 38L16 37ZM23 37L23 38L22 38L22 39L23 39L23 40L21 40L21 41L22 41L22 42L24 42L24 41L25 41L25 43L27 43L27 42L26 42L26 41L27 41L27 39L25 39L25 40L24 40L24 39L23 39L23 38L24 38L24 37ZM19 38L19 39L20 39L20 38ZM52 38L52 39L53 39L53 38ZM19 40L19 41L20 41L20 40ZM23 40L23 41L24 41L24 40ZM31 41L31 42L32 42L32 43L33 43L33 42L32 42L32 41ZM4 42L4 43L5 43L5 42ZM6 42L6 43L8 43L8 42ZM45 42L45 43L46 43L46 44L45 44L45 45L47 45L47 43L48 43L48 42ZM51 42L51 43L50 43L50 44L51 44L51 43L53 43L53 42ZM10 43L10 44L11 44L11 43ZM54 44L54 45L55 45L55 46L56 46L56 45L55 45L55 44ZM1 45L1 47L2 47L2 45ZM22 45L22 46L23 46L23 45ZM51 45L51 46L52 46L52 45ZM40 46L40 47L39 47L39 48L38 48L38 49L39 49L39 48L41 48L41 50L38 50L38 51L40 51L40 52L41 52L41 50L42 50L42 52L43 52L43 53L44 53L44 52L45 52L45 51L43 51L43 49L44 49L44 50L46 50L46 53L47 53L47 50L46 50L46 49L44 49L44 48L46 48L46 47L47 47L47 48L48 48L48 47L47 47L47 46L45 46L45 47L44 47L44 46L43 46L43 47L42 47L42 48L41 48L41 46ZM29 47L29 48L30 48L30 47ZM35 47L35 48L36 48L36 47ZM43 47L43 48L42 48L42 49L43 49L43 48L44 48L44 47ZM6 48L6 49L7 49L7 48ZM9 48L9 49L10 49L10 48ZM12 48L12 49L11 49L11 50L12 50L12 49L13 49L13 50L14 50L14 48ZM53 48L53 49L54 49L54 48ZM55 48L55 50L54 50L54 51L55 51L55 50L56 50L56 48ZM27 49L27 52L30 52L30 49ZM49 49L49 52L52 52L52 49ZM9 50L9 51L10 51L10 52L11 52L11 51L10 51L10 50ZM28 50L28 51L29 51L29 50ZM50 50L50 51L51 51L51 50ZM12 51L12 52L13 52L13 51ZM53 52L53 53L54 53L54 52ZM9 53L9 55L10 55L10 54L11 54L11 53ZM41 54L41 55L42 55L42 54ZM15 55L15 56L16 56L16 55ZM50 55L50 56L51 56L51 55ZM43 56L43 57L44 57L44 56ZM0 0L0 7L7 7L7 0ZM1 1L1 6L6 6L6 1ZM2 2L2 5L5 5L5 2ZM50 0L50 7L57 7L57 0ZM51 1L51 6L56 6L56 1ZM52 2L52 5L55 5L55 2ZM0 50L0 57L7 57L7 50ZM1 51L1 56L6 56L6 51ZM2 52L2 55L5 55L5 52Z" fill="#000000"/></g></g></svg>
