<?xml version="1.0" encoding="UTF-8"?>
<svg xmlns="http://www.w3.org/2000/svg" version="1.1" width="300" height="300" viewBox="0 0 300 300"><rect x="0" y="0" width="300" height="300" fill="#fefefe"/><g transform="scale(4.615)"><g transform="translate(4,4)"><path fill-rule="evenodd" d="M9 0L9 1L8 1L8 2L9 2L9 1L10 1L10 2L11 2L11 1L12 1L12 2L13 2L13 4L12 4L12 3L10 3L10 4L12 4L12 7L11 7L11 5L10 5L10 7L11 7L11 9L10 9L10 8L6 8L6 9L5 9L5 8L0 8L0 9L4 9L4 11L3 11L3 10L2 10L2 11L1 11L1 10L0 10L0 11L1 11L1 12L2 12L2 11L3 11L3 13L2 13L2 15L3 15L3 13L4 13L4 14L5 14L5 13L4 13L4 11L7 11L7 12L6 12L6 13L7 13L7 12L8 12L8 13L9 13L9 12L10 12L10 13L11 13L11 12L12 12L12 11L14 11L14 12L13 12L13 13L15 13L15 14L14 14L14 15L12 15L12 16L11 16L11 14L10 14L10 15L9 15L9 16L11 16L11 17L8 17L8 16L5 16L5 18L4 18L4 17L2 17L2 16L1 16L1 15L0 15L0 24L1 24L1 25L3 25L3 24L4 24L4 25L7 25L7 26L0 26L0 27L3 27L3 28L4 28L4 30L2 30L2 29L1 29L1 28L0 28L0 30L1 30L1 32L2 32L2 33L1 33L1 34L2 34L2 35L1 35L1 36L2 36L2 35L3 35L3 37L1 37L1 38L2 38L2 39L0 39L0 40L2 40L2 41L1 41L1 42L2 42L2 41L3 41L3 43L1 43L1 44L0 44L0 48L5 48L5 47L7 47L7 46L10 46L10 45L9 45L9 44L10 44L10 43L11 43L11 47L10 47L10 48L9 48L9 49L8 49L8 48L6 48L6 49L8 49L8 51L9 51L9 52L8 52L8 57L9 57L9 55L10 55L10 56L11 56L11 57L13 57L13 56L11 56L11 55L14 55L14 56L15 56L15 57L16 57L16 56L17 56L17 57L19 57L19 55L20 55L20 54L19 54L19 53L20 53L20 52L21 52L21 53L22 53L22 54L21 54L21 55L23 55L23 56L24 56L24 55L23 55L23 54L24 54L24 53L25 53L25 54L26 54L26 56L25 56L25 57L26 57L26 56L27 56L27 57L29 57L29 56L30 56L30 57L31 57L31 56L35 56L35 57L39 57L39 56L37 56L37 54L38 54L38 55L41 55L41 56L42 56L42 55L44 55L44 54L45 54L45 53L44 53L44 52L47 52L47 51L44 51L44 50L45 50L45 49L47 49L47 50L48 50L48 53L47 53L47 56L48 56L48 55L49 55L49 56L50 56L50 57L52 57L52 55L51 55L51 53L52 53L52 54L53 54L53 55L54 55L54 56L53 56L53 57L54 57L54 56L55 56L55 57L56 57L56 56L55 56L55 55L54 55L54 54L55 54L55 53L56 53L56 52L57 52L57 51L56 51L56 49L57 49L57 48L56 48L56 46L57 46L57 43L56 43L56 41L53 41L53 40L55 40L55 39L57 39L57 37L55 37L55 36L57 36L57 35L53 35L53 34L52 34L52 33L53 33L53 32L56 32L56 33L54 33L54 34L57 34L57 32L56 32L56 30L57 30L57 29L54 29L54 28L56 28L56 26L57 26L57 25L56 25L56 22L57 22L57 20L56 20L56 18L57 18L57 17L56 17L56 16L57 16L57 15L56 15L56 14L57 14L57 12L56 12L56 14L53 14L53 13L54 13L54 12L55 12L55 11L56 11L56 8L55 8L55 10L54 10L54 11L52 11L52 10L53 10L53 9L54 9L54 8L53 8L53 9L52 9L52 8L51 8L51 9L52 9L52 10L51 10L51 11L50 11L50 12L49 12L49 10L50 10L50 8L49 8L49 9L48 9L48 8L47 8L47 5L48 5L48 0L46 0L46 1L45 1L45 2L44 2L44 3L42 3L42 2L43 2L43 0L41 0L41 1L40 1L40 0L39 0L39 1L38 1L38 0L37 0L37 1L38 1L38 2L37 2L37 3L36 3L36 0L35 0L35 1L32 1L32 0L29 0L29 1L28 1L28 2L29 2L29 3L30 3L30 4L26 4L26 3L23 3L23 4L22 4L22 5L23 5L23 6L22 6L22 7L21 7L21 4L19 4L19 2L20 2L20 3L21 3L21 2L20 2L20 0L19 0L19 1L18 1L18 2L16 2L16 1L14 1L14 0ZM21 0L21 1L22 1L22 2L27 2L27 1L25 1L25 0L23 0L23 1L22 1L22 0ZM13 1L13 2L14 2L14 4L13 4L13 5L14 5L14 6L13 6L13 7L12 7L12 8L14 8L14 10L15 10L15 13L16 13L16 16L15 16L15 15L14 15L14 17L15 17L15 18L13 18L13 17L12 17L12 18L13 18L13 19L14 19L14 20L12 20L12 23L11 23L11 22L10 22L10 23L9 23L9 22L8 22L8 23L6 23L6 22L7 22L7 21L8 21L8 20L10 20L10 18L9 18L9 19L8 19L8 20L7 20L7 19L6 19L6 18L8 18L8 17L6 17L6 18L5 18L5 19L4 19L4 22L2 22L2 21L3 21L3 18L2 18L2 17L1 17L1 18L2 18L2 21L1 21L1 22L2 22L2 24L3 24L3 23L4 23L4 22L5 22L5 24L8 24L8 23L9 23L9 25L8 25L8 26L9 26L9 25L10 25L10 26L11 26L11 25L10 25L10 23L11 23L11 24L12 24L12 26L13 26L13 24L14 24L14 23L15 23L15 24L16 24L16 25L15 25L15 26L14 26L14 27L13 27L13 28L11 28L11 27L10 27L10 28L9 28L9 31L8 31L8 34L9 34L9 35L8 35L8 36L7 36L7 35L6 35L6 36L5 36L5 35L4 35L4 36L5 36L5 39L4 39L4 37L3 37L3 39L2 39L2 40L3 40L3 41L4 41L4 42L5 42L5 44L2 44L2 45L1 45L1 47L2 47L2 45L3 45L3 47L5 47L5 46L7 46L7 45L5 45L5 44L9 44L9 40L10 40L10 41L11 41L11 43L12 43L12 44L13 44L13 46L12 46L12 47L11 47L11 48L10 48L10 49L9 49L9 50L10 50L10 52L9 52L9 54L10 54L10 55L11 55L11 53L12 53L12 52L11 52L11 50L10 50L10 49L11 49L11 48L12 48L12 47L13 47L13 50L12 50L12 51L13 51L13 52L15 52L15 51L16 51L16 53L15 53L15 54L16 54L16 53L17 53L17 52L20 52L20 51L19 51L19 50L21 50L21 51L22 51L22 53L24 53L24 52L26 52L26 48L27 48L27 47L28 47L28 48L30 48L30 47L28 47L28 46L29 46L29 45L30 45L30 44L32 44L32 45L31 45L31 47L33 47L33 48L32 48L32 49L31 49L31 50L36 50L36 52L37 52L37 53L38 53L38 54L40 54L40 53L42 53L42 52L43 52L43 51L42 51L42 50L41 50L41 48L42 48L42 49L43 49L43 50L44 50L44 49L45 49L45 46L47 46L47 47L48 47L48 48L47 48L47 49L48 49L48 48L51 48L51 46L54 46L54 47L55 47L55 46L56 46L56 43L55 43L55 44L54 44L54 45L51 45L51 44L53 44L53 43L54 43L54 42L53 42L53 41L51 41L51 42L50 42L50 43L49 43L49 42L48 42L48 41L49 41L49 40L50 40L50 39L51 39L51 38L53 38L53 39L52 39L52 40L53 40L53 39L54 39L54 38L53 38L53 35L52 35L52 34L50 34L50 32L51 32L51 33L52 33L52 32L51 32L51 31L50 31L50 32L49 32L49 31L48 31L48 29L46 29L46 30L47 30L47 31L48 31L48 32L47 32L47 33L45 33L45 32L43 32L43 30L44 30L44 31L45 31L45 30L44 30L44 29L45 29L45 28L46 28L46 27L47 27L47 28L48 28L48 27L47 27L47 26L48 26L48 25L49 25L49 23L50 23L50 24L51 24L51 25L50 25L50 26L51 26L51 25L54 25L54 24L51 24L51 23L50 23L50 22L51 22L51 21L53 21L53 23L55 23L55 22L56 22L56 20L53 20L53 19L52 19L52 20L51 20L51 21L49 21L49 20L44 20L44 18L45 18L45 19L46 19L46 18L47 18L47 19L48 19L48 18L47 18L47 17L50 17L50 18L49 18L49 19L50 19L50 18L55 18L55 17L53 17L53 16L52 16L52 15L51 15L51 17L50 17L50 14L51 14L51 12L50 12L50 14L49 14L49 15L48 15L48 16L46 16L46 17L45 17L45 15L44 15L44 14L41 14L41 16L39 16L39 15L40 15L40 14L39 14L39 13L43 13L43 12L44 12L44 13L45 13L45 14L47 14L47 13L49 13L49 12L48 12L48 10L47 10L47 9L46 9L46 8L45 8L45 7L46 7L46 5L47 5L47 3L44 3L44 6L43 6L43 7L44 7L44 9L46 9L46 10L45 10L45 11L41 11L41 10L40 10L40 9L42 9L42 8L41 8L41 7L42 7L42 6L41 6L41 5L40 5L40 4L41 4L41 3L38 3L38 5L37 5L37 4L36 4L36 5L35 5L35 4L33 4L33 3L35 3L35 2L33 2L33 3L32 3L32 2L31 2L31 3L32 3L32 4L31 4L31 8L32 8L32 10L29 10L29 9L28 9L28 11L29 11L29 12L28 12L28 13L26 13L26 12L27 12L27 11L26 11L26 12L25 12L25 11L24 11L24 12L23 12L23 13L22 13L22 12L21 12L21 11L22 11L22 10L23 10L23 8L24 8L24 6L23 6L23 7L22 7L22 8L20 8L20 10L21 10L21 11L19 11L19 12L20 12L20 14L21 14L21 13L22 13L22 14L23 14L23 15L21 15L21 16L20 16L20 15L19 15L19 14L18 14L18 15L17 15L17 13L18 13L18 12L17 12L17 11L18 11L18 10L17 10L17 9L16 9L16 8L17 8L17 7L18 7L18 6L19 6L19 7L20 7L20 5L19 5L19 4L17 4L17 3L15 3L15 2L14 2L14 1ZM29 1L29 2L30 2L30 1ZM46 1L46 2L47 2L47 1ZM8 3L8 4L9 4L9 3ZM15 4L15 5L16 5L16 4ZM23 4L23 5L24 5L24 4ZM25 4L25 8L26 8L26 4ZM32 4L32 5L33 5L33 6L32 6L32 7L33 7L33 9L34 9L34 8L35 8L35 9L37 9L37 10L36 10L36 11L35 11L35 13L37 13L37 14L38 14L38 15L39 15L39 14L38 14L38 13L39 13L39 12L41 12L41 11L40 11L40 10L39 10L39 11L38 11L38 9L39 9L39 8L40 8L40 7L41 7L41 6L40 6L40 5L39 5L39 6L38 6L38 7L37 7L37 5L36 5L36 7L37 7L37 8L35 8L35 5L33 5L33 4ZM45 4L45 5L46 5L46 4ZM8 5L8 7L9 7L9 5ZM27 5L27 8L30 8L30 5ZM14 6L14 7L15 7L15 8L16 8L16 7L17 7L17 6L16 6L16 7L15 7L15 6ZM28 6L28 7L29 7L29 6ZM33 6L33 7L34 7L34 6ZM39 6L39 7L40 7L40 6ZM44 6L44 7L45 7L45 6ZM48 6L48 7L49 7L49 6ZM6 9L6 10L7 10L7 11L8 11L8 12L9 12L9 11L8 11L8 9ZM15 9L15 10L16 10L16 9ZM21 9L21 10L22 10L22 9ZM32 10L32 11L31 11L31 13L30 13L30 14L29 14L29 13L28 13L28 14L29 14L29 16L28 16L28 15L27 15L27 14L26 14L26 15L24 15L24 16L25 16L25 17L22 17L22 16L21 16L21 17L22 17L22 18L20 18L20 16L19 16L19 15L18 15L18 16L16 16L16 17L17 17L17 18L19 18L19 20L17 20L17 21L16 21L16 20L15 20L15 21L16 21L16 22L15 22L15 23L16 23L16 24L17 24L17 26L16 26L16 27L18 27L18 26L19 26L19 27L20 27L20 26L19 26L19 25L21 25L21 27L22 27L22 26L26 26L26 27L25 27L25 28L26 28L26 29L23 29L23 31L19 31L19 32L17 32L17 35L18 35L18 36L17 36L17 37L18 37L18 39L19 39L19 40L17 40L17 41L19 41L19 42L18 42L18 43L16 43L16 44L18 44L18 45L17 45L17 46L19 46L19 47L17 47L17 48L16 48L16 49L15 49L15 47L14 47L14 49L15 49L15 50L13 50L13 51L15 51L15 50L16 50L16 51L17 51L17 50L16 50L16 49L21 49L21 50L22 50L22 51L23 51L23 50L25 50L25 49L24 49L24 48L25 48L25 47L23 47L23 46L25 46L25 44L27 44L27 45L26 45L26 47L27 47L27 45L28 45L28 44L29 44L29 43L32 43L32 44L33 44L33 43L34 43L34 45L35 45L35 46L33 46L33 45L32 45L32 46L33 46L33 47L35 47L35 46L36 46L36 45L37 45L37 47L36 47L36 48L34 48L34 49L36 49L36 50L38 50L38 51L37 51L37 52L38 52L38 53L39 53L39 51L40 51L40 52L41 52L41 50L38 50L38 49L39 49L39 48L41 48L41 46L43 46L43 47L42 47L42 48L43 48L43 49L44 49L44 48L43 48L43 47L44 47L44 46L43 46L43 45L44 45L44 44L43 44L43 41L44 41L44 42L45 42L45 41L44 41L44 40L45 40L45 39L44 39L44 40L41 40L41 42L42 42L42 44L41 44L41 43L40 43L40 44L39 44L39 42L40 42L40 41L39 41L39 42L38 42L38 40L40 40L40 39L38 39L38 40L35 40L35 39L37 39L37 38L38 38L38 37L40 37L40 38L43 38L43 37L44 37L44 38L45 38L45 37L44 37L44 36L46 36L46 37L47 37L47 39L46 39L46 41L47 41L47 39L50 39L50 38L49 38L49 37L50 37L50 36L52 36L52 35L50 35L50 34L49 34L49 35L50 35L50 36L48 36L48 37L47 37L47 36L46 36L46 35L44 35L44 33L43 33L43 32L41 32L41 33L39 33L39 34L40 34L40 35L38 35L38 33L37 33L37 32L35 32L35 34L37 34L37 35L38 35L38 37L37 37L37 36L35 36L35 35L34 35L34 36L35 36L35 38L33 38L33 37L32 37L32 36L33 36L33 35L32 35L32 32L31 32L31 33L29 33L29 32L30 32L30 31L33 31L33 32L34 32L34 31L36 31L36 30L37 30L37 29L38 29L38 28L40 28L40 26L39 26L39 27L37 27L37 28L35 28L35 27L36 27L36 26L34 26L34 27L33 27L33 26L32 26L32 24L33 24L33 25L37 25L37 26L38 26L38 25L40 25L40 24L41 24L41 28L42 28L42 26L43 26L43 27L44 27L44 28L43 28L43 29L39 29L39 30L38 30L38 32L39 32L39 31L40 31L40 30L43 30L43 29L44 29L44 28L45 28L45 27L46 27L46 26L44 26L44 24L41 24L41 23L44 23L44 20L43 20L43 18L44 18L44 15L42 15L42 16L41 16L41 17L39 17L39 16L38 16L38 17L37 17L37 16L35 16L35 14L33 14L33 13L34 13L34 12L33 12L33 13L32 13L32 11L33 11L33 10ZM46 10L46 11L45 11L45 12L47 12L47 10ZM10 11L10 12L11 12L11 11ZM16 12L16 13L17 13L17 12ZM52 12L52 13L53 13L53 12ZM0 13L0 14L1 14L1 13ZM23 13L23 14L25 14L25 13ZM6 14L6 15L8 15L8 14ZM30 14L30 15L31 15L31 16L32 16L32 17L31 17L31 18L30 18L30 20L29 20L29 19L28 19L28 18L27 18L27 17L28 17L28 16L27 16L27 15L26 15L26 17L25 17L25 19L26 19L26 21L28 21L28 22L27 22L27 24L25 24L25 23L26 23L26 22L25 22L25 21L24 21L24 20L23 20L23 19L24 19L24 18L22 18L22 20L21 20L21 19L20 19L20 21L17 21L17 22L20 22L20 23L18 23L18 24L21 24L21 25L24 25L24 24L25 24L25 25L26 25L26 26L27 26L27 25L29 25L29 26L30 26L30 25L31 25L31 24L32 24L32 23L33 23L33 22L34 22L34 23L35 23L35 21L33 21L33 20L32 20L32 21L31 21L31 18L32 18L32 17L33 17L33 19L36 19L36 20L37 20L37 19L39 19L39 17L38 17L38 18L37 18L37 17L35 17L35 16L32 16L32 15L31 15L31 14ZM42 16L42 17L43 17L43 16ZM26 18L26 19L27 19L27 20L28 20L28 19L27 19L27 18ZM41 18L41 19L42 19L42 18ZM5 19L5 22L6 22L6 21L7 21L7 20L6 20L6 19ZM38 20L38 22L37 22L37 24L40 24L40 22L39 22L39 21L42 21L42 20ZM13 21L13 23L12 23L12 24L13 24L13 23L14 23L14 21ZM21 21L21 22L24 22L24 21ZM29 21L29 22L30 22L30 23L28 23L28 24L29 24L29 25L30 25L30 24L31 24L31 21ZM45 21L45 22L46 22L46 23L45 23L45 25L46 25L46 23L47 23L47 25L48 25L48 23L49 23L49 21L47 21L47 22L46 22L46 21ZM38 22L38 23L39 23L39 22ZM21 23L21 24L24 24L24 23ZM31 26L31 28L32 28L32 30L35 30L35 28L33 28L33 27L32 27L32 26ZM53 26L53 27L54 27L54 26ZM5 27L5 30L8 30L8 27ZM14 27L14 28L13 28L13 29L12 29L12 30L11 30L11 31L10 31L10 32L9 32L9 34L14 34L14 37L15 37L15 38L16 38L16 37L15 37L15 36L16 36L16 34L15 34L15 33L16 33L16 32L13 32L13 33L10 33L10 32L12 32L12 30L14 30L14 31L16 31L16 29L18 29L18 30L20 30L20 29L18 29L18 28L16 28L16 29L14 29L14 28L15 28L15 27ZM27 27L27 30L30 30L30 27ZM49 27L49 30L52 30L52 27ZM6 28L6 29L7 29L7 28ZM21 28L21 29L22 29L22 28ZM28 28L28 29L29 29L29 28ZM50 28L50 29L51 29L51 28ZM53 29L53 31L55 31L55 30L54 30L54 29ZM2 31L2 32L3 32L3 33L2 33L2 34L4 34L4 33L5 33L5 32L3 32L3 31ZM6 31L6 32L7 32L7 31ZM25 31L25 32L21 32L21 33L20 33L20 34L19 34L19 33L18 33L18 35L20 35L20 36L19 36L19 37L22 37L22 38L21 38L21 40L20 40L20 42L19 42L19 45L20 45L20 47L19 47L19 48L21 48L21 49L23 49L23 47L21 47L21 45L22 45L22 46L23 46L23 45L24 45L24 44L25 44L25 43L27 43L27 44L28 44L28 43L27 43L27 42L29 42L29 41L30 41L30 42L32 42L32 43L33 43L33 42L34 42L34 43L35 43L35 44L36 44L36 43L37 43L37 42L35 42L35 40L33 40L33 39L29 39L29 38L31 38L31 37L29 37L29 36L30 36L30 34L29 34L29 33L28 33L28 32L29 32L29 31L27 31L27 32L26 32L26 31ZM25 32L25 33L23 33L23 34L22 34L22 33L21 33L21 34L22 34L22 35L23 35L23 34L24 34L24 36L23 36L23 37L24 37L24 38L22 38L22 39L24 39L24 40L25 40L25 39L27 39L27 40L28 40L28 39L27 39L27 38L28 38L28 37L27 37L27 38L25 38L25 37L26 37L26 36L27 36L27 35L26 35L26 34L27 34L27 33L26 33L26 32ZM48 32L48 33L49 33L49 32ZM6 33L6 34L7 34L7 33ZM25 33L25 34L26 34L26 33ZM42 34L42 35L41 35L41 36L40 36L40 37L43 37L43 36L44 36L44 35L43 35L43 34ZM9 35L9 36L10 36L10 37L8 37L8 38L10 38L10 37L11 37L11 39L10 39L10 40L11 40L11 39L12 39L12 43L14 43L14 44L15 44L15 41L14 41L14 40L13 40L13 38L12 38L12 37L13 37L13 35ZM42 35L42 36L43 36L43 35ZM6 36L6 37L7 37L7 36ZM11 36L11 37L12 37L12 36ZM6 38L6 39L5 39L5 40L6 40L6 41L7 41L7 42L6 42L6 43L7 43L7 42L8 42L8 41L7 41L7 40L8 40L8 39L7 39L7 38ZM19 38L19 39L20 39L20 38ZM3 39L3 40L4 40L4 39ZM6 39L6 40L7 40L7 39ZM15 39L15 40L16 40L16 39ZM31 40L31 41L32 41L32 42L33 42L33 41L32 41L32 40ZM13 41L13 42L14 42L14 41ZM23 41L23 42L22 42L22 43L21 43L21 42L20 42L20 45L21 45L21 44L22 44L22 45L23 45L23 42L24 42L24 43L25 43L25 41ZM26 41L26 42L27 42L27 41ZM47 42L47 43L46 43L46 44L45 44L45 45L47 45L47 46L48 46L48 47L50 47L50 46L51 46L51 45L50 45L50 44L51 44L51 43L53 43L53 42L51 42L51 43L50 43L50 44L48 44L48 45L47 45L47 43L48 43L48 42ZM40 44L40 45L38 45L38 46L41 46L41 44ZM4 45L4 46L5 46L5 45ZM14 45L14 46L15 46L15 45ZM49 45L49 46L50 46L50 45ZM38 47L38 48L37 48L37 49L38 49L38 48L39 48L39 47ZM55 48L55 49L56 49L56 48ZM27 49L27 52L30 52L30 49ZM49 49L49 52L52 52L52 49ZM28 50L28 51L29 51L29 50ZM50 50L50 51L51 51L51 50ZM54 50L54 51L55 51L55 52L56 52L56 51L55 51L55 50ZM31 51L31 53L30 53L30 54L27 54L27 53L26 53L26 54L27 54L27 56L29 56L29 55L30 55L30 56L31 56L31 54L32 54L32 53L33 53L33 55L35 55L35 56L36 56L36 54L35 54L35 53L33 53L33 52L32 52L32 51ZM10 52L10 53L11 53L11 52ZM53 52L53 53L54 53L54 52ZM43 53L43 54L44 54L44 53ZM18 54L18 55L17 55L17 56L18 56L18 55L19 55L19 54ZM15 55L15 56L16 56L16 55ZM50 55L50 56L51 56L51 55ZM20 56L20 57L21 57L21 56ZM43 56L43 57L44 57L44 56ZM45 56L45 57L46 57L46 56ZM0 0L0 7L7 7L7 0ZM1 1L1 6L6 6L6 1ZM2 2L2 5L5 5L5 2ZM50 0L50 7L57 7L57 0ZM51 1L51 6L56 6L56 1ZM52 2L52 5L55 5L55 2ZM0 50L0 57L7 57L7 50ZM1 51L1 56L6 56L6 51ZM2 52L2 55L5 55L5 52Z" fill="#000000"/></g></g></svg>
