<?xml version="1.0" encoding="UTF-8"?>
<svg xmlns="http://www.w3.org/2000/svg" version="1.1" width="300" height="300" viewBox="0 0 300 300"><rect x="0" y="0" width="300" height="300" fill="#fefefe"/><g transform="scale(4.615)"><g transform="translate(4,4)"><path fill-rule="evenodd" d="M8 0L8 1L10 1L10 0ZM11 0L11 1L12 1L12 2L11 2L11 3L10 3L10 2L8 2L8 5L9 5L9 6L8 6L8 7L9 7L9 8L8 8L8 9L9 9L9 8L10 8L10 7L11 7L11 6L12 6L12 8L11 8L11 9L10 9L10 10L9 10L9 11L8 11L8 12L9 12L9 13L8 13L8 15L7 15L7 14L5 14L5 15L4 15L4 14L3 14L3 15L2 15L2 17L0 17L0 19L1 19L1 20L0 20L0 22L1 22L1 23L0 23L0 26L1 26L1 27L0 27L0 28L1 28L1 29L0 29L0 31L1 31L1 29L2 29L2 30L3 30L3 32L2 32L2 33L1 33L1 32L0 32L0 34L2 34L2 33L3 33L3 32L4 32L4 31L8 31L8 32L9 32L9 29L12 29L12 30L11 30L11 31L10 31L10 33L11 33L11 35L10 35L10 36L6 36L6 37L7 37L7 38L5 38L5 37L4 37L4 38L2 38L2 37L1 37L1 36L3 36L3 35L5 35L5 34L6 34L6 35L7 35L7 34L8 34L8 33L7 33L7 32L6 32L6 33L5 33L5 34L3 34L3 35L0 35L0 37L1 37L1 39L0 39L0 41L1 41L1 42L0 42L0 43L1 43L1 44L0 44L0 48L5 48L5 47L7 47L7 46L8 46L8 45L9 45L9 46L11 46L11 47L9 47L9 49L8 49L8 48L6 48L6 49L8 49L8 50L9 50L9 49L10 49L10 50L11 50L11 51L12 51L12 52L13 52L13 53L12 53L12 54L11 54L11 52L10 52L10 54L9 54L9 53L8 53L8 57L9 57L9 55L11 55L11 56L13 56L13 53L14 53L14 51L13 51L13 50L15 50L15 49L12 49L12 48L13 48L13 47L14 47L14 43L13 43L13 42L14 42L14 40L13 40L13 41L12 41L12 39L13 39L13 38L14 38L14 39L15 39L15 43L16 43L16 44L15 44L15 45L16 45L16 44L17 44L17 42L18 42L18 43L19 43L19 41L16 41L16 39L17 39L17 40L21 40L21 41L22 41L22 44L19 44L19 45L17 45L17 47L15 47L15 48L16 48L16 49L17 49L17 51L16 51L16 52L17 52L17 51L18 51L18 52L19 52L19 53L18 53L18 54L19 54L19 55L17 55L17 54L16 54L16 53L15 53L15 54L14 54L14 55L15 55L15 56L14 56L14 57L18 57L18 56L19 56L19 57L23 57L23 56L22 56L22 55L23 55L23 54L25 54L25 55L24 55L24 56L25 56L25 55L26 55L26 56L28 56L28 55L26 55L26 53L29 53L29 54L31 54L31 55L30 55L30 56L31 56L31 57L32 57L32 55L34 55L34 56L33 56L33 57L36 57L36 55L38 55L38 57L41 57L41 56L39 56L39 55L42 55L42 57L43 57L43 56L46 56L46 57L47 57L47 56L48 56L48 57L51 57L51 54L52 54L52 53L54 53L54 55L55 55L55 54L56 54L56 53L54 53L54 52L55 52L55 50L53 50L53 48L54 48L54 47L57 47L57 45L56 45L56 46L54 46L54 45L55 45L55 44L56 44L56 41L57 41L57 40L56 40L56 41L55 41L55 39L53 39L53 38L52 38L52 36L53 36L53 37L55 37L55 38L56 38L56 39L57 39L57 38L56 38L56 37L57 37L57 31L56 31L56 30L57 30L57 29L56 29L56 24L54 24L54 23L57 23L57 19L56 19L56 18L57 18L57 15L55 15L55 14L54 14L54 15L53 15L53 17L54 17L54 18L52 18L52 19L56 19L56 22L54 22L54 21L55 21L55 20L54 20L54 21L53 21L53 20L50 20L50 19L51 19L51 18L50 18L50 19L49 19L49 18L48 18L48 17L45 17L45 16L44 16L44 15L45 15L45 14L46 14L46 13L44 13L44 12L43 12L43 11L44 11L44 10L45 10L45 11L48 11L48 10L49 10L49 16L50 16L50 17L52 17L52 15L51 15L51 13L52 13L52 14L53 14L53 13L54 13L54 10L53 10L53 9L55 9L55 8L52 8L52 11L53 11L53 13L52 13L52 12L51 12L51 11L50 11L50 10L49 10L49 9L50 9L50 8L48 8L48 9L47 9L47 5L48 5L48 0L45 0L45 1L44 1L44 2L42 2L42 3L41 3L41 4L38 4L38 3L39 3L39 2L37 2L37 1L38 1L38 0L37 0L37 1L36 1L36 0L35 0L35 1L34 1L34 3L33 3L33 2L31 2L31 0L29 0L29 3L30 3L30 4L28 4L28 1L27 1L27 4L26 4L26 1L25 1L25 0L23 0L23 1L22 1L22 0L21 0L21 3L23 3L23 4L22 4L22 5L20 5L20 4L19 4L19 2L18 2L18 1L16 1L16 2L15 2L15 3L17 3L17 5L15 5L15 4L14 4L14 3L13 3L13 1L14 1L14 0ZM19 0L19 1L20 1L20 0ZM32 0L32 1L33 1L33 0ZM39 0L39 1L40 1L40 2L41 2L41 1L43 1L43 0L41 0L41 1L40 1L40 0ZM23 1L23 3L24 3L24 2L25 2L25 1ZM35 1L35 2L36 2L36 1ZM45 1L45 3L44 3L44 4L46 4L46 5L43 5L43 4L42 4L42 5L43 5L43 7L42 7L42 6L41 6L41 7L40 7L40 5L38 5L38 6L37 6L37 5L36 5L36 4L34 4L34 5L33 5L33 3L32 3L32 4L31 4L31 5L32 5L32 6L31 6L31 9L32 9L32 10L28 10L28 9L27 9L27 10L26 10L26 11L25 11L25 10L23 10L23 9L24 9L24 8L25 8L25 9L26 9L26 6L25 6L25 5L26 5L26 4L24 4L24 6L23 6L23 5L22 5L22 6L21 6L21 7L20 7L20 6L19 6L19 7L18 7L18 6L17 6L17 7L16 7L16 6L15 6L15 5L14 5L14 4L13 4L13 5L12 5L12 3L11 3L11 5L10 5L10 6L9 6L9 7L10 7L10 6L11 6L11 5L12 5L12 6L13 6L13 9L12 9L12 10L11 10L11 11L9 11L9 12L12 12L12 13L13 13L13 16L14 16L14 13L13 13L13 11L12 11L12 10L14 10L14 11L15 11L15 15L16 15L16 17L17 17L17 18L16 18L16 20L14 20L14 25L15 25L15 23L16 23L16 24L17 24L17 23L18 23L18 24L19 24L19 23L18 23L18 22L21 22L21 23L20 23L20 24L21 24L21 27L20 27L20 26L19 26L19 25L16 25L16 26L15 26L15 27L14 27L14 26L13 26L13 25L12 25L12 24L11 24L11 23L12 23L12 21L11 21L11 20L10 20L10 19L9 19L9 17L8 17L8 16L7 16L7 15L6 15L6 16L4 16L4 15L3 15L3 17L4 17L4 18L1 18L1 19L4 19L4 20L5 20L5 21L4 21L4 22L3 22L3 21L2 21L2 20L1 20L1 22L2 22L2 24L3 24L3 26L2 26L2 25L1 25L1 26L2 26L2 27L3 27L3 26L5 26L5 25L6 25L6 26L8 26L8 25L6 25L6 24L10 24L10 25L9 25L9 26L10 26L10 25L12 25L12 27L11 27L11 28L12 28L12 29L13 29L13 30L12 30L12 31L11 31L11 32L12 32L12 31L13 31L13 32L15 32L15 36L14 36L14 33L13 33L13 35L11 35L11 36L10 36L10 37L11 37L11 39L12 39L12 37L14 37L14 38L17 38L17 39L18 39L18 38L19 38L19 37L20 37L20 38L21 38L21 40L22 40L22 41L23 41L23 42L25 42L25 43L26 43L26 45L25 45L25 44L24 44L24 43L23 43L23 44L22 44L22 46L21 46L21 45L20 45L20 46L21 46L21 47L19 47L19 49L18 49L18 50L19 50L19 52L20 52L20 50L19 50L19 49L20 49L20 48L21 48L21 50L22 50L22 51L23 51L23 52L22 52L22 53L20 53L20 55L19 55L19 56L20 56L20 55L22 55L22 53L23 53L23 52L24 52L24 53L25 53L25 52L26 52L26 50L25 50L25 48L24 48L24 49L23 49L23 48L21 48L21 47L22 47L22 46L23 46L23 44L24 44L24 45L25 45L25 47L26 47L26 48L28 48L28 46L29 46L29 48L32 48L32 49L31 49L31 53L32 53L32 51L33 51L33 52L35 52L35 53L36 53L36 54L34 54L34 55L36 55L36 54L37 54L37 52L40 52L40 54L41 54L41 53L42 53L42 54L43 54L43 52L42 52L42 51L44 51L44 50L45 50L45 51L47 51L47 52L46 52L46 53L47 53L47 54L50 54L50 53L47 53L47 52L48 52L48 48L47 48L47 47L49 47L49 46L50 46L50 45L49 45L49 46L47 46L47 45L48 45L48 44L44 44L44 43L47 43L47 42L48 42L48 43L49 43L49 44L51 44L51 42L50 42L50 41L52 41L52 40L50 40L50 41L47 41L47 42L43 42L43 41L42 41L42 40L41 40L41 39L40 39L40 41L37 41L37 40L38 40L38 39L39 39L39 38L37 38L37 37L34 37L34 38L33 38L33 36L36 36L36 35L35 35L35 33L33 33L33 32L34 32L34 31L33 31L33 30L32 30L32 29L31 29L31 30L32 30L32 31L33 31L33 32L31 32L31 34L30 34L30 35L29 35L29 33L30 33L30 32L28 32L28 33L27 33L27 34L26 34L26 32L27 32L27 31L26 31L26 32L25 32L25 30L26 30L26 28L24 28L24 30L21 30L21 29L23 29L23 27L22 27L22 25L23 25L23 26L24 26L24 27L25 27L25 25L28 25L28 26L31 26L31 24L30 24L30 21L29 21L29 22L25 22L25 19L24 19L24 18L26 18L26 19L27 19L27 20L26 20L26 21L27 21L27 20L31 20L31 23L32 23L32 22L34 22L34 23L33 23L33 24L32 24L32 25L33 25L33 24L35 24L35 23L36 23L36 24L37 24L37 22L35 22L35 21L34 21L34 19L35 19L35 20L36 20L36 21L38 21L38 22L39 22L39 20L40 20L40 19L39 19L39 18L41 18L41 19L42 19L42 20L41 20L41 21L42 21L42 20L43 20L43 21L44 21L44 22L47 22L47 23L50 23L50 24L48 24L48 26L47 26L47 25L46 25L46 26L45 26L45 29L42 29L42 30L41 30L41 27L40 27L40 25L41 25L41 26L44 26L44 25L45 25L45 24L46 24L46 23L44 23L44 25L41 25L41 23L38 23L38 24L39 24L39 26L38 26L38 27L39 27L39 28L40 28L40 30L39 30L39 29L38 29L38 30L36 30L36 29L37 29L37 27L35 27L35 25L34 25L34 27L35 27L35 28L34 28L34 29L35 29L35 31L37 31L37 32L36 32L36 33L37 33L37 32L38 32L38 34L39 34L39 31L40 31L40 32L41 32L41 31L44 31L44 33L45 33L45 35L47 35L47 37L46 37L46 36L44 36L44 37L42 37L42 38L44 38L44 39L43 39L43 40L44 40L44 39L45 39L45 40L46 40L46 39L45 39L45 37L46 37L46 38L48 38L48 39L47 39L47 40L49 40L49 39L51 39L51 37L50 37L50 36L48 36L48 35L47 35L47 34L50 34L50 33L49 33L49 32L48 32L48 29L47 29L47 31L45 31L45 30L46 30L46 26L47 26L47 27L48 27L48 26L49 26L49 25L53 25L53 27L55 27L55 25L53 25L53 24L52 24L52 22L51 22L51 21L50 21L50 20L49 20L49 19L48 19L48 18L45 18L45 17L42 17L42 14L44 14L44 13L43 13L43 12L42 12L42 11L43 11L43 10L44 10L44 9L45 9L45 8L46 8L46 5L47 5L47 3L46 3L46 2L47 2L47 1ZM17 2L17 3L18 3L18 2ZM30 2L30 3L31 3L31 2ZM9 3L9 4L10 4L10 3ZM18 4L18 5L19 5L19 4ZM13 5L13 6L14 6L14 7L15 7L15 6L14 6L14 5ZM27 5L27 8L30 8L30 5ZM22 6L22 7L21 7L21 11L23 11L23 10L22 10L22 9L23 9L23 8L24 8L24 7L25 7L25 6L24 6L24 7L23 7L23 6ZM28 6L28 7L29 7L29 6ZM32 6L32 8L33 8L33 6ZM34 6L34 9L36 9L36 8L38 8L38 7L39 7L39 6L38 6L38 7L37 7L37 6L36 6L36 7L35 7L35 6ZM44 6L44 7L43 7L43 8L45 8L45 6ZM48 6L48 7L49 7L49 6ZM19 7L19 11L20 11L20 7ZM22 7L22 8L23 8L23 7ZM0 8L0 9L1 9L1 10L3 10L3 9L4 9L4 10L5 10L5 9L4 9L4 8ZM6 8L6 9L7 9L7 8ZM15 8L15 11L17 11L17 12L16 12L16 13L17 13L17 12L18 12L18 13L19 13L19 14L16 14L16 15L18 15L18 16L19 16L19 17L18 17L18 18L17 18L17 19L20 19L20 20L21 20L21 21L22 21L22 23L23 23L23 25L25 25L25 22L24 22L24 21L23 21L23 19L20 19L20 18L19 18L19 17L21 17L21 18L22 18L22 17L21 17L21 15L20 15L20 14L21 14L21 13L20 13L20 12L18 12L18 10L16 10L16 8ZM17 8L17 9L18 9L18 8ZM39 8L39 10L38 10L38 9L37 9L37 11L38 11L38 12L36 12L36 10L35 10L35 11L34 11L34 10L33 10L33 13L32 13L32 12L31 12L31 11L30 11L30 12L31 12L31 14L30 14L30 13L28 13L28 12L26 12L26 14L25 14L25 16L24 16L24 14L23 14L23 18L24 18L24 17L25 17L25 16L26 16L26 17L29 17L29 18L28 18L28 19L30 19L30 17L29 17L29 16L31 16L31 17L33 17L33 18L35 18L35 17L34 17L34 16L35 16L35 15L39 15L39 17L40 17L40 16L41 16L41 15L39 15L39 10L40 10L40 11L42 11L42 10L43 10L43 9L41 9L41 8ZM56 8L56 9L57 9L57 8ZM40 9L40 10L41 10L41 9ZM46 9L46 10L47 10L47 9ZM6 10L6 11L1 11L1 12L0 12L0 13L2 13L2 12L3 12L3 13L4 13L4 12L6 12L6 13L7 13L7 12L6 12L6 11L7 11L7 10ZM55 10L55 13L56 13L56 11L57 11L57 10ZM24 11L24 12L25 12L25 11ZM22 12L22 13L23 13L23 12ZM34 12L34 14L33 14L33 15L35 15L35 14L37 14L37 13L35 13L35 12ZM50 12L50 13L51 13L51 12ZM40 13L40 14L41 14L41 13ZM9 14L9 16L10 16L10 14ZM31 14L31 16L32 16L32 14ZM47 14L47 15L46 15L46 16L48 16L48 14ZM19 15L19 16L20 16L20 15ZM26 15L26 16L27 16L27 15ZM28 15L28 16L29 16L29 15ZM50 15L50 16L51 16L51 15ZM6 16L6 17L7 17L7 16ZM11 16L11 17L12 17L12 18L11 18L11 19L12 19L12 18L13 18L13 19L15 19L15 17L12 17L12 16ZM36 17L36 18L37 18L37 17ZM41 17L41 18L42 18L42 19L43 19L43 18L42 18L42 17ZM55 17L55 18L56 18L56 17ZM6 18L6 19L5 19L5 20L6 20L6 21L5 21L5 23L3 23L3 24L6 24L6 23L9 23L9 22L6 22L6 21L8 21L8 18ZM31 18L31 20L32 20L32 18ZM44 18L44 19L45 19L45 21L46 21L46 19L45 19L45 18ZM6 19L6 20L7 20L7 19ZM36 19L36 20L38 20L38 19ZM9 20L9 21L10 21L10 22L11 22L11 21L10 21L10 20ZM16 20L16 23L17 23L17 22L18 22L18 21L17 21L17 20ZM47 21L47 22L49 22L49 21ZM42 22L42 23L43 23L43 22ZM26 23L26 24L28 24L28 23ZM16 26L16 27L19 27L19 26ZM5 27L5 30L8 30L8 27ZM13 27L13 29L16 29L16 30L13 30L13 31L16 31L16 32L17 32L17 33L18 33L18 34L16 34L16 36L17 36L17 38L18 38L18 37L19 37L19 36L18 36L18 34L20 34L20 36L21 36L21 34L22 34L22 35L24 35L24 34L25 34L25 32L24 32L24 31L22 31L22 32L20 32L20 31L19 31L19 30L17 30L17 28L14 28L14 27ZM27 27L27 30L30 30L30 27ZM31 27L31 28L33 28L33 27ZM42 27L42 28L43 28L43 27ZM49 27L49 30L52 30L52 27ZM2 28L2 29L4 29L4 28ZM6 28L6 29L7 29L7 28ZM18 28L18 29L20 29L20 28ZM28 28L28 29L29 29L29 28ZM50 28L50 29L51 29L51 28ZM53 28L53 31L51 31L51 32L52 32L52 34L54 34L54 32L55 32L55 30L56 30L56 29L54 29L54 28ZM38 30L38 31L39 31L39 30ZM18 31L18 33L20 33L20 34L21 34L21 33L20 33L20 32L19 32L19 31ZM23 32L23 33L22 33L22 34L23 34L23 33L24 33L24 32ZM42 32L42 33L43 33L43 32ZM45 32L45 33L46 33L46 32ZM6 33L6 34L7 34L7 33ZM32 33L32 36L29 36L29 35L28 35L28 34L27 34L27 36L23 36L23 39L22 39L22 40L23 40L23 39L24 39L24 41L25 41L25 42L27 42L27 41L28 41L28 42L29 42L29 43L27 43L27 44L29 44L29 43L31 43L31 44L30 44L30 45L29 45L29 46L31 46L31 47L33 47L33 50L34 50L34 51L35 51L35 52L36 52L36 51L39 51L39 50L40 50L40 49L39 49L39 48L38 48L38 49L37 49L37 48L35 48L35 47L36 47L36 44L35 44L35 43L34 43L34 42L36 42L36 41L34 41L34 40L35 40L35 39L36 39L36 38L34 38L34 39L33 39L33 38L32 38L32 36L33 36L33 35L34 35L34 34L33 34L33 33ZM55 33L55 34L56 34L56 33ZM41 34L41 35L37 35L37 36L40 36L40 37L41 37L41 36L42 36L42 34ZM43 34L43 35L44 35L44 34ZM51 35L51 36L52 36L52 35ZM54 35L54 36L55 36L55 37L56 37L56 36L55 36L55 35ZM27 36L27 37L24 37L24 39L25 39L25 41L26 41L26 39L25 39L25 38L29 38L29 36ZM48 37L48 38L50 38L50 37ZM4 38L4 40L3 40L3 42L2 42L2 44L1 44L1 45L3 45L3 43L4 43L4 44L5 44L5 45L4 45L4 46L3 46L3 47L5 47L5 46L7 46L7 45L6 45L6 44L9 44L9 45L10 45L10 44L11 44L11 45L12 45L12 47L11 47L11 48L12 48L12 47L13 47L13 44L11 44L11 43L12 43L12 42L11 42L11 43L10 43L10 44L9 44L9 42L10 42L10 41L11 41L11 40L10 40L10 38L8 38L8 39L9 39L9 40L7 40L7 39L6 39L6 40L5 40L5 38ZM30 38L30 39L28 39L28 40L30 40L30 41L29 41L29 42L30 42L30 41L31 41L31 40L33 40L33 39L32 39L32 38ZM1 39L1 40L2 40L2 39ZM6 40L6 41L4 41L4 42L5 42L5 44L6 44L6 43L7 43L7 42L6 42L6 41L7 41L7 40ZM9 40L9 41L8 41L8 42L9 42L9 41L10 41L10 40ZM40 41L40 42L42 42L42 43L41 43L41 44L40 44L40 43L39 43L39 42L37 42L37 44L38 44L38 45L37 45L37 47L38 47L38 45L41 45L41 46L40 46L40 47L43 47L43 49L44 49L44 48L46 48L46 47L47 47L47 46L46 46L46 47L43 47L43 45L42 45L42 43L43 43L43 42L42 42L42 41ZM54 41L54 42L53 42L53 43L52 43L52 46L53 46L53 44L55 44L55 43L54 43L54 42L55 42L55 41ZM20 42L20 43L21 43L21 42ZM32 42L32 44L31 44L31 45L32 45L32 46L33 46L33 47L34 47L34 46L35 46L35 44L34 44L34 45L33 45L33 42ZM49 42L49 43L50 43L50 42ZM38 43L38 44L39 44L39 43ZM26 45L26 46L27 46L27 45ZM44 45L44 46L45 46L45 45ZM1 46L1 47L2 47L2 46ZM51 47L51 48L53 48L53 47ZM41 48L41 49L42 49L42 48ZM56 48L56 49L57 49L57 48ZM11 49L11 50L12 50L12 49ZM22 49L22 50L23 50L23 49ZM27 49L27 52L30 52L30 49ZM34 49L34 50L35 50L35 49ZM36 49L36 50L37 50L37 49ZM45 49L45 50L46 50L46 49ZM49 49L49 52L52 52L52 49ZM24 50L24 51L25 51L25 50ZM28 50L28 51L29 51L29 50ZM50 50L50 51L51 51L51 50ZM40 51L40 52L41 52L41 51ZM56 51L56 52L57 52L57 51ZM38 53L38 54L39 54L39 53ZM44 54L44 55L45 55L45 54ZM46 55L46 56L47 56L47 55ZM48 55L48 56L49 56L49 55ZM56 55L56 56L57 56L57 55ZM52 56L52 57L53 57L53 56ZM54 56L54 57L55 57L55 56ZM0 0L0 7L7 7L7 0ZM1 1L1 6L6 6L6 1ZM2 2L2 5L5 5L5 2ZM50 0L50 7L57 7L57 0ZM51 1L51 6L56 6L56 1ZM52 2L52 5L55 5L55 2ZM0 50L0 57L7 57L7 50ZM1 51L1 56L6 56L6 51ZM2 52L2 55L5 55L5 52Z" fill="#000000"/></g></g></svg>
