<?xml version="1.0" encoding="UTF-8"?>
<svg xmlns="http://www.w3.org/2000/svg" version="1.1" width="300" height="300" viewBox="0 0 300 300"><rect x="0" y="0" width="300" height="300" fill="#fefefe"/><g transform="scale(4.615)"><g transform="translate(4,4)"><path fill-rule="evenodd" d="M8 0L8 4L9 4L9 5L8 5L8 7L9 7L9 9L8 9L8 10L6 10L6 9L7 9L7 8L4 8L4 9L5 9L5 10L3 10L3 9L2 9L2 8L0 8L0 9L2 9L2 11L3 11L3 12L1 12L1 11L0 11L0 12L1 12L1 13L0 13L0 16L1 16L1 15L3 15L3 16L2 16L2 18L3 18L3 19L4 19L4 17L5 17L5 18L6 18L6 19L5 19L5 20L2 20L2 19L1 19L1 18L0 18L0 20L1 20L1 22L0 22L0 23L1 23L1 22L4 22L4 23L2 23L2 24L1 24L1 25L0 25L0 26L1 26L1 29L0 29L0 30L2 30L2 32L1 32L1 31L0 31L0 34L1 34L1 35L3 35L3 33L4 33L4 37L3 37L3 36L1 36L1 37L3 37L3 38L4 38L4 39L2 39L2 40L1 40L1 38L0 38L0 41L1 41L1 43L2 43L2 45L1 45L1 44L0 44L0 48L5 48L5 47L7 47L7 48L6 48L6 49L7 49L7 48L9 48L9 49L8 49L8 50L10 50L10 51L11 51L11 50L12 50L12 52L10 52L10 54L9 54L9 55L8 55L8 57L9 57L9 55L10 55L10 54L11 54L11 55L12 55L12 56L10 56L10 57L12 57L12 56L13 56L13 57L14 57L14 56L13 56L13 55L12 55L12 54L14 54L14 55L16 55L16 54L17 54L17 57L22 57L22 56L18 56L18 55L20 55L20 54L21 54L21 53L22 53L22 54L23 54L23 55L24 55L24 56L23 56L23 57L25 57L25 54L24 54L24 53L28 53L28 57L29 57L29 55L30 55L30 57L34 57L34 53L33 53L33 51L34 51L34 52L35 52L35 57L37 57L37 56L36 56L36 54L37 54L37 55L39 55L39 57L40 57L40 56L41 56L41 57L42 57L42 56L44 56L44 57L45 57L45 56L44 56L44 53L45 53L45 55L46 55L46 56L47 56L47 57L48 57L48 55L46 55L46 51L47 51L47 52L48 52L48 53L47 53L47 54L49 54L49 57L50 57L50 55L51 55L51 56L53 56L53 55L55 55L55 54L57 54L57 53L55 53L55 52L56 52L56 50L57 50L57 49L56 49L56 44L57 44L57 43L56 43L56 42L57 42L57 40L54 40L54 41L53 41L53 40L52 40L52 41L51 41L51 43L50 43L50 42L49 42L49 41L48 41L48 43L47 43L47 42L46 42L46 41L47 41L47 40L49 40L49 39L50 39L50 40L51 40L51 39L54 39L54 38L55 38L55 39L57 39L57 38L55 38L55 37L56 37L56 36L53 36L53 35L56 35L56 34L57 34L57 33L56 33L56 30L55 30L55 29L57 29L57 27L56 27L56 25L57 25L57 24L56 24L56 21L57 21L57 20L56 20L56 18L55 18L55 22L53 22L53 21L52 21L52 20L53 20L53 19L50 19L50 18L53 18L53 17L55 17L55 16L56 16L56 17L57 17L57 15L56 15L56 13L55 13L55 16L53 16L53 15L54 15L54 14L53 14L53 13L54 13L54 12L53 12L53 13L52 13L52 14L51 14L51 12L52 12L52 11L54 11L54 10L52 10L52 11L51 11L51 9L52 9L52 8L51 8L51 9L47 9L47 11L50 11L50 15L48 15L48 17L47 17L47 16L44 16L44 15L46 15L46 11L45 11L45 10L46 10L46 8L49 8L49 6L48 6L48 7L47 7L47 5L48 5L48 0L41 0L41 1L40 1L40 2L38 2L38 1L39 1L39 0L38 0L38 1L37 1L37 2L36 2L36 0L35 0L35 1L34 1L34 0L32 0L32 1L34 1L34 2L32 2L32 3L31 3L31 2L30 2L30 1L31 1L31 0L23 0L23 3L22 3L22 2L21 2L21 3L22 3L22 7L21 7L21 6L20 6L20 5L19 5L19 6L18 6L18 7L17 7L17 6L16 6L16 5L15 5L15 4L14 4L14 1L16 1L16 2L15 2L15 3L16 3L16 4L17 4L17 5L18 5L18 3L19 3L19 2L20 2L20 1L21 1L21 0L20 0L20 1L19 1L19 0L18 0L18 3L16 3L16 2L17 2L17 1L16 1L16 0L12 0L12 1L11 1L11 0ZM12 1L12 2L13 2L13 1ZM25 1L25 3L23 3L23 5L24 5L24 4L25 4L25 3L26 3L26 4L28 4L28 3L27 3L27 1ZM28 1L28 2L29 2L29 1ZM45 1L45 2L47 2L47 1ZM9 2L9 4L11 4L11 5L10 5L10 6L9 6L9 7L10 7L10 6L11 6L11 7L12 7L12 8L13 8L13 9L12 9L12 10L11 10L11 11L10 11L10 10L9 10L9 11L8 11L8 12L9 12L9 13L6 13L6 12L7 12L7 11L6 11L6 12L4 12L4 13L2 13L2 14L4 14L4 13L5 13L5 14L10 14L10 15L11 15L11 16L8 16L8 17L6 17L6 18L8 18L8 19L6 19L6 20L7 20L7 21L6 21L6 22L5 22L5 21L4 21L4 22L5 22L5 25L6 25L6 26L8 26L8 25L11 25L11 24L12 24L12 25L16 25L16 28L17 28L17 27L18 27L18 26L17 26L17 25L16 25L16 24L17 24L17 22L18 22L18 21L17 21L17 20L16 20L16 18L18 18L18 19L20 19L20 20L19 20L19 21L20 21L20 20L21 20L21 21L24 21L24 22L25 22L25 23L26 23L26 22L27 22L27 24L28 24L28 26L30 26L30 25L29 25L29 24L31 24L31 27L32 27L32 28L31 28L31 29L32 29L32 28L33 28L33 27L34 27L34 31L32 31L32 30L31 30L31 32L30 32L30 31L29 31L29 33L28 33L28 34L27 34L27 36L25 36L25 35L26 35L26 34L24 34L24 36L25 36L25 37L27 37L27 38L26 38L26 39L25 39L25 38L24 38L24 37L23 37L23 35L21 35L21 34L23 34L23 33L27 33L27 32L28 32L28 31L27 31L27 32L26 32L26 31L25 31L25 30L26 30L26 29L25 29L25 30L24 30L24 32L23 32L23 31L22 31L22 30L23 30L23 29L24 29L24 28L25 28L25 27L26 27L26 25L25 25L25 27L24 27L24 26L23 26L23 28L22 28L22 27L21 27L21 26L20 26L20 27L19 27L19 28L18 28L18 29L15 29L15 26L13 26L13 29L12 29L12 27L10 27L10 26L9 26L9 29L10 29L10 30L9 30L9 31L4 31L4 29L2 29L2 30L3 30L3 31L4 31L4 33L5 33L5 32L7 32L7 33L6 33L6 34L5 34L5 37L4 37L4 38L5 38L5 37L6 37L6 38L7 38L7 37L6 37L6 36L7 36L7 35L8 35L8 38L9 38L9 39L11 39L11 37L9 37L9 35L10 35L10 34L11 34L11 35L12 35L12 36L13 36L13 38L12 38L12 39L13 39L13 40L11 40L11 42L12 42L12 43L13 43L13 45L11 45L11 44L10 44L10 42L9 42L9 43L8 43L8 42L7 42L7 41L9 41L9 40L8 40L8 39L5 39L5 41L4 41L4 42L3 42L3 41L2 41L2 43L4 43L4 44L3 44L3 45L5 45L5 46L3 46L3 47L5 47L5 46L7 46L7 47L10 47L10 50L11 50L11 47L12 47L12 48L13 48L13 49L14 49L14 52L15 52L15 53L14 53L14 54L15 54L15 53L17 53L17 52L18 52L18 51L20 51L20 49L21 49L21 50L22 50L22 51L21 51L21 52L22 52L22 53L24 53L24 52L22 52L22 51L23 51L23 50L22 50L22 49L23 49L23 48L22 48L22 47L25 47L25 48L24 48L24 49L26 49L26 48L27 48L27 47L26 47L26 46L27 46L27 45L28 45L28 47L30 47L30 48L31 48L31 46L30 46L30 44L31 44L31 45L32 45L32 43L33 43L33 44L37 44L37 46L36 46L36 48L37 48L37 46L38 46L38 45L39 45L39 44L37 44L37 43L33 43L33 41L32 41L32 40L33 40L33 39L34 39L34 42L35 42L35 39L37 39L37 42L38 42L38 39L40 39L40 38L38 38L38 37L37 37L37 38L35 38L35 37L34 37L34 36L35 36L35 35L34 35L34 36L33 36L33 37L32 37L32 36L31 36L31 35L33 35L33 33L32 33L32 32L34 32L34 31L35 31L35 30L37 30L37 32L38 32L38 30L37 30L37 29L38 29L38 28L37 28L37 27L39 27L39 26L38 26L38 25L40 25L40 26L41 26L41 28L40 28L40 29L39 29L39 32L40 32L40 33L39 33L39 34L38 34L38 33L37 33L37 34L38 34L38 36L39 36L39 37L44 37L44 38L43 38L43 39L46 39L46 40L45 40L45 41L46 41L46 40L47 40L47 39L49 39L49 38L47 38L47 37L48 37L48 36L45 36L45 37L44 37L44 35L45 35L45 34L44 34L44 33L43 33L43 34L44 34L44 35L42 35L42 34L40 34L40 33L41 33L41 32L40 32L40 30L41 30L41 29L43 29L43 31L44 31L44 28L42 28L42 26L41 26L41 23L42 23L42 24L43 24L43 25L44 25L44 24L46 24L46 23L47 23L47 24L48 24L48 23L47 23L47 21L51 21L51 22L52 22L52 26L53 26L53 25L54 25L54 24L55 24L55 25L56 25L56 24L55 24L55 23L53 23L53 22L52 22L52 21L51 21L51 20L49 20L49 18L50 18L50 17L49 17L49 18L48 18L48 19L47 19L47 17L45 17L45 20L46 20L46 21L45 21L45 22L44 22L44 16L43 16L43 15L44 15L44 12L45 12L45 11L43 11L43 10L41 10L41 11L40 11L40 13L39 13L39 12L37 12L37 14L36 14L36 13L35 13L35 12L34 12L34 10L36 10L36 11L37 11L37 10L38 10L38 11L39 11L39 10L38 10L38 8L37 8L37 9L35 9L35 7L36 7L36 5L37 5L37 7L38 7L38 4L37 4L37 3L38 3L38 2L37 2L37 3L36 3L36 2L34 2L34 3L32 3L32 5L33 5L33 4L34 4L34 5L35 5L35 7L34 7L34 6L33 6L33 7L32 7L32 6L31 6L31 10L28 10L28 9L26 9L26 6L25 6L25 7L24 7L24 6L23 6L23 7L22 7L22 9L21 9L21 10L20 10L20 8L19 8L19 9L16 9L16 8L15 8L15 7L16 7L16 6L15 6L15 5L13 5L13 7L12 7L12 4L13 4L13 3L10 3L10 2ZM40 2L40 3L39 3L39 4L40 4L40 3L41 3L41 4L43 4L43 5L39 5L39 7L40 7L40 6L41 6L41 8L40 8L40 9L41 9L41 8L42 8L42 9L44 9L44 10L45 10L45 9L44 9L44 8L45 8L45 7L46 7L46 5L47 5L47 3L44 3L44 2L43 2L43 3L42 3L42 2ZM43 3L43 4L44 4L44 7L45 7L45 4L44 4L44 3ZM35 4L35 5L36 5L36 4ZM27 5L27 8L30 8L30 5ZM14 6L14 7L13 7L13 8L14 8L14 10L13 10L13 11L14 11L14 12L15 12L15 13L13 13L13 12L11 12L11 13L10 13L10 14L11 14L11 15L12 15L12 16L14 16L14 17L15 17L15 18L16 18L16 17L15 17L15 16L17 16L17 17L18 17L18 18L19 18L19 17L20 17L20 19L21 19L21 18L23 18L23 19L24 19L24 18L27 18L27 17L28 17L28 18L30 18L30 19L31 19L31 20L30 20L30 21L29 21L29 22L28 22L28 24L29 24L29 23L30 23L30 22L34 22L34 23L32 23L32 27L33 27L33 26L34 26L34 25L37 25L37 24L34 24L34 23L35 23L35 22L37 22L37 21L38 21L38 22L39 22L39 21L40 21L40 22L43 22L43 23L44 23L44 22L43 22L43 21L40 21L40 18L41 18L41 20L43 20L43 19L42 19L42 18L43 18L43 17L42 17L42 15L43 15L43 13L40 13L40 14L41 14L41 17L40 17L40 15L39 15L39 13L38 13L38 15L39 15L39 17L38 17L38 16L37 16L37 15L35 15L35 17L38 17L38 18L39 18L39 19L38 19L38 20L37 20L37 18L34 18L34 13L33 13L33 10L34 10L34 9L33 9L33 8L34 8L34 7L33 7L33 8L32 8L32 11L29 11L29 12L32 12L32 17L31 17L31 16L29 16L29 13L27 13L27 14L25 14L25 13L26 13L26 11L27 11L27 12L28 12L28 10L25 10L25 9L22 9L22 10L25 10L25 11L23 11L23 12L22 12L22 11L21 11L21 13L20 13L20 12L18 12L18 13L17 13L17 12L15 12L15 11L18 11L18 10L16 10L16 9L15 9L15 8L14 8L14 7L15 7L15 6ZM19 6L19 7L20 7L20 6ZM28 6L28 7L29 7L29 6ZM42 6L42 7L43 7L43 6ZM23 7L23 8L24 8L24 7ZM10 8L10 9L11 9L11 8ZM53 8L53 9L56 9L56 10L55 10L55 11L56 11L56 10L57 10L57 8ZM41 11L41 12L43 12L43 11ZM24 12L24 13L21 13L21 14L22 14L22 15L19 15L19 14L20 14L20 13L19 13L19 14L17 14L17 13L15 13L15 14L17 14L17 16L18 16L18 15L19 15L19 16L20 16L20 17L26 17L26 16L27 16L27 15L28 15L28 14L27 14L27 15L26 15L26 16L24 16L24 15L23 15L23 14L24 14L24 13L25 13L25 12ZM11 13L11 14L13 14L13 15L14 15L14 16L15 16L15 15L14 15L14 14L13 14L13 13ZM30 13L30 15L31 15L31 13ZM47 13L47 14L49 14L49 13ZM52 14L52 15L53 15L53 14ZM6 15L6 16L7 16L7 15ZM22 15L22 16L23 16L23 15ZM50 15L50 16L51 16L51 15ZM52 16L52 17L53 17L53 16ZM9 17L9 18L12 18L12 21L11 21L11 19L10 19L10 22L9 22L9 23L8 23L8 22L6 22L6 23L8 23L8 24L11 24L11 23L12 23L12 22L13 22L13 21L14 21L14 22L15 22L15 23L16 23L16 22L17 22L17 21L15 21L15 20L14 20L14 19L13 19L13 18L12 18L12 17ZM32 17L32 18L33 18L33 19L34 19L34 20L33 20L33 21L34 21L34 22L35 22L35 20L36 20L36 19L34 19L34 18L33 18L33 17ZM39 17L39 18L40 18L40 17ZM25 19L25 20L24 20L24 21L28 21L28 19L27 19L27 20L26 20L26 19ZM8 20L8 21L9 21L9 20ZM31 20L31 21L32 21L32 20ZM38 20L38 21L39 21L39 20ZM20 22L20 23L19 23L19 25L23 25L23 24L24 24L24 23L21 23L21 22ZM49 22L49 24L51 24L51 23L50 23L50 22ZM13 23L13 24L14 24L14 23ZM3 24L3 27L2 27L2 28L3 28L3 27L4 27L4 24ZM6 24L6 25L7 25L7 24ZM33 24L33 25L34 25L34 24ZM46 25L46 26L45 26L45 30L46 30L46 31L45 31L45 33L46 33L46 34L48 34L48 35L49 35L49 36L50 36L50 35L53 35L53 34L54 34L54 33L55 33L55 30L54 30L54 31L52 31L52 32L53 32L53 33L51 33L51 31L50 31L50 35L49 35L49 33L48 33L48 31L47 31L47 30L48 30L48 26L47 26L47 25ZM49 25L49 26L50 26L50 25ZM36 26L36 27L37 27L37 26ZM43 26L43 27L44 27L44 26ZM46 26L46 27L47 27L47 26ZM54 26L54 27L53 27L53 28L54 28L54 29L55 29L55 28L56 28L56 27L55 27L55 26ZM5 27L5 30L8 30L8 27ZM27 27L27 30L30 30L30 27ZM49 27L49 30L52 30L52 27ZM6 28L6 29L7 29L7 28ZM10 28L10 29L11 29L11 28ZM19 28L19 29L18 29L18 30L19 30L19 29L20 29L20 30L22 30L22 29L21 29L21 28ZM28 28L28 29L29 29L29 28ZM35 28L35 29L37 29L37 28ZM46 28L46 29L47 29L47 28ZM50 28L50 29L51 29L51 28ZM14 29L14 30L15 30L15 31L16 31L16 32L15 32L15 33L14 33L14 31L11 31L11 30L10 30L10 33L8 33L8 34L10 34L10 33L12 33L12 35L13 35L13 36L14 36L14 37L16 37L16 36L17 36L17 38L16 38L16 39L15 39L15 40L13 40L13 43L15 43L15 44L14 44L14 45L13 45L13 46L14 46L14 47L13 47L13 48L14 48L14 47L15 47L15 49L17 49L17 50L15 50L15 51L16 51L16 52L17 52L17 51L18 51L18 50L19 50L19 49L20 49L20 48L21 48L21 49L22 49L22 48L21 48L21 47L22 47L22 46L21 46L21 45L24 45L24 46L26 46L26 45L27 45L27 43L28 43L28 40L29 40L29 42L31 42L31 43L32 43L32 41L30 41L30 40L31 40L31 39L33 39L33 38L34 38L34 39L35 39L35 38L34 38L34 37L33 37L33 38L31 38L31 39L29 39L29 38L28 38L28 39L26 39L26 40L25 40L25 41L24 41L24 39L23 39L23 38L22 38L22 36L20 36L20 35L19 35L19 32L20 32L20 31L17 31L17 30L15 30L15 29ZM21 31L21 33L20 33L20 34L21 34L21 33L22 33L22 31ZM46 31L46 32L47 32L47 31ZM2 32L2 33L3 33L3 32ZM15 33L15 34L14 34L14 36L15 36L15 34L16 34L16 35L17 35L17 33ZM29 33L29 34L28 34L28 36L27 36L27 37L28 37L28 36L29 36L29 37L31 37L31 36L30 36L30 34L32 34L32 33ZM34 33L34 34L35 34L35 33ZM6 34L6 35L7 35L7 34ZM39 35L39 36L40 36L40 35ZM41 35L41 36L42 36L42 35ZM51 36L51 37L50 37L50 39L51 39L51 37L52 37L52 38L53 38L53 36ZM19 37L19 38L17 38L17 39L20 39L20 38L21 38L21 39L22 39L22 38L21 38L21 37ZM45 37L45 38L46 38L46 39L47 39L47 38L46 38L46 37ZM13 38L13 39L14 39L14 38ZM37 38L37 39L38 39L38 38ZM6 40L6 41L7 41L7 40ZM15 40L15 41L14 41L14 42L15 42L15 41L16 41L16 46L15 46L15 45L14 45L14 46L15 46L15 47L16 47L16 46L17 46L17 45L18 45L18 44L19 44L19 43L20 43L20 45L19 45L19 47L17 47L17 48L19 48L19 47L20 47L20 45L21 45L21 43L22 43L22 44L24 44L24 45L25 45L25 43L27 43L27 41L26 41L26 42L23 42L23 40L22 40L22 41L21 41L21 42L20 42L20 41L16 41L16 40ZM40 40L40 41L39 41L39 43L40 43L40 42L41 42L41 40ZM43 40L43 42L42 42L42 44L43 44L43 46L44 46L44 44L45 44L45 45L46 45L46 47L42 47L42 49L43 49L43 50L42 50L42 51L41 51L41 46L39 46L39 47L38 47L38 49L37 49L37 53L38 53L38 52L40 52L40 53L42 53L42 51L43 51L43 50L44 50L44 51L45 51L45 50L44 50L44 48L47 48L47 49L46 49L46 50L47 50L47 49L48 49L48 47L49 47L49 46L48 46L48 44L47 44L47 43L46 43L46 42L45 42L45 43L44 43L44 40ZM52 41L52 43L51 43L51 44L52 44L52 43L53 43L53 44L54 44L54 45L52 45L52 46L51 46L51 45L50 45L50 43L49 43L49 45L50 45L50 47L53 47L53 49L55 49L55 47L54 47L54 46L55 46L55 44L56 44L56 43L55 43L55 42L56 42L56 41L55 41L55 42L54 42L54 43L53 43L53 41ZM5 42L5 43L7 43L7 44L6 44L6 45L7 45L7 46L11 46L11 45L10 45L10 44L8 44L8 43L7 43L7 42ZM17 42L17 43L18 43L18 42ZM40 44L40 45L41 45L41 44ZM46 44L46 45L47 45L47 44ZM34 45L34 47L33 47L33 48L34 48L34 47L35 47L35 45ZM1 46L1 47L2 47L2 46ZM39 47L39 49L38 49L38 51L40 51L40 47ZM27 49L27 52L30 52L30 49ZM32 49L32 50L33 50L33 49ZM34 49L34 50L35 50L35 52L36 52L36 49ZM49 49L49 52L52 52L52 49ZM28 50L28 51L29 51L29 50ZM50 50L50 51L51 51L51 50ZM53 50L53 54L55 54L55 53L54 53L54 52L55 52L55 51L54 51L54 50ZM8 51L8 53L9 53L9 51ZM25 51L25 52L26 52L26 51ZM31 51L31 52L32 52L32 51ZM19 52L19 53L20 53L20 52ZM43 52L43 53L44 53L44 52ZM11 53L11 54L12 54L12 53ZM30 53L30 54L31 54L31 53ZM32 53L32 54L33 54L33 53ZM49 53L49 54L51 54L51 55L52 55L52 54L51 54L51 53ZM40 54L40 55L41 55L41 56L42 56L42 55L43 55L43 54L42 54L42 55L41 55L41 54ZM26 55L26 57L27 57L27 55ZM15 56L15 57L16 57L16 56ZM56 56L56 57L57 57L57 56ZM0 0L0 7L7 7L7 0ZM1 1L1 6L6 6L6 1ZM2 2L2 5L5 5L5 2ZM50 0L50 7L57 7L57 0ZM51 1L51 6L56 6L56 1ZM52 2L52 5L55 5L55 2ZM0 50L0 57L7 57L7 50ZM1 51L1 56L6 56L6 51ZM2 52L2 55L5 55L5 52Z" fill="#000000"/></g></g></svg>
