<?xml version="1.0" encoding="UTF-8"?>
<svg xmlns="http://www.w3.org/2000/svg" version="1.1" width="300" height="300" viewBox="0 0 300 300"><rect x="0" y="0" width="300" height="300" fill="#fefefe"/><g transform="scale(4.615)"><g transform="translate(4,4)"><path fill-rule="evenodd" d="M8 0L8 2L10 2L10 3L9 3L9 4L8 4L8 9L9 9L9 10L8 10L8 14L6 14L6 13L7 13L7 12L6 12L6 11L7 11L7 10L5 10L5 9L7 9L7 8L5 8L5 9L4 9L4 10L2 10L2 9L3 9L3 8L0 8L0 10L2 10L2 11L1 11L1 12L0 12L0 13L3 13L3 14L2 14L2 16L1 16L1 15L0 15L0 16L1 16L1 17L0 17L0 19L1 19L1 20L0 20L0 23L2 23L2 24L5 24L5 23L8 23L8 24L6 24L6 25L7 25L7 26L4 26L4 25L3 25L3 26L2 26L2 25L1 25L1 24L0 24L0 26L2 26L2 27L1 27L1 28L0 28L0 29L2 29L2 30L1 30L1 31L0 31L0 32L2 32L2 34L3 34L3 35L1 35L1 36L0 36L0 41L1 41L1 38L4 38L4 39L3 39L3 40L4 40L4 41L3 41L3 42L0 42L0 43L1 43L1 44L0 44L0 45L1 45L1 46L0 46L0 48L5 48L5 47L7 47L7 48L6 48L6 49L8 49L8 50L9 50L9 48L11 48L11 49L14 49L14 50L15 50L15 51L13 51L13 50L12 50L12 53L10 53L10 52L9 52L9 51L8 51L8 52L9 52L9 53L10 53L10 56L9 56L9 54L8 54L8 57L12 57L12 56L14 56L14 57L15 57L15 56L16 56L16 57L17 57L17 55L18 55L18 53L19 53L19 50L20 50L20 49L19 49L19 48L18 48L18 49L17 49L17 48L16 48L16 47L17 47L17 46L18 46L18 47L20 47L20 48L22 48L22 51L24 51L24 52L22 52L22 53L21 53L21 51L20 51L20 53L21 53L21 54L20 54L20 55L21 55L21 54L22 54L22 53L23 53L23 55L22 55L22 56L21 56L21 57L24 57L24 56L25 56L25 55L26 55L26 57L28 57L28 55L29 55L29 57L33 57L33 55L34 55L34 57L35 57L35 55L37 55L37 54L36 54L36 53L37 53L37 52L38 52L38 47L37 47L37 46L38 46L38 45L37 45L37 44L39 44L39 47L40 47L40 49L39 49L39 52L40 52L40 53L39 53L39 56L40 56L40 57L42 57L42 56L43 56L43 54L42 54L42 53L43 53L43 52L44 52L44 55L45 55L45 56L44 56L44 57L45 57L45 56L46 56L46 55L47 55L47 56L48 56L48 57L50 57L50 55L49 55L49 54L52 54L52 55L53 55L53 56L51 56L51 57L53 57L53 56L54 56L54 55L57 55L57 54L54 54L54 55L53 55L53 53L57 53L57 50L56 50L56 51L55 51L55 52L54 52L54 51L53 51L53 50L54 50L54 49L56 49L56 47L57 47L57 45L56 45L56 44L57 44L57 42L56 42L56 44L55 44L55 45L53 45L53 46L52 46L52 47L53 47L53 48L51 48L51 46L50 46L50 45L51 45L51 44L52 44L52 39L51 39L51 38L52 38L52 37L53 37L53 40L54 40L54 41L53 41L53 44L54 44L54 43L55 43L55 42L54 42L54 41L57 41L57 40L54 40L54 39L55 39L55 38L57 38L57 37L56 37L56 36L54 36L54 34L53 34L53 36L52 36L52 37L51 37L51 33L50 33L50 32L52 32L52 31L53 31L53 33L54 33L54 29L53 29L53 28L54 28L54 27L55 27L55 26L54 26L54 25L55 25L55 24L56 24L56 28L57 28L57 24L56 24L56 23L57 23L57 21L56 21L56 23L55 23L55 21L54 21L54 19L55 19L55 16L56 16L56 17L57 17L57 13L56 13L56 12L57 12L57 10L56 10L56 12L55 12L55 13L56 13L56 15L55 15L55 16L54 16L54 13L53 13L53 12L54 12L54 11L55 11L55 9L57 9L57 8L55 8L55 9L54 9L54 10L52 10L52 9L53 9L53 8L49 8L49 9L51 9L51 11L50 11L50 13L49 13L49 14L48 14L48 11L49 11L49 10L48 10L48 9L47 9L47 8L48 8L48 7L49 7L49 6L48 6L48 7L47 7L47 5L48 5L48 0L42 0L42 1L41 1L41 0L38 0L38 2L37 2L37 1L35 1L35 0L34 0L34 2L33 2L33 3L34 3L34 8L32 8L32 9L31 9L31 5L32 5L32 0L30 0L30 2L31 2L31 4L30 4L30 3L29 3L29 4L28 4L28 3L27 3L27 0L24 0L24 1L23 1L23 0L20 0L20 1L19 1L19 0L18 0L18 1L17 1L17 0L16 0L16 1L15 1L15 0L14 0L14 3L13 3L13 2L10 2L10 1L11 1L11 0ZM12 0L12 1L13 1L13 0ZM16 1L16 2L17 2L17 3L16 3L16 4L17 4L17 5L16 5L16 6L15 6L15 5L14 5L14 6L13 6L13 7L12 7L12 5L13 5L13 3L10 3L10 5L11 5L11 8L13 8L13 9L12 9L12 10L13 10L13 12L12 12L12 11L11 11L11 12L12 12L12 13L10 13L10 12L9 12L9 14L14 14L14 16L12 16L12 15L10 15L10 16L9 16L9 15L6 15L6 14L5 14L5 15L4 15L4 14L3 14L3 16L4 16L4 18L5 18L5 19L3 19L3 18L2 18L2 17L1 17L1 19L3 19L3 20L2 20L2 21L4 21L4 22L7 22L7 21L8 21L8 20L9 20L9 19L10 19L10 22L9 22L9 24L8 24L8 26L12 26L12 28L11 28L11 27L9 27L9 28L11 28L11 29L10 29L10 31L11 31L11 30L12 30L12 32L9 32L9 31L8 31L8 34L7 34L7 33L6 33L6 32L7 32L7 31L6 31L6 32L5 32L5 31L4 31L4 29L3 29L3 32L4 32L4 33L3 33L3 34L4 34L4 33L5 33L5 37L4 37L4 35L3 35L3 37L4 37L4 38L5 38L5 39L4 39L4 40L5 40L5 41L4 41L4 42L5 42L5 41L6 41L6 42L9 42L9 41L11 41L11 42L10 42L10 43L11 43L11 42L12 42L12 45L13 45L13 46L12 46L12 47L11 47L11 46L10 46L10 47L11 47L11 48L12 48L12 47L13 47L13 48L14 48L14 45L13 45L13 43L14 43L14 44L15 44L15 45L16 45L16 46L15 46L15 47L16 47L16 46L17 46L17 45L16 45L16 43L17 43L17 42L18 42L18 39L19 39L19 38L18 38L18 39L16 39L16 38L17 38L17 37L18 37L18 36L19 36L19 35L16 35L16 36L15 36L15 40L16 40L16 43L14 43L14 42L15 42L15 41L14 41L14 39L13 39L13 38L12 38L12 39L11 39L11 40L10 40L10 39L9 39L9 38L10 38L10 37L14 37L14 35L13 35L13 34L15 34L15 33L16 33L16 34L17 34L17 33L18 33L18 32L19 32L19 33L20 33L20 34L23 34L23 33L22 33L22 30L23 30L23 29L22 29L22 30L21 30L21 28L18 28L18 27L20 27L20 26L21 26L21 23L20 23L20 22L21 22L21 21L22 21L22 20L23 20L23 18L22 18L22 19L21 19L21 21L20 21L20 19L18 19L18 18L17 18L17 17L18 17L18 14L19 14L19 13L18 13L18 14L17 14L17 11L16 11L16 10L19 10L19 9L18 9L18 8L17 8L17 7L18 7L18 6L17 6L17 5L18 5L18 4L19 4L19 7L20 7L20 5L22 5L22 6L21 6L21 9L20 9L20 11L18 11L18 12L21 12L21 13L20 13L20 14L22 14L22 16L23 16L23 15L24 15L24 18L25 18L25 15L26 15L26 16L27 16L27 17L26 17L26 18L27 18L27 19L26 19L26 20L25 20L25 19L24 19L24 20L25 20L25 21L26 21L26 20L27 20L27 22L26 22L26 23L27 23L27 25L26 25L26 26L28 26L28 24L29 24L29 26L31 26L31 25L32 25L32 27L31 27L31 29L32 29L32 30L31 30L31 32L30 32L30 34L31 34L31 33L32 33L32 32L33 32L33 33L34 33L34 35L35 35L35 36L33 36L33 37L34 37L34 38L31 38L31 40L30 40L30 36L31 36L31 37L32 37L32 36L31 36L31 35L28 35L28 34L29 34L29 31L28 31L28 32L25 32L25 31L26 31L26 30L25 30L25 28L24 28L24 27L22 27L22 28L24 28L24 30L25 30L25 31L24 31L24 34L25 34L25 35L23 35L23 39L22 39L22 35L20 35L20 36L21 36L21 38L20 38L20 39L21 39L21 41L20 41L20 43L18 43L18 44L21 44L21 45L20 45L20 46L22 46L22 48L23 48L23 49L24 49L24 51L25 51L25 52L26 52L26 51L25 51L25 48L28 48L28 47L29 47L29 48L31 48L31 52L32 52L32 50L33 50L33 49L34 49L34 52L35 52L35 53L34 53L34 55L35 55L35 53L36 53L36 52L35 52L35 51L37 51L37 49L36 49L36 48L37 48L37 47L35 47L35 45L36 45L36 46L37 46L37 45L36 45L36 44L37 44L37 43L39 43L39 42L40 42L40 43L41 43L41 45L40 45L40 47L41 47L41 49L40 49L40 51L41 51L41 49L42 49L42 50L43 50L43 51L42 51L42 52L43 52L43 51L44 51L44 48L45 48L45 47L44 47L44 46L45 46L45 45L44 45L44 44L45 44L45 43L46 43L46 42L47 42L47 43L48 43L48 42L49 42L49 45L48 45L48 46L49 46L49 45L50 45L50 42L49 42L49 41L51 41L51 40L48 40L48 39L49 39L49 37L50 37L50 33L49 33L49 34L48 34L48 33L47 33L47 30L48 30L48 29L47 29L47 28L46 28L46 29L44 29L44 28L42 28L42 31L40 31L40 32L39 32L39 33L38 33L38 34L37 34L37 33L36 33L36 31L37 31L37 32L38 32L38 31L39 31L39 30L40 30L40 28L41 28L41 27L43 27L43 26L44 26L44 27L45 27L45 25L44 25L44 24L45 24L45 23L44 23L44 22L45 22L45 21L44 21L44 19L45 19L45 20L46 20L46 24L47 24L47 25L46 25L46 26L47 26L47 27L48 27L48 26L51 26L51 25L52 25L52 26L53 26L53 25L54 25L54 24L55 24L55 23L54 23L54 22L52 22L52 20L53 20L53 19L54 19L54 16L53 16L53 17L52 17L52 15L53 15L53 14L52 14L52 13L50 13L50 15L49 15L49 16L50 16L50 19L51 19L51 20L49 20L49 17L48 17L48 18L47 18L47 17L46 17L46 18L45 18L45 17L44 17L44 16L47 16L47 15L48 15L48 14L47 14L47 13L46 13L46 11L48 11L48 10L47 10L47 9L46 9L46 8L47 8L47 7L46 7L46 6L45 6L45 5L44 5L44 4L45 4L45 2L47 2L47 1L42 1L42 2L40 2L40 1L39 1L39 2L40 2L40 4L39 4L39 3L37 3L37 2L34 2L34 3L36 3L36 4L35 4L35 9L34 9L34 10L33 10L33 9L32 9L32 11L31 11L31 12L30 12L30 10L31 10L31 9L30 9L30 10L28 10L28 9L27 9L27 10L25 10L25 9L26 9L26 5L24 5L24 6L23 6L23 1L22 1L22 2L21 2L21 1L20 1L20 2L19 2L19 3L18 3L18 2L17 2L17 1ZM24 1L24 4L25 4L25 1ZM43 2L43 4L42 4L42 3L41 3L41 4L42 4L42 5L43 5L43 6L42 6L42 7L41 7L41 6L40 6L40 7L41 7L41 8L40 8L40 10L39 10L39 11L37 11L37 10L38 10L38 8L39 8L39 6L38 6L38 7L37 7L37 6L36 6L36 10L34 10L34 11L32 11L32 14L33 14L33 15L34 15L34 17L33 17L33 16L32 16L32 17L31 17L31 16L30 16L30 15L29 15L29 13L30 13L30 12L29 12L29 11L28 11L28 10L27 10L27 11L28 11L28 12L27 12L27 14L28 14L28 15L29 15L29 16L30 16L30 17L28 17L28 18L30 18L30 17L31 17L31 18L34 18L34 20L33 20L33 19L28 19L28 22L27 22L27 23L28 23L28 22L29 22L29 23L30 23L30 25L31 25L31 23L32 23L32 25L33 25L33 26L34 26L34 24L36 24L36 26L37 26L37 28L36 28L36 27L34 27L34 29L33 29L33 28L32 28L32 29L33 29L33 31L34 31L34 29L35 29L35 28L36 28L36 30L37 30L37 31L38 31L38 30L37 30L37 28L38 28L38 29L39 29L39 28L40 28L40 27L41 27L41 26L42 26L42 25L43 25L43 24L42 24L42 23L43 23L43 22L44 22L44 21L43 21L43 22L42 22L42 21L41 21L41 20L42 20L42 19L44 19L44 17L43 17L43 18L42 18L42 17L41 17L41 15L42 15L42 12L43 12L43 10L44 10L44 9L45 9L45 8L46 8L46 7L45 7L45 6L44 6L44 5L43 5L43 4L44 4L44 2ZM14 3L14 4L15 4L15 3ZM17 3L17 4L18 4L18 3ZM21 3L21 4L22 4L22 3ZM26 3L26 4L27 4L27 3ZM46 3L46 5L47 5L47 3ZM38 4L38 5L39 5L39 4ZM27 5L27 8L30 8L30 5ZM9 6L9 8L10 8L10 6ZM14 6L14 7L13 7L13 8L14 8L14 9L13 9L13 10L14 10L14 9L15 9L15 8L14 8L14 7L15 7L15 6ZM16 6L16 7L17 7L17 6ZM22 6L22 7L23 7L23 6ZM24 6L24 7L25 7L25 6ZM28 6L28 7L29 7L29 6ZM32 6L32 7L33 7L33 6ZM43 6L43 9L42 9L42 8L41 8L41 9L42 9L42 10L43 10L43 9L44 9L44 6ZM22 8L22 10L23 10L23 11L22 11L22 12L23 12L23 11L24 11L24 13L23 13L23 14L24 14L24 15L25 15L25 14L24 14L24 13L26 13L26 11L24 11L24 9L25 9L25 8L24 8L24 9L23 9L23 8ZM40 10L40 11L41 11L41 12L42 12L42 11L41 11L41 10ZM2 11L2 12L3 12L3 13L4 13L4 11ZM14 11L14 12L15 12L15 11ZM34 11L34 12L35 12L35 13L34 13L34 15L35 15L35 17L34 17L34 18L36 18L36 19L37 19L37 18L36 18L36 14L37 14L37 13L38 13L38 15L37 15L37 16L38 16L38 18L40 18L40 19L39 19L39 20L38 20L38 22L37 22L37 21L36 21L36 20L34 20L34 22L35 22L35 23L36 23L36 24L37 24L37 25L38 25L38 26L39 26L39 25L40 25L40 26L41 26L41 25L42 25L42 24L41 24L41 25L40 25L40 24L39 24L39 25L38 25L38 23L42 23L42 22L40 22L40 19L41 19L41 18L40 18L40 15L39 15L39 12L37 12L37 11L36 11L36 12L35 12L35 11ZM51 11L51 12L52 12L52 11ZM5 12L5 13L6 13L6 12ZM36 12L36 13L37 13L37 12ZM44 12L44 13L45 13L45 15L46 15L46 13L45 13L45 12ZM40 13L40 14L41 14L41 13ZM15 14L15 15L17 15L17 14ZM43 14L43 16L44 16L44 14ZM51 14L51 15L50 15L50 16L51 16L51 15L52 15L52 14ZM5 15L5 18L6 18L6 19L5 19L5 21L7 21L7 20L6 20L6 19L8 19L8 18L6 18L6 17L9 17L9 16L6 16L6 15ZM19 15L19 16L21 16L21 15ZM10 16L10 17L11 17L11 16ZM14 16L14 18L13 18L13 17L12 17L12 19L11 19L11 22L12 22L12 23L11 23L11 24L9 24L9 25L12 25L12 26L13 26L13 29L12 29L12 30L14 30L14 28L15 28L15 27L16 27L16 28L17 28L17 27L16 27L16 25L17 25L17 23L16 23L16 22L18 22L18 23L19 23L19 20L18 20L18 19L16 19L16 17L17 17L17 16L16 16L16 17L15 17L15 16ZM20 17L20 18L21 18L21 17ZM51 17L51 19L52 19L52 17ZM56 18L56 19L57 19L57 18ZM14 19L14 20L16 20L16 19ZM46 19L46 20L47 20L47 23L48 23L48 25L47 25L47 26L48 26L48 25L50 25L50 24L49 24L49 23L50 23L50 22L49 22L49 23L48 23L48 21L49 21L49 20L48 20L48 19ZM17 20L17 21L18 21L18 20ZM31 20L31 21L30 21L30 22L33 22L33 21L32 21L32 20ZM12 21L12 22L13 22L13 23L14 23L14 25L15 25L15 21L14 21L14 22L13 22L13 21ZM35 21L35 22L36 22L36 23L37 23L37 22L36 22L36 21ZM2 22L2 23L3 23L3 22ZM22 22L22 23L23 23L23 22ZM24 22L24 23L25 23L25 22ZM51 22L51 24L52 24L52 25L53 25L53 24L54 24L54 23L53 23L53 24L52 24L52 22ZM33 23L33 24L34 24L34 23ZM12 24L12 25L13 25L13 24ZM18 24L18 25L19 25L19 24ZM23 24L23 25L24 25L24 26L25 26L25 25L24 25L24 24ZM14 26L14 27L15 27L15 26ZM5 27L5 30L8 30L8 27ZM27 27L27 30L30 30L30 27ZM49 27L49 30L52 30L52 27ZM6 28L6 29L7 29L7 28ZM28 28L28 29L29 29L29 28ZM50 28L50 29L51 29L51 28ZM43 29L43 30L44 30L44 29ZM55 29L55 30L56 30L56 31L55 31L55 33L56 33L56 35L57 35L57 33L56 33L56 31L57 31L57 29ZM15 30L15 31L14 31L14 33L15 33L15 32L16 32L16 33L17 33L17 32L16 32L16 31L19 31L19 32L20 32L20 30ZM45 30L45 31L42 31L42 33L41 33L41 32L40 32L40 34L42 34L42 33L43 33L43 34L44 34L44 38L43 38L43 39L42 39L42 41L41 41L41 40L40 40L40 42L41 42L41 43L43 43L43 42L42 42L42 41L43 41L43 39L44 39L44 43L45 43L45 42L46 42L46 41L45 41L45 40L47 40L47 41L48 41L48 40L47 40L47 38L46 38L46 37L45 37L45 34L46 34L46 36L47 36L47 37L48 37L48 36L49 36L49 35L48 35L48 34L46 34L46 32L45 32L45 31L46 31L46 30ZM12 32L12 34L11 34L11 33L9 33L9 34L8 34L8 35L7 35L7 34L6 34L6 35L7 35L7 36L6 36L6 37L7 37L7 38L6 38L6 39L5 39L5 40L6 40L6 41L7 41L7 40L6 40L6 39L8 39L8 40L9 40L9 39L8 39L8 37L7 37L7 36L8 36L8 35L12 35L12 36L13 36L13 35L12 35L12 34L13 34L13 32ZM34 32L34 33L35 33L35 35L36 35L36 37L35 37L35 38L34 38L34 41L33 41L33 40L32 40L32 45L33 45L33 48L32 48L32 46L30 46L30 47L31 47L31 48L32 48L32 49L33 49L33 48L34 48L34 49L35 49L35 47L34 47L34 45L33 45L33 44L35 44L35 43L36 43L36 41L37 41L37 42L38 42L38 41L39 41L39 39L38 39L38 36L39 36L39 38L40 38L40 39L41 39L41 36L42 36L42 37L43 37L43 36L42 36L42 35L40 35L40 36L39 36L39 34L38 34L38 36L37 36L37 35L36 35L36 33L35 33L35 32ZM0 33L0 34L1 34L1 33ZM27 33L27 34L26 34L26 35L25 35L25 36L24 36L24 37L25 37L25 36L26 36L26 37L27 37L27 36L28 36L28 37L29 37L29 36L28 36L28 35L27 35L27 34L28 34L28 33ZM44 33L44 34L45 34L45 33ZM47 35L47 36L48 36L48 35ZM1 36L1 37L2 37L2 36ZM9 36L9 37L10 37L10 36ZM16 36L16 37L17 37L17 36ZM53 36L53 37L54 37L54 38L55 38L55 37L54 37L54 36ZM36 37L36 38L35 38L35 41L34 41L34 42L35 42L35 41L36 41L36 38L37 38L37 37ZM24 38L24 39L25 39L25 38ZM28 38L28 39L29 39L29 38ZM12 39L12 40L11 40L11 41L13 41L13 39ZM37 39L37 41L38 41L38 39ZM22 40L22 41L23 41L23 42L24 42L24 41L23 41L23 40ZM25 40L25 41L26 41L26 42L25 42L25 43L24 43L24 44L25 44L25 45L26 45L26 46L24 46L24 47L23 47L23 48L24 48L24 47L26 47L26 46L27 46L27 47L28 47L28 45L29 45L29 44L30 44L30 45L31 45L31 44L30 44L30 43L31 43L31 41L30 41L30 40L29 40L29 42L30 42L30 43L28 43L28 40ZM2 43L2 46L1 46L1 47L2 47L2 46L3 46L3 47L5 47L5 46L7 46L7 47L8 47L8 48L9 48L9 45L6 45L6 44L7 44L7 43L4 43L4 45L5 45L5 46L3 46L3 43ZM8 43L8 44L9 44L9 43ZM22 43L22 44L23 44L23 43ZM10 44L10 45L11 45L11 44ZM42 44L42 45L41 45L41 47L42 47L42 45L43 45L43 44ZM46 44L46 50L45 50L45 51L46 51L46 50L47 50L47 44ZM18 45L18 46L19 46L19 45ZM55 45L55 46L54 46L54 48L55 48L55 47L56 47L56 45ZM15 48L15 49L16 49L16 51L15 51L15 52L16 52L16 51L17 51L17 53L18 53L18 50L19 50L19 49L18 49L18 50L17 50L17 49L16 49L16 48ZM27 49L27 52L30 52L30 49ZM49 49L49 52L52 52L52 49ZM28 50L28 51L29 51L29 50ZM50 50L50 51L51 51L51 50ZM47 51L47 52L48 52L48 51ZM13 52L13 53L12 53L12 55L11 55L11 56L12 56L12 55L14 55L14 54L15 54L15 53L14 53L14 52ZM45 52L45 53L46 53L46 54L47 54L47 55L48 55L48 56L49 56L49 55L48 55L48 54L49 54L49 53L48 53L48 54L47 54L47 53L46 53L46 52ZM13 53L13 54L14 54L14 53ZM27 53L27 54L26 54L26 55L28 55L28 53ZM31 53L31 54L30 54L30 55L33 55L33 54L32 54L32 53ZM16 54L16 55L17 55L17 54ZM24 54L24 55L25 55L25 54ZM40 54L40 55L42 55L42 54ZM18 56L18 57L19 57L19 56ZM36 56L36 57L37 57L37 56ZM56 56L56 57L57 57L57 56ZM0 0L0 7L7 7L7 0ZM1 1L1 6L6 6L6 1ZM2 2L2 5L5 5L5 2ZM50 0L50 7L57 7L57 0ZM51 1L51 6L56 6L56 1ZM52 2L52 5L55 5L55 2ZM0 50L0 57L7 57L7 50ZM1 51L1 56L6 56L6 51ZM2 52L2 55L5 55L5 52Z" fill="#000000"/></g></g></svg>
