<?xml version="1.0" encoding="UTF-8"?>
<svg xmlns="http://www.w3.org/2000/svg" version="1.1" width="300" height="300" viewBox="0 0 300 300"><rect x="0" y="0" width="300" height="300" fill="#fefefe"/><g transform="scale(4.615)"><g transform="translate(4,4)"><path fill-rule="evenodd" d="M8 0L8 2L11 2L11 4L12 4L12 5L14 5L14 7L15 7L15 6L16 6L16 7L17 7L17 8L18 8L18 9L17 9L17 11L16 11L16 8L14 8L14 9L15 9L15 11L14 11L14 12L15 12L15 11L16 11L16 12L17 12L17 14L15 14L15 15L18 15L18 18L16 18L16 19L15 19L15 18L14 18L14 17L15 17L15 16L14 16L14 15L13 15L13 14L11 14L11 15L10 15L10 13L9 13L9 15L8 15L8 16L5 16L5 15L7 15L7 14L8 14L8 12L9 12L9 11L12 11L12 13L13 13L13 10L11 10L11 9L13 9L13 8L12 8L12 7L13 7L13 6L12 6L12 7L11 7L11 5L10 5L10 4L8 4L8 9L9 9L9 8L10 8L10 7L11 7L11 9L10 9L10 10L9 10L9 11L7 11L7 10L4 10L4 9L3 9L3 8L0 8L0 10L1 10L1 9L2 9L2 11L1 11L1 12L2 12L2 13L3 13L3 14L1 14L1 13L0 13L0 14L1 14L1 15L3 15L3 16L0 16L0 20L1 20L1 19L2 19L2 21L1 21L1 22L0 22L0 23L1 23L1 24L3 24L3 23L4 23L4 21L3 21L3 20L5 20L5 22L6 22L6 23L9 23L9 24L10 24L10 25L11 25L11 24L12 24L12 25L13 25L13 23L14 23L14 24L16 24L16 25L14 25L14 26L12 26L12 27L11 27L11 26L5 26L5 24L4 24L4 25L1 25L1 26L4 26L4 28L2 28L2 27L0 27L0 30L2 30L2 31L0 31L0 33L1 33L1 32L2 32L2 33L3 33L3 32L2 32L2 31L3 31L3 30L2 30L2 29L4 29L4 32L6 32L6 33L4 33L4 34L0 34L0 36L1 36L1 38L2 38L2 41L3 41L3 42L4 42L4 43L2 43L2 42L1 42L1 45L0 45L0 48L5 48L5 47L8 47L8 50L9 50L9 47L8 47L8 44L9 44L9 46L10 46L10 48L11 48L11 49L10 49L10 53L9 53L9 54L8 54L8 57L9 57L9 56L10 56L10 55L11 55L11 54L15 54L15 55L12 55L12 56L13 56L13 57L14 57L14 56L15 56L15 57L17 57L17 56L18 56L18 57L21 57L21 56L18 56L18 55L16 55L16 54L18 54L18 53L19 53L19 52L20 52L20 53L21 53L21 52L22 52L22 54L20 54L20 55L22 55L22 57L25 57L25 55L24 55L24 54L25 54L25 51L24 51L24 49L23 49L23 48L25 48L25 50L26 50L26 55L27 55L27 56L26 56L26 57L28 57L28 55L29 55L29 57L33 57L33 55L34 55L34 57L35 57L35 55L37 55L37 54L36 54L36 53L37 53L37 52L38 52L38 53L39 53L39 56L40 56L40 57L42 57L42 56L44 56L44 57L45 57L45 56L46 56L46 55L47 55L47 57L50 57L50 55L49 55L49 54L52 54L52 55L53 55L53 56L51 56L51 57L54 57L54 55L57 55L57 54L54 54L54 53L57 53L57 52L56 52L56 51L57 51L57 50L56 50L56 51L55 51L55 52L54 52L54 51L53 51L53 50L54 50L54 49L56 49L56 47L57 47L57 42L56 42L56 43L55 43L55 42L54 42L54 39L55 39L55 38L57 38L57 33L56 33L56 31L57 31L57 29L53 29L53 28L54 28L54 27L55 27L55 28L56 28L56 27L57 27L57 24L56 24L56 23L57 23L57 20L56 20L56 19L57 19L57 12L56 12L56 11L57 11L57 10L56 10L56 11L55 11L55 9L57 9L57 8L55 8L55 9L54 9L54 10L52 10L52 9L53 9L53 8L49 8L49 10L50 10L50 9L51 9L51 10L52 10L52 12L51 12L51 11L50 11L50 13L49 13L49 14L48 14L48 12L49 12L49 11L48 11L48 12L47 12L47 11L46 11L46 7L47 7L47 10L48 10L48 7L49 7L49 6L48 6L48 7L47 7L47 5L48 5L48 0L46 0L46 1L45 1L45 0L42 0L42 1L41 1L41 0L38 0L38 2L37 2L37 1L35 1L35 0L34 0L34 2L37 2L37 4L38 4L38 5L39 5L39 4L40 4L40 2L42 2L42 1L45 1L45 4L44 4L44 2L43 2L43 3L41 3L41 4L42 4L42 5L43 5L43 6L42 6L42 7L41 7L41 6L40 6L40 7L41 7L41 8L40 8L40 9L39 9L39 6L38 6L38 7L37 7L37 6L36 6L36 10L34 10L34 9L35 9L35 4L36 4L36 3L35 3L35 4L34 4L34 3L33 3L33 4L34 4L34 5L33 5L33 6L32 6L32 7L33 7L33 6L34 6L34 8L32 8L32 9L31 9L31 5L32 5L32 2L33 2L33 0L32 0L32 1L31 1L31 0L28 0L28 1L27 1L27 0L24 0L24 1L23 1L23 0L20 0L20 2L18 2L18 0L16 0L16 1L14 1L14 0L13 0L13 1L14 1L14 3L13 3L13 4L12 4L12 2L11 2L11 0L10 0L10 1L9 1L9 0ZM16 1L16 2L15 2L15 3L14 3L14 4L15 4L15 3L16 3L16 4L17 4L17 5L16 5L16 6L17 6L17 7L18 7L18 6L17 6L17 5L19 5L19 7L20 7L20 5L22 5L22 6L21 6L21 7L22 7L22 6L23 6L23 8L25 8L25 9L24 9L24 11L23 11L23 9L22 9L22 8L21 8L21 9L20 9L20 10L19 10L19 9L18 9L18 10L19 10L19 11L18 11L18 12L19 12L19 13L18 13L18 15L19 15L19 16L20 16L20 18L19 18L19 19L16 19L16 20L19 20L19 23L18 23L18 22L16 22L16 23L17 23L17 25L16 25L16 26L14 26L14 27L12 27L12 29L11 29L11 27L10 27L10 28L9 28L9 30L10 30L10 31L11 31L11 32L10 32L10 33L11 33L11 34L14 34L14 35L15 35L15 34L14 34L14 33L16 33L16 36L15 36L15 37L14 37L14 36L13 36L13 38L15 38L15 40L17 40L17 41L16 41L16 42L15 42L15 41L14 41L14 42L15 42L15 43L17 43L17 42L18 42L18 40L19 40L19 38L18 38L18 36L19 36L19 35L18 35L18 36L17 36L17 33L16 33L16 32L20 32L20 34L22 34L22 35L21 35L21 37L22 37L22 38L23 38L23 39L22 39L22 40L21 40L21 41L20 41L20 42L21 42L21 43L20 43L20 44L19 44L19 43L18 43L18 44L19 44L19 45L18 45L18 46L19 46L19 45L20 45L20 46L22 46L22 48L20 48L20 51L22 51L22 52L24 52L24 51L22 51L22 48L23 48L23 44L22 44L22 43L23 43L23 41L22 41L22 40L24 40L24 44L25 44L25 42L26 42L26 41L25 41L25 40L27 40L27 41L28 41L28 42L27 42L27 45L28 45L28 46L29 46L29 47L28 47L28 48L29 48L29 47L30 47L30 48L31 48L31 47L30 47L30 46L31 46L31 45L32 45L32 44L31 44L31 43L32 43L32 40L33 40L33 41L34 41L34 42L35 42L35 41L36 41L36 43L35 43L35 44L33 44L33 45L34 45L34 50L35 50L35 51L37 51L37 49L36 49L36 48L37 48L37 47L38 47L38 52L39 52L39 53L40 53L40 52L39 52L39 49L40 49L40 51L41 51L41 49L42 49L42 50L43 50L43 51L42 51L42 52L43 52L43 53L42 53L42 54L40 54L40 56L42 56L42 54L43 54L43 55L44 55L44 56L45 56L45 55L46 55L46 54L47 54L47 55L48 55L48 54L49 54L49 53L46 53L46 51L47 51L47 52L48 52L48 51L47 51L47 49L46 49L46 48L45 48L45 49L46 49L46 51L45 51L45 50L44 50L44 46L45 46L45 45L44 45L44 44L45 44L45 41L46 41L46 42L47 42L47 44L46 44L46 47L47 47L47 46L49 46L49 47L50 47L50 48L51 48L51 47L50 47L50 45L52 45L52 48L53 48L53 45L55 45L55 47L54 47L54 48L55 48L55 47L56 47L56 44L55 44L55 43L54 43L54 44L53 44L53 40L52 40L52 39L53 39L53 37L54 37L54 38L55 38L55 37L56 37L56 36L55 36L55 31L56 31L56 30L55 30L55 31L54 31L54 30L53 30L53 31L49 31L49 32L50 32L50 33L49 33L49 34L48 34L48 33L47 33L47 30L48 30L48 28L46 28L46 29L44 29L44 28L42 28L42 31L41 31L41 30L40 30L40 28L41 28L41 27L43 27L43 26L44 26L44 27L45 27L45 26L44 26L44 24L46 24L46 23L47 23L47 24L48 24L48 26L47 26L47 25L46 25L46 26L47 26L47 27L48 27L48 26L49 26L49 24L50 24L50 26L52 26L52 24L53 24L53 22L52 22L52 20L53 20L53 19L54 19L54 21L55 21L55 22L54 22L54 24L55 24L55 25L54 25L54 26L55 26L55 25L56 25L56 24L55 24L55 23L56 23L56 21L55 21L55 19L54 19L54 17L53 17L53 18L52 18L52 16L53 16L53 15L54 15L54 16L55 16L55 17L56 17L56 16L55 16L55 15L56 15L56 12L55 12L55 11L54 11L54 12L53 12L53 13L54 13L54 14L52 14L52 13L50 13L50 16L51 16L51 17L50 17L50 18L51 18L51 20L49 20L49 19L48 19L48 20L47 20L47 19L46 19L46 23L44 23L44 22L45 22L45 21L44 21L44 19L45 19L45 17L44 17L44 16L45 16L45 13L46 13L46 16L47 16L47 15L48 15L48 14L47 14L47 13L46 13L46 11L45 11L45 10L44 10L44 6L45 6L45 7L46 7L46 6L45 6L45 5L44 5L44 4L43 4L43 5L44 5L44 6L43 6L43 9L42 9L42 8L41 8L41 9L40 9L40 10L41 10L41 12L42 12L42 15L41 15L41 14L40 14L40 11L39 11L39 12L37 12L37 11L38 11L38 10L39 10L39 9L38 9L38 8L37 8L37 9L38 9L38 10L37 10L37 11L34 11L34 10L33 10L33 9L32 9L32 11L34 11L34 12L35 12L35 13L34 13L34 15L33 15L33 13L32 13L32 12L30 12L30 11L29 11L29 12L30 12L30 13L29 13L29 15L28 15L28 14L27 14L27 15L26 15L26 14L25 14L25 13L24 13L24 11L26 11L26 13L27 13L27 12L28 12L28 9L27 9L27 10L25 10L25 9L26 9L26 5L24 5L24 6L23 6L23 1L21 1L21 3L16 3L16 2L17 2L17 1ZM24 1L24 4L25 4L25 1ZM28 1L28 2L29 2L29 1ZM39 1L39 2L38 2L38 4L39 4L39 2L40 2L40 1ZM46 1L46 2L47 2L47 1ZM30 2L30 3L28 3L28 4L30 4L30 3L31 3L31 2ZM21 3L21 4L22 4L22 3ZM26 3L26 4L27 4L27 3ZM46 3L46 5L47 5L47 3ZM27 5L27 8L30 8L30 5ZM9 6L9 7L10 7L10 6ZM24 6L24 7L25 7L25 6ZM28 6L28 7L29 7L29 6ZM5 8L5 9L7 9L7 8ZM21 9L21 10L20 10L20 13L19 13L19 14L20 14L20 13L21 13L21 10L22 10L22 9ZM30 9L30 10L31 10L31 9ZM41 9L41 10L42 10L42 12L43 12L43 11L44 11L44 10L42 10L42 9ZM3 11L3 13L4 13L4 12L5 12L5 13L6 13L6 14L7 14L7 13L6 13L6 12L7 12L7 11L6 11L6 12L5 12L5 11ZM22 11L22 12L23 12L23 11ZM36 12L36 13L35 13L35 14L36 14L36 13L37 13L37 15L36 15L36 18L34 18L34 17L35 17L35 15L34 15L34 17L33 17L33 15L32 15L32 13L31 13L31 15L32 15L32 17L31 17L31 16L30 16L30 15L29 15L29 16L30 16L30 17L28 17L28 18L30 18L30 17L31 17L31 20L30 20L30 21L31 21L31 20L32 20L32 21L33 21L33 22L31 22L31 23L29 23L29 20L28 20L28 21L27 21L27 20L26 20L26 19L27 19L27 18L26 18L26 19L25 19L25 18L24 18L24 16L22 16L22 14L21 14L21 18L20 18L20 19L19 19L19 20L20 20L20 21L21 21L21 22L20 22L20 23L21 23L21 26L20 26L20 25L19 25L19 24L18 24L18 26L20 26L20 27L21 27L21 30L19 30L19 31L21 31L21 30L22 30L22 33L23 33L23 35L25 35L25 36L24 36L24 37L25 37L25 36L26 36L26 37L27 37L27 36L28 36L28 37L29 37L29 36L28 36L28 35L31 35L31 36L30 36L30 40L28 40L28 41L29 41L29 42L28 42L28 44L29 44L29 46L30 46L30 43L31 43L31 38L33 38L33 39L34 39L34 41L35 41L35 39L34 39L34 36L35 36L35 35L36 35L36 37L35 37L35 38L36 38L36 41L37 41L37 42L38 42L38 41L39 41L39 38L40 38L40 41L41 41L41 42L40 42L40 46L39 46L39 47L40 47L40 49L41 49L41 47L42 47L42 45L43 45L43 44L42 44L42 45L41 45L41 42L42 42L42 43L44 43L44 41L45 41L45 40L46 40L46 41L48 41L48 40L51 40L51 41L49 41L49 42L50 42L50 44L49 44L49 43L48 43L48 44L47 44L47 45L50 45L50 44L52 44L52 45L53 45L53 44L52 44L52 40L51 40L51 38L52 38L52 37L53 37L53 36L54 36L54 37L55 37L55 36L54 36L54 34L53 34L53 36L51 36L51 33L50 33L50 36L49 36L49 35L48 35L48 34L46 34L46 30L45 30L45 31L42 31L42 33L41 33L41 32L40 32L40 30L39 30L39 31L38 31L38 30L37 30L37 28L38 28L38 29L39 29L39 28L40 28L40 27L41 27L41 26L42 26L42 25L43 25L43 24L44 24L44 23L43 23L43 22L44 22L44 21L43 21L43 22L42 22L42 21L41 21L41 20L42 20L42 19L44 19L44 17L43 17L43 18L42 18L42 17L41 17L41 15L40 15L40 14L39 14L39 15L40 15L40 18L38 18L38 16L37 16L37 15L38 15L38 13L37 13L37 12ZM44 12L44 13L45 13L45 12ZM23 13L23 15L24 15L24 13ZM3 14L3 15L5 15L5 14ZM43 14L43 16L44 16L44 14ZM51 14L51 15L52 15L52 14ZM54 14L54 15L55 15L55 14ZM9 15L9 16L8 16L8 17L9 17L9 18L7 18L7 17L6 17L6 18L7 18L7 19L5 19L5 18L4 18L4 19L5 19L5 20L7 20L7 21L6 21L6 22L7 22L7 21L8 21L8 22L9 22L9 23L10 23L10 24L11 24L11 23L13 23L13 22L9 22L9 21L8 21L8 20L7 20L7 19L9 19L9 20L10 20L10 21L11 21L11 20L12 20L12 21L13 21L13 20L12 20L12 19L13 19L13 18L12 18L12 19L11 19L11 20L10 20L10 17L9 17L9 16L10 16L10 15ZM25 15L25 17L26 17L26 15ZM3 16L3 17L2 17L2 18L3 18L3 17L4 17L4 16ZM12 16L12 17L14 17L14 16ZM32 17L32 18L33 18L33 21L34 21L34 22L33 22L33 24L34 24L34 26L33 26L33 25L32 25L32 23L31 23L31 25L30 25L30 24L29 24L29 23L28 23L28 22L26 22L26 23L28 23L28 24L27 24L27 25L26 25L26 26L28 26L28 24L29 24L29 25L30 25L30 26L31 26L31 25L32 25L32 28L31 28L31 29L32 29L32 31L31 31L31 32L30 32L30 34L33 34L33 36L34 36L34 34L35 34L35 33L36 33L36 35L38 35L38 36L37 36L37 37L36 37L36 38L37 38L37 37L38 37L38 38L39 38L39 36L40 36L40 35L41 35L41 40L42 40L42 39L43 39L43 38L44 38L44 35L43 35L43 33L42 33L42 34L40 34L40 32L39 32L39 33L38 33L38 34L37 34L37 33L36 33L36 31L37 31L37 32L38 32L38 31L37 31L37 30L36 30L36 27L37 27L37 26L36 26L36 24L37 24L37 25L38 25L38 26L39 26L39 23L42 23L42 24L41 24L41 25L42 25L42 24L43 24L43 23L42 23L42 22L40 22L40 19L41 19L41 18L40 18L40 19L39 19L39 21L38 21L38 20L37 20L37 21L36 21L36 20L35 20L35 21L34 21L34 18L33 18L33 17ZM46 17L46 18L47 18L47 17ZM48 17L48 18L49 18L49 17ZM21 18L21 21L22 21L22 22L23 22L23 21L22 21L22 20L23 20L23 19L22 19L22 18ZM36 18L36 19L37 19L37 18ZM14 19L14 20L15 20L15 19ZM24 19L24 20L25 20L25 21L26 21L26 20L25 20L25 19ZM48 20L48 21L47 21L47 22L48 22L48 24L49 24L49 23L50 23L50 24L52 24L52 22L51 22L51 23L50 23L50 22L48 22L48 21L49 21L49 20ZM2 21L2 22L1 22L1 23L2 23L2 22L3 22L3 21ZM14 21L14 23L15 23L15 21ZM35 21L35 22L34 22L34 24L36 24L36 23L39 23L39 22L38 22L38 21L37 21L37 22L36 22L36 21ZM24 22L24 23L25 23L25 22ZM35 22L35 23L36 23L36 22ZM22 23L22 24L23 24L23 25L24 25L24 27L22 27L22 28L23 28L23 29L22 29L22 30L23 30L23 32L24 32L24 34L25 34L25 35L26 35L26 36L27 36L27 35L28 35L28 34L29 34L29 32L28 32L28 31L27 31L27 33L28 33L28 34L26 34L26 30L25 30L25 29L24 29L24 27L25 27L25 25L24 25L24 24L23 24L23 23ZM6 24L6 25L8 25L8 24ZM5 27L5 30L8 30L8 27ZM15 27L15 28L16 28L16 27ZM18 27L18 28L19 28L19 27ZM27 27L27 30L30 30L30 27ZM34 27L34 29L33 29L33 28L32 28L32 29L33 29L33 31L32 31L32 33L33 33L33 34L34 34L34 33L35 33L35 32L34 32L34 29L35 29L35 27ZM49 27L49 30L52 30L52 27ZM1 28L1 29L2 29L2 28ZM6 28L6 29L7 29L7 28ZM28 28L28 29L29 29L29 28ZM50 28L50 29L51 29L51 28ZM10 29L10 30L11 30L11 29ZM12 29L12 31L13 31L13 32L11 32L11 33L14 33L14 32L16 32L16 31L17 31L17 30L15 30L15 29L14 29L14 30L13 30L13 29ZM23 29L23 30L24 30L24 29ZM43 29L43 30L44 30L44 29ZM6 31L6 32L7 32L7 31ZM24 31L24 32L25 32L25 31ZM53 31L53 33L54 33L54 31ZM8 32L8 34L7 34L7 33L6 33L6 34L7 34L7 35L4 35L4 37L3 37L3 41L4 41L4 42L5 42L5 44L4 44L4 45L1 45L1 47L2 47L2 46L3 46L3 47L5 47L5 46L7 46L7 45L6 45L6 44L7 44L7 43L9 43L9 44L10 44L10 46L11 46L11 47L12 47L12 49L11 49L11 53L12 53L12 51L13 51L13 50L14 50L14 52L13 52L13 53L14 53L14 52L15 52L15 50L14 50L14 49L16 49L16 52L17 52L17 53L18 53L18 52L17 52L17 51L19 51L19 49L18 49L18 48L17 48L17 47L16 47L16 46L17 46L17 45L16 45L16 44L15 44L15 45L16 45L16 46L14 46L14 45L13 45L13 44L14 44L14 43L13 43L13 44L12 44L12 41L11 41L11 40L12 40L12 38L10 38L10 37L9 37L9 32ZM38 34L38 35L39 35L39 34ZM7 35L7 36L5 36L5 38L6 38L6 39L7 39L7 40L5 40L5 42L6 42L6 43L7 43L7 42L9 42L9 41L7 41L7 40L10 40L10 38L9 38L9 37L8 37L8 38L6 38L6 37L7 37L7 36L8 36L8 35ZM42 35L42 37L43 37L43 35ZM45 35L45 36L46 36L46 35ZM47 35L47 36L48 36L48 35ZM16 36L16 37L17 37L17 36ZM22 36L22 37L23 37L23 36ZM31 36L31 37L32 37L32 36ZM46 37L46 38L45 38L45 39L46 39L46 38L47 38L47 40L48 40L48 39L49 39L49 38L47 38L47 37ZM50 37L50 38L51 38L51 37ZM8 38L8 39L9 39L9 38ZM16 38L16 39L18 39L18 38ZM20 38L20 39L21 39L21 38ZM24 38L24 39L26 39L26 38ZM28 38L28 39L29 39L29 38ZM0 39L0 41L1 41L1 39ZM13 39L13 40L14 40L14 39ZM37 39L37 41L38 41L38 39ZM43 40L43 41L42 41L42 42L43 42L43 41L44 41L44 40ZM55 40L55 41L57 41L57 40ZM6 41L6 42L7 42L7 41ZM21 41L21 42L22 42L22 41ZM29 42L29 43L30 43L30 42ZM37 43L37 44L36 44L36 45L35 45L35 47L37 47L37 46L38 46L38 45L37 45L37 44L39 44L39 43ZM11 44L11 45L12 45L12 44ZM4 45L4 46L5 46L5 45ZM24 45L24 46L26 46L26 48L27 48L27 46L26 46L26 45ZM12 46L12 47L13 47L13 49L12 49L12 50L13 50L13 49L14 49L14 47L13 47L13 46ZM32 46L32 47L33 47L33 46ZM40 46L40 47L41 47L41 46ZM6 48L6 49L7 49L7 48ZM16 48L16 49L17 49L17 50L18 50L18 49L17 49L17 48ZM27 49L27 52L30 52L30 49ZM31 49L31 50L32 50L32 51L31 51L31 52L32 52L32 51L33 51L33 52L34 52L34 55L35 55L35 53L36 53L36 52L34 52L34 51L33 51L33 50L32 50L32 49ZM49 49L49 52L52 52L52 49ZM28 50L28 51L29 51L29 50ZM50 50L50 51L51 51L51 50ZM8 51L8 52L9 52L9 51ZM43 51L43 52L44 52L44 55L45 55L45 54L46 54L46 53L45 53L45 51ZM27 53L27 55L28 55L28 53ZM31 53L31 54L30 54L30 55L33 55L33 54L32 54L32 53ZM9 54L9 55L10 55L10 54ZM22 54L22 55L23 55L23 54ZM36 56L36 57L37 57L37 56ZM56 56L56 57L57 57L57 56ZM0 0L0 7L7 7L7 0ZM1 1L1 6L6 6L6 1ZM2 2L2 5L5 5L5 2ZM50 0L50 7L57 7L57 0ZM51 1L51 6L56 6L56 1ZM52 2L52 5L55 5L55 2ZM0 50L0 57L7 57L7 50ZM1 51L1 56L6 56L6 51ZM2 52L2 55L5 55L5 52Z" fill="#000000"/></g></g></svg>
