<?xml version="1.0" encoding="UTF-8"?>
<svg xmlns="http://www.w3.org/2000/svg" version="1.1" width="300" height="300" viewBox="0 0 300 300"><rect x="0" y="0" width="300" height="300" fill="#fefefe"/><g transform="scale(4.615)"><g transform="translate(4,4)"><path fill-rule="evenodd" d="M10 0L10 1L8 1L8 2L9 2L9 3L8 3L8 4L10 4L10 5L8 5L8 7L9 7L9 6L10 6L10 8L6 8L6 9L5 9L5 8L0 8L0 9L1 9L1 11L0 11L0 13L1 13L1 15L2 15L2 16L3 16L3 17L2 17L2 18L4 18L4 19L3 19L3 20L4 20L4 21L3 21L3 23L0 23L0 25L1 25L1 24L2 24L2 26L1 26L1 27L0 27L0 28L1 28L1 27L2 27L2 28L4 28L4 29L2 29L2 30L3 30L3 33L1 33L1 32L2 32L2 31L1 31L1 32L0 32L0 34L3 34L3 33L4 33L4 36L3 36L3 35L2 35L2 37L4 37L4 38L3 38L3 39L2 39L2 38L0 38L0 39L2 39L2 40L1 40L1 41L2 41L2 42L5 42L5 43L3 43L3 46L2 46L2 47L1 47L1 45L0 45L0 48L5 48L5 47L8 47L8 48L6 48L6 49L8 49L8 51L9 51L9 49L10 49L10 47L11 47L11 49L13 49L13 50L12 50L12 52L13 52L13 54L14 54L14 55L16 55L16 56L15 56L15 57L16 57L16 56L17 56L17 57L19 57L19 56L18 56L18 55L17 55L17 54L19 54L19 55L20 55L20 54L19 54L19 53L20 53L20 52L22 52L22 51L21 51L21 50L25 50L25 51L26 51L26 52L24 52L24 53L21 53L21 54L22 54L22 55L21 55L21 56L20 56L20 57L21 57L21 56L24 56L24 57L26 57L26 56L24 56L24 55L23 55L23 54L24 54L24 53L25 53L25 55L26 55L26 53L27 53L27 54L30 54L30 53L31 53L31 49L32 49L32 48L31 48L31 46L29 46L29 48L25 48L25 45L24 45L24 44L27 44L27 45L26 45L26 47L28 47L28 46L27 46L27 45L29 45L29 44L31 44L31 45L32 45L32 44L33 44L33 43L34 43L34 45L35 45L35 46L32 46L32 47L35 47L35 46L37 46L37 47L36 47L36 48L35 48L35 49L36 49L36 50L32 50L32 52L33 52L33 53L32 53L32 54L31 54L31 56L30 56L30 55L29 55L29 56L27 56L27 57L29 57L29 56L30 56L30 57L31 57L31 56L35 56L35 57L39 57L39 56L37 56L37 54L38 54L38 55L41 55L41 57L42 57L42 55L43 55L43 57L44 57L44 54L45 54L45 53L44 53L44 52L47 52L47 51L46 51L46 50L44 50L44 51L43 51L43 49L44 49L44 48L46 48L46 49L47 49L47 50L48 50L48 54L47 54L47 56L46 56L46 57L47 57L47 56L50 56L50 57L52 57L52 55L51 55L51 53L52 53L52 54L53 54L53 57L54 57L54 56L55 56L55 57L56 57L56 56L55 56L55 54L53 54L53 52L54 52L54 53L55 53L55 52L57 52L57 51L56 51L56 49L57 49L57 48L56 48L56 46L57 46L57 43L56 43L56 41L55 41L55 39L57 39L57 37L56 37L56 36L57 36L57 35L56 35L56 33L57 33L57 32L56 32L56 30L57 30L57 28L56 28L56 27L55 27L55 26L57 26L57 25L56 25L56 22L57 22L57 19L56 19L56 18L57 18L57 17L56 17L56 16L57 16L57 15L56 15L56 14L57 14L57 13L56 13L56 14L55 14L55 13L54 13L54 12L55 12L55 11L56 11L56 12L57 12L57 11L56 11L56 10L54 10L54 11L52 11L52 10L49 10L49 9L50 9L50 8L48 8L48 9L47 9L47 8L46 8L46 7L47 7L47 5L48 5L48 0L46 0L46 1L45 1L45 2L44 2L44 3L41 3L41 2L43 2L43 0L41 0L41 1L40 1L40 0L39 0L39 1L38 1L38 0L37 0L37 1L38 1L38 2L37 2L37 3L36 3L36 0L35 0L35 1L33 1L33 2L32 2L32 1L31 1L31 0L29 0L29 1L30 1L30 2L28 2L28 1L25 1L25 0L23 0L23 2L28 2L28 3L27 3L27 4L26 4L26 3L23 3L23 4L22 4L22 0L21 0L21 1L20 1L20 0L19 0L19 1L20 1L20 2L21 2L21 4L19 4L19 3L17 3L17 4L19 4L19 5L20 5L20 7L19 7L19 6L18 6L18 7L17 7L17 6L16 6L16 7L15 7L15 6L14 6L14 7L15 7L15 8L16 8L16 9L15 9L15 10L13 10L13 11L12 11L12 10L11 10L11 9L10 9L10 8L11 8L11 6L10 6L10 5L11 5L11 3L12 3L12 1L14 1L14 2L13 2L13 4L12 4L12 5L13 5L13 4L14 4L14 2L15 2L15 3L16 3L16 1L14 1L14 0L12 0L12 1L11 1L11 0ZM46 1L46 2L47 2L47 1ZM10 2L10 3L11 3L11 2ZM31 2L31 3L30 3L30 4L31 4L31 8L32 8L32 10L31 10L31 11L30 11L30 10L29 10L29 9L28 9L28 10L29 10L29 12L28 12L28 13L26 13L26 12L27 12L27 11L26 11L26 12L25 12L25 11L24 11L24 13L22 13L22 12L20 12L20 10L21 10L21 11L22 11L22 10L21 10L21 9L23 9L23 8L24 8L24 9L25 9L25 8L26 8L26 4L25 4L25 8L24 8L24 6L23 6L23 8L20 8L20 10L19 10L19 9L18 9L18 10L17 10L17 9L16 9L16 10L15 10L15 13L13 13L13 14L12 14L12 13L11 13L11 12L12 12L12 11L10 11L10 10L9 10L9 9L6 9L6 10L3 10L3 9L2 9L2 10L3 10L3 11L4 11L4 12L2 12L2 13L3 13L3 14L4 14L4 13L5 13L5 11L6 11L6 12L7 12L7 13L6 13L6 14L8 14L8 12L9 12L9 15L10 15L10 16L8 16L8 15L5 15L5 16L4 16L4 17L5 17L5 16L7 16L7 17L6 17L6 18L9 18L9 19L6 19L6 20L8 20L8 21L6 21L6 22L4 22L4 23L3 23L3 24L4 24L4 25L3 25L3 26L4 26L4 25L5 25L5 26L7 26L7 25L8 25L8 26L10 26L10 27L12 27L12 28L11 28L11 31L10 31L10 30L9 30L9 31L8 31L8 32L7 32L7 31L5 31L5 33L6 33L6 34L5 34L5 35L6 35L6 36L7 36L7 35L6 35L6 34L11 34L11 35L12 35L12 34L16 34L16 36L15 36L15 37L16 37L16 38L14 38L14 40L13 40L13 39L12 39L12 37L14 37L14 35L13 35L13 36L12 36L12 37L11 37L11 36L10 36L10 35L8 35L8 37L6 37L6 38L4 38L4 41L5 41L5 40L7 40L7 41L6 41L6 42L8 42L8 43L6 43L6 44L4 44L4 45L6 45L6 46L8 46L8 47L10 47L10 45L13 45L13 46L11 46L11 47L12 47L12 48L15 48L15 49L16 49L16 50L14 50L14 51L13 51L13 52L14 52L14 51L16 51L16 50L17 50L17 52L16 52L16 53L15 53L15 54L16 54L16 53L17 53L17 52L20 52L20 51L19 51L19 50L18 50L18 49L16 49L16 48L18 48L18 47L19 47L19 46L18 46L18 47L17 47L17 45L18 45L18 44L16 44L16 43L18 43L18 42L19 42L19 44L20 44L20 47L21 47L21 49L20 49L20 48L19 48L19 49L20 49L20 50L21 50L21 49L23 49L23 47L21 47L21 45L22 45L22 46L23 46L23 45L22 45L22 44L20 44L20 42L21 42L21 43L22 43L22 42L24 42L24 41L25 41L25 43L29 43L29 42L32 42L32 43L31 43L31 44L32 44L32 43L33 43L33 42L34 42L34 43L35 43L35 44L36 44L36 43L37 43L37 42L35 42L35 40L38 40L38 42L39 42L39 43L41 43L41 44L39 44L39 45L38 45L38 46L39 46L39 45L41 45L41 44L42 44L42 42L41 42L41 40L42 40L42 39L45 39L45 40L43 40L43 41L44 41L44 42L43 42L43 44L44 44L44 45L43 45L43 46L41 46L41 48L39 48L39 47L38 47L38 48L37 48L37 49L38 49L38 50L36 50L36 52L37 52L37 53L38 53L38 54L40 54L40 53L42 53L42 52L43 52L43 51L42 51L42 50L41 50L41 48L42 48L42 49L43 49L43 48L44 48L44 47L45 47L45 46L47 46L47 45L50 45L50 47L48 47L48 48L47 48L47 47L46 47L46 48L47 48L47 49L48 49L48 48L50 48L50 47L51 47L51 46L54 46L54 47L55 47L55 46L56 46L56 43L55 43L55 44L54 44L54 45L53 45L53 43L54 43L54 42L53 42L53 41L54 41L54 40L53 40L53 41L51 41L51 42L50 42L50 43L48 43L48 44L47 44L47 45L45 45L45 44L46 44L46 43L47 43L47 42L48 42L48 41L49 41L49 40L50 40L50 39L55 39L55 37L53 37L53 35L55 35L55 36L56 36L56 35L55 35L55 34L54 34L54 33L56 33L56 32L54 32L54 30L53 30L53 32L54 32L54 33L52 33L52 31L51 31L51 33L52 33L52 34L50 34L50 32L49 32L49 31L48 31L48 28L47 28L47 29L46 29L46 30L47 30L47 31L48 31L48 32L47 32L47 33L45 33L45 32L43 32L43 30L45 30L45 28L46 28L46 27L47 27L47 26L48 26L48 25L49 25L49 26L51 26L51 25L52 25L52 26L53 26L53 27L54 27L54 26L53 26L53 24L51 24L51 23L50 23L50 22L51 22L51 21L54 21L54 22L53 22L53 23L55 23L55 22L56 22L56 19L55 19L55 20L53 20L53 19L52 19L52 17L53 17L53 18L55 18L55 16L53 16L53 15L55 15L55 14L54 14L54 13L53 13L53 12L52 12L52 13L53 13L53 15L50 15L50 14L51 14L51 12L50 12L50 11L49 11L49 10L47 10L47 9L46 9L46 8L45 8L45 7L46 7L46 6L45 6L45 4L46 4L46 5L47 5L47 3L44 3L44 6L43 6L43 7L44 7L44 9L43 9L43 11L41 11L41 9L42 9L42 8L41 8L41 7L42 7L42 6L41 6L41 5L40 5L40 4L41 4L41 3L38 3L38 6L37 6L37 7L36 7L36 5L37 5L37 4L36 4L36 5L35 5L35 4L34 4L34 3L35 3L35 2L33 2L33 3L32 3L32 2ZM28 3L28 4L29 4L29 3ZM31 3L31 4L32 4L32 5L34 5L34 7L33 7L33 6L32 6L32 7L33 7L33 9L34 9L34 8L35 8L35 9L37 9L37 10L36 10L36 11L37 11L37 12L35 12L35 13L36 13L36 14L32 14L32 11L33 11L33 10L32 10L32 11L31 11L31 13L30 13L30 14L29 14L29 13L28 13L28 14L29 14L29 16L28 16L28 15L27 15L27 14L26 14L26 13L24 13L24 14L26 14L26 15L25 15L25 16L26 16L26 17L22 17L22 16L21 16L21 15L23 15L23 14L22 14L22 13L21 13L21 15L20 15L20 12L19 12L19 10L18 10L18 11L17 11L17 12L16 12L16 13L15 13L15 14L13 14L13 15L12 15L12 16L13 16L13 17L12 17L12 18L11 18L11 19L12 19L12 18L16 18L16 17L18 17L18 18L17 18L17 19L18 19L18 20L17 20L17 21L16 21L16 20L15 20L15 21L16 21L16 22L15 22L15 23L14 23L14 21L11 21L11 22L10 22L10 21L8 21L8 23L7 23L7 22L6 22L6 23L7 23L7 24L5 24L5 23L4 23L4 24L5 24L5 25L7 25L7 24L9 24L9 25L10 25L10 26L11 26L11 24L9 24L9 22L10 22L10 23L11 23L11 22L12 22L12 24L13 24L13 23L14 23L14 25L13 25L13 26L12 26L12 27L13 27L13 28L12 28L12 29L13 29L13 30L12 30L12 31L11 31L11 32L10 32L10 31L9 31L9 32L10 32L10 33L16 33L16 32L15 32L15 31L16 31L16 29L18 29L18 30L17 30L17 31L18 31L18 30L20 30L20 32L17 32L17 33L18 33L18 35L19 35L19 36L17 36L17 37L19 37L19 38L20 38L20 39L18 39L18 38L17 38L17 39L18 39L18 40L17 40L17 41L19 41L19 42L20 42L20 40L22 40L22 38L21 38L21 37L19 37L19 36L22 36L22 35L23 35L23 34L24 34L24 36L23 36L23 37L24 37L24 38L23 38L23 39L24 39L24 40L23 40L23 41L24 41L24 40L25 40L25 37L26 37L26 35L27 35L27 33L26 33L26 35L25 35L25 33L23 33L23 34L22 34L22 33L21 33L21 35L19 35L19 34L20 34L20 32L23 32L23 31L21 31L21 30L20 30L20 29L22 29L22 28L20 28L20 29L18 29L18 28L16 28L16 29L14 29L14 27L15 27L15 26L14 26L14 25L15 25L15 23L16 23L16 24L17 24L17 25L19 25L19 26L20 26L20 27L22 27L22 26L24 26L24 27L23 27L23 30L25 30L25 31L26 31L26 32L27 32L27 31L28 31L28 33L29 33L29 34L30 34L30 36L29 36L29 37L31 37L31 38L29 38L29 39L33 39L33 40L35 40L35 39L37 39L37 38L38 38L38 36L39 36L39 37L40 37L40 38L41 38L41 39L42 39L42 38L43 38L43 37L44 37L44 38L45 38L45 37L46 37L46 36L47 36L47 34L45 34L45 33L43 33L43 32L41 32L41 33L39 33L39 34L40 34L40 35L38 35L38 33L37 33L37 32L34 32L34 31L36 31L36 30L31 30L31 29L32 29L32 27L33 27L33 28L35 28L35 29L38 29L38 28L39 28L39 27L40 27L40 26L39 26L39 27L36 27L36 26L34 26L34 27L33 27L33 26L32 26L32 24L33 24L33 25L37 25L37 26L38 26L38 25L40 25L40 24L41 24L41 25L42 25L42 26L41 26L41 28L42 28L42 26L45 26L45 27L44 27L44 28L43 28L43 29L39 29L39 30L38 30L38 32L39 32L39 31L41 31L41 30L43 30L43 29L44 29L44 28L45 28L45 27L46 27L46 26L45 26L45 25L46 25L46 24L45 24L45 25L44 25L44 20L45 20L45 21L47 21L47 22L45 22L45 23L47 23L47 25L48 25L48 23L49 23L49 21L51 21L51 20L52 20L52 19L49 19L49 18L50 18L50 17L47 17L47 16L48 16L48 15L49 15L49 16L50 16L50 15L49 15L49 14L50 14L50 12L49 12L49 11L48 11L48 12L49 12L49 13L47 13L47 14L45 14L45 13L44 13L44 11L45 11L45 12L47 12L47 10L46 10L46 9L44 9L44 11L43 11L43 13L39 13L39 12L41 12L41 11L40 11L40 10L39 10L39 11L38 11L38 9L39 9L39 8L40 8L40 7L41 7L41 6L40 6L40 5L39 5L39 6L38 6L38 7L37 7L37 8L35 8L35 5L34 5L34 4L32 4L32 3ZM15 4L15 5L16 5L16 4ZM21 4L21 5L22 5L22 4ZM23 4L23 5L24 5L24 4ZM27 5L27 8L30 8L30 5ZM12 6L12 8L13 8L13 9L14 9L14 8L13 8L13 6ZM21 6L21 7L22 7L22 6ZM28 6L28 7L29 7L29 6ZM39 6L39 7L40 7L40 6ZM44 6L44 7L45 7L45 6ZM48 6L48 7L49 7L49 6ZM16 7L16 8L17 8L17 7ZM51 8L51 9L52 9L52 8ZM53 8L53 9L54 9L54 8ZM55 8L55 9L56 9L56 8ZM6 10L6 11L7 11L7 12L8 12L8 10ZM45 10L45 11L46 11L46 10ZM9 11L9 12L10 12L10 11ZM13 11L13 12L14 12L14 11ZM17 12L17 13L16 13L16 16L15 16L15 15L14 15L14 17L16 17L16 16L17 16L17 13L18 13L18 12ZM33 12L33 13L34 13L34 12ZM38 13L38 14L37 14L37 15L35 15L35 16L33 16L33 15L32 15L32 14L30 14L30 15L31 15L31 16L32 16L32 17L31 17L31 18L30 18L30 19L31 19L31 18L32 18L32 19L33 19L33 18L35 18L35 19L34 19L34 20L35 20L35 19L36 19L36 20L38 20L38 22L37 22L37 24L40 24L40 22L39 22L39 21L41 21L41 20L38 20L38 19L39 19L39 17L41 17L41 16L42 16L42 17L43 17L43 16L42 16L42 15L44 15L44 18L43 18L43 20L42 20L42 21L43 21L43 20L44 20L44 18L47 18L47 19L48 19L48 18L47 18L47 17L45 17L45 16L46 16L46 15L44 15L44 13L43 13L43 14L41 14L41 16L39 16L39 15L38 15L38 14L39 14L39 13ZM10 14L10 15L11 15L11 14ZM18 14L18 15L19 15L19 17L20 17L20 18L18 18L18 19L19 19L19 20L20 20L20 21L19 21L19 22L17 22L17 24L19 24L19 25L20 25L20 26L22 26L22 25L24 25L24 24L25 24L25 25L26 25L26 26L25 26L25 27L26 27L26 26L29 26L29 24L32 24L32 23L33 23L33 22L34 22L34 23L35 23L35 21L33 21L33 20L32 20L32 21L31 21L31 20L29 20L29 19L28 19L28 18L27 18L27 17L28 17L28 16L27 16L27 15L26 15L26 16L27 16L27 17L26 17L26 18L25 18L25 19L26 19L26 21L29 21L29 22L30 22L30 23L29 23L29 24L28 24L28 23L27 23L27 24L25 24L25 23L26 23L26 22L25 22L25 21L24 21L24 20L23 20L23 19L24 19L24 18L22 18L22 17L20 17L20 15L19 15L19 14ZM10 16L10 17L9 17L9 18L10 18L10 17L11 17L11 16ZM35 16L35 17L37 17L37 18L38 18L38 17L39 17L39 16L38 16L38 17L37 17L37 16ZM21 18L21 19L22 19L22 18ZM41 18L41 19L42 19L42 18ZM0 19L0 20L1 20L1 21L2 21L2 19ZM4 19L4 20L5 20L5 19ZM9 19L9 20L10 20L10 19ZM13 19L13 20L14 20L14 19ZM27 19L27 20L28 20L28 19ZM45 19L45 20L46 20L46 19ZM48 20L48 21L49 21L49 20ZM21 21L21 22L24 22L24 21ZM30 21L30 22L31 22L31 21ZM19 22L19 23L20 23L20 22ZM38 22L38 23L39 23L39 22ZM41 22L41 23L42 23L42 22ZM22 23L22 24L20 24L20 25L22 25L22 24L24 24L24 23ZM50 24L50 25L51 25L51 24ZM54 24L54 25L55 25L55 24ZM13 26L13 27L14 27L14 26ZM16 26L16 27L18 27L18 26ZM31 26L31 27L32 27L32 26ZM5 27L5 30L8 30L8 27ZM27 27L27 30L30 30L30 27ZM49 27L49 30L52 30L52 27ZM6 28L6 29L7 29L7 28ZM9 28L9 29L10 29L10 28ZM25 28L25 29L26 29L26 28ZM28 28L28 29L29 29L29 28ZM50 28L50 29L51 29L51 28ZM54 28L54 29L56 29L56 28ZM14 30L14 31L13 31L13 32L14 32L14 31L15 31L15 30ZM30 31L30 32L29 32L29 33L31 33L31 35L32 35L32 34L33 34L33 36L32 36L32 37L33 37L33 38L34 38L34 39L35 39L35 36L37 36L37 34L35 34L35 33L34 33L34 32L32 32L32 31ZM6 32L6 33L7 33L7 32ZM31 32L31 33L32 33L32 32ZM48 32L48 33L49 33L49 32ZM42 34L42 35L41 35L41 36L40 36L40 37L41 37L41 36L44 36L44 37L45 37L45 36L46 36L46 35L45 35L45 34ZM49 34L49 35L50 35L50 36L49 36L49 37L50 37L50 38L48 38L48 37L47 37L47 39L46 39L46 40L45 40L45 41L47 41L47 39L50 39L50 38L51 38L51 37L52 37L52 35L53 35L53 34L52 34L52 35L50 35L50 34ZM34 35L34 36L35 36L35 35ZM44 35L44 36L45 36L45 35ZM0 36L0 37L1 37L1 36ZM4 36L4 37L5 37L5 36ZM8 37L8 38L9 38L9 39L11 39L11 42L10 42L10 41L9 41L9 40L8 40L8 39L7 39L7 38L6 38L6 39L7 39L7 40L8 40L8 42L10 42L10 43L9 43L9 44L8 44L8 45L9 45L9 44L10 44L10 43L11 43L11 42L12 42L12 44L14 44L14 45L15 45L15 44L14 44L14 43L15 43L15 42L12 42L12 39L11 39L11 38L9 38L9 37ZM27 37L27 38L26 38L26 40L27 40L27 41L26 41L26 42L27 42L27 41L29 41L29 40L28 40L28 39L27 39L27 38L28 38L28 37ZM15 39L15 40L14 40L14 41L16 41L16 39ZM38 39L38 40L39 40L39 39ZM30 40L30 41L32 41L32 42L33 42L33 41L32 41L32 40ZM21 41L21 42L22 42L22 41ZM39 41L39 42L40 42L40 41ZM0 42L0 43L1 43L1 44L2 44L2 43L1 43L1 42ZM44 42L44 44L45 44L45 42ZM51 42L51 43L50 43L50 44L51 44L51 45L52 45L52 44L51 44L51 43L53 43L53 42ZM23 43L23 44L24 44L24 43ZM6 44L6 45L7 45L7 44ZM54 45L54 46L55 46L55 45ZM3 46L3 47L5 47L5 46ZM13 46L13 47L15 47L15 48L16 48L16 47L15 47L15 46ZM43 46L43 47L42 47L42 48L43 48L43 47L44 47L44 46ZM8 48L8 49L9 49L9 48ZM24 48L24 49L25 49L25 50L26 50L26 49L25 49L25 48ZM38 48L38 49L39 49L39 48ZM55 48L55 49L56 49L56 48ZM27 49L27 52L30 52L30 49ZM49 49L49 52L52 52L52 49ZM28 50L28 51L29 51L29 50ZM38 50L38 51L37 51L37 52L38 52L38 53L39 53L39 51L40 51L40 52L41 52L41 50ZM50 50L50 51L51 51L51 50ZM54 50L54 51L55 51L55 50ZM10 51L10 53L11 53L11 54L10 54L10 55L11 55L11 56L10 56L10 57L11 57L11 56L12 56L12 55L11 55L11 54L12 54L12 53L11 53L11 51ZM33 51L33 52L34 52L34 53L33 53L33 54L35 54L35 56L36 56L36 54L35 54L35 51ZM8 52L8 57L9 57L9 52ZM43 53L43 54L44 54L44 53ZM50 55L50 56L51 56L51 55ZM13 56L13 57L14 57L14 56ZM0 0L0 7L7 7L7 0ZM1 1L1 6L6 6L6 1ZM2 2L2 5L5 5L5 2ZM50 0L50 7L57 7L57 0ZM51 1L51 6L56 6L56 1ZM52 2L52 5L55 5L55 2ZM0 50L0 57L7 57L7 50ZM1 51L1 56L6 56L6 51ZM2 52L2 55L5 55L5 52Z" fill="#000000"/></g></g></svg>
