<?xml version="1.0" encoding="UTF-8"?>
<svg xmlns="http://www.w3.org/2000/svg" version="1.1" width="300" height="300" viewBox="0 0 300 300"><rect x="0" y="0" width="300" height="300" fill="#fefefe"/><g transform="scale(4.615)"><g transform="translate(4,4)"><path fill-rule="evenodd" d="M8 0L8 2L9 2L9 4L8 4L8 9L7 9L7 8L5 8L5 9L4 9L4 10L3 10L3 8L0 8L0 9L2 9L2 10L3 10L3 13L4 13L4 12L6 12L6 13L7 13L7 14L6 14L6 15L7 15L7 14L8 14L8 15L9 15L9 16L5 16L5 17L10 17L10 18L13 18L13 19L11 19L11 23L10 23L10 19L9 19L9 18L6 18L6 19L4 19L4 20L3 20L3 19L2 19L2 18L1 18L1 17L3 17L3 18L4 18L4 17L3 17L3 16L4 16L4 15L5 15L5 14L4 14L4 15L3 15L3 14L1 14L1 13L2 13L2 11L1 11L1 10L0 10L0 15L1 15L1 16L0 16L0 18L1 18L1 19L0 19L0 20L3 20L3 21L4 21L4 22L3 22L3 23L2 23L2 22L1 22L1 21L0 21L0 22L1 22L1 23L0 23L0 25L1 25L1 23L2 23L2 24L3 24L3 25L2 25L2 26L1 26L1 27L0 27L0 31L1 31L1 32L2 32L2 31L3 31L3 32L4 32L4 33L7 33L7 34L6 34L6 35L5 35L5 34L4 34L4 35L3 35L3 34L2 34L2 36L1 36L1 34L0 34L0 36L1 36L1 37L0 37L0 38L1 38L1 39L0 39L0 43L1 43L1 44L0 44L0 45L1 45L1 44L2 44L2 42L3 42L3 44L5 44L5 45L2 45L2 47L1 47L1 46L0 46L0 48L5 48L5 47L8 47L8 48L6 48L6 49L8 49L8 50L9 50L9 49L11 49L11 50L10 50L10 51L8 51L8 52L9 52L9 53L10 53L10 52L11 52L11 51L12 51L12 48L13 48L13 47L12 47L12 46L14 46L14 45L13 45L13 44L16 44L16 45L15 45L15 46L16 46L16 47L17 47L17 48L16 48L16 49L15 49L15 50L14 50L14 49L13 49L13 52L14 52L14 53L12 53L12 54L11 54L11 56L13 56L13 57L14 57L14 56L15 56L15 57L17 57L17 55L16 55L16 54L18 54L18 53L19 53L19 51L20 51L20 53L21 53L21 52L22 52L22 54L23 54L23 56L22 56L22 55L21 55L21 54L20 54L20 55L21 55L21 56L20 56L20 57L21 57L21 56L22 56L22 57L23 57L23 56L24 56L24 57L25 57L25 55L24 55L24 54L25 54L25 51L26 51L26 53L28 53L28 55L27 55L27 54L26 54L26 55L27 55L27 56L26 56L26 57L28 57L28 55L29 55L29 57L33 57L33 55L34 55L34 57L35 57L35 55L37 55L37 54L36 54L36 53L37 53L37 51L38 51L38 47L37 47L37 46L38 46L38 45L37 45L37 44L40 44L40 45L39 45L39 46L41 46L41 47L40 47L40 49L39 49L39 52L38 52L38 53L39 53L39 55L40 55L40 54L41 54L41 55L42 55L42 56L40 56L40 57L42 57L42 56L43 56L43 54L42 54L42 53L41 53L41 51L42 51L42 52L44 52L44 55L45 55L45 54L46 54L46 56L44 56L44 57L46 57L46 56L48 56L48 57L50 57L50 55L49 55L49 54L52 54L52 55L53 55L53 56L51 56L51 57L54 57L54 55L57 55L57 54L55 54L55 53L56 53L56 51L57 51L57 49L56 49L56 47L57 47L57 44L56 44L56 47L55 47L55 45L54 45L54 47L55 47L55 49L56 49L56 51L55 51L55 52L54 52L54 51L53 51L53 50L54 50L54 49L53 49L53 46L52 46L52 45L53 45L53 44L54 44L54 43L55 43L55 42L54 42L54 38L57 38L57 37L56 37L56 36L57 36L57 33L56 33L56 31L57 31L57 24L56 24L56 23L57 23L57 21L56 21L56 20L55 20L55 21L54 21L54 19L57 19L57 12L55 12L55 13L56 13L56 15L55 15L55 14L53 14L53 12L54 12L54 11L55 11L55 10L56 10L56 11L57 11L57 10L56 10L56 9L57 9L57 8L55 8L55 9L54 9L54 10L52 10L52 12L51 12L51 10L50 10L50 9L53 9L53 8L48 8L48 7L49 7L49 6L48 6L48 7L47 7L47 5L48 5L48 0L42 0L42 1L41 1L41 0L38 0L38 2L37 2L37 1L35 1L35 0L34 0L34 2L33 2L33 3L34 3L34 8L32 8L32 9L31 9L31 5L32 5L32 2L31 2L31 1L33 1L33 0L30 0L30 2L28 2L28 3L27 3L27 0L24 0L24 1L23 1L23 0L19 0L19 1L23 1L23 2L20 2L20 3L21 3L21 5L20 5L20 7L19 7L19 4L18 4L18 3L19 3L19 2L18 2L18 1L17 1L17 0L16 0L16 2L15 2L15 0L14 0L14 3L13 3L13 2L10 2L10 1L11 1L11 0L10 0L10 1L9 1L9 0ZM28 0L28 1L29 1L29 0ZM24 1L24 4L25 4L25 1ZM39 1L39 2L38 2L38 3L37 3L37 2L35 2L35 3L36 3L36 4L35 4L35 9L34 9L34 10L33 10L33 9L32 9L32 11L31 11L31 12L30 12L30 10L31 10L31 9L30 9L30 10L28 10L28 9L27 9L27 10L25 10L25 9L26 9L26 5L24 5L24 6L23 6L23 7L22 7L22 6L21 6L21 7L22 7L22 8L21 8L21 9L20 9L20 8L19 8L19 9L18 9L18 4L17 4L17 3L18 3L18 2L16 2L16 4L17 4L17 5L16 5L16 6L15 6L15 5L13 5L13 3L12 3L12 4L9 4L9 10L7 10L7 9L6 9L6 10L7 10L7 11L6 11L6 12L7 12L7 13L8 13L8 14L9 14L9 15L10 15L10 16L11 16L11 17L13 17L13 18L15 18L15 19L14 19L14 20L15 20L15 19L16 19L16 20L17 20L17 21L18 21L18 22L16 22L16 23L18 23L18 22L19 22L19 25L18 25L18 24L17 24L17 25L16 25L16 26L15 26L15 21L14 21L14 22L12 22L12 23L11 23L11 24L13 24L13 25L11 25L11 26L10 26L10 27L9 27L9 31L8 31L8 32L7 32L7 31L4 31L4 30L3 30L3 31L4 31L4 32L7 32L7 33L8 33L8 32L9 32L9 35L6 35L6 36L10 36L10 32L11 32L11 33L13 33L13 34L14 34L14 35L12 35L12 34L11 34L11 35L12 35L12 36L11 36L11 37L8 37L8 38L7 38L7 37L5 37L5 35L4 35L4 36L2 36L2 37L1 37L1 38L2 38L2 37L3 37L3 38L4 38L4 37L5 37L5 39L3 39L3 40L2 40L2 41L3 41L3 42L4 42L4 41L5 41L5 42L9 42L9 41L11 41L11 42L12 42L12 41L11 41L11 39L10 39L10 38L12 38L12 40L13 40L13 39L15 39L15 40L17 40L17 41L16 41L16 43L17 43L17 42L18 42L18 35L17 35L17 33L18 33L18 34L19 34L19 33L20 33L20 35L19 35L19 36L21 36L21 38L20 38L20 39L21 39L21 38L22 38L22 36L21 36L21 35L22 35L22 34L23 34L23 33L22 33L22 30L23 30L23 29L24 29L24 31L23 31L23 32L24 32L24 34L26 34L26 35L28 35L28 36L25 36L25 35L23 35L23 39L22 39L22 40L21 40L21 41L20 41L20 40L19 40L19 41L20 41L20 42L19 42L19 43L18 43L18 44L19 44L19 45L18 45L18 46L17 46L17 45L16 45L16 46L17 46L17 47L18 47L18 46L19 46L19 45L20 45L20 46L22 46L22 48L21 48L21 49L20 49L20 51L21 51L21 50L22 50L22 48L23 48L23 49L24 49L24 51L22 51L22 52L24 52L24 51L25 51L25 50L26 50L26 49L25 49L25 46L26 46L26 48L31 48L31 49L32 49L32 50L33 50L33 52L34 52L34 54L35 54L35 53L36 53L36 52L34 52L34 51L37 51L37 49L36 49L36 48L37 48L37 47L35 47L35 45L36 45L36 46L37 46L37 45L36 45L36 44L37 44L37 43L40 43L40 44L41 44L41 45L42 45L42 47L41 47L41 49L40 49L40 51L41 51L41 49L42 49L42 50L43 50L43 51L45 51L45 50L44 50L44 46L45 46L45 45L44 45L44 39L43 39L43 38L44 38L44 35L43 35L43 33L42 33L42 31L45 31L45 30L46 30L46 34L45 34L45 35L46 35L46 34L48 34L48 33L47 33L47 30L48 30L48 29L47 29L47 28L46 28L46 29L44 29L44 27L45 27L45 26L44 26L44 27L43 27L43 25L44 25L44 24L45 24L45 25L46 25L46 26L49 26L49 24L50 24L50 23L51 23L51 25L50 25L50 26L51 26L51 25L52 25L52 26L53 26L53 25L52 25L52 23L53 23L53 22L54 22L54 26L55 26L55 25L56 25L56 24L55 24L55 23L56 23L56 21L55 21L55 22L54 22L54 21L53 21L53 22L52 22L52 20L53 20L53 19L54 19L54 16L55 16L55 17L56 17L56 16L55 16L55 15L54 15L54 16L53 16L53 14L52 14L52 13L50 13L50 11L49 11L49 9L48 9L48 8L47 8L47 7L46 7L46 6L45 6L45 5L44 5L44 4L45 4L45 2L47 2L47 1L42 1L42 2L40 2L40 1ZM30 2L30 3L28 3L28 4L30 4L30 3L31 3L31 2ZM39 2L39 3L38 3L38 5L39 5L39 4L40 4L40 2ZM43 2L43 4L42 4L42 3L41 3L41 6L40 6L40 7L41 7L41 8L40 8L40 9L39 9L39 6L38 6L38 7L37 7L37 6L36 6L36 10L34 10L34 11L32 11L32 14L33 14L33 15L31 15L31 16L30 16L30 15L29 15L29 13L30 13L30 12L29 12L29 11L28 11L28 10L27 10L27 11L28 11L28 12L27 12L27 13L26 13L26 11L24 11L24 8L22 8L22 9L23 9L23 11L22 11L22 12L25 12L25 13L26 13L26 14L24 14L24 15L25 15L25 17L27 17L27 16L26 16L26 15L27 15L27 14L28 14L28 15L29 15L29 16L30 16L30 17L28 17L28 18L30 18L30 17L33 17L33 18L32 18L32 19L29 19L29 20L28 20L28 21L29 21L29 22L28 22L28 23L26 23L26 22L27 22L27 20L26 20L26 19L25 19L25 18L24 18L24 16L22 16L22 14L20 14L20 13L21 13L21 10L20 10L20 9L19 9L19 10L18 10L18 9L17 9L17 10L16 10L16 11L14 11L14 12L16 12L16 11L17 11L17 14L15 14L15 15L13 15L13 12L11 12L11 13L10 13L10 11L13 11L13 8L14 8L14 9L15 9L15 8L14 8L14 7L15 7L15 6L14 6L14 7L13 7L13 6L12 6L12 7L13 7L13 8L12 8L12 9L10 9L10 11L9 11L9 13L10 13L10 14L11 14L11 16L12 16L12 15L13 15L13 16L14 16L14 17L15 17L15 18L16 18L16 19L17 19L17 20L18 20L18 21L19 21L19 20L18 20L18 19L20 19L20 21L21 21L21 22L20 22L20 23L21 23L21 26L20 26L20 25L19 25L19 26L20 26L20 27L18 27L18 28L20 28L20 27L21 27L21 30L22 30L22 29L23 29L23 28L24 28L24 29L25 29L25 30L26 30L26 31L25 31L25 33L26 33L26 34L28 34L28 35L31 35L31 36L30 36L30 40L31 40L31 38L33 38L33 39L34 39L34 41L33 41L33 40L32 40L32 43L31 43L31 42L30 42L30 41L29 41L29 40L27 40L27 39L26 39L26 38L27 38L27 37L26 37L26 38L24 38L24 39L26 39L26 40L25 40L25 41L26 41L26 42L25 42L25 44L24 44L24 40L22 40L22 41L23 41L23 43L22 43L22 44L23 44L23 48L24 48L24 45L26 45L26 46L27 46L27 47L28 47L28 44L30 44L30 45L29 45L29 46L30 46L30 47L31 47L31 48L32 48L32 49L33 49L33 48L34 48L34 45L33 45L33 44L36 44L36 41L37 41L37 42L38 42L38 41L39 41L39 40L40 40L40 41L41 41L41 42L40 42L40 43L41 43L41 42L42 42L42 43L43 43L43 42L42 42L42 41L43 41L43 39L42 39L42 36L41 36L41 35L40 35L40 36L39 36L39 38L38 38L38 37L37 37L37 36L38 36L38 35L39 35L39 34L38 34L38 33L39 33L39 32L40 32L40 34L42 34L42 33L41 33L41 32L40 32L40 31L42 31L42 28L43 28L43 27L41 27L41 26L42 26L42 25L43 25L43 24L44 24L44 23L45 23L45 24L46 24L46 20L45 20L45 19L44 19L44 17L45 17L45 18L46 18L46 13L47 13L47 14L48 14L48 15L47 15L47 20L48 20L48 21L47 21L47 22L48 22L48 23L47 23L47 24L49 24L49 23L50 23L50 22L48 22L48 21L49 21L49 20L51 20L51 18L50 18L50 17L51 17L51 16L52 16L52 18L53 18L53 16L52 16L52 14L51 14L51 16L50 16L50 13L49 13L49 14L48 14L48 12L47 12L47 11L46 11L46 13L45 13L45 12L44 12L44 13L43 13L43 16L44 16L44 17L43 17L43 18L42 18L42 17L41 17L41 15L42 15L42 12L43 12L43 11L44 11L44 9L45 9L45 10L46 10L46 9L47 9L47 10L48 10L48 9L47 9L47 8L46 8L46 9L45 9L45 8L44 8L44 7L45 7L45 6L44 6L44 5L43 5L43 4L44 4L44 2ZM14 3L14 4L15 4L15 3ZM22 3L22 4L23 4L23 3ZM26 3L26 4L27 4L27 3ZM46 3L46 5L47 5L47 3ZM10 5L10 7L11 7L11 5ZM27 5L27 8L30 8L30 5ZM16 6L16 7L17 7L17 6ZM24 6L24 7L25 7L25 6ZM28 6L28 7L29 7L29 6ZM32 6L32 7L33 7L33 6ZM41 6L41 7L42 7L42 8L43 8L43 9L42 9L42 10L43 10L43 9L44 9L44 8L43 8L43 7L44 7L44 6L43 6L43 7L42 7L42 6ZM37 8L37 9L38 9L38 11L39 11L39 12L37 12L37 11L36 11L36 12L35 12L35 11L34 11L34 12L35 12L35 13L34 13L34 15L33 15L33 17L34 17L34 18L33 18L33 21L32 21L32 20L31 20L31 21L30 21L30 23L28 23L28 24L27 24L27 25L26 25L26 26L27 26L27 25L28 25L28 26L31 26L31 25L32 25L32 27L31 27L31 29L32 29L32 28L33 28L33 29L34 29L34 31L33 31L33 32L34 32L34 34L35 34L35 33L36 33L36 35L35 35L35 37L34 37L34 35L33 35L33 37L34 37L34 39L35 39L35 41L34 41L34 42L35 42L35 41L36 41L36 38L37 38L37 41L38 41L38 38L37 38L37 37L36 37L36 35L38 35L38 34L37 34L37 33L36 33L36 31L37 31L37 32L38 32L38 31L40 31L40 30L41 30L41 29L40 29L40 28L41 28L41 27L40 27L40 26L41 26L41 25L42 25L42 24L43 24L43 23L44 23L44 22L45 22L45 21L44 21L44 19L41 19L41 18L40 18L40 15L39 15L39 14L40 14L40 10L41 10L41 9L40 9L40 10L39 10L39 9L38 9L38 8ZM7 11L7 12L8 12L8 11ZM18 11L18 12L19 12L19 13L18 13L18 14L19 14L19 17L20 17L20 18L21 18L21 17L20 17L20 16L21 16L21 15L20 15L20 14L19 14L19 13L20 13L20 11ZM41 11L41 12L42 12L42 11ZM36 12L36 13L35 13L35 14L36 14L36 13L37 13L37 15L36 15L36 18L34 18L34 20L36 20L36 21L35 21L35 22L34 22L34 21L33 21L33 22L31 22L31 23L30 23L30 25L31 25L31 23L32 23L32 25L33 25L33 26L34 26L34 24L36 24L36 26L37 26L37 27L36 27L36 30L35 30L35 31L34 31L34 32L35 32L35 31L36 31L36 30L37 30L37 31L38 31L38 30L37 30L37 28L38 28L38 29L39 29L39 26L40 26L40 25L41 25L41 24L42 24L42 23L43 23L43 22L44 22L44 21L43 21L43 22L42 22L42 20L41 20L41 19L40 19L40 18L38 18L38 16L37 16L37 15L38 15L38 13L37 13L37 12ZM11 13L11 14L12 14L12 13ZM44 13L44 16L45 16L45 13ZM2 15L2 16L3 16L3 15ZM15 15L15 17L16 17L16 18L17 18L17 19L18 19L18 18L17 18L17 17L18 17L18 15ZM34 15L34 17L35 17L35 15ZM48 17L48 18L49 18L49 17ZM22 18L22 19L21 19L21 21L22 21L22 19L23 19L23 18ZM36 18L36 19L37 19L37 18ZM6 19L6 20L4 20L4 21L5 21L5 22L4 22L4 23L6 23L6 24L4 24L4 25L5 25L5 26L7 26L7 25L6 25L6 24L7 24L7 23L6 23L6 22L7 22L7 21L8 21L8 24L10 24L10 23L9 23L9 21L8 21L8 20L9 20L9 19L8 19L8 20L7 20L7 19ZM24 19L24 20L25 20L25 19ZM39 19L39 20L37 20L37 21L36 21L36 22L35 22L35 23L36 23L36 24L37 24L37 25L38 25L38 26L39 26L39 25L38 25L38 22L39 22L39 23L42 23L42 22L40 22L40 19ZM48 19L48 20L49 20L49 19ZM6 20L6 21L7 21L7 20ZM12 20L12 21L13 21L13 20ZM37 21L37 22L36 22L36 23L37 23L37 22L38 22L38 21ZM21 22L21 23L22 23L22 24L23 24L23 22ZM24 22L24 23L25 23L25 22ZM33 22L33 24L34 24L34 22ZM51 22L51 23L52 23L52 22ZM13 23L13 24L14 24L14 23ZM28 24L28 25L29 25L29 24ZM8 25L8 26L9 26L9 25ZM13 25L13 26L12 26L12 27L14 27L14 28L13 28L13 29L12 29L12 28L11 28L11 29L10 29L10 30L11 30L11 31L12 31L12 30L13 30L13 29L14 29L14 30L15 30L15 31L14 31L14 32L15 32L15 33L14 33L14 34L15 34L15 35L14 35L14 37L15 37L15 36L16 36L16 37L17 37L17 36L16 36L16 33L17 33L17 32L16 32L16 31L19 31L19 32L18 32L18 33L19 33L19 32L20 32L20 33L21 33L21 32L20 32L20 29L19 29L19 30L15 30L15 29L14 29L14 28L16 28L16 27L15 27L15 26L14 26L14 25ZM24 25L24 26L25 26L25 25ZM2 26L2 28L1 28L1 29L3 29L3 27L4 27L4 26ZM5 27L5 30L8 30L8 27ZM22 27L22 28L23 28L23 27ZM27 27L27 30L30 30L30 27ZM34 27L34 29L35 29L35 27ZM49 27L49 30L52 30L52 27ZM54 27L54 28L53 28L53 29L54 29L54 30L55 30L55 31L54 31L54 33L53 33L53 32L51 32L51 31L50 31L50 33L49 33L49 36L48 36L48 35L47 35L47 36L48 36L48 37L46 37L46 36L45 36L45 37L46 37L46 38L47 38L47 40L48 40L48 41L46 41L46 40L45 40L45 41L46 41L46 43L47 43L47 44L46 44L46 48L47 48L47 46L48 46L48 45L47 45L47 44L48 44L48 43L49 43L49 44L50 44L50 42L49 42L49 41L51 41L51 40L52 40L52 44L53 44L53 40L52 40L52 39L51 39L51 40L48 40L48 37L50 37L50 38L49 38L49 39L50 39L50 38L51 38L51 37L50 37L50 33L51 33L51 36L53 36L53 37L52 37L52 38L54 38L54 36L56 36L56 33L55 33L55 31L56 31L56 30L55 30L55 29L56 29L56 28L55 28L55 27ZM6 28L6 29L7 29L7 28ZM28 28L28 29L29 29L29 28ZM50 28L50 29L51 29L51 28ZM11 29L11 30L12 30L12 29ZM31 30L31 32L30 32L30 34L32 34L32 30ZM9 31L9 32L10 32L10 31ZM26 32L26 33L28 33L28 34L29 34L29 32ZM53 34L53 36L54 36L54 34ZM24 36L24 37L25 37L25 36ZM28 36L28 37L29 37L29 36ZM31 36L31 37L32 37L32 36ZM12 37L12 38L13 38L13 37ZM35 37L35 38L36 38L36 37ZM6 38L6 39L5 39L5 40L6 40L6 41L7 41L7 40L6 40L6 39L7 39L7 38ZM8 38L8 40L9 40L9 38ZM16 38L16 39L17 39L17 38ZM28 38L28 39L29 39L29 38ZM39 38L39 39L40 39L40 40L42 40L42 39L40 39L40 38ZM3 40L3 41L4 41L4 40ZM55 40L55 41L56 41L56 43L57 43L57 40ZM13 41L13 43L14 43L14 41ZM28 41L28 42L27 42L27 43L30 43L30 44L31 44L31 45L30 45L30 46L31 46L31 47L33 47L33 45L32 45L32 44L31 44L31 43L30 43L30 42L29 42L29 41ZM5 43L5 44L7 44L7 43ZM8 43L8 45L6 45L6 46L8 46L8 45L9 45L9 48L8 48L8 49L9 49L9 48L11 48L11 46L12 46L12 45L11 45L11 44L10 44L10 43ZM19 43L19 44L20 44L20 45L21 45L21 44L20 44L20 43ZM42 44L42 45L43 45L43 44ZM31 45L31 46L32 46L32 45ZM49 45L49 47L50 47L50 48L52 48L52 46L51 46L51 47L50 47L50 45ZM3 46L3 47L5 47L5 46ZM14 47L14 48L15 48L15 47ZM17 48L17 49L16 49L16 50L15 50L15 51L16 51L16 52L17 52L17 53L18 53L18 52L17 52L17 51L16 51L16 50L18 50L18 51L19 51L19 50L18 50L18 48ZM27 49L27 52L30 52L30 49ZM46 49L46 51L47 51L47 52L48 52L48 51L47 51L47 49ZM49 49L49 52L52 52L52 49ZM28 50L28 51L29 51L29 50ZM50 50L50 51L51 51L51 50ZM31 51L31 52L32 52L32 51ZM39 52L39 53L40 53L40 52ZM45 52L45 53L46 53L46 54L47 54L47 55L48 55L48 54L49 54L49 53L46 53L46 52ZM31 53L31 54L30 54L30 55L33 55L33 54L32 54L32 53ZM53 53L53 54L54 54L54 53ZM8 54L8 57L9 57L9 56L10 56L10 55L9 55L9 54ZM12 54L12 55L13 55L13 56L14 56L14 55L13 55L13 54ZM18 56L18 57L19 57L19 56ZM36 56L36 57L37 57L37 56ZM56 56L56 57L57 57L57 56ZM0 0L0 7L7 7L7 0ZM1 1L1 6L6 6L6 1ZM2 2L2 5L5 5L5 2ZM50 0L50 7L57 7L57 0ZM51 1L51 6L56 6L56 1ZM52 2L52 5L55 5L55 2ZM0 50L0 57L7 57L7 50ZM1 51L1 56L6 56L6 51ZM2 52L2 55L5 55L5 52Z" fill="#000000"/></g></g></svg>
