<?xml version="1.0" encoding="UTF-8"?>
<svg xmlns="http://www.w3.org/2000/svg" version="1.1" width="300" height="300" viewBox="0 0 300 300"><rect x="0" y="0" width="300" height="300" fill="#fefefe"/><g transform="scale(4.615)"><g transform="translate(4,4)"><path fill-rule="evenodd" d="M8 0L8 4L9 4L9 5L8 5L8 7L9 7L9 8L10 8L10 7L11 7L11 6L12 6L12 7L13 7L13 5L14 5L14 7L15 7L15 8L14 8L14 10L13 10L13 11L12 11L12 8L11 8L11 9L10 9L10 10L11 10L11 12L12 12L12 13L11 13L11 16L12 16L12 17L13 17L13 18L14 18L14 17L15 17L15 20L14 20L14 19L13 19L13 20L10 20L10 23L11 23L11 24L9 24L9 21L8 21L8 20L6 20L6 21L8 21L8 23L7 23L7 22L5 22L5 19L8 19L8 17L7 17L7 16L6 16L6 17L5 17L5 19L4 19L4 20L3 20L3 19L2 19L2 17L4 17L4 16L5 16L5 15L4 15L4 14L3 14L3 13L2 13L2 10L4 10L4 13L5 13L5 14L6 14L6 15L8 15L8 13L9 13L9 12L8 12L8 10L9 10L9 9L7 9L7 8L4 8L4 9L2 9L2 8L0 8L0 9L1 9L1 12L0 12L0 13L2 13L2 15L1 15L1 16L0 16L0 18L1 18L1 19L0 19L0 22L1 22L1 23L0 23L0 24L1 24L1 23L2 23L2 22L3 22L3 23L4 23L4 24L2 24L2 25L3 25L3 27L1 27L1 26L0 26L0 27L1 27L1 28L0 28L0 31L1 31L1 28L3 28L3 29L2 29L2 30L4 30L4 31L7 31L7 32L6 32L6 33L7 33L7 34L4 34L4 33L5 33L5 32L1 32L1 34L0 34L0 36L1 36L1 37L0 37L0 40L2 40L2 39L3 39L3 41L2 41L2 43L3 43L3 41L4 41L4 43L5 43L5 42L6 42L6 43L7 43L7 44L4 44L4 46L5 46L5 47L3 47L3 44L1 44L1 45L0 45L0 48L5 48L5 47L7 47L7 48L6 48L6 49L7 49L7 48L9 48L9 47L8 47L8 46L10 46L10 43L11 43L11 47L12 47L12 48L11 48L11 49L10 49L10 50L9 50L9 49L8 49L8 50L9 50L9 51L8 51L8 53L10 53L10 57L12 57L12 56L11 56L11 55L13 55L13 54L14 54L14 55L16 55L16 54L17 54L17 57L22 57L22 56L18 56L18 55L20 55L20 54L21 54L21 53L22 53L22 50L23 50L23 52L24 52L24 53L23 53L23 55L24 55L24 56L23 56L23 57L25 57L25 56L26 56L26 57L27 57L27 55L26 55L26 54L24 54L24 53L25 53L25 51L26 51L26 53L28 53L28 57L29 57L29 55L30 55L30 57L34 57L34 53L33 53L33 49L36 49L36 52L35 52L35 51L34 51L34 52L35 52L35 57L37 57L37 56L36 56L36 54L37 54L37 53L38 53L38 55L39 55L39 57L40 57L40 54L43 54L43 55L41 55L41 56L44 56L44 57L46 57L46 56L44 56L44 53L45 53L45 55L46 55L46 53L47 53L47 54L49 54L49 57L50 57L50 55L51 55L51 56L53 56L53 57L54 57L54 56L53 56L53 50L54 50L54 51L55 51L55 52L54 52L54 53L55 53L55 54L57 54L57 51L55 51L55 49L56 49L56 45L54 45L54 44L53 44L53 43L54 43L54 42L55 42L55 44L56 44L56 42L57 42L57 40L52 40L52 37L51 37L51 36L53 36L53 38L54 38L54 39L57 39L57 38L55 38L55 37L57 37L57 36L53 36L53 35L56 35L56 34L57 34L57 33L56 33L56 30L53 30L53 29L54 29L54 28L53 28L53 27L54 27L54 26L55 26L55 27L56 27L56 29L57 29L57 27L56 27L56 25L57 25L57 24L56 24L56 21L57 21L57 19L56 19L56 18L55 18L55 19L56 19L56 20L55 20L55 22L54 22L54 21L52 21L52 20L53 20L53 19L50 19L50 18L53 18L53 17L55 17L55 16L56 16L56 17L57 17L57 15L56 15L56 12L57 12L57 11L56 11L56 10L57 10L57 8L53 8L53 9L55 9L55 14L53 14L53 13L54 13L54 12L53 12L53 13L52 13L52 14L51 14L51 12L52 12L52 11L54 11L54 10L52 10L52 8L51 8L51 9L50 9L50 10L51 10L51 11L50 11L50 15L48 15L48 17L47 17L47 19L45 19L45 16L47 16L47 15L46 15L46 9L47 9L47 12L49 12L49 11L48 11L48 10L49 10L49 9L48 9L48 8L47 8L47 5L48 5L48 0L41 0L41 1L40 1L40 2L39 2L39 3L40 3L40 4L38 4L38 1L39 1L39 0L38 0L38 1L37 1L37 2L36 2L36 0L35 0L35 1L34 1L34 0L29 0L29 1L28 1L28 0L23 0L23 3L22 3L22 4L23 4L23 3L25 3L25 4L24 4L24 5L23 5L23 6L22 6L22 5L21 5L21 6L20 6L20 5L19 5L19 4L18 4L18 5L17 5L17 6L16 6L16 5L15 5L15 4L14 4L14 1L15 1L15 3L16 3L16 4L17 4L17 3L16 3L16 0L14 0L14 1L13 1L13 0L12 0L12 1L11 1L11 0L10 0L10 1L11 1L11 2L9 2L9 0ZM17 0L17 2L19 2L19 3L21 3L21 2L22 2L22 1L21 1L21 0L20 0L20 1L21 1L21 2L19 2L19 0ZM12 1L12 2L11 2L11 5L9 5L9 7L10 7L10 6L11 6L11 5L13 5L13 4L12 4L12 3L13 3L13 1ZM25 1L25 3L26 3L26 4L28 4L28 3L30 3L30 4L31 4L31 3L32 3L32 5L33 5L33 4L34 4L34 5L35 5L35 7L34 7L34 6L33 6L33 7L32 7L32 6L31 6L31 10L29 10L29 9L26 9L26 6L25 6L25 7L24 7L24 6L23 6L23 7L24 7L24 8L25 8L25 10L23 10L23 8L22 8L22 10L20 10L20 9L19 9L19 10L18 10L18 11L17 11L17 13L15 13L15 12L16 12L16 10L17 10L17 9L15 9L15 12L14 12L14 11L13 11L13 13L15 13L15 14L17 14L17 13L18 13L18 12L19 12L19 14L20 14L20 16L21 16L21 17L26 17L26 16L27 16L27 15L28 15L28 14L27 14L27 13L29 13L29 16L31 16L31 18L32 18L32 16L33 16L33 15L30 15L30 13L31 13L31 14L32 14L32 12L33 12L33 13L34 13L34 22L35 22L35 23L34 23L34 24L33 24L33 25L34 25L34 26L33 26L33 27L32 27L32 23L33 23L33 22L29 22L29 23L28 23L28 22L27 22L27 21L26 21L26 20L27 20L27 19L30 19L30 18L28 18L28 17L27 17L27 18L24 18L24 19L22 19L22 18L21 18L21 19L19 19L19 18L20 18L20 17L18 17L18 18L17 18L17 17L16 17L16 18L17 18L17 19L18 19L18 20L19 20L19 21L20 21L20 20L21 20L21 19L22 19L22 23L21 23L21 22L20 22L20 23L19 23L19 22L18 22L18 21L17 21L17 20L15 20L15 21L17 21L17 22L16 22L16 23L15 23L15 22L14 22L14 21L12 21L12 25L11 25L11 26L14 26L14 25L13 25L13 23L14 23L14 24L15 24L15 25L16 25L16 26L15 26L15 27L11 27L11 28L12 28L12 29L14 29L14 30L16 30L16 32L17 32L17 30L18 30L18 32L19 32L19 34L17 34L17 33L16 33L16 34L17 34L17 35L15 35L15 36L16 36L16 37L13 37L13 38L14 38L14 40L13 40L13 39L12 39L12 36L14 36L14 34L15 34L15 31L14 31L14 32L13 32L13 31L12 31L12 34L13 34L13 35L11 35L11 36L10 36L10 35L9 35L9 34L10 34L10 32L11 32L11 31L10 31L10 28L9 28L9 31L10 31L10 32L9 32L9 33L8 33L8 34L7 34L7 35L4 35L4 34L1 34L1 36L2 36L2 35L4 35L4 36L5 36L5 38L7 38L7 39L4 39L4 40L5 40L5 41L6 41L6 42L9 42L9 40L12 40L12 41L11 41L11 42L12 42L12 41L14 41L14 42L13 42L13 43L12 43L12 44L13 44L13 43L14 43L14 42L15 42L15 41L16 41L16 43L15 43L15 44L17 44L17 45L16 45L16 48L15 48L15 47L14 47L14 49L13 49L13 50L12 50L12 49L11 49L11 52L12 52L12 51L13 51L13 52L14 52L14 54L15 54L15 53L17 53L17 52L14 52L14 51L17 51L17 49L16 49L16 48L17 48L17 45L18 45L18 44L19 44L19 42L20 42L20 41L18 41L18 43L17 43L17 40L19 40L19 39L20 39L20 38L21 38L21 40L22 40L22 41L21 41L21 43L20 43L20 45L19 45L19 46L20 46L20 48L19 48L19 47L18 47L18 48L19 48L19 50L18 50L18 51L21 51L21 50L22 50L22 49L23 49L23 48L22 48L22 47L23 47L23 45L21 45L21 43L22 43L22 44L23 44L23 43L24 43L24 45L25 45L25 43L27 43L27 45L26 45L26 46L24 46L24 47L25 47L25 48L24 48L24 49L25 49L25 50L26 50L26 48L28 48L28 47L26 47L26 46L27 46L27 45L28 45L28 46L29 46L29 47L30 47L30 48L31 48L31 52L32 52L32 48L31 48L31 46L32 46L32 47L33 47L33 45L31 45L31 44L29 44L29 43L31 43L31 42L30 42L30 41L29 41L29 40L28 40L28 43L27 43L27 41L26 41L26 42L24 42L24 41L25 41L25 40L26 40L26 38L24 38L24 37L23 37L23 36L22 36L22 35L23 35L23 33L26 33L26 34L24 34L24 36L25 36L25 37L26 37L26 36L28 36L28 37L27 37L27 39L28 39L28 38L29 38L29 39L31 39L31 41L32 41L32 43L33 43L33 44L35 44L35 43L33 43L33 41L32 41L32 40L33 40L33 39L34 39L34 42L35 42L35 39L37 39L37 42L38 42L38 39L40 39L40 38L38 38L38 37L41 37L41 35L42 35L42 34L40 34L40 33L41 33L41 32L40 32L40 30L41 30L41 29L44 29L44 30L43 30L43 31L45 31L45 30L46 30L46 31L47 31L47 32L45 32L45 33L43 33L43 37L44 37L44 38L43 38L43 39L42 39L42 38L41 38L41 39L42 39L42 40L40 40L40 42L39 42L39 44L37 44L37 43L36 43L36 44L37 44L37 46L38 46L38 45L39 45L39 46L40 46L40 51L38 51L38 49L39 49L39 47L38 47L38 49L37 49L37 51L38 51L38 53L39 53L39 52L40 52L40 53L42 53L42 52L41 52L41 46L40 46L40 45L41 45L41 44L40 44L40 43L42 43L42 44L43 44L43 45L44 45L44 46L43 46L43 47L42 47L42 49L44 49L44 50L42 50L42 51L45 51L45 53L46 53L46 52L47 52L47 53L48 53L48 52L47 52L47 49L48 49L48 47L49 47L49 46L48 46L48 44L47 44L47 43L48 43L48 41L49 41L49 42L50 42L50 43L49 43L49 44L50 44L50 43L51 43L51 45L52 45L52 46L53 46L53 48L54 48L54 49L55 49L55 46L54 46L54 45L53 45L53 44L52 44L52 43L53 43L53 41L52 41L52 40L50 40L50 39L51 39L51 37L50 37L50 35L53 35L53 34L54 34L54 33L55 33L55 34L56 34L56 33L55 33L55 31L54 31L54 33L51 33L51 32L50 32L50 35L46 35L46 34L49 34L49 33L48 33L48 31L47 31L47 30L48 30L48 29L46 29L46 28L47 28L47 27L48 27L48 26L47 26L47 25L48 25L48 24L47 24L47 21L48 21L48 20L49 20L49 21L51 21L51 22L52 22L52 26L53 26L53 24L55 24L55 25L56 25L56 24L55 24L55 23L53 23L53 22L52 22L52 21L51 21L51 20L49 20L49 19L48 19L48 20L47 20L47 21L46 21L46 20L45 20L45 21L46 21L46 24L47 24L47 25L46 25L46 26L45 26L45 25L44 25L44 24L45 24L45 22L44 22L44 16L45 16L45 15L44 15L44 14L45 14L45 13L44 13L44 12L45 12L45 11L44 11L44 12L41 12L41 11L43 11L43 10L44 10L44 4L45 4L45 5L47 5L47 3L44 3L44 2L43 2L43 3L41 3L41 2L40 2L40 3L41 3L41 5L39 5L39 7L40 7L40 6L41 6L41 8L40 8L40 11L39 11L39 10L38 10L38 9L39 9L39 8L37 8L37 9L35 9L35 7L36 7L36 5L37 5L37 7L38 7L38 4L37 4L37 3L36 3L36 2L35 2L35 3L34 3L34 1L33 1L33 3L32 3L32 1L31 1L31 2L28 2L28 1ZM46 1L46 2L47 2L47 1ZM43 3L43 4L42 4L42 5L41 5L41 6L42 6L42 8L41 8L41 10L43 10L43 6L42 6L42 5L43 5L43 4L44 4L44 3ZM35 4L35 5L36 5L36 4ZM18 5L18 6L17 6L17 8L19 8L19 7L20 7L20 6L19 6L19 5ZM27 5L27 8L30 8L30 5ZM15 6L15 7L16 7L16 6ZM18 6L18 7L19 7L19 6ZM21 6L21 7L22 7L22 6ZM28 6L28 7L29 7L29 6ZM45 6L45 9L46 9L46 6ZM48 6L48 7L49 7L49 6ZM33 7L33 8L32 8L32 11L33 11L33 10L34 10L34 12L35 12L35 13L36 13L36 14L37 14L37 12L39 12L39 11L36 11L36 10L34 10L34 9L33 9L33 8L34 8L34 7ZM5 9L5 10L7 10L7 9ZM19 10L19 12L20 12L20 14L21 14L21 15L22 15L22 16L26 16L26 15L27 15L27 14L26 14L26 11L27 11L27 12L28 12L28 11L29 11L29 12L31 12L31 11L29 11L29 10L28 10L28 11L27 11L27 10L25 10L25 11L24 11L24 12L22 12L22 11L21 11L21 12L20 12L20 10ZM5 11L5 13L6 13L6 14L7 14L7 13L6 13L6 12L7 12L7 11ZM21 13L21 14L22 14L22 15L26 15L26 14L23 14L23 13ZM38 13L38 15L39 15L39 17L38 17L38 16L37 16L37 15L35 15L35 17L38 17L38 18L39 18L39 19L38 19L38 20L37 20L37 18L35 18L35 19L36 19L36 20L35 20L35 22L37 22L37 23L38 23L38 22L39 22L39 21L40 21L40 22L43 22L43 23L44 23L44 22L43 22L43 21L40 21L40 18L41 18L41 20L42 20L42 18L43 18L43 17L42 17L42 15L43 15L43 16L44 16L44 15L43 15L43 13L41 13L41 14L40 14L40 13ZM47 13L47 14L49 14L49 13ZM9 14L9 15L10 15L10 14ZM13 14L13 15L12 15L12 16L13 16L13 17L14 17L14 16L15 16L15 15L14 15L14 14ZM52 14L52 15L50 15L50 16L52 16L52 17L53 17L53 16L55 16L55 15L53 15L53 14ZM2 15L2 16L3 16L3 15ZM13 15L13 16L14 16L14 15ZM18 15L18 16L19 16L19 15ZM40 15L40 17L39 17L39 18L40 18L40 17L41 17L41 15ZM52 15L52 16L53 16L53 15ZM6 17L6 18L7 18L7 17ZM9 17L9 18L10 18L10 19L12 19L12 18L10 18L10 17ZM49 17L49 18L50 18L50 17ZM1 19L1 20L2 20L2 19ZM25 19L25 20L24 20L24 21L23 21L23 23L22 23L22 24L21 24L21 25L19 25L19 23L18 23L18 24L17 24L17 26L18 26L18 27L16 27L16 28L15 28L15 29L18 29L18 30L19 30L19 29L18 29L18 28L19 28L19 27L20 27L20 30L22 30L22 31L19 31L19 32L21 32L21 33L20 33L20 35L17 35L17 38L16 38L16 39L15 39L15 40L14 40L14 41L15 41L15 40L17 40L17 39L19 39L19 38L18 38L18 37L21 37L21 38L22 38L22 39L23 39L23 41L24 41L24 39L23 39L23 38L22 38L22 36L20 36L20 35L22 35L22 34L21 34L21 33L22 33L22 31L23 31L23 32L24 32L24 31L26 31L26 32L27 32L27 34L26 34L26 35L25 35L25 36L26 36L26 35L27 35L27 34L28 34L28 36L29 36L29 37L31 37L31 36L32 36L32 37L33 37L33 38L31 38L31 39L33 39L33 38L34 38L34 39L35 39L35 38L37 38L37 39L38 39L38 38L37 38L37 36L38 36L38 34L39 34L39 33L40 33L40 32L39 32L39 29L40 29L40 28L41 28L41 25L42 25L42 28L43 28L43 27L44 27L44 29L45 29L45 27L44 27L44 26L43 26L43 24L42 24L42 23L41 23L41 25L40 25L40 23L39 23L39 25L38 25L38 26L39 26L39 25L40 25L40 27L37 27L37 26L36 26L36 27L35 27L35 29L37 29L37 30L36 30L36 31L34 31L34 27L33 27L33 28L32 28L32 30L31 30L31 25L29 25L29 26L27 26L27 25L28 25L28 23L27 23L27 22L26 22L26 23L25 23L25 22L24 22L24 21L25 21L25 20L26 20L26 19ZM28 20L28 21L32 21L32 20ZM38 20L38 21L37 21L37 22L38 22L38 21L39 21L39 20ZM1 21L1 22L2 22L2 21ZM3 21L3 22L4 22L4 23L5 23L5 24L4 24L4 25L5 25L5 26L7 26L7 25L8 25L8 24L7 24L7 23L5 23L5 22L4 22L4 21ZM49 22L49 23L50 23L50 24L49 24L49 26L50 26L50 25L51 25L51 23L50 23L50 22ZM23 23L23 24L22 24L22 25L24 25L24 23ZM5 24L5 25L7 25L7 24ZM34 24L34 25L37 25L37 24ZM25 25L25 26L23 26L23 28L22 28L22 27L21 27L21 26L20 26L20 27L21 27L21 29L22 29L22 30L23 30L23 31L24 31L24 30L23 30L23 28L25 28L25 27L26 27L26 25ZM9 26L9 27L10 27L10 26ZM46 26L46 27L47 27L47 26ZM3 27L3 28L4 28L4 27ZM5 27L5 30L8 30L8 27ZM27 27L27 30L30 30L30 27ZM36 27L36 28L37 28L37 29L38 29L38 28L37 28L37 27ZM49 27L49 30L52 30L52 27ZM6 28L6 29L7 29L7 28ZM28 28L28 29L29 29L29 28ZM50 28L50 29L51 29L51 28ZM25 29L25 30L26 30L26 29ZM32 30L32 31L31 31L31 32L29 32L29 31L28 31L28 32L29 32L29 33L28 33L28 34L29 34L29 33L31 33L31 34L30 34L30 36L31 36L31 34L32 34L32 35L33 35L33 36L34 36L34 38L35 38L35 35L33 35L33 33L32 33L32 32L33 32L33 30ZM37 30L37 32L38 32L38 30ZM52 31L52 32L53 32L53 31ZM13 33L13 34L14 34L14 33ZM34 33L34 34L35 34L35 33ZM37 33L37 34L38 34L38 33ZM45 33L45 34L46 34L46 33ZM8 35L8 36L6 36L6 37L7 37L7 38L8 38L8 37L10 37L10 36L9 36L9 35ZM39 35L39 36L40 36L40 35ZM44 35L44 37L45 37L45 39L43 39L43 40L44 40L44 43L43 43L43 44L44 44L44 45L45 45L45 46L44 46L44 49L46 49L46 48L47 48L47 47L48 47L48 46L47 46L47 47L46 47L46 45L47 45L47 44L46 44L46 45L45 45L45 44L44 44L44 43L46 43L46 41L47 41L47 40L49 40L49 39L50 39L50 37L48 37L48 39L47 39L47 38L46 38L46 37L45 37L45 36L46 36L46 35ZM3 37L3 38L4 38L4 37ZM9 38L9 39L7 39L7 40L6 40L6 41L8 41L8 40L9 40L9 39L10 39L10 38ZM46 39L46 40L45 40L45 41L46 41L46 40L47 40L47 39ZM41 41L41 42L43 42L43 41ZM51 41L51 43L52 43L52 41ZM55 41L55 42L56 42L56 41ZM0 42L0 43L1 43L1 42ZM8 43L8 44L7 44L7 45L6 45L6 46L7 46L7 45L9 45L9 43ZM39 44L39 45L40 45L40 44ZM1 45L1 47L2 47L2 45ZM13 45L13 46L12 46L12 47L13 47L13 46L14 46L14 45ZM20 45L20 46L21 46L21 47L22 47L22 46L21 46L21 45ZM30 45L30 46L31 46L31 45ZM34 45L34 47L35 47L35 45ZM50 46L50 48L51 48L51 46ZM36 47L36 48L37 48L37 47ZM45 47L45 48L46 48L46 47ZM20 48L20 50L21 50L21 49L22 49L22 48ZM15 49L15 50L16 50L16 49ZM27 49L27 52L30 52L30 49ZM49 49L49 52L52 52L52 49ZM28 50L28 51L29 51L29 50ZM50 50L50 51L51 51L51 50ZM9 51L9 52L10 52L10 51ZM19 52L19 53L20 53L20 52ZM43 52L43 53L44 53L44 52ZM12 53L12 54L13 54L13 53ZM30 53L30 54L31 54L31 53ZM32 53L32 54L33 54L33 53ZM49 53L49 54L51 54L51 55L52 55L52 54L51 54L51 53ZM8 55L8 57L9 57L9 55ZM47 56L47 57L48 57L48 56ZM56 56L56 57L57 57L57 56ZM0 0L0 7L7 7L7 0ZM1 1L1 6L6 6L6 1ZM2 2L2 5L5 5L5 2ZM50 0L50 7L57 7L57 0ZM51 1L51 6L56 6L56 1ZM52 2L52 5L55 5L55 2ZM0 50L0 57L7 57L7 50ZM1 51L1 56L6 56L6 51ZM2 52L2 55L5 55L5 52Z" fill="#000000"/></g></g></svg>
