<?xml version="1.0" encoding="UTF-8"?>
<svg xmlns="http://www.w3.org/2000/svg" version="1.1" width="300" height="300" viewBox="0 0 300 300"><rect x="0" y="0" width="300" height="300" fill="#fefefe"/><g transform="scale(4.615)"><g transform="translate(4,4)"><path fill-rule="evenodd" d="M8 0L8 2L10 2L10 3L11 3L11 5L10 5L10 7L9 7L9 4L8 4L8 9L9 9L9 10L4 10L4 9L3 9L3 8L0 8L0 12L1 12L1 11L2 11L2 13L3 13L3 14L2 14L2 16L3 16L3 17L2 17L2 18L0 18L0 20L2 20L2 19L3 19L3 17L4 17L4 21L3 21L3 24L2 24L2 22L1 22L1 21L0 21L0 23L1 23L1 24L0 24L0 26L1 26L1 27L0 27L0 30L1 30L1 33L0 33L0 34L1 34L1 33L2 33L2 35L3 35L3 36L0 36L0 37L3 37L3 36L5 36L5 34L4 34L4 33L2 33L2 30L3 30L3 32L4 32L4 31L5 31L5 32L6 32L6 33L8 33L8 34L6 34L6 35L8 35L8 34L9 34L9 33L10 33L10 34L11 34L11 32L13 32L13 33L12 33L12 34L13 34L13 35L11 35L11 36L10 36L10 35L9 35L9 37L11 37L11 38L8 38L8 40L4 40L4 43L5 43L5 44L6 44L6 45L5 45L5 47L3 47L3 46L2 46L2 45L0 45L0 48L5 48L5 47L7 47L7 46L8 46L8 47L9 47L9 48L8 48L8 50L9 50L9 49L10 49L10 50L12 50L12 49L13 49L13 50L14 50L14 51L15 51L15 53L14 53L14 52L13 52L13 51L12 51L12 52L11 52L11 51L10 51L10 53L9 53L9 54L8 54L8 57L13 57L13 56L14 56L14 54L15 54L15 56L16 56L16 57L17 57L17 55L18 55L18 53L19 53L19 52L18 52L18 53L17 53L17 51L18 51L18 50L17 50L17 51L16 51L16 49L17 49L17 48L18 48L18 49L19 49L19 51L20 51L20 53L21 53L21 54L20 54L20 55L22 55L22 57L24 57L24 56L25 56L25 55L24 55L24 54L25 54L25 51L26 51L26 53L28 53L28 55L27 55L27 54L26 54L26 55L27 55L27 56L26 56L26 57L28 57L28 55L29 55L29 57L33 57L33 55L34 55L34 57L35 57L35 55L37 55L37 54L36 54L36 53L37 53L37 51L38 51L38 47L37 47L37 46L38 46L38 45L37 45L37 44L40 44L40 46L39 46L39 47L40 47L40 49L39 49L39 52L38 52L38 53L39 53L39 55L40 55L40 54L42 54L42 55L41 55L41 56L40 56L40 57L42 57L42 56L43 56L43 54L42 54L42 53L43 53L43 52L44 52L44 55L45 55L45 56L44 56L44 57L45 57L45 56L46 56L46 57L47 57L47 56L48 56L48 57L50 57L50 55L49 55L49 54L52 54L52 55L53 55L53 56L51 56L51 57L54 57L54 55L57 55L57 54L54 54L54 53L56 53L56 51L57 51L57 49L56 49L56 47L57 47L57 42L56 42L56 41L57 41L57 40L55 40L55 42L54 42L54 38L57 38L57 37L55 37L55 36L54 36L54 34L53 34L53 36L52 36L52 37L51 37L51 33L50 33L50 32L51 32L51 31L53 31L53 32L54 32L54 33L56 33L56 31L57 31L57 28L56 28L56 27L57 27L57 24L56 24L56 23L57 23L57 21L56 21L56 23L55 23L55 24L56 24L56 25L55 25L55 26L54 26L54 22L55 22L55 21L54 21L54 19L56 19L56 20L57 20L57 12L55 12L55 13L56 13L56 15L55 15L55 16L54 16L54 14L53 14L53 12L54 12L54 11L55 11L55 10L56 10L56 11L57 11L57 10L56 10L56 9L57 9L57 8L55 8L55 9L54 9L54 10L53 10L53 8L48 8L48 9L47 9L47 11L46 11L46 7L47 7L47 5L48 5L48 0L46 0L46 1L47 1L47 2L45 2L45 4L44 4L44 2L43 2L43 3L42 3L42 1L45 1L45 0L42 0L42 1L41 1L41 0L38 0L38 2L37 2L37 1L35 1L35 0L34 0L34 2L33 2L33 3L34 3L34 8L32 8L32 9L31 9L31 5L32 5L32 2L31 2L31 0L28 0L28 1L27 1L27 0L26 0L26 1L25 1L25 0L24 0L24 1L23 1L23 0L19 0L19 1L21 1L21 2L20 2L20 3L21 3L21 4L22 4L22 10L23 10L23 11L22 11L22 12L23 12L23 14L24 14L24 15L23 15L23 16L22 16L22 14L21 14L21 18L22 18L22 21L21 21L21 20L20 20L20 21L21 21L21 22L20 22L20 23L21 23L21 22L22 22L22 23L23 23L23 24L22 24L22 26L20 26L20 27L18 27L18 28L19 28L19 30L18 30L18 33L17 33L17 34L16 34L16 35L15 35L15 33L14 33L14 31L16 31L16 32L17 32L17 31L16 31L16 30L14 30L14 29L15 29L15 28L13 28L13 27L16 27L16 28L17 28L17 27L16 27L16 25L17 25L17 23L18 23L18 25L19 25L19 20L18 20L18 22L17 22L17 20L14 20L14 19L15 19L15 18L16 18L16 19L19 19L19 18L20 18L20 16L18 16L18 15L19 15L19 14L20 14L20 13L21 13L21 12L20 12L20 13L19 13L19 12L18 12L18 11L21 11L21 10L20 10L20 9L21 9L21 5L20 5L20 7L19 7L19 5L17 5L17 4L16 4L16 3L17 3L17 2L18 2L18 3L19 3L19 2L18 2L18 1L17 1L17 0L16 0L16 1L15 1L15 0L14 0L14 3L13 3L13 2L12 2L12 0L11 0L11 2L10 2L10 1L9 1L9 0ZM16 1L16 2L15 2L15 3L14 3L14 4L15 4L15 3L16 3L16 2L17 2L17 1ZM24 1L24 4L25 4L25 1ZM28 1L28 2L27 2L27 3L26 3L26 4L27 4L27 3L28 3L28 4L29 4L29 3L30 3L30 2L29 2L29 1ZM39 1L39 2L38 2L38 3L37 3L37 2L35 2L35 3L36 3L36 4L35 4L35 9L34 9L34 10L33 10L33 9L32 9L32 12L30 12L30 11L29 11L29 12L30 12L30 13L29 13L29 15L28 15L28 14L27 14L27 12L28 12L28 11L27 11L27 10L25 10L25 9L26 9L26 5L24 5L24 6L23 6L23 8L24 8L24 11L26 11L26 14L25 14L25 12L24 12L24 14L25 14L25 15L26 15L26 16L24 16L24 18L25 18L25 19L24 19L24 20L25 20L25 21L26 21L26 20L27 20L27 22L26 22L26 23L27 23L27 25L26 25L26 26L31 26L31 25L32 25L32 28L31 28L31 29L32 29L32 28L33 28L33 29L34 29L34 31L32 31L32 32L30 32L30 34L33 34L33 33L32 33L32 32L34 32L34 34L35 34L35 33L36 33L36 35L35 35L35 36L33 36L33 37L34 37L34 38L31 38L31 43L30 43L30 42L29 42L29 40L30 40L30 36L31 36L31 37L32 37L32 36L31 36L31 35L28 35L28 34L29 34L29 31L27 31L27 32L26 32L26 30L25 30L25 29L24 29L24 30L25 30L25 32L24 32L24 31L23 31L23 32L24 32L24 34L26 34L26 35L28 35L28 36L27 36L27 38L26 38L26 37L24 37L24 36L25 36L25 35L23 35L23 33L22 33L22 30L23 30L23 29L22 29L22 30L21 30L21 29L20 29L20 30L21 30L21 32L19 32L19 33L18 33L18 35L16 35L16 36L15 36L15 35L13 35L13 36L15 36L15 37L12 37L12 36L11 36L11 37L12 37L12 38L11 38L11 41L10 41L10 39L9 39L9 40L8 40L8 41L6 41L6 42L8 42L8 43L6 43L6 44L7 44L7 45L6 45L6 46L7 46L7 45L8 45L8 46L10 46L10 49L12 49L12 48L11 48L11 46L12 46L12 47L13 47L13 49L14 49L14 50L15 50L15 49L16 49L16 47L17 47L17 44L16 44L16 43L17 43L17 42L18 42L18 39L19 39L19 38L18 38L18 36L19 36L19 34L20 34L20 36L21 36L21 38L20 38L20 39L21 39L21 38L22 38L22 39L23 39L23 41L22 41L22 40L21 40L21 41L20 41L20 42L19 42L19 43L18 43L18 44L19 44L19 43L20 43L20 47L19 47L19 48L21 48L21 49L20 49L20 51L22 51L22 52L24 52L24 51L25 51L25 50L26 50L26 49L25 49L25 46L26 46L26 48L28 48L28 47L30 47L30 48L31 48L31 52L32 52L32 48L34 48L34 47L35 47L35 49L34 49L34 50L33 50L33 51L34 51L34 52L35 52L35 53L34 53L34 54L35 54L35 53L36 53L36 52L35 52L35 51L37 51L37 49L36 49L36 48L37 48L37 47L35 47L35 46L36 46L36 44L37 44L37 43L40 43L40 44L41 44L41 45L42 45L42 47L41 47L41 46L40 46L40 47L41 47L41 49L40 49L40 51L41 51L41 52L42 52L42 51L41 51L41 49L42 49L42 50L43 50L43 51L44 51L44 50L45 50L45 51L46 51L46 50L47 50L47 49L46 49L46 48L47 48L47 47L48 47L48 46L49 46L49 47L50 47L50 46L51 46L51 45L50 45L50 42L49 42L49 41L51 41L51 40L52 40L52 44L53 44L53 45L52 45L52 47L51 47L51 48L53 48L53 49L54 49L54 50L53 50L53 51L54 51L54 52L55 52L55 51L56 51L56 49L54 49L54 48L55 48L55 47L56 47L56 44L55 44L55 43L56 43L56 42L55 42L55 43L54 43L54 44L53 44L53 40L52 40L52 39L53 39L53 38L54 38L54 36L53 36L53 37L52 37L52 38L51 38L51 37L50 37L50 38L51 38L51 40L48 40L48 38L49 38L49 36L50 36L50 33L49 33L49 36L48 36L48 37L46 37L46 36L47 36L47 34L48 34L48 33L47 33L47 30L48 30L48 28L46 28L46 29L44 29L44 31L45 31L45 32L46 32L46 36L45 36L45 37L46 37L46 38L47 38L47 40L48 40L48 41L46 41L46 39L45 39L45 41L44 41L44 44L43 44L43 43L40 43L40 42L41 42L41 41L40 41L40 40L42 40L42 42L43 42L43 40L42 40L42 39L43 39L43 38L44 38L44 34L45 34L45 33L44 33L44 34L43 34L43 33L42 33L42 31L43 31L43 28L42 28L42 31L40 31L40 30L41 30L41 29L40 29L40 27L41 27L41 25L40 25L40 24L39 24L39 23L41 23L41 24L42 24L42 27L43 27L43 26L45 26L45 27L46 27L46 26L47 26L47 27L48 27L48 26L51 26L51 25L52 25L52 24L53 24L53 22L54 22L54 21L53 21L53 22L52 22L52 20L53 20L53 19L54 19L54 16L53 16L53 14L52 14L52 13L50 13L50 10L51 10L51 12L52 12L52 9L50 9L50 10L49 10L49 9L48 9L48 10L49 10L49 12L48 12L48 14L47 14L47 13L46 13L46 11L45 11L45 9L44 9L44 8L45 8L45 7L46 7L46 5L47 5L47 3L46 3L46 5L44 5L44 4L43 4L43 5L42 5L42 3L41 3L41 2L40 2L40 1ZM22 2L22 4L23 4L23 2ZM39 2L39 3L38 3L38 5L37 5L37 6L36 6L36 10L34 10L34 11L33 11L33 12L32 12L32 13L31 13L31 15L32 15L32 13L33 13L33 15L34 15L34 17L33 17L33 16L32 16L32 17L31 17L31 16L30 16L30 15L29 15L29 16L30 16L30 17L28 17L28 18L30 18L30 17L31 17L31 18L32 18L32 19L30 19L30 21L31 21L31 20L32 20L32 21L33 21L33 22L31 22L31 23L32 23L32 25L33 25L33 26L34 26L34 24L36 24L36 26L37 26L37 28L36 28L36 30L37 30L37 31L36 31L36 33L37 33L37 34L38 34L38 35L36 35L36 37L35 37L35 38L34 38L34 41L33 41L33 40L32 40L32 43L31 43L31 44L30 44L30 43L29 43L29 42L28 42L28 44L29 44L29 46L30 46L30 47L31 47L31 48L32 48L32 47L34 47L34 45L33 45L33 44L35 44L35 43L36 43L36 41L37 41L37 42L38 42L38 41L39 41L39 40L40 40L40 39L42 39L42 36L43 36L43 35L42 35L42 36L41 36L41 35L40 35L40 36L38 36L38 35L39 35L39 34L38 34L38 33L39 33L39 32L40 32L40 34L42 34L42 33L41 33L41 32L40 32L40 31L38 31L38 30L37 30L37 28L38 28L38 29L39 29L39 27L40 27L40 25L39 25L39 26L38 26L38 25L37 25L37 24L36 24L36 23L37 23L37 22L38 22L38 23L39 23L39 22L38 22L38 20L39 20L39 19L40 19L40 22L41 22L41 23L42 23L42 24L43 24L43 22L44 22L44 23L45 23L45 22L44 22L44 21L45 21L45 20L46 20L46 21L47 21L47 20L46 20L46 19L44 19L44 17L45 17L45 16L46 16L46 17L47 17L47 19L48 19L48 20L51 20L51 19L52 19L52 18L53 18L53 16L52 16L52 18L50 18L50 17L51 17L51 16L50 16L50 13L49 13L49 14L48 14L48 15L47 15L47 16L46 16L46 13L45 13L45 12L44 12L44 11L43 11L43 10L44 10L44 9L43 9L43 10L42 10L42 9L41 9L41 8L42 8L42 7L43 7L43 8L44 8L44 7L45 7L45 6L44 6L44 5L43 5L43 6L42 6L42 5L41 5L41 6L40 6L40 7L41 7L41 8L40 8L40 9L39 9L39 10L38 10L38 9L37 9L37 8L39 8L39 6L38 6L38 5L39 5L39 4L40 4L40 2ZM12 4L12 6L11 6L11 7L10 7L10 8L12 8L12 9L10 9L10 10L9 10L9 13L6 13L6 12L8 12L8 11L5 11L5 12L3 12L3 13L6 13L6 14L8 14L8 17L5 17L5 19L6 19L6 20L5 20L5 22L8 22L8 23L5 23L5 24L4 24L4 25L6 25L6 26L9 26L9 25L8 25L8 24L10 24L10 26L11 26L11 23L13 23L13 24L12 24L12 27L13 27L13 25L14 25L14 24L15 24L15 23L13 23L13 22L11 22L11 20L13 20L13 19L11 19L11 18L12 18L12 13L11 13L11 12L13 12L13 17L14 17L14 18L15 18L15 17L16 17L16 18L17 18L17 17L18 17L18 18L19 18L19 17L18 17L18 16L17 16L17 15L15 15L15 14L17 14L17 11L16 11L16 10L17 10L17 8L18 8L18 6L17 6L17 5L16 5L16 6L15 6L15 9L14 9L14 5L13 5L13 4ZM27 5L27 8L30 8L30 5ZM12 6L12 8L13 8L13 6ZM16 6L16 7L17 7L17 6ZM24 6L24 7L25 7L25 6ZM28 6L28 7L29 7L29 6ZM32 6L32 7L33 7L33 6ZM37 6L37 7L38 7L38 6ZM41 6L41 7L42 7L42 6ZM43 6L43 7L44 7L44 6ZM48 6L48 7L49 7L49 6ZM5 8L5 9L7 9L7 8ZM15 9L15 10L16 10L16 9ZM30 9L30 10L31 10L31 9ZM40 9L40 11L39 11L39 12L37 12L37 11L38 11L38 10L37 10L37 11L36 11L36 12L35 12L35 11L34 11L34 12L35 12L35 13L34 13L34 15L35 15L35 17L34 17L34 19L33 19L33 21L34 21L34 22L35 22L35 23L36 23L36 22L37 22L37 21L36 21L36 20L35 20L35 21L34 21L34 19L35 19L35 18L36 18L36 19L37 19L37 20L38 20L38 19L37 19L37 18L36 18L36 14L37 14L37 13L38 13L38 15L37 15L37 16L38 16L38 18L40 18L40 19L41 19L41 18L40 18L40 14L41 14L41 13L40 13L40 11L41 11L41 12L42 12L42 15L41 15L41 17L42 17L42 18L43 18L43 17L44 17L44 16L45 16L45 15L44 15L44 16L43 16L43 14L44 14L44 12L42 12L42 11L41 11L41 9ZM2 10L2 11L3 11L3 10ZM10 11L10 12L11 12L11 11ZM14 11L14 12L16 12L16 11ZM36 12L36 13L37 13L37 12ZM0 13L0 14L1 14L1 13ZM9 13L9 18L6 18L6 19L7 19L7 20L6 20L6 21L8 21L8 19L9 19L9 18L10 18L10 17L11 17L11 13ZM18 13L18 14L19 14L19 13ZM3 14L3 16L7 16L7 15L4 15L4 14ZM51 14L51 15L52 15L52 14ZM14 15L14 17L15 17L15 15ZM0 16L0 17L1 17L1 16ZM16 16L16 17L17 17L17 16ZM26 16L26 17L25 17L25 18L26 18L26 17L27 17L27 16ZM47 16L47 17L48 17L48 19L50 19L50 18L49 18L49 17L48 17L48 16ZM55 16L55 17L56 17L56 16ZM32 17L32 18L33 18L33 17ZM10 19L10 20L9 20L9 23L10 23L10 20L11 20L11 19ZM25 19L25 20L26 20L26 19ZM27 19L27 20L28 20L28 22L27 22L27 23L28 23L28 25L29 25L29 24L30 24L30 25L31 25L31 24L30 24L30 23L29 23L29 20L28 20L28 19ZM42 19L42 20L43 20L43 21L42 21L42 22L43 22L43 21L44 21L44 19ZM14 21L14 22L15 22L15 21ZM35 21L35 22L36 22L36 21ZM16 22L16 23L17 23L17 22ZM24 22L24 23L25 23L25 22ZM47 22L47 23L46 23L46 24L44 24L44 25L45 25L45 26L46 26L46 25L47 25L47 26L48 26L48 24L50 24L50 25L51 25L51 24L52 24L52 22L51 22L51 24L50 24L50 22L49 22L49 23L48 23L48 22ZM33 23L33 24L34 24L34 23ZM6 24L6 25L7 25L7 24ZM2 25L2 27L1 27L1 29L2 29L2 28L3 28L3 30L4 30L4 28L3 28L3 27L4 27L4 26L3 26L3 25ZM24 25L24 27L22 27L22 28L24 28L24 27L25 27L25 25ZM5 27L5 30L8 30L8 27ZM9 27L9 28L10 28L10 30L9 30L9 31L12 31L12 30L13 30L13 31L14 31L14 30L13 30L13 29L12 29L12 28L11 28L11 27ZM27 27L27 30L30 30L30 27ZM34 27L34 29L35 29L35 27ZM49 27L49 30L52 30L52 27ZM54 27L54 28L53 28L53 29L54 29L54 30L53 30L53 31L54 31L54 32L55 32L55 31L56 31L56 30L55 30L55 29L56 29L56 28L55 28L55 27ZM6 28L6 29L7 29L7 28ZM28 28L28 29L29 29L29 28ZM50 28L50 29L51 29L51 28ZM11 29L11 30L12 30L12 29ZM45 30L45 31L46 31L46 30ZM6 31L6 32L7 32L7 31ZM37 31L37 32L38 32L38 31ZM13 33L13 34L14 34L14 33ZM26 33L26 34L28 34L28 33ZM3 34L3 35L4 35L4 34ZM21 34L21 36L22 36L22 37L23 37L23 36L22 36L22 34ZM56 34L56 36L57 36L57 34ZM6 36L6 37L4 37L4 38L0 38L0 40L1 40L1 39L2 39L2 41L3 41L3 39L4 39L4 38L6 38L6 39L7 39L7 38L6 38L6 37L8 37L8 36ZM16 36L16 37L17 37L17 36ZM28 36L28 37L29 37L29 36ZM36 37L36 38L35 38L35 41L34 41L34 42L35 42L35 41L36 41L36 38L37 38L37 37ZM38 37L38 38L39 38L39 39L40 39L40 38L39 38L39 37ZM13 38L13 39L12 39L12 41L13 41L13 42L12 42L12 43L13 43L13 44L11 44L11 42L9 42L9 43L8 43L8 45L9 45L9 44L10 44L10 46L11 46L11 45L13 45L13 44L14 44L14 46L13 46L13 47L16 47L16 45L15 45L15 43L16 43L16 40L14 40L14 41L13 41L13 39L14 39L14 38ZM16 38L16 39L18 39L18 38ZM24 38L24 39L26 39L26 40L25 40L25 41L26 41L26 42L25 42L25 43L24 43L24 44L25 44L25 45L26 45L26 46L27 46L27 47L28 47L28 46L27 46L27 39L26 39L26 38ZM28 38L28 39L29 39L29 38ZM37 39L37 41L38 41L38 39ZM0 41L0 42L1 42L1 43L0 43L0 44L1 44L1 43L2 43L2 44L3 44L3 45L4 45L4 44L3 44L3 42L1 42L1 41ZM21 41L21 42L22 42L22 41ZM23 41L23 42L24 42L24 41ZM45 41L45 44L44 44L44 46L43 46L43 47L45 47L45 48L44 48L44 49L43 49L43 50L44 50L44 49L45 49L45 50L46 50L46 49L45 49L45 48L46 48L46 44L47 44L47 45L48 45L48 44L49 44L49 43L48 43L48 44L47 44L47 43L46 43L46 41ZM13 42L13 43L15 43L15 42ZM22 43L22 44L23 44L23 43ZM42 44L42 45L43 45L43 44ZM18 45L18 46L19 46L19 45ZM23 45L23 47L24 47L24 45ZM30 45L30 46L31 46L31 47L32 47L32 46L33 46L33 45L32 45L32 46L31 46L31 45ZM49 45L49 46L50 46L50 45ZM53 45L53 46L54 46L54 47L53 47L53 48L54 48L54 47L55 47L55 46L54 46L54 45ZM1 46L1 47L2 47L2 46ZM21 46L21 48L22 48L22 50L23 50L23 51L24 51L24 49L23 49L23 48L22 48L22 46ZM6 48L6 49L7 49L7 48ZM27 49L27 52L30 52L30 49ZM49 49L49 52L52 52L52 49ZM28 50L28 51L29 51L29 50ZM34 50L34 51L35 51L35 50ZM50 50L50 51L51 51L51 50ZM8 51L8 52L9 52L9 51ZM47 51L47 52L46 52L46 53L45 53L45 55L48 55L48 56L49 56L49 55L48 55L48 54L49 54L49 53L48 53L48 54L47 54L47 52L48 52L48 51ZM39 52L39 53L40 53L40 52ZM10 53L10 54L9 54L9 56L10 56L10 55L11 55L11 53ZM13 53L13 54L12 54L12 55L13 55L13 54L14 54L14 53ZM31 53L31 54L30 54L30 55L33 55L33 54L32 54L32 53ZM16 54L16 55L17 55L17 54ZM22 54L22 55L23 55L23 54ZM18 56L18 57L21 57L21 56ZM36 56L36 57L37 57L37 56ZM56 56L56 57L57 57L57 56ZM0 0L0 7L7 7L7 0ZM1 1L1 6L6 6L6 1ZM2 2L2 5L5 5L5 2ZM50 0L50 7L57 7L57 0ZM51 1L51 6L56 6L56 1ZM52 2L52 5L55 5L55 2ZM0 50L0 57L7 57L7 50ZM1 51L1 56L6 56L6 51ZM2 52L2 55L5 55L5 52Z" fill="#000000"/></g></g></svg>
