<?xml version="1.0" encoding="UTF-8"?>
<svg xmlns="http://www.w3.org/2000/svg" version="1.1" width="300" height="300" viewBox="0 0 300 300"><rect x="0" y="0" width="300" height="300" fill="#fefefe"/><g transform="scale(4.615)"><g transform="translate(4,4)"><path fill-rule="evenodd" d="M10 0L10 2L11 2L11 3L10 3L10 4L11 4L11 6L10 6L10 5L9 5L9 4L8 4L8 8L6 8L6 9L4 9L4 8L3 8L3 9L4 9L4 10L6 10L6 11L7 11L7 12L6 12L6 13L8 13L8 12L9 12L9 11L10 11L10 10L12 10L12 9L14 9L14 8L13 8L13 6L14 6L14 7L15 7L15 8L18 8L18 9L17 9L17 10L16 10L16 11L17 11L17 12L18 12L18 13L19 13L19 14L18 14L18 16L17 16L17 19L16 19L16 26L14 26L14 27L11 27L11 28L12 28L12 29L10 29L10 30L13 30L13 31L15 31L15 30L16 30L16 33L17 33L17 34L14 34L14 35L13 35L13 36L12 36L12 34L13 34L13 33L14 33L14 32L13 32L13 33L12 33L12 31L11 31L11 32L10 32L10 31L9 31L9 28L10 28L10 26L12 26L12 25L13 25L13 22L11 22L11 21L12 21L12 20L14 20L14 19L15 19L15 17L16 17L16 15L17 15L17 13L16 13L16 12L15 12L15 14L14 14L14 15L13 15L13 14L12 14L12 13L11 13L11 12L12 12L12 11L11 11L11 12L10 12L10 13L9 13L9 14L8 14L8 15L7 15L7 14L5 14L5 16L4 16L4 15L3 15L3 13L4 13L4 12L1 12L1 11L3 11L3 10L1 10L1 11L0 11L0 15L1 15L1 16L0 16L0 17L2 17L2 16L3 16L3 17L5 17L5 16L6 16L6 17L7 17L7 18L6 18L6 19L7 19L7 18L9 18L9 20L5 20L5 19L3 19L3 18L2 18L2 19L3 19L3 20L4 20L4 21L3 21L3 22L2 22L2 23L1 23L1 21L0 21L0 23L1 23L1 24L0 24L0 26L2 26L2 27L0 27L0 28L4 28L4 31L3 31L3 29L0 29L0 31L1 31L1 32L0 32L0 33L1 33L1 35L0 35L0 39L1 39L1 42L4 42L4 44L6 44L6 45L7 45L7 46L5 46L5 47L3 47L3 46L4 46L4 45L3 45L3 46L2 46L2 47L1 47L1 45L2 45L2 44L3 44L3 43L2 43L2 44L0 44L0 48L5 48L5 47L7 47L7 46L8 46L8 47L9 47L9 49L8 49L8 48L6 48L6 49L8 49L8 51L12 51L12 50L10 50L10 49L15 49L15 48L16 48L16 46L15 46L15 47L14 47L14 45L20 45L20 43L21 43L21 46L22 46L22 47L23 47L23 46L22 46L22 40L24 40L24 39L25 39L25 42L24 42L24 41L23 41L23 42L24 42L24 43L23 43L23 45L25 45L25 46L24 46L24 48L21 48L21 47L20 47L20 46L19 46L19 47L17 47L17 49L16 49L16 50L15 50L15 51L13 51L13 54L14 54L14 55L12 55L12 56L11 56L11 54L12 54L12 53L11 53L11 52L10 52L10 53L8 53L8 54L10 54L10 55L8 55L8 57L9 57L9 56L10 56L10 57L12 57L12 56L15 56L15 57L17 57L17 56L15 56L15 53L14 53L14 52L16 52L16 51L18 51L18 50L20 50L20 51L19 51L19 52L17 52L17 53L16 53L16 54L17 54L17 55L22 55L22 56L21 56L21 57L24 57L24 56L25 56L25 57L26 57L26 56L25 56L25 55L28 55L28 56L29 56L29 57L31 57L31 56L33 56L33 57L35 57L35 56L36 56L36 57L42 57L42 56L43 56L43 57L44 57L44 55L45 55L45 54L44 54L44 53L45 53L45 51L46 51L46 53L47 53L47 54L46 54L46 57L48 57L48 56L50 56L50 57L51 57L51 56L52 56L52 57L53 57L53 56L54 56L54 55L55 55L55 54L56 54L56 55L57 55L57 51L56 51L56 50L57 50L57 49L55 49L55 48L54 48L54 47L53 47L53 46L52 46L52 48L49 48L49 46L46 46L46 47L47 47L47 48L48 48L48 50L47 50L47 49L45 49L45 48L44 48L44 47L45 47L45 45L44 45L44 43L45 43L45 42L44 42L44 41L47 41L47 40L52 40L52 41L53 41L53 42L54 42L54 43L57 43L57 40L56 40L56 39L57 39L57 37L55 37L55 36L56 36L56 35L57 35L57 32L56 32L56 31L57 31L57 30L53 30L53 29L54 29L54 28L53 28L53 27L55 27L55 29L57 29L57 27L56 27L56 26L57 26L57 20L55 20L55 21L54 21L54 20L53 20L53 19L57 19L57 15L56 15L56 14L57 14L57 13L56 13L56 14L55 14L55 15L56 15L56 18L55 18L55 16L53 16L53 15L51 15L51 14L52 14L52 13L53 13L53 14L54 14L54 11L55 11L55 12L56 12L56 11L57 11L57 10L56 10L56 8L54 8L54 9L53 9L53 8L50 8L50 9L53 9L53 10L54 10L54 11L51 11L51 10L50 10L50 11L49 11L49 10L48 10L48 11L49 11L49 14L48 14L48 16L49 16L49 17L50 17L50 18L49 18L49 19L47 19L47 18L48 18L48 17L47 17L47 16L46 16L46 15L45 15L45 16L44 16L44 18L45 18L45 16L46 16L46 17L47 17L47 18L46 18L46 19L44 19L44 20L43 20L43 21L44 21L44 20L45 20L45 22L44 22L44 24L43 24L43 22L42 22L42 24L41 24L41 21L42 21L42 19L43 19L43 18L42 18L42 14L41 14L41 10L39 10L39 11L40 11L40 15L39 15L39 14L38 14L38 12L34 12L34 14L35 14L35 13L36 13L36 15L33 15L33 14L32 14L32 13L33 13L33 12L32 12L32 13L31 13L31 15L33 15L33 16L32 16L32 18L31 18L31 19L30 19L30 17L31 17L31 16L28 16L28 15L29 15L29 14L30 14L30 13L29 13L29 11L30 11L30 12L31 12L31 11L32 11L32 10L28 10L28 11L26 11L26 12L28 12L28 13L29 13L29 14L27 14L27 13L26 13L26 14L27 14L27 18L26 18L26 16L25 16L25 18L24 18L24 17L22 17L22 18L21 18L21 14L23 14L23 16L24 16L24 12L25 12L25 11L24 11L24 12L23 12L23 8L24 8L24 9L26 9L26 10L27 10L27 9L32 9L32 8L31 8L31 6L32 6L32 7L33 7L33 8L34 8L34 9L35 9L35 10L36 10L36 11L38 11L38 10L37 10L37 6L38 6L38 9L43 9L43 11L42 11L42 12L43 12L43 15L44 15L44 13L46 13L46 14L47 14L47 10L46 10L46 8L48 8L48 9L49 9L49 8L48 8L48 7L49 7L49 6L48 6L48 7L47 7L47 5L48 5L48 0L44 0L44 1L45 1L45 2L44 2L44 3L45 3L45 2L46 2L46 3L47 3L47 5L45 5L45 4L44 4L44 7L45 7L45 6L46 6L46 8L45 8L45 9L44 9L44 8L41 8L41 6L42 6L42 7L43 7L43 4L42 4L42 5L41 5L41 4L38 4L38 2L40 2L40 1L43 1L43 0L40 0L40 1L39 1L39 0L37 0L37 1L36 1L36 0L32 0L32 3L33 3L33 5L32 5L32 4L31 4L31 2L30 2L30 1L31 1L31 0L28 0L28 1L27 1L27 0L22 0L22 1L21 1L21 0L15 0L15 1L14 1L14 2L12 2L12 1L11 1L11 0ZM8 1L8 3L9 3L9 1ZM15 1L15 2L14 2L14 3L13 3L13 4L15 4L15 5L14 5L14 6L15 6L15 7L16 7L16 6L17 6L17 7L18 7L18 6L17 6L17 5L18 5L18 4L19 4L19 5L20 5L20 6L19 6L19 7L20 7L20 6L21 6L21 7L22 7L22 6L23 6L23 7L24 7L24 8L26 8L26 6L25 6L25 5L24 5L24 4L29 4L29 1L28 1L28 3L27 3L27 2L26 2L26 1L23 1L23 2L24 2L24 3L22 3L22 2L21 2L21 1L20 1L20 2L19 2L19 1L18 1L18 2L17 2L17 1ZM34 1L34 2L35 2L35 4L34 4L34 5L35 5L35 7L34 7L34 6L33 6L33 7L34 7L34 8L35 8L35 9L36 9L36 8L35 8L35 7L36 7L36 6L37 6L37 5L38 5L38 4L37 4L37 2L38 2L38 1L37 1L37 2L36 2L36 1ZM46 1L46 2L47 2L47 1ZM16 2L16 3L17 3L17 2ZM19 3L19 4L20 4L20 3ZM21 4L21 5L22 5L22 4ZM35 4L35 5L36 5L36 4ZM23 5L23 6L24 6L24 7L25 7L25 6L24 6L24 5ZM27 5L27 8L30 8L30 5ZM40 5L40 6L39 6L39 8L40 8L40 6L41 6L41 5ZM9 6L9 7L10 7L10 6ZM11 6L11 8L12 8L12 6ZM28 6L28 7L29 7L29 6ZM0 8L0 9L2 9L2 8ZM8 8L8 9L6 9L6 10L7 10L7 11L8 11L8 9L9 9L9 10L10 10L10 8ZM19 8L19 11L18 11L18 10L17 10L17 11L18 11L18 12L19 12L19 11L20 11L20 12L21 12L21 11L20 11L20 10L21 10L21 8ZM33 10L33 11L34 11L34 10ZM44 10L44 11L45 11L45 10ZM55 10L55 11L56 11L56 10ZM13 11L13 13L14 13L14 11ZM50 11L50 12L51 12L51 13L50 13L50 14L49 14L49 15L50 15L50 14L51 14L51 13L52 13L52 12L51 12L51 11ZM22 12L22 13L23 13L23 12ZM10 13L10 16L9 16L9 15L8 15L8 16L9 16L9 18L11 18L11 19L10 19L10 20L9 20L9 21L6 21L6 22L8 22L8 24L7 24L7 23L5 23L5 24L7 24L7 25L6 25L6 26L8 26L8 25L12 25L12 24L11 24L11 22L10 22L10 21L11 21L11 20L12 20L12 19L14 19L14 16L12 16L12 18L11 18L11 15L12 15L12 14L11 14L11 13ZM20 13L20 14L19 14L19 15L20 15L20 14L21 14L21 13ZM15 14L15 15L16 15L16 14ZM37 14L37 15L38 15L38 17L37 17L37 18L36 18L36 17L35 17L35 16L34 16L34 17L33 17L33 19L34 19L34 20L35 20L35 21L33 21L33 20L32 20L32 22L33 22L33 23L32 23L32 24L33 24L33 25L32 25L32 26L31 26L31 25L26 25L26 24L27 24L27 22L26 22L26 21L27 21L27 19L26 19L26 18L25 18L25 19L24 19L24 18L23 18L23 19L22 19L22 20L25 20L25 22L24 22L24 21L23 21L23 22L22 22L22 21L21 21L21 20L20 20L20 19L21 19L21 18L20 18L20 16L19 16L19 17L18 17L18 18L19 18L19 19L17 19L17 22L18 22L18 24L19 24L19 25L17 25L17 26L16 26L16 27L14 27L14 29L13 29L13 30L14 30L14 29L15 29L15 28L17 28L17 27L20 27L20 28L21 28L21 30L20 30L20 29L19 29L19 28L18 28L18 29L16 29L16 30L17 30L17 31L19 31L19 32L20 32L20 33L19 33L19 34L17 34L17 36L18 36L18 35L19 35L19 37L17 37L17 38L19 38L19 39L16 39L16 40L15 40L15 37L14 37L14 36L13 36L13 37L12 37L12 36L11 36L11 35L10 35L10 34L12 34L12 33L6 33L6 32L8 32L8 31L5 31L5 32L2 32L2 35L1 35L1 36L2 36L2 37L3 37L3 38L1 38L1 39L2 39L2 40L3 40L3 41L4 41L4 42L5 42L5 43L6 43L6 44L7 44L7 45L8 45L8 46L9 46L9 42L10 42L10 44L11 44L11 45L10 45L10 48L11 48L11 47L12 47L12 48L14 48L14 47L13 47L13 46L12 46L12 45L13 45L13 44L14 44L14 43L16 43L16 44L19 44L19 43L20 43L20 41L19 41L19 43L18 43L18 42L17 42L17 41L18 41L18 40L20 40L20 38L19 38L19 37L20 37L20 36L22 36L22 35L23 35L23 36L25 36L25 37L24 37L24 38L21 38L21 40L22 40L22 39L24 39L24 38L25 38L25 39L26 39L26 37L27 37L27 36L34 36L34 34L35 34L35 36L36 36L36 35L37 35L37 37L35 37L35 38L34 38L34 37L33 37L33 39L32 39L32 40L31 40L31 41L30 41L30 40L29 40L29 39L30 39L30 38L29 38L29 39L28 39L28 41L26 41L26 42L25 42L25 43L26 43L26 42L31 42L31 41L32 41L32 42L33 42L33 44L32 44L32 43L28 43L28 46L26 46L26 47L27 47L27 48L29 48L29 47L28 47L28 46L30 46L30 44L32 44L32 45L33 45L33 46L32 46L32 47L30 47L30 48L31 48L31 50L32 50L32 51L33 51L33 52L34 52L34 53L32 53L32 55L33 55L33 54L35 54L35 55L34 55L34 56L35 56L35 55L36 55L36 56L39 56L39 55L41 55L41 56L42 56L42 54L43 54L43 53L44 53L44 51L45 51L45 50L43 50L43 47L44 47L44 45L42 45L42 44L43 44L43 43L44 43L44 42L43 42L43 41L44 41L44 40L43 40L43 39L45 39L45 40L46 40L46 37L45 37L45 38L44 38L44 37L43 37L43 34L44 34L44 33L45 33L45 34L46 34L46 36L47 36L47 37L48 37L48 38L47 38L47 39L48 39L48 38L50 38L50 39L52 39L52 40L55 40L55 39L52 39L52 37L51 37L51 38L50 38L50 37L49 37L49 36L47 36L47 35L48 35L48 34L47 34L47 32L48 32L48 30L47 30L47 29L46 29L46 25L47 25L47 23L49 23L49 20L47 20L47 19L46 19L46 20L47 20L47 21L46 21L46 22L47 22L47 23L46 23L46 24L45 24L45 29L46 29L46 30L44 30L44 29L43 29L43 28L44 28L44 25L43 25L43 24L42 24L42 26L41 26L41 25L40 25L40 26L39 26L39 25L38 25L38 26L34 26L34 25L35 25L35 24L33 24L33 23L35 23L35 22L37 22L37 23L36 23L36 24L37 24L37 23L38 23L38 24L39 24L39 23L38 23L38 22L39 22L39 21L38 21L38 20L37 20L37 21L36 21L36 19L38 19L38 17L39 17L39 15L38 15L38 14ZM6 15L6 16L7 16L7 15ZM40 16L40 17L41 17L41 16ZM50 16L50 17L51 17L51 16ZM52 16L52 17L53 17L53 18L51 18L51 19L53 19L53 18L54 18L54 17L53 17L53 16ZM28 18L28 20L30 20L30 21L28 21L28 24L29 24L29 22L31 22L31 20L30 20L30 19L29 19L29 18ZM34 18L34 19L35 19L35 18ZM39 18L39 19L40 19L40 20L41 20L41 19L42 19L42 18ZM0 19L0 20L1 20L1 19ZM25 19L25 20L26 20L26 19ZM18 20L18 21L19 21L19 22L20 22L20 23L19 23L19 24L21 24L21 26L20 26L20 25L19 25L19 26L20 26L20 27L21 27L21 26L22 26L22 27L23 27L23 30L21 30L21 31L20 31L20 32L21 32L21 35L22 35L22 33L24 33L24 32L22 32L22 31L23 31L23 30L24 30L24 31L26 31L26 33L25 33L25 34L24 34L24 35L26 35L26 36L27 36L27 35L28 35L28 34L27 34L27 33L28 33L28 32L29 32L29 33L30 33L30 32L31 32L31 34L30 34L30 35L33 35L33 33L35 33L35 32L36 32L36 33L37 33L37 31L35 31L35 32L33 32L33 33L32 33L32 31L31 31L31 30L32 30L32 29L34 29L34 28L35 28L35 29L36 29L36 30L40 30L40 32L39 32L39 31L38 31L38 32L39 32L39 34L38 34L38 37L37 37L37 38L36 38L36 39L33 39L33 40L32 40L32 41L34 41L34 40L35 40L35 42L34 42L34 43L35 43L35 42L36 42L36 41L37 41L37 40L38 40L38 42L37 42L37 44L36 44L36 45L39 45L39 47L38 47L38 48L39 48L39 49L40 49L40 50L41 50L41 51L40 51L40 52L39 52L39 53L38 53L38 54L36 54L36 53L37 53L37 52L38 52L38 51L39 51L39 50L38 50L38 49L37 49L37 48L35 48L35 46L34 46L34 48L35 48L35 49L34 49L34 50L33 50L33 48L32 48L32 50L33 50L33 51L34 51L34 52L35 52L35 54L36 54L36 55L38 55L38 54L39 54L39 53L40 53L40 54L42 54L42 53L43 53L43 50L41 50L41 49L42 49L42 48L41 48L41 44L42 44L42 43L43 43L43 42L42 42L42 41L43 41L43 40L42 40L42 38L38 38L38 37L39 37L39 36L40 36L40 37L41 37L41 36L42 36L42 34L41 34L41 32L42 32L42 33L43 33L43 32L46 32L46 31L41 31L41 30L42 30L42 29L40 29L40 28L39 28L39 27L38 27L38 29L37 29L37 28L35 28L35 27L34 27L34 26L32 26L32 27L31 27L31 26L26 26L26 25L25 25L25 23L26 23L26 22L25 22L25 23L23 23L23 24L22 24L22 22L20 22L20 20ZM4 21L4 22L5 22L5 21ZM47 21L47 22L48 22L48 21ZM50 21L50 24L48 24L48 26L49 26L49 25L50 25L50 26L56 26L56 25L50 25L50 24L51 24L51 23L52 23L52 22L51 22L51 21ZM53 21L53 22L54 22L54 24L56 24L56 22L54 22L54 21ZM3 23L3 27L4 27L4 26L5 26L5 25L4 25L4 23ZM30 23L30 24L31 24L31 23ZM14 24L14 25L15 25L15 24ZM22 25L22 26L23 26L23 27L24 27L24 26L25 26L25 28L26 28L26 26L25 26L25 25ZM40 26L40 27L41 27L41 26ZM5 27L5 30L8 30L8 27ZM27 27L27 30L30 30L30 27ZM32 27L32 28L31 28L31 29L32 29L32 28L33 28L33 27ZM42 27L42 28L43 28L43 27ZM47 27L47 28L48 28L48 27ZM49 27L49 30L52 30L52 27ZM6 28L6 29L7 29L7 28ZM28 28L28 29L29 29L29 28ZM50 28L50 29L51 29L51 28ZM24 29L24 30L26 30L26 29ZM1 30L1 31L2 31L2 30ZM29 31L29 32L30 32L30 31ZM49 31L49 33L50 33L50 31ZM53 31L53 32L52 32L52 34L53 34L53 35L52 35L52 36L53 36L53 35L54 35L54 36L55 36L55 35L56 35L56 34L55 34L55 33L56 33L56 32L55 32L55 31ZM17 32L17 33L18 33L18 32ZM53 32L53 34L54 34L54 32ZM3 33L3 36L4 36L4 37L5 37L5 38L3 38L3 39L4 39L4 40L5 40L5 41L7 41L7 42L6 42L6 43L7 43L7 42L9 42L9 41L10 41L10 42L12 42L12 44L13 44L13 42L15 42L15 41L11 41L11 40L12 40L12 39L11 39L11 40L10 40L10 39L9 39L9 40L8 40L8 39L7 39L7 38L8 38L8 37L9 37L9 38L11 38L11 36L10 36L10 35L8 35L8 37L7 37L7 36L6 36L6 35L7 35L7 34L5 34L5 35L4 35L4 33ZM19 34L19 35L20 35L20 34ZM26 34L26 35L27 35L27 34ZM49 34L49 35L50 35L50 36L51 36L51 35L50 35L50 34ZM44 35L44 36L45 36L45 35ZM5 36L5 37L6 37L6 38L5 38L5 39L6 39L6 40L7 40L7 39L6 39L6 38L7 38L7 37L6 37L6 36ZM9 36L9 37L10 37L10 36ZM53 37L53 38L55 38L55 37ZM13 38L13 39L14 39L14 38ZM37 38L37 39L38 39L38 38ZM39 39L39 40L40 40L40 41L39 41L39 42L38 42L38 43L39 43L39 45L40 45L40 44L41 44L41 43L42 43L42 42L41 42L41 43L39 43L39 42L40 42L40 41L41 41L41 39ZM54 41L54 42L56 42L56 41ZM46 42L46 43L47 43L47 45L49 45L49 43L50 43L50 47L51 47L51 42ZM52 43L52 45L53 45L53 43ZM25 44L25 45L27 45L27 44ZM33 44L33 45L34 45L34 44ZM55 44L55 45L54 45L54 46L56 46L56 48L57 48L57 45L56 45L56 44ZM19 47L19 49L20 49L20 50L21 50L21 49L20 49L20 47ZM24 48L24 49L22 49L22 51L21 51L21 52L22 52L22 55L23 55L23 56L24 56L24 55L25 55L25 54L23 54L23 53L24 53L24 52L23 52L23 50L24 50L24 51L26 51L26 49L25 49L25 48ZM53 48L53 54L55 54L55 53L54 53L54 52L55 52L55 49L54 49L54 48ZM27 49L27 52L30 52L30 49ZM36 49L36 50L35 50L35 52L36 52L36 51L38 51L38 50L37 50L37 49ZM49 49L49 52L52 52L52 49ZM28 50L28 51L29 51L29 50ZM46 50L46 51L47 51L47 50ZM50 50L50 51L51 51L51 50ZM41 51L41 52L40 52L40 53L42 53L42 51ZM19 52L19 53L18 53L18 54L19 54L19 53L20 53L20 52ZM25 52L25 53L26 53L26 54L27 54L27 53L26 53L26 52ZM47 52L47 53L48 53L48 54L50 54L50 56L51 56L51 54L52 54L52 53L48 53L48 52ZM10 53L10 54L11 54L11 53ZM29 54L29 56L30 56L30 55L31 55L31 54ZM47 55L47 56L48 56L48 55ZM18 56L18 57L19 57L19 56ZM55 56L55 57L56 57L56 56ZM0 0L0 7L7 7L7 0ZM1 1L1 6L6 6L6 1ZM2 2L2 5L5 5L5 2ZM50 0L50 7L57 7L57 0ZM51 1L51 6L56 6L56 1ZM52 2L52 5L55 5L55 2ZM0 50L0 57L7 57L7 50ZM1 51L1 56L6 56L6 51ZM2 52L2 55L5 55L5 52Z" fill="#000000"/></g></g></svg>
