<?xml version="1.0" encoding="UTF-8"?>
<svg xmlns="http://www.w3.org/2000/svg" version="1.1" width="300" height="300" viewBox="0 0 300 300"><rect x="0" y="0" width="300" height="300" fill="#fefefe"/><g transform="scale(4.615)"><g transform="translate(4,4)"><path fill-rule="evenodd" d="M10 0L10 2L11 2L11 3L8 3L8 4L9 4L9 5L8 5L8 7L9 7L9 8L6 8L6 9L7 9L7 10L5 10L5 8L0 8L0 9L1 9L1 10L0 10L0 12L1 12L1 13L0 13L0 14L1 14L1 15L0 15L0 16L2 16L2 17L1 17L1 18L0 18L0 19L2 19L2 21L0 21L0 24L1 24L1 25L0 25L0 27L3 27L3 28L2 28L2 29L4 29L4 30L3 30L3 31L1 31L1 28L0 28L0 32L4 32L4 33L2 33L2 36L1 36L1 33L0 33L0 37L2 37L2 38L0 38L0 39L2 39L2 38L3 38L3 40L0 40L0 42L1 42L1 41L3 41L3 42L2 42L2 43L0 43L0 48L5 48L5 47L7 47L7 48L6 48L6 49L7 49L7 48L8 48L8 46L9 46L9 45L7 45L7 44L10 44L10 46L11 46L11 47L9 47L9 49L8 49L8 51L10 51L10 50L9 50L9 49L10 49L10 48L11 48L11 49L13 49L13 48L14 48L14 46L13 46L13 48L11 48L11 47L12 47L12 46L11 46L11 44L12 44L12 43L14 43L14 41L12 41L12 40L14 40L14 39L15 39L15 41L17 41L17 42L18 42L18 43L16 43L16 44L18 44L18 45L17 45L17 48L15 48L15 49L19 49L19 50L16 50L16 51L15 51L15 50L13 50L13 52L12 52L12 50L11 50L11 53L13 53L13 52L14 52L14 51L15 51L15 53L14 53L14 54L13 54L13 55L12 55L12 54L11 54L11 57L13 57L13 56L14 56L14 55L16 55L16 56L15 56L15 57L16 57L16 56L17 56L17 57L19 57L19 55L20 55L20 54L19 54L19 53L20 53L20 52L21 52L21 53L22 53L22 56L24 56L24 57L26 57L26 56L27 56L27 57L29 57L29 56L30 56L30 57L31 57L31 56L35 56L35 57L39 57L39 56L40 56L40 55L41 55L41 56L42 56L42 55L43 55L43 57L44 57L44 54L45 54L45 53L44 53L44 52L45 52L45 50L44 50L44 51L43 51L43 49L44 49L44 48L46 48L46 47L47 47L47 48L48 48L48 49L47 49L47 50L48 50L48 54L47 54L47 55L48 55L48 56L50 56L50 57L52 57L52 55L51 55L51 53L52 53L52 54L54 54L54 53L55 53L55 52L57 52L57 51L56 51L56 50L55 50L55 49L54 49L54 48L56 48L56 49L57 49L57 48L56 48L56 46L57 46L57 45L56 45L56 46L55 46L55 45L54 45L54 44L55 44L55 43L56 43L56 44L57 44L57 43L56 43L56 42L55 42L55 39L57 39L57 37L56 37L56 36L55 36L55 35L56 35L56 34L57 34L57 32L56 32L56 30L57 30L57 29L56 29L56 28L57 28L57 27L56 27L56 26L57 26L57 25L56 25L56 22L57 22L57 21L56 21L56 20L55 20L55 19L56 19L56 18L57 18L57 17L56 17L56 16L57 16L57 15L56 15L56 14L57 14L57 12L56 12L56 8L55 8L55 10L54 10L54 11L51 11L51 10L52 10L52 8L51 8L51 10L49 10L49 9L50 9L50 8L49 8L49 6L48 6L48 7L47 7L47 5L48 5L48 0L45 0L45 2L44 2L44 3L43 3L43 4L40 4L40 5L39 5L39 6L38 6L38 7L37 7L37 5L38 5L38 4L37 4L37 3L36 3L36 0L35 0L35 1L33 1L33 0L32 0L32 1L31 1L31 0L29 0L29 1L25 1L25 0L23 0L23 2L22 2L22 0L21 0L21 3L23 3L23 4L22 4L22 5L23 5L23 6L22 6L22 8L23 8L23 6L24 6L24 9L23 9L23 10L22 10L22 11L21 11L21 12L20 12L20 13L19 13L19 10L20 10L20 9L19 9L19 8L21 8L21 4L19 4L19 3L20 3L20 0L17 0L17 1L15 1L15 0L14 0L14 2L13 2L13 0L12 0L12 2L11 2L11 0ZM37 0L37 1L38 1L38 3L41 3L41 2L43 2L43 0L41 0L41 1L40 1L40 0L39 0L39 1L38 1L38 0ZM8 1L8 2L9 2L9 1ZM29 1L29 2L23 2L23 3L26 3L26 4L25 4L25 8L26 8L26 4L31 4L31 8L32 8L32 10L31 10L31 11L29 11L29 12L28 12L28 13L27 13L27 14L26 14L26 12L27 12L27 11L26 11L26 12L25 12L25 10L24 10L24 13L22 13L22 12L21 12L21 13L20 13L20 15L18 15L18 16L20 16L20 18L19 18L19 17L15 17L15 16L14 16L14 15L13 15L13 14L15 14L15 13L16 13L16 16L17 16L17 13L18 13L18 12L17 12L17 13L16 13L16 12L15 12L15 13L13 13L13 14L12 14L12 12L14 12L14 11L12 11L12 12L11 12L11 11L10 11L10 9L9 9L9 11L8 11L8 10L7 10L7 11L6 11L6 12L5 12L5 13L4 13L4 14L3 14L3 13L1 13L1 14L3 14L3 15L2 15L2 16L3 16L3 18L2 18L2 19L4 19L4 17L5 17L5 20L7 20L7 21L6 21L6 22L5 22L5 23L4 23L4 24L8 24L8 25L5 25L5 26L8 26L8 25L9 25L9 26L10 26L10 23L11 23L11 22L10 22L10 20L9 20L9 18L10 18L10 19L11 19L11 20L12 20L12 18L13 18L13 19L14 19L14 20L13 20L13 21L12 21L12 23L13 23L13 21L14 21L14 23L15 23L15 24L14 24L14 25L12 25L12 24L11 24L11 25L12 25L12 26L11 26L11 27L10 27L10 29L9 29L9 30L10 30L10 31L4 31L4 32L5 32L5 33L6 33L6 34L8 34L8 35L6 35L6 36L5 36L5 35L4 35L4 34L3 34L3 35L4 35L4 37L3 37L3 38L5 38L5 39L4 39L4 40L5 40L5 41L4 41L4 42L5 42L5 43L2 43L2 44L4 44L4 45L3 45L3 47L5 47L5 46L7 46L7 45L6 45L6 44L7 44L7 43L6 43L6 42L8 42L8 43L9 43L9 42L8 42L8 41L11 41L11 43L12 43L12 41L11 41L11 40L10 40L10 38L11 38L11 37L10 37L10 36L13 36L13 37L12 37L12 39L14 39L14 38L15 38L15 39L16 39L16 40L17 40L17 41L18 41L18 42L19 42L19 43L20 43L20 47L18 47L18 48L20 48L20 50L21 50L21 49L23 49L23 47L21 47L21 45L22 45L22 46L23 46L23 45L22 45L22 44L21 44L21 43L22 43L22 42L23 42L23 43L27 43L27 44L24 44L24 45L25 45L25 47L26 47L26 48L30 48L30 47L28 47L28 46L29 46L29 45L30 45L30 46L31 46L31 45L30 45L30 44L28 44L28 43L29 43L29 42L30 42L30 41L27 41L27 40L26 40L26 39L25 39L25 40L24 40L24 39L22 39L22 40L19 40L19 41L18 41L18 40L17 40L17 39L18 39L18 37L17 37L17 36L19 36L19 37L23 37L23 38L24 38L24 37L23 37L23 36L24 36L24 34L23 34L23 33L25 33L25 34L26 34L26 31L24 31L24 30L23 30L23 26L22 26L22 27L21 27L21 25L24 25L24 24L25 24L25 25L26 25L26 26L25 26L25 27L24 27L24 28L25 28L25 29L26 29L26 28L25 28L25 27L26 27L26 26L27 26L27 25L28 25L28 26L30 26L30 25L29 25L29 24L30 24L30 23L31 23L31 24L32 24L32 26L31 26L31 28L32 28L32 29L33 29L33 30L32 30L32 33L31 33L31 31L30 31L30 32L29 32L29 31L27 31L27 35L26 35L26 36L27 36L27 37L25 37L25 38L27 38L27 39L28 39L28 40L32 40L32 41L31 41L31 42L32 42L32 43L33 43L33 44L32 44L32 45L33 45L33 46L32 46L32 47L31 47L31 48L32 48L32 49L31 49L31 50L32 50L32 49L33 49L33 50L34 50L34 51L35 51L35 50L36 50L36 52L37 52L37 51L38 51L38 50L41 50L41 52L40 52L40 51L39 51L39 52L38 52L38 53L37 53L37 54L40 54L40 53L42 53L42 52L43 52L43 51L42 51L42 50L41 50L41 48L42 48L42 49L43 49L43 48L44 48L44 47L45 47L45 46L47 46L47 47L48 47L48 48L49 48L49 47L48 47L48 46L50 46L50 47L51 47L51 48L53 48L53 47L55 47L55 46L54 46L54 45L52 45L52 44L53 44L53 43L54 43L54 42L53 42L53 41L54 41L54 40L53 40L53 41L51 41L51 42L50 42L50 43L49 43L49 42L48 42L48 41L49 41L49 40L50 40L50 39L53 39L53 35L55 35L55 34L56 34L56 32L54 32L54 31L55 31L55 28L56 28L56 27L55 27L55 28L54 28L54 30L53 30L53 31L50 31L50 32L49 32L49 31L48 31L48 28L47 28L47 29L46 29L46 30L47 30L47 31L48 31L48 32L43 32L43 31L45 31L45 28L46 28L46 27L47 27L47 25L46 25L46 24L47 24L47 23L46 23L46 22L47 22L47 21L48 21L48 20L47 20L47 19L46 19L46 18L47 18L47 17L46 17L46 16L47 16L47 15L44 15L44 14L47 14L47 13L49 13L49 12L50 12L50 14L49 14L49 15L48 15L48 16L49 16L49 15L50 15L50 16L51 16L51 17L50 17L50 19L52 19L52 20L51 20L51 21L49 21L49 23L48 23L48 24L50 24L50 26L51 26L51 25L55 25L55 26L56 26L56 25L55 25L55 24L53 24L53 23L55 23L55 22L56 22L56 21L55 21L55 20L53 20L53 19L52 19L52 18L51 18L51 17L53 17L53 18L55 18L55 17L54 17L54 16L53 16L53 15L52 15L52 16L51 16L51 15L50 15L50 14L51 14L51 12L50 12L50 11L48 11L48 10L47 10L47 9L49 9L49 8L45 8L45 7L46 7L46 6L45 6L45 5L47 5L47 3L44 3L44 6L43 6L43 5L40 5L40 6L39 6L39 7L40 7L40 8L39 8L39 9L38 9L38 8L37 8L37 7L36 7L36 5L37 5L37 4L36 4L36 5L35 5L35 3L34 3L34 4L33 4L33 3L32 3L32 2L33 2L33 1L32 1L32 2L30 2L30 1ZM46 1L46 2L47 2L47 1ZM14 2L14 4L13 4L13 3L11 3L11 4L10 4L10 6L9 6L9 7L10 7L10 8L12 8L12 10L15 10L15 11L18 11L18 9L16 9L16 8L19 8L19 7L20 7L20 5L18 5L18 6L17 6L17 3L18 3L18 2L17 2L17 3L16 3L16 2ZM31 3L31 4L32 4L32 5L33 5L33 6L32 6L32 7L33 7L33 9L34 9L34 8L35 8L35 9L37 9L37 10L36 10L36 11L37 11L37 12L35 12L35 13L37 13L37 14L38 14L38 15L39 15L39 16L38 16L38 17L37 17L37 16L35 16L35 14L33 14L33 13L34 13L34 12L33 12L33 10L32 10L32 11L31 11L31 13L30 13L30 14L29 14L29 13L28 13L28 14L29 14L29 16L28 16L28 15L27 15L27 16L28 16L28 17L27 17L27 18L25 18L25 17L26 17L26 14L25 14L25 13L24 13L24 14L22 14L22 13L21 13L21 15L20 15L20 16L21 16L21 17L22 17L22 18L21 18L21 21L22 21L22 22L24 22L24 21L25 21L25 22L26 22L26 23L25 23L25 24L27 24L27 23L30 23L30 22L31 22L31 21L32 21L32 20L33 20L33 21L34 21L34 20L35 20L35 23L32 23L32 24L33 24L33 25L37 25L37 26L38 26L38 25L39 25L39 24L37 24L37 22L38 22L38 20L41 20L41 21L39 21L39 22L40 22L40 24L41 24L41 22L42 22L42 23L43 23L43 25L40 25L40 26L39 26L39 27L37 27L37 28L36 28L36 26L34 26L34 27L33 27L33 26L32 26L32 27L33 27L33 28L35 28L35 30L33 30L33 32L34 32L34 33L35 33L35 34L37 34L37 36L35 36L35 35L34 35L34 34L31 34L31 33L29 33L29 32L28 32L28 33L29 33L29 34L30 34L30 36L29 36L29 37L31 37L31 38L29 38L29 39L33 39L33 40L35 40L35 42L37 42L37 43L34 43L34 42L33 42L33 41L32 41L32 42L33 42L33 43L34 43L34 45L35 45L35 46L33 46L33 47L32 47L32 48L33 48L33 47L35 47L35 46L36 46L36 48L35 48L35 49L36 49L36 50L38 50L38 49L39 49L39 48L41 48L41 46L43 46L43 47L42 47L42 48L43 48L43 47L44 47L44 46L43 46L43 45L44 45L44 44L43 44L43 43L44 43L44 42L45 42L45 43L46 43L46 44L45 44L45 45L47 45L47 46L48 46L48 45L47 45L47 43L48 43L48 42L47 42L47 43L46 43L46 42L45 42L45 41L44 41L44 40L45 40L45 39L46 39L46 41L47 41L47 39L50 39L50 38L51 38L51 37L52 37L52 35L53 35L53 34L52 34L52 33L54 33L54 34L55 34L55 33L54 33L54 32L52 32L52 33L51 33L51 32L50 32L50 34L49 34L49 35L50 35L50 36L48 36L48 37L47 37L47 39L46 39L46 38L45 38L45 37L46 37L46 36L45 36L45 35L47 35L47 34L45 34L45 33L43 33L43 32L41 32L41 33L39 33L39 34L40 34L40 35L39 35L39 37L40 37L40 38L41 38L41 39L38 39L38 40L35 40L35 39L37 39L37 38L38 38L38 37L37 37L37 36L38 36L38 33L37 33L37 32L34 32L34 31L35 31L35 30L37 30L37 29L38 29L38 28L40 28L40 26L43 26L43 25L44 25L44 20L45 20L45 18L44 18L44 15L42 15L42 16L41 16L41 14L44 14L44 11L45 11L45 12L47 12L47 10L46 10L46 9L44 9L44 7L45 7L45 6L44 6L44 7L43 7L43 6L42 6L42 7L41 7L41 6L40 6L40 7L41 7L41 10L39 10L39 11L38 11L38 9L37 9L37 8L35 8L35 5L33 5L33 4L32 4L32 3ZM11 4L11 6L10 6L10 7L11 7L11 6L12 6L12 7L13 7L13 9L14 9L14 8L16 8L16 7L17 7L17 6L16 6L16 7L15 7L15 6L14 6L14 5L13 5L13 4ZM15 4L15 5L16 5L16 4ZM23 4L23 5L24 5L24 4ZM12 5L12 6L13 6L13 7L14 7L14 6L13 6L13 5ZM27 5L27 8L30 8L30 5ZM18 6L18 7L19 7L19 6ZM28 6L28 7L29 7L29 6ZM33 6L33 7L34 7L34 6ZM42 8L42 9L43 9L43 11L41 11L41 12L40 12L40 11L39 11L39 13L38 13L38 14L39 14L39 15L40 15L40 14L41 14L41 13L43 13L43 11L44 11L44 9L43 9L43 8ZM53 8L53 9L54 9L54 8ZM3 9L3 11L2 11L2 10L1 10L1 12L4 12L4 11L5 11L5 10L4 10L4 9ZM45 10L45 11L46 11L46 10ZM7 11L7 12L6 12L6 13L5 13L5 14L4 14L4 16L5 16L5 15L8 15L8 14L6 14L6 13L7 13L7 12L8 12L8 13L9 13L9 14L10 14L10 16L9 16L9 17L13 17L13 18L15 18L15 21L16 21L16 22L15 22L15 23L16 23L16 24L15 24L15 25L14 25L14 26L13 26L13 27L15 27L15 25L16 25L16 24L17 24L17 27L16 27L16 29L15 29L15 28L13 28L13 29L11 29L11 31L10 31L10 32L11 32L11 33L12 33L12 34L11 34L11 35L13 35L13 36L15 36L15 33L16 33L16 32L15 32L15 31L16 31L16 29L18 29L18 30L20 30L20 31L18 31L18 32L17 32L17 33L18 33L18 34L17 34L17 35L16 35L16 36L17 36L17 35L19 35L19 34L20 34L20 36L22 36L22 35L21 35L21 34L22 34L22 33L21 33L21 34L20 34L20 31L21 31L21 32L23 32L23 31L21 31L21 30L20 30L20 29L18 29L18 28L17 28L17 27L18 27L18 26L19 26L19 28L21 28L21 29L22 29L22 28L21 28L21 27L20 27L20 26L19 26L19 25L21 25L21 24L24 24L24 23L21 23L21 24L18 24L18 23L20 23L20 22L19 22L19 21L20 21L20 20L18 20L18 19L19 19L19 18L15 18L15 17L13 17L13 16L12 16L12 14L11 14L11 13L10 13L10 11L9 11L9 12L8 12L8 11ZM32 12L32 13L31 13L31 14L30 14L30 15L31 15L31 16L32 16L32 17L31 17L31 18L30 18L30 20L29 20L29 19L28 19L28 18L27 18L27 19L26 19L26 20L25 20L25 21L29 21L29 22L30 22L30 21L31 21L31 18L32 18L32 19L36 19L36 20L37 20L37 19L39 19L39 17L41 17L41 16L39 16L39 17L38 17L38 18L37 18L37 17L35 17L35 16L33 16L33 15L31 15L31 14L32 14L32 13L33 13L33 12ZM52 12L52 13L53 13L53 14L56 14L56 12L54 12L54 13L53 13L53 12ZM24 14L24 15L21 15L21 16L22 16L22 17L25 17L25 16L24 16L24 15L25 15L25 14ZM6 16L6 17L7 17L7 18L6 18L6 19L7 19L7 20L8 20L8 17L7 17L7 16ZM42 16L42 17L43 17L43 16ZM22 18L22 21L24 21L24 20L23 20L23 19L24 19L24 18ZM41 18L41 19L42 19L42 20L44 20L44 18L43 18L43 19L42 19L42 18ZM48 18L48 19L49 19L49 18ZM16 20L16 21L17 21L17 20ZM46 20L46 21L45 21L45 22L46 22L46 21L47 21L47 20ZM3 21L3 22L1 22L1 23L3 23L3 22L4 22L4 21ZM7 21L7 22L6 22L6 23L10 23L10 22L8 22L8 21ZM51 21L51 22L50 22L50 23L53 23L53 21ZM45 23L45 24L46 24L46 23ZM2 24L2 26L3 26L3 27L4 27L4 25L3 25L3 24ZM44 26L44 27L43 27L43 29L39 29L39 30L38 30L38 32L39 32L39 31L41 31L41 30L44 30L44 28L45 28L45 27L46 27L46 26ZM53 26L53 27L54 27L54 26ZM5 27L5 30L8 30L8 27ZM11 27L11 28L12 28L12 27ZM27 27L27 30L30 30L30 27ZM41 27L41 28L42 28L42 27ZM49 27L49 30L52 30L52 27ZM6 28L6 29L7 29L7 28ZM28 28L28 29L29 29L29 28ZM50 28L50 29L51 29L51 28ZM13 29L13 30L12 30L12 31L13 31L13 35L14 35L14 33L15 33L15 32L14 32L14 31L13 31L13 30L14 30L14 29ZM6 32L6 33L9 33L9 35L8 35L8 36L10 36L10 33L9 33L9 32ZM48 32L48 33L49 33L49 32ZM42 34L42 35L41 35L41 36L40 36L40 37L41 37L41 36L44 36L44 37L43 37L43 38L42 38L42 39L41 39L41 40L38 40L38 42L39 42L39 43L41 43L41 44L39 44L39 45L38 45L38 46L39 46L39 47L38 47L38 48L37 48L37 49L38 49L38 48L39 48L39 47L40 47L40 46L41 46L41 44L42 44L42 42L41 42L41 40L44 40L44 39L45 39L45 38L44 38L44 37L45 37L45 36L44 36L44 35L45 35L45 34ZM50 34L50 35L52 35L52 34ZM6 36L6 37L5 37L5 38L6 38L6 39L5 39L5 40L6 40L6 41L7 41L7 40L6 40L6 39L8 39L8 40L9 40L9 37L8 37L8 38L6 38L6 37L7 37L7 36ZM32 36L32 37L33 37L33 39L34 39L34 38L35 38L35 36ZM50 36L50 37L48 37L48 38L50 38L50 37L51 37L51 36ZM13 37L13 38L14 38L14 37ZM15 37L15 38L16 38L16 37ZM27 37L27 38L28 38L28 37ZM54 37L54 38L55 38L55 37ZM19 38L19 39L20 39L20 38ZM19 41L19 42L20 42L20 41ZM21 41L21 42L22 42L22 41ZM23 41L23 42L25 42L25 41ZM26 41L26 42L27 42L27 41ZM39 41L39 42L40 42L40 41ZM43 41L43 42L44 42L44 41ZM51 42L51 43L50 43L50 44L51 44L51 43L53 43L53 42ZM14 44L14 45L15 45L15 44ZM27 44L27 45L26 45L26 47L27 47L27 45L28 45L28 44ZM4 45L4 46L5 46L5 45ZM50 45L50 46L51 46L51 45ZM1 46L1 47L2 47L2 46ZM52 46L52 47L53 47L53 46ZM24 48L24 49L25 49L25 50L22 50L22 51L21 51L21 52L22 52L22 53L24 53L24 54L23 54L23 55L24 55L24 56L26 56L26 54L27 54L27 56L29 56L29 55L30 55L30 56L31 56L31 54L32 54L32 53L33 53L33 54L35 54L35 56L36 56L36 54L35 54L35 53L33 53L33 52L32 52L32 51L31 51L31 53L30 53L30 54L27 54L27 53L26 53L26 54L25 54L25 53L24 53L24 52L26 52L26 51L25 51L25 50L26 50L26 49L25 49L25 48ZM27 49L27 52L30 52L30 49ZM49 49L49 52L52 52L52 49ZM28 50L28 51L29 51L29 50ZM50 50L50 51L51 51L51 50ZM54 50L54 51L55 51L55 50ZM16 51L16 53L15 53L15 54L16 54L16 53L17 53L17 52L20 52L20 51ZM22 51L22 52L23 52L23 51ZM46 51L46 53L47 53L47 51ZM8 52L8 57L9 57L9 56L10 56L10 52ZM53 52L53 53L54 53L54 52ZM43 53L43 54L44 54L44 53ZM41 54L41 55L42 55L42 54ZM37 55L37 56L39 56L39 55ZM50 55L50 56L51 56L51 55ZM53 55L53 56L55 56L55 57L56 57L56 56L55 56L55 55ZM45 56L45 57L46 57L46 56ZM0 0L0 7L7 7L7 0ZM1 1L1 6L6 6L6 1ZM2 2L2 5L5 5L5 2ZM50 0L50 7L57 7L57 0ZM51 1L51 6L56 6L56 1ZM52 2L52 5L55 5L55 2ZM0 50L0 57L7 57L7 50ZM1 51L1 56L6 56L6 51ZM2 52L2 55L5 55L5 52Z" fill="#000000"/></g></g></svg>
