<?xml version="1.0" encoding="UTF-8"?>
<svg xmlns="http://www.w3.org/2000/svg" version="1.1" width="300" height="300" viewBox="0 0 300 300"><rect x="0" y="0" width="300" height="300" fill="#fefefe"/><g transform="scale(4.615)"><g transform="translate(4,4)"><path fill-rule="evenodd" d="M9 0L9 1L8 1L8 2L9 2L9 3L8 3L8 4L9 4L9 5L8 5L8 7L9 7L9 5L10 5L10 4L9 4L9 3L10 3L10 1L11 1L11 3L13 3L13 4L11 4L11 6L10 6L10 8L12 8L12 7L13 7L13 9L14 9L14 7L15 7L15 9L18 9L18 11L17 11L17 10L12 10L12 9L9 9L9 8L6 8L6 9L5 9L5 8L0 8L0 13L1 13L1 14L2 14L2 15L1 15L1 16L0 16L0 18L1 18L1 19L2 19L2 23L3 23L3 24L5 24L5 25L7 25L7 26L4 26L4 25L3 25L3 26L4 26L4 27L3 27L3 28L2 28L2 29L3 29L3 30L4 30L4 31L5 31L5 32L3 32L3 33L2 33L2 30L0 30L0 32L1 32L1 33L2 33L2 34L1 34L1 35L0 35L0 36L2 36L2 35L3 35L3 37L5 37L5 36L6 36L6 37L7 37L7 38L4 38L4 40L3 40L3 38L2 38L2 39L1 39L1 38L0 38L0 42L1 42L1 44L2 44L2 43L4 43L4 42L5 42L5 44L6 44L6 45L7 45L7 46L5 46L5 47L3 47L3 46L2 46L2 47L1 47L1 45L0 45L0 48L5 48L5 47L7 47L7 46L8 46L8 51L9 51L9 52L8 52L8 57L9 57L9 55L10 55L10 51L9 51L9 49L10 49L10 50L11 50L11 51L12 51L12 50L13 50L13 53L12 53L12 52L11 52L11 53L12 53L12 54L13 54L13 53L14 53L14 54L15 54L15 55L14 55L14 56L15 56L15 57L16 57L16 56L17 56L17 57L20 57L20 56L19 56L19 55L20 55L20 54L19 54L19 53L20 53L20 52L23 52L23 51L22 51L22 50L25 50L25 51L26 51L26 52L24 52L24 53L23 53L23 54L22 54L22 53L21 53L21 54L22 54L22 56L24 56L24 57L26 57L26 56L27 56L27 57L29 57L29 56L30 56L30 57L31 57L31 56L35 56L35 57L39 57L39 56L42 56L42 55L43 55L43 57L44 57L44 54L45 54L45 55L46 55L46 56L47 56L47 55L49 55L49 56L50 56L50 57L52 57L52 55L51 55L51 53L52 53L52 54L53 54L53 57L54 57L54 56L55 56L55 57L56 57L56 56L55 56L55 54L53 54L53 52L54 52L54 53L55 53L55 51L54 51L54 50L57 50L57 48L56 48L56 46L57 46L57 43L56 43L56 42L57 42L57 41L56 41L56 42L55 42L55 39L57 39L57 37L55 37L55 36L57 36L57 35L56 35L56 34L55 34L55 32L56 32L56 33L57 33L57 32L56 32L56 30L57 30L57 27L55 27L55 26L57 26L57 25L56 25L56 22L57 22L57 19L56 19L56 18L52 18L52 19L50 19L50 16L53 16L53 17L56 17L56 16L57 16L57 15L56 15L56 14L57 14L57 13L56 13L56 12L55 12L55 11L56 11L56 10L54 10L54 11L53 11L53 9L54 9L54 8L53 8L53 9L52 9L52 8L51 8L51 11L50 11L50 12L49 12L49 13L47 13L47 14L45 14L45 13L44 13L44 12L43 12L43 13L41 13L41 14L45 14L45 16L48 16L48 17L47 17L47 18L46 18L46 17L45 17L45 18L44 18L44 15L42 15L42 16L41 16L41 15L39 15L39 14L38 14L38 13L40 13L40 12L41 12L41 10L42 10L42 11L45 11L45 12L47 12L47 10L50 10L50 8L48 8L48 7L49 7L49 6L48 6L48 7L47 7L47 5L48 5L48 0L45 0L45 1L47 1L47 2L44 2L44 3L43 3L43 4L42 4L42 2L43 2L43 0L41 0L41 1L40 1L40 0L39 0L39 1L38 1L38 0L37 0L37 1L38 1L38 2L39 2L39 3L36 3L36 0L35 0L35 1L32 1L32 0L30 0L30 1L29 1L29 0L28 0L28 1L25 1L25 0L23 0L23 2L22 2L22 3L23 3L23 4L24 4L24 5L21 5L21 4L19 4L19 1L18 1L18 0L17 0L17 1L18 1L18 2L15 2L15 0L14 0L14 2L13 2L13 0ZM21 0L21 1L20 1L20 3L21 3L21 1L22 1L22 0ZM28 1L28 2L23 2L23 3L26 3L26 4L25 4L25 8L24 8L24 6L23 6L23 8L19 8L19 7L20 7L20 5L19 5L19 4L17 4L17 3L15 3L15 2L14 2L14 4L13 4L13 5L12 5L12 6L11 6L11 7L12 7L12 6L13 6L13 7L14 7L14 5L15 5L15 7L16 7L16 8L19 8L19 9L20 9L20 11L19 11L19 12L20 12L20 15L19 15L19 16L20 16L20 19L19 19L19 17L16 17L16 16L18 16L18 14L17 14L17 13L18 13L18 12L17 12L17 11L16 11L16 12L15 12L15 13L10 13L10 16L9 16L9 13L8 13L8 15L6 15L6 14L7 14L7 13L6 13L6 12L8 12L8 11L6 11L6 10L7 10L7 9L6 9L6 10L4 10L4 9L3 9L3 10L4 10L4 11L2 11L2 9L1 9L1 11L2 11L2 12L1 12L1 13L2 13L2 14L3 14L3 16L1 16L1 18L2 18L2 17L3 17L3 18L5 18L5 19L6 19L6 20L5 20L5 22L4 22L4 21L3 21L3 23L5 23L5 24L9 24L9 21L11 21L11 19L10 19L10 18L12 18L12 19L14 19L14 20L12 20L12 24L10 24L10 26L9 26L9 27L10 27L10 29L9 29L9 30L10 30L10 29L11 29L11 27L10 27L10 26L11 26L11 25L12 25L12 26L14 26L14 29L13 29L13 27L12 27L12 30L14 30L14 32L12 32L12 31L11 31L11 32L12 32L12 38L10 38L10 37L11 37L11 36L10 36L10 37L9 37L9 33L10 33L10 34L11 34L11 33L10 33L10 31L8 31L8 32L9 32L9 33L8 33L8 34L7 34L7 33L6 33L6 34L5 34L5 33L4 33L4 34L3 34L3 35L4 35L4 34L5 34L5 35L6 35L6 36L8 36L8 37L9 37L9 38L8 38L8 39L6 39L6 40L4 40L4 41L1 41L1 42L4 42L4 41L5 41L5 42L7 42L7 43L6 43L6 44L7 44L7 43L8 43L8 46L9 46L9 48L11 48L11 47L13 47L13 48L12 48L12 49L11 49L11 50L12 50L12 49L13 49L13 48L15 48L15 47L14 47L14 46L17 46L17 48L19 48L19 47L18 47L18 46L17 46L17 45L18 45L18 44L17 44L17 45L16 45L16 43L15 43L15 42L17 42L17 43L18 43L18 42L19 42L19 41L20 41L20 42L21 42L21 43L20 43L20 44L19 44L19 45L20 45L20 51L21 51L21 49L23 49L23 47L24 47L24 49L25 49L25 50L26 50L26 49L25 49L25 47L26 47L26 48L27 48L27 47L28 47L28 48L30 48L30 47L28 47L28 46L30 46L30 45L31 45L31 48L32 48L32 49L31 49L31 50L32 50L32 51L31 51L31 53L30 53L30 54L27 54L27 53L24 53L24 54L23 54L23 55L24 55L24 56L25 56L25 54L26 54L26 55L27 55L27 56L29 56L29 55L30 55L30 56L31 56L31 54L32 54L32 53L33 53L33 55L35 55L35 56L36 56L36 54L35 54L35 53L33 53L33 52L32 52L32 51L33 51L33 50L36 50L36 52L38 52L38 54L40 54L40 53L43 53L43 54L44 54L44 53L45 53L45 54L46 54L46 55L47 55L47 53L48 53L48 50L47 50L47 49L48 49L48 48L49 48L49 47L51 47L51 48L53 48L53 46L54 46L54 47L55 47L55 46L56 46L56 43L55 43L55 44L54 44L54 45L52 45L52 44L53 44L53 43L54 43L54 42L53 42L53 41L54 41L54 40L53 40L53 41L51 41L51 42L50 42L50 43L49 43L49 42L48 42L48 41L49 41L49 39L47 39L47 37L48 37L48 36L50 36L50 39L51 39L51 38L52 38L52 39L54 39L54 38L53 38L53 35L55 35L55 34L54 34L54 33L52 33L52 32L53 32L53 31L50 31L50 32L49 32L49 31L48 31L48 28L47 28L47 29L46 29L46 30L47 30L47 31L46 31L46 33L45 33L45 32L43 32L43 31L45 31L45 28L46 28L46 27L48 27L48 26L47 26L47 25L50 25L50 26L51 26L51 25L52 25L52 26L53 26L53 27L54 27L54 26L53 26L53 25L54 25L54 24L53 24L53 23L50 23L50 22L51 22L51 21L54 21L54 22L56 22L56 21L55 21L55 20L56 20L56 19L55 19L55 20L53 20L53 19L52 19L52 20L51 20L51 21L49 21L49 18L47 18L47 20L46 20L46 18L45 18L45 20L44 20L44 18L43 18L43 20L42 20L42 21L43 21L43 20L44 20L44 23L42 23L42 24L39 24L39 23L40 23L40 22L39 22L39 21L41 21L41 20L39 20L39 21L38 21L38 19L39 19L39 17L41 17L41 16L39 16L39 15L38 15L38 14L37 14L37 13L36 13L36 14L37 14L37 15L35 15L35 16L32 16L32 14L35 14L35 11L36 11L36 10L37 10L37 11L39 11L39 12L40 12L40 10L41 10L41 9L43 9L43 7L44 7L44 6L45 6L45 8L44 8L44 10L45 10L45 11L46 11L46 10L47 10L47 9L48 9L48 8L47 8L47 7L46 7L46 6L45 6L45 4L46 4L46 5L47 5L47 3L44 3L44 6L43 6L43 7L42 7L42 5L40 5L40 4L41 4L41 3L39 3L39 4L38 4L38 6L37 6L37 7L36 7L36 5L37 5L37 4L36 4L36 5L35 5L35 3L32 3L32 2L31 2L31 1L30 1L30 2L29 2L29 1ZM28 2L28 3L29 3L29 2ZM31 3L31 4L26 4L26 8L25 8L25 9L23 9L23 10L22 10L22 9L21 9L21 10L22 10L22 11L20 11L20 12L22 12L22 13L21 13L21 15L20 15L20 16L21 16L21 17L22 17L22 18L21 18L21 20L24 20L24 21L23 21L23 22L21 22L21 23L23 23L23 25L22 25L22 24L19 24L19 23L20 23L20 22L19 22L19 21L20 21L20 20L19 20L19 19L18 19L18 18L17 18L17 21L16 21L16 20L15 20L15 21L16 21L16 22L15 22L15 23L16 23L16 24L14 24L14 23L13 23L13 24L12 24L12 25L13 25L13 24L14 24L14 26L15 26L15 27L16 27L16 26L15 26L15 25L16 25L16 24L17 24L17 25L19 25L19 29L18 29L18 28L16 28L16 29L14 29L14 30L15 30L15 33L14 33L14 34L13 34L13 38L12 38L12 39L10 39L10 40L13 40L13 39L14 39L14 38L16 38L16 37L15 37L15 36L17 36L17 34L18 34L18 35L19 35L19 34L20 34L20 35L22 35L22 33L21 33L21 32L23 32L23 31L24 31L24 32L25 32L25 31L26 31L26 33L27 33L27 32L28 32L28 33L29 33L29 34L30 34L30 36L29 36L29 37L31 37L31 38L29 38L29 39L33 39L33 40L35 40L35 42L37 42L37 43L36 43L36 44L35 44L35 43L34 43L34 42L33 42L33 41L32 41L32 40L31 40L31 41L32 41L32 42L30 42L30 40L28 40L28 39L27 39L27 38L28 38L28 37L27 37L27 36L26 36L26 35L27 35L27 34L25 34L25 33L23 33L23 34L24 34L24 36L23 36L23 37L19 37L19 36L18 36L18 37L17 37L17 38L18 38L18 39L17 39L17 40L18 40L18 41L17 41L17 42L18 42L18 41L19 41L19 40L21 40L21 39L22 39L22 40L23 40L23 42L22 42L22 41L21 41L21 42L22 42L22 43L21 43L21 44L20 44L20 45L21 45L21 47L23 47L23 46L22 46L22 45L24 45L24 46L25 46L25 45L24 45L24 43L25 43L25 44L27 44L27 45L26 45L26 47L27 47L27 45L29 45L29 44L31 44L31 45L32 45L32 46L33 46L33 47L32 47L32 48L33 48L33 47L35 47L35 46L33 46L33 45L32 45L32 44L33 44L33 43L34 43L34 45L37 45L37 47L36 47L36 48L34 48L34 49L36 49L36 50L38 50L38 52L39 52L39 51L40 51L40 52L41 52L41 50L42 50L42 51L43 51L43 53L44 53L44 52L45 52L45 51L46 51L46 52L47 52L47 51L46 51L46 50L44 50L44 51L43 51L43 49L44 49L44 48L46 48L46 49L47 49L47 48L48 48L48 47L49 47L49 44L48 44L48 47L47 47L47 46L45 46L45 45L47 45L47 43L48 43L48 42L45 42L45 41L44 41L44 40L45 40L45 39L46 39L46 40L47 40L47 39L46 39L46 38L45 38L45 37L46 37L46 36L45 36L45 35L47 35L47 36L48 36L48 35L50 35L50 36L51 36L51 37L52 37L52 35L53 35L53 34L52 34L52 33L51 33L51 32L50 32L50 34L48 34L48 35L47 35L47 34L45 34L45 33L43 33L43 32L41 32L41 33L39 33L39 34L40 34L40 35L39 35L39 36L38 36L38 33L37 33L37 32L35 32L35 34L37 34L37 36L35 36L35 35L34 35L34 34L33 34L33 33L34 33L34 32L33 32L33 33L32 33L32 32L31 32L31 33L29 33L29 32L30 32L30 31L31 31L31 30L32 30L32 31L36 31L36 30L33 30L33 29L32 29L32 27L33 27L33 28L35 28L35 29L38 29L38 28L39 28L39 27L36 27L36 26L34 26L34 27L33 27L33 26L32 26L32 24L33 24L33 25L37 25L37 26L38 26L38 25L39 25L39 26L40 26L40 27L41 27L41 28L42 28L42 27L41 27L41 26L43 26L43 25L44 25L44 27L43 27L43 28L45 28L45 27L46 27L46 26L45 26L45 25L44 25L44 24L43 24L43 25L39 25L39 24L37 24L37 23L38 23L38 21L37 21L37 20L36 20L36 19L33 19L33 17L32 17L32 16L31 16L31 15L30 15L30 14L32 14L32 12L33 12L33 13L34 13L34 12L33 12L33 10L32 10L32 8L31 8L31 4L32 4L32 5L33 5L33 4L32 4L32 3ZM15 4L15 5L16 5L16 4ZM17 5L17 6L16 6L16 7L17 7L17 6L18 6L18 7L19 7L19 6L18 6L18 5ZM27 5L27 8L30 8L30 5ZM34 5L34 7L33 7L33 6L32 6L32 7L33 7L33 9L34 9L34 8L35 8L35 9L37 9L37 10L38 10L38 9L39 9L39 10L40 10L40 9L39 9L39 6L40 6L40 7L41 7L41 6L40 6L40 5L39 5L39 6L38 6L38 9L37 9L37 8L35 8L35 5ZM21 6L21 7L22 7L22 6ZM28 6L28 7L29 7L29 6ZM55 8L55 9L56 9L56 8ZM27 9L27 10L29 10L29 9ZM9 10L9 12L10 12L10 10ZM31 10L31 11L29 11L29 12L28 12L28 13L26 13L26 12L27 12L27 11L26 11L26 12L25 12L25 11L23 11L23 13L22 13L22 14L23 14L23 13L24 13L24 12L25 12L25 14L24 14L24 15L21 15L21 16L22 16L22 17L25 17L25 16L24 16L24 15L25 15L25 14L27 14L27 15L26 15L26 20L25 20L25 21L24 21L24 22L23 22L23 23L24 23L24 24L25 24L25 25L26 25L26 26L25 26L25 27L24 27L24 26L22 26L22 25L20 25L20 27L21 27L21 28L22 28L22 29L20 29L20 30L21 30L21 31L20 31L20 32L21 32L21 31L23 31L23 29L26 29L26 28L25 28L25 27L26 27L26 26L29 26L29 24L32 24L32 23L35 23L35 20L34 20L34 21L33 21L33 20L32 20L32 21L31 21L31 22L29 22L29 24L28 24L28 23L27 23L27 24L25 24L25 23L26 23L26 22L25 22L25 21L29 21L29 20L30 20L30 19L31 19L31 18L32 18L32 17L31 17L31 18L30 18L30 19L29 19L29 20L27 20L27 19L28 19L28 18L27 18L27 17L28 17L28 16L29 16L29 14L30 14L30 13L31 13L31 11L32 11L32 10ZM4 11L4 12L2 12L2 13L3 13L3 14L4 14L4 13L5 13L5 14L6 14L6 13L5 13L5 11ZM11 11L11 12L14 12L14 11ZM16 12L16 13L15 13L15 14L13 14L13 15L14 15L14 16L12 16L12 15L11 15L11 16L10 16L10 17L13 17L13 18L15 18L15 17L14 17L14 16L16 16L16 13L17 13L17 12ZM50 12L50 14L49 14L49 15L48 15L48 16L49 16L49 15L50 15L50 14L51 14L51 12ZM52 12L52 13L53 13L53 15L55 15L55 14L56 14L56 13L55 13L55 12L54 12L54 13L53 13L53 12ZM28 13L28 14L29 14L29 13ZM5 15L5 16L4 16L4 17L7 17L7 18L6 18L6 19L7 19L7 18L8 18L8 16L6 16L6 15ZM27 15L27 16L28 16L28 15ZM35 16L35 17L37 17L37 18L38 18L38 17L39 17L39 16L38 16L38 17L37 17L37 16ZM42 16L42 17L43 17L43 16ZM22 18L22 19L24 19L24 18ZM41 18L41 19L42 19L42 18ZM3 19L3 20L4 20L4 19ZM8 19L8 20L9 20L9 19ZM0 20L0 22L1 22L1 20ZM6 20L6 21L7 21L7 22L6 22L6 23L8 23L8 21L7 21L7 20ZM13 21L13 22L14 22L14 21ZM45 21L45 22L46 22L46 23L47 23L47 24L46 24L46 25L47 25L47 24L48 24L48 23L49 23L49 24L50 24L50 25L51 25L51 24L50 24L50 23L49 23L49 21L47 21L47 22L46 22L46 21ZM17 23L17 24L18 24L18 23ZM0 24L0 27L1 27L1 26L2 26L2 25L1 25L1 24ZM27 24L27 25L28 25L28 24ZM17 26L17 27L18 27L18 26ZM21 26L21 27L22 27L22 26ZM31 26L31 27L32 27L32 26ZM5 27L5 30L8 30L8 27ZM27 27L27 30L30 30L30 27ZM35 27L35 28L36 28L36 27ZM49 27L49 30L52 30L52 27ZM0 28L0 29L1 29L1 28ZM3 28L3 29L4 29L4 28ZM6 28L6 29L7 29L7 28ZM28 28L28 29L29 29L29 28ZM50 28L50 29L51 29L51 28ZM54 28L54 29L53 29L53 30L55 30L55 29L56 29L56 28ZM16 29L16 30L18 30L18 29ZM39 29L39 30L38 30L38 32L39 32L39 31L40 31L40 30L44 30L44 29ZM6 31L6 32L7 32L7 31ZM18 31L18 32L16 32L16 33L15 33L15 34L17 34L17 33L18 33L18 34L19 34L19 33L18 33L18 32L19 32L19 31ZM47 31L47 32L48 32L48 33L49 33L49 32L48 32L48 31ZM20 33L20 34L21 34L21 33ZM6 34L6 35L7 35L7 34ZM31 34L31 35L32 35L32 34ZM42 34L42 35L43 35L43 36L40 36L40 37L38 37L38 39L35 39L35 40L38 40L38 42L39 42L39 41L43 41L43 42L44 42L44 45L45 45L45 44L46 44L46 43L45 43L45 42L44 42L44 41L43 41L43 40L44 40L44 39L45 39L45 38L44 38L44 37L45 37L45 36L44 36L44 35L45 35L45 34ZM50 34L50 35L52 35L52 34ZM25 36L25 40L24 40L24 39L23 39L23 38L24 38L24 37L23 37L23 38L22 38L22 39L23 39L23 40L24 40L24 41L25 41L25 43L27 43L27 44L28 44L28 43L27 43L27 42L29 42L29 41L28 41L28 40L26 40L26 36ZM32 36L32 37L33 37L33 38L35 38L35 36ZM43 36L43 37L40 37L40 38L43 38L43 37L44 37L44 36ZM18 37L18 38L19 38L19 39L18 39L18 40L19 40L19 39L20 39L20 38L19 38L19 37ZM8 39L8 40L6 40L6 41L7 41L7 42L8 42L8 43L10 43L10 45L11 45L11 43L12 43L12 44L13 44L13 45L12 45L12 46L13 46L13 45L15 45L15 43L14 43L14 41L16 41L16 39L15 39L15 40L14 40L14 41L10 41L10 42L8 42L8 41L9 41L9 39ZM38 39L38 40L40 40L40 39ZM26 41L26 42L27 42L27 41ZM12 42L12 43L13 43L13 44L14 44L14 43L13 43L13 42ZM32 42L32 43L31 43L31 44L32 44L32 43L33 43L33 42ZM41 42L41 44L40 44L40 43L39 43L39 44L40 44L40 45L41 45L41 44L42 44L42 42ZM51 42L51 43L50 43L50 44L51 44L51 43L53 43L53 42ZM3 44L3 45L4 45L4 44ZM21 44L21 45L22 45L22 44ZM38 45L38 46L39 46L39 47L38 47L38 48L37 48L37 49L38 49L38 50L41 50L41 48L42 48L42 49L43 49L43 48L44 48L44 47L45 47L45 46L44 46L44 47L43 47L43 46L41 46L41 48L39 48L39 47L40 47L40 46L39 46L39 45ZM50 45L50 46L51 46L51 47L52 47L52 46L51 46L51 45ZM54 45L54 46L55 46L55 45ZM42 47L42 48L43 48L43 47ZM46 47L46 48L47 48L47 47ZM6 48L6 49L7 49L7 48ZM38 48L38 49L39 49L39 48ZM54 48L54 49L56 49L56 48ZM15 49L15 50L14 50L14 53L15 53L15 54L16 54L16 53L17 53L17 51L18 51L18 50L19 50L19 49ZM27 49L27 52L30 52L30 49ZM49 49L49 52L52 52L52 49ZM16 50L16 51L15 51L15 53L16 53L16 51L17 51L17 50ZM28 50L28 51L29 51L29 50ZM50 50L50 51L51 51L51 50ZM56 51L56 52L57 52L57 51ZM41 54L41 55L42 55L42 54ZM15 55L15 56L16 56L16 55ZM37 55L37 56L39 56L39 55ZM50 55L50 56L51 56L51 55ZM10 56L10 57L12 57L12 56ZM0 0L0 7L7 7L7 0ZM1 1L1 6L6 6L6 1ZM2 2L2 5L5 5L5 2ZM50 0L50 7L57 7L57 0ZM51 1L51 6L56 6L56 1ZM52 2L52 5L55 5L55 2ZM0 50L0 57L7 57L7 50ZM1 51L1 56L6 56L6 51ZM2 52L2 55L5 55L5 52Z" fill="#000000"/></g></g></svg>
