<?xml version="1.0" encoding="UTF-8"?>
<svg xmlns="http://www.w3.org/2000/svg" version="1.1" width="300" height="300" viewBox="0 0 300 300"><rect x="0" y="0" width="300" height="300" fill="#fefefe"/><g transform="scale(4.615)"><g transform="translate(4,4)"><path fill-rule="evenodd" d="M8 0L8 1L9 1L9 0ZM10 0L10 3L9 3L9 2L8 2L8 5L9 5L9 6L8 6L8 7L9 7L9 8L8 8L8 10L9 10L9 8L10 8L10 9L11 9L11 12L10 12L10 11L7 11L7 10L6 10L6 9L7 9L7 8L6 8L6 9L4 9L4 8L0 8L0 12L1 12L1 10L2 10L2 9L3 9L3 11L2 11L2 12L3 12L3 11L4 11L4 10L6 10L6 11L7 11L7 12L5 12L5 13L3 13L3 17L4 17L4 15L5 15L5 16L6 16L6 17L5 17L5 18L4 18L4 19L9 19L9 20L5 20L5 21L8 21L8 23L7 23L7 22L6 22L6 23L4 23L4 24L2 24L2 21L3 21L3 22L4 22L4 20L2 20L2 19L3 19L3 18L2 18L2 16L0 16L0 17L1 17L1 18L0 18L0 19L1 19L1 20L2 20L2 21L1 21L1 24L0 24L0 25L1 25L1 24L2 24L2 26L1 26L1 28L2 28L2 29L1 29L1 30L0 30L0 31L1 31L1 30L2 30L2 29L4 29L4 31L3 31L3 33L7 33L7 34L6 34L6 35L5 35L5 36L4 36L4 34L1 34L1 32L0 32L0 35L1 35L1 38L0 38L0 39L1 39L1 42L2 42L2 43L3 43L3 44L1 44L1 45L0 45L0 48L5 48L5 47L7 47L7 48L6 48L6 49L8 49L8 50L9 50L9 52L10 52L10 53L8 53L8 57L18 57L18 56L17 56L17 54L18 54L18 53L17 53L17 54L16 54L16 53L15 53L15 52L14 52L14 53L12 53L12 52L13 52L13 51L14 51L14 50L15 50L15 45L16 45L16 44L17 44L17 42L18 42L18 43L19 43L19 41L11 41L11 40L10 40L10 39L12 39L12 38L13 38L13 37L9 37L9 35L10 35L10 34L12 34L12 35L13 35L13 36L14 36L14 35L15 35L15 34L14 34L14 33L18 33L18 32L20 32L20 33L21 33L21 34L19 34L19 35L18 35L18 39L17 39L17 38L15 38L15 37L14 37L14 38L15 38L15 40L16 40L16 39L17 39L17 40L20 40L20 41L22 41L22 44L20 44L20 45L17 45L17 46L16 46L16 47L17 47L17 46L18 46L18 47L21 47L21 48L23 48L23 49L22 49L22 50L21 50L21 49L19 49L19 48L16 48L16 49L17 49L17 50L18 50L18 49L19 49L19 51L16 51L16 52L19 52L19 55L20 55L20 56L19 56L19 57L23 57L23 54L25 54L25 55L24 55L24 57L25 57L25 55L26 55L26 56L28 56L28 55L26 55L26 54L27 54L27 53L29 53L29 54L31 54L31 55L30 55L30 56L31 56L31 57L32 57L32 55L34 55L34 56L33 56L33 57L36 57L36 55L38 55L38 57L42 57L42 56L43 56L43 55L44 55L44 56L46 56L46 57L47 57L47 56L48 56L48 57L51 57L51 54L52 54L52 53L54 53L54 52L56 52L56 53L55 53L55 54L53 54L53 55L55 55L55 54L56 54L56 53L57 53L57 52L56 52L56 51L55 51L55 50L53 50L53 49L54 49L54 47L52 47L52 48L51 48L51 45L52 45L52 43L53 43L53 42L54 42L54 43L55 43L55 44L53 44L53 45L54 45L54 46L55 46L55 47L57 47L57 43L56 43L56 41L57 41L57 40L56 40L56 41L55 41L55 42L54 42L54 41L53 41L53 40L55 40L55 38L56 38L56 39L57 39L57 38L56 38L56 36L54 36L54 35L57 35L57 31L56 31L56 30L57 30L57 28L56 28L56 27L53 27L53 26L52 26L52 25L51 25L51 24L53 24L53 25L54 25L54 24L53 24L53 23L57 23L57 21L56 21L56 22L54 22L54 21L55 21L55 20L54 20L54 21L53 21L53 20L50 20L50 19L51 19L51 18L50 18L50 19L49 19L49 20L48 20L48 21L47 21L47 19L48 19L48 14L47 14L47 15L45 15L45 14L46 14L46 13L44 13L44 9L41 9L41 8L38 8L38 7L39 7L39 6L38 6L38 5L40 5L40 7L41 7L41 4L43 4L43 5L42 5L42 7L43 7L43 5L45 5L45 4L44 4L44 3L45 3L45 1L44 1L44 2L41 2L41 1L43 1L43 0L41 0L41 1L40 1L40 0L39 0L39 1L40 1L40 2L41 2L41 4L37 4L37 1L38 1L38 0L37 0L37 1L36 1L36 0L35 0L35 1L34 1L34 3L33 3L33 2L32 2L32 0L29 0L29 1L28 1L28 0L27 0L27 4L26 4L26 2L24 2L24 3L23 3L23 2L22 2L22 3L23 3L23 4L22 4L22 5L20 5L20 4L19 4L19 2L18 2L18 3L17 3L17 1L20 1L20 2L21 2L21 1L22 1L22 0L21 0L21 1L20 1L20 0L17 0L17 1L15 1L15 0L14 0L14 1L15 1L15 3L17 3L17 5L15 5L15 4L14 4L14 3L13 3L13 0L12 0L12 1L11 1L11 0ZM23 0L23 1L26 1L26 0ZM46 0L46 1L47 1L47 2L46 2L46 3L47 3L47 5L46 5L46 7L45 7L45 6L44 6L44 8L45 8L45 9L48 9L48 10L50 10L50 8L49 8L49 6L48 6L48 7L47 7L47 5L48 5L48 0ZM29 1L29 2L28 2L28 4L31 4L31 5L32 5L32 6L31 6L31 9L32 9L32 10L29 10L29 9L27 9L27 10L26 10L26 11L25 11L25 12L24 12L24 11L21 11L21 10L23 10L23 9L24 9L24 8L25 8L25 9L26 9L26 6L25 6L25 5L26 5L26 4L24 4L24 6L23 6L23 5L22 5L22 6L21 6L21 7L20 7L20 6L19 6L19 7L18 7L18 6L17 6L17 7L16 7L16 6L15 6L15 8L12 8L12 5L11 5L11 7L10 7L10 6L9 6L9 7L10 7L10 8L12 8L12 9L14 9L14 11L15 11L15 15L14 15L14 16L15 16L15 15L16 15L16 16L17 16L17 18L18 18L18 21L19 21L19 22L21 22L21 23L20 23L20 24L21 24L21 23L22 23L22 21L21 21L21 20L19 20L19 19L21 19L21 17L22 17L22 18L23 18L23 21L24 21L24 22L25 22L25 25L23 25L23 24L22 24L22 25L23 25L23 27L22 27L22 26L19 26L19 25L17 25L17 24L18 24L18 23L16 23L16 19L15 19L15 18L13 18L13 19L15 19L15 20L14 20L14 22L15 22L15 23L16 23L16 27L15 27L15 28L17 28L17 30L19 30L19 31L21 31L21 32L22 32L22 31L24 31L24 30L26 30L26 28L25 28L25 25L27 25L27 26L28 26L28 25L29 25L29 26L31 26L31 23L32 23L32 22L33 22L33 24L32 24L32 25L33 25L33 24L35 24L35 23L36 23L36 24L37 24L37 22L35 22L35 20L36 20L36 21L38 21L38 22L39 22L39 21L38 21L38 20L40 20L40 19L39 19L39 18L41 18L41 19L42 19L42 18L43 18L43 21L44 21L44 22L47 22L47 21L45 21L45 20L46 20L46 19L47 19L47 18L45 18L45 17L42 17L42 14L43 14L43 15L44 15L44 16L45 16L45 15L44 15L44 13L43 13L43 12L42 12L42 11L43 11L43 10L42 10L42 11L40 11L40 10L39 10L39 9L38 9L38 11L37 11L37 8L36 8L36 9L34 9L34 6L35 6L35 7L36 7L36 6L37 6L37 7L38 7L38 6L37 6L37 5L36 5L36 4L34 4L34 5L33 5L33 3L32 3L32 4L31 4L31 1ZM35 1L35 2L36 2L36 1ZM11 2L11 3L12 3L12 4L13 4L13 5L14 5L14 4L13 4L13 3L12 3L12 2ZM38 2L38 3L39 3L39 2ZM9 4L9 5L10 5L10 4ZM27 5L27 8L30 8L30 5ZM13 6L13 7L14 7L14 6ZM22 6L22 7L21 7L21 9L23 9L23 8L24 8L24 7L25 7L25 6L24 6L24 7L23 7L23 6ZM28 6L28 7L29 7L29 6ZM32 6L32 8L33 8L33 6ZM19 7L19 10L20 10L20 7ZM22 7L22 8L23 8L23 7ZM46 7L46 8L47 8L47 7ZM15 8L15 9L16 9L16 8ZM17 8L17 12L16 12L16 13L17 13L17 12L18 12L18 13L19 13L19 14L18 14L18 16L19 16L19 15L21 15L21 13L20 13L20 12L21 12L21 11L19 11L19 12L18 12L18 8ZM52 8L52 9L51 9L51 11L48 11L48 12L49 12L49 15L50 15L50 16L51 16L51 17L52 17L52 16L55 16L55 17L54 17L54 18L52 18L52 19L56 19L56 20L57 20L57 19L56 19L56 17L57 17L57 15L55 15L55 13L56 13L56 12L57 12L57 10L55 10L55 11L56 11L56 12L55 12L55 13L54 13L54 10L53 10L53 13L52 13L52 12L51 12L51 11L52 11L52 9L55 9L55 8ZM56 8L56 9L57 9L57 8ZM15 10L15 11L16 11L16 10ZM28 10L28 11L29 11L29 10ZM33 10L33 11L32 11L32 12L33 12L33 13L31 13L31 14L30 14L30 13L28 13L28 12L26 12L26 14L25 14L25 15L23 15L23 18L24 18L24 19L25 19L25 22L28 22L28 24L30 24L30 23L31 23L31 21L30 21L30 20L32 20L32 19L30 19L30 17L29 17L29 16L31 16L31 17L33 17L33 18L35 18L35 17L34 17L34 16L35 16L35 15L36 15L36 13L37 13L37 15L39 15L39 17L40 17L40 16L41 16L41 15L39 15L39 11L38 11L38 12L35 12L35 11L36 11L36 10L35 10L35 11L34 11L34 10ZM45 10L45 11L47 11L47 10ZM12 11L12 13L10 13L10 12L9 12L9 13L8 13L8 12L7 12L7 13L5 13L5 14L8 14L8 15L10 15L10 14L14 14L14 13L13 13L13 11ZM30 11L30 12L31 12L31 11ZM22 12L22 13L23 13L23 14L24 14L24 12ZM34 12L34 14L33 14L33 15L35 15L35 12ZM50 12L50 13L51 13L51 15L53 15L53 14L52 14L52 13L51 13L51 12ZM9 13L9 14L10 14L10 13ZM40 13L40 14L41 14L41 13ZM0 14L0 15L2 15L2 14ZM16 14L16 15L17 15L17 14ZM26 14L26 16L27 16L27 14ZM6 15L6 16L7 16L7 17L6 17L6 18L8 18L8 17L9 17L9 18L10 18L10 20L9 20L9 23L8 23L8 24L9 24L9 23L11 23L11 24L10 24L10 25L9 25L9 27L10 27L10 28L9 28L9 30L11 30L11 29L14 29L14 31L12 31L12 32L13 32L13 33L12 33L12 34L13 34L13 33L14 33L14 31L15 31L15 32L16 32L16 31L15 31L15 30L16 30L16 29L14 29L14 27L13 27L13 26L12 26L12 25L13 25L13 21L10 21L10 20L12 20L12 18L11 18L11 16L12 16L12 17L13 17L13 16L12 16L12 15L11 15L11 16L10 16L10 17L9 17L9 16L7 16L7 15ZM28 15L28 16L29 16L29 15ZM31 15L31 16L32 16L32 15ZM46 16L46 17L47 17L47 16ZM24 17L24 18L25 18L25 19L27 19L27 20L26 20L26 21L27 21L27 20L28 20L28 18L29 18L29 17L27 17L27 18L26 18L26 17ZM36 17L36 18L37 18L37 17ZM41 17L41 18L42 18L42 17ZM1 18L1 19L2 19L2 18ZM44 18L44 19L45 19L45 18ZM34 19L34 20L33 20L33 21L34 21L34 20L35 20L35 19ZM36 19L36 20L38 20L38 19ZM41 20L41 21L42 21L42 20ZM49 20L49 23L52 23L52 22L51 22L51 21L50 21L50 20ZM29 21L29 23L30 23L30 21ZM42 22L42 24L43 24L43 22ZM6 23L6 24L5 24L5 26L8 26L8 25L6 25L6 24L7 24L7 23ZM26 23L26 24L27 24L27 23ZM39 23L39 24L38 24L38 25L39 25L39 26L38 26L38 27L40 27L40 30L39 30L39 29L38 29L38 30L37 30L37 28L34 28L34 29L36 29L36 30L35 30L35 31L34 31L34 32L33 32L33 31L32 31L32 30L33 30L33 29L32 29L32 30L31 30L31 34L30 34L30 35L29 35L29 33L30 33L30 32L28 32L28 33L27 33L27 31L26 31L26 33L25 33L25 34L24 34L24 35L23 35L23 33L24 33L24 32L23 32L23 33L22 33L22 34L21 34L21 36L19 36L19 37L20 37L20 38L21 38L21 37L22 37L22 38L23 38L23 36L25 36L25 37L24 37L24 39L22 39L22 41L24 41L24 43L26 43L26 45L25 45L25 46L24 46L24 47L25 47L25 48L24 48L24 49L23 49L23 51L22 51L22 53L23 53L23 52L24 52L24 53L25 53L25 52L26 52L26 49L25 49L25 48L27 48L27 46L28 46L28 47L29 47L29 48L31 48L31 47L32 47L32 49L31 49L31 53L32 53L32 51L33 51L33 53L36 53L36 54L35 54L35 55L36 55L36 54L37 54L37 52L38 52L38 51L36 51L36 52L35 52L35 49L34 49L34 48L33 48L33 47L34 47L34 46L36 46L36 47L35 47L35 48L37 48L37 49L36 49L36 50L37 50L37 49L38 49L38 48L39 48L39 49L40 49L40 50L39 50L39 52L40 52L40 54L41 54L41 52L42 52L42 54L43 54L43 51L45 51L45 49L46 49L46 50L47 50L47 52L48 52L48 48L45 48L45 47L46 47L46 46L48 46L48 47L49 47L49 46L50 46L50 45L51 45L51 42L50 42L50 41L52 41L52 40L50 40L50 41L47 41L47 42L45 42L45 41L46 41L46 40L45 40L45 41L43 41L43 40L42 40L42 38L44 38L44 39L45 39L45 36L46 36L46 38L49 38L49 39L47 39L47 40L49 40L49 39L51 39L51 36L52 36L52 38L53 38L53 39L54 39L54 38L55 38L55 37L54 37L54 38L53 38L53 36L52 36L52 35L51 35L51 36L50 36L50 38L49 38L49 37L48 37L48 35L49 35L49 34L50 34L50 33L49 33L49 32L48 32L48 29L47 29L47 33L46 33L46 31L44 31L44 30L43 30L43 29L42 29L42 30L41 30L41 26L40 26L40 25L41 25L41 23ZM44 23L44 25L42 25L42 26L44 26L44 25L46 25L46 26L47 26L47 27L48 27L48 26L49 26L49 24L48 24L48 23L47 23L47 24L48 24L48 25L46 25L46 24L45 24L45 23ZM55 24L55 26L56 26L56 24ZM34 25L34 27L35 27L35 25ZM3 26L3 27L2 27L2 28L3 28L3 27L4 27L4 26ZM10 26L10 27L11 27L11 28L10 28L10 29L11 29L11 28L13 28L13 27L11 27L11 26ZM17 26L17 27L19 27L19 28L18 28L18 29L20 29L20 28L21 28L21 27L19 27L19 26ZM5 27L5 30L8 30L8 27ZM27 27L27 30L30 30L30 27ZM32 27L32 28L33 28L33 27ZM42 27L42 28L44 28L44 27ZM45 27L45 30L46 30L46 27ZM49 27L49 30L52 30L52 27ZM6 28L6 29L7 29L7 28ZM28 28L28 29L29 29L29 28ZM50 28L50 29L51 29L51 28ZM53 28L53 30L56 30L56 29L54 29L54 28ZM21 29L21 30L24 30L24 29ZM38 30L38 31L39 31L39 34L38 34L38 32L37 32L37 31L35 31L35 32L34 32L34 33L35 33L35 35L36 35L36 36L34 36L34 34L33 34L33 33L32 33L32 34L31 34L31 35L32 35L32 36L29 36L29 35L28 35L28 34L27 34L27 33L26 33L26 34L25 34L25 35L26 35L26 34L27 34L27 36L26 36L26 37L27 37L27 36L29 36L29 38L25 38L25 39L24 39L24 41L25 41L25 42L29 42L29 43L27 43L27 44L30 44L30 45L31 45L31 46L33 46L33 45L34 45L34 44L35 44L35 45L36 45L36 46L37 46L37 47L38 47L38 45L41 45L41 46L40 46L40 47L43 47L43 49L44 49L44 47L45 47L45 46L43 46L43 45L42 45L42 43L43 43L43 42L42 42L42 41L41 41L41 42L37 42L37 44L38 44L38 45L36 45L36 44L35 44L35 43L34 43L34 42L36 42L36 41L34 41L34 40L35 40L35 39L36 39L36 38L34 38L34 37L37 37L37 39L38 39L38 40L37 40L37 41L40 41L40 39L41 39L41 37L40 37L40 36L37 36L37 35L41 35L41 36L43 36L43 37L44 37L44 36L45 36L45 34L44 34L44 31L41 31L41 32L40 32L40 31L39 31L39 30ZM4 31L4 32L7 32L7 33L8 33L8 35L9 35L9 34L10 34L10 33L11 33L11 32L8 32L8 31ZM52 31L52 34L54 34L54 33L53 33L53 31ZM54 31L54 32L55 32L55 31ZM36 32L36 33L37 33L37 32ZM42 32L42 33L43 33L43 32ZM55 33L55 34L56 34L56 33ZM16 34L16 36L17 36L17 34ZM41 34L41 35L42 35L42 34ZM46 34L46 35L48 35L48 34ZM2 35L2 37L4 37L4 38L3 38L3 39L2 39L2 38L1 38L1 39L2 39L2 41L5 41L5 42L8 42L8 45L5 45L5 46L3 46L3 45L2 45L2 46L1 46L1 47L2 47L2 46L3 46L3 47L5 47L5 46L7 46L7 47L8 47L8 45L9 45L9 48L8 48L8 49L9 49L9 48L10 48L10 49L11 49L11 50L10 50L10 51L11 51L11 52L12 52L12 51L13 51L13 50L12 50L12 49L14 49L14 45L15 45L15 44L16 44L16 43L15 43L15 42L14 42L14 45L13 45L13 44L12 44L12 43L13 43L13 42L12 42L12 43L11 43L11 42L10 42L10 41L9 41L9 40L8 40L8 41L6 41L6 40L7 40L7 39L8 39L8 38L9 38L9 37L8 37L8 36L7 36L7 35L6 35L6 36L5 36L5 37L4 37L4 36L3 36L3 35ZM6 36L6 37L5 37L5 38L6 38L6 39L7 39L7 38L6 38L6 37L7 37L7 36ZM32 36L32 38L30 38L30 39L28 39L28 40L27 40L27 39L25 39L25 41L26 41L26 40L27 40L27 41L28 41L28 40L30 40L30 42L31 42L31 40L33 40L33 39L32 39L32 38L33 38L33 37L34 37L34 36ZM38 38L38 39L39 39L39 38ZM13 39L13 40L14 40L14 39ZM3 42L3 43L4 43L4 44L5 44L5 43L4 43L4 42ZM20 42L20 43L21 43L21 42ZM32 42L32 44L31 44L31 45L33 45L33 42ZM47 42L47 43L44 43L44 44L48 44L48 46L49 46L49 45L50 45L50 44L49 44L49 43L50 43L50 42L49 42L49 43L48 43L48 42ZM6 43L6 44L7 44L7 43ZM10 43L10 44L11 44L11 43ZM38 43L38 44L39 44L39 43ZM40 43L40 44L41 44L41 43ZM22 44L22 46L21 46L21 45L20 45L20 46L21 46L21 47L22 47L22 46L23 46L23 45L24 45L24 44ZM55 44L55 46L56 46L56 44ZM11 45L11 46L10 46L10 47L11 47L11 48L12 48L12 47L13 47L13 45ZM26 45L26 46L27 46L27 45ZM11 46L11 47L12 47L12 46ZM41 48L41 49L42 49L42 48ZM56 48L56 50L57 50L57 48ZM27 49L27 52L30 52L30 49ZM32 49L32 50L33 50L33 51L34 51L34 49ZM49 49L49 52L52 52L52 49ZM11 50L11 51L12 51L12 50ZM20 50L20 51L21 51L21 50ZM24 50L24 51L25 51L25 50ZM28 50L28 51L29 51L29 50ZM50 50L50 51L51 51L51 50ZM40 51L40 52L41 52L41 51ZM45 52L45 53L46 53L46 52ZM10 53L10 54L9 54L9 55L10 55L10 56L11 56L11 55L10 55L10 54L11 54L11 53ZM20 53L20 55L21 55L21 56L22 56L22 54L21 54L21 53ZM38 53L38 54L39 54L39 53ZM48 53L48 54L50 54L50 53ZM13 54L13 56L15 56L15 54ZM44 54L44 55L46 55L46 56L47 56L47 54ZM39 55L39 56L40 56L40 55ZM48 55L48 56L49 56L49 55ZM56 55L56 56L57 56L57 55ZM52 56L52 57L55 57L55 56ZM0 0L0 7L7 7L7 0ZM1 1L1 6L6 6L6 1ZM2 2L2 5L5 5L5 2ZM50 0L50 7L57 7L57 0ZM51 1L51 6L56 6L56 1ZM52 2L52 5L55 5L55 2ZM0 50L0 57L7 57L7 50ZM1 51L1 56L6 56L6 51ZM2 52L2 55L5 55L5 52Z" fill="#000000"/></g></g></svg>
