<?xml version="1.0" encoding="UTF-8"?>
<svg xmlns="http://www.w3.org/2000/svg" version="1.1" width="300" height="300" viewBox="0 0 300 300"><rect x="0" y="0" width="300" height="300" fill="#fefefe"/><g transform="scale(4.615)"><g transform="translate(4,4)"><path fill-rule="evenodd" d="M8 0L8 4L9 4L9 5L8 5L8 7L9 7L9 6L10 6L10 9L8 9L8 12L6 12L6 13L5 13L5 11L4 11L4 10L5 10L5 9L7 9L7 8L4 8L4 9L2 9L2 8L0 8L0 9L1 9L1 10L2 10L2 11L1 11L1 12L0 12L0 15L1 15L1 13L2 13L2 14L3 14L3 13L4 13L4 14L5 14L5 15L8 15L8 14L9 14L9 15L11 15L11 16L10 16L10 18L9 18L9 16L4 16L4 15L2 15L2 17L3 17L3 19L2 19L2 18L0 18L0 21L2 21L2 20L3 20L3 21L5 21L5 20L6 20L6 21L7 21L7 22L6 22L6 23L7 23L7 24L6 24L6 25L5 25L5 26L4 26L4 25L2 25L2 26L3 26L3 27L2 27L2 29L1 29L1 28L0 28L0 29L1 29L1 31L3 31L3 32L4 32L4 34L3 34L3 35L1 35L1 36L0 36L0 37L1 37L1 38L2 38L2 39L3 39L3 40L0 40L0 41L1 41L1 44L2 44L2 45L1 45L1 46L0 46L0 48L5 48L5 47L7 47L7 46L6 46L6 45L8 45L8 46L9 46L9 45L8 45L8 43L10 43L10 45L12 45L12 44L13 44L13 43L14 43L14 44L15 44L15 46L14 46L14 47L13 47L13 46L12 46L12 50L11 50L11 48L10 48L10 51L13 51L13 53L11 53L11 54L10 54L10 53L9 53L9 51L8 51L8 53L9 53L9 54L10 54L10 56L9 56L9 55L8 55L8 57L11 57L11 56L13 56L13 57L15 57L15 56L14 56L14 55L16 55L16 54L17 54L17 55L20 55L20 54L21 54L21 57L22 57L22 52L24 52L24 53L23 53L23 55L24 55L24 56L25 56L25 55L26 55L26 53L28 53L28 57L29 57L29 55L30 55L30 57L34 57L34 55L35 55L35 57L37 57L37 56L36 56L36 54L37 54L37 53L38 53L38 55L40 55L40 56L39 56L39 57L40 57L40 56L41 56L41 57L43 57L43 55L44 55L44 53L45 53L45 55L46 55L46 56L47 56L47 57L50 57L50 55L51 55L51 56L53 56L53 57L54 57L54 56L53 56L53 54L54 54L54 53L55 53L55 54L57 54L57 51L56 51L56 50L57 50L57 49L56 49L56 44L57 44L57 43L56 43L56 42L57 42L57 40L54 40L54 41L53 41L53 40L52 40L52 39L53 39L53 38L54 38L54 39L57 39L57 38L55 38L55 37L57 37L57 35L56 35L56 34L55 34L55 33L56 33L56 30L54 30L54 31L53 31L53 29L54 29L54 28L53 28L53 27L54 27L54 26L55 26L55 27L56 27L56 29L57 29L57 27L56 27L56 25L57 25L57 24L56 24L56 21L57 21L57 19L56 19L56 18L55 18L55 22L53 22L53 21L52 21L52 20L53 20L53 19L51 19L51 18L52 18L52 16L53 16L53 15L55 15L55 16L54 16L54 17L55 17L55 16L56 16L56 17L57 17L57 15L56 15L56 12L57 12L57 11L56 11L56 10L57 10L57 8L53 8L53 9L52 9L52 8L51 8L51 9L50 9L50 10L51 10L51 9L52 9L52 10L53 10L53 11L54 11L54 10L53 10L53 9L56 9L56 10L55 10L55 11L56 11L56 12L55 12L55 13L54 13L54 12L53 12L53 13L52 13L52 14L51 14L51 12L52 12L52 11L50 11L50 15L48 15L48 16L47 16L47 18L49 18L49 17L50 17L50 19L48 19L48 20L47 20L47 23L45 23L45 24L44 24L44 25L42 25L42 24L43 24L43 23L44 23L44 22L45 22L45 21L46 21L46 19L45 19L45 17L46 17L46 11L45 11L45 9L46 9L46 8L47 8L47 12L49 12L49 8L47 8L47 5L48 5L48 0L46 0L46 1L47 1L47 2L45 2L45 0L41 0L41 1L40 1L40 2L38 2L38 1L39 1L39 0L38 0L38 1L37 1L37 2L36 2L36 0L35 0L35 1L34 1L34 0L33 0L33 1L32 1L32 3L31 3L31 4L30 4L30 3L28 3L28 4L26 4L26 3L25 3L25 0L23 0L23 2L21 2L21 3L22 3L22 5L21 5L21 6L20 6L20 5L19 5L19 6L18 6L18 7L17 7L17 6L16 6L16 5L15 5L15 4L14 4L14 0L13 0L13 1L12 1L12 0L11 0L11 1L12 1L12 3L10 3L10 2L9 2L9 0ZM15 0L15 3L16 3L16 4L17 4L17 3L19 3L19 1L21 1L21 0L19 0L19 1L18 1L18 0L17 0L17 1L18 1L18 2L17 2L17 3L16 3L16 0ZM26 0L26 1L27 1L27 2L30 2L30 1L31 1L31 0L30 0L30 1L28 1L28 0ZM33 1L33 3L32 3L32 5L33 5L33 7L32 7L32 6L31 6L31 10L29 10L29 9L26 9L26 6L25 6L25 7L24 7L24 6L23 6L23 5L24 5L24 4L25 4L25 3L23 3L23 5L22 5L22 6L21 6L21 8L22 8L22 10L21 10L21 11L22 11L22 12L23 12L23 7L24 7L24 8L25 8L25 10L27 10L27 11L26 11L26 13L29 13L29 16L31 16L31 19L33 19L33 18L32 18L32 16L33 16L33 15L30 15L30 13L32 13L32 14L33 14L33 13L34 13L34 20L33 20L33 21L34 21L34 22L31 22L31 23L30 23L30 22L28 22L28 21L29 21L29 20L28 20L28 21L24 21L24 20L25 20L25 18L24 18L24 19L23 19L23 20L21 20L21 19L22 19L22 18L21 18L21 19L20 19L20 16L21 16L21 17L26 17L26 20L27 20L27 19L30 19L30 18L28 18L28 17L26 17L26 16L27 16L27 15L28 15L28 14L27 14L27 15L26 15L26 14L24 14L24 13L25 13L25 12L24 12L24 13L21 13L21 14L22 14L22 15L20 15L20 11L19 11L19 10L20 10L20 8L19 8L19 10L18 10L18 9L15 9L15 12L14 12L14 11L13 11L13 13L15 13L15 14L17 14L17 13L18 13L18 12L19 12L19 14L18 14L18 15L17 15L17 16L15 16L15 17L14 17L14 15L13 15L13 16L12 16L12 17L11 17L11 18L10 18L10 19L9 19L9 18L8 18L8 17L4 17L4 18L5 18L5 19L3 19L3 20L5 20L5 19L6 19L6 20L7 20L7 21L8 21L8 22L7 22L7 23L8 23L8 22L9 22L9 24L10 24L10 26L9 26L9 27L10 27L10 26L11 26L11 25L12 25L12 26L13 26L13 27L14 27L14 28L13 28L13 29L12 29L12 27L11 27L11 29L9 29L9 30L10 30L10 31L11 31L11 33L9 33L9 32L7 32L7 31L5 31L5 32L7 32L7 33L5 33L5 34L4 34L4 36L7 36L7 37L4 37L4 39L6 39L6 40L7 40L7 39L8 39L8 40L9 40L9 41L6 41L6 42L7 42L7 43L3 43L3 42L2 42L2 44L3 44L3 45L4 45L4 46L3 46L3 47L5 47L5 45L4 45L4 44L7 44L7 43L8 43L8 42L13 42L13 41L14 41L14 40L15 40L15 39L16 39L16 38L17 38L17 37L18 37L18 38L19 38L19 39L20 39L20 38L21 38L21 39L22 39L22 38L23 38L23 39L24 39L24 40L22 40L22 42L20 42L20 40L19 40L19 41L17 41L17 40L16 40L16 42L15 42L15 44L17 44L17 45L16 45L16 48L17 48L17 47L18 47L18 48L19 48L19 46L17 46L17 45L18 45L18 44L19 44L19 45L21 45L21 46L22 46L22 47L20 47L20 48L22 48L22 49L21 49L21 50L20 50L20 49L15 49L15 48L13 48L13 50L14 50L14 51L15 51L15 52L14 52L14 53L13 53L13 54L15 54L15 53L17 53L17 52L16 52L16 51L15 51L15 50L17 50L17 51L18 51L18 52L19 52L19 53L20 53L20 52L19 52L19 50L20 50L20 51L22 51L22 49L23 49L23 48L22 48L22 47L23 47L23 45L24 45L24 44L23 44L23 41L25 41L25 40L26 40L26 38L24 38L24 37L23 37L23 35L22 35L22 34L23 34L23 33L27 33L27 32L28 32L28 31L27 31L27 32L26 32L26 31L25 31L25 30L26 30L26 29L25 29L25 30L23 30L23 29L24 29L24 27L26 27L26 25L25 25L25 26L24 26L24 27L23 27L23 28L22 28L22 27L20 27L20 25L23 25L23 24L24 24L24 23L23 23L23 24L22 24L22 23L21 23L21 22L20 22L20 23L19 23L19 21L20 21L20 20L21 20L21 21L24 21L24 22L25 22L25 23L26 23L26 22L28 22L28 23L27 23L27 24L28 24L28 25L29 25L29 26L30 26L30 25L29 25L29 24L31 24L31 30L32 30L32 28L33 28L33 27L34 27L34 31L33 31L33 33L32 33L32 31L31 31L31 32L30 32L30 31L29 31L29 33L28 33L28 34L26 34L26 35L27 35L27 36L25 36L25 34L24 34L24 36L25 36L25 37L27 37L27 39L28 39L28 38L29 38L29 39L31 39L31 40L29 40L29 41L28 41L28 43L27 43L27 41L26 41L26 42L24 42L24 43L27 43L27 44L28 44L28 47L30 47L30 48L31 48L31 50L32 50L32 51L31 51L31 52L32 52L32 51L33 51L33 53L32 53L32 54L33 54L33 55L34 55L34 54L35 54L35 52L36 52L36 49L35 49L35 48L34 48L34 47L35 47L35 46L38 46L38 45L39 45L39 46L40 46L40 51L38 51L38 49L39 49L39 47L38 47L38 49L37 49L37 51L38 51L38 52L40 52L40 53L42 53L42 52L41 52L41 46L40 46L40 45L41 45L41 44L40 44L40 45L39 45L39 44L37 44L37 43L36 43L36 44L37 44L37 45L34 45L34 47L33 47L33 45L32 45L32 43L33 43L33 44L35 44L35 43L33 43L33 41L32 41L32 40L33 40L33 39L31 39L31 38L33 38L33 37L34 37L34 38L35 38L35 39L34 39L34 42L35 42L35 39L37 39L37 42L38 42L38 37L44 37L44 38L43 38L43 39L42 39L42 40L40 40L40 38L39 38L39 40L40 40L40 41L39 41L39 43L40 43L40 42L41 42L41 41L43 41L43 42L42 42L42 44L43 44L43 45L44 45L44 46L43 46L43 47L42 47L42 49L44 49L44 51L45 51L45 53L46 53L46 55L47 55L47 56L49 56L49 54L51 54L51 55L52 55L52 54L51 54L51 53L49 53L49 54L48 54L48 52L47 52L47 51L46 51L46 50L47 50L47 49L48 49L48 47L49 47L49 48L51 48L51 47L52 47L52 48L53 48L53 49L55 49L55 50L56 50L56 49L55 49L55 46L54 46L54 45L55 45L55 44L56 44L56 43L55 43L55 42L54 42L54 43L53 43L53 41L52 41L52 40L47 40L47 39L48 39L48 38L49 38L49 39L52 39L52 38L53 38L53 36L55 36L55 35L53 35L53 34L54 34L54 33L55 33L55 31L54 31L54 33L51 33L51 31L49 31L49 32L50 32L50 35L49 35L49 33L48 33L48 31L47 31L47 30L48 30L48 29L46 29L46 28L48 28L48 27L45 27L45 26L43 26L43 27L45 27L45 29L43 29L43 28L42 28L42 25L41 25L41 22L40 22L40 21L43 21L43 22L42 22L42 23L43 23L43 22L44 22L44 16L45 16L45 13L44 13L44 12L45 12L45 11L43 11L43 12L41 12L41 9L43 9L43 10L44 10L44 4L45 4L45 7L46 7L46 5L47 5L47 3L44 3L44 2L43 2L43 3L42 3L42 2L40 2L40 3L39 3L39 4L40 4L40 3L41 3L41 4L43 4L43 5L42 5L42 6L41 6L41 5L39 5L39 7L40 7L40 6L41 6L41 7L42 7L42 6L43 6L43 8L40 8L40 9L39 9L39 8L38 8L38 9L35 9L35 7L36 7L36 5L38 5L38 4L37 4L37 3L38 3L38 2L37 2L37 3L36 3L36 2L34 2L34 1ZM9 3L9 4L10 4L10 3ZM33 3L33 5L34 5L34 7L33 7L33 8L32 8L32 11L29 11L29 10L28 10L28 11L27 11L27 12L28 12L28 11L29 11L29 12L32 12L32 13L33 13L33 12L32 12L32 11L33 11L33 10L34 10L34 12L35 12L35 14L36 14L36 13L37 13L37 12L39 12L39 13L38 13L38 15L39 15L39 17L38 17L38 16L37 16L37 15L35 15L35 17L38 17L38 18L39 18L39 19L37 19L37 18L35 18L35 19L36 19L36 20L35 20L35 22L34 22L34 23L32 23L32 27L33 27L33 26L34 26L34 25L37 25L37 24L34 24L34 23L35 23L35 22L37 22L37 23L38 23L38 26L39 26L39 27L37 27L37 26L36 26L36 27L37 27L37 28L35 28L35 30L36 30L36 31L34 31L34 32L35 32L35 34L34 34L34 33L33 33L33 34L34 34L34 35L32 35L32 33L29 33L29 34L28 34L28 36L27 36L27 37L28 37L28 36L29 36L29 37L31 37L31 36L32 36L32 37L33 37L33 36L34 36L34 37L35 37L35 38L37 38L37 37L38 37L38 36L40 36L40 35L38 35L38 34L39 34L39 33L40 33L40 34L42 34L42 35L44 35L44 37L45 37L45 39L43 39L43 41L44 41L44 45L45 45L45 46L44 46L44 47L45 47L45 48L44 48L44 49L45 49L45 50L46 50L46 48L47 48L47 47L46 47L46 45L47 45L47 46L49 46L49 47L50 47L50 45L47 45L47 44L49 44L49 43L50 43L50 44L51 44L51 46L52 46L52 45L54 45L54 44L53 44L53 43L52 43L52 41L51 41L51 43L50 43L50 42L49 42L49 41L48 41L48 43L47 43L47 42L46 42L46 41L47 41L47 40L46 40L46 41L45 41L45 39L47 39L47 38L46 38L46 37L45 37L45 36L47 36L47 35L48 35L48 36L49 36L49 37L51 37L51 38L52 38L52 37L51 37L51 36L53 36L53 35L50 35L50 36L49 36L49 35L48 35L48 34L47 34L47 35L46 35L46 32L47 32L47 31L46 31L46 30L45 30L45 31L43 31L43 29L41 29L41 30L40 30L40 32L39 32L39 29L40 29L40 27L41 27L41 26L40 26L40 24L39 24L39 21L40 21L40 18L41 18L41 20L43 20L43 19L42 19L42 18L43 18L43 17L42 17L42 15L43 15L43 16L44 16L44 15L43 15L43 14L44 14L44 13L41 13L41 14L40 14L40 15L39 15L39 13L40 13L40 10L39 10L39 9L38 9L38 11L37 11L37 12L36 12L36 10L34 10L34 9L33 9L33 8L34 8L34 7L35 7L35 5L36 5L36 4L35 4L35 5L34 5L34 3ZM43 3L43 4L44 4L44 3ZM12 4L12 6L11 6L11 5L10 5L10 6L11 6L11 7L12 7L12 8L11 8L11 10L9 10L9 11L10 11L10 12L8 12L8 13L10 13L10 14L11 14L11 15L12 15L12 14L11 14L11 13L12 13L12 12L11 12L11 10L13 10L13 9L14 9L14 8L15 8L15 7L16 7L16 6L15 6L15 7L14 7L14 5L13 5L13 4ZM27 5L27 8L30 8L30 5ZM12 6L12 7L13 7L13 8L12 8L12 9L13 9L13 8L14 8L14 7L13 7L13 6ZM19 6L19 7L20 7L20 6ZM22 6L22 7L23 7L23 6ZM28 6L28 7L29 7L29 6ZM37 6L37 7L38 7L38 6ZM48 6L48 7L49 7L49 6ZM6 10L6 11L7 11L7 10ZM16 10L16 12L15 12L15 13L17 13L17 11L18 11L18 10ZM2 11L2 13L3 13L3 12L4 12L4 11ZM6 13L6 14L7 14L7 13ZM47 13L47 14L49 14L49 13ZM53 13L53 14L52 14L52 15L53 15L53 14L54 14L54 13ZM18 15L18 16L17 16L17 17L18 17L18 18L16 18L16 17L15 17L15 19L16 19L16 20L17 20L17 21L15 21L15 20L14 20L14 19L13 19L13 21L14 21L14 22L15 22L15 23L10 23L10 24L13 24L13 25L14 25L14 27L15 27L15 26L16 26L16 25L15 25L15 23L16 23L16 22L18 22L18 21L19 21L19 20L20 20L20 19L19 19L19 16L20 16L20 15ZM22 15L22 16L23 16L23 15ZM24 15L24 16L26 16L26 15ZM40 15L40 17L39 17L39 18L40 18L40 17L41 17L41 15ZM50 15L50 16L51 16L51 15ZM13 17L13 18L14 18L14 17ZM6 18L6 19L8 19L8 21L9 21L9 22L10 22L10 21L9 21L9 19L8 19L8 18ZM1 19L1 20L2 20L2 19ZM10 19L10 20L11 20L11 22L12 22L12 19ZM17 19L17 20L19 20L19 19ZM31 20L31 21L32 21L32 20ZM38 20L38 21L37 21L37 22L38 22L38 21L39 21L39 20ZM49 20L49 21L51 21L51 22L52 22L52 23L53 23L53 24L52 24L52 25L51 25L51 26L53 26L53 24L55 24L55 25L56 25L56 24L55 24L55 23L53 23L53 22L52 22L52 21L51 21L51 20ZM0 22L0 23L1 23L1 24L0 24L0 26L1 26L1 24L2 24L2 23L3 23L3 22ZM4 22L4 24L5 24L5 22ZM49 22L49 24L48 24L48 25L49 25L49 26L50 26L50 25L49 25L49 24L50 24L50 22ZM18 23L18 24L17 24L17 26L18 26L18 27L16 27L16 28L15 28L15 29L18 29L18 30L17 30L17 32L16 32L16 30L14 30L14 29L13 29L13 30L14 30L14 31L15 31L15 33L14 33L14 37L16 37L16 36L18 36L18 37L21 37L21 38L22 38L22 35L21 35L21 36L20 36L20 34L21 34L21 33L22 33L22 31L23 31L23 30L22 30L22 29L21 29L21 28L19 28L19 25L20 25L20 24L19 24L19 23ZM7 24L7 25L6 25L6 26L8 26L8 24ZM33 24L33 25L34 25L34 24ZM46 24L46 26L47 26L47 24ZM5 27L5 30L8 30L8 27ZM27 27L27 30L30 30L30 27ZM49 27L49 30L52 30L52 27ZM6 28L6 29L7 29L7 28ZM18 28L18 29L19 29L19 30L20 30L20 32L19 32L19 33L18 33L18 34L17 34L17 33L16 33L16 35L18 35L18 36L19 36L19 34L20 34L20 33L21 33L21 31L22 31L22 30L20 30L20 29L19 29L19 28ZM28 28L28 29L29 29L29 28ZM37 28L37 29L38 29L38 28ZM50 28L50 29L51 29L51 28ZM3 29L3 30L4 30L4 29ZM37 30L37 32L38 32L38 30ZM24 31L24 32L25 32L25 31ZM52 31L52 32L53 32L53 31ZM12 32L12 33L13 33L13 32ZM40 32L40 33L41 33L41 32ZM1 33L1 34L2 34L2 33ZM7 33L7 34L5 34L5 35L7 35L7 34L9 34L9 33ZM37 33L37 34L38 34L38 33ZM43 33L43 34L44 34L44 35L45 35L45 34L44 34L44 33ZM11 34L11 35L10 35L10 36L9 36L9 35L8 35L8 36L9 36L9 37L7 37L7 38L6 38L6 39L7 39L7 38L9 38L9 39L10 39L10 40L11 40L11 41L13 41L13 40L12 40L12 38L11 38L11 39L10 39L10 38L9 38L9 37L10 37L10 36L13 36L13 35L12 35L12 34ZM30 34L30 36L31 36L31 34ZM34 35L34 36L35 36L35 35ZM37 35L37 36L38 36L38 35ZM1 36L1 37L2 37L2 36ZM14 38L14 39L15 39L15 38ZM3 40L3 41L5 41L5 40ZM29 41L29 42L31 42L31 43L32 43L32 41ZM16 42L16 43L18 43L18 42ZM19 42L19 44L21 44L21 45L23 45L23 44L22 44L22 43L20 43L20 42ZM11 43L11 44L12 44L12 43ZM45 43L45 45L46 45L46 44L47 44L47 43ZM51 43L51 44L52 44L52 43ZM29 44L29 46L32 46L32 45L31 45L31 44ZM26 45L26 46L24 46L24 47L25 47L25 48L24 48L24 49L25 49L25 48L27 48L27 47L26 47L26 46L27 46L27 45ZM1 46L1 47L2 47L2 46ZM31 47L31 48L32 48L32 49L33 49L33 51L34 51L34 52L35 52L35 51L34 51L34 49L33 49L33 47ZM36 47L36 48L37 48L37 47ZM6 48L6 49L8 49L8 50L9 50L9 49L8 49L8 48ZM14 49L14 50L15 50L15 49ZM27 49L27 52L30 52L30 49ZM49 49L49 52L52 52L52 49ZM28 50L28 51L29 51L29 50ZM42 50L42 51L43 51L43 50ZM50 50L50 51L51 51L51 50ZM53 50L53 53L54 53L54 52L55 52L55 51L54 51L54 50ZM25 51L25 53L24 53L24 54L25 54L25 53L26 53L26 51ZM43 52L43 53L44 53L44 52ZM46 52L46 53L47 53L47 52ZM30 53L30 54L31 54L31 53ZM33 53L33 54L34 54L34 53ZM40 54L40 55L41 55L41 56L42 56L42 55L43 55L43 54ZM17 56L17 57L20 57L20 56ZM26 56L26 57L27 57L27 56ZM44 56L44 57L45 57L45 56ZM56 56L56 57L57 57L57 56ZM0 0L0 7L7 7L7 0ZM1 1L1 6L6 6L6 1ZM2 2L2 5L5 5L5 2ZM50 0L50 7L57 7L57 0ZM51 1L51 6L56 6L56 1ZM52 2L52 5L55 5L55 2ZM0 50L0 57L7 57L7 50ZM1 51L1 56L6 56L6 51ZM2 52L2 55L5 55L5 52Z" fill="#000000"/></g></g></svg>
