<?xml version="1.0" encoding="UTF-8"?>
<svg xmlns="http://www.w3.org/2000/svg" version="1.1" width="300" height="300" viewBox="0 0 300 300"><rect x="0" y="0" width="300" height="300" fill="#fefefe"/><g transform="scale(4.615)"><g transform="translate(4,4)"><path fill-rule="evenodd" d="M11 0L11 3L10 3L10 1L8 1L8 2L9 2L9 3L8 3L8 4L11 4L11 3L12 3L12 5L13 5L13 4L14 4L14 2L15 2L15 3L16 3L16 2L17 2L17 4L19 4L19 5L20 5L20 7L19 7L19 6L18 6L18 5L17 5L17 6L16 6L16 7L15 7L15 6L14 6L14 7L15 7L15 8L16 8L16 9L15 9L15 10L13 10L13 9L14 9L14 8L13 8L13 6L12 6L12 8L13 8L13 9L12 9L12 10L13 10L13 11L11 11L11 8L10 8L10 7L11 7L11 5L10 5L10 7L9 7L9 5L8 5L8 7L9 7L9 8L6 8L6 9L5 9L5 8L0 8L0 9L4 9L4 11L2 11L2 15L1 15L1 12L0 12L0 16L2 16L2 15L3 15L3 17L0 17L0 21L1 21L1 22L0 22L0 23L1 23L1 22L3 22L3 20L2 20L2 19L3 19L3 18L4 18L4 20L5 20L5 21L7 21L7 22L4 22L4 23L8 23L8 24L5 24L5 26L4 26L4 25L3 25L3 23L2 23L2 25L1 25L1 24L0 24L0 25L1 25L1 29L0 29L0 30L2 30L2 29L3 29L3 30L4 30L4 31L3 31L3 32L2 32L2 34L1 34L1 31L0 31L0 35L1 35L1 36L0 36L0 37L1 37L1 38L0 38L0 39L1 39L1 43L3 43L3 44L5 44L5 45L2 45L2 44L1 44L1 45L0 45L0 48L5 48L5 47L7 47L7 48L6 48L6 49L7 49L7 48L10 48L10 47L11 47L11 49L8 49L8 51L9 51L9 52L8 52L8 57L9 57L9 56L10 56L10 57L11 57L11 54L12 54L12 53L13 53L13 52L15 52L15 53L14 53L14 54L15 54L15 55L14 55L14 56L15 56L15 55L16 55L16 56L17 56L17 57L19 57L19 56L18 56L18 55L20 55L20 54L19 54L19 53L20 53L20 52L23 52L23 50L25 50L25 51L26 51L26 52L24 52L24 53L23 53L23 54L21 54L21 56L20 56L20 57L21 57L21 56L23 56L23 57L26 57L26 56L27 56L27 57L29 57L29 56L30 56L30 57L31 57L31 56L35 56L35 57L39 57L39 56L40 56L40 55L41 55L41 57L44 57L44 54L45 54L45 53L44 53L44 52L45 52L45 50L44 50L44 51L43 51L43 49L44 49L44 48L45 48L45 49L46 49L46 48L45 48L45 47L47 47L47 48L48 48L48 49L47 49L47 50L48 50L48 53L47 53L47 51L46 51L46 53L47 53L47 55L45 55L45 57L48 57L48 56L50 56L50 57L52 57L52 55L51 55L51 53L52 53L52 54L55 54L55 51L56 51L56 53L57 53L57 51L56 51L56 50L55 50L55 48L56 48L56 49L57 49L57 48L56 48L56 46L57 46L57 43L56 43L56 42L55 42L55 39L57 39L57 37L56 37L56 36L55 36L55 35L56 35L56 34L57 34L57 32L56 32L56 30L57 30L57 29L54 29L54 28L55 28L55 27L56 27L56 28L57 28L57 27L56 27L56 26L57 26L57 25L56 25L56 22L57 22L57 20L56 20L56 22L55 22L55 23L53 23L53 21L51 21L51 20L52 20L52 19L53 19L53 20L55 20L55 19L56 19L56 18L57 18L57 17L56 17L56 16L57 16L57 15L56 15L56 14L57 14L57 12L56 12L56 8L55 8L55 10L54 10L54 11L51 11L51 10L53 10L53 9L54 9L54 8L53 8L53 9L52 9L52 8L51 8L51 10L50 10L50 8L49 8L49 6L48 6L48 7L47 7L47 5L48 5L48 0L46 0L46 1L47 1L47 2L44 2L44 3L41 3L41 2L43 2L43 0L41 0L41 1L40 1L40 0L39 0L39 1L38 1L38 0L37 0L37 1L38 1L38 3L41 3L41 4L40 4L40 5L39 5L39 6L38 6L38 4L37 4L37 3L36 3L36 0L35 0L35 1L33 1L33 0L32 0L32 1L31 1L31 0L28 0L28 1L25 1L25 0L23 0L23 1L22 1L22 0L21 0L21 1L20 1L20 0L18 0L18 1L14 1L14 0L13 0L13 1L14 1L14 2L13 2L13 3L12 3L12 0ZM18 1L18 2L19 2L19 4L21 4L21 5L24 5L24 4L23 4L23 3L26 3L26 4L25 4L25 8L24 8L24 6L23 6L23 8L19 8L19 7L18 7L18 6L17 6L17 7L16 7L16 8L19 8L19 9L20 9L20 10L19 10L19 11L22 11L22 10L21 10L21 9L23 9L23 8L24 8L24 9L25 9L25 8L26 8L26 4L27 4L27 3L28 3L28 4L29 4L29 3L28 3L28 2L23 2L23 3L22 3L22 2L19 2L19 1ZM32 1L32 2L31 2L31 3L30 3L30 4L31 4L31 8L32 8L32 10L31 10L31 11L30 11L30 10L29 10L29 9L28 9L28 10L27 10L27 11L26 11L26 12L25 12L25 11L23 11L23 13L22 13L22 12L19 12L19 13L20 13L20 14L17 14L17 13L18 13L18 12L17 12L17 11L18 11L18 9L16 9L16 10L15 10L15 11L16 11L16 12L15 12L15 13L13 13L13 12L14 12L14 11L13 11L13 12L11 12L11 13L10 13L10 12L9 12L9 10L10 10L10 9L9 9L9 10L8 10L8 12L7 12L7 11L6 11L6 10L7 10L7 9L6 9L6 10L5 10L5 11L4 11L4 13L5 13L5 15L4 15L4 14L3 14L3 15L4 15L4 17L6 17L6 18L10 18L10 20L9 20L9 22L8 22L8 23L9 23L9 24L10 24L10 25L6 25L6 26L11 26L11 27L9 27L9 28L11 28L11 27L12 27L12 26L11 26L11 23L12 23L12 21L14 21L14 22L13 22L13 24L12 24L12 25L13 25L13 24L14 24L14 27L13 27L13 28L12 28L12 30L11 30L11 29L10 29L10 30L9 30L9 31L8 31L8 32L9 32L9 33L8 33L8 36L10 36L10 37L8 37L8 38L7 38L7 37L6 37L6 36L7 36L7 35L6 35L6 36L5 36L5 37L4 37L4 36L3 36L3 35L5 35L5 34L3 34L3 35L2 35L2 36L1 36L1 37L2 37L2 38L5 38L5 40L4 40L4 39L2 39L2 42L4 42L4 43L6 43L6 44L8 44L8 46L7 46L7 45L5 45L5 46L3 46L3 47L5 47L5 46L7 46L7 47L8 47L8 46L11 46L11 47L12 47L12 46L11 46L11 45L12 45L12 43L13 43L13 45L14 45L14 46L17 46L17 47L18 47L18 46L17 46L17 45L18 45L18 44L17 44L17 45L16 45L16 44L15 44L15 45L14 45L14 43L13 43L13 42L15 42L15 43L18 43L18 42L19 42L19 45L20 45L20 46L19 46L19 49L20 49L20 50L21 50L21 51L22 51L22 50L21 50L21 49L23 49L23 48L24 48L24 49L26 49L26 48L27 48L27 47L26 47L26 45L28 45L28 46L30 46L30 45L33 45L33 46L35 46L35 45L34 45L34 43L35 43L35 44L36 44L36 43L37 43L37 42L35 42L35 40L38 40L38 42L39 42L39 45L38 45L38 46L39 46L39 45L41 45L41 44L42 44L42 42L41 42L41 40L44 40L44 41L43 41L43 44L44 44L44 45L45 45L45 46L44 46L44 47L43 47L43 46L41 46L41 48L39 48L39 47L38 47L38 48L37 48L37 49L38 49L38 50L36 50L36 49L34 49L34 50L33 50L33 47L32 47L32 46L31 46L31 47L32 47L32 50L31 50L31 53L30 53L30 54L27 54L27 53L26 53L26 54L25 54L25 53L24 53L24 54L23 54L23 55L24 55L24 56L26 56L26 55L27 55L27 56L29 56L29 55L30 55L30 56L31 56L31 54L32 54L32 53L33 53L33 54L35 54L35 56L36 56L36 54L35 54L35 51L34 51L34 50L36 50L36 52L37 52L37 53L38 53L38 54L37 54L37 56L39 56L39 55L38 55L38 54L40 54L40 53L42 53L42 52L43 52L43 51L42 51L42 50L41 50L41 48L42 48L42 49L43 49L43 48L44 48L44 47L45 47L45 46L47 46L47 45L48 45L48 46L50 46L50 47L48 47L48 48L50 48L50 47L51 47L51 48L53 48L53 47L55 47L55 46L56 46L56 43L55 43L55 44L54 44L54 45L52 45L52 44L53 44L53 43L54 43L54 42L53 42L53 41L54 41L54 40L53 40L53 41L51 41L51 42L50 42L50 43L48 43L48 44L47 44L47 45L45 45L45 44L46 44L46 43L45 43L45 42L48 42L48 41L49 41L49 40L50 40L50 39L53 39L53 35L55 35L55 34L56 34L56 32L54 32L54 33L52 33L52 32L51 32L51 31L48 31L48 29L46 29L46 30L47 30L47 31L45 31L45 32L43 32L43 31L44 31L44 30L45 30L45 28L46 28L46 27L47 27L47 28L48 28L48 26L47 26L47 24L45 24L45 23L46 23L46 22L47 22L47 21L48 21L48 20L49 20L49 19L52 19L52 18L56 18L56 17L55 17L55 16L53 16L53 15L54 15L54 14L56 14L56 13L55 13L55 12L54 12L54 14L53 14L53 15L50 15L50 14L51 14L51 12L50 12L50 11L49 11L49 10L47 10L47 8L46 8L46 6L45 6L45 4L46 4L46 5L47 5L47 3L44 3L44 6L43 6L43 5L40 5L40 6L39 6L39 7L40 7L40 8L38 8L38 11L39 11L39 13L38 13L38 14L37 14L37 13L35 13L35 12L37 12L37 11L36 11L36 10L37 10L37 9L35 9L35 8L37 8L37 7L38 7L38 6L37 6L37 7L36 7L36 5L37 5L37 4L36 4L36 5L35 5L35 3L34 3L34 2L33 2L33 1ZM32 2L32 3L31 3L31 4L32 4L32 5L33 5L33 6L32 6L32 7L33 7L33 9L34 9L34 8L35 8L35 5L33 5L33 4L34 4L34 3L33 3L33 2ZM32 3L32 4L33 4L33 3ZM15 4L15 5L16 5L16 4ZM27 5L27 8L30 8L30 5ZM21 6L21 7L22 7L22 6ZM28 6L28 7L29 7L29 6ZM33 6L33 7L34 7L34 6ZM40 6L40 7L41 7L41 8L42 8L42 9L41 9L41 10L39 10L39 11L40 11L40 12L41 12L41 11L43 11L43 13L41 13L41 14L38 14L38 15L39 15L39 16L38 16L38 17L37 17L37 16L35 16L35 14L32 14L32 12L31 12L31 13L30 13L30 14L29 14L29 13L28 13L28 12L29 12L29 11L27 11L27 12L26 12L26 13L23 13L23 14L22 14L22 13L21 13L21 15L23 15L23 16L26 16L26 17L27 17L27 18L28 18L28 19L27 19L27 20L29 20L29 19L30 19L30 18L31 18L31 21L29 21L29 22L31 22L31 21L32 21L32 20L33 20L33 21L34 21L34 20L35 20L35 23L34 23L34 22L33 22L33 23L32 23L32 24L31 24L31 25L29 25L29 26L28 26L28 25L27 25L27 26L26 26L26 25L25 25L25 24L30 24L30 23L27 23L27 22L28 22L28 21L26 21L26 19L25 19L25 17L22 17L22 16L21 16L21 17L22 17L22 18L20 18L20 16L19 16L19 15L18 15L18 16L16 16L16 13L17 13L17 12L16 12L16 13L15 13L15 14L13 14L13 13L12 13L12 16L10 16L10 13L9 13L9 12L8 12L8 13L7 13L7 12L6 12L6 11L5 11L5 12L6 12L6 13L7 13L7 14L6 14L6 15L8 15L8 16L10 16L10 18L12 18L12 17L13 17L13 18L15 18L15 19L18 19L18 20L17 20L17 21L16 21L16 20L15 20L15 21L16 21L16 22L14 22L14 24L15 24L15 25L16 25L16 24L17 24L17 25L18 25L18 26L15 26L15 27L14 27L14 31L13 31L13 30L12 30L12 31L10 31L10 32L11 32L11 33L9 33L9 34L10 34L10 35L11 35L11 36L12 36L12 38L11 38L11 37L10 37L10 38L11 38L11 39L7 39L7 38L6 38L6 39L7 39L7 40L6 40L6 41L7 41L7 40L8 40L8 44L9 44L9 42L10 42L10 40L11 40L11 43L12 43L12 42L13 42L13 40L16 40L16 41L17 41L17 42L18 42L18 41L19 41L19 42L20 42L20 45L21 45L21 47L20 47L20 49L21 49L21 47L25 47L25 48L26 48L26 47L25 47L25 45L24 45L24 44L28 44L28 45L30 45L30 44L29 44L29 43L31 43L31 44L33 44L33 43L34 43L34 42L33 42L33 41L32 41L32 40L31 40L31 41L32 41L32 42L27 42L27 41L28 41L28 39L26 39L26 38L28 38L28 37L26 37L26 38L25 38L25 36L26 36L26 35L27 35L27 33L26 33L26 34L25 34L25 33L23 33L23 34L22 34L22 33L21 33L21 32L25 32L25 31L26 31L26 32L28 32L28 33L29 33L29 34L30 34L30 36L29 36L29 37L31 37L31 38L29 38L29 39L33 39L33 40L35 40L35 39L37 39L37 38L38 38L38 37L40 37L40 38L43 38L43 37L44 37L44 38L45 38L45 39L44 39L44 40L47 40L47 39L50 39L50 38L51 38L51 37L52 37L52 35L53 35L53 34L52 34L52 33L51 33L51 32L50 32L50 34L48 34L48 35L47 35L47 34L45 34L45 33L43 33L43 32L41 32L41 33L39 33L39 34L40 34L40 35L38 35L38 33L37 33L37 32L34 32L34 31L36 31L36 30L37 30L37 29L38 29L38 28L40 28L40 27L37 27L37 28L36 28L36 26L34 26L34 27L33 27L33 26L32 26L32 24L33 24L33 25L37 25L37 26L38 26L38 25L39 25L39 24L37 24L37 23L39 23L39 22L40 22L40 24L41 24L41 25L40 25L40 26L41 26L41 28L42 28L42 26L44 26L44 27L43 27L43 29L40 29L40 30L44 30L44 28L45 28L45 26L44 26L44 24L41 24L41 22L42 22L42 23L44 23L44 20L45 20L45 18L44 18L44 15L45 15L45 17L47 17L47 18L46 18L46 20L48 20L48 19L49 19L49 18L50 18L50 17L49 17L49 16L50 16L50 15L49 15L49 14L50 14L50 12L49 12L49 13L47 13L47 14L44 14L44 15L42 15L42 16L41 16L41 14L43 14L43 13L44 13L44 11L45 11L45 12L47 12L47 10L46 10L46 11L45 11L45 9L44 9L44 8L43 8L43 6L42 6L42 7L41 7L41 6ZM44 6L44 7L45 7L45 6ZM32 10L32 11L33 11L33 10ZM33 12L33 13L34 13L34 12ZM52 12L52 13L53 13L53 12ZM26 13L26 14L25 14L25 15L26 15L26 16L27 16L27 17L28 17L28 16L29 16L29 14L28 14L28 13ZM8 14L8 15L9 15L9 14ZM23 14L23 15L24 15L24 14ZM30 14L30 15L31 15L31 14ZM14 15L14 17L16 17L16 18L18 18L18 19L19 19L19 20L20 20L20 21L19 21L19 22L20 22L20 23L19 23L19 25L20 25L20 26L18 26L18 27L17 27L17 28L18 28L18 29L16 29L16 28L15 28L15 29L16 29L16 30L18 30L18 29L19 29L19 30L21 30L21 31L23 31L23 28L25 28L25 29L26 29L26 28L25 28L25 27L26 27L26 26L24 26L24 27L23 27L23 26L22 26L22 27L21 27L21 25L23 25L23 23L24 23L24 24L25 24L25 23L26 23L26 22L25 22L25 21L24 21L24 20L21 20L21 19L19 19L19 18L18 18L18 17L16 17L16 16L15 16L15 15ZM27 15L27 16L28 16L28 15ZM32 15L32 17L31 17L31 18L32 18L32 19L33 19L33 20L34 20L34 19L36 19L36 20L38 20L38 22L39 22L39 21L41 21L41 20L38 20L38 19L39 19L39 17L41 17L41 16L39 16L39 17L38 17L38 18L37 18L37 17L35 17L35 16L33 16L33 15ZM48 15L48 16L47 16L47 17L48 17L48 16L49 16L49 15ZM6 16L6 17L7 17L7 16ZM42 16L42 17L43 17L43 16ZM1 18L1 19L2 19L2 18ZM22 18L22 19L24 19L24 18ZM41 18L41 19L42 19L42 20L44 20L44 18L43 18L43 19L42 19L42 18ZM6 19L6 20L7 20L7 21L8 21L8 19ZM11 19L11 20L14 20L14 19ZM17 21L17 22L18 22L18 21ZM23 21L23 22L24 22L24 21ZM49 21L49 22L48 22L48 25L50 25L50 26L51 26L51 25L52 25L52 26L53 26L53 27L54 27L54 26L53 26L53 23L51 23L51 25L50 25L50 22L51 22L51 21ZM9 22L9 23L11 23L11 22ZM15 23L15 24L16 24L16 23ZM17 23L17 24L18 24L18 23ZM21 23L21 24L20 24L20 25L21 25L21 24L22 24L22 23ZM2 25L2 26L3 26L3 25ZM55 25L55 26L56 26L56 25ZM31 26L31 28L32 28L32 29L33 29L33 30L31 30L31 31L28 31L28 32L29 32L29 33L31 33L31 31L32 31L32 34L31 34L31 35L33 35L33 36L32 36L32 37L33 37L33 38L34 38L34 39L35 39L35 36L37 36L37 37L38 37L38 35L37 35L37 34L35 34L35 33L34 33L34 34L33 34L33 30L35 30L35 28L33 28L33 27L32 27L32 26ZM5 27L5 30L8 30L8 27ZM20 27L20 28L19 28L19 29L22 29L22 28L21 28L21 27ZM27 27L27 30L30 30L30 27ZM49 27L49 30L52 30L52 27ZM6 28L6 29L7 29L7 28ZM28 28L28 29L29 29L29 28ZM50 28L50 29L51 29L51 28ZM53 29L53 31L55 31L55 30L54 30L54 29ZM24 30L24 31L25 31L25 30ZM38 30L38 32L39 32L39 30ZM4 31L4 32L3 32L3 33L6 33L6 34L7 34L7 33L6 33L6 32L7 32L7 31ZM17 31L17 32L16 32L16 33L15 33L15 32L13 32L13 34L12 34L12 33L11 33L11 34L12 34L12 36L13 36L13 35L14 35L14 33L15 33L15 36L14 36L14 38L12 38L12 39L11 39L11 40L13 40L13 39L14 39L14 38L15 38L15 39L16 39L16 40L17 40L17 41L18 41L18 40L17 40L17 36L19 36L19 37L22 37L22 38L24 38L24 37L23 37L23 36L24 36L24 34L23 34L23 35L22 35L22 36L21 36L21 35L18 35L18 34L21 34L21 33L18 33L18 34L17 34L17 32L19 32L19 31ZM47 31L47 32L48 32L48 33L49 33L49 32L48 32L48 31ZM54 33L54 34L55 34L55 33ZM34 34L34 36L35 36L35 34ZM42 34L42 35L43 35L43 36L40 36L40 37L43 37L43 36L44 36L44 37L45 37L45 38L46 38L46 39L47 39L47 37L48 37L48 36L49 36L49 38L50 38L50 37L51 37L51 36L50 36L50 35L52 35L52 34L50 34L50 35L48 35L48 36L47 36L47 35L45 35L45 34ZM44 35L44 36L45 36L45 35ZM46 36L46 37L47 37L47 36ZM15 37L15 38L16 38L16 37ZM19 38L19 39L20 39L20 38ZM54 38L54 39L55 39L55 38ZM22 39L22 40L21 40L21 41L20 41L20 40L19 40L19 41L20 41L20 42L21 42L21 43L22 43L22 42L23 42L23 44L24 44L24 43L27 43L27 42L26 42L26 41L27 41L27 40L26 40L26 39L25 39L25 40L24 40L24 39ZM38 39L38 40L41 40L41 39ZM3 40L3 41L4 41L4 40ZM29 40L29 41L30 41L30 40ZM23 41L23 42L25 42L25 41ZM39 41L39 42L40 42L40 41ZM44 41L44 42L45 42L45 41ZM6 42L6 43L7 43L7 42ZM32 42L32 43L33 43L33 42ZM51 42L51 43L50 43L50 44L48 44L48 45L50 45L50 46L51 46L51 43L53 43L53 42ZM10 44L10 45L11 45L11 44ZM21 44L21 45L22 45L22 46L23 46L23 45L22 45L22 44ZM1 45L1 47L2 47L2 45ZM36 46L36 47L34 47L34 48L36 48L36 47L37 47L37 46ZM13 47L13 48L12 48L12 49L14 49L14 50L13 50L13 51L14 51L14 50L17 50L17 48L15 48L15 49L14 49L14 47ZM28 47L28 48L29 48L29 47ZM42 47L42 48L43 48L43 47ZM38 48L38 49L39 49L39 48ZM27 49L27 52L30 52L30 49ZM49 49L49 52L52 52L52 49ZM9 50L9 51L11 51L11 52L9 52L9 54L10 54L10 53L12 53L12 50ZM28 50L28 51L29 51L29 50ZM38 50L38 51L37 51L37 52L38 52L38 53L39 53L39 52L38 52L38 51L40 51L40 52L42 52L42 51L41 51L41 50ZM50 50L50 51L51 51L51 50ZM54 50L54 51L55 51L55 50ZM17 51L17 52L16 52L16 53L15 53L15 54L16 54L16 53L17 53L17 52L18 52L18 51ZM19 51L19 52L20 52L20 51ZM32 51L32 52L33 52L33 53L34 53L34 52L33 52L33 51ZM53 52L53 53L54 53L54 52ZM43 53L43 54L44 54L44 53ZM17 54L17 55L18 55L18 54ZM12 55L12 56L13 56L13 55ZM42 55L42 56L43 56L43 55ZM50 55L50 56L51 56L51 55ZM53 55L53 56L55 56L55 57L56 57L56 56L55 56L55 55ZM0 0L0 7L7 7L7 0ZM1 1L1 6L6 6L6 1ZM2 2L2 5L5 5L5 2ZM50 0L50 7L57 7L57 0ZM51 1L51 6L56 6L56 1ZM52 2L52 5L55 5L55 2ZM0 50L0 57L7 57L7 50ZM1 51L1 56L6 56L6 51ZM2 52L2 55L5 55L5 52Z" fill="#000000"/></g></g></svg>
