<?xml version="1.0" encoding="UTF-8"?>
<svg xmlns="http://www.w3.org/2000/svg" version="1.1" width="300" height="300" viewBox="0 0 300 300"><rect x="0" y="0" width="300" height="300" fill="#fefefe"/><g transform="scale(4.615)"><g transform="translate(4,4)"><path fill-rule="evenodd" d="M10 0L10 2L9 2L9 1L8 1L8 2L9 2L9 3L8 3L8 4L9 4L9 3L10 3L10 2L11 2L11 3L12 3L12 2L13 2L13 4L10 4L10 5L8 5L8 7L9 7L9 6L10 6L10 7L11 7L11 9L10 9L10 10L9 10L9 8L6 8L6 9L5 9L5 8L0 8L0 9L1 9L1 10L2 10L2 9L4 9L4 13L3 13L3 14L2 14L2 15L1 15L1 14L0 14L0 17L1 17L1 18L2 18L2 17L4 17L4 19L3 19L3 20L2 20L2 21L0 21L0 22L4 22L4 23L2 23L2 24L4 24L4 27L3 27L3 29L4 29L4 30L3 30L3 31L4 31L4 33L1 33L1 34L2 34L2 35L0 35L0 36L2 36L2 35L3 35L3 38L4 38L4 39L2 39L2 37L1 37L1 38L0 38L0 39L1 39L1 42L2 42L2 43L3 43L3 42L4 42L4 43L5 43L5 42L4 42L4 41L5 41L5 40L4 40L4 39L7 39L7 40L6 40L6 41L8 41L8 42L6 42L6 43L8 43L8 45L7 45L7 44L5 44L5 45L7 45L7 46L5 46L5 47L3 47L3 44L2 44L2 47L1 47L1 45L0 45L0 48L5 48L5 47L9 47L9 43L10 43L10 44L11 44L11 43L12 43L12 44L13 44L13 45L14 45L14 46L15 46L15 41L14 41L14 42L13 42L13 43L12 43L12 41L13 41L13 40L16 40L16 39L15 39L15 38L16 38L16 37L14 37L14 36L15 36L15 35L14 35L14 34L15 34L15 31L16 31L16 29L18 29L18 30L17 30L17 32L16 32L16 33L18 33L18 34L17 34L17 36L18 36L18 37L17 37L17 39L18 39L18 40L17 40L17 41L19 41L19 42L18 42L18 43L16 43L16 44L18 44L18 45L17 45L17 49L18 49L18 51L16 51L16 52L15 52L15 53L16 53L16 54L15 54L15 55L14 55L14 56L15 56L15 57L16 57L16 56L17 56L17 57L19 57L19 56L18 56L18 55L17 55L17 54L19 54L19 55L20 55L20 54L19 54L19 53L20 53L20 52L21 52L21 51L20 51L20 49L21 49L21 50L25 50L25 51L26 51L26 52L24 52L24 53L23 53L23 54L22 54L22 53L21 53L21 54L22 54L22 56L24 56L24 57L26 57L26 56L24 56L24 55L23 55L23 54L24 54L24 53L25 53L25 55L26 55L26 54L30 54L30 53L31 53L31 51L32 51L32 52L33 52L33 51L35 51L35 52L34 52L34 53L35 53L35 54L36 54L36 56L35 56L35 55L34 55L34 54L33 54L33 53L32 53L32 54L31 54L31 56L30 56L30 55L29 55L29 56L27 56L27 57L29 57L29 56L30 56L30 57L31 57L31 56L35 56L35 57L39 57L39 56L37 56L37 55L40 55L40 56L42 56L42 55L44 55L44 54L45 54L45 53L44 53L44 52L45 52L45 51L43 51L43 49L44 49L44 48L43 48L43 47L42 47L42 48L41 48L41 46L43 46L43 45L44 45L44 47L47 47L47 48L45 48L45 50L46 50L46 52L47 52L47 50L48 50L48 54L46 54L46 55L47 55L47 56L46 56L46 57L47 57L47 56L48 56L48 57L49 57L49 56L50 56L50 57L52 57L52 55L51 55L51 53L52 53L52 54L53 54L53 55L54 55L54 56L53 56L53 57L54 57L54 56L55 56L55 57L56 57L56 56L55 56L55 53L56 53L56 52L55 52L55 51L54 51L54 50L57 50L57 48L56 48L56 46L57 46L57 45L56 45L56 44L55 44L55 43L56 43L56 42L55 42L55 39L57 39L57 37L55 37L55 36L56 36L56 34L55 34L55 32L56 32L56 33L57 33L57 32L56 32L56 30L57 30L57 28L56 28L56 26L57 26L57 25L56 25L56 22L57 22L57 19L56 19L56 18L57 18L57 17L56 17L56 16L57 16L57 15L56 15L56 14L57 14L57 12L56 12L56 8L55 8L55 10L54 10L54 11L53 11L53 10L52 10L52 11L51 11L51 10L49 10L49 9L50 9L50 8L49 8L49 6L48 6L48 9L47 9L47 5L48 5L48 0L46 0L46 1L45 1L45 2L44 2L44 3L43 3L43 4L40 4L40 5L39 5L39 6L38 6L38 3L36 3L36 0L35 0L35 1L33 1L33 2L32 2L32 0L29 0L29 1L28 1L28 0L27 0L27 1L26 1L26 0L23 0L23 2L22 2L22 0L21 0L21 1L20 1L20 0L17 0L17 2L18 2L18 1L19 1L19 2L22 2L22 3L23 3L23 4L24 4L24 5L23 5L23 6L22 6L22 7L21 7L21 4L19 4L19 3L17 3L17 4L19 4L19 5L20 5L20 7L19 7L19 6L18 6L18 7L17 7L17 6L16 6L16 7L15 7L15 6L14 6L14 5L13 5L13 4L14 4L14 2L15 2L15 3L16 3L16 1L14 1L14 0L13 0L13 1L11 1L11 0ZM37 0L37 1L38 1L38 2L39 2L39 3L41 3L41 2L43 2L43 0L41 0L41 1L40 1L40 0L39 0L39 1L38 1L38 0ZM13 1L13 2L14 2L14 1ZM25 1L25 2L23 2L23 3L26 3L26 4L25 4L25 8L26 8L26 4L27 4L27 3L28 3L28 4L30 4L30 3L28 3L28 2L26 2L26 1ZM29 1L29 2L31 2L31 3L32 3L32 4L31 4L31 8L32 8L32 10L27 10L27 11L26 11L26 12L25 12L25 11L24 11L24 13L22 13L22 12L21 12L21 11L22 11L22 10L23 10L23 8L24 8L24 6L23 6L23 7L22 7L22 8L20 8L20 10L21 10L21 11L19 11L19 13L20 13L20 14L19 14L19 17L18 17L18 16L17 16L17 13L18 13L18 12L17 12L17 11L18 11L18 10L19 10L19 9L16 9L16 8L17 8L17 7L16 7L16 8L14 8L14 9L13 9L13 8L12 8L12 9L11 9L11 10L10 10L10 11L11 11L11 13L9 13L9 12L8 12L8 9L6 9L6 10L5 10L5 13L6 13L6 14L4 14L4 16L5 16L5 17L6 17L6 18L7 18L7 17L8 17L8 19L6 19L6 20L5 20L5 19L4 19L4 21L5 21L5 22L7 22L7 23L5 23L5 24L8 24L8 21L10 21L10 22L11 22L11 24L12 24L12 22L13 22L13 21L14 21L14 22L16 22L16 21L17 21L17 24L16 24L16 23L15 23L15 24L14 24L14 23L13 23L13 24L14 24L14 26L15 26L15 28L14 28L14 27L13 27L13 25L10 25L10 23L9 23L9 27L10 27L10 26L11 26L11 27L13 27L13 29L11 29L11 28L10 28L10 29L9 29L9 30L10 30L10 29L11 29L11 30L12 30L12 32L11 32L11 31L10 31L10 32L9 32L9 31L8 31L8 32L7 32L7 31L5 31L5 32L7 32L7 33L6 33L6 34L5 34L5 33L4 33L4 34L3 34L3 35L4 35L4 34L5 34L5 36L4 36L4 38L7 38L7 37L5 37L5 36L8 36L8 37L9 37L9 41L10 41L10 42L11 42L11 41L10 41L10 39L11 39L11 38L10 38L10 37L9 37L9 36L11 36L11 34L12 34L12 35L13 35L13 34L12 34L12 32L13 32L13 33L14 33L14 31L15 31L15 30L14 30L14 29L16 29L16 28L18 28L18 29L19 29L19 28L22 28L22 29L20 29L20 30L19 30L19 31L20 31L20 32L19 32L19 33L20 33L20 34L19 34L19 35L22 35L22 36L19 36L19 37L18 37L18 38L19 38L19 39L20 39L20 38L19 38L19 37L23 37L23 38L24 38L24 37L23 37L23 36L24 36L24 34L23 34L23 33L25 33L25 35L26 35L26 36L25 36L25 40L24 40L24 39L22 39L22 40L20 40L20 42L21 42L21 43L20 43L20 44L19 44L19 45L20 45L20 46L18 46L18 47L19 47L19 49L20 49L20 47L21 47L21 49L23 49L23 47L24 47L24 46L23 46L23 45L22 45L22 44L21 44L21 43L22 43L22 42L24 42L24 41L25 41L25 43L29 43L29 45L28 45L28 44L25 44L25 48L24 48L24 49L25 49L25 50L26 50L26 49L25 49L25 48L28 48L28 47L29 47L29 45L30 45L30 46L31 46L31 45L32 45L32 47L31 47L31 48L32 48L32 49L31 49L31 50L32 50L32 51L33 51L33 50L36 50L36 52L39 52L39 53L38 53L38 54L40 54L40 53L42 53L42 52L43 52L43 51L42 51L42 50L41 50L41 48L39 48L39 47L40 47L40 46L39 46L39 45L41 45L41 44L42 44L42 42L41 42L41 43L40 43L40 44L39 44L39 45L38 45L38 46L39 46L39 47L38 47L38 48L37 48L37 49L38 49L38 50L36 50L36 49L35 49L35 48L36 48L36 47L34 47L34 49L33 49L33 48L32 48L32 47L33 47L33 46L35 46L35 45L34 45L34 43L35 43L35 44L36 44L36 43L37 43L37 42L35 42L35 40L38 40L38 42L39 42L39 41L41 41L41 40L42 40L42 41L43 41L43 42L44 42L44 43L43 43L43 44L44 44L44 45L45 45L45 46L48 46L48 45L49 45L49 46L50 46L50 47L51 47L51 48L52 48L52 47L53 47L53 45L52 45L52 44L53 44L53 43L54 43L54 42L53 42L53 41L51 41L51 42L50 42L50 43L49 43L49 42L48 42L48 41L49 41L49 39L52 39L52 40L53 40L53 39L52 39L52 38L53 38L53 35L55 35L55 34L54 34L54 33L52 33L52 32L53 32L53 31L52 31L52 32L51 32L51 31L50 31L50 32L49 32L49 31L48 31L48 30L47 30L47 29L48 29L48 27L47 27L47 25L49 25L49 24L50 24L50 26L51 26L51 25L53 25L53 23L55 23L55 22L56 22L56 21L55 21L55 20L56 20L56 19L55 19L55 20L53 20L53 19L52 19L52 20L51 20L51 21L49 21L49 20L48 20L48 21L45 21L45 20L44 20L44 18L45 18L45 19L46 19L46 20L47 20L47 19L48 19L48 18L47 18L47 17L49 17L49 15L50 15L50 16L51 16L51 17L50 17L50 19L51 19L51 17L53 17L53 18L55 18L55 16L53 16L53 15L52 15L52 16L51 16L51 15L50 15L50 14L51 14L51 12L50 12L50 11L49 11L49 10L48 10L48 11L47 11L47 12L45 12L45 11L46 11L46 10L47 10L47 9L46 9L46 8L42 8L42 6L41 6L41 5L40 5L40 6L39 6L39 9L38 9L38 6L37 6L37 7L36 7L36 5L37 5L37 4L36 4L36 5L35 5L35 3L34 3L34 2L33 2L33 3L32 3L32 2L31 2L31 1ZM46 1L46 2L47 2L47 1ZM44 3L44 6L43 6L43 7L44 7L44 6L45 6L45 7L46 7L46 5L47 5L47 3ZM15 4L15 5L16 5L16 4ZM32 4L32 5L34 5L34 7L33 7L33 6L32 6L32 7L33 7L33 9L34 9L34 8L35 8L35 9L37 9L37 10L36 10L36 12L35 12L35 14L33 14L33 13L34 13L34 12L33 12L33 13L32 13L32 11L33 11L33 10L32 10L32 11L31 11L31 13L30 13L30 14L29 14L29 13L28 13L28 12L29 12L29 11L27 11L27 12L26 12L26 13L24 13L24 14L25 14L25 15L24 15L24 16L25 16L25 17L22 17L22 16L21 16L21 15L23 15L23 14L22 14L22 13L21 13L21 15L20 15L20 17L19 17L19 20L17 20L17 21L18 21L18 22L19 22L19 23L20 23L20 22L19 22L19 21L20 21L20 19L21 19L21 21L22 21L22 22L24 22L24 21L25 21L25 22L26 22L26 23L25 23L25 24L24 24L24 23L21 23L21 24L17 24L17 25L21 25L21 27L22 27L22 26L26 26L26 27L24 27L24 28L26 28L26 29L23 29L23 31L21 31L21 32L25 32L25 33L26 33L26 32L28 32L28 33L29 33L29 34L30 34L30 36L29 36L29 37L31 37L31 38L29 38L29 39L33 39L33 40L35 40L35 39L37 39L37 38L38 38L38 40L39 40L39 38L38 38L38 37L40 37L40 38L43 38L43 37L44 37L44 38L45 38L45 39L44 39L44 40L43 40L43 41L44 41L44 42L45 42L45 43L44 43L44 44L45 44L45 45L47 45L47 43L48 43L48 42L47 42L47 43L46 43L46 42L45 42L45 41L47 41L47 39L48 39L48 37L49 37L49 38L50 38L50 37L51 37L51 36L52 36L52 35L53 35L53 34L52 34L52 33L51 33L51 32L50 32L50 34L49 34L49 35L50 35L50 37L49 37L49 36L48 36L48 37L47 37L47 39L46 39L46 38L45 38L45 37L46 37L46 36L47 36L47 35L46 35L46 36L45 36L45 35L44 35L44 33L43 33L43 32L45 32L45 33L46 33L46 31L47 31L47 32L48 32L48 33L49 33L49 32L48 32L48 31L47 31L47 30L46 30L46 29L47 29L47 27L46 27L46 26L44 26L44 28L43 28L43 29L40 29L40 30L43 30L43 32L41 32L41 33L39 33L39 34L40 34L40 35L38 35L38 33L37 33L37 32L35 32L35 34L34 34L34 32L33 32L33 33L32 33L32 32L31 32L31 33L29 33L29 32L28 32L28 31L31 31L31 29L32 29L32 28L31 28L31 26L32 26L32 27L33 27L33 28L35 28L35 29L38 29L38 28L40 28L40 26L39 26L39 27L36 27L36 26L34 26L34 27L33 27L33 26L32 26L32 24L33 24L33 25L37 25L37 26L38 26L38 24L39 24L39 25L40 25L40 24L43 24L43 25L41 25L41 26L43 26L43 25L44 25L44 24L43 24L43 23L44 23L44 20L43 20L43 18L44 18L44 15L45 15L45 18L46 18L46 19L47 19L47 18L46 18L46 17L47 17L47 16L48 16L48 15L49 15L49 14L50 14L50 12L49 12L49 13L47 13L47 14L44 14L44 11L45 11L45 10L46 10L46 9L44 9L44 10L43 10L43 9L41 9L41 10L42 10L42 11L43 11L43 13L41 13L41 14L40 14L40 15L39 15L39 14L38 14L38 13L40 13L40 12L41 12L41 11L40 11L40 9L39 9L39 10L38 10L38 9L37 9L37 8L35 8L35 5L34 5L34 4ZM45 4L45 5L46 5L46 4ZM11 5L11 7L12 7L12 6L13 6L13 7L14 7L14 6L13 6L13 5ZM27 5L27 8L30 8L30 5ZM28 6L28 7L29 7L29 6ZM40 6L40 7L41 7L41 6ZM51 8L51 9L52 9L52 8ZM53 8L53 9L54 9L54 8ZM6 10L6 11L7 11L7 10ZM11 10L11 11L14 11L14 12L12 12L12 13L11 13L11 14L10 14L10 16L8 16L8 17L9 17L9 20L10 20L10 19L11 19L11 21L12 21L12 20L14 20L14 19L11 19L11 18L10 18L10 16L11 16L11 17L12 17L12 18L14 18L14 15L15 15L15 16L16 16L16 17L15 17L15 18L16 18L16 19L15 19L15 21L16 21L16 19L17 19L17 18L18 18L18 17L17 17L17 16L16 16L16 13L17 13L17 12L16 12L16 13L15 13L15 10ZM37 10L37 11L38 11L38 10ZM0 11L0 13L1 13L1 12L3 12L3 11ZM39 11L39 12L40 12L40 11ZM6 12L6 13L7 13L7 14L6 14L6 15L5 15L5 16L6 16L6 17L7 17L7 16L6 16L6 15L9 15L9 14L8 14L8 13L7 13L7 12ZM52 12L52 13L53 13L53 14L54 14L54 13L55 13L55 14L56 14L56 12L54 12L54 13L53 13L53 12ZM13 13L13 14L12 14L12 15L11 15L11 16L12 16L12 15L13 15L13 14L15 14L15 13ZM26 13L26 17L25 17L25 19L26 19L26 21L29 21L29 22L30 22L30 23L28 23L28 24L25 24L25 25L26 25L26 26L28 26L28 25L30 25L30 24L32 24L32 23L33 23L33 22L34 22L34 23L35 23L35 19L36 19L36 20L37 20L37 21L38 21L38 22L37 22L37 24L38 24L38 22L39 22L39 24L40 24L40 22L39 22L39 21L42 21L42 20L39 20L39 21L38 21L38 19L39 19L39 17L41 17L41 16L42 16L42 17L43 17L43 16L42 16L42 15L44 15L44 14L41 14L41 16L39 16L39 15L38 15L38 14L37 14L37 13L36 13L36 14L37 14L37 15L35 15L35 16L33 16L33 15L32 15L32 17L31 17L31 18L30 18L30 19L29 19L29 20L27 20L27 19L28 19L28 18L27 18L27 19L26 19L26 17L28 17L28 16L29 16L29 14L28 14L28 13ZM30 14L30 15L31 15L31 14ZM27 15L27 16L28 16L28 15ZM1 16L1 17L2 17L2 16ZM35 16L35 17L37 17L37 18L38 18L38 17L39 17L39 16L38 16L38 17L37 17L37 16ZM16 17L16 18L17 18L17 17ZM20 17L20 18L21 18L21 19L24 19L24 18L22 18L22 17ZM32 17L32 18L31 18L31 21L30 21L30 20L29 20L29 21L30 21L30 22L31 22L31 21L32 21L32 20L33 20L33 19L35 19L35 18L33 18L33 17ZM41 18L41 19L42 19L42 18ZM6 20L6 21L7 21L7 20ZM22 20L22 21L24 21L24 20ZM48 21L48 22L45 22L45 24L46 24L46 23L49 23L49 21ZM51 21L51 22L50 22L50 23L51 23L51 24L52 24L52 23L53 23L53 21ZM41 22L41 23L43 23L43 22ZM21 24L21 25L24 25L24 24ZM0 25L0 27L1 27L1 28L2 28L2 25ZM5 25L5 26L8 26L8 25ZM16 26L16 27L18 27L18 26ZM19 26L19 27L20 27L20 26ZM53 26L53 27L54 27L54 26ZM5 27L5 30L8 30L8 27ZM27 27L27 30L30 30L30 27ZM35 27L35 28L36 28L36 27ZM41 27L41 28L42 28L42 27ZM45 27L45 28L44 28L44 29L43 29L43 30L45 30L45 28L46 28L46 27ZM49 27L49 30L52 30L52 27ZM6 28L6 29L7 29L7 28ZM28 28L28 29L29 29L29 28ZM50 28L50 29L51 29L51 28ZM54 28L54 29L56 29L56 28ZM0 29L0 30L1 30L1 29ZM13 30L13 31L14 31L14 30ZM24 30L24 31L25 31L25 32L26 32L26 31L25 31L25 30ZM33 30L33 31L36 31L36 30ZM38 30L38 32L39 32L39 30ZM0 31L0 32L2 32L2 31ZM8 33L8 34L6 34L6 35L8 35L8 34L10 34L10 33ZM21 33L21 34L22 34L22 33ZM31 33L31 34L32 34L32 33ZM26 34L26 35L27 35L27 34ZM33 34L33 36L32 36L32 37L33 37L33 38L34 38L34 39L35 39L35 37L33 37L33 36L34 36L34 34ZM35 34L35 36L37 36L37 37L38 37L38 35L37 35L37 34ZM42 34L42 35L43 35L43 36L44 36L44 37L45 37L45 36L44 36L44 35L43 35L43 34ZM50 34L50 35L52 35L52 34ZM12 36L12 39L13 39L13 36ZM40 36L40 37L42 37L42 36ZM26 37L26 40L27 40L27 41L26 41L26 42L27 42L27 41L29 41L29 43L30 43L30 44L33 44L33 43L34 43L34 42L33 42L33 41L32 41L32 40L28 40L28 39L27 39L27 38L28 38L28 37ZM54 38L54 39L55 39L55 38ZM45 39L45 40L44 40L44 41L45 41L45 40L46 40L46 39ZM3 40L3 41L4 41L4 40ZM23 40L23 41L24 41L24 40ZM21 41L21 42L22 42L22 41ZM31 41L31 42L32 42L32 43L33 43L33 42L32 42L32 41ZM8 42L8 43L9 43L9 42ZM51 42L51 43L50 43L50 46L51 46L51 47L52 47L52 46L51 46L51 43L53 43L53 42ZM23 43L23 44L24 44L24 43ZM45 43L45 44L46 44L46 43ZM20 44L20 45L21 45L21 47L23 47L23 46L22 46L22 45L21 45L21 44ZM54 44L54 45L55 45L55 46L54 46L54 47L55 47L55 46L56 46L56 45L55 45L55 44ZM10 45L10 47L11 47L11 48L8 48L8 51L9 51L9 50L10 50L10 49L11 49L11 53L9 53L9 52L8 52L8 57L9 57L9 55L11 55L11 56L13 56L13 54L12 54L12 51L13 51L13 53L14 53L14 51L15 51L15 49L16 49L16 47L15 47L15 48L14 48L14 49L13 49L13 48L12 48L12 47L11 47L11 45ZM26 45L26 47L28 47L28 45ZM36 45L36 46L37 46L37 45ZM48 47L48 48L47 48L47 49L46 49L46 50L47 50L47 49L48 49L48 48L49 48L49 47ZM6 48L6 49L7 49L7 48ZM11 48L11 49L12 49L12 50L13 50L13 51L14 51L14 50L13 50L13 49L12 49L12 48ZM38 48L38 49L39 49L39 48ZM42 48L42 49L43 49L43 48ZM53 48L53 49L56 49L56 48ZM27 49L27 52L30 52L30 49ZM49 49L49 52L52 52L52 49ZM28 50L28 51L29 51L29 50ZM38 50L38 51L40 51L40 52L42 52L42 51L41 51L41 50ZM50 50L50 51L51 51L51 50ZM18 51L18 52L19 52L19 51ZM16 52L16 53L17 53L17 52ZM53 52L53 54L54 54L54 52ZM43 53L43 54L44 54L44 53ZM11 54L11 55L12 55L12 54ZM41 54L41 55L42 55L42 54ZM15 55L15 56L16 56L16 55ZM48 55L48 56L49 56L49 55ZM50 55L50 56L51 56L51 55ZM43 56L43 57L44 57L44 56ZM0 0L0 7L7 7L7 0ZM1 1L1 6L6 6L6 1ZM2 2L2 5L5 5L5 2ZM50 0L50 7L57 7L57 0ZM51 1L51 6L56 6L56 1ZM52 2L52 5L55 5L55 2ZM0 50L0 57L7 57L7 50ZM1 51L1 56L6 56L6 51ZM2 52L2 55L5 55L5 52Z" fill="#000000"/></g></g></svg>
