<?xml version="1.0" encoding="UTF-8"?>
<svg xmlns="http://www.w3.org/2000/svg" version="1.1" width="300" height="300" viewBox="0 0 300 300"><rect x="0" y="0" width="300" height="300" fill="#fefefe"/><g transform="scale(4.615)"><g transform="translate(4,4)"><path fill-rule="evenodd" d="M8 0L8 1L9 1L9 2L8 2L8 5L9 5L9 6L8 6L8 7L9 7L9 8L8 8L8 9L9 9L9 11L7 11L7 10L6 10L6 9L7 9L7 8L6 8L6 9L5 9L5 11L4 11L4 8L0 8L0 9L1 9L1 10L2 10L2 9L3 9L3 11L2 11L2 12L1 12L1 13L0 13L0 14L2 14L2 15L1 15L1 16L0 16L0 20L1 20L1 21L0 21L0 22L1 22L1 21L2 21L2 23L1 23L1 24L0 24L0 27L2 27L2 28L0 28L0 29L2 29L2 28L4 28L4 29L3 29L3 33L2 33L2 31L1 31L1 30L0 30L0 35L1 35L1 36L0 36L0 37L1 37L1 39L0 39L0 40L1 40L1 41L2 41L2 40L3 40L3 41L4 41L4 42L3 42L3 43L4 43L4 44L3 44L3 45L4 45L4 46L5 46L5 47L3 47L3 46L2 46L2 45L0 45L0 48L5 48L5 47L7 47L7 46L8 46L8 48L6 48L6 49L8 49L8 50L11 50L11 53L10 53L10 51L9 51L9 53L8 53L8 57L12 57L12 56L11 56L11 55L12 55L12 54L11 54L11 53L12 53L12 51L13 51L13 52L14 52L14 53L15 53L15 54L14 54L14 55L13 55L13 57L18 57L18 55L17 55L17 54L18 54L18 53L17 53L17 54L16 54L16 53L15 53L15 52L17 52L17 51L15 51L15 52L14 52L14 50L16 50L16 49L15 49L15 48L14 48L14 47L16 47L16 48L17 48L17 49L19 49L19 50L20 50L20 52L19 52L19 55L20 55L20 56L21 56L21 57L24 57L24 56L26 56L26 53L29 53L29 54L31 54L31 55L30 55L30 56L31 56L31 57L32 57L32 55L34 55L34 56L33 56L33 57L36 57L36 55L38 55L38 57L42 57L42 56L43 56L43 55L44 55L44 56L45 56L45 55L46 55L46 56L48 56L48 57L51 57L51 54L52 54L52 53L53 53L53 54L54 54L54 52L55 52L55 54L56 54L56 52L57 52L57 51L55 51L55 50L53 50L53 49L54 49L54 48L51 48L51 47L52 47L52 46L51 46L51 45L52 45L52 43L53 43L53 42L54 42L54 43L56 43L56 44L57 44L57 43L56 43L56 42L57 42L57 40L56 40L56 41L55 41L55 42L54 42L54 41L53 41L53 40L55 40L55 39L53 39L53 38L52 38L52 36L53 36L53 37L55 37L55 38L56 38L56 39L57 39L57 38L56 38L56 37L57 37L57 36L56 36L56 35L57 35L57 34L56 34L56 33L57 33L57 31L56 31L56 30L57 30L57 27L56 27L56 24L54 24L54 23L57 23L57 20L54 20L54 21L53 21L53 20L50 20L50 18L49 18L49 19L46 19L46 20L45 20L45 22L44 22L44 21L43 21L43 20L41 20L41 18L42 18L42 19L43 19L43 18L42 18L42 17L45 17L45 18L44 18L44 19L45 19L45 18L48 18L48 17L45 17L45 16L44 16L44 15L45 15L45 14L46 14L46 13L44 13L44 12L43 12L43 11L44 11L44 9L41 9L41 8L38 8L38 7L39 7L39 6L38 6L38 7L37 7L37 6L36 6L36 7L35 7L35 6L34 6L34 9L36 9L36 8L37 8L37 11L38 11L38 12L35 12L35 11L36 11L36 10L35 10L35 11L34 11L34 10L33 10L33 11L31 11L31 10L32 10L32 9L31 9L31 6L32 6L32 8L33 8L33 6L32 6L32 5L31 5L31 4L32 4L32 3L33 3L33 5L34 5L34 4L36 4L36 5L40 5L40 7L41 7L41 6L42 6L42 7L43 7L43 8L45 8L45 11L49 11L49 15L51 15L51 13L52 13L52 14L54 14L54 15L52 15L52 16L53 16L53 17L51 17L51 18L52 18L52 19L56 19L56 17L57 17L57 15L55 15L55 14L54 14L54 10L53 10L53 9L55 9L55 8L52 8L52 9L51 9L51 10L50 10L50 8L49 8L49 6L48 6L48 7L47 7L47 5L48 5L48 0L46 0L46 1L47 1L47 2L46 2L46 3L47 3L47 5L45 5L45 4L44 4L44 3L45 3L45 1L44 1L44 2L42 2L42 3L41 3L41 4L37 4L37 3L38 3L38 2L37 2L37 1L38 1L38 0L37 0L37 1L36 1L36 0L35 0L35 1L34 1L34 2L35 2L35 3L33 3L33 1L31 1L31 0L28 0L28 1L27 1L27 2L28 2L28 3L29 3L29 2L28 2L28 1L31 1L31 2L30 2L30 3L31 3L31 4L26 4L26 0L23 0L23 1L25 1L25 2L24 2L24 3L23 3L23 2L22 2L22 3L23 3L23 4L21 4L21 5L20 5L20 4L19 4L19 3L18 3L18 2L16 2L16 1L15 1L15 3L17 3L17 5L15 5L15 4L14 4L14 3L13 3L13 1L12 1L12 0ZM17 0L17 1L19 1L19 2L20 2L20 3L21 3L21 2L20 2L20 0ZM21 0L21 1L22 1L22 0ZM39 0L39 1L40 1L40 2L41 2L41 1L43 1L43 0L41 0L41 1L40 1L40 0ZM10 1L10 2L9 2L9 4L11 4L11 3L10 3L10 2L11 2L11 1ZM35 1L35 2L36 2L36 1ZM12 3L12 6L11 6L11 7L10 7L10 6L9 6L9 7L10 7L10 8L9 8L9 9L10 9L10 11L9 11L9 12L8 12L8 14L7 14L7 13L6 13L6 12L7 12L7 11L6 11L6 12L4 12L4 11L3 11L3 12L2 12L2 13L4 13L4 14L5 14L5 17L3 17L3 15L2 15L2 17L1 17L1 18L2 18L2 20L3 20L3 24L4 24L4 26L3 26L3 25L1 25L1 26L2 26L2 27L4 27L4 26L7 26L7 25L8 25L8 26L9 26L9 27L10 27L10 26L9 26L9 23L10 23L10 22L13 22L13 21L10 21L10 19L11 19L11 20L12 20L12 19L15 19L15 20L14 20L14 22L15 22L15 23L16 23L16 26L13 26L13 25L15 25L15 24L14 24L14 23L12 23L12 24L11 24L11 26L12 26L12 28L13 28L13 27L14 27L14 28L15 28L15 27L17 27L17 30L16 30L16 29L15 29L15 30L16 30L16 32L17 32L17 30L18 30L18 33L15 33L15 31L14 31L14 30L11 30L11 29L10 29L10 30L9 30L9 31L8 31L8 32L7 32L7 31L4 31L4 33L5 33L5 32L7 32L7 33L6 33L6 34L5 34L5 35L6 35L6 36L7 36L7 35L6 35L6 34L7 34L7 33L8 33L8 34L10 34L10 33L11 33L11 34L12 34L12 35L13 35L13 33L15 33L15 34L14 34L14 36L15 36L15 37L14 37L14 38L18 38L18 36L19 36L19 37L20 37L20 38L21 38L21 37L22 37L22 38L23 38L23 36L27 36L27 38L29 38L29 36L32 36L32 38L30 38L30 39L28 39L28 40L27 40L27 41L30 41L30 42L31 42L31 40L33 40L33 39L34 39L34 38L36 38L36 39L35 39L35 40L34 40L34 41L36 41L36 42L34 42L34 43L35 43L35 44L34 44L34 45L33 45L33 42L32 42L32 45L33 45L33 47L34 47L34 48L37 48L37 49L36 49L36 50L37 50L37 49L38 49L38 48L39 48L39 49L40 49L40 50L39 50L39 51L36 51L36 52L35 52L35 51L34 51L34 50L35 50L35 49L34 49L34 50L33 50L33 48L32 48L32 47L31 47L31 46L29 46L29 45L28 45L28 44L27 44L27 42L25 42L25 41L26 41L26 39L25 39L25 38L26 38L26 37L24 37L24 39L21 39L21 40L17 40L17 39L16 39L16 40L17 40L17 41L19 41L19 43L18 43L18 42L15 42L15 40L13 40L13 38L12 38L12 37L13 37L13 36L11 36L11 40L12 40L12 41L10 41L10 39L5 39L5 38L9 38L9 37L10 37L10 35L8 35L8 37L4 37L4 38L3 38L3 36L4 36L4 34L1 34L1 35L3 35L3 36L2 36L2 38L3 38L3 39L4 39L4 41L6 41L6 42L7 42L7 43L6 43L6 44L8 44L8 45L10 45L10 46L12 46L12 45L13 45L13 43L12 43L12 42L15 42L15 43L14 43L14 46L13 46L13 47L14 47L14 46L16 46L16 47L17 47L17 48L18 48L18 46L17 46L17 45L20 45L20 46L21 46L21 47L22 47L22 46L23 46L23 44L24 44L24 45L25 45L25 48L24 48L24 47L23 47L23 48L21 48L21 50L22 50L22 49L23 49L23 52L22 52L22 53L20 53L20 55L21 55L21 56L22 56L22 54L23 54L23 56L24 56L24 55L25 55L25 54L23 54L23 52L24 52L24 53L25 53L25 52L26 52L26 50L25 50L25 49L26 49L26 48L27 48L27 47L29 47L29 48L31 48L31 50L33 50L33 53L36 53L36 54L35 54L35 55L36 55L36 54L39 54L39 53L37 53L37 52L40 52L40 54L41 54L41 53L42 53L42 54L43 54L43 53L42 53L42 52L40 52L40 51L45 51L45 50L43 50L43 47L44 47L44 49L46 49L46 50L47 50L47 52L46 52L46 53L47 53L47 52L48 52L48 48L47 48L47 47L46 47L46 46L48 46L48 47L49 47L49 48L50 48L50 47L49 47L49 46L50 46L50 45L51 45L51 42L50 42L50 41L52 41L52 40L50 40L50 39L52 39L52 38L51 38L51 36L52 36L52 35L51 35L51 36L46 36L46 38L47 38L47 37L48 37L48 38L49 38L49 39L47 39L47 40L46 40L46 39L45 39L45 36L44 36L44 37L41 37L41 35L42 35L42 36L43 36L43 35L42 35L42 34L41 34L41 35L37 35L37 37L35 37L35 36L36 36L36 35L34 35L34 34L35 34L35 32L32 32L32 31L33 31L33 29L32 29L32 30L31 30L31 34L30 34L30 35L29 35L29 33L30 33L30 32L29 32L29 31L24 31L24 32L23 32L23 33L22 33L22 34L23 34L23 33L24 33L24 32L28 32L28 33L25 33L25 34L24 34L24 35L20 35L20 34L21 34L21 33L20 33L20 32L19 32L19 31L20 31L20 30L21 30L21 32L22 32L22 31L23 31L23 30L21 30L21 29L24 29L24 30L26 30L26 28L25 28L25 25L27 25L27 24L26 24L26 23L27 23L27 22L25 22L25 19L24 19L24 18L25 18L25 17L27 17L27 18L26 18L26 19L27 19L27 20L26 20L26 21L27 21L27 20L28 20L28 18L29 18L29 17L30 17L30 19L29 19L29 21L28 21L28 25L29 25L29 26L31 26L31 25L30 25L30 24L31 24L31 23L32 23L32 22L33 22L33 24L32 24L32 25L33 25L33 24L35 24L35 23L36 23L36 24L37 24L37 22L35 22L35 20L36 20L36 21L37 21L37 20L40 20L40 19L39 19L39 18L41 18L41 17L42 17L42 14L43 14L43 15L44 15L44 14L43 14L43 12L42 12L42 11L43 11L43 10L42 10L42 11L41 11L41 9L38 9L38 10L39 10L39 11L40 11L40 15L41 15L41 16L40 16L40 17L39 17L39 15L37 15L37 13L36 13L36 15L35 15L35 12L34 12L34 14L33 14L33 15L31 15L31 16L29 16L29 15L28 15L28 16L29 16L29 17L27 17L27 14L26 14L26 16L25 16L25 13L26 13L26 12L28 12L28 13L30 13L30 14L31 14L31 12L30 12L30 11L28 11L28 10L29 10L29 9L27 9L27 10L26 10L26 11L25 11L25 12L24 12L24 15L23 15L23 13L22 13L22 12L23 12L23 11L21 11L21 8L22 8L22 6L23 6L23 7L24 7L24 8L23 8L23 9L24 9L24 8L25 8L25 9L26 9L26 6L25 6L25 5L26 5L26 4L24 4L24 6L23 6L23 5L21 5L21 7L20 7L20 6L19 6L19 7L20 7L20 8L18 8L18 9L17 9L17 7L18 7L18 5L17 5L17 7L16 7L16 6L15 6L15 5L14 5L14 4L13 4L13 3ZM41 4L41 5L42 5L42 6L43 6L43 7L44 7L44 6L45 6L45 8L46 8L46 6L45 6L45 5L43 5L43 4ZM27 5L27 8L30 8L30 5ZM12 6L12 7L11 7L11 8L10 8L10 9L11 9L11 11L12 11L12 14L11 14L11 12L10 12L10 15L9 15L9 14L8 14L8 15L9 15L9 17L8 17L8 16L6 16L6 17L5 17L5 19L4 19L4 18L3 18L3 17L2 17L2 18L3 18L3 19L4 19L4 20L6 20L6 21L5 21L5 22L4 22L4 23L9 23L9 22L10 22L10 21L9 21L9 19L10 19L10 18L14 18L14 17L15 17L15 19L18 19L18 18L19 18L19 20L21 20L21 22L18 22L18 23L17 23L17 21L18 21L18 20L16 20L16 23L17 23L17 27L19 27L19 26L18 26L18 25L20 25L20 27L21 27L21 26L22 26L22 27L23 27L23 25L22 25L22 23L23 23L23 24L24 24L24 25L25 25L25 22L24 22L24 21L23 21L23 20L21 20L21 19L22 19L22 17L21 17L21 13L20 13L20 11L19 11L19 12L18 12L18 10L17 10L17 12L16 12L16 8L15 8L15 6L14 6L14 8L15 8L15 11L14 11L14 10L13 10L13 9L11 9L11 8L12 8L12 7L13 7L13 6ZM24 6L24 7L25 7L25 6ZM28 6L28 7L29 7L29 6ZM47 8L47 9L46 9L46 10L47 10L47 9L48 9L48 8ZM56 8L56 9L57 9L57 8ZM19 9L19 10L20 10L20 9ZM12 10L12 11L13 11L13 10ZM55 10L55 11L56 11L56 12L57 12L57 10ZM51 11L51 12L50 12L50 13L51 13L51 12L52 12L52 13L53 13L53 11ZM15 12L15 15L16 15L16 16L17 16L17 18L18 18L18 17L19 17L19 18L21 18L21 17L20 17L20 15L19 15L19 13L18 13L18 12L17 12L17 13L16 13L16 12ZM32 12L32 13L33 13L33 12ZM13 13L13 15L10 15L10 17L9 17L9 18L10 18L10 17L11 17L11 16L12 16L12 17L13 17L13 15L14 15L14 13ZM6 14L6 15L7 15L7 14ZM16 14L16 15L17 15L17 16L19 16L19 15L18 15L18 14ZM47 14L47 16L48 16L48 14ZM33 15L33 16L31 16L31 17L32 17L32 18L31 18L31 20L30 20L30 21L29 21L29 22L31 22L31 20L32 20L32 19L34 19L34 20L33 20L33 21L34 21L34 20L35 20L35 19L34 19L34 18L35 18L35 17L34 17L34 16L35 16L35 15ZM23 16L23 18L24 18L24 17L25 17L25 16ZM6 17L6 18L7 18L7 19L6 19L6 20L7 20L7 21L6 21L6 22L7 22L7 21L8 21L8 22L9 22L9 21L8 21L8 20L7 20L7 19L8 19L8 17ZM36 17L36 18L37 18L37 17ZM53 17L53 18L54 18L54 17ZM36 19L36 20L37 20L37 19ZM47 20L47 21L46 21L46 22L47 22L47 24L46 24L46 23L44 23L44 25L45 25L45 24L46 24L46 26L45 26L45 30L46 30L46 26L47 26L47 27L48 27L48 26L49 26L49 25L51 25L51 26L53 26L53 27L55 27L55 25L54 25L54 24L52 24L52 22L51 22L51 21L50 21L50 20L49 20L49 22L47 22L47 21L48 21L48 20ZM38 21L38 22L39 22L39 21ZM54 21L54 22L56 22L56 21ZM21 22L21 23L20 23L20 24L21 24L21 23L22 23L22 22ZM41 22L41 23L40 23L40 26L38 26L38 27L40 27L40 29L41 29L41 27L40 27L40 26L43 26L43 27L42 27L42 28L44 28L44 26L43 26L43 25L41 25L41 24L42 24L42 23L43 23L43 22ZM18 23L18 24L19 24L19 23ZM29 23L29 24L30 24L30 23ZM38 23L38 24L39 24L39 23ZM48 23L48 24L47 24L47 26L48 26L48 24L51 24L51 23ZM5 24L5 25L7 25L7 24ZM12 24L12 25L13 25L13 24ZM34 25L34 27L35 27L35 25ZM5 27L5 30L8 30L8 27ZM27 27L27 30L30 30L30 27ZM32 27L32 28L33 28L33 27ZM49 27L49 30L52 30L52 27ZM6 28L6 29L7 29L7 28ZM18 28L18 29L19 29L19 28ZM28 28L28 29L29 29L29 28ZM34 28L34 29L36 29L36 30L35 30L35 31L37 31L37 32L36 32L36 33L37 33L37 32L38 32L38 34L39 34L39 31L40 31L40 32L41 32L41 31L44 31L44 34L46 34L46 35L47 35L47 34L48 34L48 35L49 35L49 34L50 34L50 33L49 33L49 32L50 32L50 31L49 31L49 32L48 32L48 29L47 29L47 31L46 31L46 32L45 32L45 31L44 31L44 30L43 30L43 29L42 29L42 30L41 30L41 31L40 31L40 30L39 30L39 29L38 29L38 30L37 30L37 28ZM50 28L50 29L51 29L51 28ZM53 28L53 30L56 30L56 29L54 29L54 28ZM38 30L38 31L39 31L39 30ZM9 31L9 32L11 32L11 33L12 33L12 32L14 32L14 31ZM51 31L51 32L52 32L52 34L54 34L54 32L55 32L55 31L53 31L53 32L52 32L52 31ZM42 32L42 33L43 33L43 32ZM46 32L46 33L47 33L47 32ZM19 33L19 34L15 34L15 36L17 36L17 35L19 35L19 34L20 34L20 33ZM32 33L32 34L31 34L31 35L32 35L32 36L34 36L34 35L33 35L33 33ZM25 34L25 35L26 35L26 34ZM27 34L27 36L29 36L29 35L28 35L28 34ZM54 35L54 36L55 36L55 37L56 37L56 36L55 36L55 35ZM39 36L39 37L37 37L37 38L39 38L39 39L38 39L38 40L37 40L37 41L40 41L40 42L42 42L42 43L40 43L40 44L38 44L38 43L39 43L39 42L37 42L37 44L38 44L38 45L36 45L36 44L35 44L35 45L36 45L36 46L34 46L34 47L38 47L38 45L41 45L41 46L40 46L40 47L43 47L43 45L42 45L42 43L43 43L43 44L48 44L48 46L49 46L49 45L50 45L50 44L49 44L49 43L50 43L50 42L49 42L49 43L48 43L48 42L47 42L47 41L50 41L50 40L47 40L47 41L46 41L46 40L45 40L45 39L44 39L44 38L41 38L41 37L40 37L40 36ZM33 37L33 38L32 38L32 39L33 39L33 38L34 38L34 37ZM1 39L1 40L2 40L2 39ZM24 39L24 41L22 41L22 40L21 40L21 41L22 41L22 44L21 44L21 43L19 43L19 44L21 44L21 46L22 46L22 44L23 44L23 43L25 43L25 45L26 45L26 46L27 46L27 45L26 45L26 43L25 43L25 42L24 42L24 41L25 41L25 39ZM39 39L39 40L40 40L40 41L41 41L41 40L42 40L42 42L43 42L43 40L44 40L44 39ZM6 40L6 41L7 41L7 40ZM8 40L8 44L9 44L9 43L11 43L11 42L9 42L9 40ZM0 42L0 43L1 43L1 44L2 44L2 43L1 43L1 42ZM45 42L45 43L46 43L46 42ZM16 43L16 44L15 44L15 45L17 45L17 43ZM4 44L4 45L5 45L5 44ZM11 44L11 45L12 45L12 44ZM53 44L53 45L55 45L55 44ZM6 45L6 46L7 46L7 45ZM44 45L44 46L45 46L45 45ZM56 45L56 46L54 46L54 47L57 47L57 45ZM1 46L1 47L2 47L2 46ZM9 47L9 49L11 49L11 50L14 50L14 49L12 49L12 48L10 48L10 47ZM19 47L19 48L20 48L20 47ZM23 48L23 49L24 49L24 48ZM41 48L41 49L42 49L42 48ZM56 48L56 50L57 50L57 48ZM27 49L27 52L30 52L30 49ZM49 49L49 52L52 52L52 49ZM24 50L24 51L25 51L25 50ZM28 50L28 51L29 51L29 50ZM50 50L50 51L51 51L51 50ZM31 51L31 53L32 53L32 51ZM48 53L48 54L50 54L50 53ZM44 54L44 55L45 55L45 54ZM9 55L9 56L10 56L10 55ZM14 55L14 56L15 56L15 55ZM27 55L27 56L28 56L28 55ZM40 55L40 56L42 56L42 55ZM48 55L48 56L49 56L49 55ZM56 55L56 56L57 56L57 55ZM52 56L52 57L53 57L53 56ZM54 56L54 57L55 57L55 56ZM0 0L0 7L7 7L7 0ZM1 1L1 6L6 6L6 1ZM2 2L2 5L5 5L5 2ZM50 0L50 7L57 7L57 0ZM51 1L51 6L56 6L56 1ZM52 2L52 5L55 5L55 2ZM0 50L0 57L7 57L7 50ZM1 51L1 56L6 56L6 51ZM2 52L2 55L5 55L5 52Z" fill="#000000"/></g></g></svg>
