<?xml version="1.0" encoding="UTF-8"?>
<svg xmlns="http://www.w3.org/2000/svg" version="1.1" width="300" height="300" viewBox="0 0 300 300"><rect x="0" y="0" width="300" height="300" fill="#fefefe"/><g transform="scale(4.615)"><g transform="translate(4,4)"><path fill-rule="evenodd" d="M14 0L14 2L13 2L13 1L8 1L8 2L11 2L11 3L12 3L12 4L14 4L14 2L15 2L15 3L17 3L17 6L16 6L16 7L15 7L15 6L14 6L14 7L13 7L13 6L12 6L12 5L11 5L11 6L10 6L10 5L8 5L8 7L9 7L9 6L10 6L10 10L9 10L9 8L6 8L6 9L7 9L7 10L5 10L5 11L4 11L4 10L3 10L3 9L5 9L5 8L0 8L0 10L1 10L1 9L2 9L2 10L3 10L3 12L1 12L1 13L0 13L0 14L2 14L2 15L1 15L1 16L0 16L0 20L1 20L1 21L0 21L0 22L1 22L1 24L0 24L0 25L1 25L1 26L0 26L0 28L1 28L1 30L2 30L2 31L0 31L0 33L1 33L1 34L2 34L2 35L0 35L0 37L2 37L2 38L3 38L3 39L2 39L2 40L3 40L3 42L2 42L2 41L1 41L1 40L0 40L0 43L2 43L2 44L0 44L0 48L5 48L5 47L8 47L8 46L9 46L9 44L8 44L8 43L9 43L9 41L10 41L10 40L9 40L9 39L7 39L7 38L9 38L9 37L10 37L10 39L11 39L11 42L10 42L10 43L11 43L11 44L10 44L10 45L11 45L11 46L10 46L10 48L9 48L9 49L8 49L8 48L6 48L6 49L8 49L8 51L9 51L9 52L8 52L8 57L10 57L10 56L9 56L9 53L10 53L10 54L11 54L11 53L13 53L13 52L15 52L15 53L14 53L14 54L12 54L12 55L11 55L11 56L13 56L13 55L16 55L16 56L14 56L14 57L16 57L16 56L17 56L17 57L20 57L20 56L19 56L19 55L20 55L20 54L19 54L19 53L20 53L20 52L23 52L23 50L25 50L25 51L26 51L26 53L25 53L25 52L24 52L24 53L23 53L23 54L22 54L22 53L21 53L21 54L22 54L22 55L23 55L23 56L24 56L24 57L26 57L26 56L27 56L27 57L29 57L29 56L30 56L30 57L31 57L31 56L35 56L35 57L39 57L39 56L40 56L40 55L41 55L41 57L44 57L44 56L42 56L42 55L44 55L44 54L45 54L45 53L44 53L44 52L45 52L45 51L43 51L43 49L44 49L44 48L43 48L43 47L42 47L42 48L41 48L41 46L43 46L43 45L44 45L44 47L45 47L45 48L48 48L48 49L47 49L47 50L46 50L46 49L45 49L45 50L46 50L46 52L47 52L47 50L48 50L48 53L47 53L47 54L46 54L46 55L45 55L45 57L47 57L47 55L49 55L49 56L50 56L50 57L52 57L52 55L51 55L51 53L52 53L52 54L53 54L53 52L54 52L54 53L56 53L56 52L55 52L55 51L56 51L56 50L57 50L57 48L56 48L56 46L57 46L57 43L56 43L56 42L57 42L57 41L56 41L56 42L55 42L55 39L57 39L57 35L56 35L56 33L57 33L57 32L56 32L56 30L57 30L57 28L56 28L56 29L55 29L55 31L53 31L53 30L54 30L54 28L55 28L55 27L56 27L56 26L57 26L57 25L56 25L56 22L57 22L57 21L56 21L56 20L57 20L57 19L56 19L56 16L57 16L57 15L56 15L56 14L57 14L57 12L56 12L56 14L55 14L55 13L54 13L54 12L55 12L55 11L56 11L56 10L54 10L54 11L50 11L50 8L49 8L49 9L47 9L47 10L46 10L46 11L45 11L45 10L44 10L44 8L47 8L47 5L48 5L48 0L46 0L46 1L45 1L45 2L44 2L44 3L41 3L41 2L43 2L43 0L41 0L41 1L40 1L40 0L39 0L39 1L38 1L38 0L37 0L37 1L38 1L38 3L36 3L36 0L35 0L35 1L33 1L33 0L32 0L32 1L33 1L33 2L32 2L32 3L31 3L31 4L26 4L26 3L23 3L23 2L27 2L27 3L28 3L28 2L27 2L27 1L26 1L26 0L23 0L23 1L22 1L22 0L21 0L21 1L20 1L20 2L19 2L19 1L18 1L18 0L17 0L17 1L16 1L16 2L15 2L15 0ZM29 0L29 1L31 1L31 0ZM17 1L17 2L18 2L18 3L19 3L19 4L22 4L22 5L24 5L24 4L23 4L23 3L19 3L19 2L18 2L18 1ZM46 1L46 2L47 2L47 1ZM12 2L12 3L13 3L13 2ZM33 2L33 3L32 3L32 4L31 4L31 8L32 8L32 10L31 10L31 11L30 11L30 10L29 10L29 9L27 9L27 10L28 10L28 11L29 11L29 12L28 12L28 13L27 13L27 14L26 14L26 12L27 12L27 11L26 11L26 12L25 12L25 11L24 11L24 13L25 13L25 14L23 14L23 13L22 13L22 12L21 12L21 11L22 11L22 10L23 10L23 8L24 8L24 9L25 9L25 8L26 8L26 4L25 4L25 8L24 8L24 6L23 6L23 8L19 8L19 7L20 7L20 5L18 5L18 6L17 6L17 7L16 7L16 8L15 8L15 7L14 7L14 9L13 9L13 7L12 7L12 6L11 6L11 7L12 7L12 10L10 10L10 12L11 12L11 11L12 11L12 13L11 13L11 14L10 14L10 13L6 13L6 14L4 14L4 13L5 13L5 12L7 12L7 11L8 11L8 10L7 10L7 11L5 11L5 12L4 12L4 13L2 13L2 14L3 14L3 15L2 15L2 16L5 16L5 17L3 17L3 18L2 18L2 17L1 17L1 20L7 20L7 19L3 19L3 18L8 18L8 17L10 17L10 15L11 15L11 19L12 19L12 18L13 18L13 19L14 19L14 20L13 20L13 21L12 21L12 20L11 20L11 21L10 21L10 18L9 18L9 20L8 20L8 22L7 22L7 21L6 21L6 22L5 22L5 21L4 21L4 22L2 22L2 21L1 21L1 22L2 22L2 26L1 26L1 27L3 27L3 28L2 28L2 30L3 30L3 31L2 31L2 32L1 32L1 33L2 33L2 34L3 34L3 35L4 35L4 34L3 34L3 33L4 33L4 30L3 30L3 28L4 28L4 27L3 27L3 26L4 26L4 25L6 25L6 26L7 26L7 25L6 25L6 24L7 24L7 23L8 23L8 26L9 26L9 30L14 30L14 26L16 26L16 27L15 27L15 29L16 29L16 30L18 30L18 29L19 29L19 26L20 26L20 27L21 27L21 28L22 28L22 29L20 29L20 30L19 30L19 32L20 32L20 34L19 34L19 33L18 33L18 32L17 32L17 33L16 33L16 32L15 32L15 31L14 31L14 32L13 32L13 33L12 33L12 34L11 34L11 35L10 35L10 37L12 37L12 38L11 38L11 39L12 39L12 41L13 41L13 42L14 42L14 44L13 44L13 43L12 43L12 42L11 42L11 43L12 43L12 44L11 44L11 45L13 45L13 48L12 48L12 46L11 46L11 49L9 49L9 51L10 51L10 52L12 52L12 51L14 51L14 50L15 50L15 49L16 49L16 50L17 50L17 49L16 49L16 48L14 48L14 47L15 47L15 46L17 46L17 47L18 47L18 48L19 48L19 49L20 49L20 51L22 51L22 50L21 50L21 49L23 49L23 47L20 47L20 46L21 46L21 45L22 45L22 46L24 46L24 45L25 45L25 47L26 47L26 48L24 48L24 49L26 49L26 48L30 48L30 47L28 47L28 46L30 46L30 44L28 44L28 42L32 42L32 43L33 43L33 44L32 44L32 46L31 46L31 48L32 48L32 49L31 49L31 53L30 53L30 54L27 54L27 56L29 56L29 55L30 55L30 56L31 56L31 54L32 54L32 53L33 53L33 54L34 54L34 55L35 55L35 56L36 56L36 54L35 54L35 51L34 51L34 50L36 50L36 52L38 52L38 53L37 53L37 54L40 54L40 53L41 53L41 52L40 52L40 51L38 51L38 50L41 50L41 51L42 51L42 52L43 52L43 51L42 51L42 50L41 50L41 48L39 48L39 47L38 47L38 48L37 48L37 49L38 49L38 50L36 50L36 49L35 49L35 48L36 48L36 46L37 46L37 45L36 45L36 46L35 46L35 45L34 45L34 43L37 43L37 42L35 42L35 40L38 40L38 42L39 42L39 45L38 45L38 46L39 46L39 45L41 45L41 44L42 44L42 42L40 42L40 41L44 41L44 42L43 42L43 44L44 44L44 45L45 45L45 46L47 46L47 47L48 47L48 48L49 48L49 47L51 47L51 46L53 46L53 47L52 47L52 48L53 48L53 49L54 49L54 48L53 48L53 47L54 47L54 46L56 46L56 43L55 43L55 44L54 44L54 46L53 46L53 43L54 43L54 42L53 42L53 41L54 41L54 40L53 40L53 41L51 41L51 42L50 42L50 43L49 43L49 42L48 42L48 41L49 41L49 40L50 40L50 39L53 39L53 35L55 35L55 34L54 34L54 33L56 33L56 32L53 32L53 33L52 33L52 31L51 31L51 33L52 33L52 34L50 34L50 31L48 31L48 28L47 28L47 29L46 29L46 30L47 30L47 31L46 31L46 32L43 32L43 31L44 31L44 29L45 29L45 28L46 28L46 27L47 27L47 25L49 25L49 23L50 23L50 26L53 26L53 27L54 27L54 26L53 26L53 25L54 25L54 24L53 24L53 23L55 23L55 22L56 22L56 21L55 21L55 20L56 20L56 19L55 19L55 20L53 20L53 19L52 19L52 20L51 20L51 21L49 21L49 20L46 20L46 21L45 21L45 20L44 20L44 18L45 18L45 19L46 19L46 18L47 18L47 17L48 17L48 16L49 16L49 17L50 17L50 18L48 18L48 19L51 19L51 17L53 17L53 18L55 18L55 17L54 17L54 16L53 16L53 15L54 15L54 13L53 13L53 12L52 12L52 13L53 13L53 15L52 15L52 16L51 16L51 15L50 15L50 14L51 14L51 12L50 12L50 11L48 11L48 12L45 12L45 11L44 11L44 10L41 10L41 9L43 9L43 8L44 8L44 6L45 6L45 7L46 7L46 6L45 6L45 5L47 5L47 3L44 3L44 6L43 6L43 5L40 5L40 4L41 4L41 3L38 3L38 5L37 5L37 4L36 4L36 5L35 5L35 3L34 3L34 2ZM8 3L8 4L10 4L10 3ZM15 4L15 5L16 5L16 4ZM32 4L32 5L34 5L34 7L33 7L33 6L32 6L32 7L33 7L33 9L34 9L34 8L35 8L35 9L37 9L37 10L36 10L36 12L35 12L35 13L37 13L37 14L36 14L36 15L37 15L37 14L38 14L38 15L39 15L39 16L38 16L38 17L37 17L37 16L35 16L35 14L33 14L33 13L34 13L34 12L33 12L33 10L32 10L32 12L31 12L31 13L30 13L30 14L29 14L29 13L28 13L28 14L29 14L29 16L28 16L28 15L27 15L27 16L26 16L26 15L25 15L25 16L26 16L26 18L25 18L25 17L22 17L22 16L21 16L21 17L22 17L22 18L21 18L21 20L24 20L24 21L22 21L22 22L21 22L21 23L22 23L22 22L24 22L24 21L25 21L25 22L26 22L26 23L25 23L25 24L24 24L24 23L23 23L23 24L24 24L24 25L22 25L22 26L21 26L21 27L22 27L22 26L26 26L26 27L25 27L25 28L24 28L24 29L23 29L23 30L25 30L25 31L24 31L24 32L25 32L25 31L26 31L26 34L25 34L25 33L23 33L23 34L24 34L24 36L23 36L23 35L22 35L22 36L23 36L23 37L24 37L24 38L22 38L22 37L19 37L19 36L20 36L20 35L19 35L19 36L17 36L17 37L19 37L19 38L20 38L20 39L18 39L18 38L17 38L17 39L18 39L18 40L17 40L17 41L19 41L19 42L18 42L18 43L17 43L17 42L15 42L15 43L16 43L16 45L17 45L17 46L18 46L18 47L19 47L19 48L20 48L20 49L21 49L21 48L20 48L20 47L19 47L19 46L20 46L20 43L21 43L21 44L22 44L22 45L24 45L24 44L23 44L23 42L25 42L25 41L23 41L23 42L22 42L22 41L21 41L21 42L20 42L20 41L19 41L19 40L23 40L23 39L24 39L24 40L25 40L25 39L26 39L26 40L28 40L28 39L27 39L27 38L28 38L28 37L27 37L27 36L26 36L26 35L27 35L27 31L29 31L29 32L28 32L28 33L29 33L29 34L30 34L30 36L29 36L29 37L31 37L31 38L29 38L29 39L33 39L33 40L35 40L35 39L38 39L38 40L40 40L40 39L38 39L38 37L40 37L40 38L43 38L43 37L44 37L44 38L45 38L45 39L42 39L42 40L47 40L47 39L50 39L50 38L51 38L51 36L52 36L52 35L53 35L53 34L52 34L52 35L50 35L50 34L48 34L48 35L50 35L50 38L49 38L49 36L48 36L48 37L47 37L47 39L46 39L46 38L45 38L45 37L46 37L46 36L47 36L47 35L46 35L46 36L45 36L45 35L44 35L44 33L43 33L43 32L41 32L41 33L39 33L39 34L40 34L40 35L39 35L39 36L38 36L38 33L37 33L37 32L35 32L35 34L34 34L34 33L33 33L33 34L34 34L34 35L32 35L32 34L31 34L31 33L32 33L32 32L31 32L31 33L29 33L29 32L30 32L30 31L31 31L31 30L32 30L32 31L33 31L33 32L34 32L34 31L35 31L35 30L37 30L37 29L38 29L38 28L40 28L40 27L41 27L41 28L42 28L42 26L45 26L45 25L44 25L44 20L43 20L43 21L39 21L39 20L41 20L41 18L42 18L42 19L43 19L43 18L44 18L44 15L45 15L45 16L46 16L46 17L45 17L45 18L46 18L46 17L47 17L47 16L48 16L48 15L49 15L49 16L50 16L50 15L49 15L49 14L50 14L50 12L49 12L49 13L47 13L47 14L44 14L44 11L43 11L43 13L41 13L41 14L40 14L40 15L39 15L39 14L38 14L38 13L39 13L39 11L40 11L40 12L41 12L41 11L40 11L40 10L39 10L39 11L38 11L38 8L40 8L40 7L41 7L41 6L40 6L40 5L39 5L39 6L38 6L38 7L37 7L37 5L36 5L36 7L37 7L37 8L35 8L35 5L34 5L34 4ZM27 5L27 8L30 8L30 5ZM18 6L18 7L19 7L19 6ZM21 6L21 7L22 7L22 6ZM28 6L28 7L29 7L29 6ZM39 6L39 7L40 7L40 6ZM42 6L42 7L43 7L43 6ZM48 6L48 7L49 7L49 6ZM16 8L16 9L15 9L15 10L12 10L12 11L14 11L14 12L13 12L13 13L15 13L15 14L12 14L12 15L13 15L13 16L12 16L12 17L13 17L13 18L15 18L15 21L16 21L16 22L15 22L15 23L13 23L13 25L14 25L14 24L15 24L15 25L16 25L16 24L17 24L17 25L21 25L21 24L17 24L17 21L18 21L18 22L19 22L19 23L20 23L20 22L19 22L19 21L20 21L20 19L19 19L19 18L20 18L20 17L19 17L19 16L20 16L20 15L23 15L23 16L24 16L24 15L23 15L23 14L22 14L22 13L21 13L21 14L20 14L20 12L19 12L19 10L20 10L20 11L21 11L21 10L20 10L20 9L19 9L19 8ZM51 8L51 9L52 9L52 10L53 10L53 9L54 9L54 8L53 8L53 9L52 9L52 8ZM55 8L55 9L56 9L56 8ZM16 9L16 10L15 10L15 11L16 11L16 12L15 12L15 13L16 13L16 16L18 16L18 14L17 14L17 13L18 13L18 12L17 12L17 11L18 11L18 10L19 10L19 9L18 9L18 10L17 10L17 9ZM16 12L16 13L17 13L17 12ZM32 12L32 13L31 13L31 14L30 14L30 15L32 15L32 13L33 13L33 12ZM6 14L6 15L7 15L7 16L6 16L6 17L7 17L7 16L9 16L9 15L10 15L10 14ZM19 14L19 15L20 15L20 14ZM41 14L41 16L39 16L39 17L38 17L38 18L37 18L37 17L35 17L35 16L31 16L31 18L30 18L30 19L28 19L28 18L26 18L26 20L25 20L25 21L28 21L28 22L27 22L27 24L25 24L25 25L26 25L26 26L30 26L30 25L29 25L29 24L30 24L30 23L31 23L31 24L32 24L32 26L31 26L31 27L32 27L32 30L35 30L35 29L36 29L36 28L37 28L37 27L39 27L39 26L42 26L42 25L43 25L43 23L42 23L42 22L41 22L41 24L40 24L40 22L39 22L39 21L38 21L38 20L37 20L37 19L39 19L39 17L41 17L41 16L42 16L42 17L43 17L43 16L42 16L42 15L44 15L44 14ZM14 15L14 17L15 17L15 18L16 18L16 21L17 21L17 20L19 20L19 19L17 19L17 17L15 17L15 15ZM27 16L27 17L28 17L28 16ZM23 18L23 19L24 19L24 18ZM31 18L31 20L30 20L30 21L29 21L29 23L28 23L28 24L27 24L27 25L28 25L28 24L29 24L29 23L30 23L30 22L31 22L31 21L32 21L32 20L34 20L34 19L33 19L33 18ZM27 19L27 20L28 20L28 19ZM35 19L35 23L32 23L32 24L33 24L33 25L37 25L37 26L38 26L38 25L40 25L40 24L37 24L37 22L38 22L38 21L37 21L37 20L36 20L36 19ZM9 21L9 23L10 23L10 21ZM13 21L13 22L14 22L14 21ZM47 21L47 22L45 22L45 24L48 24L48 23L47 23L47 22L49 22L49 21ZM51 21L51 22L50 22L50 23L53 23L53 22L54 22L54 21ZM4 22L4 23L3 23L3 25L4 25L4 23L5 23L5 24L6 24L6 23L7 23L7 22L6 22L6 23L5 23L5 22ZM11 23L11 24L12 24L12 23ZM15 23L15 24L16 24L16 23ZM41 24L41 25L42 25L42 24ZM55 25L55 26L56 26L56 25ZM11 26L11 27L10 27L10 28L12 28L12 29L13 29L13 28L12 28L12 27L13 27L13 26ZM17 26L17 27L18 27L18 26ZM32 26L32 27L33 27L33 28L36 28L36 26L34 26L34 27L33 27L33 26ZM5 27L5 30L8 30L8 27ZM27 27L27 30L30 30L30 27ZM44 27L44 28L43 28L43 29L41 29L41 30L43 30L43 29L44 29L44 28L45 28L45 27ZM49 27L49 30L52 30L52 27ZM6 28L6 29L7 29L7 28ZM16 28L16 29L18 29L18 28ZM25 28L25 29L26 29L26 28ZM28 28L28 29L29 29L29 28ZM50 28L50 29L51 29L51 28ZM39 29L39 30L38 30L38 32L39 32L39 30L40 30L40 29ZM20 30L20 31L21 31L21 32L23 32L23 31L21 31L21 30ZM6 31L6 32L5 32L5 36L8 36L8 34L9 34L9 32L10 32L10 33L11 33L11 32L10 32L10 31L9 31L9 32L7 32L7 31ZM47 31L47 32L48 32L48 33L49 33L49 32L48 32L48 31ZM6 32L6 33L7 33L7 32ZM13 33L13 34L12 34L12 35L13 35L13 36L12 36L12 37L13 37L13 38L12 38L12 39L13 39L13 40L14 40L14 39L15 39L15 41L16 41L16 39L15 39L15 38L16 38L16 37L14 37L14 36L16 36L16 35L17 35L17 34L18 34L18 33L17 33L17 34L14 34L14 33ZM21 33L21 34L22 34L22 33ZM6 34L6 35L7 35L7 34ZM13 34L13 35L14 35L14 34ZM35 34L35 36L37 36L37 34ZM42 34L42 35L43 35L43 36L40 36L40 37L43 37L43 36L44 36L44 37L45 37L45 36L44 36L44 35L43 35L43 34ZM2 36L2 37L3 37L3 38L4 38L4 39L3 39L3 40L4 40L4 41L5 41L5 42L3 42L3 44L2 44L2 45L3 45L3 47L5 47L5 46L8 46L8 45L5 45L5 44L7 44L7 43L8 43L8 42L7 42L7 41L6 41L6 40L7 40L7 39L6 39L6 38L7 38L7 37L6 37L6 38L4 38L4 36ZM32 36L32 37L33 37L33 38L34 38L34 39L35 39L35 37L33 37L33 36ZM55 36L55 37L56 37L56 36ZM25 37L25 38L27 38L27 37ZM0 38L0 39L1 39L1 38ZM13 38L13 39L14 39L14 38ZM54 38L54 39L55 39L55 38ZM4 39L4 40L6 40L6 39ZM29 40L29 41L32 41L32 42L33 42L33 43L34 43L34 42L33 42L33 41L32 41L32 40ZM26 41L26 42L27 42L27 41ZM5 42L5 43L7 43L7 42ZM21 42L21 43L22 43L22 42ZM44 42L44 43L45 43L45 42ZM46 42L46 44L45 44L45 45L47 45L47 43L48 43L48 42ZM51 42L51 43L50 43L50 44L48 44L48 45L49 45L49 46L48 46L48 47L49 47L49 46L51 46L51 45L52 45L52 44L51 44L51 43L53 43L53 42ZM25 43L25 44L27 44L27 43ZM14 44L14 45L15 45L15 44ZM17 44L17 45L18 45L18 44ZM50 44L50 45L51 45L51 44ZM26 45L26 47L27 47L27 45ZM1 46L1 47L2 47L2 46ZM33 46L33 49L34 49L34 47L35 47L35 46ZM38 48L38 49L39 49L39 48ZM42 48L42 49L43 49L43 48ZM55 48L55 50L54 50L54 51L55 51L55 50L56 50L56 48ZM12 49L12 50L14 50L14 49ZM27 49L27 52L30 52L30 49ZM49 49L49 52L52 52L52 49ZM18 50L18 51L16 51L16 53L15 53L15 54L16 54L16 53L17 53L17 52L18 52L18 51L19 51L19 50ZM28 50L28 51L29 51L29 50ZM32 50L32 52L33 52L33 53L34 53L34 52L33 52L33 50ZM50 50L50 51L51 51L51 50ZM24 53L24 54L23 54L23 55L24 55L24 56L26 56L26 54L25 54L25 53ZM43 53L43 54L44 54L44 53ZM17 54L17 56L18 56L18 55L19 55L19 54ZM37 55L37 56L39 56L39 55ZM50 55L50 56L51 56L51 55ZM53 55L53 56L55 56L55 57L56 57L56 56L55 56L55 55ZM0 0L0 7L7 7L7 0ZM1 1L1 6L6 6L6 1ZM2 2L2 5L5 5L5 2ZM50 0L50 7L57 7L57 0ZM51 1L51 6L56 6L56 1ZM52 2L52 5L55 5L55 2ZM0 50L0 57L7 57L7 50ZM1 51L1 56L6 56L6 51ZM2 52L2 55L5 55L5 52Z" fill="#000000"/></g></g></svg>
