<?xml version="1.0" encoding="UTF-8"?>
<svg xmlns="http://www.w3.org/2000/svg" version="1.1" width="300" height="300" viewBox="0 0 300 300"><rect x="0" y="0" width="300" height="300" fill="#fefefe"/><g transform="scale(4.615)"><g transform="translate(4,4)"><path fill-rule="evenodd" d="M9 0L9 1L8 1L8 2L9 2L9 1L10 1L10 2L13 2L13 4L14 4L14 2L15 2L15 1L14 1L14 0L13 0L13 1L12 1L12 0L11 0L11 1L10 1L10 0ZM17 0L17 1L16 1L16 3L17 3L17 4L18 4L18 5L20 5L20 7L19 7L19 6L18 6L18 7L17 7L17 6L16 6L16 7L15 7L15 5L16 5L16 4L15 4L15 5L14 5L14 7L15 7L15 8L16 8L16 9L17 9L17 10L16 10L16 11L15 11L15 10L13 10L13 9L14 9L14 8L13 8L13 9L10 9L10 8L12 8L12 7L13 7L13 5L12 5L12 4L11 4L11 5L12 5L12 7L11 7L11 6L10 6L10 8L6 8L6 9L8 9L8 10L5 10L5 8L0 8L0 9L2 9L2 10L0 10L0 14L1 14L1 15L0 15L0 18L1 18L1 19L0 19L0 20L1 20L1 19L3 19L3 18L4 18L4 17L3 17L3 16L2 16L2 17L3 17L3 18L1 18L1 15L2 15L2 14L3 14L3 11L4 11L4 12L5 12L5 13L4 13L4 14L5 14L5 13L7 13L7 12L8 12L8 13L9 13L9 14L8 14L8 15L9 15L9 17L8 17L8 18L6 18L6 19L7 19L7 20L6 20L6 21L7 21L7 22L6 22L6 23L5 23L5 25L3 25L3 23L2 23L2 25L1 25L1 26L0 26L0 28L1 28L1 29L0 29L0 30L1 30L1 32L0 32L0 35L1 35L1 34L2 34L2 36L1 36L1 37L2 37L2 38L1 38L1 39L0 39L0 40L1 40L1 39L2 39L2 41L3 41L3 42L2 42L2 43L4 43L4 42L5 42L5 47L3 47L3 46L4 46L4 45L3 45L3 44L1 44L1 45L0 45L0 48L5 48L5 47L7 47L7 48L6 48L6 49L8 49L8 51L9 51L9 52L8 52L8 57L10 57L10 55L11 55L11 54L10 54L10 55L9 55L9 52L11 52L11 53L12 53L12 50L14 50L14 49L19 49L19 50L16 50L16 51L14 51L14 52L13 52L13 54L12 54L12 57L15 57L15 56L13 56L13 55L14 55L14 54L15 54L15 55L16 55L16 56L17 56L17 57L19 57L19 55L20 55L20 54L19 54L19 53L20 53L20 52L21 52L21 51L19 51L19 50L20 50L20 49L21 49L21 50L25 50L25 49L24 49L24 48L25 48L25 45L24 45L24 44L27 44L27 43L28 43L28 45L26 45L26 47L27 47L27 48L26 48L26 53L25 53L25 52L24 52L24 53L23 53L23 54L22 54L22 53L21 53L21 54L22 54L22 55L23 55L23 56L24 56L24 57L26 57L26 55L27 55L27 54L30 54L30 53L31 53L31 49L32 49L32 48L33 48L33 47L34 47L34 48L35 48L35 49L36 49L36 50L34 50L34 49L33 49L33 50L32 50L32 52L33 52L33 53L32 53L32 54L31 54L31 56L30 56L30 55L29 55L29 56L27 56L27 57L29 57L29 56L30 56L30 57L31 57L31 56L35 56L35 57L40 57L40 56L41 56L41 57L44 57L44 56L42 56L42 55L44 55L44 54L45 54L45 53L44 53L44 52L47 52L47 50L48 50L48 54L47 54L47 56L48 56L48 57L49 57L49 56L50 56L50 57L52 57L52 55L51 55L51 53L52 53L52 54L53 54L53 52L54 52L54 53L56 53L56 52L57 52L57 51L56 51L56 50L57 50L57 48L56 48L56 46L57 46L57 43L56 43L56 41L55 41L55 39L57 39L57 36L56 36L56 34L57 34L57 32L56 32L56 30L57 30L57 27L56 27L56 26L57 26L57 25L56 25L56 22L57 22L57 20L56 20L56 22L55 22L55 23L54 23L54 24L53 24L53 26L50 26L50 25L51 25L51 24L50 24L50 23L53 23L53 22L54 22L54 21L51 21L51 20L52 20L52 19L53 19L53 20L55 20L55 19L56 19L56 18L57 18L57 17L56 17L56 16L57 16L57 15L56 15L56 14L57 14L57 11L56 11L56 10L54 10L54 11L52 11L52 10L53 10L53 9L54 9L54 8L53 8L53 9L52 9L52 8L51 8L51 11L50 11L50 12L49 12L49 11L47 11L47 10L50 10L50 8L49 8L49 6L48 6L48 7L47 7L47 5L48 5L48 0L45 0L45 2L44 2L44 3L41 3L41 2L43 2L43 0L41 0L41 1L40 1L40 0L39 0L39 1L38 1L38 0L37 0L37 1L38 1L38 2L39 2L39 3L41 3L41 4L40 4L40 5L39 5L39 6L38 6L38 3L36 3L36 0L35 0L35 1L33 1L33 2L32 2L32 0L29 0L29 1L25 1L25 0L23 0L23 2L22 2L22 3L23 3L23 4L22 4L22 5L21 5L21 4L19 4L19 3L17 3L17 1L18 1L18 2L19 2L19 1L18 1L18 0ZM21 0L21 1L20 1L20 2L21 2L21 1L22 1L22 0ZM13 1L13 2L14 2L14 1ZM29 1L29 2L31 2L31 3L32 3L32 4L31 4L31 8L32 8L32 10L31 10L31 11L29 11L29 10L28 10L28 9L27 9L27 10L28 10L28 11L29 11L29 12L28 12L28 13L26 13L26 12L27 12L27 11L26 11L26 12L25 12L25 10L23 10L23 11L24 11L24 12L25 12L25 14L27 14L27 15L26 15L26 17L25 17L25 16L24 16L24 15L20 15L20 18L19 18L19 17L18 17L18 18L17 18L17 17L15 17L15 16L14 16L14 15L13 15L13 14L15 14L15 13L16 13L16 16L17 16L17 15L18 15L18 14L17 14L17 13L18 13L18 12L17 12L17 11L18 11L18 10L19 10L19 9L18 9L18 10L17 10L17 11L16 11L16 12L15 12L15 13L13 13L13 14L12 14L12 15L13 15L13 16L14 16L14 17L15 17L15 18L13 18L13 19L14 19L14 20L12 20L12 21L14 21L14 22L16 22L16 21L17 21L17 24L21 24L21 25L19 25L19 26L18 26L18 25L15 25L15 24L16 24L16 23L13 23L13 22L11 22L11 23L10 23L10 22L9 22L9 23L8 23L8 24L11 24L11 26L10 26L10 25L8 25L8 26L10 26L10 27L11 27L11 29L9 29L9 30L12 30L12 29L13 29L13 28L14 28L14 29L16 29L16 31L15 31L15 30L13 30L13 31L15 31L15 32L13 32L13 33L14 33L14 34L12 34L12 33L11 33L11 35L10 35L10 36L9 36L9 35L8 35L8 36L9 36L9 37L5 37L5 36L7 36L7 35L6 35L6 34L7 34L7 33L8 33L8 32L9 32L9 33L10 33L10 32L12 32L12 31L6 31L6 32L5 32L5 33L4 33L4 31L3 31L3 30L4 30L4 26L2 26L2 28L3 28L3 29L1 29L1 30L2 30L2 32L1 32L1 33L2 33L2 32L3 32L3 33L4 33L4 34L5 34L5 35L4 35L4 37L3 37L3 38L4 38L4 39L5 39L5 38L7 38L7 39L6 39L6 40L4 40L4 41L6 41L6 42L7 42L7 43L6 43L6 44L7 44L7 45L6 45L6 46L7 46L7 47L8 47L8 46L7 46L7 45L8 45L8 44L9 44L9 45L10 45L10 46L11 46L11 47L12 47L12 43L13 43L13 46L14 46L14 42L15 42L15 43L18 43L18 42L19 42L19 43L20 43L20 44L21 44L21 45L19 45L19 46L20 46L20 48L19 48L19 49L20 49L20 48L21 48L21 49L23 49L23 48L24 48L24 47L21 47L21 45L22 45L22 46L24 46L24 45L22 45L22 44L21 44L21 43L22 43L22 42L23 42L23 40L24 40L24 41L25 41L25 43L27 43L27 42L30 42L30 41L31 41L31 42L32 42L32 43L33 43L33 44L32 44L32 45L33 45L33 46L32 46L32 47L33 47L33 46L35 46L35 48L36 48L36 47L37 47L37 46L35 46L35 45L34 45L34 43L35 43L35 44L36 44L36 43L37 43L37 42L35 42L35 40L38 40L38 42L39 42L39 41L42 41L42 39L43 39L43 40L44 40L44 41L43 41L43 42L44 42L44 45L43 45L43 46L41 46L41 44L42 44L42 42L40 42L40 43L39 43L39 45L38 45L38 46L39 46L39 47L38 47L38 48L37 48L37 49L38 49L38 50L36 50L36 52L37 52L37 53L38 53L38 54L37 54L37 56L40 56L40 55L38 55L38 54L40 54L40 53L41 53L41 52L40 52L40 51L38 51L38 50L41 50L41 51L42 51L42 52L43 52L43 51L46 51L46 50L47 50L47 49L48 49L48 48L50 48L50 47L51 47L51 46L52 46L52 47L55 47L55 46L56 46L56 43L55 43L55 44L54 44L54 45L51 45L51 46L50 46L50 45L48 45L48 44L50 44L50 43L51 43L51 44L53 44L53 43L54 43L54 42L53 42L53 41L54 41L54 40L53 40L53 41L51 41L51 42L50 42L50 43L49 43L49 42L48 42L48 41L49 41L49 39L52 39L52 38L53 38L53 39L55 39L55 38L54 38L54 37L53 37L53 35L55 35L55 34L56 34L56 32L54 32L54 31L55 31L55 30L54 30L54 29L56 29L56 27L55 27L55 28L54 28L54 29L53 29L53 30L54 30L54 31L53 31L53 32L54 32L54 33L52 33L52 32L51 32L51 31L48 31L48 29L46 29L46 30L47 30L47 31L46 31L46 33L45 33L45 32L43 32L43 31L45 31L45 30L44 30L44 29L45 29L45 28L46 28L46 27L48 27L48 26L47 26L47 25L45 25L45 22L47 22L47 21L48 21L48 20L49 20L49 19L51 19L51 17L53 17L53 18L55 18L55 17L53 17L53 16L51 16L51 17L50 17L50 14L51 14L51 12L50 12L50 14L49 14L49 15L48 15L48 16L46 16L46 17L45 17L45 15L44 15L44 18L43 18L43 20L42 20L42 21L43 21L43 20L44 20L44 23L42 23L42 22L41 22L41 24L40 24L40 22L39 22L39 21L41 21L41 20L38 20L38 19L39 19L39 17L41 17L41 16L42 16L42 17L43 17L43 16L42 16L42 15L43 15L43 14L41 14L41 13L43 13L43 11L42 11L42 10L41 10L41 9L42 9L42 8L41 8L41 7L42 7L42 6L41 6L41 5L40 5L40 6L39 6L39 7L40 7L40 8L38 8L38 11L39 11L39 12L40 12L40 13L38 13L38 14L37 14L37 13L36 13L36 14L37 14L37 15L35 15L35 16L33 16L33 15L32 15L32 13L33 13L33 14L35 14L35 11L36 11L36 10L37 10L37 9L35 9L35 8L37 8L37 7L38 7L38 6L37 6L37 7L36 7L36 5L37 5L37 4L36 4L36 5L35 5L35 4L33 4L33 3L32 3L32 2L31 2L31 1ZM46 1L46 2L47 2L47 1ZM23 2L23 3L26 3L26 4L25 4L25 8L24 8L24 6L23 6L23 8L20 8L20 11L19 11L19 12L20 12L20 14L21 14L21 13L22 13L22 14L23 14L23 13L22 13L22 12L21 12L21 11L22 11L22 10L21 10L21 9L25 9L25 8L26 8L26 4L27 4L27 3L28 3L28 4L30 4L30 3L28 3L28 2ZM8 3L8 4L9 4L9 5L8 5L8 7L9 7L9 5L10 5L10 3ZM44 3L44 6L43 6L43 7L44 7L44 9L45 9L45 11L44 11L44 14L47 14L47 13L49 13L49 12L45 12L45 11L46 11L46 10L47 10L47 9L49 9L49 8L45 8L45 7L46 7L46 5L47 5L47 3ZM23 4L23 5L24 5L24 4ZM32 4L32 5L33 5L33 6L32 6L32 7L33 7L33 9L34 9L34 8L35 8L35 5L33 5L33 4ZM45 4L45 5L46 5L46 4ZM27 5L27 8L30 8L30 5ZM21 6L21 7L22 7L22 6ZM28 6L28 7L29 7L29 6ZM33 6L33 7L34 7L34 6ZM40 6L40 7L41 7L41 6ZM44 6L44 7L45 7L45 6ZM16 7L16 8L17 8L17 7ZM55 8L55 9L56 9L56 8ZM3 9L3 10L2 10L2 11L3 11L3 10L4 10L4 11L5 11L5 12L7 12L7 11L5 11L5 10L4 10L4 9ZM9 9L9 11L8 11L8 12L9 12L9 13L10 13L10 9ZM11 10L11 13L12 13L12 10ZM32 10L32 11L33 11L33 10ZM39 10L39 11L40 11L40 12L41 12L41 11L40 11L40 10ZM13 11L13 12L14 12L14 11ZM55 11L55 12L54 12L54 13L53 13L53 12L52 12L52 13L53 13L53 14L54 14L54 13L55 13L55 14L56 14L56 11ZM1 12L1 13L2 13L2 12ZM16 12L16 13L17 13L17 12ZM31 12L31 13L30 13L30 14L29 14L29 13L28 13L28 14L29 14L29 16L28 16L28 15L27 15L27 16L28 16L28 17L27 17L27 18L28 18L28 19L27 19L27 20L28 20L28 19L30 19L30 18L31 18L31 20L30 20L30 21L25 21L25 20L26 20L26 19L25 19L25 17L22 17L22 16L21 16L21 17L22 17L22 18L24 18L24 19L23 19L23 20L24 20L24 21L22 21L22 22L21 22L21 23L22 23L22 24L24 24L24 25L22 25L22 26L19 26L19 27L22 27L22 26L24 26L24 27L25 27L25 28L23 28L23 30L25 30L25 31L24 31L24 32L25 32L25 31L26 31L26 32L28 32L28 33L29 33L29 34L30 34L30 36L29 36L29 37L31 37L31 38L29 38L29 39L33 39L33 40L35 40L35 39L37 39L37 38L38 38L38 37L40 37L40 38L43 38L43 37L44 37L44 38L45 38L45 37L44 37L44 36L45 36L45 35L46 35L46 36L48 36L48 37L47 37L47 39L44 39L44 40L45 40L45 41L44 41L44 42L45 42L45 41L47 41L47 39L49 39L49 38L50 38L50 37L51 37L51 36L52 36L52 35L53 35L53 34L52 34L52 33L51 33L51 32L50 32L50 34L48 34L48 35L46 35L46 34L45 34L45 33L43 33L43 32L41 32L41 33L39 33L39 34L40 34L40 35L38 35L38 33L37 33L37 32L33 32L33 33L35 33L35 34L32 34L32 35L31 35L31 33L32 33L32 32L31 32L31 33L29 33L29 32L28 32L28 31L31 31L31 29L32 29L32 31L36 31L36 30L37 30L37 29L38 29L38 28L39 28L39 27L40 27L40 26L39 26L39 27L36 27L36 26L34 26L34 27L33 27L33 26L32 26L32 24L33 24L33 25L37 25L37 26L38 26L38 25L40 25L40 24L37 24L37 23L39 23L39 22L38 22L38 20L36 20L36 19L33 19L33 17L32 17L32 15L30 15L30 14L31 14L31 13L32 13L32 12ZM33 12L33 13L34 13L34 12ZM6 14L6 15L4 15L4 16L5 16L5 17L7 17L7 16L6 16L6 15L7 15L7 14ZM9 14L9 15L11 15L11 14ZM38 14L38 15L39 15L39 16L38 16L38 17L37 17L37 16L35 16L35 17L37 17L37 18L38 18L38 17L39 17L39 16L41 16L41 14ZM10 16L10 17L9 17L9 19L11 19L11 18L12 18L12 17L11 17L11 16ZM48 16L48 17L47 17L47 19L45 19L45 18L44 18L44 20L45 20L45 21L47 21L47 20L48 20L48 19L49 19L49 18L50 18L50 17L49 17L49 16ZM15 18L15 19L16 19L16 20L15 20L15 21L16 21L16 20L17 20L17 21L18 21L18 22L19 22L19 23L20 23L20 22L19 22L19 21L20 21L20 20L22 20L22 19L21 19L21 18L20 18L20 20L19 20L19 19L18 19L18 20L17 20L17 19L16 19L16 18ZM41 18L41 19L42 19L42 18ZM2 20L2 21L1 21L1 22L3 22L3 20ZM7 20L7 21L11 21L11 20ZM32 20L32 21L31 21L31 24L25 24L25 23L26 23L26 22L25 22L25 21L24 21L24 22L22 22L22 23L24 23L24 24L25 24L25 25L26 25L26 26L25 26L25 27L26 27L26 26L27 26L27 25L28 25L28 26L29 26L29 25L31 25L31 24L32 24L32 23L33 23L33 22L34 22L34 23L35 23L35 21L34 21L34 20ZM49 21L49 22L48 22L48 24L49 24L49 25L50 25L50 24L49 24L49 23L50 23L50 22L51 22L51 21ZM29 22L29 23L30 23L30 22ZM6 23L6 24L7 24L7 23ZM41 24L41 25L42 25L42 26L41 26L41 28L42 28L42 26L43 26L43 25L44 25L44 28L43 28L43 29L41 29L41 30L43 30L43 29L44 29L44 28L45 28L45 25L44 25L44 24ZM54 24L54 25L55 25L55 26L56 26L56 25L55 25L55 24ZM5 25L5 26L7 26L7 25ZM12 25L12 28L13 28L13 25ZM14 25L14 26L15 26L15 27L16 27L16 26L15 26L15 25ZM17 26L17 27L18 27L18 26ZM31 26L31 27L32 27L32 29L33 29L33 30L35 30L35 28L33 28L33 27L32 27L32 26ZM53 26L53 27L54 27L54 26ZM5 27L5 30L8 30L8 27ZM27 27L27 30L30 30L30 27ZM49 27L49 30L52 30L52 27ZM6 28L6 29L7 29L7 28ZM16 28L16 29L18 29L18 32L15 32L15 33L19 33L19 34L20 34L20 33L19 33L19 31L20 31L20 29L18 29L18 28ZM21 28L21 29L22 29L22 28ZM25 28L25 29L26 29L26 28ZM28 28L28 29L29 29L29 28ZM50 28L50 29L51 29L51 28ZM39 29L39 30L38 30L38 32L39 32L39 30L40 30L40 29ZM21 31L21 32L23 32L23 31ZM47 31L47 32L48 32L48 33L49 33L49 32L48 32L48 31ZM6 32L6 33L7 33L7 32ZM21 33L21 34L22 34L22 33ZM23 33L23 34L24 34L24 36L23 36L23 35L20 35L20 36L23 36L23 37L24 37L24 38L23 38L23 39L22 39L22 40L23 40L23 39L24 39L24 40L25 40L25 39L27 39L27 40L28 40L28 41L30 41L30 40L28 40L28 39L27 39L27 38L28 38L28 37L27 37L27 35L26 35L26 34L27 34L27 33L26 33L26 34L25 34L25 33ZM54 33L54 34L55 34L55 33ZM15 34L15 35L14 35L14 36L13 36L13 35L12 35L12 36L10 36L10 37L9 37L9 39L8 39L8 41L9 41L9 39L10 39L10 37L11 37L11 38L12 38L12 37L15 37L15 38L13 38L13 41L11 41L11 40L10 40L10 42L9 42L9 43L10 43L10 45L11 45L11 43L10 43L10 42L13 42L13 41L15 41L15 40L16 40L16 39L15 39L15 38L16 38L16 37L15 37L15 36L17 36L17 38L18 38L18 39L17 39L17 40L18 40L18 41L17 41L17 42L18 42L18 41L19 41L19 42L20 42L20 41L21 41L21 42L22 42L22 41L21 41L21 37L19 37L19 36L17 36L17 34ZM35 34L35 36L37 36L37 37L38 37L38 35L37 35L37 34ZM42 34L42 35L41 35L41 36L40 36L40 37L43 37L43 36L44 36L44 35L45 35L45 34ZM50 34L50 35L48 35L48 36L50 36L50 35L52 35L52 34ZM33 35L33 36L32 36L32 37L33 37L33 39L35 39L35 37L34 37L34 35ZM25 36L25 38L26 38L26 36ZM18 37L18 38L19 38L19 39L20 39L20 38L19 38L19 37ZM48 37L48 38L49 38L49 37ZM38 39L38 40L39 40L39 39ZM6 40L6 41L7 41L7 40ZM19 40L19 41L20 41L20 40ZM31 40L31 41L32 41L32 42L33 42L33 43L34 43L34 42L33 42L33 41L32 41L32 40ZM0 41L0 43L1 43L1 41ZM26 41L26 42L27 42L27 41ZM47 42L47 43L46 43L46 44L45 44L45 45L47 45L47 46L45 46L45 47L44 47L44 46L43 46L43 47L42 47L42 48L41 48L41 46L40 46L40 47L39 47L39 48L38 48L38 49L39 49L39 48L41 48L41 50L42 50L42 51L43 51L43 50L46 50L46 48L48 48L48 47L50 47L50 46L48 46L48 45L47 45L47 43L48 43L48 42ZM51 42L51 43L53 43L53 42ZM29 43L29 45L28 45L28 46L27 46L27 47L28 47L28 46L31 46L31 44L30 44L30 43ZM15 44L15 47L16 47L16 48L17 48L17 47L18 47L18 46L17 46L17 45L18 45L18 44ZM54 45L54 46L55 46L55 45ZM1 46L1 47L2 47L2 46ZM9 47L9 48L10 48L10 49L11 49L11 48L10 48L10 47ZM29 47L29 48L30 48L30 47ZM43 47L43 48L42 48L42 49L43 49L43 48L44 48L44 49L45 49L45 48L46 48L46 47L45 47L45 48L44 48L44 47ZM13 48L13 49L14 49L14 48ZM53 48L53 49L55 49L55 50L54 50L54 51L55 51L55 50L56 50L56 48ZM27 49L27 52L30 52L30 49ZM49 49L49 52L52 52L52 49ZM9 50L9 51L11 51L11 50ZM28 50L28 51L29 51L29 50ZM33 50L33 52L34 52L34 53L33 53L33 54L35 54L35 56L36 56L36 54L35 54L35 51L34 51L34 50ZM50 50L50 51L51 51L51 50ZM16 51L16 53L15 53L15 52L14 52L14 53L15 53L15 54L16 54L16 53L17 53L17 51ZM18 51L18 52L19 52L19 51ZM38 52L38 53L39 53L39 52ZM24 53L24 54L23 54L23 55L24 55L24 56L25 56L25 53ZM43 53L43 54L44 54L44 53ZM17 54L17 56L18 56L18 54ZM41 54L41 55L42 55L42 54ZM50 55L50 56L51 56L51 55ZM53 55L53 56L55 56L55 57L56 57L56 56L55 56L55 55ZM45 56L45 57L46 57L46 56ZM0 0L0 7L7 7L7 0ZM1 1L1 6L6 6L6 1ZM2 2L2 5L5 5L5 2ZM50 0L50 7L57 7L57 0ZM51 1L51 6L56 6L56 1ZM52 2L52 5L55 5L55 2ZM0 50L0 57L7 57L7 50ZM1 51L1 56L6 56L6 51ZM2 52L2 55L5 55L5 52Z" fill="#000000"/></g></g></svg>
