<?xml version="1.0" encoding="UTF-8"?>
<svg xmlns="http://www.w3.org/2000/svg" version="1.1" width="300" height="300" viewBox="0 0 300 300"><rect x="0" y="0" width="300" height="300" fill="#fefefe"/><g transform="scale(4.615)"><g transform="translate(4,4)"><path fill-rule="evenodd" d="M12 0L12 1L14 1L14 2L13 2L13 3L12 3L12 4L11 4L11 1L8 1L8 2L9 2L9 3L8 3L8 4L9 4L9 5L8 5L8 7L9 7L9 8L6 8L6 9L7 9L7 10L5 10L5 8L0 8L0 15L2 15L2 18L1 18L1 19L0 19L0 20L1 20L1 19L2 19L2 20L3 20L3 19L2 19L2 18L4 18L4 20L5 20L5 22L6 22L6 23L8 23L8 24L5 24L5 23L4 23L4 25L3 25L3 30L4 30L4 32L5 32L5 33L3 33L3 31L2 31L2 29L1 29L1 30L0 30L0 32L1 32L1 31L2 31L2 34L5 34L5 35L3 35L3 36L2 36L2 35L1 35L1 33L0 33L0 38L3 38L3 37L4 37L4 40L3 40L3 42L2 42L2 40L1 40L1 39L0 39L0 41L1 41L1 42L0 42L0 44L3 44L3 45L2 45L2 47L1 47L1 46L0 46L0 48L5 48L5 47L7 47L7 48L6 48L6 49L8 49L8 51L9 51L9 52L8 52L8 57L10 57L10 56L9 56L9 55L10 55L10 53L11 53L11 57L13 57L13 55L14 55L14 57L16 57L16 56L17 56L17 57L19 57L19 56L18 56L18 55L20 55L20 54L19 54L19 53L20 53L20 52L23 52L23 50L25 50L25 51L26 51L26 53L25 53L25 52L24 52L24 53L23 53L23 54L22 54L22 53L21 53L21 54L22 54L22 56L23 56L23 57L26 57L26 56L27 56L27 57L29 57L29 56L30 56L30 57L31 57L31 56L35 56L35 57L39 57L39 56L37 56L37 55L40 55L40 56L41 56L41 57L44 57L44 54L45 54L45 55L46 55L46 54L45 54L45 53L47 53L47 57L49 57L49 56L50 56L50 57L52 57L52 55L51 55L51 53L52 53L52 54L53 54L53 57L54 57L54 56L55 56L55 57L56 57L56 56L55 56L55 53L56 53L56 52L55 52L55 51L56 51L56 50L55 50L55 48L56 48L56 49L57 49L57 48L56 48L56 46L57 46L57 45L56 45L56 44L55 44L55 43L56 43L56 42L57 42L57 41L56 41L56 42L55 42L55 39L57 39L57 37L56 37L56 36L55 36L55 35L56 35L56 34L55 34L55 32L56 32L56 33L57 33L57 32L56 32L56 30L57 30L57 29L56 29L56 28L57 28L57 27L56 27L56 26L57 26L57 25L56 25L56 22L57 22L57 20L56 20L56 19L55 19L55 18L57 18L57 17L56 17L56 16L57 16L57 15L56 15L56 14L57 14L57 11L56 11L56 10L54 10L54 11L52 11L52 10L53 10L53 9L54 9L54 8L53 8L53 9L52 9L52 8L51 8L51 9L52 9L52 10L51 10L51 11L50 11L50 12L49 12L49 13L47 13L47 14L45 14L45 17L47 17L47 18L49 18L49 20L48 20L48 21L47 21L47 22L45 22L45 25L46 25L46 24L47 24L47 27L46 27L46 26L44 26L44 27L43 27L43 28L45 28L45 30L44 30L44 29L41 29L41 30L44 30L44 31L43 31L43 32L41 32L41 33L39 33L39 34L40 34L40 35L39 35L39 36L38 36L38 33L37 33L37 32L35 32L35 34L34 34L34 33L32 33L32 32L34 32L34 31L36 31L36 30L37 30L37 29L38 29L38 28L42 28L42 27L40 27L40 26L43 26L43 25L44 25L44 20L45 20L45 21L46 21L46 20L47 20L47 19L46 19L46 18L44 18L44 11L45 11L45 12L47 12L47 10L48 10L48 11L49 11L49 10L50 10L50 8L49 8L49 6L48 6L48 7L47 7L47 5L48 5L48 0L45 0L45 2L44 2L44 3L41 3L41 2L43 2L43 0L41 0L41 1L40 1L40 0L39 0L39 1L38 1L38 0L37 0L37 1L38 1L38 3L36 3L36 0L35 0L35 1L32 1L32 0L30 0L30 1L29 1L29 0L27 0L27 1L26 1L26 0L23 0L23 1L22 1L22 0L21 0L21 1L22 1L22 2L20 2L20 0L17 0L17 1L19 1L19 2L20 2L20 3L22 3L22 2L25 2L25 1L26 1L26 2L28 2L28 3L27 3L27 4L26 4L26 3L23 3L23 4L19 4L19 3L17 3L17 2L15 2L15 1L14 1L14 0ZM30 1L30 2L29 2L29 3L28 3L28 4L31 4L31 8L32 8L32 10L31 10L31 11L30 11L30 10L29 10L29 9L28 9L28 10L27 10L27 11L26 11L26 12L25 12L25 11L24 11L24 12L23 12L23 13L22 13L22 12L21 12L21 11L22 11L22 10L23 10L23 9L25 9L25 8L26 8L26 4L25 4L25 8L24 8L24 6L23 6L23 8L19 8L19 7L20 7L20 5L18 5L18 4L17 4L17 3L15 3L15 2L14 2L14 4L13 4L13 5L14 5L14 6L13 6L13 7L14 7L14 9L13 9L13 10L15 10L15 11L16 11L16 12L15 12L15 13L13 13L13 12L14 12L14 11L13 11L13 12L12 12L12 5L11 5L11 4L10 4L10 3L9 3L9 4L10 4L10 5L11 5L11 7L10 7L10 6L9 6L9 7L10 7L10 9L9 9L9 10L10 10L10 11L11 11L11 12L9 12L9 11L8 11L8 10L7 10L7 11L6 11L6 12L7 12L7 13L4 13L4 12L5 12L5 11L3 11L3 12L2 12L2 11L1 11L1 13L4 13L4 14L3 14L3 15L4 15L4 14L7 14L7 15L5 15L5 16L4 16L4 18L5 18L5 17L6 17L6 18L7 18L7 17L6 17L6 16L8 16L8 18L9 18L9 15L10 15L10 17L11 17L11 18L10 18L10 19L9 19L9 21L10 21L10 22L9 22L9 23L10 23L10 22L11 22L11 23L12 23L12 24L9 24L9 25L11 25L11 27L9 27L9 28L10 28L10 30L9 30L9 34L8 34L8 31L6 31L6 32L7 32L7 33L5 33L5 34L8 34L8 35L10 35L10 31L13 31L13 33L12 33L12 35L15 35L15 36L13 36L13 37L14 37L14 38L13 38L13 39L11 39L11 38L12 38L12 37L11 37L11 36L10 36L10 37L8 37L8 36L7 36L7 35L5 35L5 37L6 37L6 38L7 38L7 37L8 37L8 38L10 38L10 39L11 39L11 40L12 40L12 41L14 41L14 42L12 42L12 43L13 43L13 45L11 45L11 46L9 46L9 45L10 45L10 41L8 41L8 42L7 42L7 41L6 41L6 40L7 40L7 39L5 39L5 40L4 40L4 41L5 41L5 42L7 42L7 43L5 43L5 45L3 45L3 47L5 47L5 45L6 45L6 46L7 46L7 47L10 47L10 48L8 48L8 49L10 49L10 52L9 52L9 53L10 53L10 52L12 52L12 55L13 55L13 52L14 52L14 51L13 51L13 52L12 52L12 48L11 48L11 46L13 46L13 48L14 48L14 50L18 50L18 49L17 49L17 48L14 48L14 47L15 47L15 46L17 46L17 47L18 47L18 46L17 46L17 45L18 45L18 44L17 44L17 45L16 45L16 43L15 43L15 42L17 42L17 43L18 43L18 42L19 42L19 43L20 43L20 44L19 44L19 45L20 45L20 46L19 46L19 47L20 47L20 50L19 50L19 51L18 51L18 52L20 52L20 50L21 50L21 51L22 51L22 50L21 50L21 49L23 49L23 47L20 47L20 46L21 46L21 45L22 45L22 46L23 46L23 45L22 45L22 44L21 44L21 43L22 43L22 42L23 42L23 40L24 40L24 41L25 41L25 43L23 43L23 44L24 44L24 45L25 45L25 47L26 47L26 48L28 48L28 47L29 47L29 44L30 44L30 43L29 43L29 44L28 44L28 45L27 45L27 44L25 44L25 43L27 43L27 42L29 42L29 40L30 40L30 42L32 42L32 43L31 43L31 44L32 44L32 45L31 45L31 46L32 46L32 45L33 45L33 46L35 46L35 47L34 47L34 49L33 49L33 48L31 48L31 53L30 53L30 54L27 54L27 56L29 56L29 55L30 55L30 56L31 56L31 54L32 54L32 53L33 53L33 54L34 54L34 55L35 55L35 56L36 56L36 54L35 54L35 52L34 52L34 50L36 50L36 52L37 52L37 51L38 51L38 50L41 50L41 52L40 52L40 51L39 51L39 52L38 52L38 54L40 54L40 53L41 53L41 52L43 52L43 51L46 51L46 50L47 50L47 53L48 53L48 50L47 50L47 49L48 49L48 48L49 48L49 47L48 47L48 46L49 46L49 45L50 45L50 47L51 47L51 46L53 46L53 47L52 47L52 48L53 48L53 47L55 47L55 46L56 46L56 45L55 45L55 44L54 44L54 45L55 45L55 46L53 46L53 45L52 45L52 44L53 44L53 43L54 43L54 42L53 42L53 41L54 41L54 40L53 40L53 41L51 41L51 42L50 42L50 43L49 43L49 42L48 42L48 41L49 41L49 38L48 38L48 37L49 37L49 36L50 36L50 39L51 39L51 38L53 38L53 39L55 39L55 38L54 38L54 37L53 37L53 35L55 35L55 34L54 34L54 33L52 33L52 32L53 32L53 31L48 31L48 27L47 27L47 29L46 29L46 30L47 30L47 31L48 31L48 32L47 32L47 33L45 33L45 32L43 32L43 33L45 33L45 34L42 34L42 36L44 36L44 37L43 37L43 38L42 38L42 39L41 39L41 38L40 38L40 37L41 37L41 36L40 36L40 37L38 37L38 38L37 38L37 39L35 39L35 40L33 40L33 39L29 39L29 38L31 38L31 37L29 37L29 36L30 36L30 34L29 34L29 33L31 33L31 35L34 35L34 34L32 34L32 33L31 33L31 32L32 32L32 29L33 29L33 30L35 30L35 28L36 28L36 27L39 27L39 26L40 26L40 25L43 25L43 24L42 24L42 22L41 22L41 24L40 24L40 22L39 22L39 21L43 21L43 20L44 20L44 18L43 18L43 19L42 19L42 18L41 18L41 20L39 20L39 21L38 21L38 19L39 19L39 17L41 17L41 16L42 16L42 17L43 17L43 16L42 16L42 15L43 15L43 14L41 14L41 13L43 13L43 11L44 11L44 10L47 10L47 9L45 9L45 8L46 8L46 6L45 6L45 5L47 5L47 3L44 3L44 6L43 6L43 5L40 5L40 4L41 4L41 3L38 3L38 6L37 6L37 7L36 7L36 5L37 5L37 4L36 4L36 5L35 5L35 3L32 3L32 2L31 2L31 1ZM46 1L46 2L47 2L47 1ZM31 3L31 4L32 4L32 5L33 5L33 4L32 4L32 3ZM15 4L15 5L16 5L16 4ZM23 4L23 5L24 5L24 4ZM17 5L17 6L16 6L16 7L15 7L15 6L14 6L14 7L15 7L15 8L16 8L16 9L15 9L15 10L16 10L16 11L17 11L17 12L16 12L16 13L15 13L15 14L12 14L12 16L13 16L13 17L12 17L12 19L11 19L11 20L10 20L10 21L12 21L12 22L13 22L13 23L16 23L16 24L15 24L15 25L17 25L17 26L14 26L14 27L13 27L13 26L12 26L12 27L13 27L13 28L11 28L11 30L15 30L15 31L14 31L14 33L15 33L15 32L17 32L17 37L18 37L18 39L17 39L17 40L16 40L16 39L15 39L15 38L16 38L16 37L15 37L15 38L14 38L14 39L15 39L15 40L16 40L16 41L17 41L17 42L18 42L18 41L19 41L19 42L20 42L20 40L21 40L21 39L24 39L24 40L25 40L25 39L27 39L27 40L28 40L28 39L27 39L27 38L28 38L28 37L27 37L27 38L25 38L25 37L26 37L26 35L27 35L27 34L25 34L25 33L26 33L26 32L27 32L27 31L29 31L29 32L28 32L28 33L29 33L29 32L30 32L30 31L31 31L31 29L32 29L32 28L31 28L31 26L32 26L32 27L33 27L33 28L35 28L35 27L36 27L36 26L34 26L34 27L33 27L33 26L32 26L32 24L33 24L33 25L37 25L37 26L38 26L38 25L40 25L40 24L37 24L37 22L38 22L38 21L37 21L37 20L36 20L36 19L31 19L31 20L29 20L29 22L30 22L30 24L29 24L29 23L27 23L27 22L28 22L28 21L26 21L26 18L28 18L28 19L27 19L27 20L28 20L28 19L30 19L30 18L31 18L31 17L32 17L32 18L33 18L33 17L32 17L32 16L35 16L35 17L37 17L37 18L38 18L38 17L39 17L39 16L41 16L41 14L40 14L40 13L39 13L39 12L41 12L41 11L43 11L43 10L44 10L44 8L45 8L45 6L44 6L44 7L43 7L43 6L42 6L42 7L43 7L43 9L41 9L41 11L37 11L37 10L38 10L38 9L39 9L39 6L40 6L40 7L41 7L41 6L40 6L40 5L39 5L39 6L38 6L38 9L37 9L37 8L35 8L35 5L34 5L34 7L33 7L33 6L32 6L32 7L33 7L33 9L34 9L34 8L35 8L35 9L37 9L37 10L36 10L36 11L35 11L35 14L33 14L33 13L34 13L34 12L33 12L33 10L32 10L32 12L31 12L31 13L30 13L30 14L29 14L29 13L28 13L28 12L29 12L29 11L27 11L27 12L26 12L26 13L23 13L23 14L22 14L22 13L21 13L21 14L20 14L20 12L19 12L19 11L20 11L20 9L19 9L19 8L16 8L16 7L17 7L17 6L18 6L18 7L19 7L19 6L18 6L18 5ZM27 5L27 8L30 8L30 5ZM21 6L21 7L22 7L22 6ZM28 6L28 7L29 7L29 6ZM55 8L55 9L56 9L56 8ZM1 9L1 10L2 10L2 9ZM3 9L3 10L4 10L4 9ZM10 9L10 10L11 10L11 9ZM16 9L16 10L17 10L17 11L18 11L18 9ZM21 9L21 10L22 10L22 9ZM55 11L55 12L54 12L54 13L53 13L53 12L52 12L52 13L53 13L53 15L54 15L54 13L55 13L55 14L56 14L56 11ZM8 12L8 13L7 13L7 14L8 14L8 15L9 15L9 14L10 14L10 15L11 15L11 13L12 13L12 12L11 12L11 13L9 13L9 12ZM17 12L17 13L16 13L16 16L17 16L17 13L18 13L18 12ZM32 12L32 13L31 13L31 14L30 14L30 15L31 15L31 16L32 16L32 15L31 15L31 14L32 14L32 13L33 13L33 12ZM50 12L50 14L49 14L49 15L48 15L48 16L47 16L47 17L48 17L48 16L49 16L49 15L50 15L50 14L51 14L51 12ZM26 13L26 17L28 17L28 16L29 16L29 14L28 14L28 13ZM36 13L36 14L37 14L37 15L35 15L35 16L37 16L37 17L38 17L38 16L39 16L39 15L40 15L40 14L39 14L39 13L38 13L38 14L37 14L37 13ZM19 14L19 15L18 15L18 16L19 16L19 15L20 15L20 18L19 18L19 19L20 19L20 21L18 21L18 20L17 20L17 19L15 19L15 18L17 18L17 17L15 17L15 16L14 16L14 18L13 18L13 19L14 19L14 20L13 20L13 21L14 21L14 22L16 22L16 21L18 21L18 22L20 22L20 23L18 23L18 24L21 24L21 25L19 25L19 26L18 26L18 27L17 27L17 28L18 28L18 29L16 29L16 28L15 28L15 27L14 27L14 28L15 28L15 29L16 29L16 30L17 30L17 32L20 32L20 34L19 34L19 35L20 35L20 36L19 36L19 37L22 37L22 38L24 38L24 37L23 37L23 36L24 36L24 34L23 34L23 33L25 33L25 32L26 32L26 31L25 31L25 30L23 30L23 28L25 28L25 29L26 29L26 28L25 28L25 27L26 27L26 26L27 26L27 25L28 25L28 26L30 26L30 25L29 25L29 24L25 24L25 23L26 23L26 22L25 22L25 21L24 21L24 20L23 20L23 19L24 19L24 18L22 18L22 17L25 17L25 16L24 16L24 15L25 15L25 14L23 14L23 15L20 15L20 14ZM38 14L38 15L39 15L39 14ZM27 15L27 16L28 16L28 15ZM0 16L0 17L1 17L1 16ZM21 16L21 17L22 17L22 16ZM50 16L50 19L52 19L52 20L51 20L51 21L49 21L49 22L47 22L47 24L49 24L49 25L50 25L50 26L51 26L51 25L53 25L53 24L54 24L54 25L55 25L55 24L54 24L54 23L55 23L55 22L56 22L56 20L53 20L53 19L52 19L52 18L55 18L55 17L53 17L53 16ZM6 19L6 20L7 20L7 21L6 21L6 22L7 22L7 21L8 21L8 19ZM21 19L21 21L22 21L22 22L24 22L24 21L22 21L22 19ZM45 19L45 20L46 20L46 19ZM15 20L15 21L16 21L16 20ZM32 20L32 21L31 21L31 24L32 24L32 23L35 23L35 20L34 20L34 21L33 21L33 20ZM0 21L0 22L2 22L2 21ZM3 21L3 22L4 22L4 21ZM51 21L51 22L50 22L50 23L49 23L49 24L50 24L50 25L51 25L51 24L53 24L53 22L54 22L54 21ZM0 23L0 24L1 24L1 23ZM2 23L2 24L3 24L3 23ZM21 23L21 24L24 24L24 25L21 25L21 27L22 27L22 26L24 26L24 27L25 27L25 26L26 26L26 25L25 25L25 24L24 24L24 23ZM50 23L50 24L51 24L51 23ZM12 24L12 25L13 25L13 24ZM1 25L1 26L0 26L0 27L1 27L1 26L2 26L2 25ZM5 25L5 26L7 26L7 25ZM19 26L19 29L18 29L18 30L20 30L20 26ZM53 26L53 27L54 27L54 26ZM5 27L5 30L8 30L8 27ZM27 27L27 30L30 30L30 27ZM45 27L45 28L46 28L46 27ZM49 27L49 30L52 30L52 27ZM6 28L6 29L7 29L7 28ZM21 28L21 29L22 29L22 28ZM28 28L28 29L29 29L29 28ZM50 28L50 29L51 29L51 28ZM54 28L54 29L55 29L55 28ZM39 29L39 30L38 30L38 32L39 32L39 30L40 30L40 29ZM20 31L20 32L25 32L25 31ZM48 32L48 33L49 33L49 32ZM50 32L50 34L48 34L48 35L44 35L44 36L46 36L46 37L47 37L47 36L48 36L48 35L50 35L50 36L51 36L51 37L52 37L52 35L53 35L53 34L52 34L52 33L51 33L51 32ZM21 33L21 34L20 34L20 35L21 35L21 36L23 36L23 35L21 35L21 34L22 34L22 33ZM35 34L35 36L32 36L32 37L33 37L33 38L35 38L35 36L37 36L37 34ZM50 34L50 35L52 35L52 34ZM6 36L6 37L7 37L7 36ZM10 37L10 38L11 38L11 37ZM44 37L44 38L45 38L45 37ZM19 38L19 39L20 39L20 38ZM47 38L47 39L46 39L46 41L47 41L47 39L48 39L48 38ZM8 39L8 40L9 40L9 39ZM38 39L38 40L35 40L35 42L37 42L37 43L36 43L36 44L35 44L35 43L34 43L34 42L33 42L33 41L32 41L32 40L31 40L31 41L32 41L32 42L33 42L33 43L32 43L32 44L33 44L33 43L34 43L34 45L37 45L37 47L36 47L36 48L35 48L35 49L36 49L36 50L38 50L38 49L39 49L39 48L41 48L41 50L42 50L42 51L43 51L43 49L44 49L44 50L46 50L46 49L47 49L47 48L48 48L48 47L47 47L47 46L48 46L48 45L49 45L49 44L48 44L48 45L47 45L47 43L48 43L48 42L47 42L47 43L46 43L46 42L45 42L45 41L44 41L44 40L45 40L45 39L44 39L44 40L43 40L43 41L42 41L42 40L41 40L41 39ZM38 40L38 42L39 42L39 41L41 41L41 40ZM21 41L21 42L22 42L22 41ZM26 41L26 42L27 42L27 41ZM43 41L43 44L44 44L44 45L45 45L45 46L44 46L44 47L43 47L43 46L41 46L41 44L42 44L42 43L40 43L40 44L39 44L39 45L38 45L38 46L39 46L39 47L38 47L38 48L37 48L37 49L38 49L38 48L39 48L39 47L40 47L40 46L41 46L41 48L42 48L42 49L43 49L43 48L44 48L44 49L46 49L46 48L47 48L47 47L46 47L46 48L44 48L44 47L45 47L45 46L47 46L47 45L45 45L45 44L46 44L46 43L45 43L45 42L44 42L44 41ZM1 42L1 43L2 43L2 42ZM3 42L3 43L4 43L4 42ZM51 42L51 43L50 43L50 45L51 45L51 43L53 43L53 42ZM7 43L7 44L6 44L6 45L7 45L7 46L8 46L8 45L7 45L7 44L9 44L9 43ZM20 44L20 45L21 45L21 44ZM13 45L13 46L14 46L14 45ZM26 45L26 47L27 47L27 45ZM42 47L42 48L43 48L43 47ZM10 48L10 49L11 49L11 48ZM24 48L24 49L25 49L25 50L26 50L26 49L25 49L25 48ZM27 49L27 52L30 52L30 49ZM49 49L49 52L52 52L52 49ZM28 50L28 51L29 51L29 50ZM32 50L32 52L33 52L33 50ZM50 50L50 51L51 51L51 50ZM54 50L54 51L55 51L55 50ZM15 51L15 52L16 52L16 53L14 53L14 55L15 55L15 56L16 56L16 55L15 55L15 54L16 54L16 53L17 53L17 52L16 52L16 51ZM44 52L44 53L43 53L43 54L44 54L44 53L45 53L45 52ZM53 52L53 53L54 53L54 52ZM24 53L24 54L23 54L23 55L24 55L24 56L26 56L26 54L25 54L25 53ZM41 54L41 56L43 56L43 55L42 55L42 54ZM48 55L48 56L49 56L49 55ZM50 55L50 56L51 56L51 55ZM45 56L45 57L46 57L46 56ZM0 0L0 7L7 7L7 0ZM1 1L1 6L6 6L6 1ZM2 2L2 5L5 5L5 2ZM50 0L50 7L57 7L57 0ZM51 1L51 6L56 6L56 1ZM52 2L52 5L55 5L55 2ZM0 50L0 57L7 57L7 50ZM1 51L1 56L6 56L6 51ZM2 52L2 55L5 55L5 52Z" fill="#000000"/></g></g></svg>
