<?xml version="1.0" encoding="UTF-8"?>
<svg xmlns="http://www.w3.org/2000/svg" version="1.1" width="300" height="300" viewBox="0 0 300 300"><rect x="0" y="0" width="300" height="300" fill="#fefefe"/><g transform="scale(4.615)"><g transform="translate(4,4)"><path fill-rule="evenodd" d="M9 0L9 1L8 1L8 2L9 2L9 3L8 3L8 4L10 4L10 3L11 3L11 4L12 4L12 8L13 8L13 9L11 9L11 6L10 6L10 5L8 5L8 7L9 7L9 8L6 8L6 9L5 9L5 8L0 8L0 15L1 15L1 14L2 14L2 17L1 17L1 16L0 16L0 19L1 19L1 20L2 20L2 19L3 19L3 22L2 22L2 25L3 25L3 26L4 26L4 31L3 31L3 32L2 32L2 31L1 31L1 30L0 30L0 32L2 32L2 33L3 33L3 35L4 35L4 37L3 37L3 39L2 39L2 41L3 41L3 39L4 39L4 40L5 40L5 41L4 41L4 42L3 42L3 43L2 43L2 44L1 44L1 41L0 41L0 48L5 48L5 47L8 47L8 46L9 46L9 44L8 44L8 43L9 43L9 42L8 42L8 43L7 43L7 42L6 42L6 43L7 43L7 44L4 44L4 43L5 43L5 41L7 41L7 40L5 40L5 38L6 38L6 39L8 39L8 38L9 38L9 39L10 39L10 38L11 38L11 39L12 39L12 38L13 38L13 37L14 37L14 40L13 40L13 42L11 42L11 41L10 41L10 40L9 40L9 41L10 41L10 43L13 43L13 44L12 44L12 45L11 45L11 44L10 44L10 47L11 47L11 50L12 50L12 52L10 52L10 54L9 54L9 52L8 52L8 57L9 57L9 56L10 56L10 57L11 57L11 56L12 56L12 57L13 57L13 56L14 56L14 54L15 54L15 55L16 55L16 56L15 56L15 57L16 57L16 56L17 56L17 57L20 57L20 56L19 56L19 55L20 55L20 54L19 54L19 53L20 53L20 52L23 52L23 51L21 51L21 50L25 50L25 49L26 49L26 52L24 52L24 53L21 53L21 54L22 54L22 56L23 56L23 57L26 57L26 56L24 56L24 55L23 55L23 54L24 54L24 53L27 53L27 54L30 54L30 53L31 53L31 49L32 49L32 48L33 48L33 47L35 47L35 46L36 46L36 48L34 48L34 49L36 49L36 50L32 50L32 52L33 52L33 53L32 53L32 54L31 54L31 56L30 56L30 55L29 55L29 56L27 56L27 57L29 57L29 56L30 56L30 57L31 57L31 56L35 56L35 57L39 57L39 56L40 56L40 55L41 55L41 54L42 54L42 55L43 55L43 57L44 57L44 54L45 54L45 57L47 57L47 56L50 56L50 57L52 57L52 55L51 55L51 53L52 53L52 54L53 54L53 55L54 55L54 56L53 56L53 57L54 57L54 56L55 56L55 57L56 57L56 56L55 56L55 52L57 52L57 51L56 51L56 49L57 49L57 48L56 48L56 46L57 46L57 45L56 45L56 46L55 46L55 47L54 47L54 46L53 46L53 47L52 47L52 46L51 46L51 47L50 47L50 45L49 45L49 44L48 44L48 43L50 43L50 44L51 44L51 45L52 45L52 44L51 44L51 43L53 43L53 45L54 45L54 44L55 44L55 43L56 43L56 44L57 44L57 43L56 43L56 41L55 41L55 39L57 39L57 37L56 37L56 36L57 36L57 35L53 35L53 34L52 34L52 33L53 33L53 32L56 32L56 33L54 33L54 34L57 34L57 32L56 32L56 30L57 30L57 29L55 29L55 31L53 31L53 30L54 30L54 28L56 28L56 27L55 27L55 26L57 26L57 25L56 25L56 22L57 22L57 20L56 20L56 22L55 22L55 23L53 23L53 21L51 21L51 20L52 20L52 19L53 19L53 20L55 20L55 18L57 18L57 17L56 17L56 16L57 16L57 15L56 15L56 14L57 14L57 13L56 13L56 14L55 14L55 13L54 13L54 12L55 12L55 11L56 11L56 8L55 8L55 10L54 10L54 11L52 11L52 10L49 10L49 9L50 9L50 8L49 8L49 6L48 6L48 7L47 7L47 5L48 5L48 0L45 0L45 2L44 2L44 3L43 3L43 4L42 4L42 2L43 2L43 0L41 0L41 1L40 1L40 0L39 0L39 1L38 1L38 0L37 0L37 1L38 1L38 2L37 2L37 3L36 3L36 0L35 0L35 1L32 1L32 3L31 3L31 4L28 4L28 3L29 3L29 1L31 1L31 0L29 0L29 1L28 1L28 3L27 3L27 4L26 4L26 3L23 3L23 2L27 2L27 1L25 1L25 0L23 0L23 1L22 1L22 0L21 0L21 1L20 1L20 0L19 0L19 1L15 1L15 0L14 0L14 2L13 2L13 3L11 3L11 2L12 2L12 1L13 1L13 0ZM9 1L9 2L10 2L10 1ZM19 1L19 2L20 2L20 3L19 3L19 4L17 4L17 2L14 2L14 4L13 4L13 5L14 5L14 6L13 6L13 7L14 7L14 6L15 6L15 7L16 7L16 8L14 8L14 9L13 9L13 10L15 10L15 11L18 11L18 10L19 10L19 11L20 11L20 12L19 12L19 13L20 13L20 14L21 14L21 13L22 13L22 14L23 14L23 13L22 13L22 12L21 12L21 11L22 11L22 10L23 10L23 11L24 11L24 13L25 13L25 15L26 15L26 16L23 16L23 15L21 15L21 16L20 16L20 18L18 18L18 19L19 19L19 20L20 20L20 21L18 21L18 20L17 20L17 17L16 17L16 16L19 16L19 14L18 14L18 15L17 15L17 13L18 13L18 12L17 12L17 13L16 13L16 12L15 12L15 13L12 13L12 12L14 12L14 11L12 11L12 10L11 10L11 9L10 9L10 8L9 8L9 9L8 9L8 10L7 10L7 9L6 9L6 10L7 10L7 11L6 11L6 12L7 12L7 11L8 11L8 12L9 12L9 13L10 13L10 14L8 14L8 13L6 13L6 14L8 14L8 15L10 15L10 16L11 16L11 15L10 15L10 14L11 14L11 13L12 13L12 17L10 17L10 18L11 18L11 19L9 19L9 18L7 18L7 17L8 17L8 16L7 16L7 15L5 15L5 12L4 12L4 14L3 14L3 15L4 15L4 16L3 16L3 17L4 17L4 20L5 20L5 17L4 17L4 16L7 16L7 17L6 17L6 18L7 18L7 19L6 19L6 20L7 20L7 21L5 21L5 22L4 22L4 23L3 23L3 25L4 25L4 26L8 26L8 25L10 25L10 26L11 26L11 25L12 25L12 27L10 27L10 28L9 28L9 29L11 29L11 30L10 30L10 31L8 31L8 32L7 32L7 31L6 31L6 32L7 32L7 33L6 33L6 34L5 34L5 31L4 31L4 35L5 35L5 36L7 36L7 37L6 37L6 38L7 38L7 37L9 37L9 38L10 38L10 37L12 37L12 35L13 35L13 36L14 36L14 37L16 37L16 38L15 38L15 39L16 39L16 40L15 40L15 41L14 41L14 42L13 42L13 43L14 43L14 42L15 42L15 44L14 44L14 45L12 45L12 46L11 46L11 47L12 47L12 48L14 48L14 47L16 47L16 48L18 48L18 47L19 47L19 49L20 49L20 50L21 50L21 49L23 49L23 47L26 47L26 48L27 48L27 47L28 47L28 48L30 48L30 47L28 47L28 46L29 46L29 45L30 45L30 46L31 46L31 48L32 48L32 47L33 47L33 46L35 46L35 45L34 45L34 43L37 43L37 42L35 42L35 40L38 40L38 42L39 42L39 45L38 45L38 46L39 46L39 47L38 47L38 48L37 48L37 49L38 49L38 50L36 50L36 52L38 52L38 53L37 53L37 54L40 54L40 53L42 53L42 52L43 52L43 51L44 51L44 50L46 50L46 51L45 51L45 52L44 52L44 53L43 53L43 54L44 54L44 53L45 53L45 54L46 54L46 56L47 56L47 54L48 54L48 50L47 50L47 49L48 49L48 48L49 48L49 47L48 47L48 46L47 46L47 45L48 45L48 44L47 44L47 45L45 45L45 44L46 44L46 42L48 42L48 41L49 41L49 39L47 39L47 37L48 37L48 38L49 38L49 37L50 37L50 35L52 35L52 36L51 36L51 38L50 38L50 39L51 39L51 38L53 38L53 39L52 39L52 40L53 40L53 41L51 41L51 42L50 42L50 43L51 43L51 42L53 42L53 43L54 43L54 42L53 42L53 41L54 41L54 40L53 40L53 39L55 39L55 37L53 37L53 35L52 35L52 34L50 34L50 32L51 32L51 33L52 33L52 32L51 32L51 31L48 31L48 28L47 28L47 29L46 29L46 30L47 30L47 31L48 31L48 32L46 32L46 33L45 33L45 32L43 32L43 31L44 31L44 30L41 30L41 31L39 31L39 32L38 32L38 30L39 30L39 29L45 29L45 28L46 28L46 27L47 27L47 23L45 23L45 22L47 22L47 21L45 21L45 20L44 20L44 18L45 18L45 19L46 19L46 18L47 18L47 15L46 15L46 17L45 17L45 14L47 14L47 13L49 13L49 12L50 12L50 14L49 14L49 15L48 15L48 16L49 16L49 17L50 17L50 18L48 18L48 19L50 19L50 18L51 18L51 17L53 17L53 18L55 18L55 17L54 17L54 16L53 16L53 15L52 15L52 16L51 16L51 15L50 15L50 14L51 14L51 12L50 12L50 11L49 11L49 10L48 10L48 9L49 9L49 8L48 8L48 9L47 9L47 7L46 7L46 6L45 6L45 4L46 4L46 5L47 5L47 3L44 3L44 6L43 6L43 7L44 7L44 6L45 6L45 8L42 8L42 6L41 6L41 5L40 5L40 4L41 4L41 3L39 3L39 2L38 2L38 3L39 3L39 4L38 4L38 6L37 6L37 7L36 7L36 5L37 5L37 4L36 4L36 5L35 5L35 4L33 4L33 3L32 3L32 4L31 4L31 8L32 8L32 10L31 10L31 11L30 11L30 10L28 10L28 9L27 9L27 11L26 11L26 12L25 12L25 10L23 10L23 9L25 9L25 8L26 8L26 4L25 4L25 8L24 8L24 6L23 6L23 8L20 8L20 10L19 10L19 9L16 9L16 8L19 8L19 7L20 7L20 5L19 5L19 4L23 4L23 5L24 5L24 4L23 4L23 3L21 3L21 2L20 2L20 1ZM46 1L46 2L47 2L47 1ZM34 2L34 3L35 3L35 2ZM15 4L15 5L16 5L16 4ZM32 4L32 5L33 5L33 6L32 6L32 7L33 7L33 9L34 9L34 8L35 8L35 9L37 9L37 10L36 10L36 11L35 11L35 13L36 13L36 14L32 14L32 12L33 12L33 13L34 13L34 12L33 12L33 10L32 10L32 12L31 12L31 13L30 13L30 14L29 14L29 13L28 13L28 12L29 12L29 11L27 11L27 12L26 12L26 13L28 13L28 14L29 14L29 16L28 16L28 15L27 15L27 14L26 14L26 15L27 15L27 16L28 16L28 17L27 17L27 18L28 18L28 19L27 19L27 20L28 20L28 19L30 19L30 18L31 18L31 20L30 20L30 21L29 21L29 22L30 22L30 23L27 23L27 22L28 22L28 21L25 21L25 20L26 20L26 17L22 17L22 16L21 16L21 17L22 17L22 18L24 18L24 19L23 19L23 20L24 20L24 21L21 21L21 23L23 23L23 24L24 24L24 25L22 25L22 24L19 24L19 23L20 23L20 22L19 22L19 23L18 23L18 21L16 21L16 19L15 19L15 21L16 21L16 22L14 22L14 21L13 21L13 24L12 24L12 25L13 25L13 27L12 27L12 29L13 29L13 28L15 28L15 27L16 27L16 26L15 26L15 25L14 25L14 24L15 24L15 23L16 23L16 24L17 24L17 25L18 25L18 26L17 26L17 27L18 27L18 26L19 26L19 27L20 27L20 26L19 26L19 25L22 25L22 26L21 26L21 27L22 27L22 26L24 26L24 27L25 27L25 28L23 28L23 31L21 31L21 32L23 32L23 31L24 31L24 32L26 32L26 34L25 34L25 33L23 33L23 34L24 34L24 36L23 36L23 37L24 37L24 38L23 38L23 39L24 39L24 40L23 40L23 42L22 42L22 41L21 41L21 42L22 42L22 43L21 43L21 44L20 44L20 43L19 43L19 42L20 42L20 41L19 41L19 40L21 40L21 39L22 39L22 38L21 38L21 37L19 37L19 36L21 36L21 35L22 35L22 33L21 33L21 35L19 35L19 34L20 34L20 33L19 33L19 32L20 32L20 31L19 31L19 30L20 30L20 29L22 29L22 28L20 28L20 29L18 29L18 28L16 28L16 29L15 29L15 30L13 30L13 31L14 31L14 33L16 33L16 32L15 32L15 31L16 31L16 29L18 29L18 30L17 30L17 31L19 31L19 32L17 32L17 33L19 33L19 34L18 34L18 35L17 35L17 34L15 34L15 36L17 36L17 37L18 37L18 38L20 38L20 39L17 39L17 42L16 42L16 44L18 44L18 45L17 45L17 46L19 46L19 47L20 47L20 49L21 49L21 47L23 47L23 46L25 46L25 45L23 45L23 44L27 44L27 45L26 45L26 47L27 47L27 45L28 45L28 44L29 44L29 43L31 43L31 46L32 46L32 44L33 44L33 43L34 43L34 42L33 42L33 41L32 41L32 40L29 40L29 42L27 42L27 41L28 41L28 39L27 39L27 38L28 38L28 37L27 37L27 36L26 36L26 35L27 35L27 31L31 31L31 29L32 29L32 28L31 28L31 26L32 26L32 27L33 27L33 28L35 28L35 29L38 29L38 28L39 28L39 27L36 27L36 26L34 26L34 27L33 27L33 26L32 26L32 24L33 24L33 25L37 25L37 26L38 26L38 25L39 25L39 26L41 26L41 28L42 28L42 26L43 26L43 25L44 25L44 27L43 27L43 28L45 28L45 27L46 27L46 26L45 26L45 25L44 25L44 24L41 24L41 22L43 22L43 23L44 23L44 20L43 20L43 18L44 18L44 15L42 15L42 16L41 16L41 15L40 15L40 14L38 14L38 13L39 13L39 11L40 11L40 12L41 12L41 11L45 11L45 12L49 12L49 11L48 11L48 10L46 10L46 9L44 9L44 10L43 10L43 9L41 9L41 10L39 10L39 11L37 11L37 10L38 10L38 9L39 9L39 8L40 8L40 7L41 7L41 6L40 6L40 5L39 5L39 6L38 6L38 7L37 7L37 8L35 8L35 5L33 5L33 4ZM27 5L27 8L30 8L30 5ZM9 6L9 7L10 7L10 6ZM16 6L16 7L17 7L17 6ZM18 6L18 7L19 7L19 6ZM21 6L21 7L22 7L22 6ZM28 6L28 7L29 7L29 6ZM33 6L33 7L34 7L34 6ZM39 6L39 7L40 7L40 6ZM37 8L37 9L38 9L38 8ZM51 8L51 9L52 9L52 8ZM53 8L53 9L54 9L54 8ZM1 9L1 10L2 10L2 13L3 13L3 11L5 11L5 10L2 10L2 9ZM9 9L9 10L10 10L10 12L11 12L11 10L10 10L10 9ZM21 9L21 10L22 10L22 9ZM45 10L45 11L46 11L46 10ZM20 12L20 13L21 13L21 12ZM43 12L43 13L41 13L41 14L45 14L45 13L44 13L44 12ZM52 12L52 13L53 13L53 14L54 14L54 15L55 15L55 14L54 14L54 13L53 13L53 12ZM15 13L15 14L13 14L13 16L14 16L14 15L15 15L15 16L16 16L16 13ZM30 14L30 15L31 15L31 16L32 16L32 17L31 17L31 18L32 18L32 19L36 19L36 20L38 20L38 22L39 22L39 23L37 23L37 24L39 24L39 25L41 25L41 26L42 26L42 25L41 25L41 24L39 24L39 23L40 23L40 22L39 22L39 21L42 21L42 20L38 20L38 19L39 19L39 17L41 17L41 16L39 16L39 15L38 15L38 14L37 14L37 15L35 15L35 16L33 16L33 15L31 15L31 14ZM49 15L49 16L50 16L50 15ZM35 16L35 17L37 17L37 18L38 18L38 17L39 17L39 16L38 16L38 17L37 17L37 16ZM42 16L42 17L43 17L43 16ZM12 17L12 18L15 18L15 17ZM1 18L1 19L2 19L2 18ZM20 18L20 19L21 19L21 20L22 20L22 19L21 19L21 18ZM41 18L41 19L42 19L42 18ZM11 19L11 21L10 21L10 20L9 20L9 21L7 21L7 22L6 22L6 23L8 23L8 24L9 24L9 21L10 21L10 23L11 23L11 22L12 22L12 20L14 20L14 19ZM32 20L32 21L31 21L31 23L30 23L30 24L25 24L25 23L26 23L26 22L25 22L25 21L24 21L24 22L23 22L23 23L24 23L24 24L25 24L25 25L26 25L26 26L25 26L25 27L26 27L26 26L29 26L29 25L31 25L31 24L32 24L32 23L35 23L35 21L33 21L33 20ZM49 21L49 22L48 22L48 24L51 24L51 25L50 25L50 26L51 26L51 25L52 25L52 26L53 26L53 27L54 27L54 26L53 26L53 25L55 25L55 24L51 24L51 23L50 23L50 22L51 22L51 21ZM4 23L4 24L5 24L5 25L7 25L7 24L5 24L5 23ZM0 24L0 29L1 29L1 27L2 27L2 29L3 29L3 27L2 27L2 26L1 26L1 24ZM14 26L14 27L15 27L15 26ZM5 27L5 30L8 30L8 27ZM27 27L27 30L30 30L30 27ZM49 27L49 30L52 30L52 27ZM6 28L6 29L7 29L7 28ZM25 28L25 29L26 29L26 28ZM28 28L28 29L29 29L29 28ZM50 28L50 29L51 29L51 28ZM11 30L11 33L10 33L10 32L9 32L9 33L8 33L8 34L6 34L6 35L7 35L7 36L9 36L9 37L10 37L10 36L9 36L9 35L8 35L8 34L9 34L9 33L10 33L10 34L11 34L11 35L12 35L12 34L13 34L13 32L12 32L12 30ZM32 30L32 32L31 32L31 33L29 33L29 32L28 32L28 33L29 33L29 34L30 34L30 36L29 36L29 37L31 37L31 38L29 38L29 39L33 39L33 40L35 40L35 39L37 39L37 38L38 38L38 37L40 37L40 38L43 38L43 37L44 37L44 38L45 38L45 39L44 39L44 40L43 40L43 39L41 39L41 43L40 43L40 44L41 44L41 46L40 46L40 47L39 47L39 48L38 48L38 49L39 49L39 48L41 48L41 50L38 50L38 52L39 52L39 51L40 51L40 52L42 52L42 51L43 51L43 49L44 49L44 48L45 48L45 49L46 49L46 48L45 48L45 47L47 47L47 48L48 48L48 47L47 47L47 46L45 46L45 47L44 47L44 46L43 46L43 45L44 45L44 44L45 44L45 43L44 43L44 42L46 42L46 41L44 41L44 40L45 40L45 39L46 39L46 40L47 40L47 39L46 39L46 38L45 38L45 37L44 37L44 36L46 36L46 37L47 37L47 34L45 34L45 33L43 33L43 32L41 32L41 33L39 33L39 34L40 34L40 35L38 35L38 33L37 33L37 32L35 32L35 30ZM32 32L32 33L31 33L31 35L32 35L32 33L33 33L33 35L35 35L35 36L37 36L37 37L38 37L38 35L37 35L37 34L35 34L35 32ZM48 32L48 33L49 33L49 32ZM0 33L0 35L1 35L1 33ZM11 33L11 34L12 34L12 33ZM42 34L42 35L43 35L43 36L44 36L44 35L45 35L45 34ZM49 34L49 35L50 35L50 34ZM0 36L0 37L1 37L1 36ZM25 36L25 40L24 40L24 41L25 41L25 43L27 43L27 44L28 44L28 43L27 43L27 42L26 42L26 41L27 41L27 40L26 40L26 36ZM32 36L32 37L33 37L33 38L35 38L35 37L33 37L33 36ZM40 36L40 37L42 37L42 36ZM0 39L0 40L1 40L1 39ZM38 39L38 40L39 40L39 39ZM18 41L18 42L17 42L17 43L18 43L18 42L19 42L19 41ZM30 41L30 42L32 42L32 43L33 43L33 42L32 42L32 41ZM39 41L39 42L40 42L40 41ZM43 41L43 42L44 42L44 41ZM41 43L41 44L42 44L42 43ZM43 43L43 44L44 44L44 43ZM3 44L3 45L4 45L4 46L3 46L3 47L5 47L5 45L4 45L4 44ZM7 44L7 45L6 45L6 46L8 46L8 44ZM21 44L21 45L20 45L20 47L21 47L21 45L22 45L22 46L23 46L23 45L22 45L22 44ZM14 45L14 46L15 46L15 45ZM1 46L1 47L2 47L2 46ZM12 46L12 47L13 47L13 46ZM41 46L41 48L42 48L42 49L43 49L43 48L44 48L44 47L43 47L43 46ZM42 47L42 48L43 48L43 47ZM6 48L6 49L8 49L8 51L9 51L9 50L10 50L10 48ZM24 48L24 49L25 49L25 48ZM53 48L53 49L56 49L56 48ZM12 49L12 50L14 50L14 49ZM15 49L15 50L16 50L16 51L15 51L15 52L14 52L14 51L13 51L13 52L12 52L12 54L10 54L10 56L11 56L11 55L12 55L12 54L14 54L14 53L15 53L15 54L16 54L16 53L17 53L17 51L18 51L18 52L20 52L20 51L18 51L18 50L17 50L17 49ZM27 49L27 52L30 52L30 49ZM49 49L49 52L52 52L52 49ZM28 50L28 51L29 51L29 50ZM41 50L41 51L42 51L42 50ZM50 50L50 51L51 51L51 50ZM54 50L54 51L55 51L55 50ZM46 51L46 52L47 52L47 51ZM13 52L13 53L14 53L14 52ZM15 52L15 53L16 53L16 52ZM53 52L53 53L54 53L54 52ZM33 53L33 54L34 54L34 55L35 55L35 56L36 56L36 54L35 54L35 53ZM17 54L17 55L19 55L19 54ZM25 54L25 55L26 55L26 54ZM37 55L37 56L39 56L39 55ZM50 55L50 56L51 56L51 55ZM0 0L0 7L7 7L7 0ZM1 1L1 6L6 6L6 1ZM2 2L2 5L5 5L5 2ZM50 0L50 7L57 7L57 0ZM51 1L51 6L56 6L56 1ZM52 2L52 5L55 5L55 2ZM0 50L0 57L7 57L7 50ZM1 51L1 56L6 56L6 51ZM2 52L2 55L5 55L5 52Z" fill="#000000"/></g></g></svg>
