<?xml version="1.0" encoding="UTF-8"?>
<svg xmlns="http://www.w3.org/2000/svg" version="1.1" width="300" height="300" viewBox="0 0 300 300"><rect x="0" y="0" width="300" height="300" fill="#fefefe"/><g transform="scale(4.615)"><g transform="translate(4,4)"><path fill-rule="evenodd" d="M9 0L9 1L8 1L8 2L10 2L10 5L8 5L8 7L9 7L9 6L10 6L10 8L6 8L6 9L8 9L8 10L6 10L6 11L4 11L4 12L3 12L3 15L1 15L1 13L2 13L2 12L1 12L1 11L0 11L0 12L1 12L1 13L0 13L0 15L1 15L1 17L0 17L0 19L1 19L1 18L3 18L3 20L1 20L1 21L2 21L2 22L3 22L3 23L1 23L1 24L3 24L3 26L2 26L2 27L1 27L1 28L2 28L2 30L0 30L0 31L1 31L1 32L0 32L0 34L2 34L2 35L3 35L3 34L4 34L4 35L5 35L5 36L6 36L6 37L7 37L7 38L3 38L3 40L2 40L2 39L1 39L1 40L0 40L0 44L1 44L1 46L0 46L0 48L5 48L5 47L7 47L7 46L8 46L8 51L9 51L9 48L10 48L10 47L9 47L9 46L11 46L11 48L12 48L12 49L11 49L11 50L12 50L12 49L13 49L13 48L14 48L14 47L15 47L15 49L14 49L14 50L13 50L13 51L12 51L12 52L11 52L11 51L10 51L10 53L9 53L9 52L8 52L8 57L10 57L10 56L9 56L9 55L13 55L13 56L11 56L11 57L16 57L16 56L17 56L17 57L22 57L22 56L23 56L23 57L26 57L26 56L27 56L27 57L29 57L29 56L30 56L30 57L31 57L31 56L35 56L35 57L39 57L39 56L40 56L40 55L41 55L41 54L42 54L42 55L44 55L44 56L43 56L43 57L44 57L44 56L45 56L45 57L46 57L46 56L45 56L45 55L48 55L48 56L50 56L50 57L52 57L52 55L51 55L51 53L52 53L52 54L53 54L53 57L54 57L54 56L55 56L55 57L56 57L56 56L55 56L55 55L54 55L54 54L55 54L55 52L57 52L57 51L56 51L56 50L55 50L55 48L56 48L56 49L57 49L57 48L56 48L56 46L57 46L57 45L56 45L56 44L55 44L55 43L56 43L56 41L53 41L53 40L55 40L55 39L57 39L57 36L56 36L56 37L55 37L55 35L56 35L56 34L55 34L55 33L54 33L54 34L55 34L55 35L53 35L53 34L52 34L52 33L53 33L53 32L56 32L56 33L57 33L57 32L56 32L56 30L57 30L57 29L54 29L54 28L55 28L55 27L56 27L56 28L57 28L57 27L56 27L56 26L57 26L57 25L56 25L56 22L57 22L57 19L56 19L56 18L57 18L57 17L56 17L56 16L57 16L57 15L56 15L56 14L57 14L57 12L56 12L56 14L55 14L55 13L54 13L54 12L55 12L55 11L56 11L56 10L54 10L54 11L52 11L52 10L50 10L50 8L49 8L49 9L48 9L48 7L49 7L49 6L48 6L48 7L47 7L47 5L48 5L48 0L45 0L45 1L47 1L47 2L44 2L44 3L43 3L43 4L40 4L40 5L39 5L39 6L38 6L38 2L39 2L39 3L42 3L42 2L43 2L43 0L41 0L41 1L40 1L40 0L39 0L39 1L38 1L38 0L37 0L37 1L38 1L38 2L37 2L37 3L36 3L36 0L35 0L35 1L33 1L33 2L32 2L32 0L27 0L27 1L26 1L26 0L23 0L23 1L22 1L22 0L21 0L21 2L20 2L20 1L18 1L18 0L17 0L17 1L18 1L18 2L19 2L19 3L17 3L17 2L15 2L15 0L14 0L14 2L13 2L13 0L12 0L12 1L11 1L11 0ZM10 1L10 2L11 2L11 3L12 3L12 5L10 5L10 6L11 6L11 7L12 7L12 10L11 10L11 9L9 9L9 10L8 10L8 11L6 11L6 12L4 12L4 13L5 13L5 14L4 14L4 17L3 17L3 18L5 18L5 19L4 19L4 20L3 20L3 21L4 21L4 20L5 20L5 21L6 21L6 22L7 22L7 21L8 21L8 23L6 23L6 24L4 24L4 23L5 23L5 22L4 22L4 23L3 23L3 24L4 24L4 25L5 25L5 26L9 26L9 29L10 29L10 25L9 25L9 24L11 24L11 25L13 25L13 27L12 27L12 26L11 26L11 27L12 27L12 29L11 29L11 30L10 30L10 31L11 31L11 32L10 32L10 33L11 33L11 34L10 34L10 35L11 35L11 37L12 37L12 38L9 38L9 40L8 40L8 41L6 41L6 40L7 40L7 39L5 39L5 41L6 41L6 42L5 42L5 43L4 43L4 44L3 44L3 45L2 45L2 46L1 46L1 47L2 47L2 46L3 46L3 47L5 47L5 43L6 43L6 44L8 44L8 43L9 43L9 42L8 42L8 41L10 41L10 44L11 44L11 46L12 46L12 43L14 43L14 44L13 44L13 46L14 46L14 44L15 44L15 46L17 46L17 48L16 48L16 49L15 49L15 52L16 52L16 53L15 53L15 54L13 54L13 55L14 55L14 56L16 56L16 55L15 55L15 54L16 54L16 53L17 53L17 52L16 52L16 51L18 51L18 49L17 49L17 48L18 48L18 47L19 47L19 48L21 48L21 49L19 49L19 50L20 50L20 51L19 51L19 52L20 52L20 53L19 53L19 54L20 54L20 55L18 55L18 54L17 54L17 55L18 55L18 56L21 56L21 55L22 55L22 53L24 53L24 54L23 54L23 55L24 55L24 56L26 56L26 55L27 55L27 56L29 56L29 55L30 55L30 56L31 56L31 54L32 54L32 53L33 53L33 55L35 55L35 56L36 56L36 54L35 54L35 53L34 53L34 52L35 52L35 50L36 50L36 52L38 52L38 50L41 50L41 52L40 52L40 51L39 51L39 53L37 53L37 54L40 54L40 53L41 53L41 52L43 52L43 51L44 51L44 50L43 50L43 51L42 51L42 50L41 50L41 48L42 48L42 49L43 49L43 48L44 48L44 49L45 49L45 50L47 50L47 53L45 53L45 52L46 52L46 51L45 51L45 52L44 52L44 53L43 53L43 54L44 54L44 55L45 55L45 54L47 54L47 53L48 53L48 50L47 50L47 49L48 49L48 48L51 48L51 47L55 47L55 46L56 46L56 45L55 45L55 44L54 44L54 46L53 46L53 45L52 45L52 44L53 44L53 43L54 43L54 42L53 42L53 41L51 41L51 42L50 42L50 43L48 43L48 44L47 44L47 45L45 45L45 44L46 44L46 43L47 43L47 42L48 42L48 41L49 41L49 40L50 40L50 39L54 39L54 38L53 38L53 35L52 35L52 34L50 34L50 32L49 32L49 31L48 31L48 27L47 27L47 25L49 25L49 24L50 24L50 22L51 22L51 21L54 21L54 23L55 23L55 22L56 22L56 21L55 21L55 20L56 20L56 19L55 19L55 20L53 20L53 19L52 19L52 20L51 20L51 21L49 21L49 20L46 20L46 18L47 18L47 15L46 15L46 18L45 18L45 15L44 15L44 14L47 14L47 13L49 13L49 12L50 12L50 14L49 14L49 15L48 15L48 16L49 16L49 17L50 17L50 18L48 18L48 19L51 19L51 18L55 18L55 16L51 16L51 17L50 17L50 14L51 14L51 12L50 12L50 10L48 10L48 11L47 11L47 12L45 12L45 11L46 11L46 10L47 10L47 8L44 8L44 6L45 6L45 7L46 7L46 6L45 6L45 4L46 4L46 5L47 5L47 3L44 3L44 6L43 6L43 7L42 7L42 6L41 6L41 5L40 5L40 6L39 6L39 7L40 7L40 8L39 8L39 9L38 9L38 8L37 8L37 7L38 7L38 6L37 6L37 7L36 7L36 5L37 5L37 4L36 4L36 5L35 5L35 4L33 4L33 3L32 3L32 2L31 2L31 1L30 1L30 2L31 2L31 3L32 3L32 4L31 4L31 8L32 8L32 10L29 10L29 12L28 12L28 13L27 13L27 14L26 14L26 16L23 16L23 15L21 15L21 16L20 16L20 14L21 14L21 13L22 13L22 14L23 14L23 13L24 13L24 12L25 12L25 13L26 13L26 12L27 12L27 11L26 11L26 12L25 12L25 11L24 11L24 12L23 12L23 13L22 13L22 12L21 12L21 11L22 11L22 10L23 10L23 9L25 9L25 8L26 8L26 4L30 4L30 3L27 3L27 2L29 2L29 1L27 1L27 2L26 2L26 1L25 1L25 2L22 2L22 3L19 3L19 4L17 4L17 3L15 3L15 2L14 2L14 4L13 4L13 2L11 2L11 1ZM34 2L34 3L35 3L35 2ZM8 3L8 4L9 4L9 3ZM23 3L23 4L19 4L19 5L20 5L20 7L19 7L19 6L18 6L18 5L17 5L17 6L16 6L16 7L15 7L15 5L16 5L16 4L15 4L15 5L14 5L14 7L13 7L13 6L12 6L12 7L13 7L13 9L14 9L14 8L15 8L15 9L19 9L19 10L18 10L18 11L17 11L17 10L12 10L12 11L11 11L11 10L9 10L9 11L8 11L8 12L6 12L6 13L8 13L8 14L6 14L6 15L5 15L5 18L6 18L6 19L5 19L5 20L6 20L6 21L7 21L7 20L6 20L6 19L7 19L7 18L6 18L6 17L7 17L7 16L8 16L8 17L9 17L9 18L8 18L8 20L9 20L9 23L8 23L8 24L9 24L9 23L12 23L12 24L13 24L13 23L12 23L12 22L14 22L14 23L16 23L16 24L17 24L17 25L18 25L18 26L14 26L14 27L15 27L15 28L13 28L13 29L15 29L15 30L14 30L14 31L15 31L15 33L16 33L16 32L17 32L17 33L18 33L18 34L17 34L17 35L16 35L16 34L15 34L15 35L14 35L14 32L13 32L13 31L12 31L12 32L11 32L11 33L12 33L12 34L11 34L11 35L12 35L12 37L13 37L13 38L14 38L14 39L12 39L12 41L11 41L11 40L10 40L10 41L11 41L11 42L12 42L12 41L13 41L13 42L14 42L14 43L16 43L16 45L17 45L17 46L20 46L20 45L21 45L21 47L23 47L23 49L21 49L21 50L25 50L25 49L26 49L26 52L24 52L24 53L27 53L27 54L30 54L30 53L31 53L31 49L32 49L32 52L33 52L33 51L34 51L34 50L33 50L33 49L34 49L34 48L33 48L33 49L32 49L32 48L31 48L31 47L32 47L32 46L33 46L33 47L36 47L36 48L35 48L35 49L36 49L36 50L38 50L38 49L39 49L39 48L41 48L41 46L43 46L43 47L42 47L42 48L43 48L43 47L45 47L45 48L46 48L46 47L47 47L47 48L48 48L48 47L50 47L50 46L49 46L49 45L50 45L50 44L51 44L51 43L53 43L53 42L51 42L51 43L50 43L50 44L49 44L49 45L47 45L47 46L44 46L44 44L43 44L43 42L45 42L45 41L41 41L41 43L42 43L42 44L41 44L41 46L40 46L40 47L39 47L39 46L38 46L38 45L39 45L39 44L40 44L40 43L39 43L39 42L40 42L40 41L39 41L39 42L38 42L38 40L41 40L41 39L39 39L39 38L38 38L38 37L37 37L37 36L38 36L38 33L37 33L37 32L33 32L33 33L32 33L32 32L31 32L31 33L29 33L29 32L30 32L30 31L31 31L31 29L32 29L32 31L35 31L35 30L37 30L37 29L38 29L38 28L40 28L40 26L43 26L43 27L44 27L44 28L43 28L43 29L41 29L41 30L43 30L43 32L41 32L41 33L39 33L39 34L40 34L40 35L39 35L39 37L40 37L40 38L43 38L43 37L44 37L44 38L45 38L45 39L43 39L43 40L47 40L47 39L50 39L50 38L51 38L51 36L52 36L52 35L50 35L50 34L49 34L49 35L50 35L50 36L49 36L49 37L48 37L48 38L47 38L47 39L46 39L46 38L45 38L45 37L44 37L44 36L46 36L46 37L47 37L47 36L46 36L46 35L47 35L47 34L45 34L45 35L44 35L44 33L43 33L43 32L46 32L46 33L47 33L47 32L48 32L48 33L49 33L49 32L48 32L48 31L47 31L47 30L46 30L46 29L47 29L47 27L46 27L46 28L45 28L45 27L44 27L44 24L43 24L43 25L40 25L40 24L41 24L41 22L42 22L42 23L44 23L44 20L45 20L45 18L44 18L44 15L42 15L42 16L41 16L41 14L44 14L44 12L43 12L43 13L41 13L41 14L40 14L40 15L39 15L39 14L38 14L38 13L40 13L40 12L41 12L41 11L40 11L40 10L42 10L42 11L45 11L45 9L44 9L44 8L43 8L43 9L40 9L40 10L39 10L39 11L38 11L38 9L37 9L37 8L35 8L35 5L33 5L33 4L32 4L32 5L33 5L33 6L32 6L32 7L33 7L33 9L34 9L34 8L35 8L35 9L37 9L37 10L36 10L36 11L35 11L35 13L37 13L37 14L36 14L36 15L37 15L37 14L38 14L38 15L39 15L39 16L38 16L38 17L37 17L37 16L35 16L35 14L33 14L33 13L34 13L34 12L33 12L33 13L32 13L32 12L31 12L31 13L30 13L30 14L29 14L29 13L28 13L28 14L29 14L29 16L28 16L28 15L27 15L27 16L26 16L26 18L25 18L25 17L22 17L22 16L21 16L21 17L22 17L22 18L21 18L21 20L22 20L22 19L23 19L23 20L24 20L24 21L23 21L23 22L24 22L24 21L25 21L25 22L26 22L26 23L25 23L25 24L24 24L24 23L23 23L23 24L24 24L24 25L22 25L22 24L19 24L19 23L20 23L20 22L19 22L19 23L18 23L18 22L17 22L17 21L20 21L20 19L19 19L19 20L17 20L17 21L16 21L16 20L15 20L15 21L16 21L16 22L14 22L14 21L12 21L12 20L14 20L14 19L13 19L13 18L12 18L12 19L11 19L11 17L9 17L9 15L10 15L10 14L11 14L11 13L12 13L12 12L13 12L13 13L15 13L15 14L12 14L12 15L13 15L13 16L12 16L12 17L14 17L14 15L15 15L15 17L16 17L16 13L17 13L17 14L18 14L18 16L17 16L17 17L19 17L19 18L20 18L20 17L19 17L19 14L20 14L20 13L21 13L21 12L20 12L20 9L19 9L19 8L21 8L21 5L22 5L22 7L23 7L23 6L24 6L24 8L25 8L25 4L26 4L26 3ZM23 4L23 5L24 5L24 4ZM27 5L27 8L30 8L30 5ZM17 6L17 7L16 7L16 8L19 8L19 7L18 7L18 6ZM28 6L28 7L29 7L29 6ZM33 6L33 7L34 7L34 6ZM40 6L40 7L41 7L41 6ZM0 8L0 10L2 10L2 11L3 11L3 9L4 9L4 10L5 10L5 8ZM51 8L51 9L52 9L52 8ZM53 8L53 9L54 9L54 8ZM55 8L55 9L56 9L56 8ZM21 9L21 10L22 10L22 9ZM43 9L43 10L44 10L44 9ZM32 10L32 11L33 11L33 10ZM13 11L13 12L14 12L14 11ZM15 11L15 13L16 13L16 12L17 12L17 13L18 13L18 12L17 12L17 11ZM39 11L39 12L40 12L40 11ZM8 12L8 13L9 13L9 14L8 14L8 15L9 15L9 14L10 14L10 13L11 13L11 12ZM19 12L19 13L20 13L20 12ZM52 12L52 13L53 13L53 12ZM30 14L30 15L31 15L31 14ZM53 14L53 15L54 15L54 14ZM6 15L6 16L7 16L7 15ZM32 15L32 17L31 17L31 18L30 18L30 19L28 19L28 18L26 18L26 21L27 21L27 24L25 24L25 25L26 25L26 26L22 26L22 25L19 25L19 26L18 26L18 27L17 27L17 28L18 28L18 29L16 29L16 28L15 28L15 29L16 29L16 30L18 30L18 29L20 29L20 30L19 30L19 32L20 32L20 31L23 31L23 32L21 32L21 33L19 33L19 35L18 35L18 36L13 36L13 37L16 37L16 38L15 38L15 39L16 39L16 40L17 40L17 41L15 41L15 40L14 40L14 41L15 41L15 42L17 42L17 43L18 43L18 42L19 42L19 45L20 45L20 44L21 44L21 45L22 45L22 46L23 46L23 47L25 47L25 48L24 48L24 49L25 49L25 48L27 48L27 47L26 47L26 45L27 45L27 46L29 46L29 44L25 44L25 46L23 46L23 45L24 45L24 43L23 43L23 45L22 45L22 44L21 44L21 43L22 43L22 42L23 42L23 40L24 40L24 41L25 41L25 43L27 43L27 42L30 42L30 41L31 41L31 42L32 42L32 43L31 43L31 44L32 44L32 45L30 45L30 46L32 46L32 45L33 45L33 46L35 46L35 45L34 45L34 43L37 43L37 42L35 42L35 40L38 40L38 38L37 38L37 39L35 39L35 37L33 37L33 36L32 36L32 37L33 37L33 38L34 38L34 39L35 39L35 40L33 40L33 39L29 39L29 38L31 38L31 37L29 37L29 36L30 36L30 34L29 34L29 33L28 33L28 32L29 32L29 31L27 31L27 32L26 32L26 31L25 31L25 30L24 30L24 31L23 31L23 29L26 29L26 28L25 28L25 27L26 27L26 26L29 26L29 23L31 23L31 24L30 24L30 25L31 25L31 24L32 24L32 26L31 26L31 28L32 28L32 29L33 29L33 30L35 30L35 29L36 29L36 28L37 28L37 27L39 27L39 26L40 26L40 25L38 25L38 26L37 26L37 25L33 25L33 24L32 24L32 23L35 23L35 20L34 20L34 19L36 19L36 20L37 20L37 21L38 21L38 23L37 23L37 24L40 24L40 22L39 22L39 21L42 21L42 20L39 20L39 21L38 21L38 19L39 19L39 17L41 17L41 16L39 16L39 17L38 17L38 18L37 18L37 17L35 17L35 16L33 16L33 15ZM27 16L27 17L28 17L28 16ZM42 16L42 17L43 17L43 16ZM32 17L32 18L31 18L31 19L30 19L30 21L28 21L28 22L31 22L31 21L32 21L32 20L33 20L33 17ZM15 18L15 19L17 19L17 18ZM23 18L23 19L24 19L24 18ZM41 18L41 19L42 19L42 18ZM43 18L43 20L44 20L44 18ZM9 19L9 20L10 20L10 22L11 22L11 19ZM27 19L27 20L28 20L28 19ZM45 21L45 22L46 22L46 23L45 23L45 24L48 24L48 23L47 23L47 22L49 22L49 21L47 21L47 22L46 22L46 21ZM51 23L51 25L50 25L50 26L51 26L51 25L54 25L54 24L53 24L53 23ZM6 24L6 25L7 25L7 24ZM14 24L14 25L15 25L15 24ZM55 25L55 26L56 26L56 25ZM19 26L19 28L21 28L21 29L22 29L22 28L21 28L21 27L22 27L22 26L21 26L21 27L20 27L20 26ZM32 26L32 27L33 27L33 28L36 28L36 26L34 26L34 27L33 27L33 26ZM53 26L53 27L54 27L54 26ZM2 27L2 28L3 28L3 30L2 30L2 31L4 31L4 27ZM5 27L5 30L8 30L8 27ZM27 27L27 30L30 30L30 27ZM41 27L41 28L42 28L42 27ZM49 27L49 30L52 30L52 27ZM6 28L6 29L7 29L7 28ZM28 28L28 29L29 29L29 28ZM44 28L44 29L43 29L43 30L44 30L44 31L45 31L45 30L44 30L44 29L45 29L45 28ZM50 28L50 29L51 29L51 28ZM39 29L39 30L38 30L38 32L39 32L39 30L40 30L40 29ZM53 29L53 31L52 31L52 32L51 32L51 33L52 33L52 32L53 32L53 31L55 31L55 30L54 30L54 29ZM6 31L6 32L8 32L8 33L5 33L5 34L7 34L7 35L6 35L6 36L7 36L7 35L8 35L8 33L9 33L9 32L8 32L8 31ZM17 31L17 32L18 32L18 31ZM24 31L24 32L25 32L25 33L23 33L23 34L24 34L24 36L23 36L23 35L20 35L20 36L23 36L23 37L24 37L24 38L23 38L23 39L22 39L22 38L21 38L21 37L19 37L19 36L18 36L18 37L17 37L17 40L18 40L18 41L17 41L17 42L18 42L18 41L19 41L19 42L20 42L20 43L21 43L21 42L22 42L22 41L21 41L21 42L20 42L20 41L19 41L19 40L21 40L21 39L22 39L22 40L23 40L23 39L24 39L24 40L25 40L25 39L26 39L26 40L27 40L27 41L26 41L26 42L27 42L27 41L28 41L28 39L26 39L26 38L28 38L28 37L26 37L26 38L25 38L25 36L27 36L27 33L26 33L26 32L25 32L25 31ZM46 31L46 32L47 32L47 31ZM1 32L1 33L2 33L2 34L3 34L3 33L2 33L2 32ZM12 32L12 33L13 33L13 32ZM21 33L21 34L22 34L22 33ZM25 33L25 35L26 35L26 33ZM33 33L33 34L32 34L32 35L35 35L35 36L37 36L37 34L35 34L35 33ZM12 34L12 35L13 35L13 34ZM42 34L42 35L41 35L41 36L40 36L40 37L43 37L43 36L44 36L44 35L43 35L43 34ZM0 35L0 36L1 36L1 37L0 37L0 38L2 38L2 36L1 36L1 35ZM3 36L3 37L4 37L4 36ZM8 36L8 37L10 37L10 36ZM18 37L18 38L19 38L19 39L20 39L20 38L19 38L19 37ZM49 37L49 38L50 38L50 37ZM3 40L3 41L2 41L2 42L1 42L1 44L2 44L2 42L3 42L3 41L4 41L4 40ZM29 40L29 41L30 41L30 40ZM31 40L31 41L32 41L32 42L33 42L33 43L32 43L32 44L33 44L33 43L34 43L34 42L33 42L33 41L32 41L32 40ZM6 42L6 43L8 43L8 42ZM17 44L17 45L18 45L18 44ZM3 45L3 46L4 46L4 45ZM6 45L6 46L7 46L7 45ZM51 45L51 46L52 46L52 45ZM38 47L38 48L37 48L37 49L38 49L38 48L39 48L39 47ZM6 48L6 49L7 49L7 48ZM27 49L27 52L30 52L30 49ZM49 49L49 52L52 52L52 49ZM28 50L28 51L29 51L29 50ZM50 50L50 51L51 51L51 50ZM54 50L54 51L55 51L55 50ZM13 51L13 53L14 53L14 51ZM20 51L20 52L21 52L21 53L22 53L22 52L23 52L23 51ZM53 52L53 53L54 53L54 52ZM10 53L10 54L11 54L11 53ZM44 53L44 54L45 54L45 53ZM37 55L37 56L39 56L39 55ZM50 55L50 56L51 56L51 55ZM0 0L0 7L7 7L7 0ZM1 1L1 6L6 6L6 1ZM2 2L2 5L5 5L5 2ZM50 0L50 7L57 7L57 0ZM51 1L51 6L56 6L56 1ZM52 2L52 5L55 5L55 2ZM0 50L0 57L7 57L7 50ZM1 51L1 56L6 56L6 51ZM2 52L2 55L5 55L5 52Z" fill="#000000"/></g></g></svg>
