<?xml version="1.0" encoding="UTF-8"?>
<svg xmlns="http://www.w3.org/2000/svg" version="1.1" width="300" height="300" viewBox="0 0 300 300"><rect x="0" y="0" width="300" height="300" fill="#fefefe"/><g transform="scale(4.615)"><g transform="translate(4,4)"><path fill-rule="evenodd" d="M9 0L9 1L8 1L8 2L9 2L9 1L10 1L10 3L8 3L8 4L14 4L14 2L16 2L16 1L14 1L14 2L13 2L13 3L11 3L11 2L12 2L12 1L11 1L11 0ZM17 0L17 2L18 2L18 4L17 4L17 6L16 6L16 7L15 7L15 6L14 6L14 5L12 5L12 7L11 7L11 5L8 5L8 7L9 7L9 8L6 8L6 9L7 9L7 10L3 10L3 9L5 9L5 8L0 8L0 13L2 13L2 12L1 12L1 11L2 11L2 10L3 10L3 11L5 11L5 13L4 13L4 14L0 14L0 15L1 15L1 16L2 16L2 17L1 17L1 18L0 18L0 20L2 20L2 21L0 21L0 26L1 26L1 27L2 27L2 28L0 28L0 29L1 29L1 30L2 30L2 29L3 29L3 30L4 30L4 31L3 31L3 32L5 32L5 34L4 34L4 33L2 33L2 31L1 31L1 32L0 32L0 33L2 33L2 34L4 34L4 37L2 37L2 36L0 36L0 37L1 37L1 38L0 38L0 39L1 39L1 38L5 38L5 37L7 37L7 36L11 36L11 37L10 37L10 38L9 38L9 39L10 39L10 38L12 38L12 37L13 37L13 34L11 34L11 35L10 35L10 34L9 34L9 33L8 33L8 32L10 32L10 33L11 33L11 32L12 32L12 31L11 31L11 30L13 30L13 33L14 33L14 37L15 37L15 38L16 38L16 37L15 37L15 34L16 34L16 35L17 35L17 40L16 40L16 39L15 39L15 40L13 40L13 41L12 41L12 42L11 42L11 40L10 40L10 41L8 41L8 42L9 42L9 43L12 43L12 44L11 44L11 45L12 45L12 46L11 46L11 47L10 47L10 48L11 48L11 50L10 50L10 49L8 49L8 48L9 48L9 47L8 47L8 48L6 48L6 49L8 49L8 51L9 51L9 50L10 50L10 51L11 51L11 50L12 50L12 51L13 51L13 52L14 52L14 54L15 54L15 55L14 55L14 57L15 57L15 55L16 55L16 56L17 56L17 57L20 57L20 56L18 56L18 55L20 55L20 54L19 54L19 53L20 53L20 52L21 52L21 53L22 53L22 55L21 55L21 56L24 56L24 57L26 57L26 56L27 56L27 57L29 57L29 56L30 56L30 57L31 57L31 56L35 56L35 57L39 57L39 56L40 56L40 55L41 55L41 54L42 54L42 55L43 55L43 57L44 57L44 54L45 54L45 53L47 53L47 54L46 54L46 55L49 55L49 56L50 56L50 57L52 57L52 55L51 55L51 53L52 53L52 54L53 54L53 55L54 55L54 56L53 56L53 57L54 57L54 56L55 56L55 57L56 57L56 56L55 56L55 53L57 53L57 52L56 52L56 50L57 50L57 48L56 48L56 46L57 46L57 45L56 45L56 44L57 44L57 43L56 43L56 41L55 41L55 39L57 39L57 35L56 35L56 33L57 33L57 32L56 32L56 30L57 30L57 29L56 29L56 26L57 26L57 25L56 25L56 22L57 22L57 21L56 21L56 18L57 18L57 17L56 17L56 16L57 16L57 15L56 15L56 14L57 14L57 13L56 13L56 12L57 12L57 11L56 11L56 8L55 8L55 10L54 10L54 11L53 11L53 10L49 10L49 9L50 9L50 8L49 8L49 6L48 6L48 7L47 7L47 5L48 5L48 0L45 0L45 2L44 2L44 3L43 3L43 4L42 4L42 2L43 2L43 0L41 0L41 1L40 1L40 0L39 0L39 1L38 1L38 0L37 0L37 1L38 1L38 3L36 3L36 0L35 0L35 1L32 1L32 0L29 0L29 1L28 1L28 3L30 3L30 4L26 4L26 3L23 3L23 4L22 4L22 3L21 3L21 2L20 2L20 0ZM21 0L21 1L22 1L22 2L27 2L27 1L26 1L26 0L23 0L23 1L22 1L22 0ZM18 1L18 2L19 2L19 1ZM30 1L30 2L31 2L31 3L32 3L32 4L31 4L31 8L32 8L32 10L31 10L31 11L30 11L30 10L29 10L29 9L28 9L28 10L27 10L27 11L26 11L26 12L25 12L25 10L23 10L23 13L22 13L22 12L20 12L20 11L22 11L22 10L21 10L21 9L24 9L24 6L23 6L23 5L24 5L24 4L23 4L23 5L22 5L22 4L21 4L21 3L19 3L19 4L18 4L18 6L17 6L17 7L16 7L16 8L15 8L15 7L14 7L14 6L13 6L13 7L12 7L12 9L11 9L11 12L10 12L10 8L11 8L11 7L10 7L10 6L9 6L9 7L10 7L10 8L9 8L9 9L8 9L8 11L9 11L9 13L5 13L5 15L4 15L4 17L2 17L2 18L4 18L4 19L3 19L3 20L4 20L4 21L6 21L6 22L9 22L9 18L7 18L7 17L10 17L10 19L14 19L14 20L13 20L13 21L14 21L14 22L13 22L13 23L14 23L14 22L16 22L16 21L17 21L17 20L16 20L16 21L15 21L15 17L16 17L16 19L18 19L18 20L20 20L20 21L19 21L19 22L17 22L17 24L16 24L16 23L15 23L15 25L14 25L14 24L13 24L13 25L12 25L12 26L13 26L13 25L14 25L14 28L13 28L13 30L14 30L14 32L15 32L15 33L16 33L16 34L17 34L17 35L18 35L18 34L19 34L19 37L18 37L18 38L19 38L19 39L20 39L20 38L19 38L19 37L21 37L21 38L22 38L22 39L21 39L21 40L20 40L20 42L19 42L19 41L18 41L18 40L17 40L17 41L13 41L13 42L12 42L12 43L13 43L13 44L12 44L12 45L13 45L13 44L14 44L14 45L15 45L15 46L14 46L14 47L12 47L12 48L13 48L13 49L14 49L14 50L13 50L13 51L16 51L16 53L15 53L15 54L16 54L16 53L17 53L17 52L20 52L20 51L19 51L19 49L20 49L20 50L21 50L21 49L23 49L23 47L21 47L21 45L22 45L22 46L23 46L23 45L22 45L22 44L21 44L21 43L22 43L22 42L24 42L24 41L25 41L25 43L24 43L24 44L25 44L25 47L26 47L26 48L30 48L30 47L29 47L29 46L30 46L30 44L31 44L31 45L32 45L32 46L35 46L35 47L33 47L33 48L31 48L31 50L32 50L32 51L31 51L31 53L30 53L30 54L26 54L26 55L27 55L27 56L29 56L29 55L30 55L30 56L31 56L31 54L32 54L32 53L33 53L33 54L34 54L34 55L35 55L35 56L36 56L36 54L35 54L35 53L33 53L33 52L32 52L32 51L33 51L33 50L36 50L36 52L37 52L37 53L38 53L38 54L37 54L37 56L39 56L39 55L38 55L38 54L40 54L40 53L41 53L41 52L43 52L43 51L45 51L45 52L44 52L44 53L43 53L43 54L44 54L44 53L45 53L45 52L46 52L46 50L47 50L47 53L48 53L48 50L47 50L47 49L48 49L48 48L49 48L49 47L52 47L52 46L53 46L53 47L55 47L55 46L56 46L56 45L55 45L55 44L54 44L54 45L55 45L55 46L53 46L53 45L52 45L52 44L53 44L53 43L54 43L54 42L53 42L53 41L51 41L51 42L50 42L50 43L47 43L47 42L48 42L48 41L49 41L49 40L50 40L50 39L52 39L52 40L53 40L53 39L55 39L55 38L54 38L54 37L53 37L53 35L55 35L55 37L56 37L56 35L55 35L55 34L54 34L54 33L52 33L52 32L53 32L53 31L52 31L52 32L51 32L51 33L52 33L52 34L50 34L50 31L48 31L48 30L47 30L47 29L46 29L46 30L47 30L47 31L46 31L46 33L45 33L45 32L43 32L43 30L41 30L41 29L44 29L44 31L45 31L45 28L46 28L46 27L47 27L47 28L48 28L48 27L47 27L47 24L45 24L45 22L47 22L47 21L48 21L48 20L47 20L47 19L48 19L48 18L47 18L47 17L45 17L45 14L47 14L47 13L49 13L49 12L50 12L50 14L49 14L49 15L48 15L48 16L49 16L49 17L50 17L50 18L49 18L49 19L51 19L51 18L55 18L55 16L52 16L52 15L51 15L51 17L50 17L50 14L51 14L51 12L50 12L50 11L49 11L49 10L47 10L47 9L48 9L48 8L45 8L45 7L46 7L46 6L45 6L45 4L46 4L46 5L47 5L47 3L44 3L44 6L43 6L43 8L44 8L44 9L43 9L43 11L41 11L41 12L39 12L39 13L38 13L38 14L37 14L37 15L35 15L35 16L32 16L32 13L33 13L33 14L36 14L36 13L35 13L35 12L37 12L37 11L39 11L39 10L40 10L40 9L42 9L42 8L41 8L41 7L42 7L42 6L41 6L41 5L40 5L40 4L41 4L41 3L39 3L39 4L38 4L38 6L37 6L37 7L36 7L36 5L37 5L37 4L36 4L36 5L35 5L35 4L34 4L34 3L35 3L35 2L33 2L33 3L32 3L32 2L31 2L31 1ZM46 1L46 2L47 2L47 1ZM15 4L15 5L16 5L16 4ZM19 4L19 5L20 5L20 7L19 7L19 6L18 6L18 7L17 7L17 8L16 8L16 9L15 9L15 10L13 10L13 9L14 9L14 8L13 8L13 9L12 9L12 10L13 10L13 11L12 11L12 14L13 14L13 15L12 15L12 16L10 16L10 14L11 14L11 13L9 13L9 16L10 16L10 17L11 17L11 18L13 18L13 17L14 17L14 15L15 15L15 16L16 16L16 17L17 17L17 18L18 18L18 19L20 19L20 17L19 17L19 16L20 16L20 15L24 15L24 16L25 16L25 17L22 17L22 16L21 16L21 17L22 17L22 18L21 18L21 19L23 19L23 20L24 20L24 21L22 21L22 20L21 20L21 21L22 21L22 22L21 22L21 23L22 23L22 24L20 24L20 25L19 25L19 24L17 24L17 25L18 25L18 26L15 26L15 28L16 28L16 29L15 29L15 31L16 31L16 29L18 29L18 32L16 32L16 33L17 33L17 34L18 34L18 33L19 33L19 34L20 34L20 33L21 33L21 35L20 35L20 36L21 36L21 35L22 35L22 36L23 36L23 37L24 37L24 38L23 38L23 39L24 39L24 40L23 40L23 41L24 41L24 40L25 40L25 37L26 37L26 35L27 35L27 31L29 31L29 32L28 32L28 33L29 33L29 34L30 34L30 36L29 36L29 37L31 37L31 38L29 38L29 39L33 39L33 40L35 40L35 42L37 42L37 43L36 43L36 44L35 44L35 43L34 43L34 42L33 42L33 41L32 41L32 40L28 40L28 39L27 39L27 38L28 38L28 37L27 37L27 38L26 38L26 40L28 40L28 41L26 41L26 42L28 42L28 41L30 41L30 42L29 42L29 43L28 43L28 44L27 44L27 43L25 43L25 44L27 44L27 45L26 45L26 47L28 47L28 46L27 46L27 45L28 45L28 44L29 44L29 43L31 43L31 44L33 44L33 43L34 43L34 45L35 45L35 46L36 46L36 45L37 45L37 47L36 47L36 48L35 48L35 49L36 49L36 50L38 50L38 51L40 51L40 52L41 52L41 50L42 50L42 51L43 51L43 50L44 50L44 48L43 48L43 47L42 47L42 48L41 48L41 46L43 46L43 45L44 45L44 47L47 47L47 48L48 48L48 47L49 47L49 46L52 46L52 45L51 45L51 43L53 43L53 42L51 42L51 43L50 43L50 44L49 44L49 45L47 45L47 43L46 43L46 42L44 42L44 41L42 41L42 40L41 40L41 41L40 41L40 42L41 42L41 43L42 43L42 44L41 44L41 45L40 45L40 47L39 47L39 46L38 46L38 45L39 45L39 44L40 44L40 43L39 43L39 42L38 42L38 40L40 40L40 39L38 39L38 36L39 36L39 37L40 37L40 38L41 38L41 39L42 39L42 38L43 38L43 37L44 37L44 38L45 38L45 39L43 39L43 40L45 40L45 41L47 41L47 39L50 39L50 38L51 38L51 36L52 36L52 35L53 35L53 34L52 34L52 35L50 35L50 34L49 34L49 35L50 35L50 38L49 38L49 37L48 37L48 38L47 38L47 39L46 39L46 38L45 38L45 37L46 37L46 36L47 36L47 35L46 35L46 36L45 36L45 35L44 35L44 33L43 33L43 32L41 32L41 33L39 33L39 34L40 34L40 35L38 35L38 33L37 33L37 32L35 32L35 31L36 31L36 29L38 29L38 28L40 28L40 27L41 27L41 28L42 28L42 27L41 27L41 26L43 26L43 25L44 25L44 20L45 20L45 21L47 21L47 20L45 20L45 18L44 18L44 15L42 15L42 16L41 16L41 15L40 15L40 14L45 14L45 13L44 13L44 12L43 12L43 13L39 13L39 14L38 14L38 15L39 15L39 16L38 16L38 17L37 17L37 16L35 16L35 17L37 17L37 18L38 18L38 17L39 17L39 19L38 19L38 20L36 20L36 19L32 19L32 16L31 16L31 15L30 15L30 14L31 14L31 13L32 13L32 11L33 11L33 10L32 10L32 11L31 11L31 13L30 13L30 14L29 14L29 13L28 13L28 12L29 12L29 11L27 11L27 12L26 12L26 13L28 13L28 14L29 14L29 16L28 16L28 15L27 15L27 14L25 14L25 13L23 13L23 14L22 14L22 13L21 13L21 14L20 14L20 13L19 13L19 10L20 10L20 9L19 9L19 8L22 8L22 7L23 7L23 6L22 6L22 7L21 7L21 4ZM25 4L25 8L26 8L26 4ZM32 4L32 5L33 5L33 4ZM27 5L27 8L30 8L30 5ZM34 5L34 7L33 7L33 6L32 6L32 7L33 7L33 9L34 9L34 8L35 8L35 9L37 9L37 10L36 10L36 11L37 11L37 10L38 10L38 8L40 8L40 7L41 7L41 6L40 6L40 5L39 5L39 6L38 6L38 7L37 7L37 8L35 8L35 5ZM28 6L28 7L29 7L29 6ZM39 6L39 7L40 7L40 6ZM44 6L44 7L45 7L45 6ZM51 8L51 9L52 9L52 8ZM53 8L53 9L54 9L54 8ZM16 9L16 10L15 10L15 11L16 11L16 12L15 12L15 13L13 13L13 14L15 14L15 13L16 13L16 16L17 16L17 13L18 13L18 12L17 12L17 11L18 11L18 10L19 10L19 9ZM44 9L44 11L45 11L45 12L47 12L47 10L46 10L46 11L45 11L45 9ZM6 11L6 12L7 12L7 11ZM13 11L13 12L14 12L14 11ZM16 12L16 13L17 13L17 12ZM33 12L33 13L34 13L34 12ZM52 12L52 13L53 13L53 15L55 15L55 14L56 14L56 13L55 13L55 12L54 12L54 13L53 13L53 12ZM6 14L6 15L5 15L5 17L4 17L4 18L5 18L5 17L7 17L7 16L6 16L6 15L8 15L8 14ZM19 14L19 15L18 15L18 16L19 16L19 15L20 15L20 14ZM2 15L2 16L3 16L3 15ZM26 15L26 18L27 18L27 19L26 19L26 21L30 21L30 19L31 19L31 18L30 18L30 19L28 19L28 18L27 18L27 17L28 17L28 16L27 16L27 15ZM12 16L12 17L13 17L13 16ZM39 16L39 17L41 17L41 16ZM42 16L42 17L43 17L43 16ZM18 17L18 18L19 18L19 17ZM6 18L6 19L7 19L7 18ZM23 18L23 19L24 19L24 18ZM41 18L41 19L42 19L42 18ZM43 18L43 20L44 20L44 18ZM4 19L4 20L5 20L5 19ZM27 19L27 20L28 20L28 19ZM52 19L52 20L51 20L51 21L49 21L49 22L48 22L48 25L50 25L50 26L53 26L53 27L54 27L54 26L53 26L53 24L54 24L54 25L55 25L55 24L54 24L54 23L50 23L50 22L51 22L51 21L53 21L53 22L56 22L56 21L55 21L55 20L53 20L53 19ZM6 20L6 21L8 21L8 20ZM10 20L10 21L11 21L11 22L10 22L10 23L11 23L11 24L12 24L12 23L11 23L11 22L12 22L12 20ZM32 20L32 21L31 21L31 22L30 22L30 23L29 23L29 22L28 22L28 23L29 23L29 24L25 24L25 23L26 23L26 22L25 22L25 21L24 21L24 22L23 22L23 23L24 23L24 24L25 24L25 25L26 25L26 26L25 26L25 27L26 27L26 26L30 26L30 25L29 25L29 24L30 24L30 23L31 23L31 24L32 24L32 26L31 26L31 27L32 27L32 31L30 31L30 32L29 32L29 33L31 33L31 35L33 35L33 36L32 36L32 37L33 37L33 39L34 39L34 38L35 38L35 37L33 37L33 36L34 36L34 35L35 35L35 36L37 36L37 34L35 34L35 32L32 32L32 31L33 31L33 30L35 30L35 28L33 28L33 27L34 27L34 26L36 26L36 27L40 27L40 26L39 26L39 25L43 25L43 24L39 24L39 23L40 23L40 22L39 22L39 21L42 21L42 20L38 20L38 22L37 22L37 24L39 24L39 25L38 25L38 26L37 26L37 25L33 25L33 24L32 24L32 23L33 23L33 22L34 22L34 23L35 23L35 20ZM2 21L2 22L1 22L1 23L2 23L2 24L1 24L1 25L2 25L2 24L4 24L4 25L3 25L3 26L2 26L2 27L3 27L3 28L4 28L4 25L5 25L5 24L7 24L7 23L5 23L5 22L4 22L4 23L2 23L2 22L3 22L3 21ZM19 22L19 23L20 23L20 22ZM38 22L38 23L39 23L39 22ZM41 22L41 23L43 23L43 22ZM4 23L4 24L5 24L5 23ZM8 23L8 24L9 24L9 25L8 25L8 26L9 26L9 27L11 27L11 26L10 26L10 24L9 24L9 23ZM22 24L22 25L20 25L20 26L18 26L18 27L17 27L17 28L18 28L18 29L19 29L19 33L20 33L20 31L23 31L23 32L21 32L21 33L22 33L22 35L23 35L23 36L24 36L24 34L23 34L23 33L25 33L25 34L26 34L26 33L25 33L25 32L26 32L26 31L25 31L25 32L24 32L24 31L23 31L23 29L26 29L26 28L24 28L24 26L22 26L22 25L23 25L23 24ZM6 25L6 26L7 26L7 25ZM20 26L20 28L19 28L19 29L22 29L22 28L21 28L21 27L22 27L22 26ZM32 26L32 27L33 27L33 26ZM5 27L5 30L8 30L8 27ZM27 27L27 30L30 30L30 27ZM43 27L43 28L45 28L45 27ZM49 27L49 30L52 30L52 27ZM6 28L6 29L7 29L7 28ZM10 28L10 29L9 29L9 31L10 31L10 29L12 29L12 28ZM28 28L28 29L29 29L29 28ZM50 28L50 29L51 29L51 28ZM54 28L54 29L55 29L55 28ZM39 29L39 30L38 30L38 32L39 32L39 30L40 30L40 29ZM6 31L6 32L8 32L8 31ZM47 31L47 32L48 32L48 33L49 33L49 32L48 32L48 31ZM31 32L31 33L32 33L32 32ZM55 32L55 33L56 33L56 32ZM6 33L6 34L5 34L5 36L7 36L7 35L8 35L8 34L7 34L7 33ZM0 34L0 35L1 35L1 34ZM6 34L6 35L7 35L7 34ZM42 34L42 35L41 35L41 36L40 36L40 37L41 37L41 36L42 36L42 37L43 37L43 36L44 36L44 37L45 37L45 36L44 36L44 35L43 35L43 34ZM11 35L11 36L12 36L12 35ZM42 35L42 36L43 36L43 35ZM6 38L6 39L4 39L4 40L6 40L6 41L3 41L3 39L2 39L2 40L1 40L1 41L0 41L0 42L1 42L1 44L0 44L0 48L5 48L5 47L7 47L7 46L8 46L8 45L7 45L7 44L8 44L8 43L7 43L7 42L6 42L6 41L7 41L7 40L8 40L8 39L7 39L7 38ZM52 38L52 39L53 39L53 38ZM6 39L6 40L7 40L7 39ZM35 39L35 40L38 40L38 39ZM1 41L1 42L2 42L2 41ZM17 41L17 42L18 42L18 43L15 43L15 42L13 42L13 43L14 43L14 44L18 44L18 45L17 45L17 47L19 47L19 46L20 46L20 45L21 45L21 44L20 44L20 43L19 43L19 42L18 42L18 41ZM21 41L21 42L22 42L22 41ZM31 41L31 42L32 42L32 43L33 43L33 42L32 42L32 41ZM4 42L4 43L2 43L2 44L1 44L1 45L3 45L3 44L4 44L4 43L5 43L5 42ZM43 42L43 44L44 44L44 45L45 45L45 46L47 46L47 47L48 47L48 46L47 46L47 45L45 45L45 44L46 44L46 43L44 43L44 42ZM6 43L6 44L7 44L7 43ZM9 44L9 46L10 46L10 44ZM6 45L6 46L7 46L7 45ZM1 46L1 47L2 47L2 46ZM3 46L3 47L5 47L5 46ZM14 47L14 49L16 49L16 47ZM38 47L38 48L37 48L37 49L38 49L38 50L41 50L41 48L39 48L39 47ZM17 48L17 49L19 49L19 48ZM20 48L20 49L21 49L21 48ZM24 48L24 49L25 49L25 50L22 50L22 51L21 51L21 52L22 52L22 53L24 53L24 54L23 54L23 55L24 55L24 56L25 56L25 53L26 53L26 51L25 51L25 50L26 50L26 49L25 49L25 48ZM33 48L33 49L34 49L34 48ZM38 48L38 49L39 49L39 48ZM42 48L42 49L43 49L43 48ZM53 48L53 49L55 49L55 50L54 50L54 51L55 51L55 50L56 50L56 48ZM27 49L27 52L30 52L30 49ZM45 49L45 50L46 50L46 49ZM49 49L49 52L52 52L52 49ZM28 50L28 51L29 51L29 50ZM50 50L50 51L51 51L51 50ZM22 51L22 52L23 52L23 51ZM8 52L8 57L10 57L10 56L9 56L9 55L10 55L10 52ZM24 52L24 53L25 53L25 52ZM38 52L38 53L39 53L39 52ZM53 52L53 54L54 54L54 52ZM12 53L12 54L11 54L11 56L12 56L12 57L13 57L13 56L12 56L12 54L13 54L13 53ZM17 54L17 55L18 55L18 54ZM50 55L50 56L51 56L51 55ZM45 56L45 57L46 57L46 56ZM0 0L0 7L7 7L7 0ZM1 1L1 6L6 6L6 1ZM2 2L2 5L5 5L5 2ZM50 0L50 7L57 7L57 0ZM51 1L51 6L56 6L56 1ZM52 2L52 5L55 5L55 2ZM0 50L0 57L7 57L7 50ZM1 51L1 56L6 56L6 51ZM2 52L2 55L5 55L5 52Z" fill="#000000"/></g></g></svg>
