<?xml version="1.0" encoding="UTF-8"?>
<svg xmlns="http://www.w3.org/2000/svg" version="1.1" width="300" height="300" viewBox="0 0 300 300"><rect x="0" y="0" width="300" height="300" fill="#fefefe"/><g transform="scale(4.615)"><g transform="translate(4,4)"><path fill-rule="evenodd" d="M9 0L9 1L8 1L8 2L9 2L9 1L11 1L11 2L10 2L10 3L8 3L8 4L10 4L10 7L9 7L9 5L8 5L8 7L9 7L9 8L6 8L6 9L7 9L7 10L4 10L4 9L5 9L5 8L0 8L0 10L1 10L1 12L0 12L0 13L1 13L1 14L2 14L2 15L0 15L0 18L1 18L1 19L0 19L0 22L1 22L1 23L0 23L0 25L1 25L1 26L0 26L0 27L1 27L1 28L2 28L2 29L3 29L3 30L4 30L4 31L3 31L3 34L2 34L2 30L0 30L0 31L1 31L1 33L0 33L0 35L2 35L2 36L0 36L0 37L1 37L1 38L0 38L0 39L2 39L2 38L4 38L4 41L5 41L5 42L3 42L3 40L1 40L1 41L0 41L0 45L1 45L1 44L2 44L2 47L1 47L1 46L0 46L0 48L5 48L5 47L7 47L7 48L6 48L6 49L8 49L8 51L9 51L9 50L10 50L10 49L9 49L9 47L7 47L7 46L8 46L8 45L9 45L9 46L10 46L10 45L11 45L11 43L12 43L12 42L15 42L15 40L16 40L16 39L15 39L15 40L14 40L14 39L13 39L13 40L12 40L12 39L11 39L11 40L10 40L10 38L9 38L9 37L10 37L10 36L9 36L9 35L10 35L10 34L12 34L12 36L11 36L11 37L12 37L12 38L13 38L13 37L15 37L15 38L16 38L16 37L15 37L15 36L17 36L17 38L18 38L18 37L19 37L19 38L20 38L20 39L19 39L19 40L18 40L18 39L17 39L17 40L18 40L18 41L17 41L17 42L18 42L18 43L16 43L16 44L18 44L18 45L17 45L17 46L19 46L19 47L20 47L20 45L21 45L21 47L23 47L23 49L21 49L21 48L17 48L17 49L21 49L21 50L15 50L15 51L14 51L14 49L16 49L16 47L15 47L15 48L13 48L13 49L12 49L12 48L11 48L11 47L10 47L10 48L11 48L11 49L12 49L12 50L11 50L11 51L10 51L10 54L9 54L9 52L8 52L8 57L9 57L9 56L10 56L10 55L11 55L11 57L12 57L12 56L13 56L13 57L14 57L14 54L15 54L15 55L16 55L16 56L15 56L15 57L16 57L16 56L17 56L17 57L19 57L19 55L20 55L20 54L19 54L19 53L20 53L20 52L21 52L21 53L22 53L22 55L23 55L23 56L24 56L24 57L26 57L26 56L24 56L24 55L23 55L23 54L24 54L24 53L25 53L25 55L26 55L26 54L30 54L30 53L31 53L31 51L32 51L32 52L33 52L33 51L34 51L34 50L33 50L33 49L36 49L36 50L35 50L35 52L34 52L34 53L35 53L35 54L36 54L36 56L35 56L35 55L34 55L34 54L33 54L33 53L32 53L32 54L31 54L31 56L30 56L30 55L29 55L29 56L27 56L27 57L29 57L29 56L30 56L30 57L31 57L31 56L35 56L35 57L39 57L39 56L42 56L42 55L44 55L44 54L45 54L45 57L47 57L47 56L50 56L50 57L52 57L52 55L51 55L51 53L52 53L52 54L53 54L53 57L54 57L54 56L55 56L55 57L56 57L56 56L55 56L55 53L56 53L56 52L57 52L57 51L56 51L56 50L57 50L57 48L56 48L56 46L57 46L57 43L56 43L56 42L57 42L57 41L56 41L56 42L55 42L55 39L57 39L57 35L56 35L56 34L57 34L57 32L56 32L56 30L57 30L57 29L56 29L56 28L57 28L57 27L56 27L56 26L57 26L57 25L56 25L56 22L57 22L57 20L56 20L56 22L55 22L55 23L53 23L53 22L54 22L54 21L51 21L51 20L52 20L52 19L53 19L53 20L55 20L55 18L57 18L57 17L56 17L56 16L57 16L57 15L56 15L56 14L57 14L57 13L56 13L56 12L57 12L57 11L56 11L56 10L54 10L54 11L52 11L52 10L49 10L49 9L50 9L50 8L49 8L49 6L48 6L48 7L47 7L47 5L48 5L48 0L46 0L46 1L47 1L47 2L44 2L44 3L43 3L43 4L42 4L42 2L43 2L43 0L41 0L41 1L40 1L40 0L39 0L39 1L38 1L38 0L37 0L37 1L38 1L38 2L39 2L39 3L41 3L41 4L40 4L40 5L39 5L39 6L38 6L38 4L37 4L37 3L36 3L36 0L35 0L35 1L33 1L33 2L32 2L32 0L30 0L30 1L29 1L29 0L27 0L27 1L26 1L26 0L23 0L23 2L22 2L22 0L21 0L21 1L20 1L20 0L18 0L18 1L17 1L17 2L18 2L18 1L20 1L20 2L22 2L22 3L23 3L23 4L24 4L24 5L23 5L23 6L22 6L22 7L21 7L21 5L22 5L22 4L19 4L19 3L18 3L18 4L17 4L17 6L16 6L16 7L15 7L15 5L16 5L16 4L15 4L15 5L13 5L13 4L14 4L14 2L15 2L15 3L16 3L16 2L15 2L15 1L14 1L14 0L13 0L13 1L14 1L14 2L12 2L12 0ZM25 1L25 2L23 2L23 3L26 3L26 4L25 4L25 8L26 8L26 4L29 4L29 3L27 3L27 2L29 2L29 1L27 1L27 2L26 2L26 1ZM30 1L30 2L31 2L31 3L30 3L30 4L31 4L31 8L32 8L32 10L31 10L31 11L30 11L30 10L29 10L29 9L28 9L28 10L29 10L29 12L28 12L28 13L27 13L27 14L26 14L26 17L25 17L25 15L24 15L24 16L23 16L23 15L21 15L21 13L22 13L22 14L24 14L24 13L26 13L26 12L27 12L27 11L26 11L26 12L25 12L25 10L23 10L23 12L24 12L24 13L22 13L22 12L21 12L21 11L22 11L22 10L21 10L21 9L23 9L23 8L24 8L24 6L23 6L23 7L22 7L22 8L19 8L19 7L20 7L20 5L19 5L19 4L18 4L18 6L17 6L17 7L16 7L16 8L17 8L17 7L18 7L18 8L19 8L19 9L20 9L20 10L19 10L19 11L20 11L20 12L19 12L19 13L20 13L20 14L19 14L19 15L20 15L20 16L19 16L19 17L20 17L20 18L22 18L22 17L25 17L25 18L26 18L26 20L25 20L25 21L24 21L24 20L22 20L22 21L21 21L21 19L20 19L20 21L18 21L18 18L17 18L17 17L15 17L15 16L14 16L14 15L13 15L13 14L15 14L15 13L16 13L16 16L17 16L17 13L18 13L18 12L17 12L17 11L18 11L18 10L17 10L17 9L15 9L15 7L14 7L14 6L13 6L13 7L12 7L12 5L11 5L11 7L10 7L10 10L12 10L12 12L11 12L11 11L9 11L9 12L8 12L8 10L7 10L7 11L4 11L4 12L8 12L8 13L9 13L9 14L10 14L10 15L8 15L8 14L7 14L7 13L6 13L6 14L7 14L7 15L6 15L6 16L7 16L7 17L5 17L5 16L4 16L4 15L5 15L5 13L4 13L4 14L3 14L3 15L2 15L2 17L1 17L1 18L4 18L4 19L3 19L3 22L2 22L2 23L3 23L3 24L4 24L4 20L5 20L5 19L6 19L6 20L7 20L7 21L5 21L5 22L7 22L7 23L6 23L6 24L7 24L7 25L3 25L3 26L7 26L7 25L8 25L8 24L9 24L9 28L11 28L11 26L10 26L10 23L11 23L11 24L12 24L12 25L13 25L13 26L14 26L14 29L16 29L16 31L15 31L15 30L13 30L13 27L12 27L12 31L11 31L11 29L10 29L10 32L9 32L9 31L6 31L6 32L5 32L5 33L4 33L4 34L5 34L5 33L6 33L6 34L8 34L8 33L14 33L14 34L13 34L13 35L14 35L14 34L16 34L16 35L17 35L17 36L18 36L18 34L19 34L19 35L20 35L20 36L19 36L19 37L21 37L21 40L20 40L20 42L19 42L19 41L18 41L18 42L19 42L19 43L20 43L20 44L19 44L19 45L20 45L20 44L21 44L21 45L22 45L22 46L23 46L23 47L24 47L24 46L23 46L23 45L22 45L22 44L21 44L21 43L22 43L22 42L23 42L23 40L24 40L24 41L25 41L25 43L24 43L24 45L25 45L25 48L24 48L24 49L26 49L26 48L27 48L27 47L28 47L28 48L29 48L29 47L28 47L28 46L30 46L30 44L31 44L31 45L32 45L32 46L31 46L31 47L32 47L32 46L35 46L35 47L33 47L33 48L32 48L32 49L31 49L31 50L32 50L32 51L33 51L33 50L32 50L32 49L33 49L33 48L36 48L36 47L37 47L37 46L35 46L35 45L34 45L34 43L35 43L35 44L36 44L36 43L37 43L37 42L35 42L35 40L38 40L38 42L39 42L39 41L41 41L41 40L43 40L43 41L44 41L44 42L43 42L43 44L44 44L44 45L45 45L45 46L44 46L44 47L43 47L43 46L41 46L41 44L42 44L42 42L41 42L41 43L39 43L39 45L38 45L38 46L39 46L39 47L38 47L38 48L37 48L37 49L38 49L38 50L36 50L36 52L37 52L37 53L38 53L38 54L37 54L37 56L39 56L39 55L38 55L38 54L40 54L40 53L42 53L42 52L43 52L43 51L42 51L42 50L41 50L41 48L42 48L42 49L43 49L43 50L44 50L44 51L45 51L45 52L44 52L44 53L43 53L43 54L44 54L44 53L45 53L45 54L46 54L46 55L47 55L47 53L48 53L48 50L47 50L47 49L48 49L48 48L49 48L49 47L48 47L48 46L49 46L49 45L50 45L50 43L51 43L51 45L52 45L52 46L50 46L50 47L52 47L52 48L53 48L53 49L54 49L54 48L53 48L53 47L55 47L55 46L56 46L56 43L55 43L55 44L54 44L54 45L52 45L52 44L53 44L53 43L54 43L54 42L53 42L53 41L51 41L51 42L50 42L50 43L47 43L47 45L45 45L45 44L46 44L46 43L45 43L45 42L48 42L48 41L49 41L49 38L48 38L48 37L49 37L49 36L50 36L50 35L52 35L52 37L50 37L50 39L51 39L51 38L52 38L52 39L53 39L53 35L55 35L55 34L56 34L56 32L54 32L54 33L52 33L52 32L53 32L53 31L51 31L51 33L52 33L52 34L50 34L50 31L48 31L48 30L47 30L47 29L46 29L46 30L47 30L47 31L48 31L48 32L43 32L43 30L44 30L44 31L45 31L45 30L44 30L44 29L45 29L45 28L46 28L46 27L47 27L47 28L48 28L48 27L47 27L47 26L48 26L48 25L49 25L49 24L51 24L51 25L50 25L50 26L53 26L53 27L54 27L54 26L53 26L53 25L55 25L55 24L51 24L51 23L50 23L50 22L51 22L51 21L49 21L49 22L47 22L47 21L48 21L48 20L49 20L49 19L52 19L52 18L51 18L51 17L53 17L53 18L55 18L55 17L54 17L54 16L53 16L53 15L50 15L50 14L51 14L51 12L50 12L50 11L49 11L49 10L47 10L47 7L46 7L46 5L47 5L47 3L44 3L44 6L43 6L43 7L42 7L42 5L40 5L40 6L39 6L39 9L38 9L38 6L37 6L37 7L36 7L36 5L37 5L37 4L36 4L36 5L35 5L35 4L33 4L33 3L35 3L35 2L33 2L33 3L32 3L32 2L31 2L31 1ZM11 2L11 4L13 4L13 3L12 3L12 2ZM31 3L31 4L32 4L32 5L33 5L33 6L32 6L32 7L33 7L33 9L34 9L34 8L35 8L35 9L37 9L37 10L36 10L36 12L35 12L35 13L36 13L36 14L33 14L33 13L34 13L34 12L33 12L33 13L32 13L32 12L31 12L31 13L30 13L30 14L29 14L29 13L28 13L28 14L29 14L29 16L28 16L28 15L27 15L27 16L28 16L28 17L26 17L26 18L28 18L28 19L30 19L30 18L31 18L31 17L32 17L32 18L33 18L33 19L31 19L31 20L29 20L29 21L25 21L25 22L26 22L26 23L25 23L25 24L24 24L24 23L22 23L22 22L24 22L24 21L22 21L22 22L21 22L21 23L22 23L22 24L19 24L19 23L20 23L20 22L18 22L18 21L16 21L16 18L15 18L15 17L14 17L14 16L13 16L13 15L12 15L12 14L13 14L13 13L15 13L15 11L17 11L17 10L13 10L13 9L14 9L14 8L13 8L13 9L12 9L12 7L11 7L11 9L12 9L12 10L13 10L13 11L14 11L14 12L13 12L13 13L11 13L11 12L10 12L10 14L11 14L11 17L10 17L10 16L9 16L9 18L6 18L6 19L9 19L9 20L11 20L11 21L9 21L9 22L8 22L8 23L9 23L9 22L11 22L11 23L13 23L13 25L14 25L14 26L15 26L15 27L16 27L16 26L15 26L15 25L16 25L16 24L17 24L17 25L22 25L22 26L21 26L21 27L22 27L22 26L24 26L24 27L25 27L25 28L24 28L24 29L23 29L23 31L20 31L20 32L16 32L16 33L17 33L17 34L18 34L18 33L19 33L19 34L20 34L20 33L21 33L21 34L22 34L22 33L21 33L21 32L25 32L25 33L23 33L23 34L24 34L24 36L23 36L23 35L21 35L21 36L23 36L23 37L24 37L24 38L23 38L23 39L24 39L24 40L25 40L25 37L26 37L26 39L27 39L27 40L28 40L28 41L26 41L26 42L28 42L28 41L29 41L29 43L25 43L25 44L27 44L27 45L26 45L26 47L27 47L27 45L28 45L28 44L29 44L29 43L31 43L31 44L33 44L33 43L34 43L34 42L33 42L33 41L32 41L32 40L30 40L30 41L29 41L29 40L28 40L28 39L27 39L27 38L28 38L28 37L27 37L27 35L26 35L26 34L27 34L27 33L26 33L26 32L27 32L27 31L29 31L29 32L28 32L28 33L29 33L29 34L30 34L30 36L29 36L29 37L31 37L31 38L29 38L29 39L33 39L33 40L35 40L35 39L37 39L37 38L38 38L38 37L37 37L37 36L38 36L38 33L37 33L37 32L35 32L35 34L37 34L37 36L35 36L35 35L34 35L34 36L35 36L35 39L34 39L34 38L33 38L33 37L32 37L32 36L33 36L33 33L34 33L34 32L33 32L33 33L32 33L32 31L31 31L31 29L32 29L32 28L31 28L31 26L32 26L32 27L33 27L33 28L35 28L35 29L38 29L38 28L40 28L40 27L36 27L36 26L34 26L34 27L33 27L33 26L32 26L32 24L33 24L33 25L37 25L37 26L38 26L38 24L41 24L41 25L39 25L39 26L41 26L41 28L42 28L42 26L43 26L43 27L44 27L44 28L43 28L43 29L41 29L41 30L43 30L43 29L44 29L44 28L45 28L45 27L44 27L44 26L43 26L43 25L44 25L44 24L41 24L41 23L44 23L44 20L45 20L45 21L47 21L47 20L46 20L46 19L47 19L47 18L50 18L50 17L49 17L49 16L50 16L50 15L49 15L49 14L50 14L50 12L49 12L49 11L48 11L48 12L49 12L49 13L47 13L47 14L45 14L45 13L44 13L44 12L43 12L43 13L41 13L41 14L43 14L43 13L44 13L44 15L42 15L42 16L41 16L41 15L39 15L39 14L38 14L38 13L40 13L40 12L41 12L41 11L45 11L45 12L47 12L47 10L46 10L46 9L44 9L44 8L45 8L45 6L44 6L44 7L43 7L43 9L40 9L40 10L38 10L38 9L37 9L37 8L35 8L35 5L33 5L33 4L32 4L32 3ZM45 4L45 5L46 5L46 4ZM27 5L27 8L30 8L30 5ZM18 6L18 7L19 7L19 6ZM28 6L28 7L29 7L29 6ZM33 6L33 7L34 7L34 6ZM40 6L40 7L41 7L41 6ZM48 8L48 9L49 9L49 8ZM51 8L51 9L52 9L52 8ZM53 8L53 9L54 9L54 8ZM55 8L55 9L56 9L56 8ZM43 9L43 10L44 10L44 9ZM32 10L32 11L33 11L33 10ZM37 10L37 11L38 11L38 10ZM45 10L45 11L46 11L46 10ZM2 11L2 12L1 12L1 13L3 13L3 11ZM39 11L39 12L40 12L40 11ZM16 12L16 13L17 13L17 12ZM52 12L52 13L53 13L53 14L54 14L54 15L55 15L55 14L56 14L56 13L55 13L55 12L54 12L54 13L53 13L53 12ZM31 13L31 14L30 14L30 15L31 15L31 16L32 16L32 17L33 17L33 18L35 18L35 19L36 19L36 20L37 20L37 21L38 21L38 23L37 23L37 24L38 24L38 23L40 23L40 22L39 22L39 21L42 21L42 20L39 20L39 21L38 21L38 19L39 19L39 17L41 17L41 16L39 16L39 15L38 15L38 14L37 14L37 15L35 15L35 16L33 16L33 15L31 15L31 14L32 14L32 13ZM54 13L54 14L55 14L55 13ZM44 15L44 18L43 18L43 20L44 20L44 18L45 18L45 19L46 19L46 18L47 18L47 16L46 16L46 17L45 17L45 15ZM48 15L48 16L49 16L49 15ZM12 16L12 17L11 17L11 19L12 19L12 20L13 20L13 21L14 21L14 23L15 23L15 24L14 24L14 25L15 25L15 24L16 24L16 23L15 23L15 22L16 22L16 21L15 21L15 18L14 18L14 17L13 17L13 16ZM20 16L20 17L22 17L22 16ZM35 16L35 17L37 17L37 18L38 18L38 17L39 17L39 16L38 16L38 17L37 17L37 16ZM42 16L42 17L43 17L43 16ZM9 18L9 19L10 19L10 18ZM12 18L12 19L13 19L13 20L14 20L14 19L13 19L13 18ZM23 18L23 19L24 19L24 18ZM41 18L41 19L42 19L42 18ZM1 19L1 20L2 20L2 19ZM33 19L33 20L32 20L32 21L31 21L31 22L30 22L30 21L29 21L29 22L28 22L28 23L29 23L29 24L25 24L25 25L26 25L26 26L25 26L25 27L26 27L26 26L30 26L30 25L29 25L29 24L32 24L32 23L33 23L33 22L34 22L34 23L35 23L35 20L34 20L34 19ZM29 22L29 23L30 23L30 22ZM45 22L45 25L48 25L48 24L46 24L46 23L47 23L47 22ZM17 23L17 24L18 24L18 23ZM1 24L1 25L2 25L2 24ZM22 24L22 25L23 25L23 24ZM1 26L1 27L2 27L2 26ZM17 26L17 27L18 27L18 26ZM19 26L19 29L18 29L18 28L16 28L16 29L18 29L18 31L19 31L19 30L20 30L20 29L22 29L22 28L20 28L20 26ZM3 27L3 28L4 28L4 27ZM5 27L5 30L8 30L8 27ZM27 27L27 30L30 30L30 27ZM35 27L35 28L36 28L36 27ZM49 27L49 30L52 30L52 27ZM6 28L6 29L7 29L7 28ZM25 28L25 29L26 29L26 28ZM28 28L28 29L29 29L29 28ZM50 28L50 29L51 29L51 28ZM54 28L54 29L53 29L53 30L54 30L54 31L55 31L55 28ZM39 29L39 30L38 30L38 32L39 32L39 30L40 30L40 29ZM33 30L33 31L36 31L36 30ZM13 31L13 32L15 32L15 31ZM25 31L25 32L26 32L26 31ZM30 31L30 32L29 32L29 33L31 33L31 35L32 35L32 33L31 33L31 31ZM6 32L6 33L8 33L8 32ZM41 32L41 33L39 33L39 34L40 34L40 35L39 35L39 37L40 37L40 38L43 38L43 37L44 37L44 38L45 38L45 39L43 39L43 40L45 40L45 41L47 41L47 39L48 39L48 38L47 38L47 39L46 39L46 38L45 38L45 37L46 37L46 36L48 36L48 35L50 35L50 34L48 34L48 35L47 35L47 34L45 34L45 35L44 35L44 33L43 33L43 32ZM48 32L48 33L49 33L49 32ZM25 33L25 34L26 34L26 33ZM54 33L54 34L55 34L55 33ZM42 34L42 35L43 35L43 36L40 36L40 37L43 37L43 36L44 36L44 37L45 37L45 36L46 36L46 35L45 35L45 36L44 36L44 35L43 35L43 34ZM52 34L52 35L53 35L53 34ZM3 35L3 36L4 36L4 37L5 37L5 36L8 36L8 37L6 37L6 38L5 38L5 39L6 39L6 40L5 40L5 41L6 41L6 42L5 42L5 43L3 43L3 44L5 44L5 45L4 45L4 46L3 46L3 47L5 47L5 46L7 46L7 45L6 45L6 44L7 44L7 43L8 43L8 44L9 44L9 45L10 45L10 43L9 43L9 42L12 42L12 40L11 40L11 41L10 41L10 40L9 40L9 41L8 41L8 40L7 40L7 39L6 39L6 38L8 38L8 39L9 39L9 38L8 38L8 37L9 37L9 36L8 36L8 35ZM55 36L55 37L54 37L54 38L55 38L55 37L56 37L56 36ZM38 39L38 40L39 40L39 39ZM6 40L6 41L7 41L7 40ZM21 41L21 42L22 42L22 41ZM31 41L31 42L32 42L32 43L33 43L33 42L32 42L32 41ZM6 42L6 43L5 43L5 44L6 44L6 43L7 43L7 42ZM51 42L51 43L53 43L53 42ZM12 44L12 46L13 46L13 47L14 47L14 46L15 46L15 44L14 44L14 45L13 45L13 44ZM48 44L48 45L47 45L47 46L45 46L45 48L46 48L46 49L47 49L47 48L48 48L48 47L47 47L47 46L48 46L48 45L49 45L49 44ZM40 46L40 47L39 47L39 48L38 48L38 49L39 49L39 48L41 48L41 46ZM42 47L42 48L43 48L43 49L44 49L44 50L45 50L45 49L44 49L44 48L43 48L43 47ZM46 47L46 48L47 48L47 47ZM55 48L55 50L54 50L54 51L55 51L55 52L56 52L56 51L55 51L55 50L56 50L56 48ZM27 49L27 52L30 52L30 49ZM49 49L49 52L52 52L52 49ZM21 50L21 51L22 51L22 53L24 53L24 52L26 52L26 50ZM28 50L28 51L29 51L29 50ZM38 50L38 51L37 51L37 52L38 52L38 53L39 53L39 52L38 52L38 51L40 51L40 52L42 52L42 51L41 51L41 50ZM50 50L50 51L51 51L51 50ZM12 51L12 54L11 54L11 55L12 55L12 54L13 54L13 53L14 53L14 51ZM16 51L16 53L15 53L15 54L16 54L16 53L17 53L17 51ZM18 51L18 52L20 52L20 51ZM46 51L46 52L45 52L45 53L47 53L47 51ZM53 52L53 53L54 53L54 52ZM17 54L17 55L18 55L18 54ZM41 54L41 55L42 55L42 54ZM50 55L50 56L51 56L51 55ZM43 56L43 57L44 57L44 56ZM0 0L0 7L7 7L7 0ZM1 1L1 6L6 6L6 1ZM2 2L2 5L5 5L5 2ZM50 0L50 7L57 7L57 0ZM51 1L51 6L56 6L56 1ZM52 2L52 5L55 5L55 2ZM0 50L0 57L7 57L7 50ZM1 51L1 56L6 56L6 51ZM2 52L2 55L5 55L5 52Z" fill="#000000"/></g></g></svg>
