<?xml version="1.0" encoding="UTF-8"?>
<svg xmlns="http://www.w3.org/2000/svg" version="1.1" width="300" height="300" viewBox="0 0 300 300"><rect x="0" y="0" width="300" height="300" fill="#fefefe"/><g transform="scale(4.615)"><g transform="translate(4,4)"><path fill-rule="evenodd" d="M11 0L11 2L12 2L12 3L13 3L13 4L10 4L10 3L8 3L8 4L9 4L9 5L8 5L8 7L9 7L9 5L10 5L10 7L11 7L11 10L10 10L10 8L6 8L6 9L5 9L5 8L0 8L0 9L1 9L1 10L0 10L0 11L1 11L1 12L0 12L0 14L1 14L1 15L2 15L2 13L1 13L1 12L2 12L2 11L3 11L3 12L4 12L4 13L3 13L3 15L4 15L4 16L0 16L0 19L2 19L2 21L0 21L0 22L1 22L1 23L2 23L2 21L3 21L3 25L2 25L2 26L3 26L3 27L4 27L4 28L2 28L2 27L1 27L1 25L0 25L0 29L1 29L1 28L2 28L2 29L3 29L3 30L2 30L2 33L1 33L1 32L0 32L0 33L1 33L1 34L0 34L0 35L1 35L1 36L0 36L0 37L1 37L1 40L4 40L4 41L0 41L0 42L3 42L3 44L5 44L5 43L4 43L4 41L5 41L5 42L6 42L6 43L8 43L8 44L6 44L6 45L10 45L10 43L11 43L11 45L12 45L12 46L13 46L13 45L15 45L15 44L16 44L16 45L17 45L17 47L19 47L19 48L16 48L16 49L19 49L19 50L17 50L17 51L18 51L18 52L17 52L17 53L16 53L16 51L15 51L15 50L14 50L14 51L13 51L13 50L12 50L12 49L15 49L15 48L13 48L13 47L12 47L12 49L11 49L11 50L12 50L12 51L13 51L13 52L14 52L14 53L16 53L16 54L14 54L14 55L13 55L13 54L12 54L12 56L13 56L13 57L15 57L15 55L16 55L16 56L17 56L17 57L19 57L19 55L20 55L20 54L19 54L19 55L17 55L17 53L20 53L20 52L21 52L21 51L22 51L22 50L25 50L25 49L26 49L26 52L24 52L24 53L23 53L23 54L21 54L21 55L23 55L23 56L24 56L24 57L26 57L26 56L27 56L27 57L29 57L29 56L30 56L30 57L31 57L31 56L35 56L35 57L39 57L39 56L37 56L37 54L38 54L38 55L40 55L40 56L42 56L42 55L43 55L43 57L44 57L44 54L45 54L45 57L47 57L47 55L48 55L48 57L49 57L49 56L50 56L50 57L52 57L52 55L51 55L51 53L52 53L52 54L53 54L53 55L54 55L54 56L53 56L53 57L54 57L54 56L55 56L55 57L56 57L56 56L55 56L55 55L54 55L54 54L53 54L53 52L54 52L54 53L55 53L55 52L56 52L56 50L57 50L57 48L56 48L56 46L57 46L57 43L56 43L56 42L55 42L55 41L53 41L53 40L55 40L55 39L57 39L57 36L56 36L56 33L57 33L57 32L56 32L56 30L57 30L57 29L56 29L56 28L57 28L57 27L56 27L56 26L57 26L57 25L56 25L56 22L57 22L57 21L56 21L56 20L57 20L57 19L56 19L56 16L57 16L57 15L56 15L56 14L57 14L57 12L56 12L56 14L55 14L55 15L53 15L53 13L54 13L54 12L55 12L55 11L56 11L56 10L54 10L54 11L53 11L53 9L54 9L54 8L53 8L53 9L52 9L52 8L51 8L51 9L52 9L52 11L50 11L50 8L49 8L49 6L48 6L48 7L47 7L47 5L48 5L48 0L45 0L45 2L44 2L44 3L41 3L41 2L43 2L43 0L41 0L41 1L40 1L40 0L39 0L39 1L38 1L38 0L37 0L37 1L38 1L38 2L39 2L39 3L38 3L38 4L37 4L37 3L36 3L36 0L35 0L35 1L33 1L33 2L32 2L32 3L31 3L31 4L26 4L26 3L23 3L23 2L28 2L28 3L29 3L29 1L30 1L30 2L31 2L31 1L32 1L32 0L28 0L28 1L26 1L26 0L23 0L23 2L22 2L22 3L23 3L23 4L24 4L24 5L23 5L23 6L22 6L22 4L19 4L19 2L20 2L20 3L21 3L21 2L20 2L20 0L19 0L19 2L17 2L17 1L15 1L15 0L14 0L14 2L13 2L13 1L12 1L12 0ZM21 0L21 1L22 1L22 0ZM8 1L8 2L9 2L9 1ZM46 1L46 2L47 2L47 1ZM14 2L14 4L13 4L13 7L14 7L14 6L15 6L15 7L16 7L16 8L14 8L14 10L15 10L15 13L13 13L13 12L14 12L14 11L12 11L12 10L11 10L11 12L10 12L10 10L9 10L9 9L6 9L6 10L5 10L5 9L3 9L3 11L6 11L6 12L5 12L5 13L4 13L4 15L5 15L5 16L8 16L8 17L4 17L4 20L9 20L9 19L10 19L10 20L11 20L11 21L10 21L10 23L13 23L13 24L16 24L16 25L14 25L14 26L15 26L15 27L13 27L13 25L11 25L11 26L10 26L10 27L9 27L9 28L10 28L10 29L12 29L12 30L13 30L13 31L11 31L11 30L10 30L10 31L11 31L11 32L9 32L9 33L6 33L6 32L8 32L8 31L3 31L3 32L5 32L5 34L8 34L8 35L9 35L9 33L10 33L10 34L11 34L11 35L10 35L10 36L9 36L9 37L8 37L8 38L9 38L9 42L8 42L8 41L6 41L6 42L8 42L8 43L10 43L10 41L11 41L11 42L12 42L12 43L13 43L13 44L14 44L14 43L15 43L15 42L17 42L17 43L18 43L18 42L19 42L19 45L20 45L20 46L19 46L19 47L20 47L20 50L19 50L19 51L20 51L20 50L21 50L21 49L23 49L23 47L26 47L26 48L29 48L29 45L30 45L30 46L31 46L31 45L32 45L32 47L31 47L31 48L32 48L32 49L31 49L31 53L30 53L30 54L27 54L27 53L26 53L26 54L25 54L25 53L24 53L24 54L23 54L23 55L24 55L24 56L26 56L26 54L27 54L27 56L29 56L29 55L30 55L30 56L31 56L31 54L32 54L32 53L33 53L33 54L34 54L34 55L35 55L35 56L36 56L36 54L35 54L35 51L33 51L33 52L32 52L32 50L36 50L36 52L37 52L37 53L38 53L38 54L40 54L40 53L41 53L41 52L40 52L40 51L38 51L38 50L41 50L41 51L42 51L42 50L41 50L41 48L42 48L42 49L43 49L43 50L47 50L47 53L45 53L45 52L44 52L44 53L43 53L43 54L44 54L44 53L45 53L45 54L48 54L48 50L47 50L47 49L48 49L48 48L49 48L49 47L51 47L51 48L52 48L52 47L53 47L53 46L54 46L54 45L55 45L55 46L56 46L56 43L55 43L55 44L54 44L54 45L53 45L53 43L54 43L54 42L53 42L53 41L51 41L51 42L50 42L50 43L48 43L48 44L47 44L47 45L45 45L45 44L46 44L46 43L45 43L45 44L44 44L44 42L48 42L48 41L49 41L49 39L51 39L51 38L52 38L52 40L53 40L53 39L54 39L54 38L53 38L53 35L55 35L55 34L54 34L54 33L56 33L56 32L54 32L54 31L55 31L55 30L53 30L53 32L54 32L54 33L52 33L52 32L51 32L51 33L52 33L52 34L50 34L50 32L49 32L49 31L48 31L48 29L46 29L46 30L47 30L47 31L46 31L46 33L45 33L45 32L43 32L43 31L44 31L44 30L45 30L45 28L46 28L46 27L47 27L47 28L48 28L48 26L47 26L47 24L49 24L49 23L50 23L50 26L53 26L53 27L54 27L54 26L53 26L53 23L55 23L55 22L56 22L56 21L55 21L55 20L56 20L56 19L55 19L55 20L53 20L53 19L52 19L52 17L53 17L53 18L55 18L55 17L53 17L53 15L50 15L50 14L51 14L51 12L50 12L50 11L49 11L49 12L45 12L45 11L46 11L46 10L47 10L47 11L48 11L48 10L47 10L47 9L49 9L49 8L46 8L46 5L47 5L47 3L44 3L44 6L43 6L43 5L40 5L40 4L41 4L41 3L39 3L39 4L38 4L38 5L37 5L37 4L36 4L36 5L35 5L35 2L33 2L33 3L32 3L32 4L31 4L31 8L32 8L32 10L31 10L31 11L29 11L29 12L28 12L28 13L26 13L26 12L27 12L27 11L26 11L26 12L25 12L25 11L24 11L24 12L23 12L23 13L22 13L22 12L20 12L20 11L22 11L22 10L24 10L24 9L25 9L25 8L26 8L26 4L25 4L25 8L24 8L24 6L23 6L23 8L19 8L19 9L16 9L16 8L17 8L17 7L18 7L18 6L19 6L19 7L20 7L20 5L19 5L19 4L18 4L18 3L17 3L17 2ZM15 4L15 5L16 5L16 4ZM17 4L17 6L16 6L16 7L17 7L17 6L18 6L18 4ZM32 4L32 5L33 5L33 4ZM45 4L45 5L46 5L46 4ZM11 5L11 7L12 7L12 5ZM27 5L27 8L30 8L30 5ZM34 5L34 7L33 7L33 6L32 6L32 7L33 7L33 9L34 9L34 8L35 8L35 9L37 9L37 10L36 10L36 11L35 11L35 14L32 14L32 12L33 12L33 13L34 13L34 12L33 12L33 10L32 10L32 11L31 11L31 13L30 13L30 14L29 14L29 13L28 13L28 14L29 14L29 16L28 16L28 15L27 15L27 14L26 14L26 13L25 13L25 12L24 12L24 13L23 13L23 14L22 14L22 13L21 13L21 14L20 14L20 12L19 12L19 10L20 10L20 9L19 9L19 10L18 10L18 11L17 11L17 12L16 12L16 13L15 13L15 14L14 14L14 16L13 16L13 17L12 17L12 16L11 16L11 15L13 15L13 13L11 13L11 15L10 15L10 16L9 16L9 13L8 13L8 14L6 14L6 13L7 13L7 12L9 12L9 10L8 10L8 11L7 11L7 10L6 10L6 11L7 11L7 12L6 12L6 13L5 13L5 14L6 14L6 15L8 15L8 16L9 16L9 18L8 18L8 19L9 19L9 18L10 18L10 16L11 16L11 18L13 18L13 17L14 17L14 18L15 18L15 17L16 17L16 13L17 13L17 17L19 17L19 18L18 18L18 19L21 19L21 18L20 18L20 16L19 16L19 15L23 15L23 16L25 16L25 17L22 17L22 16L21 16L21 17L22 17L22 18L24 18L24 19L23 19L23 20L24 20L24 21L22 21L22 22L21 22L21 23L23 23L23 24L24 24L24 25L22 25L22 26L21 26L21 27L20 27L20 25L21 25L21 24L17 24L17 22L18 22L18 21L20 21L20 20L17 20L17 19L15 19L15 21L16 21L16 22L14 22L14 21L13 21L13 23L16 23L16 24L17 24L17 25L19 25L19 27L20 27L20 28L19 28L19 29L18 29L18 28L16 28L16 29L15 29L15 32L16 32L16 33L14 33L14 34L13 34L13 32L14 32L14 31L13 31L13 32L12 32L12 34L13 34L13 35L11 35L11 37L10 37L10 39L11 39L11 37L12 37L12 38L13 38L13 37L12 37L12 36L14 36L14 37L15 37L15 38L14 38L14 39L12 39L12 41L13 41L13 42L14 42L14 41L16 41L16 39L15 39L15 38L16 38L16 37L15 37L15 36L17 36L17 37L18 37L18 38L17 38L17 39L18 39L18 40L17 40L17 41L19 41L19 42L20 42L20 45L21 45L21 46L20 46L20 47L23 47L23 46L25 46L25 44L27 44L27 45L26 45L26 47L27 47L27 45L29 45L29 44L30 44L30 45L31 45L31 44L33 44L33 43L34 43L34 45L36 45L36 46L33 46L33 47L32 47L32 48L33 48L33 49L34 49L34 48L33 48L33 47L36 47L36 48L35 48L35 49L36 49L36 50L38 50L38 49L39 49L39 48L41 48L41 46L43 46L43 45L44 45L44 47L47 47L47 48L45 48L45 49L47 49L47 48L48 48L48 47L49 47L49 46L48 46L48 47L47 47L47 46L45 46L45 45L44 45L44 44L43 44L43 42L44 42L44 40L45 40L45 41L47 41L47 39L48 39L48 38L47 38L47 39L43 39L43 41L42 41L42 40L41 40L41 39L42 39L42 38L43 38L43 37L44 37L44 38L45 38L45 37L46 37L46 35L44 35L44 33L43 33L43 32L41 32L41 33L39 33L39 34L40 34L40 35L39 35L39 37L40 37L40 38L41 38L41 39L39 39L39 38L38 38L38 37L37 37L37 36L38 36L38 33L37 33L37 32L35 32L35 34L37 34L37 36L35 36L35 35L31 35L31 34L32 34L32 30L31 30L31 29L32 29L32 28L31 28L31 26L32 26L32 27L33 27L33 28L35 28L35 30L33 30L33 32L34 32L34 31L35 31L35 30L37 30L37 29L38 29L38 28L39 28L39 27L37 27L37 28L35 28L35 27L36 27L36 26L34 26L34 27L33 27L33 26L32 26L32 24L33 24L33 25L37 25L37 26L38 26L38 25L40 25L40 26L43 26L43 25L44 25L44 24L42 24L42 25L40 25L40 24L41 24L41 22L42 22L42 23L44 23L44 20L46 20L46 19L47 19L47 22L46 22L46 21L45 21L45 22L46 22L46 23L45 23L45 25L46 25L46 23L47 23L47 22L49 22L49 21L51 21L51 22L50 22L50 23L51 23L51 24L52 24L52 23L53 23L53 22L54 22L54 21L51 21L51 20L52 20L52 19L49 19L49 18L50 18L50 17L49 17L49 16L50 16L50 15L49 15L49 14L50 14L50 12L49 12L49 13L47 13L47 14L44 14L44 11L45 11L45 10L46 10L46 9L44 9L44 8L45 8L45 6L44 6L44 8L43 8L43 9L41 9L41 10L43 10L43 13L41 13L41 14L43 14L43 15L42 15L42 16L41 16L41 15L39 15L39 14L38 14L38 13L40 13L40 12L41 12L41 11L40 11L40 9L39 9L39 6L40 6L40 7L41 7L41 6L40 6L40 5L39 5L39 6L38 6L38 9L37 9L37 8L35 8L35 5ZM36 5L36 7L37 7L37 5ZM21 6L21 7L22 7L22 6ZM28 6L28 7L29 7L29 6ZM42 6L42 7L43 7L43 6ZM23 8L23 9L24 9L24 8ZM55 8L55 9L56 9L56 8ZM15 9L15 10L16 10L16 9ZM21 9L21 10L22 10L22 9ZM27 9L27 10L29 10L29 9ZM38 9L38 10L37 10L37 11L39 11L39 12L40 12L40 11L39 11L39 9ZM43 9L43 10L44 10L44 9ZM1 10L1 11L2 11L2 10ZM17 12L17 13L18 13L18 12ZM52 12L52 13L53 13L53 12ZM18 14L18 15L19 15L19 14ZM23 14L23 15L24 15L24 14ZM25 14L25 15L26 15L26 18L27 18L27 19L26 19L26 20L25 20L25 21L24 21L24 22L23 22L23 23L24 23L24 24L25 24L25 25L26 25L26 26L25 26L25 27L23 27L23 26L22 26L22 27L21 27L21 28L22 28L22 29L19 29L19 30L18 30L18 29L16 29L16 30L18 30L18 31L17 31L17 32L18 32L18 31L20 31L20 32L21 32L21 33L20 33L20 34L18 34L18 33L16 33L16 34L14 34L14 35L17 35L17 36L18 36L18 35L19 35L19 37L21 37L21 38L24 38L24 37L23 37L23 36L24 36L24 34L23 34L23 33L25 33L25 34L26 34L26 33L27 33L27 35L26 35L26 36L25 36L25 38L26 38L26 36L27 36L27 37L28 37L28 38L27 38L27 39L28 39L28 41L27 41L27 40L26 40L26 39L25 39L25 40L24 40L24 39L21 39L21 40L19 40L19 41L20 41L20 42L21 42L21 43L22 43L22 42L23 42L23 43L24 43L24 44L25 44L25 43L27 43L27 42L32 42L32 43L33 43L33 42L34 42L34 43L37 43L37 42L35 42L35 40L38 40L38 42L39 42L39 41L41 41L41 40L38 40L38 38L37 38L37 39L35 39L35 37L33 37L33 36L32 36L32 37L33 37L33 39L29 39L29 38L31 38L31 37L29 37L29 36L30 36L30 34L29 34L29 33L31 33L31 31L30 31L30 32L29 32L29 33L28 33L28 32L26 32L26 31L25 31L25 30L23 30L23 28L25 28L25 29L26 29L26 28L25 28L25 27L26 27L26 26L27 26L27 25L29 25L29 26L30 26L30 25L29 25L29 24L32 24L32 23L35 23L35 20L34 20L34 21L33 21L33 20L32 20L32 21L31 21L31 22L30 22L30 23L29 23L29 20L31 20L31 18L32 18L32 19L33 19L33 18L35 18L35 19L36 19L36 20L37 20L37 19L39 19L39 17L41 17L41 16L39 16L39 15L38 15L38 14L36 14L36 15L35 15L35 16L31 16L31 18L30 18L30 19L29 19L29 20L27 20L27 19L28 19L28 18L27 18L27 17L28 17L28 16L27 16L27 15L26 15L26 14ZM30 14L30 15L31 15L31 14ZM44 15L44 18L43 18L43 19L42 19L42 18L41 18L41 20L38 20L38 23L37 23L37 24L40 24L40 22L39 22L39 21L43 21L43 20L44 20L44 18L45 18L45 19L46 19L46 18L47 18L47 19L48 19L48 18L47 18L47 17L48 17L48 16L49 16L49 15L48 15L48 16L47 16L47 15ZM14 16L14 17L15 17L15 16ZM35 16L35 17L37 17L37 18L38 18L38 17L39 17L39 16L38 16L38 17L37 17L37 16ZM42 16L42 17L43 17L43 16ZM46 16L46 17L45 17L45 18L46 18L46 17L47 17L47 16ZM1 17L1 18L2 18L2 17ZM32 17L32 18L33 18L33 17ZM5 18L5 19L7 19L7 18ZM11 19L11 20L12 20L12 19ZM13 19L13 20L14 20L14 19ZM16 20L16 21L17 21L17 20ZM4 21L4 22L7 22L7 23L6 23L6 24L5 24L5 23L4 23L4 26L7 26L7 25L6 25L6 24L8 24L8 25L9 25L9 24L8 24L8 23L9 23L9 22L7 22L7 21ZM11 21L11 22L12 22L12 21ZM25 21L25 22L26 22L26 23L25 23L25 24L28 24L28 23L27 23L27 22L28 22L28 21ZM19 22L19 23L20 23L20 22ZM55 25L55 26L56 26L56 25ZM16 26L16 27L18 27L18 26ZM44 26L44 28L43 28L43 29L41 29L41 30L43 30L43 29L44 29L44 28L45 28L45 26ZM5 27L5 30L8 30L8 27ZM10 27L10 28L11 28L11 27ZM27 27L27 30L30 30L30 27ZM41 27L41 28L42 28L42 27ZM49 27L49 30L52 30L52 27ZM55 27L55 28L54 28L54 29L55 29L55 28L56 28L56 27ZM6 28L6 29L7 29L7 28ZM28 28L28 29L29 29L29 28ZM50 28L50 29L51 29L51 28ZM13 29L13 30L14 30L14 29ZM39 29L39 30L38 30L38 32L39 32L39 30L40 30L40 29ZM21 31L21 32L23 32L23 31ZM47 31L47 32L48 32L48 33L49 33L49 32L48 32L48 31ZM25 32L25 33L26 33L26 32ZM3 33L3 34L2 34L2 36L1 36L1 37L2 37L2 36L3 36L3 34L4 34L4 33ZM21 33L21 34L20 34L20 36L23 36L23 35L21 35L21 34L22 34L22 33ZM42 34L42 36L44 36L44 37L45 37L45 36L44 36L44 35L43 35L43 34ZM49 34L49 35L50 35L50 36L51 36L51 37L52 37L52 35L53 35L53 34L52 34L52 35L50 35L50 34ZM4 35L4 37L5 37L5 39L4 39L4 38L2 38L2 39L4 39L4 40L7 40L7 39L6 39L6 38L7 38L7 37L6 37L6 36L7 36L7 35L6 35L6 36L5 36L5 35ZM40 36L40 37L41 37L41 38L42 38L42 37L41 37L41 36ZM49 37L49 38L50 38L50 37ZM19 38L19 39L20 39L20 38ZM14 39L14 40L15 40L15 39ZM33 39L33 40L35 40L35 39ZM30 40L30 41L32 41L32 42L33 42L33 41L32 41L32 40ZM23 41L23 42L25 42L25 41ZM26 41L26 42L27 42L27 41ZM41 42L41 43L40 43L40 44L39 44L39 45L38 45L38 46L39 46L39 47L38 47L38 48L37 48L37 49L38 49L38 48L39 48L39 47L40 47L40 45L41 45L41 44L42 44L42 42ZM51 42L51 43L50 43L50 45L51 45L51 43L53 43L53 42ZM0 43L0 48L5 48L5 47L7 47L7 48L6 48L6 49L7 49L7 48L8 48L8 51L9 51L9 49L10 49L10 48L11 48L11 46L10 46L10 48L9 48L9 47L8 47L8 46L5 46L5 47L3 47L3 46L4 46L4 45L1 45L1 44L2 44L2 43ZM17 44L17 45L18 45L18 44ZM21 44L21 45L22 45L22 46L23 46L23 45L22 45L22 44ZM48 44L48 45L49 45L49 44ZM1 46L1 47L2 47L2 46ZM15 46L15 47L16 47L16 46ZM36 46L36 47L37 47L37 46ZM51 46L51 47L52 47L52 46ZM42 47L42 48L43 48L43 49L44 49L44 48L43 48L43 47ZM24 48L24 49L25 49L25 48ZM53 48L53 49L55 49L55 50L54 50L54 51L55 51L55 50L56 50L56 48ZM27 49L27 52L30 52L30 49ZM49 49L49 52L52 52L52 49ZM28 50L28 51L29 51L29 50ZM50 50L50 51L51 51L51 50ZM14 51L14 52L15 52L15 51ZM37 51L37 52L38 52L38 51ZM8 52L8 57L11 57L11 56L9 56L9 55L10 55L10 54L11 54L11 52ZM33 52L33 53L34 53L34 52ZM9 53L9 54L10 54L10 53ZM41 54L41 55L42 55L42 54ZM50 55L50 56L51 56L51 55ZM20 56L20 57L21 57L21 56ZM0 0L0 7L7 7L7 0ZM1 1L1 6L6 6L6 1ZM2 2L2 5L5 5L5 2ZM50 0L50 7L57 7L57 0ZM51 1L51 6L56 6L56 1ZM52 2L52 5L55 5L55 2ZM0 50L0 57L7 57L7 50ZM1 51L1 56L6 56L6 51ZM2 52L2 55L5 55L5 52Z" fill="#000000"/></g></g></svg>
