<?xml version="1.0" encoding="UTF-8"?>
<svg xmlns="http://www.w3.org/2000/svg" version="1.1" width="300" height="300" viewBox="0 0 300 300"><rect x="0" y="0" width="300" height="300" fill="#fefefe"/><g transform="scale(4.615)"><g transform="translate(4,4)"><path fill-rule="evenodd" d="M8 0L8 1L9 1L9 0ZM10 0L10 2L11 2L11 0ZM17 0L17 1L15 1L15 3L17 3L17 4L19 4L19 5L15 5L15 4L14 4L14 3L13 3L13 1L12 1L12 5L11 5L11 6L10 6L10 7L9 7L9 6L8 6L8 7L9 7L9 8L8 8L8 10L10 10L10 12L9 12L9 13L10 13L10 12L11 12L11 13L12 13L12 14L9 14L9 15L7 15L7 14L8 14L8 13L7 13L7 12L6 12L6 11L7 11L7 10L6 10L6 11L5 11L5 10L4 10L4 8L0 8L0 9L2 9L2 10L1 10L1 11L0 11L0 13L1 13L1 14L2 14L2 13L1 13L1 12L2 12L2 10L4 10L4 12L3 12L3 13L4 13L4 12L6 12L6 13L7 13L7 14L6 14L6 15L5 15L5 14L4 14L4 16L3 16L3 15L2 15L2 16L0 16L0 19L1 19L1 18L3 18L3 19L4 19L4 20L0 20L0 24L1 24L1 23L4 23L4 24L5 24L5 25L7 25L7 26L4 26L4 25L3 25L3 26L4 26L4 27L2 27L2 28L1 28L1 27L0 27L0 29L1 29L1 30L0 30L0 32L1 32L1 34L0 34L0 37L3 37L3 38L1 38L1 39L0 39L0 41L1 41L1 43L0 43L0 48L5 48L5 47L8 47L8 48L6 48L6 49L8 49L8 50L9 50L9 53L8 53L8 57L10 57L10 56L11 56L11 57L14 57L14 55L15 55L15 56L16 56L16 57L18 57L18 56L17 56L17 55L18 55L18 53L17 53L17 54L16 54L16 53L15 53L15 52L14 52L14 51L12 51L12 49L11 49L11 48L13 48L13 46L14 46L14 45L13 45L13 44L14 44L14 43L15 43L15 45L17 45L17 46L20 46L20 45L21 45L21 46L22 46L22 47L21 47L21 48L23 48L23 49L22 49L22 50L21 50L21 49L19 49L19 48L17 48L17 47L16 47L16 46L15 46L15 47L14 47L14 48L17 48L17 49L19 49L19 50L18 50L18 51L19 51L19 55L20 55L20 56L21 56L21 57L23 57L23 54L25 54L25 55L24 55L24 56L26 56L26 54L27 54L27 53L29 53L29 54L31 54L31 55L30 55L30 56L31 56L31 57L32 57L32 55L34 55L34 56L33 56L33 57L36 57L36 55L38 55L38 57L41 57L41 56L42 56L42 57L43 57L43 55L44 55L44 56L45 56L45 57L46 57L46 54L47 54L47 56L48 56L48 57L51 57L51 54L52 54L52 53L54 53L54 54L53 54L53 56L52 56L52 57L55 57L55 56L54 56L54 55L55 55L55 54L56 54L56 52L57 52L57 51L56 51L56 52L55 52L55 50L57 50L57 48L56 48L56 49L55 49L55 50L53 50L53 49L54 49L54 47L52 47L52 48L51 48L51 45L50 45L50 46L49 46L49 43L50 43L50 42L51 42L51 44L52 44L52 45L53 45L53 46L55 46L55 47L57 47L57 45L56 45L56 46L55 46L55 44L52 44L52 43L53 43L53 42L54 42L54 43L56 43L56 44L57 44L57 43L56 43L56 42L57 42L57 40L56 40L56 41L55 41L55 42L54 42L54 41L53 41L53 40L55 40L55 38L56 38L56 39L57 39L57 38L56 38L56 36L57 36L57 34L56 34L56 33L57 33L57 31L56 31L56 30L57 30L57 27L56 27L56 24L54 24L54 23L57 23L57 21L56 21L56 22L53 22L53 20L50 20L50 18L49 18L49 20L48 20L48 21L47 21L47 19L48 19L48 17L47 17L47 16L48 16L48 14L47 14L47 15L46 15L46 16L44 16L44 15L43 15L43 14L46 14L46 13L44 13L44 12L43 12L43 11L44 11L44 9L43 9L43 5L45 5L45 4L44 4L44 3L45 3L45 1L44 1L44 2L42 2L42 3L41 3L41 4L39 4L39 3L38 3L38 2L37 2L37 1L38 1L38 0L37 0L37 1L36 1L36 0L35 0L35 1L34 1L34 2L35 2L35 3L33 3L33 2L30 2L30 1L31 1L31 0L29 0L29 2L30 2L30 3L31 3L31 4L28 4L28 1L27 1L27 4L26 4L26 1L25 1L25 0L23 0L23 1L25 1L25 2L24 2L24 3L23 3L23 2L22 2L22 0L21 0L21 1L18 1L18 0ZM32 0L32 1L33 1L33 0ZM39 0L39 1L40 1L40 2L41 2L41 1L43 1L43 0L41 0L41 1L40 1L40 0ZM46 0L46 1L47 1L47 2L46 2L46 3L47 3L47 5L46 5L46 7L45 7L45 6L44 6L44 7L45 7L45 9L47 9L47 10L45 10L45 11L47 11L47 12L48 12L48 11L49 11L49 15L50 15L50 16L51 16L51 18L52 18L52 19L56 19L56 18L55 18L55 17L57 17L57 15L54 15L54 14L53 14L53 13L54 13L54 10L53 10L53 9L55 9L55 13L56 13L56 11L57 11L57 10L56 10L56 9L57 9L57 8L56 8L56 9L55 9L55 8L52 8L52 10L53 10L53 13L52 13L52 12L51 12L51 10L50 10L50 8L49 8L49 6L48 6L48 7L47 7L47 5L48 5L48 0ZM17 1L17 3L18 3L18 1ZM35 1L35 2L36 2L36 1ZM8 2L8 5L10 5L10 4L11 4L11 3L9 3L9 2ZM19 2L19 4L20 4L20 5L21 5L21 4L22 4L22 5L23 5L23 3L22 3L22 2L21 2L21 3L20 3L20 2ZM32 3L32 4L31 4L31 5L32 5L32 6L31 6L31 9L32 9L32 10L30 10L30 11L29 11L29 9L28 9L28 10L26 10L26 11L25 11L25 13L24 13L24 12L23 12L23 11L21 11L21 12L19 12L19 11L20 11L20 10L21 10L21 8L23 8L23 9L22 9L22 10L23 10L23 9L26 9L26 6L25 6L25 5L26 5L26 4L24 4L24 6L23 6L23 7L22 7L22 6L21 6L21 7L20 7L20 6L19 6L19 7L20 7L20 10L18 10L18 9L19 9L19 8L18 8L18 6L17 6L17 7L16 7L16 6L15 6L15 5L14 5L14 4L13 4L13 5L14 5L14 6L13 6L13 7L12 7L12 6L11 6L11 7L12 7L12 8L13 8L13 10L12 10L12 9L11 9L11 8L9 8L9 9L11 9L11 10L12 10L12 11L11 11L11 12L13 12L13 10L14 10L14 11L15 11L15 15L16 15L16 16L17 16L17 17L18 17L18 18L17 18L17 19L16 19L16 18L15 18L15 17L14 17L14 18L11 18L11 16L12 16L12 17L13 17L13 15L14 15L14 13L13 13L13 14L12 14L12 15L11 15L11 16L10 16L10 15L9 15L9 17L8 17L8 16L7 16L7 15L6 15L6 16L4 16L4 17L5 17L5 18L4 18L4 19L5 19L5 20L7 20L7 21L5 21L5 22L7 22L7 23L6 23L6 24L7 24L7 25L8 25L8 22L9 22L9 19L8 19L8 20L7 20L7 19L5 19L5 18L7 18L7 17L8 17L8 18L9 18L9 17L10 17L10 19L15 19L15 20L14 20L14 23L16 23L16 24L15 24L15 25L13 25L13 26L14 26L14 27L13 27L13 29L11 29L11 25L12 25L12 22L13 22L13 20L12 20L12 21L10 21L10 23L11 23L11 24L10 24L10 27L9 27L9 28L10 28L10 29L11 29L11 33L13 33L13 34L14 34L14 35L13 35L13 36L14 36L14 38L12 38L12 41L11 41L11 36L12 36L12 34L11 34L11 36L9 36L9 35L10 35L10 34L9 34L9 35L6 35L6 34L8 34L8 33L9 33L9 32L10 32L10 30L9 30L9 31L8 31L8 32L7 32L7 31L6 31L6 32L5 32L5 31L4 31L4 28L3 28L3 30L1 30L1 32L2 32L2 35L1 35L1 36L2 36L2 35L3 35L3 36L4 36L4 39L5 39L5 38L7 38L7 39L6 39L6 40L7 40L7 41L6 41L6 42L5 42L5 41L4 41L4 40L3 40L3 39L2 39L2 40L1 40L1 41L2 41L2 40L3 40L3 42L2 42L2 43L1 43L1 47L2 47L2 46L3 46L3 47L5 47L5 45L6 45L6 46L7 46L7 45L8 45L8 47L11 47L11 46L12 46L12 45L11 45L11 44L12 44L12 41L17 41L17 45L19 45L19 43L18 43L18 41L19 41L19 42L21 42L21 44L22 44L22 46L24 46L24 49L23 49L23 50L22 50L22 51L21 51L21 52L22 52L22 53L20 53L20 55L21 55L21 56L22 56L22 55L21 55L21 54L22 54L22 53L23 53L23 52L24 52L24 53L25 53L25 52L26 52L26 51L24 51L24 50L26 50L26 48L27 48L27 47L29 47L29 48L31 48L31 47L33 47L33 48L32 48L32 49L31 49L31 53L32 53L32 51L33 51L33 52L34 52L34 53L36 53L36 54L34 54L34 55L36 55L36 54L37 54L37 51L36 51L36 52L34 52L34 51L35 51L35 49L34 49L34 46L35 46L35 48L37 48L37 49L36 49L36 50L37 50L37 49L38 49L38 48L39 48L39 49L40 49L40 50L39 50L39 52L40 52L40 54L41 54L41 53L42 53L42 54L43 54L43 52L40 52L40 51L43 51L43 50L44 50L44 49L46 49L46 50L47 50L47 52L48 52L48 48L47 48L47 47L46 47L46 46L48 46L48 47L49 47L49 46L48 46L48 43L47 43L47 42L50 42L50 41L52 41L52 40L53 40L53 39L52 39L52 38L55 38L55 37L53 37L53 36L52 36L52 35L51 35L51 36L49 36L49 37L48 37L48 35L49 35L49 34L50 34L50 33L49 33L49 32L50 32L50 31L49 31L49 32L48 32L48 29L47 29L47 32L46 32L46 31L44 31L44 33L45 33L45 36L44 36L44 37L42 37L42 38L44 38L44 39L45 39L45 40L46 40L46 38L49 38L49 39L47 39L47 40L50 40L50 41L47 41L47 42L45 42L45 41L43 41L43 40L42 40L42 39L41 39L41 40L40 40L40 41L37 41L37 40L38 40L38 39L39 39L39 38L38 38L38 39L37 39L37 37L39 37L39 36L40 36L40 37L41 37L41 36L43 36L43 35L44 35L44 34L43 34L43 35L42 35L42 34L41 34L41 35L37 35L37 37L35 37L35 36L36 36L36 35L34 35L34 36L32 36L32 35L33 35L33 32L34 32L34 34L35 34L35 32L34 32L34 31L33 31L33 29L32 29L32 31L31 31L31 33L32 33L32 35L31 35L31 34L30 34L30 35L29 35L29 33L30 33L30 31L28 31L28 33L27 33L27 34L28 34L28 35L29 35L29 36L27 36L27 37L26 37L26 35L25 35L25 34L26 34L26 33L25 33L25 34L24 34L24 35L23 35L23 33L24 33L24 32L27 32L27 31L24 31L24 30L26 30L26 28L23 28L23 27L22 27L22 26L19 26L19 25L17 25L17 23L19 23L19 22L22 22L22 21L21 21L21 20L22 20L22 19L23 19L23 21L24 21L24 22L25 22L25 25L24 25L24 24L21 24L21 23L20 23L20 24L21 24L21 25L23 25L23 26L24 26L24 27L25 27L25 25L27 25L27 24L26 24L26 23L28 23L28 26L31 26L31 25L29 25L29 23L30 23L30 20L29 20L29 19L28 19L28 18L29 18L29 17L30 17L30 19L32 19L32 20L31 20L31 23L32 23L32 22L33 22L33 24L32 24L32 25L33 25L33 24L35 24L35 23L36 23L36 24L37 24L37 22L35 22L35 21L34 21L34 19L35 19L35 20L36 20L36 21L37 21L37 20L36 20L36 19L38 19L38 20L40 20L40 19L39 19L39 18L41 18L41 19L42 19L42 18L43 18L43 21L44 21L44 22L47 22L47 21L45 21L45 20L46 20L46 18L45 18L45 17L42 17L42 14L43 14L43 12L42 12L42 11L43 11L43 10L42 10L42 11L40 11L40 10L39 10L39 9L38 9L38 11L37 11L37 8L36 8L36 9L34 9L34 6L35 6L35 7L36 7L36 6L37 6L37 7L38 7L38 8L41 8L41 9L42 9L42 8L41 8L41 7L42 7L42 6L41 6L41 7L40 7L40 5L38 5L38 6L37 6L37 5L36 5L36 4L34 4L34 5L33 5L33 3ZM37 3L37 4L38 4L38 3ZM41 4L41 5L43 5L43 4ZM27 5L27 8L30 8L30 5ZM14 6L14 7L13 7L13 8L14 8L14 7L15 7L15 6ZM24 6L24 7L23 7L23 8L24 8L24 7L25 7L25 6ZM28 6L28 7L29 7L29 6ZM32 6L32 8L33 8L33 6ZM38 6L38 7L39 7L39 6ZM46 7L46 8L47 8L47 9L48 9L48 8L47 8L47 7ZM6 8L6 9L7 9L7 8ZM15 8L15 11L16 11L16 13L17 13L17 12L18 12L18 13L19 13L19 14L20 14L20 17L21 17L21 18L22 18L22 17L21 17L21 13L19 13L19 12L18 12L18 10L17 10L17 11L16 11L16 8ZM17 8L17 9L18 9L18 8ZM33 10L33 11L30 11L30 12L31 12L31 13L32 13L32 12L33 12L33 14L30 14L30 13L28 13L28 12L26 12L26 13L25 13L25 14L23 14L23 18L24 18L24 19L25 19L25 22L28 22L28 23L29 23L29 20L27 20L27 19L26 19L26 18L24 18L24 17L29 17L29 16L31 16L31 17L33 17L33 19L34 19L34 18L35 18L35 17L34 17L34 16L35 16L35 15L36 15L36 14L37 14L37 15L39 15L39 17L40 17L40 16L41 16L41 14L40 14L40 11L38 11L38 12L35 12L35 11L36 11L36 10L35 10L35 11L34 11L34 10ZM22 12L22 13L23 13L23 12ZM34 12L34 14L33 14L33 15L35 15L35 14L36 14L36 13L35 13L35 12ZM50 12L50 13L51 13L51 16L52 16L52 17L53 17L53 18L54 18L54 17L55 17L55 16L52 16L52 15L53 15L53 14L52 14L52 13L51 13L51 12ZM16 14L16 15L17 15L17 14ZM25 14L25 15L26 15L26 16L27 16L27 14ZM39 14L39 15L40 15L40 14ZM18 15L18 16L19 16L19 15ZM28 15L28 16L29 16L29 15ZM31 15L31 16L32 16L32 15ZM2 16L2 17L3 17L3 16ZM6 16L6 17L7 17L7 16ZM36 17L36 18L37 18L37 17ZM41 17L41 18L42 18L42 17ZM44 18L44 19L45 19L45 18ZM17 19L17 20L16 20L16 23L17 23L17 21L18 21L18 22L19 22L19 21L18 21L18 19ZM19 19L19 20L21 20L21 19ZM26 20L26 21L27 21L27 20ZM41 20L41 21L42 21L42 20ZM49 20L49 24L50 24L50 25L53 25L53 27L55 27L55 25L54 25L54 24L53 24L53 23L52 23L52 22L51 22L51 21L50 21L50 20ZM54 20L54 21L55 21L55 20ZM7 21L7 22L8 22L8 21ZM38 21L38 22L39 22L39 21ZM42 22L42 23L43 23L43 22ZM40 23L40 24L38 24L38 25L41 25L41 23ZM44 23L44 25L42 25L42 26L45 26L45 29L44 29L44 28L43 28L43 27L42 27L42 28L43 28L43 29L42 29L42 30L41 30L41 31L40 31L40 30L39 30L39 29L38 29L38 30L36 30L36 29L37 29L37 28L34 28L34 29L35 29L35 30L36 30L36 31L37 31L37 32L36 32L36 33L37 33L37 32L38 32L38 34L39 34L39 31L40 31L40 32L41 32L41 31L43 31L43 30L46 30L46 26L49 26L49 25L47 25L47 24L48 24L48 23ZM45 24L45 26L46 26L46 24ZM0 25L0 26L1 26L1 25ZM15 25L15 27L16 27L16 25ZM34 25L34 27L35 27L35 25ZM17 26L17 27L19 27L19 28L18 28L18 29L19 29L19 28L20 28L20 29L21 29L21 30L24 30L24 29L21 29L21 28L20 28L20 27L19 27L19 26ZM38 26L38 27L39 27L39 28L40 28L40 29L41 29L41 27L40 27L40 26ZM5 27L5 30L8 30L8 27ZM27 27L27 30L30 30L30 27ZM32 27L32 28L33 28L33 27ZM47 27L47 28L48 28L48 27ZM49 27L49 30L52 30L52 27ZM6 28L6 29L7 29L7 28ZM15 28L15 29L14 29L14 32L13 32L13 31L12 31L12 32L13 32L13 33L14 33L14 34L15 34L15 35L14 35L14 36L17 36L17 37L18 37L18 38L19 38L19 40L20 40L20 41L21 41L21 42L22 42L22 44L23 44L23 45L24 45L24 46L25 46L25 45L26 45L26 46L27 46L27 45L29 45L29 43L31 43L31 44L30 44L30 46L32 46L32 42L33 42L33 45L34 45L34 44L35 44L35 45L36 45L36 46L37 46L37 47L38 47L38 45L41 45L41 46L40 46L40 47L43 47L43 49L44 49L44 48L46 48L46 47L45 47L45 45L42 45L42 43L44 43L44 44L47 44L47 43L44 43L44 42L42 42L42 41L41 41L41 42L37 42L37 44L38 44L38 45L36 45L36 43L34 43L34 42L36 42L36 41L34 41L34 40L35 40L35 39L36 39L36 38L35 38L35 39L33 39L33 38L34 38L34 37L33 37L33 38L32 38L32 36L29 36L29 38L25 38L25 39L24 39L24 37L25 37L25 36L23 36L23 35L22 35L22 33L23 33L23 32L24 32L24 31L22 31L22 32L21 32L21 36L23 36L23 39L24 39L24 41L25 41L25 42L23 42L23 41L22 41L22 39L21 39L21 38L20 38L20 37L19 37L19 36L20 36L20 35L18 35L18 36L17 36L17 34L18 34L18 33L17 33L17 34L15 34L15 33L16 33L16 30L17 30L17 28ZM28 28L28 29L29 29L29 28ZM50 28L50 29L51 29L51 28ZM53 28L53 32L52 32L52 34L54 34L54 33L55 33L55 30L56 30L56 29L55 29L55 30L54 30L54 28ZM15 29L15 30L16 30L16 29ZM18 30L18 31L17 31L17 32L19 32L19 34L20 34L20 31L19 31L19 30ZM38 30L38 31L39 31L39 30ZM2 31L2 32L3 32L3 31ZM4 32L4 33L3 33L3 34L6 34L6 33L7 33L7 32L6 32L6 33L5 33L5 32ZM42 32L42 33L43 33L43 32ZM47 34L47 35L48 35L48 34ZM4 35L4 36L5 36L5 37L7 37L7 36L6 36L6 35ZM54 35L54 36L55 36L55 35ZM45 36L45 38L46 38L46 36ZM51 36L51 38L52 38L52 36ZM9 37L9 38L10 38L10 37ZM15 38L15 40L16 40L16 39L17 39L17 38ZM30 38L30 39L28 39L28 40L27 40L27 39L25 39L25 41L26 41L26 40L27 40L27 41L28 41L28 40L29 40L29 42L25 42L25 43L26 43L26 45L27 45L27 43L29 43L29 42L31 42L31 40L33 40L33 39L32 39L32 38ZM7 39L7 40L8 40L8 42L6 42L6 43L8 43L8 45L9 45L9 46L11 46L11 45L9 45L9 43L10 43L10 44L11 44L11 43L10 43L10 42L11 42L11 41L10 41L10 42L9 42L9 40L10 40L10 39L9 39L9 40L8 40L8 39ZM13 39L13 40L14 40L14 39ZM50 39L50 40L51 40L51 39ZM4 42L4 43L2 43L2 44L4 44L4 45L5 45L5 44L4 44L4 43L5 43L5 42ZM13 42L13 43L14 43L14 42ZM15 42L15 43L16 43L16 42ZM23 43L23 44L24 44L24 43ZM38 43L38 44L40 44L40 43ZM6 44L6 45L7 45L7 44ZM25 47L25 48L26 48L26 47ZM9 48L9 50L10 50L10 51L11 51L11 52L10 52L10 53L9 53L9 56L10 56L10 54L12 54L12 55L14 55L14 52L12 52L12 51L11 51L11 50L10 50L10 48ZM41 48L41 49L42 49L42 48ZM13 49L13 50L14 50L14 49ZM15 49L15 50L16 50L16 51L17 51L17 50L16 50L16 49ZM27 49L27 52L30 52L30 49ZM32 49L32 50L34 50L34 49ZM49 49L49 52L52 52L52 49ZM28 50L28 51L29 51L29 50ZM50 50L50 51L51 51L51 50ZM22 51L22 52L23 52L23 51ZM45 51L45 52L46 52L46 51ZM54 52L54 53L55 53L55 52ZM12 53L12 54L13 54L13 53ZM38 53L38 54L39 54L39 53ZM48 53L48 54L50 54L50 53ZM44 54L44 55L45 55L45 54ZM27 55L27 56L28 56L28 55ZM39 55L39 56L40 56L40 55ZM56 55L56 56L57 56L57 55ZM0 0L0 7L7 7L7 0ZM1 1L1 6L6 6L6 1ZM2 2L2 5L5 5L5 2ZM50 0L50 7L57 7L57 0ZM51 1L51 6L56 6L56 1ZM52 2L52 5L55 5L55 2ZM0 50L0 57L7 57L7 50ZM1 51L1 56L6 56L6 51ZM2 52L2 55L5 55L5 52Z" fill="#000000"/></g></g></svg>
