<?xml version="1.0" encoding="UTF-8"?>
<svg xmlns="http://www.w3.org/2000/svg" version="1.1" width="300" height="300" viewBox="0 0 300 300"><rect x="0" y="0" width="300" height="300" fill="#fefefe"/><g transform="scale(4.615)"><g transform="translate(4,4)"><path fill-rule="evenodd" d="M10 0L10 1L8 1L8 2L10 2L10 3L13 3L13 4L11 4L11 6L10 6L10 7L9 7L9 5L10 5L10 4L9 4L9 3L8 3L8 4L9 4L9 5L8 5L8 7L9 7L9 8L6 8L6 9L7 9L7 10L5 10L5 8L0 8L0 10L1 10L1 9L3 9L3 11L4 11L4 14L5 14L5 11L7 11L7 10L8 10L8 11L10 11L10 10L11 10L11 12L12 12L12 13L15 13L15 14L13 14L13 15L12 15L12 14L11 14L11 15L10 15L10 14L8 14L8 12L6 12L6 13L7 13L7 14L6 14L6 15L2 15L2 16L1 16L1 17L0 17L0 19L1 19L1 20L0 20L0 22L1 22L1 21L2 21L2 24L1 24L1 25L0 25L0 29L1 29L1 30L0 30L0 32L1 32L1 33L0 33L0 34L1 34L1 33L2 33L2 32L3 32L3 34L2 34L2 36L0 36L0 37L1 37L1 39L4 39L4 38L5 38L5 40L6 40L6 41L8 41L8 42L9 42L9 41L10 41L10 43L9 43L9 44L10 44L10 43L11 43L11 45L10 45L10 46L8 46L8 45L7 45L7 44L5 44L5 43L7 43L7 42L5 42L5 41L4 41L4 40L1 40L1 41L4 41L4 42L2 42L2 43L3 43L3 44L1 44L1 42L0 42L0 44L1 44L1 45L0 45L0 48L5 48L5 47L7 47L7 46L8 46L8 48L6 48L6 49L8 49L8 51L9 51L9 52L8 52L8 57L10 57L10 56L11 56L11 57L13 57L13 55L14 55L14 56L15 56L15 57L16 57L16 56L17 56L17 57L20 57L20 56L19 56L19 55L20 55L20 54L19 54L19 55L18 55L18 56L17 56L17 53L20 53L20 52L21 52L21 51L22 51L22 52L23 52L23 51L22 51L22 50L25 50L25 51L26 51L26 52L24 52L24 53L23 53L23 54L22 54L22 55L23 55L23 56L24 56L24 57L26 57L26 56L24 56L24 55L23 55L23 54L24 54L24 53L25 53L25 55L26 55L26 53L27 53L27 54L30 54L30 53L31 53L31 51L32 51L32 52L33 52L33 51L32 51L32 50L33 50L33 49L36 49L36 50L35 50L35 51L34 51L34 52L35 52L35 54L36 54L36 56L35 56L35 55L33 55L33 53L32 53L32 54L31 54L31 56L30 56L30 55L29 55L29 56L27 56L27 57L29 57L29 56L30 56L30 57L31 57L31 56L35 56L35 57L39 57L39 56L37 56L37 55L40 55L40 56L41 56L41 57L44 57L44 54L45 54L45 57L49 57L49 56L50 56L50 57L52 57L52 55L51 55L51 53L52 53L52 54L53 54L53 52L54 52L54 53L55 53L55 51L56 51L56 52L57 52L57 51L56 51L56 50L57 50L57 48L56 48L56 46L57 46L57 44L56 44L56 41L55 41L55 39L57 39L57 36L56 36L56 35L53 35L53 34L52 34L52 33L54 33L54 34L57 34L57 32L56 32L56 30L57 30L57 28L56 28L56 26L57 26L57 25L56 25L56 22L57 22L57 20L56 20L56 18L57 18L57 17L56 17L56 16L57 16L57 15L56 15L56 14L57 14L57 12L56 12L56 8L55 8L55 10L54 10L54 11L52 11L52 10L51 10L51 11L50 11L50 12L49 12L49 10L50 10L50 8L49 8L49 9L48 9L48 7L49 7L49 6L48 6L48 7L47 7L47 5L48 5L48 0L45 0L45 1L47 1L47 2L44 2L44 3L43 3L43 4L40 4L40 5L39 5L39 6L38 6L38 9L37 9L37 8L35 8L35 5L36 5L36 7L37 7L37 5L38 5L38 4L37 4L37 3L36 3L36 0L35 0L35 1L33 1L33 2L32 2L32 3L31 3L31 0L29 0L29 1L30 1L30 2L29 2L29 4L26 4L26 3L23 3L23 4L22 4L22 0L21 0L21 1L20 1L20 0L17 0L17 1L15 1L15 0L14 0L14 2L12 2L12 1L13 1L13 0ZM23 0L23 2L28 2L28 1L26 1L26 0ZM37 0L37 1L38 1L38 2L39 2L39 3L41 3L41 2L43 2L43 0L41 0L41 1L40 1L40 0L39 0L39 1L38 1L38 0ZM17 1L17 2L14 2L14 4L13 4L13 5L12 5L12 6L11 6L11 9L12 9L12 10L17 10L17 11L18 11L18 10L19 10L19 13L20 13L20 14L19 14L19 15L20 15L20 18L22 18L22 17L26 17L26 18L27 18L27 19L26 19L26 20L25 20L25 21L24 21L24 20L23 20L23 19L24 19L24 18L23 18L23 19L22 19L22 20L20 20L20 21L19 21L19 22L20 22L20 23L18 23L18 22L17 22L17 24L16 24L16 23L15 23L15 22L16 22L16 21L17 21L17 20L18 20L18 19L19 19L19 18L18 18L18 17L16 17L16 16L18 16L18 15L17 15L17 13L18 13L18 12L17 12L17 13L16 13L16 12L15 12L15 13L16 13L16 16L14 16L14 15L13 15L13 16L14 16L14 17L13 17L13 18L12 18L12 17L10 17L10 20L9 20L9 19L8 19L8 18L7 18L7 17L6 17L6 16L7 16L7 15L8 15L8 14L7 14L7 15L6 15L6 16L5 16L5 17L4 17L4 16L2 16L2 17L1 17L1 18L2 18L2 20L3 20L3 19L4 19L4 21L3 21L3 25L2 25L2 26L4 26L4 23L5 23L5 22L7 22L7 23L6 23L6 24L7 24L7 25L6 25L6 26L7 26L7 25L8 25L8 26L10 26L10 27L9 27L9 29L10 29L10 30L9 30L9 31L6 31L6 32L9 32L9 31L10 31L10 30L13 30L13 31L14 31L14 30L15 30L15 29L16 29L16 30L17 30L17 32L19 32L19 33L18 33L18 34L19 34L19 35L17 35L17 33L16 33L16 32L15 32L15 33L16 33L16 34L11 34L11 35L10 35L10 36L13 36L13 35L14 35L14 36L15 36L15 37L16 37L16 38L15 38L15 39L16 39L16 41L15 41L15 40L14 40L14 41L13 41L13 40L11 40L11 43L12 43L12 44L13 44L13 45L12 45L12 48L11 48L11 46L10 46L10 47L9 47L9 48L8 48L8 49L12 49L12 50L13 50L13 51L11 51L11 50L10 50L10 51L11 51L11 52L13 52L13 51L14 51L14 52L15 52L15 51L16 51L16 53L14 53L14 54L16 54L16 53L17 53L17 52L18 52L18 51L19 51L19 52L20 52L20 51L19 51L19 50L17 50L17 49L16 49L16 48L18 48L18 47L17 47L17 45L18 45L18 44L17 44L17 45L16 45L16 43L15 43L15 42L17 42L17 43L18 43L18 42L19 42L19 41L18 41L18 42L17 42L17 36L19 36L19 37L18 37L18 38L19 38L19 39L20 39L20 38L19 38L19 37L21 37L21 39L22 39L22 40L20 40L20 42L21 42L21 43L20 43L20 44L19 44L19 45L20 45L20 48L19 48L19 49L20 49L20 50L21 50L21 49L23 49L23 47L25 47L25 48L24 48L24 49L25 49L25 50L26 50L26 49L25 49L25 48L30 48L30 47L29 47L29 46L31 46L31 48L32 48L32 49L31 49L31 50L32 50L32 49L33 49L33 47L32 47L32 45L33 45L33 46L36 46L36 45L34 45L34 43L35 43L35 44L36 44L36 43L37 43L37 42L35 42L35 40L38 40L38 42L39 42L39 41L41 41L41 40L44 40L44 41L43 41L43 44L44 44L44 45L43 45L43 46L41 46L41 48L39 48L39 47L40 47L40 46L39 46L39 45L41 45L41 44L42 44L42 42L41 42L41 43L39 43L39 45L38 45L38 46L39 46L39 47L38 47L38 48L37 48L37 49L38 49L38 50L36 50L36 52L37 52L37 51L38 51L38 50L41 50L41 52L40 52L40 51L39 51L39 52L38 52L38 53L37 53L37 54L40 54L40 53L41 53L41 52L42 52L42 50L41 50L41 48L42 48L42 49L43 49L43 50L44 50L44 51L45 51L45 52L44 52L44 53L43 53L43 54L44 54L44 53L45 53L45 54L48 54L48 50L47 50L47 49L48 49L48 48L49 48L49 47L48 47L48 46L47 46L47 45L48 45L48 44L50 44L50 45L49 45L49 46L50 46L50 48L51 48L51 47L52 47L52 48L53 48L53 47L54 47L54 45L55 45L55 46L56 46L56 45L55 45L55 44L54 44L54 45L52 45L52 44L53 44L53 43L54 43L54 42L53 42L53 41L51 41L51 42L50 42L50 43L49 43L49 42L48 42L48 41L49 41L49 39L51 39L51 38L53 38L53 39L55 39L55 37L53 37L53 35L52 35L52 34L50 34L50 32L51 32L51 33L52 33L52 32L54 32L54 33L56 33L56 32L54 32L54 31L55 31L55 30L53 30L53 31L50 31L50 32L49 32L49 31L48 31L48 29L46 29L46 30L47 30L47 31L45 31L45 32L43 32L43 30L44 30L44 29L45 29L45 28L46 28L46 27L48 27L48 25L50 25L50 26L52 26L52 25L55 25L55 24L50 24L50 22L51 22L51 21L53 21L53 23L55 23L55 22L56 22L56 20L53 20L53 19L52 19L52 20L51 20L51 21L49 21L49 20L46 20L46 19L48 19L48 18L47 18L47 15L46 15L46 17L45 17L45 15L44 15L44 14L41 14L41 13L43 13L43 11L44 11L44 13L45 13L45 14L47 14L47 13L49 13L49 12L48 12L48 10L47 10L47 8L45 8L45 7L46 7L46 6L45 6L45 4L46 4L46 5L47 5L47 3L44 3L44 6L43 6L43 5L40 5L40 6L39 6L39 9L38 9L38 10L37 10L37 9L35 9L35 8L34 8L34 9L33 9L33 7L34 7L34 5L35 5L35 3L32 3L32 4L31 4L31 3L30 3L30 4L31 4L31 8L32 8L32 10L31 10L31 11L30 11L30 10L29 10L29 9L28 9L28 10L27 10L27 11L26 11L26 12L25 12L25 10L23 10L23 8L24 8L24 6L23 6L23 5L24 5L24 4L23 4L23 5L22 5L22 4L21 4L21 3L20 3L20 1L19 1L19 4L17 4L17 2L18 2L18 1ZM15 4L15 5L14 5L14 7L15 7L15 9L17 9L17 10L18 10L18 9L19 9L19 10L20 10L20 13L21 13L21 15L23 15L23 16L26 16L26 17L27 17L27 18L28 18L28 19L27 19L27 20L28 20L28 19L29 19L29 20L30 20L30 18L33 18L33 19L31 19L31 21L29 21L29 23L28 23L28 24L29 24L29 25L30 25L30 26L26 26L26 25L25 25L25 24L27 24L27 22L28 22L28 21L25 21L25 22L26 22L26 23L25 23L25 24L24 24L24 23L23 23L23 22L24 22L24 21L22 21L22 22L21 22L21 24L17 24L17 25L18 25L18 26L17 26L17 27L18 27L18 26L19 26L19 27L20 27L20 25L21 25L21 27L22 27L22 26L23 26L23 31L20 31L20 30L19 30L19 29L22 29L22 28L19 28L19 29L18 29L18 28L16 28L16 29L18 29L18 31L19 31L19 32L20 32L20 33L19 33L19 34L20 34L20 33L21 33L21 35L20 35L20 36L23 36L23 37L24 37L24 38L22 38L22 39L24 39L24 40L23 40L23 41L24 41L24 42L22 42L22 41L21 41L21 42L22 42L22 43L21 43L21 44L22 44L22 45L21 45L21 47L23 47L23 46L25 46L25 45L23 45L23 43L25 43L25 44L27 44L27 45L26 45L26 47L28 47L28 46L27 46L27 45L28 45L28 44L29 44L29 43L32 43L32 44L30 44L30 45L32 45L32 44L33 44L33 43L34 43L34 42L33 42L33 41L32 41L32 40L29 40L29 43L28 43L28 44L27 44L27 43L25 43L25 41L24 41L24 40L25 40L25 37L26 37L26 40L28 40L28 39L27 39L27 38L28 38L28 37L27 37L27 34L26 34L26 35L25 35L25 33L23 33L23 34L22 34L22 33L21 33L21 32L23 32L23 31L24 31L24 32L25 32L25 31L26 31L26 33L27 33L27 31L29 31L29 32L28 32L28 33L29 33L29 34L30 34L30 36L29 36L29 37L31 37L31 38L29 38L29 39L33 39L33 40L35 40L35 39L37 39L37 38L38 38L38 37L37 37L37 36L38 36L38 33L37 33L37 32L34 32L34 31L36 31L36 30L32 30L32 28L31 28L31 26L32 26L32 27L33 27L33 28L35 28L35 29L38 29L38 28L40 28L40 27L36 27L36 26L34 26L34 27L33 27L33 26L32 26L32 24L33 24L33 25L37 25L37 26L38 26L38 25L40 25L40 24L41 24L41 22L42 22L42 24L43 24L43 25L41 25L41 26L43 26L43 27L44 27L44 28L43 28L43 29L41 29L41 30L43 30L43 29L44 29L44 28L45 28L45 27L46 27L46 26L43 26L43 25L44 25L44 20L45 20L45 19L46 19L46 18L44 18L44 15L42 15L42 16L41 16L41 15L39 15L39 14L38 14L38 13L40 13L40 12L41 12L41 11L40 11L40 10L39 10L39 11L37 11L37 10L36 10L36 12L35 12L35 14L33 14L33 13L34 13L34 12L33 12L33 13L32 13L32 11L33 11L33 10L32 10L32 11L31 11L31 13L30 13L30 14L29 14L29 13L28 13L28 12L29 12L29 11L27 11L27 12L26 12L26 13L28 13L28 14L29 14L29 16L28 16L28 15L27 15L27 14L26 14L26 15L23 15L23 14L22 14L22 13L24 13L24 14L25 14L25 13L24 13L24 11L23 11L23 10L22 10L22 9L21 9L21 10L20 10L20 9L19 9L19 8L22 8L22 7L23 7L23 6L22 6L22 7L21 7L21 4L19 4L19 5L20 5L20 7L19 7L19 6L18 6L18 5L17 5L17 6L16 6L16 7L15 7L15 5L16 5L16 4ZM25 4L25 8L26 8L26 4ZM32 4L32 5L34 5L34 4ZM36 4L36 5L37 5L37 4ZM27 5L27 8L30 8L30 5ZM12 6L12 7L13 7L13 6ZM17 6L17 7L16 7L16 8L17 8L17 9L18 9L18 8L19 8L19 7L18 7L18 6ZM28 6L28 7L29 7L29 6ZM32 6L32 7L33 7L33 6ZM40 6L40 7L41 7L41 8L42 8L42 9L41 9L41 10L42 10L42 11L43 11L43 10L44 10L44 11L45 11L45 12L47 12L47 10L46 10L46 9L45 9L45 10L44 10L44 7L45 7L45 6L44 6L44 7L43 7L43 6L42 6L42 7L41 7L41 6ZM13 8L13 9L14 9L14 8ZM51 8L51 9L52 9L52 8ZM53 8L53 9L54 9L54 8ZM21 10L21 11L22 11L22 10ZM45 10L45 11L46 11L46 10ZM12 11L12 12L14 12L14 11ZM39 11L39 12L40 12L40 11ZM2 12L2 13L0 13L0 15L1 15L1 14L2 14L2 13L3 13L3 12ZM9 12L9 13L10 13L10 12ZM21 12L21 13L22 13L22 12ZM50 12L50 14L49 14L49 15L48 15L48 16L49 16L49 15L50 15L50 14L51 14L51 12ZM52 12L52 13L53 13L53 14L54 14L54 15L55 15L55 14L56 14L56 12L54 12L54 13L53 13L53 12ZM31 13L31 14L30 14L30 15L31 15L31 14L32 14L32 13ZM36 13L36 14L37 14L37 15L35 15L35 16L31 16L31 17L33 17L33 18L35 18L35 19L34 19L34 20L35 20L35 19L36 19L36 20L37 20L37 19L39 19L39 17L41 17L41 16L39 16L39 15L38 15L38 14L37 14L37 13ZM9 15L9 16L8 16L8 17L9 17L9 16L10 16L10 15ZM11 15L11 16L12 16L12 15ZM26 15L26 16L27 16L27 17L28 17L28 16L27 16L27 15ZM21 16L21 17L22 17L22 16ZM35 16L35 17L37 17L37 18L38 18L38 17L39 17L39 16L38 16L38 17L37 17L37 16ZM42 16L42 17L43 17L43 16ZM50 16L50 19L51 19L51 18L56 18L56 17L53 17L53 16ZM3 17L3 18L4 18L4 19L5 19L5 20L6 20L6 21L7 21L7 22L10 22L10 24L9 24L9 23L8 23L8 24L9 24L9 25L10 25L10 26L11 26L11 25L13 25L13 26L12 26L12 27L11 27L11 28L10 28L10 29L11 29L11 28L12 28L12 29L13 29L13 30L14 30L14 29L13 29L13 28L15 28L15 27L16 27L16 26L15 26L15 25L13 25L13 24L14 24L14 23L13 23L13 24L12 24L12 22L10 22L10 21L7 21L7 20L8 20L8 19L7 19L7 18L6 18L6 17L5 17L5 18L4 18L4 17ZM14 17L14 18L15 18L15 21L16 21L16 20L17 20L17 19L18 19L18 18L17 18L17 19L16 19L16 18L15 18L15 17ZM5 18L5 19L6 19L6 20L7 20L7 19L6 19L6 18ZM41 18L41 20L39 20L39 21L38 21L38 22L37 22L37 24L40 24L40 22L39 22L39 21L43 21L43 20L44 20L44 18L43 18L43 19L42 19L42 18ZM12 19L12 20L11 20L11 21L12 21L12 20L14 20L14 19ZM32 20L32 21L31 21L31 24L32 24L32 23L33 23L33 22L34 22L34 23L35 23L35 21L33 21L33 20ZM13 21L13 22L14 22L14 21ZM45 21L45 22L46 22L46 23L49 23L49 21L47 21L47 22L46 22L46 21ZM10 24L10 25L11 25L11 24ZM21 24L21 25L24 25L24 24ZM45 24L45 25L46 25L46 24ZM47 24L47 25L48 25L48 24ZM13 26L13 27L12 27L12 28L13 28L13 27L14 27L14 26ZM25 26L25 27L26 27L26 26ZM53 26L53 27L54 27L54 26ZM1 27L1 28L3 28L3 29L4 29L4 27ZM5 27L5 30L8 30L8 27ZM27 27L27 30L30 30L30 27ZM35 27L35 28L36 28L36 27ZM41 27L41 28L42 28L42 27ZM49 27L49 30L52 30L52 27ZM6 28L6 29L7 29L7 28ZM25 28L25 29L26 29L26 28ZM28 28L28 29L29 29L29 28ZM50 28L50 29L51 29L51 28ZM54 28L54 29L56 29L56 28ZM39 29L39 30L38 30L38 32L39 32L39 30L40 30L40 29ZM3 30L3 31L4 31L4 30ZM30 31L30 32L29 32L29 33L31 33L31 31ZM32 31L32 34L33 34L33 36L32 36L32 37L33 37L33 38L35 38L35 37L33 37L33 36L34 36L34 34L35 34L35 36L37 36L37 34L35 34L35 33L34 33L34 34L33 34L33 31ZM47 31L47 32L48 32L48 33L49 33L49 32L48 32L48 31ZM11 32L11 33L12 33L12 32ZM41 32L41 33L39 33L39 34L40 34L40 35L39 35L39 37L40 37L40 38L41 38L41 39L42 39L42 38L43 38L43 37L44 37L44 38L45 38L45 39L44 39L44 40L45 40L45 41L44 41L44 42L46 42L46 44L45 44L45 45L44 45L44 47L45 47L45 48L46 48L46 49L47 49L47 48L48 48L48 47L47 47L47 46L45 46L45 45L47 45L47 43L48 43L48 42L46 42L46 41L47 41L47 39L48 39L48 37L49 37L49 38L50 38L50 37L51 37L51 36L52 36L52 35L50 35L50 34L48 34L48 35L50 35L50 37L49 37L49 36L48 36L48 37L47 37L47 39L46 39L46 38L45 38L45 37L46 37L46 35L47 35L47 34L45 34L45 35L44 35L44 33L43 33L43 32ZM45 32L45 33L46 33L46 32ZM5 33L5 35L6 35L6 36L5 36L5 37L6 37L6 38L7 38L7 39L6 39L6 40L8 40L8 41L9 41L9 40L10 40L10 39L9 39L9 38L10 38L10 37L9 37L9 38L8 38L8 36L9 36L9 34L10 34L10 33L8 33L8 35L6 35L6 34L7 34L7 33ZM3 34L3 36L2 36L2 37L3 37L3 36L4 36L4 34ZM23 34L23 36L24 36L24 34ZM42 34L42 35L43 35L43 36L44 36L44 37L45 37L45 36L44 36L44 35L43 35L43 34ZM15 35L15 36L17 36L17 35ZM6 36L6 37L7 37L7 36ZM40 36L40 37L41 37L41 38L42 38L42 37L41 37L41 36ZM11 37L11 39L12 39L12 37ZM13 38L13 39L14 39L14 38ZM38 39L38 40L40 40L40 39ZM45 39L45 40L46 40L46 39ZM12 41L12 42L13 42L13 41ZM14 41L14 42L15 42L15 41ZM26 41L26 42L27 42L27 41ZM31 41L31 42L32 42L32 43L33 43L33 42L32 42L32 41ZM51 42L51 43L50 43L50 44L51 44L51 43L53 43L53 42ZM13 43L13 44L15 44L15 43ZM3 44L3 47L5 47L5 45L4 45L4 44ZM6 45L6 46L7 46L7 45ZM14 45L14 47L16 47L16 46L15 46L15 45ZM22 45L22 46L23 46L23 45ZM50 45L50 46L51 46L51 45ZM1 46L1 47L2 47L2 46ZM52 46L52 47L53 47L53 46ZM34 47L34 48L36 48L36 47ZM42 47L42 48L43 48L43 49L44 49L44 50L45 50L45 49L44 49L44 48L43 48L43 47ZM46 47L46 48L47 48L47 47ZM14 48L14 49L15 49L15 48ZM20 48L20 49L21 49L21 48ZM38 48L38 49L39 49L39 48ZM54 48L54 49L55 49L55 50L54 50L54 51L55 51L55 50L56 50L56 48ZM27 49L27 52L30 52L30 49ZM49 49L49 52L52 52L52 49ZM14 50L14 51L15 51L15 50ZM16 50L16 51L17 51L17 50ZM28 50L28 51L29 51L29 50ZM50 50L50 51L51 51L51 50ZM46 51L46 52L47 52L47 51ZM9 52L9 54L11 54L11 53L10 53L10 52ZM12 53L12 55L13 55L13 53ZM41 54L41 55L42 55L42 56L43 56L43 55L42 55L42 54ZM9 55L9 56L10 56L10 55ZM15 55L15 56L16 56L16 55ZM46 55L46 56L48 56L48 55ZM50 55L50 56L51 56L51 55ZM53 55L53 56L55 56L55 57L56 57L56 56L55 56L55 55ZM0 0L0 7L7 7L7 0ZM1 1L1 6L6 6L6 1ZM2 2L2 5L5 5L5 2ZM50 0L50 7L57 7L57 0ZM51 1L51 6L56 6L56 1ZM52 2L52 5L55 5L55 2ZM0 50L0 57L7 57L7 50ZM1 51L1 56L6 56L6 51ZM2 52L2 55L5 55L5 52Z" fill="#000000"/></g></g></svg>
