<?xml version="1.0" encoding="UTF-8"?>
<svg xmlns="http://www.w3.org/2000/svg" version="1.1" width="300" height="300" viewBox="0 0 300 300"><rect x="0" y="0" width="300" height="300" fill="#fefefe"/><g transform="scale(4.615)"><g transform="translate(4,4)"><path fill-rule="evenodd" d="M9 0L9 1L8 1L8 2L9 2L9 3L8 3L8 4L11 4L11 6L10 6L10 5L8 5L8 7L9 7L9 8L6 8L6 9L5 9L5 8L0 8L0 9L1 9L1 11L0 11L0 14L2 14L2 13L3 13L3 15L4 15L4 18L3 18L3 19L2 19L2 18L1 18L1 17L2 17L2 15L0 15L0 19L1 19L1 20L2 20L2 21L1 21L1 23L0 23L0 24L1 24L1 25L0 25L0 26L2 26L2 28L1 28L1 27L0 27L0 28L1 28L1 29L0 29L0 30L1 30L1 31L7 31L7 32L5 32L5 33L4 33L4 32L3 32L3 33L4 33L4 34L5 34L5 36L4 36L4 37L2 37L2 36L3 36L3 35L2 35L2 36L0 36L0 37L1 37L1 38L0 38L0 39L2 39L2 40L4 40L4 39L8 39L8 41L9 41L9 42L10 42L10 43L9 43L9 44L8 44L8 45L7 45L7 44L6 44L6 43L7 43L7 42L6 42L6 41L7 41L7 40L5 40L5 41L4 41L4 42L3 42L3 41L2 41L2 42L1 42L1 40L0 40L0 42L1 42L1 46L0 46L0 48L5 48L5 47L7 47L7 46L9 46L9 47L8 47L8 48L6 48L6 49L8 49L8 51L12 51L12 49L11 49L11 48L10 48L10 45L11 45L11 46L13 46L13 45L12 45L12 44L14 44L14 46L15 46L15 48L14 48L14 50L15 50L15 49L16 49L16 48L17 48L17 50L16 50L16 51L15 51L15 53L16 53L16 54L14 54L14 53L13 53L13 52L11 52L11 53L13 53L13 54L10 54L10 53L9 53L9 52L8 52L8 57L10 57L10 55L12 55L12 56L11 56L11 57L13 57L13 56L14 56L14 55L16 55L16 56L15 56L15 57L16 57L16 56L17 56L17 57L19 57L19 55L20 55L20 54L19 54L19 53L20 53L20 52L22 52L22 51L21 51L21 50L25 50L25 49L26 49L26 52L24 52L24 53L23 53L23 54L22 54L22 55L21 55L21 56L23 56L23 57L26 57L26 56L27 56L27 57L29 57L29 56L30 56L30 57L31 57L31 56L35 56L35 57L39 57L39 56L37 56L37 54L38 54L38 55L40 55L40 56L41 56L41 57L44 57L44 54L45 54L45 55L47 55L47 56L50 56L50 57L52 57L52 55L51 55L51 53L52 53L52 54L53 54L53 55L54 55L54 56L53 56L53 57L54 57L54 56L55 56L55 57L56 57L56 56L55 56L55 55L54 55L54 54L55 54L55 52L57 52L57 51L54 51L54 50L57 50L57 48L56 48L56 46L57 46L57 45L56 45L56 46L55 46L55 45L54 45L54 44L55 44L55 43L56 43L56 44L57 44L57 43L56 43L56 42L55 42L55 41L53 41L53 40L55 40L55 39L57 39L57 37L55 37L55 35L56 35L56 36L57 36L57 35L56 35L56 34L55 34L55 33L54 33L54 32L56 32L56 33L57 33L57 32L56 32L56 30L57 30L57 27L56 27L56 26L57 26L57 25L56 25L56 22L57 22L57 19L56 19L56 20L55 20L55 18L57 18L57 17L56 17L56 16L57 16L57 15L56 15L56 14L57 14L57 11L56 11L56 10L54 10L54 11L52 11L52 10L53 10L53 9L54 9L54 8L53 8L53 9L52 9L52 8L51 8L51 11L50 11L50 8L49 8L49 6L48 6L48 7L47 7L47 5L48 5L48 0L46 0L46 1L47 1L47 2L44 2L44 3L43 3L43 4L40 4L40 5L39 5L39 6L38 6L38 7L37 7L37 5L38 5L38 3L41 3L41 2L43 2L43 0L41 0L41 1L40 1L40 0L39 0L39 1L38 1L38 0L37 0L37 1L38 1L38 3L36 3L36 0L35 0L35 1L33 1L33 0L29 0L29 1L28 1L28 3L29 3L29 2L30 2L30 1L33 1L33 2L32 2L32 3L31 3L31 4L26 4L26 3L23 3L23 2L27 2L27 1L26 1L26 0L23 0L23 2L22 2L22 0L21 0L21 2L20 2L20 1L18 1L18 0L17 0L17 1L14 1L14 0L12 0L12 1L14 1L14 2L13 2L13 4L14 4L14 2L15 2L15 3L16 3L16 2L17 2L17 4L19 4L19 5L20 5L20 7L19 7L19 6L18 6L18 7L19 7L19 8L16 8L16 7L17 7L17 6L16 6L16 7L15 7L15 5L16 5L16 4L15 4L15 5L14 5L14 8L13 8L13 5L12 5L12 2L11 2L11 0ZM17 1L17 2L18 2L18 1ZM10 2L10 3L11 3L11 2ZM33 2L33 3L32 3L32 4L31 4L31 8L32 8L32 10L31 10L31 11L30 11L30 10L29 10L29 9L27 9L27 10L29 10L29 12L28 12L28 13L27 13L27 15L26 15L26 12L27 12L27 11L26 11L26 12L25 12L25 10L24 10L24 13L22 13L22 12L20 12L20 11L22 11L22 10L23 10L23 8L24 8L24 6L23 6L23 5L24 5L24 4L23 4L23 3L19 3L19 4L23 4L23 5L21 5L21 7L22 7L22 8L20 8L20 11L19 11L19 12L20 12L20 14L21 14L21 13L22 13L22 14L24 14L24 13L25 13L25 15L26 15L26 16L23 16L23 15L20 15L20 16L19 16L19 15L18 15L18 14L17 14L17 13L18 13L18 12L17 12L17 13L16 13L16 12L15 12L15 13L13 13L13 12L14 12L14 11L12 11L12 14L11 14L11 10L15 10L15 11L18 11L18 10L17 10L17 9L16 9L16 8L14 8L14 9L13 9L13 8L12 8L12 6L11 6L11 8L9 8L9 10L8 10L8 11L6 11L6 10L7 10L7 9L6 9L6 10L5 10L5 9L2 9L2 10L3 10L3 11L1 11L1 12L3 12L3 13L5 13L5 11L6 11L6 12L7 12L7 13L6 13L6 14L4 14L4 15L5 15L5 16L7 16L7 17L5 17L5 18L4 18L4 19L5 19L5 20L8 20L8 22L7 22L7 21L6 21L6 22L5 22L5 21L4 21L4 20L3 20L3 21L2 21L2 24L3 24L3 25L2 25L2 26L3 26L3 28L4 28L4 24L3 24L3 21L4 21L4 23L6 23L6 24L5 24L5 25L6 25L6 26L9 26L9 29L10 29L10 32L8 32L8 34L9 34L9 35L8 35L8 36L7 36L7 35L6 35L6 36L7 36L7 37L4 37L4 38L3 38L3 39L4 39L4 38L7 38L7 37L9 37L9 41L10 41L10 39L11 39L11 38L12 38L12 40L11 40L11 41L12 41L12 42L11 42L11 43L12 43L12 42L13 42L13 41L15 41L15 42L14 42L14 44L15 44L15 46L17 46L17 47L18 47L18 46L17 46L17 45L18 45L18 44L17 44L17 45L16 45L16 43L18 43L18 42L19 42L19 43L20 43L20 46L19 46L19 47L20 47L20 50L19 50L19 52L20 52L20 50L21 50L21 49L23 49L23 48L24 48L24 49L25 49L25 47L26 47L26 48L27 48L27 47L28 47L28 48L30 48L30 47L29 47L29 46L32 46L32 47L33 47L33 48L32 48L32 49L31 49L31 50L32 50L32 51L31 51L31 53L30 53L30 54L27 54L27 53L24 53L24 54L23 54L23 55L24 55L24 56L26 56L26 54L27 54L27 56L29 56L29 55L30 55L30 56L31 56L31 54L32 54L32 53L33 53L33 54L34 54L34 55L35 55L35 56L36 56L36 54L35 54L35 53L33 53L33 52L32 52L32 51L34 51L34 50L36 50L36 52L37 52L37 53L38 53L38 54L40 54L40 53L43 53L43 54L44 54L44 53L45 53L45 54L47 54L47 53L48 53L48 50L47 50L47 49L48 49L48 48L49 48L49 47L51 47L51 46L52 46L52 47L53 47L53 46L54 46L54 47L55 47L55 46L54 46L54 45L53 45L53 43L54 43L54 42L53 42L53 41L51 41L51 42L50 42L50 43L49 43L49 42L48 42L48 41L49 41L49 40L50 40L50 39L51 39L51 40L53 40L53 39L55 39L55 37L53 37L53 35L55 35L55 34L54 34L54 33L52 33L52 32L54 32L54 31L55 31L55 30L54 30L54 29L56 29L56 27L55 27L55 28L54 28L54 29L53 29L53 30L54 30L54 31L52 31L52 32L51 32L51 31L50 31L50 32L49 32L49 31L48 31L48 28L47 28L47 29L46 29L46 30L47 30L47 31L45 31L45 32L43 32L43 31L44 31L44 30L45 30L45 28L46 28L46 27L47 27L47 24L49 24L49 23L50 23L50 26L51 26L51 25L52 25L52 26L53 26L53 27L54 27L54 26L53 26L53 23L50 23L50 22L51 22L51 21L54 21L54 22L56 22L56 21L55 21L55 20L53 20L53 19L52 19L52 20L51 20L51 21L49 21L49 22L47 22L47 21L48 21L48 20L47 20L47 19L46 19L46 18L47 18L47 17L48 17L48 16L49 16L49 15L50 15L50 16L51 16L51 17L50 17L50 19L51 19L51 18L55 18L55 16L53 16L53 15L55 15L55 14L56 14L56 11L55 11L55 12L54 12L54 13L53 13L53 12L52 12L52 13L53 13L53 15L50 15L50 14L51 14L51 12L50 12L50 11L49 11L49 10L47 10L47 8L46 8L46 6L45 6L45 4L46 4L46 5L47 5L47 3L44 3L44 6L43 6L43 5L40 5L40 6L39 6L39 7L40 7L40 8L39 8L39 9L38 9L38 10L37 10L37 9L35 9L35 8L37 8L37 7L36 7L36 5L37 5L37 4L36 4L36 5L35 5L35 3L34 3L34 2ZM25 4L25 8L26 8L26 4ZM32 4L32 5L34 5L34 7L33 7L33 6L32 6L32 7L33 7L33 9L34 9L34 8L35 8L35 5L34 5L34 4ZM27 5L27 8L30 8L30 5ZM9 6L9 7L10 7L10 6ZM22 6L22 7L23 7L23 6ZM28 6L28 7L29 7L29 6ZM40 6L40 7L41 7L41 8L42 8L42 9L40 9L40 10L39 10L39 11L37 11L37 10L36 10L36 12L35 12L35 14L32 14L32 12L33 12L33 13L34 13L34 12L33 12L33 10L32 10L32 11L31 11L31 13L30 13L30 14L29 14L29 13L28 13L28 14L29 14L29 16L28 16L28 15L27 15L27 16L28 16L28 17L26 17L26 18L25 18L25 17L22 17L22 16L21 16L21 17L22 17L22 18L24 18L24 19L22 19L22 20L24 20L24 21L22 21L22 22L21 22L21 23L22 23L22 22L24 22L24 21L25 21L25 22L26 22L26 23L25 23L25 24L24 24L24 23L23 23L23 24L24 24L24 25L22 25L22 26L21 26L21 27L20 27L20 28L19 28L19 29L18 29L18 28L16 28L16 29L14 29L14 30L13 30L13 31L11 31L11 33L9 33L9 34L10 34L10 36L11 36L11 37L10 37L10 38L11 38L11 37L14 37L14 38L13 38L13 39L14 39L14 40L16 40L16 39L15 39L15 38L16 38L16 37L14 37L14 35L15 35L15 32L16 32L16 33L17 33L17 34L16 34L16 35L17 35L17 34L18 34L18 33L19 33L19 34L20 34L20 36L21 36L21 34L22 34L22 33L21 33L21 34L20 34L20 33L19 33L19 30L20 30L20 32L23 32L23 31L21 31L21 30L20 30L20 29L22 29L22 28L21 28L21 27L22 27L22 26L23 26L23 30L24 30L24 31L25 31L25 33L23 33L23 34L24 34L24 36L23 36L23 35L22 35L22 36L23 36L23 37L19 37L19 36L17 36L17 39L18 39L18 38L20 38L20 39L19 39L19 40L17 40L17 41L19 41L19 42L20 42L20 41L21 41L21 42L22 42L22 43L21 43L21 44L22 44L22 45L21 45L21 46L20 46L20 47L25 47L25 45L24 45L24 44L27 44L27 45L26 45L26 47L27 47L27 45L28 45L28 44L29 44L29 43L32 43L32 44L31 44L31 45L32 45L32 46L33 46L33 47L36 47L36 48L35 48L35 49L36 49L36 50L38 50L38 52L39 52L39 51L40 51L40 52L41 52L41 50L42 50L42 52L43 52L43 53L44 53L44 52L45 52L45 51L46 51L46 52L47 52L47 51L46 51L46 50L45 50L45 49L47 49L47 48L48 48L48 47L49 47L49 46L50 46L50 44L51 44L51 43L53 43L53 42L51 42L51 43L50 43L50 44L48 44L48 45L47 45L47 43L48 43L48 42L47 42L47 43L46 43L46 42L45 42L45 43L46 43L46 44L45 44L45 45L47 45L47 46L44 46L44 44L43 44L43 43L44 43L44 41L39 41L39 42L38 42L38 40L41 40L41 39L42 39L42 38L43 38L43 37L44 37L44 38L45 38L45 39L43 39L43 40L45 40L45 41L47 41L47 39L48 39L48 38L49 38L49 39L50 39L50 38L51 38L51 39L52 39L52 38L51 38L51 36L52 36L52 35L53 35L53 34L52 34L52 33L51 33L51 32L50 32L50 34L49 34L49 35L50 35L50 38L49 38L49 37L48 37L48 38L47 38L47 39L46 39L46 38L45 38L45 37L47 37L47 35L44 35L44 33L43 33L43 32L41 32L41 33L39 33L39 34L40 34L40 35L39 35L39 37L40 37L40 38L41 38L41 39L39 39L39 38L38 38L38 37L37 37L37 36L38 36L38 33L37 33L37 32L35 32L35 34L37 34L37 36L35 36L35 35L34 35L34 36L35 36L35 38L33 38L33 37L32 37L32 36L33 36L33 33L34 33L34 32L33 32L33 33L32 33L32 31L36 31L36 30L33 30L33 29L32 29L32 28L31 28L31 26L32 26L32 27L33 27L33 28L35 28L35 29L38 29L38 28L39 28L39 27L36 27L36 26L34 26L34 27L33 27L33 26L32 26L32 24L33 24L33 25L37 25L37 26L38 26L38 25L39 25L39 26L40 26L40 25L39 25L39 24L41 24L41 22L43 22L43 23L44 23L44 20L45 20L45 18L44 18L44 11L45 11L45 12L49 12L49 13L47 13L47 14L45 14L45 17L46 17L46 15L47 15L47 16L48 16L48 15L49 15L49 14L50 14L50 12L49 12L49 11L47 11L47 10L46 10L46 9L44 9L44 8L43 8L43 6L42 6L42 7L41 7L41 6ZM44 6L44 7L45 7L45 6ZM11 8L11 9L12 9L12 8ZM48 8L48 9L49 9L49 8ZM55 8L55 9L56 9L56 8ZM21 9L21 10L22 10L22 9ZM9 10L9 11L10 11L10 10ZM45 10L45 11L46 11L46 10ZM3 11L3 12L4 12L4 11ZM39 11L39 13L38 13L38 14L37 14L37 13L36 13L36 14L37 14L37 15L35 15L35 16L33 16L33 15L31 15L31 14L30 14L30 15L31 15L31 16L32 16L32 17L33 17L33 18L30 18L30 19L33 19L33 20L32 20L32 21L31 21L31 24L29 24L29 23L30 23L30 22L29 22L29 21L30 21L30 20L29 20L29 19L28 19L28 18L26 18L26 20L25 20L25 21L28 21L28 22L27 22L27 23L28 23L28 24L25 24L25 25L26 25L26 26L25 26L25 27L26 27L26 26L28 26L28 25L31 25L31 24L32 24L32 23L33 23L33 22L34 22L34 23L35 23L35 19L36 19L36 20L37 20L37 19L39 19L39 17L41 17L41 16L42 16L42 17L43 17L43 16L42 16L42 15L43 15L43 14L41 14L41 13L43 13L43 11L41 11L41 12L40 12L40 11ZM8 12L8 14L10 14L10 12ZM15 13L15 14L13 14L13 15L11 15L11 16L10 16L10 15L7 15L7 14L6 14L6 15L7 15L7 16L10 16L10 18L11 18L11 17L13 17L13 18L12 18L12 19L11 19L11 20L10 20L10 21L9 21L9 22L8 22L8 23L7 23L7 22L6 22L6 23L7 23L7 24L6 24L6 25L7 25L7 24L9 24L9 26L10 26L10 27L11 27L11 29L12 29L12 28L14 28L14 27L15 27L15 25L16 25L16 24L17 24L17 25L18 25L18 26L16 26L16 27L18 27L18 26L20 26L20 25L21 25L21 24L20 24L20 25L19 25L19 23L20 23L20 22L19 22L19 21L20 21L20 20L21 20L21 18L20 18L20 17L19 17L19 16L18 16L18 17L17 17L17 16L16 16L16 13ZM54 13L54 14L55 14L55 13ZM38 14L38 15L39 15L39 16L38 16L38 17L37 17L37 16L35 16L35 17L37 17L37 18L38 18L38 17L39 17L39 16L41 16L41 14ZM13 15L13 17L15 17L15 18L13 18L13 19L14 19L14 20L12 20L12 21L10 21L10 23L9 23L9 24L10 24L10 23L11 23L11 25L10 25L10 26L11 26L11 25L15 25L15 24L16 24L16 23L15 23L15 24L14 24L14 22L16 22L16 21L17 21L17 22L18 22L18 21L17 21L17 20L19 20L19 19L20 19L20 18L19 18L19 17L18 17L18 19L16 19L16 18L17 18L17 17L16 17L16 16L14 16L14 15ZM7 17L7 18L6 18L6 19L7 19L7 18L8 18L8 19L9 19L9 17ZM33 18L33 19L35 19L35 18ZM41 18L41 20L39 20L39 21L38 21L38 22L37 22L37 24L39 24L39 23L40 23L40 22L39 22L39 21L43 21L43 20L44 20L44 18L43 18L43 19L42 19L42 18ZM48 18L48 19L49 19L49 18ZM15 19L15 21L16 21L16 19ZM27 19L27 20L28 20L28 19ZM13 21L13 22L12 22L12 23L13 23L13 22L14 22L14 21ZM46 22L46 23L45 23L45 25L46 25L46 23L47 23L47 22ZM17 23L17 24L18 24L18 23ZM43 24L43 25L41 25L41 26L43 26L43 28L45 28L45 27L46 27L46 26L45 26L45 27L44 27L44 26L43 26L43 25L44 25L44 24ZM54 24L54 25L55 25L55 26L56 26L56 25L55 25L55 24ZM12 26L12 27L13 27L13 26ZM5 27L5 30L8 30L8 27ZM27 27L27 30L30 30L30 27ZM35 27L35 28L36 28L36 27ZM41 27L41 28L42 28L42 27ZM49 27L49 30L52 30L52 27ZM6 28L6 29L7 29L7 28ZM25 28L25 29L26 29L26 28ZM28 28L28 29L29 29L29 28ZM50 28L50 29L51 29L51 28ZM1 29L1 30L4 30L4 29ZM16 29L16 30L17 30L17 31L18 31L18 29ZM40 29L40 30L44 30L44 29ZM31 30L31 31L27 31L27 33L25 33L25 34L27 34L27 35L26 35L26 36L27 36L27 37L25 37L25 38L27 38L27 39L28 39L28 41L27 41L27 40L26 40L26 39L25 39L25 40L24 40L24 39L21 39L21 41L22 41L22 42L24 42L24 41L25 41L25 43L27 43L27 44L28 44L28 43L27 43L27 42L30 42L30 41L31 41L31 42L32 42L32 43L33 43L33 44L32 44L32 45L33 45L33 46L36 46L36 47L37 47L37 46L36 46L36 45L34 45L34 43L35 43L35 44L36 44L36 43L37 43L37 42L35 42L35 40L38 40L38 38L37 38L37 39L35 39L35 40L33 40L33 39L29 39L29 38L31 38L31 37L29 37L29 36L30 36L30 34L29 34L29 33L31 33L31 35L32 35L32 33L31 33L31 31L32 31L32 30ZM38 30L38 32L39 32L39 30ZM13 31L13 32L15 32L15 31ZM47 31L47 32L48 32L48 33L49 33L49 32L48 32L48 31ZM0 32L0 35L1 35L1 34L2 34L2 33L1 33L1 32ZM17 32L17 33L18 33L18 32ZM28 32L28 33L29 33L29 32ZM45 32L45 33L46 33L46 32ZM6 33L6 34L7 34L7 33ZM13 33L13 35L14 35L14 33ZM42 34L42 35L41 35L41 36L40 36L40 37L41 37L41 38L42 38L42 37L43 37L43 36L44 36L44 37L45 37L45 36L44 36L44 35L43 35L43 34ZM50 34L50 35L52 35L52 34ZM41 36L41 37L42 37L42 36ZM23 37L23 38L24 38L24 37ZM27 37L27 38L28 38L28 37ZM45 39L45 40L46 40L46 39ZM12 40L12 41L13 41L13 40ZM19 40L19 41L20 41L20 40ZM23 40L23 41L24 41L24 40ZM29 40L29 41L30 41L30 40ZM31 40L31 41L32 41L32 42L33 42L33 43L34 43L34 42L33 42L33 41L32 41L32 40ZM26 41L26 42L27 42L27 41ZM4 42L4 44L3 44L3 47L5 47L5 46L7 46L7 45L6 45L6 44L5 44L5 43L6 43L6 42ZM41 42L41 43L40 43L40 44L39 44L39 45L38 45L38 46L39 46L39 47L38 47L38 48L37 48L37 49L38 49L38 50L41 50L41 48L42 48L42 49L43 49L43 50L44 50L44 51L45 51L45 50L44 50L44 49L45 49L45 47L43 47L43 46L41 46L41 48L39 48L39 47L40 47L40 46L39 46L39 45L41 45L41 44L42 44L42 42ZM23 43L23 44L24 44L24 43ZM4 44L4 45L5 45L5 44ZM9 44L9 45L10 45L10 44ZM22 45L22 46L23 46L23 45ZM1 46L1 47L2 47L2 46ZM47 46L47 47L48 47L48 46ZM12 47L12 48L13 48L13 47ZM42 47L42 48L43 48L43 49L44 49L44 48L43 48L43 47ZM8 48L8 49L9 49L9 50L10 50L10 48ZM38 48L38 49L39 49L39 48ZM53 48L53 49L56 49L56 48ZM27 49L27 52L30 52L30 49ZM33 49L33 50L34 50L34 49ZM49 49L49 52L52 52L52 49ZM28 50L28 51L29 51L29 50ZM50 50L50 51L51 51L51 50ZM16 51L16 53L17 53L17 52L18 52L18 51ZM53 52L53 53L54 53L54 52ZM9 54L9 55L10 55L10 54ZM13 54L13 55L14 55L14 54ZM17 54L17 56L18 56L18 55L19 55L19 54ZM41 54L41 55L42 55L42 56L43 56L43 55L42 55L42 54ZM50 55L50 56L51 56L51 55ZM45 56L45 57L46 57L46 56ZM0 0L0 7L7 7L7 0ZM1 1L1 6L6 6L6 1ZM2 2L2 5L5 5L5 2ZM50 0L50 7L57 7L57 0ZM51 1L51 6L56 6L56 1ZM52 2L52 5L55 5L55 2ZM0 50L0 57L7 57L7 50ZM1 51L1 56L6 56L6 51ZM2 52L2 55L5 55L5 52Z" fill="#000000"/></g></g></svg>
