<?xml version="1.0" encoding="UTF-8"?>
<svg xmlns="http://www.w3.org/2000/svg" version="1.1" width="300" height="300" viewBox="0 0 300 300"><rect x="0" y="0" width="300" height="300" fill="#fefefe"/><g transform="scale(4.615)"><g transform="translate(4,4)"><path fill-rule="evenodd" d="M8 0L8 4L9 4L9 5L8 5L8 7L9 7L9 5L10 5L10 4L11 4L11 5L12 5L12 7L11 7L11 6L10 6L10 7L11 7L11 8L10 8L10 9L9 9L9 10L8 10L8 9L7 9L7 8L4 8L4 9L3 9L3 10L2 10L2 11L1 11L1 10L0 10L0 14L1 14L1 15L0 15L0 20L1 20L1 19L2 19L2 17L1 17L1 16L2 16L2 15L3 15L3 18L4 18L4 19L5 19L5 20L4 20L4 21L2 21L2 23L1 23L1 24L3 24L3 25L4 25L4 26L3 26L3 27L2 27L2 26L0 26L0 28L1 28L1 29L0 29L0 32L1 32L1 33L0 33L0 38L2 38L2 39L3 39L3 37L4 37L4 40L5 40L5 42L4 42L4 43L5 43L5 44L4 44L4 46L5 46L5 47L3 47L3 46L2 46L2 47L1 47L1 46L0 46L0 48L5 48L5 47L7 47L7 46L5 46L5 44L6 44L6 45L8 45L8 48L6 48L6 49L8 49L8 50L9 50L9 51L8 51L8 53L9 53L9 51L12 51L12 50L13 50L13 49L15 49L15 51L14 51L14 52L13 52L13 54L14 54L14 52L15 52L15 51L16 51L16 52L17 52L17 53L15 53L15 55L16 55L16 54L17 54L17 53L19 53L19 55L20 55L20 54L21 54L21 56L20 56L20 57L22 57L22 54L23 54L23 55L24 55L24 57L25 57L25 55L26 55L26 54L27 54L27 53L28 53L28 57L29 57L29 55L30 55L30 57L34 57L34 55L35 55L35 57L37 57L37 56L36 56L36 54L37 54L37 55L40 55L40 56L39 56L39 57L40 57L40 56L41 56L41 57L43 57L43 55L44 55L44 53L45 53L45 54L46 54L46 52L45 52L45 51L47 51L47 52L48 52L48 54L49 54L49 57L50 57L50 55L51 55L51 56L53 56L53 57L54 57L54 56L53 56L53 50L54 50L54 51L56 51L56 52L54 52L54 53L55 53L55 54L57 54L57 51L56 51L56 50L57 50L57 49L56 49L56 45L54 45L54 44L53 44L53 43L54 43L54 42L55 42L55 44L56 44L56 42L57 42L57 40L52 40L52 39L54 39L54 38L55 38L55 39L57 39L57 38L55 38L55 36L53 36L53 35L56 35L56 34L57 34L57 33L56 33L56 30L55 30L55 29L57 29L57 28L56 28L56 27L55 27L55 29L54 29L54 28L53 28L53 27L54 27L54 26L55 26L55 24L56 24L56 25L57 25L57 24L56 24L56 21L57 21L57 19L56 19L56 18L57 18L57 15L56 15L56 13L57 13L57 11L56 11L56 10L57 10L57 8L53 8L53 9L52 9L52 8L51 8L51 9L50 9L50 10L51 10L51 11L50 11L50 15L48 15L48 16L50 16L50 15L52 15L52 16L51 16L51 17L50 17L50 18L49 18L49 17L47 17L47 18L46 18L46 16L47 16L47 15L46 15L46 9L45 9L45 8L44 8L44 7L45 7L45 4L44 4L44 3L47 3L47 5L46 5L46 8L47 8L47 9L48 9L48 10L49 10L49 9L48 9L48 8L49 8L49 6L48 6L48 7L47 7L47 5L48 5L48 0L41 0L41 1L40 1L40 2L39 2L39 3L40 3L40 4L38 4L38 5L36 5L36 4L35 4L35 5L32 5L32 3L33 3L33 1L34 1L34 3L35 3L35 2L36 2L36 3L37 3L37 2L38 2L38 1L39 1L39 0L38 0L38 1L37 1L37 2L36 2L36 0L35 0L35 1L34 1L34 0L28 0L28 4L26 4L26 3L25 3L25 2L26 2L26 1L27 1L27 0L26 0L26 1L25 1L25 0L23 0L23 3L22 3L22 1L21 1L21 0L20 0L20 2L19 2L19 0L18 0L18 1L16 1L16 0L15 0L15 1L16 1L16 2L17 2L17 3L16 3L16 4L17 4L17 5L19 5L19 6L18 6L18 7L19 7L19 8L17 8L17 6L16 6L16 5L15 5L15 4L14 4L14 0L13 0L13 5L12 5L12 4L11 4L11 3L10 3L10 4L9 4L9 2L12 2L12 0ZM30 1L30 3L32 3L32 2L31 2L31 1ZM45 1L45 2L47 2L47 1ZM18 2L18 3L17 3L17 4L19 4L19 5L20 5L20 6L19 6L19 7L20 7L20 6L21 6L21 7L22 7L22 6L23 6L23 7L24 7L24 8L22 8L22 9L21 9L21 10L20 10L20 8L19 8L19 9L18 9L18 11L17 11L17 9L16 9L16 8L15 8L15 7L16 7L16 6L15 6L15 5L13 5L13 7L12 7L12 10L14 10L14 8L15 8L15 9L16 9L16 11L17 11L17 13L15 13L15 12L14 12L14 11L13 11L13 12L12 12L12 13L11 13L11 10L10 10L10 14L11 14L11 15L10 15L10 16L9 16L9 18L10 18L10 16L11 16L11 15L12 15L12 14L13 14L13 15L14 15L14 16L13 16L13 17L14 17L14 18L13 18L13 19L14 19L14 20L15 20L15 21L17 21L17 18L18 18L18 17L16 17L16 16L15 16L15 15L14 15L14 14L13 14L13 13L15 13L15 14L17 14L17 15L19 15L19 16L20 16L20 17L19 17L19 19L18 19L18 20L19 20L19 21L20 21L20 20L19 20L19 19L21 19L21 18L20 18L20 17L25 17L25 15L26 15L26 16L27 16L27 15L28 15L28 14L24 14L24 15L23 15L23 13L21 13L21 14L22 14L22 15L19 15L19 14L20 14L20 11L22 11L22 12L24 12L24 11L25 11L25 10L27 10L27 11L26 11L26 13L29 13L29 16L31 16L31 15L30 15L30 13L31 13L31 12L29 12L29 11L28 11L28 9L26 9L26 6L25 6L25 7L24 7L24 6L23 6L23 5L24 5L24 4L25 4L25 3L23 3L23 5L22 5L22 6L21 6L21 4L22 4L22 3L21 3L21 2L20 2L20 3L19 3L19 2ZM40 2L40 3L42 3L42 2ZM43 2L43 3L44 3L44 2ZM43 4L43 5L42 5L42 6L41 6L41 5L39 5L39 8L40 8L40 9L39 9L39 10L40 10L40 11L39 11L39 12L37 12L37 14L36 14L36 13L35 13L35 12L34 12L34 10L36 10L36 11L38 11L38 6L37 6L37 9L35 9L35 7L36 7L36 5L35 5L35 7L34 7L34 6L33 6L33 7L32 7L32 6L31 6L31 10L30 10L30 11L32 11L32 8L33 8L33 9L34 9L34 10L33 10L33 13L32 13L32 14L33 14L33 13L34 13L34 18L37 18L37 19L39 19L39 18L40 18L40 21L39 21L39 20L37 20L37 22L35 22L35 20L36 20L36 19L35 19L35 20L33 20L33 21L34 21L34 22L35 22L35 23L34 23L34 24L33 24L33 25L34 25L34 26L33 26L33 27L32 27L32 23L33 23L33 22L31 22L31 31L32 31L32 32L30 32L30 31L29 31L29 33L28 33L28 34L27 34L27 32L26 32L26 35L27 35L27 36L25 36L25 34L24 34L24 36L25 36L25 37L27 37L27 39L26 39L26 38L24 38L24 37L23 37L23 36L22 36L22 35L20 35L20 33L21 33L21 34L23 34L23 33L25 33L25 32L23 32L23 31L22 31L22 30L23 30L23 28L25 28L25 27L26 27L26 25L25 25L25 26L23 26L23 28L22 28L22 27L21 27L21 26L22 26L22 25L24 25L24 23L23 23L23 24L22 24L22 25L21 25L21 23L22 23L22 22L20 22L20 23L19 23L19 26L20 26L20 28L18 28L18 29L15 29L15 30L14 30L14 31L15 31L15 30L16 30L16 32L15 32L15 33L16 33L16 34L14 34L14 35L13 35L13 34L12 34L12 33L13 33L13 29L11 29L11 30L10 30L10 31L4 31L4 30L3 30L3 29L4 29L4 27L3 27L3 28L2 28L2 27L1 27L1 28L2 28L2 29L1 29L1 30L3 30L3 31L2 31L2 32L3 32L3 34L4 34L4 32L7 32L7 33L6 33L6 34L7 34L7 33L9 33L9 34L8 34L8 35L11 35L11 36L12 36L12 35L13 35L13 36L14 36L14 35L16 35L16 37L13 37L13 38L15 38L15 39L13 39L13 40L15 40L15 41L11 41L11 40L10 40L10 42L9 42L9 41L8 41L8 40L9 40L9 38L7 38L7 37L5 37L5 36L4 36L4 35L1 35L1 37L3 37L3 36L4 36L4 37L5 37L5 40L7 40L7 41L6 41L6 42L7 42L7 43L6 43L6 44L8 44L8 45L9 45L9 46L10 46L10 48L8 48L8 49L11 49L11 47L12 47L12 49L13 49L13 46L12 46L12 45L11 45L11 42L12 42L12 43L13 43L13 45L15 45L15 41L16 41L16 44L17 44L17 45L16 45L16 46L17 46L17 45L18 45L18 44L19 44L19 46L20 46L20 44L21 44L21 43L22 43L22 44L23 44L23 43L24 43L24 45L25 45L25 43L27 43L27 44L29 44L29 45L26 45L26 46L23 46L23 45L21 45L21 46L22 46L22 47L18 47L18 48L22 48L22 49L21 49L21 50L20 50L20 49L19 49L19 50L20 50L20 51L21 51L21 53L24 53L24 54L25 54L25 53L26 53L26 51L25 51L25 53L24 53L24 52L22 52L22 51L23 51L23 50L22 50L22 49L23 49L23 48L24 48L24 49L25 49L25 50L26 50L26 49L25 49L25 48L27 48L27 47L28 47L28 46L29 46L29 47L30 47L30 48L31 48L31 50L32 50L32 51L31 51L31 52L32 52L32 51L33 51L33 52L34 52L34 51L35 51L35 52L36 52L36 49L34 49L34 48L33 48L33 50L32 50L32 48L31 48L31 47L32 47L32 45L31 45L31 41L32 41L32 43L33 43L33 44L35 44L35 43L33 43L33 41L32 41L32 40L33 40L33 39L34 39L34 42L35 42L35 39L37 39L37 42L38 42L38 39L40 39L40 38L38 38L38 37L37 37L37 38L35 38L35 33L34 33L34 32L35 32L35 31L36 31L36 30L35 30L35 28L37 28L37 29L38 29L38 28L37 28L37 27L39 27L39 28L40 28L40 29L43 29L43 31L45 31L45 30L46 30L46 32L47 32L47 33L46 33L46 34L45 34L45 33L43 33L43 35L42 35L42 34L40 34L40 33L41 33L41 32L40 32L40 30L39 30L39 32L40 32L40 33L39 33L39 34L38 34L38 33L37 33L37 34L38 34L38 36L39 36L39 37L42 37L42 36L43 36L43 37L44 37L44 38L43 38L43 39L45 39L45 40L47 40L47 41L46 41L46 42L44 42L44 41L43 41L43 42L41 42L41 40L40 40L40 41L39 41L39 43L40 43L40 42L41 42L41 43L42 43L42 44L43 44L43 45L44 45L44 46L43 46L43 47L42 47L42 49L44 49L44 46L45 46L45 45L46 45L46 47L45 47L45 48L46 48L46 47L47 47L47 49L46 49L46 50L47 50L47 49L48 49L48 47L49 47L49 48L52 48L52 46L53 46L53 48L55 48L55 46L53 46L53 45L52 45L52 46L51 46L51 45L50 45L50 43L51 43L51 44L52 44L52 43L53 43L53 41L52 41L52 40L50 40L50 39L52 39L52 38L53 38L53 36L51 36L51 37L50 37L50 39L49 39L49 40L47 40L47 39L48 39L48 38L49 38L49 36L50 36L50 35L53 35L53 34L54 34L54 33L51 33L51 32L52 32L52 31L49 31L49 32L50 32L50 35L49 35L49 36L47 36L47 37L46 37L46 38L47 38L47 39L45 39L45 37L44 37L44 35L45 35L45 36L46 36L46 34L49 34L49 33L48 33L48 31L47 31L47 30L48 30L48 29L46 29L46 28L48 28L48 27L45 27L45 26L44 26L44 27L45 27L45 29L43 29L43 28L42 28L42 27L41 27L41 26L40 26L40 25L44 25L44 24L45 24L45 23L46 23L46 26L47 26L47 25L48 25L48 24L47 24L47 23L50 23L50 24L49 24L49 26L50 26L50 24L52 24L52 25L51 25L51 26L52 26L52 25L53 25L53 24L55 24L55 20L56 20L56 19L55 19L55 17L56 17L56 16L55 16L55 15L53 15L53 14L54 14L54 13L55 13L55 9L53 9L53 10L54 10L54 11L52 11L52 12L51 12L51 14L52 14L52 15L53 15L53 16L52 16L52 18L50 18L50 19L53 19L53 20L52 20L52 21L51 21L51 20L49 20L49 18L48 18L48 19L47 19L47 20L46 20L46 19L45 19L45 20L46 20L46 22L44 22L44 16L46 16L46 15L45 15L45 14L44 14L44 12L45 12L45 11L43 11L43 10L45 10L45 9L44 9L44 8L43 8L43 7L44 7L44 4ZM27 5L27 8L30 8L30 5ZM14 6L14 7L15 7L15 6ZM28 6L28 7L29 7L29 6ZM40 6L40 8L41 8L41 6ZM42 6L42 7L43 7L43 6ZM33 7L33 8L34 8L34 7ZM0 8L0 9L2 9L2 8ZM24 8L24 9L22 9L22 10L25 10L25 8ZM42 8L42 9L41 9L41 12L43 12L43 11L42 11L42 10L43 10L43 8ZM6 9L6 10L7 10L7 11L6 11L6 12L5 12L5 11L4 11L4 12L5 12L5 13L6 13L6 14L9 14L9 13L6 13L6 12L7 12L7 11L8 11L8 12L9 12L9 11L8 11L8 10L7 10L7 9ZM51 9L51 10L52 10L52 9ZM2 11L2 12L1 12L1 13L2 13L2 12L3 12L3 11ZM27 11L27 12L28 12L28 11ZM18 12L18 13L17 13L17 14L19 14L19 12ZM53 12L53 13L52 13L52 14L53 14L53 13L54 13L54 12ZM3 13L3 14L4 14L4 13ZM38 13L38 15L39 15L39 17L38 17L38 16L37 16L37 15L35 15L35 17L38 17L38 18L39 18L39 17L40 17L40 18L41 18L41 20L43 20L43 19L42 19L42 18L43 18L43 17L42 17L42 15L43 15L43 16L44 16L44 15L43 15L43 13L41 13L41 17L40 17L40 13ZM47 13L47 14L49 14L49 13ZM5 15L5 16L4 16L4 17L6 17L6 18L5 18L5 19L6 19L6 20L5 20L5 23L6 23L6 24L7 24L7 25L6 25L6 26L7 26L7 25L8 25L8 26L9 26L9 28L10 28L10 26L9 26L9 25L11 25L11 26L12 26L12 28L13 28L13 26L12 26L12 25L11 25L11 24L12 24L12 23L13 23L13 22L14 22L14 24L15 24L15 25L14 25L14 27L15 27L15 28L16 28L16 27L15 27L15 25L16 25L16 26L17 26L17 27L18 27L18 25L17 25L17 22L16 22L16 23L15 23L15 22L14 22L14 21L12 21L12 18L11 18L11 19L9 19L9 20L8 20L8 21L6 21L6 20L7 20L7 19L8 19L8 18L7 18L7 17L6 17L6 16L7 16L7 15ZM22 15L22 16L23 16L23 15ZM14 16L14 17L15 17L15 20L16 20L16 17L15 17L15 16ZM53 16L53 17L55 17L55 16ZM26 17L26 20L28 20L28 21L29 21L29 23L30 23L30 20L28 20L28 19L30 19L30 18L28 18L28 17ZM32 17L32 18L31 18L31 19L33 19L33 17ZM6 18L6 19L7 19L7 18ZM24 18L24 19L23 19L23 20L22 20L22 21L24 21L24 22L25 22L25 23L26 23L26 22L27 22L27 23L28 23L28 22L27 22L27 21L24 21L24 20L25 20L25 18ZM9 20L9 22L10 22L10 23L12 23L12 22L10 22L10 20ZM31 20L31 21L32 21L32 20ZM47 20L47 22L50 22L50 23L52 23L52 24L53 24L53 23L52 23L52 22L54 22L54 21L52 21L52 22L51 22L51 21L48 21L48 20ZM0 21L0 22L1 22L1 21ZM38 21L38 22L37 22L37 23L38 23L38 26L39 26L39 27L40 27L40 28L41 28L41 27L40 27L40 26L39 26L39 25L40 25L40 23L38 23L38 22L39 22L39 21ZM40 21L40 22L41 22L41 23L44 23L44 22L43 22L43 21ZM6 22L6 23L7 23L7 24L8 24L8 25L9 25L9 23L8 23L8 22ZM3 23L3 24L4 24L4 25L5 25L5 24L4 24L4 23ZM28 24L28 25L27 25L27 26L28 26L28 25L29 25L29 24ZM34 24L34 25L37 25L37 24ZM20 25L20 26L21 26L21 25ZM36 26L36 27L37 27L37 26ZM5 27L5 30L8 30L8 27ZM27 27L27 30L30 30L30 27ZM33 27L33 28L32 28L32 30L33 30L33 31L34 31L34 27ZM49 27L49 30L52 30L52 27ZM6 28L6 29L7 29L7 28ZM28 28L28 29L29 29L29 28ZM50 28L50 29L51 29L51 28ZM18 29L18 30L17 30L17 31L19 31L19 29ZM20 29L20 31L21 31L21 33L22 33L22 31L21 31L21 30L22 30L22 29ZM25 29L25 30L24 30L24 31L25 31L25 30L26 30L26 29ZM11 30L11 32L9 32L9 33L12 33L12 30ZM37 30L37 32L38 32L38 30ZM53 30L53 32L55 32L55 30ZM17 32L17 37L18 37L18 38L16 38L16 39L15 39L15 40L17 40L17 39L18 39L18 38L19 38L19 37L21 37L21 38L20 38L20 39L19 39L19 40L18 40L18 41L17 41L17 43L18 43L18 41L20 41L20 42L19 42L19 44L20 44L20 43L21 43L21 42L22 42L22 40L21 40L21 39L22 39L22 36L20 36L20 35L19 35L19 34L18 34L18 33L20 33L20 32ZM32 32L32 33L29 33L29 34L28 34L28 36L27 36L27 37L28 37L28 36L29 36L29 37L31 37L31 36L32 36L32 37L33 37L33 38L31 38L31 39L29 39L29 38L28 38L28 39L27 39L27 40L25 40L25 41L24 41L24 39L23 39L23 41L24 41L24 42L26 42L26 41L27 41L27 43L28 43L28 41L27 41L27 40L30 40L30 41L29 41L29 42L30 42L30 41L31 41L31 39L33 39L33 38L34 38L34 39L35 39L35 38L34 38L34 36L33 36L33 34L32 34L32 33L33 33L33 32ZM1 33L1 34L2 34L2 33ZM11 34L11 35L12 35L12 34ZM30 34L30 36L31 36L31 35L32 35L32 34ZM6 35L6 36L7 36L7 35ZM39 35L39 36L40 36L40 35ZM56 36L56 37L57 37L57 36ZM10 37L10 39L11 39L11 37ZM51 37L51 38L52 38L52 37ZM6 38L6 39L7 39L7 40L8 40L8 39L7 39L7 38ZM0 39L0 40L1 40L1 42L0 42L0 43L2 43L2 44L0 44L0 45L3 45L3 41L2 41L2 40L1 40L1 39ZM7 41L7 42L8 42L8 44L9 44L9 45L10 45L10 44L9 44L9 42L8 42L8 41ZM48 41L48 43L47 43L47 42L46 42L46 43L47 43L47 44L46 44L46 45L47 45L47 46L48 46L48 45L47 45L47 44L49 44L49 43L50 43L50 42L49 42L49 41ZM51 41L51 43L52 43L52 41ZM55 41L55 42L56 42L56 41ZM13 42L13 43L14 43L14 42ZM43 42L43 43L44 43L44 45L45 45L45 43L44 43L44 42ZM36 43L36 44L37 44L37 46L36 46L36 45L34 45L34 47L36 47L36 48L37 48L37 46L38 46L38 45L39 45L39 44L37 44L37 43ZM40 44L40 45L41 45L41 44ZM30 45L30 46L31 46L31 45ZM49 45L49 47L50 47L50 45ZM26 46L26 47L27 47L27 46ZM39 46L39 47L38 47L38 49L37 49L37 53L38 53L38 52L40 52L40 53L41 53L41 46ZM15 47L15 49L16 49L16 51L17 51L17 52L19 52L19 53L20 53L20 52L19 52L19 51L18 51L18 50L17 50L17 49L16 49L16 47ZM22 47L22 48L23 48L23 47ZM39 47L39 49L38 49L38 51L40 51L40 47ZM27 49L27 52L30 52L30 49ZM49 49L49 52L52 52L52 49ZM21 50L21 51L22 51L22 50ZM28 50L28 51L29 51L29 50ZM42 50L42 51L44 51L44 50ZM50 50L50 51L51 51L51 50ZM10 52L10 55L8 55L8 57L9 57L9 56L10 56L10 57L11 57L11 56L13 56L13 55L12 55L12 54L11 54L11 53L12 53L12 52ZM43 52L43 53L44 53L44 52ZM30 53L30 54L31 54L31 53ZM32 53L32 54L33 54L33 55L34 55L34 54L35 54L35 53L34 53L34 54L33 54L33 53ZM49 53L49 54L51 54L51 55L52 55L52 54L51 54L51 53ZM40 54L40 55L41 55L41 54ZM42 54L42 55L43 55L43 54ZM46 55L46 56L47 56L47 57L48 57L48 55ZM15 56L15 57L16 57L16 56ZM17 56L17 57L19 57L19 56ZM26 56L26 57L27 57L27 56ZM44 56L44 57L45 57L45 56ZM56 56L56 57L57 57L57 56ZM0 0L0 7L7 7L7 0ZM1 1L1 6L6 6L6 1ZM2 2L2 5L5 5L5 2ZM50 0L50 7L57 7L57 0ZM51 1L51 6L56 6L56 1ZM52 2L52 5L55 5L55 2ZM0 50L0 57L7 57L7 50ZM1 51L1 56L6 56L6 51ZM2 52L2 55L5 55L5 52Z" fill="#000000"/></g></g></svg>
