<?xml version="1.0" encoding="UTF-8"?>
<svg xmlns="http://www.w3.org/2000/svg" version="1.1" width="300" height="300" viewBox="0 0 300 300"><rect x="0" y="0" width="300" height="300" fill="#fefefe"/><g transform="scale(4.615)"><g transform="translate(4,4)"><path fill-rule="evenodd" d="M10 0L10 1L9 1L9 3L8 3L8 5L9 5L9 6L8 6L8 7L9 7L9 6L10 6L10 9L8 9L8 8L5 8L5 9L8 9L8 10L5 10L5 11L9 11L9 12L8 12L8 13L9 13L9 12L10 12L10 13L13 13L13 11L14 11L14 12L15 12L15 11L17 11L17 14L18 14L18 15L19 15L19 14L20 14L20 12L19 12L19 11L21 11L21 9L20 9L20 8L21 8L21 5L22 5L22 8L23 8L23 9L22 9L22 12L23 12L23 14L21 14L21 16L20 16L20 17L19 17L19 16L17 16L17 15L16 15L16 14L14 14L14 15L16 15L16 17L14 17L14 16L12 16L12 18L13 18L13 20L12 20L12 22L11 22L11 23L9 23L9 26L8 26L8 25L7 25L7 24L6 24L6 23L7 23L7 22L8 22L8 21L9 21L9 22L10 22L10 21L11 21L11 20L10 20L10 21L9 21L9 19L11 19L11 15L10 15L10 17L9 17L9 18L8 18L8 14L4 14L4 13L3 13L3 12L2 12L2 13L1 13L1 12L0 12L0 13L1 13L1 14L0 14L0 18L1 18L1 20L2 20L2 21L0 21L0 25L1 25L1 24L2 24L2 23L3 23L3 22L2 22L2 21L5 21L5 23L4 23L4 24L5 24L5 25L3 25L3 26L4 26L4 28L3 28L3 31L5 31L5 32L4 32L4 33L9 33L9 34L8 34L8 35L7 35L7 34L6 34L6 35L7 35L7 36L5 36L5 37L4 37L4 35L3 35L3 32L1 32L1 31L2 31L2 27L1 27L1 26L0 26L0 27L1 27L1 28L0 28L0 29L1 29L1 31L0 31L0 32L1 32L1 34L2 34L2 35L3 35L3 36L2 36L2 37L1 37L1 35L0 35L0 43L1 43L1 40L2 40L2 39L3 39L3 37L4 37L4 38L5 38L5 37L8 37L8 38L9 38L9 41L8 41L8 39L7 39L7 38L6 38L6 39L7 39L7 40L5 40L5 39L4 39L4 40L3 40L3 41L4 41L4 42L3 42L3 43L2 43L2 44L3 44L3 45L1 45L1 46L0 46L0 48L5 48L5 47L7 47L7 48L6 48L6 49L8 49L8 52L9 52L9 55L8 55L8 57L9 57L9 55L10 55L10 54L11 54L11 56L10 56L10 57L16 57L16 56L17 56L17 57L20 57L20 56L19 56L19 53L20 53L20 51L19 51L19 50L20 50L20 49L21 49L21 48L22 48L22 50L26 50L26 52L24 52L24 53L23 53L23 55L22 55L22 53L21 53L21 54L20 54L20 55L22 55L22 56L24 56L24 57L26 57L26 56L24 56L24 53L25 53L25 54L26 54L26 55L27 55L27 57L29 57L29 56L30 56L30 57L31 57L31 56L33 56L33 55L31 55L31 56L30 56L30 53L31 53L31 51L32 51L32 50L31 50L31 48L32 48L32 49L33 49L33 51L35 51L35 52L33 52L33 53L32 53L32 54L34 54L34 56L35 56L35 57L39 57L39 56L37 56L37 55L38 55L38 53L37 53L37 52L40 52L40 51L41 51L41 50L42 50L42 51L43 51L43 52L41 52L41 53L39 53L39 55L40 55L40 54L42 54L42 55L43 55L43 53L44 53L44 55L46 55L46 56L45 56L45 57L47 57L47 54L48 54L48 56L50 56L50 57L52 57L52 56L50 56L50 55L49 55L49 54L52 54L52 55L53 55L53 56L55 56L55 57L56 57L56 56L55 56L55 55L57 55L57 54L53 54L53 52L54 52L54 53L56 53L56 52L57 52L57 51L56 51L56 46L55 46L55 45L54 45L54 44L55 44L55 41L53 41L53 40L55 40L55 39L56 39L56 40L57 40L57 36L56 36L56 33L57 33L57 32L56 32L56 31L57 31L57 29L54 29L54 28L56 28L56 27L55 27L55 26L57 26L57 24L56 24L56 22L54 22L54 21L53 21L53 22L51 22L51 18L50 18L50 17L51 17L51 16L50 16L50 17L49 17L49 16L48 16L48 15L49 15L49 14L50 14L50 15L53 15L53 17L52 17L52 18L53 18L53 17L55 17L55 18L54 18L54 19L53 19L53 20L57 20L57 17L56 17L56 14L57 14L57 12L56 12L56 10L57 10L57 9L56 9L56 10L54 10L54 11L52 11L52 12L51 12L51 11L50 11L50 10L51 10L51 9L48 9L48 8L49 8L49 6L48 6L48 8L47 8L47 9L45 9L45 10L44 10L44 11L43 11L43 9L44 9L44 8L43 8L43 6L44 6L44 7L45 7L45 8L46 8L46 7L47 7L47 5L48 5L48 0L46 0L46 1L47 1L47 2L44 2L44 3L41 3L41 2L43 2L43 1L45 1L45 0L42 0L42 1L41 1L41 0L38 0L38 4L37 4L37 3L36 3L36 1L35 1L35 0L34 0L34 2L33 2L33 1L32 1L32 0L30 0L30 2L28 2L28 0L26 0L26 2L27 2L27 3L22 3L22 2L25 2L25 0L24 0L24 1L23 1L23 0L19 0L19 1L17 1L17 0L16 0L16 1L17 1L17 2L18 2L18 3L16 3L16 2L15 2L15 1L14 1L14 0L13 0L13 1L14 1L14 2L13 2L13 3L12 3L12 2L11 2L11 3L12 3L12 4L15 4L15 5L13 5L13 6L12 6L12 5L11 5L11 4L10 4L10 1L12 1L12 0ZM19 1L19 2L20 2L20 3L19 3L19 4L20 4L20 3L21 3L21 2L22 2L22 1ZM31 1L31 3L30 3L30 4L31 4L31 8L32 8L32 9L33 9L33 8L34 8L34 9L35 9L35 10L33 10L33 11L32 11L32 10L31 10L31 11L29 11L29 12L30 12L30 13L29 13L29 14L25 14L25 15L27 15L27 19L26 19L26 16L22 16L22 17L25 17L25 19L26 19L26 22L25 22L25 21L24 21L24 20L22 20L22 18L21 18L21 17L20 17L20 18L18 18L18 17L16 17L16 19L14 19L14 20L13 20L13 21L15 21L15 20L16 20L16 22L20 22L20 23L18 23L18 24L17 24L17 25L16 25L16 24L15 24L15 25L13 25L13 26L12 26L12 25L11 25L11 24L12 24L12 23L11 23L11 24L10 24L10 25L11 25L11 27L10 27L10 26L9 26L9 31L6 31L6 32L10 32L10 34L11 34L11 33L12 33L12 35L14 35L14 36L15 36L15 37L14 37L14 38L13 38L13 36L10 36L10 35L9 35L9 36L8 36L8 37L9 37L9 36L10 36L10 37L11 37L11 39L10 39L10 40L13 40L13 41L10 41L10 43L11 43L11 44L9 44L9 43L6 43L6 44L5 44L5 42L4 42L4 43L3 43L3 44L4 44L4 45L3 45L3 47L5 47L5 46L7 46L7 47L9 47L9 46L8 46L8 45L11 45L11 46L10 46L10 49L11 49L11 50L10 50L10 51L9 51L9 52L10 52L10 53L11 53L11 54L12 54L12 56L13 56L13 55L14 55L14 56L15 56L15 55L14 55L14 54L13 54L13 53L14 53L14 52L16 52L16 53L17 53L17 52L16 52L16 51L17 51L17 49L18 49L18 48L19 48L19 49L20 49L20 48L21 48L21 47L20 47L20 48L19 48L19 47L18 47L18 46L15 46L15 47L16 47L16 48L15 48L15 50L12 50L12 49L14 49L14 48L12 48L12 47L11 47L11 46L13 46L13 47L14 47L14 46L13 46L13 45L14 45L14 44L15 44L15 45L18 45L18 44L15 44L15 43L16 43L16 42L17 42L17 41L18 41L18 42L19 42L19 43L20 43L20 44L19 44L19 45L20 45L20 44L21 44L21 46L22 46L22 43L23 43L23 45L24 45L24 44L25 44L25 46L23 46L23 47L22 47L22 48L23 48L23 49L25 49L25 47L26 47L26 48L30 48L30 47L29 47L29 46L27 46L27 45L28 45L28 44L25 44L25 43L24 43L24 41L25 41L25 42L26 42L26 41L27 41L27 40L28 40L28 42L27 42L27 43L28 43L28 42L29 42L29 43L30 43L30 42L31 42L31 43L32 43L32 41L34 41L34 42L35 42L35 40L38 40L38 42L36 42L36 43L40 43L40 42L39 42L39 41L42 41L42 40L40 40L40 39L41 39L41 38L39 38L39 36L40 36L40 34L41 34L41 32L43 32L43 33L45 33L45 32L46 32L46 31L47 31L47 30L48 30L48 27L47 27L47 25L48 25L48 24L49 24L49 25L50 25L50 26L51 26L51 25L52 25L52 23L50 23L50 21L49 21L49 20L48 20L48 19L50 19L50 18L48 18L48 19L46 19L46 20L44 20L44 19L45 19L45 17L46 17L46 18L47 18L47 17L48 17L48 16L44 16L44 19L41 19L41 18L40 18L40 17L41 17L41 16L42 16L42 17L43 17L43 16L42 16L42 15L44 15L44 12L45 12L45 13L46 13L46 14L47 14L47 13L46 13L46 10L45 10L45 11L44 11L44 12L43 12L43 11L42 11L42 10L41 10L41 9L42 9L42 8L41 8L41 7L42 7L42 6L43 6L43 5L40 5L40 4L38 4L38 5L37 5L37 4L36 4L36 5L35 5L35 4L34 4L34 5L35 5L35 8L34 8L34 6L33 6L33 5L32 5L32 4L31 4L31 3L32 3L32 1ZM39 1L39 2L40 2L40 1ZM14 2L14 3L15 3L15 2ZM46 3L46 5L47 5L47 3ZM9 4L9 5L10 5L10 4ZM16 4L16 6L15 6L15 7L14 7L14 6L13 6L13 7L12 7L12 6L11 6L11 9L10 9L10 10L11 10L11 11L10 11L10 12L11 12L11 11L13 11L13 7L14 7L14 9L15 9L15 8L17 8L17 7L18 7L18 6L19 6L19 7L20 7L20 5L17 5L17 4ZM22 4L22 5L24 5L24 4ZM25 4L25 8L24 8L24 6L23 6L23 8L24 8L24 9L25 9L25 8L26 8L26 4ZM44 4L44 6L45 6L45 7L46 7L46 6L45 6L45 4ZM27 5L27 8L30 8L30 5ZM36 5L36 7L37 7L37 5ZM16 6L16 7L17 7L17 6ZM28 6L28 7L29 7L29 6ZM32 6L32 7L33 7L33 6ZM38 6L38 9L37 9L37 8L35 8L35 9L37 9L37 10L36 10L36 11L35 11L35 12L34 12L34 11L33 11L33 12L32 12L32 11L31 11L31 12L32 12L32 13L30 13L30 14L29 14L29 15L28 15L28 18L31 18L31 17L32 17L32 15L37 15L37 14L38 14L38 17L37 17L37 16L35 16L35 17L37 17L37 20L36 20L36 18L35 18L35 21L34 21L34 17L33 17L33 18L32 18L32 19L30 19L30 20L29 20L29 24L28 24L28 26L26 26L26 25L27 25L27 22L28 22L28 21L27 21L27 22L26 22L26 23L25 23L25 24L24 24L24 23L23 23L23 24L22 24L22 23L21 23L21 27L20 27L20 26L19 26L19 24L18 24L18 26L16 26L16 25L15 25L15 26L13 26L13 27L11 27L11 29L10 29L10 31L11 31L11 30L12 30L12 28L16 28L16 29L18 29L18 30L14 30L14 31L13 31L13 32L12 32L12 33L13 33L13 34L17 34L17 36L16 36L16 37L17 37L17 39L16 39L16 40L14 40L14 39L13 39L13 38L12 38L12 39L13 39L13 40L14 40L14 41L13 41L13 42L11 42L11 43L13 43L13 44L14 44L14 43L15 43L15 42L16 42L16 40L18 40L18 41L19 41L19 42L20 42L20 39L22 39L22 38L23 38L23 39L24 39L24 40L23 40L23 41L24 41L24 40L25 40L25 37L26 37L26 39L27 39L27 36L28 36L28 37L29 37L29 36L28 36L28 35L27 35L27 34L30 34L30 37L31 37L31 38L29 38L29 39L28 39L28 40L29 40L29 39L32 39L32 40L31 40L31 41L32 41L32 40L33 40L33 39L37 39L37 38L38 38L38 39L39 39L39 38L38 38L38 36L39 36L39 35L38 35L38 34L39 34L39 33L37 33L37 32L35 32L35 33L34 33L34 29L32 29L32 28L33 28L33 26L34 26L34 27L36 27L36 28L35 28L35 29L38 29L38 27L36 27L36 26L34 26L34 24L36 24L36 25L37 25L37 26L38 26L38 25L37 25L37 22L38 22L38 23L39 23L39 24L40 24L40 25L39 25L39 27L40 27L40 28L42 28L42 26L43 26L43 29L40 29L40 30L39 30L39 31L38 31L38 30L37 30L37 31L38 31L38 32L40 32L40 31L42 31L42 30L43 30L43 32L45 32L45 31L46 31L46 30L45 30L45 31L44 31L44 25L45 25L45 26L46 26L46 25L45 25L45 24L46 24L46 23L49 23L49 24L50 24L50 23L49 23L49 21L48 21L48 20L47 20L47 21L44 21L44 20L43 20L43 21L41 21L41 22L40 22L40 23L39 23L39 21L38 21L38 20L39 20L39 19L40 19L40 20L41 20L41 19L40 19L40 18L38 18L38 17L39 17L39 15L41 15L41 14L43 14L43 13L42 13L42 12L41 12L41 11L37 11L37 10L40 10L40 9L39 9L39 8L40 8L40 7L41 7L41 6L40 6L40 7L39 7L39 6ZM0 8L0 11L1 11L1 9L2 9L2 8ZM52 8L52 10L53 10L53 9L54 9L54 8ZM3 9L3 10L2 10L2 11L3 11L3 10L4 10L4 9ZM26 9L26 10L27 10L27 11L26 11L26 13L27 13L27 12L28 12L28 10L29 10L29 9ZM47 9L47 10L48 10L48 11L49 11L49 12L48 12L48 13L50 13L50 14L52 14L52 13L50 13L50 11L49 11L49 10L48 10L48 9ZM17 10L17 11L18 11L18 10ZM23 11L23 12L25 12L25 11ZM5 12L5 13L7 13L7 12ZM35 12L35 13L34 13L34 14L35 14L35 13L36 13L36 14L37 14L37 13L38 13L38 14L39 14L39 13L40 13L40 14L41 14L41 13L40 13L40 12L37 12L37 13L36 13L36 12ZM53 12L53 15L54 15L54 13L55 13L55 14L56 14L56 12ZM32 13L32 14L30 14L30 15L32 15L32 14L33 14L33 13ZM1 14L1 17L3 17L3 18L4 18L4 19L2 19L2 20L5 20L5 21L6 21L6 22L7 22L7 21L8 21L8 20L7 20L7 19L8 19L8 18L7 18L7 17L6 17L6 16L7 16L7 15L4 15L4 14ZM12 14L12 15L13 15L13 14ZM3 16L3 17L4 17L4 16ZM5 17L5 20L6 20L6 21L7 21L7 20L6 20L6 19L7 19L7 18L6 18L6 17ZM13 17L13 18L14 18L14 17ZM17 18L17 19L16 19L16 20L17 20L17 21L20 21L20 22L21 22L21 21L20 21L20 20L19 20L19 19L18 19L18 18ZM17 19L17 20L18 20L18 19ZM32 20L32 21L31 21L31 22L30 22L30 23L31 23L31 25L32 25L32 26L31 26L31 27L32 27L32 26L33 26L33 25L32 25L32 23L33 23L33 24L34 24L34 23L35 23L35 22L34 22L34 23L33 23L33 22L32 22L32 21L33 21L33 20ZM22 21L22 22L24 22L24 21ZM47 21L47 22L48 22L48 21ZM41 22L41 23L42 23L42 24L41 24L41 25L40 25L40 26L42 26L42 24L43 24L43 25L44 25L44 24L45 24L45 23L46 23L46 22L44 22L44 24L43 24L43 23L42 23L42 22ZM23 24L23 25L24 25L24 24ZM29 24L29 26L30 26L30 24ZM53 24L53 25L56 25L56 24ZM5 25L5 26L7 26L7 25ZM15 26L15 27L16 27L16 26ZM18 26L18 27L17 27L17 28L18 28L18 29L19 29L19 26ZM22 26L22 27L23 27L23 28L22 28L22 30L21 30L21 29L20 29L20 30L18 30L18 31L16 31L16 32L15 32L15 33L18 33L18 34L19 34L19 35L18 35L18 36L19 36L19 35L20 35L20 36L21 36L21 38L22 38L22 33L25 33L25 34L26 34L26 30L23 30L23 29L26 29L26 28L24 28L24 26ZM25 26L25 27L26 27L26 26ZM53 26L53 27L54 27L54 26ZM5 27L5 30L8 30L8 27ZM27 27L27 30L30 30L30 27ZM45 27L45 29L47 29L47 28L46 28L46 27ZM49 27L49 30L52 30L52 27ZM6 28L6 29L7 29L7 28ZM28 28L28 29L29 29L29 28ZM50 28L50 29L51 29L51 28ZM31 29L31 30L32 30L32 29ZM22 30L22 32L23 32L23 30ZM35 30L35 31L36 31L36 30ZM53 30L53 31L52 31L52 32L51 32L51 33L50 33L50 32L49 32L49 31L48 31L48 32L47 32L47 34L44 34L44 35L43 35L43 34L42 34L42 36L41 36L41 37L42 37L42 36L43 36L43 38L42 38L42 39L44 39L44 40L43 40L43 41L44 41L44 43L43 43L43 44L44 44L44 47L43 47L43 46L41 46L41 49L40 49L40 47L38 47L38 50L36 50L36 47L37 47L37 46L36 46L36 45L35 45L35 47L34 47L34 48L35 48L35 49L34 49L34 50L36 50L36 52L37 52L37 51L38 51L38 50L39 50L39 49L40 49L40 50L41 50L41 49L43 49L43 50L44 50L44 53L46 53L46 54L47 54L47 53L48 53L48 50L47 50L47 49L46 49L46 48L47 48L47 47L48 47L48 48L49 48L49 47L48 47L48 46L47 46L47 47L46 47L46 48L45 48L45 41L46 41L46 43L48 43L48 44L47 44L47 45L49 45L49 46L50 46L50 47L51 47L51 46L50 46L50 42L49 42L49 43L48 43L48 41L49 41L49 38L48 38L48 37L50 37L50 40L51 40L51 39L52 39L52 40L53 40L53 39L55 39L55 37L56 37L56 36L55 36L55 37L54 37L54 36L53 36L53 35L55 35L55 34L54 34L54 32L53 32L53 31L56 31L56 30ZM19 31L19 32L18 32L18 33L20 33L20 35L21 35L21 32L20 32L20 31ZM24 31L24 32L25 32L25 31ZM27 31L27 33L28 33L28 31ZM30 31L30 32L29 32L29 33L31 33L31 32L32 32L32 34L31 34L31 35L33 35L33 32L32 32L32 31ZM13 32L13 33L14 33L14 32ZM48 32L48 33L49 33L49 32ZM52 32L52 35L53 35L53 32ZM55 32L55 33L56 33L56 32ZM23 34L23 38L24 38L24 34ZM34 34L34 35L35 35L35 37L34 37L34 36L33 36L33 37L34 37L34 38L35 38L35 37L36 37L36 36L38 36L38 35L37 35L37 34ZM49 34L49 35L46 35L46 36L45 36L45 35L44 35L44 38L45 38L45 39L46 39L46 36L47 36L47 37L48 37L48 36L49 36L49 35L50 35L50 37L51 37L51 38L52 38L52 37L53 37L53 36L51 36L51 35L50 35L50 34ZM31 36L31 37L32 37L32 36ZM18 37L18 39L20 39L20 38L19 38L19 37ZM1 38L1 39L2 39L2 38ZM47 38L47 39L48 39L48 38ZM6 41L6 42L8 42L8 41ZM21 41L21 42L22 42L22 41ZM52 41L52 44L51 44L51 45L53 45L53 46L52 46L52 48L53 48L53 49L55 49L55 48L53 48L53 46L54 46L54 47L55 47L55 46L54 46L54 45L53 45L53 41ZM56 41L56 45L57 45L57 41ZM13 42L13 43L14 43L14 42ZM41 42L41 44L40 44L40 45L41 45L41 44L42 44L42 42ZM6 44L6 45L7 45L7 44ZM29 44L29 45L30 45L30 44ZM31 44L31 45L34 45L34 44ZM4 45L4 46L5 46L5 45ZM1 46L1 47L2 47L2 46ZM26 46L26 47L27 47L27 46ZM31 46L31 47L32 47L32 48L33 48L33 46ZM42 47L42 48L43 48L43 47ZM44 48L44 50L46 50L46 49L45 49L45 48ZM27 49L27 52L30 52L30 49ZM49 49L49 52L52 52L52 49ZM28 50L28 51L29 51L29 50ZM50 50L50 51L51 51L51 50ZM54 50L54 51L55 51L55 52L56 52L56 51L55 51L55 50ZM13 51L13 52L11 52L11 53L13 53L13 52L14 52L14 51ZM21 51L21 52L23 52L23 51ZM45 51L45 52L46 52L46 53L47 53L47 52L46 52L46 51ZM26 53L26 54L27 54L27 55L28 55L28 56L29 56L29 55L28 55L28 53ZM34 53L34 54L35 54L35 53ZM16 54L16 55L18 55L18 54ZM35 55L35 56L36 56L36 55ZM43 56L43 57L44 57L44 56ZM0 0L0 7L7 7L7 0ZM1 1L1 6L6 6L6 1ZM2 2L2 5L5 5L5 2ZM50 0L50 7L57 7L57 0ZM51 1L51 6L56 6L56 1ZM52 2L52 5L55 5L55 2ZM0 50L0 57L7 57L7 50ZM1 51L1 56L6 56L6 51ZM2 52L2 55L5 55L5 52Z" fill="#000000"/></g></g></svg>
