<?xml version="1.0" encoding="UTF-8"?>
<svg xmlns="http://www.w3.org/2000/svg" version="1.1" width="300" height="300" viewBox="0 0 300 300"><rect x="0" y="0" width="300" height="300" fill="#fefefe"/><g transform="scale(4.615)"><g transform="translate(4,4)"><path fill-rule="evenodd" d="M8 0L8 1L9 1L9 0ZM11 0L11 1L13 1L13 0ZM14 0L14 1L15 1L15 0ZM18 0L18 1L17 1L17 2L15 2L15 3L17 3L17 5L15 5L15 4L14 4L14 3L13 3L13 2L12 2L12 3L9 3L9 2L8 2L8 5L11 5L11 6L10 6L10 8L8 8L8 10L9 10L9 11L8 11L8 12L6 12L6 11L7 11L7 10L6 10L6 11L3 11L3 10L4 10L4 8L0 8L0 9L3 9L3 10L2 10L2 12L6 12L6 13L5 13L5 14L6 14L6 15L5 15L5 17L7 17L7 18L6 18L6 19L5 19L5 18L4 18L4 19L3 19L3 18L0 18L0 19L1 19L1 21L0 21L0 22L1 22L1 23L2 23L2 28L1 28L1 29L0 29L0 32L2 32L2 33L0 33L0 35L1 35L1 34L2 34L2 33L4 33L4 35L2 35L2 36L1 36L1 37L0 37L0 44L1 44L1 45L0 45L0 48L5 48L5 47L7 47L7 48L6 48L6 49L7 49L7 48L8 48L8 46L9 46L9 45L10 45L10 44L11 44L11 45L12 45L12 43L13 43L13 40L14 40L14 41L15 41L15 42L16 42L16 43L14 43L14 45L13 45L13 46L11 46L11 47L12 47L12 48L17 48L17 50L16 50L16 49L15 49L15 51L14 51L14 50L12 50L12 49L11 49L11 48L10 48L10 47L9 47L9 48L10 48L10 49L8 49L8 50L10 50L10 51L9 51L9 53L8 53L8 57L9 57L9 54L10 54L10 56L11 56L11 55L12 55L12 54L14 54L14 57L15 57L15 56L16 56L16 57L18 57L18 55L17 55L17 54L16 54L16 53L15 53L15 54L14 54L14 53L12 53L12 52L11 52L11 50L12 50L12 51L13 51L13 52L15 52L15 51L16 51L16 52L19 52L19 53L18 53L18 54L19 54L19 55L20 55L20 57L24 57L24 56L26 56L26 54L27 54L27 53L29 53L29 54L31 54L31 55L30 55L30 56L31 56L31 57L32 57L32 55L33 55L33 54L36 54L36 55L34 55L34 56L33 56L33 57L36 57L36 55L37 55L37 54L36 54L36 53L35 53L35 52L36 52L36 51L37 51L37 52L38 52L38 51L39 51L39 50L40 50L40 49L39 49L39 48L38 48L38 49L37 49L37 48L35 48L35 47L38 47L38 45L41 45L41 46L40 46L40 47L43 47L43 50L46 50L46 53L45 53L45 51L42 51L42 52L43 52L43 54L42 54L42 53L41 53L41 54L40 54L40 52L41 52L41 51L40 51L40 52L39 52L39 54L38 54L38 57L42 57L42 56L45 56L45 55L46 55L46 54L47 54L47 55L48 55L48 56L47 56L47 57L48 57L48 56L49 56L49 57L51 57L51 54L52 54L52 53L53 53L53 54L54 54L54 55L55 55L55 54L56 54L56 53L57 53L57 51L55 51L55 50L57 50L57 48L56 48L56 49L55 49L55 50L53 50L53 49L54 49L54 46L53 46L53 47L52 47L52 48L51 48L51 45L55 45L55 44L52 44L52 43L53 43L53 42L54 42L54 43L56 43L56 44L57 44L57 43L56 43L56 41L57 41L57 40L56 40L56 41L55 41L55 39L52 39L52 36L53 36L53 37L55 37L55 38L56 38L56 39L57 39L57 38L56 38L56 36L57 36L57 34L55 34L55 33L57 33L57 31L56 31L56 30L57 30L57 28L56 28L56 27L53 27L53 26L52 26L52 25L49 25L49 24L51 24L51 23L49 23L49 20L50 20L50 21L51 21L51 22L52 22L52 23L53 23L53 25L55 25L55 26L56 26L56 24L54 24L54 23L53 23L53 22L54 22L54 21L55 21L55 20L56 20L56 22L55 22L55 23L57 23L57 19L56 19L56 18L57 18L57 15L55 15L55 14L54 14L54 15L53 15L53 17L54 17L54 18L52 18L52 15L51 15L51 13L52 13L52 14L53 14L53 13L54 13L54 10L53 10L53 9L55 9L55 8L52 8L52 9L51 9L51 10L50 10L50 8L49 8L49 6L48 6L48 8L49 8L49 9L47 9L47 10L46 10L46 11L47 11L47 12L48 12L48 11L47 11L47 10L50 10L50 11L49 11L49 17L50 17L50 15L51 15L51 18L52 18L52 19L55 19L55 20L54 20L54 21L53 21L53 20L50 20L50 19L47 19L47 20L46 20L46 18L48 18L48 17L47 17L47 16L48 16L48 14L47 14L47 15L46 15L46 17L45 17L45 16L44 16L44 14L46 14L46 13L44 13L44 12L43 12L43 11L44 11L44 10L45 10L45 9L41 9L41 8L40 8L40 7L41 7L41 4L37 4L37 3L38 3L38 2L37 2L37 1L38 1L38 0L37 0L37 1L36 1L36 0L35 0L35 1L34 1L34 2L35 2L35 3L33 3L33 2L31 2L31 3L30 3L30 2L28 2L28 1L33 1L33 0L27 0L27 3L30 3L30 4L26 4L26 2L24 2L24 3L23 3L23 1L26 1L26 0L23 0L23 1L22 1L22 0L21 0L21 1L20 1L20 0ZM39 0L39 1L40 1L40 2L41 2L41 1L43 1L43 0L41 0L41 1L40 1L40 0ZM45 0L45 1L44 1L44 2L42 2L42 3L43 3L43 5L45 5L45 6L44 6L44 7L43 7L43 6L42 6L42 7L43 7L43 8L46 8L46 7L47 7L47 5L48 5L48 0ZM18 1L18 2L17 2L17 3L18 3L18 2L19 2L19 4L18 4L18 5L19 5L19 4L20 4L20 5L21 5L21 4L23 4L23 3L22 3L22 2L20 2L20 1ZM35 1L35 2L36 2L36 1ZM46 1L46 2L45 2L45 3L44 3L44 4L45 4L45 5L47 5L47 3L46 3L46 2L47 2L47 1ZM32 3L32 4L31 4L31 5L32 5L32 6L31 6L31 9L32 9L32 10L26 10L26 11L25 11L25 10L23 10L23 9L21 9L21 8L23 8L23 7L24 7L24 9L26 9L26 6L25 6L25 5L26 5L26 4L24 4L24 6L23 6L23 7L22 7L22 6L21 6L21 7L20 7L20 6L19 6L19 7L20 7L20 10L18 10L18 12L17 12L17 7L18 7L18 6L17 6L17 7L16 7L16 6L15 6L15 5L14 5L14 4L13 4L13 5L12 5L12 4L11 4L11 5L12 5L12 6L11 6L11 8L12 8L12 6L13 6L13 7L14 7L14 6L15 6L15 8L13 8L13 9L10 9L10 11L9 11L9 12L8 12L8 14L9 14L9 16L10 16L10 15L12 15L12 16L11 16L11 17L13 17L13 15L14 15L14 16L15 16L15 15L16 15L16 16L17 16L17 18L16 18L16 19L15 19L15 17L14 17L14 18L13 18L13 19L12 19L12 21L11 21L11 23L10 23L10 22L8 22L8 23L10 23L10 24L11 24L11 25L14 25L14 27L15 27L15 28L13 28L13 26L12 26L12 28L10 28L10 26L9 26L9 28L10 28L10 29L12 29L12 32L11 32L11 31L10 31L10 30L9 30L9 31L5 31L5 32L8 32L8 34L9 34L9 36L8 36L8 35L5 35L5 36L8 36L8 37L6 37L6 38L5 38L5 37L4 37L4 36L3 36L3 37L2 37L2 38L1 38L1 39L3 39L3 37L4 37L4 38L5 38L5 39L4 39L4 40L5 40L5 41L6 41L6 42L7 42L7 43L4 43L4 42L3 42L3 40L2 40L2 43L1 43L1 44L3 44L3 45L2 45L2 46L1 46L1 47L2 47L2 46L3 46L3 47L5 47L5 46L8 46L8 44L7 44L7 43L8 43L8 41L9 41L9 43L11 43L11 41L12 41L12 40L10 40L10 39L11 39L11 38L12 38L12 39L14 39L14 38L13 38L13 37L11 37L11 36L12 36L12 35L11 35L11 34L12 34L12 33L13 33L13 31L14 31L14 34L15 34L15 35L14 35L14 37L15 37L15 38L18 38L18 40L17 40L17 39L16 39L16 40L15 40L15 41L19 41L19 43L18 43L18 42L17 42L17 44L16 44L16 45L15 45L15 47L17 47L17 48L18 48L18 47L17 47L17 45L19 45L19 44L20 44L20 46L19 46L19 49L18 49L18 50L17 50L17 51L19 51L19 52L20 52L20 50L19 50L19 49L20 49L20 48L21 48L21 52L22 52L22 53L20 53L20 55L22 55L22 56L24 56L24 55L25 55L25 54L26 54L26 53L25 53L25 52L26 52L26 50L25 50L25 49L26 49L26 48L27 48L27 47L28 47L28 48L31 48L31 53L32 53L32 51L33 51L33 52L35 52L35 48L32 48L32 47L31 47L31 46L30 46L30 45L31 45L31 43L30 43L30 45L28 45L28 44L27 44L27 43L29 43L29 42L31 42L31 40L33 40L33 39L34 39L34 38L36 38L36 39L35 39L35 40L34 40L34 41L36 41L36 42L34 42L34 43L35 43L35 44L34 44L34 45L33 45L33 42L32 42L32 46L33 46L33 47L34 47L34 46L35 46L35 44L36 44L36 46L37 46L37 45L38 45L38 44L40 44L40 43L38 43L38 44L37 44L37 42L41 42L41 40L42 40L42 42L43 42L43 40L44 40L44 39L46 39L46 38L48 38L48 39L47 39L47 40L46 40L46 41L45 41L45 42L44 42L44 43L42 43L42 45L43 45L43 46L45 46L45 47L44 47L44 49L46 49L46 50L47 50L47 52L48 52L48 48L47 48L47 49L46 49L46 48L45 48L45 47L46 47L46 46L47 46L47 47L49 47L49 48L50 48L50 47L49 47L49 46L50 46L50 45L51 45L51 42L50 42L50 41L52 41L52 40L50 40L50 41L47 41L47 40L49 40L49 39L51 39L51 38L49 38L49 37L48 37L48 36L47 36L47 37L46 37L46 38L45 38L45 36L46 36L46 35L47 35L47 34L48 34L48 35L49 35L49 34L50 34L50 33L49 33L49 32L50 32L50 31L49 31L49 32L48 32L48 29L47 29L47 31L46 31L46 32L45 32L45 31L44 31L44 34L46 34L46 35L45 35L45 36L44 36L44 37L42 37L42 38L44 38L44 39L40 39L40 41L37 41L37 40L38 40L38 39L39 39L39 38L38 38L38 39L37 39L37 37L38 37L38 36L37 36L37 37L34 37L34 38L33 38L33 36L36 36L36 35L35 35L35 33L33 33L33 32L31 32L31 34L30 34L30 35L29 35L29 33L30 33L30 31L28 31L28 33L25 33L25 34L24 34L24 35L23 35L23 33L24 33L24 32L27 32L27 31L25 31L25 30L26 30L26 28L24 28L24 27L25 27L25 25L27 25L27 26L29 26L29 24L28 24L28 22L25 22L25 19L24 19L24 18L26 18L26 19L27 19L27 20L26 20L26 21L27 21L27 20L29 20L29 21L30 21L30 20L29 20L29 19L28 19L28 18L29 18L29 17L30 17L30 19L32 19L32 20L31 20L31 22L29 22L29 23L30 23L30 24L31 24L31 23L32 23L32 22L34 22L34 23L33 23L33 24L32 24L32 25L33 25L33 24L35 24L35 23L36 23L36 24L37 24L37 22L35 22L35 21L33 21L33 19L32 19L32 18L33 18L33 17L31 17L31 16L32 16L32 15L31 15L31 16L29 16L29 15L28 15L28 16L29 16L29 17L27 17L27 18L26 18L26 17L24 17L24 18L23 18L23 16L25 16L25 14L26 14L26 16L27 16L27 13L26 13L26 12L28 12L28 13L30 13L30 14L33 14L33 15L35 15L35 16L34 16L34 17L35 17L35 18L34 18L34 19L35 19L35 20L36 20L36 21L37 21L37 20L36 20L36 19L38 19L38 20L40 20L40 19L39 19L39 18L41 18L41 21L44 21L44 22L45 22L45 19L44 19L44 18L45 18L45 17L42 17L42 14L43 14L43 12L42 12L42 11L40 11L40 10L41 10L41 9L39 9L39 7L40 7L40 5L38 5L38 6L37 6L37 5L36 5L36 4L34 4L34 5L33 5L33 3ZM13 5L13 6L14 6L14 5ZM27 5L27 8L30 8L30 5ZM8 6L8 7L9 7L9 6ZM24 6L24 7L25 7L25 6ZM28 6L28 7L29 7L29 6ZM32 6L32 8L33 8L33 6ZM34 6L34 9L36 9L36 8L37 8L37 6L36 6L36 7L35 7L35 6ZM38 6L38 7L39 7L39 6ZM45 6L45 7L46 7L46 6ZM6 8L6 9L7 9L7 8ZM15 8L15 11L14 11L14 10L13 10L13 12L12 12L12 10L11 10L11 11L10 11L10 13L11 13L11 12L12 12L12 15L13 15L13 13L14 13L14 15L15 15L15 12L16 12L16 13L17 13L17 12L16 12L16 8ZM18 8L18 9L19 9L19 8ZM56 8L56 9L57 9L57 8ZM37 9L37 10L38 10L38 9ZM0 10L0 11L1 11L1 10ZM20 10L20 11L19 11L19 12L18 12L18 13L19 13L19 14L21 14L21 13L20 13L20 11L23 11L23 12L22 12L22 13L23 13L23 12L25 12L25 11L23 11L23 10ZM33 10L33 14L34 14L34 12L35 12L35 15L36 15L36 13L37 13L37 15L39 15L39 17L40 17L40 16L41 16L41 15L40 15L40 11L38 11L38 12L35 12L35 11L36 11L36 10L35 10L35 11L34 11L34 10ZM51 10L51 12L50 12L50 13L51 13L51 12L52 12L52 13L53 13L53 10ZM55 10L55 12L56 12L56 13L57 13L57 10ZM30 11L30 12L31 12L31 13L32 13L32 11ZM0 12L0 16L1 16L1 17L3 17L3 16L4 16L4 15L3 15L3 14L4 14L4 13L3 13L3 14L2 14L2 13L1 13L1 12ZM6 13L6 14L7 14L7 13ZM16 14L16 15L18 15L18 16L19 16L19 17L21 17L21 19L20 19L20 18L17 18L17 19L20 19L20 20L21 20L21 19L22 19L22 17L21 17L21 15L18 15L18 14ZM23 14L23 15L24 15L24 14ZM2 15L2 16L3 16L3 15ZM6 15L6 16L7 16L7 17L8 17L8 18L7 18L7 19L6 19L6 20L7 20L7 21L5 21L5 20L3 20L3 21L4 21L4 23L6 23L6 24L7 24L7 25L5 25L5 24L4 24L4 25L3 25L3 27L4 27L4 25L5 25L5 26L7 26L7 25L8 25L8 24L7 24L7 23L6 23L6 22L7 22L7 21L9 21L9 20L10 20L10 19L11 19L11 18L10 18L10 19L9 19L9 20L7 20L7 19L8 19L8 18L9 18L9 17L8 17L8 16L7 16L7 15ZM36 17L36 18L37 18L37 17ZM41 17L41 18L42 18L42 19L43 19L43 18L42 18L42 17ZM55 17L55 18L56 18L56 17ZM13 19L13 23L11 23L11 24L13 24L13 23L14 23L14 20L15 20L15 19ZM16 20L16 23L15 23L15 24L14 24L14 25L15 25L15 26L16 26L16 27L19 27L19 28L18 28L18 29L19 29L19 28L20 28L20 29L21 29L21 30L20 30L20 31L19 31L19 30L17 30L17 28L15 28L15 29L16 29L16 30L15 30L15 31L16 31L16 32L15 32L15 33L16 33L16 32L17 32L17 35L19 35L19 34L18 34L18 32L20 32L20 33L21 33L21 34L20 34L20 36L21 36L21 34L22 34L22 33L23 33L23 31L22 31L22 32L20 32L20 31L21 31L21 30L24 30L24 29L21 29L21 27L19 27L19 25L20 25L20 26L22 26L22 27L23 27L23 25L21 25L21 24L24 24L24 25L25 25L25 22L24 22L24 21L23 21L23 20L22 20L22 22L23 22L23 23L21 23L21 22L19 22L19 24L17 24L17 26L16 26L16 23L17 23L17 21L18 21L18 20ZM47 20L47 21L46 21L46 22L47 22L47 21L48 21L48 20ZM1 21L1 22L2 22L2 21ZM38 21L38 23L39 23L39 21ZM42 22L42 24L41 24L41 23L40 23L40 24L38 24L38 25L40 25L40 26L38 26L38 27L40 27L40 29L41 29L41 27L42 27L42 28L43 28L43 29L42 29L42 30L41 30L41 31L40 31L40 30L39 30L39 29L38 29L38 30L36 30L36 29L37 29L37 28L34 28L34 29L35 29L35 31L37 31L37 32L36 32L36 33L37 33L37 32L38 32L38 34L39 34L39 31L40 31L40 32L41 32L41 31L43 31L43 30L46 30L46 27L45 27L45 29L44 29L44 28L43 28L43 27L44 27L44 25L46 25L46 26L49 26L49 25L46 25L46 24L47 24L47 23L44 23L44 25L42 25L42 24L43 24L43 22ZM20 23L20 24L21 24L21 23ZM26 23L26 24L27 24L27 23ZM0 24L0 25L1 25L1 24ZM30 25L30 26L31 26L31 25ZM34 25L34 27L35 27L35 25ZM40 26L40 27L41 27L41 26ZM42 26L42 27L43 27L43 26ZM5 27L5 30L8 30L8 27ZM27 27L27 30L30 30L30 27ZM32 27L32 28L33 28L33 27ZM47 27L47 28L48 28L48 27ZM49 27L49 30L52 30L52 27ZM3 28L3 29L2 29L2 30L1 30L1 31L2 31L2 32L3 32L3 31L4 31L4 30L3 30L3 29L4 29L4 28ZM6 28L6 29L7 29L7 28ZM28 28L28 29L29 29L29 28ZM50 28L50 29L51 29L51 28ZM53 28L53 29L54 29L54 30L53 30L53 31L52 31L52 34L54 34L54 33L55 33L55 31L54 31L54 30L56 30L56 28L55 28L55 29L54 29L54 28ZM13 29L13 30L14 30L14 29ZM32 29L32 30L31 30L31 31L33 31L33 29ZM2 30L2 31L3 31L3 30ZM38 30L38 31L39 31L39 30ZM10 32L10 33L11 33L11 32ZM42 32L42 33L43 33L43 32ZM46 32L46 33L47 33L47 32ZM53 32L53 33L54 33L54 32ZM5 33L5 34L7 34L7 33ZM27 34L27 36L23 36L23 35L22 35L22 36L23 36L23 37L22 37L22 38L23 38L23 39L21 39L21 38L20 38L20 37L19 37L19 36L18 36L18 38L19 38L19 40L20 40L20 41L22 41L22 44L21 44L21 46L20 46L20 47L21 47L21 48L23 48L23 49L22 49L22 52L23 52L23 53L22 53L22 55L23 55L23 54L25 54L25 53L24 53L24 52L23 52L23 49L24 49L24 46L25 46L25 45L26 45L26 46L27 46L27 45L26 45L26 43L25 43L25 42L29 42L29 41L30 41L30 40L28 40L28 39L30 39L30 38L32 38L32 39L33 39L33 38L32 38L32 36L33 36L33 35L34 35L34 34L31 34L31 35L32 35L32 36L29 36L29 35L28 35L28 34ZM41 34L41 35L39 35L39 36L40 36L40 37L41 37L41 35L42 35L42 36L43 36L43 35L42 35L42 34ZM10 35L10 36L9 36L9 37L8 37L8 38L6 38L6 39L7 39L7 40L6 40L6 41L7 41L7 40L8 40L8 38L9 38L9 39L10 39L10 38L9 38L9 37L10 37L10 36L11 36L11 35ZM51 35L51 36L52 36L52 35ZM54 35L54 36L56 36L56 35ZM27 36L27 37L24 37L24 39L23 39L23 40L22 40L22 41L23 41L23 42L25 42L25 41L26 41L26 39L25 39L25 38L29 38L29 36ZM24 39L24 41L25 41L25 39ZM9 40L9 41L10 41L10 40ZM46 41L46 43L44 43L44 44L47 44L47 43L48 43L48 44L49 44L49 45L47 45L47 46L49 46L49 45L50 45L50 44L49 44L49 43L50 43L50 42L47 42L47 41ZM54 41L54 42L55 42L55 41ZM20 42L20 43L21 43L21 42ZM4 44L4 46L5 46L5 45L7 45L7 44ZM22 44L22 46L21 46L21 47L22 47L22 46L23 46L23 45L25 45L25 44ZM56 45L56 46L55 46L55 47L57 47L57 45ZM13 46L13 47L14 47L14 46ZM28 46L28 47L29 47L29 46ZM25 47L25 48L26 48L26 47ZM41 48L41 49L42 49L42 48ZM10 49L10 50L11 50L11 49ZM27 49L27 52L30 52L30 49ZM32 49L32 50L34 50L34 49ZM36 49L36 50L37 50L37 49ZM49 49L49 52L52 52L52 49ZM24 50L24 51L25 51L25 50ZM28 50L28 51L29 51L29 50ZM50 50L50 51L51 51L51 50ZM54 52L54 53L56 53L56 52ZM48 53L48 54L50 54L50 53ZM44 54L44 55L45 55L45 54ZM27 55L27 56L28 56L28 55ZM56 55L56 56L57 56L57 55ZM12 56L12 57L13 57L13 56ZM52 56L52 57L53 57L53 56ZM54 56L54 57L55 57L55 56ZM0 0L0 7L7 7L7 0ZM1 1L1 6L6 6L6 1ZM2 2L2 5L5 5L5 2ZM50 0L50 7L57 7L57 0ZM51 1L51 6L56 6L56 1ZM52 2L52 5L55 5L55 2ZM0 50L0 57L7 57L7 50ZM1 51L1 56L6 56L6 51ZM2 52L2 55L5 55L5 52Z" fill="#000000"/></g></g></svg>
