<?xml version="1.0" encoding="UTF-8"?>
<svg xmlns="http://www.w3.org/2000/svg" version="1.1" width="300" height="300" viewBox="0 0 300 300"><rect x="0" y="0" width="300" height="300" fill="#fefefe"/><g transform="scale(4.615)"><g transform="translate(4,4)"><path fill-rule="evenodd" d="M8 0L8 4L9 4L9 5L8 5L8 7L9 7L9 6L10 6L10 10L12 10L12 11L10 11L10 12L9 12L9 9L8 9L8 11L7 11L7 10L6 10L6 9L7 9L7 8L4 8L4 9L3 9L3 10L2 10L2 11L0 11L0 12L2 12L2 13L0 13L0 14L1 14L1 15L0 15L0 21L2 21L2 20L3 20L3 22L2 22L2 23L0 23L0 24L1 24L1 25L0 25L0 27L1 27L1 28L2 28L2 29L4 29L4 30L3 30L3 32L2 32L2 31L1 31L1 30L0 30L0 33L1 33L1 34L0 34L0 36L1 36L1 35L2 35L2 34L4 34L4 33L5 33L5 32L4 32L4 31L10 31L10 29L11 29L11 28L12 28L12 30L13 30L13 32L12 32L12 33L11 33L11 32L10 32L10 33L9 33L9 34L8 34L8 33L7 33L7 32L6 32L6 33L7 33L7 34L6 34L6 35L9 35L9 36L10 36L10 37L8 37L8 36L6 36L6 37L5 37L5 36L4 36L4 35L3 35L3 36L2 36L2 38L3 38L3 39L1 39L1 37L0 37L0 39L1 39L1 40L2 40L2 41L4 41L4 42L3 42L3 44L1 44L1 46L0 46L0 48L5 48L5 47L7 47L7 46L5 46L5 45L7 45L7 44L5 44L5 43L7 43L7 42L8 42L8 43L9 43L9 45L8 45L8 47L9 47L9 45L10 45L10 46L11 46L11 47L10 47L10 48L9 48L9 49L8 49L8 50L9 50L9 51L8 51L8 53L9 53L9 52L10 52L10 50L9 50L9 49L11 49L11 53L10 53L10 54L11 54L11 55L8 55L8 57L11 57L11 56L12 56L12 57L13 57L13 56L12 56L12 55L14 55L14 54L15 54L15 55L16 55L16 54L17 54L17 57L19 57L19 56L18 56L18 54L19 54L19 55L20 55L20 54L21 54L21 55L22 55L22 56L21 56L21 57L22 57L22 56L23 56L23 55L24 55L24 57L25 57L25 55L26 55L26 54L24 54L24 53L25 53L25 51L26 51L26 53L28 53L28 57L29 57L29 55L30 55L30 57L34 57L34 55L35 55L35 57L37 57L37 56L36 56L36 54L37 54L37 55L39 55L39 57L40 57L40 56L41 56L41 57L42 57L42 56L43 56L43 55L44 55L44 53L45 53L45 54L46 54L46 56L47 56L47 57L48 57L48 55L47 55L47 54L46 54L46 53L47 53L47 52L48 52L48 54L49 54L49 57L50 57L50 55L51 55L51 56L53 56L53 57L54 57L54 55L53 55L53 50L54 50L54 51L55 51L55 49L56 49L56 45L57 45L57 43L56 43L56 42L57 42L57 40L54 40L54 41L53 41L53 38L54 38L54 39L57 39L57 38L55 38L55 37L57 37L57 36L53 36L53 35L56 35L56 30L55 30L55 29L54 29L54 28L53 28L53 27L54 27L54 26L55 26L55 24L56 24L56 25L57 25L57 24L56 24L56 21L57 21L57 19L55 19L55 20L56 20L56 21L55 21L55 22L53 22L53 21L52 21L52 20L53 20L53 19L49 19L49 17L50 17L50 18L53 18L53 17L55 17L55 16L56 16L56 17L57 17L57 15L56 15L56 13L57 13L57 12L55 12L55 13L54 13L54 12L53 12L53 13L52 13L52 14L51 14L51 12L52 12L52 11L54 11L54 10L53 10L53 9L56 9L56 10L55 10L55 11L56 11L56 10L57 10L57 8L53 8L53 9L52 9L52 8L51 8L51 9L50 9L50 10L51 10L51 9L52 9L52 11L50 11L50 15L48 15L48 17L47 17L47 18L46 18L46 17L45 17L45 16L44 16L44 15L43 15L43 13L41 13L41 17L40 17L40 15L39 15L39 14L40 14L40 12L39 12L39 11L41 11L41 12L43 12L43 11L45 11L45 12L44 12L44 13L45 13L45 15L46 15L46 16L47 16L47 15L46 15L46 9L47 9L47 12L49 12L49 9L47 9L47 5L48 5L48 0L41 0L41 1L40 1L40 2L38 2L38 1L39 1L39 0L38 0L38 1L37 1L37 2L36 2L36 0L35 0L35 1L34 1L34 0L28 0L28 1L27 1L27 0L26 0L26 1L25 1L25 0L23 0L23 3L22 3L22 2L21 2L21 0L20 0L20 1L19 1L19 0L18 0L18 1L19 1L19 3L20 3L20 2L21 2L21 3L22 3L22 4L23 4L23 3L25 3L25 4L24 4L24 5L22 5L22 7L21 7L21 6L20 6L20 5L19 5L19 6L18 6L18 7L17 7L17 6L16 6L16 5L15 5L15 4L14 4L14 1L16 1L16 2L15 2L15 3L16 3L16 4L17 4L17 5L18 5L18 3L17 3L17 1L16 1L16 0L14 0L14 1L13 1L13 2L12 2L12 4L11 4L11 6L10 6L10 4L9 4L9 3L10 3L10 2L9 2L9 0ZM11 0L11 1L12 1L12 0ZM26 1L26 2L25 2L25 3L26 3L26 4L28 4L28 3L29 3L29 2L31 2L31 3L32 3L32 5L35 5L35 7L34 7L34 6L33 6L33 7L32 7L32 6L31 6L31 11L32 11L32 8L33 8L33 9L34 9L34 10L33 10L33 13L34 13L34 18L32 18L32 16L33 16L33 15L32 15L32 12L29 12L29 9L26 9L26 6L25 6L25 7L24 7L24 6L23 6L23 7L22 7L22 9L21 9L21 10L20 10L20 8L19 8L19 10L18 10L18 9L15 9L15 12L14 12L14 11L13 11L13 12L11 12L11 13L15 13L15 14L17 14L17 13L18 13L18 12L19 12L19 15L18 15L18 16L19 16L19 18L18 18L18 19L17 19L17 17L15 17L15 18L14 18L14 14L13 14L13 17L12 17L12 14L10 14L10 15L9 15L9 13L8 13L8 12L7 12L7 11L6 11L6 10L5 10L5 9L4 9L4 10L3 10L3 11L4 11L4 10L5 10L5 11L6 11L6 12L7 12L7 13L4 13L4 14L3 14L3 15L4 15L4 16L3 16L3 17L4 17L4 22L3 22L3 23L2 23L2 24L3 24L3 25L1 25L1 27L3 27L3 28L4 28L4 27L3 27L3 26L5 26L5 25L6 25L6 26L8 26L8 24L7 24L7 23L8 23L8 22L13 22L13 25L12 25L12 26L15 26L15 28L16 28L16 27L18 27L18 25L17 25L17 23L18 23L18 24L19 24L19 25L21 25L21 24L22 24L22 25L24 25L24 23L23 23L23 21L24 21L24 22L25 22L25 23L26 23L26 22L28 22L28 25L29 25L29 26L30 26L30 25L31 25L31 27L32 27L32 28L31 28L31 30L32 30L32 31L31 31L31 32L30 32L30 31L28 31L28 32L29 32L29 33L28 33L28 34L27 34L27 33L26 33L26 35L27 35L27 36L25 36L25 34L24 34L24 36L25 36L25 37L27 37L27 39L26 39L26 38L24 38L24 37L23 37L23 33L25 33L25 32L26 32L26 31L25 31L25 30L26 30L26 29L25 29L25 30L24 30L24 31L25 31L25 32L23 32L23 31L22 31L22 30L23 30L23 28L25 28L25 27L26 27L26 25L25 25L25 27L24 27L24 26L23 26L23 28L22 28L22 27L21 27L21 26L20 26L20 28L18 28L18 29L15 29L15 30L18 30L18 29L19 29L19 30L20 30L20 31L19 31L19 33L18 33L18 34L17 34L17 33L16 33L16 31L14 31L14 34L13 34L13 33L12 33L12 34L10 34L10 36L11 36L11 37L14 37L14 34L15 34L15 33L16 33L16 34L17 34L17 35L19 35L19 33L21 33L21 34L20 34L20 36L21 36L21 34L22 34L22 42L21 42L21 43L22 43L22 44L23 44L23 45L21 45L21 46L20 46L20 40L19 40L19 39L20 39L20 38L21 38L21 37L19 37L19 38L18 38L18 37L17 37L17 36L16 36L16 35L15 35L15 36L16 36L16 37L15 37L15 39L14 39L14 38L12 38L12 39L13 39L13 41L15 41L15 39L16 39L16 38L18 38L18 39L17 39L17 40L16 40L16 42L15 42L15 44L14 44L14 43L11 43L11 42L12 42L12 41L10 41L10 39L9 39L9 38L7 38L7 37L6 37L6 38L7 38L7 39L3 39L3 40L5 40L5 42L7 42L7 41L10 41L10 42L9 42L9 43L11 43L11 44L10 44L10 45L11 45L11 44L12 44L12 45L13 45L13 44L14 44L14 46L13 46L13 47L12 47L12 49L13 49L13 47L14 47L14 48L15 48L15 47L16 47L16 46L17 46L17 45L18 45L18 44L19 44L19 47L17 47L17 48L16 48L16 51L17 51L17 52L15 52L15 51L13 51L13 50L12 50L12 53L11 53L11 54L13 54L13 52L14 52L14 53L17 53L17 52L19 52L19 53L20 53L20 48L22 48L22 49L21 49L21 50L22 50L22 49L23 49L23 48L22 48L22 47L23 47L23 45L25 45L25 44L23 44L23 43L28 43L28 44L27 44L27 45L26 45L26 46L24 46L24 49L25 49L25 48L27 48L27 47L29 47L29 48L31 48L31 49L32 49L32 47L33 47L33 48L34 48L34 52L33 52L33 53L32 53L32 54L33 54L33 53L34 53L34 54L35 54L35 53L34 53L34 52L36 52L36 49L35 49L35 48L34 48L34 47L36 47L36 48L37 48L37 46L38 46L38 45L39 45L39 46L40 46L40 51L38 51L38 49L39 49L39 47L38 47L38 49L37 49L37 51L38 51L38 52L37 52L37 53L39 53L39 52L40 52L40 53L41 53L41 46L40 46L40 45L41 45L41 44L40 44L40 45L39 45L39 44L37 44L37 43L33 43L33 41L32 41L32 40L33 40L33 39L31 39L31 38L33 38L33 37L34 37L34 42L35 42L35 39L37 39L37 42L38 42L38 37L42 37L42 36L43 36L43 37L44 37L44 38L43 38L43 41L44 41L44 44L43 44L43 42L42 42L42 44L43 44L43 46L44 46L44 47L42 47L42 49L44 49L44 51L45 51L45 49L46 49L46 50L47 50L47 49L48 49L48 47L49 47L49 48L52 48L52 46L53 46L53 47L54 47L54 49L55 49L55 47L54 47L54 46L55 46L55 45L56 45L56 44L55 44L55 42L56 42L56 41L55 41L55 42L54 42L54 43L53 43L53 41L52 41L52 40L50 40L50 39L52 39L52 38L53 38L53 36L50 36L50 35L53 35L53 34L54 34L54 33L55 33L55 31L54 31L54 30L53 30L53 33L51 33L51 32L50 32L50 31L49 31L49 32L50 32L50 35L49 35L49 33L48 33L48 31L47 31L47 29L46 29L46 28L47 28L47 27L45 27L45 30L46 30L46 31L45 31L45 33L46 33L46 34L44 34L44 33L43 33L43 34L44 34L44 35L42 35L42 34L40 34L40 33L41 33L41 32L40 32L40 30L39 30L39 32L40 32L40 33L39 33L39 34L38 34L38 33L37 33L37 34L38 34L38 35L37 35L37 36L38 36L38 37L37 37L37 38L35 38L35 37L34 37L34 36L35 36L35 35L34 35L34 34L35 34L35 32L34 32L34 34L32 34L32 31L33 31L33 30L32 30L32 28L33 28L33 27L34 27L34 31L35 31L35 30L37 30L37 32L38 32L38 30L37 30L37 29L38 29L38 28L37 28L37 27L40 27L40 26L38 26L38 25L41 25L41 24L43 24L43 25L44 25L44 24L45 24L45 23L46 23L46 24L47 24L47 20L46 20L46 19L45 19L45 20L46 20L46 21L45 21L45 22L44 22L44 16L43 16L43 15L42 15L42 17L43 17L43 18L42 18L42 19L41 19L41 18L40 18L40 17L39 17L39 15L38 15L38 13L39 13L39 12L37 12L37 11L39 11L39 10L41 10L41 9L43 9L43 10L42 10L42 11L43 11L43 10L44 10L44 8L40 8L40 9L39 9L39 10L38 10L38 8L37 8L37 9L35 9L35 7L36 7L36 5L38 5L38 2L37 2L37 3L36 3L36 2L35 2L35 4L34 4L34 1L33 1L33 3L32 3L32 1L29 1L29 2L27 2L27 1ZM46 1L46 2L47 2L47 1ZM40 2L40 3L39 3L39 4L40 4L40 3L42 3L42 2ZM43 2L43 3L44 3L44 4L43 4L43 7L44 7L44 4L45 4L45 9L46 9L46 5L47 5L47 3L44 3L44 2ZM35 4L35 5L36 5L36 4ZM27 5L27 8L30 8L30 5ZM39 5L39 7L40 7L40 6L41 6L41 7L42 7L42 5ZM11 6L11 7L12 7L12 10L14 10L14 6L13 6L13 7L12 7L12 6ZM15 6L15 7L16 7L16 6ZM19 6L19 7L20 7L20 6ZM28 6L28 7L29 7L29 6ZM37 6L37 7L38 7L38 6ZM48 6L48 7L49 7L49 6ZM23 7L23 8L24 8L24 7ZM33 7L33 8L34 8L34 7ZM0 8L0 10L1 10L1 9L2 9L2 8ZM22 9L22 10L25 10L25 11L24 11L24 12L22 12L22 11L21 11L21 12L20 12L20 11L19 11L19 12L20 12L20 18L22 18L22 19L21 19L21 20L20 20L20 19L18 19L18 20L17 20L17 19L15 19L15 20L14 20L14 19L13 19L13 21L14 21L14 23L16 23L16 22L17 22L17 21L18 21L18 22L19 22L19 23L20 23L20 22L21 22L21 23L22 23L22 22L21 22L21 21L22 21L22 19L24 19L24 18L25 18L25 20L24 20L24 21L28 21L28 22L29 22L29 23L31 23L31 22L34 22L34 23L32 23L32 27L33 27L33 26L34 26L34 25L37 25L37 24L34 24L34 23L35 23L35 22L37 22L37 21L38 21L38 23L39 23L39 21L40 21L40 22L41 22L41 23L44 23L44 22L43 22L43 20L42 20L42 21L40 21L40 18L39 18L39 17L38 17L38 16L37 16L37 15L35 15L35 17L38 17L38 18L39 18L39 19L37 19L37 18L34 18L34 20L33 20L33 19L31 19L31 16L32 16L32 15L31 15L31 13L30 13L30 15L31 15L31 16L29 16L29 13L27 13L27 14L28 14L28 15L27 15L27 17L28 17L28 18L30 18L30 21L28 21L28 20L29 20L29 19L27 19L27 20L26 20L26 18L25 18L25 17L26 17L26 11L27 11L27 12L28 12L28 10L25 10L25 9ZM16 10L16 12L15 12L15 13L17 13L17 11L18 11L18 10ZM34 10L34 12L35 12L35 14L36 14L36 13L37 13L37 12L36 12L36 10ZM24 12L24 13L21 13L21 14L22 14L22 15L21 15L21 17L25 17L25 15L24 15L24 13L25 13L25 12ZM47 13L47 14L49 14L49 13ZM53 13L53 14L52 14L52 15L50 15L50 16L52 16L52 17L53 17L53 16L55 16L55 15L53 15L53 14L54 14L54 13ZM6 14L6 15L5 15L5 18L6 18L6 19L7 19L7 18L6 18L6 17L8 17L8 19L9 19L9 20L10 20L10 19L12 19L12 17L10 17L10 19L9 19L9 16L8 16L8 14ZM6 15L6 16L7 16L7 15ZM10 15L10 16L11 16L11 15ZM22 15L22 16L24 16L24 15ZM52 15L52 16L53 16L53 15ZM1 17L1 19L3 19L3 18L2 18L2 17ZM35 19L35 20L34 20L34 22L35 22L35 20L36 20L36 19ZM5 20L5 22L4 22L4 24L5 24L5 23L7 23L7 22L8 22L8 21L7 21L7 20ZM15 20L15 21L17 21L17 20ZM19 20L19 21L20 21L20 20ZM31 20L31 21L32 21L32 20ZM38 20L38 21L39 21L39 20ZM49 20L49 21L51 21L51 22L52 22L52 23L51 23L51 24L52 24L52 25L51 25L51 26L53 26L53 25L54 25L54 24L55 24L55 23L53 23L53 22L52 22L52 21L51 21L51 20ZM6 21L6 22L7 22L7 21ZM49 22L49 24L48 24L48 25L49 25L49 26L50 26L50 25L49 25L49 24L50 24L50 22ZM52 23L52 24L53 24L53 23ZM6 24L6 25L7 25L7 24ZM10 24L10 25L11 25L11 24ZM14 24L14 25L15 25L15 26L16 26L16 25L15 25L15 24ZM29 24L29 25L30 25L30 24ZM33 24L33 25L34 25L34 24ZM46 25L46 26L47 26L47 25ZM9 26L9 27L11 27L11 26ZM36 26L36 27L37 27L37 26ZM41 26L41 28L40 28L40 29L43 29L43 31L44 31L44 29L43 29L43 28L42 28L42 26ZM5 27L5 30L8 30L8 27ZM12 27L12 28L14 28L14 27ZM27 27L27 30L30 30L30 27ZM49 27L49 30L52 30L52 27ZM55 27L55 28L56 28L56 29L57 29L57 28L56 28L56 27ZM6 28L6 29L7 29L7 28ZM28 28L28 29L29 29L29 28ZM35 28L35 29L37 29L37 28ZM50 28L50 29L51 29L51 28ZM20 29L20 30L22 30L22 29ZM20 31L20 32L21 32L21 33L22 33L22 31ZM1 32L1 33L2 33L2 32ZM3 32L3 33L4 33L4 32ZM46 32L46 33L47 33L47 32ZM29 33L29 34L28 34L28 36L27 36L27 37L28 37L28 36L29 36L29 37L31 37L31 36L32 36L32 37L33 37L33 36L34 36L34 35L31 35L31 36L30 36L30 34L31 34L31 33ZM46 34L46 36L45 36L45 35L44 35L44 37L45 37L45 38L46 38L46 39L47 39L47 40L45 40L45 39L44 39L44 41L45 41L45 43L47 43L47 44L46 44L46 45L45 45L45 44L44 44L44 45L45 45L45 47L46 47L46 49L47 49L47 47L46 47L46 45L47 45L47 44L49 44L49 45L48 45L48 46L49 46L49 47L50 47L50 46L52 46L52 45L54 45L54 44L53 44L53 43L52 43L52 41L51 41L51 43L50 43L50 42L49 42L49 41L48 41L48 42L49 42L49 43L47 43L47 42L46 42L46 41L47 41L47 40L49 40L49 39L50 39L50 37L49 37L49 35L48 35L48 34ZM11 35L11 36L13 36L13 35ZM38 35L38 36L40 36L40 35ZM47 35L47 36L46 36L46 38L47 38L47 39L48 39L48 38L49 38L49 37L48 37L48 35ZM3 36L3 38L5 38L5 37L4 37L4 36ZM47 37L47 38L48 38L48 37ZM51 37L51 38L52 38L52 37ZM28 38L28 39L27 39L27 40L25 40L25 41L24 41L24 39L23 39L23 42L26 42L26 41L27 41L27 42L28 42L28 43L29 43L29 44L28 44L28 45L27 45L27 46L26 46L26 47L27 47L27 46L28 46L28 45L29 45L29 44L30 44L30 46L31 46L31 47L32 47L32 46L33 46L33 47L34 47L34 45L36 45L36 46L37 46L37 44L33 44L33 43L32 43L32 41L31 41L31 43L29 43L29 42L30 42L30 41L29 41L29 40L31 40L31 39L29 39L29 38ZM39 38L39 39L40 39L40 41L39 41L39 43L40 43L40 42L41 42L41 41L42 41L42 40L41 40L41 39L40 39L40 38ZM7 39L7 40L6 40L6 41L7 41L7 40L9 40L9 39ZM18 40L18 41L17 41L17 42L16 42L16 43L18 43L18 41L19 41L19 40ZM28 41L28 42L29 42L29 41ZM0 42L0 43L1 43L1 42ZM49 43L49 44L50 44L50 45L51 45L51 44L52 44L52 43L51 43L51 44L50 44L50 43ZM4 44L4 45L5 45L5 44ZM15 44L15 46L16 46L16 44ZM31 45L31 46L32 46L32 45ZM1 46L1 47L2 47L2 46ZM3 46L3 47L5 47L5 46ZM21 46L21 47L22 47L22 46ZM19 47L19 48L17 48L17 50L19 50L19 48L20 48L20 47ZM6 48L6 49L7 49L7 48ZM44 48L44 49L45 49L45 48ZM14 49L14 50L15 50L15 49ZM27 49L27 52L30 52L30 49ZM49 49L49 52L52 52L52 49ZM28 50L28 51L29 51L29 50ZM42 50L42 51L43 51L43 50ZM50 50L50 51L51 51L51 50ZM21 51L21 52L22 52L22 55L23 55L23 53L24 53L24 52L22 52L22 51ZM31 51L31 52L32 52L32 51ZM46 51L46 52L45 52L45 53L46 53L46 52L47 52L47 51ZM42 52L42 53L44 53L44 52ZM54 52L54 53L55 53L55 54L57 54L57 52L56 52L56 53L55 53L55 52ZM30 53L30 54L31 54L31 53ZM49 53L49 54L51 54L51 55L52 55L52 54L51 54L51 53ZM40 54L40 55L41 55L41 56L42 56L42 55L43 55L43 54ZM14 56L14 57L15 57L15 56ZM26 56L26 57L27 57L27 56ZM44 56L44 57L45 57L45 56ZM56 56L56 57L57 57L57 56ZM0 0L0 7L7 7L7 0ZM1 1L1 6L6 6L6 1ZM2 2L2 5L5 5L5 2ZM50 0L50 7L57 7L57 0ZM51 1L51 6L56 6L56 1ZM52 2L52 5L55 5L55 2ZM0 50L0 57L7 57L7 50ZM1 51L1 56L6 56L6 51ZM2 52L2 55L5 55L5 52Z" fill="#000000"/></g></g></svg>
