<?xml version="1.0" encoding="UTF-8"?>
<svg xmlns="http://www.w3.org/2000/svg" version="1.1" width="300" height="300" viewBox="0 0 300 300"><rect x="0" y="0" width="300" height="300" fill="#fefefe"/><g transform="scale(4.615)"><g transform="translate(4,4)"><path fill-rule="evenodd" d="M8 0L8 1L9 1L9 0ZM10 0L10 2L11 2L11 3L9 3L9 2L8 2L8 5L9 5L9 6L8 6L8 7L9 7L9 8L8 8L8 9L10 9L10 10L11 10L11 9L12 9L12 12L13 12L13 13L14 13L14 16L12 16L12 15L11 15L11 14L12 14L12 13L11 13L11 12L10 12L10 11L9 11L9 10L8 10L8 13L10 13L10 14L9 14L9 15L7 15L7 14L5 14L5 16L4 16L4 17L2 17L2 16L3 16L3 15L2 15L2 14L4 14L4 12L5 12L5 11L4 11L4 8L0 8L0 9L1 9L1 10L2 10L2 9L3 9L3 11L4 11L4 12L3 12L3 13L2 13L2 11L0 11L0 12L1 12L1 13L0 13L0 14L1 14L1 17L0 17L0 18L1 18L1 19L0 19L0 20L2 20L2 21L1 21L1 22L0 22L0 23L1 23L1 25L0 25L0 26L1 26L1 27L0 27L0 29L4 29L4 30L3 30L3 33L2 33L2 35L1 35L1 34L0 34L0 37L1 37L1 39L0 39L0 44L1 44L1 41L3 41L3 43L2 43L2 47L1 47L1 45L0 45L0 48L5 48L5 47L7 47L7 48L6 48L6 49L8 49L8 50L9 50L9 51L10 51L10 52L9 52L9 53L8 53L8 57L11 57L11 55L12 55L12 53L15 53L15 55L14 55L14 54L13 54L13 55L14 55L14 56L13 56L13 57L14 57L14 56L16 56L16 57L18 57L18 56L19 56L19 57L20 57L20 56L21 56L21 57L24 57L24 56L25 56L25 55L24 55L24 56L22 56L22 55L23 55L23 54L25 54L25 53L29 53L29 54L31 54L31 55L30 55L30 56L31 56L31 57L32 57L32 55L33 55L33 54L36 54L36 55L34 55L34 56L33 56L33 57L36 57L36 55L37 55L37 54L36 54L36 53L35 53L35 52L36 52L36 51L37 51L37 52L38 52L38 53L39 53L39 54L38 54L38 57L41 57L41 56L42 56L42 57L43 57L43 55L44 55L44 56L45 56L45 57L46 57L46 54L47 54L47 57L48 57L48 55L49 55L49 57L51 57L51 54L52 54L52 53L53 53L53 56L52 56L52 57L55 57L55 56L54 56L54 55L55 55L55 54L56 54L56 49L57 49L57 48L56 48L56 49L55 49L55 50L53 50L53 49L54 49L54 47L57 47L57 45L56 45L56 46L55 46L55 44L56 44L56 41L57 41L57 40L56 40L56 41L55 41L55 42L54 42L54 40L55 40L55 39L53 39L53 38L52 38L52 37L49 37L49 36L51 36L51 35L52 35L52 36L53 36L53 37L55 37L55 38L56 38L56 39L57 39L57 38L56 38L56 37L55 37L55 36L57 36L57 34L56 34L56 33L57 33L57 31L56 31L56 30L57 30L57 28L56 28L56 24L54 24L54 23L57 23L57 19L55 19L55 17L56 17L56 18L57 18L57 15L55 15L55 14L54 14L54 10L53 10L53 9L55 9L55 8L52 8L52 9L51 9L51 10L52 10L52 11L53 11L53 13L52 13L52 12L51 12L51 11L50 11L50 10L49 10L49 9L50 9L50 8L49 8L49 9L47 9L47 10L46 10L46 8L47 8L47 5L48 5L48 0L46 0L46 1L44 1L44 2L42 2L42 3L43 3L43 5L45 5L45 6L44 6L44 7L45 7L45 6L46 6L46 8L45 8L45 9L44 9L44 10L43 10L43 9L42 9L42 8L43 8L43 6L42 6L42 8L40 8L40 7L41 7L41 4L38 4L38 3L39 3L39 2L37 2L37 1L38 1L38 0L37 0L37 1L36 1L36 0L35 0L35 1L34 1L34 3L35 3L35 4L36 4L36 5L37 5L37 6L36 6L36 7L35 7L35 6L34 6L34 5L33 5L33 6L32 6L32 5L31 5L31 4L32 4L32 3L33 3L33 0L32 0L32 1L31 1L31 0L28 0L28 1L29 1L29 2L28 2L28 3L29 3L29 2L30 2L30 3L31 3L31 4L26 4L26 1L25 1L25 0L23 0L23 1L22 1L22 0L21 0L21 2L20 2L20 0L17 0L17 2L16 2L16 1L15 1L15 2L16 2L16 3L17 3L17 4L19 4L19 5L15 5L15 4L14 4L14 3L13 3L13 0L12 0L12 1L11 1L11 0ZM39 0L39 1L40 1L40 2L41 2L41 1L43 1L43 0L41 0L41 1L40 1L40 0ZM18 1L18 3L19 3L19 4L20 4L20 5L21 5L21 4L23 4L23 3L24 3L24 2L25 2L25 1L23 1L23 3L20 3L20 2L19 2L19 1ZM30 1L30 2L31 2L31 1ZM35 1L35 2L36 2L36 1ZM46 1L46 2L45 2L45 3L44 3L44 4L45 4L45 5L47 5L47 3L46 3L46 2L47 2L47 1ZM11 3L11 4L9 4L9 5L10 5L10 6L9 6L9 7L10 7L10 6L11 6L11 8L13 8L13 10L14 10L14 11L16 11L16 10L17 10L17 7L18 7L18 6L17 6L17 7L16 7L16 6L15 6L15 8L13 8L13 7L14 7L14 4L12 4L12 3ZM11 4L11 5L12 5L12 7L13 7L13 5L12 5L12 4ZM24 4L24 6L23 6L23 7L22 7L22 6L21 6L21 7L20 7L20 6L19 6L19 7L20 7L20 10L21 10L21 8L23 8L23 9L26 9L26 6L25 6L25 5L26 5L26 4ZM27 5L27 8L30 8L30 5ZM38 5L38 6L37 6L37 8L36 8L36 9L34 9L34 6L33 6L33 8L32 8L32 6L31 6L31 9L32 9L32 10L30 10L30 11L28 11L28 10L29 10L29 9L28 9L28 10L26 10L26 11L25 11L25 10L23 10L23 11L21 11L21 12L20 12L20 13L21 13L21 15L20 15L20 16L19 16L19 13L18 13L18 12L19 12L19 10L18 10L18 12L17 12L17 13L16 13L16 12L15 12L15 15L16 15L16 16L17 16L17 18L18 18L18 17L19 17L19 19L15 19L15 18L16 18L16 17L14 17L14 18L13 18L13 17L12 17L12 16L10 16L10 15L9 15L9 16L8 16L8 17L5 17L5 18L2 18L2 17L1 17L1 18L2 18L2 20L3 20L3 21L5 21L5 20L3 20L3 19L6 19L6 20L7 20L7 19L9 19L9 20L8 20L8 21L9 21L9 20L11 20L11 21L10 21L10 22L9 22L9 23L8 23L8 22L7 22L7 21L6 21L6 22L7 22L7 23L6 23L6 24L5 24L5 22L1 22L1 23L2 23L2 24L4 24L4 25L3 25L3 26L2 26L2 27L1 27L1 28L3 28L3 26L4 26L4 25L5 25L5 26L9 26L9 30L12 30L12 31L13 31L13 30L12 30L12 29L13 29L13 28L14 28L14 27L15 27L15 28L17 28L17 30L16 30L16 29L15 29L15 30L16 30L16 32L17 32L17 33L15 33L15 31L14 31L14 32L11 32L11 33L10 33L10 34L7 34L7 33L5 33L5 34L7 34L7 35L6 35L6 36L7 36L7 37L4 37L4 38L3 38L3 37L2 37L2 36L1 36L1 37L2 37L2 39L1 39L1 40L3 40L3 39L4 39L4 38L5 38L5 39L6 39L6 40L5 40L5 42L9 42L9 43L8 43L8 44L7 44L7 43L5 43L5 44L4 44L4 43L3 43L3 45L4 45L4 46L3 46L3 47L5 47L5 44L7 44L7 45L6 45L6 46L7 46L7 47L8 47L8 49L9 49L9 47L10 47L10 48L12 48L12 49L11 49L11 50L13 50L13 48L12 48L12 44L13 44L13 45L14 45L14 51L11 51L11 52L10 52L10 53L11 53L11 52L14 52L14 51L16 51L16 52L15 52L15 53L16 53L16 54L17 54L17 55L19 55L19 56L20 56L20 55L22 55L22 54L21 54L21 53L20 53L20 55L19 55L19 52L20 52L20 50L19 50L19 49L16 49L16 48L15 48L15 46L16 46L16 47L17 47L17 48L20 48L20 49L21 49L21 52L22 52L22 53L23 53L23 52L24 52L24 53L25 53L25 52L26 52L26 49L25 49L25 48L28 48L28 47L27 47L27 46L29 46L29 48L31 48L31 49L33 49L33 48L32 48L32 45L33 45L33 47L34 47L34 48L37 48L37 49L36 49L36 50L37 50L37 49L38 49L38 48L39 48L39 49L40 49L40 50L39 50L39 51L38 51L38 52L40 52L40 54L41 54L41 53L42 53L42 54L43 54L43 51L46 51L46 50L47 50L47 52L48 52L48 48L46 48L46 46L47 46L47 47L49 47L49 48L50 48L50 47L49 47L49 46L47 46L47 45L50 45L50 46L51 46L51 48L52 48L52 47L53 47L53 44L55 44L55 43L54 43L54 42L53 42L53 43L52 43L52 46L51 46L51 42L50 42L50 41L52 41L52 40L53 40L53 39L51 39L51 38L50 38L50 39L51 39L51 40L50 40L50 41L47 41L47 40L49 40L49 38L48 38L48 35L49 35L49 34L50 34L50 33L49 33L49 32L48 32L48 30L47 30L47 32L45 32L45 31L44 31L44 34L45 34L45 36L44 36L44 37L41 37L41 35L42 35L42 36L43 36L43 35L42 35L42 34L41 34L41 35L37 35L37 37L34 37L34 38L36 38L36 39L35 39L35 40L34 40L34 41L36 41L36 42L34 42L34 43L35 43L35 44L34 44L34 45L33 45L33 42L32 42L32 43L31 43L31 46L30 46L30 44L27 44L27 43L28 43L28 42L25 42L25 41L26 41L26 39L27 39L27 38L29 38L29 36L32 36L32 38L30 38L30 39L28 39L28 40L27 40L27 41L29 41L29 42L30 42L30 40L33 40L33 39L32 39L32 38L33 38L33 36L36 36L36 35L34 35L34 34L35 34L35 31L37 31L37 32L36 32L36 33L37 33L37 32L38 32L38 34L39 34L39 31L38 31L38 30L41 30L41 31L40 31L40 32L41 32L41 31L43 31L43 30L46 30L46 26L47 26L47 27L48 27L48 26L49 26L49 25L50 25L50 24L51 24L51 25L52 25L52 26L53 26L53 27L55 27L55 25L53 25L53 24L51 24L51 23L52 23L52 22L51 22L51 21L50 21L50 20L53 20L53 21L54 21L54 22L53 22L53 23L54 23L54 22L56 22L56 21L54 21L54 20L55 20L55 19L51 19L51 16L52 16L52 17L53 17L53 18L54 18L54 17L53 17L53 16L52 16L52 15L54 15L54 14L52 14L52 13L51 13L51 12L50 12L50 13L51 13L51 16L50 16L50 15L49 15L49 10L48 10L48 11L45 11L45 10L44 10L44 11L43 11L43 10L42 10L42 11L40 11L40 12L39 12L39 13L40 13L40 14L41 14L41 16L40 16L40 17L39 17L39 15L36 15L36 14L35 14L35 12L38 12L38 11L39 11L39 7L40 7L40 5ZM24 6L24 7L23 7L23 8L24 8L24 7L25 7L25 6ZM28 6L28 7L29 7L29 6ZM38 6L38 7L39 7L39 6ZM48 6L48 7L49 7L49 6ZM6 8L6 9L5 9L5 10L6 10L6 11L7 11L7 10L6 10L6 9L7 9L7 8ZM18 8L18 9L19 9L19 8ZM56 8L56 9L57 9L57 8ZM37 9L37 11L38 11L38 9ZM40 9L40 10L41 10L41 9ZM33 10L33 11L30 11L30 12L31 12L31 14L30 14L30 13L28 13L28 12L26 12L26 13L25 13L25 14L23 14L23 15L24 15L24 16L23 16L23 18L22 18L22 17L21 17L21 16L20 16L20 17L21 17L21 19L19 19L19 20L21 20L21 21L22 21L22 23L21 23L21 22L19 22L19 21L18 21L18 20L16 20L16 23L15 23L15 22L14 22L14 20L15 20L15 19L12 19L12 18L11 18L11 17L10 17L10 18L11 18L11 20L13 20L13 22L12 22L12 21L11 21L11 22L12 22L12 24L11 24L11 23L10 23L10 24L11 24L11 25L12 25L12 26L10 26L10 29L11 29L11 27L13 27L13 22L14 22L14 23L15 23L15 27L16 27L16 23L17 23L17 25L19 25L19 26L17 26L17 27L19 27L19 26L22 26L22 27L24 27L24 28L26 28L26 30L24 30L24 29L21 29L21 27L20 27L20 29L21 29L21 30L20 30L20 32L21 32L21 34L22 34L22 33L23 33L23 35L21 35L21 36L23 36L23 38L22 38L22 37L21 37L21 38L20 38L20 37L19 37L19 34L20 34L20 33L19 33L19 34L18 34L18 33L17 33L17 34L16 34L16 36L17 36L17 37L19 37L19 39L17 39L17 38L15 38L15 35L14 35L14 33L13 33L13 35L12 35L12 37L11 37L11 39L7 39L7 38L6 38L6 39L7 39L7 40L6 40L6 41L9 41L9 40L11 40L11 41L12 41L12 40L13 40L13 42L10 42L10 43L9 43L9 44L10 44L10 43L13 43L13 44L14 44L14 45L17 45L17 46L19 46L19 47L21 47L21 48L23 48L23 49L22 49L22 52L23 52L23 49L24 49L24 48L25 48L25 45L26 45L26 46L27 46L27 45L26 45L26 43L25 43L25 42L23 42L23 41L22 41L22 40L21 40L21 38L22 38L22 39L24 39L24 41L25 41L25 39L24 39L24 37L26 37L26 38L27 38L27 36L29 36L29 35L30 35L30 34L31 34L31 32L33 32L33 33L32 33L32 36L33 36L33 33L34 33L34 31L35 31L35 30L36 30L36 29L34 29L34 28L36 28L36 27L37 27L37 30L38 30L38 29L40 29L40 28L39 28L39 27L38 27L38 26L39 26L39 25L38 25L38 24L39 24L39 23L41 23L41 25L40 25L40 27L41 27L41 30L42 30L42 29L45 29L45 27L43 27L43 26L42 26L42 25L44 25L44 26L46 26L46 25L47 25L47 26L48 26L48 24L50 24L50 23L49 23L49 21L48 21L48 20L45 20L45 22L44 22L44 21L43 21L43 20L41 20L41 18L42 18L42 19L43 19L43 18L42 18L42 17L45 17L45 18L44 18L44 19L46 19L46 18L48 18L48 19L49 19L49 20L50 20L50 18L48 18L48 17L49 17L49 16L48 16L48 14L47 14L47 15L46 15L46 17L45 17L45 16L44 16L44 15L45 15L45 14L46 14L46 13L45 13L45 14L42 14L42 17L41 17L41 18L39 18L39 19L40 19L40 20L38 20L38 19L36 19L36 20L35 20L35 22L37 22L37 24L36 24L36 23L35 23L35 24L33 24L33 23L34 23L34 22L32 22L32 23L31 23L31 20L32 20L32 19L30 19L30 17L29 17L29 16L31 16L31 17L33 17L33 18L35 18L35 17L34 17L34 16L35 16L35 15L33 15L33 14L34 14L34 12L35 12L35 11L36 11L36 10L35 10L35 11L34 11L34 10ZM55 10L55 13L56 13L56 11L57 11L57 10ZM23 11L23 12L22 12L22 13L23 13L23 12L25 12L25 11ZM42 11L42 12L43 12L43 13L44 13L44 12L43 12L43 11ZM6 12L6 13L7 13L7 12ZM32 12L32 13L33 13L33 12ZM1 13L1 14L2 14L2 13ZM26 13L26 14L25 14L25 15L26 15L26 16L27 16L27 13ZM16 14L16 15L18 15L18 14ZM6 15L6 16L7 16L7 15ZM28 15L28 16L29 16L29 15ZM32 15L32 16L33 16L33 15ZM24 17L24 18L23 18L23 19L21 19L21 20L23 20L23 21L24 21L24 22L25 22L25 25L24 25L24 24L23 24L23 23L22 23L22 25L23 25L23 26L25 26L25 25L29 25L29 26L31 26L31 25L29 25L29 24L31 24L31 23L29 23L29 21L30 21L30 20L29 20L29 21L28 21L28 23L27 23L27 22L25 22L25 19L26 19L26 18L27 18L27 20L26 20L26 21L27 21L27 20L28 20L28 18L29 18L29 17L26 17L26 18L25 18L25 17ZM36 17L36 18L37 18L37 17ZM6 18L6 19L7 19L7 18ZM24 18L24 19L25 19L25 18ZM33 20L33 21L34 21L34 20ZM36 20L36 21L38 21L38 22L39 22L39 21L38 21L38 20ZM17 21L17 23L19 23L19 22L18 22L18 21ZM46 21L46 22L47 22L47 21ZM42 22L42 23L43 23L43 22ZM7 23L7 24L6 24L6 25L9 25L9 24L8 24L8 23ZM20 23L20 24L21 24L21 23ZM26 23L26 24L27 24L27 23ZM44 23L44 25L45 25L45 24L46 24L46 23ZM32 24L32 25L33 25L33 24ZM34 25L34 27L35 27L35 25ZM5 27L5 30L8 30L8 27ZM27 27L27 30L30 30L30 27ZM32 27L32 28L33 28L33 27ZM42 27L42 28L43 28L43 27ZM49 27L49 30L52 30L52 27ZM6 28L6 29L7 29L7 28ZM18 28L18 29L19 29L19 28ZM28 28L28 29L29 29L29 28ZM47 28L47 29L48 29L48 28ZM50 28L50 29L51 29L51 28ZM53 28L53 30L56 30L56 29L54 29L54 28ZM31 29L31 31L32 31L32 29ZM0 30L0 33L1 33L1 32L2 32L2 30ZM18 30L18 32L19 32L19 30ZM21 30L21 32L22 32L22 31L23 31L23 33L24 33L24 32L25 32L25 34L24 34L24 35L23 35L23 36L27 36L27 34L28 34L28 35L29 35L29 33L30 33L30 31L29 31L29 32L28 32L28 31L24 31L24 30ZM4 31L4 32L8 32L8 33L9 33L9 31ZM52 31L52 34L54 34L54 33L55 33L55 31ZM26 32L26 34L25 34L25 35L26 35L26 34L27 34L27 33L28 33L28 32ZM42 32L42 33L43 33L43 32ZM3 33L3 34L4 34L4 33ZM11 33L11 34L10 34L10 35L11 35L11 34L12 34L12 33ZM17 34L17 36L18 36L18 34ZM46 34L46 36L45 36L45 39L44 39L44 38L41 38L41 37L40 37L40 36L39 36L39 37L37 37L37 39L38 39L38 40L37 40L37 41L40 41L40 42L41 42L41 43L40 43L40 44L38 44L38 43L39 43L39 42L37 42L37 44L38 44L38 45L36 45L36 44L35 44L35 45L36 45L36 46L34 46L34 47L38 47L38 45L41 45L41 46L40 46L40 47L43 47L43 50L46 50L46 49L44 49L44 47L45 47L45 45L42 45L42 43L44 43L44 44L49 44L49 43L50 43L50 42L47 42L47 41L46 41L46 40L47 40L47 39L48 39L48 38L46 38L46 37L47 37L47 35L48 35L48 34ZM3 35L3 36L5 36L5 35ZM54 35L54 36L55 36L55 35ZM8 36L8 37L10 37L10 36ZM13 37L13 38L12 38L12 39L14 39L14 40L15 40L15 39L14 39L14 37ZM16 39L16 41L19 41L19 42L21 42L21 44L19 44L19 43L18 43L18 42L17 42L17 45L20 45L20 46L21 46L21 47L22 47L22 46L23 46L23 44L25 44L25 43L23 43L23 44L22 44L22 41L19 41L19 40L17 40L17 39ZM40 39L40 41L42 41L42 42L44 42L44 43L45 43L45 41L44 41L44 40L43 40L43 41L42 41L42 39ZM45 39L45 40L46 40L46 39ZM46 42L46 43L47 43L47 42ZM21 44L21 46L22 46L22 44ZM8 45L8 47L9 47L9 45ZM10 46L10 47L11 47L11 46ZM23 47L23 48L24 48L24 47ZM41 48L41 49L42 49L42 48ZM27 49L27 52L30 52L30 49ZM34 49L34 50L35 50L35 49ZM49 49L49 52L52 52L52 49ZM17 50L17 51L18 51L18 50ZM24 50L24 51L25 51L25 50ZM28 50L28 51L29 51L29 50ZM31 50L31 53L32 53L32 51L33 51L33 52L35 52L35 51L33 51L33 50ZM50 50L50 51L51 51L51 50ZM40 51L40 52L41 52L41 51ZM45 52L45 53L46 53L46 52ZM54 52L54 54L55 54L55 52ZM17 53L17 54L18 54L18 53ZM47 53L47 54L50 54L50 53ZM10 54L10 55L9 55L9 56L10 56L10 55L11 55L11 54ZM44 54L44 55L45 55L45 54ZM27 55L27 56L28 56L28 55ZM39 55L39 56L41 56L41 55ZM56 55L56 56L57 56L57 55ZM0 0L0 7L7 7L7 0ZM1 1L1 6L6 6L6 1ZM2 2L2 5L5 5L5 2ZM50 0L50 7L57 7L57 0ZM51 1L51 6L56 6L56 1ZM52 2L52 5L55 5L55 2ZM0 50L0 57L7 57L7 50ZM1 51L1 56L6 56L6 51ZM2 52L2 55L5 55L5 52Z" fill="#000000"/></g></g></svg>
