<?xml version="1.0" encoding="UTF-8"?>
<svg xmlns="http://www.w3.org/2000/svg" version="1.1" width="300" height="300" viewBox="0 0 300 300"><rect x="0" y="0" width="300" height="300" fill="#fefefe"/><g transform="scale(4.615)"><g transform="translate(4,4)"><path fill-rule="evenodd" d="M9 0L9 1L8 1L8 2L10 2L10 3L8 3L8 4L12 4L12 5L13 5L13 6L12 6L12 8L13 8L13 11L14 11L14 12L12 12L12 13L15 13L15 14L14 14L14 16L12 16L12 15L13 15L13 14L12 14L12 15L11 15L11 16L10 16L10 17L9 17L9 16L8 16L8 15L10 15L10 13L9 13L9 12L8 12L8 11L10 11L10 12L11 12L11 11L10 11L10 10L12 10L12 9L9 9L9 8L6 8L6 9L7 9L7 10L6 10L6 11L5 11L5 12L4 12L4 13L3 13L3 12L2 12L2 11L3 11L3 10L5 10L5 8L0 8L0 11L1 11L1 12L0 12L0 13L1 13L1 12L2 12L2 13L3 13L3 14L4 14L4 13L5 13L5 12L6 12L6 13L8 13L8 14L5 14L5 15L3 15L3 17L1 17L1 16L2 16L2 15L1 15L1 14L0 14L0 17L1 17L1 18L6 18L6 19L7 19L7 20L6 20L6 21L8 21L8 22L5 22L5 21L4 21L4 20L3 20L3 22L5 22L5 23L2 23L2 21L1 21L1 19L0 19L0 21L1 21L1 23L0 23L0 25L1 25L1 26L0 26L0 28L2 28L2 26L4 26L4 28L3 28L3 29L1 29L1 30L0 30L0 38L1 38L1 37L2 37L2 39L3 39L3 36L2 36L2 35L1 35L1 34L3 34L3 35L4 35L4 36L5 36L5 37L7 37L7 38L6 38L6 39L5 39L5 40L4 40L4 41L3 41L3 43L2 43L2 41L0 41L0 43L1 43L1 44L0 44L0 45L1 45L1 46L0 46L0 48L5 48L5 47L7 47L7 48L6 48L6 49L7 49L7 48L8 48L8 51L9 51L9 50L10 50L10 52L8 52L8 57L9 57L9 56L10 56L10 55L9 55L9 54L10 54L10 52L12 52L12 53L11 53L11 57L13 57L13 56L12 56L12 55L14 55L14 54L15 54L15 55L16 55L16 56L17 56L17 57L20 57L20 56L17 56L17 54L18 54L18 55L20 55L20 54L19 54L19 53L20 53L20 52L21 52L21 51L19 51L19 50L20 50L20 49L21 49L21 50L22 50L22 51L23 51L23 50L25 50L25 51L26 51L26 52L24 52L24 53L23 53L23 54L21 54L21 56L24 56L24 57L26 57L26 56L24 56L24 55L23 55L23 54L24 54L24 53L25 53L25 55L26 55L26 54L30 54L30 53L31 53L31 51L32 51L32 52L33 52L33 53L32 53L32 54L31 54L31 56L30 56L30 55L29 55L29 56L27 56L27 57L29 57L29 56L30 56L30 57L31 57L31 56L35 56L35 57L39 57L39 56L40 56L40 55L41 55L41 56L42 56L42 55L44 55L44 56L43 56L43 57L44 57L44 56L45 56L45 57L47 57L47 55L49 55L49 56L48 56L48 57L49 57L49 56L50 56L50 57L52 57L52 55L51 55L51 53L52 53L52 54L55 54L55 53L56 53L56 52L55 52L55 51L56 51L56 50L57 50L57 48L56 48L56 46L57 46L57 45L56 45L56 44L55 44L55 43L56 43L56 41L55 41L55 39L57 39L57 36L55 36L55 35L56 35L56 34L57 34L57 32L56 32L56 30L57 30L57 29L54 29L54 28L55 28L55 27L56 27L56 28L57 28L57 27L56 27L56 26L57 26L57 25L56 25L56 22L57 22L57 21L56 21L56 22L55 22L55 23L53 23L53 21L51 21L51 20L52 20L52 19L53 19L53 20L55 20L55 19L56 19L56 16L57 16L57 15L56 15L56 14L57 14L57 11L56 11L56 8L55 8L55 10L54 10L54 11L51 11L51 10L50 10L50 8L49 8L49 9L48 9L48 8L47 8L47 5L48 5L48 0L46 0L46 1L45 1L45 2L44 2L44 3L43 3L43 4L42 4L42 2L43 2L43 0L41 0L41 1L40 1L40 0L39 0L39 1L38 1L38 0L37 0L37 1L38 1L38 2L39 2L39 3L38 3L38 4L37 4L37 3L36 3L36 0L35 0L35 1L33 1L33 2L32 2L32 3L31 3L31 0L27 0L27 1L26 1L26 0L23 0L23 2L25 2L25 1L26 1L26 2L27 2L27 3L29 3L29 4L26 4L26 3L23 3L23 4L24 4L24 5L22 5L22 4L19 4L19 3L17 3L17 4L19 4L19 5L20 5L20 7L19 7L19 6L18 6L18 7L19 7L19 8L16 8L16 7L17 7L17 6L16 6L16 7L15 7L15 5L16 5L16 4L15 4L15 5L13 5L13 4L14 4L14 2L17 2L17 1L14 1L14 0L13 0L13 1L14 1L14 2L12 2L12 0L11 0L11 2L10 2L10 0ZM18 0L18 2L20 2L20 0ZM21 0L21 1L22 1L22 0ZM28 1L28 2L30 2L30 1ZM46 1L46 2L47 2L47 1ZM11 2L11 3L12 3L12 2ZM21 2L21 3L22 3L22 2ZM33 2L33 3L32 3L32 4L31 4L31 3L30 3L30 4L31 4L31 8L32 8L32 10L31 10L31 11L29 11L29 12L28 12L28 13L27 13L27 15L26 15L26 16L25 16L25 14L26 14L26 12L27 12L27 11L28 11L28 10L29 10L29 9L28 9L28 10L27 10L27 11L26 11L26 12L25 12L25 10L23 10L23 9L25 9L25 8L26 8L26 4L25 4L25 8L24 8L24 6L23 6L23 8L20 8L20 10L19 10L19 13L20 13L20 14L17 14L17 13L18 13L18 12L17 12L17 13L16 13L16 12L15 12L15 13L16 13L16 16L14 16L14 17L13 17L13 19L12 19L12 20L13 20L13 21L12 21L12 22L13 22L13 21L14 21L14 23L15 23L15 24L13 24L13 23L11 23L11 24L9 24L9 23L10 23L10 22L8 22L8 25L11 25L11 26L10 26L10 28L9 28L9 30L10 30L10 29L11 29L11 31L10 31L10 33L9 33L9 31L5 31L5 32L4 32L4 31L3 31L3 30L4 30L4 29L3 29L3 30L2 30L2 31L1 31L1 33L4 33L4 34L8 34L8 35L5 35L5 36L7 36L7 37L8 37L8 38L7 38L7 39L6 39L6 40L10 40L10 39L9 39L9 37L8 37L8 35L9 35L9 36L10 36L10 38L11 38L11 39L12 39L12 38L11 38L11 37L13 37L13 38L14 38L14 37L13 37L13 35L12 35L12 33L13 33L13 34L14 34L14 36L15 36L15 37L16 37L16 38L15 38L15 39L14 39L14 40L13 40L13 41L14 41L14 42L13 42L13 43L11 43L11 42L12 42L12 41L11 41L11 42L10 42L10 41L9 41L9 42L8 42L8 41L4 41L4 44L2 44L2 45L3 45L3 47L5 47L5 46L7 46L7 45L8 45L8 47L9 47L9 49L10 49L10 50L11 50L11 51L12 51L12 52L13 52L13 53L12 53L12 54L13 54L13 53L15 53L15 54L16 54L16 53L17 53L17 52L19 52L19 51L17 51L17 49L14 49L14 50L13 50L13 48L14 48L14 47L15 47L15 46L17 46L17 45L18 45L18 44L17 44L17 45L16 45L16 44L15 44L15 45L13 45L13 47L12 47L12 50L11 50L11 47L9 47L9 46L10 46L10 45L12 45L12 44L13 44L13 43L14 43L14 42L15 42L15 43L18 43L18 42L19 42L19 43L20 43L20 44L19 44L19 45L20 45L20 46L19 46L19 49L20 49L20 47L21 47L21 49L23 49L23 47L24 47L24 46L23 46L23 45L24 45L24 44L25 44L25 48L24 48L24 49L25 49L25 50L26 50L26 49L25 49L25 48L29 48L29 46L30 46L30 45L28 45L28 44L25 44L25 43L27 43L27 42L32 42L32 43L31 43L31 44L32 44L32 45L31 45L31 47L32 47L32 45L33 45L33 46L35 46L35 47L33 47L33 48L32 48L32 49L31 49L31 50L32 50L32 51L33 51L33 50L34 50L34 51L35 51L35 50L36 50L36 52L37 52L37 53L38 53L38 54L37 54L37 56L39 56L39 55L38 55L38 54L40 54L40 53L42 53L42 50L41 50L41 48L42 48L42 49L43 49L43 48L44 48L44 49L45 49L45 50L44 50L44 51L47 51L47 52L44 52L44 53L43 53L43 54L44 54L44 55L45 55L45 54L48 54L48 50L47 50L47 49L48 49L48 48L49 48L49 47L51 47L51 48L52 48L52 46L53 46L53 47L55 47L55 46L56 46L56 45L55 45L55 44L54 44L54 45L55 45L55 46L53 46L53 45L52 45L52 44L53 44L53 43L54 43L54 42L53 42L53 41L54 41L54 40L53 40L53 41L51 41L51 42L50 42L50 43L49 43L49 42L48 42L48 41L49 41L49 39L51 39L51 38L53 38L53 39L54 39L54 38L53 38L53 35L55 35L55 34L54 34L54 33L52 33L52 32L53 32L53 31L52 31L52 32L51 32L51 31L48 31L48 29L46 29L46 30L47 30L47 31L45 31L45 32L43 32L43 31L44 31L44 30L45 30L45 28L46 28L46 27L47 27L47 28L48 28L48 27L47 27L47 25L48 25L48 24L49 24L49 25L50 25L50 26L51 26L51 25L54 25L54 24L53 24L53 23L51 23L51 25L50 25L50 22L51 22L51 21L49 21L49 20L44 20L44 18L46 18L46 19L47 19L47 17L48 17L48 16L49 16L49 15L50 15L50 16L51 16L51 17L50 17L50 19L52 19L52 18L51 18L51 17L53 17L53 18L55 18L55 16L53 16L53 15L52 15L52 16L51 16L51 15L50 15L50 14L51 14L51 12L50 12L50 10L48 10L48 9L47 9L47 8L46 8L46 6L45 6L45 4L46 4L46 5L47 5L47 3L44 3L44 6L43 6L43 8L44 8L44 9L43 9L43 11L42 11L42 10L41 10L41 9L42 9L42 8L41 8L41 7L42 7L42 6L41 6L41 5L40 5L40 4L41 4L41 3L39 3L39 4L38 4L38 6L37 6L37 7L36 7L36 5L37 5L37 4L36 4L36 5L35 5L35 3L34 3L34 2ZM32 4L32 5L34 5L34 7L33 7L33 6L32 6L32 7L33 7L33 9L34 9L34 8L35 8L35 9L37 9L37 10L36 10L36 12L35 12L35 14L33 14L33 13L34 13L34 12L33 12L33 13L32 13L32 12L31 12L31 13L30 13L30 14L29 14L29 13L28 13L28 14L29 14L29 16L28 16L28 15L27 15L27 16L28 16L28 17L22 17L22 16L20 16L20 17L19 17L19 15L18 15L18 16L17 16L17 17L18 17L18 18L17 18L17 19L16 19L16 18L15 18L15 19L16 19L16 20L15 20L15 21L16 21L16 22L15 22L15 23L16 23L16 24L17 24L17 26L15 26L15 25L14 25L14 27L15 27L15 28L14 28L14 29L15 29L15 33L17 33L17 34L18 34L18 33L21 33L21 34L22 34L22 35L23 35L23 34L24 34L24 36L23 36L23 37L24 37L24 38L22 38L22 37L19 37L19 36L20 36L20 35L18 35L18 36L17 36L17 35L16 35L16 34L15 34L15 35L16 35L16 36L17 36L17 37L18 37L18 38L17 38L17 40L16 40L16 39L15 39L15 41L17 41L17 42L18 42L18 41L19 41L19 42L20 42L20 41L21 41L21 40L22 40L22 39L24 39L24 40L23 40L23 41L24 41L24 42L22 42L22 43L21 43L21 44L20 44L20 45L21 45L21 47L23 47L23 46L22 46L22 45L23 45L23 43L25 43L25 41L24 41L24 40L25 40L25 37L27 37L27 38L26 38L26 39L27 39L27 41L26 41L26 42L27 42L27 41L29 41L29 40L28 40L28 39L27 39L27 38L28 38L28 37L27 37L27 32L28 32L28 33L29 33L29 34L30 34L30 36L29 36L29 37L31 37L31 38L29 38L29 39L33 39L33 40L35 40L35 42L37 42L37 43L36 43L36 44L35 44L35 43L34 43L34 42L33 42L33 41L32 41L32 40L31 40L31 41L32 41L32 42L33 42L33 43L32 43L32 44L33 44L33 43L34 43L34 45L35 45L35 46L37 46L37 47L36 47L36 48L33 48L33 49L32 49L32 50L33 50L33 49L36 49L36 50L38 50L38 51L37 51L37 52L38 52L38 53L39 53L39 51L40 51L40 52L41 52L41 50L38 50L38 49L39 49L39 48L41 48L41 46L43 46L43 45L44 45L44 48L46 48L46 47L47 47L47 48L48 48L48 47L49 47L49 46L48 46L48 47L47 47L47 46L45 46L45 45L47 45L47 43L48 43L48 42L45 42L45 41L44 41L44 40L45 40L45 39L42 39L42 38L43 38L43 37L44 37L44 38L45 38L45 37L44 37L44 36L47 36L47 34L45 34L45 33L43 33L43 32L41 32L41 33L39 33L39 34L40 34L40 35L39 35L39 37L40 37L40 38L41 38L41 39L42 39L42 40L41 40L41 42L42 42L42 44L41 44L41 43L40 43L40 44L41 44L41 46L40 46L40 47L39 47L39 46L38 46L38 45L39 45L39 42L40 42L40 41L39 41L39 42L38 42L38 40L40 40L40 39L38 39L38 40L35 40L35 39L37 39L37 38L38 38L38 37L37 37L37 36L38 36L38 33L37 33L37 32L35 32L35 34L37 34L37 36L35 36L35 35L33 35L33 34L32 34L32 31L36 31L36 29L38 29L38 28L39 28L39 27L41 27L41 28L42 28L42 26L43 26L43 27L44 27L44 28L43 28L43 29L39 29L39 30L38 30L38 32L39 32L39 31L41 31L41 30L43 30L43 29L44 29L44 28L45 28L45 27L46 27L46 26L45 26L45 25L46 25L46 24L47 24L47 23L49 23L49 21L47 21L47 22L46 22L46 23L45 23L45 25L44 25L44 20L43 20L43 18L44 18L44 15L45 15L45 16L46 16L46 15L47 15L47 16L48 16L48 15L49 15L49 14L50 14L50 12L49 12L49 11L48 11L48 10L46 10L46 11L45 11L45 9L44 9L44 11L45 11L45 12L49 12L49 13L47 13L47 14L45 14L45 13L44 13L44 12L43 12L43 13L41 13L41 14L44 14L44 15L42 15L42 16L41 16L41 15L40 15L40 14L38 14L38 13L40 13L40 12L41 12L41 10L38 10L38 8L40 8L40 7L41 7L41 6L40 6L40 5L39 5L39 6L38 6L38 7L37 7L37 8L35 8L35 5L34 5L34 4ZM8 5L8 7L9 7L9 5ZM27 5L27 8L30 8L30 5ZM10 6L10 7L11 7L11 6ZM13 6L13 7L14 7L14 10L17 10L17 11L18 11L18 9L15 9L15 7L14 7L14 6ZM21 6L21 7L22 7L22 6ZM28 6L28 7L29 7L29 6ZM39 6L39 7L40 7L40 6ZM44 6L44 7L45 7L45 6ZM48 6L48 7L49 7L49 6ZM51 8L51 9L52 9L52 10L53 10L53 9L54 9L54 8L53 8L53 9L52 9L52 8ZM1 9L1 11L2 11L2 9ZM7 10L7 11L6 11L6 12L7 12L7 11L8 11L8 10ZM20 10L20 13L21 13L21 14L20 14L20 15L23 15L23 16L24 16L24 14L25 14L25 12L24 12L24 13L23 13L23 10L22 10L22 11L21 11L21 10ZM32 10L32 11L33 11L33 10ZM39 11L39 12L40 12L40 11ZM55 11L55 12L54 12L54 13L55 13L55 14L56 14L56 11ZM21 12L21 13L22 13L22 14L23 14L23 13L22 13L22 12ZM52 12L52 13L53 13L53 12ZM31 13L31 14L30 14L30 15L32 15L32 13ZM36 13L36 14L37 14L37 15L35 15L35 16L31 16L31 18L30 18L30 19L28 19L28 18L25 18L25 19L26 19L26 20L25 20L25 21L24 21L24 20L21 20L21 19L20 19L20 18L22 18L22 19L24 19L24 18L22 18L22 17L20 17L20 18L18 18L18 19L17 19L17 20L16 20L16 21L17 21L17 22L20 22L20 23L19 23L19 25L20 25L20 26L18 26L18 27L17 27L17 28L18 28L18 29L16 29L16 28L15 28L15 29L16 29L16 30L18 30L18 29L20 29L20 30L19 30L19 31L17 31L17 33L18 33L18 32L19 32L19 31L20 31L20 32L21 32L21 33L22 33L22 34L23 34L23 33L25 33L25 35L26 35L26 32L25 32L25 31L24 31L24 30L23 30L23 29L24 29L24 28L23 28L23 27L24 27L24 26L22 26L22 27L21 27L21 25L23 25L23 24L21 24L21 21L22 21L22 22L23 22L23 23L24 23L24 24L25 24L25 25L26 25L26 26L25 26L25 27L26 27L26 26L28 26L28 25L29 25L29 26L30 26L30 25L29 25L29 24L25 24L25 23L26 23L26 22L25 22L25 21L31 21L31 22L30 22L30 23L31 23L31 24L32 24L32 26L31 26L31 27L32 27L32 29L33 29L33 30L35 30L35 28L33 28L33 27L34 27L34 26L36 26L36 27L39 27L39 25L41 25L41 26L42 26L42 25L41 25L41 24L38 24L38 23L40 23L40 22L39 22L39 21L42 21L42 20L39 20L39 21L38 21L38 19L39 19L39 17L41 17L41 16L39 16L39 15L38 15L38 14L37 14L37 13ZM5 15L5 16L4 16L4 17L6 17L6 18L7 18L7 19L8 19L8 20L9 20L9 21L11 21L11 19L10 19L10 20L9 20L9 17L8 17L8 16L7 16L7 15ZM6 16L6 17L7 17L7 18L8 18L8 17L7 17L7 16ZM11 16L11 17L12 17L12 16ZM35 16L35 17L37 17L37 18L38 18L38 17L39 17L39 16L38 16L38 17L37 17L37 16ZM42 16L42 17L43 17L43 16ZM32 17L32 18L33 18L33 17ZM41 18L41 19L42 19L42 18ZM48 18L48 19L49 19L49 18ZM13 19L13 20L14 20L14 19ZM19 19L19 20L17 20L17 21L20 21L20 19ZM31 19L31 21L32 21L32 20L33 20L33 21L34 21L34 19ZM35 19L35 23L32 23L32 24L33 24L33 25L37 25L37 26L38 26L38 24L37 24L37 22L38 22L38 21L37 21L37 20L36 20L36 19ZM23 21L23 22L24 22L24 21ZM41 22L41 23L42 23L42 24L43 24L43 22ZM1 23L1 24L2 24L2 25L4 25L4 26L5 26L5 25L6 25L6 26L7 26L7 25L6 25L6 24L7 24L7 23L6 23L6 24L5 24L5 25L4 25L4 24L2 24L2 23ZM17 23L17 24L18 24L18 23ZM11 24L11 25L12 25L12 27L11 27L11 28L12 28L12 27L13 27L13 24ZM20 24L20 25L21 25L21 24ZM55 25L55 26L56 26L56 25ZM32 26L32 27L33 27L33 26ZM44 26L44 27L45 27L45 26ZM53 26L53 27L54 27L54 26ZM5 27L5 30L8 30L8 27ZM20 27L20 28L21 28L21 29L22 29L22 28L21 28L21 27ZM27 27L27 30L30 30L30 27ZM49 27L49 30L52 30L52 27ZM6 28L6 29L7 29L7 28ZM25 28L25 29L26 29L26 28ZM28 28L28 29L29 29L29 28ZM50 28L50 29L51 29L51 28ZM12 29L12 31L14 31L14 30L13 30L13 29ZM53 29L53 30L54 30L54 31L55 31L55 30L54 30L54 29ZM31 30L31 31L30 31L30 32L29 32L29 31L28 31L28 32L29 32L29 33L31 33L31 31L32 31L32 30ZM21 31L21 32L24 32L24 31ZM47 31L47 32L46 32L46 33L47 33L47 32L48 32L48 33L49 33L49 32L48 32L48 31ZM5 32L5 33L8 33L8 32ZM33 32L33 33L34 33L34 32ZM50 32L50 34L49 34L49 35L50 35L50 37L49 37L49 38L50 38L50 37L52 37L52 35L53 35L53 34L52 34L52 33L51 33L51 32ZM55 32L55 33L56 33L56 32ZM10 33L10 34L11 34L11 33ZM31 34L31 35L32 35L32 34ZM42 34L42 35L41 35L41 36L40 36L40 37L41 37L41 38L42 38L42 37L43 37L43 36L44 36L44 35L45 35L45 34ZM50 34L50 35L52 35L52 34ZM32 36L32 37L33 37L33 38L35 38L35 36ZM41 36L41 37L42 37L42 36ZM47 37L47 39L46 39L46 40L47 40L47 39L48 39L48 37ZM19 38L19 39L20 39L20 38ZM0 39L0 40L1 40L1 39ZM17 40L17 41L18 41L18 40ZM19 40L19 41L20 41L20 40ZM5 42L5 44L6 44L6 45L7 45L7 44L6 44L6 43L8 43L8 42ZM44 42L44 43L43 43L43 44L44 44L44 45L45 45L45 44L46 44L46 43L45 43L45 42ZM51 42L51 43L50 43L50 44L49 44L49 45L50 45L50 46L51 46L51 43L53 43L53 42ZM10 43L10 44L8 44L8 45L10 45L10 44L11 44L11 43ZM44 43L44 44L45 44L45 43ZM21 44L21 45L22 45L22 44ZM26 45L26 47L28 47L28 45ZM1 46L1 47L2 47L2 46ZM38 47L38 48L37 48L37 49L38 49L38 48L39 48L39 47ZM42 47L42 48L43 48L43 47ZM53 48L53 49L55 49L55 50L54 50L54 51L55 51L55 50L56 50L56 48ZM27 49L27 52L30 52L30 49ZM49 49L49 52L52 52L52 49ZM12 50L12 51L13 51L13 52L14 52L14 51L13 51L13 50ZM28 50L28 51L29 51L29 50ZM50 50L50 51L51 51L51 50ZM15 51L15 53L16 53L16 51ZM53 52L53 53L54 53L54 52ZM33 53L33 55L35 55L35 56L36 56L36 54L35 54L35 53ZM44 53L44 54L45 54L45 53ZM41 54L41 55L42 55L42 54ZM50 55L50 56L51 56L51 55ZM53 55L53 56L55 56L55 57L56 57L56 56L55 56L55 55ZM14 56L14 57L15 57L15 56ZM0 0L0 7L7 7L7 0ZM1 1L1 6L6 6L6 1ZM2 2L2 5L5 5L5 2ZM50 0L50 7L57 7L57 0ZM51 1L51 6L56 6L56 1ZM52 2L52 5L55 5L55 2ZM0 50L0 57L7 57L7 50ZM1 51L1 56L6 56L6 51ZM2 52L2 55L5 55L5 52Z" fill="#000000"/></g></g></svg>
