<?xml version="1.0" encoding="UTF-8"?>
<svg xmlns="http://www.w3.org/2000/svg" version="1.1" width="300" height="300" viewBox="0 0 300 300"><rect x="0" y="0" width="300" height="300" fill="#fefefe"/><g transform="scale(4.615)"><g transform="translate(4,4)"><path fill-rule="evenodd" d="M8 0L8 4L10 4L10 5L8 5L8 7L9 7L9 8L12 8L12 7L13 7L13 8L14 8L14 10L13 10L13 11L12 11L12 12L11 12L11 11L10 11L10 10L9 10L9 9L7 9L7 8L4 8L4 9L3 9L3 10L5 10L5 13L4 13L4 14L6 14L6 15L7 15L7 16L6 16L6 17L4 17L4 16L5 16L5 15L4 15L4 16L3 16L3 11L2 11L2 10L1 10L1 9L2 9L2 8L0 8L0 10L1 10L1 11L0 11L0 12L1 12L1 14L0 14L0 15L1 15L1 16L3 16L3 20L2 20L2 19L0 19L0 21L1 21L1 22L3 22L3 23L2 23L2 24L1 24L1 25L2 25L2 26L3 26L3 27L4 27L4 29L3 29L3 30L2 30L2 27L1 27L1 26L0 26L0 27L1 27L1 28L0 28L0 29L1 29L1 30L0 30L0 31L3 31L3 33L2 33L2 32L0 32L0 33L1 33L1 34L0 34L0 35L1 35L1 34L2 34L2 36L3 36L3 37L2 37L2 38L1 38L1 37L0 37L0 39L2 39L2 40L3 40L3 41L2 41L2 42L1 42L1 40L0 40L0 43L1 43L1 46L0 46L0 48L5 48L5 47L7 47L7 46L8 46L8 45L7 45L7 44L6 44L6 43L7 43L7 42L9 42L9 43L10 43L10 47L11 47L11 48L10 48L10 49L8 49L8 50L10 50L10 51L8 51L8 53L9 53L9 54L10 54L10 55L11 55L11 56L10 56L10 57L12 57L12 56L15 56L15 55L16 55L16 54L17 54L17 55L20 55L20 54L21 54L21 56L20 56L20 57L22 57L22 54L21 54L21 53L22 53L22 52L24 52L24 53L23 53L23 55L24 55L24 56L23 56L23 57L25 57L25 56L26 56L26 57L27 57L27 55L26 55L26 53L28 53L28 57L29 57L29 55L30 55L30 57L34 57L34 53L35 53L35 57L37 57L37 56L36 56L36 54L37 54L37 53L38 53L38 55L40 55L40 54L41 54L41 55L42 55L42 56L41 56L41 57L43 57L43 55L44 55L44 53L45 53L45 55L46 55L46 53L47 53L47 52L48 52L48 54L49 54L49 55L48 55L48 56L49 56L49 57L50 57L50 55L51 55L51 56L53 56L53 57L54 57L54 56L53 56L53 54L54 54L54 53L55 53L55 54L57 54L57 51L56 51L56 50L57 50L57 49L56 49L56 45L57 45L57 44L56 44L56 45L55 45L55 49L53 49L53 46L54 46L54 44L53 44L53 43L54 43L54 42L55 42L55 43L56 43L56 42L57 42L57 40L54 40L54 41L53 41L53 39L57 39L57 38L53 38L53 39L52 39L52 41L51 41L51 43L50 43L50 42L49 42L49 41L48 41L48 43L47 43L47 44L46 44L46 45L45 45L45 44L44 44L44 45L43 45L43 44L42 44L42 42L43 42L43 43L44 43L44 42L45 42L45 43L46 43L46 41L47 41L47 40L49 40L49 39L50 39L50 40L51 40L51 39L50 39L50 38L52 38L52 37L49 37L49 38L48 38L48 39L47 39L47 38L46 38L46 37L47 37L47 36L46 36L46 35L48 35L48 36L49 36L49 35L50 35L50 36L53 36L53 37L55 37L55 36L56 36L56 37L57 37L57 35L56 35L56 34L57 34L57 33L56 33L56 30L55 30L55 33L54 33L54 34L53 34L53 35L50 35L50 32L51 32L51 33L53 33L53 29L54 29L54 28L53 28L53 27L54 27L54 26L55 26L55 27L56 27L56 28L55 28L55 29L56 29L56 28L57 28L57 27L56 27L56 25L57 25L57 24L56 24L56 20L57 20L57 19L56 19L56 18L57 18L57 15L56 15L56 13L54 13L54 12L53 12L53 13L52 13L52 14L51 14L51 12L52 12L52 8L51 8L51 9L50 9L50 10L49 10L49 8L47 8L47 11L48 11L48 10L49 10L49 11L50 11L50 15L48 15L48 16L49 16L49 17L47 17L47 16L46 16L46 9L45 9L45 8L46 8L46 7L47 7L47 5L48 5L48 0L46 0L46 1L47 1L47 2L45 2L45 0L41 0L41 1L40 1L40 2L39 2L39 3L40 3L40 4L38 4L38 3L37 3L37 2L38 2L38 1L39 1L39 0L38 0L38 1L37 1L37 2L36 2L36 0L35 0L35 1L34 1L34 0L33 0L33 1L32 1L32 3L31 3L31 0L29 0L29 1L28 1L28 0L23 0L23 1L21 1L21 0L20 0L20 1L21 1L21 3L22 3L22 4L23 4L23 3L25 3L25 4L24 4L24 5L23 5L23 6L22 6L22 5L21 5L21 6L20 6L20 5L19 5L19 6L18 6L18 3L20 3L20 2L18 2L18 1L19 1L19 0L17 0L17 2L16 2L16 0L14 0L14 1L12 1L12 2L10 2L10 1L9 1L9 0ZM14 1L14 4L15 4L15 5L13 5L13 4L12 4L12 6L11 6L11 5L10 5L10 6L9 6L9 7L10 7L10 6L11 6L11 7L12 7L12 6L13 6L13 7L14 7L14 8L15 8L15 9L16 9L16 11L17 11L17 13L15 13L15 12L14 12L14 11L13 11L13 13L12 13L12 14L13 14L13 17L10 17L10 16L11 16L11 15L10 15L10 14L9 14L9 15L10 15L10 16L7 16L7 17L6 17L6 18L4 18L4 19L5 19L5 20L3 20L3 22L4 22L4 26L7 26L7 25L5 25L5 24L7 24L7 23L8 23L8 22L9 22L9 21L8 21L8 22L7 22L7 21L6 21L6 22L5 22L5 20L7 20L7 19L8 19L8 18L10 18L10 20L11 20L11 21L10 21L10 23L11 23L11 24L8 24L8 25L10 25L10 26L9 26L9 27L10 27L10 28L9 28L9 29L10 29L10 30L9 30L9 31L5 31L5 32L4 32L4 33L5 33L5 32L8 32L8 33L6 33L6 34L5 34L5 36L4 36L4 37L5 37L5 38L7 38L7 39L6 39L6 40L7 40L7 41L6 41L6 42L7 42L7 41L8 41L8 40L7 40L7 39L8 39L8 38L11 38L11 39L12 39L12 40L13 40L13 42L12 42L12 41L9 41L9 42L11 42L11 43L13 43L13 44L12 44L12 45L11 45L11 46L12 46L12 47L13 47L13 49L12 49L12 48L11 48L11 50L13 50L13 51L12 51L12 52L13 52L13 51L14 51L14 50L15 50L15 49L16 49L16 51L15 51L15 53L13 53L13 55L15 55L15 53L17 53L17 54L19 54L19 53L20 53L20 52L19 52L19 51L17 51L17 49L16 49L16 47L15 47L15 45L13 45L13 44L17 44L17 45L16 45L16 46L17 46L17 45L18 45L18 44L19 44L19 43L20 43L20 44L21 44L21 43L22 43L22 44L23 44L23 43L24 43L24 45L21 45L21 46L20 46L20 45L19 45L19 46L20 46L20 48L19 48L19 47L17 47L17 48L19 48L19 49L21 49L21 50L20 50L20 51L21 51L21 52L22 52L22 49L23 49L23 48L24 48L24 49L25 49L25 48L24 48L24 47L26 47L26 48L28 48L28 47L30 47L30 48L31 48L31 49L32 49L32 50L31 50L31 52L32 52L32 51L34 51L34 52L33 52L33 53L32 53L32 54L33 54L33 53L34 53L34 52L36 52L36 49L35 49L35 45L34 45L34 47L33 47L33 45L30 45L30 44L31 44L31 41L32 41L32 43L33 43L33 44L35 44L35 43L33 43L33 41L32 41L32 40L33 40L33 39L31 39L31 38L33 38L33 37L34 37L34 42L35 42L35 39L37 39L37 42L38 42L38 39L40 39L40 38L38 38L38 37L41 37L41 39L42 39L42 37L44 37L44 38L43 38L43 39L45 39L45 41L46 41L46 40L47 40L47 39L46 39L46 38L45 38L45 37L46 37L46 36L45 36L45 37L44 37L44 35L45 35L45 33L43 33L43 35L42 35L42 34L40 34L40 33L41 33L41 32L40 32L40 31L41 31L41 29L43 29L43 31L44 31L44 29L43 29L43 28L42 28L42 27L41 27L41 28L40 28L40 30L39 30L39 32L40 32L40 33L39 33L39 34L38 34L38 33L37 33L37 34L38 34L38 35L37 35L37 36L38 36L38 37L37 37L37 38L35 38L35 37L34 37L34 36L35 36L35 32L34 32L34 36L33 36L33 37L32 37L32 36L31 36L31 34L30 34L30 36L31 36L31 37L29 37L29 36L28 36L28 34L29 34L29 33L32 33L32 32L33 32L33 30L32 30L32 28L33 28L33 27L34 27L34 31L36 31L36 30L37 30L37 32L38 32L38 30L37 30L37 29L38 29L38 28L37 28L37 27L40 27L40 26L41 26L41 25L42 25L42 24L43 24L43 27L45 27L45 30L46 30L46 31L45 31L45 32L47 32L47 33L46 33L46 34L48 34L48 35L49 35L49 33L48 33L48 31L47 31L47 30L48 30L48 27L45 27L45 26L44 26L44 24L45 24L45 22L44 22L44 16L45 16L45 17L46 17L46 19L45 19L45 21L46 21L46 24L47 24L47 25L46 25L46 26L47 26L47 25L48 25L48 24L47 24L47 20L46 20L46 19L47 19L47 17L46 17L46 16L45 16L45 14L43 14L43 15L42 15L42 17L43 17L43 18L42 18L42 19L43 19L43 20L41 20L41 18L40 18L40 17L41 17L41 13L44 13L44 12L45 12L45 11L44 11L44 10L45 10L45 9L44 9L44 8L45 8L45 7L46 7L46 5L47 5L47 3L44 3L44 2L43 2L43 3L44 3L44 4L43 4L43 5L42 5L42 6L41 6L41 5L39 5L39 7L40 7L40 6L41 6L41 8L40 8L40 9L39 9L39 8L37 8L37 9L35 9L35 7L36 7L36 5L38 5L38 4L37 4L37 3L36 3L36 2L35 2L35 4L34 4L34 3L32 3L32 5L35 5L35 7L34 7L34 6L33 6L33 7L32 7L32 6L31 6L31 12L29 12L29 11L28 11L28 12L27 12L27 11L26 11L26 17L27 17L27 18L26 18L26 20L25 20L25 18L24 18L24 19L23 19L23 18L22 18L22 22L23 22L23 21L24 21L24 22L25 22L25 23L26 23L26 22L28 22L28 23L27 23L27 24L28 24L28 26L30 26L30 25L31 25L31 27L32 27L32 28L31 28L31 30L32 30L32 32L30 32L30 31L29 31L29 33L28 33L28 34L27 34L27 33L26 33L26 31L25 31L25 30L26 30L26 29L25 29L25 27L26 27L26 25L25 25L25 26L24 26L24 27L23 27L23 28L22 28L22 27L21 27L21 26L22 26L22 25L24 25L24 23L22 23L22 25L21 25L21 22L20 22L20 23L19 23L19 25L21 25L21 26L20 26L20 27L19 27L19 28L18 28L18 29L15 29L15 28L16 28L16 27L15 27L15 26L13 26L13 28L14 28L14 29L12 29L12 27L10 27L10 26L12 26L12 25L14 25L14 24L13 24L13 23L14 23L14 21L13 21L13 19L14 19L14 20L15 20L15 21L17 21L17 22L16 22L16 23L15 23L15 24L16 24L16 26L17 26L17 27L18 27L18 26L17 26L17 22L18 22L18 21L17 21L17 19L16 19L16 20L15 20L15 18L14 18L14 14L13 14L13 13L15 13L15 14L17 14L17 16L15 16L15 17L16 17L16 18L17 18L17 17L18 17L18 20L19 20L19 21L20 21L20 20L21 20L21 18L20 18L20 16L21 16L21 17L25 17L25 15L24 15L24 16L22 16L22 15L23 15L23 13L25 13L25 12L24 12L24 10L23 10L23 9L24 9L24 8L25 8L25 10L29 10L29 9L26 9L26 6L25 6L25 7L24 7L24 6L23 6L23 7L22 7L22 6L21 6L21 8L22 8L22 10L20 10L20 9L16 9L16 8L15 8L15 7L16 7L16 6L17 6L17 8L19 8L19 7L20 7L20 6L19 6L19 7L18 7L18 6L17 6L17 4L16 4L16 2L15 2L15 1ZM25 1L25 3L26 3L26 4L28 4L28 3L29 3L29 2L30 2L30 1L29 1L29 2L28 2L28 1ZM33 1L33 2L34 2L34 1ZM9 2L9 3L10 3L10 4L11 4L11 3L10 3L10 2ZM12 2L12 3L13 3L13 2ZM40 2L40 3L42 3L42 2ZM35 4L35 5L36 5L36 4ZM44 4L44 7L43 7L43 6L42 6L42 7L43 7L43 8L42 8L42 9L40 9L40 10L39 10L39 9L38 9L38 10L39 10L39 11L37 11L37 12L35 12L35 11L36 11L36 10L34 10L34 9L33 9L33 8L34 8L34 7L33 7L33 8L32 8L32 13L30 13L30 15L31 15L31 14L32 14L32 15L33 15L33 16L32 16L32 17L31 17L31 16L29 16L29 13L27 13L27 14L28 14L28 15L27 15L27 17L28 17L28 18L30 18L30 19L31 19L31 20L32 20L32 21L28 21L28 20L29 20L29 19L27 19L27 20L26 20L26 21L28 21L28 22L30 22L30 23L29 23L29 25L30 25L30 23L31 23L31 22L34 22L34 23L32 23L32 27L33 27L33 26L34 26L34 25L37 25L37 24L34 24L34 23L35 23L35 22L37 22L37 23L39 23L39 21L40 21L40 22L41 22L41 23L43 23L43 24L44 24L44 22L43 22L43 21L40 21L40 18L39 18L39 17L40 17L40 13L38 13L38 15L39 15L39 17L38 17L38 16L37 16L37 15L35 15L35 17L38 17L38 18L39 18L39 19L37 19L37 18L35 18L35 19L34 19L34 13L33 13L33 10L34 10L34 12L35 12L35 13L36 13L36 14L37 14L37 12L39 12L39 11L40 11L40 10L41 10L41 12L43 12L43 10L44 10L44 9L43 9L43 8L44 8L44 7L45 7L45 5L46 5L46 4ZM15 5L15 6L14 6L14 7L15 7L15 6L16 6L16 5ZM27 5L27 8L30 8L30 5ZM28 6L28 7L29 7L29 6ZM37 6L37 7L38 7L38 6ZM48 6L48 7L49 7L49 6ZM23 7L23 8L24 8L24 7ZM53 8L53 9L56 9L56 10L55 10L55 12L56 12L56 10L57 10L57 8ZM6 9L6 10L7 10L7 11L6 11L6 12L7 12L7 11L8 11L8 13L6 13L6 14L7 14L7 15L8 15L8 13L9 13L9 11L8 11L8 10L7 10L7 9ZM17 10L17 11L18 11L18 10ZM50 10L50 11L51 11L51 10ZM53 10L53 11L54 11L54 10ZM19 11L19 12L18 12L18 13L17 13L17 14L19 14L19 13L20 13L20 14L21 14L21 15L22 15L22 14L21 14L21 13L23 13L23 12L22 12L22 11L21 11L21 12L20 12L20 11ZM32 13L32 14L33 14L33 13ZM47 13L47 14L49 14L49 13ZM1 14L1 15L2 15L2 14ZM52 14L52 15L53 15L53 16L52 16L52 17L51 17L51 19L53 19L53 20L52 20L52 21L51 21L51 20L49 20L49 21L51 21L51 22L52 22L52 23L50 23L50 22L49 22L49 25L51 25L51 24L52 24L52 26L53 26L53 25L56 25L56 24L55 24L55 23L53 23L53 22L55 22L55 20L56 20L56 19L55 19L55 17L56 17L56 16L55 16L55 14L54 14L54 15L53 15L53 14ZM19 15L19 16L18 16L18 17L19 17L19 16L20 16L20 15ZM43 15L43 16L44 16L44 15ZM50 15L50 16L51 16L51 15ZM53 16L53 17L52 17L52 18L53 18L53 17L55 17L55 16ZM0 17L0 18L2 18L2 17ZM32 17L32 18L31 18L31 19L33 19L33 21L34 21L34 22L35 22L35 20L36 20L36 19L35 19L35 20L34 20L34 19L33 19L33 17ZM49 17L49 19L50 19L50 17ZM6 18L6 19L7 19L7 18ZM11 18L11 19L13 19L13 18ZM19 18L19 20L20 20L20 18ZM1 20L1 21L2 21L2 20ZM24 20L24 21L25 21L25 20ZM38 20L38 21L39 21L39 20ZM12 21L12 22L13 22L13 21ZM52 21L52 22L53 22L53 21ZM6 22L6 23L7 23L7 22ZM52 23L52 24L53 24L53 23ZM2 24L2 25L3 25L3 24ZM11 24L11 25L12 25L12 24ZM33 24L33 25L34 25L34 24ZM39 24L39 25L38 25L38 26L40 26L40 24ZM36 26L36 27L35 27L35 29L37 29L37 28L36 28L36 27L37 27L37 26ZM5 27L5 30L8 30L8 27ZM14 27L14 28L15 28L15 27ZM27 27L27 30L30 30L30 27ZM49 27L49 30L52 30L52 27ZM6 28L6 29L7 29L7 28ZM10 28L10 29L11 29L11 30L12 30L12 31L13 31L13 30L12 30L12 29L11 29L11 28ZM28 28L28 29L29 29L29 28ZM46 28L46 29L47 29L47 28ZM50 28L50 29L51 29L51 28ZM18 29L18 30L17 30L17 31L18 31L18 30L20 30L20 34L19 34L19 32L16 32L16 30L14 30L14 32L13 32L13 33L12 33L12 32L11 32L11 31L10 31L10 33L8 33L8 34L6 34L6 35L8 35L8 36L6 36L6 37L7 37L7 38L8 38L8 37L9 37L9 35L10 35L10 36L11 36L11 37L12 37L12 35L10 35L10 33L11 33L11 34L13 34L13 35L14 35L14 36L13 36L13 37L14 37L14 38L12 38L12 39L14 39L14 38L15 38L15 37L16 37L16 36L15 36L15 35L16 35L16 33L17 33L17 34L18 34L18 35L17 35L17 38L16 38L16 39L15 39L15 40L14 40L14 41L15 41L15 43L16 43L16 41L15 41L15 40L17 40L17 41L20 41L20 42L22 42L22 40L23 40L23 41L24 41L24 42L26 42L26 41L27 41L27 42L28 42L28 43L29 43L29 42L30 42L30 41L31 41L31 39L29 39L29 38L28 38L28 39L27 39L27 37L28 37L28 36L27 36L27 34L26 34L26 33L23 33L23 34L21 34L21 33L22 33L22 31L24 31L24 30L25 30L25 29L23 29L23 30L22 30L22 29ZM3 30L3 31L4 31L4 30ZM21 30L21 31L22 31L22 30ZM27 31L27 32L28 32L28 31ZM51 31L51 32L52 32L52 31ZM15 32L15 33L14 33L14 35L15 35L15 33L16 33L16 32ZM55 33L55 34L56 34L56 33ZM3 34L3 35L4 35L4 34ZM20 34L20 35L19 35L19 36L22 36L22 37L18 37L18 38L19 38L19 39L20 39L20 38L22 38L22 39L21 39L21 40L22 40L22 39L24 39L24 41L25 41L25 40L27 40L27 41L28 41L28 42L29 42L29 41L28 41L28 40L27 40L27 39L26 39L26 38L24 38L24 37L23 37L23 36L22 36L22 35L21 35L21 34ZM24 34L24 36L25 36L25 37L26 37L26 36L25 36L25 35L26 35L26 34ZM32 34L32 35L33 35L33 34ZM39 35L39 36L40 36L40 35ZM41 35L41 37L42 37L42 35ZM53 35L53 36L55 36L55 35ZM14 36L14 37L15 37L15 36ZM22 37L22 38L23 38L23 37ZM3 38L3 40L4 40L4 41L3 41L3 42L2 42L2 43L3 43L3 44L4 44L4 43L5 43L5 42L4 42L4 41L5 41L5 40L4 40L4 38ZM40 40L40 41L39 41L39 42L40 42L40 41L42 41L42 40ZM43 41L43 42L44 42L44 41ZM52 41L52 43L51 43L51 44L50 44L50 43L49 43L49 44L47 44L47 45L46 45L46 47L45 47L45 48L46 48L46 50L45 50L45 51L46 51L46 52L45 52L45 53L46 53L46 52L47 52L47 51L46 51L46 50L47 50L47 49L48 49L48 47L49 47L49 48L52 48L52 47L51 47L51 46L50 46L50 45L51 45L51 44L52 44L52 46L53 46L53 44L52 44L52 43L53 43L53 41ZM17 42L17 43L18 43L18 42ZM25 43L25 45L24 45L24 46L23 46L23 47L22 47L22 46L21 46L21 47L22 47L22 48L21 48L21 49L22 49L22 48L23 48L23 47L24 47L24 46L26 46L26 47L28 47L28 45L27 45L27 43ZM36 43L36 44L37 44L37 45L36 45L36 46L38 46L38 45L39 45L39 47L38 47L38 49L37 49L37 52L38 52L38 53L39 53L39 52L40 52L40 53L41 53L41 46L40 46L40 45L41 45L41 43L40 43L40 45L39 45L39 44L37 44L37 43ZM5 44L5 45L3 45L3 47L5 47L5 46L7 46L7 45L6 45L6 44ZM49 44L49 45L48 45L48 46L49 46L49 47L50 47L50 46L49 46L49 45L50 45L50 44ZM12 45L12 46L13 46L13 45ZM26 45L26 46L27 46L27 45ZM29 45L29 46L30 46L30 45ZM44 45L44 46L43 46L43 47L42 47L42 49L44 49L44 46L45 46L45 45ZM1 46L1 47L2 47L2 46ZM31 46L31 47L32 47L32 46ZM8 47L8 48L9 48L9 47ZM36 47L36 48L37 48L37 47ZM39 47L39 49L38 49L38 52L39 52L39 51L40 51L40 47ZM6 48L6 49L7 49L7 48ZM32 48L32 49L33 49L33 50L34 50L34 51L35 51L35 50L34 50L34 48ZM13 49L13 50L14 50L14 49ZM27 49L27 52L30 52L30 49ZM49 49L49 52L52 52L52 49ZM55 49L55 50L56 50L56 49ZM25 50L25 53L24 53L24 54L25 54L25 53L26 53L26 50ZM28 50L28 51L29 51L29 50ZM42 50L42 53L44 53L44 52L43 52L43 51L44 51L44 50ZM50 50L50 51L51 51L51 50ZM53 50L53 53L54 53L54 52L55 52L55 51L54 51L54 50ZM16 51L16 52L17 52L17 53L19 53L19 52L17 52L17 51ZM9 52L9 53L11 53L11 55L12 55L12 53L11 53L11 52ZM30 53L30 54L31 54L31 53ZM49 53L49 54L51 54L51 55L52 55L52 54L51 54L51 53ZM42 54L42 55L43 55L43 54ZM8 55L8 57L9 57L9 55ZM17 56L17 57L19 57L19 56ZM44 56L44 57L46 57L46 56ZM56 56L56 57L57 57L57 56ZM0 0L0 7L7 7L7 0ZM1 1L1 6L6 6L6 1ZM2 2L2 5L5 5L5 2ZM50 0L50 7L57 7L57 0ZM51 1L51 6L56 6L56 1ZM52 2L52 5L55 5L55 2ZM0 50L0 57L7 57L7 50ZM1 51L1 56L6 56L6 51ZM2 52L2 55L5 55L5 52Z" fill="#000000"/></g></g></svg>
