<?xml version="1.0" encoding="UTF-8"?>
<svg xmlns="http://www.w3.org/2000/svg" version="1.1" width="300" height="300" viewBox="0 0 300 300"><rect x="0" y="0" width="300" height="300" fill="#fefefe"/><g transform="scale(4.615)"><g transform="translate(4,4)"><path fill-rule="evenodd" d="M8 0L8 4L9 4L9 5L8 5L8 7L9 7L9 6L10 6L10 7L11 7L11 6L12 6L12 8L11 8L11 10L9 10L9 11L10 11L10 13L8 13L8 14L6 14L6 13L7 13L7 12L6 12L6 13L5 13L5 15L2 15L2 17L1 17L1 14L2 14L2 11L3 11L3 14L4 14L4 12L5 12L5 11L8 11L8 9L7 9L7 8L4 8L4 9L5 9L5 11L3 11L3 9L2 9L2 8L0 8L0 9L2 9L2 11L1 11L1 10L0 10L0 11L1 11L1 12L0 12L0 13L1 13L1 14L0 14L0 18L1 18L1 19L0 19L0 20L1 20L1 21L0 21L0 22L1 22L1 23L0 23L0 24L1 24L1 23L2 23L2 25L0 25L0 29L1 29L1 30L0 30L0 34L1 34L1 33L2 33L2 35L3 35L3 38L4 38L4 39L3 39L3 40L2 40L2 37L0 37L0 43L1 43L1 44L0 44L0 48L5 48L5 47L7 47L7 48L6 48L6 49L7 49L7 48L8 48L8 46L5 46L5 45L7 45L7 44L8 44L8 45L10 45L10 46L11 46L11 48L9 48L9 49L8 49L8 50L9 50L9 49L10 49L10 50L11 50L11 51L10 51L10 53L9 53L9 51L8 51L8 53L9 53L9 54L10 54L10 55L8 55L8 57L11 57L11 56L10 56L10 55L11 55L11 54L12 54L12 55L13 55L13 56L14 56L14 57L15 57L15 56L14 56L14 55L13 55L13 54L14 54L14 53L15 53L15 55L16 55L16 54L17 54L17 55L18 55L18 54L19 54L19 55L20 55L20 54L21 54L21 55L22 55L22 56L23 56L23 57L25 57L25 56L26 56L26 57L27 57L27 56L26 56L26 55L27 55L27 54L24 54L24 53L28 53L28 57L29 57L29 55L30 55L30 57L34 57L34 55L35 55L35 57L37 57L37 56L36 56L36 54L37 54L37 55L40 55L40 54L41 54L41 55L42 55L42 56L41 56L41 57L43 57L43 55L44 55L44 57L45 57L45 55L44 55L44 53L45 53L45 54L46 54L46 48L47 48L47 47L46 47L46 45L47 45L47 44L49 44L49 45L48 45L48 46L49 46L49 47L48 47L48 49L47 49L47 52L48 52L48 54L49 54L49 56L47 56L47 55L46 55L46 56L47 56L47 57L50 57L50 55L51 55L51 56L53 56L53 57L54 57L54 56L53 56L53 54L54 54L54 53L55 53L55 54L57 54L57 51L56 51L56 50L57 50L57 49L56 49L56 45L57 45L57 44L56 44L56 45L54 45L54 44L53 44L53 43L54 43L54 42L55 42L55 43L56 43L56 42L57 42L57 40L54 40L54 41L53 41L53 40L52 40L52 39L53 39L53 38L54 38L54 39L57 39L57 38L55 38L55 37L56 37L56 36L53 36L53 35L56 35L56 34L57 34L57 33L56 33L56 30L55 30L55 29L56 29L56 26L55 26L55 24L56 24L56 25L57 25L57 24L56 24L56 21L57 21L57 20L56 20L56 18L55 18L55 20L56 20L56 21L55 21L55 24L54 24L54 25L53 25L53 26L51 26L51 25L52 25L52 24L53 24L53 23L52 23L52 22L54 22L54 21L52 21L52 20L53 20L53 19L52 19L52 14L53 14L53 15L55 15L55 16L56 16L56 17L57 17L57 15L56 15L56 10L57 10L57 8L53 8L53 9L52 9L52 8L51 8L51 9L50 9L50 10L51 10L51 11L50 11L50 15L48 15L48 16L50 16L50 18L49 18L49 17L47 17L47 19L48 19L48 18L49 18L49 20L51 20L51 21L48 21L48 20L46 20L46 19L45 19L45 18L46 18L46 16L47 16L47 15L46 15L46 11L45 11L45 10L44 10L44 9L47 9L47 12L49 12L49 11L48 11L48 10L49 10L49 8L48 8L48 7L49 7L49 6L48 6L48 7L47 7L47 5L48 5L48 0L41 0L41 1L40 1L40 2L39 2L39 3L40 3L40 4L38 4L38 3L37 3L37 2L38 2L38 1L39 1L39 0L38 0L38 1L37 1L37 2L36 2L36 0L35 0L35 1L34 1L34 0L33 0L33 1L32 1L32 3L30 3L30 1L31 1L31 0L30 0L30 1L28 1L28 0L23 0L23 2L21 2L21 0L20 0L20 1L19 1L19 0L18 0L18 1L17 1L17 2L18 2L18 1L19 1L19 3L20 3L20 2L21 2L21 3L22 3L22 4L23 4L23 3L25 3L25 4L24 4L24 5L23 5L23 6L22 6L22 5L21 5L21 6L20 6L20 5L19 5L19 4L18 4L18 5L17 5L17 6L16 6L16 5L15 5L15 4L14 4L14 1L16 1L16 0L14 0L14 1L13 1L13 0ZM9 1L9 3L10 3L10 5L11 5L11 3L12 3L12 2L11 2L11 1ZM25 1L25 3L26 3L26 4L28 4L28 1ZM33 1L33 2L34 2L34 1ZM45 1L45 2L47 2L47 1ZM35 2L35 3L34 3L34 5L33 5L33 3L32 3L32 5L33 5L33 7L32 7L32 6L31 6L31 10L29 10L29 9L28 9L28 10L27 10L27 9L26 9L26 6L25 6L25 7L24 7L24 6L23 6L23 7L22 7L22 6L21 6L21 8L22 8L22 9L21 9L21 10L20 10L20 9L18 9L18 11L17 11L17 13L15 13L15 12L16 12L16 10L17 10L17 9L15 9L15 12L14 12L14 11L13 11L13 13L15 13L15 14L17 14L17 15L19 15L19 17L16 17L16 16L15 16L15 17L16 17L16 18L13 18L13 17L14 17L14 14L11 14L11 13L10 13L10 15L9 15L9 16L10 16L10 15L11 15L11 17L12 17L12 18L11 18L11 20L10 20L10 17L6 17L6 18L7 18L7 19L6 19L6 20L7 20L7 19L8 19L8 20L10 20L10 22L9 22L9 21L6 21L6 22L5 22L5 23L4 23L4 21L3 21L3 20L5 20L5 18L4 18L4 19L3 19L3 18L2 18L2 19L1 19L1 20L2 20L2 21L3 21L3 22L2 22L2 23L4 23L4 24L5 24L5 25L6 25L6 26L9 26L9 27L11 27L11 28L9 28L9 30L11 30L11 31L12 31L12 34L9 34L9 33L11 33L11 32L10 32L10 31L8 31L8 32L7 32L7 31L4 31L4 30L3 30L3 29L2 29L2 30L1 30L1 32L2 32L2 33L3 33L3 32L4 32L4 34L3 34L3 35L4 35L4 34L5 34L5 35L6 35L6 36L7 36L7 37L5 37L5 38L7 38L7 39L4 39L4 40L3 40L3 41L4 41L4 42L3 42L3 43L4 43L4 42L5 42L5 40L7 40L7 39L9 39L9 40L8 40L8 41L6 41L6 42L7 42L7 43L6 43L6 44L7 44L7 43L8 43L8 44L9 44L9 43L10 43L10 44L11 44L11 42L9 42L9 43L8 43L8 41L10 41L10 39L12 39L12 38L14 38L14 39L13 39L13 40L12 40L12 44L13 44L13 42L15 42L15 44L16 44L16 46L15 46L15 45L13 45L13 46L12 46L12 47L13 47L13 46L14 46L14 47L16 47L16 46L17 46L17 45L18 45L18 44L20 44L20 45L19 45L19 46L20 46L20 47L21 47L21 48L19 48L19 49L15 49L15 48L13 48L13 49L11 49L11 50L13 50L13 49L15 49L15 50L16 50L16 51L17 51L17 50L19 50L19 51L20 51L20 49L21 49L21 51L22 51L22 49L23 49L23 48L22 48L22 47L25 47L25 48L24 48L24 49L26 49L26 48L27 48L27 47L28 47L28 48L29 48L29 47L30 47L30 48L31 48L31 49L32 49L32 48L34 48L34 51L33 51L33 52L34 52L34 51L35 51L35 52L36 52L36 49L35 49L35 47L36 47L36 48L37 48L37 46L38 46L38 45L39 45L39 44L37 44L37 43L36 43L36 44L37 44L37 46L36 46L36 45L34 45L34 47L33 47L33 45L32 45L32 43L33 43L33 44L35 44L35 43L33 43L33 41L32 41L32 40L33 40L33 39L34 39L34 42L35 42L35 39L37 39L37 42L38 42L38 37L41 37L41 39L40 39L40 38L39 38L39 39L40 39L40 41L39 41L39 42L40 42L40 43L41 43L41 42L40 42L40 41L41 41L41 39L42 39L42 37L41 37L41 35L42 35L42 34L40 34L40 33L41 33L41 32L40 32L40 30L41 30L41 29L43 29L43 30L44 30L44 31L45 31L45 30L46 30L46 34L44 34L44 33L43 33L43 34L44 34L44 35L43 35L43 37L44 37L44 38L43 38L43 39L45 39L45 40L46 40L46 42L45 42L45 41L44 41L44 40L42 40L42 41L43 41L43 42L42 42L42 44L43 44L43 45L44 45L44 46L43 46L43 47L42 47L42 49L43 49L43 50L42 50L42 52L41 52L41 46L39 46L39 47L38 47L38 49L37 49L37 53L39 53L39 52L40 52L40 53L42 53L42 52L43 52L43 53L44 53L44 52L43 52L43 51L44 51L44 50L45 50L45 49L44 49L44 48L46 48L46 47L44 47L44 46L45 46L45 45L46 45L46 44L47 44L47 43L49 43L49 44L50 44L50 48L51 48L51 45L52 45L52 47L53 47L53 48L55 48L55 46L53 46L53 44L52 44L52 43L53 43L53 41L52 41L52 40L47 40L47 39L48 39L48 38L49 38L49 39L52 39L52 38L53 38L53 36L52 36L52 38L50 38L50 35L53 35L53 34L54 34L54 32L55 32L55 30L54 30L54 29L55 29L55 26L54 26L54 27L53 27L53 28L54 28L54 29L53 29L53 31L50 31L50 35L49 35L49 33L48 33L48 31L47 31L47 29L46 29L46 28L48 28L48 26L47 26L47 25L48 25L48 24L46 24L46 26L47 26L47 27L45 27L45 25L44 25L44 24L45 24L45 22L44 22L44 16L46 16L46 15L45 15L45 14L44 14L44 16L43 16L43 15L42 15L42 17L43 17L43 18L42 18L42 20L41 20L41 18L40 18L40 17L41 17L41 15L40 15L40 17L39 17L39 15L38 15L38 13L44 13L44 12L45 12L45 11L44 11L44 10L40 10L40 9L41 9L41 8L42 8L42 6L43 6L43 9L44 9L44 4L45 4L45 7L46 7L46 8L47 8L47 9L48 9L48 8L47 8L47 7L46 7L46 5L47 5L47 3L44 3L44 2L43 2L43 3L41 3L41 2L40 2L40 3L41 3L41 5L39 5L39 8L38 8L38 4L37 4L37 3L36 3L36 2ZM16 3L16 4L17 4L17 3ZM43 3L43 4L42 4L42 5L41 5L41 6L40 6L40 8L39 8L39 9L38 9L38 8L37 8L37 5L36 5L36 4L35 4L35 5L34 5L34 7L33 7L33 8L32 8L32 11L29 11L29 10L28 10L28 11L27 11L27 10L25 10L25 8L24 8L24 7L23 7L23 12L22 12L22 11L20 11L20 10L19 10L19 12L18 12L18 13L17 13L17 14L19 14L19 13L20 13L20 18L19 18L19 20L17 20L17 18L16 18L16 19L15 19L15 20L14 20L14 19L13 19L13 21L14 21L14 25L13 25L13 23L12 23L12 22L11 22L11 25L10 25L10 23L9 23L9 22L6 22L6 23L7 23L7 24L6 24L6 25L7 25L7 24L8 24L8 25L9 25L9 26L11 26L11 25L12 25L12 26L13 26L13 28L11 28L11 30L12 30L12 31L13 31L13 33L14 33L14 32L15 32L15 33L18 33L18 34L12 34L12 35L11 35L11 36L12 36L12 35L15 35L15 36L14 36L14 37L16 37L16 36L17 36L17 37L22 37L22 38L23 38L23 37L24 37L24 38L25 38L25 39L27 39L27 40L25 40L25 41L23 41L23 44L22 44L22 43L21 43L21 42L22 42L22 40L24 40L24 39L22 39L22 40L21 40L21 38L20 38L20 39L19 39L19 38L16 38L16 39L14 39L14 41L15 41L15 42L16 42L16 43L18 43L18 41L20 41L20 43L21 43L21 45L20 45L20 46L21 46L21 47L22 47L22 46L21 46L21 45L23 45L23 46L26 46L26 47L27 47L27 46L28 46L28 47L29 47L29 46L31 46L31 47L32 47L32 45L29 45L29 44L28 44L28 45L27 45L27 43L28 43L28 40L29 40L29 42L31 42L31 43L32 43L32 41L31 41L31 39L33 39L33 38L34 38L34 39L35 39L35 38L37 38L37 37L38 37L38 36L40 36L40 35L38 35L38 34L39 34L39 33L40 33L40 32L39 32L39 29L40 29L40 27L37 27L37 26L36 26L36 27L37 27L37 28L35 28L35 30L36 30L36 31L34 31L34 27L33 27L33 26L34 26L34 25L37 25L37 24L34 24L34 23L35 23L35 22L37 22L37 21L38 21L38 23L39 23L39 25L38 25L38 26L39 26L39 25L40 25L40 23L39 23L39 21L40 21L40 22L43 22L43 24L44 24L44 22L43 22L43 21L40 21L40 18L39 18L39 17L38 17L38 16L37 16L37 15L35 15L35 17L38 17L38 18L39 18L39 19L38 19L38 20L37 20L37 18L34 18L34 13L33 13L33 10L34 10L34 12L35 12L35 13L36 13L36 14L37 14L37 12L39 12L39 11L40 11L40 10L39 10L39 9L40 9L40 8L41 8L41 6L42 6L42 5L43 5L43 4L44 4L44 3ZM12 5L12 6L13 6L13 7L14 7L14 6L13 6L13 5ZM18 5L18 6L17 6L17 8L19 8L19 7L20 7L20 6L19 6L19 5ZM27 5L27 8L30 8L30 5ZM35 5L35 7L34 7L34 8L33 8L33 9L34 9L34 10L36 10L36 11L35 11L35 12L37 12L37 10L38 10L38 11L39 11L39 10L38 10L38 9L35 9L35 7L36 7L36 5ZM15 6L15 7L16 7L16 6ZM18 6L18 7L19 7L19 6ZM28 6L28 7L29 7L29 6ZM9 8L9 9L10 9L10 8ZM12 8L12 9L13 9L13 10L14 10L14 8ZM6 9L6 10L7 10L7 9ZM51 9L51 10L52 10L52 12L51 12L51 14L52 14L52 13L53 13L53 14L55 14L55 9L53 9L53 10L52 10L52 9ZM53 10L53 11L54 11L54 10ZM11 11L11 12L12 12L12 11ZM26 11L26 13L25 13L25 12L24 12L24 13L21 13L21 14L22 14L22 15L21 15L21 17L26 17L26 16L27 16L27 15L28 15L28 14L26 14L26 13L29 13L29 16L31 16L31 17L32 17L32 18L31 18L31 19L30 19L30 18L28 18L28 17L27 17L27 18L26 18L26 20L25 20L25 18L24 18L24 19L23 19L23 20L22 20L22 18L20 18L20 20L19 20L19 21L17 21L17 20L15 20L15 21L17 21L17 22L16 22L16 23L15 23L15 24L16 24L16 26L14 26L14 27L15 27L15 28L13 28L13 29L12 29L12 30L13 30L13 29L15 29L15 30L14 30L14 31L15 31L15 32L16 32L16 31L15 31L15 30L17 30L17 31L18 31L18 32L19 32L19 35L18 35L18 36L22 36L22 37L23 37L23 35L21 35L21 34L23 34L23 33L26 33L26 32L25 32L25 31L22 31L22 30L23 30L23 29L24 29L24 28L22 28L22 27L21 27L21 28L20 28L20 25L21 25L21 26L22 26L22 25L23 25L23 24L24 24L24 23L22 23L22 22L20 22L20 23L19 23L19 24L20 24L20 25L19 25L19 28L18 28L18 29L15 29L15 28L16 28L16 27L18 27L18 25L17 25L17 22L19 22L19 21L20 21L20 20L21 20L21 21L24 21L24 22L25 22L25 23L26 23L26 22L27 22L27 25L29 25L29 24L31 24L31 29L32 29L32 30L31 30L31 31L32 31L32 32L30 32L30 31L28 31L28 32L29 32L29 33L28 33L28 34L27 34L27 36L28 36L28 37L26 37L26 38L27 38L27 39L28 39L28 38L29 38L29 39L31 39L31 38L33 38L33 37L32 37L32 36L31 36L31 35L32 35L32 34L33 34L33 33L32 33L32 32L34 32L34 31L32 31L32 30L33 30L33 29L32 29L32 28L33 28L33 27L32 27L32 23L33 23L33 22L31 22L31 23L30 23L30 22L29 22L29 23L28 23L28 22L27 22L27 21L26 21L26 20L27 20L27 19L29 19L29 20L28 20L28 21L29 21L29 20L31 20L31 21L32 21L32 20L31 20L31 19L34 19L34 20L36 20L36 19L34 19L34 18L33 18L33 17L32 17L32 16L33 16L33 15L30 15L30 13L31 13L31 12L29 12L29 11L28 11L28 12L27 12L27 11ZM41 11L41 12L44 12L44 11ZM53 12L53 13L54 13L54 12ZM24 13L24 15L22 15L22 16L26 16L26 15L25 15L25 13ZM32 13L32 14L33 14L33 13ZM47 13L47 14L49 14L49 13ZM5 15L5 16L8 16L8 15ZM3 16L3 17L4 17L4 16ZM8 18L8 19L9 19L9 18ZM50 18L50 19L51 19L51 18ZM24 20L24 21L25 21L25 20ZM38 20L38 21L39 21L39 20ZM45 20L45 21L46 21L46 23L50 23L50 24L49 24L49 26L50 26L50 24L52 24L52 23L50 23L50 22L48 22L48 21L46 21L46 20ZM34 21L34 22L35 22L35 21ZM51 21L51 22L52 22L52 21ZM21 23L21 25L22 25L22 23ZM41 23L41 24L42 24L42 23ZM33 24L33 25L34 25L34 24ZM25 25L25 27L26 27L26 25ZM41 25L41 27L42 27L42 28L43 28L43 29L45 29L45 27L44 27L44 26L43 26L43 25ZM3 26L3 27L4 27L4 26ZM5 27L5 30L8 30L8 27ZM27 27L27 30L30 30L30 27ZM49 27L49 30L52 30L52 27ZM6 28L6 29L7 29L7 28ZM19 28L19 29L18 29L18 30L19 30L19 29L20 29L20 30L22 30L22 29L20 29L20 28ZM28 28L28 29L29 29L29 28ZM37 28L37 29L38 29L38 28ZM50 28L50 29L51 29L51 28ZM25 29L25 30L26 30L26 29ZM2 30L2 31L3 31L3 30ZM37 30L37 32L38 32L38 30ZM19 31L19 32L20 32L20 31ZM21 31L21 33L20 33L20 34L21 34L21 33L22 33L22 31ZM5 32L5 33L7 33L7 34L6 34L6 35L7 35L7 36L9 36L9 37L7 37L7 38L9 38L9 39L10 39L10 35L9 35L9 34L8 34L8 33L9 33L9 32L8 32L8 33L7 33L7 32ZM51 32L51 33L53 33L53 32ZM29 33L29 34L28 34L28 36L29 36L29 37L31 37L31 36L30 36L30 34L31 34L31 33ZM34 33L34 35L33 35L33 36L35 36L35 33ZM37 33L37 34L38 34L38 33ZM55 33L55 34L56 34L56 33ZM7 34L7 35L8 35L8 34ZM24 34L24 36L25 36L25 35L26 35L26 34ZM46 34L46 35L44 35L44 37L45 37L45 38L46 38L46 39L47 39L47 38L48 38L48 37L47 37L47 36L49 36L49 35L48 35L48 34ZM0 35L0 36L1 36L1 35ZM37 35L37 36L38 36L38 35ZM46 35L46 36L47 36L47 35ZM11 37L11 38L12 38L12 37ZM34 37L34 38L35 38L35 37ZM46 37L46 38L47 38L47 37ZM17 39L17 40L15 40L15 41L16 41L16 42L17 42L17 41L18 41L18 40L19 40L19 39ZM1 41L1 43L2 43L2 41ZM26 41L26 42L25 42L25 43L24 43L24 45L25 45L25 43L27 43L27 41ZM48 41L48 42L49 42L49 43L50 43L50 44L51 44L51 43L52 43L52 41L51 41L51 43L50 43L50 42L49 42L49 41ZM55 41L55 42L56 42L56 41ZM46 42L46 43L47 43L47 42ZM44 43L44 45L45 45L45 43ZM2 44L2 45L3 45L3 47L5 47L5 46L4 46L4 45L5 45L5 44ZM40 44L40 45L41 45L41 44ZM26 45L26 46L27 46L27 45ZM28 45L28 46L29 46L29 45ZM1 46L1 47L2 47L2 46ZM39 47L39 49L38 49L38 52L39 52L39 51L40 51L40 47ZM21 48L21 49L22 49L22 48ZM27 49L27 52L30 52L30 49ZM49 49L49 52L52 52L52 49ZM55 49L55 50L56 50L56 49ZM28 50L28 51L29 51L29 50ZM31 50L31 52L32 52L32 50ZM50 50L50 51L51 51L51 50ZM53 50L53 53L54 53L54 52L55 52L55 53L56 53L56 52L55 52L55 51L54 51L54 50ZM11 51L11 53L12 53L12 54L13 54L13 53L14 53L14 51ZM25 51L25 52L26 52L26 51ZM12 52L12 53L13 53L13 52ZM15 52L15 53L17 53L17 52ZM19 52L19 53L20 53L20 52ZM22 52L22 53L21 53L21 54L22 54L22 55L23 55L23 56L24 56L24 55L23 55L23 54L22 54L22 53L24 53L24 52ZM30 53L30 54L31 54L31 53ZM32 53L32 54L33 54L33 55L34 55L34 54L35 54L35 53L34 53L34 54L33 54L33 53ZM49 53L49 54L51 54L51 55L52 55L52 54L51 54L51 53ZM42 54L42 55L43 55L43 54ZM17 56L17 57L19 57L19 56ZM39 56L39 57L40 57L40 56ZM56 56L56 57L57 57L57 56ZM0 0L0 7L7 7L7 0ZM1 1L1 6L6 6L6 1ZM2 2L2 5L5 5L5 2ZM50 0L50 7L57 7L57 0ZM51 1L51 6L56 6L56 1ZM52 2L52 5L55 5L55 2ZM0 50L0 57L7 57L7 50ZM1 51L1 56L6 56L6 51ZM2 52L2 55L5 55L5 52Z" fill="#000000"/></g></g></svg>
