<?xml version="1.0" encoding="UTF-8"?>
<svg xmlns="http://www.w3.org/2000/svg" version="1.1" width="300" height="300" viewBox="0 0 300 300"><rect x="0" y="0" width="300" height="300" fill="#fefefe"/><g transform="scale(4.615)"><g transform="translate(4,4)"><path fill-rule="evenodd" d="M8 0L8 1L10 1L10 0ZM13 0L13 1L14 1L14 0ZM19 0L19 2L20 2L20 3L21 3L21 1L22 1L22 3L23 3L23 6L22 6L22 4L21 4L21 5L20 5L20 4L19 4L19 3L18 3L18 1L17 1L17 2L15 2L15 3L18 3L18 7L19 7L19 8L20 8L20 7L21 7L21 9L23 9L23 10L21 10L21 11L19 11L19 12L18 12L18 9L17 9L17 11L14 11L14 10L13 10L13 9L12 9L12 10L11 10L11 6L12 6L12 7L13 7L13 8L14 8L14 7L15 7L15 6L16 6L16 7L17 7L17 5L15 5L15 4L14 4L14 3L13 3L13 4L14 4L14 5L13 5L13 6L12 6L12 5L11 5L11 4L10 4L10 7L9 7L9 6L8 6L8 7L9 7L9 8L8 8L8 9L7 9L7 8L6 8L6 9L5 9L5 12L6 12L6 13L5 13L5 14L4 14L4 13L3 13L3 12L4 12L4 11L2 11L2 14L3 14L3 16L2 16L2 15L1 15L1 11L0 11L0 18L1 18L1 16L2 16L2 17L3 17L3 19L0 19L0 21L1 21L1 22L0 22L0 23L3 23L3 24L2 24L2 25L4 25L4 27L3 27L3 29L2 29L2 27L0 27L0 32L1 32L1 35L2 35L2 36L1 36L1 37L0 37L0 39L2 39L2 40L1 40L1 42L2 42L2 43L1 43L1 44L0 44L0 45L1 45L1 46L0 46L0 48L5 48L5 47L7 47L7 48L6 48L6 49L8 49L8 50L9 50L9 53L8 53L8 57L9 57L9 53L10 53L10 52L13 52L13 53L14 53L14 54L15 54L15 55L14 55L14 56L13 56L13 55L11 55L11 56L13 56L13 57L15 57L15 56L16 56L16 57L18 57L18 56L19 56L19 57L20 57L20 56L21 56L21 57L23 57L23 56L22 56L22 55L23 55L23 54L25 54L25 55L24 55L24 56L26 56L26 54L27 54L27 53L29 53L29 54L31 54L31 55L30 55L30 56L31 56L31 57L32 57L32 55L33 55L33 54L36 54L36 55L34 55L34 56L33 56L33 57L36 57L36 55L38 55L38 57L41 57L41 56L42 56L42 57L43 57L43 56L45 56L45 57L46 57L46 55L44 55L44 54L47 54L47 56L49 56L49 57L51 57L51 54L52 54L52 53L53 53L53 56L52 56L52 57L55 57L55 56L54 56L54 55L55 55L55 54L56 54L56 53L57 53L57 52L55 52L55 50L53 50L53 49L55 49L55 48L54 48L54 47L57 47L57 45L56 45L56 46L55 46L55 44L53 44L53 45L54 45L54 46L52 46L52 43L53 43L53 42L54 42L54 43L56 43L56 44L57 44L57 43L56 43L56 42L57 42L57 40L56 40L56 41L55 41L55 42L54 42L54 40L55 40L55 38L56 38L56 39L57 39L57 38L56 38L56 37L57 37L57 36L56 36L56 35L57 35L57 31L56 31L56 30L57 30L57 28L55 28L55 27L53 27L53 26L52 26L52 25L49 25L49 24L53 24L53 25L54 25L54 24L53 24L53 20L50 20L50 19L49 19L49 18L48 18L48 17L49 17L49 16L50 16L50 17L52 17L52 16L50 16L50 15L51 15L51 13L52 13L52 14L54 14L54 15L53 15L53 16L55 16L55 17L54 17L54 18L51 18L51 19L56 19L56 22L55 22L55 23L57 23L57 19L56 19L56 18L57 18L57 15L55 15L55 13L57 13L57 12L55 12L55 13L54 13L54 10L53 10L53 9L55 9L55 11L57 11L57 10L56 10L56 9L57 9L57 8L56 8L56 9L55 9L55 8L52 8L52 10L53 10L53 13L52 13L52 12L51 12L51 10L50 10L50 8L49 8L49 9L47 9L47 5L48 5L48 0L46 0L46 1L44 1L44 2L41 2L41 1L43 1L43 0L41 0L41 1L40 1L40 0L39 0L39 1L40 1L40 2L41 2L41 4L37 4L37 3L38 3L38 2L37 2L37 1L38 1L38 0L37 0L37 1L36 1L36 0L35 0L35 1L34 1L34 2L35 2L35 4L36 4L36 5L37 5L37 6L36 6L36 7L35 7L35 6L34 6L34 5L33 5L33 6L32 6L32 5L31 5L31 4L32 4L32 3L33 3L33 0L28 0L28 1L27 1L27 2L28 2L28 3L29 3L29 2L28 2L28 1L32 1L32 2L30 2L30 3L31 3L31 4L26 4L26 1L25 1L25 0L23 0L23 1L22 1L22 0L21 0L21 1L20 1L20 0ZM23 1L23 3L24 3L24 2L25 2L25 1ZM35 1L35 2L36 2L36 1ZM46 1L46 2L45 2L45 3L44 3L44 4L45 4L45 5L43 5L43 3L42 3L42 4L41 4L41 7L40 7L40 5L38 5L38 6L37 6L37 8L36 8L36 9L34 9L34 6L33 6L33 8L32 8L32 6L31 6L31 9L32 9L32 10L31 10L31 12L30 12L30 11L29 11L29 10L28 10L28 11L27 11L27 10L26 10L26 11L25 11L25 13L22 13L22 12L23 12L23 11L21 11L21 17L20 17L20 15L19 15L19 16L17 16L17 15L18 15L18 14L19 14L19 13L20 13L20 12L19 12L19 13L18 13L18 12L17 12L17 13L16 13L16 12L15 12L15 15L14 15L14 13L13 13L13 12L12 12L12 11L13 11L13 10L12 10L12 11L10 11L10 10L9 10L9 11L8 11L8 10L7 10L7 9L6 9L6 10L7 10L7 11L6 11L6 12L7 12L7 13L6 13L6 14L5 14L5 15L6 15L6 16L7 16L7 15L6 15L6 14L7 14L7 13L8 13L8 12L10 12L10 14L12 14L12 15L9 15L9 16L8 16L8 17L6 17L6 18L7 18L7 19L5 19L5 20L4 20L4 19L3 19L3 20L4 20L4 21L5 21L5 22L3 22L3 21L2 21L2 22L3 22L3 23L4 23L4 25L5 25L5 26L7 26L7 25L6 25L6 24L8 24L8 25L9 25L9 26L10 26L10 28L12 28L12 30L14 30L14 29L13 29L13 27L14 27L14 28L15 28L15 27L17 27L17 30L16 30L16 29L15 29L15 30L16 30L16 32L14 32L14 31L12 31L12 32L14 32L14 33L12 33L12 34L9 34L9 35L11 35L11 36L9 36L9 39L6 39L6 38L7 38L7 37L8 37L8 36L7 36L7 35L8 35L8 32L10 32L10 33L11 33L11 32L10 32L10 30L11 30L11 29L9 29L9 31L8 31L8 32L7 32L7 31L5 31L5 32L7 32L7 33L6 33L6 34L5 34L5 33L4 33L4 32L3 32L3 31L4 31L4 29L3 29L3 31L1 31L1 32L3 32L3 33L4 33L4 34L5 34L5 35L4 35L4 36L3 36L3 37L4 37L4 38L3 38L3 39L6 39L6 40L7 40L7 41L5 41L5 40L3 40L3 41L2 41L2 42L4 42L4 43L5 43L5 44L4 44L4 45L2 45L2 44L3 44L3 43L2 43L2 44L1 44L1 45L2 45L2 46L1 46L1 47L2 47L2 46L3 46L3 47L5 47L5 44L7 44L7 45L6 45L6 46L7 46L7 45L10 45L10 46L8 46L8 49L9 49L9 50L10 50L10 51L11 51L11 50L12 50L12 48L16 48L16 50L17 50L17 51L15 51L15 49L14 49L14 51L15 51L15 52L14 52L14 53L16 53L16 54L17 54L17 55L18 55L18 54L19 54L19 51L18 51L18 50L19 50L19 49L21 49L21 50L20 50L20 51L21 51L21 50L22 50L22 49L23 49L23 51L22 51L22 53L20 53L20 55L19 55L19 56L20 56L20 55L22 55L22 54L23 54L23 52L24 52L24 53L25 53L25 52L26 52L26 50L25 50L25 48L24 48L24 49L23 49L23 48L20 48L20 47L22 47L22 46L23 46L23 47L24 47L24 45L23 45L23 44L25 44L25 43L26 43L26 45L25 45L25 47L26 47L26 48L27 48L27 47L30 47L30 48L32 48L32 49L31 49L31 50L32 50L32 51L31 51L31 53L32 53L32 51L33 51L33 52L35 52L35 53L36 53L36 54L39 54L39 53L37 53L37 51L36 51L36 52L35 52L35 48L37 48L37 49L36 49L36 50L37 50L37 49L38 49L38 48L39 48L39 49L40 49L40 50L39 50L39 51L38 51L38 52L40 52L40 54L41 54L41 55L42 55L42 54L43 54L43 51L44 51L44 49L46 49L46 50L45 50L45 51L47 51L47 52L48 52L48 48L47 48L47 49L46 49L46 48L45 48L45 47L46 47L46 46L48 46L48 47L49 47L49 48L51 48L51 47L52 47L52 46L51 46L51 47L49 47L49 46L50 46L50 45L49 45L49 44L51 44L51 42L50 42L50 41L52 41L52 40L53 40L53 39L54 39L54 38L55 38L55 37L56 37L56 36L55 36L55 35L54 35L54 36L55 36L55 37L54 37L54 38L53 38L53 36L52 36L52 35L51 35L51 37L52 37L52 38L50 38L50 39L52 39L52 40L50 40L50 41L47 41L47 42L46 42L46 43L47 43L47 44L43 44L43 43L44 43L44 42L45 42L45 41L46 41L46 39L45 39L45 36L44 36L44 37L43 37L43 35L42 35L42 34L41 34L41 35L37 35L37 37L34 37L34 38L36 38L36 39L35 39L35 40L34 40L34 41L36 41L36 42L34 42L34 43L36 43L36 45L35 45L35 44L34 44L34 45L33 45L33 42L32 42L32 44L31 44L31 43L29 43L29 42L30 42L30 41L31 41L31 40L33 40L33 39L32 39L32 38L33 38L33 36L36 36L36 35L34 35L34 34L35 34L35 33L33 33L33 31L32 31L32 30L31 30L31 34L30 34L30 35L29 35L29 33L30 33L30 31L28 31L28 33L27 33L27 31L25 31L25 30L26 30L26 28L25 28L25 25L28 25L28 26L31 26L31 23L32 23L32 22L34 22L34 23L33 23L33 24L32 24L32 25L33 25L33 24L35 24L35 23L36 23L36 24L37 24L37 22L35 22L35 20L36 20L36 21L38 21L38 22L39 22L39 21L38 21L38 20L40 20L40 19L39 19L39 18L41 18L41 20L43 20L43 21L44 21L44 22L45 22L45 19L44 19L44 18L45 18L45 17L46 17L46 16L47 16L47 14L48 14L48 16L49 16L49 11L48 11L48 12L47 12L47 11L46 11L46 10L47 10L47 9L46 9L46 5L47 5L47 3L46 3L46 2L47 2L47 1ZM8 2L8 5L9 5L9 3L12 3L12 2ZM24 4L24 6L23 6L23 7L22 7L22 6L21 6L21 7L22 7L22 8L23 8L23 9L24 9L24 8L25 8L25 9L26 9L26 6L25 6L25 5L26 5L26 4ZM27 5L27 8L30 8L30 5ZM13 6L13 7L14 7L14 6ZM19 6L19 7L20 7L20 6ZM24 6L24 7L23 7L23 8L24 8L24 7L25 7L25 6ZM28 6L28 7L29 7L29 6ZM38 6L38 7L39 7L39 10L38 10L38 9L37 9L37 11L38 11L38 12L35 12L35 11L36 11L36 10L35 10L35 11L34 11L34 10L33 10L33 11L32 11L32 12L31 12L31 13L32 13L32 12L33 12L33 14L32 14L32 15L31 15L31 14L30 14L30 13L28 13L28 12L26 12L26 14L25 14L25 15L24 15L24 14L23 14L23 18L22 18L22 17L21 17L21 19L22 19L22 20L21 20L21 21L23 21L23 22L22 22L22 23L21 23L21 22L19 22L19 21L18 21L18 20L19 20L19 17L17 17L17 16L16 16L16 15L17 15L17 14L16 14L16 15L15 15L15 16L14 16L14 15L12 15L12 16L9 16L9 17L8 17L8 18L9 18L9 17L11 17L11 18L10 18L10 19L11 19L11 18L12 18L12 17L15 17L15 19L13 19L13 22L14 22L14 20L16 20L16 23L15 23L15 24L14 24L14 23L13 23L13 24L14 24L14 25L11 25L11 24L12 24L12 20L11 20L11 22L10 22L10 20L5 20L5 21L9 21L9 22L6 22L6 23L8 23L8 24L10 24L10 26L14 26L14 25L15 25L15 26L16 26L16 25L17 25L17 27L20 27L20 28L18 28L18 29L20 29L20 28L21 28L21 27L20 27L20 26L22 26L22 27L23 27L23 29L21 29L21 30L20 30L20 33L19 33L19 34L20 34L20 33L21 33L21 34L22 34L22 35L20 35L20 36L23 36L23 37L22 37L22 39L21 39L21 38L20 38L20 37L19 37L19 36L18 36L18 35L17 35L17 34L18 34L18 32L19 32L19 30L18 30L18 32L16 32L16 33L17 33L17 34L16 34L16 35L13 35L13 34L12 34L12 36L11 36L11 37L10 37L10 38L11 38L11 39L12 39L12 38L11 38L11 37L12 37L12 36L14 36L14 37L15 37L15 36L17 36L17 37L18 37L18 39L17 39L17 38L13 38L13 40L14 40L14 41L15 41L15 44L13 44L13 43L12 43L12 42L11 42L11 43L10 43L10 42L9 42L9 41L12 41L12 40L8 40L8 41L7 41L7 42L6 42L6 43L7 43L7 42L8 42L8 43L9 43L9 44L11 44L11 46L10 46L10 48L9 48L9 49L10 49L10 48L12 48L12 44L13 44L13 45L14 45L14 46L15 46L15 47L16 47L16 48L17 48L17 49L19 49L19 47L18 47L18 48L17 48L17 47L16 47L16 46L15 46L15 45L17 45L17 46L20 46L20 45L17 45L17 42L18 42L18 43L19 43L19 44L21 44L21 46L22 46L22 44L23 44L23 42L24 42L24 41L25 41L25 42L29 42L29 41L30 41L30 40L29 40L29 41L28 41L28 39L30 39L30 38L32 38L32 36L33 36L33 34L31 34L31 35L32 35L32 36L29 36L29 35L28 35L28 34L27 34L27 35L26 35L26 36L23 36L23 35L24 35L24 34L25 34L25 32L24 32L24 31L22 31L22 32L21 32L21 30L24 30L24 29L25 29L25 28L24 28L24 26L23 26L23 25L22 25L22 24L24 24L24 25L25 25L25 22L27 22L27 23L26 23L26 24L29 24L29 25L30 25L30 24L29 24L29 23L28 23L28 21L29 21L29 22L31 22L31 20L32 20L32 19L30 19L30 17L29 17L29 16L32 16L32 17L33 17L33 19L35 19L35 17L34 17L34 16L35 16L35 15L36 15L36 14L37 14L37 15L39 15L39 17L40 17L40 16L41 16L41 14L40 14L40 11L42 11L42 12L43 12L43 13L44 13L44 11L43 11L43 10L44 10L44 9L43 9L43 8L44 8L44 7L45 7L45 6L44 6L44 7L43 7L43 6L42 6L42 7L41 7L41 8L40 8L40 7L39 7L39 6ZM48 6L48 7L49 7L49 6ZM0 8L0 9L1 9L1 10L4 10L4 8ZM41 8L41 9L40 9L40 10L41 10L41 9L42 9L42 8ZM19 9L19 10L20 10L20 9ZM11 12L11 13L12 13L12 12ZM34 12L34 14L33 14L33 15L35 15L35 14L36 14L36 13L35 13L35 12ZM50 12L50 13L51 13L51 12ZM45 13L45 14L42 14L42 17L41 17L41 18L42 18L42 19L43 19L43 18L42 18L42 17L45 17L45 16L44 16L44 15L45 15L45 14L46 14L46 13ZM39 14L39 15L40 15L40 14ZM26 15L26 16L25 16L25 17L24 17L24 18L23 18L23 21L24 21L24 22L25 22L25 19L24 19L24 18L25 18L25 17L26 17L26 18L27 18L27 20L26 20L26 21L27 21L27 20L28 20L28 18L29 18L29 17L27 17L27 15ZM28 15L28 16L29 16L29 15ZM3 16L3 17L5 17L5 16ZM36 17L36 18L37 18L37 17ZM55 17L55 18L56 18L56 17ZM17 18L17 19L16 19L16 20L17 20L17 19L18 19L18 18ZM46 18L46 20L48 20L48 21L49 21L49 22L47 22L47 21L46 21L46 22L47 22L47 23L43 23L43 22L41 22L41 23L38 23L38 24L39 24L39 26L38 26L38 27L39 27L39 26L40 26L40 25L41 25L41 27L40 27L40 29L38 29L38 30L36 30L36 29L37 29L37 28L36 28L36 27L35 27L35 25L34 25L34 27L35 27L35 28L34 28L34 29L35 29L35 30L36 30L36 31L37 31L37 32L36 32L36 33L37 33L37 32L38 32L38 34L39 34L39 31L40 31L40 32L41 32L41 31L44 31L44 34L46 34L46 35L47 35L47 36L46 36L46 38L47 38L47 37L50 37L50 36L48 36L48 35L49 35L49 34L50 34L50 33L49 33L49 32L50 32L50 31L49 31L49 32L48 32L48 26L49 26L49 25L48 25L48 24L47 24L47 23L52 23L52 22L51 22L51 21L50 21L50 20L49 20L49 19L48 19L48 18ZM36 19L36 20L38 20L38 19ZM29 20L29 21L30 21L30 20ZM33 20L33 21L34 21L34 20ZM54 20L54 21L55 21L55 20ZM17 21L17 22L18 22L18 23L16 23L16 24L18 24L18 23L19 23L19 22L18 22L18 21ZM20 23L20 24L19 24L19 25L18 25L18 26L19 26L19 25L20 25L20 24L21 24L21 23ZM42 23L42 25L44 25L44 26L46 26L46 30L45 30L45 27L44 27L44 28L42 28L42 27L43 27L43 26L42 26L42 27L41 27L41 29L40 29L40 30L42 30L42 29L43 29L43 30L44 30L44 31L45 31L45 32L46 32L46 33L47 33L47 32L46 32L46 31L47 31L47 26L46 26L46 25L47 25L47 24L46 24L46 25L44 25L44 24L43 24L43 23ZM55 24L55 25L56 25L56 24ZM5 27L5 30L8 30L8 27ZM27 27L27 30L30 30L30 27ZM31 27L31 28L33 28L33 27ZM49 27L49 30L52 30L52 27ZM6 28L6 29L7 29L7 28ZM28 28L28 29L29 29L29 28ZM50 28L50 29L51 29L51 28ZM53 28L53 30L56 30L56 29L54 29L54 28ZM1 29L1 30L2 30L2 29ZM38 30L38 31L39 31L39 30ZM34 31L34 32L35 32L35 31ZM51 31L51 32L52 32L52 34L54 34L54 33L53 33L53 31ZM54 31L54 32L55 32L55 31ZM23 32L23 33L22 33L22 34L23 34L23 33L24 33L24 32ZM42 32L42 33L43 33L43 32ZM14 33L14 34L15 34L15 33ZM55 33L55 34L56 34L56 33ZM6 34L6 35L7 35L7 34ZM47 34L47 35L48 35L48 34ZM41 35L41 36L42 36L42 35ZM6 36L6 37L5 37L5 38L6 38L6 37L7 37L7 36ZM27 36L27 37L24 37L24 39L22 39L22 41L21 41L21 40L18 40L18 41L19 41L19 43L21 43L21 44L22 44L22 41L23 41L23 40L24 40L24 39L25 39L25 41L26 41L26 40L27 40L27 39L25 39L25 38L29 38L29 36ZM39 36L39 37L37 37L37 38L39 38L39 39L38 39L38 40L37 40L37 41L39 41L39 42L37 42L37 44L38 44L38 45L37 45L37 46L34 46L34 47L33 47L33 46L32 46L32 45L31 45L31 44L30 44L30 45L31 45L31 47L32 47L32 48L33 48L33 49L32 49L32 50L33 50L33 51L34 51L34 47L38 47L38 45L40 45L40 46L39 46L39 47L43 47L43 49L44 49L44 47L45 47L45 46L43 46L43 45L42 45L42 43L43 43L43 42L42 42L42 41L43 41L43 40L44 40L44 41L45 41L45 39L44 39L44 38L42 38L42 39L43 39L43 40L42 40L42 41L40 41L40 40L39 40L39 39L41 39L41 37L40 37L40 36ZM1 37L1 38L2 38L2 37ZM48 38L48 39L47 39L47 40L49 40L49 38ZM52 38L52 39L53 39L53 38ZM14 39L14 40L15 40L15 41L16 41L16 40L17 40L17 39L16 39L16 40L15 40L15 39ZM39 42L39 43L38 43L38 44L39 44L39 43L40 43L40 44L41 44L41 43L40 43L40 42ZM47 42L47 43L48 43L48 44L49 44L49 43L50 43L50 42ZM28 43L28 45L29 45L29 43ZM26 45L26 46L27 46L27 45ZM48 45L48 46L49 46L49 45ZM41 48L41 49L42 49L42 48ZM56 48L56 50L57 50L57 48ZM27 49L27 52L30 52L30 49ZM49 49L49 52L52 52L52 49ZM24 50L24 51L25 51L25 50ZM28 50L28 51L29 51L29 50ZM50 50L50 51L51 51L51 50ZM40 51L40 52L41 52L41 54L42 54L42 51ZM45 52L45 53L46 53L46 52ZM54 52L54 53L55 53L55 52ZM11 53L11 54L12 54L12 53ZM17 53L17 54L18 54L18 53ZM47 53L47 54L50 54L50 53ZM27 55L27 56L28 56L28 55ZM39 55L39 56L40 56L40 55ZM56 55L56 56L57 56L57 55ZM0 0L0 7L7 7L7 0ZM1 1L1 6L6 6L6 1ZM2 2L2 5L5 5L5 2ZM50 0L50 7L57 7L57 0ZM51 1L51 6L56 6L56 1ZM52 2L52 5L55 5L55 2ZM0 50L0 57L7 57L7 50ZM1 51L1 56L6 56L6 51ZM2 52L2 55L5 55L5 52Z" fill="#000000"/></g></g></svg>
