<?xml version="1.0" encoding="UTF-8"?>
<svg xmlns="http://www.w3.org/2000/svg" version="1.1" width="300" height="300" viewBox="0 0 300 300"><rect x="0" y="0" width="300" height="300" fill="#fefefe"/><g transform="scale(4.615)"><g transform="translate(4,4)"><path fill-rule="evenodd" d="M8 0L8 1L9 1L9 0ZM14 0L14 1L15 1L15 0ZM17 0L17 1L18 1L18 0ZM19 0L19 2L18 2L18 3L17 3L17 2L15 2L15 3L17 3L17 5L15 5L15 4L14 4L14 3L12 3L12 2L13 2L13 1L12 1L12 2L11 2L11 3L9 3L9 2L8 2L8 5L9 5L9 6L8 6L8 7L9 7L9 8L8 8L8 9L7 9L7 8L6 8L6 9L7 9L7 10L4 10L4 8L0 8L0 10L4 10L4 11L3 11L3 12L2 12L2 11L0 11L0 12L1 12L1 14L2 14L2 15L3 15L3 18L2 18L2 19L1 19L1 21L2 21L2 23L1 23L1 22L0 22L0 23L1 23L1 24L0 24L0 25L2 25L2 26L0 26L0 27L2 27L2 28L0 28L0 31L1 31L1 29L2 29L2 30L3 30L3 31L2 31L2 32L0 32L0 38L1 38L1 39L0 39L0 40L2 40L2 38L3 38L3 39L4 39L4 40L3 40L3 41L1 41L1 42L3 42L3 41L5 41L5 42L6 42L6 43L5 43L5 45L7 45L7 46L5 46L5 47L3 47L3 44L4 44L4 43L3 43L3 44L2 44L2 43L0 43L0 44L1 44L1 46L0 46L0 48L5 48L5 47L7 47L7 48L6 48L6 49L7 49L7 48L8 48L8 50L9 50L9 52L12 52L12 54L11 54L11 53L8 53L8 57L9 57L9 56L11 56L11 55L12 55L12 56L14 56L14 57L15 57L15 56L16 56L16 57L18 57L18 56L17 56L17 54L18 54L18 55L20 55L20 57L21 57L21 56L22 56L22 57L23 57L23 56L22 56L22 55L23 55L23 54L26 54L26 55L27 55L27 56L28 56L28 55L27 55L27 54L26 54L26 53L29 53L29 54L31 54L31 55L30 55L30 56L31 56L31 57L32 57L32 55L34 55L34 56L33 56L33 57L36 57L36 55L37 55L37 54L36 54L36 53L33 53L33 51L32 51L32 53L31 53L31 49L32 49L32 47L31 47L31 48L30 48L30 47L29 47L29 46L28 46L28 44L29 44L29 43L31 43L31 44L30 44L30 45L31 45L31 46L32 46L32 42L33 42L33 45L34 45L34 44L35 44L35 45L36 45L36 47L38 47L38 45L41 45L41 46L40 46L40 47L43 47L43 54L42 54L42 53L41 53L41 54L40 54L40 52L41 52L41 51L40 51L40 52L39 52L39 50L40 50L40 49L39 49L39 48L38 48L38 49L37 49L37 48L35 48L35 50L34 50L34 48L33 48L33 50L34 50L34 51L35 51L35 52L36 52L36 51L38 51L38 52L39 52L39 54L38 54L38 57L43 57L43 55L44 55L44 54L45 54L45 55L46 55L46 56L48 56L48 57L51 57L51 54L52 54L52 53L53 53L53 54L54 54L54 55L55 55L55 54L56 54L56 53L57 53L57 52L56 52L56 51L55 51L55 50L53 50L53 48L54 48L54 45L55 45L55 44L56 44L56 41L57 41L57 40L56 40L56 41L55 41L55 38L56 38L56 39L57 39L57 38L56 38L56 37L57 37L57 36L54 36L54 35L57 35L57 31L56 31L56 30L57 30L57 29L56 29L56 28L57 28L57 27L56 27L56 28L55 28L55 27L53 27L53 26L51 26L51 24L50 24L50 23L49 23L49 21L47 21L47 20L50 20L50 21L51 21L51 22L52 22L52 23L53 23L53 24L54 24L54 23L53 23L53 22L54 22L54 21L55 21L55 20L54 20L54 21L53 21L53 20L50 20L50 19L47 19L47 18L48 18L48 17L51 17L51 19L56 19L56 20L57 20L57 19L56 19L56 18L55 18L55 17L57 17L57 15L55 15L55 14L54 14L54 10L53 10L53 9L55 9L55 8L52 8L52 9L51 9L51 10L53 10L53 13L52 13L52 12L51 12L51 11L50 11L50 10L49 10L49 9L50 9L50 8L47 8L47 9L48 9L48 10L49 10L49 11L47 11L47 10L46 10L46 8L45 8L45 6L46 6L46 7L47 7L47 5L48 5L48 0L45 0L45 1L44 1L44 2L42 2L42 3L41 3L41 4L39 4L39 2L37 2L37 1L38 1L38 0L37 0L37 1L36 1L36 0L35 0L35 1L34 1L34 2L33 2L33 1L31 1L31 0L29 0L29 1L28 1L28 2L27 2L27 3L28 3L28 2L29 2L29 3L30 3L30 4L26 4L26 0L23 0L23 1L22 1L22 0L21 0L21 1L20 1L20 0ZM39 0L39 1L40 1L40 2L41 2L41 1L43 1L43 0L41 0L41 1L40 1L40 0ZM23 1L23 2L20 2L20 3L19 3L19 4L20 4L20 5L23 5L23 3L24 3L24 2L25 2L25 1ZM30 1L30 3L31 3L31 1ZM35 1L35 2L36 2L36 1ZM45 1L45 3L44 3L44 4L45 4L45 5L43 5L43 4L41 4L41 7L40 7L40 5L38 5L38 6L37 6L37 5L36 5L36 4L35 4L35 3L32 3L32 4L31 4L31 5L32 5L32 6L31 6L31 9L32 9L32 10L31 10L31 11L32 11L32 14L31 14L31 12L30 12L30 11L29 11L29 9L28 9L28 10L26 10L26 11L25 11L25 12L23 12L23 11L24 11L24 10L23 10L23 9L26 9L26 6L25 6L25 5L26 5L26 4L24 4L24 6L23 6L23 7L22 7L22 6L21 6L21 7L20 7L20 6L19 6L19 7L20 7L20 8L18 8L18 9L17 9L17 7L18 7L18 5L17 5L17 7L16 7L16 6L15 6L15 7L14 7L14 6L13 6L13 5L14 5L14 4L13 4L13 5L12 5L12 3L11 3L11 5L10 5L10 6L9 6L9 7L10 7L10 6L11 6L11 8L12 8L12 9L10 9L10 8L9 8L9 9L10 9L10 10L12 10L12 11L11 11L11 12L10 12L10 11L9 11L9 10L7 10L7 11L5 11L5 12L3 12L3 13L4 13L4 14L3 14L3 15L4 15L4 16L5 16L5 17L4 17L4 18L5 18L5 19L2 19L2 20L4 20L4 21L3 21L3 22L4 22L4 24L5 24L5 25L3 25L3 23L2 23L2 25L3 25L3 26L2 26L2 27L3 27L3 28L2 28L2 29L4 29L4 26L8 26L8 24L9 24L9 23L10 23L10 25L9 25L9 26L10 26L10 27L9 27L9 28L10 28L10 29L13 29L13 30L14 30L14 31L12 31L12 30L10 30L10 32L8 32L8 33L5 33L5 32L4 32L4 31L3 31L3 32L2 32L2 34L1 34L1 38L2 38L2 36L3 36L3 35L4 35L4 37L3 37L3 38L4 38L4 39L6 39L6 40L5 40L5 41L6 41L6 42L8 42L8 43L6 43L6 44L7 44L7 45L9 45L9 46L10 46L10 47L8 47L8 46L7 46L7 47L8 47L8 48L10 48L10 49L9 49L9 50L10 50L10 51L12 51L12 52L13 52L13 53L16 53L16 54L17 54L17 53L18 53L18 54L19 54L19 52L17 52L17 51L15 51L15 50L14 50L14 49L15 49L15 48L16 48L16 47L17 47L17 45L19 45L19 44L20 44L20 46L18 46L18 47L19 47L19 49L20 49L20 48L21 48L21 50L20 50L20 51L21 51L21 52L22 52L22 53L20 53L20 55L21 55L21 54L22 54L22 53L23 53L23 52L24 52L24 53L25 53L25 52L26 52L26 51L24 51L24 50L25 50L25 48L27 48L27 47L28 47L28 46L26 46L26 45L27 45L27 44L28 44L28 43L27 43L27 42L25 42L25 41L26 41L26 37L24 37L24 39L23 39L23 40L22 40L22 41L23 41L23 40L24 40L24 39L25 39L25 41L24 41L24 42L23 42L23 43L26 43L26 45L25 45L25 47L23 47L23 48L21 48L21 47L22 47L22 46L23 46L23 45L24 45L24 44L22 44L22 42L21 42L21 41L20 41L20 40L19 40L19 38L18 38L18 36L19 36L19 37L20 37L20 38L21 38L21 39L22 39L22 38L23 38L23 36L27 36L27 38L29 38L29 36L32 36L32 38L30 38L30 39L28 39L28 40L27 40L27 41L28 41L28 40L30 40L30 41L29 41L29 42L30 42L30 41L31 41L31 40L33 40L33 39L34 39L34 38L36 38L36 39L35 39L35 40L34 40L34 41L36 41L36 42L34 42L34 43L35 43L35 44L36 44L36 45L38 45L38 44L39 44L39 43L40 43L40 44L41 44L41 43L42 43L42 45L43 45L43 46L45 46L45 47L46 47L46 46L48 46L48 47L49 47L49 48L50 48L50 44L51 44L51 42L50 42L50 41L52 41L52 40L50 40L50 41L47 41L47 42L48 42L48 43L49 43L49 46L48 46L48 44L43 44L43 43L42 43L42 42L43 42L43 41L42 41L42 40L44 40L44 39L45 39L45 41L44 41L44 43L46 43L46 42L45 42L45 41L46 41L46 38L47 38L47 37L48 37L48 39L47 39L47 40L49 40L49 39L52 39L52 38L53 38L53 39L54 39L54 38L53 38L53 36L52 36L52 35L51 35L51 37L52 37L52 38L49 38L49 36L47 36L47 37L46 37L46 36L44 36L44 37L43 37L43 35L44 35L44 34L43 34L43 35L42 35L42 34L41 34L41 35L39 35L39 36L40 36L40 37L41 37L41 39L39 39L39 38L37 38L37 37L38 37L38 36L37 36L37 37L35 37L35 36L36 36L36 35L35 35L35 32L34 32L34 31L33 31L33 29L31 29L31 33L32 33L32 34L34 34L34 36L32 36L32 35L31 35L31 34L30 34L30 35L29 35L29 33L30 33L30 32L29 32L29 31L25 31L25 34L24 34L24 35L22 35L22 34L23 34L23 33L24 33L24 31L23 31L23 30L21 30L21 29L24 29L24 30L26 30L26 28L25 28L25 27L24 27L24 26L25 26L25 25L28 25L28 26L31 26L31 25L30 25L30 21L31 21L31 23L32 23L32 22L33 22L33 24L32 24L32 25L33 25L33 24L35 24L35 23L36 23L36 24L37 24L37 22L35 22L35 20L36 20L36 21L38 21L38 23L39 23L39 24L38 24L38 25L39 25L39 26L38 26L38 27L39 27L39 28L40 28L40 30L39 30L39 29L38 29L38 30L36 30L36 29L37 29L37 28L34 28L34 29L35 29L35 31L37 31L37 32L36 32L36 33L37 33L37 32L38 32L38 34L39 34L39 31L40 31L40 32L41 32L41 31L43 31L43 30L44 30L44 33L45 33L45 34L46 34L46 35L47 35L47 34L50 34L50 33L49 33L49 32L50 32L50 31L49 31L49 32L48 32L48 30L47 30L47 31L45 31L45 30L46 30L46 26L49 26L49 25L50 25L50 24L46 24L46 26L45 26L45 29L44 29L44 28L43 28L43 27L42 27L42 26L43 26L43 24L44 24L44 25L45 25L45 23L43 23L43 22L41 22L41 23L39 23L39 20L40 20L40 19L39 19L39 18L41 18L41 20L42 20L42 21L44 21L44 22L47 22L47 23L48 23L48 22L47 22L47 21L45 21L45 19L46 19L46 20L47 20L47 19L46 19L46 17L47 17L47 14L48 14L48 16L49 16L49 12L47 12L47 11L45 11L45 10L44 10L44 9L45 9L45 8L43 8L43 7L44 7L44 6L45 6L45 5L47 5L47 3L46 3L46 2L47 2L47 1ZM37 3L37 4L38 4L38 3ZM33 4L33 6L32 6L32 8L33 8L33 6L34 6L34 9L36 9L36 8L37 8L37 6L36 6L36 7L35 7L35 6L34 6L34 4ZM11 5L11 6L12 6L12 8L13 8L13 6L12 6L12 5ZM27 5L27 8L30 8L30 5ZM42 5L42 7L43 7L43 5ZM24 6L24 7L23 7L23 8L21 8L21 9L23 9L23 8L24 8L24 7L25 7L25 6ZM28 6L28 7L29 7L29 6ZM38 6L38 7L39 7L39 10L40 10L40 11L42 11L42 12L43 12L43 13L44 13L44 14L46 14L46 13L44 13L44 12L43 12L43 11L42 11L42 10L43 10L43 8L40 8L40 7L39 7L39 6ZM48 6L48 7L49 7L49 6ZM56 8L56 9L57 9L57 8ZM13 9L13 11L12 11L12 15L10 15L10 14L8 14L8 13L9 13L9 12L8 12L8 13L7 13L7 12L5 12L5 13L7 13L7 14L6 14L6 15L5 15L5 16L6 16L6 17L9 17L9 18L6 18L6 19L9 19L9 21L7 21L7 20L5 20L5 24L6 24L6 25L7 25L7 24L6 24L6 23L8 23L8 22L9 22L9 21L10 21L10 19L11 19L11 17L9 17L9 16L6 16L6 15L10 15L10 16L12 16L12 17L16 17L16 18L15 18L15 19L13 19L13 21L12 21L12 22L11 22L11 23L12 23L12 22L14 22L14 23L13 23L13 24L12 24L12 25L13 25L13 26L12 26L12 27L11 27L11 28L13 28L13 29L14 29L14 28L15 28L15 29L16 29L16 30L15 30L15 31L14 31L14 33L15 33L15 32L16 32L16 33L17 33L17 34L16 34L16 35L17 35L17 36L18 36L18 35L17 35L17 34L18 34L18 33L17 33L17 32L16 32L16 30L17 30L17 27L19 27L19 28L18 28L18 29L20 29L20 28L21 28L21 26L22 26L22 27L23 27L23 25L22 25L22 24L24 24L24 25L25 25L25 22L28 22L28 23L26 23L26 24L28 24L28 23L29 23L29 21L30 21L30 20L32 20L32 19L30 19L30 17L29 17L29 16L31 16L31 17L33 17L33 18L35 18L35 17L34 17L34 16L35 16L35 15L36 15L36 13L37 13L37 15L39 15L39 17L40 17L40 16L41 16L41 13L40 13L40 15L39 15L39 11L38 11L38 12L36 12L36 10L35 10L35 11L34 11L34 10L33 10L33 14L32 14L32 15L33 15L33 16L31 16L31 14L30 14L30 13L28 13L28 12L26 12L26 14L27 14L27 17L25 17L25 16L26 16L26 15L25 15L25 14L23 14L23 15L24 15L24 16L23 16L23 18L24 18L24 19L25 19L25 22L24 22L24 21L23 21L23 19L22 19L22 20L21 20L21 18L22 18L22 17L21 17L21 18L19 18L19 19L18 19L18 20L17 20L17 16L16 16L16 15L17 15L17 14L16 14L16 15L15 15L15 12L16 12L16 13L17 13L17 12L18 12L18 13L19 13L19 14L18 14L18 15L19 15L19 14L20 14L20 15L21 15L21 13L20 13L20 12L21 12L21 11L23 11L23 10L20 10L20 9L19 9L19 10L20 10L20 11L19 11L19 12L18 12L18 10L16 10L16 11L14 11L14 9ZM37 9L37 10L38 10L38 9ZM55 10L55 13L57 13L57 12L56 12L56 11L57 11L57 10ZM16 11L16 12L17 12L17 11ZM22 12L22 13L23 13L23 12ZM34 12L34 14L33 14L33 15L35 15L35 12ZM50 12L50 13L51 13L51 15L53 15L53 14L52 14L52 13L51 13L51 12ZM13 13L13 14L14 14L14 13ZM42 14L42 17L41 17L41 18L42 18L42 20L43 20L43 18L42 18L42 17L46 17L46 16L44 16L44 15L43 15L43 14ZM12 15L12 16L14 16L14 15ZM28 15L28 16L29 16L29 15ZM0 16L0 17L1 17L1 16ZM52 16L52 17L53 17L53 18L54 18L54 17L55 17L55 16L54 16L54 17L53 17L53 16ZM24 17L24 18L25 18L25 17ZM27 17L27 18L26 18L26 19L27 19L27 20L26 20L26 21L27 21L27 20L30 20L30 19L28 19L28 18L29 18L29 17ZM36 17L36 18L37 18L37 17ZM44 18L44 19L45 19L45 18ZM33 19L33 21L34 21L34 19ZM36 19L36 20L38 20L38 19ZM14 20L14 22L15 22L15 23L16 23L16 26L15 26L15 27L17 27L17 24L18 24L18 23L16 23L16 20ZM18 20L18 21L17 21L17 22L18 22L18 21L19 21L19 22L21 22L21 23L20 23L20 24L19 24L19 25L20 25L20 24L21 24L21 23L22 23L22 22L21 22L21 20ZM6 21L6 22L7 22L7 21ZM56 21L56 22L55 22L55 23L57 23L57 21ZM41 23L41 24L43 24L43 23ZM13 24L13 25L14 25L14 24ZM55 24L55 25L56 25L56 24ZM10 25L10 26L11 26L11 25ZM34 25L34 27L35 27L35 25ZM40 25L40 26L39 26L39 27L41 27L41 30L42 30L42 29L43 29L43 28L42 28L42 27L41 27L41 25ZM13 26L13 27L14 27L14 26ZM5 27L5 30L8 30L8 27ZM27 27L27 30L30 30L30 27ZM31 27L31 28L33 28L33 27ZM47 27L47 28L48 28L48 27ZM49 27L49 30L52 30L52 27ZM6 28L6 29L7 29L7 28ZM28 28L28 29L29 29L29 28ZM50 28L50 29L51 29L51 28ZM53 28L53 29L54 29L54 28ZM55 29L55 30L56 30L56 29ZM18 30L18 31L19 31L19 30ZM20 30L20 31L21 31L21 30ZM38 30L38 31L39 31L39 30ZM6 31L6 32L7 32L7 31ZM22 31L22 32L20 32L20 33L19 33L19 34L20 34L20 35L21 35L21 36L22 36L22 35L21 35L21 34L22 34L22 33L23 33L23 31ZM51 31L51 32L52 32L52 34L54 34L54 32L55 32L55 31ZM3 32L3 33L4 33L4 32ZM10 32L10 33L9 33L9 35L8 35L8 34L6 34L6 35L8 35L8 37L9 37L9 38L6 38L6 37L7 37L7 36L5 36L5 37L4 37L4 38L6 38L6 39L7 39L7 40L6 40L6 41L8 41L8 42L9 42L9 43L10 43L10 42L11 42L11 43L12 43L12 44L9 44L9 45L10 45L10 46L11 46L11 47L10 47L10 48L11 48L11 50L12 50L12 49L13 49L13 48L14 48L14 46L15 46L15 47L16 47L16 46L15 46L15 45L17 45L17 42L18 42L18 43L19 43L19 41L18 41L18 38L14 38L14 40L15 40L15 45L14 45L14 44L13 44L13 41L12 41L12 40L13 40L13 39L12 39L12 40L10 40L10 42L9 42L9 40L8 40L8 39L11 39L11 38L13 38L13 37L11 37L11 38L10 38L10 36L9 36L9 35L10 35L10 34L12 34L12 35L13 35L13 36L14 36L14 35L13 35L13 33L11 33L11 32ZM27 32L27 33L28 33L28 32ZM42 32L42 33L43 33L43 32ZM46 32L46 33L47 33L47 32ZM20 33L20 34L21 34L21 33ZM2 34L2 35L3 35L3 34ZM25 34L25 35L26 35L26 34ZM27 34L27 36L29 36L29 35L28 35L28 34ZM21 37L21 38L22 38L22 37ZM33 37L33 38L32 38L32 39L33 39L33 38L34 38L34 37ZM45 37L45 38L46 38L46 37ZM42 38L42 39L44 39L44 38ZM16 39L16 40L17 40L17 39ZM38 39L38 40L37 40L37 41L39 41L39 42L37 42L37 44L38 44L38 43L39 43L39 42L40 42L40 40L39 40L39 39ZM11 41L11 42L12 42L12 41ZM41 41L41 42L42 42L42 41ZM54 41L54 42L53 42L53 43L52 43L52 46L53 46L53 44L55 44L55 43L54 43L54 42L55 42L55 41ZM20 42L20 44L21 44L21 46L22 46L22 44L21 44L21 42ZM49 42L49 43L50 43L50 42ZM56 45L56 46L55 46L55 47L57 47L57 45ZM1 46L1 47L2 47L2 46ZM12 46L12 47L13 47L13 46ZM34 46L34 47L35 47L35 46ZM23 48L23 49L22 49L22 50L21 50L21 51L23 51L23 49L24 49L24 48ZM41 48L41 49L42 49L42 48ZM44 48L44 51L45 51L45 53L46 53L46 51L47 51L47 52L48 52L48 48L47 48L47 49L45 49L45 48ZM56 48L56 49L57 49L57 48ZM16 49L16 50L17 50L17 49ZM27 49L27 52L30 52L30 49ZM36 49L36 50L37 50L37 49ZM49 49L49 52L52 52L52 49ZM18 50L18 51L19 51L19 50ZM28 50L28 51L29 51L29 50ZM45 50L45 51L46 51L46 50ZM50 50L50 51L51 51L51 50ZM14 51L14 52L15 52L15 51ZM54 52L54 53L56 53L56 52ZM48 53L48 54L50 54L50 53ZM9 54L9 55L11 55L11 54ZM12 54L12 55L14 55L14 56L15 56L15 54ZM34 54L34 55L36 55L36 54ZM46 54L46 55L47 55L47 54ZM24 55L24 56L25 56L25 55ZM40 55L40 56L42 56L42 55ZM48 55L48 56L49 56L49 55ZM56 55L56 56L57 56L57 55ZM52 56L52 57L53 57L53 56ZM54 56L54 57L55 57L55 56ZM0 0L0 7L7 7L7 0ZM1 1L1 6L6 6L6 1ZM2 2L2 5L5 5L5 2ZM50 0L50 7L57 7L57 0ZM51 1L51 6L56 6L56 1ZM52 2L52 5L55 5L55 2ZM0 50L0 57L7 57L7 50ZM1 51L1 56L6 56L6 51ZM2 52L2 55L5 55L5 52Z" fill="#000000"/></g></g></svg>
