<?xml version="1.0" encoding="UTF-8"?>
<svg xmlns="http://www.w3.org/2000/svg" version="1.1" width="300" height="300" viewBox="0 0 300 300"><rect x="0" y="0" width="300" height="300" fill="#fefefe"/><g transform="scale(4.615)"><g transform="translate(4,4)"><path fill-rule="evenodd" d="M10 0L10 1L8 1L8 2L12 2L12 1L14 1L14 2L13 2L13 3L12 3L12 4L11 4L11 6L10 6L10 4L9 4L9 3L8 3L8 4L9 4L9 5L8 5L8 7L9 7L9 8L6 8L6 9L5 9L5 8L0 8L0 16L1 16L1 17L0 17L0 19L1 19L1 20L0 20L0 21L2 21L2 23L1 23L1 26L2 26L2 28L1 28L1 27L0 27L0 28L1 28L1 30L0 30L0 33L1 33L1 31L3 31L3 30L4 30L4 31L5 31L5 32L4 32L4 33L3 33L3 32L2 32L2 33L3 33L3 34L2 34L2 35L3 35L3 34L6 34L6 35L4 35L4 36L3 36L3 37L2 37L2 36L1 36L1 35L0 35L0 37L1 37L1 38L0 38L0 40L1 40L1 41L0 41L0 42L1 42L1 45L0 45L0 48L5 48L5 47L7 47L7 46L8 46L8 45L9 45L9 47L8 47L8 48L6 48L6 49L8 49L8 51L9 51L9 52L8 52L8 57L9 57L9 56L10 56L10 57L11 57L11 56L13 56L13 57L14 57L14 56L15 56L15 55L16 55L16 56L17 56L17 57L19 57L19 55L20 55L20 54L19 54L19 53L20 53L20 52L21 52L21 51L23 51L23 50L26 50L26 52L24 52L24 53L21 53L21 54L22 54L22 56L24 56L24 57L26 57L26 56L24 56L24 55L23 55L23 54L24 54L24 53L26 53L26 54L25 54L25 55L26 55L26 54L30 54L30 53L31 53L31 51L32 51L32 52L33 52L33 53L32 53L32 54L31 54L31 56L30 56L30 55L29 55L29 56L27 56L27 57L29 57L29 56L30 56L30 57L31 57L31 56L35 56L35 57L39 57L39 56L42 56L42 55L43 55L43 57L44 57L44 54L45 54L45 53L44 53L44 52L47 52L47 50L48 50L48 53L47 53L47 54L46 54L46 55L48 55L48 56L50 56L50 57L52 57L52 55L51 55L51 53L52 53L52 54L53 54L53 52L54 52L54 54L55 54L55 53L56 53L56 52L57 52L57 51L56 51L56 50L55 50L55 48L56 48L56 49L57 49L57 48L56 48L56 46L57 46L57 45L56 45L56 44L55 44L55 43L56 43L56 42L57 42L57 41L56 41L56 42L55 42L55 39L57 39L57 37L56 37L56 36L57 36L57 35L56 35L56 34L57 34L57 32L56 32L56 30L57 30L57 29L56 29L56 28L55 28L55 27L56 27L56 26L57 26L57 25L56 25L56 22L57 22L57 21L56 21L56 22L55 22L55 23L54 23L54 21L51 21L51 20L52 20L52 19L53 19L53 20L55 20L55 19L56 19L56 16L57 16L57 15L56 15L56 14L57 14L57 11L56 11L56 10L54 10L54 11L52 11L52 10L53 10L53 9L54 9L54 8L53 8L53 9L52 9L52 8L51 8L51 10L50 10L50 8L47 8L47 10L46 10L46 11L45 11L45 9L44 9L44 8L46 8L46 7L47 7L47 5L48 5L48 0L46 0L46 1L45 1L45 2L44 2L44 3L43 3L43 4L40 4L40 5L39 5L39 6L38 6L38 4L37 4L37 3L38 3L38 2L39 2L39 3L42 3L42 2L43 2L43 0L41 0L41 1L40 1L40 0L39 0L39 1L38 1L38 0L37 0L37 1L38 1L38 2L37 2L37 3L36 3L36 0L35 0L35 1L33 1L33 0L32 0L32 1L31 1L31 0L27 0L27 1L26 1L26 0L23 0L23 2L22 2L22 0L21 0L21 4L19 4L19 2L20 2L20 0L17 0L17 2L16 2L16 1L14 1L14 0L12 0L12 1L11 1L11 0ZM25 1L25 2L23 2L23 3L22 3L22 4L21 4L21 5L22 5L22 4L23 4L23 5L24 5L24 4L23 4L23 3L26 3L26 4L25 4L25 8L24 8L24 6L23 6L23 8L19 8L19 7L20 7L20 5L19 5L19 4L18 4L18 2L17 2L17 3L15 3L15 2L14 2L14 4L13 4L13 5L12 5L12 6L11 6L11 7L10 7L10 6L9 6L9 7L10 7L10 9L11 9L11 7L12 7L12 8L14 8L14 9L12 9L12 10L11 10L11 12L12 12L12 13L11 13L11 14L10 14L10 15L9 15L9 16L10 16L10 15L11 15L11 14L12 14L12 16L11 16L11 17L10 17L10 18L9 18L9 17L8 17L8 15L6 15L6 16L7 16L7 17L5 17L5 13L6 13L6 14L7 14L7 13L8 13L8 14L9 14L9 13L10 13L10 12L9 12L9 10L8 10L8 12L7 12L7 11L6 11L6 10L7 10L7 9L6 9L6 10L5 10L5 9L4 9L4 10L3 10L3 9L1 9L1 10L2 10L2 12L1 12L1 13L2 13L2 14L1 14L1 15L2 15L2 14L4 14L4 18L5 18L5 20L4 20L4 19L2 19L2 17L3 17L3 16L2 16L2 17L1 17L1 19L2 19L2 21L3 21L3 20L4 20L4 21L5 21L5 22L3 22L3 23L2 23L2 24L3 24L3 25L2 25L2 26L3 26L3 25L4 25L4 26L8 26L8 25L10 25L10 26L11 26L11 27L10 27L10 29L9 29L9 31L6 31L6 32L5 32L5 33L6 33L6 34L9 34L9 33L8 33L8 32L9 32L9 31L10 31L10 29L13 29L13 30L14 30L14 31L15 31L15 33L16 33L16 34L15 34L15 35L14 35L14 34L13 34L13 33L14 33L14 32L13 32L13 31L11 31L11 33L10 33L10 34L11 34L11 35L10 35L10 36L12 36L12 34L13 34L13 37L12 37L12 38L11 38L11 37L10 37L10 38L9 38L9 36L8 36L8 35L6 35L6 36L4 36L4 37L3 37L3 38L4 38L4 37L6 37L6 38L7 38L7 39L6 39L6 40L4 40L4 39L3 39L3 41L1 41L1 42L4 42L4 43L3 43L3 47L5 47L5 44L4 44L4 43L5 43L5 42L8 42L8 43L6 43L6 44L7 44L7 45L6 45L6 46L7 46L7 45L8 45L8 43L9 43L9 40L10 40L10 41L11 41L11 42L10 42L10 43L11 43L11 42L12 42L12 41L14 41L14 42L13 42L13 43L12 43L12 46L10 46L10 47L9 47L9 51L10 51L10 52L9 52L9 54L10 54L10 55L11 55L11 54L13 54L13 56L14 56L14 55L15 55L15 54L16 54L16 53L17 53L17 52L19 52L19 51L20 51L20 50L21 50L21 49L23 49L23 47L24 47L24 46L23 46L23 45L22 45L22 44L21 44L21 43L22 43L22 42L24 42L24 41L25 41L25 43L23 43L23 44L25 44L25 47L26 47L26 48L29 48L29 45L30 45L30 46L31 46L31 44L25 44L25 43L29 43L29 42L30 42L30 41L29 41L29 40L32 40L32 41L31 41L31 42L32 42L32 43L33 43L33 44L32 44L32 47L33 47L33 46L35 46L35 45L34 45L34 43L35 43L35 44L36 44L36 43L37 43L37 42L35 42L35 40L38 40L38 42L39 42L39 45L38 45L38 46L41 46L41 48L39 48L39 47L38 47L38 48L37 48L37 49L38 49L38 50L36 50L36 49L34 49L34 48L31 48L31 49L33 49L33 50L32 50L32 51L34 51L34 50L36 50L36 52L38 52L38 53L37 53L37 54L40 54L40 53L43 53L43 54L44 54L44 53L43 53L43 52L42 52L42 50L41 50L41 48L42 48L42 49L43 49L43 48L44 48L44 50L47 50L47 49L48 49L48 48L51 48L51 47L54 47L54 46L56 46L56 45L55 45L55 44L54 44L54 45L52 45L52 44L53 44L53 43L54 43L54 42L53 42L53 41L51 41L51 42L50 42L50 43L49 43L49 42L48 42L48 41L49 41L49 39L47 39L47 38L48 38L48 37L50 37L50 39L51 39L51 38L52 38L52 39L54 39L54 38L53 38L53 35L55 35L55 34L54 34L54 33L52 33L52 32L53 32L53 31L52 31L52 32L51 32L51 31L50 31L50 32L49 32L49 31L48 31L48 29L46 29L46 30L47 30L47 31L48 31L48 32L47 32L47 33L45 33L45 32L43 32L43 30L44 30L44 31L45 31L45 30L44 30L44 29L45 29L45 28L46 28L46 27L47 27L47 28L48 28L48 27L47 27L47 25L50 25L50 26L51 26L51 25L52 25L52 26L53 26L53 27L54 27L54 26L53 26L53 24L51 24L51 25L50 25L50 22L51 22L51 21L49 21L49 18L47 18L47 17L48 17L48 16L49 16L49 15L50 15L50 16L51 16L51 17L50 17L50 19L51 19L51 18L55 18L55 17L54 17L54 16L53 16L53 15L50 15L50 14L51 14L51 12L50 12L50 10L47 10L47 11L48 11L48 12L45 12L45 11L42 11L42 10L41 10L41 9L43 9L43 10L44 10L44 9L43 9L43 7L44 7L44 6L45 6L45 7L46 7L46 5L47 5L47 3L44 3L44 6L43 6L43 5L42 5L42 6L41 6L41 5L40 5L40 6L39 6L39 7L40 7L40 8L38 8L38 11L39 11L39 12L40 12L40 13L38 13L38 14L37 14L37 13L35 13L35 12L36 12L36 10L37 10L37 9L35 9L35 8L37 8L37 7L38 7L38 6L37 6L37 7L36 7L36 5L37 5L37 4L36 4L36 5L35 5L35 3L34 3L34 2L33 2L33 1L32 1L32 2L30 2L30 1L29 1L29 2L26 2L26 1ZM46 1L46 2L47 2L47 1ZM32 2L32 3L31 3L31 4L26 4L26 8L25 8L25 9L24 9L24 8L23 8L23 10L22 10L22 9L21 9L21 10L22 10L22 11L20 11L20 9L19 9L19 8L16 8L16 7L17 7L17 6L18 6L18 7L19 7L19 6L18 6L18 4L17 4L17 6L16 6L16 7L15 7L15 5L16 5L16 4L15 4L15 5L13 5L13 6L12 6L12 7L13 7L13 6L14 6L14 7L15 7L15 9L17 9L17 10L12 10L12 12L13 12L13 13L15 13L15 14L13 14L13 17L11 17L11 18L13 18L13 17L14 17L14 16L16 16L16 17L17 17L17 18L18 18L18 20L17 20L17 21L16 21L16 18L15 18L15 21L16 21L16 22L15 22L15 23L16 23L16 24L12 24L12 25L11 25L11 26L12 26L12 28L13 28L13 29L14 29L14 28L13 28L13 26L15 26L15 27L16 27L16 26L15 26L15 25L16 25L16 24L17 24L17 25L18 25L18 26L17 26L17 27L18 27L18 26L20 26L20 25L21 25L21 27L19 27L19 28L21 28L21 29L22 29L22 28L21 28L21 27L22 27L22 26L23 26L23 28L26 28L26 29L23 29L23 30L25 30L25 31L20 31L20 32L19 32L19 30L20 30L20 29L18 29L18 28L16 28L16 29L15 29L15 31L16 31L16 29L18 29L18 31L17 31L17 32L16 32L16 33L17 33L17 34L16 34L16 35L18 35L18 36L17 36L17 39L18 39L18 38L20 38L20 39L19 39L19 40L17 40L17 41L19 41L19 42L18 42L18 43L17 43L17 42L14 42L14 43L15 43L15 44L13 44L13 45L14 45L14 46L12 46L12 47L13 47L13 49L12 49L12 50L11 50L11 47L10 47L10 51L12 51L12 50L14 50L14 48L16 48L16 47L14 47L14 46L15 46L15 44L18 44L18 45L17 45L17 46L20 46L20 45L21 45L21 47L18 47L18 48L17 48L17 50L18 50L18 51L19 51L19 50L20 50L20 49L19 49L19 48L21 48L21 47L23 47L23 46L22 46L22 45L21 45L21 44L20 44L20 43L19 43L19 42L20 42L20 41L21 41L21 42L22 42L22 41L21 41L21 40L23 40L23 41L24 41L24 40L25 40L25 37L27 37L27 38L26 38L26 40L28 40L28 39L27 39L27 38L28 38L28 37L27 37L27 36L26 36L26 35L27 35L27 34L25 34L25 33L26 33L26 32L28 32L28 33L29 33L29 34L30 34L30 36L29 36L29 37L31 37L31 38L29 38L29 39L33 39L33 40L35 40L35 39L38 39L38 40L40 40L40 39L38 39L38 37L40 37L40 38L41 38L41 39L42 39L42 38L43 38L43 37L44 37L44 38L45 38L45 37L44 37L44 36L46 36L46 37L47 37L47 36L48 36L48 35L50 35L50 37L51 37L51 36L52 36L52 35L53 35L53 34L52 34L52 33L51 33L51 32L50 32L50 34L48 34L48 35L47 35L47 34L45 34L45 33L43 33L43 32L41 32L41 33L39 33L39 34L40 34L40 35L38 35L38 33L37 33L37 32L35 32L35 31L36 31L36 30L33 30L33 29L32 29L32 28L31 28L31 26L32 26L32 27L33 27L33 28L35 28L35 29L38 29L38 28L40 28L40 27L41 27L41 28L42 28L42 27L41 27L41 26L43 26L43 25L44 25L44 24L43 24L43 25L41 25L41 26L39 26L39 27L37 27L37 28L36 28L36 26L34 26L34 27L33 27L33 26L32 26L32 24L33 24L33 25L37 25L37 26L38 26L38 25L39 25L39 24L37 24L37 23L39 23L39 22L40 22L40 24L42 24L42 23L44 23L44 20L45 20L45 19L46 19L46 18L44 18L44 15L47 15L47 16L45 16L45 17L47 17L47 16L48 16L48 15L49 15L49 14L50 14L50 12L49 12L49 13L47 13L47 14L44 14L44 12L43 12L43 13L41 13L41 14L44 14L44 15L42 15L42 16L41 16L41 15L39 15L39 14L38 14L38 15L39 15L39 16L38 16L38 17L37 17L37 16L35 16L35 14L32 14L32 12L33 12L33 13L34 13L34 12L33 12L33 10L32 10L32 8L31 8L31 4L32 4L32 5L34 5L34 7L33 7L33 6L32 6L32 7L33 7L33 9L34 9L34 8L35 8L35 5L34 5L34 4L32 4L32 3L33 3L33 2ZM45 4L45 5L46 5L46 4ZM27 5L27 8L30 8L30 5ZM21 6L21 7L22 7L22 6ZM28 6L28 7L29 7L29 6ZM40 6L40 7L41 7L41 6ZM42 6L42 7L43 7L43 6ZM48 6L48 7L49 7L49 6ZM55 8L55 9L56 9L56 8ZM18 9L18 10L17 10L17 11L18 11L18 10L19 10L19 9ZM39 9L39 11L40 11L40 12L41 12L41 10L40 10L40 9ZM23 10L23 11L24 11L24 13L22 13L22 12L21 12L21 13L20 13L20 12L19 12L19 13L20 13L20 14L21 14L21 13L22 13L22 14L23 14L23 15L19 15L19 16L20 16L20 19L19 19L19 20L20 20L20 21L17 21L17 24L19 24L19 25L20 25L20 24L21 24L21 25L24 25L24 24L25 24L25 25L26 25L26 26L25 26L25 27L26 27L26 26L27 26L27 25L28 25L28 26L29 26L29 25L31 25L31 24L32 24L32 23L33 23L33 22L34 22L34 23L35 23L35 21L34 21L34 20L35 20L35 19L36 19L36 20L38 20L38 22L39 22L39 21L43 21L43 20L44 20L44 18L43 18L43 19L42 19L42 18L41 18L41 20L38 20L38 19L39 19L39 17L41 17L41 16L39 16L39 17L38 17L38 18L37 18L37 17L35 17L35 16L33 16L33 15L32 15L32 18L30 18L30 19L34 19L34 20L32 20L32 21L31 21L31 20L29 20L29 19L28 19L28 18L25 18L25 19L26 19L26 20L25 20L25 21L24 21L24 20L23 20L23 19L24 19L24 18L22 18L22 17L26 17L26 16L27 16L27 17L28 17L28 16L29 16L29 14L30 14L30 15L31 15L31 14L30 14L30 13L31 13L31 12L32 12L32 10L31 10L31 11L30 11L30 10L29 10L29 12L28 12L28 13L26 13L26 12L27 12L27 11L26 11L26 12L25 12L25 10ZM3 11L3 13L4 13L4 11ZM13 11L13 12L14 12L14 11ZM55 11L55 12L54 12L54 13L55 13L55 14L54 14L54 15L55 15L55 14L56 14L56 11ZM6 12L6 13L7 13L7 12ZM8 12L8 13L9 13L9 12ZM15 12L15 13L16 13L16 16L17 16L17 17L18 17L18 18L19 18L19 17L18 17L18 16L17 16L17 13L18 13L18 12L17 12L17 13L16 13L16 12ZM52 12L52 13L53 13L53 12ZM24 13L24 14L25 14L25 13ZM28 13L28 14L29 14L29 13ZM26 14L26 15L24 15L24 16L26 16L26 15L27 15L27 16L28 16L28 15L27 15L27 14ZM21 16L21 17L22 17L22 16ZM42 16L42 17L43 17L43 16ZM7 17L7 18L6 18L6 19L7 19L7 18L8 18L8 19L9 19L9 20L5 20L5 21L8 21L8 22L5 22L5 23L8 23L8 24L6 24L6 25L8 25L8 24L11 24L11 23L14 23L14 21L13 21L13 20L14 20L14 19L13 19L13 20L12 20L12 22L10 22L10 21L9 21L9 20L10 20L10 19L9 19L9 18L8 18L8 17ZM21 18L21 19L22 19L22 18ZM27 19L27 20L28 20L28 19ZM47 20L47 22L46 22L46 21L45 21L45 22L46 22L46 23L45 23L45 24L48 24L48 23L49 23L49 21L48 21L48 20ZM23 21L23 22L24 22L24 21ZM25 21L25 22L26 22L26 23L25 23L25 24L27 24L27 21ZM28 21L28 22L29 22L29 24L30 24L30 23L31 23L31 21ZM9 22L9 23L10 23L10 22ZM19 22L19 23L20 23L20 22ZM21 22L21 24L24 24L24 23L22 23L22 22ZM41 22L41 23L42 23L42 22ZM3 23L3 24L4 24L4 23ZM12 25L12 26L13 26L13 25ZM55 25L55 26L56 26L56 25ZM44 26L44 28L43 28L43 29L40 29L40 30L43 30L43 29L44 29L44 28L45 28L45 27L46 27L46 26ZM3 27L3 28L4 28L4 27ZM5 27L5 30L8 30L8 27ZM27 27L27 30L30 30L30 27ZM49 27L49 30L52 30L52 27ZM6 28L6 29L7 29L7 28ZM28 28L28 29L29 29L29 28ZM50 28L50 29L51 29L51 28ZM54 28L54 30L55 30L55 28ZM2 29L2 30L3 30L3 29ZM31 29L31 31L29 31L29 33L31 33L31 32L32 32L32 33L33 33L33 34L31 34L31 35L33 35L33 36L32 36L32 37L33 37L33 38L35 38L35 37L33 37L33 36L34 36L34 35L33 35L33 34L35 34L35 36L37 36L37 37L38 37L38 35L37 35L37 34L35 34L35 32L32 32L32 29ZM38 30L38 32L39 32L39 30ZM25 31L25 32L21 32L21 33L18 33L18 34L19 34L19 35L20 35L20 36L19 36L19 37L21 37L21 38L24 38L24 37L23 37L23 36L24 36L24 34L23 34L23 33L25 33L25 32L26 32L26 31ZM6 32L6 33L7 33L7 32ZM12 32L12 33L11 33L11 34L12 34L12 33L13 33L13 32ZM48 32L48 33L49 33L49 32ZM55 32L55 33L56 33L56 32ZM21 33L21 34L20 34L20 35L21 35L21 34L22 34L22 33ZM42 34L42 35L41 35L41 36L40 36L40 37L41 37L41 38L42 38L42 37L41 37L41 36L42 36L42 35L43 35L43 36L44 36L44 35L45 35L45 34ZM50 34L50 35L52 35L52 34ZM22 35L22 36L23 36L23 35ZM46 35L46 36L47 36L47 35ZM6 36L6 37L8 37L8 36ZM14 36L14 37L13 37L13 38L12 38L12 40L11 40L11 39L10 39L10 40L11 40L11 41L12 41L12 40L16 40L16 39L13 39L13 38L16 38L16 37L15 37L15 36ZM7 39L7 40L6 40L6 41L7 41L7 40L9 40L9 39ZM23 39L23 40L24 40L24 39ZM44 39L44 40L42 40L42 41L41 41L41 42L40 42L40 43L41 43L41 42L42 42L42 44L41 44L41 46L43 46L43 45L44 45L44 48L45 48L45 49L47 49L47 48L48 48L48 47L50 47L50 46L52 46L52 45L51 45L51 43L53 43L53 42L51 42L51 43L50 43L50 46L49 46L49 44L48 44L48 46L45 46L45 45L47 45L47 43L48 43L48 42L47 42L47 43L46 43L46 44L45 44L45 45L44 45L44 44L43 44L43 41L44 41L44 43L45 43L45 41L44 41L44 40L45 40L45 39ZM46 39L46 41L47 41L47 39ZM19 40L19 41L20 41L20 40ZM26 41L26 42L27 42L27 41ZM32 41L32 42L33 42L33 43L34 43L34 42L33 42L33 41ZM19 44L19 45L20 45L20 44ZM26 45L26 47L28 47L28 46L27 46L27 45ZM1 46L1 47L2 47L2 46ZM35 47L35 48L36 48L36 47ZM42 47L42 48L43 48L43 47ZM46 47L46 48L47 48L47 47ZM24 48L24 49L25 49L25 48ZM38 48L38 49L39 49L39 48ZM53 48L53 49L54 49L54 48ZM27 49L27 52L30 52L30 49ZM49 49L49 52L52 52L52 49ZM28 50L28 51L29 51L29 50ZM38 50L38 51L40 51L40 52L41 52L41 50ZM50 50L50 51L51 51L51 50ZM54 50L54 51L55 51L55 50ZM13 51L13 53L16 53L16 52L15 52L15 51ZM10 52L10 54L11 54L11 53L12 53L12 52ZM33 53L33 55L35 55L35 56L36 56L36 54L35 54L35 53ZM18 54L18 55L19 55L19 54ZM37 55L37 56L39 56L39 55ZM50 55L50 56L51 56L51 55ZM53 55L53 56L55 56L55 57L56 57L56 56L55 56L55 55ZM45 56L45 57L46 57L46 56ZM0 0L0 7L7 7L7 0ZM1 1L1 6L6 6L6 1ZM2 2L2 5L5 5L5 2ZM50 0L50 7L57 7L57 0ZM51 1L51 6L56 6L56 1ZM52 2L52 5L55 5L55 2ZM0 50L0 57L7 57L7 50ZM1 51L1 56L6 56L6 51ZM2 52L2 55L5 55L5 52Z" fill="#000000"/></g></g></svg>
