<?xml version="1.0" encoding="UTF-8"?>
<svg xmlns="http://www.w3.org/2000/svg" version="1.1" width="300" height="300" viewBox="0 0 300 300"><rect x="0" y="0" width="300" height="300" fill="#fefefe"/><g transform="scale(4.615)"><g transform="translate(4,4)"><path fill-rule="evenodd" d="M9 0L9 1L8 1L8 2L9 2L9 3L8 3L8 4L9 4L9 3L10 3L10 2L12 2L12 3L11 3L11 4L10 4L10 5L8 5L8 7L9 7L9 8L6 8L6 9L5 9L5 8L0 8L0 9L2 9L2 10L0 10L0 13L2 13L2 14L4 14L4 15L3 15L3 16L2 16L2 15L1 15L1 14L0 14L0 16L2 16L2 17L4 17L4 15L7 15L7 14L6 14L6 13L7 13L7 12L8 12L8 14L9 14L9 15L8 15L8 16L6 16L6 17L5 17L5 18L6 18L6 19L4 19L4 20L2 20L2 22L1 22L1 21L0 21L0 22L1 22L1 24L0 24L0 25L1 25L1 26L0 26L0 27L1 27L1 28L0 28L0 30L2 30L2 31L0 31L0 33L1 33L1 34L2 34L2 36L3 36L3 35L4 35L4 37L1 37L1 36L0 36L0 37L1 37L1 38L4 38L4 39L7 39L7 40L5 40L5 41L7 41L7 40L8 40L8 41L9 41L9 42L5 42L5 43L7 43L7 44L6 44L6 45L7 45L7 46L5 46L5 45L4 45L4 43L3 43L3 42L4 42L4 40L3 40L3 42L2 42L2 41L1 41L1 39L0 39L0 42L1 42L1 44L2 44L2 43L3 43L3 45L0 45L0 48L5 48L5 47L7 47L7 48L6 48L6 49L7 49L7 48L9 48L9 49L8 49L8 51L9 51L9 52L8 52L8 57L9 57L9 56L11 56L11 57L14 57L14 55L16 55L16 56L17 56L17 57L19 57L19 55L20 55L20 54L19 54L19 55L18 55L18 54L17 54L17 53L20 53L20 52L21 52L21 51L22 51L22 52L23 52L23 51L22 51L22 50L25 50L25 51L26 51L26 52L24 52L24 53L23 53L23 54L22 54L22 53L21 53L21 54L22 54L22 55L21 55L21 56L24 56L24 57L26 57L26 56L27 56L27 57L29 57L29 56L30 56L30 57L31 57L31 56L35 56L35 57L39 57L39 56L41 56L41 57L44 57L44 56L41 56L41 55L44 55L44 54L45 54L45 57L49 57L49 56L50 56L50 57L52 57L52 55L51 55L51 53L52 53L52 54L53 54L53 55L54 55L54 56L53 56L53 57L54 57L54 56L55 56L55 57L56 57L56 56L55 56L55 54L53 54L53 52L54 52L54 53L56 53L56 52L57 52L57 51L56 51L56 50L55 50L55 49L53 49L53 48L56 48L56 49L57 49L57 48L56 48L56 46L57 46L57 45L56 45L56 44L55 44L55 43L56 43L56 42L57 42L57 41L56 41L56 42L55 42L55 39L57 39L57 37L56 37L56 34L57 34L57 32L56 32L56 30L57 30L57 29L55 29L55 31L53 31L53 30L54 30L54 28L57 28L57 27L55 27L55 26L57 26L57 25L56 25L56 22L57 22L57 20L55 20L55 19L56 19L56 18L57 18L57 17L56 17L56 16L57 16L57 15L56 15L56 14L57 14L57 13L56 13L56 14L55 14L55 15L53 15L53 13L54 13L54 12L55 12L55 11L56 11L56 12L57 12L57 11L56 11L56 8L55 8L55 10L54 10L54 11L50 11L50 8L49 8L49 6L48 6L48 9L47 9L47 10L46 10L46 9L44 9L44 7L45 7L45 6L46 6L46 8L47 8L47 5L48 5L48 0L46 0L46 1L45 1L45 2L44 2L44 3L43 3L43 4L42 4L42 2L43 2L43 0L41 0L41 1L40 1L40 0L39 0L39 1L38 1L38 0L37 0L37 1L38 1L38 2L37 2L37 3L36 3L36 0L35 0L35 1L33 1L33 0L27 0L27 1L26 1L26 0L23 0L23 2L25 2L25 1L26 1L26 2L28 2L28 3L29 3L29 4L26 4L26 3L23 3L23 4L24 4L24 5L21 5L21 4L19 4L19 3L21 3L21 2L22 2L22 0L21 0L21 1L20 1L20 0L17 0L17 1L16 1L16 2L15 2L15 1L14 1L14 0L12 0L12 1L11 1L11 0ZM9 1L9 2L10 2L10 1ZM12 1L12 2L14 2L14 4L13 4L13 3L12 3L12 4L11 4L11 5L10 5L10 6L9 6L9 7L10 7L10 6L11 6L11 8L9 8L9 9L8 9L8 10L7 10L7 9L6 9L6 10L7 10L7 11L5 11L5 13L4 13L4 14L5 14L5 13L6 13L6 12L7 12L7 11L9 11L9 13L10 13L10 10L9 10L9 9L11 9L11 8L12 8L12 6L13 6L13 7L14 7L14 9L12 9L12 10L11 10L11 14L15 14L15 13L16 13L16 16L14 16L14 15L12 15L12 16L11 16L11 15L10 15L10 20L8 20L8 19L9 19L9 18L8 18L8 19L6 19L6 20L4 20L4 22L2 22L2 23L4 23L4 22L8 22L8 23L5 23L5 24L4 24L4 25L3 25L3 26L7 26L7 25L6 25L6 24L8 24L8 25L9 25L9 23L10 23L10 22L8 22L8 21L11 21L11 23L13 23L13 21L14 21L14 22L16 22L16 21L18 21L18 22L20 22L20 23L19 23L19 24L22 24L22 25L17 25L17 24L18 24L18 23L17 23L17 24L16 24L16 23L15 23L15 24L14 24L14 25L15 25L15 26L13 26L13 25L11 25L11 26L9 26L9 27L11 27L11 26L12 26L12 29L10 29L10 28L9 28L9 29L10 29L10 30L9 30L9 31L5 31L5 32L4 32L4 29L3 29L3 28L4 28L4 27L2 27L2 28L1 28L1 29L2 29L2 30L3 30L3 32L4 32L4 33L5 33L5 34L4 34L4 35L5 35L5 37L4 37L4 38L5 38L5 37L6 37L6 38L7 38L7 39L9 39L9 38L8 38L8 37L6 37L6 36L7 36L7 35L5 35L5 34L8 34L8 36L10 36L10 37L11 37L11 39L10 39L10 40L9 40L9 41L10 41L10 42L9 42L9 43L10 43L10 44L12 44L12 45L10 45L10 47L9 47L9 48L10 48L10 49L9 49L9 50L10 50L10 51L11 51L11 52L10 52L10 53L9 53L9 54L10 54L10 55L12 55L12 56L13 56L13 55L14 55L14 54L12 54L12 53L13 53L13 52L12 52L12 51L14 51L14 50L15 50L15 52L16 52L16 53L15 53L15 54L16 54L16 53L17 53L17 51L18 51L18 50L17 50L17 49L15 49L15 48L18 48L18 47L17 47L17 45L18 45L18 44L17 44L17 45L16 45L16 44L13 44L13 43L18 43L18 42L19 42L19 43L20 43L20 44L19 44L19 45L20 45L20 46L19 46L19 47L20 47L20 50L19 50L19 51L21 51L21 49L23 49L23 48L24 48L24 49L25 49L25 48L27 48L27 47L28 47L28 48L30 48L30 47L28 47L28 46L29 46L29 45L30 45L30 46L31 46L31 45L32 45L32 47L33 47L33 48L31 48L31 49L33 49L33 50L32 50L32 51L31 51L31 53L30 53L30 54L27 54L27 53L26 53L26 54L25 54L25 53L24 53L24 54L23 54L23 55L24 55L24 56L26 56L26 54L27 54L27 56L29 56L29 55L30 55L30 56L31 56L31 54L32 54L32 53L33 53L33 55L35 55L35 56L36 56L36 54L35 54L35 53L34 53L34 52L35 52L35 51L33 51L33 50L36 50L36 52L38 52L38 54L40 54L40 53L42 53L42 52L40 52L40 51L38 51L38 50L41 50L41 51L42 51L42 50L41 50L41 48L42 48L42 49L43 49L43 50L44 50L44 51L45 51L45 52L44 52L44 53L43 53L43 54L44 54L44 53L45 53L45 54L48 54L48 50L47 50L47 49L48 49L48 48L51 48L51 46L52 46L52 47L54 47L54 46L56 46L56 45L55 45L55 44L54 44L54 45L51 45L51 44L53 44L53 43L54 43L54 42L53 42L53 41L51 41L51 42L50 42L50 43L49 43L49 42L48 42L48 41L49 41L49 37L48 37L48 36L50 36L50 39L51 39L51 38L52 38L52 40L53 40L53 35L55 35L55 34L56 34L56 32L55 32L55 34L54 34L54 32L53 32L53 31L52 31L52 32L51 32L51 33L52 33L52 34L50 34L50 32L49 32L49 31L48 31L48 29L46 29L46 30L47 30L47 31L45 31L45 30L44 30L44 29L45 29L45 28L46 28L46 27L47 27L47 28L48 28L48 27L47 27L47 25L45 25L45 23L46 23L46 24L49 24L49 23L50 23L50 24L51 24L51 25L50 25L50 26L53 26L53 27L54 27L54 26L53 26L53 25L55 25L55 24L53 24L53 23L50 23L50 22L51 22L51 21L53 21L53 22L56 22L56 21L55 21L55 20L53 20L53 19L52 19L52 18L55 18L55 17L54 17L54 16L52 16L52 15L51 15L51 17L50 17L50 14L51 14L51 12L50 12L50 11L49 11L49 12L45 12L45 11L46 11L46 10L45 10L45 11L41 11L41 9L42 9L42 8L41 8L41 7L42 7L42 6L41 6L41 5L40 5L40 4L41 4L41 3L39 3L39 2L38 2L38 3L37 3L37 4L36 4L36 5L35 5L35 4L34 4L34 3L35 3L35 2L33 2L33 3L32 3L32 1L31 1L31 3L30 3L30 4L31 4L31 8L32 8L32 10L31 10L31 11L29 11L29 9L28 9L28 10L27 10L27 11L26 11L26 12L25 12L25 10L23 10L23 11L24 11L24 13L22 13L22 12L21 12L21 11L22 11L22 10L21 10L21 9L23 9L23 8L24 8L24 9L25 9L25 8L26 8L26 4L25 4L25 8L24 8L24 6L23 6L23 8L20 8L20 10L19 10L19 11L20 11L20 12L19 12L19 13L20 13L20 14L17 14L17 13L18 13L18 12L17 12L17 11L18 11L18 9L16 9L16 8L19 8L19 7L20 7L20 5L18 5L18 4L17 4L17 2L16 2L16 3L15 3L15 2L14 2L14 1ZM18 1L18 2L20 2L20 1ZM28 1L28 2L29 2L29 1ZM46 1L46 2L47 2L47 1ZM31 3L31 4L32 4L32 5L33 5L33 4L32 4L32 3ZM44 3L44 6L43 6L43 7L44 7L44 6L45 6L45 4L46 4L46 5L47 5L47 3ZM12 4L12 5L11 5L11 6L12 6L12 5L13 5L13 4ZM15 4L15 5L16 5L16 4ZM37 4L37 5L36 5L36 7L37 7L37 6L38 6L38 8L35 8L35 5L34 5L34 7L33 7L33 6L32 6L32 7L33 7L33 9L34 9L34 8L35 8L35 9L37 9L37 10L36 10L36 11L37 11L37 12L35 12L35 13L37 13L37 14L38 14L38 15L39 15L39 16L38 16L38 17L37 17L37 16L35 16L35 14L33 14L33 13L34 13L34 12L33 12L33 13L32 13L32 12L31 12L31 13L30 13L30 14L29 14L29 13L28 13L28 12L29 12L29 11L27 11L27 12L26 12L26 13L28 13L28 14L29 14L29 16L28 16L28 15L27 15L27 16L26 16L26 14L25 14L25 13L24 13L24 14L25 14L25 15L24 15L24 16L26 16L26 17L22 17L22 16L21 16L21 17L22 17L22 18L20 18L20 17L19 17L19 16L20 16L20 15L23 15L23 14L22 14L22 13L21 13L21 14L20 14L20 15L18 15L18 16L16 16L16 17L15 17L15 18L16 18L16 17L19 17L19 18L17 18L17 19L15 19L15 21L16 21L16 20L18 20L18 21L20 21L20 19L21 19L21 20L24 20L24 21L23 21L23 22L24 22L24 21L25 21L25 22L26 22L26 23L25 23L25 24L24 24L24 23L22 23L22 24L24 24L24 25L22 25L22 26L21 26L21 27L22 27L22 26L24 26L24 28L23 28L23 30L25 30L25 31L26 31L26 32L27 32L27 31L28 31L28 33L29 33L29 34L30 34L30 36L29 36L29 37L31 37L31 38L29 38L29 39L33 39L33 40L35 40L35 42L37 42L37 43L34 43L34 42L33 42L33 41L32 41L32 40L31 40L31 41L29 41L29 43L28 43L28 44L27 44L27 43L25 43L25 41L24 41L24 40L25 40L25 39L26 39L26 40L27 40L27 41L26 41L26 42L27 42L27 41L28 41L28 39L27 39L27 38L28 38L28 37L26 37L26 38L25 38L25 36L27 36L27 33L26 33L26 35L25 35L25 33L23 33L23 34L22 34L22 33L21 33L21 34L20 34L20 33L19 33L19 32L23 32L23 31L20 31L20 29L22 29L22 28L19 28L19 29L18 29L18 28L17 28L17 27L18 27L18 26L15 26L15 27L14 27L14 28L13 28L13 29L12 29L12 30L14 30L14 31L13 31L13 32L12 32L12 31L10 31L10 32L11 32L11 33L14 33L14 35L13 35L13 36L12 36L12 37L13 37L13 38L12 38L12 40L10 40L10 41L11 41L11 42L10 42L10 43L13 43L13 42L14 42L14 41L13 41L13 39L15 39L15 40L16 40L16 41L19 41L19 42L20 42L20 41L19 41L19 40L23 40L23 41L24 41L24 42L22 42L22 41L21 41L21 42L22 42L22 43L21 43L21 44L22 44L22 45L21 45L21 46L20 46L20 47L23 47L23 46L25 46L25 44L27 44L27 45L26 45L26 47L27 47L27 45L29 45L29 44L30 44L30 45L31 45L31 44L33 44L33 43L34 43L34 45L35 45L35 46L33 46L33 47L34 47L34 48L33 48L33 49L36 49L36 50L38 50L38 49L39 49L39 48L41 48L41 46L43 46L43 45L44 45L44 47L45 47L45 48L46 48L46 49L47 49L47 48L48 48L48 47L50 47L50 46L49 46L49 45L50 45L50 44L51 44L51 43L53 43L53 42L51 42L51 43L50 43L50 44L49 44L49 45L48 45L48 46L45 46L45 45L47 45L47 43L48 43L48 42L46 42L46 41L44 41L44 40L45 40L45 39L46 39L46 40L47 40L47 39L48 39L48 37L47 37L47 39L46 39L46 38L45 38L45 37L44 37L44 36L45 36L45 35L44 35L44 33L43 33L43 32L45 32L45 31L43 31L43 32L41 32L41 33L39 33L39 34L40 34L40 35L39 35L39 36L38 36L38 33L37 33L37 32L34 32L34 31L35 31L35 30L37 30L37 29L38 29L38 28L39 28L39 27L37 27L37 28L36 28L36 26L34 26L34 27L33 27L33 26L32 26L32 24L33 24L33 25L37 25L37 26L38 26L38 24L39 24L39 25L40 25L40 24L41 24L41 25L42 25L42 26L41 26L41 28L42 28L42 26L44 26L44 28L43 28L43 29L39 29L39 30L38 30L38 32L39 32L39 31L41 31L41 30L43 30L43 29L44 29L44 28L45 28L45 27L46 27L46 26L44 26L44 24L41 24L41 22L43 22L43 23L44 23L44 20L45 20L45 18L44 18L44 15L47 15L47 16L45 16L45 17L47 17L47 18L49 18L49 21L48 21L48 20L47 20L47 19L46 19L46 20L47 20L47 21L48 21L48 22L46 22L46 21L45 21L45 22L46 22L46 23L49 23L49 21L51 21L51 20L52 20L52 19L50 19L50 17L49 17L49 16L48 16L48 15L49 15L49 14L50 14L50 12L49 12L49 13L47 13L47 14L45 14L45 13L44 13L44 12L43 12L43 13L41 13L41 14L44 14L44 15L42 15L42 16L41 16L41 15L40 15L40 14L38 14L38 13L40 13L40 12L41 12L41 11L40 11L40 12L39 12L39 10L40 10L40 9L39 9L39 10L38 10L38 8L39 8L39 6L40 6L40 7L41 7L41 6L40 6L40 5L39 5L39 6L38 6L38 4ZM27 5L27 8L30 8L30 5ZM14 6L14 7L15 7L15 8L16 8L16 7L17 7L17 6L16 6L16 7L15 7L15 6ZM18 6L18 7L19 7L19 6ZM21 6L21 7L22 7L22 6ZM28 6L28 7L29 7L29 6ZM51 8L51 9L52 9L52 10L53 10L53 9L54 9L54 8L53 8L53 9L52 9L52 8ZM4 9L4 10L2 10L2 13L3 13L3 12L4 12L4 10L5 10L5 9ZM15 9L15 10L12 10L12 11L14 11L14 12L13 12L13 13L15 13L15 12L16 12L16 13L17 13L17 12L16 12L16 11L15 11L15 10L16 10L16 9ZM43 9L43 10L44 10L44 9ZM32 10L32 11L33 11L33 10ZM52 12L52 13L53 13L53 12ZM30 14L30 15L31 15L31 16L32 16L32 17L31 17L31 18L30 18L30 19L28 19L28 18L26 18L26 21L27 21L27 23L29 23L29 22L28 22L28 21L31 21L31 22L30 22L30 23L31 23L31 24L32 24L32 23L33 23L33 22L34 22L34 23L35 23L35 20L32 20L32 21L31 21L31 20L30 20L30 19L33 19L33 18L35 18L35 19L36 19L36 20L37 20L37 21L38 21L38 22L37 22L37 24L38 24L38 23L39 23L39 24L40 24L40 22L39 22L39 21L42 21L42 20L39 20L39 21L38 21L38 19L39 19L39 17L41 17L41 16L39 16L39 17L38 17L38 18L37 18L37 17L35 17L35 16L32 16L32 15L31 15L31 14ZM8 16L8 17L9 17L9 16ZM12 16L12 19L13 19L13 20L14 20L14 19L13 19L13 18L14 18L14 16ZM27 16L27 17L28 17L28 16ZM42 16L42 17L43 17L43 16ZM47 16L47 17L48 17L48 16ZM0 17L0 20L1 20L1 17ZM6 17L6 18L7 18L7 17ZM32 17L32 18L33 18L33 17ZM19 18L19 19L20 19L20 18ZM22 18L22 19L24 19L24 18ZM41 18L41 19L42 19L42 18ZM43 18L43 20L44 20L44 18ZM6 20L6 21L8 21L8 20ZM11 20L11 21L12 21L12 20ZM21 21L21 22L22 22L22 21ZM15 24L15 25L16 25L16 24ZM25 24L25 25L26 25L26 26L25 26L25 27L26 27L26 26L27 26L27 25L29 25L29 26L30 26L30 25L29 25L29 24ZM19 26L19 27L20 27L20 26ZM31 26L31 28L32 28L32 30L31 30L31 31L30 31L30 32L29 32L29 33L31 33L31 32L32 32L32 35L33 35L33 36L32 36L32 37L33 37L33 38L34 38L34 39L35 39L35 40L38 40L38 42L39 42L39 43L40 43L40 42L41 42L41 38L42 38L42 39L43 39L43 40L44 40L44 39L45 39L45 38L44 38L44 37L43 37L43 36L44 36L44 35L43 35L43 34L42 34L42 35L43 35L43 36L42 36L42 37L41 37L41 36L40 36L40 37L38 37L38 39L35 39L35 36L37 36L37 34L35 34L35 33L33 33L33 32L32 32L32 31L33 31L33 30L35 30L35 28L33 28L33 27L32 27L32 26ZM5 27L5 30L8 30L8 27ZM27 27L27 30L30 30L30 27ZM49 27L49 30L52 30L52 27ZM6 28L6 29L7 29L7 28ZM14 28L14 30L15 30L15 29L16 29L16 30L17 30L17 31L18 31L18 32L17 32L17 33L16 33L16 32L14 32L14 33L16 33L16 34L15 34L15 35L16 35L16 34L17 34L17 35L18 35L18 34L19 34L19 37L17 37L17 36L14 36L14 37L16 37L16 38L15 38L15 39L16 39L16 40L18 40L18 39L20 39L20 38L19 38L19 37L23 37L23 38L22 38L22 39L23 39L23 40L24 40L24 39L23 39L23 38L24 38L24 37L23 37L23 36L24 36L24 34L23 34L23 35L20 35L20 34L19 34L19 33L18 33L18 32L19 32L19 30L18 30L18 29L16 29L16 28ZM25 28L25 29L26 29L26 28ZM28 28L28 29L29 29L29 28ZM50 28L50 29L51 29L51 28ZM47 31L47 32L48 32L48 33L49 33L49 32L48 32L48 31ZM6 32L6 33L8 33L8 34L9 34L9 35L10 35L10 36L11 36L11 35L12 35L12 34L10 34L10 33L8 33L8 32ZM52 32L52 33L53 33L53 32ZM17 33L17 34L18 34L18 33ZM33 34L33 35L34 35L34 36L35 36L35 34ZM49 34L49 35L50 35L50 36L51 36L51 37L52 37L52 35L53 35L53 34L52 34L52 35L50 35L50 34ZM47 35L47 36L48 36L48 35ZM40 37L40 38L41 38L41 37ZM42 37L42 38L43 38L43 37ZM54 37L54 38L55 38L55 37ZM38 39L38 40L39 40L39 39ZM31 41L31 42L32 42L32 43L33 43L33 42L32 42L32 41ZM43 41L43 44L44 44L44 45L45 45L45 44L46 44L46 42L45 42L45 43L44 43L44 41ZM41 43L41 44L39 44L39 45L38 45L38 46L41 46L41 44L42 44L42 43ZM8 44L8 46L7 46L7 47L8 47L8 46L9 46L9 44ZM23 44L23 45L22 45L22 46L23 46L23 45L24 45L24 44ZM3 45L3 47L5 47L5 46L4 46L4 45ZM13 45L13 47L12 47L12 46L11 46L11 48L12 48L12 49L11 49L11 50L12 50L12 49L13 49L13 50L14 50L14 48L13 48L13 47L16 47L16 46L14 46L14 45ZM36 45L36 46L37 46L37 45ZM1 46L1 47L2 47L2 46ZM35 47L35 48L36 48L36 47ZM38 47L38 48L37 48L37 49L38 49L38 48L39 48L39 47ZM42 47L42 48L43 48L43 49L44 49L44 50L45 50L45 51L46 51L46 52L47 52L47 51L46 51L46 50L45 50L45 49L44 49L44 48L43 48L43 47ZM46 47L46 48L47 48L47 47ZM27 49L27 52L30 52L30 49ZM49 49L49 52L52 52L52 49ZM16 50L16 51L17 51L17 50ZM28 50L28 51L29 51L29 50ZM50 50L50 51L51 51L51 50ZM54 50L54 51L55 51L55 50ZM32 51L32 52L33 52L33 51ZM11 52L11 53L12 53L12 52ZM17 55L17 56L18 56L18 55ZM37 55L37 56L39 56L39 55ZM46 55L46 56L47 56L47 55ZM48 55L48 56L49 56L49 55ZM50 55L50 56L51 56L51 55ZM0 0L0 7L7 7L7 0ZM1 1L1 6L6 6L6 1ZM2 2L2 5L5 5L5 2ZM50 0L50 7L57 7L57 0ZM51 1L51 6L56 6L56 1ZM52 2L52 5L55 5L55 2ZM0 50L0 57L7 57L7 50ZM1 51L1 56L6 56L6 51ZM2 52L2 55L5 55L5 52Z" fill="#000000"/></g></g></svg>
