<?xml version="1.0" encoding="UTF-8"?>
<svg xmlns="http://www.w3.org/2000/svg" version="1.1" width="300" height="300" viewBox="0 0 300 300"><rect x="0" y="0" width="300" height="300" fill="#fefefe"/><g transform="scale(4.615)"><g transform="translate(4,4)"><path fill-rule="evenodd" d="M8 0L8 2L9 2L9 0ZM11 0L11 1L10 1L10 3L9 3L9 4L8 4L8 9L10 9L10 10L9 10L9 11L8 11L8 10L6 10L6 9L7 9L7 8L5 8L5 10L4 10L4 9L3 9L3 8L0 8L0 10L1 10L1 9L3 9L3 10L2 10L2 11L3 11L3 12L2 12L2 13L1 13L1 11L0 11L0 13L1 13L1 14L3 14L3 12L4 12L4 14L5 14L5 15L7 15L7 16L2 16L2 15L0 15L0 17L1 17L1 18L0 18L0 22L2 22L2 23L0 23L0 24L1 24L1 25L2 25L2 26L0 26L0 28L1 28L1 30L0 30L0 31L1 31L1 34L2 34L2 35L1 35L1 36L0 36L0 40L2 40L2 39L1 39L1 36L2 36L2 38L3 38L3 39L4 39L4 42L3 42L3 44L2 44L2 43L1 43L1 42L2 42L2 41L1 41L1 42L0 42L0 45L1 45L1 44L2 44L2 45L3 45L3 44L4 44L4 42L5 42L5 41L8 41L8 42L9 42L9 43L8 43L8 44L6 44L6 43L7 43L7 42L6 42L6 43L5 43L5 45L4 45L4 46L5 46L5 47L3 47L3 46L2 46L2 47L1 47L1 46L0 46L0 48L5 48L5 47L7 47L7 48L6 48L6 49L7 49L7 48L9 48L9 47L10 47L10 49L8 49L8 50L9 50L9 51L8 51L8 52L9 52L9 54L8 54L8 57L9 57L9 55L10 55L10 54L11 54L11 55L12 55L12 57L13 57L13 56L14 56L14 55L13 55L13 54L11 54L11 53L13 53L13 52L12 52L12 51L14 51L14 54L15 54L15 56L16 56L16 57L17 57L17 55L18 55L18 54L19 54L19 52L20 52L20 53L21 53L21 51L20 51L20 49L21 49L21 48L22 48L22 51L24 51L24 52L22 52L22 54L23 54L23 55L22 55L22 57L23 57L23 56L24 56L24 57L25 57L25 55L24 55L24 54L25 54L25 51L26 51L26 53L28 53L28 55L27 55L27 54L26 54L26 55L27 55L27 56L26 56L26 57L28 57L28 55L29 55L29 57L33 57L33 55L34 55L34 57L35 57L35 55L38 55L38 52L37 52L37 51L38 51L38 47L37 47L37 48L36 48L36 49L37 49L37 51L35 51L35 50L34 50L34 49L35 49L35 48L34 48L34 45L33 45L33 44L35 44L35 43L36 43L36 41L37 41L37 42L38 42L38 41L39 41L39 38L40 38L40 39L42 39L42 37L43 37L43 35L44 35L44 38L43 38L43 39L44 39L44 43L45 43L45 44L44 44L44 46L43 46L43 47L44 47L44 50L42 50L42 49L41 49L41 47L42 47L42 45L43 45L43 44L42 44L42 45L41 45L41 43L40 43L40 42L42 42L42 43L43 43L43 42L42 42L42 41L43 41L43 40L42 40L42 41L41 41L41 40L40 40L40 42L39 42L39 43L37 43L37 44L36 44L36 45L37 45L37 46L38 46L38 45L37 45L37 44L39 44L39 43L40 43L40 46L41 46L41 47L40 47L40 49L39 49L39 52L40 52L40 53L39 53L39 55L40 55L40 57L41 57L41 55L42 55L42 57L43 57L43 54L42 54L42 53L43 53L43 52L44 52L44 55L45 55L45 54L46 54L46 53L49 53L49 54L48 54L48 55L46 55L46 56L44 56L44 57L46 57L46 56L47 56L47 57L48 57L48 56L49 56L49 57L50 57L50 55L49 55L49 54L52 54L52 55L53 55L53 56L51 56L51 57L53 57L53 56L54 56L54 55L57 55L57 54L54 54L54 55L53 55L53 53L55 53L55 52L56 52L56 53L57 53L57 52L56 52L56 51L57 51L57 50L56 50L56 47L57 47L57 45L56 45L56 47L55 47L55 50L56 50L56 51L55 51L55 52L54 52L54 51L53 51L53 50L54 50L54 49L53 49L53 48L52 48L52 47L54 47L54 46L52 46L52 45L50 45L50 47L49 47L49 46L47 46L47 48L46 48L46 44L47 44L47 45L48 45L48 44L49 44L49 43L48 43L48 44L47 44L47 43L46 43L46 40L47 40L47 41L48 41L48 40L49 40L49 37L50 37L50 40L51 40L51 41L49 41L49 42L50 42L50 44L52 44L52 40L53 40L53 44L54 44L54 43L55 43L55 44L56 44L56 43L57 43L57 42L56 42L56 41L57 41L57 40L54 40L54 38L57 38L57 37L56 37L56 36L54 36L54 34L53 34L53 36L52 36L52 37L50 37L50 36L51 36L51 33L50 33L50 32L49 32L49 31L51 31L51 32L52 32L52 31L54 31L54 30L53 30L53 28L54 28L54 27L55 27L55 26L54 26L54 23L55 23L55 24L56 24L56 29L55 29L55 30L56 30L56 31L55 31L55 33L56 33L56 35L57 35L57 33L56 33L56 31L57 31L57 24L56 24L56 23L57 23L57 20L56 20L56 23L55 23L55 21L54 21L54 19L55 19L55 17L54 17L54 15L55 15L55 16L56 16L56 17L57 17L57 13L56 13L56 12L57 12L57 10L56 10L56 12L55 12L55 13L56 13L56 15L55 15L55 14L54 14L54 13L53 13L53 12L54 12L54 11L55 11L55 9L57 9L57 8L55 8L55 9L54 9L54 10L53 10L53 8L48 8L48 7L49 7L49 6L48 6L48 7L47 7L47 5L48 5L48 0L42 0L42 1L41 1L41 0L38 0L38 2L37 2L37 1L35 1L35 0L34 0L34 3L33 3L33 6L32 6L32 7L33 7L33 6L34 6L34 8L32 8L32 9L31 9L31 5L32 5L32 1L33 1L33 0L32 0L32 1L31 1L31 0L30 0L30 3L31 3L31 4L28 4L28 3L29 3L29 2L28 2L28 1L29 1L29 0L28 0L28 1L27 1L27 0L26 0L26 1L25 1L25 0L24 0L24 1L23 1L23 0L20 0L20 1L19 1L19 0L18 0L18 2L17 2L17 4L16 4L16 1L17 1L17 0L16 0L16 1L14 1L14 0L13 0L13 1L12 1L12 0ZM13 1L13 3L14 3L14 4L15 4L15 3L14 3L14 1ZM22 1L22 2L21 2L21 3L20 3L20 2L18 2L18 4L17 4L17 5L16 5L16 6L15 6L15 5L14 5L14 6L13 6L13 7L14 7L14 8L13 8L13 9L12 9L12 6L11 6L11 5L12 5L12 3L10 3L10 5L9 5L9 8L11 8L11 10L10 10L10 11L9 11L9 12L8 12L8 11L6 11L6 12L7 12L7 13L5 13L5 14L8 14L8 15L9 15L9 14L8 14L8 13L9 13L9 12L10 12L10 11L12 11L12 10L13 10L13 12L12 12L12 13L13 13L13 14L11 14L11 13L10 13L10 14L11 14L11 15L10 15L10 16L9 16L9 17L8 17L8 16L7 16L7 17L4 17L4 18L3 18L3 20L4 20L4 23L6 23L6 24L7 24L7 25L5 25L5 24L3 24L3 23L2 23L2 24L3 24L3 25L4 25L4 26L7 26L7 25L8 25L8 26L9 26L9 25L10 25L10 27L11 27L11 28L9 28L9 30L10 30L10 31L4 31L4 30L3 30L3 29L2 29L2 30L1 30L1 31L3 31L3 35L4 35L4 36L3 36L3 38L4 38L4 39L5 39L5 40L9 40L9 41L10 41L10 43L12 43L12 44L11 44L11 45L10 45L10 44L9 44L9 45L10 45L10 47L12 47L12 46L11 46L11 45L16 45L16 46L17 46L17 47L16 47L16 50L14 50L14 49L13 49L13 48L12 48L12 49L13 49L13 50L14 50L14 51L16 51L16 52L17 52L17 54L16 54L16 55L17 55L17 54L18 54L18 52L19 52L19 49L18 49L18 48L20 48L20 47L21 47L21 46L22 46L22 48L23 48L23 49L24 49L24 51L25 51L25 49L26 49L26 48L27 48L27 46L26 46L26 45L24 45L24 43L25 43L25 42L26 42L26 41L25 41L25 40L27 40L27 41L28 41L28 42L27 42L27 43L28 43L28 42L29 42L29 43L30 43L30 44L31 44L31 45L32 45L32 46L31 46L31 47L30 47L30 45L29 45L29 44L27 44L27 45L28 45L28 48L31 48L31 50L32 50L32 51L31 51L31 52L32 52L32 51L33 51L33 50L32 50L32 48L31 48L31 47L32 47L32 46L33 46L33 45L32 45L32 44L31 44L31 43L32 43L32 40L33 40L33 41L34 41L34 42L35 42L35 41L36 41L36 38L37 38L37 41L38 41L38 38L39 38L39 36L40 36L40 35L43 35L43 33L42 33L42 31L44 31L44 30L46 30L46 31L45 31L45 32L46 32L46 35L47 35L47 36L48 36L48 37L49 37L49 36L50 36L50 33L49 33L49 34L48 34L48 33L47 33L47 32L46 32L46 31L47 31L47 30L48 30L48 29L47 29L47 28L46 28L46 29L44 29L44 28L42 28L42 31L41 31L41 30L40 30L40 27L39 27L39 29L38 29L38 28L37 28L37 26L36 26L36 24L37 24L37 25L38 25L38 26L40 26L40 23L41 23L41 22L40 22L40 19L41 19L41 18L40 18L40 14L41 14L41 13L40 13L40 11L41 11L41 12L42 12L42 15L41 15L41 17L42 17L42 18L43 18L43 17L44 17L44 19L42 19L42 20L43 20L43 21L42 21L42 24L41 24L41 27L43 27L43 25L44 25L44 27L45 27L45 25L44 25L44 24L46 24L46 23L48 23L48 22L50 22L50 24L48 24L48 26L49 26L49 25L50 25L50 26L51 26L51 25L52 25L52 23L54 23L54 22L52 22L52 20L53 20L53 19L54 19L54 17L53 17L53 18L52 18L52 15L53 15L53 14L52 14L52 13L50 13L50 10L52 10L52 9L50 9L50 10L49 10L49 9L48 9L48 11L49 11L49 12L48 12L48 14L47 14L47 13L46 13L46 11L47 11L47 9L46 9L46 5L47 5L47 3L46 3L46 5L44 5L44 4L45 4L45 2L47 2L47 1L42 1L42 3L41 3L41 2L40 2L40 1L39 1L39 2L38 2L38 3L37 3L37 2L35 2L35 3L34 3L34 4L35 4L35 9L34 9L34 10L33 10L33 9L32 9L32 11L31 11L31 12L30 12L30 10L31 10L31 9L30 9L30 10L28 10L28 9L27 9L27 10L25 10L25 9L26 9L26 5L24 5L24 6L23 6L23 7L22 7L22 6L21 6L21 7L22 7L22 8L21 8L21 9L20 9L20 10L19 10L19 9L18 9L18 8L19 8L19 7L20 7L20 5L22 5L22 4L23 4L23 1ZM24 1L24 4L25 4L25 1ZM27 2L27 3L26 3L26 4L27 4L27 3L28 3L28 2ZM39 2L39 4L38 4L38 5L39 5L39 4L40 4L40 2ZM43 2L43 3L42 3L42 5L41 5L41 6L40 6L40 7L41 7L41 8L40 8L40 9L41 9L41 11L42 11L42 12L44 12L44 13L45 13L45 15L46 15L46 13L45 13L45 12L44 12L44 11L43 11L43 10L42 10L42 9L43 9L43 6L44 6L44 10L46 10L46 9L45 9L45 6L44 6L44 5L43 5L43 4L44 4L44 2ZM21 3L21 4L22 4L22 3ZM35 3L35 4L36 4L36 3ZM18 4L18 5L17 5L17 6L16 6L16 7L17 7L17 8L18 8L18 7L19 7L19 4ZM27 5L27 8L30 8L30 5ZM42 5L42 6L41 6L41 7L42 7L42 6L43 6L43 5ZM10 6L10 7L11 7L11 6ZM14 6L14 7L15 7L15 6ZM17 6L17 7L18 7L18 6ZM24 6L24 7L25 7L25 6ZM28 6L28 7L29 7L29 6ZM36 6L36 10L34 10L34 11L33 11L33 12L32 12L32 13L31 13L31 14L33 14L33 15L34 15L34 17L33 17L33 16L32 16L32 15L31 15L31 16L30 16L30 15L29 15L29 13L30 13L30 12L29 12L29 11L28 11L28 10L27 10L27 11L28 11L28 12L27 12L27 14L28 14L28 15L29 15L29 16L30 16L30 17L28 17L28 18L30 18L30 17L31 17L31 19L29 19L29 20L28 20L28 19L27 19L27 20L26 20L26 18L27 18L27 17L26 17L26 14L24 14L24 13L26 13L26 11L25 11L25 10L24 10L24 8L22 8L22 9L21 9L21 10L20 10L20 13L19 13L19 12L18 12L18 11L19 11L19 10L16 10L16 11L14 11L14 12L16 12L16 11L17 11L17 14L15 14L15 15L14 15L14 14L13 14L13 15L14 15L14 18L13 18L13 16L12 16L12 17L11 17L11 18L10 18L10 17L9 17L9 18L8 18L8 17L7 17L7 18L6 18L6 19L5 19L5 18L4 18L4 19L5 19L5 22L6 22L6 23L7 23L7 24L10 24L10 23L11 23L11 25L12 25L12 26L11 26L11 27L12 27L12 28L13 28L13 27L12 27L12 26L13 26L13 25L12 25L12 24L13 24L13 23L14 23L14 29L11 29L11 30L12 30L12 31L14 31L14 29L15 29L15 28L16 28L16 27L15 27L15 26L16 26L16 25L17 25L17 23L16 23L16 22L17 22L17 18L18 18L18 21L19 21L19 20L20 20L20 21L21 21L21 20L20 20L20 17L21 17L21 19L22 19L22 21L23 21L23 24L22 24L22 22L20 22L20 23L21 23L21 27L20 27L20 24L18 24L18 25L19 25L19 27L18 27L18 28L19 28L19 30L17 30L17 31L16 31L16 30L15 30L15 31L16 31L16 32L17 32L17 31L18 31L18 33L19 33L19 34L20 34L20 36L19 36L19 35L18 35L18 37L17 37L17 35L16 35L16 37L17 37L17 38L16 38L16 39L18 39L18 42L17 42L17 43L16 43L16 41L17 41L17 40L16 40L16 41L15 41L15 40L13 40L13 44L14 44L14 42L15 42L15 43L16 43L16 44L17 44L17 46L18 46L18 45L19 45L19 46L20 46L20 45L21 45L21 43L20 43L20 41L21 41L21 39L22 39L22 41L23 41L23 43L22 43L22 44L23 44L23 43L24 43L24 40L23 40L23 38L22 38L22 37L23 37L23 35L25 35L25 36L24 36L24 37L25 37L25 36L28 36L28 37L29 37L29 36L28 36L28 35L31 35L31 36L30 36L30 40L28 40L28 41L31 41L31 38L33 38L33 39L34 39L34 41L35 41L35 39L34 39L34 37L35 37L35 38L36 38L36 37L37 37L37 38L38 38L38 37L37 37L37 36L38 36L38 35L39 35L39 34L38 34L38 33L39 33L39 32L40 32L40 34L42 34L42 33L41 33L41 32L40 32L40 30L39 30L39 31L38 31L38 30L37 30L37 31L36 31L36 33L35 33L35 34L34 34L34 32L35 32L35 31L34 31L34 29L35 29L35 30L36 30L36 29L37 29L37 28L36 28L36 29L35 29L35 27L34 27L34 29L33 29L33 28L32 28L32 30L31 30L31 27L32 27L32 25L33 25L33 26L34 26L34 24L36 24L36 23L39 23L39 22L38 22L38 21L37 21L37 20L39 20L39 19L40 19L40 18L38 18L38 16L37 16L37 15L38 15L38 13L37 13L37 12L39 12L39 10L38 10L38 9L37 9L37 8L39 8L39 6L38 6L38 7L37 7L37 6ZM14 8L14 9L13 9L13 10L14 10L14 9L15 9L15 8ZM41 8L41 9L42 9L42 8ZM22 9L22 10L21 10L21 13L20 13L20 14L19 14L19 13L18 13L18 14L17 14L17 15L15 15L15 17L16 17L16 18L17 18L17 17L18 17L18 18L19 18L19 17L20 17L20 16L19 16L19 15L20 15L20 14L22 14L22 16L23 16L23 15L24 15L24 18L26 18L26 17L25 17L25 15L24 15L24 14L23 14L23 12L22 12L22 11L24 11L24 10L23 10L23 9ZM34 11L34 12L35 12L35 13L34 13L34 15L35 15L35 17L34 17L34 18L33 18L33 17L32 17L32 16L31 16L31 17L32 17L32 19L34 19L34 20L35 20L35 21L34 21L34 22L33 22L33 21L32 21L32 20L31 20L31 21L30 21L30 22L29 22L29 23L28 23L28 22L26 22L26 23L27 23L27 25L26 25L26 26L28 26L28 24L29 24L29 26L31 26L31 25L32 25L32 23L31 23L31 25L30 25L30 22L33 22L33 24L34 24L34 22L35 22L35 23L36 23L36 22L37 22L37 21L36 21L36 20L35 20L35 19L34 19L34 18L36 18L36 19L37 19L37 18L36 18L36 14L35 14L35 13L36 13L36 12L37 12L37 11L36 11L36 12L35 12L35 11ZM51 11L51 12L52 12L52 11ZM49 13L49 14L48 14L48 15L47 15L47 16L48 16L48 17L47 17L47 18L48 18L48 17L49 17L49 20L48 20L48 19L46 19L46 16L44 16L44 14L43 14L43 16L44 16L44 17L45 17L45 19L44 19L44 21L43 21L43 22L44 22L44 23L46 23L46 20L47 20L47 22L48 22L48 21L49 21L49 20L51 20L51 19L52 19L52 18L50 18L50 16L51 16L51 15L52 15L52 14L51 14L51 15L50 15L50 13ZM18 14L18 15L19 15L19 14ZM49 15L49 16L50 16L50 15ZM1 16L1 17L2 17L2 16ZM16 16L16 17L17 17L17 16ZM18 16L18 17L19 17L19 16ZM1 18L1 20L2 20L2 18ZM7 18L7 19L6 19L6 20L7 20L7 21L6 21L6 22L7 22L7 23L8 23L8 22L7 22L7 21L8 21L8 20L9 20L9 23L10 23L10 21L12 21L12 23L13 23L13 21L12 21L12 19L13 19L13 18L12 18L12 19L10 19L10 18L9 18L9 19L8 19L8 18ZM56 18L56 19L57 19L57 18ZM7 19L7 20L8 20L8 19ZM14 19L14 20L16 20L16 19ZM24 19L24 20L25 20L25 19ZM27 20L27 21L28 21L28 20ZM14 21L14 22L15 22L15 21ZM35 21L35 22L36 22L36 21ZM44 21L44 22L45 22L45 21ZM18 22L18 23L19 23L19 22ZM24 22L24 23L25 23L25 22ZM51 22L51 23L52 23L52 22ZM42 24L42 25L43 25L43 24ZM50 24L50 25L51 25L51 24ZM24 25L24 26L25 26L25 25ZM46 25L46 26L47 26L47 25ZM5 27L5 30L8 30L8 27ZM19 27L19 28L20 28L20 32L19 32L19 33L20 33L20 34L21 34L21 37L22 37L22 35L23 35L23 33L22 33L22 30L23 30L23 29L22 29L22 30L21 30L21 28L20 28L20 27ZM22 27L22 28L24 28L24 31L23 31L23 32L24 32L24 34L26 34L26 35L28 35L28 34L29 34L29 32L28 32L28 31L27 31L27 33L28 33L28 34L26 34L26 33L25 33L25 32L26 32L26 30L25 30L25 28L24 28L24 27ZM27 27L27 30L30 30L30 27ZM49 27L49 30L52 30L52 27ZM6 28L6 29L7 29L7 28ZM28 28L28 29L29 29L29 28ZM50 28L50 29L51 29L51 28ZM43 29L43 30L44 30L44 29ZM32 30L32 32L30 32L30 34L31 34L31 35L32 35L32 34L33 34L33 33L32 33L32 32L34 32L34 31L33 31L33 30ZM37 31L37 32L38 32L38 31ZM4 32L4 33L5 33L5 34L4 34L4 35L5 35L5 34L6 34L6 35L7 35L7 36L5 36L5 37L4 37L4 38L5 38L5 39L7 39L7 38L8 38L8 37L9 37L9 38L10 38L10 39L9 39L9 40L10 40L10 39L14 39L14 38L13 38L13 36L14 36L14 37L15 37L15 36L14 36L14 34L13 34L13 33L12 33L12 34L13 34L13 35L11 35L11 34L10 34L10 33L9 33L9 36L8 36L8 35L7 35L7 34L6 34L6 33L7 33L7 32ZM15 33L15 34L16 34L16 33ZM31 33L31 34L32 34L32 33ZM36 33L36 35L35 35L35 37L36 37L36 35L38 35L38 34L37 34L37 33ZM47 34L47 35L48 35L48 36L49 36L49 35L48 35L48 34ZM33 35L33 37L34 37L34 35ZM7 36L7 37L6 37L6 38L7 38L7 37L8 37L8 36ZM9 36L9 37L11 37L11 38L12 38L12 37L11 37L11 36ZM31 36L31 37L32 37L32 36ZM45 36L45 37L46 37L46 38L45 38L45 39L46 39L46 38L47 38L47 40L48 40L48 38L47 38L47 37L46 37L46 36ZM53 36L53 37L52 37L52 38L54 38L54 36ZM20 38L20 39L21 39L21 38ZM24 38L24 39L26 39L26 38ZM28 38L28 39L29 39L29 38ZM51 39L51 40L52 40L52 39ZM11 40L11 41L12 41L12 40ZM54 41L54 42L55 42L55 43L56 43L56 42L55 42L55 41ZM30 42L30 43L31 43L31 42ZM18 43L18 44L20 44L20 43ZM6 45L6 46L7 46L7 47L9 47L9 46L8 46L8 45ZM23 45L23 48L24 48L24 45ZM13 46L13 47L14 47L14 48L15 48L15 47L14 47L14 46ZM25 46L25 47L26 47L26 46ZM44 46L44 47L45 47L45 46ZM17 47L17 48L18 48L18 47ZM50 47L50 48L51 48L51 47ZM17 49L17 50L16 50L16 51L17 51L17 52L18 52L18 49ZM27 49L27 52L30 52L30 49ZM40 49L40 51L41 51L41 52L42 52L42 51L41 51L41 49ZM45 49L45 53L46 53L46 51L47 51L47 52L48 52L48 51L47 51L47 49ZM49 49L49 52L52 52L52 49ZM28 50L28 51L29 51L29 50ZM50 50L50 51L51 51L51 50ZM9 51L9 52L10 52L10 53L11 53L11 52L10 52L10 51ZM33 52L33 53L34 53L34 54L35 54L35 53L36 53L36 54L37 54L37 53L36 53L36 52L35 52L35 53L34 53L34 52ZM31 53L31 54L30 54L30 55L33 55L33 54L32 54L32 53ZM20 54L20 55L21 55L21 54ZM40 54L40 55L41 55L41 54ZM10 56L10 57L11 57L11 56ZM18 56L18 57L20 57L20 56ZM36 56L36 57L37 57L37 56ZM56 56L56 57L57 57L57 56ZM0 0L0 7L7 7L7 0ZM1 1L1 6L6 6L6 1ZM2 2L2 5L5 5L5 2ZM50 0L50 7L57 7L57 0ZM51 1L51 6L56 6L56 1ZM52 2L52 5L55 5L55 2ZM0 50L0 57L7 57L7 50ZM1 51L1 56L6 56L6 51ZM2 52L2 55L5 55L5 52Z" fill="#000000"/></g></g></svg>
