<?xml version="1.0" encoding="UTF-8"?>
<svg xmlns="http://www.w3.org/2000/svg" version="1.1" width="300" height="300" viewBox="0 0 300 300"><rect x="0" y="0" width="300" height="300" fill="#fefefe"/><g transform="scale(4.615)"><g transform="translate(4,4)"><path fill-rule="evenodd" d="M9 0L9 1L8 1L8 2L11 2L11 3L12 3L12 5L11 5L11 4L10 4L10 3L8 3L8 4L9 4L9 5L8 5L8 7L9 7L9 8L6 8L6 9L5 9L5 8L0 8L0 11L2 11L2 10L1 10L1 9L3 9L3 12L5 12L5 14L3 14L3 13L1 13L1 12L0 12L0 16L1 16L1 14L3 14L3 15L5 15L5 16L6 16L6 17L7 17L7 18L5 18L5 17L4 17L4 16L3 16L3 17L4 17L4 18L3 18L3 20L4 20L4 21L2 21L2 20L1 20L1 19L2 19L2 17L0 17L0 18L1 18L1 19L0 19L0 23L1 23L1 25L0 25L0 26L1 26L1 25L3 25L3 23L5 23L5 24L4 24L4 28L3 28L3 26L2 26L2 28L3 28L3 29L4 29L4 31L3 31L3 30L2 30L2 29L1 29L1 30L0 30L0 32L1 32L1 33L0 33L0 35L1 35L1 33L2 33L2 31L3 31L3 34L4 34L4 33L5 33L5 35L3 35L3 37L2 37L2 38L1 38L1 37L0 37L0 39L1 39L1 40L0 40L0 41L1 41L1 42L0 42L0 44L1 44L1 46L0 46L0 48L5 48L5 47L7 47L7 46L8 46L8 48L6 48L6 49L8 49L8 51L10 51L10 50L11 50L11 52L8 52L8 57L9 57L9 56L11 56L11 57L12 57L12 56L13 56L13 57L15 57L15 55L16 55L16 56L17 56L17 57L22 57L22 56L19 56L19 55L20 55L20 54L17 54L17 53L20 53L20 52L23 52L23 51L22 51L22 50L25 50L25 51L26 51L26 52L24 52L24 53L21 53L21 54L22 54L22 55L23 55L23 56L24 56L24 55L23 55L23 54L24 54L24 53L26 53L26 56L25 56L25 57L26 57L26 56L27 56L27 57L29 57L29 56L30 56L30 57L31 57L31 56L35 56L35 57L39 57L39 56L41 56L41 55L44 55L44 54L45 54L45 53L44 53L44 52L45 52L45 51L46 51L46 52L47 52L47 50L48 50L48 53L47 53L47 56L46 56L46 57L47 57L47 56L50 56L50 57L52 57L52 55L51 55L51 53L52 53L52 54L54 54L54 53L55 53L55 52L56 52L56 49L57 49L57 48L56 48L56 46L57 46L57 45L56 45L56 44L55 44L55 43L56 43L56 42L57 42L57 41L56 41L56 42L55 42L55 39L57 39L57 37L56 37L56 36L57 36L57 35L53 35L53 34L52 34L52 33L53 33L53 32L54 32L54 34L57 34L57 32L56 32L56 30L57 30L57 27L55 27L55 26L57 26L57 25L56 25L56 22L57 22L57 20L56 20L56 19L55 19L55 18L57 18L57 17L56 17L56 16L57 16L57 15L56 15L56 14L57 14L57 13L56 13L56 14L55 14L55 13L54 13L54 12L55 12L55 11L56 11L56 12L57 12L57 11L56 11L56 8L55 8L55 10L54 10L54 11L52 11L52 10L53 10L53 9L54 9L54 8L53 8L53 9L52 9L52 8L51 8L51 10L50 10L50 8L49 8L49 6L48 6L48 7L47 7L47 5L48 5L48 0L46 0L46 1L47 1L47 2L44 2L44 3L43 3L43 4L40 4L40 5L39 5L39 6L38 6L38 7L37 7L37 5L38 5L38 4L39 4L39 3L41 3L41 2L43 2L43 0L41 0L41 1L40 1L40 0L39 0L39 1L38 1L38 0L37 0L37 1L38 1L38 4L37 4L37 3L36 3L36 0L35 0L35 1L33 1L33 0L30 0L30 1L29 1L29 0L27 0L27 1L26 1L26 0L23 0L23 1L22 1L22 0L21 0L21 1L22 1L22 2L25 2L25 1L26 1L26 2L28 2L28 3L27 3L27 4L26 4L26 3L23 3L23 4L19 4L19 3L20 3L20 2L17 2L17 1L16 1L16 2L17 2L17 6L16 6L16 7L15 7L15 5L16 5L16 4L15 4L15 5L14 5L14 7L15 7L15 9L19 9L19 10L18 10L18 11L17 11L17 10L13 10L13 9L14 9L14 8L13 8L13 9L12 9L12 8L10 8L10 7L11 7L11 6L12 6L12 7L13 7L13 4L14 4L14 2L15 2L15 1L14 1L14 0ZM19 0L19 1L20 1L20 0ZM11 1L11 2L12 2L12 1ZM13 1L13 2L14 2L14 1ZM28 1L28 2L29 2L29 3L28 3L28 4L31 4L31 8L32 8L32 10L31 10L31 11L30 11L30 10L29 10L29 9L28 9L28 10L27 10L27 11L26 11L26 12L25 12L25 11L24 11L24 12L23 12L23 13L22 13L22 12L20 12L20 10L21 10L21 11L22 11L22 10L21 10L21 9L23 9L23 8L24 8L24 6L23 6L23 5L24 5L24 4L23 4L23 5L21 5L21 7L22 7L22 8L19 8L19 7L20 7L20 5L18 5L18 6L17 6L17 7L16 7L16 8L19 8L19 9L20 9L20 10L19 10L19 12L20 12L20 14L17 14L17 13L18 13L18 12L17 12L17 11L15 11L15 13L13 13L13 12L14 12L14 11L13 11L13 10L12 10L12 11L13 11L13 12L12 12L12 13L13 13L13 14L15 14L15 13L16 13L16 16L15 16L15 15L14 15L14 17L13 17L13 15L12 15L12 17L11 17L11 14L10 14L10 13L11 13L11 10L10 10L10 8L9 8L9 9L6 9L6 10L7 10L7 11L5 11L5 12L7 12L7 13L6 13L6 14L7 14L7 13L9 13L9 15L8 15L8 17L9 17L9 18L8 18L8 19L9 19L9 20L7 20L7 19L4 19L4 20L7 20L7 21L4 21L4 22L5 22L5 23L6 23L6 24L5 24L5 26L10 26L10 27L9 27L9 28L10 28L10 30L9 30L9 31L6 31L6 32L8 32L8 33L6 33L6 34L8 34L8 35L9 35L9 34L8 34L8 33L10 33L10 34L11 34L11 35L10 35L10 37L9 37L9 38L11 38L11 37L12 37L12 36L13 36L13 40L12 40L12 39L11 39L11 40L9 40L9 39L8 39L8 40L9 40L9 41L6 41L6 42L10 42L10 46L9 46L9 47L10 47L10 49L9 49L9 50L10 50L10 49L12 49L12 52L13 52L13 51L14 51L14 53L15 53L15 54L13 54L13 53L9 53L9 55L10 55L10 54L11 54L11 55L12 55L12 54L13 54L13 56L14 56L14 55L15 55L15 54L16 54L16 53L17 53L17 52L19 52L19 51L21 51L21 49L23 49L23 47L24 47L24 49L25 49L25 48L30 48L30 47L29 47L29 46L30 46L30 45L29 45L29 44L28 44L28 43L29 43L29 42L32 42L32 43L33 43L33 44L32 44L32 46L31 46L31 47L33 47L33 46L35 46L35 48L34 48L34 49L33 49L33 48L32 48L32 49L31 49L31 53L30 53L30 54L27 54L27 56L29 56L29 55L30 55L30 56L31 56L31 54L32 54L32 53L33 53L33 55L35 55L35 56L36 56L36 54L35 54L35 51L33 51L33 52L32 52L32 50L36 50L36 52L38 52L38 53L37 53L37 54L40 54L40 53L41 53L41 52L43 52L43 51L42 51L42 50L41 50L41 48L42 48L42 49L43 49L43 50L44 50L44 49L45 49L45 50L47 50L47 49L48 49L48 48L49 48L49 47L48 47L48 46L47 46L47 45L48 45L48 44L49 44L49 46L50 46L50 48L52 48L52 47L54 47L54 46L53 46L53 45L50 45L50 43L51 43L51 44L53 44L53 43L54 43L54 42L53 42L53 41L54 41L54 40L53 40L53 41L51 41L51 42L50 42L50 43L48 43L48 44L47 44L47 45L45 45L45 44L46 44L46 43L47 43L47 42L48 42L48 41L49 41L49 40L50 40L50 39L55 39L55 38L54 38L54 37L53 37L53 35L52 35L52 34L50 34L50 32L49 32L49 31L48 31L48 28L47 28L47 29L46 29L46 30L47 30L47 31L48 31L48 32L43 32L43 30L44 30L44 31L45 31L45 28L46 28L46 27L47 27L47 25L49 25L49 24L50 24L50 22L51 22L51 21L53 21L53 22L56 22L56 20L53 20L53 19L52 19L52 18L55 18L55 17L53 17L53 15L54 15L54 14L53 14L53 15L50 15L50 14L51 14L51 12L50 12L50 10L49 10L49 11L48 11L48 10L47 10L47 9L49 9L49 8L44 8L44 10L45 10L45 11L44 11L44 14L39 14L39 13L43 13L43 10L40 10L40 11L41 11L41 12L39 12L39 13L38 13L38 14L37 14L37 15L35 15L35 16L32 16L32 13L33 13L33 14L36 14L36 13L35 13L35 11L36 11L36 10L37 10L37 11L39 11L39 9L43 9L43 7L44 7L44 6L45 6L45 7L46 7L46 5L47 5L47 3L44 3L44 6L43 6L43 7L42 7L42 6L41 6L41 5L40 5L40 6L39 6L39 7L40 7L40 8L39 8L39 9L38 9L38 10L37 10L37 9L35 9L35 8L37 8L37 7L36 7L36 5L37 5L37 4L36 4L36 5L35 5L35 2L34 2L34 3L32 3L32 1L30 1L30 2L29 2L29 1ZM31 3L31 4L32 4L32 5L34 5L34 7L33 7L33 6L32 6L32 7L33 7L33 9L34 9L34 8L35 8L35 5L34 5L34 4L32 4L32 3ZM25 4L25 8L26 8L26 4ZM45 4L45 5L46 5L46 4ZM27 5L27 8L30 8L30 5ZM9 6L9 7L10 7L10 6ZM18 6L18 7L19 7L19 6ZM22 6L22 7L23 7L23 6ZM28 6L28 7L29 7L29 6ZM40 6L40 7L41 7L41 6ZM8 10L8 11L10 11L10 10ZM28 10L28 11L27 11L27 12L26 12L26 13L28 13L28 14L29 14L29 16L28 16L28 15L27 15L27 14L26 14L26 15L25 15L25 17L22 17L22 16L21 16L21 15L23 15L23 16L24 16L24 15L23 15L23 14L25 14L25 13L23 13L23 14L22 14L22 13L21 13L21 14L20 14L20 16L16 16L16 17L18 17L18 18L16 18L16 19L15 19L15 21L16 21L16 22L14 22L14 21L12 21L12 24L13 24L13 25L12 25L12 26L11 26L11 28L12 28L12 27L14 27L14 28L13 28L13 30L14 30L14 32L13 32L13 31L12 31L12 32L11 32L11 31L9 31L9 32L10 32L10 33L12 33L12 32L13 32L13 34L12 34L12 35L15 35L15 34L14 34L14 33L17 33L17 35L16 35L16 36L17 36L17 37L18 37L18 38L17 38L17 40L18 40L18 41L17 41L17 42L15 42L15 40L16 40L16 39L15 39L15 40L14 40L14 46L13 46L13 47L12 47L12 49L17 49L17 51L18 51L18 50L20 50L20 48L21 48L21 47L23 47L23 46L24 46L24 47L25 47L25 45L24 45L24 43L25 43L25 44L27 44L27 43L25 43L25 41L23 41L23 42L22 42L22 41L21 41L21 42L20 42L20 40L21 40L21 39L22 39L22 40L23 40L23 39L24 39L24 40L25 40L25 39L26 39L26 40L28 40L28 39L27 39L27 38L28 38L28 37L26 37L26 38L25 38L25 36L27 36L27 34L26 34L26 35L25 35L25 33L26 33L26 32L27 32L27 31L29 31L29 32L28 32L28 33L29 33L29 34L30 34L30 36L29 36L29 37L31 37L31 38L29 38L29 39L33 39L33 40L35 40L35 42L37 42L37 43L36 43L36 44L35 44L35 43L34 43L34 42L33 42L33 41L32 41L32 40L30 40L30 41L32 41L32 42L33 42L33 43L34 43L34 45L37 45L37 46L36 46L36 48L35 48L35 49L36 49L36 50L38 50L38 52L39 52L39 51L40 51L40 52L41 52L41 50L38 50L38 49L39 49L39 48L41 48L41 46L43 46L43 47L42 47L42 48L43 48L43 49L44 49L44 48L45 48L45 49L46 49L46 48L45 48L45 47L47 47L47 48L48 48L48 47L47 47L47 46L45 46L45 47L44 47L44 46L43 46L43 45L44 45L44 44L45 44L45 42L44 42L44 41L43 41L43 40L45 40L45 41L47 41L47 39L48 39L48 38L49 38L49 39L50 39L50 38L51 38L51 37L52 37L52 35L50 35L50 34L49 34L49 35L50 35L50 38L49 38L49 36L48 36L48 37L47 37L47 39L46 39L46 38L45 38L45 37L46 37L46 35L44 35L44 36L41 36L41 35L42 35L42 34L45 34L45 33L43 33L43 32L41 32L41 33L39 33L39 34L40 34L40 35L39 35L39 37L40 37L40 38L41 38L41 41L39 41L39 42L38 42L38 40L40 40L40 39L38 39L38 40L35 40L35 39L37 39L37 38L38 38L38 37L37 37L37 36L38 36L38 33L37 33L37 32L35 32L35 31L36 31L36 30L37 30L37 29L38 29L38 28L39 28L39 27L40 27L40 26L39 26L39 27L36 27L36 26L34 26L34 27L33 27L33 26L32 26L32 24L33 24L33 25L37 25L37 26L38 26L38 25L40 25L40 24L41 24L41 25L42 25L42 26L41 26L41 28L42 28L42 26L43 26L43 25L44 25L44 26L45 26L45 25L44 25L44 24L43 24L43 25L42 25L42 24L41 24L41 23L44 23L44 20L47 20L47 22L46 22L46 21L45 21L45 22L46 22L46 23L49 23L49 21L51 21L51 20L52 20L52 19L48 19L48 18L50 18L50 17L51 17L51 16L50 16L50 15L49 15L49 14L50 14L50 12L49 12L49 13L47 13L47 14L44 14L44 15L42 15L42 16L41 16L41 15L39 15L39 14L38 14L38 15L39 15L39 16L38 16L38 17L37 17L37 16L35 16L35 17L37 17L37 18L38 18L38 17L39 17L39 19L37 19L37 20L36 20L36 19L35 19L35 23L34 23L34 22L33 22L33 23L32 23L32 24L29 24L29 23L30 23L30 22L31 22L31 21L32 21L32 20L33 20L33 21L34 21L34 20L33 20L33 19L34 19L34 18L33 18L33 17L32 17L32 16L31 16L31 15L30 15L30 14L31 14L31 13L32 13L32 12L33 12L33 13L34 13L34 12L33 12L33 10L32 10L32 12L31 12L31 13L30 13L30 14L29 14L29 13L28 13L28 12L29 12L29 10ZM46 10L46 11L45 11L45 12L48 12L48 11L47 11L47 10ZM9 12L9 13L10 13L10 12ZM16 12L16 13L17 13L17 12ZM52 12L52 13L53 13L53 12ZM6 15L6 16L7 16L7 15ZM9 15L9 17L10 17L10 18L9 18L9 19L10 19L10 20L14 20L14 19L13 19L13 17L12 17L12 18L11 18L11 17L10 17L10 15ZM26 15L26 17L28 17L28 16L27 16L27 15ZM44 15L44 18L43 18L43 20L42 20L42 21L43 21L43 20L44 20L44 18L45 18L45 19L46 19L46 18L47 18L47 15ZM48 15L48 16L49 16L49 15ZM20 16L20 18L22 18L22 17L21 17L21 16ZM39 16L39 17L41 17L41 16ZM42 16L42 17L43 17L43 16ZM45 16L45 17L46 17L46 16ZM23 18L23 19L22 19L22 20L21 20L21 19L19 19L19 20L20 20L20 21L19 21L19 22L18 22L18 23L19 23L19 25L20 25L20 26L18 26L18 25L17 25L17 24L16 24L16 23L14 23L14 24L16 24L16 25L15 25L15 26L14 26L14 27L15 27L15 29L14 29L14 30L15 30L15 29L16 29L16 30L18 30L18 31L17 31L17 32L19 32L19 31L20 31L20 32L21 32L21 33L20 33L20 34L19 34L19 33L18 33L18 34L19 34L19 35L17 35L17 36L19 36L19 37L21 37L21 38L24 38L24 37L23 37L23 36L24 36L24 34L23 34L23 33L25 33L25 32L21 32L21 31L25 31L25 30L23 30L23 29L24 29L24 28L25 28L25 29L26 29L26 28L25 28L25 27L26 27L26 26L27 26L27 25L28 25L28 26L30 26L30 25L29 25L29 24L25 24L25 23L26 23L26 22L25 22L25 21L24 21L24 20L23 20L23 19L24 19L24 18ZM26 18L26 21L28 21L28 22L27 22L27 23L29 23L29 21L30 21L30 19L33 19L33 18L30 18L30 19L28 19L28 18ZM41 18L41 19L42 19L42 18ZM16 19L16 21L17 21L17 19ZM38 20L38 22L37 22L37 24L40 24L40 22L39 22L39 21L41 21L41 20ZM7 21L7 22L6 22L6 23L7 23L7 24L6 24L6 25L7 25L7 24L10 24L10 25L11 25L11 22L10 22L10 23L8 23L8 22L9 22L9 21ZM21 21L21 24L20 24L20 25L21 25L21 26L20 26L20 28L19 28L19 29L18 29L18 28L16 28L16 29L18 29L18 30L20 30L20 31L21 31L21 30L20 30L20 29L22 29L22 28L21 28L21 27L22 27L22 26L23 26L23 27L24 27L24 26L26 26L26 25L25 25L25 24L24 24L24 23L23 23L23 22L24 22L24 21ZM1 22L1 23L3 23L3 22ZM19 22L19 23L20 23L20 22ZM22 23L22 24L21 24L21 25L24 25L24 24L23 24L23 23ZM53 23L53 24L51 24L51 25L50 25L50 26L51 26L51 25L53 25L53 24L54 24L54 25L55 25L55 24L54 24L54 23ZM46 24L46 25L47 25L47 24ZM16 26L16 27L18 27L18 26ZM31 26L31 27L32 27L32 29L31 29L31 31L30 31L30 32L29 32L29 33L31 33L31 35L33 35L33 36L32 36L32 37L33 37L33 39L35 39L35 37L34 37L34 35L35 35L35 36L37 36L37 34L35 34L35 33L33 33L33 32L34 32L34 31L32 31L32 29L33 29L33 30L35 30L35 28L36 28L36 27L35 27L35 28L33 28L33 27L32 27L32 26ZM53 26L53 27L54 27L54 26ZM5 27L5 30L8 30L8 27ZM27 27L27 30L30 30L30 27ZM44 27L44 28L43 28L43 29L39 29L39 30L38 30L38 32L39 32L39 31L41 31L41 30L43 30L43 29L44 29L44 28L45 28L45 27ZM49 27L49 30L52 30L52 27ZM6 28L6 29L7 29L7 28ZM28 28L28 29L29 29L29 28ZM50 28L50 29L51 29L51 28ZM54 28L54 29L56 29L56 28ZM11 29L11 30L12 30L12 29ZM1 30L1 31L2 31L2 30ZM53 30L53 31L55 31L55 30ZM4 31L4 32L5 32L5 31ZM31 31L31 33L32 33L32 34L33 34L33 33L32 33L32 31ZM51 31L51 33L52 33L52 31ZM48 32L48 33L49 33L49 32ZM55 32L55 33L56 33L56 32ZM21 33L21 34L20 34L20 35L19 35L19 36L20 36L20 35L21 35L21 36L22 36L22 35L23 35L23 34L22 34L22 33ZM5 35L5 36L4 36L4 37L3 37L3 38L5 38L5 37L6 37L6 38L8 38L8 36L7 36L7 35ZM6 36L6 37L7 37L7 36ZM40 36L40 37L41 37L41 36ZM44 36L44 37L43 37L43 38L42 38L42 39L45 39L45 38L44 38L44 37L45 37L45 36ZM14 37L14 38L16 38L16 37ZM19 38L19 39L20 39L20 38ZM3 39L3 40L1 40L1 41L3 41L3 42L1 42L1 44L2 44L2 43L3 43L3 42L4 42L4 41L5 41L5 40L7 40L7 39L5 39L5 40L4 40L4 39ZM3 40L3 41L4 41L4 40ZM12 41L12 42L11 42L11 44L12 44L12 45L11 45L11 46L12 46L12 45L13 45L13 44L12 44L12 42L13 42L13 41ZM18 41L18 42L17 42L17 43L18 43L18 42L19 42L19 44L20 44L20 46L21 46L21 45L22 45L22 46L23 46L23 45L22 45L22 44L21 44L21 43L22 43L22 42L21 42L21 43L20 43L20 42L19 42L19 41ZM26 41L26 42L27 42L27 41ZM23 42L23 43L24 43L24 42ZM43 42L43 44L44 44L44 42ZM51 42L51 43L53 43L53 42ZM5 43L5 45L4 45L4 46L3 46L3 45L2 45L2 46L1 46L1 47L2 47L2 46L3 46L3 47L5 47L5 46L7 46L7 45L9 45L9 43ZM41 43L41 44L39 44L39 45L38 45L38 46L41 46L41 44L42 44L42 43ZM6 44L6 45L7 45L7 44ZM15 44L15 46L16 46L16 47L15 47L15 48L20 48L20 47L18 47L18 46L17 46L17 45L18 45L18 44L17 44L17 45L16 45L16 44ZM54 44L54 45L55 45L55 46L56 46L56 45L55 45L55 44ZM26 45L26 47L28 47L28 46L27 46L27 45ZM51 46L51 47L52 47L52 46ZM38 47L38 48L37 48L37 49L38 49L38 48L39 48L39 47ZM43 47L43 48L44 48L44 47ZM53 48L53 49L56 49L56 48ZM27 49L27 52L30 52L30 49ZM49 49L49 52L52 52L52 49ZM28 50L28 51L29 51L29 50ZM50 50L50 51L51 51L51 50ZM54 50L54 51L55 51L55 50ZM15 52L15 53L16 53L16 52ZM33 52L33 53L34 53L34 52ZM53 52L53 53L54 53L54 52ZM43 53L43 54L44 54L44 53ZM37 55L37 56L39 56L39 55ZM50 55L50 56L51 56L51 55ZM53 55L53 56L55 56L55 57L56 57L56 56L55 56L55 55ZM43 56L43 57L44 57L44 56ZM0 0L0 7L7 7L7 0ZM1 1L1 6L6 6L6 1ZM2 2L2 5L5 5L5 2ZM50 0L50 7L57 7L57 0ZM51 1L51 6L56 6L56 1ZM52 2L52 5L55 5L55 2ZM0 50L0 57L7 57L7 50ZM1 51L1 56L6 56L6 51ZM2 52L2 55L5 55L5 52Z" fill="#000000"/></g></g></svg>
