<?xml version="1.0" encoding="UTF-8"?>
<svg xmlns="http://www.w3.org/2000/svg" version="1.1" width="300" height="300" viewBox="0 0 300 300"><rect x="0" y="0" width="300" height="300" fill="#fefefe"/><g transform="scale(4.615)"><g transform="translate(4,4)"><path fill-rule="evenodd" d="M8 0L8 2L10 2L10 3L12 3L12 7L13 7L13 8L11 8L11 4L10 4L10 5L9 5L9 4L8 4L8 9L9 9L9 6L10 6L10 8L11 8L11 9L10 9L10 11L9 11L9 10L8 10L8 12L11 12L11 13L12 13L12 11L11 11L11 10L12 10L12 9L13 9L13 10L14 10L14 9L15 9L15 10L16 10L16 11L14 11L14 12L16 12L16 11L17 11L17 14L15 14L15 15L14 15L14 14L12 14L12 15L10 15L10 14L6 14L6 15L5 15L5 16L6 16L6 17L7 17L7 18L5 18L5 17L4 17L4 15L3 15L3 14L2 14L2 15L1 15L1 12L2 12L2 13L3 13L3 12L4 12L4 14L5 14L5 13L7 13L7 12L4 12L4 11L7 11L7 10L4 10L4 9L3 9L3 8L0 8L0 9L1 9L1 11L0 11L0 17L1 17L1 16L3 16L3 18L1 18L1 22L0 22L0 24L1 24L1 22L2 22L2 20L3 20L3 23L2 23L2 24L4 24L4 25L2 25L2 26L1 26L1 25L0 25L0 26L1 26L1 28L2 28L2 29L4 29L4 32L3 32L3 30L2 30L2 31L1 31L1 29L0 29L0 31L1 31L1 32L0 32L0 33L2 33L2 36L1 36L1 35L0 35L0 38L1 38L1 40L0 40L0 41L2 41L2 42L1 42L1 43L2 43L2 42L3 42L3 43L5 43L5 44L0 44L0 45L2 45L2 47L1 47L1 46L0 46L0 48L5 48L5 47L7 47L7 48L6 48L6 49L8 49L8 50L9 50L9 49L10 49L10 53L9 53L9 54L8 54L8 57L9 57L9 56L10 56L10 55L9 55L9 54L10 54L10 53L11 53L11 56L12 56L12 57L14 57L14 56L13 56L13 55L14 55L14 54L13 54L13 55L12 55L12 53L11 53L11 51L12 51L12 52L13 52L13 53L14 53L14 52L15 52L15 56L16 56L16 57L17 57L17 56L18 56L18 57L19 57L19 56L18 56L18 53L19 53L19 51L18 51L18 49L19 49L19 50L20 50L20 49L21 49L21 48L22 48L22 50L23 50L23 51L20 51L20 53L21 53L21 52L22 52L22 53L23 53L23 55L22 55L22 57L23 57L23 56L24 56L24 57L25 57L25 55L24 55L24 54L26 54L26 55L27 55L27 56L26 56L26 57L28 57L28 55L29 55L29 57L33 57L33 55L34 55L34 57L35 57L35 55L38 55L38 47L37 47L37 48L36 48L36 49L37 49L37 51L35 51L35 50L34 50L34 48L32 48L32 47L34 47L34 45L33 45L33 44L36 44L36 45L37 45L37 46L38 46L38 45L37 45L37 44L40 44L40 45L39 45L39 46L40 46L40 45L41 45L41 47L40 47L40 49L39 49L39 52L40 52L40 53L39 53L39 56L40 56L40 57L41 57L41 56L40 56L40 54L41 54L41 55L42 55L42 57L43 57L43 54L42 54L42 53L43 53L43 52L44 52L44 57L46 57L46 56L47 56L47 57L48 57L48 56L47 56L47 55L46 55L46 52L47 52L47 54L48 54L48 55L49 55L49 57L50 57L50 55L49 55L49 54L52 54L52 55L53 55L53 53L54 53L54 54L55 54L55 55L57 55L57 54L55 54L55 52L56 52L56 51L57 51L57 49L56 49L56 47L57 47L57 44L56 44L56 47L55 47L55 45L53 45L53 44L54 44L54 43L55 43L55 42L54 42L54 39L55 39L55 38L57 38L57 36L54 36L54 34L53 34L53 36L51 36L51 33L50 33L50 32L49 32L49 31L51 31L51 32L52 32L52 31L53 31L53 33L54 33L54 31L53 31L53 28L54 28L54 27L55 27L55 26L54 26L54 25L55 25L55 24L56 24L56 28L57 28L57 24L56 24L56 23L57 23L57 20L56 20L56 23L55 23L55 24L54 24L54 22L55 22L55 21L54 21L54 19L55 19L55 17L54 17L54 15L52 15L52 14L55 14L55 13L56 13L56 15L55 15L55 16L56 16L56 19L57 19L57 13L56 13L56 12L57 12L57 10L56 10L56 11L55 11L55 9L57 9L57 8L55 8L55 9L54 9L54 10L53 10L53 8L49 8L49 10L48 10L48 7L49 7L49 6L48 6L48 7L47 7L47 5L48 5L48 0L46 0L46 1L45 1L45 0L42 0L42 1L41 1L41 0L38 0L38 2L37 2L37 1L35 1L35 0L34 0L34 2L33 2L33 1L32 1L32 0L30 0L30 1L31 1L31 2L30 2L30 3L31 3L31 4L28 4L28 3L29 3L29 0L28 0L28 2L27 2L27 0L24 0L24 1L23 1L23 0L20 0L20 1L18 1L18 0L16 0L16 1L17 1L17 2L15 2L15 0L13 0L13 1L12 1L12 0ZM10 1L10 2L12 2L12 1ZM13 1L13 3L14 3L14 4L15 4L15 3L14 3L14 1ZM20 1L20 2L18 2L18 5L16 5L16 6L15 6L15 5L14 5L14 6L13 6L13 7L14 7L14 6L15 6L15 9L16 9L16 10L18 10L18 8L19 8L19 9L20 9L20 10L21 10L21 11L20 11L20 12L21 12L21 13L20 13L20 18L18 18L18 15L19 15L19 13L18 13L18 15L15 15L15 17L14 17L14 15L13 15L13 17L10 17L10 18L9 18L9 16L10 16L10 15L6 15L6 16L8 16L8 18L7 18L7 19L3 19L3 20L5 20L5 22L4 22L4 24L5 24L5 22L9 22L9 21L10 21L10 20L9 20L9 19L10 19L10 18L11 18L11 19L13 19L13 18L15 18L15 17L16 17L16 18L17 18L17 22L16 22L16 23L17 23L17 25L16 25L16 26L14 26L14 24L15 24L15 21L14 21L14 23L13 23L13 26L12 26L12 22L13 22L13 21L12 21L12 22L10 22L10 23L9 23L9 25L8 25L8 26L9 26L9 27L11 27L11 28L9 28L9 30L10 30L10 29L12 29L12 30L13 30L13 33L12 33L12 31L10 31L10 32L9 32L9 31L5 31L5 32L4 32L4 33L3 33L3 34L5 34L5 32L8 32L8 33L6 33L6 34L7 34L7 35L5 35L5 36L4 36L4 35L3 35L3 38L4 38L4 39L2 39L2 41L3 41L3 42L5 42L5 43L6 43L6 44L7 44L7 43L8 43L8 42L7 42L7 41L9 41L9 42L11 42L11 43L12 43L12 45L11 45L11 44L9 44L9 45L3 45L3 47L5 47L5 46L9 46L9 47L8 47L8 48L9 48L9 47L10 47L10 48L12 48L12 49L11 49L11 50L12 50L12 49L14 49L14 48L13 48L13 47L14 47L14 46L15 46L15 47L16 47L16 48L15 48L15 49L16 49L16 50L15 50L15 51L16 51L16 52L17 52L17 53L18 53L18 51L16 51L16 50L17 50L17 49L18 49L18 48L17 48L17 47L16 47L16 46L17 46L17 45L16 45L16 43L17 43L17 41L18 41L18 40L19 40L19 37L18 37L18 36L19 36L19 34L20 34L20 36L21 36L21 38L20 38L20 39L21 39L21 38L22 38L22 40L21 40L21 41L20 41L20 42L19 42L19 43L18 43L18 44L19 44L19 43L20 43L20 44L21 44L21 45L20 45L20 46L19 46L19 45L18 45L18 46L19 46L19 47L20 47L20 48L21 48L21 47L20 47L20 46L22 46L22 48L23 48L23 49L24 49L24 51L23 51L23 52L24 52L24 51L25 51L25 53L26 53L26 48L27 48L27 47L28 47L28 48L31 48L31 52L32 52L32 48L31 48L31 47L32 47L32 46L33 46L33 45L32 45L32 46L31 46L31 47L30 47L30 46L29 46L29 45L28 45L28 46L26 46L26 45L25 45L25 44L24 44L24 43L25 43L25 42L26 42L26 41L25 41L25 40L26 40L26 39L27 39L27 40L28 40L28 43L30 43L30 45L31 45L31 43L32 43L32 40L33 40L33 41L34 41L34 42L35 42L35 41L36 41L36 44L37 44L37 43L40 43L40 42L41 42L41 45L42 45L42 47L41 47L41 49L40 49L40 51L41 51L41 52L42 52L42 51L41 51L41 49L42 49L42 50L44 50L44 51L45 51L45 52L46 52L46 50L47 50L47 49L46 49L46 48L45 48L45 49L44 49L44 47L45 47L45 45L44 45L44 44L45 44L45 43L44 43L44 42L45 42L45 41L44 41L44 39L43 39L43 38L44 38L44 35L43 35L43 33L42 33L42 31L44 31L44 30L46 30L46 31L47 31L47 30L48 30L48 29L47 29L47 28L46 28L46 29L44 29L44 28L42 28L42 31L41 31L41 30L40 30L40 28L41 28L41 27L43 27L43 26L44 26L44 27L45 27L45 26L44 26L44 24L46 24L46 23L48 23L48 22L50 22L50 23L51 23L51 22L52 22L52 24L51 24L51 25L50 25L50 24L49 24L49 25L48 25L48 24L47 24L47 25L46 25L46 26L47 26L47 25L48 25L48 26L49 26L49 25L50 25L50 26L51 26L51 25L52 25L52 26L53 26L53 25L54 25L54 24L53 24L53 22L52 22L52 20L53 20L53 19L54 19L54 17L53 17L53 18L52 18L52 15L51 15L51 14L52 14L52 13L50 13L50 11L51 11L51 12L52 12L52 9L50 9L50 11L48 11L48 10L47 10L47 7L46 7L46 6L45 6L45 5L44 5L44 4L45 4L45 1L42 1L42 2L40 2L40 1L39 1L39 2L40 2L40 4L39 4L39 5L38 5L38 3L37 3L37 2L34 2L34 4L35 4L35 9L34 9L34 10L33 10L33 9L32 9L32 8L34 8L34 6L33 6L33 2L32 2L32 5L31 5L31 9L30 9L30 10L29 10L29 12L30 12L30 13L29 13L29 15L28 15L28 14L25 14L25 12L22 12L22 11L23 11L23 9L22 9L22 8L25 8L25 9L24 9L24 11L26 11L26 13L27 13L27 12L28 12L28 9L27 9L27 10L25 10L25 9L26 9L26 5L24 5L24 6L23 6L23 1ZM24 1L24 4L25 4L25 1ZM46 1L46 2L47 2L47 1ZM20 2L20 3L21 3L21 5L20 5L20 7L19 7L19 5L18 5L18 7L17 7L17 6L16 6L16 7L17 7L17 8L18 8L18 7L19 7L19 8L20 8L20 9L21 9L21 6L22 6L22 7L23 7L23 6L22 6L22 2ZM43 2L43 3L42 3L42 5L43 5L43 6L42 6L42 7L41 7L41 6L40 6L40 7L39 7L39 6L38 6L38 8L37 8L37 6L36 6L36 10L34 10L34 11L33 11L33 12L32 12L32 9L31 9L31 10L30 10L30 12L32 12L32 13L31 13L31 15L32 15L32 18L31 18L31 19L29 19L29 20L28 20L28 19L27 19L27 20L26 20L26 18L24 18L24 15L25 15L25 16L26 16L26 17L27 17L27 16L26 16L26 15L25 15L25 14L24 14L24 15L23 15L23 16L22 16L22 14L21 14L21 18L20 18L20 19L22 19L22 18L23 18L23 20L22 20L22 21L23 21L23 23L22 23L22 22L20 22L20 23L22 23L22 26L20 26L20 27L18 27L18 28L20 28L20 27L21 27L21 30L20 30L20 29L19 29L19 30L18 30L18 31L17 31L17 30L15 30L15 28L16 28L16 27L15 27L15 28L14 28L14 27L12 27L12 28L14 28L14 29L13 29L13 30L14 30L14 31L15 31L15 32L14 32L14 35L13 35L13 34L12 34L12 33L11 33L11 32L10 32L10 33L11 33L11 34L9 34L9 35L13 35L13 36L14 36L14 35L15 35L15 36L16 36L16 37L17 37L17 38L16 38L16 39L17 39L17 40L13 40L13 38L11 38L11 37L12 37L12 36L8 36L8 35L7 35L7 36L5 36L5 38L6 38L6 39L4 39L4 40L3 40L3 41L4 41L4 40L5 40L5 41L7 41L7 40L6 40L6 39L7 39L7 38L8 38L8 40L9 40L9 41L10 41L10 39L11 39L11 40L12 40L12 41L14 41L14 42L13 42L13 43L14 43L14 44L13 44L13 46L14 46L14 45L15 45L15 46L16 46L16 45L15 45L15 43L16 43L16 41L17 41L17 40L18 40L18 37L17 37L17 36L16 36L16 35L18 35L18 34L19 34L19 32L20 32L20 31L21 31L21 30L22 30L22 33L23 33L23 35L25 35L25 36L24 36L24 37L26 37L26 38L24 38L24 39L26 39L26 38L27 38L27 37L26 37L26 35L25 35L25 34L24 34L24 32L23 32L23 31L25 31L25 30L26 30L26 34L28 34L28 35L27 35L27 36L28 36L28 37L29 37L29 36L28 36L28 35L31 35L31 36L30 36L30 40L29 40L29 42L30 42L30 43L31 43L31 42L30 42L30 40L31 40L31 38L33 38L33 39L34 39L34 41L35 41L35 38L36 38L36 41L37 41L37 42L38 42L38 41L39 41L39 38L40 38L40 39L42 39L42 37L43 37L43 35L42 35L42 36L41 36L41 35L40 35L40 36L38 36L38 35L39 35L39 34L38 34L38 33L39 33L39 32L40 32L40 34L42 34L42 33L41 33L41 32L40 32L40 30L39 30L39 31L38 31L38 30L37 30L37 28L38 28L38 29L39 29L39 27L40 27L40 26L41 26L41 24L42 24L42 25L43 25L43 24L42 24L42 21L43 21L43 22L44 22L44 23L45 23L45 22L46 22L46 21L47 21L47 22L48 22L48 21L49 21L49 20L51 20L51 18L50 18L50 17L51 17L51 15L50 15L50 13L49 13L49 14L48 14L48 11L46 11L46 13L45 13L45 12L44 12L44 13L43 13L43 14L44 14L44 15L43 15L43 16L44 16L44 17L43 17L43 18L42 18L42 17L41 17L41 15L42 15L42 12L43 12L43 10L42 10L42 9L43 9L43 8L42 8L42 7L43 7L43 6L44 6L44 7L45 7L45 6L44 6L44 5L43 5L43 4L44 4L44 2ZM16 3L16 4L17 4L17 3ZM26 3L26 4L27 4L27 3ZM35 3L35 4L36 4L36 3ZM46 3L46 5L47 5L47 3ZM27 5L27 8L30 8L30 5ZM24 6L24 7L25 7L25 6ZM28 6L28 7L29 7L29 6ZM32 6L32 7L33 7L33 6ZM40 7L40 8L38 8L38 10L40 10L40 11L41 11L41 12L42 12L42 11L41 11L41 10L40 10L40 8L41 8L41 7ZM5 8L5 9L7 9L7 8ZM13 8L13 9L14 9L14 8ZM44 8L44 10L46 10L46 9L45 9L45 8ZM2 10L2 11L3 11L3 10ZM18 11L18 12L19 12L19 11ZM34 11L34 12L35 12L35 13L34 13L34 15L33 15L33 13L32 13L32 15L33 15L33 17L34 17L34 18L33 18L33 20L35 20L35 21L34 21L34 22L35 22L35 23L36 23L36 24L34 24L34 23L33 23L33 24L34 24L34 26L33 26L33 25L32 25L32 23L31 23L31 22L33 22L33 21L32 21L32 20L30 20L30 23L29 23L29 21L28 21L28 20L27 20L27 21L28 21L28 22L26 22L26 23L28 23L28 24L27 24L27 25L26 25L26 26L27 26L27 25L28 25L28 24L30 24L30 26L31 26L31 25L32 25L32 28L31 28L31 29L32 29L32 30L31 30L31 31L32 31L32 32L30 32L30 31L28 31L28 32L27 32L27 33L28 33L28 34L29 34L29 32L30 32L30 34L31 34L31 33L32 33L32 35L35 35L35 36L33 36L33 37L34 37L34 38L35 38L35 37L36 37L36 38L37 38L37 41L38 41L38 38L39 38L39 37L38 37L38 38L37 38L37 37L36 37L36 35L38 35L38 34L37 34L37 33L36 33L36 31L37 31L37 32L38 32L38 31L37 31L37 30L36 30L36 27L37 27L37 26L36 26L36 24L37 24L37 25L38 25L38 26L40 26L40 23L41 23L41 22L40 22L40 19L41 19L41 18L40 18L40 15L41 15L41 13L40 13L40 14L39 14L39 12L37 12L37 11L36 11L36 12L35 12L35 11ZM54 11L54 12L53 12L53 13L55 13L55 11ZM36 12L36 13L35 13L35 14L36 14L36 13L37 13L37 15L36 15L36 18L34 18L34 19L35 19L35 20L36 20L36 21L35 21L35 22L36 22L36 23L39 23L39 22L38 22L38 21L39 21L39 19L40 19L40 18L38 18L38 16L37 16L37 15L38 15L38 13L37 13L37 12ZM46 13L46 16L47 16L47 15L48 15L48 14L47 14L47 13ZM29 15L29 16L30 16L30 17L28 17L28 18L30 18L30 17L31 17L31 16L30 16L30 15ZM34 15L34 17L35 17L35 15ZM44 15L44 16L45 16L45 15ZM48 16L48 19L45 19L45 17L44 17L44 19L42 19L42 20L43 20L43 21L44 21L44 22L45 22L45 21L46 21L46 20L47 20L47 21L48 21L48 19L49 19L49 17L50 17L50 16ZM46 17L46 18L47 18L47 17ZM8 18L8 19L9 19L9 18ZM36 18L36 19L37 19L37 18ZM14 19L14 20L16 20L16 19ZM18 19L18 22L17 22L17 23L18 23L18 25L19 25L19 23L18 23L18 22L19 22L19 19ZM24 19L24 20L25 20L25 19ZM44 19L44 21L45 21L45 19ZM6 20L6 21L9 21L9 20ZM20 20L20 21L21 21L21 20ZM37 20L37 21L36 21L36 22L37 22L37 21L38 21L38 20ZM24 22L24 23L25 23L25 22ZM6 23L6 24L7 24L7 23ZM10 23L10 25L9 25L9 26L10 26L10 25L11 25L11 23ZM30 23L30 24L31 24L31 23ZM52 24L52 25L53 25L53 24ZM6 25L6 26L7 26L7 25ZM24 25L24 26L23 26L23 27L22 27L22 28L23 28L23 29L22 29L22 30L23 30L23 29L24 29L24 30L25 30L25 29L24 29L24 27L25 27L25 25ZM2 26L2 28L3 28L3 26ZM5 27L5 30L8 30L8 27ZM27 27L27 30L30 30L30 27ZM34 27L34 29L33 29L33 28L32 28L32 29L33 29L33 30L32 30L32 31L34 31L34 29L35 29L35 27ZM49 27L49 30L52 30L52 27ZM6 28L6 29L7 29L7 28ZM28 28L28 29L29 29L29 28ZM50 28L50 29L51 29L51 28ZM43 29L43 30L44 30L44 29ZM55 29L55 30L56 30L56 31L55 31L55 33L56 33L56 35L57 35L57 33L56 33L56 31L57 31L57 29ZM19 30L19 31L20 31L20 30ZM35 30L35 31L36 31L36 30ZM16 31L16 34L17 34L17 31ZM32 32L32 33L34 33L34 32ZM45 32L45 33L46 33L46 34L48 34L48 33L47 33L47 32ZM35 33L35 35L36 35L36 33ZM49 33L49 36L48 36L48 37L46 37L46 35L45 35L45 37L46 37L46 38L45 38L45 39L46 39L46 38L47 38L47 40L46 40L46 43L48 43L48 42L49 42L49 44L48 44L48 45L49 45L49 48L53 48L53 49L54 49L54 50L53 50L53 51L54 51L54 52L55 52L55 49L54 49L54 48L55 48L55 47L54 47L54 46L53 46L53 45L52 45L52 47L50 47L50 42L49 42L49 41L51 41L51 40L52 40L52 44L53 44L53 39L52 39L52 38L53 38L53 37L54 37L54 38L55 38L55 37L54 37L54 36L53 36L53 37L52 37L52 38L51 38L51 40L50 40L50 37L51 37L51 36L50 36L50 33ZM21 35L21 36L22 36L22 37L23 37L23 36L22 36L22 35ZM31 36L31 37L32 37L32 36ZM1 37L1 38L2 38L2 37ZM6 37L6 38L7 38L7 37ZM8 37L8 38L9 38L9 39L10 39L10 38L9 38L9 37ZM14 37L14 38L15 38L15 37ZM28 38L28 39L29 39L29 38ZM48 38L48 40L47 40L47 41L48 41L48 40L49 40L49 38ZM22 40L22 41L23 41L23 43L22 43L22 44L23 44L23 43L24 43L24 40ZM40 40L40 41L41 41L41 42L42 42L42 43L43 43L43 44L42 44L42 45L43 45L43 46L44 46L44 45L43 45L43 44L44 44L44 43L43 43L43 42L42 42L42 41L41 41L41 40ZM55 40L55 41L57 41L57 40ZM6 42L6 43L7 43L7 42ZM14 42L14 43L15 43L15 42ZM56 42L56 43L57 43L57 42ZM46 44L46 47L47 47L47 44ZM10 45L10 47L11 47L11 45ZM23 45L23 47L25 47L25 48L26 48L26 46L24 46L24 45ZM28 46L28 47L29 47L29 46ZM53 47L53 48L54 48L54 47ZM16 48L16 49L17 49L17 48ZM27 49L27 52L30 52L30 49ZM45 49L45 50L46 50L46 49ZM49 49L49 52L52 52L52 49ZM13 50L13 51L14 51L14 50ZM28 50L28 51L29 51L29 50ZM50 50L50 51L51 51L51 50ZM8 51L8 52L9 52L9 51ZM34 51L34 52L33 52L33 53L34 53L34 54L35 54L35 53L36 53L36 54L37 54L37 53L36 53L36 52L35 52L35 51ZM47 51L47 52L48 52L48 51ZM27 53L27 55L28 55L28 53ZM31 53L31 54L30 54L30 55L33 55L33 54L32 54L32 53ZM48 53L48 54L49 54L49 53ZM16 54L16 55L17 55L17 54ZM20 54L20 55L21 55L21 54ZM45 55L45 56L46 56L46 55ZM20 56L20 57L21 57L21 56ZM36 56L36 57L37 57L37 56ZM51 56L51 57L53 57L53 56ZM56 56L56 57L57 57L57 56ZM0 0L0 7L7 7L7 0ZM1 1L1 6L6 6L6 1ZM2 2L2 5L5 5L5 2ZM50 0L50 7L57 7L57 0ZM51 1L51 6L56 6L56 1ZM52 2L52 5L55 5L55 2ZM0 50L0 57L7 57L7 50ZM1 51L1 56L6 56L6 51ZM2 52L2 55L5 55L5 52Z" fill="#000000"/></g></g></svg>
