<?xml version="1.0" encoding="UTF-8"?>
<svg xmlns="http://www.w3.org/2000/svg" version="1.1" width="300" height="300" viewBox="0 0 300 300"><rect x="0" y="0" width="300" height="300" fill="#fefefe"/><g transform="scale(4.615)"><g transform="translate(4,4)"><path fill-rule="evenodd" d="M8 0L8 4L10 4L10 3L9 3L9 1L10 1L10 2L11 2L11 4L12 4L12 5L10 5L10 7L9 7L9 5L8 5L8 7L9 7L9 11L11 11L11 10L10 10L10 7L11 7L11 6L12 6L12 7L13 7L13 8L14 8L14 10L13 10L13 11L14 11L14 12L15 12L15 13L13 13L13 12L12 12L12 14L11 14L11 15L10 15L10 14L9 14L9 13L11 13L11 12L9 12L9 13L8 13L8 12L6 12L6 11L7 11L7 10L8 10L8 9L7 9L7 8L4 8L4 9L3 9L3 12L5 12L5 13L7 13L7 14L5 14L5 15L7 15L7 14L8 14L8 16L6 16L6 17L4 17L4 19L5 19L5 18L6 18L6 19L8 19L8 20L9 20L9 17L10 17L10 21L9 21L9 23L8 23L8 21L7 21L7 20L4 20L4 21L7 21L7 22L4 22L4 23L8 23L8 25L10 25L10 26L4 26L4 24L3 24L3 23L2 23L2 22L3 22L3 20L2 20L2 19L3 19L3 18L2 18L2 17L3 17L3 14L4 14L4 13L3 13L3 14L2 14L2 13L1 13L1 16L0 16L0 17L1 17L1 18L2 18L2 19L1 19L1 20L2 20L2 22L1 22L1 21L0 21L0 22L1 22L1 24L0 24L0 25L1 25L1 28L0 28L0 29L1 29L1 30L0 30L0 36L1 36L1 34L2 34L2 35L3 35L3 36L2 36L2 37L3 37L3 38L2 38L2 39L1 39L1 37L0 37L0 41L1 41L1 40L2 40L2 39L3 39L3 38L4 38L4 39L5 39L5 37L7 37L7 38L6 38L6 39L7 39L7 40L6 40L6 41L5 41L5 40L3 40L3 41L4 41L4 42L3 42L3 43L4 43L4 45L3 45L3 44L1 44L1 43L2 43L2 42L1 42L1 43L0 43L0 44L1 44L1 46L0 46L0 48L5 48L5 47L8 47L8 48L6 48L6 49L8 49L8 50L9 50L9 47L8 47L8 46L11 46L11 45L12 45L12 47L13 47L13 48L12 48L12 50L11 50L11 47L10 47L10 51L8 51L8 53L9 53L9 54L10 54L10 55L11 55L11 56L9 56L9 55L8 55L8 57L14 57L14 54L15 54L15 55L16 55L16 54L17 54L17 55L20 55L20 54L21 54L21 55L22 55L22 56L20 56L20 57L22 57L22 56L23 56L23 55L24 55L24 57L25 57L25 54L24 54L24 53L25 53L25 49L24 49L24 46L26 46L26 47L27 47L27 48L26 48L26 53L28 53L28 57L29 57L29 55L30 55L30 57L34 57L34 55L35 55L35 57L37 57L37 56L36 56L36 54L37 54L37 53L38 53L38 55L39 55L39 57L40 57L40 54L41 54L41 55L42 55L42 56L41 56L41 57L43 57L43 55L44 55L44 53L45 53L45 54L46 54L46 56L44 56L44 57L47 57L47 54L46 54L46 53L47 53L47 52L48 52L48 54L49 54L49 57L50 57L50 55L51 55L51 56L53 56L53 57L54 57L54 55L55 55L55 54L57 54L57 53L55 53L55 52L57 52L57 51L56 51L56 50L57 50L57 49L56 49L56 45L57 45L57 43L56 43L56 42L57 42L57 40L55 40L55 41L53 41L53 39L54 39L54 38L55 38L55 39L57 39L57 38L55 38L55 37L56 37L56 36L53 36L53 35L56 35L56 34L57 34L57 33L56 33L56 30L55 30L55 32L54 32L54 34L53 34L53 35L50 35L50 32L51 32L51 33L53 33L53 30L54 30L54 28L53 28L53 27L54 27L54 26L55 26L55 27L56 27L56 28L55 28L55 29L56 29L56 28L57 28L57 27L56 27L56 25L57 25L57 24L56 24L56 21L57 21L57 20L56 20L56 18L55 18L55 20L56 20L56 21L55 21L55 24L53 24L53 23L52 23L52 22L54 22L54 21L52 21L52 20L53 20L53 19L49 19L49 17L50 17L50 18L51 18L51 17L52 17L52 18L53 18L53 17L52 17L52 16L53 16L53 15L52 15L52 14L53 14L53 13L54 13L54 12L53 12L53 13L52 13L52 14L51 14L51 12L52 12L52 11L54 11L54 10L53 10L53 9L55 9L55 16L54 16L54 17L55 17L55 16L56 16L56 17L57 17L57 15L56 15L56 10L57 10L57 8L53 8L53 9L52 9L52 8L51 8L51 9L50 9L50 10L51 10L51 11L50 11L50 15L48 15L48 17L47 17L47 15L46 15L46 11L45 11L45 10L44 10L44 9L46 9L46 8L44 8L44 7L45 7L45 6L46 6L46 7L47 7L47 5L48 5L48 0L41 0L41 1L40 1L40 2L38 2L38 1L39 1L39 0L38 0L38 1L37 1L37 2L36 2L36 0L35 0L35 1L34 1L34 0L33 0L33 1L34 1L34 2L36 2L36 3L37 3L37 4L38 4L38 7L37 7L37 5L36 5L36 4L35 4L35 3L34 3L34 4L35 4L35 5L32 5L32 3L33 3L33 2L32 2L32 3L31 3L31 4L30 4L30 3L28 3L28 4L26 4L26 3L25 3L25 1L27 1L27 2L30 2L30 1L32 1L32 0L29 0L29 1L28 1L28 0L23 0L23 2L22 2L22 1L21 1L21 0L20 0L20 2L19 2L19 1L18 1L18 2L17 2L17 3L16 3L16 0L13 0L13 2L12 2L12 0L11 0L11 1L10 1L10 0ZM14 1L14 4L15 4L15 5L12 5L12 6L13 6L13 7L14 7L14 8L15 8L15 9L16 9L16 11L15 11L15 12L16 12L16 11L17 11L17 13L15 13L15 14L17 14L17 15L18 15L18 14L17 14L17 13L18 13L18 12L19 12L19 16L20 16L20 17L19 17L19 18L17 18L17 17L16 17L16 18L12 18L12 17L14 17L14 14L12 14L12 15L11 15L11 18L12 18L12 19L14 19L14 20L15 20L15 21L17 21L17 20L18 20L18 19L19 19L19 18L20 18L20 19L21 19L21 18L20 18L20 17L25 17L25 16L24 16L24 15L26 15L26 17L27 17L27 18L26 18L26 20L25 20L25 18L24 18L24 19L22 19L22 21L21 21L21 22L20 22L20 23L19 23L19 24L20 24L20 25L19 25L19 28L18 28L18 29L15 29L15 30L18 30L18 31L19 31L19 32L20 32L20 33L18 33L18 32L16 32L16 31L14 31L14 28L16 28L16 27L14 27L14 26L13 26L13 28L12 28L12 29L11 29L11 32L12 32L12 34L13 34L13 35L12 35L12 36L13 36L13 38L12 38L12 37L10 37L10 36L11 36L11 35L10 35L10 34L11 34L11 33L9 33L9 32L8 32L8 33L5 33L5 34L7 34L7 35L4 35L4 34L3 34L3 35L4 35L4 36L3 36L3 37L5 37L5 36L7 36L7 35L8 35L8 37L10 37L10 38L9 38L9 39L12 39L12 40L13 40L13 42L14 42L14 43L12 43L12 41L11 41L11 42L8 42L8 43L6 43L6 42L7 42L7 41L9 41L9 40L7 40L7 41L6 41L6 42L5 42L5 43L6 43L6 44L5 44L5 45L4 45L4 46L3 46L3 47L5 47L5 46L8 46L8 45L11 45L11 44L8 44L8 43L12 43L12 45L13 45L13 47L14 47L14 48L15 48L15 49L13 49L13 50L12 50L12 51L13 51L13 52L12 52L12 54L11 54L11 55L13 55L13 54L14 54L14 53L13 53L13 52L14 52L14 51L15 51L15 53L17 53L17 51L16 51L16 50L18 50L18 52L19 52L19 53L20 53L20 52L19 52L19 50L20 50L20 51L21 51L21 50L22 50L22 49L23 49L23 48L22 48L22 47L23 47L23 46L24 46L24 45L25 45L25 44L24 44L24 45L21 45L21 43L22 43L22 44L23 44L23 41L25 41L25 40L27 40L27 39L28 39L28 38L29 38L29 39L31 39L31 40L28 40L28 43L27 43L27 41L26 41L26 42L25 42L25 43L27 43L27 44L28 44L28 46L27 46L27 45L26 45L26 46L27 46L27 47L28 47L28 48L29 48L29 47L30 47L30 48L31 48L31 49L32 49L32 51L31 51L31 52L32 52L32 51L33 51L33 53L32 53L32 54L33 54L33 55L34 55L34 54L35 54L35 52L36 52L36 49L35 49L35 48L34 48L34 47L35 47L35 45L34 45L34 47L33 47L33 46L32 46L32 45L31 45L31 42L29 42L29 41L32 41L32 43L33 43L33 44L35 44L35 43L33 43L33 41L32 41L32 40L33 40L33 39L34 39L34 42L35 42L35 39L37 39L37 42L38 42L38 39L39 39L39 40L40 40L40 42L39 42L39 43L41 43L41 40L40 40L40 38L38 38L38 37L41 37L41 35L42 35L42 37L44 37L44 38L43 38L43 39L42 39L42 38L41 38L41 39L42 39L42 40L43 40L43 39L45 39L45 37L46 37L46 38L47 38L47 39L46 39L46 40L45 40L45 41L46 41L46 42L45 42L45 45L46 45L46 47L45 47L45 46L44 46L44 47L42 47L42 49L43 49L43 50L42 50L42 51L43 51L43 50L44 50L44 51L45 51L45 52L47 52L47 51L46 51L46 50L47 50L47 49L48 49L48 47L49 47L49 48L50 48L50 47L52 47L52 48L55 48L55 47L54 47L54 46L53 46L53 45L51 45L51 44L52 44L52 43L53 43L53 44L54 44L54 45L56 45L56 44L55 44L55 42L56 42L56 41L55 41L55 42L54 42L54 43L53 43L53 41L52 41L52 38L53 38L53 36L51 36L51 37L50 37L50 35L49 35L49 36L48 36L48 35L47 35L47 34L49 34L49 33L48 33L48 31L47 31L47 29L48 29L48 27L46 27L46 26L47 26L47 25L48 25L48 24L46 24L46 23L47 23L47 21L48 21L48 20L46 20L46 21L45 21L45 22L44 22L44 16L46 16L46 15L44 15L44 16L43 16L43 15L42 15L42 17L43 17L43 18L42 18L42 19L43 19L43 20L41 20L41 18L40 18L40 17L41 17L41 13L44 13L44 12L45 12L45 11L44 11L44 10L41 10L41 9L42 9L42 8L43 8L43 9L44 9L44 8L43 8L43 7L44 7L44 4L45 4L45 5L47 5L47 3L44 3L44 2L43 2L43 3L42 3L42 2L40 2L40 3L38 3L38 2L37 2L37 3L38 3L38 4L40 4L40 3L41 3L41 4L43 4L43 5L42 5L42 6L41 6L41 5L39 5L39 7L40 7L40 6L41 6L41 8L40 8L40 13L39 13L39 12L37 12L37 11L38 11L38 9L39 9L39 8L38 8L38 9L35 9L35 7L36 7L36 5L35 5L35 7L34 7L34 6L33 6L33 7L32 7L32 6L31 6L31 10L29 10L29 11L28 11L28 9L26 9L26 6L25 6L25 7L24 7L24 6L23 6L23 7L22 7L22 5L24 5L24 4L25 4L25 3L23 3L23 4L22 4L22 3L21 3L21 2L20 2L20 3L17 3L17 4L16 4L16 3L15 3L15 1ZM46 1L46 2L47 2L47 1ZM12 3L12 4L13 4L13 3ZM43 3L43 4L44 4L44 3ZM17 4L17 6L16 6L16 5L15 5L15 6L14 6L14 7L15 7L15 8L16 8L16 9L20 9L20 10L19 10L19 11L20 11L20 15L22 15L22 16L23 16L23 15L22 15L22 14L21 14L21 13L23 13L23 14L26 14L26 15L27 15L27 17L28 17L28 18L30 18L30 19L27 19L27 20L26 20L26 21L27 21L27 22L26 22L26 23L25 23L25 22L24 22L24 21L25 21L25 20L24 20L24 21L23 21L23 23L22 23L22 22L21 22L21 23L22 23L22 24L23 24L23 25L20 25L20 27L22 27L22 28L24 28L24 29L23 29L23 30L22 30L22 29L21 29L21 28L19 28L19 29L18 29L18 30L19 30L19 31L20 31L20 30L22 30L22 31L21 31L21 33L20 33L20 35L19 35L19 36L18 36L18 33L17 33L17 34L16 34L16 32L15 32L15 34L14 34L14 32L13 32L13 31L12 31L12 32L13 32L13 34L14 34L14 38L13 38L13 39L14 39L14 42L16 42L16 40L17 40L17 41L19 41L19 40L20 40L20 42L22 42L22 40L24 40L24 39L23 39L23 37L24 37L24 38L25 38L25 39L27 39L27 38L26 38L26 37L28 37L28 36L29 36L29 37L31 37L31 36L32 36L32 37L33 37L33 38L31 38L31 39L33 39L33 38L34 38L34 39L35 39L35 38L37 38L37 39L38 39L38 38L37 38L37 37L38 37L38 36L40 36L40 35L38 35L38 34L39 34L39 33L40 33L40 34L42 34L42 35L44 35L44 37L45 37L45 36L46 36L46 37L47 37L47 35L46 35L46 33L45 33L45 32L46 32L46 30L45 30L45 27L44 27L44 29L41 29L41 30L40 30L40 32L39 32L39 29L40 29L40 27L41 27L41 25L42 25L42 28L43 28L43 26L46 26L46 25L45 25L45 24L44 24L44 22L43 22L43 21L40 21L40 18L39 18L39 17L40 17L40 15L39 15L39 13L38 13L38 15L39 15L39 17L38 17L38 16L37 16L37 14L35 14L35 17L38 17L38 18L39 18L39 19L38 19L38 20L37 20L37 18L34 18L34 13L33 13L33 12L32 12L32 13L30 13L30 15L32 15L32 17L31 17L31 16L29 16L29 13L27 13L27 14L26 14L26 11L27 11L27 12L28 12L28 11L27 11L27 10L25 10L25 9L24 9L24 7L23 7L23 10L25 10L25 11L23 11L23 12L22 12L22 11L20 11L20 10L21 10L21 9L22 9L22 7L21 7L21 6L20 6L20 5L19 5L19 4ZM21 4L21 5L22 5L22 4ZM18 5L18 6L17 6L17 8L19 8L19 7L20 7L20 6L19 6L19 5ZM27 5L27 8L30 8L30 5ZM15 6L15 7L16 7L16 6ZM18 6L18 7L19 7L19 6ZM28 6L28 7L29 7L29 6ZM42 6L42 7L43 7L43 6ZM48 6L48 7L49 7L49 6ZM33 7L33 8L32 8L32 11L33 11L33 10L34 10L34 12L35 12L35 13L37 13L37 12L36 12L36 10L34 10L34 9L33 9L33 8L34 8L34 7ZM0 8L0 9L2 9L2 8ZM47 8L47 10L48 10L48 11L49 11L49 9L48 9L48 8ZM6 9L6 10L5 10L5 11L6 11L6 10L7 10L7 9ZM51 9L51 10L52 10L52 9ZM1 10L1 11L2 11L2 10ZM17 10L17 11L18 11L18 10ZM29 11L29 12L31 12L31 11ZM41 11L41 12L43 12L43 11ZM32 13L32 14L33 14L33 13ZM47 13L47 14L49 14L49 13ZM27 14L27 15L28 15L28 14ZM9 15L9 16L8 16L8 17L9 17L9 16L10 16L10 15ZM12 15L12 16L13 16L13 15ZM50 15L50 16L52 16L52 15ZM6 17L6 18L7 18L7 17ZM32 17L32 19L34 19L34 18L33 18L33 17ZM46 17L46 18L45 18L45 19L47 19L47 17ZM16 18L16 19L15 19L15 20L17 20L17 18ZM30 19L30 20L28 20L28 21L30 21L30 20L31 20L31 21L32 21L32 20L31 20L31 19ZM35 19L35 20L36 20L36 19ZM19 20L19 21L18 21L18 22L19 22L19 21L20 21L20 20ZM38 20L38 21L37 21L37 22L35 22L35 21L34 21L34 22L35 22L35 23L34 23L34 24L33 24L33 25L34 25L34 26L33 26L33 27L32 27L32 23L33 23L33 22L31 22L31 23L30 23L30 22L29 22L29 24L28 24L28 25L27 25L27 26L29 26L29 25L31 25L31 30L32 30L32 32L29 32L29 33L28 33L28 34L27 34L27 35L26 35L26 34L24 34L24 36L25 36L25 35L26 35L26 36L28 36L28 34L29 34L29 33L32 33L32 34L33 34L33 33L34 33L34 34L35 34L35 33L34 33L34 32L35 32L35 31L36 31L36 30L37 30L37 32L38 32L38 30L37 30L37 29L38 29L38 28L37 28L37 29L35 29L35 27L36 27L36 26L37 26L37 27L39 27L39 26L40 26L40 25L41 25L41 22L40 22L40 21L39 21L39 20ZM49 20L49 21L51 21L51 22L52 22L52 21L51 21L51 20ZM11 21L11 22L10 22L10 25L15 25L15 24L16 24L16 26L17 26L17 27L18 27L18 25L17 25L17 22L16 22L16 23L14 23L14 21ZM38 21L38 26L39 26L39 25L40 25L40 23L39 23L39 21ZM27 22L27 23L28 23L28 22ZM49 22L49 24L50 24L50 22ZM11 23L11 24L12 24L12 23ZM13 23L13 24L14 24L14 23ZM23 23L23 24L24 24L24 23ZM42 23L42 24L43 24L43 25L44 25L44 24L43 24L43 23ZM51 23L51 24L52 24L52 26L53 26L53 24L52 24L52 23ZM2 24L2 28L1 28L1 29L2 29L2 30L1 30L1 32L2 32L2 33L4 33L4 32L5 32L5 31L4 31L4 30L3 30L3 28L4 28L4 26L3 26L3 24ZM5 24L5 25L7 25L7 24ZM34 24L34 25L37 25L37 24ZM55 24L55 25L56 25L56 24ZM25 25L25 27L26 27L26 25ZM49 25L49 26L50 26L50 25ZM10 26L10 27L12 27L12 26ZM23 26L23 27L24 27L24 26ZM5 27L5 30L8 30L8 27ZM27 27L27 30L30 30L30 27ZM33 27L33 28L32 28L32 30L33 30L33 32L32 32L32 33L33 33L33 32L34 32L34 27ZM49 27L49 30L52 30L52 27ZM6 28L6 29L7 29L7 28ZM28 28L28 29L29 29L29 28ZM46 28L46 29L47 29L47 28ZM50 28L50 29L51 29L51 28ZM19 29L19 30L20 30L20 29ZM25 29L25 30L23 30L23 31L22 31L22 33L21 33L21 36L22 36L22 37L18 37L18 36L17 36L17 35L15 35L15 36L16 36L16 37L15 37L15 38L14 38L14 39L16 39L16 38L17 38L17 37L18 37L18 39L20 39L20 38L21 38L21 40L22 40L22 37L23 37L23 33L25 33L25 32L26 32L26 33L27 33L27 32L28 32L28 31L27 31L27 32L26 32L26 31L25 31L25 30L26 30L26 29ZM2 30L2 32L3 32L3 30ZM9 30L9 31L10 31L10 30ZM44 30L44 31L45 31L45 30ZM6 31L6 32L7 32L7 31ZM23 31L23 32L24 32L24 31ZM49 31L49 32L50 32L50 31ZM40 32L40 33L41 33L41 32ZM37 33L37 34L38 34L38 33ZM43 33L43 34L44 34L44 35L45 35L45 34L44 34L44 33ZM55 33L55 34L56 34L56 33ZM30 34L30 36L31 36L31 34ZM9 35L9 36L10 36L10 35ZM33 35L33 36L35 36L35 35ZM37 35L37 36L38 36L38 35ZM34 37L34 38L35 38L35 37ZM49 37L49 38L48 38L48 39L47 39L47 40L46 40L46 41L47 41L47 40L49 40L49 39L50 39L50 40L51 40L51 39L50 39L50 37ZM51 37L51 38L52 38L52 37ZM7 38L7 39L8 39L8 38ZM43 41L43 42L42 42L42 44L43 44L43 45L44 45L44 43L43 43L43 42L44 42L44 41ZM48 41L48 43L47 43L47 42L46 42L46 43L47 43L47 44L46 44L46 45L47 45L47 46L48 46L48 45L47 45L47 44L49 44L49 43L50 43L50 44L51 44L51 43L52 43L52 41L51 41L51 43L50 43L50 42L49 42L49 41ZM17 42L17 43L18 43L18 42ZM19 43L19 44L18 44L18 45L17 45L17 46L16 46L16 44L13 44L13 45L15 45L15 46L14 46L14 47L15 47L15 46L16 46L16 49L15 49L15 50L16 50L16 49L18 49L18 50L19 50L19 49L20 49L20 50L21 50L21 49L22 49L22 48L20 48L20 47L22 47L22 46L21 46L21 45L19 45L19 44L20 44L20 43ZM36 43L36 44L37 44L37 46L38 46L38 45L39 45L39 44L37 44L37 43ZM6 44L6 45L7 45L7 44ZM40 44L40 46L39 46L39 47L38 47L38 49L37 49L37 52L38 52L38 53L39 53L39 52L40 52L40 53L42 53L42 52L41 52L41 44ZM49 45L49 47L50 47L50 46L51 46L51 45ZM1 46L1 47L2 47L2 46ZM17 46L17 47L18 47L18 48L19 48L19 46ZM28 46L28 47L29 47L29 46ZM52 46L52 47L53 47L53 46ZM32 47L32 49L33 49L33 51L34 51L34 52L35 52L35 50L34 50L34 48L33 48L33 47ZM36 47L36 48L37 48L37 47ZM39 47L39 49L38 49L38 52L39 52L39 51L40 51L40 47ZM46 47L46 48L44 48L44 50L46 50L46 48L47 48L47 47ZM27 49L27 52L30 52L30 49ZM49 49L49 52L52 52L52 49ZM55 49L55 50L56 50L56 49ZM13 50L13 51L14 51L14 50ZM28 50L28 51L29 51L29 50ZM50 50L50 51L51 51L51 50ZM53 50L53 55L54 55L54 54L55 54L55 53L54 53L54 52L55 52L55 51L54 51L54 50ZM10 51L10 52L9 52L9 53L10 53L10 52L11 52L11 51ZM22 51L22 55L23 55L23 53L24 53L24 52L23 52L23 51ZM43 52L43 53L44 53L44 52ZM30 53L30 54L31 54L31 53ZM33 53L33 54L34 54L34 53ZM49 53L49 54L51 54L51 55L52 55L52 54L51 54L51 53ZM26 54L26 57L27 57L27 54ZM42 54L42 55L43 55L43 54ZM17 56L17 57L19 57L19 56ZM56 56L56 57L57 57L57 56ZM0 0L0 7L7 7L7 0ZM1 1L1 6L6 6L6 1ZM2 2L2 5L5 5L5 2ZM50 0L50 7L57 7L57 0ZM51 1L51 6L56 6L56 1ZM52 2L52 5L55 5L55 2ZM0 50L0 57L7 57L7 50ZM1 51L1 56L6 56L6 51ZM2 52L2 55L5 55L5 52Z" fill="#000000"/></g></g></svg>
