<?xml version="1.0" encoding="UTF-8"?>
<svg xmlns="http://www.w3.org/2000/svg" version="1.1" width="300" height="300" viewBox="0 0 300 300"><rect x="0" y="0" width="300" height="300" fill="#fefefe"/><g transform="scale(4.615)"><g transform="translate(4,4)"><path fill-rule="evenodd" d="M9 0L9 1L8 1L8 2L9 2L9 3L8 3L8 4L9 4L9 5L8 5L8 7L9 7L9 5L10 5L10 7L11 7L11 8L10 8L10 11L9 11L9 10L8 10L8 9L9 9L9 8L6 8L6 9L7 9L7 10L5 10L5 11L7 11L7 12L6 12L6 13L5 13L5 12L4 12L4 9L5 9L5 8L0 8L0 11L2 11L2 10L3 10L3 12L2 12L2 13L0 13L0 15L1 15L1 14L2 14L2 17L0 17L0 18L2 18L2 19L1 19L1 20L2 20L2 21L1 21L1 22L0 22L0 25L1 25L1 26L0 26L0 27L1 27L1 26L2 26L2 29L3 29L3 28L4 28L4 31L3 31L3 30L1 30L1 28L0 28L0 30L1 30L1 31L0 31L0 32L2 32L2 33L0 33L0 34L1 34L1 35L0 35L0 37L1 37L1 35L2 35L2 38L1 38L1 39L0 39L0 41L1 41L1 42L2 42L2 41L1 41L1 40L3 40L3 43L4 43L4 41L7 41L7 42L6 42L6 43L8 43L8 44L6 44L6 45L7 45L7 46L5 46L5 45L4 45L4 44L1 44L1 45L0 45L0 48L5 48L5 47L8 47L8 48L6 48L6 49L8 49L8 51L9 51L9 49L10 49L10 51L13 51L13 53L12 53L12 52L11 52L11 53L10 53L10 52L8 52L8 57L11 57L11 56L12 56L12 57L16 57L16 56L17 56L17 57L20 57L20 56L19 56L19 55L20 55L20 54L17 54L17 53L20 53L20 52L21 52L21 50L22 50L22 51L23 51L23 50L25 50L25 51L26 51L26 52L24 52L24 53L21 53L21 54L22 54L22 55L21 55L21 56L23 56L23 57L26 57L26 56L27 56L27 57L29 57L29 56L30 56L30 57L31 57L31 56L35 56L35 57L39 57L39 56L41 56L41 57L44 57L44 56L41 56L41 54L42 54L42 55L44 55L44 54L46 54L46 55L45 55L45 57L49 57L49 56L50 56L50 57L52 57L52 55L51 55L51 53L52 53L52 54L53 54L53 57L54 57L54 56L55 56L55 57L56 57L56 56L55 56L55 53L57 53L57 51L56 51L56 50L57 50L57 48L56 48L56 46L57 46L57 45L56 45L56 46L55 46L55 45L54 45L54 44L55 44L55 43L56 43L56 44L57 44L57 43L56 43L56 41L55 41L55 39L57 39L57 35L56 35L56 33L57 33L57 32L56 32L56 30L57 30L57 29L56 29L56 27L55 27L55 26L57 26L57 25L56 25L56 22L57 22L57 21L56 21L56 20L57 20L57 19L56 19L56 16L57 16L57 15L56 15L56 14L57 14L57 13L56 13L56 14L53 14L53 13L54 13L54 12L55 12L55 11L56 11L56 8L55 8L55 10L54 10L54 11L53 11L53 10L52 10L52 11L50 11L50 12L49 12L49 10L50 10L50 8L48 8L48 9L47 9L47 8L46 8L46 7L47 7L47 5L48 5L48 0L46 0L46 1L45 1L45 2L44 2L44 3L43 3L43 4L40 4L40 5L39 5L39 6L38 6L38 9L37 9L37 8L35 8L35 5L36 5L36 7L37 7L37 5L38 5L38 4L37 4L37 3L38 3L38 2L39 2L39 3L41 3L41 2L43 2L43 0L41 0L41 1L40 1L40 0L39 0L39 1L38 1L38 0L37 0L37 1L38 1L38 2L37 2L37 3L36 3L36 0L35 0L35 1L33 1L33 2L32 2L32 1L31 1L31 0L29 0L29 1L30 1L30 2L28 2L28 3L30 3L30 4L26 4L26 3L23 3L23 2L27 2L27 1L25 1L25 0L23 0L23 2L21 2L21 1L22 1L22 0L21 0L21 1L20 1L20 0L17 0L17 3L18 3L18 4L17 4L17 5L18 5L18 4L19 4L19 5L20 5L20 7L19 7L19 6L18 6L18 7L17 7L17 6L16 6L16 7L15 7L15 5L16 5L16 4L15 4L15 5L14 5L14 7L13 7L13 4L14 4L14 2L15 2L15 1L14 1L14 2L11 2L11 1L12 1L12 0L11 0L11 1L10 1L10 0ZM18 1L18 2L19 2L19 4L21 4L21 5L24 5L24 4L23 4L23 3L21 3L21 2L19 2L19 1ZM46 1L46 2L47 2L47 1ZM10 2L10 3L9 3L9 4L11 4L11 7L12 7L12 4L11 4L11 2ZM31 2L31 3L32 3L32 4L31 4L31 8L32 8L32 10L31 10L31 11L30 11L30 10L27 10L27 11L26 11L26 12L25 12L25 11L23 11L23 13L22 13L22 12L21 12L21 11L22 11L22 10L23 10L23 8L24 8L24 9L25 9L25 8L26 8L26 4L25 4L25 8L24 8L24 6L23 6L23 8L20 8L20 12L19 12L19 13L20 13L20 15L18 15L18 14L17 14L17 13L18 13L18 12L17 12L17 13L16 13L16 12L15 12L15 13L13 13L13 14L12 14L12 15L11 15L11 14L10 14L10 13L8 13L8 14L7 14L7 13L6 13L6 14L4 14L4 12L3 12L3 13L2 13L2 14L3 14L3 16L4 16L4 15L6 15L6 16L5 16L5 17L4 17L4 18L3 18L3 19L2 19L2 20L3 20L3 19L4 19L4 21L2 21L2 22L5 22L5 23L1 23L1 25L2 25L2 26L3 26L3 24L4 24L4 26L7 26L7 25L6 25L6 24L7 24L7 23L6 23L6 22L8 22L8 26L9 26L9 27L10 27L10 28L9 28L9 29L10 29L10 30L9 30L9 31L8 31L8 32L7 32L7 31L4 31L4 33L3 33L3 34L2 34L2 35L3 35L3 34L4 34L4 33L6 33L6 34L5 34L5 35L6 35L6 36L5 36L5 37L4 37L4 36L3 36L3 39L4 39L4 40L7 40L7 41L13 41L13 43L11 43L11 42L9 42L9 44L11 44L11 45L8 45L8 47L10 47L10 48L12 48L12 49L11 49L11 50L13 50L13 51L14 51L14 54L13 54L13 56L14 56L14 55L15 55L15 56L16 56L16 55L15 55L15 54L16 54L16 53L17 53L17 52L18 52L18 51L19 51L19 52L20 52L20 51L19 51L19 50L18 50L18 51L17 51L17 49L16 49L16 48L17 48L17 47L18 47L18 46L17 46L17 45L18 45L18 44L17 44L17 45L16 45L16 43L18 43L18 42L19 42L19 43L20 43L20 44L21 44L21 45L19 45L19 46L21 46L21 45L22 45L22 46L23 46L23 45L22 45L22 44L21 44L21 43L22 43L22 42L23 42L23 40L24 40L24 41L25 41L25 43L27 43L27 44L24 44L24 45L25 45L25 46L24 46L24 49L25 49L25 50L26 50L26 48L27 48L27 47L28 47L28 48L30 48L30 47L28 47L28 46L29 46L29 45L30 45L30 44L31 44L31 43L29 43L29 41L31 41L31 42L32 42L32 43L33 43L33 44L32 44L32 46L31 46L31 48L32 48L32 49L31 49L31 53L30 53L30 54L26 54L26 53L24 53L24 54L23 54L23 55L24 55L24 56L25 56L25 54L26 54L26 55L27 55L27 56L29 56L29 55L30 55L30 56L31 56L31 54L32 54L32 53L33 53L33 54L34 54L34 55L35 55L35 56L36 56L36 54L35 54L35 52L34 52L34 51L35 51L35 50L36 50L36 52L37 52L37 51L38 51L38 53L37 53L37 54L40 54L40 53L41 53L41 52L42 52L42 50L41 50L41 48L42 48L42 49L43 49L43 51L45 51L45 52L44 52L44 53L43 53L43 54L44 54L44 53L46 53L46 54L48 54L48 50L47 50L47 49L48 49L48 48L49 48L49 47L48 47L48 46L50 46L50 47L51 47L51 48L53 48L53 47L55 47L55 46L54 46L54 45L52 45L52 44L53 44L53 43L54 43L54 42L53 42L53 41L54 41L54 40L53 40L53 41L51 41L51 42L50 42L50 43L49 43L49 42L48 42L48 41L49 41L49 39L51 39L51 38L52 38L52 39L55 39L55 37L56 37L56 36L55 36L55 37L53 37L53 35L55 35L55 34L54 34L54 33L56 33L56 32L54 32L54 31L55 31L55 28L54 28L54 30L53 30L53 31L50 31L50 32L49 32L49 31L48 31L48 29L46 29L46 30L47 30L47 31L48 31L48 32L47 32L47 33L46 33L46 31L45 31L45 28L46 28L46 27L47 27L47 25L48 25L48 24L49 24L49 25L50 25L50 26L52 26L52 25L55 25L55 24L53 24L53 23L55 23L55 22L56 22L56 21L55 21L55 20L56 20L56 19L55 19L55 20L53 20L53 19L52 19L52 18L51 18L51 17L53 17L53 18L55 18L55 17L54 17L54 16L52 16L52 15L51 15L51 17L50 17L50 14L51 14L51 12L50 12L50 14L49 14L49 15L48 15L48 16L49 16L49 17L50 17L50 19L52 19L52 20L51 20L51 21L49 21L49 20L47 20L47 17L45 17L45 16L47 16L47 15L45 15L45 14L47 14L47 13L49 13L49 12L45 12L45 11L44 11L44 14L40 14L40 13L43 13L43 11L41 11L41 10L40 10L40 9L41 9L41 7L42 7L42 6L43 6L43 7L44 7L44 9L45 9L45 10L47 10L47 11L48 11L48 10L47 10L47 9L45 9L45 7L46 7L46 5L47 5L47 3L44 3L44 6L43 6L43 5L40 5L40 6L39 6L39 9L38 9L38 11L39 11L39 12L40 12L40 13L38 13L38 14L37 14L37 13L36 13L36 14L37 14L37 15L35 15L35 16L33 16L33 15L32 15L32 14L35 14L35 11L36 11L36 10L37 10L37 9L35 9L35 8L34 8L34 9L33 9L33 7L34 7L34 6L33 6L33 5L35 5L35 4L33 4L33 3L32 3L32 2ZM34 2L34 3L35 3L35 2ZM32 4L32 5L33 5L33 4ZM36 4L36 5L37 5L37 4ZM45 4L45 5L46 5L46 4ZM27 5L27 8L30 8L30 5ZM21 6L21 7L22 7L22 6ZM28 6L28 7L29 7L29 6ZM32 6L32 7L33 7L33 6ZM40 6L40 7L41 7L41 6ZM44 6L44 7L45 7L45 6ZM48 6L48 7L49 7L49 6ZM14 7L14 9L13 9L13 8L12 8L12 9L13 9L13 10L17 10L17 11L18 11L18 10L17 10L17 9L15 9L15 7ZM16 7L16 8L17 8L17 7ZM42 8L42 9L43 9L43 8ZM51 8L51 9L52 9L52 8ZM53 8L53 9L54 9L54 8ZM1 9L1 10L2 10L2 9ZM7 10L7 11L8 11L8 12L9 12L9 11L8 11L8 10ZM11 10L11 11L10 11L10 12L12 12L12 10ZM32 10L32 11L31 11L31 13L30 13L30 14L29 14L29 13L28 13L28 12L29 12L29 11L27 11L27 12L26 12L26 13L25 13L25 12L24 12L24 13L23 13L23 14L22 14L22 13L21 13L21 15L20 15L20 16L18 16L18 15L17 15L17 16L16 16L16 13L15 13L15 14L13 14L13 15L12 15L12 17L13 17L13 18L15 18L15 21L16 21L16 22L15 22L15 23L14 23L14 24L12 24L12 23L13 23L13 22L14 22L14 21L13 21L13 20L14 20L14 19L12 19L12 18L8 18L8 17L10 17L10 15L9 15L9 14L8 14L8 15L9 15L9 16L6 16L6 17L7 17L7 18L6 18L6 19L7 19L7 20L6 20L6 21L5 21L5 22L6 22L6 21L8 21L8 22L9 22L9 24L10 24L10 25L9 25L9 26L10 26L10 27L11 27L11 28L10 28L10 29L12 29L12 30L13 30L13 32L12 32L12 31L9 31L9 33L10 33L10 32L11 32L11 33L12 33L12 35L11 35L11 34L10 34L10 35L11 35L11 36L9 36L9 35L8 35L8 34L6 34L6 35L8 35L8 36L6 36L6 37L5 37L5 38L4 38L4 39L7 39L7 38L6 38L6 37L8 37L8 38L10 38L10 37L11 37L11 36L12 36L12 37L13 37L13 38L12 38L12 40L13 40L13 39L15 39L15 41L14 41L14 43L15 43L15 41L17 41L17 42L18 42L18 41L19 41L19 42L20 42L20 41L21 41L21 42L22 42L22 41L21 41L21 39L24 39L24 40L25 40L25 36L27 36L27 35L26 35L26 34L27 34L27 32L28 32L28 33L29 33L29 34L30 34L30 36L29 36L29 37L31 37L31 38L29 38L29 39L33 39L33 40L35 40L35 42L37 42L37 43L34 43L34 42L33 42L33 41L32 41L32 40L31 40L31 41L32 41L32 42L33 42L33 43L34 43L34 45L35 45L35 46L32 46L32 47L34 47L34 48L33 48L33 49L32 49L32 52L33 52L33 49L36 49L36 50L38 50L38 51L40 51L40 52L41 52L41 50L38 50L38 49L39 49L39 48L41 48L41 46L43 46L43 45L44 45L44 46L45 46L45 48L46 48L46 49L45 49L45 50L46 50L46 52L47 52L47 50L46 50L46 49L47 49L47 48L48 48L48 47L47 47L47 46L48 46L48 45L50 45L50 46L51 46L51 47L53 47L53 46L51 46L51 45L50 45L50 44L51 44L51 43L53 43L53 42L51 42L51 43L50 43L50 44L48 44L48 45L47 45L47 43L48 43L48 42L45 42L45 41L47 41L47 39L49 39L49 38L50 38L50 36L51 36L51 37L52 37L52 35L53 35L53 34L52 34L52 33L54 33L54 32L52 32L52 33L51 33L51 32L50 32L50 34L49 34L49 35L50 35L50 36L48 36L48 37L47 37L47 34L45 34L45 35L44 35L44 33L43 33L43 32L45 32L45 31L44 31L44 29L41 29L41 30L43 30L43 32L41 32L41 33L39 33L39 34L40 34L40 35L39 35L39 37L40 37L40 38L41 38L41 40L42 40L42 41L41 41L41 42L40 42L40 43L39 43L39 42L38 42L38 40L39 40L39 39L38 39L38 40L35 40L35 39L37 39L37 38L38 38L38 37L37 37L37 36L38 36L38 33L37 33L37 32L35 32L35 34L33 34L33 35L32 35L32 34L31 34L31 33L32 33L32 32L31 32L31 33L29 33L29 32L30 32L30 31L31 31L31 29L32 29L32 27L33 27L33 28L35 28L35 30L32 30L32 31L35 31L35 30L37 30L37 29L38 29L38 28L42 28L42 27L41 27L41 26L43 26L43 25L44 25L44 24L43 24L43 23L44 23L44 20L45 20L45 21L47 21L47 22L45 22L45 23L46 23L46 24L45 24L45 25L46 25L46 24L48 24L48 23L49 23L49 21L47 21L47 20L46 20L46 18L44 18L44 15L42 15L42 16L41 16L41 15L39 15L39 14L38 14L38 15L39 15L39 16L38 16L38 17L37 17L37 16L35 16L35 17L37 17L37 18L38 18L38 17L39 17L39 19L37 19L37 20L36 20L36 19L34 19L34 20L35 20L35 23L32 23L32 24L31 24L31 23L30 23L30 22L31 22L31 21L32 21L32 20L33 20L33 17L32 17L32 16L31 16L31 15L30 15L30 14L32 14L32 11L33 11L33 10ZM39 10L39 11L40 11L40 12L41 12L41 11L40 11L40 10ZM13 11L13 12L14 12L14 11ZM33 12L33 13L34 13L34 12ZM52 12L52 13L53 13L53 12ZM26 13L26 14L27 14L27 15L26 15L26 17L25 17L25 16L24 16L24 15L25 15L25 14L23 14L23 15L21 15L21 16L20 16L20 18L19 18L19 17L18 17L18 18L17 18L17 17L16 17L16 16L14 16L14 15L13 15L13 17L16 17L16 18L17 18L17 19L16 19L16 21L17 21L17 22L18 22L18 21L17 21L17 19L18 19L18 18L19 18L19 20L20 20L20 21L19 21L19 22L20 22L20 23L19 23L19 24L21 24L21 25L17 25L17 24L18 24L18 23L17 23L17 24L16 24L16 23L15 23L15 24L14 24L14 25L13 25L13 26L12 26L12 24L11 24L11 23L10 23L10 24L11 24L11 27L13 27L13 28L12 28L12 29L13 29L13 30L14 30L14 31L15 31L15 30L14 30L14 29L13 29L13 28L14 28L14 27L13 27L13 26L18 26L18 27L17 27L17 28L18 28L18 29L16 29L16 28L15 28L15 29L16 29L16 30L18 30L18 29L19 29L19 28L22 28L22 29L20 29L20 30L19 30L19 33L20 33L20 34L17 34L17 32L18 32L18 31L17 31L17 32L16 32L16 33L15 33L15 35L14 35L14 34L13 34L13 35L14 35L14 37L16 37L16 38L15 38L15 39L16 39L16 40L17 40L17 41L18 41L18 40L19 40L19 41L20 41L20 40L19 40L19 39L20 39L20 38L19 38L19 37L22 37L22 38L24 38L24 37L23 37L23 36L24 36L24 34L23 34L23 33L25 33L25 34L26 34L26 31L25 31L25 30L23 30L23 28L25 28L25 29L26 29L26 28L25 28L25 27L26 27L26 26L27 26L27 25L28 25L28 26L30 26L30 25L29 25L29 23L28 23L28 24L25 24L25 23L26 23L26 22L25 22L25 21L24 21L24 20L20 20L20 18L22 18L22 17L25 17L25 18L26 18L26 21L31 21L31 20L30 20L30 19L31 19L31 18L32 18L32 17L31 17L31 18L30 18L30 19L28 19L28 18L27 18L27 17L28 17L28 16L29 16L29 14L28 14L28 13ZM6 14L6 15L7 15L7 14ZM27 15L27 16L28 16L28 15ZM21 16L21 17L22 17L22 16ZM39 16L39 17L41 17L41 16ZM42 16L42 17L43 17L43 16ZM23 18L23 19L24 19L24 18ZM41 18L41 19L42 19L42 20L44 20L44 18L43 18L43 19L42 19L42 18ZM48 18L48 19L49 19L49 18ZM8 19L8 21L9 21L9 22L13 22L13 21L11 21L11 20L12 20L12 19L11 19L11 20L10 20L10 19ZM27 19L27 20L28 20L28 19ZM9 20L9 21L10 21L10 20ZM38 20L38 23L37 23L37 24L40 24L40 25L38 25L38 26L37 26L37 25L33 25L33 24L32 24L32 26L31 26L31 27L32 27L32 26L33 26L33 27L34 27L34 26L36 26L36 27L39 27L39 26L41 26L41 25L43 25L43 24L42 24L42 22L41 22L41 24L40 24L40 22L39 22L39 21L41 21L41 20ZM22 21L22 22L21 22L21 23L23 23L23 25L22 25L22 26L19 26L19 27L22 27L22 26L24 26L24 27L25 27L25 26L26 26L26 25L25 25L25 24L24 24L24 23L23 23L23 22L24 22L24 21ZM51 21L51 22L50 22L50 24L52 24L52 23L53 23L53 21ZM5 23L5 24L6 24L6 23ZM44 26L44 27L43 27L43 28L45 28L45 27L46 27L46 26ZM53 26L53 27L54 27L54 26ZM5 27L5 30L8 30L8 27ZM27 27L27 30L30 30L30 27ZM49 27L49 30L52 30L52 27ZM6 28L6 29L7 29L7 28ZM28 28L28 29L29 29L29 28ZM50 28L50 29L51 29L51 28ZM39 29L39 30L38 30L38 32L39 32L39 30L40 30L40 29ZM20 31L20 32L23 32L23 31ZM6 32L6 33L7 33L7 32ZM13 32L13 33L14 33L14 32ZM48 32L48 33L49 33L49 32ZM21 33L21 34L22 34L22 33ZM35 34L35 36L32 36L32 37L33 37L33 38L35 38L35 36L37 36L37 34ZM42 34L42 35L43 35L43 36L44 36L44 37L43 37L43 38L42 38L42 37L41 37L41 36L40 36L40 37L41 37L41 38L42 38L42 40L44 40L44 41L43 41L43 42L44 42L44 43L43 43L43 44L44 44L44 45L45 45L45 46L47 46L47 45L45 45L45 44L46 44L46 43L45 43L45 42L44 42L44 41L45 41L45 40L46 40L46 39L47 39L47 37L45 37L45 36L44 36L44 35L43 35L43 34ZM50 34L50 35L52 35L52 34ZM15 35L15 36L16 36L16 35ZM19 35L19 36L17 36L17 37L19 37L19 36L20 36L20 35ZM21 35L21 36L22 36L22 35ZM8 36L8 37L9 37L9 36ZM26 37L26 40L28 40L28 41L29 41L29 40L28 40L28 39L27 39L27 38L28 38L28 37ZM44 37L44 38L45 38L45 39L44 39L44 40L45 40L45 39L46 39L46 38L45 38L45 37ZM48 37L48 38L49 38L49 37ZM18 38L18 39L17 39L17 40L18 40L18 39L19 39L19 38ZM9 39L9 40L10 40L10 39ZM26 41L26 42L27 42L27 41ZM28 43L28 44L27 44L27 45L26 45L26 47L27 47L27 45L28 45L28 44L29 44L29 43ZM40 43L40 44L39 44L39 45L38 45L38 46L39 46L39 47L38 47L38 48L37 48L37 49L38 49L38 48L39 48L39 47L40 47L40 46L41 46L41 44L42 44L42 43ZM12 44L12 45L11 45L11 47L12 47L12 46L13 46L13 50L14 50L14 51L16 51L16 49L15 49L15 47L16 47L16 46L14 46L14 45L15 45L15 44L14 44L14 45L13 45L13 44ZM1 45L1 47L2 47L2 45ZM3 45L3 47L5 47L5 46L4 46L4 45ZM36 45L36 46L35 46L35 48L36 48L36 46L37 46L37 45ZM19 47L19 48L20 48L20 47ZM21 47L21 49L20 49L20 50L21 50L21 49L23 49L23 47ZM42 47L42 48L43 48L43 49L44 49L44 48L43 48L43 47ZM46 47L46 48L47 48L47 47ZM55 48L55 50L54 50L54 51L55 51L55 52L56 52L56 51L55 51L55 50L56 50L56 48ZM27 49L27 52L30 52L30 49ZM49 49L49 52L52 52L52 49ZM28 50L28 51L29 51L29 50ZM50 50L50 51L51 51L51 50ZM15 52L15 53L16 53L16 52ZM53 52L53 54L54 54L54 52ZM9 53L9 54L10 54L10 55L9 55L9 56L11 56L11 55L12 55L12 53L11 53L11 54L10 54L10 53ZM17 55L17 56L18 56L18 55ZM37 55L37 56L39 56L39 55ZM47 55L47 56L48 56L48 55ZM50 55L50 56L51 56L51 55ZM0 0L0 7L7 7L7 0ZM1 1L1 6L6 6L6 1ZM2 2L2 5L5 5L5 2ZM50 0L50 7L57 7L57 0ZM51 1L51 6L56 6L56 1ZM52 2L52 5L55 5L55 2ZM0 50L0 57L7 57L7 50ZM1 51L1 56L6 56L6 51ZM2 52L2 55L5 55L5 52Z" fill="#000000"/></g></g></svg>
