<?xml version="1.0" encoding="UTF-8"?>
<svg xmlns="http://www.w3.org/2000/svg" version="1.1" width="300" height="300" viewBox="0 0 300 300"><rect x="0" y="0" width="300" height="300" fill="#fefefe"/><g transform="scale(4.615)"><g transform="translate(4,4)"><path fill-rule="evenodd" d="M8 0L8 1L9 1L9 2L8 2L8 5L9 5L9 6L8 6L8 7L9 7L9 8L8 8L8 10L6 10L6 11L4 11L4 8L0 8L0 9L1 9L1 10L0 10L0 12L2 12L2 13L1 13L1 14L2 14L2 13L3 13L3 15L0 15L0 18L1 18L1 16L3 16L3 15L4 15L4 16L5 16L5 17L4 17L4 18L3 18L3 17L2 17L2 19L1 19L1 20L3 20L3 21L5 21L5 23L4 23L4 22L1 22L1 21L0 21L0 22L1 22L1 26L0 26L0 27L1 27L1 26L2 26L2 25L3 25L3 24L4 24L4 27L2 27L2 28L1 28L1 29L0 29L0 31L1 31L1 32L2 32L2 34L1 34L1 33L0 33L0 34L1 34L1 35L2 35L2 36L3 36L3 35L4 35L4 36L6 36L6 37L4 37L4 39L3 39L3 40L4 40L4 39L5 39L5 41L8 41L8 42L10 42L10 41L11 41L11 42L12 42L12 41L13 41L13 40L14 40L14 39L15 39L15 41L14 41L14 43L15 43L15 45L16 45L16 44L17 44L17 42L18 42L18 43L19 43L19 44L20 44L20 45L21 45L21 46L22 46L22 47L21 47L21 48L23 48L23 49L22 49L22 50L21 50L21 49L19 49L19 48L20 48L20 47L18 47L18 48L17 48L17 50L18 50L18 51L16 51L16 52L19 52L19 54L18 54L18 53L17 53L17 54L16 54L16 53L15 53L15 50L16 50L16 48L15 48L15 46L14 46L14 44L12 44L12 43L11 43L11 44L10 44L10 43L7 43L7 42L5 42L5 43L7 43L7 44L5 44L5 45L4 45L4 46L5 46L5 47L3 47L3 46L2 46L2 45L1 45L1 46L0 46L0 48L5 48L5 47L7 47L7 48L6 48L6 49L7 49L7 48L12 48L12 49L8 49L8 50L9 50L9 51L10 51L10 50L11 50L11 52L10 52L10 53L8 53L8 57L12 57L12 56L13 56L13 57L15 57L15 56L16 56L16 57L18 57L18 56L19 56L19 55L20 55L20 56L21 56L21 57L23 57L23 54L25 54L25 55L24 55L24 56L25 56L25 55L26 55L26 56L28 56L28 55L26 55L26 53L29 53L29 54L31 54L31 55L30 55L30 56L31 56L31 57L32 57L32 55L34 55L34 56L33 56L33 57L36 57L36 55L38 55L38 57L42 57L42 56L43 56L43 55L44 55L44 56L46 56L46 57L47 57L47 56L46 56L46 55L44 55L44 54L47 54L47 55L48 55L48 56L49 56L49 57L51 57L51 54L52 54L52 53L53 53L53 55L55 55L55 54L56 54L56 53L57 53L57 51L55 51L55 50L53 50L53 49L55 49L55 48L54 48L54 47L53 47L53 46L54 46L54 45L56 45L56 46L55 46L55 47L57 47L57 44L53 44L53 46L52 46L52 43L53 43L53 42L54 42L54 43L56 43L56 42L57 42L57 40L56 40L56 41L55 41L55 42L54 42L54 40L55 40L55 38L56 38L56 39L57 39L57 38L56 38L56 36L54 36L54 35L57 35L57 34L56 34L56 33L57 33L57 31L56 31L56 30L57 30L57 29L56 29L56 30L55 30L55 28L57 28L57 27L56 27L56 24L55 24L55 27L53 27L53 26L52 26L52 25L51 25L51 24L53 24L53 25L54 25L54 24L53 24L53 22L54 22L54 21L55 21L55 20L54 20L54 21L53 21L53 20L50 20L50 19L49 19L49 18L48 18L48 17L46 17L46 16L44 16L44 15L45 15L45 14L46 14L46 13L45 13L45 14L44 14L44 12L43 12L43 11L44 11L44 9L41 9L41 8L40 8L40 7L41 7L41 6L42 6L42 7L43 7L43 8L45 8L45 6L44 6L44 7L43 7L43 6L42 6L42 5L41 5L41 4L43 4L43 5L45 5L45 4L44 4L44 3L45 3L45 1L44 1L44 2L42 2L42 3L41 3L41 4L38 4L38 3L37 3L37 1L38 1L38 0L37 0L37 1L36 1L36 0L35 0L35 1L34 1L34 2L35 2L35 4L36 4L36 5L37 5L37 6L36 6L36 7L35 7L35 6L34 6L34 4L33 4L33 6L32 6L32 5L31 5L31 4L32 4L32 3L33 3L33 1L31 1L31 0L29 0L29 4L28 4L28 1L27 1L27 4L26 4L26 1L25 1L25 0L23 0L23 1L25 1L25 2L24 2L24 3L23 3L23 2L22 2L22 0L21 0L21 2L22 2L22 3L23 3L23 6L22 6L22 8L21 8L21 11L23 11L23 12L22 12L22 13L25 13L25 14L24 14L24 15L25 15L25 16L23 16L23 18L22 18L22 17L21 17L21 19L20 19L20 18L19 18L19 19L17 19L17 20L16 20L16 18L17 18L17 16L16 16L16 15L17 15L17 14L16 14L16 15L15 15L15 11L16 11L16 8L15 8L15 6L16 6L16 7L17 7L17 6L18 6L18 7L19 7L19 10L20 10L20 7L21 7L21 5L20 5L20 4L19 4L19 3L20 3L20 2L19 2L19 3L17 3L17 4L18 4L18 5L15 5L15 4L14 4L14 3L13 3L13 4L14 4L14 5L10 5L10 3L12 3L12 2L13 2L13 1L14 1L14 0L13 0L13 1L12 1L12 2L11 2L11 1L9 1L9 0ZM19 0L19 1L20 1L20 0ZM39 0L39 1L40 1L40 2L41 2L41 1L43 1L43 0L41 0L41 1L40 1L40 0ZM46 0L46 1L47 1L47 2L46 2L46 3L47 3L47 5L46 5L46 7L47 7L47 8L49 8L49 9L47 9L47 10L46 10L46 11L47 11L47 12L49 12L49 15L50 15L50 16L51 16L51 17L52 17L52 16L53 16L53 17L54 17L54 18L52 18L52 19L56 19L56 17L57 17L57 15L55 15L55 14L54 14L54 10L53 10L53 13L52 13L52 12L51 12L51 11L52 11L52 9L55 9L55 8L52 8L52 9L51 9L51 10L50 10L50 8L49 8L49 6L48 6L48 7L47 7L47 5L48 5L48 0ZM15 1L15 2L16 2L16 1ZM35 1L35 2L36 2L36 1ZM9 2L9 3L10 3L10 2ZM30 2L30 4L31 4L31 2ZM24 4L24 6L23 6L23 7L24 7L24 8L23 8L23 9L24 9L24 8L25 8L25 9L26 9L26 6L25 6L25 5L26 5L26 4ZM14 5L14 6L13 6L13 8L12 8L12 6L11 6L11 8L10 8L10 9L9 9L9 11L12 11L12 13L13 13L13 14L14 14L14 13L13 13L13 11L12 11L12 10L11 10L11 9L14 9L14 11L15 11L15 8L14 8L14 6L15 6L15 5ZM27 5L27 8L30 8L30 5ZM38 5L38 6L37 6L37 8L36 8L36 9L34 9L34 6L33 6L33 8L32 8L32 6L31 6L31 9L32 9L32 10L29 10L29 9L28 9L28 10L26 10L26 11L25 11L25 10L23 10L23 11L25 11L25 13L26 13L26 12L28 12L28 13L30 13L30 14L31 14L31 15L32 15L32 16L33 16L33 15L35 15L35 16L34 16L34 17L35 17L35 18L33 18L33 17L32 17L32 20L30 20L30 19L31 19L31 16L29 16L29 15L28 15L28 16L29 16L29 17L26 17L26 16L27 16L27 14L26 14L26 16L25 16L25 17L24 17L24 18L23 18L23 21L21 21L21 20L22 20L22 19L21 19L21 20L20 20L20 19L19 19L19 20L18 20L18 21L17 21L17 23L16 23L16 20L14 20L14 22L15 22L15 23L16 23L16 24L15 24L15 25L13 25L13 24L12 24L12 23L13 23L13 22L12 22L12 21L13 21L13 19L15 19L15 18L12 18L12 17L13 17L13 16L14 16L14 15L13 15L13 16L12 16L12 15L11 15L11 12L9 12L9 13L10 13L10 15L9 15L9 16L8 16L8 15L6 15L6 14L7 14L7 13L8 13L8 12L7 12L7 11L6 11L6 12L5 12L5 16L7 16L7 17L5 17L5 21L6 21L6 22L8 22L8 23L5 23L5 25L6 25L6 26L12 26L12 27L11 27L11 28L12 28L12 31L8 31L8 32L12 32L12 34L10 34L10 36L9 36L9 35L8 35L8 33L4 33L4 32L3 32L3 30L1 30L1 31L2 31L2 32L3 32L3 34L2 34L2 35L3 35L3 34L5 34L5 35L6 35L6 36L7 36L7 37L6 37L6 38L7 38L7 39L6 39L6 40L7 40L7 39L8 39L8 38L9 38L9 40L12 40L12 39L10 39L10 37L12 37L12 36L11 36L11 35L13 35L13 39L14 39L14 37L15 37L15 38L18 38L18 37L17 37L17 36L15 36L15 34L16 34L16 35L18 35L18 36L19 36L19 37L20 37L20 38L21 38L21 39L22 39L22 38L23 38L23 36L27 36L27 38L29 38L29 36L32 36L32 38L30 38L30 39L28 39L28 40L27 40L27 39L25 39L25 38L26 38L26 37L24 37L24 39L23 39L23 40L22 40L22 41L20 41L20 40L17 40L17 39L16 39L16 41L19 41L19 43L21 43L21 44L22 44L22 46L23 46L23 44L24 44L24 45L25 45L25 47L26 47L26 48L28 48L28 47L27 47L27 46L29 46L29 47L30 47L30 48L31 48L31 47L32 47L32 49L31 49L31 53L32 53L32 51L33 51L33 53L36 53L36 54L34 54L34 55L36 55L36 54L39 54L39 53L37 53L37 52L38 52L38 51L36 51L36 52L35 52L35 51L34 51L34 50L35 50L35 48L37 48L37 49L36 49L36 50L37 50L37 49L38 49L38 48L39 48L39 49L40 49L40 50L39 50L39 52L40 52L40 54L41 54L41 55L40 55L40 56L42 56L42 54L43 54L43 52L42 52L42 54L41 54L41 52L40 52L40 51L45 51L45 52L46 52L46 53L47 53L47 54L50 54L50 53L47 53L47 52L48 52L48 48L47 48L47 49L46 49L46 50L47 50L47 52L46 52L46 51L45 51L45 48L46 48L46 46L48 46L48 47L49 47L49 48L53 48L53 47L52 47L52 46L51 46L51 47L49 47L49 46L50 46L50 45L49 45L49 44L51 44L51 42L50 42L50 41L52 41L52 40L50 40L50 41L47 41L47 42L45 42L45 41L46 41L46 38L48 38L48 39L47 39L47 40L49 40L49 38L48 38L48 35L47 35L47 34L50 34L50 33L49 33L49 32L50 32L50 31L49 31L49 32L48 32L48 30L47 30L47 31L45 31L45 30L46 30L46 26L47 26L47 27L48 27L48 26L49 26L49 24L51 24L51 23L52 23L52 22L51 22L51 21L50 21L50 20L49 20L49 19L48 19L48 18L47 18L47 19L46 19L46 17L42 17L42 14L43 14L43 12L42 12L42 11L43 11L43 10L42 10L42 11L41 11L41 10L40 10L40 9L38 9L38 10L37 10L37 8L39 8L39 7L40 7L40 5ZM9 6L9 7L10 7L10 6ZM19 6L19 7L20 7L20 6ZM24 6L24 7L25 7L25 6ZM28 6L28 7L29 7L29 6ZM38 6L38 7L39 7L39 6ZM6 8L6 9L7 9L7 8ZM17 8L17 9L18 9L18 8ZM56 8L56 9L57 9L57 8ZM1 10L1 11L2 11L2 10ZM17 10L17 12L16 12L16 13L17 13L17 12L18 12L18 13L19 13L19 14L18 14L18 15L19 15L19 16L20 16L20 15L21 15L21 13L20 13L20 11L19 11L19 12L18 12L18 10ZM28 10L28 11L29 11L29 10ZM33 10L33 14L32 14L32 15L33 15L33 14L34 14L34 12L35 12L35 15L36 15L36 13L37 13L37 15L39 15L39 17L40 17L40 16L41 16L41 14L40 14L40 11L39 11L39 10L38 10L38 12L35 12L35 11L36 11L36 10L35 10L35 11L34 11L34 10ZM49 10L49 11L50 11L50 10ZM55 10L55 11L56 11L56 12L57 12L57 10ZM30 11L30 12L31 12L31 13L32 13L32 11ZM3 12L3 13L4 13L4 12ZM6 12L6 13L7 13L7 12ZM50 12L50 13L51 13L51 15L54 15L54 14L52 14L52 13L51 13L51 12ZM19 14L19 15L20 15L20 14ZM47 14L47 16L48 16L48 14ZM10 15L10 16L9 16L9 18L8 18L8 19L7 19L7 18L6 18L6 19L7 19L7 20L6 20L6 21L7 21L7 20L9 20L9 21L8 21L8 22L9 22L9 23L8 23L8 24L6 24L6 25L8 25L8 24L9 24L9 25L10 25L10 24L9 24L9 23L12 23L12 22L11 22L11 21L12 21L12 20L9 20L9 18L10 18L10 19L11 19L11 17L12 17L12 16L11 16L11 15ZM10 16L10 17L11 17L11 16ZM15 16L15 17L16 17L16 16ZM54 16L54 17L55 17L55 16ZM25 17L25 18L24 18L24 19L25 19L25 22L24 22L24 21L23 21L23 22L22 22L22 23L21 23L21 22L19 22L19 21L18 21L18 23L17 23L17 26L16 26L16 25L15 25L15 26L16 26L16 27L19 27L19 26L18 26L18 25L20 25L20 26L22 26L22 27L24 27L24 28L26 28L26 30L24 30L24 29L21 29L21 27L20 27L20 29L21 29L21 30L24 30L24 31L22 31L22 32L21 32L21 31L20 31L20 30L19 30L19 34L18 34L18 32L17 32L17 28L15 28L15 29L16 29L16 30L14 30L14 29L13 29L13 33L14 33L14 34L15 34L15 33L14 33L14 31L16 31L16 32L17 32L17 34L18 34L18 35L19 35L19 36L21 36L21 35L22 35L22 36L23 36L23 35L24 35L24 34L25 34L25 32L26 32L26 33L28 33L28 32L26 32L26 31L30 31L30 33L29 33L29 35L28 35L28 34L27 34L27 36L29 36L29 35L30 35L30 34L31 34L31 32L33 32L33 33L32 33L32 34L33 34L33 35L32 35L32 36L33 36L33 38L32 38L32 39L33 39L33 40L30 40L30 41L31 41L31 42L29 42L29 40L28 40L28 41L27 41L27 40L26 40L26 41L25 41L25 39L24 39L24 41L25 41L25 42L23 42L23 41L22 41L22 44L23 44L23 43L24 43L24 44L25 44L25 45L26 45L26 46L27 46L27 45L29 45L29 46L30 46L30 45L29 45L29 43L32 43L32 42L33 42L33 45L32 45L32 46L33 46L33 45L34 45L34 44L35 44L35 46L34 46L34 48L33 48L33 50L34 50L34 48L35 48L35 47L38 47L38 45L39 45L39 44L40 44L40 45L41 45L41 46L39 46L39 47L43 47L43 50L44 50L44 48L45 48L45 46L43 46L43 45L42 45L42 43L43 43L43 44L49 44L49 43L50 43L50 42L47 42L47 43L45 43L45 42L44 42L44 43L43 43L43 42L42 42L42 41L43 41L43 40L44 40L44 41L45 41L45 39L44 39L44 38L42 38L42 37L44 37L44 36L46 36L46 34L45 34L45 33L47 33L47 32L45 32L45 33L44 33L44 31L41 31L41 32L40 32L40 30L38 30L38 29L40 29L40 28L39 28L39 27L38 27L38 26L40 26L40 23L41 23L41 25L44 25L44 26L41 26L41 30L42 30L42 29L43 29L43 30L45 30L45 27L44 27L44 26L46 26L46 25L44 25L44 23L45 23L45 24L46 24L46 23L47 23L47 24L49 24L49 20L47 20L47 22L46 22L46 23L45 23L45 22L44 22L44 21L43 21L43 20L41 20L41 18L42 18L42 19L43 19L43 18L42 18L42 17L41 17L41 18L39 18L39 19L40 19L40 20L38 20L38 19L36 19L36 20L35 20L35 19L34 19L34 21L35 21L35 22L38 22L38 23L37 23L37 24L36 24L36 23L35 23L35 24L33 24L33 22L32 22L32 23L30 23L30 22L31 22L31 21L29 21L29 20L28 20L28 19L30 19L30 17L29 17L29 18L28 18L28 19L27 19L27 18L26 18L26 17ZM36 17L36 18L37 18L37 17ZM25 18L25 19L26 19L26 18ZM44 18L44 19L45 19L45 20L46 20L46 19L45 19L45 18ZM3 19L3 20L4 20L4 19ZM26 20L26 21L27 21L27 20ZM36 20L36 21L37 21L37 20ZM9 21L9 22L10 22L10 21ZM38 21L38 22L39 22L39 21ZM56 21L56 22L55 22L55 23L57 23L57 21ZM25 22L25 25L24 25L24 24L23 24L23 23L22 23L22 25L23 25L23 26L24 26L24 27L25 27L25 25L27 25L27 24L26 24L26 23L28 23L28 25L29 25L29 24L30 24L30 23L28 23L28 22ZM41 22L41 23L42 23L42 24L43 24L43 22ZM2 23L2 24L3 24L3 23ZM18 23L18 24L19 24L19 23ZM20 23L20 24L21 24L21 23ZM38 23L38 24L39 24L39 23ZM32 24L32 25L33 25L33 24ZM30 25L30 26L31 26L31 25ZM34 25L34 27L35 27L35 28L34 28L34 29L35 29L35 30L36 30L36 31L37 31L37 32L36 32L36 33L37 33L37 32L38 32L38 34L39 34L39 31L38 31L38 30L36 30L36 29L37 29L37 28L36 28L36 27L35 27L35 25ZM5 27L5 30L8 30L8 27ZM12 27L12 28L13 28L13 27ZM27 27L27 30L30 30L30 27ZM31 27L31 28L33 28L33 27ZM42 27L42 28L44 28L44 27ZM49 27L49 30L52 30L52 27ZM3 28L3 29L4 29L4 28ZM6 28L6 29L7 29L7 28ZM18 28L18 29L19 29L19 28ZM28 28L28 29L29 29L29 28ZM47 28L47 29L48 29L48 28ZM50 28L50 29L51 29L51 28ZM53 28L53 29L54 29L54 28ZM10 29L10 30L11 30L11 29ZM31 30L31 31L32 31L32 30ZM5 31L5 32L7 32L7 31ZM24 31L24 32L23 32L23 33L22 33L22 35L23 35L23 33L24 33L24 32L25 32L25 31ZM33 31L33 32L34 32L34 34L35 34L35 31ZM51 31L51 32L52 32L52 34L54 34L54 32L55 32L55 31ZM42 32L42 33L43 33L43 32ZM20 33L20 34L19 34L19 35L21 35L21 33ZM6 34L6 35L7 35L7 34ZM41 34L41 35L37 35L37 36L40 36L40 37L41 37L41 36L43 36L43 35L44 35L44 34L43 34L43 35L42 35L42 34ZM34 35L34 36L36 36L36 35ZM51 35L51 36L50 36L50 37L51 37L51 36L52 36L52 38L50 38L50 39L52 39L52 38L53 38L53 39L54 39L54 38L55 38L55 37L54 37L54 38L53 38L53 36L52 36L52 35ZM0 36L0 38L1 38L1 36ZM8 36L8 37L7 37L7 38L8 38L8 37L9 37L9 36ZM21 37L21 38L22 38L22 37ZM34 37L34 38L36 38L36 39L35 39L35 40L34 40L34 41L36 41L36 42L34 42L34 43L36 43L36 45L38 45L38 44L39 44L39 43L42 43L42 42L40 42L40 41L42 41L42 40L41 40L41 39L40 39L40 41L37 41L37 40L38 40L38 39L39 39L39 38L37 38L37 37ZM45 37L45 38L46 38L46 37ZM0 39L0 40L1 40L1 41L2 41L2 44L4 44L4 43L3 43L3 41L2 41L2 40L1 40L1 39ZM0 42L0 43L1 43L1 42ZM25 42L25 43L26 43L26 45L27 45L27 44L28 44L28 43L29 43L29 42ZM37 42L37 44L38 44L38 43L39 43L39 42ZM7 44L7 45L5 45L5 46L8 46L8 47L9 47L9 46L8 46L8 44ZM11 44L11 45L10 45L10 46L11 46L11 47L12 47L12 46L13 46L13 47L14 47L14 46L13 46L13 45L12 45L12 44ZM17 45L17 46L16 46L16 47L17 47L17 46L19 46L19 45ZM1 46L1 47L2 47L2 46ZM23 47L23 48L24 48L24 49L23 49L23 51L22 51L22 52L21 52L21 53L20 53L20 55L21 55L21 56L22 56L22 54L23 54L23 52L24 52L24 53L25 53L25 52L26 52L26 51L24 51L24 50L26 50L26 49L25 49L25 48L24 48L24 47ZM13 48L13 49L12 49L12 52L11 52L11 53L10 53L10 54L12 54L12 55L13 55L13 56L15 56L15 54L14 54L14 52L13 52L13 49L14 49L14 50L15 50L15 48ZM41 48L41 49L42 49L42 48ZM56 48L56 50L57 50L57 48ZM18 49L18 50L19 50L19 52L20 52L20 50L19 50L19 49ZM27 49L27 52L30 52L30 49ZM49 49L49 52L52 52L52 49ZM28 50L28 51L29 51L29 50ZM50 50L50 51L51 51L51 50ZM54 52L54 54L55 54L55 53L56 53L56 52ZM21 53L21 54L22 54L22 53ZM13 54L13 55L14 55L14 54ZM17 55L17 56L18 56L18 55ZM56 55L56 56L57 56L57 55ZM52 56L52 57L55 57L55 56ZM0 0L0 7L7 7L7 0ZM1 1L1 6L6 6L6 1ZM2 2L2 5L5 5L5 2ZM50 0L50 7L57 7L57 0ZM51 1L51 6L56 6L56 1ZM52 2L52 5L55 5L55 2ZM0 50L0 57L7 57L7 50ZM1 51L1 56L6 56L6 51ZM2 52L2 55L5 55L5 52Z" fill="#000000"/></g></g></svg>
