<?xml version="1.0" encoding="UTF-8"?>
<svg xmlns="http://www.w3.org/2000/svg" version="1.1" width="300" height="300" viewBox="0 0 300 300"><rect x="0" y="0" width="300" height="300" fill="#fefefe"/><g transform="scale(4.615)"><g transform="translate(4,4)"><path fill-rule="evenodd" d="M9 0L9 1L8 1L8 2L10 2L10 4L9 4L9 3L8 3L8 4L9 4L9 5L8 5L8 7L9 7L9 6L10 6L10 8L6 8L6 9L7 9L7 10L4 10L4 9L5 9L5 8L0 8L0 9L1 9L1 11L3 11L3 10L4 10L4 12L2 12L2 13L1 13L1 14L0 14L0 17L1 17L1 19L2 19L2 20L1 20L1 22L0 22L0 24L1 24L1 25L2 25L2 24L3 24L3 25L4 25L4 26L1 26L1 27L0 27L0 30L1 30L1 28L2 28L2 29L3 29L3 30L4 30L4 31L7 31L7 32L5 32L5 34L4 34L4 35L3 35L3 32L1 32L1 31L0 31L0 32L1 32L1 33L2 33L2 34L0 34L0 36L1 36L1 38L0 38L0 40L1 40L1 39L2 39L2 38L3 38L3 39L4 39L4 42L3 42L3 40L2 40L2 41L0 41L0 44L3 44L3 43L4 43L4 45L5 45L5 41L7 41L7 42L6 42L6 43L7 43L7 42L8 42L8 45L7 45L7 44L6 44L6 45L7 45L7 46L5 46L5 47L3 47L3 46L2 46L2 47L1 47L1 45L0 45L0 48L5 48L5 47L7 47L7 48L6 48L6 49L7 49L7 48L8 48L8 51L9 51L9 52L8 52L8 57L9 57L9 56L10 56L10 57L11 57L11 56L13 56L13 57L16 57L16 56L17 56L17 57L19 57L19 56L18 56L18 55L20 55L20 54L19 54L19 53L20 53L20 52L23 52L23 50L26 50L26 52L24 52L24 53L23 53L23 54L22 54L22 53L21 53L21 56L20 56L20 57L21 57L21 56L24 56L24 57L26 57L26 56L27 56L27 57L29 57L29 56L30 56L30 57L31 57L31 56L35 56L35 57L39 57L39 56L41 56L41 54L42 54L42 55L44 55L44 54L45 54L45 53L44 53L44 52L45 52L45 51L46 51L46 53L47 53L47 51L46 51L46 50L45 50L45 51L44 51L44 48L43 48L43 47L44 47L44 46L45 46L45 47L46 47L46 48L45 48L45 49L47 49L47 50L48 50L48 54L47 54L47 55L45 55L45 57L47 57L47 56L48 56L48 55L49 55L49 56L50 56L50 57L52 57L52 55L51 55L51 53L52 53L52 54L53 54L53 57L54 57L54 56L55 56L55 57L56 57L56 56L55 56L55 55L54 55L54 54L55 54L55 52L56 52L56 53L57 53L57 51L54 51L54 50L57 50L57 48L56 48L56 46L57 46L57 43L56 43L56 42L57 42L57 41L56 41L56 42L55 42L55 41L53 41L53 40L55 40L55 39L57 39L57 37L55 37L55 35L56 35L56 33L57 33L57 32L56 32L56 30L57 30L57 29L56 29L56 28L57 28L57 27L55 27L55 26L57 26L57 25L56 25L56 22L57 22L57 21L56 21L56 22L55 22L55 23L53 23L53 22L54 22L54 21L51 21L51 20L52 20L52 19L53 19L53 20L55 20L55 19L56 19L56 20L57 20L57 19L56 19L56 18L57 18L57 17L56 17L56 16L57 16L57 15L56 15L56 14L57 14L57 13L56 13L56 10L54 10L54 11L53 11L53 9L54 9L54 8L53 8L53 9L52 9L52 8L51 8L51 10L52 10L52 11L50 11L50 12L49 12L49 10L50 10L50 8L49 8L49 9L47 9L47 8L46 8L46 7L47 7L47 5L48 5L48 0L46 0L46 1L45 1L45 2L44 2L44 3L43 3L43 4L40 4L40 5L39 5L39 6L38 6L38 7L37 7L37 5L38 5L38 3L36 3L36 0L35 0L35 1L33 1L33 2L32 2L32 3L31 3L31 2L29 2L29 1L31 1L31 0L29 0L29 1L25 1L25 0L23 0L23 2L27 2L27 3L30 3L30 4L26 4L26 3L23 3L23 4L22 4L22 3L21 3L21 4L19 4L19 3L18 3L18 2L21 2L21 1L22 1L22 0L21 0L21 1L20 1L20 0L19 0L19 1L18 1L18 2L16 2L16 3L17 3L17 4L18 4L18 5L17 5L17 6L16 6L16 7L15 7L15 5L16 5L16 4L15 4L15 5L12 5L12 9L10 9L10 8L11 8L11 1L12 1L12 0ZM37 0L37 1L38 1L38 2L39 2L39 3L41 3L41 2L43 2L43 0L41 0L41 1L40 1L40 0L39 0L39 1L38 1L38 0ZM14 1L14 2L12 2L12 4L14 4L14 2L15 2L15 1ZM46 1L46 2L47 2L47 1ZM32 3L32 4L31 4L31 8L32 8L32 10L31 10L31 11L30 11L30 10L28 10L28 11L29 11L29 12L28 12L28 13L27 13L27 14L26 14L26 12L27 12L27 11L26 11L26 12L25 12L25 10L24 10L24 12L23 12L23 13L22 13L22 12L21 12L21 13L20 13L20 12L19 12L19 13L20 13L20 14L17 14L17 13L18 13L18 12L17 12L17 13L16 13L16 11L15 11L15 13L13 13L13 12L14 12L14 11L13 11L13 10L17 10L17 11L18 11L18 9L15 9L15 7L14 7L14 6L13 6L13 8L14 8L14 9L13 9L13 10L12 10L12 11L13 11L13 12L11 12L11 10L7 10L7 11L6 11L6 12L4 12L4 13L5 13L5 14L3 14L3 13L2 13L2 15L4 15L4 16L5 16L5 17L3 17L3 16L1 16L1 17L3 17L3 20L2 20L2 21L6 21L6 22L5 22L5 24L4 24L4 23L3 23L3 24L4 24L4 25L5 25L5 26L7 26L7 25L6 25L6 24L7 24L7 23L6 23L6 22L7 22L7 21L9 21L9 19L10 19L10 20L11 20L11 18L9 18L9 17L10 17L10 16L11 16L11 17L12 17L12 18L13 18L13 19L14 19L14 20L13 20L13 21L10 21L10 22L9 22L9 23L10 23L10 22L11 22L11 23L13 23L13 24L11 24L11 25L10 25L10 24L8 24L8 26L9 26L9 25L10 25L10 28L11 28L11 29L12 29L12 27L14 27L14 28L15 28L15 29L13 29L13 30L12 30L12 31L9 31L9 32L7 32L7 33L6 33L6 34L7 34L7 35L5 35L5 36L3 36L3 37L4 37L4 39L5 39L5 40L7 40L7 41L8 41L8 42L10 42L10 45L11 45L11 46L12 46L12 48L13 48L13 46L12 46L12 45L11 45L11 43L13 43L13 42L12 42L12 41L14 41L14 40L15 40L15 39L16 39L16 40L17 40L17 41L15 41L15 42L17 42L17 43L18 43L18 42L19 42L19 41L20 41L20 43L22 43L22 42L23 42L23 44L25 44L25 48L24 48L24 49L25 49L25 48L28 48L28 47L29 47L29 45L30 45L30 46L31 46L31 45L33 45L33 46L32 46L32 47L31 47L31 48L32 48L32 49L31 49L31 50L36 50L36 52L37 52L37 51L38 51L38 53L37 53L37 54L40 54L40 53L42 53L42 52L43 52L43 51L42 51L42 50L41 50L41 48L42 48L42 49L43 49L43 48L42 48L42 47L43 47L43 46L41 46L41 44L42 44L42 43L41 43L41 44L39 44L39 45L38 45L38 46L39 46L39 47L38 47L38 48L37 48L37 49L38 49L38 50L36 50L36 49L33 49L33 48L34 48L34 47L33 47L33 46L35 46L35 48L36 48L36 46L37 46L37 45L36 45L36 46L35 46L35 45L34 45L34 43L37 43L37 42L35 42L35 40L38 40L38 42L39 42L39 41L42 41L42 39L45 39L45 38L46 38L46 39L47 39L47 41L45 41L45 40L44 40L44 42L43 42L43 43L44 43L44 45L45 45L45 46L48 46L48 45L49 45L49 46L50 46L50 47L52 47L52 48L53 48L53 47L54 47L54 45L55 45L55 46L56 46L56 43L55 43L55 44L54 44L54 45L52 45L52 44L53 44L53 43L54 43L54 42L53 42L53 41L51 41L51 42L50 42L50 43L49 43L49 42L48 42L48 41L49 41L49 40L50 40L50 39L51 39L51 38L53 38L53 39L55 39L55 37L53 37L53 35L55 35L55 34L54 34L54 33L56 33L56 32L54 32L54 31L48 31L48 29L46 29L46 30L47 30L47 31L46 31L46 32L47 32L47 33L45 33L45 32L43 32L43 31L45 31L45 28L46 28L46 27L48 27L48 25L50 25L50 26L51 26L51 25L55 25L55 24L53 24L53 23L52 23L52 24L51 24L51 23L50 23L50 22L51 22L51 21L49 21L49 20L47 20L47 19L48 19L48 18L47 18L47 17L48 17L48 16L49 16L49 15L50 15L50 14L51 14L51 12L50 12L50 14L49 14L49 15L48 15L48 16L46 16L46 15L45 15L45 14L47 14L47 13L49 13L49 12L48 12L48 11L47 11L47 12L45 12L45 11L44 11L44 9L45 9L45 10L47 10L47 9L45 9L45 7L46 7L46 6L45 6L45 4L46 4L46 5L47 5L47 3L44 3L44 6L43 6L43 5L40 5L40 6L39 6L39 7L40 7L40 8L39 8L39 9L38 9L38 8L37 8L37 7L36 7L36 5L37 5L37 4L36 4L36 5L35 5L35 3ZM21 4L21 7L22 7L22 8L19 8L19 7L20 7L20 5L18 5L18 6L17 6L17 7L16 7L16 8L17 8L17 7L18 7L18 8L19 8L19 9L20 9L20 10L19 10L19 11L22 11L22 10L23 10L23 9L24 9L24 6L23 6L23 5L24 5L24 4L23 4L23 5L22 5L22 4ZM25 4L25 8L26 8L26 4ZM32 4L32 5L33 5L33 4ZM27 5L27 8L30 8L30 5ZM34 5L34 7L33 7L33 6L32 6L32 7L33 7L33 9L34 9L34 8L35 8L35 9L37 9L37 10L36 10L36 12L35 12L35 14L33 14L33 13L34 13L34 12L33 12L33 13L32 13L32 11L33 11L33 10L32 10L32 11L31 11L31 13L30 13L30 14L29 14L29 13L28 13L28 14L29 14L29 16L28 16L28 15L27 15L27 16L26 16L26 14L25 14L25 12L24 12L24 13L23 13L23 14L22 14L22 13L21 13L21 14L20 14L20 15L19 15L19 16L18 16L18 15L17 15L17 18L15 18L15 17L16 17L16 13L15 13L15 14L13 14L13 15L12 15L12 14L11 14L11 12L10 12L10 11L9 11L9 12L10 12L10 13L9 13L9 14L10 14L10 15L11 15L11 16L13 16L13 17L14 17L14 18L15 18L15 21L16 21L16 22L15 22L15 23L14 23L14 24L15 24L15 25L14 25L14 26L15 26L15 25L16 25L16 24L17 24L17 25L18 25L18 26L17 26L17 27L16 27L16 29L15 29L15 32L14 32L14 31L13 31L13 32L12 32L12 33L11 33L11 34L10 34L10 32L9 32L9 33L7 33L7 34L8 34L8 35L7 35L7 36L5 36L5 37L7 37L7 38L6 38L6 39L8 39L8 40L9 40L9 39L10 39L10 42L11 42L11 41L12 41L12 40L14 40L14 39L15 39L15 38L16 38L16 37L15 37L15 36L14 36L14 35L15 35L15 34L13 34L13 36L10 36L10 37L9 37L9 36L8 36L8 35L11 35L11 34L12 34L12 33L13 33L13 32L14 32L14 33L15 33L15 32L17 32L17 30L16 30L16 29L18 29L18 30L19 30L19 29L22 29L22 28L21 28L21 27L22 27L22 26L23 26L23 31L21 31L21 30L20 30L20 31L21 31L21 32L25 32L25 33L23 33L23 34L24 34L24 36L23 36L23 37L24 37L24 38L23 38L23 39L24 39L24 40L25 40L25 36L26 36L26 39L27 39L27 40L28 40L28 39L27 39L27 38L28 38L28 37L27 37L27 36L26 36L26 35L27 35L27 34L26 34L26 35L25 35L25 33L26 33L26 32L28 32L28 33L29 33L29 34L30 34L30 36L29 36L29 37L31 37L31 38L29 38L29 39L33 39L33 40L35 40L35 39L38 39L38 40L40 40L40 39L38 39L38 37L37 37L37 36L38 36L38 33L37 33L37 32L34 32L34 31L35 31L35 30L33 30L33 29L32 29L32 28L31 28L31 26L32 26L32 27L33 27L33 28L35 28L35 29L38 29L38 28L42 28L42 26L43 26L43 25L44 25L44 27L43 27L43 28L45 28L45 25L48 25L48 24L47 24L47 22L49 22L49 21L47 21L47 20L46 20L46 19L45 19L45 18L44 18L44 15L42 15L42 16L41 16L41 15L39 15L39 14L38 14L38 13L40 13L40 14L44 14L44 11L43 11L43 13L40 13L40 12L41 12L41 10L43 10L43 9L44 9L44 7L45 7L45 6L44 6L44 7L43 7L43 6L42 6L42 7L41 7L41 6L40 6L40 7L41 7L41 8L42 8L42 9L40 9L40 10L39 10L39 11L38 11L38 9L37 9L37 8L35 8L35 5ZM18 6L18 7L19 7L19 6ZM22 6L22 7L23 7L23 6ZM28 6L28 7L29 7L29 6ZM48 6L48 7L49 7L49 6ZM55 8L55 9L56 9L56 8ZM21 9L21 10L22 10L22 9ZM7 11L7 12L6 12L6 13L7 13L7 14L6 14L6 15L5 15L5 16L6 16L6 17L8 17L8 16L9 16L9 15L7 15L7 14L8 14L8 13L7 13L7 12L8 12L8 11ZM39 11L39 12L40 12L40 11ZM52 12L52 13L53 13L53 12ZM54 12L54 13L55 13L55 14L56 14L56 13L55 13L55 12ZM31 13L31 14L30 14L30 15L31 15L31 14L32 14L32 13ZM36 13L36 14L37 14L37 15L35 15L35 16L31 16L31 18L30 18L30 19L28 19L28 18L27 18L27 17L28 17L28 16L27 16L27 17L26 17L26 16L23 16L23 15L25 15L25 14L23 14L23 15L20 15L20 16L19 16L19 17L18 17L18 18L19 18L19 19L18 19L18 20L19 20L19 19L21 19L21 20L20 20L20 21L17 21L17 19L16 19L16 21L17 21L17 22L20 22L20 23L19 23L19 25L20 25L20 26L18 26L18 27L17 27L17 28L18 28L18 29L19 29L19 27L20 27L20 26L22 26L22 25L24 25L24 24L25 24L25 25L26 25L26 26L25 26L25 27L24 27L24 28L25 28L25 29L26 29L26 28L25 28L25 27L26 27L26 26L28 26L28 25L29 25L29 26L30 26L30 25L29 25L29 21L30 21L30 20L31 20L31 19L32 19L32 17L33 17L33 19L36 19L36 20L37 20L37 19L39 19L39 17L41 17L41 16L39 16L39 15L38 15L38 14L37 14L37 13ZM6 15L6 16L7 16L7 15ZM13 15L13 16L14 16L14 17L15 17L15 16L14 16L14 15ZM20 16L20 17L19 17L19 18L20 18L20 17L22 17L22 18L21 18L21 19L23 19L23 20L24 20L24 21L23 21L23 22L24 22L24 21L25 21L25 22L26 22L26 23L25 23L25 24L27 24L27 22L28 22L28 21L25 21L25 20L26 20L26 19L25 19L25 17L22 17L22 16ZM35 16L35 17L37 17L37 18L38 18L38 17L39 17L39 16L38 16L38 17L37 17L37 16ZM42 16L42 17L43 17L43 16ZM45 16L45 17L46 17L46 16ZM50 16L50 18L49 18L49 19L51 19L51 17L53 17L53 18L55 18L55 17L54 17L54 16ZM4 18L4 20L6 20L6 21L7 21L7 20L6 20L6 19L8 19L8 18L6 18L6 19L5 19L5 18ZM23 18L23 19L24 19L24 18ZM41 18L41 20L39 20L39 21L38 21L38 23L37 23L37 24L39 24L39 25L38 25L38 26L37 26L37 25L33 25L33 24L32 24L32 23L35 23L35 20L32 20L32 21L31 21L31 23L30 23L30 24L32 24L32 26L33 26L33 27L34 27L34 26L36 26L36 27L35 27L35 28L36 28L36 27L40 27L40 26L39 26L39 25L41 25L41 26L42 26L42 25L43 25L43 22L41 22L41 24L39 24L39 23L40 23L40 22L39 22L39 21L43 21L43 20L44 20L44 25L45 25L45 22L47 22L47 21L45 21L45 20L44 20L44 18L43 18L43 19L42 19L42 18ZM13 21L13 22L14 22L14 21ZM21 21L21 22L22 22L22 21ZM1 22L1 23L2 23L2 22ZM15 23L15 24L16 24L16 23ZM17 23L17 24L18 24L18 23ZM23 23L23 24L24 24L24 23ZM49 23L49 24L50 24L50 23ZM20 24L20 25L22 25L22 24ZM41 24L41 25L42 25L42 24ZM11 25L11 26L12 26L12 25ZM53 26L53 27L54 27L54 26ZM5 27L5 30L8 30L8 27ZM27 27L27 30L30 30L30 27ZM49 27L49 30L52 30L52 27ZM3 28L3 29L4 29L4 28ZM6 28L6 29L7 29L7 28ZM28 28L28 29L29 29L29 28ZM50 28L50 29L51 29L51 28ZM54 28L54 30L55 30L55 28ZM9 29L9 30L10 30L10 29ZM31 29L31 31L30 31L30 32L29 32L29 33L31 33L31 31L32 31L32 34L35 34L35 36L32 36L32 37L33 37L33 39L35 39L35 36L37 36L37 34L35 34L35 33L34 33L34 32L33 32L33 30L32 30L32 29ZM39 29L39 30L38 30L38 32L39 32L39 31L41 31L41 30L44 30L44 29ZM24 30L24 31L25 31L25 32L26 32L26 31L25 31L25 30ZM18 31L18 33L17 33L17 35L16 35L16 36L17 36L17 37L19 37L19 38L20 38L20 39L17 39L17 40L18 40L18 41L17 41L17 42L18 42L18 41L19 41L19 40L21 40L21 39L22 39L22 37L19 37L19 36L20 36L20 33L19 33L19 31ZM47 31L47 32L48 32L48 33L49 33L49 32L48 32L48 31ZM41 32L41 33L39 33L39 34L40 34L40 35L39 35L39 37L40 37L40 38L43 38L43 37L44 37L44 38L45 38L45 37L47 37L47 39L48 39L48 37L47 37L47 35L46 35L46 34L45 34L45 35L44 35L44 33L43 33L43 32ZM50 32L50 34L49 34L49 35L50 35L50 38L49 38L49 39L50 39L50 38L51 38L51 36L52 36L52 35L53 35L53 34L52 34L52 33L54 33L54 32L52 32L52 33L51 33L51 32ZM18 33L18 35L17 35L17 36L18 36L18 35L19 35L19 33ZM21 33L21 34L22 34L22 33ZM42 34L42 35L43 35L43 36L44 36L44 37L45 37L45 36L44 36L44 35L43 35L43 34ZM50 34L50 35L52 35L52 34ZM1 35L1 36L2 36L2 35ZM21 35L21 36L22 36L22 35ZM13 36L13 37L12 37L12 38L11 38L11 37L10 37L10 38L11 38L11 39L12 39L12 38L14 38L14 36ZM40 36L40 37L42 37L42 36ZM8 37L8 38L9 38L9 37ZM31 40L31 41L32 41L32 42L27 42L27 41L26 41L26 42L27 42L27 43L25 43L25 44L27 44L27 45L26 45L26 47L27 47L27 45L29 45L29 43L30 43L30 45L31 45L31 44L33 44L33 43L34 43L34 42L33 42L33 41L32 41L32 40ZM23 41L23 42L25 42L25 41ZM2 42L2 43L3 43L3 42ZM32 42L32 43L33 43L33 42ZM45 42L45 43L46 43L46 44L45 44L45 45L47 45L47 43L48 43L48 42ZM51 42L51 43L50 43L50 44L49 44L49 45L50 45L50 46L51 46L51 45L50 45L50 44L51 44L51 43L53 43L53 42ZM15 43L15 45L14 45L14 44L13 44L13 45L14 45L14 47L15 47L15 46L17 46L17 45L18 45L18 44L17 44L17 45L16 45L16 43ZM19 44L19 45L20 45L20 46L19 46L19 47L17 47L17 48L19 48L19 47L20 47L20 48L21 48L21 49L15 49L15 50L12 50L12 49L11 49L11 48L10 48L10 46L9 46L9 45L8 45L8 46L7 46L7 47L8 47L8 46L9 46L9 50L11 50L11 51L10 51L10 52L12 52L12 51L16 51L16 53L15 53L15 54L14 54L14 52L13 52L13 54L11 54L11 53L9 53L9 55L10 55L10 56L11 56L11 55L13 55L13 56L16 56L16 55L15 55L15 54L16 54L16 53L17 53L17 52L18 52L18 51L19 51L19 50L20 50L20 51L22 51L22 50L21 50L21 49L23 49L23 47L24 47L24 46L23 46L23 45L22 45L22 44ZM21 45L21 46L20 46L20 47L23 47L23 46L22 46L22 45ZM40 46L40 47L39 47L39 48L38 48L38 49L39 49L39 48L41 48L41 46ZM52 46L52 47L53 47L53 46ZM32 47L32 48L33 48L33 47ZM48 47L48 48L47 48L47 49L48 49L48 48L49 48L49 47ZM54 48L54 49L56 49L56 48ZM27 49L27 52L30 52L30 49ZM49 49L49 52L52 52L52 49ZM16 50L16 51L18 51L18 50ZM28 50L28 51L29 51L29 50ZM38 50L38 51L40 51L40 52L42 52L42 51L41 51L41 50ZM50 50L50 51L51 51L51 50ZM31 51L31 53L30 53L30 54L26 54L26 53L24 53L24 54L23 54L23 55L24 55L24 56L25 56L25 54L26 54L26 55L27 55L27 56L29 56L29 55L30 55L30 56L31 56L31 54L32 54L32 53L33 53L33 54L35 54L35 56L36 56L36 54L35 54L35 51L33 51L33 52L32 52L32 51ZM33 52L33 53L34 53L34 52ZM53 52L53 54L54 54L54 52ZM43 53L43 54L44 54L44 53ZM17 54L17 55L18 55L18 54ZM37 55L37 56L39 56L39 55ZM50 55L50 56L51 56L51 55ZM43 56L43 57L44 57L44 56ZM0 0L0 7L7 7L7 0ZM1 1L1 6L6 6L6 1ZM2 2L2 5L5 5L5 2ZM50 0L50 7L57 7L57 0ZM51 1L51 6L56 6L56 1ZM52 2L52 5L55 5L55 2ZM0 50L0 57L7 57L7 50ZM1 51L1 56L6 56L6 51ZM2 52L2 55L5 55L5 52Z" fill="#000000"/></g></g></svg>
