<?xml version="1.0" encoding="UTF-8"?>
<svg xmlns="http://www.w3.org/2000/svg" version="1.1" width="300" height="300" viewBox="0 0 300 300"><rect x="0" y="0" width="300" height="300" fill="#fefefe"/><g transform="scale(4.615)"><g transform="translate(4,4)"><path fill-rule="evenodd" d="M10 0L10 1L12 1L12 3L11 3L11 2L9 2L9 1L8 1L8 2L9 2L9 3L8 3L8 4L9 4L9 5L8 5L8 7L9 7L9 6L10 6L10 8L12 8L12 7L13 7L13 5L11 5L11 4L12 4L12 3L13 3L13 4L14 4L14 2L15 2L15 0L14 0L14 2L13 2L13 1L12 1L12 0ZM17 0L17 2L18 2L18 4L17 4L17 6L16 6L16 7L15 7L15 6L14 6L14 7L15 7L15 8L16 8L16 9L15 9L15 10L14 10L14 8L13 8L13 9L11 9L11 10L10 10L10 9L9 9L9 8L6 8L6 9L7 9L7 10L5 10L5 8L0 8L0 9L1 9L1 10L2 10L2 9L3 9L3 10L5 10L5 11L0 11L0 16L1 16L1 14L2 14L2 15L4 15L4 14L3 14L3 12L6 12L6 13L5 13L5 14L6 14L6 15L7 15L7 14L8 14L8 15L10 15L10 17L11 17L11 18L12 18L12 19L10 19L10 20L9 20L9 19L8 19L8 18L6 18L6 17L8 17L8 16L6 16L6 17L5 17L5 16L2 16L2 17L1 17L1 18L0 18L0 19L1 19L1 18L2 18L2 19L3 19L3 22L4 22L4 23L3 23L3 24L1 24L1 23L2 23L2 22L0 22L0 26L1 26L1 25L2 25L2 26L3 26L3 24L4 24L4 29L3 29L3 30L2 30L2 28L1 28L1 27L0 27L0 30L2 30L2 32L0 32L0 35L2 35L2 36L0 36L0 40L1 40L1 37L2 37L2 38L4 38L4 39L2 39L2 40L3 40L3 41L4 41L4 42L2 42L2 41L1 41L1 42L0 42L0 48L5 48L5 47L7 47L7 48L6 48L6 49L8 49L8 51L9 51L9 52L8 52L8 57L10 57L10 56L13 56L13 57L15 57L15 55L16 55L16 56L17 56L17 57L21 57L21 56L24 56L24 57L26 57L26 56L24 56L24 55L23 55L23 54L24 54L24 53L27 53L27 54L30 54L30 53L31 53L31 49L32 49L32 52L33 52L33 51L34 51L34 50L33 50L33 49L34 49L34 48L35 48L35 49L36 49L36 50L35 50L35 52L34 52L34 53L35 53L35 54L36 54L36 56L35 56L35 55L34 55L34 54L33 54L33 53L32 53L32 54L31 54L31 56L30 56L30 55L29 55L29 56L27 56L27 57L29 57L29 56L30 56L30 57L31 57L31 56L35 56L35 57L39 57L39 56L41 56L41 57L44 57L44 56L42 56L42 55L44 55L44 54L45 54L45 53L47 53L47 54L46 54L46 55L45 55L45 57L49 57L49 56L50 56L50 57L52 57L52 55L51 55L51 53L52 53L52 54L53 54L53 55L54 55L54 56L53 56L53 57L54 57L54 56L55 56L55 57L56 57L56 56L55 56L55 55L54 55L54 54L55 54L55 52L56 52L56 50L55 50L55 48L56 48L56 49L57 49L57 48L56 48L56 46L57 46L57 43L56 43L56 42L57 42L57 41L56 41L56 42L55 42L55 41L53 41L53 40L55 40L55 39L57 39L57 37L56 37L56 36L57 36L57 35L56 35L56 33L57 33L57 32L56 32L56 30L57 30L57 29L56 29L56 28L57 28L57 27L56 27L56 26L57 26L57 25L56 25L56 22L57 22L57 21L56 21L56 22L54 22L54 21L51 21L51 20L52 20L52 19L53 19L53 20L55 20L55 19L56 19L56 20L57 20L57 19L56 19L56 16L57 16L57 15L56 15L56 14L57 14L57 12L56 12L56 14L53 14L53 13L54 13L54 12L55 12L55 11L56 11L56 10L54 10L54 11L51 11L51 10L53 10L53 9L54 9L54 8L53 8L53 9L52 9L52 8L51 8L51 10L50 10L50 8L47 8L47 5L48 5L48 0L46 0L46 1L45 1L45 2L44 2L44 3L41 3L41 2L43 2L43 0L41 0L41 1L40 1L40 0L39 0L39 1L38 1L38 0L37 0L37 1L38 1L38 2L39 2L39 3L38 3L38 4L37 4L37 3L36 3L36 0L35 0L35 1L33 1L33 0L30 0L30 1L28 1L28 2L27 2L27 1L25 1L25 0L23 0L23 1L22 1L22 0L21 0L21 1L20 1L20 0ZM19 1L19 4L18 4L18 6L17 6L17 7L16 7L16 8L17 8L17 7L18 7L18 6L19 6L19 7L20 7L20 5L19 5L19 4L21 4L21 5L22 5L22 6L21 6L21 7L22 7L22 6L23 6L23 8L19 8L19 9L18 9L18 10L17 10L17 9L16 9L16 10L15 10L15 13L13 13L13 14L12 14L12 15L11 15L11 16L12 16L12 17L13 17L13 19L14 19L14 20L13 20L13 21L14 21L14 23L12 23L12 24L13 24L13 25L11 25L11 23L10 23L10 21L9 21L9 20L7 20L7 19L6 19L6 18L5 18L5 17L2 17L2 18L5 18L5 19L4 19L4 20L5 20L5 19L6 19L6 20L7 20L7 21L6 21L6 22L5 22L5 21L4 21L4 22L5 22L5 23L6 23L6 24L7 24L7 25L6 25L6 26L8 26L8 25L9 25L9 24L7 24L7 23L10 23L10 26L12 26L12 28L10 28L10 27L9 27L9 29L12 29L12 28L13 28L13 30L12 30L12 32L13 32L13 30L14 30L14 28L15 28L15 29L16 29L16 30L17 30L17 31L19 31L19 32L21 32L21 33L18 33L18 32L16 32L16 33L15 33L15 34L17 34L17 33L18 33L18 35L17 35L17 36L16 36L16 35L15 35L15 36L14 36L14 37L12 37L12 38L11 38L11 36L12 36L12 35L13 35L13 34L11 34L11 30L9 30L9 33L8 33L8 31L6 31L6 32L7 32L7 33L5 33L5 32L4 32L4 30L3 30L3 32L2 32L2 33L1 33L1 34L2 34L2 35L3 35L3 37L4 37L4 38L5 38L5 37L6 37L6 38L7 38L7 39L6 39L6 40L5 40L5 41L6 41L6 42L8 42L8 43L5 43L5 42L4 42L4 43L5 43L5 44L8 44L8 43L10 43L10 44L9 44L9 45L8 45L8 46L9 46L9 47L8 47L8 49L10 49L10 52L9 52L9 53L10 53L10 54L9 54L9 56L10 56L10 55L12 55L12 54L14 54L14 55L13 55L13 56L14 56L14 55L15 55L15 54L16 54L16 53L17 53L17 54L18 54L18 55L17 55L17 56L18 56L18 55L19 55L19 56L21 56L21 55L22 55L22 54L23 54L23 53L24 53L24 52L26 52L26 51L25 51L25 50L23 50L23 52L22 52L22 50L21 50L21 49L23 49L23 47L25 47L25 48L24 48L24 49L26 49L26 48L30 48L30 47L29 47L29 45L30 45L30 46L31 46L31 45L32 45L32 46L35 46L35 48L36 48L36 47L37 47L37 45L34 45L34 43L37 43L37 42L35 42L35 40L38 40L38 42L39 42L39 45L38 45L38 46L39 46L39 47L38 47L38 48L37 48L37 49L38 49L38 50L36 50L36 52L37 52L37 51L38 51L38 54L40 54L40 53L41 53L41 52L42 52L42 53L43 53L43 54L44 54L44 53L45 53L45 52L46 52L46 51L47 51L47 53L48 53L48 50L47 50L47 49L48 49L48 48L49 48L49 47L48 47L48 46L47 46L47 45L49 45L49 44L50 44L50 47L51 47L51 46L53 46L53 45L51 45L51 44L53 44L53 43L54 43L54 42L53 42L53 41L51 41L51 42L50 42L50 43L49 43L49 42L48 42L48 41L49 41L49 39L51 39L51 40L53 40L53 39L55 39L55 37L53 37L53 35L55 35L55 34L54 34L54 32L53 32L53 31L52 31L52 32L51 32L51 33L52 33L52 34L50 34L50 32L49 32L49 31L48 31L48 28L47 28L47 29L46 29L46 30L47 30L47 31L45 31L45 32L43 32L43 31L44 31L44 30L45 30L45 28L46 28L46 27L47 27L47 25L48 25L48 24L50 24L50 22L51 22L51 21L49 21L49 20L47 20L47 19L46 19L46 18L47 18L47 17L48 17L48 16L49 16L49 17L50 17L50 18L48 18L48 19L52 19L52 18L51 18L51 17L50 17L50 16L52 16L52 17L53 17L53 18L55 18L55 17L53 17L53 16L52 16L52 15L50 15L50 14L51 14L51 12L50 12L50 10L47 10L47 8L46 8L46 5L47 5L47 3L44 3L44 6L43 6L43 5L42 5L42 4L41 4L41 3L39 3L39 4L38 4L38 5L37 5L37 4L36 4L36 5L35 5L35 4L34 4L34 3L35 3L35 2L33 2L33 3L32 3L32 1L30 1L30 2L28 2L28 3L27 3L27 2L22 2L22 1L21 1L21 2L22 2L22 3L20 3L20 1ZM46 1L46 2L47 2L47 1ZM23 3L23 4L24 4L24 5L23 5L23 6L24 6L24 8L23 8L23 9L24 9L24 10L22 10L22 11L21 11L21 12L22 12L22 13L21 13L21 15L23 15L23 16L25 16L25 17L22 17L22 16L21 16L21 17L22 17L22 18L24 18L24 19L23 19L23 20L24 20L24 21L22 21L22 20L21 20L21 21L22 21L22 22L21 22L21 24L17 24L17 21L18 21L18 22L19 22L19 23L20 23L20 22L19 22L19 21L20 21L20 15L19 15L19 14L20 14L20 12L19 12L19 11L20 11L20 9L19 9L19 10L18 10L18 11L17 11L17 12L16 12L16 13L15 13L15 14L14 14L14 15L12 15L12 16L13 16L13 17L14 17L14 18L15 18L15 19L16 19L16 20L15 20L15 21L16 21L16 22L15 22L15 23L16 23L16 24L17 24L17 25L21 25L21 26L19 26L19 27L20 27L20 28L19 28L19 29L18 29L18 28L16 28L16 29L18 29L18 30L19 30L19 29L22 29L22 28L21 28L21 27L22 27L22 26L23 26L23 30L24 30L24 31L26 31L26 32L25 32L25 33L23 33L23 34L24 34L24 36L23 36L23 37L24 37L24 38L22 38L22 37L19 37L19 36L17 36L17 39L18 39L18 40L17 40L17 41L19 41L19 42L18 42L18 43L14 43L14 44L13 44L13 45L12 45L12 44L11 44L11 45L9 45L9 46L10 46L10 47L9 47L9 48L10 48L10 49L11 49L11 50L13 50L13 52L14 52L14 54L15 54L15 53L16 53L16 52L15 52L15 51L14 51L14 50L15 50L15 49L17 49L17 50L16 50L16 51L19 51L19 52L17 52L17 53L20 53L20 52L21 52L21 51L19 51L19 50L20 50L20 49L19 49L19 48L20 48L20 46L19 46L19 45L21 45L21 47L23 47L23 46L25 46L25 44L27 44L27 43L28 43L28 44L30 44L30 45L31 45L31 44L33 44L33 43L34 43L34 42L33 42L33 41L32 41L32 40L28 40L28 39L27 39L27 38L28 38L28 37L27 37L27 35L26 35L26 34L25 34L25 33L26 33L26 32L27 32L27 31L29 31L29 32L28 32L28 33L29 33L29 34L30 34L30 36L29 36L29 37L31 37L31 38L29 38L29 39L33 39L33 40L35 40L35 39L38 39L38 40L40 40L40 39L38 39L38 37L40 37L40 38L43 38L43 37L44 37L44 38L45 38L45 39L43 39L43 40L42 40L42 41L41 41L41 42L40 42L40 44L41 44L41 45L39 45L39 46L40 46L40 47L39 47L39 48L38 48L38 49L39 49L39 48L41 48L41 50L38 50L38 51L40 51L40 52L41 52L41 50L42 50L42 51L43 51L43 53L44 53L44 52L45 52L45 51L46 51L46 50L44 50L44 51L43 51L43 49L44 49L44 48L46 48L46 49L47 49L47 48L48 48L48 47L47 47L47 46L45 46L45 45L47 45L47 43L48 43L48 42L46 42L46 44L45 44L45 45L44 45L44 43L43 43L43 42L44 42L44 41L43 41L43 40L45 40L45 39L46 39L46 40L47 40L47 39L48 39L48 38L50 38L50 36L51 36L51 37L52 37L52 35L53 35L53 34L52 34L52 35L50 35L50 34L49 34L49 35L50 35L50 36L49 36L49 37L48 37L48 38L47 38L47 39L46 39L46 38L45 38L45 37L46 37L46 36L47 36L47 35L44 35L44 36L43 36L43 37L40 37L40 36L42 36L42 34L45 34L45 33L46 33L46 32L45 32L45 33L43 33L43 32L41 32L41 33L39 33L39 34L40 34L40 35L39 35L39 36L38 36L38 33L37 33L37 32L35 32L35 30L33 30L33 33L32 33L32 32L31 32L31 33L29 33L29 32L30 32L30 31L32 31L32 30L31 30L31 29L32 29L32 28L31 28L31 26L32 26L32 27L33 27L33 28L35 28L35 29L38 29L38 28L42 28L42 27L41 27L41 26L43 26L43 28L45 28L45 27L46 27L46 26L45 26L45 27L44 27L44 24L43 24L43 23L44 23L44 20L45 20L45 18L46 18L46 17L45 17L45 18L44 18L44 15L42 15L42 16L41 16L41 14L44 14L44 11L45 11L45 12L49 12L49 13L47 13L47 14L45 14L45 16L46 16L46 15L47 15L47 16L48 16L48 15L49 15L49 14L50 14L50 12L49 12L49 11L47 11L47 10L46 10L46 9L45 9L45 10L44 10L44 7L45 7L45 6L44 6L44 7L43 7L43 6L42 6L42 5L41 5L41 4L40 4L40 5L39 5L39 6L38 6L38 8L35 8L35 5L34 5L34 4L32 4L32 3L31 3L31 4L26 4L26 3ZM15 4L15 5L16 5L16 4ZM25 4L25 8L24 8L24 9L25 9L25 8L26 8L26 4ZM31 4L31 8L32 8L32 10L31 10L31 11L30 11L30 10L29 10L29 9L28 9L28 10L29 10L29 12L28 12L28 13L27 13L27 15L26 15L26 14L25 14L25 15L26 15L26 20L25 20L25 21L24 21L24 22L23 22L23 23L24 23L24 24L25 24L25 25L26 25L26 26L24 26L24 27L26 27L26 26L28 26L28 25L29 25L29 26L30 26L30 25L29 25L29 24L30 24L30 23L31 23L31 24L32 24L32 26L33 26L33 27L34 27L34 26L36 26L36 27L35 27L35 28L36 28L36 27L40 27L40 26L41 26L41 25L43 25L43 24L42 24L42 22L41 22L41 24L40 24L40 22L39 22L39 21L43 21L43 20L44 20L44 18L43 18L43 20L42 20L42 18L41 18L41 20L39 20L39 21L38 21L38 23L37 23L37 24L38 24L38 26L37 26L37 25L33 25L33 24L32 24L32 23L33 23L33 22L34 22L34 23L35 23L35 19L36 19L36 20L37 20L37 19L39 19L39 17L41 17L41 16L39 16L39 15L38 15L38 14L40 14L40 13L43 13L43 11L41 11L41 10L40 10L40 11L39 11L39 12L40 12L40 13L38 13L38 14L37 14L37 15L35 15L35 16L32 16L32 15L31 15L31 14L30 14L30 13L31 13L31 11L32 11L32 10L33 10L33 12L32 12L32 14L36 14L36 13L35 13L35 12L37 12L37 11L38 11L38 10L39 10L39 9L41 9L41 7L42 7L42 6L41 6L41 5L40 5L40 6L39 6L39 8L38 8L38 10L37 10L37 9L35 9L35 8L34 8L34 9L33 9L33 7L34 7L34 5L32 5L32 4ZM45 4L45 5L46 5L46 4ZM10 5L10 6L11 6L11 7L12 7L12 6L11 6L11 5ZM27 5L27 8L30 8L30 5ZM36 5L36 7L37 7L37 5ZM28 6L28 7L29 7L29 6ZM32 6L32 7L33 7L33 6ZM40 6L40 7L41 7L41 6ZM48 6L48 7L49 7L49 6ZM42 8L42 9L43 9L43 8ZM55 8L55 9L56 9L56 8ZM7 10L7 11L6 11L6 12L8 12L8 14L11 14L11 13L12 13L12 11L13 11L13 12L14 12L14 11L13 11L13 10L11 10L11 12L10 12L10 13L9 13L9 11L10 11L10 10L9 10L9 11L8 11L8 10ZM36 10L36 11L37 11L37 10ZM45 10L45 11L46 11L46 10ZM23 11L23 13L22 13L22 14L23 14L23 13L26 13L26 12L27 12L27 11L26 11L26 12L25 12L25 11ZM40 11L40 12L41 12L41 11ZM17 12L17 13L16 13L16 16L15 16L15 15L14 15L14 17L15 17L15 18L17 18L17 20L16 20L16 21L17 21L17 20L18 20L18 17L17 17L17 16L19 16L19 15L17 15L17 13L18 13L18 12ZM33 12L33 13L34 13L34 12ZM52 12L52 13L53 13L53 12ZM6 13L6 14L7 14L7 13ZM28 13L28 14L29 14L29 16L28 16L28 15L27 15L27 16L28 16L28 17L27 17L27 18L28 18L28 19L27 19L27 20L28 20L28 19L30 19L30 20L29 20L29 21L30 21L30 22L28 22L28 23L27 23L27 21L25 21L25 22L26 22L26 23L25 23L25 24L29 24L29 23L30 23L30 22L31 22L31 21L32 21L32 20L33 20L33 21L34 21L34 20L33 20L33 17L32 17L32 16L31 16L31 15L30 15L30 14L29 14L29 13ZM35 16L35 17L37 17L37 18L38 18L38 17L39 17L39 16L38 16L38 17L37 17L37 16ZM42 16L42 17L43 17L43 16ZM31 17L31 18L30 18L30 19L31 19L31 18L32 18L32 17ZM0 20L0 21L2 21L2 20ZM7 21L7 22L6 22L6 23L7 23L7 22L9 22L9 21ZM11 21L11 22L12 22L12 21ZM47 21L47 22L46 22L46 23L45 23L45 24L46 24L46 25L47 25L47 24L46 24L46 23L49 23L49 21ZM38 23L38 24L39 24L39 25L40 25L40 24L39 24L39 23ZM51 23L51 25L49 25L49 26L53 26L53 27L54 27L54 26L53 26L53 23ZM14 24L14 25L13 25L13 26L14 26L14 27L15 27L15 24ZM21 24L21 25L23 25L23 24ZM54 24L54 25L55 25L55 24ZM16 26L16 27L18 27L18 26ZM5 27L5 30L8 30L8 27ZM27 27L27 30L30 30L30 27ZM49 27L49 30L52 30L52 27ZM6 28L6 29L7 29L7 28ZM25 28L25 29L26 29L26 28ZM28 28L28 29L29 29L29 28ZM50 28L50 29L51 29L51 28ZM54 28L54 29L55 29L55 28ZM39 29L39 30L38 30L38 32L39 32L39 31L41 31L41 30L44 30L44 29ZM54 30L54 31L55 31L55 30ZM14 31L14 32L15 32L15 31ZM21 31L21 32L23 32L23 31ZM47 31L47 32L48 32L48 33L49 33L49 32L48 32L48 31ZM52 32L52 33L53 33L53 32ZM55 32L55 33L56 33L56 32ZM3 33L3 34L4 34L4 33ZM21 33L21 34L22 34L22 33ZM31 33L31 35L33 35L33 36L32 36L32 37L33 37L33 39L35 39L35 37L34 37L34 35L35 35L35 36L37 36L37 34L35 34L35 33L33 33L33 34L32 34L32 33ZM6 34L6 35L5 35L5 36L4 36L4 37L5 37L5 36L6 36L6 37L8 37L8 38L9 38L9 37L10 37L10 36L11 36L11 35L10 35L10 34L8 34L8 35L7 35L7 34ZM19 34L19 35L20 35L20 34ZM6 35L6 36L7 36L7 35ZM8 35L8 37L9 37L9 36L10 36L10 35ZM44 36L44 37L45 37L45 36ZM14 37L14 39L13 39L13 38L12 38L12 39L10 39L10 40L12 40L12 42L10 42L10 41L9 41L9 42L10 42L10 43L12 43L12 42L13 42L13 40L14 40L14 39L15 39L15 40L16 40L16 39L15 39L15 38L16 38L16 37ZM18 37L18 38L19 38L19 39L20 39L20 38L19 38L19 37ZM25 37L25 40L24 40L24 39L23 39L23 40L22 40L22 39L21 39L21 41L20 41L20 40L19 40L19 41L20 41L20 42L19 42L19 44L20 44L20 42L21 42L21 43L22 43L22 42L23 42L23 40L24 40L24 41L25 41L25 43L24 43L24 44L23 44L23 45L22 45L22 44L21 44L21 45L22 45L22 46L23 46L23 45L24 45L24 44L25 44L25 43L27 43L27 42L32 42L32 43L33 43L33 42L32 42L32 41L27 41L27 40L26 40L26 38L27 38L27 37ZM51 38L51 39L52 39L52 38ZM7 39L7 40L6 40L6 41L7 41L7 40L9 40L9 39ZM14 41L14 42L15 42L15 41ZM21 41L21 42L22 42L22 41ZM26 41L26 42L27 42L27 41ZM1 42L1 43L2 43L2 44L1 44L1 47L2 47L2 44L3 44L3 43L2 43L2 42ZM41 42L41 44L42 44L42 42ZM51 42L51 43L50 43L50 44L51 44L51 43L53 43L53 42ZM55 43L55 44L54 44L54 45L55 45L55 46L54 46L54 47L55 47L55 46L56 46L56 43ZM15 44L15 46L12 46L12 45L11 45L11 47L10 47L10 48L11 48L11 49L13 49L13 47L15 47L15 48L14 48L14 49L15 49L15 48L17 48L17 47L18 47L18 46L17 46L17 45L18 45L18 44L17 44L17 45L16 45L16 44ZM3 45L3 47L5 47L5 45ZM6 45L6 46L7 46L7 45ZM26 45L26 47L27 47L27 45ZM43 45L43 46L41 46L41 48L42 48L42 49L43 49L43 48L44 48L44 45ZM15 46L15 47L16 47L16 46ZM32 47L32 49L33 49L33 47ZM42 47L42 48L43 48L43 47ZM46 47L46 48L47 48L47 47ZM53 48L53 49L54 49L54 48ZM27 49L27 52L30 52L30 49ZM49 49L49 52L52 52L52 49ZM28 50L28 51L29 51L29 50ZM50 50L50 51L51 51L51 50ZM54 50L54 51L55 51L55 50ZM11 51L11 52L10 52L10 53L11 53L11 54L12 54L12 53L11 53L11 52L12 52L12 51ZM53 52L53 53L54 53L54 52ZM19 54L19 55L20 55L20 54ZM25 54L25 55L26 55L26 54ZM41 54L41 55L42 55L42 54ZM37 55L37 56L39 56L39 55ZM47 55L47 56L48 56L48 55ZM50 55L50 56L51 56L51 55ZM0 0L0 7L7 7L7 0ZM1 1L1 6L6 6L6 1ZM2 2L2 5L5 5L5 2ZM50 0L50 7L57 7L57 0ZM51 1L51 6L56 6L56 1ZM52 2L52 5L55 5L55 2ZM0 50L0 57L7 57L7 50ZM1 51L1 56L6 56L6 51ZM2 52L2 55L5 55L5 52Z" fill="#000000"/></g></g></svg>
