<?xml version="1.0" encoding="UTF-8"?>
<svg xmlns="http://www.w3.org/2000/svg" version="1.1" width="300" height="300" viewBox="0 0 300 300"><rect x="0" y="0" width="300" height="300" fill="#fefefe"/><g transform="scale(4.615)"><g transform="translate(4,4)"><path fill-rule="evenodd" d="M13 0L13 1L14 1L14 2L13 2L13 4L14 4L14 2L15 2L15 1L14 1L14 0ZM17 0L17 1L16 1L16 2L17 2L17 1L18 1L18 2L19 2L19 3L17 3L17 4L19 4L19 5L20 5L20 7L19 7L19 6L18 6L18 5L17 5L17 6L16 6L16 7L15 7L15 5L16 5L16 4L15 4L15 5L14 5L14 7L13 7L13 5L12 5L12 3L11 3L11 2L12 2L12 1L8 1L8 2L9 2L9 3L8 3L8 4L9 4L9 3L11 3L11 6L10 6L10 5L8 5L8 7L9 7L9 8L6 8L6 9L5 9L5 8L0 8L0 9L1 9L1 10L0 10L0 12L3 12L3 11L1 11L1 10L4 10L4 11L5 11L5 10L6 10L6 11L7 11L7 12L4 12L4 13L2 13L2 14L5 14L5 15L7 15L7 16L4 16L4 15L3 15L3 16L2 16L2 17L3 17L3 16L4 16L4 18L6 18L6 19L5 19L5 21L4 21L4 19L1 19L1 21L0 21L0 26L2 26L2 25L3 25L3 23L1 23L1 21L3 21L3 22L4 22L4 23L5 23L5 22L6 22L6 23L7 23L7 22L6 22L6 21L8 21L8 20L9 20L9 21L10 21L10 22L8 22L8 23L9 23L9 25L8 25L8 26L4 26L4 28L3 28L3 27L1 27L1 28L0 28L0 29L2 29L2 31L1 31L1 32L2 32L2 33L0 33L0 35L4 35L4 40L1 40L1 36L0 36L0 48L5 48L5 47L7 47L7 48L6 48L6 49L8 49L8 51L9 51L9 52L8 52L8 57L11 57L11 56L12 56L12 57L16 57L16 56L17 56L17 57L20 57L20 56L17 56L17 54L18 54L18 55L20 55L20 54L19 54L19 53L20 53L20 52L23 52L23 51L22 51L22 50L26 50L26 52L24 52L24 53L21 53L21 54L22 54L22 55L23 55L23 56L24 56L24 57L26 57L26 56L24 56L24 55L23 55L23 54L24 54L24 53L27 53L27 54L30 54L30 53L31 53L31 51L32 51L32 52L33 52L33 53L32 53L32 54L31 54L31 56L30 56L30 55L29 55L29 56L27 56L27 57L29 57L29 56L30 56L30 57L31 57L31 56L35 56L35 57L39 57L39 56L37 56L37 55L41 55L41 57L42 57L42 55L43 55L43 57L44 57L44 54L46 54L46 55L47 55L47 56L46 56L46 57L48 57L48 56L50 56L50 57L52 57L52 55L51 55L51 53L52 53L52 54L53 54L53 55L54 55L54 56L53 56L53 57L54 57L54 56L55 56L55 57L56 57L56 56L55 56L55 51L56 51L56 53L57 53L57 51L56 51L56 50L57 50L57 48L56 48L56 46L57 46L57 43L56 43L56 41L55 41L55 39L57 39L57 36L56 36L56 34L57 34L57 32L56 32L56 30L57 30L57 29L55 29L55 31L53 31L53 29L54 29L54 28L56 28L56 27L55 27L55 26L57 26L57 25L56 25L56 22L57 22L57 21L56 21L56 20L55 20L55 19L56 19L56 16L57 16L57 15L56 15L56 14L57 14L57 13L56 13L56 14L54 14L54 15L53 15L53 13L54 13L54 12L57 12L57 11L56 11L56 10L54 10L54 11L50 11L50 8L49 8L49 9L48 9L48 8L46 8L46 7L47 7L47 5L48 5L48 0L46 0L46 1L45 1L45 2L44 2L44 3L42 3L42 2L43 2L43 0L41 0L41 1L40 1L40 0L39 0L39 1L38 1L38 0L37 0L37 1L38 1L38 2L39 2L39 3L41 3L41 4L40 4L40 5L39 5L39 6L38 6L38 7L37 7L37 5L38 5L38 3L36 3L36 0L35 0L35 1L31 1L31 0L29 0L29 1L28 1L28 0L27 0L27 1L26 1L26 0L23 0L23 1L22 1L22 0L21 0L21 1L20 1L20 0ZM19 1L19 2L20 2L20 1ZM21 1L21 2L22 2L22 3L19 3L19 4L22 4L22 5L21 5L21 7L22 7L22 8L19 8L19 7L18 7L18 6L17 6L17 7L16 7L16 8L17 8L17 7L18 7L18 8L19 8L19 9L20 9L20 10L19 10L19 13L20 13L20 14L21 14L21 13L22 13L22 14L23 14L23 13L25 13L25 15L26 15L26 17L28 17L28 16L29 16L29 14L30 14L30 15L31 15L31 16L32 16L32 17L33 17L33 18L30 18L30 19L33 19L33 18L35 18L35 19L36 19L36 20L37 20L37 19L39 19L39 17L41 17L41 16L42 16L42 17L43 17L43 16L42 16L42 15L44 15L44 18L43 18L43 19L42 19L42 18L41 18L41 20L39 20L39 21L38 21L38 22L37 22L37 24L40 24L40 25L38 25L38 26L37 26L37 25L33 25L33 24L32 24L32 23L33 23L33 22L34 22L34 23L35 23L35 21L33 21L33 20L32 20L32 21L31 21L31 20L27 20L27 19L28 19L28 18L26 18L26 20L25 20L25 21L24 21L24 20L20 20L20 19L22 19L22 17L25 17L25 16L23 16L23 15L20 15L20 16L19 16L19 15L17 15L17 13L18 13L18 12L17 12L17 11L18 11L18 10L17 10L17 9L15 9L15 7L14 7L14 9L13 9L13 8L12 8L12 6L11 6L11 8L12 8L12 9L11 9L11 10L10 10L10 8L9 8L9 10L10 10L10 11L11 11L11 12L9 12L9 11L8 11L8 12L7 12L7 13L5 13L5 14L7 14L7 15L8 15L8 16L7 16L7 17L6 17L6 18L7 18L7 17L8 17L8 19L6 19L6 20L8 20L8 19L9 19L9 20L10 20L10 21L11 21L11 22L10 22L10 25L9 25L9 28L10 28L10 29L9 29L9 31L8 31L8 32L9 32L9 31L11 31L11 32L10 32L10 35L8 35L8 36L7 36L7 35L6 35L6 34L8 34L8 33L6 33L6 34L5 34L5 33L2 33L2 34L5 34L5 36L7 36L7 37L6 37L6 38L5 38L5 40L4 40L4 41L6 41L6 42L7 42L7 41L8 41L8 43L9 43L9 42L10 42L10 44L8 44L8 45L6 45L6 44L7 44L7 43L4 43L4 42L3 42L3 44L1 44L1 47L2 47L2 46L3 46L3 47L5 47L5 46L8 46L8 45L9 45L9 46L10 46L10 48L11 48L11 49L10 49L10 50L9 50L9 51L11 51L11 50L12 50L12 49L13 49L13 50L14 50L14 51L12 51L12 52L10 52L10 53L14 53L14 54L13 54L13 55L12 55L12 54L10 54L10 55L9 55L9 56L11 56L11 55L12 55L12 56L13 56L13 55L14 55L14 56L16 56L16 55L14 55L14 54L16 54L16 53L17 53L17 52L19 52L19 51L20 51L20 50L21 50L21 49L23 49L23 47L21 47L21 48L20 48L20 46L21 46L21 45L22 45L22 46L23 46L23 45L22 45L22 44L21 44L21 43L22 43L22 42L23 42L23 40L24 40L24 41L25 41L25 43L27 43L27 44L24 44L24 43L23 43L23 44L24 44L24 45L25 45L25 48L24 48L24 49L25 49L25 48L27 48L27 47L26 47L26 45L27 45L27 46L30 46L30 45L32 45L32 47L31 47L31 48L32 48L32 49L31 49L31 50L32 50L32 51L33 51L33 50L34 50L34 51L35 51L35 50L36 50L36 52L37 52L37 51L38 51L38 53L37 53L37 54L40 54L40 53L43 53L43 54L44 54L44 53L46 53L46 54L48 54L48 50L47 50L47 49L48 49L48 48L49 48L49 47L51 47L51 48L52 48L52 47L51 47L51 46L53 46L53 47L54 47L54 46L53 46L53 45L52 45L52 44L53 44L53 43L54 43L54 42L53 42L53 41L54 41L54 40L53 40L53 39L55 39L55 38L54 38L54 37L53 37L53 35L55 35L55 34L54 34L54 32L53 32L53 31L50 31L50 32L49 32L49 31L48 31L48 30L47 30L47 29L48 29L48 27L47 27L47 26L48 26L48 25L50 25L50 26L51 26L51 25L52 25L52 26L53 26L53 27L54 27L54 26L53 26L53 24L54 24L54 25L55 25L55 24L54 24L54 23L51 23L51 24L50 24L50 22L51 22L51 21L54 21L54 22L56 22L56 21L55 21L55 20L53 20L53 19L52 19L52 20L51 20L51 21L49 21L49 20L48 20L48 19L49 19L49 18L47 18L47 16L46 16L46 17L45 17L45 15L44 15L44 14L47 14L47 13L49 13L49 12L50 12L50 14L49 14L49 15L48 15L48 16L49 16L49 15L50 15L50 16L51 16L51 17L50 17L50 19L51 19L51 18L55 18L55 17L53 17L53 15L50 15L50 14L51 14L51 12L50 12L50 11L49 11L49 12L48 12L48 10L47 10L47 9L45 9L45 7L46 7L46 6L45 6L45 5L47 5L47 3L44 3L44 6L43 6L43 5L42 5L42 6L41 6L41 5L40 5L40 6L39 6L39 7L40 7L40 8L39 8L39 9L38 9L38 8L37 8L37 7L36 7L36 5L37 5L37 4L36 4L36 5L35 5L35 4L34 4L34 3L35 3L35 2L33 2L33 3L32 3L32 2L31 2L31 3L30 3L30 1L29 1L29 3L28 3L28 2L26 2L26 1L25 1L25 2L22 2L22 1ZM46 1L46 2L47 2L47 1ZM23 3L23 4L24 4L24 5L23 5L23 6L22 6L22 7L23 7L23 6L24 6L24 9L23 9L23 10L22 10L22 11L20 11L20 13L21 13L21 12L22 12L22 13L23 13L23 10L25 10L25 12L26 12L26 13L28 13L28 14L29 14L29 13L28 13L28 12L29 12L29 11L31 11L31 12L33 12L33 13L34 13L34 12L33 12L33 10L32 10L32 8L31 8L31 4L32 4L32 5L33 5L33 4L32 4L32 3L31 3L31 4L28 4L28 3L27 3L27 4L26 4L26 3ZM25 4L25 8L26 8L26 4ZM27 5L27 8L30 8L30 5ZM34 5L34 7L33 7L33 6L32 6L32 7L33 7L33 9L34 9L34 8L35 8L35 9L37 9L37 10L36 10L36 11L37 11L37 12L35 12L35 13L36 13L36 14L32 14L32 13L30 13L30 14L31 14L31 15L32 15L32 16L35 16L35 17L37 17L37 18L38 18L38 17L39 17L39 16L41 16L41 14L43 14L43 13L44 13L44 12L43 12L43 13L41 13L41 14L38 14L38 13L40 13L40 12L41 12L41 11L40 11L40 10L39 10L39 11L37 11L37 10L38 10L38 9L37 9L37 8L35 8L35 5ZM9 6L9 7L10 7L10 6ZM28 6L28 7L29 7L29 6ZM40 6L40 7L41 7L41 8L42 8L42 9L41 9L41 10L43 10L43 11L45 11L45 12L47 12L47 10L44 10L44 8L43 8L43 6L42 6L42 7L41 7L41 6ZM44 6L44 7L45 7L45 6ZM48 6L48 7L49 7L49 6ZM51 8L51 10L52 10L52 8ZM53 8L53 9L54 9L54 8ZM55 8L55 9L56 9L56 8ZM6 9L6 10L7 10L7 9ZM27 9L27 10L28 10L28 11L29 11L29 9ZM13 10L13 11L12 11L12 12L11 12L11 13L9 13L9 12L8 12L8 13L7 13L7 14L8 14L8 15L10 15L10 14L12 14L12 16L8 16L8 17L9 17L9 19L10 19L10 20L11 20L11 19L12 19L12 22L11 22L11 23L12 23L12 22L14 22L14 21L13 21L13 20L14 20L14 19L13 19L13 18L15 18L15 21L16 21L16 22L15 22L15 23L16 23L16 24L15 24L15 25L13 25L13 24L11 24L11 25L13 25L13 26L10 26L10 27L11 27L11 29L12 29L12 30L13 30L13 31L12 31L12 32L11 32L11 34L12 34L12 32L13 32L13 31L14 31L14 32L15 32L15 31L16 31L16 29L18 29L18 30L20 30L20 29L18 29L18 28L16 28L16 29L15 29L15 28L14 28L14 30L13 30L13 28L12 28L12 27L14 27L14 26L15 26L15 25L16 25L16 24L17 24L17 26L16 26L16 27L18 27L18 26L19 26L19 28L20 28L20 25L21 25L21 27L22 27L22 26L24 26L24 27L25 27L25 28L23 28L23 30L25 30L25 31L20 31L20 32L28 32L28 33L29 33L29 34L30 34L30 36L29 36L29 37L31 37L31 38L29 38L29 39L33 39L33 40L35 40L35 42L37 42L37 43L36 43L36 44L35 44L35 43L34 43L34 42L33 42L33 41L32 41L32 40L30 40L30 42L27 42L27 41L26 41L26 42L27 42L27 43L28 43L28 44L27 44L27 45L29 45L29 44L33 44L33 43L34 43L34 45L35 45L35 46L33 46L33 47L35 47L35 46L36 46L36 48L35 48L35 49L36 49L36 50L38 50L38 51L40 51L40 52L41 52L41 50L42 50L42 52L43 52L43 53L44 53L44 52L47 52L47 51L44 51L44 50L45 50L45 49L44 49L44 48L43 48L43 47L42 47L42 48L41 48L41 46L43 46L43 45L44 45L44 46L45 46L45 47L46 47L46 49L47 49L47 48L48 48L48 47L49 47L49 46L50 46L50 45L49 45L49 44L48 44L48 47L47 47L47 46L45 46L45 45L47 45L47 43L48 43L48 42L49 42L49 43L50 43L50 44L51 44L51 43L53 43L53 42L51 42L51 41L53 41L53 40L52 40L52 39L50 39L50 38L51 38L51 36L52 36L52 35L53 35L53 34L52 34L52 33L53 33L53 32L52 32L52 33L51 33L51 32L50 32L50 34L49 34L49 35L46 35L46 34L45 34L45 35L44 35L44 33L43 33L43 32L45 32L45 33L47 33L47 32L48 32L48 33L49 33L49 32L48 32L48 31L47 31L47 30L46 30L46 29L47 29L47 27L46 27L46 26L45 26L45 25L44 25L44 24L43 24L43 23L44 23L44 20L45 20L45 21L46 21L46 20L47 20L47 22L45 22L45 24L47 24L47 25L48 25L48 24L47 24L47 23L49 23L49 21L48 21L48 20L47 20L47 18L46 18L46 20L45 20L45 18L44 18L44 20L43 20L43 21L39 21L39 22L40 22L40 24L41 24L41 25L42 25L42 26L41 26L41 28L42 28L42 26L43 26L43 29L41 29L41 30L43 30L43 32L41 32L41 33L39 33L39 34L40 34L40 35L39 35L39 37L40 37L40 38L41 38L41 39L42 39L42 40L43 40L43 41L40 41L40 42L42 42L42 44L41 44L41 45L39 45L39 44L40 44L40 43L39 43L39 42L38 42L38 40L40 40L40 39L38 39L38 40L35 40L35 39L37 39L37 38L38 38L38 37L37 37L37 36L38 36L38 33L37 33L37 32L35 32L35 34L37 34L37 36L35 36L35 35L34 35L34 36L33 36L33 35L31 35L31 34L33 34L33 33L32 33L32 32L33 32L33 31L36 31L36 30L37 30L37 29L38 29L38 28L40 28L40 27L36 27L36 26L34 26L34 27L33 27L33 26L32 26L32 24L29 24L29 25L27 25L27 26L26 26L26 25L25 25L25 24L28 24L28 23L30 23L30 22L31 22L31 21L25 21L25 22L26 22L26 23L25 23L25 24L24 24L24 23L22 23L22 22L24 22L24 21L22 21L22 22L21 22L21 24L18 24L18 23L20 23L20 22L18 22L18 21L20 21L20 20L19 20L19 19L18 19L18 18L20 18L20 17L19 17L19 16L17 16L17 17L18 17L18 18L15 18L15 17L14 17L14 16L16 16L16 13L17 13L17 12L16 12L16 13L15 13L15 11L17 11L17 10ZM31 10L31 11L32 11L32 10ZM13 11L13 12L14 12L14 11ZM26 11L26 12L27 12L27 11ZM39 11L39 12L40 12L40 11ZM52 12L52 13L53 13L53 12ZM0 13L0 16L1 16L1 13ZM12 13L12 14L15 14L15 13ZM37 14L37 15L35 15L35 16L37 16L37 17L38 17L38 16L39 16L39 15L38 15L38 14ZM13 15L13 16L12 16L12 18L13 18L13 16L14 16L14 15ZM27 15L27 16L28 16L28 15ZM21 16L21 17L22 17L22 16ZM23 18L23 19L24 19L24 18ZM16 20L16 21L18 21L18 20ZM41 22L41 23L43 23L43 22ZM6 24L6 25L7 25L7 24ZM21 24L21 25L23 25L23 24ZM42 24L42 25L43 25L43 24ZM25 26L25 27L26 27L26 26ZM31 26L31 28L32 28L32 30L31 30L31 31L30 31L30 32L29 32L29 33L31 33L31 32L32 32L32 31L33 31L33 30L35 30L35 28L33 28L33 27L32 27L32 26ZM44 26L44 27L45 27L45 28L44 28L44 30L45 30L45 28L46 28L46 27L45 27L45 26ZM5 27L5 30L8 30L8 27ZM27 27L27 30L30 30L30 27ZM49 27L49 30L52 30L52 27ZM6 28L6 29L7 29L7 28ZM21 28L21 29L22 29L22 28ZM25 28L25 29L26 29L26 28ZM28 28L28 29L29 29L29 28ZM50 28L50 29L51 29L51 28ZM39 29L39 30L38 30L38 32L39 32L39 30L40 30L40 29ZM3 30L3 31L4 31L4 30ZM14 30L14 31L15 31L15 30ZM6 31L6 32L7 32L7 31ZM17 32L17 33L18 33L18 34L20 34L20 35L22 35L22 33L21 33L21 34L20 34L20 33L19 33L19 32ZM55 32L55 33L56 33L56 32ZM13 33L13 34L14 34L14 36L18 36L18 37L17 37L17 38L18 38L18 37L19 37L19 38L20 38L20 39L17 39L17 40L18 40L18 41L17 41L17 42L16 42L16 44L18 44L18 45L17 45L17 47L19 47L19 46L20 46L20 45L21 45L21 44L20 44L20 43L19 43L19 42L20 42L20 40L21 40L21 39L22 39L22 40L23 40L23 39L24 39L24 40L25 40L25 37L26 37L26 40L28 40L28 41L29 41L29 40L28 40L28 39L27 39L27 38L28 38L28 37L27 37L27 33L26 33L26 35L25 35L25 33L23 33L23 34L24 34L24 36L23 36L23 37L24 37L24 38L21 38L21 37L19 37L19 35L16 35L16 34L15 34L15 33ZM42 34L42 35L41 35L41 36L40 36L40 37L41 37L41 38L42 38L42 39L45 39L45 40L44 40L44 42L43 42L43 44L44 44L44 45L45 45L45 44L46 44L46 43L47 43L47 42L48 42L48 41L49 41L49 40L50 40L50 39L49 39L49 38L50 38L50 35L52 35L52 34L50 34L50 35L49 35L49 37L48 37L48 36L46 36L46 37L45 37L45 36L44 36L44 35L43 35L43 34ZM10 35L10 36L9 36L9 37L7 37L7 38L6 38L6 39L7 39L7 40L6 40L6 41L7 41L7 40L8 40L8 39L11 39L11 40L12 40L12 41L10 41L10 40L9 40L9 41L10 41L10 42L11 42L11 44L10 44L10 46L12 46L12 47L11 47L11 48L12 48L12 47L13 47L13 48L14 48L14 47L15 47L15 49L16 49L16 47L15 47L15 46L14 46L14 47L13 47L13 46L12 46L12 45L13 45L13 43L15 43L15 41L16 41L16 39L13 39L13 38L14 38L14 37L13 37L13 36L12 36L12 38L9 38L9 37L10 37L10 36L11 36L11 35ZM42 35L42 36L41 36L41 37L42 37L42 38L43 38L43 37L44 37L44 38L45 38L45 37L44 37L44 36L43 36L43 35ZM32 36L32 37L33 37L33 38L35 38L35 37L33 37L33 36ZM42 36L42 37L43 37L43 36ZM15 37L15 38L16 38L16 37ZM47 37L47 39L46 39L46 40L47 40L47 39L48 39L48 37ZM2 38L2 39L3 39L3 38ZM7 38L7 39L8 39L8 38ZM14 40L14 41L15 41L15 40ZM18 41L18 42L17 42L17 43L18 43L18 42L19 42L19 41ZM21 41L21 42L22 42L22 41ZM31 41L31 42L32 42L32 43L33 43L33 42L32 42L32 41ZM12 42L12 43L13 43L13 42ZM44 42L44 43L46 43L46 42ZM50 42L50 43L51 43L51 42ZM55 43L55 44L54 44L54 45L55 45L55 46L56 46L56 43ZM3 44L3 45L4 45L4 46L5 46L5 44ZM11 44L11 45L12 45L12 44ZM14 44L14 45L15 45L15 44ZM19 44L19 45L20 45L20 44ZM38 45L38 46L39 46L39 47L38 47L38 48L37 48L37 49L38 49L38 50L41 50L41 48L39 48L39 47L40 47L40 46L39 46L39 45ZM8 47L8 48L9 48L9 47ZM28 47L28 48L30 48L30 47ZM17 48L17 50L18 50L18 51L19 51L19 50L20 50L20 49L19 49L19 48ZM33 48L33 49L32 49L32 50L33 50L33 49L34 49L34 48ZM38 48L38 49L39 49L39 48ZM42 48L42 49L43 49L43 50L44 50L44 49L43 49L43 48ZM53 48L53 49L54 49L54 48ZM55 48L55 50L54 50L54 51L55 51L55 50L56 50L56 48ZM27 49L27 52L30 52L30 49ZM49 49L49 52L52 52L52 49ZM28 50L28 51L29 51L29 50ZM50 50L50 51L51 51L51 50ZM14 51L14 52L15 52L15 53L16 53L16 52L15 52L15 51ZM53 52L53 53L54 53L54 52ZM33 53L33 55L35 55L35 56L36 56L36 54L35 54L35 53ZM25 54L25 55L26 55L26 54ZM41 54L41 55L42 55L42 54ZM50 55L50 56L51 56L51 55ZM0 0L0 7L7 7L7 0ZM1 1L1 6L6 6L6 1ZM2 2L2 5L5 5L5 2ZM50 0L50 7L57 7L57 0ZM51 1L51 6L56 6L56 1ZM52 2L52 5L55 5L55 2ZM0 50L0 57L7 57L7 50ZM1 51L1 56L6 56L6 51ZM2 52L2 55L5 55L5 52Z" fill="#000000"/></g></g></svg>
