<?xml version="1.0" encoding="UTF-8"?>
<svg xmlns="http://www.w3.org/2000/svg" version="1.1" width="300" height="300" viewBox="0 0 300 300"><rect x="0" y="0" width="300" height="300" fill="#fefefe"/><g transform="scale(4.615)"><g transform="translate(4,4)"><path fill-rule="evenodd" d="M10 0L10 1L8 1L8 2L10 2L10 3L8 3L8 4L9 4L9 5L8 5L8 7L9 7L9 8L6 8L6 9L5 9L5 8L0 8L0 9L2 9L2 10L1 10L1 11L2 11L2 10L4 10L4 11L3 11L3 12L4 12L4 14L2 14L2 17L3 17L3 15L4 15L4 14L5 14L5 16L6 16L6 17L5 17L5 18L3 18L3 19L5 19L5 20L4 20L4 21L5 21L5 20L6 20L6 21L8 21L8 19L9 19L9 20L10 20L10 22L9 22L9 23L8 23L8 25L7 25L7 24L6 24L6 23L7 23L7 22L6 22L6 23L5 23L5 24L6 24L6 25L7 25L7 26L4 26L4 24L3 24L3 26L4 26L4 28L3 28L3 27L2 27L2 29L1 29L1 27L0 27L0 30L2 30L2 29L4 29L4 30L3 30L3 31L1 31L1 32L0 32L0 34L1 34L1 35L3 35L3 34L2 34L2 32L3 32L3 33L4 33L4 32L6 32L6 33L5 33L5 34L4 34L4 36L0 36L0 37L1 37L1 38L0 38L0 40L1 40L1 38L2 38L2 37L4 37L4 36L6 36L6 37L7 37L7 38L6 38L6 39L5 39L5 40L4 40L4 38L3 38L3 39L2 39L2 41L1 41L1 42L3 42L3 40L4 40L4 42L5 42L5 43L4 43L4 44L3 44L3 43L2 43L2 44L1 44L1 43L0 43L0 48L5 48L5 47L7 47L7 48L6 48L6 49L8 49L8 51L11 51L11 52L12 52L12 53L11 53L11 55L12 55L12 54L13 54L13 57L14 57L14 55L16 55L16 56L17 56L17 57L20 57L20 56L19 56L19 55L20 55L20 54L19 54L19 53L20 53L20 52L21 52L21 53L22 53L22 55L23 55L23 56L24 56L24 55L23 55L23 54L24 54L24 53L25 53L25 55L26 55L26 53L27 53L27 54L30 54L30 53L31 53L31 48L33 48L33 49L36 49L36 50L32 50L32 52L33 52L33 51L35 51L35 52L34 52L34 53L35 53L35 54L36 54L36 56L35 56L35 55L34 55L34 54L33 54L33 53L32 53L32 54L31 54L31 56L30 56L30 55L29 55L29 56L27 56L27 57L29 57L29 56L30 56L30 57L31 57L31 56L35 56L35 57L39 57L39 56L37 56L37 55L41 55L41 54L42 54L42 55L43 55L43 57L44 57L44 54L45 54L45 53L44 53L44 52L45 52L45 50L44 50L44 51L43 51L43 49L44 49L44 48L45 48L45 47L47 47L47 48L46 48L46 49L47 49L47 50L48 50L48 54L47 54L47 55L48 55L48 56L46 56L46 57L49 57L49 56L50 56L50 57L52 57L52 55L51 55L51 53L52 53L52 54L53 54L53 52L54 52L54 53L56 53L56 52L55 52L55 51L56 51L56 49L57 49L57 48L56 48L56 46L57 46L57 44L56 44L56 41L55 41L55 39L57 39L57 37L56 37L56 34L55 34L55 32L56 32L56 33L57 33L57 32L56 32L56 30L57 30L57 29L56 29L56 27L55 27L55 26L57 26L57 25L56 25L56 22L57 22L57 20L56 20L56 19L55 19L55 18L57 18L57 17L56 17L56 16L57 16L57 15L56 15L56 14L57 14L57 13L56 13L56 14L55 14L55 13L54 13L54 12L55 12L55 11L56 11L56 10L54 10L54 11L50 11L50 8L49 8L49 9L47 9L47 8L48 8L48 7L49 7L49 6L48 6L48 7L47 7L47 5L48 5L48 0L45 0L45 1L47 1L47 2L44 2L44 3L41 3L41 2L43 2L43 0L41 0L41 1L40 1L40 0L39 0L39 1L38 1L38 0L37 0L37 1L38 1L38 3L36 3L36 0L35 0L35 1L33 1L33 2L32 2L32 0L27 0L27 1L26 1L26 0L23 0L23 2L25 2L25 1L26 1L26 2L27 2L27 3L28 3L28 2L29 2L29 1L31 1L31 2L32 2L32 3L31 3L31 4L26 4L26 3L23 3L23 4L22 4L22 5L23 5L23 6L22 6L22 7L21 7L21 4L19 4L19 3L20 3L20 0L19 0L19 1L18 1L18 2L19 2L19 3L17 3L17 6L16 6L16 7L15 7L15 6L14 6L14 7L15 7L15 8L16 8L16 9L15 9L15 10L12 10L12 11L11 11L11 10L10 10L10 9L9 9L9 8L11 8L11 9L14 9L14 8L13 8L13 6L12 6L12 8L11 8L11 4L12 4L12 5L13 5L13 4L14 4L14 2L15 2L15 3L16 3L16 1L14 1L14 0L12 0L12 1L11 1L11 0ZM21 0L21 1L22 1L22 0ZM12 1L12 2L14 2L14 1ZM32 3L32 4L31 4L31 8L32 8L32 10L31 10L31 11L29 11L29 12L28 12L28 13L27 13L27 15L26 15L26 16L24 16L24 15L25 15L25 14L26 14L26 12L27 12L27 11L28 11L28 10L27 10L27 11L26 11L26 12L25 12L25 11L24 11L24 12L23 12L23 13L22 13L22 12L20 12L20 11L19 11L19 12L20 12L20 15L19 15L19 14L17 14L17 13L18 13L18 12L17 12L17 11L18 11L18 10L19 10L19 9L20 9L20 10L21 10L21 11L22 11L22 10L21 10L21 9L24 9L24 6L23 6L23 7L22 7L22 8L19 8L19 9L16 9L16 10L15 10L15 13L11 13L11 12L10 12L10 13L9 13L9 14L10 14L10 15L9 15L9 16L7 16L7 15L6 15L6 16L7 16L7 17L6 17L6 18L7 18L7 19L6 19L6 20L7 20L7 19L8 19L8 18L7 18L7 17L10 17L10 18L9 18L9 19L11 19L11 17L12 17L12 15L13 15L13 14L15 14L15 13L16 13L16 16L15 16L15 15L14 15L14 17L13 17L13 19L12 19L12 20L11 20L11 21L12 21L12 20L13 20L13 21L14 21L14 22L12 22L12 24L13 24L13 23L15 23L15 24L16 24L16 25L14 25L14 26L13 26L13 27L11 27L11 29L10 29L10 28L9 28L9 31L10 31L10 32L8 32L8 31L6 31L6 32L7 32L7 33L6 33L6 34L7 34L7 35L6 35L6 36L7 36L7 37L8 37L8 36L10 36L10 38L7 38L7 39L6 39L6 40L5 40L5 41L6 41L6 42L7 42L7 43L5 43L5 44L7 44L7 43L9 43L9 41L12 41L12 39L13 39L13 41L14 41L14 40L15 40L15 43L14 43L14 42L13 42L13 43L14 43L14 45L13 45L13 44L12 44L12 43L11 43L11 42L10 42L10 43L11 43L11 44L10 44L10 45L9 45L9 44L8 44L8 46L10 46L10 45L11 45L11 46L12 46L12 47L11 47L11 50L12 50L12 52L13 52L13 51L14 51L14 53L13 53L13 54L16 54L16 53L17 53L17 52L18 52L18 51L20 51L20 50L21 50L21 49L23 49L23 47L25 47L25 48L24 48L24 49L25 49L25 50L23 50L23 51L21 51L21 52L22 52L22 53L24 53L24 52L26 52L26 51L25 51L25 50L26 50L26 49L25 49L25 48L27 48L27 47L26 47L26 45L27 45L27 46L29 46L29 45L30 45L30 46L31 46L31 45L30 45L30 44L28 44L28 42L29 42L29 40L32 40L32 41L30 41L30 42L32 42L32 43L33 43L33 44L32 44L32 47L33 47L33 48L34 48L34 47L33 47L33 46L35 46L35 48L36 48L36 46L37 46L37 45L34 45L34 43L37 43L37 42L35 42L35 40L38 40L38 42L39 42L39 45L38 45L38 46L39 46L39 47L38 47L38 48L37 48L37 49L38 49L38 50L36 50L36 52L38 52L38 50L41 50L41 52L40 52L40 51L39 51L39 53L37 53L37 54L40 54L40 53L41 53L41 52L43 52L43 51L42 51L42 50L41 50L41 48L42 48L42 49L43 49L43 48L44 48L44 47L45 47L45 46L47 46L47 45L48 45L48 46L50 46L50 47L48 47L48 48L47 48L47 49L48 49L48 48L50 48L50 47L51 47L51 46L52 46L52 48L53 48L53 43L54 43L54 42L53 42L53 41L51 41L51 42L50 42L50 43L49 43L49 42L48 42L48 41L49 41L49 39L51 39L51 38L52 38L52 39L54 39L54 38L53 38L53 35L55 35L55 34L54 34L54 33L52 33L52 32L53 32L53 31L54 31L54 30L53 30L53 31L52 31L52 32L51 32L51 31L48 31L48 29L46 29L46 30L47 30L47 31L48 31L48 32L47 32L47 33L45 33L45 32L43 32L43 30L44 30L44 31L45 31L45 30L44 30L44 29L45 29L45 28L46 28L46 27L47 27L47 28L48 28L48 27L47 27L47 24L49 24L49 25L50 25L50 26L53 26L53 27L54 27L54 26L53 26L53 25L54 25L54 24L53 24L53 23L55 23L55 22L56 22L56 20L53 20L53 19L52 19L52 17L53 17L53 18L55 18L55 16L53 16L53 15L52 15L52 16L51 16L51 15L50 15L50 14L51 14L51 12L50 12L50 11L48 11L48 10L47 10L47 9L46 9L46 8L47 8L47 7L46 7L46 6L45 6L45 4L46 4L46 5L47 5L47 3L44 3L44 6L43 6L43 8L42 8L42 9L43 9L43 10L44 10L44 9L46 9L46 10L45 10L45 11L44 11L44 13L43 13L43 11L42 11L42 10L41 10L41 7L42 7L42 6L41 6L41 5L40 5L40 4L41 4L41 3L38 3L38 5L37 5L37 4L36 4L36 5L35 5L35 4L33 4L33 3ZM15 4L15 5L16 5L16 4ZM23 4L23 5L24 5L24 4ZM25 4L25 8L26 8L26 4ZM32 4L32 5L33 5L33 6L32 6L32 7L33 7L33 9L34 9L34 8L35 8L35 9L37 9L37 10L36 10L36 12L35 12L35 13L37 13L37 14L36 14L36 15L37 15L37 14L38 14L38 15L39 15L39 16L38 16L38 17L37 17L37 16L35 16L35 14L32 14L32 12L33 12L33 13L34 13L34 12L33 12L33 10L32 10L32 12L31 12L31 13L30 13L30 14L29 14L29 13L28 13L28 14L29 14L29 16L28 16L28 15L27 15L27 16L26 16L26 19L25 19L25 17L22 17L22 16L20 16L20 17L19 17L19 16L18 16L18 15L17 15L17 16L16 16L16 17L14 17L14 18L16 18L16 19L17 19L17 21L16 21L16 20L15 20L15 21L16 21L16 22L15 22L15 23L16 23L16 24L17 24L17 27L18 27L18 26L20 26L20 27L22 27L22 26L24 26L24 27L23 27L23 28L26 28L26 29L23 29L23 30L25 30L25 31L26 31L26 35L25 35L25 33L23 33L23 34L24 34L24 36L23 36L23 35L22 35L22 33L21 33L21 32L23 32L23 31L20 31L20 30L19 30L19 29L22 29L22 28L19 28L19 29L18 29L18 28L16 28L16 29L15 29L15 30L14 30L14 27L13 27L13 28L12 28L12 29L11 29L11 30L12 30L12 29L13 29L13 30L14 30L14 31L12 31L12 32L10 32L10 33L7 33L7 34L8 34L8 35L11 35L11 38L12 38L12 36L13 36L13 37L14 37L14 34L13 34L13 33L15 33L15 31L16 31L16 29L18 29L18 30L17 30L17 31L18 31L18 32L16 32L16 33L21 33L21 34L16 34L16 35L15 35L15 36L17 36L17 39L19 39L19 40L17 40L17 41L19 41L19 42L18 42L18 43L15 43L15 44L18 44L18 45L17 45L17 46L20 46L20 45L19 45L19 44L20 44L20 43L21 43L21 44L22 44L22 45L21 45L21 47L23 47L23 46L25 46L25 44L27 44L27 43L24 43L24 42L25 42L25 41L24 41L24 40L25 40L25 36L26 36L26 40L28 40L28 39L27 39L27 38L28 38L28 37L27 37L27 36L26 36L26 35L27 35L27 31L29 31L29 32L28 32L28 33L29 33L29 34L30 34L30 36L29 36L29 37L31 37L31 38L29 38L29 39L33 39L33 40L35 40L35 39L37 39L37 38L38 38L38 40L39 40L39 38L38 38L38 37L40 37L40 38L43 38L43 37L44 37L44 38L45 38L45 39L43 39L43 41L41 41L41 43L42 43L42 44L41 44L41 46L40 46L40 47L39 47L39 48L38 48L38 49L39 49L39 48L41 48L41 46L43 46L43 47L42 47L42 48L43 48L43 47L44 47L44 46L45 46L45 45L47 45L47 43L48 43L48 42L47 42L47 43L46 43L46 42L45 42L45 43L46 43L46 44L45 44L45 45L44 45L44 40L45 40L45 41L47 41L47 39L48 39L48 38L47 38L47 39L46 39L46 38L45 38L45 37L44 37L44 36L45 36L45 35L44 35L44 36L43 36L43 37L40 37L40 36L41 36L41 35L42 35L42 34L45 34L45 33L43 33L43 32L41 32L41 33L39 33L39 34L40 34L40 35L38 35L38 33L37 33L37 32L34 32L34 33L35 33L35 34L33 34L33 35L31 35L31 33L32 33L32 31L35 31L35 30L37 30L37 29L38 29L38 28L42 28L42 27L37 27L37 28L36 28L36 26L34 26L34 27L33 27L33 26L32 26L32 24L33 24L33 25L37 25L37 26L38 26L38 24L41 24L41 22L42 22L42 23L44 23L44 20L45 20L45 18L44 18L44 15L45 15L45 17L46 17L46 16L48 16L48 15L49 15L49 16L50 16L50 15L49 15L49 14L50 14L50 12L49 12L49 13L47 13L47 14L44 14L44 15L42 15L42 16L41 16L41 14L43 14L43 13L41 13L41 14L40 14L40 13L39 13L39 12L41 12L41 10L38 10L38 8L39 8L39 6L40 6L40 7L41 7L41 6L40 6L40 5L39 5L39 6L38 6L38 8L35 8L35 5L33 5L33 4ZM18 5L18 6L17 6L17 7L16 7L16 8L17 8L17 7L18 7L18 6L19 6L19 7L20 7L20 5ZM27 5L27 8L30 8L30 5ZM36 5L36 7L37 7L37 5ZM9 6L9 7L10 7L10 6ZM28 6L28 7L29 7L29 6ZM33 6L33 7L34 7L34 6ZM44 6L44 7L45 7L45 6ZM43 8L43 9L44 9L44 8ZM51 8L51 9L52 9L52 10L53 10L53 9L54 9L54 8L53 8L53 9L52 9L52 8ZM55 8L55 9L56 9L56 8ZM4 9L4 10L5 10L5 11L4 11L4 12L5 12L5 11L6 11L6 12L7 12L7 13L6 13L6 14L7 14L7 13L8 13L8 12L9 12L9 11L10 11L10 10L9 10L9 11L8 11L8 9L6 9L6 10L5 10L5 9ZM6 10L6 11L7 11L7 10ZM37 10L37 11L38 11L38 10ZM46 10L46 11L45 11L45 12L47 12L47 10ZM13 11L13 12L14 12L14 11ZM16 12L16 13L17 13L17 12ZM24 12L24 13L23 13L23 14L22 14L22 13L21 13L21 15L23 15L23 14L25 14L25 12ZM52 12L52 13L53 13L53 14L54 14L54 13L53 13L53 12ZM0 13L0 14L1 14L1 13ZM10 13L10 14L11 14L11 13ZM38 13L38 14L39 14L39 15L40 15L40 14L39 14L39 13ZM30 14L30 15L31 15L31 16L32 16L32 17L31 17L31 18L30 18L30 19L31 19L31 18L32 18L32 19L36 19L36 20L37 20L37 19L39 19L39 17L41 17L41 16L39 16L39 17L38 17L38 18L37 18L37 17L35 17L35 16L33 16L33 15L31 15L31 14ZM0 15L0 16L1 16L1 15ZM10 16L10 17L11 17L11 16ZM27 16L27 17L28 17L28 16ZM42 16L42 17L43 17L43 16ZM0 17L0 18L1 18L1 20L2 20L2 21L1 21L1 22L2 22L2 23L3 23L3 20L2 20L2 18L1 18L1 17ZM16 17L16 18L19 18L19 17ZM20 17L20 18L22 18L22 19L19 19L19 20L20 20L20 21L18 21L18 23L19 23L19 25L20 25L20 26L22 26L22 25L24 25L24 24L25 24L25 25L26 25L26 26L25 26L25 27L26 27L26 26L27 26L27 25L29 25L29 26L30 26L30 25L29 25L29 24L30 24L30 22L28 22L28 21L30 21L30 20L29 20L29 19L28 19L28 18L27 18L27 19L26 19L26 20L25 20L25 21L24 21L24 20L22 20L22 19L24 19L24 18L22 18L22 17ZM32 17L32 18L33 18L33 17ZM47 17L47 18L50 18L50 19L49 19L49 21L47 21L47 22L46 22L46 21L45 21L45 22L46 22L46 23L47 23L47 22L49 22L49 21L51 21L51 22L50 22L50 23L49 23L49 24L50 24L50 25L51 25L51 24L50 24L50 23L53 23L53 22L54 22L54 21L51 21L51 20L52 20L52 19L51 19L51 18L50 18L50 17ZM41 18L41 19L42 19L42 18ZM43 18L43 20L42 20L42 21L43 21L43 20L44 20L44 18ZM13 19L13 20L14 20L14 19ZM27 19L27 20L28 20L28 19ZM46 19L46 20L47 20L47 19ZM21 20L21 21L22 21L22 22L21 22L21 23L22 23L22 24L24 24L24 23L22 23L22 22L24 22L24 21L22 21L22 20ZM32 20L32 21L31 21L31 24L32 24L32 23L35 23L35 20ZM38 20L38 22L37 22L37 24L38 24L38 22L39 22L39 23L40 23L40 22L39 22L39 21L41 21L41 20ZM25 21L25 22L26 22L26 23L25 23L25 24L28 24L28 23L27 23L27 21ZM19 22L19 23L20 23L20 22ZM9 23L9 25L8 25L8 26L11 26L11 25L10 25L10 24L11 24L11 23ZM1 24L1 26L2 26L2 24ZM20 24L20 25L21 25L21 24ZM43 24L43 25L39 25L39 26L43 26L43 25L44 25L44 24ZM45 24L45 25L46 25L46 24ZM15 26L15 27L16 27L16 26ZM31 26L31 28L32 28L32 29L31 29L31 31L30 31L30 32L29 32L29 33L31 33L31 31L32 31L32 29L33 29L33 30L35 30L35 29L36 29L36 28L33 28L33 27L32 27L32 26ZM44 26L44 28L43 28L43 29L41 29L41 30L43 30L43 29L44 29L44 28L45 28L45 26ZM5 27L5 30L8 30L8 27ZM27 27L27 30L30 30L30 27ZM49 27L49 30L52 30L52 27ZM6 28L6 29L7 29L7 28ZM28 28L28 29L29 29L29 28ZM50 28L50 29L51 29L51 28ZM54 28L54 29L55 29L55 28ZM39 29L39 30L38 30L38 32L39 32L39 30L40 30L40 29ZM18 30L18 31L19 31L19 32L20 32L20 31L19 31L19 30ZM3 31L3 32L4 32L4 31ZM48 32L48 33L49 33L49 32ZM50 32L50 34L49 34L49 35L50 35L50 36L51 36L51 37L49 37L49 38L51 38L51 37L52 37L52 35L53 35L53 34L52 34L52 33L51 33L51 32ZM10 33L10 34L11 34L11 35L13 35L13 34L11 34L11 33ZM35 34L35 36L32 36L32 37L33 37L33 39L35 39L35 36L37 36L37 37L38 37L38 35L37 35L37 34ZM50 34L50 35L52 35L52 34ZM17 35L17 36L18 36L18 35ZM20 35L20 36L19 36L19 37L21 37L21 40L20 40L20 42L21 42L21 43L22 43L22 42L24 42L24 41L23 41L23 40L24 40L24 39L23 39L23 38L24 38L24 37L23 37L23 36L22 36L22 35ZM47 35L47 36L48 36L48 35ZM15 37L15 38L14 38L14 39L15 39L15 40L16 40L16 39L15 39L15 38L16 38L16 37ZM19 38L19 39L20 39L20 38ZM7 39L7 40L6 40L6 41L7 41L7 40L8 40L8 39ZM9 39L9 40L10 40L10 39ZM22 39L22 40L23 40L23 39ZM21 41L21 42L22 42L22 41ZM26 41L26 42L27 42L27 41ZM32 41L32 42L33 42L33 43L34 43L34 42L33 42L33 41ZM39 41L39 42L40 42L40 41ZM51 42L51 43L50 43L50 44L51 44L51 43L53 43L53 42ZM23 43L23 44L24 44L24 43ZM2 44L2 46L1 46L1 47L2 47L2 46L3 46L3 47L5 47L5 46L7 46L7 45L3 45L3 44ZM11 44L11 45L12 45L12 46L13 46L13 47L14 47L14 48L13 48L13 49L12 49L12 50L14 50L14 48L15 48L15 49L17 49L17 50L20 50L20 49L21 49L21 48L20 48L20 49L19 49L19 48L16 48L16 47L15 47L15 46L13 46L13 45L12 45L12 44ZM54 44L54 45L55 45L55 46L54 46L54 47L55 47L55 46L56 46L56 45L55 45L55 44ZM22 45L22 46L23 46L23 45ZM50 45L50 46L51 46L51 45ZM8 47L8 48L9 48L9 47ZM28 47L28 48L30 48L30 47ZM54 48L54 49L56 49L56 48ZM27 49L27 52L30 52L30 49ZM49 49L49 52L52 52L52 49ZM28 50L28 51L29 51L29 50ZM50 50L50 51L51 51L51 50ZM54 50L54 51L55 51L55 50ZM15 51L15 53L16 53L16 51ZM46 51L46 53L47 53L47 51ZM8 52L8 57L9 57L9 56L10 56L10 57L11 57L11 56L10 56L10 55L9 55L9 52ZM43 53L43 54L44 54L44 53ZM17 54L17 56L18 56L18 55L19 55L19 54ZM50 55L50 56L51 56L51 55ZM53 55L53 56L55 56L55 57L56 57L56 56L55 56L55 55ZM25 56L25 57L26 57L26 56ZM0 0L0 7L7 7L7 0ZM1 1L1 6L6 6L6 1ZM2 2L2 5L5 5L5 2ZM50 0L50 7L57 7L57 0ZM51 1L51 6L56 6L56 1ZM52 2L52 5L55 5L55 2ZM0 50L0 57L7 57L7 50ZM1 51L1 56L6 56L6 51ZM2 52L2 55L5 55L5 52Z" fill="#000000"/></g></g></svg>
