<?xml version="1.0" encoding="UTF-8"?>
<svg xmlns="http://www.w3.org/2000/svg" version="1.1" width="300" height="300" viewBox="0 0 300 300"><rect x="0" y="0" width="300" height="300" fill="#fefefe"/><g transform="scale(4.615)"><g transform="translate(4,4)"><path fill-rule="evenodd" d="M8 0L8 2L9 2L9 1L10 1L10 2L11 2L11 4L10 4L10 3L9 3L9 4L8 4L8 9L9 9L9 11L8 11L8 10L6 10L6 11L5 11L5 10L3 10L3 11L2 11L2 12L1 12L1 11L0 11L0 12L1 12L1 14L2 14L2 13L3 13L3 11L5 11L5 12L4 12L4 13L5 13L5 12L6 12L6 13L7 13L7 14L6 14L6 15L7 15L7 16L6 16L6 17L7 17L7 18L6 18L6 19L5 19L5 21L4 21L4 22L5 22L5 25L3 25L3 26L2 26L2 25L1 25L1 24L4 24L4 23L1 23L1 24L0 24L0 25L1 25L1 26L0 26L0 30L3 30L3 28L4 28L4 31L2 31L2 32L5 32L5 31L7 31L7 32L6 32L6 33L5 33L5 34L6 34L6 35L7 35L7 36L4 36L4 34L2 34L2 33L1 33L1 31L0 31L0 34L1 34L1 36L0 36L0 37L2 37L2 38L1 38L1 39L0 39L0 40L1 40L1 41L0 41L0 43L1 43L1 44L0 44L0 45L1 45L1 46L0 46L0 48L5 48L5 47L7 47L7 48L6 48L6 49L7 49L7 48L8 48L8 50L9 50L9 49L10 49L10 50L12 50L12 48L11 48L11 46L12 46L12 47L13 47L13 44L15 44L15 43L16 43L16 45L15 45L15 46L14 46L14 49L15 49L15 50L14 50L14 51L12 51L12 53L14 53L14 52L15 52L15 56L16 56L16 57L17 57L17 55L18 55L18 53L19 53L19 52L20 52L20 53L21 53L21 52L22 52L22 53L23 53L23 55L21 55L21 54L20 54L20 55L21 55L21 56L18 56L18 57L21 57L21 56L22 56L22 57L25 57L25 56L26 56L26 57L28 57L28 55L29 55L29 57L33 57L33 55L34 55L34 57L35 57L35 55L38 55L38 52L37 52L37 51L38 51L38 47L37 47L37 48L36 48L36 49L37 49L37 51L35 51L35 50L34 50L34 48L35 48L35 47L36 47L36 45L37 45L37 46L38 46L38 45L37 45L37 44L39 44L39 43L40 43L40 45L39 45L39 46L40 46L40 45L41 45L41 47L40 47L40 49L39 49L39 52L40 52L40 53L39 53L39 56L40 56L40 57L41 57L41 56L42 56L42 57L43 57L43 54L42 54L42 53L41 53L41 52L42 52L42 51L43 51L43 52L44 52L44 55L45 55L45 56L44 56L44 57L47 57L47 56L46 56L46 55L47 55L47 54L48 54L48 55L49 55L49 57L50 57L50 55L49 55L49 54L52 54L52 55L53 55L53 56L51 56L51 57L54 57L54 55L57 55L57 54L54 54L54 53L55 53L55 52L56 52L56 53L57 53L57 52L56 52L56 51L57 51L57 49L56 49L56 47L57 47L57 45L56 45L56 47L55 47L55 45L54 45L54 46L53 46L53 48L52 48L52 45L51 45L51 44L52 44L52 40L53 40L53 44L54 44L54 43L55 43L55 44L56 44L56 43L57 43L57 42L56 42L56 41L57 41L57 40L55 40L55 42L54 42L54 38L57 38L57 37L56 37L56 36L57 36L57 33L56 33L56 31L57 31L57 28L56 28L56 27L57 27L57 24L56 24L56 23L57 23L57 20L56 20L56 23L55 23L55 24L56 24L56 25L55 25L55 26L54 26L54 22L55 22L55 21L54 21L54 19L55 19L55 17L54 17L54 15L52 15L52 14L54 14L54 13L53 13L53 12L54 12L54 11L55 11L55 12L56 12L56 15L55 15L55 16L56 16L56 17L57 17L57 10L56 10L56 9L57 9L57 8L55 8L55 9L54 9L54 10L52 10L52 12L51 12L51 11L50 11L50 9L53 9L53 8L49 8L49 10L48 10L48 7L49 7L49 6L48 6L48 7L47 7L47 5L48 5L48 0L42 0L42 1L41 1L41 0L38 0L38 2L37 2L37 1L35 1L35 0L34 0L34 2L33 2L33 0L30 0L30 1L29 1L29 0L28 0L28 1L27 1L27 0L26 0L26 1L25 1L25 0L24 0L24 1L23 1L23 0L20 0L20 1L21 1L21 2L20 2L20 3L21 3L21 4L22 4L22 3L23 3L23 5L22 5L22 9L23 9L23 10L24 10L24 11L22 11L22 12L23 12L23 14L24 14L24 15L25 15L25 17L26 17L26 18L24 18L24 16L22 16L22 14L21 14L21 16L20 16L20 17L19 17L19 15L20 15L20 13L21 13L21 12L20 12L20 11L19 11L19 10L20 10L20 9L21 9L21 5L20 5L20 7L19 7L19 5L18 5L18 7L17 7L17 6L16 6L16 5L17 5L17 4L16 4L16 3L18 3L18 2L19 2L19 1L18 1L18 0L16 0L16 1L18 1L18 2L15 2L15 1L14 1L14 0L13 0L13 1L12 1L12 0L11 0L11 1L10 1L10 0ZM11 1L11 2L12 2L12 1ZM13 1L13 3L12 3L12 5L13 5L13 3L14 3L14 4L15 4L15 3L14 3L14 1ZM24 1L24 4L25 4L25 1ZM28 1L28 2L29 2L29 3L28 3L28 4L31 4L31 3L30 3L30 2L32 2L32 5L31 5L31 9L30 9L30 11L29 11L29 12L30 12L30 13L29 13L29 15L28 15L28 14L26 14L26 16L27 16L27 19L26 19L26 20L25 20L25 19L24 19L24 20L25 20L25 21L26 21L26 20L27 20L27 21L28 21L28 20L30 20L30 21L29 21L29 23L28 23L28 22L26 22L26 23L27 23L27 25L26 25L26 26L27 26L27 25L28 25L28 26L31 26L31 25L32 25L32 28L31 28L31 30L32 30L32 31L31 31L31 32L30 32L30 34L31 34L31 33L32 33L32 35L33 35L33 37L34 37L34 38L31 38L31 43L30 43L30 42L29 42L29 41L28 41L28 40L30 40L30 36L31 36L31 37L32 37L32 36L31 36L31 35L28 35L28 34L29 34L29 31L27 31L27 32L24 32L24 31L26 31L26 30L25 30L25 29L24 29L24 27L25 27L25 25L24 25L24 26L23 26L23 27L22 27L22 28L23 28L23 29L22 29L22 30L21 30L21 29L20 29L20 30L21 30L21 31L20 31L20 32L21 32L21 33L20 33L20 35L19 35L19 36L20 36L20 35L21 35L21 38L20 38L20 39L21 39L21 40L20 40L20 42L21 42L21 43L20 43L20 44L19 44L19 43L18 43L18 44L19 44L19 45L18 45L18 47L16 47L16 46L17 46L17 45L16 45L16 46L15 46L15 48L17 48L17 49L16 49L16 50L15 50L15 51L18 51L18 50L19 50L19 51L20 51L20 50L22 50L22 48L23 48L23 49L24 49L24 51L22 51L22 52L24 52L24 51L25 51L25 53L26 53L26 48L31 48L31 50L32 50L32 48L33 48L33 47L30 47L30 45L29 45L29 44L27 44L27 46L26 46L26 45L24 45L24 43L25 43L25 42L26 42L26 41L25 41L25 40L27 40L27 41L28 41L28 43L30 43L30 44L31 44L31 45L32 45L32 44L31 44L31 43L32 43L32 40L33 40L33 41L34 41L34 42L35 42L35 41L36 41L36 43L35 43L35 44L33 44L33 45L34 45L34 47L35 47L35 45L36 45L36 44L37 44L37 43L39 43L39 42L40 42L40 43L41 43L41 45L42 45L42 47L41 47L41 49L40 49L40 51L41 51L41 49L42 49L42 50L43 50L43 51L45 51L45 50L44 50L44 46L45 46L45 45L44 45L44 44L45 44L45 43L46 43L46 42L47 42L47 44L46 44L46 48L47 48L47 44L48 44L48 42L49 42L49 47L50 47L50 46L51 46L51 45L50 45L50 42L49 42L49 41L51 41L51 40L52 40L52 39L51 39L51 40L50 40L50 37L48 37L48 38L47 38L47 37L46 37L46 38L47 38L47 40L46 40L46 42L45 42L45 41L44 41L44 42L45 42L45 43L41 43L41 42L40 42L40 38L39 38L39 37L38 37L38 38L37 38L37 37L36 37L36 35L38 35L38 36L40 36L40 35L41 35L41 37L42 37L42 38L41 38L41 40L42 40L42 42L43 42L43 38L44 38L44 35L43 35L43 33L42 33L42 31L44 31L44 30L46 30L46 31L45 31L45 32L46 32L46 34L45 34L45 36L46 36L46 34L48 34L48 33L47 33L47 32L46 32L46 31L47 31L47 29L48 29L48 28L46 28L46 29L44 29L44 30L43 30L43 28L42 28L42 31L41 31L41 30L40 30L40 28L41 28L41 27L44 27L44 26L45 26L45 25L46 25L46 26L49 26L49 25L50 25L50 26L51 26L51 25L52 25L52 26L53 26L53 25L52 25L52 23L53 23L53 22L54 22L54 21L53 21L53 22L52 22L52 20L53 20L53 19L54 19L54 17L53 17L53 18L52 18L52 15L51 15L51 14L52 14L52 13L50 13L50 11L47 11L47 8L46 8L46 11L45 11L45 9L44 9L44 6L45 6L45 7L46 7L46 6L45 6L45 5L44 5L44 4L45 4L45 2L47 2L47 1L42 1L42 3L41 3L41 2L40 2L40 1L39 1L39 2L40 2L40 4L39 4L39 3L38 3L38 4L37 4L37 2L35 2L35 3L34 3L34 4L33 4L33 2L32 2L32 1L30 1L30 2L29 2L29 1ZM21 2L21 3L22 3L22 2ZM43 2L43 3L42 3L42 5L43 5L43 6L42 6L42 8L40 8L40 9L41 9L41 11L40 11L40 10L38 10L38 9L37 9L37 8L39 8L39 6L38 6L38 7L37 7L37 6L36 6L36 10L34 10L34 9L35 9L35 4L36 4L36 3L35 3L35 4L34 4L34 5L33 5L33 6L32 6L32 7L33 7L33 6L34 6L34 8L32 8L32 9L31 9L31 11L30 11L30 12L32 12L32 14L31 14L31 16L30 16L30 15L29 15L29 16L30 16L30 17L28 17L28 18L30 18L30 17L31 17L31 18L32 18L32 19L30 19L30 20L32 20L32 21L33 21L33 22L31 22L31 23L32 23L32 25L33 25L33 26L34 26L34 24L36 24L36 26L37 26L37 27L36 27L36 29L35 29L35 27L34 27L34 29L33 29L33 28L32 28L32 30L33 30L33 31L32 31L32 33L33 33L33 35L34 35L34 37L35 37L35 38L34 38L34 41L35 41L35 38L36 38L36 41L37 41L37 42L38 42L38 41L39 41L39 38L38 38L38 41L37 41L37 38L36 38L36 37L35 37L35 35L36 35L36 33L37 33L37 34L38 34L38 35L39 35L39 34L38 34L38 33L39 33L39 32L40 32L40 34L42 34L42 33L41 33L41 32L40 32L40 30L39 30L39 31L38 31L38 30L37 30L37 31L36 31L36 33L35 33L35 35L34 35L34 32L35 32L35 31L34 31L34 29L35 29L35 30L36 30L36 29L37 29L37 28L38 28L38 29L39 29L39 28L40 28L40 27L39 27L39 26L38 26L38 25L37 25L37 24L36 24L36 23L37 23L37 22L38 22L38 23L39 23L39 22L38 22L38 21L37 21L37 20L39 20L39 19L40 19L40 22L42 22L42 23L40 23L40 25L41 25L41 24L42 24L42 25L43 25L43 24L42 24L42 23L43 23L43 22L44 22L44 23L45 23L45 24L44 24L44 25L45 25L45 24L46 24L46 25L47 25L47 24L49 24L49 23L50 23L50 24L51 24L51 23L52 23L52 22L51 22L51 23L50 23L50 22L49 22L49 23L46 23L46 20L45 20L45 19L44 19L44 17L45 17L45 18L46 18L46 17L45 17L45 16L44 16L44 15L46 15L46 16L47 16L47 22L48 22L48 21L49 21L49 20L51 20L51 18L50 18L50 16L51 16L51 15L50 15L50 13L49 13L49 14L48 14L48 12L47 12L47 11L46 11L46 13L45 13L45 12L44 12L44 11L43 11L43 10L44 10L44 9L43 9L43 10L42 10L42 8L43 8L43 6L44 6L44 5L43 5L43 4L44 4L44 2ZM26 3L26 4L27 4L27 3ZM46 3L46 5L47 5L47 3ZM38 4L38 5L39 5L39 4ZM24 5L24 6L23 6L23 9L24 9L24 10L25 10L25 11L26 11L26 13L27 13L27 12L28 12L28 9L27 9L27 10L25 10L25 9L26 9L26 5ZM27 5L27 8L30 8L30 5ZM9 6L9 7L10 7L10 6ZM11 6L11 8L9 8L9 9L10 9L10 10L11 10L11 8L12 8L12 10L13 10L13 11L12 11L12 12L13 12L13 14L14 14L14 16L12 16L12 17L11 17L11 15L12 15L12 13L11 13L11 12L10 12L10 11L9 11L9 12L8 12L8 11L6 11L6 12L7 12L7 13L8 13L8 15L9 15L9 17L10 17L10 18L8 18L8 19L6 19L6 20L7 20L7 21L6 21L6 22L9 22L9 21L10 21L10 22L11 22L11 23L8 23L8 24L9 24L9 25L5 25L5 26L9 26L9 30L10 30L10 31L9 31L9 32L8 32L8 36L7 36L7 37L5 37L5 38L7 38L7 39L6 39L6 40L8 40L8 41L4 41L4 38L3 38L3 40L2 40L2 41L1 41L1 42L2 42L2 44L3 44L3 43L5 43L5 44L4 44L4 45L2 45L2 46L1 46L1 47L2 47L2 46L3 46L3 47L5 47L5 45L6 45L6 46L7 46L7 47L9 47L9 48L10 48L10 46L11 46L11 45L12 45L12 43L14 43L14 42L15 42L15 41L14 41L14 40L16 40L16 43L17 43L17 41L18 41L18 40L19 40L19 39L18 39L18 40L17 40L17 39L16 39L16 38L19 38L19 37L18 37L18 35L16 35L16 36L15 36L15 33L16 33L16 34L17 34L17 33L18 33L18 32L19 32L19 31L18 31L18 30L19 30L19 28L21 28L21 23L20 23L20 22L21 22L21 21L22 21L22 22L23 22L23 21L22 21L22 20L23 20L23 18L22 18L22 19L21 19L21 17L20 17L20 19L19 19L19 21L18 21L18 19L17 19L17 18L18 18L18 16L17 16L17 15L15 15L15 14L17 14L17 9L18 9L18 8L19 8L19 9L20 9L20 8L19 8L19 7L18 7L18 8L17 8L17 7L16 7L16 6L15 6L15 7L14 7L14 6L13 6L13 7L14 7L14 8L12 8L12 6ZM24 6L24 7L25 7L25 6ZM28 6L28 7L29 7L29 6ZM40 6L40 7L41 7L41 6ZM0 8L0 10L1 10L1 9L3 9L3 8ZM5 8L5 9L7 9L7 8ZM14 8L14 9L13 9L13 10L14 10L14 9L15 9L15 11L14 11L14 12L16 12L16 8ZM32 9L32 12L33 12L33 11L34 11L34 12L35 12L35 13L34 13L34 15L33 15L33 14L32 14L32 16L31 16L31 17L32 17L32 18L33 18L33 21L34 21L34 22L33 22L33 24L34 24L34 22L35 22L35 23L36 23L36 22L37 22L37 21L36 21L36 20L35 20L35 21L34 21L34 18L36 18L36 19L37 19L37 18L36 18L36 15L37 15L37 16L38 16L38 18L40 18L40 19L41 19L41 18L40 18L40 14L41 14L41 13L40 13L40 14L39 14L39 12L37 12L37 11L34 11L34 10L33 10L33 9ZM55 10L55 11L56 11L56 10ZM18 11L18 12L19 12L19 13L18 13L18 15L19 15L19 13L20 13L20 12L19 12L19 11ZM41 11L41 12L42 12L42 15L41 15L41 17L42 17L42 18L43 18L43 17L44 17L44 16L43 16L43 13L44 13L44 14L45 14L45 13L44 13L44 12L42 12L42 11ZM9 12L9 14L11 14L11 13L10 13L10 12ZM24 12L24 14L25 14L25 12ZM36 12L36 14L35 14L35 15L34 15L34 17L33 17L33 16L32 16L32 17L33 17L33 18L34 18L34 17L35 17L35 15L36 15L36 14L37 14L37 15L38 15L38 13L37 13L37 12ZM46 13L46 15L48 15L48 14L47 14L47 13ZM3 14L3 15L2 15L2 16L4 16L4 18L3 18L3 17L1 17L1 16L0 16L0 20L1 20L1 21L0 21L0 22L2 22L2 20L1 20L1 19L2 19L2 18L3 18L3 20L4 20L4 18L5 18L5 16L4 16L4 14ZM49 15L49 16L50 16L50 15ZM7 16L7 17L8 17L8 16ZM14 16L14 18L13 18L13 21L12 21L12 22L13 22L13 23L12 23L12 24L15 24L15 26L14 26L14 25L13 25L13 28L12 28L12 27L11 27L11 26L12 26L12 25L9 25L9 26L10 26L10 30L11 30L11 28L12 28L12 29L13 29L13 28L14 28L14 29L15 29L15 27L16 27L16 28L17 28L17 27L16 27L16 25L17 25L17 23L18 23L18 25L19 25L19 26L20 26L20 25L19 25L19 23L18 23L18 21L17 21L17 19L16 19L16 18L15 18L15 16ZM48 17L48 18L49 18L49 19L48 19L48 20L49 20L49 19L50 19L50 18L49 18L49 17ZM10 18L10 19L9 19L9 20L8 20L8 21L9 21L9 20L10 20L10 21L11 21L11 20L12 20L12 18ZM56 18L56 19L57 19L57 18ZM14 19L14 20L16 20L16 19ZM27 19L27 20L28 20L28 19ZM42 19L42 20L43 20L43 21L42 21L42 22L43 22L43 21L44 21L44 22L45 22L45 21L44 21L44 19ZM20 20L20 21L21 21L21 20ZM14 21L14 22L15 22L15 21ZM35 21L35 22L36 22L36 21ZM16 22L16 23L17 23L17 22ZM24 22L24 23L25 23L25 22ZM6 23L6 24L7 24L7 23ZM22 23L22 24L23 24L23 23ZM28 24L28 25L29 25L29 24ZM1 26L1 27L2 27L2 28L1 28L1 29L2 29L2 28L3 28L3 27L2 27L2 26ZM55 26L55 27L54 27L54 28L53 28L53 30L54 30L54 32L53 32L53 31L51 31L51 32L50 32L50 31L49 31L49 32L50 32L50 33L49 33L49 36L50 36L50 33L51 33L51 36L53 36L53 37L52 37L52 38L54 38L54 36L56 36L56 33L54 33L54 32L55 32L55 31L56 31L56 30L55 30L55 29L56 29L56 28L55 28L55 27L56 27L56 26ZM5 27L5 30L8 30L8 27ZM18 27L18 28L19 28L19 27ZM27 27L27 30L30 30L30 27ZM49 27L49 30L52 30L52 27ZM6 28L6 29L7 29L7 28ZM28 28L28 29L29 29L29 28ZM50 28L50 29L51 29L51 28ZM23 29L23 30L22 30L22 33L23 33L23 34L21 34L21 35L22 35L22 38L21 38L21 39L22 39L22 41L23 41L23 43L22 43L22 44L23 44L23 43L24 43L24 40L23 40L23 35L25 35L25 36L24 36L24 37L26 37L26 38L27 38L27 36L28 36L28 37L29 37L29 36L28 36L28 35L27 35L27 36L26 36L26 34L24 34L24 32L23 32L23 31L24 31L24 29ZM14 30L14 31L11 31L11 33L12 33L12 35L13 35L13 33L15 33L15 32L16 32L16 33L17 33L17 32L16 32L16 31L17 31L17 30ZM14 31L14 32L15 32L15 31ZM33 31L33 32L34 32L34 31ZM37 31L37 32L38 32L38 31ZM9 32L9 34L10 34L10 35L9 35L9 36L11 36L11 37L10 37L10 38L9 38L9 39L8 39L8 40L9 40L9 41L8 41L8 42L9 42L9 43L10 43L10 45L9 45L9 44L8 44L8 43L7 43L7 42L6 42L6 43L7 43L7 44L6 44L6 45L7 45L7 46L10 46L10 45L11 45L11 43L12 43L12 42L14 42L14 41L13 41L13 39L14 39L14 38L13 38L13 37L12 37L12 36L11 36L11 34L10 34L10 32ZM12 32L12 33L13 33L13 32ZM6 33L6 34L7 34L7 33ZM27 33L27 34L28 34L28 33ZM53 34L53 36L54 36L54 34ZM47 35L47 36L48 36L48 35ZM3 36L3 37L4 37L4 36ZM16 36L16 37L17 37L17 36ZM42 36L42 37L43 37L43 36ZM7 37L7 38L8 38L8 37ZM10 38L10 39L11 39L11 40L10 40L10 41L9 41L9 42L10 42L10 43L11 43L11 42L12 42L12 41L11 41L11 40L12 40L12 39L11 39L11 38ZM24 38L24 39L25 39L25 38ZM28 38L28 39L29 39L29 38ZM48 38L48 40L47 40L47 41L48 41L48 40L49 40L49 38ZM2 41L2 42L3 42L3 41ZM55 42L55 43L56 43L56 42ZM42 44L42 45L43 45L43 44ZM19 45L19 46L20 46L20 45ZM23 45L23 48L24 48L24 47L26 47L26 46L24 46L24 45ZM21 46L21 48L20 48L20 47L18 47L18 49L19 49L19 50L20 50L20 49L21 49L21 48L22 48L22 46ZM28 46L28 47L29 47L29 46ZM54 47L54 48L55 48L55 47ZM19 48L19 49L20 49L20 48ZM27 49L27 52L30 52L30 49ZM46 49L46 51L47 51L47 52L48 52L48 51L47 51L47 49ZM49 49L49 52L52 52L52 49ZM54 49L54 50L53 50L53 51L54 51L54 52L55 52L55 51L56 51L56 49ZM28 50L28 51L29 51L29 50ZM33 50L33 51L34 51L34 52L35 52L35 53L34 53L34 55L35 55L35 53L36 53L36 54L37 54L37 53L36 53L36 52L35 52L35 51L34 51L34 50ZM50 50L50 51L51 51L51 50ZM8 51L8 52L9 52L9 51ZM10 51L10 53L9 53L9 54L8 54L8 57L12 57L12 56L9 56L9 55L10 55L10 53L11 53L11 51ZM31 51L31 52L32 52L32 51ZM17 52L17 53L18 53L18 52ZM45 52L45 53L46 53L46 54L45 54L45 55L46 55L46 54L47 54L47 53L46 53L46 52ZM27 53L27 54L24 54L24 55L26 55L26 56L27 56L27 55L28 55L28 53ZM31 53L31 54L30 54L30 55L33 55L33 54L32 54L32 53ZM48 53L48 54L49 54L49 53ZM11 54L11 55L13 55L13 54ZM16 54L16 55L17 55L17 54ZM40 54L40 55L41 55L41 54ZM13 56L13 57L14 57L14 56ZM36 56L36 57L37 57L37 56ZM56 56L56 57L57 57L57 56ZM0 0L0 7L7 7L7 0ZM1 1L1 6L6 6L6 1ZM2 2L2 5L5 5L5 2ZM50 0L50 7L57 7L57 0ZM51 1L51 6L56 6L56 1ZM52 2L52 5L55 5L55 2ZM0 50L0 57L7 57L7 50ZM1 51L1 56L6 56L6 51ZM2 52L2 55L5 55L5 52Z" fill="#000000"/></g></g></svg>
