<?xml version="1.0" encoding="UTF-8"?>
<svg xmlns="http://www.w3.org/2000/svg" version="1.1" width="300" height="300" viewBox="0 0 300 300"><rect x="0" y="0" width="300" height="300" fill="#fefefe"/><g transform="scale(4.615)"><g transform="translate(4,4)"><path fill-rule="evenodd" d="M8 0L8 1L9 1L9 2L8 2L8 5L9 5L9 2L12 2L12 3L10 3L10 4L11 4L11 5L10 5L10 7L9 7L9 6L8 6L8 7L9 7L9 8L8 8L8 9L7 9L7 8L6 8L6 9L7 9L7 10L5 10L5 9L4 9L4 8L0 8L0 9L1 9L1 10L0 10L0 12L1 12L1 13L0 13L0 17L1 17L1 18L0 18L0 19L1 19L1 20L0 20L0 23L1 23L1 21L2 21L2 24L1 24L1 25L0 25L0 29L1 29L1 26L3 26L3 27L2 27L2 28L3 28L3 27L4 27L4 29L3 29L3 30L0 30L0 33L2 33L2 34L3 34L3 33L4 33L4 31L7 31L7 32L6 32L6 33L5 33L5 35L4 35L4 36L3 36L3 35L0 35L0 38L1 38L1 37L4 37L4 38L2 38L2 39L0 39L0 40L1 40L1 41L0 41L0 42L1 42L1 41L3 41L3 42L2 42L2 43L1 43L1 44L0 44L0 45L1 45L1 44L2 44L2 43L4 43L4 44L3 44L3 45L4 45L4 46L5 46L5 47L3 47L3 46L2 46L2 47L1 47L1 46L0 46L0 48L5 48L5 47L7 47L7 48L6 48L6 49L8 49L8 50L10 50L10 47L11 47L11 48L13 48L13 49L12 49L12 50L11 50L11 52L9 52L9 53L8 53L8 57L9 57L9 53L10 53L10 55L11 55L11 57L12 57L12 55L14 55L14 56L13 56L13 57L14 57L14 56L16 56L16 57L18 57L18 56L19 56L19 57L20 57L20 56L21 56L21 57L23 57L23 54L26 54L26 55L27 55L27 56L28 56L28 55L27 55L27 53L29 53L29 54L31 54L31 55L30 55L30 56L31 56L31 57L32 57L32 55L34 55L34 56L33 56L33 57L36 57L36 55L38 55L38 57L42 57L42 56L45 56L45 55L44 55L44 54L47 54L47 55L46 55L46 56L47 56L47 57L48 57L48 56L49 56L49 57L51 57L51 54L52 54L52 53L54 53L54 55L55 55L55 54L56 54L56 52L57 52L57 51L55 51L55 50L53 50L53 49L54 49L54 47L57 47L57 45L56 45L56 46L54 46L54 47L53 47L53 46L52 46L52 43L53 43L53 42L54 42L54 43L56 43L56 44L57 44L57 43L56 43L56 42L57 42L57 40L56 40L56 41L55 41L55 38L56 38L56 39L57 39L57 38L56 38L56 36L54 36L54 35L57 35L57 31L56 31L56 30L57 30L57 29L56 29L56 30L54 30L54 29L55 29L55 28L57 28L57 27L56 27L56 24L55 24L55 27L53 27L53 26L51 26L51 24L53 24L53 25L54 25L54 23L57 23L57 21L56 21L56 19L55 19L55 17L56 17L56 18L57 18L57 15L55 15L55 14L54 14L54 10L53 10L53 9L55 9L55 8L52 8L52 10L53 10L53 13L52 13L52 12L51 12L51 10L50 10L50 8L47 8L47 10L46 10L46 8L45 8L45 6L44 6L44 7L43 7L43 6L42 6L42 7L43 7L43 8L45 8L45 9L44 9L44 10L45 10L45 11L47 11L47 10L48 10L48 12L49 12L49 16L48 16L48 14L47 14L47 15L45 15L45 16L44 16L44 14L42 14L42 17L41 17L41 18L39 18L39 19L40 19L40 20L38 20L38 19L36 19L36 20L35 20L35 17L34 17L34 16L35 16L35 15L36 15L36 13L37 13L37 15L39 15L39 17L40 17L40 16L41 16L41 13L39 13L39 12L40 12L40 11L39 11L39 10L40 10L40 9L41 9L41 10L43 10L43 9L41 9L41 8L40 8L40 7L41 7L41 4L39 4L39 3L37 3L37 1L38 1L38 0L37 0L37 1L36 1L36 0L35 0L35 1L34 1L34 2L31 2L31 4L30 4L30 1L31 1L31 0L29 0L29 4L26 4L26 2L24 2L24 3L23 3L23 1L26 1L26 0L23 0L23 1L22 1L22 0L21 0L21 1L20 1L20 0L17 0L17 1L18 1L18 2L19 2L19 3L18 3L18 5L15 5L15 4L14 4L14 3L13 3L13 1L11 1L11 0ZM27 0L27 2L28 2L28 0ZM39 0L39 1L40 1L40 2L41 2L41 1L43 1L43 0L41 0L41 1L40 1L40 0ZM45 0L45 1L44 1L44 2L42 2L42 3L43 3L43 5L45 5L45 4L44 4L44 3L45 3L45 1L47 1L47 2L46 2L46 3L47 3L47 5L46 5L46 7L47 7L47 5L48 5L48 0ZM15 1L15 3L17 3L17 2L16 2L16 1ZM21 1L21 3L19 3L19 4L20 4L20 5L21 5L21 7L20 7L20 6L19 6L19 7L18 7L18 6L17 6L17 7L16 7L16 6L15 6L15 5L14 5L14 4L12 4L12 5L11 5L11 7L12 7L12 5L13 5L13 7L14 7L14 6L15 6L15 8L13 8L13 10L12 10L12 11L8 11L8 10L7 10L7 11L5 11L5 10L4 10L4 11L2 11L2 10L1 10L1 11L2 11L2 12L3 12L3 13L4 13L4 11L5 11L5 13L6 13L6 14L7 14L7 15L5 15L5 14L3 14L3 15L5 15L5 17L4 17L4 16L2 16L2 17L3 17L3 19L5 19L5 20L4 20L4 21L3 21L3 23L4 23L4 24L3 24L3 25L4 25L4 24L5 24L5 26L10 26L10 27L11 27L11 25L13 25L13 24L11 24L11 25L10 25L10 24L8 24L8 25L6 25L6 24L7 24L7 23L8 23L8 22L9 22L9 23L10 23L10 22L11 22L11 23L13 23L13 22L11 22L11 21L10 21L10 22L9 22L9 21L8 21L8 20L9 20L9 19L8 19L8 20L7 20L7 19L6 19L6 18L7 18L7 17L6 17L6 16L8 16L8 17L9 17L9 16L8 16L8 14L7 14L7 13L6 13L6 12L8 12L8 13L9 13L9 14L13 14L13 15L10 15L10 17L11 17L11 18L10 18L10 19L11 19L11 18L12 18L12 19L15 19L15 20L14 20L14 22L15 22L15 23L16 23L16 24L15 24L15 25L14 25L14 26L12 26L12 29L10 29L10 30L11 30L11 31L10 31L10 32L9 32L9 31L8 31L8 33L6 33L6 34L7 34L7 35L5 35L5 36L4 36L4 37L6 37L6 38L5 38L5 39L4 39L4 40L3 40L3 39L2 39L2 40L3 40L3 41L4 41L4 43L5 43L5 44L8 44L8 45L5 45L5 46L8 46L8 45L9 45L9 46L10 46L10 45L11 45L11 47L13 47L13 48L15 48L15 49L16 49L16 50L17 50L17 48L18 48L18 46L17 46L17 45L19 45L19 43L21 43L21 44L22 44L22 46L21 46L21 45L20 45L20 46L19 46L19 47L22 47L22 46L23 46L23 45L24 45L24 44L22 44L22 42L21 42L21 41L20 41L20 40L18 40L18 41L19 41L19 43L18 43L18 42L17 42L17 45L14 45L14 46L16 46L16 47L13 47L13 45L12 45L12 44L13 44L13 42L11 42L11 40L12 40L12 39L13 39L13 37L14 37L14 38L17 38L17 39L16 39L16 41L17 41L17 39L19 39L19 37L20 37L20 38L21 38L21 40L22 40L22 41L23 41L23 40L24 40L24 39L25 39L25 41L24 41L24 42L23 42L23 43L26 43L26 45L25 45L25 46L24 46L24 49L23 49L23 48L21 48L21 52L22 52L22 54L23 54L23 52L24 52L24 53L25 53L25 52L26 52L26 50L25 50L25 47L26 47L26 48L27 48L27 46L29 46L29 48L32 48L32 49L33 49L33 50L34 50L34 51L33 51L33 52L34 52L34 53L36 53L36 54L34 54L34 55L36 55L36 54L39 54L39 53L37 53L37 52L38 52L38 51L36 51L36 52L34 52L34 51L35 51L35 49L34 49L34 48L32 48L32 47L34 47L34 46L36 46L36 45L38 45L38 47L35 47L35 48L37 48L37 49L36 49L36 50L37 50L37 49L38 49L38 48L39 48L39 49L40 49L40 50L39 50L39 52L40 52L40 54L41 54L41 56L42 56L42 54L43 54L43 53L42 53L42 54L41 54L41 52L43 52L43 47L39 47L39 46L41 46L41 45L38 45L38 44L39 44L39 43L40 43L40 44L41 44L41 43L42 43L42 45L43 45L43 46L45 46L45 48L44 48L44 51L45 51L45 52L46 52L46 51L47 51L47 52L48 52L48 48L47 48L47 47L46 47L46 46L48 46L48 47L49 47L49 48L50 48L50 47L49 47L49 46L50 46L50 45L51 45L51 42L50 42L50 41L52 41L52 40L50 40L50 41L47 41L47 42L50 42L50 43L49 43L49 44L44 44L44 42L45 42L45 43L46 43L46 42L45 42L45 41L46 41L46 38L48 38L48 39L47 39L47 40L49 40L49 39L54 39L54 38L53 38L53 36L52 36L52 35L51 35L51 36L49 36L49 37L48 37L48 35L49 35L49 34L50 34L50 33L49 33L49 32L50 32L50 31L49 31L49 32L48 32L48 30L47 30L47 32L46 32L46 31L44 31L44 30L46 30L46 26L47 26L47 27L48 27L48 26L49 26L49 25L50 25L50 24L51 24L51 23L52 23L52 22L51 22L51 21L50 21L50 20L53 20L53 21L54 21L54 22L56 22L56 21L54 21L54 20L55 20L55 19L52 19L52 18L51 18L51 17L48 17L48 18L47 18L47 20L46 20L46 19L44 19L44 18L45 18L45 17L47 17L47 16L45 16L45 17L42 17L42 18L41 18L41 21L44 21L44 22L45 22L45 23L43 23L43 22L41 22L41 23L40 23L40 26L38 26L38 27L41 27L41 23L42 23L42 24L44 24L44 26L43 26L43 25L42 25L42 26L43 26L43 27L42 27L42 28L43 28L43 29L42 29L42 30L40 30L40 29L41 29L41 28L40 28L40 29L38 29L38 30L37 30L37 28L36 28L36 27L35 27L35 25L34 25L34 27L35 27L35 28L34 28L34 29L36 29L36 31L37 31L37 32L36 32L36 33L37 33L37 32L38 32L38 34L39 34L39 31L40 31L40 32L41 32L41 31L44 31L44 33L45 33L45 34L46 34L46 35L45 35L45 36L44 36L44 37L43 37L43 35L44 35L44 34L43 34L43 35L42 35L42 34L41 34L41 35L39 35L39 36L40 36L40 37L41 37L41 39L39 39L39 38L38 38L38 39L37 39L37 37L38 37L38 36L37 36L37 37L35 37L35 36L36 36L36 35L35 35L35 31L33 31L33 29L31 29L31 31L33 31L33 32L31 32L31 34L30 34L30 35L29 35L29 33L30 33L30 32L28 32L28 33L26 33L26 32L27 32L27 31L26 31L26 32L25 32L25 34L24 34L24 35L23 35L23 33L24 33L24 31L23 31L23 30L21 30L21 29L23 29L23 27L22 27L22 26L21 26L21 28L20 28L20 29L18 29L18 28L19 28L19 27L17 27L17 26L19 26L19 25L20 25L20 24L21 24L21 25L23 25L23 26L24 26L24 28L25 28L25 29L24 29L24 30L26 30L26 28L25 28L25 25L27 25L27 26L28 26L28 25L29 25L29 26L31 26L31 23L32 23L32 22L34 22L34 23L33 23L33 24L32 24L32 25L33 25L33 24L35 24L35 23L36 23L36 24L37 24L37 22L35 22L35 21L34 21L34 20L33 20L33 18L32 18L32 20L30 20L30 21L31 21L31 23L30 23L30 22L29 22L29 21L28 21L28 24L26 24L26 23L27 23L27 22L25 22L25 19L24 19L24 18L25 18L25 17L26 17L26 16L27 16L27 13L26 13L26 12L28 12L28 13L30 13L30 14L33 14L33 15L32 15L32 16L33 16L33 15L35 15L35 12L36 12L36 11L37 11L37 12L38 12L38 11L37 11L37 8L39 8L39 7L40 7L40 5L38 5L38 6L37 6L37 5L36 5L36 4L35 4L35 2L36 2L36 1L35 1L35 2L34 2L34 5L33 5L33 3L32 3L32 4L31 4L31 5L32 5L32 6L31 6L31 9L32 9L32 10L29 10L29 9L28 9L28 10L26 10L26 11L25 11L25 13L22 13L22 12L24 12L24 11L21 11L21 12L20 12L20 10L21 10L21 8L22 8L22 6L23 6L23 7L24 7L24 8L23 8L23 9L22 9L22 10L23 10L23 9L24 9L24 8L25 8L25 9L26 9L26 6L25 6L25 5L26 5L26 4L24 4L24 6L23 6L23 3L22 3L22 1ZM27 5L27 8L30 8L30 5ZM24 6L24 7L25 7L25 6ZM28 6L28 7L29 7L29 6ZM32 6L32 8L33 8L33 6ZM34 6L34 9L36 9L36 8L37 8L37 6L36 6L36 7L35 7L35 6ZM38 6L38 7L39 7L39 6ZM48 6L48 7L49 7L49 6ZM19 7L19 10L20 10L20 7ZM9 8L9 10L10 10L10 9L11 9L11 8ZM15 8L15 11L14 11L14 10L13 10L13 12L11 12L11 13L14 13L14 16L11 16L11 17L12 17L12 18L13 18L13 17L15 17L15 19L17 19L17 20L16 20L16 23L18 23L18 24L17 24L17 25L19 25L19 24L20 24L20 23L21 23L21 24L23 24L23 25L25 25L25 22L24 22L24 21L23 21L23 20L22 20L22 19L23 19L23 18L24 18L24 17L25 17L25 16L26 16L26 15L23 15L23 18L22 18L22 17L21 17L21 16L20 16L20 15L21 15L21 13L19 13L19 12L18 12L18 9L17 9L17 11L16 11L16 8ZM56 8L56 9L57 9L57 8ZM38 9L38 10L39 10L39 9ZM33 10L33 14L34 14L34 12L35 12L35 11L36 11L36 10L35 10L35 11L34 11L34 10ZM55 10L55 11L56 11L56 12L57 12L57 10ZM30 11L30 12L31 12L31 13L32 13L32 12L31 12L31 11ZM42 11L42 12L43 12L43 13L44 13L44 12L43 12L43 11ZM9 12L9 13L10 13L10 12ZM15 12L15 15L16 15L16 16L15 16L15 17L17 17L17 19L18 19L18 17L19 17L19 20L18 20L18 23L19 23L19 22L22 22L22 23L23 23L23 22L22 22L22 20L20 20L20 18L21 18L21 19L22 19L22 18L21 18L21 17L19 17L19 15L20 15L20 14L19 14L19 13L18 13L18 12L17 12L17 13L16 13L16 12ZM50 12L50 13L51 13L51 15L54 15L54 14L52 14L52 13L51 13L51 12ZM25 13L25 14L26 14L26 13ZM45 13L45 14L46 14L46 13ZM1 14L1 15L2 15L2 14ZM16 14L16 15L17 15L17 16L18 16L18 14ZM28 15L28 16L29 16L29 17L27 17L27 20L26 20L26 21L27 21L27 20L28 20L28 18L29 18L29 17L30 17L30 19L31 19L31 16L29 16L29 15ZM52 16L52 17L53 17L53 18L54 18L54 17L55 17L55 16ZM36 17L36 18L37 18L37 17ZM1 18L1 19L2 19L2 18ZM42 18L42 19L43 19L43 18ZM48 18L48 19L49 19L49 20L50 20L50 18ZM6 20L6 21L7 21L7 20ZM36 20L36 21L37 21L37 20ZM47 20L47 22L46 22L46 23L45 23L45 26L46 26L46 24L49 24L49 21L48 21L48 20ZM4 21L4 23L5 23L5 24L6 24L6 23L7 23L7 22L5 22L5 21ZM38 21L38 24L39 24L39 21ZM47 22L47 23L48 23L48 22ZM15 25L15 26L14 26L14 27L13 27L13 30L14 30L14 32L13 32L13 34L12 34L12 35L13 35L13 36L14 36L14 37L15 37L15 36L17 36L17 38L18 38L18 37L19 37L19 36L20 36L20 33L21 33L21 36L23 36L23 39L24 39L24 37L26 37L26 41L25 41L25 42L29 42L29 43L27 43L27 44L29 44L29 46L32 46L32 42L33 42L33 45L34 45L34 44L35 44L35 45L36 45L36 43L34 43L34 42L36 42L36 41L34 41L34 40L35 40L35 39L36 39L36 38L35 38L35 39L33 39L33 38L34 38L34 37L33 37L33 38L32 38L32 36L33 36L33 35L34 35L34 34L33 34L33 33L34 33L34 32L33 32L33 33L32 33L32 36L29 36L29 35L28 35L28 34L27 34L27 35L26 35L26 36L23 36L23 35L22 35L22 33L23 33L23 31L22 31L22 32L21 32L21 30L17 30L17 28L14 28L14 27L16 27L16 25ZM5 27L5 30L8 30L8 27ZM27 27L27 30L30 30L30 27ZM32 27L32 28L33 28L33 27ZM43 27L43 28L44 28L44 29L45 29L45 27ZM49 27L49 30L52 30L52 27ZM6 28L6 29L7 29L7 28ZM28 28L28 29L29 29L29 28ZM47 28L47 29L48 29L48 28ZM50 28L50 29L51 29L51 28ZM53 28L53 29L54 29L54 28ZM14 29L14 30L16 30L16 32L14 32L14 33L15 33L15 35L14 35L14 34L13 34L13 35L14 35L14 36L15 36L15 35L16 35L16 34L17 34L17 36L19 36L19 34L18 34L18 33L20 33L20 32L19 32L19 31L18 31L18 33L16 33L16 32L17 32L17 30L16 30L16 29ZM38 30L38 31L39 31L39 30ZM1 31L1 32L3 32L3 31ZM51 31L51 32L52 32L52 34L54 34L54 32L55 32L55 31ZM42 32L42 33L43 33L43 32ZM45 32L45 33L46 33L46 32ZM8 33L8 35L11 35L11 33L10 33L10 34L9 34L9 33ZM55 33L55 34L56 34L56 33ZM47 34L47 35L48 35L48 34ZM6 36L6 37L7 37L7 38L6 38L6 39L5 39L5 40L4 40L4 41L5 41L5 42L6 42L6 43L8 43L8 44L9 44L9 45L10 45L10 44L11 44L11 42L10 42L10 43L8 43L8 42L9 42L9 41L10 41L10 40L9 40L9 41L8 41L8 42L6 42L6 41L7 41L7 40L6 40L6 39L8 39L8 38L9 38L9 37L7 37L7 36ZM10 36L10 37L12 37L12 36ZM27 36L27 38L29 38L29 36ZM46 36L46 37L45 37L45 38L46 38L46 37L47 37L47 36ZM51 36L51 37L49 37L49 38L52 38L52 36ZM21 37L21 38L22 38L22 37ZM10 38L10 39L12 39L12 38ZM30 38L30 39L28 39L28 41L29 41L29 42L31 42L31 41L29 41L29 40L33 40L33 39L32 39L32 38ZM42 38L42 39L41 39L41 40L43 40L43 41L45 41L45 39L44 39L44 38ZM38 39L38 40L37 40L37 41L39 41L39 42L37 42L37 44L38 44L38 43L39 43L39 42L40 42L40 43L41 43L41 42L42 42L42 43L43 43L43 42L42 42L42 41L40 41L40 40L39 40L39 39ZM5 40L5 41L6 41L6 40ZM54 41L54 42L55 42L55 41ZM15 42L15 43L14 43L14 44L15 44L15 43L16 43L16 42ZM29 43L29 44L31 44L31 43ZM53 44L53 45L55 45L55 44ZM26 45L26 46L27 46L27 45ZM8 47L8 49L9 49L9 47ZM16 47L16 48L17 48L17 47ZM19 48L19 49L20 49L20 48ZM41 48L41 49L42 49L42 48ZM45 48L45 49L47 49L47 48ZM56 48L56 50L57 50L57 48ZM13 49L13 50L12 50L12 51L13 51L13 52L11 52L11 54L12 54L12 53L14 53L14 54L15 54L15 53L16 53L16 54L17 54L17 56L18 56L18 54L19 54L19 52L20 52L20 50L19 50L19 51L18 51L18 52L17 52L17 51L15 51L15 50L14 50L14 49ZM22 49L22 52L23 52L23 49ZM27 49L27 52L30 52L30 49ZM49 49L49 52L52 52L52 49ZM24 50L24 51L25 51L25 50ZM28 50L28 51L29 51L29 50ZM45 50L45 51L46 51L46 50ZM50 50L50 51L51 51L51 50ZM31 51L31 53L32 53L32 51ZM40 51L40 52L41 52L41 51ZM14 52L14 53L15 53L15 52ZM54 52L54 53L55 53L55 52ZM17 53L17 54L18 54L18 53ZM20 53L20 55L19 55L19 56L20 56L20 55L21 55L21 56L22 56L22 55L21 55L21 53ZM48 53L48 54L50 54L50 53ZM24 55L24 56L25 56L25 55ZM39 55L39 56L40 56L40 55ZM47 55L47 56L48 56L48 55ZM56 55L56 56L57 56L57 55ZM52 56L52 57L53 57L53 56ZM54 56L54 57L55 57L55 56ZM0 0L0 7L7 7L7 0ZM1 1L1 6L6 6L6 1ZM2 2L2 5L5 5L5 2ZM50 0L50 7L57 7L57 0ZM51 1L51 6L56 6L56 1ZM52 2L52 5L55 5L55 2ZM0 50L0 57L7 57L7 50ZM1 51L1 56L6 56L6 51ZM2 52L2 55L5 55L5 52Z" fill="#000000"/></g></g></svg>
