<?xml version="1.0" encoding="UTF-8"?>
<svg xmlns="http://www.w3.org/2000/svg" version="1.1" width="300" height="300" viewBox="0 0 300 300"><rect x="0" y="0" width="300" height="300" fill="#fefefe"/><g transform="scale(4.615)"><g transform="translate(4,4)"><path fill-rule="evenodd" d="M9 0L9 1L8 1L8 2L9 2L9 3L8 3L8 4L9 4L9 5L8 5L8 7L9 7L9 5L10 5L10 7L11 7L11 6L12 6L12 7L13 7L13 6L14 6L14 7L15 7L15 8L16 8L16 9L15 9L15 10L11 10L11 9L12 9L12 8L10 8L10 9L9 9L9 8L6 8L6 9L5 9L5 8L0 8L0 11L1 11L1 12L0 12L0 14L1 14L1 15L5 15L5 16L3 16L3 17L5 17L5 18L4 18L4 20L5 20L5 18L6 18L6 19L7 19L7 20L6 20L6 21L2 21L2 20L3 20L3 19L2 19L2 20L0 20L0 22L1 22L1 21L2 21L2 23L0 23L0 26L1 26L1 25L2 25L2 24L4 24L4 25L3 25L3 26L4 26L4 28L2 28L2 27L0 27L0 33L1 33L1 32L2 32L2 35L0 35L0 38L1 38L1 39L0 39L0 40L1 40L1 41L2 41L2 39L3 39L3 41L4 41L4 39L3 39L3 36L5 36L5 37L7 37L7 38L5 38L5 39L7 39L7 40L6 40L6 41L7 41L7 42L6 42L6 43L4 43L4 42L2 42L2 43L3 43L3 44L4 44L4 46L5 46L5 47L3 47L3 46L2 46L2 47L1 47L1 46L0 46L0 48L5 48L5 47L7 47L7 48L6 48L6 49L7 49L7 48L8 48L8 47L10 47L10 46L11 46L11 47L13 47L13 45L14 45L14 49L13 49L13 48L12 48L12 50L10 50L10 49L11 49L11 48L10 48L10 49L8 49L8 51L11 51L11 52L8 52L8 57L12 57L12 55L11 55L11 53L12 53L12 52L13 52L13 51L12 51L12 50L14 50L14 54L13 54L13 57L15 57L15 56L14 56L14 54L15 54L15 55L16 55L16 56L17 56L17 57L21 57L21 56L23 56L23 57L26 57L26 56L27 56L27 57L29 57L29 56L30 56L30 57L31 57L31 56L35 56L35 57L39 57L39 56L41 56L41 55L43 55L43 57L44 57L44 54L45 54L45 57L47 57L47 56L50 56L50 57L52 57L52 55L51 55L51 53L52 53L52 54L53 54L53 57L54 57L54 56L55 56L55 57L56 57L56 56L55 56L55 54L54 54L54 53L57 53L57 52L56 52L56 50L57 50L57 48L56 48L56 46L57 46L57 45L56 45L56 44L57 44L57 43L56 43L56 42L55 42L55 39L57 39L57 36L56 36L56 34L55 34L55 32L56 32L56 33L57 33L57 32L56 32L56 30L57 30L57 28L56 28L56 26L57 26L57 25L56 25L56 22L57 22L57 19L56 19L56 18L52 18L52 19L51 19L51 18L50 18L50 17L51 17L51 15L52 15L52 16L55 16L55 17L56 17L56 16L57 16L57 15L56 15L56 14L57 14L57 12L56 12L56 14L55 14L55 13L54 13L54 12L55 12L55 11L56 11L56 10L54 10L54 11L52 11L52 10L53 10L53 9L54 9L54 8L53 8L53 9L52 9L52 8L51 8L51 11L50 11L50 12L49 12L49 11L48 11L48 12L49 12L49 13L47 13L47 14L45 14L45 13L44 13L44 11L45 11L45 12L47 12L47 10L50 10L50 8L49 8L49 6L48 6L48 7L47 7L47 5L48 5L48 0L45 0L45 2L44 2L44 3L43 3L43 4L40 4L40 5L39 5L39 6L38 6L38 4L39 4L39 3L41 3L41 2L43 2L43 0L41 0L41 1L40 1L40 0L39 0L39 1L38 1L38 0L37 0L37 1L38 1L38 2L39 2L39 3L38 3L38 4L37 4L37 3L36 3L36 0L35 0L35 1L33 1L33 0L29 0L29 1L26 1L26 0L23 0L23 1L22 1L22 0L21 0L21 1L20 1L20 0L18 0L18 1L17 1L17 2L18 2L18 3L17 3L17 4L18 4L18 5L17 5L17 6L16 6L16 7L15 7L15 6L14 6L14 5L12 5L12 4L14 4L14 2L16 2L16 1L14 1L14 2L13 2L13 3L12 3L12 1L13 1L13 0L12 0L12 1L11 1L11 0ZM29 1L29 2L31 2L31 3L32 3L32 4L31 4L31 8L32 8L32 10L31 10L31 11L29 11L29 9L27 9L27 10L28 10L28 11L29 11L29 12L28 12L28 13L26 13L26 12L27 12L27 11L26 11L26 12L25 12L25 11L24 11L24 12L25 12L25 15L26 15L26 16L23 16L23 15L24 15L24 14L23 14L23 13L22 13L22 12L21 12L21 11L22 11L22 10L21 10L21 9L23 9L23 8L24 8L24 6L23 6L23 5L24 5L24 4L23 4L23 3L26 3L26 4L25 4L25 8L26 8L26 4L27 4L27 3L28 3L28 4L30 4L30 3L28 3L28 2L22 2L22 3L19 3L19 4L21 4L21 7L22 7L22 8L19 8L19 7L20 7L20 5L18 5L18 6L17 6L17 7L16 7L16 8L19 8L19 9L20 9L20 10L19 10L19 13L20 13L20 16L19 16L19 15L17 15L17 13L18 13L18 12L17 12L17 13L16 13L16 12L15 12L15 13L13 13L13 12L14 12L14 11L13 11L13 12L12 12L12 11L10 11L10 10L8 10L8 9L6 9L6 10L8 10L8 12L10 12L10 14L11 14L11 12L12 12L12 13L13 13L13 14L12 14L12 15L13 15L13 14L15 14L15 13L16 13L16 16L14 16L14 17L13 17L13 16L10 16L10 15L9 15L9 17L8 17L8 14L9 14L9 13L8 13L8 14L7 14L7 13L6 13L6 14L7 14L7 15L6 15L6 16L7 16L7 17L6 17L6 18L7 18L7 19L8 19L8 20L9 20L9 21L6 21L6 22L7 22L7 23L6 23L6 24L5 24L5 23L4 23L4 24L5 24L5 25L6 25L6 26L7 26L7 25L8 25L8 24L9 24L9 25L10 25L10 26L13 26L13 28L11 28L11 32L10 32L10 35L11 35L11 34L12 34L12 35L13 35L13 36L15 36L15 37L16 37L16 38L15 38L15 39L14 39L14 40L13 40L13 37L12 37L12 38L11 38L11 36L10 36L10 38L11 38L11 39L12 39L12 41L13 41L13 42L14 42L14 41L15 41L15 43L12 43L12 42L10 42L10 41L11 41L11 40L10 40L10 39L8 39L8 38L9 38L9 36L8 36L8 35L6 35L6 34L7 34L7 33L8 33L8 34L9 34L9 33L8 33L8 31L6 31L6 32L7 32L7 33L6 33L6 34L5 34L5 31L2 31L2 32L4 32L4 34L5 34L5 35L6 35L6 36L7 36L7 37L8 37L8 38L7 38L7 39L8 39L8 40L9 40L9 41L8 41L8 42L7 42L7 43L6 43L6 44L5 44L5 45L6 45L6 46L7 46L7 47L8 47L8 44L9 44L9 45L11 45L11 46L12 46L12 45L11 45L11 44L14 44L14 45L15 45L15 46L17 46L17 47L18 47L18 48L19 48L19 46L21 46L21 45L22 45L22 46L23 46L23 47L20 47L20 50L21 50L21 52L20 52L20 51L17 51L17 49L16 49L16 48L15 48L15 49L16 49L16 50L15 50L15 51L17 51L17 52L16 52L16 53L15 53L15 54L16 54L16 53L17 53L17 52L20 52L20 53L19 53L19 54L17 54L17 55L18 55L18 56L21 56L21 55L22 55L22 54L23 54L23 55L24 55L24 56L26 56L26 54L27 54L27 56L29 56L29 55L30 55L30 56L31 56L31 54L32 54L32 53L33 53L33 55L35 55L35 56L36 56L36 54L35 54L35 53L34 53L34 52L35 52L35 50L36 50L36 52L38 52L38 54L40 54L40 53L43 53L43 54L44 54L44 53L45 53L45 54L48 54L48 50L47 50L47 49L48 49L48 48L53 48L53 49L54 49L54 48L53 48L53 47L51 47L51 46L53 46L53 45L48 45L48 44L50 44L50 43L51 43L51 44L53 44L53 43L54 43L54 42L53 42L53 41L54 41L54 40L53 40L53 41L51 41L51 42L50 42L50 43L47 43L47 45L45 45L45 44L46 44L46 42L48 42L48 41L49 41L49 37L51 37L51 38L50 38L50 39L55 39L55 37L53 37L53 35L55 35L55 34L54 34L54 33L52 33L52 31L51 31L51 33L52 33L52 34L50 34L50 31L48 31L48 30L47 30L47 29L48 29L48 28L47 28L47 29L46 29L46 30L47 30L47 31L48 31L48 32L47 32L47 33L45 33L45 32L43 32L43 30L40 30L40 29L43 29L43 26L44 26L44 27L45 27L45 28L44 28L44 31L45 31L45 28L46 28L46 27L47 27L47 26L48 26L48 25L50 25L50 26L52 26L52 25L53 25L53 23L51 23L51 24L50 24L50 22L51 22L51 21L54 21L54 22L56 22L56 21L55 21L55 20L56 20L56 19L55 19L55 20L53 20L53 19L52 19L52 20L51 20L51 21L49 21L49 23L47 23L47 24L46 24L46 25L45 25L45 23L46 23L46 22L47 22L47 20L49 20L49 19L50 19L50 18L47 18L47 17L48 17L48 16L49 16L49 17L50 17L50 14L51 14L51 12L50 12L50 14L49 14L49 15L48 15L48 16L47 16L47 15L46 15L46 16L47 16L47 17L45 17L45 15L44 15L44 13L43 13L43 11L42 11L42 10L41 10L41 12L40 12L40 11L39 11L39 9L43 9L43 10L44 10L44 9L45 9L45 10L47 10L47 9L45 9L45 8L46 8L46 6L45 6L45 4L46 4L46 5L47 5L47 3L44 3L44 6L43 6L43 7L42 7L42 6L41 6L41 5L40 5L40 6L39 6L39 7L40 7L40 8L39 8L39 9L38 9L38 11L39 11L39 12L40 12L40 13L38 13L38 14L37 14L37 13L36 13L36 14L37 14L37 15L35 15L35 16L31 16L31 17L32 17L32 18L30 18L30 19L36 19L36 20L37 20L37 21L38 21L38 22L37 22L37 24L39 24L39 25L38 25L38 26L37 26L37 25L33 25L33 24L32 24L32 23L33 23L33 22L34 22L34 23L35 23L35 21L33 21L33 20L32 20L32 21L31 21L31 23L29 23L29 22L28 22L28 23L27 23L27 24L25 24L25 23L26 23L26 22L25 22L25 21L30 21L30 20L29 20L29 19L28 19L28 18L26 18L26 16L27 16L27 17L28 17L28 16L29 16L29 14L30 14L30 15L31 15L31 14L30 14L30 13L31 13L31 11L32 11L32 13L33 13L33 14L35 14L35 11L36 11L36 10L37 10L37 9L35 9L35 8L37 8L37 7L38 7L38 6L37 6L37 7L36 7L36 5L37 5L37 4L36 4L36 5L35 5L35 2L34 2L34 3L32 3L32 2L33 2L33 1ZM46 1L46 2L47 2L47 1ZM10 2L10 3L9 3L9 4L10 4L10 3L11 3L11 4L12 4L12 3L11 3L11 2ZM15 4L15 5L16 5L16 4ZM32 4L32 5L33 5L33 4ZM27 5L27 8L30 8L30 5ZM34 5L34 7L33 7L33 6L32 6L32 7L33 7L33 9L34 9L34 8L35 8L35 5ZM18 6L18 7L19 7L19 6ZM22 6L22 7L23 7L23 6ZM28 6L28 7L29 7L29 6ZM40 6L40 7L41 7L41 6ZM44 6L44 8L43 8L43 9L44 9L44 8L45 8L45 6ZM13 8L13 9L14 9L14 8ZM55 8L55 9L56 9L56 8ZM2 9L2 10L1 10L1 11L2 11L2 10L3 10L3 9ZM16 9L16 10L15 10L15 11L18 11L18 9ZM32 10L32 11L33 11L33 10ZM3 11L3 12L1 12L1 14L3 14L3 12L7 12L7 11ZM20 12L20 13L21 13L21 15L23 15L23 14L22 14L22 13L21 13L21 12ZM33 12L33 13L34 13L34 12ZM52 12L52 13L53 13L53 12ZM28 13L28 14L29 14L29 13ZM41 13L41 14L43 14L43 13ZM26 14L26 15L27 15L27 16L28 16L28 15L27 15L27 14ZM38 14L38 15L39 15L39 16L38 16L38 17L37 17L37 16L35 16L35 17L37 17L37 18L38 18L38 17L39 17L39 19L38 19L38 21L39 21L39 22L38 22L38 23L39 23L39 24L41 24L41 25L39 25L39 26L41 26L41 28L42 28L42 26L43 26L43 25L44 25L44 24L41 24L41 22L42 22L42 23L44 23L44 20L45 20L45 18L44 18L44 15L42 15L42 16L41 16L41 15L40 15L40 14ZM53 14L53 15L54 15L54 14ZM1 16L1 17L0 17L0 19L1 19L1 18L2 18L2 16ZM16 16L16 17L15 17L15 18L16 18L16 17L19 17L19 18L17 18L17 19L15 19L15 21L16 21L16 22L15 22L15 23L14 23L14 24L15 24L15 25L16 25L16 24L17 24L17 25L18 25L18 26L17 26L17 27L18 27L18 26L19 26L19 27L20 27L20 28L19 28L19 29L18 29L18 28L16 28L16 29L15 29L15 27L16 27L16 26L15 26L15 27L14 27L14 29L13 29L13 31L14 31L14 32L13 32L13 33L14 33L14 35L15 35L15 36L16 36L16 35L15 35L15 33L16 33L16 32L17 32L17 33L19 33L19 34L18 34L18 35L19 35L19 36L17 36L17 37L18 37L18 38L20 38L20 39L19 39L19 40L17 40L17 41L19 41L19 42L18 42L18 43L15 43L15 44L16 44L16 45L17 45L17 46L19 46L19 45L21 45L21 44L22 44L22 45L23 45L23 46L25 46L25 44L27 44L27 45L26 45L26 47L27 47L27 48L26 48L26 49L24 49L24 48L23 48L23 49L21 49L21 50L25 50L25 51L26 51L26 52L24 52L24 53L23 53L23 54L24 54L24 53L25 53L25 54L26 54L26 53L27 53L27 54L30 54L30 53L31 53L31 51L32 51L32 52L33 52L33 51L34 51L34 50L33 50L33 49L34 49L34 48L33 48L33 49L32 49L32 47L31 47L31 46L32 46L32 45L30 45L30 44L29 44L29 43L31 43L31 44L33 44L33 43L34 43L34 45L35 45L35 46L33 46L33 47L35 47L35 46L37 46L37 47L36 47L36 48L35 48L35 49L36 49L36 50L38 50L38 52L39 52L39 51L40 51L40 52L41 52L41 50L42 50L42 51L43 51L43 53L44 53L44 52L45 52L45 51L46 51L46 52L47 52L47 50L45 50L45 49L44 49L44 48L45 48L45 47L46 47L46 48L48 48L48 47L50 47L50 46L45 46L45 45L44 45L44 44L43 44L43 42L44 42L44 41L43 41L43 40L47 40L47 39L48 39L48 38L47 38L47 39L46 39L46 38L45 38L45 37L44 37L44 36L46 36L46 37L47 37L47 36L48 36L48 35L50 35L50 36L51 36L51 37L52 37L52 35L53 35L53 34L52 34L52 35L50 35L50 34L48 34L48 35L47 35L47 36L46 36L46 34L45 34L45 33L43 33L43 32L41 32L41 33L39 33L39 34L40 34L40 35L38 35L38 33L37 33L37 32L34 32L34 31L35 31L35 30L33 30L33 29L32 29L32 28L31 28L31 26L32 26L32 27L33 27L33 28L35 28L35 29L38 29L38 28L39 28L39 27L36 27L36 26L34 26L34 27L33 27L33 26L32 26L32 24L31 24L31 25L27 25L27 26L26 26L26 25L25 25L25 24L24 24L24 23L23 23L23 24L24 24L24 25L21 25L21 24L22 24L22 23L21 23L21 24L18 24L18 23L20 23L20 22L19 22L19 21L20 21L20 20L24 20L24 21L23 21L23 22L24 22L24 21L25 21L25 20L26 20L26 18L25 18L25 17L22 17L22 16L21 16L21 17L22 17L22 18L24 18L24 19L21 19L21 18L20 18L20 17L19 17L19 16ZM39 16L39 17L41 17L41 16ZM42 16L42 17L43 17L43 16ZM7 17L7 18L8 18L8 19L10 19L10 20L11 20L11 21L12 21L12 22L14 22L14 21L12 21L12 20L14 20L14 19L12 19L12 18L13 18L13 17L12 17L12 18L11 18L11 19L10 19L10 17L9 17L9 18L8 18L8 17ZM19 18L19 19L17 19L17 20L16 20L16 21L17 21L17 22L18 22L18 21L17 21L17 20L20 20L20 18ZM41 18L41 19L42 19L42 18ZM43 18L43 20L44 20L44 18ZM46 18L46 19L47 19L47 18ZM27 19L27 20L28 20L28 19ZM39 20L39 21L42 21L42 20ZM21 21L21 22L22 22L22 21ZM45 21L45 22L46 22L46 21ZM8 22L8 23L7 23L7 24L6 24L6 25L7 25L7 24L8 24L8 23L9 23L9 22ZM39 22L39 23L40 23L40 22ZM10 23L10 24L11 24L11 25L13 25L13 26L14 26L14 25L13 25L13 23L12 23L12 24L11 24L11 23ZM15 23L15 24L16 24L16 23ZM47 24L47 25L48 25L48 24ZM54 24L54 25L55 25L55 24ZM19 25L19 26L20 26L20 27L21 27L21 28L22 28L22 29L19 29L19 33L20 33L20 34L19 34L19 35L20 35L20 36L19 36L19 37L23 37L23 38L24 38L24 37L23 37L23 36L24 36L24 34L23 34L23 33L25 33L25 34L26 34L26 35L27 35L27 37L25 37L25 38L27 38L27 39L25 39L25 40L24 40L24 39L23 39L23 40L22 40L22 39L21 39L21 40L19 40L19 41L20 41L20 42L19 42L19 44L20 44L20 42L21 42L21 43L22 43L22 42L24 42L24 41L25 41L25 43L27 43L27 44L28 44L28 45L27 45L27 47L28 47L28 48L30 48L30 47L29 47L29 44L28 44L28 43L27 43L27 42L26 42L26 41L28 41L28 42L29 42L29 41L30 41L30 42L32 42L32 43L33 43L33 42L34 42L34 43L37 43L37 42L35 42L35 40L38 40L38 42L39 42L39 41L41 41L41 39L45 39L45 38L44 38L44 37L43 37L43 36L44 36L44 35L45 35L45 34L42 34L42 35L41 35L41 36L40 36L40 37L38 37L38 35L37 35L37 34L35 34L35 33L34 33L34 32L33 32L33 30L31 30L31 31L27 31L27 32L26 32L26 31L25 31L25 30L24 30L24 31L25 31L25 32L21 32L21 31L23 31L23 29L26 29L26 28L23 28L23 27L24 27L24 26L22 26L22 27L21 27L21 25ZM41 25L41 26L42 26L42 25ZM25 26L25 27L26 27L26 26ZM53 26L53 27L54 27L54 26ZM5 27L5 30L8 30L8 27ZM9 27L9 28L10 28L10 27ZM27 27L27 30L30 30L30 27ZM35 27L35 28L36 28L36 27ZM49 27L49 30L52 30L52 27ZM6 28L6 29L7 29L7 28ZM28 28L28 29L29 29L29 28ZM50 28L50 29L51 29L51 28ZM54 28L54 29L55 29L55 28ZM1 29L1 30L2 30L2 29ZM14 29L14 30L15 30L15 29ZM16 29L16 30L18 30L18 29ZM38 30L38 32L39 32L39 30ZM17 31L17 32L18 32L18 31ZM31 31L31 33L29 33L29 32L28 32L28 33L29 33L29 34L30 34L30 36L29 36L29 37L31 37L31 38L29 38L29 39L33 39L33 40L35 40L35 39L37 39L37 38L38 38L38 37L37 37L37 36L35 36L35 35L34 35L34 36L33 36L33 35L31 35L31 34L32 34L32 31ZM11 32L11 33L12 33L12 32ZM14 32L14 33L15 33L15 32ZM20 32L20 33L21 33L21 34L20 34L20 35L22 35L22 36L23 36L23 34L22 34L22 33L21 33L21 32ZM48 32L48 33L49 33L49 32ZM26 33L26 34L27 34L27 33ZM2 35L2 36L3 36L3 35ZM32 36L32 37L33 37L33 39L35 39L35 37L33 37L33 36ZM1 37L1 38L2 38L2 37ZM27 37L27 38L28 38L28 37ZM40 37L40 38L43 38L43 37ZM15 39L15 40L16 40L16 39ZM27 39L27 40L28 40L28 41L29 41L29 40L28 40L28 39ZM38 39L38 40L40 40L40 39ZM23 40L23 41L24 41L24 40ZM30 40L30 41L32 41L32 42L33 42L33 41L32 41L32 40ZM21 41L21 42L22 42L22 41ZM45 41L45 42L46 42L46 41ZM8 42L8 43L9 43L9 44L11 44L11 43L9 43L9 42ZM51 42L51 43L53 43L53 42ZM23 43L23 45L24 45L24 43ZM40 43L40 44L39 44L39 45L38 45L38 46L39 46L39 45L41 45L41 44L42 44L42 43ZM1 44L1 45L2 45L2 44ZM6 44L6 45L7 45L7 44ZM17 44L17 45L18 45L18 44ZM54 44L54 45L55 45L55 46L56 46L56 45L55 45L55 44ZM43 45L43 46L41 46L41 48L39 48L39 47L38 47L38 48L37 48L37 49L38 49L38 50L41 50L41 48L42 48L42 49L43 49L43 50L44 50L44 49L43 49L43 48L44 48L44 45ZM42 47L42 48L43 48L43 47ZM38 48L38 49L39 49L39 48ZM55 48L55 50L54 50L54 51L55 51L55 50L56 50L56 48ZM27 49L27 52L30 52L30 49ZM31 49L31 50L32 50L32 49ZM49 49L49 52L52 52L52 49ZM28 50L28 51L29 51L29 50ZM50 50L50 51L51 51L51 50ZM53 52L53 53L54 53L54 52ZM21 53L21 54L22 54L22 53ZM19 54L19 55L20 55L20 54ZM10 55L10 56L11 56L11 55ZM37 55L37 56L39 56L39 55ZM46 55L46 56L47 56L47 55ZM50 55L50 56L51 56L51 55ZM0 0L0 7L7 7L7 0ZM1 1L1 6L6 6L6 1ZM2 2L2 5L5 5L5 2ZM50 0L50 7L57 7L57 0ZM51 1L51 6L56 6L56 1ZM52 2L52 5L55 5L55 2ZM0 50L0 57L7 57L7 50ZM1 51L1 56L6 56L6 51ZM2 52L2 55L5 55L5 52Z" fill="#000000"/></g></g></svg>
