<?xml version="1.0" encoding="UTF-8"?>
<svg xmlns="http://www.w3.org/2000/svg" version="1.1" width="300" height="300" viewBox="0 0 300 300"><rect x="0" y="0" width="300" height="300" fill="#fefefe"/><g transform="scale(4.615)"><g transform="translate(4,4)"><path fill-rule="evenodd" d="M8 0L8 2L9 2L9 1L10 1L10 2L12 2L12 3L11 3L11 4L10 4L10 3L9 3L9 4L8 4L8 9L7 9L7 8L5 8L5 9L7 9L7 10L6 10L6 11L4 11L4 10L2 10L2 11L0 11L0 14L2 14L2 15L3 15L3 16L5 16L5 17L2 17L2 16L1 16L1 15L0 15L0 16L1 16L1 17L2 17L2 18L1 18L1 19L2 19L2 20L4 20L4 21L3 21L3 22L2 22L2 21L1 21L1 20L0 20L0 22L2 22L2 23L0 23L0 27L2 27L2 26L3 26L3 27L4 27L4 29L3 29L3 28L0 28L0 29L2 29L2 30L4 30L4 31L3 31L3 32L4 32L4 33L3 33L3 35L4 35L4 37L3 37L3 36L2 36L2 34L1 34L1 33L2 33L2 32L1 32L1 31L0 31L0 32L1 32L1 33L0 33L0 37L1 37L1 36L2 36L2 38L0 38L0 39L1 39L1 42L0 42L0 43L1 43L1 44L2 44L2 45L3 45L3 43L5 43L5 42L6 42L6 43L8 43L8 44L4 44L4 46L5 46L5 47L3 47L3 46L2 46L2 47L1 47L1 45L0 45L0 48L5 48L5 47L7 47L7 48L6 48L6 49L7 49L7 48L8 48L8 50L10 50L10 49L11 49L11 50L12 50L12 51L10 51L10 52L11 52L11 53L9 53L9 54L8 54L8 57L10 57L10 56L11 56L11 57L12 57L12 56L13 56L13 53L14 53L14 54L15 54L15 56L16 56L16 57L17 57L17 55L18 55L18 57L19 57L19 54L18 54L18 53L19 53L19 52L20 52L20 53L21 53L21 51L22 51L22 53L23 53L23 55L22 55L22 56L21 56L21 57L25 57L25 55L26 55L26 57L28 57L28 55L29 55L29 57L33 57L33 55L30 55L30 54L31 54L31 53L32 53L32 54L34 54L34 57L35 57L35 55L38 55L38 53L39 53L39 56L40 56L40 57L41 57L41 56L42 56L42 57L43 57L43 54L42 54L42 53L43 53L43 52L44 52L44 55L45 55L45 56L44 56L44 57L45 57L45 56L46 56L46 57L48 57L48 55L49 55L49 57L50 57L50 55L49 55L49 54L52 54L52 55L53 55L53 56L51 56L51 57L54 57L54 54L53 54L53 53L57 53L57 49L56 49L56 47L57 47L57 45L56 45L56 44L57 44L57 40L54 40L54 38L57 38L57 37L55 37L55 36L54 36L54 34L53 34L53 36L51 36L51 33L50 33L50 32L49 32L49 31L51 31L51 32L52 32L52 31L55 31L55 34L56 34L56 35L57 35L57 34L56 34L56 31L57 31L57 28L56 28L56 29L53 29L53 28L54 28L54 27L55 27L55 26L54 26L54 23L55 23L55 24L56 24L56 27L57 27L57 24L56 24L56 23L57 23L57 18L56 18L56 17L57 17L57 13L56 13L56 12L57 12L57 10L56 10L56 12L55 12L55 13L56 13L56 15L55 15L55 16L54 16L54 13L53 13L53 12L54 12L54 11L55 11L55 9L57 9L57 8L55 8L55 9L54 9L54 10L52 10L52 9L53 9L53 8L48 8L48 7L49 7L49 6L48 6L48 7L47 7L47 5L48 5L48 0L46 0L46 1L45 1L45 0L42 0L42 1L41 1L41 0L38 0L38 2L37 2L37 1L35 1L35 0L34 0L34 2L33 2L33 1L32 1L32 0L30 0L30 1L32 1L32 2L31 2L31 4L30 4L30 3L29 3L29 4L28 4L28 0L26 0L26 2L25 2L25 4L24 4L24 1L25 1L25 0L24 0L24 1L23 1L23 0L20 0L20 1L21 1L21 2L20 2L20 3L21 3L21 5L20 5L20 7L19 7L19 4L18 4L18 3L17 3L17 1L18 1L18 0L16 0L16 1L14 1L14 0L13 0L13 1L10 1L10 0ZM13 1L13 3L12 3L12 4L11 4L11 5L9 5L9 7L10 7L10 8L13 8L13 15L12 15L12 13L11 13L11 12L12 12L12 10L11 10L11 9L10 9L10 10L9 10L9 9L8 9L8 10L7 10L7 11L6 11L6 12L3 12L3 11L2 11L2 12L3 12L3 13L6 13L6 14L5 14L5 16L7 16L7 17L5 17L5 18L9 18L9 19L5 19L5 21L4 21L4 22L3 22L3 24L1 24L1 25L3 25L3 26L4 26L4 25L5 25L5 26L7 26L7 25L9 25L9 24L14 24L14 22L15 22L15 21L14 21L14 22L13 22L13 20L10 20L10 19L13 19L13 18L14 18L14 16L15 16L15 18L16 18L16 19L14 19L14 20L16 20L16 19L17 19L17 21L18 21L18 23L17 23L17 22L16 22L16 23L17 23L17 25L16 25L16 27L15 27L15 25L13 25L13 27L12 27L12 26L9 26L9 27L10 27L10 28L9 28L9 31L8 31L8 32L9 32L9 33L8 33L8 34L7 34L7 33L4 33L4 34L7 34L7 35L6 35L6 36L7 36L7 37L4 37L4 38L3 38L3 39L2 39L2 40L3 40L3 39L4 39L4 40L5 40L5 41L4 41L4 42L5 42L5 41L6 41L6 42L8 42L8 41L6 41L6 40L9 40L9 39L12 39L12 40L10 40L10 42L9 42L9 43L10 43L10 44L8 44L8 45L6 45L6 46L7 46L7 47L8 47L8 48L9 48L9 47L8 47L8 45L11 45L11 46L12 46L12 47L11 47L11 48L13 48L13 49L14 49L14 50L15 50L15 49L16 49L16 51L14 51L14 53L15 53L15 52L17 52L17 53L18 53L18 52L19 52L19 51L20 51L20 50L22 50L22 48L23 48L23 49L24 49L24 51L23 51L23 52L24 52L24 51L25 51L25 54L24 54L24 55L25 55L25 54L26 54L26 55L28 55L28 53L27 53L27 54L26 54L26 50L25 50L25 48L31 48L31 52L32 52L32 50L33 50L33 49L32 49L32 48L33 48L33 47L30 47L30 45L31 45L31 43L32 43L32 40L33 40L33 41L34 41L34 42L35 42L35 41L36 41L36 44L33 44L33 45L32 45L32 46L33 46L33 45L34 45L34 52L33 52L33 53L34 53L34 54L35 54L35 53L36 53L36 54L37 54L37 53L36 53L36 52L35 52L35 51L37 51L37 52L38 52L38 51L39 51L39 49L40 49L40 51L41 51L41 49L42 49L42 50L43 50L43 51L42 51L42 52L43 52L43 51L45 51L45 55L48 55L48 54L49 54L49 53L46 53L46 51L47 51L47 52L48 52L48 51L47 51L47 49L46 49L46 48L47 48L47 47L48 47L48 46L49 46L49 48L53 48L53 47L54 47L54 48L55 48L55 47L56 47L56 45L55 45L55 44L56 44L56 41L54 41L54 40L52 40L52 39L51 39L51 40L50 40L50 38L51 38L51 37L50 37L50 33L49 33L49 34L48 34L48 33L47 33L47 30L48 30L48 28L46 28L46 29L45 29L45 30L46 30L46 31L45 31L45 33L44 33L44 34L43 34L43 33L42 33L42 31L44 31L44 26L45 26L45 25L46 25L46 26L47 26L47 25L48 25L48 26L49 26L49 24L48 24L48 23L49 23L49 22L50 22L50 24L51 24L51 25L50 25L50 26L51 26L51 25L52 25L52 26L53 26L53 25L52 25L52 24L53 24L53 23L54 23L54 22L52 22L52 20L53 20L53 19L54 19L54 21L55 21L55 23L56 23L56 18L55 18L55 19L54 19L54 17L53 17L53 18L52 18L52 16L53 16L53 14L52 14L52 13L50 13L50 10L51 10L51 12L52 12L52 10L51 10L51 9L50 9L50 10L49 10L49 9L48 9L48 11L47 11L47 9L46 9L46 8L47 8L47 7L46 7L46 5L47 5L47 3L46 3L46 5L44 5L44 4L45 4L45 1L42 1L42 2L40 2L40 1L39 1L39 2L40 2L40 4L39 4L39 3L37 3L37 2L34 2L34 4L35 4L35 9L34 9L34 10L33 10L33 9L32 9L32 8L34 8L34 6L33 6L33 2L32 2L32 5L31 5L31 9L30 9L30 10L28 10L28 9L27 9L27 10L25 10L25 9L26 9L26 5L24 5L24 6L23 6L23 8L24 8L24 10L23 10L23 9L22 9L22 5L23 5L23 3L22 3L22 5L21 5L21 9L20 9L20 8L19 8L19 9L20 9L20 11L18 11L18 12L19 12L19 13L18 13L18 14L17 14L17 12L16 12L16 10L18 10L18 5L16 5L16 6L15 6L15 7L14 7L14 5L13 5L13 3L14 3L14 4L15 4L15 3L14 3L14 1ZM22 1L22 2L23 2L23 1ZM46 1L46 2L47 2L47 1ZM43 2L43 3L42 3L42 5L43 5L43 6L42 6L42 8L40 8L40 9L39 9L39 10L40 10L40 11L38 11L38 8L39 8L39 6L38 6L38 5L39 5L39 4L38 4L38 5L37 5L37 6L36 6L36 10L34 10L34 11L32 11L32 9L31 9L31 10L30 10L30 12L29 12L29 11L28 11L28 10L27 10L27 11L28 11L28 12L27 12L27 13L26 13L26 11L25 11L25 10L24 10L24 12L23 12L23 11L22 11L22 12L23 12L23 14L24 14L24 13L26 13L26 14L25 14L25 16L26 16L26 18L24 18L24 15L23 15L23 16L22 16L22 14L20 14L20 13L21 13L21 11L20 11L20 13L19 13L19 14L20 14L20 15L21 15L21 18L20 18L20 16L18 16L18 15L17 15L17 14L15 14L15 15L17 15L17 16L18 16L18 17L17 17L17 18L18 18L18 19L19 19L19 18L20 18L20 21L21 21L21 22L20 22L20 23L21 23L21 26L20 26L20 25L19 25L19 23L18 23L18 25L19 25L19 26L20 26L20 29L19 29L19 30L15 30L15 31L13 31L13 29L14 29L14 28L10 28L10 32L11 32L11 33L10 33L10 34L11 34L11 33L12 33L12 36L11 36L11 35L10 35L10 36L8 36L8 35L9 35L9 34L8 34L8 35L7 35L7 36L8 36L8 38L6 38L6 39L5 39L5 40L6 40L6 39L9 39L9 38L10 38L10 36L11 36L11 38L13 38L13 39L14 39L14 40L13 40L13 41L14 41L14 42L13 42L13 44L12 44L12 42L11 42L11 44L12 44L12 46L13 46L13 47L14 47L14 49L15 49L15 48L16 48L16 49L17 49L17 48L16 48L16 47L18 47L18 51L19 51L19 50L20 50L20 49L21 49L21 48L22 48L22 46L20 46L20 45L21 45L21 44L20 44L20 45L19 45L19 44L18 44L18 43L20 43L20 41L21 41L21 40L22 40L22 41L23 41L23 43L22 43L22 44L23 44L23 43L24 43L24 45L23 45L23 48L25 48L25 47L26 47L26 46L27 46L27 47L28 47L28 44L29 44L29 45L30 45L30 43L31 43L31 42L30 42L30 43L28 43L28 42L27 42L27 40L25 40L25 41L26 41L26 42L25 42L25 43L24 43L24 40L22 40L22 39L23 39L23 38L22 38L22 37L23 37L23 35L25 35L25 36L24 36L24 37L25 37L25 36L28 36L28 37L29 37L29 36L28 36L28 35L31 35L31 36L30 36L30 40L29 40L29 41L31 41L31 38L33 38L33 39L34 39L34 41L35 41L35 38L36 38L36 41L37 41L37 42L38 42L38 41L39 41L39 39L38 39L38 36L39 36L39 38L40 38L40 39L41 39L41 35L40 35L40 36L39 36L39 34L38 34L38 33L39 33L39 32L40 32L40 34L42 34L42 33L41 33L41 32L40 32L40 30L41 30L41 31L42 31L42 28L43 28L43 27L41 27L41 26L42 26L42 25L41 25L41 23L38 23L38 25L37 25L37 24L36 24L36 23L37 23L37 22L38 22L38 21L39 21L39 19L40 19L40 22L42 22L42 23L43 23L43 22L44 22L44 23L45 23L45 22L44 22L44 21L45 21L45 20L46 20L46 21L47 21L47 23L48 23L48 21L49 21L49 20L51 20L51 19L50 19L50 17L51 17L51 16L50 16L50 13L49 13L49 14L48 14L48 12L49 12L49 11L48 11L48 12L47 12L47 11L46 11L46 13L45 13L45 12L44 12L44 13L43 13L43 16L44 16L44 17L43 17L43 18L42 18L42 17L41 17L41 15L42 15L42 12L43 12L43 11L42 11L42 8L44 8L44 10L45 10L45 8L46 8L46 7L45 7L45 6L44 6L44 5L43 5L43 4L44 4L44 2ZM16 3L16 4L17 4L17 3ZM26 3L26 4L27 4L27 3ZM35 3L35 4L36 4L36 3ZM11 5L11 6L10 6L10 7L11 7L11 6L12 6L12 7L13 7L13 5ZM27 5L27 8L30 8L30 5ZM16 6L16 7L17 7L17 6ZM24 6L24 7L25 7L25 6ZM28 6L28 7L29 7L29 6ZM32 6L32 7L33 7L33 6ZM37 6L37 7L38 7L38 6ZM40 6L40 7L41 7L41 6ZM43 6L43 7L44 7L44 6ZM0 8L0 10L1 10L1 9L3 9L3 8ZM14 8L14 9L15 9L15 10L16 10L16 9L15 9L15 8ZM8 10L8 11L9 11L9 12L6 12L6 13L8 13L8 14L9 14L9 16L10 16L10 18L12 18L12 17L13 17L13 16L14 16L14 15L13 15L13 16L12 16L12 17L11 17L11 16L10 16L10 15L11 15L11 14L9 14L9 13L10 13L10 11L11 11L11 10L10 10L10 11L9 11L9 10ZM14 11L14 12L15 12L15 11ZM31 11L31 12L30 12L30 13L29 13L29 15L28 15L28 14L26 14L26 16L27 16L27 19L26 19L26 20L27 20L27 22L26 22L26 23L27 23L27 25L26 25L26 26L29 26L29 25L28 25L28 24L30 24L30 26L31 26L31 25L32 25L32 27L31 27L31 32L30 32L30 31L29 31L29 32L27 32L27 33L28 33L28 34L27 34L27 35L28 35L28 34L29 34L29 32L30 32L30 34L31 34L31 33L32 33L32 32L33 32L33 33L34 33L34 34L35 34L35 33L36 33L36 35L35 35L35 36L34 36L34 38L35 38L35 37L36 37L36 38L37 38L37 37L36 37L36 35L37 35L37 36L38 36L38 34L37 34L37 33L36 33L36 31L37 31L37 32L38 32L38 31L39 31L39 30L40 30L40 28L41 28L41 27L40 27L40 26L41 26L41 25L40 25L40 24L39 24L39 25L38 25L38 26L39 26L39 29L38 29L38 28L37 28L37 29L36 29L36 27L37 27L37 26L36 26L36 24L34 24L34 23L33 23L33 24L34 24L34 26L33 26L33 25L32 25L32 23L31 23L31 22L33 22L33 21L34 21L34 22L35 22L35 23L36 23L36 22L37 22L37 21L38 21L38 19L37 19L37 18L36 18L36 15L37 15L37 16L38 16L38 18L40 18L40 19L41 19L41 18L40 18L40 15L41 15L41 13L40 13L40 15L39 15L39 12L37 12L37 11L34 11L34 12L35 12L35 13L34 13L34 15L33 15L33 14L32 14L32 11ZM41 11L41 12L42 12L42 11ZM36 12L36 14L35 14L35 15L34 15L34 17L33 17L33 15L31 15L31 16L30 16L30 15L29 15L29 16L30 16L30 17L28 17L28 18L30 18L30 17L31 17L31 16L32 16L32 17L33 17L33 19L30 19L30 20L28 20L28 22L27 22L27 23L29 23L29 22L30 22L30 20L32 20L32 21L33 21L33 19L34 19L34 17L35 17L35 15L36 15L36 14L37 14L37 15L38 15L38 13L37 13L37 12ZM46 13L46 15L48 15L48 14L47 14L47 13ZM3 14L3 15L4 15L4 14ZM6 14L6 15L7 15L7 14ZM44 14L44 16L45 16L45 14ZM51 14L51 15L52 15L52 14ZM46 16L46 17L44 17L44 19L42 19L42 20L41 20L41 21L42 21L42 22L43 22L43 21L44 21L44 19L47 19L47 20L48 20L48 19L49 19L49 17L48 17L48 16ZM55 16L55 17L56 17L56 16ZM47 17L47 19L48 19L48 17ZM3 18L3 19L4 19L4 18ZM21 18L21 21L22 21L22 20L23 20L23 18ZM35 18L35 20L36 20L36 21L35 21L35 22L36 22L36 21L37 21L37 19L36 19L36 18ZM24 19L24 20L25 20L25 19ZM6 20L6 21L7 21L7 20ZM9 20L9 21L8 21L8 24L9 24L9 22L10 22L10 23L12 23L12 21L10 21L10 20ZM18 20L18 21L19 21L19 20ZM6 22L6 23L7 23L7 22ZM21 22L21 23L22 23L22 24L23 24L23 25L24 25L24 26L23 26L23 27L22 27L22 28L23 28L23 29L22 29L22 30L21 30L21 29L20 29L20 31L19 31L19 33L20 33L20 34L18 34L18 35L16 35L16 34L17 34L17 33L18 33L18 32L17 32L17 31L16 31L16 32L14 32L14 35L13 35L13 36L12 36L12 37L13 37L13 38L14 38L14 39L15 39L15 40L14 40L14 41L15 41L15 40L16 40L16 43L15 43L15 45L16 45L16 46L15 46L15 47L16 47L16 46L17 46L17 45L16 45L16 43L17 43L17 39L18 39L18 40L19 40L19 41L20 41L20 40L19 40L19 37L18 37L18 35L20 35L20 36L21 36L21 37L22 37L22 36L21 36L21 35L22 35L22 34L23 34L23 33L22 33L22 30L23 30L23 29L24 29L24 30L25 30L25 31L24 31L24 34L25 34L25 35L26 35L26 30L25 30L25 29L24 29L24 28L23 28L23 27L24 27L24 26L25 26L25 25L24 25L24 24L23 24L23 22ZM24 22L24 23L25 23L25 22ZM51 22L51 24L52 24L52 22ZM4 23L4 24L5 24L5 25L7 25L7 24L5 24L5 23ZM30 23L30 24L31 24L31 23ZM44 24L44 25L45 25L45 24ZM46 24L46 25L47 25L47 24ZM39 25L39 26L40 26L40 25ZM5 27L5 30L8 30L8 27ZM16 27L16 28L17 28L17 27ZM18 27L18 28L19 28L19 27ZM27 27L27 30L30 30L30 27ZM34 27L34 29L33 29L33 28L32 28L32 29L33 29L33 30L32 30L32 31L34 31L34 29L35 29L35 31L36 31L36 29L35 29L35 27ZM49 27L49 30L52 30L52 27ZM6 28L6 29L7 29L7 28ZM28 28L28 29L29 29L29 28ZM50 28L50 29L51 29L51 28ZM11 30L11 31L12 31L12 33L13 33L13 31L12 31L12 30ZM37 30L37 31L38 31L38 30ZM55 30L55 31L56 31L56 30ZM5 31L5 32L7 32L7 31ZM20 31L20 32L21 32L21 31ZM16 32L16 33L15 33L15 34L16 34L16 33L17 33L17 32ZM34 32L34 33L35 33L35 32ZM45 33L45 34L44 34L44 38L43 38L43 39L42 39L42 41L41 41L41 40L40 40L40 42L39 42L39 43L37 43L37 44L36 44L36 46L35 46L35 47L36 47L36 46L38 46L38 45L37 45L37 44L39 44L39 43L40 43L40 45L39 45L39 47L40 47L40 49L41 49L41 47L42 47L42 45L43 45L43 44L44 44L44 46L43 46L43 47L46 47L46 44L47 44L47 45L48 45L48 44L49 44L49 43L48 43L48 44L47 44L47 43L46 43L46 40L47 40L47 41L48 41L48 40L49 40L49 39L48 39L48 40L47 40L47 38L46 38L46 37L45 37L45 34L46 34L46 35L47 35L47 37L48 37L48 38L49 38L49 37L48 37L48 36L49 36L49 35L48 35L48 34L46 34L46 33ZM20 34L20 35L21 35L21 34ZM32 34L32 35L33 35L33 34ZM14 35L14 37L15 37L15 36L16 36L16 37L17 37L17 38L16 38L16 39L17 39L17 38L18 38L18 37L17 37L17 36L16 36L16 35ZM42 35L42 37L43 37L43 35ZM31 36L31 37L32 37L32 36ZM53 36L53 37L52 37L52 38L54 38L54 36ZM20 38L20 39L21 39L21 38ZM24 38L24 39L25 39L25 38ZM28 38L28 39L29 39L29 38ZM45 38L45 39L46 39L46 38ZM37 39L37 41L38 41L38 39ZM51 40L51 41L49 41L49 42L50 42L50 44L52 44L52 40ZM42 41L42 42L43 42L43 43L41 43L41 42L40 42L40 43L41 43L41 45L40 45L40 47L41 47L41 45L42 45L42 44L43 44L43 43L44 43L44 44L45 44L45 43L44 43L44 42L45 42L45 41L44 41L44 42L43 42L43 41ZM53 41L53 44L54 44L54 43L55 43L55 42L54 42L54 41ZM1 42L1 43L2 43L2 42ZM13 44L13 46L14 46L14 44ZM18 45L18 47L19 47L19 48L20 48L20 47L19 47L19 45ZM24 45L24 46L26 46L26 45ZM50 45L50 47L52 47L52 46L51 46L51 45ZM37 47L37 48L36 48L36 49L37 49L37 51L38 51L38 47ZM44 48L44 49L45 49L45 51L46 51L46 49L45 49L45 48ZM27 49L27 52L30 52L30 49ZM49 49L49 52L52 52L52 49ZM54 49L54 50L53 50L53 51L54 51L54 52L55 52L55 51L56 51L56 49ZM28 50L28 51L29 51L29 50ZM50 50L50 51L51 51L51 50ZM8 51L8 52L9 52L9 51ZM12 51L12 53L13 53L13 51ZM39 52L39 53L40 53L40 52ZM9 54L9 56L10 56L10 54ZM11 54L11 56L12 56L12 54ZM16 54L16 55L17 55L17 54ZM20 54L20 55L21 55L21 54ZM40 54L40 55L42 55L42 54ZM55 54L55 55L57 55L57 54ZM36 56L36 57L37 57L37 56ZM56 56L56 57L57 57L57 56ZM0 0L0 7L7 7L7 0ZM1 1L1 6L6 6L6 1ZM2 2L2 5L5 5L5 2ZM50 0L50 7L57 7L57 0ZM51 1L51 6L56 6L56 1ZM52 2L52 5L55 5L55 2ZM0 50L0 57L7 57L7 50ZM1 51L1 56L6 56L6 51ZM2 52L2 55L5 55L5 52Z" fill="#000000"/></g></g></svg>
