<?xml version="1.0" encoding="UTF-8"?>
<svg xmlns="http://www.w3.org/2000/svg" version="1.1" width="300" height="300" viewBox="0 0 300 300"><rect x="0" y="0" width="300" height="300" fill="#fefefe"/><g transform="scale(4.615)"><g transform="translate(4,4)"><path fill-rule="evenodd" d="M10 0L10 1L8 1L8 2L9 2L9 3L8 3L8 4L9 4L9 5L8 5L8 7L9 7L9 5L12 5L12 7L11 7L11 6L10 6L10 7L11 7L11 9L12 9L12 8L13 8L13 11L11 11L11 10L9 10L9 8L6 8L6 9L5 9L5 8L0 8L0 9L3 9L3 10L2 10L2 11L3 11L3 10L4 10L4 11L5 11L5 10L6 10L6 11L7 11L7 10L8 10L8 12L5 12L5 13L4 13L4 12L2 12L2 14L3 14L3 15L0 15L0 16L3 16L3 17L4 17L4 15L5 15L5 18L6 18L6 19L7 19L7 20L4 20L4 18L1 18L1 17L0 17L0 19L1 19L1 21L0 21L0 22L2 22L2 20L3 20L3 23L2 23L2 24L0 24L0 25L3 25L3 23L4 23L4 25L5 25L5 26L3 26L3 27L2 27L2 26L0 26L0 27L2 27L2 28L0 28L0 29L2 29L2 28L3 28L3 31L4 31L4 32L5 32L5 31L8 31L8 33L7 33L7 32L6 32L6 33L7 33L7 34L5 34L5 36L6 36L6 37L4 37L4 35L3 35L3 34L2 34L2 33L3 33L3 32L1 32L1 31L2 31L2 30L0 30L0 33L1 33L1 34L2 34L2 35L3 35L3 36L1 36L1 35L0 35L0 37L3 37L3 38L2 38L2 39L1 39L1 38L0 38L0 39L1 39L1 40L0 40L0 42L1 42L1 44L0 44L0 45L4 45L4 46L5 46L5 47L3 47L3 46L2 46L2 47L1 47L1 46L0 46L0 48L5 48L5 47L7 47L7 46L5 46L5 45L4 45L4 44L6 44L6 45L7 45L7 44L8 44L8 51L9 51L9 52L8 52L8 57L9 57L9 55L10 55L10 56L12 56L12 55L10 55L10 53L12 53L12 54L13 54L13 56L15 56L15 57L16 57L16 56L17 56L17 57L19 57L19 56L17 56L17 54L19 54L19 55L20 55L20 54L19 54L19 53L20 53L20 52L21 52L21 51L22 51L22 50L25 50L25 51L26 51L26 52L24 52L24 53L23 53L23 54L22 54L22 53L21 53L21 54L22 54L22 55L21 55L21 56L23 56L23 57L26 57L26 56L24 56L24 55L23 55L23 54L24 54L24 53L25 53L25 55L26 55L26 53L27 53L27 54L30 54L30 53L31 53L31 51L32 51L32 52L33 52L33 53L32 53L32 54L31 54L31 56L30 56L30 55L29 55L29 56L27 56L27 57L29 57L29 56L30 56L30 57L31 57L31 56L35 56L35 57L39 57L39 56L37 56L37 55L41 55L41 54L42 54L42 55L44 55L44 54L45 54L45 53L47 53L47 55L45 55L45 57L47 57L47 55L49 55L49 56L50 56L50 57L52 57L52 55L51 55L51 53L52 53L52 54L53 54L53 55L54 55L54 56L53 56L53 57L54 57L54 56L55 56L55 57L56 57L56 56L55 56L55 54L54 54L54 53L56 53L56 52L57 52L57 51L56 51L56 49L57 49L57 48L56 48L56 46L57 46L57 43L56 43L56 42L55 42L55 39L57 39L57 37L56 37L56 36L57 36L57 35L56 35L56 33L57 33L57 32L56 32L56 30L57 30L57 28L56 28L56 27L55 27L55 26L57 26L57 25L56 25L56 22L57 22L57 21L56 21L56 20L57 20L57 19L56 19L56 16L57 16L57 15L56 15L56 14L57 14L57 13L56 13L56 12L55 12L55 11L56 11L56 8L55 8L55 10L54 10L54 11L53 11L53 9L54 9L54 8L53 8L53 9L52 9L52 8L51 8L51 9L52 9L52 11L50 11L50 8L49 8L49 6L48 6L48 7L47 7L47 5L48 5L48 0L45 0L45 2L44 2L44 3L43 3L43 4L42 4L42 2L43 2L43 0L41 0L41 1L40 1L40 0L39 0L39 1L38 1L38 0L37 0L37 1L38 1L38 3L36 3L36 0L35 0L35 1L33 1L33 0L32 0L32 1L31 1L31 0L29 0L29 1L31 1L31 2L29 2L29 3L30 3L30 4L26 4L26 3L23 3L23 4L24 4L24 5L22 5L22 4L19 4L19 1L18 1L18 0L17 0L17 2L16 2L16 3L17 3L17 4L18 4L18 5L17 5L17 6L16 6L16 7L15 7L15 6L14 6L14 5L12 5L12 4L14 4L14 2L15 2L15 1L14 1L14 0L13 0L13 1L11 1L11 0ZM21 0L21 1L20 1L20 3L21 3L21 1L22 1L22 0ZM23 0L23 2L27 2L27 3L28 3L28 1L25 1L25 0ZM13 1L13 2L12 2L12 3L11 3L11 4L12 4L12 3L13 3L13 2L14 2L14 1ZM32 1L32 2L31 2L31 3L32 3L32 4L31 4L31 8L32 8L32 10L31 10L31 11L30 11L30 10L29 10L29 9L27 9L27 11L26 11L26 12L25 12L25 11L23 11L23 13L22 13L22 12L21 12L21 13L20 13L20 11L22 11L22 10L21 10L21 9L23 9L23 8L24 8L24 9L25 9L25 8L26 8L26 4L25 4L25 8L24 8L24 6L23 6L23 8L19 8L19 7L20 7L20 5L18 5L18 6L17 6L17 7L16 7L16 8L15 8L15 7L14 7L14 6L13 6L13 7L14 7L14 10L15 10L15 11L18 11L18 9L16 9L16 8L19 8L19 9L20 9L20 10L19 10L19 13L20 13L20 15L19 15L19 16L20 16L20 18L19 18L19 20L20 20L20 21L17 21L17 20L18 20L18 19L17 19L17 17L15 17L15 15L14 15L14 14L15 14L15 13L16 13L16 16L18 16L18 14L17 14L17 13L18 13L18 12L17 12L17 13L16 13L16 12L15 12L15 13L13 13L13 14L12 14L12 13L10 13L10 12L8 12L8 13L6 13L6 14L5 14L5 15L6 15L6 16L7 16L7 17L6 17L6 18L8 18L8 21L5 21L5 23L6 23L6 24L5 24L5 25L6 25L6 26L10 26L10 22L13 22L13 21L14 21L14 22L16 22L16 21L17 21L17 22L20 22L20 23L18 23L18 24L19 24L19 25L20 25L20 26L18 26L18 27L17 27L17 24L16 24L16 23L15 23L15 24L14 24L14 25L12 25L12 23L11 23L11 26L12 26L12 28L13 28L13 29L12 29L12 30L11 30L11 34L9 34L9 35L8 35L8 36L9 36L9 37L11 37L11 38L9 38L9 39L12 39L12 38L13 38L13 37L11 37L11 36L13 36L13 33L14 33L14 32L13 32L13 33L12 33L12 31L14 31L14 30L15 30L15 29L16 29L16 31L15 31L15 32L19 32L19 31L20 31L20 32L21 32L21 33L19 33L19 34L18 34L18 33L15 33L15 34L16 34L16 35L14 35L14 38L15 38L15 39L14 39L14 40L13 40L13 41L14 41L14 42L11 42L11 41L12 41L12 40L11 40L11 41L10 41L10 40L9 40L9 42L8 42L8 44L9 44L9 45L10 45L10 44L9 44L9 43L11 43L11 44L12 44L12 43L13 43L13 45L12 45L12 46L9 46L9 48L11 48L11 49L12 49L12 50L11 50L11 52L12 52L12 53L13 53L13 48L19 48L19 47L20 47L20 50L19 50L19 51L17 51L17 50L18 50L18 49L14 49L14 55L15 55L15 56L16 56L16 55L15 55L15 54L16 54L16 53L17 53L17 52L20 52L20 50L21 50L21 49L23 49L23 48L24 48L24 49L25 49L25 48L28 48L28 46L29 46L29 45L30 45L30 43L29 43L29 44L28 44L28 42L29 42L29 40L32 40L32 41L31 41L31 42L32 42L32 43L33 43L33 44L32 44L32 45L33 45L33 46L31 46L31 47L33 47L33 48L32 48L32 49L31 49L31 50L32 50L32 49L33 49L33 50L34 50L34 51L35 51L35 50L36 50L36 52L38 52L38 54L40 54L40 53L42 53L42 52L43 52L43 51L44 51L44 50L43 50L43 51L42 51L42 50L41 50L41 48L42 48L42 49L43 49L43 48L44 48L44 49L45 49L45 50L47 50L47 53L48 53L48 50L47 50L47 49L48 49L48 48L49 48L49 47L48 47L48 46L49 46L49 45L50 45L50 47L51 47L51 45L52 45L52 46L53 46L53 47L54 47L54 46L56 46L56 43L55 43L55 44L54 44L54 46L53 46L53 45L52 45L52 44L53 44L53 43L54 43L54 42L53 42L53 41L54 41L54 40L53 40L53 39L54 39L54 38L53 38L53 35L55 35L55 34L54 34L54 33L56 33L56 32L53 32L53 31L52 31L52 32L51 32L51 31L50 31L50 32L49 32L49 31L48 31L48 30L47 30L47 29L48 29L48 28L47 28L47 29L46 29L46 30L47 30L47 31L48 31L48 32L43 32L43 30L40 30L40 29L43 29L43 27L44 27L44 26L45 26L45 28L44 28L44 30L45 30L45 28L46 28L46 27L48 27L48 25L50 25L50 26L52 26L52 25L53 25L53 23L52 23L52 24L51 24L51 23L50 23L50 22L51 22L51 21L53 21L53 22L56 22L56 21L55 21L55 20L56 20L56 19L55 19L55 20L53 20L53 19L52 19L52 18L51 18L51 17L53 17L53 18L55 18L55 16L51 16L51 17L50 17L50 14L51 14L51 12L50 12L50 11L49 11L49 10L47 10L47 9L48 9L48 8L45 8L45 7L46 7L46 6L45 6L45 5L47 5L47 3L44 3L44 6L43 6L43 8L44 8L44 9L43 9L43 11L42 11L42 10L41 10L41 9L42 9L42 8L41 8L41 7L42 7L42 6L41 6L41 5L40 5L40 4L41 4L41 3L38 3L38 5L37 5L37 4L36 4L36 5L35 5L35 4L34 4L34 3L35 3L35 2L34 2L34 3L32 3L32 2L33 2L33 1ZM46 1L46 2L47 2L47 1ZM15 4L15 5L16 5L16 4ZM32 4L32 5L33 5L33 4ZM27 5L27 8L30 8L30 5ZM34 5L34 7L33 7L33 6L32 6L32 7L33 7L33 9L34 9L34 8L35 8L35 9L37 9L37 10L36 10L36 11L37 11L37 12L35 12L35 13L37 13L37 14L38 14L38 15L39 15L39 16L38 16L38 17L37 17L37 16L35 16L35 14L33 14L33 13L34 13L34 12L33 12L33 13L32 13L32 11L33 11L33 10L32 10L32 11L31 11L31 13L30 13L30 14L29 14L29 13L28 13L28 12L29 12L29 11L27 11L27 12L26 12L26 13L25 13L25 12L24 12L24 13L23 13L23 14L22 14L22 13L21 13L21 15L23 15L23 14L26 14L26 13L28 13L28 14L29 14L29 16L28 16L28 15L27 15L27 16L28 16L28 17L27 17L27 18L25 18L25 17L26 17L26 15L24 15L24 16L25 16L25 17L22 17L22 16L21 16L21 17L22 17L22 19L21 19L21 18L20 18L20 19L21 19L21 20L24 20L24 21L23 21L23 22L24 22L24 21L25 21L25 22L26 22L26 23L25 23L25 24L24 24L24 23L23 23L23 25L21 25L21 24L22 24L22 23L21 23L21 24L20 24L20 25L21 25L21 26L20 26L20 28L19 28L19 29L18 29L18 28L16 28L16 29L18 29L18 30L19 30L19 29L22 29L22 28L21 28L21 27L22 27L22 26L26 26L26 27L25 27L25 28L23 28L23 31L21 31L21 32L25 32L25 31L26 31L26 33L27 33L27 31L29 31L29 32L28 32L28 33L29 33L29 34L30 34L30 36L29 36L29 37L31 37L31 38L29 38L29 39L33 39L33 40L35 40L35 42L37 42L37 43L36 43L36 44L35 44L35 43L34 43L34 42L33 42L33 41L32 41L32 42L33 42L33 43L34 43L34 45L35 45L35 46L33 46L33 47L35 47L35 46L37 46L37 47L36 47L36 48L34 48L34 49L36 49L36 50L38 50L38 51L40 51L40 52L42 52L42 51L41 51L41 50L38 50L38 49L39 49L39 48L41 48L41 46L43 46L43 47L42 47L42 48L43 48L43 47L44 47L44 46L43 46L43 45L44 45L44 44L43 44L43 43L45 43L45 41L44 41L44 40L47 40L47 39L50 39L50 40L49 40L49 41L48 41L48 42L46 42L46 44L45 44L45 45L47 45L47 46L45 46L45 49L47 49L47 48L48 48L48 47L47 47L47 46L48 46L48 45L47 45L47 43L48 43L48 42L49 42L49 43L50 43L50 45L51 45L51 43L53 43L53 42L51 42L51 41L53 41L53 40L52 40L52 39L53 39L53 38L51 38L51 37L52 37L52 35L53 35L53 34L52 34L52 33L53 33L53 32L52 32L52 33L51 33L51 32L50 32L50 34L48 34L48 35L44 35L44 33L43 33L43 32L41 32L41 33L39 33L39 34L40 34L40 35L39 35L39 37L40 37L40 38L43 38L43 37L44 37L44 38L45 38L45 39L44 39L44 40L43 40L43 39L42 39L42 40L43 40L43 41L41 41L41 43L42 43L42 44L41 44L41 46L40 46L40 47L39 47L39 46L38 46L38 45L39 45L39 44L40 44L40 43L39 43L39 42L40 42L40 41L39 41L39 42L38 42L38 40L39 40L39 39L38 39L38 37L37 37L37 36L38 36L38 33L37 33L37 32L35 32L35 31L36 31L36 30L37 30L37 29L38 29L38 28L39 28L39 27L41 27L41 28L42 28L42 26L43 26L43 25L44 25L44 20L45 20L45 18L44 18L44 14L45 14L45 17L47 17L47 18L46 18L46 19L47 19L47 20L46 20L46 21L47 21L47 22L46 22L46 23L45 23L45 24L47 24L47 25L48 25L48 23L47 23L47 22L49 22L49 21L51 21L51 20L52 20L52 19L50 19L50 17L49 17L49 16L48 16L48 15L49 15L49 14L50 14L50 12L49 12L49 11L48 11L48 12L49 12L49 13L47 13L47 14L45 14L45 13L44 13L44 12L43 12L43 13L41 13L41 14L38 14L38 13L39 13L39 10L40 10L40 12L41 12L41 10L40 10L40 9L39 9L39 6L40 6L40 7L41 7L41 6L40 6L40 5L39 5L39 6L38 6L38 9L37 9L37 8L35 8L35 5ZM36 5L36 7L37 7L37 5ZM18 6L18 7L19 7L19 6ZM21 6L21 7L22 7L22 6ZM28 6L28 7L29 7L29 6ZM44 6L44 7L45 7L45 6ZM6 9L6 10L7 10L7 9ZM15 9L15 10L16 10L16 9ZM38 9L38 10L37 10L37 11L38 11L38 10L39 10L39 9ZM44 9L44 11L45 11L45 12L47 12L47 10L46 10L46 11L45 11L45 9ZM0 11L0 14L1 14L1 11ZM13 11L13 12L14 12L14 11ZM52 12L52 13L53 13L53 15L54 15L54 13L55 13L55 14L56 14L56 13L55 13L55 12L54 12L54 13L53 13L53 12ZM3 13L3 14L4 14L4 13ZM31 13L31 14L30 14L30 15L31 15L31 14L32 14L32 13ZM6 14L6 15L7 15L7 16L10 16L10 17L9 17L9 19L10 19L10 20L11 20L11 21L12 21L12 20L11 20L11 19L13 19L13 20L14 20L14 19L13 19L13 17L14 17L14 18L15 18L15 19L16 19L16 20L15 20L15 21L16 21L16 20L17 20L17 19L16 19L16 18L15 18L15 17L14 17L14 15L13 15L13 17L12 17L12 18L10 18L10 17L11 17L11 16L12 16L12 14L11 14L11 16L10 16L10 15L7 15L7 14ZM41 14L41 16L39 16L39 17L38 17L38 18L37 18L37 17L35 17L35 16L33 16L33 15L32 15L32 17L31 17L31 18L30 18L30 20L29 20L29 19L28 19L28 18L27 18L27 19L26 19L26 20L25 20L25 21L28 21L28 22L27 22L27 24L25 24L25 25L26 25L26 26L28 26L28 25L29 25L29 26L30 26L30 25L29 25L29 24L30 24L30 22L29 22L29 21L30 21L30 20L31 20L31 19L32 19L32 17L33 17L33 18L34 18L34 19L33 19L33 20L32 20L32 21L31 21L31 24L32 24L32 26L31 26L31 28L32 28L32 29L33 29L33 30L32 30L32 34L31 34L31 35L33 35L33 36L32 36L32 37L33 37L33 38L35 38L35 36L37 36L37 34L35 34L35 33L33 33L33 32L34 32L34 31L33 31L33 30L35 30L35 28L33 28L33 27L34 27L34 26L36 26L36 28L37 28L37 27L39 27L39 25L41 25L41 26L42 26L42 25L41 25L41 24L38 24L38 23L40 23L40 22L39 22L39 21L42 21L42 20L39 20L39 21L38 21L38 23L37 23L37 24L38 24L38 26L37 26L37 25L33 25L33 24L32 24L32 23L33 23L33 22L34 22L34 23L35 23L35 21L34 21L34 20L35 20L35 19L36 19L36 20L37 20L37 19L39 19L39 17L41 17L41 16L42 16L42 17L43 17L43 16L42 16L42 15L43 15L43 14ZM47 16L47 17L48 17L48 16ZM23 18L23 19L24 19L24 18ZM41 18L41 19L42 19L42 18ZM43 18L43 20L44 20L44 18ZM27 19L27 20L28 20L28 19ZM48 19L48 20L49 20L49 19ZM21 21L21 22L22 22L22 21ZM6 22L6 23L9 23L9 22ZM41 22L41 23L42 23L42 22ZM28 23L28 24L27 24L27 25L28 25L28 24L29 24L29 23ZM49 23L49 24L50 24L50 23ZM6 24L6 25L8 25L8 24ZM14 25L14 26L13 26L13 28L15 28L15 27L16 27L16 26L15 26L15 25ZM32 26L32 27L33 27L33 26ZM53 26L53 27L54 27L54 26ZM5 27L5 30L8 30L8 27ZM9 27L9 30L10 30L10 28L11 28L11 27ZM27 27L27 30L30 30L30 27ZM49 27L49 30L52 30L52 27ZM6 28L6 29L7 29L7 28ZM25 28L25 29L26 29L26 28ZM28 28L28 29L29 29L29 28ZM50 28L50 29L51 29L51 28ZM54 28L54 29L53 29L53 30L54 30L54 31L55 31L55 30L54 30L54 29L56 29L56 28ZM38 30L38 32L39 32L39 30ZM9 31L9 32L10 32L10 31ZM30 31L30 32L29 32L29 33L31 33L31 31ZM48 32L48 33L49 33L49 32ZM21 33L21 35L20 35L20 34L19 34L19 35L20 35L20 36L22 36L22 35L23 35L23 34L24 34L24 36L23 36L23 37L19 37L19 36L18 36L18 35L16 35L16 36L17 36L17 38L18 38L18 39L19 39L19 40L17 40L17 41L19 41L19 42L18 42L18 43L17 43L17 42L16 42L16 44L18 44L18 45L17 45L17 47L19 47L19 46L20 46L20 45L21 45L21 47L24 47L24 48L25 48L25 45L24 45L24 44L27 44L27 45L26 45L26 47L27 47L27 45L28 45L28 44L27 44L27 43L24 43L24 44L23 44L23 42L25 42L25 41L23 41L23 42L22 42L22 41L21 41L21 42L20 42L20 41L19 41L19 40L21 40L21 38L22 38L22 39L24 39L24 40L25 40L25 37L27 37L27 38L26 38L26 40L27 40L27 41L26 41L26 42L27 42L27 41L28 41L28 39L27 39L27 38L28 38L28 37L27 37L27 34L26 34L26 35L25 35L25 33L23 33L23 34L22 34L22 33ZM33 34L33 35L34 35L34 36L35 36L35 35L34 35L34 34ZM42 34L42 35L43 35L43 36L40 36L40 37L43 37L43 36L44 36L44 37L45 37L45 38L46 38L46 39L47 39L47 37L48 37L48 36L49 36L49 38L50 38L50 39L51 39L51 38L50 38L50 37L51 37L51 36L50 36L50 35L52 35L52 34L50 34L50 35L48 35L48 36L44 36L44 35L43 35L43 34ZM6 35L6 36L7 36L7 35ZM6 37L6 38L7 38L7 39L5 39L5 40L8 40L8 37ZM15 37L15 38L16 38L16 37ZM18 37L18 38L19 38L19 39L20 39L20 38L19 38L19 37ZM23 37L23 38L24 38L24 37ZM2 39L2 40L1 40L1 42L2 42L2 44L4 44L4 43L6 43L6 44L7 44L7 43L6 43L6 42L7 42L7 41L6 41L6 42L4 42L4 40L3 40L3 39ZM15 39L15 40L14 40L14 41L15 41L15 40L16 40L16 39ZM35 39L35 40L38 40L38 39ZM43 41L43 42L44 42L44 41ZM21 42L21 43L20 43L20 44L19 44L19 45L20 45L20 44L21 44L21 45L22 45L22 46L24 46L24 45L22 45L22 44L21 44L21 43L22 43L22 42ZM50 42L50 43L51 43L51 42ZM14 44L14 45L15 45L15 44ZM13 46L13 47L15 47L15 46ZM11 47L11 48L12 48L12 47ZM29 47L29 48L30 48L30 47ZM38 47L38 48L37 48L37 49L38 49L38 48L39 48L39 47ZM6 48L6 49L7 49L7 48ZM53 48L53 49L54 49L54 48ZM55 48L55 49L56 49L56 48ZM27 49L27 52L30 52L30 49ZM49 49L49 52L52 52L52 49ZM28 50L28 51L29 51L29 50ZM50 50L50 51L51 51L51 50ZM54 50L54 51L55 51L55 52L56 52L56 51L55 51L55 50ZM16 51L16 52L15 52L15 53L16 53L16 52L17 52L17 51ZM45 51L45 52L44 52L44 53L43 53L43 54L44 54L44 53L45 53L45 52L46 52L46 51ZM9 52L9 53L10 53L10 52ZM53 52L53 53L54 53L54 52ZM33 53L33 54L35 54L35 56L36 56L36 54L35 54L35 53ZM50 55L50 56L51 56L51 55ZM41 56L41 57L44 57L44 56ZM0 0L0 7L7 7L7 0ZM1 1L1 6L6 6L6 1ZM2 2L2 5L5 5L5 2ZM50 0L50 7L57 7L57 0ZM51 1L51 6L56 6L56 1ZM52 2L52 5L55 5L55 2ZM0 50L0 57L7 57L7 50ZM1 51L1 56L6 56L6 51ZM2 52L2 55L5 55L5 52Z" fill="#000000"/></g></g></svg>
