<?xml version="1.0" encoding="UTF-8"?>
<svg xmlns="http://www.w3.org/2000/svg" version="1.1" width="300" height="300" viewBox="0 0 300 300"><rect x="0" y="0" width="300" height="300" fill="#fefefe"/><g transform="scale(4.615)"><g transform="translate(4,4)"><path fill-rule="evenodd" d="M9 0L9 1L8 1L8 2L9 2L9 3L8 3L8 4L9 4L9 5L8 5L8 7L9 7L9 8L6 8L6 9L7 9L7 10L6 10L6 11L7 11L7 10L9 10L9 8L10 8L10 7L11 7L11 8L12 8L12 9L10 9L10 12L9 12L9 11L8 11L8 12L6 12L6 13L8 13L8 12L9 12L9 13L10 13L10 14L6 14L6 15L9 15L9 16L8 16L8 17L11 17L11 15L10 15L10 14L12 14L12 16L13 16L13 17L12 17L12 19L13 19L13 20L14 20L14 19L13 19L13 18L14 18L14 16L15 16L15 17L16 17L16 13L17 13L17 17L18 17L18 18L17 18L17 19L16 19L16 18L15 18L15 21L16 21L16 22L14 22L14 21L13 21L13 22L12 22L12 23L13 23L13 24L14 24L14 25L13 25L13 26L10 26L10 27L9 27L9 26L8 26L8 25L9 25L9 24L8 24L8 23L9 23L9 22L10 22L10 24L11 24L11 25L12 25L12 24L11 24L11 21L9 21L9 20L10 20L10 19L9 19L9 20L8 20L8 18L5 18L5 15L4 15L4 14L5 14L5 13L3 13L3 11L4 11L4 12L5 12L5 11L4 11L4 9L5 9L5 8L0 8L0 9L2 9L2 10L3 10L3 11L1 11L1 12L0 12L0 13L1 13L1 14L2 14L2 15L1 15L1 16L2 16L2 17L3 17L3 16L4 16L4 18L5 18L5 19L7 19L7 20L5 20L5 21L9 21L9 22L8 22L8 23L7 23L7 22L5 22L5 23L7 23L7 24L6 24L6 25L7 25L7 26L5 26L5 25L4 25L4 24L3 24L3 25L4 25L4 26L2 26L2 27L1 27L1 28L0 28L0 29L3 29L3 30L2 30L2 31L1 31L1 30L0 30L0 31L1 31L1 32L2 32L2 34L1 34L1 33L0 33L0 36L2 36L2 38L1 38L1 37L0 37L0 38L1 38L1 39L3 39L3 40L2 40L2 41L1 41L1 40L0 40L0 42L2 42L2 41L3 41L3 42L4 42L4 41L3 41L3 40L4 40L4 39L5 39L5 43L8 43L8 42L9 42L9 41L10 41L10 40L11 40L11 38L12 38L12 37L11 37L11 36L13 36L13 34L9 34L9 36L6 36L6 35L8 35L8 34L6 34L6 33L11 33L11 31L12 31L12 32L13 32L13 33L18 33L18 34L20 34L20 35L18 35L18 36L17 36L17 38L20 38L20 39L19 39L19 40L18 40L18 39L17 39L17 42L13 42L13 40L12 40L12 42L13 42L13 43L11 43L11 42L10 42L10 43L9 43L9 45L11 45L11 46L14 46L14 47L13 47L13 48L14 48L14 50L13 50L13 49L12 49L12 50L11 50L11 51L9 51L9 50L10 50L10 49L11 49L11 48L10 48L10 46L9 46L9 47L8 47L8 48L10 48L10 49L8 49L8 51L9 51L9 52L8 52L8 57L11 57L11 56L12 56L12 57L14 57L14 56L13 56L13 55L11 55L11 51L12 51L12 52L13 52L13 53L12 53L12 54L13 54L13 53L14 53L14 55L16 55L16 56L15 56L15 57L16 57L16 56L17 56L17 57L20 57L20 56L18 56L18 55L20 55L20 54L17 54L17 53L20 53L20 52L23 52L23 51L22 51L22 50L25 50L25 51L26 51L26 52L24 52L24 53L21 53L21 54L22 54L22 55L23 55L23 56L24 56L24 55L23 55L23 54L24 54L24 53L25 53L25 54L26 54L26 56L25 56L25 57L26 57L26 56L27 56L27 57L29 57L29 56L30 56L30 57L31 57L31 56L35 56L35 57L39 57L39 56L40 56L40 55L41 55L41 56L42 56L42 55L43 55L43 57L44 57L44 54L45 54L45 57L49 57L49 56L50 56L50 57L52 57L52 55L51 55L51 53L52 53L52 54L54 54L54 55L53 55L53 56L55 56L55 57L56 57L56 56L55 56L55 54L54 54L54 53L57 53L57 52L55 52L55 51L54 51L54 50L57 50L57 48L56 48L56 46L57 46L57 45L56 45L56 44L55 44L55 43L56 43L56 42L55 42L55 41L53 41L53 40L55 40L55 39L57 39L57 37L55 37L55 36L57 36L57 35L56 35L56 33L57 33L57 32L56 32L56 30L57 30L57 29L56 29L56 27L55 27L55 26L57 26L57 25L56 25L56 22L57 22L57 21L56 21L56 22L55 22L55 23L53 23L53 21L51 21L51 20L52 20L52 19L53 19L53 20L55 20L55 19L56 19L56 20L57 20L57 19L56 19L56 18L53 18L53 17L56 17L56 16L57 16L57 15L56 15L56 14L57 14L57 13L56 13L56 14L55 14L55 15L54 15L54 14L53 14L53 13L54 13L54 12L55 12L55 11L56 11L56 12L57 12L57 11L56 11L56 8L55 8L55 10L54 10L54 11L53 11L53 9L54 9L54 8L53 8L53 9L52 9L52 8L51 8L51 9L52 9L52 10L49 10L49 9L50 9L50 8L49 8L49 6L48 6L48 7L47 7L47 5L48 5L48 0L45 0L45 2L44 2L44 3L43 3L43 4L40 4L40 5L39 5L39 6L38 6L38 7L37 7L37 5L38 5L38 4L37 4L37 3L36 3L36 0L35 0L35 1L33 1L33 2L32 2L32 0L28 0L28 1L25 1L25 0L23 0L23 2L22 2L22 0L21 0L21 1L20 1L20 0L17 0L17 1L14 1L14 2L13 2L13 1L12 1L12 0L11 0L11 1L12 1L12 2L13 2L13 3L11 3L11 5L10 5L10 4L9 4L9 3L10 3L10 2L9 2L9 1L10 1L10 0ZM37 0L37 1L38 1L38 2L39 2L39 3L42 3L42 2L43 2L43 0L41 0L41 1L40 1L40 0L39 0L39 1L38 1L38 0ZM17 1L17 3L15 3L15 2L14 2L14 4L12 4L12 5L11 5L11 7L12 7L12 8L14 8L14 10L16 10L16 11L18 11L18 9L15 9L15 8L14 8L14 5L15 5L15 7L16 7L16 8L19 8L19 7L20 7L20 5L17 5L17 3L19 3L19 4L22 4L22 5L21 5L21 8L20 8L20 11L19 11L19 12L20 12L20 14L21 14L21 13L22 13L22 14L24 14L24 13L26 13L26 14L25 14L25 15L19 15L19 17L20 17L20 19L19 19L19 20L20 20L20 21L18 21L18 22L20 22L20 23L19 23L19 24L21 24L21 25L15 25L15 26L14 26L14 27L15 27L15 28L13 28L13 27L12 27L12 29L11 29L11 27L10 27L10 28L9 28L9 29L11 29L11 30L13 30L13 29L14 29L14 31L13 31L13 32L14 32L14 31L15 31L15 29L16 29L16 30L17 30L17 32L19 32L19 31L20 31L20 32L21 32L21 33L20 33L20 34L21 34L21 33L22 33L22 35L23 35L23 36L21 36L21 35L20 35L20 36L19 36L19 37L23 37L23 38L24 38L24 37L23 37L23 36L24 36L24 34L23 34L23 33L25 33L25 34L26 34L26 35L27 35L27 36L25 36L25 38L26 38L26 37L28 37L28 38L27 38L27 39L28 39L28 40L26 40L26 39L25 39L25 40L24 40L24 39L22 39L22 38L21 38L21 40L20 40L20 42L19 42L19 41L18 41L18 42L17 42L17 43L18 43L18 42L19 42L19 43L20 43L20 44L19 44L19 45L20 45L20 46L17 46L17 45L18 45L18 44L17 44L17 45L16 45L16 43L13 43L13 45L14 45L14 44L15 44L15 46L16 46L16 47L14 47L14 48L16 48L16 49L15 49L15 51L13 51L13 52L14 52L14 53L15 53L15 54L16 54L16 53L17 53L17 52L18 52L18 51L19 51L19 50L18 50L18 49L17 49L17 47L19 47L19 49L20 49L20 51L21 51L21 49L23 49L23 47L25 47L25 48L24 48L24 49L26 49L26 48L28 48L28 47L29 47L29 48L30 48L30 47L29 47L29 44L30 44L30 43L29 43L29 42L30 42L30 41L31 41L31 42L32 42L32 43L33 43L33 44L32 44L32 46L35 46L35 45L34 45L34 43L35 43L35 44L36 44L36 43L37 43L37 42L35 42L35 40L38 40L38 42L39 42L39 45L38 45L38 46L41 46L41 48L39 48L39 47L38 47L38 48L37 48L37 49L38 49L38 50L36 50L36 49L33 49L33 47L32 47L32 49L31 49L31 50L32 50L32 51L31 51L31 53L30 53L30 54L27 54L27 53L26 53L26 54L27 54L27 56L29 56L29 55L30 55L30 56L31 56L31 54L32 54L32 53L33 53L33 54L34 54L34 55L35 55L35 56L36 56L36 54L35 54L35 51L33 51L33 50L36 50L36 52L37 52L37 51L38 51L38 54L40 54L40 53L43 53L43 54L44 54L44 53L45 53L45 54L46 54L46 56L47 56L47 54L48 54L48 50L47 50L47 49L48 49L48 48L49 48L49 47L51 47L51 46L53 46L53 47L52 47L52 48L53 48L53 47L54 47L54 46L56 46L56 45L55 45L55 44L54 44L54 45L53 45L53 43L54 43L54 42L53 42L53 41L51 41L51 42L50 42L50 43L47 43L47 45L45 45L45 44L46 44L46 42L48 42L48 41L49 41L49 39L47 39L47 37L48 37L48 38L49 38L49 37L48 37L48 36L50 36L50 35L52 35L52 37L50 37L50 39L51 39L51 40L52 40L52 39L54 39L54 38L53 38L53 35L55 35L55 34L54 34L54 32L53 32L53 31L55 31L55 28L54 28L54 29L53 29L53 31L52 31L52 32L51 32L51 31L50 31L50 32L49 32L49 31L48 31L48 30L47 30L47 29L46 29L46 30L47 30L47 31L48 31L48 32L46 32L46 33L45 33L45 32L43 32L43 30L41 30L41 29L44 29L44 31L45 31L45 28L46 28L46 27L48 27L48 26L47 26L47 25L48 25L48 24L51 24L51 25L50 25L50 26L51 26L51 25L52 25L52 26L53 26L53 27L54 27L54 26L53 26L53 23L52 23L52 24L51 24L51 23L50 23L50 22L51 22L51 21L49 21L49 23L48 23L48 24L46 24L46 23L45 23L45 22L47 22L47 21L48 21L48 20L47 20L47 21L45 21L45 20L44 20L44 18L45 18L45 19L46 19L46 18L47 18L47 15L46 15L46 16L45 16L45 14L47 14L47 13L49 13L49 12L50 12L50 14L49 14L49 15L48 15L48 16L49 16L49 15L50 15L50 16L51 16L51 17L50 17L50 18L48 18L48 19L52 19L52 17L53 17L53 15L52 15L52 16L51 16L51 15L50 15L50 14L51 14L51 12L50 12L50 11L49 11L49 10L48 10L48 11L49 11L49 12L45 12L45 11L43 11L43 10L41 10L41 12L40 12L40 11L39 11L39 9L42 9L42 8L41 8L41 7L42 7L42 5L40 5L40 6L39 6L39 7L40 7L40 8L38 8L38 10L37 10L37 9L35 9L35 8L37 8L37 7L36 7L36 5L37 5L37 4L36 4L36 5L35 5L35 4L33 4L33 3L34 3L34 2L33 2L33 3L32 3L32 2L31 2L31 1L28 1L28 2L23 2L23 3L21 3L21 2L20 2L20 1L19 1L19 2L18 2L18 1ZM46 1L46 2L47 2L47 1ZM28 2L28 3L27 3L27 4L26 4L26 3L23 3L23 4L24 4L24 5L23 5L23 6L22 6L22 8L23 8L23 10L22 10L22 9L21 9L21 10L22 10L22 11L21 11L21 12L22 12L22 13L24 13L24 11L25 11L25 12L26 12L26 13L28 13L28 14L29 14L29 16L28 16L28 15L27 15L27 14L26 14L26 15L25 15L25 16L26 16L26 15L27 15L27 16L28 16L28 17L27 17L27 18L28 18L28 19L27 19L27 20L29 20L29 19L30 19L30 18L31 18L31 20L30 20L30 21L29 21L29 22L30 22L30 23L31 23L31 21L32 21L32 20L33 20L33 17L32 17L32 16L31 16L31 15L33 15L33 16L35 16L35 17L37 17L37 18L38 18L38 17L39 17L39 19L37 19L37 20L36 20L36 19L34 19L34 20L35 20L35 23L32 23L32 24L29 24L29 25L27 25L27 26L26 26L26 25L25 25L25 24L27 24L27 22L28 22L28 21L26 21L26 18L25 18L25 17L22 17L22 16L20 16L20 17L22 17L22 18L24 18L24 19L21 19L21 20L24 20L24 21L22 21L22 23L21 23L21 24L24 24L24 25L21 25L21 27L22 27L22 26L24 26L24 28L23 28L23 30L25 30L25 31L21 31L21 30L20 30L20 29L18 29L18 28L16 28L16 29L18 29L18 30L20 30L20 31L21 31L21 32L25 32L25 33L26 33L26 34L27 34L27 33L26 33L26 32L27 32L27 31L29 31L29 32L28 32L28 33L29 33L29 34L30 34L30 36L29 36L29 37L31 37L31 38L29 38L29 39L33 39L33 40L35 40L35 39L37 39L37 38L38 38L38 37L40 37L40 38L43 38L43 37L44 37L44 38L45 38L45 39L44 39L44 40L41 40L41 41L40 41L40 42L42 42L42 44L41 44L41 46L43 46L43 47L42 47L42 48L41 48L41 50L38 50L38 51L40 51L40 52L41 52L41 50L42 50L42 51L43 51L43 53L44 53L44 52L45 52L45 51L44 51L44 50L45 50L45 49L47 49L47 48L48 48L48 47L49 47L49 46L50 46L50 45L48 45L48 47L47 47L47 46L45 46L45 47L44 47L44 46L43 46L43 45L44 45L44 43L43 43L43 41L44 41L44 42L46 42L46 41L44 41L44 40L45 40L45 39L46 39L46 40L47 40L47 39L46 39L46 38L45 38L45 37L44 37L44 36L46 36L46 37L47 37L47 35L44 35L44 36L43 36L43 35L42 35L42 34L45 34L45 33L43 33L43 32L41 32L41 33L39 33L39 34L40 34L40 35L39 35L39 36L38 36L38 37L37 37L37 36L35 36L35 34L37 34L37 35L38 35L38 33L37 33L37 32L35 32L35 31L36 31L36 30L37 30L37 29L38 29L38 28L42 28L42 27L41 27L41 26L43 26L43 25L44 25L44 27L43 27L43 28L45 28L45 27L46 27L46 26L45 26L45 25L46 25L46 24L45 24L45 25L44 25L44 24L42 24L42 23L44 23L44 20L43 20L43 18L44 18L44 15L42 15L42 16L41 16L41 15L39 15L39 14L38 14L38 13L40 13L40 14L43 14L43 13L44 13L44 14L45 14L45 13L44 13L44 12L43 12L43 13L40 13L40 12L39 12L39 11L37 11L37 10L36 10L36 12L35 12L35 14L33 14L33 13L34 13L34 12L33 12L33 13L32 13L32 11L33 11L33 10L32 10L32 8L31 8L31 4L32 4L32 5L33 5L33 6L32 6L32 7L33 7L33 9L34 9L34 8L35 8L35 5L33 5L33 4L32 4L32 3L31 3L31 2ZM28 3L28 4L29 4L29 3ZM30 3L30 4L31 4L31 3ZM44 3L44 6L43 6L43 7L44 7L44 10L47 10L47 9L45 9L45 7L46 7L46 5L47 5L47 3ZM15 4L15 5L16 5L16 4ZM25 4L25 8L26 8L26 4ZM45 4L45 5L46 5L46 4ZM27 5L27 8L30 8L30 5ZM9 6L9 7L10 7L10 6ZM12 6L12 7L13 7L13 6ZM16 6L16 7L17 7L17 6ZM18 6L18 7L19 7L19 6ZM23 6L23 8L24 8L24 6ZM28 6L28 7L29 7L29 6ZM33 6L33 7L34 7L34 6ZM40 6L40 7L41 7L41 6ZM44 6L44 7L45 7L45 6ZM11 10L11 11L12 11L12 10ZM31 10L31 11L29 11L29 12L28 12L28 13L29 13L29 14L30 14L30 15L31 15L31 14L32 14L32 13L31 13L31 11L32 11L32 10ZM13 11L13 12L14 12L14 11ZM26 11L26 12L27 12L27 11ZM15 12L15 13L13 13L13 16L14 16L14 14L15 14L15 13L16 13L16 12ZM17 12L17 13L18 13L18 12ZM52 12L52 13L53 13L53 12ZM2 13L2 14L3 14L3 13ZM30 13L30 14L31 14L31 13ZM36 14L36 15L35 15L35 16L37 16L37 17L38 17L38 16L39 16L39 17L41 17L41 16L39 16L39 15L38 15L38 14ZM2 15L2 16L3 16L3 15ZM6 16L6 17L7 17L7 16ZM42 16L42 17L43 17L43 16ZM2 18L2 19L0 19L0 21L1 21L1 22L0 22L0 24L1 24L1 25L2 25L2 22L4 22L4 21L3 21L3 20L4 20L4 19L3 19L3 18ZM41 18L41 19L42 19L42 18ZM1 20L1 21L2 21L2 20ZM16 20L16 21L17 21L17 20ZM38 20L38 21L37 21L37 22L39 22L39 23L37 23L37 24L39 24L39 25L38 25L38 26L37 26L37 25L33 25L33 24L32 24L32 26L31 26L31 28L32 28L32 30L31 30L31 31L30 31L30 32L29 32L29 33L31 33L31 32L32 32L32 34L31 34L31 35L32 35L32 34L33 34L33 35L34 35L34 34L35 34L35 33L34 33L34 34L33 34L33 31L32 31L32 30L35 30L35 28L37 28L37 27L39 27L39 25L42 25L42 24L39 24L39 23L40 23L40 22L39 22L39 21L42 21L42 20ZM24 21L24 22L23 22L23 23L24 23L24 24L25 24L25 23L26 23L26 22L25 22L25 21ZM13 22L13 23L14 23L14 22ZM15 23L15 24L16 24L16 23ZM17 23L17 24L18 24L18 23ZM29 25L29 26L30 26L30 25ZM15 26L15 27L16 27L16 26ZM17 26L17 27L18 27L18 26ZM19 26L19 27L20 27L20 26ZM25 26L25 27L26 27L26 26ZM32 26L32 27L33 27L33 28L35 28L35 27L36 27L36 26L34 26L34 27L33 27L33 26ZM2 27L2 28L4 28L4 27ZM5 27L5 30L8 30L8 27ZM27 27L27 30L30 30L30 27ZM49 27L49 30L52 30L52 27ZM6 28L6 29L7 29L7 28ZM21 28L21 29L22 29L22 28ZM25 28L25 29L26 29L26 28ZM28 28L28 29L29 29L29 28ZM50 28L50 29L51 29L51 28ZM39 29L39 30L38 30L38 32L39 32L39 30L40 30L40 29ZM3 30L3 31L4 31L4 32L3 32L3 34L2 34L2 36L4 36L4 37L3 37L3 38L4 38L4 37L5 37L5 36L4 36L4 35L3 35L3 34L4 34L4 32L7 32L7 31L4 31L4 30ZM9 30L9 31L8 31L8 32L10 32L10 30ZM48 32L48 33L49 33L49 32ZM50 32L50 34L48 34L48 35L50 35L50 34L52 34L52 35L53 35L53 34L52 34L52 33L53 33L53 32L52 32L52 33L51 33L51 32ZM55 32L55 33L56 33L56 32ZM15 34L15 35L14 35L14 36L15 36L15 35L17 35L17 34ZM10 35L10 36L9 36L9 37L10 37L10 36L11 36L11 35ZM41 35L41 36L40 36L40 37L43 37L43 36L42 36L42 35ZM32 36L32 37L33 37L33 39L35 39L35 37L33 37L33 36ZM6 37L6 38L8 38L8 37ZM13 37L13 38L16 38L16 37ZM51 38L51 39L52 39L52 38ZM6 39L6 40L7 40L7 41L6 41L6 42L8 42L8 40L10 40L10 39L8 39L8 40L7 40L7 39ZM15 39L15 40L14 40L14 41L15 41L15 40L16 40L16 39ZM38 39L38 40L40 40L40 39ZM23 40L23 41L24 41L24 42L22 42L22 41L21 41L21 42L22 42L22 43L21 43L21 44L22 44L22 45L21 45L21 46L20 46L20 48L21 48L21 47L23 47L23 46L25 46L25 44L27 44L27 43L24 43L24 42L25 42L25 41L24 41L24 40ZM29 40L29 41L30 41L30 40ZM31 40L31 41L32 41L32 42L33 42L33 43L34 43L34 42L33 42L33 41L32 41L32 40ZM26 41L26 42L27 42L27 41ZM51 42L51 43L50 43L50 44L51 44L51 43L53 43L53 42ZM0 43L0 45L1 45L1 44L2 44L2 47L1 47L1 46L0 46L0 48L5 48L5 47L7 47L7 46L8 46L8 44L6 44L6 45L5 45L5 47L3 47L3 45L4 45L4 43L3 43L3 44L2 44L2 43ZM23 43L23 44L24 44L24 43ZM28 43L28 44L29 44L29 43ZM6 45L6 46L7 46L7 45ZM22 45L22 46L23 46L23 45ZM26 45L26 47L27 47L27 45ZM36 45L36 46L37 46L37 45ZM34 47L34 48L36 48L36 47ZM43 47L43 48L42 48L42 49L43 49L43 48L44 48L44 49L45 49L45 48L47 48L47 47L45 47L45 48L44 48L44 47ZM6 48L6 49L7 49L7 48ZM38 48L38 49L39 49L39 48ZM55 48L55 49L56 49L56 48ZM27 49L27 52L30 52L30 49ZM49 49L49 52L52 52L52 49ZM16 50L16 52L15 52L15 53L16 53L16 52L17 52L17 50ZM28 50L28 51L29 51L29 50ZM50 50L50 51L51 51L51 50ZM32 51L32 52L33 52L33 53L34 53L34 52L33 52L33 51ZM46 51L46 53L47 53L47 51ZM9 52L9 55L10 55L10 52ZM53 52L53 53L54 53L54 52ZM37 55L37 56L39 56L39 55ZM48 55L48 56L49 56L49 55ZM50 55L50 56L51 56L51 55ZM0 0L0 7L7 7L7 0ZM1 1L1 6L6 6L6 1ZM2 2L2 5L5 5L5 2ZM50 0L50 7L57 7L57 0ZM51 1L51 6L56 6L56 1ZM52 2L52 5L55 5L55 2ZM0 50L0 57L7 57L7 50ZM1 51L1 56L6 56L6 51ZM2 52L2 55L5 55L5 52Z" fill="#000000"/></g></g></svg>
