<?xml version="1.0" encoding="UTF-8"?>
<svg xmlns="http://www.w3.org/2000/svg" version="1.1" width="300" height="300" viewBox="0 0 300 300"><rect x="0" y="0" width="300" height="300" fill="#fefefe"/><g transform="scale(4.615)"><g transform="translate(4,4)"><path fill-rule="evenodd" d="M11 0L11 1L10 1L10 3L8 3L8 4L9 4L9 5L8 5L8 7L9 7L9 8L6 8L6 9L5 9L5 8L0 8L0 11L1 11L1 12L0 12L0 13L3 13L3 12L2 12L2 11L3 11L3 10L2 10L2 11L1 11L1 9L5 9L5 10L4 10L4 11L8 11L8 13L7 13L7 12L6 12L6 13L5 13L5 12L4 12L4 14L3 14L3 17L2 17L2 16L1 16L1 15L2 15L2 14L1 14L1 15L0 15L0 18L1 18L1 17L2 17L2 19L1 19L1 20L0 20L0 24L2 24L2 26L3 26L3 27L4 27L4 28L3 28L3 29L0 29L0 30L3 30L3 31L2 31L2 32L1 32L1 31L0 31L0 32L1 32L1 33L2 33L2 35L1 35L1 34L0 34L0 37L1 37L1 38L0 38L0 39L1 39L1 40L0 40L0 45L1 45L1 44L2 44L2 47L1 47L1 46L0 46L0 48L5 48L5 47L7 47L7 48L6 48L6 49L8 49L8 51L9 51L9 52L8 52L8 57L11 57L11 56L12 56L12 57L16 57L16 56L17 56L17 57L19 57L19 56L18 56L18 55L17 55L17 53L20 53L20 52L22 52L22 51L20 51L20 49L21 49L21 50L25 50L25 49L26 49L26 52L24 52L24 53L21 53L21 54L22 54L22 55L21 55L21 56L24 56L24 57L26 57L26 56L27 56L27 57L29 57L29 56L30 56L30 57L31 57L31 56L35 56L35 57L39 57L39 56L37 56L37 54L38 54L38 55L41 55L41 57L44 57L44 54L45 54L45 53L44 53L44 52L47 52L47 50L48 50L48 54L47 54L47 55L48 55L48 57L49 57L49 56L50 56L50 57L52 57L52 55L51 55L51 53L52 53L52 54L53 54L53 57L54 57L54 56L55 56L55 57L56 57L56 56L55 56L55 55L54 55L54 54L55 54L55 53L57 53L57 51L56 51L56 49L57 49L57 48L56 48L56 46L57 46L57 45L56 45L56 44L55 44L55 43L56 43L56 41L53 41L53 40L55 40L55 39L57 39L57 37L56 37L56 35L53 35L53 34L52 34L52 33L53 33L53 32L56 32L56 33L54 33L54 34L57 34L57 32L56 32L56 30L57 30L57 29L54 29L54 28L56 28L56 27L55 27L55 26L57 26L57 25L56 25L56 22L57 22L57 21L56 21L56 22L55 22L55 23L53 23L53 21L51 21L51 20L52 20L52 19L53 19L53 20L55 20L55 19L56 19L56 18L57 18L57 17L56 17L56 16L57 16L57 15L56 15L56 14L57 14L57 13L56 13L56 14L55 14L55 13L54 13L54 12L55 12L55 11L56 11L56 12L57 12L57 11L56 11L56 8L55 8L55 10L54 10L54 11L52 11L52 10L50 10L50 8L49 8L49 6L48 6L48 7L47 7L47 5L48 5L48 0L45 0L45 2L44 2L44 3L43 3L43 4L40 4L40 5L39 5L39 6L38 6L38 7L37 7L37 5L38 5L38 4L39 4L39 3L41 3L41 2L43 2L43 0L41 0L41 1L40 1L40 0L39 0L39 1L38 1L38 0L37 0L37 1L38 1L38 2L37 2L37 3L36 3L36 0L35 0L35 1L33 1L33 0L32 0L32 1L31 1L31 0L27 0L27 1L26 1L26 0L23 0L23 1L22 1L22 0L21 0L21 1L20 1L20 0L17 0L17 1L18 1L18 2L17 2L17 4L19 4L19 5L20 5L20 7L19 7L19 6L18 6L18 5L17 5L17 6L16 6L16 7L15 7L15 5L16 5L16 4L15 4L15 5L14 5L14 7L13 7L13 4L14 4L14 2L15 2L15 1L14 1L14 2L12 2L12 0ZM8 1L8 2L9 2L9 1ZM25 1L25 2L22 2L22 3L19 3L19 4L21 4L21 7L22 7L22 8L19 8L19 9L20 9L20 10L19 10L19 13L20 13L20 14L21 14L21 13L22 13L22 14L23 14L23 13L24 13L24 12L25 12L25 13L26 13L26 14L27 14L27 15L26 15L26 16L24 16L24 15L25 15L25 14L24 14L24 15L19 15L19 14L17 14L17 13L18 13L18 12L17 12L17 11L18 11L18 10L17 10L17 9L15 9L15 7L14 7L14 9L12 9L12 2L11 2L11 4L10 4L10 6L9 6L9 7L10 7L10 8L11 8L11 11L12 11L12 12L10 12L10 10L9 10L9 9L8 9L8 10L9 10L9 12L10 12L10 14L9 14L9 13L8 13L8 15L6 15L6 14L7 14L7 13L6 13L6 14L4 14L4 16L7 16L7 17L3 17L3 18L5 18L5 19L4 19L4 21L3 21L3 20L1 20L1 21L2 21L2 22L1 22L1 23L3 23L3 22L8 22L8 24L7 24L7 23L6 23L6 24L5 24L5 25L3 25L3 26L5 26L5 25L6 25L6 26L9 26L9 29L10 29L10 32L8 32L8 31L5 31L5 34L4 34L4 31L3 31L3 32L2 32L2 33L3 33L3 34L4 34L4 36L2 36L2 37L4 37L4 38L5 38L5 39L3 39L3 38L2 38L2 40L1 40L1 41L3 41L3 42L4 42L4 43L2 43L2 44L4 44L4 43L5 43L5 46L3 46L3 47L5 47L5 46L8 46L8 48L10 48L10 49L11 49L11 51L12 51L12 54L10 54L10 55L9 55L9 56L11 56L11 55L12 55L12 54L13 54L13 55L14 55L14 56L16 56L16 55L15 55L15 54L16 54L16 53L17 53L17 52L19 52L19 51L18 51L18 49L17 49L17 47L18 47L18 46L17 46L17 45L18 45L18 44L17 44L17 45L16 45L16 43L18 43L18 42L19 42L19 43L20 43L20 44L19 44L19 45L20 45L20 46L19 46L19 47L21 47L21 49L23 49L23 47L21 47L21 45L22 45L22 46L23 46L23 45L22 45L22 44L21 44L21 43L22 43L22 42L23 42L23 40L24 40L24 41L25 41L25 43L27 43L27 44L24 44L24 45L25 45L25 48L24 48L24 49L25 49L25 48L27 48L27 47L29 47L29 48L30 48L30 47L29 47L29 45L32 45L32 47L33 47L33 48L31 48L31 53L30 53L30 54L27 54L27 53L26 53L26 54L25 54L25 53L24 53L24 54L23 54L23 55L24 55L24 56L26 56L26 54L27 54L27 56L29 56L29 55L30 55L30 56L31 56L31 54L32 54L32 53L33 53L33 54L34 54L34 55L35 55L35 56L36 56L36 54L35 54L35 53L34 53L34 52L35 52L35 50L36 50L36 52L37 52L37 53L38 53L38 54L40 54L40 53L41 53L41 52L42 52L42 53L43 53L43 54L44 54L44 53L43 53L43 51L42 51L42 50L41 50L41 48L42 48L42 49L43 49L43 50L47 50L47 49L48 49L48 48L49 48L49 47L48 47L48 44L49 44L49 46L50 46L50 47L51 47L51 48L54 48L54 49L56 49L56 48L54 48L54 47L53 47L53 45L52 45L52 44L53 44L53 43L54 43L54 42L53 42L53 41L51 41L51 42L50 42L50 43L47 43L47 42L48 42L48 41L49 41L49 39L54 39L54 38L53 38L53 35L52 35L52 34L50 34L50 31L48 31L48 30L47 30L47 29L46 29L46 30L47 30L47 31L48 31L48 32L43 32L43 31L45 31L45 28L46 28L46 27L47 27L47 28L48 28L48 27L47 27L47 25L49 25L49 23L50 23L50 22L51 22L51 21L49 21L49 22L47 22L47 21L48 21L48 20L49 20L49 19L50 19L50 18L55 18L55 17L53 17L53 16L52 16L52 15L51 15L51 17L50 17L50 14L51 14L51 12L50 12L50 10L47 10L47 9L48 9L48 8L45 8L45 7L46 7L46 6L45 6L45 5L47 5L47 3L44 3L44 6L43 6L43 5L40 5L40 6L39 6L39 7L40 7L40 8L38 8L38 11L39 11L39 13L38 13L38 14L37 14L37 15L35 15L35 16L33 16L33 15L31 15L31 14L30 14L30 13L31 13L31 12L32 12L32 13L33 13L33 14L36 14L36 13L35 13L35 12L37 12L37 11L36 11L36 10L37 10L37 9L35 9L35 8L37 8L37 7L36 7L36 5L37 5L37 4L36 4L36 5L35 5L35 2L33 2L33 1L32 1L32 2L31 2L31 3L32 3L32 4L31 4L31 8L32 8L32 10L31 10L31 11L29 11L29 12L28 12L28 13L26 13L26 12L27 12L27 11L28 11L28 10L27 10L27 11L26 11L26 12L25 12L25 10L23 10L23 8L24 8L24 6L23 6L23 5L24 5L24 4L23 4L23 3L26 3L26 4L25 4L25 8L26 8L26 4L30 4L30 3L29 3L29 2L28 2L28 3L27 3L27 2L26 2L26 1ZM46 1L46 2L47 2L47 1ZM32 2L32 3L33 3L33 4L32 4L32 5L33 5L33 6L32 6L32 7L33 7L33 9L34 9L34 8L35 8L35 5L33 5L33 4L34 4L34 3L33 3L33 2ZM38 2L38 3L39 3L39 2ZM22 4L22 5L23 5L23 4ZM27 5L27 8L30 8L30 5ZM10 6L10 7L11 7L11 6ZM17 6L17 7L16 7L16 8L17 8L17 7L18 7L18 6ZM22 6L22 7L23 7L23 6ZM28 6L28 7L29 7L29 6ZM33 6L33 7L34 7L34 6ZM40 6L40 7L41 7L41 9L39 9L39 11L40 11L40 12L41 12L41 10L42 10L42 11L43 11L43 13L41 13L41 14L44 14L44 11L45 11L45 12L47 12L47 10L46 10L46 9L44 9L44 8L43 8L43 6L42 6L42 7L41 7L41 6ZM44 6L44 7L45 7L45 6ZM42 8L42 9L43 9L43 11L44 11L44 9L43 9L43 8ZM51 8L51 9L52 9L52 8ZM53 8L53 9L54 9L54 8ZM6 9L6 10L7 10L7 9ZM21 9L21 10L22 10L22 11L20 11L20 13L21 13L21 12L22 12L22 13L23 13L23 10L22 10L22 9ZM12 10L12 11L14 11L14 12L12 12L12 15L8 15L8 16L10 16L10 17L8 17L8 18L9 18L9 19L11 19L11 20L8 20L8 19L7 19L7 18L6 18L6 19L7 19L7 20L5 20L5 21L7 21L7 20L8 20L8 22L9 22L9 21L11 21L11 23L12 23L12 24L13 24L13 23L12 23L12 22L14 22L14 21L12 21L12 20L14 20L14 19L13 19L13 17L14 17L14 16L16 16L16 17L15 17L15 18L16 18L16 19L15 19L15 21L16 21L16 22L15 22L15 23L16 23L16 24L15 24L15 25L16 25L16 24L17 24L17 25L18 25L18 26L17 26L17 27L18 27L18 26L19 26L19 29L18 29L18 28L16 28L16 29L14 29L14 30L13 30L13 27L16 27L16 26L14 26L14 25L11 25L11 26L12 26L12 29L11 29L11 28L10 28L10 29L11 29L11 32L10 32L10 33L11 33L11 32L12 32L12 33L13 33L13 34L15 34L15 33L14 33L14 32L13 32L13 31L14 31L14 30L15 30L15 32L16 32L16 33L17 33L17 34L16 34L16 35L17 35L17 39L19 39L19 40L17 40L17 41L19 41L19 42L20 42L20 41L19 41L19 40L21 40L21 39L22 39L22 40L23 40L23 39L24 39L24 40L25 40L25 39L26 39L26 40L28 40L28 39L27 39L27 38L28 38L28 37L26 37L26 38L25 38L25 36L27 36L27 34L26 34L26 35L25 35L25 33L26 33L26 32L27 32L27 31L31 31L31 33L29 33L29 32L28 32L28 33L29 33L29 34L30 34L30 36L29 36L29 37L31 37L31 38L29 38L29 39L33 39L33 40L35 40L35 42L37 42L37 43L36 43L36 44L35 44L35 43L34 43L34 42L33 42L33 41L32 41L32 40L29 40L29 41L32 41L32 42L28 42L28 44L33 44L33 43L34 43L34 45L35 45L35 46L33 46L33 47L35 47L35 46L37 46L37 47L36 47L36 48L33 48L33 49L32 49L32 50L33 50L33 51L32 51L32 52L33 52L33 51L34 51L34 50L33 50L33 49L36 49L36 50L38 50L38 51L37 51L37 52L38 52L38 53L39 53L39 51L40 51L40 52L41 52L41 50L38 50L38 49L39 49L39 48L41 48L41 46L43 46L43 47L42 47L42 48L43 48L43 49L44 49L44 48L43 48L43 47L44 47L44 46L43 46L43 45L44 45L44 43L45 43L45 41L47 41L47 39L48 39L48 37L49 37L49 38L51 38L51 37L50 37L50 36L52 36L52 35L50 35L50 34L48 34L48 35L44 35L44 33L43 33L43 32L41 32L41 33L39 33L39 34L40 34L40 35L39 35L39 36L38 36L38 33L37 33L37 32L35 32L35 31L36 31L36 30L37 30L37 29L38 29L38 28L40 28L40 27L41 27L41 28L42 28L42 26L43 26L43 25L44 25L44 27L43 27L43 28L45 28L45 25L47 25L47 24L46 24L46 23L47 23L47 22L45 22L45 25L44 25L44 20L45 20L45 21L46 21L46 20L47 20L47 18L50 18L50 17L49 17L49 16L48 16L48 15L49 15L49 14L50 14L50 12L49 12L49 13L47 13L47 14L45 14L45 15L47 15L47 16L45 16L45 17L47 17L47 18L46 18L46 19L45 19L45 18L44 18L44 15L42 15L42 16L41 16L41 15L39 15L39 14L38 14L38 15L39 15L39 16L38 16L38 17L37 17L37 16L35 16L35 17L37 17L37 18L38 18L38 17L39 17L39 19L37 19L37 20L36 20L36 19L32 19L32 18L33 18L33 17L32 17L32 16L31 16L31 15L30 15L30 14L29 14L29 13L28 13L28 14L29 14L29 16L28 16L28 15L27 15L27 16L26 16L26 18L28 18L28 19L29 19L29 20L31 20L31 21L29 21L29 24L31 24L31 25L28 25L28 26L26 26L26 25L25 25L25 24L28 24L28 23L27 23L27 22L28 22L28 21L26 21L26 19L25 19L25 17L22 17L22 16L21 16L21 17L22 17L22 18L20 18L20 17L19 17L19 15L18 15L18 16L16 16L16 13L17 13L17 12L16 12L16 11L17 11L17 10ZM32 10L32 11L33 11L33 10ZM45 10L45 11L46 11L46 10ZM15 12L15 13L13 13L13 14L15 14L15 13L16 13L16 12ZM33 12L33 13L34 13L34 12ZM52 12L52 13L53 13L53 12ZM54 14L54 15L55 15L55 14ZM12 15L12 17L13 17L13 15ZM27 16L27 17L28 17L28 16ZM39 16L39 17L41 17L41 16ZM42 16L42 17L43 17L43 16ZM16 17L16 18L17 18L17 17ZM18 18L18 19L16 19L16 21L17 21L17 22L20 22L20 23L19 23L19 24L22 24L22 25L20 25L20 30L19 30L19 31L18 31L18 29L16 29L16 30L17 30L17 32L19 32L19 33L20 33L20 34L19 34L19 35L18 35L18 36L19 36L19 37L18 37L18 38L19 38L19 39L20 39L20 38L19 38L19 37L21 37L21 38L22 38L22 39L23 39L23 38L24 38L24 37L23 37L23 36L24 36L24 34L23 34L23 33L25 33L25 32L26 32L26 31L25 31L25 30L24 30L24 31L25 31L25 32L21 32L21 33L20 33L20 30L21 30L21 31L23 31L23 26L22 26L22 25L23 25L23 23L24 23L24 24L25 24L25 23L26 23L26 22L25 22L25 21L24 21L24 20L23 20L23 19L24 19L24 18L22 18L22 20L20 20L20 18ZM30 18L30 19L31 19L31 18ZM41 18L41 20L39 20L39 21L38 21L38 20L37 20L37 21L38 21L38 22L37 22L37 24L39 24L39 25L38 25L38 26L37 26L37 25L33 25L33 24L32 24L32 23L35 23L35 20L34 20L34 21L33 21L33 20L32 20L32 21L31 21L31 24L32 24L32 26L31 26L31 28L32 28L32 29L31 29L31 30L32 30L32 33L31 33L31 34L32 34L32 35L35 35L35 36L37 36L37 34L35 34L35 33L33 33L33 30L35 30L35 28L33 28L33 27L34 27L34 26L36 26L36 27L39 27L39 25L41 25L41 24L39 24L39 23L40 23L40 22L39 22L39 21L43 21L43 20L44 20L44 18L43 18L43 19L42 19L42 18ZM17 20L17 21L20 21L20 20ZM21 21L21 23L23 23L23 22L24 22L24 21L23 21L23 22L22 22L22 21ZM41 22L41 23L42 23L42 22ZM9 23L9 26L10 26L10 23ZM17 23L17 24L18 24L18 23ZM6 24L6 25L7 25L7 24ZM50 24L50 26L52 26L52 25L53 25L53 24ZM0 26L0 27L1 27L1 28L2 28L2 27L1 27L1 26ZM21 26L21 27L22 27L22 26ZM24 26L24 27L26 27L26 26ZM32 26L32 27L33 27L33 26ZM53 26L53 27L54 27L54 26ZM5 27L5 30L8 30L8 27ZM27 27L27 30L30 30L30 27ZM49 27L49 30L52 30L52 27ZM6 28L6 29L7 29L7 28ZM21 28L21 29L22 29L22 28ZM25 28L25 29L26 29L26 28ZM28 28L28 29L29 29L29 28ZM50 28L50 29L51 29L51 28ZM3 29L3 30L4 30L4 29ZM39 29L39 30L38 30L38 32L39 32L39 30L40 30L40 29ZM41 29L41 30L44 30L44 29ZM54 30L54 31L55 31L55 30ZM52 31L52 32L51 32L51 33L52 33L52 32L53 32L53 31ZM6 32L6 33L7 33L7 34L6 34L6 35L7 35L7 36L6 36L6 37L7 37L7 38L6 38L6 39L5 39L5 40L6 40L6 41L5 41L5 42L6 42L6 43L7 43L7 42L8 42L8 41L9 41L9 40L10 40L10 39L7 39L7 38L10 38L10 37L11 37L11 41L10 41L10 42L9 42L9 44L6 44L6 45L9 45L9 47L10 47L10 45L9 45L9 44L10 44L10 42L11 42L11 41L12 41L12 39L13 39L13 38L14 38L14 39L15 39L15 40L14 40L14 42L12 42L12 43L11 43L11 44L12 44L12 45L13 45L13 44L12 44L12 43L14 43L14 45L15 45L15 40L16 40L16 39L15 39L15 38L16 38L16 37L14 37L14 35L13 35L13 36L8 36L8 35L7 35L7 34L8 34L8 32ZM48 32L48 33L49 33L49 32ZM21 33L21 35L20 35L20 36L23 36L23 34L22 34L22 33ZM10 34L10 35L12 35L12 34ZM42 34L42 36L40 36L40 37L38 37L38 38L37 38L37 39L35 39L35 37L33 37L33 36L32 36L32 37L33 37L33 39L35 39L35 40L38 40L38 42L39 42L39 43L40 43L40 44L39 44L39 45L38 45L38 46L39 46L39 47L38 47L38 48L37 48L37 49L38 49L38 48L39 48L39 47L40 47L40 46L41 46L41 44L42 44L42 42L41 42L41 41L43 41L43 43L44 43L44 41L45 41L45 40L44 40L44 39L47 39L47 37L48 37L48 36L50 36L50 35L48 35L48 36L44 36L44 35L43 35L43 34ZM4 36L4 37L5 37L5 36ZM7 36L7 37L8 37L8 36ZM43 36L43 37L40 37L40 38L43 38L43 37L44 37L44 38L45 38L45 37L44 37L44 36ZM6 39L6 40L7 40L7 41L6 41L6 42L7 42L7 41L8 41L8 40L7 40L7 39ZM38 39L38 40L39 40L39 39ZM43 40L43 41L44 41L44 40ZM21 41L21 42L22 42L22 41ZM26 41L26 42L27 42L27 41ZM39 41L39 42L40 42L40 41ZM32 42L32 43L33 43L33 42ZM51 42L51 43L50 43L50 45L51 45L51 46L52 46L52 45L51 45L51 43L53 43L53 42ZM46 43L46 44L45 44L45 45L47 45L47 43ZM54 44L54 46L56 46L56 45L55 45L55 44ZM26 45L26 47L27 47L27 45ZM12 46L12 47L11 47L11 49L12 49L12 47L16 47L16 46ZM45 46L45 48L46 48L46 49L47 49L47 48L48 48L48 47L47 47L47 46ZM46 47L46 48L47 48L47 47ZM15 48L15 49L16 49L16 48ZM19 48L19 49L20 49L20 48ZM13 49L13 50L12 50L12 51L13 51L13 52L14 52L14 51L16 51L16 52L15 52L15 53L14 53L14 54L15 54L15 53L16 53L16 52L17 52L17 50L14 50L14 49ZM27 49L27 52L30 52L30 49ZM49 49L49 52L52 52L52 49ZM9 50L9 51L10 51L10 50ZM13 50L13 51L14 51L14 50ZM28 50L28 51L29 51L29 50ZM50 50L50 51L51 51L51 50ZM54 50L54 51L55 51L55 52L56 52L56 51L55 51L55 50ZM10 52L10 53L11 53L11 52ZM53 52L53 54L54 54L54 52ZM19 54L19 55L20 55L20 54ZM41 54L41 55L42 55L42 56L43 56L43 55L42 55L42 54ZM50 55L50 56L51 56L51 55ZM46 56L46 57L47 57L47 56ZM0 0L0 7L7 7L7 0ZM1 1L1 6L6 6L6 1ZM2 2L2 5L5 5L5 2ZM50 0L50 7L57 7L57 0ZM51 1L51 6L56 6L56 1ZM52 2L52 5L55 5L55 2ZM0 50L0 57L7 57L7 50ZM1 51L1 56L6 56L6 51ZM2 52L2 55L5 55L5 52Z" fill="#000000"/></g></g></svg>
