<?xml version="1.0" encoding="UTF-8"?>
<svg xmlns="http://www.w3.org/2000/svg" version="1.1" width="300" height="300" viewBox="0 0 300 300"><rect x="0" y="0" width="300" height="300" fill="#fefefe"/><g transform="scale(4.615)"><g transform="translate(4,4)"><path fill-rule="evenodd" d="M8 0L8 2L10 2L10 3L11 3L11 4L8 4L8 9L7 9L7 8L5 8L5 9L4 9L4 13L3 13L3 14L1 14L1 15L0 15L0 17L1 17L1 18L0 18L0 20L2 20L2 19L3 19L3 20L4 20L4 21L3 21L3 22L2 22L2 21L0 21L0 22L2 22L2 23L0 23L0 24L3 24L3 23L4 23L4 25L2 25L2 26L4 26L4 27L1 27L1 25L0 25L0 30L1 30L1 29L3 29L3 31L0 31L0 32L2 32L2 33L0 33L0 34L2 34L2 33L3 33L3 34L4 34L4 32L3 32L3 31L7 31L7 32L6 32L6 33L7 33L7 32L8 32L8 33L9 33L9 34L6 34L6 35L3 35L3 36L2 36L2 38L1 38L1 35L0 35L0 38L1 38L1 39L3 39L3 38L4 38L4 42L0 42L0 43L2 43L2 44L1 44L1 45L0 45L0 48L5 48L5 47L8 47L8 48L6 48L6 49L8 49L8 50L9 50L9 51L8 51L8 52L10 52L10 53L11 53L11 52L12 52L12 53L14 53L14 55L15 55L15 56L14 56L14 57L15 57L15 56L16 56L16 57L17 57L17 55L18 55L18 53L19 53L19 50L20 50L20 53L21 53L21 54L20 54L20 55L22 55L22 57L25 57L25 55L24 55L24 54L25 54L25 51L26 51L26 55L27 55L27 56L26 56L26 57L28 57L28 55L29 55L29 57L33 57L33 55L34 55L34 57L35 57L35 55L37 55L37 54L36 54L36 53L37 53L37 52L38 52L38 53L39 53L39 56L40 56L40 57L41 57L41 56L43 56L43 54L42 54L42 53L43 53L43 52L44 52L44 57L47 57L47 56L46 56L46 52L47 52L47 54L48 54L48 55L49 55L49 56L48 56L48 57L50 57L50 55L49 55L49 54L52 54L52 55L53 55L53 56L51 56L51 57L54 57L54 55L57 55L57 54L54 54L54 53L56 53L56 52L57 52L57 49L56 49L56 47L57 47L57 42L56 42L56 43L55 43L55 42L54 42L54 39L55 39L55 38L57 38L57 37L56 37L56 36L57 36L57 33L56 33L56 31L57 31L57 29L56 29L56 28L57 28L57 24L56 24L56 23L57 23L57 20L56 20L56 23L55 23L55 24L54 24L54 22L55 22L55 21L54 21L54 19L55 19L55 17L54 17L54 15L55 15L55 16L56 16L56 17L57 17L57 13L56 13L56 11L57 11L57 10L56 10L56 11L55 11L55 9L57 9L57 8L55 8L55 9L54 9L54 10L53 10L53 11L52 11L52 9L53 9L53 8L49 8L49 9L51 9L51 11L50 11L50 13L49 13L49 14L48 14L48 12L47 12L47 11L46 11L46 9L47 9L47 10L48 10L48 11L49 11L49 10L48 10L48 7L49 7L49 6L48 6L48 7L47 7L47 5L48 5L48 0L46 0L46 1L45 1L45 0L42 0L42 1L41 1L41 0L38 0L38 3L39 3L39 4L38 4L38 5L37 5L37 6L36 6L36 10L34 10L34 9L35 9L35 4L36 4L36 3L35 3L35 2L37 2L37 1L35 1L35 0L34 0L34 8L32 8L32 9L31 9L31 5L32 5L32 2L33 2L33 1L32 1L32 2L29 2L29 0L28 0L28 2L29 2L29 3L30 3L30 4L26 4L26 3L27 3L27 0L24 0L24 1L23 1L23 0L20 0L20 1L18 1L18 0L16 0L16 1L18 1L18 3L21 3L21 5L20 5L20 7L19 7L19 5L18 5L18 7L17 7L17 6L16 6L16 5L17 5L17 4L16 4L16 2L15 2L15 0L14 0L14 3L13 3L13 2L12 2L12 1L13 1L13 0L12 0L12 1L10 1L10 0ZM30 0L30 1L31 1L31 0ZM20 1L20 2L21 2L21 3L22 3L22 5L21 5L21 9L20 9L20 8L19 8L19 7L18 7L18 8L17 8L17 7L16 7L16 6L15 6L15 8L16 8L16 12L14 12L14 11L15 11L15 9L14 9L14 8L13 8L13 14L12 14L12 13L11 13L11 11L10 11L10 10L9 10L9 11L10 11L10 14L9 14L9 13L5 13L5 15L3 15L3 16L2 16L2 15L1 15L1 17L3 17L3 16L7 16L7 17L6 17L6 18L7 18L7 19L5 19L5 18L3 18L3 19L5 19L5 21L4 21L4 22L5 22L5 24L7 24L7 25L6 25L6 26L8 26L8 23L9 23L9 21L10 21L10 23L11 23L11 21L12 21L12 23L13 23L13 24L14 24L14 25L13 25L13 26L11 26L11 27L10 27L10 28L9 28L9 31L8 31L8 32L9 32L9 33L10 33L10 34L11 34L11 33L12 33L12 31L13 31L13 33L15 33L15 32L16 32L16 34L15 34L15 35L16 35L16 36L14 36L14 34L12 34L12 35L9 35L9 36L8 36L8 37L4 37L4 36L3 36L3 37L4 37L4 38L5 38L5 41L6 41L6 42L7 42L7 43L5 43L5 42L4 42L4 43L3 43L3 44L4 44L4 46L3 46L3 45L1 45L1 47L2 47L2 46L3 46L3 47L5 47L5 44L7 44L7 43L8 43L8 44L9 44L9 40L8 40L8 39L12 39L12 40L11 40L11 41L12 41L12 42L10 42L10 45L9 45L9 47L10 47L10 48L8 48L8 49L9 49L9 50L11 50L11 51L10 51L10 52L11 52L11 51L13 51L13 52L17 52L17 53L18 53L18 51L17 51L17 49L18 49L18 50L19 50L19 49L20 49L20 50L22 50L22 48L23 48L23 49L24 49L24 51L23 51L23 52L24 52L24 51L25 51L25 49L26 49L26 48L27 48L27 46L28 46L28 48L31 48L31 50L32 50L32 48L33 48L33 49L34 49L34 50L35 50L35 51L37 51L37 49L36 49L36 48L37 48L37 47L38 47L38 52L39 52L39 53L40 53L40 52L39 52L39 49L40 49L40 51L41 51L41 52L43 52L43 51L44 51L44 50L45 50L45 49L46 49L46 50L47 50L47 49L46 49L46 48L47 48L47 47L48 47L48 46L49 46L49 47L50 47L50 45L52 45L52 48L53 48L53 45L54 45L54 48L55 48L55 47L56 47L56 44L55 44L55 43L54 43L54 44L53 44L53 40L52 40L52 44L50 44L50 42L49 42L49 41L51 41L51 40L48 40L48 39L49 39L49 36L50 36L50 33L51 33L51 36L53 36L53 37L52 37L52 38L53 38L53 37L54 37L54 38L55 38L55 37L54 37L54 36L55 36L55 35L56 35L56 34L55 34L55 33L53 33L53 32L52 32L52 31L49 31L49 32L50 32L50 33L49 33L49 34L48 34L48 33L47 33L47 32L46 32L46 31L47 31L47 29L48 29L48 28L46 28L46 29L45 29L45 30L44 30L44 27L45 27L45 26L44 26L44 27L43 27L43 25L44 25L44 24L45 24L45 25L46 25L46 26L49 26L49 24L51 24L51 25L50 25L50 26L52 26L52 24L53 24L53 25L54 25L54 26L55 26L55 27L54 27L54 28L53 28L53 31L54 31L54 32L55 32L55 31L56 31L56 30L55 30L55 28L56 28L56 24L55 24L55 25L54 25L54 24L53 24L53 22L52 22L52 20L53 20L53 19L54 19L54 17L52 17L52 15L54 15L54 13L55 13L55 15L56 15L56 13L55 13L55 11L54 11L54 12L53 12L53 14L52 14L52 13L50 13L50 15L51 15L51 17L50 17L50 16L48 16L48 19L47 19L47 17L46 17L46 23L44 23L44 22L45 22L45 21L44 21L44 19L45 19L45 17L44 17L44 16L46 16L46 15L48 15L48 14L47 14L47 13L46 13L46 11L45 11L45 9L44 9L44 8L42 8L42 6L43 6L43 7L44 7L44 6L45 6L45 7L46 7L46 8L47 8L47 7L46 7L46 5L47 5L47 3L46 3L46 5L44 5L44 4L45 4L45 1L42 1L42 4L41 4L41 2L40 2L40 1L39 1L39 2L40 2L40 4L39 4L39 5L38 5L38 6L37 6L37 7L38 7L38 6L39 6L39 8L37 8L37 9L38 9L38 10L39 10L39 9L40 9L40 11L41 11L41 12L42 12L42 15L41 15L41 17L42 17L42 18L43 18L43 17L44 17L44 19L42 19L42 20L41 20L41 21L42 21L42 22L43 22L43 23L44 23L44 24L43 24L43 25L42 25L42 23L41 23L41 22L40 22L40 19L41 19L41 18L40 18L40 14L41 14L41 13L40 13L40 14L39 14L39 12L37 12L37 11L36 11L36 12L35 12L35 11L34 11L34 10L33 10L33 9L32 9L32 11L34 11L34 12L35 12L35 13L34 13L34 15L33 15L33 14L32 14L32 13L31 13L31 12L30 12L30 10L31 10L31 9L30 9L30 10L29 10L29 9L28 9L28 10L25 10L25 9L26 9L26 5L24 5L24 6L23 6L23 3L22 3L22 2L21 2L21 1ZM24 1L24 4L25 4L25 1ZM46 1L46 2L47 2L47 1ZM11 2L11 3L12 3L12 4L11 4L11 7L10 7L10 5L9 5L9 7L10 7L10 8L11 8L11 10L12 10L12 8L11 8L11 7L12 7L12 4L13 4L13 3L12 3L12 2ZM43 2L43 4L42 4L42 5L41 5L41 6L40 6L40 7L41 7L41 6L42 6L42 5L43 5L43 6L44 6L44 5L43 5L43 4L44 4L44 2ZM14 3L14 4L15 4L15 3ZM13 5L13 7L14 7L14 5ZM27 5L27 8L30 8L30 5ZM22 6L22 9L21 9L21 10L20 10L20 9L19 9L19 8L18 8L18 10L17 10L17 14L15 14L15 15L13 15L13 16L12 16L12 15L11 15L11 14L10 14L10 15L9 15L9 17L7 17L7 18L13 18L13 19L7 19L7 20L6 20L6 21L5 21L5 22L6 22L6 23L7 23L7 22L6 22L6 21L7 21L7 20L8 20L8 21L9 21L9 20L10 20L10 21L11 21L11 20L13 20L13 23L15 23L15 25L14 25L14 26L15 26L15 27L16 27L16 28L17 28L17 27L16 27L16 25L17 25L17 26L18 26L18 25L19 25L19 23L18 23L18 21L19 21L19 20L18 20L18 21L17 21L17 20L16 20L16 19L19 19L19 18L20 18L20 21L21 21L21 22L20 22L20 23L21 23L21 26L20 26L20 27L18 27L18 28L21 28L21 30L20 30L20 29L19 29L19 31L20 31L20 32L21 32L21 30L22 30L22 33L23 33L23 34L22 34L22 38L21 38L21 36L19 36L19 35L18 35L18 33L19 33L19 34L20 34L20 33L19 33L19 32L18 32L18 33L17 33L17 34L16 34L16 35L18 35L18 37L17 37L17 36L16 36L16 37L17 37L17 38L16 38L16 39L17 39L17 40L18 40L18 41L17 41L17 43L16 43L16 40L15 40L15 41L13 41L13 43L14 43L14 44L15 44L15 43L16 43L16 44L17 44L17 47L16 47L16 45L13 45L13 46L12 46L12 48L13 48L13 47L16 47L16 48L15 48L15 51L16 51L16 49L17 49L17 48L18 48L18 49L19 49L19 47L21 47L21 48L22 48L22 46L20 46L20 44L21 44L21 42L22 42L22 41L23 41L23 42L24 42L24 44L25 44L25 45L26 45L26 46L25 46L25 47L23 47L23 48L25 48L25 47L26 47L26 46L27 46L27 44L30 44L30 45L31 45L31 44L30 44L30 43L31 43L31 42L30 42L30 43L28 43L28 41L29 41L29 40L25 40L25 41L26 41L26 42L24 42L24 41L23 41L23 40L22 40L22 41L21 41L21 39L23 39L23 35L25 35L25 36L24 36L24 37L25 37L25 36L28 36L28 37L29 37L29 36L28 36L28 35L31 35L31 36L30 36L30 41L31 41L31 38L33 38L33 39L34 39L34 41L33 41L33 40L32 40L32 46L30 46L30 47L32 47L32 46L33 46L33 47L34 47L34 45L33 45L33 44L35 44L35 43L36 43L36 41L37 41L37 42L38 42L38 41L39 41L39 38L40 38L40 39L41 39L41 40L40 40L40 41L41 41L41 42L40 42L40 43L43 43L43 42L42 42L42 41L41 41L41 40L42 40L42 39L41 39L41 36L42 36L42 37L43 37L43 36L42 36L42 35L40 35L40 36L38 36L38 35L39 35L39 34L38 34L38 33L39 33L39 32L40 32L40 34L42 34L42 33L43 33L43 34L44 34L44 38L43 38L43 39L44 39L44 41L45 41L45 42L46 42L46 43L45 43L45 44L44 44L44 45L43 45L43 44L42 44L42 45L41 45L41 44L40 44L40 45L39 45L39 46L40 46L40 45L41 45L41 47L40 47L40 49L41 49L41 51L43 51L43 50L44 50L44 49L45 49L45 48L46 48L46 44L47 44L47 45L50 45L50 44L49 44L49 42L48 42L48 44L47 44L47 42L46 42L46 41L45 41L45 40L47 40L47 41L48 41L48 40L47 40L47 38L46 38L46 37L48 37L48 36L49 36L49 35L48 35L48 34L46 34L46 33L45 33L45 31L46 31L46 30L45 30L45 31L42 31L42 28L43 28L43 27L41 27L41 26L42 26L42 25L41 25L41 23L40 23L40 27L39 27L39 26L38 26L38 25L37 25L37 24L36 24L36 23L37 23L37 22L38 22L38 23L39 23L39 22L38 22L38 21L39 21L39 19L40 19L40 18L38 18L38 16L37 16L37 15L38 15L38 13L37 13L37 12L36 12L36 13L35 13L35 14L36 14L36 18L34 18L34 17L35 17L35 15L34 15L34 17L33 17L33 15L32 15L32 17L31 17L31 16L30 16L30 15L29 15L29 13L30 13L30 12L29 12L29 10L28 10L28 12L27 12L27 14L26 14L26 11L24 11L24 10L23 10L23 11L22 11L22 12L23 12L23 14L24 14L24 15L23 15L23 16L22 16L22 14L21 14L21 15L20 15L20 13L21 13L21 12L20 12L20 13L19 13L19 12L18 12L18 11L21 11L21 10L22 10L22 9L23 9L23 6ZM24 6L24 7L25 7L25 6ZM28 6L28 7L29 7L29 6ZM32 6L32 7L33 7L33 6ZM0 8L0 9L1 9L1 12L0 12L0 13L1 13L1 12L2 12L2 11L3 11L3 10L2 10L2 9L3 9L3 8ZM40 8L40 9L41 9L41 10L42 10L42 12L44 12L44 13L45 13L45 15L46 15L46 13L45 13L45 12L44 12L44 9L43 9L43 10L42 10L42 8ZM5 9L5 10L7 10L7 11L6 11L6 12L7 12L7 11L8 11L8 10L7 10L7 9ZM51 11L51 12L52 12L52 11ZM24 12L24 14L25 14L25 12ZM18 13L18 14L17 14L17 15L15 15L15 16L17 16L17 17L16 17L16 18L18 18L18 15L19 15L19 17L20 17L20 18L21 18L21 20L23 20L23 18L21 18L21 17L20 17L20 15L19 15L19 13ZM6 14L6 15L7 15L7 14ZM27 14L27 15L26 15L26 16L25 16L25 15L24 15L24 18L25 18L25 19L24 19L24 20L25 20L25 19L26 19L26 20L27 20L27 22L26 22L26 23L28 23L28 24L27 24L27 25L26 25L26 26L27 26L27 25L28 25L28 24L29 24L29 26L31 26L31 25L32 25L32 27L31 27L31 29L32 29L32 30L31 30L31 32L30 32L30 34L31 34L31 35L33 35L33 37L34 37L34 39L35 39L35 41L34 41L34 42L35 42L35 41L36 41L36 38L37 38L37 41L38 41L38 38L39 38L39 37L38 37L38 38L37 38L37 37L36 37L36 35L38 35L38 34L37 34L37 33L36 33L36 31L37 31L37 32L38 32L38 31L40 31L40 32L41 32L41 33L42 33L42 31L40 31L40 30L39 30L39 29L40 29L40 28L41 28L41 27L40 27L40 28L39 28L39 29L38 29L38 28L37 28L37 26L36 26L36 24L34 24L34 22L35 22L35 23L36 23L36 22L37 22L37 21L38 21L38 19L37 19L37 18L36 18L36 19L37 19L37 21L36 21L36 20L34 20L34 18L33 18L33 17L32 17L32 18L31 18L31 17L30 17L30 16L29 16L29 15L28 15L28 14ZM43 14L43 16L44 16L44 14ZM51 14L51 15L52 15L52 14ZM11 16L11 17L12 17L12 16ZM13 16L13 18L15 18L15 17L14 17L14 16ZM26 16L26 17L25 17L25 18L26 18L26 19L27 19L27 18L26 18L26 17L27 17L27 16ZM28 17L28 18L30 18L30 17ZM49 17L49 18L50 18L50 19L48 19L48 21L47 21L47 23L46 23L46 25L47 25L47 23L48 23L48 24L49 24L49 23L50 23L50 22L49 22L49 23L48 23L48 21L49 21L49 20L51 20L51 18L52 18L52 17L51 17L51 18L50 18L50 17ZM1 18L1 19L2 19L2 18ZM56 18L56 19L57 19L57 18ZM14 19L14 20L15 20L15 19ZM30 19L30 20L28 20L28 21L30 21L30 20L32 20L32 21L33 21L33 22L31 22L31 23L32 23L32 25L33 25L33 26L34 26L34 24L33 24L33 22L34 22L34 21L33 21L33 19ZM14 21L14 22L15 22L15 21ZM35 21L35 22L36 22L36 21ZM43 21L43 22L44 22L44 21ZM16 22L16 23L17 23L17 25L18 25L18 23L17 23L17 22ZM21 22L21 23L22 23L22 24L23 24L23 23L22 23L22 22ZM24 22L24 23L25 23L25 22ZM28 22L28 23L29 23L29 24L30 24L30 25L31 25L31 24L30 24L30 23L29 23L29 22ZM51 22L51 24L52 24L52 22ZM10 24L10 25L9 25L9 26L10 26L10 25L11 25L11 24ZM24 25L24 27L22 27L22 28L24 28L24 30L23 30L23 29L22 29L22 30L23 30L23 31L24 31L24 34L26 34L26 35L28 35L28 34L29 34L29 31L27 31L27 33L28 33L28 34L26 34L26 33L25 33L25 31L26 31L26 30L25 30L25 28L24 28L24 27L25 27L25 25ZM5 27L5 30L8 30L8 27ZM13 27L13 28L14 28L14 30L13 30L13 29L12 29L12 30L13 30L13 31L16 31L16 32L17 32L17 31L18 31L18 30L17 30L17 31L16 31L16 30L15 30L15 28L14 28L14 27ZM27 27L27 30L30 30L30 27ZM34 27L34 29L33 29L33 28L32 28L32 29L33 29L33 31L34 31L34 29L35 29L35 30L37 30L37 31L38 31L38 30L37 30L37 28L36 28L36 27ZM49 27L49 30L52 30L52 27ZM6 28L6 29L7 29L7 28ZM28 28L28 29L29 29L29 28ZM35 28L35 29L36 29L36 28ZM50 28L50 29L51 29L51 28ZM10 29L10 30L11 30L11 29ZM9 31L9 32L10 32L10 31ZM32 32L32 33L33 33L33 32ZM34 32L34 33L35 33L35 35L34 35L34 37L35 37L35 38L36 38L36 37L35 37L35 35L36 35L36 33L35 33L35 32ZM44 33L44 34L45 34L45 36L46 36L46 34L45 34L45 33ZM53 34L53 36L54 36L54 34ZM6 35L6 36L7 36L7 35ZM9 36L9 37L8 37L8 38L10 38L10 36ZM11 36L11 38L13 38L13 39L15 39L15 38L14 38L14 36ZM31 36L31 37L32 37L32 36ZM18 37L18 38L17 38L17 39L18 39L18 40L19 40L19 39L18 39L18 38L19 38L19 37ZM26 37L26 38L24 38L24 39L26 39L26 38L27 38L27 37ZM50 37L50 38L51 38L51 37ZM6 38L6 39L7 39L7 38ZM20 38L20 39L21 39L21 38ZM28 38L28 39L29 39L29 38ZM45 38L45 39L46 39L46 38ZM1 40L1 41L3 41L3 40ZM6 40L6 41L8 41L8 40ZM55 40L55 41L57 41L57 40ZM20 41L20 42L19 42L19 43L18 43L18 44L19 44L19 43L20 43L20 42L21 42L21 41ZM4 43L4 44L5 44L5 43ZM11 43L11 44L12 44L12 43ZM22 43L22 44L23 44L23 43ZM37 43L37 44L36 44L36 45L37 45L37 46L36 46L36 47L37 47L37 46L38 46L38 45L37 45L37 44L39 44L39 43ZM52 44L52 45L53 45L53 44ZM6 45L6 46L8 46L8 45ZM10 45L10 47L11 47L11 45ZM18 45L18 46L19 46L19 45ZM23 45L23 46L24 46L24 45ZM42 45L42 47L41 47L41 49L42 49L42 50L43 50L43 49L44 49L44 48L45 48L45 45L44 45L44 46L43 46L43 45ZM10 48L10 49L11 49L11 50L12 50L12 49L11 49L11 48ZM34 48L34 49L35 49L35 48ZM13 49L13 50L14 50L14 49ZM27 49L27 52L30 52L30 49ZM49 49L49 52L52 52L52 49ZM54 49L54 50L53 50L53 51L54 51L54 52L56 52L56 49ZM28 50L28 51L29 51L29 50ZM50 50L50 51L51 51L51 50ZM31 51L31 52L32 52L32 51ZM33 51L33 52L34 52L34 54L35 54L35 53L36 53L36 52L34 52L34 51ZM45 51L45 52L46 52L46 51ZM47 51L47 52L48 52L48 51ZM27 53L27 55L28 55L28 53ZM31 53L31 54L30 54L30 55L33 55L33 54L32 54L32 53ZM48 53L48 54L49 54L49 53ZM8 54L8 57L9 57L9 54ZM11 54L11 55L10 55L10 56L11 56L11 55L13 55L13 54ZM16 54L16 55L17 55L17 54ZM22 54L22 55L23 55L23 54ZM40 54L40 56L41 56L41 54ZM18 56L18 57L20 57L20 56ZM36 56L36 57L37 57L37 56ZM56 56L56 57L57 57L57 56ZM0 0L0 7L7 7L7 0ZM1 1L1 6L6 6L6 1ZM2 2L2 5L5 5L5 2ZM50 0L50 7L57 7L57 0ZM51 1L51 6L56 6L56 1ZM52 2L52 5L55 5L55 2ZM0 50L0 57L7 57L7 50ZM1 51L1 56L6 56L6 51ZM2 52L2 55L5 55L5 52Z" fill="#000000"/></g></g></svg>
