<?xml version="1.0" encoding="UTF-8"?>
<svg xmlns="http://www.w3.org/2000/svg" version="1.1" width="300" height="300" viewBox="0 0 300 300"><rect x="0" y="0" width="300" height="300" fill="#fefefe"/><g transform="scale(4.615)"><g transform="translate(4,4)"><path fill-rule="evenodd" d="M8 0L8 2L9 2L9 4L8 4L8 10L5 10L5 9L7 9L7 8L5 8L5 9L4 9L4 10L5 10L5 11L4 11L4 12L6 12L6 13L7 13L7 14L6 14L6 15L9 15L9 16L10 16L10 17L9 17L9 18L8 18L8 16L4 16L4 17L3 17L3 18L5 18L5 20L4 20L4 19L2 19L2 17L1 17L1 18L0 18L0 19L2 19L2 20L0 20L0 22L1 22L1 23L0 23L0 29L1 29L1 31L0 31L0 37L1 37L1 40L3 40L3 41L2 41L2 42L1 42L1 41L0 41L0 42L1 42L1 43L0 43L0 48L5 48L5 47L7 47L7 48L6 48L6 49L7 49L7 48L8 48L8 50L9 50L9 51L8 51L8 52L9 52L9 53L10 53L10 55L9 55L9 54L8 54L8 57L9 57L9 56L10 56L10 57L13 57L13 56L12 56L12 54L13 54L13 55L14 55L14 56L16 56L16 57L17 57L17 55L18 55L18 53L19 53L19 52L20 52L20 53L21 53L21 51L20 51L20 49L21 49L21 48L22 48L22 51L24 51L24 52L22 52L22 53L23 53L23 55L22 55L22 56L21 56L21 57L25 57L25 55L26 55L26 57L28 57L28 55L29 55L29 57L33 57L33 55L30 55L30 54L31 54L31 53L32 53L32 54L34 54L34 57L35 57L35 55L37 55L37 54L36 54L36 53L37 53L37 51L38 51L38 53L39 53L39 55L40 55L40 54L41 54L41 55L42 55L42 56L40 56L40 57L42 57L42 56L44 56L44 57L48 57L48 56L49 56L49 57L50 57L50 55L49 55L49 54L52 54L52 55L53 55L53 53L54 53L54 55L57 55L57 54L55 54L55 52L54 52L54 51L53 51L53 50L54 50L54 49L56 49L56 47L57 47L57 45L56 45L56 47L55 47L55 46L54 46L54 47L53 47L53 48L51 48L51 47L52 47L52 45L53 45L53 44L54 44L54 43L55 43L55 44L56 44L56 43L57 43L57 42L56 42L56 43L55 43L55 42L54 42L54 41L57 41L57 40L54 40L54 39L55 39L55 38L57 38L57 36L56 36L56 35L57 35L57 33L56 33L56 31L57 31L57 29L56 29L56 28L57 28L57 24L56 24L56 23L57 23L57 20L56 20L56 19L57 19L57 18L56 18L56 19L55 19L55 16L56 16L56 17L57 17L57 13L56 13L56 15L55 15L55 13L54 13L54 14L53 14L53 12L54 12L54 11L55 11L55 12L56 12L56 11L57 11L57 10L56 10L56 9L57 9L57 8L55 8L55 9L54 9L54 10L52 10L52 12L51 12L51 10L50 10L50 9L53 9L53 8L48 8L48 7L49 7L49 6L48 6L48 7L47 7L47 5L48 5L48 0L46 0L46 1L45 1L45 0L42 0L42 1L41 1L41 0L38 0L38 2L37 2L37 1L35 1L35 0L34 0L34 2L33 2L33 6L32 6L32 7L33 7L33 6L34 6L34 8L32 8L32 9L31 9L31 5L32 5L32 1L33 1L33 0L32 0L32 1L31 1L31 0L30 0L30 3L31 3L31 4L28 4L28 3L27 3L27 2L28 2L28 1L29 1L29 0L28 0L28 1L27 1L27 0L24 0L24 1L23 1L23 0L20 0L20 2L21 2L21 1L22 1L22 2L23 2L23 6L22 6L22 3L21 3L21 5L20 5L20 7L19 7L19 4L18 4L18 3L19 3L19 0L16 0L16 1L18 1L18 3L17 3L17 2L16 2L16 3L15 3L15 0L14 0L14 3L13 3L13 4L12 4L12 3L11 3L11 5L10 5L10 2L9 2L9 0ZM10 0L10 1L11 1L11 0ZM12 1L12 2L13 2L13 1ZM24 1L24 4L25 4L25 1ZM39 1L39 2L40 2L40 4L39 4L39 5L38 5L38 4L37 4L37 2L35 2L35 3L34 3L34 4L35 4L35 9L34 9L34 10L33 10L33 9L32 9L32 12L30 12L30 11L29 11L29 9L27 9L27 10L25 10L25 9L26 9L26 5L24 5L24 6L23 6L23 7L22 7L22 6L21 6L21 9L20 9L20 10L21 10L21 11L20 11L20 12L19 12L19 11L18 11L18 12L19 12L19 13L18 13L18 14L17 14L17 12L14 12L14 11L15 11L15 9L14 9L14 8L13 8L13 7L14 7L14 5L13 5L13 7L12 7L12 5L11 5L11 7L10 7L10 5L9 5L9 8L10 8L10 9L9 9L9 10L8 10L8 11L6 11L6 12L8 12L8 14L9 14L9 15L10 15L10 16L11 16L11 14L9 14L9 13L12 13L12 12L10 12L10 9L11 9L11 10L12 10L12 9L13 9L13 14L12 14L12 15L14 15L14 16L13 16L13 18L14 18L14 16L17 16L17 17L16 17L16 19L14 19L14 20L17 20L17 21L18 21L18 23L17 23L17 22L16 22L16 23L17 23L17 25L16 25L16 26L14 26L14 29L13 29L13 28L12 28L12 26L13 26L13 23L15 23L15 21L14 21L14 22L12 22L12 25L11 25L11 26L9 26L9 25L10 25L10 24L11 24L11 23L10 23L10 24L9 24L9 23L8 23L8 22L7 22L7 21L4 21L4 22L3 22L3 20L2 20L2 21L1 21L1 22L3 22L3 23L4 23L4 22L5 22L5 23L6 23L6 24L7 24L7 25L5 25L5 26L9 26L9 28L10 28L10 29L13 29L13 30L11 30L11 32L10 32L10 33L8 33L8 31L6 31L6 32L5 32L5 31L1 31L1 32L3 32L3 33L4 33L4 34L7 34L7 35L6 35L6 36L4 36L4 35L2 35L2 34L1 34L1 35L2 35L2 36L3 36L3 38L2 38L2 39L3 39L3 38L4 38L4 37L5 37L5 41L3 41L3 42L2 42L2 43L1 43L1 44L2 44L2 43L3 43L3 44L7 44L7 45L5 45L5 46L3 46L3 47L5 47L5 46L7 46L7 47L8 47L8 48L9 48L9 50L11 50L11 48L10 48L10 47L11 47L11 46L12 46L12 45L13 45L13 46L14 46L14 45L16 45L16 46L15 46L15 47L14 47L14 48L13 48L13 47L12 47L12 48L13 48L13 51L11 51L11 52L10 52L10 51L9 51L9 52L10 52L10 53L11 53L11 54L12 54L12 53L13 53L13 54L14 54L14 55L15 55L15 54L14 54L14 53L15 53L15 51L16 51L16 50L19 50L19 49L20 49L20 48L21 48L21 46L22 46L22 48L23 48L23 49L24 49L24 51L25 51L25 53L26 53L26 55L28 55L28 53L26 53L26 51L25 51L25 50L26 50L26 49L25 49L25 46L26 46L26 48L28 48L28 46L29 46L29 48L31 48L31 50L32 50L32 51L31 51L31 52L32 52L32 51L33 51L33 52L34 52L34 54L35 54L35 53L36 53L36 52L34 52L34 51L37 51L37 49L36 49L36 48L37 48L37 47L38 47L38 51L39 51L39 49L40 49L40 51L41 51L41 53L42 53L42 54L43 54L43 55L44 55L44 56L45 56L45 55L46 55L46 56L48 56L48 54L49 54L49 53L46 53L46 50L47 50L47 49L46 49L46 48L47 48L47 44L48 44L48 46L49 46L49 47L50 47L50 46L51 46L51 45L52 45L52 44L53 44L53 41L54 41L54 40L53 40L53 39L52 39L52 38L53 38L53 37L54 37L54 38L55 38L55 37L56 37L56 36L55 36L55 31L56 31L56 30L55 30L55 31L51 31L51 32L50 32L50 33L49 33L49 34L48 34L48 33L46 33L46 34L45 34L45 35L46 35L46 36L45 36L45 37L46 37L46 38L45 38L45 39L46 39L46 38L47 38L47 40L45 40L45 41L44 41L44 42L43 42L43 41L42 41L42 42L41 42L41 45L40 45L40 42L39 42L39 41L40 41L40 40L41 40L41 39L40 39L40 38L39 38L39 36L40 36L40 35L41 35L41 36L42 36L42 40L43 40L43 38L44 38L44 35L43 35L43 33L42 33L42 31L43 31L43 30L44 30L44 31L45 31L45 30L46 30L46 32L47 32L47 29L48 29L48 26L49 26L49 25L50 25L50 26L53 26L53 25L54 25L54 26L55 26L55 27L54 27L54 28L53 28L53 29L55 29L55 28L56 28L56 24L55 24L55 23L56 23L56 21L55 21L55 19L54 19L54 17L53 17L53 18L52 18L52 15L53 15L53 14L52 14L52 13L50 13L50 10L49 10L49 9L48 9L48 11L49 11L49 12L48 12L48 14L47 14L47 13L46 13L46 11L47 11L47 8L46 8L46 5L47 5L47 3L46 3L46 5L44 5L44 4L45 4L45 1L42 1L42 3L41 3L41 2L40 2L40 1ZM46 1L46 2L47 2L47 1ZM43 2L43 3L42 3L42 5L41 5L41 6L40 6L40 7L41 7L41 8L40 8L40 9L41 9L41 10L39 10L39 11L38 11L38 9L39 9L39 6L38 6L38 5L37 5L37 6L36 6L36 10L34 10L34 11L33 11L33 12L32 12L32 14L31 14L31 16L30 16L30 15L29 15L29 13L30 13L30 12L29 12L29 11L28 11L28 10L27 10L27 11L28 11L28 12L27 12L27 14L28 14L28 15L29 15L29 16L30 16L30 17L28 17L28 18L30 18L30 17L31 17L31 18L32 18L32 19L30 19L30 20L28 20L28 19L27 19L27 18L26 18L26 19L25 19L25 18L24 18L24 15L25 15L25 17L26 17L26 14L24 14L24 12L25 12L25 13L26 13L26 11L25 11L25 10L24 10L24 9L25 9L25 8L22 8L22 10L24 10L24 11L22 11L22 12L23 12L23 14L24 14L24 15L23 15L23 16L22 16L22 14L21 14L21 16L20 16L20 15L19 15L19 14L20 14L20 13L21 13L21 12L20 12L20 13L19 13L19 14L18 14L18 15L19 15L19 16L18 16L18 17L17 17L17 18L18 18L18 19L17 19L17 20L18 20L18 21L19 21L19 19L20 19L20 21L21 21L21 19L22 19L22 18L23 18L23 20L22 20L22 22L20 22L20 23L21 23L21 24L22 24L22 25L21 25L21 26L20 26L20 28L19 28L19 27L18 27L18 28L19 28L19 30L18 30L18 32L16 32L16 31L17 31L17 30L15 30L15 29L14 29L14 30L13 30L13 31L12 31L12 32L13 32L13 33L14 33L14 32L16 32L16 33L15 33L15 36L14 36L14 35L13 35L13 34L12 34L12 33L11 33L11 34L10 34L10 35L11 35L11 37L9 37L9 38L8 38L8 39L7 39L7 38L6 38L6 39L7 39L7 40L6 40L6 41L8 41L8 43L7 43L7 42L3 42L3 43L7 43L7 44L8 44L8 46L9 46L9 44L8 44L8 43L9 43L9 42L10 42L10 39L13 39L13 38L15 38L15 36L16 36L16 37L17 37L17 38L16 38L16 39L17 39L17 40L16 40L16 41L15 41L15 39L14 39L14 40L12 40L12 41L11 41L11 42L13 42L13 43L14 43L14 44L13 44L13 45L14 45L14 44L15 44L15 43L16 43L16 45L17 45L17 46L16 46L16 47L19 47L19 48L18 48L18 49L19 49L19 48L20 48L20 47L19 47L19 46L20 46L20 45L21 45L21 44L18 44L18 43L20 43L20 41L21 41L21 39L22 39L22 41L23 41L23 43L22 43L22 44L23 44L23 47L24 47L24 45L26 45L26 46L27 46L27 44L29 44L29 46L30 46L30 47L31 47L31 48L32 48L32 49L33 49L33 51L34 51L34 49L33 49L33 48L34 48L34 45L33 45L33 44L36 44L36 45L35 45L35 46L36 46L36 47L37 47L37 46L38 46L38 45L37 45L37 44L39 44L39 43L37 43L37 44L36 44L36 41L37 41L37 42L38 42L38 41L39 41L39 38L38 38L38 37L37 37L37 36L38 36L38 35L39 35L39 34L38 34L38 33L39 33L39 32L40 32L40 34L42 34L42 33L41 33L41 32L40 32L40 31L38 31L38 30L37 30L37 28L38 28L38 29L39 29L39 30L40 30L40 29L41 29L41 31L42 31L42 28L43 28L43 27L41 27L41 28L40 28L40 29L39 29L39 27L40 27L40 25L41 25L41 24L42 24L42 23L43 23L43 22L44 22L44 23L45 23L45 22L46 22L46 21L47 21L47 23L48 23L48 24L44 24L44 25L43 25L43 26L44 26L44 30L45 30L45 29L46 29L46 28L47 28L47 26L48 26L48 24L50 24L50 22L49 22L49 23L48 23L48 21L49 21L49 20L51 20L51 19L52 19L52 18L50 18L50 16L51 16L51 15L52 15L52 14L51 14L51 15L50 15L50 13L49 13L49 14L48 14L48 15L46 15L46 13L45 13L45 12L44 12L44 11L42 11L42 9L43 9L43 10L44 10L44 9L45 9L45 8L44 8L44 7L45 7L45 6L44 6L44 5L43 5L43 4L44 4L44 2ZM14 3L14 4L15 4L15 3ZM16 3L16 4L17 4L17 5L16 5L16 6L15 6L15 8L16 8L16 11L17 11L17 10L18 10L18 6L17 6L17 5L18 5L18 4L17 4L17 3ZM26 3L26 4L27 4L27 3ZM35 3L35 4L36 4L36 3ZM27 5L27 8L30 8L30 5ZM42 5L42 6L41 6L41 7L42 7L42 8L43 8L43 9L44 9L44 8L43 8L43 7L44 7L44 6L43 6L43 5ZM16 6L16 7L17 7L17 6ZM24 6L24 7L25 7L25 6ZM28 6L28 7L29 7L29 6ZM37 6L37 7L38 7L38 6ZM42 6L42 7L43 7L43 6ZM0 8L0 9L1 9L1 10L0 10L0 11L1 11L1 12L0 12L0 15L2 15L2 14L1 14L1 13L2 13L2 11L3 11L3 10L2 10L2 9L3 9L3 8ZM11 8L11 9L12 9L12 8ZM37 8L37 9L38 9L38 8ZM30 9L30 10L31 10L31 9ZM55 10L55 11L56 11L56 10ZM8 11L8 12L9 12L9 11ZM34 11L34 12L35 12L35 13L34 13L34 15L33 15L33 14L32 14L32 16L31 16L31 17L32 17L32 18L33 18L33 17L34 17L34 19L33 19L33 20L35 20L35 21L34 21L34 22L33 22L33 21L32 21L32 20L31 20L31 21L28 21L28 20L27 20L27 19L26 19L26 20L25 20L25 19L24 19L24 20L25 20L25 21L26 21L26 20L27 20L27 22L26 22L26 23L28 23L28 22L29 22L29 25L28 25L28 24L27 24L27 25L26 25L26 26L31 26L31 25L32 25L32 28L31 28L31 30L32 30L32 32L30 32L30 34L32 34L32 35L33 35L33 36L34 36L34 39L33 39L33 38L31 38L31 41L30 41L30 42L29 42L29 41L28 41L28 43L30 43L30 44L31 44L31 45L32 45L32 46L33 46L33 45L32 45L32 44L31 44L31 43L32 43L32 40L33 40L33 41L34 41L34 42L35 42L35 41L36 41L36 38L37 38L37 37L36 37L36 35L38 35L38 34L37 34L37 33L36 33L36 31L37 31L37 32L38 32L38 31L37 31L37 30L36 30L36 28L37 28L37 26L36 26L36 24L37 24L37 25L38 25L38 26L39 26L39 25L38 25L38 22L39 22L39 23L41 23L41 22L40 22L40 19L41 19L41 18L40 18L40 15L41 15L41 17L42 17L42 18L43 18L43 17L44 17L44 19L42 19L42 20L43 20L43 21L42 21L42 22L43 22L43 21L44 21L44 22L45 22L45 21L46 21L46 20L47 20L47 21L48 21L48 19L49 19L49 16L50 16L50 15L49 15L49 16L48 16L48 19L47 19L47 16L46 16L46 17L44 17L44 16L45 16L45 13L44 13L44 12L42 12L42 11L41 11L41 12L42 12L42 15L41 15L41 13L40 13L40 15L39 15L39 12L37 12L37 11L36 11L36 12L35 12L35 11ZM36 12L36 13L35 13L35 14L36 14L36 18L35 18L35 20L36 20L36 21L35 21L35 22L34 22L34 24L33 24L33 22L31 22L31 23L30 23L30 25L31 25L31 23L32 23L32 25L33 25L33 26L34 26L34 24L36 24L36 23L37 23L37 22L38 22L38 21L39 21L39 19L40 19L40 18L38 18L38 16L37 16L37 15L38 15L38 13L37 13L37 12ZM3 13L3 14L5 14L5 13ZM43 13L43 16L44 16L44 13ZM15 14L15 15L17 15L17 14ZM34 15L34 17L35 17L35 15ZM54 15L54 16L55 16L55 15ZM32 16L32 17L33 17L33 16ZM5 17L5 18L7 18L7 19L6 19L6 20L8 20L8 21L9 21L9 19L11 19L11 20L12 20L12 18L11 18L11 17L10 17L10 18L9 18L9 19L8 19L8 18L7 18L7 17ZM18 17L18 18L19 18L19 17ZM20 17L20 18L21 18L21 17ZM36 18L36 19L37 19L37 21L36 21L36 22L35 22L35 23L36 23L36 22L37 22L37 21L38 21L38 19L37 19L37 18ZM44 19L44 21L45 21L45 20L46 20L46 19ZM53 19L53 20L52 20L52 22L51 22L51 24L52 24L52 25L53 25L53 24L54 24L54 25L55 25L55 24L54 24L54 23L55 23L55 21L54 21L54 19ZM10 21L10 22L11 22L11 21ZM53 21L53 22L52 22L52 24L53 24L53 23L54 23L54 21ZM6 22L6 23L7 23L7 22ZM24 22L24 23L25 23L25 22ZM18 23L18 25L19 25L19 23ZM3 24L3 25L1 25L1 28L2 28L2 27L3 27L3 28L4 28L4 24ZM24 25L24 26L25 26L25 25ZM44 25L44 26L45 26L45 25ZM46 25L46 26L47 26L47 25ZM5 27L5 30L8 30L8 27ZM10 27L10 28L11 28L11 27ZM15 27L15 28L16 28L16 27ZM22 27L22 28L23 28L23 29L22 29L22 30L21 30L21 29L20 29L20 31L21 31L21 33L20 33L20 36L21 36L21 37L22 37L22 39L23 39L23 40L24 40L24 43L23 43L23 44L25 44L25 42L26 42L26 41L25 41L25 40L30 40L30 36L31 36L31 37L32 37L32 36L31 36L31 35L28 35L28 34L29 34L29 31L27 31L27 32L26 32L26 30L25 30L25 29L24 29L24 27ZM27 27L27 30L30 30L30 27ZM34 27L34 29L33 29L33 28L32 28L32 30L33 30L33 32L32 32L32 34L33 34L33 35L34 35L34 36L35 36L35 35L36 35L36 33L35 33L35 32L34 32L34 29L35 29L35 28L36 28L36 27ZM49 27L49 30L52 30L52 27ZM6 28L6 29L7 29L7 28ZM28 28L28 29L29 29L29 28ZM50 28L50 29L51 29L51 28ZM2 29L2 30L3 30L3 29ZM23 29L23 30L22 30L22 33L23 33L23 35L22 35L22 34L21 34L21 35L22 35L22 37L23 37L23 35L25 35L25 36L24 36L24 37L26 37L26 38L27 38L27 36L28 36L28 37L29 37L29 36L28 36L28 35L26 35L26 34L24 34L24 31L23 31L23 30L24 30L24 29ZM35 30L35 31L36 31L36 30ZM13 31L13 32L14 32L14 31ZM4 32L4 33L5 33L5 32ZM6 32L6 33L7 33L7 34L8 34L8 33L7 33L7 32ZM25 32L25 33L26 33L26 32ZM16 33L16 35L17 35L17 36L18 36L18 34L17 34L17 33ZM27 33L27 34L28 34L28 33ZM34 33L34 34L35 34L35 33ZM50 33L50 36L51 36L51 33ZM46 34L46 35L47 35L47 37L48 37L48 38L50 38L50 39L48 39L48 40L47 40L47 41L48 41L48 40L51 40L51 41L49 41L49 42L48 42L48 44L49 44L49 42L50 42L50 45L51 45L51 44L52 44L52 40L51 40L51 38L52 38L52 37L53 37L53 36L54 36L54 37L55 37L55 36L54 36L54 34L53 34L53 36L52 36L52 37L51 37L51 38L50 38L50 37L48 37L48 36L49 36L49 35L48 35L48 34ZM12 35L12 37L11 37L11 38L13 38L13 35ZM6 36L6 37L8 37L8 36ZM35 37L35 38L36 38L36 37ZM9 38L9 39L8 39L8 40L9 40L9 39L10 39L10 38ZM17 38L17 39L18 39L18 40L17 40L17 41L16 41L16 43L17 43L17 41L18 41L18 40L19 40L19 41L20 41L20 40L19 40L19 39L18 39L18 38ZM20 38L20 39L21 39L21 38ZM24 38L24 39L25 39L25 38ZM28 38L28 39L29 39L29 38ZM34 39L34 41L35 41L35 39ZM37 39L37 41L38 41L38 39ZM13 41L13 42L15 42L15 41ZM45 41L45 42L44 42L44 43L43 43L43 42L42 42L42 43L43 43L43 44L42 44L42 45L41 45L41 47L40 47L40 49L41 49L41 51L42 51L42 53L43 53L43 52L44 52L44 55L45 55L45 54L46 54L46 55L47 55L47 54L46 54L46 53L45 53L45 50L46 50L46 49L45 49L45 47L46 47L46 44L47 44L47 42L46 42L46 41ZM30 42L30 43L31 43L31 42ZM45 42L45 43L44 43L44 44L43 44L43 45L42 45L42 47L41 47L41 49L42 49L42 50L43 50L43 51L44 51L44 50L43 50L43 49L44 49L44 46L43 46L43 45L44 45L44 44L45 44L45 43L46 43L46 42ZM11 44L11 45L10 45L10 46L11 46L11 45L12 45L12 44ZM18 45L18 46L19 46L19 45ZM36 45L36 46L37 46L37 45ZM39 45L39 46L40 46L40 45ZM1 46L1 47L2 47L2 46ZM32 47L32 48L33 48L33 47ZM54 47L54 48L55 48L55 47ZM15 48L15 50L14 50L14 51L13 51L13 53L14 53L14 51L15 51L15 50L16 50L16 48ZM27 49L27 52L30 52L30 49ZM49 49L49 52L52 52L52 49ZM28 50L28 51L29 51L29 50ZM50 50L50 51L51 51L51 50ZM56 50L56 53L57 53L57 50ZM17 51L17 53L18 53L18 52L19 52L19 51ZM47 51L47 52L48 52L48 51ZM39 52L39 53L40 53L40 52ZM16 54L16 55L17 55L17 54ZM20 54L20 55L21 55L21 54ZM24 54L24 55L25 55L25 54ZM10 55L10 56L11 56L11 55ZM18 56L18 57L19 57L19 56ZM36 56L36 57L37 57L37 56ZM51 56L51 57L53 57L53 56ZM56 56L56 57L57 57L57 56ZM0 0L0 7L7 7L7 0ZM1 1L1 6L6 6L6 1ZM2 2L2 5L5 5L5 2ZM50 0L50 7L57 7L57 0ZM51 1L51 6L56 6L56 1ZM52 2L52 5L55 5L55 2ZM0 50L0 57L7 57L7 50ZM1 51L1 56L6 56L6 51ZM2 52L2 55L5 55L5 52Z" fill="#000000"/></g></g></svg>
