<?xml version="1.0" encoding="UTF-8"?>
<svg xmlns="http://www.w3.org/2000/svg" version="1.1" width="300" height="300" viewBox="0 0 300 300"><rect x="0" y="0" width="300" height="300" fill="#fefefe"/><g transform="scale(4.615)"><g transform="translate(4,4)"><path fill-rule="evenodd" d="M9 0L9 1L8 1L8 2L9 2L9 3L8 3L8 4L9 4L9 5L8 5L8 7L9 7L9 6L10 6L10 7L11 7L11 8L6 8L6 9L7 9L7 10L6 10L6 11L5 11L5 13L4 13L4 12L3 12L3 11L4 11L4 10L5 10L5 8L0 8L0 11L1 11L1 12L0 12L0 16L1 16L1 17L0 17L0 19L2 19L2 20L0 20L0 24L1 24L1 26L4 26L4 28L3 28L3 27L1 27L1 28L0 28L0 29L2 29L2 30L4 30L4 31L2 31L2 32L1 32L1 31L0 31L0 33L2 33L2 34L3 34L3 35L2 35L2 36L1 36L1 34L0 34L0 37L1 37L1 38L3 38L3 39L2 39L2 40L3 40L3 39L5 39L5 38L6 38L6 39L7 39L7 38L8 38L8 35L9 35L9 37L10 37L10 39L9 39L9 40L5 40L5 42L3 42L3 41L2 41L2 42L3 42L3 43L4 43L4 44L2 44L2 43L1 43L1 42L0 42L0 43L1 43L1 45L2 45L2 47L1 47L1 46L0 46L0 48L5 48L5 47L7 47L7 46L8 46L8 45L9 45L9 46L10 46L10 49L8 49L8 51L9 51L9 52L8 52L8 57L10 57L10 56L11 56L11 55L12 55L12 56L13 56L13 57L14 57L14 56L13 56L13 54L14 54L14 53L16 53L16 54L15 54L15 55L16 55L16 56L17 56L17 57L20 57L20 56L19 56L19 55L20 55L20 54L19 54L19 53L20 53L20 52L21 52L21 50L25 50L25 51L26 51L26 52L24 52L24 53L21 53L21 54L22 54L22 56L24 56L24 57L26 57L26 56L27 56L27 57L29 57L29 56L30 56L30 57L31 57L31 56L35 56L35 57L39 57L39 56L40 56L40 55L44 55L44 56L43 56L43 57L44 57L44 56L45 56L45 57L46 57L46 56L45 56L45 55L44 55L44 54L45 54L45 53L47 53L47 55L48 55L48 56L47 56L47 57L48 57L48 56L50 56L50 57L52 57L52 55L51 55L51 53L52 53L52 54L53 54L53 57L54 57L54 56L55 56L55 57L56 57L56 56L55 56L55 53L56 53L56 52L57 52L57 51L56 51L56 50L55 50L55 49L53 49L53 48L56 48L56 49L57 49L57 48L56 48L56 46L57 46L57 44L56 44L56 42L55 42L55 39L57 39L57 36L56 36L56 37L55 37L55 35L56 35L56 34L55 34L55 33L54 33L54 32L56 32L56 33L57 33L57 32L56 32L56 30L57 30L57 29L56 29L56 26L57 26L57 25L56 25L56 22L57 22L57 21L56 21L56 22L53 22L53 21L51 21L51 20L52 20L52 19L53 19L53 20L55 20L55 19L56 19L56 20L57 20L57 19L56 19L56 18L57 18L57 17L56 17L56 16L57 16L57 15L56 15L56 14L57 14L57 12L56 12L56 8L55 8L55 10L54 10L54 11L50 11L50 8L49 8L49 6L48 6L48 7L47 7L47 5L48 5L48 0L45 0L45 2L44 2L44 3L42 3L42 2L43 2L43 0L41 0L41 1L40 1L40 0L39 0L39 1L38 1L38 0L37 0L37 1L38 1L38 3L36 3L36 0L35 0L35 1L33 1L33 0L29 0L29 1L28 1L28 0L27 0L27 1L26 1L26 0L23 0L23 1L22 1L22 0L21 0L21 1L20 1L20 2L21 2L21 3L22 3L22 2L25 2L25 1L26 1L26 2L27 2L27 1L28 1L28 3L27 3L27 4L26 4L26 3L23 3L23 4L19 4L19 2L18 2L18 0L17 0L17 2L16 2L16 3L17 3L17 4L18 4L18 5L17 5L17 6L16 6L16 7L15 7L15 5L16 5L16 4L15 4L15 5L14 5L14 8L13 8L13 5L12 5L12 7L11 7L11 6L10 6L10 5L11 5L11 4L10 4L10 0ZM11 0L11 2L13 2L13 4L14 4L14 2L15 2L15 1L14 1L14 0ZM13 1L13 2L14 2L14 1ZM29 1L29 3L28 3L28 4L31 4L31 8L32 8L32 10L31 10L31 11L30 11L30 10L28 10L28 9L27 9L27 11L26 11L26 12L25 12L25 11L23 11L23 13L22 13L22 12L21 12L21 11L22 11L22 10L21 10L21 9L23 9L23 8L24 8L24 6L23 6L23 5L24 5L24 4L23 4L23 5L21 5L21 7L22 7L22 8L19 8L19 9L18 9L18 10L17 10L17 9L15 9L15 8L14 8L14 9L12 9L12 10L8 10L8 11L6 11L6 12L8 12L8 11L9 11L9 13L8 13L8 17L6 17L6 16L7 16L7 15L6 15L6 14L7 14L7 13L6 13L6 14L4 14L4 13L3 13L3 12L1 12L1 14L3 14L3 15L6 15L6 16L4 16L4 17L3 17L3 16L2 16L2 17L3 17L3 18L2 18L2 19L3 19L3 20L2 20L2 21L1 21L1 23L2 23L2 24L3 24L3 23L4 23L4 24L7 24L7 25L6 25L6 26L8 26L8 25L9 25L9 24L8 24L8 23L10 23L10 24L11 24L11 26L10 26L10 27L9 27L9 29L10 29L10 31L8 31L8 32L9 32L9 33L8 33L8 34L9 34L9 35L10 35L10 34L9 34L9 33L11 33L11 34L12 34L12 35L13 35L13 36L12 36L12 37L11 37L11 38L12 38L12 37L13 37L13 39L10 39L10 42L9 42L9 41L8 41L8 42L7 42L7 41L6 41L6 42L7 42L7 43L6 43L6 44L7 44L7 45L6 45L6 46L7 46L7 45L8 45L8 44L10 44L10 45L11 45L11 46L12 46L12 47L13 47L13 48L12 48L12 49L10 49L10 50L9 50L9 51L10 51L10 50L11 50L11 53L12 53L12 54L13 54L13 53L12 53L12 51L13 51L13 52L14 52L14 51L15 51L15 52L16 52L16 53L17 53L17 51L18 51L18 50L19 50L19 51L20 51L20 50L21 50L21 49L23 49L23 48L24 48L24 49L25 49L25 50L26 50L26 48L30 48L30 47L29 47L29 45L30 45L30 46L31 46L31 48L32 48L32 49L31 49L31 53L30 53L30 54L27 54L27 53L26 53L26 54L25 54L25 53L24 53L24 54L23 54L23 55L24 55L24 56L26 56L26 54L27 54L27 56L29 56L29 55L30 55L30 56L31 56L31 54L32 54L32 53L33 53L33 55L35 55L35 56L36 56L36 54L35 54L35 53L34 53L34 52L35 52L35 51L34 51L34 50L36 50L36 52L37 52L37 51L38 51L38 50L41 50L41 52L40 52L40 51L39 51L39 52L38 52L38 53L37 53L37 54L40 54L40 53L41 53L41 52L43 52L43 51L42 51L42 50L41 50L41 48L42 48L42 49L43 49L43 48L44 48L44 51L45 51L45 50L46 50L46 51L47 51L47 53L48 53L48 50L47 50L47 49L48 49L48 48L50 48L50 47L51 47L51 48L53 48L53 47L54 47L54 45L55 45L55 46L56 46L56 45L55 45L55 44L54 44L54 45L51 45L51 44L53 44L53 43L54 43L54 42L53 42L53 41L51 41L51 42L50 42L50 43L48 43L48 44L47 44L47 45L45 45L45 44L46 44L46 43L47 43L47 42L48 42L48 41L49 41L49 40L50 40L50 39L53 39L53 35L55 35L55 34L54 34L54 33L52 33L52 32L51 32L51 31L50 31L50 32L49 32L49 31L48 31L48 27L47 27L47 25L45 25L45 22L47 22L47 24L49 24L49 25L50 25L50 26L52 26L52 25L53 25L53 23L50 23L50 22L51 22L51 21L49 21L49 22L47 22L47 21L48 21L48 20L47 20L47 19L48 19L48 18L47 18L47 17L49 17L49 15L50 15L50 16L51 16L51 17L50 17L50 18L49 18L49 19L51 19L51 18L55 18L55 17L53 17L53 15L54 15L54 13L55 13L55 14L56 14L56 12L54 12L54 13L53 13L53 12L52 12L52 13L53 13L53 15L50 15L50 14L51 14L51 12L50 12L50 11L49 11L49 10L48 10L48 11L49 11L49 12L45 12L45 11L46 11L46 10L47 10L47 9L49 9L49 8L47 8L47 7L46 7L46 6L45 6L45 4L46 4L46 5L47 5L47 3L44 3L44 6L43 6L43 5L40 5L40 4L41 4L41 3L38 3L38 6L37 6L37 7L36 7L36 5L37 5L37 4L36 4L36 5L35 5L35 4L34 4L34 3L32 3L32 2L33 2L33 1L32 1L32 2L31 2L31 3L30 3L30 1ZM46 1L46 2L47 2L47 1ZM31 3L31 4L32 4L32 5L34 5L34 7L33 7L33 6L32 6L32 7L33 7L33 9L34 9L34 8L35 8L35 9L37 9L37 10L36 10L36 11L37 11L37 12L35 12L35 13L36 13L36 14L32 14L32 13L30 13L30 14L29 14L29 13L28 13L28 12L29 12L29 11L27 11L27 12L26 12L26 13L25 13L25 12L24 12L24 13L23 13L23 14L22 14L22 13L21 13L21 15L23 15L23 14L26 14L26 13L28 13L28 14L29 14L29 16L28 16L28 15L27 15L27 16L28 16L28 17L26 17L26 15L24 15L24 16L25 16L25 17L22 17L22 16L20 16L20 15L19 15L19 14L20 14L20 13L19 13L19 10L20 10L20 11L21 11L21 10L20 10L20 9L19 9L19 10L18 10L18 11L17 11L17 10L12 10L12 11L11 11L11 12L10 12L10 13L9 13L9 14L10 14L10 15L9 15L9 16L11 16L11 17L8 17L8 21L9 21L9 22L11 22L11 21L13 21L13 24L12 24L12 23L11 23L11 24L12 24L12 25L14 25L14 26L11 26L11 27L10 27L10 28L13 28L13 29L11 29L11 31L10 31L10 32L11 32L11 31L13 31L13 29L14 29L14 30L15 30L15 31L14 31L14 32L12 32L12 33L15 33L15 31L16 31L16 29L18 29L18 30L17 30L17 31L18 31L18 32L17 32L17 33L21 33L21 34L22 34L22 33L21 33L21 32L23 32L23 31L24 31L24 32L25 32L25 31L26 31L26 32L28 32L28 33L29 33L29 34L30 34L30 36L29 36L29 37L31 37L31 38L29 38L29 39L33 39L33 40L35 40L35 42L37 42L37 43L36 43L36 44L35 44L35 43L34 43L34 42L33 42L33 41L32 41L32 40L30 40L30 41L29 41L29 43L28 43L28 44L27 44L27 43L24 43L24 45L23 45L23 42L25 42L25 41L23 41L23 42L22 42L22 41L21 41L21 42L22 42L22 43L21 43L21 44L22 44L22 45L21 45L21 46L20 46L20 45L19 45L19 44L20 44L20 43L19 43L19 42L20 42L20 41L19 41L19 40L22 40L22 39L21 39L21 37L19 37L19 35L20 35L20 34L18 34L18 36L17 36L17 34L16 34L16 35L15 35L15 34L14 34L14 35L15 35L15 36L14 36L14 37L15 37L15 38L14 38L14 40L15 40L15 41L13 41L13 40L12 40L12 42L11 42L11 43L12 43L12 45L13 45L13 44L14 44L14 48L13 48L13 49L19 49L19 50L20 50L20 49L19 49L19 48L21 48L21 47L23 47L23 46L25 46L25 44L27 44L27 45L26 45L26 47L28 47L28 46L27 46L27 45L29 45L29 43L31 43L31 44L33 44L33 43L34 43L34 45L35 45L35 46L33 46L33 47L34 47L34 48L33 48L33 49L36 49L36 50L38 50L38 49L39 49L39 48L41 48L41 46L43 46L43 47L42 47L42 48L43 48L43 47L44 47L44 46L43 46L43 45L44 45L44 42L43 42L43 41L44 41L44 40L45 40L45 41L47 41L47 39L48 39L48 38L49 38L49 39L50 39L50 38L51 38L51 36L52 36L52 35L53 35L53 34L52 34L52 33L51 33L51 32L50 32L50 34L49 34L49 35L50 35L50 38L49 38L49 37L48 37L48 38L47 38L47 39L44 39L44 40L43 40L43 39L42 39L42 40L41 40L41 41L40 41L40 42L41 42L41 43L42 43L42 44L41 44L41 45L39 45L39 44L40 44L40 43L39 43L39 42L38 42L38 40L39 40L39 39L38 39L38 40L35 40L35 39L37 39L37 38L38 38L38 37L40 37L40 38L43 38L43 37L44 37L44 38L45 38L45 37L46 37L46 36L47 36L47 35L44 35L44 33L43 33L43 32L45 32L45 33L46 33L46 32L45 32L45 31L47 31L47 32L48 32L48 33L49 33L49 32L48 32L48 31L47 31L47 30L46 30L46 29L47 29L47 27L46 27L46 28L45 28L45 26L44 26L44 27L43 27L43 29L41 29L41 30L43 30L43 32L41 32L41 33L39 33L39 34L40 34L40 35L39 35L39 36L38 36L38 37L37 37L37 36L35 36L35 34L37 34L37 35L38 35L38 33L37 33L37 32L35 32L35 34L33 34L33 33L32 33L32 32L31 32L31 33L29 33L29 31L32 31L32 27L33 27L33 28L35 28L35 30L33 30L33 32L34 32L34 31L36 31L36 29L38 29L38 28L39 28L39 27L41 27L41 28L42 28L42 26L43 26L43 25L44 25L44 24L43 24L43 23L44 23L44 20L45 20L45 21L47 21L47 20L45 20L45 18L44 18L44 15L46 15L46 16L45 16L45 17L46 17L46 16L48 16L48 15L49 15L49 14L50 14L50 12L49 12L49 13L47 13L47 14L44 14L44 15L42 15L42 16L41 16L41 14L43 14L43 13L44 13L44 12L43 12L43 13L39 13L39 12L41 12L41 11L37 11L37 10L38 10L38 9L39 9L39 6L40 6L40 7L41 7L41 6L40 6L40 5L39 5L39 6L38 6L38 9L37 9L37 8L35 8L35 5L34 5L34 4L32 4L32 3ZM25 4L25 8L26 8L26 4ZM18 5L18 6L17 6L17 7L16 7L16 8L17 8L17 7L18 7L18 6L19 6L19 7L20 7L20 5ZM27 5L27 8L30 8L30 5ZM22 6L22 7L23 7L23 6ZM28 6L28 7L29 7L29 6ZM42 6L42 7L43 7L43 6ZM44 6L44 8L43 8L43 9L40 9L40 10L43 10L43 11L45 11L45 10L44 10L44 8L46 8L46 9L47 9L47 8L46 8L46 7L45 7L45 6ZM51 8L51 10L52 10L52 8ZM53 8L53 9L54 9L54 8ZM2 9L2 10L1 10L1 11L2 11L2 10L3 10L3 9ZM32 10L32 11L31 11L31 12L33 12L33 13L34 13L34 12L33 12L33 10ZM13 11L13 12L11 12L11 13L12 13L12 14L15 14L15 13L16 13L16 17L15 17L15 16L14 16L14 15L11 15L11 16L12 16L12 18L11 18L11 19L10 19L10 20L13 20L13 21L14 21L14 22L16 22L16 21L17 21L17 20L16 20L16 21L15 21L15 18L19 18L19 19L18 19L18 20L19 20L19 19L20 19L20 21L18 21L18 22L17 22L17 24L16 24L16 23L15 23L15 24L14 24L14 25L15 25L15 26L17 26L17 24L22 24L22 25L19 25L19 26L18 26L18 27L17 27L17 28L18 28L18 29L20 29L20 30L19 30L19 31L20 31L20 32L21 32L21 31L23 31L23 28L25 28L25 29L26 29L26 28L25 28L25 27L26 27L26 26L27 26L27 25L31 25L31 24L32 24L32 26L31 26L31 27L32 27L32 26L33 26L33 27L34 27L34 26L36 26L36 27L35 27L35 28L36 28L36 27L39 27L39 26L42 26L42 25L43 25L43 24L42 24L42 23L43 23L43 22L41 22L41 24L40 24L40 22L39 22L39 21L43 21L43 20L44 20L44 18L43 18L43 19L42 19L42 18L41 18L41 20L38 20L38 19L39 19L39 17L41 17L41 16L39 16L39 15L38 15L38 14L39 14L39 13L38 13L38 14L37 14L37 15L35 15L35 16L33 16L33 15L32 15L32 14L30 14L30 15L32 15L32 18L33 18L33 20L32 20L32 21L31 21L31 18L30 18L30 20L27 20L27 19L28 19L28 18L25 18L25 19L26 19L26 20L25 20L25 21L24 21L24 20L23 20L23 19L24 19L24 18L23 18L23 19L22 19L22 20L21 20L21 18L22 18L22 17L20 17L20 16L19 16L19 17L17 17L17 16L18 16L18 14L17 14L17 13L18 13L18 12L17 12L17 13L16 13L16 12L15 12L15 13L13 13L13 12L14 12L14 11ZM13 16L13 17L14 17L14 18L15 18L15 17L14 17L14 16ZM35 16L35 17L37 17L37 18L38 18L38 17L39 17L39 16L38 16L38 17L37 17L37 16ZM42 16L42 17L43 17L43 16ZM5 17L5 19L4 19L4 18L3 18L3 19L4 19L4 20L5 20L5 21L4 21L4 22L6 22L6 23L8 23L8 22L6 22L6 21L7 21L7 20L5 20L5 19L7 19L7 18L6 18L6 17ZM19 17L19 18L20 18L20 17ZM12 18L12 19L13 19L13 20L14 20L14 19L13 19L13 18ZM46 18L46 19L47 19L47 18ZM35 19L35 23L34 23L34 22L33 22L33 23L32 23L32 24L33 24L33 25L37 25L37 26L38 26L38 25L39 25L39 24L37 24L37 23L39 23L39 22L37 22L37 21L38 21L38 20L36 20L36 19ZM2 21L2 22L3 22L3 21ZM22 21L22 22L24 22L24 21ZM25 21L25 22L26 22L26 23L25 23L25 24L24 24L24 23L22 23L22 24L23 24L23 25L22 25L22 26L21 26L21 27L20 27L20 26L19 26L19 27L20 27L20 28L21 28L21 29L22 29L22 28L21 28L21 27L22 27L22 26L24 26L24 27L25 27L25 26L26 26L26 25L25 25L25 24L29 24L29 23L31 23L31 21L29 21L29 23L27 23L27 22L28 22L28 21ZM19 22L19 23L20 23L20 22ZM49 23L49 24L50 24L50 23ZM41 24L41 25L42 25L42 24ZM4 25L4 26L5 26L5 25ZM53 26L53 27L54 27L54 26ZM5 27L5 30L8 30L8 27ZM27 27L27 30L30 30L30 27ZM49 27L49 30L52 30L52 27ZM2 28L2 29L3 29L3 28ZM6 28L6 29L7 29L7 28ZM15 28L15 29L16 29L16 28ZM28 28L28 29L29 29L29 28ZM44 28L44 31L45 31L45 28ZM50 28L50 29L51 29L51 28ZM54 28L54 29L53 29L53 32L54 32L54 31L55 31L55 30L54 30L54 29L55 29L55 28ZM39 29L39 30L38 30L38 32L39 32L39 30L40 30L40 29ZM20 30L20 31L21 31L21 30ZM24 30L24 31L25 31L25 30ZM4 31L4 32L2 32L2 33L3 33L3 34L4 34L4 35L5 35L5 36L4 36L4 37L5 37L5 36L7 36L7 35L6 35L6 34L7 34L7 33L6 33L6 32L7 32L7 31L6 31L6 32L5 32L5 31ZM4 32L4 33L5 33L5 34L6 34L6 33L5 33L5 32ZM23 33L23 34L24 34L24 36L23 36L23 35L22 35L22 36L23 36L23 37L24 37L24 38L23 38L23 39L24 39L24 40L25 40L25 39L26 39L26 40L28 40L28 39L27 39L27 38L28 38L28 37L27 37L27 35L26 35L26 34L27 34L27 33L26 33L26 34L25 34L25 33ZM31 33L31 35L33 35L33 36L32 36L32 37L33 37L33 38L34 38L34 39L35 39L35 37L33 37L33 36L34 36L34 35L33 35L33 34L32 34L32 33ZM42 34L42 35L43 35L43 36L44 36L44 37L45 37L45 36L44 36L44 35L43 35L43 34ZM50 34L50 35L52 35L52 34ZM15 36L15 37L16 37L16 38L15 38L15 39L16 39L16 40L17 40L17 39L18 39L18 38L17 38L17 36ZM25 36L25 38L26 38L26 36ZM40 36L40 37L42 37L42 36ZM6 37L6 38L7 38L7 37ZM19 38L19 39L20 39L20 38ZM54 38L54 39L55 39L55 38ZM0 40L0 41L1 41L1 40ZM15 41L15 42L13 42L13 43L14 43L14 44L15 44L15 47L16 47L16 48L19 48L19 47L20 47L20 46L17 46L17 45L18 45L18 44L15 44L15 42L17 42L17 43L18 43L18 42L19 42L19 41L18 41L18 42L17 42L17 41ZM26 41L26 42L27 42L27 41ZM31 41L31 42L32 42L32 43L33 43L33 42L32 42L32 41ZM45 42L45 43L46 43L46 42ZM51 42L51 43L50 43L50 44L49 44L49 45L47 45L47 46L45 46L45 47L47 47L47 48L48 48L48 47L50 47L50 46L51 46L51 47L52 47L52 46L51 46L51 45L50 45L50 44L51 44L51 43L53 43L53 42ZM22 45L22 46L23 46L23 45ZM31 45L31 46L32 46L32 45ZM36 45L36 46L35 46L35 48L36 48L36 46L37 46L37 45ZM38 45L38 46L39 46L39 45ZM49 45L49 46L50 46L50 45ZM3 46L3 47L5 47L5 46ZM8 47L8 48L9 48L9 47ZM38 47L38 48L37 48L37 49L38 49L38 48L39 48L39 47ZM6 48L6 49L7 49L7 48ZM45 48L45 49L46 49L46 48ZM27 49L27 52L30 52L30 49ZM49 49L49 52L52 52L52 49ZM15 50L15 51L16 51L16 50ZM28 50L28 51L29 51L29 50ZM50 50L50 51L51 51L51 50ZM54 50L54 51L55 51L55 50ZM22 51L22 52L23 52L23 51ZM32 51L32 52L33 52L33 51ZM9 52L9 53L10 53L10 52ZM44 52L44 53L43 53L43 54L44 54L44 53L45 53L45 52ZM53 52L53 54L54 54L54 52ZM9 54L9 55L10 55L10 54ZM17 54L17 55L19 55L19 54ZM37 55L37 56L39 56L39 55ZM50 55L50 56L51 56L51 55ZM0 0L0 7L7 7L7 0ZM1 1L1 6L6 6L6 1ZM2 2L2 5L5 5L5 2ZM50 0L50 7L57 7L57 0ZM51 1L51 6L56 6L56 1ZM52 2L52 5L55 5L55 2ZM0 50L0 57L7 57L7 50ZM1 51L1 56L6 56L6 51ZM2 52L2 55L5 55L5 52Z" fill="#000000"/></g></g></svg>
