<?xml version="1.0" encoding="UTF-8"?>
<svg xmlns="http://www.w3.org/2000/svg" version="1.1" width="300" height="300" viewBox="0 0 300 300"><rect x="0" y="0" width="300" height="300" fill="#fefefe"/><g transform="scale(4.615)"><g transform="translate(4,4)"><path fill-rule="evenodd" d="M9 0L9 1L8 1L8 2L9 2L9 1L10 1L10 2L11 2L11 3L12 3L12 2L13 2L13 4L12 4L12 5L11 5L11 4L10 4L10 3L8 3L8 4L10 4L10 7L9 7L9 5L8 5L8 7L9 7L9 8L6 8L6 9L7 9L7 10L6 10L6 11L5 11L5 12L4 12L4 10L5 10L5 8L0 8L0 9L1 9L1 10L0 10L0 12L1 12L1 13L0 13L0 14L1 14L1 13L2 13L2 12L1 12L1 11L2 11L2 10L3 10L3 13L4 13L4 15L7 15L7 14L10 14L10 13L11 13L11 15L10 15L10 17L9 17L9 16L8 16L8 17L9 17L9 18L4 18L4 16L3 16L3 14L2 14L2 15L0 15L0 17L1 17L1 18L2 18L2 20L1 20L1 19L0 19L0 20L1 20L1 21L2 21L2 22L0 22L0 30L1 30L1 29L2 29L2 28L1 28L1 27L2 27L2 25L1 25L1 23L2 23L2 22L3 22L3 23L4 23L4 24L3 24L3 26L4 26L4 27L3 27L3 28L4 28L4 30L3 30L3 31L2 31L2 32L1 32L1 33L2 33L2 34L1 34L1 36L0 36L0 39L1 39L1 40L0 40L0 41L2 41L2 42L0 42L0 45L1 45L1 46L0 46L0 48L5 48L5 47L7 47L7 48L6 48L6 49L8 49L8 51L9 51L9 52L8 52L8 57L10 57L10 56L11 56L11 55L9 55L9 53L11 53L11 54L12 54L12 55L13 55L13 56L12 56L12 57L13 57L13 56L14 56L14 57L16 57L16 56L17 56L17 57L19 57L19 56L18 56L18 55L20 55L20 54L17 54L17 53L20 53L20 52L21 52L21 53L22 53L22 56L23 56L23 57L26 57L26 56L24 56L24 55L23 55L23 54L24 54L24 53L26 53L26 54L25 54L25 55L26 55L26 54L30 54L30 53L31 53L31 51L32 51L32 52L33 52L33 53L32 53L32 54L31 54L31 56L30 56L30 55L29 55L29 56L27 56L27 57L29 57L29 56L30 56L30 57L31 57L31 56L35 56L35 57L39 57L39 56L37 56L37 54L38 54L38 55L40 55L40 56L42 56L42 55L44 55L44 54L45 54L45 55L46 55L46 54L45 54L45 53L44 53L44 52L45 52L45 51L43 51L43 49L44 49L44 48L43 48L43 47L44 47L44 46L43 46L43 45L44 45L44 44L43 44L43 43L45 43L45 41L44 41L44 40L45 40L45 39L46 39L46 41L47 41L47 39L48 39L48 37L49 37L49 41L48 41L48 42L47 42L47 43L46 43L46 44L45 44L45 45L47 45L47 44L48 44L48 43L50 43L50 44L49 44L49 45L48 45L48 46L45 46L45 48L48 48L48 49L47 49L47 50L46 50L46 49L45 49L45 50L46 50L46 52L47 52L47 50L48 50L48 54L47 54L47 55L49 55L49 56L50 56L50 57L52 57L52 55L51 55L51 53L52 53L52 54L53 54L53 57L54 57L54 56L55 56L55 57L56 57L56 56L55 56L55 55L54 55L54 54L53 54L53 52L54 52L54 53L57 53L57 51L56 51L56 50L55 50L55 48L56 48L56 49L57 49L57 48L56 48L56 46L57 46L57 44L56 44L56 42L55 42L55 41L53 41L53 40L55 40L55 39L57 39L57 37L56 37L56 36L57 36L57 35L56 35L56 34L55 34L55 32L56 32L56 33L57 33L57 32L56 32L56 30L57 30L57 29L56 29L56 26L57 26L57 25L56 25L56 22L57 22L57 19L56 19L56 22L54 22L54 21L51 21L51 20L52 20L52 19L53 19L53 20L55 20L55 18L57 18L57 17L56 17L56 16L57 16L57 15L56 15L56 14L57 14L57 12L56 12L56 10L54 10L54 11L52 11L52 10L53 10L53 9L54 9L54 8L53 8L53 9L52 9L52 8L51 8L51 10L49 10L49 9L50 9L50 8L49 8L49 9L48 9L48 7L49 7L49 6L48 6L48 7L47 7L47 5L48 5L48 0L45 0L45 1L47 1L47 2L44 2L44 3L42 3L42 2L43 2L43 0L41 0L41 1L40 1L40 0L39 0L39 1L38 1L38 0L37 0L37 1L38 1L38 3L41 3L41 4L40 4L40 5L39 5L39 6L38 6L38 9L37 9L37 8L35 8L35 5L36 5L36 7L37 7L37 5L38 5L38 4L37 4L37 3L36 3L36 0L35 0L35 1L33 1L33 2L32 2L32 3L31 3L31 2L30 2L30 1L31 1L31 0L30 0L30 1L25 1L25 0L23 0L23 2L21 2L21 3L23 3L23 4L24 4L24 5L21 5L21 4L19 4L19 3L20 3L20 0L19 0L19 1L18 1L18 2L17 2L17 1L16 1L16 3L17 3L17 4L19 4L19 5L20 5L20 7L19 7L19 6L18 6L18 7L19 7L19 8L16 8L16 7L17 7L17 6L16 6L16 7L15 7L15 6L14 6L14 5L13 5L13 4L14 4L14 2L15 2L15 1L14 1L14 2L13 2L13 0L12 0L12 2L11 2L11 0ZM21 0L21 1L22 1L22 0ZM18 2L18 3L19 3L19 2ZM23 2L23 3L26 3L26 4L25 4L25 8L24 8L24 6L23 6L23 8L20 8L20 10L19 10L19 13L20 13L20 14L17 14L17 13L18 13L18 12L17 12L17 11L18 11L18 10L17 10L17 9L16 9L16 8L14 8L14 10L15 10L15 13L13 13L13 12L14 12L14 11L13 11L13 12L12 12L12 10L13 10L13 9L10 9L10 8L13 8L13 7L14 7L14 6L13 6L13 5L12 5L12 6L11 6L11 7L10 7L10 8L9 8L9 9L8 9L8 11L9 11L9 10L11 10L11 13L13 13L13 15L11 15L11 16L12 16L12 17L10 17L10 18L9 18L9 21L11 21L11 22L12 22L12 21L11 21L11 20L12 20L12 19L14 19L14 20L13 20L13 21L14 21L14 22L13 22L13 23L10 23L10 22L9 22L9 24L8 24L8 23L6 23L6 24L8 24L8 25L9 25L9 27L10 27L10 28L9 28L9 30L10 30L10 31L9 31L9 34L8 34L8 36L7 36L7 35L6 35L6 36L7 36L7 37L5 37L5 36L4 36L4 37L5 37L5 38L3 38L3 39L4 39L4 41L5 41L5 44L3 44L3 43L4 43L4 42L3 42L3 43L2 43L2 44L3 44L3 45L2 45L2 46L1 46L1 47L2 47L2 46L3 46L3 47L5 47L5 46L7 46L7 47L11 47L11 48L8 48L8 49L9 49L9 50L10 50L10 52L11 52L11 53L13 53L13 55L14 55L14 56L16 56L16 55L15 55L15 54L16 54L16 53L17 53L17 52L18 52L18 51L23 51L23 52L22 52L22 53L24 53L24 52L26 52L26 51L25 51L25 50L21 50L21 49L23 49L23 48L24 48L24 49L25 49L25 48L27 48L27 47L28 47L28 48L29 48L29 47L28 47L28 46L29 46L29 45L30 45L30 46L31 46L31 47L33 47L33 48L31 48L31 50L32 50L32 51L33 51L33 52L34 52L34 53L33 53L33 55L35 55L35 56L36 56L36 54L35 54L35 51L34 51L34 50L36 50L36 52L37 52L37 53L38 53L38 54L40 54L40 53L41 53L41 52L43 52L43 51L42 51L42 50L41 50L41 48L42 48L42 49L43 49L43 48L42 48L42 47L43 47L43 46L41 46L41 44L42 44L42 42L41 42L41 43L39 43L39 45L38 45L38 46L39 46L39 47L38 47L38 48L37 48L37 49L38 49L38 50L36 50L36 49L34 49L34 48L36 48L36 47L37 47L37 46L36 46L36 47L33 47L33 46L35 46L35 45L34 45L34 43L35 43L35 44L36 44L36 43L37 43L37 42L35 42L35 40L38 40L38 42L39 42L39 41L41 41L41 40L42 40L42 41L43 41L43 42L44 42L44 41L43 41L43 40L44 40L44 39L45 39L45 38L46 38L46 39L47 39L47 37L48 37L48 36L50 36L50 39L51 39L51 38L52 38L52 39L55 39L55 37L53 37L53 35L55 35L55 34L54 34L54 32L53 32L53 33L52 33L52 31L50 31L50 32L49 32L49 31L48 31L48 28L47 28L47 29L46 29L46 30L47 30L47 31L48 31L48 32L43 32L43 30L40 30L40 29L44 29L44 31L45 31L45 28L46 28L46 27L47 27L47 24L51 24L51 25L50 25L50 26L51 26L51 25L52 25L52 26L53 26L53 27L54 27L54 26L53 26L53 24L51 24L51 23L50 23L50 22L51 22L51 21L49 21L49 18L47 18L47 17L46 17L46 16L47 16L47 15L45 15L45 14L47 14L47 13L49 13L49 12L50 12L50 14L49 14L49 15L48 15L48 16L49 16L49 17L50 17L50 19L52 19L52 18L55 18L55 17L54 17L54 16L52 16L52 15L51 15L51 17L50 17L50 14L51 14L51 12L50 12L50 11L49 11L49 12L45 12L45 11L46 11L46 10L47 10L47 7L46 7L46 5L47 5L47 3L44 3L44 6L43 6L43 5L40 5L40 6L39 6L39 9L38 9L38 10L37 10L37 9L35 9L35 8L34 8L34 9L33 9L33 7L34 7L34 5L35 5L35 2L34 2L34 3L32 3L32 4L31 4L31 8L32 8L32 10L31 10L31 11L30 11L30 10L29 10L29 9L28 9L28 10L27 10L27 11L26 11L26 12L25 12L25 11L23 11L23 13L22 13L22 12L21 12L21 13L20 13L20 11L22 11L22 10L21 10L21 9L25 9L25 8L26 8L26 4L30 4L30 3L27 3L27 2ZM15 4L15 5L16 5L16 4ZM32 4L32 5L34 5L34 4ZM36 4L36 5L37 5L37 4ZM45 4L45 5L46 5L46 4ZM27 5L27 8L30 8L30 5ZM12 6L12 7L13 7L13 6ZM21 6L21 7L22 7L22 6ZM28 6L28 7L29 7L29 6ZM32 6L32 7L33 7L33 6ZM40 6L40 7L41 7L41 6ZM42 6L42 7L43 7L43 9L41 9L41 10L39 10L39 11L37 11L37 10L36 10L36 11L35 11L35 14L33 14L33 13L34 13L34 12L33 12L33 13L32 13L32 12L31 12L31 13L30 13L30 14L29 14L29 13L28 13L28 12L29 12L29 10L28 10L28 11L27 11L27 12L26 12L26 13L25 13L25 12L24 12L24 13L23 13L23 14L22 14L22 13L21 13L21 15L23 15L23 14L25 14L25 15L24 15L24 16L25 16L25 17L22 17L22 16L21 16L21 17L22 17L22 18L21 18L21 20L24 20L24 21L23 21L23 22L21 22L21 23L22 23L22 24L23 24L23 25L22 25L22 26L20 26L20 25L21 25L21 24L20 24L20 25L19 25L19 24L18 24L18 23L20 23L20 22L19 22L19 21L20 21L20 20L19 20L19 19L20 19L20 16L18 16L18 15L17 15L17 17L19 17L19 19L18 19L18 18L17 18L17 19L16 19L16 18L15 18L15 17L16 17L16 13L17 13L17 12L16 12L16 13L15 13L15 14L14 14L14 15L13 15L13 17L12 17L12 18L13 18L13 17L14 17L14 18L15 18L15 19L16 19L16 20L15 20L15 21L16 21L16 22L14 22L14 23L13 23L13 24L9 24L9 25L10 25L10 27L11 27L11 28L12 28L12 27L11 27L11 26L12 26L12 25L13 25L13 28L14 28L14 29L10 29L10 30L11 30L11 31L10 31L10 32L11 32L11 33L10 33L10 34L9 34L9 35L10 35L10 36L8 36L8 37L7 37L7 38L6 38L6 39L7 39L7 40L5 40L5 41L8 41L8 40L9 40L9 39L8 39L8 38L9 38L9 37L10 37L10 39L11 39L11 40L12 40L12 42L11 42L11 41L10 41L10 43L8 43L8 42L6 42L6 43L8 43L8 44L6 44L6 45L7 45L7 46L11 46L11 45L12 45L12 48L11 48L11 49L10 49L10 50L12 50L12 51L13 51L13 52L14 52L14 53L16 53L16 52L15 52L15 51L16 51L16 50L15 50L15 49L14 49L14 50L13 50L13 49L12 49L12 48L14 48L14 47L16 47L16 46L15 46L15 43L16 43L16 45L17 45L17 50L20 50L20 48L19 48L19 46L20 46L20 47L23 47L23 46L22 46L22 45L24 45L24 47L25 47L25 45L24 45L24 44L23 44L23 43L25 43L25 44L27 44L27 45L26 45L26 47L27 47L27 45L28 45L28 44L30 44L30 45L32 45L32 46L33 46L33 45L32 45L32 44L33 44L33 43L34 43L34 42L33 42L33 41L32 41L32 40L30 40L30 41L29 41L29 40L28 40L28 39L27 39L27 38L28 38L28 37L27 37L27 38L26 38L26 40L27 40L27 41L26 41L26 42L27 42L27 41L29 41L29 43L25 43L25 41L24 41L24 40L25 40L25 37L26 37L26 35L27 35L27 33L26 33L26 32L27 32L27 31L29 31L29 32L28 32L28 33L29 33L29 34L30 34L30 36L29 36L29 37L31 37L31 38L29 38L29 39L33 39L33 40L35 40L35 39L37 39L37 38L38 38L38 36L39 36L39 37L40 37L40 38L43 38L43 37L44 37L44 38L45 38L45 37L44 37L44 36L45 36L45 35L44 35L44 33L43 33L43 32L41 32L41 33L39 33L39 34L40 34L40 35L38 35L38 33L37 33L37 32L35 32L35 34L37 34L37 36L35 36L35 35L32 35L32 34L31 34L31 33L32 33L32 31L36 31L36 30L37 30L37 29L38 29L38 28L39 28L39 27L41 27L41 28L42 28L42 26L44 26L44 27L43 27L43 28L45 28L45 27L46 27L46 26L44 26L44 20L45 20L45 21L47 21L47 22L45 22L45 25L46 25L46 24L47 24L47 22L49 22L49 21L47 21L47 18L46 18L46 19L45 19L45 18L44 18L44 14L43 14L43 13L44 13L44 12L43 12L43 13L39 13L39 12L41 12L41 10L42 10L42 11L43 11L43 10L44 10L44 11L45 11L45 10L44 10L44 8L46 8L46 7L45 7L45 6L44 6L44 7L43 7L43 6ZM55 8L55 9L56 9L56 8ZM32 10L32 11L33 11L33 10ZM6 11L6 12L5 12L5 13L6 13L6 14L7 14L7 13L6 13L6 12L7 12L7 11ZM9 12L9 13L10 13L10 12ZM52 12L52 13L53 13L53 14L54 14L54 15L55 15L55 14L56 14L56 12L54 12L54 13L53 13L53 12ZM27 13L27 14L26 14L26 21L29 21L29 20L30 20L30 19L31 19L31 18L30 18L30 19L28 19L28 18L27 18L27 17L28 17L28 16L29 16L29 14L28 14L28 13ZM38 13L38 14L36 14L36 15L35 15L35 16L31 16L31 17L32 17L32 19L33 19L33 18L35 18L35 19L34 19L34 20L32 20L32 21L31 21L31 22L30 22L30 23L31 23L31 24L32 24L32 26L31 26L31 28L32 28L32 29L31 29L31 31L30 31L30 32L29 32L29 33L31 33L31 31L32 31L32 29L33 29L33 30L35 30L35 28L37 28L37 27L39 27L39 25L41 25L41 26L42 26L42 25L41 25L41 24L43 24L43 23L41 23L41 24L39 24L39 23L40 23L40 22L39 22L39 21L41 21L41 20L39 20L39 21L38 21L38 20L37 20L37 19L39 19L39 17L41 17L41 16L42 16L42 17L43 17L43 16L42 16L42 15L43 15L43 14L41 14L41 16L39 16L39 15L38 15L38 14L39 14L39 13ZM54 13L54 14L55 14L55 13ZM30 14L30 15L31 15L31 14ZM14 15L14 17L15 17L15 15ZM27 15L27 16L28 16L28 15ZM6 16L6 17L7 17L7 16ZM35 16L35 17L37 17L37 18L38 18L38 17L39 17L39 16L38 16L38 17L37 17L37 16ZM3 18L3 22L8 22L8 21L4 21L4 18ZM22 18L22 19L24 19L24 18ZM41 18L41 19L42 19L42 20L44 20L44 18L43 18L43 19L42 19L42 18ZM5 19L5 20L7 20L7 19ZM17 19L17 20L16 20L16 21L17 21L17 22L18 22L18 21L17 21L17 20L18 20L18 19ZM35 19L35 20L34 20L34 21L35 21L35 23L32 23L32 24L33 24L33 25L37 25L37 26L38 26L38 25L39 25L39 24L37 24L37 22L38 22L38 23L39 23L39 22L38 22L38 21L37 21L37 20L36 20L36 19ZM24 21L24 22L23 22L23 23L24 23L24 24L25 24L25 25L26 25L26 26L24 26L24 27L23 27L23 26L22 26L22 27L21 27L21 28L22 28L22 29L20 29L20 30L18 30L18 29L19 29L19 28L20 28L20 26L18 26L18 27L17 27L17 28L18 28L18 29L16 29L16 28L15 28L15 29L14 29L14 30L15 30L15 29L16 29L16 30L17 30L17 33L14 33L14 34L13 34L13 35L11 35L11 36L10 36L10 37L13 37L13 35L14 35L14 34L15 34L15 37L14 37L14 38L13 38L13 40L14 40L14 41L13 41L13 42L14 42L14 41L15 41L15 42L17 42L17 43L18 43L18 42L19 42L19 41L20 41L20 42L21 42L21 43L20 43L20 44L19 44L19 45L20 45L20 46L21 46L21 45L22 45L22 44L21 44L21 43L22 43L22 42L24 42L24 41L23 41L23 40L24 40L24 39L23 39L23 40L19 40L19 41L18 41L18 42L17 42L17 41L15 41L15 40L14 40L14 38L15 38L15 39L16 39L16 40L17 40L17 39L20 39L20 38L18 38L18 37L17 37L17 36L19 36L19 37L21 37L21 38L24 38L24 37L23 37L23 36L24 36L24 34L23 34L23 33L25 33L25 35L26 35L26 33L25 33L25 32L26 32L26 31L25 31L25 30L24 30L24 31L23 31L23 28L24 28L24 27L26 27L26 26L30 26L30 25L29 25L29 24L25 24L25 23L26 23L26 22L25 22L25 21ZM15 23L15 24L16 24L16 25L14 25L14 27L15 27L15 26L17 26L17 24L16 24L16 23ZM4 24L4 26L7 26L7 25L5 25L5 24ZM54 24L54 25L55 25L55 24ZM32 26L32 27L33 27L33 28L35 28L35 27L36 27L36 26L34 26L34 27L33 27L33 26ZM5 27L5 30L8 30L8 27ZM27 27L27 30L30 30L30 27ZM49 27L49 30L52 30L52 27ZM6 28L6 29L7 29L7 28ZM25 28L25 29L26 29L26 28ZM28 28L28 29L29 29L29 28ZM50 28L50 29L51 29L51 28ZM54 28L54 30L55 30L55 28ZM12 30L12 31L13 31L13 30ZM38 30L38 32L39 32L39 30ZM6 31L6 32L8 32L8 31ZM18 31L18 33L17 33L17 34L18 34L18 35L19 35L19 36L20 36L20 35L21 35L21 36L22 36L22 35L23 35L23 34L22 34L22 33L21 33L21 32L23 32L23 31ZM24 31L24 32L25 32L25 31ZM2 32L2 33L3 33L3 34L2 34L2 36L1 36L1 39L2 39L2 37L3 37L3 35L4 35L4 34L7 34L7 33L4 33L4 32ZM19 32L19 33L18 33L18 34L19 34L19 35L20 35L20 34L21 34L21 33L20 33L20 32ZM48 32L48 33L49 33L49 32ZM50 32L50 34L48 34L48 35L46 35L46 36L48 36L48 35L50 35L50 36L51 36L51 37L52 37L52 35L53 35L53 34L52 34L52 33L51 33L51 32ZM11 33L11 34L12 34L12 33ZM19 33L19 34L20 34L20 33ZM42 34L42 35L41 35L41 36L40 36L40 37L43 37L43 36L44 36L44 35L43 35L43 34ZM50 34L50 35L52 35L52 34ZM42 35L42 36L43 36L43 35ZM32 36L32 37L33 37L33 38L34 38L34 39L35 39L35 37L33 37L33 36ZM15 37L15 38L16 38L16 37ZM11 38L11 39L12 39L12 38ZM38 39L38 40L39 40L39 39ZM42 39L42 40L43 40L43 39ZM2 40L2 41L3 41L3 40ZM21 41L21 42L22 42L22 41ZM31 41L31 42L32 42L32 43L31 43L31 44L32 44L32 43L33 43L33 42L32 42L32 41ZM51 41L51 42L50 42L50 43L51 43L51 44L50 44L50 45L49 45L49 46L50 46L50 47L48 47L48 48L50 48L50 47L51 47L51 48L53 48L53 49L54 49L54 48L53 48L53 47L51 47L51 46L53 46L53 43L54 43L54 42L53 42L53 41ZM51 42L51 43L53 43L53 42ZM10 43L10 44L8 44L8 45L10 45L10 44L11 44L11 43ZM12 43L12 45L13 45L13 46L14 46L14 44L13 44L13 43ZM17 44L17 45L18 45L18 44ZM20 44L20 45L21 45L21 44ZM51 44L51 45L50 45L50 46L51 46L51 45L52 45L52 44ZM54 44L54 45L55 45L55 46L54 46L54 47L55 47L55 46L56 46L56 45L55 45L55 44ZM3 45L3 46L4 46L4 45ZM40 46L40 47L39 47L39 48L38 48L38 49L39 49L39 48L41 48L41 46ZM27 49L27 52L30 52L30 49ZM49 49L49 52L52 52L52 49ZM14 50L14 51L15 51L15 50ZM28 50L28 51L29 51L29 50ZM38 50L38 51L37 51L37 52L38 52L38 53L39 53L39 52L38 52L38 51L40 51L40 52L41 52L41 50ZM50 50L50 51L51 51L51 50ZM54 50L54 51L55 51L55 50ZM43 53L43 54L44 54L44 53ZM41 54L41 55L42 55L42 54ZM50 55L50 56L51 56L51 55ZM43 56L43 57L44 57L44 56ZM45 56L45 57L46 57L46 56ZM0 0L0 7L7 7L7 0ZM1 1L1 6L6 6L6 1ZM2 2L2 5L5 5L5 2ZM50 0L50 7L57 7L57 0ZM51 1L51 6L56 6L56 1ZM52 2L52 5L55 5L55 2ZM0 50L0 57L7 57L7 50ZM1 51L1 56L6 56L6 51ZM2 52L2 55L5 55L5 52Z" fill="#000000"/></g></g></svg>
