<?xml version="1.0" encoding="UTF-8"?>
<svg xmlns="http://www.w3.org/2000/svg" version="1.1" width="300" height="300" viewBox="0 0 300 300"><rect x="0" y="0" width="300" height="300" fill="#fefefe"/><g transform="scale(4.615)"><g transform="translate(4,4)"><path fill-rule="evenodd" d="M8 0L8 1L10 1L10 4L11 4L11 5L9 5L9 2L8 2L8 5L9 5L9 6L8 6L8 7L9 7L9 8L8 8L8 9L9 9L9 8L10 8L10 10L9 10L9 11L10 11L10 12L11 12L11 13L12 13L12 14L13 14L13 13L14 13L14 15L12 15L12 16L13 16L13 17L12 17L12 19L11 19L11 15L10 15L10 16L6 16L6 15L8 15L8 14L9 14L9 13L8 13L8 11L7 11L7 10L5 10L5 9L4 9L4 8L0 8L0 9L4 9L4 11L3 11L3 10L2 10L2 12L0 12L0 13L2 13L2 15L0 15L0 17L1 17L1 18L0 18L0 19L1 19L1 20L0 20L0 21L1 21L1 22L0 22L0 24L3 24L3 23L1 23L1 22L2 22L2 20L3 20L3 18L4 18L4 25L5 25L5 26L2 26L2 27L1 27L1 25L0 25L0 29L1 29L1 28L3 28L3 27L4 27L4 30L0 30L0 33L2 33L2 34L3 34L3 35L0 35L0 40L1 40L1 41L0 41L0 42L1 42L1 44L2 44L2 45L0 45L0 48L5 48L5 47L7 47L7 46L9 46L9 45L10 45L10 43L8 43L8 44L6 44L6 45L7 45L7 46L5 46L5 47L3 47L3 46L4 46L4 45L5 45L5 43L7 43L7 42L6 42L6 41L8 41L8 42L9 42L9 41L10 41L10 42L11 42L11 43L13 43L13 42L12 42L12 41L11 41L11 40L13 40L13 41L14 41L14 44L12 44L12 45L11 45L11 46L10 46L10 47L8 47L8 48L9 48L9 49L8 49L8 50L9 50L9 53L8 53L8 57L9 57L9 56L10 56L10 57L12 57L12 55L13 55L13 53L12 53L12 52L14 52L14 51L15 51L15 52L16 52L16 48L17 48L17 50L19 50L19 51L17 51L17 52L19 52L19 54L18 54L18 53L17 53L17 54L16 54L16 53L15 53L15 54L14 54L14 55L15 55L15 57L18 57L18 55L20 55L20 56L19 56L19 57L20 57L20 56L21 56L21 57L24 57L24 56L25 56L25 55L26 55L26 56L28 56L28 55L26 55L26 54L27 54L27 53L29 53L29 54L31 54L31 55L30 55L30 56L31 56L31 57L32 57L32 55L33 55L33 54L36 54L36 55L34 55L34 56L33 56L33 57L36 57L36 55L37 55L37 54L36 54L36 53L35 53L35 52L36 52L36 51L38 51L38 52L39 52L39 54L38 54L38 57L42 57L42 56L43 56L43 55L44 55L44 56L45 56L45 57L46 57L46 55L49 55L49 57L51 57L51 54L52 54L52 53L53 53L53 54L54 54L54 52L55 52L55 50L53 50L53 49L54 49L54 48L53 48L53 47L57 47L57 44L52 44L52 43L53 43L53 42L54 42L54 43L56 43L56 41L57 41L57 40L56 40L56 41L55 41L55 42L54 42L54 41L53 41L53 40L55 40L55 38L56 38L56 39L57 39L57 38L56 38L56 37L57 37L57 36L56 36L56 35L57 35L57 34L56 34L56 33L57 33L57 31L56 31L56 30L57 30L57 29L56 29L56 30L54 30L54 29L55 29L55 27L53 27L53 26L51 26L51 25L49 25L49 26L48 26L48 29L47 29L47 26L46 26L46 24L47 24L47 25L48 25L48 24L49 24L49 20L50 20L50 21L51 21L51 22L52 22L52 23L50 23L50 24L54 24L54 25L56 25L56 24L54 24L54 23L57 23L57 21L56 21L56 22L53 22L53 20L50 20L50 19L56 19L56 18L57 18L57 15L55 15L55 14L54 14L54 10L52 10L52 11L53 11L53 13L52 13L52 12L51 12L51 11L49 11L49 10L50 10L50 8L49 8L49 6L48 6L48 8L47 8L47 5L48 5L48 0L45 0L45 1L44 1L44 2L42 2L42 3L43 3L43 5L45 5L45 6L44 6L44 7L43 7L43 6L42 6L42 5L41 5L41 4L38 4L38 3L39 3L39 2L37 2L37 1L38 1L38 0L37 0L37 1L36 1L36 0L35 0L35 1L34 1L34 2L35 2L35 3L34 3L34 4L36 4L36 5L40 5L40 7L41 7L41 8L38 8L38 7L39 7L39 6L38 6L38 7L37 7L37 6L36 6L36 7L35 7L35 6L34 6L34 5L33 5L33 6L32 6L32 5L31 5L31 4L32 4L32 3L33 3L33 2L32 2L32 0L30 0L30 2L31 2L31 4L26 4L26 0L23 0L23 1L22 1L22 0L21 0L21 1L22 1L22 2L23 2L23 1L25 1L25 2L24 2L24 3L23 3L23 6L22 6L22 8L21 8L21 9L23 9L23 10L20 10L20 7L21 7L21 5L20 5L20 4L19 4L19 1L20 1L20 0L19 0L19 1L18 1L18 0L17 0L17 1L15 1L15 0L14 0L14 1L15 1L15 2L16 2L16 3L17 3L17 4L19 4L19 5L15 5L15 4L14 4L14 3L13 3L13 4L11 4L11 3L12 3L12 2L13 2L13 0L11 0L11 1L10 1L10 0ZM39 0L39 1L40 1L40 2L41 2L41 1L43 1L43 0L41 0L41 1L40 1L40 0ZM11 1L11 2L12 2L12 1ZM17 1L17 3L18 3L18 1ZM35 1L35 2L36 2L36 1ZM46 1L46 2L45 2L45 3L44 3L44 4L45 4L45 5L47 5L47 3L46 3L46 2L47 2L47 1ZM20 2L20 3L21 3L21 2ZM27 2L27 3L28 3L28 2ZM13 4L13 5L14 5L14 6L13 6L13 9L12 9L12 10L10 10L10 11L11 11L11 12L12 12L12 10L14 10L14 11L15 11L15 8L16 8L16 11L17 11L17 10L18 10L18 12L17 12L17 13L16 13L16 12L15 12L15 15L14 15L14 16L15 16L15 15L16 15L16 16L17 16L17 17L19 17L19 18L20 18L20 19L19 19L19 20L18 20L18 19L17 19L17 18L16 18L16 17L15 17L15 18L13 18L13 19L15 19L15 18L16 18L16 19L17 19L17 20L18 20L18 21L17 21L17 23L16 23L16 20L14 20L14 22L15 22L15 23L13 23L13 22L12 22L12 23L13 23L13 24L14 24L14 26L12 26L12 27L14 27L14 28L12 28L12 29L11 29L11 28L9 28L9 29L10 29L10 30L9 30L9 31L8 31L8 32L7 32L7 31L3 31L3 32L2 32L2 31L1 31L1 32L2 32L2 33L4 33L4 32L7 32L7 33L5 33L5 34L4 34L4 35L3 35L3 36L1 36L1 38L2 38L2 39L3 39L3 40L5 40L5 39L3 39L3 37L4 37L4 36L5 36L5 34L7 34L7 35L6 35L6 36L7 36L7 37L6 37L6 38L7 38L7 39L6 39L6 40L7 40L7 39L8 39L8 41L9 41L9 40L11 40L11 39L12 39L12 37L13 37L13 40L14 40L14 41L16 41L16 40L17 40L17 39L18 39L18 36L19 36L19 37L20 37L20 38L22 38L22 39L21 39L21 40L22 40L22 41L20 41L20 40L18 40L18 41L19 41L19 43L18 43L18 42L17 42L17 45L12 45L12 46L11 46L11 47L12 47L12 46L14 46L14 47L15 47L15 46L16 46L16 47L17 47L17 48L19 48L19 49L21 49L21 50L20 50L20 51L21 51L21 53L20 53L20 55L22 55L22 56L24 56L24 55L25 55L25 54L26 54L26 51L24 51L24 50L25 50L25 49L26 49L26 48L27 48L27 46L29 46L29 47L30 47L30 48L32 48L32 49L31 49L31 50L32 50L32 51L31 51L31 53L32 53L32 51L33 51L33 52L35 52L35 51L34 51L34 50L35 50L35 48L37 48L37 49L36 49L36 50L37 50L37 49L38 49L38 48L39 48L39 49L40 49L40 50L39 50L39 52L40 52L40 54L41 54L41 55L42 55L42 54L43 54L43 53L42 53L42 52L43 52L43 51L44 51L44 50L43 50L43 47L46 47L46 48L44 48L44 49L46 49L46 50L45 50L45 53L46 53L46 51L47 51L47 52L48 52L48 48L47 48L47 47L46 47L46 46L48 46L48 47L49 47L49 48L50 48L50 45L49 45L49 44L51 44L51 42L50 42L50 41L52 41L52 40L50 40L50 41L47 41L47 42L45 42L45 43L42 43L42 45L43 45L43 47L39 47L39 46L41 46L41 45L40 45L40 44L39 44L39 43L38 43L38 44L37 44L37 42L41 42L41 41L42 41L42 42L43 42L43 40L44 40L44 39L45 39L45 40L46 40L46 38L48 38L48 39L47 39L47 40L49 40L49 38L48 38L48 36L49 36L49 37L50 37L50 39L53 39L53 38L55 38L55 37L56 37L56 36L55 36L55 35L54 35L54 36L55 36L55 37L53 37L53 36L52 36L52 35L51 35L51 36L49 36L49 35L48 35L48 36L47 36L47 34L50 34L50 33L49 33L49 32L50 32L50 31L49 31L49 32L48 32L48 30L47 30L47 32L45 32L45 31L44 31L44 33L45 33L45 36L44 36L44 37L43 37L43 35L44 35L44 34L43 34L43 35L42 35L42 34L41 34L41 35L39 35L39 36L40 36L40 37L41 37L41 39L39 39L39 38L37 38L37 37L38 37L38 36L37 36L37 37L35 37L35 36L36 36L36 35L35 35L35 32L34 32L34 33L33 33L33 32L31 32L31 33L32 33L32 34L34 34L34 35L33 35L33 36L32 36L32 35L31 35L31 34L30 34L30 35L29 35L29 33L30 33L30 31L29 31L29 32L28 32L28 31L25 31L25 34L24 34L24 35L23 35L23 33L24 33L24 31L23 31L23 30L21 30L21 29L24 29L24 30L26 30L26 28L24 28L24 26L25 26L25 25L29 25L29 23L30 23L30 24L31 24L31 23L32 23L32 22L34 22L34 23L33 23L33 24L32 24L32 25L33 25L33 24L35 24L35 23L36 23L36 24L37 24L37 23L38 23L38 24L39 24L39 25L40 25L40 26L41 26L41 24L43 24L43 22L41 22L41 23L40 23L40 24L39 24L39 21L38 21L38 22L35 22L35 21L33 21L33 17L31 17L31 16L32 16L32 14L31 14L31 13L33 13L33 12L32 12L32 11L33 11L33 10L34 10L34 11L35 11L35 12L34 12L34 14L33 14L33 15L35 15L35 16L34 16L34 17L35 17L35 18L34 18L34 20L36 20L36 21L37 21L37 20L40 20L40 19L39 19L39 18L41 18L41 20L43 20L43 21L44 21L44 22L47 22L47 21L48 21L48 20L49 20L49 19L50 19L50 18L54 18L54 17L55 17L55 18L56 18L56 17L55 17L55 16L53 16L53 14L52 14L52 13L51 13L51 12L50 12L50 13L51 13L51 15L50 15L50 16L49 16L49 12L48 12L48 11L45 11L45 8L46 8L46 6L45 6L45 7L44 7L44 8L43 8L43 9L44 9L44 11L43 11L43 10L42 10L42 11L41 11L41 10L40 10L40 9L38 9L38 8L36 8L36 9L34 9L34 6L33 6L33 8L32 8L32 6L31 6L31 9L32 9L32 10L29 10L29 9L28 9L28 11L27 11L27 10L26 10L26 11L25 11L25 12L24 12L24 11L20 11L20 10L18 10L18 9L19 9L19 8L18 8L18 9L17 9L17 7L18 7L18 6L17 6L17 7L16 7L16 6L15 6L15 5L14 5L14 4ZM24 4L24 6L23 6L23 7L24 7L24 8L23 8L23 9L24 9L24 8L25 8L25 9L26 9L26 6L25 6L25 5L26 5L26 4ZM11 5L11 7L10 7L10 6L9 6L9 7L10 7L10 8L11 8L11 7L12 7L12 5ZM27 5L27 8L30 8L30 5ZM14 6L14 7L15 7L15 6ZM19 6L19 7L20 7L20 6ZM24 6L24 7L25 7L25 6ZM28 6L28 7L29 7L29 6ZM41 6L41 7L42 7L42 6ZM6 8L6 9L7 9L7 8ZM41 8L41 9L42 9L42 8ZM48 8L48 9L49 9L49 8ZM52 8L52 9L55 9L55 11L56 11L56 13L57 13L57 10L56 10L56 9L57 9L57 8L56 8L56 9L55 9L55 8ZM37 9L37 10L38 10L38 12L37 12L37 11L36 11L36 10L35 10L35 11L36 11L36 12L35 12L35 15L36 15L36 13L37 13L37 15L39 15L39 17L40 17L40 16L41 16L41 15L39 15L39 14L40 14L40 13L39 13L39 12L40 12L40 10L38 10L38 9ZM46 9L46 10L47 10L47 9ZM4 11L4 12L5 12L5 13L4 13L4 14L5 14L5 13L6 13L6 14L7 14L7 13L6 13L6 12L7 12L7 11L6 11L6 12L5 12L5 11ZM30 11L30 12L31 12L31 11ZM42 11L42 12L43 12L43 13L44 13L44 15L43 15L43 14L42 14L42 17L41 17L41 18L42 18L42 19L43 19L43 18L42 18L42 17L45 17L45 18L44 18L44 19L46 19L46 20L45 20L45 21L47 21L47 20L48 20L48 19L46 19L46 18L48 18L48 17L47 17L47 16L48 16L48 14L47 14L47 15L45 15L45 14L46 14L46 13L44 13L44 12L43 12L43 11ZM2 12L2 13L3 13L3 12ZM18 12L18 13L19 13L19 14L18 14L18 15L17 15L17 14L16 14L16 15L17 15L17 16L19 16L19 14L21 14L21 13L19 13L19 12ZM22 12L22 13L24 13L24 12ZM26 12L26 13L27 13L27 16L26 16L26 15L25 15L25 14L24 14L24 15L23 15L23 18L22 18L22 17L21 17L21 16L20 16L20 17L21 17L21 18L22 18L22 19L20 19L20 20L21 20L21 21L22 21L22 23L23 23L23 25L22 25L22 27L23 27L23 25L25 25L25 22L27 22L27 23L26 23L26 24L27 24L27 23L28 23L28 21L29 21L29 20L32 20L32 18L31 18L31 19L30 19L30 17L29 17L29 16L31 16L31 14L30 14L30 13L28 13L28 12ZM3 15L3 16L4 16L4 18L5 18L5 19L6 19L6 20L7 20L7 19L6 19L6 18L8 18L8 17L6 17L6 18L5 18L5 15ZM28 15L28 16L29 16L29 15ZM44 15L44 16L45 16L45 17L46 17L46 16L45 16L45 15ZM51 15L51 16L50 16L50 17L52 17L52 15ZM1 16L1 17L2 17L2 18L3 18L3 17L2 17L2 16ZM24 17L24 18L23 18L23 19L22 19L22 20L23 20L23 21L24 21L24 22L25 22L25 19L27 19L27 20L26 20L26 21L27 21L27 20L29 20L29 19L28 19L28 18L29 18L29 17L27 17L27 18L25 18L25 17ZM36 17L36 18L37 18L37 17ZM24 18L24 19L25 19L25 18ZM10 19L10 22L9 22L9 23L11 23L11 19ZM36 19L36 20L37 20L37 19ZM8 20L8 21L9 21L9 20ZM54 20L54 21L55 21L55 20ZM6 21L6 22L7 22L7 23L5 23L5 24L7 24L7 25L6 25L6 26L9 26L9 27L11 27L11 24L9 24L9 25L8 25L8 22L7 22L7 21ZM18 21L18 22L19 22L19 23L17 23L17 25L20 25L20 26L21 26L21 24L20 24L20 23L21 23L21 22L19 22L19 21ZM30 21L30 23L31 23L31 21ZM15 23L15 26L16 26L16 23ZM44 23L44 25L42 25L42 26L43 26L43 27L42 27L42 28L44 28L44 25L45 25L45 23ZM30 25L30 26L31 26L31 25ZM34 25L34 27L35 27L35 28L34 28L34 29L37 29L37 28L36 28L36 27L35 27L35 25ZM17 26L17 27L15 27L15 28L14 28L14 29L16 29L16 30L15 30L15 32L16 32L16 30L17 30L17 33L18 33L18 35L17 35L17 34L16 34L16 35L14 35L14 34L15 34L15 33L14 33L14 32L13 32L13 31L14 31L14 30L13 30L13 29L12 29L12 30L10 30L10 31L9 31L9 33L10 33L10 37L9 37L9 35L7 35L7 36L8 36L8 37L9 37L9 38L10 38L10 39L11 39L11 38L10 38L10 37L11 37L11 36L13 36L13 37L14 37L14 39L15 39L15 40L16 40L16 39L17 39L17 38L15 38L15 36L18 36L18 35L21 35L21 36L22 36L22 33L23 33L23 31L22 31L22 32L20 32L20 33L21 33L21 34L19 34L19 33L18 33L18 31L19 31L19 30L17 30L17 27L19 27L19 28L18 28L18 29L21 29L21 28L20 28L20 27L19 27L19 26ZM38 26L38 27L39 27L39 26ZM45 26L45 29L44 29L44 30L46 30L46 26ZM5 27L5 30L8 30L8 27ZM27 27L27 30L30 30L30 27ZM31 27L31 28L33 28L33 27ZM40 27L40 29L38 29L38 30L36 30L36 31L37 31L37 32L36 32L36 33L37 33L37 32L38 32L38 34L39 34L39 31L38 31L38 30L40 30L40 32L41 32L41 31L43 31L43 29L42 29L42 30L41 30L41 27ZM49 27L49 30L52 30L52 27ZM56 27L56 28L57 28L57 27ZM6 28L6 29L7 29L7 28ZM28 28L28 29L29 29L29 28ZM50 28L50 29L51 29L51 28ZM53 28L53 29L54 29L54 28ZM31 29L31 31L32 31L32 29ZM51 31L51 32L52 32L52 34L54 34L54 33L53 33L53 32L52 32L52 31ZM54 31L54 32L55 32L55 31ZM11 32L11 34L12 34L12 35L13 35L13 34L14 34L14 33L13 33L13 32ZM27 32L27 33L28 33L28 32ZM42 32L42 33L43 33L43 32ZM7 33L7 34L8 34L8 33ZM12 33L12 34L13 34L13 33ZM25 34L25 35L26 35L26 36L23 36L23 37L22 37L22 38L23 38L23 39L24 39L24 41L25 41L25 42L23 42L23 41L22 41L22 44L21 44L21 43L19 43L19 44L20 44L20 45L17 45L17 46L18 46L18 47L19 47L19 48L20 48L20 47L19 47L19 46L20 46L20 45L21 45L21 46L22 46L22 47L21 47L21 48L23 48L23 49L22 49L22 52L23 52L23 54L22 54L22 53L21 53L21 54L22 54L22 55L23 55L23 54L25 54L25 53L24 53L24 52L23 52L23 49L24 49L24 48L23 48L23 46L25 46L25 45L26 45L26 46L27 46L27 45L26 45L26 43L25 43L25 42L27 42L27 43L28 43L28 44L29 44L29 43L32 43L32 42L33 42L33 45L32 45L32 46L33 46L33 45L34 45L34 44L35 44L35 46L34 46L34 47L33 47L33 50L34 50L34 48L35 48L35 47L38 47L38 45L39 45L39 44L38 44L38 45L36 45L36 43L34 43L34 42L36 42L36 41L34 41L34 40L35 40L35 39L36 39L36 38L34 38L34 37L33 37L33 38L32 38L32 36L29 36L29 35L28 35L28 34ZM27 36L27 37L24 37L24 39L25 39L25 41L26 41L26 39L25 39L25 38L29 38L29 36ZM45 36L45 38L46 38L46 36ZM51 37L51 38L52 38L52 37ZM30 38L30 39L28 39L28 40L27 40L27 41L29 41L29 40L30 40L30 42L31 42L31 40L33 40L33 39L32 39L32 38ZM42 38L42 39L41 39L41 40L43 40L43 39L44 39L44 38ZM38 39L38 40L37 40L37 41L40 41L40 40L39 40L39 39ZM1 41L1 42L2 42L2 41ZM3 42L3 43L2 43L2 44L4 44L4 43L5 43L5 42ZM47 42L47 43L45 43L45 44L49 44L49 43L50 43L50 42ZM15 43L15 44L16 44L16 43ZM23 43L23 44L22 44L22 46L23 46L23 45L25 45L25 43ZM29 45L29 46L30 46L30 45ZM44 45L44 46L45 46L45 45ZM48 45L48 46L49 46L49 45ZM51 45L51 46L52 46L52 47L53 47L53 46L54 46L54 45ZM55 45L55 46L56 46L56 45ZM1 46L1 47L2 47L2 46ZM25 47L25 48L26 48L26 47ZM6 48L6 49L7 49L7 48ZM10 48L10 51L11 51L11 50L12 50L12 49L13 49L13 50L15 50L15 49L13 49L13 48L12 48L12 49L11 49L11 48ZM41 48L41 49L42 49L42 48ZM56 48L56 50L57 50L57 48ZM27 49L27 52L30 52L30 49ZM49 49L49 52L52 52L52 49ZM28 50L28 51L29 51L29 50ZM50 50L50 51L51 51L51 50ZM40 51L40 52L41 52L41 51ZM56 51L56 53L55 53L55 54L56 54L56 53L57 53L57 51ZM10 52L10 53L11 53L11 55L10 55L10 56L11 56L11 55L12 55L12 53L11 53L11 52ZM41 53L41 54L42 54L42 53ZM47 53L47 54L50 54L50 53ZM17 54L17 55L18 55L18 54ZM44 54L44 55L46 55L46 54ZM56 55L56 56L57 56L57 55ZM13 56L13 57L14 57L14 56ZM47 56L47 57L48 57L48 56ZM52 56L52 57L53 57L53 56ZM54 56L54 57L55 57L55 56ZM0 0L0 7L7 7L7 0ZM1 1L1 6L6 6L6 1ZM2 2L2 5L5 5L5 2ZM50 0L50 7L57 7L57 0ZM51 1L51 6L56 6L56 1ZM52 2L52 5L55 5L55 2ZM0 50L0 57L7 57L7 50ZM1 51L1 56L6 56L6 51ZM2 52L2 55L5 55L5 52Z" fill="#000000"/></g></g></svg>
