<?xml version="1.0" encoding="UTF-8"?>
<svg xmlns="http://www.w3.org/2000/svg" version="1.1" width="300" height="300" viewBox="0 0 300 300"><rect x="0" y="0" width="300" height="300" fill="#fefefe"/><g transform="scale(4.615)"><g transform="translate(4,4)"><path fill-rule="evenodd" d="M8 0L8 4L9 4L9 5L8 5L8 7L9 7L9 6L10 6L10 8L9 8L9 9L7 9L7 8L4 8L4 10L3 10L3 9L2 9L2 8L0 8L0 10L1 10L1 12L2 12L2 11L3 11L3 12L4 12L4 13L2 13L2 14L1 14L1 13L0 13L0 15L2 15L2 16L0 16L0 22L2 22L2 21L3 21L3 23L4 23L4 24L5 24L5 26L4 26L4 31L3 31L3 32L2 32L2 30L3 30L3 28L2 28L2 30L0 30L0 32L1 32L1 36L4 36L4 37L2 37L2 38L1 38L1 37L0 37L0 39L1 39L1 40L2 40L2 41L1 41L1 42L2 42L2 44L0 44L0 48L5 48L5 47L7 47L7 48L6 48L6 49L7 49L7 48L8 48L8 50L9 50L9 51L8 51L8 53L9 53L9 51L10 51L10 50L11 50L11 49L9 49L9 46L10 46L10 45L11 45L11 46L12 46L12 49L13 49L13 48L14 48L14 49L15 49L15 50L14 50L14 51L13 51L13 50L12 50L12 51L11 51L11 53L10 53L10 54L9 54L9 55L8 55L8 57L9 57L9 56L10 56L10 57L11 57L11 56L10 56L10 55L12 55L12 56L14 56L14 57L16 57L16 56L15 56L15 55L16 55L16 54L17 54L17 57L19 57L19 56L18 56L18 54L17 54L17 53L19 53L19 55L20 55L20 54L23 54L23 55L22 55L22 56L23 56L23 55L24 55L24 57L25 57L25 54L24 54L24 53L25 53L25 49L24 49L24 46L26 46L26 47L27 47L27 48L26 48L26 53L28 53L28 57L29 57L29 55L30 55L30 57L34 57L34 55L35 55L35 57L37 57L37 56L36 56L36 54L37 54L37 55L40 55L40 56L39 56L39 57L40 57L40 56L41 56L41 57L42 57L42 56L43 56L43 55L44 55L44 57L45 57L45 55L46 55L46 56L47 56L47 55L46 55L46 52L45 52L45 51L42 51L42 50L44 50L44 49L45 49L45 47L46 47L46 48L47 48L47 47L46 47L46 45L47 45L47 46L48 46L48 45L49 45L49 43L50 43L50 46L49 46L49 47L48 47L48 49L47 49L47 52L48 52L48 54L49 54L49 56L48 56L48 57L50 57L50 55L51 55L51 56L53 56L53 57L54 57L54 55L53 55L53 50L54 50L54 51L55 51L55 52L54 52L54 54L57 54L57 51L55 51L55 49L56 49L56 44L57 44L57 43L56 43L56 41L57 41L57 40L54 40L54 41L53 41L53 39L54 39L54 38L55 38L55 39L57 39L57 38L55 38L55 37L57 37L57 35L56 35L56 30L55 30L55 29L56 29L56 28L57 28L57 27L55 27L55 29L54 29L54 28L53 28L53 27L54 27L54 26L55 26L55 24L56 24L56 25L57 25L57 24L56 24L56 21L55 21L55 22L54 22L54 21L52 21L52 20L53 20L53 19L51 19L51 18L52 18L52 14L53 14L53 15L55 15L55 16L53 16L53 17L55 17L55 16L56 16L56 18L55 18L55 19L56 19L56 18L57 18L57 15L56 15L56 13L57 13L57 12L56 12L56 10L57 10L57 8L53 8L53 9L52 9L52 8L51 8L51 9L50 9L50 16L49 16L49 15L48 15L48 17L47 17L47 19L45 19L45 18L46 18L46 17L45 17L45 16L46 16L46 9L47 9L47 12L48 12L48 11L49 11L49 9L47 9L47 8L49 8L49 6L48 6L48 7L47 7L47 5L48 5L48 0L41 0L41 1L40 1L40 2L38 2L38 1L39 1L39 0L38 0L38 1L37 1L37 2L36 2L36 0L35 0L35 1L34 1L34 0L33 0L33 1L31 1L31 0L29 0L29 3L28 3L28 2L27 2L27 3L28 3L28 4L26 4L26 3L25 3L25 0L23 0L23 2L22 2L22 5L21 5L21 6L20 6L20 5L19 5L19 4L18 4L18 5L17 5L17 6L16 6L16 5L15 5L15 4L14 4L14 0L13 0L13 5L14 5L14 7L13 7L13 6L12 6L12 7L11 7L11 6L10 6L10 4L11 4L11 3L12 3L12 0L11 0L11 1L10 1L10 0ZM15 0L15 1L16 1L16 2L17 2L17 3L16 3L16 4L17 4L17 3L19 3L19 2L17 2L17 1L19 1L19 0L17 0L17 1L16 1L16 0ZM20 0L20 1L21 1L21 0ZM26 0L26 1L28 1L28 0ZM33 1L33 2L34 2L34 5L33 5L33 3L32 3L32 2L31 2L31 3L32 3L32 5L33 5L33 7L32 7L32 6L31 6L31 10L30 10L30 11L31 11L31 12L29 12L29 10L28 10L28 9L26 9L26 6L25 6L25 7L24 7L24 6L23 6L23 5L24 5L24 4L25 4L25 3L23 3L23 5L22 5L22 6L21 6L21 8L22 8L22 10L21 10L21 11L20 11L20 9L19 9L19 10L18 10L18 9L16 9L16 10L15 10L15 11L16 11L16 12L17 12L17 13L15 13L15 12L14 12L14 11L13 11L13 10L12 10L12 9L11 9L11 10L10 10L10 11L9 11L9 10L7 10L7 9L6 9L6 10L7 10L7 11L5 11L5 10L4 10L4 12L5 12L5 17L6 17L6 18L5 18L5 19L4 19L4 20L3 20L3 21L4 21L4 22L5 22L5 23L6 23L6 24L8 24L8 23L9 23L9 25L6 25L6 26L10 26L10 27L11 27L11 28L12 28L12 29L13 29L13 28L14 28L14 27L15 27L15 28L16 28L16 27L15 27L15 25L16 25L16 26L17 26L17 27L18 27L18 25L16 25L16 24L17 24L17 23L18 23L18 24L19 24L19 25L21 25L21 24L22 24L22 25L24 25L24 23L23 23L23 24L22 24L22 22L20 22L20 23L19 23L19 21L20 21L20 20L21 20L21 21L24 21L24 22L25 22L25 23L26 23L26 22L27 22L27 23L28 23L28 22L27 22L27 21L24 21L24 20L25 20L25 19L26 19L26 20L28 20L28 21L29 21L29 24L28 24L28 25L27 25L27 26L28 26L28 25L29 25L29 24L31 24L31 29L32 29L32 30L31 30L31 32L30 32L30 31L29 31L29 33L28 33L28 34L27 34L27 32L28 32L28 31L27 31L27 32L26 32L26 31L24 31L24 30L23 30L23 29L24 29L24 28L25 28L25 27L26 27L26 25L25 25L25 27L24 27L24 28L22 28L22 27L21 27L21 26L20 26L20 27L19 27L19 28L18 28L18 29L14 29L14 30L12 30L12 31L14 31L14 30L16 30L16 32L14 32L14 33L13 33L13 34L12 34L12 33L11 33L11 34L12 34L12 35L10 35L10 34L9 34L9 33L10 33L10 29L9 29L9 31L4 31L4 32L3 32L3 34L2 34L2 35L5 35L5 36L7 36L7 37L4 37L4 38L3 38L3 39L5 39L5 38L7 38L7 39L6 39L6 40L7 40L7 41L6 41L6 42L4 42L4 41L2 41L2 42L4 42L4 44L5 44L5 45L3 45L3 47L5 47L5 45L6 45L6 46L9 46L9 43L10 43L10 44L11 44L11 43L13 43L13 42L14 42L14 40L13 40L13 42L12 42L12 39L11 39L11 40L9 40L9 42L8 42L8 40L7 40L7 39L10 39L10 38L11 38L11 37L12 37L12 38L13 38L13 39L14 39L14 37L15 37L15 39L16 39L16 38L17 38L17 40L16 40L16 42L15 42L15 43L16 43L16 44L17 44L17 45L16 45L16 46L17 46L17 45L18 45L18 44L20 44L20 45L19 45L19 46L18 46L18 47L19 47L19 50L18 50L18 51L17 51L17 48L16 48L16 47L15 47L15 49L16 49L16 51L17 51L17 52L15 52L15 51L14 51L14 52L13 52L13 53L12 53L12 55L14 55L14 54L15 54L15 53L17 53L17 52L19 52L19 53L20 53L20 45L21 45L21 46L22 46L22 47L21 47L21 48L22 48L22 49L21 49L21 50L22 50L22 51L21 51L21 52L22 52L22 53L24 53L24 52L22 52L22 51L23 51L23 50L22 50L22 49L23 49L23 48L22 48L22 47L23 47L23 45L21 45L21 43L22 43L22 44L25 44L25 43L27 43L27 44L28 44L28 47L30 47L30 48L31 48L31 49L32 49L32 48L34 48L34 52L33 52L33 53L32 53L32 54L33 54L33 55L34 55L34 54L35 54L35 53L34 53L34 52L36 52L36 49L35 49L35 48L34 48L34 47L35 47L35 46L38 46L38 45L39 45L39 44L40 44L40 51L39 51L39 52L40 52L40 53L44 53L44 55L45 55L45 53L44 53L44 52L41 52L41 44L40 44L40 42L39 42L39 44L37 44L37 43L36 43L36 44L37 44L37 45L34 45L34 47L33 47L33 45L32 45L32 43L33 43L33 44L35 44L35 43L33 43L33 41L32 41L32 40L33 40L33 39L34 39L34 42L35 42L35 39L37 39L37 42L38 42L38 39L39 39L39 40L40 40L40 41L42 41L42 40L43 40L43 39L45 39L45 40L46 40L46 42L47 42L47 43L45 43L45 41L43 41L43 42L42 42L42 44L43 44L43 46L44 46L44 44L45 44L45 45L46 45L46 44L47 44L47 45L48 45L48 44L47 44L47 43L49 43L49 42L50 42L50 43L51 43L51 45L52 45L52 46L53 46L53 48L54 48L54 49L55 49L55 47L54 47L54 46L53 46L53 44L54 44L54 45L55 45L55 44L56 44L56 43L55 43L55 42L54 42L54 43L53 43L53 41L52 41L52 40L47 40L47 39L48 39L48 38L49 38L49 39L52 39L52 38L53 38L53 36L55 36L55 35L53 35L53 34L54 34L54 32L55 32L55 31L53 31L53 33L51 33L51 32L50 32L50 35L49 35L49 33L48 33L48 31L47 31L47 29L48 29L48 25L51 25L51 24L52 24L52 25L53 25L53 24L55 24L55 23L54 23L54 22L52 22L52 21L51 21L51 20L49 20L49 19L50 19L50 17L51 17L51 16L50 16L50 17L49 17L49 18L48 18L48 19L47 19L47 21L45 21L45 22L44 22L44 16L45 16L45 13L44 13L44 12L45 12L45 11L43 11L43 12L41 12L41 9L43 9L43 10L44 10L44 8L40 8L40 9L39 9L39 10L38 10L38 8L37 8L37 9L35 9L35 7L36 7L36 5L38 5L38 4L40 4L40 3L41 3L41 4L42 4L42 2L40 2L40 3L38 3L38 4L37 4L37 3L36 3L36 2L34 2L34 1ZM45 1L45 2L47 2L47 1ZM9 2L9 3L11 3L11 2ZM43 2L43 3L44 3L44 4L43 4L43 7L44 7L44 4L46 4L46 5L45 5L45 7L46 7L46 8L45 8L45 9L46 9L46 8L47 8L47 7L46 7L46 5L47 5L47 3L44 3L44 2ZM35 4L35 5L34 5L34 7L33 7L33 8L32 8L32 14L31 14L31 13L30 13L30 15L31 15L31 16L29 16L29 13L27 13L27 14L28 14L28 15L27 15L27 16L26 16L26 15L24 15L24 16L26 16L26 17L20 17L20 15L22 15L22 16L23 16L23 15L22 15L22 14L21 14L21 13L24 13L24 14L25 14L25 13L26 13L26 11L27 11L27 12L28 12L28 11L27 11L27 10L25 10L25 8L24 8L24 7L23 7L23 6L22 6L22 7L23 7L23 10L25 10L25 11L24 11L24 12L22 12L22 11L21 11L21 12L20 12L20 15L19 15L19 12L18 12L18 13L17 13L17 14L15 14L15 13L12 13L12 12L13 12L13 11L12 11L12 10L11 10L11 11L10 11L10 12L9 12L9 11L7 11L7 12L6 12L6 13L7 13L7 14L6 14L6 15L8 15L8 14L9 14L9 16L8 16L8 18L9 18L9 17L10 17L10 16L11 16L11 21L9 21L9 19L7 19L7 18L6 18L6 19L5 19L5 20L6 20L6 21L7 21L7 22L6 22L6 23L7 23L7 22L8 22L8 21L9 21L9 22L11 22L11 21L14 21L14 23L13 23L13 24L14 24L14 25L13 25L13 26L14 26L14 25L15 25L15 24L14 24L14 23L16 23L16 22L18 22L18 21L19 21L19 20L20 20L20 19L21 19L21 18L23 18L23 19L24 19L24 18L26 18L26 19L27 19L27 18L26 18L26 17L28 17L28 18L30 18L30 19L28 19L28 20L30 20L30 19L31 19L31 20L32 20L32 21L30 21L30 23L31 23L31 22L34 22L34 23L32 23L32 27L33 27L33 28L32 28L32 29L33 29L33 30L32 30L32 31L34 31L34 32L32 32L32 34L34 34L34 35L31 35L31 36L30 36L30 34L31 34L31 33L29 33L29 34L28 34L28 36L27 36L27 37L25 37L25 36L26 36L26 35L27 35L27 34L26 34L26 33L23 33L23 34L21 34L21 33L22 33L22 31L23 31L23 32L24 32L24 31L23 31L23 30L22 30L22 29L21 29L21 28L19 28L19 29L18 29L18 30L17 30L17 31L19 31L19 32L16 32L16 33L15 33L15 35L16 35L16 36L15 36L15 37L16 37L16 36L17 36L17 38L19 38L19 37L21 37L21 38L20 38L20 39L19 39L19 40L18 40L18 41L17 41L17 42L16 42L16 43L18 43L18 41L19 41L19 40L20 40L20 43L21 43L21 41L22 41L22 40L23 40L23 41L24 41L24 42L26 42L26 41L27 41L27 42L28 42L28 40L30 40L30 41L29 41L29 42L30 42L30 41L31 41L31 43L29 43L29 44L31 44L31 43L32 43L32 41L31 41L31 39L33 39L33 38L34 38L34 35L35 35L35 38L37 38L37 36L38 36L38 34L39 34L39 33L40 33L40 34L42 34L42 35L41 35L41 36L43 36L43 33L45 33L45 34L46 34L46 35L44 35L44 37L38 37L38 38L40 38L40 40L41 40L41 39L43 39L43 38L44 38L44 37L45 37L45 39L47 39L47 38L46 38L46 37L47 37L47 36L49 36L49 35L48 35L48 34L46 34L46 33L45 33L45 32L46 32L46 30L45 30L45 27L47 27L47 26L46 26L46 25L48 25L48 24L49 24L49 22L50 22L50 24L51 24L51 23L52 23L52 24L53 24L53 23L52 23L52 22L51 22L51 21L47 21L47 24L46 24L46 23L45 23L45 24L44 24L44 25L42 25L42 24L41 24L41 25L42 25L42 28L44 28L44 30L45 30L45 31L43 31L43 29L41 29L41 30L40 30L40 32L39 32L39 29L40 29L40 24L39 24L39 25L38 25L38 26L39 26L39 27L37 27L37 26L36 26L36 27L35 27L35 30L36 30L36 31L34 31L34 27L33 27L33 26L34 26L34 25L37 25L37 24L34 24L34 23L35 23L35 22L37 22L37 23L38 23L38 22L39 22L39 21L40 21L40 22L41 22L41 23L42 23L42 22L43 22L43 23L44 23L44 22L43 22L43 21L42 21L42 20L41 20L41 21L40 21L40 18L41 18L41 19L42 19L42 18L43 18L43 17L42 17L42 15L43 15L43 16L44 16L44 14L43 14L43 13L41 13L41 14L40 14L40 15L39 15L39 13L40 13L40 10L39 10L39 11L38 11L38 10L37 10L37 12L36 12L36 10L34 10L34 9L33 9L33 8L34 8L34 7L35 7L35 5L36 5L36 4ZM18 5L18 6L17 6L17 7L18 7L18 6L19 6L19 7L20 7L20 6L19 6L19 5ZM27 5L27 8L30 8L30 5ZM39 5L39 7L40 7L40 6L41 6L41 7L42 7L42 5ZM15 6L15 7L16 7L16 6ZM28 6L28 7L29 7L29 6ZM37 6L37 7L38 7L38 6ZM13 8L13 9L14 9L14 8ZM1 9L1 10L2 10L2 9ZM51 9L51 11L52 11L52 12L51 12L51 14L52 14L52 13L53 13L53 14L54 14L54 13L55 13L55 9L53 9L53 10L54 10L54 11L52 11L52 9ZM17 10L17 11L18 11L18 10ZM33 10L33 13L34 13L34 18L33 18L33 20L34 20L34 22L35 22L35 20L36 20L36 19L34 19L34 18L37 18L37 19L39 19L39 18L40 18L40 17L41 17L41 15L40 15L40 17L39 17L39 15L38 15L38 13L39 13L39 12L37 12L37 13L35 13L35 12L34 12L34 10ZM7 12L7 13L8 13L8 12ZM10 12L10 13L9 13L9 14L10 14L10 15L11 15L11 16L12 16L12 15L11 15L11 14L12 14L12 13L11 13L11 12ZM24 12L24 13L25 13L25 12ZM53 12L53 13L54 13L54 12ZM10 13L10 14L11 14L11 13ZM47 13L47 14L49 14L49 13ZM2 14L2 15L3 15L3 14ZM35 14L35 17L38 17L38 18L39 18L39 17L38 17L38 16L37 16L37 14ZM13 15L13 17L14 17L14 18L12 18L12 19L14 19L14 20L15 20L15 21L17 21L17 20L18 20L18 19L19 19L19 18L20 18L20 17L19 17L19 18L18 18L18 17L16 17L16 16L15 16L15 17L14 17L14 15ZM18 15L18 16L19 16L19 15ZM6 16L6 17L7 17L7 16ZM1 17L1 18L2 18L2 19L3 19L3 18L2 18L2 17ZM15 17L15 19L16 19L16 20L17 20L17 18L16 18L16 17ZM31 17L31 18L32 18L32 17ZM6 19L6 20L7 20L7 21L8 21L8 20L7 20L7 19ZM1 20L1 21L2 21L2 20ZM37 20L37 22L38 22L38 21L39 21L39 20ZM1 23L1 26L0 26L0 27L3 27L3 24L2 24L2 23ZM10 23L10 25L11 25L11 27L12 27L12 23ZM33 24L33 25L34 25L34 24ZM43 26L43 27L45 27L45 26ZM5 27L5 30L8 30L8 27ZM27 27L27 30L30 30L30 27ZM49 27L49 30L52 30L52 27ZM0 28L0 29L1 29L1 28ZM6 28L6 29L7 29L7 28ZM28 28L28 29L29 29L29 28ZM37 28L37 29L38 29L38 28ZM46 28L46 29L47 29L47 28ZM50 28L50 29L51 29L51 28ZM19 29L19 31L22 31L22 30L20 30L20 29ZM25 29L25 30L26 30L26 29ZM53 29L53 30L54 30L54 29ZM37 30L37 32L38 32L38 30ZM5 32L5 34L6 34L6 35L7 35L7 36L9 36L9 37L8 37L8 38L9 38L9 37L10 37L10 35L9 35L9 34L8 34L8 33L9 33L9 32L8 32L8 33L7 33L7 32ZM40 32L40 33L41 33L41 32ZM6 33L6 34L7 34L7 35L8 35L8 34L7 34L7 33ZM16 33L16 34L17 34L17 33ZM18 33L18 34L19 34L19 35L18 35L18 36L19 36L19 35L20 35L20 36L22 36L22 39L24 39L24 41L25 41L25 40L26 40L26 39L28 39L28 38L29 38L29 39L31 39L31 38L33 38L33 37L32 37L32 36L31 36L31 37L29 37L29 36L28 36L28 37L27 37L27 38L26 38L26 39L25 39L25 38L24 38L24 37L23 37L23 35L20 35L20 33ZM34 33L34 34L35 34L35 33ZM37 33L37 34L38 34L38 33ZM24 34L24 36L25 36L25 35L26 35L26 34ZM39 35L39 36L40 36L40 35ZM50 35L50 37L51 37L51 38L52 38L52 37L51 37L51 36L53 36L53 35ZM12 36L12 37L14 37L14 36ZM10 41L10 43L11 43L11 41ZM48 41L48 42L49 42L49 41ZM51 41L51 43L52 43L52 44L53 44L53 43L52 43L52 41ZM6 42L6 43L7 43L7 44L6 44L6 45L8 45L8 42ZM43 43L43 44L44 44L44 43ZM12 44L12 45L13 45L13 46L14 46L14 44ZM26 45L26 46L27 46L27 45ZM30 45L30 46L31 46L31 48L32 48L32 45ZM1 46L1 47L2 47L2 46ZM50 46L50 47L49 47L49 48L50 48L50 47L51 47L51 48L52 48L52 47L51 47L51 46ZM36 47L36 48L37 48L37 47ZM38 47L38 49L37 49L37 51L38 51L38 49L39 49L39 47ZM42 47L42 49L44 49L44 47ZM27 49L27 52L30 52L30 49ZM49 49L49 52L52 52L52 49ZM28 50L28 51L29 51L29 50ZM50 50L50 51L51 51L51 50ZM31 51L31 52L32 52L32 51ZM37 52L37 54L38 54L38 52ZM30 53L30 54L31 54L31 53ZM33 53L33 54L34 54L34 53ZM49 53L49 54L51 54L51 55L52 55L52 54L51 54L51 53ZM40 54L40 55L41 55L41 56L42 56L42 55L43 55L43 54ZM26 55L26 57L27 57L27 55ZM56 56L56 57L57 57L57 56ZM0 0L0 7L7 7L7 0ZM1 1L1 6L6 6L6 1ZM2 2L2 5L5 5L5 2ZM50 0L50 7L57 7L57 0ZM51 1L51 6L56 6L56 1ZM52 2L52 5L55 5L55 2ZM0 50L0 57L7 57L7 50ZM1 51L1 56L6 56L6 51ZM2 52L2 55L5 55L5 52Z" fill="#000000"/></g></g></svg>
