<?xml version="1.0" encoding="UTF-8"?>
<svg xmlns="http://www.w3.org/2000/svg" version="1.1" width="300" height="300" viewBox="0 0 300 300"><rect x="0" y="0" width="300" height="300" fill="#fefefe"/><g transform="scale(4.615)"><g transform="translate(4,4)"><path fill-rule="evenodd" d="M10 0L10 3L8 3L8 4L9 4L9 5L8 5L8 7L9 7L9 5L10 5L10 8L6 8L6 9L9 9L9 10L6 10L6 11L5 11L5 10L3 10L3 9L5 9L5 8L0 8L0 10L1 10L1 12L0 12L0 13L1 13L1 14L0 14L0 16L1 16L1 18L0 18L0 19L3 19L3 20L1 20L1 21L3 21L3 22L0 22L0 26L1 26L1 29L0 29L0 32L1 32L1 33L0 33L0 34L1 34L1 33L2 33L2 34L3 34L3 35L5 35L5 36L6 36L6 37L5 37L5 39L8 39L8 44L6 44L6 43L7 43L7 42L6 42L6 43L5 43L5 42L4 42L4 43L3 43L3 46L2 46L2 45L1 45L1 44L0 44L0 45L1 45L1 46L0 46L0 48L5 48L5 47L7 47L7 48L6 48L6 49L7 49L7 48L8 48L8 51L9 51L9 49L10 49L10 51L11 51L11 52L10 52L10 53L9 53L9 52L8 52L8 57L10 57L10 56L11 56L11 57L12 57L12 56L13 56L13 57L16 57L16 56L17 56L17 57L19 57L19 56L18 56L18 55L17 55L17 54L19 54L19 55L20 55L20 54L19 54L19 53L20 53L20 52L21 52L21 53L22 53L22 54L21 54L21 56L24 56L24 57L26 57L26 56L27 56L27 57L29 57L29 56L30 56L30 57L31 57L31 56L35 56L35 57L39 57L39 56L37 56L37 54L38 54L38 55L41 55L41 57L44 57L44 54L45 54L45 53L44 53L44 52L47 52L47 50L48 50L48 54L47 54L47 55L48 55L48 56L47 56L47 57L49 57L49 56L50 56L50 57L52 57L52 55L51 55L51 53L52 53L52 54L53 54L53 57L54 57L54 56L55 56L55 57L56 57L56 56L55 56L55 55L54 55L54 54L53 54L53 52L54 52L54 53L57 53L57 51L56 51L56 49L57 49L57 48L56 48L56 46L57 46L57 45L56 45L56 44L57 44L57 43L56 43L56 42L55 42L55 41L53 41L53 40L55 40L55 39L57 39L57 37L56 37L56 36L55 36L55 35L56 35L56 34L55 34L55 32L56 32L56 33L57 33L57 32L56 32L56 30L57 30L57 28L56 28L56 27L55 27L55 26L57 26L57 25L56 25L56 22L57 22L57 20L56 20L56 18L57 18L57 17L56 17L56 16L57 16L57 15L56 15L56 14L57 14L57 13L56 13L56 14L55 14L55 13L54 13L54 12L55 12L55 11L56 11L56 12L57 12L57 11L56 11L56 10L54 10L54 11L52 11L52 10L53 10L53 9L54 9L54 8L53 8L53 9L52 9L52 8L51 8L51 10L50 10L50 8L49 8L49 6L48 6L48 7L47 7L47 5L48 5L48 0L46 0L46 1L47 1L47 2L44 2L44 3L42 3L42 2L43 2L43 0L41 0L41 1L40 1L40 0L39 0L39 1L38 1L38 0L37 0L37 1L38 1L38 2L37 2L37 3L36 3L36 0L35 0L35 1L33 1L33 0L32 0L32 1L31 1L31 0L27 0L27 1L26 1L26 0L23 0L23 1L22 1L22 0L21 0L21 1L20 1L20 0L17 0L17 2L18 2L18 4L17 4L17 6L16 6L16 7L15 7L15 5L16 5L16 4L15 4L15 5L14 5L14 8L13 8L13 9L12 9L12 7L13 7L13 6L12 6L12 7L11 7L11 5L12 5L12 3L13 3L13 4L14 4L14 2L15 2L15 1L14 1L14 2L13 2L13 0ZM8 1L8 2L9 2L9 1ZM11 1L11 3L12 3L12 1ZM25 1L25 2L20 2L20 3L19 3L19 4L18 4L18 6L17 6L17 7L16 7L16 8L19 8L19 9L20 9L20 10L19 10L19 13L20 13L20 14L21 14L21 13L22 13L22 14L23 14L23 15L18 15L18 16L20 16L20 19L19 19L19 20L20 20L20 21L19 21L19 22L20 22L20 23L18 23L18 24L21 24L21 25L19 25L19 26L18 26L18 27L17 27L17 28L18 28L18 29L16 29L16 28L15 28L15 29L12 29L12 28L14 28L14 27L12 27L12 26L17 26L17 25L12 25L12 26L10 26L10 27L9 27L9 29L10 29L10 30L11 30L11 31L10 31L10 32L9 32L9 31L2 31L2 32L4 32L4 33L5 33L5 35L6 35L6 36L7 36L7 37L6 37L6 38L8 38L8 39L9 39L9 42L10 42L10 43L11 43L11 40L10 40L10 39L11 39L11 38L10 38L10 37L11 37L11 36L13 36L13 37L14 37L14 38L15 38L15 39L13 39L13 38L12 38L12 39L13 39L13 40L14 40L14 41L13 41L13 42L14 42L14 43L13 43L13 44L15 44L15 45L14 45L14 47L13 47L13 45L11 45L11 44L8 44L8 46L7 46L7 45L6 45L6 46L7 46L7 47L8 47L8 48L9 48L9 46L10 46L10 47L11 47L11 48L12 48L12 47L13 47L13 50L12 50L12 49L11 49L11 50L12 50L12 51L14 51L14 47L16 47L16 48L19 48L19 49L15 49L15 52L16 52L16 53L15 53L15 54L14 54L14 55L13 55L13 56L14 56L14 55L15 55L15 56L16 56L16 55L15 55L15 54L16 54L16 53L17 53L17 51L21 51L21 52L22 52L22 53L24 53L24 54L23 54L23 55L24 55L24 56L25 56L25 54L26 54L26 55L27 55L27 56L29 56L29 55L30 55L30 56L31 56L31 54L32 54L32 53L33 53L33 54L34 54L34 55L35 55L35 56L36 56L36 54L35 54L35 51L34 51L34 50L36 50L36 52L37 52L37 53L38 53L38 54L40 54L40 53L41 53L41 52L40 52L40 51L38 51L38 50L41 50L41 51L42 51L42 52L43 52L43 51L42 51L42 50L41 50L41 48L42 48L42 49L43 49L43 50L47 50L47 49L48 49L48 48L51 48L51 47L55 47L55 46L56 46L56 45L55 45L55 44L54 44L54 45L55 45L55 46L53 46L53 45L52 45L52 44L53 44L53 43L54 43L54 42L53 42L53 41L51 41L51 42L50 42L50 43L49 43L49 42L48 42L48 41L49 41L49 39L51 39L51 38L53 38L53 39L54 39L54 38L53 38L53 35L55 35L55 34L54 34L54 33L52 33L52 32L53 32L53 31L52 31L52 32L51 32L51 31L48 31L48 30L47 30L47 29L48 29L48 27L47 27L47 23L46 23L46 22L47 22L47 20L46 20L46 18L47 18L47 16L45 16L45 14L47 14L47 13L49 13L49 12L50 12L50 14L49 14L49 15L48 15L48 16L49 16L49 17L50 17L50 18L48 18L48 19L50 19L50 18L51 18L51 17L53 17L53 18L55 18L55 16L53 16L53 15L50 15L50 14L51 14L51 12L50 12L50 11L49 11L49 10L48 10L48 9L49 9L49 8L48 8L48 9L47 9L47 7L46 7L46 6L45 6L45 4L46 4L46 5L47 5L47 3L44 3L44 6L43 6L43 5L42 5L42 6L41 6L41 5L40 5L40 4L41 4L41 3L39 3L39 2L38 2L38 6L37 6L37 7L36 7L36 5L37 5L37 4L36 4L36 5L35 5L35 4L33 4L33 3L34 3L34 2L33 2L33 3L32 3L32 2L31 2L31 1L29 1L29 2L26 2L26 1ZM30 2L30 3L31 3L31 4L26 4L26 3L23 3L23 4L22 4L22 5L23 5L23 6L22 6L22 7L21 7L21 4L19 4L19 5L20 5L20 7L19 7L19 6L18 6L18 7L19 7L19 8L22 8L22 7L23 7L23 6L24 6L24 9L21 9L21 10L22 10L22 11L21 11L21 12L20 12L20 13L21 13L21 12L22 12L22 13L23 13L23 14L24 14L24 15L23 15L23 16L26 16L26 15L27 15L27 16L28 16L28 17L26 17L26 18L28 18L28 19L29 19L29 20L30 20L30 22L29 22L29 23L27 23L27 22L28 22L28 21L25 21L25 20L26 20L26 19L25 19L25 17L22 17L22 16L21 16L21 17L22 17L22 18L24 18L24 19L23 19L23 20L24 20L24 21L23 21L23 22L22 22L22 21L21 21L21 24L22 24L22 23L23 23L23 24L24 24L24 25L21 25L21 27L22 27L22 26L23 26L23 27L24 27L24 28L23 28L23 30L25 30L25 31L21 31L21 30L20 30L20 29L18 29L18 30L20 30L20 31L19 31L19 32L17 32L17 33L18 33L18 35L19 35L19 36L17 36L17 34L15 34L15 33L14 33L14 32L15 32L15 31L16 31L16 29L15 29L15 31L14 31L14 30L13 30L13 31L14 31L14 32L12 32L12 31L11 31L11 32L12 32L12 33L11 33L11 34L12 34L12 35L14 35L14 34L15 34L15 35L16 35L16 36L17 36L17 39L19 39L19 40L16 40L16 39L15 39L15 40L16 40L16 41L19 41L19 42L18 42L18 43L17 43L17 42L15 42L15 43L16 43L16 44L18 44L18 45L17 45L17 47L18 47L18 46L20 46L20 47L23 47L23 49L21 49L21 51L22 51L22 50L25 50L25 49L24 49L24 47L23 47L23 46L25 46L25 45L24 45L24 44L23 44L23 43L25 43L25 44L27 44L27 45L26 45L26 47L25 47L25 48L26 48L26 52L24 52L24 53L27 53L27 54L30 54L30 53L31 53L31 48L33 48L33 49L36 49L36 50L38 50L38 49L39 49L39 48L41 48L41 46L43 46L43 47L42 47L42 48L43 48L43 49L44 49L44 48L43 48L43 47L44 47L44 46L45 46L45 49L47 49L47 48L48 48L48 47L50 47L50 46L52 46L52 45L51 45L51 43L53 43L53 42L51 42L51 43L50 43L50 46L48 46L48 45L49 45L49 44L48 44L48 45L47 45L47 43L48 43L48 42L47 42L47 43L46 43L46 44L45 44L45 45L44 45L44 40L45 40L45 41L47 41L47 39L49 39L49 38L51 38L51 37L50 37L50 36L52 36L52 35L53 35L53 34L52 34L52 33L51 33L51 32L50 32L50 34L48 34L48 35L50 35L50 36L48 36L48 37L47 37L47 35L44 35L44 33L43 33L43 32L45 32L45 33L46 33L46 32L45 32L45 31L47 31L47 32L48 32L48 33L49 33L49 32L48 32L48 31L47 31L47 30L46 30L46 29L47 29L47 27L46 27L46 28L45 28L45 25L44 25L44 24L43 24L43 23L44 23L44 20L45 20L45 18L46 18L46 17L45 17L45 18L44 18L44 14L45 14L45 13L44 13L44 12L43 12L43 13L41 13L41 14L43 14L43 15L42 15L42 16L41 16L41 15L39 15L39 14L38 14L38 13L40 13L40 12L41 12L41 11L45 11L45 12L47 12L47 11L48 11L48 12L49 12L49 11L48 11L48 10L46 10L46 9L45 9L45 10L44 10L44 8L43 8L43 6L42 6L42 7L41 7L41 6L40 6L40 5L39 5L39 6L38 6L38 7L37 7L37 8L35 8L35 5L33 5L33 4L32 4L32 3L31 3L31 2ZM10 4L10 5L11 5L11 4ZM23 4L23 5L24 5L24 4ZM25 4L25 8L26 8L26 4ZM31 4L31 8L32 8L32 10L31 10L31 11L29 11L29 9L28 9L28 10L27 10L27 11L26 11L26 12L25 12L25 10L24 10L24 12L23 12L23 13L25 13L25 14L27 14L27 15L28 15L28 16L29 16L29 14L30 14L30 15L31 15L31 16L32 16L32 19L33 19L33 18L35 18L35 19L36 19L36 20L38 20L38 22L39 22L39 23L37 23L37 24L39 24L39 25L38 25L38 26L37 26L37 25L33 25L33 24L32 24L32 23L33 23L33 22L34 22L34 23L35 23L35 20L34 20L34 21L33 21L33 20L32 20L32 21L31 21L31 22L30 22L30 23L31 23L31 24L32 24L32 26L31 26L31 28L32 28L32 29L33 29L33 30L31 30L31 31L30 31L30 32L29 32L29 33L28 33L28 31L27 31L27 35L26 35L26 32L21 32L21 33L20 33L20 35L21 35L21 36L19 36L19 37L18 37L18 38L19 38L19 39L20 39L20 38L19 38L19 37L23 37L23 38L24 38L24 37L23 37L23 36L24 36L24 34L23 34L23 33L25 33L25 35L26 35L26 36L27 36L27 37L25 37L25 40L24 40L24 39L22 39L22 38L21 38L21 39L22 39L22 40L20 40L20 42L21 42L21 43L20 43L20 44L19 44L19 45L20 45L20 46L21 46L21 45L22 45L22 46L23 46L23 45L22 45L22 44L21 44L21 43L22 43L22 42L24 42L24 41L25 41L25 43L27 43L27 42L32 42L32 43L33 43L33 44L31 44L31 45L30 45L30 43L29 43L29 45L27 45L27 47L26 47L26 48L28 48L28 47L29 47L29 46L31 46L31 45L32 45L32 46L35 46L35 47L34 47L34 48L36 48L36 47L37 47L37 46L36 46L36 45L34 45L34 43L35 43L35 44L36 44L36 43L37 43L37 42L35 42L35 40L38 40L38 42L39 42L39 43L41 43L41 44L39 44L39 45L38 45L38 46L39 46L39 47L38 47L38 48L37 48L37 49L38 49L38 48L39 48L39 47L40 47L40 46L41 46L41 44L42 44L42 42L40 42L40 41L41 41L41 40L43 40L43 39L47 39L47 37L45 37L45 36L44 36L44 35L43 35L43 34L42 34L42 35L41 35L41 36L40 36L40 37L38 37L38 35L40 35L40 34L39 34L39 33L41 33L41 32L43 32L43 30L41 30L41 29L43 29L43 27L44 27L44 25L43 25L43 24L42 24L42 22L41 22L41 24L39 24L39 23L40 23L40 22L39 22L39 21L43 21L43 20L44 20L44 18L43 18L43 19L42 19L42 18L41 18L41 20L38 20L38 19L39 19L39 17L41 17L41 16L39 16L39 15L38 15L38 14L37 14L37 13L36 13L36 14L37 14L37 15L35 15L35 16L32 16L32 15L31 15L31 14L32 14L32 13L33 13L33 14L35 14L35 12L36 12L36 10L37 10L37 9L38 9L38 11L39 11L39 12L40 12L40 11L39 11L39 9L40 9L40 10L41 10L41 9L42 9L42 8L41 8L41 7L40 7L40 6L39 6L39 7L40 7L40 8L39 8L39 9L38 9L38 8L37 8L37 9L35 9L35 8L34 8L34 9L33 9L33 7L34 7L34 6L33 6L33 5L32 5L32 4ZM27 5L27 8L30 8L30 5ZM28 6L28 7L29 7L29 6ZM32 6L32 7L33 7L33 6ZM44 6L44 7L45 7L45 8L46 8L46 7L45 7L45 6ZM14 8L14 9L13 9L13 10L9 10L9 11L6 11L6 12L5 12L5 13L3 13L3 15L2 15L2 18L4 18L4 19L6 19L6 20L7 20L7 21L4 21L4 23L1 23L1 25L2 25L2 24L3 24L3 25L4 25L4 26L2 26L2 27L4 27L4 26L7 26L7 25L8 25L8 26L9 26L9 25L10 25L10 22L11 22L11 24L12 24L12 22L13 22L13 21L14 21L14 22L16 22L16 21L17 21L17 20L18 20L18 18L17 18L17 17L16 17L16 16L17 16L17 13L18 13L18 12L17 12L17 11L18 11L18 9L15 9L15 8ZM55 8L55 9L56 9L56 8ZM1 9L1 10L2 10L2 11L3 11L3 10L2 10L2 9ZM13 10L13 11L12 11L12 12L11 12L11 11L9 11L9 13L10 13L10 12L11 12L11 14L10 14L10 15L12 15L12 14L13 14L13 16L12 16L12 18L13 18L13 17L14 17L14 16L16 16L16 13L17 13L17 12L16 12L16 13L15 13L15 11L16 11L16 10ZM32 10L32 11L31 11L31 12L33 12L33 13L34 13L34 12L33 12L33 10ZM45 10L45 11L46 11L46 10ZM13 11L13 12L12 12L12 13L13 13L13 14L15 14L15 13L13 13L13 12L14 12L14 11ZM27 11L27 12L26 12L26 13L28 13L28 14L29 14L29 13L28 13L28 12L29 12L29 11ZM1 12L1 13L2 13L2 12ZM6 12L6 13L7 13L7 14L6 14L6 15L9 15L9 14L8 14L8 13L7 13L7 12ZM52 12L52 13L53 13L53 12ZM30 13L30 14L31 14L31 13ZM4 14L4 15L5 15L5 14ZM54 14L54 15L55 15L55 14ZM49 15L49 16L50 16L50 15ZM3 16L3 17L4 17L4 18L5 18L5 17L4 17L4 16ZM6 16L6 17L7 17L7 16ZM10 16L10 17L11 17L11 16ZM35 16L35 17L37 17L37 18L38 18L38 17L39 17L39 16L38 16L38 17L37 17L37 16ZM42 16L42 17L43 17L43 16ZM6 18L6 19L7 19L7 20L8 20L8 21L9 21L9 22L6 22L6 23L7 23L7 24L4 24L4 25L7 25L7 24L8 24L8 25L9 25L9 24L8 24L8 23L9 23L9 22L10 22L10 21L12 21L12 20L14 20L14 19L12 19L12 20L11 20L11 18L10 18L10 19L9 19L9 18ZM15 18L15 21L16 21L16 20L17 20L17 18ZM30 18L30 20L31 20L31 18ZM20 19L20 20L22 20L22 19ZM52 19L52 20L51 20L51 21L49 21L49 23L48 23L48 24L49 24L49 25L50 25L50 26L53 26L53 27L54 27L54 26L53 26L53 24L51 24L51 25L50 25L50 22L51 22L51 21L54 21L54 22L56 22L56 21L55 21L55 20L53 20L53 19ZM24 21L24 22L23 22L23 23L24 23L24 24L25 24L25 25L26 25L26 26L25 26L25 27L26 27L26 26L27 26L27 25L28 25L28 26L30 26L30 25L29 25L29 24L25 24L25 23L26 23L26 22L25 22L25 21ZM15 23L15 24L16 24L16 23ZM39 25L39 26L43 26L43 25ZM19 26L19 28L20 28L20 26ZM32 26L32 27L33 27L33 28L35 28L35 30L33 30L33 32L34 32L34 31L36 31L36 30L37 30L37 29L38 29L38 28L40 28L40 27L36 27L36 26L34 26L34 27L33 27L33 26ZM5 27L5 30L8 30L8 27ZM10 27L10 29L11 29L11 30L12 30L12 29L11 29L11 27ZM27 27L27 30L30 30L30 27ZM35 27L35 28L36 28L36 27ZM41 27L41 28L42 28L42 27ZM49 27L49 30L52 30L52 27ZM6 28L6 29L7 29L7 28ZM21 28L21 29L22 29L22 28ZM25 28L25 29L26 29L26 28ZM28 28L28 29L29 29L29 28ZM44 28L44 31L45 31L45 28ZM50 28L50 29L51 29L51 28ZM54 28L54 29L53 29L53 30L54 30L54 31L55 31L55 30L54 30L54 29L56 29L56 28ZM3 29L3 30L4 30L4 29ZM38 30L38 32L39 32L39 30ZM40 30L40 31L41 31L41 30ZM31 31L31 33L29 33L29 34L30 34L30 36L29 36L29 37L31 37L31 38L29 38L29 39L33 39L33 40L35 40L35 39L37 39L37 38L38 38L38 37L37 37L37 36L35 36L35 34L37 34L37 35L38 35L38 33L37 33L37 32L35 32L35 34L34 34L34 33L33 33L33 34L34 34L34 36L33 36L33 35L31 35L31 33L32 33L32 31ZM5 32L5 33L8 33L8 34L10 34L10 33L8 33L8 32ZM12 33L12 34L14 34L14 33ZM21 33L21 34L22 34L22 33ZM6 34L6 35L7 35L7 34ZM50 34L50 35L52 35L52 34ZM0 35L0 36L2 36L2 35ZM8 35L8 36L10 36L10 35ZM42 35L42 36L43 36L43 37L40 37L40 38L43 38L43 37L44 37L44 38L45 38L45 37L44 37L44 36L43 36L43 35ZM3 36L3 38L4 38L4 36ZM14 36L14 37L15 37L15 38L16 38L16 37L15 37L15 36ZM32 36L32 37L33 37L33 38L34 38L34 39L35 39L35 37L33 37L33 36ZM0 37L0 40L2 40L2 41L1 41L1 42L2 42L2 41L3 41L3 40L4 40L4 39L3 39L3 40L2 40L2 38L1 38L1 37ZM27 37L27 38L26 38L26 40L27 40L27 41L26 41L26 42L27 42L27 41L28 41L28 39L27 39L27 38L28 38L28 37ZM48 37L48 38L49 38L49 37ZM9 38L9 39L10 39L10 38ZM38 39L38 40L40 40L40 39ZM6 40L6 41L7 41L7 40ZM23 40L23 41L24 41L24 40ZM30 40L30 41L32 41L32 42L33 42L33 43L34 43L34 42L33 42L33 41L32 41L32 40ZM4 45L4 46L3 46L3 47L5 47L5 45ZM10 45L10 46L11 46L11 45ZM45 45L45 46L47 46L47 47L46 47L46 48L47 48L47 47L48 47L48 46L47 46L47 45ZM1 46L1 47L2 47L2 46ZM53 48L53 49L54 49L54 48ZM55 48L55 49L56 49L56 48ZM19 49L19 50L20 50L20 49ZM27 49L27 52L30 52L30 49ZM49 49L49 52L52 52L52 49ZM28 50L28 51L29 51L29 50ZM50 50L50 51L51 51L51 50ZM54 50L54 51L55 51L55 50ZM32 51L32 52L33 52L33 53L34 53L34 52L33 52L33 51ZM12 52L12 53L10 53L10 54L9 54L9 56L10 56L10 55L11 55L11 54L13 54L13 53L14 53L14 52ZM38 52L38 53L39 53L39 52ZM43 53L43 54L44 54L44 53ZM41 54L41 55L42 55L42 56L43 56L43 55L42 55L42 54ZM50 55L50 56L51 56L51 55ZM45 56L45 57L46 57L46 56ZM0 0L0 7L7 7L7 0ZM1 1L1 6L6 6L6 1ZM2 2L2 5L5 5L5 2ZM50 0L50 7L57 7L57 0ZM51 1L51 6L56 6L56 1ZM52 2L52 5L55 5L55 2ZM0 50L0 57L7 57L7 50ZM1 51L1 56L6 56L6 51ZM2 52L2 55L5 55L5 52Z" fill="#000000"/></g></g></svg>
