<?xml version="1.0" encoding="UTF-8"?>
<svg xmlns="http://www.w3.org/2000/svg" version="1.1" width="300" height="300" viewBox="0 0 300 300"><rect x="0" y="0" width="300" height="300" fill="#fefefe"/><g transform="scale(4.615)"><g transform="translate(4,4)"><path fill-rule="evenodd" d="M8 0L8 1L10 1L10 2L11 2L11 3L12 3L12 4L11 4L11 5L10 5L10 7L9 7L9 6L8 6L8 7L9 7L9 8L8 8L8 10L10 10L10 11L11 11L11 12L13 12L13 13L14 13L14 15L13 15L13 14L12 14L12 13L10 13L10 12L9 12L9 13L8 13L8 11L7 11L7 10L6 10L6 9L7 9L7 8L6 8L6 9L4 9L4 8L0 8L0 9L1 9L1 10L2 10L2 13L5 13L5 14L6 14L6 15L7 15L7 14L9 14L9 15L10 15L10 14L12 14L12 16L13 16L13 18L14 18L14 17L16 17L16 18L15 18L15 19L13 19L13 23L14 23L14 25L15 25L15 26L14 26L14 28L13 28L13 31L14 31L14 30L15 30L15 32L14 32L14 33L13 33L13 32L12 32L12 31L11 31L11 28L12 28L12 27L9 27L9 26L10 26L10 25L13 25L13 24L10 24L10 23L12 23L12 22L10 22L10 23L9 23L9 24L8 24L8 26L4 26L4 30L3 30L3 31L4 31L4 32L3 32L3 36L2 36L2 35L1 35L1 34L2 34L2 33L1 33L1 32L2 32L2 31L1 31L1 32L0 32L0 36L2 36L2 37L3 37L3 38L4 38L4 39L7 39L7 38L6 38L6 37L10 37L10 38L9 38L9 39L10 39L10 40L8 40L8 41L10 41L10 42L9 42L9 43L8 43L8 44L6 44L6 43L7 43L7 42L6 42L6 43L5 43L5 41L4 41L4 40L3 40L3 39L2 39L2 38L0 38L0 39L2 39L2 41L4 41L4 42L2 42L2 43L1 43L1 42L0 42L0 48L5 48L5 47L7 47L7 48L6 48L6 49L7 49L7 48L8 48L8 50L9 50L9 51L10 51L10 52L9 52L9 53L8 53L8 57L9 57L9 54L10 54L10 57L11 57L11 53L12 53L12 54L13 54L13 55L12 55L12 57L13 57L13 55L14 55L14 54L15 54L15 56L14 56L14 57L15 57L15 56L16 56L16 57L18 57L18 56L19 56L19 57L23 57L23 56L22 56L22 55L23 55L23 54L25 54L25 55L24 55L24 57L25 57L25 55L26 55L26 56L28 56L28 55L26 55L26 54L27 54L27 53L29 53L29 54L31 54L31 55L30 55L30 56L31 56L31 57L32 57L32 55L34 55L34 56L33 56L33 57L36 57L36 55L38 55L38 57L41 57L41 56L39 56L39 55L41 55L41 54L42 54L42 57L43 57L43 55L44 55L44 56L45 56L45 57L46 57L46 55L49 55L49 56L48 56L48 57L51 57L51 54L52 54L52 53L54 53L54 52L56 52L56 53L55 53L55 54L56 54L56 53L57 53L57 51L56 51L56 49L57 49L57 48L56 48L56 49L55 49L55 48L54 48L54 47L57 47L57 45L56 45L56 46L54 46L54 45L55 45L55 44L56 44L56 42L54 42L54 41L55 41L55 38L56 38L56 39L57 39L57 38L56 38L56 37L55 37L55 36L54 36L54 35L56 35L56 36L57 36L57 31L56 31L56 30L57 30L57 28L56 28L56 24L55 24L55 27L53 27L53 25L54 25L54 23L57 23L57 19L56 19L56 18L57 18L57 15L54 15L54 10L53 10L53 13L52 13L52 12L51 12L51 11L52 11L52 9L55 9L55 8L52 8L52 9L51 9L51 11L49 11L49 10L50 10L50 8L48 8L48 9L47 9L47 10L46 10L46 11L47 11L47 10L48 10L48 11L49 11L49 16L50 16L50 17L52 17L52 15L51 15L51 13L52 13L52 14L53 14L53 16L55 16L55 17L54 17L54 18L51 18L51 19L56 19L56 22L54 22L54 21L55 21L55 20L54 20L54 21L53 21L53 20L50 20L50 19L49 19L49 20L50 20L50 21L51 21L51 22L52 22L52 23L53 23L53 25L52 25L52 26L51 26L51 25L50 25L50 24L51 24L51 23L50 23L50 24L49 24L49 23L47 23L47 22L49 22L49 21L48 21L48 19L47 19L47 18L48 18L48 14L47 14L47 15L45 15L45 14L46 14L46 13L44 13L44 10L45 10L45 9L43 9L43 8L40 8L40 7L41 7L41 6L42 6L42 7L43 7L43 5L45 5L45 4L44 4L44 3L45 3L45 1L47 1L47 2L46 2L46 3L47 3L47 5L46 5L46 7L45 7L45 6L44 6L44 8L46 8L46 7L47 7L47 5L48 5L48 0L45 0L45 1L44 1L44 2L41 2L41 1L43 1L43 0L41 0L41 1L40 1L40 0L39 0L39 1L40 1L40 2L41 2L41 3L43 3L43 5L41 5L41 4L37 4L37 3L38 3L38 2L37 2L37 1L38 1L38 0L37 0L37 1L36 1L36 0L35 0L35 1L34 1L34 2L32 2L32 1L33 1L33 0L32 0L32 1L31 1L31 0L27 0L27 2L28 2L28 1L29 1L29 3L30 3L30 4L26 4L26 2L24 2L24 3L23 3L23 4L21 4L21 5L20 5L20 4L19 4L19 3L20 3L20 0L18 0L18 1L16 1L16 2L15 2L15 3L17 3L17 5L15 5L15 4L14 4L14 3L13 3L13 2L11 2L11 1L12 1L12 0L11 0L11 1L10 1L10 0ZM14 0L14 1L15 1L15 0ZM21 0L21 2L23 2L23 1L26 1L26 0L23 0L23 1L22 1L22 0ZM35 1L35 2L36 2L36 1ZM8 2L8 5L9 5L9 2ZM18 2L18 3L19 3L19 2ZM30 2L30 3L31 3L31 2ZM32 3L32 4L31 4L31 5L32 5L32 6L31 6L31 9L32 9L32 10L31 10L31 11L32 11L32 13L33 13L33 10L34 10L34 11L35 11L35 10L36 10L36 12L38 12L38 11L40 11L40 15L41 15L41 16L40 16L40 17L39 17L39 15L36 15L36 14L35 14L35 12L34 12L34 14L33 14L33 15L35 15L35 16L34 16L34 17L35 17L35 18L34 18L34 19L33 19L33 17L31 17L31 16L32 16L32 14L31 14L31 12L30 12L30 11L28 11L28 10L26 10L26 11L25 11L25 12L24 12L24 11L20 11L20 10L21 10L21 8L23 8L23 7L24 7L24 9L26 9L26 6L25 6L25 5L26 5L26 4L24 4L24 6L23 6L23 7L22 7L22 6L21 6L21 7L20 7L20 6L19 6L19 7L18 7L18 6L17 6L17 7L16 7L16 6L15 6L15 7L14 7L14 6L13 6L13 5L14 5L14 4L12 4L12 5L11 5L11 7L10 7L10 10L11 10L11 8L13 8L13 9L12 9L12 11L13 11L13 10L14 10L14 11L15 11L15 15L16 15L16 16L17 16L17 18L18 18L18 21L17 21L17 22L18 22L18 21L19 21L19 22L22 22L22 23L20 23L20 24L21 24L21 26L20 26L20 25L19 25L19 27L16 27L16 26L17 26L17 24L18 24L18 23L16 23L16 19L15 19L15 20L14 20L14 23L16 23L16 24L15 24L15 25L16 25L16 26L15 26L15 28L17 28L17 30L16 30L16 29L15 29L15 30L16 30L16 32L15 32L15 34L17 34L17 33L16 33L16 32L17 32L17 30L19 30L19 31L18 31L18 35L17 35L17 36L16 36L16 35L14 35L14 34L13 34L13 33L12 33L12 34L10 34L10 33L11 33L11 31L9 31L9 32L8 32L8 33L6 33L6 32L7 32L7 31L5 31L5 34L9 34L9 35L11 35L11 36L12 36L12 37L11 37L11 38L13 38L13 40L12 40L12 39L11 39L11 40L10 40L10 41L11 41L11 42L10 42L10 43L11 43L11 44L10 44L10 45L12 45L12 48L11 48L11 47L10 47L10 46L9 46L9 45L6 45L6 44L5 44L5 43L3 43L3 44L5 44L5 46L3 46L3 47L5 47L5 46L7 46L7 47L8 47L8 48L10 48L10 51L11 51L11 50L12 50L12 51L13 51L13 50L12 50L12 49L13 49L13 48L14 48L14 50L17 50L17 51L16 51L16 52L12 52L12 53L13 53L13 54L14 54L14 53L16 53L16 54L17 54L17 53L18 53L18 54L19 54L19 52L20 52L20 50L19 50L19 49L16 49L16 47L18 47L18 48L19 48L19 46L17 46L17 45L19 45L19 44L22 44L22 46L21 46L21 45L20 45L20 46L21 46L21 47L20 47L20 48L21 48L21 53L20 53L20 55L19 55L19 56L20 56L20 55L22 55L22 54L23 54L23 52L24 52L24 53L25 53L25 52L26 52L26 51L24 51L24 50L26 50L26 48L27 48L27 47L28 47L28 48L29 48L29 47L30 47L30 48L32 48L32 49L31 49L31 53L32 53L32 51L33 51L33 53L36 53L36 54L34 54L34 55L36 55L36 54L37 54L37 51L36 51L36 52L35 52L35 49L34 49L34 48L33 48L33 47L34 47L34 46L35 46L35 44L36 44L36 47L35 47L35 48L37 48L37 49L36 49L36 50L37 50L37 49L38 49L38 48L39 48L39 49L40 49L40 50L39 50L39 51L38 51L38 52L40 52L40 54L41 54L41 52L42 52L42 51L46 51L46 50L47 50L47 52L48 52L48 48L47 48L47 47L49 47L49 48L50 48L50 47L49 47L49 46L51 46L51 48L53 48L53 50L55 50L55 49L54 49L54 48L53 48L53 47L52 47L52 46L53 46L53 44L55 44L55 43L54 43L54 42L53 42L53 43L52 43L52 46L51 46L51 42L50 42L50 41L52 41L52 40L53 40L53 39L54 39L54 38L53 38L53 36L52 36L52 35L51 35L51 37L50 37L50 36L49 36L49 35L48 35L48 36L44 36L44 37L42 37L42 38L44 38L44 39L43 39L43 40L42 40L42 39L40 39L40 41L37 41L37 40L38 40L38 39L39 39L39 38L38 38L38 39L37 39L37 37L38 37L38 36L40 36L40 37L41 37L41 35L42 35L42 36L43 36L43 35L42 35L42 34L41 34L41 35L38 35L38 36L37 36L37 37L34 37L34 38L36 38L36 39L35 39L35 40L34 40L34 41L36 41L36 42L34 42L34 43L35 43L35 44L34 44L34 45L33 45L33 42L32 42L32 46L31 46L31 43L30 43L30 44L28 44L28 43L27 43L27 42L25 42L25 41L26 41L26 40L27 40L27 39L25 39L25 38L29 38L29 36L32 36L32 38L30 38L30 39L28 39L28 41L30 41L30 42L31 42L31 41L30 41L30 40L33 40L33 39L32 39L32 38L33 38L33 36L32 36L32 34L33 34L33 35L34 35L34 36L36 36L36 35L35 35L35 33L33 33L33 29L31 29L31 34L30 34L30 35L29 35L29 33L30 33L30 31L23 31L23 30L21 30L21 29L23 29L23 28L24 28L24 30L26 30L26 28L24 28L24 27L22 27L22 25L23 25L23 26L25 26L25 25L27 25L27 26L28 26L28 25L29 25L29 24L30 24L30 26L31 26L31 23L32 23L32 22L33 22L33 24L32 24L32 25L33 25L33 24L35 24L35 23L36 23L36 24L37 24L37 22L38 22L38 23L39 23L39 24L38 24L38 25L39 25L39 26L38 26L38 27L39 27L39 26L40 26L40 25L41 25L41 23L39 23L39 20L40 20L40 19L39 19L39 18L41 18L41 19L42 19L42 18L43 18L43 21L44 21L44 22L45 22L45 19L46 19L46 20L47 20L47 19L46 19L46 17L42 17L42 14L43 14L43 12L42 12L42 11L43 11L43 10L42 10L42 11L40 11L40 9L38 9L38 10L37 10L37 8L39 8L39 7L40 7L40 5L38 5L38 6L37 6L37 5L36 5L36 4L34 4L34 5L33 5L33 3ZM27 5L27 8L30 8L30 5ZM12 6L12 7L13 7L13 6ZM24 6L24 7L25 7L25 6ZM28 6L28 7L29 7L29 6ZM32 6L32 8L33 8L33 6ZM34 6L34 9L36 9L36 8L37 8L37 6L36 6L36 7L35 7L35 6ZM38 6L38 7L39 7L39 6ZM48 6L48 7L49 7L49 6ZM19 7L19 10L20 10L20 7ZM15 8L15 9L16 9L16 8ZM17 8L17 11L16 11L16 10L15 10L15 11L16 11L16 13L17 13L17 12L18 12L18 13L19 13L19 15L18 15L18 14L16 14L16 15L17 15L17 16L19 16L19 17L18 17L18 18L19 18L19 20L20 20L20 18L19 18L19 17L21 17L21 19L22 19L22 17L21 17L21 15L20 15L20 14L21 14L21 13L20 13L20 12L18 12L18 8ZM56 8L56 9L57 9L57 8ZM2 9L2 10L4 10L4 11L3 11L3 12L4 12L4 11L5 11L5 12L7 12L7 11L5 11L5 10L4 10L4 9ZM22 9L22 10L23 10L23 9ZM55 10L55 11L56 11L56 12L57 12L57 10ZM0 11L0 12L1 12L1 11ZM22 12L22 13L23 13L23 12ZM26 12L26 13L25 13L25 14L24 14L24 15L23 15L23 18L24 18L24 19L25 19L25 22L24 22L24 21L23 21L23 20L21 20L21 21L22 21L22 22L23 22L23 25L25 25L25 22L27 22L27 23L26 23L26 24L29 24L29 23L31 23L31 21L29 21L29 20L28 20L28 19L30 19L30 20L32 20L32 19L30 19L30 17L29 17L29 16L31 16L31 14L30 14L30 13L28 13L28 12ZM50 12L50 13L51 13L51 12ZM6 13L6 14L7 14L7 13ZM9 13L9 14L10 14L10 13ZM26 13L26 14L27 14L27 13ZM1 14L1 15L0 15L0 17L1 17L1 16L2 16L2 14ZM3 14L3 18L5 18L5 19L7 19L7 20L6 20L6 21L5 21L5 20L4 20L4 21L5 21L5 22L4 22L4 23L5 23L5 24L6 24L6 25L7 25L7 24L6 24L6 23L7 23L7 22L6 22L6 21L7 21L7 20L8 20L8 22L9 22L9 21L12 21L12 18L11 18L11 16L10 16L10 18L9 18L9 19L10 19L10 20L8 20L8 18L6 18L6 17L7 17L7 16L4 16L4 14ZM19 15L19 16L20 16L20 15ZM24 15L24 16L25 16L25 17L24 17L24 18L25 18L25 19L26 19L26 18L25 18L25 17L27 17L27 19L28 19L28 18L29 18L29 17L27 17L27 15L26 15L26 16L25 16L25 15ZM28 15L28 16L29 16L29 15ZM44 15L44 16L45 16L45 15ZM50 15L50 16L51 16L51 15ZM8 16L8 17L9 17L9 16ZM36 17L36 18L37 18L37 17ZM41 17L41 18L42 18L42 17ZM55 17L55 18L56 18L56 17ZM10 18L10 19L11 19L11 18ZM44 18L44 19L45 19L45 18ZM0 19L0 20L2 20L2 21L1 21L1 22L0 22L0 23L1 23L1 24L2 24L2 25L3 25L3 24L2 24L2 21L3 21L3 19ZM34 19L34 21L35 21L35 22L37 22L37 21L36 21L36 20L38 20L38 19L36 19L36 20L35 20L35 19ZM26 20L26 21L27 21L27 22L28 22L28 23L29 23L29 22L28 22L28 21L27 21L27 20ZM41 20L41 21L42 21L42 20ZM46 21L46 22L47 22L47 21ZM5 22L5 23L6 23L6 22ZM42 22L42 23L43 23L43 22ZM44 23L44 25L42 25L42 26L45 26L45 29L42 29L42 30L40 30L40 29L41 29L41 27L40 27L40 29L38 29L38 30L36 30L36 29L37 29L37 27L35 27L35 25L34 25L34 27L35 27L35 28L34 28L34 29L35 29L35 31L37 31L37 32L36 32L36 33L37 33L37 32L38 32L38 34L39 34L39 31L40 31L40 32L41 32L41 31L44 31L44 34L45 34L45 35L47 35L47 34L50 34L50 33L49 33L49 32L48 32L48 30L47 30L47 31L44 31L44 30L46 30L46 26L47 26L47 27L48 27L48 26L50 26L50 25L49 25L49 24L48 24L48 26L47 26L47 23ZM9 24L9 25L10 25L10 24ZM45 24L45 26L46 26L46 24ZM0 25L0 30L1 30L1 29L2 29L2 28L1 28L1 27L3 27L3 26L1 26L1 25ZM5 27L5 30L8 30L8 27ZM27 27L27 30L30 30L30 27ZM31 27L31 28L33 28L33 27ZM42 27L42 28L43 28L43 27ZM49 27L49 30L52 30L52 27ZM6 28L6 29L7 29L7 28ZM9 28L9 29L10 29L10 28ZM18 28L18 29L19 29L19 28ZM20 28L20 29L21 29L21 28ZM28 28L28 29L29 29L29 28ZM50 28L50 29L51 29L51 28ZM53 28L53 30L54 30L54 28ZM55 29L55 30L56 30L56 29ZM38 30L38 31L39 31L39 30ZM22 31L22 32L19 32L19 34L20 34L20 35L21 35L21 36L23 36L23 39L21 39L21 38L20 38L20 37L19 37L19 35L18 35L18 36L17 36L17 38L15 38L15 37L14 37L14 36L13 36L13 35L12 35L12 36L13 36L13 37L14 37L14 39L15 39L15 41L14 41L14 43L13 43L13 42L11 42L11 43L12 43L12 44L13 44L13 46L15 46L15 47L14 47L14 48L15 48L15 47L16 47L16 46L15 46L15 45L17 45L17 42L18 42L18 43L19 43L19 41L16 41L16 39L17 39L17 40L18 40L18 39L17 39L17 38L18 38L18 37L19 37L19 40L20 40L20 41L22 41L22 44L23 44L23 45L24 45L24 47L25 47L25 45L26 45L26 46L28 46L28 47L29 47L29 46L30 46L30 45L29 45L29 46L28 46L28 44L27 44L27 45L26 45L26 43L25 43L25 44L24 44L24 42L23 42L23 41L22 41L22 40L23 40L23 39L24 39L24 41L25 41L25 39L24 39L24 37L25 37L25 36L23 36L23 35L24 35L24 34L25 34L25 32L24 32L24 33L23 33L23 31ZM50 31L50 32L51 32L51 31ZM52 31L52 34L54 34L54 32L55 32L55 31ZM9 32L9 33L10 33L10 32ZM27 32L27 33L26 33L26 34L27 34L27 36L26 36L26 37L27 37L27 36L29 36L29 35L28 35L28 34L27 34L27 33L28 33L28 32ZM42 32L42 33L43 33L43 32ZM46 32L46 33L47 33L47 32ZM20 33L20 34L21 34L21 35L22 35L22 34L23 34L23 33L22 33L22 34L21 34L21 33ZM55 33L55 34L56 34L56 33ZM4 35L4 36L5 36L5 37L6 37L6 36L8 36L8 35L6 35L6 36L5 36L5 35ZM45 37L45 39L44 39L44 40L43 40L43 42L42 42L42 40L41 40L41 41L40 41L40 42L42 42L42 43L41 43L41 44L38 44L38 43L39 43L39 42L37 42L37 44L38 44L38 45L37 45L37 47L38 47L38 45L39 45L39 47L43 47L43 49L44 49L44 47L43 47L43 45L42 45L42 43L43 43L43 42L44 42L44 44L49 44L49 43L50 43L50 42L49 42L49 43L48 43L48 42L47 42L47 41L50 41L50 40L51 40L51 39L50 39L50 40L47 40L47 39L48 39L48 38L49 38L49 37L47 37L47 38L46 38L46 37ZM51 37L51 38L52 38L52 39L53 39L53 38L52 38L52 37ZM45 39L45 41L46 41L46 39ZM0 40L0 41L1 41L1 40ZM6 40L6 41L7 41L7 40ZM56 40L56 41L57 41L57 40ZM15 42L15 43L16 43L16 42ZM20 42L20 43L21 43L21 42ZM45 42L45 43L47 43L47 42ZM1 44L1 47L2 47L2 44ZM14 44L14 45L15 45L15 44ZM44 45L44 46L45 46L45 45ZM48 45L48 46L49 46L49 45ZM22 46L22 47L21 47L21 48L23 48L23 49L22 49L22 50L23 50L23 49L24 49L24 48L23 48L23 46ZM32 46L32 47L33 47L33 46ZM46 46L46 47L45 47L45 50L46 50L46 49L47 49L47 48L46 48L46 47L47 47L47 46ZM41 48L41 49L42 49L42 48ZM27 49L27 52L30 52L30 49ZM32 49L32 50L33 50L33 51L34 51L34 49ZM49 49L49 52L52 52L52 49ZM18 50L18 51L17 51L17 52L19 52L19 50ZM28 50L28 51L29 51L29 50ZM50 50L50 51L51 51L51 50ZM22 51L22 52L23 52L23 51ZM40 51L40 52L41 52L41 51ZM45 52L45 53L46 53L46 52ZM21 53L21 54L22 54L22 53ZM38 53L38 54L39 54L39 53ZM42 53L42 54L43 54L43 53ZM47 53L47 54L50 54L50 53ZM44 54L44 55L45 55L45 54ZM53 54L53 56L52 56L52 57L55 57L55 56L54 56L54 54ZM17 55L17 56L18 56L18 55ZM56 55L56 56L57 56L57 55ZM0 0L0 7L7 7L7 0ZM1 1L1 6L6 6L6 1ZM2 2L2 5L5 5L5 2ZM50 0L50 7L57 7L57 0ZM51 1L51 6L56 6L56 1ZM52 2L52 5L55 5L55 2ZM0 50L0 57L7 57L7 50ZM1 51L1 56L6 56L6 51ZM2 52L2 55L5 55L5 52Z" fill="#000000"/></g></g></svg>
