<?xml version="1.0" encoding="UTF-8"?>
<svg xmlns="http://www.w3.org/2000/svg" version="1.1" width="300" height="300" viewBox="0 0 300 300"><rect x="0" y="0" width="300" height="300" fill="#fefefe"/><g transform="scale(4.615)"><g transform="translate(4,4)"><path fill-rule="evenodd" d="M8 0L8 2L9 2L9 3L10 3L10 2L9 2L9 0ZM11 0L11 1L12 1L12 0ZM14 0L14 3L13 3L13 5L14 5L14 7L13 7L13 6L12 6L12 7L11 7L11 4L12 4L12 3L11 3L11 4L8 4L8 10L9 10L9 9L10 9L10 10L11 10L11 12L13 12L13 10L14 10L14 9L15 9L15 11L14 11L14 12L15 12L15 11L16 11L16 12L17 12L17 14L15 14L15 15L14 15L14 14L11 14L11 13L10 13L10 12L9 12L9 13L8 13L8 11L7 11L7 10L6 10L6 11L5 11L5 9L7 9L7 8L5 8L5 9L4 9L4 12L3 12L3 13L2 13L2 12L1 12L1 13L2 13L2 15L1 15L1 14L0 14L0 16L1 16L1 20L0 20L0 23L2 23L2 26L1 26L1 27L0 27L0 29L1 29L1 27L2 27L2 30L1 30L1 31L3 31L3 36L2 36L2 37L3 37L3 36L4 36L4 37L7 37L7 36L4 36L4 35L9 35L9 34L11 34L11 35L12 35L12 36L8 36L8 37L12 37L12 38L11 38L11 42L10 42L10 41L9 41L9 40L10 40L10 39L9 39L9 40L6 40L6 41L5 41L5 40L3 40L3 39L4 39L4 38L0 38L0 39L2 39L2 40L1 40L1 41L0 41L0 45L1 45L1 41L2 41L2 42L4 42L4 44L3 44L3 45L2 45L2 47L1 47L1 46L0 46L0 48L5 48L5 47L7 47L7 48L6 48L6 49L8 49L8 50L9 50L9 51L8 51L8 52L9 52L9 54L8 54L8 57L9 57L9 56L10 56L10 57L11 57L11 51L10 51L10 49L11 49L11 50L12 50L12 47L15 47L15 48L14 48L14 49L13 49L13 50L14 50L14 49L15 49L15 50L16 50L16 49L15 49L15 48L16 48L16 47L17 47L17 48L18 48L18 50L17 50L17 52L15 52L15 51L13 51L13 52L14 52L14 53L15 53L15 55L14 55L14 56L15 56L15 57L17 57L17 55L18 55L18 54L19 54L19 50L20 50L20 49L19 49L19 48L22 48L22 51L24 51L24 52L22 52L22 54L20 54L20 55L21 55L21 56L22 56L22 57L25 57L25 55L26 55L26 57L28 57L28 55L29 55L29 57L33 57L33 55L30 55L30 54L31 54L31 53L32 53L32 54L34 54L34 57L35 57L35 55L37 55L37 54L36 54L36 53L37 53L37 51L38 51L38 53L39 53L39 55L40 55L40 57L41 57L41 55L40 55L40 54L42 54L42 57L43 57L43 56L44 56L44 57L50 57L50 55L49 55L49 54L52 54L52 55L53 55L53 56L51 56L51 57L53 57L53 56L54 56L54 55L57 55L57 54L54 54L54 53L57 53L57 49L56 49L56 47L57 47L57 45L56 45L56 47L55 47L55 49L56 49L56 52L54 52L54 51L53 51L53 50L54 50L54 49L53 49L53 48L52 48L52 47L53 47L53 46L54 46L54 45L53 45L53 44L54 44L54 43L55 43L55 44L56 44L56 43L57 43L57 42L56 42L56 41L57 41L57 40L54 40L54 38L57 38L57 37L56 37L56 36L57 36L57 33L56 33L56 31L57 31L57 28L56 28L56 27L57 27L57 24L56 24L56 23L57 23L57 20L56 20L56 19L57 19L57 12L55 12L55 13L56 13L56 15L55 15L55 16L56 16L56 17L54 17L54 13L53 13L53 12L54 12L54 11L55 11L55 9L57 9L57 8L55 8L55 9L54 9L54 10L53 10L53 8L49 8L49 10L48 10L48 9L47 9L47 10L48 10L48 11L46 11L46 8L44 8L44 9L43 9L43 8L42 8L42 7L43 7L43 6L44 6L44 7L45 7L45 6L46 6L46 7L47 7L47 8L48 8L48 7L49 7L49 6L48 6L48 7L47 7L47 5L48 5L48 0L42 0L42 1L41 1L41 0L38 0L38 2L37 2L37 1L35 1L35 0L34 0L34 2L33 2L33 4L34 4L34 5L33 5L33 6L32 6L32 7L33 7L33 6L34 6L34 8L32 8L32 9L31 9L31 5L32 5L32 2L31 2L31 4L30 4L30 3L29 3L29 4L28 4L28 3L27 3L27 1L28 1L28 2L30 2L30 1L33 1L33 0L30 0L30 1L28 1L28 0L26 0L26 2L25 2L25 4L24 4L24 1L25 1L25 0L24 0L24 1L23 1L23 0L19 0L19 3L21 3L21 5L20 5L20 7L19 7L19 4L18 4L18 3L17 3L17 4L16 4L16 2L18 2L18 1L17 1L17 0L16 0L16 2L15 2L15 0ZM20 1L20 2L21 2L21 1ZM39 1L39 2L40 2L40 4L39 4L39 3L38 3L38 4L37 4L37 2L34 2L34 4L35 4L35 9L34 9L34 10L33 10L33 9L32 9L32 11L31 11L31 12L30 12L30 11L29 11L29 10L28 10L28 9L27 9L27 10L25 10L25 9L26 9L26 5L24 5L24 6L23 6L23 5L22 5L22 6L21 6L21 9L20 9L20 8L19 8L19 7L18 7L18 4L17 4L17 5L16 5L16 6L15 6L15 8L16 8L16 11L17 11L17 10L18 10L18 8L19 8L19 9L20 9L20 10L21 10L21 11L18 11L18 12L19 12L19 13L18 13L18 14L19 14L19 15L18 15L18 16L17 16L17 15L15 15L15 16L16 16L16 20L17 20L17 21L18 21L18 20L17 20L17 18L19 18L19 19L20 19L20 20L19 20L19 22L16 22L16 23L18 23L18 24L17 24L17 25L16 25L16 27L14 27L14 26L15 26L15 23L12 23L12 25L11 25L11 26L10 26L10 24L11 24L11 23L9 23L9 22L10 22L10 21L12 21L12 22L13 22L13 21L12 21L12 20L10 20L10 19L13 19L13 18L14 18L14 15L11 15L11 17L9 17L9 16L10 16L10 15L9 15L9 14L10 14L10 13L9 13L9 14L8 14L8 15L6 15L6 14L7 14L7 13L6 13L6 14L5 14L5 12L4 12L4 15L5 15L5 16L4 16L4 17L3 17L3 15L2 15L2 17L3 17L3 18L4 18L4 20L2 20L2 21L3 21L3 22L2 22L2 23L3 23L3 22L4 22L4 23L5 23L5 24L3 24L3 25L5 25L5 24L8 24L8 25L9 25L9 26L10 26L10 27L9 27L9 29L10 29L10 28L11 28L11 30L10 30L10 33L11 33L11 34L12 34L12 33L13 33L13 32L12 32L12 31L14 31L14 32L15 32L15 33L14 33L14 34L13 34L13 37L14 37L14 38L13 38L13 39L12 39L12 40L13 40L13 39L14 39L14 40L15 40L15 41L14 41L14 42L13 42L13 43L12 43L12 45L10 45L10 44L11 44L11 43L9 43L9 42L7 42L7 41L6 41L6 42L7 42L7 43L6 43L6 44L4 44L4 46L3 46L3 47L5 47L5 46L8 46L8 43L9 43L9 45L10 45L10 46L13 46L13 45L14 45L14 44L15 44L15 45L16 45L16 46L17 46L17 44L15 44L15 43L16 43L16 42L18 42L18 39L19 39L19 38L18 38L18 39L16 39L16 38L17 38L17 37L18 37L18 36L21 36L21 38L20 38L20 39L21 39L21 41L20 41L20 40L19 40L19 41L20 41L20 42L19 42L19 43L18 43L18 44L19 44L19 43L20 43L20 42L21 42L21 44L20 44L20 46L22 46L22 48L23 48L23 49L24 49L24 51L25 51L25 54L24 54L24 55L25 55L25 54L26 54L26 55L28 55L28 53L26 53L26 51L25 51L25 49L26 49L26 48L27 48L27 46L26 46L26 45L24 45L24 44L25 44L25 42L26 42L26 41L25 41L25 40L26 40L26 39L27 39L27 40L29 40L29 41L28 41L28 42L27 42L27 43L30 43L30 44L29 44L29 45L28 45L28 46L29 46L29 47L28 47L28 48L31 48L31 52L32 52L32 50L33 50L33 49L32 49L32 48L35 48L35 49L34 49L34 52L35 52L35 53L34 53L34 54L35 54L35 53L36 53L36 52L35 52L35 51L37 51L37 49L36 49L36 48L37 48L37 47L38 47L38 51L39 51L39 49L40 49L40 51L41 51L41 53L42 53L42 54L43 54L43 55L44 55L44 56L45 56L45 55L46 55L46 56L48 56L48 54L49 54L49 53L47 53L47 52L48 52L48 51L47 51L47 49L45 49L45 51L47 51L47 52L46 52L46 54L45 54L45 55L44 55L44 52L43 52L43 53L42 53L42 51L41 51L41 49L42 49L42 50L44 50L44 46L43 46L43 45L44 45L44 44L45 44L45 43L46 43L46 42L47 42L47 43L48 43L48 42L49 42L49 45L48 45L48 46L49 46L49 45L50 45L50 46L51 46L51 47L52 47L52 46L53 46L53 45L52 45L52 46L51 46L51 45L50 45L50 42L49 42L49 41L51 41L51 40L48 40L48 37L49 37L49 36L50 36L50 33L51 33L51 36L53 36L53 37L52 37L52 38L51 38L51 37L50 37L50 38L51 38L51 39L52 39L52 44L53 44L53 38L54 38L54 36L55 36L55 33L53 33L53 31L51 31L51 32L50 32L50 33L49 33L49 36L48 36L48 37L46 37L46 36L47 36L47 35L45 35L45 37L46 37L46 38L47 38L47 40L46 40L46 39L45 39L45 40L46 40L46 42L45 42L45 41L44 41L44 43L42 43L42 42L43 42L43 41L42 41L42 40L43 40L43 38L44 38L44 35L43 35L43 33L42 33L42 31L44 31L44 26L45 26L45 27L46 27L46 26L47 26L47 28L46 28L46 29L45 29L45 30L46 30L46 31L45 31L45 33L46 33L46 34L48 34L48 33L46 33L46 32L47 32L47 30L48 30L48 29L47 29L47 28L48 28L48 26L52 26L52 23L54 23L54 24L53 24L53 25L54 25L54 26L55 26L55 25L56 25L56 24L55 24L55 23L56 23L56 21L55 21L55 19L56 19L56 18L55 18L55 19L54 19L54 17L52 17L52 16L53 16L53 14L52 14L52 13L50 13L50 11L48 11L48 14L47 14L47 13L46 13L46 11L45 11L45 9L44 9L44 10L43 10L43 9L42 9L42 10L43 10L43 11L44 11L44 12L42 12L42 11L41 11L41 12L42 12L42 15L41 15L41 17L42 17L42 18L43 18L43 17L44 17L44 19L42 19L42 20L43 20L43 21L42 21L42 22L43 22L43 23L41 23L41 22L40 22L40 19L41 19L41 18L40 18L40 14L41 14L41 13L40 13L40 14L39 14L39 12L37 12L37 11L38 11L38 10L39 10L39 9L40 9L40 8L41 8L41 7L42 7L42 6L43 6L43 5L44 5L44 6L45 6L45 5L44 5L44 4L45 4L45 2L47 2L47 1L42 1L42 3L41 3L41 2L40 2L40 1ZM22 2L22 4L23 4L23 2ZM43 2L43 3L42 3L42 5L41 5L41 6L40 6L40 7L41 7L41 6L42 6L42 5L43 5L43 4L44 4L44 2ZM14 3L14 4L15 4L15 3ZM26 3L26 4L27 4L27 3ZM35 3L35 4L36 4L36 3ZM46 3L46 5L47 5L47 3ZM38 4L38 5L39 5L39 4ZM27 5L27 8L30 8L30 5ZM9 6L9 7L10 7L10 8L11 8L11 7L10 7L10 6ZM16 6L16 7L17 7L17 8L18 8L18 7L17 7L17 6ZM22 6L22 7L23 7L23 6ZM24 6L24 7L25 7L25 6ZM28 6L28 7L29 7L29 6ZM36 6L36 10L34 10L34 11L32 11L32 13L31 13L31 14L32 14L32 13L33 13L33 15L31 15L31 16L30 16L30 15L29 15L29 13L30 13L30 12L29 12L29 11L28 11L28 10L27 10L27 11L28 11L28 12L27 12L27 14L28 14L28 15L29 15L29 16L30 16L30 17L28 17L28 18L30 18L30 17L31 17L31 20L32 20L32 21L33 21L33 22L30 22L30 19L29 19L29 20L28 20L28 19L27 19L27 20L26 20L26 18L27 18L27 16L26 16L26 11L25 11L25 10L24 10L24 9L25 9L25 8L22 8L22 9L21 9L21 10L22 10L22 9L23 9L23 10L24 10L24 11L22 11L22 12L23 12L23 14L24 14L24 12L25 12L25 16L26 16L26 18L24 18L24 16L22 16L22 14L21 14L21 16L20 16L20 15L19 15L19 16L18 16L18 17L19 17L19 18L20 18L20 19L22 19L22 21L21 21L21 20L20 20L20 21L21 21L21 22L20 22L20 23L21 23L21 24L22 24L22 25L21 25L21 26L20 26L20 28L21 28L21 30L20 30L20 29L19 29L19 31L18 31L18 30L17 30L17 31L16 31L16 30L15 30L15 29L14 29L14 31L16 31L16 33L15 33L15 34L14 34L14 35L16 35L16 37L17 37L17 35L16 35L16 33L17 33L17 31L18 31L18 33L19 33L19 34L18 34L18 35L21 35L21 36L22 36L22 38L21 38L21 39L22 39L22 41L21 41L21 42L22 42L22 41L23 41L23 43L22 43L22 44L23 44L23 43L24 43L24 40L23 40L23 39L22 39L22 38L23 38L23 35L25 35L25 36L24 36L24 37L25 37L25 36L26 36L26 35L25 35L25 34L24 34L24 32L23 32L23 31L25 31L25 30L26 30L26 32L25 32L25 33L26 33L26 34L28 34L28 35L27 35L27 36L28 36L28 37L29 37L29 36L28 36L28 35L31 35L31 36L30 36L30 40L31 40L31 38L34 38L34 41L33 41L33 40L32 40L32 43L31 43L31 42L30 42L30 41L29 41L29 42L30 42L30 43L31 43L31 44L30 44L30 45L29 45L29 46L30 46L30 47L31 47L31 48L32 48L32 47L34 47L34 45L33 45L33 44L36 44L36 45L35 45L35 46L36 46L36 47L37 47L37 46L38 46L38 45L37 45L37 44L39 44L39 43L40 43L40 45L39 45L39 47L40 47L40 49L41 49L41 47L42 47L42 45L43 45L43 44L42 44L42 45L41 45L41 43L40 43L40 42L42 42L42 41L41 41L41 40L42 40L42 39L41 39L41 38L42 38L42 37L43 37L43 35L42 35L42 37L41 37L41 35L40 35L40 36L39 36L39 34L38 34L38 33L39 33L39 32L40 32L40 34L42 34L42 33L41 33L41 32L40 32L40 31L38 31L38 30L37 30L37 31L36 31L36 29L37 29L37 28L38 28L38 29L39 29L39 30L40 30L40 29L41 29L41 31L42 31L42 28L43 28L43 27L41 27L41 26L40 26L40 25L41 25L41 23L39 23L39 26L38 26L38 25L37 25L37 24L36 24L36 23L37 23L37 22L38 22L38 21L39 21L39 19L40 19L40 18L38 18L38 16L37 16L37 15L38 15L38 13L37 13L37 12L36 12L36 14L35 14L35 15L34 15L34 13L35 13L35 12L34 12L34 11L37 11L37 10L38 10L38 8L39 8L39 6L38 6L38 7L37 7L37 6ZM0 8L0 10L1 10L1 9L3 9L3 8ZM12 8L12 9L11 9L11 10L12 10L12 9L14 9L14 8ZM30 9L30 10L31 10L31 9ZM50 9L50 10L51 10L51 9ZM2 10L2 11L3 11L3 10ZM56 10L56 11L57 11L57 10ZM6 11L6 12L7 12L7 11ZM51 11L51 12L52 12L52 11ZM20 12L20 13L19 13L19 14L20 14L20 13L21 13L21 12ZM44 12L44 13L43 13L43 14L44 14L44 13L45 13L45 15L46 15L46 13L45 13L45 12ZM49 13L49 14L48 14L48 15L47 15L47 16L44 16L44 15L43 15L43 16L44 16L44 17L45 17L45 18L46 18L46 19L48 19L48 21L47 21L47 20L46 20L46 21L47 21L47 22L48 22L48 23L46 23L46 25L45 25L45 24L44 24L44 25L45 25L45 26L46 26L46 25L47 25L47 26L48 26L48 25L49 25L49 24L50 24L50 25L51 25L51 24L50 24L50 22L48 22L48 21L49 21L49 20L51 20L51 18L52 18L52 17L51 17L51 16L52 16L52 14L51 14L51 16L50 16L50 13ZM33 15L33 17L34 17L34 19L33 19L33 20L34 20L34 19L35 19L35 18L36 18L36 19L37 19L37 18L36 18L36 15L35 15L35 17L34 17L34 15ZM5 16L5 17L4 17L4 18L5 18L5 19L7 19L7 18L6 18L6 17L8 17L8 18L9 18L9 17L8 17L8 16ZM19 16L19 17L20 17L20 18L21 18L21 17L20 17L20 16ZM46 17L46 18L47 18L47 17ZM48 17L48 19L49 19L49 17ZM50 17L50 18L51 18L51 17ZM14 19L14 20L15 20L15 19ZM24 19L24 20L25 20L25 19ZM44 19L44 21L43 21L43 22L44 22L44 23L45 23L45 22L44 22L44 21L45 21L45 19ZM53 19L53 20L52 20L52 22L51 22L51 23L52 23L52 22L54 22L54 23L55 23L55 21L54 21L54 19ZM4 20L4 21L5 21L5 23L8 23L8 24L9 24L9 23L8 23L8 22L9 22L9 21L10 21L10 20L8 20L8 22L6 22L6 21L7 21L7 20ZM27 20L27 22L26 22L26 23L27 23L27 25L26 25L26 26L31 26L31 25L32 25L32 27L31 27L31 32L30 32L30 34L31 34L31 35L32 35L32 34L33 34L33 35L35 35L35 36L33 36L33 37L34 37L34 38L35 38L35 41L34 41L34 42L35 42L35 41L36 41L36 44L37 44L37 43L39 43L39 42L40 42L40 40L41 40L41 39L40 39L40 38L39 38L39 36L38 36L38 34L37 34L37 33L36 33L36 31L35 31L35 29L34 29L34 27L37 27L37 26L36 26L36 24L34 24L34 23L33 23L33 24L34 24L34 26L33 26L33 25L32 25L32 23L30 23L30 24L29 24L29 23L28 23L28 22L29 22L29 21L28 21L28 20ZM35 20L35 21L34 21L34 22L35 22L35 23L36 23L36 22L37 22L37 21L38 21L38 20L37 20L37 21L36 21L36 20ZM14 21L14 22L15 22L15 21ZM22 21L22 24L23 24L23 21ZM35 21L35 22L36 22L36 21ZM24 22L24 23L25 23L25 22ZM0 24L0 25L1 25L1 24ZM13 24L13 25L14 25L14 24ZM18 24L18 25L19 25L19 24ZM28 24L28 25L29 25L29 24ZM30 24L30 25L31 25L31 24ZM42 24L42 25L43 25L43 24ZM6 25L6 26L7 26L7 25ZM24 25L24 26L23 26L23 27L22 27L22 28L24 28L24 30L25 30L25 28L24 28L24 27L25 27L25 25ZM2 26L2 27L3 27L3 29L4 29L4 27L3 27L3 26ZM5 27L5 30L8 30L8 27ZM11 27L11 28L12 28L12 27ZM13 27L13 28L14 28L14 27ZM16 27L16 28L17 28L17 27ZM18 27L18 28L19 28L19 27ZM27 27L27 30L30 30L30 27ZM39 27L39 29L40 29L40 28L41 28L41 27ZM49 27L49 30L52 30L52 27ZM54 27L54 28L53 28L53 30L54 30L54 32L55 32L55 31L56 31L56 30L55 30L55 29L56 29L56 28L55 28L55 27ZM6 28L6 29L7 29L7 28ZM28 28L28 29L29 29L29 28ZM32 28L32 29L33 29L33 30L32 30L32 33L31 33L31 34L32 34L32 33L35 33L35 35L36 35L36 37L35 37L35 38L36 38L36 41L37 41L37 42L38 42L38 41L39 41L39 38L38 38L38 36L37 36L37 35L36 35L36 33L35 33L35 32L34 32L34 29L33 29L33 28ZM50 28L50 29L51 29L51 28ZM12 29L12 30L11 30L11 31L12 31L12 30L13 30L13 29ZM22 29L22 30L21 30L21 31L20 31L20 32L19 32L19 33L20 33L20 34L23 34L23 33L22 33L22 30L23 30L23 29ZM6 31L6 32L5 32L5 33L6 33L6 34L9 34L9 33L8 33L8 31ZM28 31L28 32L27 32L27 33L28 33L28 34L29 34L29 31ZM37 31L37 32L38 32L38 31ZM0 32L0 34L1 34L1 35L0 35L0 36L1 36L1 35L2 35L2 33L1 33L1 32ZM6 32L6 33L7 33L7 32ZM53 34L53 36L54 36L54 34ZM31 36L31 37L32 37L32 36ZM36 37L36 38L37 38L37 37ZM5 38L5 39L8 39L8 38ZM14 38L14 39L15 39L15 38ZM24 38L24 39L25 39L25 38ZM28 38L28 39L29 39L29 38ZM37 39L37 41L38 41L38 39ZM47 40L47 41L48 41L48 40ZM15 41L15 42L14 42L14 43L13 43L13 44L14 44L14 43L15 43L15 42L16 42L16 41ZM54 41L54 42L55 42L55 43L56 43L56 42L55 42L55 41ZM6 44L6 45L7 45L7 44ZM46 44L46 47L47 47L47 44ZM18 45L18 48L19 48L19 45ZM23 45L23 47L24 47L24 48L26 48L26 46L25 46L25 47L24 47L24 45ZM30 45L30 46L31 46L31 47L32 47L32 46L33 46L33 45L32 45L32 46L31 46L31 45ZM36 45L36 46L37 46L37 45ZM40 45L40 47L41 47L41 45ZM9 47L9 48L8 48L8 49L10 49L10 47ZM27 49L27 52L30 52L30 49ZM49 49L49 52L52 52L52 49ZM28 50L28 51L29 51L29 50ZM50 50L50 51L51 51L51 50ZM20 51L20 53L21 53L21 51ZM17 52L17 54L16 54L16 55L17 55L17 54L18 54L18 52ZM39 52L39 53L40 53L40 52ZM12 53L12 56L13 56L13 53ZM22 54L22 56L23 56L23 54ZM46 54L46 55L47 55L47 54ZM53 54L53 55L54 55L54 54ZM18 56L18 57L20 57L20 56ZM36 56L36 57L37 57L37 56ZM56 56L56 57L57 57L57 56ZM0 0L0 7L7 7L7 0ZM1 1L1 6L6 6L6 1ZM2 2L2 5L5 5L5 2ZM50 0L50 7L57 7L57 0ZM51 1L51 6L56 6L56 1ZM52 2L52 5L55 5L55 2ZM0 50L0 57L7 57L7 50ZM1 51L1 56L6 56L6 51ZM2 52L2 55L5 55L5 52Z" fill="#000000"/></g></g></svg>
