<?xml version="1.0" encoding="UTF-8"?>
<svg xmlns="http://www.w3.org/2000/svg" version="1.1" width="300" height="300" viewBox="0 0 300 300"><rect x="0" y="0" width="300" height="300" fill="#fefefe"/><g transform="scale(4.615)"><g transform="translate(4,4)"><path fill-rule="evenodd" d="M8 0L8 2L9 2L9 4L8 4L8 11L7 11L7 10L6 10L6 11L7 11L7 12L5 12L5 11L4 11L4 10L5 10L5 9L7 9L7 8L5 8L5 9L3 9L3 8L0 8L0 9L1 9L1 10L0 10L0 14L1 14L1 15L2 15L2 16L4 16L4 17L2 17L2 18L0 18L0 19L1 19L1 20L2 20L2 18L4 18L4 19L3 19L3 23L1 23L1 24L0 24L0 25L2 25L2 24L3 24L3 23L5 23L5 26L4 26L4 25L3 25L3 26L1 26L1 27L0 27L0 32L4 32L4 31L10 31L10 34L9 34L9 36L10 36L10 37L8 37L8 32L6 32L6 33L4 33L4 35L7 35L7 36L4 36L4 37L3 37L3 36L2 36L2 35L3 35L3 34L2 34L2 33L1 33L1 36L0 36L0 37L1 37L1 38L0 38L0 44L1 44L1 41L2 41L2 43L3 43L3 45L2 45L2 47L1 47L1 45L0 45L0 48L5 48L5 47L7 47L7 46L5 46L5 47L3 47L3 46L4 46L4 44L5 44L5 45L7 45L7 44L8 44L8 45L9 45L9 49L8 49L8 48L6 48L6 49L8 49L8 50L10 50L10 51L11 51L11 50L13 50L13 51L14 51L14 50L13 50L13 49L15 49L15 50L16 50L16 47L17 47L17 46L18 46L18 45L19 45L19 47L18 47L18 49L17 49L17 50L18 50L18 54L17 54L17 52L15 52L15 55L13 55L13 54L12 54L12 53L14 53L14 52L9 52L9 51L8 51L8 52L9 52L9 54L8 54L8 57L9 57L9 56L13 56L13 57L15 57L15 56L16 56L16 57L17 57L17 55L18 55L18 57L20 57L20 56L19 56L19 55L18 55L18 54L19 54L19 52L20 52L20 53L21 53L21 54L20 54L20 55L22 55L22 57L25 57L25 55L26 55L26 57L28 57L28 55L29 55L29 57L33 57L33 55L30 55L30 54L31 54L31 53L32 53L32 54L34 54L34 57L35 57L35 55L37 55L37 54L36 54L36 53L37 53L37 51L38 51L38 53L39 53L39 55L40 55L40 57L41 57L41 55L42 55L42 57L43 57L43 56L44 56L44 57L46 57L46 56L47 56L47 57L48 57L48 56L49 56L49 57L50 57L50 55L49 55L49 54L52 54L52 55L53 55L53 53L54 53L54 55L57 55L57 54L55 54L55 52L56 52L56 53L57 53L57 52L56 52L56 51L57 51L57 50L56 50L56 47L57 47L57 45L56 45L56 44L57 44L57 42L56 42L56 41L57 41L57 40L54 40L54 39L55 39L55 38L57 38L57 36L56 36L56 37L55 37L55 36L54 36L54 34L53 34L53 36L51 36L51 33L50 33L50 32L52 32L52 31L53 31L53 33L56 33L56 31L57 31L57 29L56 29L56 27L57 27L57 24L56 24L56 23L57 23L57 13L56 13L56 12L57 12L57 10L56 10L56 12L55 12L55 13L56 13L56 15L55 15L55 16L56 16L56 17L54 17L54 15L52 15L52 14L53 14L53 12L54 12L54 11L55 11L55 9L57 9L57 8L55 8L55 9L54 9L54 10L53 10L53 8L49 8L49 10L48 10L48 7L49 7L49 6L48 6L48 7L47 7L47 5L48 5L48 0L46 0L46 1L45 1L45 0L42 0L42 1L41 1L41 0L38 0L38 2L37 2L37 1L35 1L35 0L34 0L34 8L32 8L32 9L31 9L31 5L32 5L32 2L33 2L33 1L32 1L32 0L30 0L30 3L31 3L31 4L26 4L26 3L27 3L27 0L26 0L26 1L25 1L25 0L24 0L24 1L23 1L23 0L20 0L20 1L19 1L19 0L18 0L18 1L17 1L17 0L16 0L16 1L15 1L15 0L14 0L14 3L13 3L13 0L12 0L12 3L11 3L11 2L10 2L10 1L11 1L11 0ZM28 0L28 1L29 1L29 0ZM16 1L16 2L17 2L17 1ZM18 1L18 2L19 2L19 1ZM21 1L21 2L22 2L22 4L21 4L21 3L18 3L18 4L17 4L17 3L16 3L16 4L17 4L17 5L16 5L16 6L15 6L15 7L14 7L14 5L13 5L13 9L11 9L11 8L12 8L12 4L13 4L13 3L12 3L12 4L10 4L10 5L11 5L11 8L9 8L9 9L10 9L10 11L8 11L8 12L7 12L7 13L6 13L6 14L5 14L5 13L3 13L3 12L2 12L2 11L3 11L3 10L1 10L1 12L2 12L2 13L1 13L1 14L2 14L2 15L3 15L3 14L5 14L5 15L4 15L4 16L5 16L5 17L6 17L6 18L5 18L5 19L4 19L4 20L5 20L5 21L4 21L4 22L8 22L8 24L9 24L9 25L6 25L6 26L9 26L9 27L10 27L10 26L9 26L9 25L11 25L11 26L13 26L13 27L12 27L12 29L13 29L13 30L11 30L11 29L10 29L10 28L9 28L9 30L10 30L10 31L11 31L11 32L12 32L12 31L13 31L13 33L11 33L11 34L10 34L10 36L11 36L11 35L12 35L12 36L13 36L13 35L14 35L14 34L15 34L15 32L16 32L16 31L17 31L17 33L16 33L16 34L17 34L17 37L16 37L16 36L14 36L14 37L13 37L13 38L12 38L12 37L11 37L11 38L12 38L12 39L11 39L11 40L10 40L10 38L9 38L9 41L8 41L8 42L10 42L10 43L8 43L8 44L10 44L10 45L11 45L11 46L12 46L12 42L14 42L14 43L15 43L15 44L14 44L14 45L16 45L16 46L17 46L17 44L16 44L16 42L17 42L17 41L18 41L18 40L19 40L19 39L18 39L18 38L19 38L19 37L18 37L18 35L19 35L19 36L21 36L21 38L20 38L20 39L21 39L21 38L22 38L22 40L21 40L21 41L20 41L20 42L19 42L19 43L18 43L18 44L19 44L19 43L20 43L20 42L21 42L21 45L20 45L20 46L22 46L22 48L21 48L21 47L20 47L20 48L19 48L19 49L18 49L18 50L19 50L19 51L20 51L20 50L21 50L21 51L23 51L23 52L24 52L24 51L25 51L25 54L24 54L24 55L25 55L25 54L26 54L26 55L28 55L28 53L26 53L26 51L25 51L25 50L26 50L26 48L29 48L29 47L30 47L30 48L31 48L31 50L32 50L32 51L31 51L31 52L32 52L32 51L33 51L33 52L34 52L34 54L35 54L35 53L36 53L36 52L34 52L34 51L33 51L33 50L32 50L32 48L33 48L33 49L34 49L34 50L35 50L35 51L37 51L37 49L36 49L36 48L37 48L37 47L38 47L38 51L39 51L39 49L40 49L40 51L41 51L41 49L42 49L42 50L43 50L43 49L44 49L44 50L45 50L45 52L46 52L46 55L44 55L44 52L43 52L43 51L42 51L42 52L41 52L41 53L42 53L42 54L43 54L43 55L44 55L44 56L46 56L46 55L47 55L47 56L48 56L48 54L49 54L49 53L48 53L48 54L47 54L47 52L48 52L48 51L47 51L47 47L48 47L48 46L49 46L49 48L50 48L50 46L53 46L53 45L54 45L54 50L53 50L53 51L54 51L54 52L55 52L55 51L56 51L56 50L55 50L55 47L56 47L56 45L55 45L55 44L56 44L56 42L55 42L55 41L54 41L54 40L53 40L53 37L54 37L54 38L55 38L55 37L54 37L54 36L53 36L53 37L52 37L52 39L51 39L51 40L48 40L48 38L49 38L49 39L50 39L50 38L51 38L51 36L50 36L50 33L49 33L49 34L48 34L48 33L47 33L47 29L48 29L48 28L46 28L46 29L45 29L45 30L44 30L44 27L45 27L45 25L44 25L44 24L45 24L45 23L46 23L46 24L47 24L47 25L46 25L46 26L47 26L47 25L48 25L48 26L49 26L49 25L50 25L50 26L51 26L51 25L52 25L52 26L53 26L53 25L52 25L52 24L53 24L53 22L52 22L52 20L53 20L53 19L54 19L54 21L55 21L55 22L54 22L54 24L55 24L55 25L54 25L54 26L55 26L55 27L54 27L54 28L53 28L53 31L54 31L54 32L55 32L55 31L56 31L56 30L55 30L55 27L56 27L56 26L55 26L55 25L56 25L56 24L55 24L55 23L56 23L56 18L55 18L55 19L54 19L54 17L52 17L52 15L51 15L51 14L52 14L52 13L50 13L50 11L48 11L48 10L47 10L47 9L46 9L46 5L47 5L47 3L46 3L46 5L44 5L44 4L45 4L45 1L42 1L42 2L40 2L40 1L39 1L39 2L40 2L40 4L39 4L39 3L37 3L37 2L35 2L35 3L36 3L36 4L35 4L35 9L34 9L34 10L33 10L33 9L32 9L32 11L31 11L31 9L30 9L30 11L29 11L29 12L30 12L30 13L29 13L29 15L28 15L28 14L27 14L27 12L28 12L28 9L27 9L27 10L25 10L25 9L26 9L26 5L24 5L24 6L23 6L23 5L22 5L22 4L23 4L23 2L22 2L22 1ZM24 1L24 4L25 4L25 1ZM31 1L31 2L32 2L32 1ZM46 1L46 2L47 2L47 1ZM43 2L43 3L42 3L42 5L43 5L43 6L42 6L42 7L41 7L41 6L40 6L40 7L41 7L41 8L40 8L40 9L39 9L39 10L38 10L38 9L37 9L37 8L39 8L39 6L38 6L38 7L37 7L37 6L36 6L36 10L34 10L34 11L33 11L33 12L32 12L32 14L33 14L33 15L32 15L32 17L31 17L31 16L30 16L30 15L29 15L29 16L30 16L30 17L28 17L28 18L30 18L30 17L31 17L31 20L30 20L30 19L29 19L29 20L28 20L28 21L29 21L29 22L28 22L28 23L26 23L26 22L27 22L27 20L26 20L26 19L27 19L27 16L26 16L26 15L27 15L27 14L26 14L26 11L24 11L24 9L25 9L25 8L24 8L24 9L23 9L23 8L22 8L22 10L23 10L23 11L22 11L22 12L23 12L23 14L24 14L24 12L25 12L25 16L26 16L26 19L25 19L25 18L24 18L24 16L22 16L22 14L21 14L21 16L20 16L20 17L19 17L19 15L20 15L20 13L21 13L21 10L20 10L20 9L21 9L21 6L22 6L22 7L23 7L23 6L22 6L22 5L20 5L20 7L19 7L19 5L17 5L17 6L16 6L16 7L17 7L17 6L18 6L18 9L19 9L19 10L16 10L16 9L15 9L15 8L14 8L14 9L15 9L15 10L16 10L16 11L17 11L17 14L15 14L15 15L17 15L17 16L18 16L18 17L17 17L17 18L16 18L16 19L15 19L15 16L14 16L14 15L13 15L13 14L12 14L12 12L11 12L11 11L10 11L10 12L11 12L11 13L10 13L10 14L9 14L9 12L8 12L8 13L7 13L7 14L6 14L6 15L5 15L5 16L6 16L6 17L7 17L7 18L6 18L6 19L7 19L7 20L6 20L6 21L8 21L8 22L9 22L9 21L10 21L10 20L11 20L11 19L12 19L12 20L13 20L13 21L11 21L11 22L13 22L13 23L14 23L14 24L16 24L16 25L13 25L13 26L14 26L14 27L16 27L16 28L17 28L17 27L16 27L16 25L17 25L17 26L18 26L18 25L19 25L19 27L18 27L18 28L19 28L19 31L18 31L18 30L17 30L17 31L18 31L18 34L19 34L19 35L22 35L22 34L20 34L20 33L21 33L21 31L20 31L20 29L21 29L21 30L22 30L22 33L23 33L23 35L25 35L25 36L24 36L24 37L26 37L26 38L27 38L27 36L28 36L28 37L29 37L29 36L28 36L28 35L31 35L31 36L30 36L30 40L28 40L28 41L27 41L27 39L26 39L26 40L25 40L25 41L26 41L26 42L24 42L24 41L23 41L23 40L22 40L22 41L21 41L21 42L22 42L22 41L23 41L23 42L24 42L24 43L22 43L22 44L23 44L23 48L22 48L22 50L23 50L23 51L24 51L24 49L23 49L23 48L26 48L26 46L27 46L27 47L28 47L28 44L29 44L29 46L30 46L30 47L31 47L31 48L32 48L32 47L33 47L33 48L34 48L34 45L33 45L33 44L36 44L36 45L37 45L37 46L36 46L36 47L37 47L37 46L38 46L38 45L37 45L37 44L39 44L39 43L37 43L37 44L36 44L36 41L37 41L37 42L38 42L38 41L39 41L39 42L40 42L40 41L41 41L41 42L42 42L42 43L43 43L43 44L42 44L42 45L41 45L41 43L40 43L40 45L39 45L39 46L40 46L40 45L41 45L41 47L40 47L40 49L41 49L41 47L42 47L42 45L43 45L43 44L44 44L44 46L43 46L43 47L44 47L44 46L45 46L45 47L46 47L46 44L47 44L47 45L51 45L51 44L52 44L52 40L51 40L51 41L49 41L49 42L48 42L48 44L47 44L47 43L45 43L45 42L46 42L46 41L48 41L48 40L47 40L47 38L46 38L46 37L48 37L48 36L49 36L49 38L50 38L50 36L49 36L49 35L48 35L48 34L47 34L47 36L46 36L46 37L45 37L45 35L46 35L46 30L45 30L45 31L44 31L44 30L43 30L43 31L42 31L42 28L43 28L43 27L42 27L42 23L43 23L43 22L44 22L44 23L45 23L45 22L44 22L44 21L45 21L45 19L44 19L44 17L45 17L45 18L46 18L46 17L47 17L47 19L46 19L46 21L47 21L47 22L48 22L48 21L49 21L49 20L51 20L51 18L52 18L52 17L51 17L51 18L50 18L50 16L51 16L51 15L50 15L50 13L49 13L49 14L48 14L48 11L46 11L46 13L45 13L45 12L44 12L44 13L43 13L43 14L44 14L44 13L45 13L45 16L44 16L44 15L43 15L43 16L44 16L44 17L43 17L43 18L42 18L42 17L41 17L41 15L42 15L42 12L43 12L43 10L45 10L45 8L44 8L44 9L43 9L43 8L42 8L42 7L43 7L43 6L44 6L44 7L45 7L45 6L44 6L44 5L43 5L43 4L44 4L44 2ZM14 3L14 4L15 4L15 3ZM38 4L38 5L39 5L39 4ZM27 5L27 8L30 8L30 5ZM9 6L9 7L10 7L10 6ZM24 6L24 7L25 7L25 6ZM28 6L28 7L29 7L29 6ZM32 6L32 7L33 7L33 6ZM42 9L42 10L40 10L40 11L41 11L41 12L42 12L42 10L43 10L43 9ZM50 9L50 10L51 10L51 9ZM19 10L19 11L18 11L18 12L19 12L19 13L18 13L18 14L17 14L17 15L18 15L18 14L19 14L19 13L20 13L20 10ZM37 10L37 11L34 11L34 12L35 12L35 13L34 13L34 15L33 15L33 17L32 17L32 18L33 18L33 21L32 21L32 20L31 20L31 21L30 21L30 22L33 22L33 24L34 24L34 26L33 26L33 25L32 25L32 23L31 23L31 25L30 25L30 26L31 26L31 25L32 25L32 27L31 27L31 30L32 30L32 31L31 31L31 32L30 32L30 31L29 31L29 32L26 32L26 30L25 30L25 28L24 28L24 26L25 26L25 25L24 25L24 26L23 26L23 27L22 27L22 28L24 28L24 30L25 30L25 32L24 32L24 34L25 34L25 35L26 35L26 36L27 36L27 35L28 35L28 34L29 34L29 32L30 32L30 34L32 34L32 35L33 35L33 37L34 37L34 39L33 39L33 38L31 38L31 40L30 40L30 41L31 41L31 43L30 43L30 42L29 42L29 41L28 41L28 43L27 43L27 44L28 44L28 43L30 43L30 45L32 45L32 46L31 46L31 47L32 47L32 46L33 46L33 45L32 45L32 44L31 44L31 43L32 43L32 40L33 40L33 41L34 41L34 42L35 42L35 41L36 41L36 38L37 38L37 37L36 37L36 35L38 35L38 36L40 36L40 35L43 35L43 37L42 37L42 36L41 36L41 37L42 37L42 38L41 38L41 39L40 39L40 38L39 38L39 37L38 37L38 38L39 38L39 41L40 41L40 40L41 40L41 41L42 41L42 42L44 42L44 39L43 39L43 38L44 38L44 34L45 34L45 33L44 33L44 34L43 34L43 33L42 33L42 31L41 31L41 30L40 30L40 27L41 27L41 26L40 26L40 23L41 23L41 22L40 22L40 19L41 19L41 18L40 18L40 14L39 14L39 12L37 12L37 11L38 11L38 10ZM14 11L14 12L15 12L15 11ZM30 11L30 12L31 12L31 11ZM51 11L51 12L52 12L52 11ZM36 12L36 14L35 14L35 15L34 15L34 17L33 17L33 18L34 18L34 21L33 21L33 22L34 22L34 24L36 24L36 26L37 26L37 27L34 27L34 29L33 29L33 28L32 28L32 30L33 30L33 31L32 31L32 34L34 34L34 37L35 37L35 38L36 38L36 37L35 37L35 35L36 35L36 33L37 33L37 34L38 34L38 35L39 35L39 34L38 34L38 33L39 33L39 32L40 32L40 34L42 34L42 33L41 33L41 32L40 32L40 30L39 30L39 31L38 31L38 30L37 30L37 31L36 31L36 29L37 29L37 28L38 28L38 29L39 29L39 27L40 27L40 26L38 26L38 25L37 25L37 24L36 24L36 23L37 23L37 22L38 22L38 23L39 23L39 22L38 22L38 21L37 21L37 20L39 20L39 19L40 19L40 18L38 18L38 16L37 16L37 15L38 15L38 13L37 13L37 12ZM2 13L2 14L3 14L3 13ZM46 13L46 16L47 16L47 15L48 15L48 14L47 14L47 13ZM7 14L7 15L6 15L6 16L7 16L7 17L8 17L8 14ZM11 14L11 17L9 17L9 18L11 18L11 17L13 17L13 18L14 18L14 16L13 16L13 15L12 15L12 14ZM36 14L36 15L35 15L35 17L34 17L34 18L36 18L36 19L37 19L37 18L36 18L36 15L37 15L37 14ZM49 15L49 16L50 16L50 15ZM0 16L0 17L1 17L1 16ZM18 17L18 19L16 19L16 20L17 20L17 22L16 22L16 23L17 23L17 25L18 25L18 24L20 24L20 28L21 28L21 25L22 25L22 24L21 24L21 23L20 23L20 22L21 22L21 21L22 21L22 22L23 22L23 21L22 21L22 18L21 18L21 17L20 17L20 19L19 19L19 17ZM48 17L48 19L47 19L47 20L48 20L48 19L49 19L49 17ZM8 19L8 21L9 21L9 19ZM14 19L14 20L15 20L15 19ZM18 19L18 21L19 21L19 19ZM20 19L20 21L21 21L21 19ZM24 19L24 20L25 20L25 21L26 21L26 20L25 20L25 19ZM42 19L42 20L43 20L43 21L42 21L42 22L43 22L43 21L44 21L44 19ZM35 20L35 21L34 21L34 22L35 22L35 23L36 23L36 22L37 22L37 21L36 21L36 20ZM0 21L0 22L1 22L1 21ZM14 21L14 23L15 23L15 21ZM35 21L35 22L36 22L36 21ZM18 22L18 23L19 23L19 22ZM24 22L24 23L25 23L25 22ZM49 22L49 23L47 23L47 24L48 24L48 25L49 25L49 24L50 24L50 22ZM51 22L51 24L52 24L52 22ZM6 23L6 24L7 24L7 23ZM9 23L9 24L12 24L12 23ZM28 23L28 24L27 24L27 25L26 25L26 26L28 26L28 24L30 24L30 23ZM1 27L1 29L3 29L3 30L4 30L4 27ZM5 27L5 30L8 30L8 27ZM27 27L27 30L30 30L30 27ZM49 27L49 30L52 30L52 27ZM6 28L6 29L7 29L7 28ZM13 28L13 29L14 29L14 30L13 30L13 31L16 31L16 30L15 30L15 29L14 29L14 28ZM28 28L28 29L29 29L29 28ZM35 28L35 29L34 29L34 31L33 31L33 32L34 32L34 34L35 34L35 33L36 33L36 31L35 31L35 29L36 29L36 28ZM50 28L50 29L51 29L51 28ZM22 29L22 30L23 30L23 29ZM54 30L54 31L55 31L55 30ZM37 31L37 32L38 32L38 31ZM19 32L19 33L20 33L20 32ZM6 33L6 34L7 34L7 33ZM13 33L13 34L12 34L12 35L13 35L13 34L14 34L14 33ZM27 33L27 34L28 34L28 33ZM56 34L56 35L57 35L57 34ZM1 36L1 37L2 37L2 38L1 38L1 39L2 39L2 38L3 38L3 39L6 39L6 40L3 40L3 42L4 42L4 43L5 43L5 44L7 44L7 43L5 43L5 42L7 42L7 41L6 41L6 40L7 40L7 39L6 39L6 38L7 38L7 37L5 37L5 38L3 38L3 37L2 37L2 36ZM22 36L22 37L23 37L23 36ZM31 36L31 37L32 37L32 36ZM16 38L16 39L17 39L17 40L18 40L18 39L17 39L17 38ZM24 38L24 39L25 39L25 38ZM28 38L28 39L29 39L29 38ZM45 38L45 39L46 39L46 38ZM14 39L14 40L15 40L15 42L16 42L16 40L15 40L15 39ZM34 39L34 41L35 41L35 39ZM37 39L37 41L38 41L38 39ZM41 39L41 40L42 40L42 41L43 41L43 39ZM11 40L11 41L10 41L10 42L11 42L11 41L12 41L12 40ZM45 40L45 41L46 41L46 40ZM53 41L53 44L54 44L54 43L55 43L55 42L54 42L54 41ZM49 42L49 44L50 44L50 42ZM10 43L10 44L11 44L11 43ZM24 43L24 44L25 44L25 43ZM44 43L44 44L45 44L45 43ZM24 45L24 47L25 47L25 46L26 46L26 45ZM13 46L13 47L11 47L11 48L10 48L10 49L11 49L11 48L14 48L14 47L15 47L15 46ZM52 47L52 48L53 48L53 47ZM44 48L44 49L46 49L46 48ZM19 49L19 50L20 50L20 49ZM27 49L27 52L30 52L30 49ZM49 49L49 52L52 52L52 49ZM28 50L28 51L29 51L29 50ZM50 50L50 51L51 51L51 50ZM46 51L46 52L47 52L47 51ZM21 52L21 53L22 53L22 55L23 55L23 53L22 53L22 52ZM39 52L39 53L40 53L40 52ZM10 53L10 55L12 55L12 54L11 54L11 53ZM16 54L16 55L17 55L17 54ZM40 54L40 55L41 55L41 54ZM36 56L36 57L37 57L37 56ZM51 56L51 57L53 57L53 56ZM56 56L56 57L57 57L57 56ZM0 0L0 7L7 7L7 0ZM1 1L1 6L6 6L6 1ZM2 2L2 5L5 5L5 2ZM50 0L50 7L57 7L57 0ZM51 1L51 6L56 6L56 1ZM52 2L52 5L55 5L55 2ZM0 50L0 57L7 57L7 50ZM1 51L1 56L6 56L6 51ZM2 52L2 55L5 55L5 52Z" fill="#000000"/></g></g></svg>
