<?xml version="1.0" encoding="UTF-8"?>
<svg xmlns="http://www.w3.org/2000/svg" version="1.1" width="300" height="300" viewBox="0 0 300 300"><rect x="0" y="0" width="300" height="300" fill="#fefefe"/><g transform="scale(4.615)"><g transform="translate(4,4)"><path fill-rule="evenodd" d="M9 0L9 1L8 1L8 2L9 2L9 3L8 3L8 4L9 4L9 5L8 5L8 7L9 7L9 6L10 6L10 8L6 8L6 9L7 9L7 10L6 10L6 11L5 11L5 8L0 8L0 9L3 9L3 10L2 10L2 11L5 11L5 12L3 12L3 13L1 13L1 16L4 16L4 17L3 17L3 19L2 19L2 18L0 18L0 22L3 22L3 21L4 21L4 23L3 23L3 26L2 26L2 27L3 27L3 28L2 28L2 29L1 29L1 28L0 28L0 29L1 29L1 30L2 30L2 31L4 31L4 33L3 33L3 32L2 32L2 33L3 33L3 34L4 34L4 33L5 33L5 35L3 35L3 37L2 37L2 39L0 39L0 40L4 40L4 41L3 41L3 45L2 45L2 47L1 47L1 45L0 45L0 48L5 48L5 47L7 47L7 48L6 48L6 49L7 49L7 48L9 48L9 47L10 47L10 50L9 50L9 49L8 49L8 51L9 51L9 52L8 52L8 57L9 57L9 55L10 55L10 57L14 57L14 56L13 56L13 54L14 54L14 53L16 53L16 54L15 54L15 55L16 55L16 56L17 56L17 57L19 57L19 55L20 55L20 54L17 54L17 53L20 53L20 52L21 52L21 51L19 51L19 50L20 50L20 45L21 45L21 47L23 47L23 49L21 49L21 50L22 50L22 51L23 51L23 50L25 50L25 51L26 51L26 52L24 52L24 53L23 53L23 54L22 54L22 55L23 55L23 56L24 56L24 57L26 57L26 56L27 56L27 57L29 57L29 56L30 56L30 57L31 57L31 56L35 56L35 57L39 57L39 56L37 56L37 55L41 55L41 56L42 56L42 55L44 55L44 56L43 56L43 57L44 57L44 56L45 56L45 57L46 57L46 56L45 56L45 55L47 55L47 56L50 56L50 57L52 57L52 55L51 55L51 53L52 53L52 54L53 54L53 52L54 52L54 53L55 53L55 51L56 51L56 52L57 52L57 51L56 51L56 49L57 49L57 48L56 48L56 46L57 46L57 45L56 45L56 46L55 46L55 45L54 45L54 44L55 44L55 43L56 43L56 44L57 44L57 43L56 43L56 41L55 41L55 39L57 39L57 37L56 37L56 36L55 36L55 35L56 35L56 34L55 34L55 32L56 32L56 33L57 33L57 32L56 32L56 30L57 30L57 29L55 29L55 31L54 31L54 28L56 28L56 27L55 27L55 26L57 26L57 25L56 25L56 22L57 22L57 21L56 21L56 20L57 20L57 19L56 19L56 18L51 18L51 19L50 19L50 17L51 17L51 16L54 16L54 17L56 17L56 16L57 16L57 15L56 15L56 14L57 14L57 13L56 13L56 10L54 10L54 11L52 11L52 10L53 10L53 9L54 9L54 8L53 8L53 9L52 9L52 8L51 8L51 9L52 9L52 10L51 10L51 11L50 11L50 12L49 12L49 10L50 10L50 8L49 8L49 6L48 6L48 7L47 7L47 5L48 5L48 0L46 0L46 1L47 1L47 2L44 2L44 3L43 3L43 4L40 4L40 5L39 5L39 6L38 6L38 7L37 7L37 5L38 5L38 4L37 4L37 3L42 3L42 2L43 2L43 0L41 0L41 1L40 1L40 0L39 0L39 1L38 1L38 0L37 0L37 1L38 1L38 2L37 2L37 3L36 3L36 0L35 0L35 1L33 1L33 0L32 0L32 1L31 1L31 0L29 0L29 1L28 1L28 0L27 0L27 1L26 1L26 0L23 0L23 2L25 2L25 1L26 1L26 2L28 2L28 3L27 3L27 4L26 4L26 3L23 3L23 4L19 4L19 2L20 2L20 3L21 3L21 1L22 1L22 0L21 0L21 1L18 1L18 0L17 0L17 2L16 2L16 1L15 1L15 0L14 0L14 2L13 2L13 1L10 1L10 0ZM9 1L9 2L10 2L10 6L11 6L11 7L12 7L12 8L11 8L11 9L9 9L9 10L11 10L11 11L9 11L9 13L6 13L6 12L7 12L7 11L8 11L8 10L7 10L7 11L6 11L6 12L5 12L5 13L3 13L3 14L2 14L2 15L4 15L4 16L5 16L5 15L4 15L4 14L7 14L7 15L6 15L6 16L7 16L7 17L6 17L6 18L8 18L8 19L9 19L9 20L8 20L8 21L6 21L6 20L7 20L7 19L5 19L5 17L4 17L4 19L3 19L3 20L4 20L4 21L5 21L5 23L4 23L4 26L3 26L3 27L4 27L4 26L5 26L5 25L6 25L6 26L7 26L7 25L8 25L8 22L9 22L9 24L11 24L11 25L10 25L10 26L11 26L11 27L10 27L10 28L9 28L9 29L11 29L11 27L14 27L14 28L13 28L13 29L12 29L12 31L10 31L10 32L9 32L9 31L6 31L6 32L9 32L9 33L11 33L11 32L12 32L12 33L13 33L13 34L14 34L14 33L15 33L15 34L16 34L16 35L17 35L17 36L14 36L14 37L16 37L16 38L15 38L15 39L16 39L16 40L15 40L15 42L17 42L17 43L18 43L18 42L19 42L19 41L20 41L20 43L22 43L22 42L24 42L24 41L25 41L25 43L27 43L27 44L24 44L24 45L22 45L22 44L21 44L21 45L22 45L22 46L24 46L24 47L26 47L26 48L24 48L24 49L26 49L26 48L28 48L28 47L29 47L29 48L30 48L30 47L29 47L29 46L30 46L30 45L31 45L31 44L30 44L30 43L29 43L29 42L32 42L32 43L33 43L33 44L32 44L32 46L31 46L31 47L33 47L33 46L35 46L35 48L34 48L34 49L33 49L33 48L32 48L32 49L31 49L31 50L36 50L36 52L37 52L37 51L38 51L38 50L41 50L41 52L40 52L40 51L39 51L39 52L38 52L38 54L40 54L40 53L43 53L43 54L44 54L44 55L45 55L45 54L47 54L47 53L48 53L48 50L47 50L47 49L48 49L48 48L49 48L49 47L51 47L51 48L52 48L52 47L53 47L53 43L54 43L54 42L53 42L53 41L51 41L51 42L50 42L50 43L49 43L49 42L48 42L48 41L49 41L49 40L50 40L50 39L52 39L52 38L53 38L53 35L55 35L55 34L54 34L54 33L52 33L52 32L53 32L53 31L52 31L52 32L51 32L51 31L50 31L50 32L49 32L49 31L48 31L48 30L47 30L47 29L48 29L48 28L47 28L47 29L46 29L46 30L47 30L47 31L48 31L48 32L46 32L46 31L45 31L45 28L46 28L46 27L48 27L48 25L50 25L50 26L51 26L51 25L53 25L53 24L51 24L51 23L50 23L50 22L51 22L51 21L54 21L54 23L55 23L55 22L56 22L56 21L55 21L55 20L56 20L56 19L55 19L55 20L53 20L53 19L52 19L52 20L51 20L51 21L49 21L49 22L47 22L47 21L45 21L45 20L44 20L44 18L46 18L46 19L47 19L47 20L49 20L49 18L47 18L47 17L50 17L50 14L51 14L51 12L50 12L50 14L49 14L49 15L48 15L48 16L47 16L47 17L45 17L45 15L44 15L44 14L47 14L47 13L49 13L49 12L48 12L48 10L47 10L47 9L48 9L48 8L47 8L47 7L46 7L46 5L47 5L47 3L44 3L44 6L43 6L43 8L44 8L44 10L45 10L45 11L41 11L41 12L39 12L39 13L38 13L38 14L37 14L37 15L35 15L35 16L32 16L32 15L31 15L31 14L30 14L30 13L31 13L31 11L32 11L32 13L33 13L33 14L36 14L36 13L35 13L35 12L36 12L36 10L37 10L37 11L39 11L39 9L40 9L40 10L41 10L41 9L42 9L42 8L41 8L41 7L42 7L42 5L40 5L40 6L39 6L39 7L40 7L40 8L39 8L39 9L38 9L38 10L37 10L37 9L35 9L35 8L37 8L37 7L36 7L36 5L37 5L37 4L36 4L36 5L35 5L35 2L33 2L33 3L32 3L32 2L31 2L31 3L32 3L32 4L31 4L31 8L32 8L32 10L31 10L31 11L30 11L30 10L29 10L29 9L27 9L27 10L28 10L28 11L29 11L29 12L28 12L28 13L26 13L26 12L27 12L27 11L26 11L26 12L25 12L25 11L24 11L24 12L23 12L23 13L22 13L22 12L21 12L21 11L22 11L22 10L23 10L23 8L24 8L24 9L25 9L25 8L26 8L26 4L25 4L25 8L24 8L24 6L23 6L23 8L19 8L19 9L20 9L20 10L19 10L19 11L20 11L20 12L19 12L19 13L20 13L20 15L19 15L19 17L20 17L20 18L22 18L22 17L25 17L25 14L23 14L23 13L24 13L24 12L25 12L25 13L26 13L26 17L28 17L28 16L29 16L29 14L30 14L30 15L31 15L31 16L32 16L32 17L31 17L31 18L30 18L30 19L29 19L29 20L27 20L27 19L28 19L28 18L25 18L25 19L26 19L26 20L25 20L25 21L24 21L24 20L22 20L22 19L21 19L21 20L20 20L20 21L19 21L19 22L20 22L20 23L19 23L19 24L21 24L21 25L15 25L15 24L16 24L16 23L14 23L14 25L13 25L13 22L11 22L11 23L10 23L10 21L9 21L9 20L10 20L10 19L11 19L11 21L12 21L12 19L11 19L11 17L12 17L12 18L13 18L13 19L14 19L14 20L13 20L13 21L14 21L14 22L16 22L16 21L17 21L17 22L18 22L18 21L17 21L17 20L19 20L19 19L18 19L18 17L17 17L17 16L18 16L18 14L17 14L17 13L18 13L18 12L17 12L17 13L16 13L16 12L15 12L15 13L13 13L13 14L12 14L12 13L10 13L10 12L14 12L14 11L13 11L13 10L16 10L16 11L18 11L18 10L17 10L17 9L15 9L15 7L16 7L16 8L17 8L17 7L18 7L18 6L19 6L19 7L20 7L20 5L19 5L19 4L18 4L18 2L17 2L17 3L15 3L15 2L14 2L14 4L13 4L13 3L12 3L12 6L11 6L11 2L10 2L10 1ZM28 3L28 4L30 4L30 3ZM15 4L15 5L14 5L14 7L15 7L15 5L16 5L16 4ZM17 4L17 6L16 6L16 7L17 7L17 6L18 6L18 4ZM23 4L23 5L24 5L24 4ZM32 4L32 5L34 5L34 7L33 7L33 6L32 6L32 7L33 7L33 9L34 9L34 8L35 8L35 5L34 5L34 4ZM45 4L45 5L46 5L46 4ZM27 5L27 8L30 8L30 5ZM12 6L12 7L13 7L13 6ZM21 6L21 7L22 7L22 6ZM28 6L28 7L29 7L29 6ZM40 6L40 7L41 7L41 6ZM44 6L44 7L45 7L45 6ZM12 8L12 9L11 9L11 10L13 10L13 9L14 9L14 8ZM46 8L46 9L47 9L47 8ZM55 8L55 9L56 9L56 8ZM32 10L32 11L33 11L33 10ZM46 10L46 11L45 11L45 12L47 12L47 10ZM0 11L0 12L1 12L1 11ZM20 12L20 13L21 13L21 15L23 15L23 14L22 14L22 13L21 13L21 12ZM33 12L33 13L34 13L34 12ZM43 12L43 13L39 13L39 14L38 14L38 15L39 15L39 16L38 16L38 17L37 17L37 16L35 16L35 17L37 17L37 18L38 18L38 17L39 17L39 19L37 19L37 20L36 20L36 19L35 19L35 20L34 20L34 19L32 19L32 18L31 18L31 21L30 21L30 22L29 22L29 21L25 21L25 22L26 22L26 23L25 23L25 24L24 24L24 23L23 23L23 24L24 24L24 25L22 25L22 26L21 26L21 27L22 27L22 26L23 26L23 31L20 31L20 33L19 33L19 32L17 32L17 31L18 31L18 30L20 30L20 29L22 29L22 28L20 28L20 26L19 26L19 29L18 29L18 28L16 28L16 29L13 29L13 30L15 30L15 31L14 31L14 32L17 32L17 33L19 33L19 34L20 34L20 35L21 35L21 36L22 36L22 33L21 33L21 32L23 32L23 31L24 31L24 32L25 32L25 33L23 33L23 34L24 34L24 36L23 36L23 37L24 37L24 38L23 38L23 39L22 39L22 40L23 40L23 41L24 41L24 40L25 40L25 39L27 39L27 41L26 41L26 42L27 42L27 41L29 41L29 40L28 40L28 39L27 39L27 38L28 38L28 37L27 37L27 36L26 36L26 35L27 35L27 33L26 33L26 32L27 32L27 31L31 31L31 29L32 29L32 28L31 28L31 26L32 26L32 27L33 27L33 28L35 28L35 30L32 30L32 32L31 32L31 33L29 33L29 32L28 32L28 33L29 33L29 34L30 34L30 36L29 36L29 37L31 37L31 38L29 38L29 39L33 39L33 40L35 40L35 42L37 42L37 43L36 43L36 44L35 44L35 43L34 43L34 42L33 42L33 41L32 41L32 40L30 40L30 41L32 41L32 42L33 42L33 43L34 43L34 45L35 45L35 46L37 46L37 47L36 47L36 48L35 48L35 49L36 49L36 50L38 50L38 49L39 49L39 48L41 48L41 50L42 50L42 51L43 51L43 53L44 53L44 54L45 54L45 53L47 53L47 50L43 50L43 49L44 49L44 48L43 48L43 47L45 47L45 48L46 48L46 47L47 47L47 48L48 48L48 47L49 47L49 46L50 46L50 45L49 45L49 44L48 44L48 47L47 47L47 46L44 46L44 43L46 43L46 44L45 44L45 45L47 45L47 43L48 43L48 42L47 42L47 43L46 43L46 42L44 42L44 43L43 43L43 41L44 41L44 40L45 40L45 41L47 41L47 39L50 39L50 38L51 38L51 37L50 37L50 38L49 38L49 37L48 37L48 38L47 38L47 39L46 39L46 38L45 38L45 37L44 37L44 36L48 36L48 35L44 35L44 33L43 33L43 32L45 32L45 31L43 31L43 32L41 32L41 33L39 33L39 34L40 34L40 35L39 35L39 36L38 36L38 37L37 37L37 36L35 36L35 35L34 35L34 34L33 34L33 33L34 33L34 32L33 32L33 31L36 31L36 30L37 30L37 29L38 29L38 28L39 28L39 27L36 27L36 26L34 26L34 27L33 27L33 26L32 26L32 24L33 24L33 25L37 25L37 26L38 26L38 25L39 25L39 26L40 26L40 27L41 27L41 28L42 28L42 27L41 27L41 26L44 26L44 27L43 27L43 29L39 29L39 30L38 30L38 32L39 32L39 31L40 31L40 30L44 30L44 28L45 28L45 27L46 27L46 26L45 26L45 25L44 25L44 24L43 24L43 23L44 23L44 20L43 20L43 18L44 18L44 15L42 15L42 16L41 16L41 15L40 15L40 14L43 14L43 13L44 13L44 12ZM52 12L52 13L53 13L53 14L54 14L54 15L55 15L55 14L56 14L56 13L55 13L55 12L54 12L54 13L53 13L53 12ZM15 13L15 14L13 14L13 16L12 16L12 17L13 17L13 18L15 18L15 21L16 21L16 20L17 20L17 18L15 18L15 17L16 17L16 13ZM28 13L28 14L29 14L29 13ZM54 13L54 14L55 14L55 13ZM10 14L10 16L11 16L11 14ZM8 15L8 16L9 16L9 15ZM14 15L14 16L13 16L13 17L15 17L15 15ZM27 15L27 16L28 16L28 15ZM21 16L21 17L22 17L22 16ZM39 16L39 17L41 17L41 16ZM42 16L42 17L43 17L43 16ZM9 17L9 18L10 18L10 17ZM23 18L23 19L24 19L24 18ZM41 18L41 19L42 19L42 18ZM1 19L1 20L2 20L2 19ZM4 19L4 20L5 20L5 19ZM21 20L21 21L22 21L22 22L24 22L24 21L22 21L22 20ZM32 20L32 21L31 21L31 22L30 22L30 23L27 23L27 24L25 24L25 25L26 25L26 26L25 26L25 27L26 27L26 26L27 26L27 25L28 25L28 26L29 26L29 25L31 25L31 24L32 24L32 23L35 23L35 21L34 21L34 20ZM38 20L38 21L37 21L37 22L39 22L39 23L37 23L37 24L39 24L39 25L40 25L40 26L41 26L41 25L43 25L43 24L39 24L39 23L40 23L40 22L39 22L39 21L41 21L41 20ZM42 20L42 21L43 21L43 20ZM6 22L6 23L7 23L7 22ZM45 22L45 23L47 23L47 24L46 24L46 25L48 25L48 23L47 23L47 22ZM0 23L0 25L2 25L2 23ZM17 23L17 24L18 24L18 23ZM30 23L30 24L31 24L31 23ZM49 23L49 24L50 24L50 23ZM6 24L6 25L7 25L7 24ZM12 25L12 26L13 26L13 25ZM14 26L14 27L16 27L16 26ZM17 26L17 27L18 27L18 26ZM53 26L53 27L54 27L54 26ZM5 27L5 30L8 30L8 27ZM27 27L27 30L30 30L30 27ZM49 27L49 30L52 30L52 27ZM3 28L3 29L4 29L4 28ZM6 28L6 29L7 29L7 28ZM25 28L25 29L26 29L26 28ZM28 28L28 29L29 29L29 28ZM50 28L50 29L51 29L51 28ZM16 29L16 30L18 30L18 29ZM24 30L24 31L25 31L25 32L26 32L26 31L25 31L25 30ZM0 32L0 33L1 33L1 32ZM32 32L32 33L31 33L31 35L33 35L33 34L32 34L32 33L33 33L33 32ZM35 32L35 34L37 34L37 35L38 35L38 33L37 33L37 32ZM48 32L48 33L49 33L49 32ZM50 32L50 34L49 34L49 35L50 35L50 36L52 36L52 35L53 35L53 34L52 34L52 33L51 33L51 32ZM6 33L6 34L7 34L7 35L5 35L5 39L4 39L4 40L5 40L5 42L4 42L4 45L3 45L3 47L5 47L5 45L6 45L6 46L7 46L7 45L6 45L6 44L10 44L10 45L11 45L11 46L10 46L10 47L11 47L11 46L12 46L12 45L11 45L11 44L12 44L12 41L11 41L11 42L10 42L10 41L9 41L9 42L8 42L8 40L7 40L7 39L8 39L8 37L9 37L9 39L11 39L11 40L12 40L12 39L13 39L13 40L14 40L14 39L13 39L13 37L12 37L12 36L13 36L13 35L12 35L12 34L11 34L11 36L10 36L10 37L9 37L9 36L8 36L8 34L7 34L7 33ZM20 33L20 34L21 34L21 33ZM25 33L25 34L26 34L26 33ZM0 34L0 35L2 35L2 34ZM42 34L42 35L41 35L41 36L40 36L40 37L38 37L38 38L37 38L37 39L35 39L35 40L38 40L38 42L39 42L39 44L40 44L40 45L41 45L41 44L42 44L42 42L41 42L41 40L44 40L44 39L45 39L45 40L46 40L46 39L45 39L45 38L44 38L44 37L43 37L43 36L44 36L44 35L43 35L43 34ZM50 34L50 35L52 35L52 34ZM0 36L0 38L1 38L1 36ZM6 36L6 37L8 37L8 36ZM17 36L17 37L18 37L18 38L20 38L20 39L19 39L19 40L18 40L18 39L17 39L17 40L18 40L18 41L17 41L17 42L18 42L18 41L19 41L19 40L21 40L21 38L22 38L22 37L19 37L19 36ZM32 36L32 37L33 37L33 39L34 39L34 38L35 38L35 36ZM3 37L3 38L4 38L4 37ZM10 37L10 38L11 38L11 39L12 39L12 38L11 38L11 37ZM25 37L25 38L27 38L27 37ZM40 37L40 38L43 38L43 37ZM6 38L6 39L5 39L5 40L6 40L6 41L7 41L7 40L6 40L6 39L7 39L7 38ZM54 38L54 39L55 39L55 38ZM23 39L23 40L24 40L24 39ZM38 39L38 40L41 40L41 39ZM21 41L21 42L22 42L22 41ZM39 41L39 42L40 42L40 41ZM6 42L6 43L8 43L8 42ZM9 42L9 43L10 43L10 42ZM51 42L51 43L50 43L50 44L51 44L51 45L52 45L52 44L51 44L51 43L53 43L53 42ZM1 43L1 44L2 44L2 43ZM28 43L28 44L29 44L29 43ZM40 43L40 44L41 44L41 43ZM13 44L13 46L14 46L14 44ZM15 44L15 46L16 46L16 47L15 47L15 48L16 48L16 49L15 49L15 50L14 50L14 47L12 47L12 50L11 50L11 51L10 51L10 52L9 52L9 54L10 54L10 53L12 53L12 54L11 54L11 55L12 55L12 54L13 54L13 53L14 53L14 52L15 52L15 50L17 50L17 48L19 48L19 46L17 46L17 45L18 45L18 44L17 44L17 45L16 45L16 44ZM19 44L19 45L20 45L20 44ZM8 45L8 46L9 46L9 45ZM24 45L24 46L25 46L25 45ZM26 45L26 47L27 47L27 45ZM38 45L38 46L39 46L39 47L38 47L38 48L37 48L37 49L38 49L38 48L39 48L39 47L40 47L40 46L39 46L39 45ZM41 46L41 48L42 48L42 49L43 49L43 48L42 48L42 47L43 47L43 46ZM51 46L51 47L52 47L52 46ZM54 46L54 47L55 47L55 46ZM53 48L53 49L56 49L56 48ZM27 49L27 52L30 52L30 49ZM49 49L49 52L52 52L52 49ZM12 50L12 52L14 52L14 51L13 51L13 50ZM28 50L28 51L29 51L29 50ZM50 50L50 51L51 51L51 50ZM54 50L54 51L55 51L55 50ZM16 51L16 53L17 53L17 52L19 52L19 51ZM31 51L31 53L30 53L30 54L27 54L27 56L29 56L29 55L30 55L30 56L31 56L31 54L32 54L32 53L33 53L33 54L34 54L34 55L35 55L35 56L36 56L36 54L35 54L35 53L33 53L33 52L32 52L32 51ZM45 51L45 52L44 52L44 53L45 53L45 52L46 52L46 51ZM24 53L24 54L23 54L23 55L24 55L24 56L26 56L26 54L25 54L25 53ZM41 54L41 55L42 55L42 54ZM17 55L17 56L18 56L18 55ZM50 55L50 56L51 56L51 55ZM53 55L53 56L55 56L55 57L56 57L56 56L55 56L55 55ZM20 56L20 57L21 57L21 56ZM0 0L0 7L7 7L7 0ZM1 1L1 6L6 6L6 1ZM2 2L2 5L5 5L5 2ZM50 0L50 7L57 7L57 0ZM51 1L51 6L56 6L56 1ZM52 2L52 5L55 5L55 2ZM0 50L0 57L7 57L7 50ZM1 51L1 56L6 56L6 51ZM2 52L2 55L5 55L5 52Z" fill="#000000"/></g></g></svg>
