<?xml version="1.0" encoding="UTF-8"?>
<svg xmlns="http://www.w3.org/2000/svg" version="1.1" width="300" height="300" viewBox="0 0 300 300"><rect x="0" y="0" width="300" height="300" fill="#fefefe"/><g transform="scale(4.615)"><g transform="translate(4,4)"><path fill-rule="evenodd" d="M12 0L12 1L11 1L11 2L10 2L10 1L8 1L8 2L9 2L9 3L8 3L8 4L9 4L9 5L8 5L8 7L9 7L9 6L10 6L10 9L11 9L11 10L9 10L9 11L8 11L8 9L9 9L9 8L6 8L6 9L7 9L7 10L5 10L5 11L7 11L7 12L3 12L3 13L2 13L2 11L0 11L0 12L1 12L1 13L0 13L0 14L1 14L1 15L0 15L0 16L1 16L1 17L2 17L2 16L3 16L3 18L2 18L2 19L4 19L4 18L5 18L5 21L3 21L3 20L1 20L1 18L0 18L0 21L1 21L1 25L0 25L0 28L1 28L1 29L0 29L0 30L1 30L1 29L2 29L2 28L3 28L3 30L4 30L4 32L2 32L2 31L0 31L0 32L1 32L1 33L0 33L0 34L1 34L1 35L0 35L0 37L1 37L1 38L0 38L0 40L1 40L1 39L2 39L2 38L3 38L3 40L2 40L2 41L3 41L3 42L4 42L4 43L3 43L3 44L2 44L2 43L1 43L1 44L0 44L0 45L1 45L1 44L2 44L2 47L1 47L1 46L0 46L0 48L5 48L5 47L10 47L10 46L11 46L11 45L13 45L13 48L12 48L12 47L11 47L11 49L13 49L13 50L12 50L12 52L13 52L13 53L11 53L11 50L10 50L10 49L9 49L9 48L6 48L6 49L8 49L8 51L9 51L9 50L10 50L10 52L8 52L8 57L10 57L10 56L9 56L9 55L11 55L11 54L12 54L12 55L13 55L13 56L14 56L14 55L13 55L13 53L14 53L14 54L15 54L15 55L16 55L16 56L17 56L17 57L20 57L20 56L19 56L19 55L20 55L20 54L19 54L19 53L20 53L20 52L23 52L23 51L21 51L21 50L25 50L25 51L26 51L26 52L24 52L24 53L23 53L23 54L21 54L21 56L23 56L23 57L26 57L26 55L27 55L27 54L30 54L30 53L31 53L31 50L32 50L32 52L33 52L33 53L32 53L32 54L31 54L31 56L30 56L30 55L29 55L29 56L27 56L27 57L29 57L29 56L30 56L30 57L31 57L31 56L35 56L35 57L39 57L39 56L41 56L41 57L44 57L44 56L45 56L45 57L46 57L46 56L45 56L45 55L48 55L48 57L49 57L49 56L50 56L50 57L52 57L52 55L51 55L51 53L52 53L52 54L53 54L53 55L54 55L54 56L53 56L53 57L54 57L54 56L55 56L55 57L56 57L56 56L55 56L55 54L53 54L53 52L54 52L54 53L57 53L57 51L56 51L56 50L57 50L57 48L56 48L56 46L57 46L57 45L56 45L56 44L57 44L57 43L56 43L56 42L55 42L55 39L57 39L57 35L56 35L56 34L55 34L55 33L54 33L54 34L55 34L55 35L53 35L53 34L52 34L52 33L53 33L53 32L56 32L56 33L57 33L57 32L56 32L56 30L57 30L57 29L56 29L56 28L57 28L57 27L56 27L56 26L57 26L57 25L56 25L56 22L57 22L57 21L56 21L56 22L53 22L53 21L51 21L51 20L52 20L52 19L53 19L53 20L55 20L55 19L56 19L56 20L57 20L57 19L56 19L56 18L52 18L52 19L50 19L50 17L52 17L52 16L53 16L53 17L56 17L56 16L57 16L57 15L56 15L56 14L57 14L57 12L56 12L56 8L55 8L55 10L54 10L54 11L51 11L51 10L50 10L50 8L49 8L49 6L48 6L48 7L47 7L47 5L48 5L48 0L45 0L45 2L44 2L44 3L43 3L43 4L40 4L40 5L39 5L39 6L38 6L38 4L37 4L37 3L36 3L36 0L35 0L35 1L33 1L33 2L32 2L32 0L27 0L27 1L26 1L26 0L23 0L23 2L22 2L22 0L21 0L21 3L23 3L23 4L22 4L22 5L23 5L23 6L22 6L22 8L23 8L23 10L22 10L22 11L20 11L20 9L19 9L19 8L21 8L21 4L19 4L19 3L18 3L18 4L17 4L17 6L16 6L16 7L15 7L15 6L14 6L14 7L13 7L13 6L12 6L12 5L11 5L11 4L10 4L10 3L11 3L11 2L13 2L13 3L12 3L12 4L14 4L14 2L15 2L15 1L14 1L14 2L13 2L13 0ZM19 0L19 2L20 2L20 0ZM37 0L37 1L38 1L38 3L42 3L42 2L43 2L43 0L41 0L41 1L40 1L40 0L39 0L39 1L38 1L38 0ZM16 1L16 3L17 3L17 2L18 2L18 1ZM25 1L25 2L23 2L23 3L26 3L26 4L25 4L25 8L26 8L26 4L30 4L30 3L29 3L29 2L28 2L28 1L27 1L27 2L26 2L26 1ZM46 1L46 2L47 2L47 1ZM27 2L27 3L28 3L28 2ZM31 2L31 3L32 3L32 4L31 4L31 8L32 8L32 10L29 10L29 9L28 9L28 10L27 10L27 11L26 11L26 12L25 12L25 10L24 10L24 13L22 13L22 12L20 12L20 11L19 11L19 13L20 13L20 14L17 14L17 13L18 13L18 12L17 12L17 13L16 13L16 12L15 12L15 13L13 13L13 12L14 12L14 11L13 11L13 10L15 10L15 11L18 11L18 10L19 10L19 9L16 9L16 8L17 8L17 7L18 7L18 6L19 6L19 7L20 7L20 5L19 5L19 4L18 4L18 6L17 6L17 7L16 7L16 8L15 8L15 7L14 7L14 9L12 9L12 11L9 11L9 12L8 12L8 13L4 13L4 14L8 14L8 15L6 15L6 16L8 16L8 15L9 15L9 14L10 14L10 12L12 12L12 14L11 14L11 15L10 15L10 16L12 16L12 15L13 15L13 16L14 16L14 17L13 17L13 18L12 18L12 17L11 17L11 18L12 18L12 19L14 19L14 20L13 20L13 21L12 21L12 20L10 20L10 21L8 21L8 22L7 22L7 21L5 21L5 22L3 22L3 23L2 23L2 25L5 25L5 24L4 24L4 23L5 23L5 22L7 22L7 23L6 23L6 24L7 24L7 25L6 25L6 26L8 26L8 24L7 24L7 23L9 23L9 22L10 22L10 24L9 24L9 28L10 28L10 29L11 29L11 31L13 31L13 32L10 32L10 31L8 31L8 33L6 33L6 32L7 32L7 31L5 31L5 33L6 33L6 34L4 34L4 33L2 33L2 35L1 35L1 37L2 37L2 36L3 36L3 38L4 38L4 39L6 39L6 40L8 40L8 42L9 42L9 43L8 43L8 44L7 44L7 43L6 43L6 44L7 44L7 45L6 45L6 46L7 46L7 45L8 45L8 46L9 46L9 45L11 45L11 44L12 44L12 43L18 43L18 42L19 42L19 41L20 41L20 42L21 42L21 43L20 43L20 44L21 44L21 45L20 45L20 46L21 46L21 45L22 45L22 46L24 46L24 45L25 45L25 48L24 48L24 49L25 49L25 50L26 50L26 49L25 49L25 48L27 48L27 47L28 47L28 48L30 48L30 47L29 47L29 45L30 45L30 46L31 46L31 47L33 47L33 48L32 48L32 50L33 50L33 51L34 51L34 50L36 50L36 52L38 52L38 54L40 54L40 53L41 53L41 52L40 52L40 51L39 51L39 52L38 52L38 50L41 50L41 51L42 51L42 50L41 50L41 48L42 48L42 49L43 49L43 51L44 51L44 50L45 50L45 51L47 51L47 52L44 52L44 53L43 53L43 54L44 54L44 55L42 55L42 54L41 54L41 55L42 55L42 56L44 56L44 55L45 55L45 54L47 54L47 53L48 53L48 50L47 50L47 49L48 49L48 48L49 48L49 47L51 47L51 48L52 48L52 47L51 47L51 46L53 46L53 45L51 45L51 46L49 46L49 47L48 47L48 46L47 46L47 45L50 45L50 43L51 43L51 44L53 44L53 43L54 43L54 42L53 42L53 41L54 41L54 40L53 40L53 35L52 35L52 34L50 34L50 31L48 31L48 28L47 28L47 29L46 29L46 30L47 30L47 31L46 31L46 32L47 32L47 33L45 33L45 32L43 32L43 30L45 30L45 28L46 28L46 27L47 27L47 25L48 25L48 24L49 24L49 25L50 25L50 26L53 26L53 27L54 27L54 26L53 26L53 25L55 25L55 26L56 26L56 25L55 25L55 24L49 24L49 23L50 23L50 22L51 22L51 21L49 21L49 22L47 22L47 21L48 21L48 20L47 20L47 21L45 21L45 20L44 20L44 18L45 18L45 19L46 19L46 18L47 18L47 19L48 19L48 18L47 18L47 17L48 17L48 16L49 16L49 17L50 17L50 16L52 16L52 15L50 15L50 14L51 14L51 12L50 12L50 10L49 10L49 11L48 11L48 10L47 10L47 9L49 9L49 8L47 8L47 7L46 7L46 6L45 6L45 4L46 4L46 5L47 5L47 3L44 3L44 6L43 6L43 5L40 5L40 6L39 6L39 8L38 8L38 6L37 6L37 7L36 7L36 5L37 5L37 4L36 4L36 5L35 5L35 4L34 4L34 3L35 3L35 2L33 2L33 3L32 3L32 2ZM15 4L15 5L16 5L16 4ZM23 4L23 5L24 5L24 4ZM32 4L32 5L33 5L33 4ZM10 5L10 6L11 6L11 8L12 8L12 6L11 6L11 5ZM27 5L27 8L30 8L30 5ZM34 5L34 7L33 7L33 6L32 6L32 7L33 7L33 9L34 9L34 8L35 8L35 9L37 9L37 10L36 10L36 11L37 11L37 12L35 12L35 13L37 13L37 14L38 14L38 15L39 15L39 16L38 16L38 17L37 17L37 16L35 16L35 14L33 14L33 13L34 13L34 12L33 12L33 13L32 13L32 11L33 11L33 10L32 10L32 11L31 11L31 13L30 13L30 14L29 14L29 13L28 13L28 12L29 12L29 11L27 11L27 12L26 12L26 14L25 14L25 13L24 13L24 15L23 15L23 14L22 14L22 13L21 13L21 15L20 15L20 17L19 17L19 16L18 16L18 15L17 15L17 16L16 16L16 13L15 13L15 14L13 14L13 15L14 15L14 16L15 16L15 17L17 17L17 18L18 18L18 20L17 20L17 21L16 21L16 20L15 20L15 21L16 21L16 22L14 22L14 21L13 21L13 22L14 22L14 23L13 23L13 24L12 24L12 23L11 23L11 24L12 24L12 25L10 25L10 28L11 28L11 29L12 29L12 30L13 30L13 28L11 28L11 27L12 27L12 25L13 25L13 24L14 24L14 26L15 26L15 28L16 28L16 29L14 29L14 30L15 30L15 31L14 31L14 35L13 35L13 36L15 36L15 34L16 34L16 35L17 35L17 40L16 40L16 39L15 39L15 38L16 38L16 37L15 37L15 38L14 38L14 39L15 39L15 40L13 40L13 41L11 41L11 43L10 43L10 44L11 44L11 43L12 43L12 42L13 42L13 41L17 41L17 42L18 42L18 41L19 41L19 40L22 40L22 39L24 39L24 40L23 40L23 42L22 42L22 43L21 43L21 44L22 44L22 45L24 45L24 44L23 44L23 43L25 43L25 44L27 44L27 45L26 45L26 47L27 47L27 45L28 45L28 44L29 44L29 43L31 43L31 46L32 46L32 44L33 44L33 43L34 43L34 45L36 45L36 46L37 46L37 47L36 47L36 48L35 48L35 49L36 49L36 50L38 50L38 49L39 49L39 48L41 48L41 46L43 46L43 45L44 45L44 48L43 48L43 47L42 47L42 48L43 48L43 49L44 49L44 48L46 48L46 49L47 49L47 48L48 48L48 47L47 47L47 46L45 46L45 45L47 45L47 43L48 43L48 42L49 42L49 43L50 43L50 42L51 42L51 43L53 43L53 42L51 42L51 41L53 41L53 40L52 40L52 39L49 39L49 41L48 41L48 42L47 42L47 43L46 43L46 42L45 42L45 41L47 41L47 39L48 39L48 38L50 38L50 36L51 36L51 37L52 37L52 35L50 35L50 34L49 34L49 35L50 35L50 36L48 36L48 37L47 37L47 39L43 39L43 40L41 40L41 42L40 42L40 43L41 43L41 42L42 42L42 44L41 44L41 45L40 45L40 47L39 47L39 46L38 46L38 45L39 45L39 42L38 42L38 40L39 40L39 39L38 39L38 37L37 37L37 36L38 36L38 33L37 33L37 32L35 32L35 30L37 30L37 29L38 29L38 28L40 28L40 27L41 27L41 28L42 28L42 27L41 27L41 26L43 26L43 27L44 27L44 28L43 28L43 29L41 29L41 30L43 30L43 29L44 29L44 28L45 28L45 27L44 27L44 24L43 24L43 25L39 25L39 24L41 24L41 23L44 23L44 20L42 20L42 19L43 19L43 18L44 18L44 15L47 15L47 16L46 16L46 17L45 17L45 18L46 18L46 17L47 17L47 16L48 16L48 15L49 15L49 14L50 14L50 12L49 12L49 13L47 13L47 14L43 14L43 13L44 13L44 12L43 12L43 13L39 13L39 12L41 12L41 10L42 10L42 11L45 11L45 12L47 12L47 10L46 10L46 9L45 9L45 10L44 10L44 8L46 8L46 7L45 7L45 6L44 6L44 8L42 8L42 7L43 7L43 6L42 6L42 7L41 7L41 6L40 6L40 7L41 7L41 10L40 10L40 9L39 9L39 10L40 10L40 11L38 11L38 8L35 8L35 5ZM23 6L23 8L24 8L24 6ZM28 6L28 7L29 7L29 6ZM0 8L0 9L2 9L2 10L3 10L3 11L4 11L4 10L3 10L3 9L5 9L5 8ZM51 8L51 9L52 9L52 8ZM53 8L53 9L54 9L54 8ZM15 9L15 10L16 10L16 9ZM45 10L45 11L46 11L46 10ZM52 12L52 13L53 13L53 14L56 14L56 12L54 12L54 13L53 13L53 12ZM1 13L1 14L2 14L2 13ZM8 13L8 14L9 14L9 13ZM27 13L27 15L26 15L26 17L28 17L28 16L29 16L29 14L28 14L28 13ZM31 13L31 14L30 14L30 15L31 15L31 16L32 16L32 17L33 17L33 18L32 18L32 19L33 19L33 18L34 18L34 19L36 19L36 20L37 20L37 21L38 21L38 22L37 22L37 24L39 24L39 23L40 23L40 22L39 22L39 21L41 21L41 20L39 20L39 21L38 21L38 19L39 19L39 17L41 17L41 16L42 16L42 17L43 17L43 16L42 16L42 15L43 15L43 14L40 14L40 15L41 15L41 16L39 16L39 17L38 17L38 18L37 18L37 17L35 17L35 16L33 16L33 15L31 15L31 14L32 14L32 13ZM38 13L38 14L39 14L39 13ZM1 15L1 16L2 16L2 15ZM3 15L3 16L4 16L4 17L5 17L5 18L7 18L7 19L6 19L6 20L7 20L7 19L10 19L10 17L5 17L5 16L4 16L4 15ZM21 15L21 16L22 16L22 17L20 17L20 19L19 19L19 20L20 20L20 21L18 21L18 23L19 23L19 24L21 24L21 25L20 25L20 27L21 27L21 28L22 28L22 29L20 29L20 30L19 30L19 31L18 31L18 29L19 29L19 26L18 26L18 25L17 25L17 24L16 24L16 23L15 23L15 24L16 24L16 25L15 25L15 26L18 26L18 27L17 27L17 28L18 28L18 29L16 29L16 30L17 30L17 32L19 32L19 31L20 31L20 32L21 32L21 33L20 33L20 34L19 34L19 35L18 35L18 36L19 36L19 37L18 37L18 38L19 38L19 39L20 39L20 38L19 38L19 37L21 37L21 38L24 38L24 37L23 37L23 36L24 36L24 34L23 34L23 33L25 33L25 35L26 35L26 34L27 34L27 37L28 37L28 38L27 38L27 39L25 39L25 40L24 40L24 41L25 41L25 43L27 43L27 44L28 44L28 43L27 43L27 42L29 42L29 41L28 41L28 40L30 40L30 42L32 42L32 43L33 43L33 42L34 42L34 43L37 43L37 42L35 42L35 40L38 40L38 39L35 39L35 40L33 40L33 39L29 39L29 38L31 38L31 37L29 37L29 36L30 36L30 34L29 34L29 33L31 33L31 35L33 35L33 36L32 36L32 37L33 37L33 38L35 38L35 36L37 36L37 34L35 34L35 33L34 33L34 31L32 31L32 30L35 30L35 28L37 28L37 27L39 27L39 25L38 25L38 26L37 26L37 25L33 25L33 24L32 24L32 23L33 23L33 22L34 22L34 23L35 23L35 20L32 20L32 21L31 21L31 20L30 20L30 19L31 19L31 18L30 18L30 19L28 19L28 18L25 18L25 19L26 19L26 20L25 20L25 21L24 21L24 20L23 20L23 19L24 19L24 18L22 18L22 17L25 17L25 16L23 16L23 15ZM27 15L27 16L28 16L28 15ZM41 18L41 19L42 19L42 18ZM20 19L20 20L22 20L22 19ZM27 19L27 20L28 20L28 19ZM11 21L11 22L12 22L12 21ZM22 21L22 22L21 22L21 24L24 24L24 25L21 25L21 27L22 27L22 26L26 26L26 27L25 27L25 28L23 28L23 31L21 31L21 32L23 32L23 31L24 31L24 32L25 32L25 33L27 33L27 31L31 31L31 33L32 33L32 34L33 34L33 33L32 33L32 31L31 31L31 29L32 29L32 28L31 28L31 26L32 26L32 27L33 27L33 28L35 28L35 27L36 27L36 26L34 26L34 27L33 27L33 26L32 26L32 24L30 24L30 25L27 25L27 26L26 26L26 25L25 25L25 24L29 24L29 22L31 22L31 21L25 21L25 22L26 22L26 23L25 23L25 24L24 24L24 23L23 23L23 22L24 22L24 21ZM19 22L19 23L20 23L20 22ZM45 22L45 23L47 23L47 22ZM3 26L3 27L4 27L4 26ZM1 27L1 28L2 28L2 27ZM5 27L5 30L8 30L8 27ZM27 27L27 30L30 30L30 27ZM49 27L49 30L52 30L52 27ZM55 27L55 28L54 28L54 29L55 29L55 28L56 28L56 27ZM6 28L6 29L7 29L7 28ZM25 28L25 29L26 29L26 28ZM28 28L28 29L29 29L29 28ZM50 28L50 29L51 29L51 28ZM39 29L39 30L38 30L38 32L39 32L39 30L40 30L40 29ZM24 30L24 31L25 31L25 32L26 32L26 31L25 31L25 30ZM53 30L53 31L54 31L54 30ZM47 31L47 32L48 32L48 33L49 33L49 32L48 32L48 31ZM51 31L51 33L52 33L52 31ZM15 32L15 33L16 33L16 34L17 34L17 33L16 33L16 32ZM28 32L28 33L29 33L29 32ZM41 32L41 33L39 33L39 34L40 34L40 35L39 35L39 37L40 37L40 38L41 38L41 39L42 39L42 38L43 38L43 37L44 37L44 38L45 38L45 37L46 37L46 36L47 36L47 34L45 34L45 33L43 33L43 32ZM10 33L10 34L8 34L8 35L10 35L10 34L11 34L11 36L12 36L12 34L11 34L11 33ZM21 33L21 34L22 34L22 33ZM3 34L3 35L4 35L4 36L5 36L5 37L7 37L7 38L6 38L6 39L8 39L8 37L9 37L9 39L10 39L10 37L9 37L9 36L6 36L6 35L7 35L7 34L6 34L6 35L4 35L4 34ZM42 34L42 35L43 35L43 36L44 36L44 37L45 37L45 36L46 36L46 35L45 35L45 34ZM19 35L19 36L20 36L20 35ZM21 35L21 36L22 36L22 35ZM34 35L34 36L35 36L35 35ZM44 35L44 36L45 36L45 35ZM55 35L55 36L56 36L56 35ZM25 36L25 38L26 38L26 36ZM40 36L40 37L41 37L41 38L42 38L42 37L41 37L41 36ZM12 37L12 38L11 38L11 39L12 39L12 38L13 38L13 37ZM54 37L54 38L55 38L55 37ZM27 39L27 40L28 40L28 39ZM17 40L17 41L18 41L18 40ZM31 40L31 41L32 41L32 42L33 42L33 41L32 41L32 40ZM43 40L43 41L45 41L45 40ZM0 41L0 42L1 42L1 41ZM4 41L4 42L5 42L5 41ZM6 41L6 42L7 42L7 41ZM26 41L26 42L27 42L27 41ZM43 42L43 44L44 44L44 45L45 45L45 44L46 44L46 43L45 43L45 42ZM44 43L44 44L45 44L45 43ZM8 44L8 45L9 45L9 44ZM15 44L15 45L14 45L14 48L13 48L13 49L14 49L14 50L13 50L13 52L14 52L14 53L15 53L15 54L16 54L16 53L17 53L17 52L18 52L18 51L19 51L19 52L20 52L20 51L19 51L19 50L21 50L21 49L23 49L23 47L20 47L20 48L21 48L21 49L19 49L19 50L17 50L17 48L18 48L18 46L17 46L17 45L18 45L18 44L17 44L17 45L16 45L16 44ZM54 44L54 46L56 46L56 45L55 45L55 44ZM3 45L3 47L5 47L5 46L4 46L4 45ZM15 46L15 48L14 48L14 49L15 49L15 48L17 48L17 46ZM33 46L33 47L35 47L35 46ZM38 47L38 48L37 48L37 49L38 49L38 48L39 48L39 47ZM46 47L46 48L47 48L47 47ZM53 48L53 49L54 49L54 48ZM55 48L55 50L54 50L54 51L55 51L55 52L56 52L56 51L55 51L55 50L56 50L56 48ZM27 49L27 52L30 52L30 49ZM33 49L33 50L34 50L34 49ZM49 49L49 52L52 52L52 49ZM16 50L16 51L17 51L17 50ZM28 50L28 51L29 51L29 50ZM50 50L50 51L51 51L51 50ZM14 51L14 52L15 52L15 53L16 53L16 52L15 52L15 51ZM9 53L9 54L11 54L11 53ZM24 53L24 54L23 54L23 55L24 55L24 56L25 56L25 53ZM26 53L26 54L27 54L27 53ZM33 53L33 55L35 55L35 56L36 56L36 54L35 54L35 53ZM44 53L44 54L45 54L45 53ZM17 55L17 56L18 56L18 55ZM37 55L37 56L39 56L39 55ZM50 55L50 56L51 56L51 55ZM0 0L0 7L7 7L7 0ZM1 1L1 6L6 6L6 1ZM2 2L2 5L5 5L5 2ZM50 0L50 7L57 7L57 0ZM51 1L51 6L56 6L56 1ZM52 2L52 5L55 5L55 2ZM0 50L0 57L7 57L7 50ZM1 51L1 56L6 56L6 51ZM2 52L2 55L5 55L5 52Z" fill="#000000"/></g></g></svg>
