<?xml version="1.0" encoding="UTF-8"?>
<svg xmlns="http://www.w3.org/2000/svg" version="1.1" width="300" height="300" viewBox="0 0 300 300"><rect x="0" y="0" width="300" height="300" fill="#fefefe"/><g transform="scale(4.615)"><g transform="translate(4,4)"><path fill-rule="evenodd" d="M8 0L8 2L9 2L9 1L10 1L10 2L11 2L11 3L10 3L10 4L13 4L13 5L15 5L15 6L14 6L14 7L13 7L13 6L12 6L12 7L11 7L11 5L10 5L10 7L11 7L11 9L9 9L9 4L8 4L8 9L7 9L7 8L5 8L5 9L3 9L3 8L0 8L0 10L1 10L1 12L0 12L0 13L1 13L1 12L2 12L2 13L3 13L3 15L2 15L2 14L0 14L0 16L1 16L1 15L2 15L2 17L3 17L3 18L2 18L2 19L3 19L3 21L4 21L4 22L3 22L3 23L2 23L2 22L1 22L1 23L2 23L2 25L1 25L1 27L0 27L0 29L1 29L1 28L2 28L2 27L3 27L3 26L4 26L4 29L3 29L3 30L2 30L2 31L1 31L1 30L0 30L0 32L5 32L5 34L6 34L6 35L7 35L7 34L8 34L8 36L9 36L9 37L10 37L10 36L9 36L9 34L8 34L8 32L6 32L6 31L9 31L9 28L11 28L11 29L10 29L10 30L11 30L11 29L12 29L12 30L13 30L13 31L11 31L11 32L10 32L10 33L11 33L11 32L13 32L13 31L15 31L15 32L14 32L14 33L13 33L13 35L12 35L12 36L14 36L14 38L13 38L13 37L11 37L11 38L6 38L6 39L7 39L7 40L5 40L5 38L4 38L4 39L3 39L3 38L2 38L2 37L7 37L7 36L5 36L5 35L4 35L4 34L3 34L3 33L1 33L1 34L0 34L0 38L1 38L1 39L0 39L0 43L1 43L1 40L2 40L2 42L3 42L3 45L5 45L5 47L3 47L3 46L2 46L2 44L1 44L1 46L0 46L0 48L5 48L5 47L7 47L7 46L9 46L9 48L6 48L6 49L8 49L8 50L9 50L9 51L8 51L8 52L10 52L10 53L9 53L9 54L8 54L8 57L9 57L9 55L11 55L11 54L12 54L12 57L17 57L17 56L18 56L18 57L20 57L20 56L19 56L19 54L18 54L18 53L19 53L19 52L20 52L20 53L21 53L21 54L20 54L20 55L21 55L21 54L23 54L23 55L22 55L22 57L25 57L25 55L26 55L26 57L28 57L28 55L29 55L29 57L33 57L33 55L34 55L34 57L35 57L35 55L38 55L38 52L40 52L40 53L39 53L39 55L40 55L40 54L41 54L41 56L40 56L40 57L41 57L41 56L42 56L42 57L43 57L43 54L42 54L42 53L43 53L43 52L44 52L44 55L46 55L46 53L49 53L49 54L48 54L48 55L47 55L47 57L48 57L48 55L49 55L49 57L50 57L50 55L49 55L49 54L52 54L52 55L53 55L53 56L51 56L51 57L54 57L54 54L53 54L53 53L55 53L55 52L54 52L54 51L53 51L53 50L54 50L54 49L53 49L53 48L54 48L54 47L53 47L53 46L54 46L54 45L53 45L53 44L54 44L54 43L55 43L55 44L56 44L56 47L55 47L55 50L56 50L56 51L57 51L57 50L56 50L56 47L57 47L57 42L56 42L56 43L55 43L55 42L54 42L54 41L57 41L57 40L54 40L54 38L57 38L57 36L56 36L56 35L57 35L57 33L56 33L56 31L57 31L57 29L55 29L55 30L56 30L56 31L55 31L55 32L54 32L54 30L53 30L53 28L54 28L54 27L55 27L55 28L56 28L56 27L57 27L57 24L56 24L56 23L57 23L57 20L56 20L56 19L57 19L57 18L56 18L56 17L57 17L57 13L56 13L56 12L55 12L55 13L56 13L56 15L55 15L55 16L54 16L54 14L53 14L53 12L54 12L54 11L55 11L55 9L57 9L57 8L55 8L55 9L54 9L54 10L53 10L53 8L48 8L48 7L49 7L49 6L48 6L48 7L47 7L47 5L48 5L48 0L42 0L42 1L41 1L41 0L38 0L38 2L37 2L37 1L35 1L35 0L34 0L34 8L32 8L32 9L31 9L31 5L32 5L32 2L33 2L33 0L30 0L30 3L31 3L31 4L28 4L28 3L27 3L27 2L28 2L28 1L29 1L29 0L28 0L28 1L27 1L27 0L24 0L24 1L23 1L23 0L20 0L20 1L19 1L19 3L21 3L21 5L20 5L20 7L19 7L19 5L18 5L18 3L17 3L17 1L18 1L18 0L16 0L16 3L15 3L15 0L14 0L14 3L12 3L12 2L13 2L13 1L12 1L12 2L11 2L11 0ZM20 1L20 2L22 2L22 4L23 4L23 2L22 2L22 1ZM24 1L24 4L25 4L25 1ZM31 1L31 2L32 2L32 1ZM39 1L39 2L38 2L38 3L37 3L37 2L35 2L35 3L36 3L36 4L35 4L35 9L34 9L34 10L33 10L33 9L32 9L32 12L30 12L30 11L31 11L31 9L30 9L30 11L29 11L29 12L30 12L30 13L29 13L29 15L28 15L28 14L27 14L27 12L28 12L28 11L27 11L27 10L25 10L25 9L26 9L26 5L24 5L24 6L23 6L23 7L22 7L22 6L21 6L21 7L22 7L22 8L21 8L21 9L20 9L20 10L19 10L19 9L18 9L18 8L19 8L19 7L18 7L18 6L17 6L17 5L16 5L16 6L15 6L15 7L14 7L14 8L13 8L13 7L12 7L12 9L11 9L11 10L10 10L10 11L9 11L9 10L8 10L8 12L7 12L7 11L6 11L6 10L7 10L7 9L5 9L5 15L4 15L4 18L3 18L3 19L4 19L4 20L5 20L5 22L4 22L4 23L3 23L3 25L4 25L4 23L5 23L5 24L7 24L7 23L6 23L6 22L7 22L7 21L6 21L6 20L7 20L7 19L8 19L8 20L9 20L9 21L8 21L8 24L9 24L9 25L8 25L8 26L9 26L9 27L10 27L10 26L9 26L9 25L10 25L10 23L9 23L9 21L10 21L10 22L11 22L11 24L12 24L12 25L11 25L11 26L12 26L12 25L14 25L14 26L13 26L13 27L11 27L11 28L13 28L13 29L14 29L14 27L15 27L15 25L16 25L16 26L17 26L17 27L16 27L16 28L15 28L15 30L17 30L17 31L16 31L16 32L19 32L19 31L18 31L18 30L20 30L20 32L21 32L21 33L20 33L20 34L18 34L18 36L21 36L21 38L20 38L20 39L22 39L22 38L23 38L23 41L22 41L22 40L21 40L21 41L20 41L20 40L19 40L19 38L17 38L17 37L16 37L16 36L17 36L17 33L16 33L16 34L14 34L14 35L15 35L15 38L14 38L14 39L15 39L15 40L13 40L13 41L12 41L12 40L9 40L9 41L5 41L5 40L4 40L4 41L3 41L3 42L4 42L4 41L5 41L5 43L4 43L4 44L5 44L5 45L6 45L6 46L7 46L7 45L6 45L6 44L8 44L8 45L9 45L9 46L10 46L10 45L13 45L13 46L11 46L11 47L10 47L10 48L11 48L11 49L9 49L9 50L10 50L10 51L11 51L11 53L10 53L10 54L11 54L11 53L13 53L13 54L15 54L15 52L16 52L16 51L17 51L17 50L19 50L19 51L20 51L20 50L21 50L21 52L24 52L24 51L25 51L25 54L24 54L24 55L25 55L25 54L27 54L27 55L28 55L28 53L26 53L26 50L25 50L25 48L27 48L27 47L28 47L28 48L31 48L31 47L33 47L33 45L34 45L34 47L35 47L35 49L34 49L34 48L33 48L33 49L34 49L34 50L33 50L33 52L34 52L34 55L35 55L35 53L36 53L36 54L37 54L37 53L36 53L36 52L34 52L34 50L35 50L35 51L37 51L37 52L38 52L38 51L39 51L39 49L40 49L40 51L41 51L41 52L42 52L42 51L41 51L41 49L42 49L42 50L43 50L43 51L45 51L45 49L44 49L44 47L45 47L45 48L46 48L46 51L47 51L47 52L48 52L48 51L47 51L47 47L48 47L48 45L49 45L49 48L50 48L50 42L49 42L49 41L51 41L51 40L52 40L52 44L53 44L53 40L52 40L52 39L53 39L53 38L54 38L54 36L55 36L55 37L56 37L56 36L55 36L55 33L54 33L54 32L53 32L53 31L52 31L52 32L51 32L51 31L50 31L50 33L49 33L49 34L48 34L48 33L47 33L47 29L48 29L48 28L46 28L46 29L44 29L44 28L42 28L42 31L40 31L40 30L41 30L41 29L40 29L40 28L41 28L41 27L40 27L40 23L41 23L41 22L40 22L40 19L41 19L41 20L42 20L42 23L43 23L43 24L42 24L42 27L44 27L44 26L45 26L45 25L44 25L44 24L46 24L46 23L47 23L47 21L48 21L48 23L49 23L49 24L48 24L48 26L49 26L49 24L50 24L50 26L51 26L51 25L52 25L52 26L53 26L53 25L54 25L54 26L55 26L55 27L56 27L56 26L55 26L55 25L56 25L56 24L55 24L55 23L56 23L56 20L55 20L55 19L56 19L56 18L55 18L55 19L54 19L54 16L53 16L53 14L52 14L52 13L50 13L50 11L51 11L51 12L52 12L52 11L53 11L53 10L52 10L52 9L50 9L50 11L49 11L49 9L48 9L48 8L47 8L47 7L46 7L46 5L47 5L47 3L46 3L46 5L44 5L44 4L45 4L45 2L47 2L47 1L42 1L42 2L40 2L40 1ZM39 2L39 4L38 4L38 5L39 5L39 4L40 4L40 2ZM43 2L43 4L42 4L42 3L41 3L41 4L42 4L42 5L41 5L41 6L40 6L40 7L41 7L41 8L40 8L40 10L38 10L38 9L39 9L39 6L38 6L38 7L37 7L37 6L36 6L36 10L34 10L34 11L33 11L33 12L32 12L32 13L31 13L31 14L33 14L33 15L34 15L34 17L33 17L33 16L32 16L32 17L31 17L31 16L30 16L30 15L29 15L29 16L30 16L30 17L28 17L28 18L30 18L30 17L31 17L31 18L32 18L32 19L29 19L29 20L28 20L28 19L27 19L27 18L26 18L26 11L25 11L25 10L24 10L24 8L22 8L22 9L21 9L21 10L22 10L22 9L23 9L23 10L24 10L24 11L22 11L22 12L25 12L25 15L24 15L24 13L23 13L23 15L24 15L24 16L22 16L22 14L21 14L21 18L20 18L20 16L19 16L19 15L18 15L18 13L19 13L19 14L20 14L20 13L21 13L21 11L20 11L20 13L19 13L19 12L18 12L18 11L19 11L19 10L16 10L16 12L17 12L17 14L15 14L15 15L17 15L17 18L19 18L19 20L18 20L18 21L19 21L19 20L20 20L20 21L21 21L21 22L20 22L20 23L21 23L21 24L22 24L22 25L21 25L21 30L22 30L22 33L23 33L23 34L22 34L22 37L23 37L23 35L25 35L25 36L24 36L24 37L26 37L26 40L25 40L25 41L26 41L26 42L24 42L24 43L22 43L22 44L25 44L25 45L26 45L26 46L25 46L25 47L26 47L26 46L28 46L28 47L29 47L29 46L28 46L28 45L30 45L30 43L31 43L31 42L30 42L30 43L29 43L29 42L28 42L28 40L27 40L27 36L28 36L28 37L29 37L29 36L28 36L28 35L31 35L31 36L30 36L30 40L29 40L29 41L30 41L30 40L31 40L31 38L33 38L33 39L34 39L34 41L33 41L33 40L32 40L32 45L33 45L33 44L36 44L36 46L35 46L35 47L36 47L36 46L38 46L38 45L37 45L37 44L40 44L40 46L41 46L41 47L40 47L40 49L41 49L41 47L42 47L42 45L43 45L43 44L42 44L42 45L41 45L41 44L40 44L40 43L43 43L43 42L44 42L44 43L45 43L45 44L44 44L44 46L43 46L43 47L44 47L44 46L45 46L45 47L46 47L46 44L47 44L47 45L48 45L48 44L49 44L49 42L48 42L48 44L47 44L47 43L45 43L45 42L44 42L44 41L46 41L46 40L47 40L47 41L48 41L48 40L49 40L49 37L48 37L48 36L49 36L49 35L48 35L48 34L47 34L47 37L48 37L48 40L47 40L47 38L46 38L46 37L45 37L45 36L46 36L46 30L45 30L45 31L44 31L44 29L43 29L43 31L42 31L42 33L41 33L41 32L40 32L40 31L38 31L38 30L37 30L37 28L38 28L38 29L39 29L39 26L38 26L38 25L37 25L37 24L36 24L36 23L38 23L38 21L39 21L39 19L40 19L40 18L41 18L41 19L42 19L42 20L43 20L43 19L44 19L44 21L43 21L43 22L44 22L44 23L45 23L45 22L46 22L46 21L47 21L47 19L48 19L48 21L49 21L49 20L51 20L51 18L52 18L52 17L53 17L53 16L52 16L52 14L51 14L51 16L52 16L52 17L51 17L51 18L50 18L50 17L49 17L49 16L50 16L50 13L49 13L49 14L48 14L48 12L49 12L49 11L48 11L48 9L47 9L47 11L46 11L46 7L45 7L45 6L44 6L44 5L43 5L43 4L44 4L44 2ZM14 3L14 4L15 4L15 3ZM16 3L16 4L17 4L17 3ZM26 3L26 4L27 4L27 3ZM27 5L27 8L30 8L30 5ZM16 6L16 7L17 7L17 8L18 8L18 7L17 7L17 6ZM24 6L24 7L25 7L25 6ZM28 6L28 7L29 7L29 6ZM32 6L32 7L33 7L33 6ZM41 6L41 7L42 7L42 8L41 8L41 9L42 9L42 10L43 10L43 12L42 12L42 11L41 11L41 10L40 10L40 11L41 11L41 12L42 12L42 15L41 15L41 17L42 17L42 18L43 18L43 17L44 17L44 19L46 19L46 18L47 18L47 17L48 17L48 19L49 19L49 17L48 17L48 16L46 16L46 15L48 15L48 14L47 14L47 13L46 13L46 11L45 11L45 10L43 10L43 9L44 9L44 8L45 8L45 7L44 7L44 6L43 6L43 7L42 7L42 6ZM14 8L14 9L12 9L12 10L11 10L11 11L10 11L10 12L11 12L11 14L12 14L12 15L8 15L8 16L6 16L6 15L7 15L7 14L9 14L9 12L8 12L8 13L7 13L7 12L6 12L6 13L7 13L7 14L6 14L6 15L5 15L5 17L7 17L7 18L6 18L6 19L5 19L5 18L4 18L4 19L5 19L5 20L6 20L6 19L7 19L7 18L8 18L8 19L9 19L9 20L10 20L10 19L9 19L9 18L10 18L10 17L11 17L11 18L12 18L12 17L13 17L13 19L12 19L12 20L11 20L11 22L13 22L13 23L12 23L12 24L13 24L13 23L15 23L15 24L16 24L16 25L17 25L17 23L16 23L16 22L17 22L17 19L16 19L16 17L15 17L15 16L14 16L14 14L12 14L12 13L13 13L13 12L11 12L11 11L12 11L12 10L14 10L14 9L15 9L15 8ZM37 8L37 9L38 9L38 8ZM2 9L2 10L3 10L3 11L2 11L2 12L3 12L3 11L4 11L4 10L3 10L3 9ZM37 10L37 11L34 11L34 12L35 12L35 13L34 13L34 15L35 15L35 17L34 17L34 18L36 18L36 19L37 19L37 18L36 18L36 15L37 15L37 16L38 16L38 18L40 18L40 15L39 15L39 13L40 13L40 14L41 14L41 13L40 13L40 12L37 12L37 11L38 11L38 10ZM51 10L51 11L52 11L52 10ZM56 10L56 11L57 11L57 10ZM14 11L14 12L15 12L15 11ZM36 12L36 13L35 13L35 14L36 14L36 13L37 13L37 15L38 15L38 13L37 13L37 12ZM44 12L44 14L43 14L43 16L44 16L44 17L45 17L45 18L46 18L46 16L44 16L44 14L45 14L45 15L46 15L46 13L45 13L45 12ZM12 15L12 16L11 16L11 17L12 17L12 16L13 16L13 17L14 17L14 18L15 18L15 17L14 17L14 16L13 16L13 15ZM9 16L9 17L8 17L8 18L9 18L9 17L10 17L10 16ZM24 16L24 18L25 18L25 16ZM55 16L55 17L56 17L56 16ZM0 17L0 18L1 18L1 17ZM32 17L32 18L33 18L33 17ZM22 18L22 19L20 19L20 20L21 20L21 21L22 21L22 19L23 19L23 18ZM0 19L0 20L1 20L1 21L2 21L2 20L1 20L1 19ZM14 19L14 20L15 20L15 19ZM24 19L24 20L25 20L25 21L26 21L26 20L27 20L27 21L28 21L28 22L26 22L26 23L29 23L29 25L28 25L28 24L27 24L27 25L26 25L26 26L27 26L27 25L28 25L28 26L29 26L29 25L30 25L30 26L31 26L31 25L32 25L32 27L31 27L31 30L32 30L32 32L30 32L30 34L32 34L32 32L33 32L33 33L34 33L34 35L33 35L33 36L34 36L34 39L35 39L35 41L34 41L34 42L35 42L35 41L36 41L36 44L37 44L37 43L40 43L40 42L39 42L39 41L40 41L40 40L41 40L41 41L42 41L42 42L43 42L43 41L42 41L42 40L41 40L41 39L40 39L40 38L39 38L39 36L40 36L40 35L41 35L41 36L42 36L42 35L43 35L43 37L42 37L42 39L43 39L43 38L44 38L44 35L43 35L43 33L42 33L42 34L40 34L40 32L39 32L39 33L38 33L38 34L37 34L37 33L36 33L36 31L37 31L37 32L38 32L38 31L37 31L37 30L36 30L36 27L37 27L37 26L36 26L36 24L34 24L34 22L35 22L35 23L36 23L36 22L37 22L37 21L38 21L38 20L37 20L37 21L36 21L36 20L34 20L34 19L33 19L33 21L32 21L32 20L31 20L31 21L30 21L30 23L29 23L29 21L28 21L28 20L27 20L27 19L26 19L26 20L25 20L25 19ZM53 19L53 20L52 20L52 22L51 22L51 23L50 23L50 22L49 22L49 23L50 23L50 24L52 24L52 25L53 25L53 24L54 24L54 22L55 22L55 21L54 21L54 19ZM45 20L45 21L44 21L44 22L45 22L45 21L46 21L46 20ZM14 21L14 22L15 22L15 21ZM33 21L33 22L31 22L31 23L30 23L30 24L31 24L31 23L32 23L32 25L33 25L33 26L34 26L34 24L33 24L33 22L34 22L34 21ZM35 21L35 22L36 22L36 21ZM18 22L18 23L19 23L19 22ZM21 22L21 23L22 23L22 24L23 24L23 23L22 23L22 22ZM24 22L24 23L25 23L25 22ZM52 22L52 24L53 24L53 22ZM18 24L18 25L19 25L19 27L18 27L18 28L19 28L19 27L20 27L20 24ZM6 25L6 26L7 26L7 25ZM24 25L24 26L23 26L23 27L22 27L22 28L23 28L23 29L22 29L22 30L23 30L23 31L24 31L24 34L25 34L25 35L26 35L26 34L27 34L27 35L28 35L28 34L29 34L29 31L28 31L28 32L27 32L27 33L26 33L26 30L25 30L25 29L24 29L24 28L25 28L25 27L24 27L24 26L25 26L25 25ZM43 25L43 26L44 26L44 25ZM46 25L46 26L47 26L47 25ZM5 27L5 30L8 30L8 27ZM23 27L23 28L24 28L24 27ZM27 27L27 30L30 30L30 27ZM34 27L34 29L33 29L33 28L32 28L32 29L33 29L33 32L34 32L34 33L35 33L35 35L34 35L34 36L35 36L35 35L36 35L36 37L35 37L35 38L36 38L36 41L37 41L37 42L38 42L38 41L39 41L39 38L38 38L38 36L39 36L39 34L38 34L38 36L37 36L37 35L36 35L36 33L35 33L35 31L36 31L36 30L35 30L35 31L34 31L34 29L35 29L35 27ZM49 27L49 30L52 30L52 27ZM6 28L6 29L7 29L7 28ZM28 28L28 29L29 29L29 28ZM50 28L50 29L51 29L51 28ZM23 29L23 30L24 30L24 31L25 31L25 30L24 30L24 29ZM3 30L3 31L4 31L4 30ZM6 33L6 34L7 34L7 33ZM27 33L27 34L28 34L28 33ZM50 33L50 36L51 36L51 37L50 37L50 40L51 40L51 38L52 38L52 37L53 37L53 36L54 36L54 34L53 34L53 36L51 36L51 33ZM20 34L20 35L21 35L21 34ZM1 35L1 36L3 36L3 35ZM31 36L31 37L32 37L32 36ZM36 37L36 38L37 38L37 41L38 41L38 38L37 38L37 37ZM11 38L11 39L12 39L12 38ZM16 38L16 39L17 39L17 40L15 40L15 41L13 41L13 42L16 42L16 43L13 43L13 44L16 44L16 45L14 45L14 46L13 46L13 47L12 47L12 48L13 48L13 47L14 47L14 48L15 48L15 47L14 47L14 46L16 46L16 47L18 47L18 49L19 49L19 47L20 47L20 45L21 45L21 42L20 42L20 41L19 41L19 40L18 40L18 39L17 39L17 38ZM24 38L24 39L25 39L25 38ZM28 38L28 39L29 39L29 38ZM2 39L2 40L3 40L3 39ZM17 40L17 41L16 41L16 42L17 42L17 41L18 41L18 40ZM9 41L9 42L6 42L6 43L5 43L5 44L6 44L6 43L8 43L8 44L9 44L9 45L10 45L10 44L11 44L11 43L12 43L12 42L10 42L10 41ZM9 42L9 44L10 44L10 42ZM19 42L19 43L18 43L18 44L19 44L19 45L18 45L18 46L19 46L19 45L20 45L20 44L19 44L19 43L20 43L20 42ZM27 42L27 43L28 43L28 42ZM27 44L27 45L28 45L28 44ZM16 45L16 46L17 46L17 45ZM52 45L52 46L53 46L53 45ZM1 46L1 47L2 47L2 46ZM21 46L21 48L22 48L22 50L23 50L23 51L24 51L24 49L23 49L23 48L24 48L24 46L23 46L23 48L22 48L22 46ZM30 46L30 47L31 47L31 46ZM37 47L37 48L36 48L36 49L37 49L37 51L38 51L38 47ZM51 47L51 48L53 48L53 47ZM12 49L12 50L15 50L15 49ZM27 49L27 52L30 52L30 49ZM31 49L31 52L32 52L32 49ZM43 49L43 50L44 50L44 49ZM49 49L49 52L52 52L52 49ZM28 50L28 51L29 51L29 50ZM50 50L50 51L51 51L51 50ZM14 51L14 52L15 52L15 51ZM17 52L17 53L18 53L18 52ZM45 52L45 53L46 53L46 52ZM56 52L56 53L57 53L57 52ZM31 53L31 54L30 54L30 55L33 55L33 54L32 54L32 53ZM16 54L16 55L18 55L18 54ZM55 54L55 55L57 55L57 54ZM13 55L13 56L14 56L14 55ZM36 56L36 57L37 57L37 56ZM44 56L44 57L46 57L46 56ZM56 56L56 57L57 57L57 56ZM0 0L0 7L7 7L7 0ZM1 1L1 6L6 6L6 1ZM2 2L2 5L5 5L5 2ZM50 0L50 7L57 7L57 0ZM51 1L51 6L56 6L56 1ZM52 2L52 5L55 5L55 2ZM0 50L0 57L7 57L7 50ZM1 51L1 56L6 56L6 51ZM2 52L2 55L5 55L5 52Z" fill="#000000"/></g></g></svg>
