<?xml version="1.0" encoding="UTF-8"?>
<svg xmlns="http://www.w3.org/2000/svg" version="1.1" width="300" height="300" viewBox="0 0 300 300"><rect x="0" y="0" width="300" height="300" fill="#fefefe"/><g transform="scale(4.615)"><g transform="translate(4,4)"><path fill-rule="evenodd" d="M8 0L8 2L9 2L9 3L10 3L10 4L8 4L8 9L7 9L7 8L5 8L5 9L3 9L3 8L0 8L0 9L1 9L1 11L0 11L0 12L2 12L2 11L3 11L3 14L2 14L2 16L1 16L1 17L3 17L3 16L4 16L4 20L3 20L3 19L2 19L2 18L0 18L0 20L1 20L1 22L3 22L3 23L4 23L4 22L5 22L5 23L7 23L7 22L5 22L5 21L8 21L8 19L7 19L7 18L6 18L6 17L8 17L8 18L11 18L11 19L9 19L9 22L8 22L8 23L9 23L9 24L8 24L8 25L9 25L9 24L11 24L11 23L12 23L12 24L13 24L13 25L14 25L14 26L15 26L15 27L14 27L14 28L13 28L13 26L12 26L12 27L11 27L11 25L10 25L10 26L4 26L4 24L3 24L3 25L2 25L2 26L1 26L1 25L0 25L0 26L1 26L1 27L2 27L2 28L1 28L1 30L2 30L2 28L4 28L4 29L3 29L3 31L5 31L5 32L3 32L3 33L1 33L1 31L0 31L0 34L1 34L1 35L0 35L0 40L1 40L1 41L2 41L2 40L3 40L3 39L2 39L2 36L1 36L1 35L2 35L2 34L4 34L4 35L3 35L3 37L4 37L4 36L5 36L5 37L7 37L7 38L4 38L4 39L8 39L8 38L9 38L9 39L10 39L10 40L11 40L11 42L10 42L10 41L9 41L9 40L6 40L6 41L5 41L5 40L4 40L4 42L3 42L3 44L4 44L4 45L1 45L1 46L0 46L0 48L5 48L5 47L8 47L8 48L6 48L6 49L8 49L8 50L9 50L9 51L8 51L8 52L9 52L9 53L10 53L10 54L8 54L8 57L12 57L12 56L11 56L11 55L12 55L12 54L11 54L11 53L12 53L12 52L13 52L13 51L14 51L14 52L15 52L15 56L13 56L13 57L17 57L17 55L18 55L18 57L19 57L19 55L18 55L18 53L19 53L19 52L20 52L20 53L21 53L21 54L20 54L20 55L21 55L21 54L22 54L22 53L23 53L23 55L22 55L22 57L23 57L23 56L24 56L24 57L25 57L25 56L26 56L26 57L28 57L28 55L29 55L29 57L33 57L33 55L34 55L34 57L35 57L35 55L38 55L38 47L37 47L37 48L36 48L36 49L37 49L37 51L35 51L35 50L34 50L34 49L35 49L35 48L33 48L33 47L34 47L34 45L33 45L33 44L35 44L35 43L36 43L36 41L37 41L37 42L38 42L38 41L39 41L39 38L40 38L40 39L41 39L41 40L40 40L40 42L39 42L39 43L37 43L37 44L36 44L36 45L37 45L37 46L38 46L38 45L37 45L37 44L40 44L40 46L41 46L41 47L40 47L40 49L39 49L39 52L40 52L40 53L39 53L39 55L40 55L40 57L42 57L42 56L44 56L44 57L50 57L50 55L49 55L49 54L52 54L52 55L53 55L53 56L51 56L51 57L53 57L53 56L54 56L54 55L53 55L53 53L57 53L57 50L56 50L56 52L54 52L54 51L53 51L53 50L54 50L54 49L56 49L56 47L57 47L57 42L56 42L56 41L57 41L57 40L55 40L55 42L54 42L54 38L57 38L57 34L56 34L56 31L57 31L57 29L56 29L56 27L57 27L57 24L56 24L56 23L57 23L57 21L56 21L56 20L57 20L57 13L56 13L56 12L57 12L57 10L56 10L56 12L55 12L55 13L56 13L56 15L55 15L55 14L53 14L53 12L54 12L54 11L55 11L55 9L57 9L57 8L55 8L55 9L54 9L54 10L52 10L52 9L53 9L53 8L49 8L49 11L48 11L48 12L47 12L47 11L46 11L46 9L47 9L47 8L48 8L48 7L49 7L49 6L48 6L48 7L47 7L47 5L48 5L48 0L42 0L42 1L41 1L41 0L38 0L38 3L37 3L37 4L38 4L38 5L37 5L37 6L36 6L36 10L34 10L34 9L35 9L35 4L36 4L36 3L35 3L35 2L37 2L37 1L35 1L35 0L34 0L34 2L33 2L33 6L32 6L32 7L33 7L33 6L34 6L34 8L32 8L32 9L31 9L31 5L32 5L32 2L31 2L31 0L30 0L30 3L31 3L31 4L28 4L28 3L29 3L29 2L28 2L28 0L26 0L26 2L25 2L25 4L24 4L24 1L25 1L25 0L24 0L24 1L23 1L23 0L19 0L19 2L20 2L20 3L21 3L21 4L22 4L22 5L20 5L20 7L19 7L19 4L18 4L18 2L17 2L17 4L16 4L16 2L15 2L15 0L14 0L14 3L13 3L13 1L12 1L12 0L11 0L11 1L10 1L10 2L9 2L9 0ZM16 0L16 1L17 1L17 0ZM11 1L11 2L10 2L10 3L11 3L11 4L13 4L13 3L12 3L12 1ZM20 1L20 2L21 2L21 1ZM22 1L22 2L23 2L23 1ZM39 1L39 2L40 2L40 4L39 4L39 3L38 3L38 4L39 4L39 5L38 5L38 6L37 6L37 7L38 7L38 6L39 6L39 9L38 9L38 8L37 8L37 9L38 9L38 10L39 10L39 11L41 11L41 12L42 12L42 15L41 15L41 17L42 17L42 18L43 18L43 17L44 17L44 19L42 19L42 20L41 20L41 21L42 21L42 22L43 22L43 25L42 25L42 23L41 23L41 22L40 22L40 19L41 19L41 18L40 18L40 15L39 15L39 12L37 12L37 11L34 11L34 10L33 10L33 9L32 9L32 12L30 12L30 11L31 11L31 9L30 9L30 11L29 11L29 12L30 12L30 13L29 13L29 15L28 15L28 14L27 14L27 12L28 12L28 9L27 9L27 10L25 10L25 9L26 9L26 5L24 5L24 6L23 6L23 7L22 7L22 6L21 6L21 7L22 7L22 8L21 8L21 9L20 9L20 10L21 10L21 11L18 11L18 12L19 12L19 13L18 13L18 14L19 14L19 15L15 15L15 14L17 14L17 12L16 12L16 11L17 11L17 9L18 9L18 10L19 10L19 9L18 9L18 6L17 6L17 5L16 5L16 6L15 6L15 7L14 7L14 5L13 5L13 9L12 9L12 8L11 8L11 7L12 7L12 5L10 5L10 6L9 6L9 7L10 7L10 10L9 10L9 9L8 9L8 10L7 10L7 9L5 9L5 11L4 11L4 13L6 13L6 14L3 14L3 15L4 15L4 16L8 16L8 17L9 17L9 15L6 15L6 14L7 14L7 13L6 13L6 12L7 12L7 11L8 11L8 14L9 14L9 12L10 12L10 13L13 13L13 15L15 15L15 16L16 16L16 18L15 18L15 17L14 17L14 16L12 16L12 14L11 14L11 16L12 16L12 17L11 17L11 18L13 18L13 17L14 17L14 18L15 18L15 19L14 19L14 20L16 20L16 18L17 18L17 22L16 22L16 23L17 23L17 25L16 25L16 27L15 27L15 29L13 29L13 28L11 28L11 27L9 27L9 29L10 29L10 30L9 30L9 32L8 32L8 31L6 31L6 32L8 32L8 33L9 33L9 32L10 32L10 30L11 30L11 29L12 29L12 30L18 30L18 31L16 31L16 32L15 32L15 31L13 31L13 32L12 32L12 31L11 31L11 33L12 33L12 34L11 34L11 35L10 35L10 34L9 34L9 36L10 36L10 37L12 37L12 35L14 35L14 33L15 33L15 35L16 35L16 36L14 36L14 37L15 37L15 38L13 38L13 40L12 40L12 42L13 42L13 41L14 41L14 42L15 42L15 41L16 41L16 43L17 43L17 41L18 41L18 40L19 40L19 41L20 41L20 42L19 42L19 43L18 43L18 44L19 44L19 45L18 45L18 46L17 46L17 45L16 45L16 44L15 44L15 43L14 43L14 44L15 44L15 45L14 45L14 48L15 48L15 47L16 47L16 48L17 48L17 49L16 49L16 50L15 50L15 49L13 49L13 50L12 50L12 49L10 49L10 51L9 51L9 52L10 52L10 53L11 53L11 52L12 52L12 51L13 51L13 50L14 50L14 51L15 51L15 52L17 52L17 53L18 53L18 52L17 52L17 51L19 51L19 50L18 50L18 48L19 48L19 45L20 45L20 48L21 48L21 49L20 49L20 51L21 51L21 53L22 53L22 52L24 52L24 51L25 51L25 54L24 54L24 55L26 55L26 51L25 51L25 48L27 48L27 46L26 46L26 45L24 45L24 46L26 46L26 47L24 47L24 48L23 48L23 44L22 44L22 43L24 43L24 44L25 44L25 43L24 43L24 42L26 42L26 41L25 41L25 40L26 40L26 39L27 39L27 40L28 40L28 42L27 42L27 43L28 43L28 42L29 42L29 44L28 44L28 46L29 46L29 47L28 47L28 48L31 48L31 52L32 52L32 51L33 51L33 50L32 50L32 48L31 48L31 47L30 47L30 45L32 45L32 44L30 44L30 42L31 42L31 43L32 43L32 40L33 40L33 41L34 41L34 42L35 42L35 41L36 41L36 38L37 38L37 41L38 41L38 38L39 38L39 36L40 36L40 35L41 35L41 39L42 39L42 40L43 40L43 38L44 38L44 35L43 35L43 33L42 33L42 31L45 31L45 30L46 30L46 34L45 34L45 37L46 37L46 38L45 38L45 41L44 41L44 42L45 42L45 43L42 43L42 42L43 42L43 41L42 41L42 42L40 42L40 43L41 43L41 45L42 45L42 47L41 47L41 49L40 49L40 51L41 51L41 52L43 52L43 53L42 53L42 54L43 54L43 55L44 55L44 56L45 56L45 55L46 55L46 56L47 56L47 55L48 55L48 56L49 56L49 55L48 55L48 54L49 54L49 53L46 53L46 50L47 50L47 47L48 47L48 46L47 46L47 44L46 44L46 50L45 50L45 55L44 55L44 52L43 52L43 51L44 51L44 50L43 50L43 49L44 49L44 47L43 47L43 46L44 46L44 44L45 44L45 43L46 43L46 42L47 42L47 43L48 43L48 42L49 42L49 44L48 44L48 45L49 45L49 48L50 48L50 46L51 46L51 45L52 45L52 47L51 47L51 48L53 48L53 49L54 49L54 48L55 48L55 47L56 47L56 44L55 44L55 43L56 43L56 42L55 42L55 43L54 43L54 44L53 44L53 40L52 40L52 39L51 39L51 40L48 40L48 39L49 39L49 38L47 38L47 37L46 37L46 34L48 34L48 35L47 35L47 36L48 36L48 37L49 37L49 36L50 36L50 37L51 37L51 36L53 36L53 37L52 37L52 38L54 38L54 36L55 36L55 37L56 37L56 34L55 34L55 33L53 33L53 31L51 31L51 32L50 32L50 31L49 31L49 32L50 32L50 33L49 33L49 34L48 34L48 33L47 33L47 30L48 30L48 27L47 27L47 28L46 28L46 29L44 29L44 30L43 30L43 28L42 28L42 31L41 31L41 30L40 30L40 28L41 28L41 27L44 27L44 26L45 26L45 27L46 27L46 26L47 26L47 25L46 25L46 26L45 26L45 25L44 25L44 24L46 24L46 23L47 23L47 24L48 24L48 26L49 26L49 24L50 24L50 26L52 26L52 24L53 24L53 25L54 25L54 26L55 26L55 27L54 27L54 28L53 28L53 30L54 30L54 32L55 32L55 31L56 31L56 30L55 30L55 27L56 27L56 26L55 26L55 25L56 25L56 24L55 24L55 23L56 23L56 21L55 21L55 20L56 20L56 18L55 18L55 19L54 19L54 16L55 16L55 17L56 17L56 16L55 16L55 15L54 15L54 16L53 16L53 14L52 14L52 13L50 13L50 11L51 11L51 12L52 12L52 10L51 10L51 9L50 9L50 11L49 11L49 12L48 12L48 14L47 14L47 13L46 13L46 11L45 11L45 9L44 9L44 8L42 8L42 6L43 6L43 7L44 7L44 6L45 6L45 7L46 7L46 8L47 8L47 7L46 7L46 5L47 5L47 3L46 3L46 5L44 5L44 4L45 4L45 2L47 2L47 1L42 1L42 2L40 2L40 1ZM27 2L27 3L26 3L26 4L27 4L27 3L28 3L28 2ZM43 2L43 3L41 3L41 4L42 4L42 5L41 5L41 6L40 6L40 7L41 7L41 6L42 6L42 5L43 5L43 6L44 6L44 5L43 5L43 4L44 4L44 2ZM14 3L14 4L15 4L15 3ZM22 3L22 4L23 4L23 3ZM34 3L34 4L35 4L35 3ZM27 5L27 8L30 8L30 5ZM10 6L10 7L11 7L11 6ZM16 6L16 7L17 7L17 6ZM24 6L24 7L25 7L25 6ZM28 6L28 7L29 7L29 6ZM14 8L14 9L15 9L15 11L14 11L14 12L15 12L15 11L16 11L16 8ZM22 8L22 9L23 9L23 10L24 10L24 11L22 11L22 12L24 12L24 13L23 13L23 14L24 14L24 15L23 15L23 16L22 16L22 14L21 14L21 15L19 15L19 16L18 16L18 19L19 19L19 18L20 18L20 19L22 19L22 21L23 21L23 22L22 22L22 23L21 23L21 22L20 22L20 23L21 23L21 24L22 24L22 25L21 25L21 26L20 26L20 27L21 27L21 28L19 28L19 27L18 27L18 28L19 28L19 31L20 31L20 29L21 29L21 30L22 30L22 33L23 33L23 34L22 34L22 35L20 35L20 33L19 33L19 32L18 32L18 33L19 33L19 34L18 34L18 35L19 35L19 36L18 36L18 37L19 37L19 38L16 38L16 39L17 39L17 40L18 40L18 39L19 39L19 40L20 40L20 41L21 41L21 40L22 40L22 41L23 41L23 38L22 38L22 37L23 37L23 35L25 35L25 36L24 36L24 37L25 37L25 36L28 36L28 37L29 37L29 36L28 36L28 35L31 35L31 36L30 36L30 40L29 40L29 42L30 42L30 40L31 40L31 38L33 38L33 39L34 39L34 41L35 41L35 38L36 38L36 37L37 37L37 38L38 38L38 37L37 37L37 36L38 36L38 35L39 35L39 34L38 34L38 33L39 33L39 32L40 32L40 34L42 34L42 33L41 33L41 32L40 32L40 30L39 30L39 31L38 31L38 30L37 30L37 28L38 28L38 29L39 29L39 28L40 28L40 26L41 26L41 23L40 23L40 26L38 26L38 25L37 25L37 24L36 24L36 23L37 23L37 22L38 22L38 23L39 23L39 22L38 22L38 21L39 21L39 19L40 19L40 18L38 18L38 16L37 16L37 15L38 15L38 13L37 13L37 12L36 12L36 13L37 13L37 14L36 14L36 18L34 18L34 17L35 17L35 15L34 15L34 13L35 13L35 12L34 12L34 11L33 11L33 12L32 12L32 13L31 13L31 16L30 16L30 15L29 15L29 16L30 16L30 17L28 17L28 18L30 18L30 17L31 17L31 19L30 19L30 20L28 20L28 19L27 19L27 16L26 16L26 15L27 15L27 14L26 14L26 15L25 15L25 14L24 14L24 13L26 13L26 11L25 11L25 10L24 10L24 8ZM40 8L40 9L39 9L39 10L40 10L40 9L41 9L41 11L42 11L42 12L43 12L43 10L44 10L44 9L43 9L43 10L42 10L42 8ZM2 9L2 10L3 10L3 9ZM11 9L11 11L12 11L12 9ZM6 10L6 11L5 11L5 12L6 12L6 11L7 11L7 10ZM8 10L8 11L9 11L9 10ZM20 12L20 13L19 13L19 14L20 14L20 13L21 13L21 12ZM44 12L44 13L45 13L45 14L43 14L43 16L44 16L44 17L45 17L45 18L46 18L46 19L47 19L47 20L48 20L48 21L47 21L47 23L48 23L48 24L49 24L49 23L50 23L50 24L52 24L52 22L53 22L53 24L54 24L54 22L55 22L55 21L54 21L54 19L53 19L53 20L52 20L52 22L51 22L51 23L50 23L50 22L49 22L49 23L48 23L48 21L49 21L49 20L51 20L51 19L50 19L50 17L51 17L51 16L50 16L50 13L49 13L49 14L48 14L48 15L46 15L46 13L45 13L45 12ZM0 13L0 14L1 14L1 13ZM32 13L32 15L33 15L33 17L34 17L34 15L33 15L33 13ZM40 13L40 14L41 14L41 13ZM51 14L51 15L52 15L52 14ZM24 15L24 18L25 18L25 17L26 17L26 16L25 16L25 15ZM44 15L44 16L45 16L45 17L46 17L46 18L47 18L47 17L46 17L46 15ZM19 16L19 17L20 17L20 18L21 18L21 17L20 17L20 16ZM48 16L48 18L49 18L49 16ZM52 16L52 18L53 18L53 16ZM32 18L32 19L33 19L33 21L32 21L32 20L31 20L31 21L30 21L30 22L28 22L28 20L27 20L27 19L26 19L26 20L27 20L27 22L26 22L26 23L27 23L27 25L26 25L26 26L27 26L27 25L28 25L28 24L29 24L29 23L30 23L30 22L33 22L33 21L34 21L34 22L35 22L35 23L36 23L36 22L37 22L37 21L38 21L38 19L37 19L37 18L36 18L36 19L37 19L37 21L36 21L36 20L35 20L35 19L33 19L33 18ZM1 19L1 20L2 20L2 21L3 21L3 22L4 22L4 21L5 21L5 20L4 20L4 21L3 21L3 20L2 20L2 19ZM6 19L6 20L7 20L7 19ZM12 19L12 20L10 20L10 21L11 21L11 22L12 22L12 23L13 23L13 24L14 24L14 25L15 25L15 24L14 24L14 23L15 23L15 21L14 21L14 23L13 23L13 21L12 21L12 20L13 20L13 19ZM24 19L24 20L25 20L25 19ZM44 19L44 21L43 21L43 22L44 22L44 23L46 23L46 20L45 20L45 19ZM48 19L48 20L49 20L49 19ZM18 20L18 23L19 23L19 20ZM20 20L20 21L21 21L21 20ZM35 21L35 22L36 22L36 21ZM44 21L44 22L45 22L45 21ZM9 22L9 23L10 23L10 22ZM24 22L24 23L25 23L25 22ZM27 22L27 23L28 23L28 22ZM1 23L1 24L2 24L2 23ZM22 23L22 24L23 24L23 23ZM31 23L31 25L30 25L30 26L31 26L31 25L32 25L32 28L31 28L31 30L32 30L32 31L31 31L31 32L30 32L30 31L29 31L29 32L28 32L28 31L27 31L27 32L26 32L26 30L25 30L25 27L24 27L24 26L25 26L25 25L24 25L24 26L23 26L23 27L22 27L22 28L23 28L23 27L24 27L24 31L23 31L23 32L24 32L24 34L25 34L25 35L26 35L26 34L27 34L27 35L28 35L28 34L29 34L29 32L30 32L30 34L32 34L32 35L35 35L35 36L33 36L33 37L34 37L34 38L35 38L35 37L36 37L36 35L38 35L38 34L37 34L37 33L36 33L36 31L37 31L37 32L38 32L38 31L37 31L37 30L35 30L35 29L36 29L36 28L37 28L37 26L36 26L36 24L34 24L34 23L33 23L33 24L34 24L34 26L33 26L33 25L32 25L32 23ZM5 24L5 25L7 25L7 24ZM18 24L18 25L19 25L19 24ZM3 26L3 27L4 27L4 26ZM5 27L5 30L8 30L8 27ZM16 27L16 28L17 28L17 27ZM27 27L27 30L30 30L30 27ZM34 27L34 29L33 29L33 28L32 28L32 29L33 29L33 32L32 32L32 33L34 33L34 32L35 32L35 31L34 31L34 29L35 29L35 27ZM49 27L49 30L52 30L52 27ZM6 28L6 29L7 29L7 28ZM10 28L10 29L11 29L11 28ZM28 28L28 29L29 29L29 28ZM50 28L50 29L51 29L51 28ZM22 29L22 30L23 30L23 29ZM4 33L4 34L5 34L5 33ZM6 33L6 34L7 34L7 35L5 35L5 36L7 36L7 35L8 35L8 34L7 34L7 33ZM27 33L27 34L28 34L28 33ZM35 33L35 35L36 35L36 33ZM50 33L50 36L51 36L51 33ZM16 34L16 35L17 35L17 34ZM53 34L53 36L54 36L54 34ZM42 35L42 37L43 37L43 35ZM48 35L48 36L49 36L49 35ZM16 36L16 37L17 37L17 36ZM21 36L21 37L22 37L22 36ZM31 36L31 37L32 37L32 36ZM26 37L26 38L24 38L24 39L26 39L26 38L27 38L27 37ZM10 38L10 39L11 39L11 38ZM20 38L20 39L22 39L22 38ZM28 38L28 39L29 39L29 38ZM46 38L46 41L45 41L45 42L46 42L46 41L48 41L48 40L47 40L47 38ZM14 39L14 40L15 40L15 39ZM51 40L51 41L49 41L49 42L50 42L50 45L51 45L51 44L52 44L52 45L53 45L53 44L52 44L52 40ZM6 41L6 42L7 42L7 43L5 43L5 42L4 42L4 43L5 43L5 44L7 44L7 45L5 45L5 46L3 46L3 47L5 47L5 46L8 46L8 45L10 45L10 46L11 46L11 48L13 48L13 46L11 46L11 45L12 45L12 44L11 44L11 43L9 43L9 41ZM0 42L0 44L2 44L2 43L1 43L1 42ZM8 43L8 44L9 44L9 43ZM19 43L19 44L20 44L20 45L21 45L21 44L20 44L20 43ZM10 44L10 45L11 45L11 44ZM29 44L29 45L30 45L30 44ZM42 44L42 45L43 45L43 44ZM15 45L15 46L16 46L16 47L17 47L17 46L16 46L16 45ZM54 45L54 46L53 46L53 48L54 48L54 47L55 47L55 45ZM1 46L1 47L2 47L2 46ZM21 46L21 48L22 48L22 51L24 51L24 49L23 49L23 48L22 48L22 46ZM32 46L32 47L33 47L33 46ZM9 47L9 48L8 48L8 49L9 49L9 48L10 48L10 47ZM27 49L27 52L30 52L30 49ZM41 49L41 51L43 51L43 50L42 50L42 49ZM49 49L49 52L52 52L52 49ZM11 50L11 51L12 51L12 50ZM28 50L28 51L29 51L29 50ZM50 50L50 51L51 51L51 50ZM34 51L34 52L35 52L35 53L34 53L34 55L35 55L35 53L36 53L36 54L37 54L37 53L36 53L36 52L35 52L35 51ZM47 51L47 52L48 52L48 51ZM13 53L13 55L14 55L14 53ZM27 53L27 55L28 55L28 53ZM31 53L31 54L30 54L30 55L33 55L33 54L32 54L32 53ZM16 54L16 55L17 55L17 54ZM40 54L40 55L41 55L41 56L42 56L42 55L41 55L41 54ZM55 54L55 55L57 55L57 54ZM9 55L9 56L10 56L10 55ZM20 56L20 57L21 57L21 56ZM36 56L36 57L37 57L37 56ZM56 56L56 57L57 57L57 56ZM0 0L0 7L7 7L7 0ZM1 1L1 6L6 6L6 1ZM2 2L2 5L5 5L5 2ZM50 0L50 7L57 7L57 0ZM51 1L51 6L56 6L56 1ZM52 2L52 5L55 5L55 2ZM0 50L0 57L7 57L7 50ZM1 51L1 56L6 56L6 51ZM2 52L2 55L5 55L5 52Z" fill="#000000"/></g></g></svg>
