<?xml version="1.0" encoding="UTF-8"?>
<svg xmlns="http://www.w3.org/2000/svg" version="1.1" width="300" height="300" viewBox="0 0 300 300"><rect x="0" y="0" width="300" height="300" fill="#fefefe"/><g transform="scale(4.615)"><g transform="translate(4,4)"><path fill-rule="evenodd" d="M8 0L8 1L10 1L10 2L8 2L8 5L9 5L9 6L8 6L8 7L9 7L9 8L8 8L8 9L7 9L7 8L6 8L6 9L5 9L5 10L4 10L4 11L3 11L3 10L2 10L2 9L4 9L4 8L0 8L0 12L1 12L1 13L0 13L0 14L1 14L1 15L0 15L0 16L2 16L2 18L1 18L1 17L0 17L0 18L1 18L1 19L3 19L3 20L2 20L2 23L1 23L1 20L0 20L0 23L1 23L1 24L0 24L0 25L1 25L1 24L3 24L3 21L4 21L4 20L5 20L5 21L7 21L7 22L6 22L6 23L5 23L5 22L4 22L4 25L5 25L5 26L3 26L3 27L2 27L2 26L1 26L1 27L0 27L0 30L1 30L1 31L2 31L2 30L3 30L3 31L4 31L4 32L5 32L5 33L8 33L8 34L4 34L4 33L3 33L3 32L2 32L2 33L1 33L1 32L0 32L0 33L1 33L1 35L0 35L0 37L1 37L1 38L2 38L2 37L3 37L3 39L0 39L0 42L1 42L1 40L4 40L4 37L5 37L5 40L6 40L6 41L7 41L7 42L6 42L6 43L7 43L7 44L6 44L6 45L7 45L7 44L9 44L9 43L13 43L13 44L12 44L12 46L11 46L11 44L10 44L10 45L8 45L8 47L7 47L7 46L5 46L5 47L3 47L3 44L5 44L5 43L1 43L1 44L0 44L0 45L1 45L1 46L0 46L0 48L5 48L5 47L7 47L7 48L6 48L6 49L7 49L7 48L8 48L8 50L9 50L9 51L10 51L10 53L8 53L8 57L10 57L10 56L12 56L12 57L14 57L14 56L13 56L13 53L14 53L14 54L15 54L15 57L18 57L18 55L17 55L17 54L18 54L18 53L17 53L17 54L16 54L16 53L15 53L15 52L13 52L13 51L15 51L15 50L16 50L16 49L19 49L19 50L18 50L18 52L19 52L19 55L20 55L20 56L19 56L19 57L20 57L20 56L21 56L21 57L23 57L23 54L26 54L26 55L27 55L27 56L28 56L28 55L27 55L27 54L26 54L26 53L29 53L29 54L31 54L31 55L30 55L30 56L31 56L31 57L32 57L32 55L34 55L34 56L33 56L33 57L36 57L36 55L37 55L37 54L36 54L36 53L33 53L33 51L34 51L34 50L33 50L33 49L32 49L32 48L34 48L34 49L35 49L35 52L36 52L36 51L38 51L38 52L39 52L39 54L38 54L38 57L41 57L41 55L42 55L42 57L43 57L43 55L44 55L44 56L46 56L46 57L48 57L48 56L46 56L46 55L49 55L49 57L51 57L51 54L52 54L52 53L53 53L53 55L55 55L55 54L56 54L56 53L57 53L57 51L56 51L56 53L55 53L55 54L54 54L54 52L55 52L55 50L56 50L56 49L57 49L57 48L56 48L56 49L55 49L55 50L53 50L53 48L54 48L54 47L57 47L57 44L52 44L52 43L53 43L53 42L54 42L54 43L56 43L56 42L57 42L57 40L56 40L56 41L55 41L55 42L54 42L54 41L53 41L53 40L55 40L55 38L56 38L56 39L57 39L57 38L56 38L56 37L57 37L57 31L56 31L56 30L57 30L57 27L53 27L53 25L51 25L51 24L54 24L54 25L55 25L55 26L56 26L56 24L54 24L54 23L53 23L53 22L54 22L54 21L55 21L55 20L54 20L54 21L53 21L53 20L50 20L50 19L56 19L56 22L55 22L55 23L57 23L57 19L56 19L56 18L57 18L57 15L54 15L54 14L55 14L55 13L54 13L54 10L53 10L53 9L55 9L55 8L52 8L52 9L51 9L51 10L53 10L53 13L52 13L52 12L51 12L51 11L48 11L48 10L50 10L50 8L49 8L49 6L48 6L48 7L47 7L47 5L48 5L48 0L46 0L46 1L47 1L47 2L46 2L46 3L47 3L47 5L45 5L45 4L44 4L44 3L45 3L45 1L44 1L44 2L41 2L41 1L43 1L43 0L41 0L41 1L40 1L40 0L39 0L39 1L40 1L40 2L41 2L41 3L43 3L43 5L45 5L45 6L44 6L44 7L45 7L45 6L46 6L46 8L45 8L45 11L47 11L47 12L49 12L49 15L50 15L50 16L51 16L51 17L52 17L52 16L55 16L55 17L54 17L54 18L50 18L50 19L49 19L49 20L47 20L47 22L46 22L46 24L45 24L45 26L46 26L46 30L45 30L45 27L44 27L44 26L42 26L42 27L41 27L41 25L40 25L40 26L39 26L39 25L38 25L38 24L39 24L39 23L41 23L41 24L42 24L42 22L43 22L43 25L44 25L44 23L45 23L45 22L44 22L44 21L41 21L41 18L42 18L42 19L43 19L43 18L42 18L42 17L45 17L45 16L44 16L44 15L45 15L45 14L46 14L46 13L44 13L44 9L42 9L42 8L43 8L43 6L42 6L42 8L38 8L38 7L39 7L39 6L38 6L38 7L37 7L37 6L36 6L36 7L35 7L35 6L34 6L34 4L36 4L36 5L40 5L40 7L41 7L41 4L37 4L37 1L38 1L38 0L37 0L37 1L36 1L36 0L35 0L35 1L34 1L34 2L33 2L33 0L29 0L29 1L28 1L28 2L27 2L27 3L29 3L29 4L26 4L26 1L25 1L25 0L23 0L23 1L25 1L25 2L24 2L24 3L23 3L23 4L22 4L22 8L21 8L21 9L24 9L24 10L25 10L25 11L24 11L24 12L22 12L22 13L23 13L23 15L25 15L25 16L23 16L23 18L22 18L22 17L21 17L21 16L20 16L20 15L21 15L21 13L20 13L20 12L21 12L21 11L23 11L23 10L20 10L20 9L19 9L19 10L20 10L20 11L19 11L19 12L18 12L18 9L17 9L17 12L16 12L16 13L17 13L17 12L18 12L18 13L19 13L19 14L16 14L16 15L15 15L15 11L16 11L16 8L15 8L15 11L14 11L14 9L13 9L13 10L12 10L12 9L11 9L11 8L14 8L14 7L15 7L15 6L16 6L16 7L17 7L17 5L18 5L18 7L19 7L19 8L20 8L20 7L21 7L21 5L20 5L20 4L19 4L19 3L22 3L22 2L21 2L21 1L22 1L22 0L21 0L21 1L20 1L20 0L19 0L19 3L18 3L18 2L17 2L17 1L15 1L15 0L14 0L14 1L15 1L15 3L17 3L17 5L15 5L15 4L14 4L14 3L11 3L11 2L12 2L12 1L11 1L11 0ZM29 1L29 2L30 2L30 4L31 4L31 5L32 5L32 6L31 6L31 9L32 9L32 10L29 10L29 11L27 11L27 10L26 10L26 11L25 11L25 12L24 12L24 14L25 14L25 15L26 15L26 16L25 16L25 17L24 17L24 18L23 18L23 19L21 19L21 20L18 20L18 21L17 21L17 22L18 22L18 23L16 23L16 20L17 20L17 19L16 19L16 18L13 18L13 17L12 17L12 16L11 16L11 14L12 14L12 15L13 15L13 14L14 14L14 13L13 13L13 12L12 12L12 11L11 11L11 10L10 10L10 9L9 9L9 10L8 10L8 11L4 11L4 13L1 13L1 14L3 14L3 15L4 15L4 17L3 17L3 19L4 19L4 17L5 17L5 19L6 19L6 20L7 20L7 21L8 21L8 22L9 22L9 25L11 25L11 26L10 26L10 27L9 27L9 28L10 28L10 30L11 30L11 32L10 32L10 31L6 31L6 32L9 32L9 33L11 33L11 32L12 32L12 30L11 30L11 28L13 28L13 30L14 30L14 28L17 28L17 32L16 32L16 31L15 31L15 33L14 33L14 34L13 34L13 33L12 33L12 35L14 35L14 36L13 36L13 37L14 37L14 38L13 38L13 39L14 39L14 40L12 40L12 37L11 37L11 38L10 38L10 37L9 37L9 40L10 40L10 41L8 41L8 38L7 38L7 37L8 37L8 36L9 36L9 35L11 35L11 34L9 34L9 35L6 35L6 36L5 36L5 37L6 37L6 38L7 38L7 39L6 39L6 40L7 40L7 41L8 41L8 42L7 42L7 43L9 43L9 42L13 42L13 41L14 41L14 44L16 44L16 45L14 45L14 46L13 46L13 47L15 47L15 48L18 48L18 47L20 47L20 48L21 48L21 50L19 50L19 51L21 51L21 50L22 50L22 49L23 49L23 51L22 51L22 52L21 52L21 53L20 53L20 55L22 55L22 54L23 54L23 52L24 52L24 53L25 53L25 52L26 52L26 51L24 51L24 50L25 50L25 48L24 48L24 47L23 47L23 48L21 48L21 47L22 47L22 46L23 46L23 45L25 45L25 47L26 47L26 48L27 48L27 47L29 47L29 48L31 48L31 46L32 46L32 47L34 47L34 46L35 46L35 44L34 44L34 45L33 45L33 42L32 42L32 43L29 43L29 44L30 44L30 45L28 45L28 44L27 44L27 42L25 42L25 41L26 41L26 38L29 38L29 36L32 36L32 38L30 38L30 39L28 39L28 40L27 40L27 41L31 41L31 40L33 40L33 39L34 39L34 38L36 38L36 39L35 39L35 40L34 40L34 41L36 41L36 42L34 42L34 43L36 43L36 45L38 45L38 47L35 47L35 48L37 48L37 49L36 49L36 50L37 50L37 49L38 49L38 48L39 48L39 49L40 49L40 50L39 50L39 52L40 52L40 54L41 54L41 52L43 52L43 51L44 51L44 50L45 50L45 52L46 52L46 53L47 53L47 54L50 54L50 53L47 53L47 52L48 52L48 48L47 48L47 49L46 49L46 48L44 48L44 49L43 49L43 47L46 47L46 46L47 46L47 47L49 47L49 48L51 48L51 47L54 47L54 45L51 45L51 42L50 42L50 41L52 41L52 40L50 40L50 41L47 41L47 42L46 42L46 43L47 43L47 42L50 42L50 43L49 43L49 44L43 44L43 43L42 43L42 42L44 42L44 43L45 43L45 41L46 41L46 38L47 38L47 37L49 37L49 36L48 36L48 35L47 35L47 34L50 34L50 33L49 33L49 32L48 32L48 30L47 30L47 31L46 31L46 32L47 32L47 33L45 33L45 30L43 30L43 29L42 29L42 30L41 30L41 27L40 27L40 29L38 29L38 30L37 30L37 28L34 28L34 29L36 29L36 31L37 31L37 32L36 32L36 33L37 33L37 32L38 32L38 34L39 34L39 31L38 31L38 30L41 30L41 31L40 31L40 32L41 32L41 31L44 31L44 33L45 33L45 34L46 34L46 38L45 38L45 36L44 36L44 37L41 37L41 35L42 35L42 36L43 36L43 35L44 35L44 34L43 34L43 35L42 35L42 34L41 34L41 35L38 35L38 36L37 36L37 37L34 37L34 38L33 38L33 36L32 36L32 35L34 35L34 36L36 36L36 35L35 35L35 31L33 31L33 32L31 32L31 33L32 33L32 35L31 35L31 34L30 34L30 35L29 35L29 33L30 33L30 31L29 31L29 32L28 32L28 31L25 31L25 30L26 30L26 28L24 28L24 31L25 31L25 32L26 32L26 33L25 33L25 34L24 34L24 35L23 35L23 33L24 33L24 32L23 32L23 33L22 33L22 36L21 36L21 33L20 33L20 31L21 31L21 32L22 32L22 31L23 31L23 30L21 30L21 29L23 29L23 27L22 27L22 26L19 26L19 25L17 25L17 24L18 24L18 23L19 23L19 22L21 22L21 23L20 23L20 24L21 24L21 23L23 23L23 21L24 21L24 22L25 22L25 25L23 25L23 24L22 24L22 25L23 25L23 26L25 26L25 25L27 25L27 26L29 26L29 24L28 24L28 23L29 23L29 21L31 21L31 22L30 22L30 24L31 24L31 23L32 23L32 22L33 22L33 24L32 24L32 25L33 25L33 24L35 24L35 23L36 23L36 24L37 24L37 22L38 22L38 23L39 23L39 20L40 20L40 19L39 19L39 18L41 18L41 17L42 17L42 14L43 14L43 15L44 15L44 14L43 14L43 12L42 12L42 11L43 11L43 10L42 10L42 11L40 11L40 10L41 10L41 9L38 9L38 11L37 11L37 8L36 8L36 9L34 9L34 6L33 6L33 4L34 4L34 3L32 3L32 4L31 4L31 2L30 2L30 1ZM35 1L35 2L36 2L36 1ZM38 2L38 3L39 3L39 2ZM9 3L9 5L10 5L10 6L9 6L9 7L10 7L10 6L11 6L11 7L12 7L12 6L13 6L13 7L14 7L14 6L15 6L15 5L14 5L14 4L11 4L11 3ZM18 4L18 5L19 5L19 4ZM24 4L24 6L23 6L23 7L24 7L24 8L25 8L25 9L26 9L26 6L25 6L25 5L26 5L26 4ZM13 5L13 6L14 6L14 5ZM27 5L27 8L30 8L30 5ZM19 6L19 7L20 7L20 6ZM24 6L24 7L25 7L25 6ZM28 6L28 7L29 7L29 6ZM32 6L32 8L33 8L33 6ZM47 8L47 9L46 9L46 10L47 10L47 9L49 9L49 8ZM56 8L56 9L57 9L57 8ZM6 9L6 10L7 10L7 9ZM1 10L1 12L3 12L3 11L2 11L2 10ZM9 10L9 12L8 12L8 13L7 13L7 12L6 12L6 13L5 13L5 14L6 14L6 15L5 15L5 17L7 17L7 18L6 18L6 19L7 19L7 20L8 20L8 21L9 21L9 22L10 22L10 23L11 23L11 20L12 20L12 19L13 19L13 21L12 21L12 22L14 22L14 20L15 20L15 19L13 19L13 18L12 18L12 17L11 17L11 16L10 16L10 14L11 14L11 13L12 13L12 14L13 14L13 13L12 13L12 12L11 12L11 11L10 11L10 10ZM33 10L33 14L32 14L32 12L31 12L31 11L30 11L30 12L31 12L31 14L30 14L30 13L28 13L28 12L26 12L26 13L25 13L25 14L26 14L26 15L27 15L27 17L29 17L29 18L28 18L28 19L25 19L25 18L24 18L24 19L25 19L25 22L27 22L27 23L26 23L26 24L27 24L27 23L28 23L28 21L29 21L29 20L30 20L30 17L29 17L29 16L31 16L31 20L32 20L32 17L33 17L33 18L35 18L35 17L34 17L34 16L35 16L35 15L36 15L36 13L37 13L37 15L39 15L39 17L40 17L40 16L41 16L41 15L40 15L40 14L41 14L41 13L40 13L40 14L39 14L39 11L38 11L38 12L37 12L37 11L36 11L36 10L35 10L35 11L34 11L34 10ZM55 10L55 12L56 12L56 13L57 13L57 10ZM35 11L35 12L34 12L34 14L33 14L33 15L32 15L32 14L31 14L31 15L32 15L32 16L33 16L33 15L35 15L35 12L36 12L36 11ZM9 12L9 14L10 14L10 12ZM50 12L50 13L51 13L51 15L53 15L53 14L52 14L52 13L51 13L51 12ZM6 13L6 14L7 14L7 13ZM47 14L47 16L46 16L46 19L45 19L45 18L44 18L44 19L45 19L45 20L46 20L46 19L48 19L48 17L47 17L47 16L48 16L48 14ZM6 15L6 16L7 16L7 15ZM14 15L14 16L15 16L15 15ZM16 15L16 16L17 16L17 18L18 18L18 17L19 17L19 18L21 18L21 17L19 17L19 15ZM28 15L28 16L29 16L29 15ZM8 17L8 18L7 18L7 19L9 19L9 21L10 21L10 20L11 20L11 17ZM36 17L36 18L37 18L37 17ZM28 19L28 20L29 20L29 19ZM34 19L34 20L35 20L35 22L37 22L37 21L36 21L36 20L37 20L37 19L36 19L36 20L35 20L35 19ZM21 20L21 21L23 21L23 20ZM26 20L26 21L27 21L27 20ZM49 20L49 22L47 22L47 25L46 25L46 26L47 26L47 27L48 27L48 26L49 26L49 25L50 25L50 23L52 23L52 22L51 22L51 21L50 21L50 20ZM18 21L18 22L19 22L19 21ZM6 23L6 24L5 24L5 25L6 25L6 26L8 26L8 23ZM12 23L12 24L11 24L11 25L12 25L12 27L15 27L15 26L16 26L16 27L19 27L19 26L16 26L16 25L15 25L15 24L16 24L16 23L14 23L14 25L12 25L12 24L13 24L13 23ZM48 23L48 24L49 24L49 23ZM6 24L6 25L7 25L7 24ZM30 25L30 26L31 26L31 25ZM34 25L34 27L35 27L35 25ZM38 26L38 27L39 27L39 26ZM3 27L3 30L4 30L4 27ZM5 27L5 30L8 30L8 27ZM20 27L20 28L18 28L18 29L20 29L20 28L21 28L21 27ZM27 27L27 30L30 30L30 27ZM31 27L31 28L33 28L33 27ZM42 27L42 28L44 28L44 27ZM49 27L49 30L52 30L52 27ZM1 28L1 29L2 29L2 28ZM6 28L6 29L7 29L7 28ZM28 28L28 29L29 29L29 28ZM47 28L47 29L48 29L48 28ZM50 28L50 29L51 29L51 28ZM53 28L53 29L54 29L54 30L53 30L53 31L50 31L50 32L52 32L52 34L54 34L54 33L53 33L53 31L54 31L54 32L55 32L55 31L54 31L54 30L56 30L56 28L55 28L55 29L54 29L54 28ZM15 29L15 30L16 30L16 29ZM32 29L32 30L31 30L31 31L32 31L32 30L33 30L33 29ZM19 30L19 31L18 31L18 32L17 32L17 34L15 34L15 35L18 35L18 36L17 36L17 37L18 37L18 38L19 38L19 39L17 39L17 38L15 38L15 40L14 40L14 41L15 41L15 43L16 43L16 44L17 44L17 42L18 42L18 43L19 43L19 44L21 44L21 46L20 46L20 45L17 45L17 46L16 46L16 47L18 47L18 46L20 46L20 47L21 47L21 46L22 46L22 44L25 44L25 45L26 45L26 46L27 46L27 45L26 45L26 43L25 43L25 42L24 42L24 41L25 41L25 39L24 39L24 37L25 37L25 36L23 36L23 37L22 37L22 38L20 38L20 37L19 37L19 36L20 36L20 33L19 33L19 34L18 34L18 32L19 32L19 31L20 31L20 30ZM27 32L27 33L26 33L26 34L27 34L27 36L26 36L26 37L27 37L27 36L29 36L29 35L28 35L28 34L27 34L27 33L28 33L28 32ZM42 32L42 33L43 33L43 32ZM2 33L2 34L3 34L3 33ZM55 33L55 34L56 34L56 33ZM51 35L51 36L50 36L50 39L53 39L53 38L55 38L55 37L56 37L56 36L55 36L55 35L54 35L54 36L55 36L55 37L53 37L53 36L52 36L52 35ZM6 36L6 37L7 37L7 36ZM38 36L38 37L37 37L37 39L38 39L38 40L37 40L37 41L40 41L40 39L43 39L43 40L42 40L42 41L41 41L41 42L37 42L37 44L38 44L38 45L41 45L41 46L40 46L40 47L43 47L43 45L42 45L42 43L41 43L41 42L42 42L42 41L43 41L43 40L44 40L44 41L45 41L45 39L44 39L44 38L41 38L41 37L40 37L40 36ZM51 37L51 38L52 38L52 37ZM32 38L32 39L33 39L33 38ZM38 38L38 39L39 39L39 38ZM16 39L16 40L15 40L15 41L19 41L19 43L21 43L21 44L22 44L22 41L24 41L24 39L21 39L21 40L22 40L22 41L19 41L19 40L17 40L17 39ZM47 39L47 40L49 40L49 39ZM2 41L2 42L4 42L4 41ZM38 43L38 44L40 44L40 43ZM1 44L1 45L2 45L2 44ZM49 44L49 45L47 45L47 46L49 46L49 47L51 47L51 46L49 46L49 45L50 45L50 44ZM30 45L30 46L31 46L31 45ZM44 45L44 46L45 46L45 45ZM55 45L55 46L56 46L56 45ZM1 46L1 47L2 47L2 46ZM11 47L11 48L12 48L12 49L11 49L11 52L12 52L12 50L13 50L13 48L12 48L12 47ZM23 48L23 49L24 49L24 48ZM41 48L41 49L42 49L42 48ZM14 49L14 50L15 50L15 49ZM27 49L27 52L30 52L30 49ZM45 49L45 50L46 50L46 49ZM49 49L49 52L52 52L52 49ZM28 50L28 51L29 51L29 50ZM32 50L32 51L31 51L31 53L32 53L32 51L33 51L33 50ZM50 50L50 51L51 51L51 50ZM40 51L40 52L41 52L41 51ZM46 51L46 52L47 52L47 51ZM11 53L11 54L10 54L10 55L12 55L12 53ZM21 53L21 54L22 54L22 53ZM42 53L42 54L43 54L43 53ZM35 54L35 55L36 55L36 54ZM44 54L44 55L46 55L46 54ZM24 55L24 56L25 56L25 55ZM39 55L39 56L40 56L40 55ZM56 55L56 56L57 56L57 55ZM52 56L52 57L55 57L55 56ZM0 0L0 7L7 7L7 0ZM1 1L1 6L6 6L6 1ZM2 2L2 5L5 5L5 2ZM50 0L50 7L57 7L57 0ZM51 1L51 6L56 6L56 1ZM52 2L52 5L55 5L55 2ZM0 50L0 57L7 57L7 50ZM1 51L1 56L6 56L6 51ZM2 52L2 55L5 55L5 52Z" fill="#000000"/></g></g></svg>
