<?xml version="1.0" encoding="UTF-8"?>
<svg xmlns="http://www.w3.org/2000/svg" version="1.1" width="300" height="300" viewBox="0 0 300 300"><rect x="0" y="0" width="300" height="300" fill="#fefefe"/><g transform="scale(4.615)"><g transform="translate(4,4)"><path fill-rule="evenodd" d="M9 0L9 1L8 1L8 2L9 2L9 3L8 3L8 4L9 4L9 5L8 5L8 7L9 7L9 8L6 8L6 9L7 9L7 10L6 10L6 11L5 11L5 10L3 10L3 9L5 9L5 8L0 8L0 13L1 13L1 10L2 10L2 12L3 12L3 13L2 13L2 14L0 14L0 16L1 16L1 18L0 18L0 19L1 19L1 18L2 18L2 16L3 16L3 18L5 18L5 19L4 19L4 20L3 20L3 19L2 19L2 20L1 20L1 21L0 21L0 23L1 23L1 24L3 24L3 22L6 22L6 23L7 23L7 22L6 22L6 21L7 21L7 20L8 20L8 22L9 22L9 23L8 23L8 24L10 24L10 22L11 22L11 21L12 21L12 22L13 22L13 23L11 23L11 24L12 24L12 25L8 25L8 26L5 26L5 25L7 25L7 24L5 24L5 23L4 23L4 24L5 24L5 25L4 25L4 27L3 27L3 28L2 28L2 29L1 29L1 28L0 28L0 30L2 30L2 31L0 31L0 32L2 32L2 34L1 34L1 36L0 36L0 37L1 37L1 38L0 38L0 40L1 40L1 38L2 38L2 40L3 40L3 38L2 38L2 37L3 37L3 35L2 35L2 34L3 34L3 32L4 32L4 35L5 35L5 36L4 36L4 40L5 40L5 41L12 41L12 40L9 40L9 39L8 39L8 40L5 40L5 39L7 39L7 38L8 38L8 37L9 37L9 35L10 35L10 37L12 37L12 38L13 38L13 39L14 39L14 41L13 41L13 42L11 42L11 43L14 43L14 46L13 46L13 45L12 45L12 44L11 44L11 45L10 45L10 44L8 44L8 43L9 43L9 42L8 42L8 43L7 43L7 42L3 42L3 41L2 41L2 42L1 42L1 41L0 41L0 42L1 42L1 44L2 44L2 42L3 42L3 44L4 44L4 43L7 43L7 44L5 44L5 47L3 47L3 46L2 46L2 47L1 47L1 45L0 45L0 48L5 48L5 47L7 47L7 46L8 46L8 48L6 48L6 49L8 49L8 51L9 51L9 52L8 52L8 57L9 57L9 56L11 56L11 57L13 57L13 56L15 56L15 57L16 57L16 56L17 56L17 57L21 57L21 56L19 56L19 55L20 55L20 54L19 54L19 53L20 53L20 52L21 52L21 53L22 53L22 54L21 54L21 55L23 55L23 56L24 56L24 57L26 57L26 55L27 55L27 54L30 54L30 53L31 53L31 48L34 48L34 47L35 47L35 46L36 46L36 48L35 48L35 49L36 49L36 50L34 50L34 51L32 51L32 52L33 52L33 53L32 53L32 54L31 54L31 56L30 56L30 55L29 55L29 56L27 56L27 57L29 57L29 56L30 56L30 57L31 57L31 56L35 56L35 57L39 57L39 56L41 56L41 54L42 54L42 55L43 55L43 57L44 57L44 54L45 54L45 57L47 57L47 56L48 56L48 57L49 57L49 56L50 56L50 57L52 57L52 55L51 55L51 53L52 53L52 54L55 54L55 51L56 51L56 53L57 53L57 51L56 51L56 50L57 50L57 48L56 48L56 46L57 46L57 43L56 43L56 42L57 42L57 41L56 41L56 42L55 42L55 39L57 39L57 36L55 36L55 35L56 35L56 34L55 34L55 32L56 32L56 33L57 33L57 32L56 32L56 30L57 30L57 29L56 29L56 28L57 28L57 27L55 27L55 26L57 26L57 25L56 25L56 22L57 22L57 21L56 21L56 20L57 20L57 19L56 19L56 18L57 18L57 17L56 17L56 16L57 16L57 15L56 15L56 14L57 14L57 13L56 13L56 8L55 8L55 10L54 10L54 11L50 11L50 12L49 12L49 11L47 11L47 10L50 10L50 8L49 8L49 6L48 6L48 8L47 8L47 5L48 5L48 0L46 0L46 1L45 1L45 2L44 2L44 3L42 3L42 2L43 2L43 0L41 0L41 1L40 1L40 0L39 0L39 1L38 1L38 0L37 0L37 1L38 1L38 3L36 3L36 0L35 0L35 1L33 1L33 2L32 2L32 0L28 0L28 1L25 1L25 0L23 0L23 2L22 2L22 0L21 0L21 2L22 2L22 3L23 3L23 4L19 4L19 3L20 3L20 2L19 2L19 1L20 1L20 0L19 0L19 1L18 1L18 2L17 2L17 1L14 1L14 0L13 0L13 1L12 1L12 0ZM9 1L9 2L10 2L10 3L9 3L9 4L10 4L10 5L9 5L9 7L10 7L10 8L9 8L9 10L8 10L8 11L6 11L6 12L4 12L4 11L3 11L3 12L4 12L4 13L3 13L3 14L5 14L5 13L6 13L6 14L8 14L8 15L9 15L9 14L10 14L10 13L11 13L11 14L12 14L12 13L13 13L13 14L15 14L15 13L16 13L16 16L15 16L15 15L14 15L14 17L12 17L12 16L13 16L13 15L12 15L12 16L11 16L11 15L10 15L10 16L8 16L8 17L10 17L10 19L9 19L9 18L8 18L8 20L9 20L9 21L11 21L11 20L10 20L10 19L14 19L14 20L13 20L13 21L14 21L14 23L13 23L13 24L14 24L14 25L13 25L13 26L14 26L14 27L15 27L15 26L18 26L18 27L16 27L16 28L15 28L15 29L14 29L14 28L13 28L13 27L12 27L12 26L11 26L11 27L12 27L12 28L11 28L11 31L12 31L12 34L11 34L11 33L10 33L10 34L11 34L11 36L12 36L12 37L14 37L14 38L15 38L15 39L16 39L16 40L15 40L15 41L16 41L16 42L15 42L15 46L14 46L14 47L12 47L12 48L10 48L10 47L11 47L11 46L12 46L12 45L11 45L11 46L10 46L10 47L9 47L9 49L11 49L11 51L10 51L10 52L11 52L11 53L14 53L14 54L12 54L12 56L13 56L13 55L15 55L15 56L16 56L16 55L15 55L15 54L16 54L16 53L17 53L17 51L18 51L18 50L17 50L17 48L18 48L18 46L17 46L17 45L18 45L18 44L16 44L16 43L18 43L18 42L19 42L19 44L20 44L20 42L21 42L21 43L22 43L22 42L23 42L23 43L24 43L24 44L25 44L25 47L24 47L24 46L23 46L23 45L22 45L22 44L21 44L21 45L20 45L20 46L19 46L19 49L20 49L20 50L19 50L19 51L20 51L20 50L21 50L21 49L23 49L23 47L24 47L24 49L25 49L25 50L23 50L23 51L21 51L21 52L22 52L22 53L24 53L24 54L23 54L23 55L24 55L24 56L25 56L25 54L26 54L26 53L24 53L24 52L26 52L26 51L25 51L25 50L26 50L26 48L30 48L30 47L29 47L29 46L31 46L31 47L32 47L32 46L35 46L35 45L34 45L34 43L35 43L35 44L36 44L36 43L37 43L37 42L35 42L35 40L38 40L38 42L39 42L39 43L40 43L40 44L39 44L39 45L38 45L38 46L39 46L39 47L38 47L38 48L37 48L37 49L38 49L38 50L36 50L36 52L38 52L38 53L37 53L37 54L40 54L40 53L41 53L41 52L43 52L43 51L42 51L42 50L41 50L41 48L42 48L42 49L43 49L43 50L44 50L44 51L47 51L47 53L45 53L45 52L44 52L44 53L43 53L43 54L44 54L44 53L45 53L45 54L47 54L47 53L48 53L48 50L47 50L47 49L48 49L48 48L49 48L49 47L51 47L51 48L53 48L53 49L54 49L54 48L53 48L53 47L51 47L51 46L53 46L53 45L50 45L50 43L51 43L51 44L53 44L53 43L54 43L54 42L53 42L53 41L54 41L54 40L53 40L53 41L51 41L51 42L50 42L50 43L49 43L49 42L48 42L48 41L49 41L49 39L51 39L51 38L53 38L53 39L54 39L54 38L53 38L53 35L55 35L55 34L54 34L54 33L52 33L52 31L50 31L50 32L49 32L49 31L48 31L48 30L47 30L47 29L48 29L48 28L47 28L47 29L46 29L46 30L47 30L47 31L48 31L48 32L43 32L43 30L41 30L41 29L44 29L44 30L45 30L45 28L46 28L46 27L48 27L48 26L47 26L47 24L49 24L49 25L50 25L50 26L51 26L51 25L52 25L52 26L53 26L53 27L54 27L54 26L53 26L53 24L51 24L51 23L50 23L50 22L51 22L51 21L53 21L53 23L55 23L55 22L56 22L56 21L55 21L55 20L56 20L56 19L55 19L55 20L53 20L53 19L52 19L52 20L51 20L51 21L49 21L49 19L51 19L51 18L55 18L55 17L53 17L53 16L50 16L50 18L47 18L47 17L45 17L45 14L47 14L47 13L49 13L49 12L45 12L45 11L46 11L46 10L47 10L47 8L45 8L45 7L46 7L46 6L45 6L45 4L46 4L46 5L47 5L47 3L44 3L44 6L43 6L43 5L40 5L40 4L41 4L41 3L38 3L38 5L37 5L37 4L36 4L36 5L35 5L35 4L33 4L33 3L34 3L34 2L33 2L33 3L32 3L32 2L31 2L31 3L30 3L30 4L31 4L31 8L32 8L32 10L31 10L31 11L30 11L30 10L27 10L27 11L26 11L26 12L25 12L25 10L23 10L23 9L24 9L24 6L23 6L23 5L24 5L24 4L23 4L23 5L21 5L21 8L20 8L20 10L19 10L19 11L22 11L22 10L23 10L23 12L24 12L24 13L22 13L22 12L20 12L20 14L17 14L17 13L18 13L18 12L17 12L17 13L16 13L16 12L15 12L15 13L13 13L13 12L14 12L14 11L13 11L13 12L12 12L12 11L11 11L11 10L17 10L17 11L18 11L18 10L17 10L17 9L15 9L15 8L14 8L14 5L15 5L15 7L16 7L16 8L17 8L17 7L18 7L18 6L19 6L19 7L20 7L20 5L18 5L18 4L17 4L17 2L16 2L16 3L15 3L15 2L14 2L14 1L13 1L13 2L10 2L10 1ZM28 1L28 2L29 2L29 1ZM46 1L46 2L47 2L47 1ZM13 2L13 4L12 4L12 3L10 3L10 4L12 4L12 5L13 5L13 4L14 4L14 2ZM18 2L18 3L19 3L19 2ZM23 2L23 3L26 3L26 4L25 4L25 8L26 8L26 4L29 4L29 3L27 3L27 2ZM31 3L31 4L32 4L32 5L33 5L33 6L32 6L32 7L33 7L33 9L34 9L34 8L35 8L35 9L37 9L37 10L36 10L36 12L35 12L35 13L37 13L37 14L38 14L38 15L39 15L39 16L38 16L38 17L37 17L37 16L35 16L35 14L33 14L33 13L34 13L34 12L33 12L33 13L32 13L32 11L33 11L33 10L32 10L32 11L31 11L31 13L30 13L30 14L29 14L29 13L28 13L28 12L29 12L29 11L27 11L27 12L26 12L26 13L24 13L24 15L23 15L23 14L22 14L22 13L21 13L21 14L20 14L20 15L23 15L23 16L25 16L25 17L22 17L22 16L20 16L20 17L19 17L19 16L16 16L16 17L17 17L17 18L15 18L15 17L14 17L14 18L15 18L15 19L16 19L16 20L15 20L15 21L16 21L16 22L15 22L15 23L16 23L16 24L15 24L15 25L14 25L14 26L15 26L15 25L16 25L16 24L17 24L17 25L19 25L19 26L20 26L20 27L22 27L22 26L23 26L23 27L24 27L24 26L26 26L26 27L25 27L25 28L23 28L23 31L21 31L21 30L19 30L19 29L22 29L22 28L19 28L19 29L18 29L18 28L16 28L16 29L15 29L15 30L14 30L14 31L13 31L13 28L12 28L12 31L13 31L13 32L15 32L15 33L13 33L13 34L14 34L14 37L15 37L15 38L16 38L16 37L15 37L15 35L17 35L17 34L18 34L18 35L19 35L19 34L18 34L18 33L21 33L21 34L20 34L20 35L22 35L22 33L21 33L21 32L23 32L23 31L24 31L24 32L25 32L25 31L26 31L26 32L28 32L28 33L29 33L29 34L30 34L30 36L29 36L29 37L31 37L31 38L29 38L29 39L33 39L33 40L35 40L35 39L37 39L37 38L38 38L38 37L37 37L37 36L38 36L38 33L37 33L37 32L35 32L35 34L34 34L34 33L32 33L32 31L36 31L36 30L37 30L37 29L38 29L38 28L40 28L40 27L37 27L37 28L35 28L35 27L36 27L36 26L34 26L34 27L33 27L33 26L32 26L32 24L33 24L33 25L37 25L37 26L38 26L38 25L39 25L39 26L41 26L41 28L42 28L42 26L44 26L44 27L43 27L43 28L45 28L45 27L46 27L46 26L44 26L44 20L45 20L45 18L44 18L44 12L43 12L43 13L39 13L39 12L41 12L41 10L42 10L42 11L43 11L43 9L44 9L44 11L45 11L45 10L46 10L46 9L44 9L44 8L43 8L43 6L42 6L42 7L41 7L41 6L40 6L40 5L39 5L39 6L38 6L38 9L37 9L37 8L35 8L35 5L33 5L33 4L32 4L32 3ZM15 4L15 5L16 5L16 4ZM27 5L27 8L30 8L30 5ZM36 5L36 7L37 7L37 5ZM10 6L10 7L11 7L11 8L12 8L12 7L13 7L13 6L12 6L12 7L11 7L11 6ZM16 6L16 7L17 7L17 6ZM22 6L22 8L23 8L23 6ZM28 6L28 7L29 7L29 6ZM33 6L33 7L34 7L34 6ZM39 6L39 9L38 9L38 11L39 11L39 10L41 10L41 7L40 7L40 6ZM44 6L44 7L45 7L45 6ZM13 8L13 9L14 9L14 8ZM42 8L42 9L43 9L43 8ZM51 8L51 9L52 9L52 8ZM53 8L53 9L54 9L54 8ZM9 11L9 12L8 12L8 14L9 14L9 13L10 13L10 12L11 12L11 13L12 13L12 12L11 12L11 11ZM6 12L6 13L7 13L7 12ZM50 12L50 14L49 14L49 15L48 15L48 16L49 16L49 15L50 15L50 14L51 14L51 12ZM52 12L52 13L53 13L53 15L54 15L54 14L56 14L56 13L55 13L55 12L54 12L54 13L53 13L53 12ZM27 13L27 15L26 15L26 20L25 20L25 21L24 21L24 20L23 20L23 19L24 19L24 18L22 18L22 17L20 17L20 21L19 21L19 22L20 22L20 23L19 23L19 25L20 25L20 26L21 26L21 25L23 25L23 24L21 24L21 22L22 22L22 23L24 23L24 24L25 24L25 25L26 25L26 26L27 26L27 25L29 25L29 26L30 26L30 25L29 25L29 23L30 23L30 24L32 24L32 23L35 23L35 20L34 20L34 19L36 19L36 20L37 20L37 19L39 19L39 17L41 17L41 16L42 16L42 17L43 17L43 16L42 16L42 15L43 15L43 14L39 14L39 13L38 13L38 14L39 14L39 15L41 15L41 16L39 16L39 17L38 17L38 18L37 18L37 17L35 17L35 16L33 16L33 15L31 15L31 14L32 14L32 13L31 13L31 14L30 14L30 15L31 15L31 16L32 16L32 17L31 17L31 18L30 18L30 19L29 19L29 20L27 20L27 19L28 19L28 18L27 18L27 17L28 17L28 16L29 16L29 14L28 14L28 13ZM3 15L3 16L5 16L5 18L7 18L7 17L6 17L6 16L7 16L7 15ZM27 15L27 16L28 16L28 15ZM10 16L10 17L11 17L11 18L12 18L12 17L11 17L11 16ZM32 17L32 19L31 19L31 21L29 21L29 22L31 22L31 21L32 21L32 20L33 20L33 21L34 21L34 20L33 20L33 17ZM41 18L41 20L38 20L38 22L37 22L37 24L39 24L39 25L41 25L41 26L42 26L42 25L41 25L41 24L43 24L43 22L41 22L41 24L39 24L39 23L40 23L40 22L39 22L39 21L43 21L43 20L44 20L44 18L43 18L43 19L42 19L42 18ZM5 19L5 20L4 20L4 21L6 21L6 20L7 20L7 19ZM17 19L17 20L16 20L16 21L17 21L17 22L18 22L18 21L17 21L17 20L19 20L19 19ZM21 19L21 20L22 20L22 19ZM2 20L2 22L3 22L3 20ZM47 20L47 21L48 21L48 22L46 22L46 23L45 23L45 25L46 25L46 23L49 23L49 24L50 24L50 23L49 23L49 21L48 21L48 20ZM23 21L23 22L24 22L24 21ZM25 21L25 22L26 22L26 23L25 23L25 24L27 24L27 22L28 22L28 21ZM17 23L17 24L18 24L18 23ZM20 24L20 25L21 25L21 24ZM1 25L1 26L0 26L0 27L2 27L2 26L3 26L3 25ZM31 26L31 28L32 28L32 29L31 29L31 31L30 31L30 32L29 32L29 33L31 33L31 34L32 34L32 35L34 35L34 34L32 34L32 33L31 33L31 31L32 31L32 30L35 30L35 28L33 28L33 27L32 27L32 26ZM5 27L5 30L8 30L8 27ZM9 27L9 29L10 29L10 27ZM27 27L27 30L30 30L30 27ZM49 27L49 30L52 30L52 27ZM6 28L6 29L7 29L7 28ZM25 28L25 29L26 29L26 28ZM28 28L28 29L29 29L29 28ZM50 28L50 29L51 29L51 28ZM54 28L54 29L55 29L55 28ZM2 29L2 30L3 30L3 31L4 31L4 30L3 30L3 29ZM16 29L16 31L15 31L15 32L16 32L16 33L15 33L15 34L17 34L17 33L18 33L18 32L21 32L21 31L19 31L19 30L18 30L18 29ZM39 29L39 30L38 30L38 32L39 32L39 30L40 30L40 29ZM24 30L24 31L25 31L25 30ZM5 31L5 34L9 34L9 31L8 31L8 32L7 32L7 31ZM6 32L6 33L7 33L7 32ZM41 32L41 33L39 33L39 34L40 34L40 35L39 35L39 37L40 37L40 38L43 38L43 37L44 37L44 38L45 38L45 37L44 37L44 36L45 36L45 35L47 35L47 36L46 36L46 37L47 37L47 39L46 39L46 40L47 40L47 39L48 39L48 38L50 38L50 37L51 37L51 36L52 36L52 35L53 35L53 34L52 34L52 33L51 33L51 32L50 32L50 34L48 34L48 35L47 35L47 34L45 34L45 35L44 35L44 33L43 33L43 32ZM48 32L48 33L49 33L49 32ZM23 33L23 34L24 34L24 36L23 36L23 37L24 37L24 38L21 38L21 37L19 37L19 36L17 36L17 40L16 40L16 41L17 41L17 42L18 42L18 41L19 41L19 42L20 42L20 41L19 41L19 40L21 40L21 39L22 39L22 40L23 40L23 39L24 39L24 40L25 40L25 39L27 39L27 40L28 40L28 39L27 39L27 38L28 38L28 37L27 37L27 35L26 35L26 34L27 34L27 33L26 33L26 34L25 34L25 33ZM35 34L35 36L37 36L37 34ZM42 34L42 35L41 35L41 36L40 36L40 37L42 37L42 36L44 36L44 35L43 35L43 34ZM50 34L50 35L48 35L48 36L47 36L47 37L48 37L48 36L50 36L50 35L52 35L52 34ZM6 35L6 36L5 36L5 38L7 38L7 37L8 37L8 35ZM1 36L1 37L2 37L2 36ZM6 36L6 37L7 37L7 36ZM32 36L32 37L33 37L33 38L35 38L35 37L33 37L33 36ZM18 37L18 38L19 38L19 39L18 39L18 40L17 40L17 41L18 41L18 40L19 40L19 39L20 39L20 38L19 38L19 37ZM25 37L25 38L27 38L27 37ZM38 39L38 40L40 40L40 39ZM41 39L41 40L42 40L42 41L41 41L41 42L40 42L40 43L42 43L42 44L41 44L41 45L39 45L39 46L40 46L40 47L39 47L39 48L38 48L38 49L39 49L39 48L41 48L41 46L43 46L43 47L42 47L42 48L43 48L43 49L44 49L44 50L45 50L45 49L47 49L47 48L48 48L48 47L49 47L49 46L50 46L50 45L49 45L49 44L48 44L48 47L47 47L47 46L44 46L44 44L43 44L43 42L44 42L44 40L45 40L45 39ZM30 40L30 41L29 41L29 42L27 42L27 41L26 41L26 42L27 42L27 43L25 43L25 44L27 44L27 45L26 45L26 47L27 47L27 45L29 45L29 43L31 43L31 44L30 44L30 45L31 45L31 46L32 46L32 44L33 44L33 43L34 43L34 42L33 42L33 41L32 41L32 40ZM23 41L23 42L25 42L25 41ZM31 41L31 42L32 42L32 43L33 43L33 42L32 42L32 41ZM45 41L45 42L46 42L46 44L45 44L45 45L47 45L47 43L48 43L48 42L46 42L46 41ZM51 42L51 43L53 43L53 42ZM27 43L27 44L28 44L28 43ZM55 43L55 44L54 44L54 45L55 45L55 46L54 46L54 47L55 47L55 46L56 46L56 43ZM6 45L6 46L7 46L7 45ZM8 45L8 46L9 46L9 45ZM21 45L21 46L20 46L20 47L23 47L23 46L22 46L22 45ZM36 45L36 46L37 46L37 45ZM14 47L14 48L12 48L12 49L14 49L14 50L12 50L12 51L11 51L11 52L14 52L14 53L16 53L16 52L15 52L15 49L16 49L16 48L15 48L15 47ZM43 47L43 48L44 48L44 49L45 49L45 47ZM46 47L46 48L47 48L47 47ZM14 48L14 49L15 49L15 48ZM55 48L55 50L54 50L54 51L55 51L55 50L56 50L56 48ZM27 49L27 52L30 52L30 49ZM49 49L49 52L52 52L52 49ZM28 50L28 51L29 51L29 50ZM38 50L38 51L40 51L40 52L41 52L41 50ZM50 50L50 51L51 51L51 50ZM53 52L53 53L54 53L54 52ZM33 53L33 54L34 54L34 55L35 55L35 56L36 56L36 54L35 54L35 53ZM9 54L9 55L11 55L11 54ZM17 54L17 55L18 55L18 54ZM37 55L37 56L39 56L39 55ZM46 55L46 56L47 56L47 55ZM48 55L48 56L49 56L49 55ZM50 55L50 56L51 56L51 55ZM53 55L53 56L55 56L55 57L56 57L56 56L55 56L55 55ZM0 0L0 7L7 7L7 0ZM1 1L1 6L6 6L6 1ZM2 2L2 5L5 5L5 2ZM50 0L50 7L57 7L57 0ZM51 1L51 6L56 6L56 1ZM52 2L52 5L55 5L55 2ZM0 50L0 57L7 57L7 50ZM1 51L1 56L6 56L6 51ZM2 52L2 55L5 55L5 52Z" fill="#000000"/></g></g></svg>
