<?xml version="1.0" encoding="UTF-8"?>
<svg xmlns="http://www.w3.org/2000/svg" version="1.1" width="300" height="300" viewBox="0 0 300 300"><rect x="0" y="0" width="300" height="300" fill="#fefefe"/><g transform="scale(4.615)"><g transform="translate(4,4)"><path fill-rule="evenodd" d="M9 0L9 1L8 1L8 2L9 2L9 1L10 1L10 2L11 2L11 1L10 1L10 0ZM14 0L14 2L12 2L12 3L11 3L11 6L10 6L10 7L9 7L9 5L10 5L10 3L8 3L8 4L9 4L9 5L8 5L8 7L9 7L9 8L6 8L6 9L5 9L5 8L0 8L0 10L1 10L1 9L2 9L2 10L3 10L3 11L2 11L2 12L0 12L0 13L2 13L2 14L4 14L4 13L5 13L5 10L6 10L6 11L7 11L7 10L9 10L9 9L12 9L12 8L13 8L13 9L14 9L14 8L15 8L15 9L17 9L17 10L11 10L11 11L9 11L9 12L6 12L6 13L7 13L7 14L5 14L5 15L4 15L4 16L5 16L5 17L4 17L4 18L3 18L3 16L2 16L2 15L1 15L1 16L0 16L0 20L1 20L1 18L3 18L3 19L4 19L4 18L5 18L5 21L4 21L4 20L3 20L3 22L1 22L1 21L0 21L0 22L1 22L1 23L4 23L4 24L5 24L5 23L4 23L4 22L6 22L6 23L7 23L7 24L6 24L6 25L7 25L7 26L4 26L4 27L3 27L3 24L2 24L2 28L3 28L3 29L0 29L0 30L2 30L2 31L0 31L0 39L1 39L1 42L0 42L0 43L1 43L1 44L0 44L0 45L2 45L2 47L1 47L1 46L0 46L0 48L5 48L5 47L7 47L7 48L6 48L6 49L8 49L8 51L9 51L9 49L12 49L12 48L14 48L14 47L13 47L13 45L14 45L14 43L15 43L15 44L16 44L16 45L17 45L17 46L20 46L20 47L17 47L17 48L16 48L16 49L15 49L15 50L14 50L14 49L13 49L13 51L15 51L15 52L13 52L13 53L12 53L12 52L11 52L11 53L12 53L12 55L11 55L11 54L9 54L9 52L8 52L8 57L10 57L10 56L11 56L11 57L12 57L12 55L13 55L13 56L15 56L15 55L16 55L16 56L17 56L17 57L20 57L20 56L19 56L19 55L20 55L20 54L18 54L18 55L17 55L17 53L20 53L20 52L21 52L21 51L19 51L19 52L17 52L17 53L16 53L16 51L18 51L18 50L16 50L16 49L19 49L19 50L20 50L20 49L19 49L19 48L20 48L20 47L23 47L23 49L21 49L21 50L25 50L25 51L26 51L26 52L24 52L24 53L23 53L23 54L22 54L22 55L21 55L21 56L24 56L24 57L26 57L26 55L27 55L27 54L30 54L30 53L31 53L31 48L33 48L33 49L32 49L32 50L33 50L33 51L32 51L32 52L33 52L33 53L32 53L32 54L31 54L31 56L30 56L30 55L29 55L29 56L27 56L27 57L29 57L29 56L30 56L30 57L31 57L31 56L35 56L35 57L39 57L39 56L37 56L37 55L41 55L41 54L42 54L42 55L44 55L44 54L45 54L45 57L47 57L47 55L48 55L48 57L49 57L49 56L50 56L50 57L52 57L52 55L51 55L51 53L52 53L52 54L54 54L54 55L53 55L53 56L55 56L55 57L56 57L56 56L55 56L55 54L54 54L54 53L55 53L55 51L56 51L56 52L57 52L57 51L56 51L56 50L55 50L55 48L56 48L56 49L57 49L57 48L56 48L56 46L57 46L57 45L56 45L56 44L55 44L55 43L56 43L56 41L53 41L53 40L55 40L55 39L57 39L57 36L56 36L56 37L55 37L55 35L56 35L56 34L55 34L55 33L54 33L54 32L56 32L56 33L57 33L57 32L56 32L56 30L57 30L57 29L54 29L54 28L56 28L56 26L57 26L57 25L56 25L56 22L57 22L57 21L56 21L56 19L55 19L55 18L57 18L57 17L56 17L56 16L57 16L57 15L56 15L56 14L57 14L57 12L56 12L56 14L55 14L55 13L54 13L54 12L55 12L55 11L56 11L56 8L55 8L55 10L54 10L54 11L52 11L52 10L50 10L50 8L49 8L49 9L47 9L47 8L46 8L46 7L47 7L47 5L48 5L48 0L46 0L46 1L45 1L45 2L44 2L44 3L43 3L43 4L40 4L40 5L39 5L39 6L38 6L38 4L37 4L37 3L38 3L38 2L39 2L39 3L42 3L42 2L43 2L43 0L41 0L41 1L40 1L40 0L39 0L39 1L38 1L38 0L37 0L37 1L38 1L38 2L37 2L37 3L36 3L36 0L35 0L35 1L31 1L31 0L27 0L27 1L26 1L26 0L23 0L23 2L22 2L22 3L23 3L23 4L24 4L24 5L23 5L23 6L22 6L22 8L23 8L23 10L22 10L22 9L21 9L21 10L20 10L20 9L19 9L19 8L21 8L21 5L22 5L22 4L19 4L19 1L20 1L20 2L21 2L21 1L22 1L22 0L21 0L21 1L20 1L20 0L19 0L19 1L15 1L15 0ZM25 1L25 2L23 2L23 3L26 3L26 4L25 4L25 8L26 8L26 4L30 4L30 3L29 3L29 2L30 2L30 1L27 1L27 2L26 2L26 1ZM46 1L46 2L47 2L47 1ZM14 2L14 4L13 4L13 5L12 5L12 6L11 6L11 8L12 8L12 6L13 6L13 8L14 8L14 5L15 5L15 7L16 7L16 8L19 8L19 7L20 7L20 5L19 5L19 4L17 4L17 3L18 3L18 2L17 2L17 3L15 3L15 2ZM27 2L27 3L28 3L28 2ZM31 2L31 3L32 3L32 4L31 4L31 8L32 8L32 10L31 10L31 11L30 11L30 10L29 10L29 9L27 9L27 10L28 10L28 11L29 11L29 12L28 12L28 13L26 13L26 12L27 12L27 11L26 11L26 12L25 12L25 10L24 10L24 12L25 12L25 13L26 13L26 14L27 14L27 15L26 15L26 17L28 17L28 16L29 16L29 14L30 14L30 15L31 15L31 16L32 16L32 18L30 18L30 19L28 19L28 18L26 18L26 21L27 21L27 24L25 24L25 23L26 23L26 22L25 22L25 21L24 21L24 20L20 20L20 18L21 18L21 19L22 19L22 17L25 17L25 16L23 16L23 15L25 15L25 14L23 14L23 13L22 13L22 12L21 12L21 13L20 13L20 10L19 10L19 9L18 9L18 10L17 10L17 11L16 11L16 12L15 12L15 13L13 13L13 12L14 12L14 11L13 11L13 12L12 12L12 11L11 11L11 12L12 12L12 14L15 14L15 13L16 13L16 16L14 16L14 15L13 15L13 16L14 16L14 18L12 18L12 19L11 19L11 18L10 18L10 17L12 17L12 15L11 15L11 16L10 16L10 17L9 17L9 18L7 18L7 17L8 17L8 16L9 16L9 15L10 15L10 13L8 13L8 14L9 14L9 15L6 15L6 16L7 16L7 17L5 17L5 18L7 18L7 19L6 19L6 20L8 20L8 21L9 21L9 19L10 19L10 21L11 21L11 20L12 20L12 22L10 22L10 24L9 24L9 23L8 23L8 26L9 26L9 27L10 27L10 28L9 28L9 31L8 31L8 33L6 33L6 34L5 34L5 32L4 32L4 29L3 29L3 32L4 32L4 34L5 34L5 35L3 35L3 36L5 36L5 37L4 37L4 38L5 38L5 39L6 39L6 40L7 40L7 39L6 39L6 38L7 38L7 37L6 37L6 36L8 36L8 38L9 38L9 39L8 39L8 41L6 41L6 42L5 42L5 41L4 41L4 39L3 39L3 37L2 37L2 40L3 40L3 42L5 42L5 43L3 43L3 44L4 44L4 45L5 45L5 46L3 46L3 47L5 47L5 46L7 46L7 47L8 47L8 45L9 45L9 48L12 48L12 47L10 47L10 45L11 45L11 46L12 46L12 45L13 45L13 43L14 43L14 41L15 41L15 43L18 43L18 42L19 42L19 41L18 41L18 40L17 40L17 39L20 39L20 38L19 38L19 37L23 37L23 38L24 38L24 37L23 37L23 36L24 36L24 34L23 34L23 33L25 33L25 34L26 34L26 33L27 33L27 35L26 35L26 36L25 36L25 38L26 38L26 37L28 37L28 38L27 38L27 39L25 39L25 40L24 40L24 39L23 39L23 40L22 40L22 39L21 39L21 40L20 40L20 42L21 42L21 43L20 43L20 44L19 44L19 45L20 45L20 46L21 46L21 45L22 45L22 46L23 46L23 47L24 47L24 49L25 49L25 50L26 50L26 49L25 49L25 47L26 47L26 48L27 48L27 47L28 47L28 48L30 48L30 47L28 47L28 46L30 46L30 45L32 45L32 46L31 46L31 47L33 47L33 46L35 46L35 45L34 45L34 43L37 43L37 42L35 42L35 40L38 40L38 42L39 42L39 43L41 43L41 44L39 44L39 45L38 45L38 46L39 46L39 47L38 47L38 48L37 48L37 49L38 49L38 50L36 50L36 49L33 49L33 50L34 50L34 51L35 51L35 50L36 50L36 52L38 52L38 53L37 53L37 54L40 54L40 53L42 53L42 52L43 52L43 51L44 51L44 50L43 50L43 51L42 51L42 50L41 50L41 48L42 48L42 49L43 49L43 48L44 48L44 49L45 49L45 50L47 50L47 53L45 53L45 52L46 52L46 51L45 51L45 52L44 52L44 53L43 53L43 54L44 54L44 53L45 53L45 54L46 54L46 55L47 55L47 54L48 54L48 50L47 50L47 49L48 49L48 48L50 48L50 47L51 47L51 46L54 46L54 45L55 45L55 46L56 46L56 45L55 45L55 44L54 44L54 45L50 45L50 43L51 43L51 44L53 44L53 43L54 43L54 42L53 42L53 41L51 41L51 42L50 42L50 43L49 43L49 42L48 42L48 41L49 41L49 39L55 39L55 37L53 37L53 35L55 35L55 34L54 34L54 33L52 33L52 31L51 31L51 33L52 33L52 34L50 34L50 31L48 31L48 30L47 30L47 29L48 29L48 27L47 27L47 26L48 26L48 25L50 25L50 26L52 26L52 25L55 25L55 24L51 24L51 25L50 25L50 22L51 22L51 21L53 21L53 23L55 23L55 22L56 22L56 21L55 21L55 20L53 20L53 19L52 19L52 18L51 18L51 17L53 17L53 18L55 18L55 16L53 16L53 15L54 15L54 14L53 14L53 15L52 15L52 16L51 16L51 15L50 15L50 14L51 14L51 12L50 12L50 10L48 10L48 11L47 11L47 12L45 12L45 11L46 11L46 10L47 10L47 9L46 9L46 8L45 8L45 7L46 7L46 5L47 5L47 3L44 3L44 6L43 6L43 5L42 5L42 6L41 6L41 5L40 5L40 6L39 6L39 7L40 7L40 8L39 8L39 9L38 9L38 8L37 8L37 7L38 7L38 6L37 6L37 7L36 7L36 5L37 5L37 4L36 4L36 5L35 5L35 3L32 3L32 2ZM15 4L15 5L16 5L16 4ZM32 4L32 5L34 5L34 7L33 7L33 6L32 6L32 7L33 7L33 9L34 9L34 8L35 8L35 9L37 9L37 10L36 10L36 12L35 12L35 13L37 13L37 14L36 14L36 15L37 15L37 14L38 14L38 15L39 15L39 16L38 16L38 17L37 17L37 16L35 16L35 14L33 14L33 13L34 13L34 12L33 12L33 13L32 13L32 12L31 12L31 13L30 13L30 14L31 14L31 15L32 15L32 16L35 16L35 17L37 17L37 18L38 18L38 17L39 17L39 19L38 19L38 20L36 20L36 19L35 19L35 18L33 18L33 19L30 19L30 20L31 20L31 21L29 21L29 22L28 22L28 24L27 24L27 26L26 26L26 25L25 25L25 24L24 24L24 23L23 23L23 22L24 22L24 21L23 21L23 22L22 22L22 21L21 21L21 22L22 22L22 23L21 23L21 24L17 24L17 22L19 22L19 23L20 23L20 22L19 22L19 21L20 21L20 20L17 20L17 21L16 21L16 19L15 19L15 21L16 21L16 22L14 22L14 21L13 21L13 22L12 22L12 23L11 23L11 24L10 24L10 25L9 25L9 26L10 26L10 25L11 25L11 24L12 24L12 23L13 23L13 22L14 22L14 23L16 23L16 24L15 24L15 25L14 25L14 24L13 24L13 26L12 26L12 28L11 28L11 29L10 29L10 31L9 31L9 32L10 32L10 33L8 33L8 34L6 34L6 35L5 35L5 36L6 36L6 35L8 35L8 36L9 36L9 37L10 37L10 38L16 38L16 37L15 37L15 36L16 36L16 35L13 35L13 36L12 36L12 37L11 37L11 35L10 35L10 33L11 33L11 34L13 34L13 31L12 31L12 32L10 32L10 31L11 31L11 30L13 30L13 29L14 29L14 31L15 31L15 32L14 32L14 33L16 33L16 32L17 32L17 35L19 35L19 34L20 34L20 36L22 36L22 35L21 35L21 34L22 34L22 33L21 33L21 32L23 32L23 31L21 31L21 30L20 30L20 29L22 29L22 28L21 28L21 27L22 27L22 26L26 26L26 27L24 27L24 28L23 28L23 30L24 30L24 31L25 31L25 32L28 32L28 33L29 33L29 34L30 34L30 36L29 36L29 37L31 37L31 38L29 38L29 39L33 39L33 40L35 40L35 39L37 39L37 38L38 38L38 37L40 37L40 38L43 38L43 37L44 37L44 38L45 38L45 39L44 39L44 40L42 40L42 39L41 39L41 40L42 40L42 41L40 41L40 42L41 42L41 43L42 43L42 44L41 44L41 45L39 45L39 46L40 46L40 47L39 47L39 48L38 48L38 49L39 49L39 48L41 48L41 46L43 46L43 47L42 47L42 48L43 48L43 47L44 47L44 46L43 46L43 45L44 45L44 44L45 44L45 45L47 45L47 46L45 46L45 49L47 49L47 48L48 48L48 47L50 47L50 46L48 46L48 45L47 45L47 43L48 43L48 42L45 42L45 41L47 41L47 39L48 39L48 37L49 37L49 38L50 38L50 37L52 37L52 35L53 35L53 34L52 34L52 35L50 35L50 34L49 34L49 35L50 35L50 36L48 36L48 37L47 37L47 39L46 39L46 38L45 38L45 37L46 37L46 36L47 36L47 35L46 35L46 36L45 36L45 35L44 35L44 33L43 33L43 32L46 32L46 31L47 31L47 32L48 32L48 33L49 33L49 32L48 32L48 31L47 31L47 30L46 30L46 29L47 29L47 27L46 27L46 28L45 28L45 25L44 25L44 24L43 24L43 23L44 23L44 20L45 20L45 21L47 21L47 22L45 22L45 24L46 24L46 25L48 25L48 24L46 24L46 23L49 23L49 21L51 21L51 20L52 20L52 19L49 19L49 18L50 18L50 17L51 17L51 16L50 16L50 15L49 15L49 14L50 14L50 12L49 12L49 11L48 11L48 12L49 12L49 13L47 13L47 14L45 14L45 13L44 13L44 12L43 12L43 13L41 13L41 14L44 14L44 15L42 15L42 16L41 16L41 15L40 15L40 14L38 14L38 13L40 13L40 12L41 12L41 11L45 11L45 10L46 10L46 9L44 9L44 8L43 8L43 6L42 6L42 7L41 7L41 6L40 6L40 7L41 7L41 8L42 8L42 9L40 9L40 10L38 10L38 9L37 9L37 8L35 8L35 5L34 5L34 4ZM45 4L45 5L46 5L46 4ZM17 5L17 6L16 6L16 7L17 7L17 6L18 6L18 7L19 7L19 6L18 6L18 5ZM27 5L27 8L30 8L30 5ZM23 6L23 8L24 8L24 6ZM28 6L28 7L29 7L29 6ZM44 6L44 7L45 7L45 6ZM48 6L48 7L49 7L49 6ZM51 8L51 9L52 9L52 8ZM53 8L53 9L54 9L54 8ZM6 9L6 10L7 10L7 9ZM18 10L18 11L17 11L17 12L16 12L16 13L17 13L17 15L18 15L18 14L19 14L19 16L16 16L16 17L19 17L19 18L20 18L20 17L22 17L22 16L21 16L21 15L23 15L23 14L22 14L22 13L21 13L21 14L20 14L20 13L19 13L19 10ZM21 10L21 11L22 11L22 10ZM32 10L32 11L33 11L33 10ZM39 11L39 12L40 12L40 11ZM17 12L17 13L18 13L18 12ZM52 12L52 13L53 13L53 12ZM28 13L28 14L29 14L29 13ZM27 15L27 16L28 16L28 15ZM44 15L44 18L43 18L43 19L42 19L42 18L41 18L41 20L38 20L38 22L39 22L39 23L40 23L40 22L39 22L39 21L43 21L43 20L44 20L44 18L45 18L45 19L46 19L46 20L47 20L47 21L49 21L49 20L47 20L47 19L48 19L48 18L47 18L47 17L49 17L49 15L48 15L48 16L46 16L46 15ZM19 16L19 17L20 17L20 16ZM39 16L39 17L41 17L41 16ZM42 16L42 17L43 17L43 16ZM45 16L45 17L46 17L46 16ZM23 18L23 19L24 19L24 18ZM46 18L46 19L47 19L47 18ZM12 19L12 20L14 20L14 19ZM27 19L27 20L28 20L28 19ZM34 19L34 20L32 20L32 21L31 21L31 23L30 23L30 22L29 22L29 24L28 24L28 26L29 26L29 25L31 25L31 24L32 24L32 26L31 26L31 28L32 28L32 30L31 30L31 31L28 31L28 32L29 32L29 33L31 33L31 32L32 32L32 33L33 33L33 34L31 34L31 35L33 35L33 34L35 34L35 36L32 36L32 37L33 37L33 38L35 38L35 36L37 36L37 37L38 37L38 35L40 35L40 34L39 34L39 33L41 33L41 32L43 32L43 30L44 30L44 31L45 31L45 28L44 28L44 25L43 25L43 24L42 24L42 22L41 22L41 24L38 24L38 23L37 23L37 24L38 24L38 26L37 26L37 25L33 25L33 24L32 24L32 23L35 23L35 19ZM6 21L6 22L7 22L7 21ZM16 24L16 25L15 25L15 26L14 26L14 27L15 27L15 26L17 26L17 24ZM21 24L21 25L20 25L20 27L19 27L19 26L18 26L18 27L17 27L17 28L18 28L18 29L16 29L16 28L14 28L14 29L16 29L16 30L18 30L18 29L20 29L20 27L21 27L21 25L24 25L24 24ZM39 25L39 26L43 26L43 25ZM32 26L32 27L33 27L33 28L36 28L36 29L35 29L35 30L33 30L33 31L32 31L32 32L34 32L34 31L35 31L35 30L37 30L37 29L38 29L38 28L39 28L39 27L37 27L37 28L36 28L36 26L34 26L34 27L33 27L33 26ZM53 26L53 27L54 27L54 26ZM5 27L5 30L8 30L8 27ZM27 27L27 30L30 30L30 27ZM41 27L41 28L42 28L42 27ZM49 27L49 30L52 30L52 27ZM6 28L6 29L7 29L7 28ZM25 28L25 29L26 29L26 28ZM28 28L28 29L29 29L29 28ZM43 28L43 29L41 29L41 30L40 30L40 31L41 31L41 30L43 30L43 29L44 29L44 28ZM50 28L50 29L51 29L51 28ZM53 29L53 30L54 30L54 31L53 31L53 32L54 32L54 31L55 31L55 30L54 30L54 29ZM19 30L19 33L18 33L18 34L19 34L19 33L20 33L20 34L21 34L21 33L20 33L20 30ZM38 30L38 32L39 32L39 30ZM6 31L6 32L7 32L7 31ZM17 31L17 32L18 32L18 31ZM35 32L35 34L37 34L37 35L38 35L38 33L37 33L37 32ZM42 34L42 35L41 35L41 36L40 36L40 37L43 37L43 36L44 36L44 37L45 37L45 36L44 36L44 35L43 35L43 34ZM17 36L17 37L19 37L19 36ZM11 39L11 40L10 40L10 42L11 42L11 45L12 45L12 42L13 42L13 41L14 41L14 40L15 40L15 41L17 41L17 42L18 42L18 41L17 41L17 40L16 40L16 39L14 39L14 40L13 40L13 41L12 41L12 39ZM27 39L27 41L26 41L26 42L27 42L27 41L29 41L29 40L28 40L28 39ZM38 39L38 40L39 40L39 39ZM23 40L23 41L24 41L24 42L22 42L22 41L21 41L21 42L22 42L22 43L21 43L21 44L22 44L22 45L23 45L23 46L24 46L24 47L25 47L25 44L27 44L27 43L25 43L25 41L24 41L24 40ZM31 40L31 41L30 41L30 42L29 42L29 43L28 43L28 45L26 45L26 47L27 47L27 46L28 46L28 45L29 45L29 43L31 43L31 44L33 44L33 43L34 43L34 42L33 42L33 41L32 41L32 40ZM44 40L44 41L43 41L43 42L44 42L44 41L45 41L45 40ZM11 41L11 42L12 42L12 41ZM31 41L31 42L32 42L32 43L33 43L33 42L32 42L32 41ZM1 42L1 43L2 43L2 42ZM6 42L6 43L5 43L5 44L6 44L6 45L7 45L7 44L8 44L8 42ZM51 42L51 43L53 43L53 42ZM6 43L6 44L7 44L7 43ZM9 43L9 44L10 44L10 43ZM23 43L23 45L24 45L24 44L25 44L25 43ZM43 43L43 44L44 44L44 43ZM45 43L45 44L46 44L46 43ZM17 44L17 45L18 45L18 44ZM15 46L15 47L16 47L16 46ZM35 47L35 48L36 48L36 47ZM53 48L53 49L54 49L54 48ZM27 49L27 52L30 52L30 49ZM49 49L49 52L52 52L52 49ZM10 50L10 51L11 51L11 50ZM28 50L28 51L29 51L29 50ZM38 50L38 51L40 51L40 52L42 52L42 51L41 51L41 50ZM50 50L50 51L51 51L51 50ZM54 50L54 51L55 51L55 50ZM53 52L53 53L54 53L54 52ZM13 53L13 55L14 55L14 53ZM15 53L15 54L16 54L16 53ZM24 53L24 54L23 54L23 55L24 55L24 56L25 56L25 54L26 54L26 53ZM33 53L33 54L34 54L34 55L35 55L35 56L36 56L36 54L35 54L35 53ZM50 55L50 56L51 56L51 55ZM43 56L43 57L44 57L44 56ZM0 0L0 7L7 7L7 0ZM1 1L1 6L6 6L6 1ZM2 2L2 5L5 5L5 2ZM50 0L50 7L57 7L57 0ZM51 1L51 6L56 6L56 1ZM52 2L52 5L55 5L55 2ZM0 50L0 57L7 57L7 50ZM1 51L1 56L6 56L6 51ZM2 52L2 55L5 55L5 52Z" fill="#000000"/></g></g></svg>
