<?xml version="1.0" encoding="UTF-8"?>
<svg xmlns="http://www.w3.org/2000/svg" version="1.1" width="300" height="300" viewBox="0 0 300 300"><rect x="0" y="0" width="300" height="300" fill="#fefefe"/><g transform="scale(4.615)"><g transform="translate(4,4)"><path fill-rule="evenodd" d="M10 0L10 1L11 1L11 2L12 2L12 3L8 3L8 4L12 4L12 3L13 3L13 4L14 4L14 2L15 2L15 3L16 3L16 2L18 2L18 1L20 1L20 0L17 0L17 1L14 1L14 0L12 0L12 1L11 1L11 0ZM21 0L21 1L22 1L22 0ZM23 0L23 2L27 2L27 1L25 1L25 0ZM30 0L30 1L28 1L28 2L29 2L29 4L26 4L26 3L23 3L23 4L22 4L22 3L21 3L21 4L19 4L19 3L20 3L20 2L19 2L19 3L17 3L17 4L19 4L19 5L20 5L20 7L19 7L19 6L18 6L18 5L17 5L17 6L16 6L16 7L15 7L15 5L16 5L16 4L15 4L15 5L10 5L10 7L9 7L9 5L8 5L8 7L9 7L9 8L6 8L6 9L5 9L5 8L0 8L0 12L2 12L2 13L1 13L1 14L0 14L0 16L1 16L1 18L2 18L2 16L1 16L1 14L2 14L2 15L4 15L4 16L5 16L5 14L2 14L2 13L5 13L5 12L2 12L2 11L1 11L1 9L3 9L3 10L4 10L4 9L5 9L5 11L7 11L7 10L6 10L6 9L8 9L8 12L6 12L6 13L7 13L7 14L6 14L6 15L9 15L9 14L10 14L10 15L11 15L11 16L10 16L10 17L8 17L8 18L5 18L5 17L3 17L3 20L1 20L1 19L0 19L0 20L1 20L1 21L0 21L0 22L1 22L1 23L0 23L0 24L1 24L1 25L2 25L2 24L3 24L3 26L2 26L2 27L1 27L1 26L0 26L0 27L1 27L1 28L0 28L0 32L1 32L1 33L2 33L2 34L3 34L3 37L2 37L2 35L1 35L1 36L0 36L0 37L2 37L2 38L1 38L1 39L2 39L2 41L3 41L3 43L5 43L5 44L6 44L6 45L7 45L7 46L5 46L5 47L3 47L3 46L4 46L4 44L2 44L2 43L1 43L1 45L2 45L2 47L1 47L1 46L0 46L0 48L5 48L5 47L8 47L8 51L9 51L9 52L8 52L8 57L11 57L11 56L12 56L12 55L13 55L13 54L12 54L12 53L13 53L13 50L14 50L14 49L15 49L15 50L16 50L16 51L14 51L14 54L15 54L15 55L14 55L14 56L13 56L13 57L14 57L14 56L15 56L15 57L16 57L16 56L17 56L17 57L22 57L22 56L24 56L24 57L26 57L26 56L27 56L27 57L29 57L29 56L30 56L30 57L31 57L31 56L35 56L35 57L39 57L39 56L37 56L37 54L38 54L38 55L41 55L41 56L42 56L42 55L43 55L43 57L44 57L44 54L45 54L45 55L46 55L46 56L48 56L48 57L49 57L49 56L50 56L50 57L52 57L52 55L51 55L51 53L52 53L52 54L53 54L53 57L54 57L54 56L55 56L55 57L56 57L56 56L55 56L55 54L53 54L53 52L54 52L54 53L56 53L56 51L54 51L54 50L57 50L57 48L56 48L56 46L57 46L57 45L56 45L56 44L55 44L55 43L56 43L56 42L57 42L57 41L56 41L56 42L55 42L55 39L57 39L57 37L55 37L55 36L56 36L56 34L55 34L55 32L56 32L56 33L57 33L57 32L56 32L56 30L57 30L57 29L54 29L54 28L57 28L57 27L55 27L55 26L57 26L57 25L56 25L56 22L57 22L57 21L56 21L56 22L55 22L55 23L54 23L54 21L51 21L51 20L52 20L52 19L53 19L53 20L55 20L55 18L57 18L57 17L56 17L56 16L57 16L57 15L56 15L56 14L57 14L57 13L56 13L56 14L55 14L55 13L54 13L54 12L55 12L55 11L56 11L56 12L57 12L57 11L56 11L56 10L54 10L54 11L53 11L53 10L51 10L51 11L50 11L50 8L49 8L49 6L48 6L48 7L47 7L47 5L48 5L48 0L45 0L45 2L44 2L44 3L42 3L42 2L43 2L43 0L41 0L41 1L40 1L40 0L39 0L39 1L38 1L38 0L37 0L37 1L38 1L38 3L41 3L41 4L40 4L40 5L39 5L39 6L38 6L38 9L37 9L37 8L35 8L35 5L36 5L36 7L37 7L37 5L38 5L38 4L37 4L37 3L36 3L36 0L35 0L35 1L33 1L33 0L32 0L32 1L33 1L33 2L32 2L32 3L30 3L30 1L31 1L31 0ZM8 1L8 2L9 2L9 1ZM12 1L12 2L14 2L14 1ZM46 1L46 2L47 2L47 1ZM33 2L33 3L32 3L32 4L31 4L31 8L32 8L32 10L31 10L31 11L30 11L30 10L28 10L28 11L29 11L29 12L28 12L28 13L27 13L27 15L26 15L26 12L27 12L27 11L26 11L26 12L25 12L25 10L23 10L23 8L24 8L24 6L23 6L23 5L24 5L24 4L23 4L23 5L22 5L22 4L21 4L21 7L22 7L22 8L19 8L19 7L18 7L18 6L17 6L17 7L16 7L16 8L17 8L17 7L18 7L18 8L19 8L19 9L20 9L20 10L19 10L19 13L20 13L20 14L17 14L17 13L18 13L18 12L17 12L17 11L18 11L18 10L17 10L17 9L15 9L15 7L14 7L14 6L13 6L13 7L12 7L12 6L11 6L11 7L10 7L10 9L9 9L9 11L10 11L10 12L8 12L8 13L10 13L10 14L11 14L11 15L13 15L13 16L12 16L12 17L11 17L11 18L8 18L8 19L5 19L5 18L4 18L4 19L5 19L5 20L3 20L3 21L2 21L2 23L3 23L3 24L4 24L4 25L6 25L6 26L7 26L7 25L8 25L8 26L9 26L9 25L12 25L12 26L11 26L11 27L10 27L10 28L11 28L11 27L12 27L12 29L10 29L10 30L12 30L12 31L15 31L15 32L16 32L16 33L14 33L14 32L13 32L13 33L14 33L14 34L13 34L13 35L14 35L14 34L15 34L15 35L16 35L16 36L15 36L15 37L14 37L14 36L12 36L12 35L10 35L10 36L11 36L11 37L12 37L12 38L10 38L10 37L9 37L9 36L7 36L7 35L4 35L4 38L5 38L5 37L6 37L6 38L7 38L7 39L6 39L6 40L7 40L7 41L6 41L6 42L9 42L9 44L8 44L8 43L6 43L6 44L7 44L7 45L10 45L10 44L11 44L11 47L10 47L10 48L9 48L9 49L10 49L10 48L11 48L11 51L12 51L12 50L13 50L13 48L15 48L15 49L16 49L16 50L19 50L19 51L20 51L20 50L21 50L21 49L23 49L23 48L24 48L24 49L26 49L26 48L29 48L29 46L30 46L30 45L32 45L32 47L33 47L33 46L36 46L36 47L35 47L35 48L36 48L36 47L37 47L37 46L36 46L36 45L34 45L34 43L35 43L35 44L36 44L36 43L37 43L37 42L35 42L35 40L38 40L38 42L39 42L39 43L41 43L41 44L39 44L39 45L38 45L38 46L41 46L41 48L39 48L39 47L38 47L38 48L37 48L37 49L38 49L38 50L36 50L36 49L34 49L34 48L31 48L31 50L32 50L32 51L31 51L31 53L30 53L30 54L26 54L26 53L24 53L24 52L26 52L26 50L22 50L22 51L21 51L21 52L20 52L20 53L19 53L19 54L20 54L20 55L19 55L19 56L21 56L21 55L22 55L22 54L23 54L23 55L24 55L24 56L25 56L25 54L26 54L26 55L27 55L27 56L29 56L29 55L30 55L30 56L31 56L31 54L32 54L32 53L33 53L33 55L35 55L35 56L36 56L36 54L35 54L35 52L34 52L34 51L35 51L35 50L36 50L36 52L37 52L37 53L38 53L38 54L40 54L40 53L41 53L41 52L42 52L42 53L43 53L43 54L44 54L44 53L45 53L45 54L46 54L46 55L47 55L47 53L48 53L48 50L47 50L47 49L48 49L48 48L54 48L54 49L56 49L56 48L54 48L54 47L53 47L53 45L50 45L50 43L51 43L51 44L53 44L53 43L54 43L54 42L53 42L53 41L54 41L54 40L53 40L53 41L51 41L51 42L50 42L50 43L49 43L49 42L48 42L48 41L49 41L49 39L51 39L51 38L52 38L52 39L53 39L53 35L55 35L55 34L54 34L54 33L52 33L52 32L51 32L51 33L52 33L52 34L50 34L50 31L48 31L48 28L47 28L47 29L46 29L46 30L47 30L47 31L45 31L45 28L46 28L46 27L48 27L48 26L47 26L47 25L50 25L50 26L51 26L51 25L54 25L54 24L53 24L53 23L50 23L50 22L51 22L51 21L49 21L49 23L48 23L48 24L47 24L47 25L45 25L45 23L46 23L46 22L47 22L47 21L46 21L46 20L44 20L44 18L45 18L45 19L46 19L46 18L47 18L47 19L48 19L48 18L47 18L47 17L48 17L48 16L49 16L49 17L50 17L50 19L52 19L52 18L51 18L51 17L53 17L53 18L55 18L55 16L51 16L51 17L50 17L50 14L51 14L51 12L50 12L50 11L49 11L49 10L47 10L47 9L48 9L48 8L45 8L45 7L46 7L46 6L45 6L45 5L47 5L47 3L44 3L44 6L43 6L43 5L40 5L40 6L39 6L39 9L38 9L38 10L37 10L37 9L35 9L35 8L34 8L34 9L33 9L33 7L34 7L34 5L35 5L35 3L34 3L34 2ZM25 4L25 8L26 8L26 4ZM32 4L32 5L34 5L34 4ZM36 4L36 5L37 5L37 4ZM27 5L27 8L30 8L30 5ZM22 6L22 7L23 7L23 6ZM28 6L28 7L29 7L29 6ZM32 6L32 7L33 7L33 6ZM40 6L40 7L41 7L41 8L42 8L42 9L41 9L41 10L40 10L40 9L39 9L39 10L38 10L38 11L37 11L37 10L36 10L36 12L35 12L35 13L36 13L36 14L33 14L33 13L34 13L34 12L33 12L33 10L32 10L32 12L31 12L31 13L30 13L30 14L29 14L29 13L28 13L28 14L29 14L29 16L28 16L28 15L27 15L27 16L28 16L28 17L27 17L27 18L28 18L28 19L27 19L27 20L28 20L28 19L30 19L30 18L31 18L31 20L29 20L29 22L28 22L28 23L29 23L29 24L31 24L31 25L29 25L29 26L28 26L28 25L27 25L27 26L26 26L26 25L25 25L25 24L27 24L27 21L26 21L26 15L23 15L23 14L25 14L25 12L24 12L24 11L23 11L23 10L22 10L22 11L21 11L21 10L20 10L20 12L22 12L22 13L21 13L21 15L20 15L20 16L19 16L19 15L18 15L18 16L16 16L16 13L17 13L17 12L16 12L16 11L17 11L17 10L13 10L13 11L11 11L11 12L12 12L12 13L11 13L11 14L13 14L13 15L14 15L14 16L13 16L13 17L12 17L12 18L11 18L11 19L12 19L12 20L11 20L11 21L12 21L12 22L13 22L13 23L14 23L14 24L13 24L13 25L14 25L14 24L15 24L15 23L16 23L16 24L17 24L17 25L18 25L18 26L17 26L17 27L18 27L18 26L19 26L19 27L20 27L20 28L21 28L21 29L22 29L22 28L21 28L21 27L22 27L22 26L26 26L26 27L24 27L24 28L23 28L23 31L21 31L21 30L20 30L20 29L18 29L18 28L16 28L16 29L15 29L15 27L16 27L16 26L15 26L15 27L13 27L13 28L14 28L14 29L13 29L13 30L14 30L14 29L15 29L15 31L16 31L16 29L18 29L18 30L17 30L17 31L19 31L19 30L20 30L20 31L21 31L21 32L17 32L17 33L19 33L19 34L16 34L16 35L19 35L19 36L18 36L18 37L17 37L17 40L18 40L18 41L17 41L17 42L18 42L18 43L16 43L16 44L18 44L18 45L17 45L17 48L16 48L16 47L15 47L15 48L16 48L16 49L19 49L19 50L20 50L20 49L19 49L19 48L18 48L18 46L20 46L20 45L19 45L19 42L20 42L20 43L21 43L21 44L22 44L22 45L21 45L21 47L20 47L20 48L21 48L21 47L23 47L23 46L24 46L24 47L25 47L25 48L26 48L26 47L28 47L28 46L27 46L27 45L26 45L26 47L25 47L25 44L29 44L29 45L30 45L30 44L29 44L29 43L31 43L31 44L33 44L33 43L34 43L34 42L33 42L33 41L32 41L32 40L31 40L31 41L29 41L29 40L28 40L28 39L27 39L27 38L28 38L28 37L26 37L26 40L27 40L27 41L26 41L26 42L27 42L27 41L29 41L29 43L25 43L25 41L24 41L24 40L25 40L25 36L27 36L27 32L28 32L28 33L29 33L29 34L30 34L30 36L29 36L29 37L31 37L31 38L29 38L29 39L33 39L33 40L35 40L35 39L37 39L37 38L38 38L38 40L39 40L39 38L38 38L38 37L37 37L37 36L38 36L38 33L37 33L37 32L35 32L35 34L33 34L33 35L31 35L31 34L32 34L32 32L31 32L31 33L29 33L29 31L32 31L32 28L31 28L31 26L32 26L32 27L33 27L33 28L35 28L35 30L33 30L33 32L34 32L34 31L36 31L36 30L37 30L37 29L38 29L38 28L42 28L42 27L36 27L36 26L34 26L34 27L33 27L33 26L32 26L32 24L33 24L33 25L37 25L37 26L38 26L38 24L39 24L39 23L38 23L38 21L39 21L39 22L40 22L40 24L42 24L42 25L41 25L41 26L43 26L43 29L39 29L39 30L38 30L38 32L39 32L39 31L41 31L41 30L43 30L43 32L41 32L41 33L39 33L39 34L40 34L40 35L39 35L39 37L40 37L40 38L43 38L43 37L44 37L44 38L45 38L45 39L44 39L44 40L42 40L42 41L40 41L40 42L42 42L42 44L41 44L41 46L43 46L43 47L42 47L42 48L41 48L41 50L38 50L38 51L37 51L37 52L39 52L39 51L40 51L40 52L41 52L41 50L42 50L42 51L43 51L43 53L44 53L44 52L45 52L45 53L47 53L47 51L46 51L46 52L45 52L45 51L44 51L44 50L45 50L45 49L47 49L47 48L48 48L48 47L50 47L50 46L49 46L49 44L48 44L48 45L47 45L47 43L48 43L48 42L45 42L45 41L44 41L44 40L45 40L45 39L46 39L46 40L47 40L47 39L49 39L49 38L50 38L50 37L49 37L49 36L48 36L48 37L47 37L47 39L46 39L46 38L45 38L45 37L46 37L46 36L47 36L47 35L46 35L46 34L45 34L45 33L46 33L46 32L45 32L45 31L44 31L44 28L45 28L45 27L46 27L46 26L44 26L44 24L42 24L42 23L44 23L44 20L42 20L42 19L43 19L43 18L44 18L44 15L47 15L47 16L48 16L48 15L49 15L49 14L50 14L50 12L49 12L49 13L47 13L47 14L45 14L45 13L44 13L44 12L43 12L43 13L40 13L40 14L38 14L38 13L39 13L39 11L40 11L40 12L41 12L41 10L43 10L43 11L45 11L45 12L48 12L48 11L47 11L47 10L46 10L46 11L45 11L45 9L44 9L44 8L43 8L43 6L42 6L42 7L41 7L41 6ZM44 6L44 7L45 7L45 6ZM11 8L11 9L14 9L14 8ZM51 8L51 9L52 9L52 8ZM53 8L53 9L54 9L54 8ZM55 8L55 9L56 9L56 8ZM43 9L43 10L44 10L44 9ZM13 11L13 12L14 12L14 11ZM15 12L15 13L13 13L13 14L15 14L15 13L16 13L16 12ZM32 12L32 13L31 13L31 14L30 14L30 15L31 15L31 14L32 14L32 13L33 13L33 12ZM52 12L52 13L53 13L53 12ZM22 13L22 14L23 14L23 13ZM43 13L43 14L41 14L41 16L39 16L39 15L38 15L38 14L37 14L37 15L35 15L35 16L31 16L31 18L35 18L35 19L34 19L34 20L35 20L35 19L36 19L36 20L37 20L37 19L39 19L39 17L41 17L41 16L42 16L42 17L43 17L43 16L42 16L42 15L44 15L44 13ZM53 14L53 15L55 15L55 14ZM21 15L21 16L20 16L20 18L22 18L22 17L25 17L25 16L23 16L23 15ZM6 16L6 17L7 17L7 16ZM14 16L14 18L13 18L13 19L14 19L14 20L13 20L13 21L14 21L14 23L15 23L15 22L16 22L16 21L17 21L17 20L18 20L18 19L19 19L19 20L20 20L20 21L19 21L19 22L20 22L20 23L19 23L19 24L22 24L22 25L20 25L20 27L21 27L21 26L22 26L22 25L24 25L24 24L25 24L25 23L26 23L26 22L25 22L25 21L24 21L24 20L23 20L23 19L24 19L24 18L23 18L23 19L19 19L19 18L18 18L18 17L16 17L16 16ZM21 16L21 17L22 17L22 16ZM35 16L35 17L37 17L37 18L38 18L38 17L39 17L39 16L38 16L38 17L37 17L37 16ZM45 17L45 18L46 18L46 17ZM17 18L17 19L18 19L18 18ZM41 18L41 19L42 19L42 18ZM8 19L8 20L6 20L6 21L4 21L4 22L3 22L3 23L4 23L4 24L6 24L6 25L7 25L7 24L6 24L6 23L8 23L8 22L9 22L9 23L11 23L11 24L12 24L12 23L11 23L11 22L9 22L9 21L10 21L10 20L9 20L9 19ZM15 19L15 21L16 21L16 19ZM56 19L56 20L57 20L57 19ZM8 20L8 21L9 21L9 20ZM32 20L32 21L31 21L31 24L32 24L32 23L33 23L33 22L34 22L34 23L35 23L35 21L33 21L33 20ZM39 20L39 21L41 21L41 20ZM6 21L6 22L7 22L7 21ZM23 21L23 22L24 22L24 21ZM4 22L4 23L5 23L5 22ZM21 22L21 23L22 23L22 22ZM17 23L17 24L18 24L18 23ZM23 23L23 24L24 24L24 23ZM37 23L37 24L38 24L38 23ZM49 23L49 24L50 24L50 23ZM8 24L8 25L9 25L9 24ZM53 26L53 27L54 27L54 26ZM2 27L2 28L3 28L3 27ZM5 27L5 30L8 30L8 27ZM27 27L27 30L30 30L30 27ZM49 27L49 30L52 30L52 27ZM6 28L6 29L7 29L7 28ZM25 28L25 29L26 29L26 28ZM28 28L28 29L29 29L29 28ZM50 28L50 29L51 29L51 28ZM1 29L1 31L2 31L2 30L3 30L3 29ZM24 30L24 31L23 31L23 32L21 32L21 33L20 33L20 34L19 34L19 35L20 35L20 36L19 36L19 37L18 37L18 39L20 39L20 38L19 38L19 37L23 37L23 38L22 38L22 39L23 39L23 40L20 40L20 42L21 42L21 43L22 43L22 42L24 42L24 41L23 41L23 40L24 40L24 39L23 39L23 38L24 38L24 37L23 37L23 36L24 36L24 34L23 34L23 33L25 33L25 34L26 34L26 31L25 31L25 30ZM4 31L4 33L3 33L3 32L2 32L2 33L3 33L3 34L4 34L4 33L5 33L5 34L8 34L8 35L9 35L9 34L11 34L11 33L12 33L12 32L11 32L11 33L5 33L5 32L8 32L8 31ZM9 31L9 32L10 32L10 31ZM24 31L24 32L25 32L25 31ZM47 31L47 32L48 32L48 33L49 33L49 32L48 32L48 31ZM43 32L43 33L45 33L45 32ZM21 33L21 34L20 34L20 35L21 35L21 36L23 36L23 34L22 34L22 33ZM35 34L35 36L37 36L37 34ZM42 34L42 35L43 35L43 36L40 36L40 37L43 37L43 36L44 36L44 37L45 37L45 36L44 36L44 35L45 35L45 34ZM48 34L48 35L50 35L50 36L51 36L51 37L52 37L52 35L53 35L53 34L52 34L52 35L50 35L50 34ZM33 35L33 36L32 36L32 37L33 37L33 38L35 38L35 37L33 37L33 36L34 36L34 35ZM6 36L6 37L7 37L7 36ZM8 37L8 39L7 39L7 40L8 40L8 41L9 41L9 42L10 42L10 43L11 43L11 42L12 42L12 43L13 43L13 44L12 44L12 46L13 46L13 47L14 47L14 46L15 46L15 44L14 44L14 41L15 41L15 40L16 40L16 39L11 39L11 41L10 41L10 39L9 39L9 37ZM13 37L13 38L14 38L14 37ZM15 37L15 38L16 38L16 37ZM2 38L2 39L3 39L3 38ZM54 38L54 39L55 39L55 38ZM12 40L12 41L14 41L14 40ZM0 41L0 42L1 42L1 41ZM18 41L18 42L19 42L19 41ZM21 41L21 42L22 42L22 41ZM31 41L31 42L32 42L32 43L33 43L33 42L32 42L32 41ZM43 41L43 42L44 42L44 45L43 45L43 46L44 46L44 47L43 47L43 48L42 48L42 49L43 49L43 48L44 48L44 49L45 49L45 48L46 48L46 47L45 47L45 46L47 46L47 47L48 47L48 46L47 46L47 45L45 45L45 44L46 44L46 43L45 43L45 42L44 42L44 41ZM51 42L51 43L53 43L53 42ZM13 44L13 45L14 45L14 44ZM23 44L23 45L22 45L22 46L23 46L23 45L24 45L24 44ZM54 44L54 45L55 45L55 46L56 46L56 45L55 45L55 44ZM11 47L11 48L12 48L12 47ZM44 47L44 48L45 48L45 47ZM6 48L6 49L7 49L7 48ZM38 48L38 49L39 49L39 48ZM27 49L27 52L30 52L30 49ZM32 49L32 50L33 50L33 49ZM49 49L49 52L52 52L52 49ZM9 50L9 51L10 51L10 50ZM28 50L28 51L29 51L29 50ZM50 50L50 51L51 51L51 50ZM16 51L16 53L15 53L15 54L16 54L16 53L17 53L17 51ZM22 51L22 52L23 52L23 51ZM32 51L32 52L33 52L33 51ZM9 52L9 56L11 56L11 53L10 53L10 52ZM21 53L21 54L22 54L22 53ZM23 53L23 54L24 54L24 53ZM17 54L17 55L18 55L18 54ZM15 55L15 56L16 56L16 55ZM50 55L50 56L51 56L51 55ZM0 0L0 7L7 7L7 0ZM1 1L1 6L6 6L6 1ZM2 2L2 5L5 5L5 2ZM50 0L50 7L57 7L57 0ZM51 1L51 6L56 6L56 1ZM52 2L52 5L55 5L55 2ZM0 50L0 57L7 57L7 50ZM1 51L1 56L6 56L6 51ZM2 52L2 55L5 55L5 52Z" fill="#000000"/></g></g></svg>
