<?xml version="1.0" encoding="UTF-8"?>
<svg xmlns="http://www.w3.org/2000/svg" version="1.1" width="300" height="300" viewBox="0 0 300 300"><rect x="0" y="0" width="300" height="300" fill="#fefefe"/><g transform="scale(4.615)"><g transform="translate(4,4)"><path fill-rule="evenodd" d="M12 0L12 1L14 1L14 2L12 2L12 3L11 3L11 4L10 4L10 5L8 5L8 7L9 7L9 8L6 8L6 9L7 9L7 10L5 10L5 11L4 11L4 10L3 10L3 11L4 11L4 12L2 12L2 11L1 11L1 9L5 9L5 8L0 8L0 13L2 13L2 15L4 15L4 16L3 16L3 17L4 17L4 18L3 18L3 20L2 20L2 19L0 19L0 21L1 21L1 23L0 23L0 24L1 24L1 23L2 23L2 25L0 25L0 27L3 27L3 24L4 24L4 32L5 32L5 33L4 33L4 34L5 34L5 35L2 35L2 34L3 34L3 28L1 28L1 29L0 29L0 30L2 30L2 31L0 31L0 33L1 33L1 35L0 35L0 37L1 37L1 38L0 38L0 41L1 41L1 42L0 42L0 43L1 43L1 42L2 42L2 40L4 40L4 41L3 41L3 42L4 42L4 41L8 41L8 40L12 40L12 38L13 38L13 37L11 37L11 36L14 36L14 34L13 34L13 33L12 33L12 32L11 32L11 33L10 33L10 30L9 30L9 25L12 25L12 26L13 26L13 27L11 27L11 26L10 26L10 27L11 27L11 28L10 28L10 29L11 29L11 28L14 28L14 29L12 29L12 30L11 30L11 31L12 31L12 30L14 30L14 29L15 29L15 31L16 31L16 29L18 29L18 30L17 30L17 32L18 32L18 33L17 33L17 34L15 34L15 35L19 35L19 36L17 36L17 39L18 39L18 40L17 40L17 41L19 41L19 42L18 42L18 43L17 43L17 42L16 42L16 44L18 44L18 45L17 45L17 46L18 46L18 48L17 48L17 49L21 49L21 50L17 50L17 53L16 53L16 52L15 52L15 53L16 53L16 54L14 54L14 55L16 55L16 56L15 56L15 57L16 57L16 56L17 56L17 57L19 57L19 55L20 55L20 54L19 54L19 53L20 53L20 52L23 52L23 51L22 51L22 50L25 50L25 51L26 51L26 52L24 52L24 53L23 53L23 54L22 54L22 55L23 55L23 56L24 56L24 57L26 57L26 56L27 56L27 57L29 57L29 56L30 56L30 57L31 57L31 56L35 56L35 57L39 57L39 56L40 56L40 55L41 55L41 54L42 54L42 55L43 55L43 57L44 57L44 54L45 54L45 53L47 53L47 50L48 50L48 54L47 54L47 55L48 55L48 56L46 56L46 57L48 57L48 56L50 56L50 57L52 57L52 55L51 55L51 53L52 53L52 54L53 54L53 57L54 57L54 56L55 56L55 57L56 57L56 56L55 56L55 55L54 55L54 54L55 54L55 52L57 52L57 51L56 51L56 50L55 50L55 49L53 49L53 48L56 48L56 49L57 49L57 48L56 48L56 46L57 46L57 43L56 43L56 42L55 42L55 41L53 41L53 40L55 40L55 39L57 39L57 36L56 36L56 37L55 37L55 35L56 35L56 33L57 33L57 32L56 32L56 30L57 30L57 29L54 29L54 28L56 28L56 27L55 27L55 26L57 26L57 25L56 25L56 22L57 22L57 21L56 21L56 20L57 20L57 19L56 19L56 20L55 20L55 18L57 18L57 17L56 17L56 16L57 16L57 15L56 15L56 14L57 14L57 13L56 13L56 14L55 14L55 13L54 13L54 12L56 12L56 10L54 10L54 11L52 11L52 10L53 10L53 9L54 9L54 8L53 8L53 9L52 9L52 8L51 8L51 11L50 11L50 8L49 8L49 6L48 6L48 7L47 7L47 5L48 5L48 0L45 0L45 2L44 2L44 3L41 3L41 2L43 2L43 0L41 0L41 1L40 1L40 0L39 0L39 1L38 1L38 0L37 0L37 1L38 1L38 3L41 3L41 4L40 4L40 5L39 5L39 6L38 6L38 4L37 4L37 3L36 3L36 0L35 0L35 1L31 1L31 0L29 0L29 1L30 1L30 2L29 2L29 3L30 3L30 4L26 4L26 3L23 3L23 4L19 4L19 3L20 3L20 0L18 0L18 2L17 2L17 1L14 1L14 0ZM21 0L21 3L22 3L22 0ZM23 0L23 2L25 2L25 1L26 1L26 2L27 2L27 1L28 1L28 0L27 0L27 1L26 1L26 0ZM8 1L8 2L9 2L9 3L8 3L8 4L9 4L9 3L10 3L10 2L11 2L11 1L10 1L10 2L9 2L9 1ZM46 1L46 2L47 2L47 1ZM14 2L14 4L13 4L13 5L12 5L12 4L11 4L11 5L12 5L12 6L11 6L11 7L10 7L10 6L9 6L9 7L10 7L10 8L11 8L11 9L9 9L9 11L8 11L8 10L7 10L7 11L5 11L5 12L4 12L4 13L3 13L3 14L4 14L4 15L5 15L5 16L4 16L4 17L5 17L5 18L4 18L4 20L5 20L5 19L6 19L6 20L8 20L8 21L10 21L10 20L12 20L12 21L11 21L11 22L7 22L7 21L5 21L5 22L7 22L7 23L4 23L4 22L3 22L3 21L2 21L2 20L1 20L1 21L2 21L2 23L4 23L4 24L7 24L7 25L6 25L6 26L8 26L8 23L11 23L11 22L12 22L12 23L14 23L14 24L16 24L16 25L15 25L15 26L14 26L14 27L15 27L15 29L16 29L16 28L18 28L18 29L19 29L19 28L20 28L20 30L19 30L19 32L20 32L20 30L21 30L21 31L23 31L23 32L21 32L21 33L18 33L18 34L20 34L20 36L19 36L19 37L18 37L18 38L19 38L19 39L20 39L20 38L19 38L19 37L23 37L23 38L24 38L24 37L23 37L23 36L24 36L24 34L23 34L23 33L25 33L25 35L26 35L26 34L27 34L27 36L25 36L25 38L26 38L26 37L28 37L28 38L27 38L27 39L25 39L25 40L24 40L24 39L22 39L22 40L20 40L20 42L19 42L19 43L20 43L20 46L21 46L21 45L22 45L22 46L23 46L23 47L20 47L20 48L21 48L21 49L23 49L23 48L24 48L24 49L25 49L25 50L26 50L26 49L25 49L25 48L27 48L27 47L28 47L28 48L30 48L30 47L29 47L29 45L31 45L31 46L32 46L32 47L31 47L31 48L32 48L32 49L31 49L31 53L30 53L30 54L27 54L27 56L29 56L29 55L30 55L30 56L31 56L31 54L32 54L32 53L33 53L33 54L35 54L35 56L36 56L36 54L35 54L35 53L33 53L33 52L32 52L32 51L35 51L35 50L36 50L36 52L37 52L37 51L38 51L38 54L40 54L40 53L41 53L41 52L42 52L42 53L43 53L43 54L44 54L44 53L45 53L45 52L46 52L46 51L45 51L45 52L44 52L44 53L43 53L43 52L42 52L42 50L41 50L41 48L42 48L42 49L43 49L43 50L47 50L47 49L48 49L48 48L49 48L49 47L51 47L51 48L52 48L52 47L54 47L54 46L56 46L56 43L55 43L55 44L54 44L54 46L53 46L53 45L51 45L51 46L49 46L49 47L48 47L48 46L47 46L47 45L48 45L48 44L50 44L50 43L51 43L51 44L53 44L53 43L54 43L54 42L53 42L53 41L51 41L51 42L50 42L50 43L49 43L49 42L48 42L48 41L49 41L49 40L50 40L50 39L51 39L51 40L53 40L53 39L54 39L54 38L53 38L53 35L55 35L55 34L54 34L54 33L56 33L56 32L53 32L53 33L52 33L52 31L51 31L51 33L52 33L52 34L50 34L50 31L48 31L48 30L47 30L47 29L48 29L48 27L47 27L47 25L46 25L46 24L49 24L49 25L50 25L50 26L51 26L51 25L52 25L52 26L53 26L53 27L54 27L54 26L53 26L53 23L50 23L50 22L51 22L51 21L54 21L54 23L55 23L55 22L56 22L56 21L55 21L55 20L53 20L53 19L52 19L52 20L51 20L51 21L49 21L49 23L46 23L46 22L47 22L47 20L44 20L44 18L45 18L45 19L46 19L46 18L47 18L47 19L48 19L48 18L47 18L47 17L49 17L49 15L50 15L50 16L51 16L51 17L50 17L50 19L51 19L51 17L53 17L53 18L55 18L55 17L53 17L53 15L55 15L55 14L54 14L54 13L53 13L53 12L52 12L52 13L53 13L53 15L50 15L50 14L51 14L51 12L50 12L50 11L49 11L49 10L48 10L48 11L49 11L49 12L45 12L45 11L46 11L46 10L47 10L47 9L48 9L48 8L47 8L47 9L46 9L46 8L44 8L44 6L45 6L45 7L46 7L46 5L47 5L47 3L44 3L44 6L43 6L43 5L42 5L42 6L41 6L41 5L40 5L40 6L39 6L39 7L40 7L40 8L38 8L38 10L37 10L37 9L35 9L35 8L37 8L37 7L38 7L38 6L37 6L37 7L36 7L36 5L37 5L37 4L36 4L36 5L35 5L35 3L32 3L32 2L31 2L31 3L32 3L32 4L31 4L31 8L32 8L32 10L31 10L31 11L29 11L29 12L28 12L28 13L26 13L26 12L27 12L27 11L26 11L26 12L25 12L25 10L24 10L24 13L22 13L22 12L20 12L20 10L21 10L21 11L22 11L22 10L23 10L23 8L24 8L24 6L23 6L23 5L24 5L24 4L23 4L23 5L21 5L21 8L19 8L19 9L18 9L18 10L17 10L17 9L16 9L16 8L17 8L17 7L18 7L18 6L19 6L19 7L20 7L20 5L18 5L18 4L17 4L17 2ZM18 2L18 3L19 3L19 2ZM15 4L15 5L16 5L16 4ZM25 4L25 8L26 8L26 4ZM32 4L32 5L33 5L33 4ZM45 4L45 5L46 5L46 4ZM13 5L13 6L12 6L12 7L11 7L11 8L12 8L12 10L13 10L13 11L14 11L14 12L12 12L12 11L9 11L9 12L6 12L6 13L4 13L4 14L5 14L5 15L8 15L8 14L9 14L9 13L10 13L10 15L12 15L12 14L11 14L11 13L15 13L15 14L13 14L13 15L14 15L14 16L12 16L12 17L11 17L11 16L10 16L10 17L9 17L9 16L6 16L6 17L8 17L8 18L9 18L9 19L8 19L8 20L10 20L10 18L11 18L11 19L13 19L13 20L14 20L14 19L13 19L13 18L15 18L15 17L14 17L14 16L16 16L16 17L18 17L18 18L17 18L17 19L15 19L15 21L16 21L16 22L15 22L15 23L16 23L16 24L17 24L17 25L19 25L19 27L20 27L20 25L21 25L21 27L22 27L22 26L23 26L23 27L24 27L24 26L26 26L26 27L25 27L25 28L23 28L23 30L25 30L25 31L24 31L24 32L25 32L25 31L26 31L26 33L27 33L27 32L28 32L28 33L29 33L29 34L30 34L30 36L29 36L29 37L31 37L31 38L29 38L29 39L33 39L33 40L35 40L35 42L37 42L37 43L34 43L34 42L33 42L33 41L32 41L32 40L31 40L31 41L30 41L30 42L28 42L28 45L29 45L29 44L31 44L31 45L32 45L32 44L33 44L33 43L34 43L34 45L36 45L36 46L37 46L37 47L36 47L36 48L35 48L35 46L33 46L33 47L32 47L32 48L33 48L33 49L32 49L32 50L33 50L33 49L34 49L34 48L35 48L35 49L36 49L36 50L38 50L38 51L40 51L40 52L41 52L41 50L38 50L38 49L39 49L39 48L41 48L41 46L43 46L43 47L42 47L42 48L43 48L43 49L44 49L44 48L43 48L43 47L44 47L44 46L43 46L43 45L44 45L44 44L43 44L43 41L44 41L44 43L46 43L46 44L45 44L45 45L47 45L47 43L48 43L48 42L47 42L47 43L46 43L46 42L45 42L45 41L44 41L44 40L45 40L45 39L46 39L46 41L47 41L47 39L48 39L48 37L47 37L47 39L46 39L46 38L45 38L45 37L44 37L44 36L45 36L45 35L47 35L47 34L45 34L45 35L44 35L44 33L43 33L43 32L45 32L45 33L47 33L47 32L48 32L48 33L49 33L49 32L48 32L48 31L47 31L47 30L46 30L46 29L47 29L47 27L46 27L46 26L44 26L44 20L43 20L43 21L39 21L39 20L41 20L41 18L42 18L42 19L43 19L43 18L44 18L44 15L42 15L42 16L41 16L41 14L43 14L43 13L44 13L44 11L45 11L45 10L44 10L44 8L42 8L42 7L43 7L43 6L42 6L42 7L41 7L41 6L40 6L40 7L41 7L41 9L39 9L39 11L37 11L37 10L36 10L36 12L35 12L35 13L36 13L36 14L33 14L33 13L34 13L34 12L33 12L33 13L32 13L32 11L33 11L33 10L32 10L32 11L31 11L31 13L30 13L30 14L29 14L29 13L28 13L28 14L29 14L29 16L28 16L28 15L27 15L27 14L26 14L26 15L25 15L25 13L24 13L24 15L23 15L23 14L22 14L22 13L21 13L21 14L20 14L20 12L19 12L19 10L20 10L20 9L19 9L19 10L18 10L18 11L17 11L17 12L16 12L16 11L15 11L15 10L16 10L16 9L15 9L15 10L13 10L13 9L14 9L14 7L15 7L15 8L16 8L16 7L17 7L17 6L18 6L18 5L17 5L17 6L16 6L16 7L15 7L15 6L14 6L14 5ZM27 5L27 8L30 8L30 5ZM34 5L34 7L33 7L33 6L32 6L32 7L33 7L33 9L34 9L34 8L35 8L35 5ZM13 6L13 7L12 7L12 8L13 8L13 7L14 7L14 6ZM22 6L22 8L23 8L23 6ZM28 6L28 7L29 7L29 6ZM55 8L55 9L56 9L56 8ZM21 9L21 10L22 10L22 9ZM28 9L28 10L29 10L29 9ZM40 10L40 11L39 11L39 13L38 13L38 14L37 14L37 15L35 15L35 16L32 16L32 13L31 13L31 14L30 14L30 15L31 15L31 16L32 16L32 18L30 18L30 20L27 20L27 19L28 19L28 18L27 18L27 19L26 19L26 21L28 21L28 22L27 22L27 23L29 23L29 24L25 24L25 23L26 23L26 22L25 22L25 21L24 21L24 20L23 20L23 19L24 19L24 18L23 18L23 19L22 19L22 20L21 20L21 18L22 18L22 17L25 17L25 18L26 18L26 17L28 17L28 16L27 16L27 15L26 15L26 17L25 17L25 16L23 16L23 15L21 15L21 16L22 16L22 17L20 17L20 14L19 14L19 17L20 17L20 18L19 18L19 19L20 19L20 21L19 21L19 22L18 22L18 21L17 21L17 20L16 20L16 21L17 21L17 24L21 24L21 25L24 25L24 24L25 24L25 25L26 25L26 26L27 26L27 25L29 25L29 24L30 24L30 22L29 22L29 21L31 21L31 24L32 24L32 26L31 26L31 27L32 27L32 29L31 29L31 30L35 30L35 31L34 31L34 32L37 32L37 33L38 33L38 36L39 36L39 35L40 35L40 34L39 34L39 33L41 33L41 32L43 32L43 30L41 30L41 31L39 31L39 32L38 32L38 30L39 30L39 29L44 29L44 31L45 31L45 28L46 28L46 27L45 27L45 28L43 28L43 26L42 26L42 25L41 25L41 24L43 24L43 22L41 22L41 24L40 24L40 22L39 22L39 21L38 21L38 19L39 19L39 17L41 17L41 16L39 16L39 15L38 15L38 14L41 14L41 13L43 13L43 11L44 11L44 10L43 10L43 11L42 11L42 10ZM40 11L40 12L41 12L41 11ZM10 12L10 13L11 13L11 12ZM15 12L15 13L16 13L16 16L17 16L17 13L18 13L18 12L17 12L17 13L16 13L16 12ZM49 12L49 13L47 13L47 14L45 14L45 15L46 15L46 16L45 16L45 17L47 17L47 16L48 16L48 15L49 15L49 14L50 14L50 12ZM6 13L6 14L8 14L8 13ZM0 14L0 15L1 15L1 14ZM0 16L0 17L1 17L1 16ZM35 16L35 17L37 17L37 18L38 18L38 17L39 17L39 16L38 16L38 17L37 17L37 16ZM42 16L42 17L43 17L43 16ZM12 17L12 18L13 18L13 17ZM6 18L6 19L7 19L7 18ZM33 18L33 19L31 19L31 21L32 21L32 20L33 20L33 21L35 21L35 23L34 23L34 22L33 22L33 23L32 23L32 24L33 24L33 25L37 25L37 26L38 26L38 25L40 25L40 24L37 24L37 23L38 23L38 21L37 21L37 20L36 20L36 19L35 19L35 18ZM13 21L13 22L14 22L14 21ZM21 21L21 22L22 22L22 23L21 23L21 24L24 24L24 23L23 23L23 22L24 22L24 21L23 21L23 22L22 22L22 21ZM45 21L45 22L46 22L46 21ZM19 22L19 23L20 23L20 22ZM49 23L49 24L50 24L50 25L51 25L51 24L50 24L50 23ZM12 24L12 25L13 25L13 24ZM15 26L15 27L16 27L16 26ZM17 26L17 27L18 27L18 26ZM32 26L32 27L33 27L33 28L35 28L35 29L38 29L38 28L39 28L39 27L40 27L40 26L39 26L39 27L36 27L36 26L34 26L34 27L33 27L33 26ZM41 26L41 28L42 28L42 26ZM5 27L5 30L8 30L8 27ZM27 27L27 30L30 30L30 27ZM49 27L49 30L52 30L52 27ZM6 28L6 29L7 29L7 28ZM21 28L21 29L22 29L22 28ZM25 28L25 29L26 29L26 28ZM28 28L28 29L29 29L29 28ZM50 28L50 29L51 29L51 28ZM53 29L53 30L54 30L54 31L55 31L55 30L54 30L54 29ZM5 31L5 32L7 32L7 31ZM8 31L8 33L9 33L9 34L7 34L7 33L6 33L6 34L7 34L7 35L5 35L5 36L7 36L7 37L5 37L5 38L4 38L4 37L2 37L2 35L1 35L1 37L2 37L2 38L1 38L1 39L3 39L3 38L4 38L4 39L5 39L5 38L8 38L8 39L6 39L6 40L8 40L8 39L10 39L10 38L11 38L11 37L10 37L10 36L11 36L11 35L13 35L13 34L10 34L10 33L9 33L9 31ZM30 31L30 32L29 32L29 33L31 33L31 32L32 32L32 33L33 33L33 34L34 34L34 35L33 35L33 36L32 36L32 37L33 37L33 39L34 39L34 38L35 38L35 36L37 36L37 34L35 34L35 33L33 33L33 32L32 32L32 31ZM1 32L1 33L2 33L2 32ZM21 33L21 34L22 34L22 35L21 35L21 36L22 36L22 35L23 35L23 34L22 34L22 33ZM9 34L9 36L10 36L10 34ZM42 34L42 35L43 35L43 36L42 36L42 37L41 37L41 36L40 36L40 37L38 37L38 38L37 38L37 39L35 39L35 40L38 40L38 42L39 42L39 45L38 45L38 46L39 46L39 47L38 47L38 48L37 48L37 49L38 49L38 48L39 48L39 47L40 47L40 46L41 46L41 44L42 44L42 43L41 43L41 41L42 41L42 39L43 39L43 40L44 40L44 39L45 39L45 38L44 38L44 37L43 37L43 36L44 36L44 35L43 35L43 34ZM48 34L48 35L50 35L50 36L52 36L52 35L53 35L53 34L52 34L52 35L50 35L50 34ZM34 35L34 36L35 36L35 35ZM9 37L9 38L10 38L10 37ZM14 37L14 38L16 38L16 37ZM40 37L40 38L41 38L41 39L42 39L42 38L43 38L43 37L42 37L42 38L41 38L41 37ZM50 37L50 38L49 38L49 39L50 39L50 38L51 38L51 37ZM52 38L52 39L53 39L53 38ZM13 39L13 40L14 40L14 39ZM15 39L15 41L14 41L14 42L13 42L13 43L11 43L11 44L12 44L12 45L11 45L11 46L12 46L12 47L13 47L13 48L12 48L12 50L11 50L11 49L10 49L10 50L9 50L9 49L8 49L8 48L10 48L10 47L9 47L9 44L10 44L10 41L9 41L9 42L5 42L5 43L3 43L3 45L1 45L1 44L0 44L0 45L1 45L1 46L0 46L0 48L5 48L5 47L7 47L7 48L6 48L6 49L8 49L8 51L9 51L9 52L8 52L8 57L9 57L9 56L10 56L10 53L11 53L11 55L13 55L13 54L12 54L12 53L13 53L13 52L12 52L12 53L11 53L11 52L10 52L10 50L11 50L11 51L15 51L15 50L14 50L14 49L16 49L16 48L14 48L14 45L15 45L15 44L14 44L14 43L15 43L15 41L16 41L16 39ZM27 39L27 40L28 40L28 39ZM38 39L38 40L40 40L40 39ZM11 41L11 42L12 42L12 41ZM21 41L21 42L22 42L22 43L21 43L21 44L22 44L22 45L23 45L23 46L24 46L24 47L25 47L25 44L27 44L27 43L25 43L25 44L24 44L24 45L23 45L23 42L25 42L25 41L23 41L23 42L22 42L22 41ZM26 41L26 42L27 42L27 41ZM31 41L31 42L32 42L32 43L31 43L31 44L32 44L32 43L33 43L33 42L32 42L32 41ZM39 41L39 42L40 42L40 41ZM51 42L51 43L53 43L53 42ZM5 43L5 44L4 44L4 45L6 45L6 46L8 46L8 45L6 45L6 44L9 44L9 43ZM40 43L40 44L41 44L41 43ZM13 44L13 45L14 45L14 44ZM26 45L26 47L27 47L27 45ZM1 46L1 47L2 47L2 46ZM3 46L3 47L5 47L5 46ZM45 46L45 47L47 47L47 48L48 48L48 47L47 47L47 46ZM51 46L51 47L52 47L52 46ZM27 49L27 52L30 52L30 49ZM49 49L49 52L52 52L52 49ZM28 50L28 51L29 51L29 50ZM50 50L50 51L51 51L51 50ZM54 50L54 51L55 51L55 50ZM19 51L19 52L20 52L20 51ZM9 52L9 53L10 53L10 52ZM53 52L53 54L54 54L54 52ZM24 53L24 54L23 54L23 55L24 55L24 56L26 56L26 54L25 54L25 53ZM17 54L17 55L19 55L19 54ZM37 55L37 56L39 56L39 55ZM50 55L50 56L51 56L51 55ZM12 56L12 57L14 57L14 56ZM0 0L0 7L7 7L7 0ZM1 1L1 6L6 6L6 1ZM2 2L2 5L5 5L5 2ZM50 0L50 7L57 7L57 0ZM51 1L51 6L56 6L56 1ZM52 2L52 5L55 5L55 2ZM0 50L0 57L7 57L7 50ZM1 51L1 56L6 56L6 51ZM2 52L2 55L5 55L5 52Z" fill="#000000"/></g></g></svg>
