<?xml version="1.0" encoding="UTF-8"?>
<svg xmlns="http://www.w3.org/2000/svg" version="1.1" width="300" height="300" viewBox="0 0 300 300"><rect x="0" y="0" width="300" height="300" fill="#fefefe"/><g transform="scale(4.615)"><g transform="translate(4,4)"><path fill-rule="evenodd" d="M11 0L11 1L10 1L10 2L11 2L11 3L10 3L10 4L11 4L11 3L12 3L12 4L14 4L14 2L15 2L15 1L14 1L14 0L13 0L13 1L14 1L14 2L13 2L13 3L12 3L12 2L11 2L11 1L12 1L12 0ZM19 0L19 1L17 1L17 2L18 2L18 4L17 4L17 5L18 5L18 4L19 4L19 5L20 5L20 7L19 7L19 6L18 6L18 7L17 7L17 6L16 6L16 7L15 7L15 6L14 6L14 5L12 5L12 7L13 7L13 8L12 8L12 9L14 9L14 7L15 7L15 8L16 8L16 9L15 9L15 10L13 10L13 11L14 11L14 12L13 12L13 13L12 13L12 12L11 12L11 13L10 13L10 11L12 11L12 10L10 10L10 9L11 9L11 6L10 6L10 9L9 9L9 8L6 8L6 9L7 9L7 10L6 10L6 11L5 11L5 13L4 13L4 14L3 14L3 12L2 12L2 11L0 11L0 16L1 16L1 13L2 13L2 14L3 14L3 16L2 16L2 17L0 17L0 19L2 19L2 20L3 20L3 19L4 19L4 21L1 21L1 20L0 20L0 24L2 24L2 25L0 25L0 27L1 27L1 26L4 26L4 28L3 28L3 29L1 29L1 31L2 31L2 30L3 30L3 29L4 29L4 31L3 31L3 32L1 32L1 33L0 33L0 37L1 37L1 34L2 34L2 36L3 36L3 33L4 33L4 32L5 32L5 31L7 31L7 32L6 32L6 33L7 33L7 34L6 34L6 35L9 35L9 38L10 38L10 44L6 44L6 43L8 43L8 42L6 42L6 41L8 41L8 40L9 40L9 39L8 39L8 38L1 38L1 42L3 42L3 41L4 41L4 43L0 43L0 45L1 45L1 46L0 46L0 48L5 48L5 47L7 47L7 48L6 48L6 49L7 49L7 48L8 48L8 51L9 51L9 49L10 49L10 52L8 52L8 57L11 57L11 56L13 56L13 57L14 57L14 55L16 55L16 56L17 56L17 57L19 57L19 55L20 55L20 54L19 54L19 55L18 55L18 54L17 54L17 53L20 53L20 52L21 52L21 51L22 51L22 52L23 52L23 51L22 51L22 50L25 50L25 51L26 51L26 53L25 53L25 52L24 52L24 53L22 53L22 55L21 55L21 56L20 56L20 57L21 57L21 56L23 56L23 57L26 57L26 56L27 56L27 57L29 57L29 56L30 56L30 57L31 57L31 56L35 56L35 57L39 57L39 56L37 56L37 54L38 54L38 55L41 55L41 57L44 57L44 54L45 54L45 53L44 53L44 52L45 52L45 51L46 51L46 52L47 52L47 50L48 50L48 54L47 54L47 55L45 55L45 57L47 57L47 56L48 56L48 55L49 55L49 56L50 56L50 57L52 57L52 55L51 55L51 53L52 53L52 54L53 54L53 57L54 57L54 56L55 56L55 57L56 57L56 56L55 56L55 52L56 52L56 53L57 53L57 52L56 52L56 49L57 49L57 48L56 48L56 46L57 46L57 43L56 43L56 41L55 41L55 39L57 39L57 37L56 37L56 36L57 36L57 35L56 35L56 34L57 34L57 32L56 32L56 30L57 30L57 29L54 29L54 28L55 28L55 27L56 27L56 28L57 28L57 27L56 27L56 26L57 26L57 25L56 25L56 22L57 22L57 20L56 20L56 22L55 22L55 23L54 23L54 21L51 21L51 20L52 20L52 19L53 19L53 20L55 20L55 19L56 19L56 18L57 18L57 17L56 17L56 16L57 16L57 15L56 15L56 14L57 14L57 12L56 12L56 10L54 10L54 11L53 11L53 9L54 9L54 8L53 8L53 9L52 9L52 8L51 8L51 11L50 11L50 8L49 8L49 6L48 6L48 7L47 7L47 5L48 5L48 0L45 0L45 2L44 2L44 3L43 3L43 4L40 4L40 5L39 5L39 6L38 6L38 7L37 7L37 5L38 5L38 3L41 3L41 2L43 2L43 0L41 0L41 1L40 1L40 0L39 0L39 1L38 1L38 0L37 0L37 1L38 1L38 3L36 3L36 0L35 0L35 1L33 1L33 0L32 0L32 1L31 1L31 0L29 0L29 1L25 1L25 0L23 0L23 1L22 1L22 0L21 0L21 1L22 1L22 2L20 2L20 0ZM8 1L8 2L9 2L9 1ZM29 1L29 2L30 2L30 1ZM32 1L32 2L31 2L31 3L32 3L32 4L31 4L31 8L32 8L32 10L31 10L31 11L30 11L30 10L27 10L27 11L26 11L26 12L25 12L25 10L23 10L23 8L24 8L24 9L25 9L25 8L26 8L26 4L30 4L30 3L27 3L27 2L22 2L22 3L19 3L19 4L21 4L21 5L24 5L24 4L23 4L23 3L26 3L26 4L25 4L25 8L24 8L24 6L23 6L23 8L20 8L20 10L19 10L19 9L18 9L18 10L17 10L17 9L16 9L16 10L15 10L15 13L13 13L13 14L15 14L15 13L16 13L16 16L14 16L14 15L12 15L12 16L11 16L11 15L9 15L9 14L10 14L10 13L9 13L9 14L8 14L8 15L6 15L6 16L11 16L11 19L12 19L12 17L13 17L13 19L14 19L14 20L12 20L12 22L13 22L13 23L11 23L11 21L9 21L9 20L8 20L8 19L9 19L9 17L6 17L6 18L8 18L8 19L5 19L5 18L4 18L4 17L5 17L5 16L4 16L4 17L2 17L2 18L4 18L4 19L5 19L5 20L8 20L8 21L6 21L6 22L4 22L4 23L3 23L3 24L5 24L5 25L4 25L4 26L7 26L7 25L6 25L6 24L8 24L8 26L9 26L9 25L10 25L10 24L11 24L11 26L12 26L12 27L13 27L13 25L14 25L14 27L15 27L15 29L14 29L14 28L13 28L13 29L14 29L14 30L12 30L12 31L11 31L11 30L10 30L10 32L9 32L9 33L8 33L8 32L7 32L7 33L8 33L8 34L9 34L9 35L11 35L11 37L10 37L10 38L11 38L11 37L13 37L13 38L14 38L14 40L12 40L12 42L14 42L14 43L15 43L15 42L17 42L17 43L18 43L18 42L19 42L19 45L20 45L20 46L19 46L19 47L18 47L18 48L20 48L20 46L21 46L21 45L22 45L22 46L23 46L23 45L24 45L24 43L23 43L23 45L22 45L22 44L21 44L21 45L20 45L20 42L21 42L21 43L22 43L22 42L24 42L24 41L25 41L25 43L27 43L27 44L25 44L25 48L24 48L24 49L25 49L25 48L28 48L28 47L26 47L26 45L27 45L27 46L29 46L29 45L31 45L31 48L32 48L32 50L31 50L31 53L30 53L30 54L27 54L27 56L29 56L29 55L30 55L30 56L31 56L31 54L32 54L32 53L33 53L33 55L35 55L35 56L36 56L36 54L35 54L35 53L33 53L33 52L32 52L32 50L33 50L33 51L34 51L34 50L36 50L36 52L37 52L37 53L38 53L38 54L40 54L40 53L43 53L43 54L44 54L44 53L43 53L43 51L42 51L42 50L41 50L41 48L42 48L42 49L43 49L43 50L44 50L44 49L45 49L45 50L47 50L47 49L48 49L48 48L49 48L49 47L51 47L51 46L52 46L52 47L54 47L54 46L53 46L53 45L51 45L51 46L49 46L49 47L48 47L48 44L49 44L49 45L50 45L50 43L51 43L51 44L53 44L53 43L54 43L54 42L53 42L53 41L54 41L54 40L53 40L53 41L51 41L51 42L50 42L50 43L48 43L48 44L47 44L47 45L45 45L45 44L46 44L46 43L45 43L45 42L48 42L48 41L49 41L49 40L50 40L50 39L54 39L54 38L53 38L53 35L55 35L55 34L56 34L56 32L55 32L55 34L54 34L54 33L52 33L52 32L51 32L51 33L52 33L52 34L50 34L50 31L48 31L48 29L46 29L46 30L47 30L47 31L46 31L46 32L47 32L47 33L45 33L45 32L43 32L43 30L44 30L44 31L45 31L45 30L44 30L44 29L45 29L45 28L46 28L46 27L47 27L47 28L48 28L48 26L47 26L47 25L45 25L45 22L47 22L47 21L45 21L45 20L44 20L44 18L46 18L46 20L47 20L47 19L48 19L48 18L47 18L47 16L45 16L45 15L44 15L44 18L43 18L43 19L42 19L42 18L41 18L41 20L38 20L38 21L37 21L37 22L39 22L39 24L38 24L38 23L37 23L37 24L38 24L38 26L37 26L37 25L33 25L33 24L32 24L32 23L33 23L33 22L34 22L34 23L35 23L35 20L34 20L34 19L36 19L36 20L37 20L37 19L39 19L39 17L41 17L41 16L42 16L42 17L43 17L43 16L42 16L42 15L43 15L43 14L47 14L47 13L49 13L49 12L50 12L50 14L49 14L49 15L48 15L48 16L49 16L49 17L50 17L50 18L49 18L49 19L51 19L51 18L56 18L56 17L53 17L53 15L50 15L50 14L51 14L51 12L50 12L50 11L49 11L49 10L48 10L48 9L49 9L49 8L48 8L48 9L47 9L47 8L45 8L45 7L46 7L46 5L47 5L47 3L44 3L44 6L43 6L43 5L40 5L40 6L39 6L39 7L40 7L40 8L39 8L39 9L38 9L38 8L37 8L37 7L36 7L36 5L37 5L37 4L36 4L36 5L35 5L35 4L33 4L33 3L35 3L35 2L33 2L33 1ZM46 1L46 2L47 2L47 1ZM32 2L32 3L33 3L33 2ZM8 3L8 4L9 4L9 3ZM15 4L15 5L16 5L16 4ZM32 4L32 5L33 5L33 6L32 6L32 7L33 7L33 9L34 9L34 8L35 8L35 9L37 9L37 10L36 10L36 11L35 11L35 13L36 13L36 14L32 14L32 12L31 12L31 13L30 13L30 14L29 14L29 13L28 13L28 12L29 12L29 11L27 11L27 12L26 12L26 15L25 15L25 13L23 13L23 12L24 12L24 11L23 11L23 10L22 10L22 9L21 9L21 10L20 10L20 12L19 12L19 10L18 10L18 11L17 11L17 10L16 10L16 11L17 11L17 12L16 12L16 13L17 13L17 16L16 16L16 17L14 17L14 16L13 16L13 17L14 17L14 18L15 18L15 19L16 19L16 20L15 20L15 21L16 21L16 22L15 22L15 23L16 23L16 24L14 24L14 23L13 23L13 24L12 24L12 25L13 25L13 24L14 24L14 25L17 25L17 27L18 27L18 26L20 26L20 27L19 27L19 29L18 29L18 28L16 28L16 29L15 29L15 32L14 32L14 31L13 31L13 32L14 32L14 35L13 35L13 33L12 33L12 32L11 32L11 33L10 33L10 34L12 34L12 35L13 35L13 36L14 36L14 38L16 38L16 37L15 37L15 35L16 35L16 36L18 36L18 37L17 37L17 38L18 38L18 39L19 39L19 40L17 40L17 41L19 41L19 42L20 42L20 41L19 41L19 40L23 40L23 41L24 41L24 40L25 40L25 39L27 39L27 40L28 40L28 41L30 41L30 42L27 42L27 41L26 41L26 42L27 42L27 43L28 43L28 44L29 44L29 43L30 43L30 44L31 44L31 45L32 45L32 48L33 48L33 47L35 47L35 46L33 46L33 45L32 45L32 44L33 44L33 43L34 43L34 45L36 45L36 46L37 46L37 47L36 47L36 48L34 48L34 49L33 49L33 50L34 50L34 49L36 49L36 50L38 50L38 51L40 51L40 52L41 52L41 50L38 50L38 49L39 49L39 48L41 48L41 46L43 46L43 47L42 47L42 48L43 48L43 49L44 49L44 48L46 48L46 47L47 47L47 48L48 48L48 47L47 47L47 46L45 46L45 45L44 45L44 42L45 42L45 41L47 41L47 39L50 39L50 38L51 38L51 37L50 37L50 36L52 36L52 35L53 35L53 34L52 34L52 35L50 35L50 34L48 34L48 35L50 35L50 36L48 36L48 37L47 37L47 39L46 39L46 38L45 38L45 37L46 37L46 36L47 36L47 34L45 34L45 33L43 33L43 32L41 32L41 33L39 33L39 34L40 34L40 35L39 35L39 36L38 36L38 37L37 37L37 36L35 36L35 35L34 35L34 36L33 36L33 33L35 33L35 34L37 34L37 35L38 35L38 33L37 33L37 32L33 32L33 33L32 33L32 31L36 31L36 29L38 29L38 28L42 28L42 26L43 26L43 27L44 27L44 28L43 28L43 29L39 29L39 30L38 30L38 32L39 32L39 31L41 31L41 30L43 30L43 29L44 29L44 28L45 28L45 26L44 26L44 24L43 24L43 23L44 23L44 20L43 20L43 21L39 21L39 22L40 22L40 24L39 24L39 25L40 25L40 24L41 24L41 26L39 26L39 27L36 27L36 26L34 26L34 27L33 27L33 26L32 26L32 24L29 24L29 25L28 25L28 26L26 26L26 25L25 25L25 24L27 24L27 23L30 23L30 22L31 22L31 21L32 21L32 20L33 20L33 19L31 19L31 20L30 20L30 18L32 18L32 15L33 15L33 16L35 16L35 17L37 17L37 18L38 18L38 17L39 17L39 16L41 16L41 14L43 14L43 13L44 13L44 11L45 11L45 12L49 12L49 11L48 11L48 10L46 10L46 11L45 11L45 9L44 9L44 7L45 7L45 6L44 6L44 7L43 7L43 6L42 6L42 7L41 7L41 6L40 6L40 7L41 7L41 8L42 8L42 9L41 9L41 10L42 10L42 11L43 11L43 13L40 13L40 14L38 14L38 13L39 13L39 10L40 10L40 9L39 9L39 10L38 10L38 9L37 9L37 8L35 8L35 5L33 5L33 4ZM45 4L45 5L46 5L46 4ZM8 5L8 7L9 7L9 5ZM27 5L27 8L30 8L30 5ZM13 6L13 7L14 7L14 6ZM21 6L21 7L22 7L22 6ZM28 6L28 7L29 7L29 6ZM33 6L33 7L34 7L34 6ZM16 7L16 8L17 8L17 7ZM0 8L0 9L1 9L1 10L3 10L3 9L4 9L4 10L5 10L5 8ZM55 8L55 9L56 9L56 8ZM43 9L43 10L44 10L44 9ZM9 10L9 11L10 11L10 10ZM21 10L21 11L22 11L22 10ZM32 10L32 11L33 11L33 10ZM37 10L37 11L38 11L38 10ZM6 11L6 12L7 12L7 11ZM40 11L40 12L41 12L41 11ZM17 12L17 13L18 13L18 12ZM20 12L20 15L19 15L19 14L18 14L18 15L19 15L19 17L20 17L20 18L19 18L19 20L20 20L20 21L18 21L18 17L16 17L16 19L17 19L17 20L16 20L16 21L18 21L18 22L17 22L17 24L19 24L19 25L20 25L20 26L21 26L21 25L24 25L24 24L25 24L25 23L26 23L26 22L25 22L25 21L24 21L24 20L23 20L23 19L24 19L24 18L23 18L23 19L20 19L20 18L22 18L22 17L25 17L25 18L26 18L26 21L29 21L29 22L30 22L30 21L29 21L29 19L28 19L28 18L27 18L27 17L28 17L28 16L29 16L29 14L28 14L28 13L27 13L27 15L26 15L26 17L25 17L25 16L23 16L23 15L24 15L24 14L23 14L23 13L22 13L22 12ZM33 12L33 13L34 13L34 12ZM52 12L52 13L53 13L53 12ZM54 12L54 14L56 14L56 13L55 13L55 12ZM6 13L6 14L7 14L7 13ZM21 13L21 15L20 15L20 16L21 16L21 17L22 17L22 16L21 16L21 15L23 15L23 14L22 14L22 13ZM4 14L4 15L5 15L5 14ZM30 14L30 15L31 15L31 14ZM37 14L37 15L35 15L35 16L37 16L37 17L38 17L38 16L39 16L39 15L38 15L38 14ZM27 15L27 16L28 16L28 15ZM49 15L49 16L50 16L50 15ZM21 20L21 21L22 21L22 22L21 22L21 24L20 24L20 25L21 25L21 24L24 24L24 23L23 23L23 22L24 22L24 21L22 21L22 20ZM13 21L13 22L14 22L14 21ZM49 21L49 22L48 22L48 24L49 24L49 23L50 23L50 24L51 24L51 25L50 25L50 26L52 26L52 25L53 25L53 23L50 23L50 22L51 22L51 21ZM6 22L6 23L7 23L7 22ZM19 22L19 23L20 23L20 22ZM41 22L41 23L43 23L43 22ZM8 23L8 24L9 24L9 23ZM55 25L55 26L56 26L56 25ZM15 26L15 27L16 27L16 26ZM22 26L22 27L21 27L21 28L22 28L22 29L20 29L20 30L19 30L19 31L20 31L20 36L19 36L19 37L18 37L18 38L19 38L19 39L20 39L20 38L19 38L19 37L23 37L23 38L24 38L24 37L23 37L23 36L24 36L24 34L23 34L23 33L25 33L25 35L26 35L26 37L25 37L25 38L27 38L27 39L28 39L28 40L32 40L32 41L31 41L31 42L32 42L32 43L31 43L31 44L32 44L32 43L33 43L33 42L34 42L34 43L35 43L35 44L36 44L36 43L37 43L37 42L35 42L35 40L38 40L38 42L39 42L39 45L38 45L38 46L39 46L39 47L38 47L38 48L37 48L37 49L38 49L38 48L39 48L39 47L40 47L40 46L39 46L39 45L41 45L41 44L42 44L42 42L40 42L40 41L42 41L42 40L44 40L44 41L43 41L43 42L44 42L44 41L45 41L45 40L44 40L44 39L45 39L45 38L44 38L44 37L45 37L45 36L46 36L46 35L45 35L45 34L42 34L42 35L41 35L41 36L40 36L40 37L38 37L38 39L35 39L35 40L33 40L33 39L29 39L29 38L31 38L31 37L29 37L29 36L30 36L30 34L29 34L29 33L31 33L31 31L32 31L32 30L35 30L35 28L36 28L36 27L35 27L35 28L33 28L33 27L32 27L32 26L31 26L31 28L32 28L32 29L31 29L31 31L30 31L30 32L29 32L29 31L27 31L27 32L26 32L26 33L25 33L25 32L24 32L24 31L25 31L25 30L24 30L24 31L23 31L23 28L24 28L24 26ZM25 26L25 27L26 27L26 26ZM53 26L53 27L54 27L54 26ZM5 27L5 30L8 30L8 27ZM9 27L9 28L10 28L10 29L11 29L11 28L10 28L10 27ZM27 27L27 30L30 30L30 27ZM49 27L49 30L52 30L52 27ZM6 28L6 29L7 29L7 28ZM25 28L25 29L26 29L26 28ZM28 28L28 29L29 29L29 28ZM50 28L50 29L51 29L51 28ZM16 29L16 30L18 30L18 29ZM53 29L53 30L54 30L54 31L55 31L55 30L54 30L54 29ZM21 31L21 32L23 32L23 31ZM47 31L47 32L48 32L48 33L49 33L49 32L48 32L48 31ZM28 32L28 33L29 33L29 32ZM15 33L15 34L16 34L16 35L18 35L18 34L19 34L19 33L18 33L18 34L17 34L17 33ZM21 33L21 34L22 34L22 33ZM26 34L26 35L27 35L27 34ZM31 34L31 35L32 35L32 34ZM4 35L4 37L5 37L5 35ZM21 35L21 36L22 36L22 35ZM42 35L42 36L41 36L41 37L40 37L40 38L41 38L41 39L42 39L42 38L43 38L43 37L44 37L44 36L45 36L45 35L44 35L44 36L43 36L43 35ZM6 36L6 37L8 37L8 36ZM32 36L32 37L33 37L33 38L35 38L35 37L33 37L33 36ZM42 36L42 37L43 37L43 36ZM27 37L27 38L28 38L28 37ZM48 37L48 38L50 38L50 37ZM5 39L5 40L4 40L4 41L6 41L6 40L8 40L8 39ZM15 39L15 40L14 40L14 41L16 41L16 39ZM23 39L23 40L24 40L24 39ZM38 39L38 40L39 40L39 39ZM2 40L2 41L3 41L3 40ZM21 41L21 42L22 42L22 41ZM32 41L32 42L33 42L33 41ZM51 42L51 43L53 43L53 42ZM4 43L4 44L5 44L5 45L4 45L4 46L3 46L3 45L2 45L2 44L1 44L1 45L2 45L2 46L1 46L1 47L2 47L2 46L3 46L3 47L5 47L5 46L7 46L7 47L8 47L8 45L6 45L6 44L5 44L5 43ZM12 43L12 44L10 44L10 45L9 45L9 46L10 46L10 49L11 49L11 47L12 47L12 50L11 50L11 51L12 51L12 53L13 53L13 54L11 54L11 53L9 53L9 54L10 54L10 55L9 55L9 56L10 56L10 55L14 55L14 53L15 53L15 54L16 54L16 53L17 53L17 51L16 51L16 50L21 50L21 49L23 49L23 47L21 47L21 49L15 49L15 48L17 48L17 45L18 45L18 44L17 44L17 45L16 45L16 44L14 44L14 45L12 45L12 44L13 44L13 43ZM40 43L40 44L41 44L41 43ZM55 43L55 44L54 44L54 45L55 45L55 46L56 46L56 43ZM11 45L11 46L12 46L12 47L13 47L13 46L12 46L12 45ZM14 45L14 48L15 48L15 47L16 47L16 46L15 46L15 45ZM44 46L44 47L43 47L43 48L44 48L44 47L45 47L45 46ZM29 47L29 48L30 48L30 47ZM53 48L53 49L56 49L56 48ZM13 49L13 50L12 50L12 51L13 51L13 53L14 53L14 51L13 51L13 50L15 50L15 49ZM27 49L27 52L30 52L30 49ZM49 49L49 52L52 52L52 49ZM28 50L28 51L29 51L29 50ZM50 50L50 51L51 51L51 50ZM54 50L54 51L55 51L55 50ZM15 51L15 53L16 53L16 51ZM19 51L19 52L20 52L20 51ZM38 52L38 53L39 53L39 52ZM53 52L53 53L54 53L54 52ZM24 53L24 54L23 54L23 55L24 55L24 56L26 56L26 54L25 54L25 53ZM41 54L41 55L42 55L42 56L43 56L43 55L42 55L42 54ZM17 55L17 56L18 56L18 55ZM50 55L50 56L51 56L51 55ZM0 0L0 7L7 7L7 0ZM1 1L1 6L6 6L6 1ZM2 2L2 5L5 5L5 2ZM50 0L50 7L57 7L57 0ZM51 1L51 6L56 6L56 1ZM52 2L52 5L55 5L55 2ZM0 50L0 57L7 57L7 50ZM1 51L1 56L6 56L6 51ZM2 52L2 55L5 55L5 52Z" fill="#000000"/></g></g></svg>
