<?xml version="1.0" encoding="UTF-8"?>
<svg xmlns="http://www.w3.org/2000/svg" version="1.1" width="300" height="300" viewBox="0 0 300 300"><rect x="0" y="0" width="300" height="300" fill="#fefefe"/><g transform="scale(4.615)"><g transform="translate(4,4)"><path fill-rule="evenodd" d="M8 0L8 2L9 2L9 3L11 3L11 5L10 5L10 4L8 4L8 9L9 9L9 10L8 10L8 13L7 13L7 12L6 12L6 13L7 13L7 14L5 14L5 11L7 11L7 10L6 10L6 9L7 9L7 8L5 8L5 9L3 9L3 8L0 8L0 9L2 9L2 10L1 10L1 12L2 12L2 13L3 13L3 14L2 14L2 15L1 15L1 16L0 16L0 20L1 20L1 19L2 19L2 22L3 22L3 23L2 23L2 24L3 24L3 25L2 25L2 26L0 26L0 27L4 27L4 29L3 29L3 30L4 30L4 31L2 31L2 30L1 30L1 29L2 29L2 28L1 28L1 29L0 29L0 31L2 31L2 33L1 33L1 35L0 35L0 41L1 41L1 42L0 42L0 43L1 43L1 42L2 42L2 41L4 41L4 42L3 42L3 43L2 43L2 44L0 44L0 48L5 48L5 47L8 47L8 46L9 46L9 48L8 48L8 50L9 50L9 51L8 51L8 52L9 52L9 51L11 51L11 50L13 50L13 49L14 49L14 48L15 48L15 51L14 51L14 52L13 52L13 54L14 54L14 56L16 56L16 57L17 57L17 56L18 56L18 57L20 57L20 56L19 56L19 55L18 55L18 54L19 54L19 52L18 52L18 54L17 54L17 52L16 52L16 51L17 51L17 50L16 50L16 47L17 47L17 48L18 48L18 50L19 50L19 51L20 51L20 53L21 53L21 54L20 54L20 55L21 55L21 56L22 56L22 57L25 57L25 55L26 55L26 57L28 57L28 55L29 55L29 57L33 57L33 55L30 55L30 54L31 54L31 53L32 53L32 54L34 54L34 57L35 57L35 55L38 55L38 47L37 47L37 48L36 48L36 49L37 49L37 51L35 51L35 50L34 50L34 49L35 49L35 47L36 47L36 46L38 46L38 45L37 45L37 44L39 44L39 43L37 43L37 44L36 44L36 45L35 45L35 47L34 47L34 45L33 45L33 44L35 44L35 43L36 43L36 41L37 41L37 42L38 42L38 41L39 41L39 38L40 38L40 39L41 39L41 40L40 40L40 41L41 41L41 42L40 42L40 46L39 46L39 47L40 47L40 49L39 49L39 52L40 52L40 53L39 53L39 55L40 55L40 54L42 54L42 55L41 55L41 56L40 56L40 57L41 57L41 56L43 56L43 54L42 54L42 52L41 52L41 51L43 51L43 52L44 52L44 55L45 55L45 56L44 56L44 57L45 57L45 56L46 56L46 55L47 55L47 57L50 57L50 55L49 55L49 54L52 54L52 55L53 55L53 54L54 54L54 55L57 55L57 54L54 54L54 53L56 53L56 52L57 52L57 49L56 49L56 47L57 47L57 44L56 44L56 47L55 47L55 48L54 48L54 47L53 47L53 48L52 48L52 46L51 46L51 44L52 44L52 40L51 40L51 38L52 38L52 37L53 37L53 38L54 38L54 37L55 37L55 38L57 38L57 34L56 34L56 36L54 36L54 34L53 34L53 36L52 36L52 37L51 37L51 33L50 33L50 32L51 32L51 31L53 31L53 32L54 32L54 33L56 33L56 31L57 31L57 29L56 29L56 28L57 28L57 24L56 24L56 23L57 23L57 21L56 21L56 20L57 20L57 18L56 18L56 20L55 20L55 21L54 21L54 19L55 19L55 16L56 16L56 17L57 17L57 13L56 13L56 15L55 15L55 13L54 13L54 14L53 14L53 12L54 12L54 11L55 11L55 9L57 9L57 8L55 8L55 9L54 9L54 10L53 10L53 8L49 8L49 6L48 6L48 7L47 7L47 5L48 5L48 0L42 0L42 1L41 1L41 0L38 0L38 2L37 2L37 1L35 1L35 0L34 0L34 2L33 2L33 0L32 0L32 1L31 1L31 0L29 0L29 1L28 1L28 0L26 0L26 2L25 2L25 4L24 4L24 1L25 1L25 0L24 0L24 1L23 1L23 0L19 0L19 1L20 1L20 3L21 3L21 5L20 5L20 7L19 7L19 4L18 4L18 3L19 3L19 2L18 2L18 3L17 3L17 2L16 2L16 3L15 3L15 0L14 0L14 3L13 3L13 0L10 0L10 1L12 1L12 3L11 3L11 2L9 2L9 0ZM16 0L16 1L17 1L17 0ZM22 1L22 2L21 2L21 3L22 3L22 5L21 5L21 9L20 9L20 10L19 10L19 9L18 9L18 8L19 8L19 7L18 7L18 6L17 6L17 5L18 5L18 4L17 4L17 3L16 3L16 4L17 4L17 5L16 5L16 6L15 6L15 5L14 5L14 6L13 6L13 4L12 4L12 6L11 6L11 7L12 7L12 6L13 6L13 7L14 7L14 6L15 6L15 9L14 9L14 8L12 8L12 9L10 9L10 10L12 10L12 11L11 11L11 13L8 13L8 14L11 14L11 15L9 15L9 16L10 16L10 17L9 17L9 19L10 19L10 20L11 20L11 19L12 19L12 22L11 22L11 21L9 21L9 20L8 20L8 21L6 21L6 22L4 22L4 21L5 21L5 19L4 19L4 18L3 18L3 17L5 17L5 18L7 18L7 19L6 19L6 20L7 20L7 19L8 19L8 17L6 17L6 16L8 16L8 15L6 15L6 16L5 16L5 15L4 15L4 14L3 14L3 16L1 16L1 17L2 17L2 18L3 18L3 19L4 19L4 20L3 20L3 22L4 22L4 24L5 24L5 25L4 25L4 26L9 26L9 25L10 25L10 26L11 26L11 29L10 29L10 27L9 27L9 30L13 30L13 29L14 29L14 31L11 31L11 32L9 32L9 31L6 31L6 32L5 32L5 33L6 33L6 34L8 34L8 33L11 33L11 34L10 34L10 35L13 35L13 34L14 34L14 33L16 33L16 34L15 34L15 35L16 35L16 34L17 34L17 33L16 33L16 31L19 31L19 29L20 29L20 30L21 30L21 31L20 31L20 36L21 36L21 38L20 38L20 39L21 39L21 41L20 41L20 43L18 43L18 44L20 44L20 46L19 46L19 45L18 45L18 46L19 46L19 47L18 47L18 48L19 48L19 49L20 49L20 51L22 51L22 52L24 52L24 51L25 51L25 53L26 53L26 55L28 55L28 53L26 53L26 51L25 51L25 49L26 49L26 48L27 48L27 46L26 46L26 45L24 45L24 44L25 44L25 43L24 43L24 42L26 42L26 41L25 41L25 40L26 40L26 39L27 39L27 40L28 40L28 42L27 42L27 43L28 43L28 42L29 42L29 43L30 43L30 45L28 45L28 44L27 44L27 45L28 45L28 46L29 46L29 47L28 47L28 48L31 48L31 52L32 52L32 48L34 48L34 47L30 47L30 46L31 46L31 43L32 43L32 40L33 40L33 41L34 41L34 42L35 42L35 41L36 41L36 38L37 38L37 41L38 41L38 38L39 38L39 36L40 36L40 35L42 35L42 36L41 36L41 39L42 39L42 40L41 40L41 41L42 41L42 42L43 42L43 43L41 43L41 45L42 45L42 47L41 47L41 46L40 46L40 47L41 47L41 49L40 49L40 51L41 51L41 49L42 49L42 50L44 50L44 51L45 51L45 49L46 49L46 50L47 50L47 44L46 44L46 47L45 47L45 49L44 49L44 46L43 46L43 45L44 45L44 44L45 44L45 43L46 43L46 42L47 42L47 43L48 43L48 42L49 42L49 44L50 44L50 42L49 42L49 41L51 41L51 40L48 40L48 39L49 39L49 38L47 38L47 36L48 36L48 37L49 37L49 36L50 36L50 33L49 33L49 36L48 36L48 35L47 35L47 34L48 34L48 33L46 33L46 32L47 32L47 30L48 30L48 29L47 29L47 28L48 28L48 26L49 26L49 24L50 24L50 23L51 23L51 22L52 22L52 24L51 24L51 25L50 25L50 26L52 26L52 24L53 24L53 25L54 25L54 26L55 26L55 27L54 27L54 28L53 28L53 29L54 29L54 32L55 32L55 31L56 31L56 30L55 30L55 28L56 28L56 24L55 24L55 23L56 23L56 21L55 21L55 22L54 22L54 24L53 24L53 22L52 22L52 20L53 20L53 19L54 19L54 16L55 16L55 15L54 15L54 16L53 16L53 17L52 17L52 19L51 19L51 20L49 20L49 19L50 19L50 18L51 18L51 14L52 14L52 15L53 15L53 14L52 14L52 13L50 13L50 10L51 10L51 12L52 12L52 10L51 10L51 9L50 9L50 10L49 10L49 8L48 8L48 10L49 10L49 11L47 11L47 9L46 9L46 8L47 8L47 7L46 7L46 6L45 6L45 5L44 5L44 4L45 4L45 1L42 1L42 2L40 2L40 1L39 1L39 2L38 2L38 3L37 3L37 2L34 2L34 3L33 3L33 2L32 2L32 5L31 5L31 9L30 9L30 10L29 10L29 9L27 9L27 10L25 10L25 9L26 9L26 5L24 5L24 6L23 6L23 8L24 8L24 11L23 11L23 9L22 9L22 5L23 5L23 1ZM27 1L27 3L26 3L26 4L31 4L31 3L30 3L30 2L28 2L28 1ZM46 1L46 2L47 2L47 1ZM39 2L39 4L38 4L38 5L37 5L37 6L36 6L36 10L34 10L34 9L35 9L35 4L36 4L36 3L34 3L34 8L32 8L32 9L31 9L31 10L30 10L30 12L29 12L29 11L28 11L28 10L27 10L27 11L28 11L28 12L27 12L27 14L26 14L26 11L24 11L24 12L23 12L23 11L22 11L22 12L23 12L23 15L24 15L24 13L25 13L25 14L26 14L26 15L25 15L25 16L26 16L26 17L25 17L25 18L24 18L24 16L22 16L22 14L20 14L20 12L21 12L21 11L20 11L20 12L18 12L18 11L19 11L19 10L16 10L16 9L15 9L15 10L16 10L16 11L17 11L17 14L15 14L15 15L14 15L14 14L13 14L13 13L11 13L11 14L13 14L13 15L14 15L14 17L13 17L13 16L12 16L12 17L10 17L10 18L12 18L12 19L13 19L13 22L12 22L12 23L11 23L11 22L9 22L9 21L8 21L8 22L6 22L6 23L7 23L7 24L6 24L6 25L7 25L7 24L8 24L8 25L9 25L9 24L10 24L10 25L11 25L11 26L13 26L13 27L14 27L14 26L16 26L16 25L17 25L17 24L18 24L18 25L19 25L19 27L18 27L18 28L19 28L19 27L20 27L20 24L19 24L19 22L18 22L18 23L16 23L16 22L17 22L17 19L16 19L16 17L17 17L17 16L18 16L18 19L19 19L19 20L18 20L18 21L19 21L19 20L20 20L20 21L21 21L21 22L20 22L20 23L21 23L21 24L22 24L22 25L21 25L21 28L20 28L20 29L21 29L21 30L22 30L22 33L23 33L23 35L25 35L25 36L24 36L24 37L26 37L26 38L27 38L27 37L26 37L26 34L24 34L24 32L23 32L23 30L24 30L24 29L25 29L25 30L26 30L26 32L25 32L25 33L26 33L26 32L28 32L28 31L30 31L30 32L29 32L29 34L28 34L28 33L27 33L27 34L28 34L28 35L27 35L27 36L28 36L28 37L29 37L29 36L28 36L28 35L31 35L31 36L30 36L30 40L31 40L31 38L34 38L34 37L35 37L35 38L36 38L36 37L37 37L37 38L38 38L38 37L37 37L37 36L38 36L38 35L39 35L39 34L38 34L38 33L39 33L39 32L40 32L40 34L42 34L42 33L43 33L43 35L44 35L44 38L43 38L43 39L44 39L44 42L46 42L46 40L47 40L47 41L48 41L48 40L47 40L47 38L46 38L46 37L45 37L45 36L46 36L46 33L45 33L45 31L46 31L46 30L45 30L45 29L46 29L46 28L47 28L47 26L46 26L46 25L47 25L47 23L46 23L46 25L45 25L45 24L44 24L44 25L43 25L43 22L44 22L44 23L45 23L45 22L46 22L46 21L47 21L47 22L48 22L48 24L49 24L49 23L50 23L50 22L48 22L48 19L49 19L49 18L50 18L50 16L49 16L49 15L50 15L50 13L49 13L49 14L48 14L48 12L47 12L47 11L46 11L46 13L45 13L45 12L44 12L44 13L45 13L45 16L44 16L44 14L43 14L43 16L44 16L44 17L43 17L43 18L42 18L42 17L41 17L41 15L42 15L42 12L43 12L43 10L46 10L46 9L45 9L45 8L46 8L46 7L45 7L45 6L44 6L44 5L43 5L43 4L44 4L44 2L43 2L43 4L42 4L42 3L41 3L41 4L42 4L42 5L41 5L41 6L40 6L40 7L39 7L39 6L38 6L38 5L39 5L39 4L40 4L40 2ZM14 3L14 4L15 4L15 3ZM46 3L46 5L47 5L47 3ZM27 5L27 8L30 8L30 5ZM9 6L9 8L10 8L10 6ZM16 6L16 7L17 7L17 8L18 8L18 7L17 7L17 6ZM24 6L24 7L25 7L25 6ZM28 6L28 7L29 7L29 6ZM32 6L32 7L33 7L33 6ZM37 6L37 9L38 9L38 10L37 10L37 11L36 11L36 12L35 12L35 11L34 11L34 10L33 10L33 9L32 9L32 12L30 12L30 13L29 13L29 15L28 15L28 14L27 14L27 15L26 15L26 16L27 16L27 19L26 19L26 18L25 18L25 19L24 19L24 20L25 20L25 19L26 19L26 20L27 20L27 22L26 22L26 23L27 23L27 22L28 22L28 23L29 23L29 24L30 24L30 26L31 26L31 25L32 25L32 28L31 28L31 29L32 29L32 28L33 28L33 29L34 29L34 31L33 31L33 32L34 32L34 34L35 34L35 33L36 33L36 35L35 35L35 37L36 37L36 35L38 35L38 34L37 34L37 33L36 33L36 31L37 31L37 32L38 32L38 31L39 31L39 30L40 30L40 32L41 32L41 33L42 33L42 31L45 31L45 30L44 30L44 27L46 27L46 26L44 26L44 27L43 27L43 25L42 25L42 22L43 22L43 21L44 21L44 22L45 22L45 21L46 21L46 19L47 19L47 17L46 17L46 18L45 18L45 17L44 17L44 19L43 19L43 20L42 20L42 19L41 19L41 18L40 18L40 15L41 15L41 14L40 14L40 15L39 15L39 13L40 13L40 12L37 12L37 11L40 11L40 10L39 10L39 9L40 9L40 8L41 8L41 7L42 7L42 8L43 8L43 9L42 9L42 10L43 10L43 9L44 9L44 8L45 8L45 7L44 7L44 6L43 6L43 7L42 7L42 6L41 6L41 7L40 7L40 8L39 8L39 9L38 9L38 6ZM12 9L12 10L14 10L14 9ZM3 10L3 11L4 11L4 10ZM56 10L56 11L57 11L57 10ZM12 11L12 12L13 12L13 11ZM14 11L14 12L15 12L15 11ZM33 11L33 12L32 12L32 13L31 13L31 15L32 15L32 18L31 18L31 19L30 19L30 21L29 21L29 20L28 20L28 19L27 19L27 20L28 20L28 22L29 22L29 23L30 23L30 24L31 24L31 23L32 23L32 25L33 25L33 26L34 26L34 24L36 24L36 26L37 26L37 28L36 28L36 27L34 27L34 29L35 29L35 30L36 30L36 29L37 29L37 28L38 28L38 29L39 29L39 27L40 27L40 30L41 30L41 31L42 31L42 28L43 28L43 27L40 27L40 25L41 25L41 26L42 26L42 25L41 25L41 23L39 23L39 22L38 22L38 20L39 20L39 19L40 19L40 22L42 22L42 20L41 20L41 19L40 19L40 18L38 18L38 16L37 16L37 15L38 15L38 13L37 13L37 12L36 12L36 13L37 13L37 14L36 14L36 18L34 18L34 17L35 17L35 15L34 15L34 13L35 13L35 12L34 12L34 11ZM41 11L41 12L42 12L42 11ZM3 12L3 13L4 13L4 12ZM0 13L0 14L1 14L1 13ZM18 13L18 14L19 14L19 15L20 15L20 16L19 16L19 17L20 17L20 18L19 18L19 19L21 19L21 17L20 17L20 16L21 16L21 15L20 15L20 14L19 14L19 13ZM32 13L32 15L33 15L33 17L34 17L34 15L33 15L33 13ZM46 13L46 16L47 16L47 15L48 15L48 14L47 14L47 13ZM15 15L15 17L14 17L14 18L15 18L15 17L16 17L16 16L17 16L17 15ZM29 15L29 16L30 16L30 17L28 17L28 18L30 18L30 17L31 17L31 16L30 16L30 15ZM48 17L48 18L49 18L49 17ZM33 18L33 21L32 21L32 20L31 20L31 21L30 21L30 23L31 23L31 22L33 22L33 24L34 24L34 22L35 22L35 23L36 23L36 24L37 24L37 25L38 25L38 26L39 26L39 25L40 25L40 24L39 24L39 25L38 25L38 22L37 22L37 21L36 21L36 20L34 20L34 18ZM36 18L36 19L37 19L37 20L38 20L38 19L37 19L37 18ZM14 19L14 20L16 20L16 19ZM44 19L44 21L45 21L45 19ZM21 20L21 21L22 21L22 20ZM14 21L14 22L13 22L13 23L12 23L12 24L11 24L11 25L16 25L16 24L15 24L15 21ZM33 21L33 22L34 22L34 21ZM35 21L35 22L36 22L36 23L37 23L37 22L36 22L36 21ZM8 22L8 23L9 23L9 22ZM22 22L22 24L23 24L23 25L24 25L24 26L23 26L23 27L22 27L22 28L23 28L23 29L22 29L22 30L23 30L23 29L24 29L24 28L25 28L25 27L24 27L24 26L25 26L25 25L24 25L24 24L23 24L23 22ZM24 22L24 23L25 23L25 22ZM0 23L0 25L1 25L1 23ZM13 23L13 24L14 24L14 23ZM54 24L54 25L55 25L55 24ZM26 25L26 26L27 26L27 25ZM5 27L5 30L8 30L8 27ZM15 27L15 28L16 28L16 27ZM27 27L27 30L30 30L30 27ZM49 27L49 30L52 30L52 27ZM6 28L6 29L7 29L7 28ZM28 28L28 29L29 29L29 28ZM35 28L35 29L36 29L36 28ZM50 28L50 29L51 29L51 28ZM15 30L15 31L14 31L14 32L15 32L15 31L16 31L16 30ZM37 30L37 31L38 31L38 30ZM31 31L31 32L30 32L30 34L32 34L32 35L33 35L33 37L34 37L34 35L33 35L33 33L32 33L32 31ZM34 31L34 32L35 32L35 31ZM49 31L49 32L50 32L50 31ZM3 32L3 33L2 33L2 34L3 34L3 37L2 37L2 38L1 38L1 39L2 39L2 40L1 40L1 41L2 41L2 40L3 40L3 38L5 38L5 37L4 37L4 34L3 34L3 33L4 33L4 32ZM6 32L6 33L7 33L7 32ZM12 32L12 33L13 33L13 32ZM18 34L18 35L17 35L17 37L16 37L16 36L12 36L12 38L11 38L11 36L8 36L8 35L5 35L5 36L8 36L8 37L6 37L6 38L7 38L7 39L5 39L5 40L4 40L4 41L5 41L5 43L4 43L4 44L3 44L3 45L4 45L4 46L3 46L3 47L5 47L5 45L4 45L4 44L5 44L5 43L6 43L6 44L7 44L7 43L8 43L8 45L6 45L6 46L8 46L8 45L9 45L9 46L10 46L10 47L11 47L11 46L12 46L12 47L13 47L13 48L9 48L9 49L13 49L13 48L14 48L14 47L15 47L15 46L12 46L12 45L13 45L13 44L11 44L11 43L9 43L9 42L10 42L10 41L11 41L11 42L12 42L12 38L14 38L14 40L13 40L13 42L14 42L14 41L15 41L15 40L17 40L17 41L16 41L16 43L15 43L15 44L14 44L14 45L16 45L16 46L17 46L17 44L16 44L16 43L17 43L17 42L18 42L18 39L19 39L19 38L18 38L18 35L19 35L19 34ZM21 34L21 35L22 35L22 34ZM22 36L22 37L23 37L23 36ZM31 36L31 37L32 37L32 36ZM42 36L42 37L43 37L43 36ZM53 36L53 37L54 37L54 36ZM9 37L9 38L8 38L8 39L7 39L7 40L6 40L6 41L7 41L7 40L8 40L8 41L9 41L9 40L11 40L11 39L9 39L9 38L10 38L10 37ZM50 37L50 38L51 38L51 37ZM16 38L16 39L17 39L17 38ZM21 38L21 39L22 39L22 41L21 41L21 42L22 42L22 41L23 41L23 39L22 39L22 38ZM24 38L24 39L25 39L25 38ZM28 38L28 39L29 39L29 38ZM34 39L34 41L35 41L35 39ZM45 39L45 40L46 40L46 39ZM53 39L53 40L54 40L54 41L53 41L53 44L54 44L54 43L55 43L55 42L56 42L56 43L57 43L57 42L56 42L56 41L57 41L57 40L54 40L54 39ZM29 41L29 42L30 42L30 43L31 43L31 42L30 42L30 41ZM54 41L54 42L55 42L55 41ZM6 42L6 43L7 43L7 42ZM20 43L20 44L21 44L21 43ZM22 43L22 44L24 44L24 43ZM9 44L9 45L10 45L10 46L11 46L11 45L10 45L10 44ZM42 44L42 45L43 45L43 44ZM1 45L1 47L2 47L2 45ZM23 45L23 47L24 47L24 48L25 48L25 47L26 47L26 46L25 46L25 47L24 47L24 45ZM32 45L32 46L33 46L33 45ZM48 45L48 46L49 46L49 45ZM53 45L53 46L54 46L54 45ZM20 46L20 47L21 47L21 48L20 48L20 49L21 49L21 48L22 48L22 50L23 50L23 51L24 51L24 49L23 49L23 48L22 48L22 46ZM6 48L6 49L7 49L7 48ZM53 48L53 49L54 49L54 50L53 50L53 51L54 51L54 52L56 52L56 51L55 51L55 49L54 49L54 48ZM27 49L27 52L30 52L30 49ZM49 49L49 52L52 52L52 49ZM28 50L28 51L29 51L29 50ZM33 50L33 52L34 52L34 54L35 54L35 53L36 53L36 54L37 54L37 53L36 53L36 52L34 52L34 50ZM50 50L50 51L51 51L51 50ZM47 51L47 52L46 52L46 54L45 54L45 55L46 55L46 54L47 54L47 55L48 55L48 56L49 56L49 55L48 55L48 54L49 54L49 53L47 53L47 52L48 52L48 51ZM10 52L10 53L9 53L9 54L8 54L8 57L9 57L9 54L10 54L10 55L12 55L12 56L11 56L11 57L13 57L13 55L12 55L12 53L11 53L11 52ZM10 53L10 54L11 54L11 53ZM14 53L14 54L15 54L15 53ZM16 54L16 55L17 55L17 54ZM22 54L22 56L23 56L23 54ZM24 54L24 55L25 55L25 54ZM36 56L36 57L37 57L37 56ZM51 56L51 57L53 57L53 56ZM56 56L56 57L57 57L57 56ZM0 0L0 7L7 7L7 0ZM1 1L1 6L6 6L6 1ZM2 2L2 5L5 5L5 2ZM50 0L50 7L57 7L57 0ZM51 1L51 6L56 6L56 1ZM52 2L52 5L55 5L55 2ZM0 50L0 57L7 57L7 50ZM1 51L1 56L6 56L6 51ZM2 52L2 55L5 55L5 52Z" fill="#000000"/></g></g></svg>
