<?xml version="1.0" encoding="UTF-8"?>
<svg xmlns="http://www.w3.org/2000/svg" version="1.1" width="300" height="300" viewBox="0 0 300 300"><rect x="0" y="0" width="300" height="300" fill="#fefefe"/><g transform="scale(4.615)"><g transform="translate(4,4)"><path fill-rule="evenodd" d="M8 0L8 2L11 2L11 3L9 3L9 4L8 4L8 9L9 9L9 5L10 5L10 4L11 4L11 5L12 5L12 9L10 9L10 10L13 10L13 6L14 6L14 7L15 7L15 6L16 6L16 7L17 7L17 6L16 6L16 5L18 5L18 9L17 9L17 14L15 14L15 15L13 15L13 16L12 16L12 15L11 15L11 17L12 17L12 18L11 18L11 19L10 19L10 20L9 20L9 18L10 18L10 14L8 14L8 13L9 13L9 12L10 12L10 13L11 13L11 14L13 14L13 13L12 13L12 12L11 12L11 11L9 11L9 10L8 10L8 13L7 13L7 12L6 12L6 13L5 13L5 14L6 14L6 15L7 15L7 14L8 14L8 16L9 16L9 18L8 18L8 17L7 17L7 16L5 16L5 17L7 17L7 18L6 18L6 19L7 19L7 18L8 18L8 20L6 20L6 21L4 21L4 20L5 20L5 19L3 19L3 20L2 20L2 18L4 18L4 16L3 16L3 14L2 14L2 16L0 16L0 21L1 21L1 22L2 22L2 23L3 23L3 25L2 25L2 24L1 24L1 26L0 26L0 28L3 28L3 30L2 30L2 29L0 29L0 35L1 35L1 40L4 40L4 41L0 41L0 45L1 45L1 46L0 46L0 48L5 48L5 47L7 47L7 48L6 48L6 49L7 49L7 48L9 48L9 47L10 47L10 46L11 46L11 48L12 48L12 46L14 46L14 47L13 47L13 48L16 48L16 49L13 49L13 50L12 50L12 49L11 49L11 50L9 50L9 49L8 49L8 50L9 50L9 51L8 51L8 52L12 52L12 51L13 51L13 50L14 50L14 52L15 52L15 54L14 54L14 53L12 53L12 55L11 55L11 53L9 53L9 54L8 54L8 57L9 57L9 56L10 56L10 57L11 57L11 56L12 56L12 55L13 55L13 57L14 57L14 55L15 55L15 57L17 57L17 56L18 56L18 57L19 57L19 56L18 56L18 55L19 55L19 54L18 54L18 53L19 53L19 51L20 51L20 53L21 53L21 51L20 51L20 48L22 48L22 51L24 51L24 52L22 52L22 54L20 54L20 55L21 55L21 56L22 56L22 57L25 57L25 55L24 55L24 54L25 54L25 51L26 51L26 55L27 55L27 56L26 56L26 57L28 57L28 55L29 55L29 57L33 57L33 55L30 55L30 54L31 54L31 53L32 53L32 54L34 54L34 57L35 57L35 55L37 55L37 54L38 54L38 53L37 53L37 52L38 52L38 47L37 47L37 48L36 48L36 49L37 49L37 51L35 51L35 50L34 50L34 49L33 49L33 47L34 47L34 48L35 48L35 47L36 47L36 46L35 46L35 47L34 47L34 45L33 45L33 44L35 44L35 43L36 43L36 41L37 41L37 42L38 42L38 41L39 41L39 42L40 42L40 41L41 41L41 43L40 43L40 46L39 46L39 47L40 47L40 49L39 49L39 52L40 52L40 53L39 53L39 55L40 55L40 57L42 57L42 56L43 56L43 54L42 54L42 53L43 53L43 52L44 52L44 55L45 55L45 56L44 56L44 57L50 57L50 55L49 55L49 54L52 54L52 55L53 55L53 53L54 53L54 55L57 55L57 54L55 54L55 52L54 52L54 51L53 51L53 50L54 50L54 49L55 49L55 51L57 51L57 49L56 49L56 47L57 47L57 44L56 44L56 47L55 47L55 45L53 45L53 46L52 46L52 45L51 45L51 44L52 44L52 39L53 39L53 44L54 44L54 43L55 43L55 42L54 42L54 41L56 41L56 43L57 43L57 40L54 40L54 39L53 39L53 38L54 38L54 37L55 37L55 38L57 38L57 33L56 33L56 31L57 31L57 29L56 29L56 28L57 28L57 24L56 24L56 23L57 23L57 21L56 21L56 23L55 23L55 21L54 21L54 19L55 19L55 18L56 18L56 19L57 19L57 10L56 10L56 11L55 11L55 9L57 9L57 8L55 8L55 9L54 9L54 10L53 10L53 8L48 8L48 7L49 7L49 6L48 6L48 7L47 7L47 5L48 5L48 0L42 0L42 1L41 1L41 0L38 0L38 2L37 2L37 1L35 1L35 0L34 0L34 8L32 8L32 9L31 9L31 5L32 5L32 2L33 2L33 1L32 1L32 0L30 0L30 1L32 1L32 2L31 2L31 3L30 3L30 2L29 2L29 1L28 1L28 2L29 2L29 3L30 3L30 4L28 4L28 3L27 3L27 0L24 0L24 1L23 1L23 0L20 0L20 2L18 2L18 1L19 1L19 0L18 0L18 1L17 1L17 0L16 0L16 1L17 1L17 2L16 2L16 3L15 3L15 0L10 0L10 1L9 1L9 0ZM11 1L11 2L12 2L12 3L11 3L11 4L12 4L12 5L13 5L13 4L12 4L12 3L14 3L14 4L15 4L15 3L14 3L14 1L13 1L13 2L12 2L12 1ZM24 1L24 4L25 4L25 1ZM39 1L39 2L40 2L40 4L39 4L39 3L37 3L37 2L35 2L35 3L36 3L36 4L35 4L35 9L34 9L34 10L33 10L33 9L32 9L32 11L34 11L34 12L35 12L35 13L34 13L34 15L33 15L33 13L32 13L32 12L30 12L30 11L29 11L29 12L30 12L30 13L29 13L29 15L28 15L28 14L27 14L27 12L28 12L28 9L27 9L27 10L25 10L25 9L26 9L26 5L24 5L24 6L23 6L23 3L22 3L22 2L21 2L21 3L18 3L18 2L17 2L17 3L16 3L16 4L17 4L17 3L18 3L18 5L19 5L19 7L20 7L20 5L22 5L22 6L21 6L21 9L20 9L20 8L19 8L19 9L18 9L18 10L19 10L19 11L18 11L18 12L19 12L19 13L18 13L18 14L17 14L17 15L15 15L15 16L17 16L17 15L18 15L18 16L20 16L20 18L17 18L17 17L16 17L16 20L17 20L17 22L16 22L16 23L18 23L18 22L19 22L19 24L20 24L20 26L21 26L21 23L22 23L22 24L23 24L23 25L24 25L24 26L23 26L23 27L22 27L22 28L24 28L24 30L23 30L23 29L22 29L22 30L21 30L21 27L20 27L20 28L18 28L18 27L19 27L19 25L18 25L18 24L17 24L17 25L16 25L16 24L13 24L13 23L14 23L14 22L15 22L15 21L14 21L14 22L12 22L12 21L13 21L13 20L10 20L10 22L12 22L12 24L13 24L13 25L14 25L14 26L11 26L11 28L10 28L10 25L11 25L11 24L10 24L10 25L9 25L9 31L8 31L8 32L9 32L9 33L8 33L8 35L5 35L5 34L7 34L7 33L5 33L5 32L7 32L7 31L4 31L4 30L3 30L3 32L2 32L2 33L1 33L1 35L3 35L3 36L2 36L2 37L3 37L3 36L4 36L4 38L2 38L2 39L4 39L4 40L5 40L5 41L6 41L6 42L8 42L8 43L5 43L5 42L4 42L4 44L2 44L2 42L1 42L1 44L2 44L2 46L1 46L1 47L2 47L2 46L3 46L3 47L5 47L5 45L4 45L4 44L8 44L8 45L9 45L9 46L7 46L7 45L6 45L6 46L7 46L7 47L9 47L9 46L10 46L10 45L9 45L9 44L8 44L8 43L9 43L9 42L10 42L10 44L12 44L12 45L16 45L16 46L15 46L15 47L16 47L16 48L17 48L17 49L16 49L16 50L15 50L15 51L16 51L16 52L17 52L17 53L18 53L18 51L16 51L16 50L18 50L18 47L16 47L16 46L17 46L17 45L16 45L16 44L14 44L14 43L13 43L13 42L12 42L12 41L15 41L15 40L16 40L16 43L17 43L17 39L18 39L18 40L19 40L19 38L17 38L17 37L16 37L16 36L17 36L17 34L18 34L18 36L19 36L19 33L20 33L20 34L21 34L21 35L20 35L20 36L21 36L21 38L20 38L20 39L21 39L21 40L20 40L20 43L18 43L18 44L20 44L20 47L19 47L19 48L20 48L20 47L21 47L21 46L22 46L22 48L23 48L23 49L24 49L24 51L25 51L25 49L26 49L26 48L29 48L29 47L30 47L30 48L31 48L31 47L30 47L30 46L31 46L31 45L32 45L32 47L33 47L33 45L32 45L32 44L31 44L31 45L30 45L30 41L31 41L31 43L32 43L32 40L33 40L33 41L34 41L34 42L35 42L35 41L36 41L36 38L37 38L37 37L36 37L36 35L37 35L37 36L38 36L38 39L37 39L37 41L38 41L38 39L40 39L40 40L39 40L39 41L40 41L40 40L41 40L41 41L42 41L42 42L43 42L43 38L44 38L44 34L45 34L45 33L44 33L44 34L43 34L43 33L42 33L42 31L43 31L43 30L44 30L44 27L43 27L43 26L44 26L44 24L46 24L46 23L47 23L47 25L46 25L46 26L47 26L47 27L48 27L48 26L49 26L49 25L48 25L48 23L49 23L49 24L50 24L50 26L53 26L53 25L52 25L52 24L53 24L53 23L54 23L54 24L55 24L55 25L54 25L54 26L55 26L55 27L54 27L54 28L53 28L53 29L54 29L54 30L55 30L55 31L54 31L54 33L53 33L53 32L52 32L52 31L49 31L49 32L50 32L50 33L49 33L49 36L50 36L50 38L51 38L51 39L52 39L52 38L53 38L53 37L54 37L54 36L56 36L56 33L55 33L55 31L56 31L56 30L55 30L55 27L56 27L56 26L55 26L55 25L56 25L56 24L55 24L55 23L54 23L54 22L52 22L52 20L53 20L53 19L54 19L54 17L56 17L56 16L55 16L55 15L56 15L56 12L55 12L55 11L54 11L54 12L53 12L53 13L54 13L54 14L55 14L55 15L54 15L54 17L52 17L52 16L53 16L53 14L52 14L52 13L50 13L50 11L51 11L51 12L52 12L52 10L51 10L51 9L50 9L50 11L49 11L49 9L48 9L48 14L47 14L47 13L46 13L46 11L47 11L47 9L46 9L46 8L45 8L45 7L46 7L46 6L45 6L45 5L44 5L44 4L45 4L45 2L47 2L47 1L42 1L42 2L40 2L40 1ZM43 2L43 3L42 3L42 5L43 5L43 6L42 6L42 7L41 7L41 6L40 6L40 7L41 7L41 8L40 8L40 10L39 10L39 11L38 11L38 9L39 9L39 6L38 6L38 7L37 7L37 6L36 6L36 10L34 10L34 11L35 11L35 12L36 12L36 13L37 13L37 14L36 14L36 18L34 18L34 17L35 17L35 15L34 15L34 17L33 17L33 15L32 15L32 17L33 17L33 18L32 18L32 19L30 19L30 20L29 20L29 19L28 19L28 22L27 22L27 20L26 20L26 19L27 19L27 18L26 18L26 17L27 17L27 16L26 16L26 11L24 11L24 9L25 9L25 8L24 8L24 9L23 9L23 8L22 8L22 9L21 9L21 10L20 10L20 9L19 9L19 10L20 10L20 11L19 11L19 12L20 12L20 13L19 13L19 14L18 14L18 15L20 15L20 13L21 13L21 10L22 10L22 9L23 9L23 11L22 11L22 12L23 12L23 14L24 14L24 15L23 15L23 16L22 16L22 14L21 14L21 18L20 18L20 19L19 19L19 20L18 20L18 21L19 21L19 20L20 20L20 21L21 21L21 22L20 22L20 23L21 23L21 22L22 22L22 23L23 23L23 24L24 24L24 25L25 25L25 27L24 27L24 28L25 28L25 30L26 30L26 34L28 34L28 35L27 35L27 36L26 36L26 35L25 35L25 34L24 34L24 32L25 32L25 31L24 31L24 32L23 32L23 30L22 30L22 33L23 33L23 34L22 34L22 35L21 35L21 36L22 36L22 38L21 38L21 39L22 39L22 41L21 41L21 42L22 42L22 41L23 41L23 43L22 43L22 44L23 44L23 48L26 48L26 46L27 46L27 43L28 43L28 44L29 44L29 43L28 43L28 40L27 40L27 39L26 39L26 38L24 38L24 39L26 39L26 40L25 40L25 41L26 41L26 42L25 42L25 45L26 45L26 46L24 46L24 40L23 40L23 35L25 35L25 36L24 36L24 37L25 37L25 36L26 36L26 37L27 37L27 36L28 36L28 37L29 37L29 36L28 36L28 35L31 35L31 36L30 36L30 40L29 40L29 41L30 41L30 40L31 40L31 38L33 38L33 39L34 39L34 41L35 41L35 38L36 38L36 37L35 37L35 38L34 38L34 37L33 37L33 36L35 36L35 35L36 35L36 33L37 33L37 34L38 34L38 36L39 36L39 38L40 38L40 39L41 39L41 40L42 40L42 39L41 39L41 38L42 38L42 37L41 37L41 36L42 36L42 35L40 35L40 36L39 36L39 34L38 34L38 33L39 33L39 32L40 32L40 34L42 34L42 33L41 33L41 32L40 32L40 30L41 30L41 31L42 31L42 28L43 28L43 27L41 27L41 26L42 26L42 25L43 25L43 23L42 23L42 21L43 21L43 22L44 22L44 23L45 23L45 22L44 22L44 21L45 21L45 20L46 20L46 21L47 21L47 23L48 23L48 21L49 21L49 20L51 20L51 18L52 18L52 17L51 17L51 18L50 18L50 17L49 17L49 16L50 16L50 13L49 13L49 14L48 14L48 15L46 15L46 13L45 13L45 12L44 12L44 14L43 14L43 16L44 16L44 17L43 17L43 18L42 18L42 17L41 17L41 15L42 15L42 12L43 12L43 10L44 10L44 9L45 9L45 10L46 10L46 9L45 9L45 8L44 8L44 7L45 7L45 6L44 6L44 5L43 5L43 4L44 4L44 2ZM21 3L21 4L22 4L22 3ZM26 3L26 4L27 4L27 3ZM46 3L46 5L47 5L47 3ZM38 4L38 5L39 5L39 4ZM27 5L27 8L30 8L30 5ZM10 6L10 7L11 7L11 6ZM22 6L22 7L23 7L23 6ZM24 6L24 7L25 7L25 6ZM28 6L28 7L29 7L29 6ZM32 6L32 7L33 7L33 6ZM43 6L43 7L42 7L42 8L41 8L41 9L42 9L42 10L43 10L43 9L44 9L44 8L43 8L43 7L44 7L44 6ZM0 8L0 11L1 11L1 10L3 10L3 11L2 11L2 13L4 13L4 12L5 12L5 10L6 10L6 11L7 11L7 10L6 10L6 9L7 9L7 8L5 8L5 9L4 9L4 10L3 10L3 8ZM14 8L14 9L15 9L15 11L14 11L14 12L16 12L16 8ZM37 8L37 9L38 9L38 8ZM30 9L30 10L31 10L31 9ZM3 11L3 12L4 12L4 11ZM23 11L23 12L24 12L24 14L25 14L25 12L24 12L24 11ZM36 11L36 12L37 12L37 13L38 13L38 15L37 15L37 16L38 16L38 18L40 18L40 19L39 19L39 20L38 20L38 23L36 23L36 22L37 22L37 21L36 21L36 20L35 20L35 21L34 21L34 22L35 22L35 23L36 23L36 24L34 24L34 23L33 23L33 24L34 24L34 26L33 26L33 25L32 25L32 23L31 23L31 22L33 22L33 21L32 21L32 20L30 20L30 22L28 22L28 24L27 24L27 25L26 25L26 26L28 26L28 24L29 24L29 26L31 26L31 25L32 25L32 27L31 27L31 30L32 30L32 31L31 31L31 32L30 32L30 34L31 34L31 33L32 33L32 34L33 34L33 33L34 33L34 35L35 35L35 33L36 33L36 31L37 31L37 32L38 32L38 31L39 31L39 30L40 30L40 26L41 26L41 25L42 25L42 24L41 24L41 25L40 25L40 26L39 26L39 25L38 25L38 23L41 23L41 22L40 22L40 19L41 19L41 18L40 18L40 15L39 15L39 12L37 12L37 11ZM41 11L41 12L42 12L42 11ZM0 12L0 13L1 13L1 12ZM6 13L6 14L7 14L7 13ZM31 13L31 14L32 14L32 13ZM44 14L44 16L46 16L46 20L47 20L47 16L46 16L46 15L45 15L45 14ZM51 14L51 16L52 16L52 14ZM24 15L24 18L25 18L25 17L26 17L26 16L25 16L25 15ZM29 15L29 16L30 16L30 17L28 17L28 18L30 18L30 17L31 17L31 16L30 16L30 15ZM13 16L13 18L12 18L12 19L13 19L13 18L15 18L15 17L14 17L14 16ZM44 17L44 19L42 19L42 20L43 20L43 21L44 21L44 19L45 19L45 17ZM48 17L48 18L49 18L49 17ZM21 18L21 19L20 19L20 20L21 20L21 21L22 21L22 20L21 20L21 19L22 19L22 18ZM33 18L33 19L34 19L34 18ZM36 18L36 19L37 19L37 18ZM14 19L14 20L15 20L15 19ZM24 19L24 20L25 20L25 21L26 21L26 20L25 20L25 19ZM48 19L48 20L49 20L49 19ZM8 20L8 21L6 21L6 22L4 22L4 23L5 23L5 25L4 25L4 26L7 26L7 25L8 25L8 24L9 24L9 23L8 23L8 21L9 21L9 20ZM2 21L2 22L3 22L3 21ZM35 21L35 22L36 22L36 21ZM6 22L6 23L7 23L7 24L6 24L6 25L7 25L7 24L8 24L8 23L7 23L7 22ZM24 22L24 23L25 23L25 22ZM26 22L26 23L27 23L27 22ZM49 22L49 23L50 23L50 24L52 24L52 22L51 22L51 23L50 23L50 22ZM29 23L29 24L30 24L30 25L31 25L31 23ZM36 24L36 26L37 26L37 28L36 28L36 27L34 27L34 29L33 29L33 28L32 28L32 30L33 30L33 31L32 31L32 33L33 33L33 32L34 32L34 33L35 33L35 32L34 32L34 29L35 29L35 30L37 30L37 31L38 31L38 30L37 30L37 28L38 28L38 29L39 29L39 26L38 26L38 25L37 25L37 24ZM15 25L15 27L13 27L13 28L12 28L12 29L11 29L11 30L10 30L10 31L9 31L9 32L10 32L10 31L11 31L11 30L12 30L12 29L15 29L15 27L16 27L16 28L17 28L17 27L16 27L16 25ZM47 25L47 26L48 26L48 25ZM2 26L2 27L3 27L3 28L4 28L4 27L3 27L3 26ZM5 27L5 30L8 30L8 27ZM27 27L27 30L30 30L30 27ZM49 27L49 30L52 30L52 27ZM6 28L6 29L7 29L7 28ZM28 28L28 29L29 29L29 28ZM35 28L35 29L36 29L36 28ZM46 28L46 29L45 29L45 30L46 30L46 31L47 31L47 30L48 30L48 28ZM50 28L50 29L51 29L51 28ZM15 30L15 31L14 31L14 33L13 33L13 35L12 35L12 34L11 34L11 35L10 35L10 39L9 39L9 37L7 37L7 36L5 36L5 38L6 38L6 39L7 39L7 38L8 38L8 40L6 40L6 41L9 41L9 40L13 40L13 38L14 38L14 40L15 40L15 36L16 36L16 33L17 33L17 32L18 32L18 33L19 33L19 32L20 32L20 33L21 33L21 32L20 32L20 31L21 31L21 30L19 30L19 32L18 32L18 30ZM16 31L16 32L15 32L15 33L14 33L14 34L15 34L15 33L16 33L16 32L17 32L17 31ZM27 31L27 33L28 33L28 34L29 34L29 31ZM3 32L3 33L2 33L2 34L3 34L3 35L4 35L4 34L3 34L3 33L4 33L4 32ZM11 32L11 33L12 33L12 32ZM46 32L46 34L48 34L48 33L47 33L47 32ZM9 33L9 34L10 34L10 33ZM50 33L50 36L51 36L51 38L52 38L52 37L53 37L53 36L54 36L54 34L53 34L53 36L51 36L51 33ZM11 35L11 36L12 36L12 35ZM46 35L46 36L45 36L45 37L46 37L46 38L47 38L47 40L48 40L48 41L46 41L46 40L45 40L45 41L44 41L44 44L43 44L43 43L41 43L41 45L42 45L42 47L41 47L41 46L40 46L40 47L41 47L41 49L40 49L40 51L41 51L41 53L42 53L42 51L41 51L41 49L42 49L42 50L43 50L43 51L44 51L44 48L45 48L45 49L46 49L46 50L47 50L47 49L46 49L46 48L45 48L45 47L44 47L44 46L45 46L45 45L44 45L44 44L45 44L45 41L46 41L46 42L47 42L47 44L46 44L46 47L48 47L48 46L49 46L49 48L51 48L51 47L52 47L52 48L53 48L53 47L54 47L54 48L55 48L55 47L54 47L54 46L53 46L53 47L52 47L52 46L51 46L51 47L50 47L50 45L48 45L48 46L47 46L47 44L48 44L48 43L49 43L49 44L50 44L50 42L49 42L49 41L51 41L51 40L48 40L48 39L49 39L49 38L47 38L47 37L46 37L46 36L48 36L48 35ZM13 36L13 37L12 37L12 38L13 38L13 37L14 37L14 36ZM31 36L31 37L32 37L32 36ZM6 37L6 38L7 38L7 37ZM16 38L16 39L17 39L17 38ZM28 38L28 39L29 39L29 38ZM11 42L11 43L12 43L12 44L13 44L13 43L12 43L12 42ZM20 43L20 44L21 44L21 43ZM37 43L37 44L36 44L36 45L37 45L37 46L38 46L38 45L37 45L37 44L39 44L39 43ZM42 44L42 45L43 45L43 44ZM18 45L18 46L19 46L19 45ZM29 45L29 46L30 46L30 45ZM27 49L27 52L30 52L30 49ZM32 49L32 50L31 50L31 52L32 52L32 50L33 50L33 49ZM49 49L49 52L52 52L52 49ZM11 50L11 51L12 51L12 50ZM28 50L28 51L29 51L29 50ZM50 50L50 51L51 51L51 50ZM34 51L34 52L33 52L33 53L34 53L34 54L35 54L35 53L36 53L36 54L37 54L37 53L36 53L36 52L35 52L35 51ZM47 51L47 52L48 52L48 51ZM45 52L45 53L46 53L46 54L45 54L45 55L46 55L46 56L48 56L48 54L49 54L49 53L46 53L46 52ZM27 53L27 55L28 55L28 53ZM9 54L9 55L10 55L10 54ZM16 54L16 55L18 55L18 54ZM22 54L22 56L23 56L23 54ZM40 54L40 55L42 55L42 54ZM46 54L46 55L47 55L47 54ZM36 56L36 57L37 57L37 56ZM51 56L51 57L53 57L53 56ZM56 56L56 57L57 57L57 56ZM0 0L0 7L7 7L7 0ZM1 1L1 6L6 6L6 1ZM2 2L2 5L5 5L5 2ZM50 0L50 7L57 7L57 0ZM51 1L51 6L56 6L56 1ZM52 2L52 5L55 5L55 2ZM0 50L0 57L7 57L7 50ZM1 51L1 56L6 56L6 51ZM2 52L2 55L5 55L5 52Z" fill="#000000"/></g></g></svg>
