<?xml version="1.0" encoding="UTF-8"?>
<svg xmlns="http://www.w3.org/2000/svg" version="1.1" width="300" height="300" viewBox="0 0 300 300"><rect x="0" y="0" width="300" height="300" fill="#fefefe"/><g transform="scale(4.615)"><g transform="translate(4,4)"><path fill-rule="evenodd" d="M9 0L9 1L8 1L8 2L9 2L9 3L8 3L8 4L10 4L10 5L8 5L8 7L9 7L9 6L10 6L10 8L6 8L6 9L9 9L9 11L11 11L11 12L12 12L12 14L11 14L11 13L10 13L10 12L9 12L9 13L10 13L10 14L9 14L9 16L8 16L8 15L7 15L7 14L8 14L8 13L7 13L7 12L6 12L6 11L8 11L8 10L6 10L6 11L5 11L5 8L0 8L0 9L3 9L3 10L0 10L0 13L1 13L1 15L0 15L0 18L2 18L2 16L3 16L3 17L5 17L5 19L4 19L4 20L5 20L5 21L8 21L8 22L11 22L11 21L13 21L13 22L14 22L14 26L15 26L15 27L14 27L14 28L15 28L15 27L16 27L16 26L15 26L15 23L16 23L16 24L17 24L17 27L18 27L18 26L19 26L19 27L20 27L20 29L18 29L18 28L16 28L16 29L12 29L12 26L13 26L13 24L12 24L12 25L11 25L11 24L9 24L9 25L8 25L8 23L7 23L7 22L4 22L4 25L5 25L5 26L4 26L4 28L3 28L3 27L2 27L2 28L1 28L1 25L2 25L2 24L0 24L0 31L2 31L2 32L0 32L0 34L2 34L2 35L3 35L3 34L4 34L4 33L3 33L3 34L2 34L2 32L3 32L3 31L5 31L5 35L4 35L4 36L0 36L0 39L1 39L1 40L0 40L0 41L1 41L1 40L2 40L2 42L6 42L6 43L5 43L5 44L4 44L4 43L2 43L2 44L4 44L4 45L5 45L5 44L6 44L6 45L8 45L8 46L5 46L5 47L3 47L3 45L2 45L2 47L1 47L1 46L0 46L0 48L5 48L5 47L7 47L7 48L6 48L6 49L8 49L8 51L9 51L9 52L8 52L8 57L9 57L9 56L10 56L10 57L13 57L13 56L11 56L11 55L9 55L9 54L11 54L11 53L12 53L12 51L13 51L13 50L14 50L14 52L15 52L15 53L13 53L13 55L14 55L14 56L15 56L15 57L16 57L16 56L17 56L17 57L20 57L20 56L17 56L17 54L19 54L19 55L20 55L20 54L19 54L19 53L20 53L20 52L22 52L22 51L20 51L20 49L21 49L21 50L26 50L26 52L24 52L24 53L23 53L23 54L22 54L22 53L21 53L21 54L22 54L22 55L21 55L21 56L24 56L24 57L26 57L26 56L24 56L24 55L23 55L23 54L24 54L24 53L27 53L27 54L30 54L30 53L31 53L31 49L32 49L32 48L34 48L34 49L33 49L33 50L32 50L32 52L33 52L33 53L32 53L32 54L31 54L31 56L30 56L30 55L29 55L29 56L27 56L27 57L29 57L29 56L30 56L30 57L31 57L31 56L35 56L35 57L39 57L39 56L37 56L37 55L41 55L41 56L42 56L42 55L43 55L43 57L44 57L44 54L45 54L45 57L48 57L48 56L50 56L50 57L52 57L52 55L51 55L51 53L52 53L52 54L53 54L53 52L54 52L54 53L55 53L55 52L57 52L57 51L56 51L56 50L57 50L57 48L56 48L56 46L57 46L57 45L56 45L56 44L55 44L55 43L56 43L56 42L55 42L55 39L57 39L57 36L56 36L56 34L57 34L57 32L56 32L56 30L57 30L57 27L56 27L56 26L57 26L57 25L56 25L56 22L57 22L57 20L56 20L56 22L55 22L55 23L53 23L53 22L54 22L54 21L51 21L51 20L52 20L52 19L53 19L53 20L55 20L55 19L56 19L56 18L57 18L57 17L56 17L56 16L57 16L57 15L56 15L56 14L57 14L57 12L56 12L56 14L53 14L53 13L54 13L54 12L55 12L55 11L56 11L56 10L54 10L54 11L51 11L51 10L52 10L52 8L51 8L51 10L49 10L49 9L50 9L50 8L49 8L49 9L48 9L48 7L49 7L49 6L48 6L48 7L47 7L47 5L48 5L48 0L45 0L45 1L47 1L47 2L44 2L44 3L43 3L43 4L40 4L40 5L39 5L39 6L38 6L38 4L39 4L39 3L42 3L42 2L43 2L43 0L41 0L41 1L40 1L40 0L39 0L39 1L38 1L38 0L37 0L37 1L38 1L38 4L37 4L37 3L36 3L36 0L35 0L35 1L33 1L33 0L32 0L32 3L31 3L31 0L27 0L27 1L26 1L26 0L23 0L23 2L22 2L22 3L21 3L21 2L20 2L20 1L18 1L18 0L17 0L17 1L18 1L18 2L17 2L17 5L20 5L20 7L19 7L19 6L18 6L18 7L17 7L17 6L16 6L16 7L15 7L15 5L16 5L16 4L15 4L15 5L14 5L14 7L13 7L13 6L12 6L12 7L13 7L13 8L11 8L11 3L12 3L12 4L14 4L14 2L15 2L15 1L14 1L14 0L11 0L11 1L12 1L12 2L9 2L9 1L10 1L10 0ZM21 0L21 1L22 1L22 0ZM13 1L13 2L12 2L12 3L13 3L13 2L14 2L14 1ZM25 1L25 2L23 2L23 3L22 3L22 4L21 4L21 3L20 3L20 2L18 2L18 3L19 3L19 4L21 4L21 7L22 7L22 8L20 8L20 10L21 10L21 11L19 11L19 12L20 12L20 15L21 15L21 16L20 16L20 18L19 18L19 17L18 17L18 18L19 18L19 19L18 19L18 20L17 20L17 19L15 19L15 18L17 18L17 16L19 16L19 15L18 15L18 14L17 14L17 13L18 13L18 12L17 12L17 13L16 13L16 12L15 12L15 13L13 13L13 14L12 14L12 15L11 15L11 14L10 14L10 15L11 15L11 16L9 16L9 17L8 17L8 18L7 18L7 17L6 17L6 16L7 16L7 15L5 15L5 17L6 17L6 18L7 18L7 19L6 19L6 20L9 20L9 21L11 21L11 18L10 18L10 17L11 17L11 16L12 16L12 15L13 15L13 14L15 14L15 13L16 13L16 16L14 16L14 17L13 17L13 18L12 18L12 19L14 19L14 20L13 20L13 21L14 21L14 22L16 22L16 21L18 21L18 22L17 22L17 24L21 24L21 25L19 25L19 26L20 26L20 27L21 27L21 28L22 28L22 29L20 29L20 30L18 30L18 29L16 29L16 31L14 31L14 30L13 30L13 31L12 31L12 29L11 29L11 31L10 31L10 32L8 32L8 31L6 31L6 32L7 32L7 33L6 33L6 34L10 34L10 35L11 35L11 36L9 36L9 35L8 35L8 36L7 36L7 35L5 35L5 37L4 37L4 38L5 38L5 37L6 37L6 38L7 38L7 37L8 37L8 36L9 36L9 37L11 37L11 40L10 40L10 39L8 39L8 41L6 41L6 42L8 42L8 43L9 43L9 40L10 40L10 42L11 42L11 43L12 43L12 44L11 44L11 46L10 46L10 45L9 45L9 46L8 46L8 48L9 48L9 50L10 50L10 47L11 47L11 51L12 51L12 50L13 50L13 48L19 48L19 49L20 49L20 48L21 48L21 49L23 49L23 47L24 47L24 49L26 49L26 48L29 48L29 46L31 46L31 47L32 47L32 45L33 45L33 46L35 46L35 47L34 47L34 48L36 48L36 46L35 46L35 45L34 45L34 43L37 43L37 42L35 42L35 40L38 40L38 42L39 42L39 43L41 43L41 44L39 44L39 45L38 45L38 46L39 46L39 45L41 45L41 44L42 44L42 42L41 42L41 40L42 40L42 41L44 41L44 42L43 42L43 44L44 44L44 45L43 45L43 46L41 46L41 48L39 48L39 47L38 47L38 48L37 48L37 49L38 49L38 50L36 50L36 49L34 49L34 50L33 50L33 51L34 51L34 50L36 50L36 52L37 52L37 51L38 51L38 53L37 53L37 54L40 54L40 53L43 53L43 54L44 54L44 53L45 53L45 54L48 54L48 50L47 50L47 49L48 49L48 48L53 48L53 49L54 49L54 48L53 48L53 47L55 47L55 46L56 46L56 45L55 45L55 44L54 44L54 45L52 45L52 44L53 44L53 43L54 43L54 42L53 42L53 41L54 41L54 40L53 40L53 41L51 41L51 42L50 42L50 43L48 43L48 44L47 44L47 45L45 45L45 44L46 44L46 43L44 43L44 42L48 42L48 41L49 41L49 40L50 40L50 39L52 39L52 38L53 38L53 39L54 39L54 38L53 38L53 35L55 35L55 34L56 34L56 32L53 32L53 31L55 31L55 30L53 30L53 31L50 31L50 32L49 32L49 31L48 31L48 28L47 28L47 29L46 29L46 30L47 30L47 31L45 31L45 32L43 32L43 30L41 30L41 29L43 29L43 27L45 27L45 28L44 28L44 30L45 30L45 28L46 28L46 27L48 27L48 26L47 26L47 25L46 25L46 24L51 24L51 25L50 25L50 26L51 26L51 25L52 25L52 26L53 26L53 27L54 27L54 26L53 26L53 25L54 25L54 24L51 24L51 23L50 23L50 22L51 22L51 21L49 21L49 20L48 20L48 19L51 19L51 17L53 17L53 18L56 18L56 17L53 17L53 15L50 15L50 14L51 14L51 12L50 12L50 11L49 11L49 10L48 10L48 11L49 11L49 12L45 12L45 11L46 11L46 10L47 10L47 8L45 8L45 7L46 7L46 5L47 5L47 3L44 3L44 6L43 6L43 5L40 5L40 6L39 6L39 7L40 7L40 8L38 8L38 10L37 10L37 9L35 9L35 8L37 8L37 7L38 7L38 6L37 6L37 7L36 7L36 5L37 5L37 4L36 4L36 5L35 5L35 4L33 4L33 3L32 3L32 4L31 4L31 3L30 3L30 4L31 4L31 8L32 8L32 10L31 10L31 11L30 11L30 10L29 10L29 9L28 9L28 11L29 11L29 12L28 12L28 13L27 13L27 15L26 15L26 12L27 12L27 11L26 11L26 12L25 12L25 10L24 10L24 12L23 12L23 13L22 13L22 12L21 12L21 11L22 11L22 10L21 10L21 9L24 9L24 6L23 6L23 5L24 5L24 4L23 4L23 3L26 3L26 4L25 4L25 8L26 8L26 4L29 4L29 3L27 3L27 2L28 2L28 1L27 1L27 2L26 2L26 1ZM29 1L29 2L30 2L30 1ZM22 4L22 5L23 5L23 4ZM32 4L32 5L33 5L33 6L32 6L32 7L33 7L33 9L34 9L34 8L35 8L35 5L33 5L33 4ZM45 4L45 5L46 5L46 4ZM27 5L27 8L30 8L30 5ZM22 6L22 7L23 7L23 6ZM28 6L28 7L29 7L29 6ZM33 6L33 7L34 7L34 6ZM40 6L40 7L41 7L41 10L40 10L40 9L39 9L39 10L40 10L40 11L37 11L37 10L36 10L36 11L35 11L35 14L33 14L33 13L34 13L34 12L33 12L33 13L32 13L32 11L33 11L33 10L32 10L32 11L31 11L31 13L30 13L30 14L29 14L29 13L28 13L28 14L29 14L29 16L28 16L28 15L27 15L27 16L28 16L28 17L26 17L26 15L25 15L25 12L24 12L24 13L23 13L23 14L22 14L22 13L21 13L21 15L23 15L23 16L24 16L24 15L25 15L25 17L22 17L22 16L21 16L21 17L22 17L22 18L20 18L20 20L18 20L18 21L20 21L20 20L21 20L21 19L23 19L23 20L24 20L24 21L21 21L21 23L22 23L22 24L24 24L24 25L22 25L22 26L21 26L21 27L22 27L22 26L24 26L24 27L23 27L23 28L24 28L24 29L23 29L23 31L21 31L21 30L20 30L20 31L18 31L18 33L17 33L17 34L16 34L16 35L15 35L15 34L14 34L14 33L16 33L16 32L14 32L14 31L13 31L13 32L12 32L12 33L11 33L11 32L10 32L10 33L11 33L11 34L12 34L12 35L13 35L13 36L14 36L14 35L15 35L15 36L17 36L17 38L18 38L18 39L17 39L17 42L16 42L16 44L18 44L18 45L17 45L17 46L18 46L18 47L19 47L19 48L20 48L20 47L19 47L19 46L20 46L20 45L19 45L19 44L20 44L20 43L19 43L19 42L20 42L20 41L19 41L19 40L22 40L22 39L24 39L24 40L23 40L23 41L24 41L24 42L22 42L22 41L21 41L21 42L22 42L22 43L21 43L21 44L22 44L22 45L21 45L21 47L23 47L23 46L25 46L25 44L29 44L29 43L32 43L32 44L31 44L31 45L32 45L32 44L33 44L33 43L34 43L34 42L33 42L33 41L32 41L32 40L28 40L28 39L27 39L27 38L28 38L28 37L27 37L27 38L26 38L26 39L27 39L27 41L26 41L26 42L27 42L27 41L30 41L30 42L29 42L29 43L25 43L25 41L24 41L24 40L25 40L25 37L26 37L26 36L27 36L27 35L26 35L26 34L27 34L27 33L26 33L26 32L28 32L28 33L29 33L29 34L30 34L30 36L29 36L29 37L31 37L31 38L29 38L29 39L33 39L33 40L35 40L35 39L37 39L37 38L38 38L38 37L37 37L37 36L38 36L38 33L37 33L37 32L33 32L33 33L32 33L32 32L31 32L31 33L29 33L29 31L35 31L35 30L31 30L31 29L32 29L32 27L33 27L33 28L35 28L35 29L38 29L38 28L40 28L40 27L41 27L41 28L42 28L42 26L43 26L43 25L44 25L44 26L45 26L45 25L44 25L44 24L42 24L42 23L44 23L44 20L45 20L45 21L47 21L47 22L45 22L45 23L49 23L49 21L47 21L47 19L45 19L45 18L44 18L44 15L45 15L45 17L46 17L46 16L47 16L47 18L50 18L50 17L51 17L51 16L50 16L50 15L49 15L49 14L50 14L50 12L49 12L49 13L47 13L47 14L44 14L44 15L42 15L42 16L41 16L41 14L43 14L43 13L44 13L44 12L43 12L43 13L39 13L39 12L41 12L41 10L42 10L42 11L45 11L45 9L44 9L44 7L45 7L45 6L44 6L44 7L43 7L43 6L42 6L42 7L41 7L41 6ZM16 7L16 8L17 8L17 7ZM14 8L14 9L10 9L10 10L17 10L17 11L18 11L18 10L19 10L19 9L15 9L15 8ZM42 8L42 9L43 9L43 10L44 10L44 9L43 9L43 8ZM53 8L53 9L54 9L54 8ZM55 8L55 9L56 9L56 8ZM1 11L1 12L2 12L2 13L3 13L3 14L4 14L4 13L5 13L5 14L7 14L7 13L6 13L6 12L5 12L5 11L4 11L4 13L3 13L3 12L2 12L2 11ZM12 11L12 12L14 12L14 11ZM52 12L52 13L53 13L53 12ZM31 13L31 14L30 14L30 15L32 15L32 13ZM36 13L36 14L37 14L37 15L35 15L35 16L32 16L32 17L31 17L31 18L30 18L30 19L31 19L31 18L32 18L32 17L33 17L33 20L32 20L32 21L31 21L31 20L29 20L29 19L28 19L28 18L27 18L27 19L26 19L26 21L31 21L31 24L28 24L28 23L27 23L27 24L25 24L25 23L26 23L26 22L25 22L25 21L24 21L24 22L22 22L22 23L24 23L24 24L25 24L25 25L26 25L26 26L25 26L25 27L26 27L26 26L27 26L27 25L28 25L28 26L29 26L29 25L31 25L31 24L32 24L32 26L31 26L31 27L32 27L32 26L33 26L33 27L34 27L34 26L36 26L36 27L40 27L40 26L39 26L39 25L41 25L41 26L42 26L42 25L41 25L41 24L39 24L39 23L40 23L40 22L39 22L39 21L41 21L41 20L39 20L39 21L38 21L38 19L39 19L39 17L41 17L41 16L39 16L39 15L38 15L38 14L39 14L39 13L38 13L38 14L37 14L37 13ZM1 15L1 16L2 16L2 15ZM3 15L3 16L4 16L4 15ZM48 15L48 16L49 16L49 15ZM35 16L35 17L37 17L37 18L38 18L38 17L39 17L39 16L38 16L38 17L37 17L37 16ZM42 16L42 17L43 17L43 16ZM25 17L25 18L26 18L26 17ZM8 18L8 19L10 19L10 18ZM23 18L23 19L24 19L24 18ZM41 18L41 19L42 19L42 20L44 20L44 18L43 18L43 19L42 19L42 18ZM1 19L1 20L0 20L0 21L2 21L2 22L0 22L0 23L2 23L2 22L3 22L3 21L2 21L2 19ZM27 19L27 20L28 20L28 19ZM34 19L34 20L35 20L35 23L34 23L34 22L33 22L33 23L32 23L32 24L33 24L33 25L37 25L37 26L38 26L38 25L39 25L39 24L37 24L37 23L38 23L38 21L37 21L37 20L36 20L36 19ZM15 20L15 21L16 21L16 20ZM19 22L19 23L20 23L20 22ZM29 22L29 23L30 23L30 22ZM41 22L41 23L42 23L42 22ZM5 23L5 25L6 25L6 26L7 26L7 25L6 25L6 24L7 24L7 23ZM9 25L9 26L10 26L10 25ZM55 25L55 26L56 26L56 25ZM5 27L5 30L8 30L8 27ZM9 27L9 28L11 28L11 27ZM27 27L27 30L30 30L30 27ZM49 27L49 30L52 30L52 27ZM55 27L55 28L54 28L54 29L56 29L56 27ZM2 28L2 30L4 30L4 29L3 29L3 28ZM6 28L6 29L7 29L7 28ZM25 28L25 29L26 29L26 28ZM28 28L28 29L29 29L29 28ZM50 28L50 29L51 29L51 28ZM9 29L9 30L10 30L10 29ZM38 30L38 32L39 32L39 30ZM40 30L40 31L41 31L41 30ZM23 31L23 32L21 32L21 33L20 33L20 34L21 34L21 35L20 35L20 36L19 36L19 37L18 37L18 38L19 38L19 39L20 39L20 38L19 38L19 37L21 37L21 38L24 38L24 37L23 37L23 36L24 36L24 34L23 34L23 33L25 33L25 34L26 34L26 33L25 33L25 32L26 32L26 31L25 31L25 32L24 32L24 31ZM47 31L47 32L48 32L48 33L49 33L49 32L48 32L48 31ZM13 32L13 33L12 33L12 34L13 34L13 33L14 33L14 32ZM41 32L41 33L39 33L39 34L40 34L40 35L39 35L39 37L40 37L40 38L43 38L43 37L44 37L44 38L45 38L45 39L42 39L42 40L47 40L47 39L48 39L48 38L47 38L47 39L46 39L46 38L45 38L45 37L46 37L46 36L49 36L49 37L50 37L50 38L49 38L49 39L50 39L50 38L51 38L51 36L52 36L52 35L53 35L53 34L52 34L52 33L53 33L53 32L52 32L52 33L51 33L51 32L50 32L50 34L49 34L49 35L47 35L47 34L45 34L45 33L46 33L46 32L45 32L45 33L43 33L43 32ZM18 33L18 34L19 34L19 33ZM21 33L21 34L22 34L22 35L21 35L21 36L23 36L23 34L22 34L22 33ZM31 33L31 35L32 35L32 33ZM33 33L33 34L34 34L34 35L33 35L33 36L32 36L32 37L33 37L33 39L34 39L34 38L35 38L35 36L37 36L37 34L35 34L35 33ZM54 33L54 34L55 34L55 33ZM42 34L42 35L41 35L41 36L40 36L40 37L43 37L43 36L44 36L44 37L45 37L45 36L44 36L44 35L45 35L45 34ZM50 34L50 35L49 35L49 36L50 36L50 35L52 35L52 34ZM17 35L17 36L18 36L18 35ZM34 35L34 36L35 36L35 35ZM6 36L6 37L7 37L7 36ZM11 36L11 37L12 37L12 36ZM1 37L1 39L2 39L2 40L3 40L3 41L5 41L5 40L7 40L7 39L5 39L5 40L3 40L3 39L2 39L2 38L3 38L3 37ZM14 37L14 38L16 38L16 37ZM12 38L12 39L13 39L13 38ZM15 39L15 40L16 40L16 39ZM38 39L38 40L40 40L40 39ZM12 40L12 41L11 41L11 42L12 42L12 43L13 43L13 42L12 42L12 41L14 41L14 42L15 42L15 41L14 41L14 40ZM18 41L18 42L17 42L17 43L18 43L18 42L19 42L19 41ZM31 41L31 42L32 42L32 43L33 43L33 42L32 42L32 41ZM39 41L39 42L40 42L40 41ZM0 42L0 44L1 44L1 42ZM51 42L51 43L50 43L50 44L51 44L51 43L53 43L53 42ZM6 43L6 44L7 44L7 43ZM12 44L12 48L13 48L13 47L14 47L14 46L15 46L15 44L14 44L14 45L13 45L13 44ZM22 45L22 46L23 46L23 45ZM26 45L26 47L27 47L27 45ZM44 45L44 48L43 48L43 47L42 47L42 48L41 48L41 50L38 50L38 51L40 51L40 52L41 52L41 50L42 50L42 51L43 51L43 53L44 53L44 52L45 52L45 53L47 53L47 51L46 51L46 50L44 50L44 51L43 51L43 49L44 49L44 48L45 48L45 49L47 49L47 48L48 48L48 47L50 47L50 46L51 46L51 47L53 47L53 46L51 46L51 45L50 45L50 46L49 46L49 45L47 45L47 46L45 46L45 45ZM47 46L47 47L46 47L46 48L47 48L47 47L48 47L48 46ZM38 48L38 49L39 49L39 48ZM42 48L42 49L43 49L43 48ZM55 48L55 50L54 50L54 51L55 51L55 50L56 50L56 48ZM14 49L14 50L17 50L17 51L16 51L16 53L15 53L15 54L16 54L16 53L17 53L17 52L19 52L19 50L17 50L17 49ZM27 49L27 52L30 52L30 49ZM49 49L49 52L52 52L52 49ZM28 50L28 51L29 51L29 50ZM50 50L50 51L51 51L51 50ZM45 51L45 52L46 52L46 51ZM9 52L9 53L10 53L10 52ZM33 53L33 54L34 54L34 55L35 55L35 56L36 56L36 54L35 54L35 53ZM25 54L25 55L26 55L26 54ZM15 55L15 56L16 56L16 55ZM47 55L47 56L48 56L48 55ZM50 55L50 56L51 56L51 55ZM53 55L53 56L55 56L55 57L56 57L56 56L55 56L55 55ZM0 0L0 7L7 7L7 0ZM1 1L1 6L6 6L6 1ZM2 2L2 5L5 5L5 2ZM50 0L50 7L57 7L57 0ZM51 1L51 6L56 6L56 1ZM52 2L52 5L55 5L55 2ZM0 50L0 57L7 57L7 50ZM1 51L1 56L6 56L6 51ZM2 52L2 55L5 55L5 52Z" fill="#000000"/></g></g></svg>
