<?xml version="1.0" encoding="UTF-8"?>
<svg xmlns="http://www.w3.org/2000/svg" version="1.1" width="300" height="300" viewBox="0 0 300 300"><rect x="0" y="0" width="300" height="300" fill="#fefefe"/><g transform="scale(4.615)"><g transform="translate(4,4)"><path fill-rule="evenodd" d="M9 0L9 1L8 1L8 2L9 2L9 3L8 3L8 4L9 4L9 5L8 5L8 7L9 7L9 5L10 5L10 4L11 4L11 5L12 5L12 8L10 8L10 9L14 9L14 8L16 8L16 9L15 9L15 10L13 10L13 11L12 11L12 12L11 12L11 11L10 11L10 12L11 12L11 13L8 13L8 12L9 12L9 11L7 11L7 10L6 10L6 11L7 11L7 12L5 12L5 13L4 13L4 11L3 11L3 10L4 10L4 9L5 9L5 8L0 8L0 9L2 9L2 12L1 12L1 11L0 11L0 14L1 14L1 15L3 15L3 16L2 16L2 17L1 17L1 16L0 16L0 18L1 18L1 19L0 19L0 21L2 21L2 22L0 22L0 26L1 26L1 28L2 28L2 29L1 29L1 31L0 31L0 32L1 32L1 31L2 31L2 32L3 32L3 34L5 34L5 36L6 36L6 37L7 37L7 38L5 38L5 37L4 37L4 38L5 38L5 39L3 39L3 36L4 36L4 35L3 35L3 36L2 36L2 35L1 35L1 34L2 34L2 33L1 33L1 34L0 34L0 37L1 37L1 36L2 36L2 39L3 39L3 40L4 40L4 41L5 41L5 42L2 42L2 43L0 43L0 48L5 48L5 47L8 47L8 48L6 48L6 49L8 49L8 51L11 51L11 50L9 50L9 49L8 49L8 48L11 48L11 49L12 49L12 47L13 47L13 46L14 46L14 47L16 47L16 46L14 46L14 44L15 44L15 43L16 43L16 45L17 45L17 46L20 46L20 45L21 45L21 47L20 47L20 49L19 49L19 48L16 48L16 49L17 49L17 50L16 50L16 51L14 51L14 50L12 50L12 51L13 51L13 52L12 52L12 53L13 53L13 54L12 54L12 56L10 56L10 57L12 57L12 56L13 56L13 55L14 55L14 57L16 57L16 56L17 56L17 57L19 57L19 56L18 56L18 55L20 55L20 54L18 54L18 55L17 55L17 53L20 53L20 52L21 52L21 50L26 50L26 53L25 53L25 52L24 52L24 53L23 53L23 54L22 54L22 53L21 53L21 56L24 56L24 57L26 57L26 56L27 56L27 57L29 57L29 56L30 56L30 57L31 57L31 56L35 56L35 57L39 57L39 56L41 56L41 54L42 54L42 55L44 55L44 56L43 56L43 57L44 57L44 56L45 56L45 57L47 57L47 56L50 56L50 57L52 57L52 55L51 55L51 53L52 53L52 54L53 54L53 52L54 52L54 53L56 53L56 52L57 52L57 51L56 51L56 52L55 52L55 51L54 51L54 50L57 50L57 48L56 48L56 46L57 46L57 44L56 44L56 42L55 42L55 39L57 39L57 37L55 37L55 36L57 36L57 35L56 35L56 34L55 34L55 32L56 32L56 33L57 33L57 32L56 32L56 30L57 30L57 28L56 28L56 26L57 26L57 25L56 25L56 22L57 22L57 21L56 21L56 20L57 20L57 19L56 19L56 16L57 16L57 15L56 15L56 14L57 14L57 11L56 11L56 10L54 10L54 11L50 11L50 8L49 8L49 9L47 9L47 5L48 5L48 0L46 0L46 1L45 1L45 2L44 2L44 3L43 3L43 4L42 4L42 2L43 2L43 0L41 0L41 1L40 1L40 0L39 0L39 1L38 1L38 0L37 0L37 1L38 1L38 3L41 3L41 4L40 4L40 5L39 5L39 6L38 6L38 7L37 7L37 5L38 5L38 4L37 4L37 3L36 3L36 0L35 0L35 1L33 1L33 0L30 0L30 1L26 1L26 0L23 0L23 1L22 1L22 0L21 0L21 1L20 1L20 0L19 0L19 1L18 1L18 2L17 2L17 1L14 1L14 0ZM9 1L9 2L10 2L10 3L12 3L12 2L11 2L11 1ZM13 1L13 2L14 2L14 4L13 4L13 7L14 7L14 6L15 6L15 7L16 7L16 8L19 8L19 9L20 9L20 11L19 11L19 13L20 13L20 14L18 14L18 15L17 15L17 13L18 13L18 12L17 12L17 11L18 11L18 10L17 10L17 9L16 9L16 10L15 10L15 11L16 11L16 12L15 12L15 13L12 13L12 14L11 14L11 15L10 15L10 16L11 16L11 17L9 17L9 16L8 16L8 17L9 17L9 18L10 18L10 19L12 19L12 18L13 18L13 19L14 19L14 20L13 20L13 21L11 21L11 20L9 20L9 19L8 19L8 18L7 18L7 17L5 17L5 16L7 16L7 15L9 15L9 14L7 14L7 13L6 13L6 14L5 14L5 16L3 16L3 19L1 19L1 20L7 20L7 19L8 19L8 20L9 20L9 21L8 21L8 22L7 22L7 21L4 21L4 22L3 22L3 23L2 23L2 24L3 24L3 25L1 25L1 26L2 26L2 27L3 27L3 25L4 25L4 26L5 26L5 25L6 25L6 26L7 26L7 25L9 25L9 29L11 29L11 30L12 30L12 31L13 31L13 32L11 32L11 33L9 33L9 31L10 31L10 30L9 30L9 31L8 31L8 32L7 32L7 31L6 31L6 32L7 32L7 33L5 33L5 34L7 34L7 33L8 33L8 34L10 34L10 36L9 36L9 35L6 35L6 36L8 36L8 38L9 38L9 39L6 39L6 40L5 40L5 41L6 41L6 42L7 42L7 41L6 41L6 40L8 40L8 42L11 42L11 43L9 43L9 44L7 44L7 43L5 43L5 44L3 44L3 45L2 45L2 44L1 44L1 47L2 47L2 46L3 46L3 47L5 47L5 44L7 44L7 45L6 45L6 46L7 46L7 45L9 45L9 44L11 44L11 45L10 45L10 46L12 46L12 44L13 44L13 42L11 42L11 41L10 41L10 40L9 40L9 39L11 39L11 38L13 38L13 37L11 37L11 33L12 33L12 34L13 34L13 32L14 32L14 33L15 33L15 34L17 34L17 36L15 36L15 35L14 35L14 42L15 42L15 41L16 41L16 42L17 42L17 43L18 43L18 42L19 42L19 41L18 41L18 40L17 40L17 39L18 39L18 37L17 37L17 36L19 36L19 37L23 37L23 38L21 38L21 40L20 40L20 42L21 42L21 43L20 43L20 44L21 44L21 45L22 45L22 46L23 46L23 45L25 45L25 47L21 47L21 49L20 49L20 50L19 50L19 51L18 51L18 50L17 50L17 51L16 51L16 53L15 53L15 54L14 54L14 55L15 55L15 56L16 56L16 55L15 55L15 54L16 54L16 53L17 53L17 52L19 52L19 51L20 51L20 50L21 50L21 49L23 49L23 48L24 48L24 49L26 49L26 48L27 48L27 47L26 47L26 45L27 45L27 46L31 46L31 48L32 48L32 49L31 49L31 50L36 50L36 52L37 52L37 53L38 53L38 54L37 54L37 56L39 56L39 55L38 55L38 54L40 54L40 53L41 53L41 52L42 52L42 53L43 53L43 54L44 54L44 55L45 55L45 54L47 54L47 53L48 53L48 50L47 50L47 49L48 49L48 48L49 48L49 47L48 47L48 45L49 45L49 46L50 46L50 47L51 47L51 46L50 46L50 45L49 45L49 44L50 44L50 43L51 43L51 45L52 45L52 48L53 48L53 47L54 47L54 46L56 46L56 45L55 45L55 44L54 44L54 45L52 45L52 44L53 44L53 43L54 43L54 42L53 42L53 41L54 41L54 40L53 40L53 41L51 41L51 42L50 42L50 43L47 43L47 45L45 45L45 44L46 44L46 42L48 42L48 41L49 41L49 38L48 38L48 39L47 39L47 37L48 37L48 36L49 36L49 37L50 37L50 39L51 39L51 40L52 40L52 39L53 39L53 35L55 35L55 34L54 34L54 33L52 33L52 32L53 32L53 31L52 31L52 32L51 32L51 31L48 31L48 30L47 30L47 29L46 29L46 30L47 30L47 31L46 31L46 32L43 32L43 31L44 31L44 29L45 29L45 28L46 28L46 27L47 27L47 25L46 25L46 24L45 24L45 22L47 22L47 21L45 21L45 20L47 20L47 19L46 19L46 18L47 18L47 17L46 17L46 15L44 15L44 18L43 18L43 20L44 20L44 23L43 23L43 22L41 22L41 24L39 24L39 23L40 23L40 22L39 22L39 21L42 21L42 20L39 20L39 21L38 21L38 20L37 20L37 19L39 19L39 17L41 17L41 16L42 16L42 17L43 17L43 16L42 16L42 15L43 15L43 14L47 14L47 13L49 13L49 12L50 12L50 14L49 14L49 15L48 15L48 16L49 16L49 17L50 17L50 19L52 19L52 20L51 20L51 21L49 21L49 20L48 20L48 21L49 21L49 23L47 23L47 24L49 24L49 23L50 23L50 26L51 26L51 25L53 25L53 23L50 23L50 22L51 22L51 21L54 21L54 23L55 23L55 22L56 22L56 21L55 21L55 20L56 20L56 19L55 19L55 20L53 20L53 19L52 19L52 17L53 17L53 18L55 18L55 17L53 17L53 15L55 15L55 14L56 14L56 11L55 11L55 12L54 12L54 13L53 13L53 12L52 12L52 13L53 13L53 15L50 15L50 14L51 14L51 12L50 12L50 11L49 11L49 10L48 10L48 11L49 11L49 12L45 12L45 11L41 11L41 12L40 12L40 11L39 11L39 10L41 10L41 9L44 9L44 10L47 10L47 9L45 9L45 8L42 8L42 5L40 5L40 6L39 6L39 7L40 7L40 8L38 8L38 11L39 11L39 13L38 13L38 14L37 14L37 13L36 13L36 14L37 14L37 15L35 15L35 16L32 16L32 15L31 15L31 14L30 14L30 13L31 13L31 12L32 12L32 14L35 14L35 11L36 11L36 10L37 10L37 9L35 9L35 8L37 8L37 7L36 7L36 5L37 5L37 4L36 4L36 5L35 5L35 4L33 4L33 3L32 3L32 1L30 1L30 2L31 2L31 3L32 3L32 4L31 4L31 8L32 8L32 10L31 10L31 11L29 11L29 10L27 10L27 11L26 11L26 12L25 12L25 11L23 11L23 13L22 13L22 12L21 12L21 13L20 13L20 11L22 11L22 10L23 10L23 9L25 9L25 8L26 8L26 4L30 4L30 3L28 3L28 2L22 2L22 1L21 1L21 2L20 2L20 1L19 1L19 2L18 2L18 3L19 3L19 4L17 4L17 3L15 3L15 2L14 2L14 1ZM46 1L46 2L47 2L47 1ZM19 2L19 3L20 3L20 2ZM21 2L21 3L22 3L22 2ZM23 3L23 4L19 4L19 5L20 5L20 7L19 7L19 6L18 6L18 5L17 5L17 6L16 6L16 7L17 7L17 6L18 6L18 7L19 7L19 8L21 8L21 5L22 5L22 7L23 7L23 6L24 6L24 8L25 8L25 4L26 4L26 3ZM44 3L44 6L43 6L43 7L44 7L44 6L45 6L45 7L46 7L46 6L45 6L45 4L46 4L46 5L47 5L47 3ZM15 4L15 5L16 5L16 4ZM23 4L23 5L24 5L24 4ZM32 4L32 5L33 5L33 6L32 6L32 7L33 7L33 9L34 9L34 8L35 8L35 5L33 5L33 4ZM27 5L27 8L30 8L30 5ZM10 6L10 7L11 7L11 6ZM28 6L28 7L29 7L29 6ZM33 6L33 7L34 7L34 6ZM40 6L40 7L41 7L41 6ZM48 6L48 7L49 7L49 6ZM6 8L6 9L8 9L8 10L9 10L9 8ZM51 8L51 9L52 9L52 10L53 10L53 9L54 9L54 8L53 8L53 9L52 9L52 8ZM55 8L55 9L56 9L56 8ZM21 9L21 10L22 10L22 9ZM32 10L32 11L33 11L33 10ZM13 11L13 12L14 12L14 11ZM27 11L27 12L26 12L26 13L23 13L23 14L22 14L22 13L21 13L21 15L18 15L18 16L16 16L16 13L17 13L17 12L16 12L16 13L15 13L15 14L13 14L13 15L12 15L12 17L11 17L11 18L12 18L12 17L14 17L14 18L15 18L15 21L16 21L16 22L15 22L15 23L11 23L11 21L10 21L10 22L9 22L9 23L10 23L10 24L9 24L9 25L10 25L10 26L11 26L11 27L10 27L10 28L12 28L12 30L13 30L13 31L14 31L14 30L13 30L13 28L12 28L12 27L14 27L14 29L15 29L15 33L16 33L16 32L17 32L17 33L18 33L18 34L19 34L19 35L21 35L21 36L23 36L23 37L24 37L24 38L23 38L23 39L24 39L24 40L23 40L23 42L22 42L22 43L21 43L21 44L22 44L22 45L23 45L23 44L27 44L27 45L29 45L29 44L30 44L30 45L32 45L32 48L33 48L33 49L36 49L36 50L38 50L38 53L39 53L39 51L40 51L40 52L41 52L41 50L42 50L42 51L43 51L43 53L44 53L44 54L45 54L45 53L47 53L47 51L44 51L44 50L45 50L45 49L47 49L47 48L48 48L48 47L47 47L47 46L44 46L44 44L43 44L43 42L45 42L45 41L43 41L43 40L45 40L45 39L42 39L42 41L39 41L39 42L38 42L38 40L41 40L41 39L38 39L38 37L37 37L37 36L38 36L38 33L37 33L37 32L35 32L35 34L32 34L32 32L31 32L31 33L29 33L29 32L30 32L30 31L31 31L31 30L32 30L32 31L33 31L33 32L34 32L34 31L36 31L36 30L32 30L32 28L31 28L31 26L32 26L32 27L33 27L33 28L35 28L35 29L38 29L38 28L39 28L39 27L41 27L41 28L42 28L42 26L43 26L43 25L44 25L44 26L45 26L45 27L44 27L44 28L43 28L43 29L39 29L39 30L38 30L38 32L39 32L39 31L40 31L40 30L43 30L43 29L44 29L44 28L45 28L45 27L46 27L46 26L45 26L45 25L44 25L44 24L41 24L41 25L42 25L42 26L40 26L40 25L39 25L39 24L37 24L37 23L38 23L38 21L37 21L37 20L36 20L36 19L35 19L35 18L33 18L33 17L32 17L32 16L31 16L31 15L30 15L30 14L29 14L29 13L28 13L28 12L29 12L29 11ZM2 12L2 13L1 13L1 14L2 14L2 13L3 13L3 15L4 15L4 13L3 13L3 12ZM33 12L33 13L34 13L34 12ZM43 12L43 13L41 13L41 14L43 14L43 13L44 13L44 12ZM26 13L26 16L23 16L23 15L24 15L24 14L23 14L23 15L21 15L21 16L20 16L20 18L18 18L18 17L15 17L15 15L14 15L14 17L15 17L15 18L18 18L18 19L19 19L19 20L20 20L20 21L19 21L19 22L20 22L20 23L18 23L18 24L19 24L19 25L20 25L20 26L18 26L18 27L16 27L16 28L15 28L15 29L16 29L16 30L18 30L18 29L20 29L20 30L19 30L19 31L17 31L17 32L21 32L21 33L20 33L20 34L21 34L21 33L22 33L22 35L23 35L23 36L24 36L24 34L23 34L23 33L25 33L25 34L26 34L26 35L27 35L27 37L25 37L25 38L26 38L26 39L25 39L25 40L24 40L24 41L25 41L25 43L27 43L27 44L28 44L28 43L29 43L29 42L30 42L30 41L29 41L29 40L32 40L32 41L31 41L31 42L32 42L32 43L31 43L31 44L32 44L32 45L33 45L33 46L36 46L36 47L35 47L35 48L36 48L36 47L37 47L37 46L36 46L36 45L34 45L34 43L35 43L35 44L36 44L36 43L37 43L37 42L35 42L35 40L38 40L38 39L35 39L35 40L33 40L33 39L29 39L29 38L31 38L31 37L29 37L29 36L30 36L30 34L29 34L29 33L28 33L28 31L27 31L27 33L26 33L26 31L23 31L23 28L25 28L25 29L26 29L26 28L25 28L25 27L26 27L26 26L27 26L27 25L28 25L28 26L30 26L30 25L29 25L29 24L32 24L32 26L33 26L33 27L34 27L34 26L36 26L36 27L35 27L35 28L36 28L36 27L39 27L39 25L38 25L38 26L37 26L37 25L33 25L33 24L32 24L32 23L33 23L33 22L34 22L34 23L35 23L35 20L34 20L34 19L33 19L33 20L32 20L32 21L31 21L31 22L30 22L30 21L29 21L29 20L31 20L31 18L32 18L32 17L31 17L31 18L30 18L30 19L28 19L28 18L27 18L27 19L26 19L26 16L27 16L27 17L28 17L28 16L29 16L29 14L28 14L28 13ZM6 14L6 15L7 15L7 14ZM38 14L38 15L39 15L39 16L38 16L38 17L37 17L37 16L35 16L35 17L37 17L37 18L38 18L38 17L39 17L39 16L41 16L41 15L39 15L39 14ZM27 15L27 16L28 16L28 15ZM49 15L49 16L50 16L50 15ZM21 16L21 17L22 17L22 18L20 18L20 20L21 20L21 19L22 19L22 20L24 20L24 21L22 21L22 23L23 23L23 25L22 25L22 24L20 24L20 25L22 25L22 26L20 26L20 27L22 27L22 26L26 26L26 25L25 25L25 24L28 24L28 23L27 23L27 22L28 22L28 21L25 21L25 20L26 20L26 19L25 19L25 17L22 17L22 16ZM4 17L4 18L5 18L5 17ZM45 17L45 18L44 18L44 20L45 20L45 18L46 18L46 17ZM6 18L6 19L7 19L7 18ZM23 18L23 19L24 19L24 18ZM41 18L41 19L42 19L42 18ZM48 18L48 19L49 19L49 18ZM16 19L16 21L17 21L17 22L18 22L18 21L17 21L17 19ZM27 19L27 20L28 20L28 19ZM33 20L33 21L34 21L34 20ZM13 21L13 22L14 22L14 21ZM24 21L24 22L23 22L23 23L24 23L24 24L25 24L25 23L26 23L26 22L25 22L25 21ZM4 22L4 23L3 23L3 24L4 24L4 23L5 23L5 24L6 24L6 25L7 25L7 24L8 24L8 23L7 23L7 22ZM29 22L29 23L30 23L30 22ZM6 23L6 24L7 24L7 23ZM15 23L15 24L12 24L12 25L11 25L11 26L14 26L14 27L15 27L15 26L17 26L17 24L16 24L16 23ZM53 26L53 27L54 27L54 26ZM5 27L5 30L8 30L8 27ZM27 27L27 30L30 30L30 27ZM49 27L49 30L52 30L52 27ZM6 28L6 29L7 29L7 28ZM16 28L16 29L18 29L18 28ZM21 28L21 29L22 29L22 28ZM28 28L28 29L29 29L29 28ZM50 28L50 29L51 29L51 28ZM54 28L54 29L53 29L53 30L54 30L54 31L55 31L55 30L54 30L54 29L56 29L56 28ZM2 29L2 30L3 30L3 31L4 31L4 29ZM21 31L21 32L23 32L23 31ZM47 31L47 32L48 32L48 33L49 33L49 32L48 32L48 31ZM41 32L41 33L39 33L39 34L40 34L40 35L39 35L39 37L40 37L40 38L43 38L43 37L44 37L44 38L45 38L45 37L46 37L46 36L47 36L47 35L46 35L46 34L45 34L45 33L43 33L43 32ZM50 32L50 34L49 34L49 35L50 35L50 37L52 37L52 35L53 35L53 34L52 34L52 33L51 33L51 32ZM35 34L35 36L37 36L37 34ZM42 34L42 36L40 36L40 37L42 37L42 36L44 36L44 37L45 37L45 36L46 36L46 35L45 35L45 34ZM50 34L50 35L52 35L52 34ZM12 35L12 36L13 36L13 35ZM33 35L33 36L32 36L32 37L33 37L33 38L35 38L35 37L33 37L33 36L34 36L34 35ZM44 35L44 36L45 36L45 35ZM9 37L9 38L11 38L11 37ZM15 37L15 38L16 38L16 37ZM27 37L27 38L28 38L28 37ZM0 38L0 40L1 40L1 41L2 41L2 40L1 40L1 38ZM19 38L19 39L20 39L20 38ZM51 38L51 39L52 39L52 38ZM54 38L54 39L55 39L55 38ZM15 39L15 40L16 40L16 41L17 41L17 42L18 42L18 41L17 41L17 40L16 40L16 39ZM26 39L26 40L28 40L28 39ZM46 39L46 40L47 40L47 39ZM26 41L26 42L27 42L27 41ZM32 41L32 42L33 42L33 43L32 43L32 44L33 44L33 43L34 43L34 42L33 42L33 41ZM51 42L51 43L53 43L53 42ZM11 43L11 44L12 44L12 43ZM39 43L39 44L40 44L40 45L41 45L41 44L42 44L42 43L41 43L41 44L40 44L40 43ZM17 44L17 45L18 45L18 44ZM3 45L3 46L4 46L4 45ZM38 45L38 46L39 46L39 47L38 47L38 48L37 48L37 49L38 49L38 50L41 50L41 48L42 48L42 49L43 49L43 48L44 48L44 49L45 49L45 48L46 48L46 47L45 47L45 48L44 48L44 47L43 47L43 46L41 46L41 48L39 48L39 47L40 47L40 46L39 46L39 45ZM29 47L29 48L30 48L30 47ZM33 47L33 48L34 48L34 47ZM42 47L42 48L43 48L43 47ZM14 48L14 49L15 49L15 48ZM38 48L38 49L39 49L39 48ZM54 48L54 49L56 49L56 48ZM27 49L27 52L30 52L30 49ZM49 49L49 52L52 52L52 49ZM28 50L28 51L29 51L29 50ZM50 50L50 51L51 51L51 50ZM31 51L31 53L30 53L30 54L25 54L25 53L24 53L24 54L23 54L23 55L24 55L24 56L26 56L26 55L27 55L27 56L29 56L29 55L30 55L30 56L31 56L31 54L32 54L32 53L33 53L33 54L34 54L34 55L35 55L35 56L36 56L36 54L35 54L35 52L34 52L34 51L33 51L33 52L32 52L32 51ZM8 52L8 57L9 57L9 55L10 55L10 53L11 53L11 52ZM13 52L13 53L14 53L14 52ZM44 52L44 53L45 53L45 52ZM50 55L50 56L51 56L51 55ZM53 55L53 56L55 56L55 57L56 57L56 56L55 56L55 55ZM0 0L0 7L7 7L7 0ZM1 1L1 6L6 6L6 1ZM2 2L2 5L5 5L5 2ZM50 0L50 7L57 7L57 0ZM51 1L51 6L56 6L56 1ZM52 2L52 5L55 5L55 2ZM0 50L0 57L7 57L7 50ZM1 51L1 56L6 56L6 51ZM2 52L2 55L5 55L5 52Z" fill="#000000"/></g></g></svg>
