<?xml version="1.0" encoding="UTF-8"?>
<svg xmlns="http://www.w3.org/2000/svg" version="1.1" width="300" height="300" viewBox="0 0 300 300"><rect x="0" y="0" width="300" height="300" fill="#fefefe"/><g transform="scale(4.615)"><g transform="translate(4,4)"><path fill-rule="evenodd" d="M10 0L10 3L8 3L8 4L10 4L10 3L11 3L11 4L12 4L12 5L8 5L8 7L9 7L9 8L6 8L6 9L5 9L5 8L0 8L0 10L3 10L3 11L4 11L4 12L2 12L2 11L1 11L1 12L0 12L0 14L4 14L4 15L1 15L1 16L0 16L0 18L1 18L1 19L0 19L0 22L1 22L1 21L2 21L2 22L3 22L3 21L2 21L2 17L1 17L1 16L4 16L4 17L3 17L3 18L5 18L5 17L7 17L7 18L6 18L6 19L5 19L5 20L6 20L6 21L7 21L7 22L4 22L4 23L8 23L8 24L9 24L9 21L8 21L8 18L9 18L9 20L10 20L10 19L11 19L11 21L12 21L12 22L11 22L11 23L10 23L10 25L11 25L11 27L10 27L10 28L9 28L9 25L7 25L7 24L3 24L3 25L1 25L1 23L0 23L0 27L2 27L2 29L0 29L0 32L1 32L1 34L0 34L0 36L1 36L1 40L0 40L0 41L1 41L1 42L2 42L2 44L1 44L1 43L0 43L0 45L1 45L1 46L0 46L0 48L5 48L5 47L7 47L7 48L6 48L6 49L8 49L8 51L9 51L9 52L8 52L8 57L10 57L10 56L11 56L11 57L14 57L14 56L13 56L13 55L16 55L16 56L17 56L17 57L20 57L20 56L18 56L18 55L20 55L20 54L19 54L19 53L20 53L20 52L22 52L22 51L20 51L20 50L19 50L19 49L21 49L21 50L25 50L25 49L26 49L26 52L24 52L24 53L23 53L23 54L21 54L21 55L23 55L23 56L24 56L24 57L26 57L26 56L24 56L24 55L23 55L23 54L24 54L24 53L25 53L25 55L26 55L26 53L27 53L27 54L30 54L30 53L31 53L31 51L32 51L32 52L33 52L33 53L32 53L32 54L31 54L31 56L30 56L30 55L29 55L29 56L27 56L27 57L29 57L29 56L30 56L30 57L31 57L31 56L35 56L35 57L39 57L39 56L41 56L41 57L44 57L44 54L45 54L45 53L47 53L47 50L48 50L48 54L47 54L47 55L45 55L45 57L47 57L47 55L49 55L49 56L50 56L50 57L52 57L52 55L51 55L51 53L52 53L52 54L55 54L55 52L56 52L56 53L57 53L57 52L56 52L56 50L57 50L57 48L56 48L56 46L57 46L57 45L56 45L56 44L55 44L55 43L56 43L56 42L57 42L57 41L56 41L56 42L55 42L55 39L57 39L57 36L55 36L55 35L56 35L56 34L55 34L55 32L56 32L56 33L57 33L57 32L56 32L56 30L57 30L57 29L56 29L56 28L57 28L57 27L55 27L55 26L57 26L57 25L56 25L56 22L57 22L57 21L56 21L56 20L57 20L57 19L56 19L56 18L53 18L53 17L56 17L56 16L57 16L57 15L56 15L56 14L57 14L57 13L56 13L56 14L55 14L55 13L54 13L54 12L55 12L55 11L56 11L56 12L57 12L57 11L56 11L56 10L54 10L54 11L52 11L52 10L53 10L53 9L54 9L54 8L53 8L53 9L52 9L52 8L51 8L51 9L52 9L52 10L49 10L49 9L50 9L50 8L49 8L49 9L48 9L48 8L47 8L47 5L48 5L48 0L46 0L46 1L45 1L45 2L44 2L44 3L42 3L42 2L43 2L43 0L41 0L41 1L40 1L40 0L39 0L39 1L38 1L38 0L37 0L37 1L38 1L38 4L37 4L37 3L36 3L36 0L35 0L35 1L32 1L32 3L31 3L31 4L28 4L28 3L29 3L29 2L28 2L28 1L25 1L25 0L23 0L23 2L22 2L22 0L21 0L21 1L20 1L20 0L19 0L19 1L17 1L17 4L19 4L19 5L20 5L20 7L19 7L19 6L18 6L18 5L17 5L17 6L16 6L16 7L15 7L15 5L16 5L16 4L15 4L15 5L14 5L14 8L12 8L12 7L13 7L13 6L12 6L12 5L13 5L13 4L14 4L14 2L16 2L16 1L14 1L14 0L13 0L13 1L12 1L12 0ZM29 0L29 1L30 1L30 2L31 2L31 0ZM8 1L8 2L9 2L9 1ZM11 1L11 2L12 2L12 1ZM13 1L13 2L14 2L14 1ZM19 1L19 2L18 2L18 3L19 3L19 4L22 4L22 5L21 5L21 7L22 7L22 8L19 8L19 7L18 7L18 6L17 6L17 7L16 7L16 8L14 8L14 10L15 10L15 11L18 11L18 9L16 9L16 8L17 8L17 7L18 7L18 8L19 8L19 9L20 9L20 14L17 14L17 13L18 13L18 12L17 12L17 13L16 13L16 12L15 12L15 13L13 13L13 12L14 12L14 11L13 11L13 12L12 12L12 11L11 11L11 7L12 7L12 6L11 6L11 7L10 7L10 6L9 6L9 7L10 7L10 9L8 9L8 10L7 10L7 9L6 9L6 10L7 10L7 11L5 11L5 12L7 12L7 11L8 11L8 10L10 10L10 11L9 11L9 12L8 12L8 13L6 13L6 14L8 14L8 17L9 17L9 16L12 16L12 18L13 18L13 19L14 19L14 20L12 20L12 21L14 21L14 22L16 22L16 21L17 21L17 22L18 22L18 21L17 21L17 20L16 20L16 21L15 21L15 18L16 18L16 19L17 19L17 18L18 18L18 19L20 19L20 21L19 21L19 22L20 22L20 23L19 23L19 24L21 24L21 25L17 25L17 24L18 24L18 23L17 23L17 24L16 24L16 23L11 23L11 25L12 25L12 28L11 28L11 29L9 29L9 31L6 31L6 32L4 32L4 33L3 33L3 32L2 32L2 31L1 31L1 32L2 32L2 33L3 33L3 34L2 34L2 35L1 35L1 36L2 36L2 35L3 35L3 37L4 37L4 36L5 36L5 38L4 38L4 40L5 40L5 41L6 41L6 42L8 42L8 45L5 45L5 46L4 46L4 45L3 45L3 44L2 44L2 45L3 45L3 47L5 47L5 46L9 46L9 47L10 47L10 45L11 45L11 46L12 46L12 47L14 47L14 46L12 46L12 45L14 45L14 44L15 44L15 47L16 47L16 48L12 48L12 49L11 49L11 48L9 48L9 50L10 50L10 49L11 49L11 51L12 51L12 53L14 53L14 54L16 54L16 53L17 53L17 52L19 52L19 50L17 50L17 48L19 48L19 47L20 47L20 48L21 48L21 49L23 49L23 47L25 47L25 48L24 48L24 49L25 49L25 48L30 48L30 47L29 47L29 46L30 46L30 44L28 44L28 43L27 43L27 42L32 42L32 43L33 43L33 44L32 44L32 46L31 46L31 48L32 48L32 49L31 49L31 50L32 50L32 51L33 51L33 52L34 52L34 53L33 53L33 55L35 55L35 56L36 56L36 54L35 54L35 50L36 50L36 52L37 52L37 51L38 51L38 50L41 50L41 51L42 51L42 50L41 50L41 48L42 48L42 49L43 49L43 50L44 50L44 49L45 49L45 50L47 50L47 49L48 49L48 48L49 48L49 47L52 47L52 48L54 48L54 49L55 49L55 50L54 50L54 51L55 51L55 50L56 50L56 48L54 48L54 47L55 47L55 46L56 46L56 45L55 45L55 44L54 44L54 45L55 45L55 46L54 46L54 47L53 47L53 45L52 45L52 44L53 44L53 43L54 43L54 42L53 42L53 41L54 41L54 40L53 40L53 41L51 41L51 42L50 42L50 43L47 43L47 45L45 45L45 44L46 44L46 43L44 43L44 41L45 41L45 42L48 42L48 41L49 41L49 40L50 40L50 39L51 39L51 38L53 38L53 35L55 35L55 34L54 34L54 33L52 33L52 32L53 32L53 31L55 31L55 30L53 30L53 31L52 31L52 32L51 32L51 33L52 33L52 34L50 34L50 32L49 32L49 31L48 31L48 30L47 30L47 29L46 29L46 30L47 30L47 31L46 31L46 32L43 32L43 30L44 30L44 29L45 29L45 28L46 28L46 27L48 27L48 26L47 26L47 25L48 25L48 24L51 24L51 25L50 25L50 26L52 26L52 25L54 25L54 24L51 24L51 23L50 23L50 22L51 22L51 21L54 21L54 23L55 23L55 22L56 22L56 21L55 21L55 20L56 20L56 19L55 19L55 20L53 20L53 19L52 19L52 18L51 18L51 17L53 17L53 16L51 16L51 17L50 17L50 14L51 14L51 12L50 12L50 11L48 11L48 10L47 10L47 9L45 9L45 7L46 7L46 6L45 6L45 4L46 4L46 5L47 5L47 3L44 3L44 6L43 6L43 5L40 5L40 4L41 4L41 3L39 3L39 4L38 4L38 6L37 6L37 7L36 7L36 5L37 5L37 4L36 4L36 5L35 5L35 4L34 4L34 3L35 3L35 2L33 2L33 3L32 3L32 4L31 4L31 8L32 8L32 10L31 10L31 11L30 11L30 10L28 10L28 11L29 11L29 12L28 12L28 13L26 13L26 12L27 12L27 11L26 11L26 12L25 12L25 10L23 10L23 9L24 9L24 6L23 6L23 5L24 5L24 4L23 4L23 3L26 3L26 4L25 4L25 8L26 8L26 4L27 4L27 3L28 3L28 2L23 2L23 3L22 3L22 2L20 2L20 1ZM46 1L46 2L47 2L47 1ZM12 3L12 4L13 4L13 3ZM32 4L32 5L34 5L34 7L33 7L33 6L32 6L32 7L33 7L33 9L34 9L34 8L35 8L35 9L37 9L37 10L36 10L36 11L37 11L37 12L35 12L35 13L36 13L36 14L32 14L32 12L33 12L33 13L34 13L34 12L33 12L33 10L32 10L32 11L31 11L31 13L30 13L30 14L29 14L29 13L28 13L28 14L29 14L29 16L28 16L28 15L27 15L27 16L28 16L28 17L27 17L27 18L28 18L28 19L27 19L27 20L28 20L28 19L29 19L29 20L30 20L30 18L31 18L31 21L29 21L29 25L30 25L30 26L28 26L28 25L27 25L27 26L26 26L26 25L25 25L25 24L28 24L28 23L27 23L27 22L28 22L28 21L25 21L25 20L26 20L26 19L25 19L25 17L26 17L26 15L25 15L25 17L22 17L22 16L21 16L21 17L22 17L22 18L20 18L20 16L17 16L17 17L18 17L18 18L20 18L20 19L21 19L21 20L24 20L24 21L21 21L21 22L22 22L22 23L21 23L21 24L23 24L23 25L21 25L21 26L19 26L19 27L22 27L22 26L23 26L23 28L24 28L24 29L23 29L23 30L24 30L24 32L28 32L28 33L29 33L29 34L30 34L30 36L29 36L29 37L31 37L31 38L29 38L29 39L33 39L33 40L35 40L35 42L37 42L37 43L36 43L36 44L35 44L35 43L34 43L34 42L33 42L33 41L32 41L32 40L30 40L30 41L32 41L32 42L33 42L33 43L34 43L34 45L35 45L35 46L32 46L32 47L33 47L33 49L32 49L32 50L33 50L33 51L34 51L34 50L33 50L33 49L36 49L36 50L38 50L38 49L39 49L39 48L41 48L41 46L43 46L43 47L42 47L42 48L43 48L43 49L44 49L44 48L45 48L45 47L46 47L46 48L48 48L48 47L49 47L49 44L48 44L48 47L47 47L47 46L45 46L45 45L44 45L44 44L43 44L43 41L44 41L44 40L45 40L45 39L46 39L46 40L47 40L47 39L48 39L48 38L47 38L47 39L46 39L46 38L45 38L45 37L47 37L47 36L49 36L49 35L50 35L50 37L52 37L52 35L53 35L53 34L52 34L52 35L50 35L50 34L49 34L49 35L46 35L46 34L45 34L45 33L43 33L43 32L41 32L41 33L39 33L39 34L40 34L40 35L38 35L38 33L37 33L37 32L35 32L35 34L34 34L34 36L35 36L35 39L33 39L33 37L32 37L32 36L33 36L33 34L32 34L32 32L31 32L31 33L29 33L29 32L30 32L30 31L32 31L32 30L33 30L33 31L36 31L36 30L37 30L37 29L38 29L38 28L40 28L40 27L36 27L36 26L34 26L34 27L33 27L33 26L32 26L32 24L33 24L33 25L37 25L37 26L38 26L38 25L39 25L39 26L41 26L41 28L42 28L42 26L43 26L43 27L44 27L44 28L43 28L43 29L40 29L40 30L43 30L43 29L44 29L44 28L45 28L45 27L46 27L46 26L43 26L43 25L44 25L44 24L43 24L43 23L44 23L44 20L45 20L45 21L47 21L47 22L45 22L45 25L46 25L46 24L47 24L47 23L49 23L49 21L51 21L51 20L52 20L52 19L51 19L51 18L50 18L50 17L49 17L49 16L48 16L48 15L49 15L49 14L50 14L50 12L49 12L49 13L47 13L47 14L44 14L44 12L43 12L43 13L39 13L39 12L41 12L41 10L43 10L43 11L45 11L45 12L47 12L47 10L45 10L45 9L44 9L44 8L43 8L43 6L42 6L42 7L41 7L41 6L40 6L40 5L39 5L39 6L38 6L38 7L37 7L37 8L35 8L35 5L34 5L34 4ZM27 5L27 8L30 8L30 5ZM22 6L22 7L23 7L23 6ZM28 6L28 7L29 7L29 6ZM39 6L39 7L40 7L40 8L38 8L38 11L39 11L39 10L40 10L40 9L42 9L42 8L41 8L41 7L40 7L40 6ZM44 6L44 7L45 7L45 6ZM48 6L48 7L49 7L49 6ZM55 8L55 9L56 9L56 8ZM4 9L4 10L5 10L5 9ZM12 9L12 10L13 10L13 9ZM21 9L21 10L22 10L22 11L21 11L21 12L22 12L22 13L21 13L21 14L20 14L20 15L24 15L24 14L26 14L26 13L24 13L24 12L23 12L23 10L22 10L22 9ZM10 11L10 12L9 12L9 14L10 14L10 15L11 15L11 14L12 14L12 15L13 15L13 13L12 13L12 12L11 12L11 11ZM1 12L1 13L2 13L2 12ZM52 12L52 13L53 13L53 12ZM4 13L4 14L5 14L5 13ZM15 13L15 14L14 14L14 16L13 16L13 17L14 17L14 16L15 16L15 17L16 17L16 13ZM22 13L22 14L24 14L24 13ZM38 13L38 14L37 14L37 15L35 15L35 16L33 16L33 15L32 15L32 17L31 17L31 18L32 18L32 17L33 17L33 19L34 19L34 20L32 20L32 21L31 21L31 22L30 22L30 24L32 24L32 23L33 23L33 22L34 22L34 23L35 23L35 21L34 21L34 20L35 20L35 19L36 19L36 20L37 20L37 21L38 21L38 22L37 22L37 24L39 24L39 25L41 25L41 24L42 24L42 25L43 25L43 24L42 24L42 22L41 22L41 24L39 24L39 23L40 23L40 22L39 22L39 21L41 21L41 20L39 20L39 21L38 21L38 19L39 19L39 17L41 17L41 16L42 16L42 17L43 17L43 16L42 16L42 15L44 15L44 18L43 18L43 19L42 19L42 18L41 18L41 19L42 19L42 20L44 20L44 18L47 18L47 21L49 21L49 20L48 20L48 19L50 19L50 18L47 18L47 17L48 17L48 16L47 16L47 15L46 15L46 17L45 17L45 15L44 15L44 14L41 14L41 16L39 16L39 15L38 15L38 14L39 14L39 13ZM30 14L30 15L31 15L31 14ZM53 14L53 15L55 15L55 14ZM4 15L4 16L7 16L7 15ZM35 16L35 17L37 17L37 18L38 18L38 17L39 17L39 16L38 16L38 17L37 17L37 16ZM10 17L10 18L11 18L11 17ZM22 18L22 19L24 19L24 18ZM3 19L3 20L4 20L4 19ZM6 19L6 20L7 20L7 19ZM24 21L24 22L23 22L23 23L24 23L24 24L25 24L25 23L26 23L26 22L25 22L25 21ZM38 22L38 23L39 23L39 22ZM12 24L12 25L14 25L14 26L13 26L13 28L14 28L14 30L13 30L13 29L12 29L12 30L11 30L11 31L12 31L12 32L11 32L11 33L12 33L12 34L11 34L11 35L10 35L10 34L9 34L9 35L8 35L8 36L6 36L6 35L7 35L7 34L6 34L6 33L7 33L7 32L6 32L6 33L5 33L5 34L6 34L6 35L5 35L5 36L6 36L6 37L7 37L7 38L5 38L5 40L6 40L6 41L11 41L11 42L13 42L13 41L11 41L11 39L13 39L13 38L16 38L16 37L13 37L13 38L12 38L12 35L13 35L13 36L14 36L14 34L15 34L15 33L18 33L18 34L16 34L16 35L18 35L18 34L19 34L19 35L20 35L20 36L22 36L22 35L23 35L23 34L24 34L24 36L23 36L23 37L24 37L24 38L22 38L22 39L21 39L21 37L19 37L19 36L17 36L17 37L19 37L19 38L20 38L20 39L19 39L19 40L18 40L18 39L17 39L17 40L18 40L18 41L17 41L17 42L15 42L15 41L14 41L14 42L15 42L15 44L18 44L18 45L17 45L17 46L20 46L20 45L21 45L21 47L23 47L23 46L25 46L25 44L27 44L27 45L26 45L26 47L28 47L28 46L27 46L27 45L28 45L28 44L27 44L27 43L25 43L25 44L24 44L24 43L23 43L23 42L25 42L25 41L23 41L23 42L22 42L22 43L21 43L21 44L20 44L20 43L19 43L19 42L20 42L20 41L21 41L21 40L22 40L22 39L24 39L24 40L25 40L25 37L26 37L26 39L27 39L27 40L28 40L28 39L27 39L27 38L28 38L28 37L27 37L27 33L26 33L26 35L25 35L25 33L23 33L23 34L22 34L22 33L21 33L21 34L22 34L22 35L20 35L20 33L19 33L19 32L15 32L15 31L16 31L16 29L18 29L18 31L21 31L21 32L23 32L23 31L21 31L21 30L20 30L20 29L22 29L22 28L19 28L19 29L18 29L18 28L16 28L16 29L15 29L15 27L16 27L16 26L15 26L15 25L16 25L16 24L15 24L15 25L14 25L14 24ZM3 25L3 26L2 26L2 27L3 27L3 30L4 30L4 26L7 26L7 25ZM17 26L17 27L18 27L18 26ZM25 26L25 27L24 27L24 28L25 28L25 29L26 29L26 28L25 28L25 27L26 27L26 26ZM31 26L31 28L32 28L32 29L33 29L33 30L35 30L35 28L33 28L33 27L32 27L32 26ZM53 26L53 27L54 27L54 26ZM5 27L5 30L8 30L8 27ZM27 27L27 30L30 30L30 27ZM49 27L49 30L52 30L52 27ZM6 28L6 29L7 29L7 28ZM28 28L28 29L29 29L29 28ZM50 28L50 29L51 29L51 28ZM54 28L54 29L55 29L55 28ZM14 30L14 31L15 31L15 30ZM38 30L38 32L39 32L39 30ZM47 31L47 32L48 32L48 33L49 33L49 32L48 32L48 31ZM8 32L8 33L9 33L9 32ZM12 32L12 33L13 33L13 34L14 34L14 33L15 33L15 32ZM3 34L3 35L4 35L4 34ZM35 34L35 36L37 36L37 34ZM42 34L42 35L43 35L43 36L44 36L44 37L43 37L43 38L42 38L42 39L41 39L41 38L40 38L40 37L41 37L41 36L40 36L40 37L39 37L39 36L38 36L38 38L37 38L37 39L35 39L35 40L38 40L38 42L39 42L39 45L38 45L38 46L39 46L39 45L41 45L41 44L42 44L42 43L40 43L40 42L41 42L41 41L42 41L42 40L44 40L44 39L45 39L45 38L44 38L44 37L45 37L45 36L44 36L44 35L45 35L45 34ZM9 35L9 36L10 36L10 37L9 37L9 38L7 38L7 39L6 39L6 40L7 40L7 39L8 39L8 40L10 40L10 39L11 39L11 38L10 38L10 37L11 37L11 36L10 36L10 35ZM2 38L2 40L3 40L3 38ZM9 38L9 39L10 39L10 38ZM49 38L49 39L50 39L50 38ZM54 38L54 39L55 39L55 38ZM14 39L14 40L16 40L16 39ZM38 39L38 40L39 40L39 39ZM19 40L19 41L18 41L18 42L17 42L17 43L18 43L18 42L19 42L19 41L20 41L20 40ZM26 41L26 42L27 42L27 41ZM4 42L4 43L5 43L5 44L7 44L7 43L5 43L5 42ZM9 42L9 44L11 44L11 45L12 45L12 44L14 44L14 43L10 43L10 42ZM51 42L51 43L50 43L50 44L51 44L51 43L53 43L53 42ZM19 44L19 45L20 45L20 44ZM21 44L21 45L22 45L22 46L23 46L23 45L22 45L22 44ZM36 45L36 46L37 46L37 45ZM51 45L51 46L52 46L52 45ZM1 46L1 47L2 47L2 46ZM44 46L44 47L43 47L43 48L44 48L44 47L45 47L45 46ZM35 47L35 48L36 48L36 47ZM38 47L38 48L37 48L37 49L38 49L38 48L39 48L39 47ZM12 49L12 51L13 51L13 52L14 52L14 53L16 53L16 52L17 52L17 50L15 50L15 49L14 49L14 50L13 50L13 49ZM27 49L27 52L30 52L30 49ZM49 49L49 52L52 52L52 49ZM28 50L28 51L29 51L29 50ZM50 50L50 51L51 51L51 50ZM39 51L39 52L38 52L38 54L40 54L40 53L41 53L41 52L40 52L40 51ZM45 51L45 52L44 52L44 53L43 53L43 52L42 52L42 53L43 53L43 54L44 54L44 53L45 53L45 52L46 52L46 51ZM9 52L9 54L10 54L10 55L11 55L11 56L12 56L12 55L13 55L13 54L10 54L10 53L11 53L11 52ZM53 52L53 53L54 53L54 52ZM17 54L17 55L18 55L18 54ZM37 55L37 56L39 56L39 55ZM41 55L41 56L43 56L43 55ZM50 55L50 56L51 56L51 55ZM53 55L53 56L55 56L55 57L56 57L56 56L55 56L55 55ZM0 0L0 7L7 7L7 0ZM1 1L1 6L6 6L6 1ZM2 2L2 5L5 5L5 2ZM50 0L50 7L57 7L57 0ZM51 1L51 6L56 6L56 1ZM52 2L52 5L55 5L55 2ZM0 50L0 57L7 57L7 50ZM1 51L1 56L6 56L6 51ZM2 52L2 55L5 55L5 52Z" fill="#000000"/></g></g></svg>
