<?xml version="1.0" encoding="UTF-8"?>
<svg xmlns="http://www.w3.org/2000/svg" version="1.1" width="300" height="300" viewBox="0 0 300 300"><rect x="0" y="0" width="300" height="300" fill="#fefefe"/><g transform="scale(4.615)"><g transform="translate(4,4)"><path fill-rule="evenodd" d="M8 0L8 1L9 1L9 0ZM11 0L11 1L10 1L10 2L8 2L8 5L9 5L9 4L10 4L10 7L9 7L9 6L8 6L8 7L9 7L9 8L8 8L8 9L7 9L7 8L6 8L6 9L7 9L7 10L5 10L5 9L4 9L4 8L0 8L0 9L1 9L1 10L3 10L3 9L4 9L4 12L3 12L3 13L2 13L2 12L0 12L0 14L1 14L1 15L0 15L0 17L2 17L2 19L1 19L1 18L0 18L0 19L1 19L1 21L0 21L0 22L1 22L1 23L2 23L2 22L1 22L1 21L2 21L2 19L3 19L3 20L4 20L4 24L5 24L5 25L7 25L7 24L8 24L8 26L4 26L4 27L3 27L3 26L2 26L2 27L1 27L1 26L0 26L0 27L1 27L1 28L0 28L0 30L3 30L3 29L1 29L1 28L2 28L2 27L3 27L3 28L4 28L4 31L3 31L3 32L4 32L4 33L3 33L3 34L4 34L4 35L2 35L2 36L1 36L1 34L2 34L2 33L1 33L1 34L0 34L0 38L1 38L1 45L0 45L0 48L5 48L5 47L7 47L7 46L6 46L6 45L8 45L8 46L10 46L10 47L9 47L9 48L8 48L8 50L9 50L9 48L10 48L10 51L9 51L9 52L10 52L10 53L8 53L8 57L11 57L11 56L12 56L12 57L15 57L15 56L16 56L16 57L18 57L18 56L19 56L19 55L20 55L20 57L23 57L23 56L22 56L22 55L23 55L23 54L25 54L25 55L24 55L24 56L26 56L26 54L27 54L27 53L29 53L29 54L31 54L31 55L30 55L30 56L31 56L31 57L32 57L32 55L34 55L34 56L33 56L33 57L36 57L36 55L38 55L38 57L43 57L43 55L44 55L44 54L45 54L45 56L46 56L46 57L47 57L47 56L46 56L46 55L49 55L49 56L48 56L48 57L51 57L51 54L52 54L52 53L53 53L53 55L55 55L55 54L56 54L56 53L57 53L57 52L55 52L55 50L53 50L53 48L54 48L54 47L57 47L57 44L53 44L53 46L54 46L54 47L53 47L53 48L50 48L50 47L51 47L51 45L50 45L50 46L49 46L49 47L48 47L48 46L46 46L46 48L45 48L45 47L43 47L43 45L42 45L42 43L43 43L43 42L42 42L42 41L40 41L40 39L41 39L41 40L44 40L44 44L49 44L49 43L50 43L50 42L51 42L51 44L52 44L52 43L53 43L53 42L54 42L54 43L56 43L56 41L57 41L57 40L56 40L56 41L55 41L55 42L54 42L54 41L53 41L53 40L55 40L55 38L56 38L56 39L57 39L57 38L56 38L56 36L57 36L57 34L56 34L56 33L57 33L57 31L56 31L56 30L57 30L57 27L56 27L56 28L55 28L55 27L53 27L53 25L56 25L56 24L54 24L54 23L57 23L57 21L56 21L56 20L54 20L54 21L53 21L53 20L50 20L50 18L48 18L48 14L47 14L47 15L45 15L45 14L46 14L46 13L44 13L44 11L43 11L43 9L41 9L41 8L40 8L40 7L41 7L41 4L43 4L43 5L46 5L46 7L45 7L45 6L44 6L44 7L43 7L43 6L42 6L42 7L43 7L43 8L45 8L45 9L44 9L44 10L45 10L45 11L48 11L48 12L49 12L49 17L50 17L50 15L51 15L51 13L52 13L52 14L53 14L53 17L54 17L54 18L51 18L51 19L56 19L56 17L57 17L57 15L55 15L55 14L53 14L53 13L54 13L54 10L53 10L53 9L55 9L55 8L52 8L52 9L51 9L51 11L50 11L50 10L49 10L49 9L50 9L50 8L48 8L48 9L47 9L47 5L48 5L48 0L45 0L45 1L44 1L44 2L41 2L41 1L43 1L43 0L41 0L41 1L40 1L40 0L39 0L39 1L40 1L40 2L41 2L41 4L38 4L38 3L39 3L39 2L37 2L37 1L38 1L38 0L37 0L37 1L36 1L36 0L35 0L35 1L34 1L34 2L35 2L35 4L36 4L36 5L40 5L40 7L39 7L39 6L38 6L38 7L39 7L39 8L37 8L37 6L36 6L36 7L35 7L35 6L34 6L34 4L33 4L33 6L32 6L32 5L31 5L31 4L32 4L32 3L33 3L33 1L32 1L32 0L29 0L29 2L28 2L28 1L27 1L27 2L28 2L28 3L29 3L29 4L26 4L26 1L25 1L25 0L23 0L23 1L22 1L22 0L21 0L21 1L20 1L20 0L17 0L17 1L15 1L15 3L18 3L18 5L15 5L15 4L14 4L14 3L13 3L13 1L14 1L14 0ZM17 1L17 2L18 2L18 3L19 3L19 4L20 4L20 5L21 5L21 4L22 4L22 5L23 5L23 3L24 3L24 2L25 2L25 1L23 1L23 2L20 2L20 1L19 1L19 2L18 2L18 1ZM35 1L35 2L36 2L36 1ZM45 1L45 3L44 3L44 4L46 4L46 5L47 5L47 3L46 3L46 2L47 2L47 1ZM11 2L11 4L13 4L13 5L14 5L14 6L13 6L13 7L12 7L12 5L11 5L11 8L12 8L12 9L13 9L13 10L11 10L11 11L10 11L10 12L9 12L9 11L8 11L8 10L10 10L10 8L9 8L9 9L8 9L8 10L7 10L7 11L6 11L6 12L5 12L5 13L4 13L4 14L3 14L3 15L1 15L1 16L2 16L2 17L3 17L3 19L4 19L4 20L5 20L5 22L7 22L7 23L5 23L5 24L7 24L7 23L8 23L8 24L11 24L11 25L10 25L10 26L9 26L9 27L10 27L10 29L9 29L9 32L7 32L7 31L5 31L5 33L4 33L4 34L5 34L5 35L4 35L4 36L5 36L5 38L7 38L7 39L3 39L3 38L4 38L4 37L3 37L3 36L2 36L2 37L3 37L3 38L2 38L2 39L3 39L3 40L7 40L7 41L2 41L2 45L4 45L4 46L3 46L3 47L5 47L5 45L6 45L6 44L11 44L11 45L10 45L10 46L11 46L11 45L13 45L13 46L12 46L12 47L13 47L13 46L14 46L14 47L15 47L15 48L14 48L14 49L15 49L15 48L18 48L18 47L20 47L20 48L21 48L21 53L20 53L20 55L22 55L22 54L23 54L23 52L24 52L24 53L25 53L25 54L26 54L26 49L25 49L25 48L24 48L24 47L26 47L26 48L27 48L27 46L28 46L28 47L29 47L29 48L31 48L31 49L32 49L32 50L31 50L31 53L32 53L32 51L33 51L33 53L36 53L36 54L35 54L35 55L36 55L36 54L39 54L39 53L37 53L37 51L36 51L36 52L35 52L35 48L37 48L37 49L36 49L36 50L37 50L37 49L38 49L38 48L39 48L39 49L40 49L40 50L39 50L39 51L38 51L38 52L40 52L40 54L41 54L41 55L39 55L39 56L42 56L42 54L43 54L43 50L44 50L44 49L45 49L45 48L44 48L44 49L43 49L43 47L39 47L39 46L41 46L41 45L38 45L38 44L39 44L39 43L40 43L40 44L41 44L41 43L42 43L42 42L40 42L40 41L37 41L37 40L38 40L38 39L39 39L39 38L38 38L38 39L37 39L37 37L34 37L34 36L36 36L36 35L35 35L35 33L34 33L34 32L35 32L35 31L34 31L34 32L31 32L31 34L30 34L30 35L29 35L29 33L30 33L30 31L28 31L28 33L27 33L27 31L25 31L25 34L24 34L24 35L23 35L23 36L22 36L22 34L23 34L23 33L24 33L24 31L23 31L23 30L21 30L21 29L24 29L24 30L26 30L26 28L25 28L25 25L29 25L29 24L30 24L30 21L29 21L29 22L28 22L28 21L27 21L27 20L29 20L29 19L28 19L28 18L29 18L29 17L30 17L30 20L31 20L31 23L32 23L32 22L33 22L33 24L32 24L32 25L33 25L33 24L35 24L35 23L36 23L36 24L37 24L37 23L38 23L38 24L39 24L39 26L38 26L38 27L40 27L40 30L39 30L39 29L38 29L38 30L36 30L36 29L37 29L37 27L35 27L35 25L34 25L34 27L35 27L35 28L34 28L34 29L35 29L35 30L36 30L36 31L37 31L37 32L36 32L36 33L37 33L37 32L38 32L38 34L39 34L39 31L40 31L40 32L41 32L41 31L43 31L43 29L42 29L42 30L41 30L41 27L40 27L40 25L41 25L41 23L42 23L42 26L44 26L44 27L42 27L42 28L44 28L44 27L45 27L45 30L46 30L46 26L47 26L47 27L48 27L48 26L49 26L49 25L50 25L50 24L51 24L51 25L53 25L53 24L52 24L52 22L51 22L51 21L50 21L50 20L48 20L48 19L47 19L47 20L46 20L46 19L44 19L44 18L45 18L45 17L47 17L47 16L45 16L45 15L44 15L44 14L43 14L43 12L42 12L42 11L40 11L40 10L39 10L39 9L38 9L38 10L39 10L39 15L36 15L36 14L35 14L35 12L34 12L34 14L33 14L33 10L34 10L34 11L35 11L35 10L36 10L36 12L38 12L38 11L37 11L37 8L36 8L36 9L34 9L34 6L33 6L33 8L32 8L32 6L31 6L31 9L32 9L32 10L29 10L29 9L28 9L28 11L27 11L27 10L26 10L26 11L25 11L25 10L23 10L23 9L26 9L26 6L25 6L25 5L26 5L26 4L24 4L24 6L23 6L23 7L24 7L24 8L23 8L23 9L22 9L22 10L23 10L23 11L21 11L21 12L19 12L19 11L20 11L20 10L21 10L21 7L22 7L22 6L21 6L21 7L20 7L20 6L19 6L19 7L20 7L20 10L18 10L18 9L19 9L19 8L18 8L18 6L17 6L17 7L16 7L16 6L15 6L15 5L14 5L14 4L13 4L13 3L12 3L12 2ZM30 2L30 4L31 4L31 2ZM27 5L27 8L30 8L30 5ZM14 6L14 7L15 7L15 6ZM24 6L24 7L25 7L25 6ZM28 6L28 7L29 7L29 6ZM48 6L48 7L49 7L49 6ZM15 8L15 11L14 11L14 10L13 10L13 12L12 12L12 11L11 11L11 12L12 12L12 13L10 13L10 14L9 14L9 12L8 12L8 11L7 11L7 12L6 12L6 13L7 13L7 14L6 14L6 15L7 15L7 16L4 16L4 15L5 15L5 14L4 14L4 15L3 15L3 16L4 16L4 17L7 17L7 16L8 16L8 17L10 17L10 18L11 18L11 16L12 16L12 18L16 18L16 19L17 19L17 18L18 18L18 19L20 19L20 18L18 18L18 17L17 17L17 16L19 16L19 15L18 15L18 14L16 14L16 15L15 15L15 12L16 12L16 13L17 13L17 12L18 12L18 13L19 13L19 14L20 14L20 15L21 15L21 13L19 13L19 12L18 12L18 10L17 10L17 11L16 11L16 8ZM17 8L17 9L18 9L18 8ZM56 8L56 9L57 9L57 8ZM45 9L45 10L47 10L47 9ZM48 10L48 11L49 11L49 10ZM55 10L55 12L56 12L56 13L57 13L57 10ZM23 11L23 12L22 12L22 13L23 13L23 12L25 12L25 11ZM30 11L30 12L31 12L31 13L32 13L32 11ZM51 11L51 12L50 12L50 13L51 13L51 12L52 12L52 13L53 13L53 11ZM26 12L26 13L25 13L25 14L24 14L24 15L25 15L25 16L23 16L23 18L22 18L22 17L21 17L21 19L22 19L22 20L21 20L21 21L22 21L22 22L19 22L19 24L17 24L17 25L19 25L19 26L17 26L17 27L20 27L20 29L21 29L21 24L20 24L20 23L22 23L22 22L23 22L23 24L24 24L24 25L25 25L25 22L27 22L27 23L26 23L26 24L28 24L28 22L27 22L27 21L26 21L26 20L27 20L27 18L26 18L26 17L29 17L29 16L31 16L31 20L32 20L32 18L35 18L35 17L34 17L34 16L35 16L35 15L33 15L33 14L32 14L32 15L31 15L31 14L30 14L30 13L28 13L28 12ZM13 13L13 15L12 15L12 14L10 14L10 15L9 15L9 14L7 14L7 15L8 15L8 16L10 16L10 15L12 15L12 16L14 16L14 13ZM26 13L26 14L25 14L25 15L26 15L26 16L27 16L27 13ZM40 13L40 14L41 14L41 13ZM42 14L42 17L41 17L41 18L39 18L39 19L40 19L40 20L37 20L37 19L36 19L36 20L35 20L35 19L34 19L34 20L35 20L35 22L38 22L38 21L39 21L39 23L41 23L41 22L43 22L43 23L48 23L48 24L47 24L47 25L49 25L49 24L50 24L50 23L49 23L49 21L47 21L47 22L46 22L46 20L45 20L45 22L44 22L44 21L41 21L41 18L42 18L42 19L43 19L43 18L42 18L42 17L45 17L45 16L44 16L44 15L43 15L43 14ZM16 15L16 16L17 16L17 15ZM28 15L28 16L29 16L29 15ZM32 15L32 16L33 16L33 15ZM39 15L39 17L40 17L40 16L41 16L41 15ZM51 16L51 17L52 17L52 16ZM54 16L54 17L55 17L55 16ZM24 17L24 18L23 18L23 21L24 21L24 22L25 22L25 19L26 19L26 18L25 18L25 17ZM36 17L36 18L37 18L37 17ZM5 18L5 20L6 20L6 21L8 21L8 20L6 20L6 19L9 19L9 18ZM24 18L24 19L25 19L25 18ZM10 19L10 20L9 20L9 22L10 22L10 23L12 23L12 27L13 27L13 28L14 28L14 29L16 29L16 30L13 30L13 29L12 29L12 28L11 28L11 29L10 29L10 30L11 30L11 29L12 29L12 31L14 31L14 32L13 32L13 33L12 33L12 32L11 32L11 33L9 33L9 34L8 34L8 35L7 35L7 34L6 34L6 35L7 35L7 36L6 36L6 37L7 37L7 36L8 36L8 37L9 37L9 38L8 38L8 39L7 39L7 40L8 40L8 41L7 41L7 42L6 42L6 43L5 43L5 42L4 42L4 44L6 44L6 43L7 43L7 42L8 42L8 41L9 41L9 42L10 42L10 43L11 43L11 44L12 44L12 42L13 42L13 44L14 44L14 42L15 42L15 45L16 45L16 44L17 44L17 42L18 42L18 43L19 43L19 41L22 41L22 44L20 44L20 45L21 45L21 46L20 46L20 47L21 47L21 48L23 48L23 49L22 49L22 50L23 50L23 49L24 49L24 48L23 48L23 46L25 46L25 45L26 45L26 46L27 46L27 45L26 45L26 43L25 43L25 42L27 42L27 44L28 44L28 45L30 45L30 46L31 46L31 47L32 47L32 48L33 48L33 50L34 50L34 48L35 48L35 47L38 47L38 45L37 45L37 46L34 46L34 47L33 47L33 45L34 45L34 44L35 44L35 45L36 45L36 43L34 43L34 42L36 42L36 41L34 41L34 40L35 40L35 39L36 39L36 38L34 38L34 37L33 37L33 38L32 38L32 36L34 36L34 34L32 34L32 36L29 36L29 35L28 35L28 34L27 34L27 33L26 33L26 34L27 34L27 35L26 35L26 36L23 36L23 39L24 39L24 41L22 41L22 40L21 40L21 39L22 39L22 37L21 37L21 38L20 38L20 37L19 37L19 36L17 36L17 37L19 37L19 38L18 38L18 39L17 39L17 38L15 38L15 36L16 36L16 35L21 35L21 34L22 34L22 33L23 33L23 31L22 31L22 32L21 32L21 31L20 31L20 30L18 30L18 31L17 31L17 28L14 28L14 27L16 27L16 25L15 25L15 24L16 24L16 23L17 23L17 21L18 21L18 20L16 20L16 23L15 23L15 22L14 22L14 20L15 20L15 19L13 19L13 20L12 20L12 19ZM36 20L36 21L37 21L37 20ZM10 21L10 22L12 22L12 23L13 23L13 22L12 22L12 21ZM54 21L54 22L56 22L56 21ZM19 24L19 25L20 25L20 24ZM43 24L43 25L44 25L44 24ZM13 25L13 26L15 26L15 25ZM22 25L22 27L23 27L23 25ZM30 25L30 26L31 26L31 25ZM45 25L45 26L46 26L46 25ZM10 26L10 27L11 27L11 26ZM5 27L5 30L8 30L8 27ZM27 27L27 30L30 30L30 27ZM31 27L31 28L33 28L33 27ZM49 27L49 30L52 30L52 27ZM6 28L6 29L7 29L7 28ZM18 28L18 29L19 29L19 28ZM28 28L28 29L29 29L29 28ZM50 28L50 29L51 29L51 28ZM53 28L53 29L54 29L54 28ZM31 29L31 31L32 31L32 30L33 30L33 29ZM55 29L55 30L53 30L53 32L52 32L52 34L54 34L54 33L55 33L55 30L56 30L56 29ZM38 30L38 31L39 31L39 30ZM47 30L47 32L46 32L46 33L45 33L45 31L44 31L44 33L45 33L45 36L44 36L44 37L41 37L41 36L42 36L42 34L41 34L41 35L39 35L39 36L38 36L38 35L37 35L37 36L38 36L38 37L39 37L39 36L40 36L40 37L41 37L41 38L44 38L44 39L45 39L45 40L46 40L46 41L47 41L47 42L45 42L45 43L47 43L47 42L48 42L48 43L49 43L49 42L50 42L50 41L52 41L52 40L53 40L53 38L55 38L55 37L53 37L53 36L52 36L52 35L51 35L51 36L50 36L50 37L48 37L48 36L47 36L47 37L46 37L46 38L49 38L49 39L47 39L47 40L46 40L46 39L45 39L45 36L46 36L46 34L48 34L48 35L49 35L49 34L50 34L50 33L49 33L49 32L50 32L50 31L49 31L49 32L48 32L48 30ZM0 31L0 32L1 32L1 31ZM15 31L15 34L14 34L14 35L16 35L16 34L17 34L17 32L16 32L16 31ZM6 32L6 33L7 33L7 32ZM18 32L18 34L19 34L19 33L20 33L20 34L21 34L21 33L20 33L20 32ZM42 32L42 33L43 33L43 32ZM11 33L11 34L9 34L9 35L8 35L8 36L9 36L9 37L10 37L10 38L11 38L11 39L14 39L14 40L12 40L12 41L13 41L13 42L14 42L14 41L17 41L17 39L16 39L16 40L15 40L15 39L14 39L14 37L12 37L12 38L11 38L11 36L12 36L12 35L13 35L13 34L12 34L12 33ZM43 34L43 35L44 35L44 34ZM10 35L10 36L11 36L11 35ZM54 35L54 36L55 36L55 35ZM27 36L27 37L24 37L24 39L25 39L25 41L24 41L24 42L25 42L25 41L26 41L26 40L27 40L27 41L29 41L29 40L30 40L30 41L31 41L31 40L33 40L33 39L34 39L34 38L33 38L33 39L32 39L32 38L30 38L30 39L28 39L28 40L27 40L27 39L25 39L25 38L29 38L29 36ZM51 37L51 39L50 39L50 40L47 40L47 41L50 41L50 40L51 40L51 39L52 39L52 37ZM9 39L9 40L10 40L10 41L11 41L11 40L10 40L10 39ZM18 40L18 41L19 41L19 40ZM20 42L20 43L21 43L21 42ZM32 42L32 44L30 44L30 45L33 45L33 42ZM37 42L37 44L38 44L38 43L39 43L39 42ZM23 43L23 44L22 44L22 46L21 46L21 47L22 47L22 46L23 46L23 45L25 45L25 44L24 44L24 43ZM17 45L17 46L16 46L16 47L17 47L17 46L19 46L19 45ZM44 45L44 46L45 46L45 45ZM55 45L55 46L56 46L56 45ZM1 46L1 47L2 47L2 46ZM10 47L10 48L11 48L11 49L13 49L13 48L11 48L11 47ZM6 48L6 49L7 49L7 48ZM41 48L41 49L42 49L42 48ZM47 48L47 49L46 49L46 50L45 50L45 51L46 51L46 50L47 50L47 52L46 52L46 53L47 53L47 52L48 52L48 48ZM56 48L56 50L57 50L57 48ZM16 49L16 50L14 50L14 51L13 51L13 50L11 50L11 51L10 51L10 52L11 52L11 53L10 53L10 54L9 54L9 56L10 56L10 55L15 55L15 54L14 54L14 53L13 53L13 52L14 52L14 51L15 51L15 53L16 53L16 54L17 54L17 56L18 56L18 54L19 54L19 52L20 52L20 49L19 49L19 50L17 50L17 49ZM27 49L27 52L30 52L30 49ZM49 49L49 52L52 52L52 49ZM16 50L16 51L17 51L17 50ZM24 50L24 51L25 51L25 50ZM28 50L28 51L29 51L29 50ZM50 50L50 51L51 51L51 50ZM40 51L40 52L41 52L41 51ZM54 52L54 54L55 54L55 52ZM11 53L11 54L12 54L12 53ZM17 53L17 54L18 54L18 53ZM21 53L21 54L22 54L22 53ZM41 53L41 54L42 54L42 53ZM48 53L48 54L50 54L50 53ZM27 55L27 56L28 56L28 55ZM56 55L56 56L57 56L57 55ZM52 56L52 57L55 57L55 56ZM0 0L0 7L7 7L7 0ZM1 1L1 6L6 6L6 1ZM2 2L2 5L5 5L5 2ZM50 0L50 7L57 7L57 0ZM51 1L51 6L56 6L56 1ZM52 2L52 5L55 5L55 2ZM0 50L0 57L7 57L7 50ZM1 51L1 56L6 56L6 51ZM2 52L2 55L5 55L5 52Z" fill="#000000"/></g></g></svg>
