<?xml version="1.0" encoding="UTF-8"?>
<svg xmlns="http://www.w3.org/2000/svg" version="1.1" width="300" height="300" viewBox="0 0 300 300"><rect x="0" y="0" width="300" height="300" fill="#fefefe"/><g transform="scale(4.615)"><g transform="translate(4,4)"><path fill-rule="evenodd" d="M8 0L8 4L9 4L9 5L8 5L8 7L9 7L9 9L8 9L8 10L6 10L6 11L7 11L7 12L4 12L4 11L5 11L5 10L4 10L4 9L7 9L7 8L4 8L4 9L3 9L3 10L1 10L1 9L2 9L2 8L0 8L0 10L1 10L1 13L0 13L0 14L1 14L1 13L2 13L2 14L3 14L3 15L5 15L5 16L6 16L6 17L8 17L8 16L6 16L6 15L9 15L9 13L10 13L10 14L11 14L11 15L10 15L10 16L9 16L9 17L10 17L10 16L11 16L11 19L10 19L10 18L6 18L6 19L7 19L7 20L4 20L4 21L3 21L3 17L1 17L1 16L0 16L0 17L1 17L1 19L0 19L0 20L1 20L1 21L3 21L3 22L5 22L5 23L7 23L7 24L6 24L6 25L7 25L7 26L5 26L5 24L3 24L3 25L2 25L2 24L1 24L1 23L2 23L2 22L0 22L0 24L1 24L1 25L0 25L0 26L3 26L3 27L4 27L4 29L3 29L3 28L2 28L2 27L0 27L0 29L1 29L1 31L0 31L0 32L1 32L1 33L2 33L2 34L1 34L1 35L0 35L0 37L1 37L1 38L0 38L0 43L1 43L1 44L0 44L0 45L2 45L2 47L1 47L1 46L0 46L0 48L5 48L5 47L7 47L7 46L8 46L8 45L9 45L9 44L10 44L10 43L11 43L11 41L12 41L12 40L14 40L14 41L13 41L13 42L12 42L12 43L13 43L13 42L14 42L14 45L15 45L15 48L16 48L16 49L15 49L15 50L16 50L16 51L17 51L17 53L15 53L15 54L14 54L14 53L13 53L13 52L11 52L11 53L10 53L10 54L9 54L9 55L8 55L8 57L9 57L9 55L10 55L10 54L11 54L11 53L12 53L12 56L13 56L13 54L14 54L14 56L15 56L15 57L16 57L16 56L15 56L15 55L16 55L16 54L19 54L19 55L18 55L18 56L17 56L17 57L22 57L22 56L19 56L19 55L20 55L20 54L22 54L22 50L23 50L23 52L24 52L24 53L23 53L23 55L24 55L24 56L25 56L25 55L26 55L26 54L27 54L27 53L28 53L28 57L29 57L29 55L30 55L30 57L34 57L34 55L35 55L35 57L37 57L37 56L36 56L36 54L37 54L37 55L40 55L40 54L41 54L41 57L43 57L43 56L44 56L44 57L45 57L45 56L44 56L44 53L45 53L45 55L46 55L46 56L48 56L48 57L50 57L50 55L51 55L51 56L53 56L53 55L55 55L55 54L57 54L57 52L56 52L56 51L55 51L55 49L56 49L56 45L57 45L57 43L56 43L56 42L57 42L57 40L52 40L52 37L51 37L51 36L53 36L53 39L54 39L54 38L55 38L55 39L57 39L57 38L55 38L55 37L57 37L57 35L56 35L56 34L57 34L57 33L56 33L56 30L55 30L55 29L54 29L54 28L53 28L53 27L54 27L54 26L55 26L55 24L56 24L56 25L57 25L57 24L56 24L56 20L57 20L57 19L56 19L56 17L57 17L57 15L56 15L56 13L57 13L57 11L56 11L56 10L57 10L57 8L53 8L53 9L52 9L52 8L51 8L51 9L50 9L50 10L49 10L49 9L47 9L47 5L48 5L48 0L46 0L46 1L47 1L47 2L45 2L45 0L41 0L41 1L40 1L40 2L38 2L38 1L39 1L39 0L38 0L38 1L37 1L37 2L36 2L36 0L35 0L35 1L34 1L34 0L33 0L33 1L34 1L34 2L32 2L32 3L30 3L30 4L29 4L29 3L27 3L27 4L26 4L26 3L25 3L25 2L26 2L26 1L27 1L27 2L28 2L28 1L30 1L30 2L31 2L31 1L32 1L32 0L28 0L28 1L27 1L27 0L26 0L26 1L25 1L25 0L23 0L23 1L22 1L22 2L21 2L21 3L22 3L22 4L21 4L21 6L20 6L20 5L19 5L19 4L18 4L18 5L17 5L17 6L16 6L16 5L15 5L15 4L14 4L14 0L12 0L12 1L11 1L11 5L10 5L10 3L9 3L9 2L10 2L10 0ZM15 0L15 3L16 3L16 4L17 4L17 3L19 3L19 2L20 2L20 1L21 1L21 0L20 0L20 1L19 1L19 0L18 0L18 1L17 1L17 3L16 3L16 0ZM12 1L12 4L13 4L13 1ZM18 1L18 2L19 2L19 1ZM35 2L35 3L32 3L32 5L33 5L33 4L34 4L34 5L35 5L35 7L34 7L34 6L33 6L33 7L32 7L32 6L31 6L31 10L30 10L30 11L31 11L31 12L29 12L29 10L27 10L27 9L26 9L26 6L25 6L25 7L24 7L24 6L23 6L23 5L24 5L24 4L25 4L25 3L23 3L23 4L22 4L22 6L21 6L21 8L22 8L22 9L21 9L21 10L20 10L20 9L19 9L19 10L18 10L18 9L15 9L15 12L14 12L14 11L13 11L13 9L14 9L14 8L15 8L15 7L16 7L16 6L15 6L15 7L14 7L14 6L13 6L13 8L12 8L12 6L11 6L11 7L10 7L10 5L9 5L9 7L10 7L10 8L12 8L12 9L11 9L11 10L10 10L10 9L9 9L9 10L8 10L8 11L9 11L9 12L8 12L8 13L9 13L9 12L10 12L10 13L11 13L11 10L12 10L12 11L13 11L13 12L12 12L12 13L15 13L15 14L17 14L17 16L16 16L16 18L17 18L17 19L16 19L16 20L15 20L15 18L14 18L14 15L13 15L13 16L12 16L12 15L11 15L11 16L12 16L12 17L13 17L13 19L14 19L14 20L15 20L15 21L17 21L17 22L16 22L16 23L13 23L13 22L14 22L14 21L13 21L13 22L12 22L12 24L11 24L11 23L10 23L10 26L9 26L9 28L10 28L10 29L11 29L11 26L13 26L13 29L12 29L12 32L13 32L13 31L14 31L14 30L16 30L16 32L14 32L14 33L11 33L11 34L10 34L10 30L9 30L9 33L8 33L8 34L10 34L10 35L9 35L9 36L8 36L8 35L6 35L6 34L7 34L7 33L6 33L6 32L7 32L7 31L5 31L5 35L6 35L6 36L7 36L7 37L6 37L6 38L7 38L7 37L10 37L10 36L12 36L12 35L11 35L11 34L13 34L13 35L14 35L14 33L16 33L16 35L15 35L15 36L16 36L16 37L15 37L15 38L14 38L14 40L15 40L15 39L16 39L16 38L19 38L19 39L17 39L17 40L16 40L16 42L15 42L15 43L16 43L16 44L17 44L17 45L16 45L16 48L17 48L17 45L18 45L18 44L19 44L19 43L20 43L20 45L19 45L19 46L18 46L18 48L19 48L19 50L20 50L20 51L21 51L21 50L22 50L22 49L23 49L23 48L22 48L22 47L23 47L23 45L21 45L21 43L22 43L22 44L25 44L25 43L28 43L28 44L27 44L27 45L26 45L26 46L25 46L25 47L24 47L24 49L26 49L26 48L27 48L27 47L26 47L26 46L27 46L27 45L28 45L28 47L29 47L29 48L31 48L31 49L32 49L32 48L33 48L33 49L34 49L34 50L31 50L31 52L32 52L32 51L33 51L33 52L34 52L34 54L33 54L33 53L32 53L32 54L33 54L33 55L34 55L34 54L35 54L35 52L36 52L36 49L35 49L35 48L33 48L33 46L32 46L32 44L31 44L31 42L30 42L30 40L28 40L28 42L27 42L27 41L26 41L26 42L25 42L25 43L24 43L24 41L25 41L25 40L27 40L27 39L28 39L28 38L29 38L29 39L31 39L31 41L32 41L32 43L33 43L33 44L35 44L35 43L33 43L33 41L32 41L32 40L33 40L33 39L31 39L31 38L33 38L33 37L32 37L32 36L31 36L31 35L32 35L32 34L33 34L33 36L34 36L34 42L35 42L35 39L37 39L37 42L38 42L38 39L39 39L39 40L40 40L40 41L39 41L39 42L40 42L40 41L41 41L41 40L40 40L40 38L38 38L38 37L37 37L37 38L35 38L35 33L34 33L34 32L33 32L33 31L32 31L32 28L33 28L33 27L34 27L34 31L36 31L36 30L37 30L37 32L38 32L38 30L37 30L37 29L38 29L38 28L37 28L37 29L35 29L35 27L36 27L36 26L37 26L37 27L39 27L39 26L38 26L38 25L40 25L40 27L41 27L41 28L40 28L40 29L43 29L43 30L44 30L44 31L45 31L45 30L46 30L46 32L45 32L45 33L46 33L46 34L44 34L44 33L43 33L43 34L44 34L44 35L42 35L42 34L40 34L40 33L41 33L41 32L40 32L40 30L39 30L39 32L40 32L40 33L39 33L39 34L38 34L38 33L37 33L37 34L38 34L38 36L39 36L39 37L41 37L41 39L42 39L42 37L41 37L41 36L43 36L43 37L44 37L44 38L43 38L43 39L45 39L45 41L46 41L46 42L44 42L44 41L43 41L43 40L42 40L42 41L43 41L43 42L41 42L41 43L42 43L42 44L43 44L43 46L44 46L44 44L45 44L45 45L46 45L46 47L47 47L47 48L46 48L46 49L45 49L45 50L42 50L42 52L43 52L43 53L44 53L44 52L43 52L43 51L46 51L46 55L48 55L48 56L49 56L49 54L51 54L51 55L52 55L52 54L51 54L51 53L49 53L49 54L48 54L48 52L47 52L47 49L48 49L48 47L49 47L49 48L51 48L51 47L52 47L52 46L53 46L53 47L54 47L54 49L55 49L55 47L54 47L54 46L53 46L53 45L52 45L52 46L50 46L50 47L49 47L49 46L48 46L48 44L47 44L47 43L48 43L48 41L49 41L49 42L50 42L50 43L49 43L49 45L50 45L50 43L51 43L51 44L52 44L52 43L53 43L53 44L54 44L54 45L56 45L56 44L55 44L55 42L54 42L54 43L53 43L53 41L52 41L52 40L47 40L47 39L51 39L51 38L50 38L50 35L53 35L53 36L56 36L56 35L53 35L53 34L54 34L54 33L51 33L51 32L52 32L52 31L51 31L51 32L50 32L50 31L49 31L49 32L50 32L50 35L49 35L49 36L46 36L46 38L45 38L45 37L44 37L44 35L46 35L46 34L49 34L49 33L48 33L48 31L47 31L47 30L48 30L48 28L47 28L47 27L48 27L48 26L47 26L47 24L48 24L48 25L49 25L49 26L50 26L50 25L49 25L49 24L50 24L50 22L49 22L49 24L48 24L48 22L47 22L47 21L48 21L48 20L49 20L49 21L51 21L51 22L52 22L52 23L51 23L51 24L52 24L52 25L54 25L54 24L55 24L55 23L53 23L53 22L52 22L52 21L54 21L54 22L55 22L55 20L56 20L56 19L55 19L55 17L56 17L56 16L55 16L55 12L56 12L56 11L55 11L55 9L53 9L53 10L54 10L54 11L52 11L52 10L50 10L50 11L49 11L49 12L47 12L47 9L46 9L46 6L45 6L45 7L44 7L44 4L45 4L45 5L47 5L47 3L44 3L44 2L43 2L43 3L44 3L44 4L43 4L43 5L42 5L42 6L41 6L41 5L39 5L39 8L38 8L38 6L37 6L37 8L38 8L38 9L35 9L35 7L36 7L36 5L38 5L38 4L40 4L40 3L42 3L42 2L40 2L40 3L38 3L38 2L37 2L37 3L36 3L36 2ZM37 3L37 4L38 4L38 3ZM35 4L35 5L36 5L36 4ZM18 5L18 6L17 6L17 8L19 8L19 7L20 7L20 6L19 6L19 5ZM27 5L27 8L30 8L30 5ZM18 6L18 7L19 7L19 6ZM22 6L22 7L23 7L23 8L24 8L24 9L23 9L23 11L24 11L24 13L23 13L23 12L22 12L22 11L20 11L20 10L19 10L19 11L20 11L20 12L18 12L18 13L17 13L17 11L18 11L18 10L16 10L16 12L15 12L15 13L17 13L17 14L19 14L19 15L18 15L18 16L17 16L17 17L20 17L20 18L19 18L19 19L17 19L17 21L18 21L18 22L19 22L19 23L18 23L18 24L17 24L17 25L18 25L18 27L17 27L17 26L16 26L16 24L15 24L15 25L14 25L14 24L12 24L12 25L13 25L13 26L14 26L14 27L16 27L16 28L14 28L14 29L18 29L18 31L17 31L17 32L16 32L16 33L17 33L17 34L18 34L18 35L17 35L17 37L21 37L21 38L20 38L20 39L19 39L19 40L17 40L17 42L16 42L16 43L18 43L18 41L19 41L19 40L20 40L20 42L21 42L21 41L22 41L22 40L23 40L23 41L24 41L24 39L22 39L22 40L21 40L21 38L22 38L22 36L23 36L23 37L24 37L24 38L26 38L26 39L27 39L27 38L26 38L26 37L25 37L25 36L26 36L26 35L27 35L27 34L28 34L28 36L27 36L27 37L28 37L28 36L29 36L29 37L31 37L31 36L30 36L30 34L31 34L31 33L29 33L29 32L27 32L27 31L30 31L30 32L32 32L32 33L33 33L33 32L32 32L32 31L31 31L31 22L33 22L33 23L32 23L32 27L33 27L33 26L34 26L34 25L37 25L37 24L34 24L34 23L35 23L35 22L37 22L37 23L38 23L38 22L39 22L39 21L40 21L40 22L43 22L43 24L44 24L44 25L41 25L41 27L42 27L42 28L44 28L44 30L45 30L45 27L47 27L47 26L46 26L46 23L45 23L45 24L44 24L44 22L45 22L45 21L46 21L46 19L47 19L47 18L48 18L48 19L49 19L49 20L51 20L51 21L52 21L52 20L53 20L53 19L50 19L50 18L53 18L53 17L52 17L52 16L53 16L53 15L54 15L54 14L53 14L53 13L54 13L54 12L53 12L53 13L52 13L52 14L51 14L51 12L52 12L52 11L50 11L50 15L48 15L48 17L47 17L47 18L46 18L46 17L45 17L45 16L46 16L46 9L45 9L45 8L44 8L44 7L43 7L43 6L42 6L42 7L43 7L43 8L42 8L42 9L40 9L40 8L41 8L41 6L40 6L40 8L39 8L39 9L38 9L38 10L39 10L39 11L36 11L36 10L34 10L34 9L33 9L33 8L34 8L34 7L33 7L33 8L32 8L32 11L33 11L33 10L34 10L34 12L35 12L35 13L37 13L37 12L39 12L39 13L38 13L38 15L39 15L39 17L38 17L38 16L37 16L37 14L35 14L35 17L38 17L38 18L39 18L39 19L37 19L37 18L35 18L35 19L36 19L36 20L35 20L35 22L34 22L34 13L33 13L33 12L32 12L32 13L30 13L30 15L32 15L32 19L31 19L31 16L29 16L29 13L26 13L26 11L27 11L27 12L28 12L28 11L27 11L27 10L25 10L25 8L24 8L24 7L23 7L23 6ZM28 6L28 7L29 7L29 6ZM48 6L48 7L49 7L49 6ZM43 8L43 9L44 9L44 10L42 10L42 11L43 11L43 12L41 12L41 11L40 11L40 13L39 13L39 14L40 14L40 17L39 17L39 18L40 18L40 21L43 21L43 22L44 22L44 16L45 16L45 15L44 15L44 14L43 14L43 15L42 15L42 17L43 17L43 18L42 18L42 19L43 19L43 20L41 20L41 18L40 18L40 17L41 17L41 14L40 14L40 13L44 13L44 12L45 12L45 11L44 11L44 10L45 10L45 9L44 9L44 8ZM9 10L9 11L10 11L10 10ZM2 11L2 13L3 13L3 14L4 14L4 12L3 12L3 11ZM6 13L6 14L5 14L5 15L6 15L6 14L7 14L7 13ZM19 13L19 14L20 14L20 15L21 15L21 16L20 16L20 17L25 17L25 18L24 18L24 19L22 19L22 25L21 25L21 22L20 22L20 23L19 23L19 26L20 26L20 27L19 27L19 28L18 28L18 29L19 29L19 31L18 31L18 32L17 32L17 33L18 33L18 34L19 34L19 33L21 33L21 34L20 34L20 36L22 36L22 35L21 35L21 34L23 34L23 33L26 33L26 31L24 31L24 32L23 32L23 31L22 31L22 30L23 30L23 29L25 29L25 30L26 30L26 29L25 29L25 27L26 27L26 25L25 25L25 27L24 27L24 26L23 26L23 27L24 27L24 28L22 28L22 27L21 27L21 26L22 26L22 25L24 25L24 23L23 23L23 21L24 21L24 22L25 22L25 23L26 23L26 22L27 22L27 23L28 23L28 25L27 25L27 26L30 26L30 25L29 25L29 23L30 23L30 21L32 21L32 20L31 20L31 19L30 19L30 18L28 18L28 17L26 17L26 16L27 16L27 15L28 15L28 14L26 14L26 16L25 16L25 14L23 14L23 13L21 13L21 14L20 14L20 13ZM32 13L32 14L33 14L33 13ZM47 13L47 14L49 14L49 13ZM21 14L21 15L22 15L22 16L24 16L24 15L22 15L22 14ZM52 14L52 15L50 15L50 16L52 16L52 15L53 15L53 14ZM43 15L43 16L44 16L44 15ZM4 17L4 18L5 18L5 17ZM49 17L49 18L50 18L50 17ZM20 18L20 19L19 19L19 21L20 21L20 20L21 20L21 18ZM9 19L9 20L7 20L7 21L6 21L6 22L7 22L7 23L8 23L8 24L9 24L9 23L8 23L8 22L9 22L9 21L11 21L11 20L10 20L10 19ZM25 19L25 20L24 20L24 21L27 21L27 22L28 22L28 23L29 23L29 21L28 21L28 20L30 20L30 19L27 19L27 20L26 20L26 19ZM37 20L37 22L38 22L38 21L39 21L39 20ZM7 21L7 22L8 22L8 21ZM41 23L41 24L42 24L42 23ZM52 23L52 24L53 24L53 23ZM33 24L33 25L34 25L34 24ZM3 25L3 26L4 26L4 25ZM20 25L20 26L21 26L21 25ZM44 26L44 27L45 27L45 26ZM5 27L5 30L8 30L8 27ZM20 27L20 28L19 28L19 29L20 29L20 30L22 30L22 29L20 29L20 28L21 28L21 27ZM27 27L27 30L30 30L30 27ZM49 27L49 30L52 30L52 27ZM55 27L55 28L56 28L56 27ZM6 28L6 29L7 29L7 28ZM28 28L28 29L29 29L29 28ZM46 28L46 29L47 29L47 28ZM50 28L50 29L51 29L51 28ZM2 29L2 30L3 30L3 31L4 31L4 30L3 30L3 29ZM53 30L53 32L55 32L55 30ZM1 31L1 32L2 32L2 31ZM19 31L19 32L18 32L18 33L19 33L19 32L20 32L20 31ZM21 31L21 33L22 33L22 31ZM3 33L3 34L2 34L2 35L3 35L3 36L1 36L1 37L4 37L4 38L5 38L5 37L4 37L4 33ZM28 33L28 34L29 34L29 33ZM55 33L55 34L56 34L56 33ZM24 34L24 36L25 36L25 34ZM39 35L39 36L40 36L40 35ZM11 37L11 38L8 38L8 39L3 39L3 38L2 38L2 39L1 39L1 43L3 43L3 44L2 44L2 45L3 45L3 44L7 44L7 45L4 45L4 46L3 46L3 47L5 47L5 46L7 46L7 45L8 45L8 44L7 44L7 43L3 43L3 42L7 42L7 41L8 41L8 39L10 39L10 40L9 40L9 42L8 42L8 43L10 43L10 41L11 41L11 40L12 40L12 37ZM47 37L47 38L46 38L46 39L47 39L47 38L48 38L48 37ZM37 38L37 39L38 39L38 38ZM2 39L2 40L3 40L3 41L2 41L2 42L3 42L3 41L7 41L7 40L3 40L3 39ZM46 40L46 41L47 41L47 40ZM51 41L51 43L52 43L52 41ZM28 42L28 43L29 43L29 42ZM46 42L46 43L47 43L47 42ZM36 43L36 44L37 44L37 46L36 46L36 45L34 45L34 47L36 47L36 48L37 48L37 46L38 46L38 45L39 45L39 44L40 44L40 46L39 46L39 47L38 47L38 49L37 49L37 53L38 53L38 52L40 52L40 53L41 53L41 44L40 44L40 43L39 43L39 44L37 44L37 43ZM43 43L43 44L44 44L44 43ZM28 44L28 45L29 45L29 46L31 46L31 47L32 47L32 46L31 46L31 44L30 44L30 45L29 45L29 44ZM46 44L46 45L47 45L47 44ZM12 45L12 46L11 46L11 49L12 49L12 47L13 47L13 45ZM20 45L20 46L19 46L19 48L20 48L20 50L21 50L21 49L22 49L22 48L20 48L20 46L21 46L21 47L22 47L22 46L21 46L21 45ZM9 46L9 47L8 47L8 48L6 48L6 49L8 49L8 50L9 50L9 49L10 49L10 46ZM25 47L25 48L26 48L26 47ZM39 47L39 49L38 49L38 51L40 51L40 47ZM42 47L42 49L44 49L44 48L45 48L45 47ZM8 48L8 49L9 49L9 48ZM13 48L13 50L10 50L10 51L13 51L13 50L14 50L14 48ZM16 49L16 50L18 50L18 49ZM27 49L27 52L30 52L30 49ZM49 49L49 52L52 52L52 49ZM25 50L25 53L24 53L24 54L26 54L26 50ZM28 50L28 51L29 51L29 50ZM50 50L50 51L51 51L51 50ZM53 50L53 53L54 53L54 52L55 52L55 51L54 51L54 50ZM8 51L8 53L9 53L9 51ZM19 52L19 53L20 53L20 52ZM30 53L30 54L31 54L31 53ZM42 54L42 55L43 55L43 54ZM10 56L10 57L11 57L11 56ZM26 56L26 57L27 57L27 56ZM56 56L56 57L57 57L57 56ZM0 0L0 7L7 7L7 0ZM1 1L1 6L6 6L6 1ZM2 2L2 5L5 5L5 2ZM50 0L50 7L57 7L57 0ZM51 1L51 6L56 6L56 1ZM52 2L52 5L55 5L55 2ZM0 50L0 57L7 57L7 50ZM1 51L1 56L6 56L6 51ZM2 52L2 55L5 55L5 52Z" fill="#000000"/></g></g></svg>
