<?xml version="1.0" encoding="UTF-8"?>
<svg xmlns="http://www.w3.org/2000/svg" version="1.1" width="300" height="300" viewBox="0 0 300 300"><rect x="0" y="0" width="300" height="300" fill="#fefefe"/><g transform="scale(4.615)"><g transform="translate(4,4)"><path fill-rule="evenodd" d="M9 0L9 1L8 1L8 2L9 2L9 1L12 1L12 0ZM13 0L13 1L14 1L14 2L13 2L13 4L14 4L14 2L15 2L15 3L17 3L17 6L16 6L16 7L15 7L15 6L14 6L14 7L13 7L13 6L12 6L12 4L11 4L11 3L8 3L8 4L9 4L9 5L8 5L8 7L9 7L9 6L10 6L10 8L6 8L6 9L7 9L7 10L6 10L6 11L5 11L5 8L0 8L0 9L3 9L3 10L0 10L0 15L1 15L1 13L2 13L2 19L1 19L1 16L0 16L0 19L1 19L1 20L0 20L0 22L1 22L1 23L2 23L2 22L4 22L4 26L3 26L3 24L2 24L2 27L1 27L1 26L0 26L0 28L3 28L3 29L2 29L2 30L3 30L3 31L8 31L8 32L9 32L9 33L8 33L8 34L9 34L9 35L7 35L7 34L6 34L6 35L7 35L7 36L5 36L5 34L3 34L3 38L4 38L4 39L5 39L5 40L6 40L6 41L4 41L4 40L2 40L2 39L1 39L1 38L2 38L2 33L3 33L3 32L2 32L2 31L0 31L0 33L1 33L1 34L0 34L0 35L1 35L1 36L0 36L0 37L1 37L1 38L0 38L0 39L1 39L1 40L0 40L0 41L1 41L1 43L0 43L0 44L1 44L1 45L2 45L2 47L1 47L1 46L0 46L0 48L5 48L5 47L7 47L7 48L6 48L6 49L8 49L8 51L9 51L9 50L10 50L10 51L11 51L11 50L14 50L14 49L16 49L16 47L15 47L15 48L14 48L14 47L13 47L13 49L11 49L11 48L12 48L12 47L11 47L11 48L10 48L10 49L9 49L9 48L8 48L8 47L9 47L9 46L8 46L8 47L7 47L7 46L5 46L5 47L3 47L3 46L4 46L4 44L3 44L3 42L2 42L2 41L4 41L4 43L5 43L5 45L7 45L7 44L6 44L6 43L7 43L7 42L9 42L9 44L8 44L8 45L12 45L12 46L13 46L13 44L14 44L14 43L13 43L13 44L12 44L12 43L11 43L11 44L10 44L10 42L12 42L12 39L13 39L13 38L12 38L12 36L13 36L13 37L14 37L14 39L15 39L15 40L14 40L14 42L15 42L15 40L16 40L16 41L17 41L17 42L18 42L18 43L15 43L15 44L18 44L18 45L17 45L17 46L19 46L19 47L17 47L17 50L15 50L15 51L14 51L14 52L13 52L13 51L12 51L12 52L11 52L11 53L10 53L10 52L8 52L8 57L12 57L12 56L10 56L10 55L9 55L9 53L10 53L10 54L12 54L12 52L13 52L13 56L14 56L14 57L15 57L15 55L16 55L16 56L17 56L17 57L20 57L20 56L19 56L19 55L20 55L20 54L19 54L19 53L20 53L20 52L23 52L23 50L25 50L25 51L26 51L26 52L24 52L24 53L23 53L23 54L22 54L22 53L21 53L21 55L23 55L23 56L24 56L24 57L26 57L26 56L27 56L27 57L29 57L29 56L30 56L30 57L31 57L31 56L35 56L35 57L39 57L39 56L41 56L41 57L44 57L44 54L45 54L45 55L46 55L46 54L45 54L45 53L47 53L47 50L48 50L48 54L47 54L47 56L46 56L46 57L47 57L47 56L48 56L48 57L49 57L49 56L50 56L50 57L52 57L52 55L51 55L51 53L52 53L52 54L53 54L53 52L54 52L54 54L55 54L55 53L56 53L56 51L54 51L54 50L57 50L57 48L56 48L56 46L57 46L57 45L56 45L56 44L55 44L55 43L56 43L56 41L55 41L55 39L57 39L57 37L55 37L55 35L56 35L56 36L57 36L57 35L56 35L56 34L55 34L55 32L56 32L56 33L57 33L57 32L56 32L56 30L57 30L57 28L56 28L56 27L55 27L55 26L57 26L57 25L56 25L56 22L57 22L57 20L56 20L56 19L55 19L55 18L57 18L57 17L56 17L56 16L57 16L57 15L56 15L56 14L57 14L57 13L56 13L56 8L55 8L55 10L54 10L54 11L53 11L53 10L51 10L51 11L50 11L50 8L49 8L49 9L48 9L48 8L47 8L47 9L48 9L48 10L46 10L46 9L44 9L44 8L43 8L43 6L44 6L44 7L45 7L45 6L44 6L44 3L47 3L47 5L46 5L46 4L45 4L45 5L46 5L46 7L47 7L47 5L48 5L48 0L46 0L46 1L45 1L45 2L44 2L44 3L43 3L43 4L40 4L40 5L39 5L39 6L38 6L38 4L37 4L37 3L38 3L38 2L39 2L39 3L42 3L42 2L43 2L43 0L41 0L41 1L40 1L40 0L39 0L39 1L38 1L38 0L37 0L37 1L38 1L38 2L37 2L37 3L36 3L36 0L35 0L35 1L33 1L33 0L32 0L32 1L31 1L31 0L29 0L29 1L31 1L31 2L28 2L28 1L25 1L25 0L23 0L23 1L22 1L22 0L21 0L21 1L20 1L20 0L17 0L17 1L14 1L14 0ZM18 1L18 2L17 2L17 3L19 3L19 4L22 4L22 5L21 5L21 7L22 7L22 8L19 8L19 9L20 9L20 11L19 11L19 13L20 13L20 15L19 15L19 16L20 16L20 18L19 18L19 17L16 17L16 16L17 16L17 13L18 13L18 12L17 12L17 13L16 13L16 12L15 12L15 13L12 13L12 11L13 11L13 12L14 12L14 11L13 11L13 10L15 10L15 11L18 11L18 10L17 10L17 9L16 9L16 8L17 8L17 7L18 7L18 6L19 6L19 7L20 7L20 5L18 5L18 6L17 6L17 7L16 7L16 8L15 8L15 7L14 7L14 9L13 9L13 10L12 10L12 11L11 11L11 8L10 8L10 9L8 9L8 11L6 11L6 12L7 12L7 13L6 13L6 14L4 14L4 13L5 13L5 11L4 11L4 10L3 10L3 12L2 12L2 11L1 11L1 12L2 12L2 13L3 13L3 15L4 15L4 19L2 19L2 20L1 20L1 22L2 22L2 21L3 21L3 20L4 20L4 22L7 22L7 23L6 23L6 24L5 24L5 25L6 25L6 26L7 26L7 25L8 25L8 26L9 26L9 25L8 25L8 24L11 24L11 23L13 23L13 25L15 25L15 26L17 26L17 24L16 24L16 23L13 23L13 22L12 22L12 21L11 21L11 20L12 20L12 19L11 19L11 18L13 18L13 19L14 19L14 20L13 20L13 21L14 21L14 22L16 22L16 21L17 21L17 22L18 22L18 21L17 21L17 19L15 19L15 18L19 18L19 20L20 20L20 21L19 21L19 22L20 22L20 23L18 23L18 24L21 24L21 25L19 25L19 26L18 26L18 27L17 27L17 28L18 28L18 29L16 29L16 28L15 28L15 27L14 27L14 28L13 28L13 27L11 27L11 28L10 28L10 27L9 27L9 32L10 32L10 29L11 29L11 28L12 28L12 30L13 30L13 31L14 31L14 30L13 30L13 29L14 29L14 28L15 28L15 29L16 29L16 31L15 31L15 32L12 32L12 33L14 33L14 34L15 34L15 36L14 36L14 37L16 37L16 38L15 38L15 39L16 39L16 40L17 40L17 39L18 39L18 38L19 38L19 39L20 39L20 38L19 38L19 37L22 37L22 38L24 38L24 37L23 37L23 36L24 36L24 34L23 34L23 33L25 33L25 34L26 34L26 33L27 33L27 35L26 35L26 36L27 36L27 37L25 37L25 38L27 38L27 39L28 39L28 41L27 41L27 40L26 40L26 39L25 39L25 40L24 40L24 39L22 39L22 40L21 40L21 41L20 41L20 40L19 40L19 41L18 41L18 42L19 42L19 43L20 43L20 44L19 44L19 45L20 45L20 48L19 48L19 49L20 49L20 50L17 50L17 51L15 51L15 52L14 52L14 54L16 54L16 53L17 53L17 52L19 52L19 51L22 51L22 50L21 50L21 49L23 49L23 48L24 48L24 49L26 49L26 48L27 48L27 47L26 47L26 45L27 45L27 46L30 46L30 45L31 45L31 44L28 44L28 43L29 43L29 42L30 42L30 41L31 41L31 42L32 42L32 43L33 43L33 44L32 44L32 46L35 46L35 47L32 47L32 49L31 49L31 50L32 50L32 51L31 51L31 53L30 53L30 54L27 54L27 53L26 53L26 54L25 54L25 53L24 53L24 54L23 54L23 55L24 55L24 56L26 56L26 54L27 54L27 56L29 56L29 55L30 55L30 56L31 56L31 54L32 54L32 53L33 53L33 54L34 54L34 55L35 55L35 56L36 56L36 54L35 54L35 53L33 53L33 52L32 52L32 51L33 51L33 50L36 50L36 52L37 52L37 53L38 53L38 54L37 54L37 56L39 56L39 55L38 55L38 54L40 54L40 53L41 53L41 52L42 52L42 53L43 53L43 54L44 54L44 53L45 53L45 52L44 52L44 53L43 53L43 52L42 52L42 50L41 50L41 48L42 48L42 49L43 49L43 48L44 48L44 50L47 50L47 49L48 49L48 48L49 48L49 47L53 47L53 45L52 45L52 44L53 44L53 43L54 43L54 42L53 42L53 41L54 41L54 40L53 40L53 41L51 41L51 42L50 42L50 43L49 43L49 42L48 42L48 41L49 41L49 39L51 39L51 40L52 40L52 39L55 39L55 37L53 37L53 35L55 35L55 34L54 34L54 33L52 33L52 32L53 32L53 31L55 31L55 29L56 29L56 28L54 28L54 30L53 30L53 31L50 31L50 32L49 32L49 31L48 31L48 28L47 28L47 29L46 29L46 30L47 30L47 31L45 31L45 32L43 32L43 31L44 31L44 30L45 30L45 28L46 28L46 27L47 27L47 25L49 25L49 23L50 23L50 26L51 26L51 25L52 25L52 26L53 26L53 27L54 27L54 26L53 26L53 25L55 25L55 24L53 24L53 23L50 23L50 22L51 22L51 21L53 21L53 22L56 22L56 21L55 21L55 20L53 20L53 19L52 19L52 20L51 20L51 21L49 21L49 19L51 19L51 17L53 17L53 18L55 18L55 17L54 17L54 16L53 16L53 15L54 15L54 14L53 14L53 15L52 15L52 16L51 16L51 15L50 15L50 14L51 14L51 12L50 12L50 11L49 11L49 10L48 10L48 11L47 11L47 12L45 12L45 11L46 11L46 10L45 10L45 11L42 11L42 10L41 10L41 9L42 9L42 8L41 8L41 7L42 7L42 6L43 6L43 5L40 5L40 6L39 6L39 7L40 7L40 8L38 8L38 10L37 10L37 9L35 9L35 8L37 8L37 7L38 7L38 6L37 6L37 7L36 7L36 5L37 5L37 4L36 4L36 5L35 5L35 4L33 4L33 3L32 3L32 2L31 2L31 3L32 3L32 4L31 4L31 8L32 8L32 10L31 10L31 11L30 11L30 10L29 10L29 9L28 9L28 10L27 10L27 11L26 11L26 12L25 12L25 10L23 10L23 13L22 13L22 12L21 12L21 11L22 11L22 10L21 10L21 9L23 9L23 8L24 8L24 6L23 6L23 5L24 5L24 4L23 4L23 3L26 3L26 4L25 4L25 8L26 8L26 4L30 4L30 3L28 3L28 2L23 2L23 3L21 3L21 2L20 2L20 1ZM46 1L46 2L47 2L47 1ZM19 2L19 3L20 3L20 2ZM10 4L10 6L11 6L11 7L12 7L12 8L13 8L13 7L12 7L12 6L11 6L11 4ZM15 4L15 5L16 5L16 4ZM32 4L32 5L33 5L33 6L32 6L32 7L33 7L33 9L34 9L34 8L35 8L35 5L33 5L33 4ZM27 5L27 8L30 8L30 5ZM22 6L22 7L23 7L23 6ZM28 6L28 7L29 7L29 6ZM33 6L33 7L34 7L34 6ZM40 6L40 7L41 7L41 6ZM48 6L48 7L49 7L49 6ZM51 8L51 9L52 9L52 8ZM53 8L53 9L54 9L54 8ZM15 9L15 10L16 10L16 9ZM39 9L39 10L38 10L38 11L37 11L37 10L36 10L36 11L35 11L35 14L32 14L32 11L33 11L33 10L32 10L32 11L31 11L31 13L30 13L30 14L29 14L29 13L28 13L28 12L29 12L29 10L28 10L28 11L27 11L27 12L26 12L26 14L27 14L27 13L28 13L28 14L29 14L29 16L28 16L28 15L27 15L27 16L26 16L26 15L25 15L25 13L23 13L23 14L22 14L22 13L21 13L21 15L20 15L20 16L21 16L21 17L22 17L22 18L20 18L20 20L24 20L24 21L21 21L21 24L22 24L22 23L23 23L23 25L21 25L21 26L19 26L19 29L18 29L18 30L20 30L20 32L19 32L19 31L18 31L18 32L17 32L17 34L16 34L16 35L17 35L17 38L18 38L18 37L19 37L19 36L21 36L21 35L22 35L22 36L23 36L23 34L22 34L22 33L21 33L21 34L20 34L20 32L25 32L25 33L26 33L26 32L27 32L27 31L31 31L31 30L32 30L32 32L31 32L31 33L29 33L29 32L28 32L28 33L29 33L29 34L30 34L30 36L29 36L29 37L31 37L31 38L29 38L29 39L33 39L33 40L35 40L35 42L37 42L37 43L34 43L34 42L33 42L33 41L32 41L32 40L31 40L31 41L32 41L32 42L33 42L33 43L34 43L34 45L35 45L35 46L36 46L36 45L37 45L37 47L36 47L36 48L35 48L35 49L36 49L36 50L38 50L38 51L40 51L40 52L41 52L41 50L38 50L38 49L39 49L39 48L41 48L41 46L43 46L43 47L42 47L42 48L43 48L43 47L44 47L44 48L46 48L46 49L47 49L47 48L48 48L48 47L49 47L49 46L50 46L50 45L51 45L51 46L52 46L52 45L51 45L51 43L53 43L53 42L51 42L51 43L50 43L50 45L49 45L49 44L48 44L48 47L47 47L47 46L45 46L45 47L44 47L44 46L43 46L43 45L44 45L44 44L43 44L43 41L44 41L44 43L46 43L46 44L45 44L45 45L47 45L47 43L48 43L48 42L47 42L47 43L46 43L46 42L45 42L45 41L44 41L44 40L45 40L45 39L44 39L44 40L43 40L43 39L42 39L42 38L43 38L43 37L44 37L44 38L45 38L45 37L44 37L44 36L46 36L46 37L47 37L47 39L46 39L46 40L47 40L47 39L48 39L48 37L49 37L49 38L50 38L50 36L52 36L52 35L53 35L53 34L52 34L52 33L51 33L51 32L50 32L50 34L48 34L48 35L44 35L44 36L43 36L43 37L42 37L42 36L41 36L41 35L42 35L42 34L45 34L45 33L43 33L43 32L41 32L41 33L39 33L39 34L40 34L40 35L39 35L39 37L40 37L40 38L41 38L41 42L40 42L40 43L41 43L41 42L42 42L42 44L41 44L41 45L40 45L40 47L39 47L39 46L38 46L38 45L39 45L39 42L38 42L38 40L39 40L39 39L38 39L38 40L35 40L35 39L37 39L37 38L38 38L38 37L37 37L37 36L38 36L38 33L37 33L37 32L35 32L35 30L32 30L32 27L33 27L33 28L35 28L35 29L38 29L38 28L40 28L40 27L37 27L37 28L35 28L35 27L36 27L36 26L34 26L34 27L33 27L33 26L32 26L32 24L33 24L33 25L37 25L37 26L38 26L38 24L39 24L39 25L40 25L40 24L41 24L41 28L42 28L42 26L43 26L43 29L40 29L40 30L44 30L44 28L45 28L45 27L46 27L46 26L44 26L44 24L41 24L41 22L43 22L43 23L44 23L44 20L45 20L45 21L47 21L47 22L45 22L45 24L46 24L46 23L49 23L49 21L47 21L47 18L50 18L50 17L51 17L51 16L50 16L50 15L49 15L49 14L50 14L50 12L49 12L49 13L47 13L47 14L45 14L45 13L44 13L44 12L43 12L43 13L41 13L41 14L40 14L40 15L39 15L39 14L38 14L38 13L40 13L40 12L41 12L41 11L40 11L40 9ZM9 11L9 12L8 12L8 13L7 13L7 14L6 14L6 15L7 15L7 14L8 14L8 13L9 13L9 12L11 12L11 11ZM39 11L39 12L40 12L40 11ZM3 12L3 13L4 13L4 12ZM33 12L33 13L34 13L34 12ZM52 12L52 13L53 13L53 12ZM54 12L54 13L55 13L55 14L56 14L56 13L55 13L55 12ZM11 13L11 14L10 14L10 15L12 15L12 13ZM15 13L15 14L13 14L13 18L14 18L14 15L15 15L15 16L16 16L16 13ZM43 13L43 14L41 14L41 16L39 16L39 15L38 15L38 14L36 14L36 15L35 15L35 16L32 16L32 14L30 14L30 15L31 15L31 16L32 16L32 17L31 17L31 18L30 18L30 19L31 19L31 18L32 18L32 19L36 19L36 20L37 20L37 21L38 21L38 23L37 23L37 24L38 24L38 23L39 23L39 24L40 24L40 22L39 22L39 21L43 21L43 20L44 20L44 18L45 18L45 19L46 19L46 18L47 18L47 17L48 17L48 16L49 16L49 15L48 15L48 16L47 16L47 15L46 15L46 16L45 16L45 15L44 15L44 13ZM21 15L21 16L22 16L22 17L25 17L25 18L26 18L26 20L25 20L25 21L24 21L24 22L23 22L23 23L24 23L24 24L25 24L25 25L26 25L26 26L24 26L24 27L23 27L23 26L22 26L22 27L20 27L20 28L22 28L22 29L20 29L20 30L21 30L21 31L23 31L23 29L24 29L24 27L26 27L26 26L27 26L27 25L28 25L28 26L29 26L29 25L31 25L31 24L32 24L32 23L35 23L35 20L34 20L34 21L33 21L33 20L32 20L32 21L31 21L31 22L29 22L29 21L30 21L30 20L29 20L29 19L28 19L28 18L27 18L27 17L28 17L28 16L27 16L27 17L26 17L26 16L25 16L25 15L24 15L24 16L23 16L23 15ZM42 15L42 16L41 16L41 17L39 17L39 16L38 16L38 17L37 17L37 16L35 16L35 17L37 17L37 18L38 18L38 17L39 17L39 19L38 19L38 21L39 21L39 20L41 20L41 18L42 18L42 19L43 19L43 18L44 18L44 15ZM5 16L5 17L7 17L7 18L5 18L5 21L7 21L7 20L8 20L8 21L10 21L10 22L9 22L9 23L10 23L10 22L11 22L11 21L10 21L10 20L11 20L11 19L10 19L10 20L9 20L9 18L8 18L8 16ZM11 16L11 17L10 17L10 18L11 18L11 17L12 17L12 16ZM42 16L42 17L43 17L43 16ZM7 18L7 19L6 19L6 20L7 20L7 19L8 19L8 18ZM22 18L22 19L24 19L24 18ZM15 20L15 21L16 21L16 20ZM25 21L25 22L26 22L26 23L25 23L25 24L31 24L31 23L27 23L27 22L28 22L28 21ZM7 23L7 24L6 24L6 25L7 25L7 24L8 24L8 23ZM15 24L15 25L16 25L16 24ZM10 25L10 26L11 26L11 25ZM31 26L31 27L32 27L32 26ZM3 27L3 28L4 28L4 27ZM5 27L5 30L8 30L8 27ZM27 27L27 30L30 30L30 27ZM49 27L49 30L52 30L52 27ZM6 28L6 29L7 29L7 28ZM25 28L25 29L26 29L26 28ZM28 28L28 29L29 29L29 28ZM50 28L50 29L51 29L51 28ZM0 29L0 30L1 30L1 29ZM3 29L3 30L4 30L4 29ZM24 30L24 31L25 31L25 32L26 32L26 31L25 31L25 30ZM38 30L38 32L39 32L39 30ZM47 31L47 32L48 32L48 33L49 33L49 32L48 32L48 31ZM4 32L4 33L5 33L5 32ZM6 32L6 33L7 33L7 32ZM32 32L32 33L31 33L31 35L32 35L32 33L33 33L33 35L35 35L35 36L37 36L37 34L35 34L35 32ZM10 33L10 35L9 35L9 36L8 36L8 37L6 37L6 38L8 38L8 37L9 37L9 36L10 36L10 39L8 39L8 40L9 40L9 41L10 41L10 40L11 40L11 35L13 35L13 34L11 34L11 33ZM18 33L18 34L19 34L19 35L20 35L20 34L19 34L19 33ZM50 34L50 35L48 35L48 36L47 36L47 37L48 37L48 36L50 36L50 35L52 35L52 34ZM4 36L4 37L5 37L5 36ZM32 36L32 37L33 37L33 38L35 38L35 37L33 37L33 36ZM40 36L40 37L41 37L41 38L42 38L42 37L41 37L41 36ZM27 37L27 38L28 38L28 37ZM51 38L51 39L52 39L52 38ZM6 39L6 40L7 40L7 39ZM1 40L1 41L2 41L2 40ZM23 40L23 41L24 41L24 42L22 42L22 43L21 43L21 44L22 44L22 45L21 45L21 47L23 47L23 46L25 46L25 45L24 45L24 44L27 44L27 45L28 45L28 44L27 44L27 43L25 43L25 41L24 41L24 40ZM29 40L29 41L30 41L30 40ZM42 40L42 41L43 41L43 40ZM6 41L6 42L7 42L7 41ZM19 41L19 42L20 42L20 41ZM26 41L26 42L27 42L27 41ZM2 44L2 45L3 45L3 44ZM54 44L54 45L55 45L55 46L54 46L54 47L55 47L55 46L56 46L56 45L55 45L55 44ZM14 45L14 46L15 46L15 45ZM22 45L22 46L23 46L23 45ZM25 47L25 48L26 48L26 47ZM28 47L28 48L30 48L30 47ZM38 47L38 48L37 48L37 49L38 49L38 48L39 48L39 47ZM46 47L46 48L47 48L47 47ZM53 48L53 49L54 49L54 48ZM55 48L55 49L56 49L56 48ZM10 49L10 50L11 50L11 49ZM27 49L27 52L30 52L30 49ZM49 49L49 52L52 52L52 49ZM28 50L28 51L29 51L29 50ZM50 50L50 51L51 51L51 50ZM15 52L15 53L16 53L16 52ZM38 52L38 53L39 53L39 52ZM17 54L17 55L19 55L19 54ZM41 54L41 55L42 55L42 56L43 56L43 55L42 55L42 54ZM48 55L48 56L49 56L49 55ZM50 55L50 56L51 56L51 55ZM53 55L53 56L55 56L55 57L56 57L56 56L55 56L55 55ZM0 0L0 7L7 7L7 0ZM1 1L1 6L6 6L6 1ZM2 2L2 5L5 5L5 2ZM50 0L50 7L57 7L57 0ZM51 1L51 6L56 6L56 1ZM52 2L52 5L55 5L55 2ZM0 50L0 57L7 57L7 50ZM1 51L1 56L6 56L6 51ZM2 52L2 55L5 55L5 52Z" fill="#000000"/></g></g></svg>
