<?xml version="1.0" encoding="UTF-8"?>
<svg xmlns="http://www.w3.org/2000/svg" version="1.1" width="300" height="300" viewBox="0 0 300 300"><rect x="0" y="0" width="300" height="300" fill="#fefefe"/><g transform="scale(4.615)"><g transform="translate(4,4)"><path fill-rule="evenodd" d="M14 0L14 2L12 2L12 3L8 3L8 4L9 4L9 5L8 5L8 7L9 7L9 8L6 8L6 9L5 9L5 8L0 8L0 9L1 9L1 11L2 11L2 10L3 10L3 9L4 9L4 12L6 12L6 13L5 13L5 14L4 14L4 13L3 13L3 12L1 12L1 13L3 13L3 14L2 14L2 15L3 15L3 16L1 16L1 14L0 14L0 17L1 17L1 18L0 18L0 20L2 20L2 21L1 21L1 22L2 22L2 23L1 23L1 24L2 24L2 25L3 25L3 26L1 26L1 25L0 25L0 26L1 26L1 27L0 27L0 29L1 29L1 30L0 30L0 33L1 33L1 32L2 32L2 29L1 29L1 28L2 28L2 27L3 27L3 30L4 30L4 32L5 32L5 33L3 33L3 34L4 34L4 35L0 35L0 36L1 36L1 37L2 37L2 38L0 38L0 40L1 40L1 42L2 42L2 39L3 39L3 38L5 38L5 37L7 37L7 38L6 38L6 39L8 39L8 37L9 37L9 36L11 36L11 35L13 35L13 37L12 37L12 39L11 39L11 40L10 40L10 38L11 38L11 37L10 37L10 38L9 38L9 40L8 40L8 41L7 41L7 40L3 40L3 46L2 46L2 44L1 44L1 46L0 46L0 48L5 48L5 47L8 47L8 46L9 46L9 47L10 47L10 49L9 49L9 48L8 48L8 51L10 51L10 50L11 50L11 47L12 47L12 48L14 48L14 49L12 49L12 53L11 53L11 55L12 55L12 53L13 53L13 54L14 54L14 56L12 56L12 57L14 57L14 56L15 56L15 55L16 55L16 56L17 56L17 57L19 57L19 55L20 55L20 54L19 54L19 53L20 53L20 52L22 52L22 51L19 51L19 50L20 50L20 49L19 49L19 48L20 48L20 47L23 47L23 49L21 49L21 50L26 50L26 52L24 52L24 53L23 53L23 54L22 54L22 55L23 55L23 56L24 56L24 55L23 55L23 54L24 54L24 53L27 53L27 54L26 54L26 56L25 56L25 57L26 57L26 56L27 56L27 57L29 57L29 56L30 56L30 57L31 57L31 56L35 56L35 57L39 57L39 56L40 56L40 55L41 55L41 57L44 57L44 54L45 54L45 53L44 53L44 52L45 52L45 50L44 50L44 51L43 51L43 49L44 49L44 48L45 48L45 47L47 47L47 48L48 48L48 49L47 49L47 50L48 50L48 54L46 54L46 55L47 55L47 56L48 56L48 57L49 57L49 56L50 56L50 57L52 57L52 55L51 55L51 53L52 53L52 54L53 54L53 55L54 55L54 56L53 56L53 57L54 57L54 56L55 56L55 57L56 57L56 56L55 56L55 54L53 54L53 52L54 52L54 53L56 53L56 49L57 49L57 48L56 48L56 46L57 46L57 43L56 43L56 41L55 41L55 39L57 39L57 37L56 37L56 36L57 36L57 35L56 35L56 34L57 34L57 32L56 32L56 30L57 30L57 29L56 29L56 26L57 26L57 25L56 25L56 22L57 22L57 21L56 21L56 22L53 22L53 21L51 21L51 20L52 20L52 19L53 19L53 20L55 20L55 19L56 19L56 16L57 16L57 15L56 15L56 14L57 14L57 12L56 12L56 14L55 14L55 13L54 13L54 12L55 12L55 11L56 11L56 8L55 8L55 10L54 10L54 11L53 11L53 10L49 10L49 9L50 9L50 8L49 8L49 6L48 6L48 7L47 7L47 5L48 5L48 0L46 0L46 1L47 1L47 2L44 2L44 3L43 3L43 4L40 4L40 5L39 5L39 6L38 6L38 3L41 3L41 2L43 2L43 0L41 0L41 1L40 1L40 0L39 0L39 1L38 1L38 0L37 0L37 1L38 1L38 2L37 2L37 3L36 3L36 0L35 0L35 1L33 1L33 2L32 2L32 0L29 0L29 1L30 1L30 2L32 2L32 3L31 3L31 4L26 4L26 3L23 3L23 2L27 2L27 3L28 3L28 2L27 2L27 1L25 1L25 0L23 0L23 2L20 2L20 0L19 0L19 1L18 1L18 2L19 2L19 3L17 3L17 2L15 2L15 0ZM21 0L21 1L22 1L22 0ZM8 1L8 2L10 2L10 1ZM14 2L14 4L13 4L13 3L12 3L12 4L13 4L13 5L11 5L11 4L10 4L10 5L9 5L9 7L10 7L10 6L11 6L11 8L9 8L9 10L8 10L8 12L9 12L9 15L8 15L8 14L7 14L7 13L6 13L6 14L7 14L7 15L4 15L4 16L7 16L7 17L3 17L3 18L2 18L2 20L3 20L3 18L4 18L4 19L5 19L5 20L4 20L4 21L2 21L2 22L4 22L4 24L3 24L3 23L2 23L2 24L3 24L3 25L4 25L4 26L3 26L3 27L4 27L4 26L5 26L5 25L6 25L6 26L8 26L8 25L9 25L9 24L7 24L7 23L6 23L6 22L7 22L7 21L6 21L6 20L7 20L7 19L6 19L6 18L7 18L7 17L8 17L8 18L9 18L9 17L10 17L10 18L11 18L11 19L12 19L12 18L11 18L11 16L12 16L12 17L13 17L13 19L14 19L14 20L13 20L13 21L12 21L12 20L11 20L11 27L10 27L10 26L9 26L9 31L8 31L8 33L9 33L9 34L7 34L7 33L6 33L6 34L5 34L5 35L4 35L4 36L2 36L2 37L4 37L4 36L7 36L7 37L8 37L8 35L9 35L9 34L12 34L12 33L13 33L13 34L16 34L16 35L17 35L17 36L15 36L15 37L16 37L16 38L14 38L14 37L13 37L13 41L14 41L14 43L13 43L13 42L12 42L12 40L11 40L11 41L8 41L8 43L11 43L11 42L12 42L12 43L13 43L13 44L12 44L12 45L13 45L13 46L14 46L14 48L15 48L15 49L14 49L14 50L13 50L13 51L15 51L15 52L14 52L14 54L16 54L16 53L17 53L17 52L19 52L19 51L18 51L18 50L17 50L17 48L18 48L18 47L17 47L17 48L15 48L15 46L17 46L17 45L18 45L18 44L17 44L17 45L16 45L16 44L14 44L14 43L15 43L15 42L17 42L17 43L18 43L18 42L19 42L19 41L18 41L18 40L17 40L17 36L18 36L18 35L17 35L17 33L18 33L18 34L19 34L19 35L20 35L20 36L19 36L19 37L18 37L18 38L19 38L19 39L20 39L20 38L19 38L19 37L23 37L23 38L24 38L24 37L23 37L23 36L24 36L24 34L23 34L23 33L25 33L25 34L26 34L26 33L27 33L27 36L26 36L26 37L25 37L25 38L27 38L27 39L25 39L25 40L24 40L24 39L22 39L22 40L20 40L20 43L22 43L22 42L24 42L24 43L27 43L27 44L24 44L24 45L22 45L22 44L21 44L21 45L20 45L20 44L19 44L19 45L20 45L20 46L19 46L19 47L20 47L20 46L21 46L21 45L22 45L22 46L23 46L23 47L26 47L26 48L24 48L24 49L26 49L26 48L28 48L28 47L29 47L29 48L30 48L30 47L29 47L29 46L31 46L31 47L33 47L33 48L32 48L32 49L31 49L31 53L30 53L30 54L27 54L27 56L29 56L29 55L30 55L30 56L31 56L31 54L32 54L32 53L33 53L33 55L35 55L35 56L36 56L36 54L35 54L35 53L34 53L34 52L35 52L35 51L34 51L34 50L36 50L36 52L37 52L37 51L38 51L38 50L41 50L41 52L40 52L40 51L39 51L39 52L38 52L38 53L37 53L37 54L40 54L40 53L41 53L41 52L43 52L43 51L42 51L42 50L41 50L41 48L42 48L42 49L43 49L43 48L44 48L44 45L45 45L45 46L47 46L47 47L48 47L48 48L51 48L51 46L52 46L52 47L55 47L55 46L56 46L56 43L55 43L55 44L54 44L54 45L53 45L53 43L54 43L54 42L53 42L53 41L51 41L51 42L50 42L50 43L48 43L48 44L47 44L47 45L45 45L45 44L46 44L46 43L47 43L47 42L48 42L48 41L49 41L49 39L51 39L51 38L53 38L53 39L52 39L52 40L53 40L53 39L55 39L55 38L54 38L54 37L53 37L53 35L55 35L55 36L56 36L56 35L55 35L55 34L54 34L54 33L56 33L56 32L53 32L53 31L54 31L54 30L53 30L53 31L52 31L52 32L51 32L51 31L50 31L50 32L49 32L49 31L48 31L48 29L46 29L46 30L47 30L47 31L45 31L45 30L44 30L44 31L45 31L45 32L43 32L43 30L40 30L40 29L43 29L43 26L42 26L42 28L41 28L41 24L42 24L42 25L43 25L43 24L44 24L44 25L45 25L45 26L44 26L44 27L45 27L45 28L44 28L44 29L45 29L45 28L46 28L46 27L47 27L47 28L48 28L48 26L47 26L47 25L50 25L50 26L52 26L52 25L53 25L53 24L54 24L54 25L55 25L55 24L54 24L54 23L50 23L50 22L51 22L51 21L49 21L49 22L47 22L47 21L48 21L48 20L46 20L46 18L47 18L47 17L48 17L48 16L49 16L49 17L50 17L50 18L48 18L48 19L52 19L52 18L55 18L55 17L53 17L53 16L52 16L52 15L50 15L50 14L51 14L51 12L50 12L50 11L47 11L47 12L45 12L45 11L46 11L46 10L47 10L47 7L46 7L46 6L45 6L45 4L46 4L46 5L47 5L47 3L44 3L44 6L43 6L43 5L40 5L40 6L39 6L39 7L40 7L40 8L38 8L38 11L41 11L41 12L39 12L39 13L38 13L38 14L37 14L37 13L36 13L36 14L37 14L37 15L35 15L35 16L33 16L33 15L32 15L32 13L33 13L33 14L35 14L35 11L36 11L36 10L37 10L37 9L35 9L35 8L37 8L37 7L38 7L38 6L37 6L37 7L36 7L36 5L37 5L37 4L36 4L36 5L35 5L35 3L32 3L32 4L31 4L31 8L32 8L32 10L29 10L29 9L27 9L27 10L29 10L29 12L28 12L28 13L27 13L27 15L26 15L26 17L25 17L25 16L24 16L24 15L25 15L25 14L24 14L24 15L20 15L20 16L19 16L19 17L20 17L20 18L21 18L21 19L22 19L22 20L20 20L20 19L18 19L18 17L17 17L17 16L18 16L18 15L19 15L19 14L18 14L18 15L17 15L17 13L18 13L18 12L17 12L17 11L18 11L18 10L17 10L17 9L16 9L16 8L19 8L19 7L20 7L20 5L18 5L18 4L17 4L17 3L15 3L15 2ZM19 3L19 4L23 4L23 5L21 5L21 8L20 8L20 10L21 10L21 11L20 11L20 12L19 12L19 13L20 13L20 14L21 14L21 13L22 13L22 14L23 14L23 13L22 13L22 12L21 12L21 11L22 11L22 10L23 10L23 9L24 9L24 6L23 6L23 5L24 5L24 4L23 4L23 3ZM15 4L15 5L14 5L14 7L13 7L13 6L12 6L12 7L13 7L13 9L12 9L12 8L11 8L11 9L10 9L10 11L9 11L9 12L10 12L10 13L12 13L12 15L13 15L13 17L14 17L14 18L15 18L15 19L16 19L16 20L15 20L15 21L16 21L16 22L15 22L15 23L16 23L16 24L17 24L17 25L18 25L18 26L17 26L17 27L16 27L16 29L15 29L15 28L12 28L12 27L11 27L11 28L10 28L10 30L11 30L11 31L9 31L9 33L11 33L11 32L12 32L12 31L13 31L13 33L17 33L17 32L18 32L18 33L19 33L19 34L20 34L20 35L21 35L21 36L23 36L23 35L22 35L22 33L21 33L21 34L20 34L20 33L19 33L19 30L20 30L20 29L22 29L22 28L19 28L19 29L18 29L18 28L17 28L17 27L18 27L18 26L19 26L19 27L20 27L20 25L21 25L21 24L19 24L19 23L20 23L20 22L18 22L18 21L20 21L20 20L18 20L18 19L16 19L16 18L15 18L15 17L14 17L14 15L15 15L15 16L16 16L16 13L17 13L17 12L16 12L16 11L15 11L15 10L13 10L13 9L14 9L14 7L15 7L15 8L16 8L16 7L17 7L17 6L16 6L16 7L15 7L15 5L16 5L16 4ZM25 4L25 8L26 8L26 4ZM32 4L32 5L33 5L33 4ZM27 5L27 8L30 8L30 5ZM34 5L34 7L33 7L33 6L32 6L32 7L33 7L33 9L34 9L34 8L35 8L35 5ZM18 6L18 7L19 7L19 6ZM22 6L22 8L23 8L23 6ZM28 6L28 7L29 7L29 6ZM40 6L40 7L41 7L41 6ZM42 6L42 7L43 7L43 9L40 9L40 10L43 10L43 13L39 13L39 14L38 14L38 15L39 15L39 16L38 16L38 17L37 17L37 16L35 16L35 17L37 17L37 18L38 18L38 17L39 17L39 19L38 19L38 20L36 20L36 19L35 19L35 18L33 18L33 19L32 19L32 18L31 18L31 17L32 17L32 15L30 15L30 14L31 14L31 13L32 13L32 12L33 12L33 13L34 13L34 12L33 12L33 10L32 10L32 12L31 12L31 13L30 13L30 14L29 14L29 13L28 13L28 14L29 14L29 16L28 16L28 15L27 15L27 16L28 16L28 17L27 17L27 18L28 18L28 19L29 19L29 20L31 20L31 21L29 21L29 22L31 22L31 21L32 21L32 20L35 20L35 23L34 23L34 22L33 22L33 23L32 23L32 24L31 24L31 23L30 23L30 24L29 24L29 23L28 23L28 24L27 24L27 22L28 22L28 21L26 21L26 18L25 18L25 17L22 17L22 16L21 16L21 17L22 17L22 18L24 18L24 19L23 19L23 20L24 20L24 21L23 21L23 22L24 22L24 21L25 21L25 22L26 22L26 23L25 23L25 24L24 24L24 23L23 23L23 24L24 24L24 25L22 25L22 26L21 26L21 27L22 27L22 26L24 26L24 28L26 28L26 29L23 29L23 30L25 30L25 31L20 31L20 32L28 32L28 33L29 33L29 34L30 34L30 36L29 36L29 37L31 37L31 38L29 38L29 39L33 39L33 40L35 40L35 42L37 42L37 43L36 43L36 44L35 44L35 43L34 43L34 42L33 42L33 41L32 41L32 40L31 40L31 41L32 41L32 42L29 42L29 43L28 43L28 44L27 44L27 45L26 45L26 47L27 47L27 45L28 45L28 44L29 44L29 43L30 43L30 45L31 45L31 46L32 46L32 44L33 44L33 43L34 43L34 45L35 45L35 46L33 46L33 47L36 47L36 48L34 48L34 49L36 49L36 50L38 50L38 49L39 49L39 48L41 48L41 46L43 46L43 45L44 45L44 44L45 44L45 43L46 43L46 42L45 42L45 43L44 43L44 44L43 44L43 42L44 42L44 40L45 40L45 39L46 39L46 41L47 41L47 39L48 39L48 37L49 37L49 38L50 38L50 37L52 37L52 35L53 35L53 34L52 34L52 33L53 33L53 32L52 32L52 33L51 33L51 32L50 32L50 34L48 34L48 35L50 35L50 36L48 36L48 37L47 37L47 35L44 35L44 36L43 36L43 37L40 37L40 36L41 36L41 35L42 35L42 34L45 34L45 33L43 33L43 32L41 32L41 33L39 33L39 34L40 34L40 35L38 35L38 33L37 33L37 32L34 32L34 31L36 31L36 30L33 30L33 29L32 29L32 27L33 27L33 28L35 28L35 29L38 29L38 28L39 28L39 27L40 27L40 26L39 26L39 27L36 27L36 26L34 26L34 27L33 27L33 26L32 26L32 24L33 24L33 25L37 25L37 26L38 26L38 25L39 25L39 24L37 24L37 22L38 22L38 23L39 23L39 22L40 22L40 24L41 24L41 22L42 22L42 24L43 24L43 23L44 23L44 20L45 20L45 18L46 18L46 17L47 17L47 16L48 16L48 15L49 15L49 14L50 14L50 12L49 12L49 13L47 13L47 14L45 14L45 13L44 13L44 11L45 11L45 10L44 10L44 8L45 8L45 6L44 6L44 7L43 7L43 6ZM48 8L48 9L49 9L49 8ZM51 8L51 9L52 9L52 8ZM53 8L53 9L54 9L54 8ZM6 9L6 10L5 10L5 11L6 11L6 12L7 12L7 11L6 11L6 10L7 10L7 9ZM11 10L11 11L10 11L10 12L11 12L11 11L12 11L12 10ZM24 10L24 12L25 12L25 13L26 13L26 12L27 12L27 11L26 11L26 12L25 12L25 10ZM13 11L13 12L14 12L14 11ZM15 12L15 13L13 13L13 14L15 14L15 13L16 13L16 12ZM20 12L20 13L21 13L21 12ZM52 12L52 13L53 13L53 15L54 15L54 13L53 13L53 12ZM43 13L43 14L39 14L39 15L41 15L41 16L39 16L39 17L41 17L41 16L42 16L42 17L43 17L43 16L42 16L42 15L44 15L44 18L43 18L43 19L42 19L42 18L41 18L41 20L38 20L38 22L39 22L39 21L43 21L43 20L44 20L44 18L45 18L45 17L46 17L46 16L47 16L47 15L46 15L46 16L45 16L45 15L44 15L44 13ZM10 14L10 15L11 15L11 14ZM8 16L8 17L9 17L9 16ZM50 16L50 17L52 17L52 16ZM30 18L30 19L31 19L31 18ZM8 19L8 21L10 21L10 20L9 20L9 19ZM16 20L16 21L17 21L17 20ZM4 21L4 22L5 22L5 21ZM13 21L13 24L12 24L12 26L13 26L13 27L15 27L15 25L13 25L13 24L14 24L14 21ZM21 21L21 22L22 22L22 21ZM46 22L46 23L45 23L45 24L47 24L47 22ZM5 23L5 24L6 24L6 25L7 25L7 24L6 24L6 23ZM17 23L17 24L18 24L18 23ZM25 24L25 25L26 25L26 26L25 26L25 27L26 27L26 26L28 26L28 25L29 25L29 26L30 26L30 25L31 25L31 24L30 24L30 25L29 25L29 24L28 24L28 25L27 25L27 24ZM50 24L50 25L51 25L51 24ZM31 26L31 27L32 27L32 26ZM45 26L45 27L46 27L46 26ZM53 26L53 27L54 27L54 26ZM5 27L5 30L8 30L8 27ZM27 27L27 30L30 30L30 27ZM35 27L35 28L36 28L36 27ZM49 27L49 30L52 30L52 27ZM6 28L6 29L7 29L7 28ZM11 28L11 30L12 30L12 28ZM28 28L28 29L29 29L29 28ZM50 28L50 29L51 29L51 28ZM54 28L54 29L55 29L55 28ZM13 29L13 30L14 30L14 31L15 31L15 30L14 30L14 29ZM16 29L16 30L17 30L17 31L18 31L18 29ZM31 29L31 31L30 31L30 32L29 32L29 31L28 31L28 32L29 32L29 33L31 33L31 32L32 32L32 34L31 34L31 35L33 35L33 36L32 36L32 37L33 37L33 38L34 38L34 39L35 39L35 40L38 40L38 42L39 42L39 45L38 45L38 46L39 46L39 47L38 47L38 48L37 48L37 49L38 49L38 48L39 48L39 47L40 47L40 45L41 45L41 44L42 44L42 42L41 42L41 41L43 41L43 39L45 39L45 38L46 38L46 39L47 39L47 37L45 37L45 36L44 36L44 37L43 37L43 38L40 38L40 37L38 37L38 35L37 35L37 34L35 34L35 33L33 33L33 32L32 32L32 29ZM38 30L38 32L39 32L39 30ZM5 31L5 32L7 32L7 31ZM47 31L47 32L48 32L48 33L49 33L49 32L48 32L48 31ZM6 34L6 35L7 35L7 34ZM50 34L50 35L52 35L52 34ZM34 35L34 36L35 36L35 39L37 39L37 38L38 38L38 37L37 37L37 36L35 36L35 35ZM27 37L27 38L28 38L28 37ZM44 37L44 38L45 38L45 37ZM14 39L14 41L17 41L17 42L18 42L18 41L17 41L17 40L16 40L16 39ZM27 39L27 41L26 41L26 42L27 42L27 41L28 41L28 39ZM38 39L38 40L39 40L39 39ZM23 40L23 41L24 41L24 42L25 42L25 41L24 41L24 40ZM29 40L29 41L30 41L30 40ZM5 41L5 42L7 42L7 41ZM21 41L21 42L22 42L22 41ZM39 41L39 42L40 42L40 41ZM32 42L32 43L33 43L33 42ZM51 42L51 43L50 43L50 44L48 44L48 45L50 45L50 46L48 46L48 47L50 47L50 46L51 46L51 45L50 45L50 44L51 44L51 43L53 43L53 42ZM5 43L5 44L4 44L4 45L5 45L5 46L3 46L3 47L5 47L5 46L8 46L8 44L7 44L7 43ZM6 44L6 45L7 45L7 44ZM9 44L9 45L10 45L10 47L11 47L11 45L10 45L10 44ZM14 45L14 46L15 46L15 45ZM24 45L24 46L25 46L25 45ZM1 46L1 47L2 47L2 46ZM42 47L42 48L43 48L43 47ZM6 48L6 49L7 49L7 48ZM53 48L53 49L56 49L56 48ZM27 49L27 52L30 52L30 49ZM49 49L49 52L52 52L52 49ZM15 50L15 51L17 51L17 50ZM28 50L28 51L29 51L29 50ZM50 50L50 51L51 51L51 50ZM54 50L54 51L55 51L55 50ZM32 51L32 52L33 52L33 51ZM46 51L46 52L47 52L47 51ZM8 52L8 57L9 57L9 55L10 55L10 54L9 54L9 53L10 53L10 52ZM15 52L15 53L16 53L16 52ZM43 53L43 54L44 54L44 53ZM41 54L41 55L42 55L42 56L43 56L43 55L42 55L42 54ZM17 55L17 56L18 56L18 55ZM37 55L37 56L39 56L39 55ZM48 55L48 56L49 56L49 55ZM50 55L50 56L51 56L51 55ZM10 56L10 57L11 57L11 56ZM20 56L20 57L21 57L21 56ZM45 56L45 57L46 57L46 56ZM0 0L0 7L7 7L7 0ZM1 1L1 6L6 6L6 1ZM2 2L2 5L5 5L5 2ZM50 0L50 7L57 7L57 0ZM51 1L51 6L56 6L56 1ZM52 2L52 5L55 5L55 2ZM0 50L0 57L7 57L7 50ZM1 51L1 56L6 56L6 51ZM2 52L2 55L5 55L5 52Z" fill="#000000"/></g></g></svg>
