<?xml version="1.0" encoding="UTF-8"?>
<svg xmlns="http://www.w3.org/2000/svg" version="1.1" width="300" height="300" viewBox="0 0 300 300"><rect x="0" y="0" width="300" height="300" fill="#fefefe"/><g transform="scale(4.615)"><g transform="translate(4,4)"><path fill-rule="evenodd" d="M8 0L8 2L9 2L9 3L10 3L10 2L11 2L11 1L12 1L12 2L13 2L13 0ZM14 0L14 3L12 3L12 7L11 7L11 6L10 6L10 7L11 7L11 10L10 10L10 8L9 8L9 5L11 5L11 4L8 4L8 9L7 9L7 8L5 8L5 9L4 9L4 10L2 10L2 11L1 11L1 12L0 12L0 14L1 14L1 15L0 15L0 16L1 16L1 17L2 17L2 18L3 18L3 19L1 19L1 18L0 18L0 19L1 19L1 20L4 20L4 21L5 21L5 22L4 22L4 23L5 23L5 24L4 24L4 25L7 25L7 24L6 24L6 23L9 23L9 21L11 21L11 22L10 22L10 23L11 23L11 24L10 24L10 25L12 25L12 23L15 23L15 24L13 24L13 25L14 25L14 27L15 27L15 28L16 28L16 27L15 27L15 26L16 26L16 25L17 25L17 23L18 23L18 25L19 25L19 26L20 26L20 27L18 27L18 28L19 28L19 30L17 30L17 31L16 31L16 30L15 30L15 29L14 29L14 28L13 28L13 30L12 30L12 28L10 28L10 29L9 29L9 26L4 26L4 27L3 27L3 25L1 25L1 24L2 24L2 21L1 21L1 23L0 23L0 25L1 25L1 26L2 26L2 27L3 27L3 34L4 34L4 35L0 35L0 36L1 36L1 37L2 37L2 40L0 40L0 41L1 41L1 42L0 42L0 45L1 45L1 46L0 46L0 48L5 48L5 47L7 47L7 48L6 48L6 49L7 49L7 48L8 48L8 50L9 50L9 51L8 51L8 52L9 52L9 53L10 53L10 56L9 56L9 54L8 54L8 57L11 57L11 56L13 56L13 57L17 57L17 56L18 56L18 57L21 57L21 56L22 56L22 57L25 57L25 55L24 55L24 54L26 54L26 55L27 55L27 56L26 56L26 57L28 57L28 55L29 55L29 57L33 57L33 55L34 55L34 57L35 57L35 55L37 55L37 54L38 54L38 53L37 53L37 51L38 51L38 47L37 47L37 48L36 48L36 49L37 49L37 51L35 51L35 52L34 52L34 49L35 49L35 47L36 47L36 46L38 46L38 45L37 45L37 44L39 44L39 43L37 43L37 44L36 44L36 41L37 41L37 42L38 42L38 41L39 41L39 40L40 40L40 41L41 41L41 42L40 42L40 45L39 45L39 46L40 46L40 45L41 45L41 47L40 47L40 49L39 49L39 52L40 52L40 53L39 53L39 56L40 56L40 57L42 57L42 56L43 56L43 54L42 54L42 52L41 52L41 51L43 51L43 52L44 52L44 55L45 55L45 56L44 56L44 57L45 57L45 56L46 56L46 57L48 57L48 55L49 55L49 57L50 57L50 55L49 55L49 54L52 54L52 55L53 55L53 54L54 54L54 53L55 53L55 52L56 52L56 53L57 53L57 50L56 50L56 47L57 47L57 42L56 42L56 44L55 44L55 45L54 45L54 46L53 46L53 47L52 47L52 45L53 45L53 44L54 44L54 43L55 43L55 42L54 42L54 38L57 38L57 36L56 36L56 37L55 37L55 36L54 36L54 34L53 34L53 36L52 36L52 37L51 37L51 33L50 33L50 32L54 32L54 31L55 31L55 33L56 33L56 31L57 31L57 29L56 29L56 27L57 27L57 24L56 24L56 23L57 23L57 12L55 12L55 13L56 13L56 15L55 15L55 16L54 16L54 13L53 13L53 12L54 12L54 11L55 11L55 10L56 10L56 11L57 11L57 10L56 10L56 9L57 9L57 8L55 8L55 9L54 9L54 10L53 10L53 8L49 8L49 6L48 6L48 9L47 9L47 5L48 5L48 0L46 0L46 1L47 1L47 2L45 2L45 4L44 4L44 2L43 2L43 4L42 4L42 1L45 1L45 0L42 0L42 1L41 1L41 0L38 0L38 2L37 2L37 1L35 1L35 0L34 0L34 2L33 2L33 1L32 1L32 0L30 0L30 3L31 3L31 4L28 4L28 3L29 3L29 2L28 2L28 1L29 1L29 0L28 0L28 1L27 1L27 0L26 0L26 1L25 1L25 0L24 0L24 1L23 1L23 0L20 0L20 1L21 1L21 2L20 2L20 3L21 3L21 4L22 4L22 5L20 5L20 7L19 7L19 4L18 4L18 3L17 3L17 2L19 2L19 1L18 1L18 0L16 0L16 1L17 1L17 2L16 2L16 3L15 3L15 0ZM9 1L9 2L10 2L10 1ZM22 1L22 2L21 2L21 3L22 3L22 4L23 4L23 1ZM24 1L24 4L25 4L25 1ZM39 1L39 2L40 2L40 4L39 4L39 5L38 5L38 4L37 4L37 2L34 2L34 3L36 3L36 4L35 4L35 9L34 9L34 10L33 10L33 9L32 9L32 8L34 8L34 6L33 6L33 5L34 5L34 4L33 4L33 2L32 2L32 5L31 5L31 9L30 9L30 11L29 11L29 12L30 12L30 13L29 13L29 15L28 15L28 14L25 14L25 13L24 13L24 14L23 14L23 12L22 12L22 11L26 11L26 13L27 13L27 12L28 12L28 11L27 11L27 10L28 10L28 9L27 9L27 10L25 10L25 9L26 9L26 5L24 5L24 6L23 6L23 5L22 5L22 6L21 6L21 9L20 9L20 8L19 8L19 7L18 7L18 5L16 5L16 6L15 6L15 5L14 5L14 6L13 6L13 8L12 8L12 9L13 9L13 10L12 10L12 11L10 11L10 10L7 10L7 9L5 9L5 10L7 10L7 11L5 11L5 12L2 12L2 13L1 13L1 14L2 14L2 15L1 15L1 16L2 16L2 15L3 15L3 18L4 18L4 20L5 20L5 18L7 18L7 17L8 17L8 19L6 19L6 20L8 20L8 19L10 19L10 20L11 20L11 21L13 21L13 20L12 20L12 18L13 18L13 17L12 17L12 16L11 16L11 15L12 15L12 14L13 14L13 15L14 15L14 16L15 16L15 17L16 17L16 18L17 18L17 19L16 19L16 20L17 20L17 22L16 22L16 23L17 23L17 22L18 22L18 23L19 23L19 25L20 25L20 26L21 26L21 23L20 23L20 22L22 22L22 23L23 23L23 21L22 21L22 18L21 18L21 14L22 14L22 16L24 16L24 18L26 18L26 17L25 17L25 15L26 15L26 16L27 16L27 19L26 19L26 20L27 20L27 21L28 21L28 22L26 22L26 23L27 23L27 25L26 25L26 26L28 26L28 24L29 24L29 25L30 25L30 26L31 26L31 25L32 25L32 27L31 27L31 30L32 30L32 32L30 32L30 34L31 34L31 35L28 35L28 34L29 34L29 32L26 32L26 33L25 33L25 31L26 31L26 30L25 30L25 29L24 29L24 28L25 28L25 27L24 27L24 26L25 26L25 25L24 25L24 26L23 26L23 27L22 27L22 28L23 28L23 29L22 29L22 30L21 30L21 29L20 29L20 30L21 30L21 31L20 31L20 32L19 32L19 31L18 31L18 32L16 32L16 31L15 31L15 30L13 30L13 31L14 31L14 32L13 32L13 33L11 33L11 32L12 32L12 31L11 31L11 29L10 29L10 32L9 32L9 33L6 33L6 32L8 32L8 31L5 31L5 33L4 33L4 34L5 34L5 33L6 33L6 34L9 34L9 33L10 33L10 35L6 35L6 36L7 36L7 37L5 37L5 35L4 35L4 36L2 36L2 37L3 37L3 40L4 40L4 42L5 42L5 43L6 43L6 44L5 44L5 45L4 45L4 43L3 43L3 44L2 44L2 42L3 42L3 41L2 41L2 42L1 42L1 44L2 44L2 45L3 45L3 47L5 47L5 45L6 45L6 46L7 46L7 45L6 45L6 44L10 44L10 46L13 46L13 47L12 47L12 48L10 48L10 49L12 49L12 50L10 50L10 51L9 51L9 52L10 52L10 53L11 53L11 54L13 54L13 53L14 53L14 54L15 54L15 53L14 53L14 52L15 52L15 51L16 51L16 52L17 52L17 54L16 54L16 55L17 55L17 54L18 54L18 55L19 55L19 56L21 56L21 55L23 55L23 53L22 53L22 51L23 51L23 52L24 52L24 51L25 51L25 53L26 53L26 54L27 54L27 55L28 55L28 53L26 53L26 50L25 50L25 46L26 46L26 48L27 48L27 46L26 46L26 45L25 45L25 44L24 44L24 42L26 42L26 41L25 41L25 40L26 40L26 39L27 39L27 40L28 40L28 42L27 42L27 43L28 43L28 42L29 42L29 43L30 43L30 45L29 45L29 44L28 44L28 48L31 48L31 52L32 52L32 50L33 50L33 49L32 49L32 40L33 40L33 41L34 41L34 42L35 42L35 41L36 41L36 38L37 38L37 37L36 37L36 35L38 35L38 36L40 36L40 35L42 35L42 36L41 36L41 39L40 39L40 38L39 38L39 37L38 37L38 39L37 39L37 41L38 41L38 39L40 39L40 40L41 40L41 41L42 41L42 42L41 42L41 45L42 45L42 47L41 47L41 49L40 49L40 51L41 51L41 49L42 49L42 50L43 50L43 51L45 51L45 49L44 49L44 47L45 47L45 48L46 48L46 51L47 51L47 52L48 52L48 51L47 51L47 44L46 44L46 47L45 47L45 45L44 45L44 44L45 44L45 42L44 42L44 39L43 39L43 38L44 38L44 35L43 35L43 33L42 33L42 31L44 31L44 30L46 30L46 31L45 31L45 33L46 33L46 34L45 34L45 35L46 35L46 36L45 36L45 37L46 37L46 38L47 38L47 40L46 40L46 43L48 43L48 42L49 42L49 44L48 44L48 45L51 45L51 44L50 44L50 42L49 42L49 41L51 41L51 40L52 40L52 44L53 44L53 38L54 38L54 36L53 36L53 37L52 37L52 38L51 38L51 40L50 40L50 37L49 37L49 36L50 36L50 33L49 33L49 36L48 36L48 35L46 35L46 34L48 34L48 33L46 33L46 31L47 31L47 30L48 30L48 29L47 29L47 28L46 28L46 29L44 29L44 30L43 30L43 28L42 28L42 31L41 31L41 29L40 29L40 28L41 28L41 27L43 27L43 25L44 25L44 24L45 24L45 25L46 25L46 26L49 26L49 24L47 24L47 25L46 25L46 23L48 23L48 22L50 22L50 26L51 26L51 25L52 25L52 26L53 26L53 25L54 25L54 26L55 26L55 25L56 25L56 24L55 24L55 23L56 23L56 18L55 18L55 19L54 19L54 17L53 17L53 18L52 18L52 16L53 16L53 14L52 14L52 13L50 13L50 11L49 11L49 9L48 9L48 11L47 11L47 9L46 9L46 8L45 8L45 7L46 7L46 5L47 5L47 3L46 3L46 4L45 4L45 5L44 5L44 4L43 4L43 5L44 5L44 6L43 6L43 7L42 7L42 6L41 6L41 5L42 5L42 4L41 4L41 2L40 2L40 1ZM14 3L14 4L15 4L15 3ZM16 3L16 4L17 4L17 3ZM26 3L26 4L27 4L27 3ZM27 5L27 8L30 8L30 5ZM14 6L14 7L15 7L15 6ZM16 6L16 7L17 7L17 8L18 8L18 9L17 9L17 10L16 10L16 11L14 11L14 12L16 12L16 11L17 11L17 14L15 14L15 15L17 15L17 16L16 16L16 17L17 17L17 18L18 18L18 19L19 19L19 18L20 18L20 19L21 19L21 18L20 18L20 16L19 16L19 15L20 15L20 13L21 13L21 12L20 12L20 11L19 11L19 10L20 10L20 9L19 9L19 8L18 8L18 7L17 7L17 6ZM22 6L22 7L23 7L23 6ZM24 6L24 7L25 7L25 6ZM28 6L28 7L29 7L29 6ZM32 6L32 7L33 7L33 6ZM36 6L36 10L34 10L34 11L33 11L33 12L32 12L32 9L31 9L31 11L30 11L30 12L32 12L32 13L31 13L31 14L32 14L32 13L33 13L33 15L32 15L32 18L31 18L31 19L29 19L29 20L28 20L28 19L27 19L27 20L28 20L28 21L29 21L29 23L30 23L30 24L31 24L31 23L32 23L32 25L33 25L33 26L34 26L34 24L36 24L36 26L37 26L37 28L36 28L36 27L34 27L34 29L33 29L33 28L32 28L32 30L33 30L33 31L34 31L34 29L35 29L35 28L36 28L36 30L35 30L35 31L36 31L36 33L35 33L35 34L34 34L34 32L32 32L32 33L33 33L33 34L34 34L34 37L33 37L33 35L31 35L31 36L30 36L30 40L31 40L31 38L34 38L34 41L35 41L35 38L36 38L36 37L35 37L35 35L36 35L36 33L37 33L37 34L38 34L38 35L39 35L39 34L38 34L38 33L39 33L39 32L40 32L40 34L42 34L42 33L41 33L41 32L40 32L40 31L38 31L38 30L37 30L37 28L38 28L38 29L39 29L39 30L40 30L40 29L39 29L39 28L40 28L40 25L41 25L41 26L42 26L42 25L43 25L43 22L44 22L44 23L45 23L45 22L46 22L46 21L45 21L45 20L46 20L46 19L44 19L44 17L45 17L45 18L46 18L46 17L47 17L47 18L48 18L48 17L49 17L49 20L51 20L51 19L52 19L52 18L50 18L50 17L51 17L51 16L52 16L52 14L51 14L51 16L50 16L50 13L49 13L49 14L48 14L48 12L47 12L47 11L46 11L46 13L45 13L45 12L44 12L44 11L43 11L43 10L44 10L44 9L45 9L45 10L46 10L46 9L45 9L45 8L44 8L44 7L45 7L45 6L44 6L44 7L43 7L43 8L44 8L44 9L43 9L43 10L42 10L42 9L41 9L41 8L42 8L42 7L41 7L41 6L40 6L40 7L39 7L39 6L38 6L38 8L37 8L37 6ZM40 7L40 8L38 8L38 10L37 10L37 11L38 11L38 10L40 10L40 11L41 11L41 12L42 12L42 15L41 15L41 13L40 13L40 15L39 15L39 12L37 12L37 13L36 13L36 11L34 11L34 12L35 12L35 13L34 13L34 15L33 15L33 17L34 17L34 19L33 19L33 18L32 18L32 19L33 19L33 20L34 20L34 19L35 19L35 18L36 18L36 19L37 19L37 18L36 18L36 14L37 14L37 13L38 13L38 15L37 15L37 16L38 16L38 18L40 18L40 19L39 19L39 20L37 20L37 21L36 21L36 20L35 20L35 21L34 21L34 22L33 22L33 21L32 21L32 20L31 20L31 21L30 21L30 22L33 22L33 24L34 24L34 22L35 22L35 23L36 23L36 24L37 24L37 25L38 25L38 26L39 26L39 25L40 25L40 24L39 24L39 23L41 23L41 25L42 25L42 23L41 23L41 22L40 22L40 19L41 19L41 20L42 20L42 22L43 22L43 21L44 21L44 22L45 22L45 21L44 21L44 19L43 19L43 20L42 20L42 19L41 19L41 18L40 18L40 15L41 15L41 17L42 17L42 18L43 18L43 17L44 17L44 16L45 16L45 17L46 17L46 15L48 15L48 14L47 14L47 13L46 13L46 15L44 15L44 14L45 14L45 13L44 13L44 12L42 12L42 10L40 10L40 8L41 8L41 7ZM0 8L0 9L3 9L3 8ZM14 8L14 9L15 9L15 8ZM22 8L22 10L24 10L24 9L25 9L25 8L24 8L24 9L23 9L23 8ZM50 9L50 10L51 10L51 12L52 12L52 11L53 11L53 10L51 10L51 9ZM8 11L8 13L9 13L9 15L8 15L8 14L6 14L6 13L7 13L7 12L5 12L5 13L2 13L2 14L3 14L3 15L4 15L4 17L7 17L7 16L6 16L6 15L8 15L8 17L9 17L9 18L11 18L11 16L10 16L10 14L12 14L12 13L13 13L13 12L11 12L11 13L9 13L9 11ZM18 11L18 12L19 12L19 11ZM18 13L18 15L19 15L19 13ZM43 13L43 14L44 14L44 13ZM4 14L4 15L5 15L5 14ZM29 15L29 16L30 16L30 17L28 17L28 18L30 18L30 17L31 17L31 16L30 16L30 15ZM34 15L34 17L35 17L35 15ZM43 15L43 16L44 16L44 15ZM9 16L9 17L10 17L10 16ZM55 16L55 17L56 17L56 16ZM14 19L14 20L15 20L15 19ZM24 19L24 20L25 20L25 19ZM47 19L47 20L48 20L48 19ZM53 19L53 20L52 20L52 22L51 22L51 23L52 23L52 22L53 22L53 21L54 21L54 23L53 23L53 24L52 24L52 25L53 25L53 24L54 24L54 23L55 23L55 21L54 21L54 19ZM18 20L18 21L19 21L19 20ZM20 20L20 21L21 21L21 20ZM6 21L6 22L5 22L5 23L6 23L6 22L8 22L8 21ZM14 21L14 22L15 22L15 21ZM35 21L35 22L36 22L36 23L39 23L39 22L38 22L38 21L37 21L37 22L36 22L36 21ZM47 21L47 22L48 22L48 21ZM11 22L11 23L12 23L12 22ZM24 22L24 23L25 23L25 22ZM8 24L8 25L9 25L9 24ZM15 24L15 25L16 25L16 24ZM10 26L10 27L11 27L11 26ZM44 26L44 27L45 27L45 26ZM5 27L5 30L8 30L8 27ZM20 27L20 28L21 28L21 27ZM27 27L27 30L30 30L30 27ZM49 27L49 30L52 30L52 27ZM54 27L54 28L53 28L53 29L55 29L55 27ZM1 28L1 30L2 30L2 28ZM6 28L6 29L7 29L7 28ZM28 28L28 29L29 29L29 28ZM50 28L50 29L51 29L51 28ZM23 29L23 30L22 30L22 33L23 33L23 35L25 35L25 36L24 36L24 37L26 37L26 38L24 38L24 39L26 39L26 38L27 38L27 37L26 37L26 35L25 35L25 34L24 34L24 32L23 32L23 30L24 30L24 31L25 31L25 30L24 30L24 29ZM36 30L36 31L37 31L37 32L38 32L38 31L37 31L37 30ZM55 30L55 31L56 31L56 30ZM0 31L0 32L2 32L2 31ZM49 31L49 32L50 32L50 31ZM14 32L14 33L15 33L15 34L11 34L11 35L12 35L12 36L11 36L11 38L10 38L10 37L8 37L8 38L4 38L4 40L5 40L5 41L7 41L7 40L6 40L6 39L8 39L8 38L10 38L10 39L9 39L9 40L8 40L8 42L6 42L6 43L8 43L8 42L9 42L9 40L12 40L12 41L13 41L13 43L12 43L12 42L10 42L10 43L11 43L11 44L12 44L12 45L13 45L13 46L14 46L14 47L13 47L13 48L12 48L12 49L14 49L14 50L13 50L13 52L12 52L12 51L11 51L11 52L12 52L12 53L13 53L13 52L14 52L14 50L16 50L16 51L17 51L17 52L18 52L18 54L19 54L19 51L20 51L20 53L21 53L21 54L20 54L20 55L21 55L21 54L22 54L22 53L21 53L21 51L20 51L20 49L21 49L21 48L22 48L22 50L23 50L23 51L24 51L24 49L23 49L23 48L22 48L22 46L21 46L21 48L20 48L20 47L19 47L19 46L20 46L20 45L19 45L19 44L20 44L20 43L19 43L19 42L20 42L20 41L21 41L21 39L20 39L20 38L21 38L21 35L22 35L22 34L21 34L21 35L20 35L20 33L19 33L19 32L18 32L18 33L17 33L17 35L18 35L18 37L19 37L19 38L16 38L16 39L18 39L18 42L16 42L16 41L17 41L17 40L16 40L16 41L15 41L15 39L14 39L14 38L13 38L13 40L12 40L12 39L11 39L11 38L12 38L12 36L13 36L13 37L15 37L15 36L16 36L16 37L17 37L17 36L16 36L16 32ZM0 33L0 34L2 34L2 33ZM18 33L18 34L19 34L19 33ZM26 33L26 34L28 34L28 33ZM56 34L56 35L57 35L57 34ZM13 35L13 36L15 36L15 35ZM19 35L19 36L20 36L20 35ZM27 35L27 36L28 36L28 37L29 37L29 36L28 36L28 35ZM22 36L22 37L23 37L23 36ZM31 36L31 37L32 37L32 36ZM42 36L42 37L43 37L43 36ZM47 36L47 37L48 37L48 40L47 40L47 41L48 41L48 40L49 40L49 37L48 37L48 36ZM34 37L34 38L35 38L35 37ZM0 38L0 39L1 39L1 38ZM22 38L22 39L23 39L23 38ZM28 38L28 39L29 39L29 38ZM41 39L41 40L42 40L42 39ZM19 40L19 41L20 41L20 40ZM22 40L22 41L23 41L23 40ZM55 40L55 41L57 41L57 40ZM14 41L14 44L13 44L13 45L16 45L16 46L17 46L17 47L16 47L16 48L17 48L17 49L16 49L16 50L18 50L18 48L19 48L19 47L18 47L18 46L19 46L19 45L18 45L18 46L17 46L17 44L15 44L15 43L16 43L16 42L15 42L15 41ZM30 41L30 43L31 43L31 41ZM42 42L42 43L44 43L44 42ZM18 43L18 44L19 44L19 43ZM22 43L22 44L23 44L23 43ZM33 44L33 45L34 45L34 47L33 47L33 48L34 48L34 47L35 47L35 46L36 46L36 44ZM42 44L42 45L43 45L43 46L44 46L44 45L43 45L43 44ZM8 45L8 48L9 48L9 45ZM55 45L55 46L54 46L54 48L53 48L53 49L54 49L54 50L53 50L53 51L54 51L54 52L55 52L55 51L56 51L56 50L55 50L55 49L54 49L54 48L55 48L55 47L56 47L56 45ZM1 46L1 47L2 47L2 46ZM23 46L23 47L24 47L24 46ZM30 46L30 47L31 47L31 46ZM49 46L49 47L50 47L50 46ZM14 47L14 48L15 48L15 47ZM51 47L51 48L52 48L52 47ZM27 49L27 52L30 52L30 49ZM43 49L43 50L44 50L44 49ZM49 49L49 52L52 52L52 49ZM28 50L28 51L29 51L29 50ZM50 50L50 51L51 51L51 50ZM35 52L35 53L34 53L34 54L35 54L35 53L36 53L36 54L37 54L37 53L36 53L36 52ZM45 52L45 53L46 53L46 55L48 55L48 54L49 54L49 53L46 53L46 52ZM31 53L31 54L30 54L30 55L33 55L33 54L32 54L32 53ZM40 54L40 56L42 56L42 55L41 55L41 54ZM55 54L55 55L57 55L57 54ZM13 55L13 56L15 56L15 55ZM36 56L36 57L37 57L37 56ZM51 56L51 57L53 57L53 56ZM56 56L56 57L57 57L57 56ZM0 0L0 7L7 7L7 0ZM1 1L1 6L6 6L6 1ZM2 2L2 5L5 5L5 2ZM50 0L50 7L57 7L57 0ZM51 1L51 6L56 6L56 1ZM52 2L52 5L55 5L55 2ZM0 50L0 57L7 57L7 50ZM1 51L1 56L6 56L6 51ZM2 52L2 55L5 55L5 52Z" fill="#000000"/></g></g></svg>
