<?xml version="1.0" encoding="UTF-8"?>
<svg xmlns="http://www.w3.org/2000/svg" version="1.1" width="300" height="300" viewBox="0 0 300 300"><rect x="0" y="0" width="300" height="300" fill="#fefefe"/><g transform="scale(4.615)"><g transform="translate(4,4)"><path fill-rule="evenodd" d="M10 0L10 3L8 3L8 4L9 4L9 5L8 5L8 7L9 7L9 6L10 6L10 7L11 7L11 6L10 6L10 5L11 5L11 3L12 3L12 2L13 2L13 4L14 4L14 2L15 2L15 3L17 3L17 4L18 4L18 5L17 5L17 6L16 6L16 7L15 7L15 5L16 5L16 4L15 4L15 5L12 5L12 7L13 7L13 8L12 8L12 9L11 9L11 8L10 8L10 9L9 9L9 8L6 8L6 9L8 9L8 10L4 10L4 9L5 9L5 8L0 8L0 9L1 9L1 10L0 10L0 12L1 12L1 14L0 14L0 15L1 15L1 16L0 16L0 17L2 17L2 18L0 18L0 19L2 19L2 20L1 20L1 21L0 21L0 22L1 22L1 23L2 23L2 24L0 24L0 25L2 25L2 26L0 26L0 27L1 27L1 30L3 30L3 31L4 31L4 32L1 32L1 33L2 33L2 34L1 34L1 35L3 35L3 36L2 36L2 37L1 37L1 36L0 36L0 37L1 37L1 38L2 38L2 39L4 39L4 38L5 38L5 40L4 40L4 42L6 42L6 43L3 43L3 44L2 44L2 42L3 42L3 41L2 41L2 40L0 40L0 43L1 43L1 44L2 44L2 45L4 45L4 44L6 44L6 45L10 45L10 44L8 44L8 43L10 43L10 42L11 42L11 39L10 39L10 36L9 36L9 38L8 38L8 37L7 37L7 36L8 36L8 34L10 34L10 35L13 35L13 34L14 34L14 35L17 35L17 34L18 34L18 36L17 36L17 38L18 38L18 37L19 37L19 38L20 38L20 39L19 39L19 40L16 40L16 39L15 39L15 38L16 38L16 37L15 37L15 36L13 36L13 39L15 39L15 40L16 40L16 41L13 41L13 40L12 40L12 41L13 41L13 42L12 42L12 45L11 45L11 47L12 47L12 48L10 48L10 46L5 46L5 47L3 47L3 46L2 46L2 47L1 47L1 46L0 46L0 48L5 48L5 47L7 47L7 48L6 48L6 49L8 49L8 51L10 51L10 52L8 52L8 57L13 57L13 55L16 55L16 56L17 56L17 57L19 57L19 56L18 56L18 55L17 55L17 54L19 54L19 55L20 55L20 54L19 54L19 53L20 53L20 52L22 52L22 51L21 51L21 50L25 50L25 51L26 51L26 52L24 52L24 53L23 53L23 54L22 54L22 53L21 53L21 56L24 56L24 57L26 57L26 56L27 56L27 57L29 57L29 56L30 56L30 57L31 57L31 56L35 56L35 57L39 57L39 56L37 56L37 55L41 55L41 54L42 54L42 55L43 55L43 57L44 57L44 54L45 54L45 57L47 57L47 55L49 55L49 56L48 56L48 57L49 57L49 56L50 56L50 57L52 57L52 55L51 55L51 53L52 53L52 54L53 54L53 57L54 57L54 56L55 56L55 57L56 57L56 56L55 56L55 55L54 55L54 54L55 54L55 52L57 52L57 51L54 51L54 50L57 50L57 48L56 48L56 46L57 46L57 43L56 43L56 42L55 42L55 41L53 41L53 40L55 40L55 39L57 39L57 37L55 37L55 36L56 36L56 34L55 34L55 33L54 33L54 34L55 34L55 35L53 35L53 34L52 34L52 33L53 33L53 32L56 32L56 33L57 33L57 32L56 32L56 30L57 30L57 28L56 28L56 26L57 26L57 25L56 25L56 22L57 22L57 21L56 21L56 20L57 20L57 19L56 19L56 16L57 16L57 15L56 15L56 14L57 14L57 13L56 13L56 12L57 12L57 11L56 11L56 8L55 8L55 10L54 10L54 11L52 11L52 10L49 10L49 9L50 9L50 8L49 8L49 6L48 6L48 8L47 8L47 5L48 5L48 0L46 0L46 1L45 1L45 2L44 2L44 3L43 3L43 4L42 4L42 5L41 5L41 4L40 4L40 5L39 5L39 6L38 6L38 7L37 7L37 5L38 5L38 4L39 4L39 3L42 3L42 2L43 2L43 0L41 0L41 1L40 1L40 0L39 0L39 1L38 1L38 0L37 0L37 1L38 1L38 3L36 3L36 0L35 0L35 1L33 1L33 0L32 0L32 3L31 3L31 2L29 2L29 1L31 1L31 0L28 0L28 1L25 1L25 0L23 0L23 2L22 2L22 3L23 3L23 4L19 4L19 3L21 3L21 1L22 1L22 0L21 0L21 1L20 1L20 0L17 0L17 1L18 1L18 2L19 2L19 3L17 3L17 2L15 2L15 1L14 1L14 0L13 0L13 1L12 1L12 0ZM8 1L8 2L9 2L9 1ZM13 1L13 2L14 2L14 1ZM19 1L19 2L20 2L20 1ZM46 1L46 2L47 2L47 1ZM23 2L23 3L26 3L26 4L25 4L25 8L26 8L26 4L27 4L27 3L28 3L28 4L30 4L30 3L28 3L28 2ZM33 2L33 3L32 3L32 4L31 4L31 8L32 8L32 10L31 10L31 11L30 11L30 10L29 10L29 12L28 12L28 13L26 13L26 12L27 12L27 11L26 11L26 12L25 12L25 11L24 11L24 12L23 12L23 13L22 13L22 12L21 12L21 13L20 13L20 10L21 10L21 11L22 11L22 10L21 10L21 9L23 9L23 8L24 8L24 6L23 6L23 5L24 5L24 4L23 4L23 5L21 5L21 7L22 7L22 8L19 8L19 9L18 9L18 8L17 8L17 7L18 7L18 6L19 6L19 7L20 7L20 5L18 5L18 6L17 6L17 7L16 7L16 8L17 8L17 9L15 9L15 7L14 7L14 6L13 6L13 7L14 7L14 10L17 10L17 11L15 11L15 13L12 13L12 12L14 12L14 11L13 11L13 9L12 9L12 10L11 10L11 9L10 9L10 10L8 10L8 11L9 11L9 12L10 12L10 13L11 13L11 16L9 16L9 15L8 15L8 14L9 14L9 13L8 13L8 14L7 14L7 13L5 13L5 11L4 11L4 10L3 10L3 9L2 9L2 10L3 10L3 11L4 11L4 12L2 12L2 13L5 13L5 14L7 14L7 15L5 15L5 16L4 16L4 14L2 14L2 17L3 17L3 16L4 16L4 18L3 18L3 20L2 20L2 21L1 21L1 22L3 22L3 20L4 20L4 19L5 19L5 17L6 17L6 18L7 18L7 19L6 19L6 20L5 20L5 21L6 21L6 22L4 22L4 23L6 23L6 24L8 24L8 26L11 26L11 29L10 29L10 31L9 31L9 32L11 32L11 29L12 29L12 31L13 31L13 32L12 32L12 33L11 33L11 34L12 34L12 33L13 33L13 32L14 32L14 33L15 33L15 34L17 34L17 32L20 32L20 30L21 30L21 31L23 31L23 32L21 32L21 33L20 33L20 34L19 34L19 33L18 33L18 34L19 34L19 37L21 37L21 38L24 38L24 37L23 37L23 36L24 36L24 34L23 34L23 33L25 33L25 34L26 34L26 33L27 33L27 35L26 35L26 36L27 36L27 37L28 37L28 38L27 38L27 39L28 39L28 40L32 40L32 41L27 41L27 40L26 40L26 37L25 37L25 40L24 40L24 39L22 39L22 40L21 40L21 41L20 41L20 40L19 40L19 41L16 41L16 42L14 42L14 43L18 43L18 42L19 42L19 43L20 43L20 44L19 44L19 45L20 45L20 46L21 46L21 45L22 45L22 46L24 46L24 49L25 49L25 50L26 50L26 49L25 49L25 47L26 47L26 48L30 48L30 47L26 47L26 45L27 45L27 46L29 46L29 44L28 44L28 43L27 43L27 42L32 42L32 43L33 43L33 44L31 44L31 45L32 45L32 46L31 46L31 48L32 48L32 49L31 49L31 50L32 50L32 51L31 51L31 53L30 53L30 54L26 54L26 53L24 53L24 54L23 54L23 55L24 55L24 56L25 56L25 54L26 54L26 55L27 55L27 56L29 56L29 55L30 55L30 56L31 56L31 54L32 54L32 53L33 53L33 54L34 54L34 55L35 55L35 56L36 56L36 54L35 54L35 53L34 53L34 52L35 52L35 50L36 50L36 52L37 52L37 51L38 51L38 53L37 53L37 54L40 54L40 53L42 53L42 52L43 52L43 51L42 51L42 50L41 50L41 48L42 48L42 49L43 49L43 48L44 48L44 51L45 51L45 52L44 52L44 53L43 53L43 54L44 54L44 53L45 53L45 54L47 54L47 53L48 53L48 50L47 50L47 49L48 49L48 48L50 48L50 47L52 47L52 46L53 46L53 47L54 47L54 46L56 46L56 43L55 43L55 44L54 44L54 46L53 46L53 45L52 45L52 44L53 44L53 43L54 43L54 42L53 42L53 41L51 41L51 42L50 42L50 43L47 43L47 45L45 45L45 44L46 44L46 43L45 43L45 42L48 42L48 41L49 41L49 39L51 39L51 38L53 38L53 39L55 39L55 37L53 37L53 35L52 35L52 34L50 34L50 31L48 31L48 30L47 30L47 29L46 29L46 30L47 30L47 31L46 31L46 32L43 32L43 31L45 31L45 28L46 28L46 27L47 27L47 25L48 25L48 24L51 24L51 25L50 25L50 26L51 26L51 25L52 25L52 26L53 26L53 27L54 27L54 26L53 26L53 25L55 25L55 24L53 24L53 23L50 23L50 22L51 22L51 21L53 21L53 22L56 22L56 21L55 21L55 20L56 20L56 19L55 19L55 20L53 20L53 19L52 19L52 18L55 18L55 17L53 17L53 15L54 15L54 13L55 13L55 14L56 14L56 13L55 13L55 12L54 12L54 13L53 13L53 12L52 12L52 13L53 13L53 15L50 15L50 14L51 14L51 12L50 12L50 11L49 11L49 10L48 10L48 11L49 11L49 12L45 12L45 11L44 11L44 9L45 9L45 10L47 10L47 9L45 9L45 8L44 8L44 6L45 6L45 7L46 7L46 5L47 5L47 3L44 3L44 6L43 6L43 5L42 5L42 6L41 6L41 5L40 5L40 6L39 6L39 7L40 7L40 8L39 8L39 9L38 9L38 8L37 8L37 7L36 7L36 5L37 5L37 4L36 4L36 5L35 5L35 3L34 3L34 2ZM32 4L32 5L33 5L33 4ZM45 4L45 5L46 5L46 4ZM27 5L27 8L30 8L30 5ZM34 5L34 7L33 7L33 6L32 6L32 7L33 7L33 9L34 9L34 8L35 8L35 9L37 9L37 10L36 10L36 12L35 12L35 13L37 13L37 14L38 14L38 15L39 15L39 16L38 16L38 17L37 17L37 16L35 16L35 14L32 14L32 11L33 11L33 10L32 10L32 11L31 11L31 13L30 13L30 14L29 14L29 13L28 13L28 14L29 14L29 16L28 16L28 15L27 15L27 16L26 16L26 15L23 15L23 14L25 14L25 12L24 12L24 13L23 13L23 14L22 14L22 13L21 13L21 14L20 14L20 13L19 13L19 10L20 10L20 9L19 9L19 10L18 10L18 9L17 9L17 10L18 10L18 11L17 11L17 12L16 12L16 13L15 13L15 14L14 14L14 15L12 15L12 16L11 16L11 17L7 17L7 16L6 16L6 17L7 17L7 18L8 18L8 19L9 19L9 18L12 18L12 17L14 17L14 18L15 18L15 19L19 19L19 18L20 18L20 17L19 17L19 16L21 16L21 17L22 17L22 18L21 18L21 19L20 19L20 20L17 20L17 21L16 21L16 20L15 20L15 21L16 21L16 22L14 22L14 21L11 21L11 20L14 20L14 19L10 19L10 20L8 20L8 21L7 21L7 20L6 20L6 21L7 21L7 22L6 22L6 23L7 23L7 22L9 22L9 21L10 21L10 22L11 22L11 23L10 23L10 24L9 24L9 23L8 23L8 24L9 24L9 25L11 25L11 23L12 23L12 22L13 22L13 23L16 23L16 24L17 24L17 26L15 26L15 24L12 24L12 25L14 25L14 26L12 26L12 28L13 28L13 27L14 27L14 28L16 28L16 29L14 29L14 30L15 30L15 31L14 31L14 32L15 32L15 31L16 31L16 29L18 29L18 30L17 30L17 31L19 31L19 30L20 30L20 29L18 29L18 28L16 28L16 27L18 27L18 26L19 26L19 28L20 28L20 27L22 27L22 26L26 26L26 27L24 27L24 28L23 28L23 31L24 31L24 32L25 32L25 31L26 31L26 32L27 32L27 31L29 31L29 32L28 32L28 33L29 33L29 34L30 34L30 36L29 36L29 37L31 37L31 38L29 38L29 39L33 39L33 40L35 40L35 42L37 42L37 43L36 43L36 44L35 44L35 43L34 43L34 42L33 42L33 41L32 41L32 42L33 42L33 43L34 43L34 45L36 45L36 48L35 48L35 46L32 46L32 47L33 47L33 49L32 49L32 50L33 50L33 51L32 51L32 52L33 52L33 51L34 51L34 50L33 50L33 49L36 49L36 50L38 50L38 51L40 51L40 52L41 52L41 50L38 50L38 49L39 49L39 48L41 48L41 46L43 46L43 45L44 45L44 47L45 47L45 49L47 49L47 48L48 48L48 47L50 47L50 46L49 46L49 45L47 45L47 46L45 46L45 45L44 45L44 42L45 42L45 41L44 41L44 40L47 40L47 39L49 39L49 38L51 38L51 37L52 37L52 35L50 35L50 34L49 34L49 35L50 35L50 36L51 36L51 37L48 37L48 38L47 38L47 39L46 39L46 38L45 38L45 37L46 37L46 36L45 36L45 35L47 35L47 34L45 34L45 35L44 35L44 33L43 33L43 32L41 32L41 33L39 33L39 34L40 34L40 35L38 35L38 33L37 33L37 32L35 32L35 34L34 34L34 36L33 36L33 33L34 33L34 32L33 32L33 33L32 33L32 32L31 32L31 33L29 33L29 32L30 32L30 31L31 31L31 30L33 30L33 31L36 31L36 30L37 30L37 29L38 29L38 28L39 28L39 27L40 27L40 26L43 26L43 29L39 29L39 30L38 30L38 32L39 32L39 31L41 31L41 30L44 30L44 28L45 28L45 26L43 26L43 25L44 25L44 20L46 20L46 19L47 19L47 21L48 21L48 22L46 22L46 21L45 21L45 22L46 22L46 24L45 24L45 25L46 25L46 24L48 24L48 23L49 23L49 21L51 21L51 20L52 20L52 19L51 19L51 18L50 18L50 17L49 17L49 16L50 16L50 15L49 15L49 14L50 14L50 12L49 12L49 13L47 13L47 14L45 14L45 13L44 13L44 12L43 12L43 13L39 13L39 12L41 12L41 11L43 11L43 9L44 9L44 8L43 8L43 9L41 9L41 10L40 10L40 9L39 9L39 11L37 11L37 10L38 10L38 9L37 9L37 8L35 8L35 5ZM22 6L22 7L23 7L23 6ZM28 6L28 7L29 7L29 6ZM40 6L40 7L41 7L41 6ZM42 6L42 7L43 7L43 6ZM51 8L51 9L52 9L52 8ZM53 8L53 9L54 9L54 8ZM10 10L10 11L11 11L11 12L12 12L12 11L11 11L11 10ZM6 11L6 12L7 12L7 11ZM17 12L17 13L16 13L16 17L15 17L15 15L14 15L14 17L15 17L15 18L17 18L17 16L19 16L19 15L20 15L20 14L19 14L19 15L17 15L17 13L18 13L18 12ZM33 12L33 13L34 13L34 12ZM38 13L38 14L39 14L39 13ZM43 13L43 14L41 14L41 16L39 16L39 17L38 17L38 18L37 18L37 17L35 17L35 16L32 16L32 18L33 18L33 19L36 19L36 20L37 20L37 19L39 19L39 17L41 17L41 16L42 16L42 17L43 17L43 16L42 16L42 15L44 15L44 18L43 18L43 20L42 20L42 18L41 18L41 20L38 20L38 22L37 22L37 24L39 24L39 25L38 25L38 26L37 26L37 25L33 25L33 24L32 24L32 23L33 23L33 22L34 22L34 23L35 23L35 21L33 21L33 20L32 20L32 21L31 21L31 24L32 24L32 26L31 26L31 27L32 27L32 29L33 29L33 30L35 30L35 28L33 28L33 27L34 27L34 26L36 26L36 28L37 28L37 27L39 27L39 25L43 25L43 24L39 24L39 23L40 23L40 22L39 22L39 21L43 21L43 20L44 20L44 18L45 18L45 19L46 19L46 18L47 18L47 15L44 15L44 13ZM30 14L30 15L32 15L32 14ZM21 15L21 16L22 16L22 17L25 17L25 19L26 19L26 20L25 20L25 21L24 21L24 20L23 20L23 19L24 19L24 18L23 18L23 19L22 19L22 20L20 20L20 21L18 21L18 22L17 22L17 24L21 24L21 25L20 25L20 26L21 26L21 25L24 25L24 24L25 24L25 25L26 25L26 26L28 26L28 25L29 25L29 26L30 26L30 25L29 25L29 23L27 23L27 24L25 24L25 23L26 23L26 22L25 22L25 21L30 21L30 20L31 20L31 18L30 18L30 19L29 19L29 20L27 20L27 19L28 19L28 18L27 18L27 17L28 17L28 16L27 16L27 17L26 17L26 16L23 16L23 15ZM48 15L48 16L49 16L49 15ZM45 17L45 18L46 18L46 17ZM26 18L26 19L27 19L27 18ZM48 18L48 19L50 19L50 18ZM48 20L48 21L49 21L49 20ZM21 21L21 22L22 22L22 23L21 23L21 24L22 24L22 23L23 23L23 24L24 24L24 23L23 23L23 22L24 22L24 21ZM18 22L18 23L20 23L20 22ZM38 22L38 23L39 23L39 22ZM3 24L3 25L5 25L5 24ZM6 25L6 26L7 26L7 25ZM32 26L32 27L33 27L33 26ZM2 27L2 28L3 28L3 29L4 29L4 27ZM5 27L5 30L8 30L8 27ZM27 27L27 30L30 30L30 27ZM41 27L41 28L42 28L42 27ZM49 27L49 30L52 30L52 27ZM6 28L6 29L7 29L7 28ZM21 28L21 29L22 29L22 28ZM25 28L25 29L26 29L26 28ZM28 28L28 29L29 29L29 28ZM50 28L50 29L51 29L51 28ZM54 28L54 29L53 29L53 30L54 30L54 31L55 31L55 30L54 30L54 29L55 29L55 28ZM24 30L24 31L25 31L25 30ZM5 31L5 32L4 32L4 33L6 33L6 34L5 34L5 35L6 35L6 36L5 36L5 38L7 38L7 39L6 39L6 40L7 40L7 41L6 41L6 42L9 42L9 41L10 41L10 40L9 40L9 39L8 39L8 38L7 38L7 37L6 37L6 36L7 36L7 35L6 35L6 34L7 34L7 33L6 33L6 32L7 32L7 31ZM47 31L47 32L46 32L46 33L47 33L47 32L48 32L48 33L49 33L49 32L48 32L48 31ZM51 31L51 33L52 33L52 32L53 32L53 31ZM21 33L21 34L20 34L20 36L21 36L21 35L22 35L22 36L23 36L23 34L22 34L22 33ZM3 34L3 35L4 35L4 34ZM31 34L31 35L32 35L32 34ZM35 34L35 36L37 36L37 37L38 37L38 39L35 39L35 37L33 37L33 36L32 36L32 37L33 37L33 38L34 38L34 39L35 39L35 40L38 40L38 42L39 42L39 45L38 45L38 46L39 46L39 47L38 47L38 48L37 48L37 49L38 49L38 48L39 48L39 47L40 47L40 46L39 46L39 45L41 45L41 44L42 44L42 43L41 43L41 41L43 41L43 42L44 42L44 41L43 41L43 40L44 40L44 39L45 39L45 38L44 38L44 37L45 37L45 36L44 36L44 35L43 35L43 34L42 34L42 35L41 35L41 36L40 36L40 37L38 37L38 35L37 35L37 34ZM43 36L43 37L40 37L40 38L43 38L43 37L44 37L44 36ZM11 37L11 38L12 38L12 37ZM14 37L14 38L15 38L15 37ZM7 39L7 40L8 40L8 39ZM38 39L38 40L39 40L39 39ZM23 40L23 41L24 41L24 42L22 42L22 43L21 43L21 44L22 44L22 45L24 45L24 46L25 46L25 45L24 45L24 44L27 44L27 43L25 43L25 41L24 41L24 40ZM19 41L19 42L20 42L20 41ZM26 41L26 42L27 42L27 41ZM39 41L39 42L40 42L40 41ZM51 42L51 43L50 43L50 45L51 45L51 46L52 46L52 45L51 45L51 43L53 43L53 42ZM6 43L6 44L7 44L7 43ZM40 43L40 44L41 44L41 43ZM15 44L15 46L14 46L14 45L13 45L13 46L12 46L12 47L16 47L16 49L13 49L13 48L12 48L12 50L10 50L10 48L9 48L9 47L8 47L8 48L9 48L9 50L10 50L10 51L11 51L11 53L9 53L9 55L10 55L10 56L12 56L12 55L10 55L10 54L11 54L11 53L12 53L12 54L13 54L13 53L14 53L14 54L16 54L16 53L17 53L17 52L20 52L20 50L21 50L21 49L23 49L23 47L20 47L20 50L19 50L19 51L17 51L17 52L16 52L16 50L18 50L18 49L17 49L17 47L18 47L18 48L19 48L19 47L18 47L18 46L17 46L17 45L18 45L18 44ZM42 47L42 48L43 48L43 47ZM46 47L46 48L47 48L47 47ZM53 48L53 49L56 49L56 48ZM27 49L27 52L30 52L30 49ZM49 49L49 52L52 52L52 49ZM13 50L13 52L14 52L14 53L16 53L16 52L15 52L15 51L14 51L14 50ZM28 50L28 51L29 51L29 50ZM45 50L45 51L46 51L46 52L45 52L45 53L47 53L47 51L46 51L46 50ZM50 50L50 51L51 51L51 50ZM53 52L53 53L54 53L54 52ZM50 55L50 56L51 56L51 55ZM0 0L0 7L7 7L7 0ZM1 1L1 6L6 6L6 1ZM2 2L2 5L5 5L5 2ZM50 0L50 7L57 7L57 0ZM51 1L51 6L56 6L56 1ZM52 2L52 5L55 5L55 2ZM0 50L0 57L7 57L7 50ZM1 51L1 56L6 56L6 51ZM2 52L2 55L5 55L5 52Z" fill="#000000"/></g></g></svg>
