<?xml version="1.0" encoding="UTF-8"?>
<svg xmlns="http://www.w3.org/2000/svg" version="1.1" width="300" height="300" viewBox="0 0 300 300"><rect x="0" y="0" width="300" height="300" fill="#fefefe"/><g transform="scale(4.615)"><g transform="translate(4,4)"><path fill-rule="evenodd" d="M8 0L8 4L9 4L9 3L10 3L10 2L11 2L11 5L13 5L13 6L12 6L12 7L11 7L11 6L10 6L10 5L8 5L8 7L9 7L9 6L10 6L10 9L12 9L12 7L13 7L13 6L14 6L14 7L15 7L15 8L14 8L14 9L13 9L13 11L14 11L14 12L15 12L15 13L12 13L12 14L13 14L13 15L14 15L14 17L13 17L13 16L12 16L12 15L11 15L11 12L12 12L12 10L11 10L11 12L10 12L10 10L6 10L6 11L4 11L4 10L5 10L5 9L7 9L7 8L4 8L4 10L3 10L3 9L2 9L2 8L0 8L0 13L1 13L1 9L2 9L2 11L4 11L4 13L2 13L2 17L3 17L3 18L1 18L1 17L0 17L0 20L1 20L1 21L0 21L0 22L1 22L1 24L0 24L0 27L1 27L1 28L0 28L0 32L2 32L2 33L0 33L0 34L1 34L1 35L0 35L0 36L2 36L2 37L1 37L1 38L0 38L0 41L1 41L1 40L2 40L2 41L3 41L3 42L1 42L1 43L2 43L2 45L1 45L1 44L0 44L0 48L5 48L5 47L7 47L7 48L6 48L6 49L8 49L8 50L9 50L9 49L8 49L8 47L10 47L10 48L11 48L11 49L10 49L10 50L11 50L11 52L10 52L10 51L8 51L8 53L9 53L9 55L8 55L8 57L12 57L12 56L13 56L13 57L14 57L14 55L16 55L16 54L17 54L17 57L19 57L19 56L18 56L18 54L19 54L19 55L20 55L20 54L21 54L21 53L22 53L22 54L23 54L23 55L24 55L24 57L25 57L25 55L26 55L26 54L27 54L27 53L28 53L28 57L29 57L29 55L30 55L30 57L34 57L34 55L35 55L35 57L37 57L37 56L36 56L36 54L37 54L37 55L40 55L40 56L39 56L39 57L40 57L40 56L41 56L41 57L43 57L43 55L44 55L44 53L45 53L45 55L46 55L46 56L44 56L44 57L47 57L47 56L48 56L48 55L46 55L46 51L42 51L42 50L43 50L43 49L42 49L42 47L43 47L43 46L44 46L44 47L45 47L45 48L44 48L44 50L45 50L45 49L47 49L47 52L48 52L48 54L49 54L49 57L50 57L50 55L51 55L51 56L53 56L53 57L54 57L54 55L53 55L53 54L57 54L57 52L56 52L56 53L55 53L55 52L54 52L54 53L53 53L53 50L54 50L54 51L56 51L56 50L57 50L57 49L56 49L56 45L55 45L55 48L53 48L53 47L54 47L54 46L53 46L53 47L52 47L52 44L53 44L53 45L54 45L54 44L53 44L53 43L54 43L54 42L55 42L55 44L56 44L56 42L57 42L57 40L54 40L54 41L53 41L53 38L54 38L54 37L56 37L56 36L53 36L53 35L56 35L56 34L57 34L57 33L56 33L56 30L55 30L55 29L54 29L54 28L53 28L53 27L54 27L54 26L55 26L55 25L52 25L52 24L53 24L53 23L52 23L52 22L54 22L54 21L52 21L52 20L53 20L53 19L50 19L50 18L52 18L52 14L53 14L53 13L54 13L54 15L55 15L55 16L56 16L56 17L55 17L55 19L56 19L56 20L55 20L55 24L56 24L56 25L57 25L57 24L56 24L56 20L57 20L57 19L56 19L56 18L57 18L57 15L56 15L56 13L57 13L57 12L56 12L56 13L54 13L54 12L53 12L53 13L52 13L52 14L51 14L51 12L52 12L52 11L54 11L54 10L53 10L53 9L55 9L55 11L56 11L56 10L57 10L57 8L53 8L53 9L52 9L52 8L51 8L51 9L50 9L50 10L49 10L49 6L48 6L48 7L47 7L47 5L48 5L48 0L41 0L41 1L40 1L40 2L38 2L38 1L39 1L39 0L38 0L38 1L37 1L37 2L36 2L36 0L35 0L35 1L34 1L34 0L32 0L32 1L31 1L31 0L28 0L28 1L29 1L29 2L30 2L30 3L31 3L31 4L29 4L29 3L28 3L28 4L26 4L26 3L25 3L25 2L26 2L26 1L27 1L27 0L26 0L26 1L25 1L25 0L23 0L23 2L22 2L22 1L21 1L21 0L20 0L20 2L18 2L18 1L19 1L19 0L17 0L17 2L16 2L16 0L15 0L15 2L16 2L16 4L17 4L17 5L19 5L19 6L18 6L18 7L17 7L17 6L16 6L16 5L15 5L15 4L14 4L14 0L13 0L13 2L11 2L11 1L12 1L12 0L11 0L11 1L10 1L10 0ZM9 1L9 2L10 2L10 1ZM30 1L30 2L31 2L31 3L32 3L32 5L35 5L35 7L34 7L34 6L33 6L33 7L32 7L32 6L31 6L31 10L28 10L28 12L27 12L27 11L26 11L26 13L29 13L29 16L31 16L31 19L30 19L30 18L28 18L28 17L27 17L27 15L28 15L28 14L27 14L27 15L26 15L26 14L24 14L24 15L23 15L23 13L24 13L24 10L22 10L22 9L24 9L24 8L25 8L25 10L27 10L27 9L26 9L26 6L25 6L25 7L24 7L24 6L23 6L23 5L24 5L24 4L25 4L25 3L23 3L23 5L22 5L22 6L21 6L21 3L22 3L22 2L21 2L21 3L17 3L17 4L19 4L19 5L20 5L20 6L19 6L19 7L20 7L20 6L21 6L21 7L22 7L22 6L23 6L23 7L24 7L24 8L22 8L22 9L21 9L21 10L20 10L20 8L19 8L19 9L15 9L15 11L16 11L16 12L17 12L17 13L15 13L15 14L17 14L17 16L19 16L19 15L20 15L20 16L21 16L21 17L25 17L25 18L24 18L24 19L23 19L23 20L22 20L22 19L21 19L21 20L22 20L22 22L20 22L20 23L19 23L19 25L16 25L16 24L17 24L17 22L18 22L18 21L17 21L17 20L18 20L18 19L19 19L19 21L20 21L20 17L19 17L19 18L17 18L17 17L14 17L14 18L13 18L13 17L12 17L12 16L11 16L11 18L12 18L12 19L8 19L8 18L9 18L9 17L10 17L10 16L9 16L9 17L6 17L6 16L7 16L7 15L10 15L10 13L9 13L9 11L6 11L6 12L8 12L8 13L9 13L9 14L7 14L7 13L6 13L6 14L7 14L7 15L5 15L5 13L4 13L4 15L3 15L3 17L4 17L4 18L3 18L3 19L4 19L4 20L2 20L2 19L1 19L1 20L2 20L2 21L1 21L1 22L3 22L3 23L6 23L6 24L4 24L4 25L5 25L5 26L7 26L7 25L6 25L6 24L7 24L7 23L8 23L8 22L7 22L7 21L6 21L6 20L11 20L11 21L13 21L13 23L14 23L14 21L13 21L13 19L14 19L14 20L15 20L15 21L17 21L17 22L16 22L16 23L15 23L15 24L12 24L12 23L10 23L10 21L9 21L9 23L10 23L10 24L11 24L11 25L10 25L10 27L9 27L9 29L10 29L10 28L11 28L11 27L12 27L12 28L13 28L13 25L16 25L16 28L17 28L17 27L18 27L18 26L19 26L19 25L24 25L24 23L22 23L22 22L23 22L23 21L24 21L24 22L25 22L25 23L26 23L26 22L28 22L28 25L27 25L27 26L29 26L29 25L31 25L31 27L32 27L32 28L31 28L31 29L32 29L32 30L31 30L31 31L32 31L32 32L29 32L29 31L28 31L28 32L29 32L29 33L28 33L28 34L27 34L27 36L26 36L26 38L24 38L24 37L23 37L23 35L22 35L22 34L23 34L23 33L25 33L25 32L26 32L26 33L27 33L27 32L26 32L26 31L25 31L25 32L24 32L24 30L23 30L23 29L25 29L25 30L26 30L26 29L25 29L25 27L26 27L26 25L25 25L25 27L24 27L24 26L23 26L23 27L24 27L24 28L22 28L22 27L21 27L21 26L20 26L20 27L19 27L19 28L18 28L18 29L15 29L15 27L14 27L14 29L11 29L11 30L12 30L12 33L11 33L11 32L10 32L10 30L9 30L9 31L4 31L4 30L3 30L3 34L2 34L2 36L5 36L5 34L7 34L7 35L6 35L6 36L7 36L7 37L6 37L6 38L5 38L5 39L4 39L4 41L5 41L5 42L4 42L4 43L3 43L3 44L4 44L4 43L5 43L5 44L7 44L7 43L9 43L9 44L8 44L8 45L6 45L6 46L7 46L7 47L8 47L8 46L9 46L9 44L10 44L10 43L9 43L9 40L11 40L11 41L12 41L12 42L11 42L11 43L12 43L12 44L11 44L11 45L13 45L13 46L12 46L12 48L13 48L13 49L14 49L14 47L15 47L15 48L16 48L16 46L17 46L17 45L18 45L18 44L19 44L19 46L18 46L18 47L17 47L17 48L19 48L19 50L20 50L20 48L19 48L19 46L20 46L20 47L21 47L21 48L22 48L22 49L21 49L21 50L22 50L22 49L23 49L23 48L24 48L24 49L25 49L25 50L26 50L26 48L29 48L29 47L30 47L30 48L31 48L31 49L32 49L32 48L34 48L34 50L31 50L31 52L32 52L32 51L33 51L33 52L34 52L34 51L35 51L35 52L36 52L36 49L35 49L35 48L34 48L34 47L36 47L36 48L37 48L37 46L38 46L38 45L39 45L39 46L40 46L40 51L38 51L38 49L39 49L39 47L38 47L38 49L37 49L37 53L38 53L38 52L40 52L40 53L42 53L42 52L41 52L41 46L40 46L40 45L41 45L41 44L40 44L40 45L39 45L39 44L37 44L37 43L33 43L33 41L32 41L32 40L33 40L33 39L34 39L34 42L35 42L35 39L37 39L37 42L38 42L38 39L40 39L40 38L38 38L38 37L44 37L44 38L43 38L43 40L40 40L40 41L39 41L39 43L40 43L40 42L41 42L41 41L44 41L44 42L42 42L42 44L43 44L43 45L44 45L44 46L45 46L45 45L46 45L46 47L47 47L47 49L48 49L48 47L49 47L49 48L51 48L51 46L50 46L50 47L49 47L49 46L48 46L48 47L47 47L47 45L50 45L50 43L51 43L51 44L52 44L52 43L53 43L53 41L52 41L52 39L51 39L51 37L52 37L52 38L53 38L53 36L51 36L51 37L50 37L50 35L53 35L53 34L54 34L54 32L55 32L55 31L53 31L53 33L51 33L51 32L50 32L50 31L49 31L49 32L50 32L50 35L49 35L49 36L48 36L48 35L47 35L47 34L49 34L49 33L48 33L48 31L47 31L47 30L48 30L48 26L47 26L47 25L49 25L49 26L50 26L50 25L51 25L51 26L52 26L52 25L51 25L51 24L52 24L52 23L50 23L50 22L49 22L49 23L50 23L50 24L48 24L48 23L47 23L47 21L51 21L51 22L52 22L52 21L51 21L51 20L47 20L47 17L48 17L48 15L49 15L49 16L50 16L50 17L49 17L49 18L50 18L50 17L51 17L51 16L50 16L50 11L51 11L51 10L52 10L52 9L51 9L51 10L50 10L50 11L49 11L49 12L48 12L48 11L47 11L47 9L48 9L48 8L46 8L46 6L45 6L45 7L44 7L44 4L45 4L45 5L47 5L47 3L44 3L44 2L43 2L43 3L44 3L44 4L43 4L43 5L42 5L42 6L41 6L41 5L39 5L39 7L40 7L40 6L41 6L41 8L40 8L40 9L42 9L42 8L43 8L43 9L44 9L44 10L45 10L45 11L43 11L43 10L42 10L42 11L43 11L43 12L41 12L41 11L40 11L40 10L39 10L39 11L40 11L40 13L39 13L39 12L37 12L37 10L38 10L38 9L39 9L39 8L38 8L38 9L35 9L35 7L36 7L36 5L38 5L38 4L40 4L40 3L42 3L42 2L40 2L40 3L38 3L38 2L37 2L37 3L36 3L36 2L35 2L35 4L34 4L34 3L32 3L32 2L34 2L34 1L32 1L32 2L31 2L31 1ZM45 1L45 2L47 2L47 1ZM35 4L35 5L36 5L36 4ZM27 5L27 8L30 8L30 5ZM15 6L15 7L16 7L16 6ZM28 6L28 7L29 7L29 6ZM37 6L37 7L38 7L38 6ZM42 6L42 7L43 7L43 8L44 8L44 9L46 9L46 8L44 8L44 7L43 7L43 6ZM33 7L33 8L32 8L32 13L30 13L30 15L31 15L31 16L32 16L32 17L33 17L33 19L31 19L31 20L30 20L30 21L28 21L28 20L29 20L29 19L28 19L28 20L26 20L26 19L25 19L25 20L24 20L24 21L28 21L28 22L30 22L30 23L29 23L29 24L31 24L31 22L33 22L33 23L32 23L32 27L33 27L33 28L32 28L32 29L33 29L33 30L32 30L32 31L34 31L34 32L35 32L35 34L34 34L34 33L33 33L33 32L32 32L32 33L33 33L33 34L34 34L34 35L35 35L35 38L34 38L34 36L33 36L33 35L31 35L31 36L30 36L30 34L31 34L31 33L29 33L29 34L28 34L28 36L27 36L27 37L28 37L28 36L29 36L29 37L31 37L31 36L32 36L32 37L33 37L33 38L31 38L31 39L29 39L29 38L28 38L28 39L27 39L27 38L26 38L26 39L27 39L27 40L25 40L25 41L24 41L24 39L23 39L23 38L22 38L22 36L21 36L21 33L22 33L22 31L23 31L23 30L22 30L22 29L21 29L21 27L20 27L20 28L19 28L19 29L18 29L18 30L19 30L19 29L20 29L20 31L17 31L17 30L15 30L15 29L14 29L14 32L15 32L15 31L16 31L16 33L15 33L15 34L16 34L16 35L13 35L13 36L12 36L12 37L10 37L10 38L9 38L9 36L10 36L10 35L12 35L12 34L10 34L10 32L6 32L6 33L8 33L8 34L9 34L9 36L8 36L8 37L7 37L7 38L6 38L6 39L7 39L7 40L6 40L6 41L7 41L7 40L9 40L9 39L11 39L11 40L14 40L14 41L15 41L15 42L12 42L12 43L15 43L15 46L16 46L16 43L18 43L18 41L19 41L19 40L20 40L20 46L21 46L21 47L22 47L22 48L23 48L23 47L25 47L25 46L26 46L26 47L27 47L27 46L28 46L28 47L29 47L29 46L30 46L30 45L29 45L29 46L28 46L28 44L27 44L27 43L25 43L25 44L24 44L24 45L23 45L23 44L22 44L22 43L21 43L21 41L22 41L22 39L23 39L23 41L24 41L24 42L26 42L26 41L27 41L27 42L28 42L28 43L29 43L29 44L30 44L30 43L29 43L29 42L28 42L28 41L29 41L29 40L30 40L30 41L31 41L31 44L32 44L32 47L34 47L34 45L35 45L35 46L37 46L37 44L33 44L33 43L32 43L32 41L31 41L31 39L33 39L33 38L34 38L34 39L35 39L35 38L37 38L37 37L38 37L38 36L40 36L40 35L38 35L38 34L39 34L39 33L40 33L40 34L42 34L42 35L41 35L41 36L42 36L42 35L44 35L44 37L45 37L45 38L46 38L46 39L44 39L44 41L45 41L45 42L44 42L44 43L43 43L43 44L44 44L44 45L45 45L45 44L44 44L44 43L45 43L45 42L46 42L46 43L47 43L47 44L46 44L46 45L47 45L47 44L49 44L49 43L50 43L50 42L49 42L49 41L48 41L48 43L47 43L47 42L46 42L46 39L47 39L47 40L49 40L49 39L50 39L50 40L51 40L51 39L50 39L50 37L49 37L49 39L47 39L47 38L46 38L46 37L47 37L47 35L46 35L46 33L47 33L47 32L46 32L46 30L45 30L45 26L46 26L46 27L47 27L47 26L46 26L46 24L47 24L47 23L46 23L46 24L44 24L44 27L43 27L43 25L41 25L41 26L40 26L40 24L39 24L39 21L40 21L40 22L41 22L41 23L42 23L42 24L43 24L43 23L44 23L44 22L45 22L45 21L46 21L46 17L47 17L47 16L46 16L46 11L45 11L45 12L44 12L44 14L45 14L45 16L44 16L44 15L43 15L43 13L40 13L40 14L39 14L39 13L38 13L38 15L39 15L39 17L38 17L38 16L37 16L37 15L35 15L35 17L38 17L38 18L39 18L39 19L37 19L37 18L35 18L35 19L34 19L34 13L33 13L33 10L34 10L34 12L35 12L35 14L36 14L36 13L37 13L37 12L35 12L35 11L36 11L36 10L34 10L34 9L33 9L33 8L34 8L34 7ZM17 10L17 11L18 11L18 10ZM21 11L21 12L18 12L18 13L17 13L17 14L19 14L19 13L20 13L20 15L22 15L22 16L23 16L23 15L22 15L22 14L21 14L21 13L23 13L23 12L22 12L22 11ZM29 11L29 12L31 12L31 11ZM32 13L32 14L31 14L31 15L32 15L32 14L33 14L33 13ZM47 13L47 14L49 14L49 13ZM40 14L40 17L39 17L39 18L40 18L40 21L43 21L43 22L42 22L42 23L43 23L43 22L44 22L44 16L43 16L43 15L42 15L42 17L43 17L43 18L42 18L42 19L43 19L43 20L41 20L41 18L40 18L40 17L41 17L41 14ZM25 15L25 17L26 17L26 15ZM4 16L4 17L5 17L5 18L6 18L6 19L7 19L7 18L6 18L6 17L5 17L5 16ZM45 16L45 17L46 17L46 16ZM15 18L15 19L16 19L16 20L17 20L17 18ZM35 19L35 20L34 20L34 22L35 22L35 23L34 23L34 24L33 24L33 25L34 25L34 26L33 26L33 27L34 27L34 31L35 31L35 30L37 30L37 32L38 32L38 30L37 30L37 29L38 29L38 28L37 28L37 27L39 27L39 26L38 26L38 23L37 23L37 22L38 22L38 20L37 20L37 22L35 22L35 20L36 20L36 19ZM4 20L4 21L3 21L3 22L4 22L4 21L5 21L5 20ZM31 20L31 21L32 21L32 20ZM6 22L6 23L7 23L7 22ZM2 24L2 25L3 25L3 24ZM8 24L8 26L9 26L9 24ZM34 24L34 25L37 25L37 24ZM11 25L11 26L12 26L12 25ZM2 26L2 27L4 27L4 26ZM36 26L36 27L37 27L37 26ZM5 27L5 30L8 30L8 27ZM27 27L27 30L30 30L30 27ZM41 27L41 28L40 28L40 29L43 29L43 31L44 31L44 29L43 29L43 28L42 28L42 27ZM49 27L49 30L52 30L52 27ZM55 27L55 28L56 28L56 29L57 29L57 28L56 28L56 27ZM1 28L1 29L4 29L4 28ZM6 28L6 29L7 29L7 28ZM28 28L28 29L29 29L29 28ZM35 28L35 29L37 29L37 28ZM46 28L46 29L47 29L47 28ZM50 28L50 29L51 29L51 28ZM53 29L53 30L54 30L54 29ZM1 30L1 31L2 31L2 30ZM21 30L21 31L20 31L20 33L19 33L19 34L17 34L17 33L16 33L16 34L17 34L17 35L19 35L19 36L20 36L20 33L21 33L21 31L22 31L22 30ZM39 30L39 32L40 32L40 33L41 33L41 32L40 32L40 30ZM45 32L45 33L46 33L46 32ZM4 33L4 34L5 34L5 33ZM37 33L37 34L38 34L38 33ZM43 33L43 34L44 34L44 35L45 35L45 34L44 34L44 33ZM55 33L55 34L56 34L56 33ZM24 34L24 36L25 36L25 35L26 35L26 34ZM37 35L37 36L38 36L38 35ZM13 36L13 38L15 38L15 39L14 39L14 40L15 40L15 41L16 41L16 42L15 42L15 43L16 43L16 42L17 42L17 41L18 41L18 39L20 39L20 38L21 38L21 37L19 37L19 38L18 38L18 37L17 37L17 36L16 36L16 37L14 37L14 36ZM2 37L2 38L1 38L1 39L2 39L2 40L3 40L3 37ZM7 38L7 39L9 39L9 38ZM16 38L16 39L15 39L15 40L16 40L16 41L17 41L17 39L18 39L18 38ZM55 38L55 39L57 39L57 38ZM27 40L27 41L28 41L28 40ZM51 41L51 43L52 43L52 41ZM5 42L5 43L7 43L7 42ZM13 44L13 45L14 45L14 44ZM2 45L2 46L1 46L1 47L2 47L2 46L3 46L3 47L5 47L5 45L4 45L4 46L3 46L3 45ZM21 45L21 46L22 46L22 47L23 47L23 45ZM26 45L26 46L27 46L27 45ZM13 46L13 47L14 47L14 46ZM15 49L15 50L16 50L16 52L15 52L15 51L14 51L14 50L12 50L12 51L14 51L14 52L13 52L13 53L12 53L12 52L11 52L11 55L12 55L12 54L13 54L13 55L14 55L14 54L15 54L15 53L17 53L17 51L18 51L18 52L19 52L19 53L20 53L20 51L18 51L18 50L17 50L17 49ZM27 49L27 52L30 52L30 49ZM49 49L49 52L52 52L52 49ZM55 49L55 50L56 50L56 49ZM28 50L28 51L29 51L29 50ZM50 50L50 51L51 51L51 50ZM21 51L21 52L22 52L22 53L24 53L24 54L25 54L25 53L26 53L26 51L25 51L25 53L24 53L24 52L23 52L23 51ZM14 52L14 53L15 53L15 52ZM43 52L43 53L44 53L44 52ZM30 53L30 54L31 54L31 53ZM32 53L32 54L33 54L33 53ZM34 53L34 54L35 54L35 53ZM49 53L49 54L51 54L51 55L52 55L52 54L51 54L51 53ZM40 54L40 55L41 55L41 56L42 56L42 55L43 55L43 54ZM21 55L21 57L22 57L22 55ZM15 56L15 57L16 57L16 56ZM26 56L26 57L27 57L27 56ZM56 56L56 57L57 57L57 56ZM0 0L0 7L7 7L7 0ZM1 1L1 6L6 6L6 1ZM2 2L2 5L5 5L5 2ZM50 0L50 7L57 7L57 0ZM51 1L51 6L56 6L56 1ZM52 2L52 5L55 5L55 2ZM0 50L0 57L7 57L7 50ZM1 51L1 56L6 56L6 51ZM2 52L2 55L5 55L5 52Z" fill="#000000"/></g></g></svg>
