<?xml version="1.0" encoding="UTF-8"?>
<svg xmlns="http://www.w3.org/2000/svg" version="1.1" width="300" height="300" viewBox="0 0 300 300"><rect x="0" y="0" width="300" height="300" fill="#fefefe"/><g transform="scale(4.615)"><g transform="translate(4,4)"><path fill-rule="evenodd" d="M9 0L9 1L8 1L8 2L9 2L9 1L10 1L10 2L11 2L11 3L8 3L8 4L9 4L9 5L8 5L8 7L9 7L9 6L10 6L10 7L11 7L11 5L12 5L12 7L13 7L13 6L14 6L14 7L15 7L15 8L16 8L16 9L15 9L15 10L13 10L13 11L14 11L14 12L13 12L13 13L11 13L11 14L13 14L13 16L12 16L12 15L11 15L11 16L12 16L12 17L14 17L14 16L16 16L16 17L15 17L15 19L16 19L16 20L15 20L15 21L16 21L16 22L15 22L15 23L13 23L13 22L14 22L14 21L13 21L13 22L12 22L12 23L11 23L11 25L10 25L10 24L9 24L9 23L10 23L10 22L11 22L11 20L10 20L10 21L8 21L8 20L6 20L6 19L11 19L11 17L10 17L10 18L9 18L9 16L10 16L10 15L9 15L9 14L10 14L10 13L9 13L9 14L8 14L8 15L9 15L9 16L8 16L8 17L7 17L7 16L6 16L6 15L7 15L7 14L6 14L6 13L7 13L7 12L6 12L6 13L5 13L5 12L3 12L3 11L2 11L2 10L3 10L3 9L5 9L5 8L0 8L0 10L1 10L1 11L0 11L0 13L1 13L1 11L2 11L2 12L3 12L3 14L0 14L0 15L1 15L1 16L0 16L0 17L1 17L1 18L0 18L0 19L1 19L1 20L0 20L0 23L1 23L1 24L0 24L0 25L1 25L1 24L2 24L2 25L3 25L3 27L2 27L2 26L0 26L0 27L1 27L1 28L4 28L4 30L2 30L2 29L1 29L1 30L2 30L2 32L1 32L1 35L0 35L0 36L1 36L1 38L3 38L3 39L2 39L2 40L3 40L3 41L1 41L1 39L0 39L0 41L1 41L1 42L0 42L0 43L2 43L2 42L3 42L3 43L4 43L4 42L6 42L6 43L7 43L7 44L0 44L0 48L5 48L5 47L7 47L7 48L6 48L6 49L8 49L8 51L9 51L9 49L14 49L14 50L15 50L15 52L14 52L14 53L12 53L12 52L11 52L11 53L10 53L10 52L8 52L8 57L11 57L11 56L13 56L13 57L16 57L16 56L17 56L17 57L21 57L21 56L19 56L19 55L20 55L20 54L19 54L19 53L20 53L20 52L22 52L22 51L20 51L20 50L19 50L19 49L21 49L21 50L25 50L25 51L26 51L26 53L25 53L25 52L24 52L24 53L23 53L23 54L22 54L22 53L21 53L21 54L22 54L22 55L23 55L23 56L24 56L24 55L23 55L23 54L24 54L24 53L25 53L25 55L26 55L26 54L30 54L30 53L31 53L31 51L32 51L32 52L33 52L33 53L32 53L32 54L31 54L31 56L30 56L30 55L29 55L29 56L27 56L27 57L29 57L29 56L30 56L30 57L31 57L31 56L35 56L35 57L40 57L40 56L41 56L41 57L44 57L44 56L42 56L42 55L44 55L44 54L45 54L45 53L47 53L47 54L46 54L46 55L45 55L45 57L49 57L49 56L50 56L50 57L52 57L52 55L51 55L51 53L52 53L52 54L53 54L53 55L54 55L54 56L53 56L53 57L54 57L54 56L55 56L55 57L56 57L56 56L55 56L55 55L54 55L54 54L53 54L53 52L54 52L54 53L55 53L55 52L56 52L56 50L57 50L57 48L56 48L56 46L57 46L57 45L56 45L56 44L55 44L55 43L56 43L56 42L57 42L57 41L56 41L56 42L55 42L55 41L53 41L53 40L55 40L55 39L57 39L57 35L56 35L56 34L55 34L55 33L54 33L54 34L55 34L55 35L53 35L53 34L52 34L52 33L53 33L53 32L56 32L56 33L57 33L57 32L56 32L56 30L57 30L57 27L56 27L56 26L57 26L57 25L56 25L56 22L57 22L57 20L56 20L56 18L57 18L57 17L56 17L56 16L57 16L57 15L56 15L56 14L57 14L57 11L56 11L56 10L54 10L54 11L51 11L51 10L53 10L53 9L54 9L54 8L53 8L53 9L52 9L52 8L51 8L51 10L49 10L49 9L50 9L50 8L49 8L49 6L48 6L48 7L47 7L47 5L48 5L48 0L46 0L46 1L47 1L47 2L44 2L44 3L43 3L43 4L40 4L40 5L39 5L39 6L38 6L38 3L41 3L41 2L43 2L43 0L41 0L41 1L40 1L40 0L39 0L39 1L38 1L38 0L37 0L37 1L38 1L38 3L36 3L36 0L35 0L35 1L33 1L33 0L32 0L32 1L31 1L31 0L29 0L29 1L25 1L25 0L23 0L23 1L22 1L22 0L21 0L21 2L22 2L22 3L23 3L23 4L24 4L24 5L22 5L22 4L19 4L19 2L20 2L20 0L17 0L17 4L18 4L18 5L17 5L17 6L16 6L16 7L15 7L15 6L14 6L14 5L13 5L13 4L14 4L14 2L16 2L16 1L15 1L15 0L14 0L14 2L13 2L13 1L12 1L12 2L11 2L11 1L10 1L10 0ZM29 1L29 2L30 2L30 1ZM32 1L32 2L31 2L31 3L32 3L32 4L31 4L31 8L32 8L32 10L27 10L27 11L26 11L26 12L25 12L25 11L23 11L23 13L22 13L22 12L21 12L21 13L20 13L20 10L21 10L21 11L22 11L22 10L21 10L21 9L23 9L23 8L24 8L24 9L25 9L25 8L26 8L26 4L30 4L30 3L28 3L28 2L23 2L23 3L26 3L26 4L25 4L25 8L24 8L24 6L23 6L23 8L19 8L19 7L20 7L20 5L18 5L18 6L17 6L17 7L16 7L16 8L19 8L19 9L18 9L18 10L17 10L17 9L16 9L16 10L15 10L15 11L16 11L16 12L15 12L15 13L13 13L13 14L15 14L15 13L16 13L16 16L17 16L17 13L18 13L18 12L17 12L17 11L18 11L18 10L19 10L19 13L20 13L20 14L19 14L19 15L18 15L18 16L19 16L19 17L20 17L20 18L19 18L19 19L20 19L20 21L17 21L17 20L16 20L16 21L17 21L17 24L16 24L16 23L15 23L15 24L13 24L13 23L12 23L12 24L13 24L13 25L15 25L15 26L14 26L14 30L15 30L15 29L16 29L16 31L15 31L15 32L16 32L16 33L14 33L14 35L13 35L13 34L12 34L12 33L13 33L13 32L11 32L11 34L7 34L7 33L4 33L4 31L3 31L3 32L2 32L2 35L3 35L3 36L4 36L4 38L5 38L5 39L4 39L4 40L5 40L5 41L6 41L6 42L7 42L7 43L8 43L8 44L7 44L7 45L6 45L6 46L7 46L7 45L9 45L9 43L8 43L8 40L7 40L7 39L9 39L9 37L6 37L6 38L5 38L5 36L8 36L8 35L9 35L9 36L10 36L10 35L11 35L11 36L13 36L13 39L12 39L12 37L11 37L11 38L10 38L10 40L11 40L11 41L9 41L9 42L12 42L12 43L11 43L11 45L13 45L13 44L12 44L12 43L15 43L15 44L14 44L14 45L15 45L15 46L13 46L13 47L16 47L16 48L15 48L15 50L17 50L17 48L18 48L18 47L17 47L17 45L18 45L18 44L16 44L16 43L15 43L15 42L17 42L17 43L18 43L18 42L19 42L19 44L20 44L20 46L19 46L19 47L20 47L20 48L21 48L21 49L23 49L23 47L21 47L21 45L22 45L22 46L23 46L23 45L22 45L22 44L20 44L20 42L21 42L21 43L22 43L22 42L23 42L23 40L24 40L24 41L25 41L25 42L24 42L24 43L27 43L27 44L25 44L25 48L24 48L24 49L25 49L25 48L27 48L27 47L28 47L28 48L30 48L30 47L28 47L28 46L29 46L29 44L32 44L32 45L30 45L30 46L32 46L32 45L33 45L33 46L35 46L35 48L34 48L34 49L33 49L33 48L32 48L32 47L31 47L31 48L32 48L32 49L31 49L31 50L32 50L32 51L33 51L33 52L34 52L34 53L33 53L33 54L34 54L34 55L35 55L35 56L36 56L36 54L35 54L35 50L36 50L36 52L37 52L37 53L38 53L38 54L37 54L37 56L40 56L40 55L38 55L38 54L40 54L40 53L41 53L41 52L43 52L43 51L45 51L45 52L44 52L44 53L43 53L43 54L44 54L44 53L45 53L45 52L46 52L46 50L47 50L47 53L48 53L48 50L47 50L47 49L48 49L48 48L52 48L52 47L51 47L51 46L54 46L54 47L55 47L55 46L56 46L56 45L55 45L55 44L54 44L54 45L53 45L53 43L54 43L54 42L53 42L53 41L51 41L51 42L50 42L50 43L49 43L49 42L48 42L48 41L49 41L49 39L51 39L51 40L53 40L53 39L55 39L55 37L53 37L53 35L52 35L52 34L50 34L50 32L49 32L49 31L48 31L48 30L47 30L47 29L48 29L48 28L47 28L47 29L46 29L46 30L47 30L47 31L45 31L45 32L43 32L43 31L44 31L44 29L45 29L45 28L46 28L46 27L48 27L48 26L47 26L47 23L46 23L46 25L45 25L45 22L47 22L47 21L45 21L45 20L44 20L44 18L45 18L45 19L46 19L46 18L47 18L47 15L46 15L46 16L45 16L45 15L44 15L44 18L43 18L43 19L42 19L42 18L41 18L41 19L42 19L42 20L44 20L44 23L42 23L42 22L41 22L41 24L40 24L40 22L39 22L39 21L41 21L41 20L38 20L38 19L39 19L39 17L41 17L41 16L42 16L42 17L43 17L43 16L42 16L42 15L43 15L43 14L47 14L47 13L49 13L49 12L50 12L50 14L49 14L49 15L48 15L48 16L49 16L49 15L50 15L50 14L51 14L51 12L50 12L50 11L49 11L49 10L48 10L48 11L49 11L49 12L45 12L45 11L46 11L46 10L47 10L47 8L45 8L45 7L46 7L46 5L47 5L47 3L44 3L44 6L43 6L43 5L40 5L40 6L39 6L39 7L40 7L40 8L39 8L39 9L38 9L38 10L37 10L37 9L35 9L35 8L37 8L37 7L38 7L38 6L37 6L37 7L36 7L36 5L37 5L37 4L36 4L36 5L35 5L35 2L33 2L33 1ZM32 2L32 3L33 3L33 2ZM11 3L11 4L12 4L12 3ZM15 4L15 5L16 5L16 4ZM32 4L32 5L34 5L34 7L33 7L33 6L32 6L32 7L33 7L33 9L34 9L34 8L35 8L35 5L34 5L34 4ZM45 4L45 5L46 5L46 4ZM27 5L27 8L30 8L30 5ZM18 6L18 7L19 7L19 6ZM21 6L21 7L22 7L22 6ZM28 6L28 7L29 7L29 6ZM40 6L40 7L41 7L41 9L40 9L40 10L39 10L39 11L37 11L37 10L36 10L36 11L35 11L35 13L37 13L37 14L36 14L36 15L37 15L37 14L38 14L38 15L39 15L39 16L38 16L38 17L37 17L37 16L35 16L35 14L33 14L33 13L34 13L34 12L33 12L33 13L32 13L32 12L31 12L31 13L30 13L30 14L29 14L29 13L28 13L28 12L29 12L29 11L27 11L27 12L26 12L26 13L28 13L28 14L29 14L29 16L28 16L28 15L27 15L27 14L26 14L26 15L25 15L25 16L26 16L26 15L27 15L27 16L28 16L28 17L27 17L27 18L28 18L28 19L27 19L27 20L28 20L28 19L30 19L30 18L31 18L31 21L30 21L30 22L29 22L29 21L25 21L25 20L26 20L26 18L25 18L25 17L22 17L22 16L21 16L21 15L23 15L23 16L24 16L24 15L23 15L23 14L25 14L25 13L23 13L23 14L22 14L22 13L21 13L21 14L20 14L20 15L19 15L19 16L20 16L20 17L22 17L22 18L24 18L24 19L21 19L21 18L20 18L20 19L21 19L21 20L24 20L24 21L21 21L21 22L24 22L24 21L25 21L25 22L26 22L26 23L25 23L25 24L24 24L24 23L22 23L22 24L17 24L17 25L18 25L18 26L17 26L17 27L18 27L18 26L19 26L19 28L20 28L20 25L22 25L22 26L21 26L21 27L22 27L22 26L23 26L23 27L25 27L25 28L24 28L24 29L23 29L23 30L24 30L24 32L25 32L25 33L23 33L23 34L22 34L22 33L21 33L21 34L22 34L22 35L23 35L23 34L24 34L24 36L23 36L23 37L19 37L19 35L20 35L20 36L21 36L21 35L20 35L20 33L19 33L19 32L20 32L20 31L21 31L21 32L23 32L23 31L21 31L21 30L20 30L20 29L18 29L18 28L16 28L16 29L18 29L18 30L17 30L17 31L18 31L18 30L20 30L20 31L19 31L19 32L18 32L18 33L17 33L17 35L16 35L16 34L15 34L15 36L17 36L17 38L18 38L18 39L17 39L17 40L18 40L18 41L17 41L17 42L18 42L18 41L19 41L19 42L20 42L20 40L22 40L22 39L21 39L21 38L23 38L23 39L24 39L24 40L25 40L25 36L26 36L26 40L28 40L28 41L29 41L29 40L28 40L28 39L27 39L27 38L28 38L28 37L27 37L27 36L26 36L26 35L27 35L27 34L26 34L26 35L25 35L25 33L27 33L27 31L29 31L29 32L28 32L28 33L29 33L29 34L30 34L30 36L29 36L29 37L31 37L31 38L29 38L29 39L33 39L33 40L35 40L35 42L37 42L37 43L36 43L36 44L35 44L35 43L34 43L34 42L33 42L33 41L32 41L32 40L30 40L30 41L32 41L32 42L27 42L27 41L26 41L26 42L27 42L27 43L28 43L28 44L27 44L27 45L26 45L26 47L27 47L27 45L28 45L28 44L29 44L29 43L32 43L32 44L33 44L33 43L34 43L34 45L36 45L36 46L37 46L37 47L36 47L36 48L35 48L35 49L36 49L36 50L38 50L38 51L40 51L40 52L41 52L41 50L42 50L42 51L43 51L43 49L44 49L44 48L43 48L43 47L42 47L42 48L41 48L41 46L43 46L43 45L44 45L44 47L45 47L45 48L46 48L46 49L45 49L45 50L46 50L46 49L47 49L47 48L48 48L48 47L50 47L50 45L49 45L49 44L48 44L48 45L47 45L47 43L48 43L48 42L46 42L46 41L47 41L47 39L49 39L49 38L50 38L50 36L51 36L51 37L52 37L52 35L50 35L50 34L48 34L48 35L46 35L46 34L45 34L45 35L44 35L44 33L43 33L43 32L41 32L41 33L39 33L39 34L40 34L40 35L38 35L38 33L37 33L37 32L34 32L34 31L36 31L36 30L33 30L33 29L32 29L32 28L31 28L31 26L32 26L32 27L33 27L33 28L36 28L36 29L38 29L38 28L40 28L40 27L37 27L37 28L36 28L36 26L34 26L34 27L33 27L33 26L32 26L32 24L33 24L33 25L37 25L37 26L38 26L38 25L40 25L40 24L37 24L37 22L38 22L38 23L39 23L39 22L38 22L38 20L36 20L36 19L35 19L35 23L32 23L32 24L31 24L31 25L30 25L30 24L29 24L29 26L26 26L26 25L25 25L25 24L28 24L28 23L30 23L30 22L31 22L31 21L32 21L32 20L33 20L33 21L34 21L34 19L32 19L32 16L31 16L31 15L33 15L33 16L35 16L35 17L37 17L37 18L38 18L38 17L39 17L39 16L41 16L41 14L43 14L43 13L44 13L44 11L45 11L45 10L46 10L46 9L44 9L44 7L45 7L45 6L44 6L44 7L43 7L43 6L42 6L42 7L41 7L41 6ZM6 8L6 9L7 9L7 10L5 10L5 11L8 11L8 9L9 9L9 8ZM11 8L11 9L14 9L14 8ZM42 8L42 9L43 9L43 8ZM55 8L55 9L56 9L56 8ZM1 9L1 10L2 10L2 9ZM19 9L19 10L20 10L20 9ZM9 10L9 11L10 11L10 12L12 12L12 10L11 10L11 11L10 11L10 10ZM32 10L32 11L33 11L33 10ZM40 10L40 11L41 11L41 12L39 12L39 13L38 13L38 14L39 14L39 15L40 15L40 14L39 14L39 13L43 13L43 11L42 11L42 10ZM55 11L55 12L54 12L54 13L55 13L55 14L53 14L53 15L55 15L55 14L56 14L56 11ZM16 12L16 13L17 13L17 12ZM52 12L52 13L53 13L53 12ZM31 13L31 14L30 14L30 15L31 15L31 14L32 14L32 13ZM3 14L3 17L2 17L2 18L3 18L3 19L2 19L2 20L3 20L3 21L1 21L1 23L2 23L2 24L4 24L4 23L2 23L2 22L3 22L3 21L4 21L4 22L5 22L5 26L7 26L7 25L8 25L8 24L7 24L7 23L9 23L9 22L7 22L7 21L6 21L6 20L5 20L5 21L4 21L4 20L3 20L3 19L4 19L4 18L5 18L5 19L6 19L6 18L7 18L7 17L6 17L6 18L5 18L5 16L4 16L4 15L6 15L6 14ZM50 16L50 19L52 19L52 20L51 20L51 21L49 21L49 23L48 23L48 24L49 24L49 26L51 26L51 25L52 25L52 26L53 26L53 27L54 27L54 26L53 26L53 23L55 23L55 22L56 22L56 21L55 21L55 20L53 20L53 19L52 19L52 18L55 18L55 17L53 17L53 16ZM16 17L16 18L18 18L18 17ZM45 17L45 18L46 18L46 17ZM13 19L13 20L14 20L14 19ZM48 19L48 20L49 20L49 19ZM5 21L5 22L6 22L6 23L7 23L7 22L6 22L6 21ZM51 21L51 22L50 22L50 23L53 23L53 22L54 22L54 21ZM19 22L19 23L20 23L20 22ZM6 24L6 25L7 25L7 24ZM22 24L22 25L23 25L23 24ZM43 24L43 25L41 25L41 26L43 26L43 27L44 27L44 28L43 28L43 29L39 29L39 30L38 30L38 32L39 32L39 31L40 31L40 30L43 30L43 29L44 29L44 28L45 28L45 27L46 27L46 26L45 26L45 25L44 25L44 24ZM54 24L54 25L55 25L55 24ZM11 25L11 26L9 26L9 28L10 28L10 30L11 30L11 29L12 29L12 27L11 27L11 26L12 26L12 25ZM15 26L15 27L16 27L16 26ZM25 26L25 27L26 27L26 26ZM44 26L44 27L45 27L45 26ZM5 27L5 30L8 30L8 27ZM10 27L10 28L11 28L11 27ZM27 27L27 30L30 30L30 27ZM41 27L41 28L42 28L42 27ZM49 27L49 30L52 30L52 27ZM6 28L6 29L7 29L7 28ZM21 28L21 29L22 29L22 28ZM25 28L25 29L26 29L26 28ZM28 28L28 29L29 29L29 28ZM50 28L50 29L51 29L51 28ZM54 28L54 29L56 29L56 28ZM12 30L12 31L13 31L13 30ZM31 30L31 31L30 31L30 32L29 32L29 33L31 33L31 35L32 35L32 34L33 34L33 35L35 35L35 36L37 36L37 34L35 34L35 33L34 33L34 32L32 32L32 30ZM53 30L53 31L51 31L51 33L52 33L52 32L53 32L53 31L55 31L55 30ZM6 31L6 32L8 32L8 33L9 33L9 32L10 32L10 31L9 31L9 32L8 32L8 31ZM47 31L47 32L48 32L48 33L49 33L49 32L48 32L48 31ZM31 32L31 33L32 33L32 32ZM45 32L45 33L46 33L46 32ZM18 33L18 35L17 35L17 36L18 36L18 35L19 35L19 33ZM3 34L3 35L4 35L4 36L5 36L5 35L7 35L7 34ZM42 34L42 36L40 36L40 37L39 37L39 36L38 36L38 39L35 39L35 37L33 37L33 36L32 36L32 37L33 37L33 39L35 39L35 40L38 40L38 42L39 42L39 41L41 41L41 40L43 40L43 39L45 39L45 40L44 40L44 42L45 42L45 43L43 43L43 44L44 44L44 45L45 45L45 46L47 46L47 45L45 45L45 44L46 44L46 42L45 42L45 40L46 40L46 39L47 39L47 37L48 37L48 36L50 36L50 35L48 35L48 36L47 36L47 37L45 37L45 36L44 36L44 35L43 35L43 34ZM55 35L55 36L56 36L56 35ZM43 36L43 37L40 37L40 38L43 38L43 37L44 37L44 38L45 38L45 39L46 39L46 38L45 38L45 37L44 37L44 36ZM15 37L15 38L14 38L14 39L13 39L13 40L12 40L12 42L13 42L13 41L14 41L14 42L15 42L15 41L16 41L16 39L15 39L15 38L16 38L16 37ZM23 37L23 38L24 38L24 37ZM6 38L6 39L7 39L7 38ZM19 38L19 39L20 39L20 38ZM38 39L38 40L40 40L40 39ZM6 40L6 41L7 41L7 40ZM3 41L3 42L4 42L4 41ZM21 41L21 42L22 42L22 41ZM32 42L32 43L33 43L33 42ZM40 42L40 43L39 43L39 44L40 44L40 45L38 45L38 46L41 46L41 44L42 44L42 42ZM51 42L51 43L50 43L50 44L51 44L51 45L52 45L52 44L51 44L51 43L53 43L53 42ZM40 43L40 44L41 44L41 43ZM1 45L1 47L2 47L2 46L3 46L3 47L5 47L5 45ZM48 45L48 46L49 46L49 45ZM8 46L8 47L9 47L9 48L8 48L8 49L9 49L9 48L12 48L12 47L9 47L9 46ZM38 47L38 48L37 48L37 49L38 49L38 50L41 50L41 48L39 48L39 47ZM38 48L38 49L39 49L39 48ZM42 48L42 49L43 49L43 48ZM53 48L53 49L54 49L54 48ZM55 48L55 50L54 50L54 51L55 51L55 50L56 50L56 48ZM27 49L27 52L30 52L30 49ZM32 49L32 50L33 50L33 51L34 51L34 50L33 50L33 49ZM49 49L49 52L52 52L52 49ZM11 50L11 51L13 51L13 50ZM28 50L28 51L29 51L29 50ZM50 50L50 51L51 51L51 50ZM17 51L17 52L16 52L16 53L14 53L14 54L12 54L12 53L11 53L11 54L12 54L12 55L13 55L13 56L14 56L14 54L16 54L16 53L17 53L17 52L19 52L19 51ZM38 52L38 53L39 53L39 52ZM9 53L9 56L10 56L10 53ZM17 54L17 56L18 56L18 54ZM15 55L15 56L16 56L16 55ZM46 55L46 56L47 56L47 55ZM50 55L50 56L51 56L51 55ZM25 56L25 57L26 57L26 56ZM0 0L0 7L7 7L7 0ZM1 1L1 6L6 6L6 1ZM2 2L2 5L5 5L5 2ZM50 0L50 7L57 7L57 0ZM51 1L51 6L56 6L56 1ZM52 2L52 5L55 5L55 2ZM0 50L0 57L7 57L7 50ZM1 51L1 56L6 56L6 51ZM2 52L2 55L5 55L5 52Z" fill="#000000"/></g></g></svg>
