<?xml version="1.0" encoding="UTF-8"?>
<svg xmlns="http://www.w3.org/2000/svg" version="1.1" width="300" height="300" viewBox="0 0 300 300"><rect x="0" y="0" width="300" height="300" fill="#fefefe"/><g transform="scale(4.615)"><g transform="translate(4,4)"><path fill-rule="evenodd" d="M9 0L9 1L8 1L8 2L9 2L9 1L10 1L10 2L11 2L11 4L10 4L10 3L8 3L8 4L9 4L9 5L8 5L8 7L9 7L9 5L10 5L10 7L11 7L11 8L6 8L6 9L8 9L8 10L6 10L6 11L5 11L5 10L4 10L4 11L3 11L3 9L5 9L5 8L0 8L0 13L1 13L1 12L4 12L4 11L5 11L5 12L6 12L6 13L7 13L7 12L6 12L6 11L8 11L8 10L9 10L9 9L11 9L11 11L12 11L12 12L13 12L13 13L11 13L11 14L10 14L10 11L9 11L9 12L8 12L8 15L9 15L9 16L10 16L10 17L8 17L8 18L5 18L5 17L7 17L7 16L6 16L6 15L7 15L7 14L5 14L5 13L4 13L4 14L3 14L3 13L2 13L2 14L1 14L1 15L2 15L2 16L0 16L0 17L1 17L1 18L3 18L3 16L4 16L4 14L5 14L5 17L4 17L4 19L1 19L1 20L4 20L4 23L5 23L5 24L2 24L2 25L0 25L0 26L1 26L1 27L0 27L0 28L2 28L2 27L3 27L3 28L4 28L4 32L3 32L3 30L2 30L2 31L1 31L1 32L3 32L3 33L0 33L0 35L1 35L1 36L2 36L2 35L1 35L1 34L3 34L3 35L4 35L4 36L3 36L3 37L1 37L1 38L0 38L0 39L1 39L1 40L2 40L2 41L1 41L1 42L2 42L2 43L0 43L0 48L5 48L5 47L7 47L7 46L8 46L8 44L6 44L6 45L3 45L3 43L8 43L8 41L10 41L10 42L9 42L9 46L10 46L10 48L9 48L9 47L8 47L8 48L9 48L9 49L8 49L8 51L9 51L9 49L10 49L10 52L8 52L8 57L9 57L9 56L10 56L10 55L11 55L11 54L10 54L10 53L11 53L11 51L12 51L12 52L13 52L13 53L12 53L12 54L14 54L14 55L12 55L12 56L13 56L13 57L15 57L15 55L16 55L16 56L17 56L17 57L19 57L19 56L17 56L17 54L19 54L19 55L20 55L20 54L19 54L19 53L20 53L20 52L21 52L21 53L22 53L22 55L21 55L21 56L24 56L24 55L23 55L23 54L24 54L24 53L27 53L27 54L30 54L30 53L31 53L31 48L33 48L33 47L36 47L36 48L34 48L34 49L36 49L36 50L34 50L34 51L35 51L35 52L34 52L34 53L35 53L35 54L36 54L36 56L35 56L35 55L34 55L34 54L33 54L33 53L32 53L32 54L31 54L31 56L30 56L30 55L29 55L29 56L27 56L27 57L29 57L29 56L30 56L30 57L31 57L31 56L35 56L35 57L39 57L39 56L40 56L40 55L41 55L41 57L44 57L44 56L42 56L42 55L44 55L44 54L45 54L45 53L44 53L44 52L47 52L47 50L48 50L48 53L47 53L47 54L46 54L46 55L45 55L45 57L49 57L49 56L50 56L50 57L52 57L52 55L51 55L51 53L52 53L52 54L53 54L53 57L54 57L54 56L55 56L55 57L56 57L56 56L55 56L55 52L56 52L56 51L54 51L54 50L57 50L57 48L56 48L56 46L57 46L57 45L56 45L56 44L55 44L55 43L56 43L56 42L57 42L57 41L56 41L56 42L55 42L55 39L57 39L57 37L55 37L55 35L56 35L56 34L57 34L57 32L56 32L56 30L57 30L57 29L56 29L56 28L57 28L57 27L55 27L55 26L57 26L57 25L56 25L56 22L57 22L57 20L56 20L56 22L53 22L53 21L51 21L51 20L52 20L52 19L53 19L53 20L55 20L55 19L56 19L56 18L53 18L53 17L56 17L56 16L57 16L57 15L56 15L56 14L57 14L57 13L56 13L56 8L55 8L55 10L54 10L54 11L52 11L52 10L53 10L53 9L54 9L54 8L53 8L53 9L52 9L52 8L51 8L51 10L50 10L50 8L49 8L49 6L48 6L48 7L47 7L47 5L48 5L48 0L46 0L46 1L47 1L47 2L44 2L44 3L43 3L43 4L40 4L40 5L39 5L39 6L38 6L38 7L37 7L37 5L38 5L38 4L39 4L39 3L42 3L42 2L43 2L43 0L41 0L41 1L40 1L40 0L39 0L39 1L38 1L38 0L37 0L37 1L38 1L38 2L37 2L37 3L36 3L36 0L35 0L35 1L33 1L33 0L32 0L32 1L31 1L31 0L29 0L29 1L28 1L28 2L29 2L29 4L26 4L26 3L23 3L23 2L27 2L27 1L25 1L25 0L23 0L23 2L22 2L22 0L21 0L21 2L20 2L20 1L19 1L19 2L20 2L20 3L21 3L21 4L19 4L19 3L18 3L18 0L17 0L17 1L15 1L15 0L14 0L14 2L13 2L13 3L12 3L12 2L11 2L11 1L13 1L13 0ZM32 1L32 2L30 2L30 3L32 3L32 4L31 4L31 8L32 8L32 10L31 10L31 11L29 11L29 10L27 10L27 11L26 11L26 12L25 12L25 11L23 11L23 12L24 12L24 13L22 13L22 12L21 12L21 11L22 11L22 10L23 10L23 8L24 8L24 9L25 9L25 8L26 8L26 4L25 4L25 8L24 8L24 6L23 6L23 8L19 8L19 7L20 7L20 5L18 5L18 4L17 4L17 2L14 2L14 4L12 4L12 5L11 5L11 7L12 7L12 8L14 8L14 9L13 9L13 10L12 10L12 11L13 11L13 12L14 12L14 11L13 11L13 10L15 10L15 11L16 11L16 12L15 12L15 13L13 13L13 14L15 14L15 13L16 13L16 16L14 16L14 15L12 15L12 14L11 14L11 15L10 15L10 16L11 16L11 17L12 17L12 18L11 18L11 19L9 19L9 21L10 21L10 20L11 20L11 22L10 22L10 23L11 23L11 24L10 24L10 27L11 27L11 25L12 25L12 26L14 26L14 27L12 27L12 28L13 28L13 29L12 29L12 33L10 33L10 31L11 31L11 30L10 30L10 29L11 29L11 28L9 28L9 31L5 31L5 32L4 32L4 33L3 33L3 34L4 34L4 35L5 35L5 36L7 36L7 37L6 37L6 38L7 38L7 37L8 37L8 36L9 36L9 38L8 38L8 40L7 40L7 39L6 39L6 40L7 40L7 41L2 41L2 42L7 42L7 41L8 41L8 40L9 40L9 38L11 38L11 36L12 36L12 35L14 35L14 36L13 36L13 37L14 37L14 38L15 38L15 39L16 39L16 40L15 40L15 41L12 41L12 42L14 42L14 44L13 44L13 43L10 43L10 46L11 46L11 47L12 47L12 48L14 48L14 50L13 50L13 49L11 49L11 50L13 50L13 51L14 51L14 52L15 52L15 51L16 51L16 53L14 53L14 54L16 54L16 53L17 53L17 51L18 51L18 52L19 52L19 51L20 51L20 50L21 50L21 52L22 52L22 53L24 53L24 52L26 52L26 51L25 51L25 50L23 50L23 51L22 51L22 50L21 50L21 49L23 49L23 47L25 47L25 48L24 48L24 49L25 49L25 48L30 48L30 47L29 47L29 46L30 46L30 45L31 45L31 44L29 44L29 45L27 45L27 44L28 44L28 43L27 43L27 42L26 42L26 41L28 41L28 42L32 42L32 43L33 43L33 44L32 44L32 46L31 46L31 47L32 47L32 46L35 46L35 45L34 45L34 43L37 43L37 42L35 42L35 40L38 40L38 42L39 42L39 43L41 43L41 44L39 44L39 45L38 45L38 46L41 46L41 48L39 48L39 47L38 47L38 48L37 48L37 49L38 49L38 50L36 50L36 52L37 52L37 51L38 51L38 53L37 53L37 54L40 54L40 53L41 53L41 52L43 52L43 51L42 51L42 50L41 50L41 48L42 48L42 49L43 49L43 50L47 50L47 49L48 49L48 48L50 48L50 47L51 47L51 46L54 46L54 47L55 47L55 46L56 46L56 45L55 45L55 44L54 44L54 45L50 45L50 43L51 43L51 44L53 44L53 43L54 43L54 42L53 42L53 41L51 41L51 42L50 42L50 43L48 43L48 44L47 44L47 45L45 45L45 44L46 44L46 43L45 43L45 44L44 44L44 43L43 43L43 44L44 44L44 45L43 45L43 46L41 46L41 44L42 44L42 42L41 42L41 41L43 41L43 40L42 40L42 39L47 39L47 40L44 40L44 42L48 42L48 41L49 41L49 39L47 39L47 37L48 37L48 36L49 36L49 37L50 37L50 39L51 39L51 40L53 40L53 39L55 39L55 37L53 37L53 35L55 35L55 34L56 34L56 32L53 32L53 33L52 33L52 32L51 32L51 33L52 33L52 34L50 34L50 32L49 32L49 31L48 31L48 27L47 27L47 25L49 25L49 26L51 26L51 25L55 25L55 24L53 24L53 23L51 23L51 25L49 25L49 24L50 24L50 22L51 22L51 21L49 21L49 22L48 22L48 24L47 24L47 23L46 23L46 24L45 24L45 22L47 22L47 21L45 21L45 20L44 20L44 18L45 18L45 19L46 19L46 18L47 18L47 19L48 19L48 18L47 18L47 17L49 17L49 15L50 15L50 16L51 16L51 17L50 17L50 19L52 19L52 17L53 17L53 15L50 15L50 14L51 14L51 12L50 12L50 10L47 10L47 9L49 9L49 8L47 8L47 7L46 7L46 5L47 5L47 3L44 3L44 6L43 6L43 5L40 5L40 6L39 6L39 7L40 7L40 8L38 8L38 11L39 11L39 13L38 13L38 14L37 14L37 15L35 15L35 16L33 16L33 15L32 15L32 13L33 13L33 14L36 14L36 13L35 13L35 12L36 12L36 10L37 10L37 9L35 9L35 8L37 8L37 7L36 7L36 5L37 5L37 4L36 4L36 5L35 5L35 3L34 3L34 2L33 2L33 1ZM32 2L32 3L33 3L33 2ZM38 2L38 3L39 3L39 2ZM22 3L22 4L21 4L21 5L22 5L22 4L23 4L23 5L24 5L24 4L23 4L23 3ZM15 4L15 5L14 5L14 8L16 8L16 9L18 9L18 11L17 11L17 12L16 12L16 13L17 13L17 14L18 14L18 15L17 15L17 19L15 19L15 21L16 21L16 22L15 22L15 23L16 23L16 24L17 24L17 25L18 25L18 26L16 26L16 27L18 27L18 26L19 26L19 27L20 27L20 26L19 26L19 25L22 25L22 26L21 26L21 27L22 27L22 26L24 26L24 27L23 27L23 28L26 28L26 29L23 29L23 30L25 30L25 31L26 31L26 32L25 32L25 33L23 33L23 34L22 34L22 33L21 33L21 34L20 34L20 32L24 32L24 31L20 31L20 32L16 32L16 33L15 33L15 32L14 32L14 30L15 30L15 31L16 31L16 29L18 29L18 30L19 30L19 29L22 29L22 28L19 28L19 29L18 29L18 28L16 28L16 29L15 29L15 27L14 27L14 30L13 30L13 32L14 32L14 33L13 33L13 34L16 34L16 33L17 33L17 34L18 34L18 35L19 35L19 36L17 36L17 35L16 35L16 36L17 36L17 37L19 37L19 38L18 38L18 39L17 39L17 42L15 42L15 44L18 44L18 45L17 45L17 47L19 47L19 45L21 45L21 46L20 46L20 47L23 47L23 46L25 46L25 45L23 45L23 43L24 43L24 44L27 44L27 43L24 43L24 42L25 42L25 41L24 41L24 40L25 40L25 36L26 36L26 40L28 40L28 41L32 41L32 42L33 42L33 43L34 43L34 42L33 42L33 41L32 41L32 40L28 40L28 39L27 39L27 38L28 38L28 37L27 37L27 34L26 34L26 35L25 35L25 33L26 33L26 32L27 32L27 31L28 31L28 33L29 33L29 34L30 34L30 36L29 36L29 37L31 37L31 38L29 38L29 39L33 39L33 40L35 40L35 39L37 39L37 38L38 38L38 37L40 37L40 38L43 38L43 37L44 37L44 38L45 38L45 37L46 37L46 36L47 36L47 34L45 34L45 35L44 35L44 33L43 33L43 32L46 32L46 31L47 31L47 32L48 32L48 33L49 33L49 32L48 32L48 31L47 31L47 30L46 30L46 29L47 29L47 27L46 27L46 28L45 28L45 26L44 26L44 27L43 27L43 29L39 29L39 30L38 30L38 32L39 32L39 31L41 31L41 30L43 30L43 32L41 32L41 33L39 33L39 34L40 34L40 35L38 35L38 33L37 33L37 32L34 32L34 31L35 31L35 30L33 30L33 29L32 29L32 27L33 27L33 28L35 28L35 29L38 29L38 28L40 28L40 27L36 27L36 26L34 26L34 27L33 27L33 26L32 26L32 24L33 24L33 25L37 25L37 26L38 26L38 25L39 25L39 26L40 26L40 25L39 25L39 24L41 24L41 25L42 25L42 26L41 26L41 28L42 28L42 26L43 26L43 25L44 25L44 24L42 24L42 23L44 23L44 20L42 20L42 19L43 19L43 18L44 18L44 15L46 15L46 16L45 16L45 18L46 18L46 16L48 16L48 15L49 15L49 14L50 14L50 12L49 12L49 13L47 13L47 14L44 14L44 15L42 15L42 16L41 16L41 15L40 15L40 14L38 14L38 15L39 15L39 16L38 16L38 17L37 17L37 16L35 16L35 17L37 17L37 18L38 18L38 17L39 17L39 19L37 19L37 20L36 20L36 19L35 19L35 23L34 23L34 22L33 22L33 23L32 23L32 24L31 24L31 21L32 21L32 20L33 20L33 21L34 21L34 20L33 20L33 17L32 17L32 15L30 15L30 14L31 14L31 13L32 13L32 12L33 12L33 13L34 13L34 12L33 12L33 10L32 10L32 12L31 12L31 13L30 13L30 14L29 14L29 13L28 13L28 12L29 12L29 11L27 11L27 12L26 12L26 15L25 15L25 13L24 13L24 15L23 15L23 14L22 14L22 13L21 13L21 15L23 15L23 16L25 16L25 17L22 17L22 16L21 16L21 17L22 17L22 18L20 18L20 16L18 16L18 15L19 15L19 14L20 14L20 13L19 13L19 10L20 10L20 9L19 9L19 8L16 8L16 7L17 7L17 6L18 6L18 7L19 7L19 6L18 6L18 5L17 5L17 6L16 6L16 7L15 7L15 5L16 5L16 4ZM32 4L32 5L34 5L34 7L33 7L33 6L32 6L32 7L33 7L33 9L34 9L34 8L35 8L35 5L34 5L34 4ZM45 4L45 5L46 5L46 4ZM12 5L12 7L13 7L13 5ZM27 5L27 8L30 8L30 5ZM21 6L21 7L22 7L22 6ZM28 6L28 7L29 7L29 6ZM40 6L40 7L41 7L41 9L40 9L40 10L39 10L39 11L40 11L40 12L41 12L41 10L42 10L42 11L45 11L45 12L47 12L47 10L46 10L46 9L47 9L47 8L46 8L46 7L45 7L45 6L44 6L44 7L43 7L43 6L42 6L42 7L41 7L41 6ZM44 7L44 10L45 10L45 11L46 11L46 10L45 10L45 9L46 9L46 8L45 8L45 7ZM42 8L42 9L43 9L43 8ZM1 9L1 10L2 10L2 9ZM21 9L21 10L22 10L22 9ZM17 12L17 13L18 13L18 12ZM43 12L43 13L41 13L41 14L43 14L43 13L44 13L44 12ZM52 12L52 13L53 13L53 12ZM54 12L54 13L55 13L55 14L54 14L54 15L55 15L55 14L56 14L56 13L55 13L55 12ZM27 13L27 15L26 15L26 17L25 17L25 18L26 18L26 20L25 20L25 21L24 21L24 20L23 20L23 19L24 19L24 18L23 18L23 19L20 19L20 18L19 18L19 19L20 19L20 21L19 21L19 22L20 22L20 23L19 23L19 24L22 24L22 25L23 25L23 23L24 23L24 24L25 24L25 25L26 25L26 26L25 26L25 27L26 27L26 26L27 26L27 25L31 25L31 24L30 24L30 22L28 22L28 23L27 23L27 24L25 24L25 23L26 23L26 22L25 22L25 21L31 21L31 20L29 20L29 19L28 19L28 18L27 18L27 17L28 17L28 16L29 16L29 14L28 14L28 13ZM27 15L27 16L28 16L28 15ZM13 16L13 18L14 18L14 16ZM39 16L39 17L41 17L41 16ZM42 16L42 17L43 17L43 16ZM30 18L30 19L31 19L31 18ZM41 18L41 19L42 19L42 18ZM4 19L4 20L7 20L7 21L5 21L5 23L6 23L6 24L7 24L7 25L6 25L6 26L7 26L7 25L8 25L8 26L9 26L9 25L8 25L8 24L7 24L7 23L6 23L6 22L8 22L8 19ZM11 19L11 20L12 20L12 19ZM13 19L13 20L14 20L14 19ZM27 19L27 20L28 20L28 19ZM16 20L16 21L17 21L17 20ZM38 20L38 22L37 22L37 24L39 24L39 23L40 23L40 22L39 22L39 21L41 21L41 20ZM0 21L0 24L1 24L1 23L2 23L2 22L3 22L3 21ZM12 21L12 25L14 25L14 26L15 26L15 24L13 24L13 22L14 22L14 21ZM23 21L23 22L21 22L21 23L23 23L23 22L24 22L24 21ZM38 22L38 23L39 23L39 22ZM41 22L41 23L42 23L42 22ZM17 23L17 24L18 24L18 23ZM46 24L46 25L47 25L47 24ZM2 25L2 26L3 26L3 27L4 27L4 26L3 26L3 25ZM31 26L31 27L32 27L32 26ZM53 26L53 27L54 27L54 26ZM5 27L5 30L8 30L8 27ZM27 27L27 30L30 30L30 27ZM35 27L35 28L36 28L36 27ZM49 27L49 30L52 30L52 27ZM6 28L6 29L7 29L7 28ZM28 28L28 29L29 29L29 28ZM44 28L44 29L45 29L45 28ZM50 28L50 29L51 29L51 28ZM54 28L54 29L55 29L55 28ZM0 29L0 30L1 30L1 29ZM32 30L32 31L29 31L29 33L31 33L31 32L32 32L32 35L33 35L33 36L32 36L32 37L33 37L33 38L34 38L34 39L35 39L35 37L34 37L34 35L35 35L35 36L37 36L37 37L38 37L38 35L37 35L37 34L35 34L35 33L33 33L33 30ZM44 30L44 31L45 31L45 30ZM53 30L53 31L55 31L55 30ZM6 32L6 33L8 33L8 32ZM4 33L4 34L5 34L5 33ZM54 33L54 34L55 34L55 33ZM6 34L6 35L9 35L9 34ZM10 34L10 35L12 35L12 34ZM19 34L19 35L20 35L20 36L19 36L19 37L22 37L22 39L21 39L21 40L20 40L20 42L19 42L19 41L18 41L18 42L17 42L17 43L18 43L18 42L19 42L19 43L20 43L20 44L21 44L21 45L22 45L22 46L23 46L23 45L22 45L22 44L21 44L21 43L22 43L22 42L24 42L24 41L23 41L23 40L24 40L24 39L23 39L23 38L24 38L24 37L23 37L23 36L24 36L24 34L23 34L23 35L20 35L20 34ZM33 34L33 35L34 35L34 34ZM42 34L42 35L43 35L43 36L40 36L40 37L43 37L43 36L44 36L44 37L45 37L45 36L44 36L44 35L43 35L43 34ZM49 34L49 35L50 35L50 36L51 36L51 37L52 37L52 35L53 35L53 34L52 34L52 35L50 35L50 34ZM3 37L3 38L1 38L1 39L2 39L2 40L4 40L4 39L5 39L5 38L4 38L4 37ZM15 37L15 38L16 38L16 37ZM12 38L12 39L11 39L11 40L10 40L10 41L11 41L11 40L13 40L13 38ZM19 38L19 39L20 39L20 38ZM52 38L52 39L53 39L53 38ZM38 39L38 40L41 40L41 39ZM21 41L21 42L22 42L22 41ZM39 41L39 42L40 42L40 41ZM51 42L51 43L53 43L53 42ZM11 44L11 45L12 45L12 46L15 46L15 45L12 45L12 44ZM2 45L2 46L1 46L1 47L2 47L2 46L3 46L3 47L5 47L5 46L3 46L3 45ZM6 45L6 46L7 46L7 45ZM26 45L26 47L27 47L27 45ZM44 45L44 47L45 47L45 48L46 48L46 47L47 47L47 48L48 48L48 47L50 47L50 45L49 45L49 46L45 46L45 45ZM14 47L14 48L15 48L15 49L19 49L19 50L20 50L20 49L19 49L19 48L15 48L15 47ZM42 47L42 48L43 48L43 49L44 49L44 48L43 48L43 47ZM6 48L6 49L7 49L7 48ZM38 48L38 49L39 49L39 48ZM53 48L53 49L54 49L54 48ZM55 48L55 49L56 49L56 48ZM27 49L27 52L30 52L30 49ZM49 49L49 52L52 52L52 49ZM14 50L14 51L15 51L15 50ZM16 50L16 51L17 51L17 50ZM28 50L28 51L29 51L29 50ZM32 50L32 52L33 52L33 50ZM38 50L38 51L40 51L40 52L41 52L41 50ZM50 50L50 51L51 51L51 50ZM53 52L53 53L54 53L54 52ZM43 53L43 54L44 54L44 53ZM25 54L25 55L26 55L26 54ZM37 55L37 56L39 56L39 55ZM48 55L48 56L49 56L49 55ZM50 55L50 56L51 56L51 55ZM25 56L25 57L26 57L26 56ZM0 0L0 7L7 7L7 0ZM1 1L1 6L6 6L6 1ZM2 2L2 5L5 5L5 2ZM50 0L50 7L57 7L57 0ZM51 1L51 6L56 6L56 1ZM52 2L52 5L55 5L55 2ZM0 50L0 57L7 57L7 50ZM1 51L1 56L6 56L6 51ZM2 52L2 55L5 55L5 52Z" fill="#000000"/></g></g></svg>
