<?xml version="1.0" encoding="UTF-8"?>
<svg xmlns="http://www.w3.org/2000/svg" version="1.1" width="300" height="300" viewBox="0 0 300 300"><rect x="0" y="0" width="300" height="300" fill="#fefefe"/><g transform="scale(4.615)"><g transform="translate(4,4)"><path fill-rule="evenodd" d="M8 0L8 4L9 4L9 5L8 5L8 7L9 7L9 6L10 6L10 8L9 8L9 9L7 9L7 8L4 8L4 9L3 9L3 10L4 10L4 9L7 9L7 10L5 10L5 11L4 11L4 12L3 12L3 11L2 11L2 13L0 13L0 15L1 15L1 16L0 16L0 17L1 17L1 16L2 16L2 14L3 14L3 15L4 15L4 12L5 12L5 13L7 13L7 14L6 14L6 15L7 15L7 16L6 16L6 17L7 17L7 18L6 18L6 19L7 19L7 20L5 20L5 19L4 19L4 16L3 16L3 17L2 17L2 18L0 18L0 19L2 19L2 18L3 18L3 20L2 20L2 21L3 21L3 20L5 20L5 21L4 21L4 22L6 22L6 23L7 23L7 24L6 24L6 25L8 25L8 26L4 26L4 28L3 28L3 25L4 25L4 23L3 23L3 22L1 22L1 20L0 20L0 23L2 23L2 24L0 24L0 25L2 25L2 27L1 27L1 26L0 26L0 30L1 30L1 29L2 29L2 33L1 33L1 32L0 32L0 34L2 34L2 35L3 35L3 36L4 36L4 37L2 37L2 36L0 36L0 40L1 40L1 37L2 37L2 38L3 38L3 39L8 39L8 40L6 40L6 41L4 41L4 42L3 42L3 41L2 41L2 42L3 42L3 43L4 43L4 44L2 44L2 43L0 43L0 45L1 45L1 46L0 46L0 48L5 48L5 47L8 47L8 50L9 50L9 51L8 51L8 53L9 53L9 51L11 51L11 52L10 52L10 53L11 53L11 54L12 54L12 55L10 55L10 54L9 54L9 55L8 55L8 57L11 57L11 56L12 56L12 55L13 55L13 54L14 54L14 56L13 56L13 57L14 57L14 56L15 56L15 57L16 57L16 56L15 56L15 55L16 55L16 54L18 54L18 55L17 55L17 57L19 57L19 56L18 56L18 55L20 55L20 54L21 54L21 53L22 53L22 52L24 52L24 53L23 53L23 55L22 55L22 56L21 56L21 57L22 57L22 56L23 56L23 57L25 57L25 56L26 56L26 57L27 57L27 56L26 56L26 55L27 55L27 53L28 53L28 57L29 57L29 55L30 55L30 57L34 57L34 55L35 55L35 57L37 57L37 56L36 56L36 54L37 54L37 53L38 53L38 55L39 55L39 57L40 57L40 56L41 56L41 55L42 55L42 56L44 56L44 57L47 57L47 56L48 56L48 55L47 55L47 54L49 54L49 57L50 57L50 55L51 55L51 56L53 56L53 55L54 55L54 54L57 54L57 53L55 53L55 52L54 52L54 53L53 53L53 50L54 50L54 51L56 51L56 52L57 52L57 51L56 51L56 45L57 45L57 44L56 44L56 45L54 45L54 44L53 44L53 43L54 43L54 42L55 42L55 43L56 43L56 42L57 42L57 40L55 40L55 41L53 41L53 40L52 40L52 41L51 41L51 43L50 43L50 42L49 42L49 41L48 41L48 42L49 42L49 43L48 43L48 44L49 44L49 43L50 43L50 45L49 45L49 47L48 47L48 49L47 49L47 48L46 48L46 45L47 45L47 46L48 46L48 45L47 45L47 44L46 44L46 45L45 45L45 44L44 44L44 43L43 43L43 44L42 44L42 42L43 42L43 41L44 41L44 42L46 42L46 43L47 43L47 42L46 42L46 40L45 40L45 39L47 39L47 40L51 40L51 39L50 39L50 38L49 38L49 35L50 35L50 37L51 37L51 38L52 38L52 39L57 39L57 38L52 38L52 37L51 37L51 36L53 36L53 37L56 37L56 36L57 36L57 35L56 35L56 34L57 34L57 33L56 33L56 30L55 30L55 29L54 29L54 28L53 28L53 27L54 27L54 26L55 26L55 28L56 28L56 29L57 29L57 28L56 28L56 26L55 26L55 25L54 25L54 24L53 24L53 25L52 25L52 22L54 22L54 21L52 21L52 20L53 20L53 19L51 19L51 17L52 17L52 18L53 18L53 17L52 17L52 14L53 14L53 15L55 15L55 16L56 16L56 17L57 17L57 15L56 15L56 13L57 13L57 11L56 11L56 10L57 10L57 8L53 8L53 9L52 9L52 8L51 8L51 9L50 9L50 16L49 16L49 15L48 15L48 16L47 16L47 15L46 15L46 11L45 11L45 10L44 10L44 9L46 9L46 8L48 8L48 9L47 9L47 12L49 12L49 6L48 6L48 7L47 7L47 5L48 5L48 0L41 0L41 1L40 1L40 2L38 2L38 1L39 1L39 0L38 0L38 1L37 1L37 2L36 2L36 0L35 0L35 1L34 1L34 0L32 0L32 1L34 1L34 3L33 3L33 2L32 2L32 3L31 3L31 2L30 2L30 1L31 1L31 0L28 0L28 1L29 1L29 2L30 2L30 3L31 3L31 4L29 4L29 3L28 3L28 4L26 4L26 3L25 3L25 2L26 2L26 1L27 1L27 0L26 0L26 1L25 1L25 0L23 0L23 1L22 1L22 2L21 2L21 3L22 3L22 5L21 5L21 6L20 6L20 5L19 5L19 4L17 4L17 3L18 3L18 2L19 2L19 1L16 1L16 0L13 0L13 1L12 1L12 0L11 0L11 1L10 1L10 4L9 4L9 0ZM20 0L20 1L21 1L21 0ZM14 1L14 4L15 4L15 5L16 5L16 6L15 6L15 7L14 7L14 5L13 5L13 4L10 4L10 6L11 6L11 7L12 7L12 6L13 6L13 8L12 8L12 9L11 9L11 8L10 8L10 11L5 11L5 12L8 12L8 13L9 13L9 12L10 12L10 11L11 11L11 13L10 13L10 14L11 14L11 16L10 16L10 15L9 15L9 14L8 14L8 16L7 16L7 17L9 17L9 16L10 16L10 18L9 18L9 19L8 19L8 18L7 18L7 19L8 19L8 20L7 20L7 21L6 21L6 22L9 22L9 19L10 19L10 18L11 18L11 20L10 20L10 23L8 23L8 25L9 25L9 29L10 29L10 31L8 31L8 32L9 32L9 33L8 33L8 34L10 34L10 35L9 35L9 36L10 36L10 38L9 38L9 37L8 37L8 36L7 36L7 35L6 35L6 34L7 34L7 33L6 33L6 32L7 32L7 31L5 31L5 33L4 33L4 34L5 34L5 35L4 35L4 36L5 36L5 37L6 37L6 38L7 38L7 37L8 37L8 38L9 38L9 41L8 41L8 46L9 46L9 44L10 44L10 47L9 47L9 48L12 48L12 47L11 47L11 46L13 46L13 45L14 45L14 46L15 46L15 47L14 47L14 48L13 48L13 49L11 49L11 51L12 51L12 53L13 53L13 49L14 49L14 50L17 50L17 49L15 49L15 47L16 47L16 46L17 46L17 48L19 48L19 50L18 50L18 51L19 51L19 53L20 53L20 51L19 51L19 50L20 50L20 48L22 48L22 49L21 49L21 52L22 52L22 51L23 51L23 50L22 50L22 49L23 49L23 48L24 48L24 49L25 49L25 50L26 50L26 48L29 48L29 47L30 47L30 48L31 48L31 49L32 49L32 51L31 51L31 52L32 52L32 51L33 51L33 52L34 52L34 50L35 50L35 52L36 52L36 49L35 49L35 46L36 46L36 45L34 45L34 47L33 47L33 48L34 48L34 50L33 50L33 49L32 49L32 44L31 44L31 42L29 42L29 40L27 40L27 39L28 39L28 38L29 38L29 39L31 39L31 41L32 41L32 43L33 43L33 44L37 44L37 46L38 46L38 45L39 45L39 47L38 47L38 49L37 49L37 51L38 51L38 53L39 53L39 52L40 52L40 53L44 53L44 56L46 56L46 54L47 54L47 53L48 53L48 52L47 52L47 51L46 51L46 50L47 50L47 49L46 49L46 48L45 48L45 49L46 49L46 50L45 50L45 52L46 52L46 54L45 54L45 53L44 53L44 52L43 52L43 51L44 51L44 50L42 50L42 52L41 52L41 46L40 46L40 45L41 45L41 43L40 43L40 42L41 42L41 41L42 41L42 40L43 40L43 39L45 39L45 37L46 37L46 38L47 38L47 39L48 39L48 38L47 38L47 37L48 37L48 36L47 36L47 35L46 35L46 34L49 34L49 33L48 33L48 31L47 31L47 30L48 30L48 27L45 27L45 26L43 26L43 27L45 27L45 30L44 30L44 29L43 29L43 28L42 28L42 25L44 25L44 24L46 24L46 26L47 26L47 24L46 24L46 23L50 23L50 22L47 22L47 21L51 21L51 22L52 22L52 21L51 21L51 20L49 20L49 19L50 19L50 17L51 17L51 16L50 16L50 17L49 17L49 19L48 19L48 18L47 18L47 17L46 17L46 15L45 15L45 13L44 13L44 12L45 12L45 11L44 11L44 12L41 12L41 10L40 10L40 9L44 9L44 8L40 8L40 6L41 6L41 7L42 7L42 6L43 6L43 7L44 7L44 4L45 4L45 5L47 5L47 3L44 3L44 2L43 2L43 3L41 3L41 2L40 2L40 3L38 3L38 2L37 2L37 3L36 3L36 2L35 2L35 3L34 3L34 5L33 5L33 3L32 3L32 5L33 5L33 7L32 7L32 6L31 6L31 10L30 10L30 11L31 11L31 12L29 12L29 11L28 11L28 10L29 10L29 9L26 9L26 6L25 6L25 7L24 7L24 6L23 6L23 7L24 7L24 8L22 8L22 6L21 6L21 8L22 8L22 9L21 9L21 11L22 11L22 12L23 12L23 9L25 9L25 10L27 10L27 11L26 11L26 14L25 14L25 15L24 15L24 14L23 14L23 13L21 13L21 14L20 14L20 11L19 11L19 10L20 10L20 9L15 9L15 11L16 11L16 12L17 12L17 13L15 13L15 12L14 12L14 11L13 11L13 12L12 12L12 11L11 11L11 10L14 10L14 8L15 8L15 7L16 7L16 6L17 6L17 8L19 8L19 7L20 7L20 6L19 6L19 5L18 5L18 6L17 6L17 4L16 4L16 3L17 3L17 2L16 2L16 1ZM45 1L45 2L47 2L47 1ZM11 2L11 3L12 3L12 2ZM15 2L15 3L16 3L16 2ZM22 2L22 3L23 3L23 5L24 5L24 4L25 4L25 3L23 3L23 2ZM40 3L40 4L38 4L38 5L36 5L36 4L35 4L35 5L34 5L34 7L33 7L33 8L32 8L32 13L30 13L30 15L31 15L31 14L32 14L32 17L31 17L31 16L29 16L29 13L27 13L27 14L26 14L26 15L25 15L25 17L21 17L21 16L20 16L20 19L16 19L16 17L18 17L18 18L19 18L19 15L20 15L20 14L19 14L19 12L18 12L18 13L17 13L17 14L15 14L15 13L11 13L11 14L12 14L12 15L13 15L13 14L14 14L14 17L13 17L13 16L11 16L11 17L12 17L12 18L15 18L15 20L14 20L14 19L13 19L13 21L12 21L12 20L11 20L11 23L10 23L10 24L9 24L9 25L10 25L10 27L11 27L11 28L10 28L10 29L11 29L11 33L10 33L10 34L11 34L11 35L10 35L10 36L12 36L12 37L11 37L11 38L10 38L10 41L9 41L9 42L10 42L10 43L11 43L11 45L12 45L12 44L15 44L15 46L16 46L16 40L17 40L17 41L19 41L19 40L20 40L20 44L18 44L18 45L17 45L17 46L18 46L18 47L19 47L19 48L20 48L20 47L19 47L19 45L20 45L20 46L21 46L21 47L22 47L22 48L23 48L23 47L24 47L24 48L25 48L25 46L26 46L26 47L27 47L27 46L28 46L28 47L29 47L29 46L28 46L28 44L27 44L27 43L25 43L25 42L26 42L26 41L27 41L27 42L28 42L28 43L29 43L29 44L30 44L30 46L31 46L31 44L30 44L30 43L29 43L29 42L28 42L28 41L27 41L27 40L25 40L25 41L23 41L23 44L22 44L22 43L21 43L21 41L22 41L22 40L24 40L24 39L22 39L22 40L21 40L21 38L20 38L20 39L17 39L17 38L18 38L18 37L22 37L22 36L20 36L20 35L23 35L23 37L24 37L24 38L25 38L25 39L27 39L27 38L26 38L26 35L27 35L27 34L28 34L28 36L27 36L27 37L28 37L28 36L29 36L29 37L31 37L31 36L32 36L32 37L33 37L33 38L31 38L31 39L33 39L33 40L32 40L32 41L33 41L33 43L37 43L37 44L39 44L39 41L40 41L40 40L42 40L42 39L43 39L43 38L44 38L44 37L45 37L45 36L46 36L46 37L47 37L47 36L46 36L46 35L44 35L44 37L43 37L43 36L42 36L42 35L43 35L43 33L45 33L45 34L46 34L46 33L45 33L45 32L47 32L47 31L46 31L46 30L45 30L45 31L44 31L44 30L43 30L43 29L40 29L40 28L41 28L41 25L42 25L42 24L41 24L41 25L40 25L40 23L39 23L39 21L40 21L40 22L41 22L41 23L42 23L42 22L43 22L43 23L44 23L44 22L46 22L46 19L45 19L45 18L46 18L46 17L45 17L45 16L44 16L44 15L43 15L43 13L41 13L41 14L40 14L40 12L39 12L39 11L40 11L40 10L39 10L39 9L40 9L40 8L39 8L39 5L43 5L43 4L44 4L44 3L43 3L43 4L41 4L41 3ZM11 5L11 6L12 6L12 5ZM27 5L27 8L30 8L30 5ZM35 5L35 7L34 7L34 8L33 8L33 9L34 9L34 10L33 10L33 13L32 13L32 14L33 14L33 13L34 13L34 18L33 18L33 17L32 17L32 18L31 18L31 19L34 19L34 22L35 22L35 23L34 23L34 24L33 24L33 25L34 25L34 26L33 26L33 27L32 27L32 23L33 23L33 22L29 22L29 23L28 23L28 22L27 22L27 21L24 21L24 20L25 20L25 18L26 18L26 20L28 20L28 21L30 21L30 20L28 20L28 19L30 19L30 18L28 18L28 17L25 17L25 18L24 18L24 19L23 19L23 18L22 18L22 19L20 19L20 20L19 20L19 21L18 21L18 22L19 22L19 21L20 21L20 20L21 20L21 21L24 21L24 22L25 22L25 23L26 23L26 22L27 22L27 23L28 23L28 25L27 25L27 26L30 26L30 25L29 25L29 24L30 24L30 23L31 23L31 27L32 27L32 28L31 28L31 29L32 29L32 28L33 28L33 27L34 27L34 31L35 31L35 29L36 29L36 26L37 26L37 27L39 27L39 28L40 28L40 25L39 25L39 26L38 26L38 21L39 21L39 20L38 20L38 21L37 21L37 22L35 22L35 20L36 20L36 19L34 19L34 18L37 18L37 19L39 19L39 18L40 18L40 21L43 21L43 22L44 22L44 16L43 16L43 15L42 15L42 17L43 17L43 18L42 18L42 19L43 19L43 20L41 20L41 18L40 18L40 17L41 17L41 15L40 15L40 17L39 17L39 15L38 15L38 13L39 13L39 12L37 12L37 10L38 10L38 6L37 6L37 9L35 9L35 7L36 7L36 5ZM18 6L18 7L19 7L19 6ZM28 6L28 7L29 7L29 6ZM45 6L45 8L46 8L46 6ZM0 8L0 10L2 10L2 8ZM53 9L53 10L54 10L54 11L52 11L52 12L51 12L51 14L52 14L52 13L53 13L53 12L54 12L54 13L56 13L56 12L55 12L55 9ZM16 10L16 11L18 11L18 10ZM34 10L34 12L35 12L35 13L37 13L37 12L36 12L36 10ZM27 11L27 12L28 12L28 11ZM24 12L24 13L25 13L25 12ZM47 13L47 14L49 14L49 13ZM17 14L17 15L18 15L18 14ZM21 14L21 15L22 15L22 16L24 16L24 15L22 15L22 14ZM27 14L27 15L26 15L26 16L27 16L27 15L28 15L28 14ZM35 14L35 17L38 17L38 18L39 18L39 17L38 17L38 16L37 16L37 15L36 15L36 14ZM56 19L56 20L55 20L55 24L56 24L56 25L57 25L57 24L56 24L56 20L57 20L57 19ZM15 20L15 21L17 21L17 20ZM31 20L31 21L32 21L32 20ZM13 21L13 22L14 22L14 23L15 23L15 24L14 24L14 27L13 27L13 25L12 25L12 23L11 23L11 26L12 26L12 27L13 27L13 28L12 28L12 29L13 29L13 30L12 30L12 31L13 31L13 32L12 32L12 33L11 33L11 34L12 34L12 33L13 33L13 32L14 32L14 34L15 34L15 35L14 35L14 36L15 36L15 35L17 35L17 34L18 34L18 36L19 36L19 35L20 35L20 32L19 32L19 34L18 34L18 33L17 33L17 32L16 32L16 31L14 31L14 30L18 30L18 29L19 29L19 31L22 31L22 33L21 33L21 34L23 34L23 33L26 33L26 34L24 34L24 36L25 36L25 35L26 35L26 34L27 34L27 32L28 32L28 31L27 31L27 32L24 32L24 31L25 31L25 30L26 30L26 29L25 29L25 28L24 28L24 27L26 27L26 25L25 25L25 26L24 26L24 27L23 27L23 28L22 28L22 27L20 27L20 25L21 25L21 26L22 26L22 25L23 25L23 24L24 24L24 23L23 23L23 22L22 22L22 25L21 25L21 22L20 22L20 23L19 23L19 24L20 24L20 25L19 25L19 27L20 27L20 28L18 28L18 29L15 29L15 28L16 28L16 27L18 27L18 25L17 25L17 22L16 22L16 23L15 23L15 22L14 22L14 21ZM34 24L34 25L37 25L37 24ZM48 24L48 25L49 25L49 26L50 26L50 24ZM15 25L15 26L16 26L16 25ZM5 27L5 30L8 30L8 27ZM14 27L14 28L15 28L15 27ZM27 27L27 30L30 30L30 27ZM49 27L49 30L52 30L52 27ZM6 28L6 29L7 29L7 28ZM28 28L28 29L29 29L29 28ZM37 28L37 29L38 29L38 28ZM46 28L46 29L47 29L47 28ZM50 28L50 29L51 29L51 28ZM3 29L3 32L4 32L4 29ZM20 29L20 30L22 30L22 31L24 31L24 30L25 30L25 29L23 29L23 30L22 30L22 29ZM39 29L39 30L40 30L40 29ZM31 30L31 32L30 32L30 31L29 31L29 33L28 33L28 34L29 34L29 33L31 33L31 34L30 34L30 36L31 36L31 35L32 35L32 34L33 34L33 33L32 33L32 30ZM37 30L37 32L38 32L38 30ZM53 30L53 32L55 32L55 30ZM39 31L39 32L40 32L40 33L39 33L39 34L38 34L38 33L37 33L37 34L38 34L38 35L37 35L37 36L38 36L38 37L37 37L37 38L35 38L35 33L34 33L34 35L33 35L33 36L34 36L34 38L33 38L33 39L34 39L34 42L35 42L35 39L37 39L37 42L38 42L38 39L40 39L40 38L38 38L38 37L41 37L41 39L42 39L42 37L41 37L41 35L42 35L42 34L40 34L40 33L41 33L41 32L40 32L40 31ZM49 31L49 32L50 32L50 35L53 35L53 36L55 36L55 35L53 35L53 34L54 34L54 33L51 33L51 32L52 32L52 31ZM5 33L5 34L6 34L6 33ZM15 33L15 34L16 34L16 33ZM55 33L55 34L56 34L56 33ZM12 35L12 36L13 36L13 35ZM38 35L38 36L40 36L40 35ZM6 36L6 37L7 37L7 36ZM16 36L16 37L15 37L15 38L14 38L14 37L12 37L12 38L11 38L11 39L13 39L13 38L14 38L14 40L13 40L13 41L12 41L12 42L11 42L11 41L10 41L10 42L11 42L11 43L13 43L13 42L14 42L14 43L15 43L15 39L16 39L16 38L17 38L17 36ZM34 38L34 39L35 39L35 38ZM6 41L6 42L4 42L4 43L5 43L5 44L4 44L4 45L3 45L3 47L5 47L5 46L4 46L4 45L6 45L6 46L7 46L7 45L6 45L6 44L7 44L7 43L6 43L6 42L7 42L7 41ZM52 41L52 43L51 43L51 44L52 44L52 46L53 46L53 48L54 48L54 49L55 49L55 47L54 47L54 46L53 46L53 44L52 44L52 43L53 43L53 41ZM55 41L55 42L56 42L56 41ZM17 42L17 43L18 43L18 42ZM1 44L1 45L2 45L2 44ZM20 44L20 45L21 45L21 46L22 46L22 47L23 47L23 45L24 45L24 44L23 44L23 45L21 45L21 44ZM43 44L43 45L44 45L44 44ZM26 45L26 46L27 46L27 45ZM50 45L50 47L49 47L49 48L51 48L51 45ZM1 46L1 47L2 47L2 46ZM44 46L44 47L42 47L42 49L44 49L44 47L45 47L45 46ZM36 47L36 48L37 48L37 47ZM39 47L39 49L38 49L38 51L40 51L40 47ZM6 48L6 49L7 49L7 48ZM9 49L9 50L10 50L10 49ZM27 49L27 52L30 52L30 49ZM49 49L49 52L52 52L52 49ZM28 50L28 51L29 51L29 50ZM50 50L50 51L51 51L51 50ZM15 51L15 53L14 53L14 54L15 54L15 53L17 53L17 52L16 52L16 51ZM25 51L25 53L24 53L24 54L25 54L25 53L26 53L26 51ZM30 53L30 54L31 54L31 53ZM32 53L32 54L33 54L33 53ZM34 53L34 54L35 54L35 53ZM49 53L49 54L51 54L51 55L52 55L52 54L51 54L51 53ZM40 54L40 55L41 55L41 54ZM42 54L42 55L43 55L43 54ZM23 55L23 56L24 56L24 55ZM56 56L56 57L57 57L57 56ZM0 0L0 7L7 7L7 0ZM1 1L1 6L6 6L6 1ZM2 2L2 5L5 5L5 2ZM50 0L50 7L57 7L57 0ZM51 1L51 6L56 6L56 1ZM52 2L52 5L55 5L55 2ZM0 50L0 57L7 57L7 50ZM1 51L1 56L6 56L6 51ZM2 52L2 55L5 55L5 52Z" fill="#000000"/></g></g></svg>
