<?xml version="1.0" encoding="UTF-8"?>
<svg xmlns="http://www.w3.org/2000/svg" version="1.1" width="300" height="300" viewBox="0 0 300 300"><rect x="0" y="0" width="300" height="300" fill="#fefefe"/><g transform="scale(4.615)"><g transform="translate(4,4)"><path fill-rule="evenodd" d="M12 0L12 2L11 2L11 1L8 1L8 2L10 2L10 4L9 4L9 3L8 3L8 4L9 4L9 5L8 5L8 7L9 7L9 8L6 8L6 9L8 9L8 10L5 10L5 13L3 13L3 11L4 11L4 9L5 9L5 8L0 8L0 10L1 10L1 9L3 9L3 11L2 11L2 12L1 12L1 11L0 11L0 13L3 13L3 15L2 15L2 14L0 14L0 15L2 15L2 17L1 17L1 16L0 16L0 17L1 17L1 18L0 18L0 19L1 19L1 18L2 18L2 17L4 17L4 18L3 18L3 21L5 21L5 22L3 22L3 23L1 23L1 24L3 24L3 23L4 23L4 25L3 25L3 26L2 26L2 27L1 27L1 26L0 26L0 27L1 27L1 28L0 28L0 31L1 31L1 30L2 30L2 31L3 31L3 32L2 32L2 33L0 33L0 34L3 34L3 36L2 36L2 38L1 38L1 37L0 37L0 43L1 43L1 44L0 44L0 48L5 48L5 47L7 47L7 48L6 48L6 49L8 49L8 51L10 51L10 49L12 49L12 50L13 50L13 47L12 47L12 42L13 42L13 43L14 43L14 42L15 42L15 43L16 43L16 45L17 45L17 46L15 46L15 45L14 45L14 44L13 44L13 45L14 45L14 46L15 46L15 48L16 48L16 49L15 49L15 50L14 50L14 51L13 51L13 52L12 52L12 53L11 53L11 54L12 54L12 53L13 53L13 54L14 54L14 55L16 55L16 56L14 56L14 57L16 57L16 56L17 56L17 57L19 57L19 55L20 55L20 54L19 54L19 53L20 53L20 52L23 52L23 50L25 50L25 51L26 51L26 52L24 52L24 53L21 53L21 55L23 55L23 57L26 57L26 56L27 56L27 57L29 57L29 56L30 56L30 57L31 57L31 56L35 56L35 57L39 57L39 56L40 56L40 55L43 55L43 57L44 57L44 54L45 54L45 55L46 55L46 54L45 54L45 53L44 53L44 52L45 52L45 51L44 51L44 50L45 50L45 49L44 49L44 48L45 48L45 47L47 47L47 48L46 48L46 49L47 49L47 50L48 50L48 54L47 54L47 55L49 55L49 56L48 56L48 57L49 57L49 56L50 56L50 57L52 57L52 55L51 55L51 53L52 53L52 54L53 54L53 57L54 57L54 56L55 56L55 57L56 57L56 56L55 56L55 54L53 54L53 52L54 52L54 53L56 53L56 52L57 52L57 51L56 51L56 50L57 50L57 48L56 48L56 46L57 46L57 43L56 43L56 41L55 41L55 39L57 39L57 35L56 35L56 34L55 34L55 32L56 32L56 33L57 33L57 32L56 32L56 30L57 30L57 29L56 29L56 28L57 28L57 27L56 27L56 26L57 26L57 25L56 25L56 22L57 22L57 19L56 19L56 22L55 22L55 23L53 23L53 21L51 21L51 20L52 20L52 19L53 19L53 20L55 20L55 18L57 18L57 17L56 17L56 16L57 16L57 15L56 15L56 14L57 14L57 12L55 12L55 11L56 11L56 8L55 8L55 10L54 10L54 11L53 11L53 10L52 10L52 11L51 11L51 10L50 10L50 8L48 8L48 9L47 9L47 10L46 10L46 11L45 11L45 9L44 9L44 8L43 8L43 6L44 6L44 7L45 7L45 8L46 8L46 7L47 7L47 5L48 5L48 0L46 0L46 1L45 1L45 2L44 2L44 3L43 3L43 4L40 4L40 5L39 5L39 6L38 6L38 2L39 2L39 3L42 3L42 2L43 2L43 0L41 0L41 1L40 1L40 0L39 0L39 1L38 1L38 0L37 0L37 1L38 1L38 2L37 2L37 3L36 3L36 0L35 0L35 1L33 1L33 0L32 0L32 3L31 3L31 4L26 4L26 3L23 3L23 4L24 4L24 5L22 5L22 4L19 4L19 3L20 3L20 2L21 2L21 1L22 1L22 0L21 0L21 1L20 1L20 0L19 0L19 1L18 1L18 2L19 2L19 3L18 3L18 4L17 4L17 6L16 6L16 7L15 7L15 5L16 5L16 4L15 4L15 5L14 5L14 7L13 7L13 5L11 5L11 4L12 4L12 2L13 2L13 4L14 4L14 2L17 2L17 1L14 1L14 0ZM23 0L23 2L27 2L27 1L25 1L25 0ZM29 0L29 1L30 1L30 2L31 2L31 0ZM13 1L13 2L14 2L14 1ZM19 1L19 2L20 2L20 1ZM46 1L46 2L47 2L47 1ZM28 2L28 3L29 3L29 2ZM32 3L32 4L31 4L31 8L32 8L32 10L31 10L31 11L29 11L29 12L28 12L28 13L26 13L26 12L27 12L27 11L28 11L28 10L27 10L27 11L26 11L26 12L25 12L25 10L23 10L23 11L24 11L24 12L23 12L23 13L22 13L22 12L21 12L21 11L22 11L22 10L21 10L21 9L25 9L25 8L26 8L26 4L25 4L25 8L24 8L24 6L23 6L23 8L19 8L19 9L18 9L18 10L17 10L17 9L15 9L15 7L14 7L14 10L16 10L16 11L15 11L15 13L13 13L13 12L14 12L14 11L13 11L13 12L11 12L11 13L10 13L10 12L8 12L8 11L6 11L6 12L8 12L8 13L6 13L6 14L5 14L5 15L6 15L6 16L7 16L7 17L6 17L6 18L5 18L5 21L6 21L6 22L7 22L7 23L5 23L5 24L8 24L8 25L5 25L5 26L11 26L11 25L12 25L12 24L13 24L13 23L10 23L10 22L13 22L13 21L14 21L14 22L16 22L16 21L17 21L17 24L21 24L21 25L19 25L19 26L18 26L18 25L15 25L15 24L16 24L16 23L15 23L15 24L14 24L14 25L13 25L13 26L12 26L12 27L11 27L11 29L9 29L9 30L10 30L10 31L14 31L14 32L11 32L11 33L9 33L9 35L6 35L6 34L7 34L7 33L8 33L8 32L9 32L9 31L8 31L8 32L7 32L7 31L6 31L6 32L7 32L7 33L6 33L6 34L4 34L4 33L5 33L5 31L4 31L4 33L3 33L3 34L4 34L4 35L6 35L6 36L7 36L7 37L5 37L5 36L3 36L3 38L2 38L2 39L3 39L3 38L4 38L4 39L5 39L5 38L7 38L7 39L6 39L6 40L5 40L5 42L4 42L4 43L3 43L3 42L2 42L2 41L3 41L3 40L1 40L1 42L2 42L2 43L3 43L3 44L1 44L1 47L2 47L2 45L3 45L3 44L4 44L4 43L5 43L5 45L4 45L4 46L3 46L3 47L5 47L5 46L7 46L7 47L9 47L9 46L8 46L8 45L10 45L10 47L11 47L11 44L8 44L8 43L5 43L5 42L7 42L7 41L8 41L8 42L9 42L9 37L8 37L8 36L11 36L11 37L10 37L10 38L11 38L11 39L10 39L10 40L11 40L11 41L10 41L10 42L12 42L12 40L11 40L11 39L12 39L12 38L11 38L11 37L12 37L12 36L13 36L13 38L15 38L15 39L13 39L13 41L15 41L15 42L17 42L17 43L18 43L18 42L19 42L19 41L17 41L17 40L19 40L19 39L20 39L20 38L17 38L17 36L18 36L18 35L21 35L21 33L22 33L22 34L23 34L23 36L19 36L19 37L21 37L21 38L24 38L24 37L23 37L23 36L24 36L24 34L23 34L23 33L25 33L25 35L26 35L26 36L27 36L27 37L25 37L25 38L27 38L27 39L25 39L25 40L24 40L24 39L23 39L23 40L20 40L20 43L22 43L22 42L24 42L24 41L25 41L25 43L23 43L23 45L22 45L22 44L19 44L19 45L20 45L20 46L18 46L18 47L17 47L17 48L19 48L19 49L20 49L20 51L21 51L21 49L23 49L23 48L24 48L24 49L25 49L25 50L26 50L26 49L25 49L25 48L28 48L28 46L30 46L30 45L31 45L31 44L30 44L30 43L29 43L29 44L28 44L28 42L30 42L30 41L31 41L31 42L32 42L32 43L33 43L33 44L32 44L32 46L35 46L35 48L34 48L34 49L33 49L33 47L32 47L32 49L31 49L31 50L32 50L32 49L33 49L33 50L34 50L34 51L33 51L33 52L32 52L32 51L31 51L31 53L30 53L30 54L27 54L27 53L26 53L26 54L25 54L25 53L24 53L24 54L23 54L23 55L24 55L24 56L26 56L26 54L27 54L27 56L29 56L29 55L30 55L30 56L31 56L31 54L32 54L32 53L33 53L33 54L34 54L34 55L35 55L35 56L36 56L36 54L35 54L35 50L36 50L36 52L37 52L37 53L38 53L38 54L37 54L37 56L39 56L39 55L38 55L38 54L40 54L40 53L41 53L41 52L42 52L42 53L43 53L43 54L44 54L44 53L43 53L43 52L42 52L42 50L41 50L41 48L42 48L42 49L43 49L43 48L44 48L44 47L45 47L45 46L47 46L47 45L48 45L48 44L49 44L49 46L50 46L50 47L48 47L48 48L47 48L47 49L48 49L48 48L52 48L52 47L53 47L53 45L52 45L52 44L53 44L53 43L54 43L54 42L53 42L53 41L51 41L51 42L50 42L50 43L49 43L49 42L48 42L48 41L49 41L49 39L51 39L51 38L53 38L53 35L55 35L55 37L56 37L56 35L55 35L55 34L54 34L54 32L53 32L53 31L52 31L52 32L51 32L51 33L52 33L52 34L50 34L50 31L48 31L48 29L46 29L46 30L47 30L47 31L48 31L48 32L46 32L46 31L45 31L45 32L43 32L43 30L40 30L40 29L44 29L44 30L45 30L45 28L46 28L46 27L48 27L48 26L47 26L47 25L46 25L46 24L47 24L47 23L48 23L48 24L49 24L49 23L50 23L50 22L51 22L51 21L49 21L49 20L48 20L48 21L49 21L49 22L47 22L47 21L45 21L45 20L44 20L44 18L47 18L47 19L48 19L48 18L47 18L47 17L48 17L48 16L49 16L49 17L50 17L50 19L52 19L52 18L51 18L51 17L53 17L53 18L55 18L55 17L53 17L53 15L55 15L55 14L56 14L56 13L55 13L55 12L54 12L54 13L55 13L55 14L53 14L53 15L50 15L50 14L51 14L51 12L50 12L50 10L49 10L49 11L48 11L48 10L47 10L47 12L45 12L45 11L41 11L41 12L40 12L40 10L41 10L41 9L42 9L42 8L41 8L41 7L42 7L42 5L40 5L40 6L39 6L39 7L40 7L40 8L39 8L39 9L38 9L38 8L37 8L37 7L38 7L38 6L37 6L37 7L36 7L36 5L37 5L37 4L36 4L36 5L35 5L35 3ZM44 3L44 6L45 6L45 7L46 7L46 6L45 6L45 4L46 4L46 5L47 5L47 3ZM18 4L18 6L17 6L17 7L16 7L16 8L17 8L17 7L18 7L18 6L19 6L19 7L20 7L20 5L19 5L19 4ZM32 4L32 5L34 5L34 7L33 7L33 6L32 6L32 7L33 7L33 9L34 9L34 8L35 8L35 9L37 9L37 10L36 10L36 11L35 11L35 13L37 13L37 14L36 14L36 15L37 15L37 14L38 14L38 15L39 15L39 16L38 16L38 17L37 17L37 16L35 16L35 14L32 14L32 12L33 12L33 13L34 13L34 12L33 12L33 10L32 10L32 11L31 11L31 13L30 13L30 14L29 14L29 13L28 13L28 14L29 14L29 16L28 16L28 15L27 15L27 16L28 16L28 17L27 17L27 18L28 18L28 19L27 19L27 20L28 20L28 19L29 19L29 20L31 20L31 21L29 21L29 22L31 22L31 21L32 21L32 20L33 20L33 21L34 21L34 20L33 20L33 19L34 19L34 18L33 18L33 17L32 17L32 16L35 16L35 17L37 17L37 18L38 18L38 17L39 17L39 19L38 19L38 21L37 21L37 20L36 20L36 19L35 19L35 23L34 23L34 22L33 22L33 23L32 23L32 24L31 24L31 23L30 23L30 24L29 24L29 26L28 26L28 25L27 25L27 26L26 26L26 25L25 25L25 24L28 24L28 23L27 23L27 22L28 22L28 21L25 21L25 20L26 20L26 18L25 18L25 17L26 17L26 13L25 13L25 12L24 12L24 13L23 13L23 14L22 14L22 13L21 13L21 12L20 12L20 13L19 13L19 11L21 11L21 10L20 10L20 9L19 9L19 10L18 10L18 11L17 11L17 12L16 12L16 13L15 13L15 14L14 14L14 15L13 15L13 14L12 14L12 13L11 13L11 14L12 14L12 15L10 15L10 16L9 16L9 14L8 14L8 15L7 15L7 14L6 14L6 15L7 15L7 16L9 16L9 17L8 17L8 20L6 20L6 21L7 21L7 22L8 22L8 21L9 21L9 22L10 22L10 19L9 19L9 17L11 17L11 16L12 16L12 15L13 15L13 17L14 17L14 18L15 18L15 21L16 21L16 19L17 19L17 21L20 21L20 20L19 20L19 18L20 18L20 19L21 19L21 18L20 18L20 16L21 16L21 17L22 17L22 19L23 19L23 20L24 20L24 21L22 21L22 23L21 23L21 24L22 24L22 23L23 23L23 24L24 24L24 25L21 25L21 27L22 27L22 26L26 26L26 27L24 27L24 28L23 28L23 30L25 30L25 31L26 31L26 32L25 32L25 33L26 33L26 35L27 35L27 33L26 33L26 32L27 32L27 31L29 31L29 32L28 32L28 33L29 33L29 34L30 34L30 36L29 36L29 37L31 37L31 38L29 38L29 39L33 39L33 40L35 40L35 42L37 42L37 43L34 43L34 42L33 42L33 41L32 41L32 40L31 40L31 41L32 41L32 42L33 42L33 43L34 43L34 45L35 45L35 46L37 46L37 47L36 47L36 48L35 48L35 49L36 49L36 50L38 50L38 51L37 51L37 52L38 52L38 53L39 53L39 52L38 52L38 51L40 51L40 52L41 52L41 50L38 50L38 49L39 49L39 48L41 48L41 46L43 46L43 47L42 47L42 48L43 48L43 47L44 47L44 46L43 46L43 45L44 45L44 44L43 44L43 41L44 41L44 42L45 42L45 43L46 43L46 44L45 44L45 45L47 45L47 43L48 43L48 42L47 42L47 43L46 43L46 42L45 42L45 41L44 41L44 40L45 40L45 39L46 39L46 41L47 41L47 39L49 39L49 38L50 38L50 37L52 37L52 35L53 35L53 34L52 34L52 35L50 35L50 34L49 34L49 35L50 35L50 37L49 37L49 38L48 38L48 37L47 37L47 39L46 39L46 38L45 38L45 37L46 37L46 36L47 36L47 35L46 35L46 36L45 36L45 35L44 35L44 36L43 36L43 37L42 37L42 36L41 36L41 35L42 35L42 34L45 34L45 33L43 33L43 32L41 32L41 33L39 33L39 34L40 34L40 35L38 35L38 33L37 33L37 32L35 32L35 30L37 30L37 29L38 29L38 28L40 28L40 27L41 27L41 28L42 28L42 27L41 27L41 26L43 26L43 25L44 25L44 27L43 27L43 28L45 28L45 27L46 27L46 26L45 26L45 25L44 25L44 24L43 24L43 25L39 25L39 27L37 27L37 28L36 28L36 26L34 26L34 27L33 27L33 26L32 26L32 24L33 24L33 25L37 25L37 26L38 26L38 24L41 24L41 22L43 22L43 23L44 23L44 20L43 20L43 18L44 18L44 15L42 15L42 16L41 16L41 15L39 15L39 14L38 14L38 13L40 13L40 12L39 12L39 10L40 10L40 9L39 9L39 10L38 10L38 9L37 9L37 8L35 8L35 5L34 5L34 4ZM9 5L9 7L10 7L10 5ZM27 5L27 8L30 8L30 5ZM11 6L11 8L12 8L12 6ZM21 6L21 7L22 7L22 6ZM28 6L28 7L29 7L29 6ZM40 6L40 7L41 7L41 6ZM48 6L48 7L49 7L49 6ZM51 8L51 9L52 9L52 8ZM53 8L53 9L54 9L54 8ZM43 9L43 10L44 10L44 9ZM9 10L9 11L12 11L12 10ZM17 12L17 13L16 13L16 16L15 16L15 15L14 15L14 17L15 17L15 18L17 18L17 19L18 19L18 17L16 17L16 16L20 16L20 15L21 15L21 16L22 16L22 17L25 17L25 16L23 16L23 15L21 15L21 13L20 13L20 14L18 14L18 15L17 15L17 13L18 13L18 12ZM43 12L43 13L41 13L41 14L44 14L44 12ZM49 12L49 13L47 13L47 14L45 14L45 15L46 15L46 16L45 16L45 17L47 17L47 16L48 16L48 15L49 15L49 16L50 16L50 15L49 15L49 14L50 14L50 12ZM52 12L52 13L53 13L53 12ZM24 14L24 15L25 15L25 14ZM30 14L30 15L31 15L31 16L32 16L32 14ZM3 15L3 16L4 16L4 15ZM39 16L39 17L41 17L41 16ZM42 16L42 17L43 17L43 16ZM31 17L31 18L30 18L30 19L32 19L32 17ZM6 18L6 19L7 19L7 18ZM11 18L11 21L13 21L13 20L14 20L14 19L12 19L12 18ZM23 18L23 19L24 19L24 18ZM41 18L41 19L42 19L42 18ZM0 20L0 22L2 22L2 20ZM39 20L39 21L38 21L38 22L37 22L37 24L38 24L38 22L39 22L39 23L40 23L40 22L39 22L39 21L42 21L42 20ZM24 21L24 22L23 22L23 23L24 23L24 24L25 24L25 23L26 23L26 22L25 22L25 21ZM19 22L19 23L20 23L20 22ZM45 22L45 23L47 23L47 22ZM8 23L8 24L10 24L10 23ZM52 23L52 24L50 24L50 26L51 26L51 25L53 25L53 23ZM55 25L55 26L56 26L56 25ZM3 26L3 27L4 27L4 26ZM14 26L14 27L16 27L16 26ZM17 26L17 27L18 27L18 26ZM19 26L19 28L20 28L20 26ZM31 26L31 27L32 27L32 29L31 29L31 31L30 31L30 32L29 32L29 33L31 33L31 31L32 31L32 34L31 34L31 35L33 35L33 36L32 36L32 37L33 37L33 38L34 38L34 39L35 39L35 40L38 40L38 42L39 42L39 43L40 43L40 44L39 44L39 45L38 45L38 46L39 46L39 45L41 45L41 44L42 44L42 43L41 43L41 42L40 42L40 41L43 41L43 40L44 40L44 39L45 39L45 38L44 38L44 37L45 37L45 36L44 36L44 37L43 37L43 38L42 38L42 37L41 37L41 36L40 36L40 37L38 37L38 35L37 35L37 34L35 34L35 33L33 33L33 32L34 32L34 31L32 31L32 29L33 29L33 30L35 30L35 29L36 29L36 28L33 28L33 27L32 27L32 26ZM53 26L53 27L54 27L54 26ZM5 27L5 30L8 30L8 27ZM12 27L12 29L14 29L14 28L13 28L13 27ZM27 27L27 30L30 30L30 27ZM49 27L49 30L52 30L52 27ZM55 27L55 28L54 28L54 29L53 29L53 30L54 30L54 31L55 31L55 30L54 30L54 29L55 29L55 28L56 28L56 27ZM1 28L1 29L2 29L2 28ZM6 28L6 29L7 29L7 28ZM16 28L16 29L15 29L15 32L14 32L14 33L13 33L13 34L12 34L12 35L13 35L13 36L14 36L14 37L15 37L15 38L16 38L16 37L15 37L15 36L16 36L16 35L15 35L15 36L14 36L14 34L15 34L15 33L16 33L16 32L17 32L17 33L18 33L18 34L20 34L20 33L21 33L21 32L24 32L24 31L21 31L21 30L20 30L20 29L18 29L18 28ZM21 28L21 29L22 29L22 28ZM25 28L25 29L26 29L26 28ZM28 28L28 29L29 29L29 28ZM50 28L50 29L51 29L51 28ZM3 29L3 30L4 30L4 29ZM16 29L16 30L18 30L18 31L17 31L17 32L19 32L19 31L20 31L20 30L18 30L18 29ZM38 30L38 32L39 32L39 30ZM48 32L48 33L49 33L49 32ZM52 32L52 33L53 33L53 32ZM0 35L0 36L1 36L1 35ZM34 35L34 36L33 36L33 37L35 37L35 39L37 39L37 38L38 38L38 37L37 37L37 36L35 36L35 35ZM27 37L27 38L28 38L28 37ZM40 37L40 38L41 38L41 39L42 39L42 38L41 38L41 37ZM54 38L54 39L55 39L55 38ZM15 39L15 41L16 41L16 39ZM27 39L27 40L28 40L28 39ZM38 39L38 40L39 40L39 39ZM6 40L6 41L7 41L7 40ZM23 40L23 41L24 41L24 40ZM29 40L29 41L30 41L30 40ZM26 41L26 42L27 42L27 41ZM51 42L51 43L50 43L50 45L51 45L51 43L53 43L53 42ZM25 43L25 44L27 44L27 45L26 45L26 47L27 47L27 45L28 45L28 44L27 44L27 43ZM55 43L55 44L54 44L54 45L55 45L55 46L54 46L54 47L55 47L55 46L56 46L56 43ZM6 44L6 45L7 45L7 44ZM17 44L17 45L18 45L18 44ZM21 45L21 46L20 46L20 49L21 49L21 47L23 47L23 46L25 46L25 45L23 45L23 46L22 46L22 45ZM51 46L51 47L52 47L52 46ZM29 47L29 48L30 48L30 47ZM38 47L38 48L37 48L37 49L38 49L38 48L39 48L39 47ZM53 48L53 49L55 49L55 50L54 50L54 51L55 51L55 52L56 52L56 51L55 51L55 50L56 50L56 48ZM16 49L16 50L17 50L17 49ZM27 49L27 52L30 52L30 49ZM49 49L49 52L52 52L52 49ZM28 50L28 51L29 51L29 50ZM50 50L50 51L51 51L51 50ZM14 51L14 53L15 53L15 54L16 54L16 53L17 53L17 51ZM18 51L18 52L19 52L19 51ZM46 51L46 52L47 52L47 51ZM8 52L8 57L9 57L9 53L10 53L10 52ZM15 52L15 53L16 53L16 52ZM33 52L33 53L34 53L34 52ZM17 54L17 55L19 55L19 54ZM10 55L10 57L11 57L11 55ZM50 55L50 56L51 56L51 55ZM12 56L12 57L13 57L13 56ZM20 56L20 57L21 57L21 56ZM46 56L46 57L47 57L47 56ZM0 0L0 7L7 7L7 0ZM1 1L1 6L6 6L6 1ZM2 2L2 5L5 5L5 2ZM50 0L50 7L57 7L57 0ZM51 1L51 6L56 6L56 1ZM52 2L52 5L55 5L55 2ZM0 50L0 57L7 57L7 50ZM1 51L1 56L6 56L6 51ZM2 52L2 55L5 55L5 52Z" fill="#000000"/></g></g></svg>
