<?xml version="1.0" encoding="UTF-8"?>
<svg xmlns="http://www.w3.org/2000/svg" version="1.1" width="300" height="300" viewBox="0 0 300 300"><rect x="0" y="0" width="300" height="300" fill="#fefefe"/><g transform="scale(4.615)"><g transform="translate(4,4)"><path fill-rule="evenodd" d="M8 0L8 1L9 1L9 2L8 2L8 5L9 5L9 6L8 6L8 7L9 7L9 6L10 6L10 7L11 7L11 9L13 9L13 8L12 8L12 7L13 7L13 6L14 6L14 8L15 8L15 6L16 6L16 7L17 7L17 6L18 6L18 7L19 7L19 9L18 9L18 8L17 8L17 9L18 9L18 10L16 10L16 11L14 11L14 10L13 10L13 12L12 12L12 13L11 13L11 15L10 15L10 16L11 16L11 17L9 17L9 16L8 16L8 14L6 14L6 13L7 13L7 12L8 12L8 13L9 13L9 14L10 14L10 12L11 12L11 11L10 11L10 12L8 12L8 11L9 11L9 10L8 10L8 9L9 9L9 8L8 8L8 9L7 9L7 8L6 8L6 9L7 9L7 10L5 10L5 14L2 14L2 13L3 13L3 12L4 12L4 11L3 11L3 12L2 12L2 13L1 13L1 15L0 15L0 16L1 16L1 17L2 17L2 16L3 16L3 15L5 15L5 18L4 18L4 17L3 17L3 18L4 18L4 19L3 19L3 20L2 20L2 22L3 22L3 20L4 20L4 19L5 19L5 20L6 20L6 21L7 21L7 20L6 20L6 19L7 19L7 18L6 18L6 17L7 17L7 16L8 16L8 17L9 17L9 18L10 18L10 19L9 19L9 20L8 20L8 21L9 21L9 20L10 20L10 19L12 19L12 18L11 18L11 17L12 17L12 16L13 16L13 18L14 18L14 17L15 17L15 19L13 19L13 23L11 23L11 22L12 22L12 20L11 20L11 22L9 22L9 23L11 23L11 24L8 24L8 25L7 25L7 24L5 24L5 23L8 23L8 22L5 22L5 21L4 21L4 22L5 22L5 23L1 23L1 22L0 22L0 26L3 26L3 27L2 27L2 29L0 29L0 32L4 32L4 33L1 33L1 34L0 34L0 35L1 35L1 36L0 36L0 39L1 39L1 36L2 36L2 37L3 37L3 36L2 36L2 35L1 35L1 34L5 34L5 35L4 35L4 38L6 38L6 39L3 39L3 38L2 38L2 41L0 41L0 45L2 45L2 47L1 47L1 46L0 46L0 48L5 48L5 47L7 47L7 48L6 48L6 49L8 49L8 50L9 50L9 49L8 49L8 46L6 46L6 45L7 45L7 44L9 44L9 46L10 46L10 47L11 47L11 48L10 48L10 49L11 49L11 50L14 50L14 51L15 51L15 52L17 52L17 51L18 51L18 52L19 52L19 53L18 53L18 54L19 54L19 55L20 55L20 56L21 56L21 57L23 57L23 54L25 54L25 55L24 55L24 56L26 56L26 54L25 54L25 53L29 53L29 54L31 54L31 55L30 55L30 56L31 56L31 57L32 57L32 55L34 55L34 56L33 56L33 57L36 57L36 55L38 55L38 57L41 57L41 56L42 56L42 57L43 57L43 56L46 56L46 57L48 57L48 56L46 56L46 54L47 54L47 55L49 55L49 57L51 57L51 54L52 54L52 53L54 53L54 52L55 52L55 54L56 54L56 53L57 53L57 51L56 51L56 52L55 52L55 50L57 50L57 48L56 48L56 49L55 49L55 48L54 48L54 47L53 47L53 46L55 46L55 47L57 47L57 45L56 45L56 46L55 46L55 44L53 44L53 46L52 46L52 47L51 47L51 46L49 46L49 47L48 47L48 46L46 46L46 47L45 47L45 46L43 46L43 45L42 45L42 43L43 43L43 42L47 42L47 43L44 43L44 44L47 44L47 43L48 43L48 45L52 45L52 43L53 43L53 42L54 42L54 43L56 43L56 44L57 44L57 43L56 43L56 42L54 42L54 41L55 41L55 39L53 39L53 38L52 38L52 37L48 37L48 38L46 38L46 37L45 37L45 39L44 39L44 38L42 38L42 37L44 37L44 36L46 36L46 35L48 35L48 36L51 36L51 35L52 35L52 36L53 36L53 37L55 37L55 38L56 38L56 39L57 39L57 38L56 38L56 36L57 36L57 34L56 34L56 33L57 33L57 31L56 31L56 30L57 30L57 29L56 29L56 30L55 30L55 28L56 28L56 24L54 24L54 23L57 23L57 20L54 20L54 21L53 21L53 20L50 20L50 19L49 19L49 18L48 18L48 14L47 14L47 15L46 15L46 16L47 16L47 17L45 17L45 16L44 16L44 15L43 15L43 14L46 14L46 13L44 13L44 12L43 12L43 11L42 11L42 12L43 12L43 14L42 14L42 17L41 17L41 18L39 18L39 19L40 19L40 20L39 20L39 22L38 22L38 21L36 21L36 20L38 20L38 19L36 19L36 20L35 20L35 19L34 19L34 18L35 18L35 17L34 17L34 16L35 16L35 15L39 15L39 17L40 17L40 16L41 16L41 15L40 15L40 14L39 14L39 10L40 10L40 11L41 11L41 10L44 10L44 9L43 9L43 6L42 6L42 5L41 5L41 4L43 4L43 5L45 5L45 6L44 6L44 7L45 7L45 9L47 9L47 10L45 10L45 11L47 11L47 12L49 12L49 16L50 16L50 17L51 17L51 19L56 19L56 17L57 17L57 15L55 15L55 13L54 13L54 10L53 10L53 13L52 13L52 12L51 12L51 11L52 11L52 9L55 9L55 8L52 8L52 9L51 9L51 11L47 11L47 10L50 10L50 8L48 8L48 9L47 9L47 8L46 8L46 7L47 7L47 5L48 5L48 0L46 0L46 1L44 1L44 2L42 2L42 3L41 3L41 4L39 4L39 2L37 2L37 1L38 1L38 0L37 0L37 1L36 1L36 0L35 0L35 1L34 1L34 2L31 2L31 4L30 4L30 1L31 1L31 0L29 0L29 2L28 2L28 3L29 3L29 4L26 4L26 0L23 0L23 1L25 1L25 2L24 2L24 3L23 3L23 2L22 2L22 3L23 3L23 4L22 4L22 5L20 5L20 4L19 4L19 3L20 3L20 0L17 0L17 5L15 5L15 4L14 4L14 3L13 3L13 4L14 4L14 5L12 5L12 2L11 2L11 5L10 5L10 4L9 4L9 3L10 3L10 0ZM11 0L11 1L14 1L14 0ZM21 0L21 1L22 1L22 0ZM32 0L32 1L33 1L33 0ZM39 0L39 1L40 1L40 2L41 2L41 1L43 1L43 0L41 0L41 1L40 1L40 0ZM18 1L18 3L19 3L19 1ZM35 1L35 2L36 2L36 1ZM46 1L46 2L45 2L45 3L44 3L44 4L45 4L45 5L47 5L47 3L46 3L46 2L47 2L47 1ZM32 3L32 4L31 4L31 5L32 5L32 6L31 6L31 9L32 9L32 10L30 10L30 11L29 11L29 10L26 10L26 11L25 11L25 12L24 12L24 14L23 14L23 13L22 13L22 12L23 12L23 11L24 11L24 10L23 10L23 9L26 9L26 6L25 6L25 5L26 5L26 4L24 4L24 6L23 6L23 7L24 7L24 8L23 8L23 9L22 9L22 10L23 10L23 11L19 11L19 10L18 10L18 12L17 12L17 13L16 13L16 12L15 12L15 15L16 15L16 16L15 16L15 17L18 17L18 18L17 18L17 19L19 19L19 20L18 20L18 21L17 21L17 23L16 23L16 19L15 19L15 20L14 20L14 24L13 24L13 25L15 25L15 23L16 23L16 26L14 26L14 27L15 27L15 28L13 28L13 27L12 27L12 29L11 29L11 30L9 30L9 31L5 31L5 34L7 34L7 35L5 35L5 37L6 37L6 38L8 38L8 37L10 37L10 38L9 38L9 42L10 42L10 41L12 41L12 43L10 43L10 44L11 44L11 45L10 45L10 46L12 46L12 48L13 48L13 49L14 49L14 50L15 50L15 49L16 49L16 51L17 51L17 49L16 49L16 48L13 48L13 47L17 47L17 48L19 48L19 49L18 49L18 51L21 51L21 52L22 52L22 53L23 53L23 52L24 52L24 53L25 53L25 52L26 52L26 50L25 50L25 47L26 47L26 48L27 48L27 47L28 47L28 46L29 46L29 47L30 47L30 48L32 48L32 49L31 49L31 50L33 50L33 48L37 48L37 49L36 49L36 50L37 50L37 49L38 49L38 48L39 48L39 49L40 49L40 50L39 50L39 51L36 51L36 52L35 52L35 51L33 51L33 53L36 53L36 54L34 54L34 55L36 55L36 54L37 54L37 52L38 52L38 54L39 54L39 52L40 52L40 54L41 54L41 55L39 55L39 56L41 56L41 55L42 55L42 54L43 54L43 52L42 52L42 51L43 51L43 50L44 50L44 49L45 49L45 48L44 48L44 49L43 49L43 47L39 47L39 46L41 46L41 45L38 45L38 44L39 44L39 43L41 43L41 41L42 41L42 42L43 42L43 41L42 41L42 39L39 39L39 40L40 40L40 42L39 42L39 41L37 41L37 40L38 40L38 39L37 39L37 37L39 37L39 36L40 36L40 37L41 37L41 36L43 36L43 35L44 35L44 34L43 34L43 35L42 35L42 34L41 34L41 35L37 35L37 37L35 37L35 36L36 36L36 35L33 35L33 34L35 34L35 32L33 32L33 31L31 31L31 33L32 33L32 34L30 34L30 35L29 35L29 33L30 33L30 31L26 31L26 32L25 32L25 31L23 31L23 30L21 30L21 29L23 29L23 28L24 28L24 30L26 30L26 28L25 28L25 25L28 25L28 26L31 26L31 25L29 25L29 24L30 24L30 22L29 22L29 21L27 21L27 20L26 20L26 21L27 21L27 22L25 22L25 19L28 19L28 20L29 20L29 19L28 19L28 18L29 18L29 17L30 17L30 21L31 21L31 23L32 23L32 22L34 22L34 23L33 23L33 24L32 24L32 25L33 25L33 24L35 24L35 23L36 23L36 24L37 24L37 22L35 22L35 20L34 20L34 19L33 19L33 17L32 17L32 20L31 20L31 16L29 16L29 15L28 15L28 16L29 16L29 17L27 17L27 18L25 18L25 17L24 17L24 18L23 18L23 15L24 15L24 16L25 16L25 15L26 15L26 16L27 16L27 13L26 13L26 12L28 12L28 13L30 13L30 14L31 14L31 15L32 15L32 14L33 14L33 15L35 15L35 14L37 14L37 13L35 13L35 12L34 12L34 14L33 14L33 10L34 10L34 11L35 11L35 10L36 10L36 12L38 12L38 10L39 10L39 9L38 9L38 10L37 10L37 8L39 8L39 7L40 7L40 8L41 8L41 9L42 9L42 8L41 8L41 7L42 7L42 6L41 6L41 7L40 7L40 5L38 5L38 6L37 6L37 5L36 5L36 4L34 4L34 5L33 5L33 3ZM37 3L37 4L38 4L38 3ZM27 5L27 8L30 8L30 5ZM11 6L11 7L12 7L12 6ZM19 6L19 7L20 7L20 10L21 10L21 7L22 7L22 6L21 6L21 7L20 7L20 6ZM24 6L24 7L25 7L25 6ZM28 6L28 7L29 7L29 6ZM32 6L32 8L33 8L33 6ZM34 6L34 9L36 9L36 8L37 8L37 6L36 6L36 7L35 7L35 6ZM38 6L38 7L39 7L39 6ZM45 6L45 7L46 7L46 6ZM48 6L48 7L49 7L49 6ZM0 8L0 10L1 10L1 9L2 9L2 10L4 10L4 8ZM56 8L56 9L57 9L57 8ZM7 10L7 11L6 11L6 12L7 12L7 11L8 11L8 10ZM55 10L55 11L57 11L57 10ZM0 11L0 12L1 12L1 11ZM30 11L30 12L31 12L31 14L32 14L32 12L31 12L31 11ZM18 12L18 13L19 13L19 14L18 14L18 16L19 16L19 14L21 14L21 12L20 12L20 13L19 13L19 12ZM50 12L50 13L51 13L51 15L50 15L50 16L52 16L52 17L53 17L53 18L54 18L54 17L55 17L55 16L53 16L53 14L52 14L52 13L51 13L51 12ZM12 13L12 14L13 14L13 15L14 15L14 13ZM25 13L25 14L26 14L26 13ZM16 14L16 15L17 15L17 14ZM6 15L6 16L7 16L7 15ZM20 15L20 16L21 16L21 15ZM21 17L21 18L19 18L19 19L20 19L20 20L22 20L22 22L19 22L19 21L18 21L18 22L19 22L19 24L17 24L17 25L20 25L20 26L22 26L22 27L24 27L24 26L23 26L23 25L22 25L22 24L24 24L24 25L25 25L25 22L24 22L24 21L23 21L23 19L21 19L21 18L22 18L22 17ZM36 17L36 18L37 18L37 17ZM42 17L42 18L41 18L41 21L44 21L44 22L45 22L45 23L43 23L43 22L41 22L41 23L40 23L40 24L39 24L39 23L38 23L38 24L39 24L39 25L40 25L40 26L38 26L38 27L41 27L41 24L42 24L42 23L43 23L43 24L44 24L44 25L45 25L45 24L47 24L47 25L46 25L46 26L49 26L49 24L47 24L47 23L48 23L48 22L47 22L47 21L49 21L49 23L51 23L51 25L52 25L52 26L53 26L53 27L55 27L55 25L54 25L54 24L53 24L53 23L54 23L54 22L56 22L56 21L54 21L54 22L53 22L53 23L52 23L52 22L51 22L51 21L50 21L50 20L49 20L49 19L48 19L48 18L46 18L46 19L44 19L44 18L45 18L45 17ZM1 18L1 19L0 19L0 21L1 21L1 19L2 19L2 18ZM5 18L5 19L6 19L6 18ZM24 18L24 19L25 19L25 18ZM42 18L42 19L43 19L43 18ZM33 20L33 21L34 21L34 20ZM27 22L27 23L26 23L26 24L29 24L29 22ZM46 22L46 23L47 23L47 22ZM20 23L20 24L21 24L21 23ZM1 24L1 25L2 25L2 24ZM3 25L3 26L4 26L4 25ZM5 25L5 26L7 26L7 25ZM8 25L8 26L9 26L9 25ZM10 25L10 26L12 26L12 25ZM34 25L34 27L35 27L35 28L34 28L34 29L36 29L36 30L35 30L35 31L37 31L37 32L36 32L36 33L37 33L37 32L38 32L38 34L39 34L39 31L38 31L38 30L41 30L41 31L40 31L40 32L41 32L41 31L44 31L44 33L45 33L45 35L46 35L46 34L48 34L48 35L49 35L49 34L50 34L50 33L49 33L49 32L48 32L48 29L47 29L47 31L45 31L45 30L46 30L46 27L45 27L45 29L44 29L44 28L43 28L43 27L44 27L44 26L43 26L43 25L42 25L42 26L43 26L43 27L42 27L42 28L43 28L43 29L42 29L42 30L41 30L41 28L40 28L40 29L38 29L38 30L37 30L37 27L35 27L35 25ZM16 26L16 27L19 27L19 28L18 28L18 29L21 29L21 28L20 28L20 27L19 27L19 26ZM0 27L0 28L1 28L1 27ZM3 27L3 29L4 29L4 27ZM5 27L5 30L8 30L8 27ZM10 27L10 28L9 28L9 29L10 29L10 28L11 28L11 27ZM27 27L27 30L30 30L30 27ZM31 27L31 28L33 28L33 27ZM47 27L47 28L48 28L48 27ZM49 27L49 30L52 30L52 27ZM6 28L6 29L7 29L7 28ZM15 28L15 29L12 29L12 30L11 30L11 32L10 32L10 33L11 33L11 34L9 34L9 33L8 33L8 35L7 35L7 36L6 36L6 37L7 37L7 36L10 36L10 37L11 37L11 36L12 36L12 38L13 38L13 37L14 37L14 39L11 39L11 40L16 40L16 39L17 39L17 40L19 40L19 41L14 41L14 42L13 42L13 43L12 43L12 45L14 45L14 46L15 46L15 45L16 45L16 44L17 44L17 42L18 42L18 43L19 43L19 44L20 44L20 45L21 45L21 46L22 46L22 47L21 47L21 48L23 48L23 49L22 49L22 50L23 50L23 49L24 49L24 47L23 47L23 46L22 46L22 44L23 44L23 45L24 45L24 46L25 46L25 45L26 45L26 46L28 46L28 44L29 44L29 43L32 43L32 42L33 42L33 45L32 45L32 46L31 46L31 47L32 47L32 46L33 46L33 45L34 45L34 44L35 44L35 45L36 45L36 46L34 46L34 47L36 47L36 46L37 46L37 47L38 47L38 45L36 45L36 44L35 44L35 43L34 43L34 42L36 42L36 41L34 41L34 40L35 40L35 39L36 39L36 38L34 38L34 37L33 37L33 38L32 38L32 36L33 36L33 35L32 35L32 36L29 36L29 35L28 35L28 34L27 34L27 35L26 35L26 36L23 36L23 35L24 35L24 34L25 34L25 32L24 32L24 33L23 33L23 31L22 31L22 32L21 32L21 31L20 31L20 30L18 30L18 31L17 31L17 28ZM28 28L28 29L29 29L29 28ZM50 28L50 29L51 29L51 28ZM53 28L53 30L54 30L54 28ZM15 29L15 30L16 30L16 29ZM31 29L31 30L33 30L33 29ZM2 30L2 31L3 31L3 30ZM12 31L12 32L11 32L11 33L12 33L12 32L13 32L13 31ZM14 31L14 33L13 33L13 34L14 34L14 35L13 35L13 36L14 36L14 37L15 37L15 38L17 38L17 39L19 39L19 37L20 37L20 38L21 38L21 39L22 39L22 41L19 41L19 43L21 43L21 44L22 44L22 41L23 41L23 40L24 40L24 39L25 39L25 41L24 41L24 42L23 42L23 44L25 44L25 43L26 43L26 45L27 45L27 44L28 44L28 43L29 43L29 42L25 42L25 41L26 41L26 40L27 40L27 41L28 41L28 40L33 40L33 39L32 39L32 38L30 38L30 39L28 39L28 40L27 40L27 39L25 39L25 38L26 38L26 37L24 37L24 39L22 39L22 38L23 38L23 36L22 36L22 35L23 35L23 33L22 33L22 35L21 35L21 33L20 33L20 31L19 31L19 32L18 32L18 33L15 33L15 32L16 32L16 31ZM50 31L50 32L52 32L52 34L54 34L54 33L55 33L55 31L53 31L53 32L52 32L52 31ZM6 32L6 33L7 33L7 32ZM27 32L27 33L28 33L28 32ZM42 32L42 33L43 33L43 32ZM45 32L45 33L46 33L46 32ZM53 32L53 33L54 33L54 32ZM14 33L14 34L15 34L15 33ZM19 33L19 34L16 34L16 35L18 35L18 36L17 36L17 37L19 37L19 36L21 36L21 35L19 35L19 34L20 34L20 33ZM10 35L10 36L11 36L11 35ZM14 35L14 36L15 36L15 35ZM54 35L54 36L56 36L56 35ZM27 36L27 38L29 38L29 36ZM21 37L21 38L22 38L22 37ZM48 38L48 39L47 39L47 40L49 40L49 38ZM50 38L50 39L51 39L51 40L50 40L50 41L47 41L47 42L50 42L50 43L49 43L49 44L51 44L51 42L50 42L50 41L52 41L52 40L53 40L53 39L51 39L51 38ZM6 39L6 40L7 40L7 39ZM43 39L43 40L44 40L44 39ZM45 40L45 41L46 41L46 40ZM56 40L56 41L57 41L57 40ZM2 41L2 43L3 43L3 42L5 42L5 41ZM6 41L6 42L7 42L7 43L6 43L6 44L7 44L7 43L8 43L8 41ZM30 41L30 42L31 42L31 41ZM37 42L37 44L38 44L38 43L39 43L39 42ZM14 43L14 45L15 45L15 44L16 44L16 43ZM30 44L30 45L31 45L31 44ZM4 45L4 46L3 46L3 47L5 47L5 45ZM17 45L17 47L20 47L20 46L19 46L19 45ZM49 47L49 48L50 48L50 47ZM52 47L52 48L53 48L53 50L55 50L55 49L54 49L54 48L53 48L53 47ZM41 48L41 49L42 49L42 48ZM46 48L46 50L47 50L47 52L48 52L48 48ZM19 49L19 50L21 50L21 49ZM27 49L27 52L30 52L30 49ZM34 49L34 50L35 50L35 49ZM49 49L49 52L52 52L52 49ZM24 50L24 51L25 51L25 50ZM28 50L28 51L29 51L29 50ZM50 50L50 51L51 51L51 50ZM9 51L9 53L8 53L8 57L10 57L10 56L11 56L11 57L18 57L18 55L17 55L17 54L16 54L16 53L15 53L15 54L14 54L14 55L15 55L15 56L13 56L13 55L12 55L12 54L11 54L11 53L10 53L10 52L11 52L11 51ZM12 51L12 53L14 53L14 52L13 52L13 51ZM31 51L31 53L32 53L32 51ZM40 51L40 52L41 52L41 51ZM45 52L45 53L46 53L46 52ZM20 53L20 55L21 55L21 56L22 56L22 54L21 54L21 53ZM41 53L41 54L42 54L42 53ZM47 53L47 54L50 54L50 53ZM10 54L10 55L9 55L9 56L10 56L10 55L11 55L11 56L12 56L12 55L11 55L11 54ZM44 54L44 55L45 55L45 54ZM53 54L53 56L52 56L52 57L55 57L55 56L54 56L54 54ZM27 55L27 56L28 56L28 55ZM56 55L56 56L57 56L57 55ZM0 0L0 7L7 7L7 0ZM1 1L1 6L6 6L6 1ZM2 2L2 5L5 5L5 2ZM50 0L50 7L57 7L57 0ZM51 1L51 6L56 6L56 1ZM52 2L52 5L55 5L55 2ZM0 50L0 57L7 57L7 50ZM1 51L1 56L6 56L6 51ZM2 52L2 55L5 55L5 52Z" fill="#000000"/></g></g></svg>
