<?xml version="1.0" encoding="UTF-8"?>
<svg xmlns="http://www.w3.org/2000/svg" version="1.1" width="300" height="300" viewBox="0 0 300 300"><rect x="0" y="0" width="300" height="300" fill="#fefefe"/><g transform="scale(4.615)"><g transform="translate(4,4)"><path fill-rule="evenodd" d="M8 0L8 1L10 1L10 2L8 2L8 5L9 5L9 6L8 6L8 7L9 7L9 6L10 6L10 7L11 7L11 8L13 8L13 6L14 6L14 8L15 8L15 6L16 6L16 7L17 7L17 5L15 5L15 4L14 4L14 3L13 3L13 1L14 1L14 0L12 0L12 1L10 1L10 0ZM17 0L17 1L16 1L16 3L17 3L17 2L18 2L18 7L19 7L19 8L20 8L20 7L21 7L21 9L23 9L23 10L20 10L20 9L19 9L19 10L20 10L20 12L18 12L18 10L17 10L17 12L16 12L16 13L17 13L17 12L18 12L18 13L19 13L19 14L20 14L20 15L21 15L21 13L20 13L20 12L21 12L21 11L23 11L23 12L22 12L22 13L25 13L25 14L24 14L24 15L23 15L23 18L24 18L24 19L25 19L25 22L24 22L24 21L23 21L23 19L22 19L22 17L21 17L21 16L20 16L20 17L21 17L21 18L20 18L20 19L19 19L19 17L17 17L17 16L16 16L16 15L17 15L17 14L16 14L16 15L15 15L15 11L14 11L14 10L13 10L13 9L12 9L12 11L11 11L11 10L6 10L6 11L8 11L8 12L6 12L6 13L5 13L5 9L4 9L4 8L0 8L0 12L1 12L1 14L2 14L2 15L1 15L1 16L0 16L0 17L1 17L1 16L3 16L3 15L4 15L4 13L5 13L5 14L6 14L6 15L7 15L7 14L8 14L8 13L10 13L10 12L13 12L13 13L14 13L14 15L13 15L13 14L11 14L11 15L13 15L13 16L10 16L10 14L9 14L9 15L8 15L8 17L7 17L7 16L4 16L4 20L3 20L3 19L2 19L2 18L3 18L3 17L2 17L2 18L1 18L1 19L2 19L2 21L1 21L1 20L0 20L0 23L1 23L1 24L2 24L2 26L3 26L3 28L4 28L4 30L2 30L2 28L1 28L1 27L0 27L0 29L1 29L1 30L0 30L0 32L2 32L2 31L4 31L4 32L5 32L5 31L8 31L8 33L7 33L7 32L6 32L6 33L7 33L7 34L5 34L5 33L1 33L1 34L0 34L0 37L1 37L1 40L4 40L4 39L5 39L5 38L6 38L6 39L7 39L7 40L5 40L5 41L4 41L4 42L3 42L3 41L2 41L2 43L3 43L3 44L2 44L2 45L3 45L3 46L2 46L2 47L1 47L1 46L0 46L0 48L5 48L5 47L8 47L8 45L9 45L9 48L10 48L10 50L9 50L9 49L8 49L8 48L6 48L6 49L8 49L8 50L9 50L9 51L10 51L10 52L9 52L9 53L8 53L8 57L9 57L9 55L11 55L11 56L10 56L10 57L13 57L13 56L14 56L14 55L15 55L15 56L16 56L16 57L18 57L18 56L17 56L17 54L18 54L18 53L17 53L17 54L16 54L16 53L15 53L15 54L14 54L14 55L11 55L11 53L12 53L12 52L13 52L13 53L14 53L14 52L15 52L15 51L16 51L16 48L17 48L17 49L20 49L20 50L21 50L21 48L23 48L23 49L22 49L22 52L21 52L21 51L18 51L18 50L17 50L17 51L18 51L18 52L19 52L19 55L20 55L20 56L19 56L19 57L20 57L20 56L21 56L21 57L23 57L23 54L25 54L25 55L24 55L24 56L28 56L28 55L27 55L27 53L29 53L29 54L31 54L31 55L30 55L30 56L31 56L31 57L32 57L32 55L34 55L34 56L33 56L33 57L36 57L36 55L37 55L37 54L36 54L36 53L33 53L33 50L34 50L34 49L35 49L35 52L36 52L36 51L37 51L37 52L38 52L38 53L39 53L39 54L38 54L38 57L43 57L43 55L44 55L44 56L45 56L45 55L46 55L46 56L47 56L47 55L48 55L48 57L51 57L51 54L52 54L52 53L53 53L53 56L52 56L52 57L55 57L55 56L54 56L54 52L55 52L55 51L56 51L56 52L57 52L57 51L56 51L56 49L57 49L57 48L56 48L56 49L55 49L55 48L54 48L54 47L57 47L57 44L53 44L53 45L54 45L54 46L52 46L52 47L51 47L51 46L49 46L49 45L52 45L52 43L53 43L53 42L54 42L54 43L56 43L56 42L57 42L57 40L56 40L56 41L55 41L55 38L56 38L56 39L57 39L57 38L56 38L56 37L55 37L55 36L56 36L56 35L57 35L57 31L56 31L56 30L57 30L57 27L56 27L56 24L55 24L55 27L53 27L53 26L51 26L51 24L49 24L49 21L48 21L48 20L47 20L47 22L44 22L44 21L43 21L43 20L42 20L42 19L43 19L43 18L42 18L42 17L45 17L45 18L44 18L44 19L45 19L45 21L46 21L46 19L48 19L48 14L47 14L47 17L45 17L45 16L46 16L46 15L45 15L45 14L46 14L46 13L44 13L44 11L42 11L42 10L44 10L44 9L43 9L43 8L44 8L44 7L45 7L45 6L44 6L44 7L43 7L43 5L46 5L46 8L45 8L45 9L47 9L47 10L45 10L45 11L47 11L47 12L48 12L48 11L47 11L47 10L49 10L49 15L50 15L50 16L51 16L51 17L52 17L52 16L55 16L55 17L54 17L54 18L52 18L52 19L55 19L55 20L54 20L54 21L53 21L53 20L50 20L50 18L49 18L49 20L50 20L50 21L51 21L51 22L52 22L52 23L53 23L53 24L54 24L54 23L53 23L53 22L54 22L54 21L56 21L56 22L55 22L55 23L57 23L57 19L56 19L56 17L57 17L57 15L51 15L51 13L52 13L52 14L53 14L53 13L54 13L54 10L53 10L53 13L52 13L52 12L51 12L51 11L52 11L52 10L50 10L50 8L47 8L47 5L48 5L48 0L45 0L45 1L44 1L44 2L41 2L41 1L43 1L43 0L41 0L41 1L40 1L40 0L39 0L39 1L40 1L40 2L41 2L41 4L39 4L39 2L37 2L37 1L38 1L38 0L37 0L37 1L36 1L36 0L35 0L35 1L34 1L34 2L33 2L33 1L31 1L31 0L29 0L29 1L31 1L31 3L30 3L30 2L29 2L29 3L30 3L30 4L28 4L28 2L27 2L27 4L26 4L26 0L23 0L23 1L25 1L25 2L24 2L24 3L23 3L23 5L20 5L20 4L19 4L19 3L21 3L21 2L22 2L22 0L21 0L21 2L20 2L20 1L19 1L19 2L18 2L18 0ZM35 1L35 2L34 2L34 3L32 3L32 4L31 4L31 5L32 5L32 6L31 6L31 9L32 9L32 10L29 10L29 9L27 9L27 10L26 10L26 11L25 11L25 13L26 13L26 12L28 12L28 13L30 13L30 14L31 14L31 16L29 16L29 15L28 15L28 16L29 16L29 17L27 17L27 14L25 14L25 15L26 15L26 16L25 16L25 17L24 17L24 18L25 18L25 17L27 17L27 18L26 18L26 19L28 19L28 20L29 20L29 21L30 21L30 20L31 20L31 22L30 22L30 24L29 24L29 22L28 22L28 21L27 21L27 20L26 20L26 21L27 21L27 22L25 22L25 25L24 25L24 24L23 24L23 23L22 23L22 22L21 22L21 20L22 20L22 19L21 19L21 20L18 20L18 21L17 21L17 23L16 23L16 19L18 19L18 18L16 18L16 19L15 19L15 18L13 18L13 17L12 17L12 18L11 18L11 17L8 17L8 18L7 18L7 17L5 17L5 18L7 18L7 19L5 19L5 20L7 20L7 19L9 19L9 20L8 20L8 21L6 21L6 22L5 22L5 21L4 21L4 22L3 22L3 21L2 21L2 22L1 22L1 23L2 23L2 22L3 22L3 24L4 24L4 25L3 25L3 26L4 26L4 25L6 25L6 26L8 26L8 25L9 25L9 27L10 27L10 28L12 28L12 25L15 25L15 24L12 24L12 22L13 22L13 23L14 23L14 22L15 22L15 23L16 23L16 24L17 24L17 23L18 23L18 24L19 24L19 25L16 25L16 26L15 26L15 28L14 28L14 30L16 30L16 32L15 32L15 33L12 33L12 34L11 34L11 33L10 33L10 34L7 34L7 35L5 35L5 34L1 34L1 36L2 36L2 35L3 35L3 37L5 37L5 36L7 36L7 37L6 37L6 38L7 38L7 39L8 39L8 40L7 40L7 41L6 41L6 42L7 42L7 41L8 41L8 40L10 40L10 44L11 44L11 45L10 45L10 48L13 48L13 47L14 47L14 48L16 48L16 47L17 47L17 48L21 48L21 47L22 47L22 46L23 46L23 44L24 44L24 45L25 45L25 46L24 46L24 47L23 47L23 48L24 48L24 49L23 49L23 52L22 52L22 53L23 53L23 52L24 52L24 53L25 53L25 54L26 54L26 53L25 53L25 52L26 52L26 51L24 51L24 50L25 50L25 47L26 47L26 48L28 48L28 47L27 47L27 46L29 46L29 47L30 47L30 48L32 48L32 49L31 49L31 50L32 50L32 49L34 49L34 46L35 46L35 44L34 44L34 45L33 45L33 42L32 42L32 45L33 45L33 48L32 48L32 47L31 47L31 45L30 45L30 44L29 44L29 45L27 45L27 44L28 44L28 43L29 43L29 42L25 42L25 41L26 41L26 40L27 40L27 39L26 39L26 38L29 38L29 36L32 36L32 38L30 38L30 39L28 39L28 41L30 41L30 42L31 42L31 40L33 40L33 39L32 39L32 38L33 38L33 37L34 37L34 38L36 38L36 39L35 39L35 40L34 40L34 41L36 41L36 42L34 42L34 43L36 43L36 46L37 46L37 45L38 45L38 47L35 47L35 48L37 48L37 49L36 49L36 50L37 50L37 49L38 49L38 48L39 48L39 49L40 49L40 50L39 50L39 52L40 52L40 54L41 54L41 55L39 55L39 56L42 56L42 54L43 54L43 53L42 53L42 54L41 54L41 52L42 52L42 51L43 51L43 50L44 50L44 49L45 49L45 48L44 48L44 49L43 49L43 47L39 47L39 45L38 45L38 44L40 44L40 43L42 43L42 45L44 45L44 47L46 47L46 46L47 46L47 47L49 47L49 48L51 48L51 47L49 47L49 46L48 46L48 44L43 44L43 43L44 43L44 42L45 42L45 43L46 43L46 42L45 42L45 41L43 41L43 39L42 39L42 42L41 42L41 39L39 39L39 40L40 40L40 42L39 42L39 41L37 41L37 40L38 40L38 39L37 39L37 37L39 37L39 36L40 36L40 37L41 37L41 36L43 36L43 35L44 35L44 34L43 34L43 35L42 35L42 34L41 34L41 35L37 35L37 37L35 37L35 36L36 36L36 35L34 35L34 36L32 36L32 34L30 34L30 35L29 35L29 33L30 33L30 32L29 32L29 31L28 31L28 33L27 33L27 31L23 31L23 30L21 30L21 29L24 29L24 30L26 30L26 28L23 28L23 27L22 27L22 25L23 25L23 26L24 26L24 27L25 27L25 25L27 25L27 24L26 24L26 23L27 23L27 22L28 22L28 25L29 25L29 26L31 26L31 23L32 23L32 22L33 22L33 24L32 24L32 25L33 25L33 24L35 24L35 23L36 23L36 24L37 24L37 23L38 23L38 24L39 24L39 26L38 26L38 27L39 27L39 28L40 28L40 29L38 29L38 30L36 30L36 29L37 29L37 28L34 28L34 29L35 29L35 30L36 30L36 31L37 31L37 32L36 32L36 33L37 33L37 32L38 32L38 34L39 34L39 31L38 31L38 30L41 30L41 31L40 31L40 32L41 32L41 31L43 31L43 29L42 29L42 30L41 30L41 27L42 27L42 28L44 28L44 27L42 27L42 26L43 26L43 24L44 24L44 25L46 25L46 26L49 26L49 25L48 25L48 23L43 23L43 22L41 22L41 23L38 23L38 22L39 22L39 21L38 21L38 22L35 22L35 21L34 21L34 19L35 19L35 20L36 20L36 21L37 21L37 20L40 20L40 19L39 19L39 18L41 18L41 19L42 19L42 18L41 18L41 17L42 17L42 14L43 14L43 15L44 15L44 16L45 16L45 15L44 15L44 13L43 13L43 12L42 12L42 11L40 11L40 10L41 10L41 9L42 9L42 8L41 8L41 7L42 7L42 6L41 6L41 7L40 7L40 5L36 5L36 4L35 4L35 2L36 2L36 1ZM45 1L45 3L44 3L44 4L46 4L46 5L47 5L47 3L46 3L46 2L47 2L47 1ZM10 2L10 4L9 4L9 5L11 5L11 2ZM37 3L37 4L38 4L38 3ZM13 4L13 5L12 5L12 6L11 6L11 7L12 7L12 6L13 6L13 5L14 5L14 4ZM24 4L24 6L23 6L23 7L24 7L24 9L26 9L26 6L25 6L25 5L26 5L26 4ZM33 4L33 6L32 6L32 8L33 8L33 6L34 6L34 9L36 9L36 8L38 8L38 9L37 9L37 10L38 10L38 12L35 12L35 11L36 11L36 10L35 10L35 11L34 11L34 10L33 10L33 13L32 13L32 12L31 12L31 11L30 11L30 12L31 12L31 14L32 14L32 15L33 15L33 16L31 16L31 17L33 17L33 18L35 18L35 17L34 17L34 16L35 16L35 15L36 15L36 13L37 13L37 15L39 15L39 17L40 17L40 16L41 16L41 13L40 13L40 14L39 14L39 10L40 10L40 9L41 9L41 8L38 8L38 7L39 7L39 6L38 6L38 7L37 7L37 6L36 6L36 7L35 7L35 6L34 6L34 4ZM42 4L42 5L43 5L43 4ZM27 5L27 8L30 8L30 5ZM19 6L19 7L20 7L20 6ZM21 6L21 7L22 7L22 6ZM24 6L24 7L25 7L25 6ZM28 6L28 7L29 7L29 6ZM48 6L48 7L49 7L49 6ZM6 8L6 9L7 9L7 8ZM8 8L8 9L9 9L9 8ZM17 8L17 9L18 9L18 8ZM52 8L52 9L55 9L55 8ZM56 8L56 9L57 9L57 8ZM38 9L38 10L39 10L39 9ZM3 10L3 11L4 11L4 10ZM28 10L28 11L29 11L29 10ZM55 10L55 11L57 11L57 10ZM2 12L2 13L3 13L3 12ZM34 12L34 14L33 14L33 15L35 15L35 12ZM50 12L50 13L51 13L51 12ZM6 13L6 14L7 14L7 13ZM14 15L14 16L15 16L15 15ZM29 17L29 18L28 18L28 19L29 19L29 20L30 20L30 17ZM36 17L36 18L37 18L37 17ZM12 18L12 19L13 19L13 22L14 22L14 20L15 20L15 19L13 19L13 18ZM31 18L31 20L32 20L32 18ZM45 18L45 19L46 19L46 18ZM10 19L10 20L9 20L9 21L10 21L10 22L11 22L11 21L12 21L12 20L11 20L11 19ZM36 19L36 20L37 20L37 19ZM41 20L41 21L42 21L42 20ZM18 21L18 23L19 23L19 24L20 24L20 25L19 25L19 26L16 26L16 27L19 27L19 28L18 28L18 29L20 29L20 27L21 27L21 24L20 24L20 23L21 23L21 22L19 22L19 21ZM6 22L6 23L5 23L5 24L6 24L6 25L7 25L7 24L6 24L6 23L7 23L7 22ZM8 22L8 23L9 23L9 22ZM10 23L10 26L11 26L11 25L12 25L12 24L11 24L11 23ZM0 25L0 26L1 26L1 25ZM34 25L34 27L35 27L35 25ZM40 25L40 26L41 26L41 25ZM13 26L13 27L14 27L14 26ZM5 27L5 30L8 30L8 27ZM27 27L27 30L30 30L30 27ZM31 27L31 28L33 28L33 27ZM45 27L45 30L44 30L44 33L45 33L45 34L46 34L46 35L45 35L45 36L44 36L44 37L42 37L42 38L44 38L44 39L45 39L45 36L46 36L46 38L47 38L47 37L49 37L49 39L47 39L47 40L46 40L46 41L47 41L47 42L48 42L48 43L49 43L49 44L51 44L51 42L50 42L50 41L52 41L52 40L53 40L53 39L54 39L54 38L53 38L53 36L52 36L52 35L51 35L51 36L52 36L52 38L51 38L51 37L50 37L50 36L48 36L48 35L49 35L49 34L50 34L50 33L49 33L49 32L48 32L48 28L47 28L47 31L46 31L46 33L45 33L45 30L46 30L46 27ZM49 27L49 30L52 30L52 27ZM6 28L6 29L7 29L7 28ZM15 28L15 29L16 29L16 30L17 30L17 28ZM28 28L28 29L29 29L29 28ZM50 28L50 29L51 29L51 28ZM53 28L53 31L50 31L50 32L52 32L52 34L54 34L54 33L53 33L53 31L54 31L54 32L55 32L55 30L56 30L56 29L54 29L54 28ZM9 29L9 30L10 30L10 31L9 31L9 32L10 32L10 31L11 31L11 32L12 32L12 31L11 31L11 30L13 30L13 29L11 29L11 30L10 30L10 29ZM32 29L32 31L33 31L33 32L31 32L31 33L34 33L34 34L35 34L35 32L34 32L34 31L33 31L33 29ZM1 30L1 31L2 31L2 30ZM18 30L18 32L17 32L17 34L18 34L18 32L20 32L20 33L19 33L19 34L20 34L20 35L19 35L19 36L18 36L18 35L15 35L15 34L13 34L13 35L11 35L11 34L10 34L10 36L9 36L9 37L8 37L8 38L9 38L9 37L10 37L10 36L12 36L12 37L11 37L11 38L10 38L10 39L11 39L11 41L14 41L14 43L15 43L15 44L12 44L12 43L13 43L13 42L11 42L11 44L12 44L12 45L13 45L13 46L14 46L14 45L17 45L17 47L20 47L20 45L17 45L17 43L15 43L15 42L18 42L18 43L19 43L19 44L21 44L21 46L22 46L22 44L23 44L23 43L25 43L25 45L26 45L26 46L27 46L27 45L26 45L26 43L25 43L25 42L23 42L23 41L22 41L22 40L21 40L21 39L22 39L22 37L21 37L21 38L20 38L20 37L19 37L19 36L21 36L21 35L24 35L24 34L25 34L25 32L24 32L24 33L23 33L23 31L22 31L22 32L21 32L21 30L20 30L20 31L19 31L19 30ZM13 31L13 32L14 32L14 31ZM42 32L42 33L43 33L43 32ZM20 33L20 34L21 34L21 33ZM22 33L22 34L23 34L23 33ZM27 34L27 35L26 35L26 37L27 37L27 36L29 36L29 35L28 35L28 34ZM47 34L47 35L48 35L48 34ZM55 34L55 35L54 35L54 36L55 36L55 35L56 35L56 34ZM7 35L7 36L8 36L8 35ZM13 35L13 36L14 36L14 39L15 39L15 38L17 38L17 39L16 39L16 41L19 41L19 43L21 43L21 44L22 44L22 41L19 41L19 40L17 40L17 39L18 39L18 36L15 36L15 35ZM23 36L23 39L24 39L24 41L25 41L25 39L24 39L24 37L25 37L25 36ZM12 37L12 38L11 38L11 39L12 39L12 40L13 40L13 37ZM2 38L2 39L4 39L4 38ZM50 39L50 40L47 40L47 41L50 41L50 40L52 40L52 39ZM14 40L14 41L15 41L15 40ZM54 41L54 42L55 42L55 41ZM0 42L0 43L1 43L1 42ZM4 42L4 46L3 46L3 47L5 47L5 46L7 46L7 45L5 45L5 44L7 44L7 43L5 43L5 42ZM8 42L8 43L9 43L9 42ZM37 42L37 44L38 44L38 43L39 43L39 42ZM42 42L42 43L43 43L43 42ZM49 42L49 43L50 43L50 42ZM29 45L29 46L30 46L30 45ZM55 45L55 46L56 46L56 45ZM11 46L11 47L12 47L12 46ZM15 46L15 47L16 47L16 46ZM41 48L41 49L42 49L42 48ZM47 48L47 49L46 49L46 50L47 50L47 52L48 52L48 48ZM12 49L12 50L10 50L10 51L14 51L14 49ZM27 49L27 52L30 52L30 49ZM49 49L49 52L52 52L52 49ZM53 49L53 50L55 50L55 49ZM28 50L28 51L29 51L29 50ZM50 50L50 51L51 51L51 50ZM31 51L31 53L32 53L32 51ZM40 51L40 52L41 52L41 51ZM45 52L45 53L46 53L46 52ZM9 53L9 54L10 54L10 53ZM20 53L20 55L22 55L22 54L21 54L21 53ZM47 53L47 54L50 54L50 53ZM55 53L55 54L56 54L56 53ZM35 54L35 55L36 55L36 54ZM44 54L44 55L45 55L45 54ZM56 55L56 56L57 56L57 55ZM0 0L0 7L7 7L7 0ZM1 1L1 6L6 6L6 1ZM2 2L2 5L5 5L5 2ZM50 0L50 7L57 7L57 0ZM51 1L51 6L56 6L56 1ZM52 2L52 5L55 5L55 2ZM0 50L0 57L7 57L7 50ZM1 51L1 56L6 56L6 51ZM2 52L2 55L5 55L5 52Z" fill="#000000"/></g></g></svg>
