<?xml version="1.0" encoding="UTF-8"?>
<svg xmlns="http://www.w3.org/2000/svg" version="1.1" width="300" height="300" viewBox="0 0 300 300"><rect x="0" y="0" width="300" height="300" fill="#fefefe"/><g transform="scale(4.615)"><g transform="translate(4,4)"><path fill-rule="evenodd" d="M9 0L9 1L8 1L8 2L9 2L9 1L11 1L11 0ZM14 0L14 2L13 2L13 4L12 4L12 5L11 5L11 4L10 4L10 3L11 3L11 2L10 2L10 3L8 3L8 4L10 4L10 5L8 5L8 7L9 7L9 6L10 6L10 7L11 7L11 6L12 6L12 7L13 7L13 9L12 9L12 8L10 8L10 9L9 9L9 8L6 8L6 9L7 9L7 10L6 10L6 11L7 11L7 12L5 12L5 13L4 13L4 15L2 15L2 12L4 12L4 11L5 11L5 10L4 10L4 9L5 9L5 8L0 8L0 9L1 9L1 10L0 10L0 11L1 11L1 12L0 12L0 15L1 15L1 16L0 16L0 17L1 17L1 18L0 18L0 19L1 19L1 20L2 20L2 21L4 21L4 22L6 22L6 23L5 23L5 24L4 24L4 23L2 23L2 22L0 22L0 23L1 23L1 25L2 25L2 24L4 24L4 25L3 25L3 26L1 26L1 27L2 27L2 28L3 28L3 26L4 26L4 29L3 29L3 30L2 30L2 29L1 29L1 28L0 28L0 30L1 30L1 31L2 31L2 32L3 32L3 33L4 33L4 32L3 32L3 30L4 30L4 31L7 31L7 32L5 32L5 33L8 33L8 34L9 34L9 36L4 36L4 35L5 35L5 34L1 34L1 33L0 33L0 35L1 35L1 36L0 36L0 37L1 37L1 41L2 41L2 42L1 42L1 43L2 43L2 44L3 44L3 45L4 45L4 46L5 46L5 47L3 47L3 46L2 46L2 45L1 45L1 44L0 44L0 48L5 48L5 47L7 47L7 46L8 46L8 48L6 48L6 49L8 49L8 51L9 51L9 52L8 52L8 57L10 57L10 54L11 54L11 55L13 55L13 53L16 53L16 54L15 54L15 55L14 55L14 57L16 57L16 56L17 56L17 57L20 57L20 56L19 56L19 55L20 55L20 54L19 54L19 53L20 53L20 52L21 52L21 53L22 53L22 55L21 55L21 56L24 56L24 57L26 57L26 56L24 56L24 55L23 55L23 54L24 54L24 53L25 53L25 55L26 55L26 53L27 53L27 54L30 54L30 53L31 53L31 51L32 51L32 52L33 52L33 51L35 51L35 52L34 52L34 53L35 53L35 54L36 54L36 56L35 56L35 55L33 55L33 53L32 53L32 54L31 54L31 56L30 56L30 55L29 55L29 56L27 56L27 57L29 57L29 56L30 56L30 57L31 57L31 56L35 56L35 57L39 57L39 56L41 56L41 57L44 57L44 56L42 56L42 55L44 55L44 54L45 54L45 55L46 55L46 56L48 56L48 55L49 55L49 56L50 56L50 57L52 57L52 55L51 55L51 53L52 53L52 54L55 54L55 52L56 52L56 50L55 50L55 48L56 48L56 49L57 49L57 48L56 48L56 46L57 46L57 45L56 45L56 44L55 44L55 43L56 43L56 41L55 41L55 39L57 39L57 37L56 37L56 36L57 36L57 35L56 35L56 34L57 34L57 32L56 32L56 30L57 30L57 29L56 29L56 28L57 28L57 27L56 27L56 26L57 26L57 25L56 25L56 22L57 22L57 19L55 19L55 18L57 18L57 17L56 17L56 16L57 16L57 15L56 15L56 14L57 14L57 12L56 12L56 10L54 10L54 11L52 11L52 10L50 10L50 8L48 8L48 7L49 7L49 6L48 6L48 7L47 7L47 5L48 5L48 0L45 0L45 1L47 1L47 2L44 2L44 3L41 3L41 2L43 2L43 0L41 0L41 1L40 1L40 0L39 0L39 1L38 1L38 0L37 0L37 1L38 1L38 2L37 2L37 3L36 3L36 0L35 0L35 1L33 1L33 2L32 2L32 1L31 1L31 0L29 0L29 1L26 1L26 0L23 0L23 1L22 1L22 0L21 0L21 1L20 1L20 0L19 0L19 1L18 1L18 0L17 0L17 1L18 1L18 2L19 2L19 1L20 1L20 2L21 2L21 3L22 3L22 2L28 2L28 3L29 3L29 1L30 1L30 2L32 2L32 3L31 3L31 4L26 4L26 3L23 3L23 4L19 4L19 3L17 3L17 6L16 6L16 7L15 7L15 6L14 6L14 5L13 5L13 4L14 4L14 2L15 2L15 0ZM33 2L33 3L32 3L32 4L31 4L31 8L32 8L32 10L31 10L31 11L30 11L30 10L29 10L29 12L28 12L28 13L27 13L27 15L26 15L26 12L27 12L27 11L28 11L28 9L27 9L27 11L26 11L26 12L25 12L25 10L23 10L23 13L22 13L22 12L20 12L20 14L17 14L17 13L18 13L18 12L17 12L17 11L18 11L18 10L19 10L19 9L20 9L20 11L22 11L22 10L21 10L21 9L24 9L24 6L23 6L23 5L24 5L24 4L23 4L23 5L21 5L21 7L22 7L22 8L19 8L19 7L20 7L20 5L18 5L18 6L17 6L17 7L16 7L16 8L15 8L15 7L14 7L14 6L13 6L13 5L12 5L12 6L13 6L13 7L14 7L14 9L13 9L13 10L12 10L12 9L10 9L10 10L9 10L9 9L8 9L8 10L9 10L9 12L7 12L7 13L6 13L6 14L5 14L5 15L4 15L4 16L3 16L3 19L2 19L2 18L1 18L1 19L2 19L2 20L4 20L4 19L6 19L6 20L5 20L5 21L6 21L6 22L7 22L7 23L6 23L6 24L7 24L7 25L4 25L4 26L7 26L7 25L8 25L8 26L9 26L9 25L10 25L10 27L9 27L9 31L8 31L8 33L11 33L11 31L13 31L13 32L14 32L14 33L12 33L12 34L10 34L10 38L11 38L11 39L10 39L10 41L8 41L8 39L9 39L9 37L8 37L8 39L4 39L4 38L2 38L2 41L6 41L6 42L3 42L3 43L4 43L4 44L5 44L5 45L6 45L6 46L7 46L7 45L6 45L6 44L9 44L9 45L10 45L10 44L9 44L9 42L10 42L10 41L11 41L11 39L13 39L13 38L15 38L15 39L16 39L16 40L13 40L13 41L12 41L12 42L11 42L11 44L12 44L12 43L14 43L14 44L13 44L13 46L12 46L12 45L11 45L11 46L10 46L10 47L9 47L9 48L8 48L8 49L9 49L9 50L10 50L10 51L12 51L12 52L13 52L13 51L15 51L15 52L16 52L16 53L17 53L17 45L18 45L18 44L16 44L16 43L18 43L18 42L19 42L19 43L20 43L20 44L19 44L19 45L20 45L20 46L21 46L21 45L22 45L22 46L23 46L23 47L18 47L18 48L20 48L20 51L21 51L21 49L23 49L23 48L24 48L24 49L26 49L26 48L28 48L28 47L26 47L26 45L27 45L27 46L30 46L30 45L31 45L31 47L33 47L33 46L35 46L35 48L36 48L36 47L37 47L37 46L36 46L36 45L34 45L34 43L35 43L35 44L36 44L36 43L37 43L37 42L35 42L35 40L38 40L38 42L39 42L39 41L41 41L41 40L43 40L43 41L44 41L44 45L45 45L45 46L44 46L44 47L43 47L43 46L41 46L41 44L42 44L42 42L41 42L41 44L39 44L39 45L38 45L38 46L41 46L41 48L39 48L39 47L38 47L38 48L37 48L37 49L38 49L38 50L36 50L36 49L33 49L33 48L32 48L32 49L31 49L31 50L32 50L32 51L33 51L33 50L36 50L36 52L37 52L37 51L38 51L38 54L40 54L40 53L42 53L42 52L43 52L43 51L42 51L42 50L41 50L41 48L42 48L42 49L43 49L43 50L44 50L44 51L45 51L45 52L44 52L44 53L43 53L43 54L44 54L44 53L45 53L45 54L46 54L46 55L47 55L47 54L48 54L48 50L47 50L47 49L48 49L48 48L50 48L50 47L52 47L52 48L53 48L53 49L54 49L54 48L53 48L53 47L55 47L55 46L56 46L56 45L55 45L55 44L54 44L54 45L52 45L52 44L53 44L53 43L54 43L54 42L53 42L53 41L51 41L51 42L50 42L50 43L47 43L47 45L45 45L45 44L46 44L46 43L45 43L45 42L48 42L48 41L49 41L49 40L50 40L50 39L51 39L51 38L53 38L53 39L55 39L55 38L54 38L54 37L53 37L53 35L55 35L55 34L56 34L56 32L54 32L54 33L52 33L52 32L53 32L53 31L51 31L51 33L52 33L52 34L50 34L50 32L49 32L49 31L48 31L48 30L47 30L47 29L46 29L46 30L47 30L47 31L48 31L48 32L43 32L43 31L44 31L44 29L45 29L45 28L46 28L46 27L48 27L48 26L47 26L47 25L49 25L49 24L50 24L50 26L51 26L51 25L52 25L52 26L53 26L53 27L54 27L54 26L53 26L53 24L54 24L54 25L55 25L55 26L56 26L56 25L55 25L55 24L54 24L54 23L51 23L51 24L50 24L50 22L51 22L51 21L54 21L54 22L56 22L56 20L53 20L53 19L52 19L52 18L51 18L51 17L50 17L50 16L52 16L52 17L53 17L53 18L55 18L55 17L53 17L53 16L52 16L52 15L50 15L50 14L51 14L51 12L50 12L50 10L49 10L49 11L48 11L48 12L45 12L45 11L44 11L44 13L43 13L43 11L42 11L42 10L41 10L41 12L39 12L39 13L38 13L38 14L37 14L37 13L35 13L35 12L36 12L36 10L37 10L37 9L38 9L38 11L39 11L39 9L41 9L41 7L42 7L42 6L41 6L41 5L40 5L40 4L41 4L41 3L37 3L37 4L36 4L36 5L35 5L35 4L33 4L33 3L35 3L35 2ZM44 3L44 6L43 6L43 8L42 8L42 9L43 9L43 8L44 8L44 10L47 10L47 9L48 9L48 8L47 8L47 7L46 7L46 6L45 6L45 4L46 4L46 5L47 5L47 3ZM15 4L15 5L16 5L16 4ZM25 4L25 8L26 8L26 4ZM32 4L32 5L33 5L33 6L32 6L32 7L33 7L33 9L34 9L34 8L35 8L35 9L37 9L37 8L35 8L35 5L33 5L33 4ZM37 4L37 5L36 5L36 7L37 7L37 5L38 5L38 4ZM27 5L27 8L30 8L30 5ZM39 5L39 6L38 6L38 9L39 9L39 6L40 6L40 7L41 7L41 6L40 6L40 5ZM18 6L18 7L19 7L19 6ZM22 6L22 7L23 7L23 6ZM28 6L28 7L29 7L29 6ZM33 6L33 7L34 7L34 6ZM44 6L44 7L45 7L45 6ZM16 8L16 9L15 9L15 10L13 10L13 11L12 11L12 10L11 10L11 11L10 11L10 12L11 12L11 14L12 14L12 13L15 13L15 14L13 14L13 15L12 15L12 16L13 16L13 17L14 17L14 16L15 16L15 17L16 17L16 13L17 13L17 12L16 12L16 11L15 11L15 10L16 10L16 9L17 9L17 10L18 10L18 9L19 9L19 8L18 8L18 9L17 9L17 8ZM45 8L45 9L47 9L47 8ZM51 8L51 9L52 9L52 8ZM53 8L53 9L54 9L54 8ZM55 8L55 9L56 9L56 8ZM2 9L2 10L1 10L1 11L4 11L4 10L3 10L3 9ZM32 10L32 12L31 12L31 13L30 13L30 14L29 14L29 13L28 13L28 14L29 14L29 16L28 16L28 15L27 15L27 16L26 16L26 15L25 15L25 12L24 12L24 13L23 13L23 14L22 14L22 13L21 13L21 15L20 15L20 17L19 17L19 16L17 16L17 18L15 18L15 21L16 21L16 22L15 22L15 23L16 23L16 24L14 24L14 23L13 23L13 24L12 24L12 23L11 23L11 20L12 20L12 18L10 18L10 16L11 16L11 15L10 15L10 16L9 16L9 15L8 15L8 14L9 14L9 13L8 13L8 14L6 14L6 15L5 15L5 16L4 16L4 17L5 17L5 18L6 18L6 19L7 19L7 20L6 20L6 21L7 21L7 22L9 22L9 23L7 23L7 24L9 24L9 23L11 23L11 24L12 24L12 25L13 25L13 24L14 24L14 25L16 25L16 24L17 24L17 26L15 26L15 28L13 28L13 27L14 27L14 26L13 26L13 27L12 27L12 26L11 26L11 28L10 28L10 30L14 30L14 32L15 32L15 33L16 33L16 32L15 32L15 31L16 31L16 29L18 29L18 30L20 30L20 32L23 32L23 31L24 31L24 30L25 30L25 31L26 31L26 34L25 34L25 33L23 33L23 34L24 34L24 36L23 36L23 35L22 35L22 36L23 36L23 37L24 37L24 38L23 38L23 39L24 39L24 40L25 40L25 37L27 37L27 38L26 38L26 39L27 39L27 40L28 40L28 41L30 41L30 40L28 40L28 39L27 39L27 38L28 38L28 37L27 37L27 36L26 36L26 35L27 35L27 32L28 32L28 33L29 33L29 34L30 34L30 36L29 36L29 37L31 37L31 38L29 38L29 39L33 39L33 40L35 40L35 39L38 39L38 40L41 40L41 39L38 39L38 37L40 37L40 38L43 38L43 37L44 37L44 38L45 38L45 39L43 39L43 40L45 40L45 41L47 41L47 39L48 39L48 37L49 37L49 36L48 36L48 35L50 35L50 36L51 36L51 37L50 37L50 38L49 38L49 39L50 39L50 38L51 38L51 37L52 37L52 35L53 35L53 34L52 34L52 35L50 35L50 34L48 34L48 35L47 35L47 34L45 34L45 35L44 35L44 33L43 33L43 32L41 32L41 33L39 33L39 34L40 34L40 35L38 35L38 33L37 33L37 32L34 32L34 31L36 31L36 30L32 30L32 28L31 28L31 26L32 26L32 27L33 27L33 28L36 28L36 29L38 29L38 28L42 28L42 26L43 26L43 25L44 25L44 26L45 26L45 27L44 27L44 28L43 28L43 29L39 29L39 30L38 30L38 32L39 32L39 31L41 31L41 30L43 30L43 29L44 29L44 28L45 28L45 27L46 27L46 26L45 26L45 25L47 25L47 22L49 22L49 21L51 21L51 20L52 20L52 19L50 19L50 17L49 17L49 16L48 16L48 15L49 15L49 14L50 14L50 12L49 12L49 13L47 13L47 14L44 14L44 15L42 15L42 16L41 16L41 14L43 14L43 13L41 13L41 14L40 14L40 13L39 13L39 14L38 14L38 15L39 15L39 16L38 16L38 17L37 17L37 16L35 16L35 14L33 14L33 13L34 13L34 12L33 12L33 10ZM13 11L13 12L14 12L14 11ZM15 12L15 13L16 13L16 12ZM32 12L32 13L31 13L31 14L30 14L30 15L31 15L31 16L32 16L32 17L31 17L31 18L30 18L30 19L28 19L28 18L27 18L27 19L26 19L26 16L23 16L23 15L24 15L24 14L23 14L23 15L21 15L21 16L22 16L22 17L20 17L20 18L19 18L19 19L20 19L20 21L18 21L18 22L17 22L17 24L19 24L19 25L20 25L20 26L18 26L18 27L17 27L17 28L18 28L18 29L19 29L19 28L20 28L20 26L22 26L22 27L21 27L21 28L22 28L22 29L20 29L20 30L21 30L21 31L23 31L23 29L26 29L26 28L25 28L25 27L26 27L26 26L27 26L27 25L28 25L28 26L29 26L29 24L25 24L25 23L26 23L26 22L25 22L25 21L31 21L31 22L29 22L29 23L30 23L30 24L32 24L32 26L33 26L33 27L34 27L34 26L36 26L36 28L37 28L37 27L41 27L41 24L39 24L39 23L40 23L40 22L39 22L39 21L42 21L42 20L39 20L39 21L38 21L38 20L37 20L37 19L39 19L39 17L41 17L41 16L39 16L39 17L38 17L38 18L37 18L37 17L35 17L35 16L33 16L33 15L31 15L31 14L32 14L32 13L33 13L33 12ZM52 12L52 13L53 13L53 12ZM54 12L54 13L55 13L55 14L56 14L56 13L55 13L55 12ZM36 14L36 15L37 15L37 14ZM39 14L39 15L40 15L40 14ZM53 14L53 15L54 15L54 14ZM6 15L6 16L7 16L7 17L6 17L6 18L8 18L8 21L9 21L9 22L10 22L10 21L9 21L9 19L10 19L10 20L11 20L11 19L10 19L10 18L8 18L8 17L9 17L9 16L8 16L8 15ZM44 15L44 18L43 18L43 20L44 20L44 23L43 23L43 24L44 24L44 25L45 25L45 23L46 23L46 22L47 22L47 21L49 21L49 19L48 19L48 20L47 20L47 17L48 17L48 16L47 16L47 17L45 17L45 16L46 16L46 15ZM1 16L1 17L2 17L2 16ZM27 16L27 17L28 17L28 16ZM42 16L42 17L43 17L43 16ZM22 17L22 18L21 18L21 20L22 20L22 19L23 19L23 20L24 20L24 21L23 21L23 22L24 22L24 21L25 21L25 20L26 20L26 19L25 19L25 17ZM32 17L32 19L31 19L31 21L32 21L32 20L34 20L34 21L35 21L35 23L34 23L34 22L33 22L33 23L32 23L32 24L33 24L33 25L37 25L37 26L38 26L38 25L39 25L39 26L40 26L40 25L39 25L39 24L37 24L37 23L39 23L39 22L38 22L38 21L37 21L37 20L36 20L36 19L35 19L35 18L33 18L33 17ZM23 18L23 19L24 19L24 18ZM41 18L41 19L42 19L42 18ZM44 18L44 20L45 20L45 19L46 19L46 18ZM13 19L13 20L14 20L14 19ZM16 20L16 21L17 21L17 20ZM13 21L13 22L14 22L14 21ZM21 21L21 23L22 23L22 24L20 24L20 25L22 25L22 26L23 26L23 28L24 28L24 27L25 27L25 26L26 26L26 25L25 25L25 24L24 24L24 23L22 23L22 21ZM45 21L45 22L46 22L46 21ZM18 22L18 23L20 23L20 22ZM22 24L22 25L23 25L23 24ZM5 27L5 30L8 30L8 27ZM27 27L27 30L30 30L30 27ZM49 27L49 30L52 30L52 27ZM55 27L55 28L54 28L54 29L53 29L53 30L55 30L55 28L56 28L56 27ZM6 28L6 29L7 29L7 28ZM12 28L12 29L13 29L13 28ZM15 28L15 29L14 29L14 30L15 30L15 29L16 29L16 28ZM28 28L28 29L29 29L29 28ZM50 28L50 29L51 29L51 28ZM9 31L9 32L10 32L10 31ZM30 31L30 32L29 32L29 33L31 33L31 35L32 35L32 33L33 33L33 34L35 34L35 36L34 36L34 35L33 35L33 36L32 36L32 37L33 37L33 38L34 38L34 39L35 39L35 36L37 36L37 37L38 37L38 35L37 35L37 34L35 34L35 33L33 33L33 31L32 31L32 33L31 33L31 31ZM17 32L17 34L16 34L16 35L18 35L18 36L17 36L17 37L18 37L18 39L19 39L19 40L16 40L16 41L19 41L19 42L20 42L20 40L22 40L22 38L21 38L21 37L19 37L19 36L20 36L20 35L21 35L21 34L22 34L22 33L21 33L21 34L20 34L20 33L19 33L19 32ZM48 32L48 33L49 33L49 32ZM54 33L54 34L55 34L55 33ZM6 34L6 35L7 35L7 34ZM12 34L12 35L11 35L11 36L13 36L13 37L15 37L15 38L16 38L16 37L15 37L15 36L14 36L14 35L15 35L15 34ZM19 34L19 35L20 35L20 34ZM42 34L42 35L41 35L41 36L40 36L40 37L43 37L43 36L44 36L44 37L45 37L45 38L46 38L46 39L45 39L45 40L46 40L46 39L47 39L47 37L48 37L48 36L47 36L47 35L45 35L45 36L44 36L44 35L43 35L43 34ZM2 35L2 37L4 37L4 36L3 36L3 35ZM42 35L42 36L43 36L43 35ZM45 36L45 37L46 37L46 36ZM5 37L5 38L7 38L7 37ZM11 37L11 38L12 38L12 37ZM19 38L19 39L20 39L20 38ZM3 39L3 40L4 40L4 39ZM6 40L6 41L7 41L7 40ZM31 40L31 41L32 41L32 42L27 42L27 41L26 41L26 42L27 42L27 43L24 43L24 44L27 44L27 45L28 45L28 44L29 44L29 43L30 43L30 44L31 44L31 45L32 45L32 46L33 46L33 45L32 45L32 44L33 44L33 43L34 43L34 42L33 42L33 41L32 41L32 40ZM13 41L13 42L14 42L14 43L15 43L15 42L14 42L14 41ZM21 41L21 42L22 42L22 43L21 43L21 44L22 44L22 45L23 45L23 46L25 46L25 45L23 45L23 42L25 42L25 41L23 41L23 42L22 42L22 41ZM6 42L6 43L5 43L5 44L6 44L6 43L7 43L7 42ZM32 42L32 43L31 43L31 44L32 44L32 43L33 43L33 42ZM51 42L51 43L50 43L50 44L48 44L48 45L47 45L47 46L45 46L45 49L44 49L44 48L43 48L43 47L42 47L42 48L43 48L43 49L44 49L44 50L45 50L45 49L47 49L47 48L48 48L48 47L50 47L50 46L49 46L49 45L50 45L50 44L51 44L51 43L53 43L53 42ZM27 43L27 44L28 44L28 43ZM14 44L14 47L13 47L13 48L14 48L14 50L15 50L15 49L16 49L16 47L15 47L15 44ZM51 45L51 46L52 46L52 45ZM1 46L1 47L2 47L2 46ZM10 47L10 48L11 48L11 49L10 49L10 50L11 50L11 49L12 49L12 47ZM14 47L14 48L15 48L15 47ZM25 47L25 48L26 48L26 47ZM29 47L29 48L30 48L30 47ZM46 47L46 48L47 48L47 47ZM38 48L38 49L39 49L39 48ZM27 49L27 52L30 52L30 49ZM49 49L49 52L52 52L52 49ZM22 50L22 51L23 51L23 52L22 52L22 53L24 53L24 52L26 52L26 51L25 51L25 50ZM28 50L28 51L29 51L29 50ZM38 50L38 51L40 51L40 52L41 52L41 50ZM50 50L50 51L51 51L51 50ZM54 50L54 51L55 51L55 50ZM18 51L18 52L19 52L19 51ZM46 51L46 52L45 52L45 53L47 53L47 51ZM9 52L9 54L10 54L10 52ZM53 52L53 53L54 53L54 52ZM17 54L17 56L18 56L18 55L19 55L19 54ZM15 55L15 56L16 56L16 55ZM37 55L37 56L39 56L39 55ZM50 55L50 56L51 56L51 55ZM53 55L53 56L55 56L55 57L56 57L56 56L55 56L55 55ZM11 56L11 57L13 57L13 56ZM0 0L0 7L7 7L7 0ZM1 1L1 6L6 6L6 1ZM2 2L2 5L5 5L5 2ZM50 0L50 7L57 7L57 0ZM51 1L51 6L56 6L56 1ZM52 2L52 5L55 5L55 2ZM0 50L0 57L7 57L7 50ZM1 51L1 56L6 56L6 51ZM2 52L2 55L5 55L5 52Z" fill="#000000"/></g></g></svg>
