<?xml version="1.0" encoding="UTF-8"?>
<svg xmlns="http://www.w3.org/2000/svg" version="1.1" width="300" height="300" viewBox="0 0 300 300"><rect x="0" y="0" width="300" height="300" fill="#fefefe"/><g transform="scale(4.615)"><g transform="translate(4,4)"><path fill-rule="evenodd" d="M9 0L9 1L8 1L8 2L9 2L9 3L8 3L8 4L9 4L9 5L8 5L8 7L9 7L9 8L6 8L6 9L9 9L9 8L10 8L10 10L8 10L8 11L10 11L10 12L9 12L9 14L8 14L8 15L7 15L7 14L4 14L4 13L5 13L5 12L6 12L6 13L8 13L8 12L6 12L6 11L7 11L7 10L5 10L5 12L4 12L4 11L3 11L3 10L4 10L4 9L5 9L5 8L0 8L0 9L3 9L3 10L0 10L0 11L1 11L1 13L0 13L0 14L1 14L1 15L3 15L3 16L2 16L2 18L1 18L1 22L2 22L2 20L5 20L5 19L7 19L7 20L6 20L6 21L7 21L7 22L6 22L6 23L8 23L8 21L7 21L7 20L9 20L9 19L10 19L10 21L9 21L9 24L10 24L10 25L9 25L9 26L8 26L8 24L5 24L5 21L3 21L3 23L4 23L4 25L2 25L2 26L3 26L3 27L4 27L4 29L3 29L3 30L4 30L4 31L3 31L3 33L5 33L5 32L4 32L4 31L7 31L7 32L6 32L6 33L7 33L7 34L6 34L6 35L5 35L5 34L4 34L4 35L0 35L0 36L2 36L2 37L4 37L4 36L6 36L6 37L5 37L5 38L4 38L4 40L2 40L2 41L1 41L1 42L2 42L2 43L3 43L3 42L5 42L5 43L4 43L4 44L5 44L5 45L7 45L7 46L5 46L5 47L3 47L3 46L4 46L4 45L3 45L3 46L2 46L2 44L1 44L1 46L0 46L0 48L5 48L5 47L7 47L7 46L12 46L12 47L13 47L13 48L12 48L12 49L11 49L11 51L12 51L12 52L11 52L11 53L13 53L13 51L14 51L14 50L13 50L13 49L15 49L15 48L14 48L14 47L16 47L16 46L15 46L15 45L14 45L14 44L13 44L13 45L12 45L12 43L11 43L11 42L12 42L12 41L13 41L13 43L15 43L15 41L16 41L16 39L15 39L15 38L16 38L16 37L15 37L15 36L14 36L14 37L15 37L15 38L14 38L14 39L12 39L12 38L11 38L11 36L12 36L12 37L13 37L13 35L14 35L14 32L15 32L15 33L16 33L16 32L17 32L17 33L18 33L18 34L15 34L15 35L18 35L18 36L17 36L17 38L18 38L18 39L17 39L17 42L18 42L18 43L16 43L16 45L17 45L17 46L19 46L19 47L17 47L17 50L18 50L18 52L17 52L17 53L16 53L16 52L15 52L15 53L16 53L16 54L15 54L15 55L16 55L16 56L12 56L12 55L14 55L14 54L9 54L9 53L10 53L10 48L9 48L9 47L8 47L8 51L9 51L9 52L8 52L8 57L9 57L9 55L11 55L11 56L12 56L12 57L16 57L16 56L17 56L17 57L21 57L21 56L24 56L24 55L23 55L23 54L24 54L24 53L27 53L27 54L26 54L26 56L25 56L25 57L26 57L26 56L27 56L27 57L29 57L29 56L30 56L30 57L31 57L31 56L35 56L35 57L40 57L40 56L41 56L41 57L44 57L44 54L45 54L45 53L44 53L44 52L47 52L47 50L48 50L48 53L47 53L47 55L46 55L46 56L47 56L47 57L49 57L49 56L50 56L50 57L52 57L52 55L51 55L51 53L52 53L52 54L53 54L53 55L54 55L54 56L53 56L53 57L54 57L54 56L55 56L55 57L56 57L56 56L55 56L55 54L53 54L53 52L54 52L54 53L56 53L56 52L55 52L55 51L56 51L56 50L55 50L55 48L56 48L56 49L57 49L57 48L56 48L56 46L57 46L57 43L56 43L56 41L55 41L55 39L57 39L57 37L56 37L56 36L57 36L57 35L56 35L56 34L57 34L57 32L56 32L56 30L57 30L57 28L56 28L56 27L55 27L55 26L57 26L57 25L56 25L56 22L57 22L57 20L55 20L55 19L56 19L56 16L57 16L57 15L56 15L56 14L57 14L57 13L56 13L56 8L55 8L55 10L54 10L54 11L50 11L50 12L49 12L49 13L47 13L47 14L43 14L43 13L44 13L44 12L43 12L43 13L41 13L41 14L40 14L40 15L39 15L39 14L38 14L38 13L40 13L40 12L41 12L41 11L40 11L40 10L43 10L43 11L45 11L45 12L47 12L47 10L50 10L50 8L49 8L49 6L48 6L48 7L47 7L47 5L48 5L48 0L46 0L46 1L47 1L47 2L44 2L44 3L42 3L42 2L43 2L43 0L41 0L41 1L40 1L40 0L39 0L39 1L38 1L38 0L37 0L37 1L38 1L38 2L37 2L37 3L36 3L36 0L35 0L35 1L33 1L33 0L29 0L29 1L28 1L28 2L27 2L27 1L26 1L26 0L23 0L23 2L22 2L22 0L21 0L21 1L20 1L20 0L19 0L19 1L18 1L18 2L17 2L17 5L20 5L20 7L19 7L19 6L18 6L18 7L17 7L17 6L16 6L16 7L15 7L15 5L16 5L16 4L15 4L15 5L14 5L14 7L13 7L13 4L14 4L14 2L16 2L16 1L14 1L14 0L11 0L11 1L10 1L10 0ZM9 1L9 2L10 2L10 1ZM12 1L12 2L11 2L11 3L13 3L13 2L14 2L14 1ZM31 1L31 2L28 2L28 3L27 3L27 2L23 2L23 3L21 3L21 2L19 2L19 4L21 4L21 7L22 7L22 8L20 8L20 10L19 10L19 13L20 13L20 14L18 14L18 15L20 15L20 18L19 18L19 19L18 19L18 20L20 20L20 21L18 21L18 22L20 22L20 23L19 23L19 24L21 24L21 25L20 25L20 27L19 27L19 25L15 25L15 24L16 24L16 23L15 23L15 22L16 22L16 21L17 21L17 19L16 19L16 21L15 21L15 18L13 18L13 19L14 19L14 20L12 20L12 19L11 19L11 16L12 16L12 17L13 17L13 16L14 16L14 17L16 17L16 18L17 18L17 17L16 17L16 16L17 16L17 13L18 13L18 12L17 12L17 13L16 13L16 12L15 12L15 13L13 13L13 12L14 12L14 11L13 11L13 10L15 10L15 11L16 11L16 10L17 10L17 11L18 11L18 10L17 10L17 9L16 9L16 8L17 8L17 7L16 7L16 8L15 8L15 7L14 7L14 9L12 9L12 8L13 8L13 7L12 7L12 5L11 5L11 4L10 4L10 3L9 3L9 4L10 4L10 6L9 6L9 7L10 7L10 8L11 8L11 9L12 9L12 11L11 11L11 12L10 12L10 14L9 14L9 15L8 15L8 16L7 16L7 15L6 15L6 16L7 16L7 17L4 17L4 16L3 16L3 19L5 19L5 18L7 18L7 17L8 17L8 19L9 19L9 18L10 18L10 19L11 19L11 21L10 21L10 23L11 23L11 25L12 25L12 26L13 26L13 28L12 28L12 29L11 29L11 28L10 28L10 29L11 29L11 30L9 30L9 31L8 31L8 32L7 32L7 33L8 33L8 32L9 32L9 31L11 31L11 32L12 32L12 33L13 33L13 32L12 32L12 30L15 30L15 29L16 29L16 30L17 30L17 32L20 32L20 31L24 31L24 32L21 32L21 33L20 33L20 34L19 34L19 37L18 37L18 38L19 38L19 39L18 39L18 40L19 40L19 39L20 39L20 38L19 38L19 37L23 37L23 38L24 38L24 37L23 37L23 36L24 36L24 34L23 34L23 33L25 33L25 35L26 35L26 31L25 31L25 30L23 30L23 26L22 26L22 27L21 27L21 25L24 25L24 24L25 24L25 25L26 25L26 26L24 26L24 27L26 27L26 26L27 26L27 25L28 25L28 26L29 26L29 25L31 25L31 24L32 24L32 26L31 26L31 27L32 27L32 29L31 29L31 30L36 30L36 31L35 31L35 32L33 32L33 31L28 31L28 32L27 32L27 36L25 36L25 38L26 38L26 37L28 37L28 38L27 38L27 39L28 39L28 40L32 40L32 41L31 41L31 42L32 42L32 43L29 43L29 41L27 41L27 40L26 40L26 39L25 39L25 40L24 40L24 39L23 39L23 40L22 40L22 39L21 39L21 40L20 40L20 42L19 42L19 41L18 41L18 42L19 42L19 44L20 44L20 47L21 47L21 48L19 48L19 49L20 49L20 50L19 50L19 51L20 51L20 50L21 50L21 52L20 52L20 53L17 53L17 56L21 56L21 55L22 55L22 54L21 54L21 53L24 53L24 52L26 52L26 49L25 49L25 48L27 48L27 47L26 47L26 45L28 45L28 46L29 46L29 45L28 45L28 43L29 43L29 44L30 44L30 45L31 45L31 47L33 47L33 46L35 46L35 45L34 45L34 43L35 43L35 44L36 44L36 43L37 43L37 42L35 42L35 40L38 40L38 42L39 42L39 41L44 41L44 42L43 42L43 44L44 44L44 45L45 45L45 46L44 46L44 47L43 47L43 46L41 46L41 48L39 48L39 47L40 47L40 46L39 46L39 45L41 45L41 44L42 44L42 42L40 42L40 44L39 44L39 45L38 45L38 46L39 46L39 47L38 47L38 48L37 48L37 49L38 49L38 50L36 50L36 49L35 49L35 48L36 48L36 47L37 47L37 46L36 46L36 47L35 47L35 48L31 48L31 49L33 49L33 50L31 50L31 53L30 53L30 54L27 54L27 56L29 56L29 55L30 55L30 56L31 56L31 54L32 54L32 53L33 53L33 55L35 55L35 56L36 56L36 54L35 54L35 51L34 51L34 50L36 50L36 52L37 52L37 53L38 53L38 54L37 54L37 56L40 56L40 55L38 55L38 54L40 54L40 53L41 53L41 52L40 52L40 51L38 51L38 50L41 50L41 51L42 51L42 50L41 50L41 48L42 48L42 49L43 49L43 51L46 51L46 50L47 50L47 49L48 49L48 48L50 48L50 47L51 47L51 46L54 46L54 47L55 47L55 46L56 46L56 43L55 43L55 44L54 44L54 45L53 45L53 43L54 43L54 42L53 42L53 41L54 41L54 40L53 40L53 39L54 39L54 38L53 38L53 35L55 35L55 36L56 36L56 35L55 35L55 34L56 34L56 32L54 32L54 30L53 30L53 32L54 32L54 33L52 33L52 31L51 31L51 33L52 33L52 34L50 34L50 31L48 31L48 30L47 30L47 29L46 29L46 30L47 30L47 31L48 31L48 32L43 32L43 30L44 30L44 31L45 31L45 30L44 30L44 29L45 29L45 28L46 28L46 27L47 27L47 28L48 28L48 27L47 27L47 24L48 24L48 25L50 25L50 26L52 26L52 25L54 25L54 24L53 24L53 23L55 23L55 22L56 22L56 21L55 21L55 20L53 20L53 19L52 19L52 20L51 20L51 21L49 21L49 22L47 22L47 19L48 19L48 18L47 18L47 17L48 17L48 16L49 16L49 17L50 17L50 18L49 18L49 19L51 19L51 18L55 18L55 16L52 16L52 15L51 15L51 17L50 17L50 14L51 14L51 12L50 12L50 14L49 14L49 15L48 15L48 16L46 16L46 17L45 17L45 15L44 15L44 18L43 18L43 19L42 19L42 18L41 18L41 20L39 20L39 21L38 21L38 19L39 19L39 17L41 17L41 16L42 16L42 17L43 17L43 16L42 16L42 15L43 15L43 14L41 14L41 16L39 16L39 15L38 15L38 14L37 14L37 15L35 15L35 16L32 16L32 13L33 13L33 14L36 14L36 13L35 13L35 11L36 11L36 10L37 10L37 9L35 9L35 8L37 8L37 7L38 7L38 6L39 6L39 7L40 7L40 8L38 8L38 11L39 11L39 12L40 12L40 11L39 11L39 9L42 9L42 8L41 8L41 7L42 7L42 6L43 6L43 7L44 7L44 9L46 9L46 10L45 10L45 11L46 11L46 10L47 10L47 9L49 9L49 8L46 8L46 6L45 6L45 4L46 4L46 5L47 5L47 3L44 3L44 6L43 6L43 5L40 5L40 4L41 4L41 3L39 3L39 2L38 2L38 3L37 3L37 4L36 4L36 5L35 5L35 4L33 4L33 3L32 3L32 1ZM34 2L34 3L35 3L35 2ZM23 3L23 4L24 4L24 5L23 5L23 6L22 6L22 7L23 7L23 6L24 6L24 9L23 9L23 10L22 10L22 11L21 11L21 10L20 10L20 13L21 13L21 15L23 15L23 14L22 14L22 13L24 13L24 14L25 14L25 15L24 15L24 16L25 16L25 17L22 17L22 16L21 16L21 17L22 17L22 18L21 18L21 19L20 19L20 20L24 20L24 21L22 21L22 22L21 22L21 24L24 24L24 23L23 23L23 22L24 22L24 21L25 21L25 22L26 22L26 23L25 23L25 24L31 24L31 23L30 23L30 22L31 22L31 21L32 21L32 20L33 20L33 21L34 21L34 20L35 20L35 23L32 23L32 24L33 24L33 25L37 25L37 26L38 26L38 25L40 25L40 24L41 24L41 26L39 26L39 27L36 27L36 26L34 26L34 27L33 27L33 26L32 26L32 27L33 27L33 28L35 28L35 29L38 29L38 28L40 28L40 27L41 27L41 28L42 28L42 26L43 26L43 27L44 27L44 28L43 28L43 29L41 29L41 30L43 30L43 29L44 29L44 28L45 28L45 27L46 27L46 26L45 26L45 27L44 27L44 24L43 24L43 25L42 25L42 24L41 24L41 22L42 22L42 23L44 23L44 20L45 20L45 19L46 19L46 18L44 18L44 20L43 20L43 21L39 21L39 22L38 22L38 21L37 21L37 20L36 20L36 19L34 19L34 20L33 20L33 18L32 18L32 16L31 16L31 15L30 15L30 14L31 14L31 13L32 13L32 12L33 12L33 13L34 13L34 12L33 12L33 10L32 10L32 8L31 8L31 4L32 4L32 5L33 5L33 6L32 6L32 7L33 7L33 9L34 9L34 8L35 8L35 5L33 5L33 4L32 4L32 3L31 3L31 4L26 4L26 3ZM25 4L25 8L26 8L26 4ZM37 4L37 5L36 5L36 7L37 7L37 6L38 6L38 4ZM27 5L27 8L30 8L30 5ZM39 5L39 6L40 6L40 7L41 7L41 6L40 6L40 5ZM10 6L10 7L11 7L11 6ZM28 6L28 7L29 7L29 6ZM33 6L33 7L34 7L34 6ZM44 6L44 7L45 7L45 6ZM51 8L51 9L52 9L52 10L53 10L53 9L54 9L54 8L53 8L53 9L52 9L52 8ZM28 9L28 10L27 10L27 11L26 11L26 12L25 12L25 10L23 10L23 11L24 11L24 13L26 13L26 12L27 12L27 11L28 11L28 10L29 10L29 9ZM31 10L31 11L29 11L29 12L28 12L28 13L27 13L27 14L26 14L26 18L27 18L27 19L26 19L26 21L29 21L29 22L30 22L30 21L29 21L29 20L30 20L30 19L31 19L31 18L30 18L30 19L28 19L28 18L27 18L27 17L28 17L28 16L29 16L29 14L30 14L30 13L31 13L31 12L32 12L32 10ZM12 11L12 12L11 12L11 15L12 15L12 12L13 12L13 11ZM2 12L2 14L3 14L3 13L4 13L4 12ZM21 12L21 13L22 13L22 12ZM52 12L52 13L53 13L53 15L55 15L55 14L56 14L56 13L55 13L55 12L54 12L54 13L53 13L53 12ZM15 13L15 14L13 14L13 15L14 15L14 16L16 16L16 13ZM28 13L28 14L29 14L29 13ZM54 13L54 14L55 14L55 13ZM9 15L9 16L8 16L8 17L10 17L10 15ZM27 15L27 16L28 16L28 15ZM35 16L35 17L37 17L37 18L38 18L38 17L39 17L39 16L38 16L38 17L37 17L37 16ZM22 18L22 19L24 19L24 18ZM27 19L27 20L28 20L28 19ZM11 21L11 23L12 23L12 25L13 25L13 24L14 24L14 23L12 23L12 22L14 22L14 21ZM51 21L51 22L50 22L50 23L49 23L49 24L50 24L50 25L51 25L51 24L50 24L50 23L53 23L53 21ZM37 22L37 24L40 24L40 22L39 22L39 23L38 23L38 22ZM46 22L46 23L45 23L45 24L46 24L46 23L47 23L47 22ZM1 23L1 24L0 24L0 25L1 25L1 24L2 24L2 23ZM17 23L17 24L18 24L18 23ZM6 25L6 26L7 26L7 25ZM14 25L14 28L15 28L15 27L16 27L16 26L15 26L15 25ZM0 26L0 29L1 29L1 30L0 30L0 33L1 33L1 30L2 30L2 29L1 29L1 26ZM9 26L9 27L11 27L11 26ZM17 26L17 27L18 27L18 26ZM53 26L53 27L54 27L54 26ZM5 27L5 30L8 30L8 27ZM20 27L20 28L19 28L19 29L18 29L18 28L16 28L16 29L18 29L18 30L19 30L19 31L20 31L20 30L19 30L19 29L22 29L22 28L21 28L21 27ZM27 27L27 30L30 30L30 27ZM49 27L49 30L52 30L52 27ZM6 28L6 29L7 29L7 28ZM25 28L25 29L26 29L26 28ZM28 28L28 29L29 29L29 28ZM50 28L50 29L51 29L51 28ZM54 28L54 29L56 29L56 28ZM39 29L39 30L38 30L38 32L39 32L39 30L40 30L40 29ZM28 32L28 33L29 33L29 34L30 34L30 36L29 36L29 37L31 37L31 38L29 38L29 39L33 39L33 40L35 40L35 39L38 39L38 40L40 40L40 39L38 39L38 36L39 36L39 37L40 37L40 38L41 38L41 39L42 39L42 38L43 38L43 37L44 37L44 38L45 38L45 37L46 37L46 36L47 36L47 34L45 34L45 33L43 33L43 32L41 32L41 33L39 33L39 34L40 34L40 35L38 35L38 33L37 33L37 32L35 32L35 34L34 34L34 35L31 35L31 34L33 34L33 33L32 33L32 32L31 32L31 33L29 33L29 32ZM48 32L48 33L49 33L49 32ZM21 33L21 34L20 34L20 35L21 35L21 34L22 34L22 33ZM54 33L54 34L55 34L55 33ZM7 34L7 35L6 35L6 36L7 36L7 37L6 37L6 38L5 38L5 39L6 39L6 40L4 40L4 41L6 41L6 42L7 42L7 43L6 43L6 44L7 44L7 45L9 45L9 44L11 44L11 43L9 43L9 42L11 42L11 41L12 41L12 40L7 40L7 39L6 39L6 38L7 38L7 37L9 37L9 35L10 35L10 36L11 36L11 35L10 35L10 34ZM35 34L35 36L37 36L37 34ZM42 34L42 35L43 35L43 36L44 36L44 37L45 37L45 36L44 36L44 35L45 35L45 34ZM48 34L48 35L50 35L50 36L48 36L48 37L47 37L47 39L46 39L46 40L47 40L47 39L48 39L48 38L50 38L50 37L51 37L51 36L52 36L52 35L53 35L53 34L52 34L52 35L50 35L50 34ZM7 35L7 36L8 36L8 35ZM22 35L22 36L23 36L23 35ZM32 36L32 37L33 37L33 39L35 39L35 37L33 37L33 36ZM40 36L40 37L41 37L41 36ZM0 37L0 38L1 38L1 39L0 39L0 40L1 40L1 39L3 39L3 38L1 38L1 37ZM10 38L10 39L11 39L11 38ZM52 38L52 39L49 39L49 41L48 41L48 42L45 42L45 43L46 43L46 44L45 44L45 45L47 45L47 43L50 43L50 45L52 45L52 44L51 44L51 43L53 43L53 42L51 42L51 41L53 41L53 40L52 40L52 39L53 39L53 38ZM43 39L43 40L45 40L45 39ZM6 40L6 41L7 41L7 40ZM13 40L13 41L14 41L14 40ZM23 40L23 42L22 42L22 41L21 41L21 42L20 42L20 44L22 44L22 45L21 45L21 47L23 47L23 49L21 49L21 50L25 50L25 49L24 49L24 48L25 48L25 47L23 47L23 46L25 46L25 44L27 44L27 43L24 43L24 42L25 42L25 41L24 41L24 40ZM26 41L26 42L27 42L27 41ZM32 41L32 42L33 42L33 43L32 43L32 44L31 44L31 45L32 45L32 46L33 46L33 45L32 45L32 44L33 44L33 43L34 43L34 42L33 42L33 41ZM21 42L21 43L22 43L22 42ZM50 42L50 43L51 43L51 42ZM7 43L7 44L9 44L9 43ZM17 44L17 45L18 45L18 44ZM23 44L23 45L22 45L22 46L23 46L23 45L24 45L24 44ZM54 45L54 46L55 46L55 45ZM1 46L1 47L2 47L2 46ZM45 46L45 47L44 47L44 48L43 48L43 47L42 47L42 48L43 48L43 49L44 49L44 50L46 50L46 49L47 49L47 48L48 48L48 47L50 47L50 46ZM28 47L28 48L30 48L30 47ZM46 47L46 48L44 48L44 49L46 49L46 48L47 48L47 47ZM6 48L6 49L7 49L7 48ZM38 48L38 49L39 49L39 48ZM53 48L53 49L54 49L54 48ZM27 49L27 52L30 52L30 49ZM49 49L49 52L52 52L52 49ZM15 50L15 51L16 51L16 50ZM28 50L28 51L29 51L29 50ZM50 50L50 51L51 51L51 50ZM54 50L54 51L55 51L55 50ZM32 51L32 52L33 52L33 53L34 53L34 52L33 52L33 51ZM37 51L37 52L38 52L38 53L39 53L39 52L38 52L38 51ZM42 52L42 53L43 53L43 54L44 54L44 53L43 53L43 52ZM19 54L19 55L20 55L20 54ZM41 54L41 55L42 55L42 56L43 56L43 55L42 55L42 54ZM50 55L50 56L51 56L51 55ZM0 0L0 7L7 7L7 0ZM1 1L1 6L6 6L6 1ZM2 2L2 5L5 5L5 2ZM50 0L50 7L57 7L57 0ZM51 1L51 6L56 6L56 1ZM52 2L52 5L55 5L55 2ZM0 50L0 57L7 57L7 50ZM1 51L1 56L6 56L6 51ZM2 52L2 55L5 55L5 52Z" fill="#000000"/></g></g></svg>
