<?xml version="1.0" encoding="UTF-8"?>
<svg xmlns="http://www.w3.org/2000/svg" version="1.1" width="300" height="300" viewBox="0 0 300 300"><rect x="0" y="0" width="300" height="300" fill="#fefefe"/><g transform="scale(4.615)"><g transform="translate(4,4)"><path fill-rule="evenodd" d="M8 0L8 2L10 2L10 1L11 1L11 0ZM12 0L12 3L10 3L10 5L11 5L11 6L10 6L10 8L9 8L9 4L8 4L8 9L7 9L7 8L5 8L5 9L7 9L7 10L6 10L6 11L7 11L7 12L5 12L5 13L7 13L7 12L8 12L8 13L9 13L9 12L10 12L10 13L11 13L11 16L10 16L10 14L8 14L8 15L7 15L7 14L5 14L5 15L4 15L4 16L3 16L3 15L2 15L2 13L3 13L3 12L4 12L4 11L5 11L5 10L3 10L3 8L0 8L0 10L1 10L1 11L2 11L2 10L3 10L3 12L0 12L0 14L1 14L1 15L0 15L0 17L2 17L2 18L1 18L1 19L2 19L2 20L1 20L1 21L0 21L0 22L1 22L1 23L2 23L2 24L3 24L3 25L4 25L4 22L5 22L5 21L4 21L4 22L3 22L3 23L2 23L2 22L1 22L1 21L2 21L2 20L3 20L3 19L4 19L4 18L3 18L3 17L4 17L4 16L5 16L5 15L7 15L7 16L6 16L6 17L7 17L7 18L5 18L5 20L6 20L6 21L8 21L8 20L9 20L9 22L6 22L6 23L5 23L5 24L6 24L6 25L5 25L5 26L4 26L4 27L3 27L3 26L2 26L2 25L0 25L0 26L2 26L2 27L3 27L3 28L2 28L2 30L3 30L3 31L1 31L1 32L0 32L0 33L1 33L1 34L3 34L3 36L2 36L2 35L0 35L0 37L1 37L1 38L0 38L0 40L1 40L1 42L2 42L2 43L0 43L0 44L2 44L2 43L3 43L3 45L0 45L0 48L5 48L5 47L7 47L7 48L6 48L6 49L8 49L8 50L9 50L9 51L8 51L8 52L9 52L9 54L8 54L8 57L9 57L9 56L10 56L10 57L15 57L15 56L16 56L16 57L17 57L17 56L18 56L18 57L19 57L19 56L18 56L18 54L19 54L19 52L18 52L18 54L17 54L17 51L19 51L19 50L18 50L18 49L19 49L19 48L18 48L18 49L17 49L17 51L16 51L16 50L15 50L15 48L16 48L16 47L17 47L17 46L18 46L18 45L19 45L19 47L20 47L20 48L22 48L22 50L21 50L21 51L20 51L20 53L21 53L21 52L22 52L22 54L23 54L23 56L22 56L22 55L21 55L21 54L20 54L20 55L21 55L21 56L22 56L22 57L23 57L23 56L24 56L24 57L25 57L25 55L26 55L26 57L28 57L28 55L29 55L29 57L33 57L33 55L34 55L34 57L35 57L35 55L38 55L38 52L40 52L40 53L39 53L39 57L41 57L41 55L42 55L42 57L43 57L43 56L44 56L44 57L50 57L50 55L49 55L49 54L52 54L52 55L53 55L53 56L51 56L51 57L53 57L53 56L54 56L54 55L57 55L57 54L55 54L55 52L54 52L54 51L53 51L53 50L54 50L54 49L55 49L55 51L57 51L57 49L56 49L56 47L57 47L57 42L56 42L56 41L57 41L57 40L54 40L54 39L53 39L53 38L54 38L54 37L55 37L55 38L57 38L57 34L56 34L56 31L57 31L57 29L56 29L56 27L57 27L57 24L56 24L56 23L57 23L57 12L56 12L56 11L57 11L57 10L56 10L56 11L55 11L55 9L57 9L57 8L55 8L55 9L54 9L54 10L53 10L53 8L49 8L49 10L48 10L48 7L49 7L49 6L48 6L48 7L47 7L47 5L48 5L48 0L42 0L42 1L41 1L41 0L38 0L38 2L37 2L37 1L35 1L35 0L34 0L34 3L33 3L33 6L32 6L32 7L33 7L33 6L34 6L34 8L32 8L32 9L31 9L31 5L32 5L32 1L33 1L33 0L32 0L32 1L31 1L31 0L30 0L30 1L29 1L29 0L28 0L28 1L29 1L29 2L28 2L28 3L27 3L27 0L24 0L24 1L23 1L23 0L19 0L19 1L20 1L20 2L21 2L21 3L23 3L23 5L22 5L22 9L23 9L23 10L24 10L24 11L22 11L22 12L25 12L25 13L26 13L26 11L25 11L25 10L27 10L27 11L28 11L28 12L27 12L27 14L28 14L28 15L29 15L29 16L30 16L30 17L28 17L28 18L30 18L30 17L31 17L31 16L32 16L32 18L33 18L33 19L31 19L31 20L30 20L30 19L29 19L29 20L28 20L28 19L27 19L27 20L26 20L26 19L25 19L25 18L24 18L24 16L22 16L22 14L20 14L20 11L19 11L19 10L20 10L20 9L21 9L21 5L20 5L20 7L19 7L19 4L18 4L18 3L19 3L19 2L18 2L18 1L17 1L17 0L16 0L16 1L17 1L17 2L16 2L16 3L15 3L15 0ZM13 1L13 3L12 3L12 5L13 5L13 7L14 7L14 6L15 6L15 9L14 9L14 8L10 8L10 9L8 9L8 10L9 10L9 11L10 11L10 12L11 12L11 10L10 10L10 9L12 9L12 10L13 10L13 12L12 12L12 13L13 13L13 15L15 15L15 17L14 17L14 16L11 16L11 17L10 17L10 18L9 18L9 17L8 17L8 16L7 16L7 17L8 17L8 18L7 18L7 19L6 19L6 20L8 20L8 18L9 18L9 19L11 19L11 20L10 20L10 21L11 21L11 22L10 22L10 23L12 23L12 24L10 24L10 28L9 28L9 30L10 30L10 29L11 29L11 26L12 26L12 27L14 27L14 29L13 29L13 30L12 30L12 32L11 32L11 31L9 31L9 33L8 33L8 32L7 32L7 31L4 31L4 33L3 33L3 32L1 32L1 33L3 33L3 34L4 34L4 36L5 36L5 39L4 39L4 38L3 38L3 37L2 37L2 38L1 38L1 40L2 40L2 42L3 42L3 43L4 43L4 44L5 44L5 45L4 45L4 46L3 46L3 47L5 47L5 45L6 45L6 46L7 46L7 45L10 45L10 44L12 44L12 45L11 45L11 46L10 46L10 47L9 47L9 48L8 48L8 49L9 49L9 50L10 50L10 51L9 51L9 52L10 52L10 53L12 53L12 54L10 54L10 56L14 56L14 55L15 55L15 54L14 54L14 53L15 53L15 52L16 52L16 51L15 51L15 50L14 50L14 47L15 47L15 46L13 46L13 43L14 43L14 41L15 41L15 40L16 40L16 42L15 42L15 45L16 45L16 46L17 46L17 44L16 44L16 42L17 42L17 41L18 41L18 40L19 40L19 41L20 41L20 43L18 43L18 44L20 44L20 43L21 43L21 45L20 45L20 47L21 47L21 46L22 46L22 48L23 48L23 49L24 49L24 51L23 51L23 52L24 52L24 51L25 51L25 54L24 54L24 55L25 55L25 54L26 54L26 55L28 55L28 53L26 53L26 51L25 51L25 48L23 48L23 44L24 44L24 42L26 42L26 41L25 41L25 40L28 40L28 43L29 43L29 44L27 44L27 45L28 45L28 46L26 46L26 45L24 45L24 47L25 47L25 46L26 46L26 48L31 48L31 52L32 52L32 50L33 50L33 49L32 49L32 48L31 48L31 47L33 47L33 48L34 48L34 52L35 52L35 53L34 53L34 54L35 54L35 53L36 53L36 54L37 54L37 53L36 53L36 52L35 52L35 51L37 51L37 52L38 52L38 51L39 51L39 49L40 49L40 51L41 51L41 49L42 49L42 50L43 50L43 51L42 51L42 52L41 52L41 53L42 53L42 54L43 54L43 55L44 55L44 56L45 56L45 55L44 55L44 52L43 52L43 51L44 51L44 50L45 50L45 53L46 53L46 56L48 56L48 54L49 54L49 53L46 53L46 50L47 50L47 49L46 49L46 50L45 50L45 49L44 49L44 48L45 48L45 46L44 46L44 44L45 44L45 42L44 42L44 39L43 39L43 38L44 38L44 34L45 34L45 33L44 33L44 34L43 34L43 33L42 33L42 31L43 31L43 29L44 29L44 31L45 31L45 30L46 30L46 31L47 31L47 30L48 30L48 29L47 29L47 28L48 28L48 26L49 26L49 25L48 25L48 24L47 24L47 25L46 25L46 26L45 26L45 25L44 25L44 24L45 24L45 23L49 23L49 22L50 22L50 26L51 26L51 25L52 25L52 23L54 23L54 24L53 24L53 25L54 25L54 26L55 26L55 25L56 25L56 24L55 24L55 23L56 23L56 21L55 21L55 20L56 20L56 18L55 18L55 19L54 19L54 16L55 16L55 17L56 17L56 16L55 16L55 15L56 15L56 12L55 12L55 11L54 11L54 12L53 12L53 13L54 13L54 14L52 14L52 13L50 13L50 11L48 11L48 10L47 10L47 8L46 8L46 5L47 5L47 3L46 3L46 5L44 5L44 4L45 4L45 2L47 2L47 1L42 1L42 2L40 2L40 1L39 1L39 2L40 2L40 4L39 4L39 5L38 5L38 3L37 3L37 2L35 2L35 3L34 3L34 4L35 4L35 9L34 9L34 10L33 10L33 9L32 9L32 11L31 11L31 9L30 9L30 11L29 11L29 12L30 12L30 13L29 13L29 15L30 15L30 16L31 16L31 14L32 14L32 16L33 16L33 17L34 17L34 20L33 20L33 21L32 21L32 20L31 20L31 21L30 21L30 22L29 22L29 21L28 21L28 20L27 20L27 21L28 21L28 22L26 22L26 23L27 23L27 25L26 25L26 26L28 26L28 24L29 24L29 23L30 23L30 24L31 24L31 25L30 25L30 26L31 26L31 25L32 25L32 28L31 28L31 29L32 29L32 31L31 31L31 32L30 32L30 31L29 31L29 32L28 32L28 31L27 31L27 32L26 32L26 30L25 30L25 29L24 29L24 28L25 28L25 27L22 27L22 28L23 28L23 29L22 29L22 30L21 30L21 27L20 27L20 26L21 26L21 25L22 25L22 24L23 24L23 23L22 23L22 24L21 24L21 23L20 23L20 22L21 22L21 21L20 21L20 20L23 20L23 19L22 19L22 18L21 18L21 17L20 17L20 18L19 18L19 17L18 17L18 15L15 15L15 14L17 14L17 12L16 12L16 11L17 11L17 7L18 7L18 8L19 8L19 9L20 9L20 8L19 8L19 7L18 7L18 4L17 4L17 3L16 3L16 4L17 4L17 5L16 5L16 6L15 6L15 5L13 5L13 3L14 3L14 4L15 4L15 3L14 3L14 1ZM21 1L21 2L23 2L23 1ZM24 1L24 4L25 4L25 1ZM30 2L30 3L28 3L28 4L30 4L30 3L31 3L31 2ZM43 2L43 4L42 4L42 3L41 3L41 4L42 4L42 5L41 5L41 6L40 6L40 7L39 7L39 6L38 6L38 8L37 8L37 6L36 6L36 10L34 10L34 11L32 11L32 14L33 14L33 15L34 15L34 17L35 17L35 15L34 15L34 13L35 13L35 14L36 14L36 18L35 18L35 20L34 20L34 21L33 21L33 22L31 22L31 23L32 23L32 25L33 25L33 26L34 26L34 24L36 24L36 26L37 26L37 28L36 28L36 27L34 27L34 29L33 29L33 28L32 28L32 29L33 29L33 31L34 31L34 29L35 29L35 28L36 28L36 30L35 30L35 31L36 31L36 33L35 33L35 35L33 35L33 34L32 34L32 33L33 33L33 32L32 32L32 33L31 33L31 34L30 34L30 32L29 32L29 34L28 34L28 33L27 33L27 34L28 34L28 35L25 35L25 34L24 34L24 31L23 31L23 30L24 30L24 29L23 29L23 30L22 30L22 33L23 33L23 34L20 34L20 33L21 33L21 31L20 31L20 29L19 29L19 31L18 31L18 30L17 30L17 31L16 31L16 30L15 30L15 29L14 29L14 30L13 30L13 31L14 31L14 30L15 30L15 31L16 31L16 32L13 32L13 33L12 33L12 34L11 34L11 32L10 32L10 34L8 34L8 33L7 33L7 32L6 32L6 33L5 33L5 35L8 35L8 36L6 36L6 37L7 37L7 38L6 38L6 39L7 39L7 40L5 40L5 41L3 41L3 42L4 42L4 43L7 43L7 44L6 44L6 45L7 45L7 44L8 44L8 43L9 43L9 44L10 44L10 43L11 43L11 42L10 42L10 41L11 41L11 39L12 39L12 38L10 38L10 37L9 37L9 36L10 36L10 35L11 35L11 37L12 37L12 35L14 35L14 34L13 34L13 33L15 33L15 34L16 34L16 32L17 32L17 31L18 31L18 33L19 33L19 34L20 34L20 36L18 36L18 37L17 37L17 36L16 36L16 37L17 37L17 38L16 38L16 39L17 39L17 40L18 40L18 38L19 38L19 40L20 40L20 41L21 41L21 39L22 39L22 41L23 41L23 39L22 39L22 37L23 37L23 35L25 35L25 36L24 36L24 37L26 37L26 38L27 38L27 36L28 36L28 37L29 37L29 36L28 36L28 35L31 35L31 36L30 36L30 40L29 40L29 41L30 41L30 44L29 44L29 46L28 46L28 47L29 47L29 46L30 46L30 47L31 47L31 45L30 45L30 44L31 44L31 38L34 38L34 41L33 41L33 40L32 40L32 46L33 46L33 47L34 47L34 45L33 45L33 44L36 44L36 45L35 45L35 47L36 47L36 46L38 46L38 45L37 45L37 44L40 44L40 45L39 45L39 46L41 46L41 47L40 47L40 49L41 49L41 47L42 47L42 45L43 45L43 44L44 44L44 42L42 42L42 41L43 41L43 40L40 40L40 42L39 42L39 43L37 43L37 44L36 44L36 41L37 41L37 42L38 42L38 41L39 41L39 38L40 38L40 39L41 39L41 38L42 38L42 37L43 37L43 36L42 36L42 35L40 35L40 36L39 36L39 38L38 38L38 37L37 37L37 36L38 36L38 35L39 35L39 34L38 34L38 33L39 33L39 32L40 32L40 34L42 34L42 33L41 33L41 32L40 32L40 31L42 31L42 28L44 28L44 29L46 29L46 28L47 28L47 26L48 26L48 25L47 25L47 26L46 26L46 27L44 27L44 25L43 25L43 27L41 27L41 28L40 28L40 29L39 29L39 27L40 27L40 25L41 25L41 23L39 23L39 22L38 22L38 21L39 21L39 19L40 19L40 22L42 22L42 24L43 24L43 22L44 22L44 23L45 23L45 22L44 22L44 21L45 21L45 20L46 20L46 21L47 21L47 22L48 22L48 21L49 21L49 20L51 20L51 19L52 19L52 17L53 17L53 16L54 16L54 15L55 15L55 14L54 14L54 15L52 15L52 14L51 14L51 18L50 18L50 16L49 16L49 15L50 15L50 13L49 13L49 14L48 14L48 11L46 11L46 8L44 8L44 9L43 9L43 8L42 8L42 7L43 7L43 6L44 6L44 7L45 7L45 6L44 6L44 5L43 5L43 4L44 4L44 2ZM26 3L26 4L27 4L27 3ZM35 3L35 4L36 4L36 3ZM24 5L24 6L23 6L23 9L24 9L24 10L25 10L25 9L26 9L26 5ZM27 5L27 8L30 8L30 5ZM42 5L42 6L41 6L41 7L40 7L40 8L38 8L38 10L39 10L39 9L40 9L40 11L41 11L41 12L42 12L42 15L41 15L41 17L42 17L42 18L43 18L43 17L44 17L44 19L42 19L42 20L41 20L41 21L42 21L42 22L43 22L43 21L44 21L44 19L45 19L45 17L44 17L44 16L45 16L45 13L46 13L46 15L48 15L48 14L47 14L47 13L46 13L46 11L45 11L45 10L43 10L43 9L42 9L42 11L41 11L41 9L40 9L40 8L41 8L41 7L42 7L42 6L43 6L43 5ZM11 6L11 7L12 7L12 6ZM16 6L16 7L17 7L17 6ZM24 6L24 7L25 7L25 6ZM28 6L28 7L29 7L29 6ZM27 9L27 10L28 10L28 9ZM50 9L50 10L52 10L52 9ZM14 11L14 12L15 12L15 11ZM18 11L18 12L19 12L19 11ZM30 11L30 12L31 12L31 11ZM34 11L34 12L35 12L35 13L36 13L36 12L37 12L37 13L38 13L38 15L37 15L37 16L38 16L38 18L40 18L40 19L41 19L41 18L40 18L40 14L41 14L41 13L40 13L40 14L39 14L39 12L37 12L37 11L36 11L36 12L35 12L35 11ZM42 11L42 12L43 12L43 11ZM51 11L51 12L52 12L52 11ZM44 12L44 13L45 13L45 12ZM18 13L18 14L19 14L19 13ZM24 14L24 15L25 15L25 16L26 16L26 17L27 17L27 16L26 16L26 15L25 15L25 14ZM43 14L43 16L44 16L44 14ZM19 15L19 16L21 16L21 15ZM47 16L47 17L46 17L46 19L47 19L47 17L48 17L48 18L49 18L49 17L48 17L48 16ZM11 17L11 19L13 19L13 20L11 20L11 21L12 21L12 23L13 23L13 24L12 24L12 25L13 25L13 26L14 26L14 25L15 25L15 27L16 27L16 28L17 28L17 27L16 27L16 24L17 24L17 23L18 23L18 25L19 25L19 26L20 26L20 25L19 25L19 20L20 20L20 19L19 19L19 20L18 20L18 22L17 22L17 19L18 19L18 18L17 18L17 19L16 19L16 20L14 20L14 19L15 19L15 18L14 18L14 17L13 17L13 18L12 18L12 17ZM2 18L2 19L3 19L3 18ZM36 18L36 19L37 19L37 18ZM24 19L24 20L25 20L25 21L26 21L26 20L25 20L25 19ZM48 19L48 20L49 20L49 19ZM53 19L53 20L52 20L52 22L51 22L51 23L52 23L52 22L55 22L55 21L54 21L54 19ZM35 20L35 21L34 21L34 22L35 22L35 23L36 23L36 24L37 24L37 25L38 25L38 26L39 26L39 25L40 25L40 24L39 24L39 23L38 23L38 22L37 22L37 21L38 21L38 20L37 20L37 21L36 21L36 20ZM14 21L14 22L13 22L13 23L14 23L14 24L15 24L15 21ZM35 21L35 22L36 22L36 23L37 23L37 22L36 22L36 21ZM16 22L16 23L17 23L17 22ZM24 22L24 23L25 23L25 22ZM6 23L6 24L7 24L7 23ZM8 23L8 24L9 24L9 23ZM33 23L33 24L34 24L34 23ZM54 24L54 25L55 25L55 24ZM6 25L6 26L8 26L8 25ZM24 25L24 26L25 26L25 25ZM5 27L5 30L8 30L8 27ZM18 27L18 28L19 28L19 27ZM27 27L27 30L30 30L30 27ZM49 27L49 30L52 30L52 27ZM54 27L54 28L53 28L53 30L54 30L54 32L52 32L52 31L50 31L50 33L49 33L49 34L48 34L48 33L47 33L47 32L46 32L46 35L45 35L45 36L46 36L46 38L45 38L45 40L46 40L46 42L47 42L47 44L46 44L46 48L47 48L47 46L48 46L48 45L47 45L47 44L48 44L48 43L49 43L49 44L50 44L50 42L49 42L49 41L51 41L51 40L52 40L52 44L53 44L53 45L52 45L52 48L53 48L53 49L54 49L54 48L55 48L55 47L56 47L56 44L55 44L55 43L56 43L56 42L55 42L55 41L54 41L54 40L52 40L52 38L53 38L53 37L54 37L54 36L55 36L55 35L56 35L56 34L55 34L55 33L54 33L54 32L55 32L55 31L56 31L56 30L55 30L55 27ZM0 28L0 29L1 29L1 28ZM3 28L3 29L4 29L4 28ZM6 28L6 29L7 29L7 28ZM28 28L28 29L29 29L29 28ZM37 28L37 30L36 30L36 31L37 31L37 32L38 32L38 31L40 31L40 30L39 30L39 29L38 29L38 28ZM50 28L50 29L51 29L51 28ZM37 30L37 31L38 31L38 30ZM6 33L6 34L7 34L7 33ZM36 33L36 35L35 35L35 36L33 36L33 37L34 37L34 38L35 38L35 41L34 41L34 42L35 42L35 41L36 41L36 38L37 38L37 41L38 41L38 38L37 38L37 37L36 37L36 35L38 35L38 34L37 34L37 33ZM50 33L50 37L48 37L48 36L49 36L49 35L48 35L48 34L47 34L47 35L48 35L48 36L47 36L47 38L46 38L46 40L47 40L47 41L48 41L48 40L51 40L51 38L52 38L52 37L53 37L53 36L54 36L54 34L53 34L53 36L52 36L52 37L51 37L51 33ZM31 34L31 35L32 35L32 34ZM13 36L13 38L14 38L14 37L15 37L15 36ZM21 36L21 37L22 37L22 36ZM31 36L31 37L32 37L32 36ZM41 36L41 37L42 37L42 36ZM8 37L8 38L9 38L9 37ZM35 37L35 38L36 38L36 37ZM50 37L50 38L51 38L51 37ZM20 38L20 39L21 39L21 38ZM24 38L24 39L25 39L25 38ZM28 38L28 39L29 39L29 38ZM47 38L47 40L48 40L48 38ZM8 39L8 40L7 40L7 41L5 41L5 42L9 42L9 39ZM12 41L12 43L13 43L13 41ZM53 41L53 44L54 44L54 43L55 43L55 42L54 42L54 41ZM41 42L41 43L40 43L40 44L41 44L41 45L42 45L42 44L43 44L43 43L42 43L42 42ZM22 43L22 44L23 44L23 43ZM49 45L49 48L51 48L51 47L50 47L50 45ZM53 45L53 48L54 48L54 45ZM1 46L1 47L2 47L2 46ZM11 46L11 47L10 47L10 48L11 48L11 50L13 50L13 52L12 52L12 51L10 51L10 52L12 52L12 53L14 53L14 50L13 50L13 48L12 48L12 47L13 47L13 46ZM43 46L43 47L44 47L44 46ZM37 47L37 48L36 48L36 49L37 49L37 51L38 51L38 47ZM27 49L27 52L30 52L30 49ZM43 49L43 50L44 50L44 49ZM49 49L49 52L52 52L52 49ZM28 50L28 51L29 51L29 50ZM50 50L50 51L51 51L51 50ZM47 51L47 52L48 52L48 51ZM31 53L31 54L30 54L30 55L33 55L33 54L32 54L32 53ZM53 53L53 55L54 55L54 53ZM12 54L12 55L14 55L14 54ZM16 54L16 55L17 55L17 54ZM40 54L40 55L41 55L41 54ZM36 56L36 57L37 57L37 56ZM56 56L56 57L57 57L57 56ZM0 0L0 7L7 7L7 0ZM1 1L1 6L6 6L6 1ZM2 2L2 5L5 5L5 2ZM50 0L50 7L57 7L57 0ZM51 1L51 6L56 6L56 1ZM52 2L52 5L55 5L55 2ZM0 50L0 57L7 57L7 50ZM1 51L1 56L6 56L6 51ZM2 52L2 55L5 55L5 52Z" fill="#000000"/></g></g></svg>
