<?xml version="1.0" encoding="UTF-8"?>
<svg xmlns="http://www.w3.org/2000/svg" version="1.1" width="300" height="300" viewBox="0 0 300 300"><rect x="0" y="0" width="300" height="300" fill="#fefefe"/><g transform="scale(4.615)"><g transform="translate(4,4)"><path fill-rule="evenodd" d="M8 0L8 2L9 2L9 3L10 3L10 1L11 1L11 0ZM13 0L13 1L12 1L12 2L11 2L11 3L12 3L12 4L8 4L8 10L9 10L9 12L8 12L8 11L7 11L7 10L6 10L6 11L5 11L5 13L7 13L7 14L6 14L6 15L8 15L8 14L9 14L9 15L10 15L10 14L11 14L11 15L12 15L12 17L11 17L11 18L12 18L12 21L11 21L11 20L9 20L9 22L8 22L8 21L7 21L7 20L8 20L8 19L9 19L9 18L10 18L10 17L9 17L9 18L6 18L6 19L7 19L7 20L4 20L4 21L3 21L3 20L2 20L2 21L3 21L3 22L0 22L0 23L2 23L2 25L4 25L4 23L3 23L3 22L5 22L5 26L0 26L0 28L1 28L1 29L0 29L0 30L1 30L1 32L2 32L2 33L0 33L0 35L1 35L1 36L0 36L0 37L1 37L1 38L2 38L2 37L1 37L1 36L2 36L2 35L3 35L3 36L4 36L4 38L3 38L3 39L5 39L5 41L7 41L7 42L6 42L6 43L4 43L4 41L3 41L3 40L2 40L2 39L1 39L1 40L0 40L0 43L1 43L1 42L2 42L2 44L3 44L3 46L2 46L2 47L1 47L1 46L0 46L0 48L5 48L5 47L7 47L7 48L6 48L6 49L7 49L7 48L8 48L8 47L9 47L9 49L8 49L8 50L9 50L9 51L8 51L8 52L9 52L9 51L10 51L10 47L9 47L9 46L10 46L10 45L11 45L11 46L12 46L12 45L13 45L13 44L12 44L12 43L13 43L13 42L14 42L14 43L15 43L15 44L14 44L14 49L13 49L13 50L11 50L11 53L10 53L10 54L8 54L8 57L11 57L11 56L9 56L9 55L11 55L11 53L14 53L14 52L12 52L12 51L13 51L13 50L14 50L14 51L16 51L16 49L17 49L17 48L16 48L16 47L17 47L17 46L18 46L18 47L19 47L19 46L20 46L20 45L21 45L21 43L20 43L20 41L21 41L21 39L20 39L20 38L21 38L21 35L22 35L22 38L23 38L23 35L25 35L25 36L24 36L24 37L25 37L25 36L26 36L26 35L25 35L25 34L24 34L24 31L25 31L25 30L26 30L26 32L29 32L29 34L28 34L28 33L26 33L26 34L28 34L28 35L27 35L27 36L28 36L28 37L29 37L29 36L28 36L28 35L31 35L31 36L30 36L30 40L29 40L29 42L28 42L28 40L27 40L27 39L26 39L26 40L25 40L25 41L26 41L26 42L24 42L24 44L25 44L25 45L26 45L26 46L25 46L25 47L24 47L24 45L23 45L23 47L24 47L24 48L26 48L26 49L25 49L25 51L24 51L24 49L23 49L23 48L22 48L22 46L21 46L21 47L20 47L20 48L18 48L18 50L17 50L17 51L18 51L18 53L17 53L17 52L15 52L15 57L17 57L17 55L16 55L16 54L18 54L18 55L19 55L19 54L18 54L18 53L19 53L19 52L20 52L20 53L21 53L21 51L20 51L20 48L22 48L22 51L24 51L24 52L22 52L22 54L23 54L23 55L22 55L22 57L25 57L25 55L26 55L26 57L28 57L28 55L29 55L29 57L33 57L33 55L30 55L30 54L31 54L31 53L32 53L32 54L34 54L34 57L35 57L35 55L38 55L38 52L40 52L40 53L39 53L39 55L40 55L40 57L41 57L41 56L42 56L42 57L43 57L43 54L42 54L42 52L41 52L41 51L43 51L43 52L44 52L44 55L45 55L45 56L44 56L44 57L45 57L45 56L46 56L46 52L47 52L47 53L49 53L49 54L48 54L48 55L49 55L49 57L50 57L50 55L49 55L49 54L52 54L52 55L53 55L53 56L51 56L51 57L53 57L53 56L54 56L54 55L57 55L57 54L55 54L55 52L56 52L56 51L57 51L57 50L56 50L56 51L55 51L55 52L54 52L54 51L53 51L53 50L54 50L54 49L56 49L56 47L57 47L57 45L56 45L56 47L55 47L55 48L54 48L54 47L53 47L53 48L50 48L50 47L52 47L52 40L53 40L53 44L54 44L54 43L55 43L55 44L56 44L56 43L57 43L57 42L56 42L56 43L55 43L55 42L54 42L54 41L57 41L57 40L54 40L54 39L55 39L55 38L57 38L57 36L56 36L56 37L55 37L55 36L54 36L54 34L53 34L53 36L51 36L51 33L50 33L50 32L51 32L51 31L52 31L52 32L54 32L54 33L56 33L56 35L57 35L57 33L56 33L56 31L57 31L57 24L56 24L56 23L57 23L57 20L56 20L56 23L55 23L55 24L54 24L54 22L55 22L55 21L54 21L54 19L55 19L55 17L54 17L54 15L55 15L55 16L56 16L56 19L57 19L57 13L56 13L56 15L55 15L55 13L54 13L54 15L53 15L53 16L52 16L52 14L53 14L53 12L54 12L54 11L55 11L55 12L56 12L56 11L57 11L57 10L56 10L56 11L55 11L55 9L57 9L57 8L55 8L55 9L54 9L54 10L53 10L53 8L49 8L49 11L50 11L50 13L49 13L49 14L48 14L48 12L47 12L47 11L48 11L48 9L47 9L47 11L46 11L46 8L44 8L44 9L43 9L43 8L42 8L42 7L43 7L43 6L44 6L44 7L45 7L45 6L44 6L44 5L46 5L46 7L47 7L47 8L48 8L48 7L49 7L49 6L48 6L48 7L47 7L47 5L48 5L48 0L46 0L46 1L45 1L45 0L42 0L42 1L41 1L41 0L38 0L38 2L39 2L39 4L38 4L38 3L37 3L37 4L38 4L38 5L37 5L37 6L36 6L36 10L34 10L34 9L35 9L35 4L36 4L36 3L35 3L35 2L37 2L37 1L35 1L35 0L34 0L34 2L33 2L33 4L34 4L34 5L33 5L33 6L32 6L32 7L33 7L33 6L34 6L34 8L32 8L32 9L31 9L31 5L32 5L32 1L31 1L31 0L28 0L28 1L29 1L29 2L30 2L30 3L31 3L31 4L28 4L28 3L27 3L27 0L26 0L26 1L25 1L25 0L24 0L24 1L23 1L23 0L20 0L20 1L19 1L19 0L18 0L18 1L19 1L19 3L21 3L21 5L20 5L20 7L19 7L19 4L18 4L18 3L17 3L17 4L16 4L16 1L17 1L17 0L16 0L16 1L15 1L15 0ZM13 1L13 2L12 2L12 3L14 3L14 4L15 4L15 3L14 3L14 1ZM22 1L22 6L21 6L21 9L20 9L20 10L21 10L21 11L18 11L18 12L20 12L20 14L19 14L19 13L18 13L18 14L17 14L17 12L16 12L16 10L17 10L17 9L18 9L18 10L19 10L19 9L18 9L18 8L17 8L17 7L18 7L18 6L17 6L17 5L18 5L18 4L17 4L17 5L16 5L16 6L15 6L15 5L13 5L13 4L12 4L12 5L13 5L13 7L12 7L12 6L11 6L11 7L12 7L12 8L13 8L13 12L12 12L12 13L13 13L13 18L14 18L14 15L15 15L15 16L17 16L17 17L16 17L16 20L17 20L17 21L18 21L18 22L16 22L16 23L18 23L18 22L19 22L19 25L18 25L18 24L17 24L17 25L16 25L16 24L15 24L15 23L12 23L12 22L13 22L13 21L12 21L12 22L11 22L11 21L10 21L10 22L11 22L11 23L12 23L12 24L13 24L13 25L12 25L12 26L11 26L11 25L10 25L10 26L9 26L9 30L10 30L10 27L11 27L11 29L12 29L12 28L15 28L15 30L18 30L18 31L16 31L16 32L15 32L15 31L13 31L13 30L14 30L14 29L13 29L13 30L11 30L11 33L10 33L10 35L11 35L11 37L10 37L10 36L9 36L9 35L8 35L8 36L7 36L7 35L5 35L5 33L6 33L6 34L7 34L7 33L8 33L8 32L9 32L9 31L6 31L6 32L5 32L5 31L4 31L4 30L3 30L3 29L4 29L4 28L3 28L3 27L1 27L1 28L3 28L3 29L1 29L1 30L2 30L2 32L3 32L3 33L2 33L2 34L3 34L3 35L4 35L4 36L7 36L7 37L5 37L5 38L8 38L8 39L6 39L6 40L7 40L7 41L8 41L8 42L9 42L9 43L6 43L6 44L9 44L9 45L6 45L6 46L7 46L7 47L8 47L8 46L9 46L9 45L10 45L10 44L11 44L11 40L12 40L12 41L13 41L13 40L14 40L14 42L15 42L15 43L16 43L16 42L17 42L17 41L16 41L16 40L17 40L17 39L16 39L16 38L17 38L17 37L18 37L18 36L20 36L20 35L18 35L18 36L17 36L17 37L16 37L16 35L15 35L15 34L14 34L14 35L13 35L13 34L12 34L12 31L13 31L13 32L15 32L15 33L16 33L16 34L17 34L17 33L16 33L16 32L18 32L18 31L19 31L19 32L20 32L20 30L21 30L21 33L20 33L20 34L23 34L23 33L22 33L22 30L23 30L23 29L24 29L24 30L25 30L25 29L24 29L24 28L25 28L25 27L24 27L24 26L25 26L25 25L24 25L24 24L23 24L23 23L22 23L22 22L21 22L21 21L20 21L20 20L21 20L21 17L20 17L20 14L22 14L22 16L24 16L24 18L25 18L25 19L24 19L24 20L25 20L25 19L26 19L26 20L27 20L27 22L26 22L26 23L27 23L27 25L26 25L26 26L28 26L28 23L29 23L29 26L31 26L31 25L32 25L32 28L31 28L31 29L32 29L32 28L33 28L33 29L34 29L34 31L32 31L32 30L31 30L31 31L32 31L32 32L30 32L30 34L32 34L32 32L34 32L34 33L33 33L33 35L35 35L35 37L34 37L34 36L33 36L33 37L34 37L34 38L31 38L31 43L30 43L30 42L29 42L29 43L30 43L30 44L31 44L31 45L32 45L32 46L31 46L31 47L30 47L30 46L29 46L29 44L28 44L28 42L27 42L27 44L28 44L28 46L26 46L26 48L28 48L28 46L29 46L29 47L30 47L30 48L31 48L31 47L32 47L32 46L33 46L33 45L34 45L34 47L33 47L33 48L35 48L35 49L34 49L34 52L33 52L33 53L34 53L34 54L35 54L35 53L36 53L36 54L37 54L37 53L36 53L36 52L35 52L35 51L37 51L37 49L36 49L36 48L37 48L37 47L38 47L38 51L39 51L39 49L40 49L40 51L41 51L41 49L42 49L42 50L43 50L43 51L44 51L44 50L45 50L45 52L46 52L46 50L47 50L47 48L46 48L46 47L47 47L47 44L48 44L48 46L49 46L49 47L50 47L50 46L51 46L51 45L50 45L50 42L49 42L49 41L51 41L51 40L52 40L52 39L53 39L53 37L54 37L54 38L55 38L55 37L54 37L54 36L53 36L53 37L52 37L52 39L51 39L51 40L48 40L48 38L47 38L47 37L46 37L46 38L45 38L45 41L44 41L44 40L43 40L43 38L44 38L44 34L45 34L45 35L46 35L46 36L48 36L48 35L49 35L49 37L50 37L50 38L49 38L49 39L50 39L50 38L51 38L51 37L50 37L50 33L49 33L49 34L48 34L48 33L47 33L47 32L46 32L46 31L47 31L47 29L48 29L48 27L47 27L47 28L46 28L46 29L44 29L44 28L42 28L42 31L41 31L41 30L40 30L40 28L41 28L41 27L43 27L43 25L44 25L44 27L46 27L46 26L49 26L49 25L50 25L50 26L52 26L52 24L53 24L53 22L52 22L52 20L53 20L53 19L54 19L54 17L52 17L52 16L51 16L51 14L52 14L52 13L50 13L50 16L51 16L51 17L50 17L50 18L51 18L51 20L49 20L49 17L48 17L48 16L47 16L47 17L46 17L46 19L48 19L48 20L49 20L49 21L48 21L48 22L47 22L47 21L46 21L46 20L45 20L45 21L44 21L44 19L45 19L45 17L44 17L44 16L46 16L46 15L48 15L48 14L47 14L47 13L46 13L46 11L45 11L45 10L43 10L43 9L42 9L42 10L41 10L41 9L40 9L40 8L41 8L41 7L42 7L42 6L43 6L43 5L44 5L44 4L45 4L45 1L42 1L42 2L40 2L40 1L39 1L39 2L40 2L40 4L39 4L39 5L38 5L38 6L37 6L37 7L38 7L38 6L39 6L39 9L38 9L38 8L37 8L37 9L38 9L38 11L39 11L39 12L37 12L37 11L36 11L36 12L35 12L35 11L34 11L34 10L33 10L33 9L32 9L32 12L30 12L30 10L31 10L31 9L30 9L30 10L29 10L29 9L27 9L27 10L25 10L25 9L26 9L26 5L24 5L24 6L23 6L23 1ZM24 1L24 4L25 4L25 1ZM46 1L46 2L47 2L47 1ZM43 2L43 3L42 3L42 5L41 5L41 6L40 6L40 7L41 7L41 6L42 6L42 5L43 5L43 4L44 4L44 2ZM26 3L26 4L27 4L27 3ZM34 3L34 4L35 4L35 3ZM46 3L46 5L47 5L47 3ZM9 5L9 7L10 7L10 5ZM27 5L27 8L30 8L30 5ZM14 6L14 7L15 7L15 6ZM16 6L16 7L17 7L17 6ZM22 6L22 7L23 7L23 6ZM24 6L24 7L25 7L25 6ZM28 6L28 7L29 7L29 6ZM0 8L0 11L1 11L1 13L0 13L0 14L1 14L1 15L0 15L0 16L1 16L1 17L0 17L0 18L1 18L1 17L2 17L2 19L3 19L3 18L4 18L4 19L5 19L5 18L4 18L4 17L7 17L7 16L5 16L5 15L4 15L4 17L3 17L3 15L2 15L2 14L4 14L4 13L2 13L2 12L4 12L4 10L5 10L5 9L7 9L7 8L5 8L5 9L4 9L4 10L3 10L3 11L2 11L2 9L3 9L3 8ZM9 8L9 9L10 9L10 11L11 11L11 10L12 10L12 9L10 9L10 8ZM14 8L14 9L15 9L15 8ZM22 8L22 10L23 10L23 11L22 11L22 12L23 12L23 14L24 14L24 13L26 13L26 11L24 11L24 9L25 9L25 8ZM50 9L50 10L51 10L51 12L52 12L52 11L53 11L53 10L51 10L51 9ZM27 10L27 11L28 11L28 12L27 12L27 14L28 14L28 15L29 15L29 16L30 16L30 17L28 17L28 18L30 18L30 17L31 17L31 18L32 18L32 19L31 19L31 20L30 20L30 19L29 19L29 20L28 20L28 19L27 19L27 20L28 20L28 22L27 22L27 23L28 23L28 22L30 22L30 23L32 23L32 25L33 25L33 26L34 26L34 24L36 24L36 26L37 26L37 28L36 28L36 29L35 29L35 27L34 27L34 29L35 29L35 30L37 30L37 31L36 31L36 33L35 33L35 35L36 35L36 37L35 37L35 38L34 38L34 41L33 41L33 40L32 40L32 43L31 43L31 44L32 44L32 45L33 45L33 44L35 44L35 43L36 43L36 41L37 41L37 42L38 42L38 41L39 41L39 38L40 38L40 39L41 39L41 35L40 35L40 36L39 36L39 38L38 38L38 37L37 37L37 36L38 36L38 35L39 35L39 34L38 34L38 33L39 33L39 32L40 32L40 34L42 34L42 33L43 33L43 34L44 34L44 33L45 33L45 34L46 34L46 35L48 35L48 34L46 34L46 33L45 33L45 31L46 31L46 30L45 30L45 31L42 31L42 33L41 33L41 32L40 32L40 30L39 30L39 31L38 31L38 30L37 30L37 28L38 28L38 29L39 29L39 28L40 28L40 27L41 27L41 26L40 26L40 25L41 25L41 24L42 24L42 25L43 25L43 24L42 24L42 23L43 23L43 22L44 22L44 23L45 23L45 22L44 22L44 21L43 21L43 20L42 20L42 19L44 19L44 17L43 17L43 18L42 18L42 17L41 17L41 15L42 15L42 12L43 12L43 10L42 10L42 12L41 12L41 11L40 11L40 10L39 10L39 11L40 11L40 14L39 14L39 15L40 15L40 18L38 18L38 16L37 16L37 15L38 15L38 13L37 13L37 12L36 12L36 13L37 13L37 14L36 14L36 18L34 18L34 17L35 17L35 15L34 15L34 13L35 13L35 12L34 12L34 11L33 11L33 12L32 12L32 13L31 13L31 15L32 15L32 13L33 13L33 15L34 15L34 17L33 17L33 16L32 16L32 17L31 17L31 16L30 16L30 15L29 15L29 13L30 13L30 12L29 12L29 11L28 11L28 10ZM6 11L6 12L7 12L7 13L8 13L8 12L7 12L7 11ZM14 11L14 12L15 12L15 11ZM23 11L23 12L24 12L24 11ZM9 12L9 13L11 13L11 12ZM44 12L44 14L43 14L43 16L44 16L44 14L45 14L45 15L46 15L46 13L45 13L45 12ZM1 13L1 14L2 14L2 13ZM15 14L15 15L17 15L17 14ZM18 14L18 15L19 15L19 14ZM25 14L25 16L26 16L26 17L25 17L25 18L26 18L26 17L27 17L27 16L26 16L26 14ZM40 14L40 15L41 15L41 14ZM18 16L18 17L17 17L17 18L18 18L18 21L19 21L19 19L20 19L20 17L19 17L19 16ZM18 17L18 18L19 18L19 17ZM32 17L32 18L33 18L33 19L34 19L34 20L33 20L33 21L32 21L32 20L31 20L31 21L30 21L30 20L29 20L29 21L30 21L30 22L33 22L33 21L34 21L34 22L35 22L35 23L36 23L36 24L37 24L37 25L38 25L38 26L39 26L39 25L40 25L40 24L39 24L39 25L38 25L38 23L36 23L36 22L37 22L37 21L36 21L36 20L35 20L35 19L34 19L34 18L33 18L33 17ZM47 17L47 18L48 18L48 17ZM51 17L51 18L52 18L52 17ZM36 18L36 19L37 19L37 20L38 20L38 22L39 22L39 23L41 23L41 22L40 22L40 19L41 19L41 18L40 18L40 19L39 19L39 20L38 20L38 19L37 19L37 18ZM0 19L0 21L1 21L1 19ZM14 19L14 20L15 20L15 19ZM5 21L5 22L7 22L7 23L6 23L6 24L8 24L8 25L9 25L9 24L8 24L8 22L7 22L7 21ZM14 21L14 22L15 22L15 21ZM35 21L35 22L36 22L36 21ZM42 21L42 22L43 22L43 21ZM20 22L20 23L21 23L21 22ZM24 22L24 23L25 23L25 22ZM48 22L48 23L46 23L46 24L44 24L44 25L45 25L45 26L46 26L46 25L47 25L47 24L50 24L50 22ZM51 22L51 23L52 23L52 22ZM33 23L33 24L34 24L34 23ZM0 24L0 25L1 25L1 24ZM22 24L22 26L20 26L20 27L21 27L21 30L22 30L22 29L23 29L23 28L22 28L22 27L23 27L23 26L24 26L24 25L23 25L23 24ZM30 24L30 25L31 25L31 24ZM55 24L55 25L54 25L54 26L55 26L55 27L54 27L54 28L53 28L53 29L54 29L54 30L55 30L55 31L54 31L54 32L55 32L55 31L56 31L56 30L55 30L55 29L56 29L56 24ZM6 25L6 26L7 26L7 25ZM13 25L13 26L12 26L12 27L13 27L13 26L16 26L16 25ZM17 25L17 26L18 26L18 25ZM5 27L5 30L8 30L8 27ZM15 27L15 28L16 28L16 27ZM18 27L18 28L19 28L19 27ZM27 27L27 30L30 30L30 27ZM49 27L49 30L52 30L52 27ZM6 28L6 29L7 29L7 28ZM28 28L28 29L29 29L29 28ZM50 28L50 29L51 29L51 28ZM19 29L19 30L20 30L20 29ZM43 29L43 30L44 30L44 29ZM34 31L34 32L35 32L35 31ZM37 31L37 32L38 32L38 31ZM6 32L6 33L7 33L7 32ZM3 33L3 34L4 34L4 33ZM36 33L36 35L38 35L38 34L37 34L37 33ZM12 35L12 37L11 37L11 39L12 39L12 38L13 38L13 39L14 39L14 40L15 40L15 39L14 39L14 37L15 37L15 35L14 35L14 37L13 37L13 35ZM42 35L42 37L43 37L43 35ZM8 36L8 37L9 37L9 38L10 38L10 37L9 37L9 36ZM31 36L31 37L32 37L32 36ZM36 37L36 38L35 38L35 41L34 41L34 42L35 42L35 41L36 41L36 38L37 38L37 37ZM18 38L18 40L19 40L19 41L20 41L20 40L19 40L19 38ZM24 38L24 39L25 39L25 38ZM28 38L28 39L29 39L29 38ZM46 38L46 41L45 41L45 42L46 42L46 43L45 43L45 44L44 44L44 45L43 45L43 44L42 44L42 45L41 45L41 43L44 43L44 41L43 41L43 40L42 40L42 41L41 41L41 40L40 40L40 42L39 42L39 43L37 43L37 44L36 44L36 45L35 45L35 47L36 47L36 45L37 45L37 46L38 46L38 45L37 45L37 44L39 44L39 43L40 43L40 46L41 46L41 47L40 47L40 49L41 49L41 47L42 47L42 45L43 45L43 46L44 46L44 45L45 45L45 47L46 47L46 44L47 44L47 42L46 42L46 41L48 41L48 40L47 40L47 38ZM8 39L8 41L9 41L9 42L10 42L10 40L9 40L9 39ZM37 39L37 41L38 41L38 39ZM22 40L22 41L23 41L23 40ZM15 41L15 42L16 42L16 41ZM42 41L42 42L43 42L43 41ZM40 42L40 43L41 43L41 42ZM48 42L48 44L49 44L49 42ZM3 43L3 44L4 44L4 46L3 46L3 47L5 47L5 44L4 44L4 43ZM9 43L9 44L10 44L10 43ZM18 43L18 44L20 44L20 43ZM22 43L22 44L23 44L23 43ZM15 44L15 45L16 45L16 46L15 46L15 47L16 47L16 46L17 46L17 45L16 45L16 44ZM18 45L18 46L19 46L19 45ZM53 45L53 46L54 46L54 45ZM11 47L11 48L13 48L13 47ZM15 48L15 49L16 49L16 48ZM44 48L44 49L43 49L43 50L44 50L44 49L45 49L45 50L46 50L46 48ZM53 48L53 49L54 49L54 48ZM27 49L27 52L30 52L30 49ZM49 49L49 52L52 52L52 49ZM28 50L28 51L29 51L29 50ZM50 50L50 51L51 51L51 50ZM25 51L25 53L26 53L26 55L28 55L28 53L26 53L26 51ZM31 51L31 52L32 52L32 51ZM47 51L47 52L48 52L48 51ZM13 54L13 55L12 55L12 56L13 56L13 57L14 57L14 56L13 56L13 55L14 55L14 54ZM20 54L20 55L21 55L21 54ZM24 54L24 55L25 55L25 54ZM40 54L40 55L41 55L41 54ZM53 54L53 55L54 55L54 54ZM18 56L18 57L19 57L19 56ZM36 56L36 57L37 57L37 56ZM47 56L47 57L48 57L48 56ZM56 56L56 57L57 57L57 56ZM0 0L0 7L7 7L7 0ZM1 1L1 6L6 6L6 1ZM2 2L2 5L5 5L5 2ZM50 0L50 7L57 7L57 0ZM51 1L51 6L56 6L56 1ZM52 2L52 5L55 5L55 2ZM0 50L0 57L7 57L7 50ZM1 51L1 56L6 56L6 51ZM2 52L2 55L5 55L5 52Z" fill="#000000"/></g></g></svg>
