<?xml version="1.0" encoding="UTF-8"?>
<svg xmlns="http://www.w3.org/2000/svg" version="1.1" width="300" height="300" viewBox="0 0 300 300"><rect x="0" y="0" width="300" height="300" fill="#fefefe"/><g transform="scale(4.615)"><g transform="translate(4,4)"><path fill-rule="evenodd" d="M9 0L9 1L8 1L8 2L9 2L9 1L10 1L10 3L8 3L8 4L11 4L11 5L8 5L8 7L9 7L9 6L10 6L10 7L11 7L11 9L12 9L12 8L13 8L13 9L14 9L14 7L15 7L15 8L16 8L16 9L15 9L15 10L11 10L11 11L9 11L9 14L8 14L8 10L10 10L10 9L9 9L9 8L6 8L6 9L5 9L5 8L0 8L0 11L1 11L1 12L2 12L2 13L3 13L3 16L2 16L2 15L1 15L1 13L0 13L0 17L1 17L1 18L0 18L0 19L1 19L1 20L0 20L0 21L4 21L4 22L5 22L5 26L4 26L4 23L3 23L3 22L0 22L0 23L1 23L1 24L0 24L0 25L1 25L1 27L0 27L0 29L2 29L2 30L1 30L1 31L0 31L0 32L2 32L2 33L0 33L0 35L1 35L1 36L3 36L3 32L4 32L4 33L5 33L5 36L4 36L4 38L3 38L3 37L2 37L2 38L1 38L1 37L0 37L0 38L1 38L1 40L0 40L0 41L3 41L3 39L4 39L4 40L5 40L5 41L7 41L7 42L3 42L3 43L5 43L5 44L6 44L6 45L7 45L7 44L8 44L8 46L5 46L5 47L3 47L3 46L4 46L4 44L1 44L1 43L0 43L0 48L5 48L5 47L8 47L8 48L10 48L10 49L8 49L8 51L10 51L10 52L8 52L8 57L11 57L11 56L12 56L12 57L13 57L13 56L12 56L12 54L11 54L11 53L13 53L13 54L15 54L15 55L16 55L16 56L14 56L14 57L16 57L16 56L17 56L17 57L19 57L19 55L20 55L20 54L19 54L19 53L20 53L20 52L21 52L21 53L22 53L22 55L21 55L21 56L24 56L24 57L26 57L26 56L24 56L24 55L23 55L23 54L24 54L24 53L27 53L27 54L30 54L30 53L31 53L31 50L32 50L32 52L33 52L33 50L34 50L34 51L35 51L35 52L34 52L34 53L35 53L35 54L36 54L36 56L35 56L35 55L34 55L34 54L33 54L33 53L32 53L32 54L31 54L31 56L30 56L30 55L29 55L29 56L27 56L27 57L29 57L29 56L30 56L30 57L31 57L31 56L35 56L35 57L39 57L39 56L37 56L37 54L38 54L38 55L40 55L40 56L42 56L42 55L44 55L44 54L45 54L45 53L44 53L44 52L45 52L45 51L43 51L43 49L44 49L44 48L43 48L43 47L42 47L42 48L41 48L41 46L43 46L43 45L44 45L44 47L45 47L45 50L46 50L46 52L47 52L47 50L48 50L48 54L46 54L46 55L48 55L48 56L47 56L47 57L48 57L48 56L50 56L50 57L52 57L52 55L51 55L51 53L52 53L52 54L53 54L53 55L54 55L54 56L53 56L53 57L54 57L54 56L55 56L55 57L56 57L56 56L55 56L55 55L54 55L54 54L53 54L53 52L54 52L54 53L55 53L55 52L56 52L56 53L57 53L57 51L56 51L56 50L57 50L57 48L56 48L56 46L57 46L57 45L56 45L56 44L55 44L55 43L56 43L56 42L55 42L55 41L53 41L53 40L55 40L55 39L57 39L57 35L56 35L56 33L57 33L57 32L56 32L56 30L57 30L57 29L55 29L55 30L53 30L53 29L54 29L54 28L56 28L56 27L55 27L55 26L57 26L57 25L56 25L56 22L57 22L57 20L56 20L56 19L55 19L55 18L57 18L57 17L56 17L56 16L57 16L57 15L56 15L56 14L57 14L57 13L56 13L56 14L55 14L55 13L54 13L54 12L55 12L55 11L56 11L56 10L54 10L54 11L50 11L50 8L49 8L49 6L48 6L48 7L47 7L47 5L48 5L48 0L45 0L45 2L44 2L44 3L42 3L42 2L43 2L43 0L41 0L41 1L40 1L40 0L39 0L39 1L38 1L38 0L37 0L37 1L38 1L38 2L37 2L37 3L36 3L36 0L35 0L35 1L33 1L33 0L32 0L32 1L33 1L33 2L32 2L32 3L30 3L30 2L31 2L31 0L29 0L29 1L30 1L30 2L27 2L27 1L25 1L25 0L23 0L23 2L27 2L27 3L29 3L29 4L26 4L26 3L23 3L23 4L22 4L22 5L23 5L23 6L22 6L22 7L21 7L21 4L19 4L19 3L18 3L18 2L19 2L19 1L20 1L20 3L21 3L21 1L22 1L22 0L21 0L21 1L20 1L20 0L17 0L17 1L16 1L16 2L15 2L15 1L14 1L14 2L13 2L13 3L12 3L12 0ZM17 1L17 2L16 2L16 3L15 3L15 2L14 2L14 4L13 4L13 5L14 5L14 6L13 6L13 7L14 7L14 6L15 6L15 7L16 7L16 8L17 8L17 9L16 9L16 10L15 10L15 13L12 13L12 12L10 12L10 15L12 15L12 14L15 14L15 13L16 13L16 16L14 16L14 18L12 18L12 20L13 20L13 21L14 21L14 23L12 23L12 21L10 21L10 20L9 20L9 19L11 19L11 18L10 18L10 16L9 16L9 18L7 18L7 17L8 17L8 16L7 16L7 15L6 15L6 14L7 14L7 13L6 13L6 14L5 14L5 12L4 12L4 14L5 14L5 16L7 16L7 17L4 17L4 16L3 16L3 17L2 17L2 20L4 20L4 21L5 21L5 22L7 22L7 23L6 23L6 24L7 24L7 25L6 25L6 26L7 26L7 25L8 25L8 26L9 26L9 25L10 25L10 27L9 27L9 28L10 28L10 27L11 27L11 29L12 29L12 28L13 28L13 29L16 29L16 30L17 30L17 32L16 32L16 33L15 33L15 32L13 32L13 34L12 34L12 31L15 31L15 30L12 30L12 31L6 31L6 32L9 32L9 33L8 33L8 34L7 34L7 33L6 33L6 34L7 34L7 35L6 35L6 36L5 36L5 37L6 37L6 38L4 38L4 39L6 39L6 40L7 40L7 39L10 39L10 38L11 38L11 37L12 37L12 38L13 38L13 39L11 39L11 40L10 40L10 41L9 41L9 42L10 42L10 43L9 43L9 44L10 44L10 45L9 45L9 46L10 46L10 48L11 48L11 49L10 49L10 50L11 50L11 52L14 52L14 53L15 53L15 54L16 54L16 53L17 53L17 52L16 52L16 53L15 53L15 50L17 50L17 51L18 51L18 52L19 52L19 51L20 51L20 50L21 50L21 49L23 49L23 48L24 48L24 49L25 49L25 50L23 50L23 52L22 52L22 51L21 51L21 52L22 52L22 53L24 53L24 52L26 52L26 49L25 49L25 48L27 48L27 47L26 47L26 45L27 45L27 46L31 46L31 44L28 44L28 43L29 43L29 41L30 41L30 42L32 42L32 43L33 43L33 44L32 44L32 47L31 47L31 48L32 48L32 50L33 50L33 49L34 49L34 50L36 50L36 52L37 52L37 53L38 53L38 54L40 54L40 53L42 53L42 52L43 52L43 51L42 51L42 50L41 50L41 48L39 48L39 47L40 47L40 46L41 46L41 44L42 44L42 42L41 42L41 43L40 43L40 44L39 44L39 45L38 45L38 46L39 46L39 47L38 47L38 48L37 48L37 49L38 49L38 50L36 50L36 49L34 49L34 48L32 48L32 47L33 47L33 46L35 46L35 45L34 45L34 43L35 43L35 44L36 44L36 43L37 43L37 42L35 42L35 40L38 40L38 42L39 42L39 41L41 41L41 40L43 40L43 41L44 41L44 43L43 43L43 44L44 44L44 45L45 45L45 46L47 46L47 47L46 47L46 48L47 48L47 49L46 49L46 50L47 50L47 49L48 49L48 48L49 48L49 47L52 47L52 48L53 48L53 49L56 49L56 48L53 48L53 47L54 47L54 46L53 46L53 45L52 45L52 44L53 44L53 43L54 43L54 42L53 42L53 41L51 41L51 42L50 42L50 43L49 43L49 42L48 42L48 41L49 41L49 40L50 40L50 39L51 39L51 40L53 40L53 39L55 39L55 37L56 37L56 35L55 35L55 34L54 34L54 33L52 33L52 32L53 32L53 31L52 31L52 32L51 32L51 31L48 31L48 30L47 30L47 29L48 29L48 28L47 28L47 29L46 29L46 30L47 30L47 31L45 31L45 32L43 32L43 30L41 30L41 29L44 29L44 30L45 30L45 28L46 28L46 27L48 27L48 26L47 26L47 23L45 23L45 22L47 22L47 21L48 21L48 19L50 19L50 18L51 18L51 19L52 19L52 20L51 20L51 21L49 21L49 23L48 23L48 25L49 25L49 23L50 23L50 26L51 26L51 25L53 25L53 23L50 23L50 22L51 22L51 21L54 21L54 22L56 22L56 20L53 20L53 19L52 19L52 18L55 18L55 17L53 17L53 15L52 15L52 16L51 16L51 15L50 15L50 14L51 14L51 12L50 12L50 11L49 11L49 10L47 10L47 8L45 8L45 7L46 7L46 6L45 6L45 4L46 4L46 5L47 5L47 3L44 3L44 6L43 6L43 5L42 5L42 4L41 4L41 3L37 3L37 4L36 4L36 5L35 5L35 2L33 2L33 3L32 3L32 4L31 4L31 8L32 8L32 10L31 10L31 11L30 11L30 10L29 10L29 9L27 9L27 10L28 10L28 11L29 11L29 12L28 12L28 13L27 13L27 15L26 15L26 14L24 14L24 15L21 15L21 13L22 13L22 14L23 14L23 13L24 13L24 12L25 12L25 13L26 13L26 12L27 12L27 11L26 11L26 12L25 12L25 10L23 10L23 11L24 11L24 12L23 12L23 13L22 13L22 12L21 12L21 13L20 13L20 11L22 11L22 10L21 10L21 9L23 9L23 8L24 8L24 6L23 6L23 7L22 7L22 8L19 8L19 7L20 7L20 5L19 5L19 4L18 4L18 3L17 3L17 2L18 2L18 1ZM46 1L46 2L47 2L47 1ZM11 3L11 4L12 4L12 3ZM33 3L33 4L32 4L32 5L33 5L33 6L32 6L32 7L33 7L33 9L34 9L34 8L35 8L35 9L37 9L37 10L36 10L36 11L37 11L37 12L35 12L35 13L37 13L37 14L38 14L38 15L39 15L39 16L38 16L38 17L37 17L37 16L35 16L35 14L33 14L33 13L34 13L34 12L33 12L33 10L32 10L32 12L31 12L31 13L30 13L30 14L29 14L29 13L28 13L28 14L29 14L29 16L28 16L28 15L27 15L27 16L26 16L26 15L24 15L24 16L26 16L26 17L22 17L22 16L21 16L21 17L22 17L22 18L21 18L21 20L22 20L22 19L23 19L23 20L24 20L24 21L22 21L22 22L21 22L21 23L22 23L22 24L24 24L24 25L22 25L22 26L20 26L20 25L21 25L21 24L20 24L20 25L19 25L19 24L17 24L17 22L18 22L18 23L20 23L20 22L18 22L18 21L20 21L20 20L18 20L18 21L16 21L16 20L17 20L17 18L15 18L15 21L16 21L16 22L15 22L15 23L14 23L14 24L13 24L13 25L12 25L12 24L10 24L10 25L12 25L12 26L11 26L11 27L12 27L12 26L13 26L13 28L14 28L14 26L15 26L15 23L16 23L16 24L17 24L17 26L16 26L16 27L18 27L18 26L20 26L20 27L22 27L22 26L24 26L24 27L25 27L25 28L23 28L23 30L25 30L25 31L24 31L24 32L25 32L25 31L26 31L26 33L27 33L27 31L31 31L31 29L32 29L32 28L31 28L31 26L32 26L32 27L33 27L33 28L35 28L35 29L38 29L38 28L39 28L39 27L41 27L41 28L42 28L42 27L41 27L41 26L43 26L43 28L45 28L45 27L44 27L44 20L45 20L45 21L47 21L47 19L46 19L46 20L45 20L45 18L44 18L44 12L43 12L43 13L39 13L39 12L41 12L41 11L43 11L43 9L44 9L44 11L45 11L45 12L47 12L47 10L46 10L46 9L44 9L44 8L43 8L43 6L42 6L42 5L41 5L41 4L40 4L40 5L39 5L39 6L38 6L38 7L37 7L37 5L38 5L38 4L37 4L37 5L36 5L36 7L37 7L37 8L35 8L35 5L33 5L33 4L34 4L34 3ZM15 4L15 5L16 5L16 4ZM17 4L17 6L16 6L16 7L17 7L17 6L18 6L18 7L19 7L19 6L18 6L18 4ZM23 4L23 5L24 5L24 4ZM25 4L25 8L26 8L26 4ZM27 5L27 8L30 8L30 5ZM40 5L40 6L39 6L39 7L40 7L40 8L39 8L39 9L38 9L38 11L39 11L39 9L40 9L40 11L41 11L41 9L42 9L42 8L41 8L41 7L42 7L42 6L41 6L41 5ZM11 6L11 7L12 7L12 6ZM28 6L28 7L29 7L29 6ZM33 6L33 7L34 7L34 6ZM40 6L40 7L41 7L41 6ZM44 6L44 7L45 7L45 6ZM18 8L18 9L17 9L17 10L18 10L18 11L17 11L17 12L16 12L16 13L17 13L17 14L20 14L20 13L19 13L19 11L20 11L20 9L19 9L19 8ZM51 8L51 10L53 10L53 9L54 9L54 8L53 8L53 9L52 9L52 8ZM55 8L55 9L56 9L56 8ZM2 9L2 10L3 10L3 11L6 11L6 12L7 12L7 11L6 11L6 10L7 10L7 9L6 9L6 10L4 10L4 9ZM18 9L18 10L19 10L19 9ZM45 10L45 11L46 11L46 10ZM13 11L13 12L14 12L14 11ZM17 12L17 13L18 13L18 12ZM32 12L32 13L31 13L31 14L30 14L30 15L31 15L31 14L32 14L32 13L33 13L33 12ZM49 12L49 13L47 13L47 14L45 14L45 15L47 15L47 16L45 16L45 17L47 17L47 18L50 18L50 17L49 17L49 16L50 16L50 15L49 15L49 14L50 14L50 12ZM52 12L52 13L53 13L53 12ZM11 13L11 14L12 14L12 13ZM38 13L38 14L39 14L39 13ZM40 14L40 15L41 15L41 16L39 16L39 17L38 17L38 18L37 18L37 17L35 17L35 16L31 16L31 18L30 18L30 20L29 20L29 19L28 19L28 18L27 18L27 17L28 17L28 16L27 16L27 17L26 17L26 20L25 20L25 21L24 21L24 22L22 22L22 23L24 23L24 24L25 24L25 25L26 25L26 26L25 26L25 27L26 27L26 26L29 26L29 25L31 25L31 24L32 24L32 26L33 26L33 27L34 27L34 26L36 26L36 27L35 27L35 28L37 28L37 27L39 27L39 26L40 26L40 25L43 25L43 24L40 24L40 22L39 22L39 21L43 21L43 20L44 20L44 18L43 18L43 20L42 20L42 18L41 18L41 20L39 20L39 21L38 21L38 20L37 20L37 19L39 19L39 17L41 17L41 16L42 16L42 17L43 17L43 16L42 16L42 15L43 15L43 14ZM18 15L18 16L16 16L16 17L18 17L18 19L20 19L20 15ZM48 15L48 16L47 16L47 17L48 17L48 16L49 16L49 15ZM3 17L3 19L5 19L5 20L6 20L6 21L7 21L7 22L8 22L8 23L7 23L7 24L8 24L8 25L9 25L9 21L8 21L8 20L6 20L6 19L7 19L7 18L4 18L4 17ZM23 18L23 19L24 19L24 18ZM31 18L31 21L28 21L28 22L31 22L31 21L32 21L32 20L33 20L33 21L35 21L35 23L32 23L32 24L33 24L33 25L37 25L37 26L38 26L38 25L40 25L40 24L37 24L37 23L39 23L39 22L37 22L37 20L36 20L36 19L33 19L33 18ZM13 19L13 20L14 20L14 19ZM27 19L27 20L28 20L28 19ZM25 21L25 22L26 22L26 23L25 23L25 24L27 24L27 25L28 25L28 24L29 24L29 23L28 23L28 24L27 24L27 21ZM41 22L41 23L42 23L42 22ZM2 23L2 27L3 27L3 29L4 29L4 27L3 27L3 23ZM54 24L54 25L55 25L55 24ZM13 25L13 26L14 26L14 25ZM53 26L53 27L54 27L54 26ZM5 27L5 30L8 30L8 27ZM27 27L27 30L30 30L30 27ZM49 27L49 30L52 30L52 27ZM6 28L6 29L7 29L7 28ZM16 28L16 29L18 29L18 30L20 30L20 31L19 31L19 32L17 32L17 33L18 33L18 34L17 34L17 35L16 35L16 34L13 34L13 35L12 35L12 34L11 34L11 33L9 33L9 34L8 34L8 35L9 35L9 37L8 37L8 38L10 38L10 36L12 36L12 37L13 37L13 35L14 35L14 36L18 36L18 37L17 37L17 38L18 38L18 39L19 39L19 40L17 40L17 41L19 41L19 42L18 42L18 43L16 43L16 45L17 45L17 46L14 46L14 45L13 45L13 46L12 46L12 45L10 45L10 46L12 46L12 47L13 47L13 48L12 48L12 50L14 50L14 49L13 49L13 48L14 48L14 47L15 47L15 48L17 48L17 50L18 50L18 51L19 51L19 50L20 50L20 49L19 49L19 48L17 48L17 47L20 47L20 45L19 45L19 44L20 44L20 43L19 43L19 42L20 42L20 41L19 41L19 40L22 40L22 39L24 39L24 40L25 40L25 37L27 37L27 38L26 38L26 40L27 40L27 41L26 41L26 42L27 42L27 41L28 41L28 39L27 39L27 38L28 38L28 37L27 37L27 34L26 34L26 35L25 35L25 33L23 33L23 34L24 34L24 36L23 36L23 35L22 35L22 33L21 33L21 34L20 34L20 31L21 31L21 32L23 32L23 31L21 31L21 30L20 30L20 29L22 29L22 28L19 28L19 29L18 29L18 28ZM25 28L25 29L26 29L26 28ZM28 28L28 29L29 29L29 28ZM50 28L50 29L51 29L51 28ZM39 29L39 30L38 30L38 32L39 32L39 30L40 30L40 29ZM2 30L2 32L3 32L3 31L4 31L4 30ZM32 30L32 31L33 31L33 33L32 33L32 32L31 32L31 33L29 33L29 32L28 32L28 33L29 33L29 34L30 34L30 36L29 36L29 37L31 37L31 38L29 38L29 39L33 39L33 40L35 40L35 39L37 39L37 38L38 38L38 37L40 37L40 38L43 38L43 37L44 37L44 38L45 38L45 39L43 39L43 40L47 40L47 39L50 39L50 38L48 38L48 37L49 37L49 35L50 35L50 37L52 37L52 35L53 35L53 37L55 37L55 35L53 35L53 34L52 34L52 33L51 33L51 32L50 32L50 34L49 34L49 35L47 35L47 34L45 34L45 35L44 35L44 33L43 33L43 32L41 32L41 33L39 33L39 34L40 34L40 35L39 35L39 36L38 36L38 37L37 37L37 36L35 36L35 34L37 34L37 35L38 35L38 33L37 33L37 32L35 32L35 31L36 31L36 30ZM47 31L47 32L48 32L48 33L49 33L49 32L48 32L48 31ZM55 32L55 33L56 33L56 32ZM31 33L31 35L32 35L32 33ZM33 33L33 34L35 34L35 33ZM19 34L19 37L18 37L18 38L19 38L19 39L20 39L20 38L19 38L19 37L22 37L22 38L24 38L24 37L23 37L23 36L22 36L22 35L21 35L21 36L20 36L20 34ZM42 34L42 36L40 36L40 37L43 37L43 36L44 36L44 37L45 37L45 38L46 38L46 39L47 39L47 37L48 37L48 36L47 36L47 37L46 37L46 36L44 36L44 35L43 35L43 34ZM50 34L50 35L52 35L52 34ZM6 36L6 37L7 37L7 36ZM32 36L32 37L33 37L33 39L35 39L35 36ZM15 37L15 38L14 38L14 39L13 39L13 41L14 41L14 42L13 42L13 43L14 43L14 42L15 42L15 41L14 41L14 39L15 39L15 40L16 40L16 39L15 39L15 38L16 38L16 37ZM2 38L2 39L3 39L3 38ZM6 38L6 39L7 39L7 38ZM51 38L51 39L52 39L52 38ZM38 39L38 40L41 40L41 39ZM11 40L11 41L12 41L12 40ZM31 40L31 41L32 41L32 42L33 42L33 43L34 43L34 42L33 42L33 41L32 41L32 40ZM21 41L21 42L22 42L22 43L21 43L21 44L22 44L22 45L21 45L21 47L23 47L23 46L25 46L25 45L24 45L24 44L23 44L23 42L25 42L25 41L23 41L23 42L22 42L22 41ZM11 42L11 44L12 44L12 42ZM47 42L47 43L46 43L46 44L45 44L45 45L47 45L47 46L48 46L48 47L47 47L47 48L48 48L48 47L49 47L49 46L50 46L50 44L51 44L51 43L53 43L53 42L51 42L51 43L50 43L50 44L48 44L48 45L47 45L47 43L48 43L48 42ZM6 43L6 44L7 44L7 43ZM25 43L25 44L27 44L27 45L28 45L28 44L27 44L27 43ZM17 44L17 45L18 45L18 44ZM54 44L54 45L55 45L55 46L56 46L56 45L55 45L55 44ZM2 45L2 46L1 46L1 47L2 47L2 46L3 46L3 45ZM22 45L22 46L23 46L23 45ZM13 46L13 47L14 47L14 46ZM36 46L36 47L35 47L35 48L36 48L36 47L37 47L37 46ZM52 46L52 47L53 47L53 46ZM29 47L29 48L30 48L30 47ZM6 48L6 49L7 49L7 48ZM38 48L38 49L39 49L39 48ZM42 48L42 49L43 49L43 48ZM27 49L27 52L30 52L30 49ZM49 49L49 52L52 52L52 49ZM28 50L28 51L29 51L29 50ZM38 50L38 53L39 53L39 51L40 51L40 52L41 52L41 50ZM50 50L50 51L51 51L51 50ZM54 50L54 51L55 51L55 50ZM43 53L43 54L44 54L44 53ZM9 54L9 56L11 56L11 55L10 55L10 54ZM17 54L17 56L18 56L18 55L19 55L19 54ZM25 54L25 55L26 55L26 54ZM41 54L41 55L42 55L42 54ZM50 55L50 56L51 56L51 55ZM43 56L43 57L44 57L44 56ZM45 56L45 57L46 57L46 56ZM0 0L0 7L7 7L7 0ZM1 1L1 6L6 6L6 1ZM2 2L2 5L5 5L5 2ZM50 0L50 7L57 7L57 0ZM51 1L51 6L56 6L56 1ZM52 2L52 5L55 5L55 2ZM0 50L0 57L7 57L7 50ZM1 51L1 56L6 56L6 51ZM2 52L2 55L5 55L5 52Z" fill="#000000"/></g></g></svg>
