<?xml version="1.0" encoding="UTF-8"?>
<svg xmlns="http://www.w3.org/2000/svg" version="1.1" width="300" height="300" viewBox="0 0 300 300"><rect x="0" y="0" width="300" height="300" fill="#fefefe"/><g transform="scale(4.615)"><g transform="translate(4,4)"><path fill-rule="evenodd" d="M12 0L12 1L10 1L10 2L11 2L11 4L10 4L10 5L8 5L8 7L9 7L9 8L6 8L6 9L7 9L7 10L6 10L6 11L5 11L5 12L3 12L3 11L4 11L4 10L5 10L5 8L0 8L0 9L2 9L2 10L0 10L0 12L1 12L1 13L2 13L2 12L3 12L3 14L2 14L2 15L1 15L1 14L0 14L0 15L1 15L1 17L0 17L0 18L1 18L1 19L3 19L3 18L5 18L5 19L7 19L7 18L8 18L8 17L9 17L9 16L10 16L10 18L9 18L9 21L10 21L10 18L11 18L11 15L12 15L12 17L14 17L14 18L15 18L15 21L16 21L16 22L14 22L14 21L13 21L13 20L14 20L14 19L13 19L13 18L12 18L12 19L13 19L13 20L12 20L12 21L11 21L11 22L8 22L8 20L6 20L6 21L5 21L5 22L4 22L4 20L3 20L3 21L2 21L2 20L1 20L1 21L2 21L2 24L1 24L1 25L0 25L0 26L1 26L1 27L0 27L0 29L1 29L1 30L2 30L2 31L0 31L0 32L1 32L1 33L0 33L0 34L1 34L1 33L3 33L3 32L6 32L6 33L7 33L7 34L5 34L5 33L4 33L4 34L3 34L3 35L2 35L2 36L0 36L0 41L1 41L1 44L0 44L0 45L1 45L1 46L0 46L0 48L5 48L5 47L7 47L7 46L8 46L8 48L6 48L6 49L8 49L8 51L11 51L11 52L8 52L8 57L13 57L13 56L9 56L9 54L10 54L10 55L11 55L11 53L12 53L12 55L13 55L13 54L15 54L15 55L14 55L14 57L15 57L15 55L16 55L16 56L17 56L17 57L19 57L19 55L20 55L20 54L19 54L19 53L20 53L20 52L21 52L21 50L22 50L22 52L23 52L23 50L26 50L26 52L24 52L24 53L23 53L23 54L22 54L22 53L21 53L21 56L24 56L24 57L26 57L26 56L27 56L27 57L29 57L29 56L30 56L30 57L31 57L31 56L35 56L35 57L39 57L39 56L40 56L40 55L41 55L41 56L42 56L42 55L44 55L44 54L45 54L45 53L44 53L44 52L45 52L45 51L43 51L43 49L44 49L44 50L46 50L46 52L47 52L47 50L48 50L48 53L47 53L47 56L46 56L46 55L45 55L45 57L47 57L47 56L48 56L48 57L49 57L49 56L50 56L50 57L52 57L52 55L51 55L51 53L52 53L52 54L53 54L53 57L54 57L54 56L55 56L55 57L56 57L56 56L55 56L55 53L56 53L56 50L55 50L55 49L53 49L53 48L56 48L56 49L57 49L57 48L56 48L56 46L57 46L57 43L56 43L56 42L55 42L55 39L57 39L57 37L56 37L56 36L55 36L55 35L56 35L56 34L55 34L55 32L56 32L56 33L57 33L57 32L56 32L56 30L57 30L57 29L56 29L56 26L57 26L57 25L56 25L56 22L57 22L57 21L56 21L56 22L55 22L55 23L53 23L53 22L54 22L54 21L51 21L51 20L52 20L52 19L53 19L53 20L55 20L55 19L56 19L56 20L57 20L57 19L56 19L56 18L57 18L57 17L56 17L56 16L57 16L57 15L56 15L56 14L57 14L57 11L56 11L56 10L54 10L54 11L51 11L51 10L52 10L52 8L51 8L51 10L50 10L50 8L48 8L48 9L47 9L47 5L48 5L48 0L46 0L46 1L45 1L45 2L44 2L44 3L42 3L42 2L43 2L43 0L41 0L41 1L40 1L40 0L39 0L39 1L38 1L38 0L37 0L37 1L38 1L38 2L37 2L37 3L36 3L36 0L35 0L35 1L33 1L33 2L32 2L32 0L29 0L29 4L26 4L26 3L23 3L23 2L27 2L27 3L28 3L28 2L27 2L27 1L25 1L25 0L23 0L23 2L22 2L22 0L21 0L21 2L22 2L22 3L23 3L23 4L24 4L24 5L22 5L22 4L19 4L19 3L17 3L17 2L15 2L15 0L14 0L14 2L13 2L13 0ZM17 0L17 1L18 1L18 2L20 2L20 0ZM8 1L8 2L9 2L9 1ZM30 1L30 2L31 2L31 3L30 3L30 4L31 4L31 8L32 8L32 10L31 10L31 11L29 11L29 12L28 12L28 13L27 13L27 15L26 15L26 12L27 12L27 11L26 11L26 12L25 12L25 11L23 11L23 12L24 12L24 13L22 13L22 12L21 12L21 11L22 11L22 10L23 10L23 9L25 9L25 8L26 8L26 4L25 4L25 8L24 8L24 6L23 6L23 8L19 8L19 7L20 7L20 5L18 5L18 6L17 6L17 3L15 3L15 2L14 2L14 4L11 4L11 8L10 8L10 10L11 10L11 11L12 11L12 12L14 12L14 11L13 11L13 10L15 10L15 11L16 11L16 10L17 10L17 11L18 11L18 10L19 10L19 9L20 9L20 10L21 10L21 11L19 11L19 13L20 13L20 14L21 14L21 13L22 13L22 14L24 14L24 13L25 13L25 15L24 15L24 16L23 16L23 15L17 15L17 13L18 13L18 12L17 12L17 13L16 13L16 12L15 12L15 13L11 13L11 14L15 14L15 13L16 13L16 17L15 17L15 15L14 15L14 17L15 17L15 18L18 18L18 17L17 17L17 16L19 16L19 17L20 17L20 18L19 18L19 20L20 20L20 21L19 21L19 22L18 22L18 21L17 21L17 20L16 20L16 21L17 21L17 24L21 24L21 25L19 25L19 26L18 26L18 25L14 25L14 24L16 24L16 23L14 23L14 24L13 24L13 25L12 25L12 24L11 24L11 25L10 25L10 23L6 23L6 22L7 22L7 21L6 21L6 22L5 22L5 23L4 23L4 22L3 22L3 25L4 25L4 26L3 26L3 27L1 27L1 29L3 29L3 30L4 30L4 29L3 29L3 28L4 28L4 26L5 26L5 24L7 24L7 25L6 25L6 26L8 26L8 25L10 25L10 26L12 26L12 27L10 27L10 28L9 28L9 29L10 29L10 30L9 30L9 31L10 31L10 32L11 32L11 33L12 33L12 32L11 32L11 31L10 31L10 30L11 30L11 28L12 28L12 27L13 27L13 28L14 28L14 30L15 30L15 29L16 29L16 31L13 31L13 30L12 30L12 31L13 31L13 32L14 32L14 33L13 33L13 34L11 34L11 36L10 36L10 35L9 35L9 34L10 34L10 33L9 33L9 32L8 32L8 31L6 31L6 32L8 32L8 33L9 33L9 34L7 34L7 35L5 35L5 36L2 36L2 37L1 37L1 38L2 38L2 41L4 41L4 42L2 42L2 43L3 43L3 44L1 44L1 45L2 45L2 46L1 46L1 47L2 47L2 46L3 46L3 47L5 47L5 46L7 46L7 45L8 45L8 44L9 44L9 45L10 45L10 47L9 47L9 48L8 48L8 49L9 49L9 50L11 50L11 49L10 49L10 48L12 48L12 47L14 47L14 48L15 48L15 49L16 49L16 50L14 50L14 49L12 49L12 50L13 50L13 51L12 51L12 53L14 53L14 52L15 52L15 51L16 51L16 53L15 53L15 54L16 54L16 53L17 53L17 51L16 51L16 50L19 50L19 51L20 51L20 50L21 50L21 49L23 49L23 47L24 47L24 46L23 46L23 45L25 45L25 48L24 48L24 49L25 49L25 48L28 48L28 47L29 47L29 45L30 45L30 46L31 46L31 45L32 45L32 47L33 47L33 46L35 46L35 47L34 47L34 48L32 48L32 49L31 49L31 50L32 50L32 51L31 51L31 53L30 53L30 54L26 54L26 53L24 53L24 54L23 54L23 55L24 55L24 56L25 56L25 54L26 54L26 55L27 55L27 56L29 56L29 55L30 55L30 56L31 56L31 54L32 54L32 53L33 53L33 54L34 54L34 55L35 55L35 56L36 56L36 54L35 54L35 51L34 51L34 50L36 50L36 52L37 52L37 53L38 53L38 54L37 54L37 56L39 56L39 55L38 55L38 54L40 54L40 53L41 53L41 52L40 52L40 51L39 51L39 53L38 53L38 50L41 50L41 51L42 51L42 52L43 52L43 51L42 51L42 50L41 50L41 48L42 48L42 49L43 49L43 48L44 48L44 49L46 49L46 50L47 50L47 49L48 49L48 48L49 48L49 47L51 47L51 48L52 48L52 47L53 47L53 43L54 43L54 42L53 42L53 41L51 41L51 42L50 42L50 43L49 43L49 42L48 42L48 41L49 41L49 39L51 39L51 38L52 38L52 39L55 39L55 37L53 37L53 35L55 35L55 34L54 34L54 32L53 32L53 31L48 31L48 30L47 30L47 29L48 29L48 27L47 27L47 26L48 26L48 25L50 25L50 26L51 26L51 25L53 25L53 24L49 24L49 23L50 23L50 22L51 22L51 21L49 21L49 20L47 20L47 19L46 19L46 18L47 18L47 17L48 17L48 16L49 16L49 17L50 17L50 18L48 18L48 19L50 19L50 18L51 18L51 19L52 19L52 18L56 18L56 17L55 17L55 16L52 16L52 15L51 15L51 17L50 17L50 14L51 14L51 12L50 12L50 10L48 10L48 11L47 11L47 12L45 12L45 11L44 11L44 10L47 10L47 9L45 9L45 8L44 8L44 6L45 6L45 7L46 7L46 6L45 6L45 4L46 4L46 5L47 5L47 3L44 3L44 6L43 6L43 5L40 5L40 4L41 4L41 3L37 3L37 4L36 4L36 5L35 5L35 2L33 2L33 3L32 3L32 2L31 2L31 1ZM46 1L46 2L47 2L47 1ZM8 3L8 4L9 4L9 3ZM31 3L31 4L32 4L32 5L34 5L34 7L33 7L33 6L32 6L32 7L33 7L33 9L34 9L34 8L35 8L35 9L37 9L37 10L36 10L36 11L35 11L35 14L33 14L33 13L34 13L34 12L33 12L33 13L32 13L32 11L33 11L33 10L32 10L32 11L31 11L31 13L30 13L30 14L29 14L29 13L28 13L28 14L29 14L29 16L28 16L28 15L27 15L27 16L28 16L28 17L27 17L27 18L28 18L28 19L30 19L30 18L33 18L33 17L32 17L32 16L31 16L31 15L33 15L33 16L35 16L35 17L37 17L37 18L38 18L38 17L39 17L39 19L37 19L37 20L36 20L36 19L35 19L35 20L34 20L34 19L31 19L31 20L30 20L30 21L28 21L28 22L29 22L29 23L28 23L28 24L29 24L29 25L30 25L30 26L28 26L28 25L27 25L27 26L26 26L26 25L25 25L25 24L27 24L27 21L26 21L26 15L25 15L25 17L22 17L22 16L20 16L20 17L22 17L22 18L21 18L21 20L24 20L24 21L23 21L23 22L24 22L24 21L25 21L25 22L26 22L26 23L25 23L25 24L24 24L24 23L21 23L21 24L23 24L23 25L21 25L21 27L20 27L20 26L19 26L19 29L18 29L18 28L17 28L17 27L18 27L18 26L13 26L13 27L15 27L15 28L16 28L16 29L18 29L18 30L17 30L17 31L19 31L19 32L17 32L17 35L21 35L21 34L22 34L22 33L21 33L21 32L23 32L23 31L25 31L25 33L23 33L23 34L24 34L24 36L23 36L23 37L24 37L24 38L22 38L22 37L19 37L19 36L17 36L17 40L16 40L16 39L15 39L15 40L14 40L14 42L12 42L12 40L13 40L13 39L10 39L10 38L9 38L9 39L8 39L8 38L6 38L6 37L8 37L8 36L9 36L9 37L10 37L10 36L9 36L9 35L7 35L7 36L6 36L6 37L5 37L5 39L8 39L8 40L10 40L10 41L11 41L11 42L8 42L8 43L7 43L7 42L6 42L6 41L7 41L7 40L5 40L5 42L6 42L6 43L7 43L7 44L5 44L5 45L4 45L4 44L3 44L3 45L4 45L4 46L5 46L5 45L7 45L7 44L8 44L8 43L9 43L9 44L10 44L10 45L11 45L11 47L12 47L12 46L15 46L15 45L14 45L14 44L18 44L18 45L17 45L17 46L20 46L20 47L19 47L19 48L16 48L16 47L15 47L15 48L16 48L16 49L19 49L19 50L20 50L20 49L21 49L21 48L20 48L20 47L23 47L23 46L22 46L22 45L23 45L23 44L24 44L24 43L23 43L23 42L25 42L25 41L23 41L23 42L22 42L22 43L21 43L21 44L20 44L20 43L19 43L19 42L20 42L20 41L19 41L19 40L22 40L22 39L24 39L24 40L25 40L25 36L27 36L27 34L26 34L26 35L25 35L25 33L26 33L26 32L28 32L28 33L29 33L29 34L30 34L30 36L29 36L29 37L31 37L31 38L29 38L29 39L33 39L33 40L35 40L35 42L37 42L37 43L36 43L36 44L35 44L35 43L34 43L34 42L33 42L33 41L32 41L32 40L29 40L29 43L25 43L25 44L28 44L28 45L26 45L26 47L27 47L27 46L28 46L28 45L29 45L29 43L30 43L30 45L31 45L31 44L33 44L33 43L34 43L34 45L35 45L35 46L36 46L36 45L37 45L37 47L36 47L36 48L34 48L34 49L36 49L36 50L38 50L38 49L39 49L39 48L41 48L41 46L43 46L43 47L42 47L42 48L43 48L43 47L44 47L44 48L48 48L48 47L49 47L49 46L48 46L48 45L49 45L49 44L48 44L48 45L47 45L47 43L48 43L48 42L46 42L46 41L44 41L44 40L47 40L47 39L49 39L49 38L51 38L51 37L52 37L52 35L53 35L53 34L52 34L52 33L53 33L53 32L52 32L52 33L51 33L51 32L50 32L50 34L49 34L49 35L50 35L50 37L49 37L49 36L48 36L48 37L47 37L47 39L46 39L46 38L45 38L45 37L46 37L46 36L47 36L47 35L44 35L44 36L43 36L43 35L42 35L42 34L45 34L45 33L43 33L43 32L46 32L46 31L47 31L47 32L48 32L48 33L49 33L49 32L48 32L48 31L47 31L47 30L46 30L46 29L47 29L47 27L46 27L46 28L45 28L45 26L44 26L44 28L43 28L43 29L41 29L41 30L43 30L43 32L41 32L41 33L39 33L39 34L40 34L40 35L39 35L39 37L40 37L40 38L43 38L43 37L44 37L44 38L45 38L45 39L44 39L44 40L42 40L42 39L41 39L41 40L42 40L42 41L41 41L41 42L42 42L42 44L41 44L41 45L39 45L39 42L40 42L40 41L39 41L39 42L38 42L38 40L40 40L40 39L38 39L38 37L37 37L37 36L38 36L38 33L37 33L37 32L34 32L34 31L36 31L36 30L37 30L37 29L38 29L38 28L39 28L39 27L40 27L40 26L43 26L43 25L44 25L44 20L45 20L45 21L47 21L47 22L45 22L45 25L46 25L46 24L47 24L47 25L48 25L48 23L47 23L47 22L49 22L49 21L47 21L47 20L45 20L45 18L46 18L46 17L45 17L45 18L44 18L44 15L47 15L47 16L48 16L48 15L49 15L49 14L50 14L50 12L49 12L49 11L48 11L48 12L49 12L49 13L47 13L47 14L43 14L43 13L44 13L44 12L43 12L43 13L39 13L39 12L41 12L41 10L44 10L44 8L43 8L43 9L41 9L41 10L38 10L38 8L40 8L40 7L41 7L41 6L40 6L40 5L39 5L39 6L38 6L38 7L37 7L37 5L38 5L38 4L37 4L37 5L36 5L36 7L37 7L37 8L35 8L35 5L34 5L34 4L32 4L32 3ZM15 4L15 5L14 5L14 7L13 7L13 5L12 5L12 7L13 7L13 9L12 9L12 10L13 10L13 9L14 9L14 7L15 7L15 8L16 8L16 9L17 9L17 10L18 10L18 9L19 9L19 8L16 8L16 7L17 7L17 6L16 6L16 7L15 7L15 5L16 5L16 4ZM27 5L27 8L30 8L30 5ZM9 6L9 7L10 7L10 6ZM18 6L18 7L19 7L19 6ZM21 6L21 7L22 7L22 6ZM28 6L28 7L29 7L29 6ZM39 6L39 7L40 7L40 6ZM42 6L42 7L43 7L43 6ZM48 6L48 7L49 7L49 6ZM53 8L53 9L54 9L54 8ZM55 8L55 9L56 9L56 8ZM21 9L21 10L22 10L22 9ZM28 9L28 10L29 10L29 9ZM2 10L2 11L1 11L1 12L2 12L2 11L3 11L3 10ZM8 10L8 11L6 11L6 12L5 12L5 13L4 13L4 14L5 14L5 13L6 13L6 14L7 14L7 15L6 15L6 16L5 16L5 15L4 15L4 16L3 16L3 15L2 15L2 16L3 16L3 17L4 17L4 16L5 16L5 17L6 17L6 18L7 18L7 17L6 17L6 16L8 16L8 13L9 13L9 12L10 12L10 11L9 11L9 10ZM37 10L37 11L38 11L38 10ZM55 11L55 12L54 12L54 13L53 13L53 12L52 12L52 13L53 13L53 14L54 14L54 15L55 15L55 14L56 14L56 11ZM6 12L6 13L8 13L8 12ZM20 12L20 13L21 13L21 12ZM36 13L36 14L37 14L37 15L35 15L35 16L37 16L37 17L38 17L38 16L39 16L39 17L41 17L41 16L42 16L42 17L43 17L43 16L42 16L42 15L43 15L43 14L40 14L40 15L41 15L41 16L39 16L39 15L38 15L38 14L39 14L39 13L38 13L38 14L37 14L37 13ZM30 14L30 15L31 15L31 14ZM1 17L1 18L2 18L2 17ZM22 18L22 19L24 19L24 18ZM41 18L41 19L42 19L42 20L44 20L44 18L43 18L43 19L42 19L42 18ZM32 20L32 21L31 21L31 22L30 22L30 23L29 23L29 24L32 24L32 26L31 26L31 28L32 28L32 29L33 29L33 30L31 30L31 31L30 31L30 32L29 32L29 31L28 31L28 32L29 32L29 33L31 33L31 32L32 32L32 33L33 33L33 34L31 34L31 35L33 35L33 36L32 36L32 37L33 37L33 39L35 39L35 40L38 40L38 39L35 39L35 37L34 37L34 35L35 35L35 36L37 36L37 34L35 34L35 33L34 33L34 32L32 32L32 31L33 31L33 30L35 30L35 28L36 28L36 27L39 27L39 25L42 25L42 24L38 24L38 23L40 23L40 22L39 22L39 21L41 21L41 20L38 20L38 23L37 23L37 24L38 24L38 26L37 26L37 25L33 25L33 24L32 24L32 23L33 23L33 22L34 22L34 23L35 23L35 21L34 21L34 20ZM21 21L21 22L22 22L22 21ZM11 22L11 23L12 23L12 22ZM19 22L19 23L20 23L20 22ZM54 24L54 25L55 25L55 24ZM22 26L22 27L21 27L21 28L22 28L22 29L19 29L19 30L21 30L21 31L23 31L23 29L24 29L24 28L25 28L25 29L26 29L26 28L25 28L25 27L26 27L26 26L24 26L24 27L23 27L23 26ZM32 26L32 27L33 27L33 28L35 28L35 27L36 27L36 26L34 26L34 27L33 27L33 26ZM53 26L53 27L54 27L54 26ZM5 27L5 30L8 30L8 27ZM27 27L27 30L30 30L30 27ZM41 27L41 28L42 28L42 27ZM49 27L49 30L52 30L52 27ZM6 28L6 29L7 29L7 28ZM28 28L28 29L29 29L29 28ZM44 28L44 29L43 29L43 30L44 30L44 31L45 31L45 30L44 30L44 29L45 29L45 28ZM50 28L50 29L51 29L51 28ZM54 28L54 29L53 29L53 30L54 30L54 29L55 29L55 28ZM39 29L39 30L38 30L38 32L39 32L39 30L40 30L40 29ZM14 33L14 34L13 34L13 35L12 35L12 36L13 36L13 35L14 35L14 37L13 37L13 38L14 38L14 37L15 37L15 38L16 38L16 37L15 37L15 36L16 36L16 35L14 35L14 34L15 34L15 33ZM19 33L19 34L21 34L21 33ZM50 34L50 35L52 35L52 34ZM40 36L40 37L43 37L43 36ZM44 36L44 37L45 37L45 36ZM11 37L11 38L12 38L12 37ZM26 37L26 40L28 40L28 39L27 39L27 38L28 38L28 37ZM18 38L18 39L20 39L20 38ZM21 38L21 39L22 39L22 38ZM3 39L3 40L4 40L4 39ZM15 40L15 43L18 43L18 42L19 42L19 41L18 41L18 42L17 42L17 41L16 41L16 40ZM26 41L26 42L27 42L27 41ZM30 41L30 42L32 42L32 43L33 43L33 42L32 42L32 41ZM43 41L43 43L44 43L44 45L45 45L45 46L44 46L44 47L45 47L45 46L47 46L47 47L48 47L48 46L47 46L47 45L45 45L45 44L46 44L46 42L45 42L45 43L44 43L44 41ZM11 42L11 43L10 43L10 44L12 44L12 45L13 45L13 43L12 43L12 42ZM51 42L51 43L50 43L50 44L51 44L51 45L50 45L50 46L51 46L51 47L52 47L52 46L51 46L51 45L52 45L52 44L51 44L51 43L53 43L53 42ZM55 43L55 44L54 44L54 45L55 45L55 46L54 46L54 47L55 47L55 46L56 46L56 43ZM19 44L19 45L20 45L20 46L21 46L21 45L22 45L22 44L21 44L21 45L20 45L20 44ZM38 45L38 46L39 46L39 47L38 47L38 48L37 48L37 49L38 49L38 48L39 48L39 47L40 47L40 46L39 46L39 45ZM19 48L19 49L20 49L20 48ZM27 49L27 52L30 52L30 49ZM49 49L49 52L52 52L52 49ZM28 50L28 51L29 51L29 50ZM50 50L50 51L51 51L51 50ZM54 50L54 51L55 51L55 50ZM13 51L13 52L14 52L14 51ZM32 51L32 52L33 52L33 53L34 53L34 52L33 52L33 51ZM53 52L53 54L54 54L54 52ZM43 53L43 54L44 54L44 53ZM17 54L17 56L18 56L18 55L19 55L19 54ZM41 54L41 55L42 55L42 54ZM48 55L48 56L49 56L49 55ZM50 55L50 56L51 56L51 55ZM43 56L43 57L44 57L44 56ZM0 0L0 7L7 7L7 0ZM1 1L1 6L6 6L6 1ZM2 2L2 5L5 5L5 2ZM50 0L50 7L57 7L57 0ZM51 1L51 6L56 6L56 1ZM52 2L52 5L55 5L55 2ZM0 50L0 57L7 57L7 50ZM1 51L1 56L6 56L6 51ZM2 52L2 55L5 55L5 52Z" fill="#000000"/></g></g></svg>
