<?xml version="1.0" encoding="UTF-8"?>
<svg xmlns="http://www.w3.org/2000/svg" version="1.1" width="300" height="300" viewBox="0 0 300 300"><rect x="0" y="0" width="300" height="300" fill="#fefefe"/><g transform="scale(4.615)"><g transform="translate(4,4)"><path fill-rule="evenodd" d="M11 0L11 2L12 2L12 3L8 3L8 4L9 4L9 5L8 5L8 7L9 7L9 8L6 8L6 9L7 9L7 10L6 10L6 11L7 11L7 12L6 12L6 13L7 13L7 12L9 12L9 13L8 13L8 14L10 14L10 16L9 16L9 17L10 17L10 19L9 19L9 20L8 20L8 19L7 19L7 18L8 18L8 16L6 16L6 15L7 15L7 14L6 14L6 15L5 15L5 12L3 12L3 10L1 10L1 9L4 9L4 11L5 11L5 8L0 8L0 10L1 10L1 13L0 13L0 14L2 14L2 15L3 15L3 16L1 16L1 15L0 15L0 21L1 21L1 22L0 22L0 24L1 24L1 25L2 25L2 27L3 27L3 28L2 28L2 29L1 29L1 26L0 26L0 33L1 33L1 34L0 34L0 35L1 35L1 37L2 37L2 35L1 35L1 34L3 34L3 36L4 36L4 33L1 33L1 30L3 30L3 31L5 31L5 32L6 32L6 33L7 33L7 34L6 34L6 35L7 35L7 36L6 36L6 37L8 37L8 36L10 36L10 35L11 35L11 34L9 34L9 33L10 33L10 32L11 32L11 31L13 31L13 29L14 29L14 30L15 30L15 32L13 32L13 33L12 33L12 34L13 34L13 33L14 33L14 35L12 35L12 36L11 36L11 37L13 37L13 36L18 36L18 37L17 37L17 38L18 38L18 37L19 37L19 38L20 38L20 39L17 39L17 40L18 40L18 41L17 41L17 42L14 42L14 40L15 40L15 41L16 41L16 39L14 39L14 38L16 38L16 37L14 37L14 38L13 38L13 39L12 39L12 40L11 40L11 38L9 38L9 39L7 39L7 38L6 38L6 39L7 39L7 40L6 40L6 41L4 41L4 40L5 40L5 39L3 39L3 38L2 38L2 39L1 39L1 38L0 38L0 39L1 39L1 40L0 40L0 42L1 42L1 40L2 40L2 42L5 42L5 44L4 44L4 45L3 45L3 46L2 46L2 45L1 45L1 44L2 44L2 43L0 43L0 45L1 45L1 46L0 46L0 48L5 48L5 47L7 47L7 48L6 48L6 49L7 49L7 48L9 48L9 49L8 49L8 51L9 51L9 52L8 52L8 57L9 57L9 56L11 56L11 57L12 57L12 56L11 56L11 55L9 55L9 54L10 54L10 50L11 50L11 51L15 51L15 50L14 50L14 49L19 49L19 50L18 50L18 51L19 51L19 52L17 52L17 53L16 53L16 52L13 52L13 53L12 53L12 52L11 52L11 53L12 53L12 54L13 54L13 55L16 55L16 56L13 56L13 57L16 57L16 56L17 56L17 57L19 57L19 55L20 55L20 54L19 54L19 53L20 53L20 52L23 52L23 51L22 51L22 50L26 50L26 52L24 52L24 53L21 53L21 54L22 54L22 56L23 56L23 57L26 57L26 55L27 55L27 54L30 54L30 53L31 53L31 51L32 51L32 52L33 52L33 51L34 51L34 50L33 50L33 49L34 49L34 48L35 48L35 49L36 49L36 50L35 50L35 52L34 52L34 53L35 53L35 54L36 54L36 56L35 56L35 55L34 55L34 54L33 54L33 53L32 53L32 54L31 54L31 56L30 56L30 55L29 55L29 56L27 56L27 57L29 57L29 56L30 56L30 57L31 57L31 56L35 56L35 57L39 57L39 56L37 56L37 54L38 54L38 55L40 55L40 56L41 56L41 57L44 57L44 54L45 54L45 53L44 53L44 52L45 52L45 51L43 51L43 50L44 50L44 48L43 48L43 47L44 47L44 46L45 46L45 50L46 50L46 52L47 52L47 50L48 50L48 54L47 54L47 55L48 55L48 56L47 56L47 57L49 57L49 56L50 56L50 57L52 57L52 55L51 55L51 53L52 53L52 54L53 54L53 57L54 57L54 56L55 56L55 57L56 57L56 56L55 56L55 54L53 54L53 52L54 52L54 53L55 53L55 52L56 52L56 53L57 53L57 52L56 52L56 49L57 49L57 48L56 48L56 46L57 46L57 45L56 45L56 44L55 44L55 43L56 43L56 42L55 42L55 39L57 39L57 37L56 37L56 34L57 34L57 32L56 32L56 30L57 30L57 29L54 29L54 28L55 28L55 27L56 27L56 28L57 28L57 27L56 27L56 26L57 26L57 25L56 25L56 22L57 22L57 20L56 20L56 22L55 22L55 23L54 23L54 21L51 21L51 20L52 20L52 19L53 19L53 20L55 20L55 19L56 19L56 18L53 18L53 17L51 17L51 18L52 18L52 19L50 19L50 17L47 17L47 18L48 18L48 19L46 19L46 18L44 18L44 15L42 15L42 16L41 16L41 15L40 15L40 14L38 14L38 13L39 13L39 10L38 10L38 8L39 8L39 6L40 6L40 7L41 7L41 8L42 8L42 9L41 9L41 11L40 11L40 12L41 12L41 11L43 11L43 9L44 9L44 11L45 11L45 12L47 12L47 10L48 10L48 11L50 11L50 12L49 12L49 13L47 13L47 14L45 14L45 15L47 15L47 16L48 16L48 15L49 15L49 16L50 16L50 15L53 15L53 16L55 16L55 17L56 17L56 16L57 16L57 15L56 15L56 14L57 14L57 11L56 11L56 10L54 10L54 11L52 11L52 10L53 10L53 9L54 9L54 8L53 8L53 9L52 9L52 8L51 8L51 9L52 9L52 10L49 10L49 9L50 9L50 8L49 8L49 9L47 9L47 10L45 10L45 9L46 9L46 8L47 8L47 5L48 5L48 0L46 0L46 1L45 1L45 2L44 2L44 3L43 3L43 4L40 4L40 5L39 5L39 6L38 6L38 8L35 8L35 5L36 5L36 7L37 7L37 5L38 5L38 4L39 4L39 3L42 3L42 2L43 2L43 0L41 0L41 1L40 1L40 0L39 0L39 1L38 1L38 0L37 0L37 1L38 1L38 2L37 2L37 3L36 3L36 0L35 0L35 1L33 1L33 0L32 0L32 1L33 1L33 2L32 2L32 3L31 3L31 2L30 2L30 1L31 1L31 0L30 0L30 1L29 1L29 2L28 2L28 1L26 1L26 0L23 0L23 1L22 1L22 0L21 0L21 1L20 1L20 0L17 0L17 1L18 1L18 2L17 2L17 6L16 6L16 7L15 7L15 6L14 6L14 7L13 7L13 4L14 4L14 2L15 2L15 1L14 1L14 0ZM8 1L8 2L10 2L10 1ZM12 1L12 2L14 2L14 1ZM19 1L19 2L18 2L18 3L19 3L19 4L22 4L22 5L21 5L21 7L22 7L22 8L19 8L19 9L20 9L20 10L19 10L19 13L20 13L20 16L19 16L19 15L17 15L17 13L18 13L18 12L17 12L17 13L16 13L16 12L15 12L15 13L13 13L13 14L15 14L15 13L16 13L16 17L15 17L15 16L14 16L14 15L13 15L13 16L12 16L12 17L11 17L11 16L10 16L10 17L11 17L11 19L10 19L10 22L11 22L11 23L10 23L10 24L11 24L11 23L12 23L12 24L13 24L13 26L14 26L14 25L15 25L15 26L16 26L16 27L14 27L14 28L15 28L15 29L16 29L16 30L17 30L17 32L15 32L15 35L16 35L16 34L17 34L17 35L18 35L18 36L19 36L19 37L23 37L23 38L24 38L24 37L23 37L23 36L24 36L24 34L23 34L23 33L25 33L25 34L26 34L26 33L27 33L27 35L26 35L26 36L25 36L25 38L26 38L26 36L27 36L27 37L28 37L28 38L27 38L27 39L25 39L25 40L24 40L24 39L23 39L23 40L20 40L20 42L21 42L21 43L20 43L20 44L21 44L21 45L19 45L19 46L20 46L20 47L21 47L21 49L20 49L20 48L19 48L19 47L18 47L18 46L17 46L17 45L18 45L18 44L17 44L17 45L16 45L16 43L15 43L15 45L14 45L14 44L11 44L11 42L12 42L12 41L13 41L13 40L12 40L12 41L11 41L11 42L8 42L8 43L6 43L6 44L9 44L9 45L10 45L10 44L11 44L11 45L13 45L13 46L7 46L7 45L6 45L6 46L7 46L7 47L11 47L11 48L12 48L12 49L11 49L11 50L12 50L12 49L13 49L13 48L15 48L15 46L17 46L17 47L18 47L18 48L19 48L19 49L20 49L20 51L21 51L21 49L23 49L23 47L26 47L26 48L28 48L28 47L26 47L26 45L28 45L28 46L29 46L29 45L31 45L31 46L32 46L32 47L31 47L31 48L32 48L32 49L31 49L31 50L32 50L32 51L33 51L33 50L32 50L32 49L33 49L33 48L32 48L32 47L33 47L33 46L36 46L36 47L35 47L35 48L36 48L36 47L37 47L37 46L36 46L36 45L34 45L34 43L35 43L35 44L36 44L36 43L37 43L37 42L35 42L35 40L38 40L38 42L39 42L39 41L41 41L41 40L42 40L42 41L43 41L43 42L44 42L44 45L45 45L45 46L47 46L47 45L48 45L48 46L50 46L50 47L48 47L48 48L47 48L47 49L46 49L46 50L47 50L47 49L48 49L48 48L51 48L51 46L53 46L53 47L54 47L54 46L53 46L53 43L54 43L54 42L53 42L53 41L51 41L51 42L50 42L50 43L48 43L48 44L47 44L47 45L45 45L45 44L46 44L46 43L47 43L47 42L48 42L48 41L49 41L49 39L51 39L51 38L52 38L52 39L54 39L54 38L53 38L53 35L55 35L55 34L54 34L54 33L52 33L52 32L53 32L53 31L48 31L48 29L46 29L46 30L47 30L47 31L48 31L48 32L46 32L46 33L45 33L45 32L43 32L43 31L45 31L45 28L46 28L46 27L47 27L47 28L48 28L48 26L47 26L47 24L45 24L45 22L47 22L47 23L48 23L48 24L51 24L51 25L50 25L50 26L51 26L51 25L54 25L54 24L51 24L51 23L50 23L50 22L51 22L51 21L49 21L49 20L48 20L48 21L49 21L49 22L47 22L47 20L46 20L46 21L45 21L45 20L44 20L44 18L43 18L43 20L42 20L42 21L43 21L43 20L44 20L44 25L43 25L43 23L42 23L42 22L41 22L41 24L40 24L40 22L39 22L39 21L41 21L41 20L39 20L39 21L38 21L38 23L37 23L37 24L38 24L38 26L37 26L37 25L33 25L33 24L32 24L32 23L33 23L33 22L34 22L34 23L35 23L35 20L34 20L34 19L36 19L36 20L37 20L37 19L39 19L39 17L41 17L41 16L39 16L39 15L38 15L38 14L37 14L37 15L35 15L35 16L31 16L31 17L33 17L33 20L32 20L32 21L31 21L31 22L30 22L30 20L31 20L31 19L32 19L32 18L30 18L30 19L28 19L28 18L26 18L26 16L27 16L27 17L28 17L28 16L29 16L29 14L30 14L30 15L32 15L32 13L33 13L33 14L36 14L36 13L35 13L35 12L36 12L36 10L37 10L37 9L35 9L35 8L34 8L34 9L33 9L33 7L34 7L34 6L33 6L33 5L35 5L35 4L33 4L33 3L35 3L35 2L33 2L33 3L32 3L32 4L31 4L31 3L30 3L30 4L31 4L31 8L32 8L32 10L31 10L31 11L29 11L29 9L28 9L28 10L27 10L27 11L26 11L26 12L25 12L25 10L24 10L24 12L23 12L23 13L22 13L22 12L21 12L21 11L22 11L22 10L21 10L21 9L24 9L24 6L23 6L23 5L24 5L24 4L23 4L23 3L26 3L26 4L25 4L25 8L26 8L26 4L29 4L29 3L27 3L27 2L22 2L22 1L21 1L21 2L20 2L20 1ZM46 1L46 2L47 2L47 1ZM38 2L38 3L39 3L39 2ZM12 3L12 4L10 4L10 5L12 5L12 4L13 4L13 3ZM44 3L44 6L43 6L43 8L44 8L44 9L45 9L45 7L46 7L46 6L45 6L45 5L47 5L47 3ZM15 4L15 5L16 5L16 4ZM32 4L32 5L33 5L33 4ZM36 4L36 5L37 5L37 4ZM18 5L18 6L17 6L17 7L16 7L16 8L15 8L15 7L14 7L14 9L13 9L13 7L12 7L12 6L11 6L11 7L12 7L12 8L11 8L11 9L12 9L12 10L7 10L7 11L9 11L9 12L10 12L10 14L11 14L11 15L12 15L12 12L14 12L14 11L13 11L13 10L15 10L15 11L18 11L18 10L17 10L17 9L16 9L16 8L17 8L17 7L18 7L18 6L19 6L19 7L20 7L20 5ZM27 5L27 8L30 8L30 5ZM40 5L40 6L41 6L41 7L42 7L42 5ZM9 6L9 7L10 7L10 6ZM22 6L22 7L23 7L23 6ZM28 6L28 7L29 7L29 6ZM32 6L32 7L33 7L33 6ZM44 6L44 7L45 7L45 6ZM48 6L48 7L49 7L49 6ZM9 8L9 9L10 9L10 8ZM55 8L55 9L56 9L56 8ZM15 9L15 10L16 10L16 9ZM20 10L20 11L21 11L21 10ZM32 10L32 11L31 11L31 13L30 13L30 14L31 14L31 13L32 13L32 11L33 11L33 10ZM10 11L10 12L12 12L12 11ZM27 11L27 12L26 12L26 14L27 14L27 13L28 13L28 14L29 14L29 13L28 13L28 12L29 12L29 11ZM20 12L20 13L21 13L21 15L23 15L23 14L25 14L25 13L23 13L23 14L22 14L22 13L21 13L21 12ZM33 12L33 13L34 13L34 12ZM43 12L43 13L41 13L41 14L44 14L44 12ZM50 12L50 14L49 14L49 15L50 15L50 14L51 14L51 12ZM52 12L52 13L53 13L53 15L54 15L54 14L56 14L56 12L54 12L54 13L53 13L53 12ZM3 14L3 15L4 15L4 14ZM24 15L24 16L26 16L26 15ZM27 15L27 16L28 16L28 15ZM13 16L13 17L12 17L12 22L13 22L13 24L15 24L15 23L16 23L16 24L17 24L17 27L18 27L18 26L19 26L19 27L20 27L20 26L19 26L19 25L21 25L21 24L18 24L18 23L20 23L20 22L17 22L17 21L20 21L20 17L22 17L22 18L24 18L24 19L21 19L21 20L24 20L24 21L21 21L21 22L24 22L24 21L25 21L25 22L26 22L26 23L25 23L25 24L24 24L24 23L22 23L22 24L24 24L24 25L22 25L22 26L21 26L21 27L22 27L22 26L24 26L24 28L26 28L26 29L23 29L23 30L24 30L24 32L25 32L25 31L26 31L26 32L28 32L28 33L29 33L29 34L30 34L30 36L29 36L29 37L31 37L31 38L29 38L29 39L33 39L33 40L35 40L35 39L37 39L37 38L38 38L38 40L40 40L40 39L39 39L39 38L38 38L38 37L37 37L37 36L38 36L38 33L37 33L37 32L34 32L34 33L35 33L35 34L37 34L37 36L35 36L35 35L34 35L34 34L33 34L33 33L32 33L32 32L31 32L31 33L29 33L29 32L30 32L30 31L36 31L36 30L31 30L31 29L32 29L32 27L33 27L33 28L35 28L35 29L38 29L38 28L39 28L39 27L40 27L40 26L39 26L39 27L36 27L36 26L34 26L34 27L33 27L33 26L32 26L32 24L29 24L29 23L30 23L30 22L29 22L29 23L27 23L27 22L28 22L28 21L25 21L25 20L26 20L26 19L25 19L25 17L22 17L22 16L20 16L20 17L19 17L19 16L17 16L17 18L15 18L15 19L17 19L17 21L16 21L16 20L15 20L15 21L16 21L16 22L15 22L15 23L14 23L14 21L13 21L13 20L14 20L14 19L13 19L13 17L14 17L14 16ZM35 16L35 17L37 17L37 18L38 18L38 17L39 17L39 16L38 16L38 17L37 17L37 16ZM42 16L42 17L43 17L43 16ZM45 16L45 17L46 17L46 16ZM1 17L1 18L2 18L2 20L1 20L1 21L2 21L2 20L3 20L3 18L7 18L7 17ZM41 18L41 19L42 19L42 18ZM6 19L6 20L4 20L4 21L3 21L3 22L2 22L2 23L1 23L1 24L3 24L3 22L4 22L4 21L5 21L5 23L4 23L4 24L5 24L5 25L3 25L3 27L4 27L4 26L5 26L5 25L6 25L6 26L9 26L9 27L10 27L10 29L11 29L11 27L12 27L12 25L11 25L11 27L10 27L10 26L9 26L9 24L8 24L8 23L9 23L9 22L7 22L7 21L8 21L8 20L7 20L7 19ZM27 19L27 20L28 20L28 19ZM6 20L6 21L7 21L7 20ZM33 20L33 21L34 21L34 20ZM6 22L6 23L7 23L7 22ZM38 23L38 24L39 24L39 25L40 25L40 24L39 24L39 23ZM6 24L6 25L7 25L7 24ZM25 24L25 25L26 25L26 26L25 26L25 27L26 27L26 26L29 26L29 24ZM41 25L41 26L43 26L43 25ZM55 25L55 26L56 26L56 25ZM31 26L31 27L32 27L32 26ZM44 26L44 27L43 27L43 28L45 28L45 27L46 27L46 26ZM53 26L53 27L54 27L54 26ZM5 27L5 30L8 30L8 27ZM27 27L27 30L30 30L30 27ZM35 27L35 28L36 28L36 27ZM41 27L41 28L42 28L42 27ZM49 27L49 30L52 30L52 27ZM3 28L3 30L4 30L4 28ZM6 28L6 29L7 29L7 28ZM16 28L16 29L18 29L18 30L19 30L19 32L17 32L17 34L18 34L18 33L21 33L21 36L23 36L23 34L22 34L22 33L21 33L21 32L23 32L23 31L21 31L21 32L20 32L20 30L19 30L19 29L22 29L22 28L19 28L19 29L18 29L18 28ZM28 28L28 29L29 29L29 28ZM50 28L50 29L51 29L51 28ZM40 29L40 30L44 30L44 29ZM9 30L9 31L8 31L8 33L9 33L9 31L10 31L10 30ZM38 30L38 32L39 32L39 30ZM6 31L6 32L7 32L7 31ZM28 31L28 32L29 32L29 31ZM41 32L41 33L39 33L39 34L40 34L40 35L39 35L39 37L40 37L40 38L43 38L43 37L44 37L44 38L45 38L45 39L44 39L44 40L43 40L43 41L44 41L44 42L45 42L45 41L47 41L47 39L49 39L49 38L50 38L50 37L52 37L52 35L53 35L53 34L52 34L52 33L51 33L51 32L50 32L50 34L49 34L49 35L50 35L50 37L49 37L49 36L48 36L48 37L47 37L47 39L46 39L46 38L45 38L45 37L46 37L46 36L47 36L47 35L44 35L44 33L43 33L43 32ZM48 32L48 33L49 33L49 32ZM55 32L55 33L56 33L56 32ZM31 33L31 34L32 34L32 33ZM8 34L8 35L9 35L9 34ZM42 34L42 35L43 35L43 36L40 36L40 37L43 37L43 36L44 36L44 37L45 37L45 36L44 36L44 35L43 35L43 34ZM50 34L50 35L52 35L52 34ZM19 35L19 36L20 36L20 35ZM33 35L33 36L32 36L32 37L33 37L33 39L35 39L35 37L34 37L34 35ZM4 37L4 38L5 38L5 37ZM48 37L48 38L49 38L49 37ZM27 39L27 40L28 40L28 39ZM45 39L45 40L44 40L44 41L45 41L45 40L46 40L46 39ZM7 40L7 41L6 41L6 42L7 42L7 41L8 41L8 40ZM9 40L9 41L10 41L10 40ZM23 40L23 41L24 41L24 42L22 42L22 41L21 41L21 42L22 42L22 43L21 43L21 44L22 44L22 45L21 45L21 47L23 47L23 46L22 46L22 45L24 45L24 46L25 46L25 45L24 45L24 44L27 44L27 43L25 43L25 41L24 41L24 40ZM29 40L29 41L30 41L30 42L28 42L28 45L29 45L29 43L30 43L30 44L31 44L31 45L32 45L32 46L33 46L33 45L32 45L32 44L33 44L33 43L34 43L34 42L33 42L33 41L32 41L32 40ZM18 41L18 42L17 42L17 43L18 43L18 42L19 42L19 41ZM26 41L26 42L27 42L27 41ZM31 41L31 42L32 42L32 43L31 43L31 44L32 44L32 43L33 43L33 42L32 42L32 41ZM51 42L51 43L50 43L50 44L51 44L51 43L53 43L53 42ZM23 43L23 44L24 44L24 43ZM40 43L40 44L39 44L39 45L38 45L38 46L39 46L39 47L38 47L38 48L37 48L37 49L38 49L38 50L36 50L36 52L37 52L37 53L38 53L38 54L40 54L40 53L42 53L42 52L43 52L43 51L42 51L42 50L41 50L41 48L42 48L42 49L43 49L43 48L42 48L42 47L43 47L43 46L41 46L41 48L39 48L39 47L40 47L40 46L39 46L39 45L41 45L41 44L42 44L42 43ZM54 44L54 45L55 45L55 46L56 46L56 45L55 45L55 44ZM50 45L50 46L51 46L51 45ZM1 46L1 47L2 47L2 46ZM3 46L3 47L5 47L5 46ZM13 46L13 47L12 47L12 48L13 48L13 47L14 47L14 46ZM29 47L29 48L30 48L30 47ZM24 48L24 49L25 49L25 48ZM38 48L38 49L39 49L39 48ZM53 48L53 49L54 49L54 48ZM55 48L55 49L56 49L56 48ZM9 49L9 50L10 50L10 49ZM27 49L27 52L30 52L30 49ZM49 49L49 52L52 52L52 49ZM28 50L28 51L29 51L29 50ZM38 50L38 52L39 52L39 51L40 51L40 52L41 52L41 50ZM50 50L50 51L51 51L51 50ZM54 50L54 51L55 51L55 50ZM14 53L14 54L16 54L16 53ZM24 53L24 54L23 54L23 55L24 55L24 56L25 56L25 53ZM26 53L26 54L27 54L27 53ZM43 53L43 54L44 54L44 53ZM17 54L17 56L18 56L18 54ZM41 54L41 56L43 56L43 55L42 55L42 54ZM50 55L50 56L51 56L51 55ZM45 56L45 57L46 57L46 56ZM0 0L0 7L7 7L7 0ZM1 1L1 6L6 6L6 1ZM2 2L2 5L5 5L5 2ZM50 0L50 7L57 7L57 0ZM51 1L51 6L56 6L56 1ZM52 2L52 5L55 5L55 2ZM0 50L0 57L7 57L7 50ZM1 51L1 56L6 56L6 51ZM2 52L2 55L5 55L5 52Z" fill="#000000"/></g></g></svg>
