<?xml version="1.0" encoding="UTF-8"?>
<svg xmlns="http://www.w3.org/2000/svg" version="1.1" width="300" height="300" viewBox="0 0 300 300"><rect x="0" y="0" width="300" height="300" fill="#fefefe"/><g transform="scale(4.615)"><g transform="translate(4,4)"><path fill-rule="evenodd" d="M9 0L9 1L8 1L8 2L9 2L9 3L8 3L8 4L9 4L9 5L8 5L8 7L9 7L9 8L6 8L6 9L7 9L7 10L5 10L5 8L0 8L0 10L1 10L1 11L0 11L0 13L1 13L1 11L2 11L2 12L3 12L3 13L2 13L2 15L1 15L1 16L0 16L0 19L1 19L1 20L0 20L0 23L2 23L2 21L3 21L3 24L0 24L0 26L1 26L1 27L2 27L2 28L1 28L1 30L0 30L0 31L1 31L1 30L2 30L2 29L3 29L3 30L4 30L4 31L3 31L3 32L0 32L0 35L1 35L1 34L2 34L2 33L5 33L5 34L4 34L4 35L5 35L5 36L6 36L6 37L5 37L5 38L6 38L6 39L2 39L2 38L4 38L4 37L2 37L2 36L3 36L3 35L2 35L2 36L1 36L1 37L0 37L0 40L1 40L1 41L0 41L0 42L1 42L1 43L0 43L0 44L1 44L1 45L3 45L3 46L2 46L2 47L1 47L1 46L0 46L0 48L5 48L5 47L7 47L7 48L6 48L6 49L7 49L7 48L10 48L10 49L8 49L8 51L10 51L10 50L11 50L11 51L13 51L13 52L12 52L12 53L10 53L10 52L8 52L8 57L13 57L13 56L12 56L12 55L9 55L9 54L12 54L12 53L13 53L13 52L14 52L14 53L16 53L16 54L13 54L13 55L16 55L16 56L15 56L15 57L16 57L16 56L17 56L17 57L20 57L20 56L19 56L19 55L20 55L20 54L19 54L19 55L17 55L17 53L20 53L20 52L21 52L21 51L19 51L19 50L20 50L20 49L19 49L19 48L20 48L20 45L19 45L19 44L20 44L20 43L19 43L19 42L20 42L20 40L22 40L22 37L19 37L19 36L20 36L20 35L21 35L21 34L22 34L22 33L21 33L21 32L23 32L23 31L21 31L21 30L20 30L20 26L19 26L19 25L22 25L22 26L21 26L21 27L22 27L22 26L23 26L23 27L25 27L25 28L23 28L23 30L25 30L25 31L24 31L24 32L25 32L25 31L26 31L26 34L25 34L25 33L23 33L23 34L24 34L24 36L23 36L23 37L24 37L24 38L23 38L23 39L24 39L24 40L23 40L23 42L22 42L22 41L21 41L21 42L22 42L22 43L21 43L21 44L22 44L22 45L21 45L21 47L23 47L23 46L25 46L25 44L27 44L27 45L26 45L26 47L24 47L24 48L23 48L23 49L21 49L21 50L22 50L22 51L23 51L23 50L25 50L25 49L26 49L26 52L24 52L24 53L23 53L23 54L22 54L22 53L21 53L21 54L22 54L22 55L23 55L23 57L26 57L26 56L27 56L27 57L29 57L29 56L30 56L30 57L31 57L31 56L35 56L35 57L39 57L39 56L42 56L42 55L43 55L43 57L44 57L44 54L45 54L45 53L44 53L44 52L45 52L45 51L46 51L46 52L47 52L47 50L48 50L48 53L47 53L47 54L46 54L46 55L48 55L48 56L46 56L46 57L48 57L48 56L50 56L50 57L52 57L52 55L51 55L51 53L52 53L52 54L53 54L53 52L54 52L54 54L55 54L55 52L56 52L56 49L57 49L57 48L56 48L56 46L57 46L57 43L56 43L56 42L57 42L57 41L56 41L56 42L55 42L55 39L57 39L57 37L56 37L56 36L57 36L57 35L56 35L56 34L55 34L55 33L54 33L54 32L56 32L56 33L57 33L57 32L56 32L56 30L57 30L57 29L55 29L55 30L54 30L54 28L57 28L57 27L55 27L55 26L57 26L57 25L56 25L56 22L57 22L57 21L56 21L56 20L57 20L57 19L56 19L56 18L53 18L53 17L51 17L51 16L52 16L52 15L53 15L53 16L54 16L54 17L56 17L56 16L57 16L57 15L56 15L56 14L57 14L57 13L56 13L56 14L55 14L55 15L53 15L53 13L54 13L54 12L56 12L56 8L55 8L55 10L54 10L54 11L52 11L52 10L53 10L53 9L54 9L54 8L53 8L53 9L52 9L52 8L51 8L51 9L52 9L52 10L51 10L51 11L50 11L50 12L49 12L49 11L48 11L48 10L50 10L50 8L49 8L49 6L48 6L48 7L47 7L47 5L48 5L48 0L45 0L45 2L44 2L44 3L43 3L43 4L40 4L40 5L39 5L39 6L38 6L38 7L37 7L37 5L38 5L38 4L37 4L37 3L36 3L36 0L35 0L35 1L32 1L32 3L31 3L31 0L27 0L27 1L26 1L26 0L23 0L23 1L22 1L22 0L21 0L21 1L18 1L18 0L17 0L17 1L18 1L18 2L15 2L15 0L14 0L14 2L13 2L13 1L11 1L11 0ZM37 0L37 1L38 1L38 3L41 3L41 2L43 2L43 0L41 0L41 1L40 1L40 0L39 0L39 1L38 1L38 0ZM9 1L9 2L10 2L10 3L9 3L9 4L11 4L11 5L10 5L10 6L9 6L9 7L10 7L10 6L11 6L11 9L8 9L8 10L9 10L9 12L8 12L8 11L6 11L6 12L8 12L8 13L9 13L9 15L10 15L10 11L11 11L11 10L12 10L12 6L13 6L13 8L14 8L14 10L17 10L17 11L16 11L16 12L15 12L15 13L12 13L12 12L14 12L14 11L12 11L12 12L11 12L11 14L12 14L12 16L14 16L14 17L13 17L13 18L12 18L12 17L10 17L10 16L9 16L9 17L8 17L8 16L7 16L7 15L8 15L8 14L7 14L7 13L6 13L6 14L7 14L7 15L6 15L6 16L7 16L7 17L5 17L5 13L3 13L3 14L4 14L4 15L3 15L3 16L2 16L2 17L1 17L1 18L2 18L2 19L3 19L3 20L4 20L4 21L6 21L6 22L5 22L5 23L4 23L4 24L3 24L3 26L4 26L4 24L5 24L5 25L6 25L6 26L7 26L7 25L10 25L10 26L11 26L11 25L12 25L12 24L13 24L13 23L12 23L12 22L13 22L13 21L14 21L14 22L16 22L16 21L17 21L17 22L18 22L18 21L17 21L17 20L20 20L20 21L19 21L19 22L20 22L20 23L18 23L18 24L22 24L22 25L24 25L24 24L25 24L25 25L26 25L26 26L25 26L25 27L26 27L26 26L27 26L27 25L28 25L28 26L29 26L29 25L31 25L31 24L32 24L32 26L31 26L31 27L32 27L32 29L31 29L31 31L29 31L29 33L28 33L28 32L27 32L27 35L26 35L26 36L27 36L27 37L25 37L25 38L26 38L26 39L25 39L25 40L24 40L24 41L25 41L25 43L23 43L23 44L25 44L25 43L29 43L29 40L30 40L30 42L32 42L32 43L33 43L33 44L28 44L28 45L27 45L27 47L26 47L26 48L29 48L29 46L30 46L30 45L32 45L32 46L31 46L31 47L32 47L32 49L31 49L31 50L32 50L32 51L31 51L31 53L30 53L30 54L27 54L27 53L26 53L26 54L25 54L25 53L24 53L24 54L23 54L23 55L24 55L24 56L26 56L26 55L27 55L27 56L29 56L29 55L30 55L30 56L31 56L31 54L32 54L32 53L33 53L33 55L35 55L35 56L36 56L36 54L35 54L35 53L33 53L33 52L32 52L32 51L33 51L33 50L36 50L36 52L37 52L37 53L38 53L38 54L37 54L37 56L39 56L39 55L38 55L38 54L40 54L40 53L42 53L42 50L41 50L41 48L42 48L42 49L43 49L43 48L44 48L44 50L47 50L47 49L48 49L48 48L49 48L49 47L48 47L48 48L47 48L47 47L45 47L45 48L44 48L44 45L45 45L45 46L48 46L48 44L50 44L50 45L51 45L51 46L50 46L50 47L51 47L51 46L52 46L52 48L53 48L53 46L54 46L54 45L55 45L55 46L56 46L56 43L55 43L55 44L54 44L54 45L53 45L53 43L54 43L54 42L53 42L53 41L51 41L51 42L50 42L50 43L49 43L49 42L48 42L48 41L49 41L49 40L50 40L50 39L55 39L55 37L53 37L53 35L55 35L55 36L56 36L56 35L55 35L55 34L54 34L54 33L52 33L52 32L54 32L54 30L53 30L53 31L51 31L51 33L52 33L52 34L50 34L50 31L48 31L48 29L46 29L46 30L47 30L47 31L48 31L48 32L43 32L43 31L45 31L45 30L40 30L40 29L45 29L45 28L46 28L46 27L47 27L47 28L48 28L48 25L49 25L49 23L50 23L50 26L51 26L51 25L52 25L52 26L53 26L53 27L54 27L54 26L53 26L53 23L50 23L50 22L51 22L51 21L53 21L53 22L56 22L56 21L55 21L55 20L56 20L56 19L55 19L55 20L53 20L53 19L52 19L52 20L51 20L51 21L49 21L49 22L48 22L48 25L47 25L47 23L46 23L46 22L47 22L47 21L48 21L48 20L47 20L47 21L46 21L46 20L44 20L44 18L45 18L45 19L47 19L47 16L46 16L46 17L45 17L45 14L47 14L47 13L49 13L49 12L48 12L48 11L47 11L47 12L45 12L45 11L46 11L46 10L47 10L47 9L49 9L49 8L45 8L45 7L46 7L46 6L45 6L45 5L47 5L47 3L44 3L44 6L43 6L43 5L40 5L40 6L39 6L39 7L40 7L40 8L39 8L39 9L38 9L38 11L39 11L39 13L38 13L38 14L37 14L37 13L36 13L36 14L37 14L37 15L35 15L35 16L33 16L33 15L32 15L32 13L33 13L33 14L35 14L35 11L36 11L36 10L37 10L37 9L35 9L35 8L37 8L37 7L36 7L36 5L37 5L37 4L36 4L36 5L35 5L35 4L33 4L33 3L35 3L35 2L33 2L33 3L32 3L32 4L31 4L31 3L30 3L30 4L31 4L31 8L32 8L32 10L31 10L31 11L29 11L29 9L28 9L28 11L29 11L29 12L28 12L28 13L26 13L26 12L27 12L27 11L26 11L26 12L25 12L25 10L23 10L23 8L24 8L24 6L23 6L23 5L24 5L24 4L23 4L23 3L26 3L26 4L25 4L25 8L26 8L26 4L29 4L29 2L28 2L28 1L27 1L27 2L26 2L26 1L25 1L25 2L23 2L23 3L20 3L20 2L19 2L19 4L18 4L18 3L15 3L15 2L14 2L14 4L13 4L13 2L10 2L10 1ZM21 1L21 2L22 2L22 1ZM46 1L46 2L47 2L47 1ZM11 3L11 4L12 4L12 5L11 5L11 6L12 6L12 5L13 5L13 4L12 4L12 3ZM15 4L15 5L14 5L14 8L15 8L15 9L17 9L17 10L18 10L18 11L17 11L17 12L16 12L16 13L15 13L15 14L14 14L14 16L15 16L15 17L14 17L14 18L15 18L15 21L16 21L16 19L17 19L17 18L15 18L15 17L19 17L19 18L18 18L18 19L20 19L20 20L21 20L21 21L22 21L22 22L24 22L24 21L25 21L25 22L26 22L26 23L25 23L25 24L27 24L27 21L25 21L25 20L26 20L26 18L28 18L28 19L27 19L27 20L28 20L28 19L30 19L30 20L31 20L31 21L28 21L28 22L31 22L31 21L32 21L32 20L35 20L35 23L32 23L32 24L33 24L33 25L37 25L37 26L38 26L38 25L39 25L39 26L40 26L40 27L41 27L41 28L42 28L42 27L41 27L41 26L44 26L44 24L43 24L43 23L44 23L44 20L43 20L43 21L39 21L39 20L41 20L41 18L42 18L42 19L43 19L43 18L44 18L44 15L42 15L42 16L41 16L41 15L40 15L40 14L38 14L38 15L39 15L39 16L38 16L38 17L37 17L37 16L35 16L35 17L37 17L37 18L38 18L38 17L39 17L39 19L37 19L37 20L36 20L36 19L35 19L35 18L33 18L33 17L32 17L32 16L31 16L31 15L30 15L30 14L31 14L31 13L32 13L32 11L33 11L33 10L32 10L32 11L31 11L31 13L30 13L30 14L29 14L29 13L28 13L28 14L29 14L29 16L28 16L28 15L27 15L27 14L26 14L26 13L23 13L23 12L24 12L24 11L23 11L23 10L22 10L22 11L21 11L21 12L20 12L20 13L19 13L19 11L20 11L20 9L19 9L19 8L22 8L22 7L23 7L23 6L22 6L22 7L21 7L21 4L19 4L19 5L20 5L20 7L19 7L19 6L18 6L18 4L17 4L17 6L16 6L16 7L15 7L15 5L16 5L16 4ZM32 4L32 5L33 5L33 6L32 6L32 7L33 7L33 9L34 9L34 8L35 8L35 5L33 5L33 4ZM27 5L27 8L30 8L30 5ZM17 6L17 7L16 7L16 8L17 8L17 7L18 7L18 8L19 8L19 7L18 7L18 6ZM28 6L28 7L29 7L29 6ZM33 6L33 7L34 7L34 6ZM40 6L40 7L41 7L41 8L42 8L42 9L41 9L41 10L40 10L40 9L39 9L39 10L40 10L40 12L41 12L41 10L43 10L43 13L41 13L41 14L44 14L44 11L45 11L45 10L46 10L46 9L45 9L45 10L44 10L44 8L43 8L43 6L42 6L42 7L41 7L41 6ZM44 6L44 7L45 7L45 6ZM3 10L3 11L4 11L4 10ZM17 12L17 13L16 13L16 16L18 16L18 14L17 14L17 13L18 13L18 12ZM21 12L21 13L20 13L20 15L19 15L19 17L20 17L20 19L21 19L21 20L22 20L22 21L24 21L24 20L23 20L23 19L24 19L24 18L23 18L23 19L21 19L21 18L22 18L22 17L26 17L26 16L27 16L27 17L28 17L28 16L27 16L27 15L26 15L26 14L23 14L23 13L22 13L22 12ZM33 12L33 13L34 13L34 12ZM50 12L50 14L49 14L49 15L48 15L48 16L49 16L49 15L50 15L50 16L51 16L51 15L50 15L50 14L51 14L51 12ZM52 12L52 13L53 13L53 12ZM21 13L21 15L20 15L20 16L21 16L21 17L22 17L22 16L21 16L21 15L23 15L23 16L26 16L26 15L23 15L23 14L22 14L22 13ZM3 16L3 17L4 17L4 18L5 18L5 17L4 17L4 16ZM39 16L39 17L41 17L41 16ZM42 16L42 17L43 17L43 16ZM31 17L31 18L30 18L30 19L31 19L31 18L32 18L32 17ZM50 17L50 18L48 18L48 19L51 19L51 17ZM6 18L6 19L5 19L5 20L6 20L6 21L8 21L8 22L6 22L6 23L7 23L7 24L6 24L6 25L7 25L7 24L9 24L9 23L10 23L10 21L11 21L11 18L8 18L8 19L7 19L7 18ZM6 19L6 20L7 20L7 19ZM12 19L12 20L14 20L14 19ZM1 20L1 21L2 21L2 20ZM37 20L37 21L38 21L38 22L37 22L37 24L39 24L39 25L40 25L40 26L41 26L41 25L42 25L42 24L39 24L39 23L40 23L40 22L39 22L39 21L38 21L38 20ZM45 21L45 22L46 22L46 21ZM38 22L38 23L39 23L39 22ZM41 22L41 23L43 23L43 22ZM11 23L11 24L10 24L10 25L11 25L11 24L12 24L12 23ZM15 23L15 24L16 24L16 25L14 25L14 26L18 26L18 27L17 27L17 28L18 28L18 29L16 29L16 28L15 28L15 27L14 27L14 28L15 28L15 29L16 29L16 30L18 30L18 29L19 29L19 26L18 26L18 25L17 25L17 24L16 24L16 23ZM23 23L23 24L24 24L24 23ZM28 23L28 24L29 24L29 23ZM30 23L30 24L31 24L31 23ZM45 24L45 25L46 25L46 24ZM54 24L54 25L55 25L55 24ZM12 26L12 27L11 27L11 30L10 30L10 27L9 27L9 31L10 31L10 32L11 32L11 33L12 33L12 31L14 31L14 34L15 34L15 35L16 35L16 34L17 34L17 32L18 32L18 31L17 31L17 32L15 32L15 30L13 30L13 26ZM32 26L32 27L33 27L33 28L35 28L35 30L33 30L33 32L34 32L34 31L36 31L36 30L37 30L37 29L38 29L38 28L39 28L39 27L36 27L36 26L34 26L34 27L33 27L33 26ZM45 26L45 27L43 27L43 28L45 28L45 27L46 27L46 26ZM3 27L3 28L4 28L4 27ZM5 27L5 30L8 30L8 27ZM27 27L27 30L30 30L30 27ZM49 27L49 30L52 30L52 27ZM6 28L6 29L7 29L7 28ZM21 28L21 29L22 29L22 28ZM25 28L25 29L26 29L26 28ZM28 28L28 29L29 29L29 28ZM50 28L50 29L51 29L51 28ZM11 30L11 31L12 31L12 30ZM19 30L19 32L20 32L20 30ZM38 30L38 32L39 32L39 30ZM4 31L4 32L5 32L5 33L6 33L6 34L5 34L5 35L6 35L6 36L7 36L7 37L6 37L6 38L8 38L8 40L9 40L9 41L11 41L11 42L9 42L9 44L12 44L12 43L14 43L14 42L17 42L17 43L18 43L18 42L19 42L19 41L18 41L18 42L17 42L17 41L14 41L14 42L12 42L12 41L13 41L13 40L15 40L15 39L16 39L16 40L17 40L17 36L14 36L14 37L12 37L12 38L11 38L11 37L9 37L9 38L8 38L8 36L11 36L11 35L8 35L8 34L9 34L9 33L8 33L8 32L7 32L7 31ZM6 32L6 33L7 33L7 32ZM31 32L31 33L29 33L29 34L30 34L30 36L29 36L29 37L31 37L31 38L29 38L29 39L33 39L33 40L35 40L35 42L37 42L37 43L36 43L36 44L35 44L35 43L34 43L34 42L33 42L33 41L32 41L32 40L31 40L31 41L32 41L32 42L33 42L33 43L34 43L34 45L35 45L35 46L33 46L33 49L34 49L34 48L35 48L35 49L36 49L36 50L38 50L38 51L37 51L37 52L38 52L38 53L39 53L39 52L38 52L38 51L40 51L40 52L41 52L41 50L38 50L38 49L39 49L39 48L41 48L41 46L43 46L43 45L44 45L44 44L45 44L45 45L47 45L47 43L48 43L48 42L47 42L47 43L46 43L46 42L45 42L45 43L44 43L44 44L43 44L43 42L44 42L44 41L39 41L39 42L38 42L38 40L41 40L41 39L42 39L42 38L43 38L43 37L44 37L44 38L45 38L45 39L43 39L43 40L45 40L45 39L46 39L46 40L47 40L47 39L50 39L50 38L51 38L51 36L52 36L52 35L53 35L53 34L52 34L52 35L50 35L50 34L48 34L48 35L50 35L50 36L48 36L48 37L47 37L47 39L46 39L46 38L45 38L45 37L46 37L46 35L44 35L44 36L43 36L43 35L42 35L42 34L45 34L45 33L43 33L43 32L41 32L41 33L39 33L39 34L40 34L40 35L38 35L38 33L37 33L37 32L35 32L35 34L37 34L37 36L35 36L35 35L32 35L32 32ZM48 32L48 33L49 33L49 32ZM18 33L18 35L20 35L20 34L21 34L21 33L20 33L20 34L19 34L19 33ZM6 34L6 35L7 35L7 34ZM41 35L41 36L40 36L40 37L39 37L39 36L38 36L38 38L37 38L37 39L35 39L35 40L38 40L38 39L41 39L41 38L42 38L42 37L43 37L43 36L42 36L42 35ZM32 36L32 37L33 37L33 38L35 38L35 37L33 37L33 36ZM41 36L41 37L40 37L40 38L41 38L41 37L42 37L42 36ZM44 36L44 37L45 37L45 36ZM14 37L14 38L12 38L12 39L11 39L11 41L12 41L12 39L15 39L15 38L16 38L16 37ZM18 37L18 39L20 39L20 38L19 38L19 37ZM27 37L27 38L28 38L28 37ZM49 37L49 38L50 38L50 37ZM1 39L1 40L2 40L2 41L1 41L1 42L2 42L2 43L1 43L1 44L3 44L3 45L4 45L4 46L3 46L3 47L5 47L5 44L3 44L3 42L4 42L4 43L5 43L5 42L8 42L8 41L6 41L6 40L7 40L7 39L6 39L6 40L2 40L2 39ZM9 39L9 40L10 40L10 39ZM26 39L26 40L28 40L28 39ZM2 41L2 42L3 42L3 41ZM4 41L4 42L5 42L5 41ZM26 41L26 42L27 42L27 41ZM11 42L11 43L12 43L12 42ZM41 42L41 43L40 43L40 44L39 44L39 45L38 45L38 46L39 46L39 47L38 47L38 48L37 48L37 49L38 49L38 48L39 48L39 47L40 47L40 46L39 46L39 45L41 45L41 44L42 44L42 42ZM51 42L51 43L50 43L50 44L51 44L51 43L53 43L53 42ZM6 43L6 44L8 44L8 43ZM15 43L15 44L13 44L13 45L15 45L15 46L12 46L12 45L10 45L10 46L12 46L12 47L10 47L10 48L11 48L11 49L12 49L12 50L13 50L13 49L12 49L12 48L13 48L13 47L14 47L14 49L15 49L15 50L14 50L14 52L16 52L16 53L17 53L17 52L19 52L19 51L18 51L18 50L17 50L17 49L15 49L15 48L17 48L17 47L18 47L18 46L17 46L17 45L18 45L18 44L17 44L17 45L16 45L16 43ZM45 43L45 44L46 44L46 43ZM6 45L6 46L7 46L7 47L9 47L9 45ZM22 45L22 46L23 46L23 45ZM15 46L15 47L16 47L16 46ZM35 46L35 48L36 48L36 47L37 47L37 46ZM42 47L42 48L43 48L43 47ZM24 48L24 49L25 49L25 48ZM45 48L45 49L46 49L46 48ZM54 48L54 49L56 49L56 48ZM27 49L27 52L30 52L30 49ZM49 49L49 52L52 52L52 49ZM28 50L28 51L29 51L29 50ZM50 50L50 51L51 51L51 50ZM54 50L54 51L55 51L55 50ZM43 53L43 54L44 54L44 53ZM41 54L41 55L42 55L42 54ZM50 55L50 56L51 56L51 55ZM53 55L53 56L55 56L55 57L56 57L56 56L55 56L55 55ZM0 0L0 7L7 7L7 0ZM1 1L1 6L6 6L6 1ZM2 2L2 5L5 5L5 2ZM50 0L50 7L57 7L57 0ZM51 1L51 6L56 6L56 1ZM52 2L52 5L55 5L55 2ZM0 50L0 57L7 57L7 50ZM1 51L1 56L6 56L6 51ZM2 52L2 55L5 55L5 52Z" fill="#000000"/></g></g></svg>
