<?xml version="1.0" encoding="UTF-8"?>
<svg xmlns="http://www.w3.org/2000/svg" version="1.1" width="300" height="300" viewBox="0 0 300 300"><rect x="0" y="0" width="300" height="300" fill="#fefefe"/><g transform="scale(4.615)"><g transform="translate(4,4)"><path fill-rule="evenodd" d="M9 0L9 1L8 1L8 2L10 2L10 3L11 3L11 2L13 2L13 3L12 3L12 4L11 4L11 5L10 5L10 4L9 4L9 3L8 3L8 4L9 4L9 5L8 5L8 7L9 7L9 8L6 8L6 9L5 9L5 8L0 8L0 10L1 10L1 11L0 11L0 12L1 12L1 11L2 11L2 10L3 10L3 9L5 9L5 10L4 10L4 11L5 11L5 12L3 12L3 13L0 13L0 14L1 14L1 16L0 16L0 19L1 19L1 17L2 17L2 15L3 15L3 14L4 14L4 18L5 18L5 17L7 17L7 16L8 16L8 18L6 18L6 19L7 19L7 20L6 20L6 21L7 21L7 20L9 20L9 19L10 19L10 21L8 21L8 22L6 22L6 23L8 23L8 24L5 24L5 20L4 20L4 19L3 19L3 18L2 18L2 19L3 19L3 20L4 20L4 23L2 23L2 21L0 21L0 22L1 22L1 23L0 23L0 24L1 24L1 23L2 23L2 24L3 24L3 26L4 26L4 27L2 27L2 26L0 26L0 28L1 28L1 29L3 29L3 32L4 32L4 33L3 33L3 34L2 34L2 33L1 33L1 31L0 31L0 34L2 34L2 35L5 35L5 36L6 36L6 37L7 37L7 36L9 36L9 38L4 38L4 37L3 37L3 36L1 36L1 35L0 35L0 36L1 36L1 37L0 37L0 38L1 38L1 39L0 39L0 40L1 40L1 41L0 41L0 42L1 42L1 43L0 43L0 48L5 48L5 47L12 47L12 48L9 48L9 49L8 49L8 48L6 48L6 49L8 49L8 51L9 51L9 49L12 49L12 52L13 52L13 53L10 53L10 52L8 52L8 57L9 57L9 54L12 54L12 55L13 55L13 56L12 56L12 57L15 57L15 56L14 56L14 55L13 55L13 53L14 53L14 54L15 54L15 55L16 55L16 56L17 56L17 57L20 57L20 56L17 56L17 54L19 54L19 55L20 55L20 54L19 54L19 53L20 53L20 52L21 52L21 50L25 50L25 51L26 51L26 52L24 52L24 53L21 53L21 54L22 54L22 55L23 55L23 56L24 56L24 57L26 57L26 56L24 56L24 55L23 55L23 54L24 54L24 53L26 53L26 54L25 54L25 55L26 55L26 54L30 54L30 53L31 53L31 49L32 49L32 47L33 47L33 48L34 48L34 47L35 47L35 46L36 46L36 45L37 45L37 47L36 47L36 48L35 48L35 49L36 49L36 50L32 50L32 52L33 52L33 53L32 53L32 54L31 54L31 56L30 56L30 55L29 55L29 56L27 56L27 57L29 57L29 56L30 56L30 57L31 57L31 56L35 56L35 57L39 57L39 56L37 56L37 54L38 54L38 55L40 55L40 56L42 56L42 55L43 55L43 57L44 57L44 54L46 54L46 55L47 55L47 57L48 57L48 56L50 56L50 57L52 57L52 55L51 55L51 53L52 53L52 54L53 54L53 55L54 55L54 56L53 56L53 57L54 57L54 56L55 56L55 57L56 57L56 56L55 56L55 55L54 55L54 54L53 54L53 52L54 52L54 53L57 53L57 52L55 52L55 51L54 51L54 50L57 50L57 48L56 48L56 46L57 46L57 44L56 44L56 41L53 41L53 40L55 40L55 39L57 39L57 37L55 37L55 35L56 35L56 34L55 34L55 32L56 32L56 33L57 33L57 32L56 32L56 30L57 30L57 29L55 29L55 31L53 31L53 30L54 30L54 28L56 28L56 27L55 27L55 26L57 26L57 25L56 25L56 22L57 22L57 19L56 19L56 18L57 18L57 17L56 17L56 16L57 16L57 15L56 15L56 14L57 14L57 13L56 13L56 8L55 8L55 10L54 10L54 11L52 11L52 10L53 10L53 9L54 9L54 8L53 8L53 9L52 9L52 8L51 8L51 9L52 9L52 10L51 10L51 11L50 11L50 12L49 12L49 10L50 10L50 8L49 8L49 6L48 6L48 7L47 7L47 5L48 5L48 0L45 0L45 2L44 2L44 3L43 3L43 4L40 4L40 5L39 5L39 6L38 6L38 7L37 7L37 5L38 5L38 4L37 4L37 3L36 3L36 0L35 0L35 1L33 1L33 0L32 0L32 3L31 3L31 2L29 2L29 3L30 3L30 4L26 4L26 3L23 3L23 4L19 4L19 1L18 1L18 0L17 0L17 2L15 2L15 1L14 1L14 2L13 2L13 1L10 1L10 0ZM21 0L21 1L20 1L20 2L21 2L21 3L22 3L22 2L28 2L28 1L31 1L31 0L28 0L28 1L26 1L26 0L23 0L23 1L22 1L22 0ZM37 0L37 1L38 1L38 2L39 2L39 3L41 3L41 2L43 2L43 0L41 0L41 1L40 1L40 0L39 0L39 1L38 1L38 0ZM21 1L21 2L22 2L22 1ZM46 1L46 2L47 2L47 1ZM14 2L14 4L13 4L13 7L12 7L12 6L11 6L11 7L10 7L10 5L9 5L9 7L10 7L10 8L11 8L11 9L12 9L12 8L14 8L14 10L15 10L15 13L13 13L13 12L14 12L14 11L13 11L13 10L12 10L12 11L11 11L11 12L10 12L10 14L11 14L11 15L10 15L10 16L9 16L9 17L10 17L10 16L11 16L11 15L14 15L14 17L12 17L12 18L10 18L10 19L11 19L11 20L13 20L13 21L12 21L12 22L9 22L9 23L10 23L10 24L11 24L11 23L12 23L12 22L13 22L13 23L14 23L14 22L16 22L16 21L17 21L17 22L18 22L18 21L17 21L17 20L19 20L19 18L18 18L18 19L16 19L16 18L17 18L17 17L16 17L16 16L18 16L18 14L17 14L17 13L18 13L18 12L17 12L17 13L16 13L16 11L18 11L18 10L17 10L17 9L16 9L16 8L19 8L19 7L20 7L20 5L19 5L19 4L17 4L17 3L18 3L18 2L17 2L17 3L15 3L15 2ZM34 2L34 3L35 3L35 2ZM32 3L32 4L31 4L31 8L32 8L32 10L31 10L31 11L29 11L29 12L28 12L28 13L26 13L26 12L27 12L27 11L26 11L26 12L25 12L25 10L24 10L24 9L25 9L25 8L26 8L26 4L25 4L25 8L24 8L24 6L23 6L23 5L24 5L24 4L23 4L23 5L22 5L22 6L21 6L21 7L22 7L22 6L23 6L23 8L20 8L20 10L21 10L21 11L22 11L22 10L23 10L23 11L24 11L24 12L23 12L23 13L22 13L22 12L20 12L20 11L19 11L19 12L20 12L20 14L19 14L19 15L20 15L20 16L19 16L19 17L20 17L20 21L19 21L19 22L20 22L20 23L19 23L19 25L20 25L20 26L18 26L18 25L17 25L17 24L18 24L18 23L17 23L17 24L16 24L16 23L15 23L15 24L14 24L14 25L15 25L15 26L13 26L13 24L12 24L12 26L11 26L11 28L10 28L10 30L9 30L9 31L8 31L8 32L7 32L7 31L5 31L5 33L6 33L6 34L7 34L7 33L8 33L8 32L9 32L9 33L12 33L12 32L13 32L13 31L14 31L14 29L16 29L16 31L15 31L15 32L14 32L14 33L15 33L15 34L16 34L16 35L17 35L17 36L15 36L15 37L16 37L16 38L14 38L14 39L16 39L16 40L19 40L19 41L15 41L15 42L14 42L14 43L13 43L13 44L14 44L14 45L11 45L11 46L14 46L14 48L15 48L15 47L16 47L16 49L15 49L15 50L14 50L14 49L13 49L13 48L12 48L12 49L13 49L13 50L14 50L14 51L15 51L15 50L17 50L17 51L16 51L16 53L15 53L15 52L14 52L14 53L15 53L15 54L16 54L16 53L17 53L17 51L18 51L18 52L20 52L20 50L21 50L21 49L23 49L23 48L24 48L24 49L25 49L25 48L28 48L28 46L30 46L30 43L29 43L29 42L32 42L32 43L33 43L33 44L32 44L32 46L31 46L31 47L32 47L32 46L35 46L35 45L34 45L34 43L35 43L35 44L36 44L36 43L37 43L37 42L35 42L35 40L38 40L38 42L39 42L39 41L42 41L42 40L43 40L43 41L44 41L44 42L43 42L43 44L44 44L44 45L43 45L43 46L41 46L41 44L42 44L42 42L41 42L41 43L40 43L40 44L39 44L39 45L38 45L38 46L39 46L39 47L38 47L38 48L37 48L37 49L38 49L38 50L36 50L36 52L37 52L37 53L38 53L38 54L40 54L40 53L41 53L41 52L42 52L42 53L43 53L43 54L44 54L44 53L46 53L46 54L48 54L48 50L47 50L47 49L48 49L48 48L49 48L49 47L48 47L48 46L49 46L49 45L50 45L50 47L51 47L51 48L52 48L52 47L54 47L54 46L56 46L56 45L55 45L55 44L54 44L54 45L52 45L52 44L53 44L53 43L54 43L54 42L53 42L53 41L51 41L51 42L50 42L50 43L49 43L49 42L48 42L48 41L49 41L49 40L50 40L50 39L51 39L51 40L53 40L53 39L54 39L54 38L53 38L53 35L55 35L55 34L54 34L54 32L53 32L53 31L50 31L50 32L49 32L49 31L48 31L48 28L47 28L47 29L46 29L46 30L47 30L47 31L46 31L46 32L43 32L43 30L40 30L40 29L44 29L44 31L45 31L45 28L46 28L46 27L47 27L47 24L45 24L45 23L46 23L46 22L47 22L47 23L48 23L48 24L49 24L49 23L50 23L50 24L51 24L51 25L50 25L50 26L53 26L53 27L54 27L54 26L53 26L53 23L55 23L55 22L56 22L56 21L55 21L55 20L56 20L56 19L55 19L55 20L53 20L53 19L52 19L52 20L51 20L51 21L49 21L49 22L47 22L47 20L44 20L44 18L46 18L46 19L47 19L47 17L48 17L48 16L49 16L49 15L50 15L50 14L51 14L51 12L50 12L50 14L49 14L49 15L48 15L48 16L47 16L47 17L45 17L45 14L47 14L47 13L49 13L49 12L45 12L45 11L46 11L46 10L47 10L47 11L48 11L48 10L47 10L47 9L48 9L48 8L46 8L46 5L47 5L47 3L44 3L44 6L43 6L43 8L44 8L44 9L43 9L43 11L42 11L42 10L41 10L41 9L42 9L42 8L41 8L41 7L42 7L42 5L40 5L40 6L39 6L39 7L40 7L40 8L38 8L38 11L39 11L39 12L40 12L40 13L38 13L38 14L37 14L37 15L35 15L35 16L32 16L32 13L33 13L33 14L36 14L36 13L35 13L35 11L36 11L36 10L37 10L37 9L35 9L35 8L37 8L37 7L36 7L36 5L37 5L37 4L36 4L36 5L35 5L35 4L33 4L33 3ZM15 4L15 5L16 5L16 4ZM32 4L32 5L33 5L33 6L32 6L32 7L33 7L33 9L34 9L34 8L35 8L35 5L33 5L33 4ZM45 4L45 5L46 5L46 4ZM27 5L27 8L30 8L30 5ZM14 6L14 7L15 7L15 8L16 8L16 7L17 7L17 6L16 6L16 7L15 7L15 6ZM18 6L18 7L19 7L19 6ZM28 6L28 7L29 7L29 6ZM33 6L33 7L34 7L34 6ZM40 6L40 7L41 7L41 6ZM44 6L44 7L45 7L45 6ZM11 7L11 8L12 8L12 7ZM23 8L23 9L24 9L24 8ZM1 9L1 10L2 10L2 9ZM6 9L6 10L5 10L5 11L6 11L6 12L8 12L8 14L7 14L7 13L6 13L6 14L7 14L7 15L5 15L5 16L7 16L7 15L9 15L9 12L8 12L8 11L9 11L9 10L8 10L8 9ZM15 9L15 10L16 10L16 9ZM39 9L39 11L40 11L40 12L41 12L41 10L40 10L40 9ZM44 9L44 11L43 11L43 13L41 13L41 14L45 14L45 13L44 13L44 11L45 11L45 9ZM6 10L6 11L8 11L8 10ZM32 10L32 11L33 11L33 10ZM12 11L12 12L11 12L11 14L13 14L13 13L12 13L12 12L13 12L13 11ZM31 12L31 13L30 13L30 14L29 14L29 13L28 13L28 14L29 14L29 16L28 16L28 15L27 15L27 16L28 16L28 17L27 17L27 18L26 18L26 15L25 15L25 13L23 13L23 14L22 14L22 13L21 13L21 15L23 15L23 16L25 16L25 17L22 17L22 16L20 16L20 17L22 17L22 18L21 18L21 19L22 19L22 20L24 20L24 21L22 21L22 22L21 22L21 24L20 24L20 25L21 25L21 26L20 26L20 27L19 27L19 28L21 28L21 29L22 29L22 28L21 28L21 27L22 27L22 26L24 26L24 27L23 27L23 30L25 30L25 31L26 31L26 32L25 32L25 33L23 33L23 34L24 34L24 36L23 36L23 35L22 35L22 33L21 33L21 34L20 34L20 33L19 33L19 32L20 32L20 31L19 31L19 30L20 30L20 29L18 29L18 28L17 28L17 27L18 27L18 26L17 26L17 27L16 27L16 29L18 29L18 31L19 31L19 32L15 32L15 33L17 33L17 34L20 34L20 35L21 35L21 36L23 36L23 37L24 37L24 38L22 38L22 39L21 39L21 37L19 37L19 36L18 36L18 37L17 37L17 39L19 39L19 40L22 40L22 39L24 39L24 40L23 40L23 41L24 41L24 42L22 42L22 41L21 41L21 42L22 42L22 43L21 43L21 44L20 44L20 43L19 43L19 42L20 42L20 41L19 41L19 42L18 42L18 43L14 43L14 44L18 44L18 45L17 45L17 46L18 46L18 47L17 47L17 50L18 50L18 51L19 51L19 50L20 50L20 48L21 48L21 47L23 47L23 46L24 46L24 47L25 47L25 44L27 44L27 45L26 45L26 47L27 47L27 45L28 45L28 44L29 44L29 43L25 43L25 41L24 41L24 40L25 40L25 37L26 37L26 36L27 36L27 31L29 31L29 32L28 32L28 33L29 33L29 34L30 34L30 36L29 36L29 37L31 37L31 38L29 38L29 39L33 39L33 40L35 40L35 39L37 39L37 38L38 38L38 37L40 37L40 38L41 38L41 39L42 39L42 38L43 38L43 37L44 37L44 38L45 38L45 37L46 37L46 35L47 35L47 36L48 36L48 37L47 37L47 39L43 39L43 40L45 40L45 41L47 41L47 39L50 39L50 38L51 38L51 39L52 39L52 38L51 38L51 37L50 37L50 36L52 36L52 35L53 35L53 34L52 34L52 33L53 33L53 32L52 32L52 33L51 33L51 32L50 32L50 34L48 34L48 35L47 35L47 34L45 34L45 33L43 33L43 32L41 32L41 33L39 33L39 34L40 34L40 35L39 35L39 36L38 36L38 33L37 33L37 32L35 32L35 34L34 34L34 33L32 33L32 32L34 32L34 31L36 31L36 30L37 30L37 29L38 29L38 28L40 28L40 27L36 27L36 26L34 26L34 27L33 27L33 26L32 26L32 24L33 24L33 25L37 25L37 26L38 26L38 25L39 25L39 24L37 24L37 22L38 22L38 21L39 21L39 22L40 22L40 24L42 24L42 23L41 23L41 22L43 22L43 25L41 25L41 26L44 26L44 20L43 20L43 18L44 18L44 15L42 15L42 16L41 16L41 15L39 15L39 14L38 14L38 15L39 15L39 16L38 16L38 17L37 17L37 16L35 16L35 17L37 17L37 18L38 18L38 17L39 17L39 19L37 19L37 20L36 20L36 19L35 19L35 18L33 18L33 19L31 19L31 20L30 20L30 18L32 18L32 16L31 16L31 15L30 15L30 14L31 14L31 13L32 13L32 12ZM33 12L33 13L34 13L34 12ZM52 12L52 13L53 13L53 14L54 14L54 15L55 15L55 14L56 14L56 13L55 13L55 12L54 12L54 13L53 13L53 12ZM15 13L15 14L14 14L14 15L15 15L15 16L16 16L16 13ZM23 14L23 15L24 15L24 14ZM39 16L39 17L41 17L41 16ZM42 16L42 17L43 17L43 16ZM50 16L50 19L51 19L51 18L56 18L56 17L54 17L54 16ZM14 17L14 18L15 18L15 17ZM23 18L23 19L24 19L24 18ZM27 18L27 19L26 19L26 21L28 21L28 22L27 22L27 24L25 24L25 23L26 23L26 22L25 22L25 21L24 21L24 22L23 22L23 23L24 23L24 24L21 24L21 25L24 25L24 24L25 24L25 25L26 25L26 26L25 26L25 27L26 27L26 26L27 26L27 25L29 25L29 26L30 26L30 25L29 25L29 24L32 24L32 23L35 23L35 20L34 20L34 19L33 19L33 20L32 20L32 21L31 21L31 23L30 23L30 22L29 22L29 21L30 21L30 20L27 20L27 19L28 19L28 18ZM41 18L41 19L42 19L42 18ZM13 19L13 20L14 20L14 19ZM48 19L48 20L49 20L49 19ZM15 20L15 21L16 21L16 20ZM37 20L37 21L38 21L38 20ZM39 20L39 21L42 21L42 20ZM13 21L13 22L14 22L14 21ZM45 21L45 22L46 22L46 21ZM51 21L51 22L50 22L50 23L53 23L53 21ZM8 24L8 25L5 25L5 26L8 26L8 25L9 25L9 27L10 27L10 25L9 25L9 24ZM15 24L15 25L16 25L16 24ZM31 26L31 27L32 27L32 30L31 30L31 31L30 31L30 32L29 32L29 33L31 33L31 34L32 34L32 35L34 35L34 34L32 34L32 33L31 33L31 32L32 32L32 30L35 30L35 28L33 28L33 27L32 27L32 26ZM5 27L5 30L8 30L8 27ZM12 27L12 29L11 29L11 30L10 30L10 31L11 31L11 32L12 32L12 31L13 31L13 29L14 29L14 28L15 28L15 27ZM27 27L27 30L30 30L30 27ZM41 27L41 28L42 28L42 27ZM43 27L43 28L45 28L45 27ZM49 27L49 30L52 30L52 27ZM6 28L6 29L7 29L7 28ZM25 28L25 29L26 29L26 28ZM28 28L28 29L29 29L29 28ZM50 28L50 29L51 29L51 28ZM38 30L38 32L39 32L39 30ZM21 31L21 32L24 32L24 31ZM47 31L47 32L46 32L46 33L47 33L47 32L48 32L48 33L49 33L49 32L48 32L48 31ZM6 32L6 33L7 33L7 32ZM25 33L25 35L26 35L26 33ZM10 34L10 39L9 39L9 40L8 40L8 39L5 39L5 41L4 41L4 39L3 39L3 37L2 37L2 39L1 39L1 40L2 40L2 42L3 42L3 43L2 43L2 44L1 44L1 45L2 45L2 44L3 44L3 45L4 45L4 46L3 46L3 47L5 47L5 45L4 45L4 43L5 43L5 44L7 44L7 45L6 45L6 46L7 46L7 45L8 45L8 46L9 46L9 45L10 45L10 43L9 43L9 45L8 45L8 43L6 43L6 42L7 42L7 41L9 41L9 42L10 42L10 39L11 39L11 40L13 40L13 38L12 38L12 37L11 37L11 34ZM12 34L12 36L14 36L14 34ZM35 34L35 36L37 36L37 34ZM42 34L42 35L41 35L41 36L40 36L40 37L41 37L41 38L42 38L42 37L43 37L43 36L44 36L44 37L45 37L45 36L44 36L44 35L45 35L45 34ZM50 34L50 35L48 35L48 36L50 36L50 35L52 35L52 34ZM6 35L6 36L7 36L7 35ZM32 36L32 37L33 37L33 38L34 38L34 39L35 39L35 37L33 37L33 36ZM41 36L41 37L42 37L42 36ZM18 37L18 38L19 38L19 39L20 39L20 38L19 38L19 37ZM27 37L27 38L26 38L26 39L27 39L27 40L28 40L28 39L27 39L27 38L28 38L28 37ZM48 37L48 38L50 38L50 37ZM38 39L38 40L39 40L39 39ZM6 40L6 41L7 41L7 40ZM29 40L29 41L30 41L30 40ZM31 40L31 41L32 41L32 42L33 42L33 43L34 43L34 42L33 42L33 41L32 41L32 40ZM3 41L3 42L4 42L4 41ZM12 41L12 42L13 42L13 41ZM26 41L26 42L27 42L27 41ZM44 42L44 43L46 43L46 44L45 44L45 45L44 45L44 46L45 46L45 47L44 47L44 48L43 48L43 47L42 47L42 48L41 48L41 46L40 46L40 47L39 47L39 48L38 48L38 49L39 49L39 48L41 48L41 50L38 50L38 51L37 51L37 52L38 52L38 53L39 53L39 51L40 51L40 52L41 52L41 50L42 50L42 52L43 52L43 53L44 53L44 52L47 52L47 50L44 50L44 48L46 48L46 47L47 47L47 48L48 48L48 47L47 47L47 46L48 46L48 45L49 45L49 44L48 44L48 45L47 45L47 43L48 43L48 42L47 42L47 43L46 43L46 42ZM51 42L51 43L50 43L50 44L51 44L51 43L53 43L53 42ZM23 43L23 45L22 45L22 44L21 44L21 45L20 45L20 44L19 44L19 45L20 45L20 46L19 46L19 47L18 47L18 48L20 48L20 46L21 46L21 45L22 45L22 46L23 46L23 45L24 45L24 43ZM14 45L14 46L15 46L15 45ZM45 45L45 46L47 46L47 45ZM51 45L51 47L52 47L52 45ZM1 46L1 47L2 47L2 46ZM42 48L42 49L43 49L43 48ZM53 48L53 49L56 49L56 48ZM27 49L27 52L30 52L30 49ZM49 49L49 52L52 52L52 49ZM28 50L28 51L29 51L29 50ZM50 50L50 51L51 51L51 50ZM22 51L22 52L23 52L23 51ZM33 51L33 52L34 52L34 53L33 53L33 54L34 54L34 55L35 55L35 56L36 56L36 54L35 54L35 51ZM41 54L41 55L42 55L42 54ZM10 55L10 57L11 57L11 55ZM50 55L50 56L51 56L51 55ZM45 56L45 57L46 57L46 56ZM0 0L0 7L7 7L7 0ZM1 1L1 6L6 6L6 1ZM2 2L2 5L5 5L5 2ZM50 0L50 7L57 7L57 0ZM51 1L51 6L56 6L56 1ZM52 2L52 5L55 5L55 2ZM0 50L0 57L7 57L7 50ZM1 51L1 56L6 56L6 51ZM2 52L2 55L5 55L5 52Z" fill="#000000"/></g></g></svg>
