<?xml version="1.0" encoding="UTF-8"?>
<svg xmlns="http://www.w3.org/2000/svg" version="1.1" width="300" height="300" viewBox="0 0 300 300"><rect x="0" y="0" width="300" height="300" fill="#fefefe"/><g transform="scale(4.615)"><g transform="translate(4,4)"><path fill-rule="evenodd" d="M8 0L8 2L10 2L10 3L9 3L9 4L8 4L8 9L7 9L7 8L5 8L5 9L7 9L7 10L6 10L6 11L3 11L3 10L4 10L4 9L3 9L3 8L0 8L0 9L3 9L3 10L1 10L1 11L0 11L0 12L1 12L1 11L3 11L3 12L2 12L2 13L1 13L1 14L2 14L2 15L1 15L1 16L0 16L0 17L1 17L1 16L2 16L2 17L3 17L3 18L4 18L4 19L3 19L3 20L2 20L2 18L1 18L1 19L0 19L0 21L1 21L1 22L0 22L0 24L1 24L1 22L2 22L2 24L4 24L4 23L5 23L5 22L4 22L4 21L5 21L5 20L6 20L6 21L7 21L7 22L6 22L6 23L8 23L8 21L7 21L7 20L8 20L8 19L9 19L9 18L8 18L8 17L7 17L7 16L6 16L6 15L8 15L8 16L9 16L9 17L10 17L10 19L11 19L11 21L12 21L12 22L11 22L11 23L12 23L12 22L13 22L13 23L14 23L14 24L13 24L13 25L12 25L12 24L10 24L10 26L6 26L6 25L9 25L9 24L6 24L6 25L0 25L0 27L1 27L1 26L3 26L3 27L4 27L4 30L3 30L3 31L1 31L1 30L0 30L0 32L2 32L2 33L3 33L3 32L4 32L4 33L5 33L5 32L6 32L6 33L7 33L7 34L6 34L6 35L5 35L5 36L4 36L4 35L3 35L3 36L4 36L4 37L3 37L3 38L4 38L4 40L5 40L5 42L4 42L4 41L3 41L3 39L1 39L1 40L0 40L0 41L1 41L1 40L2 40L2 43L0 43L0 44L1 44L1 46L0 46L0 48L5 48L5 47L7 47L7 48L6 48L6 49L8 49L8 50L9 50L9 49L10 49L10 50L11 50L11 51L13 51L13 50L14 50L14 53L15 53L15 54L14 54L14 55L15 55L15 56L13 56L13 54L12 54L12 56L10 56L10 57L15 57L15 56L16 56L16 57L17 57L17 55L18 55L18 54L19 54L19 51L18 51L18 50L20 50L20 49L21 49L21 48L22 48L22 50L21 50L21 51L20 51L20 53L21 53L21 52L22 52L22 53L23 53L23 55L22 55L22 57L23 57L23 56L24 56L24 57L25 57L25 55L24 55L24 54L25 54L25 51L24 51L24 49L23 49L23 48L22 48L22 46L21 46L21 48L20 48L20 47L18 47L18 50L17 50L17 51L18 51L18 54L17 54L17 52L15 52L15 51L16 51L16 49L17 49L17 48L16 48L16 47L17 47L17 46L18 46L18 45L19 45L19 46L20 46L20 45L19 45L19 44L18 44L18 43L20 43L20 44L21 44L21 43L20 43L20 41L21 41L21 40L22 40L22 41L23 41L23 42L24 42L24 44L25 44L25 45L26 45L26 46L23 46L23 47L24 47L24 48L25 48L25 47L26 47L26 46L27 46L27 47L28 47L28 44L30 44L30 43L31 43L31 46L30 46L30 47L29 47L29 48L26 48L26 55L27 55L27 56L26 56L26 57L28 57L28 55L29 55L29 57L33 57L33 55L34 55L34 57L35 57L35 55L37 55L37 54L36 54L36 53L37 53L37 51L38 51L38 53L39 53L39 55L40 55L40 57L41 57L41 56L42 56L42 57L43 57L43 56L44 56L44 57L46 57L46 56L47 56L47 55L46 55L46 53L49 53L49 54L48 54L48 55L49 55L49 57L50 57L50 55L49 55L49 54L52 54L52 55L53 55L53 56L51 56L51 57L54 57L54 53L55 53L55 52L54 52L54 51L53 51L53 50L54 50L54 49L55 49L55 50L56 50L56 52L57 52L57 50L56 50L56 47L57 47L57 45L56 45L56 44L57 44L57 42L56 42L56 41L57 41L57 40L54 40L54 39L55 39L55 38L57 38L57 36L56 36L56 37L55 37L55 36L54 36L54 34L53 34L53 36L52 36L52 37L51 37L51 38L50 38L50 40L51 40L51 41L49 41L49 42L48 42L48 44L47 44L47 43L46 43L46 41L48 41L48 40L49 40L49 37L50 37L50 36L51 36L51 33L50 33L50 32L52 32L52 31L53 31L53 33L56 33L56 35L57 35L57 33L56 33L56 31L57 31L57 28L56 28L56 27L57 27L57 24L56 24L56 23L57 23L57 21L56 21L56 20L55 20L55 21L54 21L54 19L55 19L55 18L56 18L56 19L57 19L57 12L56 12L56 11L57 11L57 10L56 10L56 9L57 9L57 8L55 8L55 9L54 9L54 10L52 10L52 9L53 9L53 8L49 8L49 9L51 9L51 11L50 11L50 13L49 13L49 14L48 14L48 12L47 12L47 11L46 11L46 8L47 8L47 10L48 10L48 11L49 11L49 10L48 10L48 7L49 7L49 6L48 6L48 7L47 7L47 5L48 5L48 0L42 0L42 1L41 1L41 0L38 0L38 2L37 2L37 1L35 1L35 0L34 0L34 2L37 2L37 4L38 4L38 5L39 5L39 4L40 4L40 2L41 2L41 4L42 4L42 5L41 5L41 6L40 6L40 7L39 7L39 6L38 6L38 9L37 9L37 6L36 6L36 10L34 10L34 9L35 9L35 4L36 4L36 3L34 3L34 8L32 8L32 9L31 9L31 5L32 5L32 2L33 2L33 1L32 1L32 2L31 2L31 0L30 0L30 1L29 1L29 2L28 2L28 3L27 3L27 1L28 1L28 0L26 0L26 2L25 2L25 4L24 4L24 1L25 1L25 0L24 0L24 1L23 1L23 0L20 0L20 1L19 1L19 3L21 3L21 5L20 5L20 7L19 7L19 5L18 5L18 3L17 3L17 2L15 2L15 0L11 0L11 1L9 1L9 0ZM16 0L16 1L18 1L18 0ZM12 1L12 2L11 2L11 3L14 3L14 4L15 4L15 3L14 3L14 1ZM20 1L20 2L21 2L21 3L22 3L22 4L23 4L23 2L22 2L22 1ZM39 1L39 2L38 2L38 3L39 3L39 2L40 2L40 1ZM42 1L42 4L43 4L43 5L42 5L42 6L41 6L41 7L40 7L40 8L39 8L39 9L38 9L38 10L37 10L37 11L34 11L34 10L33 10L33 9L32 9L32 11L31 11L31 12L30 12L30 10L31 10L31 9L30 9L30 10L29 10L29 12L30 12L30 13L29 13L29 15L28 15L28 14L27 14L27 12L28 12L28 11L27 11L27 10L28 10L28 9L27 9L27 10L25 10L25 9L26 9L26 5L24 5L24 6L23 6L23 5L22 5L22 6L21 6L21 9L20 9L20 8L19 8L19 7L18 7L18 5L16 5L16 6L15 6L15 5L13 5L13 4L11 4L11 5L12 5L12 6L11 6L11 8L10 8L10 4L9 4L9 9L10 9L10 10L9 10L9 12L8 12L8 10L7 10L7 11L6 11L6 12L7 12L7 13L5 13L5 12L4 12L4 13L2 13L2 14L3 14L3 15L2 15L2 16L3 16L3 17L4 17L4 18L5 18L5 19L6 19L6 20L7 20L7 19L8 19L8 18L7 18L7 17L6 17L6 18L5 18L5 16L4 16L4 13L5 13L5 14L7 14L7 13L9 13L9 12L10 12L10 11L11 11L11 12L12 12L12 14L14 14L14 15L12 15L12 16L13 16L13 18L12 18L12 17L11 17L11 19L13 19L13 18L14 18L14 15L15 15L15 19L14 19L14 20L16 20L16 19L17 19L17 21L18 21L18 20L19 20L19 23L18 23L18 22L16 22L16 23L17 23L17 25L16 25L16 24L15 24L15 25L16 25L16 26L15 26L15 27L16 27L16 26L17 26L17 28L15 28L15 29L14 29L14 28L12 28L12 25L11 25L11 26L10 26L10 27L9 27L9 28L10 28L10 29L9 29L9 30L12 30L12 32L11 32L11 33L9 33L9 35L8 35L8 34L7 34L7 35L6 35L6 36L7 36L7 37L5 37L5 39L6 39L6 40L7 40L7 41L6 41L6 42L5 42L5 44L7 44L7 45L6 45L6 46L7 46L7 47L8 47L8 48L9 48L9 47L8 47L8 46L7 46L7 45L8 45L8 44L9 44L9 43L8 43L8 42L10 42L10 40L11 40L11 42L12 42L12 43L13 43L13 44L10 44L10 45L11 45L11 46L10 46L10 47L11 47L11 46L12 46L12 45L13 45L13 44L14 44L14 46L15 46L15 45L16 45L16 46L17 46L17 44L16 44L16 42L17 42L17 41L18 41L18 40L19 40L19 41L20 41L20 40L19 40L19 39L18 39L18 40L17 40L17 39L16 39L16 38L17 38L17 37L18 37L18 38L19 38L19 37L18 37L18 36L21 36L21 38L20 38L20 39L21 39L21 38L22 38L22 39L23 39L23 41L24 41L24 42L26 42L26 41L25 41L25 40L26 40L26 39L27 39L27 41L28 41L28 43L27 43L27 44L28 44L28 43L30 43L30 42L31 42L31 43L32 43L32 40L33 40L33 41L34 41L34 42L35 42L35 41L36 41L36 44L33 44L33 45L34 45L34 48L35 48L35 49L34 49L34 50L33 50L33 52L34 52L34 55L35 55L35 53L36 53L36 52L34 52L34 50L35 50L35 51L37 51L37 49L36 49L36 48L37 48L37 47L38 47L38 51L39 51L39 49L40 49L40 51L41 51L41 53L42 53L42 54L40 54L40 55L42 55L42 54L43 54L43 55L44 55L44 56L46 56L46 55L44 55L44 52L43 52L43 51L41 51L41 49L42 49L42 50L44 50L44 51L45 51L45 49L44 49L44 47L45 47L45 46L44 46L44 42L45 42L45 41L46 41L46 39L45 39L45 41L44 41L44 42L43 42L43 41L42 41L42 40L43 40L43 38L44 38L44 35L43 35L43 33L42 33L42 31L45 31L45 30L46 30L46 31L47 31L47 28L46 28L46 29L44 29L44 26L45 26L45 27L46 27L46 26L47 26L47 27L48 27L48 26L49 26L49 25L50 25L50 26L51 26L51 25L52 25L52 24L53 24L53 25L54 25L54 26L55 26L55 25L56 25L56 24L55 24L55 23L56 23L56 21L55 21L55 22L54 22L54 21L53 21L53 22L52 22L52 20L53 20L53 19L54 19L54 16L55 16L55 17L56 17L56 16L55 16L55 15L56 15L56 13L55 13L55 11L56 11L56 10L55 10L55 11L54 11L54 12L53 12L53 14L52 14L52 13L50 13L50 15L49 15L49 16L50 16L50 19L51 19L51 20L49 20L49 17L48 17L48 18L47 18L47 17L46 17L46 19L45 19L45 17L44 17L44 16L46 16L46 15L48 15L48 14L47 14L47 13L46 13L46 11L45 11L45 9L44 9L44 8L45 8L45 7L46 7L46 6L45 6L45 5L44 5L44 4L45 4L45 2L47 2L47 1ZM29 2L29 3L28 3L28 4L31 4L31 3L30 3L30 2ZM43 2L43 4L44 4L44 2ZM16 3L16 4L17 4L17 3ZM26 3L26 4L27 4L27 3ZM46 3L46 5L47 5L47 3ZM27 5L27 8L30 8L30 5ZM43 5L43 6L42 6L42 7L41 7L41 8L40 8L40 9L41 9L41 10L40 10L40 14L39 14L39 15L40 15L40 18L38 18L38 16L37 16L37 15L38 15L38 13L37 13L37 12L39 12L39 11L37 11L37 12L36 12L36 13L37 13L37 14L36 14L36 18L34 18L34 17L35 17L35 15L34 15L34 13L35 13L35 12L34 12L34 11L33 11L33 12L32 12L32 14L31 14L31 15L32 15L32 17L33 17L33 18L32 18L32 19L31 19L31 20L30 20L30 19L29 19L29 20L28 20L28 21L29 21L29 22L28 22L28 23L30 23L30 21L31 21L31 20L32 20L32 21L33 21L33 22L31 22L31 23L32 23L32 25L31 25L31 26L30 26L30 24L28 24L28 26L26 26L26 25L27 25L27 23L26 23L26 22L27 22L27 20L26 20L26 19L27 19L27 16L26 16L26 15L25 15L25 14L26 14L26 11L25 11L25 10L24 10L24 9L25 9L25 8L24 8L24 9L23 9L23 8L22 8L22 9L23 9L23 10L24 10L24 11L22 11L22 12L23 12L23 14L24 14L24 15L23 15L23 16L22 16L22 14L21 14L21 19L22 19L22 21L21 21L21 20L20 20L20 15L18 15L18 18L19 18L19 20L20 20L20 21L21 21L21 22L20 22L20 23L21 23L21 22L22 22L22 21L23 21L23 23L22 23L22 26L20 26L20 28L19 28L19 27L18 27L18 28L19 28L19 31L20 31L20 32L18 32L18 34L16 34L16 32L17 32L17 31L18 31L18 30L17 30L17 31L16 31L16 30L13 30L13 32L12 32L12 33L11 33L11 35L9 35L9 36L11 36L11 37L10 37L10 38L11 38L11 39L12 39L12 37L13 37L13 38L14 38L14 40L13 40L13 43L15 43L15 42L16 42L16 40L15 40L15 38L14 38L14 36L11 36L11 35L12 35L12 33L15 33L15 34L13 34L13 35L16 35L16 37L17 37L17 35L20 35L20 33L21 33L21 30L22 30L22 33L23 33L23 34L22 34L22 35L21 35L21 36L22 36L22 38L23 38L23 35L25 35L25 36L24 36L24 37L26 37L26 38L24 38L24 39L26 39L26 38L27 38L27 36L28 36L28 37L29 37L29 36L28 36L28 35L31 35L31 36L30 36L30 40L28 40L28 41L30 41L30 40L31 40L31 38L34 38L34 37L35 37L35 38L36 38L36 41L37 41L37 42L38 42L38 41L39 41L39 38L40 38L40 42L39 42L39 43L37 43L37 44L36 44L36 45L35 45L35 47L37 47L37 46L38 46L38 45L37 45L37 44L39 44L39 43L40 43L40 42L41 42L41 43L43 43L43 42L42 42L42 41L41 41L41 35L40 35L40 36L39 36L39 38L38 38L38 37L37 37L37 36L38 36L38 35L39 35L39 34L38 34L38 33L39 33L39 32L40 32L40 34L42 34L42 33L41 33L41 32L40 32L40 31L42 31L42 28L43 28L43 27L41 27L41 24L42 24L42 25L43 25L43 24L42 24L42 21L43 21L43 22L44 22L44 23L45 23L45 24L44 24L44 25L45 25L45 26L46 26L46 25L47 25L47 24L49 24L49 23L50 23L50 22L49 22L49 23L45 23L45 22L44 22L44 21L45 21L45 19L44 19L44 17L43 17L43 18L42 18L42 17L41 17L41 15L42 15L42 12L44 12L44 13L45 13L45 15L46 15L46 13L45 13L45 12L44 12L44 11L43 11L43 10L44 10L44 9L43 9L43 8L42 8L42 7L43 7L43 6L44 6L44 7L45 7L45 6L44 6L44 5ZM12 6L12 8L11 8L11 9L12 9L12 11L13 11L13 10L14 10L14 9L15 9L15 8L14 8L14 7L15 7L15 6L14 6L14 7L13 7L13 6ZM16 6L16 7L17 7L17 8L18 8L18 9L17 9L17 10L16 10L16 11L17 11L17 14L15 14L15 15L17 15L17 14L18 14L18 13L19 13L19 14L20 14L20 13L21 13L21 12L20 12L20 13L19 13L19 12L18 12L18 11L19 11L19 10L20 10L20 11L21 11L21 10L20 10L20 9L19 9L19 8L18 8L18 7L17 7L17 6ZM22 6L22 7L23 7L23 6ZM24 6L24 7L25 7L25 6ZM28 6L28 7L29 7L29 6ZM32 6L32 7L33 7L33 6ZM13 8L13 9L14 9L14 8ZM18 9L18 10L19 10L19 9ZM42 9L42 10L43 10L43 9ZM14 11L14 12L15 12L15 11ZM41 11L41 12L42 12L42 11ZM51 11L51 12L52 12L52 11ZM24 12L24 14L25 14L25 12ZM54 13L54 14L53 14L53 15L52 15L52 14L51 14L51 15L50 15L50 16L51 16L51 15L52 15L52 17L51 17L51 19L52 19L52 17L53 17L53 16L54 16L54 15L55 15L55 13ZM8 14L8 15L9 15L9 16L11 16L11 15L10 15L10 14ZM32 14L32 15L33 15L33 17L34 17L34 15L33 15L33 14ZM40 14L40 15L41 15L41 14ZM29 15L29 16L30 16L30 17L28 17L28 18L30 18L30 17L31 17L31 16L30 16L30 15ZM43 15L43 16L44 16L44 15ZM24 16L24 18L26 18L26 16ZM6 18L6 19L7 19L7 18ZM22 18L22 19L23 19L23 18ZM36 18L36 19L37 19L37 18ZM40 18L40 19L39 19L39 20L37 20L37 21L36 21L36 20L35 20L35 21L34 21L34 20L33 20L33 21L34 21L34 22L35 22L35 23L36 23L36 24L34 24L34 23L33 23L33 24L34 24L34 26L33 26L33 25L32 25L32 28L31 28L31 30L32 30L32 28L33 28L33 29L34 29L34 31L35 31L35 33L34 33L34 32L33 32L33 33L34 33L34 34L32 34L32 31L31 31L31 32L30 32L30 31L29 31L29 32L27 32L27 33L28 33L28 34L26 34L26 30L25 30L25 29L24 29L24 30L23 30L23 29L22 29L22 30L23 30L23 32L24 32L24 34L26 34L26 36L27 36L27 35L28 35L28 34L29 34L29 32L30 32L30 34L32 34L32 35L34 35L34 34L35 34L35 33L36 33L36 35L35 35L35 37L36 37L36 38L37 38L37 41L38 41L38 38L37 38L37 37L36 37L36 35L38 35L38 34L37 34L37 33L36 33L36 31L37 31L37 32L38 32L38 31L40 31L40 30L41 30L41 29L40 29L40 28L41 28L41 27L40 27L40 28L39 28L39 29L38 29L38 28L37 28L37 26L36 26L36 24L37 24L37 25L38 25L38 26L39 26L39 25L38 25L38 23L36 23L36 22L37 22L37 21L38 21L38 22L39 22L39 23L41 23L41 22L40 22L40 19L41 19L41 18ZM24 19L24 20L25 20L25 21L26 21L26 20L25 20L25 19ZM42 19L42 20L43 20L43 21L44 21L44 19ZM46 19L46 21L47 21L47 22L48 22L48 21L49 21L49 20L48 20L48 19ZM9 20L9 21L10 21L10 20ZM47 20L47 21L48 21L48 20ZM2 21L2 22L3 22L3 21ZM14 21L14 23L15 23L15 21ZM35 21L35 22L36 22L36 21ZM24 22L24 23L25 23L25 22ZM51 22L51 24L52 24L52 22ZM53 22L53 24L54 24L54 25L55 25L55 24L54 24L54 22ZM18 24L18 25L19 25L19 24ZM24 25L24 26L25 26L25 25ZM13 26L13 27L14 27L14 26ZM5 27L5 30L8 30L8 27ZM10 27L10 28L11 28L11 27ZM22 27L22 28L24 28L24 27ZM27 27L27 30L30 30L30 27ZM34 27L34 29L35 29L35 27ZM49 27L49 30L52 30L52 27ZM54 27L54 28L53 28L53 29L54 29L54 30L53 30L53 31L54 31L54 32L55 32L55 31L56 31L56 30L55 30L55 29L56 29L56 28L55 28L55 27ZM6 28L6 29L7 29L7 28ZM28 28L28 29L29 29L29 28ZM36 28L36 30L35 30L35 31L36 31L36 30L37 30L37 31L38 31L38 30L37 30L37 28ZM50 28L50 29L51 29L51 28ZM20 29L20 30L21 30L21 29ZM24 30L24 31L25 31L25 30ZM54 30L54 31L55 31L55 30ZM6 31L6 32L7 32L7 31ZM15 31L15 32L16 32L16 31ZM49 31L49 32L50 32L50 31ZM46 32L46 35L45 35L45 37L46 37L46 38L47 38L47 40L48 40L48 38L47 38L47 37L46 37L46 36L48 36L48 35L49 35L49 36L50 36L50 33L49 33L49 34L48 34L48 33L47 33L47 32ZM0 33L0 35L1 35L1 33ZM47 34L47 35L48 35L48 34ZM42 35L42 36L43 36L43 35ZM0 36L0 37L1 37L1 38L2 38L2 37L1 37L1 36ZM31 36L31 37L32 37L32 36ZM33 36L33 37L34 37L34 36ZM53 36L53 37L52 37L52 38L51 38L51 39L52 39L52 38L53 38L53 37L54 37L54 38L55 38L55 37L54 37L54 36ZM7 37L7 38L6 38L6 39L7 39L7 40L8 40L8 41L7 41L7 42L6 42L6 43L7 43L7 44L8 44L8 43L7 43L7 42L8 42L8 41L9 41L9 40L10 40L10 39L9 39L9 38L8 38L8 37ZM28 38L28 39L29 39L29 38ZM34 39L34 41L35 41L35 39ZM52 40L52 44L53 44L53 45L52 45L52 47L51 47L51 48L53 48L53 49L54 49L54 48L55 48L55 47L56 47L56 45L55 45L55 44L56 44L56 42L55 42L55 41L54 41L54 42L55 42L55 43L54 43L54 44L53 44L53 40ZM3 42L3 43L2 43L2 44L3 44L3 43L4 43L4 42ZM49 42L49 45L47 45L47 44L46 44L46 48L47 48L47 46L49 46L49 45L50 45L50 42ZM22 43L22 44L23 44L23 43ZM40 44L40 46L39 46L39 47L40 47L40 49L41 49L41 47L42 47L42 45L43 45L43 44L42 44L42 45L41 45L41 44ZM2 45L2 46L1 46L1 47L2 47L2 46L3 46L3 47L5 47L5 45ZM53 45L53 46L54 46L54 45ZM31 46L31 47L30 47L30 48L31 48L31 50L32 50L32 48L31 48L31 47L32 47L32 46ZM40 46L40 47L41 47L41 46ZM43 46L43 47L44 47L44 46ZM53 47L53 48L54 48L54 47ZM11 48L11 49L13 49L13 48ZM14 48L14 50L15 50L15 49L16 49L16 48ZM19 48L19 49L20 49L20 48ZM27 49L27 52L30 52L30 49ZM46 49L46 50L47 50L47 49ZM49 49L49 52L52 52L52 49ZM28 50L28 51L29 51L29 50ZM50 50L50 51L51 51L51 50ZM8 51L8 52L9 52L9 54L8 54L8 57L9 57L9 55L11 55L11 53L13 53L13 52L11 52L11 53L10 53L10 51ZM22 51L22 52L24 52L24 51ZM31 51L31 52L32 52L32 51ZM47 51L47 52L48 52L48 51ZM39 52L39 53L40 53L40 52ZM45 52L45 53L46 53L46 52ZM27 53L27 55L28 55L28 53ZM31 53L31 54L30 54L30 55L33 55L33 54L32 54L32 53ZM16 54L16 55L17 55L17 54ZM20 54L20 55L21 55L21 54ZM55 54L55 55L57 55L57 54ZM18 56L18 57L19 57L19 56ZM36 56L36 57L37 57L37 56ZM56 56L56 57L57 57L57 56ZM0 0L0 7L7 7L7 0ZM1 1L1 6L6 6L6 1ZM2 2L2 5L5 5L5 2ZM50 0L50 7L57 7L57 0ZM51 1L51 6L56 6L56 1ZM52 2L52 5L55 5L55 2ZM0 50L0 57L7 57L7 50ZM1 51L1 56L6 56L6 51ZM2 52L2 55L5 55L5 52Z" fill="#000000"/></g></g></svg>
