<?xml version="1.0" encoding="UTF-8"?>
<svg xmlns="http://www.w3.org/2000/svg" version="1.1" width="300" height="300" viewBox="0 0 300 300"><rect x="0" y="0" width="300" height="300" fill="#fefefe"/><g transform="scale(4.615)"><g transform="translate(4,4)"><path fill-rule="evenodd" d="M9 0L9 1L8 1L8 2L9 2L9 3L8 3L8 4L9 4L9 5L8 5L8 7L9 7L9 8L6 8L6 9L5 9L5 8L0 8L0 10L2 10L2 11L1 11L1 12L0 12L0 14L1 14L1 16L3 16L3 14L4 14L4 15L5 15L5 14L6 14L6 15L7 15L7 16L5 16L5 17L4 17L4 18L2 18L2 19L1 19L1 20L0 20L0 21L4 21L4 23L3 23L3 24L4 24L4 25L5 25L5 23L7 23L7 22L6 22L6 21L9 21L9 19L10 19L10 20L12 20L12 21L13 21L13 22L12 22L12 23L13 23L13 24L12 24L12 25L13 25L13 26L10 26L10 24L9 24L9 25L7 25L7 24L6 24L6 25L7 25L7 26L4 26L4 27L0 27L0 29L1 29L1 30L0 30L0 34L1 34L1 36L0 36L0 37L2 37L2 36L3 36L3 34L4 34L4 35L5 35L5 36L4 36L4 37L3 37L3 38L4 38L4 40L5 40L5 42L4 42L4 41L3 41L3 39L2 39L2 38L0 38L0 45L1 45L1 44L2 44L2 45L4 45L4 44L6 44L6 45L5 45L5 47L3 47L3 46L2 46L2 47L1 47L1 46L0 46L0 48L5 48L5 47L8 47L8 46L9 46L9 48L6 48L6 49L8 49L8 51L9 51L9 50L12 50L12 49L14 49L14 48L15 48L15 49L16 49L16 47L15 47L15 45L13 45L13 48L11 48L11 47L10 47L10 45L11 45L11 46L12 46L12 45L11 45L11 44L12 44L12 43L13 43L13 44L15 44L15 41L13 41L13 39L12 39L12 38L14 38L14 39L15 39L15 40L16 40L16 39L15 39L15 38L16 38L16 37L14 37L14 36L15 36L15 35L14 35L14 34L13 34L13 37L12 37L12 36L10 36L10 37L11 37L11 39L10 39L10 41L9 41L9 43L8 43L8 40L9 40L9 35L8 35L8 33L9 33L9 34L10 34L10 35L11 35L11 34L12 34L12 32L11 32L11 31L9 31L9 30L10 30L10 29L12 29L12 28L13 28L13 27L14 27L14 28L15 28L15 27L16 27L16 26L15 26L15 27L14 27L14 25L15 25L15 24L14 24L14 23L16 23L16 24L17 24L17 25L18 25L18 26L17 26L17 27L18 27L18 26L20 26L20 27L19 27L19 29L18 29L18 28L16 28L16 29L15 29L15 30L14 30L14 33L17 33L17 34L18 34L18 33L21 33L21 34L20 34L20 36L21 36L21 34L22 34L22 33L21 33L21 32L25 32L25 31L26 31L26 35L25 35L25 33L23 33L23 34L24 34L24 36L23 36L23 37L24 37L24 38L21 38L21 37L19 37L19 35L18 35L18 37L17 37L17 42L16 42L16 44L18 44L18 45L17 45L17 46L20 46L20 48L17 48L17 50L15 50L15 51L17 51L17 53L16 53L16 52L15 52L15 53L16 53L16 54L14 54L14 52L13 52L13 51L14 51L14 50L13 50L13 51L12 51L12 52L11 52L11 53L12 53L12 52L13 52L13 54L14 54L14 55L13 55L13 56L14 56L14 55L16 55L16 56L15 56L15 57L16 57L16 56L17 56L17 57L20 57L20 56L19 56L19 55L20 55L20 54L19 54L19 53L20 53L20 52L21 52L21 51L23 51L23 50L25 50L25 49L24 49L24 47L23 47L23 46L22 46L22 45L24 45L24 46L25 46L25 45L24 45L24 44L27 44L27 45L26 45L26 47L25 47L25 48L26 48L26 52L24 52L24 53L22 53L22 56L24 56L24 55L23 55L23 54L24 54L24 53L27 53L27 54L26 54L26 56L25 56L25 57L26 57L26 56L27 56L27 57L29 57L29 56L30 56L30 57L31 57L31 56L35 56L35 57L40 57L40 56L41 56L41 57L44 57L44 54L45 54L45 53L47 53L47 54L46 54L46 55L45 55L45 57L47 57L47 56L48 56L48 57L49 57L49 56L50 56L50 57L52 57L52 55L51 55L51 53L52 53L52 54L53 54L53 55L54 55L54 56L53 56L53 57L54 57L54 56L55 56L55 57L56 57L56 56L55 56L55 54L53 54L53 52L54 52L54 53L55 53L55 51L56 51L56 52L57 52L57 51L56 51L56 50L55 50L55 49L53 49L53 48L56 48L56 49L57 49L57 48L56 48L56 46L57 46L57 43L56 43L56 42L55 42L55 39L57 39L57 37L56 37L56 35L53 35L53 34L52 34L52 33L53 33L53 32L54 32L54 34L57 34L57 32L56 32L56 30L57 30L57 27L56 27L56 26L57 26L57 25L56 25L56 22L57 22L57 21L56 21L56 18L57 18L57 17L56 17L56 16L57 16L57 15L56 15L56 14L57 14L57 12L56 12L56 10L54 10L54 11L52 11L52 10L49 10L49 9L50 9L50 8L48 8L48 9L47 9L47 8L45 8L45 6L44 6L44 3L47 3L47 5L46 5L46 4L45 4L45 5L46 5L46 7L47 7L47 5L48 5L48 0L46 0L46 1L45 1L45 2L44 2L44 3L43 3L43 4L42 4L42 2L43 2L43 0L41 0L41 1L40 1L40 0L39 0L39 1L38 1L38 0L37 0L37 1L38 1L38 2L39 2L39 3L41 3L41 4L40 4L40 5L39 5L39 6L38 6L38 4L37 4L37 3L36 3L36 0L35 0L35 1L33 1L33 0L27 0L27 1L26 1L26 0L23 0L23 1L22 1L22 0L21 0L21 2L25 2L25 1L26 1L26 2L27 2L27 1L30 1L30 2L29 2L29 4L26 4L26 3L23 3L23 4L22 4L22 3L21 3L21 4L19 4L19 3L20 3L20 2L19 2L19 1L20 1L20 0L18 0L18 1L14 1L14 0ZM10 1L10 2L12 2L12 3L10 3L10 4L12 4L12 3L13 3L13 2L14 2L14 4L13 4L13 8L14 8L14 9L13 9L13 10L12 10L12 12L11 12L11 10L10 10L10 9L12 9L12 5L11 5L11 8L10 8L10 9L8 9L8 11L5 11L5 12L4 12L4 11L2 11L2 12L1 12L1 14L3 14L3 13L4 13L4 14L5 14L5 12L8 12L8 16L7 16L7 17L5 17L5 18L4 18L4 19L3 19L3 20L5 20L5 21L6 21L6 20L8 20L8 19L6 19L6 20L5 20L5 18L7 18L7 17L8 17L8 18L12 18L12 19L14 19L14 20L13 20L13 21L14 21L14 22L13 22L13 23L14 23L14 22L16 22L16 21L17 21L17 22L18 22L18 23L19 23L19 25L20 25L20 26L22 26L22 27L20 27L20 28L22 28L22 29L19 29L19 32L21 32L21 31L24 31L24 30L23 30L23 29L24 29L24 28L25 28L25 29L26 29L26 28L25 28L25 27L26 27L26 26L28 26L28 25L29 25L29 26L30 26L30 25L29 25L29 24L32 24L32 26L31 26L31 27L32 27L32 30L31 30L31 31L30 31L30 32L29 32L29 31L27 31L27 37L28 37L28 38L27 38L27 39L28 39L28 40L30 40L30 41L27 41L27 40L26 40L26 39L25 39L25 40L24 40L24 39L23 39L23 40L19 40L19 41L18 41L18 42L17 42L17 43L18 43L18 42L19 42L19 41L20 41L20 42L21 42L21 43L20 43L20 44L19 44L19 45L20 45L20 46L21 46L21 45L22 45L22 44L21 44L21 43L22 43L22 42L23 42L23 43L24 43L24 42L23 42L23 41L25 41L25 43L27 43L27 44L28 44L28 45L27 45L27 46L29 46L29 45L30 45L30 46L32 46L32 47L33 47L33 48L31 48L31 50L32 50L32 51L31 51L31 53L30 53L30 54L27 54L27 56L29 56L29 55L30 55L30 56L31 56L31 54L32 54L32 53L33 53L33 54L34 54L34 55L35 55L35 56L36 56L36 54L35 54L35 53L34 53L34 52L35 52L35 50L36 50L36 52L37 52L37 53L38 53L38 54L37 54L37 56L40 56L40 55L38 55L38 54L40 54L40 53L42 53L42 50L41 50L41 48L42 48L42 49L43 49L43 50L44 50L44 49L45 49L45 50L47 50L47 53L48 53L48 50L47 50L47 49L48 49L48 48L49 48L49 47L51 47L51 48L53 48L53 47L54 47L54 46L56 46L56 43L55 43L55 44L54 44L54 45L52 45L52 44L53 44L53 43L54 43L54 42L53 42L53 41L51 41L51 42L50 42L50 43L48 43L48 44L47 44L47 45L45 45L45 44L46 44L46 42L48 42L48 41L49 41L49 39L51 39L51 38L53 38L53 35L52 35L52 34L50 34L50 32L51 32L51 33L52 33L52 32L53 32L53 31L50 31L50 32L49 32L49 31L48 31L48 27L47 27L47 25L48 25L48 24L49 24L49 25L50 25L50 26L52 26L52 25L54 25L54 24L51 24L51 23L50 23L50 22L51 22L51 21L54 21L54 22L53 22L53 23L55 23L55 22L56 22L56 21L55 21L55 20L53 20L53 19L52 19L52 18L51 18L51 17L53 17L53 18L55 18L55 16L53 16L53 15L50 15L50 14L51 14L51 12L50 12L50 11L49 11L49 10L47 10L47 9L45 9L45 8L44 8L44 6L43 6L43 7L42 7L42 6L41 6L41 5L40 5L40 6L39 6L39 7L40 7L40 8L38 8L38 10L37 10L37 9L35 9L35 8L37 8L37 7L38 7L38 6L37 6L37 7L36 7L36 5L37 5L37 4L36 4L36 5L35 5L35 4L33 4L33 3L35 3L35 2L33 2L33 1L32 1L32 2L30 2L30 3L32 3L32 4L31 4L31 8L32 8L32 10L31 10L31 11L29 11L29 12L28 12L28 13L26 13L26 12L27 12L27 11L26 11L26 12L25 12L25 10L24 10L24 13L26 13L26 14L25 14L25 15L24 15L24 16L23 16L23 15L20 15L20 14L21 14L21 13L22 13L22 14L23 14L23 13L22 13L22 12L20 12L20 11L22 11L22 10L23 10L23 9L24 9L24 6L23 6L23 5L24 5L24 4L23 4L23 5L22 5L22 4L21 4L21 7L22 7L22 8L20 8L20 10L19 10L19 9L16 9L16 8L17 8L17 7L18 7L18 6L19 6L19 7L20 7L20 5L18 5L18 4L17 4L17 3L16 3L16 2L14 2L14 1L13 1L13 2L12 2L12 1ZM46 1L46 2L47 2L47 1ZM18 2L18 3L19 3L19 2ZM32 2L32 3L33 3L33 2ZM15 4L15 5L14 5L14 8L16 8L16 7L17 7L17 6L16 6L16 7L15 7L15 5L16 5L16 4ZM25 4L25 8L26 8L26 4ZM32 4L32 5L33 5L33 6L32 6L32 7L33 7L33 9L34 9L34 8L35 8L35 5L33 5L33 4ZM9 5L9 7L10 7L10 5ZM27 5L27 8L30 8L30 5ZM22 6L22 7L23 7L23 6ZM28 6L28 7L29 7L29 6ZM33 6L33 7L34 7L34 6ZM40 6L40 7L41 7L41 10L42 10L42 11L43 11L43 9L44 9L44 11L45 11L45 12L49 12L49 13L47 13L47 14L45 14L45 13L44 13L44 12L43 12L43 13L41 13L41 14L40 14L40 15L39 15L39 14L38 14L38 13L40 13L40 12L41 12L41 11L40 11L40 12L39 12L39 11L37 11L37 10L36 10L36 11L35 11L35 13L37 13L37 14L38 14L38 15L39 15L39 16L38 16L38 17L37 17L37 16L35 16L35 14L33 14L33 13L34 13L34 12L33 12L33 10L32 10L32 12L31 12L31 13L30 13L30 14L29 14L29 13L28 13L28 14L29 14L29 16L28 16L28 15L27 15L27 16L28 16L28 17L26 17L26 15L25 15L25 17L22 17L22 16L20 16L20 15L19 15L19 14L20 14L20 12L19 12L19 10L18 10L18 11L15 11L15 10L13 10L13 11L14 11L14 12L13 12L13 13L15 13L15 14L12 14L12 13L11 13L11 15L9 15L9 16L11 16L11 17L13 17L13 18L15 18L15 21L16 21L16 20L17 20L17 21L20 21L20 20L18 20L18 19L20 19L20 17L22 17L22 18L21 18L21 19L23 19L23 20L24 20L24 21L23 21L23 22L22 22L22 21L21 21L21 22L22 22L22 23L23 23L23 24L24 24L24 25L22 25L22 26L23 26L23 27L24 27L24 26L26 26L26 25L25 25L25 24L27 24L27 23L29 23L29 22L31 22L31 21L32 21L32 20L33 20L33 21L34 21L34 20L35 20L35 23L32 23L32 24L33 24L33 25L37 25L37 26L38 26L38 25L40 25L40 24L41 24L41 25L42 25L42 26L39 26L39 27L37 27L37 28L36 28L36 26L34 26L34 27L33 27L33 26L32 26L32 27L33 27L33 28L35 28L35 30L32 30L32 31L31 31L31 33L29 33L29 32L28 32L28 33L29 33L29 34L30 34L30 36L29 36L29 37L31 37L31 38L29 38L29 39L33 39L33 40L35 40L35 42L37 42L37 43L36 43L36 44L35 44L35 43L34 43L34 42L33 42L33 41L32 41L32 40L31 40L31 41L32 41L32 42L27 42L27 41L26 41L26 42L27 42L27 43L28 43L28 44L30 44L30 45L32 45L32 46L33 46L33 47L36 47L36 48L35 48L35 49L36 49L36 50L38 50L38 51L37 51L37 52L38 52L38 53L39 53L39 51L40 51L40 52L41 52L41 50L38 50L38 49L39 49L39 48L41 48L41 46L43 46L43 45L44 45L44 48L43 48L43 47L42 47L42 48L43 48L43 49L44 49L44 48L46 48L46 49L47 49L47 48L48 48L48 47L49 47L49 46L48 46L48 47L47 47L47 46L45 46L45 45L44 45L44 43L43 43L43 42L44 42L44 40L47 40L47 39L49 39L49 38L51 38L51 37L52 37L52 35L50 35L50 34L49 34L49 35L50 35L50 36L51 36L51 37L48 37L48 38L47 38L47 39L46 39L46 38L45 38L45 37L46 37L46 36L45 36L45 35L44 35L44 36L41 36L41 35L42 35L42 34L45 34L45 33L43 33L43 32L45 32L45 31L47 31L47 32L46 32L46 33L47 33L47 32L48 32L48 33L49 33L49 32L48 32L48 31L47 31L47 30L46 30L46 29L47 29L47 27L46 27L46 28L45 28L45 26L44 26L44 27L43 27L43 28L45 28L45 31L44 31L44 29L41 29L41 30L40 30L40 31L41 31L41 30L43 30L43 32L41 32L41 33L39 33L39 34L40 34L40 35L38 35L38 33L37 33L37 32L35 32L35 31L36 31L36 30L37 30L37 29L38 29L38 28L40 28L40 27L41 27L41 28L42 28L42 26L43 26L43 25L44 25L44 20L45 20L45 18L44 18L44 15L42 15L42 16L41 16L41 14L45 14L45 15L46 15L46 16L45 16L45 17L47 17L47 20L49 20L49 21L47 21L47 22L46 22L46 21L45 21L45 22L46 22L46 23L45 23L45 24L48 24L48 23L47 23L47 22L49 22L49 21L51 21L51 20L52 20L52 19L51 19L51 18L50 18L50 17L49 17L49 16L50 16L50 15L49 15L49 14L50 14L50 12L49 12L49 11L47 11L47 10L45 10L45 9L44 9L44 8L42 8L42 7L41 7L41 6ZM48 6L48 7L49 7L49 6ZM51 8L51 9L52 9L52 8ZM53 8L53 9L54 9L54 8ZM55 8L55 9L56 9L56 8ZM2 9L2 10L3 10L3 9ZM4 9L4 10L5 10L5 9ZM6 9L6 10L7 10L7 9ZM21 9L21 10L22 10L22 9ZM9 10L9 11L10 11L10 10ZM9 12L9 13L10 13L10 12ZM15 12L15 13L16 13L16 17L15 17L15 15L14 15L14 17L15 17L15 18L16 18L16 19L17 19L17 13L18 13L18 12L17 12L17 13L16 13L16 12ZM32 12L32 13L31 13L31 14L30 14L30 15L32 15L32 17L31 17L31 18L30 18L30 19L28 19L28 18L25 18L25 19L26 19L26 20L25 20L25 21L24 21L24 22L23 22L23 23L24 23L24 24L25 24L25 23L26 23L26 22L25 22L25 21L31 21L31 19L33 19L33 20L34 20L34 19L36 19L36 20L37 20L37 21L38 21L38 22L37 22L37 24L40 24L40 22L39 22L39 21L42 21L42 20L39 20L39 21L38 21L38 19L39 19L39 17L41 17L41 16L39 16L39 17L38 17L38 18L37 18L37 17L35 17L35 16L33 16L33 15L32 15L32 13L33 13L33 12ZM52 12L52 13L53 13L53 14L54 14L54 13L55 13L55 14L56 14L56 12L54 12L54 13L53 13L53 12ZM6 13L6 14L7 14L7 13ZM11 15L11 16L12 16L12 15ZM48 15L48 16L49 16L49 15ZM19 16L19 17L18 17L18 18L19 18L19 17L20 17L20 16ZM42 16L42 17L43 17L43 16ZM0 17L0 18L1 18L1 17ZM32 17L32 18L33 18L33 19L34 19L34 18L33 18L33 17ZM23 18L23 19L24 19L24 18ZM41 18L41 19L42 19L42 18ZM43 18L43 20L44 20L44 18ZM48 18L48 19L50 19L50 18ZM10 21L10 22L11 22L11 21ZM8 22L8 23L9 23L9 22ZM19 22L19 23L20 23L20 22ZM38 22L38 23L39 23L39 22ZM41 22L41 24L43 24L43 23L42 23L42 22ZM0 23L0 24L2 24L2 23ZM13 24L13 25L14 25L14 24ZM20 24L20 25L21 25L21 24ZM2 25L2 26L3 26L3 25ZM55 25L55 26L56 26L56 25ZM53 26L53 27L54 27L54 26ZM5 27L5 30L8 30L8 27ZM9 27L9 28L12 28L12 27ZM27 27L27 30L30 30L30 27ZM49 27L49 30L52 30L52 27ZM55 27L55 28L54 28L54 29L55 29L55 28L56 28L56 27ZM2 28L2 29L3 29L3 31L2 31L2 30L1 30L1 32L2 32L2 33L1 33L1 34L2 34L2 33L4 33L4 34L7 34L7 33L6 33L6 32L7 32L7 31L5 31L5 32L3 32L3 31L4 31L4 28ZM6 28L6 29L7 29L7 28ZM28 28L28 29L29 29L29 28ZM50 28L50 29L51 29L51 28ZM16 29L16 31L15 31L15 32L18 32L18 29ZM20 30L20 31L21 31L21 30ZM38 30L38 32L39 32L39 30ZM8 31L8 32L9 32L9 31ZM32 31L32 33L31 33L31 35L33 35L33 34L34 34L34 35L35 35L35 36L37 36L37 34L35 34L35 33L33 33L33 32L34 32L34 31ZM10 32L10 33L11 33L11 32ZM55 32L55 33L56 33L56 32ZM6 35L6 36L7 36L7 37L5 37L5 40L7 40L7 39L6 39L6 38L8 38L8 36L7 36L7 35ZM25 36L25 38L26 38L26 36ZM32 36L32 37L33 37L33 39L35 39L35 40L38 40L38 42L39 42L39 41L41 41L41 40L42 40L42 39L45 39L45 38L44 38L44 37L45 37L45 36L44 36L44 37L43 37L43 38L42 38L42 37L41 37L41 36L40 36L40 37L39 37L39 36L38 36L38 38L37 38L37 39L35 39L35 37L33 37L33 36ZM18 37L18 39L20 39L20 38L19 38L19 37ZM40 37L40 38L41 38L41 39L42 39L42 38L41 38L41 37ZM54 38L54 39L55 39L55 38ZM1 39L1 40L2 40L2 39ZM38 39L38 40L39 40L39 39ZM52 39L52 40L53 40L53 39ZM1 41L1 43L2 43L2 44L3 44L3 43L2 43L2 42L3 42L3 41ZM6 41L6 42L5 42L5 43L6 43L6 44L7 44L7 45L6 45L6 46L7 46L7 45L8 45L8 44L7 44L7 43L6 43L6 42L7 42L7 41ZM12 41L12 42L10 42L10 43L9 43L9 45L10 45L10 43L12 43L12 42L13 42L13 41ZM21 41L21 42L22 42L22 41ZM45 41L45 42L46 42L46 41ZM32 42L32 43L31 43L31 44L32 44L32 45L33 45L33 46L36 46L36 47L37 47L37 46L36 46L36 45L34 45L34 43L33 43L33 42ZM40 42L40 43L41 43L41 44L39 44L39 45L38 45L38 46L39 46L39 47L38 47L38 48L37 48L37 49L38 49L38 48L39 48L39 47L40 47L40 46L39 46L39 45L41 45L41 44L42 44L42 42ZM51 42L51 43L50 43L50 44L51 44L51 43L53 43L53 42ZM32 43L32 44L33 44L33 43ZM48 44L48 45L49 45L49 44ZM50 45L50 46L51 46L51 45ZM52 46L52 47L53 47L53 46ZM21 47L21 48L20 48L20 51L21 51L21 49L23 49L23 47ZM26 47L26 48L27 48L27 47ZM28 47L28 48L30 48L30 47ZM46 47L46 48L47 48L47 47ZM33 48L33 49L32 49L32 50L33 50L33 49L34 49L34 48ZM27 49L27 52L30 52L30 49ZM49 49L49 52L52 52L52 49ZM28 50L28 51L29 51L29 50ZM50 50L50 51L51 51L51 50ZM54 50L54 51L55 51L55 50ZM32 51L32 52L33 52L33 51ZM45 51L45 52L44 52L44 53L43 53L43 54L44 54L44 53L45 53L45 52L46 52L46 51ZM8 52L8 57L10 57L10 56L9 56L9 52ZM10 54L10 55L12 55L12 54ZM17 54L17 55L19 55L19 54ZM41 54L41 55L42 55L42 56L43 56L43 55L42 55L42 54ZM46 55L46 56L47 56L47 55ZM50 55L50 56L51 56L51 55ZM11 56L11 57L12 57L12 56ZM0 0L0 7L7 7L7 0ZM1 1L1 6L6 6L6 1ZM2 2L2 5L5 5L5 2ZM50 0L50 7L57 7L57 0ZM51 1L51 6L56 6L56 1ZM52 2L52 5L55 5L55 2ZM0 50L0 57L7 57L7 50ZM1 51L1 56L6 56L6 51ZM2 52L2 55L5 55L5 52Z" fill="#000000"/></g></g></svg>
