<?xml version="1.0" encoding="UTF-8"?>
<svg xmlns="http://www.w3.org/2000/svg" version="1.1" width="300" height="300" viewBox="0 0 300 300"><rect x="0" y="0" width="300" height="300" fill="#fefefe"/><g transform="scale(4.615)"><g transform="translate(4,4)"><path fill-rule="evenodd" d="M8 0L8 1L9 1L9 2L8 2L8 5L9 5L9 6L8 6L8 7L9 7L9 8L8 8L8 9L9 9L9 10L10 10L10 11L8 11L8 10L6 10L6 9L7 9L7 8L6 8L6 9L4 9L4 8L0 8L0 10L1 10L1 11L0 11L0 12L1 12L1 11L3 11L3 12L2 12L2 15L1 15L1 13L0 13L0 15L1 15L1 16L0 16L0 22L2 22L2 17L3 17L3 19L4 19L4 20L6 20L6 21L4 21L4 22L6 22L6 23L4 23L4 24L6 24L6 25L5 25L5 26L1 26L1 27L4 27L4 29L3 29L3 28L0 28L0 31L1 31L1 29L3 29L3 30L2 30L2 32L0 32L0 35L1 35L1 39L0 39L0 43L1 43L1 44L0 44L0 48L5 48L5 47L9 47L9 48L10 48L10 49L11 49L11 50L10 50L10 51L9 51L9 53L8 53L8 57L10 57L10 56L11 56L11 55L14 55L14 54L13 54L13 53L14 53L14 52L15 52L15 51L13 51L13 53L12 53L12 51L11 51L11 50L12 50L12 49L13 49L13 48L14 48L14 46L15 46L15 49L14 49L14 50L16 50L16 49L19 49L19 50L21 50L21 51L17 51L17 52L19 52L19 55L20 55L20 56L21 56L21 57L23 57L23 54L25 54L25 55L24 55L24 56L25 56L25 55L26 55L26 56L28 56L28 55L26 55L26 54L27 54L27 53L29 53L29 54L31 54L31 55L30 55L30 56L31 56L31 57L32 57L32 55L34 55L34 56L33 56L33 57L36 57L36 55L38 55L38 57L39 57L39 56L40 56L40 57L42 57L42 56L45 56L45 55L44 55L44 54L47 54L47 55L46 55L46 56L47 56L47 57L51 57L51 54L52 54L52 53L54 53L54 54L56 54L56 51L55 51L55 50L53 50L53 48L54 48L54 47L57 47L57 45L56 45L56 46L55 46L55 44L52 44L52 43L53 43L53 42L54 42L54 43L56 43L56 44L57 44L57 43L56 43L56 42L54 42L54 40L55 40L55 39L50 39L50 40L47 40L47 39L49 39L49 38L48 38L48 37L47 37L47 38L46 38L46 37L45 37L45 38L46 38L46 40L45 40L45 39L44 39L44 38L42 38L42 37L44 37L44 36L45 36L45 35L46 35L46 36L48 36L48 35L49 35L49 36L50 36L50 37L51 37L51 38L52 38L52 36L53 36L53 37L55 37L55 38L56 38L56 39L57 39L57 38L56 38L56 36L57 36L57 34L56 34L56 33L57 33L57 31L56 31L56 30L57 30L57 29L56 29L56 30L55 30L55 33L54 33L54 32L53 32L53 28L54 28L54 29L55 29L55 28L56 28L56 24L54 24L54 23L57 23L57 21L56 21L56 22L54 22L54 21L55 21L55 20L54 20L54 21L53 21L53 20L50 20L50 18L49 18L49 20L48 20L48 19L47 19L47 20L45 20L45 22L44 22L44 21L41 21L41 18L42 18L42 19L43 19L43 18L42 18L42 17L45 17L45 18L44 18L44 19L45 19L45 18L48 18L48 17L45 17L45 16L44 16L44 15L45 15L45 14L46 14L46 13L44 13L44 11L42 11L42 10L43 10L43 9L41 9L41 8L38 8L38 7L39 7L39 6L38 6L38 5L40 5L40 7L41 7L41 4L38 4L38 2L37 2L37 1L38 1L38 0L37 0L37 1L36 1L36 0L35 0L35 1L34 1L34 2L33 2L33 0L32 0L32 1L31 1L31 0L29 0L29 2L28 2L28 1L27 1L27 2L28 2L28 3L29 3L29 4L26 4L26 0L23 0L23 1L22 1L22 0L21 0L21 1L22 1L22 3L23 3L23 6L22 6L22 8L21 8L21 9L23 9L23 10L21 10L21 11L23 11L23 12L22 12L22 13L23 13L23 12L24 12L24 13L25 13L25 11L26 11L26 10L32 10L32 9L31 9L31 6L32 6L32 8L33 8L33 6L34 6L34 9L36 9L36 8L37 8L37 11L38 11L38 12L35 12L35 11L36 11L36 10L35 10L35 11L34 11L34 10L33 10L33 14L32 14L32 15L31 15L31 14L30 14L30 13L28 13L28 12L26 12L26 13L27 13L27 16L26 16L26 14L25 14L25 16L24 16L24 14L23 14L23 18L22 18L22 17L21 17L21 15L20 15L20 16L19 16L19 17L21 17L21 18L22 18L22 20L21 20L21 19L20 19L20 18L17 18L17 16L18 16L18 15L17 15L17 14L16 14L16 15L15 15L15 12L16 12L16 13L17 13L17 12L18 12L18 13L19 13L19 14L21 14L21 12L20 12L20 13L19 13L19 12L18 12L18 10L19 10L19 11L20 11L20 7L21 7L21 5L20 5L20 4L19 4L19 3L18 3L18 0L17 0L17 1L15 1L15 3L17 3L17 4L19 4L19 5L15 5L15 4L14 4L14 3L13 3L13 2L12 2L12 3L10 3L10 4L9 4L9 2L10 2L10 1L13 1L13 0ZM39 0L39 1L40 1L40 2L41 2L41 3L43 3L43 5L45 5L45 4L44 4L44 3L45 3L45 1L44 1L44 2L41 2L41 1L43 1L43 0L41 0L41 1L40 1L40 0ZM46 0L46 1L47 1L47 2L46 2L46 3L47 3L47 5L46 5L46 7L45 7L45 6L44 6L44 7L43 7L43 6L42 6L42 7L43 7L43 8L45 8L45 9L44 9L44 10L45 10L45 11L48 11L48 12L49 12L49 17L50 17L50 15L51 15L51 17L52 17L52 15L51 15L51 13L52 13L52 14L53 14L53 16L55 16L55 17L54 17L54 18L52 18L52 19L56 19L56 18L57 18L57 15L54 15L54 14L55 14L55 13L54 13L54 10L53 10L53 9L55 9L55 8L52 8L52 9L51 9L51 10L50 10L50 8L49 8L49 6L48 6L48 7L47 7L47 5L48 5L48 0ZM23 1L23 3L24 3L24 2L25 2L25 1ZM30 1L30 4L31 4L31 5L32 5L32 6L33 6L33 4L34 4L34 6L35 6L35 7L36 7L36 6L37 6L37 7L38 7L38 6L37 6L37 5L36 5L36 4L35 4L35 2L36 2L36 1L35 1L35 2L34 2L34 3L32 3L32 4L31 4L31 1ZM10 4L10 5L11 5L11 8L12 8L12 6L13 6L13 9L14 9L14 11L15 11L15 8L16 8L16 12L17 12L17 7L18 7L18 6L17 6L17 7L16 7L16 6L15 6L15 5L14 5L14 4L13 4L13 5L11 5L11 4ZM24 4L24 6L23 6L23 7L24 7L24 8L23 8L23 9L24 9L24 8L25 8L25 9L26 9L26 6L25 6L25 5L26 5L26 4ZM27 5L27 8L30 8L30 5ZM9 6L9 7L10 7L10 6ZM14 6L14 8L15 8L15 6ZM19 6L19 7L20 7L20 6ZM24 6L24 7L25 7L25 6ZM28 6L28 7L29 7L29 6ZM46 7L46 8L47 8L47 9L46 9L46 10L47 10L47 9L48 9L48 8L47 8L47 7ZM9 8L9 9L10 9L10 10L12 10L12 11L11 11L11 13L10 13L10 12L9 12L9 13L10 13L10 14L9 14L9 15L8 15L8 11L6 11L6 10L5 10L5 12L3 12L3 13L4 13L4 14L3 14L3 15L2 15L2 16L1 16L1 17L2 17L2 16L5 16L5 17L4 17L4 18L5 18L5 19L6 19L6 20L9 20L9 21L10 21L10 23L9 23L9 22L8 22L8 21L6 21L6 22L7 22L7 23L6 23L6 24L7 24L7 25L6 25L6 26L8 26L8 24L9 24L9 25L10 25L10 23L11 23L11 22L12 22L12 23L13 23L13 24L12 24L12 26L11 26L11 27L13 27L13 25L14 25L14 26L15 26L15 27L14 27L14 28L15 28L15 27L17 27L17 30L16 30L16 29L14 29L14 30L13 30L13 31L12 31L12 32L11 32L11 33L10 33L10 34L7 34L7 33L8 33L8 32L10 32L10 30L11 30L11 28L10 28L10 29L9 29L9 31L8 31L8 32L7 32L7 31L5 31L5 32L7 32L7 33L6 33L6 34L5 34L5 33L4 33L4 32L2 32L2 33L1 33L1 35L2 35L2 37L3 37L3 39L1 39L1 41L2 41L2 42L1 42L1 43L2 43L2 42L3 42L3 43L5 43L5 44L1 44L1 47L2 47L2 46L3 46L3 47L5 47L5 44L7 44L7 45L6 45L6 46L9 46L9 47L10 47L10 46L9 46L9 45L11 45L11 47L12 47L12 46L14 46L14 45L13 45L13 44L15 44L15 43L17 43L17 45L15 45L15 46L16 46L16 47L17 47L17 48L19 48L19 47L17 47L17 45L19 45L19 43L21 43L21 44L20 44L20 46L21 46L21 47L20 47L20 48L21 48L21 50L22 50L22 52L21 52L21 53L20 53L20 55L21 55L21 56L22 56L22 55L21 55L21 53L22 53L22 54L23 54L23 52L24 52L24 53L25 53L25 54L26 54L26 53L25 53L25 52L26 52L26 48L27 48L27 46L28 46L28 47L29 47L29 48L32 48L32 49L31 49L31 50L32 50L32 49L33 49L33 48L34 48L34 50L33 50L33 52L35 52L35 53L36 53L36 54L34 54L34 55L36 55L36 54L39 54L39 53L37 53L37 51L36 51L36 52L35 52L35 48L37 48L37 49L36 49L36 50L37 50L37 49L38 49L38 48L39 48L39 49L40 49L40 50L39 50L39 51L38 51L38 52L40 52L40 54L41 54L41 56L42 56L42 54L43 54L43 52L42 52L42 51L45 51L45 53L46 53L46 51L45 51L45 48L46 48L46 46L47 46L47 47L49 47L49 46L51 46L51 47L52 47L52 48L53 48L53 47L54 47L54 46L53 46L53 45L51 45L51 42L50 42L50 41L52 41L52 40L50 40L50 41L47 41L47 40L46 40L46 41L47 41L47 42L48 42L48 43L49 43L49 46L47 46L47 45L48 45L48 44L44 44L44 43L46 43L46 42L45 42L45 41L42 41L42 42L41 42L41 40L43 40L43 39L40 39L40 41L37 41L37 40L38 40L38 39L39 39L39 38L37 38L37 37L34 37L34 36L36 36L36 35L34 35L34 36L32 36L32 35L31 35L31 34L33 34L33 32L35 32L35 31L37 31L37 32L36 32L36 33L37 33L37 32L38 32L38 34L39 34L39 31L40 31L40 32L41 32L41 31L43 31L43 30L46 30L46 26L47 26L47 27L48 27L48 26L49 26L49 24L51 24L51 25L52 25L52 26L53 26L53 27L55 27L55 25L54 25L54 24L51 24L51 23L52 23L52 22L51 22L51 21L50 21L50 20L49 20L49 22L47 22L47 21L48 21L48 20L47 20L47 21L46 21L46 22L47 22L47 24L46 24L46 23L43 23L43 22L41 22L41 23L40 23L40 26L43 26L43 25L41 25L41 24L44 24L44 25L46 25L46 26L45 26L45 29L42 29L42 30L40 30L40 29L41 29L41 27L39 27L39 26L38 26L38 27L39 27L39 28L40 28L40 29L38 29L38 30L36 30L36 29L37 29L37 28L36 28L36 27L35 27L35 25L34 25L34 27L35 27L35 28L34 28L34 29L35 29L35 31L33 31L33 30L32 30L32 29L31 29L31 30L32 30L32 31L31 31L31 34L30 34L30 35L29 35L29 33L30 33L30 32L29 32L29 31L28 31L28 33L26 33L26 32L27 32L27 31L26 31L26 32L25 32L25 31L24 31L24 30L26 30L26 28L25 28L25 25L27 25L27 26L28 26L28 25L29 25L29 26L31 26L31 24L30 24L30 23L32 23L32 22L33 22L33 24L32 24L32 25L33 25L33 24L35 24L35 23L36 23L36 24L37 24L37 23L38 23L38 24L39 24L39 21L38 21L38 22L35 22L35 21L34 21L34 19L33 19L33 17L31 17L31 16L29 16L29 15L28 15L28 16L29 16L29 17L27 17L27 20L26 20L26 21L27 21L27 20L29 20L29 21L28 21L28 23L29 23L29 24L26 24L26 23L27 23L27 22L25 22L25 19L26 19L26 18L25 18L25 17L26 17L26 16L25 16L25 17L24 17L24 18L23 18L23 21L22 21L22 23L23 23L23 21L24 21L24 22L25 22L25 25L24 25L24 24L22 24L22 25L23 25L23 26L24 26L24 27L22 27L22 26L19 26L19 25L18 25L18 26L19 26L19 27L17 27L17 24L19 24L19 22L21 22L21 20L19 20L19 19L18 19L18 21L19 21L19 22L17 22L17 23L16 23L16 20L17 20L17 19L16 19L16 20L14 20L14 22L13 22L13 21L12 21L12 20L13 20L13 19L15 19L15 17L14 17L14 18L12 18L12 17L13 17L13 16L14 16L14 15L13 15L13 14L14 14L14 13L13 13L13 14L12 14L12 12L13 12L13 10L12 10L12 9L10 9L10 8ZM18 8L18 9L19 9L19 8ZM56 8L56 9L57 9L57 8ZM2 9L2 10L3 10L3 11L4 11L4 9ZM38 9L38 10L39 10L39 11L40 11L40 14L39 14L39 15L37 15L37 13L36 13L36 15L35 15L35 12L34 12L34 14L33 14L33 15L32 15L32 16L33 16L33 15L35 15L35 16L34 16L34 17L35 17L35 20L36 20L36 21L37 21L37 20L36 20L36 19L38 19L38 20L40 20L40 19L39 19L39 18L41 18L41 17L42 17L42 14L44 14L44 13L43 13L43 12L42 12L42 11L41 11L41 10L40 10L40 9ZM23 10L23 11L25 11L25 10ZM51 10L51 12L50 12L50 13L51 13L51 12L52 12L52 13L53 13L53 14L54 14L54 13L53 13L53 11L52 11L52 10ZM55 10L55 11L57 11L57 10ZM30 11L30 12L31 12L31 13L32 13L32 12L31 12L31 11ZM5 12L5 13L7 13L7 12ZM4 14L4 15L7 15L7 16L6 16L6 17L8 17L8 19L10 19L10 20L12 20L12 19L10 19L10 16L12 16L12 15L11 15L11 14L10 14L10 16L8 16L8 15L7 15L7 14ZM40 14L40 15L39 15L39 17L40 17L40 16L41 16L41 14ZM47 14L47 15L46 15L46 16L48 16L48 14ZM16 15L16 16L17 16L17 15ZM29 17L29 18L28 18L28 19L30 19L30 17ZM36 17L36 18L37 18L37 17ZM6 18L6 19L7 19L7 18ZM24 18L24 19L25 19L25 18ZM31 19L31 20L30 20L30 21L29 21L29 23L30 23L30 22L31 22L31 20L32 20L32 19ZM14 22L14 24L15 24L15 26L16 26L16 23L15 23L15 22ZM53 22L53 23L54 23L54 22ZM20 23L20 24L21 24L21 23ZM48 23L48 24L47 24L47 25L48 25L48 24L49 24L49 23ZM0 24L0 25L1 25L1 24ZM5 27L5 30L8 30L8 27ZM20 27L20 29L21 29L21 30L20 30L20 31L19 31L19 30L18 30L18 31L17 31L17 32L16 32L16 30L15 30L15 31L13 31L13 34L14 34L14 35L15 35L15 36L13 36L13 37L12 37L12 38L11 38L11 39L12 39L12 38L13 38L13 40L12 40L12 41L11 41L11 40L10 40L10 37L11 37L11 35L12 35L12 34L11 34L11 35L9 35L9 36L8 36L8 35L7 35L7 34L6 34L6 35L7 35L7 36L4 36L4 35L3 35L3 34L4 34L4 33L3 33L3 34L2 34L2 35L3 35L3 37L4 37L4 39L3 39L3 40L2 40L2 41L3 41L3 42L4 42L4 41L5 41L5 38L6 38L6 39L7 39L7 40L6 40L6 41L7 41L7 42L6 42L6 43L7 43L7 42L9 42L9 41L7 41L7 40L8 40L8 38L6 38L6 37L7 37L7 36L8 36L8 37L9 37L9 40L10 40L10 41L11 41L11 42L12 42L12 43L9 43L9 44L11 44L11 45L12 45L12 44L13 44L13 42L14 42L14 43L15 43L15 42L18 42L18 43L19 43L19 41L17 41L17 40L20 40L20 41L21 41L21 42L22 42L22 44L21 44L21 46L22 46L22 47L21 47L21 48L23 48L23 49L22 49L22 50L23 50L23 49L24 49L24 48L23 48L23 46L22 46L22 44L23 44L23 45L24 45L24 47L25 47L25 45L26 45L26 46L27 46L27 45L26 45L26 43L25 43L25 44L23 44L23 42L24 42L24 41L25 41L25 42L27 42L27 44L28 44L28 45L29 45L29 44L30 44L30 46L31 46L31 47L32 47L32 48L33 48L33 47L32 47L32 45L31 45L31 44L32 44L32 42L33 42L33 45L34 45L34 44L35 44L35 46L34 46L34 48L35 48L35 47L38 47L38 45L39 45L39 47L43 47L43 50L44 50L44 48L45 48L45 46L43 46L43 45L42 45L42 43L44 43L44 42L42 42L42 43L41 43L41 44L38 44L38 43L40 43L40 42L37 42L37 44L38 44L38 45L36 45L36 44L35 44L35 43L34 43L34 42L36 42L36 41L34 41L34 40L35 40L35 39L36 39L36 38L34 38L34 37L33 37L33 38L32 38L32 36L29 36L29 35L28 35L28 34L27 34L27 36L23 36L23 35L24 35L24 34L25 34L25 35L26 35L26 34L25 34L25 32L24 32L24 31L22 31L22 32L21 32L21 30L24 30L24 28L23 28L23 29L21 29L21 27ZM27 27L27 30L30 30L30 27ZM31 27L31 28L33 28L33 27ZM42 27L42 28L43 28L43 27ZM49 27L49 30L52 30L52 27ZM6 28L6 29L7 29L7 28ZM18 28L18 29L19 29L19 28ZM28 28L28 29L29 29L29 28ZM50 28L50 29L51 29L51 28ZM38 30L38 31L39 31L39 30ZM47 30L47 31L46 31L46 32L45 32L45 31L44 31L44 33L45 33L45 34L46 34L46 35L47 35L47 34L50 34L50 33L49 33L49 32L52 32L52 34L54 34L54 33L53 33L53 32L52 32L52 31L49 31L49 32L48 32L48 30ZM15 32L15 35L16 35L16 36L15 36L15 37L13 37L13 38L18 38L18 36L19 36L19 37L20 37L20 38L23 38L23 36L22 36L22 35L20 35L20 34L21 34L21 33L20 33L20 32L18 32L18 33L16 33L16 32ZM23 32L23 33L22 33L22 34L23 34L23 33L24 33L24 32ZM42 32L42 33L43 33L43 32ZM34 33L34 34L35 34L35 33ZM17 34L17 36L18 36L18 35L19 35L19 36L20 36L20 35L19 35L19 34ZM41 34L41 35L39 35L39 36L38 36L38 35L37 35L37 36L38 36L38 37L39 37L39 36L40 36L40 37L41 37L41 36L43 36L43 35L44 35L44 34L43 34L43 35L42 35L42 34ZM51 35L51 36L52 36L52 35ZM54 35L54 36L55 36L55 35ZM9 36L9 37L10 37L10 36ZM27 36L27 38L29 38L29 36ZM24 37L24 39L22 39L22 41L23 41L23 40L24 40L24 39L25 39L25 41L26 41L26 39L25 39L25 38L26 38L26 37ZM30 38L30 39L28 39L28 40L27 40L27 41L29 41L29 42L31 42L31 40L33 40L33 39L34 39L34 38L33 38L33 39L32 39L32 38ZM14 39L14 40L13 40L13 41L12 41L12 42L13 42L13 41L15 41L15 39ZM16 39L16 40L17 40L17 39ZM3 40L3 41L4 41L4 40ZM56 40L56 41L57 41L57 40ZM49 42L49 43L50 43L50 42ZM3 45L3 46L4 46L4 45ZM6 48L6 49L7 49L7 48ZM11 48L11 49L12 49L12 48ZM41 48L41 49L42 49L42 48ZM47 48L47 49L46 49L46 50L47 50L47 52L48 52L48 48ZM56 48L56 50L57 50L57 48ZM8 49L8 50L9 50L9 49ZM27 49L27 52L30 52L30 49ZM49 49L49 52L52 52L52 49ZM24 50L24 51L25 51L25 50ZM28 50L28 51L29 51L29 50ZM50 50L50 51L51 51L51 50ZM31 51L31 53L32 53L32 51ZM40 51L40 52L41 52L41 54L42 54L42 52L41 52L41 51ZM54 52L54 53L55 53L55 52ZM9 53L9 54L10 54L10 55L11 55L11 54L12 54L12 53ZM15 53L15 56L14 56L14 57L15 57L15 56L16 56L16 57L18 57L18 56L17 56L17 54L18 54L18 53L17 53L17 54L16 54L16 53ZM48 53L48 54L50 54L50 53ZM48 55L48 56L49 56L49 55ZM56 55L56 56L57 56L57 55ZM12 56L12 57L13 57L13 56ZM52 56L52 57L53 57L53 56ZM54 56L54 57L55 57L55 56ZM0 0L0 7L7 7L7 0ZM1 1L1 6L6 6L6 1ZM2 2L2 5L5 5L5 2ZM50 0L50 7L57 7L57 0ZM51 1L51 6L56 6L56 1ZM52 2L52 5L55 5L55 2ZM0 50L0 57L7 57L7 50ZM1 51L1 56L6 56L6 51ZM2 52L2 55L5 55L5 52Z" fill="#000000"/></g></g></svg>
