<?xml version="1.0" encoding="UTF-8"?>
<svg xmlns="http://www.w3.org/2000/svg" version="1.1" width="300" height="300" viewBox="0 0 300 300"><rect x="0" y="0" width="300" height="300" fill="#fefefe"/><g transform="scale(4.615)"><g transform="translate(4,4)"><path fill-rule="evenodd" d="M9 0L9 1L8 1L8 2L9 2L9 3L8 3L8 4L10 4L10 5L8 5L8 7L9 7L9 8L6 8L6 9L9 9L9 11L12 11L12 13L10 13L10 12L9 12L9 13L10 13L10 14L11 14L11 15L12 15L12 16L11 16L11 17L10 17L10 15L8 15L8 16L6 16L6 17L9 17L9 18L10 18L10 19L9 19L9 20L6 20L6 19L7 19L7 18L6 18L6 19L5 19L5 15L7 15L7 14L6 14L6 13L7 13L7 12L6 12L6 13L3 13L3 12L4 12L4 10L3 10L3 12L1 12L1 10L0 10L0 13L1 13L1 14L0 14L0 18L2 18L2 19L0 19L0 21L1 21L1 22L3 22L3 21L5 21L5 22L4 22L4 23L2 23L2 25L3 25L3 26L4 26L4 27L2 27L2 28L3 28L3 29L4 29L4 32L3 32L3 31L2 31L2 30L0 30L0 32L2 32L2 33L3 33L3 34L1 34L1 38L0 38L0 42L1 42L1 40L3 40L3 39L4 39L4 38L3 38L3 37L2 37L2 35L3 35L3 36L4 36L4 37L5 37L5 40L4 40L4 42L5 42L5 43L4 43L4 44L3 44L3 41L2 41L2 45L0 45L0 48L5 48L5 47L7 47L7 48L6 48L6 49L8 49L8 51L9 51L9 52L8 52L8 57L9 57L9 56L10 56L10 57L16 57L16 56L17 56L17 57L21 57L21 56L24 56L24 57L26 57L26 56L27 56L27 57L29 57L29 56L30 56L30 57L31 57L31 56L35 56L35 57L39 57L39 56L40 56L40 55L41 55L41 57L42 57L42 55L44 55L44 54L45 54L45 57L49 57L49 56L50 56L50 57L52 57L52 55L51 55L51 53L52 53L52 54L53 54L53 55L54 55L54 56L53 56L53 57L54 57L54 56L55 56L55 57L56 57L56 56L55 56L55 53L56 53L56 51L54 51L54 50L57 50L57 48L56 48L56 46L57 46L57 43L56 43L56 41L55 41L55 39L57 39L57 37L55 37L55 35L56 35L56 36L57 36L57 35L56 35L56 34L57 34L57 32L56 32L56 30L57 30L57 29L54 29L54 28L56 28L56 26L57 26L57 25L56 25L56 22L57 22L57 21L56 21L56 22L55 22L55 23L53 23L53 21L51 21L51 20L52 20L52 19L53 19L53 20L57 20L57 19L55 19L55 18L57 18L57 17L56 17L56 16L57 16L57 15L56 15L56 14L57 14L57 13L56 13L56 12L57 12L57 11L56 11L56 8L55 8L55 10L54 10L54 11L53 11L53 9L54 9L54 8L53 8L53 9L52 9L52 8L51 8L51 11L50 11L50 8L49 8L49 6L48 6L48 9L47 9L47 8L46 8L46 9L47 9L47 10L46 10L46 11L45 11L45 9L44 9L44 8L45 8L45 6L44 6L44 3L47 3L47 5L46 5L46 4L45 4L45 5L46 5L46 7L47 7L47 5L48 5L48 0L46 0L46 1L45 1L45 2L44 2L44 3L43 3L43 4L40 4L40 5L39 5L39 6L38 6L38 3L42 3L42 2L43 2L43 0L41 0L41 1L40 1L40 0L39 0L39 1L38 1L38 0L37 0L37 1L38 1L38 2L37 2L37 3L36 3L36 0L35 0L35 1L33 1L33 0L29 0L29 1L28 1L28 0L27 0L27 1L26 1L26 0L23 0L23 2L25 2L25 1L26 1L26 2L27 2L27 3L28 3L28 2L29 2L29 4L26 4L26 3L23 3L23 4L22 4L22 5L21 5L21 4L19 4L19 3L20 3L20 2L19 2L19 1L20 1L20 0L17 0L17 1L16 1L16 2L15 2L15 1L14 1L14 0L12 0L12 1L14 1L14 2L11 2L11 3L12 3L12 4L10 4L10 0ZM21 0L21 1L22 1L22 0ZM29 1L29 2L30 2L30 3L32 3L32 4L31 4L31 8L32 8L32 10L31 10L31 11L29 11L29 10L27 10L27 11L26 11L26 12L25 12L25 10L23 10L23 9L25 9L25 8L26 8L26 4L25 4L25 8L24 8L24 6L23 6L23 8L19 8L19 7L20 7L20 5L18 5L18 6L17 6L17 2L16 2L16 3L15 3L15 2L14 2L14 4L13 4L13 5L10 5L10 6L9 6L9 7L10 7L10 8L9 8L9 9L10 9L10 10L11 10L11 9L12 9L12 10L13 10L13 9L12 9L12 8L11 8L11 7L12 7L12 6L13 6L13 8L14 8L14 10L17 10L17 11L18 11L18 9L15 9L15 7L16 7L16 8L19 8L19 9L20 9L20 10L19 10L19 13L20 13L20 14L17 14L17 13L18 13L18 12L17 12L17 13L16 13L16 12L15 12L15 13L13 13L13 14L12 14L12 15L14 15L14 17L13 17L13 19L12 19L12 18L11 18L11 19L12 19L12 21L10 21L10 20L9 20L9 21L10 21L10 22L11 22L11 23L12 23L12 21L14 21L14 23L13 23L13 24L12 24L12 26L9 26L9 25L11 25L11 24L10 24L10 23L8 23L8 22L7 22L7 21L6 21L6 20L5 20L5 21L6 21L6 22L5 22L5 23L6 23L6 24L8 24L8 25L6 25L6 26L9 26L9 27L10 27L10 28L13 28L13 30L12 30L12 29L11 29L11 30L10 30L10 34L9 34L9 33L8 33L8 34L7 34L7 33L6 33L6 32L7 32L7 31L6 31L6 32L5 32L5 33L4 33L4 34L3 34L3 35L5 35L5 34L7 34L7 35L6 35L6 36L7 36L7 35L8 35L8 36L9 36L9 38L10 38L10 35L11 35L11 36L12 36L12 35L14 35L14 36L15 36L15 37L16 37L16 38L14 38L14 40L13 40L13 39L12 39L12 38L13 38L13 37L12 37L12 38L11 38L11 40L10 40L10 39L9 39L9 40L8 40L8 41L5 41L5 42L7 42L7 43L6 43L6 44L8 44L8 46L7 46L7 45L6 45L6 46L7 46L7 47L9 47L9 48L8 48L8 49L9 49L9 48L12 48L12 46L9 46L9 44L8 44L8 42L9 42L9 43L11 43L11 44L10 44L10 45L12 45L12 44L13 44L13 46L16 46L16 47L13 47L13 49L12 49L12 50L11 50L11 53L10 53L10 52L9 52L9 54L10 54L10 56L12 56L12 55L13 55L13 56L14 56L14 55L15 55L15 56L16 56L16 55L15 55L15 54L16 54L16 53L17 53L17 55L19 55L19 56L21 56L21 55L22 55L22 54L21 54L21 53L24 53L24 54L23 54L23 55L24 55L24 56L26 56L26 55L27 55L27 56L29 56L29 55L30 55L30 56L31 56L31 54L32 54L32 53L33 53L33 54L35 54L35 56L36 56L36 54L35 54L35 50L36 50L36 52L37 52L37 51L38 51L38 54L40 54L40 53L41 53L41 52L42 52L42 53L43 53L43 54L44 54L44 53L45 53L45 54L47 54L47 53L48 53L48 50L47 50L47 49L48 49L48 48L50 48L50 47L53 47L53 48L54 48L54 49L56 49L56 48L54 48L54 47L53 47L53 45L52 45L52 44L53 44L53 43L54 43L54 42L53 42L53 41L54 41L54 40L53 40L53 39L54 39L54 38L53 38L53 35L55 35L55 34L54 34L54 33L56 33L56 32L53 32L53 33L52 33L52 32L51 32L51 33L52 33L52 34L50 34L50 32L49 32L49 31L48 31L48 30L47 30L47 29L46 29L46 30L47 30L47 31L46 31L46 33L45 33L45 32L43 32L43 31L44 31L44 30L41 30L41 29L43 29L43 27L44 27L44 25L45 25L45 28L44 28L44 29L45 29L45 28L46 28L46 27L48 27L48 26L47 26L47 25L46 25L46 24L49 24L49 23L50 23L50 24L51 24L51 25L50 25L50 26L51 26L51 25L52 25L52 26L53 26L53 27L54 27L54 26L53 26L53 25L54 25L54 24L53 24L53 23L50 23L50 22L51 22L51 21L49 21L49 20L48 20L48 21L47 21L47 19L48 19L48 18L47 18L47 17L49 17L49 15L50 15L50 16L51 16L51 17L50 17L50 18L49 18L49 19L51 19L51 18L55 18L55 17L53 17L53 15L54 15L54 13L55 13L55 14L56 14L56 13L55 13L55 12L54 12L54 13L53 13L53 12L52 12L52 13L53 13L53 15L50 15L50 14L51 14L51 12L50 12L50 11L48 11L48 10L47 10L47 12L45 12L45 11L42 11L42 10L41 10L41 9L43 9L43 10L44 10L44 9L43 9L43 8L44 8L44 6L43 6L43 7L42 7L42 6L41 6L41 5L40 5L40 6L39 6L39 8L38 8L38 6L37 6L37 7L36 7L36 5L37 5L37 4L36 4L36 5L35 5L35 2L33 2L33 3L32 3L32 1L31 1L31 2L30 2L30 1ZM46 1L46 2L47 2L47 1ZM15 4L15 5L14 5L14 7L15 7L15 5L16 5L16 4ZM23 4L23 5L24 5L24 4ZM32 4L32 5L33 5L33 4ZM27 5L27 8L30 8L30 5ZM34 5L34 7L33 7L33 6L32 6L32 7L33 7L33 9L34 9L34 8L35 8L35 9L37 9L37 10L36 10L36 12L35 12L35 13L37 13L37 14L36 14L36 15L37 15L37 14L38 14L38 15L39 15L39 16L38 16L38 17L37 17L37 16L35 16L35 14L33 14L33 13L34 13L34 12L33 12L33 10L32 10L32 12L31 12L31 13L30 13L30 14L29 14L29 13L28 13L28 12L29 12L29 11L27 11L27 12L26 12L26 13L28 13L28 14L29 14L29 16L28 16L28 15L27 15L27 14L25 14L25 12L24 12L24 13L23 13L23 10L22 10L22 9L21 9L21 10L22 10L22 11L21 11L21 12L20 12L20 13L21 13L21 14L20 14L20 16L19 16L19 15L18 15L18 16L16 16L16 13L15 13L15 14L14 14L14 15L15 15L15 16L16 16L16 17L19 17L19 19L18 19L18 20L17 20L17 21L16 21L16 19L17 19L17 18L15 18L15 17L14 17L14 18L15 18L15 21L16 21L16 22L15 22L15 23L14 23L14 24L13 24L13 25L14 25L14 26L12 26L12 27L13 27L13 28L14 28L14 30L13 30L13 32L11 32L11 33L13 33L13 34L14 34L14 35L16 35L16 36L17 36L17 38L18 38L18 37L19 37L19 38L20 38L20 39L17 39L17 40L16 40L16 39L15 39L15 40L16 40L16 41L17 41L17 42L18 42L18 43L16 43L16 45L17 45L17 46L20 46L20 49L19 49L19 47L18 47L18 48L15 48L15 49L13 49L13 50L12 50L12 51L13 51L13 50L15 50L15 49L17 49L17 50L16 50L16 51L15 51L15 52L12 52L12 53L14 53L14 54L15 54L15 53L16 53L16 51L17 51L17 53L20 53L20 52L22 52L22 51L21 51L21 50L26 50L26 52L24 52L24 53L26 53L26 54L30 54L30 53L31 53L31 49L32 49L32 50L33 50L33 49L34 49L34 48L35 48L35 49L36 49L36 50L38 50L38 51L40 51L40 52L41 52L41 50L42 50L42 52L43 52L43 53L44 53L44 52L45 52L45 53L47 53L47 51L44 51L44 48L43 48L43 47L42 47L42 48L41 48L41 46L43 46L43 45L44 45L44 47L46 47L46 48L45 48L45 49L47 49L47 48L48 48L48 47L50 47L50 46L48 46L48 45L49 45L49 44L48 44L48 45L47 45L47 43L50 43L50 44L51 44L51 43L53 43L53 42L51 42L51 41L53 41L53 40L52 40L52 39L53 39L53 38L51 38L51 39L50 39L50 37L51 37L51 36L52 36L52 35L53 35L53 34L52 34L52 35L50 35L50 34L48 34L48 35L50 35L50 36L48 36L48 37L47 37L47 39L44 39L44 40L43 40L43 39L42 39L42 38L43 38L43 37L44 37L44 38L45 38L45 37L44 37L44 36L46 36L46 34L45 34L45 35L44 35L44 33L43 33L43 32L41 32L41 33L39 33L39 34L40 34L40 35L39 35L39 37L40 37L40 38L41 38L41 39L42 39L42 40L41 40L41 41L40 41L40 42L42 42L42 44L41 44L41 45L40 45L40 47L39 47L39 46L38 46L38 45L39 45L39 42L38 42L38 40L39 40L39 39L38 39L38 40L35 40L35 39L37 39L37 38L38 38L38 37L37 37L37 36L38 36L38 33L37 33L37 32L34 32L34 31L35 31L35 30L37 30L37 29L38 29L38 28L39 28L39 27L41 27L41 28L42 28L42 26L43 26L43 25L44 25L44 24L42 24L42 23L44 23L44 20L45 20L45 18L44 18L44 15L47 15L47 16L45 16L45 17L47 17L47 16L48 16L48 15L49 15L49 14L50 14L50 12L49 12L49 13L47 13L47 14L44 14L44 15L42 15L42 16L41 16L41 15L40 15L40 14L43 14L43 13L44 13L44 12L43 12L43 13L39 13L39 12L41 12L41 10L40 10L40 9L39 9L39 10L38 10L38 8L35 8L35 5ZM10 6L10 7L11 7L11 6ZM16 6L16 7L17 7L17 6ZM18 6L18 7L19 7L19 6ZM21 6L21 7L22 7L22 6ZM28 6L28 7L29 7L29 6ZM40 6L40 7L41 7L41 6ZM0 8L0 9L5 9L5 8ZM10 8L10 9L11 9L11 8ZM6 10L6 11L8 11L8 10ZM39 10L39 11L40 11L40 10ZM13 11L13 12L14 12L14 11ZM21 12L21 13L22 13L22 14L23 14L23 13L22 13L22 12ZM32 12L32 13L31 13L31 14L30 14L30 15L31 15L31 16L32 16L32 17L33 17L33 18L30 18L30 19L29 19L29 20L27 20L27 19L28 19L28 18L26 18L26 16L27 16L27 17L28 17L28 16L27 16L27 15L26 15L26 16L24 16L24 15L21 15L21 16L20 16L20 21L19 21L19 22L20 22L20 23L18 23L18 24L22 24L22 25L19 25L19 26L18 26L18 25L17 25L17 24L16 24L16 23L15 23L15 24L16 24L16 25L15 25L15 26L18 26L18 27L17 27L17 28L18 28L18 29L16 29L16 28L15 28L15 27L14 27L14 28L15 28L15 29L16 29L16 30L18 30L18 31L17 31L17 32L15 32L15 30L14 30L14 32L13 32L13 33L14 33L14 34L16 34L16 35L17 35L17 36L19 36L19 37L23 37L23 38L21 38L21 40L19 40L19 41L18 41L18 42L19 42L19 45L20 45L20 46L21 46L21 45L22 45L22 46L23 46L23 47L21 47L21 49L20 49L20 50L19 50L19 52L20 52L20 50L21 50L21 49L23 49L23 47L24 47L24 46L23 46L23 45L25 45L25 48L24 48L24 49L26 49L26 48L27 48L27 47L29 47L29 48L30 48L30 47L29 47L29 46L35 46L35 48L36 48L36 47L37 47L37 46L36 46L36 45L34 45L34 43L37 43L37 42L35 42L35 40L33 40L33 39L29 39L29 38L31 38L31 37L29 37L29 36L30 36L30 34L29 34L29 33L31 33L31 31L30 31L30 32L29 32L29 31L27 31L27 32L26 32L26 31L25 31L25 30L24 30L24 32L19 32L19 33L20 33L20 34L19 34L19 35L17 35L17 32L18 32L18 31L23 31L23 29L26 29L26 28L25 28L25 27L26 27L26 26L28 26L28 25L29 25L29 26L30 26L30 25L29 25L29 23L31 23L31 24L32 24L32 26L31 26L31 28L32 28L32 29L31 29L31 30L35 30L35 29L36 29L36 28L37 28L37 27L39 27L39 25L41 25L41 26L42 26L42 25L41 25L41 24L38 24L38 23L40 23L40 22L39 22L39 21L42 21L42 20L38 20L38 19L39 19L39 17L41 17L41 16L39 16L39 17L38 17L38 18L37 18L37 17L35 17L35 16L32 16L32 15L31 15L31 14L32 14L32 13L33 13L33 12ZM2 13L2 14L1 14L1 17L2 17L2 18L4 18L4 17L2 17L2 15L4 15L4 14L3 14L3 13ZM38 13L38 14L39 14L39 13ZM21 16L21 17L22 17L22 18L21 18L21 20L22 20L22 18L24 18L24 19L23 19L23 20L24 20L24 21L21 21L21 22L22 22L22 23L23 23L23 25L22 25L22 26L21 26L21 27L22 27L22 26L23 26L23 28L24 28L24 27L25 27L25 26L26 26L26 25L25 25L25 24L27 24L27 23L29 23L29 22L31 22L31 21L32 21L32 20L33 20L33 19L35 19L35 20L34 20L34 21L35 21L35 23L34 23L34 22L33 22L33 23L32 23L32 24L33 24L33 25L37 25L37 26L38 26L38 24L37 24L37 23L38 23L38 20L36 20L36 19L35 19L35 18L33 18L33 19L31 19L31 21L25 21L25 20L26 20L26 18L25 18L25 17L22 17L22 16ZM42 16L42 17L43 17L43 16ZM41 18L41 19L42 19L42 18ZM43 18L43 20L44 20L44 18ZM13 19L13 20L14 20L14 19ZM24 21L24 22L23 22L23 23L24 23L24 24L25 24L25 23L26 23L26 22L25 22L25 21ZM45 21L45 22L46 22L46 23L49 23L49 21L48 21L48 22L46 22L46 21ZM6 22L6 23L7 23L7 22ZM41 22L41 23L42 23L42 22ZM0 23L0 25L1 25L1 23ZM3 24L3 25L4 25L4 26L5 26L5 25L4 25L4 24ZM0 26L0 27L1 27L1 26ZM19 26L19 29L18 29L18 30L20 30L20 29L22 29L22 28L20 28L20 26ZM32 26L32 27L33 27L33 28L36 28L36 26L34 26L34 27L33 27L33 26ZM5 27L5 30L8 30L8 27ZM27 27L27 30L30 30L30 27ZM49 27L49 30L52 30L52 27ZM0 28L0 29L1 29L1 28ZM6 28L6 29L7 29L7 28ZM28 28L28 29L29 29L29 28ZM50 28L50 29L51 29L51 28ZM39 29L39 30L38 30L38 32L39 32L39 30L40 30L40 29ZM11 30L11 31L12 31L12 30ZM54 30L54 31L55 31L55 30ZM32 31L32 34L31 34L31 35L32 35L32 34L33 34L33 36L32 36L32 37L33 37L33 38L34 38L34 39L35 39L35 37L33 37L33 36L34 36L34 35L35 35L35 36L37 36L37 34L35 34L35 33L33 33L33 31ZM47 31L47 32L48 32L48 33L49 33L49 32L48 32L48 31ZM25 32L25 33L23 33L23 34L22 34L22 33L21 33L21 34L22 34L22 36L23 36L23 37L24 37L24 38L23 38L23 39L24 39L24 40L25 40L25 39L26 39L26 40L28 40L28 41L29 41L29 40L28 40L28 39L26 39L26 38L25 38L25 37L27 37L27 38L28 38L28 37L27 37L27 35L26 35L26 34L27 34L27 33L26 33L26 32ZM28 32L28 33L29 33L29 32ZM25 33L25 34L26 34L26 33ZM11 34L11 35L12 35L12 34ZM23 34L23 36L24 36L24 34ZM42 34L42 36L44 36L44 35L43 35L43 34ZM19 35L19 36L20 36L20 35ZM40 36L40 37L41 37L41 38L42 38L42 37L41 37L41 36ZM6 37L6 38L7 38L7 39L6 39L6 40L7 40L7 39L8 39L8 37ZM48 38L48 39L47 39L47 40L44 40L44 41L43 41L43 42L44 42L44 43L43 43L43 44L44 44L44 45L45 45L45 46L47 46L47 45L45 45L45 44L46 44L46 42L48 42L48 41L49 41L49 38ZM9 40L9 42L12 42L12 43L14 43L14 44L15 44L15 42L14 42L14 41L13 41L13 40L12 40L12 41L10 41L10 40ZM31 40L31 41L32 41L32 42L27 42L27 41L26 41L26 42L27 42L27 43L25 43L25 44L27 44L27 43L28 43L28 44L30 44L30 45L32 45L32 44L33 44L33 43L34 43L34 42L33 42L33 41L32 41L32 40ZM19 41L19 42L20 42L20 45L21 45L21 44L22 44L22 45L23 45L23 42L25 42L25 41L23 41L23 42L22 42L22 41L21 41L21 42L20 42L20 41ZM44 41L44 42L46 42L46 41ZM21 42L21 43L22 43L22 42ZM32 42L32 43L31 43L31 44L32 44L32 43L33 43L33 42ZM50 42L50 43L51 43L51 42ZM0 43L0 44L1 44L1 43ZM44 43L44 44L45 44L45 43ZM55 43L55 44L54 44L54 46L56 46L56 43ZM4 44L4 45L5 45L5 44ZM17 44L17 45L18 45L18 44ZM2 45L2 46L1 46L1 47L2 47L2 46L3 46L3 47L5 47L5 46L3 46L3 45ZM26 45L26 47L27 47L27 45ZM31 47L31 48L32 48L32 49L33 49L33 47ZM38 47L38 48L37 48L37 49L38 49L38 50L41 50L41 48L39 48L39 47ZM38 48L38 49L39 49L39 48ZM42 48L42 49L43 49L43 48ZM27 49L27 52L30 52L30 49ZM49 49L49 52L52 52L52 49ZM9 50L9 51L10 51L10 50ZM28 50L28 51L29 51L29 50ZM50 50L50 51L51 51L51 50ZM32 51L32 52L33 52L33 53L34 53L34 52L33 52L33 51ZM53 52L53 54L54 54L54 52ZM11 54L11 55L12 55L12 54ZM19 54L19 55L20 55L20 54ZM41 54L41 55L42 55L42 54ZM37 55L37 56L39 56L39 55ZM46 55L46 56L47 56L47 55ZM48 55L48 56L49 56L49 55ZM50 55L50 56L51 56L51 55ZM43 56L43 57L44 57L44 56ZM0 0L0 7L7 7L7 0ZM1 1L1 6L6 6L6 1ZM2 2L2 5L5 5L5 2ZM50 0L50 7L57 7L57 0ZM51 1L51 6L56 6L56 1ZM52 2L52 5L55 5L55 2ZM0 50L0 57L7 57L7 50ZM1 51L1 56L6 56L6 51ZM2 52L2 55L5 55L5 52Z" fill="#000000"/></g></g></svg>
