<?xml version="1.0" encoding="UTF-8"?>
<svg xmlns="http://www.w3.org/2000/svg" version="1.1" width="300" height="300" viewBox="0 0 300 300"><rect x="0" y="0" width="300" height="300" fill="#fefefe"/><g transform="scale(4.615)"><g transform="translate(4,4)"><path fill-rule="evenodd" d="M9 0L9 1L8 1L8 2L9 2L9 3L8 3L8 4L9 4L9 5L8 5L8 7L9 7L9 6L10 6L10 8L6 8L6 9L7 9L7 10L5 10L5 8L0 8L0 9L2 9L2 10L1 10L1 11L0 11L0 13L1 13L1 11L2 11L2 13L3 13L3 14L1 14L1 15L0 15L0 16L1 16L1 17L0 17L0 18L1 18L1 19L0 19L0 21L2 21L2 22L0 22L0 23L2 23L2 24L3 24L3 25L5 25L5 26L2 26L2 25L1 25L1 24L0 24L0 26L1 26L1 28L2 28L2 29L1 29L1 30L0 30L0 31L5 31L5 32L2 32L2 33L5 33L5 34L4 34L4 35L3 35L3 34L1 34L1 33L0 33L0 34L1 34L1 35L0 35L0 36L1 36L1 35L2 35L2 37L1 37L1 38L0 38L0 39L1 39L1 40L0 40L0 41L1 41L1 42L0 42L0 43L1 43L1 45L0 45L0 48L5 48L5 47L9 47L9 48L6 48L6 49L8 49L8 51L9 51L9 52L8 52L8 57L9 57L9 56L11 56L11 55L13 55L13 53L12 53L12 54L11 54L11 55L10 55L10 51L9 51L9 49L10 49L10 50L11 50L11 47L12 47L12 49L13 49L13 47L12 47L12 45L13 45L13 46L14 46L14 48L15 48L15 49L14 49L14 50L13 50L13 52L15 52L15 53L16 53L16 54L15 54L15 55L16 55L16 56L15 56L15 57L16 57L16 56L17 56L17 57L19 57L19 56L17 56L17 54L19 54L19 55L20 55L20 54L19 54L19 53L20 53L20 52L21 52L21 50L25 50L25 51L26 51L26 52L24 52L24 53L23 53L23 54L22 54L22 53L21 53L21 54L22 54L22 56L24 56L24 57L26 57L26 56L24 56L24 55L23 55L23 54L24 54L24 53L26 53L26 54L25 54L25 55L26 55L26 54L30 54L30 53L31 53L31 49L32 49L32 52L33 52L33 53L32 53L32 54L31 54L31 56L30 56L30 55L29 55L29 56L27 56L27 57L29 57L29 56L30 56L30 57L31 57L31 56L35 56L35 57L39 57L39 56L37 56L37 54L38 54L38 55L41 55L41 57L42 57L42 55L44 55L44 54L45 54L45 53L44 53L44 52L47 52L47 51L46 51L46 50L45 50L45 49L44 49L44 48L43 48L43 47L42 47L42 48L41 48L41 46L43 46L43 45L44 45L44 47L47 47L47 48L48 48L48 49L47 49L47 50L48 50L48 54L46 54L46 55L45 55L45 57L47 57L47 56L48 56L48 57L49 57L49 56L50 56L50 57L52 57L52 55L51 55L51 53L52 53L52 54L53 54L53 55L54 55L54 56L53 56L53 57L54 57L54 56L55 56L55 57L56 57L56 56L55 56L55 53L56 53L56 52L57 52L57 51L56 51L56 50L55 50L55 49L54 49L54 48L56 48L56 49L57 49L57 48L56 48L56 46L57 46L57 43L56 43L56 42L57 42L57 41L56 41L56 42L55 42L55 39L57 39L57 37L56 37L56 36L55 36L55 35L56 35L56 34L55 34L55 32L56 32L56 33L57 33L57 32L56 32L56 30L57 30L57 28L56 28L56 29L54 29L54 28L55 28L55 27L56 27L56 26L57 26L57 25L56 25L56 22L57 22L57 21L56 21L56 20L57 20L57 19L56 19L56 20L55 20L55 18L57 18L57 17L56 17L56 16L57 16L57 15L56 15L56 14L57 14L57 12L56 12L56 10L54 10L54 11L53 11L53 10L52 10L52 11L51 11L51 10L49 10L49 9L50 9L50 8L49 8L49 6L48 6L48 7L47 7L47 5L48 5L48 0L46 0L46 1L47 1L47 2L44 2L44 3L42 3L42 2L43 2L43 0L41 0L41 1L40 1L40 0L39 0L39 1L38 1L38 0L37 0L37 1L38 1L38 2L37 2L37 3L36 3L36 0L35 0L35 1L32 1L32 3L31 3L31 0L27 0L27 1L26 1L26 0L23 0L23 2L25 2L25 1L26 1L26 2L27 2L27 1L30 1L30 2L29 2L29 4L26 4L26 3L23 3L23 4L24 4L24 5L23 5L23 6L22 6L22 8L23 8L23 10L22 10L22 11L21 11L21 12L20 12L20 11L19 11L19 10L20 10L20 8L21 8L21 5L22 5L22 4L19 4L19 1L20 1L20 2L22 2L22 0L21 0L21 1L20 1L20 0L17 0L17 1L16 1L16 2L17 2L17 4L18 4L18 5L20 5L20 7L19 7L19 6L18 6L18 7L19 7L19 8L16 8L16 7L17 7L17 6L16 6L16 7L15 7L15 5L16 5L16 4L15 4L15 5L14 5L14 7L13 7L13 4L14 4L14 2L15 2L15 1L14 1L14 0L11 0L11 1L10 1L10 0ZM12 1L12 2L10 2L10 3L12 3L12 2L14 2L14 1ZM33 2L33 3L32 3L32 4L31 4L31 3L30 3L30 4L31 4L31 8L32 8L32 10L31 10L31 11L30 11L30 10L29 10L29 9L27 9L27 10L29 10L29 12L28 12L28 13L27 13L27 15L26 15L26 12L27 12L27 11L26 11L26 12L25 12L25 10L23 10L23 11L24 11L24 13L22 13L22 12L21 12L21 13L20 13L20 12L19 12L19 13L20 13L20 14L19 14L19 15L20 15L20 16L19 16L19 17L20 17L20 18L18 18L18 17L17 17L17 13L18 13L18 12L17 12L17 11L18 11L18 9L15 9L15 7L14 7L14 9L13 9L13 10L17 10L17 11L16 11L16 12L15 12L15 13L12 13L12 14L11 14L11 13L10 13L10 15L11 15L11 16L12 16L12 17L11 17L11 18L10 18L10 17L9 17L9 18L8 18L8 15L6 15L6 14L7 14L7 13L8 13L8 14L9 14L9 13L8 13L8 11L9 11L9 12L10 12L10 11L12 11L12 12L14 12L14 11L12 11L12 10L11 10L11 8L10 8L10 9L8 9L8 10L7 10L7 11L6 11L6 12L5 12L5 11L4 11L4 10L2 10L2 11L4 11L4 12L3 12L3 13L4 13L4 15L1 15L1 16L3 16L3 17L1 17L1 18L2 18L2 19L4 19L4 20L3 20L3 21L5 21L5 20L10 20L10 21L11 21L11 23L10 23L10 22L8 22L8 21L6 21L6 22L5 22L5 25L6 25L6 26L8 26L8 25L6 25L6 24L9 24L9 28L10 28L10 29L9 29L9 30L10 30L10 33L9 33L9 35L8 35L8 34L7 34L7 33L8 33L8 32L9 32L9 31L6 31L6 32L5 32L5 33L6 33L6 34L5 34L5 35L4 35L4 36L5 36L5 39L2 39L2 38L1 38L1 39L2 39L2 40L1 40L1 41L3 41L3 40L5 40L5 39L6 39L6 40L7 40L7 39L6 39L6 38L8 38L8 39L10 39L10 42L9 42L9 41L8 41L8 42L7 42L7 41L4 41L4 42L7 42L7 43L6 43L6 44L7 44L7 45L5 45L5 44L3 44L3 43L2 43L2 44L3 44L3 45L2 45L2 46L1 46L1 47L2 47L2 46L3 46L3 47L5 47L5 46L8 46L8 45L9 45L9 43L10 43L10 42L11 42L11 44L10 44L10 46L9 46L9 47L11 47L11 44L12 44L12 43L13 43L13 45L14 45L14 43L15 43L15 46L17 46L17 45L18 45L18 44L17 44L17 45L16 45L16 43L15 43L15 42L17 42L17 43L18 43L18 42L19 42L19 41L20 41L20 42L21 42L21 43L20 43L20 44L19 44L19 45L20 45L20 46L21 46L21 45L22 45L22 46L23 46L23 45L22 45L22 44L21 44L21 43L22 43L22 42L23 42L23 40L24 40L24 41L25 41L25 43L24 43L24 45L25 45L25 46L24 46L24 47L20 47L20 50L21 50L21 49L23 49L23 48L24 48L24 49L25 49L25 50L26 50L26 49L25 49L25 48L24 48L24 47L26 47L26 48L27 48L27 47L26 47L26 45L27 45L27 46L30 46L30 45L31 45L31 44L30 44L30 45L27 45L27 44L25 44L25 43L27 43L27 42L32 42L32 43L33 43L33 44L32 44L32 47L33 47L33 46L35 46L35 47L34 47L34 48L36 48L36 47L37 47L37 45L36 45L36 46L35 46L35 45L34 45L34 43L37 43L37 42L35 42L35 40L38 40L38 42L39 42L39 43L41 43L41 44L39 44L39 45L38 45L38 46L39 46L39 47L38 47L38 48L37 48L37 49L38 49L38 50L36 50L36 49L33 49L33 48L32 48L32 49L33 49L33 52L34 52L34 53L33 53L33 54L34 54L34 55L35 55L35 56L36 56L36 54L35 54L35 50L36 50L36 52L37 52L37 53L38 53L38 54L40 54L40 53L43 53L43 54L44 54L44 53L43 53L43 51L42 51L42 50L41 50L41 48L39 48L39 47L40 47L40 46L41 46L41 44L42 44L42 42L41 42L41 40L42 40L42 41L43 41L43 40L42 40L42 39L47 39L47 41L45 41L45 40L44 40L44 42L43 42L43 44L44 44L44 45L45 45L45 46L47 46L47 45L48 45L48 46L50 46L50 47L48 47L48 48L51 48L51 46L52 46L52 48L53 48L53 47L54 47L54 46L56 46L56 43L55 43L55 44L54 44L54 45L52 45L52 44L53 44L53 43L54 43L54 42L53 42L53 41L54 41L54 40L53 40L53 39L55 39L55 37L53 37L53 35L55 35L55 34L54 34L54 32L53 32L53 33L52 33L52 32L51 32L51 33L52 33L52 34L50 34L50 32L49 32L49 31L48 31L48 30L47 30L47 29L48 29L48 27L47 27L47 25L50 25L50 26L51 26L51 25L53 25L53 23L52 23L52 24L51 24L51 23L50 23L50 22L51 22L51 21L54 21L54 22L56 22L56 21L55 21L55 20L53 20L53 19L52 19L52 18L51 18L51 17L53 17L53 18L55 18L55 16L53 16L53 15L55 15L55 14L56 14L56 12L54 12L54 13L55 13L55 14L53 14L53 15L50 15L50 14L51 14L51 12L50 12L50 11L49 11L49 10L47 10L47 8L44 8L44 9L43 9L43 7L44 7L44 6L45 6L45 7L46 7L46 5L47 5L47 3L44 3L44 6L43 6L43 7L42 7L42 5L40 5L40 4L41 4L41 3L39 3L39 2L38 2L38 6L37 6L37 7L36 7L36 5L37 5L37 4L36 4L36 5L35 5L35 2ZM10 4L10 5L11 5L11 7L12 7L12 4ZM25 4L25 8L26 8L26 4ZM32 4L32 5L34 5L34 7L33 7L33 6L32 6L32 7L33 7L33 9L34 9L34 8L35 8L35 9L37 9L37 10L36 10L36 11L35 11L35 14L33 14L33 13L34 13L34 12L33 12L33 13L32 13L32 11L33 11L33 10L32 10L32 11L31 11L31 13L30 13L30 14L29 14L29 13L28 13L28 14L29 14L29 16L28 16L28 15L27 15L27 16L26 16L26 15L24 15L24 16L26 16L26 17L22 17L22 16L20 16L20 17L22 17L22 18L21 18L21 19L23 19L23 20L24 20L24 21L22 21L22 20L21 20L21 21L22 21L22 22L21 22L21 24L18 24L18 23L20 23L20 22L19 22L19 21L20 21L20 20L19 20L19 19L18 19L18 20L17 20L17 21L16 21L16 20L15 20L15 21L16 21L16 22L14 22L14 21L13 21L13 22L12 22L12 23L16 23L16 24L17 24L17 25L18 25L18 26L15 26L15 28L16 28L16 29L15 29L15 30L13 30L13 31L12 31L12 30L11 30L11 32L13 32L13 33L11 33L11 34L10 34L10 35L11 35L11 36L12 36L12 37L10 37L10 36L6 36L6 37L10 37L10 38L12 38L12 37L13 37L13 35L14 35L14 37L15 37L15 38L13 38L13 39L11 39L11 41L12 41L12 42L13 42L13 39L14 39L14 40L16 40L16 41L19 41L19 40L22 40L22 39L24 39L24 40L25 40L25 36L26 36L26 35L27 35L27 34L25 34L25 33L26 33L26 32L28 32L28 33L29 33L29 34L30 34L30 36L29 36L29 37L31 37L31 38L29 38L29 39L33 39L33 40L35 40L35 39L37 39L37 38L38 38L38 37L40 37L40 38L41 38L41 39L38 39L38 40L41 40L41 39L42 39L42 38L43 38L43 37L44 37L44 38L45 38L45 37L44 37L44 36L46 36L46 37L47 37L47 36L46 36L46 35L44 35L44 33L43 33L43 32L45 32L45 33L47 33L47 32L48 32L48 33L49 33L49 32L48 32L48 31L47 31L47 30L46 30L46 29L47 29L47 27L46 27L46 28L45 28L45 26L44 26L44 27L43 27L43 28L45 28L45 30L44 30L44 29L39 29L39 30L38 30L38 32L39 32L39 31L41 31L41 30L44 30L44 31L43 31L43 32L41 32L41 33L39 33L39 34L40 34L40 35L39 35L39 36L38 36L38 33L37 33L37 32L35 32L35 30L32 30L32 28L31 28L31 26L32 26L32 27L33 27L33 28L35 28L35 29L38 29L38 28L40 28L40 27L36 27L36 26L34 26L34 27L33 27L33 26L32 26L32 24L33 24L33 25L37 25L37 26L38 26L38 24L39 24L39 25L40 25L40 26L41 26L41 28L42 28L42 26L43 26L43 25L44 25L44 24L43 24L43 23L44 23L44 20L48 20L48 21L47 21L47 22L46 22L46 21L45 21L45 22L46 22L46 23L45 23L45 24L46 24L46 25L47 25L47 24L48 24L48 23L49 23L49 21L51 21L51 20L52 20L52 19L50 19L50 17L49 17L49 16L50 16L50 15L49 15L49 14L50 14L50 12L49 12L49 13L47 13L47 14L45 14L45 17L47 17L47 18L46 18L46 19L45 19L45 18L44 18L44 14L43 14L43 13L44 13L44 12L43 12L43 13L41 13L41 14L38 14L38 13L40 13L40 12L41 12L41 11L45 11L45 12L48 12L48 11L47 11L47 10L46 10L46 9L44 9L44 10L43 10L43 9L39 9L39 10L38 10L38 8L39 8L39 6L40 6L40 7L41 7L41 6L40 6L40 5L39 5L39 6L38 6L38 8L35 8L35 5L34 5L34 4ZM45 4L45 5L46 5L46 4ZM27 5L27 8L30 8L30 5ZM23 6L23 8L24 8L24 6ZM28 6L28 7L29 7L29 6ZM51 8L51 9L52 9L52 8ZM53 8L53 9L54 9L54 8ZM55 8L55 9L56 9L56 8ZM9 10L9 11L10 11L10 10ZM37 10L37 11L38 11L38 10ZM40 10L40 11L39 11L39 12L40 12L40 11L41 11L41 10ZM45 10L45 11L46 11L46 10ZM4 12L4 13L5 13L5 12ZM6 12L6 13L7 13L7 12ZM16 12L16 13L15 13L15 14L13 14L13 15L12 15L12 16L13 16L13 17L12 17L12 18L11 18L11 20L14 20L14 19L12 19L12 18L13 18L13 17L14 17L14 18L15 18L15 19L17 19L17 18L15 18L15 17L16 17L16 13L17 13L17 12ZM52 12L52 13L53 13L53 12ZM21 13L21 14L20 14L20 15L23 15L23 14L22 14L22 13ZM24 13L24 14L25 14L25 13ZM31 13L31 14L30 14L30 15L31 15L31 16L32 16L32 17L31 17L31 18L30 18L30 20L29 20L29 19L28 19L28 18L26 18L26 21L31 21L31 22L30 22L30 24L28 24L28 23L27 23L27 24L25 24L25 23L26 23L26 22L25 22L25 21L24 21L24 22L23 22L23 23L24 23L24 24L21 24L21 25L19 25L19 26L18 26L18 27L17 27L17 28L18 28L18 29L16 29L16 30L18 30L18 31L17 31L17 32L15 32L15 34L14 34L14 33L13 33L13 34L14 34L14 35L16 35L16 34L17 34L17 32L19 32L19 31L23 31L23 32L20 32L20 34L19 34L19 33L18 33L18 35L17 35L17 36L15 36L15 37L16 37L16 38L15 38L15 39L16 39L16 40L19 40L19 39L20 39L20 38L19 38L19 37L21 37L21 38L24 38L24 37L23 37L23 36L24 36L24 34L23 34L23 33L25 33L25 32L26 32L26 31L23 31L23 28L25 28L25 29L26 29L26 28L25 28L25 27L26 27L26 26L28 26L28 25L31 25L31 24L32 24L32 23L35 23L35 19L36 19L36 20L37 20L37 21L38 21L38 23L37 23L37 24L38 24L38 23L39 23L39 24L40 24L40 25L41 25L41 26L42 26L42 25L41 25L41 24L40 24L40 22L39 22L39 21L42 21L42 20L39 20L39 21L38 21L38 19L39 19L39 17L41 17L41 16L42 16L42 17L43 17L43 16L42 16L42 15L43 15L43 14L41 14L41 16L39 16L39 15L38 15L38 14L37 14L37 13L36 13L36 14L37 14L37 15L35 15L35 16L33 16L33 15L31 15L31 14L32 14L32 13ZM14 15L14 17L15 17L15 15ZM46 15L46 16L47 16L47 17L48 17L48 16L49 16L49 15L48 15L48 16L47 16L47 15ZM4 16L4 17L3 17L3 18L5 18L5 19L8 19L8 18L6 18L6 17L7 17L7 16ZM27 16L27 17L28 17L28 16ZM35 16L35 17L37 17L37 18L38 18L38 17L39 17L39 16L38 16L38 17L37 17L37 16ZM32 17L32 18L33 18L33 19L31 19L31 21L32 21L32 20L33 20L33 21L34 21L34 20L33 20L33 19L34 19L34 18L33 18L33 17ZM9 18L9 19L10 19L10 18ZM23 18L23 19L24 19L24 18ZM41 18L41 19L42 19L42 18ZM43 18L43 20L44 20L44 18ZM48 18L48 19L49 19L49 18ZM17 21L17 22L18 22L18 21ZM2 22L2 23L3 23L3 24L4 24L4 23L3 23L3 22ZM6 22L6 23L7 23L7 22ZM41 22L41 23L42 23L42 22ZM9 23L9 24L10 24L10 28L11 28L11 29L12 29L12 28L13 28L13 29L14 29L14 25L15 25L15 24L12 24L12 25L13 25L13 27L12 27L12 28L11 28L11 24L10 24L10 23ZM46 23L46 24L47 24L47 23ZM24 24L24 25L21 25L21 27L20 27L20 26L19 26L19 27L20 27L20 28L19 28L19 29L18 29L18 30L20 30L20 29L22 29L22 28L21 28L21 27L22 27L22 26L23 26L23 27L25 27L25 26L26 26L26 25L25 25L25 24ZM27 24L27 25L28 25L28 24ZM50 24L50 25L51 25L51 24ZM54 24L54 25L55 25L55 26L56 26L56 25L55 25L55 24ZM53 26L53 27L54 27L54 26ZM2 27L2 28L3 28L3 29L2 29L2 30L4 30L4 27ZM5 27L5 30L8 30L8 27ZM27 27L27 30L30 30L30 27ZM35 27L35 28L36 28L36 27ZM49 27L49 30L52 30L52 27ZM6 28L6 29L7 29L7 28ZM28 28L28 29L29 29L29 28ZM50 28L50 29L51 29L51 28ZM53 29L53 31L55 31L55 30L54 30L54 29ZM31 30L31 31L29 31L29 33L31 33L31 35L32 35L32 33L33 33L33 32L34 32L34 31L32 31L32 30ZM31 31L31 33L32 33L32 31ZM46 31L46 32L47 32L47 31ZM6 32L6 33L7 33L7 32ZM21 33L21 34L20 34L20 35L21 35L21 36L22 36L22 35L21 35L21 34L22 34L22 33ZM34 33L34 34L33 34L33 35L34 35L34 34L35 34L35 36L37 36L37 34L35 34L35 33ZM6 34L6 35L7 35L7 34ZM42 34L42 35L43 35L43 36L44 36L44 35L43 35L43 34ZM48 34L48 35L50 35L50 36L51 36L51 37L52 37L52 35L53 35L53 34L52 34L52 35L50 35L50 34ZM17 36L17 37L19 37L19 36ZM32 36L32 37L33 37L33 39L35 39L35 37L33 37L33 36ZM40 36L40 37L41 37L41 36ZM3 37L3 38L4 38L4 37ZM26 37L26 40L27 40L27 41L26 41L26 42L27 42L27 41L29 41L29 40L28 40L28 39L27 39L27 38L28 38L28 37ZM49 37L49 38L47 38L47 39L49 39L49 41L48 41L48 42L45 42L45 43L46 43L46 44L45 44L45 45L47 45L47 43L48 43L48 42L49 42L49 43L50 43L50 45L51 45L51 43L53 43L53 42L51 42L51 41L53 41L53 40L51 40L51 39L52 39L52 38L51 38L51 39L49 39L49 38L50 38L50 37ZM17 38L17 39L19 39L19 38ZM30 40L30 41L32 41L32 42L33 42L33 43L34 43L34 42L33 42L33 41L32 41L32 40ZM14 41L14 42L15 42L15 41ZM21 41L21 42L22 42L22 41ZM39 41L39 42L40 42L40 41ZM50 42L50 43L51 43L51 42ZM7 43L7 44L8 44L8 43ZM20 44L20 45L21 45L21 44ZM48 44L48 45L49 45L49 44ZM17 47L17 48L19 48L19 47ZM28 47L28 48L29 48L29 47ZM38 48L38 49L39 49L39 48ZM42 48L42 49L43 49L43 50L44 50L44 51L45 51L45 50L44 50L44 49L43 49L43 48ZM15 49L15 50L14 50L14 51L16 51L16 53L17 53L17 51L18 51L18 52L20 52L20 51L19 51L19 50L17 50L17 49ZM27 49L27 52L30 52L30 49ZM49 49L49 52L52 52L52 49ZM16 50L16 51L17 51L17 50ZM28 50L28 51L29 51L29 50ZM38 50L38 51L37 51L37 52L38 52L38 53L39 53L39 51L40 51L40 52L41 52L41 50ZM50 50L50 51L51 51L51 50ZM54 50L54 51L55 51L55 50ZM11 51L11 52L12 52L12 51ZM53 52L53 53L54 53L54 52ZM41 54L41 55L42 55L42 54ZM48 55L48 56L49 56L49 55ZM50 55L50 56L51 56L51 55ZM13 56L13 57L14 57L14 56ZM43 56L43 57L44 57L44 56ZM0 0L0 7L7 7L7 0ZM1 1L1 6L6 6L6 1ZM2 2L2 5L5 5L5 2ZM50 0L50 7L57 7L57 0ZM51 1L51 6L56 6L56 1ZM52 2L52 5L55 5L55 2ZM0 50L0 57L7 57L7 50ZM1 51L1 56L6 56L6 51ZM2 52L2 55L5 55L5 52Z" fill="#000000"/></g></g></svg>
