<?xml version="1.0" encoding="UTF-8"?>
<svg xmlns="http://www.w3.org/2000/svg" version="1.1" width="300" height="300" viewBox="0 0 300 300"><rect x="0" y="0" width="300" height="300" fill="#fefefe"/><g transform="scale(4.615)"><g transform="translate(4,4)"><path fill-rule="evenodd" d="M8 0L8 2L9 2L9 1L10 1L10 2L11 2L11 3L10 3L10 4L8 4L8 9L7 9L7 8L5 8L5 9L7 9L7 10L4 10L4 9L3 9L3 8L0 8L0 12L2 12L2 13L0 13L0 14L2 14L2 15L0 15L0 16L1 16L1 17L2 17L2 18L3 18L3 19L5 19L5 23L4 23L4 20L3 20L3 23L2 23L2 19L0 19L0 20L1 20L1 23L0 23L0 28L1 28L1 29L2 29L2 28L3 28L3 29L4 29L4 30L0 30L0 32L1 32L1 33L0 33L0 35L1 35L1 36L3 36L3 38L4 38L4 39L3 39L3 40L2 40L2 39L1 39L1 37L0 37L0 39L1 39L1 40L0 40L0 41L1 41L1 40L2 40L2 41L3 41L3 43L2 43L2 42L1 42L1 43L2 43L2 44L3 44L3 45L2 45L2 47L1 47L1 44L0 44L0 48L5 48L5 47L7 47L7 48L6 48L6 49L7 49L7 48L8 48L8 50L9 50L9 49L12 49L12 50L10 50L10 51L8 51L8 52L9 52L9 53L10 53L10 55L9 55L9 54L8 54L8 57L11 57L11 55L12 55L12 54L11 54L11 53L10 53L10 52L12 52L12 53L14 53L14 54L15 54L15 56L16 56L16 57L17 57L17 55L16 55L16 54L18 54L18 55L19 55L19 54L18 54L18 53L19 53L19 52L20 52L20 53L21 53L21 52L22 52L22 53L23 53L23 55L22 55L22 57L23 57L23 56L24 56L24 57L25 57L25 55L26 55L26 57L28 57L28 55L29 55L29 57L33 57L33 55L30 55L30 54L31 54L31 53L32 53L32 54L34 54L34 57L35 57L35 55L38 55L38 47L37 47L37 48L36 48L36 49L37 49L37 51L35 51L35 50L34 50L34 48L35 48L35 47L36 47L36 46L35 46L35 47L34 47L34 45L33 45L33 44L35 44L35 43L36 43L36 41L37 41L37 42L38 42L38 41L39 41L39 38L40 38L40 39L42 39L42 40L40 40L40 41L41 41L41 42L40 42L40 43L44 43L44 41L45 41L45 44L44 44L44 45L45 45L45 46L44 46L44 49L45 49L45 51L44 51L44 50L42 50L42 49L41 49L41 47L42 47L42 45L43 45L43 44L42 44L42 45L41 45L41 44L40 44L40 46L39 46L39 47L40 47L40 49L39 49L39 52L40 52L40 53L39 53L39 55L40 55L40 54L42 54L42 55L41 55L41 56L40 56L40 57L41 57L41 56L44 56L44 57L50 57L50 55L49 55L49 54L52 54L52 55L53 55L53 56L51 56L51 57L54 57L54 54L55 54L55 55L57 55L57 54L55 54L55 53L57 53L57 49L56 49L56 47L57 47L57 44L56 44L56 47L55 47L55 48L54 48L54 46L55 46L55 45L53 45L53 44L54 44L54 43L55 43L55 42L54 42L54 41L56 41L56 43L57 43L57 40L54 40L54 39L55 39L55 38L57 38L57 36L56 36L56 35L57 35L57 34L56 34L56 35L55 35L55 36L54 36L54 34L53 34L53 36L51 36L51 33L50 33L50 32L53 32L53 33L54 33L54 31L55 31L55 33L56 33L56 31L57 31L57 24L56 24L56 23L57 23L57 21L56 21L56 20L57 20L57 10L56 10L56 12L55 12L55 13L56 13L56 15L55 15L55 16L56 16L56 17L54 17L54 14L53 14L53 12L54 12L54 11L55 11L55 9L57 9L57 8L55 8L55 9L54 9L54 10L53 10L53 11L52 11L52 12L51 12L51 11L50 11L50 9L51 9L51 10L52 10L52 9L53 9L53 8L49 8L49 6L48 6L48 7L47 7L47 5L48 5L48 0L42 0L42 1L41 1L41 0L38 0L38 3L37 3L37 4L38 4L38 5L39 5L39 4L40 4L40 2L42 2L42 1L45 1L45 4L44 4L44 2L43 2L43 3L42 3L42 7L41 7L41 6L40 6L40 7L39 7L39 6L38 6L38 9L37 9L37 6L36 6L36 10L34 10L34 9L35 9L35 4L36 4L36 3L35 3L35 2L37 2L37 1L35 1L35 0L34 0L34 3L33 3L33 4L34 4L34 5L33 5L33 6L32 6L32 7L33 7L33 6L34 6L34 8L32 8L32 9L31 9L31 5L32 5L32 2L33 2L33 0L30 0L30 1L29 1L29 0L28 0L28 1L29 1L29 2L30 2L30 3L29 3L29 4L28 4L28 3L27 3L27 0L26 0L26 1L25 1L25 0L24 0L24 1L23 1L23 0L20 0L20 1L22 1L22 2L20 2L20 3L21 3L21 5L20 5L20 7L19 7L19 4L18 4L18 2L16 2L16 1L17 1L17 0L16 0L16 1L15 1L15 0L14 0L14 3L12 3L12 2L11 2L11 1L10 1L10 0ZM18 0L18 1L19 1L19 0ZM24 1L24 4L25 4L25 1ZM31 1L31 2L32 2L32 1ZM39 1L39 2L40 2L40 1ZM46 1L46 2L47 2L47 1ZM22 2L22 5L23 5L23 2ZM11 3L11 5L12 5L12 3ZM14 3L14 4L15 4L15 3ZM16 3L16 4L17 4L17 3ZM26 3L26 4L27 4L27 3ZM34 3L34 4L35 4L35 3ZM46 3L46 5L44 5L44 4L43 4L43 5L44 5L44 6L43 6L43 9L42 9L42 8L41 8L41 7L40 7L40 8L39 8L39 9L38 9L38 10L37 10L37 11L34 11L34 10L33 10L33 9L32 9L32 11L31 11L31 12L30 12L30 10L31 10L31 9L30 9L30 10L29 10L29 9L27 9L27 10L25 10L25 9L26 9L26 5L24 5L24 6L23 6L23 7L22 7L22 6L21 6L21 7L22 7L22 8L21 8L21 9L20 9L20 10L21 10L21 11L18 11L18 12L20 12L20 14L22 14L22 16L23 16L23 12L24 12L24 14L26 14L26 13L27 13L27 12L28 12L28 10L29 10L29 12L30 12L30 13L29 13L29 15L28 15L28 14L27 14L27 15L26 15L26 17L25 17L25 15L24 15L24 18L26 18L26 20L25 20L25 19L24 19L24 20L25 20L25 21L26 21L26 20L27 20L27 22L26 22L26 23L27 23L27 25L26 25L26 26L27 26L27 25L28 25L28 26L29 26L29 25L28 25L28 22L29 22L29 21L28 21L28 20L31 20L31 21L30 21L30 22L33 22L33 21L34 21L34 22L35 22L35 23L36 23L36 24L34 24L34 23L33 23L33 24L34 24L34 26L33 26L33 25L32 25L32 23L30 23L30 26L31 26L31 25L32 25L32 27L31 27L31 29L32 29L32 30L31 30L31 31L32 31L32 32L30 32L30 31L29 31L29 32L26 32L26 30L25 30L25 28L24 28L24 30L23 30L23 29L22 29L22 30L21 30L21 27L20 27L20 26L22 26L22 22L23 22L23 21L22 21L22 20L23 20L23 18L21 18L21 15L20 15L20 19L19 19L19 23L18 23L18 18L19 18L19 17L18 17L18 16L19 16L19 15L18 15L18 14L19 14L19 13L18 13L18 14L17 14L17 10L19 10L19 9L18 9L18 8L19 8L19 7L18 7L18 6L17 6L17 5L16 5L16 6L15 6L15 7L14 7L14 6L13 6L13 7L14 7L14 8L13 8L13 10L12 10L12 12L11 12L11 11L10 11L10 10L11 10L11 9L12 9L12 8L10 8L10 9L9 9L9 12L8 12L8 14L9 14L9 13L10 13L10 12L11 12L11 13L13 13L13 14L10 14L10 15L11 15L11 16L12 16L12 18L11 18L11 19L12 19L12 18L17 18L17 22L16 22L16 23L17 23L17 25L16 25L16 26L14 26L14 24L15 24L15 21L14 21L14 22L12 22L12 21L11 21L11 24L12 24L12 26L14 26L14 27L13 27L13 29L12 29L12 27L10 27L10 24L8 24L8 23L10 23L10 22L7 22L7 21L9 21L9 20L7 20L7 19L9 19L9 18L10 18L10 17L9 17L9 15L8 15L8 16L7 16L7 15L6 15L6 16L7 16L7 17L6 17L6 18L7 18L7 19L6 19L6 20L7 20L7 21L6 21L6 22L7 22L7 23L6 23L6 24L3 24L3 26L4 26L4 25L6 25L6 26L9 26L9 27L10 27L10 28L11 28L11 29L9 29L9 30L10 30L10 33L11 33L11 32L14 32L14 33L16 33L16 34L15 34L15 36L14 36L14 37L13 37L13 35L12 35L12 34L11 34L11 35L10 35L10 34L9 34L9 33L8 33L8 32L9 32L9 31L5 31L5 32L7 32L7 33L6 33L6 34L7 34L7 35L5 35L5 33L3 33L3 32L4 32L4 31L3 31L3 32L2 32L2 33L3 33L3 34L2 34L2 35L4 35L4 37L5 37L5 38L7 38L7 39L6 39L6 40L5 40L5 39L4 39L4 41L6 41L6 42L7 42L7 43L5 43L5 42L4 42L4 43L3 43L3 44L4 44L4 45L3 45L3 47L5 47L5 46L4 46L4 45L6 45L6 46L7 46L7 47L8 47L8 46L9 46L9 45L10 45L10 46L11 46L11 45L13 45L13 47L10 47L10 48L13 48L13 47L14 47L14 46L15 46L15 47L16 47L16 50L15 50L15 48L14 48L14 50L12 50L12 51L14 51L14 52L17 52L17 53L18 53L18 52L19 52L19 51L20 51L20 50L21 50L21 51L22 51L22 52L24 52L24 51L25 51L25 53L26 53L26 55L28 55L28 53L26 53L26 48L27 48L27 47L28 47L28 48L31 48L31 52L32 52L32 51L33 51L33 52L34 52L34 54L35 54L35 53L36 53L36 54L37 54L37 53L36 53L36 52L34 52L34 51L33 51L33 50L32 50L32 47L33 47L33 48L34 48L34 47L33 47L33 46L32 46L32 40L33 40L33 41L34 41L34 42L35 42L35 41L36 41L36 38L37 38L37 41L38 41L38 38L39 38L39 36L40 36L40 35L41 35L41 36L42 36L42 39L43 39L43 38L44 38L44 35L43 35L43 33L42 33L42 31L43 31L43 30L44 30L44 31L45 31L45 30L46 30L46 32L45 32L45 33L46 33L46 34L48 34L48 33L47 33L47 30L48 30L48 29L47 29L47 28L46 28L46 29L45 29L45 30L44 30L44 27L43 27L43 26L44 26L44 24L46 24L46 26L47 26L47 27L48 27L48 26L49 26L49 25L48 25L48 24L46 24L46 23L47 23L47 21L46 21L46 19L47 19L47 16L46 16L46 15L48 15L48 14L49 14L49 13L50 13L50 15L49 15L49 16L48 16L48 18L49 18L49 16L50 16L50 19L51 19L51 20L49 20L49 19L48 19L48 23L49 23L49 22L50 22L50 23L51 23L51 24L50 24L50 26L51 26L51 25L52 25L52 24L53 24L53 25L54 25L54 26L55 26L55 25L56 25L56 24L55 24L55 23L56 23L56 21L55 21L55 20L56 20L56 19L54 19L54 17L53 17L53 18L52 18L52 15L53 15L53 14L52 14L52 13L50 13L50 11L49 11L49 8L48 8L48 10L47 10L47 9L46 9L46 11L45 11L45 10L44 10L44 6L45 6L45 7L46 7L46 5L47 5L47 3ZM9 5L9 7L10 7L10 5ZM27 5L27 8L30 8L30 5ZM11 6L11 7L12 7L12 6ZM16 6L16 7L17 7L17 8L18 8L18 7L17 7L17 6ZM24 6L24 7L25 7L25 6ZM28 6L28 7L29 7L29 6ZM14 8L14 9L15 9L15 11L14 11L14 12L16 12L16 8ZM22 8L22 9L21 9L21 10L22 10L22 9L23 9L23 11L22 11L22 12L23 12L23 11L24 11L24 12L25 12L25 13L26 13L26 11L24 11L24 8ZM40 8L40 10L38 10L38 11L37 11L37 12L36 12L36 13L35 13L35 12L34 12L34 11L33 11L33 12L32 12L32 13L31 13L31 14L33 14L33 15L34 15L34 17L33 17L33 16L32 16L32 17L31 17L31 16L30 16L30 15L29 15L29 16L30 16L30 17L28 17L28 18L30 18L30 17L31 17L31 18L32 18L32 19L31 19L31 20L32 20L32 21L33 21L33 20L34 20L34 19L35 19L35 20L36 20L36 21L35 21L35 22L36 22L36 23L37 23L37 22L38 22L38 23L39 23L39 26L38 26L38 25L37 25L37 24L36 24L36 26L37 26L37 28L36 28L36 29L35 29L35 27L34 27L34 29L33 29L33 28L32 28L32 29L33 29L33 31L34 31L34 29L35 29L35 30L36 30L36 29L37 29L37 28L38 28L38 29L39 29L39 28L40 28L40 29L41 29L41 30L40 30L40 31L38 31L38 30L37 30L37 31L36 31L36 33L35 33L35 35L31 35L31 34L30 34L30 32L29 32L29 34L28 34L28 33L26 33L26 32L25 32L25 33L26 33L26 34L28 34L28 35L27 35L27 36L26 36L26 35L25 35L25 34L24 34L24 31L25 31L25 30L24 30L24 31L23 31L23 30L22 30L22 33L23 33L23 34L22 34L22 35L21 35L21 34L20 34L20 32L21 32L21 31L20 31L20 30L19 30L19 31L18 31L18 33L17 33L17 35L16 35L16 37L17 37L17 35L18 35L18 34L19 34L19 36L18 36L18 38L16 38L16 39L17 39L17 43L16 43L16 40L15 40L15 39L13 39L13 40L11 40L11 38L10 38L10 37L12 37L12 38L13 38L13 37L12 37L12 35L11 35L11 36L9 36L9 34L8 34L8 33L7 33L7 34L8 34L8 36L5 36L5 37L9 37L9 38L8 38L8 40L6 40L6 41L9 41L9 42L8 42L8 43L9 43L9 44L13 44L13 45L15 45L15 46L16 46L16 47L17 47L17 48L18 48L18 50L20 50L20 47L21 47L21 48L22 48L22 51L24 51L24 49L23 49L23 48L22 48L22 46L20 46L20 45L21 45L21 43L20 43L20 41L21 41L21 39L22 39L22 37L23 37L23 36L22 36L22 35L25 35L25 36L24 36L24 37L26 37L26 38L27 38L27 36L28 36L28 37L29 37L29 36L28 36L28 35L31 35L31 36L30 36L30 40L31 40L31 38L34 38L34 37L35 37L35 38L36 38L36 37L37 37L37 38L38 38L38 37L37 37L37 36L38 36L38 35L39 35L39 34L38 34L38 33L39 33L39 32L40 32L40 34L42 34L42 33L41 33L41 32L40 32L40 31L42 31L42 28L43 28L43 27L41 27L41 26L42 26L42 25L43 25L43 24L44 24L44 23L45 23L45 22L44 22L44 21L45 21L45 19L44 19L44 17L45 17L45 18L46 18L46 17L45 17L45 16L44 16L44 13L45 13L45 15L46 15L46 13L47 13L47 14L48 14L48 11L46 11L46 13L45 13L45 12L44 12L44 13L43 13L43 16L44 16L44 17L43 17L43 18L42 18L42 17L41 17L41 15L42 15L42 12L43 12L43 11L44 11L44 10L42 10L42 9L41 9L41 8ZM1 9L1 11L2 11L2 12L3 12L3 13L2 13L2 14L3 14L3 15L4 15L4 14L3 14L3 13L5 13L5 14L7 14L7 13L6 13L6 12L7 12L7 11L8 11L8 10L7 10L7 11L5 11L5 12L4 12L4 10L3 10L3 11L2 11L2 9ZM41 10L41 12L42 12L42 10ZM37 12L37 13L38 13L38 15L37 15L37 16L38 16L38 18L40 18L40 19L39 19L39 21L38 21L38 20L37 20L37 21L36 21L36 22L37 22L37 21L38 21L38 22L39 22L39 23L41 23L41 25L40 25L40 26L39 26L39 27L40 27L40 28L41 28L41 27L40 27L40 26L41 26L41 25L42 25L42 23L41 23L41 22L40 22L40 19L41 19L41 20L42 20L42 22L43 22L43 23L44 23L44 22L43 22L43 21L44 21L44 19L43 19L43 20L42 20L42 19L41 19L41 18L40 18L40 14L41 14L41 13L40 13L40 12ZM34 13L34 15L35 15L35 17L34 17L34 18L33 18L33 17L32 17L32 18L33 18L33 19L34 19L34 18L36 18L36 19L37 19L37 18L36 18L36 14L35 14L35 13ZM39 13L39 14L40 14L40 13ZM15 14L15 15L14 15L14 17L15 17L15 15L17 15L17 14ZM51 14L51 15L50 15L50 16L51 16L51 15L52 15L52 14ZM4 16L4 17L3 17L3 18L4 18L4 17L5 17L5 16ZM7 17L7 18L8 18L8 17ZM26 17L26 18L27 18L27 17ZM14 19L14 20L16 20L16 19ZM20 19L20 21L21 21L21 22L20 22L20 23L21 23L21 22L22 22L22 21L21 21L21 19ZM27 19L27 20L28 20L28 19ZM53 19L53 20L52 20L52 22L51 22L51 23L52 23L52 22L55 22L55 21L54 21L54 19ZM24 22L24 23L25 23L25 22ZM1 23L1 24L2 24L2 23ZM12 23L12 24L13 24L13 23ZM53 23L53 24L54 24L54 25L55 25L55 24L54 24L54 23ZM6 24L6 25L8 25L8 24ZM18 24L18 25L17 25L17 26L16 26L16 27L15 27L15 28L17 28L17 26L18 26L18 25L19 25L19 24ZM23 24L23 25L24 25L24 26L23 26L23 27L22 27L22 28L23 28L23 27L24 27L24 26L25 26L25 25L24 25L24 24ZM1 25L1 28L2 28L2 25ZM47 25L47 26L48 26L48 25ZM3 27L3 28L4 28L4 27ZM5 27L5 30L8 30L8 27ZM18 27L18 28L20 28L20 27ZM27 27L27 30L30 30L30 27ZM49 27L49 30L52 30L52 27ZM54 27L54 28L53 28L53 31L54 31L54 30L55 30L55 31L56 31L56 30L55 30L55 29L56 29L56 28L55 28L55 27ZM6 28L6 29L7 29L7 28ZM28 28L28 29L29 29L29 28ZM50 28L50 29L51 29L51 28ZM11 29L11 30L12 30L12 29ZM14 29L14 30L13 30L13 31L14 31L14 32L16 32L16 31L17 31L17 30L15 30L15 29ZM14 30L14 31L15 31L15 30ZM19 31L19 32L20 32L20 31ZM37 31L37 32L38 32L38 31ZM49 31L49 32L50 32L50 31ZM32 32L32 33L33 33L33 34L34 34L34 32ZM36 33L36 35L35 35L35 37L36 37L36 35L38 35L38 34L37 34L37 33ZM49 33L49 36L48 36L48 35L46 35L46 36L45 36L45 37L46 37L46 38L47 38L47 40L45 40L45 41L46 41L46 42L47 42L47 43L48 43L48 42L49 42L49 44L48 44L48 45L47 45L47 44L46 44L46 47L48 47L48 45L49 45L49 48L51 48L51 47L50 47L50 46L51 46L51 45L50 45L50 42L49 42L49 41L51 41L51 40L48 40L48 37L50 37L50 33ZM20 35L20 36L21 36L21 37L22 37L22 36L21 36L21 35ZM31 36L31 37L32 37L32 36ZM33 36L33 37L34 37L34 36ZM46 36L46 37L48 37L48 36ZM53 36L53 37L52 37L52 38L53 38L53 37L54 37L54 38L55 38L55 37L54 37L54 36ZM9 38L9 39L10 39L10 38ZM20 38L20 39L21 39L21 38ZM24 38L24 39L25 39L25 38ZM28 38L28 39L29 39L29 38ZM18 39L18 40L19 40L19 39ZM26 39L26 40L25 40L25 41L26 41L26 42L25 42L25 44L24 44L24 40L22 40L22 41L23 41L23 43L22 43L22 44L24 44L24 45L23 45L23 47L24 47L24 45L26 45L26 46L25 46L25 48L26 48L26 46L28 46L28 47L29 47L29 46L28 46L28 44L29 44L29 45L30 45L30 47L32 47L32 46L31 46L31 45L30 45L30 43L31 43L31 42L30 42L30 43L28 43L28 41L29 41L29 40L27 40L27 39ZM34 39L34 41L35 41L35 39ZM9 40L9 41L10 41L10 40ZM14 40L14 41L13 41L13 42L14 42L14 44L15 44L15 45L16 45L16 46L17 46L17 47L18 47L18 46L19 46L19 47L20 47L20 46L19 46L19 45L20 45L20 43L18 43L18 44L19 44L19 45L18 45L18 46L17 46L17 45L16 45L16 43L15 43L15 40ZM42 40L42 42L43 42L43 40ZM47 40L47 41L48 41L48 40ZM52 40L52 44L53 44L53 40ZM4 43L4 44L5 44L5 43ZM37 43L37 44L36 44L36 45L37 45L37 46L38 46L38 45L37 45L37 44L39 44L39 43ZM6 44L6 45L8 45L8 44ZM52 45L52 48L53 48L53 49L54 49L54 50L53 50L53 51L54 51L54 52L55 52L55 49L54 49L54 48L53 48L53 45ZM40 46L40 47L41 47L41 46ZM45 48L45 49L46 49L46 50L47 50L47 48ZM27 49L27 52L30 52L30 49ZM40 49L40 51L41 51L41 49ZM49 49L49 52L52 52L52 49ZM14 50L14 51L15 51L15 50ZM16 50L16 51L17 51L17 50ZM28 50L28 51L29 51L29 50ZM50 50L50 51L51 51L51 50ZM47 51L47 52L48 52L48 51ZM41 52L41 53L42 53L42 54L43 54L43 55L44 55L44 56L45 56L45 55L44 55L44 52L43 52L43 53L42 53L42 52ZM45 52L45 53L46 53L46 54L47 54L47 55L46 55L46 56L49 56L49 55L48 55L48 54L49 54L49 53L46 53L46 52ZM20 54L20 55L21 55L21 54ZM24 54L24 55L25 55L25 54ZM13 55L13 56L14 56L14 55ZM18 56L18 57L19 57L19 56ZM36 56L36 57L37 57L37 56ZM56 56L56 57L57 57L57 56ZM0 0L0 7L7 7L7 0ZM1 1L1 6L6 6L6 1ZM2 2L2 5L5 5L5 2ZM50 0L50 7L57 7L57 0ZM51 1L51 6L56 6L56 1ZM52 2L52 5L55 5L55 2ZM0 50L0 57L7 57L7 50ZM1 51L1 56L6 56L6 51ZM2 52L2 55L5 55L5 52Z" fill="#000000"/></g></g></svg>
