<?xml version="1.0" encoding="UTF-8"?>
<svg xmlns="http://www.w3.org/2000/svg" version="1.1" width="300" height="300" viewBox="0 0 300 300"><rect x="0" y="0" width="300" height="300" fill="#fefefe"/><g transform="scale(4.615)"><g transform="translate(4,4)"><path fill-rule="evenodd" d="M8 0L8 2L9 2L9 3L11 3L11 6L10 6L10 7L9 7L9 4L8 4L8 9L7 9L7 8L5 8L5 10L3 10L3 11L2 11L2 12L1 12L1 11L0 11L0 14L1 14L1 15L0 15L0 17L1 17L1 18L0 18L0 19L4 19L4 20L6 20L6 21L5 21L5 22L4 22L4 21L3 21L3 20L1 20L1 21L0 21L0 22L4 22L4 24L3 24L3 25L2 25L2 26L0 26L0 27L1 27L1 28L0 28L0 29L1 29L1 28L3 28L3 27L4 27L4 29L2 29L2 30L0 30L0 31L1 31L1 32L0 32L0 36L1 36L1 37L0 37L0 42L1 42L1 41L2 41L2 40L4 40L4 41L5 41L5 40L6 40L6 41L7 41L7 42L6 42L6 43L8 43L8 44L6 44L6 45L5 45L5 44L4 44L4 43L5 43L5 42L2 42L2 43L0 43L0 45L3 45L3 46L2 46L2 47L1 47L1 46L0 46L0 48L5 48L5 47L8 47L8 48L6 48L6 49L8 49L8 50L9 50L9 49L8 49L8 48L11 48L11 47L12 47L12 48L13 48L13 49L10 49L10 51L8 51L8 52L10 52L10 53L9 53L9 54L8 54L8 57L9 57L9 55L11 55L11 54L13 54L13 55L12 55L12 56L13 56L13 57L15 57L15 56L16 56L16 57L17 57L17 56L18 56L18 57L21 57L21 56L22 56L22 57L24 57L24 56L25 56L25 55L26 55L26 57L28 57L28 55L29 55L29 57L33 57L33 55L30 55L30 54L31 54L31 53L32 53L32 54L34 54L34 57L35 57L35 55L37 55L37 54L36 54L36 53L37 53L37 51L38 51L38 53L39 53L39 57L41 57L41 56L42 56L42 57L43 57L43 54L42 54L42 53L43 53L43 52L44 52L44 55L45 55L45 56L44 56L44 57L48 57L48 56L49 56L49 57L50 57L50 55L49 55L49 54L52 54L52 55L53 55L53 56L51 56L51 57L54 57L54 53L57 53L57 50L56 50L56 47L57 47L57 44L56 44L56 47L55 47L55 50L56 50L56 52L54 52L54 51L53 51L53 50L54 50L54 46L55 46L55 45L54 45L54 46L51 46L51 45L50 45L50 44L52 44L52 40L54 40L54 41L53 41L53 44L54 44L54 43L55 43L55 42L56 42L56 43L57 43L57 42L56 42L56 41L57 41L57 40L54 40L54 39L52 39L52 37L53 37L53 38L54 38L54 37L55 37L55 38L57 38L57 34L56 34L56 31L57 31L57 29L56 29L56 28L57 28L57 24L56 24L56 23L57 23L57 13L56 13L56 15L55 15L55 13L54 13L54 15L52 15L52 14L53 14L53 12L54 12L54 11L55 11L55 9L57 9L57 8L55 8L55 9L54 9L54 10L53 10L53 8L49 8L49 10L48 10L48 7L49 7L49 6L48 6L48 7L47 7L47 5L48 5L48 0L42 0L42 1L41 1L41 0L38 0L38 2L37 2L37 1L35 1L35 0L34 0L34 2L33 2L33 6L32 6L32 7L33 7L33 6L34 6L34 8L32 8L32 9L31 9L31 5L32 5L32 2L31 2L31 0L30 0L30 2L31 2L31 4L30 4L30 3L29 3L29 2L28 2L28 1L29 1L29 0L28 0L28 1L27 1L27 0L26 0L26 1L25 1L25 0L24 0L24 1L23 1L23 0L19 0L19 1L17 1L17 0L16 0L16 2L15 2L15 0L14 0L14 3L12 3L12 2L13 2L13 0L12 0L12 2L11 2L11 1L9 1L9 0ZM32 0L32 1L33 1L33 0ZM20 1L20 3L18 3L18 2L17 2L17 3L16 3L16 4L17 4L17 3L18 3L18 5L19 5L19 7L20 7L20 5L21 5L21 3L22 3L22 4L23 4L23 3L22 3L22 2L21 2L21 1ZM24 1L24 4L25 4L25 1ZM39 1L39 2L38 2L38 3L39 3L39 2L40 2L40 4L39 4L39 5L38 5L38 4L37 4L37 2L35 2L35 3L36 3L36 4L35 4L35 9L34 9L34 10L33 10L33 9L32 9L32 11L31 11L31 12L30 12L30 11L29 11L29 12L30 12L30 13L29 13L29 15L28 15L28 14L27 14L27 15L26 15L26 16L25 16L25 12L24 12L24 15L23 15L23 12L22 12L22 11L24 11L24 10L25 10L25 11L26 11L26 13L27 13L27 12L28 12L28 10L29 10L29 9L28 9L28 10L25 10L25 9L26 9L26 5L24 5L24 6L23 6L23 5L22 5L22 6L21 6L21 7L22 7L22 6L23 6L23 8L25 8L25 9L24 9L24 10L23 10L23 9L22 9L22 8L21 8L21 9L20 9L20 10L19 10L19 9L18 9L18 8L17 8L17 7L18 7L18 6L17 6L17 5L16 5L16 6L15 6L15 8L16 8L16 11L15 11L15 9L14 9L14 8L11 8L11 9L10 9L10 10L9 10L9 12L8 12L8 11L6 11L6 12L4 12L4 13L1 13L1 14L3 14L3 15L2 15L2 16L1 16L1 17L2 17L2 16L3 16L3 15L4 15L4 19L6 19L6 20L7 20L7 19L6 19L6 18L7 18L7 17L8 17L8 18L9 18L9 19L10 19L10 20L9 20L9 23L8 23L8 21L6 21L6 22L7 22L7 23L5 23L5 24L4 24L4 25L5 25L5 24L7 24L7 23L8 23L8 26L10 26L10 25L11 25L11 24L12 24L12 25L13 25L13 26L11 26L11 27L9 27L9 33L8 33L8 31L6 31L6 32L5 32L5 31L4 31L4 30L2 30L2 32L1 32L1 33L2 33L2 32L3 32L3 33L4 33L4 32L5 32L5 33L6 33L6 34L5 34L5 35L4 35L4 34L3 34L3 36L2 36L2 35L1 35L1 36L2 36L2 39L1 39L1 40L2 40L2 39L3 39L3 37L4 37L4 36L5 36L5 35L6 35L6 36L7 36L7 37L6 37L6 38L7 38L7 39L6 39L6 40L7 40L7 41L11 41L11 40L9 40L9 38L10 38L10 39L12 39L12 38L13 38L13 39L14 39L14 40L13 40L13 41L12 41L12 45L13 45L13 46L12 46L12 47L13 47L13 48L15 48L15 49L14 49L14 50L13 50L13 51L12 51L12 52L11 52L11 51L10 51L10 52L11 52L11 53L12 53L12 52L17 52L17 54L16 54L16 55L18 55L18 56L21 56L21 55L23 55L23 53L22 53L22 52L24 52L24 51L25 51L25 54L24 54L24 55L25 55L25 54L26 54L26 55L28 55L28 53L26 53L26 50L25 50L25 49L26 49L26 48L29 48L29 47L30 47L30 48L31 48L31 50L32 50L32 51L31 51L31 52L32 52L32 51L33 51L33 50L32 50L32 47L33 47L33 45L34 45L34 48L33 48L33 49L34 49L34 50L35 50L35 51L37 51L37 49L36 49L36 48L37 48L37 47L38 47L38 51L39 51L39 49L40 49L40 51L41 51L41 52L43 52L43 51L44 51L44 50L43 50L43 49L44 49L44 46L43 46L43 45L44 45L44 44L45 44L45 42L44 42L44 39L43 39L43 38L44 38L44 35L43 35L43 33L42 33L42 31L44 31L44 27L45 27L45 26L44 26L44 27L43 27L43 25L44 25L44 24L45 24L45 25L46 25L46 26L47 26L47 24L46 24L46 23L49 23L49 24L48 24L48 26L49 26L49 24L50 24L50 23L51 23L51 22L52 22L52 24L51 24L51 25L50 25L50 26L53 26L53 25L54 25L54 26L55 26L55 27L54 27L54 28L53 28L53 29L55 29L55 28L56 28L56 24L55 24L55 23L56 23L56 18L55 18L55 19L54 19L54 17L52 17L52 15L51 15L51 14L52 14L52 13L50 13L50 10L52 10L52 9L50 9L50 10L49 10L49 12L48 12L48 14L47 14L47 13L46 13L46 11L48 11L48 10L47 10L47 7L46 7L46 5L47 5L47 3L46 3L46 5L44 5L44 4L45 4L45 2L47 2L47 1L42 1L42 2L40 2L40 1ZM43 2L43 3L41 3L41 4L42 4L42 5L43 5L43 6L42 6L42 7L43 7L43 10L42 10L42 8L40 8L40 7L41 7L41 6L40 6L40 7L39 7L39 6L38 6L38 5L37 5L37 6L36 6L36 10L34 10L34 11L32 11L32 14L31 14L31 16L30 16L30 15L29 15L29 16L30 16L30 17L28 17L28 18L30 18L30 17L33 17L33 18L32 18L32 19L31 19L31 20L32 20L32 21L33 21L33 22L31 22L31 23L29 23L29 22L30 22L30 21L29 21L29 20L30 20L30 19L29 19L29 20L28 20L28 19L27 19L27 16L26 16L26 19L25 19L25 18L24 18L24 16L22 16L22 14L21 14L21 16L20 16L20 13L21 13L21 12L20 12L20 11L19 11L19 10L18 10L18 9L17 9L17 11L16 11L16 12L17 12L17 14L15 14L15 15L13 15L13 13L12 13L12 14L11 14L11 16L14 16L14 17L15 17L15 18L12 18L12 17L11 17L11 18L10 18L10 14L9 14L9 18L10 18L10 19L11 19L11 18L12 18L12 21L13 21L13 24L15 24L15 26L16 26L16 27L15 27L15 28L17 28L17 26L16 26L16 25L17 25L17 23L16 23L16 22L17 22L17 20L16 20L16 17L15 17L15 15L19 15L19 16L18 16L18 18L19 18L19 19L20 19L20 21L21 21L21 22L20 22L20 23L21 23L21 22L22 22L22 26L20 26L20 25L19 25L19 24L18 24L18 25L19 25L19 26L20 26L20 28L19 28L19 27L18 27L18 28L19 28L19 32L17 32L17 31L18 31L18 30L17 30L17 31L16 31L16 30L15 30L15 29L14 29L14 30L12 30L12 31L11 31L11 33L9 33L9 34L10 34L10 36L13 36L13 35L15 35L15 36L14 36L14 37L13 37L13 38L15 38L15 36L16 36L16 37L17 37L17 36L16 36L16 33L17 33L17 34L18 34L18 35L19 35L19 36L18 36L18 37L19 37L19 38L18 38L18 42L17 42L17 43L16 43L16 40L14 40L14 42L15 42L15 43L13 43L13 45L14 45L14 47L15 47L15 48L16 48L16 49L15 49L15 50L14 50L14 51L15 51L15 50L16 50L16 51L17 51L17 50L16 50L16 49L17 49L17 48L16 48L16 47L18 47L18 50L20 50L20 47L19 47L19 46L20 46L20 45L21 45L21 44L20 44L20 43L21 43L21 42L20 42L20 41L21 41L21 39L22 39L22 41L23 41L23 42L24 42L24 41L23 41L23 39L22 39L22 38L21 38L21 36L20 36L20 35L22 35L22 37L23 37L23 35L25 35L25 36L24 36L24 37L26 37L26 38L27 38L27 37L26 37L26 36L28 36L28 37L29 37L29 36L28 36L28 35L31 35L31 36L30 36L30 40L28 40L28 41L27 41L27 40L25 40L25 41L26 41L26 42L25 42L25 44L23 44L23 43L22 43L22 44L23 44L23 48L22 48L22 46L21 46L21 48L22 48L22 50L23 50L23 51L24 51L24 49L23 49L23 48L24 48L24 45L26 45L26 46L25 46L25 47L26 47L26 46L27 46L27 43L28 43L28 44L29 44L29 46L28 46L28 47L29 47L29 46L30 46L30 47L32 47L32 45L33 45L33 44L35 44L35 43L36 43L36 41L37 41L37 42L38 42L38 41L39 41L39 40L40 40L40 42L39 42L39 43L37 43L37 44L36 44L36 45L37 45L37 46L36 46L36 47L37 47L37 46L38 46L38 45L37 45L37 44L39 44L39 47L40 47L40 49L41 49L41 51L43 51L43 50L42 50L42 49L41 49L41 47L42 47L42 45L43 45L43 44L44 44L44 42L42 42L42 41L43 41L43 40L42 40L42 39L41 39L41 35L40 35L40 36L38 36L38 35L39 35L39 34L38 34L38 33L39 33L39 32L40 32L40 34L42 34L42 33L41 33L41 32L40 32L40 31L42 31L42 28L43 28L43 27L41 27L41 26L40 26L40 25L41 25L41 24L42 24L42 25L43 25L43 24L42 24L42 21L43 21L43 22L44 22L44 23L45 23L45 22L46 22L46 21L47 21L47 22L48 22L48 21L49 21L49 20L51 20L51 19L52 19L52 17L51 17L51 18L50 18L50 16L51 16L51 15L50 15L50 13L49 13L49 14L48 14L48 15L46 15L46 13L45 13L45 12L44 12L44 13L43 13L43 16L44 16L44 17L43 17L43 18L42 18L42 17L41 17L41 15L42 15L42 12L43 12L43 10L44 10L44 9L45 9L45 11L46 11L46 7L45 7L45 6L44 6L44 5L43 5L43 4L44 4L44 2ZM14 3L14 4L15 4L15 3ZM26 3L26 4L27 4L27 3ZM28 3L28 4L29 4L29 3ZM13 5L13 7L14 7L14 5ZM27 5L27 8L30 8L30 5ZM11 6L11 7L12 7L12 6ZM16 6L16 7L17 7L17 6ZM24 6L24 7L25 7L25 6ZM28 6L28 7L29 7L29 6ZM37 6L37 8L38 8L38 10L37 10L37 11L38 11L38 10L39 10L39 9L40 9L40 8L38 8L38 6ZM43 6L43 7L44 7L44 6ZM0 8L0 10L2 10L2 9L3 9L3 8ZM6 9L6 10L7 10L7 9ZM11 9L11 10L10 10L10 12L9 12L9 13L10 13L10 12L11 12L11 11L12 11L12 12L13 12L13 9ZM30 9L30 10L31 10L31 9ZM41 10L41 12L42 12L42 10ZM56 10L56 11L57 11L57 10ZM14 11L14 12L15 12L15 11ZM18 11L18 12L19 12L19 11ZM34 11L34 12L35 12L35 13L34 13L34 15L33 15L33 14L32 14L32 15L33 15L33 17L34 17L34 18L36 18L36 19L37 19L37 21L36 21L36 20L35 20L35 19L33 19L33 21L34 21L34 22L35 22L35 23L36 23L36 24L34 24L34 23L33 23L33 24L34 24L34 26L33 26L33 25L32 25L32 23L31 23L31 24L30 24L30 26L31 26L31 25L32 25L32 28L31 28L31 30L32 30L32 32L30 32L30 31L27 31L27 33L26 33L26 32L24 32L24 31L26 31L26 30L25 30L25 25L24 25L24 26L23 26L23 27L22 27L22 28L23 28L23 27L24 27L24 30L23 30L23 29L22 29L22 30L21 30L21 29L20 29L20 31L21 31L21 33L20 33L20 32L19 32L19 33L20 33L20 34L23 34L23 33L22 33L22 30L23 30L23 32L24 32L24 34L26 34L26 35L28 35L28 34L29 34L29 32L30 32L30 34L31 34L31 35L34 35L34 34L35 34L35 33L36 33L36 35L35 35L35 37L34 37L34 36L33 36L33 37L34 37L34 39L33 39L33 38L31 38L31 40L30 40L30 42L29 42L29 41L28 41L28 43L29 43L29 44L30 44L30 45L32 45L32 44L30 44L30 42L31 42L31 43L32 43L32 40L33 40L33 41L34 41L34 42L35 42L35 41L36 41L36 38L37 38L37 37L36 37L36 35L38 35L38 34L37 34L37 33L36 33L36 31L37 31L37 32L38 32L38 31L39 31L39 30L40 30L40 28L41 28L41 27L40 27L40 26L39 26L39 23L41 23L41 22L40 22L40 19L41 19L41 18L40 18L40 15L41 15L41 14L40 14L40 11L39 11L39 12L37 12L37 13L36 13L36 11ZM51 11L51 12L52 12L52 11ZM6 12L6 13L5 13L5 15L7 15L7 16L5 16L5 18L6 18L6 17L7 17L7 16L8 16L8 14L6 14L6 13L7 13L7 12ZM18 13L18 14L19 14L19 13ZM37 13L37 14L36 14L36 18L37 18L37 19L38 19L38 21L37 21L37 22L36 22L36 21L35 21L35 22L36 22L36 23L37 23L37 22L38 22L38 23L39 23L39 22L38 22L38 21L39 21L39 19L40 19L40 18L38 18L38 16L37 16L37 15L38 15L38 13ZM39 14L39 15L40 15L40 14ZM44 14L44 16L46 16L46 15L45 15L45 14ZM34 15L34 17L35 17L35 15ZM49 15L49 16L50 16L50 15ZM54 15L54 16L55 16L55 17L56 17L56 16L55 16L55 15ZM19 16L19 17L20 17L20 18L21 18L21 21L22 21L22 22L23 22L23 21L22 21L22 19L23 19L23 18L21 18L21 17L20 17L20 16ZM47 16L47 17L46 17L46 18L45 18L45 17L44 17L44 19L42 19L42 20L43 20L43 21L44 21L44 22L45 22L45 21L46 21L46 19L47 19L47 21L48 21L48 19L49 19L49 17L48 17L48 16ZM47 17L47 19L48 19L48 17ZM14 19L14 20L15 20L15 19ZM24 19L24 20L25 20L25 19ZM26 19L26 20L27 20L27 22L26 22L26 23L28 23L28 22L29 22L29 21L28 21L28 20L27 20L27 19ZM44 19L44 21L45 21L45 19ZM53 19L53 20L52 20L52 22L54 22L54 23L53 23L53 24L52 24L52 25L53 25L53 24L54 24L54 25L55 25L55 24L54 24L54 23L55 23L55 21L54 21L54 19ZM18 20L18 23L19 23L19 20ZM14 21L14 22L15 22L15 21ZM10 22L10 23L12 23L12 22ZM24 22L24 23L25 23L25 22ZM49 22L49 23L50 23L50 22ZM0 23L0 24L2 24L2 23ZM36 24L36 26L37 26L37 28L36 28L36 29L35 29L35 27L34 27L34 29L33 29L33 28L32 28L32 30L33 30L33 32L32 32L32 34L34 34L34 33L35 33L35 31L34 31L34 29L35 29L35 30L36 30L36 29L37 29L37 28L38 28L38 29L39 29L39 28L40 28L40 27L39 27L39 26L38 26L38 25L37 25L37 24ZM6 25L6 26L7 26L7 25ZM26 25L26 26L28 26L28 25ZM2 26L2 27L3 27L3 26ZM13 26L13 28L14 28L14 26ZM5 27L5 30L8 30L8 27ZM27 27L27 30L30 30L30 27ZM49 27L49 30L52 30L52 27ZM6 28L6 29L7 29L7 28ZM10 28L10 29L12 29L12 28ZM28 28L28 29L29 29L29 28ZM46 28L46 29L45 29L45 30L46 30L46 31L45 31L45 33L46 33L46 36L45 36L45 37L46 37L46 38L47 38L47 40L45 40L45 41L46 41L46 42L47 42L47 44L46 44L46 47L45 47L45 48L46 48L46 50L45 50L45 51L46 51L46 50L47 50L47 47L48 47L48 46L47 46L47 44L48 44L48 45L49 45L49 48L50 48L50 45L49 45L49 44L50 44L50 42L49 42L49 41L51 41L51 40L52 40L52 39L51 39L51 40L50 40L50 37L52 37L52 36L53 36L53 37L54 37L54 36L55 36L55 37L56 37L56 36L55 36L55 35L56 35L56 34L55 34L55 31L56 31L56 30L55 30L55 31L54 31L54 32L53 32L53 31L49 31L49 32L50 32L50 33L49 33L49 34L48 34L48 33L46 33L46 32L47 32L47 30L48 30L48 28ZM50 28L50 29L51 29L51 28ZM37 30L37 31L38 31L38 30ZM13 31L13 33L11 33L11 34L15 34L15 32L16 32L16 31ZM6 32L6 33L7 33L7 34L6 34L6 35L8 35L8 33L7 33L7 32ZM33 32L33 33L34 33L34 32ZM27 33L27 34L28 34L28 33ZM50 33L50 36L49 36L49 35L48 35L48 34L47 34L47 37L48 37L48 40L47 40L47 41L48 41L48 40L49 40L49 37L50 37L50 36L51 36L51 33ZM53 34L53 36L54 36L54 34ZM42 35L42 36L43 36L43 35ZM8 36L8 37L9 37L9 36ZM31 36L31 37L32 37L32 36ZM48 36L48 37L49 37L49 36ZM35 37L35 38L36 38L36 37ZM38 37L38 38L39 38L39 39L40 39L40 40L41 40L41 39L40 39L40 38L39 38L39 37ZM16 38L16 39L17 39L17 38ZM20 38L20 39L21 39L21 38ZM24 38L24 39L25 39L25 38ZM28 38L28 39L29 39L29 38ZM7 39L7 40L8 40L8 39ZM34 39L34 41L35 41L35 39ZM37 39L37 41L38 41L38 39ZM19 40L19 41L20 41L20 40ZM54 41L54 42L55 42L55 41ZM8 42L8 43L9 43L9 47L10 47L10 46L11 46L11 44L10 44L10 43L9 43L9 42ZM2 43L2 44L3 44L3 43ZM15 43L15 45L16 45L16 46L17 46L17 44L16 44L16 43ZM18 43L18 44L19 44L19 43ZM41 43L41 45L40 45L40 47L41 47L41 45L42 45L42 44L43 44L43 43ZM48 43L48 44L49 44L49 43ZM6 45L6 46L7 46L7 45ZM18 45L18 46L19 46L19 45ZM3 46L3 47L5 47L5 46ZM51 47L51 48L52 48L52 47ZM27 49L27 52L30 52L30 49ZM49 49L49 52L52 52L52 49ZM28 50L28 51L29 51L29 50ZM50 50L50 51L51 51L51 50ZM18 51L18 54L19 54L19 51ZM20 51L20 53L21 53L21 52L22 52L22 51ZM47 51L47 52L45 52L45 53L46 53L46 54L47 54L47 55L46 55L46 56L47 56L47 55L48 55L48 54L49 54L49 53L47 53L47 52L48 52L48 51ZM33 52L33 53L34 53L34 54L35 54L35 53L36 53L36 52L35 52L35 53L34 53L34 52ZM39 52L39 53L40 53L40 52ZM14 53L14 54L15 54L15 53ZM20 54L20 55L21 55L21 54ZM40 54L40 55L42 55L42 54ZM55 54L55 55L57 55L57 54ZM36 56L36 57L37 57L37 56ZM56 56L56 57L57 57L57 56ZM0 0L0 7L7 7L7 0ZM1 1L1 6L6 6L6 1ZM2 2L2 5L5 5L5 2ZM50 0L50 7L57 7L57 0ZM51 1L51 6L56 6L56 1ZM52 2L52 5L55 5L55 2ZM0 50L0 57L7 57L7 50ZM1 51L1 56L6 56L6 51ZM2 52L2 55L5 55L5 52Z" fill="#000000"/></g></g></svg>
