<?xml version="1.0" encoding="UTF-8"?>
<svg xmlns="http://www.w3.org/2000/svg" version="1.1" width="300" height="300" viewBox="0 0 300 300"><rect x="0" y="0" width="300" height="300" fill="#fefefe"/><g transform="scale(4.615)"><g transform="translate(4,4)"><path fill-rule="evenodd" d="M9 0L9 1L8 1L8 2L10 2L10 1L11 1L11 0ZM14 0L14 2L13 2L13 1L12 1L12 2L13 2L13 4L14 4L14 2L15 2L15 0ZM17 0L17 1L16 1L16 2L18 2L18 3L17 3L17 6L16 6L16 7L15 7L15 5L16 5L16 4L15 4L15 5L14 5L14 7L13 7L13 5L12 5L12 4L10 4L10 3L8 3L8 4L10 4L10 7L9 7L9 5L8 5L8 7L9 7L9 8L6 8L6 9L7 9L7 10L4 10L4 9L5 9L5 8L0 8L0 9L3 9L3 10L1 10L1 11L0 11L0 16L2 16L2 18L3 18L3 19L5 19L5 20L3 20L3 21L2 21L2 23L3 23L3 22L4 22L4 23L5 23L5 22L6 22L6 23L7 23L7 22L8 22L8 21L7 21L7 20L6 20L6 19L7 19L7 18L8 18L8 17L12 17L12 15L13 15L13 14L12 14L12 13L15 13L15 14L14 14L14 16L13 16L13 17L14 17L14 18L15 18L15 21L16 21L16 22L14 22L14 21L13 21L13 20L14 20L14 19L13 19L13 18L12 18L12 19L13 19L13 20L11 20L11 21L10 21L10 25L16 25L16 24L17 24L17 27L16 27L16 29L15 29L15 27L14 27L14 26L13 26L13 27L12 27L12 26L11 26L11 27L12 27L12 28L10 28L10 26L8 26L8 25L7 25L7 24L6 24L6 25L7 25L7 26L5 26L5 25L4 25L4 24L2 24L2 25L1 25L1 22L0 22L0 25L1 25L1 26L2 26L2 25L3 25L3 26L4 26L4 28L3 28L3 27L2 27L2 28L1 28L1 29L0 29L0 30L1 30L1 32L2 32L2 29L4 29L4 30L3 30L3 31L9 31L9 32L11 32L11 33L13 33L13 34L15 34L15 33L16 33L16 32L17 32L17 36L18 36L18 37L17 37L17 38L18 38L18 39L17 39L17 40L16 40L16 39L15 39L15 38L16 38L16 37L15 37L15 35L13 35L13 36L14 36L14 37L15 37L15 38L14 38L14 39L15 39L15 40L13 40L13 41L14 41L14 42L12 42L12 43L11 43L11 46L10 46L10 42L9 42L9 46L6 46L6 45L8 45L8 43L7 43L7 42L6 42L6 43L5 43L5 45L4 45L4 43L3 43L3 42L5 42L5 41L4 41L4 40L6 40L6 41L9 41L9 40L10 40L10 41L11 41L11 40L12 40L12 39L13 39L13 38L11 38L11 40L10 40L10 39L9 39L9 37L11 37L11 36L12 36L12 35L11 35L11 34L9 34L9 33L8 33L8 34L6 34L6 33L7 33L7 32L5 32L5 33L4 33L4 35L3 35L3 33L2 33L2 34L1 34L1 33L0 33L0 34L1 34L1 35L0 35L0 36L4 36L4 37L3 37L3 39L4 39L4 40L3 40L3 41L0 41L0 48L5 48L5 47L9 47L9 46L10 46L10 48L8 48L8 51L9 51L9 52L8 52L8 57L9 57L9 53L10 53L10 55L11 55L11 57L12 57L12 56L13 56L13 57L16 57L16 56L17 56L17 57L19 57L19 55L20 55L20 54L19 54L19 55L17 55L17 53L20 53L20 52L23 52L23 51L21 51L21 50L25 50L25 51L26 51L26 52L24 52L24 53L23 53L23 54L22 54L22 53L21 53L21 54L22 54L22 55L21 55L21 56L23 56L23 57L26 57L26 55L27 55L27 54L30 54L30 53L31 53L31 49L32 49L32 48L31 48L31 47L32 47L32 46L33 46L33 47L34 47L34 48L33 48L33 49L36 49L36 50L34 50L34 51L35 51L35 54L33 54L33 53L34 53L34 52L33 52L33 51L32 51L32 52L33 52L33 53L32 53L32 54L31 54L31 56L30 56L30 55L29 55L29 56L27 56L27 57L29 57L29 56L30 56L30 57L31 57L31 56L35 56L35 57L39 57L39 56L40 56L40 55L44 55L44 54L45 54L45 53L47 53L47 51L46 51L46 52L45 52L45 50L44 50L44 51L43 51L43 49L44 49L44 48L45 48L45 47L46 47L46 49L47 49L47 50L48 50L48 54L47 54L47 55L49 55L49 56L48 56L48 57L49 57L49 56L50 56L50 57L52 57L52 55L51 55L51 53L52 53L52 54L53 54L53 55L54 55L54 56L53 56L53 57L54 57L54 56L55 56L55 57L56 57L56 56L55 56L55 54L54 54L54 53L55 53L55 52L56 52L56 50L55 50L55 49L53 49L53 48L56 48L56 49L57 49L57 48L56 48L56 46L57 46L57 44L56 44L56 41L55 41L55 39L57 39L57 37L56 37L56 34L55 34L55 32L56 32L56 33L57 33L57 32L56 32L56 30L57 30L57 28L56 28L56 27L55 27L55 26L57 26L57 25L56 25L56 22L57 22L57 19L56 19L56 18L53 18L53 17L52 17L52 19L49 19L49 18L50 18L50 17L51 17L51 16L50 16L50 15L53 15L53 16L55 16L55 17L56 17L56 16L57 16L57 15L56 15L56 14L57 14L57 13L56 13L56 14L54 14L54 12L56 12L56 10L54 10L54 11L53 11L53 9L54 9L54 8L53 8L53 9L52 9L52 8L51 8L51 10L52 10L52 11L50 11L50 12L49 12L49 13L47 13L47 14L45 14L45 13L44 13L44 11L45 11L45 12L47 12L47 10L48 10L48 11L49 11L49 10L50 10L50 8L47 8L47 5L48 5L48 0L46 0L46 1L45 1L45 2L44 2L44 3L41 3L41 2L43 2L43 0L41 0L41 1L40 1L40 0L39 0L39 1L38 1L38 0L37 0L37 1L38 1L38 2L39 2L39 3L41 3L41 4L40 4L40 5L39 5L39 6L38 6L38 7L37 7L37 5L38 5L38 4L37 4L37 3L36 3L36 0L35 0L35 1L33 1L33 0L32 0L32 3L31 3L31 2L28 2L28 1L31 1L31 0L27 0L27 1L26 1L26 0L23 0L23 2L20 2L20 0ZM21 0L21 1L22 1L22 0ZM25 1L25 2L23 2L23 3L19 3L19 4L21 4L21 7L22 7L22 8L19 8L19 7L20 7L20 5L18 5L18 6L17 6L17 7L16 7L16 8L19 8L19 9L20 9L20 12L19 12L19 13L20 13L20 14L21 14L21 13L22 13L22 14L23 14L23 13L22 13L22 12L21 12L21 11L22 11L22 10L23 10L23 9L24 9L24 6L23 6L23 5L24 5L24 4L23 4L23 3L26 3L26 4L25 4L25 8L26 8L26 4L27 4L27 3L28 3L28 4L29 4L29 3L28 3L28 2L26 2L26 1ZM46 1L46 2L47 2L47 1ZM34 2L34 3L32 3L32 4L31 4L31 3L30 3L30 4L31 4L31 8L32 8L32 10L31 10L31 11L29 11L29 10L28 10L28 9L27 9L27 11L26 11L26 12L25 12L25 11L24 11L24 12L25 12L25 15L21 15L21 16L19 16L19 15L17 15L17 13L18 13L18 12L17 12L17 13L16 13L16 11L15 11L15 13L16 13L16 16L14 16L14 17L15 17L15 18L18 18L18 17L17 17L17 16L19 16L19 17L20 17L20 21L17 21L17 20L16 20L16 21L17 21L17 22L20 22L20 23L19 23L19 24L21 24L21 25L19 25L19 26L18 26L18 27L17 27L17 28L18 28L18 29L16 29L16 30L18 30L18 29L20 29L20 30L19 30L19 31L17 31L17 32L19 32L19 31L23 31L23 28L25 28L25 29L26 29L26 28L25 28L25 27L26 27L26 26L27 26L27 25L28 25L28 26L29 26L29 25L31 25L31 24L32 24L32 26L31 26L31 28L32 28L32 29L31 29L31 31L29 31L29 33L28 33L28 31L27 31L27 33L26 33L26 31L25 31L25 30L24 30L24 31L25 31L25 32L20 32L20 34L19 34L19 33L18 33L18 34L19 34L19 35L18 35L18 36L19 36L19 37L18 37L18 38L19 38L19 39L20 39L20 38L19 38L19 37L21 37L21 38L24 38L24 37L23 37L23 36L24 36L24 34L23 34L23 33L25 33L25 35L26 35L26 34L27 34L27 36L26 36L26 37L25 37L25 38L27 38L27 39L25 39L25 40L24 40L24 39L23 39L23 40L22 40L22 39L21 39L21 40L20 40L20 42L21 42L21 43L20 43L20 44L19 44L19 45L20 45L20 46L17 46L17 45L18 45L18 44L17 44L17 45L16 45L16 43L15 43L15 42L17 42L17 43L18 43L18 42L19 42L19 41L18 41L18 42L17 42L17 41L15 41L15 42L14 42L14 44L13 44L13 45L12 45L12 47L11 47L11 48L12 48L12 49L11 49L11 50L9 50L9 51L11 51L11 52L10 52L10 53L11 53L11 52L12 52L12 54L11 54L11 55L13 55L13 53L14 53L14 56L16 56L16 55L15 55L15 54L16 54L16 53L17 53L17 51L15 51L15 52L16 52L16 53L14 53L14 52L13 52L13 51L14 51L14 49L15 49L15 50L17 50L17 48L18 48L18 47L20 47L20 48L19 48L19 49L20 49L20 50L19 50L19 52L20 52L20 50L21 50L21 49L23 49L23 47L20 47L20 46L21 46L21 45L22 45L22 46L23 46L23 45L22 45L22 44L21 44L21 43L22 43L22 42L23 42L23 44L24 44L24 45L25 45L25 46L24 46L24 47L25 47L25 48L24 48L24 49L25 49L25 48L30 48L30 47L26 47L26 45L27 45L27 46L29 46L29 45L33 45L33 46L35 46L35 48L36 48L36 45L34 45L34 43L35 43L35 44L36 44L36 43L37 43L37 42L35 42L35 40L38 40L38 42L39 42L39 43L41 43L41 44L39 44L39 45L38 45L38 46L41 46L41 48L39 48L39 47L38 47L38 48L37 48L37 49L38 49L38 50L36 50L36 52L37 52L37 51L38 51L38 53L37 53L37 54L40 54L40 53L42 53L42 50L41 50L41 48L42 48L42 49L43 49L43 48L44 48L44 47L45 47L45 46L48 46L48 44L50 44L50 45L49 45L49 46L50 46L50 47L48 47L48 48L47 48L47 49L48 49L48 48L50 48L50 47L51 47L51 48L52 48L52 47L55 47L55 46L56 46L56 45L55 45L55 44L54 44L54 45L55 45L55 46L53 46L53 43L54 43L54 42L53 42L53 41L54 41L54 40L53 40L53 39L55 39L55 37L53 37L53 35L55 35L55 34L54 34L54 32L53 32L53 31L54 31L54 30L53 30L53 31L52 31L52 32L51 32L51 31L50 31L50 32L49 32L49 31L48 31L48 29L46 29L46 30L47 30L47 31L46 31L46 33L45 33L45 32L43 32L43 30L41 30L41 31L39 31L39 32L38 32L38 30L39 30L39 29L43 29L43 27L44 27L44 25L45 25L45 26L46 26L46 27L45 27L45 28L44 28L44 30L45 30L45 28L46 28L46 27L47 27L47 28L48 28L48 27L47 27L47 24L49 24L49 25L50 25L50 26L51 26L51 25L55 25L55 24L53 24L53 23L55 23L55 22L56 22L56 19L55 19L55 20L53 20L53 19L52 19L52 20L51 20L51 21L49 21L49 20L47 20L47 19L48 19L48 18L47 18L47 17L45 17L45 15L44 15L44 13L43 13L43 11L42 11L42 10L41 10L41 9L42 9L42 8L41 8L41 7L42 7L42 6L43 6L43 8L44 8L44 9L45 9L45 11L46 11L46 10L47 10L47 8L45 8L45 7L46 7L46 5L47 5L47 3L44 3L44 6L43 6L43 5L42 5L42 6L41 6L41 5L40 5L40 6L39 6L39 7L40 7L40 8L39 8L39 9L38 9L38 8L37 8L37 7L36 7L36 5L37 5L37 4L36 4L36 5L35 5L35 2ZM32 4L32 5L34 5L34 7L33 7L33 6L32 6L32 7L33 7L33 9L34 9L34 8L35 8L35 9L37 9L37 10L36 10L36 11L35 11L35 13L36 13L36 14L33 14L33 13L34 13L34 12L33 12L33 13L32 13L32 12L31 12L31 13L30 13L30 14L29 14L29 13L28 13L28 12L29 12L29 11L27 11L27 12L26 12L26 13L28 13L28 14L29 14L29 16L28 16L28 15L27 15L27 14L26 14L26 15L25 15L25 17L22 17L22 16L21 16L21 17L22 17L22 18L21 18L21 20L24 20L24 21L22 21L22 22L21 22L21 24L24 24L24 25L21 25L21 27L22 27L22 26L23 26L23 27L24 27L24 26L26 26L26 25L25 25L25 24L31 24L31 23L30 23L30 22L31 22L31 21L32 21L32 20L33 20L33 21L34 21L34 19L35 19L35 23L34 23L34 22L33 22L33 23L32 23L32 24L33 24L33 25L37 25L37 26L38 26L38 25L40 25L40 26L39 26L39 27L36 27L36 26L34 26L34 27L33 27L33 26L32 26L32 27L33 27L33 28L35 28L35 30L33 30L33 29L32 29L32 30L33 30L33 31L32 31L32 32L31 32L31 33L29 33L29 34L30 34L30 36L29 36L29 37L31 37L31 38L29 38L29 39L33 39L33 40L35 40L35 39L38 39L38 40L41 40L41 39L42 39L42 40L43 40L43 41L41 41L41 43L42 43L42 44L41 44L41 46L43 46L43 47L42 47L42 48L43 48L43 47L44 47L44 46L43 46L43 45L44 45L44 44L43 44L43 41L44 41L44 43L46 43L46 44L45 44L45 45L47 45L47 44L48 44L48 43L50 43L50 44L51 44L51 43L53 43L53 42L51 42L51 41L53 41L53 40L51 40L51 39L52 39L52 38L51 38L51 39L49 39L49 41L48 41L48 42L47 42L47 43L46 43L46 42L45 42L45 41L47 41L47 39L48 39L48 38L47 38L47 39L46 39L46 38L45 38L45 37L44 37L44 36L45 36L45 35L46 35L46 34L45 34L45 33L43 33L43 32L41 32L41 33L39 33L39 34L40 34L40 35L39 35L39 36L38 36L38 33L37 33L37 32L35 32L35 34L32 34L32 32L33 32L33 33L34 33L34 32L33 32L33 31L36 31L36 30L37 30L37 29L38 29L38 28L40 28L40 27L41 27L41 28L42 28L42 26L43 26L43 25L44 25L44 24L43 24L43 23L44 23L44 20L46 20L46 19L47 19L47 18L46 18L46 19L45 19L45 18L44 18L44 15L42 15L42 16L41 16L41 14L43 14L43 13L41 13L41 14L40 14L40 15L39 15L39 14L38 14L38 13L40 13L40 12L41 12L41 11L40 11L40 10L39 10L39 11L38 11L38 9L37 9L37 8L35 8L35 5L34 5L34 4ZM45 4L45 5L46 5L46 4ZM27 5L27 8L30 8L30 5ZM11 6L11 7L12 7L12 10L11 10L11 8L10 8L10 9L8 9L8 10L7 10L7 11L5 11L5 12L7 12L7 13L6 13L6 14L9 14L9 15L8 15L8 16L7 16L7 15L5 15L5 13L4 13L4 14L3 14L3 11L2 11L2 12L1 12L1 15L2 15L2 16L3 16L3 15L4 15L4 16L7 16L7 17L5 17L5 18L7 18L7 17L8 17L8 16L9 16L9 15L10 15L10 14L11 14L11 15L12 15L12 14L11 14L11 13L10 13L10 12L11 12L11 11L12 11L12 10L13 10L13 7L12 7L12 6ZM18 6L18 7L19 7L19 6ZM22 6L22 7L23 7L23 6ZM28 6L28 7L29 7L29 6ZM40 6L40 7L41 7L41 6ZM44 6L44 7L45 7L45 6ZM48 6L48 7L49 7L49 6ZM14 8L14 10L17 10L17 11L18 11L18 9L15 9L15 8ZM55 8L55 9L56 9L56 8ZM8 10L8 11L7 11L7 12L8 12L8 11L9 11L9 12L10 12L10 11L11 11L11 10ZM32 10L32 11L33 11L33 10ZM13 11L13 12L14 12L14 11ZM39 11L39 12L40 12L40 11ZM20 12L20 13L21 13L21 12ZM50 12L50 14L49 14L49 15L48 15L48 16L49 16L49 15L50 15L50 14L51 14L51 12ZM52 12L52 13L53 13L53 12ZM9 13L9 14L10 14L10 13ZM30 14L30 15L31 15L31 14ZM37 14L37 15L35 15L35 16L32 16L32 17L31 17L31 18L30 18L30 19L31 19L31 18L32 18L32 19L33 19L33 18L35 18L35 19L36 19L36 20L37 20L37 19L39 19L39 17L41 17L41 16L39 16L39 15L38 15L38 14ZM53 14L53 15L54 15L54 14ZM26 15L26 17L25 17L25 19L26 19L26 21L27 21L27 23L28 23L28 22L29 22L29 21L30 21L30 20L29 20L29 19L28 19L28 18L27 18L27 19L26 19L26 17L28 17L28 16L27 16L27 15ZM35 16L35 17L37 17L37 18L38 18L38 17L39 17L39 16L38 16L38 17L37 17L37 16ZM42 16L42 17L43 17L43 16ZM0 17L0 18L1 18L1 17ZM9 18L9 19L10 19L10 18ZM23 18L23 19L24 19L24 18ZM41 18L41 20L39 20L39 21L38 21L38 23L37 23L37 24L40 24L40 25L41 25L41 26L42 26L42 25L41 25L41 24L42 24L42 23L43 23L43 22L41 22L41 24L40 24L40 22L39 22L39 21L43 21L43 20L44 20L44 18L43 18L43 19L42 19L42 18ZM0 19L0 21L1 21L1 20L2 20L2 19ZM18 19L18 20L19 20L19 19ZM6 21L6 22L7 22L7 21ZM11 21L11 24L12 24L12 23L13 23L13 24L14 24L14 22L13 22L13 21ZM24 21L24 22L22 22L22 23L24 23L24 24L25 24L25 23L26 23L26 22L25 22L25 21ZM47 21L47 22L46 22L46 23L45 23L45 24L47 24L47 23L49 23L49 24L50 24L50 25L51 25L51 24L52 24L52 23L53 23L53 22L54 22L54 21L51 21L51 22L50 22L50 23L49 23L49 21ZM8 23L8 24L9 24L9 23ZM15 23L15 24L16 24L16 23ZM17 23L17 24L18 24L18 23ZM50 23L50 24L51 24L51 23ZM19 26L19 27L20 27L20 26ZM53 26L53 27L54 27L54 26ZM5 27L5 30L8 30L8 27ZM13 27L13 28L14 28L14 27ZM27 27L27 30L30 30L30 27ZM35 27L35 28L36 28L36 27ZM49 27L49 30L52 30L52 27ZM6 28L6 29L7 29L7 28ZM9 28L9 30L10 30L10 31L11 31L11 32L12 32L12 31L13 31L13 32L14 32L14 33L15 33L15 32L14 32L14 31L13 31L13 29L12 29L12 30L10 30L10 28ZM21 28L21 29L22 29L22 28ZM28 28L28 29L29 29L29 28ZM50 28L50 29L51 29L51 28ZM54 28L54 29L56 29L56 28ZM47 31L47 32L48 32L48 33L49 33L49 32L48 32L48 31ZM50 32L50 34L48 34L48 35L50 35L50 36L49 36L49 38L50 38L50 36L51 36L51 37L52 37L52 35L53 35L53 34L52 34L52 33L53 33L53 32L52 32L52 33L51 33L51 32ZM21 33L21 34L20 34L20 35L21 35L21 36L22 36L22 35L21 35L21 34L22 34L22 33ZM31 34L31 35L32 35L32 34ZM35 34L35 36L37 36L37 34ZM42 34L42 35L41 35L41 36L40 36L40 37L38 37L38 39L41 39L41 38L42 38L42 39L43 39L43 40L44 40L44 41L45 41L45 40L46 40L46 39L45 39L45 38L44 38L44 37L43 37L43 36L44 36L44 35L45 35L45 34ZM50 34L50 35L52 35L52 34ZM6 35L6 36L8 36L8 37L9 37L9 36L11 36L11 35L9 35L9 36L8 36L8 35ZM33 35L33 36L32 36L32 37L33 37L33 39L35 39L35 37L34 37L34 35ZM42 35L42 36L41 36L41 37L40 37L40 38L41 38L41 37L42 37L42 38L43 38L43 37L42 37L42 36L43 36L43 35ZM46 36L46 37L47 37L47 36ZM0 37L0 38L1 38L1 39L0 39L0 40L2 40L2 37ZM6 37L6 38L7 38L7 39L6 39L6 40L7 40L7 39L8 39L8 38L7 38L7 37ZM27 37L27 38L28 38L28 37ZM4 38L4 39L5 39L5 38ZM27 39L27 41L26 41L26 42L27 42L27 41L29 41L29 43L28 43L28 44L27 44L27 43L24 43L24 44L27 44L27 45L29 45L29 44L33 44L33 43L34 43L34 42L33 42L33 41L32 41L32 40L28 40L28 39ZM44 39L44 40L45 40L45 39ZM21 41L21 42L22 42L22 41ZM23 41L23 42L25 42L25 41ZM30 41L30 42L32 42L32 43L33 43L33 42L32 42L32 41ZM39 41L39 42L40 42L40 41ZM1 42L1 44L2 44L2 46L1 46L1 47L2 47L2 46L3 46L3 47L5 47L5 46L4 46L4 45L3 45L3 44L2 44L2 42ZM50 42L50 43L51 43L51 42ZM6 43L6 44L7 44L7 43ZM14 44L14 45L15 45L15 44ZM20 44L20 45L21 45L21 44ZM50 45L50 46L51 46L51 47L52 47L52 46L51 46L51 45ZM14 46L14 48L15 48L15 47L16 47L16 46ZM12 47L12 48L13 48L13 47ZM6 48L6 49L7 49L7 48ZM38 48L38 49L39 49L39 48ZM27 49L27 52L30 52L30 49ZM49 49L49 52L52 52L52 49ZM11 50L11 51L12 51L12 50ZM28 50L28 51L29 51L29 50ZM38 50L38 51L40 51L40 52L41 52L41 50ZM50 50L50 51L51 51L51 50ZM54 50L54 51L55 51L55 50ZM44 52L44 53L43 53L43 54L44 54L44 53L45 53L45 52ZM53 52L53 53L54 53L54 52ZM24 53L24 54L23 54L23 55L24 55L24 56L25 56L25 54L26 54L26 53ZM35 54L35 56L36 56L36 54ZM37 55L37 56L39 56L39 55ZM50 55L50 56L51 56L51 55ZM43 56L43 57L44 57L44 56ZM46 56L46 57L47 57L47 56ZM0 0L0 7L7 7L7 0ZM1 1L1 6L6 6L6 1ZM2 2L2 5L5 5L5 2ZM50 0L50 7L57 7L57 0ZM51 1L51 6L56 6L56 1ZM52 2L52 5L55 5L55 2ZM0 50L0 57L7 57L7 50ZM1 51L1 56L6 56L6 51ZM2 52L2 55L5 55L5 52Z" fill="#000000"/></g></g></svg>
