<?xml version="1.0" encoding="UTF-8"?>
<svg xmlns="http://www.w3.org/2000/svg" version="1.1" width="300" height="300" viewBox="0 0 300 300"><rect x="0" y="0" width="300" height="300" fill="#fefefe"/><g transform="scale(4.615)"><g transform="translate(4,4)"><path fill-rule="evenodd" d="M9 0L9 1L8 1L8 3L9 3L9 4L8 4L8 8L6 8L6 9L5 9L5 10L4 10L4 11L0 11L0 16L1 16L1 14L3 14L3 15L2 15L2 18L4 18L4 17L5 17L5 18L6 18L6 19L7 19L7 20L5 20L5 19L0 19L0 20L1 20L1 21L2 21L2 22L1 22L1 23L0 23L0 24L1 24L1 23L3 23L3 24L2 24L2 27L1 27L1 25L0 25L0 30L1 30L1 31L0 31L0 32L2 32L2 35L1 35L1 34L0 34L0 35L1 35L1 36L0 36L0 37L2 37L2 38L0 38L0 42L1 42L1 41L2 41L2 42L5 42L5 43L4 43L4 45L2 45L2 44L3 44L3 43L2 43L2 44L1 44L1 45L2 45L2 47L1 47L1 46L0 46L0 48L5 48L5 47L7 47L7 48L6 48L6 49L8 49L8 51L10 51L10 54L9 54L9 53L8 53L8 54L9 54L9 55L8 55L8 57L10 57L10 56L11 56L11 52L12 52L12 53L13 53L13 54L12 54L12 56L13 56L13 54L14 54L14 55L15 55L15 54L14 54L14 53L15 53L15 52L16 52L16 51L15 51L15 50L14 50L14 51L15 51L15 52L14 52L14 53L13 53L13 52L12 52L12 51L11 51L11 50L10 50L10 49L9 49L9 48L8 48L8 47L10 47L10 48L11 48L11 49L12 49L12 50L13 50L13 49L14 49L14 48L15 48L15 49L16 49L16 50L17 50L17 51L18 51L18 52L17 52L17 53L16 53L16 54L17 54L17 53L18 53L18 55L21 55L21 54L25 54L25 55L24 55L24 56L23 56L23 55L22 55L22 56L20 56L20 57L26 57L26 56L25 56L25 55L28 55L28 56L29 56L29 57L31 57L31 56L33 56L33 57L35 57L35 56L36 56L36 57L42 57L42 56L43 56L43 57L44 57L44 55L45 55L45 56L46 56L46 55L47 55L47 57L49 57L49 56L50 56L50 57L51 57L51 56L52 56L52 57L53 57L53 56L54 56L54 55L55 55L55 54L56 54L56 55L57 55L57 51L56 51L56 50L57 50L57 49L56 49L56 50L55 50L55 52L54 52L54 53L53 53L53 49L55 49L55 48L54 48L54 47L53 47L53 46L54 46L54 45L53 45L53 43L52 43L52 45L53 45L53 46L52 46L52 47L51 47L51 42L49 42L49 43L48 43L48 42L47 42L47 45L48 45L48 46L46 46L46 47L47 47L47 48L46 48L46 50L44 50L44 53L43 53L43 50L41 50L41 49L42 49L42 48L41 48L41 46L40 46L40 47L38 47L38 48L39 48L39 49L40 49L40 50L41 50L41 51L40 51L40 52L39 52L39 50L38 50L38 49L37 49L37 48L35 48L35 49L34 49L34 48L33 48L33 45L34 45L34 44L33 44L33 42L32 42L32 41L34 41L34 40L35 40L35 42L34 42L34 43L35 43L35 44L36 44L36 45L35 45L35 46L34 46L34 47L35 47L35 46L36 46L36 47L37 47L37 46L36 46L36 45L41 45L41 44L42 44L42 45L43 45L43 46L44 46L44 47L43 47L43 49L45 49L45 48L44 48L44 47L45 47L45 46L44 46L44 44L42 44L42 43L43 43L43 42L42 42L42 41L44 41L44 42L45 42L45 40L46 40L46 41L47 41L47 40L49 40L49 39L47 39L47 38L48 38L48 37L47 37L47 36L48 36L48 35L47 35L47 34L50 34L50 35L49 35L49 38L50 38L50 35L51 35L51 37L52 37L52 38L51 38L51 39L50 39L50 40L52 40L52 41L53 41L53 42L54 42L54 43L57 43L57 40L56 40L56 39L57 39L57 37L56 37L56 36L57 36L57 32L56 32L56 31L57 31L57 30L55 30L55 29L54 29L54 28L53 28L53 27L55 27L55 26L57 26L57 20L55 20L55 21L54 21L54 20L53 20L53 19L57 19L57 15L56 15L56 14L57 14L57 10L56 10L56 8L54 8L54 9L53 9L53 8L50 8L50 9L53 9L53 10L54 10L54 11L51 11L51 12L50 12L50 10L49 10L49 11L47 11L47 10L45 10L45 9L49 9L49 6L48 6L48 8L46 8L46 7L47 7L47 5L48 5L48 0L46 0L46 1L47 1L47 2L46 2L46 3L47 3L47 5L46 5L46 7L45 7L45 4L44 4L44 7L45 7L45 9L44 9L44 8L43 8L43 10L40 10L40 11L39 11L39 10L38 10L38 11L39 11L39 14L38 14L38 12L34 12L34 14L36 14L36 15L33 15L33 11L34 11L34 10L33 10L33 11L32 11L32 10L29 10L29 9L32 9L32 8L31 8L31 6L32 6L32 7L33 7L33 8L34 8L34 9L35 9L35 10L36 10L36 11L37 11L37 9L41 9L41 6L42 6L42 7L43 7L43 6L42 6L42 5L43 5L43 3L42 3L42 2L41 2L41 4L38 4L38 7L37 7L37 6L36 6L36 7L35 7L35 5L36 5L36 4L35 4L35 5L34 5L34 7L33 7L33 5L32 5L32 4L31 4L31 2L32 2L32 3L34 3L34 1L36 1L36 2L37 2L37 3L39 3L39 2L40 2L40 1L43 1L43 0L40 0L40 1L39 1L39 0L37 0L37 1L36 1L36 0L33 0L33 2L32 2L32 0L30 0L30 4L24 4L24 5L23 5L23 6L22 6L22 7L23 7L23 8L21 8L21 6L20 6L20 5L19 5L19 4L20 4L20 3L19 3L19 2L23 2L23 3L24 3L24 2L23 2L23 1L25 1L25 2L28 2L28 3L29 3L29 2L28 2L28 1L29 1L29 0L22 0L22 1L21 1L21 0L18 0L18 1L17 1L17 0L15 0L15 1L14 1L14 2L12 2L12 0L11 0L11 2L10 2L10 3L9 3L9 1L10 1L10 0ZM44 0L44 1L45 1L45 0ZM15 1L15 2L14 2L14 3L13 3L13 4L12 4L12 3L10 3L10 4L11 4L11 5L10 5L10 6L9 6L9 7L10 7L10 8L8 8L8 9L6 9L6 10L8 10L8 12L7 12L7 11L6 11L6 12L5 12L5 13L4 13L4 12L3 12L3 14L4 14L4 15L3 15L3 16L5 16L5 17L6 17L6 18L7 18L7 17L6 17L6 16L7 16L7 15L8 15L8 16L9 16L9 15L12 15L12 13L13 13L13 15L14 15L14 14L15 14L15 15L16 15L16 16L15 16L15 18L17 18L17 17L16 17L16 16L17 16L17 15L18 15L18 14L19 14L19 13L18 13L18 12L19 12L19 11L20 11L20 12L21 12L21 11L20 11L20 10L21 10L21 8L20 8L20 9L19 9L19 11L18 11L18 10L17 10L17 9L18 9L18 8L19 8L19 7L20 7L20 6L19 6L19 7L18 7L18 5L17 5L17 4L19 4L19 3L18 3L18 2L19 2L19 1L18 1L18 2L16 2L16 1ZM37 1L37 2L38 2L38 1ZM15 2L15 3L16 3L16 2ZM44 2L44 3L45 3L45 2ZM13 4L13 5L12 5L12 7L11 7L11 6L10 6L10 7L11 7L11 8L12 8L12 9L10 9L10 11L9 11L9 12L8 12L8 13L7 13L7 12L6 12L6 13L5 13L5 16L6 16L6 15L7 15L7 14L10 14L10 12L13 12L13 13L14 13L14 11L12 11L12 9L14 9L14 8L17 8L17 6L16 6L16 7L15 7L15 6L14 6L14 5L15 5L15 4ZM21 4L21 5L22 5L22 4ZM24 5L24 6L23 6L23 7L24 7L24 8L23 8L23 9L22 9L22 10L23 10L23 12L22 12L22 13L23 13L23 12L24 12L24 14L25 14L25 15L23 15L23 14L21 14L21 13L20 13L20 15L19 15L19 16L20 16L20 17L18 17L18 18L19 18L19 19L20 19L20 22L17 22L17 24L18 24L18 23L20 23L20 22L22 22L22 21L21 21L21 20L22 20L22 19L23 19L23 20L25 20L25 22L24 22L24 21L23 21L23 23L25 23L25 25L22 25L22 26L21 26L21 24L20 24L20 27L19 27L19 25L18 25L18 26L16 26L16 25L15 25L15 27L13 27L13 26L10 26L10 25L12 25L12 24L14 24L14 23L15 23L15 24L16 24L16 20L17 20L17 21L18 21L18 20L17 20L17 19L16 19L16 20L15 20L15 19L14 19L14 18L13 18L13 17L14 17L14 16L11 16L11 17L12 17L12 18L10 18L10 17L9 17L9 18L10 18L10 19L8 19L8 20L7 20L7 21L6 21L6 22L5 22L5 20L4 20L4 22L3 22L3 23L5 23L5 25L4 25L4 26L3 26L3 27L2 27L2 28L1 28L1 29L2 29L2 30L4 30L4 26L5 26L5 25L6 25L6 26L7 26L7 25L9 25L9 27L11 27L11 29L12 29L12 30L15 30L15 31L12 31L12 32L11 32L11 33L12 33L12 34L14 34L14 35L13 35L13 37L12 37L12 36L11 36L11 34L10 34L10 33L9 33L9 34L8 34L8 35L6 35L6 36L7 36L7 37L6 37L6 38L5 38L5 37L4 37L4 36L3 36L3 35L4 35L4 34L3 34L3 35L2 35L2 37L3 37L3 41L4 41L4 40L5 40L5 42L7 42L7 41L9 41L9 42L8 42L8 43L9 43L9 42L10 42L10 45L11 45L11 48L13 48L13 47L15 47L15 48L16 48L16 49L17 49L17 50L19 50L19 49L20 49L20 50L21 50L21 49L20 49L20 48L24 48L24 49L22 49L22 51L23 51L23 50L24 50L24 51L26 51L26 50L25 50L25 48L24 48L24 47L25 47L25 45L27 45L27 46L26 46L26 47L27 47L27 48L28 48L28 47L27 47L27 46L30 46L30 45L31 45L31 44L32 44L32 45L33 45L33 44L32 44L32 43L30 43L30 45L27 45L27 44L29 44L29 39L30 39L30 38L29 38L29 39L28 39L28 40L27 40L27 39L26 39L26 37L27 37L27 36L33 36L33 39L32 39L32 40L31 40L31 41L30 41L30 42L31 42L31 41L32 41L32 40L33 40L33 39L36 39L36 38L37 38L37 39L39 39L39 38L41 38L41 39L40 39L40 41L41 41L41 40L44 40L44 39L46 39L46 37L45 37L45 38L44 38L44 37L40 37L40 36L38 36L38 34L39 34L39 32L40 32L40 31L39 31L39 30L36 30L36 31L37 31L37 33L36 33L36 32L35 32L35 28L37 28L37 29L38 29L38 27L39 27L39 26L40 26L40 30L41 30L41 31L43 31L43 30L44 30L44 29L43 29L43 28L44 28L44 27L45 27L45 29L46 29L46 30L45 30L45 32L43 32L43 33L42 33L42 32L41 32L41 34L42 34L42 36L43 36L43 34L44 34L44 33L45 33L45 35L44 35L44 36L45 36L45 35L46 35L46 34L47 34L47 33L45 33L45 32L46 32L46 31L47 31L47 32L48 32L48 29L46 29L46 27L45 27L45 26L46 26L46 25L47 25L47 27L48 27L48 26L49 26L49 24L51 24L51 23L52 23L52 22L51 22L51 21L50 21L50 23L49 23L49 19L50 19L50 14L51 14L51 15L53 15L53 16L52 16L52 17L51 17L51 19L53 19L53 18L54 18L54 17L53 17L53 16L55 16L55 17L56 17L56 15L55 15L55 14L56 14L56 13L55 13L55 11L56 11L56 10L55 10L55 11L54 11L54 13L52 13L52 12L51 12L51 13L50 13L50 14L49 14L49 12L47 12L47 14L46 14L46 13L44 13L44 14L43 14L43 12L44 12L44 11L45 11L45 10L43 10L43 12L42 12L42 11L41 11L41 13L40 13L40 14L42 14L42 18L39 18L39 19L40 19L40 20L44 20L44 21L41 21L41 24L43 24L43 23L44 23L44 22L47 22L47 23L45 23L45 24L46 24L46 25L45 25L45 26L44 26L44 25L42 25L42 26L40 26L40 25L39 25L39 24L40 24L40 23L39 23L39 24L38 24L38 26L34 26L34 25L35 25L35 24L33 24L33 23L32 23L32 24L33 24L33 25L32 25L32 26L31 26L31 24L30 24L30 23L31 23L31 21L30 21L30 20L29 20L29 21L28 21L28 23L27 23L27 22L26 22L26 21L27 21L27 18L26 18L26 17L25 17L25 16L27 16L27 15L26 15L26 14L25 14L25 13L27 13L27 14L29 14L29 15L28 15L28 16L31 16L31 17L30 17L30 19L34 19L34 18L35 18L35 20L34 20L34 21L33 21L33 20L32 20L32 22L34 22L34 23L35 23L35 22L37 22L37 23L36 23L36 24L37 24L37 23L38 23L38 22L39 22L39 21L38 21L38 17L39 17L39 15L38 15L38 14L37 14L37 13L36 13L36 14L37 14L37 15L38 15L38 17L37 17L37 18L36 18L36 17L35 17L35 16L34 16L34 17L32 17L32 16L33 16L33 15L32 15L32 13L31 13L31 12L30 12L30 11L29 11L29 10L26 10L26 9L24 9L24 8L26 8L26 6L25 6L25 5ZM27 5L27 8L30 8L30 5ZM40 5L40 6L39 6L39 7L40 7L40 6L41 6L41 5ZM13 6L13 7L14 7L14 6ZM24 6L24 7L25 7L25 6ZM28 6L28 7L29 7L29 6ZM34 7L34 8L35 8L35 9L36 9L36 8L35 8L35 7ZM0 8L0 9L2 9L2 8ZM3 8L3 9L4 9L4 8ZM8 9L8 10L9 10L9 9ZM16 10L16 11L15 11L15 14L16 14L16 15L17 15L17 13L16 13L16 11L17 11L17 12L18 12L18 11L17 11L17 10ZM24 11L24 12L25 12L25 11ZM26 11L26 12L28 12L28 13L29 13L29 14L30 14L30 13L29 13L29 11ZM6 13L6 14L7 14L7 13ZM51 13L51 14L52 14L52 13ZM54 13L54 14L55 14L55 13ZM48 14L48 17L47 17L47 18L48 18L48 17L49 17L49 14ZM31 15L31 16L32 16L32 15ZM46 15L46 16L44 16L44 18L45 18L45 19L44 19L44 20L45 20L45 21L48 21L48 19L46 19L46 16L47 16L47 15ZM40 16L40 17L41 17L41 16ZM0 17L0 18L1 18L1 17ZM20 17L20 19L21 19L21 17ZM22 17L22 18L24 18L24 19L25 19L25 20L26 20L26 18L24 18L24 17ZM31 17L31 18L32 18L32 17ZM12 18L12 19L13 19L13 20L12 20L12 22L11 22L11 21L10 21L10 20L11 20L11 19L10 19L10 20L9 20L9 21L7 21L7 22L6 22L6 23L8 23L8 24L9 24L9 23L10 23L10 24L11 24L11 23L13 23L13 20L14 20L14 19L13 19L13 18ZM28 18L28 19L29 19L29 18ZM42 18L42 19L43 19L43 18ZM36 19L36 21L37 21L37 19ZM2 20L2 21L3 21L3 20ZM53 21L53 22L54 22L54 21ZM25 22L25 23L26 23L26 22ZM29 22L29 23L30 23L30 22ZM42 22L42 23L43 23L43 22ZM55 22L55 23L53 23L53 24L54 24L54 25L50 25L50 26L55 26L55 24L56 24L56 22ZM48 23L48 24L49 24L49 23ZM6 24L6 25L7 25L7 24ZM26 24L26 25L25 25L25 26L26 26L26 28L25 28L25 29L26 29L26 30L24 30L24 29L23 29L23 30L21 30L21 28L19 28L19 27L17 27L17 28L16 28L16 27L15 27L15 28L14 28L14 29L15 29L15 30L16 30L16 29L18 29L18 28L19 28L19 29L20 29L20 30L17 30L17 32L18 32L18 33L17 33L17 35L16 35L16 31L15 31L15 32L13 32L13 33L15 33L15 37L14 37L14 38L15 38L15 39L13 39L13 41L12 41L12 37L11 37L11 38L10 38L10 39L11 39L11 40L9 40L9 41L12 41L12 42L16 42L16 41L17 41L17 42L18 42L18 43L19 43L19 41L20 41L20 42L21 42L21 43L20 43L20 44L17 44L17 45L19 45L19 46L20 46L20 45L21 45L21 46L22 46L22 47L23 47L23 46L24 46L24 45L23 45L23 46L22 46L22 42L21 42L21 41L22 41L22 40L21 40L21 39L22 39L22 38L24 38L24 39L23 39L23 41L24 41L24 39L25 39L25 42L23 42L23 44L27 44L27 42L26 42L26 41L27 41L27 40L26 40L26 39L25 39L25 38L24 38L24 37L26 37L26 36L23 36L23 34L22 34L22 33L24 33L24 31L25 31L25 34L24 34L24 35L26 35L26 34L27 34L27 35L28 35L28 34L27 34L27 33L28 33L28 32L29 32L29 33L30 33L30 32L31 32L31 34L30 34L30 35L32 35L32 34L33 34L33 33L35 33L35 32L33 32L33 33L32 33L32 30L33 30L33 29L34 29L34 28L35 28L35 27L34 27L34 26L32 26L32 27L33 27L33 28L32 28L32 29L31 29L31 26L29 26L29 24ZM26 25L26 26L27 26L27 25ZM22 26L22 27L23 27L23 28L24 28L24 26ZM5 27L5 30L8 30L8 27ZM12 27L12 28L13 28L13 27ZM27 27L27 30L30 30L30 27ZM42 27L42 28L43 28L43 27ZM49 27L49 30L52 30L52 27ZM6 28L6 29L7 29L7 28ZM9 28L9 29L10 29L10 28ZM28 28L28 29L29 29L29 28ZM50 28L50 29L51 29L51 28ZM41 29L41 30L42 30L42 29ZM53 29L53 31L54 31L54 32L52 32L52 34L53 34L53 35L52 35L52 36L53 36L53 35L54 35L54 36L56 36L56 34L55 34L55 33L56 33L56 32L55 32L55 30L54 30L54 29ZM9 30L9 31L2 31L2 32L3 32L3 33L4 33L4 32L7 32L7 33L6 33L6 34L7 34L7 33L8 33L8 32L9 32L9 31L11 31L11 30ZM20 31L20 33L18 33L18 34L20 34L20 36L19 36L19 35L17 35L17 36L19 36L19 37L18 37L18 38L17 38L17 39L16 39L16 40L17 40L17 41L18 41L18 40L20 40L20 38L19 38L19 37L20 37L20 36L21 36L21 35L22 35L22 34L21 34L21 31ZM22 31L22 32L23 32L23 31ZM27 31L27 32L28 32L28 31ZM38 31L38 32L39 32L39 31ZM49 31L49 33L50 33L50 32L51 32L51 31ZM53 33L53 34L54 34L54 33ZM9 34L9 36L8 36L8 37L10 37L10 34ZM33 35L33 36L35 36L35 37L34 37L34 38L35 38L35 37L37 37L37 38L38 38L38 36L37 36L37 35L36 35L36 36L35 36L35 35ZM54 37L54 39L52 39L52 40L53 40L53 41L54 41L54 42L55 42L55 41L54 41L54 40L55 40L55 37ZM6 38L6 39L5 39L5 40L6 40L6 41L7 41L7 40L8 40L8 39L7 39L7 38ZM1 39L1 40L2 40L2 39ZM6 39L6 40L7 40L7 39ZM37 40L37 41L36 41L36 42L35 42L35 43L36 43L36 44L37 44L37 42L38 42L38 43L39 43L39 44L40 44L40 43L42 43L42 42L38 42L38 40ZM25 42L25 43L26 43L26 42ZM5 43L5 44L7 44L7 43ZM11 43L11 45L13 45L13 46L12 46L12 47L13 47L13 46L14 46L14 43ZM49 43L49 44L48 44L48 45L49 45L49 44L50 44L50 43ZM8 44L8 45L6 45L6 46L9 46L9 44ZM15 44L15 45L16 45L16 44ZM55 44L55 46L56 46L56 48L57 48L57 45L56 45L56 44ZM3 46L3 47L5 47L5 46ZM17 46L17 49L19 49L19 48L20 48L20 47L19 47L19 48L18 48L18 46ZM49 46L49 47L50 47L50 48L51 48L51 47L50 47L50 46ZM29 47L29 48L31 48L31 47ZM47 48L47 50L48 50L48 48ZM27 49L27 52L30 52L30 49ZM31 49L31 50L32 50L32 49ZM33 49L33 52L34 52L34 53L32 53L32 55L33 55L33 54L35 54L35 55L34 55L34 56L35 56L35 55L36 55L36 56L42 56L42 55L41 55L41 54L40 54L40 53L41 53L41 52L40 52L40 53L39 53L39 54L38 54L38 55L36 55L36 54L37 54L37 53L38 53L38 52L37 52L37 53L36 53L36 54L35 54L35 52L36 52L36 51L38 51L38 50L37 50L37 49L36 49L36 50L35 50L35 52L34 52L34 49ZM49 49L49 52L52 52L52 49ZM28 50L28 51L29 51L29 50ZM50 50L50 51L51 51L51 50ZM45 51L45 53L44 53L44 54L47 54L47 53L48 53L48 54L50 54L50 56L51 56L51 54L52 54L52 53L48 53L48 52L47 52L47 53L46 53L46 51ZM19 52L19 53L20 53L20 52ZM22 52L22 53L24 53L24 52ZM25 52L25 53L26 53L26 52ZM42 53L42 54L43 54L43 53ZM54 53L54 54L55 54L55 53ZM29 54L29 56L30 56L30 55L31 55L31 54ZM16 56L16 57L17 57L17 56ZM18 56L18 57L19 57L19 56ZM55 56L55 57L56 57L56 56ZM0 0L0 7L7 7L7 0ZM1 1L1 6L6 6L6 1ZM2 2L2 5L5 5L5 2ZM50 0L50 7L57 7L57 0ZM51 1L51 6L56 6L56 1ZM52 2L52 5L55 5L55 2ZM0 50L0 57L7 57L7 50ZM1 51L1 56L6 56L6 51ZM2 52L2 55L5 55L5 52Z" fill="#000000"/></g></g></svg>
