<?xml version="1.0" encoding="UTF-8"?>
<svg xmlns="http://www.w3.org/2000/svg" version="1.1" width="300" height="300" viewBox="0 0 300 300"><rect x="0" y="0" width="300" height="300" fill="#fefefe"/><g transform="scale(4.615)"><g transform="translate(4,4)"><path fill-rule="evenodd" d="M9 0L9 1L8 1L8 2L9 2L9 1L10 1L10 4L9 4L9 3L8 3L8 4L9 4L9 5L8 5L8 7L9 7L9 8L6 8L6 9L5 9L5 8L0 8L0 10L4 10L4 9L5 9L5 10L6 10L6 11L5 11L5 12L6 12L6 13L5 13L5 14L4 14L4 13L2 13L2 14L3 14L3 16L2 16L2 18L1 18L1 16L0 16L0 18L1 18L1 19L0 19L0 23L1 23L1 26L0 26L0 29L1 29L1 30L2 30L2 32L3 32L3 33L5 33L5 34L4 34L4 35L5 35L5 36L4 36L4 37L3 37L3 35L2 35L2 36L1 36L1 37L0 37L0 38L1 38L1 37L3 37L3 39L2 39L2 40L3 40L3 39L5 39L5 40L4 40L4 41L1 41L1 40L0 40L0 43L1 43L1 45L0 45L0 48L5 48L5 47L7 47L7 46L6 46L6 45L7 45L7 44L8 44L8 42L10 42L10 41L11 41L11 40L12 40L12 41L13 41L13 42L12 42L12 44L11 44L11 45L9 45L9 46L8 46L8 47L9 47L9 46L11 46L11 48L12 48L12 49L11 49L11 51L10 51L10 50L9 50L9 49L10 49L10 48L8 48L8 51L9 51L9 52L8 52L8 57L9 57L9 56L11 56L11 57L13 57L13 56L15 56L15 57L16 57L16 56L17 56L17 57L19 57L19 55L20 55L20 54L19 54L19 53L20 53L20 52L21 52L21 51L22 51L22 52L23 52L23 51L22 51L22 50L26 50L26 52L24 52L24 53L23 53L23 54L22 54L22 53L21 53L21 54L22 54L22 56L24 56L24 55L23 55L23 54L24 54L24 53L26 53L26 54L25 54L25 55L26 55L26 54L30 54L30 53L31 53L31 50L32 50L32 52L33 52L33 50L34 50L34 52L35 52L35 54L36 54L36 56L35 56L35 55L33 55L33 53L32 53L32 54L31 54L31 56L30 56L30 55L29 55L29 56L27 56L27 57L29 57L29 56L30 56L30 57L31 57L31 56L35 56L35 57L39 57L39 56L40 56L40 55L41 55L41 57L44 57L44 56L42 56L42 55L44 55L44 54L45 54L45 53L47 53L47 50L48 50L48 54L47 54L47 56L46 56L46 55L45 55L45 57L49 57L49 56L50 56L50 57L52 57L52 55L51 55L51 53L52 53L52 54L53 54L53 57L54 57L54 56L55 56L55 57L56 57L56 56L55 56L55 54L53 54L53 52L54 52L54 53L55 53L55 52L56 52L56 50L57 50L57 48L56 48L56 46L57 46L57 43L56 43L56 41L55 41L55 39L57 39L57 35L56 35L56 34L55 34L55 33L54 33L54 34L55 34L55 35L53 35L53 34L52 34L52 33L53 33L53 32L56 32L56 33L57 33L57 32L56 32L56 30L57 30L57 29L56 29L56 28L57 28L57 27L56 27L56 26L57 26L57 25L56 25L56 22L57 22L57 19L56 19L56 18L53 18L53 17L56 17L56 16L57 16L57 15L56 15L56 14L57 14L57 12L56 12L56 14L55 14L55 13L54 13L54 12L55 12L55 11L56 11L56 10L54 10L54 11L51 11L51 10L50 10L50 8L49 8L49 9L47 9L47 10L46 10L46 9L44 9L44 8L45 8L45 6L44 6L44 3L47 3L47 5L46 5L46 4L45 4L45 5L46 5L46 7L47 7L47 8L48 8L48 7L49 7L49 6L48 6L48 7L47 7L47 5L48 5L48 0L45 0L45 1L47 1L47 2L44 2L44 3L42 3L42 2L43 2L43 0L41 0L41 1L40 1L40 0L39 0L39 1L38 1L38 0L37 0L37 1L38 1L38 2L37 2L37 3L36 3L36 0L35 0L35 1L33 1L33 0L29 0L29 4L26 4L26 3L23 3L23 4L24 4L24 5L23 5L23 6L22 6L22 8L23 8L23 6L24 6L24 9L23 9L23 10L22 10L22 11L21 11L21 10L20 10L20 9L19 9L19 8L21 8L21 4L19 4L19 3L20 3L20 2L19 2L19 1L20 1L20 0L17 0L17 2L18 2L18 3L17 3L17 6L16 6L16 7L15 7L15 5L16 5L16 4L15 4L15 5L14 5L14 7L13 7L13 6L12 6L12 7L11 7L11 6L10 6L10 5L13 5L13 4L14 4L14 2L15 2L15 0L14 0L14 2L13 2L13 1L12 1L12 0L11 0L11 1L10 1L10 0ZM21 0L21 1L22 1L22 0ZM23 0L23 2L27 2L27 1L26 1L26 0ZM11 1L11 3L12 3L12 4L13 4L13 3L12 3L12 1ZM30 1L30 2L31 2L31 3L30 3L30 4L31 4L31 8L32 8L32 10L31 10L31 11L29 11L29 9L28 9L28 10L27 10L27 11L26 11L26 12L25 12L25 11L24 11L24 12L23 12L23 13L22 13L22 12L21 12L21 11L19 11L19 13L20 13L20 15L19 15L19 16L20 16L20 21L19 21L19 22L20 22L20 23L18 23L18 24L21 24L21 25L19 25L19 26L18 26L18 27L17 27L17 28L18 28L18 29L16 29L16 28L14 28L14 29L12 29L12 26L11 26L11 25L12 25L12 24L13 24L13 26L14 26L14 27L15 27L15 26L17 26L17 25L14 25L14 24L16 24L16 23L14 23L14 22L16 22L16 21L17 21L17 20L19 20L19 17L16 17L16 16L17 16L17 13L18 13L18 12L17 12L17 13L16 13L16 12L15 12L15 13L13 13L13 12L14 12L14 11L13 11L13 10L16 10L16 11L18 11L18 9L15 9L15 8L14 8L14 9L13 9L13 7L12 7L12 9L11 9L11 7L10 7L10 6L9 6L9 7L10 7L10 9L11 9L11 10L10 10L10 11L13 11L13 12L12 12L12 13L13 13L13 14L12 14L12 15L11 15L11 16L9 16L9 19L5 19L5 20L7 20L7 21L6 21L6 22L7 22L7 23L6 23L6 24L7 24L7 25L6 25L6 26L9 26L9 28L10 28L10 26L11 26L11 29L12 29L12 30L10 30L10 29L9 29L9 31L10 31L10 32L9 32L9 33L10 33L10 32L12 32L12 33L11 33L11 34L13 34L13 35L11 35L11 36L12 36L12 37L11 37L11 39L12 39L12 40L13 40L13 38L15 38L15 39L14 39L14 40L15 40L15 39L16 39L16 40L19 40L19 41L15 41L15 42L14 42L14 43L13 43L13 44L14 44L14 45L13 45L13 46L14 46L14 45L15 45L15 46L17 46L17 45L18 45L18 44L17 44L17 45L16 45L16 43L15 43L15 42L17 42L17 43L18 43L18 42L19 42L19 43L20 43L20 46L19 46L19 47L20 47L20 48L19 48L19 49L20 49L20 50L18 50L18 51L17 51L17 48L16 48L16 49L15 49L15 50L14 50L14 48L15 48L15 47L14 47L14 48L13 48L13 47L12 47L12 48L13 48L13 50L14 50L14 51L13 51L13 52L11 52L11 53L10 53L10 52L9 52L9 53L10 53L10 54L9 54L9 55L11 55L11 56L13 56L13 55L15 55L15 56L16 56L16 55L15 55L15 54L16 54L16 53L17 53L17 52L19 52L19 51L21 51L21 49L23 49L23 48L24 48L24 49L25 49L25 48L27 48L27 47L28 47L28 48L30 48L30 47L28 47L28 46L29 46L29 45L32 45L32 47L31 47L31 48L32 48L32 50L33 50L33 49L34 49L34 50L36 50L36 52L38 52L38 53L37 53L37 54L40 54L40 53L42 53L42 52L43 52L43 51L46 51L46 50L47 50L47 49L48 49L48 48L49 48L49 47L48 47L48 45L49 45L49 46L50 46L50 47L51 47L51 48L53 48L53 47L55 47L55 46L56 46L56 43L55 43L55 44L54 44L54 45L52 45L52 44L53 44L53 43L54 43L54 42L53 42L53 41L54 41L54 40L53 40L53 41L51 41L51 42L50 42L50 43L48 43L48 44L47 44L47 45L45 45L45 44L46 44L46 42L48 42L48 41L49 41L49 39L53 39L53 35L52 35L52 34L50 34L50 31L48 31L48 28L47 28L47 29L46 29L46 30L47 30L47 31L48 31L48 32L47 32L47 33L46 33L46 31L45 31L45 32L43 32L43 31L44 31L44 30L45 30L45 28L46 28L46 27L48 27L48 25L49 25L49 24L50 24L50 22L51 22L51 21L54 21L54 22L53 22L53 23L51 23L51 25L50 25L50 26L51 26L51 25L54 25L54 24L53 24L53 23L55 23L55 22L56 22L56 21L55 21L55 20L56 20L56 19L55 19L55 20L53 20L53 19L52 19L52 18L51 18L51 17L50 17L50 16L52 16L52 17L53 17L53 16L52 16L52 15L50 15L50 14L51 14L51 12L50 12L50 10L49 10L49 12L48 12L48 11L47 11L47 12L45 12L45 11L46 11L46 10L45 10L45 11L42 11L42 10L41 10L41 9L43 9L43 10L44 10L44 9L43 9L43 7L44 7L44 6L43 6L43 5L40 5L40 4L41 4L41 3L39 3L39 2L38 2L38 3L39 3L39 4L38 4L38 6L37 6L37 7L36 7L36 5L37 5L37 4L36 4L36 5L35 5L35 4L33 4L33 3L32 3L32 2L33 2L33 1L32 1L32 2L31 2L31 1ZM34 2L34 3L35 3L35 2ZM31 3L31 4L32 4L32 5L33 5L33 6L32 6L32 7L33 7L33 9L34 9L34 8L35 8L35 9L37 9L37 10L36 10L36 12L35 12L35 13L37 13L37 14L38 14L38 15L39 15L39 16L38 16L38 17L37 17L37 16L35 16L35 14L33 14L33 13L34 13L34 12L33 12L33 13L32 13L32 11L33 11L33 10L32 10L32 11L31 11L31 13L30 13L30 14L29 14L29 13L28 13L28 12L29 12L29 11L27 11L27 12L26 12L26 13L25 13L25 12L24 12L24 13L23 13L23 14L22 14L22 13L21 13L21 12L20 12L20 13L21 13L21 15L20 15L20 16L21 16L21 17L22 17L22 18L24 18L24 19L21 19L21 20L24 20L24 21L21 21L21 24L24 24L24 25L21 25L21 26L19 26L19 29L18 29L18 30L16 30L16 29L15 29L15 30L14 30L14 31L15 31L15 33L18 33L18 34L20 34L20 35L19 35L19 36L17 36L17 37L19 37L19 38L20 38L20 39L19 39L19 40L20 40L20 41L19 41L19 42L20 42L20 41L21 41L21 42L22 42L22 43L21 43L21 44L22 44L22 45L21 45L21 47L23 47L23 46L24 46L24 47L25 47L25 44L27 44L27 45L26 45L26 47L27 47L27 45L28 45L28 44L29 44L29 43L31 43L31 44L33 44L33 43L34 43L34 45L37 45L37 46L36 46L36 48L35 48L35 46L33 46L33 47L32 47L32 48L34 48L34 49L36 49L36 50L38 50L38 52L39 52L39 51L40 51L40 52L41 52L41 50L42 50L42 51L43 51L43 49L44 49L44 48L43 48L43 47L44 47L44 46L43 46L43 45L44 45L44 41L43 41L43 40L47 40L47 39L49 39L49 38L50 38L50 36L51 36L51 37L52 37L52 35L50 35L50 34L49 34L49 35L50 35L50 36L49 36L49 38L48 38L48 37L47 37L47 39L41 39L41 42L42 42L42 44L41 44L41 46L40 46L40 47L39 47L39 46L38 46L38 45L39 45L39 44L40 44L40 43L39 43L39 42L40 42L40 41L39 41L39 42L38 42L38 40L40 40L40 39L38 39L38 37L37 37L37 36L38 36L38 33L37 33L37 32L34 32L34 33L35 33L35 34L33 34L33 35L31 35L31 34L32 34L32 31L31 31L31 29L32 29L32 30L33 30L33 31L36 31L36 30L37 30L37 29L38 29L38 28L39 28L39 27L40 27L40 26L39 26L39 27L37 27L37 28L35 28L35 27L36 27L36 26L34 26L34 27L33 27L33 26L32 26L32 24L33 24L33 25L37 25L37 26L38 26L38 24L39 24L39 25L40 25L40 24L41 24L41 25L42 25L42 26L41 26L41 28L42 28L42 26L44 26L44 24L41 24L41 22L42 22L42 23L44 23L44 20L45 20L45 21L47 21L47 22L45 22L45 23L47 23L47 25L48 25L48 23L49 23L49 21L51 21L51 20L52 20L52 19L49 19L49 18L50 18L50 17L49 17L49 16L48 16L48 15L49 15L49 14L50 14L50 12L49 12L49 13L47 13L47 14L45 14L45 13L44 13L44 12L43 12L43 13L41 13L41 14L45 14L45 15L47 15L47 18L48 18L48 19L47 19L47 20L45 20L45 19L46 19L46 18L44 18L44 15L42 15L42 16L41 16L41 15L40 15L40 14L38 14L38 13L39 13L39 10L40 10L40 9L39 9L39 10L38 10L38 8L40 8L40 7L41 7L41 6L40 6L40 5L39 5L39 6L38 6L38 7L37 7L37 8L35 8L35 5L33 5L33 4L32 4L32 3ZM18 4L18 6L17 6L17 7L16 7L16 8L17 8L17 7L18 7L18 8L19 8L19 7L20 7L20 5L19 5L19 4ZM25 4L25 8L26 8L26 4ZM27 5L27 8L30 8L30 5ZM18 6L18 7L19 7L19 6ZM28 6L28 7L29 7L29 6ZM33 6L33 7L34 7L34 6ZM39 6L39 7L40 7L40 6ZM42 6L42 7L43 7L43 6ZM51 8L51 9L52 9L52 10L53 10L53 9L54 9L54 8L53 8L53 9L52 9L52 8ZM55 8L55 9L56 9L56 8ZM6 9L6 10L7 10L7 11L6 11L6 12L7 12L7 13L6 13L6 14L5 14L5 15L4 15L4 16L5 16L5 15L6 15L6 16L7 16L7 17L6 17L6 18L8 18L8 14L7 14L7 13L8 13L8 12L9 12L9 15L10 15L10 13L11 13L11 12L9 12L9 10L8 10L8 9ZM12 9L12 10L13 10L13 9ZM37 10L37 11L38 11L38 10ZM0 11L0 12L1 12L1 11ZM40 11L40 12L41 12L41 11ZM52 12L52 13L53 13L53 12ZM15 13L15 14L13 14L13 15L14 15L14 16L11 16L11 17L10 17L10 18L11 18L11 19L10 19L10 20L9 20L9 22L10 22L10 21L12 21L12 18L15 18L15 19L16 19L16 17L14 17L14 16L16 16L16 13ZM26 13L26 16L24 16L24 15L25 15L25 14L23 14L23 15L21 15L21 16L22 16L22 17L25 17L25 19L26 19L26 20L25 20L25 21L24 21L24 22L23 22L23 23L24 23L24 24L25 24L25 25L26 25L26 26L25 26L25 27L26 27L26 26L29 26L29 24L32 24L32 23L33 23L33 22L34 22L34 23L35 23L35 21L34 21L34 20L32 20L32 21L31 21L31 22L28 22L28 21L30 21L30 20L31 20L31 19L36 19L36 20L38 20L38 23L37 23L37 24L38 24L38 23L39 23L39 24L40 24L40 22L39 22L39 21L41 21L41 20L38 20L38 19L39 19L39 17L41 17L41 16L39 16L39 17L38 17L38 18L37 18L37 17L35 17L35 16L33 16L33 15L31 15L31 14L32 14L32 13L31 13L31 14L30 14L30 15L31 15L31 16L32 16L32 17L31 17L31 18L30 18L30 19L28 19L28 18L27 18L27 19L26 19L26 16L27 16L27 17L28 17L28 16L29 16L29 14L28 14L28 13ZM6 14L6 15L7 15L7 14ZM54 14L54 15L55 15L55 14ZM27 15L27 16L28 16L28 15ZM42 16L42 17L43 17L43 16ZM45 16L45 17L46 17L46 16ZM4 17L4 18L2 18L2 19L3 19L3 20L4 20L4 18L5 18L5 17ZM32 17L32 18L33 18L33 17ZM41 18L41 19L42 19L42 20L44 20L44 18L43 18L43 19L42 19L42 18ZM13 19L13 20L14 20L14 19ZM15 20L15 21L16 21L16 20ZM47 20L47 21L49 21L49 20ZM2 21L2 22L4 22L4 23L3 23L3 24L2 24L2 26L3 26L3 27L1 27L1 29L4 29L4 26L5 26L5 25L4 25L4 24L5 24L5 22L4 22L4 21ZM7 21L7 22L8 22L8 21ZM13 21L13 22L14 22L14 21ZM25 21L25 22L26 22L26 23L25 23L25 24L29 24L29 23L27 23L27 21ZM11 22L11 23L10 23L10 25L9 25L9 23L7 23L7 24L8 24L8 25L9 25L9 26L10 26L10 25L11 25L11 23L12 23L12 22ZM13 23L13 24L14 24L14 23ZM45 24L45 25L46 25L46 24ZM55 25L55 26L56 26L56 25ZM22 26L22 27L20 27L20 30L19 30L19 32L20 32L20 30L21 30L21 31L23 31L23 29L26 29L26 28L23 28L23 26ZM31 26L31 28L32 28L32 29L33 29L33 30L35 30L35 28L33 28L33 27L32 27L32 26ZM53 26L53 27L54 27L54 26ZM5 27L5 30L8 30L8 27ZM27 27L27 30L30 30L30 27ZM43 27L43 28L45 28L45 27ZM49 27L49 30L52 30L52 27ZM55 27L55 28L54 28L54 29L53 29L53 30L54 30L54 29L55 29L55 28L56 28L56 27ZM6 28L6 29L7 29L7 28ZM21 28L21 29L22 29L22 28ZM28 28L28 29L29 29L29 28ZM50 28L50 29L51 29L51 28ZM39 29L39 30L38 30L38 32L39 32L39 30L40 30L40 29ZM41 29L41 30L44 30L44 29ZM3 30L3 32L4 32L4 30ZM12 30L12 31L13 31L13 30ZM24 30L24 31L25 31L25 32L21 32L21 33L20 33L20 34L21 34L21 33L22 33L22 34L23 34L23 36L19 36L19 37L21 37L21 38L24 38L24 37L23 37L23 36L24 36L24 34L23 34L23 33L25 33L25 35L26 35L26 36L27 36L27 37L25 37L25 40L24 40L24 39L22 39L22 40L21 40L21 41L22 41L22 42L24 42L24 43L23 43L23 44L24 44L24 43L27 43L27 44L28 44L28 43L29 43L29 42L32 42L32 43L33 43L33 42L34 42L34 43L35 43L35 44L36 44L36 43L37 43L37 42L35 42L35 40L38 40L38 39L35 39L35 40L33 40L33 39L29 39L29 38L31 38L31 37L29 37L29 36L30 36L30 34L29 34L29 33L31 33L31 31L30 31L30 32L29 32L29 31L27 31L27 32L26 32L26 31L25 31L25 30ZM5 31L5 33L6 33L6 34L5 34L5 35L6 35L6 36L5 36L5 37L6 37L6 38L5 38L5 39L6 39L6 40L5 40L5 41L4 41L4 42L5 42L5 43L6 43L6 44L4 44L4 45L3 45L3 44L2 44L2 45L1 45L1 47L2 47L2 46L3 46L3 47L5 47L5 45L6 45L6 44L7 44L7 43L6 43L6 42L8 42L8 40L9 40L9 41L10 41L10 40L9 40L9 39L10 39L10 38L9 38L9 37L10 37L10 35L9 35L9 34L8 34L8 33L6 33L6 32L7 32L7 31ZM17 31L17 32L18 32L18 31ZM13 32L13 33L14 33L14 32ZM25 32L25 33L26 33L26 35L27 35L27 33L26 33L26 32ZM28 32L28 33L29 33L29 32ZM41 32L41 33L39 33L39 34L40 34L40 35L39 35L39 37L40 37L40 38L43 38L43 37L44 37L44 38L45 38L45 37L44 37L44 36L45 36L45 35L46 35L46 36L47 36L47 35L46 35L46 34L45 34L45 35L44 35L44 33L43 33L43 32ZM48 32L48 33L49 33L49 32ZM51 32L51 33L52 33L52 32ZM0 33L0 35L1 35L1 34L2 34L2 33ZM6 34L6 35L7 35L7 36L6 36L6 37L7 37L7 38L6 38L6 39L7 39L7 40L6 40L6 41L5 41L5 42L6 42L6 41L7 41L7 40L8 40L8 39L9 39L9 38L8 38L8 35L7 35L7 34ZM15 34L15 35L17 35L17 34ZM35 34L35 36L37 36L37 34ZM42 34L42 36L40 36L40 37L43 37L43 36L44 36L44 35L43 35L43 34ZM33 35L33 36L32 36L32 37L33 37L33 38L35 38L35 37L33 37L33 36L34 36L34 35ZM55 35L55 37L56 37L56 35ZM14 36L14 37L15 37L15 38L16 38L16 37L15 37L15 36ZM27 37L27 38L26 38L26 40L27 40L27 41L26 41L26 42L27 42L27 41L28 41L28 39L27 39L27 38L28 38L28 37ZM7 38L7 39L8 39L8 38ZM54 38L54 39L55 39L55 38ZM23 40L23 41L24 41L24 42L25 42L25 41L24 41L24 40ZM31 40L31 41L32 41L32 42L33 42L33 41L32 41L32 40ZM45 41L45 42L46 42L46 41ZM1 42L1 43L2 43L2 42ZM51 42L51 43L50 43L50 44L49 44L49 45L50 45L50 44L51 44L51 43L53 43L53 42ZM9 43L9 44L10 44L10 43ZM11 45L11 46L12 46L12 45ZM22 45L22 46L23 46L23 45ZM41 46L41 48L39 48L39 47L38 47L38 48L37 48L37 49L38 49L38 50L41 50L41 48L42 48L42 49L43 49L43 48L42 48L42 47L43 47L43 46ZM45 46L45 47L46 47L46 48L45 48L45 50L46 50L46 49L47 49L47 48L48 48L48 47L47 47L47 46ZM51 46L51 47L53 47L53 46ZM6 48L6 49L7 49L7 48ZM38 48L38 49L39 49L39 48ZM55 48L55 50L54 50L54 51L55 51L55 50L56 50L56 48ZM27 49L27 52L30 52L30 49ZM49 49L49 52L52 52L52 49ZM28 50L28 51L29 51L29 50ZM50 50L50 51L51 51L51 50ZM14 51L14 52L13 52L13 53L16 53L16 52L15 52L15 51ZM44 52L44 53L43 53L43 54L44 54L44 53L45 53L45 52ZM11 54L11 55L13 55L13 54ZM18 54L18 55L19 55L19 54ZM41 54L41 55L42 55L42 54ZM37 55L37 56L39 56L39 55ZM50 55L50 56L51 56L51 55ZM25 56L25 57L26 57L26 56ZM0 0L0 7L7 7L7 0ZM1 1L1 6L6 6L6 1ZM2 2L2 5L5 5L5 2ZM50 0L50 7L57 7L57 0ZM51 1L51 6L56 6L56 1ZM52 2L52 5L55 5L55 2ZM0 50L0 57L7 57L7 50ZM1 51L1 56L6 56L6 51ZM2 52L2 55L5 55L5 52Z" fill="#000000"/></g></g></svg>
