<?xml version="1.0" encoding="UTF-8"?>
<svg xmlns="http://www.w3.org/2000/svg" version="1.1" width="300" height="300" viewBox="0 0 300 300"><rect x="0" y="0" width="300" height="300" fill="#fefefe"/><g transform="scale(4.615)"><g transform="translate(4,4)"><path fill-rule="evenodd" d="M9 0L9 1L8 1L8 2L9 2L9 3L8 3L8 4L9 4L9 3L11 3L11 4L10 4L10 5L8 5L8 7L9 7L9 6L10 6L10 8L6 8L6 9L9 9L9 10L11 10L11 11L12 11L12 9L14 9L14 8L16 8L16 9L19 9L19 10L18 10L18 11L17 11L17 12L16 12L16 13L15 13L15 10L13 10L13 11L14 11L14 12L13 12L13 13L15 13L15 14L12 14L12 16L13 16L13 17L12 17L12 19L13 19L13 20L12 20L12 21L13 21L13 22L12 22L12 24L10 24L10 25L9 25L9 24L8 24L8 22L9 22L9 23L11 23L11 21L10 21L10 20L11 20L11 19L9 19L9 18L8 18L8 13L9 13L9 14L10 14L10 13L9 13L9 11L7 11L7 10L6 10L6 11L7 11L7 12L6 12L6 13L7 13L7 14L6 14L6 15L7 15L7 16L6 16L6 17L5 17L5 15L2 15L2 16L1 16L1 15L0 15L0 17L2 17L2 18L4 18L4 19L3 19L3 20L2 20L2 21L4 21L4 22L2 22L2 23L4 23L4 22L6 22L6 23L5 23L5 24L1 24L1 25L4 25L4 28L3 28L3 26L2 26L2 28L3 28L3 29L1 29L1 30L0 30L0 31L4 31L4 32L5 32L5 33L4 33L4 34L3 34L3 33L2 33L2 34L1 34L1 33L0 33L0 36L1 36L1 37L0 37L0 38L3 38L3 37L4 37L4 38L5 38L5 39L10 39L10 38L9 38L9 37L11 37L11 38L12 38L12 39L13 39L13 37L12 37L12 36L13 36L13 32L14 32L14 33L15 33L15 32L17 32L17 34L14 34L14 37L15 37L15 38L16 38L16 37L15 37L15 35L17 35L17 34L18 34L18 35L19 35L19 36L17 36L17 37L18 37L18 39L17 39L17 40L16 40L16 39L14 39L14 41L10 41L10 42L9 42L9 41L8 41L8 43L7 43L7 42L6 42L6 41L7 41L7 40L4 40L4 39L2 39L2 40L1 40L1 41L0 41L0 43L1 43L1 45L0 45L0 48L5 48L5 47L7 47L7 46L9 46L9 45L7 45L7 44L10 44L10 46L11 46L11 45L12 45L12 46L13 46L13 45L14 45L14 47L13 47L13 48L14 48L14 50L13 50L13 49L11 49L11 48L12 48L12 47L11 47L11 48L10 48L10 49L8 49L8 48L6 48L6 49L8 49L8 51L10 51L10 52L11 52L11 53L9 53L9 52L8 52L8 57L9 57L9 56L14 56L14 57L16 57L16 56L17 56L17 57L21 57L21 56L19 56L19 55L20 55L20 54L18 54L18 56L17 56L17 53L20 53L20 52L23 52L23 51L19 51L19 50L20 50L20 49L21 49L21 50L25 50L25 51L26 51L26 52L24 52L24 53L23 53L23 54L21 54L21 55L23 55L23 56L24 56L24 57L26 57L26 56L27 56L27 57L29 57L29 56L30 56L30 57L31 57L31 56L35 56L35 57L40 57L40 56L41 56L41 57L44 57L44 56L45 56L45 57L46 57L46 56L45 56L45 55L44 55L44 54L45 54L45 53L44 53L44 52L45 52L45 51L43 51L43 49L44 49L44 50L46 50L46 53L47 53L47 50L48 50L48 54L47 54L47 55L48 55L48 56L50 56L50 57L52 57L52 55L51 55L51 53L52 53L52 54L53 54L53 55L54 55L54 56L53 56L53 57L54 57L54 56L55 56L55 57L56 57L56 56L55 56L55 53L56 53L56 49L57 49L57 48L56 48L56 46L57 46L57 45L56 45L56 44L57 44L57 43L56 43L56 42L55 42L55 39L57 39L57 37L56 37L56 36L57 36L57 35L56 35L56 34L55 34L55 32L56 32L56 33L57 33L57 32L56 32L56 30L57 30L57 27L56 27L56 26L57 26L57 25L56 25L56 22L57 22L57 19L56 19L56 18L57 18L57 17L56 17L56 16L57 16L57 15L56 15L56 14L57 14L57 12L56 12L56 8L55 8L55 10L54 10L54 11L53 11L53 9L54 9L54 8L53 8L53 9L52 9L52 8L51 8L51 9L52 9L52 11L50 11L50 8L49 8L49 9L47 9L47 10L44 10L44 7L45 7L45 9L46 9L46 8L47 8L47 5L48 5L48 0L46 0L46 1L45 1L45 2L44 2L44 3L42 3L42 2L43 2L43 0L41 0L41 1L40 1L40 0L39 0L39 1L38 1L38 0L37 0L37 1L38 1L38 2L39 2L39 3L41 3L41 4L40 4L40 5L39 5L39 6L38 6L38 3L36 3L36 0L35 0L35 1L33 1L33 2L32 2L32 3L31 3L31 1L32 1L32 0L27 0L27 1L26 1L26 0L23 0L23 2L22 2L22 0L21 0L21 2L22 2L22 3L23 3L23 4L22 4L22 5L23 5L23 6L22 6L22 8L23 8L23 10L22 10L22 9L21 9L21 10L20 10L20 9L19 9L19 8L21 8L21 4L19 4L19 3L20 3L20 2L19 2L19 3L18 3L18 4L17 4L17 6L16 6L16 7L15 7L15 6L14 6L14 5L13 5L13 6L12 6L12 7L11 7L11 6L10 6L10 5L12 5L12 4L14 4L14 2L15 2L15 3L16 3L16 1L14 1L14 0L13 0L13 1L12 1L12 0ZM18 0L18 1L20 1L20 0ZM9 1L9 2L10 2L10 1ZM11 1L11 2L12 2L12 1ZM13 1L13 2L14 2L14 1ZM25 1L25 2L23 2L23 3L26 3L26 4L25 4L25 8L26 8L26 4L31 4L31 8L32 8L32 10L31 10L31 11L30 11L30 10L29 10L29 9L27 9L27 10L29 10L29 12L28 12L28 13L27 13L27 14L26 14L26 12L27 12L27 11L26 11L26 12L25 12L25 10L23 10L23 12L24 12L24 13L22 13L22 12L21 12L21 11L22 11L22 10L21 10L21 11L19 11L19 12L20 12L20 14L19 14L19 15L21 15L21 16L20 16L20 18L19 18L19 17L16 17L16 16L17 16L17 13L18 13L18 12L17 12L17 13L16 13L16 16L14 16L14 15L13 15L13 16L14 16L14 17L13 17L13 19L14 19L14 20L13 20L13 21L14 21L14 22L16 22L16 21L17 21L17 20L18 20L18 18L19 18L19 19L20 19L20 21L19 21L19 22L17 22L17 24L16 24L16 23L14 23L14 24L12 24L12 25L10 25L10 26L9 26L9 27L10 27L10 28L9 28L9 29L10 29L10 28L11 28L11 30L10 30L10 33L11 33L11 36L12 36L12 33L11 33L11 32L12 32L12 30L13 30L13 31L14 31L14 30L15 30L15 29L16 29L16 30L18 30L18 29L20 29L20 30L19 30L19 32L21 32L21 33L20 33L20 34L19 34L19 33L18 33L18 34L19 34L19 35L21 35L21 33L22 33L22 34L23 34L23 35L22 35L22 36L19 36L19 37L21 37L21 38L24 38L24 37L23 37L23 36L24 36L24 34L23 34L23 33L25 33L25 35L26 35L26 36L25 36L25 38L26 38L26 36L27 36L27 37L28 37L28 38L27 38L27 39L28 39L28 40L29 40L29 41L27 41L27 40L26 40L26 39L25 39L25 40L24 40L24 39L21 39L21 40L19 40L19 41L18 41L18 40L17 40L17 41L15 41L15 42L14 42L14 43L15 43L15 46L16 46L16 47L14 47L14 48L16 48L16 49L15 49L15 50L14 50L14 51L13 51L13 50L12 50L12 51L13 51L13 52L12 52L12 54L13 54L13 55L14 55L14 53L13 53L13 52L14 52L14 51L15 51L15 50L17 50L17 51L18 51L18 52L19 52L19 51L18 51L18 50L17 50L17 45L18 45L18 44L17 44L17 45L16 45L16 43L15 43L15 42L17 42L17 43L18 43L18 42L19 42L19 44L20 44L20 42L21 42L21 43L22 43L22 42L23 42L23 45L22 45L22 44L21 44L21 45L20 45L20 48L19 48L19 49L20 49L20 48L21 48L21 49L23 49L23 47L25 47L25 48L24 48L24 49L25 49L25 50L26 50L26 49L25 49L25 48L29 48L29 45L27 45L27 44L25 44L25 43L27 43L27 42L30 42L30 40L32 40L32 41L31 41L31 42L32 42L32 43L29 43L29 44L32 44L32 45L31 45L31 46L32 46L32 45L33 45L33 46L35 46L35 45L34 45L34 43L35 43L35 44L36 44L36 43L37 43L37 42L35 42L35 40L38 40L38 42L39 42L39 41L41 41L41 40L44 40L44 41L43 41L43 42L44 42L44 45L43 45L43 46L41 46L41 44L42 44L42 42L40 42L40 43L39 43L39 45L38 45L38 46L39 46L39 47L38 47L38 48L37 48L37 49L38 49L38 50L36 50L36 49L34 49L34 48L36 48L36 47L33 47L33 48L31 48L31 49L33 49L33 50L36 50L36 52L37 52L37 51L38 51L38 52L39 52L39 53L37 53L37 54L40 54L40 53L42 53L42 50L41 50L41 48L42 48L42 49L43 49L43 48L44 48L44 49L46 49L46 50L47 50L47 49L48 49L48 48L49 48L49 47L51 47L51 45L52 45L52 47L55 47L55 46L56 46L56 45L55 45L55 44L54 44L54 45L55 45L55 46L53 46L53 45L52 45L52 44L53 44L53 43L54 43L54 42L53 42L53 41L51 41L51 42L50 42L50 43L48 43L48 44L47 44L47 45L45 45L45 44L46 44L46 43L47 43L47 42L48 42L48 41L49 41L49 36L50 36L50 39L51 39L51 40L53 40L53 39L55 39L55 37L53 37L53 35L55 35L55 36L56 36L56 35L55 35L55 34L54 34L54 32L53 32L53 31L55 31L55 30L54 30L54 29L55 29L55 28L56 28L56 27L55 27L55 28L54 28L54 29L53 29L53 31L50 31L50 32L49 32L49 31L48 31L48 28L47 28L47 29L46 29L46 30L47 30L47 31L46 31L46 32L47 32L47 33L45 33L45 32L43 32L43 31L44 31L44 29L45 29L45 28L46 28L46 27L47 27L47 25L48 25L48 24L49 24L49 25L50 25L50 26L51 26L51 25L55 25L55 26L56 26L56 25L55 25L55 24L53 24L53 23L55 23L55 22L56 22L56 21L55 21L55 20L56 20L56 19L55 19L55 20L53 20L53 19L52 19L52 18L55 18L55 17L53 17L53 16L50 16L50 18L47 18L47 17L49 17L49 15L50 15L50 14L51 14L51 12L50 12L50 11L49 11L49 10L48 10L48 11L49 11L49 12L45 12L45 11L44 11L44 10L41 10L41 9L42 9L42 8L41 8L41 7L42 7L42 6L43 6L43 7L44 7L44 6L45 6L45 7L46 7L46 6L45 6L45 5L47 5L47 3L44 3L44 6L43 6L43 5L42 5L42 6L41 6L41 5L40 5L40 6L39 6L39 9L38 9L38 6L37 6L37 7L36 7L36 5L37 5L37 4L36 4L36 5L35 5L35 3L32 3L32 4L31 4L31 3L30 3L30 1L27 1L27 2L26 2L26 1ZM46 1L46 2L47 2L47 1ZM28 2L28 3L29 3L29 2ZM15 4L15 5L16 5L16 4ZM18 4L18 6L17 6L17 7L16 7L16 8L17 8L17 7L18 7L18 6L19 6L19 7L20 7L20 5L19 5L19 4ZM23 4L23 5L24 5L24 4ZM32 4L32 5L33 5L33 4ZM27 5L27 8L30 8L30 5ZM34 5L34 7L33 7L33 6L32 6L32 7L33 7L33 9L34 9L34 8L35 8L35 9L37 9L37 10L36 10L36 11L35 11L35 13L37 13L37 14L38 14L38 15L39 15L39 16L38 16L38 17L37 17L37 16L35 16L35 14L32 14L32 13L30 13L30 14L29 14L29 13L28 13L28 14L29 14L29 16L28 16L28 15L27 15L27 16L28 16L28 17L22 17L22 16L21 16L21 17L22 17L22 18L20 18L20 19L21 19L21 20L22 20L22 18L24 18L24 19L23 19L23 20L24 20L24 21L23 21L23 22L22 22L22 23L21 23L21 24L17 24L17 27L16 27L16 29L18 29L18 28L17 28L17 27L18 27L18 26L19 26L19 27L20 27L20 29L22 29L22 28L21 28L21 27L22 27L22 26L23 26L23 27L25 27L25 28L24 28L24 29L23 29L23 30L24 30L24 31L25 31L25 32L26 32L26 35L27 35L27 32L28 32L28 33L29 33L29 34L30 34L30 36L29 36L29 37L31 37L31 38L29 38L29 39L33 39L33 40L35 40L35 39L37 39L37 38L38 38L38 40L40 40L40 39L39 39L39 38L38 38L38 37L37 37L37 36L38 36L38 33L37 33L37 32L35 32L35 31L36 31L36 30L32 30L32 31L31 31L31 29L32 29L32 27L33 27L33 28L35 28L35 29L38 29L38 28L40 28L40 27L41 27L41 28L42 28L42 27L41 27L41 26L44 26L44 28L43 28L43 29L39 29L39 30L38 30L38 32L39 32L39 31L41 31L41 30L43 30L43 29L44 29L44 28L45 28L45 25L46 25L46 24L47 24L47 22L49 22L49 21L51 21L51 22L50 22L50 23L49 23L49 24L50 24L50 25L51 25L51 24L52 24L52 23L53 23L53 21L51 21L51 20L52 20L52 19L49 19L49 21L47 21L47 22L45 22L45 23L46 23L46 24L45 24L45 25L44 25L44 20L45 20L45 21L46 21L46 20L47 20L47 19L46 19L46 18L44 18L44 15L46 15L46 16L45 16L45 17L46 17L46 16L48 16L48 15L49 15L49 14L50 14L50 12L49 12L49 13L47 13L47 14L43 14L43 13L44 13L44 12L43 12L43 13L41 13L41 14L40 14L40 15L39 15L39 14L38 14L38 13L40 13L40 12L41 12L41 10L40 10L40 9L39 9L39 10L38 10L38 9L37 9L37 8L35 8L35 5ZM13 6L13 7L14 7L14 6ZM23 6L23 8L24 8L24 6ZM28 6L28 7L29 7L29 6ZM40 6L40 7L41 7L41 6ZM48 6L48 7L49 7L49 6ZM0 8L0 9L1 9L1 11L0 11L0 13L1 13L1 12L2 12L2 9L5 9L5 8ZM11 8L11 9L12 9L12 8ZM3 10L3 12L4 12L4 10ZM32 10L32 11L31 11L31 12L33 12L33 13L34 13L34 12L33 12L33 10ZM37 10L37 11L38 11L38 10ZM39 10L39 12L40 12L40 10ZM7 12L7 13L8 13L8 12ZM11 12L11 13L12 13L12 12ZM52 12L52 13L53 13L53 15L54 15L54 13L55 13L55 14L56 14L56 13L55 13L55 12L54 12L54 13L53 13L53 12ZM4 13L4 14L5 14L5 13ZM21 13L21 15L24 15L24 14L25 14L25 16L26 16L26 14L25 14L25 13L24 13L24 14L22 14L22 13ZM30 14L30 15L32 15L32 14ZM41 14L41 16L39 16L39 17L38 17L38 18L37 18L37 17L35 17L35 16L31 16L31 18L30 18L30 19L31 19L31 18L32 18L32 19L33 19L33 18L34 18L34 19L36 19L36 20L37 20L37 21L38 21L38 22L37 22L37 24L38 24L38 26L37 26L37 25L33 25L33 24L32 24L32 23L33 23L33 22L34 22L34 23L35 23L35 20L34 20L34 21L33 21L33 20L32 20L32 21L31 21L31 20L29 20L29 19L28 19L28 18L26 18L26 20L25 20L25 21L24 21L24 22L23 22L23 23L24 23L24 24L25 24L25 25L26 25L26 26L25 26L25 27L26 27L26 26L27 26L27 25L29 25L29 26L30 26L30 25L29 25L29 23L28 23L28 22L29 22L29 21L31 21L31 22L30 22L30 23L31 23L31 24L32 24L32 26L31 26L31 27L32 27L32 26L33 26L33 27L34 27L34 26L36 26L36 27L35 27L35 28L37 28L37 27L39 27L39 25L42 25L42 24L43 24L43 22L41 22L41 23L42 23L42 24L38 24L38 23L40 23L40 22L39 22L39 21L43 21L43 20L44 20L44 18L43 18L43 19L42 19L42 18L41 18L41 20L39 20L39 21L38 21L38 19L39 19L39 17L41 17L41 16L42 16L42 17L43 17L43 16L42 16L42 15L43 15L43 14ZM9 15L9 17L10 17L10 18L11 18L11 17L10 17L10 15ZM2 16L2 17L4 17L4 16ZM6 17L6 18L5 18L5 19L6 19L6 20L8 20L8 18L7 18L7 17ZM32 17L32 18L33 18L33 17ZM6 18L6 19L7 19L7 18ZM15 18L15 21L16 21L16 19L17 19L17 18ZM45 19L45 20L46 20L46 19ZM0 20L0 22L1 22L1 20ZM4 20L4 21L5 21L5 20ZM6 21L6 22L7 22L7 21ZM9 21L9 22L10 22L10 21ZM25 21L25 22L26 22L26 23L25 23L25 24L28 24L28 23L27 23L27 21ZM19 22L19 23L20 23L20 22ZM6 23L6 24L5 24L5 25L6 25L6 26L7 26L7 25L6 25L6 24L7 24L7 23ZM50 23L50 24L51 24L51 23ZM21 24L21 25L19 25L19 26L20 26L20 27L21 27L21 25L23 25L23 24ZM12 25L12 27L11 27L11 26L10 26L10 27L11 27L11 28L14 28L14 27L13 27L13 25ZM0 26L0 28L1 28L1 26ZM53 26L53 27L54 27L54 26ZM5 27L5 30L8 30L8 27ZM27 27L27 30L30 30L30 27ZM49 27L49 30L52 30L52 27ZM6 28L6 29L7 29L7 28ZM25 28L25 29L26 29L26 28ZM28 28L28 29L29 29L29 28ZM50 28L50 29L51 29L51 28ZM3 29L3 30L4 30L4 29ZM6 31L6 32L9 32L9 31ZM17 31L17 32L18 32L18 31ZM21 31L21 32L23 32L23 31ZM30 31L30 32L29 32L29 33L31 33L31 31ZM32 31L32 34L31 34L31 35L33 35L33 36L32 36L32 37L33 37L33 39L34 39L34 38L35 38L35 37L33 37L33 36L34 36L34 35L35 35L35 36L37 36L37 34L35 34L35 33L33 33L33 32L34 32L34 31ZM47 31L47 32L48 32L48 33L49 33L49 32L48 32L48 31ZM41 32L41 33L39 33L39 34L40 34L40 35L39 35L39 37L40 37L40 38L41 38L41 39L42 39L42 38L43 38L43 37L44 37L44 38L45 38L45 39L44 39L44 40L45 40L45 41L47 41L47 39L48 39L48 38L47 38L47 39L46 39L46 38L45 38L45 37L46 37L46 36L48 36L48 35L50 35L50 36L51 36L51 37L52 37L52 35L53 35L53 34L52 34L52 33L53 33L53 32L52 32L52 33L51 33L51 32L50 32L50 34L48 34L48 35L46 35L46 34L45 34L45 33L43 33L43 32ZM5 33L5 34L4 34L4 35L1 35L1 36L5 36L5 38L7 38L7 37L9 37L9 36L10 36L10 34L9 34L9 33ZM6 34L6 35L5 35L5 36L6 36L6 37L7 37L7 36L6 36L6 35L8 35L8 36L9 36L9 34ZM33 34L33 35L34 35L34 34ZM42 34L42 35L41 35L41 36L40 36L40 37L41 37L41 38L42 38L42 37L43 37L43 36L44 36L44 37L45 37L45 36L44 36L44 35L45 35L45 34ZM50 34L50 35L52 35L52 34ZM41 36L41 37L42 37L42 36ZM19 38L19 39L20 39L20 38ZM2 40L2 41L4 41L4 42L5 42L5 44L4 44L4 43L2 43L2 42L1 42L1 43L2 43L2 46L1 46L1 47L2 47L2 46L3 46L3 47L5 47L5 46L7 46L7 45L6 45L6 44L7 44L7 43L6 43L6 42L5 42L5 41L4 41L4 40ZM17 41L17 42L18 42L18 41ZM19 41L19 42L20 42L20 41ZM23 41L23 42L25 42L25 41ZM26 41L26 42L27 42L27 41ZM32 41L32 42L33 42L33 43L32 43L32 44L33 44L33 43L34 43L34 42L33 42L33 41ZM12 42L12 43L10 43L10 44L12 44L12 43L13 43L13 42ZM51 42L51 43L50 43L50 44L51 44L51 43L53 43L53 42ZM40 43L40 44L41 44L41 43ZM24 44L24 45L23 45L23 46L22 46L22 45L21 45L21 47L23 47L23 46L25 46L25 44ZM3 45L3 46L5 46L5 45ZM26 45L26 47L28 47L28 46L27 46L27 45ZM47 45L47 46L45 46L45 47L44 47L44 46L43 46L43 47L42 47L42 48L43 48L43 47L44 47L44 48L46 48L46 49L47 49L47 48L48 48L48 47L49 47L49 46L50 46L50 45ZM40 46L40 47L39 47L39 48L38 48L38 49L39 49L39 48L41 48L41 46ZM47 46L47 47L48 47L48 46ZM53 48L53 49L56 49L56 48ZM27 49L27 52L30 52L30 49ZM49 49L49 52L52 52L52 49ZM10 50L10 51L11 51L11 50ZM28 50L28 51L29 51L29 50ZM31 50L31 53L30 53L30 54L27 54L27 53L26 53L26 54L25 54L25 53L24 53L24 54L23 54L23 55L24 55L24 56L26 56L26 54L27 54L27 56L29 56L29 55L30 55L30 56L31 56L31 54L32 54L32 53L33 53L33 54L34 54L34 55L35 55L35 56L36 56L36 54L35 54L35 53L33 53L33 52L32 52L32 50ZM38 50L38 51L40 51L40 52L41 52L41 50ZM50 50L50 51L51 51L51 50ZM54 50L54 51L55 51L55 50ZM16 52L16 53L15 53L15 54L16 54L16 53L17 53L17 52ZM53 52L53 53L54 53L54 52ZM43 53L43 54L44 54L44 53ZM9 54L9 55L11 55L11 54ZM41 54L41 55L42 55L42 56L44 56L44 55L42 55L42 54ZM15 55L15 56L16 56L16 55ZM37 55L37 56L40 56L40 55ZM50 55L50 56L51 56L51 55ZM0 0L0 7L7 7L7 0ZM1 1L1 6L6 6L6 1ZM2 2L2 5L5 5L5 2ZM50 0L50 7L57 7L57 0ZM51 1L51 6L56 6L56 1ZM52 2L52 5L55 5L55 2ZM0 50L0 57L7 57L7 50ZM1 51L1 56L6 56L6 51ZM2 52L2 55L5 55L5 52Z" fill="#000000"/></g></g></svg>
