<?xml version="1.0" encoding="UTF-8"?>
<svg xmlns="http://www.w3.org/2000/svg" version="1.1" width="300" height="300" viewBox="0 0 300 300"><rect x="0" y="0" width="300" height="300" fill="#fefefe"/><g transform="scale(4.615)"><g transform="translate(4,4)"><path fill-rule="evenodd" d="M8 0L8 2L10 2L10 1L11 1L11 3L9 3L9 4L8 4L8 12L9 12L9 11L11 11L11 12L12 12L12 13L7 13L7 12L6 12L6 11L7 11L7 10L5 10L5 9L7 9L7 8L5 8L5 9L4 9L4 10L5 10L5 13L7 13L7 14L4 14L4 15L5 15L5 17L8 17L8 20L5 20L5 22L6 22L6 23L4 23L4 21L3 21L3 22L2 22L2 21L0 21L0 24L1 24L1 27L0 27L0 28L1 28L1 27L2 27L2 28L3 28L3 30L0 30L0 32L1 32L1 31L3 31L3 32L4 32L4 31L5 31L5 33L0 33L0 34L1 34L1 35L0 35L0 37L1 37L1 36L4 36L4 37L5 37L5 36L4 36L4 34L6 34L6 35L7 35L7 36L6 36L6 37L7 37L7 38L5 38L5 39L4 39L4 40L5 40L5 41L2 41L2 42L4 42L4 43L3 43L3 44L2 44L2 43L1 43L1 42L0 42L0 43L1 43L1 44L0 44L0 45L1 45L1 44L2 44L2 47L1 47L1 46L0 46L0 48L5 48L5 47L8 47L8 45L9 45L9 44L10 44L10 45L12 45L12 46L11 46L11 47L10 47L10 48L6 48L6 49L8 49L8 50L10 50L10 48L11 48L11 51L12 51L12 49L14 49L14 50L15 50L15 48L16 48L16 47L18 47L18 50L17 50L17 51L18 51L18 54L17 54L17 52L13 52L13 54L14 54L14 55L11 55L11 54L12 54L12 52L10 52L10 51L8 51L8 52L9 52L9 53L11 53L11 54L10 54L10 57L11 57L11 56L12 56L12 57L15 57L15 56L16 56L16 57L17 57L17 55L18 55L18 57L20 57L20 56L19 56L19 55L18 55L18 54L19 54L19 52L20 52L20 53L21 53L21 54L20 54L20 55L21 55L21 56L22 56L22 57L23 57L23 56L24 56L24 57L25 57L25 56L26 56L26 57L28 57L28 55L29 55L29 57L33 57L33 55L34 55L34 57L35 57L35 55L37 55L37 54L36 54L36 53L37 53L37 51L38 51L38 53L39 53L39 56L40 56L40 57L41 57L41 56L44 56L44 57L46 57L46 56L44 56L44 55L47 55L47 57L48 57L48 55L49 55L49 57L50 57L50 55L49 55L49 54L52 54L52 55L53 55L53 56L51 56L51 57L53 57L53 56L54 56L54 55L57 55L57 54L54 54L54 53L55 53L55 52L56 52L56 53L57 53L57 52L56 52L56 51L57 51L57 50L56 50L56 47L57 47L57 44L56 44L56 47L55 47L55 48L54 48L54 47L53 47L53 46L54 46L54 45L53 45L53 46L52 46L52 47L51 47L51 45L50 45L50 44L52 44L52 40L53 40L53 44L54 44L54 43L55 43L55 42L56 42L56 43L57 43L57 42L56 42L56 41L57 41L57 40L54 40L54 39L55 39L55 38L57 38L57 37L56 37L56 36L54 36L54 34L53 34L53 36L51 36L51 33L50 33L50 31L51 31L51 32L52 32L52 31L53 31L53 33L56 33L56 35L57 35L57 33L56 33L56 31L57 31L57 28L56 28L56 27L57 27L57 24L56 24L56 23L57 23L57 13L56 13L56 12L55 12L55 13L56 13L56 15L55 15L55 16L54 16L54 13L53 13L53 12L54 12L54 11L55 11L55 10L56 10L56 11L57 11L57 10L56 10L56 9L57 9L57 8L55 8L55 9L54 9L54 10L52 10L52 9L53 9L53 8L49 8L49 6L48 6L48 8L49 8L49 10L48 10L48 11L46 11L46 13L45 13L45 12L44 12L44 13L43 13L43 14L44 14L44 13L45 13L45 15L46 15L46 17L45 17L45 16L44 16L44 15L43 15L43 16L44 16L44 17L43 17L43 18L42 18L42 17L41 17L41 15L42 15L42 12L43 12L43 10L44 10L44 9L45 9L45 10L46 10L46 9L47 9L47 5L48 5L48 0L46 0L46 1L47 1L47 2L45 2L45 4L44 4L44 2L43 2L43 3L42 3L42 5L41 5L41 6L40 6L40 7L41 7L41 8L40 8L40 9L39 9L39 6L38 6L38 7L37 7L37 6L36 6L36 10L34 10L34 9L35 9L35 4L36 4L36 3L35 3L35 2L37 2L37 4L38 4L38 5L39 5L39 4L40 4L40 2L42 2L42 1L45 1L45 0L42 0L42 1L41 1L41 0L38 0L38 2L37 2L37 1L35 1L35 0L34 0L34 8L32 8L32 9L31 9L31 5L32 5L32 1L33 1L33 0L32 0L32 1L31 1L31 0L30 0L30 1L29 1L29 2L30 2L30 3L29 3L29 4L26 4L26 3L27 3L27 2L28 2L28 0L26 0L26 2L25 2L25 4L24 4L24 1L25 1L25 0L24 0L24 1L23 1L23 0L20 0L20 1L19 1L19 0L16 0L16 3L15 3L15 1L14 1L14 0L13 0L13 1L12 1L12 0L10 0L10 1L9 1L9 0ZM13 1L13 2L12 2L12 3L14 3L14 4L15 4L15 3L14 3L14 1ZM17 1L17 2L18 2L18 4L17 4L17 3L16 3L16 4L17 4L17 5L16 5L16 6L15 6L15 7L14 7L14 5L13 5L13 7L12 7L12 6L11 6L11 5L10 5L10 6L9 6L9 7L10 7L10 6L11 6L11 7L12 7L12 8L9 8L9 9L10 9L10 10L11 10L11 11L12 11L12 12L13 12L13 14L12 14L12 15L11 15L11 14L10 14L10 15L9 15L9 14L8 14L8 15L9 15L9 16L8 16L8 17L9 17L9 19L10 19L10 20L8 20L8 21L6 21L6 22L7 22L7 23L6 23L6 24L3 24L3 23L1 23L1 24L3 24L3 25L4 25L4 26L3 26L3 27L4 27L4 26L8 26L8 25L9 25L9 23L8 23L8 22L12 22L12 21L11 21L11 19L13 19L13 18L17 18L17 21L18 21L18 22L16 22L16 23L17 23L17 25L16 25L16 24L14 24L14 23L15 23L15 21L14 21L14 23L10 23L10 24L11 24L11 25L10 25L10 28L9 28L9 33L8 33L8 32L7 32L7 31L6 31L6 32L7 32L7 33L6 33L6 34L7 34L7 35L8 35L8 34L9 34L9 33L10 33L10 34L12 34L12 33L11 33L11 32L12 32L12 31L10 31L10 30L13 30L13 34L15 34L15 32L16 32L16 35L15 35L15 37L14 37L14 38L12 38L12 40L14 40L14 41L12 41L12 42L11 42L11 39L9 39L9 41L8 41L8 42L9 42L9 43L8 43L8 44L9 44L9 43L10 43L10 44L11 44L11 43L13 43L13 46L12 46L12 47L11 47L11 48L13 48L13 47L14 47L14 46L15 46L15 45L16 45L16 46L17 46L17 44L16 44L16 42L18 42L18 40L19 40L19 37L18 37L18 35L17 35L17 33L18 33L18 34L19 34L19 33L18 33L18 31L19 31L19 32L20 32L20 31L21 31L21 33L20 33L20 36L21 36L21 38L20 38L20 39L22 39L22 38L23 38L23 40L24 40L24 43L23 43L23 41L22 41L22 40L21 40L21 41L20 41L20 43L18 43L18 44L20 44L20 43L21 43L21 45L20 45L20 46L22 46L22 48L21 48L21 47L19 47L19 45L18 45L18 47L19 47L19 49L20 49L20 51L21 51L21 52L22 52L22 51L23 51L23 52L24 52L24 51L25 51L25 53L26 53L26 54L24 54L24 55L26 55L26 54L27 54L27 55L28 55L28 53L26 53L26 51L25 51L25 50L26 50L26 48L27 48L27 46L26 46L26 45L24 45L24 48L23 48L23 44L25 44L25 42L26 42L26 41L25 41L25 40L26 40L26 39L27 39L27 41L28 41L28 42L27 42L27 43L29 43L29 44L28 44L28 47L29 47L29 48L31 48L31 52L32 52L32 48L31 48L31 47L30 47L30 46L32 46L32 40L33 40L33 41L34 41L34 42L35 42L35 41L36 41L36 44L33 44L33 45L34 45L34 47L33 47L33 48L34 48L34 50L33 50L33 51L34 51L34 52L35 52L35 53L34 53L34 54L35 54L35 53L36 53L36 52L35 52L35 51L37 51L37 49L36 49L36 48L37 48L37 47L38 47L38 51L39 51L39 49L40 49L40 51L41 51L41 52L42 52L42 54L43 54L43 55L44 55L44 52L42 52L42 51L41 51L41 49L42 49L42 50L43 50L43 51L44 51L44 48L45 48L45 49L46 49L46 50L45 50L45 51L46 51L46 50L47 50L47 46L48 46L48 45L47 45L47 44L48 44L48 42L49 42L49 44L50 44L50 42L49 42L49 41L51 41L51 40L52 40L52 38L53 38L53 37L54 37L54 38L55 38L55 37L54 37L54 36L53 36L53 37L52 37L52 38L51 38L51 36L50 36L50 33L49 33L49 36L48 36L48 35L46 35L46 34L48 34L48 33L46 33L46 34L45 34L45 33L44 33L44 34L43 34L43 33L42 33L42 31L45 31L45 30L46 30L46 31L47 31L47 29L48 29L48 28L46 28L46 29L44 29L44 27L45 27L45 26L44 26L44 24L45 24L45 25L46 25L46 26L47 26L47 27L48 27L48 26L49 26L49 25L48 25L48 26L47 26L47 17L46 17L46 20L45 20L45 21L44 21L44 19L45 19L45 17L44 17L44 19L43 19L43 20L42 20L42 19L41 19L41 18L40 18L40 14L41 14L41 13L40 13L40 12L37 12L37 11L38 11L38 10L39 10L39 11L40 11L40 10L39 10L39 9L38 9L38 8L37 8L37 9L38 9L38 10L37 10L37 11L36 11L36 12L35 12L35 11L34 11L34 10L33 10L33 9L32 9L32 11L31 11L31 12L30 12L30 11L29 11L29 9L28 9L28 10L25 10L25 9L26 9L26 5L24 5L24 6L23 6L23 8L24 8L24 10L23 10L23 9L22 9L22 5L23 5L23 1L22 1L22 2L21 2L21 3L20 3L20 2L19 2L19 1ZM30 1L30 2L31 2L31 1ZM39 1L39 2L38 2L38 4L39 4L39 2L40 2L40 1ZM46 3L46 4L45 4L45 5L44 5L44 4L43 4L43 5L44 5L44 6L43 6L43 7L42 7L42 6L41 6L41 7L42 7L42 8L41 8L41 9L42 9L42 10L43 10L43 9L44 9L44 8L45 8L45 9L46 9L46 8L45 8L45 7L46 7L46 5L47 5L47 3ZM18 4L18 9L17 9L17 10L16 10L16 9L15 9L15 8L14 8L14 7L13 7L13 8L14 8L14 9L15 9L15 10L16 10L16 12L17 12L17 14L15 14L15 15L17 15L17 16L18 16L18 17L19 17L19 18L18 18L18 19L20 19L20 21L21 21L21 22L20 22L20 23L21 23L21 24L22 24L22 25L21 25L21 26L20 26L20 25L19 25L19 24L18 24L18 26L20 26L20 27L21 27L21 28L19 28L19 27L18 27L18 28L19 28L19 31L20 31L20 29L21 29L21 30L22 30L22 33L23 33L23 35L22 35L22 34L21 34L21 35L22 35L22 37L23 37L23 35L25 35L25 36L24 36L24 37L26 37L26 38L24 38L24 39L26 39L26 38L27 38L27 36L28 36L28 37L29 37L29 36L28 36L28 35L31 35L31 36L30 36L30 40L28 40L28 41L29 41L29 42L30 42L30 43L31 43L31 42L30 42L30 40L31 40L31 38L33 38L33 39L34 39L34 41L35 41L35 38L36 38L36 41L37 41L37 42L38 42L38 41L39 41L39 40L40 40L40 41L41 41L41 42L40 42L40 45L39 45L39 46L40 46L40 45L41 45L41 47L40 47L40 49L41 49L41 47L42 47L42 45L43 45L43 44L42 44L42 45L41 45L41 43L44 43L44 45L45 45L45 46L44 46L44 47L46 47L46 44L47 44L47 43L45 43L45 41L46 41L46 40L47 40L47 41L48 41L48 40L51 40L51 38L50 38L50 36L49 36L49 37L48 37L48 36L46 36L46 37L45 37L45 34L44 34L44 38L43 38L43 39L42 39L42 36L41 36L41 35L40 35L40 36L39 36L39 38L38 38L38 37L37 37L37 36L38 36L38 35L39 35L39 34L38 34L38 33L39 33L39 32L40 32L40 34L42 34L42 33L41 33L41 32L40 32L40 31L38 31L38 30L37 30L37 28L38 28L38 29L39 29L39 30L40 30L40 29L41 29L41 31L42 31L42 28L43 28L43 27L44 27L44 26L43 26L43 27L42 27L42 24L43 24L43 22L44 22L44 23L45 23L45 24L46 24L46 23L45 23L45 22L44 22L44 21L43 21L43 22L42 22L42 20L41 20L41 19L40 19L40 18L38 18L38 16L37 16L37 15L38 15L38 13L37 13L37 12L36 12L36 13L37 13L37 14L36 14L36 18L35 18L35 19L34 19L34 17L35 17L35 15L34 15L34 13L35 13L35 12L34 12L34 11L33 11L33 12L32 12L32 14L31 14L31 16L30 16L30 15L29 15L29 13L30 13L30 12L29 12L29 11L28 11L28 12L27 12L27 14L25 14L25 16L26 16L26 18L24 18L24 16L22 16L22 14L21 14L21 16L20 16L20 13L21 13L21 12L20 12L20 11L19 11L19 10L20 10L20 9L21 9L21 5L20 5L20 7L19 7L19 4ZM27 5L27 8L30 8L30 5ZM16 6L16 7L17 7L17 6ZM24 6L24 7L25 7L25 6ZM28 6L28 7L29 7L29 6ZM32 6L32 7L33 7L33 6ZM44 6L44 7L45 7L45 6ZM0 8L0 9L1 9L1 10L0 10L0 17L1 17L1 16L3 16L3 18L4 18L4 16L3 16L3 14L2 14L2 15L1 15L1 11L2 11L2 12L3 12L3 13L4 13L4 11L2 11L2 9L3 9L3 8ZM19 8L19 9L18 9L18 10L19 10L19 9L20 9L20 8ZM11 9L11 10L12 10L12 11L13 11L13 10L12 10L12 9ZM30 9L30 10L31 10L31 9ZM50 9L50 10L49 10L49 11L48 11L48 14L47 14L47 13L46 13L46 15L48 15L48 14L49 14L49 13L50 13L50 16L51 16L51 17L50 17L50 18L49 18L49 17L48 17L48 18L49 18L49 19L48 19L48 23L49 23L49 22L50 22L50 24L51 24L51 25L50 25L50 26L53 26L53 25L52 25L52 23L53 23L53 22L54 22L54 24L55 24L55 25L54 25L54 26L55 26L55 27L54 27L54 28L53 28L53 29L54 29L54 32L55 32L55 31L56 31L56 30L55 30L55 27L56 27L56 26L55 26L55 25L56 25L56 24L55 24L55 23L56 23L56 20L55 20L55 19L56 19L56 18L55 18L55 19L54 19L54 16L53 16L53 14L52 14L52 13L50 13L50 10L51 10L51 12L52 12L52 10L51 10L51 9ZM24 10L24 12L23 12L23 11L22 11L22 12L23 12L23 14L24 14L24 13L26 13L26 11L25 11L25 10ZM14 11L14 12L15 12L15 11ZM18 11L18 12L19 12L19 13L18 13L18 14L17 14L17 15L18 15L18 16L19 16L19 17L20 17L20 18L21 18L21 17L20 17L20 16L19 16L19 15L18 15L18 14L19 14L19 13L20 13L20 12L19 12L19 11ZM41 11L41 12L42 12L42 11ZM39 13L39 14L40 14L40 13ZM27 14L27 15L26 15L26 16L27 16L27 18L26 18L26 20L25 20L25 19L24 19L24 20L25 20L25 21L26 21L26 20L27 20L27 22L26 22L26 23L27 23L27 25L26 25L26 26L29 26L29 25L28 25L28 24L29 24L29 23L31 23L31 24L30 24L30 26L31 26L31 25L32 25L32 28L31 28L31 29L32 29L32 31L31 31L31 32L30 32L30 31L29 31L29 32L26 32L26 30L25 30L25 28L24 28L24 26L25 26L25 25L24 25L24 24L23 24L23 23L22 23L22 22L21 22L21 23L22 23L22 24L23 24L23 25L24 25L24 26L23 26L23 27L22 27L22 28L24 28L24 30L23 30L23 29L22 29L22 30L23 30L23 31L25 31L25 32L24 32L24 34L26 34L26 36L27 36L27 35L28 35L28 34L29 34L29 32L30 32L30 34L32 34L32 35L33 35L33 36L34 36L34 38L35 38L35 37L36 37L36 38L37 38L37 37L36 37L36 35L38 35L38 34L37 34L37 33L36 33L36 31L37 31L37 32L38 32L38 31L37 31L37 30L36 30L36 28L37 28L37 26L36 26L36 24L37 24L37 25L38 25L38 26L39 26L39 29L40 29L40 28L41 28L41 27L40 27L40 26L41 26L41 25L40 25L40 24L39 24L39 23L41 23L41 24L42 24L42 23L41 23L41 22L40 22L40 19L39 19L39 21L38 21L38 20L37 20L37 21L36 21L36 20L35 20L35 21L34 21L34 19L33 19L33 21L32 21L32 20L30 20L30 19L31 19L31 17L32 17L32 16L33 16L33 17L34 17L34 15L33 15L33 14L32 14L32 16L31 16L31 17L30 17L30 16L29 16L29 15L28 15L28 14ZM51 14L51 15L52 15L52 14ZM6 15L6 16L7 16L7 15ZM13 15L13 16L14 16L14 17L15 17L15 16L14 16L14 15ZM9 16L9 17L11 17L11 18L12 18L12 16ZM52 16L52 18L53 18L53 16ZM55 16L55 17L56 17L56 16ZM28 17L28 18L30 18L30 17ZM0 18L0 20L1 20L1 19L2 19L2 20L3 20L3 19L2 19L2 18ZM5 18L5 19L7 19L7 18ZM22 18L22 19L21 19L21 21L22 21L22 20L23 20L23 18ZM36 18L36 19L37 19L37 18ZM50 18L50 19L49 19L49 20L51 20L51 18ZM14 19L14 20L15 20L15 19ZM53 19L53 20L52 20L52 22L51 22L51 23L52 23L52 22L53 22L53 21L54 21L54 22L55 22L55 21L54 21L54 19ZM18 20L18 21L19 21L19 20ZM28 20L28 21L29 21L29 22L28 22L28 23L29 23L29 22L30 22L30 20ZM33 21L33 22L31 22L31 23L32 23L32 25L33 25L33 26L34 26L34 24L36 24L36 23L39 23L39 22L38 22L38 21L37 21L37 22L36 22L36 21L35 21L35 22L34 22L34 21ZM18 22L18 23L19 23L19 22ZM24 22L24 23L25 23L25 22ZM33 22L33 24L34 24L34 22ZM35 22L35 23L36 23L36 22ZM7 23L7 24L6 24L6 25L8 25L8 23ZM12 25L12 26L11 26L11 28L10 28L10 29L11 29L11 28L12 28L12 29L13 29L13 30L14 30L14 27L16 27L16 28L17 28L17 27L16 27L16 25L15 25L15 26L14 26L14 25ZM39 25L39 26L40 26L40 25ZM12 26L12 28L13 28L13 26ZM5 27L5 30L8 30L8 27ZM27 27L27 30L30 30L30 27ZM34 27L34 29L33 29L33 28L32 28L32 29L33 29L33 31L32 31L32 34L33 34L33 35L34 35L34 36L35 36L35 35L36 35L36 33L35 33L35 35L34 35L34 32L33 32L33 31L34 31L34 29L35 29L35 28L36 28L36 27ZM49 27L49 30L52 30L52 27ZM6 28L6 29L7 29L7 28ZM28 28L28 29L29 29L29 28ZM50 28L50 29L51 29L51 28ZM15 30L15 31L14 31L14 32L15 32L15 31L16 31L16 32L17 32L17 31L18 31L18 30L17 30L17 31L16 31L16 30ZM35 30L35 31L36 31L36 30ZM25 32L25 33L26 33L26 32ZM7 33L7 34L8 34L8 33ZM27 33L27 34L28 34L28 33ZM9 35L9 36L8 36L8 37L9 37L9 38L11 38L11 37L13 37L13 35L11 35L11 36L10 36L10 35ZM16 36L16 37L17 37L17 36ZM31 36L31 37L32 37L32 36ZM2 37L2 40L3 40L3 37ZM46 37L46 38L47 38L47 40L48 40L48 37ZM0 38L0 41L1 41L1 38ZM7 38L7 39L6 39L6 40L7 40L7 39L8 39L8 38ZM16 38L16 39L17 39L17 38ZM28 38L28 39L29 39L29 38ZM39 38L39 39L40 39L40 40L42 40L42 42L44 42L44 39L43 39L43 40L42 40L42 39L40 39L40 38ZM49 38L49 39L50 39L50 38ZM37 39L37 41L38 41L38 39ZM6 41L6 42L7 42L7 41ZM9 41L9 42L10 42L10 41ZM14 41L14 42L13 42L13 43L14 43L14 42L16 42L16 41ZM54 41L54 42L55 42L55 41ZM4 43L4 44L3 44L3 47L5 47L5 46L7 46L7 45L6 45L6 44L7 44L7 43L6 43L6 44L5 44L5 43ZM22 43L22 44L23 44L23 43ZM37 43L37 44L36 44L36 45L35 45L35 47L34 47L34 48L35 48L35 47L37 47L37 46L38 46L38 45L37 45L37 44L39 44L39 43ZM4 44L4 45L5 45L5 44ZM14 44L14 45L15 45L15 44ZM29 44L29 46L30 46L30 44ZM49 45L49 47L50 47L50 45ZM25 46L25 47L26 47L26 46ZM52 47L52 48L53 48L53 47ZM20 48L20 49L21 49L21 48ZM22 48L22 50L23 50L23 51L24 51L24 49L23 49L23 48ZM27 49L27 52L30 52L30 49ZM49 49L49 52L52 52L52 49ZM54 49L54 50L53 50L53 51L54 51L54 52L55 52L55 51L56 51L56 50L55 50L55 49ZM18 50L18 51L19 51L19 50ZM28 50L28 51L29 51L29 50ZM34 50L34 51L35 51L35 50ZM50 50L50 51L51 51L51 50ZM47 51L47 52L46 52L46 54L47 54L47 55L48 55L48 54L49 54L49 53L47 53L47 52L48 52L48 51ZM39 52L39 53L40 53L40 52ZM14 53L14 54L15 54L15 53ZM31 53L31 54L30 54L30 55L33 55L33 54L32 54L32 53ZM8 54L8 57L9 57L9 54ZM16 54L16 55L17 55L17 54ZM21 54L21 55L22 55L22 56L23 56L23 54ZM40 54L40 56L41 56L41 54ZM53 54L53 55L54 55L54 54ZM36 56L36 57L37 57L37 56ZM56 56L56 57L57 57L57 56ZM0 0L0 7L7 7L7 0ZM1 1L1 6L6 6L6 1ZM2 2L2 5L5 5L5 2ZM50 0L50 7L57 7L57 0ZM51 1L51 6L56 6L56 1ZM52 2L52 5L55 5L55 2ZM0 50L0 57L7 57L7 50ZM1 51L1 56L6 56L6 51ZM2 52L2 55L5 55L5 52Z" fill="#000000"/></g></g></svg>
