<?xml version="1.0" encoding="UTF-8"?>
<svg xmlns="http://www.w3.org/2000/svg" version="1.1" width="300" height="300" viewBox="0 0 300 300"><rect x="0" y="0" width="300" height="300" fill="#fefefe"/><g transform="scale(4.615)"><g transform="translate(4,4)"><path fill-rule="evenodd" d="M8 0L8 4L10 4L10 5L11 5L11 4L12 4L12 3L11 3L11 4L10 4L10 3L9 3L9 2L10 2L10 0ZM11 0L11 1L13 1L13 6L12 6L12 7L11 7L11 6L10 6L10 7L9 7L9 5L8 5L8 7L9 7L9 8L12 8L12 9L10 9L10 10L8 10L8 9L7 9L7 8L4 8L4 10L2 10L2 11L1 11L1 10L0 10L0 11L1 11L1 12L0 12L0 16L1 16L1 18L2 18L2 16L1 16L1 15L4 15L4 16L3 16L3 17L4 17L4 18L3 18L3 20L2 20L2 21L3 21L3 22L2 22L2 23L0 23L0 24L1 24L1 26L0 26L0 29L2 29L2 31L5 31L5 33L3 33L3 32L2 32L2 33L3 33L3 34L4 34L4 35L3 35L3 36L4 36L4 37L2 37L2 36L0 36L0 37L2 37L2 38L0 38L0 39L1 39L1 40L0 40L0 43L2 43L2 42L3 42L3 41L1 41L1 40L2 40L2 39L3 39L3 40L4 40L4 39L3 39L3 38L5 38L5 40L6 40L6 41L5 41L5 42L4 42L4 43L3 43L3 44L2 44L2 45L1 45L1 44L0 44L0 48L5 48L5 47L7 47L7 46L5 46L5 47L3 47L3 46L2 46L2 45L3 45L3 44L4 44L4 45L5 45L5 44L6 44L6 45L8 45L8 46L9 46L9 47L10 47L10 46L9 46L9 45L12 45L12 46L11 46L11 48L10 48L10 49L12 49L12 50L11 50L11 52L12 52L12 51L13 51L13 54L12 54L12 55L10 55L10 54L9 54L9 55L8 55L8 57L9 57L9 56L10 56L10 57L11 57L11 56L12 56L12 55L14 55L14 54L15 54L15 55L16 55L16 54L19 54L19 55L18 55L18 56L17 56L17 57L19 57L19 55L20 55L20 54L23 54L23 55L24 55L24 57L25 57L25 56L26 56L26 57L27 57L27 55L26 55L26 54L24 54L24 53L28 53L28 57L29 57L29 55L30 55L30 57L34 57L34 53L33 53L33 50L34 50L34 52L35 52L35 57L37 57L37 56L36 56L36 54L37 54L37 55L40 55L40 56L39 56L39 57L40 57L40 56L41 56L41 57L42 57L42 56L43 56L43 55L44 55L44 53L45 53L45 54L46 54L46 56L49 56L49 57L50 57L50 55L51 55L51 56L53 56L53 55L55 55L55 54L57 54L57 51L56 51L56 45L57 45L57 44L56 44L56 45L55 45L55 49L53 49L53 48L50 48L50 45L49 45L49 47L48 47L48 45L47 45L47 44L49 44L49 43L50 43L50 44L51 44L51 46L52 46L52 45L53 45L53 46L54 46L54 44L53 44L53 43L54 43L54 42L55 42L55 43L56 43L56 42L57 42L57 40L54 40L54 41L53 41L53 40L52 40L52 39L57 39L57 38L52 38L52 37L51 37L51 36L53 36L53 37L56 37L56 36L57 36L57 35L55 35L55 33L56 33L56 30L55 30L55 29L54 29L54 28L53 28L53 27L54 27L54 26L55 26L55 27L56 27L56 29L57 29L57 27L56 27L56 25L57 25L57 24L56 24L56 17L57 17L57 15L56 15L56 10L57 10L57 8L53 8L53 9L55 9L55 16L53 16L53 15L52 15L52 14L54 14L54 12L53 12L53 13L52 13L52 14L51 14L51 12L52 12L52 11L54 11L54 10L52 10L52 8L51 8L51 9L50 9L50 10L52 10L52 11L50 11L50 15L48 15L48 16L47 16L47 20L48 20L48 21L47 21L47 23L46 23L46 21L45 21L45 17L46 17L46 16L44 16L44 15L43 15L43 14L45 14L45 15L46 15L46 11L45 11L45 10L43 10L43 9L42 9L42 8L41 8L41 6L40 6L40 7L39 7L39 5L42 5L42 7L43 7L43 8L44 8L44 9L46 9L46 7L47 7L47 5L48 5L48 0L46 0L46 1L47 1L47 2L45 2L45 0L41 0L41 1L40 1L40 2L38 2L38 1L39 1L39 0L38 0L38 1L37 1L37 2L36 2L36 0L35 0L35 1L34 1L34 0L33 0L33 1L32 1L32 3L31 3L31 4L30 4L30 3L29 3L29 1L31 1L31 0L28 0L28 1L27 1L27 0L26 0L26 1L25 1L25 0L23 0L23 3L22 3L22 4L21 4L21 6L20 6L20 5L19 5L19 4L18 4L18 5L19 5L19 6L18 6L18 7L19 7L19 8L17 8L17 6L16 6L16 5L15 5L15 4L14 4L14 0ZM15 0L15 1L16 1L16 0ZM18 0L18 2L16 2L16 4L17 4L17 3L20 3L20 1L21 1L21 2L22 2L22 1L21 1L21 0L20 0L20 1L19 1L19 0ZM26 1L26 2L25 2L25 3L23 3L23 4L22 4L22 6L21 6L21 8L22 8L22 10L20 10L20 8L19 8L19 9L18 9L18 11L17 11L17 9L16 9L16 8L15 8L15 7L16 7L16 6L15 6L15 5L14 5L14 6L13 6L13 7L12 7L12 8L13 8L13 9L12 9L12 10L10 10L10 11L8 11L8 10L7 10L7 9L5 9L5 10L7 10L7 11L5 11L5 13L4 13L4 15L5 15L5 16L7 16L7 17L6 17L6 18L8 18L8 19L9 19L9 20L7 20L7 19L6 19L6 20L7 20L7 21L5 21L5 22L7 22L7 23L3 23L3 24L2 24L2 25L3 25L3 26L4 26L4 25L3 25L3 24L5 24L5 25L6 25L6 26L7 26L7 25L9 25L9 24L11 24L11 27L10 27L10 26L9 26L9 29L10 29L10 33L9 33L9 35L8 35L8 32L9 32L9 31L8 31L8 32L7 32L7 31L6 31L6 32L7 32L7 33L5 33L5 38L8 38L8 40L9 40L9 42L11 42L11 44L12 44L12 45L13 45L13 46L12 46L12 47L13 47L13 48L14 48L14 47L15 47L15 48L16 48L16 46L17 46L17 45L18 45L18 44L19 44L19 48L20 48L20 49L14 49L14 50L13 50L13 51L14 51L14 50L17 50L17 51L21 51L21 50L22 50L22 52L21 52L21 53L24 53L24 52L23 52L23 50L22 50L22 49L23 49L23 48L24 48L24 49L26 49L26 48L28 48L28 47L29 47L29 48L31 48L31 49L32 49L32 50L31 50L31 52L32 52L32 50L33 50L33 49L32 49L32 48L31 48L31 46L32 46L32 47L33 47L33 48L34 48L34 50L35 50L35 52L36 52L36 49L35 49L35 48L34 48L34 47L35 47L35 46L36 46L36 45L34 45L34 47L33 47L33 45L30 45L30 44L31 44L31 41L32 41L32 43L33 43L33 44L35 44L35 43L33 43L33 41L32 41L32 40L33 40L33 39L31 39L31 38L33 38L33 37L32 37L32 36L31 36L31 35L33 35L33 36L34 36L34 38L35 38L35 39L34 39L34 42L35 42L35 39L37 39L37 42L38 42L38 39L39 39L39 40L40 40L40 41L43 41L43 42L42 42L42 44L43 44L43 45L44 45L44 44L45 44L45 45L46 45L46 47L45 47L45 46L44 46L44 47L42 47L42 49L44 49L44 50L45 50L45 49L44 49L44 47L45 47L45 48L46 48L46 47L47 47L47 49L46 49L46 51L45 51L45 52L46 52L46 54L47 54L47 55L49 55L49 54L51 54L51 55L52 55L52 54L51 54L51 53L49 53L49 54L48 54L48 52L47 52L47 49L48 49L48 47L47 47L47 45L46 45L46 44L47 44L47 43L48 43L48 41L49 41L49 42L50 42L50 43L51 43L51 44L52 44L52 43L53 43L53 41L52 41L52 40L47 40L47 39L48 39L48 38L50 38L50 39L52 39L52 38L50 38L50 35L53 35L53 36L55 36L55 35L53 35L53 34L54 34L54 33L55 33L55 30L54 30L54 31L52 31L52 32L53 32L53 33L51 33L51 31L49 31L49 32L50 32L50 35L46 35L46 34L49 34L49 33L48 33L48 31L47 31L47 30L48 30L48 29L46 29L46 28L48 28L48 27L46 27L46 26L47 26L47 25L49 25L49 26L50 26L50 24L52 24L52 25L51 25L51 26L53 26L53 24L54 24L54 25L56 25L56 24L55 24L55 23L53 23L53 22L52 22L52 21L54 21L54 22L55 22L55 17L56 17L56 16L55 16L55 17L53 17L53 16L52 16L52 15L50 15L50 16L52 16L52 17L53 17L53 18L50 18L50 17L49 17L49 18L50 18L50 19L53 19L53 20L52 20L52 21L51 21L51 20L49 20L49 19L48 19L48 20L49 20L49 21L51 21L51 22L52 22L52 23L50 23L50 22L49 22L49 23L50 23L50 24L45 24L45 22L44 22L44 16L43 16L43 15L42 15L42 17L43 17L43 18L42 18L42 19L41 19L41 18L40 18L40 17L41 17L41 15L40 15L40 13L44 13L44 12L45 12L45 11L44 11L44 12L41 12L41 11L40 11L40 13L39 13L39 12L37 12L37 10L38 10L38 11L39 11L39 10L38 10L38 8L37 8L37 9L35 9L35 7L36 7L36 5L38 5L38 4L40 4L40 3L41 3L41 2L40 2L40 3L38 3L38 2L37 2L37 3L36 3L36 2L34 2L34 1L33 1L33 2L34 2L34 3L32 3L32 5L33 5L33 4L34 4L34 5L35 5L35 7L34 7L34 6L33 6L33 7L32 7L32 6L31 6L31 12L29 12L29 11L28 11L28 10L29 10L29 9L26 9L26 6L25 6L25 7L24 7L24 6L23 6L23 5L24 5L24 4L25 4L25 3L26 3L26 4L28 4L28 3L27 3L27 1ZM43 2L43 3L44 3L44 4L43 4L43 7L44 7L44 8L45 8L45 7L46 7L46 5L47 5L47 3L44 3L44 2ZM34 3L34 4L35 4L35 5L36 5L36 4L35 4L35 3ZM44 4L44 7L45 7L45 5L46 5L46 4ZM27 5L27 8L30 8L30 5ZM14 6L14 7L13 7L13 8L14 8L14 10L13 10L13 11L14 11L14 12L15 12L15 13L13 13L13 14L11 14L11 13L10 13L10 12L12 12L12 11L10 11L10 12L9 12L9 13L8 13L8 14L9 14L9 15L13 15L13 16L14 16L14 18L15 18L15 17L19 17L19 16L20 16L20 19L19 19L19 20L17 20L17 21L15 21L15 20L14 20L14 19L12 19L12 20L11 20L11 19L10 19L10 18L13 18L13 17L11 17L11 16L10 16L10 17L9 17L9 19L10 19L10 21L11 21L11 22L12 22L12 23L11 23L11 24L12 24L12 25L13 25L13 26L12 26L12 27L11 27L11 28L12 28L12 29L11 29L11 30L12 30L12 29L18 29L18 30L15 30L15 31L16 31L16 33L13 33L13 35L12 35L12 36L10 36L10 35L11 35L11 34L12 34L12 31L11 31L11 33L10 33L10 35L9 35L9 36L8 36L8 35L7 35L7 34L6 34L6 35L7 35L7 36L6 36L6 37L7 37L7 36L8 36L8 38L11 38L11 37L13 37L13 35L14 35L14 36L15 36L15 37L14 37L14 38L15 38L15 37L16 37L16 36L17 36L17 38L16 38L16 39L15 39L15 41L13 41L13 38L12 38L12 40L11 40L11 39L10 39L10 40L11 40L11 41L13 41L13 43L12 43L12 44L13 44L13 45L15 45L15 46L16 46L16 44L15 44L15 43L14 43L14 42L16 42L16 43L18 43L18 41L20 41L20 42L19 42L19 44L20 44L20 46L21 46L21 47L22 47L22 48L21 48L21 49L20 49L20 50L21 50L21 49L22 49L22 48L23 48L23 47L24 47L24 46L26 46L26 47L28 47L28 45L29 45L29 44L28 44L28 43L29 43L29 42L30 42L30 40L31 40L31 39L29 39L29 38L28 38L28 39L27 39L27 37L28 37L28 36L29 36L29 37L31 37L31 36L30 36L30 34L31 34L31 33L29 33L29 32L28 32L28 31L30 31L30 32L32 32L32 33L33 33L33 35L35 35L35 38L37 38L37 39L38 39L38 38L40 38L40 40L43 40L43 41L44 41L44 43L43 43L43 44L44 44L44 43L45 43L45 42L46 42L46 43L47 43L47 42L46 42L46 41L47 41L47 40L46 40L46 39L47 39L47 38L46 38L46 37L45 37L45 35L44 35L44 37L38 37L38 38L37 38L37 36L38 36L38 34L39 34L39 33L40 33L40 34L42 34L42 35L43 35L43 33L45 33L45 34L46 34L46 33L45 33L45 32L47 32L47 31L46 31L46 30L45 30L45 27L43 27L43 26L44 26L44 25L45 25L45 26L46 26L46 25L45 25L45 24L44 24L44 25L43 25L43 23L44 23L44 22L43 22L43 20L42 20L42 21L40 21L40 18L39 18L39 17L40 17L40 15L39 15L39 13L38 13L38 15L39 15L39 17L38 17L38 16L37 16L37 12L35 12L35 11L36 11L36 10L34 10L34 9L33 9L33 8L34 8L34 7L33 7L33 8L32 8L32 11L33 11L33 10L34 10L34 12L35 12L35 14L36 14L36 15L35 15L35 17L38 17L38 18L39 18L39 19L37 19L37 18L34 18L34 13L33 13L33 12L32 12L32 13L33 13L33 14L31 14L31 13L30 13L30 15L33 15L33 16L32 16L32 17L31 17L31 16L29 16L29 13L27 13L27 14L28 14L28 15L27 15L27 16L26 16L26 15L25 15L25 13L26 13L26 11L27 11L27 12L28 12L28 11L27 11L27 10L25 10L25 8L24 8L24 7L23 7L23 6L22 6L22 7L23 7L23 8L24 8L24 9L23 9L23 12L22 12L22 11L19 11L19 12L18 12L18 13L17 13L17 12L16 12L16 9L15 9L15 8L14 8L14 7L15 7L15 6ZM19 6L19 7L20 7L20 6ZM28 6L28 7L29 7L29 6ZM37 6L37 7L38 7L38 6ZM48 6L48 7L49 7L49 6ZM0 8L0 9L2 9L2 8ZM40 8L40 10L41 10L41 8ZM48 8L48 9L47 9L47 12L49 12L49 8ZM42 10L42 11L43 11L43 10ZM2 11L2 12L1 12L1 13L2 13L2 14L3 14L3 13L2 13L2 12L3 12L3 11ZM6 12L6 13L5 13L5 14L6 14L6 15L7 15L7 14L6 14L6 13L7 13L7 12ZM20 12L20 13L19 13L19 15L18 15L18 16L19 16L19 15L20 15L20 16L21 16L21 17L26 17L26 20L27 20L27 19L30 19L30 18L28 18L28 17L26 17L26 16L25 16L25 15L24 15L24 14L23 14L23 13L24 13L24 12L23 12L23 13L21 13L21 12ZM9 13L9 14L10 14L10 13ZM15 13L15 14L17 14L17 13ZM20 13L20 14L21 14L21 15L22 15L22 16L24 16L24 15L22 15L22 14L21 14L21 13ZM47 13L47 14L49 14L49 13ZM13 14L13 15L14 15L14 16L15 16L15 15L14 15L14 14ZM32 17L32 18L31 18L31 19L32 19L32 18L33 18L33 19L34 19L34 20L33 20L33 21L34 21L34 22L35 22L35 23L34 23L34 24L33 24L33 25L34 25L34 26L33 26L33 27L32 27L32 23L33 23L33 22L30 22L30 25L29 25L29 23L28 23L28 22L27 22L27 21L24 21L24 20L25 20L25 18L24 18L24 19L22 19L22 18L21 18L21 19L20 19L20 20L19 20L19 21L20 21L20 20L21 20L21 19L22 19L22 23L21 23L21 22L20 22L20 23L19 23L19 24L20 24L20 25L19 25L19 27L20 27L20 28L18 28L18 29L19 29L19 31L18 31L18 32L19 32L19 35L17 35L17 36L19 36L19 35L20 35L20 36L21 36L21 35L22 35L22 34L23 34L23 33L27 33L27 32L26 32L26 31L25 31L25 30L26 30L26 29L25 29L25 28L24 28L24 27L26 27L26 25L25 25L25 26L23 26L23 28L22 28L22 27L20 27L20 25L21 25L21 24L22 24L22 25L23 25L23 24L24 24L24 23L23 23L23 21L24 21L24 22L25 22L25 23L26 23L26 22L27 22L27 24L28 24L28 26L30 26L30 25L31 25L31 31L32 31L32 32L34 32L34 34L35 34L35 32L34 32L34 31L36 31L36 30L37 30L37 32L38 32L38 30L37 30L37 29L38 29L38 28L37 28L37 29L35 29L35 27L36 27L36 26L37 26L37 27L40 27L40 26L41 26L41 28L40 28L40 29L39 29L39 30L40 30L40 31L39 31L39 32L40 32L40 33L41 33L41 32L40 32L40 31L41 31L41 30L40 30L40 29L43 29L43 30L44 30L44 31L45 31L45 30L44 30L44 29L43 29L43 28L42 28L42 26L41 26L41 23L43 23L43 22L40 22L40 21L39 21L39 22L38 22L38 20L37 20L37 22L35 22L35 21L34 21L34 20L36 20L36 19L34 19L34 18L33 18L33 17ZM4 18L4 19L5 19L5 18ZM28 20L28 21L30 21L30 20ZM31 20L31 21L32 21L32 20ZM12 21L12 22L13 22L13 23L12 23L12 24L13 24L13 25L14 25L14 26L13 26L13 27L12 27L12 28L14 28L14 26L15 26L15 28L16 28L16 27L18 27L18 25L17 25L17 22L18 22L18 21L17 21L17 22L16 22L16 23L15 23L15 22L14 22L14 21ZM8 22L8 24L9 24L9 23L10 23L10 22ZM13 23L13 24L14 24L14 25L15 25L15 26L16 26L16 24L14 24L14 23ZM22 23L22 24L23 24L23 23ZM52 23L52 24L53 24L53 23ZM6 24L6 25L7 25L7 24ZM34 24L34 25L37 25L37 24ZM38 25L38 26L40 26L40 25ZM1 27L1 28L2 28L2 29L4 29L4 28L3 28L3 27ZM5 27L5 30L8 30L8 27ZM27 27L27 30L30 30L30 27ZM33 27L33 28L32 28L32 30L33 30L33 31L34 31L34 27ZM49 27L49 30L52 30L52 27ZM6 28L6 29L7 29L7 28ZM28 28L28 29L29 29L29 28ZM50 28L50 29L51 29L51 28ZM20 29L20 31L21 31L21 33L20 33L20 34L21 34L21 33L22 33L22 31L24 31L24 30L25 30L25 29L23 29L23 30L22 30L22 29ZM0 30L0 31L1 31L1 30ZM21 30L21 31L22 31L22 30ZM16 33L16 34L18 34L18 33ZM28 33L28 34L27 34L27 35L26 35L26 34L24 34L24 36L25 36L25 37L27 37L27 36L28 36L28 34L29 34L29 33ZM37 33L37 34L38 34L38 33ZM0 34L0 35L1 35L1 34ZM14 34L14 35L15 35L15 34ZM25 35L25 36L26 36L26 35ZM39 35L39 36L40 36L40 35ZM22 36L22 41L21 41L21 43L20 43L20 44L21 44L21 43L22 43L22 44L24 44L24 45L21 45L21 46L22 46L22 47L23 47L23 46L24 46L24 45L25 45L25 43L28 43L28 42L29 42L29 40L28 40L28 42L27 42L27 41L26 41L26 42L25 42L25 43L23 43L23 41L25 41L25 40L27 40L27 39L26 39L26 38L24 38L24 37L23 37L23 36ZM18 37L18 39L17 39L17 40L16 40L16 42L17 42L17 40L19 40L19 39L20 39L20 38L21 38L21 37ZM44 37L44 38L43 38L43 39L45 39L45 37ZM6 39L6 40L7 40L7 39ZM23 39L23 40L24 40L24 39ZM45 40L45 41L46 41L46 40ZM6 41L6 42L5 42L5 43L6 43L6 44L8 44L8 42L7 42L7 41ZM51 41L51 43L52 43L52 41ZM55 41L55 42L56 42L56 41ZM6 42L6 43L7 43L7 42ZM39 42L39 43L40 43L40 45L39 45L39 44L37 44L37 43L36 43L36 44L37 44L37 46L38 46L38 45L39 45L39 46L40 46L40 51L38 51L38 49L39 49L39 47L38 47L38 49L37 49L37 51L38 51L38 52L37 52L37 54L38 54L38 52L40 52L40 53L42 53L42 52L41 52L41 46L40 46L40 45L41 45L41 43L40 43L40 42ZM9 43L9 44L10 44L10 43ZM26 45L26 46L27 46L27 45ZM1 46L1 47L2 47L2 46ZM13 46L13 47L14 47L14 46ZM17 47L17 48L18 48L18 47ZM36 47L36 48L37 48L37 47ZM6 48L6 49L7 49L7 48ZM8 49L8 50L9 50L9 49ZM27 49L27 52L30 52L30 49ZM49 49L49 52L52 52L52 49ZM28 50L28 51L29 51L29 50ZM42 50L42 51L43 51L43 50ZM50 50L50 51L51 51L51 50ZM53 50L53 53L54 53L54 54L55 54L55 53L54 53L54 52L56 52L56 51L54 51L54 50ZM8 51L8 53L10 53L10 51ZM15 51L15 52L14 52L14 53L17 53L17 52L16 52L16 51ZM25 51L25 52L26 52L26 51ZM19 52L19 53L20 53L20 52ZM43 52L43 53L44 53L44 52ZM30 53L30 54L31 54L31 53ZM32 53L32 54L33 54L33 53ZM40 54L40 55L41 55L41 56L42 56L42 55L43 55L43 54ZM20 56L20 57L22 57L22 56ZM44 56L44 57L45 57L45 56ZM56 56L56 57L57 57L57 56ZM0 0L0 7L7 7L7 0ZM1 1L1 6L6 6L6 1ZM2 2L2 5L5 5L5 2ZM50 0L50 7L57 7L57 0ZM51 1L51 6L56 6L56 1ZM52 2L52 5L55 5L55 2ZM0 50L0 57L7 57L7 50ZM1 51L1 56L6 56L6 51ZM2 52L2 55L5 55L5 52Z" fill="#000000"/></g></g></svg>
