<?xml version="1.0" encoding="UTF-8"?>
<svg xmlns="http://www.w3.org/2000/svg" version="1.1" width="300" height="300" viewBox="0 0 300 300"><rect x="0" y="0" width="300" height="300" fill="#fefefe"/><g transform="scale(4.615)"><g transform="translate(4,4)"><path fill-rule="evenodd" d="M8 0L8 1L9 1L9 2L8 2L8 5L9 5L9 6L8 6L8 7L9 7L9 6L10 6L10 7L11 7L11 8L12 8L12 10L13 10L13 13L12 13L12 11L11 11L11 9L10 9L10 8L8 8L8 9L7 9L7 8L6 8L6 9L7 9L7 10L6 10L6 11L7 11L7 12L6 12L6 13L7 13L7 14L6 14L6 15L7 15L7 16L6 16L6 17L5 17L5 18L3 18L3 19L2 19L2 18L0 18L0 19L1 19L1 20L0 20L0 21L2 21L2 23L3 23L3 24L4 24L4 25L2 25L2 24L1 24L1 23L0 23L0 25L1 25L1 27L3 27L3 28L0 28L0 31L1 31L1 32L0 32L0 34L2 34L2 35L1 35L1 36L0 36L0 37L1 37L1 38L0 38L0 40L1 40L1 38L2 38L2 39L3 39L3 41L5 41L5 42L2 42L2 41L1 41L1 42L0 42L0 43L1 43L1 42L2 42L2 43L3 43L3 44L1 44L1 45L0 45L0 48L5 48L5 47L7 47L7 46L10 46L10 47L8 47L8 50L9 50L9 49L10 49L10 48L11 48L11 51L9 51L9 53L8 53L8 57L9 57L9 56L10 56L10 57L12 57L12 56L13 56L13 55L11 55L11 54L12 54L12 52L13 52L13 54L14 54L14 53L15 53L15 56L14 56L14 57L15 57L15 56L16 56L16 57L18 57L18 56L17 56L17 55L20 55L20 56L19 56L19 57L20 57L20 56L21 56L21 57L23 57L23 54L25 54L25 55L24 55L24 56L25 56L25 55L26 55L26 56L28 56L28 55L26 55L26 53L29 53L29 54L31 54L31 55L30 55L30 56L31 56L31 57L32 57L32 55L34 55L34 56L33 56L33 57L36 57L36 55L38 55L38 57L41 57L41 56L39 56L39 55L41 55L41 54L42 54L42 57L43 57L43 55L44 55L44 56L46 56L46 57L47 57L47 56L49 56L49 57L51 57L51 54L52 54L52 53L53 53L53 54L54 54L54 55L55 55L55 54L56 54L56 53L57 53L57 52L56 52L56 51L55 51L55 50L57 50L57 48L56 48L56 49L55 49L55 50L53 50L53 48L54 48L54 45L56 45L56 46L55 46L55 47L57 47L57 44L53 44L53 46L51 46L51 45L52 45L52 43L53 43L53 42L54 42L54 43L56 43L56 42L54 42L54 41L55 41L55 39L53 39L53 38L52 38L52 36L53 36L53 37L55 37L55 38L56 38L56 39L57 39L57 38L56 38L56 37L57 37L57 36L56 36L56 35L57 35L57 34L55 34L55 33L57 33L57 31L56 31L56 30L57 30L57 28L56 28L56 24L54 24L54 23L53 23L53 20L50 20L50 19L47 19L47 18L48 18L48 14L47 14L47 15L46 15L46 16L47 16L47 17L45 17L45 16L44 16L44 15L45 15L45 14L46 14L46 13L45 13L45 14L44 14L44 10L45 10L45 11L47 11L47 10L50 10L50 8L49 8L49 6L48 6L48 7L47 7L47 5L48 5L48 0L46 0L46 1L47 1L47 2L46 2L46 3L47 3L47 5L46 5L46 7L47 7L47 8L45 8L45 6L44 6L44 7L43 7L43 5L45 5L45 4L44 4L44 3L45 3L45 1L44 1L44 2L41 2L41 1L43 1L43 0L41 0L41 1L40 1L40 0L39 0L39 1L40 1L40 2L41 2L41 3L43 3L43 5L41 5L41 4L39 4L39 2L37 2L37 1L38 1L38 0L37 0L37 1L36 1L36 0L35 0L35 1L34 1L34 2L33 2L33 0L30 0L30 2L29 2L29 0L27 0L27 1L28 1L28 2L29 2L29 4L26 4L26 2L24 2L24 3L23 3L23 1L26 1L26 0L23 0L23 1L22 1L22 0L21 0L21 1L22 1L22 3L23 3L23 6L22 6L22 4L21 4L21 5L20 5L20 4L19 4L19 3L18 3L18 1L19 1L19 2L20 2L20 3L21 3L21 2L20 2L20 0L17 0L17 5L15 5L15 4L14 4L14 3L13 3L13 2L12 2L12 3L13 3L13 4L9 4L9 3L10 3L10 1L12 1L12 0ZM14 0L14 1L15 1L15 0ZM31 1L31 2L30 2L30 4L31 4L31 5L32 5L32 6L31 6L31 9L32 9L32 10L29 10L29 9L28 9L28 10L26 10L26 11L25 11L25 13L24 13L24 11L19 11L19 9L20 9L20 10L21 10L21 7L22 7L22 8L23 8L23 9L22 9L22 10L23 10L23 9L24 9L24 8L25 8L25 9L26 9L26 6L25 6L25 5L26 5L26 4L24 4L24 6L23 6L23 7L22 7L22 6L21 6L21 7L20 7L20 6L19 6L19 7L20 7L20 8L18 8L18 9L17 9L17 7L18 7L18 5L17 5L17 7L16 7L16 6L15 6L15 5L14 5L14 4L13 4L13 5L14 5L14 6L13 6L13 7L12 7L12 5L10 5L10 6L11 6L11 7L12 7L12 8L13 8L13 10L14 10L14 11L15 11L15 15L16 15L16 16L15 16L15 17L16 17L16 16L17 16L17 17L18 17L18 18L16 18L16 20L14 20L14 22L13 22L13 23L14 23L14 24L13 24L13 25L14 25L14 24L15 24L15 23L16 23L16 24L17 24L17 23L18 23L18 24L19 24L19 23L18 23L18 22L17 22L17 23L16 23L16 20L18 20L18 21L19 21L19 22L21 22L21 20L22 20L22 19L23 19L23 21L22 21L22 22L23 22L23 21L24 21L24 22L25 22L25 25L23 25L23 24L22 24L22 25L23 25L23 26L24 26L24 27L25 27L25 25L28 25L28 26L31 26L31 23L32 23L32 22L33 22L33 24L32 24L32 25L33 25L33 24L35 24L35 23L36 23L36 24L37 24L37 23L38 23L38 22L39 22L39 21L38 21L38 22L35 22L35 20L36 20L36 21L37 21L37 20L36 20L36 19L38 19L38 20L40 20L40 19L39 19L39 18L41 18L41 19L42 19L42 18L43 18L43 21L44 21L44 22L47 22L47 21L48 21L48 20L47 20L47 21L45 21L45 20L46 20L46 18L45 18L45 17L42 17L42 14L43 14L43 12L42 12L42 11L41 11L41 9L45 9L45 8L43 8L43 7L42 7L42 6L41 6L41 7L40 7L40 5L38 5L38 6L37 6L37 5L36 5L36 4L34 4L34 5L33 5L33 3L32 3L32 4L31 4L31 2L32 2L32 1ZM35 1L35 2L34 2L34 3L35 3L35 2L36 2L36 1ZM27 5L27 8L30 8L30 5ZM14 6L14 8L15 8L15 11L17 11L17 12L16 12L16 13L17 13L17 12L18 12L18 13L19 13L19 15L18 15L18 14L16 14L16 15L18 15L18 16L19 16L19 15L20 15L20 17L21 17L21 18L22 18L22 17L21 17L21 15L20 15L20 14L21 14L21 13L20 13L20 12L18 12L18 10L16 10L16 8L15 8L15 6ZM24 6L24 7L23 7L23 8L24 8L24 7L25 7L25 6ZM28 6L28 7L29 7L29 6ZM32 6L32 8L33 8L33 6ZM34 6L34 9L36 9L36 8L38 8L38 7L39 7L39 6L38 6L38 7L37 7L37 6L36 6L36 7L35 7L35 6ZM0 8L0 9L4 9L4 10L2 10L2 11L1 11L1 12L0 12L0 13L1 13L1 14L0 14L0 16L1 16L1 17L2 17L2 16L1 16L1 15L3 15L3 16L4 16L4 12L3 12L3 13L1 13L1 12L2 12L2 11L5 11L5 9L4 9L4 8ZM39 8L39 9L41 9L41 8ZM47 8L47 9L46 9L46 10L47 10L47 9L48 9L48 8ZM52 8L52 9L55 9L55 13L56 13L56 11L57 11L57 10L56 10L56 9L57 9L57 8L56 8L56 9L55 9L55 8ZM9 9L9 10L8 10L8 12L9 12L9 13L8 13L8 14L7 14L7 15L8 15L8 17L10 17L10 18L12 18L12 17L13 17L13 16L14 16L14 13L13 13L13 14L10 14L10 9ZM37 9L37 10L38 10L38 9ZM33 10L33 13L32 13L32 12L31 12L31 11L30 11L30 12L31 12L31 14L30 14L30 13L28 13L28 12L26 12L26 13L27 13L27 16L26 16L26 14L23 14L23 18L24 18L24 19L25 19L25 22L27 22L27 23L26 23L26 24L28 24L28 22L29 22L29 20L32 20L32 19L34 19L34 20L33 20L33 21L34 21L34 20L35 20L35 17L34 17L34 16L35 16L35 15L39 15L39 17L40 17L40 16L41 16L41 13L40 13L40 15L39 15L39 11L40 11L40 10L39 10L39 11L38 11L38 12L35 12L35 11L36 11L36 10L35 10L35 11L34 11L34 10ZM53 10L53 13L52 13L52 12L51 12L51 11L49 11L49 15L51 15L51 13L52 13L52 14L54 14L54 15L52 15L52 16L53 16L53 17L54 17L54 18L52 18L52 19L56 19L56 18L55 18L55 17L57 17L57 15L55 15L55 14L54 14L54 10ZM22 12L22 13L23 13L23 12ZM34 12L34 14L33 14L33 15L31 15L31 16L29 16L29 15L28 15L28 16L29 16L29 17L27 17L27 18L26 18L26 16L25 16L25 15L24 15L24 16L25 16L25 17L24 17L24 18L25 18L25 19L28 19L28 20L29 20L29 19L28 19L28 18L29 18L29 17L30 17L30 19L32 19L32 18L31 18L31 16L33 16L33 15L35 15L35 14L37 14L37 13L35 13L35 12ZM50 12L50 13L51 13L51 12ZM8 14L8 15L10 15L10 14ZM12 15L12 16L11 16L11 17L12 17L12 16L13 16L13 15ZM6 17L6 18L7 18L7 19L4 19L4 20L3 20L3 21L4 21L4 20L5 20L5 21L6 21L6 22L5 22L5 24L7 24L7 23L8 23L8 24L9 24L9 25L5 25L5 26L10 26L10 24L9 24L9 23L11 23L11 26L12 26L12 27L9 27L9 33L8 33L8 35L10 35L10 36L11 36L11 37L9 37L9 36L7 36L7 35L5 35L5 34L7 34L7 33L5 33L5 32L7 32L7 31L5 31L5 32L4 32L4 31L3 31L3 32L1 32L1 33L3 33L3 36L2 36L2 37L4 37L4 38L3 38L3 39L4 39L4 40L5 40L5 39L6 39L6 40L8 40L8 39L9 39L9 38L11 38L11 37L13 37L13 38L14 38L14 36L15 36L15 38L17 38L17 36L18 36L18 35L20 35L20 36L19 36L19 37L18 37L18 38L19 38L19 37L20 37L20 38L21 38L21 40L22 40L22 41L23 41L23 42L25 42L25 43L23 43L23 44L22 44L22 42L21 42L21 41L20 41L20 40L18 40L18 41L19 41L19 42L21 42L21 44L20 44L20 46L17 46L17 45L19 45L19 43L18 43L18 42L17 42L17 45L15 45L15 43L14 43L14 42L13 42L13 41L12 41L12 43L11 43L11 45L12 45L12 46L11 46L11 48L12 48L12 47L14 47L14 48L15 48L15 49L12 49L12 50L14 50L14 51L15 51L15 53L16 53L16 54L17 54L17 53L18 53L18 54L19 54L19 52L17 52L17 51L15 51L15 49L16 49L16 50L17 50L17 48L20 48L20 49L21 49L21 50L20 50L20 51L21 51L21 52L22 52L22 53L23 53L23 52L24 52L24 53L25 53L25 52L26 52L26 51L24 51L24 50L26 50L26 48L27 48L27 46L29 46L29 47L28 47L28 48L31 48L31 49L32 49L32 50L33 50L33 51L35 51L35 49L34 49L34 50L33 50L33 48L32 48L32 47L34 47L34 46L35 46L35 48L37 48L37 49L36 49L36 50L37 50L37 49L38 49L38 48L39 48L39 49L40 49L40 50L39 50L39 52L38 52L38 51L36 51L36 52L35 52L35 53L36 53L36 54L34 54L34 55L36 55L36 54L37 54L37 52L38 52L38 54L39 54L39 52L40 52L40 54L41 54L41 53L42 53L42 54L43 54L43 50L44 50L44 49L45 49L45 48L46 48L46 46L47 46L47 45L48 45L48 47L49 47L49 46L50 46L50 45L51 45L51 42L50 42L50 41L52 41L52 40L50 40L50 41L47 41L47 42L45 42L45 43L47 43L47 42L48 42L48 43L49 43L49 45L48 45L48 44L43 44L43 43L42 43L42 42L43 42L43 41L42 41L42 38L44 38L44 39L43 39L43 40L44 40L44 39L45 39L45 40L46 40L46 39L45 39L45 36L46 36L46 38L47 38L47 37L49 37L49 36L47 36L47 34L50 34L50 33L49 33L49 32L48 32L48 29L47 29L47 31L45 31L45 30L46 30L46 26L47 26L47 27L48 27L48 26L49 26L49 24L50 24L50 25L53 25L53 27L55 27L55 25L53 25L53 23L52 23L52 22L51 22L51 21L50 21L50 20L49 20L49 24L48 24L48 26L47 26L47 24L46 24L46 26L45 26L45 23L44 23L44 25L43 25L43 22L42 22L42 23L40 23L40 27L39 27L39 26L38 26L38 27L39 27L39 28L40 28L40 29L38 29L38 30L37 30L37 27L35 27L35 25L34 25L34 27L35 27L35 28L34 28L34 29L36 29L36 30L35 30L35 31L33 31L33 29L32 29L32 31L33 31L33 32L31 32L31 33L32 33L32 34L30 34L30 35L29 35L29 33L30 33L30 32L29 32L29 31L28 31L28 33L27 33L27 34L26 34L26 33L25 33L25 34L24 34L24 35L23 35L23 33L24 33L24 32L25 32L25 31L24 31L24 32L23 32L23 33L22 33L22 35L21 35L21 32L22 32L22 31L23 31L23 30L21 30L21 29L23 29L23 27L22 27L22 26L20 26L20 25L18 25L18 26L19 26L19 27L17 27L17 25L16 25L16 26L15 26L15 27L13 27L13 26L12 26L12 21L13 21L13 20L11 20L11 19L10 19L10 20L9 20L9 21L10 21L10 22L7 22L7 21L8 21L8 18L7 18L7 17ZM36 17L36 18L37 18L37 17ZM41 17L41 18L42 18L42 17ZM13 18L13 19L15 19L15 18ZM19 18L19 19L18 19L18 20L20 20L20 18ZM44 18L44 19L45 19L45 18ZM6 20L6 21L7 21L7 20ZM26 20L26 21L27 21L27 22L28 22L28 21L27 21L27 20ZM41 20L41 21L42 21L42 20ZM54 20L54 21L55 21L55 20ZM30 21L30 23L31 23L31 21ZM56 21L56 22L55 22L55 23L57 23L57 21ZM3 22L3 23L4 23L4 22ZM6 22L6 23L7 23L7 22ZM20 23L20 24L21 24L21 23ZM50 23L50 24L51 24L51 23ZM38 24L38 25L39 25L39 24ZM41 24L41 30L38 30L38 31L39 31L39 34L38 34L38 32L37 32L37 31L35 31L35 32L33 32L33 33L35 33L35 35L36 35L36 36L34 36L34 34L32 34L32 36L29 36L29 35L28 35L28 34L27 34L27 36L23 36L23 35L22 35L22 36L23 36L23 38L22 38L22 37L21 37L21 38L22 38L22 40L23 40L23 39L24 39L24 41L25 41L25 42L29 42L29 43L27 43L27 44L28 44L28 45L29 45L29 44L30 44L30 45L31 45L31 47L32 47L32 42L33 42L33 45L34 45L34 44L35 44L35 46L37 46L37 47L38 47L38 45L39 45L39 47L43 47L43 49L44 49L44 48L45 48L45 47L44 47L44 45L42 45L42 43L40 43L40 44L38 44L38 43L39 43L39 42L40 42L40 39L41 39L41 37L40 37L40 36L39 36L39 37L37 37L37 35L41 35L41 36L43 36L43 37L44 37L44 36L45 36L45 35L46 35L46 34L45 34L45 33L47 33L47 32L45 32L45 33L44 33L44 31L41 31L41 30L42 30L42 29L43 29L43 30L45 30L45 26L42 26L42 24ZM3 26L3 27L4 27L4 26ZM5 27L5 30L8 30L8 27ZM15 27L15 29L12 29L12 28L10 28L10 29L12 29L12 30L10 30L10 32L11 32L11 33L10 33L10 35L12 35L12 36L14 36L14 32L13 32L13 31L12 31L12 30L15 30L15 32L16 32L16 30L17 30L17 27ZM19 27L19 28L18 28L18 29L20 29L20 28L21 28L21 27ZM27 27L27 30L30 30L30 27ZM32 27L32 28L33 28L33 27ZM42 27L42 28L44 28L44 27ZM49 27L49 30L52 30L52 27ZM6 28L6 29L7 29L7 28ZM24 28L24 30L26 30L26 28ZM28 28L28 29L29 29L29 28ZM50 28L50 29L51 29L51 28ZM53 28L53 29L54 29L54 30L56 30L56 28L55 28L55 29L54 29L54 28ZM3 29L3 30L4 30L4 29ZM15 29L15 30L16 30L16 29ZM20 30L20 31L19 31L19 34L20 34L20 32L21 32L21 30ZM26 31L26 32L27 32L27 31ZM40 31L40 32L41 32L41 31ZM52 31L52 34L54 34L54 32L55 32L55 31ZM3 32L3 33L4 33L4 34L5 34L5 33L4 33L4 32ZM36 32L36 33L37 33L37 32ZM42 32L42 33L43 33L43 32ZM11 33L11 34L12 34L12 35L13 35L13 34L12 34L12 33ZM17 33L17 35L15 35L15 36L17 36L17 35L18 35L18 33ZM41 34L41 35L42 35L42 34ZM43 34L43 35L44 35L44 34ZM4 35L4 36L5 36L5 37L7 37L7 38L6 38L6 39L8 39L8 38L9 38L9 37L7 37L7 36L5 36L5 35ZM51 35L51 36L52 36L52 35ZM54 35L54 36L55 36L55 37L56 37L56 36L55 36L55 35ZM27 36L27 37L24 37L24 39L25 39L25 41L26 41L26 39L25 39L25 38L29 38L29 36ZM32 36L32 38L30 38L30 39L28 39L28 40L27 40L27 41L29 41L29 40L30 40L30 42L31 42L31 40L33 40L33 39L35 39L35 40L34 40L34 41L36 41L36 42L34 42L34 43L35 43L35 44L36 44L36 45L38 45L38 44L37 44L37 42L39 42L39 41L37 41L37 40L38 40L38 39L37 39L37 37L34 37L34 38L33 38L33 36ZM4 38L4 39L5 39L5 38ZM32 38L32 39L33 39L33 38ZM35 38L35 39L36 39L36 38ZM48 38L48 39L47 39L47 40L49 40L49 38ZM50 38L50 39L51 39L51 38ZM14 39L14 41L16 41L16 40L17 40L17 39L16 39L16 40L15 40L15 39ZM56 40L56 41L57 41L57 40ZM6 41L6 42L8 42L8 41ZM10 41L10 42L9 42L9 43L6 43L6 44L5 44L5 43L4 43L4 44L3 44L3 45L2 45L2 46L1 46L1 47L2 47L2 46L3 46L3 47L5 47L5 46L7 46L7 45L6 45L6 44L8 44L8 45L10 45L10 42L11 42L11 41ZM41 41L41 42L42 42L42 41ZM49 42L49 43L50 43L50 42ZM12 43L12 44L13 44L13 45L14 45L14 47L15 47L15 48L17 48L17 47L16 47L16 46L15 46L15 45L14 45L14 43ZM25 43L25 44L23 44L23 45L24 45L24 46L25 46L25 45L26 45L26 46L27 46L27 45L26 45L26 43ZM30 43L30 44L31 44L31 43ZM21 44L21 46L20 46L20 47L21 47L21 48L23 48L23 49L22 49L22 52L23 52L23 49L24 49L24 48L25 48L25 47L23 47L23 46L22 46L22 44ZM3 45L3 46L5 46L5 45ZM21 46L21 47L22 47L22 46ZM50 47L50 48L52 48L52 47ZM6 48L6 49L7 49L7 48ZM41 48L41 49L42 49L42 48ZM47 48L47 49L46 49L46 50L47 50L47 52L46 52L46 53L47 53L47 54L50 54L50 53L47 53L47 52L48 52L48 48ZM27 49L27 52L30 52L30 49ZM49 49L49 52L52 52L52 49ZM28 50L28 51L29 51L29 50ZM50 50L50 51L51 51L51 50ZM11 51L11 52L12 52L12 51ZM31 51L31 53L32 53L32 51ZM40 51L40 52L42 52L42 51ZM33 52L33 53L34 53L34 52ZM54 52L54 53L56 53L56 52ZM20 53L20 55L21 55L21 56L22 56L22 55L21 55L21 53ZM9 54L9 55L10 55L10 54ZM44 54L44 55L45 55L45 54ZM46 55L46 56L47 56L47 55ZM56 55L56 56L57 56L57 55ZM52 56L52 57L53 57L53 56ZM54 56L54 57L55 57L55 56ZM0 0L0 7L7 7L7 0ZM1 1L1 6L6 6L6 1ZM2 2L2 5L5 5L5 2ZM50 0L50 7L57 7L57 0ZM51 1L51 6L56 6L56 1ZM52 2L52 5L55 5L55 2ZM0 50L0 57L7 57L7 50ZM1 51L1 56L6 56L6 51ZM2 52L2 55L5 55L5 52Z" fill="#000000"/></g></g></svg>
