<?xml version="1.0" encoding="UTF-8"?>
<svg xmlns="http://www.w3.org/2000/svg" version="1.1" width="300" height="300" viewBox="0 0 300 300"><rect x="0" y="0" width="300" height="300" fill="#fefefe"/><g transform="scale(4.615)"><g transform="translate(4,4)"><path fill-rule="evenodd" d="M10 0L10 1L11 1L11 0ZM12 0L12 3L13 3L13 4L12 4L12 7L11 7L11 6L10 6L10 7L9 7L9 5L11 5L11 3L10 3L10 4L9 4L9 3L8 3L8 4L9 4L9 5L8 5L8 7L9 7L9 8L6 8L6 9L8 9L8 11L7 11L7 10L6 10L6 11L5 11L5 10L4 10L4 9L5 9L5 8L0 8L0 9L1 9L1 10L0 10L0 11L1 11L1 12L4 12L4 14L3 14L3 15L2 15L2 16L3 16L3 15L4 15L4 14L5 14L5 13L7 13L7 12L10 12L10 13L9 13L9 14L6 14L6 15L9 15L9 17L10 17L10 19L9 19L9 18L8 18L8 16L6 16L6 17L7 17L7 18L5 18L5 19L4 19L4 17L5 17L5 16L4 16L4 17L3 17L3 18L2 18L2 21L1 21L1 19L0 19L0 22L2 22L2 24L4 24L4 23L5 23L5 22L6 22L6 23L7 23L7 24L5 24L5 26L4 26L4 31L3 31L3 30L2 30L2 29L1 29L1 27L2 27L2 28L3 28L3 27L2 27L2 26L0 26L0 29L1 29L1 30L2 30L2 31L3 31L3 32L4 32L4 33L7 33L7 34L6 34L6 35L7 35L7 34L8 34L8 35L11 35L11 36L10 36L10 39L7 39L7 38L9 38L9 37L8 37L8 36L5 36L5 34L3 34L3 35L4 35L4 37L7 37L7 38L5 38L5 40L4 40L4 41L3 41L3 42L2 42L2 41L1 41L1 39L0 39L0 41L1 41L1 44L0 44L0 45L1 45L1 46L0 46L0 48L5 48L5 47L7 47L7 46L8 46L8 48L9 48L9 49L8 49L8 51L9 51L9 52L8 52L8 57L9 57L9 56L10 56L10 57L12 57L12 56L13 56L13 54L14 54L14 57L16 57L16 56L17 56L17 57L19 57L19 55L20 55L20 54L19 54L19 53L20 53L20 52L21 52L21 50L25 50L25 51L26 51L26 53L25 53L25 52L24 52L24 53L23 53L23 54L22 54L22 55L23 55L23 56L24 56L24 55L23 55L23 54L24 54L24 53L25 53L25 55L26 55L26 54L30 54L30 53L31 53L31 51L32 51L32 52L33 52L33 51L35 51L35 52L34 52L34 53L35 53L35 54L36 54L36 56L35 56L35 55L33 55L33 53L32 53L32 54L31 54L31 56L30 56L30 55L29 55L29 56L27 56L27 57L29 57L29 56L30 56L30 57L31 57L31 56L35 56L35 57L39 57L39 56L40 56L40 55L41 55L41 56L42 56L42 55L43 55L43 57L44 57L44 54L45 54L45 53L44 53L44 52L45 52L45 51L46 51L46 52L47 52L47 50L48 50L48 53L47 53L47 56L46 56L46 57L48 57L48 56L50 56L50 57L52 57L52 55L51 55L51 53L52 53L52 54L53 54L53 55L54 55L54 56L53 56L53 57L54 57L54 56L55 56L55 57L56 57L56 56L55 56L55 54L53 54L53 52L54 52L54 53L55 53L55 52L56 52L56 51L54 51L54 50L57 50L57 48L56 48L56 46L57 46L57 45L56 45L56 44L57 44L57 43L56 43L56 41L55 41L55 39L57 39L57 37L55 37L55 35L56 35L56 34L57 34L57 32L56 32L56 30L57 30L57 27L56 27L56 26L57 26L57 25L56 25L56 22L57 22L57 21L56 21L56 20L57 20L57 19L56 19L56 18L57 18L57 17L56 17L56 16L57 16L57 15L56 15L56 14L57 14L57 12L56 12L56 10L54 10L54 11L53 11L53 9L54 9L54 8L53 8L53 9L52 9L52 8L51 8L51 10L49 10L49 9L50 9L50 8L48 8L48 7L49 7L49 6L48 6L48 7L47 7L47 5L48 5L48 0L45 0L45 1L47 1L47 2L44 2L44 3L42 3L42 2L43 2L43 0L41 0L41 1L40 1L40 0L39 0L39 1L38 1L38 0L37 0L37 1L38 1L38 2L37 2L37 3L36 3L36 0L35 0L35 1L33 1L33 0L32 0L32 3L31 3L31 0L29 0L29 1L30 1L30 2L29 2L29 3L30 3L30 4L26 4L26 3L23 3L23 4L19 4L19 3L20 3L20 1L19 1L19 2L18 2L18 0L17 0L17 2L18 2L18 4L17 4L17 6L16 6L16 7L15 7L15 6L14 6L14 7L13 7L13 4L14 4L14 2L15 2L15 3L16 3L16 2L15 2L15 1L14 1L14 0ZM21 0L21 1L22 1L22 0ZM23 0L23 2L27 2L27 3L28 3L28 2L27 2L27 1L26 1L26 0ZM8 1L8 2L9 2L9 1ZM13 1L13 2L14 2L14 1ZM21 2L21 3L22 3L22 2ZM33 2L33 3L32 3L32 4L31 4L31 8L32 8L32 10L31 10L31 11L30 11L30 10L29 10L29 9L28 9L28 10L27 10L27 11L26 11L26 12L25 12L25 11L24 11L24 12L25 12L25 13L26 13L26 17L25 17L25 15L21 15L21 13L22 13L22 14L23 14L23 13L22 13L22 12L21 12L21 11L22 11L22 10L23 10L23 8L24 8L24 6L23 6L23 5L24 5L24 4L23 4L23 5L21 5L21 7L22 7L22 8L19 8L19 9L20 9L20 10L19 10L19 13L20 13L20 19L19 19L19 20L20 20L20 21L18 21L18 18L19 18L19 17L16 17L16 16L19 16L19 15L18 15L18 14L17 14L17 13L18 13L18 12L17 12L17 13L16 13L16 12L15 12L15 13L13 13L13 12L14 12L14 11L12 11L12 10L13 10L13 9L12 9L12 8L11 8L11 9L12 9L12 10L9 10L9 11L10 11L10 12L12 12L12 13L10 13L10 14L9 14L9 15L11 15L11 16L10 16L10 17L11 17L11 16L12 16L12 18L11 18L11 19L10 19L10 20L9 20L9 19L8 19L8 20L7 20L7 19L6 19L6 20L7 20L7 21L6 21L6 22L8 22L8 23L9 23L9 22L8 22L8 20L9 20L9 21L10 21L10 22L11 22L11 23L10 23L10 25L11 25L11 26L12 26L12 27L10 27L10 26L9 26L9 24L8 24L8 26L9 26L9 27L10 27L10 28L9 28L9 32L7 32L7 31L5 31L5 32L7 32L7 33L8 33L8 34L10 34L10 33L9 33L9 32L11 32L11 34L12 34L12 33L13 33L13 35L12 35L12 36L13 36L13 35L15 35L15 37L13 37L13 38L12 38L12 40L11 40L11 39L10 39L10 41L8 41L8 40L7 40L7 39L6 39L6 40L7 40L7 41L5 41L5 42L3 42L3 44L2 44L2 45L3 45L3 47L5 47L5 46L7 46L7 45L5 45L5 42L7 42L7 41L8 41L8 42L10 42L10 43L9 43L9 44L8 44L8 43L6 43L6 44L8 44L8 45L9 45L9 44L10 44L10 43L12 43L12 45L10 45L10 46L9 46L9 48L10 48L10 47L11 47L11 46L12 46L12 47L13 47L13 46L15 46L15 48L16 48L16 49L14 49L14 48L12 48L12 49L14 49L14 50L13 50L13 52L15 52L15 50L17 50L17 51L16 51L16 53L14 53L14 54L16 54L16 53L17 53L17 52L18 52L18 50L19 50L19 52L20 52L20 50L21 50L21 49L23 49L23 47L24 47L24 46L23 46L23 45L22 45L22 44L21 44L21 43L22 43L22 42L24 42L24 43L23 43L23 44L24 44L24 45L25 45L25 48L24 48L24 49L25 49L25 50L26 50L26 49L25 49L25 48L28 48L28 46L29 46L29 45L30 45L30 43L29 43L29 41L30 41L30 42L32 42L32 43L31 43L31 44L32 44L32 45L31 45L31 47L32 47L32 45L33 45L33 46L35 46L35 47L33 47L33 48L32 48L32 49L31 49L31 50L32 50L32 51L33 51L33 50L36 50L36 52L37 52L37 51L38 51L38 54L40 54L40 53L41 53L41 52L43 52L43 51L42 51L42 50L41 50L41 48L42 48L42 49L43 49L43 50L47 50L47 49L48 49L48 48L49 48L49 47L51 47L51 48L53 48L53 49L54 49L54 48L53 48L53 47L54 47L54 46L56 46L56 45L55 45L55 44L54 44L54 45L53 45L53 43L54 43L54 42L53 42L53 41L54 41L54 40L53 40L53 39L52 39L52 38L53 38L53 35L55 35L55 34L54 34L54 33L52 33L52 32L51 32L51 33L52 33L52 34L50 34L50 32L49 32L49 31L48 31L48 30L47 30L47 29L48 29L48 27L47 27L47 25L46 25L46 24L45 24L45 22L47 22L47 24L49 24L49 25L50 25L50 26L51 26L51 25L55 25L55 26L56 26L56 25L55 25L55 24L53 24L53 23L55 23L55 22L56 22L56 21L55 21L55 20L53 20L53 19L52 19L52 20L51 20L51 21L49 21L49 20L47 20L47 19L48 19L48 18L47 18L47 17L45 17L45 15L44 15L44 13L45 13L45 14L47 14L47 13L49 13L49 12L50 12L50 14L49 14L49 15L48 15L48 16L49 16L49 15L50 15L50 16L51 16L51 17L50 17L50 18L49 18L49 19L51 19L51 17L53 17L53 18L55 18L55 16L53 16L53 15L55 15L55 14L56 14L56 12L54 12L54 13L55 13L55 14L53 14L53 15L52 15L52 16L51 16L51 15L50 15L50 14L51 14L51 12L50 12L50 11L49 11L49 10L48 10L48 11L49 11L49 12L45 12L45 11L44 11L44 10L47 10L47 9L45 9L45 8L44 8L44 10L43 10L43 11L41 11L41 12L40 12L40 10L41 10L41 9L43 9L43 7L44 7L44 6L45 6L45 7L46 7L46 5L47 5L47 3L44 3L44 6L43 6L43 7L42 7L42 5L40 5L40 4L41 4L41 3L39 3L39 2L38 2L38 3L37 3L37 4L36 4L36 5L35 5L35 2ZM15 4L15 5L16 5L16 4ZM18 4L18 6L17 6L17 7L16 7L16 8L14 8L14 10L15 10L15 11L18 11L18 10L17 10L17 9L16 9L16 8L17 8L17 7L18 7L18 6L19 6L19 7L20 7L20 5L19 5L19 4ZM25 4L25 8L26 8L26 4ZM32 4L32 5L34 5L34 7L33 7L33 6L32 6L32 7L33 7L33 9L34 9L34 8L35 8L35 9L37 9L37 10L36 10L36 12L35 12L35 14L32 14L32 11L33 11L33 10L32 10L32 11L31 11L31 13L30 13L30 14L29 14L29 13L28 13L28 12L29 12L29 10L28 10L28 11L27 11L27 12L26 12L26 13L28 13L28 14L29 14L29 16L28 16L28 15L27 15L27 16L28 16L28 17L26 17L26 19L25 19L25 17L22 17L22 16L21 16L21 17L22 17L22 18L24 18L24 19L23 19L23 20L24 20L24 21L22 21L22 19L20 19L20 20L21 20L21 21L22 21L22 22L24 22L24 21L25 21L25 22L26 22L26 23L25 23L25 24L24 24L24 23L23 23L23 24L24 24L24 25L22 25L22 26L21 26L21 27L20 27L20 26L19 26L19 25L21 25L21 24L18 24L18 23L20 23L20 22L18 22L18 21L16 21L16 20L15 20L15 21L16 21L16 22L15 22L15 23L14 23L14 24L15 24L15 25L13 25L13 22L14 22L14 21L13 21L13 22L12 22L12 21L11 21L11 20L12 20L12 19L13 19L13 20L14 20L14 19L13 19L13 18L14 18L14 16L16 16L16 13L15 13L15 14L14 14L14 16L13 16L13 13L12 13L12 16L13 16L13 18L12 18L12 19L11 19L11 20L10 20L10 21L11 21L11 22L12 22L12 26L14 26L14 29L13 29L13 28L11 28L11 29L13 29L13 30L15 30L15 31L16 31L16 29L18 29L18 30L17 30L17 31L18 31L18 32L17 32L17 34L16 34L16 35L17 35L17 36L18 36L18 37L17 37L17 40L16 40L16 39L15 39L15 38L16 38L16 37L15 37L15 38L13 38L13 39L14 39L14 40L15 40L15 41L17 41L17 42L18 42L18 43L16 43L16 44L18 44L18 45L17 45L17 49L19 49L19 50L20 50L20 49L19 49L19 48L20 48L20 47L19 47L19 46L20 46L20 43L21 43L21 42L22 42L22 41L21 41L21 42L20 42L20 41L19 41L19 40L22 40L22 39L24 39L24 40L23 40L23 41L24 41L24 42L25 42L25 41L24 41L24 40L25 40L25 36L26 36L26 40L27 40L27 41L26 41L26 42L27 42L27 41L28 41L28 39L27 39L27 38L28 38L28 37L27 37L27 36L26 36L26 35L27 35L27 31L29 31L29 32L28 32L28 33L29 33L29 34L30 34L30 36L29 36L29 37L31 37L31 38L29 38L29 39L33 39L33 40L35 40L35 42L37 42L37 43L36 43L36 44L35 44L35 43L34 43L34 42L33 42L33 41L32 41L32 40L30 40L30 41L32 41L32 42L33 42L33 43L32 43L32 44L33 44L33 43L34 43L34 45L37 45L37 47L36 47L36 48L35 48L35 49L36 49L36 50L38 50L38 51L40 51L40 52L41 52L41 50L38 50L38 49L39 49L39 48L41 48L41 46L43 46L43 47L42 47L42 48L43 48L43 49L44 49L44 48L43 48L43 47L44 47L44 46L43 46L43 45L44 45L44 43L43 43L43 42L44 42L44 41L43 41L43 40L45 40L45 39L46 39L46 40L47 40L47 39L48 39L48 38L49 38L49 39L50 39L50 40L49 40L49 41L48 41L48 42L47 42L47 43L46 43L46 44L45 44L45 45L47 45L47 46L45 46L45 47L47 47L47 48L48 48L48 47L49 47L49 46L48 46L48 45L49 45L49 44L48 44L48 45L47 45L47 43L48 43L48 42L49 42L49 43L50 43L50 44L51 44L51 45L52 45L52 44L51 44L51 43L53 43L53 42L51 42L51 41L53 41L53 40L52 40L52 39L50 39L50 38L51 38L51 36L52 36L52 35L53 35L53 34L52 34L52 35L50 35L50 34L48 34L48 35L50 35L50 36L48 36L48 37L47 37L47 34L45 34L45 35L44 35L44 33L43 33L43 32L45 32L45 33L46 33L46 32L48 32L48 33L49 33L49 32L48 32L48 31L47 31L47 30L46 30L46 29L47 29L47 27L46 27L46 26L45 26L45 25L44 25L44 20L45 20L45 21L47 21L47 22L49 22L49 21L47 21L47 20L46 20L46 19L45 19L45 18L44 18L44 15L42 15L42 16L41 16L41 15L39 15L39 14L38 14L38 13L40 13L40 12L39 12L39 10L38 10L38 9L39 9L39 6L40 6L40 7L41 7L41 6L40 6L40 5L39 5L39 6L38 6L38 9L37 9L37 8L35 8L35 5L34 5L34 4ZM37 4L37 5L36 5L36 7L37 7L37 5L38 5L38 4ZM45 4L45 5L46 5L46 4ZM27 5L27 8L30 8L30 5ZM22 6L22 7L23 7L23 6ZM28 6L28 7L29 7L29 6ZM9 8L9 9L10 9L10 8ZM55 8L55 9L56 9L56 8ZM2 9L2 10L1 10L1 11L4 11L4 10L3 10L3 9ZM15 9L15 10L16 10L16 9ZM21 9L21 10L22 10L22 9ZM37 10L37 11L38 11L38 10ZM6 11L6 12L7 12L7 11ZM33 12L33 13L34 13L34 12ZM43 12L43 13L41 13L41 14L43 14L43 13L44 13L44 12ZM52 12L52 13L53 13L53 12ZM30 14L30 15L31 15L31 16L32 16L32 17L31 17L31 18L30 18L30 19L28 19L28 18L27 18L27 19L26 19L26 20L25 20L25 21L28 21L28 22L27 22L27 23L30 23L30 24L32 24L32 26L31 26L31 28L32 28L32 29L31 29L31 31L30 31L30 32L29 32L29 33L31 33L31 32L32 32L32 33L33 33L33 34L31 34L31 35L33 35L33 36L32 36L32 37L33 37L33 39L35 39L35 40L38 40L38 42L39 42L39 43L40 43L40 44L39 44L39 45L38 45L38 46L39 46L39 47L38 47L38 48L37 48L37 49L38 49L38 48L39 48L39 47L40 47L40 46L39 46L39 45L41 45L41 44L42 44L42 42L41 42L41 41L42 41L42 40L43 40L43 39L45 39L45 38L46 38L46 39L47 39L47 37L46 37L46 36L44 36L44 35L43 35L43 34L42 34L42 35L41 35L41 36L40 36L40 37L38 37L38 35L40 35L40 34L39 34L39 33L41 33L41 32L43 32L43 31L44 31L44 30L45 30L45 28L46 28L46 27L45 27L45 26L42 26L42 28L41 28L41 27L40 27L40 26L39 26L39 25L41 25L41 24L43 24L43 23L42 23L42 22L41 22L41 24L38 24L38 23L37 23L37 24L38 24L38 26L37 26L37 25L33 25L33 24L32 24L32 23L33 23L33 22L34 22L34 23L35 23L35 21L34 21L34 20L35 20L35 19L36 19L36 20L37 20L37 21L38 21L38 22L39 22L39 23L40 23L40 22L39 22L39 21L42 21L42 20L39 20L39 21L38 21L38 20L37 20L37 19L39 19L39 17L41 17L41 16L39 16L39 15L38 15L38 14L36 14L36 15L35 15L35 16L32 16L32 15L31 15L31 14ZM0 15L0 16L1 16L1 15ZM35 16L35 17L37 17L37 18L38 18L38 17L39 17L39 16L38 16L38 17L37 17L37 16ZM42 16L42 17L43 17L43 16ZM0 17L0 18L1 18L1 17ZM15 17L15 18L16 18L16 17ZM32 17L32 18L31 18L31 19L30 19L30 20L31 20L31 21L29 21L29 22L30 22L30 23L31 23L31 21L32 21L32 20L34 20L34 19L33 19L33 17ZM41 18L41 19L42 19L42 18ZM43 18L43 20L44 20L44 18ZM3 19L3 20L4 20L4 22L3 22L3 21L2 21L2 22L3 22L3 23L4 23L4 22L5 22L5 20L4 20L4 19ZM27 19L27 20L28 20L28 19ZM51 21L51 22L50 22L50 23L53 23L53 22L54 22L54 21ZM15 23L15 24L16 24L16 25L15 25L15 29L16 29L16 27L17 27L17 28L18 28L18 29L19 29L19 30L18 30L18 31L20 31L20 32L19 32L19 33L18 33L18 34L19 34L19 35L20 35L20 36L19 36L19 37L18 37L18 39L20 39L20 38L19 38L19 37L21 37L21 38L24 38L24 37L23 37L23 36L24 36L24 34L23 34L23 33L25 33L25 35L26 35L26 31L25 31L25 30L24 30L24 31L25 31L25 32L21 32L21 31L23 31L23 28L24 28L24 26L22 26L22 27L21 27L21 28L22 28L22 29L19 29L19 26L18 26L18 25L17 25L17 24L16 24L16 23ZM0 24L0 25L1 25L1 24ZM25 24L25 25L26 25L26 26L25 26L25 27L26 27L26 26L27 26L27 25L28 25L28 26L30 26L30 25L29 25L29 24ZM6 25L6 26L7 26L7 25ZM17 26L17 27L18 27L18 26ZM32 26L32 27L33 27L33 28L35 28L35 29L38 29L38 28L40 28L40 27L37 27L37 28L35 28L35 27L36 27L36 26L34 26L34 27L33 27L33 26ZM53 26L53 27L54 27L54 26ZM5 27L5 30L8 30L8 27ZM27 27L27 30L30 30L30 27ZM43 27L43 29L41 29L41 30L44 30L44 28L45 28L45 27ZM49 27L49 30L52 30L52 27ZM55 27L55 28L54 28L54 29L56 29L56 27ZM6 28L6 29L7 29L7 28ZM25 28L25 29L26 29L26 28ZM28 28L28 29L29 29L29 28ZM50 28L50 29L51 29L51 28ZM39 29L39 30L38 30L38 32L39 32L39 30L40 30L40 29ZM10 30L10 31L11 31L11 32L12 32L12 31L11 31L11 30ZM20 30L20 31L21 31L21 30ZM32 30L32 31L36 31L36 30ZM0 31L0 35L1 35L1 38L2 38L2 37L3 37L3 36L2 36L2 34L1 34L1 33L2 33L2 32L1 32L1 31ZM13 31L13 32L14 32L14 31ZM33 32L33 33L34 33L34 32ZM35 32L35 34L37 34L37 35L38 35L38 33L37 33L37 32ZM55 32L55 33L56 33L56 32ZM19 33L19 34L20 34L20 35L22 35L22 36L23 36L23 35L22 35L22 33L21 33L21 34L20 34L20 33ZM33 34L33 35L34 35L34 36L33 36L33 37L35 37L35 39L37 39L37 38L38 38L38 37L37 37L37 36L35 36L35 35L34 35L34 34ZM42 35L42 36L43 36L43 37L40 37L40 38L43 38L43 37L44 37L44 38L45 38L45 37L44 37L44 36L43 36L43 35ZM49 37L49 38L50 38L50 37ZM54 37L54 38L55 38L55 37ZM3 38L3 39L2 39L2 40L3 40L3 39L4 39L4 38ZM38 39L38 40L40 40L40 39ZM12 40L12 41L11 41L11 42L12 42L12 43L13 43L13 42L12 42L12 41L13 41L13 40ZM18 41L18 42L19 42L19 41ZM39 41L39 42L40 42L40 41ZM14 42L14 44L13 44L13 45L12 45L12 46L13 46L13 45L14 45L14 44L15 44L15 42ZM50 42L50 43L51 43L51 42ZM24 43L24 44L27 44L27 43ZM28 43L28 44L29 44L29 43ZM3 44L3 45L4 45L4 44ZM21 45L21 47L23 47L23 46L22 46L22 45ZM26 45L26 47L27 47L27 45ZM1 46L1 47L2 47L2 46ZM47 46L47 47L48 47L48 46ZM51 46L51 47L53 47L53 46ZM18 47L18 48L19 48L19 47ZM29 47L29 48L30 48L30 47ZM6 48L6 49L7 49L7 48ZM33 48L33 49L34 49L34 48ZM55 48L55 49L56 49L56 48ZM9 49L9 50L10 50L10 51L12 51L12 50L11 50L11 49ZM27 49L27 52L30 52L30 49ZM49 49L49 52L52 52L52 49ZM28 50L28 51L29 51L29 50ZM50 50L50 51L51 51L51 50ZM9 52L9 55L10 55L10 54L11 54L11 56L12 56L12 54L11 54L11 53L12 53L12 52L11 52L11 53L10 53L10 52ZM43 53L43 54L44 54L44 53ZM17 54L17 56L18 56L18 55L19 55L19 54ZM41 54L41 55L42 55L42 54ZM15 55L15 56L16 56L16 55ZM37 55L37 56L39 56L39 55ZM50 55L50 56L51 56L51 55ZM25 56L25 57L26 57L26 56ZM0 0L0 7L7 7L7 0ZM1 1L1 6L6 6L6 1ZM2 2L2 5L5 5L5 2ZM50 0L50 7L57 7L57 0ZM51 1L51 6L56 6L56 1ZM52 2L52 5L55 5L55 2ZM0 50L0 57L7 57L7 50ZM1 51L1 56L6 56L6 51ZM2 52L2 55L5 55L5 52Z" fill="#000000"/></g></g></svg>
