<?xml version="1.0" encoding="UTF-8"?>
<svg xmlns="http://www.w3.org/2000/svg" version="1.1" width="300" height="300" viewBox="0 0 300 300"><rect x="0" y="0" width="300" height="300" fill="#fefefe"/><g transform="scale(4.615)"><g transform="translate(4,4)"><path fill-rule="evenodd" d="M8 0L8 4L10 4L10 5L8 5L8 7L9 7L9 10L8 10L8 9L7 9L7 8L4 8L4 9L2 9L2 8L0 8L0 9L1 9L1 10L0 10L0 11L1 11L1 12L2 12L2 13L0 13L0 17L2 17L2 18L1 18L1 19L2 19L2 20L3 20L3 18L5 18L5 19L4 19L4 20L6 20L6 21L4 21L4 23L3 23L3 22L2 22L2 21L0 21L0 22L1 22L1 23L3 23L3 25L2 25L2 24L1 24L1 25L0 25L0 27L1 27L1 25L2 25L2 26L3 26L3 30L2 30L2 28L1 28L1 31L0 31L0 32L1 32L1 34L0 34L0 35L1 35L1 36L0 36L0 37L1 37L1 38L0 38L0 39L1 39L1 40L0 40L0 42L1 42L1 41L3 41L3 42L2 42L2 43L3 43L3 44L4 44L4 46L5 46L5 47L3 47L3 45L2 45L2 47L1 47L1 45L0 45L0 48L5 48L5 47L8 47L8 48L10 48L10 49L8 49L8 50L9 50L9 51L8 51L8 53L9 53L9 54L10 54L10 55L13 55L13 54L15 54L15 55L14 55L14 57L16 57L16 56L15 56L15 55L16 55L16 54L17 54L17 55L18 55L18 56L17 56L17 57L19 57L19 55L20 55L20 54L21 54L21 53L22 53L22 54L23 54L23 55L24 55L24 56L23 56L23 57L25 57L25 55L26 55L26 53L28 53L28 57L29 57L29 55L30 55L30 57L34 57L34 55L35 55L35 57L37 57L37 56L36 56L36 54L37 54L37 53L38 53L38 55L40 55L40 56L39 56L39 57L40 57L40 56L41 56L41 57L42 57L42 56L43 56L43 55L44 55L44 57L45 57L45 55L46 55L46 56L48 56L48 57L50 57L50 55L51 55L51 56L53 56L53 55L54 55L54 54L53 54L53 50L54 50L54 51L56 51L56 52L54 52L54 53L55 53L55 54L57 54L57 51L56 51L56 45L57 45L57 43L56 43L56 42L57 42L57 40L55 40L55 41L53 41L53 40L52 40L52 39L47 39L47 38L46 38L46 37L45 37L45 36L49 36L49 37L50 37L50 38L52 38L52 36L53 36L53 37L55 37L55 36L56 36L56 34L57 34L57 33L56 33L56 30L55 30L55 29L56 29L56 27L55 27L55 29L54 29L54 28L53 28L53 27L54 27L54 26L55 26L55 25L54 25L54 24L53 24L53 23L52 23L52 22L53 22L53 21L52 21L52 20L53 20L53 19L52 19L52 18L53 18L53 17L55 17L55 19L56 19L56 21L55 21L55 24L56 24L56 25L57 25L57 24L56 24L56 21L57 21L57 19L56 19L56 18L57 18L57 15L56 15L56 13L57 13L57 12L56 12L56 13L55 13L55 14L54 14L54 12L53 12L53 13L52 13L52 14L51 14L51 12L52 12L52 8L51 8L51 9L48 9L48 8L47 8L47 9L48 9L48 10L49 10L49 11L48 11L48 12L49 12L49 11L50 11L50 15L48 15L48 16L47 16L47 18L46 18L46 11L45 11L45 10L46 10L46 7L47 7L47 5L48 5L48 0L46 0L46 1L47 1L47 2L45 2L45 0L41 0L41 1L40 1L40 2L39 2L39 3L40 3L40 4L38 4L38 5L36 5L36 4L35 4L35 2L36 2L36 3L38 3L38 1L39 1L39 0L38 0L38 1L37 1L37 2L36 2L36 0L35 0L35 1L34 1L34 0L28 0L28 2L27 2L27 3L28 3L28 4L26 4L26 3L25 3L25 2L26 2L26 1L27 1L27 0L26 0L26 1L25 1L25 0L23 0L23 2L22 2L22 1L21 1L21 0L20 0L20 2L19 2L19 1L18 1L18 2L17 2L17 1L16 1L16 0L15 0L15 1L16 1L16 2L15 2L15 3L16 3L16 4L17 4L17 5L18 5L18 4L17 4L17 3L21 3L21 6L20 6L20 5L19 5L19 6L18 6L18 7L19 7L19 8L17 8L17 6L16 6L16 5L15 5L15 4L14 4L14 0L12 0L12 1L13 1L13 3L12 3L12 2L10 2L10 1L11 1L11 0L10 0L10 1L9 1L9 0ZM29 1L29 4L30 4L30 3L32 3L32 5L33 5L33 4L34 4L34 5L35 5L35 7L34 7L34 6L33 6L33 7L32 7L32 6L31 6L31 10L30 10L30 11L31 11L31 12L29 12L29 11L28 11L28 12L27 12L27 11L26 11L26 14L25 14L25 15L24 15L24 14L23 14L23 13L24 13L24 12L23 12L23 11L25 11L25 10L28 10L28 9L26 9L26 6L25 6L25 7L24 7L24 6L23 6L23 5L24 5L24 4L25 4L25 3L23 3L23 5L22 5L22 6L21 6L21 7L22 7L22 6L23 6L23 7L24 7L24 8L25 8L25 10L22 10L22 9L23 9L23 8L22 8L22 9L21 9L21 10L20 10L20 8L19 8L19 10L18 10L18 11L17 11L17 9L16 9L16 8L15 8L15 7L16 7L16 6L15 6L15 5L13 5L13 9L12 9L12 8L11 8L11 7L12 7L12 6L11 6L11 5L12 5L12 4L11 4L11 5L10 5L10 6L9 6L9 7L10 7L10 8L11 8L11 9L10 9L10 10L11 10L11 13L10 13L10 16L11 16L11 17L10 17L10 18L8 18L8 17L9 17L9 16L8 16L8 15L6 15L6 16L7 16L7 17L6 17L6 18L8 18L8 19L6 19L6 20L8 20L8 21L6 21L6 22L8 22L8 23L9 23L9 24L8 24L8 25L11 25L11 23L12 23L12 22L13 22L13 24L12 24L12 28L14 28L14 26L15 26L15 25L16 25L16 26L17 26L17 27L18 27L18 25L17 25L17 23L18 23L18 24L20 24L20 25L19 25L19 28L18 28L18 29L13 29L13 31L12 31L12 30L11 30L11 31L12 31L12 32L9 32L9 35L10 35L10 36L13 36L13 35L14 35L14 36L15 36L15 34L14 34L14 32L13 32L13 31L15 31L15 30L16 30L16 34L18 34L18 33L17 33L17 32L19 32L19 34L20 34L20 35L16 35L16 37L15 37L15 38L14 38L14 37L10 37L10 38L8 38L8 37L6 37L6 36L7 36L7 35L8 35L8 34L7 34L7 33L8 33L8 31L6 31L6 32L5 32L5 33L6 33L6 34L7 34L7 35L5 35L5 34L3 34L3 33L4 33L4 31L3 31L3 33L2 33L2 36L1 36L1 37L2 37L2 40L3 40L3 39L5 39L5 38L7 38L7 39L6 39L6 40L7 40L7 39L8 39L8 41L9 41L9 40L10 40L10 38L11 38L11 43L10 43L10 45L11 45L11 44L13 44L13 45L12 45L12 46L11 46L11 47L10 47L10 46L9 46L9 44L8 44L8 43L9 43L9 42L8 42L8 43L6 43L6 42L7 42L7 41L5 41L5 40L4 40L4 42L5 42L5 45L6 45L6 46L7 46L7 45L6 45L6 44L8 44L8 47L10 47L10 48L12 48L12 50L11 50L11 53L10 53L10 54L11 54L11 53L12 53L12 51L14 51L14 52L15 52L15 53L17 53L17 52L18 52L18 50L17 50L17 48L18 48L18 46L17 46L17 45L18 45L18 44L19 44L19 43L20 43L20 44L21 44L21 43L22 43L22 44L25 44L25 43L28 43L28 44L29 44L29 45L26 45L26 46L24 46L24 47L23 47L23 45L21 45L21 46L22 46L22 47L21 47L21 48L22 48L22 49L21 49L21 50L22 50L22 53L24 53L24 54L25 54L25 53L26 53L26 50L25 50L25 53L24 53L24 52L23 52L23 50L22 50L22 49L23 49L23 48L24 48L24 49L25 49L25 48L28 48L28 47L26 47L26 46L29 46L29 48L31 48L31 49L32 49L32 47L31 47L31 45L32 45L32 46L33 46L33 45L32 45L32 43L33 43L33 44L35 44L35 43L33 43L33 41L32 41L32 40L33 40L33 39L34 39L34 42L35 42L35 39L37 39L37 42L38 42L38 39L39 39L39 40L40 40L40 41L42 41L42 37L41 37L41 35L42 35L42 36L43 36L43 37L44 37L44 38L43 38L43 41L44 41L44 39L45 39L45 37L44 37L44 35L45 35L45 33L46 33L46 35L47 35L47 34L49 34L49 33L48 33L48 31L47 31L47 30L48 30L48 27L46 27L46 26L47 26L47 25L49 25L49 26L50 26L50 25L51 25L51 24L52 24L52 25L53 25L53 24L52 24L52 23L50 23L50 22L47 22L47 20L49 20L49 21L51 21L51 22L52 22L52 21L51 21L51 20L49 20L49 19L51 19L51 18L52 18L52 17L53 17L53 16L55 16L55 17L56 17L56 16L55 16L55 15L54 15L54 14L52 14L52 17L51 17L51 18L50 18L50 16L49 16L49 18L48 18L48 19L46 19L46 21L45 21L45 22L44 22L44 16L45 16L45 13L44 13L44 12L45 12L45 11L43 11L43 10L45 10L45 9L44 9L44 8L45 8L45 7L46 7L46 6L45 6L45 7L44 7L44 4L45 4L45 5L47 5L47 3L44 3L44 2L43 2L43 3L44 3L44 4L43 4L43 7L42 7L42 5L39 5L39 7L40 7L40 6L41 6L41 8L40 8L40 10L41 10L41 11L39 11L39 10L38 10L38 8L37 8L37 9L35 9L35 7L36 7L36 5L35 5L35 4L34 4L34 1L32 1L32 2L30 2L30 1ZM9 2L9 3L10 3L10 2ZM16 2L16 3L17 3L17 2ZM21 2L21 3L22 3L22 2ZM32 2L32 3L33 3L33 2ZM40 2L40 3L42 3L42 2ZM27 5L27 8L30 8L30 5ZM10 6L10 7L11 7L11 6ZM14 6L14 7L15 7L15 6ZM19 6L19 7L20 7L20 6ZM28 6L28 7L29 7L29 6ZM37 6L37 7L38 7L38 6ZM48 6L48 7L49 7L49 6ZM33 7L33 8L32 8L32 11L33 11L33 10L34 10L34 12L35 12L35 13L37 13L37 12L39 12L39 11L38 11L38 10L37 10L37 12L35 12L35 11L36 11L36 10L34 10L34 9L33 9L33 8L34 8L34 7ZM14 8L14 10L12 10L12 9L11 9L11 10L12 10L12 12L13 12L13 11L14 11L14 12L15 12L15 13L11 13L11 16L12 16L12 19L13 19L13 20L12 20L12 21L9 21L9 22L12 22L12 21L14 21L14 22L15 22L15 23L14 23L14 24L13 24L13 26L14 26L14 25L15 25L15 23L16 23L16 22L18 22L18 21L19 21L19 23L20 23L20 22L21 22L21 21L22 21L22 20L23 20L23 19L24 19L24 18L26 18L26 17L28 17L28 18L30 18L30 19L27 19L27 20L26 20L26 19L25 19L25 20L24 20L24 21L23 21L23 23L21 23L21 25L20 25L20 28L21 28L21 27L22 27L22 28L23 28L23 30L22 30L22 29L20 29L20 32L21 32L21 33L20 33L20 34L21 34L21 33L22 33L22 31L23 31L23 32L24 32L24 31L25 31L25 32L27 32L27 33L23 33L23 35L21 35L21 36L17 36L17 37L18 37L18 38L16 38L16 39L15 39L15 42L16 42L16 43L15 43L15 44L14 44L14 43L13 43L13 44L14 44L14 45L13 45L13 48L15 48L15 50L16 50L16 45L17 45L17 44L16 44L16 43L18 43L18 41L19 41L19 40L20 40L20 42L21 42L21 41L22 41L22 40L24 40L24 39L22 39L22 36L23 36L23 37L24 37L24 38L26 38L26 40L25 40L25 41L23 41L23 43L25 43L25 42L26 42L26 41L27 41L27 42L28 42L28 43L29 43L29 42L28 42L28 40L29 40L29 41L30 41L30 40L31 40L31 39L33 39L33 38L31 38L31 39L29 39L29 38L28 38L28 39L27 39L27 38L26 38L26 37L25 37L25 36L27 36L27 37L28 37L28 36L29 36L29 37L31 37L31 36L32 36L32 37L34 37L34 33L35 33L35 38L37 38L37 39L38 39L38 38L40 38L40 40L41 40L41 37L38 37L38 38L37 38L37 36L38 36L38 34L39 34L39 33L40 33L40 34L42 34L42 35L43 35L43 33L45 33L45 32L46 32L46 33L47 33L47 32L46 32L46 30L45 30L45 31L44 31L44 30L43 30L43 29L41 29L41 30L40 30L40 32L39 32L39 29L40 29L40 28L41 28L41 27L42 27L42 28L44 28L44 29L45 29L45 26L46 26L46 23L45 23L45 24L44 24L44 27L43 27L43 25L41 25L41 26L40 26L40 25L38 25L38 26L40 26L40 28L39 28L39 27L37 27L37 26L36 26L36 29L37 29L37 30L36 30L36 31L34 31L34 27L33 27L33 26L34 26L34 25L37 25L37 24L34 24L34 23L35 23L35 22L37 22L37 20L38 20L38 22L39 22L39 21L40 21L40 22L43 22L43 23L44 23L44 22L43 22L43 20L42 20L42 21L40 21L40 18L41 18L41 19L42 19L42 18L43 18L43 17L42 17L42 15L43 15L43 16L44 16L44 14L43 14L43 13L41 13L41 17L40 17L40 13L38 13L38 15L39 15L39 17L38 17L38 16L37 16L37 15L36 15L36 14L35 14L35 17L38 17L38 18L39 18L39 19L37 19L37 18L34 18L34 13L33 13L33 12L32 12L32 13L30 13L30 15L33 15L33 16L32 16L32 17L33 17L33 18L34 18L34 20L33 20L33 19L31 19L31 16L29 16L29 13L27 13L27 14L28 14L28 15L27 15L27 16L26 16L26 15L25 15L25 17L21 17L21 16L18 16L18 17L17 17L17 19L16 19L16 16L17 16L17 14L18 14L18 15L19 15L19 13L20 13L20 15L22 15L22 16L24 16L24 15L22 15L22 14L21 14L21 13L23 13L23 12L22 12L22 11L20 11L20 10L19 10L19 11L20 11L20 12L18 12L18 13L17 13L17 11L16 11L16 9L15 9L15 8ZM41 8L41 10L43 10L43 9L42 9L42 8ZM53 8L53 9L56 9L56 10L55 10L55 11L56 11L56 10L57 10L57 8ZM4 9L4 10L1 10L1 11L2 11L2 12L3 12L3 13L5 13L5 14L4 14L4 15L2 15L2 16L3 16L3 17L5 17L5 16L4 16L4 15L5 15L5 14L8 14L8 13L9 13L9 12L10 12L10 11L8 11L8 10L7 10L7 9ZM5 10L5 11L4 11L4 12L6 12L6 13L8 13L8 11L7 11L7 10ZM53 10L53 11L54 11L54 10ZM6 11L6 12L7 12L7 11ZM15 11L15 12L16 12L16 11ZM41 11L41 12L43 12L43 11ZM20 12L20 13L21 13L21 12ZM15 13L15 14L17 14L17 13ZM32 13L32 14L33 14L33 13ZM47 13L47 14L49 14L49 13ZM13 14L13 15L12 15L12 16L13 16L13 17L14 17L14 14ZM18 17L18 18L19 18L19 19L17 19L17 20L15 20L15 18L13 18L13 19L14 19L14 20L15 20L15 21L18 21L18 20L19 20L19 21L20 21L20 20L22 20L22 19L20 19L20 17ZM39 17L39 18L40 18L40 17ZM10 18L10 19L11 19L11 18ZM8 19L8 20L9 20L9 19ZM35 19L35 20L36 20L36 19ZM28 20L28 21L32 21L32 20ZM24 21L24 22L25 22L25 23L26 23L26 22L27 22L27 23L28 23L28 22L27 22L27 21ZM34 21L34 22L30 22L30 23L29 23L29 24L28 24L28 25L29 25L29 24L31 24L31 29L32 29L32 30L31 30L31 32L30 32L30 31L29 31L29 33L28 33L28 34L26 34L26 35L27 35L27 36L28 36L28 34L29 34L29 33L32 33L32 30L33 30L33 29L32 29L32 28L33 28L33 27L32 27L32 23L34 23L34 22L35 22L35 21ZM6 23L6 24L5 24L5 26L7 26L7 25L6 25L6 24L7 24L7 23ZM23 23L23 24L22 24L22 25L21 25L21 26L22 26L22 25L23 25L23 24L24 24L24 23ZM48 23L48 24L49 24L49 25L50 25L50 24L49 24L49 23ZM33 24L33 25L34 25L34 24ZM3 25L3 26L4 26L4 25ZM25 25L25 26L24 26L24 27L26 27L26 25ZM9 26L9 27L10 27L10 28L11 28L11 26ZM5 27L5 30L8 30L8 27ZM15 27L15 28L16 28L16 27ZM27 27L27 30L30 30L30 27ZM49 27L49 30L52 30L52 27ZM6 28L6 29L7 29L7 28ZM28 28L28 29L29 29L29 28ZM37 28L37 29L38 29L38 28ZM46 28L46 29L47 29L47 28ZM50 28L50 29L51 29L51 28ZM9 29L9 31L10 31L10 29ZM18 29L18 30L17 30L17 31L18 31L18 30L19 30L19 29ZM25 29L25 30L26 30L26 29ZM21 30L21 31L22 31L22 30ZM23 30L23 31L24 31L24 30ZM37 30L37 32L38 32L38 30ZM53 30L53 33L51 33L51 32L52 32L52 31L51 31L51 32L50 32L50 31L49 31L49 32L50 32L50 35L49 35L49 36L50 36L50 37L51 37L51 36L50 36L50 35L53 35L53 36L55 36L55 35L53 35L53 34L54 34L54 32L55 32L55 30ZM1 31L1 32L2 32L2 31ZM33 31L33 33L34 33L34 31ZM6 32L6 33L7 33L7 32ZM40 32L40 33L41 33L41 32ZM10 33L10 35L13 35L13 34L12 34L12 33ZM37 33L37 34L38 34L38 33ZM55 33L55 34L56 34L56 33ZM24 34L24 36L25 36L25 34ZM30 34L30 36L31 36L31 34ZM3 35L3 37L4 37L4 38L5 38L5 36L4 36L4 35ZM39 35L39 36L40 36L40 35ZM19 37L19 38L18 38L18 39L17 39L17 40L16 40L16 42L17 42L17 41L18 41L18 40L19 40L19 39L20 39L20 38L21 38L21 37ZM12 38L12 39L14 39L14 38ZM53 38L53 39L57 39L57 38ZM46 39L46 40L45 40L45 41L46 41L46 42L47 42L47 43L45 43L45 45L44 45L44 42L42 42L42 44L43 44L43 45L44 45L44 46L43 46L43 47L42 47L42 49L43 49L43 50L42 50L42 52L41 52L41 44L40 44L40 42L39 42L39 44L37 44L37 43L36 43L36 44L37 44L37 45L34 45L34 48L33 48L33 49L34 49L34 51L35 51L35 52L36 52L36 49L34 49L34 48L35 48L35 46L38 46L38 45L39 45L39 44L40 44L40 46L39 46L39 47L38 47L38 49L37 49L37 52L38 52L38 53L39 53L39 52L40 52L40 53L44 53L44 55L45 55L45 53L44 53L44 52L43 52L43 50L44 50L44 51L45 51L45 52L46 52L46 55L48 55L48 56L49 56L49 54L51 54L51 55L52 55L52 54L51 54L51 53L49 53L49 54L48 54L48 52L47 52L47 51L45 51L45 49L46 49L46 50L47 50L47 49L48 49L48 47L49 47L49 45L50 45L50 43L51 43L51 44L52 44L52 43L53 43L53 44L54 44L54 45L56 45L56 44L55 44L55 42L56 42L56 41L55 41L55 42L54 42L54 43L53 43L53 41L52 41L52 40L47 40L47 39ZM12 40L12 42L13 42L13 41L14 41L14 40ZM46 40L46 41L47 41L47 40ZM31 41L31 43L32 43L32 41ZM48 41L48 42L49 42L49 43L48 43L48 45L47 45L47 44L46 44L46 45L45 45L45 46L44 46L44 49L45 49L45 47L46 47L46 48L47 48L47 47L48 47L48 45L49 45L49 43L50 43L50 42L49 42L49 41ZM51 41L51 43L52 43L52 41ZM19 45L19 47L20 47L20 45ZM46 45L46 47L47 47L47 45ZM52 45L52 46L53 46L53 47L52 47L52 48L54 48L54 49L55 49L55 47L54 47L54 46L53 46L53 45ZM50 46L50 48L51 48L51 46ZM22 47L22 48L23 48L23 47ZM24 47L24 48L25 48L25 47ZM36 47L36 48L37 48L37 47ZM39 47L39 49L38 49L38 52L39 52L39 51L40 51L40 47ZM6 48L6 49L7 49L7 48ZM19 48L19 51L20 51L20 48ZM13 49L13 50L14 50L14 49ZM27 49L27 52L30 52L30 49ZM49 49L49 52L52 52L52 49ZM28 50L28 51L29 51L29 50ZM32 50L32 51L31 51L31 52L32 52L32 51L33 51L33 50ZM50 50L50 51L51 51L51 50ZM15 51L15 52L17 52L17 51ZM19 52L19 53L20 53L20 52ZM33 52L33 53L32 53L32 54L33 54L33 53L34 53L34 54L35 54L35 53L34 53L34 52ZM30 53L30 54L31 54L31 53ZM18 54L18 55L19 55L19 54ZM40 54L40 55L41 55L41 56L42 56L42 55L43 55L43 54L42 54L42 55L41 55L41 54ZM8 55L8 57L11 57L11 56L9 56L9 55ZM21 55L21 56L20 56L20 57L22 57L22 55ZM26 56L26 57L27 57L27 56ZM56 56L56 57L57 57L57 56ZM0 0L0 7L7 7L7 0ZM1 1L1 6L6 6L6 1ZM2 2L2 5L5 5L5 2ZM50 0L50 7L57 7L57 0ZM51 1L51 6L56 6L56 1ZM52 2L52 5L55 5L55 2ZM0 50L0 57L7 57L7 50ZM1 51L1 56L6 56L6 51ZM2 52L2 55L5 55L5 52Z" fill="#000000"/></g></g></svg>
