<?xml version="1.0" encoding="UTF-8"?>
<svg xmlns="http://www.w3.org/2000/svg" version="1.1" width="300" height="300" viewBox="0 0 300 300"><rect x="0" y="0" width="300" height="300" fill="#fefefe"/><g transform="scale(4.615)"><g transform="translate(4,4)"><path fill-rule="evenodd" d="M8 0L8 1L10 1L10 4L11 4L11 5L10 5L10 7L11 7L11 5L12 5L12 8L13 8L13 6L14 6L14 8L15 8L15 9L16 9L16 8L15 8L15 6L16 6L16 7L17 7L17 6L18 6L18 7L19 7L19 10L20 10L20 7L21 7L21 11L19 11L19 12L18 12L18 10L17 10L17 11L16 11L16 10L15 10L15 11L14 11L14 9L11 9L11 8L10 8L10 10L9 10L9 11L8 11L8 9L9 9L9 8L8 8L8 9L7 9L7 8L6 8L6 9L7 9L7 10L4 10L4 8L0 8L0 9L1 9L1 10L2 10L2 9L3 9L3 10L4 10L4 13L3 13L3 11L1 11L1 12L2 12L2 13L3 13L3 14L4 14L4 15L2 15L2 14L1 14L1 16L0 16L0 18L2 18L2 19L1 19L1 20L0 20L0 22L1 22L1 20L2 20L2 21L4 21L4 24L5 24L5 25L1 25L1 26L2 26L2 27L0 27L0 28L2 28L2 29L1 29L1 31L2 31L2 32L3 32L3 33L4 33L4 34L3 34L3 35L4 35L4 37L5 37L5 36L6 36L6 37L7 37L7 38L6 38L6 39L5 39L5 38L2 38L2 39L5 39L5 40L4 40L4 41L5 41L5 40L6 40L6 41L9 41L9 42L8 42L8 43L7 43L7 42L6 42L6 43L5 43L5 42L4 42L4 43L3 43L3 42L2 42L2 41L3 41L3 40L2 40L2 41L0 41L0 43L1 43L1 44L2 44L2 45L1 45L1 46L0 46L0 48L5 48L5 47L7 47L7 48L6 48L6 49L7 49L7 48L8 48L8 50L9 50L9 53L8 53L8 57L10 57L10 56L9 56L9 54L11 54L11 57L14 57L14 55L13 55L13 56L12 56L12 52L11 52L11 51L12 51L12 50L13 50L13 51L14 51L14 52L15 52L15 51L14 51L14 50L13 50L13 48L12 48L12 47L14 47L14 49L15 49L15 50L16 50L16 48L17 48L17 49L19 49L19 50L21 50L21 51L18 51L18 52L19 52L19 54L18 54L18 53L17 53L17 54L16 54L16 53L14 53L14 54L15 54L15 57L18 57L18 56L17 56L17 54L18 54L18 55L20 55L20 56L19 56L19 57L23 57L23 54L25 54L25 55L24 55L24 57L25 57L25 55L26 55L26 56L28 56L28 55L26 55L26 54L25 54L25 53L29 53L29 54L31 54L31 55L30 55L30 56L31 56L31 57L32 57L32 55L34 55L34 56L33 56L33 57L36 57L36 55L37 55L37 54L36 54L36 53L33 53L33 50L34 50L34 51L35 51L35 52L36 52L36 51L38 51L38 52L39 52L39 54L38 54L38 57L42 57L42 56L46 56L46 57L47 57L47 56L49 56L49 57L51 57L51 54L52 54L52 53L54 53L54 52L56 52L56 53L55 53L55 54L53 54L53 56L52 56L52 57L55 57L55 56L54 56L54 55L55 55L55 54L56 54L56 53L57 53L57 52L56 52L56 51L55 51L55 50L57 50L57 48L56 48L56 49L55 49L55 48L54 48L54 47L57 47L57 45L56 45L56 46L52 46L52 43L53 43L53 42L54 42L54 43L56 43L56 44L57 44L57 43L56 43L56 41L57 41L57 40L56 40L56 41L55 41L55 42L54 42L54 41L53 41L53 40L55 40L55 38L56 38L56 39L57 39L57 38L56 38L56 36L54 36L54 35L57 35L57 34L56 34L56 33L57 33L57 31L56 31L56 30L57 30L57 29L56 29L56 24L55 24L55 27L53 27L53 26L51 26L51 23L49 23L49 20L50 20L50 21L51 21L51 22L52 22L52 23L53 23L53 22L54 22L54 21L55 21L55 20L54 20L54 21L53 21L53 20L50 20L50 18L49 18L49 20L48 20L48 21L47 21L47 19L48 19L48 17L47 17L47 16L48 16L48 14L47 14L47 15L45 15L45 14L46 14L46 13L44 13L44 12L43 12L43 11L44 11L44 10L45 10L45 9L44 9L44 10L43 10L43 8L46 8L46 7L47 7L47 8L49 8L49 9L47 9L47 10L46 10L46 11L47 11L47 12L48 12L48 11L49 11L49 16L50 16L50 17L51 17L51 18L52 18L52 19L56 19L56 18L57 18L57 15L53 15L53 16L55 16L55 17L54 17L54 18L52 18L52 15L51 15L51 13L52 13L52 14L55 14L55 13L54 13L54 10L53 10L53 13L52 13L52 12L51 12L51 11L49 11L49 10L50 10L50 8L49 8L49 6L48 6L48 7L47 7L47 5L48 5L48 0L46 0L46 1L47 1L47 2L46 2L46 3L47 3L47 5L46 5L46 4L44 4L44 3L45 3L45 1L44 1L44 2L42 2L42 3L41 3L41 4L39 4L39 3L37 3L37 1L38 1L38 0L37 0L37 1L36 1L36 0L35 0L35 1L34 1L34 2L33 2L33 1L31 1L31 0L27 0L27 1L28 1L28 2L27 2L27 3L28 3L28 2L29 2L29 3L30 3L30 4L26 4L26 2L24 2L24 3L23 3L23 5L20 5L20 4L19 4L19 3L20 3L20 0L19 0L19 3L18 3L18 5L15 5L15 4L14 4L14 3L13 3L13 2L11 2L11 0ZM12 0L12 1L13 1L13 0ZM14 0L14 1L15 1L15 3L17 3L17 2L16 2L16 1L15 1L15 0ZM21 0L21 1L22 1L22 0ZM23 0L23 1L26 1L26 0ZM39 0L39 1L40 1L40 2L41 2L41 1L43 1L43 0L41 0L41 1L40 1L40 0ZM30 1L30 3L31 3L31 1ZM35 1L35 2L34 2L34 3L32 3L32 4L31 4L31 5L32 5L32 6L31 6L31 9L32 9L32 10L30 10L30 11L27 11L27 10L29 10L29 9L27 9L27 10L26 10L26 11L25 11L25 12L24 12L24 14L23 14L23 13L22 13L22 12L23 12L23 11L24 11L24 10L23 10L23 9L22 9L22 10L23 10L23 11L21 11L21 14L19 14L19 13L20 13L20 12L19 12L19 13L18 13L18 12L17 12L17 13L16 13L16 12L15 12L15 15L16 15L16 17L17 17L17 18L16 18L16 20L14 20L14 22L13 22L13 20L12 20L12 19L15 19L15 17L14 17L14 18L13 18L13 17L12 17L12 14L14 14L14 13L12 13L12 14L11 14L11 13L10 13L10 14L11 14L11 17L10 17L10 15L8 15L8 16L9 16L9 18L8 18L8 17L6 17L6 18L7 18L7 19L4 19L4 18L5 18L5 17L4 17L4 18L3 18L3 19L2 19L2 20L3 20L3 19L4 19L4 20L5 20L5 21L6 21L6 22L5 22L5 24L7 24L7 23L8 23L8 26L9 26L9 28L10 28L10 29L9 29L9 30L10 30L10 31L8 31L8 32L7 32L7 31L6 31L6 32L7 32L7 33L6 33L6 34L4 34L4 35L6 35L6 36L7 36L7 37L8 37L8 38L9 38L9 39L6 39L6 40L9 40L9 39L12 39L12 38L13 38L13 37L15 37L15 38L18 38L18 36L19 36L19 37L20 37L20 38L23 38L23 36L27 36L27 38L29 38L29 36L32 36L32 38L30 38L30 39L28 39L28 40L27 40L27 41L28 41L28 40L29 40L29 42L25 42L25 41L26 41L26 39L25 39L25 38L26 38L26 37L24 37L24 39L23 39L23 40L22 40L22 39L21 39L21 40L22 40L22 41L23 41L23 40L24 40L24 39L25 39L25 41L24 41L24 42L23 42L23 44L22 44L22 42L21 42L21 41L20 41L20 40L18 40L18 41L19 41L19 43L18 43L18 42L15 42L15 41L13 41L13 40L11 40L11 41L10 41L10 42L9 42L9 43L8 43L8 44L9 44L9 46L10 46L10 47L12 47L12 46L11 46L11 45L10 45L10 44L12 44L12 45L13 45L13 44L14 44L14 47L15 47L15 48L16 48L16 47L17 47L17 45L20 45L20 46L21 46L21 47L19 47L19 46L18 46L18 48L20 48L20 49L21 49L21 50L22 50L22 51L23 51L23 52L22 52L22 53L23 53L23 52L24 52L24 53L25 53L25 52L26 52L26 51L24 51L24 50L25 50L25 49L26 49L26 48L27 48L27 47L28 47L28 46L29 46L29 47L30 47L30 48L31 48L31 50L33 50L33 48L32 48L32 47L34 47L34 48L37 48L37 49L36 49L36 50L37 50L37 49L38 49L38 48L39 48L39 49L40 49L40 50L39 50L39 52L40 52L40 54L41 54L41 53L42 53L42 54L43 54L43 53L42 53L42 51L43 51L43 47L40 47L40 46L41 46L41 45L38 45L38 44L40 44L40 42L39 42L39 41L37 41L37 40L38 40L38 39L39 39L39 40L40 40L40 41L42 41L42 42L44 42L44 43L42 43L42 45L43 45L43 46L45 46L45 47L44 47L44 49L45 49L45 50L44 50L44 51L45 51L45 53L46 53L46 51L47 51L47 52L48 52L48 48L47 48L47 47L49 47L49 48L50 48L50 47L49 47L49 46L51 46L51 48L53 48L53 50L55 50L55 49L54 49L54 48L53 48L53 47L52 47L52 46L51 46L51 45L50 45L50 44L51 44L51 42L50 42L50 41L52 41L52 40L53 40L53 39L54 39L54 38L55 38L55 37L54 37L54 38L53 38L53 36L52 36L52 35L51 35L51 36L48 36L48 35L47 35L47 34L50 34L50 33L49 33L49 32L51 32L51 31L49 31L49 32L48 32L48 30L47 30L47 33L46 33L46 32L45 32L45 31L44 31L44 30L46 30L46 27L45 27L45 26L44 26L44 25L46 25L46 26L49 26L49 25L50 25L50 24L49 24L49 25L48 25L48 24L47 24L47 23L46 23L46 22L47 22L47 21L46 21L46 19L44 19L44 18L45 18L45 17L46 17L46 16L45 16L45 15L44 15L44 16L45 16L45 17L42 17L42 14L44 14L44 13L43 13L43 12L42 12L42 11L43 11L43 10L42 10L42 11L40 11L40 12L39 12L39 13L40 13L40 14L41 14L41 16L40 16L40 17L39 17L39 15L35 15L35 14L37 14L37 13L35 13L35 12L38 12L38 11L39 11L39 8L43 8L43 7L44 7L44 6L45 6L45 7L46 7L46 5L43 5L43 4L41 4L41 7L40 7L40 5L38 5L38 6L37 6L37 5L36 5L36 4L35 4L35 2L36 2L36 1ZM8 2L8 5L9 5L9 2ZM11 3L11 4L12 4L12 5L14 5L14 4L13 4L13 3ZM24 4L24 6L23 6L23 7L24 7L24 9L26 9L26 6L25 6L25 5L26 5L26 4ZM27 5L27 8L30 8L30 5ZM33 5L33 6L32 6L32 8L33 8L33 6L34 6L34 9L36 9L36 8L38 8L38 7L39 7L39 6L38 6L38 7L37 7L37 6L36 6L36 7L35 7L35 6L34 6L34 5ZM42 5L42 7L43 7L43 5ZM8 6L8 7L9 7L9 6ZM19 6L19 7L20 7L20 6ZM21 6L21 7L22 7L22 6ZM24 6L24 7L25 7L25 6ZM28 6L28 7L29 7L29 6ZM17 8L17 9L18 9L18 8ZM52 8L52 9L55 9L55 8ZM56 8L56 9L57 9L57 8ZM37 9L37 11L38 11L38 9ZM40 9L40 10L41 10L41 9ZM10 10L10 11L11 11L11 10ZM12 10L12 11L13 11L13 10ZM33 10L33 14L32 14L32 15L31 15L31 14L30 14L30 13L28 13L28 12L26 12L26 13L27 13L27 14L24 14L24 15L23 15L23 18L22 18L22 17L21 17L21 18L22 18L22 20L21 20L21 19L20 19L20 18L18 18L18 19L17 19L17 20L16 20L16 23L15 23L15 24L14 24L14 25L13 25L13 23L12 23L12 22L11 22L11 21L12 21L12 20L10 20L10 19L7 19L7 20L6 20L6 21L7 21L7 22L6 22L6 23L7 23L7 22L11 22L11 23L12 23L12 24L11 24L11 25L10 25L10 24L9 24L9 26L10 26L10 27L12 27L12 29L11 29L11 30L12 30L12 31L10 31L10 32L9 32L9 34L8 34L8 35L7 35L7 34L6 34L6 35L7 35L7 36L8 36L8 37L10 37L10 36L8 36L8 35L12 35L12 37L13 37L13 35L12 35L12 34L13 34L13 33L11 33L11 32L13 32L13 30L14 30L14 31L15 31L15 33L14 33L14 34L15 34L15 35L14 35L14 36L15 36L15 35L16 35L16 36L17 36L17 34L20 34L20 33L21 33L21 34L22 34L22 33L23 33L23 35L24 35L24 34L25 34L25 35L26 35L26 34L25 34L25 33L28 33L28 31L29 31L29 32L30 32L30 33L29 33L29 35L28 35L28 34L27 34L27 36L29 36L29 35L30 35L30 34L32 34L32 36L34 36L34 35L36 35L36 36L35 36L35 37L37 37L37 38L39 38L39 39L43 39L43 40L42 40L42 41L43 41L43 40L44 40L44 41L45 41L45 42L47 42L47 43L44 43L44 44L48 44L48 46L49 46L49 43L50 43L50 42L47 42L47 41L50 41L50 40L52 40L52 39L53 39L53 38L52 38L52 36L51 36L51 37L47 37L47 36L46 36L46 37L45 37L45 38L46 38L46 39L44 39L44 38L42 38L42 36L41 36L41 37L40 37L40 36L37 36L37 35L41 35L41 34L42 34L42 35L43 35L43 37L44 37L44 36L45 36L45 35L46 35L46 34L44 34L44 31L41 31L41 30L42 30L42 29L45 29L45 27L43 27L43 26L42 26L42 27L41 27L41 25L40 25L40 27L41 27L41 29L40 29L40 28L39 28L39 27L38 27L38 26L39 26L39 25L38 25L38 24L39 24L39 23L41 23L41 24L42 24L42 23L43 23L43 25L44 25L44 23L45 23L45 22L44 22L44 21L43 21L43 18L42 18L42 17L41 17L41 18L39 18L39 19L40 19L40 20L39 20L39 22L38 22L38 21L36 21L36 20L38 20L38 19L36 19L36 20L35 20L35 22L37 22L37 24L36 24L36 23L35 23L35 24L33 24L33 22L32 22L32 23L31 23L31 20L32 20L32 19L33 19L33 18L35 18L35 17L34 17L34 16L35 16L35 15L33 15L33 14L34 14L34 12L35 12L35 11L36 11L36 10L35 10L35 11L34 11L34 10ZM55 10L55 11L57 11L57 10ZM6 11L6 12L5 12L5 14L9 14L9 12L8 12L8 11ZM30 11L30 12L31 12L31 13L32 13L32 11ZM6 12L6 13L7 13L7 12ZM50 12L50 13L51 13L51 12ZM16 14L16 15L19 15L19 14ZM4 15L4 16L7 16L7 15ZM13 15L13 16L14 16L14 15ZM24 15L24 16L25 16L25 15ZM26 15L26 16L27 16L27 15ZM28 15L28 16L29 16L29 17L27 17L27 18L25 18L25 17L24 17L24 18L23 18L23 21L24 21L24 22L25 22L25 25L24 25L24 24L21 24L21 23L20 23L20 24L19 24L19 23L18 23L18 22L22 22L22 23L23 23L23 22L22 22L22 21L21 21L21 20L20 20L20 19L18 19L18 20L17 20L17 21L18 21L18 22L17 22L17 23L16 23L16 24L15 24L15 25L16 25L16 27L15 27L15 26L14 26L14 27L13 27L13 25L11 25L11 26L12 26L12 27L13 27L13 28L17 28L17 30L16 30L16 29L14 29L14 30L16 30L16 33L15 33L15 34L17 34L17 30L18 30L18 31L19 31L19 32L18 32L18 33L20 33L20 32L22 32L22 31L23 31L23 33L24 33L24 32L27 32L27 31L23 31L23 30L21 30L21 29L23 29L23 27L22 27L22 26L21 26L21 27L20 27L20 28L21 28L21 29L18 29L18 28L19 28L19 27L17 27L17 23L18 23L18 24L19 24L19 25L18 25L18 26L19 26L19 25L20 25L20 24L21 24L21 25L23 25L23 26L24 26L24 30L26 30L26 28L25 28L25 25L27 25L27 26L31 26L31 23L30 23L30 22L29 22L29 21L30 21L30 20L29 20L29 19L28 19L28 18L29 18L29 17L30 17L30 19L31 19L31 18L32 18L32 17L31 17L31 16L29 16L29 15ZM32 15L32 16L33 16L33 15ZM50 15L50 16L51 16L51 15ZM1 16L1 17L2 17L2 16ZM11 17L11 19L12 19L12 17ZM36 17L36 18L37 18L37 17ZM55 17L55 18L56 18L56 17ZM24 18L24 19L25 19L25 22L27 22L27 23L26 23L26 24L27 24L27 23L28 23L28 24L29 24L29 22L27 22L27 21L29 21L29 20L27 20L27 19L25 19L25 18ZM41 18L41 19L42 19L42 18ZM26 20L26 21L27 21L27 20ZM41 20L41 21L42 21L42 20ZM56 21L56 22L55 22L55 23L57 23L57 21ZM0 23L0 24L1 24L1 23ZM2 23L2 24L3 24L3 23ZM32 24L32 25L33 25L33 24ZM53 24L53 25L54 25L54 24ZM6 25L6 26L7 26L7 25ZM34 25L34 27L35 27L35 28L34 28L34 29L36 29L36 30L35 30L35 31L34 31L34 33L33 33L33 32L32 32L32 31L33 31L33 29L32 29L32 30L31 30L31 33L32 33L32 34L33 34L33 35L34 35L34 34L35 34L35 31L37 31L37 32L36 32L36 33L37 33L37 32L38 32L38 34L39 34L39 31L40 31L40 32L41 32L41 31L40 31L40 30L39 30L39 29L38 29L38 30L37 30L37 27L35 27L35 25ZM3 26L3 27L4 27L4 26ZM5 27L5 30L8 30L8 27ZM27 27L27 30L30 30L30 27ZM31 27L31 28L33 28L33 27ZM42 27L42 28L43 28L43 27ZM49 27L49 30L52 30L52 27ZM3 28L3 29L2 29L2 31L3 31L3 29L4 29L4 28ZM6 28L6 29L7 29L7 28ZM28 28L28 29L29 29L29 28ZM47 28L47 29L48 29L48 28ZM50 28L50 29L51 29L51 28ZM53 28L53 31L52 31L52 34L54 34L54 33L53 33L53 32L55 32L55 30L56 30L56 29L55 29L55 30L54 30L54 28ZM12 29L12 30L13 30L13 29ZM20 30L20 31L21 31L21 30ZM38 30L38 31L39 31L39 30ZM0 32L0 36L2 36L2 37L3 37L3 36L2 36L2 33L1 33L1 32ZM4 32L4 33L5 33L5 32ZM42 32L42 33L43 33L43 32ZM21 35L21 36L22 36L22 35ZM0 37L0 40L1 40L1 37ZM33 37L33 38L32 38L32 39L33 39L33 40L31 40L31 42L29 42L29 43L28 43L28 44L27 44L27 45L26 45L26 43L25 43L25 42L24 42L24 44L23 44L23 46L22 46L22 44L21 44L21 46L22 46L22 47L21 47L21 48L23 48L23 49L22 49L22 50L23 50L23 49L24 49L24 47L25 47L25 45L26 45L26 46L27 46L27 45L29 45L29 46L30 46L30 45L31 45L31 47L32 47L32 42L33 42L33 45L34 45L34 44L35 44L35 45L36 45L36 47L38 47L38 45L36 45L36 44L35 44L35 43L34 43L34 42L36 42L36 41L34 41L34 40L35 40L35 39L36 39L36 38L34 38L34 37ZM46 37L46 38L47 38L47 37ZM48 38L48 39L47 39L47 40L49 40L49 38ZM50 38L50 39L52 39L52 38ZM14 39L14 40L15 40L15 39ZM16 39L16 41L17 41L17 39ZM45 40L45 41L46 41L46 40ZM1 42L1 43L2 43L2 44L3 44L3 45L2 45L2 46L1 46L1 47L2 47L2 46L3 46L3 47L5 47L5 45L6 45L6 46L7 46L7 47L8 47L8 46L7 46L7 45L6 45L6 44L7 44L7 43L6 43L6 44L3 44L3 43L2 43L2 42ZM11 42L11 43L12 43L12 42ZM20 42L20 43L21 43L21 42ZM37 42L37 44L38 44L38 43L39 43L39 42ZM9 43L9 44L10 44L10 43ZM16 43L16 44L15 44L15 45L17 45L17 43ZM29 43L29 45L30 45L30 44L31 44L31 43ZM53 44L53 45L55 45L55 44ZM3 45L3 46L4 46L4 45ZM15 46L15 47L16 47L16 46ZM34 46L34 47L35 47L35 46ZM46 46L46 47L47 47L47 46ZM9 48L9 50L10 50L10 51L11 51L11 50L12 50L12 49L11 49L11 50L10 50L10 48ZM41 48L41 49L42 49L42 48ZM45 48L45 49L47 49L47 48ZM27 49L27 52L30 52L30 49ZM34 49L34 50L35 50L35 49ZM49 49L49 52L52 52L52 49ZM28 50L28 51L29 51L29 50ZM45 50L45 51L46 51L46 50ZM50 50L50 51L51 51L51 50ZM31 51L31 53L32 53L32 51ZM40 51L40 52L41 52L41 51ZM20 53L20 55L21 55L21 56L22 56L22 55L21 55L21 53ZM47 53L47 54L44 54L44 55L46 55L46 56L47 56L47 54L50 54L50 53ZM34 54L34 55L36 55L36 54ZM39 55L39 56L40 56L40 55ZM56 55L56 56L57 56L57 55ZM0 0L0 7L7 7L7 0ZM1 1L1 6L6 6L6 1ZM2 2L2 5L5 5L5 2ZM50 0L50 7L57 7L57 0ZM51 1L51 6L56 6L56 1ZM52 2L52 5L55 5L55 2ZM0 50L0 57L7 57L7 50ZM1 51L1 56L6 56L6 51ZM2 52L2 55L5 55L5 52Z" fill="#000000"/></g></g></svg>
