<?xml version="1.0" encoding="UTF-8"?>
<svg xmlns="http://www.w3.org/2000/svg" version="1.1" width="300" height="300" viewBox="0 0 300 300"><rect x="0" y="0" width="300" height="300" fill="#fefefe"/><g transform="scale(4.615)"><g transform="translate(4,4)"><path fill-rule="evenodd" d="M11 0L11 1L10 1L10 2L11 2L11 3L10 3L10 4L9 4L9 3L8 3L8 4L9 4L9 5L8 5L8 7L9 7L9 5L11 5L11 4L12 4L12 2L13 2L13 4L14 4L14 2L15 2L15 3L17 3L17 5L18 5L18 4L19 4L19 5L20 5L20 7L19 7L19 6L18 6L18 7L19 7L19 8L16 8L16 7L17 7L17 6L16 6L16 7L15 7L15 5L16 5L16 4L15 4L15 5L14 5L14 7L13 7L13 6L12 6L12 7L11 7L11 6L10 6L10 9L9 9L9 8L6 8L6 9L9 9L9 10L11 10L11 11L7 11L7 10L4 10L4 9L5 9L5 8L0 8L0 10L2 10L2 11L0 11L0 13L1 13L1 12L2 12L2 13L3 13L3 14L0 14L0 15L1 15L1 16L0 16L0 19L1 19L1 16L2 16L2 19L3 19L3 20L2 20L2 21L0 21L0 25L1 25L1 26L0 26L0 30L2 30L2 29L3 29L3 32L2 32L2 31L1 31L1 32L0 32L0 33L1 33L1 34L0 34L0 36L3 36L3 37L4 37L4 36L3 36L3 35L2 35L2 33L3 33L3 32L5 32L5 31L8 31L8 32L6 32L6 33L5 33L5 34L6 34L6 35L5 35L5 41L4 41L4 43L2 43L2 44L1 44L1 45L0 45L0 48L5 48L5 47L7 47L7 48L6 48L6 49L8 49L8 51L9 51L9 52L8 52L8 57L9 57L9 52L10 52L10 51L9 51L9 50L12 50L12 51L11 51L11 53L12 53L12 51L13 51L13 50L14 50L14 52L13 52L13 54L10 54L10 55L11 55L11 57L16 57L16 56L17 56L17 57L19 57L19 55L20 55L20 54L19 54L19 53L20 53L20 52L21 52L21 53L22 53L22 54L21 54L21 56L23 56L23 57L26 57L26 56L24 56L24 55L23 55L23 54L24 54L24 53L25 53L25 55L26 55L26 53L27 53L27 54L30 54L30 53L31 53L31 49L32 49L32 48L31 48L31 46L32 46L32 47L35 47L35 46L33 46L33 45L30 45L30 46L29 46L29 47L30 47L30 48L28 48L28 47L27 47L27 45L26 45L26 47L23 47L23 46L25 46L25 45L24 45L24 44L27 44L27 43L28 43L28 44L29 44L29 43L31 43L31 44L33 44L33 43L34 43L34 45L37 45L37 46L36 46L36 48L35 48L35 49L36 49L36 50L32 50L32 52L33 52L33 53L32 53L32 54L31 54L31 56L30 56L30 55L29 55L29 56L27 56L27 57L29 57L29 56L30 56L30 57L31 57L31 56L35 56L35 57L40 57L40 56L42 56L42 55L44 55L44 54L45 54L45 53L44 53L44 52L47 52L47 51L46 51L46 50L44 50L44 51L43 51L43 49L44 49L44 48L45 48L45 49L47 49L47 50L48 50L48 54L47 54L47 55L49 55L49 56L50 56L50 57L52 57L52 55L51 55L51 53L52 53L52 54L53 54L53 52L54 52L54 54L55 54L55 52L56 52L56 53L57 53L57 52L56 52L56 49L57 49L57 48L56 48L56 46L57 46L57 43L56 43L56 42L55 42L55 39L57 39L57 37L56 37L56 33L57 33L57 32L56 32L56 30L57 30L57 29L54 29L54 28L56 28L56 27L55 27L55 26L57 26L57 25L56 25L56 22L57 22L57 21L56 21L56 22L55 22L55 23L53 23L53 22L54 22L54 21L51 21L51 20L52 20L52 19L53 19L53 20L55 20L55 19L56 19L56 20L57 20L57 19L56 19L56 18L57 18L57 17L56 17L56 16L57 16L57 15L56 15L56 14L57 14L57 13L56 13L56 14L54 14L54 12L55 12L55 11L56 11L56 10L54 10L54 11L52 11L52 10L53 10L53 9L54 9L54 8L53 8L53 9L52 9L52 8L51 8L51 11L50 11L50 12L49 12L49 10L50 10L50 8L49 8L49 9L47 9L47 10L46 10L46 9L45 9L45 10L44 10L44 8L43 8L43 6L44 6L44 7L45 7L45 6L46 6L46 7L47 7L47 5L48 5L48 0L46 0L46 1L45 1L45 2L44 2L44 3L41 3L41 2L43 2L43 0L41 0L41 1L40 1L40 0L39 0L39 1L38 1L38 0L37 0L37 1L38 1L38 2L39 2L39 3L36 3L36 0L35 0L35 1L33 1L33 2L32 2L32 0L27 0L27 1L26 1L26 0L23 0L23 2L25 2L25 1L26 1L26 2L27 2L27 1L30 1L30 2L29 2L29 3L30 3L30 4L26 4L26 3L23 3L23 4L24 4L24 5L21 5L21 4L19 4L19 2L21 2L21 1L22 1L22 0L21 0L21 1L20 1L20 0L17 0L17 2L16 2L16 1L14 1L14 0ZM8 1L8 2L9 2L9 1ZM13 1L13 2L14 2L14 1ZM18 1L18 2L17 2L17 3L18 3L18 2L19 2L19 1ZM46 1L46 2L47 2L47 1ZM31 2L31 3L32 3L32 4L31 4L31 8L32 8L32 10L31 10L31 11L29 11L29 10L27 10L27 11L26 11L26 12L25 12L25 10L23 10L23 8L24 8L24 9L25 9L25 8L26 8L26 4L25 4L25 8L24 8L24 6L23 6L23 8L20 8L20 10L19 10L19 13L20 13L20 14L17 14L17 13L18 13L18 12L17 12L17 11L18 11L18 9L15 9L15 8L14 8L14 9L13 9L13 10L12 10L12 13L11 13L11 14L12 14L12 13L13 13L13 14L15 14L15 13L16 13L16 16L15 16L15 15L14 15L14 17L13 17L13 16L12 16L12 17L11 17L11 18L10 18L10 20L9 20L9 19L4 19L4 21L2 21L2 22L1 22L1 25L2 25L2 22L3 22L3 25L4 25L4 26L7 26L7 25L6 25L6 24L7 24L7 23L6 23L6 22L9 22L9 23L10 23L10 24L11 24L11 25L10 25L10 26L9 26L9 27L10 27L10 28L9 28L9 29L10 29L10 30L9 30L9 31L10 31L10 32L9 32L9 33L8 33L8 34L7 34L7 33L6 33L6 34L7 34L7 35L6 35L6 36L9 36L9 37L6 37L6 38L7 38L7 39L6 39L6 40L7 40L7 41L5 41L5 43L4 43L4 44L2 44L2 46L1 46L1 47L2 47L2 46L3 46L3 47L5 47L5 43L6 43L6 44L8 44L8 42L7 42L7 41L12 41L12 42L13 42L13 43L14 43L14 46L11 46L11 48L12 48L12 50L13 50L13 47L14 47L14 46L15 46L15 49L16 49L16 50L17 50L17 52L16 52L16 51L15 51L15 52L16 52L16 53L14 53L14 54L13 54L13 56L16 56L16 55L15 55L15 54L16 54L16 53L17 53L17 52L18 52L18 49L16 49L16 48L17 48L17 47L19 47L19 49L20 49L20 50L19 50L19 51L20 51L20 50L21 50L21 52L22 52L22 53L24 53L24 52L26 52L26 51L25 51L25 50L23 50L23 51L22 51L22 50L21 50L21 49L23 49L23 47L19 47L19 46L17 46L17 45L18 45L18 44L16 44L16 43L14 43L14 42L17 42L17 43L18 43L18 42L19 42L19 41L18 41L18 42L17 42L17 41L16 41L16 40L17 40L17 37L18 37L18 38L19 38L19 39L20 39L20 38L19 38L19 37L22 37L22 39L21 39L21 40L20 40L20 42L21 42L21 43L20 43L20 44L19 44L19 45L20 45L20 46L21 46L21 45L22 45L22 46L23 46L23 45L22 45L22 44L21 44L21 43L22 43L22 42L23 42L23 44L24 44L24 43L27 43L27 42L29 42L29 41L27 41L27 39L28 39L28 40L32 40L32 41L31 41L31 42L32 42L32 43L33 43L33 42L34 42L34 43L35 43L35 44L36 44L36 43L37 43L37 42L35 42L35 40L38 40L38 42L39 42L39 41L42 41L42 40L43 40L43 41L44 41L44 42L45 42L45 43L43 43L43 44L44 44L44 45L43 45L43 46L41 46L41 44L42 44L42 42L40 42L40 44L39 44L39 45L38 45L38 46L39 46L39 47L38 47L38 48L37 48L37 49L38 49L38 50L36 50L36 52L37 52L37 51L38 51L38 53L37 53L37 54L40 54L40 53L41 53L41 52L40 52L40 51L38 51L38 50L41 50L41 51L42 51L42 50L41 50L41 48L42 48L42 49L43 49L43 48L44 48L44 47L45 47L45 48L47 48L47 49L48 49L48 48L49 48L49 47L48 47L48 46L50 46L50 47L52 47L52 46L53 46L53 47L55 47L55 46L56 46L56 43L55 43L55 44L54 44L54 45L55 45L55 46L53 46L53 45L52 45L52 44L53 44L53 43L54 43L54 42L53 42L53 41L51 41L51 42L50 42L50 43L49 43L49 42L48 42L48 41L49 41L49 40L50 40L50 39L51 39L51 40L52 40L52 39L53 39L53 35L55 35L55 34L54 34L54 33L52 33L52 32L53 32L53 31L48 31L48 28L47 28L47 29L46 29L46 30L47 30L47 31L46 31L46 33L45 33L45 32L43 32L43 31L45 31L45 30L44 30L44 29L45 29L45 28L46 28L46 27L48 27L48 25L50 25L50 26L51 26L51 25L52 25L52 26L53 26L53 27L54 27L54 26L53 26L53 24L51 24L51 23L50 23L50 22L51 22L51 21L49 21L49 20L48 20L48 21L49 21L49 22L47 22L47 21L45 21L45 20L47 20L47 19L48 19L48 18L47 18L47 17L48 17L48 16L49 16L49 17L50 17L50 18L49 18L49 19L50 19L50 18L51 18L51 19L52 19L52 18L56 18L56 17L53 17L53 15L52 15L52 16L51 16L51 15L50 15L50 14L51 14L51 12L50 12L50 14L49 14L49 15L48 15L48 16L46 16L46 15L44 15L44 14L41 14L41 13L43 13L43 11L41 11L41 12L40 12L40 10L41 10L41 7L42 7L42 6L43 6L43 5L42 5L42 6L41 6L41 5L40 5L40 4L41 4L41 3L39 3L39 4L38 4L38 6L37 6L37 7L36 7L36 5L37 5L37 4L36 4L36 5L35 5L35 4L33 4L33 3L35 3L35 2L33 2L33 3L32 3L32 2ZM44 3L44 6L45 6L45 4L46 4L46 5L47 5L47 3ZM32 4L32 5L33 5L33 6L32 6L32 7L33 7L33 9L34 9L34 8L35 8L35 9L37 9L37 10L36 10L36 12L35 12L35 14L32 14L32 12L31 12L31 13L30 13L30 14L29 14L29 13L28 13L28 12L29 12L29 11L27 11L27 12L26 12L26 13L28 13L28 14L29 14L29 16L28 16L28 15L27 15L27 14L25 14L25 12L24 12L24 11L23 11L23 10L22 10L22 9L21 9L21 10L20 10L20 12L22 12L22 13L21 13L21 14L20 14L20 15L23 15L23 16L26 16L26 18L25 18L25 17L22 17L22 16L20 16L20 17L19 17L19 15L18 15L18 16L16 16L16 17L17 17L17 18L16 18L16 19L15 19L15 21L16 21L16 22L15 22L15 23L14 23L14 21L13 21L13 20L14 20L14 19L13 19L13 17L12 17L12 19L11 19L11 20L10 20L10 21L9 21L9 20L5 20L5 21L9 21L9 22L10 22L10 23L11 23L11 20L12 20L12 23L14 23L14 24L12 24L12 26L13 26L13 27L12 27L12 28L13 28L13 29L14 29L14 28L13 28L13 27L14 27L14 26L13 26L13 25L15 25L15 23L16 23L16 24L17 24L17 26L15 26L15 28L16 28L16 29L15 29L15 30L13 30L13 31L16 31L16 29L18 29L18 30L19 30L19 31L21 31L21 32L16 32L16 33L19 33L19 34L15 34L15 36L14 36L14 34L13 34L13 33L14 33L14 32L11 32L11 34L10 34L10 38L9 38L9 39L7 39L7 40L9 40L9 39L10 39L10 40L11 40L11 39L12 39L12 38L11 38L11 37L12 37L12 36L13 36L13 39L14 39L14 40L12 40L12 41L13 41L13 42L14 42L14 40L16 40L16 39L14 39L14 37L15 37L15 38L16 38L16 37L15 37L15 36L16 36L16 35L18 35L18 37L19 37L19 36L20 36L20 35L21 35L21 36L23 36L23 37L24 37L24 38L23 38L23 39L22 39L22 40L23 40L23 39L24 39L24 40L25 40L25 36L26 36L26 39L27 39L27 38L28 38L28 37L27 37L27 36L26 36L26 35L27 35L27 31L32 31L32 32L31 32L31 33L29 33L29 32L28 32L28 33L29 33L29 34L30 34L30 36L29 36L29 37L31 37L31 38L29 38L29 39L33 39L33 40L35 40L35 39L38 39L38 40L40 40L40 39L38 39L38 37L40 37L40 38L41 38L41 39L42 39L42 38L43 38L43 37L44 37L44 38L45 38L45 37L44 37L44 36L45 36L45 35L44 35L44 36L43 36L43 35L42 35L42 34L45 34L45 33L43 33L43 32L41 32L41 33L39 33L39 34L40 34L40 35L38 35L38 33L37 33L37 32L35 32L35 34L37 34L37 35L38 35L38 37L37 37L37 36L35 36L35 35L32 35L32 34L33 34L33 33L34 33L34 32L33 32L33 31L36 31L36 30L33 30L33 31L32 31L32 28L31 28L31 26L32 26L32 27L33 27L33 28L35 28L35 29L38 29L38 28L40 28L40 27L36 27L36 26L34 26L34 27L33 27L33 26L32 26L32 24L33 24L33 25L37 25L37 26L38 26L38 25L39 25L39 26L41 26L41 28L42 28L42 26L45 26L45 25L46 25L46 24L45 24L45 25L44 25L44 24L43 24L43 23L44 23L44 20L45 20L45 18L44 18L44 15L42 15L42 16L41 16L41 14L38 14L38 13L40 13L40 12L39 12L39 11L38 11L38 9L39 9L39 10L40 10L40 9L39 9L39 8L40 8L40 7L41 7L41 6L40 6L40 5L39 5L39 6L38 6L38 7L37 7L37 8L35 8L35 5L33 5L33 4ZM27 5L27 8L30 8L30 5ZM21 6L21 7L22 7L22 6ZM28 6L28 7L29 7L29 6ZM33 6L33 7L34 7L34 6ZM39 6L39 7L40 7L40 6ZM48 6L48 7L49 7L49 6ZM12 7L12 8L13 8L13 7ZM42 8L42 9L43 9L43 8ZM55 8L55 9L56 9L56 8ZM2 9L2 10L3 10L3 11L4 11L4 10L3 10L3 9ZM13 10L13 11L14 11L14 12L13 12L13 13L15 13L15 11L17 11L17 10ZM21 10L21 11L22 11L22 10ZM32 10L32 11L33 11L33 10ZM45 10L45 11L44 11L44 13L45 13L45 14L47 14L47 13L49 13L49 12L48 12L48 10L47 10L47 12L45 12L45 11L46 11L46 10ZM5 11L5 12L4 12L4 14L3 14L3 18L5 18L5 17L4 17L4 15L6 15L6 16L7 16L7 17L6 17L6 18L7 18L7 17L8 17L8 18L9 18L9 16L11 16L11 15L9 15L9 16L7 16L7 15L8 15L8 12L7 12L7 11ZM5 12L5 14L6 14L6 15L7 15L7 14L6 14L6 13L7 13L7 12ZM16 12L16 13L17 13L17 12ZM23 12L23 13L22 13L22 14L23 14L23 15L24 15L24 14L23 14L23 13L24 13L24 12ZM33 12L33 13L34 13L34 12ZM52 12L52 13L53 13L53 12ZM9 13L9 14L10 14L10 13ZM36 13L36 14L37 14L37 15L35 15L35 16L33 16L33 15L32 15L32 19L33 19L33 18L35 18L35 19L36 19L36 20L37 20L37 21L38 21L38 22L37 22L37 24L39 24L39 25L41 25L41 24L42 24L42 22L41 22L41 24L39 24L39 23L40 23L40 22L39 22L39 21L43 21L43 20L44 20L44 18L43 18L43 19L42 19L42 18L41 18L41 20L39 20L39 21L38 21L38 19L39 19L39 17L41 17L41 16L39 16L39 15L38 15L38 14L37 14L37 13ZM30 14L30 15L31 15L31 14ZM26 15L26 16L27 16L27 17L28 17L28 16L27 16L27 15ZM49 15L49 16L50 16L50 15ZM35 16L35 17L37 17L37 18L38 18L38 17L39 17L39 16L38 16L38 17L37 17L37 16ZM42 16L42 17L43 17L43 16ZM45 16L45 17L46 17L46 16ZM14 17L14 18L15 18L15 17ZM20 17L20 18L17 18L17 19L16 19L16 21L17 21L17 19L19 19L19 20L20 20L20 21L18 21L18 22L20 22L20 23L18 23L18 24L22 24L22 25L20 25L20 28L22 28L22 29L19 29L19 26L18 26L18 27L17 27L17 28L18 28L18 29L19 29L19 30L21 30L21 31L23 31L23 32L21 32L21 33L20 33L20 34L21 34L21 33L22 33L22 35L23 35L23 36L24 36L24 34L23 34L23 33L25 33L25 34L26 34L26 31L25 31L25 32L24 32L24 30L23 30L23 28L25 28L25 29L26 29L26 28L25 28L25 27L26 27L26 26L27 26L27 25L28 25L28 26L29 26L29 25L31 25L31 24L32 24L32 23L35 23L35 20L32 20L32 21L31 21L31 22L30 22L30 21L29 21L29 20L31 20L31 18L30 18L30 19L28 19L28 18L27 18L27 19L26 19L26 20L25 20L25 21L24 21L24 20L20 20L20 18L22 18L22 19L24 19L24 18L22 18L22 17ZM46 18L46 19L47 19L47 18ZM27 19L27 20L28 20L28 19ZM21 21L21 23L22 23L22 21ZM23 21L23 22L24 22L24 21ZM25 21L25 22L26 22L26 23L25 23L25 24L24 24L24 23L23 23L23 24L24 24L24 25L22 25L22 26L21 26L21 27L22 27L22 26L24 26L24 27L25 27L25 26L26 26L26 25L25 25L25 24L28 24L28 23L30 23L30 22L29 22L29 21ZM4 22L4 23L5 23L5 22ZM38 22L38 23L39 23L39 22ZM45 22L45 23L47 23L47 25L48 25L48 23L47 23L47 22ZM49 23L49 24L50 24L50 23ZM1 26L1 29L2 29L2 28L3 28L3 29L4 29L4 28L3 28L3 26ZM10 26L10 27L11 27L11 26ZM5 27L5 30L8 30L8 27ZM27 27L27 30L30 30L30 27ZM35 27L35 28L36 28L36 27ZM44 27L44 28L43 28L43 29L41 29L41 30L43 30L43 29L44 29L44 28L45 28L45 27ZM49 27L49 30L52 30L52 27ZM6 28L6 29L7 29L7 28ZM28 28L28 29L29 29L29 28ZM50 28L50 29L51 29L51 28ZM11 29L11 30L12 30L12 29ZM39 29L39 30L38 30L38 32L39 32L39 30L40 30L40 29ZM53 29L53 30L54 30L54 29ZM47 31L47 32L48 32L48 33L49 33L49 32L48 32L48 31ZM32 32L32 33L33 33L33 32ZM50 32L50 34L48 34L48 35L50 35L50 36L48 36L48 37L47 37L47 39L43 39L43 40L45 40L45 41L47 41L47 39L50 39L50 38L48 38L48 37L52 37L52 35L53 35L53 34L52 34L52 33L51 33L51 32ZM55 32L55 33L56 33L56 32ZM8 34L8 35L9 35L9 34ZM11 34L11 35L13 35L13 34ZM50 34L50 35L52 35L52 34ZM46 35L46 36L47 36L47 35ZM32 36L32 37L33 37L33 38L34 38L34 39L35 39L35 37L33 37L33 36ZM40 36L40 37L41 37L41 38L42 38L42 37L41 37L41 36ZM1 37L1 38L0 38L0 39L2 39L2 37ZM3 38L3 40L2 40L2 41L3 41L3 40L4 40L4 38ZM10 38L10 39L11 39L11 38ZM54 38L54 39L55 39L55 38ZM0 40L0 41L1 41L1 40ZM23 41L23 42L25 42L25 41ZM26 41L26 42L27 42L27 41ZM32 41L32 42L33 42L33 41ZM6 42L6 43L7 43L7 42ZM9 42L9 45L6 45L6 46L8 46L8 49L10 49L10 47L9 47L9 45L10 45L10 44L11 44L11 45L13 45L13 44L12 44L12 43L11 43L11 42ZM47 42L47 43L46 43L46 44L45 44L45 45L47 45L47 46L45 46L45 47L47 47L47 48L48 48L48 47L47 47L47 46L48 46L48 45L47 45L47 43L48 43L48 42ZM51 42L51 43L50 43L50 44L49 44L49 45L50 45L50 46L52 46L52 45L51 45L51 43L53 43L53 42ZM20 44L20 45L21 45L21 44ZM3 45L3 46L4 46L4 45ZM40 46L40 47L39 47L39 48L38 48L38 49L39 49L39 48L41 48L41 46ZM43 46L43 47L42 47L42 48L43 48L43 47L44 47L44 46ZM26 47L26 48L24 48L24 49L26 49L26 48L27 48L27 47ZM20 48L20 49L21 49L21 48ZM53 48L53 49L56 49L56 48ZM27 49L27 52L30 52L30 49ZM49 49L49 52L52 52L52 49ZM28 50L28 51L29 51L29 50ZM50 50L50 51L51 51L51 50ZM54 50L54 51L55 51L55 50ZM33 51L33 52L34 52L34 53L33 53L33 54L35 54L35 56L36 56L36 54L35 54L35 51ZM43 53L43 54L44 54L44 53ZM17 54L17 55L19 55L19 54ZM41 54L41 55L42 55L42 54ZM37 55L37 56L40 56L40 55ZM50 55L50 56L51 56L51 55ZM53 55L53 56L55 56L55 57L56 57L56 56L55 56L55 55ZM43 56L43 57L44 57L44 56ZM46 56L46 57L47 57L47 56ZM0 0L0 7L7 7L7 0ZM1 1L1 6L6 6L6 1ZM2 2L2 5L5 5L5 2ZM50 0L50 7L57 7L57 0ZM51 1L51 6L56 6L56 1ZM52 2L52 5L55 5L55 2ZM0 50L0 57L7 57L7 50ZM1 51L1 56L6 56L6 51ZM2 52L2 55L5 55L5 52Z" fill="#000000"/></g></g></svg>
