<?xml version="1.0" encoding="UTF-8"?>
<svg xmlns="http://www.w3.org/2000/svg" version="1.1" width="300" height="300" viewBox="0 0 300 300"><rect x="0" y="0" width="300" height="300" fill="#fefefe"/><g transform="scale(4.615)"><g transform="translate(4,4)"><path fill-rule="evenodd" d="M9 0L9 1L8 1L8 2L9 2L9 1L10 1L10 3L8 3L8 4L10 4L10 3L12 3L12 5L13 5L13 6L12 6L12 7L13 7L13 11L14 11L14 12L12 12L12 9L11 9L11 5L10 5L10 7L9 7L9 5L8 5L8 7L9 7L9 8L6 8L6 9L5 9L5 8L0 8L0 12L1 12L1 13L0 13L0 14L1 14L1 16L2 16L2 17L3 17L3 18L2 18L2 19L1 19L1 20L2 20L2 19L3 19L3 20L4 20L4 19L5 19L5 20L6 20L6 21L1 21L1 22L0 22L0 25L1 25L1 27L2 27L2 25L3 25L3 24L4 24L4 30L2 30L2 28L1 28L1 29L0 29L0 33L2 33L2 31L5 31L5 32L4 32L4 33L5 33L5 32L6 32L6 33L7 33L7 34L5 34L5 35L4 35L4 34L0 34L0 35L1 35L1 36L0 36L0 37L1 37L1 38L0 38L0 39L1 39L1 42L0 42L0 48L5 48L5 47L7 47L7 48L6 48L6 49L7 49L7 48L8 48L8 51L9 51L9 52L8 52L8 57L9 57L9 54L10 54L10 56L11 56L11 52L12 52L12 53L13 53L13 54L14 54L14 55L16 55L16 56L14 56L14 57L16 57L16 56L17 56L17 57L22 57L22 56L19 56L19 55L20 55L20 54L19 54L19 53L20 53L20 52L21 52L21 51L22 51L22 52L23 52L23 51L22 51L22 50L25 50L25 51L26 51L26 52L24 52L24 53L21 53L21 55L23 55L23 56L24 56L24 57L26 57L26 56L27 56L27 57L29 57L29 56L30 56L30 57L31 57L31 56L35 56L35 57L39 57L39 56L37 56L37 54L38 54L38 55L41 55L41 57L44 57L44 56L45 56L45 57L46 57L46 56L45 56L45 55L46 55L46 54L45 54L45 53L47 53L47 55L48 55L48 56L47 56L47 57L49 57L49 56L50 56L50 57L52 57L52 55L51 55L51 53L52 53L52 54L55 54L55 51L56 51L56 53L57 53L57 51L56 51L56 50L57 50L57 48L56 48L56 46L57 46L57 45L56 45L56 44L57 44L57 43L56 43L56 42L55 42L55 39L57 39L57 35L56 35L56 34L57 34L57 32L56 32L56 30L57 30L57 29L56 29L56 28L57 28L57 27L56 27L56 26L57 26L57 25L56 25L56 22L57 22L57 21L56 21L56 22L55 22L55 23L53 23L53 21L51 21L51 20L52 20L52 19L53 19L53 20L57 20L57 19L55 19L55 18L57 18L57 17L56 17L56 16L57 16L57 15L56 15L56 14L57 14L57 11L56 11L56 8L55 8L55 10L54 10L54 11L53 11L53 10L52 10L52 8L51 8L51 10L50 10L50 8L49 8L49 9L48 9L48 8L46 8L46 9L45 9L45 10L44 10L44 8L45 8L45 6L46 6L46 7L47 7L47 5L48 5L48 0L46 0L46 1L45 1L45 2L44 2L44 3L43 3L43 4L40 4L40 5L39 5L39 6L38 6L38 8L35 8L35 5L36 5L36 7L37 7L37 5L38 5L38 3L36 3L36 0L35 0L35 1L33 1L33 2L32 2L32 0L29 0L29 1L30 1L30 2L32 2L32 3L31 3L31 4L26 4L26 3L23 3L23 2L28 2L28 3L29 3L29 2L28 2L28 1L26 1L26 0L23 0L23 1L22 1L22 0L21 0L21 3L23 3L23 4L19 4L19 3L18 3L18 4L17 4L17 5L18 5L18 4L19 4L19 5L20 5L20 7L19 7L19 6L18 6L18 7L19 7L19 8L16 8L16 7L17 7L17 6L16 6L16 7L15 7L15 5L16 5L16 4L15 4L15 5L13 5L13 4L14 4L14 2L15 2L15 3L16 3L16 2L15 2L15 1L14 1L14 0L13 0L13 1L14 1L14 2L13 2L13 3L12 3L12 0ZM17 0L17 2L18 2L18 1L19 1L19 2L20 2L20 0ZM37 0L37 1L38 1L38 2L39 2L39 3L42 3L42 2L43 2L43 0L41 0L41 1L40 1L40 0L39 0L39 1L38 1L38 0ZM46 1L46 2L47 2L47 1ZM32 3L32 4L31 4L31 8L32 8L32 10L31 10L31 11L30 11L30 10L29 10L29 12L28 12L28 13L26 13L26 12L27 12L27 11L28 11L28 10L27 10L27 11L26 11L26 12L25 12L25 10L23 10L23 9L24 9L24 6L23 6L23 5L24 5L24 4L23 4L23 5L21 5L21 8L20 8L20 11L19 11L19 13L20 13L20 18L19 18L19 17L18 17L18 18L17 18L17 17L16 17L16 16L19 16L19 15L17 15L17 13L18 13L18 12L17 12L17 13L16 13L16 11L15 11L15 13L13 13L13 15L12 15L12 14L10 14L10 13L8 13L8 11L9 11L9 12L10 12L10 11L11 11L11 10L10 10L10 11L9 11L9 9L10 9L10 8L9 8L9 9L6 9L6 10L5 10L5 9L4 9L4 10L3 10L3 9L1 9L1 11L3 11L3 12L2 12L2 16L3 16L3 13L4 13L4 10L5 10L5 14L8 14L8 15L5 15L5 16L7 16L7 17L6 17L6 18L5 18L5 17L4 17L4 18L3 18L3 19L4 19L4 18L5 18L5 19L6 19L6 20L7 20L7 19L6 19L6 18L7 18L7 17L9 17L9 18L11 18L11 19L10 19L10 20L9 20L9 19L8 19L8 21L6 21L6 22L5 22L5 24L7 24L7 25L5 25L5 26L7 26L7 25L8 25L8 23L9 23L9 25L10 25L10 26L9 26L9 27L10 27L10 28L12 28L12 29L10 29L10 30L9 30L9 31L8 31L8 32L7 32L7 31L6 31L6 32L7 32L7 33L8 33L8 32L9 32L9 34L7 34L7 35L5 35L5 36L7 36L7 37L3 37L3 39L4 39L4 42L3 42L3 41L2 41L2 42L3 42L3 45L4 45L4 46L3 46L3 47L5 47L5 46L7 46L7 45L8 45L8 44L7 44L7 43L8 43L8 40L9 40L9 42L10 42L10 43L9 43L9 44L11 44L11 43L13 43L13 42L14 42L14 44L12 44L12 45L10 45L10 46L13 46L13 47L12 47L12 48L11 48L11 47L9 47L9 46L8 46L8 47L9 47L9 49L12 49L12 50L13 50L13 53L14 53L14 46L13 46L13 45L15 45L15 48L17 48L17 45L18 45L18 44L16 44L16 43L18 43L18 42L19 42L19 45L20 45L20 46L18 46L18 47L19 47L19 49L15 49L15 52L16 52L16 53L15 53L15 54L16 54L16 53L17 53L17 52L19 52L19 51L20 51L20 50L21 50L21 49L23 49L23 47L24 47L24 46L23 46L23 45L22 45L22 44L21 44L21 43L22 43L22 42L23 42L23 44L25 44L25 47L26 47L26 48L24 48L24 49L26 49L26 48L27 48L27 47L26 47L26 45L28 45L28 46L31 46L31 47L33 47L33 46L36 46L36 47L35 47L35 48L36 48L36 47L37 47L37 46L36 46L36 45L34 45L34 43L35 43L35 44L36 44L36 43L37 43L37 42L35 42L35 40L38 40L38 42L39 42L39 43L40 43L40 44L39 44L39 45L38 45L38 46L39 46L39 47L38 47L38 48L37 48L37 49L38 49L38 50L36 50L36 49L34 49L34 48L31 48L31 49L33 49L33 50L31 50L31 53L30 53L30 54L26 54L26 53L24 53L24 54L23 54L23 55L24 55L24 56L25 56L25 54L26 54L26 55L27 55L27 56L29 56L29 55L30 55L30 56L31 56L31 54L32 54L32 53L33 53L33 55L35 55L35 56L36 56L36 54L35 54L35 53L34 53L34 52L35 52L35 51L34 51L34 50L36 50L36 52L37 52L37 53L38 53L38 54L40 54L40 53L42 53L42 52L40 52L40 51L39 51L39 53L38 53L38 52L37 52L37 51L38 51L38 50L41 50L41 51L42 51L42 50L41 50L41 48L42 48L42 49L43 49L43 48L44 48L44 49L45 49L45 50L44 50L44 51L45 51L45 52L44 52L44 53L43 53L43 54L44 54L44 55L42 55L42 54L41 54L41 55L42 55L42 56L44 56L44 55L45 55L45 54L44 54L44 53L45 53L45 52L46 52L46 51L47 51L47 53L48 53L48 50L47 50L47 49L48 49L48 48L51 48L51 46L52 46L52 48L53 48L53 47L55 47L55 46L56 46L56 45L55 45L55 44L54 44L54 45L52 45L52 44L53 44L53 43L54 43L54 42L53 42L53 41L51 41L51 42L50 42L50 43L48 43L48 44L47 44L47 45L45 45L45 44L46 44L46 43L47 43L47 42L48 42L48 41L49 41L49 39L51 39L51 40L52 40L52 39L53 39L53 35L55 35L55 36L56 36L56 35L55 35L55 34L56 34L56 32L54 32L54 31L55 31L55 30L54 30L54 29L55 29L55 28L56 28L56 27L55 27L55 28L54 28L54 29L53 29L53 30L54 30L54 31L48 31L48 29L46 29L46 30L47 30L47 31L48 31L48 32L47 32L47 33L46 33L46 31L45 31L45 30L44 30L44 29L45 29L45 28L46 28L46 27L47 27L47 28L48 28L48 27L47 27L47 25L50 25L50 26L53 26L53 27L54 27L54 26L53 26L53 25L54 25L54 24L53 24L53 23L52 23L52 24L51 24L51 25L50 25L50 22L51 22L51 21L49 21L49 20L48 20L48 21L49 21L49 23L48 23L48 24L47 24L47 23L46 23L46 22L47 22L47 20L44 20L44 18L47 18L47 19L48 19L48 18L47 18L47 17L49 17L49 15L50 15L50 16L51 16L51 17L50 17L50 18L49 18L49 19L52 19L52 18L51 18L51 17L53 17L53 18L55 18L55 17L53 17L53 15L50 15L50 14L51 14L51 12L50 12L50 11L49 11L49 10L48 10L48 11L47 11L47 12L45 12L45 11L46 11L46 10L47 10L47 9L46 9L46 10L45 10L45 11L44 11L44 10L43 10L43 11L42 11L42 10L41 10L41 12L40 12L40 11L39 11L39 9L43 9L43 8L44 8L44 6L45 6L45 4L46 4L46 5L47 5L47 3L44 3L44 6L43 6L43 7L42 7L42 5L40 5L40 6L39 6L39 8L38 8L38 11L39 11L39 12L40 12L40 13L38 13L38 14L37 14L37 13L36 13L36 14L37 14L37 15L35 15L35 16L33 16L33 15L32 15L32 14L35 14L35 12L36 12L36 10L37 10L37 9L35 9L35 8L34 8L34 9L33 9L33 7L34 7L34 5L35 5L35 3ZM25 4L25 8L26 8L26 4ZM32 4L32 5L33 5L33 4ZM36 4L36 5L37 5L37 4ZM27 5L27 8L30 8L30 5ZM13 6L13 7L14 7L14 10L17 10L17 11L18 11L18 10L17 10L17 9L15 9L15 7L14 7L14 6ZM22 6L22 8L23 8L23 6ZM28 6L28 7L29 7L29 6ZM32 6L32 7L33 7L33 6ZM40 6L40 7L41 7L41 6ZM48 6L48 7L49 7L49 6ZM53 8L53 9L54 9L54 8ZM6 10L6 11L8 11L8 10ZM22 10L22 11L20 11L20 12L22 12L22 13L21 13L21 15L23 15L23 14L26 14L26 13L23 13L23 10ZM32 10L32 12L31 12L31 13L30 13L30 14L29 14L29 13L28 13L28 14L29 14L29 16L28 16L28 15L27 15L27 16L28 16L28 17L26 17L26 15L24 15L24 16L25 16L25 17L22 17L22 16L21 16L21 17L22 17L22 18L24 18L24 19L23 19L23 20L24 20L24 21L23 21L23 22L22 22L22 21L21 21L21 23L23 23L23 25L22 25L22 24L20 24L20 25L19 25L19 23L20 23L20 22L18 22L18 21L20 21L20 20L17 20L17 19L16 19L16 17L15 17L15 21L16 21L16 22L14 22L14 21L13 21L13 22L12 22L12 20L14 20L14 19L11 19L11 20L10 20L10 21L9 21L9 23L10 23L10 24L12 24L12 25L11 25L11 26L12 26L12 25L13 25L13 26L14 26L14 25L16 25L16 24L17 24L17 25L19 25L19 26L20 26L20 28L19 28L19 29L18 29L18 28L16 28L16 27L18 27L18 26L15 26L15 28L14 28L14 27L13 27L13 29L15 29L15 31L14 31L14 30L13 30L13 31L14 31L14 32L15 32L15 31L16 31L16 29L18 29L18 32L16 32L16 33L18 33L18 34L17 34L17 35L16 35L16 36L17 36L17 37L18 37L18 38L17 38L17 39L18 39L18 40L16 40L16 39L15 39L15 38L16 38L16 37L15 37L15 38L13 38L13 40L12 40L12 39L11 39L11 40L10 40L10 41L12 41L12 42L13 42L13 41L14 41L14 42L16 42L16 41L19 41L19 42L20 42L20 43L21 43L21 42L20 42L20 41L19 41L19 40L21 40L21 39L22 39L22 40L23 40L23 39L24 39L24 40L25 40L25 37L26 37L26 35L27 35L27 34L25 34L25 33L26 33L26 32L28 32L28 33L29 33L29 34L30 34L30 36L29 36L29 37L31 37L31 38L29 38L29 39L33 39L33 40L35 40L35 39L37 39L37 38L38 38L38 37L37 37L37 36L38 36L38 33L37 33L37 32L35 32L35 34L33 34L33 33L32 33L32 32L34 32L34 31L36 31L36 29L38 29L38 28L42 28L42 26L45 26L45 27L44 27L44 28L43 28L43 29L41 29L41 30L43 30L43 32L41 32L41 33L39 33L39 34L40 34L40 35L39 35L39 37L40 37L40 38L41 38L41 39L42 39L42 40L41 40L41 42L42 42L42 44L41 44L41 45L39 45L39 46L40 46L40 47L39 47L39 48L38 48L38 49L39 49L39 48L41 48L41 46L43 46L43 47L42 47L42 48L43 48L43 47L44 47L44 48L45 48L45 49L47 49L47 48L48 48L48 47L50 47L50 46L51 46L51 45L50 45L50 46L45 46L45 45L44 45L44 44L43 44L43 42L45 42L45 43L46 43L46 42L45 42L45 41L42 41L42 40L45 40L45 39L46 39L46 41L47 41L47 39L49 39L49 38L50 38L50 36L51 36L51 37L52 37L52 35L53 35L53 34L52 34L52 33L54 33L54 34L55 34L55 33L54 33L54 32L52 32L52 33L51 33L51 32L50 32L50 34L48 34L48 35L50 35L50 36L48 36L48 37L47 37L47 39L46 39L46 38L45 38L45 37L44 37L44 36L47 36L47 34L45 34L45 33L43 33L43 32L45 32L45 31L44 31L44 30L43 30L43 29L44 29L44 28L45 28L45 27L46 27L46 26L45 26L45 25L46 25L46 23L45 23L45 25L44 25L44 20L43 20L43 18L44 18L44 15L45 15L45 17L46 17L46 15L47 15L47 16L48 16L48 15L49 15L49 14L50 14L50 12L49 12L49 13L47 13L47 14L44 14L44 12L43 12L43 13L40 13L40 14L43 14L43 15L42 15L42 16L41 16L41 15L39 15L39 14L38 14L38 15L39 15L39 16L38 16L38 17L37 17L37 16L35 16L35 17L37 17L37 18L38 18L38 17L39 17L39 19L37 19L37 20L36 20L36 19L35 19L35 18L33 18L33 17L32 17L32 16L31 16L31 15L30 15L30 14L32 14L32 12L33 12L33 13L34 13L34 12L33 12L33 10ZM51 10L51 11L52 11L52 10ZM55 11L55 12L54 12L54 13L53 13L53 12L52 12L52 13L53 13L53 14L54 14L54 13L55 13L55 14L56 14L56 11ZM6 12L6 13L7 13L7 12ZM15 13L15 14L14 14L14 16L11 16L11 15L8 15L8 16L9 16L9 17L12 17L12 18L13 18L13 17L14 17L14 16L16 16L16 13ZM22 13L22 14L23 14L23 13ZM39 16L39 17L41 17L41 16ZM42 16L42 17L43 17L43 16ZM0 17L0 18L1 18L1 17ZM25 17L25 19L26 19L26 21L28 21L28 22L27 22L27 23L28 23L28 24L25 24L25 23L26 23L26 22L25 22L25 21L24 21L24 22L23 22L23 23L24 23L24 24L25 24L25 25L26 25L26 26L25 26L25 27L24 27L24 26L22 26L22 25L20 25L20 26L22 26L22 27L21 27L21 28L22 28L22 29L19 29L19 31L20 31L20 30L21 30L21 31L23 31L23 32L21 32L21 33L19 33L19 35L20 35L20 34L21 34L21 35L22 35L22 36L19 36L19 37L21 37L21 38L22 38L22 39L23 39L23 38L24 38L24 37L23 37L23 36L24 36L24 34L23 34L23 33L25 33L25 32L26 32L26 31L25 31L25 30L23 30L23 29L26 29L26 28L25 28L25 27L26 27L26 26L27 26L27 25L31 25L31 24L32 24L32 26L31 26L31 27L32 27L32 29L31 29L31 31L28 31L28 32L29 32L29 33L31 33L31 35L33 35L33 36L32 36L32 37L33 37L33 39L35 39L35 37L34 37L34 35L33 35L33 34L32 34L32 33L31 33L31 32L32 32L32 30L35 30L35 28L33 28L33 27L34 27L34 26L36 26L36 27L39 27L39 26L42 26L42 25L41 25L41 24L43 24L43 22L41 22L41 24L40 24L40 22L39 22L39 21L42 21L42 20L39 20L39 21L38 21L38 20L37 20L37 21L38 21L38 23L37 23L37 24L39 24L39 25L38 25L38 26L37 26L37 25L33 25L33 24L32 24L32 23L33 23L33 22L34 22L34 23L35 23L35 20L32 20L32 21L31 21L31 20L29 20L29 19L28 19L28 18L26 18L26 17ZM18 18L18 19L19 19L19 18ZM30 18L30 19L33 19L33 18ZM41 18L41 19L42 19L42 18ZM21 19L21 20L22 20L22 19ZM27 19L27 20L28 20L28 19ZM16 20L16 21L17 21L17 20ZM30 21L30 22L29 22L29 24L31 24L31 23L30 23L30 22L31 22L31 21ZM1 22L1 25L2 25L2 22ZM3 22L3 23L4 23L4 22ZM6 22L6 23L7 23L7 22ZM10 22L10 23L11 23L11 22ZM13 22L13 25L14 25L14 24L16 24L16 23L14 23L14 22ZM17 23L17 24L18 24L18 23ZM55 25L55 26L56 26L56 25ZM32 26L32 27L33 27L33 26ZM5 27L5 30L8 30L8 27ZM23 27L23 28L24 28L24 27ZM27 27L27 30L30 30L30 27ZM49 27L49 30L52 30L52 27ZM6 28L6 29L7 29L7 28ZM15 28L15 29L16 29L16 28ZM28 28L28 29L29 29L29 28ZM50 28L50 29L51 29L51 28ZM39 29L39 30L38 30L38 32L39 32L39 30L40 30L40 29ZM10 30L10 31L11 31L11 32L10 32L10 34L9 34L9 35L7 35L7 36L9 36L9 37L8 37L8 38L4 38L4 39L5 39L5 40L6 40L6 41L7 41L7 40L8 40L8 39L9 39L9 37L10 37L10 38L11 38L11 37L13 37L13 36L15 36L15 34L14 34L14 35L13 35L13 34L12 34L12 33L11 33L11 32L12 32L12 30ZM24 31L24 32L25 32L25 31ZM48 32L48 33L49 33L49 32ZM21 33L21 34L22 34L22 33ZM10 34L10 36L11 36L11 35L12 35L12 36L13 36L13 35L12 35L12 34ZM35 34L35 36L37 36L37 34ZM42 34L42 35L43 35L43 36L42 36L42 37L41 37L41 36L40 36L40 37L41 37L41 38L42 38L42 39L45 39L45 38L44 38L44 37L43 37L43 36L44 36L44 35L45 35L45 34ZM50 34L50 35L52 35L52 34ZM2 35L2 36L3 36L3 35ZM17 35L17 36L18 36L18 35ZM27 37L27 38L26 38L26 40L27 40L27 41L26 41L26 42L27 42L27 41L28 41L28 39L27 39L27 38L28 38L28 37ZM42 37L42 38L43 38L43 37ZM1 38L1 39L2 39L2 38ZM19 38L19 39L20 39L20 38ZM51 38L51 39L52 39L52 38ZM54 38L54 39L55 39L55 38ZM6 39L6 40L7 40L7 39ZM14 39L14 41L16 41L16 40L15 40L15 39ZM38 39L38 40L40 40L40 39ZM30 40L30 41L32 41L32 42L28 42L28 45L29 45L29 44L31 44L31 45L32 45L32 46L33 46L33 45L32 45L32 44L33 44L33 43L34 43L34 42L33 42L33 41L32 41L32 40ZM23 41L23 42L25 42L25 41ZM39 41L39 42L40 42L40 41ZM6 42L6 43L5 43L5 44L4 44L4 45L7 45L7 44L6 44L6 43L7 43L7 42ZM32 42L32 43L31 43L31 44L32 44L32 43L33 43L33 42ZM51 42L51 43L50 43L50 44L51 44L51 43L53 43L53 42ZM25 43L25 44L27 44L27 43ZM48 44L48 45L49 45L49 44ZM1 45L1 47L2 47L2 45ZM21 45L21 46L20 46L20 48L21 48L21 47L23 47L23 46L22 46L22 45ZM54 45L54 46L55 46L55 45ZM44 46L44 47L45 47L45 46ZM28 47L28 48L30 48L30 47ZM46 47L46 48L47 48L47 47ZM54 48L54 49L55 49L55 50L54 50L54 51L55 51L55 50L56 50L56 48ZM19 49L19 50L18 50L18 51L19 51L19 50L20 50L20 49ZM27 49L27 52L30 52L30 49ZM49 49L49 52L52 52L52 49ZM10 50L10 51L11 51L11 50ZM28 50L28 51L29 51L29 50ZM50 50L50 51L51 51L51 50ZM32 51L32 52L33 52L33 51ZM53 52L53 53L54 53L54 52ZM18 54L18 55L17 55L17 56L18 56L18 55L19 55L19 54ZM50 55L50 56L51 56L51 55ZM53 55L53 56L55 56L55 57L56 57L56 56L55 56L55 55ZM0 0L0 7L7 7L7 0ZM1 1L1 6L6 6L6 1ZM2 2L2 5L5 5L5 2ZM50 0L50 7L57 7L57 0ZM51 1L51 6L56 6L56 1ZM52 2L52 5L55 5L55 2ZM0 50L0 57L7 57L7 50ZM1 51L1 56L6 56L6 51ZM2 52L2 55L5 55L5 52Z" fill="#000000"/></g></g></svg>
