<?xml version="1.0" encoding="UTF-8"?>
<svg xmlns="http://www.w3.org/2000/svg" version="1.1" width="300" height="300" viewBox="0 0 300 300"><rect x="0" y="0" width="300" height="300" fill="#fefefe"/><g transform="scale(4.615)"><g transform="translate(4,4)"><path fill-rule="evenodd" d="M12 0L12 1L14 1L14 2L12 2L12 3L13 3L13 4L12 4L12 5L11 5L11 3L10 3L10 2L11 2L11 1L8 1L8 2L9 2L9 3L8 3L8 4L10 4L10 8L6 8L6 9L10 9L10 13L9 13L9 15L8 15L8 13L7 13L7 12L9 12L9 11L8 11L8 10L6 10L6 11L2 11L2 10L5 10L5 8L0 8L0 12L2 12L2 14L3 14L3 15L1 15L1 13L0 13L0 16L3 16L3 17L0 17L0 18L1 18L1 19L5 19L5 20L0 20L0 22L1 22L1 21L2 21L2 22L3 22L3 23L7 23L7 24L4 24L4 27L2 27L2 26L3 26L3 25L2 25L2 23L0 23L0 24L1 24L1 27L0 27L0 28L1 28L1 29L0 29L0 31L2 31L2 29L4 29L4 30L3 30L3 32L0 32L0 33L1 33L1 34L0 34L0 36L1 36L1 38L4 38L4 37L7 37L7 38L6 38L6 39L5 39L5 40L6 40L6 41L7 41L7 42L5 42L5 44L4 44L4 46L5 46L5 47L3 47L3 45L1 45L1 43L0 43L0 45L1 45L1 46L0 46L0 48L5 48L5 47L7 47L7 48L6 48L6 49L8 49L8 51L9 51L9 52L8 52L8 57L12 57L12 55L14 55L14 54L15 54L15 55L16 55L16 56L17 56L17 57L20 57L20 56L19 56L19 55L20 55L20 54L19 54L19 53L20 53L20 52L23 52L23 50L25 50L25 49L26 49L26 52L24 52L24 53L23 53L23 54L21 54L21 56L24 56L24 57L26 57L26 56L27 56L27 57L29 57L29 56L30 56L30 57L31 57L31 56L35 56L35 57L39 57L39 56L37 56L37 55L41 55L41 56L42 56L42 55L43 55L43 57L44 57L44 54L46 54L46 55L47 55L47 56L48 56L48 55L49 55L49 56L50 56L50 57L52 57L52 55L51 55L51 53L52 53L52 54L53 54L53 52L54 52L54 53L56 53L56 52L57 52L57 51L56 51L56 49L57 49L57 48L56 48L56 46L57 46L57 45L56 45L56 44L57 44L57 43L56 43L56 42L55 42L55 39L57 39L57 37L56 37L56 36L55 36L55 35L56 35L56 34L57 34L57 32L56 32L56 30L57 30L57 28L56 28L56 26L57 26L57 25L56 25L56 22L57 22L57 20L56 20L56 22L55 22L55 23L53 23L53 21L51 21L51 20L52 20L52 19L53 19L53 20L55 20L55 19L56 19L56 16L57 16L57 15L56 15L56 14L57 14L57 11L56 11L56 8L55 8L55 10L54 10L54 11L53 11L53 9L54 9L54 8L53 8L53 9L52 9L52 8L51 8L51 10L49 10L49 9L50 9L50 8L48 8L48 9L47 9L47 5L48 5L48 0L46 0L46 1L45 1L45 2L44 2L44 3L41 3L41 2L43 2L43 0L41 0L41 1L40 1L40 0L39 0L39 1L38 1L38 0L37 0L37 1L38 1L38 4L37 4L37 3L36 3L36 0L35 0L35 1L33 1L33 0L29 0L29 2L28 2L28 3L29 3L29 2L30 2L30 1L33 1L33 2L32 2L32 3L31 3L31 4L26 4L26 3L23 3L23 4L24 4L24 5L21 5L21 4L19 4L19 3L20 3L20 1L18 1L18 0L17 0L17 1L16 1L16 2L17 2L17 1L18 1L18 2L19 2L19 3L17 3L17 4L18 4L18 5L17 5L17 6L16 6L16 7L15 7L15 6L14 6L14 8L12 8L12 11L11 11L11 9L10 9L10 8L11 8L11 6L12 6L12 7L13 7L13 6L12 6L12 5L13 5L13 4L14 4L14 2L15 2L15 1L14 1L14 0ZM21 0L21 1L22 1L22 0ZM23 0L23 2L27 2L27 1L26 1L26 0ZM46 1L46 2L47 2L47 1ZM32 3L32 4L31 4L31 8L32 8L32 10L31 10L31 11L29 11L29 9L27 9L27 10L28 10L28 11L29 11L29 12L28 12L28 13L26 13L26 12L27 12L27 11L26 11L26 12L25 12L25 11L23 11L23 12L25 12L25 15L26 15L26 16L24 16L24 15L21 15L21 13L22 13L22 14L23 14L23 13L22 13L22 12L21 12L21 13L20 13L20 12L19 12L19 13L20 13L20 15L19 15L19 16L20 16L20 18L19 18L19 17L18 17L18 14L17 14L17 13L18 13L18 12L17 12L17 13L16 13L16 12L15 12L15 13L13 13L13 12L14 12L14 11L13 11L13 12L11 12L11 14L10 14L10 17L9 17L9 16L7 16L7 15L6 15L6 14L7 14L7 13L6 13L6 12L7 12L7 11L6 11L6 12L5 12L5 13L6 13L6 14L4 14L4 17L3 17L3 18L4 18L4 17L6 17L6 18L7 18L7 17L8 17L8 18L9 18L9 19L8 19L8 20L7 20L7 19L6 19L6 20L7 20L7 21L5 21L5 22L7 22L7 21L8 21L8 20L9 20L9 19L10 19L10 25L11 25L11 26L10 26L10 28L9 28L9 30L10 30L10 31L11 31L11 32L10 32L10 33L5 33L5 31L4 31L4 34L1 34L1 35L3 35L3 36L5 36L5 35L6 35L6 36L7 36L7 35L8 35L8 36L11 36L11 35L12 35L12 34L13 34L13 33L14 33L14 34L15 34L15 35L17 35L17 36L15 36L15 37L14 37L14 35L13 35L13 36L12 36L12 37L11 37L11 39L10 39L10 37L9 37L9 40L7 40L7 39L8 39L8 38L7 38L7 39L6 39L6 40L7 40L7 41L9 41L9 42L7 42L7 43L6 43L6 44L5 44L5 45L6 45L6 46L8 46L8 47L9 47L9 51L10 51L10 52L11 52L11 53L12 53L12 51L13 51L13 53L15 53L15 54L16 54L16 53L17 53L17 52L18 52L18 50L17 50L17 49L15 49L15 51L13 51L13 50L14 50L14 48L15 48L15 47L14 47L14 45L13 45L13 44L14 44L14 43L13 43L13 40L12 40L12 38L13 38L13 37L14 37L14 38L15 38L15 39L16 39L16 40L15 40L15 41L14 41L14 42L15 42L15 43L18 43L18 42L19 42L19 43L20 43L20 44L19 44L19 45L20 45L20 46L19 46L19 47L20 47L20 50L21 50L21 49L23 49L23 48L24 48L24 49L25 49L25 48L30 48L30 47L29 47L29 46L31 46L31 44L28 44L28 43L29 43L29 42L30 42L30 41L29 41L29 40L32 40L32 41L31 41L31 42L32 42L32 43L33 43L33 44L32 44L32 47L33 47L33 48L32 48L32 50L31 50L31 53L30 53L30 54L27 54L27 53L24 53L24 54L23 54L23 55L24 55L24 56L25 56L25 54L26 54L26 55L27 55L27 56L29 56L29 55L30 55L30 56L31 56L31 54L32 54L32 53L33 53L33 55L35 55L35 56L36 56L36 54L35 54L35 52L34 52L34 50L36 50L36 52L37 52L37 51L38 51L38 52L39 52L39 53L37 53L37 54L40 54L40 53L42 53L42 52L43 52L43 51L45 51L45 52L44 52L44 53L43 53L43 54L44 54L44 53L45 53L45 52L46 52L46 50L47 50L47 53L46 53L46 54L48 54L48 50L47 50L47 49L48 49L48 48L49 48L49 47L51 47L51 48L52 48L52 47L54 47L54 46L53 46L53 43L54 43L54 42L53 42L53 41L54 41L54 40L53 40L53 41L51 41L51 42L50 42L50 43L49 43L49 42L48 42L48 41L49 41L49 40L50 40L50 39L51 39L51 40L52 40L52 39L53 39L53 35L55 35L55 34L56 34L56 32L55 32L55 34L54 34L54 32L53 32L53 31L55 31L55 29L56 29L56 28L54 28L54 30L53 30L53 31L52 31L52 32L51 32L51 33L52 33L52 34L50 34L50 32L49 32L49 31L48 31L48 28L47 28L47 29L46 29L46 30L47 30L47 31L48 31L48 32L47 32L47 33L45 33L45 32L43 32L43 31L45 31L45 30L44 30L44 29L45 29L45 28L46 28L46 27L47 27L47 25L50 25L50 26L51 26L51 25L54 25L54 24L53 24L53 23L50 23L50 22L51 22L51 21L49 21L49 19L50 19L50 18L51 18L51 19L52 19L52 18L55 18L55 17L54 17L54 16L52 16L52 15L51 15L51 17L50 17L50 14L51 14L51 12L50 12L50 11L49 11L49 10L48 10L48 11L47 11L47 12L45 12L45 11L44 11L44 14L40 14L40 13L43 13L43 10L41 10L41 9L43 9L43 7L44 7L44 6L45 6L45 8L44 8L44 10L47 10L47 9L45 9L45 8L46 8L46 6L45 6L45 5L47 5L47 3L44 3L44 6L43 6L43 7L42 7L42 6L41 6L41 5L40 5L40 4L41 4L41 3L39 3L39 4L38 4L38 6L37 6L37 7L36 7L36 5L37 5L37 4L36 4L36 5L35 5L35 3ZM15 4L15 5L16 5L16 4ZM25 4L25 8L24 8L24 6L23 6L23 8L19 8L19 7L20 7L20 5L18 5L18 6L17 6L17 7L16 7L16 8L14 8L14 10L15 10L15 11L18 11L18 9L16 9L16 8L17 8L17 7L18 7L18 8L19 8L19 9L20 9L20 10L19 10L19 11L22 11L22 10L23 10L23 8L24 8L24 9L25 9L25 8L26 8L26 4ZM32 4L32 5L34 5L34 7L33 7L33 6L32 6L32 7L33 7L33 9L34 9L34 8L35 8L35 9L37 9L37 10L36 10L36 12L35 12L35 13L36 13L36 14L32 14L32 12L33 12L33 13L34 13L34 12L33 12L33 10L32 10L32 11L31 11L31 13L30 13L30 14L29 14L29 13L28 13L28 14L29 14L29 16L28 16L28 15L27 15L27 14L26 14L26 15L27 15L27 16L26 16L26 17L22 17L22 16L21 16L21 17L22 17L22 18L24 18L24 19L21 19L21 18L20 18L20 19L21 19L21 20L24 20L24 21L23 21L23 22L24 22L24 21L25 21L25 22L26 22L26 23L25 23L25 24L24 24L24 23L21 23L21 24L20 24L20 25L19 25L19 23L20 23L20 22L19 22L19 21L20 21L20 20L18 20L18 19L19 19L19 18L18 18L18 17L17 17L17 19L15 19L15 21L16 21L16 22L15 22L15 23L16 23L16 24L14 24L14 25L12 25L12 26L11 26L11 28L10 28L10 30L11 30L11 31L13 31L13 30L15 30L15 31L14 31L14 33L15 33L15 34L16 34L16 33L18 33L18 34L20 34L20 35L19 35L19 36L17 36L17 39L19 39L19 40L17 40L17 41L19 41L19 42L20 42L20 41L19 41L19 40L21 40L21 37L19 37L19 36L20 36L20 35L21 35L21 36L22 36L22 35L23 35L23 34L24 34L24 36L23 36L23 37L24 37L24 38L22 38L22 39L24 39L24 40L25 40L25 37L26 37L26 40L28 40L28 39L27 39L27 38L28 38L28 37L27 37L27 36L26 36L26 35L27 35L27 31L29 31L29 32L28 32L28 33L29 33L29 34L30 34L30 36L29 36L29 37L31 37L31 38L29 38L29 39L33 39L33 40L35 40L35 42L37 42L37 43L34 43L34 42L33 42L33 41L32 41L32 42L33 42L33 43L34 43L34 45L36 45L36 46L33 46L33 47L34 47L34 48L35 48L35 49L36 49L36 50L38 50L38 51L40 51L40 52L41 52L41 50L42 50L42 51L43 51L43 50L44 50L44 48L43 48L43 47L42 47L42 48L41 48L41 46L43 46L43 45L44 45L44 46L45 46L45 48L46 48L46 49L45 49L45 50L46 50L46 49L47 49L47 48L48 48L48 47L49 47L49 46L51 46L51 47L52 47L52 46L51 46L51 45L52 45L52 44L51 44L51 43L53 43L53 42L51 42L51 43L50 43L50 44L49 44L49 45L47 45L47 43L48 43L48 42L47 42L47 43L46 43L46 44L45 44L45 45L44 45L44 43L43 43L43 42L44 42L44 40L47 40L47 39L50 39L50 38L48 38L48 37L50 37L50 36L51 36L51 37L52 37L52 35L53 35L53 34L52 34L52 35L50 35L50 34L49 34L49 35L50 35L50 36L48 36L48 35L47 35L47 34L45 34L45 35L44 35L44 33L43 33L43 32L41 32L41 33L39 33L39 34L40 34L40 35L39 35L39 37L40 37L40 38L43 38L43 37L44 37L44 38L45 38L45 39L42 39L42 41L40 41L40 42L42 42L42 44L41 44L41 45L40 45L40 47L39 47L39 46L38 46L38 45L39 45L39 44L40 44L40 43L39 43L39 42L38 42L38 40L39 40L39 38L38 38L38 37L37 37L37 36L38 36L38 33L37 33L37 32L34 32L34 31L35 31L35 30L37 30L37 29L38 29L38 28L42 28L42 26L43 26L43 25L44 25L44 24L43 24L43 23L44 23L44 20L45 20L45 19L47 19L47 18L50 18L50 17L49 17L49 16L48 16L48 15L49 15L49 14L50 14L50 12L49 12L49 13L47 13L47 14L44 14L44 15L42 15L42 16L41 16L41 15L39 15L39 14L38 14L38 13L39 13L39 11L40 11L40 12L41 12L41 10L38 10L38 8L40 8L40 7L41 7L41 6L40 6L40 5L39 5L39 6L38 6L38 7L37 7L37 8L35 8L35 5L34 5L34 4ZM8 5L8 7L9 7L9 5ZM27 5L27 8L30 8L30 5ZM18 6L18 7L19 7L19 6ZM21 6L21 7L22 7L22 6ZM28 6L28 7L29 7L29 6ZM39 6L39 7L40 7L40 6ZM48 6L48 7L49 7L49 6ZM15 9L15 10L16 10L16 9ZM21 9L21 10L22 10L22 9ZM55 11L55 12L54 12L54 13L53 13L53 12L52 12L52 13L53 13L53 15L54 15L54 14L56 14L56 11ZM3 12L3 13L4 13L4 12ZM15 13L15 14L14 14L14 16L13 16L13 17L14 17L14 16L15 16L15 17L16 17L16 13ZM11 14L11 16L12 16L12 15L13 15L13 14ZM30 14L30 15L32 15L32 17L33 17L33 19L34 19L34 21L33 21L33 20L32 20L32 21L31 21L31 20L30 20L30 19L31 19L31 18L30 18L30 19L28 19L28 18L27 18L27 17L28 17L28 16L27 16L27 17L26 17L26 18L27 18L27 19L26 19L26 20L25 20L25 21L27 21L27 24L25 24L25 25L26 25L26 26L25 26L25 27L24 27L24 26L22 26L22 27L20 27L20 26L21 26L21 25L23 25L23 24L21 24L21 25L20 25L20 26L18 26L18 27L16 27L16 26L17 26L17 24L18 24L18 23L17 23L17 24L16 24L16 25L15 25L15 29L16 29L16 30L18 30L18 29L19 29L19 30L21 30L21 31L23 31L23 29L26 29L26 28L25 28L25 27L26 27L26 26L28 26L28 25L29 25L29 24L30 24L30 23L31 23L31 24L32 24L32 26L31 26L31 27L32 27L32 29L31 29L31 31L30 31L30 32L29 32L29 33L31 33L31 34L32 34L32 35L33 35L33 34L35 34L35 36L37 36L37 34L35 34L35 33L33 33L33 31L32 31L32 29L33 29L33 30L35 30L35 28L33 28L33 27L34 27L34 26L36 26L36 27L41 27L41 26L42 26L42 25L43 25L43 24L42 24L42 23L41 23L41 24L38 24L38 23L40 23L40 22L39 22L39 21L41 21L41 20L39 20L39 21L38 21L38 19L39 19L39 17L41 17L41 16L39 16L39 15L38 15L38 14L37 14L37 15L35 15L35 16L33 16L33 15L32 15L32 14ZM44 15L44 18L43 18L43 20L42 20L42 21L43 21L43 20L44 20L44 18L47 18L47 17L48 17L48 16L47 16L47 17L45 17L45 16L46 16L46 15ZM6 16L6 17L7 17L7 16ZM35 16L35 17L37 17L37 18L38 18L38 17L39 17L39 16L38 16L38 17L37 17L37 16ZM42 16L42 17L43 17L43 16ZM10 17L10 19L12 19L12 18L11 18L11 17ZM41 18L41 19L42 19L42 18ZM13 19L13 20L11 20L11 21L13 21L13 22L14 22L14 21L13 21L13 20L14 20L14 19ZM35 19L35 23L32 23L32 24L33 24L33 25L37 25L37 26L38 26L38 24L37 24L37 23L38 23L38 21L37 21L37 20L36 20L36 19ZM16 20L16 21L17 21L17 20ZM29 20L29 21L28 21L28 22L29 22L29 23L28 23L28 24L27 24L27 25L28 25L28 24L29 24L29 23L30 23L30 22L31 22L31 21L30 21L30 20ZM46 20L46 21L45 21L45 22L46 22L46 23L45 23L45 24L48 24L48 23L49 23L49 21L47 21L47 20ZM21 21L21 22L22 22L22 21ZM29 21L29 22L30 22L30 21ZM46 21L46 22L47 22L47 21ZM8 22L8 23L9 23L9 22ZM11 22L11 23L12 23L12 24L13 24L13 23L12 23L12 22ZM7 24L7 25L5 25L5 26L8 26L8 24ZM41 24L41 25L39 25L39 26L41 26L41 25L42 25L42 24ZM12 26L12 27L13 27L13 28L14 28L14 26ZM32 26L32 27L33 27L33 26ZM44 26L44 28L43 28L43 29L41 29L41 30L43 30L43 29L44 29L44 28L45 28L45 26ZM53 26L53 27L54 27L54 26ZM5 27L5 30L8 30L8 27ZM27 27L27 30L30 30L30 27ZM49 27L49 30L52 30L52 27ZM6 28L6 29L7 29L7 28ZM16 28L16 29L18 29L18 28ZM19 28L19 29L22 29L22 28ZM28 28L28 29L29 29L29 28ZM50 28L50 29L51 29L51 28ZM11 29L11 30L13 30L13 29ZM39 29L39 30L38 30L38 32L39 32L39 30L40 30L40 29ZM6 31L6 32L8 32L8 31ZM19 31L19 32L20 32L20 34L21 34L21 35L22 35L22 34L23 34L23 33L25 33L25 35L26 35L26 31L25 31L25 32L20 32L20 31ZM15 32L15 33L16 33L16 32ZM31 32L31 33L32 33L32 34L33 34L33 33L32 33L32 32ZM48 32L48 33L49 33L49 32ZM52 32L52 33L53 33L53 32ZM21 33L21 34L22 34L22 33ZM4 34L4 35L5 35L5 34ZM6 34L6 35L7 35L7 34ZM8 34L8 35L10 35L10 34ZM42 34L42 35L41 35L41 36L40 36L40 37L43 37L43 36L44 36L44 37L45 37L45 38L46 38L46 39L47 39L47 37L48 37L48 36L47 36L47 35L46 35L46 36L47 36L47 37L45 37L45 36L44 36L44 35L43 35L43 34ZM32 36L32 37L33 37L33 38L35 38L35 37L33 37L33 36ZM15 37L15 38L16 38L16 37ZM19 38L19 39L20 39L20 38ZM37 38L37 39L35 39L35 40L38 40L38 38ZM54 38L54 39L55 39L55 38ZM1 39L1 41L2 41L2 42L3 42L3 43L2 43L2 44L3 44L3 43L4 43L4 42L3 42L3 41L2 41L2 39ZM3 39L3 40L4 40L4 39ZM9 40L9 41L11 41L11 40ZM23 41L23 42L22 42L22 43L21 43L21 44L20 44L20 45L21 45L21 46L20 46L20 47L23 47L23 46L25 46L25 44L27 44L27 45L26 45L26 47L28 47L28 46L27 46L27 45L28 45L28 44L27 44L27 43L23 43L23 42L25 42L25 41ZM26 41L26 42L27 42L27 41ZM9 42L9 43L8 43L8 46L9 46L9 45L10 45L10 47L11 47L11 45L12 45L12 46L13 46L13 45L12 45L12 44L13 44L13 43L12 43L12 42L11 42L11 43L10 43L10 42ZM9 43L9 44L10 44L10 45L11 45L11 44L10 44L10 43ZM6 44L6 45L7 45L7 44ZM15 44L15 46L17 46L17 45L18 45L18 44L17 44L17 45L16 45L16 44ZM21 44L21 45L22 45L22 46L23 46L23 45L22 45L22 44ZM50 44L50 45L51 45L51 44ZM54 44L54 45L55 45L55 46L56 46L56 45L55 45L55 44ZM45 45L45 46L47 46L47 47L46 47L46 48L47 48L47 47L48 47L48 46L47 46L47 45ZM1 46L1 47L2 47L2 46ZM13 47L13 48L14 48L14 47ZM17 47L17 48L18 48L18 47ZM35 47L35 48L36 48L36 47ZM38 47L38 48L37 48L37 49L38 49L38 50L41 50L41 48L39 48L39 47ZM10 48L10 49L11 49L11 50L10 50L10 51L12 51L12 50L13 50L13 49L12 49L12 48ZM38 48L38 49L39 49L39 48ZM42 48L42 49L43 49L43 48ZM53 48L53 49L56 49L56 48ZM27 49L27 52L30 52L30 49ZM33 49L33 50L34 50L34 49ZM49 49L49 52L52 52L52 49ZM16 50L16 51L15 51L15 53L16 53L16 51L17 51L17 50ZM28 50L28 51L29 51L29 50ZM50 50L50 51L51 51L51 50ZM54 50L54 51L55 51L55 50ZM19 51L19 52L20 52L20 51ZM32 51L32 52L33 52L33 51ZM10 54L10 55L9 55L9 56L10 56L10 55L11 55L11 54ZM18 54L18 55L19 55L19 54ZM41 54L41 55L42 55L42 54ZM50 55L50 56L51 56L51 55ZM53 55L53 56L55 56L55 57L56 57L56 56L55 56L55 55ZM14 56L14 57L15 57L15 56ZM45 56L45 57L46 57L46 56ZM0 0L0 7L7 7L7 0ZM1 1L1 6L6 6L6 1ZM2 2L2 5L5 5L5 2ZM50 0L50 7L57 7L57 0ZM51 1L51 6L56 6L56 1ZM52 2L52 5L55 5L55 2ZM0 50L0 57L7 57L7 50ZM1 51L1 56L6 56L6 51ZM2 52L2 55L5 55L5 52Z" fill="#000000"/></g></g></svg>
