<?xml version="1.0" encoding="UTF-8"?>
<svg xmlns="http://www.w3.org/2000/svg" version="1.1" width="300" height="300" viewBox="0 0 300 300"><rect x="0" y="0" width="300" height="300" fill="#fefefe"/><g transform="scale(4.615)"><g transform="translate(4,4)"><path fill-rule="evenodd" d="M10 0L10 1L11 1L11 0ZM19 0L19 1L17 1L17 2L15 2L15 1L14 1L14 2L13 2L13 1L12 1L12 2L13 2L13 4L14 4L14 2L15 2L15 3L17 3L17 6L16 6L16 7L15 7L15 6L14 6L14 5L13 5L13 6L12 6L12 7L13 7L13 9L12 9L12 8L11 8L11 5L12 5L12 3L10 3L10 2L9 2L9 1L8 1L8 2L9 2L9 3L8 3L8 4L9 4L9 5L8 5L8 7L9 7L9 5L10 5L10 8L6 8L6 9L5 9L5 8L0 8L0 10L1 10L1 11L2 11L2 12L0 12L0 13L4 13L4 15L5 15L5 14L6 14L6 15L7 15L7 16L5 16L5 17L2 17L2 18L0 18L0 19L2 19L2 20L3 20L3 21L1 21L1 20L0 20L0 22L3 22L3 23L2 23L2 24L1 24L1 25L2 25L2 24L3 24L3 25L4 25L4 26L3 26L3 27L4 27L4 30L3 30L3 28L1 28L1 29L0 29L0 33L1 33L1 34L0 34L0 40L2 40L2 38L1 38L1 37L2 37L2 36L1 36L1 34L5 34L5 36L6 36L6 37L7 37L7 36L9 36L9 35L11 35L11 36L13 36L13 37L10 37L10 39L14 39L14 38L13 38L13 37L15 37L15 38L16 38L16 37L15 37L15 36L16 36L16 33L17 33L17 34L20 34L20 36L22 36L22 33L21 33L21 34L20 34L20 32L24 32L24 31L20 31L20 32L16 32L16 33L15 33L15 31L16 31L16 29L18 29L18 31L19 31L19 30L20 30L20 27L22 27L22 26L24 26L24 27L23 27L23 30L25 30L25 31L26 31L26 33L27 33L27 32L28 32L28 33L29 33L29 34L30 34L30 36L29 36L29 37L31 37L31 38L29 38L29 39L33 39L33 40L35 40L35 42L37 42L37 43L36 43L36 44L35 44L35 43L34 43L34 42L33 42L33 41L32 41L32 40L30 40L30 41L29 41L29 40L28 40L28 39L27 39L27 38L28 38L28 37L27 37L27 34L26 34L26 35L25 35L25 33L23 33L23 34L24 34L24 36L23 36L23 37L24 37L24 38L22 38L22 37L19 37L19 35L17 35L17 38L20 38L20 39L19 39L19 40L18 40L18 39L17 39L17 40L16 40L16 39L15 39L15 40L16 40L16 41L13 41L13 43L12 43L12 44L10 44L10 45L9 45L9 47L8 47L8 48L10 48L10 49L8 49L8 51L9 51L9 50L10 50L10 53L9 53L9 52L8 52L8 57L11 57L11 56L9 56L9 54L10 54L10 55L11 55L11 54L12 54L12 55L13 55L13 57L14 57L14 55L16 55L16 56L17 56L17 57L19 57L19 55L20 55L20 54L19 54L19 53L20 53L20 52L21 52L21 53L22 53L22 55L23 55L23 56L24 56L24 57L26 57L26 56L24 56L24 55L23 55L23 54L24 54L24 53L25 53L25 55L26 55L26 54L30 54L30 53L31 53L31 50L32 50L32 52L33 52L33 53L32 53L32 54L31 54L31 56L30 56L30 55L29 55L29 56L27 56L27 57L29 57L29 56L30 56L30 57L31 57L31 56L35 56L35 57L39 57L39 56L40 56L40 55L44 55L44 56L43 56L43 57L44 57L44 56L45 56L45 57L47 57L47 55L49 55L49 56L50 56L50 57L52 57L52 55L51 55L51 53L52 53L52 54L53 54L53 55L54 55L54 56L53 56L53 57L54 57L54 56L55 56L55 57L56 57L56 56L55 56L55 53L57 53L57 52L56 52L56 50L57 50L57 48L56 48L56 46L57 46L57 45L56 45L56 44L55 44L55 43L56 43L56 42L57 42L57 41L56 41L56 42L55 42L55 39L57 39L57 35L56 35L56 34L57 34L57 32L56 32L56 30L57 30L57 29L56 29L56 28L55 28L55 27L56 27L56 26L57 26L57 25L56 25L56 22L57 22L57 21L56 21L56 22L55 22L55 23L53 23L53 21L51 21L51 20L52 20L52 19L53 19L53 20L57 20L57 19L56 19L56 18L57 18L57 17L56 17L56 16L57 16L57 15L56 15L56 14L57 14L57 12L56 12L56 8L55 8L55 10L54 10L54 11L53 11L53 9L54 9L54 8L53 8L53 9L52 9L52 8L51 8L51 10L52 10L52 11L50 11L50 12L49 12L49 10L50 10L50 8L49 8L49 6L48 6L48 7L47 7L47 5L48 5L48 0L46 0L46 1L47 1L47 2L44 2L44 3L43 3L43 4L40 4L40 5L39 5L39 6L38 6L38 3L42 3L42 2L43 2L43 0L41 0L41 1L40 1L40 0L39 0L39 1L38 1L38 0L37 0L37 1L38 1L38 3L36 3L36 0L35 0L35 1L33 1L33 0L29 0L29 1L30 1L30 2L28 2L28 3L30 3L30 4L26 4L26 3L23 3L23 2L27 2L27 1L26 1L26 0L23 0L23 2L22 2L22 0L21 0L21 1L20 1L20 0ZM31 1L31 3L32 3L32 4L31 4L31 8L32 8L32 10L31 10L31 11L30 11L30 10L29 10L29 9L27 9L27 11L26 11L26 12L25 12L25 10L23 10L23 9L25 9L25 8L26 8L26 4L25 4L25 8L24 8L24 6L23 6L23 8L19 8L19 7L20 7L20 5L18 5L18 6L17 6L17 7L16 7L16 8L14 8L14 9L13 9L13 10L12 10L12 12L11 12L11 13L10 13L10 9L9 9L9 10L8 10L8 9L6 9L6 10L8 10L8 11L5 11L5 13L6 13L6 14L7 14L7 15L9 15L9 16L11 16L11 15L12 15L12 14L11 14L11 13L12 13L12 12L14 12L14 11L13 11L13 10L15 10L15 13L13 13L13 14L15 14L15 13L16 13L16 16L14 16L14 17L11 17L11 18L10 18L10 19L9 19L9 17L6 17L6 18L7 18L7 19L6 19L6 20L5 20L5 21L6 21L6 22L8 22L8 21L9 21L9 20L11 20L11 21L10 21L10 22L9 22L9 25L11 25L11 26L13 26L13 27L14 27L14 29L13 29L13 28L12 28L12 27L10 27L10 26L9 26L9 29L12 29L12 30L10 30L10 31L11 31L11 32L12 32L12 30L13 30L13 33L11 33L11 34L14 34L14 36L15 36L15 33L14 33L14 29L16 29L16 28L18 28L18 29L19 29L19 25L17 25L17 24L18 24L18 23L17 23L17 24L16 24L16 23L15 23L15 22L16 22L16 21L18 21L18 22L20 22L20 23L19 23L19 24L21 24L21 25L20 25L20 26L21 26L21 25L24 25L24 24L25 24L25 25L26 25L26 26L25 26L25 27L24 27L24 28L25 28L25 29L26 29L26 28L25 28L25 27L26 27L26 26L27 26L27 25L29 25L29 26L30 26L30 25L29 25L29 22L30 22L30 24L32 24L32 26L31 26L31 28L32 28L32 29L31 29L31 31L30 31L30 32L29 32L29 33L31 33L31 35L35 35L35 36L37 36L37 34L35 34L35 32L37 32L37 33L38 33L38 36L39 36L39 35L40 35L40 34L39 34L39 33L41 33L41 32L43 32L43 33L45 33L45 34L42 34L42 35L41 35L41 36L40 36L40 37L38 37L38 39L35 39L35 37L33 37L33 36L32 36L32 37L33 37L33 38L34 38L34 39L35 39L35 40L38 40L38 42L39 42L39 44L40 44L40 45L38 45L38 46L41 46L41 48L39 48L39 47L38 47L38 48L37 48L37 49L38 49L38 50L36 50L36 49L34 49L34 48L36 48L36 46L35 46L35 45L34 45L34 43L33 43L33 42L32 42L32 41L31 41L31 42L32 42L32 43L33 43L33 44L32 44L32 46L31 46L31 47L32 47L32 46L35 46L35 47L33 47L33 48L31 48L31 49L33 49L33 50L36 50L36 52L37 52L37 51L38 51L38 53L37 53L37 54L40 54L40 53L41 53L41 52L42 52L42 50L41 50L41 48L42 48L42 49L43 49L43 48L44 48L44 49L45 49L45 50L44 50L44 51L45 51L45 52L44 52L44 53L43 53L43 54L44 54L44 55L47 55L47 54L48 54L48 50L47 50L47 49L48 49L48 48L51 48L51 46L52 46L52 48L53 48L53 43L54 43L54 42L53 42L53 41L54 41L54 40L53 40L53 39L52 39L52 40L53 40L53 41L51 41L51 42L50 42L50 43L48 43L48 44L47 44L47 45L45 45L45 44L46 44L46 43L44 43L44 45L43 45L43 46L41 46L41 44L42 44L42 43L41 43L41 41L42 41L42 40L44 40L44 41L43 41L43 42L48 42L48 41L49 41L49 40L50 40L50 39L51 39L51 38L53 38L53 35L55 35L55 37L56 37L56 35L55 35L55 34L56 34L56 32L55 32L55 34L54 34L54 33L52 33L52 32L51 32L51 31L50 31L50 32L49 32L49 31L48 31L48 27L47 27L47 25L48 25L48 24L49 24L49 25L50 25L50 26L52 26L52 25L53 25L53 23L52 23L52 24L51 24L51 23L50 23L50 22L51 22L51 21L49 21L49 22L48 22L48 24L47 24L47 23L46 23L46 22L47 22L47 21L48 21L48 20L47 20L47 19L48 19L48 18L47 18L47 17L49 17L49 15L50 15L50 14L51 14L51 12L50 12L50 14L49 14L49 15L48 15L48 16L47 16L47 15L46 15L46 16L47 16L47 17L46 17L46 18L45 18L45 14L47 14L47 13L49 13L49 12L45 12L45 11L46 11L46 10L47 10L47 9L46 9L46 8L47 8L47 7L46 7L46 5L47 5L47 3L44 3L44 6L43 6L43 5L40 5L40 6L39 6L39 9L38 9L38 6L37 6L37 7L36 7L36 5L37 5L37 4L36 4L36 5L35 5L35 4L34 4L34 3L35 3L35 2L34 2L34 3L32 3L32 1ZM19 2L19 4L21 4L21 5L22 5L22 4L23 4L23 5L24 5L24 4L23 4L23 3L22 3L22 2ZM21 3L21 4L22 4L22 3ZM10 4L10 5L11 5L11 4ZM15 4L15 5L16 5L16 4ZM32 4L32 5L33 5L33 4ZM45 4L45 5L46 5L46 4ZM27 5L27 8L30 8L30 5ZM34 5L34 7L33 7L33 6L32 6L32 7L33 7L33 9L34 9L34 8L35 8L35 9L37 9L37 10L36 10L36 11L37 11L37 12L35 12L35 13L37 13L37 14L38 14L38 15L39 15L39 16L38 16L38 17L37 17L37 16L35 16L35 14L32 14L32 12L31 12L31 13L30 13L30 14L29 14L29 13L28 13L28 12L29 12L29 11L27 11L27 12L26 12L26 14L27 14L27 13L28 13L28 14L29 14L29 16L28 16L28 15L27 15L27 16L26 16L26 15L25 15L25 12L24 12L24 11L23 11L23 10L22 10L22 9L21 9L21 10L22 10L22 11L20 11L20 12L19 12L19 10L20 10L20 9L19 9L19 8L16 8L16 9L17 9L17 10L18 10L18 11L17 11L17 12L16 12L16 13L17 13L17 14L19 14L19 15L20 15L20 12L22 12L22 13L21 13L21 15L23 15L23 16L26 16L26 18L25 18L25 17L22 17L22 16L21 16L21 17L22 17L22 18L21 18L21 21L22 21L22 22L24 22L24 21L25 21L25 22L26 22L26 23L25 23L25 24L27 24L27 23L28 23L28 22L29 22L29 21L30 21L30 22L31 22L31 21L32 21L32 20L33 20L33 19L31 19L31 20L29 20L29 21L25 21L25 20L26 20L26 18L28 18L28 19L27 19L27 20L28 20L28 19L30 19L30 18L33 18L33 17L32 17L32 16L35 16L35 17L37 17L37 18L38 18L38 17L39 17L39 19L38 19L38 20L36 20L36 19L35 19L35 20L34 20L34 21L35 21L35 23L32 23L32 24L33 24L33 25L37 25L37 26L38 26L38 24L39 24L39 25L40 25L40 24L41 24L41 26L39 26L39 27L37 27L37 28L35 28L35 27L36 27L36 26L34 26L34 27L33 27L33 26L32 26L32 27L33 27L33 28L35 28L35 30L32 30L32 31L31 31L31 33L32 33L32 31L33 31L33 32L35 32L35 31L36 31L36 30L37 30L37 29L38 29L38 28L40 28L40 27L41 27L41 28L42 28L42 26L43 26L43 25L44 25L44 27L43 27L43 28L45 28L45 31L43 31L43 32L45 32L45 33L47 33L47 32L48 32L48 33L49 33L49 32L48 32L48 31L47 31L47 30L46 30L46 29L47 29L47 27L46 27L46 26L45 26L45 25L44 25L44 20L45 20L45 18L44 18L44 15L42 15L42 16L41 16L41 14L44 14L44 12L43 12L43 13L41 13L41 14L38 14L38 13L39 13L39 11L40 11L40 12L41 12L41 11L40 11L40 10L42 10L42 11L43 11L43 9L44 9L44 11L45 11L45 10L46 10L46 9L44 9L44 8L43 8L43 6L42 6L42 7L41 7L41 6L40 6L40 7L41 7L41 8L42 8L42 9L40 9L40 10L38 10L38 9L37 9L37 8L35 8L35 5ZM13 6L13 7L14 7L14 6ZM18 6L18 7L19 7L19 6ZM21 6L21 7L22 7L22 6ZM28 6L28 7L29 7L29 6ZM44 6L44 7L45 7L45 6ZM1 9L1 10L2 10L2 9ZM3 9L3 10L4 10L4 9ZM32 10L32 11L33 11L33 10ZM37 10L37 11L38 11L38 10ZM3 11L3 12L4 12L4 11ZM8 11L8 13L7 13L7 12L6 12L6 13L7 13L7 14L9 14L9 11ZM17 12L17 13L18 13L18 12ZM23 12L23 13L22 13L22 14L23 14L23 15L24 15L24 14L23 14L23 13L24 13L24 12ZM33 12L33 13L34 13L34 12ZM52 12L52 13L53 13L53 15L54 15L54 14L56 14L56 12L54 12L54 13L53 13L53 12ZM0 14L0 15L1 15L1 16L0 16L0 17L1 17L1 16L3 16L3 15L2 15L2 14ZM10 14L10 15L11 15L11 14ZM30 14L30 15L31 15L31 16L32 16L32 15L31 15L31 14ZM17 16L17 20L18 20L18 21L20 21L20 20L19 20L19 19L20 19L20 16ZM27 16L27 17L28 17L28 16ZM39 16L39 17L41 17L41 16ZM42 16L42 17L43 17L43 16ZM50 16L50 18L49 18L49 19L51 19L51 17L53 17L53 18L55 18L55 17L53 17L53 16ZM2 18L2 19L3 19L3 20L4 20L4 19L3 19L3 18ZM11 18L11 20L14 20L14 19L13 19L13 18ZM23 18L23 19L22 19L22 21L24 21L24 20L23 20L23 19L24 19L24 18ZM41 18L41 20L38 20L38 23L37 23L37 24L38 24L38 23L39 23L39 24L40 24L40 22L39 22L39 21L43 21L43 20L44 20L44 18L43 18L43 19L42 19L42 18ZM46 18L46 19L47 19L47 18ZM8 19L8 20L6 20L6 21L8 21L8 20L9 20L9 19ZM15 19L15 21L16 21L16 19ZM11 21L11 22L14 22L14 21ZM45 21L45 22L46 22L46 21ZM41 22L41 24L42 24L42 22ZM4 23L4 24L5 24L5 26L7 26L7 25L6 25L6 24L7 24L7 23L6 23L6 24L5 24L5 23ZM10 23L10 24L11 24L11 25L13 25L13 26L14 26L14 25L16 25L16 24L14 24L14 23L13 23L13 24L11 24L11 23ZM21 23L21 24L24 24L24 23ZM49 23L49 24L50 24L50 23ZM13 24L13 25L14 25L14 24ZM55 25L55 26L56 26L56 25ZM0 26L0 27L1 27L1 26ZM15 26L15 28L16 28L16 27L18 27L18 26ZM53 26L53 27L54 27L54 26ZM5 27L5 30L8 30L8 27ZM27 27L27 30L30 30L30 27ZM45 27L45 28L46 28L46 27ZM49 27L49 30L52 30L52 27ZM6 28L6 29L7 29L7 28ZM21 28L21 29L22 29L22 28ZM28 28L28 29L29 29L29 28ZM50 28L50 29L51 29L51 28ZM54 28L54 29L53 29L53 31L55 31L55 30L54 30L54 29L55 29L55 28ZM1 29L1 31L2 31L2 32L1 32L1 33L2 33L2 32L5 32L5 34L7 34L7 35L6 35L6 36L7 36L7 35L8 35L8 34L9 34L9 33L10 33L10 32L9 32L9 31L6 31L6 32L5 32L5 31L2 31L2 29ZM39 29L39 30L38 30L38 32L39 32L39 31L40 31L40 30L44 30L44 29ZM46 31L46 32L47 32L47 31ZM6 32L6 33L7 33L7 32ZM50 32L50 34L48 34L48 35L50 35L50 36L48 36L48 37L47 37L47 39L46 39L46 38L45 38L45 37L44 37L44 36L46 36L46 35L47 35L47 34L45 34L45 35L44 35L44 36L41 36L41 37L40 37L40 38L41 38L41 39L42 39L42 38L43 38L43 37L44 37L44 38L45 38L45 39L44 39L44 40L45 40L45 41L47 41L47 39L50 39L50 38L51 38L51 36L52 36L52 35L53 35L53 34L52 34L52 33L51 33L51 32ZM50 34L50 35L52 35L52 34ZM25 36L25 40L24 40L24 39L21 39L21 41L20 41L20 40L19 40L19 41L18 41L18 40L17 40L17 41L16 41L16 42L15 42L15 43L14 43L14 44L13 44L13 45L12 45L12 46L14 46L14 45L15 45L15 48L14 48L14 47L13 47L13 48L12 48L12 47L10 47L10 48L12 48L12 50L11 50L11 53L12 53L12 54L14 54L14 53L15 53L15 54L16 54L16 53L17 53L17 52L18 52L18 51L17 51L17 52L16 52L16 51L12 51L12 50L13 50L13 48L14 48L14 50L15 50L15 49L16 49L16 50L18 50L18 49L16 49L16 48L19 48L19 49L20 49L20 50L19 50L19 51L20 51L20 50L21 50L21 51L22 51L22 50L21 50L21 49L23 49L23 48L24 48L24 49L25 49L25 50L23 50L23 52L22 52L22 53L24 53L24 52L25 52L25 53L26 53L26 51L25 51L25 50L26 50L26 49L25 49L25 48L30 48L30 47L26 47L26 45L27 45L27 46L29 46L29 45L27 45L27 44L28 44L28 43L27 43L27 42L26 42L26 41L28 41L28 42L29 42L29 41L28 41L28 40L26 40L26 36ZM3 37L3 38L4 38L4 39L3 39L3 40L4 40L4 41L3 41L3 42L2 42L2 43L3 43L3 44L2 44L2 45L1 45L1 43L0 43L0 48L5 48L5 47L7 47L7 46L6 46L6 45L8 45L8 44L6 44L6 43L8 43L8 42L9 42L9 43L11 43L11 41L12 41L12 40L11 40L11 41L10 41L10 40L9 40L9 37L8 37L8 38L6 38L6 39L7 39L7 40L4 40L4 39L5 39L5 37ZM41 37L41 38L42 38L42 37ZM48 37L48 38L50 38L50 37ZM54 38L54 39L55 39L55 38ZM38 39L38 40L40 40L40 39ZM45 39L45 40L46 40L46 39ZM0 41L0 42L1 42L1 41ZM4 41L4 42L3 42L3 43L4 43L4 45L3 45L3 47L5 47L5 46L4 46L4 45L6 45L6 44L5 44L5 43L6 43L6 42L7 42L7 41ZM17 41L17 42L18 42L18 43L15 43L15 44L18 44L18 45L17 45L17 46L18 46L18 47L20 47L20 45L21 45L21 47L24 47L24 48L25 48L25 44L27 44L27 43L25 43L25 44L24 44L24 43L23 43L23 42L25 42L25 41L23 41L23 42L22 42L22 41L21 41L21 42L22 42L22 43L21 43L21 44L20 44L20 43L19 43L19 42L20 42L20 41L19 41L19 42L18 42L18 41ZM39 41L39 42L40 42L40 41ZM51 42L51 43L50 43L50 44L51 44L51 45L50 45L50 46L49 46L49 45L47 45L47 46L45 46L45 47L44 47L44 46L43 46L43 47L42 47L42 48L43 48L43 47L44 47L44 48L45 48L45 49L47 49L47 48L48 48L48 47L50 47L50 46L51 46L51 45L52 45L52 44L51 44L51 43L53 43L53 42ZM40 43L40 44L41 44L41 43ZM19 44L19 45L20 45L20 44ZM21 44L21 45L22 45L22 46L23 46L23 45L24 45L24 44L23 44L23 45L22 45L22 44ZM54 44L54 45L55 45L55 46L56 46L56 45L55 45L55 44ZM10 45L10 46L11 46L11 45ZM1 46L1 47L2 47L2 46ZM47 46L47 47L46 47L46 48L47 48L47 47L48 47L48 46ZM6 48L6 49L7 49L7 48ZM38 48L38 49L39 49L39 48ZM54 48L54 49L56 49L56 48ZM27 49L27 52L30 52L30 49ZM49 49L49 52L52 52L52 49ZM28 50L28 51L29 51L29 50ZM38 50L38 51L40 51L40 52L41 52L41 50ZM50 50L50 51L51 51L51 50ZM54 50L54 51L55 51L55 50ZM33 51L33 52L34 52L34 53L33 53L33 54L34 54L34 55L35 55L35 56L36 56L36 54L35 54L35 51ZM46 51L46 52L45 52L45 53L44 53L44 54L45 54L45 53L47 53L47 51ZM13 52L13 53L14 53L14 52ZM15 52L15 53L16 53L16 52ZM53 52L53 53L54 53L54 52ZM17 54L17 56L18 56L18 54ZM37 55L37 56L39 56L39 55ZM50 55L50 56L51 56L51 55ZM0 0L0 7L7 7L7 0ZM1 1L1 6L6 6L6 1ZM2 2L2 5L5 5L5 2ZM50 0L50 7L57 7L57 0ZM51 1L51 6L56 6L56 1ZM52 2L52 5L55 5L55 2ZM0 50L0 57L7 57L7 50ZM1 51L1 56L6 56L6 51ZM2 52L2 55L5 55L5 52Z" fill="#000000"/></g></g></svg>
