<?xml version="1.0" encoding="UTF-8"?>
<svg xmlns="http://www.w3.org/2000/svg" version="1.1" width="300" height="300" viewBox="0 0 300 300"><rect x="0" y="0" width="300" height="300" fill="#fefefe"/><g transform="scale(4.615)"><g transform="translate(4,4)"><path fill-rule="evenodd" d="M10 0L10 1L8 1L8 2L9 2L9 3L8 3L8 4L9 4L9 5L8 5L8 7L9 7L9 8L6 8L6 9L5 9L5 8L0 8L0 10L1 10L1 11L2 11L2 12L1 12L1 13L0 13L0 17L1 17L1 16L2 16L2 15L3 15L3 14L4 14L4 16L3 16L3 17L2 17L2 18L3 18L3 17L4 17L4 18L5 18L5 19L4 19L4 20L2 20L2 19L0 19L0 22L1 22L1 20L2 20L2 22L4 22L4 23L2 23L2 24L1 24L1 23L0 23L0 24L1 24L1 25L0 25L0 26L1 26L1 27L0 27L0 28L1 28L1 27L2 27L2 28L3 28L3 30L4 30L4 31L3 31L3 32L2 32L2 33L3 33L3 34L4 34L4 36L5 36L5 37L8 37L8 38L6 38L6 39L4 39L4 40L5 40L5 43L4 43L4 41L2 41L2 42L1 42L1 41L0 41L0 42L1 42L1 43L0 43L0 44L1 44L1 45L2 45L2 47L1 47L1 46L0 46L0 48L5 48L5 47L7 47L7 48L6 48L6 49L7 49L7 48L8 48L8 51L9 51L9 52L8 52L8 57L9 57L9 56L11 56L11 55L13 55L13 57L16 57L16 56L17 56L17 57L19 57L19 56L18 56L18 55L20 55L20 54L19 54L19 53L20 53L20 52L21 52L21 51L22 51L22 52L23 52L23 51L22 51L22 50L25 50L25 49L24 49L24 48L26 48L26 52L24 52L24 53L23 53L23 54L22 54L22 53L21 53L21 56L20 56L20 57L21 57L21 56L24 56L24 55L23 55L23 54L24 54L24 53L25 53L25 55L26 55L26 53L27 53L27 54L30 54L30 53L31 53L31 49L32 49L32 52L33 52L33 53L32 53L32 54L31 54L31 56L30 56L30 55L29 55L29 56L27 56L27 57L29 57L29 56L30 56L30 57L31 57L31 56L35 56L35 57L39 57L39 56L37 56L37 55L41 55L41 54L42 54L42 55L44 55L44 54L45 54L45 53L47 53L47 55L49 55L49 56L50 56L50 57L52 57L52 55L51 55L51 53L52 53L52 54L53 54L53 55L54 55L54 56L53 56L53 57L54 57L54 56L55 56L55 57L56 57L56 56L55 56L55 55L54 55L54 54L55 54L55 52L57 52L57 51L56 51L56 50L55 50L55 49L53 49L53 48L56 48L56 49L57 49L57 48L56 48L56 46L57 46L57 44L56 44L56 41L53 41L53 40L55 40L55 39L57 39L57 37L56 37L56 36L57 36L57 35L56 35L56 34L55 34L55 32L56 32L56 33L57 33L57 32L56 32L56 30L57 30L57 29L55 29L55 30L53 30L53 29L54 29L54 28L56 28L56 27L55 27L55 26L57 26L57 25L56 25L56 22L57 22L57 19L56 19L56 18L53 18L53 17L56 17L56 16L57 16L57 15L56 15L56 14L57 14L57 13L56 13L56 14L55 14L55 15L54 15L54 12L56 12L56 8L55 8L55 10L54 10L54 11L51 11L51 10L52 10L52 8L51 8L51 10L50 10L50 8L49 8L49 6L48 6L48 7L47 7L47 5L48 5L48 0L46 0L46 1L47 1L47 2L44 2L44 3L43 3L43 4L40 4L40 5L39 5L39 6L38 6L38 7L37 7L37 5L38 5L38 3L41 3L41 2L43 2L43 0L41 0L41 1L40 1L40 0L39 0L39 1L38 1L38 0L37 0L37 1L38 1L38 2L37 2L37 3L36 3L36 0L35 0L35 1L33 1L33 0L32 0L32 1L31 1L31 0L27 0L27 1L26 1L26 0L23 0L23 1L22 1L22 0L21 0L21 1L19 1L19 2L18 2L18 0L17 0L17 4L18 4L18 5L17 5L17 6L16 6L16 7L15 7L15 6L14 6L14 5L13 5L13 4L14 4L14 2L15 2L15 3L16 3L16 2L15 2L15 1L14 1L14 0L12 0L12 1L11 1L11 0ZM13 1L13 2L14 2L14 1ZM25 1L25 2L23 2L23 3L22 3L22 2L19 2L19 4L22 4L22 6L21 6L21 7L22 7L22 6L23 6L23 8L19 8L19 9L16 9L16 8L17 8L17 7L18 7L18 6L19 6L19 7L20 7L20 5L18 5L18 6L17 6L17 7L16 7L16 8L15 8L15 7L14 7L14 6L13 6L13 5L12 5L12 4L13 4L13 3L12 3L12 2L10 2L10 3L11 3L11 5L9 5L9 7L10 7L10 6L11 6L11 7L12 7L12 6L13 6L13 8L14 8L14 9L12 9L12 8L11 8L11 9L10 9L10 8L9 8L9 9L8 9L8 10L7 10L7 9L6 9L6 10L5 10L5 11L6 11L6 12L4 12L4 11L3 11L3 13L2 13L2 14L3 14L3 13L6 13L6 14L7 14L7 13L6 13L6 12L7 12L7 11L8 11L8 10L9 10L9 9L10 9L10 11L9 11L9 12L10 12L10 13L13 13L13 14L12 14L12 17L13 17L13 18L12 18L12 19L14 19L14 20L13 20L13 21L14 21L14 22L12 22L12 24L11 24L11 22L9 22L9 20L7 20L7 19L6 19L6 20L5 20L5 21L6 21L6 22L5 22L5 24L4 24L4 26L3 26L3 25L2 25L2 27L4 27L4 26L7 26L7 25L6 25L6 24L9 24L9 23L10 23L10 24L11 24L11 25L8 25L8 26L9 26L9 27L10 27L10 28L12 28L12 29L16 29L16 30L17 30L17 31L20 31L20 32L19 32L19 33L20 33L20 34L18 34L18 33L16 33L16 32L15 32L15 33L16 33L16 34L15 34L15 35L17 35L17 36L15 36L15 37L16 37L16 38L15 38L15 39L16 39L16 41L15 41L15 42L14 42L14 40L13 40L13 39L14 39L14 38L13 38L13 37L12 37L12 35L13 35L13 33L14 33L14 30L12 30L12 31L5 31L5 32L7 32L7 33L5 33L5 36L8 36L8 37L9 37L9 38L8 38L8 39L6 39L6 40L8 40L8 41L9 41L9 42L10 42L10 43L9 43L9 44L8 44L8 43L6 43L6 44L5 44L5 45L3 45L3 47L5 47L5 46L7 46L7 47L8 47L8 45L9 45L9 44L10 44L10 43L12 43L12 42L14 42L14 44L13 44L13 45L15 45L15 46L17 46L17 45L18 45L18 44L17 44L17 45L16 45L16 43L15 43L15 42L17 42L17 43L18 43L18 42L19 42L19 41L20 41L20 43L22 43L22 42L24 42L24 43L23 43L23 44L24 44L24 45L25 45L25 46L23 46L23 45L22 45L22 44L21 44L21 45L20 45L20 44L19 44L19 45L20 45L20 46L19 46L19 48L20 48L20 50L21 50L21 49L23 49L23 47L26 47L26 48L28 48L28 46L30 46L30 45L33 45L33 46L32 46L32 47L31 47L31 48L32 48L32 49L33 49L33 52L34 52L34 53L33 53L33 54L35 54L35 56L36 56L36 54L35 54L35 50L36 50L36 52L37 52L37 51L38 51L38 53L37 53L37 54L40 54L40 53L42 53L42 50L41 50L41 48L42 48L42 49L43 49L43 48L44 48L44 49L45 49L45 50L44 50L44 51L45 51L45 52L44 52L44 53L43 53L43 54L44 54L44 53L45 53L45 52L46 52L46 51L47 51L47 53L48 53L48 50L47 50L47 49L48 49L48 48L49 48L49 47L48 47L48 46L50 46L50 48L52 48L52 47L53 47L53 43L54 43L54 42L53 42L53 41L51 41L51 42L50 42L50 43L48 43L48 44L47 44L47 45L45 45L45 44L46 44L46 43L47 43L47 42L48 42L48 41L49 41L49 40L50 40L50 39L51 39L51 38L53 38L53 39L52 39L52 40L53 40L53 39L54 39L54 38L53 38L53 35L55 35L55 36L56 36L56 35L55 35L55 34L54 34L54 33L52 33L52 32L51 32L51 31L48 31L48 29L46 29L46 30L47 30L47 31L48 31L48 32L46 32L46 31L45 31L45 28L46 28L46 27L47 27L47 28L48 28L48 27L47 27L47 25L48 25L48 24L49 24L49 25L50 25L50 26L51 26L51 25L52 25L52 26L53 26L53 27L54 27L54 26L53 26L53 25L54 25L54 24L49 24L49 23L50 23L50 22L51 22L51 21L53 21L53 23L55 23L55 22L56 22L56 19L55 19L55 20L53 20L53 19L52 19L52 18L51 18L51 17L53 17L53 15L52 15L52 16L51 16L51 15L50 15L50 14L51 14L51 12L50 12L50 10L48 10L48 11L49 11L49 12L45 12L45 11L46 11L46 10L47 10L47 9L46 9L46 8L47 8L47 7L46 7L46 5L47 5L47 3L44 3L44 6L43 6L43 7L42 7L42 5L40 5L40 6L39 6L39 7L40 7L40 8L38 8L38 10L37 10L37 9L35 9L35 8L37 8L37 7L36 7L36 5L37 5L37 4L36 4L36 5L35 5L35 2L33 2L33 3L32 3L32 2L30 2L30 1L29 1L29 3L28 3L28 1L27 1L27 2L26 2L26 1ZM23 3L23 4L24 4L24 5L23 5L23 6L24 6L24 8L23 8L23 9L24 9L24 10L25 10L25 12L26 12L26 13L28 13L28 14L29 14L29 16L28 16L28 15L27 15L27 16L28 16L28 17L26 17L26 15L25 15L25 13L23 13L23 12L24 12L24 11L23 11L23 10L22 10L22 9L21 9L21 10L22 10L22 11L20 11L20 9L19 9L19 10L18 10L18 11L15 11L15 10L16 10L16 9L15 9L15 10L11 10L11 11L10 11L10 12L12 12L12 11L14 11L14 12L13 12L13 13L15 13L15 14L13 14L13 15L14 15L14 16L13 16L13 17L14 17L14 18L15 18L15 17L17 17L17 19L15 19L15 21L16 21L16 22L15 22L15 23L16 23L16 24L14 24L14 23L13 23L13 25L11 25L11 26L10 26L10 27L12 27L12 28L14 28L14 27L15 27L15 26L14 26L14 27L13 27L13 25L16 25L16 24L17 24L17 25L19 25L19 26L20 26L20 27L19 27L19 28L20 28L20 27L22 27L22 26L23 26L23 28L26 28L26 29L23 29L23 30L24 30L24 32L25 32L25 33L23 33L23 34L24 34L24 36L23 36L23 35L21 35L21 34L22 34L22 33L21 33L21 34L20 34L20 36L23 36L23 37L24 37L24 38L21 38L21 37L19 37L19 36L17 36L17 38L18 38L18 39L17 39L17 40L18 40L18 41L17 41L17 42L18 42L18 41L19 41L19 40L23 40L23 41L24 41L24 42L25 42L25 41L24 41L24 40L25 40L25 36L26 36L26 40L28 40L28 39L27 39L27 38L28 38L28 37L27 37L27 34L26 34L26 35L25 35L25 33L26 33L26 32L27 32L27 31L29 31L29 32L28 32L28 33L29 33L29 34L30 34L30 36L29 36L29 37L31 37L31 38L29 38L29 39L33 39L33 40L35 40L35 42L37 42L37 43L34 43L34 42L33 42L33 41L32 41L32 40L29 40L29 43L28 43L28 44L27 44L27 43L24 43L24 44L27 44L27 45L26 45L26 47L27 47L27 45L28 45L28 44L29 44L29 43L30 43L30 44L33 44L33 43L34 43L34 45L37 45L37 46L36 46L36 48L34 48L34 47L35 47L35 46L33 46L33 47L32 47L32 48L34 48L34 49L36 49L36 50L38 50L38 51L40 51L40 52L41 52L41 50L38 50L38 49L39 49L39 48L41 48L41 46L43 46L43 47L42 47L42 48L43 48L43 47L44 47L44 48L46 48L46 47L47 47L47 48L48 48L48 47L47 47L47 46L45 46L45 45L44 45L44 43L45 43L45 41L44 41L44 40L47 40L47 39L48 39L48 38L49 38L49 39L50 39L50 38L51 38L51 37L52 37L52 35L53 35L53 34L52 34L52 33L51 33L51 32L50 32L50 34L48 34L48 35L47 35L47 34L45 34L45 33L46 33L46 32L45 32L45 31L43 31L43 32L41 32L41 33L39 33L39 34L40 34L40 35L39 35L39 36L38 36L38 33L37 33L37 32L33 32L33 34L34 34L34 36L33 36L33 35L31 35L31 34L32 34L32 31L31 31L31 29L32 29L32 30L33 30L33 31L35 31L35 30L37 30L37 29L38 29L38 28L40 28L40 27L41 27L41 28L42 28L42 27L41 27L41 26L43 26L43 28L45 28L45 26L44 26L44 20L45 20L45 19L47 19L47 18L49 18L49 20L47 20L47 22L46 22L46 21L45 21L45 22L46 22L46 23L49 23L49 21L51 21L51 20L52 20L52 19L50 19L50 17L47 17L47 18L44 18L44 15L42 15L42 16L41 16L41 15L39 15L39 14L43 14L43 13L44 13L44 14L45 14L45 17L46 17L46 16L48 16L48 15L49 15L49 16L50 16L50 15L49 15L49 14L50 14L50 12L49 12L49 13L47 13L47 14L45 14L45 13L44 13L44 11L45 11L45 10L44 10L44 8L46 8L46 7L45 7L45 6L44 6L44 7L43 7L43 9L41 9L41 10L39 10L39 11L37 11L37 10L36 10L36 12L35 12L35 14L32 14L32 12L33 12L33 13L34 13L34 12L33 12L33 10L32 10L32 8L31 8L31 4L32 4L32 5L34 5L34 7L33 7L33 6L32 6L32 7L33 7L33 9L34 9L34 8L35 8L35 5L34 5L34 4L32 4L32 3L31 3L31 4L26 4L26 3ZM15 4L15 5L16 5L16 4ZM25 4L25 8L24 8L24 9L25 9L25 8L26 8L26 4ZM45 4L45 5L46 5L46 4ZM11 5L11 6L12 6L12 5ZM27 5L27 8L30 8L30 5ZM28 6L28 7L29 7L29 6ZM40 6L40 7L41 7L41 6ZM48 8L48 9L49 9L49 8ZM53 8L53 9L54 9L54 8ZM1 9L1 10L3 10L3 9ZM28 9L28 10L27 10L27 11L26 11L26 12L27 12L27 11L28 11L28 10L29 10L29 9ZM6 10L6 11L7 11L7 10ZM31 10L31 11L29 11L29 12L28 12L28 13L29 13L29 14L30 14L30 15L31 15L31 16L32 16L32 17L31 17L31 18L30 18L30 19L28 19L28 18L27 18L27 19L26 19L26 20L25 20L25 21L24 21L24 20L21 20L21 19L19 19L19 20L20 20L20 21L19 21L19 22L18 22L18 21L17 21L17 20L16 20L16 21L17 21L17 24L19 24L19 25L20 25L20 26L22 26L22 25L24 25L24 24L25 24L25 25L26 25L26 26L25 26L25 27L26 27L26 26L29 26L29 24L30 24L30 22L29 22L29 21L31 21L31 24L32 24L32 26L31 26L31 27L32 27L32 29L33 29L33 30L35 30L35 28L33 28L33 27L34 27L34 26L36 26L36 27L39 27L39 26L41 26L41 25L43 25L43 22L41 22L41 24L40 24L40 22L39 22L39 21L42 21L42 20L38 20L38 22L37 22L37 24L39 24L39 25L38 25L38 26L37 26L37 25L33 25L33 24L32 24L32 23L33 23L33 22L34 22L34 23L35 23L35 19L36 19L36 20L37 20L37 19L39 19L39 17L41 17L41 16L39 16L39 15L38 15L38 14L39 14L39 13L43 13L43 11L44 11L44 10L43 10L43 11L42 11L42 10L41 10L41 12L39 12L39 13L38 13L38 14L37 14L37 13L36 13L36 14L37 14L37 15L35 15L35 16L32 16L32 14L30 14L30 13L31 13L31 11L32 11L32 10ZM19 11L19 13L20 13L20 14L19 14L19 15L18 15L18 14L17 14L17 13L18 13L18 12L17 12L17 13L16 13L16 12L15 12L15 13L16 13L16 16L17 16L17 17L18 17L18 18L19 18L19 17L20 17L20 18L22 18L22 17L25 17L25 18L26 18L26 17L25 17L25 16L23 16L23 15L20 15L20 14L21 14L21 13L22 13L22 14L23 14L23 13L22 13L22 12L20 12L20 11ZM52 12L52 13L53 13L53 12ZM9 14L9 15L5 15L5 17L6 17L6 18L11 18L11 17L6 17L6 16L10 16L10 15L11 15L11 14ZM14 16L14 17L15 17L15 16ZM18 16L18 17L19 17L19 16ZM20 16L20 17L22 17L22 16ZM35 16L35 17L37 17L37 18L38 18L38 17L39 17L39 16L38 16L38 17L37 17L37 16ZM42 16L42 17L43 17L43 16ZM32 17L32 19L31 19L31 21L32 21L32 20L33 20L33 17ZM23 18L23 19L24 19L24 18ZM41 18L41 19L42 19L42 18ZM43 18L43 20L44 20L44 18ZM10 19L10 20L11 20L11 21L12 21L12 20L11 20L11 19ZM27 19L27 20L28 20L28 19ZM6 20L6 21L7 21L7 22L6 22L6 23L7 23L7 22L8 22L8 21L7 21L7 20ZM21 21L21 22L22 22L22 21ZM23 21L23 22L24 22L24 21ZM25 21L25 22L26 22L26 23L25 23L25 24L29 24L29 23L27 23L27 22L28 22L28 21ZM19 22L19 23L20 23L20 22ZM23 23L23 24L24 24L24 23ZM20 24L20 25L21 25L21 24ZM46 24L46 25L47 25L47 24ZM16 26L16 27L18 27L18 26ZM32 26L32 27L33 27L33 26ZM5 27L5 30L8 30L8 27ZM27 27L27 30L30 30L30 27ZM49 27L49 30L52 30L52 27ZM6 28L6 29L7 29L7 28ZM16 28L16 29L18 29L18 30L20 30L20 29L18 29L18 28ZM21 28L21 29L22 29L22 28ZM28 28L28 29L29 29L29 28ZM50 28L50 29L51 29L51 28ZM0 29L0 30L2 30L2 29ZM39 29L39 30L38 30L38 32L39 32L39 31L41 31L41 30L44 30L44 29ZM12 31L12 32L9 32L9 33L10 33L10 35L9 35L9 36L11 36L11 35L12 35L12 32L13 32L13 31ZM21 31L21 32L23 32L23 31ZM25 31L25 32L26 32L26 31ZM30 31L30 32L29 32L29 33L31 33L31 31ZM43 32L43 33L45 33L45 32ZM48 32L48 33L49 33L49 32ZM34 33L34 34L35 34L35 36L37 36L37 34L35 34L35 33ZM0 34L0 35L1 35L1 38L0 38L0 40L1 40L1 39L3 39L3 38L4 38L4 37L3 37L3 35L1 35L1 34ZM6 34L6 35L7 35L7 34ZM42 34L42 35L41 35L41 36L40 36L40 37L38 37L38 39L35 39L35 37L33 37L33 36L32 36L32 37L33 37L33 38L34 38L34 39L35 39L35 40L38 40L38 42L39 42L39 43L41 43L41 44L39 44L39 45L38 45L38 46L39 46L39 47L38 47L38 48L37 48L37 49L38 49L38 48L39 48L39 47L40 47L40 46L41 46L41 44L42 44L42 43L41 43L41 38L42 38L42 40L44 40L44 39L45 39L45 38L46 38L46 39L47 39L47 37L48 37L48 36L50 36L50 37L49 37L49 38L50 38L50 37L51 37L51 36L50 36L50 35L52 35L52 34L50 34L50 35L48 35L48 36L47 36L47 35L45 35L45 34ZM42 35L42 36L41 36L41 37L40 37L40 38L41 38L41 37L42 37L42 38L43 38L43 37L44 37L44 38L45 38L45 37L46 37L46 36L45 36L45 35L44 35L44 36L43 36L43 35ZM42 36L42 37L43 37L43 36ZM44 36L44 37L45 37L45 36ZM2 37L2 38L3 38L3 37ZM11 37L11 38L9 38L9 39L8 39L8 40L10 40L10 39L11 39L11 40L12 40L12 37ZM19 38L19 39L18 39L18 40L19 40L19 39L20 39L20 38ZM23 39L23 40L24 40L24 39ZM38 39L38 40L40 40L40 39ZM6 41L6 42L7 42L7 41ZM10 41L10 42L12 42L12 41ZM26 41L26 42L27 42L27 41ZM30 41L30 42L32 42L32 43L33 43L33 42L32 42L32 41ZM39 41L39 42L40 42L40 41ZM43 41L43 42L44 42L44 41ZM2 42L2 43L1 43L1 44L4 44L4 43L3 43L3 42ZM51 42L51 43L50 43L50 44L48 44L48 45L50 45L50 46L51 46L51 47L52 47L52 46L51 46L51 43L53 43L53 42ZM6 44L6 45L8 45L8 44ZM11 44L11 46L12 46L12 47L9 47L9 50L10 50L10 51L12 51L12 50L13 50L13 49L12 49L12 47L13 47L13 46L12 46L12 44ZM54 44L54 45L55 45L55 46L56 46L56 45L55 45L55 44ZM21 45L21 47L20 47L20 48L21 48L21 47L23 47L23 46L22 46L22 45ZM44 46L44 47L45 47L45 46ZM14 47L14 48L15 48L15 47ZM29 47L29 48L30 48L30 47ZM10 48L10 50L12 50L12 49L11 49L11 48ZM14 49L14 50L15 50L15 51L16 51L16 53L14 53L14 54L16 54L16 53L17 53L17 52L18 52L18 51L16 51L16 50L19 50L19 49ZM27 49L27 52L30 52L30 49ZM49 49L49 52L52 52L52 49ZM28 50L28 51L29 51L29 50ZM50 50L50 51L51 51L51 50ZM54 50L54 51L55 51L55 50ZM13 51L13 52L12 52L12 53L11 53L11 52L10 52L10 54L9 54L9 55L10 55L10 54L12 54L12 53L13 53L13 52L14 52L14 51ZM19 51L19 52L20 52L20 51ZM53 52L53 53L54 53L54 52ZM17 54L17 55L18 55L18 54ZM14 55L14 56L16 56L16 55ZM50 55L50 56L51 56L51 55ZM25 56L25 57L26 57L26 56ZM41 56L41 57L44 57L44 56ZM45 56L45 57L46 57L46 56ZM0 0L0 7L7 7L7 0ZM1 1L1 6L6 6L6 1ZM2 2L2 5L5 5L5 2ZM50 0L50 7L57 7L57 0ZM51 1L51 6L56 6L56 1ZM52 2L52 5L55 5L55 2ZM0 50L0 57L7 57L7 50ZM1 51L1 56L6 56L6 51ZM2 52L2 55L5 55L5 52Z" fill="#000000"/></g></g></svg>
