<?xml version="1.0" encoding="UTF-8"?>
<svg xmlns="http://www.w3.org/2000/svg" version="1.1" width="300" height="300" viewBox="0 0 300 300"><rect x="0" y="0" width="300" height="300" fill="#fefefe"/><g transform="scale(4.615)"><g transform="translate(4,4)"><path fill-rule="evenodd" d="M8 0L8 1L9 1L9 0ZM10 0L10 1L11 1L11 0ZM12 0L12 1L13 1L13 0ZM14 0L14 1L15 1L15 2L16 2L16 3L17 3L17 5L15 5L15 4L14 4L14 3L12 3L12 2L8 2L8 5L9 5L9 6L8 6L8 7L9 7L9 6L10 6L10 7L11 7L11 11L10 11L10 9L9 9L9 8L8 8L8 9L7 9L7 8L6 8L6 9L5 9L5 10L4 10L4 11L1 11L1 12L0 12L0 13L1 13L1 14L3 14L3 15L0 15L0 17L2 17L2 19L4 19L4 20L5 20L5 22L3 22L3 23L2 23L2 21L3 21L3 20L2 20L2 21L1 21L1 20L0 20L0 21L1 21L1 22L0 22L0 23L1 23L1 24L0 24L0 25L1 25L1 24L3 24L3 25L2 25L2 26L4 26L4 27L3 27L3 28L4 28L4 29L2 29L2 28L0 28L0 33L1 33L1 32L2 32L2 33L3 33L3 34L1 34L1 35L0 35L0 39L2 39L2 40L1 40L1 42L2 42L2 43L1 43L1 44L2 44L2 43L3 43L3 42L2 42L2 41L4 41L4 42L5 42L5 43L4 43L4 44L3 44L3 45L2 45L2 47L1 47L1 46L0 46L0 48L5 48L5 47L7 47L7 48L6 48L6 49L7 49L7 48L8 48L8 50L10 50L10 51L9 51L9 53L8 53L8 57L11 57L11 56L13 56L13 57L14 57L14 56L15 56L15 57L18 57L18 55L20 55L20 56L19 56L19 57L23 57L23 54L25 54L25 55L24 55L24 56L25 56L25 55L26 55L26 56L28 56L28 55L26 55L26 54L25 54L25 53L29 53L29 54L31 54L31 55L30 55L30 56L31 56L31 57L32 57L32 55L33 55L33 54L36 54L36 55L34 55L34 56L33 56L33 57L36 57L36 55L38 55L38 57L41 57L41 54L42 54L42 57L43 57L43 55L44 55L44 56L45 56L45 55L46 55L46 56L47 56L47 55L49 55L49 56L48 56L48 57L51 57L51 54L52 54L52 53L53 53L53 56L52 56L52 57L55 57L55 56L54 56L54 55L55 55L55 54L56 54L56 53L57 53L57 51L55 51L55 50L53 50L53 49L55 49L55 48L54 48L54 46L52 46L52 47L51 47L51 46L49 46L49 47L47 47L47 46L48 46L48 45L47 45L47 46L46 46L46 47L45 47L45 45L42 45L42 43L44 43L44 44L49 44L49 45L50 45L50 44L49 44L49 43L50 43L50 42L51 42L51 44L52 44L52 45L55 45L55 44L56 44L56 46L55 46L55 47L57 47L57 43L56 43L56 42L54 42L54 40L55 40L55 39L53 39L53 38L52 38L52 37L50 37L50 36L51 36L51 35L52 35L52 36L53 36L53 37L55 37L55 38L56 38L56 39L57 39L57 38L56 38L56 37L57 37L57 36L54 36L54 35L57 35L57 34L55 34L55 33L57 33L57 31L56 31L56 30L57 30L57 28L56 28L56 24L54 24L54 23L53 23L53 22L54 22L54 21L55 21L55 20L54 20L54 21L53 21L53 20L50 20L50 18L49 18L49 19L47 19L47 20L46 20L46 19L45 19L45 18L48 18L48 17L49 17L49 16L48 16L48 14L47 14L47 15L45 15L45 16L44 16L44 15L43 15L43 14L46 14L46 13L44 13L44 10L45 10L45 11L48 11L48 12L49 12L49 15L50 15L50 16L51 16L51 17L52 17L52 16L55 16L55 17L54 17L54 18L51 18L51 19L55 19L55 17L56 17L56 18L57 18L57 15L54 15L54 14L53 14L53 13L54 13L54 10L53 10L53 13L52 13L52 12L51 12L51 11L50 11L50 10L49 10L49 9L50 9L50 8L49 8L49 9L47 9L47 10L45 10L45 9L46 9L46 8L45 8L45 6L46 6L46 7L47 7L47 5L48 5L48 0L45 0L45 1L44 1L44 2L41 2L41 1L43 1L43 0L41 0L41 1L40 1L40 0L39 0L39 1L40 1L40 2L41 2L41 4L39 4L39 2L37 2L37 1L38 1L38 0L37 0L37 1L36 1L36 0L35 0L35 1L34 1L34 2L35 2L35 4L36 4L36 5L40 5L40 7L41 7L41 4L43 4L43 5L42 5L42 7L43 7L43 5L45 5L45 6L44 6L44 8L45 8L45 9L44 9L44 10L43 10L43 9L41 9L41 8L38 8L38 7L39 7L39 6L38 6L38 7L37 7L37 6L36 6L36 7L35 7L35 6L34 6L34 4L33 4L33 6L32 6L32 5L31 5L31 4L32 4L32 3L33 3L33 2L32 2L32 1L33 1L33 0L32 0L32 1L31 1L31 0L29 0L29 1L28 1L28 3L29 3L29 2L30 2L30 3L31 3L31 4L26 4L26 0L23 0L23 1L25 1L25 2L24 2L24 3L23 3L23 2L22 2L22 0L21 0L21 2L20 2L20 1L19 1L19 2L18 2L18 3L17 3L17 2L16 2L16 1L15 1L15 0ZM17 0L17 1L18 1L18 0ZM35 1L35 2L36 2L36 1ZM45 1L45 3L44 3L44 4L45 4L45 5L47 5L47 3L46 3L46 2L47 2L47 1ZM9 3L9 5L12 5L12 3L11 3L11 4L10 4L10 3ZM19 3L19 4L18 4L18 5L19 5L19 4L20 4L20 5L21 5L21 4L23 4L23 3ZM37 3L37 4L38 4L38 3ZM13 4L13 5L14 5L14 4ZM24 4L24 6L23 6L23 7L22 7L22 6L21 6L21 7L20 7L20 6L19 6L19 7L20 7L20 10L18 10L18 9L19 9L19 8L18 8L18 6L17 6L17 7L16 7L16 6L15 6L15 8L13 8L13 7L14 7L14 6L13 6L13 7L12 7L12 6L11 6L11 7L12 7L12 9L13 9L13 10L12 10L12 11L11 11L11 12L9 12L9 11L8 11L8 10L7 10L7 9L6 9L6 10L5 10L5 13L6 13L6 14L7 14L7 13L8 13L8 14L9 14L9 15L8 15L8 16L7 16L7 15L6 15L6 16L5 16L5 15L4 15L4 19L6 19L6 20L8 20L8 21L6 21L6 22L5 22L5 26L9 26L9 25L10 25L10 22L9 22L9 24L8 24L8 23L6 23L6 22L8 22L8 21L11 21L11 19L12 19L12 20L13 20L13 19L16 19L16 20L14 20L14 23L13 23L13 21L12 21L12 22L11 22L11 23L12 23L12 24L11 24L11 27L9 27L9 31L8 31L8 32L7 32L7 31L6 31L6 32L7 32L7 33L5 33L5 32L4 32L4 34L3 34L3 35L1 35L1 38L2 38L2 39L4 39L4 41L5 41L5 42L7 42L7 43L5 43L5 44L4 44L4 45L3 45L3 47L5 47L5 46L8 46L8 47L9 47L9 49L10 49L10 50L11 50L11 53L10 53L10 55L9 55L9 56L11 56L11 53L12 53L12 50L13 50L13 51L14 51L14 52L15 52L15 53L13 53L13 54L14 54L14 55L13 55L13 56L14 56L14 55L15 55L15 53L16 53L16 54L17 54L17 53L18 53L18 54L19 54L19 52L20 52L20 51L21 51L21 52L22 52L22 53L20 53L20 55L21 55L21 56L22 56L22 54L23 54L23 52L24 52L24 53L25 53L25 52L26 52L26 48L28 48L28 47L30 47L30 48L31 48L31 50L33 50L33 52L35 52L35 53L36 53L36 54L39 54L39 53L37 53L37 52L40 52L40 54L41 54L41 53L42 53L42 54L43 54L43 53L42 53L42 51L45 51L45 49L46 49L46 50L47 50L47 52L48 52L48 48L44 48L44 50L43 50L43 47L39 47L39 45L40 45L40 44L39 44L39 43L38 43L38 44L37 44L37 42L41 42L41 43L42 43L42 42L43 42L43 41L42 41L42 42L41 42L41 40L42 40L42 39L41 39L41 40L40 40L40 41L37 41L37 40L38 40L38 39L39 39L39 38L37 38L37 37L39 37L39 36L40 36L40 37L41 37L41 36L42 36L42 34L41 34L41 35L37 35L37 37L34 37L34 38L33 38L33 36L36 36L36 35L35 35L35 31L34 31L34 33L33 33L33 30L32 30L32 29L31 29L31 34L30 34L30 35L29 35L29 33L30 33L30 31L29 31L29 32L28 32L28 31L25 31L25 30L26 30L26 28L25 28L25 25L27 25L27 24L26 24L26 23L28 23L28 26L29 26L29 24L31 24L31 23L32 23L32 22L34 22L34 23L33 23L33 24L32 24L32 25L33 25L33 24L35 24L35 23L36 23L36 24L37 24L37 23L38 23L38 24L39 24L39 26L38 26L38 27L40 27L40 29L38 29L38 30L37 30L37 27L36 27L36 28L34 28L34 29L36 29L36 31L37 31L37 32L36 32L36 33L37 33L37 32L38 32L38 34L39 34L39 31L38 31L38 30L40 30L40 32L41 32L41 31L44 31L44 33L45 33L45 34L46 34L46 35L47 35L47 34L50 34L50 33L49 33L49 32L48 32L48 29L47 29L47 31L46 31L46 32L45 32L45 31L44 31L44 30L46 30L46 26L49 26L49 25L52 25L52 26L53 26L53 27L55 27L55 25L54 25L54 24L51 24L51 23L52 23L52 22L51 22L51 21L50 21L50 20L48 20L48 21L49 21L49 22L47 22L47 21L46 21L46 22L47 22L47 23L44 23L44 25L42 25L42 26L44 26L44 25L45 25L45 24L46 24L46 26L45 26L45 29L44 29L44 28L43 28L43 27L42 27L42 28L43 28L43 29L42 29L42 30L41 30L41 24L43 24L43 22L41 22L41 23L38 23L38 22L39 22L39 21L38 21L38 22L35 22L35 20L36 20L36 21L37 21L37 20L40 20L40 19L39 19L39 18L41 18L41 20L42 20L42 21L44 21L44 22L45 22L45 19L44 19L44 18L45 18L45 17L46 17L46 16L45 16L45 17L42 17L42 14L43 14L43 12L42 12L42 11L43 11L43 10L41 10L41 9L38 9L38 10L41 10L41 11L40 11L40 12L39 12L39 13L40 13L40 15L41 15L41 16L40 16L40 17L39 17L39 15L36 15L36 14L35 14L35 12L38 12L38 11L37 11L37 8L36 8L36 9L34 9L34 6L33 6L33 8L32 8L32 6L31 6L31 9L32 9L32 10L29 10L29 9L27 9L27 10L26 10L26 11L25 11L25 10L23 10L23 11L21 11L21 8L23 8L23 7L24 7L24 9L26 9L26 6L25 6L25 5L26 5L26 4ZM27 5L27 8L30 8L30 5ZM24 6L24 7L25 7L25 6ZM28 6L28 7L29 7L29 6ZM48 6L48 7L49 7L49 6ZM0 8L0 10L3 10L3 9L4 9L4 8ZM15 8L15 9L16 9L16 8ZM17 8L17 9L18 9L18 8ZM52 8L52 9L55 9L55 8ZM56 8L56 9L57 9L57 8ZM6 10L6 11L7 11L7 12L6 12L6 13L7 13L7 12L8 12L8 13L9 13L9 12L8 12L8 11L7 11L7 10ZM13 10L13 11L12 11L12 13L11 13L11 14L10 14L10 15L9 15L9 18L8 18L8 17L7 17L7 16L6 16L6 17L5 17L5 18L6 18L6 19L7 19L7 18L8 18L8 20L9 20L9 19L10 19L10 18L12 18L12 19L13 19L13 18L15 18L15 17L16 17L16 18L17 18L17 16L16 16L16 15L17 15L17 14L16 14L16 15L15 15L15 12L16 12L16 13L17 13L17 12L18 12L18 13L19 13L19 15L18 15L18 16L20 16L20 17L21 17L21 19L20 19L20 20L21 20L21 22L19 22L19 21L18 21L18 19L17 19L17 20L16 20L16 23L15 23L15 26L16 26L16 27L19 27L19 26L22 26L22 27L23 27L23 28L24 28L24 26L23 26L23 25L22 25L22 23L21 23L21 22L22 22L22 21L23 21L23 24L24 24L24 25L25 25L25 22L28 22L28 23L29 23L29 22L31 22L31 21L29 21L29 20L27 20L27 17L29 17L29 18L28 18L28 19L30 19L30 20L32 20L32 18L31 18L31 19L30 19L30 17L29 17L29 16L31 16L31 17L33 17L33 18L35 18L35 17L34 17L34 16L35 16L35 15L33 15L33 14L34 14L34 12L35 12L35 11L36 11L36 10L35 10L35 11L34 11L34 10L33 10L33 11L30 11L30 12L31 12L31 14L30 14L30 13L28 13L28 12L26 12L26 13L25 13L25 11L23 11L23 12L22 12L22 13L25 13L25 15L23 15L23 18L22 18L22 17L21 17L21 15L20 15L20 14L21 14L21 13L20 13L20 12L21 12L21 11L19 11L19 12L18 12L18 10L17 10L17 11L16 11L16 10L15 10L15 11L14 11L14 10ZM28 10L28 11L29 11L29 10ZM48 10L48 11L49 11L49 10ZM55 10L55 11L57 11L57 10ZM3 12L3 13L4 13L4 12ZM32 12L32 13L33 13L33 12ZM50 12L50 13L51 13L51 15L53 15L53 14L52 14L52 13L51 13L51 12ZM55 12L55 13L56 13L56 12ZM13 13L13 14L11 14L11 17L12 17L12 16L14 16L14 13ZM26 14L26 16L27 16L27 14ZM28 15L28 16L29 16L29 15ZM31 15L31 16L32 16L32 15ZM6 17L6 18L7 18L7 17ZM24 17L24 18L23 18L23 19L21 19L21 20L23 20L23 21L24 21L24 22L25 22L25 19L26 19L26 18L25 18L25 17ZM36 17L36 18L37 18L37 17ZM41 17L41 18L42 18L42 20L43 20L43 18L42 18L42 17ZM0 18L0 19L1 19L1 18ZM24 18L24 19L25 19L25 18ZM34 19L34 20L35 20L35 19ZM36 19L36 20L37 20L37 19ZM26 20L26 21L27 21L27 20ZM56 20L56 22L55 22L55 23L57 23L57 20ZM17 21L17 23L16 23L16 26L19 26L19 25L17 25L17 24L19 24L19 22L18 22L18 21ZM20 23L20 24L21 24L21 23ZM47 23L47 24L48 24L48 25L49 25L49 24L50 24L50 23ZM6 24L6 25L7 25L7 24ZM12 25L12 30L11 30L11 28L10 28L10 31L9 31L9 32L8 32L8 33L7 33L7 34L6 34L6 35L5 35L5 34L4 34L4 35L3 35L3 36L4 36L4 38L5 38L5 40L6 40L6 41L7 41L7 40L6 40L6 39L9 39L9 37L10 37L10 36L11 36L11 38L12 38L12 39L11 39L11 40L12 40L12 41L11 41L11 44L12 44L12 46L10 46L10 45L9 45L9 44L10 44L10 43L9 43L9 42L8 42L8 43L9 43L9 44L5 44L5 45L4 45L4 46L5 46L5 45L9 45L9 46L10 46L10 48L11 48L11 50L12 50L12 48L11 48L11 47L13 47L13 48L14 48L14 51L15 51L15 52L19 52L19 50L21 50L21 51L22 51L22 52L23 52L23 49L24 49L24 48L23 48L23 47L25 47L25 48L26 48L26 47L25 47L25 45L26 45L26 46L27 46L27 47L28 47L28 46L27 46L27 45L26 45L26 43L25 43L25 44L23 44L23 42L24 42L24 41L25 41L25 42L29 42L29 43L28 43L28 44L31 44L31 47L32 47L32 48L33 48L33 50L34 50L34 51L35 51L35 52L36 52L36 51L39 51L39 50L40 50L40 49L39 49L39 48L38 48L38 49L37 49L37 48L35 48L35 50L34 50L34 48L33 48L33 46L32 46L32 42L33 42L33 45L34 45L34 44L35 44L35 46L34 46L34 47L35 47L35 46L36 46L36 43L34 43L34 42L36 42L36 41L34 41L34 40L35 40L35 39L36 39L36 38L34 38L34 39L33 39L33 38L32 38L32 36L33 36L33 35L34 35L34 34L33 34L33 33L32 33L32 34L31 34L31 35L32 35L32 36L29 36L29 35L28 35L28 34L25 34L25 33L28 33L28 32L24 32L24 29L21 29L21 27L20 27L20 29L21 29L21 30L20 30L20 31L19 31L19 30L17 30L17 28L14 28L14 29L13 29L13 25ZM30 25L30 26L31 26L31 25ZM34 25L34 27L35 27L35 25ZM0 26L0 27L1 27L1 26ZM5 27L5 30L8 30L8 27ZM27 27L27 30L30 30L30 27ZM32 27L32 28L33 28L33 27ZM49 27L49 30L52 30L52 27ZM6 28L6 29L7 29L7 28ZM18 28L18 29L19 29L19 28ZM28 28L28 29L29 29L29 28ZM50 28L50 29L51 29L51 28ZM53 28L53 32L52 32L52 31L50 31L50 32L52 32L52 34L54 34L54 33L55 33L55 30L56 30L56 29L54 29L54 28ZM14 29L14 30L13 30L13 31L14 31L14 32L13 32L13 33L12 33L12 31L11 31L11 32L9 32L9 33L8 33L8 35L9 35L9 36L8 36L8 37L6 37L6 36L7 36L7 35L6 35L6 36L5 36L5 35L4 35L4 36L5 36L5 38L8 38L8 37L9 37L9 36L10 36L10 35L11 35L11 36L13 36L13 37L12 37L12 38L13 38L13 39L14 39L14 38L17 38L17 39L16 39L16 41L17 41L17 39L18 39L18 37L17 37L17 36L16 36L16 35L15 35L15 37L14 37L14 35L11 35L11 33L12 33L12 34L13 34L13 33L14 33L14 32L15 32L15 31L14 31L14 30L16 30L16 32L17 32L17 33L15 33L15 34L17 34L17 33L18 33L18 34L19 34L19 35L18 35L18 36L19 36L19 37L20 37L20 38L21 38L21 40L22 40L22 41L19 41L19 40L18 40L18 41L19 41L19 43L18 43L18 42L17 42L17 45L14 45L14 44L16 44L16 43L15 43L15 42L14 42L14 40L13 40L13 41L12 41L12 43L14 43L14 44L13 44L13 45L14 45L14 46L13 46L13 47L14 47L14 46L16 46L16 47L15 47L15 51L18 51L18 50L19 50L19 49L16 49L16 47L17 47L17 45L20 45L20 46L18 46L18 48L20 48L20 47L22 47L22 46L24 46L24 45L23 45L23 44L22 44L22 41L23 41L23 40L24 40L24 39L25 39L25 41L26 41L26 40L27 40L27 41L28 41L28 40L29 40L29 41L30 41L30 42L31 42L31 40L33 40L33 39L32 39L32 38L30 38L30 39L28 39L28 40L27 40L27 39L25 39L25 38L29 38L29 36L27 36L27 37L24 37L24 39L22 39L22 38L23 38L23 36L26 36L26 35L25 35L25 34L24 34L24 35L23 35L23 33L24 33L24 32L23 32L23 33L22 33L22 34L21 34L21 32L22 32L22 31L23 31L23 30L21 30L21 32L17 32L17 30L16 30L16 29ZM1 30L1 31L2 31L2 32L3 32L3 30ZM42 32L42 33L43 33L43 32ZM46 32L46 33L47 33L47 32ZM53 32L53 33L54 33L54 32ZM9 33L9 34L10 34L10 33ZM19 33L19 34L20 34L20 35L21 35L21 36L22 36L22 35L21 35L21 34L20 34L20 33ZM43 34L43 35L44 35L44 34ZM44 36L44 37L42 37L42 38L44 38L44 39L43 39L43 40L44 40L44 39L45 39L45 41L46 41L46 39L45 39L45 36ZM46 36L46 38L47 38L47 37L49 37L49 36ZM2 37L2 38L3 38L3 37ZM21 37L21 38L22 38L22 37ZM48 38L48 39L47 39L47 40L49 40L49 39L52 39L52 40L50 40L50 41L47 41L47 42L48 42L48 43L49 43L49 42L50 42L50 41L52 41L52 40L53 40L53 39L52 39L52 38ZM9 40L9 41L10 41L10 40ZM56 40L56 41L57 41L57 40ZM20 42L20 43L21 43L21 42ZM44 42L44 43L45 43L45 42ZM53 42L53 43L52 43L52 44L55 44L55 43L54 43L54 42ZM21 44L21 46L22 46L22 44ZM38 44L38 45L37 45L37 47L38 47L38 45L39 45L39 44ZM50 47L50 48L51 48L51 47ZM21 48L21 50L22 50L22 49L23 49L23 48ZM41 48L41 49L42 49L42 48ZM56 48L56 49L57 49L57 48ZM27 49L27 52L30 52L30 49ZM36 49L36 50L37 50L37 49ZM49 49L49 52L52 52L52 49ZM24 50L24 51L25 51L25 50ZM28 50L28 51L29 51L29 50ZM50 50L50 51L51 51L51 50ZM31 51L31 53L32 53L32 51ZM40 51L40 52L41 52L41 51ZM45 52L45 53L46 53L46 52ZM54 52L54 54L55 54L55 53L56 53L56 52ZM47 53L47 54L46 54L46 55L47 55L47 54L50 54L50 53ZM44 54L44 55L45 55L45 54ZM39 55L39 56L40 56L40 55ZM56 55L56 56L57 56L57 55ZM0 0L0 7L7 7L7 0ZM1 1L1 6L6 6L6 1ZM2 2L2 5L5 5L5 2ZM50 0L50 7L57 7L57 0ZM51 1L51 6L56 6L56 1ZM52 2L52 5L55 5L55 2ZM0 50L0 57L7 57L7 50ZM1 51L1 56L6 56L6 51ZM2 52L2 55L5 55L5 52Z" fill="#000000"/></g></g></svg>
