<?xml version="1.0" encoding="UTF-8"?>
<svg xmlns="http://www.w3.org/2000/svg" version="1.1" width="300" height="300" viewBox="0 0 300 300"><rect x="0" y="0" width="300" height="300" fill="#fefefe"/><g transform="scale(4.615)"><g transform="translate(4,4)"><path fill-rule="evenodd" d="M10 0L10 1L11 1L11 3L13 3L13 4L12 4L12 5L11 5L11 4L10 4L10 2L9 2L9 1L8 1L8 2L9 2L9 3L8 3L8 4L10 4L10 5L8 5L8 7L9 7L9 8L6 8L6 9L5 9L5 8L0 8L0 11L2 11L2 13L1 13L1 14L2 14L2 15L3 15L3 16L1 16L1 17L0 17L0 18L2 18L2 20L3 20L3 19L4 19L4 18L5 18L5 19L7 19L7 20L5 20L5 21L4 21L4 22L2 22L2 21L1 21L1 22L0 22L0 23L1 23L1 22L2 22L2 23L4 23L4 22L6 22L6 23L8 23L8 24L6 24L6 25L8 25L8 26L3 26L3 24L1 24L1 25L0 25L0 26L1 26L1 28L2 28L2 26L3 26L3 27L4 27L4 31L3 31L3 29L0 29L0 30L2 30L2 31L3 31L3 32L0 32L0 34L1 34L1 35L0 35L0 36L2 36L2 37L0 37L0 38L1 38L1 40L0 40L0 44L1 44L1 45L2 45L2 47L1 47L1 46L0 46L0 48L5 48L5 47L7 47L7 48L6 48L6 49L8 49L8 51L10 51L10 52L12 52L12 53L11 53L11 54L12 54L12 55L11 55L11 57L13 57L13 56L12 56L12 55L16 55L16 56L17 56L17 57L20 57L20 56L19 56L19 55L20 55L20 54L19 54L19 55L18 55L18 54L17 54L17 53L20 53L20 52L23 52L23 50L26 50L26 52L24 52L24 53L21 53L21 55L23 55L23 56L24 56L24 57L26 57L26 56L24 56L24 55L23 55L23 54L24 54L24 53L27 53L27 54L30 54L30 53L31 53L31 51L32 51L32 52L33 52L33 51L32 51L32 48L33 48L33 50L34 50L34 51L35 51L35 52L34 52L34 53L35 53L35 54L36 54L36 56L35 56L35 55L33 55L33 53L32 53L32 54L31 54L31 56L30 56L30 55L29 55L29 56L27 56L27 57L29 57L29 56L30 56L30 57L31 57L31 56L35 56L35 57L39 57L39 56L37 56L37 55L41 55L41 57L42 57L42 55L43 55L43 57L44 57L44 54L45 54L45 53L47 53L47 55L48 55L48 57L49 57L49 56L50 56L50 57L52 57L52 55L51 55L51 53L52 53L52 54L53 54L53 52L54 52L54 54L55 54L55 52L56 52L56 53L57 53L57 52L56 52L56 51L54 51L54 50L57 50L57 48L56 48L56 46L57 46L57 45L56 45L56 46L54 46L54 47L53 47L53 46L51 46L51 45L50 45L50 44L51 44L51 43L53 43L53 45L54 45L54 44L55 44L55 43L56 43L56 44L57 44L57 43L56 43L56 42L55 42L55 39L57 39L57 37L55 37L55 35L53 35L53 34L52 34L52 33L53 33L53 32L54 32L54 34L57 34L57 32L56 32L56 30L57 30L57 27L56 27L56 26L57 26L57 25L56 25L56 22L57 22L57 21L56 21L56 20L55 20L55 19L56 19L56 18L57 18L57 17L56 17L56 16L57 16L57 15L56 15L56 14L57 14L57 12L55 12L55 11L56 11L56 10L54 10L54 11L52 11L52 10L49 10L49 9L50 9L50 8L49 8L49 6L48 6L48 7L47 7L47 5L48 5L48 0L46 0L46 1L47 1L47 2L44 2L44 3L42 3L42 2L43 2L43 0L41 0L41 1L40 1L40 0L39 0L39 1L38 1L38 0L37 0L37 1L38 1L38 4L37 4L37 3L36 3L36 0L35 0L35 1L33 1L33 0L32 0L32 1L31 1L31 0L28 0L28 1L29 1L29 2L27 2L27 1L25 1L25 0L23 0L23 2L27 2L27 3L30 3L30 4L26 4L26 3L23 3L23 4L19 4L19 3L20 3L20 2L22 2L22 0L21 0L21 1L20 1L20 0L17 0L17 1L14 1L14 0L12 0L12 1L11 1L11 0ZM13 1L13 2L14 2L14 4L13 4L13 5L12 5L12 6L11 6L11 7L10 7L10 6L9 6L9 7L10 7L10 8L9 8L9 9L10 9L10 10L9 10L9 11L12 11L12 13L11 13L11 12L10 12L10 13L11 13L11 16L12 16L12 14L13 14L13 15L14 15L14 16L13 16L13 17L10 17L10 15L9 15L9 18L7 18L7 17L8 17L8 16L7 16L7 15L5 15L5 14L9 14L9 13L8 13L8 12L7 12L7 11L8 11L8 10L7 10L7 9L6 9L6 10L7 10L7 11L6 11L6 12L7 12L7 13L4 13L4 12L5 12L5 11L4 11L4 9L1 9L1 10L2 10L2 11L4 11L4 12L3 12L3 13L4 13L4 16L3 16L3 17L2 17L2 18L4 18L4 17L6 17L6 18L7 18L7 19L9 19L9 20L7 20L7 21L6 21L6 22L7 22L7 21L11 21L11 22L10 22L10 23L11 23L11 24L10 24L10 25L9 25L9 24L8 24L8 25L9 25L9 26L10 26L10 27L11 27L11 26L12 26L12 28L11 28L11 29L12 29L12 30L9 30L9 31L8 31L8 32L9 32L9 33L6 33L6 32L7 32L7 31L6 31L6 32L4 32L4 33L1 33L1 34L4 34L4 36L5 36L5 34L9 34L9 35L8 35L8 36L9 36L9 37L11 37L11 38L10 38L10 40L9 40L9 38L7 38L7 37L3 37L3 38L2 38L2 39L3 39L3 43L2 43L2 42L1 42L1 44L2 44L2 45L3 45L3 44L7 44L7 43L4 43L4 42L5 42L5 41L6 41L6 42L10 42L10 43L11 43L11 44L10 44L10 46L8 46L8 45L9 45L9 44L8 44L8 45L4 45L4 46L3 46L3 47L5 47L5 46L8 46L8 49L9 49L9 47L10 47L10 46L11 46L11 47L12 47L12 48L10 48L10 51L11 51L11 50L12 50L12 52L13 52L13 53L14 53L14 54L16 54L16 53L17 53L17 52L18 52L18 50L17 50L17 49L16 49L16 48L19 48L19 49L20 49L20 50L21 50L21 51L22 51L22 50L21 50L21 49L23 49L23 47L24 47L24 49L26 49L26 48L28 48L28 47L26 47L26 45L27 45L27 46L29 46L29 45L27 45L27 44L28 44L28 42L30 42L30 41L31 41L31 42L32 42L32 43L31 43L31 44L32 44L32 45L30 45L30 46L32 46L32 47L31 47L31 48L32 48L32 47L33 47L33 46L35 46L35 47L34 47L34 50L36 50L36 52L37 52L37 51L38 51L38 54L40 54L40 53L41 53L41 52L42 52L42 50L41 50L41 48L42 48L42 49L43 49L43 48L44 48L44 49L46 49L46 50L43 50L43 51L45 51L45 52L44 52L44 53L43 53L43 54L44 54L44 53L45 53L45 52L46 52L46 50L47 50L47 53L48 53L48 50L47 50L47 49L48 49L48 48L49 48L49 47L48 47L48 46L47 46L47 45L49 45L49 46L50 46L50 47L51 47L51 48L53 48L53 49L54 49L54 48L53 48L53 47L51 47L51 46L50 46L50 45L49 45L49 44L50 44L50 43L51 43L51 42L53 42L53 43L54 43L54 42L53 42L53 41L54 41L54 40L53 40L53 41L51 41L51 42L50 42L50 43L49 43L49 42L48 42L48 41L49 41L49 39L51 39L51 38L53 38L53 39L55 39L55 37L53 37L53 35L52 35L52 34L50 34L50 32L51 32L51 33L52 33L52 32L53 32L53 31L48 31L48 29L46 29L46 30L47 30L47 31L46 31L46 32L43 32L43 30L44 30L44 31L45 31L45 30L44 30L44 29L45 29L45 28L46 28L46 27L48 27L48 26L47 26L47 25L48 25L48 24L50 24L50 26L52 26L52 25L53 25L53 23L50 23L50 22L51 22L51 21L54 21L54 22L56 22L56 21L55 21L55 20L53 20L53 19L52 19L52 20L51 20L51 21L49 21L49 23L48 23L48 24L47 24L47 25L45 25L45 23L46 23L46 22L47 22L47 21L48 21L48 20L47 20L47 19L48 19L48 18L47 18L47 17L45 17L45 16L46 16L46 15L44 15L44 13L45 13L45 14L47 14L47 13L49 13L49 12L50 12L50 14L49 14L49 15L48 15L48 16L49 16L49 17L50 17L50 19L51 19L51 18L55 18L55 17L53 17L53 16L52 16L52 15L51 15L51 17L50 17L50 14L51 14L51 12L50 12L50 11L49 11L49 10L48 10L48 11L49 11L49 12L45 12L45 11L46 11L46 10L47 10L47 9L48 9L48 8L47 8L47 7L46 7L46 5L47 5L47 3L44 3L44 6L43 6L43 7L42 7L42 5L40 5L40 4L41 4L41 3L39 3L39 4L38 4L38 5L37 5L37 4L36 4L36 5L35 5L35 3L34 3L34 2L33 2L33 3L32 3L32 2L31 2L31 3L32 3L32 4L31 4L31 8L32 8L32 10L31 10L31 11L30 11L30 10L27 10L27 11L26 11L26 12L25 12L25 10L23 10L23 9L24 9L24 6L23 6L23 5L24 5L24 4L23 4L23 5L21 5L21 7L22 7L22 8L19 8L19 7L20 7L20 5L18 5L18 6L17 6L17 3L15 3L15 2L14 2L14 1ZM18 2L18 3L19 3L19 2ZM33 3L33 4L32 4L32 5L33 5L33 6L32 6L32 7L33 7L33 9L34 9L34 8L35 8L35 9L37 9L37 10L36 10L36 11L37 11L37 12L35 12L35 13L37 13L37 14L38 14L38 15L39 15L39 16L38 16L38 17L37 17L37 16L35 16L35 14L33 14L33 13L34 13L34 12L33 12L33 13L32 13L32 11L33 11L33 10L32 10L32 11L31 11L31 13L30 13L30 14L29 14L29 13L28 13L28 12L29 12L29 11L27 11L27 12L26 12L26 13L24 13L24 11L23 11L23 10L22 10L22 11L20 11L20 12L19 12L19 10L20 10L20 9L19 9L19 8L18 8L18 7L19 7L19 6L18 6L18 7L17 7L17 6L16 6L16 7L15 7L15 6L14 6L14 5L13 5L13 6L12 6L12 7L13 7L13 6L14 6L14 7L15 7L15 8L16 8L16 9L15 9L15 10L14 10L14 8L12 8L12 10L13 10L13 11L14 11L14 12L13 12L13 13L15 13L15 14L14 14L14 15L15 15L15 17L13 17L13 18L11 18L11 20L14 20L14 19L13 19L13 18L15 18L15 17L16 17L16 13L17 13L17 14L20 14L20 16L19 16L19 15L18 15L18 16L17 16L17 17L18 17L18 18L17 18L17 19L19 19L19 20L17 20L17 21L16 21L16 19L15 19L15 21L16 21L16 22L14 22L14 21L12 21L12 22L11 22L11 23L12 23L12 24L11 24L11 25L12 25L12 26L13 26L13 27L14 27L14 26L13 26L13 25L14 25L14 24L13 24L13 23L12 23L12 22L14 22L14 23L16 23L16 24L15 24L15 25L19 25L19 27L20 27L20 28L21 28L21 29L22 29L22 28L21 28L21 27L22 27L22 26L24 26L24 27L25 27L25 28L24 28L24 29L23 29L23 31L19 31L19 32L17 32L17 31L18 31L18 30L20 30L20 29L18 29L18 28L17 28L17 27L18 27L18 26L15 26L15 28L16 28L16 29L13 29L13 31L12 31L12 32L11 32L11 31L10 31L10 34L11 34L11 33L12 33L12 34L13 34L13 35L9 35L9 36L14 36L14 37L13 37L13 39L12 39L12 38L11 38L11 40L12 40L12 42L11 42L11 41L10 41L10 42L11 42L11 43L12 43L12 44L11 44L11 45L12 45L12 46L13 46L13 47L14 47L14 48L12 48L12 50L13 50L13 52L14 52L14 51L15 51L15 53L16 53L16 51L17 51L17 50L16 50L16 49L14 49L14 48L15 48L15 47L16 47L16 46L14 46L14 45L15 45L15 44L16 44L16 45L17 45L17 46L20 46L20 47L19 47L19 48L20 48L20 49L21 49L21 47L23 47L23 46L25 46L25 45L24 45L24 44L23 44L23 43L25 43L25 44L27 44L27 43L25 43L25 41L24 41L24 40L25 40L25 37L26 37L26 36L27 36L27 35L26 35L26 34L27 34L27 33L26 33L26 34L25 34L25 33L23 33L23 34L22 34L22 33L21 33L21 32L23 32L23 31L24 31L24 32L25 32L25 31L26 31L26 32L27 32L27 31L28 31L28 33L29 33L29 34L30 34L30 36L29 36L29 37L31 37L31 38L29 38L29 39L33 39L33 40L35 40L35 42L37 42L37 43L36 43L36 44L35 44L35 43L34 43L34 42L33 42L33 41L32 41L32 40L31 40L31 41L32 41L32 42L33 42L33 43L32 43L32 44L33 44L33 43L34 43L34 45L37 45L37 47L36 47L36 48L35 48L35 49L36 49L36 50L38 50L38 51L40 51L40 52L41 52L41 50L38 50L38 49L39 49L39 48L41 48L41 46L43 46L43 47L42 47L42 48L43 48L43 47L44 47L44 48L46 48L46 49L47 49L47 48L48 48L48 47L47 47L47 46L45 46L45 47L44 47L44 46L43 46L43 45L44 45L44 43L46 43L46 44L45 44L45 45L47 45L47 43L48 43L48 42L47 42L47 43L46 43L46 42L44 42L44 40L45 40L45 41L47 41L47 39L49 39L49 38L50 38L50 37L49 37L49 36L48 36L48 37L47 37L47 39L46 39L46 38L45 38L45 37L44 37L44 36L45 36L45 35L44 35L44 36L42 36L42 34L45 34L45 33L43 33L43 32L41 32L41 33L39 33L39 34L40 34L40 35L39 35L39 37L40 37L40 38L41 38L41 39L38 39L38 40L35 40L35 39L37 39L37 38L38 38L38 37L37 37L37 36L38 36L38 33L37 33L37 32L35 32L35 31L36 31L36 30L31 30L31 29L32 29L32 28L31 28L31 26L32 26L32 27L33 27L33 28L35 28L35 29L38 29L38 28L39 28L39 27L37 27L37 28L35 28L35 27L36 27L36 26L34 26L34 27L33 27L33 26L32 26L32 24L33 24L33 25L37 25L37 26L38 26L38 25L39 25L39 26L40 26L40 25L39 25L39 24L42 24L42 25L41 25L41 26L43 26L43 25L44 25L44 28L43 28L43 29L40 29L40 30L43 30L43 29L44 29L44 28L45 28L45 27L46 27L46 26L45 26L45 25L44 25L44 20L45 20L45 18L44 18L44 15L42 15L42 16L41 16L41 15L40 15L40 14L38 14L38 13L39 13L39 11L40 11L40 12L41 12L41 10L44 10L44 11L45 11L45 10L44 10L44 8L45 8L45 6L44 6L44 7L43 7L43 9L40 9L40 10L39 10L39 11L37 11L37 10L38 10L38 9L39 9L39 6L40 6L40 7L41 7L41 6L40 6L40 5L39 5L39 6L38 6L38 9L37 9L37 8L35 8L35 5L33 5L33 4L34 4L34 3ZM15 4L15 5L16 5L16 4ZM25 4L25 8L26 8L26 4ZM45 4L45 5L46 5L46 4ZM27 5L27 8L30 8L30 5ZM36 5L36 7L37 7L37 5ZM22 6L22 7L23 7L23 6ZM28 6L28 7L29 7L29 6ZM33 6L33 7L34 7L34 6ZM16 7L16 8L17 8L17 7ZM51 8L51 9L52 9L52 8ZM53 8L53 9L54 9L54 8ZM55 8L55 9L56 9L56 8ZM16 9L16 10L15 10L15 11L16 11L16 10L17 10L17 11L18 11L18 9ZM15 12L15 13L16 13L16 12ZM17 12L17 13L18 13L18 12ZM20 12L20 14L21 14L21 13L22 13L22 14L24 14L24 15L21 15L21 16L20 16L20 18L19 18L19 19L20 19L20 21L19 21L19 22L20 22L20 23L19 23L19 24L21 24L21 25L20 25L20 27L21 27L21 25L24 25L24 24L25 24L25 25L26 25L26 26L25 26L25 27L26 27L26 26L29 26L29 24L30 24L30 23L29 23L29 21L31 21L31 24L32 24L32 23L35 23L35 20L34 20L34 19L36 19L36 20L37 20L37 19L39 19L39 17L41 17L41 16L39 16L39 17L38 17L38 18L37 18L37 17L35 17L35 16L32 16L32 15L31 15L31 14L30 14L30 15L31 15L31 16L32 16L32 18L30 18L30 19L29 19L29 20L27 20L27 19L28 19L28 18L27 18L27 17L28 17L28 16L29 16L29 14L28 14L28 13L27 13L27 15L26 15L26 14L24 14L24 13L22 13L22 12ZM43 12L43 13L41 13L41 14L43 14L43 13L44 13L44 12ZM52 12L52 13L53 13L53 15L55 15L55 14L56 14L56 13L55 13L55 12L54 12L54 13L53 13L53 12ZM25 15L25 17L22 17L22 16L21 16L21 17L22 17L22 18L21 18L21 19L22 19L22 20L24 20L24 21L22 21L22 22L21 22L21 24L24 24L24 23L23 23L23 22L24 22L24 21L25 21L25 22L26 22L26 23L25 23L25 24L28 24L28 23L27 23L27 22L28 22L28 21L26 21L26 19L25 19L25 17L26 17L26 15ZM27 15L27 16L28 16L28 15ZM6 16L6 17L7 17L7 16ZM42 16L42 17L43 17L43 16ZM22 18L22 19L24 19L24 18ZM33 18L33 19L30 19L30 20L31 20L31 21L32 21L32 20L33 20L33 19L34 19L34 18ZM41 18L41 19L42 19L42 18ZM43 18L43 20L42 20L42 21L43 21L43 20L44 20L44 18ZM46 18L46 19L47 19L47 18ZM0 19L0 20L1 20L1 19ZM39 20L39 21L38 21L38 22L37 22L37 24L39 24L39 23L40 23L40 22L39 22L39 21L41 21L41 20ZM45 21L45 22L46 22L46 21ZM8 22L8 23L9 23L9 22ZM41 22L41 23L42 23L42 24L43 24L43 23L42 23L42 22ZM17 23L17 24L18 24L18 23ZM12 24L12 25L13 25L13 24ZM54 24L54 25L55 25L55 26L56 26L56 25L55 25L55 24ZM53 26L53 27L54 27L54 26ZM5 27L5 30L8 30L8 27ZM27 27L27 30L30 30L30 27ZM41 27L41 28L42 28L42 27ZM49 27L49 30L52 30L52 27ZM55 27L55 28L54 28L54 29L56 29L56 27ZM6 28L6 29L7 29L7 28ZM25 28L25 29L26 29L26 28ZM28 28L28 29L29 29L29 28ZM50 28L50 29L51 29L51 28ZM16 29L16 30L18 30L18 29ZM14 30L14 32L13 32L13 33L14 33L14 36L15 36L15 37L16 37L16 38L14 38L14 39L13 39L13 43L14 43L14 40L15 40L15 43L18 43L18 42L19 42L19 41L20 41L20 42L21 42L21 43L20 43L20 44L19 44L19 45L20 45L20 46L21 46L21 45L22 45L22 46L23 46L23 45L22 45L22 44L21 44L21 43L22 43L22 42L23 42L23 40L24 40L24 39L23 39L23 40L22 40L22 39L21 39L21 40L19 40L19 41L16 41L16 40L18 40L18 39L20 39L20 38L19 38L19 37L22 37L22 38L24 38L24 37L23 37L23 36L24 36L24 34L23 34L23 35L21 35L21 33L19 33L19 35L17 35L17 33L16 33L16 32L15 32L15 30ZM38 30L38 32L39 32L39 30ZM54 30L54 31L55 31L55 30ZM30 31L30 32L29 32L29 33L31 33L31 35L32 35L32 34L33 34L33 35L34 35L34 34L35 34L35 36L37 36L37 34L35 34L35 33L34 33L34 34L33 34L33 32L34 32L34 31L32 31L32 33L31 33L31 31ZM47 31L47 32L48 32L48 33L49 33L49 32L48 32L48 31ZM14 32L14 33L15 33L15 36L16 36L16 33L15 33L15 32ZM55 32L55 33L56 33L56 32ZM48 34L48 35L50 35L50 36L52 36L52 35L50 35L50 34ZM2 35L2 36L3 36L3 35ZM6 35L6 36L7 36L7 35ZM19 35L19 36L17 36L17 39L18 39L18 37L19 37L19 36L20 36L20 35ZM32 36L32 37L33 37L33 39L35 39L35 37L33 37L33 36ZM40 36L40 37L41 37L41 38L42 38L42 39L41 39L41 40L38 40L38 42L39 42L39 43L40 43L40 44L39 44L39 45L38 45L38 46L39 46L39 47L38 47L38 48L37 48L37 49L38 49L38 48L39 48L39 47L40 47L40 45L41 45L41 44L42 44L42 42L41 42L41 41L43 41L43 39L45 39L45 40L46 40L46 39L45 39L45 38L44 38L44 37L43 37L43 38L42 38L42 37L41 37L41 36ZM27 37L27 38L26 38L26 39L27 39L27 40L28 40L28 39L27 39L27 38L28 38L28 37ZM6 38L6 39L7 39L7 38ZM15 39L15 40L16 40L16 39ZM6 40L6 41L9 41L9 40ZM26 41L26 42L27 42L27 41ZM39 41L39 42L40 42L40 41ZM43 42L43 43L44 43L44 42ZM29 43L29 44L30 44L30 43ZM12 44L12 45L13 45L13 44ZM17 44L17 45L18 45L18 44ZM20 44L20 45L21 45L21 44ZM32 45L32 46L33 46L33 45ZM29 47L29 48L30 48L30 47ZM46 47L46 48L47 48L47 47ZM55 48L55 49L56 49L56 48ZM13 49L13 50L14 50L14 49ZM27 49L27 52L30 52L30 49ZM49 49L49 52L52 52L52 49ZM28 50L28 51L29 51L29 50ZM50 50L50 51L51 51L51 50ZM19 51L19 52L20 52L20 51ZM8 52L8 57L9 57L9 55L10 55L10 54L9 54L9 52ZM25 54L25 55L26 55L26 54ZM41 54L41 55L42 55L42 54ZM50 55L50 56L51 56L51 55ZM53 55L53 56L55 56L55 57L56 57L56 56L55 56L55 55ZM14 56L14 57L15 57L15 56ZM45 56L45 57L46 57L46 56ZM0 0L0 7L7 7L7 0ZM1 1L1 6L6 6L6 1ZM2 2L2 5L5 5L5 2ZM50 0L50 7L57 7L57 0ZM51 1L51 6L56 6L56 1ZM52 2L52 5L55 5L55 2ZM0 50L0 57L7 57L7 50ZM1 51L1 56L6 56L6 51ZM2 52L2 55L5 55L5 52Z" fill="#000000"/></g></g></svg>
