<?xml version="1.0" encoding="UTF-8"?>
<svg xmlns="http://www.w3.org/2000/svg" version="1.1" width="300" height="300" viewBox="0 0 300 300"><rect x="0" y="0" width="300" height="300" fill="#fefefe"/><g transform="scale(4.615)"><g transform="translate(4,4)"><path fill-rule="evenodd" d="M12 0L12 1L11 1L11 3L12 3L12 4L11 4L11 5L13 5L13 6L12 6L12 7L13 7L13 6L14 6L14 7L15 7L15 9L17 9L17 10L13 10L13 9L14 9L14 8L12 8L12 10L11 10L11 11L10 11L10 9L11 9L11 6L10 6L10 4L9 4L9 3L10 3L10 2L9 2L9 1L8 1L8 2L9 2L9 3L8 3L8 4L9 4L9 5L8 5L8 7L9 7L9 8L6 8L6 9L5 9L5 8L0 8L0 9L1 9L1 11L2 11L2 13L4 13L4 16L5 16L5 18L6 18L6 19L3 19L3 18L4 18L4 17L3 17L3 18L2 18L2 16L3 16L3 14L2 14L2 15L1 15L1 16L0 16L0 17L1 17L1 18L2 18L2 19L0 19L0 23L1 23L1 24L2 24L2 23L3 23L3 26L2 26L2 27L1 27L1 26L0 26L0 27L1 27L1 28L0 28L0 31L3 31L3 34L2 34L2 32L1 32L1 34L0 34L0 35L3 35L3 36L0 36L0 37L1 37L1 38L0 38L0 40L1 40L1 41L2 41L2 42L3 42L3 44L4 44L4 45L3 45L3 46L2 46L2 45L0 45L0 48L5 48L5 47L7 47L7 46L8 46L8 45L7 45L7 44L8 44L8 42L6 42L6 41L9 41L9 45L10 45L10 41L11 41L11 44L13 44L13 46L10 46L10 48L6 48L6 49L8 49L8 51L10 51L10 52L8 52L8 57L9 57L9 56L10 56L10 57L11 57L11 56L12 56L12 55L11 55L11 54L13 54L13 53L11 53L11 52L14 52L14 53L16 53L16 54L15 54L15 55L13 55L13 56L14 56L14 57L15 57L15 55L16 55L16 56L17 56L17 57L19 57L19 55L20 55L20 54L19 54L19 53L20 53L20 52L21 52L21 50L26 50L26 52L24 52L24 53L21 53L21 54L22 54L22 55L21 55L21 56L24 56L24 55L23 55L23 54L24 54L24 53L25 53L25 54L26 54L26 56L25 56L25 57L26 57L26 56L27 56L27 57L29 57L29 56L30 56L30 57L31 57L31 56L35 56L35 57L39 57L39 56L40 56L40 55L41 55L41 56L42 56L42 55L44 55L44 54L45 54L45 53L44 53L44 52L45 52L45 51L44 51L44 50L45 50L45 49L47 49L47 50L48 50L48 54L46 54L46 55L45 55L45 57L47 57L47 55L49 55L49 56L48 56L48 57L49 57L49 56L50 56L50 57L52 57L52 55L51 55L51 53L52 53L52 54L53 54L53 55L54 55L54 56L53 56L53 57L54 57L54 56L55 56L55 57L56 57L56 56L55 56L55 55L54 55L54 54L55 54L55 53L56 53L56 52L57 52L57 51L56 51L56 50L57 50L57 48L56 48L56 46L57 46L57 44L56 44L56 42L55 42L55 41L53 41L53 40L55 40L55 39L57 39L57 35L53 35L53 34L52 34L52 33L54 33L54 34L57 34L57 32L56 32L56 30L57 30L57 28L56 28L56 27L55 27L55 26L57 26L57 25L56 25L56 22L57 22L57 21L56 21L56 18L57 18L57 17L56 17L56 16L57 16L57 15L56 15L56 14L57 14L57 13L56 13L56 14L55 14L55 13L54 13L54 12L55 12L55 11L56 11L56 12L57 12L57 11L56 11L56 8L55 8L55 10L54 10L54 11L52 11L52 10L53 10L53 9L54 9L54 8L53 8L53 9L52 9L52 8L51 8L51 9L52 9L52 10L51 10L51 11L50 11L50 8L49 8L49 6L48 6L48 7L47 7L47 5L48 5L48 0L45 0L45 2L44 2L44 3L43 3L43 4L42 4L42 2L43 2L43 0L41 0L41 1L40 1L40 0L39 0L39 1L38 1L38 0L37 0L37 1L38 1L38 2L39 2L39 3L36 3L36 0L35 0L35 1L32 1L32 3L31 3L31 0L29 0L29 1L28 1L28 3L30 3L30 4L26 4L26 3L23 3L23 4L19 4L19 3L20 3L20 0L18 0L18 1L16 1L16 2L15 2L15 1L14 1L14 0ZM21 0L21 2L22 2L22 0ZM23 0L23 2L27 2L27 1L25 1L25 0ZM13 1L13 2L12 2L12 3L13 3L13 2L14 2L14 4L13 4L13 5L15 5L15 7L16 7L16 8L19 8L19 7L20 7L20 5L18 5L18 4L17 4L17 2L16 2L16 3L15 3L15 2L14 2L14 1ZM46 1L46 2L47 2L47 1ZM18 2L18 3L19 3L19 2ZM33 2L33 3L32 3L32 4L31 4L31 8L32 8L32 10L29 10L29 12L28 12L28 13L26 13L26 12L27 12L27 11L28 11L28 10L27 10L27 11L26 11L26 12L25 12L25 11L24 11L24 13L22 13L22 12L20 12L20 14L19 14L19 17L18 17L18 16L17 16L17 13L18 13L18 12L17 12L17 13L16 13L16 12L15 12L15 13L13 13L13 12L14 12L14 11L11 11L11 13L9 13L9 10L8 10L8 9L6 9L6 10L5 10L5 11L4 11L4 10L3 10L3 9L2 9L2 10L3 10L3 11L4 11L4 13L5 13L5 11L6 11L6 12L8 12L8 16L11 16L11 17L9 17L9 18L8 18L8 17L6 17L6 18L8 18L8 19L10 19L10 20L13 20L13 21L14 21L14 22L13 22L13 23L14 23L14 22L16 22L16 21L17 21L17 22L18 22L18 21L17 21L17 20L18 20L18 19L17 19L17 20L16 20L16 21L15 21L15 18L17 18L17 17L18 17L18 18L19 18L19 20L20 20L20 21L19 21L19 22L20 22L20 23L19 23L19 25L20 25L20 26L18 26L18 27L17 27L17 24L18 24L18 23L17 23L17 24L16 24L16 23L15 23L15 24L16 24L16 25L14 25L14 24L13 24L13 26L12 26L12 21L11 21L11 23L10 23L10 21L9 21L9 20L7 20L7 19L6 19L6 20L5 20L5 23L4 23L4 25L5 25L5 24L7 24L7 25L6 25L6 26L7 26L7 25L8 25L8 26L10 26L10 24L11 24L11 26L12 26L12 27L11 27L11 28L9 28L9 29L11 29L11 31L13 31L13 32L11 32L11 33L10 33L10 34L11 34L11 33L12 33L12 35L13 35L13 32L14 32L14 34L16 34L16 35L14 35L14 36L15 36L15 37L16 37L16 38L15 38L15 39L16 39L16 41L15 41L15 42L14 42L14 40L13 40L13 38L12 38L12 40L11 40L11 41L12 41L12 40L13 40L13 43L15 43L15 42L17 42L17 43L18 43L18 42L19 42L19 41L20 41L20 42L21 42L21 43L20 43L20 46L19 46L19 48L20 48L20 46L21 46L21 45L22 45L22 46L23 46L23 47L21 47L21 49L17 49L17 48L18 48L18 46L17 46L17 45L18 45L18 44L15 44L15 45L14 45L14 47L13 47L13 49L9 49L9 50L13 50L13 51L16 51L16 53L17 53L17 51L18 51L18 52L20 52L20 51L18 51L18 50L21 50L21 49L23 49L23 48L24 48L24 49L25 49L25 48L24 48L24 46L23 46L23 45L22 45L22 44L21 44L21 43L22 43L22 42L24 42L24 43L23 43L23 44L24 44L24 45L25 45L25 47L26 47L26 48L27 48L27 47L26 47L26 45L27 45L27 46L29 46L29 45L31 45L31 46L32 46L32 45L33 45L33 46L35 46L35 45L34 45L34 43L37 43L37 42L35 42L35 40L38 40L38 42L39 42L39 43L40 43L40 44L39 44L39 45L38 45L38 46L39 46L39 47L38 47L38 48L37 48L37 49L38 49L38 50L36 50L36 49L34 49L34 48L33 48L33 47L31 47L31 48L32 48L32 50L31 50L31 53L30 53L30 54L27 54L27 56L29 56L29 55L30 55L30 56L31 56L31 54L32 54L32 53L33 53L33 54L34 54L34 55L35 55L35 56L36 56L36 54L35 54L35 51L34 51L34 50L36 50L36 52L37 52L37 51L38 51L38 54L40 54L40 53L43 53L43 54L44 54L44 53L43 53L43 51L42 51L42 50L41 50L41 48L42 48L42 49L43 49L43 48L44 48L44 49L45 49L45 48L44 48L44 45L45 45L45 46L47 46L47 47L46 47L46 48L47 48L47 49L48 49L48 48L49 48L49 47L48 47L48 46L47 46L47 45L48 45L48 44L50 44L50 45L49 45L49 46L50 46L50 47L53 47L53 45L52 45L52 44L53 44L53 43L54 43L54 42L53 42L53 41L51 41L51 42L50 42L50 43L49 43L49 42L48 42L48 41L49 41L49 39L51 39L51 38L52 38L52 40L53 40L53 39L55 39L55 37L56 37L56 36L55 36L55 37L53 37L53 35L52 35L52 34L50 34L50 32L51 32L51 33L52 33L52 32L53 32L53 31L54 31L54 30L53 30L53 31L50 31L50 32L49 32L49 31L48 31L48 29L46 29L46 30L47 30L47 31L48 31L48 32L47 32L47 33L46 33L46 31L45 31L45 30L44 30L44 29L45 29L45 28L46 28L46 27L47 27L47 28L48 28L48 27L47 27L47 26L48 26L48 25L50 25L50 26L51 26L51 25L53 25L53 23L50 23L50 22L51 22L51 21L53 21L53 22L56 22L56 21L55 21L55 20L53 20L53 19L52 19L52 18L51 18L51 17L53 17L53 18L55 18L55 17L53 17L53 16L52 16L52 15L51 15L51 17L50 17L50 14L51 14L51 12L50 12L50 11L49 11L49 12L48 12L48 10L47 10L47 9L49 9L49 8L47 8L47 7L46 7L46 6L45 6L45 5L47 5L47 3L44 3L44 6L43 6L43 8L44 8L44 9L45 9L45 10L47 10L47 12L45 12L45 11L42 11L42 10L40 10L40 9L42 9L42 8L41 8L41 7L42 7L42 5L40 5L40 4L41 4L41 3L39 3L39 4L38 4L38 5L37 5L37 4L36 4L36 5L35 5L35 2ZM15 4L15 5L16 5L16 4ZM23 4L23 5L21 5L21 8L20 8L20 11L22 11L22 10L23 10L23 9L24 9L24 6L23 6L23 5L24 5L24 4ZM25 4L25 8L26 8L26 4ZM32 4L32 5L34 5L34 7L33 7L33 6L32 6L32 7L33 7L33 9L34 9L34 8L35 8L35 9L37 9L37 10L36 10L36 11L35 11L35 14L33 14L33 13L34 13L34 12L33 12L33 13L32 13L32 11L33 11L33 10L32 10L32 11L31 11L31 13L30 13L30 14L29 14L29 13L28 13L28 14L29 14L29 16L28 16L28 15L27 15L27 14L26 14L26 13L24 13L24 14L25 14L25 15L24 15L24 16L25 16L25 17L22 17L22 16L20 16L20 17L19 17L19 18L20 18L20 19L21 19L21 20L22 20L22 19L23 19L23 20L24 20L24 21L22 21L22 22L21 22L21 24L20 24L20 25L21 25L21 26L20 26L20 27L19 27L19 29L18 29L18 28L16 28L16 29L15 29L15 30L14 30L14 29L13 29L13 28L15 28L15 27L16 27L16 26L14 26L14 27L12 27L12 29L13 29L13 31L14 31L14 32L15 32L15 31L16 31L16 29L18 29L18 30L17 30L17 32L18 32L18 33L17 33L17 34L18 34L18 35L20 35L20 36L21 36L21 35L22 35L22 36L23 36L23 37L24 37L24 38L21 38L21 37L19 37L19 36L17 36L17 38L18 38L18 37L19 37L19 38L20 38L20 39L17 39L17 40L18 40L18 41L17 41L17 42L18 42L18 41L19 41L19 40L23 40L23 41L24 41L24 42L25 42L25 41L24 41L24 40L25 40L25 39L26 39L26 40L28 40L28 39L27 39L27 38L28 38L28 37L26 37L26 38L25 38L25 36L26 36L26 35L27 35L27 34L25 34L25 33L27 33L27 32L28 32L28 33L29 33L29 34L30 34L30 36L29 36L29 37L31 37L31 38L29 38L29 39L33 39L33 40L35 40L35 39L37 39L37 38L38 38L38 37L37 37L37 36L38 36L38 33L37 33L37 32L34 32L34 31L35 31L35 30L37 30L37 29L38 29L38 28L42 28L42 27L40 27L40 26L39 26L39 27L37 27L37 28L35 28L35 27L36 27L36 26L34 26L34 27L33 27L33 26L32 26L32 24L33 24L33 25L37 25L37 26L38 26L38 25L40 25L40 24L41 24L41 22L42 22L42 23L44 23L44 20L45 20L45 21L46 21L46 20L47 20L47 18L50 18L50 17L49 17L49 16L48 16L48 15L49 15L49 14L50 14L50 12L49 12L49 13L47 13L47 14L44 14L44 12L43 12L43 13L40 13L40 12L41 12L41 11L40 11L40 10L39 10L39 11L38 11L38 8L40 8L40 7L41 7L41 6L40 6L40 5L39 5L39 6L38 6L38 7L37 7L37 5L36 5L36 7L37 7L37 8L35 8L35 5L34 5L34 4ZM27 5L27 8L30 8L30 5ZM9 6L9 7L10 7L10 6ZM16 6L16 7L17 7L17 6ZM18 6L18 7L19 7L19 6ZM22 6L22 8L23 8L23 6ZM28 6L28 7L29 7L29 6ZM39 6L39 7L40 7L40 6ZM44 6L44 7L45 7L45 9L47 9L47 8L46 8L46 7L45 7L45 6ZM6 10L6 11L7 11L7 10ZM17 10L17 11L18 11L18 10ZM39 11L39 12L40 12L40 11ZM52 12L52 13L53 13L53 12ZM0 13L0 14L1 14L1 13ZM6 13L6 14L5 14L5 15L6 15L6 16L7 16L7 15L6 15L6 14L7 14L7 13ZM11 13L11 15L12 15L12 17L14 17L14 18L15 18L15 17L14 17L14 15L15 15L15 16L16 16L16 13L15 13L15 14L13 14L13 15L12 15L12 13ZM21 13L21 15L23 15L23 14L22 14L22 13ZM31 13L31 14L30 14L30 15L31 15L31 16L32 16L32 17L33 17L33 18L32 18L32 19L33 19L33 20L32 20L32 21L31 21L31 18L30 18L30 19L28 19L28 18L27 18L27 17L28 17L28 16L27 16L27 15L26 15L26 17L25 17L25 19L26 19L26 21L27 21L27 23L28 23L28 24L25 24L25 23L26 23L26 22L25 22L25 21L24 21L24 22L23 22L23 23L24 23L24 24L21 24L21 25L24 25L24 24L25 24L25 25L26 25L26 26L25 26L25 27L26 27L26 26L27 26L27 25L30 25L30 24L32 24L32 23L35 23L35 19L36 19L36 20L37 20L37 19L39 19L39 17L41 17L41 16L42 16L42 17L43 17L43 16L42 16L42 15L43 15L43 14L40 14L40 13L38 13L38 14L36 14L36 15L35 15L35 16L33 16L33 15L31 15L31 14L32 14L32 13ZM38 14L38 15L39 15L39 16L38 16L38 17L37 17L37 16L35 16L35 17L37 17L37 18L38 18L38 17L39 17L39 16L41 16L41 15L39 15L39 14ZM54 14L54 15L55 15L55 14ZM44 15L44 18L43 18L43 20L44 20L44 18L47 18L47 17L48 17L48 16L46 16L46 17L45 17L45 15ZM20 17L20 18L22 18L22 17ZM23 18L23 19L24 19L24 18ZM26 18L26 19L27 19L27 20L28 20L28 19L27 19L27 18ZM41 18L41 19L42 19L42 18ZM13 19L13 20L14 20L14 19ZM49 19L49 20L48 20L48 21L47 21L47 22L45 22L45 24L47 24L47 25L48 25L48 22L49 22L49 21L51 21L51 20L52 20L52 19ZM1 20L1 23L2 23L2 22L3 22L3 21L4 21L4 20L3 20L3 21L2 21L2 20ZM6 20L6 21L7 21L7 22L6 22L6 23L7 23L7 22L8 22L8 21L7 21L7 20ZM38 20L38 22L37 22L37 24L40 24L40 22L39 22L39 21L42 21L42 20ZM28 21L28 22L29 22L29 23L31 23L31 21ZM49 23L49 24L50 24L50 23ZM43 24L43 25L41 25L41 26L43 26L43 25L44 25L44 26L45 26L45 25L44 25L44 24ZM54 24L54 25L55 25L55 24ZM3 26L3 28L4 28L4 26ZM22 26L22 27L21 27L21 28L22 28L22 29L19 29L19 30L20 30L20 31L19 31L19 32L21 32L21 33L20 33L20 35L21 35L21 33L22 33L22 35L23 35L23 36L24 36L24 34L23 34L23 33L25 33L25 32L26 32L26 31L25 31L25 30L24 30L24 31L25 31L25 32L21 32L21 31L23 31L23 28L24 28L24 26ZM31 26L31 28L32 28L32 29L31 29L31 31L29 31L29 33L31 33L31 35L32 35L32 34L35 34L35 36L37 36L37 34L35 34L35 33L33 33L33 31L32 31L32 29L33 29L33 30L35 30L35 28L33 28L33 27L32 27L32 26ZM53 26L53 27L54 27L54 26ZM5 27L5 30L8 30L8 27ZM27 27L27 30L30 30L30 27ZM44 27L44 28L43 28L43 29L41 29L41 30L43 30L43 32L41 32L41 33L39 33L39 34L40 34L40 35L39 35L39 37L40 37L40 38L41 38L41 39L42 39L42 38L43 38L43 37L44 37L44 38L45 38L45 39L43 39L43 40L47 40L47 39L49 39L49 38L50 38L50 36L51 36L51 37L52 37L52 35L50 35L50 34L49 34L49 35L50 35L50 36L48 36L48 35L46 35L46 36L45 36L45 35L44 35L44 36L43 36L43 35L42 35L42 34L45 34L45 33L43 33L43 32L45 32L45 31L44 31L44 30L43 30L43 29L44 29L44 28L45 28L45 27ZM49 27L49 30L52 30L52 27ZM1 28L1 30L3 30L3 31L4 31L4 33L5 33L5 34L3 34L3 35L5 35L5 36L4 36L4 37L2 37L2 39L1 39L1 40L2 40L2 41L3 41L3 42L4 42L4 43L5 43L5 40L9 40L9 41L10 41L10 39L8 39L8 38L7 38L7 37L5 37L5 36L8 36L8 37L9 37L9 38L11 38L11 37L9 37L9 36L11 36L11 35L8 35L8 33L5 33L5 31L4 31L4 30L3 30L3 29L2 29L2 28ZM6 28L6 29L7 29L7 28ZM25 28L25 29L26 29L26 28ZM28 28L28 29L29 29L29 28ZM50 28L50 29L51 29L51 28ZM54 28L54 29L55 29L55 28ZM39 29L39 30L38 30L38 32L39 32L39 30L40 30L40 29ZM9 30L9 31L8 31L8 32L10 32L10 30ZM6 31L6 32L7 32L7 31ZM31 31L31 33L32 33L32 31ZM48 32L48 33L49 33L49 32ZM55 32L55 33L56 33L56 32ZM18 33L18 34L19 34L19 33ZM6 34L6 35L7 35L7 34ZM32 36L32 37L33 37L33 38L34 38L34 39L35 39L35 37L33 37L33 36ZM40 36L40 37L41 37L41 36ZM44 36L44 37L45 37L45 38L46 38L46 39L47 39L47 37L48 37L48 38L49 38L49 37L48 37L48 36L46 36L46 37L45 37L45 36ZM3 38L3 39L7 39L7 38ZM23 39L23 40L24 40L24 39ZM38 39L38 40L39 40L39 39ZM29 40L29 41L32 41L32 42L28 42L28 45L29 45L29 44L31 44L31 45L32 45L32 44L33 44L33 43L34 43L34 42L33 42L33 41L32 41L32 40ZM21 41L21 42L22 42L22 41ZM26 41L26 42L27 42L27 41ZM39 41L39 42L40 42L40 41ZM41 41L41 42L42 42L42 44L41 44L41 45L40 45L40 47L39 47L39 48L38 48L38 49L39 49L39 48L41 48L41 46L43 46L43 45L44 45L44 44L43 44L43 43L45 43L45 42L44 42L44 41ZM0 42L0 43L1 43L1 42ZM32 42L32 43L31 43L31 44L32 44L32 43L33 43L33 42ZM46 42L46 44L45 44L45 45L47 45L47 43L48 43L48 42ZM51 42L51 43L50 43L50 44L51 44L51 43L53 43L53 42ZM6 43L6 44L5 44L5 45L4 45L4 46L3 46L3 47L5 47L5 46L7 46L7 45L6 45L6 44L7 44L7 43ZM25 43L25 44L27 44L27 43ZM54 44L54 45L55 45L55 46L56 46L56 45L55 45L55 44ZM36 45L36 46L37 46L37 45ZM50 45L50 46L51 46L51 45ZM1 46L1 47L2 47L2 46ZM11 47L11 48L12 48L12 47ZM14 47L14 50L15 50L15 48L16 48L16 47ZM28 47L28 48L30 48L30 47ZM35 47L35 48L36 48L36 47ZM42 47L42 48L43 48L43 47ZM47 47L47 48L48 48L48 47ZM53 48L53 49L54 49L54 48ZM55 48L55 50L54 50L54 51L55 51L55 52L56 52L56 51L55 51L55 50L56 50L56 48ZM27 49L27 52L30 52L30 49ZM33 49L33 50L32 50L32 52L33 52L33 53L34 53L34 52L33 52L33 50L34 50L34 49ZM49 49L49 52L52 52L52 49ZM16 50L16 51L17 51L17 50ZM28 50L28 51L29 51L29 50ZM38 50L38 51L40 51L40 52L41 52L41 50ZM50 50L50 51L51 51L51 50ZM22 51L22 52L23 52L23 51ZM46 51L46 52L47 52L47 51ZM53 52L53 53L54 53L54 52ZM9 53L9 54L10 54L10 53ZM41 54L41 55L42 55L42 54ZM10 55L10 56L11 56L11 55ZM37 55L37 56L39 56L39 55ZM50 55L50 56L51 56L51 55ZM43 56L43 57L44 57L44 56ZM0 0L0 7L7 7L7 0ZM1 1L1 6L6 6L6 1ZM2 2L2 5L5 5L5 2ZM50 0L50 7L57 7L57 0ZM51 1L51 6L56 6L56 1ZM52 2L52 5L55 5L55 2ZM0 50L0 57L7 57L7 50ZM1 51L1 56L6 56L6 51ZM2 52L2 55L5 55L5 52Z" fill="#000000"/></g></g></svg>
