<?xml version="1.0" encoding="UTF-8"?>
<svg xmlns="http://www.w3.org/2000/svg" version="1.1" width="300" height="300" viewBox="0 0 300 300"><rect x="0" y="0" width="300" height="300" fill="#fefefe"/><g transform="scale(4.615)"><g transform="translate(4,4)"><path fill-rule="evenodd" d="M8 0L8 2L9 2L9 4L8 4L8 9L7 9L7 8L5 8L5 10L4 10L4 9L3 9L3 8L0 8L0 9L1 9L1 10L0 10L0 12L2 12L2 11L3 11L3 10L4 10L4 12L5 12L5 11L7 11L7 10L8 10L8 11L9 11L9 12L6 12L6 13L5 13L5 15L4 15L4 17L5 17L5 15L7 15L7 14L8 14L8 15L9 15L9 16L8 16L8 17L7 17L7 16L6 16L6 17L7 17L7 18L4 18L4 19L3 19L3 16L2 16L2 14L3 14L3 13L2 13L2 14L0 14L0 15L1 15L1 19L0 19L0 20L1 20L1 21L0 21L0 22L1 22L1 25L0 25L0 26L1 26L1 25L2 25L2 27L3 27L3 28L1 28L1 27L0 27L0 28L1 28L1 29L0 29L0 30L1 30L1 31L0 31L0 34L1 34L1 31L2 31L2 30L4 30L4 33L7 33L7 34L6 34L6 35L5 35L5 34L3 34L3 36L2 36L2 35L1 35L1 36L0 36L0 41L3 41L3 42L2 42L2 43L1 43L1 42L0 42L0 43L1 43L1 44L0 44L0 48L5 48L5 47L7 47L7 46L9 46L9 47L10 47L10 46L14 46L14 47L11 47L11 48L12 48L12 49L13 49L13 48L14 48L14 47L16 47L16 48L18 48L18 49L17 49L17 50L16 50L16 49L15 49L15 50L14 50L14 51L13 51L13 50L12 50L12 51L11 51L11 49L10 49L10 50L9 50L9 48L6 48L6 49L8 49L8 50L9 50L9 51L8 51L8 52L9 52L9 54L8 54L8 57L9 57L9 56L10 56L10 57L13 57L13 56L14 56L14 57L17 57L17 56L18 56L18 57L19 57L19 56L18 56L18 55L19 55L19 54L18 54L18 53L19 53L19 51L20 51L20 53L21 53L21 52L22 52L22 53L23 53L23 56L22 56L22 55L21 55L21 54L20 54L20 55L21 55L21 56L20 56L20 57L21 57L21 56L22 56L22 57L25 57L25 55L26 55L26 57L28 57L28 55L29 55L29 57L33 57L33 55L34 55L34 57L35 57L35 55L37 55L37 54L36 54L36 53L37 53L37 51L38 51L38 53L39 53L39 56L40 56L40 57L41 57L41 56L43 56L43 54L42 54L42 53L43 53L43 52L44 52L44 57L46 57L46 56L47 56L47 54L48 54L48 55L49 55L49 56L48 56L48 57L50 57L50 55L49 55L49 54L52 54L52 55L53 55L53 53L54 53L54 55L57 55L57 54L55 54L55 52L56 52L56 51L57 51L57 50L56 50L56 47L57 47L57 44L56 44L56 47L55 47L55 46L54 46L54 45L53 45L53 46L52 46L52 47L53 47L53 46L54 46L54 47L55 47L55 50L56 50L56 51L55 51L55 52L54 52L54 51L53 51L53 50L54 50L54 49L53 49L53 48L50 48L50 47L51 47L51 45L50 45L50 47L49 47L49 45L48 45L48 44L49 44L49 42L50 42L50 44L52 44L52 39L53 39L53 44L54 44L54 43L55 43L55 42L54 42L54 41L57 41L57 40L54 40L54 39L55 39L55 38L57 38L57 33L56 33L56 31L57 31L57 24L56 24L56 23L57 23L57 21L56 21L56 19L57 19L57 13L56 13L56 11L57 11L57 10L56 10L56 9L57 9L57 8L55 8L55 9L54 9L54 10L53 10L53 8L49 8L49 6L48 6L48 7L47 7L47 5L48 5L48 0L42 0L42 1L41 1L41 0L38 0L38 2L37 2L37 1L35 1L35 0L34 0L34 3L33 3L33 6L32 6L32 7L33 7L33 6L34 6L34 8L32 8L32 9L31 9L31 5L32 5L32 2L33 2L33 1L32 1L32 0L30 0L30 2L31 2L31 4L30 4L30 3L29 3L29 4L28 4L28 2L29 2L29 1L28 1L28 0L26 0L26 2L25 2L25 4L24 4L24 1L25 1L25 0L24 0L24 1L23 1L23 0L20 0L20 2L19 2L19 3L21 3L21 4L22 4L22 5L20 5L20 7L19 7L19 4L18 4L18 3L17 3L17 4L16 4L16 2L18 2L18 1L17 1L17 0L16 0L16 2L15 2L15 0L12 0L12 1L14 1L14 3L13 3L13 5L15 5L15 6L14 6L14 7L15 7L15 6L16 6L16 7L17 7L17 8L18 8L18 9L19 9L19 10L16 10L16 12L17 12L17 14L15 14L15 15L13 15L13 13L12 13L12 12L13 12L13 8L12 8L12 7L13 7L13 6L12 6L12 7L11 7L11 6L10 6L10 5L11 5L11 3L10 3L10 2L9 2L9 1L10 1L10 0ZM22 1L22 2L21 2L21 3L22 3L22 4L23 4L23 1ZM27 1L27 2L28 2L28 1ZM31 1L31 2L32 2L32 1ZM39 1L39 2L38 2L38 4L37 4L37 2L35 2L35 3L36 3L36 4L35 4L35 9L34 9L34 10L33 10L33 9L32 9L32 11L31 11L31 12L30 12L30 11L29 11L29 12L30 12L30 13L29 13L29 15L28 15L28 14L27 14L27 12L28 12L28 10L29 10L29 9L27 9L27 10L25 10L25 9L26 9L26 5L24 5L24 6L23 6L23 7L22 7L22 6L21 6L21 7L22 7L22 8L21 8L21 9L20 9L20 10L19 10L19 11L18 11L18 12L19 12L19 13L18 13L18 16L19 16L19 17L20 17L20 20L19 20L19 21L18 21L18 20L17 20L17 19L18 19L18 18L17 18L17 15L15 15L15 16L16 16L16 20L17 20L17 22L16 22L16 23L17 23L17 25L16 25L16 27L15 27L15 28L14 28L14 27L13 27L13 26L14 26L14 23L15 23L15 21L14 21L14 22L13 22L13 21L11 21L11 20L13 20L13 18L15 18L15 17L14 17L14 16L13 16L13 15L11 15L11 18L10 18L10 17L9 17L9 18L10 18L10 19L9 19L9 20L7 20L7 19L8 19L8 18L7 18L7 19L4 19L4 20L3 20L3 19L1 19L1 20L2 20L2 22L5 22L5 20L7 20L7 21L6 21L6 22L7 22L7 21L8 21L8 22L9 22L9 24L11 24L11 23L13 23L13 24L12 24L12 25L13 25L13 26L12 26L12 28L14 28L14 29L15 29L15 30L14 30L14 31L15 31L15 32L14 32L14 33L13 33L13 32L11 32L11 33L12 33L12 34L11 34L11 35L10 35L10 33L9 33L9 31L6 31L6 32L8 32L8 33L9 33L9 35L8 35L8 34L7 34L7 35L6 35L6 36L7 36L7 37L5 37L5 36L3 36L3 39L2 39L2 36L1 36L1 39L2 39L2 40L4 40L4 39L5 39L5 41L4 41L4 42L3 42L3 43L2 43L2 44L1 44L1 45L3 45L3 43L5 43L5 44L7 44L7 45L5 45L5 46L3 46L3 47L5 47L5 46L7 46L7 45L8 45L8 44L7 44L7 43L6 43L6 42L7 42L7 41L6 41L6 40L8 40L8 39L9 39L9 38L10 38L10 37L11 37L11 36L12 36L12 38L13 38L13 40L11 40L11 39L10 39L10 41L8 41L8 43L9 43L9 42L10 42L10 44L9 44L9 46L10 46L10 45L11 45L11 43L12 43L12 45L14 45L14 43L13 43L13 41L14 41L14 42L15 42L15 43L16 43L16 42L17 42L17 39L18 39L18 40L19 40L19 41L20 41L20 42L19 42L19 43L18 43L18 44L19 44L19 43L20 43L20 44L21 44L21 45L20 45L20 46L22 46L22 48L21 48L21 47L20 47L20 48L19 48L19 49L18 49L18 50L19 50L19 49L20 49L20 51L22 51L22 48L23 48L23 49L24 49L24 51L23 51L23 52L24 52L24 51L25 51L25 54L24 54L24 55L25 55L25 54L26 54L26 55L28 55L28 53L26 53L26 50L25 50L25 46L26 46L26 48L27 48L27 47L28 47L28 48L29 48L29 47L30 47L30 48L31 48L31 50L32 50L32 48L33 48L33 49L34 49L34 50L33 50L33 51L34 51L34 52L35 52L35 53L34 53L34 55L35 55L35 53L36 53L36 52L35 52L35 51L37 51L37 49L36 49L36 48L37 48L37 47L38 47L38 51L39 51L39 49L40 49L40 51L41 51L41 49L42 49L42 50L43 50L43 51L44 51L44 50L45 50L45 49L44 49L44 48L46 48L46 50L47 50L47 44L48 44L48 42L49 42L49 41L51 41L51 40L48 40L48 39L49 39L49 37L50 37L50 38L51 38L51 37L52 37L52 38L53 38L53 37L54 37L54 38L55 38L55 37L54 37L54 36L55 36L55 33L54 33L54 32L55 32L55 31L56 31L56 30L54 30L54 32L53 32L53 31L52 31L52 32L51 32L51 31L49 31L49 32L50 32L50 33L49 33L49 34L48 34L48 33L46 33L46 34L45 34L45 33L44 33L44 34L43 34L43 33L42 33L42 31L45 31L45 30L46 30L46 31L47 31L47 29L48 29L48 28L46 28L46 29L44 29L44 30L43 30L43 28L42 28L42 31L40 31L40 30L39 30L39 29L40 29L40 28L41 28L41 27L40 27L40 26L41 26L41 25L40 25L40 26L39 26L39 23L41 23L41 24L42 24L42 27L43 27L43 26L44 26L44 27L46 27L46 26L47 26L47 25L46 25L46 23L47 23L47 24L48 24L48 26L49 26L49 24L50 24L50 26L52 26L52 24L53 24L53 25L54 25L54 26L55 26L55 27L54 27L54 28L53 28L53 29L55 29L55 28L56 28L56 24L55 24L55 23L56 23L56 21L55 21L55 19L54 19L54 17L52 17L52 15L53 15L53 14L54 14L54 16L55 16L55 17L56 17L56 16L55 16L55 15L56 15L56 13L55 13L55 11L56 11L56 10L55 10L55 11L54 11L54 12L53 12L53 14L52 14L52 13L50 13L50 11L51 11L51 12L52 12L52 11L51 11L51 10L52 10L52 9L50 9L50 11L49 11L49 8L48 8L48 10L47 10L47 9L46 9L46 8L47 8L47 7L46 7L46 6L45 6L45 5L44 5L44 4L45 4L45 1L42 1L42 3L41 3L41 2L40 2L40 1ZM46 1L46 2L47 2L47 1ZM39 2L39 4L38 4L38 5L37 5L37 6L36 6L36 10L34 10L34 11L32 11L32 14L31 14L31 16L30 16L30 15L29 15L29 16L30 16L30 17L28 17L28 18L30 18L30 17L31 17L31 18L32 18L32 19L30 19L30 20L28 20L28 19L27 19L27 16L26 16L26 15L27 15L27 14L26 14L26 15L25 15L25 16L26 16L26 18L24 18L24 16L22 16L22 14L21 14L21 16L20 16L20 17L21 17L21 18L22 18L22 20L20 20L20 21L21 21L21 22L20 22L20 23L21 23L21 24L22 24L22 25L21 25L21 27L20 27L20 24L18 24L18 25L19 25L19 27L18 27L18 28L19 28L19 31L20 31L20 32L21 32L21 31L20 31L20 29L21 29L21 30L22 30L22 33L23 33L23 34L22 34L22 35L25 35L25 36L24 36L24 37L26 37L26 38L27 38L27 36L28 36L28 37L29 37L29 36L28 36L28 35L31 35L31 36L30 36L30 40L28 40L28 41L27 41L27 40L25 40L25 41L26 41L26 42L24 42L24 43L25 43L25 45L26 45L26 46L28 46L28 47L29 47L29 46L28 46L28 45L27 45L27 42L28 42L28 44L30 44L30 45L31 45L31 46L30 46L30 47L31 47L31 48L32 48L32 46L33 46L33 47L34 47L34 48L35 48L35 47L34 47L34 45L33 45L33 44L36 44L36 45L37 45L37 46L36 46L36 47L37 47L37 46L38 46L38 45L37 45L37 44L40 44L40 46L39 46L39 47L40 47L40 49L41 49L41 47L42 47L42 45L43 45L43 44L42 44L42 45L41 45L41 44L40 44L40 43L45 43L45 44L44 44L44 45L45 45L45 46L44 46L44 47L46 47L46 44L47 44L47 43L46 43L46 40L47 40L47 41L48 41L48 40L47 40L47 38L48 38L48 37L49 37L49 35L48 35L48 34L46 34L46 37L45 37L45 34L44 34L44 38L43 38L43 39L42 39L42 36L43 36L43 35L42 35L42 36L41 36L41 35L40 35L40 36L39 36L39 38L38 38L38 37L37 37L37 36L38 36L38 35L39 35L39 34L38 34L38 33L39 33L39 32L40 32L40 34L42 34L42 33L41 33L41 32L40 32L40 31L38 31L38 30L37 30L37 31L36 31L36 29L37 29L37 28L38 28L38 29L39 29L39 26L38 26L38 25L37 25L37 24L36 24L36 23L37 23L37 22L38 22L38 23L39 23L39 22L38 22L38 21L39 21L39 19L40 19L40 22L41 22L41 23L43 23L43 22L44 22L44 23L45 23L45 22L46 22L46 21L47 21L47 23L48 23L48 24L49 24L49 23L50 23L50 24L52 24L52 22L53 22L53 24L54 24L54 25L55 25L55 24L54 24L54 22L55 22L55 21L54 21L54 19L53 19L53 20L52 20L52 22L51 22L51 23L50 23L50 22L49 22L49 23L48 23L48 19L49 19L49 20L51 20L51 19L52 19L52 17L51 17L51 15L52 15L52 14L51 14L51 15L50 15L50 13L49 13L49 14L48 14L48 12L49 12L49 11L48 11L48 12L47 12L47 11L46 11L46 13L45 13L45 12L44 12L44 11L43 11L43 10L42 10L42 9L41 9L41 8L42 8L42 7L43 7L43 6L44 6L44 7L45 7L45 6L44 6L44 5L43 5L43 4L44 4L44 2L43 2L43 3L42 3L42 7L41 7L41 6L40 6L40 7L41 7L41 8L40 8L40 9L41 9L41 10L40 10L40 18L38 18L38 16L37 16L37 15L38 15L38 13L37 13L37 12L39 12L39 10L38 10L38 9L37 9L37 8L39 8L39 6L38 6L38 5L39 5L39 4L40 4L40 2ZM14 3L14 4L15 4L15 3ZM26 3L26 4L27 4L27 3ZM46 3L46 5L47 5L47 3ZM17 4L17 5L16 5L16 6L17 6L17 7L18 7L18 6L17 6L17 5L18 5L18 4ZM27 5L27 8L30 8L30 5ZM9 6L9 7L10 7L10 8L9 8L9 9L8 9L8 10L9 10L9 11L10 11L10 12L9 12L9 13L10 13L10 12L12 12L12 9L10 9L10 8L11 8L11 7L10 7L10 6ZM24 6L24 7L25 7L25 6ZM28 6L28 7L29 7L29 6ZM37 6L37 7L38 7L38 6ZM14 8L14 9L15 9L15 8ZM22 8L22 9L23 9L23 11L22 11L22 12L23 12L23 15L24 15L24 13L26 13L26 11L24 11L24 8ZM44 8L44 10L46 10L46 9L45 9L45 8ZM2 9L2 10L1 10L1 11L2 11L2 10L3 10L3 9ZM6 9L6 10L7 10L7 9ZM9 9L9 10L10 10L10 11L11 11L11 10L10 10L10 9ZM30 9L30 10L31 10L31 9ZM20 10L20 11L19 11L19 12L20 12L20 13L19 13L19 15L20 15L20 13L21 13L21 10ZM37 10L37 11L38 11L38 10ZM41 10L41 12L42 12L42 15L41 15L41 17L42 17L42 18L43 18L43 17L44 17L44 19L43 19L43 20L42 20L42 19L41 19L41 18L40 18L40 19L41 19L41 20L42 20L42 22L43 22L43 21L44 21L44 22L45 22L45 21L46 21L46 20L47 20L47 19L45 19L45 17L44 17L44 16L46 16L46 15L48 15L48 14L47 14L47 13L46 13L46 15L44 15L44 16L43 16L43 13L44 13L44 12L42 12L42 10ZM14 11L14 12L15 12L15 11ZM34 11L34 12L35 12L35 13L34 13L34 15L33 15L33 14L32 14L32 15L33 15L33 17L32 17L32 16L31 16L31 17L32 17L32 18L33 18L33 19L34 19L34 20L35 20L35 21L34 21L34 22L35 22L35 23L36 23L36 22L37 22L37 21L38 21L38 19L37 19L37 18L36 18L36 14L37 14L37 13L36 13L36 11ZM6 13L6 14L7 14L7 13ZM11 13L11 14L12 14L12 13ZM9 14L9 15L10 15L10 14ZM34 15L34 17L33 17L33 18L34 18L34 19L35 19L35 20L36 20L36 21L35 21L35 22L36 22L36 21L37 21L37 19L36 19L36 18L34 18L34 17L35 17L35 15ZM12 16L12 18L11 18L11 19L12 19L12 18L13 18L13 16ZM47 16L47 17L46 17L46 18L47 18L47 17L48 17L48 18L49 18L49 19L50 19L50 18L51 18L51 17L50 17L50 16L49 16L49 17L48 17L48 16ZM49 17L49 18L50 18L50 17ZM14 19L14 20L15 20L15 19ZM24 19L24 20L25 20L25 21L26 21L26 20L27 20L27 21L28 21L28 20L27 20L27 19L26 19L26 20L25 20L25 19ZM44 19L44 21L45 21L45 19ZM9 20L9 21L10 21L10 20ZM31 20L31 21L30 21L30 23L29 23L29 26L31 26L31 25L32 25L32 28L31 28L31 29L32 29L32 30L33 30L33 29L34 29L34 31L32 31L32 32L30 32L30 34L32 34L32 32L34 32L34 35L35 35L35 37L34 37L34 36L33 36L33 37L34 37L34 38L35 38L35 41L34 41L34 39L33 39L33 38L31 38L31 40L30 40L30 42L29 42L29 41L28 41L28 42L29 42L29 43L30 43L30 44L31 44L31 43L32 43L32 40L33 40L33 41L34 41L34 42L35 42L35 41L36 41L36 44L37 44L37 43L40 43L40 42L39 42L39 41L40 41L40 40L41 40L41 39L40 39L40 38L39 38L39 39L40 39L40 40L39 40L39 41L38 41L38 38L37 38L37 37L36 37L36 35L38 35L38 34L37 34L37 33L36 33L36 31L35 31L35 29L36 29L36 28L37 28L37 26L36 26L36 24L34 24L34 23L33 23L33 24L34 24L34 26L33 26L33 25L32 25L32 23L31 23L31 22L33 22L33 21L32 21L32 20ZM53 21L53 22L54 22L54 21ZM10 22L10 23L11 23L11 22ZM18 22L18 23L19 23L19 22ZM22 22L22 24L23 24L23 22ZM24 22L24 23L25 23L25 22ZM26 22L26 23L27 23L27 25L26 25L26 26L28 26L28 22ZM2 23L2 24L3 24L3 25L5 25L5 26L8 26L8 25L6 25L6 24L8 24L8 23L6 23L6 24L5 24L5 23L4 23L4 24L3 24L3 23ZM30 23L30 25L31 25L31 23ZM44 24L44 25L45 25L45 26L46 26L46 25L45 25L45 24ZM24 25L24 26L23 26L23 27L22 27L22 28L23 28L23 29L22 29L22 30L23 30L23 32L24 32L24 34L25 34L25 35L26 35L26 36L27 36L27 35L28 35L28 34L29 34L29 32L28 32L28 31L27 31L27 33L28 33L28 34L26 34L26 33L25 33L25 32L26 32L26 30L25 30L25 29L24 29L24 28L25 28L25 27L24 27L24 26L25 26L25 25ZM9 26L9 29L10 29L10 30L11 30L11 31L12 31L12 30L13 30L13 29L12 29L12 30L11 30L11 27L10 27L10 26ZM5 27L5 30L8 30L8 27ZM19 27L19 28L20 28L20 27ZM23 27L23 28L24 28L24 27ZM27 27L27 30L30 30L30 27ZM34 27L34 29L35 29L35 28L36 28L36 27ZM49 27L49 30L52 30L52 27ZM6 28L6 29L7 29L7 28ZM28 28L28 29L29 29L29 28ZM32 28L32 29L33 29L33 28ZM50 28L50 29L51 29L51 28ZM23 29L23 30L24 30L24 29ZM15 30L15 31L16 31L16 32L15 32L15 33L14 33L14 34L13 34L13 35L12 35L12 36L14 36L14 37L15 37L15 36L14 36L14 35L16 35L16 37L17 37L17 38L16 38L16 39L17 39L17 38L19 38L19 40L20 40L20 41L21 41L21 40L22 40L22 41L23 41L23 40L22 40L22 37L23 37L23 36L22 36L22 37L21 37L21 36L18 36L18 35L16 35L16 33L17 33L17 32L18 32L18 34L19 34L19 35L20 35L20 33L19 33L19 32L18 32L18 30L17 30L17 31L16 31L16 30ZM24 31L24 32L25 32L25 31ZM37 31L37 32L38 32L38 31ZM2 32L2 33L3 33L3 32ZM35 33L35 35L36 35L36 33ZM50 33L50 37L51 37L51 33ZM53 34L53 36L52 36L52 37L53 37L53 36L54 36L54 34ZM9 35L9 36L10 36L10 35ZM47 35L47 36L48 36L48 35ZM17 36L17 37L18 37L18 36ZM31 36L31 37L32 37L32 36ZM7 37L7 38L6 38L6 39L8 39L8 37ZM35 37L35 38L36 38L36 41L37 41L37 42L38 42L38 41L37 41L37 38L36 38L36 37ZM46 37L46 38L45 38L45 40L46 40L46 38L47 38L47 37ZM20 38L20 39L21 39L21 38ZM24 38L24 39L25 39L25 38ZM28 38L28 39L29 39L29 38ZM14 40L14 41L15 41L15 40ZM43 40L43 41L42 41L42 42L43 42L43 41L44 41L44 40ZM5 41L5 42L6 42L6 41ZM10 41L10 42L12 42L12 41ZM30 42L30 43L31 43L31 42ZM56 42L56 43L57 43L57 42ZM22 43L22 44L23 44L23 48L24 48L24 44L23 44L23 43ZM15 44L15 45L16 45L16 47L17 47L17 44ZM18 45L18 47L19 47L19 45ZM1 46L1 47L2 47L2 46ZM40 46L40 47L41 47L41 46ZM20 48L20 49L21 49L21 48ZM27 49L27 52L30 52L30 49ZM43 49L43 50L44 50L44 49ZM49 49L49 52L52 52L52 49ZM15 50L15 51L14 51L14 52L13 52L13 51L12 51L12 53L11 53L11 54L9 54L9 55L10 55L10 56L13 56L13 55L12 55L12 53L13 53L13 54L14 54L14 55L15 55L15 52L17 52L17 53L18 53L18 51L16 51L16 50ZM28 50L28 51L29 51L29 50ZM34 50L34 51L35 51L35 50ZM50 50L50 51L51 51L51 50ZM10 51L10 52L11 52L11 51ZM31 51L31 52L32 52L32 51ZM45 51L45 52L46 52L46 54L47 54L47 52L48 52L48 51L47 51L47 52L46 52L46 51ZM39 52L39 53L40 53L40 52ZM41 52L41 53L42 53L42 52ZM31 53L31 54L30 54L30 55L33 55L33 54L32 54L32 53ZM48 53L48 54L49 54L49 53ZM16 54L16 55L17 55L17 54ZM40 54L40 56L41 56L41 55L42 55L42 54ZM45 55L45 56L46 56L46 55ZM36 56L36 57L37 57L37 56ZM51 56L51 57L53 57L53 56ZM56 56L56 57L57 57L57 56ZM0 0L0 7L7 7L7 0ZM1 1L1 6L6 6L6 1ZM2 2L2 5L5 5L5 2ZM50 0L50 7L57 7L57 0ZM51 1L51 6L56 6L56 1ZM52 2L52 5L55 5L55 2ZM0 50L0 57L7 57L7 50ZM1 51L1 56L6 56L6 51ZM2 52L2 55L5 55L5 52Z" fill="#000000"/></g></g></svg>
