<?xml version="1.0" encoding="UTF-8"?>
<svg xmlns="http://www.w3.org/2000/svg" version="1.1" width="300" height="300" viewBox="0 0 300 300"><rect x="0" y="0" width="300" height="300" fill="#fefefe"/><g transform="scale(4.615)"><g transform="translate(4,4)"><path fill-rule="evenodd" d="M8 0L8 1L9 1L9 0ZM10 0L10 1L12 1L12 2L11 2L11 3L10 3L10 2L8 2L8 5L10 5L10 8L8 8L8 9L10 9L10 8L11 8L11 5L10 5L10 4L12 4L12 7L13 7L13 6L14 6L14 7L15 7L15 6L16 6L16 7L17 7L17 10L16 10L16 13L17 13L17 12L18 12L18 13L19 13L19 14L21 14L21 12L20 12L20 13L19 13L19 12L18 12L18 10L19 10L19 11L23 11L23 10L25 10L25 11L24 11L24 12L22 12L22 13L23 13L23 14L24 14L24 15L23 15L23 18L22 18L22 17L21 17L21 15L20 15L20 17L21 17L21 18L20 18L20 20L21 20L21 22L19 22L19 21L18 21L18 19L17 19L17 20L16 20L16 23L14 23L14 20L15 20L15 19L12 19L12 18L13 18L13 17L12 17L12 18L11 18L11 19L12 19L12 20L13 20L13 23L10 23L10 22L12 22L12 21L9 21L9 19L10 19L10 17L11 17L11 16L10 16L10 13L14 13L14 18L17 18L17 16L16 16L16 15L17 15L17 14L16 14L16 15L15 15L15 11L14 11L14 10L13 10L13 8L12 8L12 10L10 10L10 11L8 11L8 12L6 12L6 13L4 13L4 12L3 12L3 11L5 11L5 10L6 10L6 11L7 11L7 10L6 10L6 9L7 9L7 8L6 8L6 9L4 9L4 8L0 8L0 9L1 9L1 11L0 11L0 12L1 12L1 13L0 13L0 14L1 14L1 15L0 15L0 16L1 16L1 17L0 17L0 18L2 18L2 14L3 14L3 15L4 15L4 14L6 14L6 15L5 15L5 16L4 16L4 19L3 19L3 20L2 20L2 22L1 22L1 23L0 23L0 24L1 24L1 25L2 25L2 26L3 26L3 25L4 25L4 29L3 29L3 31L1 31L1 32L3 32L3 31L7 31L7 32L5 32L5 33L2 33L2 34L1 34L1 33L0 33L0 34L1 34L1 35L2 35L2 37L1 37L1 36L0 36L0 37L1 37L1 39L0 39L0 41L3 41L3 42L4 42L4 43L3 43L3 44L4 44L4 43L5 43L5 47L3 47L3 46L2 46L2 47L1 47L1 46L0 46L0 48L5 48L5 47L7 47L7 48L6 48L6 49L7 49L7 48L8 48L8 50L9 50L9 51L12 51L12 52L9 52L9 53L8 53L8 57L9 57L9 53L10 53L10 56L11 56L11 57L12 57L12 54L14 54L14 57L18 57L18 56L17 56L17 54L18 54L18 55L20 55L20 56L21 56L21 57L23 57L23 54L26 54L26 55L27 55L27 56L28 56L28 55L27 55L27 53L29 53L29 54L31 54L31 55L30 55L30 56L31 56L31 57L32 57L32 55L33 55L33 54L36 54L36 55L34 55L34 56L33 56L33 57L36 57L36 55L38 55L38 57L41 57L41 56L42 56L42 57L43 57L43 55L44 55L44 56L45 56L45 55L46 55L46 56L47 56L47 55L48 55L48 56L49 56L49 57L51 57L51 54L52 54L52 53L53 53L53 54L56 54L56 53L57 53L57 52L55 52L55 50L57 50L57 48L56 48L56 49L55 49L55 50L53 50L53 48L54 48L54 47L57 47L57 45L56 45L56 44L53 44L53 46L52 46L52 43L53 43L53 42L54 42L54 43L56 43L56 41L57 41L57 40L56 40L56 41L55 41L55 42L54 42L54 40L55 40L55 38L56 38L56 39L57 39L57 38L56 38L56 36L54 36L54 35L57 35L57 34L56 34L56 33L57 33L57 31L56 31L56 30L57 30L57 27L56 27L56 28L55 28L55 27L53 27L53 26L52 26L52 25L50 25L50 23L49 23L49 21L47 21L47 20L50 20L50 21L51 21L51 22L52 22L52 24L54 24L54 25L56 25L56 24L54 24L54 23L57 23L57 21L56 21L56 20L54 20L54 21L53 21L53 20L50 20L50 19L47 19L47 18L48 18L48 17L49 17L49 16L50 16L50 17L52 17L52 15L51 15L51 13L52 13L52 14L53 14L53 16L55 16L55 17L54 17L54 18L51 18L51 19L56 19L56 18L57 18L57 15L55 15L55 14L54 14L54 10L51 10L51 11L50 11L50 10L49 10L49 9L50 9L50 8L49 8L49 9L48 9L48 8L47 8L47 5L48 5L48 0L45 0L45 1L44 1L44 2L42 2L42 3L43 3L43 5L42 5L42 7L43 7L43 8L45 8L45 9L41 9L41 8L39 8L39 9L41 9L41 10L40 10L40 11L41 11L41 10L43 10L43 11L42 11L42 12L43 12L43 14L42 14L42 17L41 17L41 18L39 18L39 19L40 19L40 20L37 20L37 19L36 19L36 20L35 20L35 19L34 19L34 21L35 21L35 22L37 22L37 24L36 24L36 23L35 23L35 24L33 24L33 23L34 23L34 22L32 22L32 23L31 23L31 26L28 26L28 25L25 25L25 22L27 22L27 23L26 23L26 24L27 24L27 23L28 23L28 24L29 24L29 23L28 23L28 21L29 21L29 22L31 22L31 20L32 20L32 18L31 18L31 20L30 20L30 21L29 21L29 19L30 19L30 17L29 17L29 16L31 16L31 17L33 17L33 18L35 18L35 17L34 17L34 16L35 16L35 15L36 15L36 13L37 13L37 15L39 15L39 17L40 17L40 16L41 16L41 15L39 15L39 11L38 11L38 9L37 9L37 11L36 11L36 10L35 10L35 11L34 11L34 10L33 10L33 14L30 14L30 13L28 13L28 12L26 12L26 13L27 13L27 16L26 16L26 14L24 14L24 12L25 12L25 11L26 11L26 10L27 10L27 11L28 11L28 10L29 10L29 11L30 11L30 12L31 12L31 13L32 13L32 12L31 12L31 11L30 11L30 10L32 10L32 9L31 9L31 6L32 6L32 8L33 8L33 6L34 6L34 9L36 9L36 8L38 8L38 7L39 7L39 6L38 6L38 7L37 7L37 6L36 6L36 7L35 7L35 6L34 6L34 4L36 4L36 5L40 5L40 7L41 7L41 4L38 4L38 3L39 3L39 2L37 2L37 1L38 1L38 0L37 0L37 1L36 1L36 0L35 0L35 1L34 1L34 4L33 4L33 6L32 6L32 5L31 5L31 4L32 4L32 3L33 3L33 1L31 1L31 0L28 0L28 2L27 2L27 3L30 3L30 4L26 4L26 0L23 0L23 1L25 1L25 2L24 2L24 3L23 3L23 2L22 2L22 3L23 3L23 4L22 4L22 5L20 5L20 4L19 4L19 3L21 3L21 2L20 2L20 1L19 1L19 2L18 2L18 0L17 0L17 2L18 2L18 3L17 3L17 4L19 4L19 5L18 5L18 7L17 7L17 5L15 5L15 4L14 4L14 3L12 3L12 2L13 2L13 1L12 1L12 0ZM14 0L14 1L15 1L15 2L16 2L16 1L15 1L15 0ZM21 0L21 1L22 1L22 0ZM39 0L39 1L40 1L40 2L41 2L41 1L43 1L43 0L41 0L41 1L40 1L40 0ZM29 1L29 2L30 2L30 3L31 3L31 1ZM35 1L35 2L36 2L36 1ZM45 1L45 3L44 3L44 4L45 4L45 5L43 5L43 7L44 7L44 6L45 6L45 8L46 8L46 10L47 10L47 11L45 11L45 10L44 10L44 11L43 11L43 12L44 12L44 14L43 14L43 15L44 15L44 16L45 16L45 17L42 17L42 18L41 18L41 19L42 19L42 18L43 18L43 21L44 21L44 22L45 22L45 20L47 20L47 19L46 19L46 18L45 18L45 17L46 17L46 16L45 16L45 15L47 15L47 14L48 14L48 16L49 16L49 10L47 10L47 8L46 8L46 6L45 6L45 5L47 5L47 3L46 3L46 2L47 2L47 1ZM9 3L9 4L10 4L10 3ZM13 4L13 5L14 5L14 4ZM24 4L24 6L23 6L23 5L22 5L22 6L21 6L21 7L20 7L20 6L19 6L19 7L20 7L20 8L18 8L18 9L20 9L20 10L21 10L21 7L22 7L22 8L23 8L23 9L22 9L22 10L23 10L23 9L24 9L24 8L25 8L25 9L26 9L26 6L25 6L25 5L26 5L26 4ZM27 5L27 8L30 8L30 5ZM8 6L8 7L9 7L9 6ZM22 6L22 7L23 7L23 8L24 8L24 7L25 7L25 6L24 6L24 7L23 7L23 6ZM28 6L28 7L29 7L29 6ZM48 6L48 7L49 7L49 6ZM52 8L52 9L55 9L55 8ZM56 8L56 9L57 9L57 8ZM2 9L2 10L3 10L3 9ZM12 10L12 12L13 12L13 10ZM55 10L55 12L56 12L56 13L57 13L57 12L56 12L56 11L57 11L57 10ZM1 11L1 12L2 12L2 13L1 13L1 14L2 14L2 13L3 13L3 12L2 12L2 11ZM10 11L10 12L9 12L9 13L6 13L6 14L9 14L9 13L10 13L10 12L11 12L11 11ZM35 11L35 12L34 12L34 14L33 14L33 15L32 15L32 16L33 16L33 15L35 15L35 12L36 12L36 11ZM37 11L37 12L38 12L38 11ZM47 11L47 12L48 12L48 11ZM51 11L51 12L50 12L50 13L51 13L51 12L52 12L52 13L53 13L53 11ZM40 13L40 14L41 14L41 13ZM45 13L45 14L46 14L46 13ZM12 14L12 15L13 15L13 14ZM6 15L6 16L7 16L7 17L5 17L5 19L4 19L4 22L2 22L2 23L1 23L1 24L2 24L2 25L3 25L3 24L4 24L4 25L5 25L5 24L7 24L7 25L6 25L6 26L10 26L10 27L9 27L9 28L11 28L11 29L9 29L9 31L8 31L8 32L7 32L7 33L6 33L6 34L7 34L7 35L5 35L5 36L7 36L7 37L2 37L2 38L3 38L3 39L2 39L2 40L8 40L8 37L10 37L10 41L9 41L9 42L10 42L10 43L9 43L9 44L8 44L8 46L7 46L7 45L6 45L6 46L7 46L7 47L9 47L9 49L11 49L11 50L12 50L12 48L11 48L11 47L10 47L10 46L9 46L9 44L10 44L10 45L11 45L11 46L12 46L12 47L14 47L14 49L15 49L15 48L16 48L16 50L15 50L15 51L17 51L17 52L15 52L15 53L16 53L16 54L17 54L17 53L18 53L18 54L19 54L19 52L18 52L18 51L19 51L19 49L20 49L20 47L19 47L19 49L17 49L17 48L18 48L18 47L17 47L17 45L20 45L20 46L21 46L21 47L22 47L22 46L23 46L23 45L24 45L24 43L23 43L23 44L22 44L22 41L23 41L23 42L25 42L25 43L26 43L26 45L25 45L25 46L24 46L24 49L23 49L23 48L21 48L21 50L22 50L22 49L23 49L23 51L22 51L22 53L20 53L20 55L21 55L21 56L22 56L22 54L23 54L23 52L24 52L24 53L25 53L25 52L26 52L26 50L25 50L25 47L26 47L26 48L28 48L28 47L29 47L29 48L32 48L32 49L31 49L31 53L32 53L32 51L33 51L33 52L34 52L34 53L36 53L36 54L39 54L39 53L37 53L37 51L36 51L36 52L34 52L34 51L33 51L33 48L34 48L34 50L35 50L35 48L37 48L37 49L36 49L36 50L37 50L37 49L38 49L38 48L39 48L39 49L40 49L40 50L39 50L39 52L40 52L40 54L41 54L41 55L40 55L40 56L41 56L41 55L42 55L42 54L43 54L43 52L42 52L42 51L44 51L44 50L43 50L43 47L46 47L46 46L47 46L47 45L48 45L48 47L49 47L49 48L50 48L50 47L49 47L49 45L48 45L48 43L47 43L47 44L43 44L43 43L44 43L44 42L45 42L45 41L43 41L43 39L42 39L42 42L43 42L43 43L42 43L42 45L43 45L43 47L39 47L39 46L41 46L41 45L40 45L40 44L39 44L39 43L41 43L41 39L40 39L40 42L39 42L39 41L37 41L37 40L38 40L38 39L39 39L39 38L38 38L38 39L37 39L37 37L39 37L39 36L40 36L40 37L41 37L41 36L42 36L42 38L44 38L44 39L45 39L45 40L46 40L46 41L47 41L47 42L50 42L50 43L49 43L49 44L51 44L51 42L50 42L50 41L52 41L52 40L50 40L50 41L47 41L47 40L49 40L49 38L48 38L48 36L46 36L46 35L47 35L47 34L48 34L48 35L49 35L49 34L50 34L50 33L49 33L49 32L50 32L50 31L49 31L49 32L48 32L48 26L49 26L49 25L48 25L48 24L47 24L47 25L46 25L46 23L44 23L44 26L43 26L43 23L42 23L42 24L41 24L41 23L40 23L40 24L38 24L38 25L40 25L40 29L38 29L38 30L36 30L36 29L37 29L37 28L36 28L36 27L35 27L35 25L34 25L34 27L35 27L35 28L34 28L34 29L35 29L35 31L34 31L34 32L33 32L33 31L31 31L31 34L30 34L30 35L29 35L29 33L30 33L30 32L28 32L28 33L27 33L27 34L26 34L26 32L27 32L27 31L26 31L26 32L25 32L25 31L24 31L24 32L23 32L23 33L22 33L22 34L21 34L21 32L22 32L22 31L23 31L23 30L21 30L21 29L23 29L23 27L22 27L22 26L21 26L21 29L18 29L18 28L20 28L20 25L19 25L19 27L17 27L17 24L19 24L19 22L18 22L18 21L17 21L17 23L16 23L16 24L14 24L14 23L13 23L13 24L14 24L14 26L13 26L13 25L12 25L12 24L11 24L11 26L10 26L10 25L8 25L8 24L10 24L10 23L8 23L8 24L7 24L7 23L6 23L6 22L7 22L7 21L8 21L8 20L7 20L7 19L9 19L9 17L10 17L10 16L8 16L8 15ZM24 15L24 16L25 16L25 17L24 17L24 18L23 18L23 19L21 19L21 20L23 20L23 21L22 21L22 22L21 22L21 23L20 23L20 24L21 24L21 23L22 23L22 22L23 22L23 21L24 21L24 22L25 22L25 19L24 19L24 18L27 18L27 20L26 20L26 21L27 21L27 20L28 20L28 18L29 18L29 17L26 17L26 16L25 16L25 15ZM28 15L28 16L29 16L29 15ZM50 15L50 16L51 16L51 15ZM18 17L18 18L19 18L19 17ZM36 17L36 18L37 18L37 17ZM55 17L55 18L56 18L56 17ZM6 18L6 19L5 19L5 20L6 20L6 21L7 21L7 20L6 20L6 19L7 19L7 18ZM44 18L44 19L45 19L45 18ZM0 19L0 21L1 21L1 19ZM36 20L36 21L37 21L37 20ZM41 20L41 21L42 21L42 20ZM38 21L38 22L39 22L39 21ZM46 21L46 22L47 22L47 21ZM54 21L54 22L56 22L56 21ZM4 22L4 23L5 23L5 22ZM22 24L22 25L23 25L23 26L24 26L24 27L25 27L25 25L23 25L23 24ZM32 24L32 25L33 25L33 24ZM15 25L15 26L14 26L14 27L13 27L13 26L11 26L11 28L12 28L12 29L11 29L11 30L12 30L12 29L14 29L14 31L15 31L15 32L13 32L13 31L12 31L12 33L14 33L14 36L17 36L17 37L18 37L18 38L19 38L19 40L21 40L21 41L22 41L22 39L24 39L24 41L25 41L25 42L27 42L27 44L30 44L30 46L31 46L31 47L33 47L33 45L34 45L34 44L35 44L35 46L34 46L34 47L38 47L38 45L39 45L39 44L38 44L38 43L39 43L39 42L37 42L37 44L38 44L38 45L36 45L36 44L35 44L35 43L34 43L34 42L36 42L36 41L34 41L34 40L35 40L35 39L36 39L36 38L35 38L35 39L33 39L33 38L34 38L34 37L33 37L33 38L32 38L32 36L33 36L33 34L32 34L32 36L29 36L29 35L28 35L28 34L27 34L27 35L26 35L26 36L23 36L23 35L24 35L24 34L25 34L25 32L24 32L24 33L23 33L23 34L22 34L22 36L23 36L23 37L22 37L22 39L21 39L21 38L20 38L20 37L19 37L19 35L18 35L18 36L17 36L17 35L16 35L16 34L15 34L15 33L17 33L17 34L20 34L20 36L21 36L21 34L20 34L20 33L18 33L18 31L19 31L19 32L21 32L21 31L19 31L19 30L17 30L17 28L16 28L16 27L15 27L15 26L16 26L16 25ZM45 25L45 26L46 26L46 30L45 30L45 31L46 31L46 33L47 33L47 26L46 26L46 25ZM38 26L38 27L39 27L39 26ZM42 26L42 27L41 27L41 30L42 30L42 29L45 29L45 27L43 27L43 26ZM0 27L0 28L1 28L1 29L0 29L0 30L2 30L2 27ZM5 27L5 30L8 30L8 27ZM14 27L14 28L15 28L15 27ZM27 27L27 30L30 30L30 27ZM32 27L32 28L33 28L33 27ZM42 27L42 28L43 28L43 27ZM49 27L49 30L52 30L52 27ZM6 28L6 29L7 29L7 28ZM24 28L24 30L26 30L26 28ZM28 28L28 29L29 29L29 28ZM50 28L50 29L51 29L51 28ZM53 28L53 30L54 30L54 28ZM15 29L15 30L16 30L16 32L17 32L17 30L16 30L16 29ZM31 29L31 30L33 30L33 29ZM55 29L55 30L56 30L56 29ZM38 30L38 31L39 31L39 34L38 34L38 32L37 32L37 31L35 31L35 32L34 32L34 33L35 33L35 35L36 35L36 36L35 36L35 37L37 37L37 35L41 35L41 34L42 34L42 36L43 36L43 37L44 37L44 36L45 36L45 35L46 35L46 34L45 34L45 33L44 33L44 31L41 31L41 32L40 32L40 30ZM9 31L9 34L8 34L8 33L7 33L7 34L8 34L8 35L10 35L10 37L11 37L11 36L12 36L12 38L13 38L13 39L12 39L12 40L11 40L11 42L12 42L12 41L14 41L14 40L15 40L15 41L16 41L16 42L18 42L18 43L19 43L19 44L20 44L20 45L21 45L21 46L22 46L22 44L21 44L21 43L19 43L19 41L18 41L18 39L17 39L17 38L15 38L15 37L14 37L14 38L13 38L13 36L12 36L12 35L13 35L13 34L11 34L11 33L10 33L10 31ZM52 31L52 34L54 34L54 33L55 33L55 31ZM36 32L36 33L37 33L37 32ZM42 32L42 33L43 33L43 32ZM53 32L53 33L54 33L54 32ZM2 34L2 35L3 35L3 36L4 36L4 35L3 35L3 34ZM10 34L10 35L11 35L11 34ZM43 34L43 35L44 35L44 34ZM51 35L51 37L52 37L52 38L50 38L50 39L53 39L53 38L55 38L55 37L53 37L53 36L52 36L52 35ZM27 36L27 38L29 38L29 36ZM24 37L24 39L25 39L25 41L26 41L26 40L27 40L27 39L26 39L26 37ZM45 37L45 39L46 39L46 40L47 40L47 39L48 39L48 38L46 38L46 37ZM6 38L6 39L7 39L7 38ZM14 38L14 39L13 39L13 40L14 40L14 39L15 39L15 38ZM30 38L30 39L28 39L28 41L29 41L29 42L30 42L30 41L31 41L31 40L33 40L33 39L32 39L32 38ZM16 39L16 40L17 40L17 39ZM4 41L4 42L5 42L5 41ZM6 41L6 42L7 42L7 41ZM1 42L1 43L0 43L0 45L2 45L2 44L1 44L1 43L2 43L2 42ZM13 42L13 43L14 43L14 46L15 46L15 47L16 47L16 48L17 48L17 47L16 47L16 46L15 46L15 45L17 45L17 43L16 43L16 44L15 44L15 43L14 43L14 42ZM32 42L32 43L31 43L31 46L32 46L32 45L33 45L33 42ZM6 43L6 44L7 44L7 43ZM10 43L10 44L11 44L11 45L12 45L12 46L13 46L13 44L12 44L12 43ZM26 45L26 46L27 46L27 47L28 47L28 46L27 46L27 45ZM44 45L44 46L45 46L45 45ZM50 45L50 46L51 46L51 45ZM55 45L55 46L56 46L56 45ZM53 46L53 47L51 47L51 48L53 48L53 47L54 47L54 46ZM41 48L41 49L42 49L42 48ZM44 48L44 49L46 49L46 50L45 50L45 51L47 51L47 52L48 52L48 48ZM27 49L27 52L30 52L30 49ZM49 49L49 52L52 52L52 49ZM13 50L13 51L14 51L14 50ZM24 50L24 51L25 51L25 50ZM28 50L28 51L29 51L29 50ZM50 50L50 51L51 51L51 50ZM40 51L40 52L41 52L41 51ZM45 52L45 53L46 53L46 52ZM54 52L54 53L55 53L55 52ZM11 53L11 54L12 54L12 53ZM41 53L41 54L42 54L42 53ZM47 53L47 54L50 54L50 53ZM44 54L44 55L45 55L45 54ZM24 55L24 56L25 56L25 55ZM56 55L56 56L57 56L57 55ZM52 56L52 57L53 57L53 56ZM54 56L54 57L55 57L55 56ZM0 0L0 7L7 7L7 0ZM1 1L1 6L6 6L6 1ZM2 2L2 5L5 5L5 2ZM50 0L50 7L57 7L57 0ZM51 1L51 6L56 6L56 1ZM52 2L52 5L55 5L55 2ZM0 50L0 57L7 57L7 50ZM1 51L1 56L6 56L6 51ZM2 52L2 55L5 55L5 52Z" fill="#000000"/></g></g></svg>
