<?xml version="1.0" encoding="UTF-8"?>
<svg xmlns="http://www.w3.org/2000/svg" version="1.1" width="300" height="300" viewBox="0 0 300 300"><rect x="0" y="0" width="300" height="300" fill="#fefefe"/><g transform="scale(4.615)"><g transform="translate(4,4)"><path fill-rule="evenodd" d="M8 0L8 1L9 1L9 0ZM10 0L10 1L11 1L11 2L8 2L8 5L9 5L9 4L10 4L10 5L11 5L11 6L10 6L10 7L11 7L11 8L8 8L8 9L7 9L7 8L6 8L6 9L7 9L7 10L4 10L4 8L0 8L0 9L2 9L2 11L1 11L1 10L0 10L0 13L1 13L1 16L0 16L0 17L2 17L2 18L0 18L0 22L1 22L1 19L5 19L5 20L2 20L2 23L0 23L0 24L2 24L2 25L3 25L3 26L1 26L1 25L0 25L0 27L3 27L3 28L4 28L4 29L2 29L2 31L1 31L1 30L0 30L0 31L1 31L1 32L0 32L0 33L1 33L1 34L0 34L0 35L1 35L1 36L2 36L2 38L1 38L1 39L2 39L2 38L5 38L5 39L3 39L3 40L1 40L1 43L2 43L2 45L1 45L1 46L0 46L0 48L5 48L5 47L7 47L7 48L6 48L6 49L8 49L8 50L9 50L9 53L8 53L8 57L9 57L9 56L10 56L10 57L11 57L11 56L12 56L12 55L13 55L13 54L14 54L14 55L15 55L15 56L16 56L16 57L18 57L18 55L20 55L20 56L19 56L19 57L20 57L20 56L21 56L21 57L23 57L23 56L22 56L22 55L23 55L23 54L27 54L27 53L29 53L29 54L31 54L31 55L30 55L30 56L31 56L31 57L32 57L32 55L33 55L33 54L36 54L36 55L34 55L34 56L33 56L33 57L36 57L36 55L37 55L37 54L36 54L36 53L34 53L34 52L36 52L36 51L38 51L38 52L39 52L39 54L38 54L38 57L42 57L42 56L46 56L46 57L47 57L47 56L48 56L48 57L51 57L51 54L52 54L52 53L53 53L53 54L54 54L54 52L55 52L55 54L56 54L56 53L57 53L57 51L55 51L55 50L53 50L53 49L55 49L55 48L54 48L54 47L53 47L53 48L51 48L51 47L52 47L52 46L50 46L50 44L49 44L49 43L50 43L50 42L51 42L51 45L52 45L52 43L53 43L53 42L54 42L54 43L55 43L55 44L53 44L53 46L55 46L55 47L57 47L57 45L56 45L56 46L55 46L55 44L56 44L56 42L54 42L54 40L55 40L55 38L56 38L56 39L57 39L57 38L56 38L56 37L57 37L57 36L54 36L54 35L57 35L57 34L55 34L55 33L57 33L57 31L56 31L56 30L57 30L57 27L56 27L56 30L55 30L55 33L54 33L54 34L52 34L52 32L53 32L53 30L54 30L54 29L55 29L55 27L53 27L53 26L51 26L51 23L49 23L49 21L47 21L47 19L48 19L48 14L47 14L47 16L46 16L46 17L45 17L45 16L44 16L44 15L45 15L45 14L46 14L46 13L44 13L44 9L43 9L43 8L45 8L45 11L47 11L47 12L49 12L49 15L50 15L50 16L51 16L51 19L55 19L55 20L54 20L54 21L53 21L53 20L50 20L50 18L49 18L49 20L50 20L50 21L51 21L51 22L52 22L52 23L53 23L53 25L54 25L54 23L53 23L53 22L54 22L54 21L55 21L55 20L57 20L57 19L55 19L55 17L56 17L56 18L57 18L57 15L55 15L55 14L54 14L54 10L53 10L53 9L55 9L55 8L52 8L52 10L53 10L53 13L52 13L52 12L51 12L51 11L47 11L47 10L50 10L50 8L49 8L49 9L48 9L48 8L47 8L47 5L48 5L48 0L46 0L46 1L44 1L44 2L41 2L41 1L43 1L43 0L41 0L41 1L40 1L40 0L39 0L39 1L40 1L40 2L41 2L41 4L39 4L39 2L37 2L37 1L38 1L38 0L37 0L37 1L36 1L36 0L35 0L35 1L34 1L34 3L33 3L33 2L31 2L31 3L30 3L30 1L31 1L31 0L29 0L29 1L28 1L28 0L27 0L27 1L28 1L28 2L27 2L27 4L26 4L26 2L24 2L24 3L23 3L23 4L22 4L22 5L20 5L20 4L19 4L19 3L18 3L18 5L15 5L15 4L14 4L14 3L13 3L13 2L12 2L12 0ZM13 0L13 1L14 1L14 0ZM17 0L17 1L16 1L16 2L15 2L15 3L16 3L16 2L17 2L17 1L18 1L18 2L21 2L21 3L22 3L22 2L23 2L23 1L26 1L26 0L23 0L23 1L22 1L22 0L21 0L21 1L20 1L20 0ZM32 0L32 1L33 1L33 0ZM21 1L21 2L22 2L22 1ZM35 1L35 2L36 2L36 1ZM46 1L46 2L45 2L45 3L44 3L44 4L45 4L45 5L43 5L43 4L41 4L41 7L40 7L40 5L38 5L38 6L37 6L37 5L36 5L36 4L34 4L34 5L33 5L33 3L32 3L32 4L31 4L31 5L32 5L32 6L31 6L31 9L32 9L32 10L31 10L31 11L32 11L32 13L33 13L33 10L34 10L34 11L35 11L35 10L36 10L36 12L38 12L38 10L39 10L39 14L40 14L40 13L41 13L41 16L40 16L40 17L39 17L39 15L35 15L35 14L37 14L37 13L35 13L35 12L34 12L34 14L33 14L33 15L35 15L35 16L34 16L34 17L35 17L35 18L31 18L31 16L32 16L32 14L31 14L31 12L30 12L30 11L29 11L29 9L28 9L28 11L27 11L27 10L26 10L26 11L25 11L25 10L23 10L23 9L22 9L22 10L23 10L23 11L21 11L21 12L19 12L19 11L20 11L20 10L21 10L21 8L23 8L23 7L24 7L24 9L26 9L26 6L25 6L25 5L26 5L26 4L24 4L24 6L23 6L23 7L22 7L22 6L21 6L21 7L20 7L20 6L19 6L19 7L18 7L18 6L17 6L17 7L16 7L16 6L15 6L15 7L14 7L14 6L13 6L13 5L14 5L14 4L13 4L13 3L12 3L12 2L11 2L11 5L12 5L12 6L11 6L11 7L12 7L12 8L11 8L11 10L9 10L9 9L8 9L8 10L9 10L9 11L5 11L5 12L3 12L3 11L2 11L2 12L3 12L3 13L2 13L2 17L4 17L4 18L5 18L5 19L6 19L6 20L10 20L10 23L9 23L9 24L8 24L8 21L6 21L6 22L5 22L5 21L4 21L4 22L3 22L3 25L4 25L4 26L3 26L3 27L4 27L4 26L5 26L5 25L6 25L6 26L7 26L7 25L6 25L6 24L8 24L8 25L11 25L11 24L10 24L10 23L11 23L11 20L12 20L12 19L15 19L15 17L16 17L16 16L17 16L17 17L19 17L19 19L20 19L20 18L21 18L21 17L22 17L22 18L23 18L23 21L24 21L24 22L25 22L25 25L23 25L23 22L22 22L22 21L21 21L21 20L18 20L18 21L19 21L19 22L22 22L22 23L20 23L20 24L21 24L21 26L19 26L19 25L18 25L18 26L19 26L19 27L17 27L17 24L18 24L18 23L16 23L16 20L14 20L14 23L16 23L16 26L15 26L15 24L14 24L14 26L13 26L13 27L12 27L12 26L10 26L10 27L9 27L9 31L6 31L6 32L4 32L4 33L3 33L3 36L5 36L5 37L6 37L6 38L8 38L8 40L10 40L10 39L9 39L9 38L10 38L10 36L11 36L11 35L9 35L9 34L8 34L8 33L9 33L9 32L11 32L11 33L10 33L10 34L11 34L11 33L13 33L13 32L14 32L14 31L13 31L13 32L12 32L12 28L13 28L13 30L16 30L16 29L14 29L14 27L17 27L17 31L18 31L18 34L19 34L19 37L20 37L20 38L21 38L21 39L22 39L22 41L20 41L20 40L18 40L18 41L19 41L19 43L18 43L18 42L17 42L17 44L16 44L16 45L13 45L13 46L12 46L12 44L15 44L15 42L14 42L14 41L15 41L15 38L18 38L18 39L19 39L19 38L18 38L18 37L17 37L17 36L18 36L18 35L17 35L17 36L14 36L14 38L13 38L13 37L12 37L12 38L13 38L13 40L12 40L12 39L11 39L11 40L12 40L12 41L4 41L4 40L3 40L3 41L4 41L4 42L2 42L2 43L3 43L3 44L4 44L4 45L3 45L3 47L5 47L5 46L4 46L4 45L5 45L5 44L7 44L7 43L4 43L4 42L11 42L11 43L10 43L10 45L9 45L9 44L8 44L8 48L9 48L9 50L10 50L10 51L11 51L11 54L9 54L9 55L12 55L12 54L13 54L13 53L14 53L14 54L15 54L15 53L16 53L16 54L17 54L17 53L18 53L18 54L19 54L19 52L18 52L18 51L22 51L22 49L23 49L23 52L22 52L22 53L20 53L20 55L22 55L22 53L23 53L23 52L24 52L24 53L25 53L25 52L26 52L26 48L28 48L28 47L29 47L29 48L32 48L32 50L31 50L31 53L32 53L32 51L33 51L33 52L34 52L34 51L35 51L35 48L37 48L37 49L36 49L36 50L37 50L37 49L38 49L38 48L39 48L39 49L40 49L40 50L39 50L39 52L40 52L40 54L41 54L41 56L42 56L42 54L43 54L43 52L42 52L42 51L45 51L45 53L46 53L46 51L45 51L45 50L43 50L43 47L44 47L44 49L46 49L46 50L47 50L47 52L48 52L48 48L46 48L46 46L48 46L48 47L49 47L49 48L50 48L50 47L49 47L49 46L48 46L48 44L44 44L44 43L47 43L47 42L50 42L50 41L52 41L52 40L50 40L50 41L47 41L47 42L45 42L45 41L46 41L46 40L45 40L45 41L44 41L44 40L42 40L42 39L41 39L41 40L40 40L40 41L37 41L37 40L38 40L38 39L39 39L39 38L38 38L38 39L37 39L37 37L35 37L35 36L36 36L36 35L33 35L33 36L32 36L32 33L34 33L34 34L35 34L35 31L34 31L34 32L31 32L31 34L30 34L30 35L29 35L29 33L30 33L30 31L25 31L25 34L24 34L24 35L23 35L23 36L22 36L22 34L23 34L23 33L24 33L24 32L23 32L23 33L22 33L22 34L21 34L21 32L22 32L22 31L23 31L23 30L21 30L21 29L23 29L23 28L25 28L25 29L24 29L24 30L26 30L26 28L25 28L25 27L24 27L24 26L25 26L25 25L29 25L29 24L30 24L30 26L31 26L31 24L30 24L30 23L32 23L32 22L34 22L34 23L33 23L33 24L32 24L32 25L33 25L33 24L35 24L35 23L36 23L36 24L37 24L37 22L35 22L35 21L33 21L33 19L35 19L35 20L36 20L36 21L38 21L38 22L39 22L39 21L38 21L38 20L40 20L40 19L39 19L39 18L41 18L41 21L44 21L44 22L45 22L45 19L46 19L46 18L45 18L45 17L42 17L42 14L43 14L43 15L44 15L44 14L43 14L43 12L42 12L42 11L43 11L43 10L41 10L41 9L40 9L40 10L39 10L39 8L43 8L43 7L44 7L44 6L45 6L45 8L46 8L46 5L47 5L47 3L46 3L46 2L47 2L47 1ZM28 2L28 4L30 4L30 3L29 3L29 2ZM37 3L37 4L38 4L38 3ZM27 5L27 8L30 8L30 5ZM8 6L8 7L9 7L9 6ZM12 6L12 7L13 7L13 6ZM24 6L24 7L25 7L25 6ZM28 6L28 7L29 7L29 6ZM32 6L32 8L33 8L33 6ZM34 6L34 9L36 9L36 8L38 8L38 7L39 7L39 6L38 6L38 7L37 7L37 6L36 6L36 7L35 7L35 6ZM42 6L42 7L43 7L43 6ZM48 6L48 7L49 7L49 6ZM19 7L19 10L20 10L20 7ZM17 8L17 10L16 10L16 11L14 11L14 9L12 9L12 10L13 10L13 12L12 12L12 11L9 11L9 12L8 12L8 13L9 13L9 14L10 14L10 13L11 13L11 14L12 14L12 15L14 15L14 16L13 16L13 17L12 17L12 18L14 18L14 17L15 17L15 16L16 16L16 15L17 15L17 14L16 14L16 15L15 15L15 12L16 12L16 13L17 13L17 12L18 12L18 13L19 13L19 14L18 14L18 16L19 16L19 14L21 14L21 13L19 13L19 12L18 12L18 8ZM56 8L56 9L57 9L57 8ZM37 9L37 10L38 10L38 9ZM46 9L46 10L47 10L47 9ZM40 10L40 11L41 11L41 10ZM55 10L55 12L56 12L56 13L57 13L57 12L56 12L56 11L57 11L57 10ZM16 11L16 12L17 12L17 11ZM24 11L24 12L25 12L25 11ZM5 12L5 13L4 13L4 16L5 16L5 13L7 13L7 12ZM11 12L11 13L12 13L12 14L14 14L14 13L12 13L12 12ZM22 12L22 13L23 13L23 12ZM26 12L26 13L25 13L25 14L27 14L27 17L26 17L26 18L24 18L24 17L25 17L25 16L26 16L26 15L24 15L24 14L23 14L23 15L24 15L24 16L23 16L23 18L24 18L24 19L25 19L25 22L28 22L28 23L26 23L26 24L28 24L28 23L29 23L29 22L31 22L31 20L32 20L32 19L31 19L31 20L30 20L30 17L29 17L29 16L31 16L31 14L30 14L30 13L28 13L28 12ZM50 12L50 13L51 13L51 16L52 16L52 17L53 17L53 18L54 18L54 17L55 17L55 16L52 16L52 15L53 15L53 14L52 14L52 13L51 13L51 12ZM6 14L6 15L7 15L7 14ZM8 15L8 16L6 16L6 17L9 17L9 15ZM28 15L28 16L29 16L29 15ZM10 16L10 17L11 17L11 16ZM27 17L27 18L26 18L26 19L27 19L27 20L26 20L26 21L27 21L27 20L28 20L28 18L29 18L29 17ZM36 17L36 18L37 18L37 17ZM41 17L41 18L42 18L42 19L43 19L43 18L42 18L42 17ZM6 18L6 19L7 19L7 18ZM8 18L8 19L9 19L9 18ZM10 18L10 19L11 19L11 18ZM16 18L16 19L18 19L18 18ZM44 18L44 19L45 19L45 18ZM36 19L36 20L38 20L38 19ZM29 20L29 21L30 21L30 20ZM46 21L46 22L47 22L47 21ZM56 21L56 22L55 22L55 23L57 23L57 21ZM6 22L6 23L5 23L5 24L6 24L6 23L7 23L7 22ZM12 22L12 25L13 25L13 22ZM41 22L41 23L38 23L38 24L39 24L39 26L38 26L38 27L39 27L39 28L40 28L40 30L39 30L39 29L38 29L38 30L36 30L36 29L37 29L37 27L35 27L35 25L34 25L34 27L35 27L35 28L34 28L34 29L35 29L35 30L36 30L36 31L37 31L37 32L36 32L36 33L37 33L37 32L38 32L38 34L39 34L39 31L40 31L40 32L41 32L41 31L43 31L43 29L42 29L42 30L41 30L41 23L42 23L42 24L43 24L43 22ZM44 23L44 25L46 25L46 26L47 26L47 27L48 27L48 26L50 26L50 25L49 25L49 24L48 24L48 23L47 23L47 24L46 24L46 23ZM55 24L55 25L56 25L56 24ZM22 25L22 27L23 27L23 25ZM42 25L42 26L43 26L43 25ZM39 26L39 27L40 27L40 26ZM44 26L44 27L42 27L42 28L44 28L44 27L45 27L45 30L44 30L44 34L45 34L45 36L44 36L44 37L42 37L42 38L44 38L44 39L46 39L46 38L49 38L49 39L47 39L47 40L49 40L49 39L51 39L51 38L49 38L49 37L48 37L48 35L49 35L49 34L50 34L50 33L49 33L49 32L48 32L48 30L47 30L47 33L46 33L46 31L45 31L45 30L46 30L46 27L45 27L45 26ZM5 27L5 30L8 30L8 27ZM10 27L10 28L11 28L11 27ZM19 27L19 28L18 28L18 29L19 29L19 30L18 30L18 31L19 31L19 30L20 30L20 28L21 28L21 27ZM27 27L27 30L30 30L30 27ZM31 27L31 28L33 28L33 27ZM49 27L49 30L52 30L52 27ZM6 28L6 29L7 29L7 28ZM28 28L28 29L29 29L29 28ZM47 28L47 29L48 29L48 28ZM50 28L50 29L51 29L51 28ZM53 28L53 29L54 29L54 28ZM3 30L3 31L2 31L2 32L3 32L3 31L4 31L4 30ZM31 30L31 31L32 31L32 30ZM38 30L38 31L39 31L39 30ZM15 31L15 33L14 33L14 34L12 34L12 36L13 36L13 35L14 35L14 34L15 34L15 35L16 35L16 34L17 34L17 32L16 32L16 31ZM50 31L50 32L52 32L52 31ZM6 32L6 33L8 33L8 32ZM27 32L27 33L26 33L26 34L25 34L25 35L26 35L26 36L23 36L23 37L22 37L22 38L23 38L23 39L24 39L24 40L23 40L23 41L22 41L22 44L21 44L21 43L19 43L19 45L17 45L17 46L16 46L16 47L17 47L17 50L18 50L18 49L19 49L19 50L21 50L21 49L20 49L20 48L19 48L19 47L18 47L18 46L20 46L20 47L21 47L21 48L23 48L23 49L24 49L24 47L25 47L25 48L26 48L26 47L25 47L25 45L26 45L26 46L27 46L27 47L28 47L28 46L27 46L27 45L30 45L30 46L31 46L31 47L32 47L32 48L33 48L33 45L34 45L34 44L35 44L35 46L34 46L34 48L35 48L35 46L36 46L36 47L38 47L38 45L41 45L41 46L39 46L39 47L43 47L43 45L42 45L42 43L44 43L44 42L42 42L42 41L41 41L41 42L37 42L37 44L38 44L38 45L36 45L36 43L34 43L34 42L36 42L36 41L34 41L34 40L35 40L35 39L36 39L36 38L35 38L35 39L33 39L33 38L34 38L34 37L33 37L33 38L32 38L32 36L29 36L29 35L28 35L28 34L27 34L27 33L28 33L28 32ZM42 32L42 33L43 33L43 32ZM4 33L4 35L5 35L5 33ZM19 33L19 34L20 34L20 33ZM6 34L6 35L8 35L8 36L6 36L6 37L9 37L9 35L8 35L8 34ZM41 34L41 35L37 35L37 36L40 36L40 37L41 37L41 36L43 36L43 35L42 35L42 34ZM46 34L46 36L45 36L45 38L46 38L46 37L47 37L47 35L48 35L48 34ZM51 35L51 36L50 36L50 37L52 37L52 38L53 38L53 39L54 39L54 38L53 38L53 36L52 36L52 35ZM27 36L27 38L26 38L26 37L24 37L24 39L25 39L25 41L24 41L24 42L23 42L23 44L22 44L22 46L21 46L21 45L20 45L20 46L21 46L21 47L22 47L22 46L23 46L23 47L24 47L24 46L23 46L23 44L24 44L24 43L26 43L26 45L27 45L27 43L29 43L29 42L25 42L25 41L26 41L26 39L27 39L27 38L29 38L29 36ZM30 38L30 39L28 39L28 40L27 40L27 41L28 41L28 40L33 40L33 39L32 39L32 38ZM6 39L6 40L7 40L7 39ZM16 39L16 40L17 40L17 39ZM13 40L13 41L12 41L12 43L11 43L11 44L12 44L12 43L14 43L14 42L13 42L13 41L14 41L14 40ZM56 40L56 41L57 41L57 40ZM30 41L30 42L31 42L31 41ZM32 42L32 43L31 43L31 44L30 44L30 45L31 45L31 46L32 46L32 45L33 45L33 42ZM41 42L41 43L40 43L40 44L41 44L41 43L42 43L42 42ZM38 43L38 44L39 44L39 43ZM6 45L6 46L7 46L7 45ZM10 45L10 46L9 46L9 47L10 47L10 46L11 46L11 45ZM44 45L44 46L45 46L45 45ZM1 46L1 47L2 47L2 46ZM13 47L13 48L15 48L15 50L14 50L14 51L16 51L16 52L17 52L17 51L16 51L16 48L15 48L15 47ZM11 48L11 49L10 49L10 50L11 50L11 49L12 49L12 48ZM41 48L41 49L42 49L42 48ZM56 48L56 49L57 49L57 48ZM27 49L27 52L30 52L30 49ZM33 49L33 50L34 50L34 49ZM49 49L49 52L52 52L52 49ZM24 50L24 51L25 51L25 50ZM28 50L28 51L29 51L29 50ZM50 50L50 51L51 51L51 50ZM12 51L12 53L13 53L13 51ZM40 51L40 52L41 52L41 51ZM41 53L41 54L42 54L42 53ZM48 53L48 54L50 54L50 53ZM44 54L44 55L45 55L45 54ZM24 55L24 56L25 56L25 55ZM27 55L27 56L28 56L28 55ZM46 55L46 56L47 56L47 55ZM56 55L56 56L57 56L57 55ZM13 56L13 57L14 57L14 56ZM52 56L52 57L53 57L53 56ZM54 56L54 57L55 57L55 56ZM0 0L0 7L7 7L7 0ZM1 1L1 6L6 6L6 1ZM2 2L2 5L5 5L5 2ZM50 0L50 7L57 7L57 0ZM51 1L51 6L56 6L56 1ZM52 2L52 5L55 5L55 2ZM0 50L0 57L7 57L7 50ZM1 51L1 56L6 56L6 51ZM2 52L2 55L5 55L5 52Z" fill="#000000"/></g></g></svg>
