<?xml version="1.0" encoding="UTF-8"?>
<svg xmlns="http://www.w3.org/2000/svg" version="1.1" width="300" height="300" viewBox="0 0 300 300"><rect x="0" y="0" width="300" height="300" fill="#fefefe"/><g transform="scale(4.615)"><g transform="translate(4,4)"><path fill-rule="evenodd" d="M10 0L10 1L8 1L8 2L9 2L9 3L8 3L8 4L9 4L9 5L8 5L8 7L9 7L9 8L6 8L6 9L5 9L5 8L0 8L0 9L1 9L1 10L0 10L0 11L1 11L1 12L0 12L0 13L3 13L3 14L4 14L4 16L3 16L3 15L2 15L2 14L1 14L1 16L0 16L0 21L2 21L2 22L3 22L3 24L2 24L2 23L1 23L1 26L0 26L0 29L1 29L1 28L2 28L2 27L1 27L1 26L2 26L2 25L3 25L3 24L4 24L4 20L3 20L3 19L2 19L2 18L1 18L1 17L2 17L2 16L3 16L3 17L5 17L5 16L6 16L6 17L7 17L7 18L6 18L6 19L5 19L5 22L6 22L6 23L5 23L5 24L6 24L6 25L5 25L5 26L4 26L4 28L3 28L3 29L2 29L2 30L3 30L3 31L0 31L0 32L1 32L1 35L0 35L0 37L1 37L1 35L2 35L2 33L4 33L4 32L5 32L5 33L8 33L8 34L5 34L5 35L4 35L4 34L3 34L3 36L4 36L4 37L3 37L3 39L2 39L2 38L1 38L1 40L3 40L3 41L2 41L2 42L1 42L1 43L0 43L0 48L5 48L5 47L7 47L7 48L6 48L6 49L8 49L8 51L9 51L9 52L8 52L8 57L11 57L11 56L15 56L15 57L16 57L16 56L17 56L17 57L19 57L19 56L17 56L17 54L19 54L19 55L20 55L20 54L19 54L19 53L20 53L20 52L22 52L22 51L21 51L21 50L25 50L25 49L24 49L24 47L23 47L23 46L25 46L25 45L23 45L23 44L24 44L24 43L25 43L25 44L27 44L27 45L26 45L26 47L25 47L25 48L26 48L26 52L24 52L24 53L23 53L23 54L22 54L22 53L21 53L21 54L22 54L22 55L21 55L21 56L20 56L20 57L21 57L21 56L24 56L24 57L26 57L26 55L27 55L27 54L30 54L30 53L31 53L31 51L32 51L32 52L33 52L33 53L32 53L32 54L31 54L31 56L30 56L30 55L29 55L29 56L27 56L27 57L29 57L29 56L30 56L30 57L31 57L31 56L35 56L35 57L39 57L39 56L37 56L37 55L40 55L40 56L41 56L41 57L44 57L44 54L45 54L45 55L46 55L46 56L47 56L47 55L49 55L49 56L50 56L50 57L52 57L52 55L51 55L51 53L52 53L52 54L53 54L53 55L54 55L54 56L53 56L53 57L54 57L54 56L55 56L55 57L56 57L56 56L55 56L55 54L53 54L53 52L54 52L54 53L55 53L55 51L56 51L56 53L57 53L57 51L56 51L56 49L57 49L57 48L56 48L56 46L57 46L57 44L56 44L56 42L55 42L55 39L57 39L57 37L56 37L56 36L55 36L55 35L56 35L56 34L57 34L57 32L56 32L56 30L57 30L57 28L56 28L56 27L55 27L55 26L57 26L57 25L56 25L56 22L57 22L57 21L56 21L56 20L55 20L55 18L57 18L57 17L56 17L56 16L57 16L57 15L56 15L56 14L57 14L57 13L56 13L56 14L55 14L55 13L54 13L54 12L55 12L55 11L56 11L56 12L57 12L57 11L56 11L56 10L54 10L54 11L51 11L51 10L52 10L52 8L51 8L51 10L50 10L50 8L49 8L49 6L48 6L48 7L47 7L47 5L48 5L48 0L45 0L45 2L44 2L44 3L43 3L43 4L42 4L42 2L43 2L43 0L41 0L41 1L40 1L40 0L39 0L39 1L38 1L38 0L37 0L37 1L38 1L38 2L37 2L37 3L36 3L36 0L35 0L35 1L33 1L33 0L32 0L32 1L31 1L31 0L29 0L29 2L28 2L28 1L25 1L25 0L23 0L23 1L22 1L22 0L21 0L21 3L22 3L22 2L27 2L27 3L30 3L30 4L26 4L26 3L23 3L23 4L24 4L24 5L22 5L22 4L19 4L19 3L20 3L20 0L19 0L19 1L14 1L14 0L13 0L13 1L14 1L14 2L12 2L12 1L11 1L11 0ZM32 1L32 2L31 2L31 3L32 3L32 4L31 4L31 8L32 8L32 10L28 10L28 11L29 11L29 12L28 12L28 13L27 13L27 14L25 14L25 15L26 15L26 17L25 17L25 16L24 16L24 15L20 15L20 14L21 14L21 13L22 13L22 14L23 14L23 13L22 13L22 12L21 12L21 11L22 11L22 10L23 10L23 9L25 9L25 8L26 8L26 4L25 4L25 8L24 8L24 6L23 6L23 7L22 7L22 5L21 5L21 8L19 8L19 9L18 9L18 8L17 8L17 7L18 7L18 6L19 6L19 7L20 7L20 5L18 5L18 6L17 6L17 3L18 3L18 2L17 2L17 3L15 3L15 2L14 2L14 4L12 4L12 3L11 3L11 2L10 2L10 3L9 3L9 4L10 4L10 6L9 6L9 7L10 7L10 6L11 6L11 7L12 7L12 8L14 8L14 9L11 9L11 13L13 13L13 14L15 14L15 13L16 13L16 16L14 16L14 15L13 15L13 16L12 16L12 14L11 14L11 16L12 16L12 19L10 19L10 18L11 18L11 17L9 17L9 16L10 16L10 13L9 13L9 12L8 12L8 11L6 11L6 10L7 10L7 9L6 9L6 10L5 10L5 11L6 11L6 12L8 12L8 14L9 14L9 15L6 15L6 14L7 14L7 13L6 13L6 14L5 14L5 15L6 15L6 16L8 16L8 18L9 18L9 19L6 19L6 20L8 20L8 21L9 21L9 22L8 22L8 24L9 24L9 25L6 25L6 26L10 26L10 23L9 23L9 22L11 22L11 21L12 21L12 23L11 23L11 25L12 25L12 26L11 26L11 27L12 27L12 29L11 29L11 30L9 30L9 31L5 31L5 32L9 32L9 31L11 31L11 32L10 32L10 35L5 35L5 36L7 36L7 37L4 37L4 39L5 39L5 38L7 38L7 39L6 39L6 40L7 40L7 41L6 41L6 42L4 42L4 41L3 41L3 42L2 42L2 43L1 43L1 44L5 44L5 45L6 45L6 46L7 46L7 45L8 45L8 44L7 44L7 43L6 43L6 42L7 42L7 41L8 41L8 43L9 43L9 42L12 42L12 40L13 40L13 41L14 41L14 40L13 40L13 39L16 39L16 41L15 41L15 43L14 43L14 42L13 42L13 44L15 44L15 45L13 45L13 46L12 46L12 47L11 47L11 46L10 46L10 47L9 47L9 46L8 46L8 49L9 49L9 51L11 51L11 53L9 53L9 55L10 55L10 56L11 56L11 55L13 55L13 53L12 53L12 52L14 52L14 53L15 53L15 54L16 54L16 53L17 53L17 52L16 52L16 53L15 53L15 51L18 51L18 52L20 52L20 50L21 50L21 49L23 49L23 47L21 47L21 45L22 45L22 46L23 46L23 45L22 45L22 44L20 44L20 42L21 42L21 43L22 43L22 42L24 42L24 41L25 41L25 43L27 43L27 44L28 44L28 45L27 45L27 46L30 46L30 45L32 45L32 46L31 46L31 47L32 47L32 49L31 49L31 50L32 50L32 49L33 49L33 50L34 50L34 51L33 51L33 52L34 52L34 53L33 53L33 55L35 55L35 56L36 56L36 54L35 54L35 50L36 50L36 52L37 52L37 51L38 51L38 53L37 53L37 54L40 54L40 53L41 53L41 52L42 52L42 53L43 53L43 54L44 54L44 53L45 53L45 54L48 54L48 50L47 50L47 49L48 49L48 48L49 48L49 47L48 47L48 46L50 46L50 47L51 47L51 48L52 48L52 46L53 46L53 47L54 47L54 45L55 45L55 46L56 46L56 45L55 45L55 44L54 44L54 45L52 45L52 44L53 44L53 43L54 43L54 42L53 42L53 41L51 41L51 42L50 42L50 43L49 43L49 42L48 42L48 41L49 41L49 40L50 40L50 39L51 39L51 38L53 38L53 39L52 39L52 40L53 40L53 39L54 39L54 38L53 38L53 35L55 35L55 34L56 34L56 32L54 32L54 31L53 31L53 32L54 32L54 33L52 33L52 32L51 32L51 31L48 31L48 28L47 28L47 29L46 29L46 30L47 30L47 31L46 31L46 32L43 32L43 31L44 31L44 30L45 30L45 28L46 28L46 27L48 27L48 26L47 26L47 25L48 25L48 24L49 24L49 25L50 25L50 26L53 26L53 27L54 27L54 26L53 26L53 24L51 24L51 25L50 25L50 24L49 24L49 23L50 23L50 22L51 22L51 21L54 21L54 22L53 22L53 23L55 23L55 22L56 22L56 21L55 21L55 20L53 20L53 19L52 19L52 18L55 18L55 17L53 17L53 16L50 16L50 19L52 19L52 20L51 20L51 21L49 21L49 22L48 22L48 24L46 24L46 25L45 25L45 23L46 23L46 22L47 22L47 20L48 20L48 19L49 19L49 18L47 18L47 17L45 17L45 16L47 16L47 15L44 15L44 13L45 13L45 14L47 14L47 13L49 13L49 12L50 12L50 14L49 14L49 15L48 15L48 16L49 16L49 15L50 15L50 14L51 14L51 12L50 12L50 10L47 10L47 9L48 9L48 8L47 8L47 7L46 7L46 6L45 6L45 4L46 4L46 5L47 5L47 3L44 3L44 6L43 6L43 7L44 7L44 9L43 9L43 8L42 8L42 9L43 9L43 11L42 11L42 10L41 10L41 7L42 7L42 5L40 5L40 4L41 4L41 3L39 3L39 2L38 2L38 6L37 6L37 7L36 7L36 5L37 5L37 4L36 4L36 5L35 5L35 3L32 3L32 2L33 2L33 1ZM46 1L46 2L47 2L47 1ZM11 4L11 6L12 6L12 7L13 7L13 5L12 5L12 4ZM15 4L15 5L14 5L14 8L15 8L15 9L17 9L17 10L12 10L12 11L14 11L14 12L13 12L13 13L15 13L15 12L16 12L16 13L17 13L17 14L20 14L20 13L21 13L21 12L20 12L20 13L19 13L19 10L20 10L20 11L21 11L21 10L22 10L22 9L21 9L21 10L20 10L20 9L19 9L19 10L18 10L18 9L17 9L17 8L16 8L16 7L17 7L17 6L16 6L16 7L15 7L15 5L16 5L16 4ZM32 4L32 5L33 5L33 4ZM27 5L27 8L30 8L30 5ZM34 5L34 7L33 7L33 6L32 6L32 7L33 7L33 9L34 9L34 8L35 8L35 9L37 9L37 10L36 10L36 12L35 12L35 14L32 14L32 11L33 11L33 10L32 10L32 11L31 11L31 13L30 13L30 14L29 14L29 13L28 13L28 14L29 14L29 16L28 16L28 15L27 15L27 16L28 16L28 17L27 17L27 18L28 18L28 19L29 19L29 20L31 20L31 21L28 21L28 22L29 22L29 23L30 23L30 24L29 24L29 26L28 26L28 25L27 25L27 26L26 26L26 25L25 25L25 24L28 24L28 23L27 23L27 21L25 21L25 20L26 20L26 18L25 18L25 17L22 17L22 16L21 16L21 17L22 17L22 18L20 18L20 16L18 16L18 15L17 15L17 16L16 16L16 17L18 17L18 19L15 19L15 21L16 21L16 22L15 22L15 23L14 23L14 24L13 24L13 23L12 23L12 25L13 25L13 29L12 29L12 30L11 30L11 31L12 31L12 32L11 32L11 34L12 34L12 35L10 35L10 36L8 36L8 39L10 39L10 40L8 40L8 41L11 41L11 39L10 39L10 38L9 38L9 37L11 37L11 38L12 38L12 39L13 39L13 37L14 37L14 36L15 36L15 35L17 35L17 37L18 37L18 38L17 38L17 39L18 39L18 38L20 38L20 39L19 39L19 40L17 40L17 41L19 41L19 42L18 42L18 43L17 43L17 42L16 42L16 44L18 44L18 45L17 45L17 50L18 50L18 51L19 51L19 50L20 50L20 49L21 49L21 47L20 47L20 49L19 49L19 48L18 48L18 47L19 47L19 46L20 46L20 45L19 45L19 42L20 42L20 41L19 41L19 40L21 40L21 37L19 37L19 36L20 36L20 35L17 35L17 34L15 34L15 35L14 35L14 36L13 36L13 34L14 34L14 33L13 33L13 34L12 34L12 32L13 32L13 31L12 31L12 30L14 30L14 31L16 31L16 29L18 29L18 30L17 30L17 31L18 31L18 30L20 30L20 31L19 31L19 32L17 32L17 33L18 33L18 34L20 34L20 31L21 31L21 32L24 32L24 31L21 31L21 30L20 30L20 29L22 29L22 28L21 28L21 27L22 27L22 26L24 26L24 28L23 28L23 30L25 30L25 32L28 32L28 33L29 33L29 34L30 34L30 36L29 36L29 37L31 37L31 38L29 38L29 39L33 39L33 40L35 40L35 42L37 42L37 43L36 43L36 44L35 44L35 43L34 43L34 42L33 42L33 41L32 41L32 40L30 40L30 41L29 41L29 42L27 42L27 41L26 41L26 42L27 42L27 43L28 43L28 44L33 44L33 43L34 43L34 45L36 45L36 46L33 46L33 47L36 47L36 48L35 48L35 49L36 49L36 50L38 50L38 51L40 51L40 52L41 52L41 50L42 50L42 52L43 52L43 53L44 53L44 52L47 52L47 50L43 50L43 49L44 49L44 48L43 48L43 47L45 47L45 48L46 48L46 47L47 47L47 48L48 48L48 47L47 47L47 46L44 46L44 43L46 43L46 44L45 44L45 45L47 45L47 43L48 43L48 42L44 42L44 40L45 40L45 39L43 39L43 41L39 41L39 42L38 42L38 40L41 40L41 39L42 39L42 38L43 38L43 37L44 37L44 38L45 38L45 37L44 37L44 36L45 36L45 35L47 35L47 36L48 36L48 37L47 37L47 39L46 39L46 40L47 40L47 39L50 39L50 38L51 38L51 37L52 37L52 35L53 35L53 34L52 34L52 33L51 33L51 32L50 32L50 34L49 34L49 35L47 35L47 34L45 34L45 35L44 35L44 33L43 33L43 32L41 32L41 33L39 33L39 34L40 34L40 35L38 35L38 33L37 33L37 32L35 32L35 34L37 34L37 35L38 35L38 37L37 37L37 36L35 36L35 35L34 35L34 37L35 37L35 39L33 39L33 37L32 37L32 36L33 36L33 35L32 35L32 31L31 31L31 30L32 30L32 28L31 28L31 26L32 26L32 27L33 27L33 28L35 28L35 30L33 30L33 31L36 31L36 29L38 29L38 28L39 28L39 27L41 27L41 28L42 28L42 27L41 27L41 26L43 26L43 25L44 25L44 27L43 27L43 29L41 29L41 30L44 30L44 28L45 28L45 27L46 27L46 26L45 26L45 25L44 25L44 20L45 20L45 18L44 18L44 15L42 15L42 16L41 16L41 15L39 15L39 14L38 14L38 13L40 13L40 12L41 12L41 10L40 10L40 9L39 9L39 8L40 8L40 7L41 7L41 6L40 6L40 5L39 5L39 6L38 6L38 7L37 7L37 8L35 8L35 5ZM28 6L28 7L29 7L29 6ZM39 6L39 7L40 7L40 6ZM44 6L44 7L45 7L45 6ZM9 8L9 9L8 9L8 10L9 10L9 11L10 11L10 10L9 10L9 9L10 9L10 8ZM53 8L53 9L54 9L54 8ZM55 8L55 9L56 9L56 8ZM2 9L2 10L1 10L1 11L2 11L2 12L3 12L3 13L5 13L5 12L3 12L3 11L4 11L4 10L3 10L3 9ZM38 9L38 10L37 10L37 11L39 11L39 12L40 12L40 10L39 10L39 9ZM44 9L44 11L45 11L45 12L49 12L49 11L47 11L47 10L46 10L46 11L45 11L45 9ZM17 10L17 11L18 11L18 10ZM24 11L24 12L25 12L25 13L26 13L26 12L27 12L27 11L26 11L26 12L25 12L25 11ZM17 12L17 13L18 13L18 12ZM33 12L33 13L34 13L34 12ZM43 12L43 13L41 13L41 14L43 14L43 13L44 13L44 12ZM52 12L52 13L53 13L53 15L55 15L55 14L54 14L54 13L53 13L53 12ZM36 13L36 14L37 14L37 15L35 15L35 16L33 16L33 15L31 15L31 14L30 14L30 15L31 15L31 16L32 16L32 17L33 17L33 18L32 18L32 19L33 19L33 18L35 18L35 19L36 19L36 20L38 20L38 22L39 22L39 23L37 23L37 24L39 24L39 25L38 25L38 26L37 26L37 25L33 25L33 24L32 24L32 23L33 23L33 22L34 22L34 23L35 23L35 20L32 20L32 21L31 21L31 22L30 22L30 23L31 23L31 24L30 24L30 25L31 25L31 24L32 24L32 26L33 26L33 27L34 27L34 26L36 26L36 27L35 27L35 28L36 28L36 27L39 27L39 25L40 25L40 26L41 26L41 25L43 25L43 22L41 22L41 24L39 24L39 23L40 23L40 22L39 22L39 21L42 21L42 20L38 20L38 19L39 19L39 17L41 17L41 16L39 16L39 15L38 15L38 14L37 14L37 13ZM13 16L13 17L14 17L14 18L15 18L15 17L14 17L14 16ZM35 16L35 17L37 17L37 18L38 18L38 17L39 17L39 16L38 16L38 17L37 17L37 16ZM42 16L42 17L43 17L43 16ZM23 18L23 19L24 19L24 18ZM30 18L30 19L31 19L31 18ZM41 18L41 19L42 19L42 18ZM43 18L43 20L44 20L44 18ZM1 19L1 20L2 20L2 19ZM9 19L9 20L10 20L10 21L11 21L11 20L10 20L10 19ZM12 19L12 21L13 21L13 22L14 22L14 21L13 21L13 20L14 20L14 19ZM18 19L18 20L16 20L16 21L18 21L18 22L17 22L17 24L16 24L16 23L15 23L15 24L14 24L14 28L15 28L15 29L16 29L16 28L18 28L18 29L19 29L19 28L20 28L20 27L21 27L21 26L22 26L22 25L24 25L24 24L25 24L25 23L26 23L26 22L25 22L25 21L24 21L24 20L21 20L21 19ZM18 20L18 21L20 21L20 20ZM6 21L6 22L7 22L7 21ZM23 21L23 22L24 22L24 21ZM45 21L45 22L46 22L46 21ZM18 22L18 23L20 23L20 22ZM6 23L6 24L7 24L7 23ZM23 23L23 24L24 24L24 23ZM17 24L17 25L18 25L18 26L16 26L16 27L18 27L18 26L19 26L19 27L20 27L20 26L19 26L19 25L21 25L21 24ZM25 26L25 27L26 27L26 26ZM5 27L5 30L8 30L8 27ZM9 27L9 28L10 28L10 27ZM27 27L27 30L30 30L30 27ZM49 27L49 30L52 30L52 27ZM6 28L6 29L7 29L7 28ZM25 28L25 29L26 29L26 28ZM28 28L28 29L29 29L29 28ZM50 28L50 29L51 29L51 28ZM54 28L54 29L53 29L53 30L54 30L54 29L56 29L56 28ZM3 29L3 30L4 30L4 29ZM39 29L39 30L38 30L38 32L39 32L39 30L40 30L40 29ZM30 31L30 32L29 32L29 33L31 33L31 31ZM47 31L47 32L46 32L46 33L47 33L47 32L48 32L48 33L49 33L49 32L48 32L48 31ZM15 32L15 33L16 33L16 32ZM33 32L33 33L34 33L34 32ZM21 33L21 34L22 34L22 33ZM23 33L23 34L24 34L24 36L23 36L23 37L24 37L24 38L23 38L23 39L22 39L22 40L23 40L23 41L24 41L24 40L25 40L25 39L27 39L27 40L28 40L28 39L27 39L27 38L28 38L28 37L27 37L27 33L26 33L26 35L25 35L25 33ZM54 33L54 34L55 34L55 33ZM42 34L42 35L41 35L41 36L40 36L40 37L38 37L38 39L35 39L35 40L38 40L38 39L41 39L41 38L42 38L42 37L43 37L43 36L44 36L44 35L43 35L43 34ZM50 34L50 35L49 35L49 37L48 37L48 38L50 38L50 35L52 35L52 34ZM11 36L11 37L12 37L12 36ZM41 36L41 37L40 37L40 38L41 38L41 37L42 37L42 36ZM15 37L15 38L16 38L16 37ZM25 37L25 38L27 38L27 37ZM23 39L23 40L24 40L24 39ZM21 41L21 42L22 42L22 41ZM30 41L30 42L32 42L32 43L33 43L33 42L32 42L32 41ZM41 42L41 43L39 43L39 45L38 45L38 46L39 46L39 47L38 47L38 48L37 48L37 49L38 49L38 50L41 50L41 48L42 48L42 49L43 49L43 48L42 48L42 47L43 47L43 46L41 46L41 44L42 44L42 42ZM43 42L43 43L44 43L44 42ZM51 42L51 43L50 43L50 46L51 46L51 43L53 43L53 42ZM5 43L5 44L6 44L6 45L7 45L7 44L6 44L6 43ZM11 43L11 44L12 44L12 43ZM9 44L9 45L10 45L10 44ZM48 44L48 45L49 45L49 44ZM2 45L2 46L1 46L1 47L2 47L2 46L3 46L3 47L5 47L5 46L3 46L3 45ZM13 46L13 47L12 47L12 48L10 48L10 49L15 49L15 48L14 48L14 47L15 47L15 46ZM40 46L40 47L39 47L39 48L38 48L38 49L39 49L39 48L41 48L41 46ZM26 47L26 48L27 48L27 47ZM29 47L29 48L30 48L30 47ZM33 48L33 49L34 49L34 48ZM53 48L53 49L56 49L56 48ZM27 49L27 52L30 52L30 49ZM49 49L49 52L52 52L52 49ZM11 50L11 51L12 51L12 50ZM13 50L13 51L14 51L14 50ZM28 50L28 51L29 51L29 50ZM50 50L50 51L51 51L51 50ZM54 50L54 51L55 51L55 50ZM24 53L24 54L23 54L23 55L24 55L24 56L25 56L25 54L27 54L27 53ZM10 54L10 55L11 55L11 54ZM41 54L41 55L42 55L42 56L43 56L43 55L42 55L42 54ZM15 55L15 56L16 56L16 55ZM50 55L50 56L51 56L51 55ZM0 0L0 7L7 7L7 0ZM1 1L1 6L6 6L6 1ZM2 2L2 5L5 5L5 2ZM50 0L50 7L57 7L57 0ZM51 1L51 6L56 6L56 1ZM52 2L52 5L55 5L55 2ZM0 50L0 57L7 57L7 50ZM1 51L1 56L6 56L6 51ZM2 52L2 55L5 55L5 52Z" fill="#000000"/></g></g></svg>
