<?xml version="1.0" encoding="UTF-8"?>
<svg xmlns="http://www.w3.org/2000/svg" version="1.1" width="300" height="300" viewBox="0 0 300 300"><rect x="0" y="0" width="300" height="300" fill="#fefefe"/><g transform="scale(4.615)"><g transform="translate(4,4)"><path fill-rule="evenodd" d="M9 0L9 1L8 1L8 2L9 2L9 1L10 1L10 0ZM11 0L11 1L12 1L12 2L10 2L10 3L11 3L11 4L10 4L10 5L8 5L8 7L9 7L9 6L10 6L10 7L11 7L11 13L8 13L8 16L1 16L1 15L3 15L3 14L5 14L5 15L7 15L7 14L6 14L6 13L7 13L7 12L5 12L5 10L6 10L6 11L8 11L8 12L9 12L9 11L10 11L10 10L9 10L9 8L6 8L6 9L5 9L5 8L0 8L0 10L1 10L1 13L0 13L0 14L1 14L1 15L0 15L0 17L4 17L4 18L3 18L3 19L2 19L2 20L1 20L1 19L0 19L0 20L1 20L1 21L0 21L0 23L1 23L1 24L3 24L3 25L0 25L0 26L1 26L1 28L0 28L0 30L2 30L2 33L0 33L0 35L1 35L1 36L2 36L2 39L4 39L4 38L5 38L5 37L7 37L7 36L9 36L9 37L8 37L8 38L6 38L6 39L5 39L5 41L3 41L3 40L2 40L2 41L1 41L1 42L0 42L0 45L1 45L1 46L0 46L0 48L5 48L5 47L7 47L7 46L8 46L8 44L9 44L9 46L10 46L10 44L11 44L11 46L12 46L12 48L13 48L13 50L11 50L11 48L10 48L10 47L9 47L9 48L6 48L6 49L8 49L8 51L9 51L9 50L10 50L10 52L8 52L8 57L9 57L9 55L10 55L10 56L11 56L11 55L10 55L10 54L13 54L13 55L16 55L16 56L15 56L15 57L16 57L16 56L17 56L17 57L22 57L22 56L19 56L19 55L20 55L20 54L19 54L19 53L20 53L20 52L21 52L21 51L22 51L22 52L23 52L23 51L22 51L22 50L25 50L25 51L26 51L26 53L25 53L25 52L24 52L24 53L21 53L21 54L22 54L22 55L23 55L23 56L24 56L24 57L26 57L26 56L27 56L27 57L29 57L29 56L30 56L30 57L31 57L31 56L35 56L35 57L39 57L39 56L40 56L40 55L41 55L41 56L42 56L42 55L44 55L44 56L43 56L43 57L44 57L44 56L45 56L45 57L48 57L48 56L50 56L50 57L52 57L52 55L51 55L51 53L52 53L52 54L53 54L53 52L54 52L54 53L55 53L55 52L57 52L57 51L56 51L56 50L55 50L55 49L53 49L53 48L56 48L56 49L57 49L57 48L56 48L56 46L57 46L57 45L56 45L56 44L57 44L57 43L56 43L56 41L55 41L55 39L57 39L57 37L56 37L56 36L55 36L55 35L56 35L56 33L57 33L57 32L56 32L56 30L57 30L57 28L56 28L56 27L55 27L55 26L57 26L57 25L56 25L56 22L57 22L57 21L56 21L56 20L57 20L57 19L56 19L56 18L53 18L53 17L51 17L51 18L52 18L52 19L50 19L50 16L55 16L55 17L56 17L56 16L57 16L57 15L56 15L56 14L57 14L57 13L56 13L56 14L55 14L55 13L54 13L54 12L55 12L55 11L56 11L56 12L57 12L57 11L56 11L56 8L55 8L55 10L54 10L54 11L53 11L53 9L54 9L54 8L53 8L53 9L52 9L52 8L51 8L51 10L52 10L52 11L50 11L50 8L49 8L49 6L48 6L48 7L47 7L47 5L48 5L48 0L45 0L45 2L44 2L44 3L43 3L43 4L40 4L40 5L39 5L39 6L38 6L38 7L37 7L37 5L38 5L38 4L39 4L39 3L42 3L42 2L43 2L43 0L41 0L41 1L40 1L40 0L39 0L39 1L38 1L38 0L37 0L37 1L38 1L38 2L39 2L39 3L36 3L36 0L35 0L35 1L33 1L33 0L32 0L32 3L31 3L31 4L26 4L26 3L23 3L23 2L25 2L25 1L26 1L26 2L28 2L28 3L29 3L29 2L28 2L28 1L30 1L30 2L31 2L31 0L27 0L27 1L26 1L26 0L23 0L23 2L22 2L22 0L21 0L21 3L23 3L23 4L19 4L19 2L20 2L20 0L19 0L19 1L16 1L16 2L15 2L15 0L14 0L14 2L13 2L13 0ZM46 1L46 2L47 2L47 1ZM12 2L12 3L13 3L13 2ZM14 2L14 4L13 4L13 7L12 7L12 4L11 4L11 7L12 7L12 9L13 9L13 10L12 10L12 13L13 13L13 14L15 14L15 13L16 13L16 16L15 16L15 15L14 15L14 18L13 18L13 17L12 17L12 15L11 15L11 14L9 14L9 15L11 15L11 17L12 17L12 18L13 18L13 19L11 19L11 18L9 18L9 17L10 17L10 16L8 16L8 17L6 17L6 18L7 18L7 19L6 19L6 20L7 20L7 21L6 21L6 22L7 22L7 21L8 21L8 20L9 20L9 22L8 22L8 23L6 23L6 24L8 24L8 26L10 26L10 25L11 25L11 26L12 26L12 27L11 27L11 29L9 29L9 31L6 31L6 32L7 32L7 33L5 33L5 31L4 31L4 29L3 29L3 33L2 33L2 36L3 36L3 38L4 38L4 36L3 36L3 33L4 33L4 35L5 35L5 36L7 36L7 35L5 35L5 34L11 34L11 35L12 35L12 32L11 32L11 31L10 31L10 30L11 30L11 29L12 29L12 27L13 27L13 30L12 30L12 31L13 31L13 32L14 32L14 34L17 34L17 32L18 32L18 31L17 31L17 30L18 30L18 29L20 29L20 30L19 30L19 32L20 32L20 31L24 31L24 32L21 32L21 33L20 33L20 34L19 34L19 33L18 33L18 34L19 34L19 35L17 35L17 36L15 36L15 37L14 37L14 35L13 35L13 36L10 36L10 35L9 35L9 36L10 36L10 37L9 37L9 38L8 38L8 39L6 39L6 40L7 40L7 41L6 41L6 42L7 42L7 43L6 43L6 44L8 44L8 42L9 42L9 41L8 41L8 39L9 39L9 40L10 40L10 41L12 41L12 42L11 42L11 44L12 44L12 42L14 42L14 39L16 39L16 40L15 40L15 41L16 41L16 42L17 42L17 43L18 43L18 42L19 42L19 45L20 45L20 47L21 47L21 48L20 48L20 51L21 51L21 49L23 49L23 48L24 48L24 49L25 49L25 50L26 50L26 49L25 49L25 48L27 48L27 47L28 47L28 48L30 48L30 47L29 47L29 45L27 45L27 44L28 44L28 43L27 43L27 42L26 42L26 41L28 41L28 42L29 42L29 41L28 41L28 40L32 40L32 41L30 41L30 42L32 42L32 43L29 43L29 44L30 44L30 45L31 45L31 48L32 48L32 49L31 49L31 50L32 50L32 49L33 49L33 50L34 50L34 51L33 51L33 52L32 52L32 51L31 51L31 53L30 53L30 54L26 54L26 55L27 55L27 56L29 56L29 55L30 55L30 56L31 56L31 54L32 54L32 53L33 53L33 55L35 55L35 56L36 56L36 54L35 54L35 50L36 50L36 52L37 52L37 53L38 53L38 54L37 54L37 56L39 56L39 55L38 55L38 54L40 54L40 53L43 53L43 54L44 54L44 55L47 55L47 54L48 54L48 50L47 50L47 49L48 49L48 48L49 48L49 47L48 47L48 46L47 46L47 45L48 45L48 44L49 44L49 46L50 46L50 48L53 48L53 47L54 47L54 46L56 46L56 45L55 45L55 44L54 44L54 45L52 45L52 44L53 44L53 43L54 43L54 42L53 42L53 41L54 41L54 40L53 40L53 41L51 41L51 42L50 42L50 43L48 43L48 44L47 44L47 45L45 45L45 44L46 44L46 42L48 42L48 41L49 41L49 40L50 40L50 39L52 39L52 38L53 38L53 39L55 39L55 37L53 37L53 35L55 35L55 34L54 34L54 32L53 32L53 31L52 31L52 32L51 32L51 33L52 33L52 34L50 34L50 31L48 31L48 27L47 27L47 25L49 25L49 23L50 23L50 24L51 24L51 25L50 25L50 26L52 26L52 25L53 25L53 23L52 23L52 24L51 24L51 23L50 23L50 22L51 22L51 21L53 21L53 22L56 22L56 21L55 21L55 20L56 20L56 19L55 19L55 20L53 20L53 19L52 19L52 20L51 20L51 21L49 21L49 22L47 22L47 20L46 20L46 18L47 18L47 16L46 16L46 15L45 15L45 14L47 14L47 13L49 13L49 12L50 12L50 14L49 14L49 15L48 15L48 16L49 16L49 15L50 15L50 14L51 14L51 12L50 12L50 11L49 11L49 10L47 10L47 9L49 9L49 8L47 8L47 9L45 9L45 8L44 8L44 6L45 6L45 7L46 7L46 6L45 6L45 5L47 5L47 3L44 3L44 6L43 6L43 5L42 5L42 6L41 6L41 5L40 5L40 6L39 6L39 7L40 7L40 8L39 8L39 9L38 9L38 10L37 10L37 9L35 9L35 8L37 8L37 7L36 7L36 5L37 5L37 4L36 4L36 5L35 5L35 2L33 2L33 3L32 3L32 4L31 4L31 8L32 8L32 10L31 10L31 11L30 11L30 10L29 10L29 12L28 12L28 13L27 13L27 15L26 15L26 12L27 12L27 11L28 11L28 10L27 10L27 11L26 11L26 12L25 12L25 10L24 10L24 13L22 13L22 12L21 12L21 13L20 13L20 11L22 11L22 10L23 10L23 9L24 9L24 6L23 6L23 5L24 5L24 4L23 4L23 5L21 5L21 7L22 7L22 8L20 8L20 11L19 11L19 13L20 13L20 15L19 15L19 14L17 14L17 13L18 13L18 12L17 12L17 13L16 13L16 12L15 12L15 13L13 13L13 12L14 12L14 11L13 11L13 10L17 10L17 11L18 11L18 10L19 10L19 9L15 9L15 7L16 7L16 8L17 8L17 7L18 7L18 6L19 6L19 7L20 7L20 5L17 5L17 2L16 2L16 3L15 3L15 2ZM8 3L8 4L9 4L9 3ZM15 4L15 5L14 5L14 7L13 7L13 9L14 9L14 7L15 7L15 5L16 5L16 4ZM25 4L25 8L26 8L26 4ZM32 4L32 5L34 5L34 7L33 7L33 6L32 6L32 7L33 7L33 9L34 9L34 8L35 8L35 5L34 5L34 4ZM27 5L27 8L30 8L30 5ZM16 6L16 7L17 7L17 6ZM22 6L22 7L23 7L23 6ZM28 6L28 7L29 7L29 6ZM40 6L40 7L41 7L41 10L42 10L42 11L45 11L45 12L47 12L47 10L44 10L44 8L42 8L42 7L43 7L43 6L42 6L42 7L41 7L41 6ZM3 9L3 10L2 10L2 11L3 11L3 12L2 12L2 13L1 13L1 14L2 14L2 13L3 13L3 12L4 12L4 11L3 11L3 10L4 10L4 9ZM6 9L6 10L8 10L8 11L9 11L9 10L8 10L8 9ZM21 9L21 10L22 10L22 9ZM32 10L32 11L31 11L31 13L30 13L30 14L29 14L29 13L28 13L28 14L29 14L29 16L28 16L28 15L27 15L27 16L26 16L26 15L25 15L25 16L26 16L26 17L22 17L22 16L21 16L21 15L23 15L23 16L24 16L24 15L23 15L23 14L22 14L22 13L21 13L21 15L20 15L20 16L16 16L16 17L19 17L19 18L15 18L15 21L16 21L16 22L14 22L14 21L13 21L13 22L12 22L12 21L11 21L11 22L10 22L10 23L11 23L11 24L12 24L12 23L14 23L14 24L13 24L13 25L14 25L14 26L13 26L13 27L14 27L14 28L16 28L16 29L15 29L15 31L14 31L14 30L13 30L13 31L14 31L14 32L15 32L15 31L16 31L16 29L18 29L18 28L16 28L16 27L18 27L18 26L19 26L19 28L20 28L20 29L22 29L22 28L21 28L21 27L22 27L22 26L23 26L23 27L25 27L25 28L24 28L24 29L23 29L23 30L24 30L24 31L26 31L26 33L27 33L27 32L28 32L28 33L29 33L29 34L30 34L30 36L29 36L29 37L31 37L31 38L29 38L29 39L33 39L33 40L35 40L35 42L37 42L37 43L36 43L36 44L35 44L35 43L34 43L34 42L33 42L33 41L32 41L32 42L33 42L33 43L32 43L32 44L31 44L31 45L32 45L32 47L33 47L33 49L34 49L34 48L35 48L35 49L36 49L36 50L38 50L38 51L37 51L37 52L38 52L38 53L39 53L39 52L38 52L38 51L40 51L40 52L41 52L41 50L42 50L42 51L43 51L43 53L44 53L44 54L45 54L45 53L44 53L44 52L47 52L47 50L46 50L46 48L45 48L45 50L46 50L46 51L43 51L43 49L44 49L44 48L43 48L43 47L44 47L44 46L43 46L43 45L44 45L44 44L45 44L45 43L44 43L44 42L43 42L43 41L44 41L44 40L45 40L45 41L47 41L47 39L48 39L48 38L47 38L47 39L46 39L46 40L45 40L45 39L44 39L44 40L43 40L43 41L41 41L41 42L42 42L42 44L41 44L41 46L40 46L40 47L39 47L39 46L38 46L38 45L39 45L39 44L40 44L40 43L39 43L39 42L40 42L40 41L39 41L39 42L38 42L38 40L41 40L41 39L38 39L38 37L40 37L40 38L43 38L43 37L44 37L44 38L45 38L45 37L44 37L44 36L46 36L46 37L47 37L47 34L45 34L45 35L44 35L44 33L43 33L43 32L48 32L48 33L49 33L49 32L48 32L48 31L47 31L47 30L46 30L46 29L47 29L47 27L46 27L46 26L44 26L44 27L43 27L43 28L45 28L45 29L41 29L41 30L43 30L43 32L41 32L41 33L39 33L39 34L40 34L40 35L38 35L38 33L37 33L37 32L35 32L35 34L37 34L37 35L38 35L38 37L37 37L37 36L35 36L35 35L34 35L34 36L35 36L35 39L34 39L34 38L33 38L33 37L32 37L32 36L33 36L33 34L31 34L31 33L32 33L32 32L33 32L33 33L34 33L34 32L33 32L33 31L36 31L36 29L38 29L38 28L40 28L40 26L41 26L41 28L42 28L42 26L43 26L43 25L44 25L44 24L42 24L42 23L44 23L44 20L45 20L45 21L46 21L46 20L45 20L45 18L44 18L44 12L43 12L43 13L41 13L41 14L38 14L38 13L40 13L40 12L41 12L41 11L40 11L40 10L39 10L39 11L37 11L37 10L36 10L36 11L35 11L35 13L36 13L36 14L33 14L33 13L34 13L34 12L33 12L33 10ZM39 11L39 12L40 12L40 11ZM32 12L32 13L31 13L31 14L30 14L30 15L31 15L31 14L32 14L32 13L33 13L33 12ZM52 12L52 13L53 13L53 12ZM24 13L24 14L25 14L25 13ZM37 14L37 15L35 15L35 16L32 16L32 17L33 17L33 18L30 18L30 19L28 19L28 18L25 18L25 19L26 19L26 20L25 20L25 21L24 21L24 20L23 20L23 19L24 19L24 18L23 18L23 19L22 19L22 21L21 21L21 18L22 18L22 17L21 17L21 16L20 16L20 18L19 18L19 20L20 20L20 21L19 21L19 22L18 22L18 21L17 21L17 20L18 20L18 19L16 19L16 21L17 21L17 22L18 22L18 23L19 23L19 24L21 24L21 25L20 25L20 27L21 27L21 25L24 25L24 24L25 24L25 25L26 25L26 26L25 26L25 27L26 27L26 26L27 26L27 25L31 25L31 24L32 24L32 26L31 26L31 28L32 28L32 29L31 29L31 31L29 31L29 33L31 33L31 32L32 32L32 29L33 29L33 30L35 30L35 28L33 28L33 27L34 27L34 26L36 26L36 27L39 27L39 26L40 26L40 25L41 25L41 24L40 24L40 22L39 22L39 21L43 21L43 20L44 20L44 18L43 18L43 19L42 19L42 18L41 18L41 20L39 20L39 21L38 21L38 20L37 20L37 19L39 19L39 17L41 17L41 16L42 16L42 17L43 17L43 16L42 16L42 15L43 15L43 14L41 14L41 16L39 16L39 15L38 15L38 14ZM27 16L27 17L28 17L28 16ZM35 16L35 17L37 17L37 18L38 18L38 17L39 17L39 16L38 16L38 17L37 17L37 16ZM45 16L45 17L46 17L46 16ZM8 18L8 19L9 19L9 18ZM48 18L48 19L49 19L49 18ZM4 19L4 22L1 22L1 23L4 23L4 25L3 25L3 26L4 26L4 25L5 25L5 26L7 26L7 25L5 25L5 19ZM13 19L13 20L14 20L14 19ZM30 19L30 20L29 20L29 21L25 21L25 22L26 22L26 23L25 23L25 24L28 24L28 22L29 22L29 24L30 24L30 22L31 22L31 21L32 21L32 20L33 20L33 19ZM35 19L35 23L34 23L34 22L33 22L33 23L32 23L32 24L33 24L33 25L37 25L37 26L38 26L38 25L40 25L40 24L37 24L37 23L39 23L39 22L38 22L38 21L37 21L37 20L36 20L36 19ZM22 21L22 22L24 22L24 21ZM11 22L11 23L12 23L12 22ZM19 22L19 23L20 23L20 22ZM41 22L41 23L42 23L42 22ZM45 22L45 23L46 23L46 24L47 24L47 22ZM8 23L8 24L9 24L9 25L10 25L10 24L9 24L9 23ZM15 23L15 24L14 24L14 25L15 25L15 26L14 26L14 27L15 27L15 26L17 26L17 24L16 24L16 23ZM21 23L21 24L24 24L24 23ZM15 24L15 25L16 25L16 24ZM54 24L54 25L55 25L55 24ZM32 26L32 27L33 27L33 26ZM53 26L53 27L54 27L54 26ZM3 27L3 28L4 28L4 27ZM5 27L5 30L8 30L8 27ZM9 27L9 28L10 28L10 27ZM27 27L27 30L30 30L30 27ZM45 27L45 28L46 28L46 27ZM49 27L49 30L52 30L52 27ZM6 28L6 29L7 29L7 28ZM25 28L25 29L26 29L26 28ZM28 28L28 29L29 29L29 28ZM50 28L50 29L51 29L51 28ZM54 28L54 29L56 29L56 28ZM39 29L39 30L38 30L38 32L39 32L39 30L40 30L40 29ZM44 30L44 31L45 31L45 30ZM0 31L0 32L1 32L1 31ZM52 32L52 33L53 33L53 32ZM55 32L55 33L56 33L56 32ZM21 33L21 34L20 34L20 36L23 36L23 37L24 37L24 38L22 38L22 39L24 39L24 40L23 40L23 42L22 42L22 41L21 41L21 42L20 42L20 41L19 41L19 40L21 40L21 37L19 37L19 36L17 36L17 37L19 37L19 38L18 38L18 39L17 39L17 40L16 40L16 41L17 41L17 42L18 42L18 41L19 41L19 42L20 42L20 43L21 43L21 44L20 44L20 45L21 45L21 47L24 47L24 48L25 48L25 45L23 45L23 44L24 44L24 43L25 43L25 44L27 44L27 43L25 43L25 41L24 41L24 40L25 40L25 37L26 37L26 39L27 39L27 40L28 40L28 39L27 39L27 38L28 38L28 37L27 37L27 34L26 34L26 35L25 35L25 33L23 33L23 34L24 34L24 36L23 36L23 35L22 35L22 33ZM42 34L42 36L40 36L40 37L43 37L43 36L44 36L44 35L43 35L43 34ZM48 34L48 35L50 35L50 36L49 36L49 37L50 37L50 38L49 38L49 39L50 39L50 38L51 38L51 37L52 37L52 35L53 35L53 34L52 34L52 35L50 35L50 34ZM50 36L50 37L51 37L51 36ZM0 37L0 38L1 38L1 37ZM10 37L10 38L9 38L9 39L10 39L10 40L11 40L11 38L12 38L12 37ZM13 37L13 39L12 39L12 40L13 40L13 39L14 39L14 37ZM15 37L15 38L16 38L16 37ZM19 38L19 39L20 39L20 38ZM35 39L35 40L38 40L38 39ZM2 41L2 42L1 42L1 44L2 44L2 46L1 46L1 47L2 47L2 46L3 46L3 47L5 47L5 46L4 46L4 45L5 45L5 44L3 44L3 43L2 43L2 42L3 42L3 41ZM4 42L4 43L5 43L5 42ZM21 42L21 43L22 43L22 42ZM51 42L51 43L50 43L50 45L51 45L51 43L53 43L53 42ZM13 43L13 44L15 44L15 49L14 49L14 50L13 50L13 51L14 51L14 52L15 52L15 51L14 51L14 50L17 50L17 51L16 51L16 53L14 53L14 54L16 54L16 53L17 53L17 51L19 51L19 49L16 49L16 48L18 48L18 47L19 47L19 46L17 46L17 45L18 45L18 44L16 44L16 43ZM33 43L33 44L32 44L32 45L33 45L33 46L35 46L35 45L34 45L34 43ZM43 43L43 44L44 44L44 43ZM21 44L21 45L22 45L22 46L23 46L23 45L22 45L22 44ZM6 45L6 46L7 46L7 45ZM12 45L12 46L13 46L13 45ZM26 45L26 47L27 47L27 45ZM36 46L36 47L35 47L35 48L36 48L36 47L37 47L37 46ZM41 46L41 48L39 48L39 47L38 47L38 48L37 48L37 49L38 49L38 50L41 50L41 48L42 48L42 49L43 49L43 48L42 48L42 47L43 47L43 46ZM45 46L45 47L47 47L47 48L48 48L48 47L47 47L47 46ZM51 46L51 47L52 47L52 46ZM13 47L13 48L14 48L14 47ZM38 48L38 49L39 49L39 48ZM27 49L27 52L30 52L30 49ZM49 49L49 52L52 52L52 49ZM28 50L28 51L29 51L29 50ZM50 50L50 51L51 51L51 50ZM54 50L54 51L55 51L55 50ZM10 52L10 53L9 53L9 54L10 54L10 53L11 53L11 52ZM33 52L33 53L34 53L34 52ZM24 53L24 54L23 54L23 55L24 55L24 56L25 56L25 53ZM17 54L17 56L18 56L18 55L19 55L19 54ZM41 54L41 55L42 55L42 54ZM50 55L50 56L51 56L51 55ZM53 55L53 56L55 56L55 57L56 57L56 56L55 56L55 55ZM12 56L12 57L13 57L13 56ZM0 0L0 7L7 7L7 0ZM1 1L1 6L6 6L6 1ZM2 2L2 5L5 5L5 2ZM50 0L50 7L57 7L57 0ZM51 1L51 6L56 6L56 1ZM52 2L52 5L55 5L55 2ZM0 50L0 57L7 57L7 50ZM1 51L1 56L6 56L6 51ZM2 52L2 55L5 55L5 52Z" fill="#000000"/></g></g></svg>
