<?xml version="1.0" encoding="UTF-8"?>
<svg xmlns="http://www.w3.org/2000/svg" version="1.1" width="300" height="300" viewBox="0 0 300 300"><rect x="0" y="0" width="300" height="300" fill="#fefefe"/><g transform="scale(4.615)"><g transform="translate(4,4)"><path fill-rule="evenodd" d="M11 0L11 1L12 1L12 2L13 2L13 3L11 3L11 2L10 2L10 3L8 3L8 4L9 4L9 5L8 5L8 7L9 7L9 8L6 8L6 9L8 9L8 10L9 10L9 11L10 11L10 12L9 12L9 13L8 13L8 15L9 15L9 16L8 16L8 18L5 18L5 20L4 20L4 19L3 19L3 17L1 17L1 16L0 16L0 19L1 19L1 20L3 20L3 21L4 21L4 22L1 22L1 23L0 23L0 24L2 24L2 23L4 23L4 24L3 24L3 25L2 25L2 28L4 28L4 29L1 29L1 27L0 27L0 30L4 30L4 31L3 31L3 32L2 32L2 33L3 33L3 34L2 34L2 37L1 37L1 31L0 31L0 37L1 37L1 38L0 38L0 39L1 39L1 40L0 40L0 41L3 41L3 42L2 42L2 44L1 44L1 43L0 43L0 44L1 44L1 45L0 45L0 48L5 48L5 47L7 47L7 48L6 48L6 49L7 49L7 48L8 48L8 51L9 51L9 52L8 52L8 57L9 57L9 52L12 52L12 54L14 54L14 55L13 55L13 56L14 56L14 55L16 55L16 56L17 56L17 57L19 57L19 55L20 55L20 54L19 54L19 53L20 53L20 52L21 52L21 51L23 51L23 50L25 50L25 49L24 49L24 47L23 47L23 46L25 46L25 45L24 45L24 43L25 43L25 44L27 44L27 45L26 45L26 47L28 47L28 48L26 48L26 52L24 52L24 53L23 53L23 54L22 54L22 56L24 56L24 57L26 57L26 56L24 56L24 55L23 55L23 54L24 54L24 53L27 53L27 54L30 54L30 53L31 53L31 48L33 48L33 47L34 47L34 48L35 48L35 49L36 49L36 50L35 50L35 51L33 51L33 49L32 49L32 52L33 52L33 53L32 53L32 54L31 54L31 56L30 56L30 55L29 55L29 56L27 56L27 57L29 57L29 56L30 56L30 57L31 57L31 56L35 56L35 57L39 57L39 56L40 56L40 55L41 55L41 54L42 54L42 55L44 55L44 56L43 56L43 57L44 57L44 56L45 56L45 57L46 57L46 56L45 56L45 55L47 55L47 57L49 57L49 56L50 56L50 57L52 57L52 55L51 55L51 53L52 53L52 54L53 54L53 55L54 55L54 56L53 56L53 57L54 57L54 56L55 56L55 57L56 57L56 56L55 56L55 52L57 52L57 51L56 51L56 50L55 50L55 48L56 48L56 49L57 49L57 48L56 48L56 46L57 46L57 43L56 43L56 42L57 42L57 41L56 41L56 42L55 42L55 39L57 39L57 37L56 37L56 36L57 36L57 35L56 35L56 34L55 34L55 32L56 32L56 33L57 33L57 32L56 32L56 30L57 30L57 28L55 28L55 27L56 27L56 26L57 26L57 25L56 25L56 22L57 22L57 20L56 20L56 18L57 18L57 17L56 17L56 16L57 16L57 15L56 15L56 14L57 14L57 12L56 12L56 10L54 10L54 11L52 11L52 10L53 10L53 9L54 9L54 8L53 8L53 9L52 9L52 8L51 8L51 11L50 11L50 8L48 8L48 9L47 9L47 10L46 10L46 11L45 11L45 10L44 10L44 8L45 8L45 6L46 6L46 8L47 8L47 5L48 5L48 0L46 0L46 1L45 1L45 2L44 2L44 3L43 3L43 4L40 4L40 5L39 5L39 6L38 6L38 7L37 7L37 5L38 5L38 4L39 4L39 3L41 3L41 2L43 2L43 0L41 0L41 1L40 1L40 0L39 0L39 1L38 1L38 0L37 0L37 1L38 1L38 2L39 2L39 3L36 3L36 0L35 0L35 1L32 1L32 3L31 3L31 2L28 2L28 3L27 3L27 4L26 4L26 3L23 3L23 4L19 4L19 3L17 3L17 2L16 2L16 1L15 1L15 0L14 0L14 2L13 2L13 1L12 1L12 0ZM19 0L19 2L20 2L20 0ZM21 0L21 2L22 2L22 0ZM23 0L23 2L27 2L27 1L25 1L25 0ZM28 0L28 1L31 1L31 0ZM8 1L8 2L9 2L9 1ZM46 1L46 2L47 2L47 1ZM14 2L14 4L13 4L13 5L12 5L12 4L11 4L11 3L10 3L10 4L11 4L11 7L12 7L12 6L13 6L13 8L11 8L11 9L13 9L13 8L14 8L14 10L15 10L15 11L18 11L18 10L17 10L17 9L16 9L16 8L19 8L19 7L20 7L20 5L17 5L17 3L15 3L15 2ZM33 2L33 3L32 3L32 4L31 4L31 8L32 8L32 10L29 10L29 9L28 9L28 10L27 10L27 11L26 11L26 12L25 12L25 11L23 11L23 12L24 12L24 13L22 13L22 12L21 12L21 11L22 11L22 10L23 10L23 9L25 9L25 8L26 8L26 4L25 4L25 8L24 8L24 6L23 6L23 8L20 8L20 10L21 10L21 11L19 11L19 12L20 12L20 14L18 14L18 15L17 15L17 13L18 13L18 12L17 12L17 13L16 13L16 12L15 12L15 13L12 13L12 12L14 12L14 11L12 11L12 10L10 10L10 11L11 11L11 13L10 13L10 15L11 15L11 13L12 13L12 15L14 15L14 17L13 17L13 16L11 16L11 18L13 18L13 19L14 19L14 20L13 20L13 21L12 21L12 19L11 19L11 20L10 20L10 16L9 16L9 18L8 18L8 19L6 19L6 20L5 20L5 21L6 21L6 22L5 22L5 24L4 24L4 25L3 25L3 26L8 26L8 25L6 25L6 24L7 24L7 23L8 23L8 24L11 24L11 25L9 25L9 26L10 26L10 27L9 27L9 29L10 29L10 30L9 30L9 31L8 31L8 32L7 32L7 31L5 31L5 35L3 35L3 37L2 37L2 38L1 38L1 39L2 39L2 40L3 40L3 41L4 41L4 42L3 42L3 43L4 43L4 44L3 44L3 45L2 45L2 46L1 46L1 47L2 47L2 46L3 46L3 47L5 47L5 46L7 46L7 45L6 45L6 44L8 44L8 46L9 46L9 47L8 47L8 48L10 48L10 50L9 50L9 51L11 51L11 50L12 50L12 52L13 52L13 53L14 53L14 52L16 52L16 53L15 53L15 54L16 54L16 53L17 53L17 52L16 52L16 51L14 51L14 50L18 50L18 52L20 52L20 51L19 51L19 50L18 50L18 49L17 49L17 48L18 48L18 47L17 47L17 45L18 45L18 44L15 44L15 45L14 45L14 44L13 44L13 43L11 43L11 45L10 45L10 44L8 44L8 42L10 42L10 41L11 41L11 42L12 42L12 41L11 41L11 38L12 38L12 40L15 40L15 43L18 43L18 42L19 42L19 41L17 41L17 40L19 40L19 39L20 39L20 38L19 38L19 37L21 37L21 39L22 39L22 40L20 40L20 42L21 42L21 43L20 43L20 44L21 44L21 45L20 45L20 46L21 46L21 45L22 45L22 46L23 46L23 45L22 45L22 44L21 44L21 43L22 43L22 42L24 42L24 41L25 41L25 43L27 43L27 44L28 44L28 43L29 43L29 45L27 45L27 46L29 46L29 45L30 45L30 46L31 46L31 47L32 47L32 46L31 46L31 45L30 45L30 43L29 43L29 40L30 40L30 41L31 41L31 42L32 42L32 43L33 43L33 44L32 44L32 45L33 45L33 46L35 46L35 48L36 48L36 46L35 46L35 45L34 45L34 43L37 43L37 42L35 42L35 40L38 40L38 42L39 42L39 45L38 45L38 46L39 46L39 47L38 47L38 48L37 48L37 49L38 49L38 50L36 50L36 52L37 52L37 51L38 51L38 52L39 52L39 53L37 53L37 54L40 54L40 53L41 53L41 52L42 52L42 53L43 53L43 54L44 54L44 55L45 55L45 54L48 54L48 50L47 50L47 49L48 49L48 48L49 48L49 47L48 47L48 45L49 45L49 46L50 46L50 48L51 48L51 47L52 47L52 48L53 48L53 49L54 49L54 48L53 48L53 47L54 47L54 46L53 46L53 45L52 45L52 44L53 44L53 43L54 43L54 42L53 42L53 41L51 41L51 42L50 42L50 43L49 43L49 42L48 42L48 41L49 41L49 39L47 39L47 37L48 37L48 38L49 38L49 37L48 37L48 36L50 36L50 39L51 39L51 40L53 40L53 39L54 39L54 38L53 38L53 35L55 35L55 36L56 36L56 35L55 35L55 34L54 34L54 33L52 33L52 32L53 32L53 31L52 31L52 32L51 32L51 31L48 31L48 28L47 28L47 29L46 29L46 30L47 30L47 31L45 31L45 30L44 30L44 29L45 29L45 28L46 28L46 27L48 27L48 25L50 25L50 26L52 26L52 25L54 25L54 24L51 24L51 23L50 23L50 22L51 22L51 21L54 21L54 22L56 22L56 21L55 21L55 20L53 20L53 19L52 19L52 18L51 18L51 17L53 17L53 18L55 18L55 17L54 17L54 16L51 16L51 17L50 17L50 14L51 14L51 12L50 12L50 11L49 11L49 12L48 12L48 11L47 11L47 12L45 12L45 11L44 11L44 10L43 10L43 11L41 11L41 9L43 9L43 7L44 7L44 6L45 6L45 5L47 5L47 3L44 3L44 6L43 6L43 5L40 5L40 6L39 6L39 7L40 7L40 8L39 8L39 9L38 9L38 10L37 10L37 9L35 9L35 8L37 8L37 7L36 7L36 5L37 5L37 4L36 4L36 5L35 5L35 4L34 4L34 3L35 3L35 2ZM28 3L28 4L30 4L30 3ZM15 4L15 5L14 5L14 7L15 7L15 8L16 8L16 7L17 7L17 6L16 6L16 7L15 7L15 5L16 5L16 4ZM23 4L23 5L24 5L24 4ZM32 4L32 5L34 5L34 7L33 7L33 6L32 6L32 7L33 7L33 9L34 9L34 8L35 8L35 5L34 5L34 4ZM27 5L27 8L30 8L30 5ZM9 6L9 7L10 7L10 6ZM18 6L18 7L19 7L19 6ZM21 6L21 7L22 7L22 6ZM28 6L28 7L29 7L29 6ZM40 6L40 7L41 7L41 6ZM42 6L42 7L43 7L43 6ZM48 6L48 7L49 7L49 6ZM0 8L0 9L1 9L1 10L0 10L0 11L1 11L1 12L0 12L0 15L2 15L2 14L1 14L1 13L4 13L4 12L2 12L2 11L1 11L1 10L3 10L3 11L5 11L5 8ZM55 8L55 9L56 9L56 8ZM3 9L3 10L4 10L4 9ZM6 10L6 11L7 11L7 12L6 12L6 13L7 13L7 12L8 12L8 11L7 11L7 10ZM32 10L32 11L31 11L31 13L30 13L30 14L29 14L29 13L28 13L28 12L29 12L29 11L27 11L27 12L26 12L26 13L28 13L28 14L29 14L29 16L28 16L28 15L27 15L27 14L25 14L25 13L24 13L24 14L22 14L22 13L21 13L21 14L20 14L20 15L18 15L18 16L16 16L16 13L15 13L15 14L14 14L14 15L15 15L15 16L16 16L16 17L19 17L19 18L17 18L17 19L16 19L16 18L15 18L15 17L14 17L14 18L15 18L15 21L16 21L16 22L14 22L14 21L13 21L13 23L14 23L14 24L15 24L15 23L16 23L16 24L17 24L17 25L18 25L18 26L17 26L17 27L18 27L18 26L19 26L19 27L20 27L20 26L19 26L19 25L21 25L21 27L22 27L22 26L23 26L23 27L24 27L24 28L23 28L23 30L24 30L24 31L21 31L21 32L20 32L20 31L18 31L18 30L19 30L19 29L22 29L22 28L19 28L19 29L18 29L18 28L16 28L16 29L14 29L14 27L16 27L16 26L14 26L14 25L13 25L13 26L12 26L12 25L11 25L11 26L12 26L12 27L13 27L13 28L11 28L11 29L12 29L12 30L11 30L11 31L9 31L9 32L10 32L10 33L12 33L12 35L13 35L13 36L14 36L14 38L13 38L13 37L12 37L12 36L11 36L11 35L9 35L9 36L11 36L11 37L8 37L8 36L6 36L6 35L7 35L7 34L8 34L8 33L7 33L7 32L6 32L6 33L7 33L7 34L6 34L6 35L5 35L5 36L4 36L4 37L3 37L3 38L4 38L4 39L3 39L3 40L4 40L4 41L5 41L5 42L6 42L6 43L5 43L5 44L4 44L4 45L3 45L3 46L5 46L5 44L6 44L6 43L7 43L7 42L8 42L8 41L7 41L7 40L6 40L6 39L7 39L7 38L9 38L9 40L10 40L10 38L11 38L11 37L12 37L12 38L13 38L13 39L14 39L14 38L16 38L16 37L15 37L15 35L14 35L14 34L15 34L15 31L16 31L16 29L18 29L18 30L17 30L17 31L18 31L18 32L16 32L16 33L18 33L18 34L16 34L16 35L19 35L19 36L17 36L17 37L19 37L19 36L20 36L20 35L19 35L19 34L20 34L20 33L21 33L21 36L23 36L23 37L24 37L24 38L22 38L22 39L24 39L24 40L23 40L23 41L24 41L24 40L25 40L25 36L26 36L26 40L27 40L27 41L26 41L26 42L27 42L27 41L28 41L28 39L27 39L27 38L28 38L28 37L27 37L27 35L26 35L26 34L25 34L25 33L26 33L26 32L28 32L28 33L29 33L29 34L30 34L30 36L29 36L29 37L31 37L31 38L29 38L29 39L33 39L33 40L35 40L35 39L37 39L37 38L38 38L38 40L39 40L39 38L38 38L38 37L40 37L40 38L43 38L43 37L44 37L44 38L45 38L45 37L46 37L46 36L47 36L47 35L46 35L46 36L45 36L45 35L44 35L44 33L43 33L43 32L45 32L45 31L43 31L43 32L41 32L41 33L39 33L39 34L40 34L40 35L38 35L38 33L37 33L37 32L34 32L34 31L35 31L35 30L33 30L33 29L32 29L32 27L33 27L33 28L35 28L35 29L38 29L38 28L40 28L40 27L41 27L41 28L42 28L42 27L41 27L41 26L43 26L43 25L44 25L44 28L43 28L43 29L41 29L41 30L43 30L43 29L44 29L44 28L45 28L45 27L46 27L46 26L45 26L45 25L46 25L46 24L47 24L47 25L48 25L48 23L49 23L49 24L50 24L50 25L51 25L51 24L50 24L50 23L49 23L49 21L51 21L51 20L52 20L52 19L48 19L48 18L50 18L50 17L49 17L49 16L48 16L48 15L49 15L49 14L50 14L50 12L49 12L49 13L47 13L47 14L45 14L45 13L44 13L44 11L43 11L43 13L41 13L41 14L43 14L43 13L44 13L44 15L42 15L42 16L41 16L41 15L39 15L39 14L38 14L38 13L40 13L40 12L41 12L41 11L40 11L40 12L39 12L39 11L37 11L37 10L36 10L36 11L37 11L37 12L35 12L35 13L36 13L36 14L33 14L33 13L34 13L34 12L33 12L33 13L32 13L32 11L33 11L33 10ZM52 12L52 13L53 13L53 12ZM54 12L54 13L55 13L55 14L53 14L53 15L55 15L55 14L56 14L56 12ZM31 13L31 14L30 14L30 15L31 15L31 16L32 16L32 17L31 17L31 18L30 18L30 19L29 19L29 20L27 20L27 19L28 19L28 18L27 18L27 17L28 17L28 16L27 16L27 15L26 15L26 17L25 17L25 16L23 16L23 15L20 15L20 18L19 18L19 19L21 19L21 20L20 20L20 21L19 21L19 22L20 22L20 23L19 23L19 24L21 24L21 25L23 25L23 24L21 24L21 23L24 23L24 24L25 24L25 25L26 25L26 26L25 26L25 27L26 27L26 26L28 26L28 25L29 25L29 26L30 26L30 25L31 25L31 24L32 24L32 26L31 26L31 27L32 27L32 26L33 26L33 27L34 27L34 26L36 26L36 27L39 27L39 26L41 26L41 25L43 25L43 24L42 24L42 22L41 22L41 24L40 24L40 22L39 22L39 21L41 21L41 20L38 20L38 22L37 22L37 24L40 24L40 25L38 25L38 26L37 26L37 25L33 25L33 24L32 24L32 23L35 23L35 19L36 19L36 20L37 20L37 19L39 19L39 17L41 17L41 16L39 16L39 15L38 15L38 14L37 14L37 15L35 15L35 16L33 16L33 15L32 15L32 13ZM3 14L3 16L4 16L4 17L7 17L7 16L6 16L6 15L7 15L7 14L6 14L6 15L5 15L5 14ZM44 15L44 18L43 18L43 19L42 19L42 18L41 18L41 19L42 19L42 20L44 20L44 25L45 25L45 22L47 22L47 17L48 17L48 16L47 16L47 17L45 17L45 15ZM21 16L21 17L22 17L22 18L21 18L21 19L22 19L22 20L21 20L21 21L22 21L22 22L24 22L24 21L25 21L25 22L26 22L26 23L25 23L25 24L27 24L27 25L28 25L28 24L29 24L29 25L30 25L30 24L29 24L29 23L28 23L28 24L27 24L27 22L28 22L28 21L25 21L25 20L26 20L26 18L25 18L25 17L22 17L22 16ZM35 16L35 17L37 17L37 18L38 18L38 17L39 17L39 16L38 16L38 17L37 17L37 16ZM42 16L42 17L43 17L43 16ZM32 17L32 19L31 19L31 20L30 20L30 21L29 21L29 22L30 22L30 23L31 23L31 21L32 21L32 20L33 20L33 21L34 21L34 20L33 20L33 19L35 19L35 18L33 18L33 17ZM22 18L22 19L24 19L24 18ZM44 18L44 20L45 20L45 21L46 21L46 20L45 20L45 18ZM8 19L8 20L6 20L6 21L8 21L8 22L11 22L11 24L12 24L12 21L10 21L10 20L9 20L9 19ZM17 19L17 20L16 20L16 21L17 21L17 20L18 20L18 19ZM8 20L8 21L9 21L9 20ZM22 20L22 21L24 21L24 20ZM48 20L48 21L49 21L49 20ZM6 22L6 23L7 23L7 22ZM38 22L38 23L39 23L39 22ZM17 23L17 24L18 24L18 23ZM55 25L55 26L56 26L56 25ZM53 26L53 27L54 27L54 26ZM5 27L5 30L8 30L8 27ZM27 27L27 30L30 30L30 27ZM49 27L49 30L52 30L52 27ZM6 28L6 29L7 29L7 28ZM25 28L25 29L26 29L26 28ZM28 28L28 29L29 29L29 28ZM50 28L50 29L51 29L51 28ZM54 28L54 31L55 31L55 28ZM13 29L13 31L12 31L12 32L13 32L13 34L14 34L14 29ZM39 29L39 30L38 30L38 32L39 32L39 30L40 30L40 29ZM32 30L32 33L31 33L31 31L30 31L30 32L29 32L29 33L31 33L31 34L32 34L32 35L33 35L33 34L35 34L35 36L32 36L32 37L33 37L33 39L34 39L34 38L35 38L35 36L37 36L37 37L38 37L38 35L37 35L37 34L35 34L35 33L34 33L34 32L33 32L33 30ZM47 31L47 32L48 32L48 33L49 33L49 32L48 32L48 31ZM19 32L19 33L20 33L20 32ZM21 32L21 33L22 33L22 35L23 35L23 36L24 36L24 34L23 34L23 33L25 33L25 32ZM50 32L50 34L49 34L49 35L50 35L50 36L51 36L51 37L52 37L52 35L53 35L53 34L52 34L52 33L51 33L51 32ZM32 33L32 34L33 34L33 33ZM42 34L42 35L43 35L43 36L40 36L40 37L43 37L43 36L44 36L44 37L45 37L45 36L44 36L44 35L43 35L43 34ZM50 34L50 35L52 35L52 34ZM5 36L5 38L7 38L7 37L6 37L6 36ZM51 38L51 39L52 39L52 38ZM15 39L15 40L16 40L16 39ZM43 39L43 41L40 41L40 42L41 42L41 43L42 43L42 44L41 44L41 45L39 45L39 46L40 46L40 47L39 47L39 48L38 48L38 49L39 49L39 48L41 48L41 50L38 50L38 51L40 51L40 52L41 52L41 50L42 50L42 51L43 51L43 53L44 53L44 54L45 54L45 53L44 53L44 52L47 52L47 50L46 50L46 49L45 49L45 50L46 50L46 51L43 51L43 49L44 49L44 48L43 48L43 47L45 47L45 48L46 48L46 47L47 47L47 48L48 48L48 47L47 47L47 46L44 46L44 43L45 43L45 41L44 41L44 40L45 40L45 39ZM46 39L46 41L47 41L47 39ZM5 40L5 41L6 41L6 42L7 42L7 41L6 41L6 40ZM31 40L31 41L32 41L32 42L33 42L33 43L34 43L34 42L33 42L33 41L32 41L32 40ZM21 41L21 42L22 42L22 41ZM43 42L43 43L44 43L44 42ZM47 42L47 43L46 43L46 44L45 44L45 45L47 45L47 43L48 43L48 42ZM51 42L51 43L50 43L50 44L51 44L51 43L53 43L53 42ZM55 43L55 44L54 44L54 45L55 45L55 46L56 46L56 43ZM9 45L9 46L10 46L10 45ZM11 45L11 47L12 47L12 46L13 46L13 48L11 48L11 49L15 49L15 48L14 48L14 47L15 47L15 46L13 46L13 45ZM50 45L50 46L52 46L52 45ZM41 46L41 48L42 48L42 49L43 49L43 48L42 48L42 47L43 47L43 46ZM20 47L20 48L19 48L19 49L20 49L20 50L21 50L21 49L23 49L23 47ZM29 47L29 48L30 48L30 47ZM20 48L20 49L21 49L21 48ZM27 49L27 52L30 52L30 49ZM49 49L49 52L52 52L52 49ZM28 50L28 51L29 51L29 50ZM50 50L50 51L51 51L51 50ZM54 50L54 51L55 51L55 50ZM53 52L53 54L54 54L54 52ZM10 53L10 55L11 55L11 56L10 56L10 57L12 57L12 55L11 55L11 53ZM33 53L33 54L35 54L35 56L36 56L36 54L35 54L35 53ZM17 54L17 56L18 56L18 55L19 55L19 54ZM25 54L25 55L26 55L26 54ZM37 55L37 56L39 56L39 55ZM48 55L48 56L49 56L49 55ZM50 55L50 56L51 56L51 55ZM0 0L0 7L7 7L7 0ZM1 1L1 6L6 6L6 1ZM2 2L2 5L5 5L5 2ZM50 0L50 7L57 7L57 0ZM51 1L51 6L56 6L56 1ZM52 2L52 5L55 5L55 2ZM0 50L0 57L7 57L7 50ZM1 51L1 56L6 56L6 51ZM2 52L2 55L5 55L5 52Z" fill="#000000"/></g></g></svg>
