<?xml version="1.0" encoding="UTF-8"?>
<svg xmlns="http://www.w3.org/2000/svg" version="1.1" width="300" height="300" viewBox="0 0 300 300"><rect x="0" y="0" width="300" height="300" fill="#fefefe"/><g transform="scale(4.615)"><g transform="translate(4,4)"><path fill-rule="evenodd" d="M9 0L9 1L8 1L8 2L12 2L12 3L13 3L13 4L14 4L14 2L15 2L15 0L14 0L14 2L12 2L12 1L11 1L11 0ZM17 0L17 2L16 2L16 3L17 3L17 4L18 4L18 5L20 5L20 7L19 7L19 6L18 6L18 7L19 7L19 8L16 8L16 7L17 7L17 6L16 6L16 7L15 7L15 5L16 5L16 4L15 4L15 5L14 5L14 7L13 7L13 6L12 6L12 4L10 4L10 3L8 3L8 4L10 4L10 5L11 5L11 6L10 6L10 7L11 7L11 6L12 6L12 7L13 7L13 8L11 8L11 9L9 9L9 8L6 8L6 9L9 9L9 10L8 10L8 11L9 11L9 12L8 12L8 13L10 13L10 14L11 14L11 13L15 13L15 14L12 14L12 15L13 15L13 16L8 16L8 19L10 19L10 20L9 20L9 21L8 21L8 20L6 20L6 19L7 19L7 18L6 18L6 17L7 17L7 16L6 16L6 15L8 15L8 14L5 14L5 11L7 11L7 10L3 10L3 11L2 11L2 10L1 10L1 11L0 11L0 13L2 13L2 12L4 12L4 14L3 14L3 16L2 16L2 14L0 14L0 16L1 16L1 20L2 20L2 22L3 22L3 23L4 23L4 24L3 24L3 25L5 25L5 23L4 23L4 22L6 22L6 23L7 23L7 24L6 24L6 25L7 25L7 26L3 26L3 27L2 27L2 25L0 25L0 29L1 29L1 30L0 30L0 31L2 31L2 33L3 33L3 31L5 31L5 32L4 32L4 34L3 34L3 36L1 36L1 35L2 35L2 34L0 34L0 37L3 37L3 36L4 36L4 34L5 34L5 35L7 35L7 36L5 36L5 37L4 37L4 38L0 38L0 39L1 39L1 41L0 41L0 43L1 43L1 44L0 44L0 48L5 48L5 47L7 47L7 48L6 48L6 49L8 49L8 51L9 51L9 49L11 49L11 50L12 50L12 51L11 51L11 52L10 52L10 53L11 53L11 52L12 52L12 53L13 53L13 54L12 54L12 55L11 55L11 54L9 54L9 52L8 52L8 57L13 57L13 56L15 56L15 57L16 57L16 56L17 56L17 57L21 57L21 56L18 56L18 55L20 55L20 54L19 54L19 53L20 53L20 52L22 52L22 51L21 51L21 50L25 50L25 51L26 51L26 52L24 52L24 53L23 53L23 54L22 54L22 53L21 53L21 54L22 54L22 55L23 55L23 57L26 57L26 56L27 56L27 57L29 57L29 56L30 56L30 57L31 57L31 56L35 56L35 57L39 57L39 56L37 56L37 55L41 55L41 56L42 56L42 55L43 55L43 57L44 57L44 54L45 54L45 53L44 53L44 52L45 52L45 50L44 50L44 51L43 51L43 49L44 49L44 48L45 48L45 47L47 47L47 48L48 48L48 49L47 49L47 50L48 50L48 54L47 54L47 56L46 56L46 57L47 57L47 56L48 56L48 57L49 57L49 56L50 56L50 57L52 57L52 55L51 55L51 53L52 53L52 54L53 54L53 55L54 55L54 56L53 56L53 57L54 57L54 56L55 56L55 57L56 57L56 56L55 56L55 54L53 54L53 52L54 52L54 53L55 53L55 52L56 52L56 50L57 50L57 48L56 48L56 46L57 46L57 43L56 43L56 42L57 42L57 41L56 41L56 42L55 42L55 39L57 39L57 36L55 36L55 35L56 35L56 34L57 34L57 32L56 32L56 30L57 30L57 28L56 28L56 29L54 29L54 28L55 28L55 27L56 27L56 26L57 26L57 25L56 25L56 22L57 22L57 21L56 21L56 20L55 20L55 19L56 19L56 18L57 18L57 17L56 17L56 16L57 16L57 15L56 15L56 14L57 14L57 11L56 11L56 10L54 10L54 11L52 11L52 10L53 10L53 9L54 9L54 8L53 8L53 9L52 9L52 8L51 8L51 9L52 9L52 10L49 10L49 9L50 9L50 8L48 8L48 7L49 7L49 6L48 6L48 7L47 7L47 5L48 5L48 0L45 0L45 1L47 1L47 2L44 2L44 3L43 3L43 4L40 4L40 5L39 5L39 6L38 6L38 9L37 9L37 8L35 8L35 5L36 5L36 7L37 7L37 5L38 5L38 3L42 3L42 2L43 2L43 0L41 0L41 1L40 1L40 0L39 0L39 1L38 1L38 0L37 0L37 1L38 1L38 3L36 3L36 0L35 0L35 1L32 1L32 0L27 0L27 1L26 1L26 0L23 0L23 2L22 2L22 3L23 3L23 4L24 4L24 5L23 5L23 6L22 6L22 7L21 7L21 5L22 5L22 4L19 4L19 3L18 3L18 1L20 1L20 2L21 2L21 1L22 1L22 0L21 0L21 1L20 1L20 0ZM25 1L25 2L23 2L23 3L26 3L26 4L25 4L25 8L26 8L26 4L27 4L27 3L28 3L28 4L29 4L29 3L28 3L28 1L27 1L27 2L26 2L26 1ZM29 1L29 2L30 2L30 1ZM31 2L31 3L30 3L30 4L31 4L31 8L32 8L32 10L31 10L31 11L30 11L30 10L27 10L27 11L26 11L26 12L25 12L25 10L23 10L23 8L24 8L24 6L23 6L23 7L22 7L22 8L20 8L20 10L19 10L19 9L15 9L15 8L14 8L14 9L12 9L12 12L14 12L14 11L13 11L13 10L17 10L17 11L15 11L15 13L16 13L16 17L15 17L15 15L14 15L14 17L15 17L15 18L13 18L13 17L10 17L10 18L11 18L11 19L12 19L12 21L10 21L10 22L9 22L9 23L10 23L10 22L12 22L12 23L13 23L13 22L12 22L12 21L14 21L14 24L13 24L13 25L14 25L14 26L12 26L12 24L11 24L11 26L10 26L10 25L9 25L9 24L8 24L8 26L9 26L9 27L11 27L11 26L12 26L12 28L9 28L9 29L10 29L10 31L8 31L8 32L7 32L7 31L6 31L6 32L7 32L7 33L5 33L5 34L7 34L7 35L8 35L8 33L10 33L10 35L9 35L9 36L7 36L7 37L5 37L5 38L4 38L4 39L2 39L2 40L4 40L4 42L3 42L3 41L2 41L2 42L1 42L1 43L3 43L3 44L1 44L1 47L2 47L2 45L3 45L3 47L5 47L5 46L4 46L4 44L5 44L5 40L7 40L7 39L8 39L8 40L9 40L9 41L8 41L8 42L7 42L7 41L6 41L6 42L7 42L7 43L6 43L6 44L7 44L7 43L8 43L8 44L10 44L10 45L8 45L8 46L7 46L7 45L6 45L6 46L7 46L7 47L10 47L10 48L11 48L11 49L12 49L12 50L13 50L13 51L14 51L14 53L15 53L15 54L16 54L16 53L17 53L17 52L20 52L20 51L17 51L17 50L19 50L19 49L20 49L20 50L21 50L21 49L23 49L23 48L24 48L24 49L25 49L25 50L26 50L26 49L25 49L25 48L24 48L24 47L26 47L26 48L27 48L27 47L28 47L28 48L30 48L30 47L28 47L28 46L29 46L29 45L30 45L30 44L32 44L32 45L31 45L31 48L32 48L32 49L31 49L31 53L30 53L30 54L27 54L27 53L26 53L26 55L27 55L27 56L29 56L29 55L30 55L30 56L31 56L31 54L32 54L32 53L33 53L33 54L34 54L34 55L35 55L35 56L36 56L36 54L35 54L35 51L34 51L34 50L36 50L36 52L38 52L38 53L37 53L37 54L40 54L40 53L42 53L42 52L43 52L43 51L42 51L42 50L41 50L41 48L42 48L42 49L43 49L43 48L44 48L44 47L45 47L45 46L47 46L47 47L48 47L48 48L49 48L49 47L48 47L48 46L47 46L47 45L49 45L49 46L50 46L50 47L51 47L51 48L53 48L53 49L54 49L54 48L53 48L53 47L51 47L51 46L53 46L53 45L52 45L52 44L53 44L53 43L54 43L54 42L53 42L53 41L54 41L54 40L53 40L53 39L54 39L54 38L53 38L53 35L55 35L55 34L56 34L56 32L55 32L55 34L54 34L54 32L53 32L53 31L48 31L48 30L47 30L47 29L46 29L46 30L47 30L47 31L46 31L46 33L45 33L45 32L43 32L43 30L44 30L44 31L45 31L45 30L44 30L44 29L45 29L45 28L46 28L46 27L47 27L47 28L48 28L48 27L47 27L47 25L49 25L49 24L50 24L50 26L51 26L51 25L53 25L53 23L50 23L50 22L51 22L51 21L54 21L54 23L55 23L55 22L56 22L56 21L55 21L55 20L53 20L53 19L52 19L52 18L56 18L56 17L53 17L53 16L50 16L50 19L52 19L52 20L51 20L51 21L49 21L49 20L47 20L47 21L45 21L45 20L46 20L46 18L47 18L47 19L48 19L48 18L47 18L47 17L48 17L48 16L49 16L49 15L50 15L50 14L51 14L51 12L50 12L50 11L49 11L49 10L48 10L48 11L47 11L47 12L45 12L45 11L46 11L46 10L47 10L47 9L48 9L48 8L46 8L46 6L45 6L45 4L46 4L46 5L47 5L47 3L44 3L44 6L43 6L43 5L42 5L42 6L41 6L41 5L40 5L40 6L39 6L39 9L38 9L38 10L37 10L37 9L35 9L35 8L34 8L34 9L33 9L33 7L34 7L34 5L35 5L35 3L34 3L34 2L33 2L33 3L32 3L32 2ZM31 3L31 4L32 4L32 5L33 5L33 4L32 4L32 3ZM36 4L36 5L37 5L37 4ZM8 5L8 7L9 7L9 5ZM27 5L27 8L30 8L30 5ZM28 6L28 7L29 7L29 6ZM32 6L32 7L33 7L33 6ZM40 6L40 7L41 7L41 10L40 10L40 9L39 9L39 11L37 11L37 10L36 10L36 12L35 12L35 14L33 14L33 13L34 13L34 12L33 12L33 13L32 13L32 11L33 11L33 10L32 10L32 11L31 11L31 13L30 13L30 14L29 14L29 13L28 13L28 12L29 12L29 11L27 11L27 12L26 12L26 13L28 13L28 14L29 14L29 16L28 16L28 15L27 15L27 14L26 14L26 15L25 15L25 12L24 12L24 11L23 11L23 10L22 10L22 9L21 9L21 10L22 10L22 11L21 11L21 12L22 12L22 13L21 13L21 15L23 15L23 16L25 16L25 17L22 17L22 16L21 16L21 17L22 17L22 19L21 19L21 20L24 20L24 21L23 21L23 22L24 22L24 21L25 21L25 22L26 22L26 23L25 23L25 24L24 24L24 23L21 23L21 24L17 24L17 21L18 21L18 22L19 22L19 23L20 23L20 22L19 22L19 21L20 21L20 13L19 13L19 10L18 10L18 11L17 11L17 12L16 12L16 13L17 13L17 15L18 15L18 16L17 16L17 17L19 17L19 18L15 18L15 21L16 21L16 22L15 22L15 23L16 23L16 24L17 24L17 25L21 25L21 27L22 27L22 26L24 26L24 28L26 28L26 29L23 29L23 31L21 31L21 30L20 30L20 28L19 28L19 29L18 29L18 28L16 28L16 27L18 27L18 26L15 26L15 28L16 28L16 29L15 29L15 30L14 30L14 28L13 28L13 29L11 29L11 31L10 31L10 32L11 32L11 31L13 31L13 32L12 32L12 33L11 33L11 37L7 37L7 38L5 38L5 39L7 39L7 38L10 38L10 39L11 39L11 40L10 40L10 41L11 41L11 42L12 42L12 43L13 43L13 44L12 44L12 45L11 45L11 46L12 46L12 45L13 45L13 46L14 46L14 47L15 47L15 46L14 46L14 44L15 44L15 43L16 43L16 44L18 44L18 45L17 45L17 49L19 49L19 48L18 48L18 47L19 47L19 46L20 46L20 44L22 44L22 45L21 45L21 47L20 47L20 49L21 49L21 47L23 47L23 46L25 46L25 44L27 44L27 45L26 45L26 47L27 47L27 45L29 45L29 43L32 43L32 44L33 44L33 43L34 43L34 45L37 45L37 46L36 46L36 48L34 48L34 49L36 49L36 50L38 50L38 51L40 51L40 52L41 52L41 50L38 50L38 49L39 49L39 48L41 48L41 46L43 46L43 47L42 47L42 48L43 48L43 47L44 47L44 46L45 46L45 45L47 45L47 43L50 43L50 46L51 46L51 43L53 43L53 42L51 42L51 41L53 41L53 40L52 40L52 38L51 38L51 39L49 39L49 38L50 38L50 37L49 37L49 38L47 38L47 39L46 39L46 38L45 38L45 37L44 37L44 36L45 36L45 35L44 35L44 36L43 36L43 35L42 35L42 34L45 34L45 33L43 33L43 32L41 32L41 33L39 33L39 34L40 34L40 35L39 35L39 36L38 36L38 33L37 33L37 32L35 32L35 34L37 34L37 36L35 36L35 35L34 35L34 34L33 34L33 35L31 35L31 34L32 34L32 31L36 31L36 29L38 29L38 28L42 28L42 26L43 26L43 25L44 25L44 28L43 28L43 29L41 29L41 30L43 30L43 29L44 29L44 28L45 28L45 25L47 25L47 24L48 24L48 23L49 23L49 21L47 21L47 22L45 22L45 25L44 25L44 20L45 20L45 18L46 18L46 17L47 17L47 16L48 16L48 15L49 15L49 14L50 14L50 12L49 12L49 13L47 13L47 14L44 14L44 12L43 12L43 13L40 13L40 14L44 14L44 15L42 15L42 16L41 16L41 15L39 15L39 14L38 14L38 13L39 13L39 11L40 11L40 12L41 12L41 11L43 11L43 10L44 10L44 11L45 11L45 10L44 10L44 7L45 7L45 6L44 6L44 7L43 7L43 6L42 6L42 7L41 7L41 6ZM0 8L0 9L5 9L5 8ZM42 8L42 9L43 9L43 8ZM55 8L55 9L56 9L56 8ZM9 10L9 11L10 11L10 10ZM6 12L6 13L7 13L7 12ZM17 12L17 13L18 13L18 12ZM52 12L52 13L53 13L53 14L54 14L54 15L55 15L55 14L56 14L56 12L54 12L54 13L53 13L53 12ZM22 13L22 14L23 14L23 13ZM31 13L31 14L30 14L30 15L31 15L31 16L32 16L32 17L33 17L33 18L32 18L32 19L33 19L33 18L35 18L35 19L36 19L36 20L37 20L37 19L39 19L39 17L41 17L41 16L39 16L39 15L38 15L38 14L37 14L37 13L36 13L36 14L37 14L37 15L35 15L35 16L32 16L32 13ZM4 14L4 15L5 15L5 14ZM26 15L26 17L25 17L25 18L26 18L26 20L25 20L25 21L31 21L31 22L29 22L29 23L28 23L28 24L25 24L25 25L26 25L26 26L25 26L25 27L26 27L26 26L30 26L30 25L29 25L29 23L31 23L31 24L32 24L32 26L31 26L31 27L32 27L32 29L33 29L33 30L35 30L35 28L36 28L36 27L41 27L41 26L42 26L42 25L41 25L41 24L40 24L40 22L39 22L39 21L43 21L43 20L44 20L44 18L45 18L45 16L46 16L46 15L44 15L44 18L43 18L43 19L42 19L42 18L41 18L41 20L38 20L38 22L37 22L37 24L39 24L39 25L38 25L38 26L37 26L37 25L33 25L33 24L32 24L32 23L33 23L33 22L34 22L34 23L35 23L35 21L33 21L33 20L32 20L32 21L31 21L31 18L30 18L30 19L28 19L28 18L26 18L26 17L28 17L28 16L27 16L27 15ZM4 16L4 17L3 17L3 18L5 18L5 16ZM35 16L35 17L37 17L37 18L38 18L38 17L39 17L39 16L38 16L38 17L37 17L37 16ZM42 16L42 17L43 17L43 16ZM23 18L23 19L24 19L24 18ZM4 19L4 21L5 21L5 19ZM13 19L13 20L14 20L14 19ZM16 19L16 21L17 21L17 20L19 20L19 19ZM27 19L27 20L28 20L28 19ZM6 21L6 22L8 22L8 21ZM0 22L0 23L1 23L1 22ZM41 22L41 23L43 23L43 22ZM21 24L21 25L24 25L24 24ZM40 25L40 26L41 26L41 25ZM55 25L55 26L56 26L56 25ZM19 26L19 27L20 27L20 26ZM32 26L32 27L33 27L33 28L35 28L35 27L36 27L36 26L34 26L34 27L33 27L33 26ZM53 26L53 27L54 27L54 26ZM1 27L1 28L2 28L2 27ZM5 27L5 30L8 30L8 27ZM27 27L27 30L30 30L30 27ZM49 27L49 30L52 30L52 27ZM3 28L3 29L2 29L2 30L3 30L3 29L4 29L4 28ZM6 28L6 29L7 29L7 28ZM21 28L21 29L22 29L22 28ZM28 28L28 29L29 29L29 28ZM50 28L50 29L51 29L51 28ZM16 29L16 31L15 31L15 32L13 32L13 33L12 33L12 34L13 34L13 35L15 35L15 36L14 36L14 38L15 38L15 39L16 39L16 40L15 40L15 41L16 41L16 42L17 42L17 43L18 43L18 42L19 42L19 44L20 44L20 42L21 42L21 43L22 43L22 42L24 42L24 41L25 41L25 43L27 43L27 44L28 44L28 43L29 43L29 41L28 41L28 40L30 40L30 41L31 41L31 42L32 42L32 43L33 43L33 42L34 42L34 43L35 43L35 44L36 44L36 43L37 43L37 42L35 42L35 40L38 40L38 42L39 42L39 45L38 45L38 46L39 46L39 47L38 47L38 48L37 48L37 49L38 49L38 48L39 48L39 47L40 47L40 46L41 46L41 44L42 44L42 42L41 42L41 41L43 41L43 42L44 42L44 45L45 45L45 44L46 44L46 43L47 43L47 42L48 42L48 41L49 41L49 39L47 39L47 41L45 41L45 40L44 40L44 39L45 39L45 38L44 38L44 37L43 37L43 36L42 36L42 37L43 37L43 38L42 38L42 39L41 39L41 38L40 38L40 37L41 37L41 36L40 36L40 37L38 37L38 39L35 39L35 37L33 37L33 36L34 36L34 35L33 35L33 36L32 36L32 37L33 37L33 38L34 38L34 39L35 39L35 40L33 40L33 39L29 39L29 38L31 38L31 37L29 37L29 36L30 36L30 34L29 34L29 33L31 33L31 31L32 31L32 30L31 30L31 31L30 31L30 32L29 32L29 33L28 33L28 31L27 31L27 35L26 35L26 36L27 36L27 37L25 37L25 40L24 40L24 39L22 39L22 38L24 38L24 37L23 37L23 36L24 36L24 34L23 34L23 33L25 33L25 34L26 34L26 31L23 31L23 32L21 32L21 31L20 31L20 30L19 30L19 31L18 31L18 32L19 32L19 31L20 31L20 32L21 32L21 33L20 33L20 34L19 34L19 33L18 33L18 35L17 35L17 30L18 30L18 29ZM39 29L39 30L38 30L38 32L39 32L39 30L40 30L40 29ZM53 29L53 30L54 30L54 31L55 31L55 30L54 30L54 29ZM13 30L13 31L14 31L14 30ZM47 31L47 32L48 32L48 33L49 33L49 32L48 32L48 31ZM15 32L15 33L16 33L16 32ZM50 32L50 34L48 34L48 35L50 35L50 36L51 36L51 37L52 37L52 35L53 35L53 34L52 34L52 33L53 33L53 32L52 32L52 33L51 33L51 32ZM13 33L13 34L14 34L14 33ZM21 33L21 34L22 34L22 33ZM15 34L15 35L16 35L16 34ZM50 34L50 35L52 35L52 34ZM20 35L20 36L21 36L21 35ZM46 35L46 36L47 36L47 35ZM17 36L17 40L16 40L16 41L17 41L17 42L18 42L18 41L19 41L19 42L20 42L20 41L19 41L19 40L21 40L21 37L19 37L19 36ZM11 37L11 39L12 39L12 40L13 40L13 41L12 41L12 42L13 42L13 43L15 43L15 42L13 42L13 41L14 41L14 40L13 40L13 38L12 38L12 37ZM15 37L15 38L16 38L16 37ZM27 37L27 38L26 38L26 40L28 40L28 39L27 39L27 38L28 38L28 37ZM19 38L19 39L18 39L18 40L19 40L19 39L20 39L20 38ZM38 39L38 40L41 40L41 39ZM42 39L42 40L43 40L43 41L44 41L44 42L45 42L45 41L44 41L44 40L43 40L43 39ZM23 40L23 41L24 41L24 40ZM31 40L31 41L32 41L32 42L33 42L33 41L32 41L32 40ZM21 41L21 42L22 42L22 41ZM26 41L26 42L27 42L27 41ZM39 41L39 42L40 42L40 41ZM50 42L50 43L51 43L51 42ZM10 43L10 44L11 44L11 43ZM55 43L55 44L54 44L54 45L55 45L55 46L54 46L54 47L55 47L55 46L56 46L56 43ZM22 45L22 46L23 46L23 45ZM32 45L32 48L33 48L33 47L35 47L35 46L33 46L33 45ZM11 47L11 48L13 48L13 47ZM55 48L55 50L54 50L54 51L55 51L55 50L56 50L56 48ZM27 49L27 52L30 52L30 49ZM49 49L49 52L52 52L52 49ZM14 50L14 51L16 51L16 50ZM28 50L28 51L29 51L29 50ZM50 50L50 51L51 51L51 50ZM32 51L32 52L33 52L33 53L34 53L34 52L33 52L33 51ZM46 51L46 52L47 52L47 51ZM15 52L15 53L16 53L16 52ZM24 53L24 54L23 54L23 55L24 55L24 56L25 56L25 53ZM43 53L43 54L44 54L44 53ZM13 54L13 55L12 55L12 56L13 56L13 55L14 55L14 54ZM41 54L41 55L42 55L42 54ZM9 55L9 56L11 56L11 55ZM15 55L15 56L16 56L16 55ZM50 55L50 56L51 56L51 55ZM0 0L0 7L7 7L7 0ZM1 1L1 6L6 6L6 1ZM2 2L2 5L5 5L5 2ZM50 0L50 7L57 7L57 0ZM51 1L51 6L56 6L56 1ZM52 2L52 5L55 5L55 2ZM0 50L0 57L7 57L7 50ZM1 51L1 56L6 56L6 51ZM2 52L2 55L5 55L5 52Z" fill="#000000"/></g></g></svg>
