<?xml version="1.0" encoding="UTF-8"?>
<svg xmlns="http://www.w3.org/2000/svg" version="1.1" width="300" height="300" viewBox="0 0 300 300"><rect x="0" y="0" width="300" height="300" fill="#fefefe"/><g transform="scale(4.615)"><g transform="translate(4,4)"><path fill-rule="evenodd" d="M9 0L9 1L8 1L8 2L9 2L9 1L10 1L10 4L9 4L9 3L8 3L8 4L9 4L9 5L8 5L8 7L9 7L9 8L6 8L6 9L7 9L7 10L6 10L6 11L5 11L5 10L3 10L3 9L5 9L5 8L0 8L0 11L1 11L1 9L2 9L2 11L3 11L3 12L2 12L2 13L1 13L1 12L0 12L0 13L1 13L1 14L0 14L0 15L1 15L1 14L2 14L2 15L3 15L3 17L2 17L2 16L1 16L1 17L0 17L0 19L4 19L4 20L0 20L0 21L1 21L1 22L0 22L0 26L1 26L1 27L0 27L0 29L1 29L1 30L2 30L2 29L3 29L3 31L1 31L1 32L0 32L0 37L1 37L1 36L2 36L2 37L4 37L4 38L3 38L3 40L2 40L2 39L1 39L1 41L3 41L3 43L2 43L2 45L1 45L1 42L0 42L0 45L1 45L1 46L0 46L0 48L5 48L5 47L7 47L7 48L6 48L6 49L7 49L7 48L8 48L8 51L10 51L10 52L8 52L8 57L11 57L11 56L12 56L12 55L13 55L13 56L14 56L14 57L16 57L16 56L17 56L17 57L20 57L20 56L19 56L19 55L20 55L20 54L19 54L19 53L20 53L20 52L21 52L21 53L22 53L22 56L24 56L24 57L26 57L26 56L27 56L27 57L29 57L29 56L30 56L30 57L31 57L31 56L35 56L35 57L39 57L39 56L37 56L37 55L41 55L41 57L42 57L42 55L44 55L44 54L45 54L45 53L47 53L47 56L46 56L46 57L48 57L48 56L50 56L50 57L52 57L52 55L51 55L51 53L52 53L52 54L53 54L53 57L54 57L54 56L55 56L55 57L56 57L56 56L55 56L55 54L54 54L54 53L55 53L55 52L56 52L56 50L55 50L55 48L56 48L56 49L57 49L57 48L56 48L56 46L57 46L57 45L56 45L56 44L55 44L55 43L56 43L56 41L55 41L55 39L57 39L57 37L56 37L56 36L57 36L57 35L56 35L56 34L57 34L57 32L56 32L56 30L57 30L57 29L54 29L54 28L56 28L56 26L57 26L57 25L56 25L56 22L57 22L57 20L56 20L56 22L55 22L55 23L53 23L53 22L54 22L54 21L51 21L51 20L52 20L52 19L53 19L53 20L55 20L55 19L56 19L56 18L53 18L53 17L56 17L56 16L57 16L57 15L56 15L56 14L57 14L57 12L56 12L56 10L54 10L54 11L53 11L53 10L49 10L49 9L50 9L50 8L49 8L49 6L48 6L48 7L47 7L47 5L48 5L48 0L45 0L45 2L44 2L44 3L43 3L43 4L40 4L40 5L39 5L39 6L38 6L38 7L37 7L37 5L38 5L38 4L37 4L37 3L36 3L36 0L35 0L35 1L33 1L33 0L32 0L32 1L33 1L33 2L32 2L32 3L31 3L31 4L26 4L26 3L23 3L23 2L27 2L27 1L25 1L25 0L23 0L23 2L21 2L21 3L23 3L23 4L22 4L22 5L21 5L21 4L19 4L19 2L20 2L20 0L18 0L18 1L19 1L19 2L17 2L17 1L15 1L15 0L14 0L14 2L13 2L13 3L11 3L11 1L12 1L12 0L11 0L11 1L10 1L10 0ZM21 0L21 1L22 1L22 0ZM29 0L29 1L30 1L30 2L31 2L31 0ZM37 0L37 1L38 1L38 2L39 2L39 3L42 3L42 2L43 2L43 0L41 0L41 1L40 1L40 0L39 0L39 1L38 1L38 0ZM46 1L46 2L47 2L47 1ZM14 2L14 4L13 4L13 5L12 5L12 6L11 6L11 7L12 7L12 6L13 6L13 7L14 7L14 9L13 9L13 8L11 8L11 10L10 10L10 8L9 8L9 9L8 9L8 10L9 10L9 12L7 12L7 11L6 11L6 12L5 12L5 11L4 11L4 12L5 12L5 15L6 15L6 16L8 16L8 15L9 15L9 16L11 16L11 13L13 13L13 14L15 14L15 13L16 13L16 16L15 16L15 15L14 15L14 17L13 17L13 18L10 18L10 17L9 17L9 18L10 18L10 20L9 20L9 21L8 21L8 17L6 17L6 18L5 18L5 17L4 17L4 19L6 19L6 20L5 20L5 23L6 23L6 24L7 24L7 25L5 25L5 26L7 26L7 25L8 25L8 26L10 26L10 27L11 27L11 26L13 26L13 25L15 25L15 29L16 29L16 31L15 31L15 32L16 32L16 33L15 33L15 34L16 34L16 35L17 35L17 36L15 36L15 35L14 35L14 34L13 34L13 33L12 33L12 31L11 31L11 34L12 34L12 35L10 35L10 34L9 34L9 33L10 33L10 32L9 32L9 31L5 31L5 32L4 32L4 31L3 31L3 33L4 33L4 34L1 34L1 35L5 35L5 33L6 33L6 34L7 34L7 33L8 33L8 35L6 35L6 36L5 36L5 37L6 37L6 38L7 38L7 39L5 39L5 38L4 38L4 39L5 39L5 41L4 41L4 42L5 42L5 41L6 41L6 42L7 42L7 43L6 43L6 44L7 44L7 45L5 45L5 43L3 43L3 47L5 47L5 46L7 46L7 45L8 45L8 46L9 46L9 48L12 48L12 46L11 46L11 45L13 45L13 46L15 46L15 47L13 47L13 48L14 48L14 49L13 49L13 50L14 50L14 51L15 51L15 50L17 50L17 47L18 47L18 46L17 46L17 45L18 45L18 44L16 44L16 43L18 43L18 42L19 42L19 41L20 41L20 42L21 42L21 43L20 43L20 44L19 44L19 45L20 45L20 46L21 46L21 45L22 45L22 46L24 46L24 45L25 45L25 48L24 48L24 47L19 47L19 48L21 48L21 49L20 49L20 50L21 50L21 49L23 49L23 48L24 48L24 49L25 49L25 50L22 50L22 51L21 51L21 52L22 52L22 53L24 53L24 54L23 54L23 55L24 55L24 56L26 56L26 54L27 54L27 56L29 56L29 55L30 55L30 56L31 56L31 54L32 54L32 53L33 53L33 55L35 55L35 56L36 56L36 54L35 54L35 53L33 53L33 52L32 52L32 50L33 50L33 51L34 51L34 52L35 52L35 51L34 51L34 50L36 50L36 52L37 52L37 51L38 51L38 54L40 54L40 53L43 53L43 54L44 54L44 53L45 53L45 52L46 52L46 51L47 51L47 53L48 53L48 50L47 50L47 49L48 49L48 48L53 48L53 47L54 47L54 46L53 46L53 45L51 45L51 44L53 44L53 43L54 43L54 42L53 42L53 41L54 41L54 40L53 40L53 41L51 41L51 42L50 42L50 43L47 43L47 42L48 42L48 41L49 41L49 40L50 40L50 39L51 39L51 38L52 38L52 39L53 39L53 35L55 35L55 36L56 36L56 35L55 35L55 34L56 34L56 32L55 32L55 34L54 34L54 33L52 33L52 32L51 32L51 31L48 31L48 30L47 30L47 29L46 29L46 30L47 30L47 31L48 31L48 32L43 32L43 31L44 31L44 29L45 29L45 28L46 28L46 27L48 27L48 26L47 26L47 24L45 24L45 23L46 23L46 22L47 22L47 21L46 21L46 20L47 20L47 19L48 19L48 18L47 18L47 16L46 16L46 15L44 15L44 14L40 14L40 13L43 13L43 12L44 12L44 13L45 13L45 14L47 14L47 13L49 13L49 12L50 12L50 14L49 14L49 15L48 15L48 16L49 16L49 17L50 17L50 19L51 19L51 17L53 17L53 15L52 15L52 16L51 16L51 15L50 15L50 14L51 14L51 12L50 12L50 11L49 11L49 10L47 10L47 9L49 9L49 8L47 8L47 7L46 7L46 6L45 6L45 5L47 5L47 3L44 3L44 6L43 6L43 8L44 8L44 10L47 10L47 11L49 11L49 12L45 12L45 11L41 11L41 12L40 12L40 10L41 10L41 9L42 9L42 8L41 8L41 7L42 7L42 5L40 5L40 6L39 6L39 7L40 7L40 8L39 8L39 9L38 9L38 8L37 8L37 7L36 7L36 5L37 5L37 4L36 4L36 5L35 5L35 4L34 4L34 3L35 3L35 2L33 2L33 3L32 3L32 4L31 4L31 8L32 8L32 10L29 10L29 9L27 9L27 10L29 10L29 12L28 12L28 13L27 13L27 14L26 14L26 12L27 12L27 11L26 11L26 12L25 12L25 10L23 10L23 8L24 8L24 9L25 9L25 8L26 8L26 4L25 4L25 8L24 8L24 6L23 6L23 8L19 8L19 7L20 7L20 5L19 5L19 4L18 4L18 3L15 3L15 2ZM28 2L28 3L29 3L29 2ZM15 4L15 5L16 5L16 4ZM17 4L17 6L16 6L16 7L15 7L15 6L14 6L14 5L13 5L13 6L14 6L14 7L15 7L15 8L16 8L16 9L15 9L15 10L13 10L13 9L12 9L12 10L11 10L11 11L10 11L10 12L13 12L13 13L15 13L15 12L16 12L16 13L17 13L17 16L16 16L16 17L18 17L18 19L20 19L20 17L22 17L22 18L21 18L21 20L22 20L22 18L24 18L24 19L23 19L23 20L24 20L24 21L22 21L22 22L21 22L21 23L23 23L23 24L24 24L24 25L22 25L22 24L17 24L17 22L18 22L18 21L20 21L20 20L18 20L18 21L16 21L16 20L17 20L17 19L16 19L16 20L15 20L15 21L16 21L16 22L14 22L14 21L13 21L13 23L12 23L12 19L11 19L11 21L9 21L9 23L8 23L8 22L6 22L6 23L8 23L8 24L9 24L9 25L13 25L13 23L14 23L14 24L15 24L15 23L16 23L16 24L17 24L17 27L16 27L16 29L18 29L18 30L17 30L17 31L18 31L18 30L20 30L20 32L17 32L17 34L20 34L20 33L21 33L21 35L20 35L20 36L21 36L21 35L23 35L23 34L24 34L24 36L23 36L23 37L24 37L24 38L23 38L23 39L24 39L24 40L25 40L25 39L27 39L27 41L26 41L26 42L27 42L27 41L29 41L29 43L25 43L25 44L27 44L27 45L26 45L26 47L27 47L27 45L29 45L29 46L28 46L28 47L29 47L29 48L25 48L25 49L26 49L26 52L24 52L24 53L27 53L27 54L30 54L30 53L31 53L31 49L32 49L32 48L33 48L33 47L35 47L35 46L33 46L33 45L32 45L32 44L33 44L33 43L34 43L34 45L36 45L36 46L37 46L37 47L36 47L36 48L34 48L34 49L33 49L33 50L34 50L34 49L36 49L36 50L38 50L38 51L40 51L40 52L41 52L41 50L42 50L42 52L43 52L43 53L44 53L44 52L45 52L45 50L44 50L44 51L43 51L43 49L44 49L44 48L45 48L45 47L47 47L47 48L48 48L48 47L50 47L50 46L51 46L51 47L53 47L53 46L51 46L51 45L50 45L50 44L51 44L51 43L53 43L53 42L51 42L51 43L50 43L50 44L48 44L48 45L47 45L47 43L46 43L46 42L45 42L45 41L47 41L47 39L50 39L50 38L51 38L51 36L52 36L52 35L53 35L53 34L52 34L52 33L51 33L51 32L50 32L50 34L48 34L48 35L50 35L50 38L49 38L49 36L48 36L48 37L47 37L47 39L46 39L46 38L45 38L45 37L46 37L46 36L47 36L47 34L45 34L45 33L43 33L43 32L41 32L41 33L39 33L39 34L40 34L40 35L39 35L39 36L38 36L38 33L37 33L37 32L33 32L33 33L32 33L32 31L35 31L35 30L37 30L37 29L38 29L38 28L42 28L42 26L44 26L44 28L43 28L43 29L41 29L41 30L43 30L43 29L44 29L44 28L45 28L45 27L46 27L46 26L44 26L44 24L43 24L43 23L44 23L44 20L46 20L46 19L45 19L45 18L44 18L44 15L42 15L42 16L41 16L41 15L39 15L39 14L38 14L38 13L40 13L40 12L39 12L39 11L38 11L38 9L37 9L37 8L35 8L35 5L34 5L34 4L32 4L32 5L34 5L34 7L33 7L33 6L32 6L32 7L33 7L33 9L34 9L34 8L35 8L35 9L37 9L37 10L36 10L36 11L37 11L37 12L35 12L35 13L37 13L37 14L38 14L38 15L39 15L39 16L38 16L38 17L37 17L37 16L35 16L35 14L33 14L33 13L34 13L34 12L33 12L33 10L32 10L32 11L31 11L31 13L30 13L30 14L29 14L29 13L28 13L28 14L29 14L29 16L28 16L28 15L27 15L27 16L28 16L28 17L27 17L27 18L25 18L25 17L22 17L22 16L20 16L20 17L19 17L19 14L20 14L20 15L23 15L23 14L25 14L25 15L24 15L24 16L26 16L26 14L25 14L25 12L24 12L24 11L23 11L23 10L22 10L22 9L21 9L21 10L22 10L22 11L20 11L20 9L19 9L19 8L16 8L16 7L17 7L17 6L18 6L18 7L19 7L19 6L18 6L18 4ZM23 4L23 5L24 5L24 4ZM27 5L27 8L30 8L30 5ZM9 6L9 7L10 7L10 6ZM21 6L21 7L22 7L22 6ZM28 6L28 7L29 7L29 6ZM40 6L40 7L41 7L41 6ZM44 6L44 7L45 7L45 6ZM45 8L45 9L47 9L47 8ZM51 8L51 9L52 9L52 8ZM53 8L53 9L54 9L54 8ZM55 8L55 9L56 9L56 8ZM16 9L16 10L15 10L15 11L16 11L16 12L17 12L17 13L18 13L18 12L17 12L17 11L18 11L18 10L19 10L19 9ZM13 11L13 12L14 12L14 11ZM19 11L19 12L20 12L20 14L21 14L21 13L22 13L22 14L23 14L23 13L22 13L22 12L20 12L20 11ZM6 12L6 13L7 13L7 12ZM32 12L32 13L31 13L31 14L30 14L30 15L31 15L31 14L32 14L32 13L33 13L33 12ZM52 12L52 13L53 13L53 14L56 14L56 12L54 12L54 13L53 13L53 12ZM8 13L8 14L6 14L6 15L8 15L8 14L9 14L9 13ZM49 15L49 16L50 16L50 15ZM31 16L31 17L32 17L32 19L34 19L34 20L35 20L35 19L36 19L36 20L37 20L37 19L39 19L39 17L41 17L41 16L39 16L39 17L38 17L38 18L37 18L37 17L35 17L35 16ZM42 16L42 17L43 17L43 16ZM45 16L45 17L46 17L46 16ZM6 18L6 19L7 19L7 18ZM27 18L27 19L26 19L26 21L27 21L27 24L25 24L25 23L26 23L26 22L25 22L25 21L24 21L24 22L23 22L23 23L24 23L24 24L25 24L25 25L26 25L26 26L22 26L22 25L20 25L20 27L21 27L21 28L22 28L22 29L20 29L20 30L21 30L21 31L23 31L23 32L21 32L21 33L22 33L22 34L23 34L23 33L25 33L25 35L26 35L26 36L25 36L25 38L26 38L26 37L28 37L28 38L27 38L27 39L28 39L28 40L29 40L29 41L30 41L30 42L32 42L32 43L31 43L31 44L32 44L32 43L33 43L33 42L34 42L34 43L37 43L37 42L35 42L35 40L38 40L38 42L39 42L39 43L40 43L40 44L39 44L39 45L38 45L38 46L39 46L39 47L38 47L38 48L37 48L37 49L38 49L38 50L41 50L41 48L42 48L42 49L43 49L43 48L44 48L44 47L45 47L45 46L47 46L47 47L48 47L48 46L47 46L47 45L45 45L45 44L46 44L46 43L44 43L44 41L45 41L45 40L46 40L46 39L45 39L45 38L44 38L44 37L45 37L45 36L44 36L44 35L45 35L45 34L42 34L42 35L43 35L43 36L44 36L44 37L43 37L43 38L42 38L42 37L41 37L41 36L40 36L40 37L38 37L38 39L35 39L35 40L33 40L33 39L34 39L34 38L35 38L35 36L37 36L37 34L35 34L35 33L33 33L33 34L32 34L32 33L31 33L31 31L30 31L30 32L29 32L29 33L28 33L28 31L27 31L27 35L26 35L26 33L25 33L25 32L24 32L24 30L23 30L23 29L26 29L26 28L25 28L25 27L26 27L26 26L30 26L30 25L31 25L31 24L32 24L32 26L31 26L31 28L32 28L32 30L35 30L35 28L37 28L37 27L39 27L39 25L41 25L41 24L42 24L42 22L41 22L41 24L39 24L39 23L40 23L40 22L39 22L39 21L41 21L41 20L39 20L39 21L38 21L38 23L37 23L37 24L39 24L39 25L38 25L38 26L37 26L37 25L33 25L33 24L32 24L32 23L33 23L33 22L34 22L34 23L35 23L35 21L33 21L33 20L32 20L32 21L31 21L31 18L30 18L30 19L28 19L28 18ZM41 18L41 19L42 19L42 18ZM43 18L43 20L42 20L42 21L43 21L43 20L44 20L44 18ZM13 19L13 20L14 20L14 19ZM6 20L6 21L7 21L7 20ZM2 21L2 22L1 22L1 25L4 25L4 23L2 23L2 22L3 22L3 21ZM29 21L29 22L28 22L28 24L27 24L27 25L28 25L28 24L29 24L29 25L30 25L30 24L31 24L31 21ZM49 21L49 22L48 22L48 24L49 24L49 25L50 25L50 26L52 26L52 25L55 25L55 24L53 24L53 23L50 23L50 22L51 22L51 21ZM10 22L10 24L12 24L12 23L11 23L11 22ZM19 22L19 23L20 23L20 22ZM29 23L29 24L30 24L30 23ZM50 24L50 25L51 25L51 24ZM2 26L2 27L4 27L4 26ZM18 26L18 27L17 27L17 28L18 28L18 29L19 29L19 26ZM21 26L21 27L22 27L22 26ZM32 26L32 27L33 27L33 28L35 28L35 27L36 27L36 26L34 26L34 27L33 27L33 26ZM53 26L53 27L54 27L54 26ZM5 27L5 30L8 30L8 27ZM27 27L27 30L30 30L30 27ZM49 27L49 30L52 30L52 27ZM6 28L6 29L7 29L7 28ZM10 28L10 29L11 29L11 28ZM13 28L13 29L14 29L14 28ZM28 28L28 29L29 29L29 28ZM50 28L50 29L51 29L51 28ZM39 29L39 30L38 30L38 32L39 32L39 30L40 30L40 29ZM53 29L53 31L55 31L55 30L54 30L54 29ZM6 32L6 33L7 33L7 32ZM8 32L8 33L9 33L9 32ZM48 32L48 33L49 33L49 32ZM29 33L29 34L30 34L30 36L29 36L29 37L31 37L31 38L29 38L29 39L33 39L33 38L34 38L34 37L32 37L32 36L33 36L33 35L34 35L34 36L35 36L35 35L34 35L34 34L33 34L33 35L31 35L31 33ZM50 34L50 35L52 35L52 34ZM8 35L8 37L7 37L7 36L6 36L6 37L7 37L7 38L9 38L9 39L8 39L8 40L6 40L6 41L8 41L8 40L9 40L9 39L10 39L10 37L11 37L11 36L10 36L10 35ZM12 35L12 38L11 38L11 39L12 39L12 40L10 40L10 41L11 41L11 42L10 42L10 43L9 43L9 42L8 42L8 43L7 43L7 44L8 44L8 45L9 45L9 46L10 46L10 45L11 45L11 43L12 43L12 44L13 44L13 45L14 45L14 44L15 44L15 43L14 43L14 42L13 42L13 43L12 43L12 40L13 40L13 41L17 41L17 42L18 42L18 41L19 41L19 40L22 40L22 38L21 38L21 37L19 37L19 35L18 35L18 37L17 37L17 38L18 38L18 39L17 39L17 40L16 40L16 39L14 39L14 40L13 40L13 39L12 39L12 38L16 38L16 37L15 37L15 36L14 36L14 37L13 37L13 35ZM9 36L9 37L10 37L10 36ZM18 37L18 38L19 38L19 39L20 39L20 38L19 38L19 37ZM40 37L40 38L41 38L41 39L42 39L42 38L41 38L41 37ZM54 37L54 38L55 38L55 37ZM38 39L38 40L39 40L39 39ZM44 39L44 40L41 40L41 42L42 42L42 44L41 44L41 46L40 46L40 47L39 47L39 48L38 48L38 49L39 49L39 48L41 48L41 46L43 46L43 47L42 47L42 48L43 48L43 47L44 47L44 46L45 46L45 45L44 45L44 44L43 44L43 41L44 41L44 40L45 40L45 39ZM17 40L17 41L18 41L18 40ZM30 40L30 41L32 41L32 42L33 42L33 41L32 41L32 40ZM21 41L21 42L22 42L22 43L21 43L21 44L22 44L22 45L24 45L24 43L23 43L23 42L25 42L25 41L23 41L23 42L22 42L22 41ZM39 41L39 42L40 42L40 41ZM8 43L8 44L9 44L9 45L10 45L10 44L9 44L9 43ZM13 43L13 44L14 44L14 43ZM54 44L54 45L55 45L55 46L56 46L56 45L55 45L55 44ZM31 45L31 47L32 47L32 45ZM49 45L49 46L50 46L50 45ZM1 46L1 47L2 47L2 46ZM15 47L15 48L16 48L16 47ZM9 49L9 50L11 50L11 49ZM14 49L14 50L15 50L15 49ZM27 49L27 52L30 52L30 49ZM49 49L49 52L52 52L52 49ZM28 50L28 51L29 51L29 50ZM50 50L50 51L51 51L51 50ZM54 50L54 51L55 51L55 50ZM11 51L11 52L12 52L12 54L13 54L13 52L12 52L12 51ZM16 51L16 53L15 53L15 54L16 54L16 53L17 53L17 52L18 52L18 51ZM19 51L19 52L20 52L20 51ZM22 51L22 52L23 52L23 51ZM53 52L53 53L54 53L54 52ZM10 53L10 54L9 54L9 56L11 56L11 53ZM17 54L17 55L18 55L18 54ZM41 54L41 55L42 55L42 54ZM14 55L14 56L16 56L16 55ZM50 55L50 56L51 56L51 55ZM43 56L43 57L44 57L44 56ZM0 0L0 7L7 7L7 0ZM1 1L1 6L6 6L6 1ZM2 2L2 5L5 5L5 2ZM50 0L50 7L57 7L57 0ZM51 1L51 6L56 6L56 1ZM52 2L52 5L55 5L55 2ZM0 50L0 57L7 57L7 50ZM1 51L1 56L6 56L6 51ZM2 52L2 55L5 55L5 52Z" fill="#000000"/></g></g></svg>
