<?xml version="1.0" encoding="UTF-8"?>
<svg xmlns="http://www.w3.org/2000/svg" version="1.1" width="300" height="300" viewBox="0 0 300 300"><rect x="0" y="0" width="300" height="300" fill="#fefefe"/><g transform="scale(4.615)"><g transform="translate(4,4)"><path fill-rule="evenodd" d="M8 0L8 2L9 2L9 3L10 3L10 4L8 4L8 9L9 9L9 11L8 11L8 10L6 10L6 11L8 11L8 12L9 12L9 15L8 15L8 16L11 16L11 19L9 19L9 18L10 18L10 17L7 17L7 16L5 16L5 17L4 17L4 15L5 15L5 14L6 14L6 15L7 15L7 14L8 14L8 13L7 13L7 12L6 12L6 13L5 13L5 12L4 12L4 11L3 11L3 12L2 12L2 11L1 11L1 12L2 12L2 14L1 14L1 15L2 15L2 16L1 16L1 17L2 17L2 16L3 16L3 18L5 18L5 19L4 19L4 22L3 22L3 19L1 19L1 18L0 18L0 19L1 19L1 20L0 20L0 22L1 22L1 21L2 21L2 22L3 22L3 23L0 23L0 25L1 25L1 26L0 26L0 27L1 27L1 28L0 28L0 29L1 29L1 31L3 31L3 33L4 33L4 32L6 32L6 33L8 33L8 36L9 36L9 33L11 33L11 32L9 32L9 30L11 30L11 31L12 31L12 32L13 32L13 33L15 33L15 34L16 34L16 35L14 35L14 34L13 34L13 35L12 35L12 36L11 36L11 35L10 35L10 36L11 36L11 37L14 37L14 38L15 38L15 37L14 37L14 36L16 36L16 37L17 37L17 38L16 38L16 39L17 39L17 42L16 42L16 40L15 40L15 39L14 39L14 40L13 40L13 38L10 38L10 37L9 37L9 38L8 38L8 37L7 37L7 36L6 36L6 35L7 35L7 34L6 34L6 35L5 35L5 34L4 34L4 35L5 35L5 38L3 38L3 41L2 41L2 38L1 38L1 37L0 37L0 38L1 38L1 39L0 39L0 40L1 40L1 41L2 41L2 43L1 43L1 42L0 42L0 44L2 44L2 47L1 47L1 45L0 45L0 48L5 48L5 47L7 47L7 46L8 46L8 48L9 48L9 47L11 47L11 46L12 46L12 48L13 48L13 49L11 49L11 48L10 48L10 49L8 49L8 50L10 50L10 51L8 51L8 52L10 52L10 51L14 51L14 54L12 54L12 55L11 55L11 53L13 53L13 52L11 52L11 53L9 53L9 54L8 54L8 57L10 57L10 56L14 56L14 57L15 57L15 56L16 56L16 57L17 57L17 55L19 55L19 54L18 54L18 53L19 53L19 51L20 51L20 53L21 53L21 52L22 52L22 54L20 54L20 55L22 55L22 57L23 57L23 56L24 56L24 57L25 57L25 55L24 55L24 54L26 54L26 55L27 55L27 56L26 56L26 57L28 57L28 55L29 55L29 57L33 57L33 55L34 55L34 57L35 57L35 55L38 55L38 52L40 52L40 53L39 53L39 56L40 56L40 57L41 57L41 56L42 56L42 57L43 57L43 54L42 54L42 53L43 53L43 52L44 52L44 57L46 57L46 56L47 56L47 57L50 57L50 55L49 55L49 54L52 54L52 55L53 55L53 53L54 53L54 55L57 55L57 54L55 54L55 52L54 52L54 51L53 51L53 50L54 50L54 49L55 49L55 51L57 51L57 49L56 49L56 47L57 47L57 45L56 45L56 44L57 44L57 42L56 42L56 44L55 44L55 45L56 45L56 47L55 47L55 46L54 46L54 45L53 45L53 44L54 44L54 43L55 43L55 42L54 42L54 41L57 41L57 40L54 40L54 38L52 38L52 37L53 37L53 36L54 36L54 37L55 37L55 38L57 38L57 36L56 36L56 35L57 35L57 34L56 34L56 31L57 31L57 29L55 29L55 30L54 30L54 29L53 29L53 28L54 28L54 27L55 27L55 28L56 28L56 27L57 27L57 24L56 24L56 23L57 23L57 10L56 10L56 11L55 11L55 9L57 9L57 8L55 8L55 9L54 9L54 10L53 10L53 8L49 8L49 6L48 6L48 9L47 9L47 5L48 5L48 0L46 0L46 1L47 1L47 2L45 2L45 4L44 4L44 2L43 2L43 4L42 4L42 1L45 1L45 0L42 0L42 1L41 1L41 0L38 0L38 3L37 3L37 4L38 4L38 5L39 5L39 4L40 4L40 2L41 2L41 4L42 4L42 5L41 5L41 6L40 6L40 7L39 7L39 6L38 6L38 9L37 9L37 6L36 6L36 10L34 10L34 9L35 9L35 4L36 4L36 3L35 3L35 2L37 2L37 1L35 1L35 0L34 0L34 2L33 2L33 6L32 6L32 7L33 7L33 6L34 6L34 8L32 8L32 9L31 9L31 5L32 5L32 1L31 1L31 0L30 0L30 1L28 1L28 0L26 0L26 2L25 2L25 4L24 4L24 1L25 1L25 0L24 0L24 1L23 1L23 0L20 0L20 1L19 1L19 0L18 0L18 1L17 1L17 0L16 0L16 1L15 1L15 0L11 0L11 1L12 1L12 2L11 2L11 3L10 3L10 2L9 2L9 0ZM13 1L13 3L14 3L14 4L15 4L15 3L16 3L16 4L17 4L17 5L16 5L16 6L15 6L15 7L14 7L14 5L13 5L13 7L12 7L12 6L11 6L11 7L10 7L10 6L9 6L9 7L10 7L10 9L11 9L11 7L12 7L12 10L11 10L11 11L10 11L10 15L11 15L11 16L13 16L13 18L12 18L12 19L11 19L11 20L10 20L10 22L9 22L9 21L6 21L6 20L8 20L8 18L7 18L7 17L5 17L5 18L7 18L7 19L6 19L6 20L5 20L5 22L4 22L4 23L3 23L3 24L4 24L4 25L6 25L6 26L8 26L8 25L10 25L10 24L8 24L8 23L6 23L6 22L9 22L9 23L10 23L10 22L11 22L11 25L12 25L12 26L11 26L11 27L13 27L13 26L15 26L15 25L14 25L14 23L13 23L13 18L14 18L14 16L17 16L17 15L18 15L18 14L19 14L19 13L20 13L20 15L19 15L19 16L21 16L21 14L22 14L22 16L24 16L24 18L25 18L25 19L24 19L24 20L25 20L25 19L26 19L26 20L27 20L27 21L28 21L28 20L30 20L30 22L29 22L29 23L28 23L28 22L26 22L26 23L28 23L28 24L27 24L27 25L26 25L26 26L27 26L27 25L28 25L28 26L29 26L29 25L28 25L28 24L29 24L29 23L30 23L30 26L31 26L31 25L32 25L32 28L31 28L31 29L32 29L32 31L31 31L31 32L30 32L30 31L29 31L29 32L27 32L27 33L28 33L28 34L27 34L27 35L28 35L28 36L26 36L26 37L24 37L24 36L25 36L25 35L26 35L26 33L25 33L25 32L26 32L26 30L25 30L25 29L24 29L24 26L25 26L25 25L24 25L24 26L23 26L23 27L22 27L22 28L23 28L23 29L22 29L22 30L21 30L21 28L20 28L20 27L21 27L21 26L22 26L22 23L23 23L23 22L21 22L21 21L22 21L22 20L23 20L23 19L22 19L22 18L21 18L21 17L20 17L20 18L21 18L21 19L20 19L20 20L19 20L19 21L18 21L18 20L17 20L17 21L18 21L18 22L16 22L16 23L18 23L18 22L19 22L19 24L20 24L20 27L19 27L19 25L18 25L18 24L17 24L17 25L16 25L16 27L14 27L14 28L15 28L15 29L14 29L14 30L13 30L13 32L16 32L16 34L18 34L18 35L16 35L16 36L17 36L17 37L18 37L18 35L20 35L20 36L21 36L21 38L20 38L20 39L21 39L21 41L20 41L20 40L19 40L19 38L17 38L17 39L18 39L18 40L19 40L19 41L20 41L20 43L18 43L18 44L20 44L20 46L19 46L19 45L18 45L18 48L17 48L17 49L16 49L16 50L14 50L14 51L16 51L16 52L17 52L17 53L18 53L18 52L17 52L17 51L16 51L16 50L17 50L17 49L18 49L18 50L19 50L19 49L20 49L20 51L21 51L21 50L22 50L22 48L23 48L23 49L24 49L24 51L22 51L22 52L24 52L24 51L25 51L25 53L26 53L26 54L27 54L27 55L28 55L28 53L26 53L26 51L25 51L25 50L26 50L26 49L25 49L25 48L27 48L27 47L28 47L28 46L29 46L29 47L30 47L30 48L31 48L31 50L33 50L33 52L34 52L34 55L35 55L35 53L36 53L36 54L37 54L37 53L36 53L36 52L34 52L34 51L37 51L37 52L38 52L38 51L39 51L39 49L40 49L40 51L41 51L41 53L42 53L42 51L41 51L41 49L42 49L42 50L43 50L43 51L45 51L45 53L46 53L46 54L45 54L45 56L46 56L46 55L48 55L48 56L49 56L49 55L48 55L48 54L49 54L49 53L48 53L48 54L47 54L47 53L46 53L46 51L47 51L47 52L48 52L48 51L47 51L47 44L46 44L46 47L45 47L45 46L44 46L44 44L45 44L45 42L44 42L44 44L43 44L43 43L41 43L41 42L40 42L40 38L39 38L39 36L40 36L40 35L42 35L42 36L41 36L41 37L42 37L42 38L41 38L41 40L42 40L42 39L43 39L43 38L44 38L44 34L45 34L45 33L46 33L46 35L45 35L45 36L47 36L47 34L48 34L48 33L47 33L47 30L48 30L48 27L47 27L47 28L46 28L46 29L44 29L44 30L46 30L46 31L45 31L45 33L44 33L44 34L43 34L43 33L42 33L42 31L43 31L43 28L42 28L42 31L40 31L40 30L41 30L41 29L40 29L40 28L41 28L41 26L40 26L40 27L39 27L39 29L38 29L38 28L37 28L37 26L36 26L36 24L37 24L37 25L38 25L38 26L39 26L39 23L41 23L41 24L42 24L42 27L43 27L43 26L44 26L44 24L45 24L45 23L47 23L47 25L46 25L46 26L45 26L45 27L46 27L46 26L47 26L47 25L48 25L48 26L49 26L49 25L48 25L48 22L50 22L50 24L51 24L51 25L50 25L50 26L51 26L51 25L52 25L52 24L53 24L53 25L54 25L54 26L55 26L55 25L56 25L56 24L55 24L55 23L56 23L56 21L55 21L55 20L56 20L56 16L55 16L55 15L56 15L56 13L55 13L55 11L54 11L54 12L53 12L53 13L55 13L55 14L54 14L54 17L52 17L52 16L53 16L53 14L52 14L52 13L50 13L50 10L51 10L51 12L52 12L52 10L51 10L51 9L50 9L50 10L49 10L49 9L48 9L48 10L47 10L47 9L46 9L46 11L45 11L45 10L44 10L44 6L45 6L45 8L46 8L46 5L47 5L47 3L46 3L46 4L45 4L45 5L44 5L44 4L43 4L43 5L42 5L42 6L41 6L41 7L40 7L40 8L39 8L39 9L38 9L38 10L37 10L37 11L38 11L38 10L40 10L40 8L42 8L42 10L44 10L44 12L42 12L42 11L41 11L41 12L42 12L42 15L41 15L41 13L40 13L40 12L37 12L37 13L36 13L36 11L34 11L34 10L33 10L33 9L32 9L32 11L31 11L31 12L30 12L30 10L31 10L31 9L30 9L30 10L29 10L29 12L30 12L30 13L29 13L29 15L28 15L28 14L27 14L27 12L28 12L28 11L27 11L27 10L28 10L28 9L27 9L27 10L25 10L25 9L26 9L26 5L24 5L24 6L23 6L23 3L22 3L22 1L21 1L21 2L19 2L19 1L18 1L18 4L17 4L17 1L16 1L16 2L15 2L15 3L14 3L14 1ZM30 1L30 2L27 2L27 3L26 3L26 4L27 4L27 3L28 3L28 4L29 4L29 3L30 3L30 2L31 2L31 1ZM39 1L39 2L40 2L40 1ZM21 3L21 4L22 4L22 3ZM11 4L11 5L12 5L12 4ZM18 4L18 5L17 5L17 6L16 6L16 7L17 7L17 8L18 8L18 9L17 9L17 10L16 10L16 9L15 9L15 8L14 8L14 9L15 9L15 10L16 10L16 11L17 11L17 14L15 14L15 15L17 15L17 14L18 14L18 13L19 13L19 12L18 12L18 11L20 11L20 13L21 13L21 10L20 10L20 9L21 9L21 8L22 8L22 9L23 9L23 11L22 11L22 12L23 12L23 15L24 15L24 12L25 12L25 14L26 14L26 11L24 11L24 9L25 9L25 8L24 8L24 9L23 9L23 6L22 6L22 5L20 5L20 7L19 7L19 4ZM27 5L27 8L30 8L30 5ZM43 5L43 6L42 6L42 8L43 8L43 6L44 6L44 5ZM17 6L17 7L18 7L18 8L19 8L19 7L18 7L18 6ZM21 6L21 7L22 7L22 6ZM24 6L24 7L25 7L25 6ZM28 6L28 7L29 7L29 6ZM0 8L0 9L3 9L3 10L4 10L4 9L3 9L3 8ZM5 8L5 9L7 9L7 8ZM18 9L18 10L19 10L19 9ZM12 10L12 11L11 11L11 13L12 13L12 12L13 12L13 10ZM48 10L48 11L46 11L46 13L45 13L45 12L44 12L44 13L45 13L45 14L44 14L44 15L43 15L43 16L44 16L44 17L43 17L43 18L42 18L42 17L41 17L41 15L40 15L40 18L38 18L38 16L37 16L37 15L38 15L38 13L37 13L37 14L36 14L36 18L34 18L34 17L35 17L35 15L34 15L34 13L35 13L35 12L34 12L34 11L33 11L33 12L32 12L32 14L31 14L31 16L30 16L30 15L29 15L29 16L30 16L30 17L28 17L28 18L30 18L30 17L31 17L31 19L30 19L30 20L32 20L32 21L33 21L33 22L30 22L30 23L32 23L32 25L33 25L33 26L34 26L34 24L36 24L36 23L37 23L37 22L36 22L36 21L38 21L38 20L39 20L39 19L40 19L40 22L41 22L41 23L42 23L42 24L44 24L44 23L45 23L45 22L44 22L44 21L45 21L45 19L44 19L44 17L45 17L45 18L46 18L46 13L47 13L47 14L48 14L48 15L47 15L47 19L46 19L46 20L47 20L47 22L48 22L48 20L51 20L51 19L52 19L52 17L51 17L51 18L50 18L50 17L49 17L49 19L48 19L48 16L50 16L50 13L49 13L49 14L48 14L48 11L49 11L49 10ZM14 11L14 12L15 12L15 11ZM3 13L3 14L2 14L2 15L4 15L4 13ZM6 13L6 14L7 14L7 13ZM39 13L39 14L40 14L40 13ZM11 14L11 15L13 15L13 16L14 16L14 15L13 15L13 14ZM32 14L32 16L31 16L31 17L32 17L32 18L33 18L33 20L34 20L34 22L33 22L33 24L34 24L34 22L35 22L35 23L36 23L36 22L35 22L35 21L36 21L36 20L35 20L35 19L34 19L34 18L33 18L33 17L34 17L34 15L33 15L33 14ZM51 14L51 16L52 16L52 14ZM25 15L25 17L26 17L26 18L27 18L27 17L26 17L26 15ZM44 15L44 16L45 16L45 15ZM32 16L32 17L33 17L33 16ZM16 17L16 18L17 18L17 19L18 19L18 18L17 18L17 17ZM54 17L54 19L53 19L53 20L52 20L52 22L51 22L51 24L52 24L52 22L53 22L53 23L54 23L54 22L55 22L55 21L54 21L54 19L55 19L55 17ZM36 18L36 19L37 19L37 18ZM40 18L40 19L41 19L41 18ZM14 19L14 20L15 20L15 19ZM42 19L42 20L43 20L43 21L42 21L42 23L44 23L44 22L43 22L43 21L44 21L44 19ZM47 19L47 20L48 20L48 19ZM11 20L11 22L12 22L12 20ZM20 20L20 21L21 21L21 20ZM14 21L14 22L15 22L15 21ZM20 22L20 23L21 23L21 22ZM24 22L24 23L25 23L25 22ZM4 23L4 24L5 24L5 23ZM1 24L1 25L2 25L2 24ZM6 24L6 25L8 25L8 24ZM9 26L9 29L10 29L10 26ZM2 27L2 28L1 28L1 29L2 29L2 28L3 28L3 29L4 29L4 27ZM5 27L5 30L8 30L8 27ZM16 27L16 28L17 28L17 27ZM18 27L18 28L19 28L19 27ZM27 27L27 30L30 30L30 27ZM34 27L34 29L33 29L33 28L32 28L32 29L33 29L33 31L32 31L32 33L34 33L34 32L35 32L35 31L34 31L34 29L35 29L35 30L36 30L36 29L37 29L37 28L36 28L36 29L35 29L35 27ZM49 27L49 30L52 30L52 27ZM6 28L6 29L7 29L7 28ZM11 28L11 29L12 29L12 28ZM28 28L28 29L29 29L29 28ZM50 28L50 29L51 29L51 28ZM19 29L19 30L18 30L18 31L16 31L16 30L14 30L14 31L16 31L16 32L18 32L18 34L19 34L19 32L20 32L20 31L19 31L19 30L20 30L20 29ZM23 29L23 30L22 30L22 33L23 33L23 34L22 34L22 35L21 35L21 34L20 34L20 35L21 35L21 36L22 36L22 38L23 38L23 36L22 36L22 35L25 35L25 34L24 34L24 29ZM3 30L3 31L4 31L4 30ZM37 30L37 31L36 31L36 33L35 33L35 35L34 35L34 37L33 37L33 34L32 34L32 35L31 35L31 34L30 34L30 32L29 32L29 34L28 34L28 35L31 35L31 36L30 36L30 41L29 41L29 40L28 40L28 41L27 41L27 39L26 39L26 38L27 38L27 37L26 37L26 38L24 38L24 39L26 39L26 40L25 40L25 41L26 41L26 42L25 42L25 43L24 43L24 40L22 40L22 41L21 41L21 42L22 42L22 41L23 41L23 43L22 43L22 44L23 44L23 47L24 47L24 48L25 48L25 47L26 47L26 46L28 46L28 44L29 44L29 45L30 45L30 47L31 47L31 48L32 48L32 49L33 49L33 50L34 50L34 49L35 49L35 48L32 48L32 47L34 47L34 45L33 45L33 44L35 44L35 43L36 43L36 41L37 41L37 42L38 42L38 41L39 41L39 38L38 38L38 36L37 36L37 35L36 35L36 33L37 33L37 34L38 34L38 35L39 35L39 34L38 34L38 33L39 33L39 32L40 32L40 34L42 34L42 33L41 33L41 32L40 32L40 31L38 31L38 30ZM53 30L53 31L52 31L52 32L51 32L51 31L49 31L49 32L50 32L50 33L49 33L49 36L48 36L48 37L46 37L46 38L45 38L45 40L46 40L46 43L48 43L48 42L49 42L49 45L48 45L48 46L49 46L49 47L50 47L50 46L51 46L51 45L52 45L52 47L51 47L51 48L53 48L53 49L54 49L54 48L55 48L55 47L54 47L54 48L53 48L53 45L52 45L52 44L53 44L53 39L52 39L52 38L51 38L51 37L52 37L52 36L53 36L53 34L54 34L54 36L55 36L55 35L56 35L56 34L55 34L55 33L53 33L53 31L54 31L54 32L55 32L55 31L56 31L56 30L55 30L55 31L54 31L54 30ZM6 31L6 32L8 32L8 31ZM18 31L18 32L19 32L19 31ZM33 31L33 32L34 32L34 31ZM37 31L37 32L38 32L38 31ZM1 32L1 33L2 33L2 32ZM50 33L50 36L51 36L51 33ZM1 34L1 35L3 35L3 34ZM13 35L13 36L14 36L14 35ZM35 35L35 37L34 37L34 38L31 38L31 41L30 41L30 42L29 42L29 41L28 41L28 42L27 42L27 44L28 44L28 42L29 42L29 44L30 44L30 45L32 45L32 44L31 44L31 43L32 43L32 40L33 40L33 41L34 41L34 42L35 42L35 41L36 41L36 38L37 38L37 41L38 41L38 38L37 38L37 37L36 37L36 35ZM3 36L3 37L4 37L4 36ZM28 36L28 37L29 37L29 36ZM31 36L31 37L32 37L32 36ZM6 37L6 38L5 38L5 39L4 39L4 41L3 41L3 42L4 42L4 41L6 41L6 42L5 42L5 43L3 43L3 44L4 44L4 46L3 46L3 47L5 47L5 45L6 45L6 46L7 46L7 45L8 45L8 46L9 46L9 45L8 45L8 44L7 44L7 43L6 43L6 42L9 42L9 41L10 41L10 42L12 42L12 43L11 43L11 45L12 45L12 46L13 46L13 48L14 48L14 46L13 46L13 45L14 45L14 42L15 42L15 45L16 45L16 47L15 47L15 48L16 48L16 47L17 47L17 44L16 44L16 42L15 42L15 41L13 41L13 40L12 40L12 39L11 39L11 40L10 40L10 39L8 39L8 38L7 38L7 37ZM35 37L35 38L36 38L36 37ZM49 37L49 39L48 39L48 40L47 40L47 38L46 38L46 40L47 40L47 41L48 41L48 40L51 40L51 41L49 41L49 42L50 42L50 44L52 44L52 39L51 39L51 38L50 38L50 37ZM6 38L6 39L7 39L7 40L6 40L6 41L7 41L7 40L8 40L8 39L7 39L7 38ZM28 38L28 39L29 39L29 38ZM34 39L34 41L35 41L35 39ZM42 41L42 42L43 42L43 41ZM30 42L30 43L31 43L31 42ZM39 42L39 43L37 43L37 44L36 44L36 46L35 46L35 47L36 47L36 46L38 46L38 45L37 45L37 44L39 44L39 43L40 43L40 42ZM12 43L12 45L13 45L13 43ZM20 43L20 44L21 44L21 43ZM23 43L23 44L24 44L24 43ZM6 44L6 45L7 45L7 44ZM40 44L40 46L39 46L39 47L40 47L40 49L41 49L41 47L42 47L42 45L43 45L43 44L42 44L42 45L41 45L41 44ZM24 45L24 47L25 47L25 46L26 46L26 45ZM49 45L49 46L50 46L50 45ZM20 46L20 47L19 47L19 48L18 48L18 49L19 49L19 48L20 48L20 49L21 49L21 48L22 48L22 46ZM31 46L31 47L32 47L32 46ZM40 46L40 47L41 47L41 46ZM43 46L43 47L44 47L44 46ZM37 47L37 48L36 48L36 49L37 49L37 51L38 51L38 47ZM6 48L6 49L7 49L7 48ZM44 48L44 49L45 49L45 51L46 51L46 48ZM10 49L10 50L11 50L11 49ZM27 49L27 52L30 52L30 49ZM49 49L49 52L52 52L52 49ZM28 50L28 51L29 51L29 50ZM50 50L50 51L51 51L51 50ZM31 51L31 52L32 52L32 51ZM31 53L31 54L30 54L30 55L33 55L33 54L32 54L32 53ZM9 54L9 56L10 56L10 54ZM16 54L16 55L17 55L17 54ZM22 54L22 55L23 55L23 54ZM40 54L40 55L42 55L42 54ZM14 55L14 56L15 56L15 55ZM18 56L18 57L20 57L20 56ZM36 56L36 57L37 57L37 56ZM51 56L51 57L53 57L53 56ZM56 56L56 57L57 57L57 56ZM0 0L0 7L7 7L7 0ZM1 1L1 6L6 6L6 1ZM2 2L2 5L5 5L5 2ZM50 0L50 7L57 7L57 0ZM51 1L51 6L56 6L56 1ZM52 2L52 5L55 5L55 2ZM0 50L0 57L7 57L7 50ZM1 51L1 56L6 56L6 51ZM2 52L2 55L5 55L5 52Z" fill="#000000"/></g></g></svg>
