<?xml version="1.0" encoding="UTF-8"?>
<svg xmlns="http://www.w3.org/2000/svg" version="1.1" width="300" height="300" viewBox="0 0 300 300"><rect x="0" y="0" width="300" height="300" fill="#fefefe"/><g transform="scale(4.615)"><g transform="translate(4,4)"><path fill-rule="evenodd" d="M8 0L8 4L9 4L9 5L8 5L8 7L9 7L9 5L10 5L10 7L11 7L11 8L9 8L9 10L8 10L8 11L7 11L7 10L6 10L6 9L7 9L7 8L4 8L4 11L3 11L3 10L2 10L2 8L0 8L0 9L1 9L1 12L0 12L0 13L1 13L1 14L0 14L0 17L2 17L2 16L3 16L3 18L2 18L2 20L1 20L1 18L0 18L0 21L1 21L1 22L0 22L0 24L2 24L2 25L0 25L0 27L1 27L1 26L4 26L4 27L2 27L2 28L1 28L1 29L2 29L2 30L1 30L1 31L0 31L0 34L1 34L1 39L0 39L0 40L2 40L2 42L1 42L1 41L0 41L0 42L1 42L1 43L0 43L0 44L1 44L1 45L2 45L2 44L1 44L1 43L2 43L2 42L3 42L3 43L4 43L4 44L3 44L3 46L2 46L2 47L1 47L1 46L0 46L0 48L5 48L5 47L7 47L7 48L6 48L6 49L7 49L7 48L8 48L8 45L12 45L12 47L11 47L11 46L10 46L10 47L9 47L9 48L10 48L10 49L8 49L8 50L9 50L9 51L8 51L8 53L9 53L9 54L10 54L10 55L8 55L8 57L9 57L9 56L10 56L10 57L12 57L12 56L14 56L14 55L16 55L16 54L17 54L17 57L19 57L19 55L20 55L20 54L21 54L21 55L22 55L22 56L20 56L20 57L22 57L22 56L23 56L23 55L24 55L24 57L25 57L25 56L26 56L26 57L27 57L27 55L26 55L26 54L27 54L27 53L28 53L28 57L29 57L29 55L30 55L30 57L34 57L34 53L35 53L35 57L37 57L37 56L36 56L36 54L37 54L37 55L40 55L40 56L39 56L39 57L40 57L40 56L41 56L41 55L42 55L42 56L44 56L44 57L46 57L46 56L44 56L44 53L45 53L45 54L46 54L46 55L47 55L47 54L46 54L46 51L47 51L47 52L48 52L48 54L49 54L49 55L48 55L48 56L49 56L49 57L50 57L50 55L51 55L51 56L53 56L53 55L55 55L55 54L57 54L57 53L55 53L55 52L54 52L54 53L55 53L55 54L53 54L53 50L54 50L54 51L56 51L56 52L57 52L57 51L56 51L56 45L57 45L57 43L56 43L56 42L57 42L57 40L54 40L54 41L53 41L53 40L52 40L52 37L51 37L51 36L53 36L53 38L54 38L54 37L56 37L56 36L57 36L57 35L56 35L56 34L55 34L55 33L56 33L56 30L54 30L54 28L53 28L53 27L54 27L54 26L55 26L55 25L53 25L53 26L51 26L51 25L52 25L52 22L53 22L53 21L52 21L52 20L53 20L53 19L49 19L49 20L48 20L48 21L47 21L47 22L50 22L50 23L48 23L48 24L47 24L47 25L48 25L48 29L47 29L47 28L46 28L46 29L47 29L47 31L46 31L46 30L45 30L45 26L46 26L46 27L47 27L47 26L46 26L46 25L45 25L45 24L46 24L46 23L45 23L45 24L44 24L44 22L45 22L45 21L46 21L46 19L48 19L48 18L49 18L49 17L50 17L50 18L51 18L51 17L50 17L50 16L49 16L49 15L48 15L48 17L47 17L47 16L46 16L46 17L45 17L45 16L44 16L44 15L43 15L43 13L41 13L41 14L40 14L40 13L38 13L38 15L39 15L39 17L38 17L38 16L37 16L37 15L35 15L35 17L38 17L38 18L39 18L39 19L37 19L37 18L34 18L34 13L33 13L33 12L32 12L32 14L31 14L31 13L30 13L30 15L32 15L32 17L31 17L31 16L29 16L29 13L26 13L26 11L27 11L27 12L28 12L28 11L29 11L29 12L31 12L31 6L32 6L32 7L33 7L33 8L32 8L32 11L33 11L33 10L34 10L34 12L35 12L35 13L36 13L36 14L37 14L37 12L39 12L39 11L36 11L36 10L34 10L34 9L33 9L33 8L34 8L34 7L35 7L35 9L38 9L38 10L40 10L40 11L41 11L41 12L43 12L43 11L42 11L42 10L43 10L43 8L44 8L44 11L45 11L45 12L44 12L44 14L45 14L45 15L46 15L46 11L45 11L45 10L46 10L46 8L44 8L44 7L45 7L45 6L46 6L46 7L47 7L47 5L48 5L48 0L41 0L41 1L40 1L40 2L39 2L39 3L40 3L40 4L38 4L38 5L36 5L36 4L35 4L35 3L33 3L33 2L32 2L32 3L31 3L31 4L30 4L30 3L28 3L28 4L26 4L26 3L25 3L25 2L26 2L26 1L27 1L27 0L26 0L26 1L25 1L25 0L23 0L23 3L22 3L22 2L21 2L21 6L20 6L20 5L19 5L19 4L17 4L17 3L16 3L16 2L15 2L15 3L16 3L16 4L17 4L17 6L16 6L16 5L15 5L15 4L14 4L14 1L16 1L16 0L10 0L10 1L9 1L9 0ZM20 0L20 1L21 1L21 0ZM28 0L28 2L31 2L31 1L34 1L34 2L36 2L36 3L38 3L38 1L39 1L39 0L38 0L38 1L37 1L37 2L36 2L36 0L35 0L35 1L34 1L34 0ZM11 1L11 2L12 2L12 1ZM18 1L18 2L19 2L19 1ZM46 1L46 2L47 2L47 1ZM9 2L9 4L10 4L10 5L11 5L11 7L12 7L12 8L11 8L11 9L10 9L10 10L9 10L9 11L8 11L8 12L7 12L7 11L6 11L6 10L5 10L5 11L6 11L6 12L4 12L4 14L5 14L5 13L6 13L6 14L9 14L9 15L8 15L8 16L9 16L9 20L8 20L8 18L7 18L7 17L6 17L6 16L7 16L7 15L6 15L6 16L5 16L5 15L4 15L4 16L5 16L5 17L4 17L4 19L6 19L6 20L5 20L5 21L4 21L4 20L3 20L3 21L4 21L4 23L3 23L3 24L4 24L4 23L5 23L5 24L8 24L8 23L9 23L9 22L10 22L10 24L9 24L9 25L10 25L10 27L9 27L9 29L11 29L11 28L12 28L12 26L11 26L11 25L13 25L13 24L14 24L14 23L15 23L15 24L16 24L16 26L17 26L17 27L18 27L18 26L19 26L19 25L21 25L21 26L22 26L22 25L23 25L23 24L24 24L24 23L22 23L22 22L23 22L23 21L24 21L24 22L25 22L25 23L26 23L26 22L28 22L28 21L29 21L29 20L28 20L28 21L24 21L24 20L25 20L25 19L26 19L26 20L27 20L27 19L30 19L30 20L31 20L31 21L32 21L32 20L31 20L31 19L34 19L34 22L31 22L31 23L30 23L30 22L29 22L29 23L30 23L30 25L29 25L29 24L28 24L28 25L27 25L27 26L30 26L30 25L31 25L31 29L32 29L32 30L31 30L31 31L32 31L32 32L30 32L30 31L29 31L29 33L28 33L28 34L27 34L27 36L25 36L25 35L26 35L26 34L24 34L24 36L25 36L25 37L27 37L27 39L28 39L28 38L29 38L29 39L31 39L31 40L29 40L29 41L26 41L26 42L25 42L25 43L23 43L23 41L25 41L25 40L26 40L26 38L24 38L24 37L23 37L23 35L22 35L22 34L23 34L23 33L25 33L25 32L26 32L26 33L27 33L27 32L28 32L28 31L27 31L27 32L26 32L26 31L25 31L25 30L26 30L26 29L25 29L25 30L23 30L23 29L24 29L24 28L22 28L22 27L19 27L19 28L18 28L18 29L14 29L14 30L17 30L17 31L20 31L20 32L21 32L21 31L22 31L22 33L21 33L21 34L20 34L20 33L19 33L19 36L22 36L22 37L17 37L17 32L16 32L16 31L13 31L13 32L12 32L12 33L11 33L11 31L10 31L10 30L9 30L9 32L8 32L8 33L11 33L11 34L7 34L7 33L6 33L6 32L7 32L7 31L6 31L6 32L5 32L5 33L4 33L4 34L3 34L3 36L2 36L2 37L5 37L5 38L3 38L3 39L2 39L2 40L3 40L3 41L4 41L4 42L5 42L5 44L7 44L7 43L9 43L9 44L10 44L10 43L11 43L11 44L13 44L13 43L14 43L14 44L15 44L15 43L14 43L14 40L15 40L15 41L16 41L16 46L15 46L15 45L13 45L13 46L15 46L15 48L14 48L14 49L16 49L16 50L15 50L15 51L18 51L18 52L19 52L19 53L20 53L20 52L19 52L19 51L18 51L18 50L20 50L20 51L21 51L21 52L22 52L22 53L21 53L21 54L22 54L22 55L23 55L23 53L24 53L24 54L26 54L26 50L25 50L25 53L24 53L24 52L23 52L23 50L22 50L22 49L23 49L23 48L22 48L22 47L23 47L23 45L24 45L24 44L25 44L25 43L27 43L27 45L26 45L26 46L25 46L25 47L24 47L24 49L26 49L26 48L27 48L27 47L30 47L30 48L31 48L31 49L32 49L32 48L31 48L31 46L30 46L30 45L29 45L29 43L31 43L31 45L32 45L32 43L33 43L33 44L37 44L37 46L38 46L38 45L39 45L39 47L38 47L38 49L37 49L37 51L38 51L38 52L37 52L37 54L38 54L38 52L40 52L40 53L41 53L41 52L42 52L42 51L43 51L43 50L42 50L42 51L41 51L41 46L40 46L40 45L41 45L41 43L40 43L40 42L39 42L39 44L37 44L37 43L33 43L33 41L32 41L32 40L33 40L33 39L34 39L34 42L35 42L35 39L37 39L37 42L38 42L38 39L40 39L40 38L38 38L38 37L44 37L44 38L43 38L43 39L41 39L41 40L40 40L40 41L42 41L42 40L43 40L43 41L44 41L44 42L42 42L42 44L43 44L43 45L44 45L44 44L45 44L45 45L46 45L46 47L45 47L45 46L44 46L44 47L42 47L42 49L44 49L44 51L46 51L46 50L47 50L47 49L48 49L48 47L52 47L52 48L53 48L53 49L54 49L54 48L55 48L55 45L56 45L56 44L55 44L55 42L54 42L54 43L53 43L53 41L52 41L52 40L50 40L50 39L51 39L51 37L50 37L50 35L53 35L53 36L55 36L55 35L53 35L53 34L54 34L54 32L55 32L55 31L53 31L53 33L51 33L51 32L50 32L50 31L49 31L49 32L50 32L50 35L49 35L49 36L46 36L46 34L49 34L49 33L48 33L48 31L47 31L47 33L46 33L46 32L45 32L45 33L46 33L46 34L44 34L44 33L43 33L43 34L44 34L44 35L43 35L43 36L42 36L42 34L40 34L40 33L41 33L41 32L40 32L40 31L41 31L41 30L40 30L40 29L43 29L43 30L44 30L44 29L43 29L43 28L42 28L42 25L41 25L41 22L40 22L40 21L41 21L41 20L42 20L42 21L43 21L43 22L42 22L42 23L43 23L43 22L44 22L44 16L43 16L43 15L42 15L42 17L43 17L43 18L42 18L42 19L41 19L41 18L40 18L40 17L41 17L41 15L40 15L40 17L39 17L39 18L40 18L40 21L39 21L39 20L37 20L37 22L35 22L35 20L36 20L36 19L34 19L34 18L33 18L33 17L32 17L32 18L31 18L31 19L30 19L30 18L28 18L28 17L26 17L26 16L27 16L27 15L28 15L28 14L27 14L27 15L26 15L26 16L24 16L24 15L25 15L25 14L26 14L26 13L25 13L25 12L24 12L24 13L21 13L21 14L22 14L22 15L21 15L21 17L26 17L26 18L24 18L24 19L23 19L23 18L22 18L22 19L21 19L21 20L22 20L22 21L21 21L21 22L20 22L20 23L19 23L19 22L16 22L16 23L15 23L15 22L14 22L14 21L13 21L13 20L12 20L12 19L14 19L14 20L15 20L15 21L17 21L17 19L18 19L18 20L19 20L19 21L20 21L20 20L19 20L19 18L20 18L20 16L19 16L19 18L17 18L17 16L15 16L15 17L16 17L16 20L15 20L15 18L13 18L13 17L14 17L14 16L12 16L12 15L13 15L13 13L15 13L15 14L17 14L17 15L18 15L18 14L17 14L17 13L18 13L18 12L19 12L19 15L20 15L20 12L21 12L21 11L22 11L22 12L23 12L23 11L25 11L25 10L27 10L27 11L28 11L28 10L29 10L29 9L28 9L28 10L27 10L27 9L26 9L26 6L25 6L25 7L24 7L24 6L23 6L23 7L24 7L24 8L22 8L22 6L21 6L21 8L22 8L22 9L21 9L21 10L20 10L20 9L19 9L19 10L18 10L18 11L17 11L17 13L15 13L15 12L14 12L14 11L13 11L13 9L14 9L14 8L15 8L15 7L16 7L16 6L15 6L15 7L14 7L14 6L13 6L13 4L11 4L11 3L10 3L10 2ZM40 2L40 3L41 3L41 4L42 4L42 2ZM43 2L43 3L44 3L44 4L43 4L43 7L42 7L42 6L41 6L41 5L39 5L39 7L40 7L40 6L41 6L41 8L40 8L40 9L42 9L42 8L43 8L43 7L44 7L44 4L45 4L45 5L47 5L47 3L44 3L44 2ZM23 3L23 5L24 5L24 4L25 4L25 3ZM32 3L32 5L33 5L33 7L34 7L34 5L35 5L35 7L36 7L36 5L35 5L35 4L34 4L34 5L33 5L33 3ZM18 5L18 6L17 6L17 7L18 7L18 6L19 6L19 7L20 7L20 6L19 6L19 5ZM27 5L27 8L30 8L30 5ZM12 6L12 7L13 7L13 6ZM28 6L28 7L29 7L29 6ZM37 6L37 7L38 7L38 6ZM48 6L48 7L49 7L49 6ZM38 8L38 9L39 9L39 8ZM48 8L48 9L47 9L47 10L49 10L49 11L50 11L50 15L52 15L52 14L53 14L53 15L55 15L55 16L54 16L54 17L55 17L55 19L56 19L56 18L57 18L57 15L56 15L56 13L57 13L57 11L56 11L56 10L57 10L57 8L53 8L53 9L52 9L52 8L51 8L51 9L50 9L50 10L49 10L49 8ZM15 9L15 11L16 11L16 10L17 10L17 9ZM23 9L23 10L25 10L25 9ZM53 9L53 10L54 10L54 11L52 11L52 12L51 12L51 14L52 14L52 13L53 13L53 12L54 12L54 13L55 13L55 10L56 10L56 9ZM10 10L10 12L12 12L12 10ZM19 10L19 11L20 11L20 10ZM50 10L50 11L51 11L51 10ZM2 11L2 13L3 13L3 11ZM47 11L47 12L48 12L48 11ZM6 12L6 13L7 13L7 12ZM9 13L9 14L10 14L10 13ZM24 13L24 14L25 14L25 13ZM47 13L47 14L49 14L49 13ZM1 14L1 16L2 16L2 14ZM11 14L11 15L12 15L12 14ZM22 15L22 16L23 16L23 15ZM55 16L55 17L56 17L56 16ZM5 17L5 18L6 18L6 19L7 19L7 18L6 18L6 17ZM10 17L10 18L11 18L11 17ZM46 17L46 18L45 18L45 19L46 19L46 18L47 18L47 17ZM52 17L52 18L53 18L53 17ZM26 18L26 19L27 19L27 18ZM22 19L22 20L23 20L23 19ZM6 20L6 21L7 21L7 20ZM49 20L49 21L51 21L51 22L52 22L52 21L51 21L51 20ZM55 20L55 24L56 24L56 25L57 25L57 24L56 24L56 21L57 21L57 20ZM10 21L10 22L11 22L11 23L12 23L12 24L13 24L13 21L12 21L12 22L11 22L11 21ZM38 21L38 22L37 22L37 23L38 23L38 22L39 22L39 21ZM1 22L1 23L2 23L2 22ZM6 22L6 23L7 23L7 22ZM34 22L34 23L32 23L32 27L33 27L33 28L32 28L32 29L33 29L33 30L32 30L32 31L34 31L34 32L32 32L32 33L29 33L29 34L28 34L28 36L27 36L27 37L28 37L28 36L29 36L29 37L31 37L31 36L32 36L32 37L33 37L33 38L31 38L31 39L33 39L33 38L34 38L34 35L35 35L35 38L37 38L37 36L38 36L38 34L39 34L39 33L40 33L40 32L39 32L39 31L40 31L40 30L39 30L39 29L40 29L40 28L41 28L41 26L40 26L40 24L39 24L39 25L38 25L38 26L40 26L40 28L39 28L39 27L37 27L37 26L36 26L36 27L35 27L35 29L37 29L37 30L35 30L35 31L34 31L34 27L33 27L33 26L34 26L34 25L37 25L37 24L34 24L34 23L35 23L35 22ZM17 23L17 25L19 25L19 24L18 24L18 23ZM21 23L21 25L22 25L22 23ZM50 23L50 24L51 24L51 23ZM33 24L33 25L34 25L34 24ZM43 24L43 27L44 27L44 24ZM48 24L48 25L49 25L49 26L50 26L50 25L49 25L49 24ZM4 25L4 26L5 26L5 25ZM6 25L6 26L8 26L8 25ZM14 25L14 26L13 26L13 28L16 28L16 27L14 27L14 26L15 26L15 25ZM25 25L25 27L26 27L26 25ZM23 26L23 27L24 27L24 26ZM5 27L5 30L8 30L8 27ZM10 27L10 28L11 28L11 27ZM27 27L27 30L30 30L30 27ZM36 27L36 28L37 28L37 29L38 29L38 28L37 28L37 27ZM49 27L49 30L52 30L52 27ZM55 27L55 28L56 28L56 29L57 29L57 28L56 28L56 27ZM2 28L2 29L3 29L3 30L2 30L2 31L1 31L1 34L2 34L2 33L3 33L3 32L4 32L4 29L3 29L3 28ZM6 28L6 29L7 29L7 28ZM19 28L19 29L18 29L18 30L19 30L19 29L20 29L20 30L22 30L22 31L23 31L23 32L25 32L25 31L23 31L23 30L22 30L22 29L21 29L21 28ZM28 28L28 29L29 29L29 28ZM50 28L50 29L51 29L51 28ZM37 30L37 32L38 32L38 30ZM2 31L2 32L3 32L3 31ZM13 32L13 33L12 33L12 34L11 34L11 35L9 35L9 36L10 36L10 38L9 38L9 37L8 37L8 36L6 36L6 35L7 35L7 34L6 34L6 35L5 35L5 34L4 34L4 36L6 36L6 37L7 37L7 38L5 38L5 39L3 39L3 40L4 40L4 41L5 41L5 42L6 42L6 43L7 43L7 42L6 42L6 41L7 41L7 40L10 40L10 41L9 41L9 43L10 43L10 41L11 41L11 40L12 40L12 39L10 39L10 38L11 38L11 37L16 37L16 33L14 33L14 32ZM13 33L13 34L14 34L14 35L13 35L13 36L15 36L15 34L14 34L14 33ZM34 33L34 34L35 34L35 33ZM37 33L37 34L38 34L38 33ZM30 34L30 36L31 36L31 34ZM32 34L32 35L33 35L33 34ZM39 35L39 36L40 36L40 35ZM44 35L44 37L45 37L45 38L46 38L46 39L44 39L44 41L45 41L45 42L44 42L44 43L46 43L46 41L47 41L47 40L49 40L49 39L50 39L50 37L49 37L49 39L47 39L47 38L48 38L48 37L47 37L47 38L46 38L46 36L45 36L45 35ZM8 38L8 39L9 39L9 38ZM14 38L14 39L13 39L13 40L14 40L14 39L15 39L15 40L17 40L17 41L20 41L20 42L22 42L22 40L24 40L24 39L22 39L22 38L20 38L20 39L19 39L19 40L18 40L18 39L17 39L17 38L16 38L16 39L15 39L15 38ZM55 38L55 39L57 39L57 38ZM6 39L6 40L5 40L5 41L6 41L6 40L7 40L7 39ZM21 39L21 40L20 40L20 41L21 41L21 40L22 40L22 39ZM46 39L46 40L45 40L45 41L46 41L46 40L47 40L47 39ZM29 41L29 42L31 42L31 43L32 43L32 41ZM48 41L48 42L49 42L49 43L47 43L47 44L46 44L46 45L47 45L47 44L49 44L49 46L51 46L51 45L54 45L54 44L53 44L53 43L52 43L52 41L51 41L51 43L50 43L50 42L49 42L49 41ZM17 42L17 43L18 43L18 42ZM27 42L27 43L28 43L28 42ZM19 43L19 44L18 44L18 45L17 45L17 46L16 46L16 49L19 49L19 48L20 48L20 47L19 47L19 45L20 45L20 46L21 46L21 47L22 47L22 46L21 46L21 45L23 45L23 44L22 44L22 43L21 43L21 45L20 45L20 43ZM49 43L49 44L50 44L50 45L51 45L51 44L52 44L52 43L51 43L51 44L50 44L50 43ZM39 44L39 45L40 45L40 44ZM4 45L4 46L3 46L3 47L5 47L5 45ZM6 45L6 46L7 46L7 45ZM27 45L27 46L26 46L26 47L27 47L27 46L28 46L28 45ZM34 45L34 47L33 47L33 48L34 48L34 47L35 47L35 46L36 46L36 45ZM47 46L47 47L46 47L46 48L47 48L47 47L48 47L48 46ZM52 46L52 47L54 47L54 46ZM10 47L10 48L11 48L11 47ZM12 47L12 48L13 48L13 47ZM36 47L36 48L37 48L37 47ZM39 47L39 49L38 49L38 51L40 51L40 47ZM21 48L21 49L20 49L20 50L21 50L21 49L22 49L22 48ZM44 48L44 49L45 49L45 50L46 50L46 49L45 49L45 48ZM10 49L10 50L12 50L12 49ZM27 49L27 52L30 52L30 49ZM34 49L34 50L32 50L32 51L31 51L31 52L32 52L32 51L34 51L34 52L33 52L33 53L32 53L32 54L33 54L33 53L34 53L34 52L36 52L36 49ZM49 49L49 52L52 52L52 49ZM13 50L13 51L14 51L14 50ZM28 50L28 51L29 51L29 50ZM50 50L50 51L51 51L51 50ZM9 51L9 53L11 53L11 55L10 55L10 56L12 56L12 52L11 52L11 51ZM13 52L13 53L17 53L17 52ZM43 52L43 53L44 53L44 52ZM30 53L30 54L31 54L31 53ZM49 53L49 54L51 54L51 55L52 55L52 54L51 54L51 53ZM40 54L40 55L41 55L41 54ZM42 54L42 55L43 55L43 54ZM15 56L15 57L16 57L16 56ZM56 56L56 57L57 57L57 56ZM0 0L0 7L7 7L7 0ZM1 1L1 6L6 6L6 1ZM2 2L2 5L5 5L5 2ZM50 0L50 7L57 7L57 0ZM51 1L51 6L56 6L56 1ZM52 2L52 5L55 5L55 2ZM0 50L0 57L7 57L7 50ZM1 51L1 56L6 56L6 51ZM2 52L2 55L5 55L5 52Z" fill="#000000"/></g></g></svg>
