<?xml version="1.0" encoding="UTF-8"?>
<svg xmlns="http://www.w3.org/2000/svg" version="1.1" width="300" height="300" viewBox="0 0 300 300"><rect x="0" y="0" width="300" height="300" fill="#fefefe"/><g transform="scale(4.615)"><g transform="translate(4,4)"><path fill-rule="evenodd" d="M9 0L9 1L8 1L8 2L9 2L9 1L10 1L10 2L11 2L11 3L10 3L10 4L9 4L9 3L8 3L8 4L9 4L9 5L8 5L8 7L9 7L9 6L10 6L10 8L6 8L6 9L5 9L5 8L0 8L0 11L1 11L1 12L0 12L0 14L3 14L3 11L4 11L4 10L5 10L5 12L6 12L6 13L4 13L4 15L3 15L3 17L2 17L2 19L1 19L1 18L0 18L0 19L1 19L1 20L0 20L0 21L1 21L1 20L2 20L2 19L3 19L3 17L4 17L4 18L5 18L5 17L7 17L7 18L6 18L6 19L4 19L4 20L3 20L3 21L2 21L2 22L1 22L1 23L0 23L0 24L2 24L2 26L3 26L3 27L1 27L1 26L0 26L0 27L1 27L1 28L0 28L0 29L1 29L1 30L0 30L0 34L1 34L1 33L2 33L2 34L4 34L4 36L3 36L3 35L1 35L1 36L0 36L0 37L1 37L1 38L2 38L2 41L1 41L1 40L0 40L0 44L1 44L1 46L0 46L0 48L5 48L5 47L8 47L8 48L9 48L9 49L8 49L8 51L9 51L9 52L8 52L8 57L9 57L9 55L10 55L10 51L12 51L12 52L11 52L11 53L14 53L14 54L12 54L12 55L14 55L14 54L15 54L15 55L16 55L16 56L14 56L14 57L16 57L16 56L17 56L17 57L19 57L19 55L20 55L20 54L19 54L19 53L20 53L20 52L21 52L21 51L22 51L22 52L23 52L23 51L22 51L22 50L25 50L25 49L26 49L26 52L24 52L24 53L21 53L21 55L23 55L23 57L26 57L26 56L27 56L27 57L29 57L29 56L30 56L30 57L31 57L31 56L35 56L35 57L39 57L39 56L40 56L40 55L41 55L41 54L42 54L42 55L44 55L44 56L43 56L43 57L44 57L44 56L45 56L45 57L47 57L47 55L49 55L49 56L48 56L48 57L49 57L49 56L50 56L50 57L52 57L52 55L51 55L51 53L52 53L52 54L53 54L53 52L54 52L54 53L57 53L57 51L56 51L56 50L55 50L55 48L56 48L56 49L57 49L57 48L56 48L56 46L57 46L57 45L56 45L56 44L55 44L55 43L56 43L56 42L57 42L57 41L56 41L56 42L55 42L55 39L57 39L57 37L56 37L56 36L57 36L57 35L56 35L56 34L55 34L55 32L56 32L56 33L57 33L57 32L56 32L56 30L57 30L57 29L56 29L56 28L57 28L57 27L55 27L55 26L57 26L57 25L56 25L56 22L57 22L57 21L56 21L56 22L55 22L55 23L53 23L53 21L51 21L51 20L52 20L52 19L53 19L53 20L55 20L55 19L56 19L56 20L57 20L57 19L56 19L56 16L57 16L57 15L56 15L56 14L57 14L57 13L56 13L56 12L55 12L55 11L56 11L56 8L55 8L55 10L54 10L54 11L52 11L52 10L49 10L49 9L50 9L50 8L48 8L48 9L47 9L47 8L46 8L46 7L47 7L47 5L48 5L48 0L46 0L46 1L45 1L45 2L44 2L44 3L43 3L43 4L40 4L40 5L39 5L39 6L38 6L38 8L35 8L35 5L36 5L36 7L37 7L37 5L38 5L38 4L39 4L39 3L41 3L41 2L43 2L43 0L41 0L41 1L40 1L40 0L39 0L39 1L38 1L38 0L37 0L37 1L38 1L38 2L39 2L39 3L38 3L38 4L37 4L37 3L36 3L36 0L35 0L35 1L33 1L33 0L32 0L32 1L33 1L33 2L32 2L32 3L31 3L31 4L26 4L26 3L23 3L23 2L28 2L28 3L29 3L29 1L31 1L31 0L29 0L29 1L25 1L25 0L23 0L23 2L22 2L22 3L23 3L23 4L24 4L24 5L23 5L23 6L22 6L22 7L21 7L21 5L22 5L22 4L19 4L19 3L18 3L18 2L19 2L19 1L18 1L18 0L17 0L17 1L18 1L18 2L17 2L17 4L19 4L19 5L20 5L20 7L19 7L19 6L18 6L18 5L17 5L17 6L16 6L16 7L15 7L15 6L14 6L14 5L13 5L13 6L12 6L12 7L11 7L11 3L12 3L12 4L14 4L14 2L16 2L16 1L14 1L14 2L11 2L11 1L13 1L13 0ZM21 0L21 1L20 1L20 2L21 2L21 1L22 1L22 0ZM46 1L46 2L47 2L47 1ZM32 3L32 4L31 4L31 8L32 8L32 10L29 10L29 9L27 9L27 10L28 10L28 11L29 11L29 12L28 12L28 13L27 13L27 14L26 14L26 12L27 12L27 11L26 11L26 12L25 12L25 11L24 11L24 12L25 12L25 14L23 14L23 13L22 13L22 12L21 12L21 13L20 13L20 10L21 10L21 11L22 11L22 10L23 10L23 8L24 8L24 6L23 6L23 7L22 7L22 8L19 8L19 7L18 7L18 6L17 6L17 7L16 7L16 8L14 8L14 9L13 9L13 8L12 8L12 9L13 9L13 10L15 10L15 13L12 13L12 11L10 11L10 12L8 12L8 11L9 11L9 9L6 9L6 10L7 10L7 11L6 11L6 12L8 12L8 13L10 13L10 12L11 12L11 14L12 14L12 15L9 15L9 14L8 14L8 15L4 15L4 16L8 16L8 15L9 15L9 16L11 16L11 17L10 17L10 18L11 18L11 20L10 20L10 21L11 21L11 20L12 20L12 22L13 22L13 23L12 23L12 24L10 24L10 23L11 23L11 22L10 22L10 23L6 23L6 22L8 22L8 21L6 21L6 22L2 22L2 24L3 24L3 26L4 26L4 25L5 25L5 24L4 24L4 23L6 23L6 24L8 24L8 25L6 25L6 26L8 26L8 25L9 25L9 24L10 24L10 27L12 27L12 26L13 26L13 28L12 28L12 30L13 30L13 31L14 31L14 32L20 32L20 35L19 35L19 33L18 33L18 35L17 35L17 33L12 33L12 31L10 31L10 32L11 32L11 33L9 33L9 32L7 32L7 31L5 31L5 32L4 32L4 31L3 31L3 33L4 33L4 34L5 34L5 33L6 33L6 34L7 34L7 33L9 33L9 35L10 35L10 36L8 36L8 35L6 35L6 36L4 36L4 37L2 37L2 36L1 36L1 37L2 37L2 38L3 38L3 43L1 43L1 44L7 44L7 43L10 43L10 44L9 44L9 45L8 45L8 47L9 47L9 48L10 48L10 46L9 46L9 45L11 45L11 46L13 46L13 47L11 47L11 49L9 49L9 50L11 50L11 49L13 49L13 47L14 47L14 52L15 52L15 50L17 50L17 45L18 45L18 44L16 44L16 43L15 43L15 46L13 46L13 45L12 45L12 44L11 44L11 43L12 43L12 42L13 42L13 44L14 44L14 42L17 42L17 43L18 43L18 42L19 42L19 44L20 44L20 42L21 42L21 43L22 43L22 42L24 42L24 41L25 41L25 43L27 43L27 44L24 44L24 43L23 43L23 44L24 44L24 45L25 45L25 46L23 46L23 45L22 45L22 44L21 44L21 45L19 45L19 46L20 46L20 47L21 47L21 49L19 49L19 50L20 50L20 51L16 51L16 53L15 53L15 54L16 54L16 53L17 53L17 52L20 52L20 51L21 51L21 49L23 49L23 48L24 48L24 49L25 49L25 48L27 48L27 47L28 47L28 48L30 48L30 47L29 47L29 45L30 45L30 46L31 46L31 45L32 45L32 46L35 46L35 48L36 48L36 46L37 46L37 45L34 45L34 43L35 43L35 44L36 44L36 43L37 43L37 42L35 42L35 40L38 40L38 42L39 42L39 43L41 43L41 44L39 44L39 45L38 45L38 46L39 46L39 47L38 47L38 48L37 48L37 49L38 49L38 50L36 50L36 49L34 49L34 48L33 48L33 47L31 47L31 48L32 48L32 49L31 49L31 53L30 53L30 54L27 54L27 53L24 53L24 54L23 54L23 55L24 55L24 56L26 56L26 55L27 55L27 56L29 56L29 55L30 55L30 56L31 56L31 54L32 54L32 53L33 53L33 54L34 54L34 55L35 55L35 56L36 56L36 54L35 54L35 53L33 53L33 52L32 52L32 49L33 49L33 51L35 51L35 50L36 50L36 52L38 52L38 53L37 53L37 54L40 54L40 53L41 53L41 52L42 52L42 53L43 53L43 54L44 54L44 55L46 55L46 54L48 54L48 50L47 50L47 49L48 49L48 48L49 48L49 47L51 47L51 48L53 48L53 49L54 49L54 48L53 48L53 47L51 47L51 46L53 46L53 45L52 45L52 44L53 44L53 43L54 43L54 42L53 42L53 41L54 41L54 40L53 40L53 41L51 41L51 42L50 42L50 43L48 43L48 44L47 44L47 45L45 45L45 44L46 44L46 42L48 42L48 41L49 41L49 39L51 39L51 38L52 38L52 39L53 39L53 35L55 35L55 36L56 36L56 35L55 35L55 34L54 34L54 33L52 33L52 32L53 32L53 31L55 31L55 28L54 28L54 29L53 29L53 31L52 31L52 32L51 32L51 31L48 31L48 27L47 27L47 24L46 24L46 22L47 22L47 23L48 23L48 24L50 24L50 26L51 26L51 25L55 25L55 24L53 24L53 23L50 23L50 22L51 22L51 21L49 21L49 20L48 20L48 21L49 21L49 22L47 22L47 20L46 20L46 18L47 18L47 19L48 19L48 18L47 18L47 17L46 17L46 18L45 18L45 16L47 16L47 15L44 15L44 13L45 13L45 14L47 14L47 13L49 13L49 12L50 12L50 14L49 14L49 15L48 15L48 16L49 16L49 17L50 17L50 18L49 18L49 19L50 19L50 18L51 18L51 19L52 19L52 18L55 18L55 17L53 17L53 15L50 15L50 14L51 14L51 12L50 12L50 11L49 11L49 10L48 10L48 11L49 11L49 12L45 12L45 11L44 11L44 9L45 9L45 10L47 10L47 9L45 9L45 7L46 7L46 6L45 6L45 4L46 4L46 5L47 5L47 3L44 3L44 6L43 6L43 8L42 8L42 9L43 9L43 11L42 11L42 10L41 10L41 7L42 7L42 6L41 6L41 5L40 5L40 6L39 6L39 8L38 8L38 10L37 10L37 9L35 9L35 8L34 8L34 9L33 9L33 7L34 7L34 5L35 5L35 3ZM15 4L15 5L16 5L16 4ZM25 4L25 8L26 8L26 4ZM32 4L32 5L33 5L33 4ZM36 4L36 5L37 5L37 4ZM27 5L27 8L30 8L30 5ZM13 6L13 7L14 7L14 6ZM28 6L28 7L29 7L29 6ZM32 6L32 7L33 7L33 6ZM40 6L40 7L41 7L41 6ZM44 6L44 7L45 7L45 6ZM48 6L48 7L49 7L49 6ZM10 8L10 9L11 9L11 8ZM16 8L16 9L18 9L18 11L17 11L17 10L16 10L16 11L17 11L17 12L16 12L16 13L15 13L15 14L13 14L13 15L14 15L14 16L13 16L13 17L11 17L11 18L13 18L13 17L14 17L14 16L16 16L16 17L15 17L15 18L16 18L16 19L17 19L17 18L16 18L16 17L18 17L18 18L20 18L20 17L22 17L22 18L24 18L24 19L21 19L21 20L24 20L24 21L23 21L23 22L22 22L22 23L23 23L23 24L24 24L24 25L22 25L22 24L20 24L20 25L19 25L19 23L20 23L20 22L17 22L17 21L20 21L20 20L17 20L17 21L16 21L16 20L15 20L15 21L16 21L16 22L15 22L15 23L14 23L14 24L12 24L12 25L13 25L13 26L14 26L14 28L15 28L15 27L16 27L16 26L14 26L14 24L15 24L15 25L17 25L17 27L18 27L18 26L20 26L20 28L21 28L21 29L22 29L22 28L21 28L21 27L22 27L22 26L23 26L23 27L24 27L24 28L23 28L23 30L25 30L25 31L26 31L26 32L27 32L27 31L28 31L28 33L29 33L29 34L30 34L30 36L29 36L29 37L31 37L31 38L29 38L29 39L33 39L33 40L35 40L35 39L38 39L38 40L42 40L42 41L41 41L41 43L42 43L42 44L41 44L41 46L40 46L40 47L39 47L39 48L38 48L38 49L39 49L39 48L41 48L41 50L38 50L38 52L39 52L39 51L40 51L40 52L41 52L41 50L42 50L42 52L43 52L43 53L44 53L44 54L46 54L46 53L47 53L47 50L45 50L45 49L44 49L44 48L45 48L45 47L47 47L47 48L46 48L46 49L47 49L47 48L48 48L48 47L49 47L49 46L48 46L48 45L49 45L49 44L48 44L48 45L47 45L47 46L45 46L45 45L44 45L44 43L45 43L45 42L44 42L44 43L43 43L43 41L44 41L44 40L47 40L47 39L49 39L49 38L51 38L51 37L52 37L52 35L53 35L53 34L52 34L52 33L51 33L51 32L50 32L50 34L48 34L48 35L50 35L50 37L49 37L49 38L47 38L47 39L46 39L46 38L45 38L45 37L44 37L44 36L47 36L47 35L44 35L44 36L43 36L43 35L42 35L42 34L45 34L45 33L46 33L46 31L47 31L47 32L48 32L48 33L49 33L49 32L48 32L48 31L47 31L47 30L46 30L46 29L47 29L47 27L46 27L46 28L45 28L45 26L44 26L44 20L45 20L45 18L44 18L44 15L42 15L42 16L41 16L41 15L39 15L39 14L38 14L38 13L40 13L40 12L41 12L41 10L40 10L40 9L39 9L39 10L38 10L38 11L37 11L37 10L36 10L36 11L35 11L35 13L36 13L36 14L32 14L32 12L33 12L33 13L34 13L34 12L33 12L33 10L32 10L32 12L31 12L31 13L30 13L30 14L29 14L29 13L28 13L28 14L29 14L29 16L28 16L28 15L27 15L27 16L28 16L28 17L27 17L27 18L28 18L28 19L27 19L27 20L28 20L28 19L30 19L30 18L31 18L31 20L30 20L30 21L25 21L25 20L26 20L26 18L25 18L25 17L26 17L26 15L23 15L23 14L22 14L22 13L21 13L21 15L20 15L20 13L19 13L19 10L20 10L20 9L19 9L19 8ZM43 8L43 9L44 9L44 8ZM51 8L51 9L52 9L52 8ZM53 8L53 9L54 9L54 8ZM21 9L21 10L22 10L22 9ZM1 10L1 11L3 11L3 10ZM39 10L39 12L40 12L40 10ZM13 11L13 12L14 12L14 11ZM43 11L43 13L41 13L41 14L43 14L43 13L44 13L44 11ZM1 12L1 13L2 13L2 12ZM17 12L17 13L16 13L16 16L17 16L17 15L18 15L18 16L19 16L19 17L20 17L20 16L19 16L19 15L18 15L18 14L17 14L17 13L18 13L18 12ZM52 12L52 13L53 13L53 14L54 14L54 15L55 15L55 14L56 14L56 13L55 13L55 12L54 12L54 13L53 13L53 12ZM6 13L6 14L7 14L7 13ZM54 13L54 14L55 14L55 13ZM30 14L30 15L32 15L32 14ZM37 14L37 15L35 15L35 16L31 16L31 18L32 18L32 19L33 19L33 18L35 18L35 19L36 19L36 20L37 20L37 19L39 19L39 17L41 17L41 16L39 16L39 15L38 15L38 14ZM0 15L0 17L1 17L1 15ZM21 15L21 16L22 16L22 17L25 17L25 16L23 16L23 15ZM49 15L49 16L50 16L50 15ZM35 16L35 17L37 17L37 18L38 18L38 17L39 17L39 16L38 16L38 17L37 17L37 16ZM42 16L42 17L43 17L43 16ZM8 18L8 19L6 19L6 20L9 20L9 18ZM41 18L41 19L42 19L42 18ZM43 18L43 20L44 20L44 18ZM12 19L12 20L14 20L14 19ZM32 20L32 21L31 21L31 23L30 23L30 22L29 22L29 23L27 23L27 24L25 24L25 23L26 23L26 22L25 22L25 21L24 21L24 22L23 22L23 23L24 23L24 24L25 24L25 25L26 25L26 26L24 26L24 27L26 27L26 26L27 26L27 25L28 25L28 26L29 26L29 25L30 25L30 24L32 24L32 26L31 26L31 27L32 27L32 29L31 29L31 31L29 31L29 33L31 33L31 32L32 32L32 35L33 35L33 36L32 36L32 37L33 37L33 38L35 38L35 36L37 36L37 37L38 37L38 39L41 39L41 38L42 38L42 39L43 39L43 40L44 40L44 39L45 39L45 38L44 38L44 37L43 37L43 38L42 38L42 37L41 37L41 36L40 36L40 37L39 37L39 35L40 35L40 34L39 34L39 33L41 33L41 32L43 32L43 33L45 33L45 32L43 32L43 30L41 30L41 29L43 29L43 26L42 26L42 25L41 25L41 24L38 24L38 23L40 23L40 22L39 22L39 21L42 21L42 20L38 20L38 22L37 22L37 24L38 24L38 26L37 26L37 25L33 25L33 24L32 24L32 23L33 23L33 22L34 22L34 23L35 23L35 21L33 21L33 20ZM13 21L13 22L14 22L14 21ZM15 23L15 24L16 24L16 23ZM17 23L17 24L18 24L18 23ZM20 25L20 26L22 26L22 25ZM39 25L39 27L36 27L36 26L34 26L34 27L33 27L33 26L32 26L32 27L33 27L33 28L35 28L35 30L33 30L33 31L32 31L32 32L33 32L33 33L34 33L34 32L33 32L33 31L36 31L36 30L37 30L37 29L38 29L38 28L39 28L39 27L41 27L41 28L42 28L42 26L40 26L40 25ZM53 26L53 27L54 27L54 26ZM5 27L5 30L8 30L8 27ZM27 27L27 30L30 30L30 27ZM35 27L35 28L36 28L36 27ZM49 27L49 30L52 30L52 27ZM1 28L1 29L2 29L2 30L1 30L1 32L2 32L2 30L3 30L3 29L4 29L4 28L3 28L3 29L2 29L2 28ZM6 28L6 29L7 29L7 28ZM10 28L10 29L9 29L9 30L11 30L11 28ZM16 28L16 29L15 29L15 31L16 31L16 29L18 29L18 30L17 30L17 31L20 31L20 29L18 29L18 28ZM25 28L25 29L26 29L26 28ZM28 28L28 29L29 29L29 28ZM44 28L44 31L45 31L45 28ZM50 28L50 29L51 29L51 28ZM13 29L13 30L14 30L14 29ZM38 30L38 32L39 32L39 30ZM40 30L40 31L41 31L41 30ZM21 31L21 32L23 32L23 31ZM6 32L6 33L7 33L7 32ZM35 32L35 34L33 34L33 35L34 35L34 36L35 36L35 34L37 34L37 36L38 36L38 33L37 33L37 32ZM21 33L21 35L20 35L20 36L21 36L21 35L23 35L23 34L24 34L24 36L23 36L23 37L19 37L19 35L18 35L18 36L17 36L17 35L16 35L16 34L14 34L14 35L12 35L12 34L10 34L10 35L11 35L11 37L8 37L8 36L6 36L6 37L7 37L7 38L6 38L6 39L7 39L7 40L4 40L4 41L5 41L5 42L4 42L4 43L5 43L5 42L6 42L6 43L7 43L7 42L8 42L8 41L9 41L9 40L8 40L8 39L10 39L10 38L11 38L11 37L12 37L12 41L13 41L13 42L14 42L14 41L15 41L15 40L16 40L16 39L15 39L15 38L16 38L16 37L15 37L15 38L14 38L14 35L15 35L15 36L17 36L17 38L20 38L20 39L17 39L17 40L18 40L18 41L17 41L17 42L18 42L18 41L19 41L19 42L20 42L20 40L23 40L23 41L24 41L24 40L25 40L25 39L26 39L26 40L28 40L28 41L29 41L29 42L27 42L27 41L26 41L26 42L27 42L27 43L28 43L28 44L27 44L27 45L26 45L26 47L27 47L27 45L29 45L29 44L33 44L33 43L34 43L34 42L33 42L33 41L32 41L32 40L31 40L31 41L32 41L32 42L30 42L30 41L29 41L29 40L28 40L28 39L26 39L26 38L28 38L28 37L27 37L27 33L26 33L26 35L25 35L25 33L23 33L23 34L22 34L22 33ZM50 34L50 35L52 35L52 34ZM12 36L12 37L13 37L13 36ZM25 36L25 38L26 38L26 36ZM4 37L4 38L5 38L5 37ZM23 37L23 38L22 38L22 39L23 39L23 40L24 40L24 39L23 39L23 38L24 38L24 37ZM40 37L40 38L41 38L41 37ZM54 37L54 38L55 38L55 37ZM14 39L14 40L15 40L15 39ZM7 40L7 41L6 41L6 42L7 42L7 41L8 41L8 40ZM10 40L10 41L11 41L11 40ZM39 41L39 42L40 42L40 41ZM32 42L32 43L33 43L33 42ZM51 42L51 43L50 43L50 46L51 46L51 43L53 43L53 42ZM54 44L54 45L55 45L55 46L56 46L56 45L55 45L55 44ZM5 45L5 46L3 46L3 47L5 47L5 46L7 46L7 45ZM21 45L21 47L23 47L23 46L22 46L22 45ZM43 45L43 46L41 46L41 48L42 48L42 49L43 49L43 50L44 50L44 49L43 49L43 48L44 48L44 47L45 47L45 46L44 46L44 45ZM1 46L1 47L2 47L2 46ZM47 46L47 47L48 47L48 46ZM15 47L15 49L16 49L16 47ZM42 47L42 48L43 48L43 47ZM6 48L6 49L7 49L7 48ZM27 49L27 52L30 52L30 49ZM49 49L49 52L52 52L52 49ZM12 50L12 51L13 51L13 50ZM28 50L28 51L29 51L29 50ZM50 50L50 51L51 51L51 50ZM54 50L54 51L55 51L55 50ZM45 51L45 52L44 52L44 53L45 53L45 52L46 52L46 51ZM17 54L17 55L18 55L18 54ZM37 55L37 56L39 56L39 55ZM50 55L50 56L51 56L51 55ZM53 55L53 56L55 56L55 57L56 57L56 56L55 56L55 55ZM11 56L11 57L12 57L12 56ZM20 56L20 57L21 57L21 56ZM0 0L0 7L7 7L7 0ZM1 1L1 6L6 6L6 1ZM2 2L2 5L5 5L5 2ZM50 0L50 7L57 7L57 0ZM51 1L51 6L56 6L56 1ZM52 2L52 5L55 5L55 2ZM0 50L0 57L7 57L7 50ZM1 51L1 56L6 56L6 51ZM2 52L2 55L5 55L5 52Z" fill="#000000"/></g></g></svg>
