<?xml version="1.0" encoding="UTF-8"?>
<svg xmlns="http://www.w3.org/2000/svg" version="1.1" width="300" height="300" viewBox="0 0 300 300"><rect x="0" y="0" width="300" height="300" fill="#fefefe"/><g transform="scale(4.615)"><g transform="translate(4,4)"><path fill-rule="evenodd" d="M8 0L8 4L9 4L9 3L10 3L10 5L8 5L8 7L9 7L9 8L10 8L10 11L9 11L9 10L8 10L8 9L7 9L7 8L4 8L4 9L2 9L2 8L0 8L0 9L1 9L1 10L3 10L3 11L0 11L0 13L1 13L1 14L0 14L0 20L2 20L2 21L1 21L1 22L2 22L2 21L3 21L3 22L4 22L4 24L3 24L3 23L1 23L1 24L0 24L0 28L1 28L1 29L0 29L0 31L1 31L1 32L3 32L3 33L5 33L5 34L6 34L6 35L5 35L5 36L4 36L4 35L2 35L2 36L1 36L1 37L0 37L0 40L1 40L1 41L0 41L0 42L1 42L1 43L0 43L0 44L3 44L3 45L1 45L1 46L0 46L0 48L5 48L5 47L7 47L7 48L6 48L6 49L7 49L7 48L9 48L9 49L8 49L8 50L10 50L10 48L11 48L11 47L12 47L12 49L11 49L11 50L12 50L12 49L13 49L13 51L15 51L15 50L16 50L16 52L17 52L17 53L15 53L15 52L14 52L14 53L13 53L13 55L12 55L12 56L11 56L11 55L10 55L10 53L11 53L11 54L12 54L12 52L11 52L11 51L8 51L8 53L9 53L9 55L8 55L8 57L10 57L10 56L11 56L11 57L12 57L12 56L14 56L14 57L15 57L15 56L14 56L14 53L15 53L15 55L16 55L16 54L19 54L19 55L20 55L20 54L21 54L21 53L22 53L22 52L21 52L21 51L23 51L23 52L24 52L24 53L23 53L23 55L22 55L22 56L20 56L20 57L22 57L22 56L23 56L23 55L24 55L24 56L25 56L25 54L26 54L26 57L27 57L27 53L28 53L28 57L29 57L29 55L30 55L30 57L34 57L34 55L35 55L35 57L37 57L37 56L36 56L36 54L37 54L37 55L40 55L40 54L41 54L41 55L42 55L42 56L43 56L43 55L44 55L44 57L45 57L45 56L46 56L46 57L47 57L47 56L46 56L46 55L44 55L44 53L46 53L46 52L45 52L45 51L47 51L47 52L48 52L48 54L49 54L49 55L48 55L48 56L49 56L49 57L50 57L50 55L51 55L51 56L53 56L53 57L54 57L54 56L53 56L53 54L57 54L57 51L56 51L56 50L57 50L57 49L56 49L56 44L57 44L57 43L56 43L56 42L57 42L57 40L53 40L53 39L57 39L57 38L53 38L53 39L52 39L52 41L51 41L51 43L50 43L50 42L49 42L49 41L48 41L48 42L49 42L49 43L48 43L48 45L50 45L50 46L52 46L52 47L48 47L48 46L47 46L47 47L46 47L46 45L47 45L47 44L46 44L46 45L45 45L45 44L44 44L44 42L45 42L45 43L46 43L46 40L45 40L45 39L47 39L47 40L49 40L49 39L50 39L50 40L51 40L51 39L50 39L50 37L51 37L51 38L52 38L52 36L53 36L53 37L55 37L55 36L53 36L53 35L56 35L56 30L55 30L55 29L56 29L56 28L57 28L57 27L56 27L56 25L57 25L57 24L56 24L56 20L55 20L55 22L53 22L53 21L52 21L52 20L53 20L53 19L52 19L52 18L53 18L53 17L55 17L55 16L56 16L56 18L55 18L55 19L56 19L56 18L57 18L57 15L56 15L56 10L57 10L57 8L53 8L53 9L52 9L52 8L51 8L51 9L50 9L50 10L51 10L51 11L50 11L50 15L48 15L48 16L47 16L47 15L46 15L46 9L47 9L47 12L48 12L48 10L49 10L49 8L47 8L47 5L48 5L48 0L46 0L46 1L47 1L47 2L45 2L45 0L41 0L41 1L40 1L40 2L39 2L39 3L40 3L40 4L38 4L38 5L36 5L36 4L35 4L35 2L36 2L36 3L37 3L37 2L38 2L38 1L39 1L39 0L38 0L38 1L37 1L37 2L36 2L36 0L35 0L35 1L34 1L34 0L29 0L29 1L28 1L28 2L29 2L29 3L28 3L28 4L26 4L26 3L25 3L25 2L26 2L26 1L27 1L27 0L26 0L26 1L25 1L25 0L23 0L23 2L22 2L22 1L21 1L21 0L20 0L20 1L19 1L19 3L20 3L20 2L22 2L22 4L21 4L21 6L20 6L20 5L19 5L19 4L17 4L17 2L18 2L18 1L17 1L17 2L16 2L16 4L17 4L17 6L16 6L16 5L15 5L15 4L14 4L14 1L16 1L16 0L14 0L14 1L13 1L13 0L12 0L12 1L11 1L11 0L10 0L10 1L9 1L9 0ZM10 1L10 3L12 3L12 4L11 4L11 7L10 7L10 6L9 6L9 7L10 7L10 8L12 8L12 9L14 9L14 8L15 8L15 9L16 9L16 11L15 11L15 12L14 12L14 11L13 11L13 10L11 10L11 11L13 11L13 13L15 13L15 14L17 14L17 15L18 15L18 14L17 14L17 13L18 13L18 12L21 12L21 11L22 11L22 12L24 12L24 10L23 10L23 8L22 8L22 9L21 9L21 10L20 10L20 9L16 9L16 8L15 8L15 7L16 7L16 6L15 6L15 5L13 5L13 2L11 2L11 1ZM29 1L29 2L30 2L30 1ZM33 1L33 2L34 2L34 1ZM31 2L31 3L32 3L32 5L35 5L35 7L34 7L34 6L33 6L33 7L32 7L32 6L31 6L31 10L29 10L29 11L28 11L28 9L26 9L26 6L25 6L25 7L24 7L24 6L23 6L23 5L24 5L24 4L25 4L25 3L23 3L23 5L22 5L22 6L21 6L21 7L22 7L22 6L23 6L23 7L24 7L24 8L25 8L25 10L27 10L27 11L26 11L26 13L29 13L29 16L31 16L31 15L30 15L30 13L31 13L31 14L32 14L32 12L29 12L29 11L32 11L32 8L33 8L33 9L34 9L34 10L33 10L33 13L34 13L34 18L37 18L37 19L39 19L39 18L40 18L40 21L39 21L39 20L38 20L38 21L37 21L37 22L35 22L35 20L36 20L36 19L35 19L35 20L33 20L33 21L34 21L34 22L35 22L35 23L34 23L34 24L33 24L33 25L34 25L34 26L33 26L33 27L32 27L32 23L33 23L33 22L31 22L31 24L28 24L28 23L30 23L30 21L29 21L29 20L30 20L30 18L28 18L28 17L27 17L27 15L28 15L28 14L26 14L26 17L25 17L25 15L24 15L24 14L23 14L23 13L21 13L21 14L20 14L20 13L19 13L19 15L20 15L20 17L16 17L16 18L19 18L19 19L18 19L18 20L19 20L19 21L18 21L18 22L19 22L19 21L20 21L20 19L21 19L21 18L20 18L20 17L25 17L25 18L24 18L24 19L23 19L23 20L21 20L21 21L24 21L24 22L25 22L25 23L26 23L26 22L28 22L28 23L27 23L27 24L28 24L28 25L27 25L27 26L28 26L28 25L31 25L31 29L32 29L32 28L33 28L33 27L34 27L34 31L32 31L32 30L31 30L31 31L32 31L32 32L29 32L29 33L28 33L28 34L27 34L27 35L26 35L26 36L28 36L28 37L26 37L26 38L27 38L27 39L28 39L28 38L29 38L29 39L31 39L31 41L30 41L30 40L29 40L29 41L28 41L28 42L27 42L27 41L26 41L26 42L24 42L24 43L23 43L23 41L25 41L25 40L26 40L26 39L25 39L25 38L24 38L24 37L23 37L23 35L20 35L20 33L21 33L21 34L23 34L23 33L26 33L26 31L25 31L25 30L26 30L26 29L25 29L25 30L24 30L24 31L22 31L22 30L23 30L23 28L22 28L22 27L21 27L21 29L22 29L22 30L21 30L21 31L22 31L22 33L21 33L21 32L20 32L20 29L19 29L19 28L20 28L20 27L19 27L19 28L18 28L18 29L14 29L14 27L13 27L13 29L9 29L9 30L11 30L11 31L9 31L9 32L8 32L8 31L3 31L3 30L1 30L1 31L3 31L3 32L7 32L7 33L6 33L6 34L7 34L7 35L6 35L6 36L7 36L7 37L5 37L5 38L7 38L7 37L8 37L8 38L10 38L10 37L12 37L12 38L11 38L11 39L10 39L10 40L9 40L9 41L6 41L6 40L8 40L8 39L6 39L6 40L5 40L5 41L3 41L3 40L2 40L2 39L4 39L4 38L3 38L3 37L4 37L4 36L3 36L3 37L2 37L2 38L1 38L1 40L2 40L2 41L3 41L3 44L4 44L4 42L5 42L5 43L6 43L6 44L7 44L7 45L6 45L6 46L7 46L7 45L8 45L8 46L9 46L9 44L12 44L12 45L10 45L10 46L14 46L14 47L13 47L13 48L14 48L14 49L16 49L16 50L17 50L17 52L18 52L18 51L19 51L19 53L20 53L20 49L17 49L17 45L18 45L18 44L19 44L19 46L18 46L18 48L19 48L19 46L20 46L20 44L21 44L21 43L22 43L22 44L23 44L23 45L21 45L21 46L22 46L22 47L20 47L20 48L22 48L22 49L21 49L21 50L22 50L22 49L23 49L23 48L22 48L22 47L23 47L23 45L24 45L24 44L25 44L25 43L27 43L27 45L26 45L26 46L25 46L25 47L24 47L24 49L26 49L26 48L27 48L27 47L28 47L28 46L29 46L29 47L30 47L30 48L31 48L31 47L32 47L32 44L30 44L30 45L31 45L31 46L29 46L29 43L31 43L31 41L32 41L32 43L33 43L33 44L37 44L37 46L35 46L35 45L34 45L34 48L33 48L33 49L32 49L32 51L31 51L31 52L32 52L32 51L33 51L33 49L34 49L34 50L35 50L35 51L34 51L34 52L33 52L33 53L32 53L32 54L33 54L33 53L34 53L34 54L35 54L35 53L34 53L34 52L36 52L36 49L35 49L35 47L36 47L36 48L37 48L37 46L38 46L38 45L39 45L39 47L38 47L38 49L37 49L37 53L38 53L38 52L40 52L40 53L41 53L41 52L42 52L42 53L44 53L44 52L43 52L43 51L44 51L44 50L42 50L42 51L41 51L41 46L40 46L40 45L41 45L41 44L40 44L40 43L41 43L41 42L40 42L40 41L41 41L41 40L40 40L40 41L39 41L39 42L40 42L40 43L39 43L39 44L37 44L37 43L33 43L33 41L32 41L32 40L33 40L33 39L31 39L31 38L33 38L33 37L32 37L32 36L31 36L31 35L33 35L33 36L34 36L34 42L35 42L35 39L37 39L37 42L38 42L38 39L40 39L40 38L38 38L38 37L41 37L41 35L42 35L42 36L43 36L43 37L44 37L44 38L43 38L43 41L44 41L44 39L45 39L45 37L46 37L46 38L47 38L47 39L48 39L48 38L49 38L49 36L50 36L50 35L53 35L53 34L54 34L54 33L51 33L51 32L52 32L52 31L50 31L50 35L49 35L49 33L48 33L48 31L47 31L47 30L48 30L48 29L46 29L46 28L47 28L47 27L45 27L45 30L44 30L44 28L42 28L42 26L41 26L41 23L43 23L43 27L44 27L44 26L45 26L45 25L46 25L46 26L48 26L48 25L49 25L49 26L50 26L50 24L51 24L51 23L50 23L50 22L49 22L49 23L50 23L50 24L48 24L48 25L47 25L47 21L48 21L48 19L49 19L49 18L50 18L50 19L51 19L51 18L52 18L52 17L53 17L53 16L55 16L55 15L53 15L53 14L54 14L54 13L55 13L55 10L56 10L56 9L53 9L53 10L54 10L54 11L52 11L52 12L51 12L51 14L52 14L52 15L53 15L53 16L52 16L52 17L51 17L51 15L50 15L50 16L49 16L49 18L47 18L47 16L46 16L46 17L45 17L45 19L46 19L46 20L47 20L47 21L45 21L45 22L44 22L44 16L45 16L45 15L44 15L44 12L45 12L45 11L43 11L43 10L44 10L44 8L45 8L45 9L46 9L46 8L45 8L45 7L46 7L46 5L47 5L47 3L44 3L44 2L43 2L43 3L42 3L42 2L40 2L40 3L41 3L41 4L43 4L43 5L39 5L39 7L40 7L40 6L41 6L41 8L40 8L40 9L39 9L39 10L41 10L41 9L42 9L42 8L43 8L43 10L42 10L42 11L43 11L43 12L41 12L41 11L39 11L39 12L37 12L37 11L38 11L38 8L37 8L37 9L35 9L35 7L36 7L36 5L35 5L35 4L34 4L34 3L32 3L32 2ZM43 3L43 4L44 4L44 7L45 7L45 5L46 5L46 4L44 4L44 3ZM18 5L18 6L17 6L17 7L18 7L18 6L19 6L19 7L20 7L20 6L19 6L19 5ZM27 5L27 8L30 8L30 5ZM12 6L12 8L13 8L13 6ZM14 6L14 7L15 7L15 6ZM28 6L28 7L29 7L29 6ZM37 6L37 7L38 7L38 6ZM42 6L42 7L43 7L43 6ZM48 6L48 7L49 7L49 6ZM33 7L33 8L34 8L34 7ZM4 9L4 11L3 11L3 12L1 12L1 13L3 13L3 12L4 12L4 14L2 14L2 16L1 16L1 17L3 17L3 19L4 19L4 22L7 22L7 23L5 23L5 24L4 24L4 26L5 26L5 24L7 24L7 25L6 25L6 26L7 26L7 25L9 25L9 23L11 23L11 25L10 25L10 26L9 26L9 27L11 27L11 26L12 26L12 25L13 25L13 26L15 26L15 28L16 28L16 27L18 27L18 25L17 25L17 22L16 22L16 23L15 23L15 22L14 22L14 21L13 21L13 19L14 19L14 20L15 20L15 21L17 21L17 20L16 20L16 19L15 19L15 17L14 17L14 15L13 15L13 14L12 14L12 13L11 13L11 12L9 12L9 11L8 11L8 10L7 10L7 9ZM51 9L51 10L52 10L52 9ZM6 10L6 11L4 11L4 12L5 12L5 14L4 14L4 15L3 15L3 16L4 16L4 15L7 15L7 16L6 16L6 17L5 17L5 18L4 18L4 19L5 19L5 20L6 20L6 21L8 21L8 19L9 19L9 20L12 20L12 18L13 18L13 15L12 15L12 18L11 18L11 15L10 15L10 14L9 14L9 13L8 13L8 15L7 15L7 14L6 14L6 13L7 13L7 12L6 12L6 11L7 11L7 10ZM17 10L17 11L18 11L18 10ZM19 10L19 11L20 11L20 10ZM34 10L34 12L35 12L35 14L36 14L36 13L37 13L37 12L35 12L35 11L36 11L36 10ZM27 11L27 12L28 12L28 11ZM15 12L15 13L17 13L17 12ZM53 12L53 13L52 13L52 14L53 14L53 13L54 13L54 12ZM38 13L38 15L39 15L39 17L38 17L38 16L37 16L37 15L35 15L35 17L38 17L38 18L39 18L39 17L40 17L40 18L41 18L41 20L43 20L43 19L42 19L42 18L43 18L43 17L42 17L42 15L43 15L43 16L44 16L44 15L43 15L43 13ZM47 13L47 14L49 14L49 13ZM21 14L21 15L22 15L22 16L24 16L24 15L22 15L22 14ZM39 14L39 15L40 15L40 17L41 17L41 15L40 15L40 14ZM9 15L9 16L8 16L8 18L9 18L9 19L10 19L10 15ZM6 17L6 18L7 18L7 17ZM31 17L31 19L33 19L33 17ZM50 17L50 18L51 18L51 17ZM6 19L6 20L7 20L7 19ZM25 19L25 20L24 20L24 21L25 21L25 20L26 20L26 21L28 21L28 22L29 22L29 21L28 21L28 19L27 19L27 20L26 20L26 19ZM31 20L31 21L32 21L32 20ZM49 20L49 21L51 21L51 22L52 22L52 25L51 25L51 26L53 26L53 25L56 25L56 24L55 24L55 23L53 23L53 22L52 22L52 21L51 21L51 20ZM10 21L10 22L12 22L12 24L13 24L13 25L14 25L14 24L15 24L15 23L13 23L13 21ZM38 21L38 22L37 22L37 23L38 23L38 26L40 26L40 27L37 27L37 26L36 26L36 27L37 27L37 28L35 28L35 29L37 29L37 30L35 30L35 32L34 32L34 33L33 33L33 32L32 32L32 33L29 33L29 34L28 34L28 36L29 36L29 37L31 37L31 36L30 36L30 34L33 34L33 35L35 35L35 38L37 38L37 39L38 39L38 38L37 38L37 37L38 37L38 36L40 36L40 35L38 35L38 34L39 34L39 33L40 33L40 34L42 34L42 35L43 35L43 33L45 33L45 35L44 35L44 37L45 37L45 35L46 35L46 36L47 36L47 35L48 35L48 36L49 36L49 35L48 35L48 34L47 34L47 35L46 35L46 32L47 32L47 31L46 31L46 30L45 30L45 31L43 31L43 29L41 29L41 30L40 30L40 32L39 32L39 29L40 29L40 27L41 27L41 26L40 26L40 25L39 25L39 21ZM40 21L40 22L43 22L43 23L44 23L44 22L43 22L43 21ZM20 22L20 23L19 23L19 25L21 25L21 26L22 26L22 25L24 25L24 23L23 23L23 22L22 22L22 25L21 25L21 22ZM7 23L7 24L8 24L8 23ZM45 23L45 24L44 24L44 25L45 25L45 24L46 24L46 23ZM1 24L1 27L2 27L2 28L3 28L3 29L4 29L4 28L3 28L3 25L2 25L2 24ZM34 24L34 25L37 25L37 24ZM15 25L15 26L16 26L16 25ZM25 25L25 26L24 26L24 27L26 27L26 25ZM54 26L54 27L53 27L53 28L54 28L54 29L55 29L55 28L56 28L56 27L55 27L55 26ZM5 27L5 30L8 30L8 27ZM27 27L27 30L30 30L30 27ZM49 27L49 30L52 30L52 27ZM6 28L6 29L7 29L7 28ZM28 28L28 29L29 29L29 28ZM37 28L37 29L38 29L38 28ZM50 28L50 29L51 29L51 28ZM13 29L13 30L12 30L12 31L13 31L13 32L14 32L14 33L15 33L15 34L14 34L14 35L16 35L16 36L15 36L15 37L14 37L14 38L12 38L12 39L11 39L11 40L10 40L10 42L8 42L8 44L9 44L9 43L10 43L10 42L11 42L11 43L14 43L14 44L13 44L13 45L14 45L14 44L15 44L15 47L14 47L14 48L16 48L16 45L17 45L17 44L15 44L15 43L16 43L16 41L15 41L15 40L17 40L17 38L16 38L16 39L14 39L14 38L15 38L15 37L16 37L16 36L17 36L17 37L18 37L18 38L19 38L19 37L22 37L22 38L20 38L20 39L19 39L19 40L18 40L18 41L17 41L17 43L18 43L18 41L20 41L20 42L21 42L21 41L22 41L22 40L21 40L21 39L22 39L22 38L23 38L23 37L22 37L22 36L18 36L18 33L20 33L20 32L19 32L19 31L18 31L18 30L19 30L19 29L18 29L18 30L17 30L17 31L18 31L18 33L17 33L17 32L16 32L16 30L15 30L15 31L14 31L14 29ZM37 30L37 32L38 32L38 30ZM53 30L53 32L55 32L55 31L54 31L54 30ZM24 31L24 32L25 32L25 31ZM27 31L27 32L28 32L28 31ZM10 32L10 34L9 34L9 35L10 35L10 34L12 34L12 32ZM15 32L15 33L16 33L16 35L17 35L17 33L16 33L16 32ZM40 32L40 33L41 33L41 32ZM0 33L0 34L2 34L2 33ZM7 33L7 34L8 34L8 33ZM34 33L34 34L35 34L35 33ZM37 33L37 34L38 34L38 33ZM24 34L24 36L25 36L25 34ZM12 35L12 36L13 36L13 35ZM37 35L37 36L38 36L38 35ZM56 36L56 37L57 37L57 36ZM41 38L41 39L42 39L42 38ZM23 39L23 40L24 40L24 39ZM20 40L20 41L21 41L21 40ZM5 41L5 42L6 42L6 43L7 43L7 42L6 42L6 41ZM11 41L11 42L12 42L12 41ZM13 41L13 42L14 42L14 41ZM29 41L29 42L28 42L28 43L29 43L29 42L30 42L30 41ZM52 41L52 43L51 43L51 44L50 44L50 43L49 43L49 44L50 44L50 45L52 45L52 46L53 46L53 47L52 47L52 48L53 48L53 47L54 47L54 49L55 49L55 47L54 47L54 45L55 45L55 44L56 44L56 43L55 43L55 42L56 42L56 41L55 41L55 42L54 42L54 43L53 43L53 41ZM42 42L42 44L43 44L43 45L44 45L44 46L43 46L43 47L42 47L42 49L44 49L44 47L45 47L45 45L44 45L44 44L43 44L43 42ZM19 43L19 44L20 44L20 43ZM52 43L52 44L53 44L53 45L54 45L54 44L53 44L53 43ZM39 44L39 45L40 45L40 44ZM3 45L3 47L5 47L5 45ZM27 45L27 46L26 46L26 47L25 47L25 48L26 48L26 47L27 47L27 46L28 46L28 45ZM1 46L1 47L2 47L2 46ZM9 47L9 48L10 48L10 47ZM39 47L39 49L38 49L38 51L40 51L40 47ZM47 47L47 48L46 48L46 50L47 50L47 49L48 49L48 47ZM27 49L27 52L30 52L30 49ZM49 49L49 52L52 52L52 49ZM25 50L25 53L24 53L24 54L25 54L25 53L26 53L26 50ZM28 50L28 51L29 51L29 50ZM50 50L50 51L51 51L51 50ZM53 50L53 53L54 53L54 52L55 52L55 53L56 53L56 51L54 51L54 50ZM30 53L30 54L31 54L31 53ZM49 53L49 54L51 54L51 55L52 55L52 54L51 54L51 53ZM42 54L42 55L43 55L43 54ZM17 56L17 57L19 57L19 56ZM39 56L39 57L40 57L40 56ZM56 56L56 57L57 57L57 56ZM0 0L0 7L7 7L7 0ZM1 1L1 6L6 6L6 1ZM2 2L2 5L5 5L5 2ZM50 0L50 7L57 7L57 0ZM51 1L51 6L56 6L56 1ZM52 2L52 5L55 5L55 2ZM0 50L0 57L7 57L7 50ZM1 51L1 56L6 56L6 51ZM2 52L2 55L5 55L5 52Z" fill="#000000"/></g></g></svg>
