<?xml version="1.0" encoding="UTF-8"?>
<svg xmlns="http://www.w3.org/2000/svg" version="1.1" width="300" height="300" viewBox="0 0 300 300"><rect x="0" y="0" width="300" height="300" fill="#fefefe"/><g transform="scale(4.615)"><g transform="translate(4,4)"><path fill-rule="evenodd" d="M9 0L9 1L8 1L8 2L9 2L9 3L8 3L8 4L9 4L9 5L8 5L8 7L9 7L9 8L6 8L6 9L5 9L5 8L0 8L0 9L1 9L1 10L0 10L0 12L1 12L1 14L0 14L0 16L1 16L1 14L2 14L2 17L0 17L0 21L1 21L1 22L0 22L0 23L2 23L2 24L3 24L3 23L5 23L5 24L6 24L6 25L0 25L0 27L1 27L1 26L3 26L3 27L2 27L2 28L1 28L1 29L4 29L4 32L3 32L3 33L5 33L5 34L6 34L6 35L4 35L4 34L2 34L2 33L1 33L1 32L2 32L2 31L3 31L3 30L1 30L1 32L0 32L0 34L1 34L1 36L3 36L3 39L7 39L7 40L6 40L6 41L5 41L5 40L3 40L3 41L5 41L5 42L2 42L2 41L1 41L1 39L2 39L2 38L0 38L0 41L1 41L1 42L0 42L0 45L1 45L1 46L0 46L0 48L5 48L5 47L8 47L8 48L6 48L6 49L8 49L8 51L9 51L9 52L8 52L8 57L9 57L9 54L11 54L11 53L12 53L12 54L13 54L13 55L16 55L16 56L17 56L17 57L19 57L19 56L17 56L17 54L19 54L19 55L20 55L20 54L19 54L19 53L20 53L20 52L21 52L21 51L20 51L20 47L23 47L23 49L21 49L21 50L22 50L22 52L23 52L23 50L26 50L26 52L24 52L24 53L23 53L23 54L22 54L22 53L21 53L21 56L20 56L20 57L21 57L21 56L24 56L24 55L23 55L23 54L24 54L24 53L27 53L27 54L26 54L26 56L25 56L25 57L26 57L26 56L27 56L27 57L29 57L29 56L30 56L30 57L31 57L31 56L35 56L35 57L39 57L39 56L41 56L41 57L44 57L44 54L45 54L45 53L47 53L47 54L46 54L46 55L47 55L47 56L46 56L46 57L49 57L49 56L50 56L50 57L52 57L52 55L51 55L51 53L52 53L52 54L53 54L53 55L54 55L54 56L53 56L53 57L54 57L54 56L55 56L55 57L56 57L56 56L55 56L55 53L56 53L56 52L57 52L57 51L56 51L56 50L57 50L57 48L56 48L56 46L57 46L57 43L56 43L56 42L57 42L57 41L56 41L56 42L55 42L55 39L57 39L57 35L56 35L56 34L55 34L55 32L56 32L56 33L57 33L57 32L56 32L56 30L57 30L57 27L56 27L56 26L57 26L57 25L56 25L56 22L57 22L57 19L56 19L56 18L57 18L57 17L56 17L56 16L57 16L57 15L56 15L56 14L57 14L57 11L56 11L56 10L54 10L54 11L53 11L53 10L52 10L52 11L50 11L50 8L49 8L49 6L48 6L48 7L47 7L47 5L48 5L48 0L45 0L45 2L44 2L44 3L42 3L42 2L43 2L43 0L41 0L41 1L40 1L40 0L39 0L39 1L38 1L38 0L37 0L37 1L38 1L38 2L37 2L37 3L36 3L36 0L35 0L35 1L33 1L33 0L32 0L32 1L33 1L33 2L32 2L32 3L31 3L31 4L26 4L26 3L23 3L23 2L27 2L27 1L25 1L25 0L23 0L23 1L22 1L22 0L21 0L21 3L23 3L23 4L24 4L24 5L22 5L22 7L23 7L23 6L24 6L24 8L25 8L25 9L23 9L23 10L22 10L22 11L21 11L21 12L22 12L22 13L21 13L21 14L20 14L20 9L19 9L19 8L21 8L21 4L19 4L19 3L20 3L20 0L18 0L18 1L17 1L17 2L16 2L16 1L14 1L14 0ZM30 0L30 1L29 1L29 2L28 2L28 3L29 3L29 2L30 2L30 1L31 1L31 0ZM9 1L9 2L10 2L10 3L9 3L9 4L10 4L10 3L11 3L11 2L12 2L12 3L13 3L13 2L14 2L14 4L13 4L13 5L12 5L12 4L11 4L11 5L9 5L9 7L10 7L10 8L11 8L11 7L12 7L12 6L13 6L13 7L14 7L14 6L15 6L15 7L16 7L16 8L14 8L14 9L13 9L13 8L12 8L12 9L10 9L10 10L9 10L9 9L8 9L8 10L7 10L7 9L6 9L6 10L4 10L4 9L2 9L2 10L1 10L1 12L2 12L2 10L4 10L4 11L5 11L5 12L8 12L8 13L13 13L13 14L12 14L12 16L13 16L13 14L15 14L15 13L16 13L16 16L18 16L18 15L19 15L19 14L17 14L17 13L18 13L18 12L17 12L17 11L18 11L18 10L19 10L19 9L18 9L18 10L17 10L17 9L16 9L16 8L17 8L17 7L18 7L18 6L19 6L19 7L20 7L20 5L19 5L19 4L17 4L17 3L19 3L19 2L17 2L17 3L15 3L15 2L14 2L14 1L11 1L11 2L10 2L10 1ZM46 1L46 2L47 2L47 1ZM33 2L33 3L32 3L32 4L31 4L31 8L32 8L32 10L31 10L31 11L29 11L29 10L28 10L28 9L27 9L27 11L26 11L26 12L25 12L25 10L23 10L23 13L22 13L22 14L23 14L23 13L25 13L25 14L24 14L24 15L20 15L20 16L19 16L19 17L20 17L20 18L18 18L18 17L15 17L15 15L14 15L14 17L13 17L13 19L12 19L12 20L11 20L11 21L10 21L10 19L11 19L11 18L12 18L12 17L11 17L11 16L9 16L9 15L10 15L10 14L8 14L8 15L6 15L6 14L7 14L7 13L6 13L6 14L5 14L5 15L4 15L4 14L3 14L3 15L4 15L4 17L3 17L3 18L2 18L2 19L3 19L3 20L5 20L5 15L6 15L6 16L8 16L8 17L6 17L6 18L7 18L7 19L6 19L6 20L7 20L7 21L3 21L3 22L7 22L7 23L6 23L6 24L8 24L8 25L11 25L11 26L9 26L9 27L10 27L10 28L9 28L9 30L10 30L10 28L11 28L11 26L12 26L12 27L13 27L13 28L12 28L12 30L11 30L11 31L10 31L10 33L9 33L9 31L8 31L8 33L6 33L6 34L7 34L7 35L6 35L6 36L7 36L7 37L6 37L6 38L7 38L7 39L9 39L9 40L8 40L8 44L7 44L7 43L6 43L6 42L7 42L7 41L6 41L6 42L5 42L5 43L4 43L4 44L3 44L3 45L4 45L4 46L3 46L3 47L5 47L5 46L7 46L7 45L9 45L9 47L11 47L11 49L9 49L9 48L8 48L8 49L9 49L9 50L11 50L11 49L14 49L14 51L15 51L15 52L14 52L14 53L13 53L13 52L12 52L12 51L11 51L11 52L12 52L12 53L13 53L13 54L14 54L14 53L15 53L15 54L16 54L16 53L17 53L17 50L19 50L19 49L15 49L15 47L13 47L13 48L12 48L12 46L11 46L11 45L12 45L12 44L13 44L13 43L11 43L11 42L14 42L14 43L18 43L18 42L19 42L19 44L20 44L20 42L21 42L21 43L22 43L22 42L24 42L24 43L23 43L23 45L22 45L22 44L21 44L21 45L19 45L19 46L17 46L17 45L18 45L18 44L17 44L17 45L16 45L16 44L15 44L15 46L17 46L17 47L18 47L18 48L19 48L19 46L21 46L21 45L22 45L22 46L23 46L23 47L25 47L25 48L24 48L24 49L25 49L25 48L27 48L27 47L26 47L26 45L27 45L27 46L30 46L30 45L29 45L29 44L28 44L28 42L29 42L29 40L32 40L32 41L30 41L30 42L32 42L32 43L33 43L33 44L31 44L31 45L32 45L32 47L33 47L33 48L32 48L32 49L31 49L31 53L30 53L30 54L27 54L27 56L29 56L29 55L30 55L30 56L31 56L31 54L32 54L32 53L33 53L33 54L34 54L34 55L35 55L35 56L36 56L36 54L35 54L35 53L33 53L33 52L32 52L32 51L34 51L34 52L35 52L35 51L34 51L34 50L36 50L36 52L37 52L37 51L38 51L38 50L41 50L41 51L42 51L42 50L41 50L41 48L42 48L42 49L43 49L43 48L44 48L44 49L45 49L45 50L47 50L47 53L48 53L48 50L47 50L47 49L48 49L48 48L51 48L51 46L52 46L52 47L54 47L54 46L53 46L53 45L51 45L51 46L50 46L50 43L51 43L51 44L53 44L53 43L54 43L54 42L53 42L53 41L54 41L54 40L53 40L53 39L55 39L55 37L56 37L56 35L55 35L55 34L54 34L54 32L53 32L53 31L52 31L52 32L51 32L51 31L48 31L48 30L47 30L47 29L46 29L46 30L47 30L47 31L48 31L48 32L47 32L47 33L45 33L45 32L43 32L43 30L41 30L41 31L39 31L39 32L38 32L38 30L39 30L39 29L45 29L45 28L46 28L46 27L48 27L48 26L47 26L47 24L48 24L48 25L49 25L49 23L50 23L50 24L51 24L51 25L50 25L50 26L53 26L53 27L54 27L54 26L53 26L53 23L55 23L55 22L56 22L56 19L55 19L55 20L53 20L53 19L52 19L52 20L51 20L51 21L49 21L49 23L46 23L46 22L47 22L47 20L48 20L48 19L49 19L49 18L47 18L47 15L45 15L45 14L47 14L47 13L49 13L49 12L50 12L50 14L49 14L49 15L48 15L48 16L49 16L49 15L50 15L50 16L51 16L51 17L50 17L50 19L51 19L51 17L53 17L53 18L56 18L56 17L54 17L54 16L53 16L53 15L52 15L52 16L51 16L51 15L50 15L50 14L51 14L51 12L50 12L50 11L47 11L47 12L45 12L45 11L46 11L46 10L47 10L47 8L44 8L44 9L43 9L43 7L44 7L44 6L45 6L45 7L46 7L46 6L45 6L45 4L46 4L46 5L47 5L47 3L44 3L44 6L43 6L43 5L40 5L40 4L41 4L41 3L39 3L39 2L38 2L38 3L39 3L39 4L38 4L38 5L37 5L37 4L36 4L36 5L35 5L35 4L33 4L33 3L35 3L35 2ZM15 4L15 5L16 5L16 4ZM25 4L25 8L26 8L26 4ZM32 4L32 5L33 5L33 6L32 6L32 7L33 7L33 9L34 9L34 8L35 8L35 9L37 9L37 10L36 10L36 12L35 12L35 14L32 14L32 12L33 12L33 13L34 13L34 12L33 12L33 10L32 10L32 12L31 12L31 13L30 13L30 14L29 14L29 13L28 13L28 12L29 12L29 11L27 11L27 12L26 12L26 13L28 13L28 14L29 14L29 16L28 16L28 15L27 15L27 14L26 14L26 15L24 15L24 16L25 16L25 17L22 17L22 16L20 16L20 17L22 17L22 18L20 18L20 19L23 19L23 20L24 20L24 21L22 21L22 22L21 22L21 23L22 23L22 22L24 22L24 21L25 21L25 22L26 22L26 23L25 23L25 24L24 24L24 23L23 23L23 25L22 25L22 24L17 24L17 21L18 21L18 22L19 22L19 23L20 23L20 22L19 22L19 21L20 21L20 20L17 20L17 18L15 18L15 17L14 17L14 18L15 18L15 19L16 19L16 20L15 20L15 21L16 21L16 22L15 22L15 23L13 23L13 22L14 22L14 21L12 21L12 23L13 23L13 27L14 27L14 28L13 28L13 29L14 29L14 28L15 28L15 27L16 27L16 26L15 26L15 25L16 25L16 24L17 24L17 25L22 25L22 26L21 26L21 27L22 27L22 26L26 26L26 27L24 27L24 28L23 28L23 30L24 30L24 31L26 31L26 32L25 32L25 33L23 33L23 34L24 34L24 36L23 36L23 35L21 35L21 34L22 34L22 33L21 33L21 32L23 32L23 31L21 31L21 32L17 32L17 30L16 30L16 29L18 29L18 30L19 30L19 31L20 31L20 26L19 26L19 29L18 29L18 28L16 28L16 29L15 29L15 30L14 30L14 32L13 32L13 33L14 33L14 34L15 34L15 35L14 35L14 38L13 38L13 37L12 37L12 38L11 38L11 36L10 36L10 35L12 35L12 36L13 36L13 35L12 35L12 31L13 31L13 30L12 30L12 31L11 31L11 33L10 33L10 34L9 34L9 35L8 35L8 37L7 37L7 38L8 38L8 37L9 37L9 39L10 39L10 40L9 40L9 41L10 41L10 42L9 42L9 45L11 45L11 44L10 44L10 42L11 42L11 41L14 41L14 40L16 40L16 39L15 39L15 38L16 38L16 37L15 37L15 35L16 35L16 36L18 36L18 37L17 37L17 39L18 39L18 40L17 40L17 41L19 41L19 42L20 42L20 41L19 41L19 40L22 40L22 39L21 39L21 38L22 38L22 37L19 37L19 34L20 34L20 36L23 36L23 37L24 37L24 38L23 38L23 39L24 39L24 40L23 40L23 41L24 41L24 42L25 42L25 41L24 41L24 40L25 40L25 39L27 39L27 40L28 40L28 39L27 39L27 38L28 38L28 37L26 37L26 38L25 38L25 36L26 36L26 35L27 35L27 34L26 34L26 35L25 35L25 33L27 33L27 31L29 31L29 32L28 32L28 33L29 33L29 34L30 34L30 36L29 36L29 37L31 37L31 38L29 38L29 39L33 39L33 40L35 40L35 42L37 42L37 43L36 43L36 44L35 44L35 43L34 43L34 42L33 42L33 41L32 41L32 42L33 42L33 43L34 43L34 45L36 45L36 46L33 46L33 47L36 47L36 48L35 48L35 49L36 49L36 50L38 50L38 49L39 49L39 48L41 48L41 46L43 46L43 45L44 45L44 47L46 47L46 48L48 48L48 47L50 47L50 46L49 46L49 44L48 44L48 46L45 46L45 45L47 45L47 43L50 43L50 42L51 42L51 43L53 43L53 42L51 42L51 41L53 41L53 40L52 40L52 39L53 39L53 38L51 38L51 39L50 39L50 36L52 36L52 35L53 35L53 37L55 37L55 35L53 35L53 34L52 34L52 33L53 33L53 32L52 32L52 33L51 33L51 32L50 32L50 34L49 34L49 35L47 35L47 36L46 36L46 37L47 37L47 36L49 36L49 37L48 37L48 38L47 38L47 39L46 39L46 38L45 38L45 37L44 37L44 36L45 36L45 35L46 35L46 34L45 34L45 35L44 35L44 33L43 33L43 32L41 32L41 33L39 33L39 34L40 34L40 35L39 35L39 37L40 37L40 38L41 38L41 41L39 41L39 42L38 42L38 40L40 40L40 39L38 39L38 40L35 40L35 39L37 39L37 38L38 38L38 37L37 37L37 36L38 36L38 33L37 33L37 32L34 32L34 31L36 31L36 30L33 30L33 29L32 29L32 27L33 27L33 28L35 28L35 29L38 29L38 28L40 28L40 26L39 26L39 27L37 27L37 28L35 28L35 27L36 27L36 26L34 26L34 27L33 27L33 26L32 26L32 24L33 24L33 25L37 25L37 26L38 26L38 25L40 25L40 24L43 24L43 25L41 25L41 26L44 26L44 27L43 27L43 28L45 28L45 27L46 27L46 26L45 26L45 25L46 25L46 23L45 23L45 25L44 25L44 24L43 24L43 23L44 23L44 20L46 20L46 18L44 18L44 12L43 12L43 13L41 13L41 14L38 14L38 13L39 13L39 11L40 11L40 12L41 12L41 11L40 11L40 10L42 10L42 11L45 11L45 10L46 10L46 9L44 9L44 10L43 10L43 9L40 9L40 10L39 10L39 11L38 11L38 9L39 9L39 8L40 8L40 7L41 7L41 6L40 6L40 5L39 5L39 6L38 6L38 7L37 7L37 5L36 5L36 7L37 7L37 8L35 8L35 5L33 5L33 4ZM11 5L11 6L10 6L10 7L11 7L11 6L12 6L12 5ZM13 5L13 6L14 6L14 5ZM17 5L17 6L16 6L16 7L17 7L17 6L18 6L18 5ZM27 5L27 8L30 8L30 5ZM28 6L28 7L29 7L29 6ZM33 6L33 7L34 7L34 6ZM39 6L39 7L40 7L40 6ZM42 6L42 7L43 7L43 6ZM48 8L48 9L49 9L49 8ZM51 8L51 9L52 9L52 8ZM53 8L53 9L54 9L54 8ZM55 8L55 9L56 9L56 8ZM6 10L6 11L7 11L7 10ZM8 10L8 11L9 11L9 10ZM10 10L10 12L11 12L11 11L12 11L12 10ZM13 10L13 11L14 11L14 12L13 12L13 13L15 13L15 12L16 12L16 13L17 13L17 12L16 12L16 11L15 11L15 10ZM55 11L55 12L54 12L54 13L53 13L53 12L52 12L52 13L53 13L53 14L56 14L56 11ZM3 12L3 13L4 13L4 12ZM30 14L30 15L32 15L32 14ZM36 14L36 15L35 15L35 16L31 16L31 18L30 18L30 19L28 19L28 18L27 18L27 17L28 17L28 16L27 16L27 15L26 15L26 17L25 17L25 19L26 19L26 21L28 21L28 22L27 22L27 23L29 23L29 24L25 24L25 25L26 25L26 26L30 26L30 25L29 25L29 24L32 24L32 23L33 23L33 22L34 22L34 23L35 23L35 20L34 20L34 19L33 19L33 20L32 20L32 21L31 21L31 22L30 22L30 23L29 23L29 20L31 20L31 19L32 19L32 17L33 17L33 18L35 18L35 19L36 19L36 20L37 20L37 19L39 19L39 17L41 17L41 16L42 16L42 17L43 17L43 16L42 16L42 15L43 15L43 14L41 14L41 16L39 16L39 15L38 15L38 14ZM35 16L35 17L37 17L37 18L38 18L38 17L39 17L39 16L38 16L38 17L37 17L37 16ZM45 16L45 17L46 17L46 16ZM8 17L8 18L11 18L11 17ZM3 18L3 19L4 19L4 18ZM23 18L23 19L24 19L24 18ZM26 18L26 19L27 19L27 20L28 20L28 19L27 19L27 18ZM41 18L41 20L39 20L39 21L38 21L38 22L37 22L37 24L40 24L40 22L39 22L39 21L43 21L43 20L44 20L44 18L43 18L43 19L42 19L42 18ZM13 19L13 20L14 20L14 19ZM16 20L16 21L17 21L17 20ZM7 21L7 22L8 22L8 23L9 23L9 24L10 24L10 21ZM51 21L51 22L50 22L50 23L51 23L51 24L52 24L52 23L53 23L53 22L54 22L54 21ZM41 22L41 23L43 23L43 22ZM15 23L15 24L14 24L14 25L15 25L15 24L16 24L16 23ZM54 24L54 25L55 25L55 24ZM6 25L6 26L7 26L7 25ZM17 26L17 27L18 27L18 26ZM31 26L31 27L32 27L32 26ZM3 27L3 28L4 28L4 27ZM5 27L5 30L8 30L8 27ZM27 27L27 30L30 30L30 27ZM41 27L41 28L42 28L42 27ZM49 27L49 30L52 30L52 27ZM6 28L6 29L7 29L7 28ZM21 28L21 29L22 29L22 28ZM25 28L25 29L26 29L26 28ZM28 28L28 29L29 29L29 28ZM50 28L50 29L51 29L51 28ZM54 28L54 31L55 31L55 29L56 29L56 28ZM31 29L31 31L30 31L30 32L29 32L29 33L31 33L31 31L32 31L32 34L31 34L31 35L33 35L33 36L32 36L32 37L34 37L34 38L33 38L33 39L34 39L34 38L35 38L35 36L37 36L37 34L35 34L35 33L34 33L34 32L33 32L33 30L32 30L32 29ZM44 30L44 31L45 31L45 30ZM5 31L5 32L7 32L7 31ZM16 32L16 33L15 33L15 34L19 34L19 33L17 33L17 32ZM48 32L48 33L49 33L49 32ZM20 33L20 34L21 34L21 33ZM42 34L42 35L41 35L41 36L40 36L40 37L41 37L41 38L42 38L42 40L44 40L44 41L43 41L43 44L44 44L44 45L45 45L45 44L46 44L46 43L47 43L47 42L48 42L48 41L49 41L49 38L48 38L48 39L47 39L47 41L45 41L45 40L46 40L46 39L45 39L45 38L44 38L44 37L43 37L43 36L44 36L44 35L43 35L43 34ZM50 34L50 35L49 35L49 36L50 36L50 35L52 35L52 34ZM3 35L3 36L4 36L4 35ZM34 35L34 36L35 36L35 35ZM41 36L41 37L42 37L42 38L43 38L43 37L42 37L42 36ZM18 37L18 38L19 38L19 39L20 39L20 38L19 38L19 37ZM11 39L11 40L10 40L10 41L11 41L11 40L12 40L12 39ZM13 39L13 40L14 40L14 39ZM44 39L44 40L45 40L45 39ZM26 41L26 42L27 42L27 41ZM44 41L44 44L45 44L45 43L46 43L46 42L45 42L45 41ZM41 42L41 44L40 44L40 43L39 43L39 45L38 45L38 46L41 46L41 44L42 44L42 42ZM1 43L1 45L2 45L2 43ZM25 43L25 44L27 44L27 43ZM55 43L55 44L54 44L54 45L55 45L55 46L56 46L56 43ZM4 44L4 45L5 45L5 44ZM6 44L6 45L7 45L7 44ZM23 45L23 46L25 46L25 45ZM1 46L1 47L2 47L2 46ZM29 47L29 48L30 48L30 47ZM38 47L38 48L37 48L37 49L38 49L38 48L39 48L39 47ZM42 47L42 48L43 48L43 47ZM53 48L53 49L55 49L55 50L54 50L54 51L55 51L55 50L56 50L56 48ZM27 49L27 52L30 52L30 49ZM49 49L49 52L52 52L52 49ZM15 50L15 51L16 51L16 50ZM28 50L28 51L29 51L29 50ZM43 50L43 51L44 51L44 50ZM50 50L50 51L51 51L51 50ZM39 51L39 52L38 52L38 53L37 53L37 54L40 54L40 53L42 53L42 52L40 52L40 51ZM45 51L45 52L44 52L44 53L43 53L43 54L44 54L44 53L45 53L45 52L46 52L46 51ZM9 52L9 53L10 53L10 52ZM15 52L15 53L16 53L16 52ZM53 52L53 54L54 54L54 52ZM10 55L10 56L11 56L11 55ZM37 55L37 56L39 56L39 55ZM42 55L42 56L43 56L43 55ZM48 55L48 56L49 56L49 55ZM50 55L50 56L51 56L51 55ZM14 56L14 57L15 57L15 56ZM0 0L0 7L7 7L7 0ZM1 1L1 6L6 6L6 1ZM2 2L2 5L5 5L5 2ZM50 0L50 7L57 7L57 0ZM51 1L51 6L56 6L56 1ZM52 2L52 5L55 5L55 2ZM0 50L0 57L7 57L7 50ZM1 51L1 56L6 56L6 51ZM2 52L2 55L5 55L5 52Z" fill="#000000"/></g></g></svg>
