<?xml version="1.0" encoding="UTF-8"?>
<svg xmlns="http://www.w3.org/2000/svg" version="1.1" width="300" height="300" viewBox="0 0 300 300"><rect x="0" y="0" width="300" height="300" fill="#fefefe"/><g transform="scale(4.615)"><g transform="translate(4,4)"><path fill-rule="evenodd" d="M8 0L8 1L9 1L9 2L8 2L8 5L9 5L9 6L8 6L8 7L9 7L9 6L10 6L10 11L9 11L9 12L10 12L10 13L9 13L9 14L5 14L5 13L8 13L8 11L7 11L7 10L6 10L6 9L7 9L7 8L6 8L6 9L5 9L5 10L4 10L4 11L7 11L7 12L4 12L4 14L3 14L3 13L2 13L2 14L1 14L1 13L0 13L0 14L1 14L1 15L0 15L0 17L1 17L1 19L0 19L0 21L1 21L1 22L0 22L0 27L1 27L1 26L2 26L2 28L1 28L1 29L3 29L3 28L4 28L4 30L3 30L3 31L2 31L2 30L0 30L0 34L1 34L1 35L0 35L0 36L1 36L1 35L3 35L3 36L5 36L5 37L7 37L7 38L5 38L5 39L7 39L7 38L8 38L8 41L10 41L10 39L11 39L11 40L12 40L12 43L10 43L10 42L9 42L9 43L10 43L10 44L12 44L12 45L10 45L10 46L9 46L9 45L8 45L8 46L6 46L6 45L7 45L7 44L5 44L5 42L6 42L6 43L7 43L7 42L6 42L6 41L7 41L7 40L4 40L4 39L3 39L3 37L1 37L1 38L2 38L2 40L1 40L1 41L2 41L2 42L1 42L1 43L2 43L2 44L0 44L0 48L5 48L5 47L9 47L9 48L11 48L11 50L10 50L10 51L11 51L11 52L9 52L9 53L8 53L8 57L10 57L10 56L9 56L9 55L11 55L11 56L12 56L12 57L14 57L14 56L13 56L13 55L15 55L15 56L16 56L16 57L18 57L18 56L19 56L19 55L20 55L20 56L21 56L21 57L24 57L24 56L25 56L25 55L24 55L24 56L22 56L22 55L23 55L23 54L26 54L26 53L29 53L29 54L31 54L31 55L30 55L30 56L31 56L31 57L32 57L32 55L34 55L34 56L33 56L33 57L36 57L36 55L38 55L38 57L42 57L42 56L43 56L43 55L44 55L44 54L45 54L45 56L46 56L46 57L47 57L47 56L48 56L48 57L51 57L51 54L52 54L52 53L53 53L53 54L54 54L54 52L55 52L55 54L56 54L56 53L57 53L57 52L56 52L56 49L57 49L57 48L56 48L56 49L55 49L55 50L53 50L53 48L54 48L54 46L52 46L52 43L53 43L53 42L54 42L54 43L55 43L55 44L53 44L53 45L55 45L55 44L56 44L56 41L57 41L57 40L56 40L56 41L55 41L55 42L54 42L54 41L53 41L53 40L55 40L55 38L56 38L56 39L57 39L57 38L56 38L56 37L55 37L55 36L54 36L54 35L57 35L57 34L55 34L55 33L57 33L57 31L56 31L56 30L57 30L57 27L56 27L56 28L55 28L55 27L53 27L53 26L51 26L51 24L53 24L53 25L56 25L56 24L54 24L54 23L53 23L53 20L50 20L50 19L49 19L49 18L48 18L48 17L50 17L50 15L51 15L51 13L52 13L52 14L54 14L54 15L53 15L53 16L55 16L55 17L54 17L54 18L51 18L51 19L56 19L56 18L57 18L57 15L55 15L55 13L57 13L57 12L56 12L56 11L57 11L57 10L56 10L56 9L57 9L57 8L56 8L56 9L55 9L55 8L52 8L52 9L51 9L51 10L50 10L50 8L49 8L49 6L48 6L48 9L47 9L47 10L46 10L46 8L45 8L45 6L46 6L46 7L47 7L47 5L48 5L48 0L45 0L45 1L44 1L44 2L42 2L42 3L43 3L43 5L45 5L45 6L44 6L44 7L43 7L43 6L42 6L42 7L43 7L43 8L45 8L45 9L44 9L44 10L43 10L43 9L41 9L41 8L39 8L39 10L41 10L41 11L42 11L42 12L43 12L43 13L44 13L44 12L43 12L43 11L44 11L44 10L45 10L45 11L47 11L47 12L48 12L48 11L49 11L49 16L48 16L48 14L47 14L47 17L45 17L45 16L44 16L44 15L45 15L45 14L46 14L46 13L45 13L45 14L42 14L42 17L41 17L41 18L39 18L39 19L40 19L40 20L39 20L39 23L37 23L37 24L36 24L36 23L35 23L35 24L33 24L33 23L34 23L34 22L32 22L32 23L30 23L30 22L31 22L31 20L32 20L32 19L33 19L33 21L35 21L35 22L38 22L38 21L36 21L36 20L38 20L38 19L36 19L36 20L35 20L35 19L33 19L33 18L35 18L35 17L34 17L34 16L35 16L35 15L33 15L33 14L34 14L34 12L35 12L35 14L36 14L36 15L39 15L39 17L40 17L40 16L41 16L41 13L40 13L40 14L39 14L39 11L38 11L38 12L37 12L37 11L36 11L36 10L35 10L35 11L34 11L34 10L33 10L33 14L32 14L32 11L31 11L31 10L32 10L32 9L31 9L31 6L32 6L32 8L33 8L33 6L32 6L32 5L31 5L31 4L32 4L32 3L33 3L33 5L34 5L34 3L33 3L33 1L31 1L31 0L29 0L29 1L28 1L28 0L27 0L27 4L26 4L26 2L24 2L24 3L23 3L23 2L22 2L22 3L23 3L23 6L22 6L22 5L20 5L20 4L19 4L19 2L20 2L20 3L21 3L21 2L20 2L20 0L17 0L17 1L15 1L15 2L18 2L18 3L17 3L17 5L15 5L15 4L14 4L14 3L12 3L12 4L10 4L10 2L12 2L12 1L14 1L14 0L12 0L12 1L10 1L10 0ZM21 0L21 1L22 1L22 0ZM23 0L23 1L26 1L26 0ZM35 0L35 1L34 1L34 2L35 2L35 4L36 4L36 5L37 5L37 6L36 6L36 7L35 7L35 6L34 6L34 9L36 9L36 8L38 8L38 7L39 7L39 6L38 6L38 5L40 5L40 7L41 7L41 4L37 4L37 3L39 3L39 2L37 2L37 1L38 1L38 0L37 0L37 1L36 1L36 0ZM39 0L39 1L40 1L40 2L41 2L41 1L43 1L43 0L41 0L41 1L40 1L40 0ZM18 1L18 2L19 2L19 1ZM30 1L30 3L29 3L29 2L28 2L28 4L30 4L30 3L31 3L31 1ZM35 1L35 2L36 2L36 1ZM46 1L46 2L45 2L45 3L44 3L44 4L45 4L45 5L47 5L47 3L46 3L46 2L47 2L47 1ZM13 4L13 5L11 5L11 10L13 10L13 9L14 9L14 11L16 11L16 12L15 12L15 15L16 15L16 16L15 16L15 17L13 17L13 16L14 16L14 15L12 15L12 13L10 13L10 14L9 14L9 15L10 15L10 16L11 16L11 15L12 15L12 18L10 18L10 17L9 17L9 16L8 16L8 17L9 17L9 18L10 18L10 19L9 19L9 20L8 20L8 21L6 21L6 22L5 22L5 23L3 23L3 19L4 19L4 20L5 20L5 19L6 19L6 20L7 20L7 19L6 19L6 18L7 18L7 17L6 17L6 16L7 16L7 15L6 15L6 16L5 16L5 15L4 15L4 17L3 17L3 14L2 14L2 15L1 15L1 17L3 17L3 19L2 19L2 23L1 23L1 24L3 24L3 25L2 25L2 26L3 26L3 25L4 25L4 26L7 26L7 25L5 25L5 23L6 23L6 24L7 24L7 23L8 23L8 24L10 24L10 23L11 23L11 25L12 25L12 24L13 24L13 22L12 22L12 21L10 21L10 22L9 22L9 20L11 20L11 19L15 19L15 20L14 20L14 23L16 23L16 24L19 24L19 22L23 22L23 21L24 21L24 22L25 22L25 25L24 25L24 24L21 24L21 23L20 23L20 24L21 24L21 25L23 25L23 26L25 26L25 25L27 25L27 26L28 26L28 25L29 25L29 26L31 26L31 24L30 24L30 23L29 23L29 24L28 24L28 22L25 22L25 19L26 19L26 18L25 18L25 17L26 17L26 16L27 16L27 15L26 15L26 16L25 16L25 17L24 17L24 18L23 18L23 16L24 16L24 15L23 15L23 13L22 13L22 12L23 12L23 11L25 11L25 12L24 12L24 14L26 14L26 12L28 12L28 13L30 13L30 14L31 14L31 15L32 15L32 16L33 16L33 15L32 15L32 14L31 14L31 12L30 12L30 11L29 11L29 9L27 9L27 10L26 10L26 11L25 11L25 10L23 10L23 9L24 9L24 8L25 8L25 9L26 9L26 6L25 6L25 5L26 5L26 4L24 4L24 6L23 6L23 7L22 7L22 6L21 6L21 7L20 7L20 6L19 6L19 7L20 7L20 8L18 8L18 9L17 9L17 7L18 7L18 5L19 5L19 4L18 4L18 5L17 5L17 7L16 7L16 6L15 6L15 8L14 8L14 4ZM27 5L27 8L30 8L30 5ZM12 6L12 9L13 9L13 6ZM24 6L24 7L23 7L23 8L22 8L22 7L21 7L21 11L19 11L19 12L18 12L18 10L20 10L20 9L18 9L18 10L17 10L17 12L16 12L16 13L17 13L17 12L18 12L18 13L19 13L19 15L18 15L18 14L16 14L16 15L17 15L17 16L16 16L16 17L15 17L15 19L18 19L18 20L16 20L16 23L17 23L17 21L18 21L18 22L19 22L19 21L18 21L18 20L19 20L19 19L20 19L20 20L21 20L21 21L23 21L23 18L22 18L22 17L21 17L21 15L20 15L20 14L21 14L21 13L20 13L20 12L21 12L21 11L23 11L23 10L22 10L22 9L23 9L23 8L24 8L24 7L25 7L25 6ZM28 6L28 7L29 7L29 6ZM37 6L37 7L38 7L38 6ZM0 8L0 9L1 9L1 11L2 11L2 12L3 12L3 9L4 9L4 8ZM8 8L8 10L9 10L9 8ZM37 9L37 10L38 10L38 9ZM53 9L53 10L51 10L51 12L50 12L50 13L51 13L51 12L52 12L52 13L53 13L53 10L54 10L54 13L55 13L55 9ZM47 10L47 11L48 11L48 10ZM11 11L11 12L13 12L13 11ZM35 11L35 12L36 12L36 11ZM13 13L13 14L14 14L14 13ZM10 14L10 15L11 15L11 14ZM28 15L28 16L29 16L29 17L27 17L27 20L26 20L26 21L27 21L27 20L28 20L28 18L29 18L29 17L30 17L30 19L32 19L32 18L31 18L31 16L29 16L29 15ZM17 16L17 17L19 17L19 18L20 18L20 19L21 19L21 20L22 20L22 18L21 18L21 17L20 17L20 16ZM51 16L51 17L52 17L52 16ZM4 17L4 19L5 19L5 17ZM36 17L36 18L37 18L37 17ZM42 17L42 18L41 18L41 21L44 21L44 22L47 22L47 21L48 21L48 20L49 20L49 23L50 23L50 24L51 24L51 23L52 23L52 22L51 22L51 21L50 21L50 20L49 20L49 19L48 19L48 18L47 18L47 19L46 19L46 18L45 18L45 17ZM55 17L55 18L56 18L56 17ZM24 18L24 19L25 19L25 18ZM42 18L42 19L43 19L43 18ZM44 18L44 19L45 19L45 18ZM29 20L29 21L30 21L30 20ZM45 20L45 21L47 21L47 20ZM54 20L54 21L55 21L55 20ZM56 20L56 22L55 22L55 23L57 23L57 20ZM6 22L6 23L7 23L7 22ZM11 22L11 23L12 23L12 22ZM26 23L26 24L27 24L27 23ZM40 23L40 25L41 25L41 26L38 26L38 27L40 27L40 30L39 30L39 29L38 29L38 30L36 30L36 29L37 29L37 27L35 27L35 25L34 25L34 27L35 27L35 28L34 28L34 29L35 29L35 31L34 31L34 32L31 32L31 34L30 34L30 35L29 35L29 33L30 33L30 31L28 31L28 33L26 33L26 32L27 32L27 31L26 31L26 32L25 32L25 30L26 30L26 28L25 28L25 29L24 29L24 32L23 32L23 33L22 33L22 35L21 35L21 32L22 32L22 31L23 31L23 30L21 30L21 29L23 29L23 28L24 28L24 27L22 27L22 26L19 26L19 25L16 25L16 26L14 26L14 27L10 27L10 26L9 26L9 25L8 25L8 26L9 26L9 29L10 29L10 28L13 28L13 29L14 29L14 27L17 27L17 30L16 30L16 29L15 29L15 30L16 30L16 32L17 32L17 30L19 30L19 31L18 31L18 34L19 34L19 37L17 37L17 36L18 36L18 35L17 35L17 33L15 33L15 31L13 31L13 32L12 32L12 33L11 33L11 34L10 34L10 33L5 33L5 32L4 32L4 31L3 31L3 32L4 32L4 33L5 33L5 34L4 34L4 35L5 35L5 36L8 36L8 37L9 37L9 36L10 36L10 38L9 38L9 39L10 39L10 38L11 38L11 39L13 39L13 40L15 40L15 38L17 38L17 39L16 39L16 40L17 40L17 41L19 41L19 42L21 42L21 44L22 44L22 46L21 46L21 45L20 45L20 46L18 46L18 47L17 47L17 45L19 45L19 43L18 43L18 42L15 42L15 41L13 41L13 42L15 42L15 43L17 43L17 45L13 45L13 46L14 46L14 47L15 47L15 53L14 53L14 52L13 52L13 53L9 53L9 54L11 54L11 55L12 55L12 54L13 54L13 53L14 53L14 54L15 54L15 53L16 53L16 54L17 54L17 53L18 53L18 54L19 54L19 52L20 52L20 50L19 50L19 52L18 52L18 50L17 50L17 49L16 49L16 47L17 47L17 48L18 48L18 47L22 47L22 46L24 46L24 45L23 45L23 44L22 44L22 42L21 42L21 41L19 41L19 40L17 40L17 39L19 39L19 37L20 37L20 38L21 38L21 40L22 40L22 41L23 41L23 42L25 42L25 43L24 43L24 44L25 44L25 43L26 43L26 45L25 45L25 47L24 47L24 49L23 49L23 48L19 48L19 49L21 49L21 50L22 50L22 49L23 49L23 51L22 51L22 53L20 53L20 55L21 55L21 54L23 54L23 52L24 52L24 53L25 53L25 52L26 52L26 50L25 50L25 47L26 47L26 48L27 48L27 46L28 46L28 47L30 47L30 48L31 48L31 47L32 47L32 49L33 49L33 50L31 50L31 53L32 53L32 51L33 51L33 52L34 52L34 53L36 53L36 54L34 54L34 55L36 55L36 54L39 54L39 52L40 52L40 54L41 54L41 53L42 53L42 54L43 54L43 51L44 51L44 50L43 50L43 47L40 47L40 46L39 46L39 45L38 45L38 44L41 44L41 43L42 43L42 45L45 45L45 47L46 47L46 46L48 46L48 47L49 47L49 48L51 48L51 47L49 47L49 46L48 46L48 45L49 45L49 44L51 44L51 42L50 42L50 41L52 41L52 40L50 40L50 41L47 41L47 42L44 42L44 41L42 41L42 40L40 40L40 41L37 41L37 40L38 40L38 39L37 39L37 37L38 37L38 36L37 36L37 37L34 37L34 38L33 38L33 36L36 36L36 35L33 35L33 33L34 33L34 34L35 34L35 33L34 33L34 32L35 32L35 31L37 31L37 32L36 32L36 33L37 33L37 32L38 32L38 34L39 34L39 31L40 31L40 32L41 32L41 31L43 31L43 29L42 29L42 30L41 30L41 26L45 26L45 24L46 24L46 26L47 26L47 27L48 27L48 26L50 26L50 25L47 25L47 24L46 24L46 23L44 23L44 25L43 25L43 23ZM14 24L14 25L15 25L15 24ZM29 24L29 25L30 25L30 24ZM32 24L32 25L33 25L33 24ZM38 24L38 25L39 25L39 24ZM41 24L41 25L42 25L42 24ZM17 26L17 27L19 27L19 26ZM5 27L5 30L8 30L8 27ZM20 27L20 29L21 29L21 27ZM27 27L27 30L30 30L30 27ZM31 27L31 28L33 28L33 27ZM42 27L42 28L44 28L44 27ZM45 27L45 30L44 30L44 33L45 33L45 34L46 34L46 35L47 35L47 37L46 37L46 36L44 36L44 37L42 37L42 34L41 34L41 35L39 35L39 36L40 36L40 37L41 37L41 39L42 39L42 38L44 38L44 39L46 39L46 38L48 38L48 39L47 39L47 40L49 40L49 39L51 39L51 38L48 38L48 35L47 35L47 34L50 34L50 33L49 33L49 32L48 32L48 28L47 28L47 31L46 31L46 32L45 32L45 30L46 30L46 27ZM49 27L49 30L52 30L52 27ZM6 28L6 29L7 29L7 28ZM18 28L18 29L19 29L19 28ZM28 28L28 29L29 29L29 28ZM50 28L50 29L51 29L51 28ZM53 28L53 31L52 31L52 34L54 34L54 33L55 33L55 30L56 30L56 29L55 29L55 30L54 30L54 28ZM11 29L11 30L10 30L10 31L8 31L8 32L11 32L11 30L12 30L12 29ZM31 29L31 31L32 31L32 30L33 30L33 29ZM38 30L38 31L39 31L39 30ZM6 31L6 32L7 32L7 31ZM19 31L19 32L21 32L21 31ZM50 31L50 32L51 32L51 31ZM1 32L1 33L2 33L2 32ZM13 32L13 33L14 33L14 32ZM24 32L24 33L23 33L23 35L22 35L22 36L23 36L23 37L22 37L22 38L23 38L23 39L24 39L24 41L25 41L25 42L27 42L27 43L28 43L28 44L27 44L27 45L26 45L26 46L27 46L27 45L29 45L29 46L31 46L31 43L32 43L32 42L33 42L33 45L32 45L32 46L33 46L33 45L34 45L34 44L35 44L35 46L34 46L34 48L33 48L33 49L34 49L34 48L35 48L35 51L34 51L34 50L33 50L33 51L34 51L34 52L36 52L36 51L38 51L38 52L37 52L37 53L38 53L38 52L39 52L39 50L40 50L40 49L39 49L39 48L38 48L38 49L37 49L37 48L35 48L35 47L38 47L38 45L36 45L36 44L35 44L35 43L34 43L34 42L36 42L36 41L34 41L34 40L35 40L35 39L36 39L36 38L35 38L35 39L33 39L33 38L32 38L32 36L33 36L33 35L32 35L32 36L29 36L29 35L28 35L28 34L27 34L27 36L26 36L26 37L27 37L27 36L29 36L29 38L27 38L27 39L26 39L26 41L25 41L25 39L24 39L24 37L25 37L25 36L23 36L23 35L24 35L24 34L25 34L25 32ZM42 32L42 33L43 33L43 32ZM46 32L46 33L47 33L47 32ZM19 33L19 34L20 34L20 33ZM5 34L5 35L7 35L7 34ZM11 34L11 35L10 35L10 36L13 36L13 35L14 35L14 37L15 37L15 35L14 35L14 34L13 34L13 35L12 35L12 34ZM43 34L43 35L44 35L44 34ZM8 35L8 36L9 36L9 35ZM16 35L16 36L17 36L17 35ZM20 35L20 36L21 36L21 35ZM51 35L51 37L52 37L52 38L55 38L55 37L53 37L53 36L52 36L52 35ZM49 36L49 37L50 37L50 36ZM11 37L11 38L12 38L12 37ZM45 37L45 38L46 38L46 37ZM13 38L13 39L14 39L14 38ZM30 38L30 39L28 39L28 40L27 40L27 41L28 41L28 40L29 40L29 41L31 41L31 40L33 40L33 39L32 39L32 38ZM2 40L2 41L3 41L3 42L2 42L2 43L3 43L3 42L5 42L5 41L4 41L4 40ZM45 40L45 41L46 41L46 40ZM40 41L40 42L42 42L42 43L43 43L43 44L49 44L49 43L50 43L50 42L49 42L49 43L48 43L48 42L47 42L47 43L44 43L44 42L42 42L42 41ZM37 42L37 44L38 44L38 43L39 43L39 42ZM13 43L13 44L14 44L14 43ZM2 44L2 45L1 45L1 47L2 47L2 45L3 45L3 47L5 47L5 44ZM29 44L29 45L30 45L30 44ZM50 45L50 46L51 46L51 45ZM56 45L56 46L55 46L55 47L57 47L57 45ZM10 46L10 47L11 47L11 46ZM15 46L15 47L16 47L16 46ZM12 47L12 48L13 48L13 49L12 49L12 51L14 51L14 48L13 48L13 47ZM6 48L6 49L8 49L8 50L9 50L9 49L8 49L8 48ZM41 48L41 49L42 49L42 48ZM44 48L44 49L45 49L45 48ZM47 48L47 49L46 49L46 50L45 50L45 52L46 52L46 51L47 51L47 52L48 52L48 48ZM27 49L27 52L30 52L30 49ZM36 49L36 50L37 50L37 49ZM49 49L49 52L52 52L52 49ZM16 50L16 51L17 51L17 50ZM24 50L24 51L25 51L25 50ZM28 50L28 51L29 51L29 50ZM50 50L50 51L51 51L51 50ZM40 51L40 52L42 52L42 51ZM47 53L47 54L46 54L46 56L47 56L47 54L50 54L50 53ZM17 55L17 56L18 56L18 55ZM27 55L27 56L28 56L28 55ZM39 55L39 56L42 56L42 55ZM48 55L48 56L49 56L49 55ZM56 55L56 56L57 56L57 55ZM52 56L52 57L53 57L53 56ZM54 56L54 57L55 57L55 56ZM0 0L0 7L7 7L7 0ZM1 1L1 6L6 6L6 1ZM2 2L2 5L5 5L5 2ZM50 0L50 7L57 7L57 0ZM51 1L51 6L56 6L56 1ZM52 2L52 5L55 5L55 2ZM0 50L0 57L7 57L7 50ZM1 51L1 56L6 56L6 51ZM2 52L2 55L5 55L5 52Z" fill="#000000"/></g></g></svg>
