<?xml version="1.0" encoding="UTF-8"?>
<svg xmlns="http://www.w3.org/2000/svg" version="1.1" width="300" height="300" viewBox="0 0 300 300"><rect x="0" y="0" width="300" height="300" fill="#fefefe"/><g transform="scale(4.615)"><g transform="translate(4,4)"><path fill-rule="evenodd" d="M10 0L10 1L8 1L8 2L10 2L10 3L8 3L8 4L10 4L10 5L11 5L11 6L10 6L10 8L11 8L11 9L12 9L12 8L11 8L11 6L12 6L12 7L13 7L13 6L12 6L12 5L13 5L13 4L14 4L14 2L15 2L15 3L16 3L16 1L15 1L15 0L14 0L14 2L13 2L13 0ZM19 0L19 1L17 1L17 2L18 2L18 4L17 4L17 6L16 6L16 7L15 7L15 5L16 5L16 4L15 4L15 5L14 5L14 7L15 7L15 8L16 8L16 9L17 9L17 10L18 10L18 11L17 11L17 12L16 12L16 13L15 13L15 10L14 10L14 8L13 8L13 11L12 11L12 10L10 10L10 9L9 9L9 8L6 8L6 9L7 9L7 10L6 10L6 11L7 11L7 12L4 12L4 13L7 13L7 12L8 12L8 14L9 14L9 12L10 12L10 15L11 15L11 17L10 17L10 16L9 16L9 15L8 15L8 16L6 16L6 15L7 15L7 14L4 14L4 16L3 16L3 14L2 14L2 15L0 15L0 18L1 18L1 19L3 19L3 20L1 20L1 21L3 21L3 24L4 24L4 25L2 25L2 24L1 24L1 23L0 23L0 24L1 24L1 25L0 25L0 26L1 26L1 27L2 27L2 26L3 26L3 28L2 28L2 29L1 29L1 30L0 30L0 32L1 32L1 33L0 33L0 34L1 34L1 33L2 33L2 32L3 32L3 34L2 34L2 36L1 36L1 35L0 35L0 40L1 40L1 42L0 42L0 43L1 43L1 42L2 42L2 41L3 41L3 44L4 44L4 46L5 46L5 47L3 47L3 46L2 46L2 47L1 47L1 45L2 45L2 44L0 44L0 48L5 48L5 47L7 47L7 48L6 48L6 49L8 49L8 51L10 51L10 50L9 50L9 49L13 49L13 50L11 50L11 51L12 51L12 52L11 52L11 53L10 53L10 52L8 52L8 57L10 57L10 56L11 56L11 57L15 57L15 55L16 55L16 56L17 56L17 57L19 57L19 55L20 55L20 54L19 54L19 53L20 53L20 52L21 52L21 50L25 50L25 51L26 51L26 52L24 52L24 53L23 53L23 54L22 54L22 53L21 53L21 54L22 54L22 55L21 55L21 56L24 56L24 55L23 55L23 54L24 54L24 53L26 53L26 56L25 56L25 57L26 57L26 56L27 56L27 57L29 57L29 56L30 56L30 57L31 57L31 56L35 56L35 57L39 57L39 56L37 56L37 55L41 55L41 57L42 57L42 55L44 55L44 54L45 54L45 57L47 57L47 56L46 56L46 54L45 54L45 53L44 53L44 52L45 52L45 51L46 51L46 52L47 52L47 51L46 51L46 50L45 50L45 51L44 51L44 48L43 48L43 47L44 47L44 46L43 46L43 45L44 45L44 43L45 43L45 42L46 42L46 44L45 44L45 45L47 45L47 46L45 46L45 47L47 47L47 48L48 48L48 49L47 49L47 50L48 50L48 54L47 54L47 55L48 55L48 56L50 56L50 57L52 57L52 55L51 55L51 53L52 53L52 54L53 54L53 55L54 55L54 56L53 56L53 57L54 57L54 56L55 56L55 57L56 57L56 56L55 56L55 53L56 53L56 52L55 52L55 51L56 51L56 49L57 49L57 48L56 48L56 46L57 46L57 44L56 44L56 42L55 42L55 39L57 39L57 37L56 37L56 36L55 36L55 35L56 35L56 34L55 34L55 33L54 33L54 32L56 32L56 33L57 33L57 32L56 32L56 30L57 30L57 29L56 29L56 28L57 28L57 27L56 27L56 26L57 26L57 25L56 25L56 22L57 22L57 21L56 21L56 22L55 22L55 23L53 23L53 21L51 21L51 20L52 20L52 19L53 19L53 20L55 20L55 19L56 19L56 20L57 20L57 19L56 19L56 18L57 18L57 17L56 17L56 16L57 16L57 15L56 15L56 14L57 14L57 12L56 12L56 14L55 14L55 13L54 13L54 12L55 12L55 11L56 11L56 8L55 8L55 10L54 10L54 11L53 11L53 9L54 9L54 8L53 8L53 9L52 9L52 8L51 8L51 9L52 9L52 11L50 11L50 8L47 8L47 10L46 10L46 9L45 9L45 10L44 10L44 9L41 9L41 10L42 10L42 11L43 11L43 13L41 13L41 14L38 14L38 13L39 13L39 11L40 11L40 12L41 12L41 11L40 11L40 10L38 10L38 8L39 8L39 6L40 6L40 7L41 7L41 6L42 6L42 8L45 8L45 6L46 6L46 7L47 7L47 5L48 5L48 0L46 0L46 1L45 1L45 2L44 2L44 3L41 3L41 2L43 2L43 0L41 0L41 1L40 1L40 0L39 0L39 1L38 1L38 0L37 0L37 1L38 1L38 3L36 3L36 0L35 0L35 1L33 1L33 2L32 2L32 3L31 3L31 2L28 2L28 1L31 1L31 0L27 0L27 1L26 1L26 0L23 0L23 2L22 2L22 0L21 0L21 1L20 1L20 0ZM10 1L10 2L12 2L12 4L11 4L11 3L10 3L10 4L11 4L11 5L12 5L12 4L13 4L13 2L12 2L12 1ZM25 1L25 2L23 2L23 3L21 3L21 2L19 2L19 4L18 4L18 6L17 6L17 7L16 7L16 8L17 8L17 9L18 9L18 10L19 10L19 9L20 9L20 10L21 10L21 11L19 11L19 13L20 13L20 14L17 14L17 13L18 13L18 12L17 12L17 13L16 13L16 16L14 16L14 14L15 14L15 13L13 13L13 12L14 12L14 11L13 11L13 12L12 12L12 11L11 11L11 14L12 14L12 16L14 16L14 17L12 17L12 18L13 18L13 19L14 19L14 20L13 20L13 21L11 21L11 20L10 20L10 17L9 17L9 16L8 16L8 17L9 17L9 20L8 20L8 19L6 19L6 18L7 18L7 17L3 17L3 19L4 19L4 20L3 20L3 21L4 21L4 20L5 20L5 19L6 19L6 20L8 20L8 21L6 21L6 22L8 22L8 25L6 25L6 26L10 26L10 24L11 24L11 25L12 25L12 26L13 26L13 21L14 21L14 23L15 23L15 24L14 24L14 26L15 26L15 27L14 27L14 28L15 28L15 29L16 29L16 30L17 30L17 31L18 31L18 29L19 29L19 28L20 28L20 27L21 27L21 28L22 28L22 29L20 29L20 31L19 31L19 33L18 33L18 32L16 32L16 33L15 33L15 30L14 30L14 29L13 29L13 30L14 30L14 31L13 31L13 33L12 33L12 34L10 34L10 35L12 35L12 37L11 37L11 38L10 38L10 36L9 36L9 37L8 37L8 38L7 38L7 37L6 37L6 38L5 38L5 36L8 36L8 35L6 35L6 34L8 34L8 32L9 32L9 31L6 31L6 32L7 32L7 33L5 33L5 31L3 31L3 32L4 32L4 33L5 33L5 34L4 34L4 35L3 35L3 37L2 37L2 38L1 38L1 39L2 39L2 40L3 40L3 41L5 41L5 39L6 39L6 40L7 40L7 41L6 41L6 42L5 42L5 43L6 43L6 44L5 44L5 45L6 45L6 46L7 46L7 47L8 47L8 49L9 49L9 48L10 48L10 46L11 46L11 47L12 47L12 48L13 48L13 49L14 49L14 50L15 50L15 51L16 51L16 53L14 53L14 51L13 51L13 56L14 56L14 54L16 54L16 53L17 53L17 51L20 51L20 50L21 50L21 49L23 49L23 47L19 47L19 49L16 49L16 48L13 48L13 47L12 47L12 46L14 46L14 45L13 45L13 44L15 44L15 46L17 46L17 45L18 45L18 44L17 44L17 45L16 45L16 44L15 44L15 43L14 43L14 42L12 42L12 41L13 41L13 40L14 40L14 41L15 41L15 42L17 42L17 43L18 43L18 42L19 42L19 43L20 43L20 44L21 44L21 45L19 45L19 46L21 46L21 45L22 45L22 46L24 46L24 47L25 47L25 48L24 48L24 49L25 49L25 50L26 50L26 49L25 49L25 48L30 48L30 47L28 47L28 46L31 46L31 47L32 47L32 46L35 46L35 47L33 47L33 48L31 48L31 50L36 50L36 52L37 52L37 51L38 51L38 52L39 52L39 53L38 53L38 54L40 54L40 53L42 53L42 50L41 50L41 48L42 48L42 49L43 49L43 48L42 48L42 47L43 47L43 46L41 46L41 48L39 48L39 47L40 47L40 46L39 46L39 45L41 45L41 44L42 44L42 42L40 42L40 41L43 41L43 40L42 40L42 39L45 39L45 40L44 40L44 42L43 42L43 43L44 43L44 42L45 42L45 40L46 40L46 39L47 39L47 41L46 41L46 42L48 42L48 41L49 41L49 39L47 39L47 37L48 37L48 38L49 38L49 37L48 37L48 36L50 36L50 39L51 39L51 40L53 40L53 35L55 35L55 34L54 34L54 33L52 33L52 31L48 31L48 29L46 29L46 30L47 30L47 31L46 31L46 32L47 32L47 33L45 33L45 32L43 32L43 31L45 31L45 30L44 30L44 29L45 29L45 28L46 28L46 27L47 27L47 28L48 28L48 27L47 27L47 25L48 25L48 24L49 24L49 25L50 25L50 26L52 26L52 25L54 25L54 24L53 24L53 23L52 23L52 24L51 24L51 23L50 23L50 22L51 22L51 21L49 21L49 19L52 19L52 18L51 18L51 17L53 17L53 18L55 18L55 16L53 16L53 15L55 15L55 14L53 14L53 15L52 15L52 16L51 16L51 15L50 15L50 14L51 14L51 12L50 12L50 11L49 11L49 12L45 12L45 11L46 11L46 10L45 10L45 11L44 11L44 10L43 10L43 11L44 11L44 13L43 13L43 14L41 14L41 16L39 16L39 15L38 15L38 14L37 14L37 13L36 13L36 14L37 14L37 15L35 15L35 16L31 16L31 18L30 18L30 19L31 19L31 18L32 18L32 19L33 19L33 18L34 18L34 20L32 20L32 21L31 21L31 20L30 20L30 21L31 21L31 22L30 22L30 24L28 24L28 23L29 23L29 22L28 22L28 23L27 23L27 24L25 24L25 23L26 23L26 22L25 22L25 21L29 21L29 19L28 19L28 18L27 18L27 19L26 19L26 20L25 20L25 21L24 21L24 20L23 20L23 19L24 19L24 18L23 18L23 19L22 19L22 20L21 20L21 18L22 18L22 17L25 17L25 18L26 18L26 17L28 17L28 16L29 16L29 14L30 14L30 15L32 15L32 13L33 13L33 14L35 14L35 11L36 11L36 10L37 10L37 11L38 11L38 10L37 10L37 9L35 9L35 8L38 8L38 6L39 6L39 5L40 5L40 6L41 6L41 5L40 5L40 4L41 4L41 3L38 3L38 6L37 6L37 7L36 7L36 5L37 5L37 4L36 4L36 5L35 5L35 2L33 2L33 3L32 3L32 4L31 4L31 8L32 8L32 10L29 10L29 9L28 9L28 11L29 11L29 12L28 12L28 13L26 13L26 12L27 12L27 11L26 11L26 12L25 12L25 11L24 11L24 13L22 13L22 12L21 12L21 11L22 11L22 10L23 10L23 9L25 9L25 8L26 8L26 4L27 4L27 3L28 3L28 4L30 4L30 3L28 3L28 2L26 2L26 1ZM46 1L46 2L47 2L47 1ZM23 3L23 4L19 4L19 5L20 5L20 7L19 7L19 6L18 6L18 7L17 7L17 8L18 8L18 9L19 9L19 8L21 8L21 5L22 5L22 7L23 7L23 6L24 6L24 8L25 8L25 4L26 4L26 3ZM44 3L44 6L43 6L43 7L44 7L44 6L45 6L45 5L47 5L47 3ZM23 4L23 5L24 5L24 4ZM32 4L32 5L34 5L34 7L33 7L33 6L32 6L32 7L33 7L33 9L34 9L34 8L35 8L35 5L34 5L34 4ZM8 5L8 7L9 7L9 5ZM27 5L27 8L30 8L30 5ZM28 6L28 7L29 7L29 6ZM48 6L48 7L49 7L49 6ZM0 8L0 9L2 9L2 12L1 12L1 13L2 13L2 12L3 12L3 11L4 11L4 10L5 10L5 8ZM7 10L7 11L8 11L8 12L9 12L9 10ZM32 10L32 11L31 11L31 13L30 13L30 14L31 14L31 13L32 13L32 11L33 11L33 10ZM20 12L20 13L21 13L21 15L20 15L20 16L18 16L18 15L17 15L17 16L16 16L16 17L17 17L17 18L15 18L15 17L14 17L14 18L15 18L15 19L17 19L17 18L18 18L18 20L17 20L17 21L16 21L16 20L15 20L15 21L16 21L16 22L15 22L15 23L16 23L16 24L15 24L15 25L16 25L16 24L17 24L17 27L16 27L16 29L18 29L18 28L17 28L17 27L18 27L18 26L19 26L19 27L20 27L20 26L19 26L19 25L21 25L21 27L22 27L22 26L24 26L24 27L25 27L25 28L23 28L23 30L24 30L24 32L25 32L25 31L26 31L26 32L27 32L27 31L31 31L31 30L32 30L32 32L31 32L31 33L29 33L29 32L28 32L28 33L29 33L29 34L30 34L30 36L29 36L29 37L31 37L31 38L29 38L29 39L33 39L33 40L35 40L35 42L37 42L37 43L36 43L36 44L35 44L35 43L34 43L34 42L33 42L33 41L32 41L32 40L31 40L31 41L30 41L30 42L29 42L29 43L28 43L28 44L31 44L31 46L32 46L32 44L33 44L33 43L34 43L34 45L35 45L35 46L37 46L37 47L36 47L36 48L33 48L33 49L36 49L36 50L38 50L38 51L40 51L40 52L41 52L41 50L38 50L38 49L39 49L39 48L38 48L38 47L39 47L39 46L38 46L38 45L39 45L39 44L40 44L40 43L39 43L39 42L38 42L38 40L40 40L40 39L39 39L39 38L38 38L38 37L37 37L37 36L38 36L38 33L37 33L37 32L35 32L35 31L36 31L36 30L37 30L37 29L38 29L38 28L39 28L39 27L36 27L36 26L34 26L34 27L33 27L33 26L32 26L32 24L33 24L33 25L37 25L37 26L38 26L38 24L39 24L39 25L40 25L40 24L41 24L41 25L42 25L42 26L40 26L40 27L41 27L41 28L42 28L42 26L43 26L43 27L44 27L44 28L43 28L43 29L41 29L41 30L43 30L43 29L44 29L44 28L45 28L45 27L46 27L46 26L45 26L45 25L47 25L47 24L48 24L48 23L47 23L47 22L49 22L49 21L47 21L47 22L45 22L45 25L44 25L44 20L45 20L45 21L46 21L46 20L45 20L45 18L44 18L44 15L45 15L45 17L47 17L47 18L46 18L46 19L47 19L47 18L50 18L50 17L49 17L49 16L50 16L50 15L49 15L49 14L50 14L50 12L49 12L49 13L47 13L47 14L44 14L44 15L42 15L42 16L41 16L41 17L39 17L39 16L38 16L38 17L37 17L37 16L35 16L35 17L37 17L37 18L38 18L38 17L39 17L39 19L38 19L38 20L36 20L36 19L35 19L35 20L34 20L34 21L35 21L35 23L34 23L34 22L33 22L33 23L32 23L32 24L30 24L30 25L28 25L28 26L26 26L26 25L25 25L25 24L24 24L24 23L21 23L21 24L17 24L17 22L18 22L18 23L20 23L20 22L19 22L19 21L20 21L20 19L19 19L19 18L20 18L20 16L21 16L21 17L22 17L22 16L21 16L21 15L24 15L24 16L25 16L25 17L26 17L26 15L25 15L25 13L24 13L24 14L22 14L22 13L21 13L21 12ZM33 12L33 13L34 13L34 12ZM52 12L52 13L53 13L53 12ZM12 13L12 14L13 14L13 13ZM28 13L28 14L29 14L29 13ZM27 15L27 16L28 16L28 15ZM46 15L46 16L47 16L47 15ZM48 15L48 16L49 16L49 15ZM17 16L17 17L18 17L18 18L19 18L19 17L18 17L18 16ZM42 16L42 17L43 17L43 16ZM4 18L4 19L5 19L5 18ZM41 18L41 19L42 19L42 18ZM43 18L43 20L44 20L44 18ZM38 20L38 23L37 23L37 24L38 24L38 23L39 23L39 24L40 24L40 22L39 22L39 21L42 21L42 20ZM9 21L9 23L12 23L12 22L10 22L10 21ZM22 21L22 22L24 22L24 21ZM4 23L4 24L7 24L7 23ZM41 23L41 24L43 24L43 23ZM46 23L46 24L47 24L47 23ZM49 23L49 24L50 24L50 25L51 25L51 24L50 24L50 23ZM21 24L21 25L24 25L24 24ZM1 25L1 26L2 26L2 25ZM4 25L4 26L5 26L5 25ZM55 25L55 26L56 26L56 25ZM25 26L25 27L26 27L26 26ZM31 26L31 27L32 27L32 30L35 30L35 28L36 28L36 27L35 27L35 28L33 28L33 27L32 27L32 26ZM44 26L44 27L45 27L45 26ZM53 26L53 27L54 27L54 26ZM5 27L5 30L8 30L8 27ZM9 27L9 28L11 28L11 27ZM27 27L27 30L30 30L30 27ZM49 27L49 30L52 30L52 27ZM55 27L55 28L54 28L54 29L53 29L53 30L54 30L54 29L55 29L55 28L56 28L56 27ZM3 28L3 29L2 29L2 30L3 30L3 29L4 29L4 28ZM6 28L6 29L7 29L7 28ZM25 28L25 29L26 29L26 28ZM28 28L28 29L29 29L29 28ZM50 28L50 29L51 29L51 28ZM39 29L39 30L38 30L38 32L39 32L39 30L40 30L40 29ZM10 30L10 31L12 31L12 30ZM1 31L1 32L2 32L2 31ZM20 31L20 32L23 32L23 31ZM33 31L33 32L32 32L32 33L33 33L33 34L31 34L31 35L33 35L33 36L32 36L32 37L33 37L33 38L34 38L34 39L35 39L35 40L38 40L38 38L37 38L37 39L35 39L35 37L33 37L33 36L34 36L34 35L35 35L35 36L37 36L37 34L35 34L35 33L34 33L34 31ZM47 31L47 32L48 32L48 33L49 33L49 32L48 32L48 31ZM53 31L53 32L54 32L54 31ZM41 32L41 33L39 33L39 34L40 34L40 35L39 35L39 37L40 37L40 38L41 38L41 39L42 39L42 38L43 38L43 37L44 37L44 38L45 38L45 39L46 39L46 38L45 38L45 37L47 37L47 36L48 36L48 35L50 35L50 36L51 36L51 37L52 37L52 35L53 35L53 34L52 34L52 33L51 33L51 32L50 32L50 34L48 34L48 35L47 35L47 34L45 34L45 35L44 35L44 33L43 33L43 32ZM17 33L17 38L18 38L18 39L17 39L17 40L16 40L16 39L15 39L15 41L17 41L17 42L18 42L18 41L19 41L19 42L20 42L20 41L19 41L19 40L21 40L21 39L24 39L24 40L23 40L23 42L22 42L22 41L21 41L21 42L22 42L22 43L21 43L21 44L22 44L22 45L24 45L24 46L25 46L25 45L24 45L24 44L23 44L23 43L24 43L24 42L25 42L25 41L24 41L24 40L25 40L25 39L27 39L27 40L28 40L28 41L26 41L26 42L28 42L28 41L29 41L29 40L28 40L28 39L27 39L27 38L28 38L28 37L27 37L27 33L26 33L26 35L25 35L25 33L23 33L23 34L22 34L22 33L21 33L21 34L20 34L20 33L19 33L19 34L18 34L18 33ZM19 34L19 37L18 37L18 38L19 38L19 39L20 39L20 38L19 38L19 37L21 37L21 38L24 38L24 37L23 37L23 36L24 36L24 34L23 34L23 35L21 35L21 36L20 36L20 34ZM42 34L42 35L41 35L41 36L40 36L40 37L41 37L41 38L42 38L42 37L41 37L41 36L44 36L44 37L45 37L45 36L44 36L44 35L43 35L43 34ZM50 34L50 35L52 35L52 34ZM14 35L14 38L16 38L16 37L15 37L15 36L16 36L16 35ZM25 36L25 38L26 38L26 36ZM2 38L2 39L3 39L3 40L4 40L4 39L3 39L3 38ZM6 38L6 39L7 39L7 40L8 40L8 44L6 44L6 45L7 45L7 46L8 46L8 47L9 47L9 46L10 46L10 44L12 44L12 42L11 42L11 41L12 41L12 40L13 40L13 38L11 38L11 39L9 39L9 38L8 38L8 39L7 39L7 38ZM51 38L51 39L52 39L52 38ZM54 38L54 39L55 39L55 38ZM11 39L11 40L12 40L12 39ZM9 40L9 44L8 44L8 45L9 45L9 44L10 44L10 43L11 43L11 42L10 42L10 40ZM31 41L31 42L32 42L32 43L33 43L33 42L32 42L32 41ZM51 41L51 42L50 42L50 43L48 43L48 44L47 44L47 45L49 45L49 46L50 46L50 48L53 48L53 49L54 49L54 48L53 48L53 47L54 47L54 45L55 45L55 46L56 46L56 45L55 45L55 44L54 44L54 45L51 45L51 44L53 44L53 43L54 43L54 42L53 42L53 41ZM6 42L6 43L7 43L7 42ZM51 42L51 43L50 43L50 44L49 44L49 45L50 45L50 46L51 46L51 47L53 47L53 46L51 46L51 45L50 45L50 44L51 44L51 43L53 43L53 42ZM25 43L25 44L27 44L27 43ZM26 45L26 47L27 47L27 45ZM47 46L47 47L48 47L48 48L49 48L49 47L48 47L48 46ZM17 47L17 48L18 48L18 47ZM37 48L37 49L38 49L38 48ZM55 48L55 49L56 49L56 48ZM15 49L15 50L16 50L16 49ZM19 49L19 50L20 50L20 49ZM27 49L27 52L30 52L30 49ZM49 49L49 52L52 52L52 49ZM28 50L28 51L29 51L29 50ZM50 50L50 51L51 51L51 50ZM54 50L54 51L55 51L55 50ZM31 51L31 53L30 53L30 54L27 54L27 56L29 56L29 55L30 55L30 56L31 56L31 54L32 54L32 53L33 53L33 55L35 55L35 56L36 56L36 54L35 54L35 51L33 51L33 52L32 52L32 51ZM33 52L33 53L34 53L34 52ZM53 52L53 53L54 53L54 52ZM11 53L11 54L12 54L12 53ZM43 53L43 54L44 54L44 53ZM17 54L17 55L19 55L19 54ZM41 54L41 55L42 55L42 54ZM9 55L9 56L10 56L10 55ZM50 55L50 56L51 56L51 55ZM43 56L43 57L44 57L44 56ZM0 0L0 7L7 7L7 0ZM1 1L1 6L6 6L6 1ZM2 2L2 5L5 5L5 2ZM50 0L50 7L57 7L57 0ZM51 1L51 6L56 6L56 1ZM52 2L52 5L55 5L55 2ZM0 50L0 57L7 57L7 50ZM1 51L1 56L6 56L6 51ZM2 52L2 55L5 55L5 52Z" fill="#000000"/></g></g></svg>
