<?xml version="1.0" encoding="UTF-8"?>
<svg xmlns="http://www.w3.org/2000/svg" version="1.1" width="300" height="300" viewBox="0 0 300 300"><rect x="0" y="0" width="300" height="300" fill="#fefefe"/><g transform="scale(4.615)"><g transform="translate(4,4)"><path fill-rule="evenodd" d="M8 0L8 1L9 1L9 2L8 2L8 5L9 5L9 6L8 6L8 7L9 7L9 6L10 6L10 7L11 7L11 8L8 8L8 9L7 9L7 8L6 8L6 9L7 9L7 10L6 10L6 11L5 11L5 9L4 9L4 8L0 8L0 11L1 11L1 12L0 12L0 14L4 14L4 13L7 13L7 12L8 12L8 13L9 13L9 12L8 12L8 11L10 11L10 12L12 12L12 11L13 11L13 13L11 13L11 14L12 14L12 15L11 15L11 16L10 16L10 14L9 14L9 15L8 15L8 14L5 14L5 15L4 15L4 16L3 16L3 18L4 18L4 20L6 20L6 21L3 21L3 20L2 20L2 17L0 17L0 21L1 21L1 22L2 22L2 21L3 21L3 23L2 23L2 28L1 28L1 24L0 24L0 30L1 30L1 31L0 31L0 33L1 33L1 31L3 31L3 32L2 32L2 33L4 33L4 36L6 36L6 37L7 37L7 38L5 38L5 37L3 37L3 38L2 38L2 40L1 40L1 39L0 39L0 40L1 40L1 43L2 43L2 42L3 42L3 43L4 43L4 42L6 42L6 43L8 43L8 44L6 44L6 45L7 45L7 46L5 46L5 45L4 45L4 44L2 44L2 45L1 45L1 44L0 44L0 48L5 48L5 47L7 47L7 46L8 46L8 48L6 48L6 49L8 49L8 50L12 50L12 51L13 51L13 53L12 53L12 52L11 52L11 51L10 51L10 52L9 52L9 53L8 53L8 57L12 57L12 56L13 56L13 55L14 55L14 56L15 56L15 57L18 57L18 56L17 56L17 55L20 55L20 57L23 57L23 54L26 54L26 55L27 55L27 56L28 56L28 55L27 55L27 54L26 54L26 53L29 53L29 54L31 54L31 55L30 55L30 56L31 56L31 57L32 57L32 55L33 55L33 54L36 54L36 55L34 55L34 56L33 56L33 57L36 57L36 55L38 55L38 57L41 57L41 56L42 56L42 57L43 57L43 55L44 55L44 56L45 56L45 57L46 57L46 55L44 55L44 54L47 54L47 55L48 55L48 56L49 56L49 57L51 57L51 54L52 54L52 53L54 53L54 54L53 54L53 56L52 56L52 57L55 57L55 56L54 56L54 54L56 54L56 53L57 53L57 51L55 51L55 50L57 50L57 48L56 48L56 49L55 49L55 50L53 50L53 48L54 48L54 47L57 47L57 44L53 44L53 45L54 45L54 46L53 46L53 47L51 47L51 46L52 46L52 43L53 43L53 42L54 42L54 43L56 43L56 42L54 42L54 41L55 41L55 39L53 39L53 38L52 38L52 36L53 36L53 37L55 37L55 38L56 38L56 39L57 39L57 38L56 38L56 36L57 36L57 31L56 31L56 30L57 30L57 28L56 28L56 24L54 24L54 23L57 23L57 20L56 20L56 18L57 18L57 15L54 15L54 14L55 14L55 13L54 13L54 10L53 10L53 9L55 9L55 11L56 11L56 12L57 12L57 10L56 10L56 9L57 9L57 8L56 8L56 9L55 9L55 8L52 8L52 9L51 9L51 10L50 10L50 8L49 8L49 9L47 9L47 10L46 10L46 11L47 11L47 12L48 12L48 10L50 10L50 11L49 11L49 17L52 17L52 16L55 16L55 17L54 17L54 18L52 18L52 19L55 19L55 20L54 20L54 21L55 21L55 20L56 20L56 22L53 22L53 20L50 20L50 19L47 19L47 18L48 18L48 14L47 14L47 16L46 16L46 15L45 15L45 14L46 14L46 13L44 13L44 12L43 12L43 11L44 11L44 9L43 9L43 8L44 8L44 7L45 7L45 8L46 8L46 7L47 7L47 5L48 5L48 0L45 0L45 1L44 1L44 2L42 2L42 3L43 3L43 5L45 5L45 4L44 4L44 3L45 3L45 1L47 1L47 2L46 2L46 3L47 3L47 5L46 5L46 7L45 7L45 6L44 6L44 7L43 7L43 6L42 6L42 7L41 7L41 4L38 4L38 3L39 3L39 2L37 2L37 1L38 1L38 0L37 0L37 1L36 1L36 0L35 0L35 1L34 1L34 2L33 2L33 1L31 1L31 0L28 0L28 3L30 3L30 4L26 4L26 0L23 0L23 1L22 1L22 0L21 0L21 1L22 1L22 2L21 2L21 5L20 5L20 4L19 4L19 3L18 3L18 1L19 1L19 2L20 2L20 0L17 0L17 1L16 1L16 2L15 2L15 3L17 3L17 4L19 4L19 5L15 5L15 4L14 4L14 3L13 3L13 2L12 2L12 3L13 3L13 4L14 4L14 5L12 5L12 4L10 4L10 5L9 5L9 2L10 2L10 3L11 3L11 1L10 1L10 0ZM13 0L13 1L14 1L14 0ZM39 0L39 1L40 1L40 2L41 2L41 1L43 1L43 0L41 0L41 1L40 1L40 0ZM23 1L23 2L22 2L22 4L23 4L23 3L24 3L24 2L25 2L25 1ZM29 1L29 2L30 2L30 3L31 3L31 1ZM35 1L35 2L36 2L36 1ZM32 3L32 4L31 4L31 5L32 5L32 6L31 6L31 9L32 9L32 10L29 10L29 11L28 11L28 10L26 10L26 11L25 11L25 12L23 12L23 11L20 11L20 10L21 10L21 8L22 8L22 6L23 6L23 7L24 7L24 8L25 8L25 9L26 9L26 6L25 6L25 5L26 5L26 4L24 4L24 6L23 6L23 5L21 5L21 7L20 7L20 6L19 6L19 7L18 7L18 6L17 6L17 7L16 7L16 6L15 6L15 5L14 5L14 6L13 6L13 7L12 7L12 5L11 5L11 7L12 7L12 8L11 8L11 9L10 9L10 10L11 10L11 11L12 11L12 10L11 10L11 9L14 9L14 11L15 11L15 8L16 8L16 11L17 11L17 10L18 10L18 12L17 12L17 13L16 13L16 12L15 12L15 15L14 15L14 16L15 16L15 15L16 15L16 16L17 16L17 17L18 17L18 18L21 18L21 17L22 17L22 20L23 20L23 21L21 21L21 20L19 20L19 19L18 19L18 21L19 21L19 22L22 22L22 23L20 23L20 24L21 24L21 26L20 26L20 25L19 25L19 27L17 27L17 24L18 24L18 23L16 23L16 20L17 20L17 18L16 18L16 17L15 17L15 18L14 18L14 17L13 17L13 16L12 16L12 18L13 18L13 19L12 19L12 20L10 20L10 19L9 19L9 18L8 18L8 15L5 15L5 16L4 16L4 17L5 17L5 18L7 18L7 19L6 19L6 20L7 20L7 21L6 21L6 22L8 22L8 23L6 23L6 24L5 24L5 26L9 26L9 27L10 27L10 26L12 26L12 27L13 27L13 28L11 28L11 29L10 29L10 30L11 30L11 31L8 31L8 32L7 32L7 31L6 31L6 32L5 32L5 31L4 31L4 30L3 30L3 31L4 31L4 33L6 33L6 34L7 34L7 33L9 33L9 34L11 34L11 35L10 35L10 37L11 37L11 38L10 38L10 39L12 39L12 40L13 40L13 41L12 41L12 42L11 42L11 41L10 41L10 42L11 42L11 43L9 43L9 44L12 44L12 45L13 45L13 44L16 44L16 43L17 43L17 45L14 45L14 46L13 46L13 48L12 48L12 49L13 49L13 51L14 51L14 52L15 52L15 53L16 53L16 54L17 54L17 53L18 53L18 54L19 54L19 51L21 51L21 53L20 53L20 55L21 55L21 56L22 56L22 54L23 54L23 52L24 52L24 53L25 53L25 52L26 52L26 48L27 48L27 46L29 46L29 47L28 47L28 48L29 48L29 47L30 47L30 48L32 48L32 49L31 49L31 50L32 50L32 49L34 49L34 50L33 50L33 52L35 52L35 53L36 53L36 54L37 54L37 52L40 52L40 54L41 54L41 53L42 53L42 54L43 54L43 52L42 52L42 51L44 51L44 49L46 49L46 50L45 50L45 51L47 51L47 52L46 52L46 53L47 53L47 52L48 52L48 48L45 48L45 47L46 47L46 46L48 46L48 47L49 47L49 48L51 48L51 47L49 47L49 46L51 46L51 42L50 42L50 41L52 41L52 40L53 40L53 39L52 39L52 38L50 38L50 39L52 39L52 40L50 40L50 41L47 41L47 40L49 40L49 37L48 37L48 36L47 36L47 35L46 35L46 34L48 34L48 35L49 35L49 34L50 34L50 33L49 33L49 32L48 32L48 28L47 28L47 31L46 31L46 32L45 32L45 30L46 30L46 26L49 26L49 25L47 25L47 23L48 23L48 22L47 22L47 21L49 21L49 24L50 24L50 25L51 25L51 26L53 26L53 27L55 27L55 25L53 25L53 24L51 24L51 23L52 23L52 22L51 22L51 21L50 21L50 20L47 20L47 19L46 19L46 18L45 18L45 17L46 17L46 16L45 16L45 15L44 15L44 13L43 13L43 12L42 12L42 11L43 11L43 10L42 10L42 11L41 11L41 9L42 9L42 8L41 8L41 7L40 7L40 5L38 5L38 6L37 6L37 5L36 5L36 4L34 4L34 5L33 5L33 3ZM27 5L27 8L30 8L30 5ZM14 6L14 7L13 7L13 8L14 8L14 7L15 7L15 6ZM24 6L24 7L25 7L25 6ZM28 6L28 7L29 7L29 6ZM32 6L32 8L33 8L33 6ZM34 6L34 9L36 9L36 8L38 8L38 9L37 9L37 11L38 11L38 12L36 12L36 10L35 10L35 11L34 11L34 10L33 10L33 14L32 14L32 15L33 15L33 16L31 16L31 14L30 14L30 13L28 13L28 12L26 12L26 13L27 13L27 16L26 16L26 14L25 14L25 16L24 16L24 14L23 14L23 18L24 18L24 19L25 19L25 22L24 22L24 21L23 21L23 23L22 23L22 24L24 24L24 25L25 25L25 26L23 26L23 25L22 25L22 27L24 27L24 28L23 28L23 29L21 29L21 27L20 27L20 29L21 29L21 30L24 30L24 28L26 28L26 30L25 30L25 31L22 31L22 32L21 32L21 31L20 31L20 30L18 30L18 31L17 31L17 35L16 35L16 36L18 36L18 38L19 38L19 40L20 40L20 41L22 41L22 44L20 44L20 45L21 45L21 46L22 46L22 47L21 47L21 48L20 48L20 47L19 47L19 48L17 48L17 47L18 47L18 46L19 46L19 45L17 45L17 47L16 47L16 46L14 46L14 48L13 48L13 49L14 49L14 50L15 50L15 51L16 51L16 52L18 52L18 51L17 51L17 50L18 50L18 49L19 49L19 50L21 50L21 48L23 48L23 49L22 49L22 51L23 51L23 49L24 49L24 48L26 48L26 47L25 47L25 45L26 45L26 46L27 46L27 45L29 45L29 46L32 46L32 45L31 45L31 44L32 44L32 42L33 42L33 45L34 45L34 44L35 44L35 46L34 46L34 47L33 47L33 48L35 48L35 52L36 52L36 51L39 51L39 50L40 50L40 49L39 49L39 48L38 48L38 49L37 49L37 48L35 48L35 46L37 46L37 47L38 47L38 45L39 45L39 46L40 46L40 47L43 47L43 49L44 49L44 47L45 47L45 46L43 46L43 45L42 45L42 43L43 43L43 44L48 44L48 45L49 45L49 43L50 43L50 42L49 42L49 43L48 43L48 42L47 42L47 41L46 41L46 40L47 40L47 39L48 39L48 38L46 38L46 37L47 37L47 36L45 36L45 34L44 34L44 30L45 30L45 27L44 27L44 26L46 26L46 23L47 23L47 22L46 22L46 23L45 23L45 22L44 22L44 21L43 21L43 20L41 20L41 18L42 18L42 19L43 19L43 18L42 18L42 17L45 17L45 16L44 16L44 15L43 15L43 14L42 14L42 17L41 17L41 18L39 18L39 19L40 19L40 20L39 20L39 22L38 22L38 21L36 21L36 20L38 20L38 19L36 19L36 20L35 20L35 17L34 17L34 16L35 16L35 15L36 15L36 13L37 13L37 15L39 15L39 17L40 17L40 16L41 16L41 15L39 15L39 14L40 14L40 13L39 13L39 12L40 12L40 11L39 11L39 10L40 10L40 9L41 9L41 8L38 8L38 7L39 7L39 6L38 6L38 7L37 7L37 6L36 6L36 7L35 7L35 6ZM48 6L48 7L49 7L49 6ZM19 7L19 10L20 10L20 7ZM17 8L17 9L18 9L18 8ZM2 9L2 10L1 10L1 11L2 11L2 12L1 12L1 13L2 13L2 12L3 12L3 11L4 11L4 12L5 12L5 11L4 11L4 9ZM38 9L38 10L39 10L39 9ZM7 10L7 11L6 11L6 12L7 12L7 11L8 11L8 10ZM51 10L51 12L50 12L50 13L51 13L51 15L53 15L53 14L52 14L52 13L53 13L53 11L52 11L52 10ZM30 11L30 12L31 12L31 13L32 13L32 12L31 12L31 11ZM18 12L18 13L19 13L19 14L18 14L18 16L19 16L19 17L21 17L21 12L20 12L20 13L19 13L19 12ZM22 12L22 13L23 13L23 12ZM34 12L34 14L33 14L33 15L35 15L35 12ZM51 12L51 13L52 13L52 12ZM13 13L13 14L14 14L14 13ZM16 14L16 15L17 15L17 14ZM0 15L0 16L2 16L2 15ZM19 15L19 16L20 16L20 15ZM28 15L28 16L29 16L29 17L27 17L27 18L25 18L25 17L26 17L26 16L25 16L25 17L24 17L24 18L25 18L25 19L27 19L27 20L26 20L26 21L27 21L27 20L28 20L28 18L29 18L29 17L30 17L30 19L29 19L29 21L28 21L28 23L27 23L27 22L25 22L25 25L28 25L28 26L31 26L31 23L32 23L32 22L33 22L33 24L32 24L32 25L33 25L33 24L35 24L35 23L36 23L36 24L37 24L37 23L38 23L38 24L39 24L39 23L38 23L38 22L35 22L35 20L34 20L34 19L33 19L33 17L31 17L31 16L29 16L29 15ZM6 16L6 17L7 17L7 16ZM9 16L9 17L10 17L10 16ZM36 17L36 18L37 18L37 17ZM55 17L55 18L56 18L56 17ZM15 18L15 19L13 19L13 21L10 21L10 20L9 20L9 19L7 19L7 20L8 20L8 21L9 21L9 22L11 22L11 23L13 23L13 24L11 24L11 25L13 25L13 26L14 26L14 27L15 27L15 28L14 28L14 29L16 29L16 30L15 30L15 31L14 31L14 30L12 30L12 33L11 33L11 32L10 32L10 33L11 33L11 34L12 34L12 35L14 35L14 36L13 36L13 37L14 37L14 38L15 38L15 40L14 40L14 39L13 39L13 40L14 40L14 41L13 41L13 43L12 43L12 44L13 44L13 43L15 43L15 41L16 41L16 42L18 42L18 43L19 43L19 41L18 41L18 39L17 39L17 38L15 38L15 37L14 37L14 36L15 36L15 35L14 35L14 34L13 34L13 33L16 33L16 30L17 30L17 28L16 28L16 27L15 27L15 26L16 26L16 23L15 23L15 22L14 22L14 20L15 20L15 19L16 19L16 18ZM31 18L31 20L30 20L30 21L29 21L29 23L28 23L28 24L30 24L30 22L31 22L31 20L32 20L32 18ZM44 18L44 19L45 19L45 18ZM33 20L33 21L34 21L34 20ZM42 22L42 23L40 23L40 27L39 27L39 26L38 26L38 27L39 27L39 28L40 28L40 30L39 30L39 29L38 29L38 30L36 30L36 29L37 29L37 28L36 28L36 27L35 27L35 25L34 25L34 27L35 27L35 28L34 28L34 29L35 29L35 30L36 30L36 31L37 31L37 32L36 32L36 33L37 33L37 32L38 32L38 34L39 34L39 31L40 31L40 32L41 32L41 31L43 31L43 29L42 29L42 30L41 30L41 26L43 26L43 25L41 25L41 24L43 24L43 22ZM3 23L3 24L4 24L4 23ZM9 23L9 24L8 24L8 25L9 25L9 24L10 24L10 23ZM26 23L26 24L27 24L27 23ZM44 23L44 25L45 25L45 23ZM6 24L6 25L7 25L7 24ZM14 24L14 25L15 25L15 24ZM3 25L3 29L4 29L4 25ZM5 27L5 30L8 30L8 27ZM27 27L27 30L30 30L30 27ZM31 27L31 28L33 28L33 27ZM42 27L42 28L44 28L44 27ZM49 27L49 30L52 30L52 27ZM6 28L6 29L7 29L7 28ZM18 28L18 29L19 29L19 28ZM28 28L28 29L29 29L29 28ZM50 28L50 29L51 29L51 28ZM53 28L53 29L54 29L54 30L53 30L53 31L50 31L50 32L52 32L52 34L54 34L54 33L53 33L53 31L54 31L54 32L55 32L55 30L56 30L56 28L55 28L55 29L54 29L54 28ZM31 29L31 31L32 31L32 30L33 30L33 29ZM38 30L38 31L39 31L39 30ZM19 31L19 32L18 32L18 33L20 33L20 34L18 34L18 36L19 36L19 37L20 37L20 38L21 38L21 40L22 40L22 41L23 41L23 42L25 42L25 43L26 43L26 45L27 45L27 44L28 44L28 43L27 43L27 42L25 42L25 41L26 41L26 38L29 38L29 36L32 36L32 38L30 38L30 39L28 39L28 41L30 41L30 40L33 40L33 39L34 39L34 38L36 38L36 39L35 39L35 40L34 40L34 41L36 41L36 42L34 42L34 43L36 43L36 45L38 45L38 44L39 44L39 43L40 43L40 44L41 44L41 40L43 40L43 41L42 41L42 42L45 42L45 43L47 43L47 42L45 42L45 41L44 41L44 40L43 40L43 39L40 39L40 42L39 42L39 41L37 41L37 40L38 40L38 39L39 39L39 38L37 38L37 37L39 37L39 36L40 36L40 37L41 37L41 35L42 35L42 36L43 36L43 35L42 35L42 34L41 34L41 35L37 35L37 37L34 37L34 38L33 38L33 36L32 36L32 35L33 35L33 34L34 34L34 36L36 36L36 35L35 35L35 31L33 31L33 32L31 32L31 34L30 34L30 35L29 35L29 33L30 33L30 32L29 32L29 31L28 31L28 33L27 33L27 31L26 31L26 32L25 32L25 34L24 34L24 35L23 35L23 33L24 33L24 32L23 32L23 33L22 33L22 35L23 35L23 36L19 36L19 35L20 35L20 34L21 34L21 33L20 33L20 31ZM6 32L6 33L7 33L7 32ZM42 32L42 33L43 33L43 32ZM26 33L26 34L25 34L25 35L26 35L26 37L27 37L27 36L29 36L29 35L28 35L28 34L27 34L27 33ZM32 33L32 34L33 34L33 33ZM55 33L55 34L56 34L56 33ZM1 34L1 35L2 35L2 36L0 36L0 37L2 37L2 36L3 36L3 34ZM6 35L6 36L7 36L7 35ZM51 35L51 36L52 36L52 35ZM54 35L54 36L56 36L56 35ZM8 36L8 37L9 37L9 36ZM23 36L23 39L24 39L24 41L25 41L25 39L24 39L24 37L25 37L25 36ZM44 36L44 37L42 37L42 38L44 38L44 39L45 39L45 40L46 40L46 39L45 39L45 36ZM21 37L21 38L22 38L22 37ZM7 38L7 39L3 39L3 40L2 40L2 41L3 41L3 42L4 42L4 40L7 40L7 39L9 39L9 38ZM32 38L32 39L33 39L33 38ZM16 39L16 40L17 40L17 39ZM8 40L8 41L9 41L9 40ZM56 40L56 41L57 41L57 40ZM6 41L6 42L7 42L7 41ZM20 42L20 43L21 43L21 42ZM37 42L37 44L38 44L38 43L39 43L39 42ZM23 43L23 44L22 44L22 46L23 46L23 44L24 44L24 43ZM30 43L30 44L31 44L31 43ZM3 45L3 47L5 47L5 46L4 46L4 45ZM55 45L55 46L56 46L56 45ZM1 46L1 47L2 47L2 46ZM10 47L10 48L11 48L11 47ZM15 47L15 48L14 48L14 49L15 49L15 50L17 50L17 49L16 49L16 47ZM8 48L8 49L9 49L9 48ZM41 48L41 49L42 49L42 48ZM27 49L27 52L30 52L30 49ZM36 49L36 50L37 50L37 49ZM49 49L49 52L52 52L52 49ZM24 50L24 51L25 51L25 50ZM28 50L28 51L29 51L29 50ZM50 50L50 51L51 51L51 50ZM31 51L31 53L32 53L32 51ZM40 51L40 52L41 52L41 51ZM54 52L54 53L55 53L55 52ZM9 53L9 56L10 56L10 55L13 55L13 54L14 54L14 53L13 53L13 54L10 54L10 53ZM21 53L21 54L22 54L22 53ZM38 53L38 54L39 54L39 53ZM48 53L48 54L50 54L50 53ZM24 55L24 56L25 56L25 55ZM39 55L39 56L41 56L41 55ZM56 55L56 56L57 56L57 55ZM0 0L0 7L7 7L7 0ZM1 1L1 6L6 6L6 1ZM2 2L2 5L5 5L5 2ZM50 0L50 7L57 7L57 0ZM51 1L51 6L56 6L56 1ZM52 2L52 5L55 5L55 2ZM0 50L0 57L7 57L7 50ZM1 51L1 56L6 56L6 51ZM2 52L2 55L5 55L5 52Z" fill="#000000"/></g></g></svg>
