<?xml version="1.0" encoding="UTF-8"?>
<svg xmlns="http://www.w3.org/2000/svg" version="1.1" width="300" height="300" viewBox="0 0 300 300"><rect x="0" y="0" width="300" height="300" fill="#fefefe"/><g transform="scale(4.615)"><g transform="translate(4,4)"><path fill-rule="evenodd" d="M8 0L8 1L9 1L9 2L8 2L8 5L9 5L9 6L8 6L8 7L9 7L9 8L8 8L8 9L9 9L9 10L8 10L8 11L7 11L7 10L6 10L6 11L7 11L7 12L5 12L5 11L4 11L4 10L3 10L3 9L4 9L4 8L0 8L0 11L1 11L1 12L2 12L2 13L1 13L1 14L0 14L0 15L1 15L1 17L3 17L3 18L2 18L2 19L1 19L1 18L0 18L0 20L1 20L1 21L0 21L0 22L1 22L1 26L0 26L0 28L1 28L1 29L0 29L0 31L2 31L2 32L3 32L3 30L4 30L4 32L5 32L5 33L4 33L4 37L7 37L7 38L5 38L5 41L4 41L4 39L3 39L3 37L2 37L2 40L3 40L3 41L2 41L2 45L1 45L1 42L0 42L0 45L1 45L1 46L0 46L0 48L5 48L5 47L7 47L7 48L6 48L6 49L7 49L7 48L9 48L9 49L8 49L8 50L9 50L9 53L8 53L8 57L9 57L9 55L10 55L10 57L11 57L11 56L12 56L12 57L13 57L13 56L14 56L14 57L15 57L15 56L16 56L16 57L18 57L18 56L19 56L19 55L20 55L20 57L23 57L23 56L22 56L22 55L23 55L23 54L26 54L26 55L27 55L27 56L28 56L28 55L27 55L27 54L26 54L26 53L29 53L29 54L31 54L31 55L30 55L30 56L31 56L31 57L32 57L32 55L33 55L33 54L36 54L36 55L34 55L34 56L33 56L33 57L36 57L36 55L38 55L38 57L43 57L43 56L45 56L45 57L46 57L46 55L47 55L47 56L48 56L48 57L51 57L51 54L52 54L52 53L53 53L53 55L55 55L55 54L56 54L56 53L57 53L57 52L55 52L55 50L57 50L57 48L56 48L56 49L55 49L55 48L54 48L54 46L55 46L55 47L57 47L57 45L56 45L56 46L55 46L55 44L56 44L56 41L57 41L57 40L56 40L56 41L55 41L55 42L54 42L54 40L55 40L55 38L56 38L56 39L57 39L57 38L56 38L56 36L57 36L57 31L56 31L56 30L57 30L57 27L56 27L56 28L55 28L55 27L53 27L53 25L49 25L49 21L48 21L48 20L46 20L46 19L48 19L48 17L47 17L47 16L48 16L48 14L47 14L47 16L44 16L44 15L45 15L45 14L46 14L46 13L45 13L45 14L44 14L44 10L45 10L45 11L48 11L48 12L49 12L49 15L51 15L51 13L52 13L52 14L54 14L54 10L53 10L53 13L52 13L52 12L51 12L51 11L52 11L52 9L55 9L55 13L57 13L57 12L56 12L56 11L57 11L57 10L56 10L56 9L57 9L57 8L56 8L56 9L55 9L55 8L52 8L52 9L51 9L51 10L50 10L50 8L48 8L48 9L47 9L47 8L45 8L45 9L44 9L44 10L43 10L43 8L44 8L44 7L45 7L45 6L44 6L44 7L43 7L43 5L45 5L45 4L44 4L44 3L45 3L45 1L47 1L47 2L46 2L46 3L47 3L47 5L46 5L46 7L47 7L47 5L48 5L48 0L45 0L45 1L44 1L44 2L41 2L41 1L43 1L43 0L41 0L41 1L40 1L40 0L39 0L39 1L40 1L40 2L41 2L41 4L37 4L37 1L38 1L38 0L37 0L37 1L36 1L36 0L35 0L35 1L34 1L34 2L32 2L32 1L33 1L33 0L32 0L32 1L31 1L31 0L29 0L29 1L28 1L28 0L27 0L27 4L26 4L26 2L24 2L24 3L23 3L23 2L22 2L22 0L21 0L21 1L20 1L20 0L18 0L18 1L19 1L19 2L20 2L20 3L23 3L23 4L22 4L22 5L23 5L23 6L22 6L22 8L21 8L21 10L20 10L20 9L19 9L19 10L20 10L20 11L19 11L19 12L18 12L18 10L16 10L16 11L14 11L14 9L13 9L13 13L14 13L14 14L12 14L12 8L13 8L13 6L14 6L14 7L15 7L15 6L16 6L16 7L17 7L17 5L18 5L18 7L19 7L19 8L20 8L20 7L21 7L21 5L20 5L20 4L19 4L19 3L18 3L18 2L16 2L16 1L15 1L15 0L14 0L14 1L15 1L15 3L17 3L17 5L15 5L15 4L14 4L14 3L13 3L13 2L12 2L12 0L11 0L11 1L10 1L10 0ZM23 0L23 1L26 1L26 0ZM30 1L30 2L28 2L28 4L31 4L31 5L32 5L32 6L31 6L31 9L32 9L32 10L30 10L30 11L29 11L29 10L26 10L26 11L25 11L25 10L23 10L23 9L24 9L24 8L25 8L25 9L26 9L26 6L25 6L25 5L26 5L26 4L24 4L24 6L23 6L23 7L24 7L24 8L23 8L23 9L22 9L22 10L23 10L23 11L20 11L20 12L19 12L19 13L18 13L18 12L17 12L17 11L16 11L16 12L15 12L15 15L16 15L16 16L17 16L17 18L20 18L20 19L21 19L21 20L18 20L18 19L17 19L17 20L18 20L18 21L17 21L17 23L16 23L16 20L14 20L14 23L16 23L16 26L15 26L15 25L14 25L14 26L12 26L12 25L13 25L13 24L12 24L12 23L11 23L11 22L13 22L13 21L12 21L12 20L10 20L10 19L15 19L15 18L16 18L16 17L14 17L14 18L13 18L13 17L12 17L12 15L10 15L10 14L11 14L11 13L10 13L10 11L11 11L11 10L10 10L10 11L8 11L8 12L7 12L7 13L6 13L6 14L5 14L5 13L4 13L4 12L3 12L3 13L4 13L4 14L5 14L5 15L3 15L3 14L2 14L2 16L3 16L3 17L4 17L4 16L5 16L5 15L6 15L6 16L8 16L8 19L9 19L9 22L7 22L7 21L8 21L8 20L7 20L7 19L6 19L6 18L7 18L7 17L5 17L5 18L3 18L3 19L4 19L4 20L2 20L2 21L1 21L1 22L2 22L2 21L3 21L3 22L4 22L4 20L5 20L5 19L6 19L6 20L7 20L7 21L5 21L5 22L7 22L7 23L5 23L5 25L6 25L6 26L7 26L7 25L6 25L6 24L9 24L9 25L8 25L8 26L9 26L9 25L10 25L10 27L9 27L9 28L10 28L10 32L11 32L11 31L12 31L12 30L11 30L11 29L12 29L12 28L13 28L13 30L14 30L14 32L15 32L15 33L14 33L14 34L15 34L15 36L14 36L14 35L13 35L13 33L9 33L9 32L7 32L7 31L6 31L6 32L7 32L7 33L6 33L6 34L5 34L5 36L7 36L7 37L8 37L8 38L9 38L9 39L10 39L10 40L11 40L11 41L10 41L10 42L11 42L11 43L10 43L10 44L9 44L9 42L7 42L7 41L5 41L5 42L4 42L4 43L3 43L3 45L2 45L2 46L1 46L1 47L2 47L2 46L3 46L3 47L5 47L5 46L7 46L7 45L8 45L8 44L9 44L9 45L10 45L10 46L9 46L9 47L12 47L12 46L11 46L11 45L14 45L14 47L17 47L17 48L19 48L19 49L16 49L16 48L14 48L14 49L15 49L15 50L17 50L17 51L15 51L15 53L14 53L14 51L13 51L13 48L10 48L10 49L12 49L12 51L13 51L13 52L12 52L12 53L9 53L9 54L10 54L10 55L11 55L11 54L12 54L12 53L13 53L13 54L15 54L15 53L16 53L16 54L17 54L17 56L18 56L18 53L19 53L19 52L20 52L20 51L19 51L19 52L18 52L18 50L19 50L19 49L20 49L20 48L21 48L21 52L22 52L22 53L20 53L20 55L21 55L21 54L22 54L22 53L23 53L23 52L24 52L24 53L25 53L25 52L26 52L26 50L25 50L25 49L26 49L26 48L27 48L27 47L28 47L28 46L29 46L29 48L31 48L31 53L32 53L32 51L33 51L33 52L35 52L35 53L36 53L36 54L39 54L39 53L37 53L37 52L38 52L38 51L36 51L36 52L35 52L35 48L37 48L37 49L36 49L36 50L37 50L37 49L38 49L38 48L39 48L39 49L40 49L40 50L39 50L39 52L40 52L40 54L41 54L41 55L39 55L39 56L42 56L42 54L43 54L43 51L44 51L44 49L45 49L45 48L47 48L47 49L46 49L46 50L45 50L45 52L46 52L46 53L47 53L47 52L48 52L48 48L47 48L47 47L49 47L49 46L50 46L50 45L51 45L51 47L52 47L52 48L53 48L53 50L55 50L55 49L54 49L54 48L53 48L53 47L52 47L52 46L54 46L54 45L52 45L52 44L55 44L55 43L54 43L54 42L53 42L53 43L52 43L52 44L51 44L51 42L50 42L50 41L52 41L52 40L50 40L50 39L54 39L54 38L53 38L53 36L52 36L52 35L51 35L51 36L52 36L52 38L51 38L51 37L50 37L50 36L49 36L49 37L48 37L48 35L49 35L49 34L50 34L50 33L49 33L49 32L48 32L48 29L47 29L47 31L46 31L46 32L47 32L47 33L45 33L45 30L46 30L46 26L49 26L49 25L47 25L47 24L45 24L45 23L44 23L44 25L43 25L43 24L42 24L42 23L43 23L43 22L41 22L41 23L40 23L40 24L39 24L39 21L38 21L38 22L35 22L35 21L33 21L33 20L34 20L34 19L33 19L33 17L31 17L31 16L32 16L32 15L31 15L31 16L29 16L29 15L28 15L28 16L29 16L29 17L27 17L27 15L26 15L26 16L25 16L25 15L24 15L24 16L25 16L25 17L24 17L24 18L23 18L23 14L26 14L26 12L28 12L28 13L30 13L30 14L31 14L31 12L32 12L32 13L33 13L33 12L32 12L32 11L33 11L33 10L34 10L34 11L35 11L35 10L36 10L36 12L38 12L38 10L40 10L40 11L39 11L39 15L37 15L37 13L36 13L36 15L35 15L35 12L34 12L34 14L33 14L33 15L35 15L35 16L34 16L34 17L35 17L35 20L36 20L36 21L37 21L37 20L40 20L40 19L39 19L39 18L41 18L41 19L42 19L42 20L41 20L41 21L42 21L42 20L43 20L43 21L44 21L44 22L45 22L45 19L46 19L46 17L42 17L42 14L43 14L43 12L42 12L42 11L41 11L41 10L40 10L40 9L38 9L38 10L37 10L37 8L36 8L36 9L34 9L34 6L35 6L35 7L36 7L36 6L37 6L37 7L38 7L38 8L41 8L41 9L42 9L42 8L41 8L41 7L42 7L42 6L41 6L41 7L40 7L40 5L36 5L36 4L34 4L34 5L33 5L33 3L32 3L32 4L31 4L31 3L30 3L30 2L31 2L31 1ZM35 1L35 2L36 2L36 1ZM10 2L10 3L11 3L11 4L10 4L10 6L9 6L9 7L10 7L10 8L9 8L9 9L11 9L11 7L12 7L12 5L14 5L14 4L12 4L12 3L11 3L11 2ZM38 2L38 3L39 3L39 2ZM18 4L18 5L19 5L19 4ZM42 4L42 5L43 5L43 4ZM27 5L27 8L30 8L30 5ZM10 6L10 7L11 7L11 6ZM19 6L19 7L20 7L20 6ZM24 6L24 7L25 7L25 6ZM28 6L28 7L29 7L29 6ZM32 6L32 8L33 8L33 6ZM38 6L38 7L39 7L39 6ZM48 6L48 7L49 7L49 6ZM6 8L6 9L7 9L7 8ZM17 8L17 9L18 9L18 8ZM1 9L1 10L2 10L2 11L3 11L3 10L2 10L2 9ZM46 9L46 10L47 10L47 9ZM48 10L48 11L49 11L49 10ZM24 11L24 13L25 13L25 11ZM30 11L30 12L31 12L31 11ZM8 12L8 14L6 14L6 15L8 15L8 16L9 16L9 17L10 17L10 18L9 18L9 19L10 19L10 18L12 18L12 17L10 17L10 15L8 15L8 14L10 14L10 13L9 13L9 12ZM16 12L16 13L17 13L17 12ZM20 12L20 13L19 13L19 15L18 15L18 14L16 14L16 15L17 15L17 16L20 16L20 17L21 17L21 19L23 19L23 18L22 18L22 17L21 17L21 16L20 16L20 15L21 15L21 12ZM22 12L22 13L23 13L23 12ZM50 12L50 13L51 13L51 12ZM40 13L40 14L41 14L41 13ZM13 15L13 16L14 16L14 15ZM39 15L39 17L40 17L40 16L41 16L41 15ZM52 15L52 16L53 16L53 17L51 17L51 18L52 18L52 19L55 19L55 17L56 17L56 18L57 18L57 15ZM54 16L54 17L53 17L53 18L54 18L54 17L55 17L55 16ZM25 17L25 18L24 18L24 19L25 19L25 20L27 20L27 21L25 21L25 22L24 22L24 21L23 21L23 20L21 20L21 21L22 21L22 22L18 22L18 23L17 23L17 26L16 26L16 27L19 27L19 26L18 26L18 25L20 25L20 26L22 26L22 27L25 27L25 28L26 28L26 30L25 30L25 31L28 31L28 32L27 32L27 33L26 33L26 32L24 32L24 28L23 28L23 29L21 29L21 30L23 30L23 31L22 31L22 32L21 32L21 31L20 31L20 30L19 30L19 31L18 31L18 30L17 30L17 28L15 28L15 29L14 29L14 30L15 30L15 31L16 31L16 33L17 33L17 35L16 35L16 36L17 36L17 38L15 38L15 40L16 40L16 39L17 39L17 41L14 41L14 38L13 38L13 41L11 41L11 42L18 42L18 43L19 43L19 41L21 41L21 42L20 42L20 43L21 43L21 42L22 42L22 44L21 44L21 46L20 46L20 45L17 45L17 47L19 47L19 46L20 46L20 47L21 47L21 48L23 48L23 49L22 49L22 51L23 51L23 49L24 49L24 48L23 48L23 47L25 47L25 48L26 48L26 47L25 47L25 45L26 45L26 46L27 46L27 45L26 45L26 43L25 43L25 42L27 42L27 44L29 44L29 46L32 46L32 42L33 42L33 45L34 45L34 44L35 44L35 45L36 45L36 46L34 46L34 47L32 47L32 48L35 48L35 47L38 47L38 45L40 45L40 46L39 46L39 47L43 47L43 49L44 49L44 47L43 47L43 45L42 45L42 43L43 43L43 44L47 44L47 43L48 43L48 45L49 45L49 43L50 43L50 42L47 42L47 41L50 41L50 40L47 40L47 39L48 39L48 38L46 38L46 37L47 37L47 35L48 35L48 34L47 34L47 35L46 35L46 34L44 34L44 31L41 31L41 32L40 32L40 31L39 31L39 30L40 30L40 27L38 27L38 26L40 26L40 25L39 25L39 24L38 24L38 23L37 23L37 24L36 24L36 23L35 23L35 24L33 24L33 22L32 22L32 23L31 23L31 20L32 20L32 18L31 18L31 20L30 20L30 17L29 17L29 18L28 18L28 20L27 20L27 17ZM36 17L36 18L37 18L37 17ZM41 17L41 18L42 18L42 19L43 19L43 18L42 18L42 17ZM25 18L25 19L26 19L26 18ZM44 18L44 19L45 19L45 18ZM36 19L36 20L37 20L37 19ZM49 19L49 20L50 20L50 21L51 21L51 22L52 22L52 23L53 23L53 24L54 24L54 23L53 23L53 20L50 20L50 19ZM56 19L56 20L57 20L57 19ZM29 20L29 23L30 23L30 20ZM54 20L54 21L55 21L55 20ZM10 21L10 22L9 22L9 24L11 24L11 25L12 25L12 24L11 24L11 23L10 23L10 22L11 22L11 21ZM46 21L46 22L47 22L47 23L48 23L48 22L47 22L47 21ZM56 21L56 22L55 22L55 23L57 23L57 21ZM25 22L25 25L23 25L23 24L22 24L22 25L23 25L23 26L25 26L25 25L27 25L27 26L28 26L28 25L29 25L29 26L31 26L31 24L26 24L26 23L28 23L28 22ZM3 23L3 25L4 25L4 23ZM18 23L18 24L19 24L19 23ZM20 23L20 24L21 24L21 23ZM32 24L32 25L33 25L33 24ZM41 24L41 30L42 30L42 29L43 29L43 30L45 30L45 27L44 27L44 26L42 26L42 24ZM55 24L55 25L56 25L56 24ZM34 25L34 27L35 27L35 28L34 28L34 29L35 29L35 30L36 30L36 31L37 31L37 32L36 32L36 33L37 33L37 32L38 32L38 34L39 34L39 31L38 31L38 30L39 30L39 29L38 29L38 30L36 30L36 29L37 29L37 28L36 28L36 27L35 27L35 25ZM45 25L45 26L46 26L46 25ZM2 26L2 27L1 27L1 28L2 28L2 29L4 29L4 27L3 27L3 26ZM14 26L14 27L13 27L13 28L14 28L14 27L15 27L15 26ZM2 27L2 28L3 28L3 27ZM5 27L5 30L8 30L8 27ZM10 27L10 28L12 28L12 27ZM20 27L20 28L18 28L18 29L20 29L20 28L21 28L21 27ZM27 27L27 30L30 30L30 27ZM32 27L32 28L33 28L33 27ZM42 27L42 28L44 28L44 27ZM47 27L47 28L48 28L48 27ZM49 27L49 30L52 30L52 27ZM6 28L6 29L7 29L7 28ZM28 28L28 29L29 29L29 28ZM50 28L50 29L51 29L51 28ZM53 28L53 29L54 29L54 28ZM15 29L15 30L16 30L16 29ZM32 29L32 31L33 31L33 32L31 32L31 33L32 33L32 34L34 34L34 36L36 36L36 35L35 35L35 33L33 33L33 32L35 32L35 31L33 31L33 29ZM55 29L55 30L53 30L53 31L51 31L51 32L52 32L52 34L54 34L54 33L53 33L53 31L54 31L54 32L55 32L55 30L56 30L56 29ZM0 32L0 34L2 34L2 35L1 35L1 36L0 36L0 41L1 41L1 36L2 36L2 35L3 35L3 34L2 34L2 33L1 33L1 32ZM18 32L18 34L19 34L19 35L17 35L17 36L19 36L19 37L18 37L18 39L19 39L19 37L20 37L20 38L22 38L22 37L23 37L23 36L25 36L25 37L24 37L24 39L21 39L21 40L22 40L22 41L23 41L23 40L24 40L24 39L25 39L25 41L24 41L24 42L23 42L23 44L22 44L22 46L21 46L21 47L22 47L22 46L23 46L23 44L24 44L24 45L25 45L25 43L24 43L24 42L25 42L25 41L26 41L26 40L27 40L27 39L26 39L26 38L29 38L29 36L32 36L32 38L30 38L30 39L28 39L28 40L29 40L29 42L30 42L30 41L31 41L31 40L33 40L33 39L34 39L34 38L36 38L36 39L35 39L35 40L34 40L34 41L36 41L36 42L34 42L34 43L36 43L36 45L38 45L38 44L39 44L39 43L40 43L40 44L41 44L41 43L42 43L42 42L43 42L43 43L47 43L47 42L45 42L45 41L46 41L46 38L45 38L45 37L46 37L46 35L45 35L45 36L44 36L44 37L43 37L43 35L42 35L42 34L41 34L41 35L39 35L39 36L40 36L40 37L41 37L41 39L40 39L40 41L37 41L37 40L38 40L38 39L39 39L39 38L37 38L37 37L38 37L38 36L37 36L37 37L34 37L34 38L33 38L33 36L32 36L32 35L31 35L31 34L30 34L30 35L29 35L29 33L30 33L30 32L28 32L28 33L27 33L27 34L28 34L28 35L29 35L29 36L26 36L26 35L25 35L25 34L26 34L26 33L25 33L25 34L24 34L24 35L23 35L23 36L22 36L22 34L23 34L23 33L24 33L24 32L23 32L23 33L22 33L22 34L21 34L21 32L20 32L20 34L19 34L19 32ZM42 32L42 33L43 33L43 32ZM8 33L8 34L9 34L9 35L10 35L10 34L9 34L9 33ZM55 33L55 34L56 34L56 33ZM6 34L6 35L7 35L7 36L8 36L8 37L9 37L9 36L8 36L8 35L7 35L7 34ZM20 34L20 35L21 35L21 34ZM11 35L11 36L10 36L10 39L11 39L11 38L12 38L12 37L11 37L11 36L12 36L12 35ZM41 35L41 36L42 36L42 35ZM54 35L54 36L56 36L56 35ZM13 36L13 37L14 37L14 36ZM32 38L32 39L33 39L33 38ZM42 38L42 39L41 39L41 41L40 41L40 42L42 42L42 40L44 40L44 41L45 41L45 39L44 39L44 38ZM6 39L6 40L7 40L7 39ZM8 40L8 41L9 41L9 40ZM18 40L18 41L19 41L19 40ZM5 42L5 43L4 43L4 45L5 45L5 44L6 44L6 45L7 45L7 44L6 44L6 43L7 43L7 42ZM37 42L37 44L38 44L38 43L39 43L39 42ZM11 43L11 44L13 44L13 43ZM14 43L14 44L15 44L15 45L16 45L16 44L17 44L17 43ZM29 43L29 44L31 44L31 43ZM44 45L44 46L45 46L45 45ZM46 46L46 47L47 47L47 46ZM41 48L41 49L42 49L42 48ZM27 49L27 52L30 52L30 49ZM32 49L32 50L34 50L34 49ZM49 49L49 52L52 52L52 49ZM24 50L24 51L25 51L25 50ZM28 50L28 51L29 51L29 50ZM50 50L50 51L51 51L51 50ZM10 51L10 52L11 52L11 51ZM40 51L40 52L41 52L41 54L42 54L42 52L41 52L41 51ZM46 51L46 52L47 52L47 51ZM54 52L54 53L55 53L55 52ZM48 53L48 54L50 54L50 53ZM44 54L44 55L46 55L46 54ZM24 55L24 57L25 57L25 55ZM56 55L56 56L57 56L57 55ZM52 56L52 57L55 57L55 56ZM0 0L0 7L7 7L7 0ZM1 1L1 6L6 6L6 1ZM2 2L2 5L5 5L5 2ZM50 0L50 7L57 7L57 0ZM51 1L51 6L56 6L56 1ZM52 2L52 5L55 5L55 2ZM0 50L0 57L7 57L7 50ZM1 51L1 56L6 56L6 51ZM2 52L2 55L5 55L5 52Z" fill="#000000"/></g></g></svg>
