<?xml version="1.0" encoding="UTF-8"?>
<svg xmlns="http://www.w3.org/2000/svg" version="1.1" width="300" height="300" viewBox="0 0 300 300"><rect x="0" y="0" width="300" height="300" fill="#fefefe"/><g transform="scale(4.615)"><g transform="translate(4,4)"><path fill-rule="evenodd" d="M9 0L9 1L8 1L8 2L9 2L9 3L8 3L8 4L11 4L11 5L10 5L10 7L9 7L9 5L8 5L8 7L9 7L9 8L6 8L6 9L9 9L9 12L8 12L8 10L5 10L5 11L4 11L4 9L5 9L5 8L0 8L0 10L1 10L1 9L3 9L3 11L1 11L1 13L0 13L0 15L1 15L1 14L2 14L2 15L3 15L3 16L1 16L1 17L0 17L0 18L1 18L1 19L0 19L0 20L1 20L1 25L0 25L0 26L1 26L1 27L0 27L0 30L3 30L3 31L7 31L7 32L6 32L6 33L5 33L5 32L4 32L4 33L3 33L3 32L2 32L2 31L1 31L1 32L0 32L0 33L1 33L1 32L2 32L2 34L3 34L3 37L4 37L4 38L5 38L5 36L4 36L4 34L6 34L6 35L7 35L7 34L6 34L6 33L8 33L8 34L9 34L9 33L10 33L10 35L9 35L9 36L8 36L8 37L7 37L7 36L6 36L6 37L7 37L7 38L6 38L6 39L5 39L5 40L4 40L4 39L3 39L3 38L1 38L1 37L2 37L2 36L1 36L1 34L0 34L0 36L1 36L1 37L0 37L0 39L1 39L1 40L0 40L0 42L3 42L3 46L2 46L2 47L1 47L1 45L2 45L2 43L0 43L0 44L1 44L1 45L0 45L0 48L5 48L5 47L7 47L7 46L8 46L8 44L9 44L9 43L8 43L8 42L11 42L11 43L10 43L10 44L11 44L11 45L9 45L9 46L11 46L11 45L12 45L12 44L18 44L18 45L17 45L17 46L20 46L20 45L21 45L21 47L23 47L23 49L21 49L21 50L20 50L20 49L19 49L19 48L20 48L20 47L19 47L19 48L16 48L16 49L13 49L13 48L15 48L15 47L13 47L13 46L12 46L12 47L11 47L11 48L10 48L10 47L9 47L9 48L10 48L10 49L8 49L8 51L10 51L10 49L11 49L11 52L10 52L10 53L9 53L9 52L8 52L8 57L9 57L9 55L10 55L10 56L12 56L12 55L13 55L13 56L14 56L14 57L15 57L15 56L14 56L14 55L13 55L13 54L11 54L11 52L13 52L13 53L14 53L14 54L15 54L15 55L16 55L16 56L17 56L17 57L21 57L21 56L24 56L24 57L26 57L26 56L24 56L24 55L23 55L23 54L24 54L24 53L27 53L27 54L30 54L30 53L31 53L31 51L32 51L32 52L33 52L33 53L32 53L32 54L31 54L31 56L30 56L30 55L29 55L29 56L27 56L27 57L29 57L29 56L30 56L30 57L31 57L31 56L35 56L35 57L40 57L40 56L42 56L42 55L43 55L43 57L44 57L44 54L45 54L45 55L46 55L46 54L45 54L45 53L47 53L47 51L46 51L46 50L45 50L45 49L44 49L44 48L43 48L43 47L44 47L44 46L43 46L43 45L44 45L44 43L43 43L43 42L44 42L44 40L45 40L45 41L47 41L47 39L49 39L49 41L48 41L48 42L47 42L47 43L46 43L46 44L45 44L45 45L47 45L47 46L45 46L45 47L47 47L47 48L48 48L48 49L47 49L47 50L48 50L48 54L47 54L47 57L49 57L49 56L50 56L50 57L52 57L52 55L51 55L51 53L52 53L52 54L53 54L53 57L54 57L54 56L55 56L55 57L56 57L56 56L55 56L55 53L57 53L57 52L56 52L56 49L57 49L57 48L56 48L56 46L57 46L57 45L56 45L56 44L57 44L57 43L56 43L56 41L55 41L55 39L57 39L57 37L56 37L56 36L55 36L55 35L56 35L56 33L57 33L57 32L56 32L56 30L57 30L57 29L56 29L56 28L57 28L57 27L56 27L56 26L57 26L57 25L56 25L56 22L57 22L57 21L56 21L56 19L55 19L55 18L57 18L57 17L56 17L56 16L57 16L57 15L56 15L56 14L57 14L57 11L56 11L56 10L54 10L54 11L51 11L51 10L50 10L50 8L48 8L48 9L47 9L47 10L46 10L46 9L45 9L45 10L44 10L44 8L46 8L46 7L47 7L47 5L48 5L48 0L46 0L46 1L45 1L45 2L44 2L44 3L43 3L43 4L40 4L40 5L39 5L39 6L38 6L38 4L39 4L39 3L41 3L41 2L43 2L43 0L41 0L41 1L40 1L40 0L39 0L39 1L38 1L38 0L37 0L37 1L38 1L38 3L36 3L36 0L35 0L35 1L33 1L33 0L30 0L30 1L25 1L25 0L23 0L23 1L22 1L22 0L21 0L21 3L22 3L22 2L27 2L27 3L30 3L30 4L26 4L26 3L23 3L23 4L24 4L24 5L22 5L22 4L19 4L19 3L20 3L20 0L19 0L19 1L18 1L18 2L17 2L17 3L18 3L18 4L17 4L17 6L16 6L16 7L15 7L15 5L16 5L16 4L15 4L15 5L14 5L14 7L13 7L13 6L12 6L12 7L13 7L13 11L14 11L14 12L13 12L13 13L15 13L15 14L14 14L14 16L13 16L13 17L12 17L12 15L13 15L13 14L12 14L12 8L10 8L10 7L11 7L11 5L12 5L12 4L14 4L14 2L15 2L15 1L14 1L14 2L12 2L12 0ZM30 1L30 2L31 2L31 3L32 3L32 4L31 4L31 8L32 8L32 10L29 10L29 9L27 9L27 10L29 10L29 12L28 12L28 13L27 13L27 14L26 14L26 12L27 12L27 11L26 11L26 12L25 12L25 10L23 10L23 9L25 9L25 8L26 8L26 4L25 4L25 8L24 8L24 6L23 6L23 8L19 8L19 9L20 9L20 10L21 10L21 11L20 11L20 14L21 14L21 13L22 13L22 14L23 14L23 13L22 13L22 12L21 12L21 11L22 11L22 10L23 10L23 11L24 11L24 12L25 12L25 14L26 14L26 17L25 17L25 15L21 15L21 16L22 16L22 17L20 17L20 16L19 16L19 14L18 14L18 15L17 15L17 13L18 13L18 12L17 12L17 11L18 11L18 10L17 10L17 9L15 9L15 7L14 7L14 10L17 10L17 11L15 11L15 13L16 13L16 17L15 17L15 16L14 16L14 18L12 18L12 17L10 17L10 16L11 16L11 15L12 15L12 14L10 14L10 12L9 12L9 17L5 17L5 16L7 16L7 15L5 15L5 14L8 14L8 12L7 12L7 11L6 11L6 12L5 12L5 13L4 13L4 12L3 12L3 13L4 13L4 16L3 16L3 18L4 18L4 17L5 17L5 19L4 19L4 20L5 20L5 19L6 19L6 20L8 20L8 21L4 21L4 22L3 22L3 21L2 21L2 23L3 23L3 24L10 24L10 25L12 25L12 24L10 24L10 21L12 21L12 20L13 20L13 21L14 21L14 22L13 22L13 23L14 23L14 24L16 24L16 25L13 25L13 29L14 29L14 31L13 31L13 30L11 30L11 31L12 31L12 32L14 32L14 33L13 33L13 35L10 35L10 36L9 36L9 37L10 37L10 36L12 36L12 37L13 37L13 36L14 36L14 34L15 34L15 35L16 35L16 36L15 36L15 37L14 37L14 38L13 38L13 40L14 40L14 38L15 38L15 39L16 39L16 40L17 40L17 38L18 38L18 37L17 37L17 36L18 36L18 34L19 34L19 37L22 37L22 38L24 38L24 37L23 37L23 36L24 36L24 34L23 34L23 33L25 33L25 35L26 35L26 36L25 36L25 40L24 40L24 39L23 39L23 40L19 40L19 41L18 41L18 42L17 42L17 41L14 41L14 42L13 42L13 43L14 43L14 42L17 42L17 43L18 43L18 42L19 42L19 45L20 45L20 42L21 42L21 43L22 43L22 42L23 42L23 45L22 45L22 44L21 44L21 45L22 45L22 46L23 46L23 47L24 47L24 49L25 49L25 48L27 48L27 47L26 47L26 45L27 45L27 46L31 46L31 47L33 47L33 48L32 48L32 51L33 51L33 52L34 52L34 53L33 53L33 55L35 55L35 56L36 56L36 54L35 54L35 50L36 50L36 52L38 52L38 54L40 54L40 53L42 53L42 52L43 52L43 51L42 51L42 50L41 50L41 48L42 48L42 49L43 49L43 50L44 50L44 51L45 51L45 52L44 52L44 53L43 53L43 54L44 54L44 53L45 53L45 52L46 52L46 51L45 51L45 50L44 50L44 49L43 49L43 48L42 48L42 47L43 47L43 46L41 46L41 48L39 48L39 47L40 47L40 45L41 45L41 44L42 44L42 42L40 42L40 44L39 44L39 45L38 45L38 46L39 46L39 47L38 47L38 48L37 48L37 49L38 49L38 50L36 50L36 49L33 49L33 48L36 48L36 47L33 47L33 46L35 46L35 45L34 45L34 43L37 43L37 42L35 42L35 40L38 40L38 42L39 42L39 41L42 41L42 39L45 39L45 38L46 38L46 39L47 39L47 37L48 37L48 38L49 38L49 39L51 39L51 38L52 38L52 39L55 39L55 38L54 38L54 37L53 37L53 35L55 35L55 34L54 34L54 32L53 32L53 33L52 33L52 32L51 32L51 31L48 31L48 29L46 29L46 30L47 30L47 31L46 31L46 32L43 32L43 31L44 31L44 29L45 29L45 28L46 28L46 27L47 27L47 23L48 23L48 24L49 24L49 25L50 25L50 26L52 26L52 25L53 25L53 24L54 24L54 25L55 25L55 26L56 26L56 25L55 25L55 24L54 24L54 23L55 23L55 22L56 22L56 21L55 21L55 20L53 20L53 19L52 19L52 20L51 20L51 21L49 21L49 18L47 18L47 17L48 17L48 16L49 16L49 17L50 17L50 19L51 19L51 17L53 17L53 18L55 18L55 17L53 17L53 15L50 15L50 14L51 14L51 12L50 12L50 10L48 10L48 11L49 11L49 12L45 12L45 11L46 11L46 10L45 10L45 11L44 11L44 10L43 10L43 11L42 11L42 10L41 10L41 9L43 9L43 7L44 7L44 6L45 6L45 7L46 7L46 6L45 6L45 5L47 5L47 3L44 3L44 6L43 6L43 7L42 7L42 6L41 6L41 5L40 5L40 6L39 6L39 8L38 8L38 6L37 6L37 7L36 7L36 5L37 5L37 4L36 4L36 5L35 5L35 4L33 4L33 3L32 3L32 1ZM46 1L46 2L47 2L47 1ZM10 2L10 3L11 3L11 4L12 4L12 3L11 3L11 2ZM34 2L34 3L35 3L35 2ZM18 4L18 6L17 6L17 7L16 7L16 8L17 8L17 7L18 7L18 6L19 6L19 7L20 7L20 5L19 5L19 4ZM32 4L32 5L33 5L33 6L32 6L32 7L33 7L33 9L34 9L34 8L35 8L35 9L37 9L37 10L36 10L36 11L35 11L35 14L33 14L33 13L34 13L34 12L33 12L33 13L32 13L32 11L33 11L33 10L32 10L32 11L31 11L31 13L30 13L30 14L29 14L29 13L28 13L28 14L29 14L29 16L28 16L28 15L27 15L27 16L28 16L28 17L27 17L27 18L26 18L26 19L25 19L25 17L22 17L22 19L20 19L20 17L19 17L19 16L17 16L17 17L18 17L18 19L19 19L19 20L17 20L17 21L16 21L16 20L15 20L15 21L16 21L16 22L15 22L15 23L16 23L16 24L17 24L17 25L18 25L18 26L14 26L14 28L16 28L16 29L15 29L15 31L14 31L14 32L15 32L15 33L16 33L16 32L15 32L15 31L16 31L16 29L18 29L18 30L20 30L20 29L18 29L18 28L17 28L17 27L18 27L18 26L19 26L19 28L20 28L20 25L21 25L21 24L18 24L18 23L20 23L20 22L18 22L18 21L20 21L20 20L24 20L24 21L22 21L22 22L21 22L21 23L22 23L22 22L24 22L24 21L25 21L25 22L26 22L26 23L25 23L25 24L24 24L24 23L23 23L23 24L24 24L24 25L22 25L22 26L21 26L21 27L22 27L22 26L23 26L23 31L20 31L20 32L25 32L25 33L27 33L27 32L28 32L28 33L29 33L29 34L30 34L30 36L29 36L29 37L31 37L31 38L29 38L29 39L33 39L33 40L35 40L35 39L37 39L37 38L38 38L38 37L40 37L40 38L43 38L43 37L44 37L44 38L45 38L45 37L44 37L44 36L45 36L45 35L44 35L44 33L43 33L43 32L41 32L41 33L39 33L39 34L40 34L40 35L39 35L39 36L38 36L38 33L37 33L37 32L35 32L35 30L32 30L32 31L31 31L31 29L32 29L32 28L31 28L31 26L32 26L32 27L33 27L33 28L35 28L35 29L38 29L38 28L39 28L39 27L36 27L36 26L34 26L34 27L33 27L33 26L32 26L32 24L33 24L33 25L37 25L37 26L38 26L38 24L41 24L41 25L39 25L39 26L41 26L41 28L42 28L42 26L43 26L43 25L44 25L44 28L43 28L43 29L41 29L41 30L43 30L43 29L44 29L44 28L45 28L45 25L44 25L44 20L45 20L45 21L46 21L46 20L45 20L45 18L44 18L44 15L45 15L45 17L47 17L47 16L48 16L48 15L49 15L49 16L50 16L50 15L49 15L49 14L50 14L50 12L49 12L49 13L47 13L47 14L43 14L43 13L44 13L44 11L43 11L43 13L39 13L39 12L41 12L41 10L40 10L40 11L39 11L39 10L38 10L38 8L35 8L35 5L33 5L33 4ZM27 5L27 8L30 8L30 5ZM21 6L21 7L22 7L22 6ZM28 6L28 7L29 7L29 6ZM33 6L33 7L34 7L34 6ZM40 6L40 7L41 7L41 6ZM48 6L48 7L49 7L49 6ZM9 8L9 9L10 9L10 8ZM51 8L51 9L52 9L52 10L53 10L53 9L54 9L54 8L53 8L53 9L52 9L52 8ZM55 8L55 9L56 9L56 8ZM21 9L21 10L22 10L22 9ZM10 10L10 11L11 11L11 10ZM37 10L37 11L38 11L38 10ZM6 12L6 13L7 13L7 12ZM16 12L16 13L17 13L17 12ZM52 12L52 13L53 13L53 14L54 14L54 15L55 15L55 14L56 14L56 12L54 12L54 13L53 13L53 12ZM31 13L31 14L30 14L30 15L31 15L31 16L32 16L32 17L33 17L33 18L32 18L32 19L36 19L36 20L37 20L37 21L38 21L38 22L37 22L37 24L38 24L38 23L40 23L40 22L39 22L39 21L42 21L42 20L39 20L39 21L38 21L38 19L39 19L39 17L41 17L41 16L42 16L42 17L43 17L43 16L42 16L42 15L43 15L43 14L39 14L39 13L38 13L38 14L37 14L37 13L36 13L36 14L37 14L37 15L35 15L35 16L32 16L32 15L31 15L31 14L32 14L32 13ZM54 13L54 14L55 14L55 13ZM38 14L38 15L39 15L39 16L38 16L38 17L37 17L37 16L35 16L35 17L37 17L37 18L38 18L38 17L39 17L39 16L41 16L41 15L39 15L39 14ZM1 17L1 18L2 18L2 17ZM6 18L6 19L7 19L7 18ZM8 18L8 20L12 20L12 19L10 19L10 18ZM15 18L15 19L17 19L17 18ZM23 18L23 19L24 19L24 18ZM27 18L27 19L26 19L26 20L25 20L25 21L28 21L28 22L27 22L27 24L25 24L25 25L26 25L26 26L25 26L25 27L24 27L24 28L25 28L25 29L26 29L26 28L25 28L25 27L26 27L26 26L28 26L28 25L30 25L30 24L28 24L28 23L29 23L29 22L30 22L30 23L31 23L31 24L32 24L32 23L33 23L33 22L34 22L34 23L35 23L35 20L32 20L32 21L31 21L31 22L30 22L30 19L31 19L31 18L30 18L30 19L28 19L28 18ZM41 18L41 19L42 19L42 18ZM43 18L43 20L44 20L44 18ZM46 18L46 19L47 19L47 18ZM1 19L1 20L3 20L3 19ZM13 19L13 20L14 20L14 19ZM27 19L27 20L28 20L28 19ZM47 20L47 22L45 22L45 24L46 24L46 23L47 23L47 22L49 22L49 21L48 21L48 20ZM8 21L8 22L5 22L5 23L9 23L9 21ZM51 21L51 22L50 22L50 23L49 23L49 24L51 24L51 23L53 23L53 22L54 22L54 21ZM41 22L41 24L43 24L43 22ZM27 24L27 25L28 25L28 24ZM1 25L1 26L2 26L2 28L1 28L1 29L2 29L2 28L3 28L3 30L4 30L4 28L3 28L3 27L4 27L4 26L2 26L2 25ZM6 25L6 26L7 26L7 25ZM8 25L8 26L9 26L9 27L10 27L10 29L12 29L12 26L9 26L9 25ZM41 25L41 26L42 26L42 25ZM53 26L53 27L54 27L54 26ZM5 27L5 30L8 30L8 27ZM27 27L27 30L30 30L30 27ZM35 27L35 28L36 28L36 27ZM49 27L49 30L52 30L52 27ZM55 27L55 28L54 28L54 29L55 29L55 28L56 28L56 27ZM6 28L6 29L7 29L7 28ZM21 28L21 29L22 29L22 28ZM28 28L28 29L29 29L29 28ZM50 28L50 29L51 29L51 28ZM39 29L39 30L38 30L38 32L39 32L39 30L40 30L40 29ZM9 30L9 31L8 31L8 32L10 32L10 30ZM53 30L53 31L55 31L55 30ZM25 31L25 32L26 32L26 31ZM29 31L29 33L31 33L31 34L32 34L32 35L33 35L33 36L32 36L32 37L33 37L33 39L35 39L35 37L34 37L34 35L35 35L35 36L37 36L37 34L35 34L35 32L33 32L33 31L32 31L32 33L31 33L31 31ZM47 31L47 32L46 32L46 33L47 33L47 32L48 32L48 33L49 33L49 32L48 32L48 31ZM17 32L17 33L19 33L19 34L20 34L20 36L21 36L21 34L22 34L22 33L21 33L21 34L20 34L20 33L19 33L19 32ZM50 32L50 34L48 34L48 35L46 35L46 36L48 36L48 37L49 37L49 38L50 38L50 37L51 37L51 36L52 36L52 35L53 35L53 34L52 34L52 33L51 33L51 32ZM55 32L55 33L56 33L56 32ZM11 33L11 34L12 34L12 33ZM32 33L32 34L33 34L33 33ZM26 34L26 35L27 35L27 34ZM42 34L42 35L41 35L41 36L40 36L40 37L42 37L42 36L44 36L44 35L43 35L43 34ZM50 34L50 35L48 35L48 36L49 36L49 37L50 37L50 35L52 35L52 34ZM22 35L22 36L23 36L23 35ZM26 36L26 40L28 40L28 39L27 39L27 38L28 38L28 37L27 37L27 36ZM15 37L15 38L16 38L16 37ZM7 38L7 39L6 39L6 40L7 40L7 41L6 41L6 42L4 42L4 40L3 40L3 39L2 39L2 40L1 40L1 41L3 41L3 42L4 42L4 43L6 43L6 44L4 44L4 46L3 46L3 47L5 47L5 46L7 46L7 45L6 45L6 44L7 44L7 43L6 43L6 42L7 42L7 41L8 41L8 40L9 40L9 41L12 41L12 40L10 40L10 39L12 39L12 38ZM19 38L19 39L20 39L20 38ZM7 39L7 40L8 40L8 39ZM38 39L38 40L39 40L39 39ZM30 40L30 42L29 42L29 43L25 43L25 44L24 44L24 45L23 45L23 46L25 46L25 44L27 44L27 45L29 45L29 44L31 44L31 45L32 45L32 46L33 46L33 45L32 45L32 44L33 44L33 43L34 43L34 42L33 42L33 41L32 41L32 40ZM19 41L19 42L20 42L20 41ZM21 41L21 42L22 42L22 41ZM23 41L23 42L25 42L25 41ZM26 41L26 42L27 42L27 41ZM31 41L31 42L32 42L32 43L31 43L31 44L32 44L32 43L33 43L33 42L32 42L32 41ZM51 41L51 42L50 42L50 43L49 43L49 42L48 42L48 43L47 43L47 45L49 45L49 46L50 46L50 47L48 47L48 46L47 46L47 47L48 47L48 48L51 48L51 46L53 46L53 47L52 47L52 48L53 48L53 49L54 49L54 48L53 48L53 47L54 47L54 46L56 46L56 45L55 45L55 44L54 44L54 45L51 45L51 46L50 46L50 45L49 45L49 44L50 44L50 43L51 43L51 44L53 44L53 43L54 43L54 42L53 42L53 41ZM51 42L51 43L53 43L53 42ZM11 43L11 44L12 44L12 43ZM14 45L14 46L15 46L15 45ZM36 45L36 46L37 46L37 45ZM6 48L6 49L7 49L7 48ZM11 48L11 49L12 49L12 51L13 51L13 52L14 52L14 53L15 53L15 54L16 54L16 53L17 53L17 51L16 51L16 50L19 50L19 51L18 51L18 52L19 52L19 51L20 51L20 50L19 50L19 49L16 49L16 50L13 50L13 49L12 49L12 48ZM38 48L38 49L39 49L39 48ZM55 48L55 49L56 49L56 48ZM27 49L27 52L30 52L30 49ZM49 49L49 52L52 52L52 49ZM21 50L21 52L20 52L20 53L19 53L19 54L20 54L20 55L18 55L18 56L21 56L21 55L22 55L22 54L23 54L23 53L24 53L24 52L26 52L26 50L23 50L23 51L22 51L22 50ZM28 50L28 51L29 51L29 50ZM38 50L38 52L39 52L39 51L40 51L40 52L41 52L41 50ZM50 50L50 51L51 51L51 50ZM54 50L54 51L55 51L55 50ZM15 51L15 53L16 53L16 51ZM53 52L53 53L54 53L54 52ZM21 53L21 54L22 54L22 53ZM25 54L25 55L26 55L26 54ZM41 54L41 55L42 55L42 54ZM37 55L37 56L40 56L40 55ZM50 55L50 56L51 56L51 55ZM45 56L45 57L46 57L46 56ZM0 0L0 7L7 7L7 0ZM1 1L1 6L6 6L6 1ZM2 2L2 5L5 5L5 2ZM50 0L50 7L57 7L57 0ZM51 1L51 6L56 6L56 1ZM52 2L52 5L55 5L55 2ZM0 50L0 57L7 57L7 50ZM1 51L1 56L6 56L6 51ZM2 52L2 55L5 55L5 52Z" fill="#000000"/></g></g></svg>
