<?xml version="1.0" encoding="UTF-8"?>
<svg xmlns="http://www.w3.org/2000/svg" version="1.1" width="300" height="300" viewBox="0 0 300 300"><rect x="0" y="0" width="300" height="300" fill="#fefefe"/><g transform="scale(4.615)"><g transform="translate(4,4)"><path fill-rule="evenodd" d="M8 0L8 2L9 2L9 4L8 4L8 9L7 9L7 8L5 8L5 9L4 9L4 12L3 12L3 13L7 13L7 14L5 14L5 15L8 15L8 13L9 13L9 17L8 17L8 16L6 16L6 17L5 17L5 18L6 18L6 19L5 19L5 20L3 20L3 19L4 19L4 18L2 18L2 17L1 17L1 18L0 18L0 20L1 20L1 22L0 22L0 25L1 25L1 22L2 22L2 20L3 20L3 21L4 21L4 23L3 23L3 24L4 24L4 25L5 25L5 26L3 26L3 25L2 25L2 26L1 26L1 27L0 27L0 31L1 31L1 28L2 28L2 27L3 27L3 29L2 29L2 32L3 32L3 34L2 34L2 33L1 33L1 32L0 32L0 34L2 34L2 35L3 35L3 36L4 36L4 37L1 37L1 36L0 36L0 37L1 37L1 38L0 38L0 39L2 39L2 41L3 41L3 46L2 46L2 43L1 43L1 40L0 40L0 43L1 43L1 46L0 46L0 48L5 48L5 47L7 47L7 46L8 46L8 47L9 47L9 49L8 49L8 50L10 50L10 48L11 48L11 51L10 51L10 53L9 53L9 54L8 54L8 57L9 57L9 54L10 54L10 56L11 56L11 54L12 54L12 55L14 55L14 53L13 53L13 52L14 52L14 51L15 51L15 56L16 56L16 57L17 57L17 56L18 56L18 57L19 57L19 56L18 56L18 53L19 53L19 52L18 52L18 53L17 53L17 51L18 51L18 50L17 50L17 51L16 51L16 48L13 48L13 50L14 50L14 51L13 51L13 52L12 52L12 47L13 47L13 46L12 46L12 45L14 45L14 44L13 44L13 43L15 43L15 42L16 42L16 45L15 45L15 46L14 46L14 47L15 47L15 46L16 46L16 47L18 47L18 49L19 49L19 47L20 47L20 45L19 45L19 44L18 44L18 43L20 43L20 44L21 44L21 43L20 43L20 41L21 41L21 40L22 40L22 41L23 41L23 43L22 43L22 44L23 44L23 43L24 43L24 40L22 40L22 37L23 37L23 36L22 36L22 37L21 37L21 36L20 36L20 35L22 35L22 34L20 34L20 33L21 33L21 32L20 32L20 31L21 31L21 30L22 30L22 33L23 33L23 35L25 35L25 36L24 36L24 37L25 37L25 36L26 36L26 37L27 37L27 36L28 36L28 37L29 37L29 36L28 36L28 35L31 35L31 36L30 36L30 40L29 40L29 42L28 42L28 40L25 40L25 41L26 41L26 42L25 42L25 45L26 45L26 46L24 46L24 45L23 45L23 48L22 48L22 46L21 46L21 48L22 48L22 51L20 51L20 53L21 53L21 54L20 54L20 55L21 55L21 54L23 54L23 55L22 55L22 57L23 57L23 56L24 56L24 57L25 57L25 56L26 56L26 57L28 57L28 55L29 55L29 57L33 57L33 55L30 55L30 54L31 54L31 53L32 53L32 54L34 54L34 57L35 57L35 55L37 55L37 54L36 54L36 53L37 53L37 51L38 51L38 47L37 47L37 46L38 46L38 45L37 45L37 44L39 44L39 43L37 43L37 44L36 44L36 45L35 45L35 46L36 46L36 47L37 47L37 48L36 48L36 49L37 49L37 51L35 51L35 50L34 50L34 49L35 49L35 48L34 48L34 45L33 45L33 44L35 44L35 43L36 43L36 41L37 41L37 42L38 42L38 41L39 41L39 39L38 39L38 36L39 36L39 38L40 38L40 39L42 39L42 40L40 40L40 41L41 41L41 42L40 42L40 43L41 43L41 42L42 42L42 43L44 43L44 45L45 45L45 46L44 46L44 47L45 47L45 48L44 48L44 51L43 51L43 50L42 50L42 49L41 49L41 47L42 47L42 45L43 45L43 44L42 44L42 45L41 45L41 44L40 44L40 46L41 46L41 47L40 47L40 49L39 49L39 52L40 52L40 53L39 53L39 56L40 56L40 57L41 57L41 56L40 56L40 54L41 54L41 55L42 55L42 57L43 57L43 54L42 54L42 53L41 53L41 51L42 51L42 52L44 52L44 57L46 57L46 56L47 56L47 57L48 57L48 55L49 55L49 57L50 57L50 55L49 55L49 54L52 54L52 55L53 55L53 56L51 56L51 57L54 57L54 54L55 54L55 55L57 55L57 54L55 54L55 53L57 53L57 50L56 50L56 52L54 52L54 51L53 51L53 50L54 50L54 49L56 49L56 47L57 47L57 44L56 44L56 47L55 47L55 48L54 48L54 45L53 45L53 48L50 48L50 47L52 47L52 46L51 46L51 44L52 44L52 40L53 40L53 44L54 44L54 43L55 43L55 42L54 42L54 41L57 41L57 40L54 40L54 39L53 39L53 38L54 38L54 37L55 37L55 38L57 38L57 33L56 33L56 31L57 31L57 28L56 28L56 27L57 27L57 24L56 24L56 23L57 23L57 21L56 21L56 20L55 20L55 21L54 21L54 19L55 19L55 18L56 18L56 19L57 19L57 13L56 13L56 11L57 11L57 10L56 10L56 11L55 11L55 9L57 9L57 8L55 8L55 9L54 9L54 10L53 10L53 8L49 8L49 9L51 9L51 11L50 11L50 13L49 13L49 14L48 14L48 12L47 12L47 11L46 11L46 8L48 8L48 7L49 7L49 6L48 6L48 7L47 7L47 5L48 5L48 0L46 0L46 1L45 1L45 0L42 0L42 1L41 1L41 0L38 0L38 2L37 2L37 1L35 1L35 0L34 0L34 8L32 8L32 9L31 9L31 5L32 5L32 2L33 2L33 1L32 1L32 2L31 2L31 3L30 3L30 2L29 2L29 0L28 0L28 1L27 1L27 0L24 0L24 1L23 1L23 0L20 0L20 1L19 1L19 0L18 0L18 2L20 2L20 1L22 1L22 2L21 2L21 5L20 5L20 7L19 7L19 5L17 5L17 4L16 4L16 3L17 3L17 0L16 0L16 1L14 1L14 0L13 0L13 1L14 1L14 3L12 3L12 1L11 1L11 0ZM30 0L30 1L31 1L31 0ZM9 1L9 2L10 2L10 1ZM24 1L24 4L25 4L25 1ZM39 1L39 2L38 2L38 3L37 3L37 2L35 2L35 3L36 3L36 4L35 4L35 9L34 9L34 10L33 10L33 9L32 9L32 11L31 11L31 9L30 9L30 11L29 11L29 12L30 12L30 13L29 13L29 15L28 15L28 14L27 14L27 12L28 12L28 11L27 11L27 10L28 10L28 9L27 9L27 10L25 10L25 9L26 9L26 5L24 5L24 6L23 6L23 8L24 8L24 10L23 10L23 9L22 9L22 5L23 5L23 3L22 3L22 5L21 5L21 9L20 9L20 10L21 10L21 13L20 13L20 14L22 14L22 16L23 16L23 15L24 15L24 18L27 18L27 19L26 19L26 20L25 20L25 19L24 19L24 20L25 20L25 21L26 21L26 20L27 20L27 21L28 21L28 22L26 22L26 23L28 23L28 24L27 24L27 25L26 25L26 26L28 26L28 24L29 24L29 21L28 21L28 20L29 20L29 19L31 19L31 18L32 18L32 19L33 19L33 21L32 21L32 20L30 20L30 22L33 22L33 24L34 24L34 26L33 26L33 25L32 25L32 23L31 23L31 25L30 25L30 26L31 26L31 25L32 25L32 28L31 28L31 30L32 30L32 32L30 32L30 31L29 31L29 32L28 32L28 31L27 31L27 32L26 32L26 33L25 33L25 31L26 31L26 30L25 30L25 28L24 28L24 30L23 30L23 29L22 29L22 30L23 30L23 31L24 31L24 34L26 34L26 35L28 35L28 34L29 34L29 32L30 32L30 34L31 34L31 35L32 35L32 34L33 34L33 38L31 38L31 40L30 40L30 41L31 41L31 44L30 44L30 42L29 42L29 44L28 44L28 42L27 42L27 44L28 44L28 46L29 46L29 47L28 47L28 48L29 48L29 47L30 47L30 48L31 48L31 47L32 47L32 40L33 40L33 41L34 41L34 42L35 42L35 41L36 41L36 38L37 38L37 37L36 37L36 35L37 35L37 36L38 36L38 34L39 34L39 36L40 36L40 35L41 35L41 36L42 36L42 39L43 39L43 41L42 41L42 42L44 42L44 43L45 43L45 41L46 41L46 43L47 43L47 44L46 44L46 48L45 48L45 49L46 49L46 50L47 50L47 44L48 44L48 42L49 42L49 44L50 44L50 42L49 42L49 41L51 41L51 40L52 40L52 38L53 38L53 37L54 37L54 36L55 36L55 37L56 37L56 36L55 36L55 35L56 35L56 34L55 34L55 33L54 33L54 32L55 32L55 31L56 31L56 30L55 30L55 29L56 29L56 28L55 28L55 27L56 27L56 26L55 26L55 25L56 25L56 24L55 24L55 23L56 23L56 21L55 21L55 22L54 22L54 24L53 24L53 25L52 25L52 23L53 23L53 22L52 22L52 20L53 20L53 19L54 19L54 17L56 17L56 16L55 16L55 15L56 15L56 13L55 13L55 11L54 11L54 12L53 12L53 14L52 14L52 13L50 13L50 16L49 16L49 17L48 17L48 19L47 19L47 17L46 17L46 18L45 18L45 17L44 17L44 16L45 16L45 15L44 15L44 14L45 14L45 13L46 13L46 16L47 16L47 15L48 15L48 14L47 14L47 13L46 13L46 11L45 11L45 10L44 10L44 8L45 8L45 7L46 7L46 5L47 5L47 3L46 3L46 5L44 5L44 4L45 4L45 1L42 1L42 3L41 3L41 2L40 2L40 1ZM46 1L46 2L47 2L47 1ZM15 2L15 3L14 3L14 4L15 4L15 3L16 3L16 2ZM27 2L27 3L26 3L26 4L27 4L27 3L28 3L28 4L30 4L30 3L28 3L28 2ZM39 2L39 3L38 3L38 5L39 5L39 4L40 4L40 2ZM43 2L43 3L42 3L42 7L41 7L41 6L40 6L40 7L41 7L41 8L40 8L40 9L39 9L39 10L40 10L40 14L39 14L39 15L40 15L40 18L38 18L38 16L37 16L37 15L38 15L38 13L37 13L37 12L39 12L39 11L38 11L38 8L39 8L39 6L38 6L38 7L37 7L37 6L36 6L36 10L34 10L34 11L32 11L32 14L31 14L31 15L32 15L32 18L34 18L34 21L33 21L33 22L34 22L34 24L36 24L36 26L37 26L37 27L34 27L34 29L33 29L33 28L32 28L32 30L33 30L33 32L32 32L32 33L31 33L31 34L32 34L32 33L33 33L33 34L34 34L34 37L35 37L35 38L36 38L36 37L35 37L35 35L36 35L36 33L37 33L37 34L38 34L38 33L39 33L39 32L40 32L40 34L42 34L42 33L43 33L43 34L44 34L44 38L43 38L43 39L44 39L44 41L45 41L45 38L46 38L46 41L48 41L48 40L51 40L51 38L52 38L52 37L53 37L53 36L54 36L54 34L53 34L53 36L51 36L51 33L50 33L50 31L53 31L53 32L54 32L54 30L53 30L53 28L54 28L54 27L55 27L55 26L54 26L54 25L55 25L55 24L54 24L54 25L53 25L53 26L52 26L52 25L51 25L51 26L50 26L50 24L49 24L49 23L50 23L50 22L49 22L49 23L48 23L48 21L49 21L49 20L51 20L51 18L50 18L50 17L49 17L49 18L50 18L50 19L49 19L49 20L47 20L47 19L44 19L44 17L43 17L43 18L42 18L42 17L41 17L41 15L42 15L42 12L44 12L44 13L45 13L45 12L44 12L44 10L42 10L42 9L41 9L41 8L42 8L42 7L43 7L43 6L44 6L44 7L45 7L45 6L44 6L44 5L43 5L43 4L44 4L44 2ZM9 4L9 5L10 5L10 4ZM11 4L11 5L13 5L13 4ZM14 5L14 6L13 6L13 7L14 7L14 6L15 6L15 9L14 9L14 8L13 8L13 9L12 9L12 10L11 10L11 11L8 11L8 10L7 10L7 9L5 9L5 11L6 11L6 12L11 12L11 11L13 11L13 12L12 12L12 13L13 13L13 15L12 15L12 14L10 14L10 15L11 15L11 18L12 18L12 19L11 19L11 20L12 20L12 19L13 19L13 18L15 18L15 17L16 17L16 20L17 20L17 21L18 21L18 23L17 23L17 22L16 22L16 23L17 23L17 25L16 25L16 24L15 24L15 25L14 25L14 27L15 27L15 25L16 25L16 26L17 26L17 27L16 27L16 28L15 28L15 30L17 30L17 31L16 31L16 32L17 32L17 33L16 33L16 34L15 34L15 32L14 32L14 31L13 31L13 30L12 30L12 29L14 29L14 28L13 28L13 27L12 27L12 29L11 29L11 28L9 28L9 30L10 30L10 31L9 31L9 32L7 32L7 31L4 31L4 30L3 30L3 31L4 31L4 34L3 34L3 35L4 35L4 36L5 36L5 35L6 35L6 36L7 36L7 37L6 37L6 38L7 38L7 39L5 39L5 37L4 37L4 38L3 38L3 40L4 40L4 43L6 43L6 44L4 44L4 46L3 46L3 47L5 47L5 46L7 46L7 45L6 45L6 44L9 44L9 45L10 45L10 44L11 44L11 45L12 45L12 43L13 43L13 42L14 42L14 41L16 41L16 42L17 42L17 41L18 41L18 40L17 40L17 39L16 39L16 38L17 38L17 37L18 37L18 36L19 36L19 35L20 35L20 34L18 34L18 36L17 36L17 37L16 37L16 36L15 36L15 39L14 39L14 41L11 41L11 40L13 40L13 39L12 39L12 38L14 38L14 37L11 37L11 36L13 36L13 35L11 35L11 34L10 34L10 33L12 33L12 34L14 34L14 35L16 35L16 34L17 34L17 33L18 33L18 32L19 32L19 33L20 33L20 32L19 32L19 31L18 31L18 30L19 30L19 29L20 29L20 30L21 30L21 29L20 29L20 28L18 28L18 27L19 27L19 26L18 26L18 23L19 23L19 24L20 24L20 27L21 27L21 26L22 26L22 22L21 22L21 21L22 21L22 20L21 20L21 21L20 21L20 19L17 19L17 17L18 17L18 18L19 18L19 17L18 17L18 16L19 16L19 15L18 15L18 14L19 14L19 13L18 13L18 14L17 14L17 11L16 11L16 10L17 10L17 9L18 9L18 8L19 8L19 7L18 7L18 6L17 6L17 5L16 5L16 6L15 6L15 5ZM27 5L27 8L30 8L30 5ZM9 6L9 7L10 7L10 6ZM11 6L11 8L10 8L10 9L11 9L11 8L12 8L12 6ZM16 6L16 7L17 7L17 8L18 8L18 7L17 7L17 6ZM24 6L24 7L25 7L25 6ZM28 6L28 7L29 7L29 6ZM32 6L32 7L33 7L33 6ZM0 8L0 11L1 11L1 12L2 12L2 11L3 11L3 10L2 10L2 11L1 11L1 9L3 9L3 8ZM15 9L15 10L16 10L16 9ZM21 9L21 10L22 10L22 9ZM47 9L47 10L48 10L48 9ZM6 10L6 11L7 11L7 10ZM24 10L24 13L23 13L23 14L24 14L24 15L25 15L25 17L27 17L27 16L26 16L26 11L25 11L25 10ZM14 11L14 12L15 12L15 11ZM18 11L18 12L20 12L20 11ZM22 11L22 12L23 12L23 11ZM30 11L30 12L31 12L31 11ZM34 11L34 12L35 12L35 13L34 13L34 15L33 15L33 14L32 14L32 15L33 15L33 17L34 17L34 18L36 18L36 19L37 19L37 18L36 18L36 15L37 15L37 14L36 14L36 12L37 12L37 11ZM41 11L41 12L42 12L42 11ZM51 11L51 12L52 12L52 11ZM1 13L1 14L0 14L0 16L2 16L2 13ZM24 13L24 14L25 14L25 13ZM3 14L3 15L4 15L4 14ZM15 14L15 15L13 15L13 16L12 16L12 18L13 18L13 16L14 16L14 17L15 17L15 15L17 15L17 14ZM35 14L35 15L34 15L34 17L35 17L35 15L36 15L36 14ZM40 14L40 15L41 15L41 14ZM51 14L51 16L52 16L52 18L53 18L53 17L54 17L54 15L55 15L55 14L54 14L54 15L53 15L53 16L52 16L52 14ZM20 15L20 16L21 16L21 15ZM29 15L29 16L30 16L30 17L28 17L28 18L30 18L30 17L31 17L31 16L30 16L30 15ZM43 15L43 16L44 16L44 15ZM3 16L3 17L4 17L4 16ZM16 16L16 17L17 17L17 16ZM6 17L6 18L7 18L7 19L6 19L6 20L5 20L5 22L7 22L7 23L6 23L6 24L5 24L5 25L6 25L6 26L7 26L7 25L6 25L6 24L11 24L11 25L9 25L9 26L10 26L10 27L11 27L11 25L12 25L12 24L14 24L14 22L15 22L15 21L14 21L14 22L13 22L13 21L12 21L12 22L11 22L11 21L10 21L10 20L9 20L9 21L10 21L10 22L7 22L7 21L8 21L8 19L10 19L10 18L7 18L7 17ZM20 17L20 18L21 18L21 17ZM1 18L1 20L2 20L2 18ZM22 18L22 19L23 19L23 18ZM40 18L40 19L39 19L39 21L38 21L38 20L37 20L37 21L36 21L36 20L35 20L35 21L34 21L34 22L35 22L35 23L36 23L36 24L37 24L37 25L38 25L38 26L39 26L39 27L40 27L40 28L39 28L39 29L38 29L38 28L37 28L37 29L36 29L36 28L35 28L35 29L34 29L34 34L35 34L35 33L36 33L36 31L37 31L37 32L38 32L38 31L40 31L40 32L41 32L41 33L42 33L42 31L44 31L44 30L43 30L43 28L42 28L42 31L40 31L40 30L39 30L39 29L40 29L40 28L41 28L41 25L40 25L40 24L39 24L39 25L38 25L38 23L41 23L41 22L40 22L40 19L41 19L41 20L42 20L42 22L43 22L43 23L44 23L44 24L42 24L42 27L43 27L43 26L44 26L44 27L46 27L46 26L47 26L47 25L46 25L46 23L47 23L47 20L46 20L46 23L44 23L44 22L45 22L45 21L44 21L44 19L43 19L43 20L42 20L42 19L41 19L41 18ZM14 19L14 20L15 20L15 19ZM6 20L6 21L7 21L7 20ZM18 20L18 21L19 21L19 20ZM35 21L35 22L36 22L36 23L37 23L37 22L38 22L38 21L37 21L37 22L36 22L36 21ZM43 21L43 22L44 22L44 21ZM12 22L12 23L13 23L13 22ZM20 22L20 23L21 23L21 22ZM24 22L24 23L25 23L25 22ZM51 22L51 23L52 23L52 22ZM23 24L23 25L24 25L24 26L25 26L25 25L24 25L24 24ZM44 24L44 25L45 25L45 26L46 26L46 25L45 25L45 24ZM39 25L39 26L40 26L40 25ZM48 25L48 26L49 26L49 25ZM5 27L5 30L8 30L8 27ZM22 27L22 28L23 28L23 27ZM27 27L27 30L30 30L30 27ZM49 27L49 30L52 30L52 27ZM6 28L6 29L7 29L7 28ZM28 28L28 29L29 29L29 28ZM46 28L46 29L45 29L45 30L46 30L46 31L45 31L45 32L46 32L46 34L45 34L45 33L44 33L44 34L45 34L45 37L46 37L46 38L47 38L47 40L48 40L48 38L47 38L47 36L46 36L46 34L48 34L48 36L49 36L49 37L50 37L50 38L49 38L49 39L50 39L50 38L51 38L51 37L50 37L50 33L49 33L49 34L48 34L48 33L47 33L47 29L48 29L48 28ZM50 28L50 29L51 29L51 28ZM10 29L10 30L11 30L11 31L10 31L10 32L9 32L9 33L8 33L8 34L9 34L9 37L8 37L8 40L6 40L6 41L5 41L5 42L6 42L6 43L7 43L7 42L10 42L10 43L9 43L9 44L10 44L10 43L11 43L11 42L10 42L10 40L11 40L11 39L10 39L10 40L9 40L9 37L10 37L10 38L11 38L11 37L10 37L10 36L11 36L11 35L10 35L10 34L9 34L9 33L10 33L10 32L12 32L12 33L14 33L14 32L13 32L13 31L12 31L12 30L11 30L11 29ZM35 29L35 30L36 30L36 29ZM37 30L37 31L38 31L38 30ZM17 31L17 32L18 32L18 31ZM6 32L6 33L5 33L5 34L6 34L6 35L7 35L7 34L6 34L6 33L7 33L7 32ZM26 33L26 34L28 34L28 33ZM42 35L42 36L43 36L43 35ZM31 36L31 37L32 37L32 36ZM20 38L20 39L21 39L21 38ZM24 38L24 39L26 39L26 38ZM28 38L28 39L29 39L29 38ZM34 39L34 41L35 41L35 39ZM37 39L37 41L38 41L38 39ZM8 40L8 41L9 41L9 40ZM16 40L16 41L17 41L17 40ZM6 41L6 42L7 42L7 41ZM56 42L56 43L57 43L57 42ZM29 44L29 45L30 45L30 47L31 47L31 45L30 45L30 44ZM16 45L16 46L17 46L17 45ZM18 45L18 46L19 46L19 45ZM36 45L36 46L37 46L37 45ZM48 45L48 46L49 46L49 47L50 47L50 45ZM1 46L1 47L2 47L2 46ZM10 46L10 47L12 47L12 46ZM26 46L26 47L24 47L24 48L23 48L23 49L24 49L24 51L22 51L22 52L24 52L24 51L25 51L25 54L24 54L24 55L26 55L26 50L25 50L25 49L26 49L26 48L27 48L27 46ZM6 48L6 49L7 49L7 48ZM33 48L33 49L32 49L32 50L31 50L31 52L32 52L32 50L33 50L33 52L34 52L34 54L35 54L35 53L36 53L36 52L35 52L35 51L34 51L34 50L33 50L33 49L34 49L34 48ZM53 48L53 49L54 49L54 48ZM14 49L14 50L15 50L15 49ZM27 49L27 52L30 52L30 49ZM40 49L40 51L41 51L41 49ZM49 49L49 52L52 52L52 49ZM28 50L28 51L29 51L29 50ZM50 50L50 51L51 51L51 50ZM8 51L8 52L9 52L9 51ZM45 51L45 53L46 53L46 54L45 54L45 56L46 56L46 54L47 54L47 55L48 55L48 54L49 54L49 53L46 53L46 51ZM47 51L47 52L48 52L48 51ZM12 53L12 54L13 54L13 53ZM27 53L27 55L28 55L28 53ZM53 53L53 54L54 54L54 53ZM16 54L16 55L17 55L17 54ZM12 56L12 57L13 57L13 56ZM36 56L36 57L37 57L37 56ZM56 56L56 57L57 57L57 56ZM0 0L0 7L7 7L7 0ZM1 1L1 6L6 6L6 1ZM2 2L2 5L5 5L5 2ZM50 0L50 7L57 7L57 0ZM51 1L51 6L56 6L56 1ZM52 2L52 5L55 5L55 2ZM0 50L0 57L7 57L7 50ZM1 51L1 56L6 56L6 51ZM2 52L2 55L5 55L5 52Z" fill="#000000"/></g></g></svg>
