<?xml version="1.0" encoding="UTF-8"?>
<svg xmlns="http://www.w3.org/2000/svg" version="1.1" width="300" height="300" viewBox="0 0 300 300"><rect x="0" y="0" width="300" height="300" fill="#fefefe"/><g transform="scale(4.615)"><g transform="translate(4,4)"><path fill-rule="evenodd" d="M9 0L9 1L8 1L8 2L11 2L11 1L10 1L10 0ZM13 0L13 1L14 1L14 2L12 2L12 3L8 3L8 4L9 4L9 5L8 5L8 7L9 7L9 8L6 8L6 9L5 9L5 8L0 8L0 9L4 9L4 11L3 11L3 10L1 10L1 11L3 11L3 12L4 12L4 11L5 11L5 12L6 12L6 13L8 13L8 15L7 15L7 14L5 14L5 13L4 13L4 14L3 14L3 13L2 13L2 12L0 12L0 13L1 13L1 14L0 14L0 17L1 17L1 18L3 18L3 19L4 19L4 21L3 21L3 23L2 23L2 22L1 22L1 24L3 24L3 28L2 28L2 27L1 27L1 28L0 28L0 31L1 31L1 30L2 30L2 31L3 31L3 30L4 30L4 32L1 32L1 33L0 33L0 34L2 34L2 33L3 33L3 35L2 35L2 36L4 36L4 37L5 37L5 35L8 35L8 36L6 36L6 37L7 37L7 38L6 38L6 39L7 39L7 40L6 40L6 41L5 41L5 40L4 40L4 38L2 38L2 40L1 40L1 38L0 38L0 40L1 40L1 42L0 42L0 43L1 43L1 44L0 44L0 45L1 45L1 46L0 46L0 48L5 48L5 47L8 47L8 46L6 46L6 45L7 45L7 44L9 44L9 46L10 46L10 48L9 48L9 49L8 49L8 48L6 48L6 49L8 49L8 51L9 51L9 52L8 52L8 57L9 57L9 54L10 54L10 53L9 53L9 52L11 52L11 57L12 57L12 55L14 55L14 57L16 57L16 56L17 56L17 57L19 57L19 55L20 55L20 54L19 54L19 55L17 55L17 53L20 53L20 52L21 52L21 51L20 51L20 49L21 49L21 50L25 50L25 49L24 49L24 47L23 47L23 46L22 46L22 45L24 45L24 46L25 46L25 45L24 45L24 43L25 43L25 44L27 44L27 45L26 45L26 47L25 47L25 48L26 48L26 52L24 52L24 53L23 53L23 54L22 54L22 55L21 55L21 56L20 56L20 57L21 57L21 56L24 56L24 55L23 55L23 54L24 54L24 53L27 53L27 54L26 54L26 56L25 56L25 57L26 57L26 56L27 56L27 57L29 57L29 56L30 56L30 57L31 57L31 56L35 56L35 57L39 57L39 56L41 56L41 57L44 57L44 56L42 56L42 55L44 55L44 54L45 54L45 53L44 53L44 52L45 52L45 51L46 51L46 53L47 53L47 56L46 56L46 55L45 55L45 57L48 57L48 56L50 56L50 57L52 57L52 55L51 55L51 53L52 53L52 54L54 54L54 53L56 53L56 52L55 52L55 51L56 51L56 50L57 50L57 48L56 48L56 46L57 46L57 45L56 45L56 46L55 46L55 45L54 45L54 44L55 44L55 43L56 43L56 44L57 44L57 43L56 43L56 41L55 41L55 39L57 39L57 35L56 35L56 34L55 34L55 32L56 32L56 33L57 33L57 32L56 32L56 30L57 30L57 29L56 29L56 27L55 27L55 26L57 26L57 25L56 25L56 22L57 22L57 21L56 21L56 20L57 20L57 19L56 19L56 18L57 18L57 17L56 17L56 16L57 16L57 15L56 15L56 14L57 14L57 13L56 13L56 14L55 14L55 13L54 13L54 12L55 12L55 11L56 11L56 8L55 8L55 10L54 10L54 11L50 11L50 8L49 8L49 6L48 6L48 7L47 7L47 5L48 5L48 0L45 0L45 2L44 2L44 3L43 3L43 4L40 4L40 5L39 5L39 6L38 6L38 7L37 7L37 5L38 5L38 3L41 3L41 2L43 2L43 0L41 0L41 1L40 1L40 0L39 0L39 1L38 1L38 0L37 0L37 1L38 1L38 3L36 3L36 0L35 0L35 1L33 1L33 2L32 2L32 3L31 3L31 0L28 0L28 1L25 1L25 0L23 0L23 2L28 2L28 3L30 3L30 4L26 4L26 3L23 3L23 4L19 4L19 1L20 1L20 2L21 2L21 3L22 3L22 0L21 0L21 1L20 1L20 0L19 0L19 1L17 1L17 2L18 2L18 3L17 3L17 4L19 4L19 5L20 5L20 7L19 7L19 6L18 6L18 5L17 5L17 6L16 6L16 7L15 7L15 5L16 5L16 4L15 4L15 5L14 5L14 8L13 8L13 9L12 9L12 7L13 7L13 6L12 6L12 5L10 5L10 4L12 4L12 3L13 3L13 4L14 4L14 2L16 2L16 1L14 1L14 0ZM29 1L29 2L30 2L30 1ZM46 1L46 2L47 2L47 1ZM33 2L33 3L32 3L32 4L31 4L31 8L32 8L32 10L28 10L28 11L29 11L29 12L28 12L28 13L26 13L26 12L27 12L27 11L26 11L26 12L25 12L25 10L23 10L23 12L24 12L24 13L22 13L22 12L21 12L21 11L22 11L22 10L21 10L21 9L24 9L24 6L23 6L23 5L24 5L24 4L23 4L23 5L21 5L21 7L22 7L22 8L19 8L19 9L20 9L20 10L19 10L19 13L20 13L20 14L21 14L21 13L22 13L22 14L24 14L24 13L25 13L25 14L26 14L26 17L25 17L25 16L24 16L24 15L21 15L21 16L22 16L22 17L20 17L20 15L19 15L19 14L18 14L18 15L17 15L17 13L18 13L18 12L17 12L17 13L16 13L16 12L15 12L15 13L13 13L13 12L14 12L14 11L12 11L12 10L9 10L9 9L10 9L10 8L11 8L11 7L12 7L12 6L11 6L11 7L10 7L10 5L9 5L9 7L10 7L10 8L9 8L9 9L6 9L6 10L9 10L9 11L8 11L8 13L9 13L9 11L10 11L10 12L11 12L11 14L9 14L9 16L10 16L10 17L12 17L12 19L14 19L14 20L13 20L13 21L14 21L14 22L16 22L16 21L17 21L17 20L18 20L18 19L20 19L20 21L19 21L19 22L20 22L20 23L19 23L19 24L21 24L21 25L17 25L17 24L18 24L18 23L17 23L17 24L16 24L16 23L13 23L13 25L12 25L12 22L11 22L11 20L9 20L9 21L8 21L8 22L7 22L7 21L6 21L6 20L8 20L8 19L6 19L6 18L9 18L9 19L10 19L10 18L9 18L9 17L8 17L8 16L7 16L7 15L5 15L5 14L4 14L4 16L1 16L1 17L3 17L3 18L4 18L4 17L5 17L5 19L6 19L6 20L5 20L5 21L6 21L6 22L7 22L7 23L6 23L6 24L7 24L7 25L6 25L6 26L8 26L8 25L9 25L9 27L10 27L10 25L9 25L9 24L11 24L11 25L12 25L12 26L13 26L13 27L12 27L12 28L10 28L10 29L11 29L11 30L9 30L9 31L5 31L5 32L4 32L4 33L5 33L5 34L4 34L4 35L5 35L5 34L9 34L9 33L10 33L10 35L9 35L9 36L8 36L8 37L9 37L9 38L10 38L10 35L11 35L11 36L12 36L12 38L11 38L11 39L9 39L9 40L12 40L12 38L13 38L13 36L14 36L14 39L16 39L16 40L15 40L15 41L16 41L16 42L14 42L14 40L13 40L13 41L12 41L12 43L13 43L13 44L12 44L12 45L11 45L11 41L9 41L9 42L8 42L8 41L6 41L6 42L5 42L5 44L7 44L7 43L6 43L6 42L8 42L8 43L9 43L9 44L10 44L10 45L11 45L11 46L12 46L12 49L11 49L11 50L9 50L9 51L11 51L11 52L13 52L13 51L12 51L12 49L13 49L13 50L14 50L14 49L13 49L13 48L14 48L14 47L15 47L15 50L17 50L17 52L16 52L16 51L14 51L14 53L12 53L12 54L14 54L14 55L15 55L15 56L16 56L16 55L15 55L15 54L16 54L16 53L17 53L17 52L18 52L18 51L19 51L19 50L18 50L18 49L17 49L17 48L18 48L18 46L17 46L17 45L18 45L18 44L17 44L17 45L16 45L16 43L18 43L18 42L19 42L19 41L20 41L20 43L22 43L22 42L23 42L23 43L24 43L24 42L23 42L23 41L25 41L25 43L29 43L29 42L30 42L30 41L31 41L31 42L32 42L32 43L33 43L33 44L29 44L29 45L27 45L27 47L26 47L26 48L27 48L27 47L28 47L28 48L29 48L29 47L28 47L28 46L29 46L29 45L30 45L30 46L31 46L31 47L32 47L32 46L35 46L35 45L34 45L34 43L35 43L35 44L36 44L36 43L37 43L37 42L35 42L35 40L38 40L38 42L39 42L39 41L41 41L41 40L42 40L42 41L43 41L43 42L44 42L44 45L43 45L43 46L41 46L41 44L42 44L42 42L41 42L41 44L39 44L39 45L38 45L38 46L39 46L39 47L38 47L38 48L37 48L37 49L38 49L38 50L36 50L36 49L34 49L34 48L31 48L31 49L33 49L33 50L36 50L36 52L37 52L37 51L38 51L38 52L39 52L39 53L38 53L38 54L40 54L40 53L41 53L41 52L40 52L40 51L38 51L38 50L41 50L41 51L42 51L42 50L41 50L41 48L42 48L42 49L43 49L43 50L44 50L44 51L45 51L45 50L46 50L46 51L47 51L47 53L48 53L48 50L47 50L47 49L48 49L48 48L49 48L49 47L48 47L48 46L47 46L47 45L49 45L49 46L50 46L50 48L53 48L53 49L55 49L55 50L54 50L54 51L55 51L55 50L56 50L56 48L53 48L53 43L54 43L54 42L53 42L53 41L54 41L54 40L53 40L53 41L51 41L51 42L50 42L50 43L48 43L48 44L47 44L47 45L45 45L45 44L46 44L46 42L48 42L48 41L49 41L49 40L50 40L50 39L51 39L51 38L53 38L53 35L55 35L55 34L54 34L54 33L52 33L52 32L51 32L51 33L52 33L52 34L50 34L50 31L48 31L48 28L47 28L47 29L46 29L46 30L47 30L47 31L48 31L48 32L47 32L47 33L45 33L45 32L43 32L43 31L45 31L45 28L46 28L46 27L47 27L47 25L49 25L49 23L50 23L50 26L51 26L51 25L55 25L55 24L53 24L53 23L55 23L55 22L56 22L56 21L55 21L55 20L56 20L56 19L55 19L55 20L53 20L53 19L52 19L52 18L51 18L51 17L53 17L53 18L55 18L55 16L52 16L52 15L51 15L51 17L50 17L50 14L51 14L51 12L50 12L50 11L48 11L48 10L47 10L47 9L49 9L49 8L47 8L47 9L45 9L45 8L44 8L44 10L47 10L47 11L48 11L48 12L45 12L45 11L44 11L44 14L41 14L41 13L43 13L43 11L42 11L42 10L41 10L41 9L43 9L43 7L44 7L44 6L45 6L45 7L46 7L46 6L45 6L45 4L46 4L46 5L47 5L47 3L44 3L44 6L43 6L43 7L42 7L42 5L40 5L40 6L39 6L39 7L40 7L40 8L39 8L39 9L38 9L38 8L37 8L37 7L36 7L36 5L37 5L37 4L36 4L36 5L35 5L35 4L34 4L34 3L35 3L35 2ZM25 4L25 8L26 8L26 4ZM32 4L32 5L34 5L34 7L33 7L33 6L32 6L32 7L33 7L33 9L34 9L34 8L35 8L35 9L37 9L37 10L36 10L36 11L37 11L37 12L35 12L35 13L36 13L36 14L33 14L33 13L34 13L34 12L33 12L33 13L32 13L32 11L33 11L33 10L32 10L32 11L31 11L31 13L30 13L30 14L29 14L29 13L28 13L28 14L29 14L29 16L28 16L28 15L27 15L27 16L28 16L28 17L27 17L27 18L25 18L25 17L22 17L22 20L24 20L24 21L22 21L22 22L24 22L24 21L25 21L25 22L26 22L26 23L25 23L25 24L24 24L24 23L22 23L22 24L23 24L23 25L22 25L22 26L21 26L21 27L20 27L20 26L19 26L19 28L20 28L20 29L18 29L18 28L16 28L16 27L18 27L18 26L15 26L15 24L14 24L14 25L13 25L13 26L14 26L14 28L12 28L12 29L14 29L14 31L15 31L15 32L14 32L14 33L17 33L17 34L14 34L14 36L15 36L15 35L17 35L17 34L18 34L18 33L21 33L21 34L22 34L22 33L21 33L21 32L25 32L25 31L26 31L26 35L25 35L25 33L23 33L23 34L24 34L24 36L23 36L23 35L21 35L21 36L23 36L23 37L24 37L24 38L21 38L21 37L19 37L19 36L20 36L20 35L19 35L19 36L17 36L17 39L18 39L18 40L16 40L16 41L19 41L19 40L21 40L21 39L24 39L24 40L25 40L25 39L27 39L27 40L28 40L28 39L27 39L27 38L28 38L28 37L26 37L26 38L25 38L25 36L26 36L26 35L27 35L27 31L28 31L28 33L29 33L29 34L30 34L30 36L29 36L29 37L31 37L31 38L29 38L29 39L33 39L33 40L35 40L35 39L37 39L37 38L38 38L38 40L41 40L41 39L42 39L42 38L43 38L43 37L44 37L44 38L45 38L45 39L44 39L44 40L43 40L43 41L44 41L44 42L46 42L46 41L44 41L44 40L45 40L45 39L46 39L46 40L47 40L47 39L50 39L50 38L51 38L51 37L52 37L52 35L53 35L53 34L52 34L52 35L50 35L50 34L49 34L49 35L50 35L50 36L48 36L48 37L47 37L47 39L46 39L46 38L45 38L45 37L46 37L46 36L45 36L45 35L47 35L47 34L45 34L45 35L44 35L44 33L43 33L43 32L41 32L41 33L39 33L39 34L40 34L40 35L38 35L38 33L37 33L37 32L34 32L34 31L36 31L36 30L33 30L33 33L35 33L35 34L33 34L33 35L32 35L32 32L31 32L31 33L29 33L29 31L32 31L32 28L31 28L31 26L32 26L32 27L33 27L33 28L35 28L35 29L38 29L38 28L39 28L39 27L36 27L36 26L34 26L34 27L33 27L33 26L32 26L32 24L33 24L33 25L37 25L37 26L38 26L38 24L43 24L43 25L41 25L41 26L40 26L40 25L39 25L39 26L40 26L40 27L41 27L41 28L42 28L42 27L41 27L41 26L43 26L43 28L45 28L45 27L46 27L46 26L43 26L43 25L44 25L44 24L43 24L43 23L44 23L44 20L47 20L47 22L46 22L46 21L45 21L45 22L46 22L46 24L45 24L45 25L46 25L46 24L48 24L48 23L47 23L47 22L49 22L49 21L51 21L51 22L50 22L50 23L53 23L53 21L51 21L51 20L52 20L52 19L50 19L50 17L49 17L49 16L48 16L48 15L49 15L49 14L50 14L50 12L49 12L49 13L47 13L47 14L45 14L45 16L46 16L46 17L47 17L47 18L46 18L46 19L45 19L45 18L44 18L44 15L42 15L42 16L41 16L41 15L39 15L39 14L38 14L38 13L39 13L39 10L38 10L38 9L37 9L37 8L35 8L35 5L34 5L34 4ZM27 5L27 8L30 8L30 5ZM17 6L17 7L16 7L16 8L14 8L14 9L13 9L13 10L15 10L15 11L18 11L18 9L16 9L16 8L17 8L17 7L18 7L18 6ZM22 6L22 7L23 7L23 6ZM28 6L28 7L29 7L29 6ZM40 6L40 7L41 7L41 6ZM51 8L51 9L52 9L52 10L53 10L53 9L54 9L54 8L53 8L53 9L52 9L52 8ZM37 10L37 11L38 11L38 10ZM40 10L40 12L41 12L41 10ZM6 11L6 12L7 12L7 11ZM11 11L11 12L12 12L12 11ZM20 12L20 13L21 13L21 12ZM52 12L52 13L53 13L53 14L54 14L54 15L55 15L55 14L54 14L54 13L53 13L53 12ZM12 13L12 14L13 14L13 15L10 15L10 16L12 16L12 17L13 17L13 18L15 18L15 19L16 19L16 20L15 20L15 21L16 21L16 20L17 20L17 19L18 19L18 18L17 18L17 19L16 19L16 18L15 18L15 17L13 17L13 16L14 16L14 15L15 15L15 16L16 16L16 13L15 13L15 14L13 14L13 13ZM2 14L2 15L3 15L3 14ZM30 14L30 15L31 15L31 14ZM37 14L37 15L35 15L35 16L31 16L31 18L30 18L30 19L31 19L31 18L32 18L32 17L33 17L33 20L32 20L32 21L31 21L31 20L27 20L27 19L28 19L28 18L27 18L27 19L26 19L26 21L28 21L28 22L27 22L27 24L25 24L25 25L26 25L26 26L24 26L24 27L23 27L23 26L22 26L22 27L21 27L21 28L22 28L22 29L20 29L20 30L19 30L19 32L21 32L21 31L25 31L25 30L23 30L23 29L26 29L26 28L25 28L25 27L26 27L26 26L29 26L29 25L30 25L30 24L32 24L32 23L33 23L33 22L34 22L34 23L35 23L35 19L36 19L36 20L37 20L37 19L39 19L39 17L41 17L41 16L39 16L39 15L38 15L38 14ZM18 15L18 16L17 16L17 17L19 17L19 18L20 18L20 17L19 17L19 15ZM5 16L5 17L7 17L7 16ZM35 16L35 17L37 17L37 18L38 18L38 17L39 17L39 16L38 16L38 17L37 17L37 16ZM42 16L42 17L43 17L43 16ZM47 16L47 17L48 17L48 16ZM23 18L23 19L24 19L24 18ZM41 18L41 19L42 19L42 18ZM43 18L43 20L44 20L44 18ZM48 18L48 19L49 19L49 18ZM0 19L0 21L1 21L1 20L2 20L2 19ZM38 20L38 22L37 22L37 24L38 24L38 22L39 22L39 23L40 23L40 22L39 22L39 21L42 21L42 20ZM9 21L9 22L8 22L8 23L7 23L7 24L9 24L9 22L10 22L10 21ZM29 21L29 23L30 23L30 22L31 22L31 21ZM4 22L4 25L5 25L5 22ZM41 22L41 23L42 23L42 22ZM53 26L53 27L54 27L54 26ZM5 27L5 30L8 30L8 27ZM27 27L27 30L30 30L30 27ZM35 27L35 28L36 28L36 27ZM49 27L49 30L52 30L52 27ZM3 28L3 29L2 29L2 30L3 30L3 29L4 29L4 28ZM6 28L6 29L7 29L7 28ZM15 28L15 29L16 29L16 30L18 30L18 29L16 29L16 28ZM28 28L28 29L29 29L29 28ZM50 28L50 29L51 29L51 28ZM54 28L54 29L53 29L53 30L54 30L54 31L55 31L55 30L54 30L54 29L55 29L55 28ZM39 29L39 30L38 30L38 32L39 32L39 31L41 31L41 30L44 30L44 29ZM11 30L11 31L9 31L9 32L10 32L10 33L11 33L11 35L13 35L13 32L11 32L11 31L13 31L13 30ZM20 30L20 31L21 31L21 30ZM17 31L17 33L18 33L18 31ZM6 32L6 33L8 33L8 32ZM48 32L48 33L49 33L49 32ZM35 34L35 36L37 36L37 37L38 37L38 38L39 38L39 39L41 39L41 38L42 38L42 37L41 37L41 36L40 36L40 37L38 37L38 35L37 35L37 34ZM42 34L42 35L43 35L43 36L44 36L44 37L45 37L45 36L44 36L44 35L43 35L43 34ZM33 35L33 36L32 36L32 37L33 37L33 36L34 36L34 35ZM0 36L0 37L1 37L1 36ZM50 36L50 37L49 37L49 38L50 38L50 37L51 37L51 36ZM55 36L55 37L54 37L54 38L55 38L55 37L56 37L56 36ZM15 37L15 38L16 38L16 37ZM34 37L34 38L33 38L33 39L34 39L34 38L35 38L35 37ZM40 37L40 38L41 38L41 37ZM7 38L7 39L8 39L8 38ZM19 38L19 39L20 39L20 38ZM31 40L31 41L32 41L32 42L33 42L33 43L34 43L34 42L33 42L33 41L32 41L32 40ZM3 41L3 43L2 43L2 42L1 42L1 43L2 43L2 44L1 44L1 45L4 45L4 44L3 44L3 43L4 43L4 41ZM21 41L21 42L22 42L22 41ZM26 41L26 42L27 42L27 41ZM9 42L9 43L10 43L10 42ZM13 42L13 43L14 43L14 42ZM51 42L51 43L50 43L50 44L49 44L49 45L51 45L51 43L53 43L53 42ZM13 44L13 47L14 47L14 46L15 46L15 47L16 47L16 46L15 46L15 45L14 45L14 44ZM19 44L19 45L20 45L20 46L19 46L19 47L20 47L20 48L19 48L19 49L20 49L20 48L21 48L21 49L23 49L23 47L20 47L20 46L21 46L21 45L22 45L22 44ZM31 45L31 46L32 46L32 45ZM36 45L36 46L37 46L37 45ZM1 46L1 47L2 47L2 46ZM3 46L3 47L5 47L5 46ZM40 46L40 47L39 47L39 48L38 48L38 49L39 49L39 48L41 48L41 46ZM43 46L43 47L42 47L42 48L43 48L43 49L44 49L44 50L45 50L45 49L44 49L44 48L43 48L43 47L44 47L44 46ZM45 46L45 48L46 48L46 49L47 49L47 48L48 48L48 47L47 47L47 46ZM51 46L51 47L52 47L52 46ZM35 47L35 48L36 48L36 47ZM46 47L46 48L47 48L47 47ZM27 49L27 52L30 52L30 49ZM49 49L49 52L52 52L52 49ZM28 50L28 51L29 51L29 50ZM31 50L31 53L30 53L30 54L27 54L27 56L29 56L29 55L30 55L30 56L31 56L31 54L32 54L32 53L33 53L33 55L35 55L35 56L36 56L36 54L35 54L35 53L33 53L33 52L32 52L32 50ZM50 50L50 51L51 51L51 50ZM34 51L34 52L35 52L35 51ZM15 52L15 53L16 53L16 52ZM53 52L53 53L54 53L54 52ZM43 53L43 54L44 54L44 53ZM41 54L41 55L42 55L42 54ZM37 55L37 56L39 56L39 55ZM50 55L50 56L51 56L51 55ZM53 55L53 56L55 56L55 57L56 57L56 56L55 56L55 55ZM0 0L0 7L7 7L7 0ZM1 1L1 6L6 6L6 1ZM2 2L2 5L5 5L5 2ZM50 0L50 7L57 7L57 0ZM51 1L51 6L56 6L56 1ZM52 2L52 5L55 5L55 2ZM0 50L0 57L7 57L7 50ZM1 51L1 56L6 56L6 51ZM2 52L2 55L5 55L5 52Z" fill="#000000"/></g></g></svg>
