<?xml version="1.0" encoding="UTF-8"?>
<svg xmlns="http://www.w3.org/2000/svg" version="1.1" width="300" height="300" viewBox="0 0 300 300"><rect x="0" y="0" width="300" height="300" fill="#fefefe"/><g transform="scale(4.615)"><g transform="translate(4,4)"><path fill-rule="evenodd" d="M8 0L8 2L9 2L9 1L10 1L10 3L9 3L9 4L8 4L8 9L9 9L9 10L10 10L10 11L9 11L9 13L10 13L10 14L8 14L8 12L2 12L2 13L3 13L3 15L4 15L4 16L2 16L2 15L1 15L1 14L0 14L0 17L1 17L1 19L2 19L2 18L3 18L3 20L1 20L1 21L3 21L3 22L0 22L0 24L1 24L1 25L2 25L2 24L3 24L3 26L4 26L4 27L2 27L2 26L0 26L0 27L2 27L2 29L3 29L3 31L4 31L4 32L2 32L2 31L0 31L0 32L1 32L1 33L4 33L4 34L2 34L2 36L1 36L1 38L2 38L2 40L4 40L4 42L3 42L3 41L1 41L1 42L0 42L0 43L1 43L1 45L2 45L2 47L1 47L1 46L0 46L0 48L5 48L5 47L10 47L10 48L8 48L8 50L10 50L10 51L12 51L12 50L10 50L10 48L12 48L12 49L13 49L13 48L12 48L12 47L14 47L14 45L15 45L15 46L16 46L16 47L15 47L15 48L14 48L14 50L13 50L13 52L9 52L9 51L8 51L8 52L9 52L9 53L12 53L12 54L14 54L14 55L13 55L13 56L14 56L14 57L15 57L15 56L16 56L16 57L17 57L17 56L18 56L18 57L21 57L21 56L19 56L19 55L18 55L18 53L19 53L19 52L20 52L20 53L21 53L21 54L20 54L20 55L21 55L21 54L23 54L23 55L22 55L22 57L25 57L25 56L26 56L26 57L28 57L28 55L29 55L29 57L33 57L33 55L34 55L34 57L35 57L35 55L37 55L37 54L36 54L36 53L37 53L37 51L38 51L38 47L37 47L37 46L38 46L38 45L37 45L37 44L39 44L39 43L37 43L37 44L36 44L36 45L37 45L37 46L35 46L35 47L37 47L37 48L36 48L36 49L37 49L37 51L35 51L35 50L34 50L34 49L35 49L35 48L34 48L34 49L33 49L33 47L34 47L34 45L33 45L33 44L35 44L35 43L36 43L36 41L37 41L37 42L38 42L38 41L39 41L39 42L40 42L40 43L41 43L41 42L42 42L42 43L43 43L43 44L42 44L42 45L41 45L41 44L40 44L40 45L39 45L39 46L41 46L41 47L40 47L40 49L39 49L39 52L40 52L40 53L39 53L39 56L40 56L40 57L41 57L41 56L40 56L40 54L41 54L41 55L42 55L42 57L43 57L43 54L42 54L42 52L41 52L41 51L43 51L43 52L44 52L44 55L45 55L45 56L44 56L44 57L45 57L45 56L46 56L46 52L47 52L47 53L49 53L49 54L48 54L48 55L49 55L49 57L50 57L50 55L49 55L49 54L52 54L52 55L53 55L53 53L55 53L55 52L56 52L56 51L57 51L57 49L56 49L56 47L57 47L57 45L56 45L56 47L55 47L55 52L54 52L54 51L53 51L53 50L54 50L54 46L55 46L55 45L54 45L54 46L52 46L52 39L53 39L53 40L54 40L54 41L53 41L53 44L54 44L54 43L55 43L55 44L56 44L56 43L57 43L57 42L56 42L56 43L55 43L55 42L54 42L54 41L57 41L57 40L54 40L54 38L52 38L52 37L53 37L53 36L54 36L54 37L55 37L55 38L57 38L57 36L56 36L56 35L57 35L57 33L56 33L56 31L57 31L57 24L56 24L56 23L57 23L57 21L56 21L56 20L55 20L55 21L54 21L54 19L55 19L55 18L56 18L56 19L57 19L57 13L56 13L56 12L57 12L57 10L56 10L56 9L57 9L57 8L55 8L55 9L54 9L54 10L53 10L53 8L49 8L49 10L48 10L48 11L46 11L46 8L48 8L48 7L49 7L49 6L48 6L48 7L47 7L47 5L48 5L48 0L42 0L42 1L41 1L41 0L38 0L38 2L37 2L37 1L35 1L35 0L34 0L34 2L33 2L33 1L32 1L32 0L30 0L30 1L29 1L29 0L28 0L28 1L27 1L27 0L26 0L26 1L25 1L25 0L24 0L24 1L23 1L23 0L20 0L20 2L18 2L18 1L17 1L17 0L16 0L16 1L15 1L15 0L11 0L11 1L10 1L10 0ZM11 1L11 2L12 2L12 3L11 3L11 4L9 4L9 5L11 5L11 8L12 8L12 9L10 9L10 10L11 10L11 11L12 11L12 12L13 12L13 13L12 13L12 15L13 15L13 14L14 14L14 16L12 16L12 19L11 19L11 20L10 20L10 18L11 18L11 15L9 15L9 16L10 16L10 17L8 17L8 18L9 18L9 19L8 19L8 21L6 21L6 22L7 22L7 23L6 23L6 24L7 24L7 25L6 25L6 26L7 26L7 25L8 25L8 24L9 24L9 25L10 25L10 26L11 26L11 27L9 27L9 28L11 28L11 29L9 29L9 31L5 31L5 32L4 32L4 33L5 33L5 35L4 35L4 36L2 36L2 38L3 38L3 37L4 37L4 38L5 38L5 39L4 39L4 40L5 40L5 39L6 39L6 40L7 40L7 39L8 39L8 38L10 38L10 37L9 37L9 36L13 36L13 37L11 37L11 38L13 38L13 39L12 39L12 43L13 43L13 42L14 42L14 40L16 40L16 42L15 42L15 43L14 43L14 44L15 44L15 45L16 45L16 46L17 46L17 47L16 47L16 48L17 48L17 49L16 49L16 50L14 50L14 52L13 52L13 53L14 53L14 54L15 54L15 53L14 53L14 52L17 52L17 53L18 53L18 52L17 52L17 51L18 51L18 46L19 46L19 48L21 48L21 49L20 49L20 50L19 50L19 51L20 51L20 50L22 50L22 51L23 51L23 52L24 52L24 51L25 51L25 54L24 54L24 55L26 55L26 51L25 51L25 50L26 50L26 49L25 49L25 46L26 46L26 48L27 48L27 47L28 47L28 48L31 48L31 47L32 47L32 46L31 46L31 45L30 45L30 42L29 42L29 41L28 41L28 40L30 40L30 36L31 36L31 37L32 37L32 36L31 36L31 35L28 35L28 34L29 34L29 32L28 32L28 31L27 31L27 33L26 33L26 30L25 30L25 29L24 29L24 27L22 27L22 28L23 28L23 29L22 29L22 30L21 30L21 28L20 28L20 26L22 26L22 24L23 24L23 25L24 25L24 26L25 26L25 25L24 25L24 24L23 24L23 21L22 21L22 19L23 19L23 18L22 18L22 19L21 19L21 21L20 21L20 19L19 19L19 18L18 18L18 15L19 15L19 17L20 17L20 18L21 18L21 17L20 17L20 16L21 16L21 15L20 15L20 14L22 14L22 16L24 16L24 18L26 18L26 16L27 16L27 19L26 19L26 20L27 20L27 22L26 22L26 23L27 23L27 25L26 25L26 26L27 26L27 25L28 25L28 24L29 24L29 26L31 26L31 25L32 25L32 28L31 28L31 29L32 29L32 28L33 28L33 29L34 29L34 32L35 32L35 33L33 33L33 35L35 35L35 36L34 36L34 38L31 38L31 43L32 43L32 40L33 40L33 41L34 41L34 42L35 42L35 41L36 41L36 38L37 38L37 37L36 37L36 35L38 35L38 36L40 36L40 35L41 35L41 39L40 39L40 38L39 38L39 37L38 37L38 39L37 39L37 41L38 41L38 39L39 39L39 41L40 41L40 40L41 40L41 41L42 41L42 42L43 42L43 41L44 41L44 44L43 44L43 45L42 45L42 47L41 47L41 49L40 49L40 51L41 51L41 49L42 49L42 50L44 50L44 47L45 47L45 48L46 48L46 49L45 49L45 52L46 52L46 51L47 51L47 52L48 52L48 51L47 51L47 48L46 48L46 47L48 47L48 46L49 46L49 47L50 47L50 48L51 48L51 47L50 47L50 45L51 45L51 44L50 44L50 42L49 42L49 41L51 41L51 40L50 40L50 37L51 37L51 36L53 36L53 34L54 34L54 36L55 36L55 35L56 35L56 33L55 33L55 31L56 31L56 30L55 30L55 29L56 29L56 24L55 24L55 23L56 23L56 21L55 21L55 23L54 23L54 21L53 21L53 22L52 22L52 20L53 20L53 19L54 19L54 16L55 16L55 17L56 17L56 16L55 16L55 15L56 15L56 13L55 13L55 11L56 11L56 10L55 10L55 11L54 11L54 12L53 12L53 14L52 14L52 13L50 13L50 11L51 11L51 12L52 12L52 11L51 11L51 9L50 9L50 11L48 11L48 14L47 14L47 13L46 13L46 11L45 11L45 9L44 9L44 8L45 8L45 7L46 7L46 6L45 6L45 5L44 5L44 4L45 4L45 2L47 2L47 1L42 1L42 2L40 2L40 1L39 1L39 2L40 2L40 4L39 4L39 5L38 5L38 3L37 3L37 2L34 2L34 3L33 3L33 2L32 2L32 1L30 1L30 3L28 3L28 2L29 2L29 1L28 1L28 2L27 2L27 3L26 3L26 4L27 4L27 3L28 3L28 4L30 4L30 3L31 3L31 2L32 2L32 5L31 5L31 9L30 9L30 10L29 10L29 12L30 12L30 13L29 13L29 15L28 15L28 14L27 14L27 12L28 12L28 9L27 9L27 10L25 10L25 9L26 9L26 5L24 5L24 6L23 6L23 5L22 5L22 4L23 4L23 2L22 2L22 1L21 1L21 2L22 2L22 4L21 4L21 3L18 3L18 2L17 2L17 3L16 3L16 2L15 2L15 3L14 3L14 1L13 1L13 2L12 2L12 1ZM24 1L24 4L25 4L25 1ZM43 2L43 3L42 3L42 5L41 5L41 6L40 6L40 7L41 7L41 8L40 8L40 9L41 9L41 11L40 11L40 10L38 10L38 9L37 9L37 8L39 8L39 6L38 6L38 5L37 5L37 6L36 6L36 10L34 10L34 9L35 9L35 4L36 4L36 3L34 3L34 8L32 8L32 9L31 9L31 10L30 10L30 12L31 12L31 11L32 11L32 13L31 13L31 16L30 16L30 15L29 15L29 16L30 16L30 17L28 17L28 18L30 18L30 17L31 17L31 16L32 16L32 17L33 17L33 19L31 19L31 20L30 20L30 21L31 21L31 20L32 20L32 21L33 21L33 22L31 22L31 23L32 23L32 25L33 25L33 26L34 26L34 24L36 24L36 26L37 26L37 28L36 28L36 27L34 27L34 29L35 29L35 30L36 30L36 29L37 29L37 28L38 28L38 29L39 29L39 30L40 30L40 31L38 31L38 30L37 30L37 31L36 31L36 33L35 33L35 35L36 35L36 33L37 33L37 34L38 34L38 35L39 35L39 34L38 34L38 33L39 33L39 32L40 32L40 34L42 34L42 33L43 33L43 35L42 35L42 37L43 37L43 35L44 35L44 38L43 38L43 40L42 40L42 41L43 41L43 40L44 40L44 41L45 41L45 44L44 44L44 46L43 46L43 47L44 47L44 46L45 46L45 47L46 47L46 44L47 44L47 46L48 46L48 45L49 45L49 42L48 42L48 44L47 44L47 42L46 42L46 41L45 41L45 40L47 40L47 41L48 41L48 40L49 40L49 39L48 39L48 40L47 40L47 38L46 38L46 37L48 37L48 38L49 38L49 37L50 37L50 36L51 36L51 33L50 33L50 32L49 32L49 31L52 31L52 32L53 32L53 33L54 33L54 31L55 31L55 30L54 30L54 31L53 31L53 28L54 28L54 27L55 27L55 26L54 26L54 25L53 25L53 24L52 24L52 22L51 22L51 23L50 23L50 22L49 22L49 23L48 23L48 21L49 21L49 20L51 20L51 18L52 18L52 17L53 17L53 16L54 16L54 15L55 15L55 14L53 14L53 16L52 16L52 14L51 14L51 16L52 16L52 17L51 17L51 18L50 18L50 17L49 17L49 16L50 16L50 13L49 13L49 14L48 14L48 15L47 15L47 16L46 16L46 17L45 17L45 16L44 16L44 13L45 13L45 15L46 15L46 13L45 13L45 12L44 12L44 13L43 13L43 16L44 16L44 17L43 17L43 18L42 18L42 17L41 17L41 15L42 15L42 12L43 12L43 11L44 11L44 9L43 9L43 8L44 8L44 7L45 7L45 6L44 6L44 5L43 5L43 4L44 4L44 2ZM12 3L12 4L11 4L11 5L12 5L12 4L13 4L13 5L14 5L14 7L13 7L13 6L12 6L12 7L13 7L13 8L14 8L14 9L12 9L12 11L13 11L13 10L14 10L14 9L15 9L15 10L16 10L16 11L14 11L14 12L16 12L16 11L17 11L17 14L15 14L15 15L18 15L18 13L19 13L19 14L20 14L20 13L21 13L21 10L20 10L20 9L21 9L21 6L22 6L22 7L23 7L23 6L22 6L22 5L20 5L20 7L19 7L19 5L17 5L17 4L18 4L18 3L17 3L17 4L16 4L16 3L15 3L15 4L14 4L14 3ZM46 3L46 5L47 5L47 3ZM16 5L16 6L15 6L15 7L14 7L14 8L15 8L15 9L16 9L16 10L17 10L17 9L18 9L18 10L19 10L19 9L18 9L18 8L17 8L17 7L18 7L18 6L17 6L17 5ZM27 5L27 8L30 8L30 5ZM42 5L42 6L41 6L41 7L42 7L42 8L43 8L43 7L44 7L44 6L43 6L43 5ZM9 6L9 7L10 7L10 6ZM16 6L16 7L17 7L17 6ZM24 6L24 7L25 7L25 6ZM28 6L28 7L29 7L29 6ZM32 6L32 7L33 7L33 6ZM37 6L37 7L38 7L38 6ZM42 6L42 7L43 7L43 6ZM0 8L0 9L1 9L1 10L2 10L2 9L3 9L3 11L5 11L5 9L7 9L7 8L5 8L5 9L3 9L3 8ZM22 8L22 10L23 10L23 11L22 11L22 12L23 12L23 11L24 11L24 12L25 12L25 13L26 13L26 11L24 11L24 9L25 9L25 8L24 8L24 9L23 9L23 8ZM32 9L32 11L34 11L34 12L35 12L35 13L34 13L34 15L33 15L33 13L32 13L32 15L33 15L33 17L34 17L34 19L33 19L33 20L34 20L34 19L35 19L35 18L36 18L36 19L37 19L37 21L36 21L36 20L35 20L35 21L34 21L34 22L35 22L35 23L36 23L36 24L37 24L37 25L38 25L38 26L39 26L39 29L40 29L40 28L41 28L41 27L43 27L43 26L44 26L44 27L45 27L45 26L44 26L44 24L46 24L46 26L47 26L47 27L48 27L48 26L49 26L49 25L48 25L48 23L47 23L47 21L48 21L48 20L49 20L49 17L48 17L48 18L47 18L47 17L46 17L46 18L47 18L47 19L45 19L45 17L44 17L44 19L42 19L42 20L41 20L41 21L42 21L42 22L40 22L40 19L41 19L41 18L40 18L40 14L41 14L41 13L40 13L40 14L39 14L39 12L37 12L37 11L38 11L38 10L37 10L37 11L36 11L36 12L35 12L35 11L34 11L34 10L33 10L33 9ZM42 9L42 11L41 11L41 12L42 12L42 11L43 11L43 9ZM6 10L6 11L7 11L7 10ZM18 11L18 12L19 12L19 13L20 13L20 11ZM36 12L36 13L35 13L35 14L36 14L36 18L37 18L37 19L38 19L38 21L37 21L37 22L36 22L36 21L35 21L35 22L36 22L36 23L37 23L37 22L38 22L38 23L39 23L39 24L40 24L40 25L39 25L39 26L40 26L40 27L41 27L41 26L40 26L40 25L41 25L41 23L39 23L39 22L38 22L38 21L39 21L39 19L40 19L40 18L38 18L38 16L37 16L37 15L38 15L38 13L37 13L37 12ZM4 13L4 14L5 14L5 17L3 17L3 18L5 18L5 19L4 19L4 20L7 20L7 19L6 19L6 18L7 18L7 17L6 17L6 16L8 16L8 14L7 14L7 13ZM23 13L23 14L24 14L24 13ZM6 14L6 15L7 15L7 14ZM26 14L26 15L25 15L25 16L26 16L26 15L27 15L27 14ZM34 15L34 17L35 17L35 15ZM14 16L14 18L13 18L13 21L12 21L12 20L11 20L11 21L10 21L10 20L9 20L9 21L8 21L8 22L9 22L9 23L10 23L10 24L11 24L11 25L12 25L12 26L13 26L13 25L12 25L12 24L11 24L11 23L12 23L12 22L14 22L14 21L15 21L15 24L14 24L14 27L16 27L16 28L17 28L17 27L16 27L16 25L17 25L17 26L18 26L18 25L19 25L19 26L20 26L20 25L19 25L19 22L18 22L18 23L16 23L16 22L17 22L17 20L16 20L16 19L18 19L18 21L19 21L19 19L18 19L18 18L16 18L16 17L15 17L15 16ZM15 18L15 19L14 19L14 20L15 20L15 19L16 19L16 18ZM24 19L24 20L25 20L25 19ZM27 19L27 20L28 20L28 21L29 21L29 20L28 20L28 19ZM44 19L44 21L43 21L43 22L42 22L42 24L44 24L44 23L45 23L45 22L46 22L46 21L47 21L47 20L48 20L48 19L47 19L47 20L46 20L46 21L45 21L45 19ZM44 21L44 22L43 22L43 23L44 23L44 22L45 22L45 21ZM4 22L4 23L5 23L5 22ZM20 22L20 23L21 23L21 22ZM24 22L24 23L25 23L25 22ZM28 22L28 23L29 23L29 24L30 24L30 25L31 25L31 24L30 24L30 23L29 23L29 22ZM1 23L1 24L2 24L2 23ZM33 23L33 24L34 24L34 23ZM46 23L46 24L47 24L47 23ZM15 24L15 25L16 25L16 24ZM17 24L17 25L18 25L18 24ZM50 24L50 26L52 26L52 24ZM47 25L47 26L48 26L48 25ZM5 27L5 30L8 30L8 27ZM18 27L18 28L19 28L19 32L16 32L16 31L17 31L17 30L14 30L14 31L15 31L15 34L14 34L14 33L12 33L12 31L11 31L11 30L12 30L12 29L11 29L11 30L10 30L10 32L8 32L8 35L7 35L7 34L6 34L6 35L7 35L7 36L5 36L5 37L8 37L8 35L10 35L10 33L12 33L12 35L13 35L13 36L16 36L16 37L17 37L17 38L16 38L16 39L18 39L18 42L16 42L16 45L17 45L17 46L18 46L18 45L19 45L19 46L20 46L20 47L21 47L21 48L22 48L22 50L23 50L23 51L24 51L24 49L23 49L23 48L22 48L22 46L20 46L20 43L19 43L19 42L20 42L20 41L21 41L21 39L20 39L20 38L21 38L21 36L20 36L20 33L19 33L19 32L21 32L21 30L20 30L20 28L19 28L19 27ZM27 27L27 30L30 30L30 27ZM49 27L49 30L52 30L52 27ZM0 28L0 29L1 29L1 28ZM3 28L3 29L4 29L4 28ZM6 28L6 29L7 29L7 28ZM13 28L13 29L14 29L14 28ZM28 28L28 29L29 29L29 28ZM35 28L35 29L36 29L36 28ZM42 28L42 31L40 31L40 32L41 32L41 33L42 33L42 31L44 31L44 30L46 30L46 32L45 32L45 33L46 33L46 34L45 34L45 36L46 36L46 34L48 34L48 33L47 33L47 29L48 29L48 28L46 28L46 29L44 29L44 28ZM50 28L50 29L51 29L51 28ZM23 29L23 30L22 30L22 33L23 33L23 34L22 34L22 37L23 37L23 35L25 35L25 36L24 36L24 37L25 37L25 36L26 36L26 34L24 34L24 31L23 31L23 30L24 30L24 29ZM43 29L43 30L44 30L44 29ZM31 31L31 32L30 32L30 34L32 34L32 32L33 32L33 31ZM37 31L37 32L38 32L38 31ZM6 32L6 33L7 33L7 32ZM16 33L16 34L15 34L15 35L16 35L16 36L17 36L17 37L18 37L18 35L17 35L17 33ZM27 33L27 34L28 34L28 33ZM49 33L49 36L48 36L48 35L47 35L47 36L48 36L48 37L49 37L49 36L50 36L50 33ZM0 34L0 35L1 35L1 34ZM27 35L27 36L28 36L28 37L29 37L29 36L28 36L28 35ZM14 37L14 38L15 38L15 37ZM35 37L35 38L36 38L36 37ZM6 38L6 39L7 39L7 38ZM24 38L24 39L26 39L26 38ZM28 38L28 39L29 39L29 38ZM45 38L45 39L46 39L46 38ZM51 38L51 39L52 39L52 38ZM0 39L0 40L1 40L1 39ZM13 39L13 40L14 40L14 39ZM34 39L34 41L35 41L35 39ZM9 40L9 41L10 41L10 42L11 42L11 40ZM19 40L19 41L20 41L20 40ZM22 40L22 41L23 41L23 42L24 42L24 43L22 43L22 44L25 44L25 45L26 45L26 46L28 46L28 47L29 47L29 46L28 46L28 44L29 44L29 43L28 43L28 41L27 41L27 40L25 40L25 41L26 41L26 42L24 42L24 41L23 41L23 40ZM6 41L6 42L8 42L8 41ZM1 42L1 43L2 43L2 42ZM3 43L3 44L2 44L2 45L3 45L3 44L4 44L4 45L6 45L6 46L8 46L8 45L9 45L9 46L10 46L10 47L12 47L12 46L10 46L10 45L12 45L12 44L10 44L10 43L8 43L8 44L7 44L7 43L5 43L5 44L4 44L4 43ZM18 43L18 44L19 44L19 43ZM6 44L6 45L7 45L7 44ZM23 45L23 46L24 46L24 45ZM3 46L3 47L5 47L5 46ZM30 46L30 47L31 47L31 46ZM52 47L52 48L53 48L53 47ZM6 48L6 49L7 49L7 48ZM27 49L27 52L30 52L30 49ZM31 49L31 50L32 50L32 51L31 51L31 52L32 52L32 51L33 51L33 52L34 52L34 55L35 55L35 53L36 53L36 52L34 52L34 51L33 51L33 50L32 50L32 49ZM49 49L49 52L52 52L52 49ZM28 50L28 51L29 51L29 50ZM50 50L50 51L51 51L51 50ZM27 53L27 55L28 55L28 53ZM31 53L31 54L30 54L30 55L33 55L33 54L32 54L32 53ZM8 54L8 57L11 57L11 56L12 56L12 55L11 55L11 54ZM16 54L16 55L17 55L17 54ZM54 54L54 55L57 55L57 54ZM9 55L9 56L11 56L11 55ZM36 56L36 57L37 57L37 56ZM47 56L47 57L48 57L48 56ZM51 56L51 57L53 57L53 56ZM56 56L56 57L57 57L57 56ZM0 0L0 7L7 7L7 0ZM1 1L1 6L6 6L6 1ZM2 2L2 5L5 5L5 2ZM50 0L50 7L57 7L57 0ZM51 1L51 6L56 6L56 1ZM52 2L52 5L55 5L55 2ZM0 50L0 57L7 57L7 50ZM1 51L1 56L6 56L6 51ZM2 52L2 55L5 55L5 52Z" fill="#000000"/></g></g></svg>
