<?xml version="1.0" encoding="UTF-8"?>
<svg xmlns="http://www.w3.org/2000/svg" version="1.1" width="300" height="300" viewBox="0 0 300 300"><rect x="0" y="0" width="300" height="300" fill="#fefefe"/><g transform="scale(4.615)"><g transform="translate(4,4)"><path fill-rule="evenodd" d="M9 0L9 1L8 1L8 3L10 3L10 4L8 4L8 8L6 8L6 9L4 9L4 8L3 8L3 10L2 10L2 11L3 11L3 12L2 12L2 14L0 14L0 16L1 16L1 17L2 17L2 16L1 16L1 15L4 15L4 14L5 14L5 15L8 15L8 16L4 16L4 19L3 19L3 18L0 18L0 19L3 19L3 21L2 21L2 22L3 22L3 21L4 21L4 23L5 23L5 22L6 22L6 23L7 23L7 24L6 24L6 25L8 25L8 23L9 23L9 26L5 26L5 25L4 25L4 24L3 24L3 23L1 23L1 24L0 24L0 26L3 26L3 25L4 25L4 27L3 27L3 28L2 28L2 27L0 27L0 33L1 33L1 35L0 35L0 37L1 37L1 36L2 36L2 34L3 34L3 35L9 35L9 34L10 34L10 33L13 33L13 34L12 34L12 35L10 35L10 36L9 36L9 38L8 38L8 36L5 36L5 39L7 39L7 40L4 40L4 38L3 38L3 39L2 39L2 38L1 38L1 39L0 39L0 41L1 41L1 40L3 40L3 41L4 41L4 42L3 42L3 43L2 43L2 42L1 42L1 43L0 43L0 44L1 44L1 45L0 45L0 48L5 48L5 47L8 47L8 51L10 51L10 52L9 52L9 53L8 53L8 54L9 54L9 55L8 55L8 57L12 57L12 56L13 56L13 57L15 57L15 55L14 55L14 54L15 54L15 53L13 53L13 54L12 54L12 53L10 53L10 52L14 52L14 50L15 50L15 52L16 52L16 51L18 51L18 50L17 50L17 49L19 49L19 50L20 50L20 53L19 53L19 52L17 52L17 53L16 53L16 54L18 54L18 53L19 53L19 55L21 55L21 56L18 56L18 55L17 55L17 56L16 56L16 57L17 57L17 56L18 56L18 57L21 57L21 56L22 56L22 57L23 57L23 56L22 56L22 54L21 54L21 53L22 53L22 52L24 52L24 53L23 53L23 54L25 54L25 52L26 52L26 54L27 54L27 55L26 55L26 56L25 56L25 55L24 55L24 57L26 57L26 56L27 56L27 55L28 55L28 56L29 56L29 57L31 57L31 56L33 56L33 57L35 57L35 56L36 56L36 57L41 57L41 56L42 56L42 57L44 57L44 56L43 56L43 55L45 55L45 56L46 56L46 54L44 54L44 53L46 53L46 52L48 52L48 53L52 53L52 54L51 54L51 56L50 56L50 54L47 54L47 56L48 56L48 55L49 55L49 56L50 56L50 57L51 57L51 56L52 56L52 57L54 57L54 56L53 56L53 48L54 48L54 47L55 47L55 46L56 46L56 48L57 48L57 45L56 45L56 44L55 44L55 45L54 45L54 46L53 46L53 47L52 47L52 48L51 48L51 46L52 46L52 44L53 44L53 43L52 43L52 44L51 44L51 42L47 42L47 43L48 43L48 44L47 44L47 45L48 45L48 47L47 47L47 46L46 46L46 47L47 47L47 48L48 48L48 50L47 50L47 49L46 49L46 51L44 51L44 49L45 49L45 47L44 47L44 46L45 46L45 45L44 45L44 43L45 43L45 41L46 41L46 40L51 40L51 39L52 39L52 41L53 41L53 42L54 42L54 43L57 43L57 40L56 40L56 39L57 39L57 34L56 34L56 37L55 37L55 36L54 36L54 35L53 35L53 34L54 34L54 32L53 32L53 30L54 30L54 28L53 28L53 27L55 27L55 29L56 29L56 28L57 28L57 27L56 27L56 26L57 26L57 18L55 18L55 16L53 16L53 15L52 15L52 16L51 16L51 14L52 14L52 13L53 13L53 14L54 14L54 11L55 11L55 10L56 10L56 12L55 12L55 13L56 13L56 14L55 14L55 15L56 15L56 17L57 17L57 15L56 15L56 14L57 14L57 13L56 13L56 12L57 12L57 10L56 10L56 8L54 8L54 9L53 9L53 8L50 8L50 9L51 9L51 10L50 10L50 11L49 11L49 14L48 14L48 16L49 16L49 17L50 17L50 18L51 18L51 19L47 19L47 20L48 20L48 21L49 21L49 22L46 22L46 23L47 23L47 24L46 24L46 29L45 29L45 27L44 27L44 31L40 31L40 30L39 30L39 29L40 29L40 28L39 28L39 27L38 27L38 29L37 29L37 27L36 27L36 28L35 28L35 27L34 27L34 26L38 26L38 24L39 24L39 25L40 25L40 26L42 26L42 25L43 25L43 26L44 26L44 25L45 25L45 22L44 22L44 24L43 24L43 22L41 22L41 21L44 21L44 20L46 20L46 18L45 18L45 17L46 17L46 16L44 16L44 18L45 18L45 19L44 19L44 20L40 20L40 19L39 19L39 18L42 18L42 19L43 19L43 18L42 18L42 14L41 14L41 11L40 11L40 10L41 10L41 9L42 9L42 8L43 8L43 9L44 9L44 8L45 8L45 11L44 11L44 10L42 10L42 12L43 12L43 13L46 13L46 14L47 14L47 12L48 12L48 11L47 11L47 10L46 10L46 8L47 8L47 5L48 5L48 0L46 0L46 1L45 1L45 0L44 0L44 1L45 1L45 2L44 2L44 3L45 3L45 2L46 2L46 3L47 3L47 5L46 5L46 8L45 8L45 4L44 4L44 8L43 8L43 6L42 6L42 7L41 7L41 6L40 6L40 5L43 5L43 4L39 4L39 3L37 3L37 4L38 4L38 5L37 5L37 6L36 6L36 7L35 7L35 5L36 5L36 4L35 4L35 2L34 2L34 1L36 1L36 2L37 2L37 1L38 1L38 2L40 2L40 1L43 1L43 0L40 0L40 1L39 1L39 0L37 0L37 1L36 1L36 0L33 0L33 2L32 2L32 3L34 3L34 4L35 4L35 5L34 5L34 7L33 7L33 5L32 5L32 4L30 4L30 3L31 3L31 1L32 1L32 0L28 0L28 3L29 3L29 4L24 4L24 5L23 5L23 4L22 4L22 3L21 3L21 2L23 2L23 3L24 3L24 2L23 2L23 1L26 1L26 2L27 2L27 0L22 0L22 1L21 1L21 0L19 0L19 1L20 1L20 3L19 3L19 4L18 4L18 5L17 5L17 6L16 6L16 7L15 7L15 4L12 4L12 5L13 5L13 6L12 6L12 7L11 7L11 5L10 5L10 4L11 4L11 3L14 3L14 2L17 2L17 3L18 3L18 1L17 1L17 0ZM11 1L11 2L10 2L10 3L11 3L11 2L14 2L14 1ZM46 1L46 2L47 2L47 1ZM29 2L29 3L30 3L30 2ZM20 3L20 4L19 4L19 5L20 5L20 6L19 6L19 7L20 7L20 6L21 6L21 7L22 7L22 6L23 6L23 7L24 7L24 8L23 8L23 10L25 10L25 12L24 12L24 11L23 11L23 12L22 12L22 13L23 13L23 12L24 12L24 14L21 14L21 8L19 8L19 10L20 10L20 12L19 12L19 11L18 11L18 10L17 10L17 9L18 9L18 8L16 8L16 11L18 11L18 12L16 12L16 13L17 13L17 15L16 15L16 14L15 14L15 7L14 7L14 6L13 6L13 8L11 8L11 9L10 9L10 11L8 11L8 13L9 13L9 12L10 12L10 13L13 13L13 14L11 14L11 15L13 15L13 17L14 17L14 15L13 15L13 14L15 14L15 15L16 15L16 16L15 16L15 19L14 19L14 18L12 18L12 16L10 16L10 15L9 15L9 14L8 14L8 15L9 15L9 16L8 16L8 17L10 17L10 19L9 19L9 18L7 18L7 17L6 17L6 18L5 18L5 20L4 20L4 21L5 21L5 20L7 20L7 21L6 21L6 22L9 22L9 23L11 23L11 22L14 22L14 23L13 23L13 25L12 25L12 24L10 24L10 25L12 25L12 27L10 27L10 26L9 26L9 28L11 28L11 29L9 29L9 31L5 31L5 32L8 32L8 33L9 33L9 32L11 32L11 31L10 31L10 30L11 30L11 29L13 29L13 30L12 30L12 32L13 32L13 33L14 33L14 31L16 31L16 32L17 32L17 33L15 33L15 34L18 34L18 32L17 32L17 31L19 31L19 32L20 32L20 31L21 31L21 30L23 30L23 27L24 27L24 28L26 28L26 26L27 26L27 25L26 25L26 24L27 24L27 23L28 23L28 24L30 24L30 23L31 23L31 21L29 21L29 23L28 23L28 22L26 22L26 21L27 21L27 19L26 19L26 20L25 20L25 19L24 19L24 18L25 18L25 17L26 17L26 18L27 18L27 17L26 17L26 16L27 16L27 15L25 15L25 13L26 13L26 14L29 14L29 15L28 15L28 16L32 16L32 15L31 15L31 12L32 12L32 11L33 11L33 15L35 15L35 14L34 14L34 12L36 12L36 10L35 10L35 9L36 9L36 8L35 8L35 7L34 7L34 8L33 8L33 7L32 7L32 6L31 6L31 8L32 8L32 9L29 9L29 10L32 10L32 11L31 11L31 12L30 12L30 11L29 11L29 13L28 13L28 12L26 12L26 11L28 11L28 10L26 10L26 9L24 9L24 8L26 8L26 6L25 6L25 5L24 5L24 6L23 6L23 5L21 5L21 3ZM9 5L9 7L10 7L10 5ZM27 5L27 8L30 8L30 5ZM17 6L17 7L18 7L18 6ZM24 6L24 7L25 7L25 6ZM28 6L28 7L29 7L29 6ZM37 6L37 7L38 7L38 6ZM39 6L39 7L40 7L40 6ZM48 6L48 7L49 7L49 6ZM0 8L0 9L2 9L2 8ZM8 8L8 10L9 10L9 8ZM13 8L13 10L14 10L14 8ZM34 8L34 9L35 9L35 8ZM37 8L37 10L40 10L40 9L38 9L38 8ZM48 8L48 9L49 9L49 8ZM6 9L6 10L7 10L7 9ZM0 10L0 11L1 11L1 10ZM4 10L4 11L5 11L5 10ZM11 10L11 11L10 11L10 12L11 12L11 11L12 11L12 10ZM33 10L33 11L34 11L34 10ZM52 10L52 11L54 11L54 10ZM6 11L6 12L7 12L7 11ZM13 11L13 13L14 13L14 11ZM37 11L37 12L38 12L38 14L36 14L36 15L38 15L38 17L37 17L37 18L36 18L36 17L35 17L35 16L34 16L34 17L30 17L30 19L32 19L32 18L33 18L33 19L34 19L34 18L35 18L35 20L32 20L32 22L33 22L33 23L32 23L32 24L33 24L33 25L32 25L32 26L31 26L31 25L30 25L30 26L31 26L31 27L32 27L32 28L31 28L31 30L32 30L32 28L33 28L33 27L32 27L32 26L34 26L34 25L35 25L35 24L33 24L33 23L35 23L35 22L37 22L37 23L36 23L36 24L37 24L37 23L38 23L38 22L39 22L39 21L38 21L38 20L37 20L37 21L36 21L36 19L38 19L38 17L39 17L39 15L41 15L41 14L40 14L40 11ZM50 11L50 12L51 12L51 13L50 13L50 14L49 14L49 15L50 15L50 14L51 14L51 13L52 13L52 12L51 12L51 11ZM0 12L0 13L1 13L1 12ZM3 12L3 13L4 13L4 12ZM18 12L18 13L19 13L19 14L20 14L20 15L17 15L17 17L19 17L19 16L20 16L20 18L17 18L17 20L16 20L16 19L15 19L15 20L16 20L16 26L15 26L15 25L13 25L13 27L12 27L12 28L13 28L13 29L14 29L14 27L16 27L16 26L17 26L17 25L19 25L19 26L20 26L20 27L17 27L17 28L15 28L15 30L16 30L16 29L18 29L18 28L20 28L20 30L21 30L21 28L20 28L20 27L21 27L21 26L22 26L22 27L23 27L23 26L22 26L22 25L25 25L25 26L26 26L26 25L25 25L25 23L26 23L26 22L25 22L25 20L23 20L23 18L24 18L24 17L22 17L22 19L21 19L21 20L22 20L22 22L20 22L20 20L18 20L18 19L20 19L20 18L21 18L21 16L20 16L20 15L21 15L21 14L20 14L20 13L19 13L19 12ZM5 13L5 14L7 14L7 13ZM29 13L29 14L30 14L30 13ZM38 14L38 15L39 15L39 14ZM44 14L44 15L45 15L45 14ZM23 15L23 16L24 16L24 15ZM40 16L40 17L41 17L41 16ZM50 16L50 17L51 17L51 18L52 18L52 19L53 19L53 20L54 20L54 21L53 21L53 22L54 22L54 21L56 21L56 19L53 19L53 18L54 18L54 17L53 17L53 16L52 16L52 17L51 17L51 16ZM47 17L47 18L48 18L48 17ZM6 18L6 19L7 19L7 20L8 20L8 19L7 19L7 18ZM28 18L28 20L29 20L29 18ZM10 19L10 20L11 20L11 21L10 21L10 22L11 22L11 21L12 21L12 20L14 20L14 19L12 19L12 20L11 20L11 19ZM17 20L17 21L18 21L18 20ZM23 21L23 23L22 23L22 24L23 24L23 23L25 23L25 22L24 22L24 21ZM50 21L50 24L49 24L49 25L47 25L47 26L49 26L49 25L50 25L50 26L52 26L52 25L50 25L50 24L53 24L53 26L56 26L56 25L54 25L54 24L56 24L56 22L55 22L55 23L54 23L54 24L53 24L53 23L52 23L52 22L51 22L51 21ZM17 22L17 24L18 24L18 23L20 23L20 22ZM14 23L14 24L15 24L15 23ZM39 23L39 24L40 24L40 23ZM19 24L19 25L20 25L20 26L21 26L21 24ZM5 27L5 30L8 30L8 27ZM27 27L27 30L30 30L30 27ZM42 27L42 28L43 28L43 27ZM47 27L47 29L46 29L46 30L45 30L45 31L46 31L46 32L43 32L43 33L42 33L42 32L41 32L41 34L42 34L42 35L41 35L41 37L40 37L40 36L39 36L39 37L38 37L38 34L39 34L39 32L40 32L40 31L39 31L39 30L36 30L36 29L35 29L35 28L34 28L34 29L33 29L33 31L34 31L34 34L35 34L35 36L34 36L34 35L33 35L33 32L32 32L32 31L31 31L31 32L30 32L30 31L28 31L28 33L27 33L27 32L26 32L26 31L22 31L22 32L24 32L24 33L22 33L22 34L21 34L21 33L19 33L19 34L20 34L20 35L17 35L17 36L19 36L19 37L20 37L20 35L22 35L22 36L25 36L25 37L24 37L24 38L21 38L21 40L22 40L22 46L21 46L21 42L20 42L20 38L18 38L18 37L17 37L17 38L18 38L18 39L16 39L16 40L15 40L15 38L14 38L14 37L15 37L15 35L14 35L14 34L13 34L13 35L12 35L12 36L10 36L10 38L11 38L11 39L9 39L9 40L11 40L11 39L14 39L14 40L13 40L13 42L14 42L14 43L12 43L12 42L11 42L11 43L10 43L10 41L9 41L9 43L8 43L8 44L9 44L9 45L6 45L6 46L9 46L9 45L10 45L10 46L12 46L12 47L13 47L13 46L14 46L14 47L16 47L16 46L21 46L21 48L24 48L24 49L22 49L22 51L21 51L21 52L22 52L22 51L23 51L23 50L24 50L24 51L26 51L26 50L25 50L25 49L26 49L26 47L27 47L27 46L28 46L28 48L33 48L33 49L31 49L31 51L32 51L32 50L33 50L33 51L35 51L35 52L36 52L36 51L38 51L38 52L37 52L37 53L36 53L36 54L35 54L35 53L34 53L34 52L33 52L33 53L32 53L32 55L34 55L34 56L35 56L35 55L36 55L36 56L41 56L41 54L40 54L40 53L41 53L41 52L40 52L40 51L41 51L41 50L43 50L43 45L42 45L42 44L43 44L43 43L44 43L44 41L42 41L42 40L44 40L44 39L45 39L45 40L46 40L46 39L45 39L45 38L46 38L46 36L45 36L45 35L44 35L44 34L46 34L46 35L50 35L50 37L49 37L49 38L50 38L50 39L51 39L51 38L52 38L52 36L53 36L53 35L52 35L52 36L51 36L51 35L50 35L50 34L47 34L47 33L46 33L46 32L48 32L48 27ZM49 27L49 30L52 30L52 27ZM3 28L3 31L2 31L2 32L1 32L1 33L3 33L3 34L4 34L4 33L3 33L3 31L4 31L4 28ZM6 28L6 29L7 29L7 28ZM28 28L28 29L29 29L29 28ZM50 28L50 29L51 29L51 28ZM1 29L1 30L2 30L2 29ZM24 29L24 30L26 30L26 29ZM41 29L41 30L42 30L42 29ZM13 30L13 31L14 31L14 30ZM35 30L35 32L36 32L36 33L37 33L37 31L36 31L36 30ZM55 30L55 32L56 32L56 33L57 33L57 32L56 32L56 31L57 31L57 30ZM38 31L38 32L39 32L39 31ZM49 31L49 33L50 33L50 32L51 32L51 31ZM29 32L29 33L30 33L30 32ZM31 32L31 34L30 34L30 35L32 35L32 32ZM52 32L52 34L53 34L53 32ZM5 33L5 34L7 34L7 33ZM25 33L25 34L24 34L24 35L25 35L25 34L27 34L27 35L26 35L26 36L27 36L27 37L26 37L26 38L24 38L24 39L22 39L22 40L23 40L23 41L24 41L24 39L25 39L25 42L23 42L23 44L27 44L27 45L25 45L25 47L24 47L24 48L25 48L25 47L26 47L26 46L27 46L27 45L29 45L29 47L31 47L31 46L30 46L30 45L31 45L31 44L33 44L33 45L32 45L32 47L33 47L33 48L34 48L34 47L35 47L35 46L37 46L37 45L39 45L39 46L40 46L40 47L38 47L38 48L39 48L39 49L40 49L40 50L41 50L41 49L42 49L42 48L41 48L41 44L42 44L42 43L43 43L43 42L42 42L42 41L40 41L40 40L39 40L39 39L42 39L42 38L39 38L39 39L37 39L37 38L38 38L38 37L37 37L37 35L36 35L36 36L35 36L35 37L34 37L34 38L33 38L33 36L27 36L27 35L28 35L28 34L27 34L27 33ZM43 35L43 37L44 37L44 38L45 38L45 36L44 36L44 35ZM13 36L13 37L11 37L11 38L13 38L13 37L14 37L14 36ZM47 36L47 39L48 39L48 36ZM6 37L6 38L7 38L7 39L8 39L8 38L7 38L7 37ZM35 37L35 38L34 38L34 39L36 39L36 38L37 38L37 37ZM53 37L53 38L55 38L55 37ZM29 38L29 39L28 39L28 40L29 40L29 39L30 39L30 38ZM32 39L32 40L30 40L30 41L26 41L26 42L25 42L25 43L26 43L26 42L30 42L30 41L32 41L32 42L33 42L33 44L34 44L34 45L33 45L33 47L34 47L34 46L35 46L35 45L36 45L36 44L37 44L37 42L38 42L38 43L40 43L40 44L41 44L41 42L38 42L38 40L37 40L37 41L36 41L36 42L35 42L35 40L34 40L34 41L32 41L32 40L33 40L33 39ZM53 39L53 41L54 41L54 42L55 42L55 41L54 41L54 40L55 40L55 39ZM7 40L7 41L5 41L5 42L4 42L4 43L3 43L3 47L5 47L5 46L4 46L4 43L5 43L5 42L8 42L8 40ZM17 40L17 42L18 42L18 43L19 43L19 40ZM14 41L14 42L15 42L15 41ZM34 42L34 43L35 43L35 44L36 44L36 43L35 43L35 42ZM1 43L1 44L2 44L2 43ZM6 43L6 44L7 44L7 43ZM11 43L11 44L10 44L10 45L11 45L11 44L12 44L12 46L13 46L13 44L12 44L12 43ZM27 43L27 44L29 44L29 45L30 45L30 44L29 44L29 43ZM49 43L49 45L51 45L51 44L50 44L50 43ZM15 44L15 45L16 45L16 44ZM17 44L17 45L19 45L19 44ZM1 46L1 47L2 47L2 46ZM22 46L22 47L23 47L23 46ZM49 46L49 48L50 48L50 46ZM10 47L10 48L11 48L11 47ZM19 47L19 48L20 48L20 47ZM6 48L6 49L7 49L7 48ZM15 48L15 50L16 50L16 49L17 49L17 48ZM35 48L35 49L34 49L34 50L36 50L36 49L37 49L37 50L38 50L38 51L39 51L39 50L38 50L38 49L37 49L37 48ZM9 49L9 50L12 50L12 51L13 51L13 50L14 50L14 49ZM20 49L20 50L21 50L21 49ZM27 49L27 52L30 52L30 49ZM49 49L49 52L52 52L52 49ZM55 49L55 50L57 50L57 49ZM28 50L28 51L29 51L29 50ZM50 50L50 51L51 51L51 50ZM43 51L43 53L42 53L42 54L43 54L43 53L44 53L44 51ZM38 52L38 54L36 54L36 55L38 55L38 54L39 54L39 53L40 53L40 52ZM54 52L54 54L56 54L56 55L57 55L57 52ZM9 53L9 54L10 54L10 55L9 55L9 56L12 56L12 54L10 54L10 53ZM29 54L29 56L30 56L30 55L31 55L31 54ZM55 56L55 57L56 57L56 56ZM0 0L0 7L7 7L7 0ZM1 1L1 6L6 6L6 1ZM2 2L2 5L5 5L5 2ZM50 0L50 7L57 7L57 0ZM51 1L51 6L56 6L56 1ZM52 2L52 5L55 5L55 2ZM0 50L0 57L7 57L7 50ZM1 51L1 56L6 56L6 51ZM2 52L2 55L5 55L5 52Z" fill="#000000"/></g></g></svg>
