<?xml version="1.0" encoding="UTF-8"?>
<svg xmlns="http://www.w3.org/2000/svg" version="1.1" width="300" height="300" viewBox="0 0 300 300"><rect x="0" y="0" width="300" height="300" fill="#fefefe"/><g transform="scale(4.615)"><g transform="translate(4,4)"><path fill-rule="evenodd" d="M8 0L8 2L10 2L10 3L11 3L11 2L10 2L10 1L12 1L12 2L13 2L13 1L12 1L12 0ZM14 0L14 3L13 3L13 6L12 6L12 5L11 5L11 4L10 4L10 5L11 5L11 6L10 6L10 7L9 7L9 4L8 4L8 9L9 9L9 8L10 8L10 9L12 9L12 10L13 10L13 6L14 6L14 7L15 7L15 6L16 6L16 7L17 7L17 6L18 6L18 9L17 9L17 10L16 10L16 11L17 11L17 14L15 14L15 15L14 15L14 17L15 17L15 15L17 15L17 16L18 16L18 17L17 17L17 18L16 18L16 19L15 19L15 18L13 18L13 20L11 20L11 21L13 21L13 24L12 24L12 22L11 22L11 24L10 24L10 27L11 27L11 30L12 30L12 29L14 29L14 28L13 28L13 27L15 27L15 28L16 28L16 27L17 27L17 26L16 26L16 25L17 25L17 23L18 23L18 26L20 26L20 27L18 27L18 28L20 28L20 29L19 29L19 31L18 31L18 30L15 30L15 31L14 31L14 30L13 30L13 32L15 32L15 34L16 34L16 35L15 35L15 36L16 36L16 37L17 37L17 38L16 38L16 39L17 39L17 40L15 40L15 38L13 38L13 37L14 37L14 36L13 36L13 37L11 37L11 38L13 38L13 39L14 39L14 40L15 40L15 42L12 42L12 41L13 41L13 40L12 40L12 41L10 41L10 40L11 40L11 39L9 39L9 35L10 35L10 34L13 34L13 35L14 35L14 33L9 33L9 32L10 32L10 29L9 29L9 25L7 25L7 24L9 24L9 23L10 23L10 19L12 19L12 18L10 18L10 16L9 16L9 15L10 15L10 14L11 14L11 16L12 16L12 15L13 15L13 12L12 12L12 11L11 11L11 12L9 12L9 10L8 10L8 11L7 11L7 10L6 10L6 9L7 9L7 8L5 8L5 9L3 9L3 8L0 8L0 10L2 10L2 11L1 11L1 12L0 12L0 13L1 13L1 14L0 14L0 17L2 17L2 16L1 16L1 14L2 14L2 13L1 13L1 12L2 12L2 11L3 11L3 12L4 12L4 11L5 11L5 13L7 13L7 14L5 14L5 15L4 15L4 16L3 16L3 17L4 17L4 16L5 16L5 17L7 17L7 18L3 18L3 19L4 19L4 20L2 20L2 18L0 18L0 20L1 20L1 21L0 21L0 23L1 23L1 22L2 22L2 23L3 23L3 22L4 22L4 24L6 24L6 25L7 25L7 26L4 26L4 27L3 27L3 28L2 28L2 29L3 29L3 30L2 30L2 33L1 33L1 34L0 34L0 38L1 38L1 37L2 37L2 38L3 38L3 39L2 39L2 40L3 40L3 39L4 39L4 38L3 38L3 37L2 37L2 36L5 36L5 35L7 35L7 36L6 36L6 37L5 37L5 39L7 39L7 38L6 38L6 37L7 37L7 36L8 36L8 41L9 41L9 43L10 43L10 44L8 44L8 42L5 42L5 40L4 40L4 42L2 42L2 43L4 43L4 44L3 44L3 46L2 46L2 47L1 47L1 45L2 45L2 44L1 44L1 43L0 43L0 44L1 44L1 45L0 45L0 48L5 48L5 47L7 47L7 48L6 48L6 49L7 49L7 48L8 48L8 47L7 47L7 46L11 46L11 47L9 47L9 48L11 48L11 47L13 47L13 50L12 50L12 49L10 49L10 50L9 50L9 49L8 49L8 50L9 50L9 51L8 51L8 52L9 52L9 53L10 53L10 54L11 54L11 55L12 55L12 56L9 56L9 54L8 54L8 57L14 57L14 54L15 54L15 57L17 57L17 55L18 55L18 57L19 57L19 55L18 55L18 53L19 53L19 52L20 52L20 53L21 53L21 54L20 54L20 55L21 55L21 54L22 54L22 53L23 53L23 55L22 55L22 57L23 57L23 56L24 56L24 57L25 57L25 56L26 56L26 57L28 57L28 55L29 55L29 57L33 57L33 55L34 55L34 57L35 57L35 55L38 55L38 52L37 52L37 51L38 51L38 47L37 47L37 48L36 48L36 49L37 49L37 51L35 51L35 52L34 52L34 51L32 51L32 50L31 50L31 48L28 48L28 47L29 47L29 46L30 46L30 47L31 47L31 46L32 46L32 49L33 49L33 50L34 50L34 49L35 49L35 48L33 48L33 47L34 47L34 45L33 45L33 44L36 44L36 46L35 46L35 47L36 47L36 46L38 46L38 45L37 45L37 44L40 44L40 45L39 45L39 47L40 47L40 49L39 49L39 52L40 52L40 53L39 53L39 55L40 55L40 54L42 54L42 55L41 55L41 56L40 56L40 57L41 57L41 56L42 56L42 57L43 57L43 56L44 56L44 57L48 57L48 56L49 56L49 57L50 57L50 55L49 55L49 54L52 54L52 55L53 55L53 56L51 56L51 57L54 57L54 53L57 53L57 52L56 52L56 51L57 51L57 49L56 49L56 47L57 47L57 44L56 44L56 47L55 47L55 48L54 48L54 45L53 45L53 44L54 44L54 43L55 43L55 42L54 42L54 41L57 41L57 40L54 40L54 39L53 39L53 38L54 38L54 37L55 37L55 38L57 38L57 37L56 37L56 36L57 36L57 34L56 34L56 31L57 31L57 29L56 29L56 27L57 27L57 24L56 24L56 23L57 23L57 21L56 21L56 19L57 19L57 10L56 10L56 9L57 9L57 8L55 8L55 9L54 9L54 10L52 10L52 12L51 12L51 11L50 11L50 9L53 9L53 8L49 8L49 11L50 11L50 13L49 13L49 14L48 14L48 12L47 12L47 11L48 11L48 9L47 9L47 8L48 8L48 7L49 7L49 6L48 6L48 7L47 7L47 5L48 5L48 0L46 0L46 1L45 1L45 0L42 0L42 1L41 1L41 0L38 0L38 2L37 2L37 1L35 1L35 0L34 0L34 3L33 3L33 6L32 6L32 7L33 7L33 6L34 6L34 8L32 8L32 9L31 9L31 5L32 5L32 0L30 0L30 1L29 1L29 2L30 2L30 3L31 3L31 4L28 4L28 0L26 0L26 2L25 2L25 4L24 4L24 1L25 1L25 0L24 0L24 1L23 1L23 0L20 0L20 2L18 2L18 0L16 0L16 1L15 1L15 0ZM16 1L16 2L17 2L17 3L16 3L16 4L17 4L17 5L16 5L16 6L17 6L17 5L18 5L18 4L19 4L19 7L20 7L20 5L21 5L21 3L22 3L22 4L23 4L23 2L22 2L22 1L21 1L21 3L18 3L18 2L17 2L17 1ZM30 1L30 2L31 2L31 1ZM39 1L39 2L40 2L40 4L39 4L39 5L38 5L38 4L37 4L37 2L35 2L35 3L34 3L34 4L35 4L35 9L34 9L34 10L33 10L33 9L32 9L32 11L31 11L31 9L30 9L30 11L29 11L29 12L30 12L30 13L29 13L29 15L28 15L28 14L27 14L27 12L28 12L28 9L27 9L27 10L25 10L25 9L26 9L26 5L24 5L24 6L23 6L23 5L22 5L22 6L21 6L21 9L20 9L20 10L19 10L19 11L18 11L18 12L19 12L19 13L18 13L18 14L17 14L17 15L18 15L18 16L20 16L20 18L21 18L21 15L19 15L19 13L20 13L20 14L22 14L22 16L23 16L23 12L22 12L22 11L26 11L26 13L25 13L25 12L24 12L24 14L25 14L25 15L24 15L24 18L25 18L25 19L24 19L24 20L25 20L25 21L26 21L26 20L27 20L27 22L26 22L26 23L27 23L27 22L28 22L28 20L29 20L29 19L30 19L30 22L33 22L33 24L34 24L34 26L33 26L33 25L32 25L32 23L28 23L28 24L27 24L27 25L26 25L26 26L31 26L31 25L32 25L32 27L31 27L31 30L33 30L33 29L34 29L34 31L35 31L35 32L34 32L34 33L32 33L32 32L33 32L33 31L31 31L31 32L30 32L30 34L31 34L31 33L32 33L32 35L33 35L33 36L34 36L34 38L31 38L31 41L30 41L30 36L31 36L31 37L32 37L32 36L31 36L31 35L28 35L28 34L29 34L29 32L26 32L26 30L25 30L25 27L24 27L24 26L25 26L25 25L24 25L24 26L23 26L23 27L22 27L22 28L24 28L24 30L23 30L23 29L22 29L22 30L21 30L21 29L20 29L20 31L21 31L21 33L20 33L20 32L19 32L19 33L18 33L18 31L16 31L16 32L17 32L17 33L16 33L16 34L18 34L18 36L17 36L17 37L18 37L18 36L21 36L21 37L22 37L22 38L23 38L23 41L22 41L22 40L21 40L21 41L20 41L20 40L19 40L19 41L20 41L20 43L18 43L18 44L20 44L20 43L21 43L21 45L20 45L20 46L19 46L19 45L18 45L18 46L17 46L17 45L16 45L16 44L15 44L15 43L13 43L13 45L14 45L14 44L15 44L15 45L16 45L16 46L13 46L13 47L14 47L14 48L15 48L15 47L16 47L16 51L15 51L15 50L13 50L13 51L12 51L12 52L14 52L14 53L12 53L12 55L13 55L13 54L14 54L14 53L15 53L15 52L17 52L17 53L18 53L18 52L19 52L19 50L18 50L18 46L19 46L19 47L20 47L20 48L19 48L19 49L20 49L20 51L21 51L21 50L22 50L22 48L23 48L23 49L24 49L24 51L23 51L23 52L24 52L24 51L25 51L25 52L26 52L26 50L25 50L25 49L26 49L26 48L27 48L27 47L28 47L28 46L29 46L29 45L30 45L30 46L31 46L31 45L30 45L30 44L31 44L31 43L32 43L32 40L33 40L33 41L34 41L34 42L35 42L35 41L36 41L36 44L37 44L37 43L40 43L40 44L41 44L41 45L40 45L40 47L41 47L41 49L40 49L40 51L41 51L41 49L42 49L42 50L43 50L43 49L44 49L44 48L46 48L46 51L45 51L45 50L44 50L44 51L45 51L45 52L46 52L46 56L47 56L47 55L48 55L48 54L49 54L49 53L47 53L47 52L48 52L48 51L47 51L47 48L46 48L46 47L47 47L47 44L46 44L46 47L45 47L45 45L44 45L44 44L45 44L45 41L44 41L44 40L43 40L43 41L42 41L42 42L43 42L43 41L44 41L44 44L43 44L43 43L40 43L40 42L41 42L41 41L40 41L40 40L42 40L42 39L43 39L43 38L44 38L44 34L45 34L45 37L46 37L46 38L45 38L45 40L46 40L46 42L47 42L47 43L48 43L48 42L49 42L49 44L50 44L50 42L49 42L49 41L51 41L51 40L50 40L50 33L51 33L51 37L52 37L52 38L51 38L51 39L52 39L52 38L53 38L53 37L54 37L54 36L55 36L55 35L56 35L56 34L55 34L55 33L53 33L53 31L54 31L54 32L55 32L55 31L56 31L56 30L55 30L55 27L56 27L56 26L55 26L55 25L56 25L56 24L55 24L55 23L56 23L56 21L55 21L55 19L56 19L56 18L55 18L55 19L54 19L54 17L56 17L56 16L55 16L55 15L56 15L56 12L55 12L55 11L56 11L56 10L55 10L55 11L54 11L54 12L53 12L53 14L52 14L52 13L50 13L50 15L49 15L49 16L50 16L50 18L49 18L49 17L48 17L48 16L47 16L47 15L48 15L48 14L47 14L47 13L46 13L46 11L47 11L47 9L46 9L46 8L47 8L47 7L46 7L46 6L45 6L45 5L44 5L44 4L45 4L45 1L42 1L42 3L41 3L41 2L40 2L40 1ZM46 1L46 2L47 2L47 1ZM43 2L43 3L42 3L42 5L41 5L41 6L40 6L40 7L39 7L39 6L38 6L38 8L37 8L37 6L36 6L36 10L34 10L34 11L33 11L33 12L32 12L32 13L31 13L31 14L32 14L32 13L33 13L33 15L34 15L34 17L33 17L33 16L32 16L32 17L31 17L31 16L30 16L30 15L29 15L29 16L30 16L30 17L28 17L28 18L30 18L30 17L31 17L31 18L33 18L33 19L31 19L31 20L32 20L32 21L33 21L33 22L34 22L34 24L36 24L36 26L37 26L37 28L36 28L36 27L34 27L34 29L35 29L35 28L36 28L36 30L35 30L35 31L36 31L36 33L35 33L35 35L34 35L34 36L35 36L35 35L36 35L36 37L35 37L35 38L34 38L34 41L35 41L35 38L36 38L36 41L37 41L37 42L38 42L38 41L39 41L39 38L40 38L40 39L41 39L41 35L40 35L40 36L38 36L38 35L39 35L39 34L38 34L38 33L39 33L39 32L40 32L40 34L42 34L42 33L43 33L43 34L44 34L44 33L45 33L45 34L46 34L46 35L48 35L48 36L47 36L47 38L46 38L46 40L47 40L47 41L48 41L48 40L49 40L49 37L48 37L48 36L49 36L49 33L50 33L50 32L49 32L49 31L51 31L51 32L52 32L52 31L53 31L53 28L54 28L54 27L55 27L55 26L54 26L54 25L55 25L55 24L54 24L54 22L55 22L55 21L54 21L54 19L53 19L53 20L52 20L52 22L51 22L51 23L50 23L50 22L49 22L49 23L48 23L48 21L49 21L49 20L51 20L51 19L52 19L52 17L54 17L54 14L55 14L55 13L54 13L54 14L53 14L53 15L52 15L52 14L51 14L51 15L50 15L50 16L51 16L51 15L52 15L52 17L51 17L51 18L50 18L50 19L49 19L49 18L48 18L48 17L47 17L47 19L46 19L46 21L47 21L47 23L46 23L46 25L45 25L45 24L44 24L44 25L43 25L43 27L42 27L42 24L43 24L43 22L44 22L44 23L45 23L45 22L44 22L44 21L45 21L45 19L44 19L44 17L45 17L45 16L44 16L44 13L45 13L45 15L46 15L46 13L45 13L45 12L44 12L44 11L43 11L43 10L42 10L42 8L44 8L44 10L46 10L46 9L45 9L45 8L46 8L46 7L45 7L45 6L44 6L44 5L43 5L43 4L44 4L44 2ZM14 3L14 4L15 4L15 3ZM17 3L17 4L18 4L18 3ZM26 3L26 4L27 4L27 3ZM35 3L35 4L36 4L36 3ZM46 3L46 5L47 5L47 3ZM14 5L14 6L15 6L15 5ZM27 5L27 8L30 8L30 5ZM42 5L42 6L41 6L41 7L40 7L40 8L38 8L38 11L39 11L39 10L41 10L41 9L40 9L40 8L42 8L42 6L43 6L43 7L44 7L44 6L43 6L43 5ZM11 6L11 7L12 7L12 6ZM22 6L22 7L23 7L23 6ZM24 6L24 7L25 7L25 6ZM28 6L28 7L29 7L29 6ZM14 8L14 9L15 9L15 8ZM22 8L22 10L24 10L24 9L25 9L25 8L24 8L24 9L23 9L23 8ZM2 9L2 10L3 10L3 11L4 11L4 10L3 10L3 9ZM20 10L20 13L21 13L21 10ZM6 11L6 12L7 12L7 13L9 13L9 12L7 12L7 11ZM14 11L14 12L15 12L15 11ZM30 11L30 12L31 12L31 11ZM34 11L34 12L35 12L35 13L34 13L34 15L35 15L35 17L34 17L34 18L36 18L36 19L37 19L37 18L36 18L36 14L37 14L37 13L38 13L38 15L37 15L37 16L38 16L38 18L40 18L40 19L39 19L39 20L37 20L37 21L36 21L36 20L35 20L35 19L33 19L33 20L35 20L35 21L34 21L34 22L35 22L35 23L36 23L36 24L37 24L37 25L38 25L38 26L39 26L39 25L38 25L38 23L36 23L36 22L37 22L37 21L38 21L38 22L39 22L39 23L41 23L41 22L40 22L40 19L41 19L41 18L40 18L40 15L39 15L39 12L37 12L37 11L36 11L36 12L35 12L35 11ZM41 11L41 12L42 12L42 15L41 15L41 17L42 17L42 18L43 18L43 17L44 17L44 16L43 16L43 13L44 13L44 12L42 12L42 11ZM11 12L11 14L12 14L12 12ZM36 12L36 13L37 13L37 12ZM40 13L40 14L41 14L41 13ZM8 14L8 15L6 15L6 16L7 16L7 17L8 17L8 15L9 15L9 14ZM26 14L26 15L25 15L25 16L26 16L26 18L27 18L27 16L26 16L26 15L27 15L27 14ZM18 17L18 19L16 19L16 20L17 20L17 21L18 21L18 23L19 23L19 25L20 25L20 26L21 26L21 23L22 23L22 22L23 22L23 21L22 21L22 19L23 19L23 18L22 18L22 19L19 19L19 17ZM7 18L7 19L6 19L6 20L5 20L5 21L4 21L4 22L5 22L5 21L6 21L6 22L7 22L7 23L6 23L6 24L7 24L7 23L9 23L9 21L6 21L6 20L7 20L7 19L10 19L10 18ZM14 19L14 20L15 20L15 19ZM25 19L25 20L26 20L26 19ZM27 19L27 20L28 20L28 19ZM42 19L42 20L41 20L41 21L42 21L42 22L43 22L43 21L44 21L44 19ZM48 19L48 20L49 20L49 19ZM18 20L18 21L19 21L19 20ZM20 20L20 21L21 21L21 20ZM14 21L14 24L13 24L13 25L14 25L14 26L15 26L15 25L16 25L16 24L15 24L15 21ZM35 21L35 22L36 22L36 21ZM53 21L53 22L52 22L52 23L51 23L51 25L50 25L50 26L51 26L51 25L52 25L52 26L53 26L53 25L52 25L52 23L53 23L53 22L54 22L54 21ZM16 22L16 23L17 23L17 22ZM20 22L20 23L21 23L21 22ZM24 22L24 23L25 23L25 22ZM0 24L0 27L1 27L1 25L3 25L3 24ZM14 24L14 25L15 25L15 24ZM28 24L28 25L29 25L29 24ZM47 24L47 25L46 25L46 26L45 26L45 25L44 25L44 27L43 27L43 28L42 28L42 31L40 31L40 30L41 30L41 29L40 29L40 28L41 28L41 25L40 25L40 28L39 28L39 29L38 29L38 28L37 28L37 30L36 30L36 31L37 31L37 32L38 32L38 31L40 31L40 32L41 32L41 33L42 33L42 31L43 31L43 30L44 30L44 27L46 27L46 26L49 26L49 24ZM11 25L11 26L12 26L12 25ZM5 27L5 30L8 30L8 27ZM20 27L20 28L21 28L21 27ZM27 27L27 30L30 30L30 27ZM47 27L47 28L46 28L46 29L45 29L45 30L46 30L46 31L45 31L45 32L46 32L46 34L48 34L48 33L47 33L47 30L48 30L48 27ZM49 27L49 30L52 30L52 27ZM0 28L0 30L1 30L1 28ZM6 28L6 29L7 29L7 28ZM28 28L28 29L29 29L29 28ZM32 28L32 29L33 29L33 28ZM50 28L50 29L51 29L51 28ZM3 30L3 31L4 31L4 33L3 33L3 34L4 34L4 35L5 35L5 33L6 33L6 34L7 34L7 35L8 35L8 34L7 34L7 33L8 33L8 31L4 31L4 30ZM22 30L22 33L23 33L23 35L25 35L25 36L24 36L24 37L25 37L25 36L26 36L26 37L27 37L27 36L28 36L28 37L29 37L29 36L28 36L28 35L27 35L27 36L26 36L26 34L28 34L28 33L26 33L26 32L25 32L25 30L24 30L24 32L23 32L23 30ZM37 30L37 31L38 31L38 30ZM54 30L54 31L55 31L55 30ZM0 31L0 32L1 32L1 31ZM11 31L11 32L12 32L12 31ZM6 32L6 33L7 33L7 32ZM24 32L24 34L26 34L26 33L25 33L25 32ZM19 33L19 35L20 35L20 33ZM36 33L36 35L38 35L38 34L37 34L37 33ZM1 34L1 36L2 36L2 34ZM53 34L53 36L52 36L52 37L53 37L53 36L54 36L54 34ZM11 35L11 36L12 36L12 35ZM21 35L21 36L22 36L22 37L23 37L23 36L22 36L22 35ZM42 35L42 37L43 37L43 35ZM36 37L36 38L37 38L37 41L38 41L38 38L39 38L39 37L38 37L38 38L37 38L37 37ZM18 38L18 39L19 39L19 38ZM20 38L20 39L21 39L21 38ZM24 38L24 39L25 39L25 38ZM28 38L28 39L29 39L29 38ZM47 38L47 40L48 40L48 38ZM6 40L6 41L7 41L7 40ZM17 40L17 41L16 41L16 43L17 43L17 41L18 41L18 40ZM25 40L25 41L26 41L26 42L24 42L24 43L22 43L22 44L24 44L24 45L23 45L23 46L24 46L24 47L23 47L23 48L24 48L24 47L26 47L26 46L28 46L28 44L30 44L30 43L31 43L31 42L30 42L30 43L28 43L28 42L27 42L27 40ZM52 40L52 44L51 44L51 45L50 45L50 46L49 46L49 47L50 47L50 46L51 46L51 45L52 45L52 47L53 47L53 45L52 45L52 44L53 44L53 40ZM10 42L10 43L11 43L11 44L10 44L10 45L11 45L11 44L12 44L12 43L11 43L11 42ZM56 42L56 43L57 43L57 42ZM6 43L6 44L5 44L5 45L6 45L6 46L7 46L7 45L8 45L8 44L7 44L7 43ZM24 43L24 44L25 44L25 43ZM6 44L6 45L7 45L7 44ZM42 44L42 45L41 45L41 47L42 47L42 45L43 45L43 46L44 46L44 45L43 45L43 44ZM24 45L24 46L26 46L26 45ZM32 45L32 46L33 46L33 45ZM3 46L3 47L5 47L5 46ZM16 46L16 47L17 47L17 46ZM21 46L21 48L20 48L20 49L21 49L21 48L22 48L22 46ZM27 49L27 52L30 52L30 49ZM49 49L49 52L52 52L52 49ZM54 49L54 50L53 50L53 51L54 51L54 52L55 52L55 51L56 51L56 49ZM10 50L10 53L11 53L11 50ZM17 50L17 51L18 51L18 50ZM28 50L28 51L29 51L29 50ZM50 50L50 51L51 51L51 50ZM14 51L14 52L15 52L15 51ZM31 51L31 52L32 52L32 51ZM42 51L42 52L43 52L43 53L42 53L42 54L43 54L43 55L44 55L44 56L45 56L45 55L44 55L44 52L43 52L43 51ZM46 51L46 52L47 52L47 51ZM21 52L21 53L22 53L22 52ZM35 52L35 53L34 53L34 54L35 54L35 53L36 53L36 54L37 54L37 53L36 53L36 52ZM27 53L27 54L24 54L24 55L26 55L26 56L27 56L27 55L28 55L28 53ZM31 53L31 54L30 54L30 55L33 55L33 54L32 54L32 53ZM16 54L16 55L17 55L17 54ZM55 54L55 55L57 55L57 54ZM36 56L36 57L37 57L37 56ZM56 56L56 57L57 57L57 56ZM0 0L0 7L7 7L7 0ZM1 1L1 6L6 6L6 1ZM2 2L2 5L5 5L5 2ZM50 0L50 7L57 7L57 0ZM51 1L51 6L56 6L56 1ZM52 2L52 5L55 5L55 2ZM0 50L0 57L7 57L7 50ZM1 51L1 56L6 56L6 51ZM2 52L2 55L5 55L5 52Z" fill="#000000"/></g></g></svg>
