<?xml version="1.0" encoding="UTF-8"?>
<svg xmlns="http://www.w3.org/2000/svg" version="1.1" width="300" height="300" viewBox="0 0 300 300"><rect x="0" y="0" width="300" height="300" fill="#fefefe"/><g transform="scale(4.615)"><g transform="translate(4,4)"><path fill-rule="evenodd" d="M8 0L8 1L9 1L9 2L8 2L8 5L9 5L9 3L10 3L10 2L11 2L11 1L10 1L10 0ZM14 0L14 1L15 1L15 2L16 2L16 3L17 3L17 4L19 4L19 5L15 5L15 4L14 4L14 3L13 3L13 2L12 2L12 3L13 3L13 4L12 4L12 5L11 5L11 6L10 6L10 7L9 7L9 6L8 6L8 7L9 7L9 8L8 8L8 9L9 9L9 11L8 11L8 13L10 13L10 12L12 12L12 13L11 13L11 14L12 14L12 15L11 15L11 16L13 16L13 17L15 17L15 19L12 19L12 17L9 17L9 19L11 19L11 20L10 20L10 21L8 21L8 19L7 19L7 18L6 18L6 19L7 19L7 20L5 20L5 18L3 18L3 16L6 16L6 17L8 17L8 16L9 16L9 15L8 15L8 16L6 16L6 15L7 15L7 14L5 14L5 13L4 13L4 14L3 14L3 13L0 13L0 16L2 16L2 17L1 17L1 18L0 18L0 19L1 19L1 20L2 20L2 19L3 19L3 20L5 20L5 23L7 23L7 22L6 22L6 21L8 21L8 23L9 23L9 22L11 22L11 21L13 21L13 27L11 27L11 26L12 26L12 25L11 25L11 26L9 26L9 25L10 25L10 24L9 24L9 25L7 25L7 24L6 24L6 25L7 25L7 26L4 26L4 25L5 25L5 24L4 24L4 25L2 25L2 26L0 26L0 27L2 27L2 28L4 28L4 29L1 29L1 28L0 28L0 29L1 29L1 30L0 30L0 33L1 33L1 34L2 34L2 35L0 35L0 36L2 36L2 38L1 38L1 37L0 37L0 41L1 41L1 39L7 39L7 40L6 40L6 41L5 41L5 42L6 42L6 43L7 43L7 44L6 44L6 45L7 45L7 46L5 46L5 44L4 44L4 43L3 43L3 40L2 40L2 42L1 42L1 43L0 43L0 44L1 44L1 43L3 43L3 44L4 44L4 46L5 46L5 47L3 47L3 46L2 46L2 45L0 45L0 48L5 48L5 47L7 47L7 46L11 46L11 47L13 47L13 48L12 48L12 49L15 49L15 50L14 50L14 53L13 53L13 54L11 54L11 53L12 53L12 52L13 52L13 51L12 51L12 50L11 50L11 49L9 49L9 48L8 48L8 50L9 50L9 51L12 51L12 52L11 52L11 53L10 53L10 52L9 52L9 53L8 53L8 57L9 57L9 56L10 56L10 57L11 57L11 55L12 55L12 57L15 57L15 56L16 56L16 57L18 57L18 56L19 56L19 55L20 55L20 56L21 56L21 57L24 57L24 56L25 56L25 55L24 55L24 56L22 56L22 55L23 55L23 54L25 54L25 53L26 53L26 54L27 54L27 53L29 53L29 54L31 54L31 55L30 55L30 56L31 56L31 57L32 57L32 55L34 55L34 56L33 56L33 57L36 57L36 55L38 55L38 57L41 57L41 56L42 56L42 57L43 57L43 56L46 56L46 57L51 57L51 54L52 54L52 53L54 53L54 54L53 54L53 56L52 56L52 57L55 57L55 56L54 56L54 54L56 54L56 53L57 53L57 52L55 52L55 50L53 50L53 48L54 48L54 49L55 49L55 48L54 48L54 47L57 47L57 45L56 45L56 46L55 46L55 44L53 44L53 46L52 46L52 47L51 47L51 45L52 45L52 43L53 43L53 42L54 42L54 43L56 43L56 44L57 44L57 43L56 43L56 42L57 42L57 40L56 40L56 41L55 41L55 39L53 39L53 38L52 38L52 36L53 36L53 37L55 37L55 38L56 38L56 39L57 39L57 38L56 38L56 36L54 36L54 35L57 35L57 31L56 31L56 30L57 30L57 27L56 27L56 24L54 24L54 23L53 23L53 22L54 22L54 21L55 21L55 20L54 20L54 21L53 21L53 20L50 20L50 19L49 19L49 18L48 18L48 14L47 14L47 17L46 17L46 16L44 16L44 14L46 14L46 13L44 13L44 12L43 12L43 11L42 11L42 12L43 12L43 14L42 14L42 17L41 17L41 18L39 18L39 19L40 19L40 20L39 20L39 24L38 24L38 23L37 23L37 24L36 24L36 23L35 23L35 24L33 24L33 22L32 22L32 23L31 23L31 20L32 20L32 17L33 17L33 19L34 19L34 21L35 21L35 22L38 22L38 21L36 21L36 20L38 20L38 19L36 19L36 20L35 20L35 17L34 17L34 16L35 16L35 15L36 15L36 14L37 14L37 15L39 15L39 17L40 17L40 16L41 16L41 14L40 14L40 13L39 13L39 12L40 12L40 11L41 11L41 10L44 10L44 9L43 9L43 6L42 6L42 7L41 7L41 4L37 4L37 3L39 3L39 2L37 2L37 1L38 1L38 0L37 0L37 1L36 1L36 0L35 0L35 1L34 1L34 2L32 2L32 1L31 1L31 0L29 0L29 2L27 2L27 3L29 3L29 4L26 4L26 1L25 1L25 0L23 0L23 1L25 1L25 2L24 2L24 3L23 3L23 2L22 2L22 0L21 0L21 2L22 2L22 3L23 3L23 6L22 6L22 8L21 8L21 10L20 10L20 7L21 7L21 5L20 5L20 4L19 4L19 3L20 3L20 2L19 2L19 1L20 1L20 0L17 0L17 2L16 2L16 1L15 1L15 0ZM39 0L39 1L40 1L40 2L41 2L41 1L43 1L43 0L41 0L41 1L40 1L40 0ZM46 0L46 1L47 1L47 2L46 2L46 3L47 3L47 5L46 5L46 7L45 7L45 6L44 6L44 7L45 7L45 9L47 9L47 10L45 10L45 11L47 11L47 12L48 12L48 11L49 11L49 17L51 17L51 18L52 18L52 19L56 19L56 22L55 22L55 23L57 23L57 19L56 19L56 18L57 18L57 15L55 15L55 13L54 13L54 10L52 10L52 11L53 11L53 13L52 13L52 12L51 12L51 11L50 11L50 10L49 10L49 9L50 9L50 8L49 8L49 6L48 6L48 7L47 7L47 5L48 5L48 0ZM30 1L30 4L31 4L31 5L32 5L32 6L31 6L31 9L32 9L32 10L30 10L30 11L28 11L28 10L26 10L26 11L25 11L25 13L24 13L24 11L21 11L21 12L20 12L20 11L19 11L19 8L18 8L18 12L17 12L17 13L16 13L16 12L15 12L15 15L14 15L14 13L13 13L13 15L14 15L14 16L15 16L15 17L16 17L16 16L17 16L17 18L18 18L18 17L19 17L19 18L20 18L20 19L19 19L19 20L18 20L18 19L17 19L17 20L18 20L18 21L19 21L19 22L21 22L21 23L20 23L20 24L19 24L19 25L20 25L20 24L21 24L21 23L22 23L22 25L23 25L23 27L22 27L22 26L21 26L21 27L16 27L16 26L17 26L17 24L18 24L18 23L16 23L16 19L15 19L15 20L14 20L14 23L16 23L16 24L15 24L15 25L16 25L16 26L15 26L15 27L14 27L14 28L17 28L17 31L18 31L18 33L16 33L16 31L15 31L15 30L16 30L16 29L13 29L13 28L11 28L11 27L9 27L9 28L11 28L11 29L12 29L12 30L9 30L9 34L7 34L7 33L8 33L8 31L5 31L5 32L4 32L4 30L2 30L2 31L1 31L1 33L2 33L2 34L4 34L4 33L5 33L5 32L7 32L7 33L6 33L6 34L5 34L5 36L7 36L7 37L6 37L6 38L7 38L7 37L8 37L8 38L9 38L9 39L10 39L10 38L11 38L11 41L9 41L9 42L11 42L11 43L12 43L12 42L14 42L14 43L16 43L16 42L14 42L14 41L12 41L12 40L15 40L15 39L14 39L14 38L18 38L18 39L16 39L16 41L17 41L17 44L16 44L16 45L15 45L15 44L14 44L14 45L15 45L15 46L14 46L14 47L15 47L15 48L16 48L16 50L17 50L17 51L16 51L16 52L15 52L15 53L16 53L16 54L17 54L17 55L19 55L19 52L20 52L20 50L19 50L19 51L18 51L18 50L17 50L17 47L16 47L16 46L17 46L17 45L19 45L19 43L21 43L21 44L22 44L22 46L21 46L21 45L20 45L20 46L19 46L19 47L22 47L22 46L23 46L23 44L22 44L22 42L21 42L21 41L20 41L20 40L18 40L18 39L19 39L19 37L20 37L20 38L21 38L21 39L22 39L22 37L23 37L23 36L27 36L27 38L26 38L26 37L24 37L24 39L23 39L23 40L22 40L22 41L23 41L23 42L25 42L25 43L26 43L26 45L25 45L25 44L24 44L24 45L25 45L25 46L24 46L24 49L23 49L23 48L20 48L20 49L21 49L21 52L22 52L22 53L20 53L20 55L21 55L21 54L23 54L23 52L24 52L24 53L25 53L25 52L26 52L26 50L25 50L25 49L26 49L26 48L29 48L29 47L30 47L30 48L32 48L32 49L31 49L31 50L32 50L32 51L31 51L31 53L32 53L32 51L33 51L33 50L34 50L34 51L35 51L35 48L37 48L37 49L36 49L36 50L37 50L37 49L38 49L38 48L39 48L39 49L40 49L40 50L39 50L39 52L40 52L40 54L41 54L41 55L39 55L39 56L41 56L41 55L42 55L42 54L43 54L43 52L42 52L42 51L43 51L43 50L44 50L44 51L45 51L45 50L46 50L46 51L47 51L47 52L46 52L46 53L47 53L47 54L50 54L50 53L47 53L47 52L48 52L48 48L47 48L47 49L46 49L46 46L48 46L48 47L49 47L49 48L50 48L50 45L51 45L51 42L50 42L50 41L52 41L52 40L53 40L53 39L51 39L51 36L52 36L52 35L51 35L51 36L50 36L50 37L49 37L49 36L48 36L48 35L47 35L47 34L50 34L50 33L49 33L49 32L48 32L48 26L49 26L49 25L50 25L50 24L51 24L51 26L53 26L53 27L55 27L55 25L53 25L53 24L51 24L51 23L52 23L52 22L51 22L51 21L50 21L50 20L49 20L49 19L48 19L48 18L47 18L47 19L46 19L46 18L45 18L45 17L42 17L42 18L41 18L41 21L44 21L44 22L47 22L47 21L45 21L45 20L49 20L49 23L50 23L50 24L49 24L49 25L48 25L48 24L47 24L47 23L42 23L42 24L44 24L44 25L41 25L41 23L40 23L40 24L39 24L39 25L40 25L40 26L45 26L45 29L44 29L44 28L43 28L43 27L42 27L42 28L43 28L43 29L42 29L42 30L41 30L41 27L39 27L39 26L38 26L38 27L39 27L39 28L40 28L40 30L39 30L39 29L38 29L38 30L36 30L36 29L37 29L37 28L34 28L34 29L35 29L35 31L34 31L34 32L31 32L31 34L30 34L30 35L29 35L29 33L30 33L30 32L28 32L28 31L24 31L24 30L26 30L26 28L23 28L23 27L25 27L25 25L27 25L27 26L28 26L28 25L29 25L29 26L31 26L31 24L28 24L28 23L30 23L30 22L29 22L29 21L30 21L30 20L29 20L29 19L28 19L28 18L29 18L29 17L30 17L30 19L31 19L31 16L32 16L32 14L33 14L33 15L35 15L35 14L36 14L36 13L35 13L35 12L38 12L38 11L37 11L37 9L38 9L38 10L39 10L39 11L40 11L40 10L39 10L39 9L38 9L38 8L41 8L41 9L42 9L42 8L41 8L41 7L40 7L40 5L38 5L38 6L37 6L37 5L36 5L36 4L35 4L35 3L32 3L32 4L31 4L31 1ZM35 1L35 2L36 2L36 1ZM44 1L44 2L42 2L42 3L43 3L43 5L45 5L45 4L44 4L44 3L45 3L45 1ZM17 2L17 3L18 3L18 2ZM13 4L13 7L14 7L14 8L13 8L13 10L11 10L11 11L12 11L12 12L13 12L13 10L14 10L14 11L15 11L15 10L16 10L16 11L17 11L17 7L18 7L18 6L17 6L17 7L16 7L16 6L15 6L15 5L14 5L14 4ZM24 4L24 6L23 6L23 7L24 7L24 8L23 8L23 9L24 9L24 8L25 8L25 9L26 9L26 6L25 6L25 5L26 5L26 4ZM33 4L33 6L32 6L32 8L33 8L33 6L34 6L34 9L36 9L36 8L38 8L38 7L39 7L39 6L38 6L38 7L37 7L37 6L36 6L36 7L35 7L35 6L34 6L34 4ZM27 5L27 8L30 8L30 5ZM11 6L11 7L10 7L10 8L9 8L9 9L12 9L12 6ZM14 6L14 7L15 7L15 6ZM19 6L19 7L20 7L20 6ZM24 6L24 7L25 7L25 6ZM28 6L28 7L29 7L29 6ZM46 7L46 8L47 8L47 7ZM0 8L0 12L3 12L3 10L4 10L4 11L7 11L7 10L6 10L6 9L7 9L7 8L6 8L6 9L5 9L5 10L4 10L4 8ZM15 8L15 9L16 9L16 8ZM48 8L48 9L49 9L49 8ZM52 8L52 9L55 9L55 8ZM56 8L56 9L57 9L57 8ZM1 10L1 11L2 11L2 10ZM33 10L33 14L34 14L34 12L35 12L35 11L36 11L36 10L35 10L35 11L34 11L34 10ZM55 10L55 11L57 11L57 10ZM30 11L30 12L31 12L31 13L32 13L32 11ZM6 12L6 13L7 13L7 12ZM18 12L18 13L19 13L19 14L20 14L20 15L21 15L21 13L20 13L20 12ZM22 12L22 13L23 13L23 12ZM26 12L26 14L23 14L23 18L22 18L22 17L21 17L21 16L19 16L19 17L21 17L21 18L22 18L22 19L21 19L21 20L22 20L22 23L23 23L23 25L25 25L25 22L27 22L27 23L26 23L26 24L27 24L27 23L28 23L28 21L29 21L29 20L28 20L28 19L26 19L26 17L29 17L29 16L31 16L31 14L30 14L30 13L28 13L28 12ZM50 12L50 13L51 13L51 15L54 15L54 14L52 14L52 13L51 13L51 12ZM1 14L1 15L2 15L2 14ZM16 14L16 15L15 15L15 16L16 16L16 15L17 15L17 16L18 16L18 14ZM26 14L26 16L27 16L27 14ZM39 14L39 15L40 15L40 14ZM28 15L28 16L29 16L29 15ZM52 16L52 17L53 17L53 18L54 18L54 17L55 17L55 16ZM24 17L24 18L23 18L23 19L22 19L22 20L23 20L23 21L24 21L24 22L25 22L25 19L24 19L24 18L25 18L25 17ZM36 17L36 18L37 18L37 17ZM1 18L1 19L2 19L2 18ZM42 18L42 19L43 19L43 18ZM44 18L44 19L45 19L45 18ZM26 20L26 21L27 21L27 20ZM1 21L1 23L0 23L0 24L3 24L3 23L4 23L4 21ZM32 24L32 25L33 25L33 24ZM34 25L34 27L35 27L35 25ZM45 25L45 26L46 26L46 30L45 30L45 31L47 31L47 26L46 26L46 25ZM2 26L2 27L3 27L3 26ZM5 27L5 30L8 30L8 27ZM27 27L27 30L30 30L30 27ZM31 27L31 28L33 28L33 27ZM49 27L49 30L52 30L52 27ZM6 28L6 29L7 29L7 28ZM18 28L18 29L21 29L21 30L24 30L24 29L21 29L21 28ZM28 28L28 29L29 29L29 28ZM50 28L50 29L51 29L51 28ZM53 28L53 30L54 30L54 28ZM31 29L31 30L33 30L33 29ZM55 29L55 30L56 30L56 29ZM12 30L12 31L13 31L13 32L12 32L12 35L13 35L13 36L12 36L12 38L14 38L14 37L15 37L15 36L17 36L17 37L19 37L19 36L21 36L21 34L22 34L22 33L23 33L23 35L24 35L24 34L25 34L25 32L24 32L24 31L22 31L22 32L20 32L20 33L19 33L19 35L18 35L18 36L17 36L17 35L15 35L15 31L13 31L13 30ZM38 30L38 31L39 31L39 34L38 34L38 32L37 32L37 31L35 31L35 32L34 32L34 33L35 33L35 35L36 35L36 36L35 36L35 37L37 37L37 39L38 39L38 40L37 40L37 41L40 41L40 42L41 42L41 44L40 44L40 43L39 43L39 42L37 42L37 44L38 44L38 45L36 45L36 44L35 44L35 43L34 43L34 42L36 42L36 41L34 41L34 40L35 40L35 39L36 39L36 38L35 38L35 39L34 39L34 37L33 37L33 38L32 38L32 36L34 36L34 35L33 35L33 33L32 33L32 36L29 36L29 35L28 35L28 34L27 34L27 36L29 36L29 38L27 38L27 39L26 39L26 41L25 41L25 39L24 39L24 41L25 41L25 42L27 42L27 43L28 43L28 44L27 44L27 45L26 45L26 46L27 46L27 47L29 47L29 46L27 46L27 45L28 45L28 44L30 44L30 45L31 45L31 44L30 44L30 43L32 43L32 42L33 42L33 45L34 45L34 44L35 44L35 45L36 45L36 46L37 46L37 47L38 47L38 45L41 45L41 46L39 46L39 47L43 47L43 49L44 49L44 48L45 48L45 47L43 47L43 45L42 45L42 43L43 43L43 44L48 44L48 45L49 45L49 43L50 43L50 42L49 42L49 43L48 43L48 42L47 42L47 41L50 41L50 40L51 40L51 39L50 39L50 40L47 40L47 39L48 39L48 38L49 38L49 37L48 37L48 38L46 38L46 36L45 36L45 35L46 35L46 34L45 34L45 33L44 33L44 30L43 30L43 31L41 31L41 32L40 32L40 31L39 31L39 30ZM2 31L2 33L4 33L4 32L3 32L3 31ZM10 31L10 32L11 32L11 31ZM51 31L51 32L52 32L52 34L54 34L54 33L55 33L55 34L56 34L56 33L55 33L55 31L53 31L53 32L52 32L52 31ZM23 32L23 33L24 33L24 32ZM27 32L27 33L28 33L28 32ZM36 32L36 33L37 33L37 32ZM42 32L42 33L43 33L43 32ZM53 32L53 33L54 33L54 32ZM20 33L20 34L21 34L21 33ZM6 34L6 35L7 35L7 36L8 36L8 35L7 35L7 34ZM9 34L9 37L11 37L11 35L10 35L10 34ZM13 34L13 35L14 35L14 36L15 36L15 35L14 35L14 34ZM41 34L41 35L39 35L39 36L40 36L40 37L41 37L41 36L42 36L42 38L44 38L44 39L40 39L40 41L41 41L41 40L42 40L42 42L43 42L43 43L44 43L44 42L43 42L43 40L44 40L44 39L45 39L45 40L46 40L46 41L47 41L47 40L46 40L46 39L45 39L45 36L44 36L44 37L43 37L43 35L44 35L44 34L43 34L43 35L42 35L42 34ZM2 35L2 36L4 36L4 35ZM37 36L37 37L38 37L38 36ZM4 37L4 38L5 38L5 37ZM30 38L30 39L28 39L28 41L29 41L29 42L31 42L31 40L33 40L33 39L32 39L32 38ZM38 38L38 39L39 39L39 38ZM7 40L7 41L6 41L6 42L7 42L7 43L8 43L8 42L7 42L7 41L8 41L8 40ZM29 40L29 41L30 41L30 40ZM11 41L11 42L12 42L12 41ZM18 41L18 43L19 43L19 41ZM54 41L54 42L55 42L55 41ZM45 42L45 43L47 43L47 42ZM9 43L9 44L8 44L8 45L9 45L9 44L10 44L10 43ZM38 43L38 44L39 44L39 43ZM12 44L12 46L13 46L13 44ZM44 45L44 46L45 46L45 45ZM1 46L1 47L2 47L2 46ZM31 46L31 47L32 47L32 48L35 48L35 46L34 46L34 47L32 47L32 46ZM25 47L25 48L26 48L26 47ZM52 47L52 48L53 48L53 47ZM6 48L6 49L7 49L7 48ZM41 48L41 49L42 49L42 48ZM56 48L56 50L57 50L57 48ZM22 49L22 52L23 52L23 49ZM27 49L27 52L30 52L30 49ZM32 49L32 50L33 50L33 49ZM49 49L49 52L52 52L52 49ZM24 50L24 51L25 51L25 50ZM28 50L28 51L29 51L29 50ZM50 50L50 51L51 51L51 50ZM36 51L36 52L35 52L35 53L36 53L36 54L35 54L35 55L36 55L36 54L37 54L37 52L38 52L38 51ZM40 51L40 52L41 52L41 54L42 54L42 52L41 52L41 51ZM33 52L33 53L34 53L34 52ZM54 52L54 53L55 53L55 52ZM9 53L9 55L10 55L10 53ZM17 53L17 54L18 54L18 53ZM38 53L38 54L39 54L39 53ZM13 54L13 55L14 55L14 56L15 56L15 54ZM44 54L44 55L46 55L46 56L49 56L49 55L46 55L46 54ZM27 55L27 56L28 56L28 55ZM56 55L56 56L57 56L57 55ZM0 0L0 7L7 7L7 0ZM1 1L1 6L6 6L6 1ZM2 2L2 5L5 5L5 2ZM50 0L50 7L57 7L57 0ZM51 1L51 6L56 6L56 1ZM52 2L52 5L55 5L55 2ZM0 50L0 57L7 57L7 50ZM1 51L1 56L6 56L6 51ZM2 52L2 55L5 55L5 52Z" fill="#000000"/></g></g></svg>
