<?xml version="1.0" encoding="UTF-8"?>
<svg xmlns="http://www.w3.org/2000/svg" version="1.1" width="300" height="300" viewBox="0 0 300 300"><rect x="0" y="0" width="300" height="300" fill="#fefefe"/><g transform="scale(4.615)"><g transform="translate(4,4)"><path fill-rule="evenodd" d="M8 0L8 1L12 1L12 0ZM13 0L13 1L14 1L14 0ZM18 0L18 1L16 1L16 2L17 2L17 4L19 4L19 5L18 5L18 7L17 7L17 5L15 5L15 4L14 4L14 3L10 3L10 2L8 2L8 5L9 5L9 6L8 6L8 7L9 7L9 6L10 6L10 7L11 7L11 8L12 8L12 7L13 7L13 8L14 8L14 7L15 7L15 6L16 6L16 7L17 7L17 9L18 9L18 10L17 10L17 12L16 12L16 13L17 13L17 12L18 12L18 13L19 13L19 15L18 15L18 14L16 14L16 15L15 15L15 11L14 11L14 10L12 10L12 9L10 9L10 8L8 8L8 10L6 10L6 9L7 9L7 8L6 8L6 9L4 9L4 8L0 8L0 9L3 9L3 10L2 10L2 11L0 11L0 14L2 14L2 13L3 13L3 14L5 14L5 16L6 16L6 17L7 17L7 18L6 18L6 19L7 19L7 20L6 20L6 21L5 21L5 19L4 19L4 21L3 21L3 20L2 20L2 19L0 19L0 20L1 20L1 21L3 21L3 22L2 22L2 23L1 23L1 22L0 22L0 23L1 23L1 24L2 24L2 23L3 23L3 26L2 26L2 25L1 25L1 27L0 27L0 28L1 28L1 29L0 29L0 30L1 30L1 29L3 29L3 30L2 30L2 31L4 31L4 32L1 32L1 31L0 31L0 37L1 37L1 38L0 38L0 40L1 40L1 42L0 42L0 48L5 48L5 47L7 47L7 48L6 48L6 49L8 49L8 50L9 50L9 53L8 53L8 57L9 57L9 56L11 56L11 55L12 55L12 57L13 57L13 56L14 56L14 55L13 55L13 54L10 54L10 50L11 50L11 49L12 49L12 50L13 50L13 52L12 52L12 53L13 53L13 52L15 52L15 51L16 51L16 52L17 52L17 50L18 50L18 52L19 52L19 53L18 53L18 54L19 54L19 55L20 55L20 57L21 57L21 56L22 56L22 57L23 57L23 56L22 56L22 55L23 55L23 54L25 54L25 55L24 55L24 57L25 57L25 55L26 55L26 56L28 56L28 55L26 55L26 54L27 54L27 53L29 53L29 54L31 54L31 55L30 55L30 56L31 56L31 57L32 57L32 55L34 55L34 56L33 56L33 57L36 57L36 55L38 55L38 57L42 57L42 56L46 56L46 57L47 57L47 56L46 56L46 55L49 55L49 57L51 57L51 54L52 54L52 53L53 53L53 56L52 56L52 57L55 57L55 56L54 56L54 55L55 55L55 54L56 54L56 53L57 53L57 51L56 51L56 52L55 52L55 50L53 50L53 49L55 49L55 48L54 48L54 47L57 47L57 43L56 43L56 41L57 41L57 40L56 40L56 41L55 41L55 42L54 42L54 40L55 40L55 38L56 38L56 39L57 39L57 38L56 38L56 36L57 36L57 31L56 31L56 30L57 30L57 29L56 29L56 30L54 30L54 29L55 29L55 28L56 28L56 24L54 24L54 23L53 23L53 20L50 20L50 19L47 19L47 18L48 18L48 14L47 14L47 16L46 16L46 15L45 15L45 14L46 14L46 13L44 13L44 7L45 7L45 11L48 11L48 12L49 12L49 16L50 16L50 17L52 17L52 16L50 16L50 15L51 15L51 13L52 13L52 14L53 14L53 13L54 13L54 15L53 15L53 17L54 17L54 18L51 18L51 19L56 19L56 20L57 20L57 19L56 19L56 17L57 17L57 15L55 15L55 13L54 13L54 10L53 10L53 13L52 13L52 12L51 12L51 11L52 11L52 9L55 9L55 12L57 12L57 10L56 10L56 9L57 9L57 8L56 8L56 9L55 9L55 8L52 8L52 9L51 9L51 11L48 11L48 10L50 10L50 8L49 8L49 6L48 6L48 7L47 7L47 5L48 5L48 0L46 0L46 1L47 1L47 2L46 2L46 3L47 3L47 5L46 5L46 4L44 4L44 3L45 3L45 1L44 1L44 2L41 2L41 1L43 1L43 0L41 0L41 1L40 1L40 0L39 0L39 1L40 1L40 2L41 2L41 3L43 3L43 5L42 5L42 7L41 7L41 4L38 4L38 3L39 3L39 2L37 2L37 1L38 1L38 0L37 0L37 1L36 1L36 0L35 0L35 1L34 1L34 2L35 2L35 4L36 4L36 5L37 5L37 6L36 6L36 7L35 7L35 6L34 6L34 5L33 5L33 6L32 6L32 5L31 5L31 4L32 4L32 3L33 3L33 1L32 1L32 2L31 2L31 0L27 0L27 1L29 1L29 2L28 2L28 3L29 3L29 2L30 2L30 3L31 3L31 4L26 4L26 2L24 2L24 3L23 3L23 4L22 4L22 5L23 5L23 6L22 6L22 8L21 8L21 11L23 11L23 12L22 12L22 13L23 13L23 12L24 12L24 13L25 13L25 14L26 14L26 13L27 13L27 16L26 16L26 15L24 15L24 14L23 14L23 18L22 18L22 17L21 17L21 19L20 19L20 18L19 18L19 17L17 17L17 16L19 16L19 15L20 15L20 16L21 16L21 13L20 13L20 12L18 12L18 10L19 10L19 11L20 11L20 9L18 9L18 8L20 8L20 7L21 7L21 5L20 5L20 4L19 4L19 3L20 3L20 2L22 2L22 0L21 0L21 1L20 1L20 0ZM23 0L23 1L26 1L26 0ZM35 1L35 2L36 2L36 1ZM18 2L18 3L19 3L19 2ZM13 4L13 5L14 5L14 4ZM24 4L24 6L23 6L23 7L24 7L24 8L25 8L25 9L26 9L26 6L25 6L25 5L26 5L26 4ZM27 5L27 8L30 8L30 5ZM38 5L38 6L37 6L37 7L38 7L38 8L41 8L41 9L42 9L42 8L43 8L43 7L44 7L44 6L45 6L45 7L46 7L46 5L43 5L43 7L42 7L42 8L41 8L41 7L40 7L40 5ZM11 6L11 7L12 7L12 6ZM13 6L13 7L14 7L14 6ZM19 6L19 7L20 7L20 6ZM24 6L24 7L25 7L25 6ZM28 6L28 7L29 7L29 6ZM31 6L31 9L32 9L32 10L31 10L31 12L30 12L30 11L29 11L29 9L28 9L28 10L26 10L26 11L25 11L25 10L23 10L23 9L22 9L22 10L23 10L23 11L25 11L25 13L26 13L26 12L28 12L28 13L30 13L30 14L31 14L31 15L32 15L32 14L33 14L33 15L35 15L35 16L34 16L34 17L35 17L35 18L34 18L34 19L32 19L32 18L33 18L33 17L32 17L32 16L29 16L29 15L28 15L28 16L29 16L29 17L27 17L27 19L28 19L28 20L29 20L29 21L31 21L31 23L30 23L30 22L28 22L28 21L27 21L27 20L26 20L26 21L27 21L27 22L25 22L25 19L24 19L24 18L25 18L25 17L24 17L24 18L23 18L23 19L21 19L21 20L20 20L20 19L19 19L19 18L17 18L17 19L15 19L15 18L13 18L13 19L12 19L12 20L13 20L13 19L15 19L15 20L14 20L14 23L16 23L16 24L17 24L17 23L19 23L19 22L21 22L21 23L20 23L20 24L21 24L21 26L19 26L19 25L16 25L16 26L15 26L15 24L14 24L14 26L15 26L15 27L12 27L12 28L13 28L13 29L12 29L12 30L11 30L11 28L10 28L10 27L9 27L9 29L10 29L10 30L9 30L9 32L10 32L10 30L11 30L11 32L12 32L12 30L16 30L16 29L14 29L14 28L17 28L17 31L18 31L18 33L15 33L15 32L16 32L16 31L13 31L13 32L14 32L14 35L15 35L15 34L16 34L16 35L17 35L17 36L15 36L15 37L14 37L14 38L17 38L17 39L16 39L16 41L19 41L19 43L18 43L18 42L15 42L15 43L14 43L14 42L13 42L13 40L15 40L15 39L12 39L12 40L11 40L11 39L10 39L10 38L11 38L11 37L12 37L12 38L13 38L13 37L12 37L12 36L13 36L13 33L12 33L12 36L11 36L11 34L9 34L9 33L8 33L8 32L7 32L7 31L6 31L6 32L4 32L4 34L5 34L5 33L6 33L6 34L7 34L7 35L3 35L3 33L1 33L1 37L2 37L2 39L1 39L1 40L2 40L2 42L1 42L1 43L2 43L2 42L4 42L4 44L1 44L1 47L2 47L2 45L4 45L4 46L3 46L3 47L5 47L5 46L7 46L7 47L8 47L8 48L9 48L9 50L10 50L10 47L12 47L12 46L14 46L14 47L13 47L13 48L14 48L14 49L15 49L15 48L14 48L14 47L17 47L17 48L16 48L16 50L17 50L17 48L19 48L19 49L18 49L18 50L19 50L19 49L21 49L21 52L22 52L22 53L23 53L23 52L24 52L24 53L25 53L25 54L26 54L26 53L25 53L25 52L26 52L26 51L24 51L24 50L25 50L25 47L26 47L26 48L28 48L28 47L27 47L27 46L29 46L29 47L30 47L30 48L31 48L31 46L30 46L30 44L31 44L31 45L32 45L32 47L34 47L34 46L36 46L36 45L38 45L38 47L35 47L35 48L37 48L37 49L36 49L36 50L37 50L37 49L38 49L38 48L39 48L39 49L40 49L40 50L39 50L39 52L40 52L40 54L41 54L41 55L40 55L40 56L41 56L41 55L42 55L42 54L43 54L43 53L42 53L42 52L43 52L43 50L44 50L44 49L45 49L45 48L44 48L44 49L43 49L43 47L44 47L44 45L45 45L45 47L46 47L46 46L48 46L48 47L49 47L49 48L50 48L50 46L51 46L51 48L53 48L53 47L52 47L52 46L54 46L54 45L52 45L52 44L55 44L55 46L56 46L56 44L55 44L55 43L54 43L54 42L53 42L53 43L52 43L52 44L51 44L51 42L50 42L50 41L52 41L52 40L53 40L53 39L52 39L52 38L55 38L55 37L53 37L53 36L52 36L52 35L51 35L51 36L49 36L49 37L52 37L52 38L50 38L50 39L51 39L51 40L50 40L50 41L47 41L47 40L49 40L49 39L47 39L47 40L46 40L46 38L48 38L48 36L47 36L47 37L46 37L46 38L45 38L45 36L46 36L46 35L47 35L47 34L50 34L50 33L49 33L49 32L48 32L48 28L47 28L47 31L44 31L44 30L43 30L43 29L42 29L42 30L41 30L41 27L42 27L42 28L44 28L44 27L42 27L42 26L43 26L43 24L41 24L41 23L43 23L43 22L41 22L41 23L38 23L38 24L39 24L39 26L38 26L38 27L39 27L39 28L40 28L40 29L38 29L38 30L36 30L36 31L37 31L37 32L36 32L36 33L37 33L37 32L38 32L38 34L39 34L39 31L38 31L38 30L41 30L41 31L40 31L40 32L41 32L41 31L44 31L44 33L45 33L45 34L46 34L46 35L45 35L45 36L44 36L44 37L43 37L43 35L44 35L44 34L43 34L43 35L42 35L42 34L41 34L41 35L37 35L37 36L40 36L40 37L41 37L41 39L40 39L40 41L37 41L37 40L38 40L38 39L39 39L39 38L38 38L38 39L37 39L37 37L34 37L34 36L36 36L36 35L35 35L35 32L34 32L34 33L33 33L33 32L31 32L31 33L33 33L33 34L32 34L32 35L31 35L31 34L30 34L30 35L29 35L29 33L30 33L30 31L29 31L29 32L28 32L28 31L25 31L25 30L26 30L26 28L25 28L25 25L29 25L29 26L31 26L31 23L32 23L32 22L33 22L33 24L32 24L32 25L33 25L33 24L35 24L35 23L36 23L36 24L37 24L37 22L35 22L35 21L34 21L34 20L36 20L36 21L38 21L38 22L39 22L39 20L40 20L40 19L39 19L39 18L41 18L41 20L42 20L42 21L44 21L44 22L45 22L45 20L46 20L46 22L47 22L47 24L46 24L46 23L44 23L44 25L45 25L45 24L46 24L46 26L45 26L45 30L46 30L46 26L47 26L47 27L48 27L48 26L49 26L49 25L47 25L47 24L48 24L48 23L51 23L51 24L50 24L50 25L51 25L51 26L52 26L52 25L53 25L53 27L55 27L55 25L53 25L53 23L52 23L52 22L51 22L51 21L50 21L50 20L49 20L49 22L47 22L47 21L48 21L48 20L47 20L47 19L46 19L46 18L45 18L45 17L46 17L46 16L45 16L45 15L44 15L44 13L43 13L43 12L42 12L42 11L43 11L43 10L42 10L42 11L40 11L40 10L39 10L39 9L38 9L38 10L39 10L39 14L40 14L40 13L41 13L41 16L40 16L40 17L39 17L39 15L37 15L37 13L36 13L36 15L35 15L35 12L34 12L34 14L33 14L33 12L32 12L32 11L33 11L33 10L34 10L34 11L35 11L35 10L36 10L36 12L38 12L38 11L37 11L37 8L36 8L36 9L34 9L34 6L33 6L33 8L32 8L32 6ZM38 6L38 7L39 7L39 6ZM48 8L48 9L49 9L49 8ZM46 9L46 10L47 10L47 9ZM4 10L4 11L5 11L5 12L7 12L7 11L6 11L6 10ZM10 10L10 13L9 13L9 14L8 14L8 13L5 13L5 14L7 14L7 15L6 15L6 16L7 16L7 17L10 17L10 18L8 18L8 20L7 20L7 21L6 21L6 22L4 22L4 23L6 23L6 24L7 24L7 25L5 25L5 24L4 24L4 26L3 26L3 29L4 29L4 26L7 26L7 25L8 25L8 26L9 26L9 25L11 25L11 26L13 26L13 25L12 25L12 24L10 24L10 23L9 23L9 25L8 25L8 23L6 23L6 22L7 22L7 21L8 21L8 22L9 22L9 19L10 19L10 18L11 18L11 16L9 16L9 14L11 14L11 15L12 15L12 17L13 17L13 16L14 16L14 13L13 13L13 12L11 12L11 10ZM1 12L1 13L2 13L2 12ZM3 12L3 13L4 13L4 12ZM31 12L31 13L32 13L32 12ZM50 12L50 13L51 13L51 12ZM11 13L11 14L12 14L12 15L13 15L13 13ZM42 14L42 17L41 17L41 18L42 18L42 20L43 20L43 18L42 18L42 17L45 17L45 16L44 16L44 15L43 15L43 14ZM1 15L1 16L0 16L0 18L1 18L1 16L2 16L2 18L4 18L4 17L3 17L3 16L2 16L2 15ZM16 15L16 16L17 16L17 15ZM29 17L29 18L28 18L28 19L30 19L30 17ZM36 17L36 18L37 18L37 17ZM44 18L44 19L45 19L45 18ZM17 19L17 20L16 20L16 23L17 23L17 22L18 22L18 19ZM31 19L31 20L32 20L32 19ZM36 19L36 20L38 20L38 19ZM10 20L10 21L11 21L11 20ZM21 20L21 22L22 22L22 23L23 23L23 24L24 24L24 25L25 25L25 22L24 22L24 21L23 21L23 20ZM54 20L54 21L55 21L55 20ZM12 21L12 22L11 22L11 23L12 23L12 22L13 22L13 21ZM22 21L22 22L23 22L23 21ZM56 21L56 22L55 22L55 23L57 23L57 21ZM27 22L27 23L26 23L26 24L28 24L28 22ZM29 23L29 25L30 25L30 23ZM22 25L22 27L24 27L24 26L23 26L23 25ZM34 25L34 27L35 27L35 28L34 28L34 29L37 29L37 28L36 28L36 27L35 27L35 25ZM40 25L40 26L39 26L39 27L40 27L40 26L41 26L41 25ZM16 26L16 27L19 27L19 28L18 28L18 29L19 29L19 28L20 28L20 29L21 29L21 30L20 30L20 31L21 31L21 30L23 30L23 31L22 31L22 32L20 32L20 33L21 33L21 34L22 34L22 35L20 35L20 36L23 36L23 39L24 39L24 40L23 40L23 41L22 41L22 37L21 37L21 38L20 38L20 37L19 37L19 36L17 36L17 38L18 38L18 39L17 39L17 40L20 40L20 41L22 41L22 44L21 44L21 42L20 42L20 44L21 44L21 46L20 46L20 45L17 45L17 47L21 47L21 48L23 48L23 49L22 49L22 51L23 51L23 49L24 49L24 48L23 48L23 47L24 47L24 46L25 46L25 45L26 45L26 46L27 46L27 45L26 45L26 43L25 43L25 42L29 42L29 43L28 43L28 44L29 44L29 43L31 43L31 44L32 44L32 42L33 42L33 45L34 45L34 44L35 44L35 45L36 45L36 43L34 43L34 42L36 42L36 41L34 41L34 40L35 40L35 39L36 39L36 38L34 38L34 37L33 37L33 38L32 38L32 36L34 36L34 34L33 34L33 35L32 35L32 36L29 36L29 35L28 35L28 34L27 34L27 33L28 33L28 32L24 32L24 33L23 33L23 31L24 31L24 29L25 29L25 28L23 28L23 29L21 29L21 27L19 27L19 26ZM1 27L1 28L2 28L2 27ZM5 27L5 30L8 30L8 27ZM27 27L27 30L30 30L30 27ZM31 27L31 28L33 28L33 27ZM49 27L49 30L52 30L52 27ZM6 28L6 29L7 29L7 28ZM28 28L28 29L29 29L29 28ZM50 28L50 29L51 29L51 28ZM53 28L53 29L54 29L54 28ZM31 30L31 31L32 31L32 30ZM53 30L53 31L50 31L50 32L52 32L52 34L54 34L54 33L53 33L53 31L54 31L54 32L55 32L55 31L54 31L54 30ZM6 32L6 33L7 33L7 34L8 34L8 35L9 35L9 34L8 34L8 33L7 33L7 32ZM42 32L42 33L43 33L43 32ZM45 32L45 33L47 33L47 32ZM18 33L18 34L17 34L17 35L18 35L18 34L19 34L19 33ZM22 33L22 34L23 34L23 33ZM25 33L25 34L24 34L24 35L23 35L23 36L27 36L27 38L29 38L29 36L27 36L27 34L26 34L26 33ZM55 33L55 34L56 34L56 33ZM54 35L54 36L56 36L56 35ZM3 36L3 37L4 37L4 36ZM5 36L5 37L7 37L7 36ZM9 37L9 38L10 38L10 37ZM24 37L24 39L25 39L25 41L24 41L24 42L23 42L23 43L24 43L24 42L25 42L25 41L26 41L26 40L27 40L27 39L25 39L25 38L26 38L26 37ZM5 38L5 40L6 40L6 41L8 41L8 40L9 40L9 42L5 42L5 41L4 41L4 39L2 39L2 40L3 40L3 41L4 41L4 42L5 42L5 43L7 43L7 44L4 44L4 45L7 45L7 46L8 46L8 47L10 47L10 46L12 46L12 45L11 45L11 44L13 44L13 42L12 42L12 41L11 41L11 44L10 44L10 43L9 43L9 42L10 42L10 40L9 40L9 39L7 39L7 38ZM30 38L30 39L28 39L28 41L30 41L30 42L31 42L31 40L33 40L33 39L32 39L32 38ZM42 38L42 39L41 39L41 41L40 41L40 42L41 42L41 43L39 43L39 42L37 42L37 44L38 44L38 45L41 45L41 46L39 46L39 47L43 47L43 45L42 45L42 43L44 43L44 44L48 44L48 46L49 46L49 43L50 43L50 42L49 42L49 43L48 43L48 42L47 42L47 41L46 41L46 40L45 40L45 39L44 39L44 38ZM6 39L6 40L7 40L7 39ZM42 39L42 42L44 42L44 43L45 43L45 41L43 41L43 39ZM46 42L46 43L47 43L47 42ZM8 43L8 45L10 45L10 44L9 44L9 43ZM16 43L16 44L15 44L15 45L14 45L14 46L15 46L15 45L16 45L16 44L17 44L17 43ZM38 43L38 44L39 44L39 43ZM22 44L22 46L21 46L21 47L22 47L22 46L23 46L23 44ZM32 48L32 49L31 49L31 53L32 53L32 49L34 49L34 50L33 50L33 52L35 52L35 53L36 53L36 54L34 54L34 55L36 55L36 54L39 54L39 53L37 53L37 51L36 51L36 52L35 52L35 49L34 49L34 48ZM41 48L41 49L42 49L42 48ZM47 48L47 49L46 49L46 50L45 50L45 54L44 54L44 55L46 55L46 50L47 50L47 52L48 52L48 48ZM56 48L56 50L57 50L57 48ZM27 49L27 52L30 52L30 49ZM49 49L49 52L52 52L52 49ZM14 50L14 51L15 51L15 50ZM28 50L28 51L29 51L29 50ZM50 50L50 51L51 51L51 50ZM19 51L19 52L20 52L20 51ZM40 51L40 52L41 52L41 51ZM54 52L54 54L55 54L55 52ZM14 53L14 54L15 54L15 57L18 57L18 56L17 56L17 54L16 54L16 53ZM20 53L20 55L22 55L22 54L21 54L21 53ZM41 53L41 54L42 54L42 53ZM47 53L47 54L50 54L50 53ZM9 54L9 55L10 55L10 54ZM56 55L56 56L57 56L57 55ZM0 0L0 7L7 7L7 0ZM1 1L1 6L6 6L6 1ZM2 2L2 5L5 5L5 2ZM50 0L50 7L57 7L57 0ZM51 1L51 6L56 6L56 1ZM52 2L52 5L55 5L55 2ZM0 50L0 57L7 57L7 50ZM1 51L1 56L6 56L6 51ZM2 52L2 55L5 55L5 52Z" fill="#000000"/></g></g></svg>
