<?xml version="1.0" encoding="UTF-8"?>
<svg xmlns="http://www.w3.org/2000/svg" version="1.1" width="300" height="300" viewBox="0 0 300 300"><rect x="0" y="0" width="300" height="300" fill="#fefefe"/><g transform="scale(4.615)"><g transform="translate(4,4)"><path fill-rule="evenodd" d="M9 0L9 1L8 1L8 2L9 2L9 3L8 3L8 4L9 4L9 5L8 5L8 7L9 7L9 8L6 8L6 9L9 9L9 10L10 10L10 11L11 11L11 10L13 10L13 11L14 11L14 12L12 12L12 13L10 13L10 12L9 12L9 11L7 11L7 10L5 10L5 11L4 11L4 12L2 12L2 11L1 11L1 10L2 10L2 9L5 9L5 8L0 8L0 14L1 14L1 15L0 15L0 17L1 17L1 15L4 15L4 16L2 16L2 19L1 19L1 20L0 20L0 24L1 24L1 22L3 22L3 20L4 20L4 19L5 19L5 21L7 21L7 22L6 22L6 23L5 23L5 24L6 24L6 25L8 25L8 26L5 26L5 25L4 25L4 23L3 23L3 24L2 24L2 26L1 26L1 25L0 25L0 26L1 26L1 27L0 27L0 31L2 31L2 32L5 32L5 31L8 31L8 32L6 32L6 33L7 33L7 34L5 34L5 36L4 36L4 35L3 35L3 34L2 34L2 33L0 33L0 36L2 36L2 37L0 37L0 41L1 41L1 42L0 42L0 43L2 43L2 44L0 44L0 48L5 48L5 47L7 47L7 46L8 46L8 45L9 45L9 44L8 44L8 43L11 43L11 44L10 44L10 45L12 45L12 43L13 43L13 45L14 45L14 43L16 43L16 44L18 44L18 45L17 45L17 46L18 46L18 47L17 47L17 50L18 50L18 51L20 51L20 52L17 52L17 51L15 51L15 50L13 50L13 48L14 48L14 49L15 49L15 48L14 48L14 47L13 47L13 46L11 46L11 47L13 47L13 48L10 48L10 47L8 47L8 48L10 48L10 49L11 49L11 53L10 53L10 51L9 51L9 49L8 49L8 51L9 51L9 52L8 52L8 57L9 57L9 54L11 54L11 57L14 57L14 56L15 56L15 57L16 57L16 56L17 56L17 57L20 57L20 56L19 56L19 55L20 55L20 54L19 54L19 53L20 53L20 52L21 52L21 53L22 53L22 54L21 54L21 55L23 55L23 56L24 56L24 57L26 57L26 56L27 56L27 57L29 57L29 56L30 56L30 57L31 57L31 56L35 56L35 57L39 57L39 56L41 56L41 57L44 57L44 54L45 54L45 53L47 53L47 55L48 55L48 56L50 56L50 57L52 57L52 55L51 55L51 53L52 53L52 54L53 54L53 57L54 57L54 56L55 56L55 57L56 57L56 56L55 56L55 54L54 54L54 53L55 53L55 51L56 51L56 53L57 53L57 51L56 51L56 50L57 50L57 48L56 48L56 46L57 46L57 45L56 45L56 44L55 44L55 43L56 43L56 42L57 42L57 41L56 41L56 42L55 42L55 39L57 39L57 36L56 36L56 35L53 35L53 34L52 34L52 33L54 33L54 34L57 34L57 32L56 32L56 30L57 30L57 28L55 28L55 27L56 27L56 26L57 26L57 25L56 25L56 22L57 22L57 21L56 21L56 22L53 22L53 21L51 21L51 20L52 20L52 19L53 19L53 20L56 20L56 16L57 16L57 15L56 15L56 14L57 14L57 11L56 11L56 8L55 8L55 10L54 10L54 11L51 11L51 10L50 10L50 8L49 8L49 6L48 6L48 7L47 7L47 5L48 5L48 0L46 0L46 1L47 1L47 2L44 2L44 3L41 3L41 2L43 2L43 0L41 0L41 1L40 1L40 0L39 0L39 1L38 1L38 0L37 0L37 1L38 1L38 2L39 2L39 3L38 3L38 4L37 4L37 3L36 3L36 0L35 0L35 1L33 1L33 0L29 0L29 1L25 1L25 0L23 0L23 1L22 1L22 0L21 0L21 1L20 1L20 0L18 0L18 1L17 1L17 2L16 2L16 1L14 1L14 0ZM9 1L9 2L10 2L10 3L11 3L11 4L12 4L12 2L14 2L14 4L13 4L13 5L12 5L12 6L11 6L11 7L10 7L10 5L9 5L9 7L10 7L10 8L9 8L9 9L10 9L10 10L11 10L11 9L10 9L10 8L12 8L12 9L13 9L13 10L15 10L15 13L12 13L12 14L9 14L9 15L12 15L12 14L15 14L15 13L16 13L16 17L15 17L15 16L14 16L14 18L13 18L13 17L12 17L12 16L10 16L10 18L9 18L9 19L6 19L6 20L10 20L10 21L8 21L8 22L10 22L10 24L11 24L11 25L9 25L9 27L10 27L10 26L12 26L12 27L11 27L11 29L13 29L13 26L14 26L14 27L15 27L15 26L18 26L18 27L16 27L16 28L15 28L15 29L16 29L16 31L14 31L14 30L13 30L13 31L12 31L12 30L10 30L10 28L9 28L9 30L10 30L10 31L9 31L9 32L8 32L8 33L9 33L9 34L8 34L8 35L6 35L6 36L5 36L5 38L4 38L4 37L3 37L3 41L2 41L2 40L1 40L1 41L2 41L2 42L3 42L3 41L5 41L5 40L7 40L7 41L6 41L6 42L7 42L7 43L6 43L6 44L5 44L5 42L4 42L4 45L2 45L2 46L1 46L1 47L2 47L2 46L3 46L3 47L5 47L5 46L7 46L7 45L6 45L6 44L7 44L7 43L8 43L8 42L7 42L7 41L8 41L8 38L9 38L9 39L10 39L10 40L13 40L13 41L12 41L12 42L11 42L11 43L12 43L12 42L14 42L14 40L15 40L15 41L16 41L16 42L17 42L17 43L18 43L18 42L19 42L19 43L20 43L20 44L21 44L21 45L19 45L19 48L20 48L20 50L21 50L21 51L23 51L23 52L22 52L22 53L24 53L24 54L23 54L23 55L24 55L24 56L25 56L25 54L26 54L26 55L27 55L27 56L29 56L29 55L30 55L30 56L31 56L31 54L32 54L32 53L33 53L33 55L35 55L35 56L36 56L36 54L35 54L35 53L34 53L34 52L35 52L35 50L36 50L36 52L37 52L37 53L38 53L38 54L37 54L37 56L39 56L39 55L38 55L38 54L40 54L40 53L43 53L43 54L44 54L44 53L45 53L45 52L46 52L46 51L47 51L47 53L48 53L48 50L47 50L47 49L48 49L48 48L49 48L49 47L48 47L48 48L47 48L47 47L46 47L46 48L45 48L45 46L47 46L47 45L48 45L48 44L50 44L50 45L52 45L52 46L50 46L50 47L55 47L55 46L56 46L56 45L55 45L55 44L54 44L54 45L52 45L52 44L53 44L53 43L54 43L54 42L53 42L53 41L54 41L54 40L53 40L53 41L51 41L51 42L50 42L50 43L49 43L49 42L48 42L48 41L49 41L49 38L48 38L48 37L50 37L50 39L53 39L53 35L52 35L52 34L50 34L50 32L49 32L49 31L48 31L48 30L47 30L47 29L48 29L48 28L47 28L47 29L46 29L46 30L47 30L47 31L46 31L46 32L43 32L43 30L41 30L41 31L39 31L39 32L38 32L38 30L39 30L39 29L43 29L43 26L45 26L45 28L44 28L44 31L45 31L45 28L46 28L46 27L48 27L48 26L47 26L47 25L48 25L48 24L49 24L49 23L50 23L50 22L51 22L51 21L49 21L49 22L47 22L47 21L48 21L48 20L49 20L49 19L52 19L52 18L55 18L55 17L53 17L53 15L54 15L54 13L55 13L55 14L56 14L56 12L54 12L54 13L53 13L53 12L52 12L52 13L53 13L53 15L52 15L52 16L51 16L51 15L50 15L50 14L51 14L51 12L50 12L50 10L47 10L47 9L49 9L49 8L45 8L45 7L46 7L46 5L47 5L47 3L44 3L44 6L43 6L43 8L44 8L44 9L43 9L43 10L40 10L40 9L42 9L42 8L41 8L41 7L42 7L42 6L41 6L41 5L40 5L40 4L41 4L41 3L39 3L39 4L38 4L38 6L37 6L37 7L36 7L36 5L37 5L37 4L36 4L36 5L35 5L35 2L33 2L33 1L32 1L32 2L31 2L31 3L32 3L32 4L31 4L31 8L32 8L32 10L29 10L29 9L28 9L28 10L29 10L29 12L28 12L28 13L26 13L26 12L27 12L27 11L26 11L26 12L25 12L25 10L24 10L24 12L23 12L23 13L22 13L22 12L20 12L20 10L21 10L21 11L22 11L22 10L21 10L21 9L23 9L23 8L24 8L24 6L23 6L23 5L24 5L24 4L23 4L23 3L26 3L26 4L25 4L25 8L26 8L26 4L30 4L30 3L29 3L29 2L22 2L22 1L21 1L21 2L20 2L20 1L18 1L18 2L17 2L17 3L15 3L15 2L14 2L14 1L12 1L12 2L11 2L11 1ZM18 2L18 4L17 4L17 6L16 6L16 7L15 7L15 6L14 6L14 5L13 5L13 6L12 6L12 7L13 7L13 6L14 6L14 7L15 7L15 8L16 8L16 9L15 9L15 10L16 10L16 9L17 9L17 10L18 10L18 11L17 11L17 12L16 12L16 13L17 13L17 16L18 16L18 17L17 17L17 18L15 18L15 19L17 19L17 18L18 18L18 19L20 19L20 17L22 17L22 19L21 19L21 20L22 20L22 19L23 19L23 20L24 20L24 21L23 21L23 22L24 22L24 21L25 21L25 22L26 22L26 23L25 23L25 24L24 24L24 23L22 23L22 21L21 21L21 23L22 23L22 24L24 24L24 25L22 25L22 26L21 26L21 27L20 27L20 25L21 25L21 24L18 24L18 23L20 23L20 22L19 22L19 21L20 21L20 20L17 20L17 21L16 21L16 20L15 20L15 21L16 21L16 22L14 22L14 21L10 21L10 22L11 22L11 24L12 24L12 23L16 23L16 24L17 24L17 25L18 25L18 26L19 26L19 29L18 29L18 28L16 28L16 29L18 29L18 31L17 31L17 34L19 34L19 33L21 33L21 34L20 34L20 35L22 35L22 36L23 36L23 37L24 37L24 38L21 38L21 37L19 37L19 36L18 36L18 37L17 37L17 39L18 39L18 37L19 37L19 38L20 38L20 39L19 39L19 40L16 40L16 39L15 39L15 38L16 38L16 37L13 37L13 35L12 35L12 34L13 34L13 32L12 32L12 34L11 34L11 33L10 33L10 37L9 37L9 35L8 35L8 37L9 37L9 38L10 38L10 39L11 39L11 37L13 37L13 38L12 38L12 39L13 39L13 38L14 38L14 39L15 39L15 40L16 40L16 41L19 41L19 42L20 42L20 41L19 41L19 40L21 40L21 39L24 39L24 40L25 40L25 37L26 37L26 39L27 39L27 41L26 41L26 42L27 42L27 43L25 43L25 44L27 44L27 45L26 45L26 47L25 47L25 45L24 45L24 44L23 44L23 42L25 42L25 41L23 41L23 42L22 42L22 43L21 43L21 44L22 44L22 45L21 45L21 47L23 47L23 49L21 49L21 50L26 50L26 52L24 52L24 53L27 53L27 54L30 54L30 53L31 53L31 49L32 49L32 50L33 50L33 49L36 49L36 50L38 50L38 52L39 52L39 51L40 51L40 52L41 52L41 50L42 50L42 51L43 51L43 53L44 53L44 52L45 52L45 51L44 51L44 48L43 48L43 47L44 47L44 46L43 46L43 45L44 45L44 43L43 43L43 41L44 41L44 42L45 42L45 43L46 43L46 44L45 44L45 45L47 45L47 43L48 43L48 42L47 42L47 43L46 43L46 42L45 42L45 41L47 41L47 39L48 39L48 38L47 38L47 39L46 39L46 38L45 38L45 37L44 37L44 36L45 36L45 35L44 35L44 33L43 33L43 32L41 32L41 33L39 33L39 34L40 34L40 35L38 35L38 33L37 33L37 32L35 32L35 30L33 30L33 32L35 32L35 34L33 34L33 35L31 35L31 34L32 34L32 31L31 31L31 29L32 29L32 28L31 28L31 26L32 26L32 27L33 27L33 28L35 28L35 29L38 29L38 28L42 28L42 26L43 26L43 25L44 25L44 20L45 20L45 18L44 18L44 15L45 15L45 17L46 17L46 16L47 16L47 18L46 18L46 19L47 19L47 18L50 18L50 17L49 17L49 16L50 16L50 15L49 15L49 14L50 14L50 12L49 12L49 11L47 11L47 10L46 10L46 9L44 9L44 11L43 11L43 13L40 13L40 12L41 12L41 11L40 11L40 10L39 10L39 11L37 11L37 10L38 10L38 9L39 9L39 8L40 8L40 7L41 7L41 6L40 6L40 5L39 5L39 6L38 6L38 7L37 7L37 8L35 8L35 5L33 5L33 4L34 4L34 3L33 3L33 2L32 2L32 3L33 3L33 4L32 4L32 5L33 5L33 6L32 6L32 7L33 7L33 9L34 9L34 8L35 8L35 9L37 9L37 10L36 10L36 11L37 11L37 12L35 12L35 13L37 13L37 14L38 14L38 15L39 15L39 16L38 16L38 17L37 17L37 16L35 16L35 14L32 14L32 12L31 12L31 13L30 13L30 14L29 14L29 13L28 13L28 14L29 14L29 16L28 16L28 15L27 15L27 16L28 16L28 17L27 17L27 18L28 18L28 19L27 19L27 20L28 20L28 19L29 19L29 21L25 21L25 20L26 20L26 14L25 14L25 13L23 13L23 14L22 14L22 13L21 13L21 15L23 15L23 16L25 16L25 17L22 17L22 16L20 16L20 13L19 13L19 10L20 10L20 9L19 9L19 8L22 8L22 7L23 7L23 6L22 6L22 7L21 7L21 5L23 5L23 4L19 4L19 2ZM15 4L15 5L16 5L16 4ZM18 4L18 6L17 6L17 7L16 7L16 8L19 8L19 7L20 7L20 5L19 5L19 4ZM45 4L45 5L46 5L46 4ZM27 5L27 8L30 8L30 5ZM18 6L18 7L19 7L19 6ZM28 6L28 7L29 7L29 6ZM33 6L33 7L34 7L34 6ZM39 6L39 7L40 7L40 6ZM44 6L44 7L45 7L45 6ZM13 8L13 9L14 9L14 8ZM51 8L51 9L52 9L52 10L53 10L53 9L54 9L54 8L53 8L53 9L52 9L52 8ZM32 10L32 11L33 11L33 10ZM45 10L45 11L44 11L44 13L43 13L43 14L40 14L40 13L38 13L38 14L39 14L39 15L41 15L41 16L39 16L39 17L38 17L38 18L37 18L37 17L35 17L35 16L33 16L33 15L32 15L32 17L33 17L33 18L30 18L30 19L36 19L36 20L38 20L38 22L37 22L37 24L40 24L40 25L38 25L38 26L37 26L37 25L33 25L33 24L32 24L32 23L35 23L35 21L34 21L34 20L32 20L32 21L31 21L31 22L30 22L30 23L29 23L29 24L25 24L25 25L26 25L26 26L25 26L25 27L24 27L24 26L22 26L22 27L21 27L21 28L22 28L22 29L19 29L19 32L21 32L21 33L22 33L22 34L23 34L23 36L24 36L24 34L23 34L23 33L25 33L25 34L26 34L26 33L27 33L27 35L26 35L26 36L27 36L27 37L28 37L28 38L27 38L27 39L28 39L28 40L32 40L32 41L27 41L27 42L32 42L32 43L33 43L33 44L31 44L31 43L29 43L29 45L27 45L27 47L26 47L26 48L25 48L25 47L24 47L24 49L26 49L26 48L27 48L27 47L28 47L28 48L30 48L30 47L29 47L29 45L32 45L32 46L31 46L31 47L32 47L32 46L35 46L35 48L36 48L36 47L37 47L37 45L36 45L36 46L35 46L35 45L34 45L34 43L37 43L37 42L35 42L35 40L38 40L38 42L39 42L39 41L42 41L42 40L44 40L44 41L45 41L45 40L44 40L44 39L45 39L45 38L44 38L44 37L43 37L43 36L44 36L44 35L43 35L43 34L42 34L42 35L43 35L43 36L40 36L40 37L38 37L38 35L37 35L37 34L35 34L35 36L37 36L37 37L38 37L38 38L37 38L37 39L35 39L35 37L33 37L33 36L32 36L32 37L33 37L33 39L29 39L29 38L31 38L31 37L29 37L29 36L30 36L30 34L29 34L29 33L31 33L31 31L29 31L29 33L28 33L28 31L27 31L27 32L24 32L24 30L23 30L23 28L25 28L25 29L26 29L26 28L25 28L25 27L26 27L26 26L27 26L27 25L28 25L28 26L29 26L29 25L30 25L30 24L32 24L32 26L33 26L33 27L34 27L34 26L36 26L36 27L35 27L35 28L37 28L37 27L41 27L41 26L40 26L40 25L41 25L41 24L40 24L40 22L39 22L39 21L41 21L41 20L38 20L38 19L39 19L39 17L41 17L41 16L42 16L42 17L43 17L43 16L42 16L42 15L44 15L44 14L47 14L47 13L49 13L49 12L45 12L45 11L46 11L46 10ZM6 11L6 12L4 12L4 13L6 13L6 14L4 14L4 15L5 15L5 16L8 16L8 13L9 13L9 12L7 12L7 11ZM39 11L39 12L40 12L40 11ZM6 12L6 13L7 13L7 12ZM17 12L17 13L18 13L18 12ZM33 12L33 13L34 13L34 12ZM2 13L2 14L3 14L3 13ZM6 14L6 15L7 15L7 14ZM30 14L30 15L31 15L31 14ZM18 15L18 16L19 16L19 17L18 17L18 18L19 18L19 17L20 17L20 16L19 16L19 15ZM48 15L48 16L49 16L49 15ZM5 17L5 18L7 18L7 17ZM10 18L10 19L11 19L11 20L14 20L14 19L12 19L12 18ZM23 18L23 19L24 19L24 18ZM41 18L41 19L42 19L42 18ZM43 18L43 20L42 20L42 21L43 21L43 20L44 20L44 18ZM2 19L2 20L1 20L1 21L2 21L2 20L3 20L3 19ZM17 21L17 22L18 22L18 21ZM45 21L45 22L46 22L46 23L47 23L47 22L46 22L46 21ZM38 22L38 23L39 23L39 22ZM6 23L6 24L8 24L8 23ZM51 23L51 24L50 24L50 26L52 26L52 25L55 25L55 26L56 26L56 25L55 25L55 24L53 24L53 23ZM14 24L14 25L15 25L15 24ZM42 24L42 25L43 25L43 24ZM45 24L45 25L46 25L46 24ZM3 25L3 27L2 27L2 28L1 28L1 29L2 29L2 30L3 30L3 31L4 31L4 25ZM12 25L12 26L13 26L13 25ZM53 26L53 27L54 27L54 26ZM5 27L5 30L8 30L8 27ZM27 27L27 30L30 30L30 27ZM49 27L49 30L52 30L52 27ZM2 28L2 29L3 29L3 28ZM6 28L6 29L7 29L7 28ZM28 28L28 29L29 29L29 28ZM50 28L50 29L51 29L51 28ZM54 28L54 29L55 29L55 28ZM10 31L10 32L11 32L11 31ZM21 31L21 32L23 32L23 31ZM47 31L47 32L46 32L46 33L47 33L47 32L48 32L48 33L49 33L49 32L48 32L48 31ZM52 31L52 32L51 32L51 33L52 33L52 32L53 32L53 31ZM14 32L14 36L17 36L17 35L16 35L16 34L15 34L15 32ZM54 32L54 33L56 33L56 32ZM48 34L48 35L47 35L47 36L48 36L48 35L50 35L50 37L52 37L52 35L50 35L50 34ZM2 35L2 36L3 36L3 35ZM6 36L6 37L7 37L7 36ZM40 37L40 38L43 38L43 37ZM54 37L54 38L55 38L55 37ZM1 38L1 39L2 39L2 38ZM5 38L5 39L4 39L4 40L5 40L5 39L7 39L7 38ZM38 38L38 40L41 40L41 39L39 39L39 38ZM33 39L33 40L35 40L35 39ZM9 41L9 42L10 42L10 41ZM32 41L32 42L33 42L33 43L34 43L34 42L33 42L33 41ZM41 42L41 44L40 44L40 43L39 43L39 45L38 45L38 46L39 46L39 47L38 47L38 48L37 48L37 49L38 49L38 50L41 50L41 48L42 48L42 49L43 49L43 48L42 48L42 47L43 47L43 46L41 46L41 48L39 48L39 47L40 47L40 46L39 46L39 45L41 45L41 44L42 44L42 42ZM51 42L51 43L50 43L50 44L51 44L51 43L53 43L53 42ZM27 43L27 44L28 44L28 43ZM4 45L4 46L5 46L5 45ZM22 45L22 46L24 46L24 45ZM33 47L33 48L32 48L32 49L33 49L33 48L34 48L34 47ZM6 48L6 49L7 49L7 48ZM38 48L38 49L39 49L39 48ZM46 48L46 49L47 49L47 48ZM55 48L55 50L54 50L54 51L55 51L55 50L56 50L56 48ZM27 49L27 52L30 52L30 49ZM49 49L49 52L52 52L52 49ZM12 50L12 51L13 51L13 50ZM28 50L28 51L29 51L29 50ZM50 50L50 51L51 51L51 50ZM14 51L14 52L12 52L12 54L13 54L13 53L14 53L14 54L16 54L16 53L17 53L17 52L16 52L16 53L14 53L14 52L15 52L15 51ZM32 51L32 52L33 52L33 51ZM53 52L53 53L54 53L54 52ZM17 54L17 55L19 55L19 54ZM41 54L41 55L42 55L42 56L43 56L43 55L42 55L42 54ZM12 55L12 56L14 56L14 55ZM15 55L15 56L16 56L16 55ZM50 55L50 56L51 56L51 55ZM46 56L46 57L47 57L47 56ZM0 0L0 7L7 7L7 0ZM1 1L1 6L6 6L6 1ZM2 2L2 5L5 5L5 2ZM50 0L50 7L57 7L57 0ZM51 1L51 6L56 6L56 1ZM52 2L52 5L55 5L55 2ZM0 50L0 57L7 57L7 50ZM1 51L1 56L6 56L6 51ZM2 52L2 55L5 55L5 52Z" fill="#000000"/></g></g></svg>
