<?xml version="1.0" encoding="UTF-8"?>
<svg xmlns="http://www.w3.org/2000/svg" version="1.1" width="300" height="300" viewBox="0 0 300 300"><rect x="0" y="0" width="300" height="300" fill="#fefefe"/><g transform="scale(4.615)"><g transform="translate(4,4)"><path fill-rule="evenodd" d="M9 0L9 1L8 1L8 2L10 2L10 0ZM18 0L18 2L17 2L17 1L16 1L16 2L15 2L15 1L14 1L14 2L13 2L13 1L12 1L12 2L11 2L11 3L8 3L8 4L9 4L9 5L8 5L8 7L9 7L9 5L10 5L10 7L11 7L11 5L12 5L12 9L11 9L11 8L10 8L10 11L12 11L12 13L10 13L10 12L9 12L9 11L8 11L8 10L9 10L9 8L6 8L6 9L5 9L5 8L0 8L0 14L1 14L1 13L3 13L3 12L4 12L4 14L5 14L5 15L3 15L3 16L2 16L2 18L3 18L3 19L2 19L2 20L0 20L0 21L1 21L1 22L0 22L0 26L1 26L1 25L2 25L2 26L3 26L3 27L0 27L0 30L1 30L1 31L0 31L0 33L1 33L1 34L0 34L0 38L1 38L1 37L2 37L2 38L4 38L4 39L0 39L0 40L1 40L1 41L0 41L0 45L2 45L2 47L1 47L1 46L0 46L0 48L5 48L5 47L7 47L7 48L6 48L6 49L8 49L8 51L9 51L9 52L8 52L8 57L9 57L9 56L11 56L11 57L16 57L16 56L17 56L17 57L21 57L21 56L19 56L19 55L20 55L20 54L19 54L19 53L20 53L20 52L22 52L22 51L19 51L19 50L20 50L20 49L21 49L21 50L25 50L25 49L24 49L24 48L25 48L25 44L28 44L28 45L26 45L26 47L27 47L27 46L28 46L28 45L30 45L30 46L29 46L29 47L28 47L28 48L26 48L26 52L24 52L24 53L23 53L23 54L22 54L22 53L21 53L21 54L22 54L22 55L23 55L23 56L24 56L24 55L23 55L23 54L24 54L24 53L26 53L26 54L25 54L25 55L26 55L26 54L30 54L30 53L31 53L31 48L33 48L33 50L34 50L34 51L32 51L32 52L33 52L33 53L32 53L32 54L31 54L31 56L30 56L30 55L29 55L29 56L27 56L27 57L29 57L29 56L30 56L30 57L31 57L31 56L35 56L35 57L39 57L39 56L37 56L37 54L38 54L38 55L41 55L41 57L42 57L42 55L44 55L44 54L45 54L45 55L46 55L46 54L45 54L45 53L44 53L44 52L45 52L45 51L44 51L44 50L45 50L45 49L44 49L44 48L43 48L43 47L44 47L44 46L45 46L45 47L47 47L47 48L48 48L48 49L47 49L47 50L48 50L48 54L47 54L47 55L49 55L49 56L48 56L48 57L49 57L49 56L50 56L50 57L52 57L52 55L51 55L51 53L52 53L52 54L53 54L53 57L54 57L54 56L55 56L55 57L56 57L56 56L55 56L55 53L57 53L57 51L56 51L56 52L55 52L55 51L54 51L54 50L57 50L57 48L56 48L56 46L57 46L57 45L56 45L56 44L57 44L57 43L56 43L56 41L55 41L55 39L57 39L57 37L55 37L55 36L57 36L57 35L56 35L56 34L57 34L57 32L56 32L56 30L57 30L57 29L56 29L56 26L57 26L57 25L56 25L56 22L57 22L57 21L56 21L56 22L55 22L55 23L53 23L53 21L51 21L51 20L52 20L52 19L53 19L53 20L55 20L55 19L56 19L56 18L57 18L57 17L56 17L56 16L57 16L57 15L56 15L56 14L57 14L57 11L56 11L56 8L55 8L55 10L54 10L54 11L50 11L50 12L49 12L49 10L50 10L50 8L49 8L49 6L48 6L48 8L47 8L47 5L48 5L48 0L46 0L46 1L45 1L45 2L44 2L44 3L43 3L43 4L40 4L40 5L39 5L39 6L38 6L38 4L37 4L37 3L38 3L38 2L39 2L39 3L41 3L41 2L43 2L43 0L41 0L41 1L40 1L40 0L39 0L39 1L38 1L38 0L37 0L37 1L38 1L38 2L37 2L37 3L36 3L36 0L35 0L35 1L32 1L32 3L30 3L30 2L31 2L31 0L27 0L27 1L26 1L26 0L23 0L23 2L22 2L22 0L21 0L21 1L20 1L20 0ZM19 1L19 2L18 2L18 3L19 3L19 4L17 4L17 2L16 2L16 3L15 3L15 2L14 2L14 4L13 4L13 3L12 3L12 5L13 5L13 8L14 8L14 9L13 9L13 10L12 10L12 11L13 11L13 12L14 12L14 11L13 11L13 10L15 10L15 13L12 13L12 14L10 14L10 15L13 15L13 16L10 16L10 17L8 17L8 15L9 15L9 14L8 14L8 13L6 13L6 12L8 12L8 11L6 11L6 10L8 10L8 9L6 9L6 10L5 10L5 9L4 9L4 10L3 10L3 9L2 9L2 10L1 10L1 12L2 12L2 10L3 10L3 11L4 11L4 12L5 12L5 14L8 14L8 15L6 15L6 16L7 16L7 17L6 17L6 18L10 18L10 17L13 17L13 18L11 18L11 20L12 20L12 19L14 19L14 20L13 20L13 21L14 21L14 22L13 22L13 23L14 23L14 24L11 24L11 25L13 25L13 26L12 26L12 27L13 27L13 26L14 26L14 27L15 27L15 29L14 29L14 30L15 30L15 29L16 29L16 31L15 31L15 32L12 32L12 33L11 33L11 32L10 32L10 31L8 31L8 33L9 33L9 32L10 32L10 35L9 35L9 37L4 37L4 38L5 38L5 40L2 40L2 41L1 41L1 42L2 42L2 45L4 45L4 46L3 46L3 47L5 47L5 46L7 46L7 47L8 47L8 48L9 48L9 51L10 51L10 52L9 52L9 55L11 55L11 54L12 54L12 55L13 55L13 56L16 56L16 55L15 55L15 54L16 54L16 53L17 53L17 50L19 50L19 49L20 49L20 48L21 48L21 49L23 49L23 47L24 47L24 46L23 46L23 45L22 45L22 44L20 44L20 42L21 42L21 43L22 43L22 42L23 42L23 43L24 43L24 42L23 42L23 41L25 41L25 43L27 43L27 42L32 42L32 43L33 43L33 44L31 44L31 45L32 45L32 47L33 47L33 46L35 46L35 47L34 47L34 48L36 48L36 47L37 47L37 45L36 45L36 46L35 46L35 45L34 45L34 43L35 43L35 44L36 44L36 43L37 43L37 42L35 42L35 40L38 40L38 42L39 42L39 45L38 45L38 46L39 46L39 47L38 47L38 48L37 48L37 49L38 49L38 50L36 50L36 49L34 49L34 50L36 50L36 52L37 52L37 53L38 53L38 54L40 54L40 53L42 53L42 50L41 50L41 48L42 48L42 49L43 49L43 50L44 50L44 49L43 49L43 48L42 48L42 47L43 47L43 46L41 46L41 44L42 44L42 42L41 42L41 40L42 40L42 39L45 39L45 40L43 40L43 41L44 41L44 42L43 42L43 44L44 44L44 45L45 45L45 46L47 46L47 47L48 47L48 48L51 48L51 46L53 46L53 47L52 47L52 48L53 48L53 47L54 47L54 46L56 46L56 45L55 45L55 44L54 44L54 46L53 46L53 43L54 43L54 42L53 42L53 41L51 41L51 42L50 42L50 43L48 43L48 44L47 44L47 45L45 45L45 44L46 44L46 43L47 43L47 42L48 42L48 41L49 41L49 39L51 39L51 40L53 40L53 39L52 39L52 38L53 38L53 35L55 35L55 34L54 34L54 33L56 33L56 32L53 32L53 33L52 33L52 32L51 32L51 31L48 31L48 27L47 27L47 25L48 25L48 24L49 24L49 23L50 23L50 26L52 26L52 25L55 25L55 24L51 24L51 23L50 23L50 22L51 22L51 21L49 21L49 20L48 20L48 21L47 21L47 16L45 16L45 15L44 15L44 14L47 14L47 13L49 13L49 12L45 12L45 11L46 11L46 10L48 10L48 9L49 9L49 8L48 8L48 9L47 9L47 8L44 8L44 6L45 6L45 7L46 7L46 5L47 5L47 3L44 3L44 6L43 6L43 5L40 5L40 6L39 6L39 7L40 7L40 8L38 8L38 10L37 10L37 9L35 9L35 8L37 8L37 7L38 7L38 6L37 6L37 7L36 7L36 5L37 5L37 4L36 4L36 5L35 5L35 2L34 2L34 3L32 3L32 4L31 4L31 8L32 8L32 10L31 10L31 11L30 11L30 10L29 10L29 9L27 9L27 10L28 10L28 11L29 11L29 12L28 12L28 13L27 13L27 15L26 15L26 12L27 12L27 11L26 11L26 12L25 12L25 11L23 11L23 12L24 12L24 13L22 13L22 12L20 12L20 10L21 10L21 11L22 11L22 10L23 10L23 8L24 8L24 6L23 6L23 5L24 5L24 4L23 4L23 3L26 3L26 4L25 4L25 8L26 8L26 4L29 4L29 3L28 3L28 2L26 2L26 1L25 1L25 2L23 2L23 3L22 3L22 2L20 2L20 1ZM29 1L29 2L30 2L30 1ZM46 1L46 2L47 2L47 1ZM19 2L19 3L20 3L20 2ZM15 4L15 5L16 5L16 4ZM19 4L19 5L20 5L20 7L19 7L19 6L18 6L18 7L17 7L17 6L16 6L16 7L15 7L15 6L14 6L14 7L15 7L15 8L16 8L16 9L15 9L15 10L16 10L16 9L17 9L17 10L18 10L18 11L17 11L17 12L16 12L16 13L15 13L15 14L13 14L13 15L14 15L14 16L13 16L13 17L14 17L14 16L16 16L16 17L17 17L17 18L18 18L18 17L19 17L19 18L20 18L20 19L21 19L21 20L24 20L24 21L23 21L23 22L22 22L22 21L21 21L21 23L23 23L23 25L22 25L22 26L20 26L20 25L21 25L21 24L20 24L20 25L19 25L19 24L17 24L17 22L18 22L18 23L20 23L20 22L18 22L18 21L20 21L20 20L18 20L18 19L17 19L17 21L16 21L16 20L15 20L15 21L16 21L16 22L15 22L15 23L16 23L16 24L14 24L14 25L16 25L16 24L17 24L17 25L18 25L18 26L16 26L16 27L18 27L18 26L20 26L20 27L19 27L19 29L18 29L18 28L16 28L16 29L18 29L18 31L17 31L17 32L15 32L15 33L12 33L12 34L11 34L11 36L10 36L10 37L9 37L9 40L10 40L10 41L11 41L11 40L13 40L13 41L12 41L12 42L11 42L11 43L10 43L10 42L9 42L9 41L8 41L8 40L6 40L6 41L5 41L5 42L4 42L4 41L3 41L3 42L4 42L4 44L6 44L6 45L7 45L7 46L9 46L9 47L10 47L10 48L11 48L11 49L12 49L12 48L14 48L14 47L15 47L15 49L16 49L16 47L15 47L15 44L14 44L14 43L16 43L16 44L18 44L18 45L17 45L17 49L19 49L19 48L20 48L20 47L23 47L23 46L22 46L22 45L21 45L21 46L20 46L20 45L19 45L19 42L20 42L20 41L19 41L19 40L22 40L22 39L24 39L24 40L25 40L25 37L26 37L26 40L27 40L27 41L26 41L26 42L27 42L27 41L29 41L29 40L28 40L28 39L27 39L27 38L28 38L28 37L27 37L27 35L26 35L26 34L27 34L27 33L26 33L26 32L28 32L28 33L29 33L29 34L30 34L30 36L29 36L29 37L31 37L31 38L29 38L29 39L33 39L33 40L35 40L35 39L37 39L37 38L38 38L38 37L37 37L37 36L38 36L38 33L37 33L37 32L35 32L35 31L36 31L36 30L33 30L33 32L34 32L34 33L33 33L33 34L34 34L34 36L35 36L35 38L34 38L34 37L32 37L32 36L33 36L33 35L32 35L32 34L31 34L31 33L32 33L32 31L31 31L31 29L32 29L32 28L31 28L31 26L32 26L32 27L33 27L33 28L35 28L35 29L38 29L38 28L39 28L39 27L37 27L37 28L36 28L36 26L34 26L34 27L33 27L33 26L32 26L32 24L33 24L33 25L37 25L37 26L38 26L38 25L40 25L40 26L41 26L41 28L42 28L42 26L43 26L43 25L44 25L44 26L45 26L45 27L43 27L43 29L41 29L41 30L44 30L44 31L43 31L43 32L41 32L41 33L39 33L39 34L40 34L40 35L39 35L39 37L40 37L40 38L41 38L41 39L38 39L38 40L41 40L41 39L42 39L42 38L43 38L43 37L44 37L44 38L45 38L45 39L46 39L46 40L47 40L47 39L49 39L49 38L50 38L50 36L51 36L51 37L52 37L52 35L53 35L53 34L52 34L52 33L51 33L51 32L50 32L50 34L49 34L49 35L50 35L50 36L49 36L49 38L48 38L48 37L47 37L47 39L46 39L46 38L45 38L45 37L44 37L44 36L45 36L45 35L44 35L44 33L43 33L43 32L45 32L45 33L47 33L47 32L48 32L48 33L49 33L49 32L48 32L48 31L47 31L47 30L46 30L46 29L47 29L47 27L46 27L46 26L45 26L45 25L44 25L44 24L43 24L43 23L44 23L44 20L45 20L45 19L46 19L46 18L44 18L44 15L42 15L42 16L41 16L41 15L40 15L40 14L38 14L38 13L40 13L40 12L41 12L41 11L40 11L40 10L43 10L43 13L41 13L41 14L44 14L44 11L45 11L45 10L46 10L46 9L45 9L45 10L44 10L44 8L43 8L43 9L40 9L40 10L39 10L39 11L37 11L37 10L36 10L36 12L35 12L35 13L37 13L37 14L38 14L38 15L39 15L39 16L38 16L38 17L37 17L37 16L35 16L35 14L33 14L33 13L34 13L34 12L33 12L33 10L32 10L32 12L31 12L31 13L30 13L30 14L29 14L29 13L28 13L28 14L29 14L29 16L28 16L28 15L27 15L27 16L28 16L28 17L26 17L26 18L28 18L28 19L30 19L30 18L31 18L31 21L25 21L25 20L26 20L26 19L25 19L25 17L22 17L22 16L21 16L21 15L23 15L23 16L26 16L26 15L25 15L25 13L24 13L24 15L23 15L23 14L22 14L22 13L21 13L21 15L20 15L20 12L19 12L19 10L20 10L20 8L21 8L21 5L22 5L22 4ZM32 4L32 5L34 5L34 7L33 7L33 6L32 6L32 7L33 7L33 9L34 9L34 8L35 8L35 5L34 5L34 4ZM45 4L45 5L46 5L46 4ZM27 5L27 8L30 8L30 5ZM22 6L22 8L23 8L23 6ZM28 6L28 7L29 7L29 6ZM40 6L40 7L41 7L41 6ZM42 6L42 7L43 7L43 6ZM16 7L16 8L17 8L17 9L18 9L18 10L19 10L19 9L18 9L18 8L17 8L17 7ZM51 8L51 9L52 9L52 8ZM53 8L53 9L54 9L54 8ZM21 9L21 10L22 10L22 9ZM5 11L5 12L6 12L6 11ZM39 11L39 12L40 12L40 11ZM55 11L55 12L54 12L54 13L53 13L53 12L52 12L52 13L53 13L53 15L52 15L52 16L51 16L51 15L50 15L50 14L51 14L51 12L50 12L50 14L49 14L49 15L48 15L48 16L49 16L49 15L50 15L50 16L51 16L51 17L50 17L50 18L48 18L48 19L52 19L52 17L53 17L53 18L55 18L55 17L53 17L53 15L54 15L54 13L55 13L55 14L56 14L56 11ZM17 12L17 13L16 13L16 16L17 16L17 17L18 17L18 16L20 16L20 18L22 18L22 19L24 19L24 18L22 18L22 17L21 17L21 16L20 16L20 15L18 15L18 16L17 16L17 13L18 13L18 12ZM32 12L32 13L31 13L31 14L30 14L30 15L31 15L31 14L32 14L32 13L33 13L33 12ZM0 15L0 16L1 16L1 15ZM32 15L32 17L31 17L31 18L32 18L32 19L33 19L33 20L32 20L32 21L31 21L31 23L29 23L29 24L28 24L28 23L27 23L27 24L25 24L25 23L26 23L26 22L25 22L25 21L24 21L24 22L23 22L23 23L24 23L24 24L25 24L25 25L26 25L26 26L22 26L22 27L21 27L21 28L22 28L22 29L20 29L20 31L25 31L25 30L23 30L23 29L26 29L26 28L25 28L25 27L26 27L26 26L27 26L27 24L28 24L28 26L30 26L30 25L29 25L29 24L32 24L32 23L33 23L33 22L34 22L34 23L35 23L35 19L36 19L36 20L37 20L37 21L38 21L38 22L37 22L37 24L40 24L40 25L41 25L41 26L42 26L42 25L43 25L43 24L42 24L42 23L43 23L43 22L41 22L41 24L40 24L40 22L39 22L39 21L43 21L43 20L44 20L44 18L43 18L43 19L42 19L42 18L41 18L41 20L39 20L39 21L38 21L38 19L39 19L39 17L41 17L41 16L39 16L39 17L38 17L38 18L37 18L37 17L35 17L35 16L33 16L33 15ZM42 16L42 17L43 17L43 16ZM0 17L0 18L1 18L1 17ZM3 17L3 18L4 18L4 17ZM15 18L15 19L16 19L16 18ZM33 18L33 19L34 19L34 18ZM5 19L5 20L2 20L2 22L3 22L3 23L2 23L2 25L4 25L4 26L5 26L5 24L3 24L3 23L4 23L4 22L5 22L5 23L6 23L6 24L7 24L7 25L6 25L6 26L7 26L7 25L8 25L8 24L7 24L7 23L6 23L6 22L7 22L7 21L9 21L9 19ZM5 20L5 21L7 21L7 20ZM33 20L33 21L34 21L34 20ZM45 21L45 22L46 22L46 23L47 23L47 24L48 24L48 23L47 23L47 22L46 22L46 21ZM48 21L48 22L49 22L49 21ZM8 22L8 23L9 23L9 25L10 25L10 22ZM41 24L41 25L42 25L42 24ZM9 26L9 28L10 28L10 29L11 29L11 31L12 31L12 30L13 30L13 28L10 28L10 26ZM53 26L53 27L54 27L54 26ZM5 27L5 30L8 30L8 27ZM27 27L27 30L30 30L30 27ZM45 27L45 28L44 28L44 30L45 30L45 28L46 28L46 27ZM49 27L49 30L52 30L52 27ZM2 28L2 29L1 29L1 30L2 30L2 31L1 31L1 33L2 33L2 35L1 35L1 36L3 36L3 34L4 34L4 36L5 36L5 33L6 33L6 34L7 34L7 35L6 35L6 36L7 36L7 35L8 35L8 34L7 34L7 33L6 33L6 32L7 32L7 31L6 31L6 32L5 32L5 33L2 33L2 31L3 31L3 32L4 32L4 31L3 31L3 30L4 30L4 29L3 29L3 28ZM6 28L6 29L7 29L7 28ZM28 28L28 29L29 29L29 28ZM50 28L50 29L51 29L51 28ZM54 28L54 29L55 29L55 28ZM2 29L2 30L3 30L3 29ZM39 29L39 30L38 30L38 32L39 32L39 30L40 30L40 29ZM53 30L53 31L54 31L54 30ZM28 31L28 32L29 32L29 33L31 33L31 31L30 31L30 32L29 32L29 31ZM20 32L20 34L19 34L19 33L18 33L18 34L19 34L19 35L18 35L18 36L19 36L19 37L18 37L18 39L20 39L20 38L19 38L19 37L21 37L21 38L24 38L24 37L23 37L23 36L24 36L24 34L23 34L23 33L25 33L25 34L26 34L26 33L25 33L25 32ZM15 33L15 36L14 36L14 35L13 35L13 36L12 36L12 37L13 37L13 39L16 39L16 40L15 40L15 42L17 42L17 43L18 43L18 42L19 42L19 41L18 41L18 42L17 42L17 35L16 35L16 34L17 34L17 33ZM21 33L21 36L23 36L23 34L22 34L22 33ZM34 33L34 34L35 34L35 36L37 36L37 34L35 34L35 33ZM42 34L42 35L41 35L41 36L40 36L40 37L41 37L41 38L42 38L42 37L43 37L43 36L44 36L44 35L43 35L43 34ZM50 34L50 35L52 35L52 34ZM19 35L19 36L20 36L20 35ZM42 35L42 36L41 36L41 37L42 37L42 36L43 36L43 35ZM10 37L10 40L11 40L11 37ZM14 37L14 38L16 38L16 37ZM54 37L54 38L55 38L55 37ZM6 38L6 39L8 39L8 38ZM33 38L33 39L34 39L34 38ZM30 40L30 41L32 41L32 42L33 42L33 43L34 43L34 42L33 42L33 41L32 41L32 40ZM6 41L6 42L7 42L7 43L6 43L6 44L9 44L9 45L10 45L10 47L11 47L11 48L12 48L12 46L14 46L14 44L13 44L13 42L14 42L14 41L13 41L13 42L12 42L12 44L11 44L11 45L10 45L10 44L9 44L9 43L8 43L8 41ZM21 41L21 42L22 42L22 41ZM39 41L39 42L40 42L40 41ZM51 42L51 43L50 43L50 44L49 44L49 45L50 45L50 46L48 46L48 47L50 47L50 46L51 46L51 45L52 45L52 44L51 44L51 43L53 43L53 42ZM29 43L29 44L30 44L30 43ZM50 44L50 45L51 45L51 44ZM19 46L19 47L18 47L18 48L19 48L19 47L20 47L20 46ZM40 46L40 47L39 47L39 48L38 48L38 49L39 49L39 48L41 48L41 46ZM55 48L55 49L56 49L56 48ZM13 49L13 51L14 51L14 52L15 52L15 53L16 53L16 51L14 51L14 49ZM27 49L27 52L30 52L30 49ZM49 49L49 52L52 52L52 49ZM10 50L10 51L11 51L11 52L10 52L10 54L11 54L11 52L12 52L12 50ZM28 50L28 51L29 51L29 50ZM38 50L38 51L37 51L37 52L38 52L38 53L39 53L39 52L38 52L38 51L40 51L40 52L41 52L41 50ZM50 50L50 51L51 51L51 50ZM18 51L18 52L19 52L19 51ZM34 51L34 52L35 52L35 51ZM46 51L46 52L47 52L47 51ZM53 52L53 54L54 54L54 52ZM12 53L12 54L13 54L13 55L14 55L14 53ZM33 53L33 54L34 54L34 55L35 55L35 56L36 56L36 54L35 54L35 53ZM43 53L43 54L44 54L44 53ZM17 54L17 55L19 55L19 54ZM41 54L41 55L42 55L42 54ZM50 55L50 56L51 56L51 55ZM25 56L25 57L26 57L26 56ZM43 56L43 57L44 57L44 56ZM45 56L45 57L46 57L46 56ZM0 0L0 7L7 7L7 0ZM1 1L1 6L6 6L6 1ZM2 2L2 5L5 5L5 2ZM50 0L50 7L57 7L57 0ZM51 1L51 6L56 6L56 1ZM52 2L52 5L55 5L55 2ZM0 50L0 57L7 57L7 50ZM1 51L1 56L6 56L6 51ZM2 52L2 55L5 55L5 52Z" fill="#000000"/></g></g></svg>
