<?xml version="1.0" encoding="UTF-8"?>
<svg xmlns="http://www.w3.org/2000/svg" version="1.1" width="300" height="300" viewBox="0 0 300 300"><rect x="0" y="0" width="300" height="300" fill="#fefefe"/><g transform="scale(4.615)"><g transform="translate(4,4)"><path fill-rule="evenodd" d="M12 0L12 1L8 1L8 2L10 2L10 3L11 3L11 2L12 2L12 3L13 3L13 4L14 4L14 2L15 2L15 3L16 3L16 2L17 2L17 3L18 3L18 4L17 4L17 6L16 6L16 7L15 7L15 5L16 5L16 4L15 4L15 5L14 5L14 8L12 8L12 7L13 7L13 6L12 6L12 7L11 7L11 6L10 6L10 7L9 7L9 5L8 5L8 7L9 7L9 8L6 8L6 9L5 9L5 8L0 8L0 9L1 9L1 11L0 11L0 12L1 12L1 13L0 13L0 15L1 15L1 14L2 14L2 13L3 13L3 14L4 14L4 15L5 15L5 14L4 14L4 12L5 12L5 13L7 13L7 14L6 14L6 15L7 15L7 14L9 14L9 16L4 16L4 18L6 18L6 19L8 19L8 20L6 20L6 21L5 21L5 19L3 19L3 17L1 17L1 16L0 16L0 18L1 18L1 20L2 20L2 21L0 21L0 23L1 23L1 24L2 24L2 23L5 23L5 24L6 24L6 25L5 25L5 26L4 26L4 24L3 24L3 27L2 27L2 28L3 28L3 27L4 27L4 29L0 29L0 30L2 30L2 31L3 31L3 32L0 32L0 33L1 33L1 36L0 36L0 37L1 37L1 36L4 36L4 38L3 38L3 40L1 40L1 38L0 38L0 42L1 42L1 43L0 43L0 44L3 44L3 43L2 43L2 41L4 41L4 40L5 40L5 42L6 42L6 43L7 43L7 44L6 44L6 45L7 45L7 44L8 44L8 46L9 46L9 48L8 48L8 51L9 51L9 50L10 50L10 52L8 52L8 57L9 57L9 56L10 56L10 57L14 57L14 56L13 56L13 55L14 55L14 54L15 54L15 55L16 55L16 56L15 56L15 57L16 57L16 56L17 56L17 57L19 57L19 56L18 56L18 55L20 55L20 54L19 54L19 53L20 53L20 52L21 52L21 51L20 51L20 49L19 49L19 48L20 48L20 45L19 45L19 44L20 44L20 43L19 43L19 42L20 42L20 41L19 41L19 40L21 40L21 39L22 39L22 38L23 38L23 39L24 39L24 40L23 40L23 42L22 42L22 41L21 41L21 42L22 42L22 43L21 43L21 44L22 44L22 45L21 45L21 47L23 47L23 46L25 46L25 45L24 45L24 44L23 44L23 43L25 43L25 44L27 44L27 45L26 45L26 47L24 47L24 48L23 48L23 49L21 49L21 50L26 50L26 52L24 52L24 53L23 53L23 54L22 54L22 53L21 53L21 54L22 54L22 56L23 56L23 57L26 57L26 56L27 56L27 57L29 57L29 56L30 56L30 57L31 57L31 56L35 56L35 57L39 57L39 56L37 56L37 55L41 55L41 57L44 57L44 54L45 54L45 55L46 55L46 54L45 54L45 53L47 53L47 50L48 50L48 54L47 54L47 55L48 55L48 56L50 56L50 57L52 57L52 55L51 55L51 53L52 53L52 54L53 54L53 55L54 55L54 56L53 56L53 57L54 57L54 56L55 56L55 57L56 57L56 56L55 56L55 53L56 53L56 50L55 50L55 49L54 49L54 48L56 48L56 49L57 49L57 48L56 48L56 46L57 46L57 44L56 44L56 41L55 41L55 39L57 39L57 37L56 37L56 36L55 36L55 35L56 35L56 34L55 34L55 33L54 33L54 32L56 32L56 33L57 33L57 32L56 32L56 30L57 30L57 29L56 29L56 27L55 27L55 26L57 26L57 25L56 25L56 22L57 22L57 19L56 19L56 16L57 16L57 15L56 15L56 14L57 14L57 13L56 13L56 10L54 10L54 11L53 11L53 9L54 9L54 8L53 8L53 9L52 9L52 8L51 8L51 10L50 10L50 8L46 8L46 7L47 7L47 5L48 5L48 0L46 0L46 1L45 1L45 2L44 2L44 3L43 3L43 4L40 4L40 5L39 5L39 6L38 6L38 8L35 8L35 5L36 5L36 7L37 7L37 5L38 5L38 4L39 4L39 3L42 3L42 2L43 2L43 0L41 0L41 1L40 1L40 0L39 0L39 1L38 1L38 0L37 0L37 1L38 1L38 4L37 4L37 3L36 3L36 0L35 0L35 1L33 1L33 2L32 2L32 1L31 1L31 0L28 0L28 1L26 1L26 0L23 0L23 2L21 2L21 1L22 1L22 0L21 0L21 1L18 1L18 0L17 0L17 1L16 1L16 2L15 2L15 0L14 0L14 2L13 2L13 0ZM17 1L17 2L18 2L18 1ZM29 1L29 2L30 2L30 1ZM46 1L46 2L47 2L47 1ZM19 2L19 4L18 4L18 6L17 6L17 7L16 7L16 8L17 8L17 7L18 7L18 6L19 6L19 7L20 7L20 5L19 5L19 4L22 4L22 5L21 5L21 7L22 7L22 8L19 8L19 9L15 9L15 8L14 8L14 9L13 9L13 10L11 10L11 11L9 11L9 10L10 10L10 9L12 9L12 8L11 8L11 7L10 7L10 8L9 8L9 10L8 10L8 9L6 9L6 10L5 10L5 11L6 11L6 12L7 12L7 13L8 13L8 12L7 12L7 11L6 11L6 10L8 10L8 11L9 11L9 13L10 13L10 14L11 14L11 13L10 13L10 12L14 12L14 11L13 11L13 10L17 10L17 11L15 11L15 13L13 13L13 14L12 14L12 15L13 15L13 14L15 14L15 13L16 13L16 16L15 16L15 15L14 15L14 17L13 17L13 16L12 16L12 17L11 17L11 18L13 18L13 19L12 19L12 21L10 21L10 20L11 20L11 19L10 19L10 17L9 17L9 18L8 18L8 19L10 19L10 20L9 20L9 21L6 21L6 22L10 22L10 24L9 24L9 25L6 25L6 26L9 26L9 29L10 29L10 30L9 30L9 32L10 32L10 33L8 33L8 35L5 35L5 33L6 33L6 34L7 34L7 33L6 33L6 32L8 32L8 31L5 31L5 33L3 33L3 35L4 35L4 36L5 36L5 38L4 38L4 39L5 39L5 40L7 40L7 39L6 39L6 38L7 38L7 37L6 37L6 36L9 36L9 37L8 37L8 39L10 39L10 40L11 40L11 41L6 41L6 42L7 42L7 43L8 43L8 42L10 42L10 43L9 43L9 45L10 45L10 46L12 46L12 45L14 45L14 47L13 47L13 48L12 48L12 47L11 47L11 48L9 48L9 49L12 49L12 50L11 50L11 53L10 53L10 56L12 56L12 55L11 55L11 54L12 54L12 53L15 53L15 54L16 54L16 53L17 53L17 52L18 52L18 51L19 51L19 50L17 50L17 49L14 49L14 50L15 50L15 51L14 51L14 52L12 52L12 50L13 50L13 48L14 48L14 47L15 47L15 48L17 48L17 45L18 45L18 44L16 44L16 43L14 43L14 42L12 42L12 43L13 43L13 44L10 44L10 43L11 43L11 41L12 41L12 40L14 40L14 39L16 39L16 41L15 41L15 42L17 42L17 43L18 43L18 42L19 42L19 41L18 41L18 40L19 40L19 39L20 39L20 38L19 38L19 39L18 39L18 37L17 37L17 36L18 36L18 35L17 35L17 34L18 34L18 33L15 33L15 32L18 32L18 31L19 31L19 32L20 32L20 30L21 30L21 31L23 31L23 32L21 32L21 33L19 33L19 34L20 34L20 35L19 35L19 37L23 37L23 38L24 38L24 37L23 37L23 36L24 36L24 34L23 34L23 33L25 33L25 34L27 34L27 35L26 35L26 36L25 36L25 40L24 40L24 41L25 41L25 43L27 43L27 42L32 42L32 43L33 43L33 44L32 44L32 46L31 46L31 47L32 47L32 49L31 49L31 50L32 50L32 51L31 51L31 53L30 53L30 54L27 54L27 53L24 53L24 54L23 54L23 55L24 55L24 56L25 56L25 54L26 54L26 55L27 55L27 56L29 56L29 55L30 55L30 56L31 56L31 54L32 54L32 53L33 53L33 54L34 54L34 55L35 55L35 56L36 56L36 54L35 54L35 53L34 53L34 52L35 52L35 51L34 51L34 50L36 50L36 52L37 52L37 51L38 51L38 50L41 50L41 52L40 52L40 51L39 51L39 52L38 52L38 53L37 53L37 54L40 54L40 53L41 53L41 52L42 52L42 50L41 50L41 48L42 48L42 49L43 49L43 51L45 51L45 52L44 52L44 53L43 53L43 54L44 54L44 53L45 53L45 52L46 52L46 50L47 50L47 49L48 49L48 48L49 48L49 47L51 47L51 48L54 48L54 45L55 45L55 46L56 46L56 45L55 45L55 44L54 44L54 45L50 45L50 43L51 43L51 44L53 44L53 43L54 43L54 42L53 42L53 41L54 41L54 40L53 40L53 39L54 39L54 38L53 38L53 35L55 35L55 34L54 34L54 33L52 33L52 32L51 32L51 31L50 31L50 32L49 32L49 31L48 31L48 30L47 30L47 29L46 29L46 30L47 30L47 31L46 31L46 32L43 32L43 31L45 31L45 28L46 28L46 27L47 27L47 28L48 28L48 27L47 27L47 25L45 25L45 23L46 23L46 22L47 22L47 21L49 21L49 23L47 23L47 24L49 24L49 25L50 25L50 26L53 26L53 27L54 27L54 26L53 26L53 23L51 23L51 25L50 25L50 24L49 24L49 23L50 23L50 22L51 22L51 21L54 21L54 23L55 23L55 22L56 22L56 21L55 21L55 20L56 20L56 19L55 19L55 20L53 20L53 19L52 19L52 20L51 20L51 21L49 21L49 20L48 20L48 19L51 19L51 18L55 18L55 17L53 17L53 16L51 16L51 17L50 17L50 14L51 14L51 12L50 12L50 10L47 10L47 9L45 9L45 7L46 7L46 5L47 5L47 3L44 3L44 6L43 6L43 8L44 8L44 9L43 9L43 10L41 10L41 9L42 9L42 8L41 8L41 7L42 7L42 6L41 6L41 5L40 5L40 6L39 6L39 8L38 8L38 11L39 11L39 9L40 9L40 10L41 10L41 12L39 12L39 13L38 13L38 14L37 14L37 15L35 15L35 16L33 16L33 15L31 15L31 14L32 14L32 13L33 13L33 14L36 14L36 13L35 13L35 12L37 12L37 11L36 11L36 10L37 10L37 9L35 9L35 8L34 8L34 9L33 9L33 7L34 7L34 6L33 6L33 5L35 5L35 2L33 2L33 3L32 3L32 2L31 2L31 3L32 3L32 4L31 4L31 8L32 8L32 10L31 10L31 11L29 11L29 12L28 12L28 13L27 13L27 14L26 14L26 12L27 12L27 11L26 11L26 12L25 12L25 10L23 10L23 11L24 11L24 12L25 12L25 14L26 14L26 16L23 16L23 15L24 15L24 14L23 14L23 13L22 13L22 12L21 12L21 11L22 11L22 10L21 10L21 9L24 9L24 6L23 6L23 5L24 5L24 4L23 4L23 3L26 3L26 4L25 4L25 8L26 8L26 4L30 4L30 3L27 3L27 2L23 2L23 3L20 3L20 2ZM8 3L8 4L9 4L9 3ZM33 3L33 4L32 4L32 5L33 5L33 4L34 4L34 3ZM11 4L11 5L12 5L12 4ZM36 4L36 5L37 5L37 4ZM45 4L45 5L46 5L46 4ZM27 5L27 8L30 8L30 5ZM22 6L22 7L23 7L23 6ZM28 6L28 7L29 7L29 6ZM32 6L32 7L33 7L33 6ZM40 6L40 7L41 7L41 6ZM44 6L44 7L45 7L45 6ZM48 6L48 7L49 7L49 6ZM55 8L55 9L56 9L56 8ZM2 9L2 10L3 10L3 12L4 12L4 9ZM19 9L19 10L18 10L18 11L17 11L17 12L16 12L16 13L17 13L17 14L18 14L18 15L17 15L17 16L16 16L16 17L14 17L14 18L16 18L16 19L17 19L17 18L16 18L16 17L19 17L19 18L18 18L18 20L17 20L17 21L16 21L16 20L15 20L15 21L16 21L16 22L14 22L14 21L12 21L12 22L11 22L11 25L12 25L12 26L10 26L10 25L9 25L9 26L10 26L10 27L11 27L11 28L10 28L10 29L11 29L11 30L12 30L12 31L10 31L10 32L12 32L12 33L13 33L13 32L14 32L14 31L13 31L13 30L12 30L12 29L14 29L14 30L15 30L15 31L16 31L16 29L18 29L18 30L17 30L17 31L18 31L18 30L20 30L20 28L21 28L21 29L22 29L22 28L21 28L21 27L22 27L22 26L23 26L23 30L24 30L24 32L25 32L25 33L26 33L26 32L27 32L27 31L29 31L29 32L28 32L28 33L29 33L29 34L30 34L30 36L29 36L29 37L31 37L31 38L29 38L29 39L33 39L33 40L35 40L35 42L37 42L37 43L36 43L36 44L35 44L35 43L34 43L34 42L33 42L33 41L32 41L32 40L31 40L31 41L32 41L32 42L33 42L33 43L34 43L34 45L36 45L36 48L35 48L35 49L36 49L36 50L38 50L38 49L39 49L39 48L41 48L41 46L43 46L43 47L42 47L42 48L43 48L43 49L44 49L44 50L46 50L46 49L47 49L47 48L48 48L48 47L49 47L49 46L50 46L50 45L47 45L47 43L50 43L50 42L51 42L51 43L53 43L53 42L51 42L51 41L53 41L53 40L52 40L52 39L53 39L53 38L52 38L52 39L50 39L50 37L49 37L49 41L48 41L48 42L47 42L47 43L46 43L46 44L45 44L45 45L47 45L47 46L45 46L45 47L44 47L44 46L43 46L43 45L44 45L44 44L43 44L43 43L44 43L44 41L43 41L43 40L47 40L47 39L48 39L48 38L47 38L47 39L46 39L46 38L45 38L45 37L46 37L46 36L49 36L49 35L50 35L50 36L52 36L52 35L53 35L53 34L52 34L52 33L51 33L51 32L50 32L50 34L49 34L49 35L46 35L46 34L45 34L45 33L43 33L43 32L41 32L41 33L39 33L39 34L40 34L40 35L39 35L39 37L40 37L40 38L41 38L41 42L42 42L42 44L41 44L41 45L39 45L39 42L40 42L40 41L39 41L39 42L38 42L38 40L40 40L40 39L38 39L38 40L35 40L35 39L37 39L37 38L38 38L38 37L37 37L37 36L38 36L38 33L37 33L37 32L34 32L34 31L36 31L36 29L38 29L38 28L39 28L39 27L36 27L36 26L34 26L34 27L33 27L33 26L32 26L32 24L33 24L33 25L37 25L37 26L38 26L38 25L39 25L39 26L43 26L43 28L45 28L45 27L44 27L44 26L43 26L43 25L44 25L44 24L42 24L42 23L44 23L44 20L47 20L47 18L50 18L50 17L49 17L49 16L48 16L48 15L49 15L49 14L50 14L50 12L49 12L49 11L47 11L47 10L45 10L45 9L44 9L44 10L43 10L43 11L45 11L45 12L49 12L49 13L47 13L47 14L45 14L45 17L47 17L47 18L46 18L46 19L45 19L45 18L44 18L44 12L43 12L43 13L39 13L39 14L38 14L38 15L39 15L39 16L38 16L38 17L37 17L37 16L35 16L35 17L37 17L37 18L38 18L38 17L39 17L39 19L37 19L37 20L36 20L36 19L30 19L30 18L31 18L31 17L32 17L32 18L33 18L33 17L32 17L32 16L31 16L31 15L30 15L30 14L31 14L31 13L32 13L32 11L33 11L33 10L32 10L32 11L31 11L31 13L30 13L30 14L29 14L29 13L28 13L28 14L29 14L29 16L28 16L28 15L27 15L27 16L26 16L26 17L22 17L22 16L21 16L21 17L22 17L22 18L24 18L24 19L23 19L23 20L24 20L24 21L22 21L22 20L21 20L21 21L22 21L22 22L21 22L21 23L22 23L22 24L17 24L17 21L20 21L20 17L19 17L19 15L23 15L23 14L22 14L22 13L21 13L21 12L20 12L20 11L19 11L19 10L20 10L20 9ZM17 12L17 13L18 13L18 12ZM19 12L19 13L20 13L20 14L21 14L21 13L20 13L20 12ZM33 12L33 13L34 13L34 12ZM52 12L52 13L53 13L53 15L55 15L55 14L56 14L56 13L55 13L55 12L54 12L54 13L53 13L53 12ZM54 13L54 14L55 14L55 13ZM39 14L39 15L41 15L41 16L39 16L39 17L41 17L41 16L42 16L42 17L43 17L43 16L42 16L42 15L43 15L43 14ZM2 15L2 16L3 16L3 15ZM10 15L10 16L11 16L11 15ZM46 15L46 16L47 16L47 15ZM27 16L27 17L26 17L26 18L27 18L27 19L26 19L26 21L28 21L28 22L27 22L27 24L25 24L25 23L26 23L26 22L25 22L25 21L24 21L24 22L23 22L23 23L24 23L24 24L22 24L22 25L17 25L17 24L16 24L16 23L15 23L15 24L16 24L16 25L14 25L14 26L12 26L12 28L11 28L11 29L12 29L12 28L14 28L14 29L16 29L16 28L18 28L18 29L19 29L19 28L20 28L20 27L21 27L21 26L22 26L22 25L24 25L24 24L25 24L25 25L26 25L26 26L24 26L24 27L26 27L26 26L28 26L28 25L29 25L29 24L30 24L30 22L29 22L29 21L31 21L31 24L32 24L32 23L33 23L33 22L34 22L34 23L35 23L35 20L34 20L34 21L33 21L33 20L32 20L32 21L31 21L31 20L27 20L27 19L28 19L28 18L27 18L27 17L28 17L28 16ZM6 17L6 18L7 18L7 17ZM41 18L41 19L42 19L42 18ZM43 18L43 20L42 20L42 21L43 21L43 20L44 20L44 18ZM13 19L13 20L14 20L14 19ZM3 20L3 21L4 21L4 22L5 22L5 21L4 21L4 20ZM38 20L38 23L37 23L37 24L39 24L39 25L42 25L42 24L39 24L39 23L40 23L40 22L39 22L39 21L41 21L41 20ZM1 22L1 23L2 23L2 22ZM19 22L19 23L20 23L20 22ZM41 22L41 23L42 23L42 22ZM6 23L6 24L8 24L8 23ZM12 24L12 25L13 25L13 24ZM0 25L0 26L1 26L1 25ZM16 26L16 27L18 27L18 26ZM19 26L19 27L20 27L20 26ZM31 26L31 28L32 28L32 30L31 30L31 31L30 31L30 32L29 32L29 33L31 33L31 31L32 31L32 33L33 33L33 34L31 34L31 35L33 35L33 36L32 36L32 37L33 37L33 38L34 38L34 39L35 39L35 37L33 37L33 36L34 36L34 35L35 35L35 36L37 36L37 34L35 34L35 33L34 33L34 32L33 32L33 31L32 31L32 30L35 30L35 28L33 28L33 27L32 27L32 26ZM5 27L5 30L8 30L8 27ZM14 27L14 28L15 28L15 27ZM27 27L27 30L30 30L30 27ZM41 27L41 28L42 28L42 27ZM49 27L49 30L52 30L52 27ZM6 28L6 29L7 29L7 28ZM25 28L25 29L26 29L26 28ZM28 28L28 29L29 29L29 28ZM50 28L50 29L51 29L51 28ZM54 28L54 29L53 29L53 32L54 32L54 31L55 31L55 30L54 30L54 29L55 29L55 28ZM40 29L40 30L44 30L44 29ZM3 30L3 31L4 31L4 30ZM38 30L38 32L39 32L39 30ZM12 31L12 32L13 32L13 31ZM25 31L25 32L26 32L26 31ZM47 31L47 32L46 32L46 33L47 33L47 32L48 32L48 33L49 33L49 32L48 32L48 31ZM10 33L10 35L11 35L11 38L10 38L10 37L9 37L9 38L10 38L10 39L11 39L11 40L12 40L12 39L13 39L13 38L12 38L12 37L14 37L14 34L13 34L13 35L12 35L12 34L11 34L11 33ZM21 33L21 34L22 34L22 33ZM15 34L15 35L16 35L16 36L17 36L17 35L16 35L16 34ZM33 34L33 35L34 35L34 34ZM42 34L42 35L41 35L41 36L40 36L40 37L41 37L41 38L42 38L42 40L43 40L43 39L45 39L45 38L44 38L44 37L45 37L45 36L44 36L44 35L45 35L45 34ZM50 34L50 35L52 35L52 34ZM20 35L20 36L22 36L22 35ZM41 36L41 37L42 37L42 38L43 38L43 37L44 37L44 36ZM15 37L15 38L16 38L16 37ZM26 37L26 40L27 40L27 41L26 41L26 42L27 42L27 41L28 41L28 39L27 39L27 38L28 38L28 37ZM17 39L17 40L18 40L18 39ZM17 41L17 42L18 42L18 41ZM4 44L4 45L2 45L2 47L1 47L1 46L0 46L0 48L5 48L5 47L7 47L7 46L5 46L5 47L3 47L3 46L4 46L4 45L5 45L5 44ZM28 44L28 45L27 45L27 46L29 46L29 45L31 45L31 44ZM22 45L22 46L23 46L23 45ZM38 45L38 46L39 46L39 45ZM32 46L32 47L35 47L35 46ZM47 46L47 47L48 47L48 46ZM18 47L18 48L19 48L19 47ZM26 47L26 48L29 48L29 47ZM38 47L38 48L37 48L37 49L38 49L38 48L39 48L39 47ZM43 47L43 48L44 48L44 49L46 49L46 48L44 48L44 47ZM6 48L6 49L7 49L7 48ZM24 48L24 49L25 49L25 48ZM27 49L27 52L30 52L30 49ZM49 49L49 52L52 52L52 49ZM16 50L16 51L17 51L17 50ZM28 50L28 51L29 51L29 50ZM50 50L50 51L51 51L51 50ZM54 50L54 51L55 51L55 50ZM32 51L32 52L33 52L33 51ZM15 52L15 53L16 53L16 52ZM53 52L53 54L54 54L54 52ZM17 54L17 55L18 55L18 54ZM42 55L42 56L43 56L43 55ZM50 55L50 56L51 56L51 55ZM46 56L46 57L47 57L47 56ZM0 0L0 7L7 7L7 0ZM1 1L1 6L6 6L6 1ZM2 2L2 5L5 5L5 2ZM50 0L50 7L57 7L57 0ZM51 1L51 6L56 6L56 1ZM52 2L52 5L55 5L55 2ZM0 50L0 57L7 57L7 50ZM1 51L1 56L6 56L6 51ZM2 52L2 55L5 55L5 52Z" fill="#000000"/></g></g></svg>
