<?xml version="1.0" encoding="UTF-8"?>
<svg xmlns="http://www.w3.org/2000/svg" version="1.1" width="300" height="300" viewBox="0 0 300 300"><rect x="0" y="0" width="300" height="300" fill="#fefefe"/><g transform="scale(4.615)"><g transform="translate(4,4)"><path fill-rule="evenodd" d="M8 0L8 2L9 2L9 4L8 4L8 9L9 9L9 10L5 10L5 11L7 11L7 12L6 12L6 13L5 13L5 14L4 14L4 15L5 15L5 16L6 16L6 17L7 17L7 16L6 16L6 15L7 15L7 14L8 14L8 15L9 15L9 16L8 16L8 18L5 18L5 19L1 19L1 18L0 18L0 19L1 19L1 20L0 20L0 22L2 22L2 21L3 21L3 22L6 22L6 23L5 23L5 25L4 25L4 26L2 26L2 25L1 25L1 26L2 26L2 27L1 27L1 28L0 28L0 31L1 31L1 30L2 30L2 31L3 31L3 32L4 32L4 33L3 33L3 34L5 34L5 36L4 36L4 40L2 40L2 39L3 39L3 36L2 36L2 32L1 32L1 35L0 35L0 37L2 37L2 39L1 39L1 38L0 38L0 39L1 39L1 40L0 40L0 41L1 41L1 42L0 42L0 45L1 45L1 46L0 46L0 48L5 48L5 47L7 47L7 46L8 46L8 50L10 50L10 49L11 49L11 52L10 52L10 51L8 51L8 52L9 52L9 54L8 54L8 57L12 57L12 56L13 56L13 57L14 57L14 55L15 55L15 57L17 57L17 56L18 56L18 57L19 57L19 54L18 54L18 53L19 53L19 52L20 52L20 53L21 53L21 52L22 52L22 54L23 54L23 56L22 56L22 55L21 55L21 54L20 54L20 55L21 55L21 56L20 56L20 57L21 57L21 56L22 56L22 57L24 57L24 56L25 56L25 55L24 55L24 54L25 54L25 51L26 51L26 53L28 53L28 55L27 55L27 54L26 54L26 55L27 55L27 56L26 56L26 57L28 57L28 55L29 55L29 57L33 57L33 55L34 55L34 57L35 57L35 55L37 55L37 54L38 54L38 53L39 53L39 56L40 56L40 57L42 57L42 56L43 56L43 54L42 54L42 53L43 53L43 52L44 52L44 55L45 55L45 56L44 56L44 57L45 57L45 56L46 56L46 57L50 57L50 55L49 55L49 54L52 54L52 55L53 55L53 53L54 53L54 54L55 54L55 55L57 55L57 54L55 54L55 52L56 52L56 53L57 53L57 52L56 52L56 51L57 51L57 50L56 50L56 51L55 51L55 52L54 52L54 51L53 51L53 50L54 50L54 49L56 49L56 47L57 47L57 42L56 42L56 43L55 43L55 42L54 42L54 39L55 39L55 38L57 38L57 33L56 33L56 31L57 31L57 28L56 28L56 27L57 27L57 24L56 24L56 23L57 23L57 20L56 20L56 19L57 19L57 18L56 18L56 19L55 19L55 16L56 16L56 17L57 17L57 13L56 13L56 12L55 12L55 13L53 13L53 12L54 12L54 11L55 11L55 9L57 9L57 8L55 8L55 9L54 9L54 10L53 10L53 8L49 8L49 6L48 6L48 8L47 8L47 11L46 11L46 7L47 7L47 5L48 5L48 0L46 0L46 1L47 1L47 2L45 2L45 4L44 4L44 2L43 2L43 4L42 4L42 1L45 1L45 0L42 0L42 1L41 1L41 0L38 0L38 2L37 2L37 1L35 1L35 0L34 0L34 2L33 2L33 1L32 1L32 0L30 0L30 1L32 1L32 2L31 2L31 3L30 3L30 2L29 2L29 1L28 1L28 0L26 0L26 2L25 2L25 4L24 4L24 1L25 1L25 0L24 0L24 1L23 1L23 0L20 0L20 1L18 1L18 0L16 0L16 2L15 2L15 1L14 1L14 0L12 0L12 1L14 1L14 3L13 3L13 4L12 4L12 2L10 2L10 0ZM17 1L17 2L16 2L16 4L17 4L17 5L16 5L16 6L15 6L15 7L14 7L14 5L11 5L11 7L12 7L12 6L13 6L13 7L14 7L14 8L13 8L13 11L12 11L12 12L13 12L13 13L12 13L12 14L10 14L10 13L9 13L9 14L10 14L10 15L11 15L11 16L12 16L12 14L13 14L13 15L15 15L15 16L17 16L17 17L16 17L16 18L18 18L18 19L16 19L16 20L17 20L17 22L16 22L16 23L17 23L17 25L16 25L16 24L15 24L15 25L16 25L16 26L15 26L15 27L16 27L16 28L15 28L15 29L13 29L13 28L14 28L14 24L12 24L12 23L6 23L6 24L7 24L7 25L6 25L6 26L7 26L7 25L8 25L8 24L9 24L9 25L10 25L10 24L12 24L12 26L9 26L9 28L11 28L11 27L12 27L12 29L9 29L9 32L7 32L7 31L4 31L4 29L3 29L3 28L2 28L2 29L3 29L3 31L4 31L4 32L7 32L7 33L5 33L5 34L7 34L7 35L6 35L6 36L7 36L7 37L6 37L6 38L5 38L5 40L4 40L4 43L5 43L5 42L7 42L7 43L6 43L6 44L4 44L4 45L2 45L2 44L3 44L3 41L2 41L2 40L1 40L1 41L2 41L2 42L1 42L1 45L2 45L2 46L1 46L1 47L2 47L2 46L3 46L3 47L5 47L5 46L4 46L4 45L6 45L6 46L7 46L7 45L6 45L6 44L8 44L8 43L9 43L9 44L10 44L10 45L11 45L11 44L12 44L12 45L13 45L13 47L12 47L12 46L11 46L11 47L12 47L12 48L11 48L11 49L12 49L12 51L13 51L13 50L14 50L14 51L15 51L15 49L16 49L16 51L17 51L17 53L18 53L18 51L19 51L19 49L18 49L18 46L19 46L19 48L20 48L20 51L21 51L21 50L22 50L22 48L23 48L23 49L24 49L24 51L23 51L23 52L24 52L24 51L25 51L25 50L26 50L26 49L25 49L25 48L27 48L27 46L26 46L26 45L25 45L25 44L22 44L22 43L23 43L23 41L22 41L22 40L24 40L24 42L26 42L26 41L25 41L25 40L26 40L26 39L27 39L27 40L28 40L28 42L27 42L27 43L28 43L28 42L29 42L29 44L27 44L27 45L28 45L28 47L29 47L29 48L31 48L31 52L32 52L32 50L33 50L33 49L32 49L32 48L34 48L34 52L35 52L35 53L34 53L34 54L35 54L35 53L36 53L36 54L37 54L37 53L38 53L38 52L39 52L39 53L40 53L40 52L39 52L39 49L40 49L40 51L41 51L41 52L43 52L43 51L44 51L44 50L45 50L45 51L46 51L46 50L47 50L47 46L49 46L49 45L47 45L47 44L48 44L48 43L49 43L49 44L50 44L50 45L52 45L52 48L53 48L53 45L54 45L54 48L55 48L55 47L56 47L56 44L55 44L55 43L54 43L54 44L53 44L53 37L54 37L54 38L55 38L55 37L56 37L56 36L55 36L55 33L53 33L53 31L54 31L54 32L55 32L55 31L56 31L56 30L55 30L55 31L54 31L54 30L53 30L53 31L52 31L52 32L50 32L50 31L49 31L49 32L50 32L50 33L49 33L49 36L48 36L48 35L47 35L47 34L48 34L48 33L47 33L47 30L48 30L48 29L47 29L47 28L46 28L46 29L44 29L44 30L43 30L43 28L42 28L42 31L41 31L41 30L40 30L40 28L41 28L41 27L43 27L43 26L44 26L44 27L46 27L46 26L47 26L47 25L46 25L46 26L45 26L45 25L44 25L44 24L46 24L46 23L48 23L48 22L50 22L50 23L51 23L51 22L52 22L52 24L51 24L51 25L50 25L50 26L51 26L51 25L52 25L52 24L53 24L53 23L54 23L54 24L55 24L55 25L54 25L54 26L55 26L55 27L54 27L54 28L53 28L53 29L56 29L56 28L55 28L55 27L56 27L56 26L55 26L55 25L56 25L56 24L55 24L55 23L56 23L56 20L55 20L55 19L54 19L54 17L53 17L53 18L52 18L52 16L53 16L53 14L52 14L52 13L50 13L50 11L51 11L51 12L52 12L52 11L51 11L51 10L52 10L52 9L50 9L50 11L48 11L48 14L47 14L47 13L46 13L46 11L45 11L45 10L44 10L44 8L45 8L45 7L46 7L46 5L47 5L47 3L46 3L46 5L44 5L44 4L43 4L43 5L44 5L44 6L43 6L43 7L42 7L42 4L41 4L41 2L40 2L40 1L39 1L39 2L38 2L38 4L37 4L37 2L34 2L34 3L33 3L33 2L32 2L32 5L31 5L31 9L30 9L30 10L31 10L31 9L32 9L32 11L34 11L34 12L35 12L35 13L34 13L34 15L33 15L33 14L32 14L32 12L30 12L30 11L29 11L29 9L28 9L28 11L27 11L27 10L25 10L25 9L26 9L26 5L24 5L24 6L23 6L23 8L24 8L24 11L26 11L26 13L24 13L24 14L23 14L23 12L22 12L22 11L23 11L23 9L22 9L22 5L23 5L23 3L22 3L22 5L21 5L21 3L19 3L19 2L18 2L18 1ZM21 1L21 2L22 2L22 1ZM17 2L17 4L18 4L18 2ZM27 2L27 3L26 3L26 4L27 4L27 3L28 3L28 4L30 4L30 3L28 3L28 2ZM39 2L39 4L38 4L38 5L37 5L37 6L36 6L36 10L34 10L34 9L35 9L35 4L36 4L36 3L34 3L34 8L32 8L32 9L33 9L33 10L34 10L34 11L37 11L37 12L36 12L36 13L35 13L35 14L36 14L36 13L37 13L37 15L36 15L36 18L34 18L34 17L35 17L35 15L34 15L34 17L33 17L33 15L32 15L32 17L31 17L31 16L30 16L30 15L29 15L29 13L30 13L30 12L29 12L29 11L28 11L28 12L27 12L27 13L26 13L26 14L25 14L25 16L26 16L26 17L25 17L25 18L24 18L24 16L22 16L22 14L20 14L20 13L21 13L21 12L20 12L20 13L19 13L19 12L18 12L18 11L19 11L19 10L20 10L20 9L21 9L21 10L22 10L22 9L21 9L21 5L20 5L20 7L19 7L19 5L17 5L17 6L16 6L16 7L17 7L17 10L16 10L16 9L15 9L15 8L14 8L14 9L15 9L15 10L16 10L16 11L17 11L17 14L15 14L15 15L18 15L18 18L20 18L20 19L18 19L18 22L17 22L17 23L18 23L18 25L17 25L17 26L18 26L18 25L19 25L19 20L20 20L20 21L21 21L21 22L20 22L20 23L22 23L22 26L20 26L20 27L18 27L18 28L20 28L20 27L21 27L21 30L22 30L22 33L23 33L23 34L20 34L20 30L19 30L19 32L17 32L17 34L16 34L16 31L18 31L18 30L13 30L13 29L12 29L12 30L13 30L13 33L12 33L12 31L11 31L11 32L9 32L9 33L10 33L10 34L9 34L9 35L11 35L11 36L10 36L10 37L7 37L7 38L6 38L6 39L8 39L8 38L9 38L9 40L8 40L8 42L9 42L9 43L14 43L14 44L13 44L13 45L14 45L14 47L13 47L13 48L14 48L14 49L15 49L15 48L16 48L16 49L17 49L17 48L16 48L16 47L17 47L17 46L18 46L18 45L19 45L19 46L20 46L20 45L21 45L21 44L20 44L20 43L19 43L19 42L20 42L20 41L21 41L21 39L22 39L22 37L23 37L23 36L22 36L22 37L21 37L21 35L25 35L25 36L24 36L24 37L25 37L25 36L28 36L28 37L29 37L29 36L28 36L28 35L31 35L31 36L30 36L30 40L29 40L29 41L30 41L30 40L31 40L31 38L33 38L33 39L34 39L34 41L33 41L33 40L32 40L32 47L34 47L34 45L33 45L33 44L36 44L36 45L37 45L37 46L38 46L38 45L37 45L37 44L40 44L40 45L39 45L39 46L40 46L40 45L41 45L41 47L40 47L40 49L41 49L41 51L43 51L43 50L44 50L44 49L45 49L45 50L46 50L46 48L44 48L44 49L43 49L43 50L42 50L42 49L41 49L41 47L42 47L42 45L43 45L43 46L44 46L44 47L46 47L46 44L47 44L47 43L46 43L46 41L48 41L48 40L51 40L51 41L49 41L49 42L50 42L50 44L52 44L52 45L53 45L53 44L52 44L52 40L51 40L51 38L52 38L52 37L53 37L53 36L54 36L54 37L55 37L55 36L54 36L54 34L53 34L53 36L52 36L52 37L51 37L51 38L50 38L50 36L51 36L51 33L50 33L50 36L49 36L49 37L48 37L48 36L47 36L47 35L46 35L46 32L45 32L45 31L46 31L46 30L44 30L44 31L42 31L42 33L41 33L41 32L40 32L40 30L39 30L39 31L38 31L38 30L37 30L37 31L36 31L36 29L37 29L37 28L38 28L38 29L39 29L39 27L40 27L40 26L38 26L38 25L37 25L37 24L36 24L36 23L39 23L39 22L38 22L38 20L39 20L39 19L40 19L40 22L42 22L42 23L40 23L40 25L41 25L41 24L42 24L42 25L43 25L43 24L42 24L42 23L43 23L43 22L44 22L44 23L46 23L46 20L48 20L48 19L49 19L49 20L51 20L51 19L52 19L52 18L50 18L50 17L49 17L49 16L50 16L50 13L49 13L49 14L48 14L48 15L46 15L46 13L45 13L45 12L44 12L44 11L43 11L43 10L42 10L42 9L41 9L41 8L42 8L42 7L41 7L41 6L40 6L40 7L41 7L41 8L40 8L40 9L41 9L41 10L42 10L42 12L41 12L41 11L40 11L40 10L38 10L38 9L39 9L39 6L38 6L38 5L39 5L39 4L40 4L40 2ZM14 3L14 4L15 4L15 3ZM27 5L27 8L30 8L30 5ZM9 6L9 8L10 8L10 6ZM17 6L17 7L18 7L18 8L19 8L19 7L18 7L18 6ZM24 6L24 7L25 7L25 6ZM28 6L28 7L29 7L29 6ZM32 6L32 7L33 7L33 6ZM37 6L37 7L38 7L38 6ZM44 6L44 7L43 7L43 8L44 8L44 7L45 7L45 6ZM0 8L0 12L1 12L1 10L4 10L4 9L3 9L3 8ZM5 8L5 9L7 9L7 8ZM37 8L37 9L38 9L38 8ZM48 8L48 10L49 10L49 8ZM11 9L11 10L10 10L10 12L11 12L11 10L12 10L12 9ZM37 10L37 11L38 11L38 10ZM56 10L56 11L57 11L57 10ZM2 11L2 13L3 13L3 12L4 12L4 11ZM8 11L8 12L7 12L7 13L6 13L6 14L5 14L5 15L6 15L6 14L7 14L7 13L8 13L8 12L9 12L9 11ZM14 11L14 12L15 12L15 11ZM39 11L39 12L37 12L37 13L38 13L38 15L37 15L37 16L38 16L38 18L40 18L40 19L41 19L41 20L42 20L42 22L43 22L43 21L44 21L44 22L45 22L45 21L44 21L44 19L47 19L47 16L46 16L46 15L44 15L44 16L43 16L43 13L44 13L44 14L45 14L45 13L44 13L44 12L42 12L42 15L41 15L41 17L42 17L42 18L43 18L43 17L44 17L44 19L43 19L43 20L42 20L42 19L41 19L41 18L40 18L40 11ZM18 13L18 15L20 15L20 16L19 16L19 17L20 17L20 18L21 18L21 21L22 21L22 20L23 20L23 19L22 19L22 18L21 18L21 17L20 17L20 16L21 16L21 15L20 15L20 14L19 14L19 13ZM55 13L55 15L54 15L54 16L55 16L55 15L56 15L56 13ZM2 14L2 17L3 17L3 18L4 18L4 16L3 16L3 14ZM26 14L26 16L27 16L27 19L26 19L26 18L25 18L25 19L24 19L24 20L25 20L25 19L26 19L26 20L27 20L27 22L26 22L26 23L27 23L27 22L28 22L28 23L29 23L29 24L30 24L30 26L31 26L31 25L32 25L32 27L31 27L31 30L32 30L32 31L31 31L31 32L30 32L30 31L29 31L29 32L28 32L28 31L27 31L27 33L28 33L28 34L27 34L27 35L28 35L28 34L29 34L29 32L30 32L30 34L31 34L31 35L35 35L35 37L34 37L34 36L33 36L33 37L34 37L34 38L35 38L35 41L34 41L34 42L35 42L35 41L36 41L36 44L37 44L37 43L39 43L39 42L40 42L40 43L41 43L41 45L42 45L42 44L43 44L43 45L44 45L44 44L45 44L45 43L44 43L44 39L43 39L43 38L44 38L44 34L45 34L45 33L44 33L44 34L43 34L43 33L42 33L42 34L40 34L40 32L39 32L39 33L38 33L38 34L37 34L37 33L36 33L36 31L35 31L35 29L36 29L36 27L37 27L37 26L36 26L36 24L34 24L34 23L33 23L33 24L34 24L34 26L33 26L33 25L32 25L32 23L31 23L31 22L33 22L33 21L32 21L32 20L31 20L31 17L30 17L30 16L29 16L29 15L28 15L28 14ZM51 14L51 16L52 16L52 14ZM0 16L0 17L1 17L1 16ZM13 16L13 17L14 17L14 18L15 18L15 17L14 17L14 16ZM44 16L44 17L45 17L45 18L46 18L46 17L45 17L45 16ZM10 17L10 18L9 18L9 19L8 19L8 20L9 20L9 19L12 19L12 20L10 20L10 22L11 22L11 21L12 21L12 22L13 22L13 23L15 23L15 21L14 21L14 22L13 22L13 21L12 21L12 20L13 20L13 18L12 18L12 17ZM28 17L28 18L30 18L30 17ZM32 17L32 18L33 18L33 20L34 20L34 22L35 22L35 23L36 23L36 22L37 22L37 21L36 21L36 20L34 20L34 18L33 18L33 17ZM48 17L48 18L49 18L49 19L50 19L50 18L49 18L49 17ZM36 18L36 19L37 19L37 20L38 20L38 19L37 19L37 18ZM5 19L5 21L6 21L6 22L7 22L7 21L6 21L6 20L7 20L7 19ZM14 19L14 20L15 20L15 19ZM29 19L29 20L28 20L28 22L30 22L30 19ZM53 19L53 20L52 20L52 22L55 22L55 21L54 21L54 19ZM3 20L3 21L4 21L4 20ZM8 21L8 22L9 22L9 21ZM35 21L35 22L36 22L36 21ZM47 21L47 22L48 22L48 21ZM24 22L24 23L25 23L25 22ZM0 23L0 24L2 24L2 23ZM3 23L3 24L4 24L4 23ZM24 25L24 26L25 26L25 25ZM26 25L26 26L27 26L27 25ZM28 25L28 26L29 26L29 25ZM48 25L48 26L49 26L49 25ZM12 26L12 27L13 27L13 26ZM5 27L5 30L8 30L8 27ZM22 27L22 28L23 28L23 29L22 29L22 30L23 30L23 29L24 29L24 30L25 30L25 32L24 32L24 31L23 31L23 32L24 32L24 34L25 34L25 35L26 35L26 33L25 33L25 32L26 32L26 30L25 30L25 29L24 29L24 27ZM27 27L27 30L30 30L30 27ZM34 27L34 29L33 29L33 28L32 28L32 30L33 30L33 31L32 31L32 33L34 33L34 32L33 32L33 31L34 31L34 29L35 29L35 27ZM49 27L49 30L52 30L52 27ZM6 28L6 29L7 29L7 28ZM28 28L28 29L29 29L29 28ZM50 28L50 29L51 29L51 28ZM14 31L14 32L15 32L15 31ZM37 31L37 32L38 32L38 31ZM11 33L11 34L12 34L12 33ZM13 33L13 35L12 35L12 36L11 36L11 37L10 37L10 38L12 38L12 40L11 40L11 41L10 41L10 40L9 40L9 42L11 42L11 41L13 41L13 39L14 39L14 40L15 40L15 41L16 41L16 42L15 42L15 43L16 43L16 42L17 42L17 41L16 41L16 40L17 40L17 39L18 39L18 40L19 40L19 41L20 41L20 40L19 40L19 39L18 39L18 38L17 38L17 37L18 37L18 36L17 36L17 35L16 35L16 34L14 34L14 33ZM35 33L35 35L36 35L36 37L35 37L35 38L36 38L36 41L37 41L37 42L38 42L38 41L39 41L39 38L40 38L40 42L41 42L41 43L43 43L43 42L42 42L42 41L43 41L43 40L42 40L42 39L41 39L41 35L40 35L40 36L38 36L38 35L39 35L39 34L38 34L38 35L36 35L36 33ZM7 35L7 36L8 36L8 35ZM15 35L15 36L12 36L12 38L14 38L14 37L15 37L15 36L16 36L16 37L17 37L17 36L16 36L16 35ZM45 35L45 36L46 36L46 38L47 38L47 40L48 40L48 37L47 37L47 36L46 36L46 35ZM31 36L31 37L32 37L32 36ZM42 36L42 37L43 37L43 36ZM26 37L26 38L24 38L24 39L26 39L26 38L27 38L27 37ZM36 37L36 38L37 38L37 41L38 41L38 38L39 38L39 37L38 37L38 38L37 38L37 37ZM16 38L16 39L17 39L17 38ZM20 38L20 39L21 39L21 38ZM28 38L28 39L29 39L29 38ZM45 39L45 41L46 41L46 39ZM6 40L6 41L7 41L7 40ZM55 40L55 41L57 41L57 40ZM30 42L30 43L31 43L31 42ZM18 43L18 44L19 44L19 43ZM14 44L14 45L16 45L16 46L15 46L15 47L16 47L16 46L17 46L17 45L16 45L16 44ZM29 44L29 45L30 45L30 44ZM8 45L8 46L9 46L9 45ZM23 45L23 46L24 46L24 47L23 47L23 48L24 48L24 47L26 47L26 46L24 46L24 45ZM21 46L21 47L20 47L20 48L22 48L22 46ZM30 46L30 47L31 47L31 46ZM35 46L35 47L36 47L36 46ZM37 47L37 48L36 48L36 49L37 49L37 51L35 51L35 52L36 52L36 53L37 53L37 51L38 51L38 47ZM6 48L6 49L7 49L7 48ZM27 49L27 52L30 52L30 49ZM49 49L49 52L52 52L52 49ZM17 50L17 51L18 51L18 50ZM28 50L28 51L29 51L29 50ZM50 50L50 51L51 51L51 50ZM47 51L47 52L48 52L48 51ZM12 52L12 53L10 53L10 54L9 54L9 55L10 55L10 56L12 56L12 55L13 55L13 52ZM45 52L45 53L46 53L46 54L47 54L47 56L49 56L49 55L48 55L48 54L49 54L49 53L46 53L46 52ZM31 53L31 54L30 54L30 55L33 55L33 54L32 54L32 53ZM10 54L10 55L11 55L11 54ZM16 54L16 55L17 55L17 54ZM40 54L40 55L41 55L41 54ZM36 56L36 57L37 57L37 56ZM51 56L51 57L53 57L53 56ZM56 56L56 57L57 57L57 56ZM0 0L0 7L7 7L7 0ZM1 1L1 6L6 6L6 1ZM2 2L2 5L5 5L5 2ZM50 0L50 7L57 7L57 0ZM51 1L51 6L56 6L56 1ZM52 2L52 5L55 5L55 2ZM0 50L0 57L7 57L7 50ZM1 51L1 56L6 56L6 51ZM2 52L2 55L5 55L5 52Z" fill="#000000"/></g></g></svg>
