<?xml version="1.0" encoding="UTF-8"?>
<svg xmlns="http://www.w3.org/2000/svg" version="1.1" width="300" height="300" viewBox="0 0 300 300"><rect x="0" y="0" width="300" height="300" fill="#fefefe"/><g transform="scale(4.615)"><g transform="translate(4,4)"><path fill-rule="evenodd" d="M8 0L8 2L11 2L11 1L12 1L12 0L10 0L10 1L9 1L9 0ZM14 0L14 3L13 3L13 2L12 2L12 3L10 3L10 4L12 4L12 3L13 3L13 5L14 5L14 7L15 7L15 6L16 6L16 7L17 7L17 8L18 8L18 9L17 9L17 10L16 10L16 8L14 8L14 9L15 9L15 11L14 11L14 12L17 12L17 14L15 14L15 15L14 15L14 17L13 17L13 6L12 6L12 5L11 5L11 6L10 6L10 5L9 5L9 4L8 4L8 9L10 9L10 8L9 8L9 6L10 6L10 7L11 7L11 9L12 9L12 10L6 10L6 11L5 11L5 9L7 9L7 8L5 8L5 9L4 9L4 10L3 10L3 11L4 11L4 13L3 13L3 12L2 12L2 11L0 11L0 12L2 12L2 13L0 13L0 15L2 15L2 16L3 16L3 15L4 15L4 16L6 16L6 17L5 17L5 18L6 18L6 19L5 19L5 20L4 20L4 17L3 17L3 18L2 18L2 17L0 17L0 20L1 20L1 22L6 22L6 23L8 23L8 25L7 25L7 24L6 24L6 25L7 25L7 26L5 26L5 24L4 24L4 23L2 23L2 24L0 24L0 26L2 26L2 27L3 27L3 26L4 26L4 30L2 30L2 28L0 28L0 29L1 29L1 30L0 30L0 31L1 31L1 32L0 32L0 34L1 34L1 38L2 38L2 39L3 39L3 38L4 38L4 36L2 36L2 34L1 34L1 32L2 32L2 33L3 33L3 34L4 34L4 35L5 35L5 33L8 33L8 31L11 31L11 33L10 33L10 34L8 34L8 35L7 35L7 34L6 34L6 35L7 35L7 36L5 36L5 37L7 37L7 38L5 38L5 39L7 39L7 38L8 38L8 37L10 37L10 34L12 34L12 33L13 33L13 34L14 34L14 35L11 35L11 37L12 37L12 38L9 38L9 39L8 39L8 41L7 41L7 40L5 40L5 41L7 41L7 42L4 42L4 41L3 41L3 40L1 40L1 39L0 39L0 40L1 40L1 42L0 42L0 44L2 44L2 45L0 45L0 48L5 48L5 47L8 47L8 50L9 50L9 47L8 47L8 46L6 46L6 45L8 45L8 44L9 44L9 46L10 46L10 48L11 48L11 49L10 49L10 50L11 50L11 51L13 51L13 52L12 52L12 53L13 53L13 52L15 52L15 54L14 54L14 55L15 55L15 56L14 56L14 57L15 57L15 56L16 56L16 57L17 57L17 56L18 56L18 57L20 57L20 56L18 56L18 55L16 55L16 54L17 54L17 51L16 51L16 50L15 50L15 49L14 49L14 50L15 50L15 51L13 51L13 49L12 49L12 48L14 48L14 47L15 47L15 48L16 48L16 47L17 47L17 48L18 48L18 49L17 49L17 50L18 50L18 49L19 49L19 50L20 50L20 49L21 49L21 48L22 48L22 51L20 51L20 53L21 53L21 52L22 52L22 53L23 53L23 55L22 55L22 57L25 57L25 55L24 55L24 54L25 54L25 51L26 51L26 53L28 53L28 55L27 55L27 54L26 54L26 55L27 55L27 56L26 56L26 57L28 57L28 55L29 55L29 57L33 57L33 55L34 55L34 57L35 57L35 55L37 55L37 54L36 54L36 53L37 53L37 51L38 51L38 53L39 53L39 56L40 56L40 57L41 57L41 56L40 56L40 54L41 54L41 55L42 55L42 57L43 57L43 54L42 54L42 53L41 53L41 51L43 51L43 52L44 52L44 57L50 57L50 55L49 55L49 54L52 54L52 55L53 55L53 53L54 53L54 55L57 55L57 54L55 54L55 53L56 53L56 51L57 51L57 50L56 50L56 47L57 47L57 45L56 45L56 44L57 44L57 40L54 40L54 39L53 39L53 40L54 40L54 41L53 41L53 44L54 44L54 43L55 43L55 42L54 42L54 41L56 41L56 44L55 44L55 45L54 45L54 46L53 46L53 47L51 47L51 46L52 46L52 45L51 45L51 46L50 46L50 48L49 48L49 46L48 46L48 47L47 47L47 48L46 48L46 49L45 49L45 48L44 48L44 49L43 49L43 50L42 50L42 49L41 49L41 47L42 47L42 45L43 45L43 46L44 46L44 45L45 45L45 47L46 47L46 44L47 44L47 45L50 45L50 44L52 44L52 40L51 40L51 38L52 38L52 37L53 37L53 38L54 38L54 37L55 37L55 38L57 38L57 34L56 34L56 37L55 37L55 36L54 36L54 34L53 34L53 36L51 36L51 33L50 33L50 32L52 32L52 31L53 31L53 32L54 32L54 33L56 33L56 31L57 31L57 29L56 29L56 28L57 28L57 24L56 24L56 23L57 23L57 21L56 21L56 20L57 20L57 18L56 18L56 20L55 20L55 21L54 21L54 19L55 19L55 16L56 16L56 17L57 17L57 10L56 10L56 9L57 9L57 8L55 8L55 9L54 9L54 10L52 10L52 12L51 12L51 10L50 10L50 9L53 9L53 8L48 8L48 9L47 9L47 8L46 8L46 7L47 7L47 5L48 5L48 0L46 0L46 1L47 1L47 2L45 2L45 4L44 4L44 2L43 2L43 3L42 3L42 7L43 7L43 10L42 10L42 8L40 8L40 7L41 7L41 6L40 6L40 7L39 7L39 6L38 6L38 5L39 5L39 4L40 4L40 2L42 2L42 1L45 1L45 0L42 0L42 1L41 1L41 0L38 0L38 2L39 2L39 4L38 4L38 3L37 3L37 4L38 4L38 5L37 5L37 6L36 6L36 10L34 10L34 9L35 9L35 4L36 4L36 3L35 3L35 4L34 4L34 3L33 3L33 6L32 6L32 7L33 7L33 6L34 6L34 8L32 8L32 9L31 9L31 5L32 5L32 2L33 2L33 1L32 1L32 2L31 2L31 0L30 0L30 3L29 3L29 4L28 4L28 1L27 1L27 0L26 0L26 1L25 1L25 0L24 0L24 1L23 1L23 0L20 0L20 1L19 1L19 0L18 0L18 1L17 1L17 0L16 0L16 1L15 1L15 0ZM34 0L34 2L37 2L37 1L35 1L35 0ZM16 1L16 4L17 4L17 5L16 5L16 6L17 6L17 7L18 7L18 8L19 8L19 9L20 9L20 11L18 11L18 12L19 12L19 13L18 13L18 14L17 14L17 15L15 15L15 16L17 16L17 17L16 17L16 20L17 20L17 22L16 22L16 23L17 23L17 24L16 24L16 26L17 26L17 27L16 27L16 28L15 28L15 25L13 25L13 26L12 26L12 25L9 25L9 28L10 28L10 29L9 29L9 30L13 30L13 29L14 29L14 30L16 30L16 31L14 31L14 34L15 34L15 37L14 37L14 38L15 38L15 41L16 41L16 42L14 42L14 40L13 40L13 39L12 39L12 40L13 40L13 41L10 41L10 40L11 40L11 39L9 39L9 41L10 41L10 43L9 43L9 42L7 42L7 43L5 43L5 44L8 44L8 43L9 43L9 44L10 44L10 46L12 46L12 47L14 47L14 46L15 46L15 45L16 45L16 46L17 46L17 47L18 47L18 48L19 48L19 47L18 47L18 46L19 46L19 45L18 45L18 46L17 46L17 44L16 44L16 42L18 42L18 40L19 40L19 37L18 37L18 36L19 36L19 34L18 34L18 35L17 35L17 33L18 33L18 31L19 31L19 33L20 33L20 36L21 36L21 37L22 37L22 38L23 38L23 40L24 40L24 43L23 43L23 41L22 41L22 39L21 39L21 38L20 38L20 39L21 39L21 40L20 40L20 43L18 43L18 44L20 44L20 43L21 43L21 45L20 45L20 46L22 46L22 48L23 48L23 49L24 49L24 51L22 51L22 52L24 52L24 51L25 51L25 48L31 48L31 52L32 52L32 51L33 51L33 50L32 50L32 48L34 48L34 47L35 47L35 49L34 49L34 50L35 50L35 51L34 51L34 52L33 52L33 53L34 53L34 54L35 54L35 53L36 53L36 52L35 52L35 51L37 51L37 49L36 49L36 48L37 48L37 47L38 47L38 51L39 51L39 49L40 49L40 51L41 51L41 49L40 49L40 47L41 47L41 45L42 45L42 44L43 44L43 45L44 45L44 44L45 44L45 43L46 43L46 42L47 42L47 44L48 44L48 43L49 43L49 44L50 44L50 42L49 42L49 41L51 41L51 40L48 40L48 39L49 39L49 38L47 38L47 37L46 37L46 35L47 35L47 34L48 34L48 33L46 33L46 31L47 31L47 30L48 30L48 27L47 27L47 28L46 28L46 29L45 29L45 30L44 30L44 26L45 26L45 27L46 27L46 26L47 26L47 25L46 25L46 23L47 23L47 24L48 24L48 26L49 26L49 24L48 24L48 22L50 22L50 24L51 24L51 25L50 25L50 26L51 26L51 25L52 25L52 23L54 23L54 24L53 24L53 25L54 25L54 26L55 26L55 25L56 25L56 24L55 24L55 23L56 23L56 21L55 21L55 23L54 23L54 21L53 21L53 22L52 22L52 20L53 20L53 19L54 19L54 16L55 16L55 15L56 15L56 13L55 13L55 12L56 12L56 10L55 10L55 11L54 11L54 12L53 12L53 14L52 14L52 13L50 13L50 11L49 11L49 12L48 12L48 14L47 14L47 13L46 13L46 11L47 11L47 9L46 9L46 11L45 11L45 9L44 9L44 10L43 10L43 12L42 12L42 11L41 11L41 9L40 9L40 8L38 8L38 6L37 6L37 8L38 8L38 11L39 11L39 12L37 12L37 11L34 11L34 10L33 10L33 9L32 9L32 11L31 11L31 12L30 12L30 10L31 10L31 9L30 9L30 10L29 10L29 9L28 9L28 10L29 10L29 12L30 12L30 13L29 13L29 15L28 15L28 14L26 14L26 13L27 13L27 12L28 12L28 11L27 11L27 10L25 10L25 9L26 9L26 5L24 5L24 6L23 6L23 5L22 5L22 6L21 6L21 7L22 7L22 6L23 6L23 9L22 9L22 8L21 8L21 9L20 9L20 8L19 8L19 7L20 7L20 5L21 5L21 3L22 3L22 4L23 4L23 2L22 2L22 1L20 1L20 2L19 2L19 1L18 1L18 4L17 4L17 1ZM24 1L24 4L25 4L25 1ZM39 1L39 2L40 2L40 1ZM20 2L20 3L21 3L21 2ZM14 3L14 4L15 4L15 3ZM26 3L26 4L27 4L27 3ZM46 3L46 5L47 5L47 3ZM18 4L18 7L19 7L19 4ZM43 4L43 5L44 5L44 6L43 6L43 7L44 7L44 6L45 6L45 7L46 7L46 6L45 6L45 5L44 5L44 4ZM27 5L27 8L30 8L30 5ZM11 6L11 7L12 7L12 6ZM24 6L24 7L25 7L25 6ZM28 6L28 7L29 7L29 6ZM48 6L48 7L49 7L49 6ZM0 8L0 10L2 10L2 9L3 9L3 8ZM24 8L24 9L23 9L23 11L22 11L22 12L23 12L23 14L24 14L24 12L25 12L25 13L26 13L26 11L24 11L24 9L25 9L25 8ZM21 9L21 10L22 10L22 9ZM48 9L48 10L49 10L49 9ZM39 10L39 11L40 11L40 14L41 14L41 15L40 15L40 18L38 18L38 16L37 16L37 15L38 15L38 13L37 13L37 12L36 12L36 14L35 14L35 15L34 15L34 13L35 13L35 12L34 12L34 11L33 11L33 12L32 12L32 13L31 13L31 14L32 14L32 13L33 13L33 15L32 15L32 17L31 17L31 16L30 16L30 15L29 15L29 16L30 16L30 17L28 17L28 18L30 18L30 17L31 17L31 19L30 19L30 20L32 20L32 21L33 21L33 22L31 22L31 23L30 23L30 24L29 24L29 22L30 22L30 21L29 21L29 19L28 19L28 21L29 21L29 22L28 22L28 23L26 23L26 22L27 22L27 20L26 20L26 19L27 19L27 16L26 16L26 15L25 15L25 16L26 16L26 19L25 19L25 18L24 18L24 15L23 15L23 16L22 16L22 14L20 14L20 13L21 13L21 12L20 12L20 13L19 13L19 14L18 14L18 17L19 17L19 18L18 18L18 19L20 19L20 17L21 17L21 18L22 18L22 21L21 21L21 20L20 20L20 21L21 21L21 22L20 22L20 23L21 23L21 30L22 30L22 33L23 33L23 34L21 34L21 36L22 36L22 37L23 37L23 35L25 35L25 36L24 36L24 37L25 37L25 36L26 36L26 37L27 37L27 36L28 36L28 37L29 37L29 36L28 36L28 35L31 35L31 36L30 36L30 40L25 40L25 41L26 41L26 42L25 42L25 43L24 43L24 44L25 44L25 45L26 45L26 46L24 46L24 47L23 47L23 48L25 48L25 47L26 47L26 46L28 46L28 44L29 44L29 43L28 43L28 41L29 41L29 42L30 42L30 44L31 44L31 42L30 42L30 40L31 40L31 38L34 38L34 41L33 41L33 40L32 40L32 46L33 46L33 47L34 47L34 45L33 45L33 44L36 44L36 45L37 45L37 46L35 46L35 47L37 47L37 46L38 46L38 45L37 45L37 44L40 44L40 45L39 45L39 46L40 46L40 45L41 45L41 42L42 42L42 43L43 43L43 44L44 44L44 42L46 42L46 40L47 40L47 41L48 41L48 40L47 40L47 38L46 38L46 37L45 37L45 35L46 35L46 33L45 33L45 31L46 31L46 30L45 30L45 31L44 31L44 30L43 30L43 31L42 31L42 28L43 28L43 27L41 27L41 28L40 28L40 30L39 30L39 31L38 31L38 30L37 30L37 31L36 31L36 29L37 29L37 28L38 28L38 29L39 29L39 27L40 27L40 26L42 26L42 25L43 25L43 26L44 26L44 25L45 25L45 26L46 26L46 25L45 25L45 24L44 24L44 25L43 25L43 24L42 24L42 23L43 23L43 22L44 22L44 23L45 23L45 22L46 22L46 21L47 21L47 19L48 19L48 20L51 20L51 18L52 18L52 17L53 17L53 16L54 16L54 14L55 14L55 13L54 13L54 14L53 14L53 16L52 16L52 17L51 17L51 18L50 18L50 17L49 17L49 19L48 19L48 16L50 16L50 13L49 13L49 14L48 14L48 15L47 15L47 16L46 16L46 13L45 13L45 12L44 12L44 14L43 14L43 16L44 16L44 17L43 17L43 18L42 18L42 17L41 17L41 15L42 15L42 12L41 12L41 11L40 11L40 10ZM6 11L6 12L7 12L7 13L6 13L6 14L7 14L7 13L8 13L8 14L9 14L9 16L8 16L8 15L6 15L6 16L8 16L8 19L6 19L6 20L5 20L5 21L6 21L6 22L7 22L7 21L6 21L6 20L8 20L8 23L9 23L9 22L10 22L10 24L12 24L12 22L13 22L13 24L15 24L15 21L14 21L14 22L13 22L13 21L12 21L12 20L11 20L11 19L10 19L10 18L9 18L9 17L10 17L10 16L11 16L11 18L12 18L12 19L13 19L13 17L12 17L12 16L11 16L11 15L12 15L12 14L10 14L10 13L8 13L8 12L10 12L10 11ZM19 14L19 17L20 17L20 16L21 16L21 15L20 15L20 14ZM36 14L36 15L35 15L35 17L34 17L34 15L33 15L33 17L34 17L34 18L36 18L36 19L37 19L37 20L38 20L38 23L36 23L36 22L37 22L37 21L36 21L36 20L35 20L35 19L34 19L34 20L35 20L35 21L34 21L34 22L35 22L35 23L36 23L36 24L34 24L34 23L33 23L33 24L34 24L34 26L33 26L33 25L32 25L32 23L31 23L31 24L30 24L30 26L31 26L31 25L32 25L32 27L31 27L31 29L32 29L32 31L31 31L31 32L30 32L30 31L29 31L29 32L26 32L26 30L25 30L25 29L24 29L24 28L23 28L23 27L24 27L24 26L25 26L25 25L24 25L24 26L23 26L23 27L22 27L22 28L23 28L23 29L22 29L22 30L23 30L23 31L24 31L24 34L25 34L25 35L26 35L26 33L28 33L28 34L27 34L27 35L28 35L28 34L29 34L29 32L30 32L30 34L31 34L31 33L32 33L32 34L33 34L33 35L34 35L34 34L35 34L35 33L36 33L36 35L35 35L35 36L33 36L33 37L34 37L34 38L35 38L35 41L34 41L34 42L35 42L35 41L36 41L36 44L37 44L37 43L40 43L40 42L41 42L41 41L42 41L42 42L43 42L43 38L44 38L44 34L45 34L45 33L44 33L44 34L43 34L43 33L42 33L42 31L41 31L41 30L40 30L40 32L39 32L39 33L38 33L38 34L37 34L37 33L36 33L36 31L35 31L35 29L36 29L36 27L37 27L37 26L36 26L36 24L37 24L37 25L38 25L38 26L40 26L40 23L42 23L42 22L43 22L43 21L44 21L44 22L45 22L45 21L46 21L46 19L47 19L47 17L46 17L46 16L45 16L45 14L44 14L44 16L45 16L45 17L44 17L44 19L43 19L43 20L42 20L42 19L41 19L41 18L40 18L40 19L39 19L39 20L38 20L38 19L37 19L37 18L36 18L36 15L37 15L37 14ZM51 14L51 15L52 15L52 14ZM6 17L6 18L7 18L7 17ZM45 17L45 18L46 18L46 17ZM1 18L1 19L2 19L2 18ZM8 19L8 20L9 20L9 19ZM14 19L14 20L15 20L15 19ZM24 19L24 20L25 20L25 21L26 21L26 20L25 20L25 19ZM40 19L40 22L42 22L42 20L41 20L41 19ZM44 19L44 21L45 21L45 19ZM3 20L3 21L4 21L4 20ZM10 20L10 22L12 22L12 21L11 21L11 20ZM18 20L18 22L17 22L17 23L18 23L18 26L19 26L19 23L18 23L18 22L19 22L19 20ZM35 21L35 22L36 22L36 21ZM21 22L21 23L22 23L22 24L23 24L23 23L22 23L22 22ZM24 22L24 23L25 23L25 22ZM51 22L51 23L52 23L52 22ZM38 23L38 25L39 25L39 23ZM3 24L3 25L4 25L4 24ZM41 24L41 25L42 25L42 24ZM54 24L54 25L55 25L55 24ZM26 25L26 26L27 26L27 25ZM28 25L28 26L29 26L29 25ZM13 26L13 27L10 27L10 28L14 28L14 29L15 29L15 28L14 28L14 26ZM5 27L5 30L8 30L8 27ZM18 27L18 28L19 28L19 31L20 31L20 32L21 32L21 31L20 31L20 27ZM27 27L27 30L30 30L30 27ZM34 27L34 29L33 29L33 28L32 28L32 29L33 29L33 31L32 31L32 33L33 33L33 34L34 34L34 32L35 32L35 31L34 31L34 29L35 29L35 27ZM49 27L49 30L52 30L52 27ZM54 27L54 28L53 28L53 31L54 31L54 32L55 32L55 31L56 31L56 30L55 30L55 27ZM6 28L6 29L7 29L7 28ZM28 28L28 29L29 29L29 28ZM50 28L50 29L51 29L51 28ZM23 29L23 30L24 30L24 31L25 31L25 30L24 30L24 29ZM1 30L1 31L2 31L2 30ZM54 30L54 31L55 31L55 30ZM3 31L3 33L4 33L4 32L5 32L5 31ZM6 31L6 32L7 32L7 31ZM12 31L12 32L13 32L13 31ZM16 31L16 32L15 32L15 34L16 34L16 33L17 33L17 31ZM37 31L37 32L38 32L38 31ZM49 31L49 32L50 32L50 31ZM25 32L25 33L26 33L26 32ZM40 32L40 34L42 34L42 33L41 33L41 32ZM49 33L49 37L50 37L50 38L51 38L51 36L50 36L50 33ZM38 34L38 36L37 36L37 35L36 35L36 37L35 37L35 38L36 38L36 41L37 41L37 42L38 42L38 41L39 41L39 38L40 38L40 39L41 39L41 40L40 40L40 41L41 41L41 40L42 40L42 39L41 39L41 36L42 36L42 37L43 37L43 36L42 36L42 35L40 35L40 36L39 36L39 34ZM7 36L7 37L8 37L8 36ZM16 36L16 37L17 37L17 36ZM31 36L31 37L32 37L32 36ZM38 36L38 38L39 38L39 36ZM53 36L53 37L54 37L54 36ZM36 37L36 38L37 38L37 37ZM16 38L16 39L18 39L18 38ZM24 38L24 39L26 39L26 38ZM28 38L28 39L29 39L29 38ZM37 39L37 41L38 41L38 39ZM45 39L45 40L46 40L46 39ZM16 40L16 41L17 41L17 40ZM1 42L1 43L2 43L2 44L3 44L3 43L2 43L2 42ZM11 42L11 43L10 43L10 44L11 44L11 43L13 43L13 44L12 44L12 45L13 45L13 46L14 46L14 45L15 45L15 43L13 43L13 42ZM22 43L22 44L23 44L23 43ZM13 44L13 45L14 45L14 44ZM2 45L2 46L1 46L1 47L2 47L2 46L3 46L3 47L5 47L5 45L4 45L4 46L3 46L3 45ZM29 45L29 46L30 46L30 47L31 47L31 48L32 48L32 47L31 47L31 46L30 46L30 45ZM55 45L55 47L54 47L54 50L53 50L53 51L54 51L54 52L55 52L55 51L56 51L56 50L55 50L55 47L56 47L56 45ZM20 47L20 48L21 48L21 47ZM6 48L6 49L7 49L7 48ZM27 49L27 52L30 52L30 49ZM44 49L44 50L43 50L43 51L44 51L44 50L45 50L45 51L46 51L46 50L47 50L47 49L46 49L46 50L45 50L45 49ZM49 49L49 52L52 52L52 49ZM28 50L28 51L29 51L29 50ZM50 50L50 51L51 51L51 50ZM8 51L8 52L9 52L9 51ZM15 51L15 52L16 52L16 51ZM18 51L18 54L19 54L19 51ZM47 51L47 52L46 52L46 56L48 56L48 54L49 54L49 53L47 53L47 52L48 52L48 51ZM39 52L39 53L40 53L40 52ZM9 53L9 54L8 54L8 57L9 57L9 54L10 54L10 56L11 56L11 53ZM31 53L31 54L30 54L30 55L33 55L33 54L32 54L32 53ZM20 54L20 55L21 55L21 54ZM12 56L12 57L13 57L13 56ZM36 56L36 57L37 57L37 56ZM51 56L51 57L53 57L53 56ZM56 56L56 57L57 57L57 56ZM0 0L0 7L7 7L7 0ZM1 1L1 6L6 6L6 1ZM2 2L2 5L5 5L5 2ZM50 0L50 7L57 7L57 0ZM51 1L51 6L56 6L56 1ZM52 2L52 5L55 5L55 2ZM0 50L0 57L7 57L7 50ZM1 51L1 56L6 56L6 51ZM2 52L2 55L5 55L5 52Z" fill="#000000"/></g></g></svg>
