<?xml version="1.0" encoding="UTF-8"?>
<svg xmlns="http://www.w3.org/2000/svg" version="1.1" width="300" height="300" viewBox="0 0 300 300"><rect x="0" y="0" width="300" height="300" fill="#fefefe"/><g transform="scale(4.615)"><g transform="translate(4,4)"><path fill-rule="evenodd" d="M8 0L8 1L10 1L10 2L11 2L11 3L10 3L10 4L9 4L9 2L8 2L8 5L9 5L9 6L8 6L8 7L9 7L9 6L10 6L10 8L8 8L8 9L7 9L7 8L6 8L6 9L4 9L4 8L0 8L0 10L1 10L1 14L3 14L3 16L4 16L4 13L5 13L5 14L6 14L6 15L5 15L5 16L6 16L6 17L5 17L5 18L6 18L6 19L5 19L5 21L8 21L8 23L9 23L9 25L10 25L10 26L6 26L6 25L7 25L7 24L6 24L6 23L7 23L7 22L5 22L5 25L4 25L4 24L3 24L3 23L4 23L4 21L3 21L3 20L4 20L4 18L3 18L3 17L2 17L2 16L0 16L0 17L2 17L2 18L3 18L3 20L2 20L2 22L1 22L1 21L0 21L0 22L1 22L1 24L0 24L0 26L2 26L2 27L3 27L3 28L4 28L4 31L3 31L3 32L2 32L2 33L0 33L0 34L2 34L2 35L0 35L0 36L1 36L1 37L2 37L2 38L3 38L3 39L0 39L0 40L2 40L2 42L3 42L3 44L5 44L5 43L7 43L7 44L6 44L6 45L9 45L9 48L10 48L10 50L14 50L14 51L13 51L13 52L11 52L11 51L9 51L9 53L8 53L8 57L9 57L9 53L10 53L10 55L11 55L11 53L13 53L13 54L12 54L12 55L13 55L13 56L10 56L10 57L14 57L14 56L16 56L16 57L18 57L18 56L19 56L19 57L20 57L20 56L21 56L21 57L24 57L24 56L25 56L25 55L26 55L26 56L28 56L28 55L26 55L26 54L25 54L25 53L29 53L29 54L31 54L31 55L30 55L30 56L31 56L31 57L32 57L32 55L34 55L34 56L33 56L33 57L36 57L36 55L38 55L38 57L41 57L41 54L42 54L42 57L43 57L43 55L44 55L44 56L45 56L45 57L51 57L51 54L52 54L52 53L54 53L54 52L55 52L55 54L56 54L56 52L57 52L57 51L56 51L56 49L57 49L57 48L56 48L56 49L55 49L55 48L54 48L54 47L57 47L57 45L56 45L56 44L52 44L52 43L53 43L53 42L54 42L54 43L56 43L56 42L54 42L54 41L53 41L53 40L55 40L55 39L54 39L54 38L56 38L56 39L57 39L57 38L56 38L56 37L55 37L55 36L57 36L57 34L55 34L55 33L57 33L57 31L56 31L56 30L57 30L57 29L56 29L56 30L55 30L55 27L53 27L53 25L52 25L52 26L51 26L51 24L54 24L54 23L53 23L53 20L50 20L50 19L56 19L56 18L57 18L57 15L52 15L52 16L51 16L51 13L52 13L52 14L55 14L55 13L54 13L54 10L53 10L53 13L52 13L52 12L51 12L51 11L52 11L52 9L55 9L55 12L56 12L56 13L57 13L57 10L56 10L56 9L57 9L57 8L56 8L56 9L55 9L55 8L52 8L52 9L51 9L51 11L49 11L49 15L50 15L50 16L51 16L51 18L50 18L50 19L49 19L49 18L48 18L48 17L49 17L49 16L48 16L48 14L47 14L47 15L46 15L46 17L45 17L45 16L44 16L44 15L43 15L43 14L42 14L42 17L41 17L41 18L39 18L39 19L40 19L40 20L39 20L39 24L38 24L38 23L37 23L37 24L36 24L36 23L35 23L35 24L33 24L33 22L32 22L32 23L31 23L31 21L30 21L30 20L27 20L27 17L29 17L29 18L28 18L28 19L30 19L30 17L29 17L29 16L32 16L32 17L31 17L31 20L32 20L32 17L33 17L33 21L35 21L35 22L38 22L38 21L36 21L36 20L38 20L38 19L36 19L36 20L35 20L35 19L34 19L34 18L35 18L35 17L34 17L34 16L35 16L35 15L36 15L36 13L37 13L37 15L39 15L39 17L40 17L40 16L41 16L41 14L40 14L40 10L43 10L43 9L42 9L42 8L43 8L43 6L42 6L42 8L38 8L38 7L39 7L39 6L38 6L38 5L40 5L40 7L41 7L41 4L43 4L43 5L45 5L45 6L44 6L44 7L45 7L45 6L46 6L46 9L47 9L47 10L46 10L46 11L48 11L48 10L50 10L50 8L49 8L49 6L48 6L48 7L47 7L47 5L48 5L48 0L46 0L46 1L47 1L47 2L46 2L46 3L47 3L47 5L45 5L45 4L44 4L44 3L45 3L45 1L44 1L44 2L41 2L41 1L43 1L43 0L41 0L41 1L40 1L40 0L39 0L39 1L40 1L40 2L41 2L41 4L38 4L38 3L37 3L37 1L38 1L38 0L37 0L37 1L36 1L36 0L35 0L35 1L34 1L34 3L33 3L33 1L32 1L32 2L31 2L31 4L30 4L30 1L31 1L31 0L27 0L27 3L28 3L28 2L29 2L29 4L26 4L26 2L24 2L24 3L23 3L23 5L22 5L22 4L21 4L21 5L20 5L20 4L19 4L19 3L18 3L18 1L20 1L20 0L17 0L17 2L16 2L16 1L15 1L15 3L17 3L17 4L19 4L19 5L18 5L18 7L19 7L19 8L20 8L20 7L21 7L21 6L22 6L22 7L23 7L23 8L21 8L21 11L23 11L23 12L22 12L22 13L23 13L23 18L22 18L22 17L21 17L21 12L20 12L20 9L19 9L19 12L18 12L18 9L17 9L17 10L16 10L16 11L14 11L14 10L13 10L13 9L12 9L12 8L14 8L14 7L15 7L15 6L16 6L16 7L17 7L17 5L15 5L15 4L14 4L14 3L13 3L13 4L14 4L14 5L12 5L12 2L13 2L13 1L12 1L12 0L11 0L11 1L10 1L10 0ZM21 0L21 1L22 1L22 0ZM23 0L23 1L26 1L26 0ZM35 1L35 2L36 2L36 1ZM32 3L32 4L31 4L31 5L32 5L32 6L31 6L31 9L32 9L32 10L30 10L30 11L27 11L27 10L29 10L29 9L27 9L27 10L26 10L26 11L25 11L25 12L24 12L24 15L26 15L26 16L25 16L25 17L24 17L24 18L23 18L23 21L24 21L24 22L25 22L25 25L24 25L24 24L23 24L23 23L22 23L22 19L21 19L21 20L20 20L20 18L21 18L21 17L19 17L19 15L20 15L20 14L19 14L19 13L20 13L20 12L19 12L19 13L18 13L18 12L17 12L17 13L16 13L16 12L15 12L15 15L16 15L16 16L17 16L17 17L19 17L19 20L18 20L18 19L17 19L17 18L16 18L16 17L15 17L15 18L14 18L14 13L13 13L13 15L12 15L12 16L13 16L13 17L11 17L11 16L7 16L7 15L8 15L8 14L9 14L9 15L11 15L11 13L12 13L12 10L10 10L10 9L11 9L11 8L10 8L10 9L9 9L9 10L10 10L10 11L9 11L9 12L10 12L10 13L8 13L8 14L7 14L7 13L6 13L6 14L7 14L7 15L6 15L6 16L7 16L7 17L6 17L6 18L7 18L7 17L8 17L8 20L9 20L9 21L10 21L10 22L9 22L9 23L10 23L10 25L11 25L11 26L10 26L10 28L9 28L9 31L8 31L8 32L7 32L7 31L6 31L6 32L7 32L7 33L6 33L6 34L7 34L7 33L8 33L8 34L10 34L10 33L11 33L11 34L12 34L12 35L9 35L9 38L7 38L7 37L8 37L8 35L6 35L6 36L7 36L7 37L6 37L6 38L7 38L7 39L5 39L5 37L4 37L4 36L3 36L3 35L2 35L2 37L4 37L4 40L3 40L3 41L4 41L4 42L7 42L7 43L9 43L9 45L10 45L10 46L11 46L11 47L10 47L10 48L11 48L11 47L12 47L12 48L13 48L13 47L14 47L14 50L15 50L15 48L16 48L16 50L17 50L17 47L18 47L18 48L20 48L20 47L19 47L19 46L17 46L17 45L20 45L20 46L21 46L21 47L22 47L22 46L23 46L23 48L21 48L21 50L20 50L20 49L18 49L18 51L17 51L17 52L16 52L16 51L15 51L15 52L13 52L13 53L14 53L14 54L13 54L13 55L15 55L15 53L16 53L16 54L17 54L17 56L18 56L18 55L19 55L19 56L20 56L20 55L21 55L21 56L22 56L22 55L21 55L21 54L23 54L23 56L24 56L24 55L25 55L25 54L23 54L23 52L24 52L24 53L25 53L25 52L26 52L26 50L25 50L25 49L26 49L26 48L29 48L29 47L30 47L30 48L32 48L32 49L31 49L31 50L32 50L32 49L33 49L33 50L34 50L34 51L33 51L33 53L36 53L36 54L34 54L34 55L36 55L36 54L37 54L37 51L36 51L36 52L35 52L35 48L37 48L37 49L36 49L36 50L37 50L37 49L38 49L38 48L39 48L39 49L40 49L40 50L39 50L39 51L38 51L38 52L40 52L40 54L41 54L41 53L42 53L42 54L43 54L43 51L46 51L46 50L47 50L47 52L48 52L48 48L46 48L46 50L45 50L45 48L44 48L44 50L43 50L43 47L46 47L46 46L47 46L47 45L48 45L48 47L49 47L49 48L50 48L50 47L49 47L49 46L51 46L51 48L53 48L53 50L55 50L55 49L54 49L54 48L53 48L53 47L52 47L52 46L54 46L54 45L52 45L52 44L51 44L51 42L50 42L50 41L52 41L52 40L50 40L50 39L53 39L53 38L54 38L54 37L53 37L53 36L52 36L52 35L51 35L51 37L52 37L52 38L50 38L50 36L48 36L48 35L49 35L49 34L50 34L50 33L49 33L49 32L51 32L51 31L49 31L49 32L48 32L48 30L47 30L47 31L46 31L46 33L45 33L45 30L46 30L46 26L47 26L47 23L46 23L46 24L45 24L45 23L43 23L43 22L41 22L41 23L40 23L40 24L39 24L39 25L41 25L41 24L42 24L42 23L43 23L43 24L44 24L44 25L42 25L42 26L45 26L45 29L44 29L44 28L43 28L43 27L42 27L42 28L43 28L43 29L42 29L42 30L41 30L41 26L38 26L38 27L39 27L39 28L40 28L40 30L39 30L39 29L38 29L38 30L37 30L37 28L34 28L34 29L36 29L36 30L35 30L35 31L37 31L37 32L36 32L36 33L37 33L37 32L38 32L38 34L39 34L39 31L40 31L40 32L41 32L41 31L43 31L43 30L44 30L44 33L45 33L45 34L46 34L46 35L47 35L47 37L46 37L46 36L44 36L44 37L43 37L43 35L44 35L44 34L43 34L43 35L42 35L42 34L41 34L41 35L39 35L39 36L38 36L38 35L37 35L37 36L38 36L38 37L39 37L39 36L40 36L40 37L41 37L41 39L42 39L42 38L44 38L44 39L45 39L45 41L43 41L43 40L42 40L42 42L41 42L41 40L40 40L40 41L37 41L37 40L38 40L38 39L39 39L39 38L37 38L37 37L34 37L34 36L36 36L36 35L34 35L34 36L32 36L32 35L33 35L33 34L35 34L35 33L34 33L34 32L31 32L31 34L30 34L30 35L29 35L29 33L30 33L30 31L29 31L29 32L28 32L28 31L24 31L24 30L26 30L26 28L25 28L25 25L27 25L27 26L28 26L28 25L29 25L29 24L28 24L28 23L30 23L30 24L31 24L31 23L30 23L30 21L28 21L28 23L27 23L27 22L25 22L25 19L26 19L26 18L25 18L25 17L27 17L27 15L26 15L26 14L25 14L25 13L26 13L26 12L28 12L28 13L30 13L30 14L33 14L33 15L35 15L35 12L38 12L38 11L37 11L37 8L36 8L36 9L34 9L34 6L35 6L35 7L36 7L36 6L37 6L37 7L38 7L38 6L37 6L37 5L36 5L36 4L34 4L34 5L33 5L33 3ZM24 4L24 6L23 6L23 7L24 7L24 8L23 8L23 9L26 9L26 6L25 6L25 5L26 5L26 4ZM10 5L10 6L11 6L11 7L12 7L12 6L11 6L11 5ZM27 5L27 8L30 8L30 5ZM13 6L13 7L14 7L14 6ZM19 6L19 7L20 7L20 6ZM24 6L24 7L25 7L25 6ZM28 6L28 7L29 7L29 6ZM32 6L32 8L33 8L33 6ZM47 8L47 9L49 9L49 8ZM2 9L2 12L3 12L3 13L4 13L4 10L3 10L3 9ZM6 9L6 10L7 10L7 11L5 11L5 12L7 12L7 11L8 11L8 10L7 10L7 9ZM38 9L38 10L40 10L40 9ZM44 9L44 10L45 10L45 9ZM33 10L33 14L34 14L34 12L35 12L35 11L36 11L36 10L35 10L35 11L34 11L34 10ZM10 11L10 12L11 12L11 11ZM30 11L30 12L31 12L31 13L32 13L32 12L31 12L31 11ZM42 11L42 12L43 12L43 13L44 13L44 14L46 14L46 13L44 13L44 11ZM50 12L50 13L51 13L51 12ZM16 14L16 15L17 15L17 16L18 16L18 14ZM28 15L28 16L29 16L29 15ZM52 16L52 17L53 17L53 18L54 18L54 17L55 17L55 18L56 18L56 17L55 17L55 16ZM36 17L36 18L37 18L37 17ZM42 17L42 18L41 18L41 20L43 20L43 21L44 21L44 22L47 22L47 21L48 21L48 20L49 20L49 23L52 23L52 22L51 22L51 21L50 21L50 20L49 20L49 19L48 19L48 18L45 18L45 17ZM0 18L0 19L1 19L1 18ZM9 18L9 19L11 19L11 20L10 20L10 21L11 21L11 22L10 22L10 23L11 23L11 22L12 22L12 23L13 23L13 24L16 24L16 23L18 23L18 24L17 24L17 26L16 26L16 25L14 25L14 26L16 26L16 27L19 27L19 26L18 26L18 25L20 25L20 26L22 26L22 27L24 27L24 26L23 26L23 25L22 25L22 23L21 23L21 22L19 22L19 23L18 23L18 20L16 20L16 23L14 23L14 20L15 20L15 19L16 19L16 18L15 18L15 19L13 19L13 20L12 20L12 19L11 19L11 18ZM24 18L24 19L25 19L25 18ZM42 18L42 19L43 19L43 18ZM44 18L44 19L45 19L45 21L47 21L47 20L46 20L46 19L45 19L45 18ZM6 19L6 20L7 20L7 19ZM26 20L26 21L27 21L27 20ZM54 20L54 21L55 21L55 20ZM12 21L12 22L13 22L13 21ZM56 21L56 22L55 22L55 23L57 23L57 21ZM20 23L20 24L21 24L21 23ZM26 23L26 24L27 24L27 23ZM1 24L1 25L3 25L3 24ZM32 24L32 25L33 25L33 24ZM48 24L48 26L49 26L49 24ZM55 24L55 25L56 25L56 24ZM30 25L30 26L31 26L31 25ZM34 25L34 27L35 27L35 25ZM45 25L45 26L46 26L46 25ZM11 26L11 28L10 28L10 29L11 29L11 30L10 30L10 31L9 31L9 33L10 33L10 31L11 31L11 32L12 32L12 31L13 31L13 30L15 30L15 31L16 31L16 32L14 32L14 33L12 33L12 34L14 34L14 35L12 35L12 36L13 36L13 37L12 37L12 38L11 38L11 36L10 36L10 39L7 39L7 40L6 40L6 41L10 41L10 39L11 39L11 42L12 42L12 45L11 45L11 43L10 43L10 45L11 45L11 46L15 46L15 45L16 45L16 44L17 44L17 41L15 41L15 45L14 45L14 42L13 42L13 41L14 41L14 40L16 40L16 39L19 39L19 41L18 41L18 43L19 43L19 44L20 44L20 45L21 45L21 46L22 46L22 44L23 44L23 45L24 45L24 46L25 46L25 45L26 45L26 46L27 46L27 47L28 47L28 46L27 46L27 45L26 45L26 43L25 43L25 42L27 42L27 43L28 43L28 44L29 44L29 46L31 46L31 45L30 45L30 44L29 44L29 43L32 43L32 42L33 42L33 45L32 45L32 48L33 48L33 45L34 45L34 44L35 44L35 46L34 46L34 47L35 47L35 46L37 46L37 47L38 47L38 45L39 45L39 47L43 47L43 45L42 45L42 43L43 43L43 42L42 42L42 43L41 43L41 42L37 42L37 44L38 44L38 45L36 45L36 44L35 44L35 43L34 43L34 42L36 42L36 41L34 41L34 40L35 40L35 39L36 39L36 38L34 38L34 37L33 37L33 38L32 38L32 36L29 36L29 35L28 35L28 34L27 34L27 33L28 33L28 32L24 32L24 33L23 33L23 31L22 31L22 32L20 32L20 33L21 33L21 34L20 34L20 35L19 35L19 36L18 36L18 38L14 38L14 40L13 40L13 37L15 37L15 36L17 36L17 35L18 35L18 33L17 33L17 35L16 35L16 34L14 34L14 33L16 33L16 32L18 32L18 31L19 31L19 30L17 30L17 28L15 28L15 27L14 27L14 28L13 28L13 29L11 29L11 28L12 28L12 27L13 27L13 26ZM5 27L5 30L8 30L8 27ZM20 27L20 29L21 29L21 30L24 30L24 29L21 29L21 27ZM27 27L27 30L30 30L30 27ZM32 27L32 28L33 28L33 27ZM47 27L47 28L48 28L48 27ZM49 27L49 30L52 30L52 27ZM56 27L56 28L57 28L57 27ZM1 28L1 29L0 29L0 30L1 30L1 29L2 29L2 28ZM6 28L6 29L7 29L7 28ZM18 28L18 29L19 29L19 28ZM28 28L28 29L29 29L29 28ZM50 28L50 29L51 29L51 28ZM53 28L53 31L52 31L52 34L54 34L54 33L53 33L53 31L54 31L54 32L55 32L55 30L54 30L54 28ZM15 29L15 30L16 30L16 29ZM32 29L32 30L31 30L31 31L32 31L32 30L33 30L33 29ZM38 30L38 31L39 31L39 30ZM4 31L4 32L3 32L3 33L4 33L4 32L5 32L5 31ZM42 32L42 33L43 33L43 32ZM22 33L22 34L21 34L21 35L20 35L20 36L19 36L19 37L20 37L20 38L21 38L21 40L22 40L22 41L24 41L24 42L25 42L25 41L26 41L26 39L25 39L25 38L29 38L29 36L27 36L27 34L26 34L26 33L25 33L25 34L24 34L24 35L23 35L23 33ZM32 33L32 34L33 34L33 33ZM4 34L4 35L5 35L5 34ZM25 34L25 35L26 35L26 34ZM47 34L47 35L48 35L48 34ZM14 35L14 36L15 36L15 35ZM21 35L21 36L22 36L22 35ZM41 35L41 36L42 36L42 35ZM54 35L54 36L55 36L55 35ZM23 36L23 38L22 38L22 37L21 37L21 38L22 38L22 39L24 39L24 41L25 41L25 39L24 39L24 37L25 37L25 36ZM26 36L26 37L27 37L27 36ZM45 37L45 39L46 39L46 41L45 41L45 42L44 42L44 44L49 44L49 43L50 43L50 42L49 42L49 43L48 43L48 42L47 42L47 41L50 41L50 40L47 40L47 39L48 39L48 38L49 38L49 37L47 37L47 38L46 38L46 37ZM30 38L30 39L28 39L28 41L29 41L29 42L31 42L31 40L33 40L33 39L34 39L34 38L33 38L33 39L32 39L32 38ZM4 40L4 41L5 41L5 40ZM12 40L12 41L13 41L13 40ZM29 40L29 41L30 41L30 40ZM56 40L56 41L57 41L57 40ZM19 41L19 42L21 42L21 44L22 44L22 42L21 42L21 41ZM0 42L0 43L1 43L1 42ZM38 43L38 44L39 44L39 43ZM40 43L40 44L41 44L41 43ZM0 44L0 45L1 45L1 46L0 46L0 48L5 48L5 47L7 47L7 48L6 48L6 49L8 49L8 50L9 50L9 49L8 49L8 47L7 47L7 46L5 46L5 45L4 45L4 46L5 46L5 47L3 47L3 45L1 45L1 44ZM50 44L50 45L51 45L51 44ZM44 45L44 46L45 46L45 45ZM55 45L55 46L56 46L56 45ZM1 46L1 47L2 47L2 46ZM16 46L16 47L17 47L17 46ZM23 48L23 49L22 49L22 50L21 50L21 51L18 51L18 52L19 52L19 55L20 55L20 53L22 53L22 52L21 52L21 51L23 51L23 49L24 49L24 48ZM41 48L41 49L42 49L42 48ZM27 49L27 52L30 52L30 49ZM49 49L49 52L52 52L52 49ZM24 50L24 51L25 51L25 50ZM28 50L28 51L29 51L29 50ZM50 50L50 51L51 51L51 50ZM31 51L31 53L32 53L32 51ZM40 51L40 52L41 52L41 51ZM55 51L55 52L56 52L56 51ZM10 52L10 53L11 53L11 52ZM45 52L45 53L46 53L46 52ZM17 53L17 54L18 54L18 53ZM38 53L38 54L39 54L39 53ZM47 53L47 54L50 54L50 53ZM44 54L44 55L45 55L45 54ZM39 55L39 56L40 56L40 55ZM47 55L47 56L49 56L49 55ZM56 55L56 56L57 56L57 55ZM52 56L52 57L53 57L53 56ZM54 56L54 57L55 57L55 56ZM0 0L0 7L7 7L7 0ZM1 1L1 6L6 6L6 1ZM2 2L2 5L5 5L5 2ZM50 0L50 7L57 7L57 0ZM51 1L51 6L56 6L56 1ZM52 2L52 5L55 5L55 2ZM0 50L0 57L7 57L7 50ZM1 51L1 56L6 56L6 51ZM2 52L2 55L5 55L5 52Z" fill="#000000"/></g></g></svg>
