<?xml version="1.0" encoding="UTF-8"?>
<svg xmlns="http://www.w3.org/2000/svg" version="1.1" width="300" height="300" viewBox="0 0 300 300"><rect x="0" y="0" width="300" height="300" fill="#fefefe"/><g transform="scale(4.615)"><g transform="translate(4,4)"><path fill-rule="evenodd" d="M8 0L8 4L9 4L9 5L8 5L8 7L9 7L9 8L10 8L10 10L9 10L9 9L7 9L7 8L4 8L4 9L2 9L2 8L0 8L0 11L1 11L1 9L2 9L2 12L0 12L0 18L1 18L1 17L3 17L3 19L0 19L0 20L1 20L1 21L2 21L2 22L1 22L1 23L2 23L2 24L3 24L3 25L4 25L4 24L3 24L3 22L4 22L4 23L5 23L5 22L6 22L6 23L7 23L7 24L6 24L6 25L5 25L5 26L4 26L4 27L3 27L3 26L2 26L2 27L0 27L0 30L1 30L1 32L0 32L0 35L1 35L1 37L0 37L0 38L2 38L2 40L0 40L0 48L5 48L5 47L7 47L7 48L6 48L6 49L8 49L8 50L9 50L9 49L11 49L11 50L10 50L10 51L11 51L11 52L12 52L12 51L11 51L11 50L12 50L12 49L13 49L13 51L14 51L14 52L15 52L15 51L16 51L16 52L17 52L17 53L15 53L15 55L14 55L14 57L16 57L16 56L15 56L15 55L16 55L16 54L17 54L17 55L18 55L18 56L17 56L17 57L19 57L19 55L20 55L20 54L21 54L21 55L22 55L22 56L23 56L23 57L25 57L25 55L26 55L26 53L28 53L28 57L29 57L29 55L30 55L30 57L34 57L34 55L35 55L35 57L37 57L37 56L36 56L36 54L37 54L37 55L40 55L40 56L39 56L39 57L40 57L40 56L41 56L41 57L42 57L42 56L43 56L43 55L44 55L44 53L45 53L45 56L44 56L44 57L45 57L45 56L46 56L46 57L47 57L47 56L46 56L46 53L47 53L47 52L48 52L48 54L49 54L49 55L48 55L48 57L50 57L50 55L51 55L51 56L53 56L53 57L54 57L54 55L53 55L53 54L54 54L54 53L55 53L55 54L57 54L57 53L56 53L56 52L57 52L57 51L56 51L56 45L57 45L57 44L56 44L56 45L54 45L54 44L53 44L53 43L54 43L54 42L55 42L55 43L56 43L56 42L57 42L57 40L54 40L54 41L53 41L53 39L54 39L54 38L55 38L55 39L57 39L57 38L55 38L55 36L56 36L56 35L55 35L55 33L56 33L56 30L55 30L55 32L53 32L53 29L54 29L54 28L53 28L53 27L54 27L54 26L55 26L55 27L56 27L56 28L55 28L55 29L56 29L56 28L57 28L57 27L56 27L56 25L57 25L57 24L56 24L56 21L57 21L57 20L56 20L56 18L57 18L57 15L56 15L56 12L57 12L57 11L56 11L56 10L57 10L57 8L53 8L53 9L56 9L56 10L55 10L55 11L56 11L56 12L55 12L55 16L53 16L53 15L52 15L52 14L53 14L53 13L54 13L54 12L53 12L53 13L52 13L52 14L51 14L51 12L52 12L52 11L54 11L54 10L52 10L52 8L51 8L51 9L50 9L50 15L48 15L48 17L47 17L47 19L48 19L48 18L49 18L49 20L51 20L51 21L48 21L48 20L46 20L46 21L45 21L45 17L46 17L46 16L47 16L47 15L46 15L46 11L45 11L45 10L46 10L46 8L48 8L48 9L47 9L47 12L48 12L48 11L49 11L49 8L48 8L48 7L49 7L49 6L48 6L48 7L47 7L47 5L48 5L48 0L41 0L41 1L40 1L40 2L38 2L38 1L39 1L39 0L38 0L38 1L37 1L37 2L36 2L36 0L35 0L35 1L34 1L34 0L32 0L32 3L31 3L31 0L28 0L28 1L29 1L29 2L27 2L27 3L28 3L28 4L26 4L26 3L25 3L25 2L26 2L26 1L27 1L27 0L26 0L26 1L25 1L25 0L23 0L23 1L22 1L22 2L21 2L21 0L20 0L20 1L18 1L18 0L17 0L17 1L18 1L18 3L20 3L20 2L21 2L21 3L22 3L22 4L21 4L21 6L20 6L20 5L19 5L19 4L17 4L17 2L16 2L16 4L17 4L17 6L16 6L16 5L15 5L15 4L14 4L14 1L16 1L16 0L14 0L14 1L13 1L13 0L12 0L12 2L11 2L11 1L10 1L10 0ZM9 1L9 3L11 3L11 4L10 4L10 5L13 5L13 4L12 4L12 3L11 3L11 2L10 2L10 1ZM33 1L33 2L34 2L34 3L32 3L32 5L35 5L35 7L34 7L34 6L33 6L33 7L32 7L32 6L31 6L31 10L29 10L29 11L28 11L28 12L27 12L27 11L26 11L26 13L25 13L25 12L24 12L24 11L25 11L25 10L28 10L28 9L26 9L26 6L25 6L25 7L24 7L24 6L23 6L23 5L24 5L24 4L25 4L25 3L23 3L23 2L22 2L22 3L23 3L23 4L22 4L22 6L21 6L21 8L22 8L22 10L20 10L20 9L16 9L16 8L15 8L15 9L16 9L16 10L18 10L18 11L15 11L15 12L14 12L14 11L13 11L13 10L14 10L14 8L13 8L13 7L14 7L14 6L15 6L15 7L16 7L16 6L15 6L15 5L14 5L14 6L13 6L13 7L12 7L12 6L11 6L11 9L13 9L13 10L11 10L11 12L10 12L10 14L7 14L7 13L9 13L9 12L8 12L8 11L9 11L9 10L8 10L8 11L6 11L6 10L7 10L7 9L6 9L6 10L3 10L3 13L2 13L2 15L5 15L5 17L6 17L6 18L7 18L7 19L6 19L6 20L5 20L5 19L4 19L4 20L5 20L5 21L4 21L4 22L5 22L5 21L6 21L6 22L7 22L7 21L6 21L6 20L9 20L9 19L10 19L10 20L11 20L11 19L10 19L10 18L11 18L11 17L12 17L12 20L13 20L13 19L14 19L14 20L15 20L15 21L17 21L17 22L16 22L16 23L14 23L14 21L12 21L12 22L10 22L10 23L9 23L9 25L8 25L8 26L9 26L9 28L10 28L10 27L12 27L12 29L9 29L9 32L10 32L10 30L11 30L11 31L12 31L12 32L13 32L13 33L14 33L14 34L15 34L15 33L16 33L16 37L14 37L14 36L15 36L15 35L13 35L13 34L11 34L11 33L8 33L8 31L5 31L5 36L3 36L3 37L2 37L2 38L3 38L3 39L4 39L4 38L5 38L5 41L6 41L6 42L7 42L7 43L4 43L4 45L2 45L2 46L1 46L1 47L2 47L2 46L3 46L3 47L5 47L5 46L8 46L8 47L10 47L10 48L11 48L11 47L12 47L12 48L13 48L13 49L14 49L14 51L15 51L15 49L16 49L16 50L17 50L17 49L16 49L16 48L17 48L17 47L19 47L19 46L20 46L20 45L21 45L21 46L22 46L22 47L20 47L20 48L19 48L19 50L18 50L18 51L17 51L17 52L18 52L18 51L19 51L19 50L20 50L20 51L21 51L21 52L22 52L22 55L23 55L23 56L24 56L24 55L23 55L23 53L24 53L24 54L25 54L25 53L26 53L26 50L25 50L25 53L24 53L24 52L23 52L23 51L21 51L21 50L22 50L22 49L23 49L23 48L24 48L24 49L26 49L26 48L29 48L29 47L30 47L30 48L31 48L31 49L32 49L32 48L33 48L33 47L32 47L32 45L31 45L31 41L32 41L32 43L33 43L33 44L35 44L35 43L33 43L33 41L32 41L32 40L33 40L33 39L34 39L34 42L35 42L35 39L37 39L37 42L38 42L38 39L39 39L39 40L40 40L40 41L39 41L39 43L40 43L40 51L39 51L39 52L40 52L40 53L41 53L41 43L40 43L40 42L41 42L41 41L44 41L44 44L43 44L43 42L42 42L42 44L43 44L43 46L44 46L44 44L45 44L45 45L46 45L46 47L47 47L47 48L46 48L46 51L45 51L45 53L46 53L46 52L47 52L47 49L48 49L48 47L49 47L49 46L50 46L50 47L51 47L51 46L50 46L50 45L52 45L52 47L53 47L53 48L55 48L55 46L54 46L54 47L53 47L53 44L52 44L52 43L53 43L53 41L52 41L52 40L47 40L47 39L51 39L51 38L50 38L50 37L52 37L52 38L53 38L53 36L55 36L55 35L53 35L53 34L54 34L54 33L51 33L51 32L52 32L52 31L49 31L49 32L50 32L50 35L49 35L49 36L47 36L47 35L46 35L46 34L49 34L49 33L48 33L48 31L47 31L47 30L48 30L48 29L46 29L46 28L48 28L48 27L45 27L45 30L46 30L46 31L47 31L47 33L46 33L46 32L45 32L45 33L46 33L46 34L44 34L44 33L43 33L43 34L44 34L44 35L43 35L43 37L44 37L44 38L43 38L43 39L42 39L42 37L41 37L41 36L42 36L42 34L40 34L40 33L41 33L41 32L40 32L40 31L41 31L41 30L40 30L40 29L43 29L43 31L44 31L44 29L43 29L43 28L42 28L42 25L41 25L41 24L43 24L43 25L44 25L44 24L46 24L46 23L47 23L47 24L48 24L48 25L46 25L46 26L48 26L48 25L49 25L49 26L50 26L50 25L51 25L51 26L52 26L52 25L54 25L54 24L55 24L55 25L56 25L56 24L55 24L55 23L53 23L53 22L55 22L55 21L56 21L56 20L55 20L55 18L56 18L56 16L55 16L55 17L53 17L53 16L52 16L52 15L50 15L50 16L49 16L49 18L50 18L50 19L53 19L53 20L52 20L52 21L51 21L51 22L52 22L52 25L51 25L51 24L50 24L50 25L49 25L49 24L48 24L48 23L50 23L50 22L48 22L48 21L46 21L46 23L45 23L45 22L44 22L44 16L46 16L46 15L45 15L45 14L44 14L44 12L45 12L45 11L44 11L44 12L41 12L41 11L40 11L40 10L41 10L41 8L42 8L42 9L43 9L43 10L42 10L42 11L43 11L43 10L44 10L44 8L46 8L46 5L47 5L47 3L44 3L44 2L43 2L43 3L41 3L41 2L40 2L40 3L39 3L39 4L40 4L40 3L41 3L41 4L43 4L43 5L42 5L42 6L41 6L41 5L39 5L39 7L40 7L40 6L41 6L41 8L40 8L40 10L38 10L38 9L39 9L39 8L37 8L37 9L35 9L35 7L36 7L36 5L37 5L37 7L38 7L38 2L37 2L37 3L36 3L36 2L34 2L34 1ZM45 1L45 2L47 2L47 1ZM29 2L29 4L31 4L31 3L30 3L30 2ZM34 3L34 4L35 4L35 5L36 5L36 4L35 4L35 3ZM43 3L43 4L44 4L44 7L43 7L43 6L42 6L42 7L43 7L43 8L44 8L44 7L45 7L45 4L44 4L44 3ZM18 5L18 6L17 6L17 8L19 8L19 7L20 7L20 6L19 6L19 5ZM27 5L27 8L30 8L30 5ZM9 6L9 7L10 7L10 6ZM18 6L18 7L19 7L19 6ZM22 6L22 7L23 7L23 8L24 8L24 9L23 9L23 10L25 10L25 8L24 8L24 7L23 7L23 6ZM28 6L28 7L29 7L29 6ZM33 7L33 8L32 8L32 13L30 13L30 15L33 15L33 16L32 16L32 17L31 17L31 16L29 16L29 13L27 13L27 14L28 14L28 15L27 15L27 16L26 16L26 14L25 14L25 13L23 13L23 12L22 12L22 11L20 11L20 10L19 10L19 11L20 11L20 16L19 16L19 12L18 12L18 13L17 13L17 12L15 12L15 13L11 13L11 15L9 15L9 16L10 16L10 17L11 17L11 16L12 16L12 17L13 17L13 16L12 16L12 15L13 15L13 14L14 14L14 18L15 18L15 19L16 19L16 18L15 18L15 17L17 17L17 18L19 18L19 19L22 19L22 20L23 20L23 19L24 19L24 18L25 18L25 20L24 20L24 21L21 21L21 20L20 20L20 21L19 21L19 20L17 20L17 21L19 21L19 22L18 22L18 23L20 23L20 22L22 22L22 24L21 24L21 25L20 25L20 26L19 26L19 24L16 24L16 25L15 25L15 27L16 27L16 28L15 28L15 29L18 29L18 30L17 30L17 36L18 36L18 37L17 37L17 38L16 38L16 39L15 39L15 40L14 40L14 41L11 41L11 40L12 40L12 38L13 38L13 39L14 39L14 37L13 37L13 36L12 36L12 35L11 35L11 34L10 34L10 35L8 35L8 34L6 34L6 35L7 35L7 36L5 36L5 38L6 38L6 39L7 39L7 40L6 40L6 41L7 41L7 42L8 42L8 43L9 43L9 44L6 44L6 45L9 45L9 44L11 44L11 45L10 45L10 46L11 46L11 45L13 45L13 46L12 46L12 47L13 47L13 48L14 48L14 49L15 49L15 48L16 48L16 45L17 45L17 46L19 46L19 44L18 44L18 45L17 45L17 44L16 44L16 43L18 43L18 41L20 41L20 43L21 43L21 45L23 45L23 47L22 47L22 48L20 48L20 50L21 50L21 49L22 49L22 48L23 48L23 47L24 47L24 48L26 48L26 47L28 47L28 44L27 44L27 43L23 43L23 44L22 44L22 43L21 43L21 42L22 42L22 36L23 36L23 37L24 37L24 38L26 38L26 39L27 39L27 40L25 40L25 41L24 41L24 39L23 39L23 41L24 41L24 42L26 42L26 41L27 41L27 42L28 42L28 43L29 43L29 44L30 44L30 43L29 43L29 42L28 42L28 41L31 41L31 39L33 39L33 38L34 38L34 39L35 39L35 38L37 38L37 36L38 36L38 34L39 34L39 33L40 33L40 32L39 32L39 31L40 31L40 30L39 30L39 29L40 29L40 28L41 28L41 26L40 26L40 25L38 25L38 26L39 26L39 27L37 27L37 26L36 26L36 27L35 27L35 29L37 29L37 30L36 30L36 31L34 31L34 27L33 27L33 26L34 26L34 25L37 25L37 24L34 24L34 23L35 23L35 22L37 22L37 23L38 23L38 22L39 22L39 21L40 21L40 22L41 22L41 23L42 23L42 22L43 22L43 23L44 23L44 22L43 22L43 21L40 21L40 18L41 18L41 20L43 20L43 19L42 19L42 18L43 18L43 17L42 17L42 15L43 15L43 16L44 16L44 14L43 14L43 13L40 13L40 11L38 11L38 10L37 10L37 12L35 12L35 11L36 11L36 10L34 10L34 9L33 9L33 8L34 8L34 7ZM33 10L33 13L32 13L32 14L33 14L33 13L34 13L34 18L32 18L32 19L33 19L33 21L34 21L34 22L31 22L31 24L28 24L28 23L30 23L30 22L29 22L29 20L31 20L31 21L32 21L32 20L31 20L31 19L30 19L30 18L28 18L28 17L26 17L26 16L25 16L25 15L24 15L24 14L23 14L23 13L21 13L21 14L22 14L22 15L21 15L21 16L20 16L20 17L19 17L19 18L20 18L20 17L26 17L26 20L28 20L28 22L27 22L27 21L24 21L24 22L25 22L25 23L26 23L26 22L27 22L27 24L28 24L28 25L31 25L31 29L32 29L32 28L33 28L33 27L32 27L32 23L34 23L34 22L35 22L35 20L36 20L36 19L35 19L35 20L34 20L34 18L37 18L37 20L38 20L38 21L37 21L37 22L38 22L38 21L39 21L39 20L38 20L38 19L39 19L39 18L40 18L40 17L41 17L41 15L40 15L40 13L39 13L39 12L37 12L37 13L35 13L35 12L34 12L34 10ZM51 10L51 11L52 11L52 10ZM5 11L5 13L7 13L7 12L6 12L6 11ZM12 11L12 12L13 12L13 11ZM29 11L29 12L31 12L31 11ZM15 13L15 14L17 14L17 13ZM38 13L38 15L39 15L39 17L38 17L38 16L37 16L37 14L35 14L35 17L38 17L38 18L39 18L39 17L40 17L40 15L39 15L39 13ZM47 13L47 14L49 14L49 13ZM6 14L6 15L7 15L7 16L6 16L6 17L7 17L7 18L8 18L8 19L9 19L9 17L8 17L8 15L7 15L7 14ZM22 15L22 16L24 16L24 15ZM51 16L51 17L50 17L50 18L51 18L51 17L52 17L52 18L53 18L53 17L52 17L52 16ZM28 19L28 20L29 20L29 19ZM8 21L8 22L9 22L9 21ZM52 21L52 22L53 22L53 21ZM10 23L10 25L11 25L11 26L13 26L13 28L14 28L14 26L13 26L13 25L14 25L14 24L13 24L13 23L12 23L12 24L13 24L13 25L11 25L11 23ZM23 23L23 24L22 24L22 25L24 25L24 23ZM0 24L0 25L1 25L1 24ZM33 24L33 25L34 25L34 24ZM6 25L6 26L7 26L7 25ZM16 25L16 26L17 26L17 27L18 27L18 25ZM25 25L25 26L24 26L24 27L23 27L23 28L22 28L22 27L21 27L21 26L20 26L20 27L21 27L21 29L22 29L22 30L20 30L20 28L18 28L18 29L19 29L19 30L18 30L18 31L19 31L19 35L18 35L18 36L20 36L20 31L22 31L22 33L21 33L21 35L22 35L22 34L23 34L23 33L26 33L26 32L25 32L25 31L24 31L24 30L23 30L23 29L25 29L25 30L26 30L26 29L25 29L25 27L26 27L26 25ZM5 27L5 30L8 30L8 27ZM27 27L27 30L30 30L30 27ZM39 27L39 28L40 28L40 27ZM49 27L49 30L52 30L52 27ZM2 28L2 29L3 29L3 30L4 30L4 28ZM6 28L6 29L7 29L7 28ZM28 28L28 29L29 29L29 28ZM37 28L37 29L38 29L38 28ZM50 28L50 29L51 29L51 28ZM12 29L12 31L13 31L13 32L14 32L14 33L15 33L15 32L16 32L16 30L15 30L15 31L14 31L14 30L13 30L13 29ZM22 30L22 31L23 31L23 30ZM32 30L32 31L31 31L31 32L29 32L29 33L28 33L28 34L27 34L27 35L26 35L26 36L25 36L25 34L24 34L24 36L25 36L25 37L27 37L27 39L28 39L28 38L29 38L29 39L31 39L31 38L33 38L33 37L32 37L32 36L31 36L31 35L33 35L33 33L32 33L32 31L33 31L33 30ZM37 30L37 32L38 32L38 30ZM2 31L2 32L1 32L1 33L2 33L2 34L1 34L1 35L2 35L2 34L3 34L3 33L4 33L4 31ZM27 31L27 32L28 32L28 31ZM6 32L6 33L7 33L7 32ZM34 32L34 38L35 38L35 32ZM29 33L29 34L28 34L28 36L27 36L27 37L28 37L28 36L29 36L29 37L31 37L31 36L30 36L30 34L31 34L31 33ZM37 33L37 34L38 34L38 33ZM39 35L39 36L40 36L40 35ZM44 35L44 37L45 37L45 39L44 39L44 41L45 41L45 42L46 42L46 41L47 41L47 40L46 40L46 41L45 41L45 39L47 39L47 38L46 38L46 37L45 37L45 36L46 36L46 35ZM50 35L50 36L49 36L49 37L50 37L50 36L53 36L53 35ZM11 36L11 37L10 37L10 39L11 39L11 38L12 38L12 36ZM3 37L3 38L4 38L4 37ZM6 37L6 38L8 38L8 37ZM18 37L18 38L19 38L19 39L17 39L17 40L16 40L16 42L15 42L15 41L14 41L14 42L15 42L15 43L16 43L16 42L17 42L17 41L18 41L18 40L19 40L19 39L20 39L20 38L21 38L21 37ZM38 37L38 38L40 38L40 40L42 40L42 39L41 39L41 37ZM2 40L2 41L1 41L1 44L3 44L3 43L2 43L2 41L3 41L3 42L4 42L4 40ZM7 40L7 41L8 41L8 40ZM27 40L27 41L28 41L28 40ZM10 41L10 42L11 42L11 41ZM48 41L48 43L47 43L47 44L46 44L46 45L47 45L47 46L49 46L49 43L50 43L50 44L51 44L51 43L52 43L52 41L51 41L51 43L50 43L50 42L49 42L49 41ZM55 41L55 42L56 42L56 41ZM11 43L11 44L12 44L12 43ZM13 43L13 45L14 45L14 48L15 48L15 44L14 44L14 43ZM36 43L36 44L37 44L37 46L35 46L35 45L34 45L34 48L35 48L35 47L36 47L36 48L37 48L37 46L38 46L38 45L39 45L39 44L37 44L37 43ZM23 44L23 45L24 45L24 44ZM47 44L47 45L48 45L48 44ZM26 45L26 46L24 46L24 47L26 47L26 46L27 46L27 45ZM38 47L38 49L37 49L37 53L38 53L38 49L39 49L39 47ZM42 47L42 49L43 49L43 50L42 50L42 52L43 52L43 53L44 53L44 52L43 52L43 51L44 51L44 50L45 50L45 49L44 49L44 48L45 48L45 47ZM8 48L8 49L9 49L9 48ZM27 49L27 52L30 52L30 49ZM34 49L34 50L31 50L31 52L32 52L32 51L33 51L33 53L32 53L32 54L33 54L33 53L34 53L34 54L35 54L35 52L36 52L36 49ZM49 49L49 52L52 52L52 49ZM28 50L28 51L29 51L29 50ZM50 50L50 51L51 51L51 50ZM53 50L53 53L54 53L54 52L56 52L56 51L54 51L54 50ZM8 51L8 53L10 53L10 52L9 52L9 51ZM34 51L34 52L35 52L35 51ZM19 52L19 53L20 53L20 52ZM11 53L11 54L10 54L10 56L9 56L9 55L8 55L8 57L11 57L11 54L12 54L12 55L13 55L13 54L14 54L14 53ZM30 53L30 54L31 54L31 53ZM49 53L49 54L51 54L51 55L52 55L52 54L51 54L51 53ZM18 54L18 55L19 55L19 54ZM40 54L40 55L41 55L41 56L42 56L42 55L43 55L43 54ZM26 56L26 57L27 57L27 56ZM56 56L56 57L57 57L57 56ZM0 0L0 7L7 7L7 0ZM1 1L1 6L6 6L6 1ZM2 2L2 5L5 5L5 2ZM50 0L50 7L57 7L57 0ZM51 1L51 6L56 6L56 1ZM52 2L52 5L55 5L55 2ZM0 50L0 57L7 57L7 50ZM1 51L1 56L6 56L6 51ZM2 52L2 55L5 55L5 52Z" fill="#000000"/></g></g></svg>
