<?xml version="1.0" encoding="UTF-8"?>
<svg xmlns="http://www.w3.org/2000/svg" version="1.1" width="300" height="300" viewBox="0 0 300 300"><rect x="0" y="0" width="300" height="300" fill="#fefefe"/><g transform="scale(4.615)"><g transform="translate(4,4)"><path fill-rule="evenodd" d="M8 0L8 2L11 2L11 3L9 3L9 4L8 4L8 9L9 9L9 10L10 10L10 9L11 9L11 10L12 10L12 11L8 11L8 10L6 10L6 9L7 9L7 8L5 8L5 9L3 9L3 8L0 8L0 10L1 10L1 9L2 9L2 12L1 12L1 11L0 11L0 12L1 12L1 13L0 13L0 14L1 14L1 15L4 15L4 16L5 16L5 17L3 17L3 16L0 16L0 19L1 19L1 18L2 18L2 20L3 20L3 21L1 21L1 20L0 20L0 21L1 21L1 22L3 22L3 23L7 23L7 22L9 22L9 21L10 21L10 23L11 23L11 24L12 24L12 26L13 26L13 25L15 25L15 27L16 27L16 28L17 28L17 27L16 27L16 25L17 25L17 26L18 26L18 25L19 25L19 27L18 27L18 28L19 28L19 31L18 31L18 30L17 30L17 31L16 31L16 30L15 30L15 29L14 29L14 28L13 28L13 27L11 27L11 28L9 28L9 26L11 26L11 25L10 25L10 24L9 24L9 23L8 23L8 24L9 24L9 25L8 25L8 26L5 26L5 24L4 24L4 27L2 27L2 26L1 26L1 27L0 27L0 29L1 29L1 30L0 30L0 34L1 34L1 35L2 35L2 36L0 36L0 37L1 37L1 39L3 39L3 40L4 40L4 39L3 39L3 38L2 38L2 36L3 36L3 37L4 37L4 35L5 35L5 36L6 36L6 37L5 37L5 38L6 38L6 39L7 39L7 40L6 40L6 41L7 41L7 42L5 42L5 41L3 41L3 42L2 42L2 40L0 40L0 41L1 41L1 42L2 42L2 43L0 43L0 44L1 44L1 46L0 46L0 48L5 48L5 47L7 47L7 48L6 48L6 49L7 49L7 48L10 48L10 49L8 49L8 50L10 50L10 53L9 53L9 54L8 54L8 57L10 57L10 56L11 56L11 57L12 57L12 56L13 56L13 57L15 57L15 56L16 56L16 57L17 57L17 55L16 55L16 54L17 54L17 52L18 52L18 54L19 54L19 51L20 51L20 53L21 53L21 54L20 54L20 55L21 55L21 54L22 54L22 53L23 53L23 55L22 55L22 57L25 57L25 56L26 56L26 57L28 57L28 55L29 55L29 57L33 57L33 55L34 55L34 57L35 57L35 55L38 55L38 53L39 53L39 56L40 56L40 57L41 57L41 56L43 56L43 54L42 54L42 53L41 53L41 51L43 51L43 52L44 52L44 55L45 55L45 54L46 54L46 53L49 53L49 54L48 54L48 56L47 56L47 55L46 55L46 56L44 56L44 57L46 57L46 56L47 56L47 57L50 57L50 55L49 55L49 54L52 54L52 55L53 55L53 56L51 56L51 57L53 57L53 56L54 56L54 55L57 55L57 54L55 54L55 53L57 53L57 50L56 50L56 52L54 52L54 51L53 51L53 50L54 50L54 49L56 49L56 47L57 47L57 42L56 42L56 41L57 41L57 40L54 40L54 39L53 39L53 40L54 40L54 41L53 41L53 44L52 44L52 39L51 39L51 38L52 38L52 37L53 37L53 38L54 38L54 37L55 37L55 38L57 38L57 34L56 34L56 31L57 31L57 29L56 29L56 28L57 28L57 24L56 24L56 23L57 23L57 20L56 20L56 19L57 19L57 13L56 13L56 12L57 12L57 10L56 10L56 11L55 11L55 9L57 9L57 8L55 8L55 9L54 9L54 10L53 10L53 8L48 8L48 7L49 7L49 6L48 6L48 7L47 7L47 5L48 5L48 0L46 0L46 1L45 1L45 0L42 0L42 1L41 1L41 0L38 0L38 2L37 2L37 1L35 1L35 0L34 0L34 2L33 2L33 1L32 1L32 0L30 0L30 1L29 1L29 0L28 0L28 1L27 1L27 0L26 0L26 1L25 1L25 0L24 0L24 1L23 1L23 0L20 0L20 1L19 1L19 3L21 3L21 4L22 4L22 9L23 9L23 10L24 10L24 11L22 11L22 12L24 12L24 13L23 13L23 15L24 15L24 13L26 13L26 11L25 11L25 10L27 10L27 9L28 9L28 10L29 10L29 11L28 11L28 12L27 12L27 14L28 14L28 15L29 15L29 16L30 16L30 17L28 17L28 18L30 18L30 17L31 17L31 16L30 16L30 15L29 15L29 13L30 13L30 12L31 12L31 11L32 11L32 9L33 9L33 10L34 10L34 11L33 11L33 12L32 12L32 13L31 13L31 14L33 14L33 15L32 15L32 18L31 18L31 19L30 19L30 20L28 20L28 19L27 19L27 16L26 16L26 15L25 15L25 16L26 16L26 18L24 18L24 16L22 16L22 14L21 14L21 15L20 15L20 16L19 16L19 15L18 15L18 17L19 17L19 19L18 19L18 18L17 18L17 19L15 19L15 18L14 18L14 17L15 17L15 16L14 16L14 15L13 15L13 16L12 16L12 18L13 18L13 19L12 19L12 21L10 21L10 20L11 20L11 18L10 18L10 17L11 17L11 14L12 14L12 13L13 13L13 12L12 12L12 11L13 11L13 10L12 10L12 9L13 9L13 8L12 8L12 7L13 7L13 5L14 5L14 7L15 7L15 6L16 6L16 7L17 7L17 8L18 8L18 9L19 9L19 10L17 10L17 11L16 11L16 8L14 8L14 9L15 9L15 11L14 11L14 12L15 12L15 11L16 11L16 12L17 12L17 14L15 14L15 15L17 15L17 14L18 14L18 13L19 13L19 14L20 14L20 12L21 12L21 11L20 11L20 9L21 9L21 5L20 5L20 7L19 7L19 5L18 5L18 2L16 2L16 3L15 3L15 0L14 0L14 3L13 3L13 0L12 0L12 1L10 1L10 0ZM16 0L16 1L18 1L18 0ZM22 1L22 2L21 2L21 3L22 3L22 4L23 4L23 3L22 3L22 2L23 2L23 1ZM24 1L24 4L25 4L25 1ZM28 1L28 2L27 2L27 3L26 3L26 4L27 4L27 3L28 3L28 4L31 4L31 3L30 3L30 2L31 2L31 1L30 1L30 2L29 2L29 1ZM39 1L39 2L38 2L38 3L37 3L37 2L34 2L34 4L35 4L35 9L34 9L34 10L36 10L36 6L37 6L37 7L38 7L38 6L39 6L39 8L38 8L38 11L39 11L39 12L37 12L37 11L34 11L34 12L35 12L35 13L34 13L34 15L33 15L33 17L34 17L34 19L33 19L33 18L32 18L32 19L33 19L33 21L32 21L32 20L30 20L30 22L29 22L29 21L28 21L28 20L27 20L27 19L26 19L26 20L25 20L25 19L24 19L24 20L25 20L25 21L26 21L26 20L27 20L27 22L26 22L26 23L27 23L27 25L26 25L26 26L27 26L27 25L28 25L28 26L31 26L31 25L32 25L32 27L31 27L31 30L32 30L32 32L30 32L30 34L32 34L32 35L33 35L33 33L32 33L32 32L34 32L34 34L35 34L35 33L36 33L36 35L35 35L35 36L33 36L33 37L34 37L34 38L35 38L35 41L34 41L34 39L33 39L33 38L31 38L31 41L28 41L28 40L30 40L30 36L31 36L31 37L32 37L32 36L31 36L31 35L28 35L28 34L29 34L29 31L28 31L28 32L27 32L27 33L28 33L28 34L27 34L27 35L28 35L28 36L27 36L27 37L26 37L26 36L25 36L25 35L26 35L26 33L25 33L25 32L26 32L26 30L25 30L25 29L24 29L24 27L25 27L25 25L24 25L24 26L23 26L23 27L22 27L22 28L23 28L23 29L22 29L22 30L21 30L21 28L20 28L20 31L19 31L19 32L20 32L20 36L21 36L21 37L22 37L22 39L23 39L23 40L24 40L24 46L26 46L26 47L25 47L25 48L24 48L24 47L23 47L23 44L22 44L22 43L23 43L23 41L22 41L22 40L21 40L21 41L20 41L20 43L18 43L18 44L20 44L20 43L21 43L21 45L20 45L20 48L19 48L19 45L18 45L18 46L17 46L17 44L16 44L16 42L18 42L18 39L16 39L16 38L18 38L18 36L19 36L19 35L18 35L18 31L17 31L17 32L16 32L16 31L15 31L15 30L14 30L14 31L15 31L15 32L13 32L13 33L10 33L10 30L11 30L11 29L9 29L9 31L8 31L8 32L7 32L7 31L6 31L6 32L7 32L7 33L6 33L6 34L7 34L7 33L10 33L10 34L9 34L9 35L10 35L10 34L12 34L12 36L13 36L13 37L12 37L12 38L11 38L11 39L10 39L10 38L9 38L9 39L8 39L8 41L9 41L9 40L13 40L13 42L14 42L14 43L12 43L12 41L11 41L11 43L12 43L12 45L9 45L9 44L8 44L8 43L9 43L9 42L8 42L8 43L4 43L4 42L3 42L3 44L2 44L2 45L3 45L3 47L5 47L5 46L4 46L4 45L6 45L6 46L11 46L11 47L10 47L10 48L12 48L12 49L13 49L13 50L12 50L12 51L11 51L11 56L12 56L12 54L13 54L13 56L15 56L15 55L14 55L14 54L15 54L15 52L14 52L14 51L13 51L13 50L14 50L14 49L15 49L15 50L17 50L17 51L19 51L19 49L20 49L20 51L22 51L22 48L23 48L23 49L24 49L24 51L23 51L23 52L24 52L24 51L25 51L25 54L24 54L24 55L26 55L26 56L27 56L27 55L28 55L28 53L27 53L27 54L26 54L26 49L25 49L25 48L31 48L31 50L32 50L32 51L31 51L31 52L32 52L32 51L34 51L34 52L33 52L33 53L34 53L34 54L35 54L35 53L36 53L36 54L37 54L37 53L36 53L36 52L35 52L35 51L37 51L37 49L36 49L36 48L37 48L37 47L38 47L38 52L39 52L39 53L40 53L40 52L39 52L39 49L40 49L40 51L41 51L41 49L42 49L42 50L44 50L44 51L45 51L45 53L46 53L46 50L47 50L47 48L46 48L46 47L48 47L48 46L47 46L47 44L48 44L48 42L49 42L49 44L50 44L50 45L49 45L49 48L51 48L51 47L50 47L50 45L51 45L51 44L50 44L50 42L49 42L49 41L51 41L51 40L48 40L48 37L49 37L49 36L50 36L50 33L51 33L51 36L53 36L53 37L54 37L54 36L55 36L55 37L56 37L56 34L55 34L55 31L56 31L56 30L55 30L55 28L56 28L56 24L55 24L55 23L56 23L56 21L55 21L55 19L54 19L54 16L55 16L55 17L56 17L56 16L55 16L55 15L56 15L56 13L55 13L55 11L54 11L54 12L53 12L53 14L52 14L52 13L50 13L50 11L51 11L51 12L52 12L52 9L48 9L48 8L47 8L47 9L46 9L46 8L45 8L45 7L46 7L46 5L47 5L47 3L46 3L46 5L44 5L44 4L45 4L45 1L42 1L42 4L41 4L41 2L40 2L40 1ZM46 1L46 2L47 2L47 1ZM28 2L28 3L29 3L29 2ZM32 2L32 5L31 5L31 9L30 9L30 11L29 11L29 12L30 12L30 11L31 11L31 9L32 9L32 8L34 8L34 6L33 6L33 2ZM39 2L39 3L38 3L38 5L39 5L39 4L40 4L40 2ZM43 2L43 4L42 4L42 7L41 7L41 6L40 6L40 7L41 7L41 8L40 8L40 9L39 9L39 11L40 11L40 14L41 14L41 15L40 15L40 18L38 18L38 16L37 16L37 15L38 15L38 13L37 13L37 12L36 12L36 14L35 14L35 15L34 15L34 17L35 17L35 15L36 15L36 18L35 18L35 20L34 20L34 21L33 21L33 22L30 22L30 23L29 23L29 22L28 22L28 23L29 23L29 24L28 24L28 25L29 25L29 24L30 24L30 23L32 23L32 25L33 25L33 26L34 26L34 24L36 24L36 26L37 26L37 27L34 27L34 29L33 29L33 28L32 28L32 30L33 30L33 31L34 31L34 29L36 29L36 30L37 30L37 31L36 31L36 33L37 33L37 34L38 34L38 35L36 35L36 37L35 37L35 38L36 38L36 41L35 41L35 42L34 42L34 41L33 41L33 40L32 40L32 46L31 46L31 44L30 44L30 43L31 43L31 42L30 42L30 43L29 43L29 42L28 42L28 41L27 41L27 40L25 40L25 41L26 41L26 42L25 42L25 45L26 45L26 46L28 46L28 45L30 45L30 47L31 47L31 48L32 48L32 50L34 50L34 51L35 51L35 50L34 50L34 49L35 49L35 47L36 47L36 46L38 46L38 45L37 45L37 44L40 44L40 45L39 45L39 47L40 47L40 49L41 49L41 47L42 47L42 45L43 45L43 44L42 44L42 45L41 45L41 44L40 44L40 43L44 43L44 41L45 41L45 42L46 42L46 40L47 40L47 41L48 41L48 40L47 40L47 38L46 38L46 37L48 37L48 36L49 36L49 35L48 35L48 34L49 34L49 33L50 33L50 32L49 32L49 31L51 31L51 32L52 32L52 31L53 31L53 32L54 32L54 31L55 31L55 30L54 30L54 31L53 31L53 28L54 28L54 27L55 27L55 26L54 26L54 25L55 25L55 24L54 24L54 22L55 22L55 21L54 21L54 19L53 19L53 20L52 20L52 22L51 22L51 24L49 24L49 23L50 23L50 22L48 22L48 21L49 21L49 20L51 20L51 18L52 18L52 17L53 17L53 16L54 16L54 15L55 15L55 14L54 14L54 15L52 15L52 14L51 14L51 15L50 15L50 13L49 13L49 14L48 14L48 12L47 12L47 11L46 11L46 13L45 13L45 12L44 12L44 10L45 10L45 8L44 8L44 7L45 7L45 6L44 6L44 5L43 5L43 4L44 4L44 2ZM14 3L14 4L15 4L15 3ZM16 3L16 4L17 4L17 3ZM35 3L35 4L36 4L36 3ZM11 4L11 5L10 5L10 6L9 6L9 7L10 7L10 6L11 6L11 7L12 7L12 5L13 5L13 4ZM16 5L16 6L17 6L17 7L18 7L18 8L19 8L19 7L18 7L18 6L17 6L17 5ZM24 5L24 6L23 6L23 9L24 9L24 10L25 10L25 9L26 9L26 5ZM27 5L27 8L30 8L30 5ZM24 6L24 7L25 7L25 6ZM28 6L28 7L29 7L29 6ZM32 6L32 7L33 7L33 6ZM43 6L43 7L42 7L42 8L41 8L41 9L42 9L42 10L41 10L41 12L42 12L42 15L41 15L41 17L42 17L42 18L43 18L43 17L44 17L44 19L43 19L43 20L42 20L42 19L41 19L41 18L40 18L40 19L39 19L39 20L37 20L37 21L36 21L36 20L35 20L35 21L34 21L34 22L35 22L35 23L36 23L36 24L37 24L37 25L38 25L38 26L39 26L39 29L38 29L38 28L37 28L37 30L38 30L38 31L37 31L37 32L38 32L38 31L40 31L40 32L39 32L39 33L38 33L38 34L39 34L39 35L38 35L38 36L40 36L40 35L41 35L41 39L40 39L40 38L39 38L39 37L38 37L38 39L37 39L37 41L36 41L36 43L35 43L35 44L33 44L33 45L34 45L34 47L33 47L33 46L32 46L32 47L33 47L33 48L34 48L34 47L35 47L35 46L36 46L36 44L37 44L37 43L40 43L40 42L39 42L39 41L40 41L40 40L41 40L41 41L42 41L42 42L43 42L43 38L44 38L44 35L43 35L43 33L42 33L42 31L44 31L44 30L46 30L46 31L45 31L45 33L46 33L46 34L45 34L45 36L48 36L48 35L46 35L46 34L48 34L48 33L46 33L46 32L47 32L47 29L48 29L48 28L46 28L46 29L44 29L44 28L42 28L42 31L40 31L40 30L41 30L41 29L40 29L40 28L41 28L41 27L43 27L43 25L44 25L44 24L45 24L45 25L46 25L46 26L49 26L49 24L47 24L47 23L48 23L48 22L47 22L47 21L46 21L46 19L47 19L47 15L48 15L48 14L47 14L47 13L46 13L46 15L45 15L45 14L44 14L44 12L42 12L42 10L44 10L44 8L43 8L43 7L44 7L44 6ZM47 9L47 10L48 10L48 9ZM4 10L4 11L3 11L3 12L2 12L2 13L1 13L1 14L3 14L3 13L5 13L5 16L7 16L7 17L5 17L5 18L3 18L3 17L2 17L2 18L3 18L3 20L4 20L4 19L5 19L5 22L7 22L7 21L6 21L6 20L8 20L8 19L5 19L5 18L9 18L9 16L10 16L10 14L11 14L11 13L10 13L10 12L7 12L7 11L6 11L6 10ZM18 11L18 12L20 12L20 11ZM6 12L6 13L7 13L7 14L6 14L6 15L9 15L9 14L8 14L8 13L7 13L7 12ZM43 14L43 16L44 16L44 17L45 17L45 18L46 18L46 16L44 16L44 14ZM49 15L49 16L50 16L50 18L49 18L49 17L48 17L48 18L49 18L49 19L48 19L48 20L49 20L49 19L50 19L50 18L51 18L51 17L52 17L52 16L50 16L50 15ZM13 16L13 17L14 17L14 16ZM20 16L20 19L21 19L21 21L20 21L20 20L19 20L19 23L18 23L18 20L17 20L17 22L16 22L16 23L17 23L17 25L18 25L18 24L20 24L20 27L21 27L21 26L22 26L22 23L23 23L23 22L22 22L22 23L20 23L20 22L21 22L21 21L22 21L22 19L21 19L21 16ZM36 18L36 19L37 19L37 18ZM9 19L9 20L10 20L10 19ZM14 19L14 20L15 20L15 19ZM40 19L40 22L41 22L41 23L39 23L39 22L38 22L38 21L37 21L37 22L36 22L36 21L35 21L35 22L36 22L36 23L38 23L38 25L39 25L39 26L40 26L40 25L41 25L41 24L42 24L42 25L43 25L43 24L44 24L44 23L45 23L45 22L44 22L44 21L45 21L45 19L44 19L44 21L43 21L43 22L42 22L42 20L41 20L41 19ZM3 21L3 22L4 22L4 21ZM12 21L12 22L11 22L11 23L13 23L13 21ZM14 21L14 22L15 22L15 21ZM24 22L24 23L25 23L25 22ZM43 22L43 23L42 23L42 24L43 24L43 23L44 23L44 22ZM52 22L52 24L51 24L51 25L50 25L50 26L51 26L51 25L52 25L52 26L53 26L53 25L52 25L52 24L53 24L53 22ZM0 23L0 25L1 25L1 23ZM14 23L14 24L15 24L15 23ZM33 23L33 24L34 24L34 23ZM2 24L2 25L3 25L3 24ZM6 24L6 25L7 25L7 24ZM1 27L1 29L2 29L2 27ZM5 27L5 30L8 30L8 27ZM27 27L27 30L30 30L30 27ZM49 27L49 30L52 30L52 27ZM6 28L6 29L7 29L7 28ZM28 28L28 29L29 29L29 28ZM50 28L50 29L51 29L51 28ZM23 29L23 30L22 30L22 33L23 33L23 35L22 35L22 34L21 34L21 35L22 35L22 37L23 37L23 35L25 35L25 34L24 34L24 32L25 32L25 30L24 30L24 29ZM43 29L43 30L44 30L44 29ZM2 30L2 31L1 31L1 33L2 33L2 32L3 32L3 30ZM23 30L23 32L24 32L24 30ZM15 32L15 34L14 34L14 33L13 33L13 35L16 35L16 32ZM40 32L40 34L42 34L42 33L41 33L41 32ZM3 33L3 35L4 35L4 33ZM53 34L53 36L54 36L54 34ZM6 35L6 36L7 36L7 37L6 37L6 38L8 38L8 37L9 37L9 36L7 36L7 35ZM42 35L42 37L43 37L43 35ZM10 36L10 37L11 37L11 36ZM16 36L16 37L17 37L17 36ZM24 36L24 37L25 37L25 36ZM28 36L28 37L29 37L29 36ZM13 37L13 38L12 38L12 39L13 39L13 40L14 40L14 37ZM36 37L36 38L37 38L37 37ZM50 37L50 38L51 38L51 37ZM20 38L20 39L21 39L21 38ZM24 38L24 39L25 39L25 38ZM28 38L28 39L29 39L29 38ZM45 38L45 39L46 39L46 38ZM38 39L38 41L37 41L37 42L38 42L38 41L39 41L39 39ZM15 40L15 41L14 41L14 42L16 42L16 40ZM54 41L54 42L55 42L55 43L54 43L54 44L53 44L53 45L52 45L52 48L53 48L53 49L54 49L54 48L55 48L55 47L56 47L56 44L55 44L55 43L56 43L56 42L55 42L55 41ZM27 42L27 43L28 43L28 42ZM45 43L45 44L44 44L44 46L43 46L43 47L44 47L44 49L45 49L45 50L46 50L46 48L45 48L45 47L46 47L46 44L47 44L47 43ZM3 44L3 45L4 45L4 44ZM6 44L6 45L7 45L7 44ZM13 44L13 45L12 45L12 46L13 46L13 45L14 45L14 44ZM27 44L27 45L28 45L28 44ZM15 45L15 47L14 47L14 48L13 48L13 49L14 49L14 48L16 48L16 47L17 47L17 48L18 48L18 49L19 49L19 48L18 48L18 47L17 47L17 46L16 46L16 45ZM40 45L40 47L41 47L41 45ZM54 45L54 46L53 46L53 48L54 48L54 46L55 46L55 45ZM1 46L1 47L2 47L2 46ZM21 46L21 48L20 48L20 49L21 49L21 48L22 48L22 46ZM44 46L44 47L45 47L45 46ZM27 49L27 52L30 52L30 49ZM49 49L49 52L52 52L52 49ZM28 50L28 51L29 51L29 50ZM50 50L50 51L51 51L51 50ZM8 51L8 52L9 52L9 51ZM47 51L47 52L48 52L48 51ZM12 52L12 53L13 53L13 54L14 54L14 53L13 53L13 52ZM21 52L21 53L22 53L22 52ZM31 53L31 54L30 54L30 55L33 55L33 54L32 54L32 53ZM53 53L53 55L54 55L54 53ZM9 54L9 55L10 55L10 54ZM40 54L40 56L41 56L41 55L42 55L42 54ZM18 56L18 57L20 57L20 56ZM36 56L36 57L37 57L37 56ZM56 56L56 57L57 57L57 56ZM0 0L0 7L7 7L7 0ZM1 1L1 6L6 6L6 1ZM2 2L2 5L5 5L5 2ZM50 0L50 7L57 7L57 0ZM51 1L51 6L56 6L56 1ZM52 2L52 5L55 5L55 2ZM0 50L0 57L7 57L7 50ZM1 51L1 56L6 56L6 51ZM2 52L2 55L5 55L5 52Z" fill="#000000"/></g></g></svg>
