<?xml version="1.0" encoding="UTF-8"?>
<svg xmlns="http://www.w3.org/2000/svg" version="1.1" width="300" height="300" viewBox="0 0 300 300"><rect x="0" y="0" width="300" height="300" fill="#fefefe"/><g transform="scale(4.615)"><g transform="translate(4,4)"><path fill-rule="evenodd" d="M8 0L8 4L9 4L9 5L8 5L8 7L9 7L9 5L11 5L11 3L12 3L12 5L14 5L14 7L15 7L15 8L14 8L14 10L13 10L13 9L12 9L12 11L11 11L11 10L9 10L9 11L8 11L8 10L6 10L6 9L7 9L7 8L4 8L4 9L3 9L3 10L4 10L4 12L3 12L3 11L2 11L2 10L1 10L1 9L2 9L2 8L0 8L0 10L1 10L1 11L0 11L0 13L2 13L2 14L0 14L0 15L2 15L2 16L3 16L3 15L5 15L5 14L4 14L4 12L5 12L5 13L8 13L8 14L6 14L6 15L7 15L7 16L6 16L6 17L5 17L5 16L4 16L4 18L6 18L6 19L5 19L5 21L4 21L4 22L2 22L2 21L1 21L1 20L3 20L3 18L1 18L1 16L0 16L0 19L1 19L1 20L0 20L0 23L1 23L1 24L0 24L0 26L1 26L1 27L0 27L0 28L2 28L2 29L3 29L3 30L2 30L2 31L0 31L0 32L2 32L2 31L3 31L3 32L4 32L4 34L3 34L3 33L2 33L2 35L1 35L1 36L0 36L0 40L1 40L1 41L2 41L2 42L0 42L0 45L1 45L1 46L0 46L0 48L5 48L5 47L8 47L8 50L9 50L9 51L8 51L8 53L9 53L9 52L10 52L10 53L11 53L11 51L12 51L12 50L13 50L13 51L14 51L14 50L15 50L15 51L16 51L16 52L17 52L17 53L14 53L14 52L12 52L12 55L8 55L8 57L9 57L9 56L12 56L12 57L14 57L14 56L13 56L13 55L16 55L16 54L17 54L17 57L19 57L19 55L20 55L20 54L21 54L21 55L22 55L22 56L20 56L20 57L22 57L22 56L23 56L23 57L25 57L25 55L26 55L26 54L24 54L24 53L25 53L25 51L26 51L26 53L28 53L28 57L29 57L29 55L30 55L30 57L34 57L34 53L33 53L33 50L34 50L34 52L35 52L35 57L37 57L37 56L36 56L36 54L37 54L37 53L38 53L38 55L39 55L39 57L40 57L40 54L41 54L41 57L43 57L43 56L44 56L44 57L45 57L45 56L44 56L44 53L45 53L45 55L46 55L46 56L48 56L48 57L50 57L50 55L51 55L51 56L53 56L53 57L54 57L54 56L53 56L53 50L54 50L54 51L56 51L56 52L57 52L57 51L56 51L56 50L57 50L57 49L56 49L56 45L57 45L57 43L56 43L56 42L57 42L57 40L54 40L54 41L53 41L53 40L52 40L52 37L50 37L50 36L53 36L53 39L54 39L54 38L55 38L55 39L57 39L57 38L55 38L55 37L56 37L56 36L53 36L53 35L56 35L56 34L55 34L55 33L56 33L56 30L54 30L54 28L53 28L53 27L54 27L54 26L55 26L55 29L57 29L57 28L56 28L56 26L55 26L55 24L56 24L56 25L57 25L57 24L56 24L56 21L57 21L57 20L55 20L55 22L54 22L54 21L52 21L52 20L53 20L53 19L50 19L50 18L52 18L52 14L54 14L54 12L53 12L53 13L52 13L52 14L51 14L51 12L52 12L52 11L54 11L54 10L52 10L52 8L51 8L51 9L50 9L50 15L48 15L48 17L47 17L47 15L46 15L46 9L47 9L47 11L48 11L48 10L49 10L49 8L48 8L48 9L47 9L47 5L48 5L48 0L41 0L41 1L40 1L40 2L38 2L38 1L39 1L39 0L38 0L38 1L37 1L37 2L36 2L36 0L35 0L35 1L34 1L34 0L33 0L33 1L34 1L34 2L32 2L32 0L28 0L28 1L30 1L30 2L29 2L29 3L27 3L27 4L26 4L26 3L25 3L25 2L26 2L26 1L27 1L27 0L26 0L26 1L25 1L25 0L23 0L23 1L22 1L22 2L21 2L21 3L22 3L22 4L21 4L21 6L20 6L20 5L19 5L19 6L18 6L18 3L16 3L16 0L12 0L12 1L11 1L11 0ZM18 0L18 1L17 1L17 2L19 2L19 3L20 3L20 1L21 1L21 0L20 0L20 1L19 1L19 0ZM9 1L9 2L10 2L10 3L9 3L9 4L10 4L10 3L11 3L11 2L10 2L10 1ZM14 1L14 4L15 4L15 5L16 5L16 6L15 6L15 7L16 7L16 6L17 6L17 8L19 8L19 7L20 7L20 6L19 6L19 7L18 7L18 6L17 6L17 4L16 4L16 3L15 3L15 1ZM46 1L46 2L47 2L47 1ZM12 2L12 3L13 3L13 2ZM22 2L22 3L23 3L23 4L22 4L22 6L21 6L21 7L22 7L22 6L23 6L23 7L24 7L24 8L22 8L22 9L21 9L21 10L20 10L20 9L18 9L18 11L16 11L16 10L17 10L17 9L15 9L15 11L16 11L16 12L17 12L17 13L15 13L15 12L14 12L14 11L13 11L13 12L10 12L10 11L9 11L9 12L8 12L8 11L6 11L6 10L5 10L5 12L8 12L8 13L11 13L11 15L10 15L10 14L8 14L8 15L9 15L9 16L11 16L11 19L10 19L10 18L9 18L9 17L8 17L8 18L7 18L7 17L6 17L6 18L7 18L7 19L6 19L6 20L7 20L7 19L8 19L8 18L9 18L9 19L10 19L10 25L9 25L9 24L8 24L8 23L9 23L9 21L8 21L8 22L7 22L7 21L5 21L5 22L4 22L4 23L5 23L5 24L4 24L4 25L3 25L3 26L2 26L2 24L3 24L3 23L2 23L2 24L1 24L1 26L2 26L2 28L4 28L4 27L3 27L3 26L5 26L5 25L6 25L6 26L11 26L11 25L13 25L13 26L12 26L12 27L13 27L13 28L14 28L14 29L12 29L12 30L10 30L10 29L11 29L11 27L9 27L9 30L10 30L10 32L9 32L9 33L8 33L8 32L7 32L7 31L4 31L4 30L3 30L3 31L4 31L4 32L5 32L5 35L4 35L4 36L3 36L3 35L2 35L2 39L1 39L1 40L3 40L3 43L1 43L1 44L2 44L2 46L1 46L1 47L2 47L2 46L3 46L3 47L5 47L5 46L7 46L7 45L5 45L5 44L8 44L8 45L9 45L9 44L10 44L10 46L11 46L11 45L12 45L12 47L10 47L10 48L9 48L9 50L10 50L10 51L11 51L11 50L12 50L12 47L13 47L13 48L14 48L14 47L15 47L15 45L14 45L14 44L13 44L13 43L14 43L14 41L15 41L15 40L13 40L13 39L12 39L12 41L13 41L13 42L9 42L9 41L5 41L5 40L4 40L4 39L6 39L6 40L10 40L10 41L11 41L11 38L13 38L13 37L12 37L12 36L13 36L13 35L11 35L11 34L12 34L12 33L11 33L11 31L13 31L13 32L14 32L14 33L13 33L13 34L14 34L14 33L15 33L15 36L16 36L16 37L14 37L14 38L15 38L15 39L16 39L16 38L17 38L17 37L18 37L18 39L17 39L17 40L16 40L16 42L15 42L15 43L16 43L16 44L17 44L17 45L16 45L16 48L15 48L15 49L16 49L16 51L17 51L17 52L19 52L19 53L20 53L20 49L19 49L19 50L17 50L17 45L18 45L18 44L19 44L19 42L20 42L20 40L19 40L19 39L20 39L20 38L22 38L22 37L23 37L23 39L21 39L21 40L22 40L22 42L21 42L21 43L20 43L20 45L19 45L19 48L20 48L20 47L21 47L21 48L22 48L22 49L21 49L21 52L22 52L22 53L21 53L21 54L22 54L22 55L23 55L23 56L24 56L24 55L23 55L23 53L24 53L24 52L22 52L22 49L23 49L23 48L22 48L22 47L23 47L23 45L24 45L24 44L25 44L25 43L27 43L27 44L29 44L29 45L26 45L26 46L24 46L24 49L25 49L25 50L26 50L26 48L27 48L27 47L26 47L26 46L28 46L28 48L29 48L29 47L30 47L30 48L31 48L31 49L32 49L32 50L31 50L31 52L32 52L32 50L33 50L33 49L32 49L32 48L31 48L31 47L32 47L32 46L31 46L31 45L32 45L32 43L33 43L33 44L37 44L37 45L34 45L34 47L33 47L33 48L34 48L34 47L35 47L35 46L38 46L38 45L39 45L39 47L38 47L38 49L37 49L37 51L38 51L38 49L39 49L39 47L40 47L40 51L39 51L39 52L38 52L38 53L39 53L39 52L40 52L40 53L42 53L42 51L43 51L43 50L42 50L42 51L41 51L41 46L40 46L40 45L41 45L41 43L42 43L42 44L43 44L43 45L44 45L44 46L43 46L43 47L42 47L42 49L44 49L44 48L45 48L45 49L46 49L46 55L48 55L48 56L49 56L49 54L51 54L51 55L52 55L52 54L51 54L51 53L49 53L49 54L48 54L48 52L47 52L47 49L48 49L48 47L49 47L49 46L50 46L50 47L51 47L51 44L52 44L52 47L53 47L53 49L54 49L54 48L55 48L55 46L54 46L54 47L53 47L53 44L54 44L54 45L55 45L55 44L56 44L56 43L55 43L55 42L56 42L56 41L55 41L55 42L54 42L54 43L53 43L53 41L52 41L52 40L47 40L47 39L48 39L48 38L49 38L49 39L51 39L51 38L50 38L50 37L49 37L49 36L50 36L50 35L53 35L53 34L54 34L54 32L55 32L55 31L53 31L53 33L51 33L51 32L52 32L52 31L51 31L51 32L50 32L50 31L49 31L49 32L50 32L50 35L49 35L49 36L46 36L46 38L45 38L45 37L44 37L44 35L45 35L45 34L44 34L44 33L43 33L43 34L44 34L44 35L43 35L43 36L41 36L41 35L42 35L42 34L40 34L40 33L41 33L41 32L40 32L40 31L39 31L39 32L40 32L40 33L39 33L39 34L38 34L38 33L37 33L37 34L38 34L38 36L37 36L37 38L35 38L35 37L34 37L34 36L35 36L35 35L34 35L34 34L35 34L35 32L34 32L34 31L35 31L35 28L37 28L37 29L38 29L38 28L37 28L37 27L39 27L39 28L40 28L40 29L39 29L39 30L40 30L40 29L43 29L43 30L44 30L44 31L45 31L45 33L46 33L46 35L47 35L47 34L49 34L49 33L48 33L48 31L47 31L47 30L48 30L48 28L47 28L47 27L48 27L48 26L47 26L47 25L48 25L48 24L47 24L47 21L48 21L48 20L49 20L49 21L51 21L51 22L52 22L52 25L51 25L51 24L50 24L50 25L49 25L49 26L50 26L50 25L51 25L51 26L52 26L52 25L53 25L53 24L55 24L55 23L53 23L53 22L52 22L52 21L51 21L51 20L49 20L49 18L50 18L50 16L49 16L49 18L48 18L48 19L47 19L47 20L46 20L46 19L45 19L45 20L46 20L46 21L45 21L45 22L44 22L44 16L45 16L45 17L46 17L46 18L47 18L47 17L46 17L46 15L45 15L45 13L44 13L44 12L45 12L45 11L43 11L43 10L42 10L42 11L43 11L43 12L41 12L41 8L42 8L42 6L41 6L41 5L39 5L39 7L40 7L40 6L41 6L41 8L40 8L40 11L39 11L39 12L37 12L37 11L38 11L38 8L37 8L37 9L35 9L35 7L36 7L36 5L38 5L38 4L40 4L40 3L41 3L41 4L43 4L43 9L44 9L44 10L45 10L45 9L46 9L46 8L45 8L45 9L44 9L44 4L45 4L45 5L47 5L47 3L44 3L44 2L43 2L43 3L42 3L42 2L40 2L40 3L38 3L38 2L37 2L37 3L36 3L36 2L34 2L34 5L33 5L33 3L32 3L32 2L31 2L31 3L32 3L32 5L33 5L33 7L32 7L32 6L31 6L31 10L30 10L30 11L32 11L32 8L33 8L33 9L34 9L34 10L33 10L33 13L34 13L34 18L32 18L32 16L31 16L31 15L32 15L32 12L29 12L29 11L28 11L28 9L26 9L26 6L25 6L25 7L24 7L24 6L23 6L23 5L24 5L24 4L25 4L25 3L23 3L23 2ZM37 3L37 4L38 4L38 3ZM43 3L43 4L44 4L44 3ZM35 4L35 5L34 5L34 7L33 7L33 8L34 8L34 7L35 7L35 5L36 5L36 4ZM27 5L27 8L30 8L30 5ZM10 6L10 8L9 8L9 9L10 9L10 8L12 8L12 7L13 7L13 6L12 6L12 7L11 7L11 6ZM28 6L28 7L29 7L29 6ZM37 6L37 7L38 7L38 6ZM45 6L45 7L46 7L46 6ZM48 6L48 7L49 7L49 6ZM24 8L24 9L23 9L23 11L24 11L24 12L22 12L22 11L20 11L20 10L19 10L19 11L20 11L20 15L22 15L22 16L24 16L24 15L25 15L25 17L21 17L21 16L20 16L20 19L19 19L19 20L18 20L18 18L19 18L19 16L17 16L17 14L19 14L19 12L18 12L18 13L17 13L17 14L15 14L15 13L13 13L13 14L12 14L12 16L13 16L13 17L12 17L12 18L13 18L13 17L15 17L15 18L16 18L16 20L17 20L17 21L15 21L15 20L14 20L14 19L13 19L13 21L12 21L12 19L11 19L11 21L12 21L12 22L11 22L11 23L13 23L13 21L14 21L14 23L16 23L16 22L17 22L17 25L18 25L18 27L16 27L16 28L15 28L15 29L14 29L14 31L15 31L15 33L17 33L17 35L16 35L16 36L17 36L17 35L18 35L18 37L22 37L22 36L19 36L19 35L18 35L18 34L19 34L19 33L20 33L20 35L21 35L21 33L22 33L22 31L23 31L23 32L27 32L27 33L23 33L23 34L22 34L22 35L23 35L23 37L24 37L24 38L26 38L26 40L25 40L25 41L24 41L24 39L23 39L23 42L26 42L26 41L27 41L27 43L28 43L28 41L27 41L27 40L29 40L29 41L30 41L30 42L31 42L31 43L32 43L32 41L33 41L33 43L37 43L37 44L39 44L39 42L40 42L40 40L41 40L41 42L43 42L43 44L44 44L44 45L45 45L45 46L44 46L44 47L45 47L45 48L46 48L46 49L47 49L47 47L48 47L48 46L49 46L49 45L50 45L50 44L51 44L51 43L52 43L52 44L53 44L53 43L52 43L52 41L51 41L51 43L50 43L50 42L49 42L49 41L48 41L48 42L49 42L49 43L48 43L48 45L47 45L47 44L46 44L46 45L45 45L45 44L44 44L44 41L45 41L45 42L46 42L46 43L47 43L47 42L46 42L46 41L47 41L47 40L46 40L46 39L47 39L47 38L48 38L48 37L47 37L47 38L46 38L46 39L44 39L44 41L43 41L43 38L44 38L44 37L38 37L38 38L40 38L40 40L39 40L39 39L38 39L38 42L37 42L37 39L35 39L35 38L34 38L34 37L33 37L33 36L34 36L34 35L31 35L31 36L30 36L30 34L31 34L31 33L29 33L29 32L32 32L32 33L33 33L33 34L34 34L34 32L32 32L32 31L34 31L34 27L33 27L33 26L34 26L34 25L37 25L37 24L34 24L34 23L35 23L35 22L37 22L37 23L38 23L38 26L39 26L39 27L40 27L40 28L41 28L41 27L42 27L42 28L43 28L43 29L44 29L44 30L45 30L45 31L46 31L46 33L47 33L47 31L46 31L46 30L45 30L45 26L46 26L46 27L47 27L47 26L46 26L46 25L47 25L47 24L46 24L46 23L45 23L45 24L44 24L44 25L45 25L45 26L44 26L44 27L43 27L43 25L40 25L40 23L38 23L38 22L39 22L39 21L40 21L40 22L41 22L41 23L42 23L42 22L43 22L43 23L44 23L44 22L43 22L43 21L42 21L42 20L41 20L41 21L40 21L40 18L41 18L41 19L42 19L42 18L43 18L43 17L42 17L42 15L43 15L43 16L44 16L44 15L43 15L43 14L44 14L44 13L41 13L41 14L40 14L40 12L39 12L39 13L38 13L38 15L39 15L39 17L38 17L38 16L37 16L37 15L35 15L35 17L38 17L38 18L39 18L39 19L37 19L37 18L34 18L34 19L31 19L31 16L29 16L29 13L26 13L26 11L27 11L27 12L28 12L28 11L27 11L27 10L25 10L25 8ZM53 8L53 9L55 9L55 12L56 12L56 13L55 13L55 16L54 16L54 17L55 17L55 19L56 19L56 17L57 17L57 15L56 15L56 13L57 13L57 11L56 11L56 10L57 10L57 8ZM34 10L34 12L35 12L35 13L36 13L36 14L37 14L37 12L35 12L35 11L36 11L36 10ZM24 12L24 13L25 13L25 15L26 15L26 16L27 16L27 15L28 15L28 14L27 14L27 15L26 15L26 13L25 13L25 12ZM21 13L21 14L22 14L22 15L24 15L24 14L23 14L23 13ZM30 13L30 15L31 15L31 13ZM47 13L47 14L49 14L49 13ZM13 14L13 15L14 15L14 16L15 16L15 15L14 15L14 14ZM39 14L39 15L40 15L40 17L39 17L39 18L40 18L40 17L41 17L41 15L40 15L40 14ZM55 16L55 17L56 17L56 16ZM16 17L16 18L17 18L17 17ZM25 17L25 18L24 18L24 19L22 19L22 18L21 18L21 19L22 19L22 21L24 21L24 22L25 22L25 23L26 23L26 22L27 22L27 23L28 23L28 22L29 22L29 21L32 21L32 20L28 20L28 19L30 19L30 18L28 18L28 17ZM25 18L25 20L24 20L24 21L25 21L25 20L26 20L26 21L28 21L28 20L26 20L26 18ZM34 19L34 20L36 20L36 19ZM19 20L19 21L18 21L18 22L19 22L19 21L20 21L20 20ZM37 20L37 22L38 22L38 21L39 21L39 20ZM34 21L34 22L30 22L30 24L28 24L28 25L31 25L31 27L32 27L32 28L31 28L31 31L32 31L32 28L33 28L33 27L32 27L32 23L34 23L34 22L35 22L35 21ZM5 22L5 23L7 23L7 22ZM20 22L20 23L19 23L19 24L20 24L20 25L19 25L19 27L20 27L20 28L18 28L18 29L15 29L15 30L16 30L16 32L17 32L17 30L18 30L18 31L20 31L20 32L21 32L21 31L22 31L22 30L23 30L23 28L25 28L25 27L26 27L26 25L25 25L25 27L24 27L24 26L23 26L23 28L22 28L22 27L20 27L20 25L24 25L24 23L23 23L23 24L22 24L22 22ZM49 22L49 23L50 23L50 22ZM6 24L6 25L8 25L8 24ZM14 24L14 25L15 25L15 26L16 26L16 25L15 25L15 24ZM33 24L33 25L34 25L34 24ZM45 24L45 25L46 25L46 24ZM39 25L39 26L40 26L40 25ZM36 26L36 27L37 27L37 26ZM5 27L5 30L8 30L8 27ZM27 27L27 30L30 30L30 27ZM49 27L49 30L52 30L52 27ZM6 28L6 29L7 29L7 28ZM20 28L20 30L22 30L22 29L21 29L21 28ZM28 28L28 29L29 29L29 28ZM46 28L46 29L47 29L47 28ZM50 28L50 29L51 29L51 28ZM18 29L18 30L19 30L19 29ZM25 29L25 30L24 30L24 31L25 31L25 30L26 30L26 29ZM37 30L37 32L38 32L38 30ZM6 32L6 33L7 33L7 34L6 34L6 35L5 35L5 36L4 36L4 37L3 37L3 38L6 38L6 39L7 39L7 38L6 38L6 37L7 37L7 36L8 36L8 37L9 37L9 38L8 38L8 39L9 39L9 38L11 38L11 35L10 35L10 34L11 34L11 33L10 33L10 34L8 34L8 33L7 33L7 32ZM0 33L0 34L1 34L1 33ZM28 33L28 34L27 34L27 35L26 35L26 34L24 34L24 36L25 36L25 35L26 35L26 36L28 36L28 37L26 37L26 38L27 38L27 39L28 39L28 38L29 38L29 39L31 39L31 40L30 40L30 41L32 41L32 40L33 40L33 39L31 39L31 38L33 38L33 37L32 37L32 36L31 36L31 37L29 37L29 36L28 36L28 34L29 34L29 33ZM6 35L6 36L5 36L5 37L6 37L6 36L7 36L7 35ZM9 35L9 37L10 37L10 35ZM39 35L39 36L40 36L40 35ZM34 39L34 42L35 42L35 39ZM41 39L41 40L42 40L42 39ZM18 40L18 41L17 41L17 42L16 42L16 43L18 43L18 41L19 41L19 40ZM45 40L45 41L46 41L46 40ZM4 41L4 42L5 42L5 41ZM6 42L6 43L7 43L7 42ZM8 42L8 43L9 43L9 42ZM3 43L3 44L5 44L5 43ZM10 43L10 44L12 44L12 45L13 45L13 46L14 46L14 45L13 45L13 44L12 44L12 43ZM21 43L21 45L20 45L20 46L21 46L21 47L22 47L22 46L21 46L21 45L23 45L23 44L22 44L22 43ZM49 43L49 44L50 44L50 43ZM46 45L46 47L47 47L47 45ZM8 46L8 47L9 47L9 46ZM36 47L36 48L37 48L37 47ZM6 48L6 49L7 49L7 48ZM27 49L27 52L30 52L30 49ZM34 49L34 50L35 50L35 52L36 52L36 49ZM49 49L49 52L52 52L52 49ZM55 49L55 50L56 50L56 49ZM28 50L28 51L29 51L29 50ZM50 50L50 51L51 51L51 50ZM43 52L43 53L44 53L44 52ZM54 52L54 54L57 54L57 53L55 53L55 52ZM13 53L13 54L14 54L14 53ZM30 53L30 54L31 54L31 53ZM32 53L32 54L33 54L33 53ZM18 54L18 55L19 55L19 54ZM42 54L42 55L43 55L43 54ZM15 56L15 57L16 57L16 56ZM26 56L26 57L27 57L27 56ZM56 56L56 57L57 57L57 56ZM0 0L0 7L7 7L7 0ZM1 1L1 6L6 6L6 1ZM2 2L2 5L5 5L5 2ZM50 0L50 7L57 7L57 0ZM51 1L51 6L56 6L56 1ZM52 2L52 5L55 5L55 2ZM0 50L0 57L7 57L7 50ZM1 51L1 56L6 56L6 51ZM2 52L2 55L5 55L5 52Z" fill="#000000"/></g></g></svg>
