<?xml version="1.0" encoding="UTF-8"?>
<svg xmlns="http://www.w3.org/2000/svg" version="1.1" width="300" height="300" viewBox="0 0 300 300"><rect x="0" y="0" width="300" height="300" fill="#fefefe"/><g transform="scale(4.615)"><g transform="translate(4,4)"><path fill-rule="evenodd" d="M10 0L10 1L8 1L8 2L9 2L9 3L8 3L8 4L9 4L9 5L8 5L8 7L9 7L9 8L6 8L6 9L5 9L5 8L0 8L0 10L1 10L1 11L2 11L2 12L0 12L0 15L2 15L2 17L1 17L1 16L0 16L0 22L1 22L1 23L2 23L2 22L4 22L4 21L5 21L5 20L6 20L6 21L7 21L7 20L8 20L8 21L9 21L9 22L8 22L8 23L7 23L7 22L5 22L5 23L3 23L3 24L4 24L4 25L7 25L7 26L3 26L3 25L0 25L0 26L2 26L2 27L1 27L1 28L2 28L2 27L3 27L3 28L4 28L4 29L2 29L2 30L3 30L3 31L1 31L1 29L0 29L0 31L1 31L1 33L2 33L2 34L0 34L0 35L3 35L3 33L4 33L4 34L5 34L5 33L4 33L4 31L7 31L7 32L6 32L6 33L7 33L7 34L6 34L6 35L7 35L7 34L8 34L8 32L9 32L9 33L10 33L10 31L11 31L11 33L12 33L12 34L9 34L9 35L8 35L8 36L3 36L3 37L0 37L0 40L4 40L4 41L2 41L2 43L3 43L3 42L4 42L4 45L3 45L3 46L2 46L2 47L1 47L1 46L0 46L0 48L5 48L5 47L8 47L8 48L9 48L9 46L10 46L10 45L12 45L12 46L13 46L13 47L14 47L14 48L13 48L13 49L12 49L12 47L11 47L11 49L12 49L12 50L11 50L11 51L10 51L10 49L8 49L8 51L9 51L9 52L8 52L8 57L11 57L11 56L13 56L13 57L16 57L16 56L17 56L17 57L19 57L19 55L20 55L20 54L19 54L19 55L18 55L18 56L17 56L17 53L20 53L20 52L21 52L21 51L19 51L19 52L17 52L17 53L16 53L16 51L17 51L17 50L15 50L15 49L14 49L14 48L15 48L15 47L16 47L16 46L14 46L14 45L15 45L15 44L13 44L13 45L12 45L12 44L11 44L11 43L12 43L12 42L11 42L11 41L13 41L13 43L14 43L14 39L15 39L15 41L16 41L16 39L15 39L15 38L16 38L16 37L15 37L15 38L13 38L13 37L14 37L14 36L13 36L13 32L14 32L14 34L15 34L15 36L17 36L17 38L20 38L20 39L19 39L19 40L17 40L17 41L19 41L19 42L18 42L18 43L16 43L16 45L17 45L17 46L18 46L18 47L17 47L17 49L19 49L19 50L20 50L20 49L21 49L21 50L22 50L22 51L23 51L23 50L25 50L25 51L26 51L26 52L24 52L24 53L23 53L23 54L22 54L22 53L21 53L21 56L20 56L20 57L21 57L21 56L23 56L23 57L26 57L26 56L27 56L27 57L29 57L29 56L30 56L30 57L31 57L31 56L35 56L35 57L39 57L39 56L41 56L41 57L44 57L44 54L46 54L46 55L47 55L47 56L46 56L46 57L47 57L47 56L48 56L48 57L49 57L49 56L50 56L50 57L52 57L52 55L51 55L51 53L52 53L52 54L53 54L53 55L54 55L54 56L53 56L53 57L54 57L54 56L55 56L55 57L56 57L56 56L55 56L55 54L54 54L54 53L55 53L55 52L56 52L56 50L55 50L55 48L56 48L56 49L57 49L57 48L56 48L56 46L57 46L57 45L56 45L56 46L55 46L55 45L54 45L54 44L55 44L55 43L56 43L56 44L57 44L57 43L56 43L56 42L55 42L55 39L57 39L57 37L56 37L56 36L57 36L57 35L56 35L56 34L55 34L55 32L56 32L56 33L57 33L57 32L56 32L56 30L57 30L57 28L56 28L56 27L55 27L55 26L57 26L57 25L56 25L56 22L57 22L57 19L56 19L56 22L55 22L55 23L54 23L54 24L53 24L53 22L54 22L54 21L51 21L51 20L52 20L52 19L53 19L53 20L55 20L55 18L57 18L57 17L56 17L56 16L57 16L57 15L56 15L56 14L57 14L57 13L56 13L56 14L55 14L55 13L54 13L54 12L55 12L55 11L56 11L56 10L54 10L54 11L52 11L52 10L49 10L49 9L50 9L50 8L49 8L49 9L48 9L48 7L49 7L49 6L48 6L48 7L47 7L47 5L48 5L48 0L45 0L45 1L47 1L47 2L44 2L44 3L43 3L43 4L40 4L40 5L39 5L39 6L38 6L38 7L37 7L37 5L38 5L38 3L36 3L36 0L35 0L35 1L33 1L33 2L32 2L32 3L31 3L31 4L26 4L26 3L23 3L23 4L24 4L24 5L23 5L23 6L22 6L22 8L23 8L23 6L24 6L24 9L23 9L23 10L22 10L22 9L21 9L21 10L20 10L20 8L21 8L21 5L22 5L22 4L19 4L19 3L20 3L20 2L19 2L19 1L20 1L20 0L18 0L18 1L17 1L17 2L18 2L18 4L17 4L17 5L18 5L18 4L19 4L19 5L20 5L20 7L19 7L19 6L18 6L18 7L17 7L17 6L16 6L16 7L15 7L15 5L16 5L16 4L15 4L15 5L14 5L14 7L13 7L13 6L12 6L12 5L13 5L13 4L14 4L14 2L16 2L16 1L15 1L15 0L14 0L14 2L13 2L13 1L11 1L11 0ZM21 0L21 1L22 1L22 0ZM23 0L23 2L25 2L25 1L26 1L26 2L27 2L27 3L28 3L28 2L29 2L29 1L32 1L32 0L27 0L27 1L26 1L26 0ZM37 0L37 1L38 1L38 2L39 2L39 3L42 3L42 2L43 2L43 0L41 0L41 1L40 1L40 0L39 0L39 1L38 1L38 0ZM10 1L10 4L11 4L11 1ZM27 1L27 2L28 2L28 1ZM34 2L34 3L35 3L35 2ZM32 3L32 4L31 4L31 8L32 8L32 10L29 10L29 9L28 9L28 10L27 10L27 11L26 11L26 12L25 12L25 10L23 10L23 11L24 11L24 12L23 12L23 13L22 13L22 12L21 12L21 11L22 11L22 10L21 10L21 11L19 11L19 13L20 13L20 15L18 15L18 16L19 16L19 17L20 17L20 19L19 19L19 20L20 20L20 21L19 21L19 22L18 22L18 21L17 21L17 19L18 19L18 17L16 17L16 16L17 16L17 13L18 13L18 12L17 12L17 13L16 13L16 11L15 11L15 13L13 13L13 14L15 14L15 13L16 13L16 16L15 16L15 15L14 15L14 16L13 16L13 15L12 15L12 11L11 11L11 10L12 10L12 9L13 9L13 10L17 10L17 11L18 11L18 10L19 10L19 9L18 9L18 10L17 10L17 9L15 9L15 8L14 8L14 9L13 9L13 8L11 8L11 7L12 7L12 6L11 6L11 7L10 7L10 5L9 5L9 7L10 7L10 8L11 8L11 10L10 10L10 9L6 9L6 10L7 10L7 11L4 11L4 9L2 9L2 10L3 10L3 12L2 12L2 13L1 13L1 14L2 14L2 13L3 13L3 12L4 12L4 13L5 13L5 14L7 14L7 15L6 15L6 16L5 16L5 15L4 15L4 14L3 14L3 18L1 18L1 19L3 19L3 20L1 20L1 21L3 21L3 20L4 20L4 19L3 19L3 18L4 18L4 16L5 16L5 17L6 17L6 18L7 18L7 19L6 19L6 20L7 20L7 19L8 19L8 18L9 18L9 19L10 19L10 17L16 17L16 18L13 18L13 19L14 19L14 20L12 20L12 22L11 22L11 23L9 23L9 26L11 26L11 27L12 27L12 28L11 28L11 29L9 29L9 30L11 30L11 31L13 31L13 30L11 30L11 29L12 29L12 28L13 28L13 29L14 29L14 30L15 30L15 29L16 29L16 30L18 30L18 29L19 29L19 26L20 26L20 30L19 30L19 31L17 31L17 32L15 32L15 31L14 31L14 32L15 32L15 34L16 34L16 35L17 35L17 36L19 36L19 37L22 37L22 40L20 40L20 43L22 43L22 42L24 42L24 41L25 41L25 43L23 43L23 45L22 45L22 44L19 44L19 45L20 45L20 46L19 46L19 47L18 47L18 48L19 48L19 49L20 49L20 48L21 48L21 49L23 49L23 48L24 48L24 49L26 49L26 48L27 48L27 47L28 47L28 48L30 48L30 47L29 47L29 45L31 45L31 46L32 46L32 49L31 49L31 50L36 50L36 52L37 52L37 53L38 53L38 54L37 54L37 56L39 56L39 55L38 55L38 54L40 54L40 53L42 53L42 52L43 52L43 51L42 51L42 50L41 50L41 48L42 48L42 49L43 49L43 50L47 50L47 52L46 52L46 51L45 51L45 52L44 52L44 53L43 53L43 54L44 54L44 53L46 53L46 54L48 54L48 50L47 50L47 49L48 49L48 48L51 48L51 45L52 45L52 46L53 46L53 45L52 45L52 44L53 44L53 43L54 43L54 42L53 42L53 41L54 41L54 40L53 40L53 39L55 39L55 38L54 38L54 37L53 37L53 35L55 35L55 34L54 34L54 33L52 33L52 32L53 32L53 31L51 31L51 33L52 33L52 34L50 34L50 31L48 31L48 30L47 30L47 29L46 29L46 30L47 30L47 31L46 31L46 32L47 32L47 33L45 33L45 32L43 32L43 31L44 31L44 29L45 29L45 28L46 28L46 27L47 27L47 28L48 28L48 25L50 25L50 26L51 26L51 25L53 25L53 24L51 24L51 23L50 23L50 22L51 22L51 21L49 21L49 19L51 19L51 18L55 18L55 16L52 16L52 15L50 15L50 14L51 14L51 12L50 12L50 11L49 11L49 12L48 12L48 11L47 11L47 12L45 12L45 11L44 11L44 9L45 9L45 10L47 10L47 9L45 9L45 8L46 8L46 6L45 6L45 4L46 4L46 5L47 5L47 3L44 3L44 6L43 6L43 5L40 5L40 6L39 6L39 7L40 7L40 8L39 8L39 9L38 9L38 10L37 10L37 9L35 9L35 8L37 8L37 7L36 7L36 5L37 5L37 4L36 4L36 5L35 5L35 4L33 4L33 3ZM25 4L25 8L26 8L26 4ZM32 4L32 5L33 5L33 6L32 6L32 7L33 7L33 9L34 9L34 8L35 8L35 5L33 5L33 4ZM27 5L27 8L30 8L30 5ZM28 6L28 7L29 7L29 6ZM33 6L33 7L34 7L34 6ZM40 6L40 7L41 7L41 8L42 8L42 9L41 9L41 10L43 10L43 9L44 9L44 8L43 8L43 6L42 6L42 7L41 7L41 6ZM44 6L44 7L45 7L45 6ZM16 7L16 8L17 8L17 7ZM51 8L51 9L52 9L52 8ZM53 8L53 9L54 9L54 8ZM55 8L55 9L56 9L56 8ZM9 10L9 11L7 11L7 12L6 12L6 13L7 13L7 14L8 14L8 12L9 12L9 11L10 11L10 12L11 12L11 11L10 11L10 10ZM28 10L28 11L27 11L27 12L26 12L26 13L28 13L28 14L29 14L29 16L28 16L28 15L27 15L27 14L26 14L26 15L24 15L24 14L25 14L25 12L24 12L24 13L23 13L23 14L22 14L22 13L21 13L21 12L20 12L20 13L21 13L21 15L24 15L24 16L25 16L25 17L22 17L22 16L20 16L20 17L22 17L22 18L21 18L21 19L20 19L20 20L24 20L24 21L23 21L23 22L24 22L24 21L25 21L25 22L26 22L26 23L25 23L25 24L24 24L24 23L23 23L23 24L24 24L24 25L22 25L22 24L17 24L17 21L16 21L16 20L15 20L15 21L16 21L16 22L14 22L14 21L13 21L13 22L12 22L12 23L11 23L11 24L12 24L12 27L13 27L13 26L15 26L15 27L16 27L16 26L15 26L15 25L16 25L16 24L17 24L17 27L18 27L18 26L19 26L19 25L22 25L22 26L21 26L21 27L22 27L22 26L23 26L23 27L24 27L24 28L26 28L26 29L23 29L23 30L25 30L25 31L26 31L26 32L25 32L25 33L23 33L23 34L22 34L22 33L21 33L21 32L23 32L23 31L21 31L21 30L20 30L20 31L19 31L19 32L17 32L17 34L18 34L18 33L19 33L19 36L20 36L20 35L23 35L23 34L24 34L24 36L23 36L23 37L24 37L24 38L23 38L23 39L24 39L24 40L23 40L23 41L24 41L24 40L25 40L25 39L27 39L27 40L28 40L28 41L29 41L29 40L28 40L28 39L27 39L27 38L28 38L28 37L26 37L26 38L25 38L25 36L26 36L26 35L27 35L27 33L26 33L26 32L28 32L28 33L29 33L29 34L30 34L30 36L29 36L29 37L31 37L31 38L29 38L29 39L33 39L33 40L35 40L35 42L37 42L37 43L36 43L36 44L35 44L35 43L34 43L34 42L33 42L33 41L32 41L32 40L31 40L31 41L32 41L32 42L27 42L27 41L26 41L26 42L27 42L27 43L25 43L25 44L27 44L27 43L28 43L28 45L29 45L29 43L32 43L32 44L31 44L31 45L32 45L32 44L33 44L33 43L34 43L34 45L35 45L35 46L33 46L33 47L35 47L35 46L36 46L36 45L37 45L37 47L36 47L36 48L35 48L35 49L36 49L36 50L38 50L38 53L39 53L39 51L40 51L40 52L42 52L42 51L41 51L41 50L38 50L38 49L39 49L39 48L41 48L41 46L43 46L43 45L44 45L44 46L45 46L45 48L46 48L46 47L47 47L47 48L48 48L48 47L50 47L50 46L49 46L49 45L50 45L50 44L51 44L51 43L53 43L53 42L51 42L51 41L53 41L53 40L51 40L51 39L52 39L52 38L51 38L51 39L49 39L49 38L50 38L50 36L52 36L52 35L53 35L53 34L52 34L52 35L50 35L50 34L49 34L49 35L50 35L50 36L48 36L48 35L47 35L47 34L45 34L45 35L44 35L44 33L43 33L43 32L41 32L41 33L39 33L39 34L40 34L40 35L39 35L39 37L40 37L40 38L43 38L43 37L44 37L44 38L45 38L45 39L43 39L43 40L41 40L41 41L39 41L39 42L38 42L38 40L40 40L40 39L38 39L38 37L37 37L37 36L38 36L38 33L37 33L37 32L33 32L33 33L35 33L35 34L37 34L37 36L35 36L35 35L34 35L34 34L33 34L33 35L32 35L32 31L36 31L36 30L32 30L32 28L31 28L31 26L32 26L32 27L33 27L33 28L35 28L35 29L38 29L38 28L40 28L40 27L41 27L41 28L42 28L42 27L41 27L41 26L43 26L43 25L44 25L44 26L45 26L45 27L44 27L44 28L43 28L43 29L40 29L40 30L43 30L43 29L44 29L44 28L45 28L45 27L46 27L46 26L45 26L45 25L48 25L48 23L47 23L47 22L49 22L49 21L47 21L47 18L50 18L50 17L52 17L52 16L50 16L50 17L49 17L49 16L48 16L48 15L49 15L49 14L50 14L50 12L49 12L49 13L47 13L47 14L43 14L43 13L44 13L44 12L43 12L43 13L41 13L41 14L38 14L38 13L40 13L40 12L41 12L41 11L40 11L40 12L39 12L39 11L37 11L37 10L36 10L36 11L35 11L35 13L36 13L36 14L32 14L32 12L33 12L33 13L34 13L34 12L33 12L33 10L32 10L32 11L31 11L31 13L30 13L30 14L29 14L29 13L28 13L28 12L29 12L29 10ZM13 11L13 12L14 12L14 11ZM52 12L52 13L53 13L53 14L54 14L54 13L53 13L53 12ZM9 14L9 15L7 15L7 16L6 16L6 17L7 17L7 18L8 18L8 17L9 17L9 16L10 16L10 14ZM30 14L30 15L31 15L31 14ZM37 14L37 15L35 15L35 16L31 16L31 17L32 17L32 18L30 18L30 20L29 20L29 19L28 19L28 18L25 18L25 19L26 19L26 21L30 21L30 20L31 20L31 19L32 19L32 18L33 18L33 19L36 19L36 20L37 20L37 19L39 19L39 17L41 17L41 16L42 16L42 17L43 17L43 16L42 16L42 15L43 15L43 14L41 14L41 16L39 16L39 15L38 15L38 14ZM11 15L11 16L12 16L12 15ZM26 15L26 17L28 17L28 16L27 16L27 15ZM44 15L44 18L43 18L43 19L42 19L42 18L41 18L41 19L42 19L42 20L44 20L44 25L45 25L45 22L47 22L47 21L45 21L45 20L46 20L46 18L47 18L47 17L48 17L48 16L47 16L47 15L46 15L46 17L45 17L45 15ZM35 16L35 17L37 17L37 18L38 18L38 17L39 17L39 16L38 16L38 17L37 17L37 16ZM23 18L23 19L24 19L24 18ZM44 18L44 20L45 20L45 18ZM27 19L27 20L28 20L28 19ZM9 20L9 21L11 21L11 20ZM32 20L32 21L31 21L31 23L30 23L30 24L25 24L25 25L26 25L26 26L24 26L24 27L26 27L26 26L27 26L27 25L30 25L30 24L32 24L32 26L33 26L33 27L34 27L34 26L36 26L36 27L40 27L40 26L41 26L41 25L42 25L42 24L43 24L43 23L42 23L42 22L41 22L41 24L40 24L40 22L39 22L39 21L41 21L41 20L39 20L39 21L38 21L38 23L37 23L37 24L40 24L40 25L38 25L38 26L37 26L37 25L33 25L33 24L32 24L32 23L35 23L35 20ZM19 22L19 23L20 23L20 22ZM5 23L5 24L7 24L7 25L8 25L8 24L7 24L7 23ZM13 23L13 25L14 25L14 23ZM15 23L15 24L16 24L16 23ZM54 24L54 25L55 25L55 24ZM53 26L53 27L54 27L54 26ZM5 27L5 30L8 30L8 27ZM9 27L9 28L10 28L10 27ZM27 27L27 30L30 30L30 27ZM49 27L49 30L52 30L52 27ZM6 28L6 29L7 29L7 28ZM14 28L14 29L15 29L15 28ZM16 28L16 29L18 29L18 28ZM21 28L21 29L22 29L22 28ZM28 28L28 29L29 29L29 28ZM50 28L50 29L51 29L51 28ZM54 28L54 29L53 29L53 30L54 30L54 29L56 29L56 28ZM31 30L31 31L29 31L29 33L31 33L31 31L32 31L32 30ZM38 30L38 32L39 32L39 30ZM47 31L47 32L48 32L48 33L49 33L49 32L48 32L48 31ZM2 32L2 33L3 33L3 32ZM20 33L20 34L21 34L21 33ZM25 33L25 34L26 34L26 33ZM42 34L42 35L43 35L43 36L40 36L40 37L43 37L43 36L44 36L44 37L45 37L45 38L46 38L46 39L45 39L45 40L43 40L43 41L44 41L44 42L43 42L43 43L44 43L44 45L45 45L45 46L47 46L47 45L49 45L49 44L50 44L50 43L51 43L51 42L50 42L50 43L47 43L47 42L48 42L48 41L49 41L49 39L47 39L47 37L48 37L48 38L49 38L49 37L48 37L48 36L47 36L47 37L45 37L45 36L44 36L44 35L43 35L43 34ZM10 35L10 36L9 36L9 37L8 37L8 38L7 38L7 37L6 37L6 38L2 38L2 39L5 39L5 40L7 40L7 39L8 39L8 38L9 38L9 39L10 39L10 41L11 41L11 39L12 39L12 40L13 40L13 39L12 39L12 38L10 38L10 37L13 37L13 36L11 36L11 35ZM32 36L32 37L33 37L33 39L35 39L35 40L38 40L38 39L35 39L35 36ZM6 38L6 39L7 39L7 38ZM46 39L46 40L45 40L45 41L47 41L47 39ZM0 41L0 44L1 44L1 45L2 45L2 44L1 44L1 41ZM4 41L4 42L5 42L5 41ZM6 41L6 42L8 42L8 43L11 43L11 42L8 42L8 41ZM32 42L32 43L33 43L33 42ZM44 42L44 43L45 43L45 42ZM6 43L6 44L5 44L5 46L3 46L3 47L5 47L5 46L8 46L8 45L9 45L9 44L7 44L7 43ZM39 43L39 45L38 45L38 46L39 46L39 47L38 47L38 48L37 48L37 49L38 49L38 48L39 48L39 47L40 47L40 46L41 46L41 44L42 44L42 43ZM46 43L46 44L45 44L45 45L47 45L47 43ZM6 44L6 45L7 45L7 44ZM17 44L17 45L18 45L18 44ZM21 45L21 47L23 47L23 46L25 46L25 45L23 45L23 46L22 46L22 45ZM26 45L26 47L25 47L25 48L26 48L26 47L27 47L27 45ZM54 46L54 47L55 47L55 46ZM19 47L19 48L20 48L20 47ZM42 47L42 48L43 48L43 49L44 49L44 48L43 48L43 47ZM6 48L6 49L7 49L7 48ZM33 48L33 49L34 49L34 48ZM53 48L53 49L54 49L54 48ZM27 49L27 52L30 52L30 49ZM49 49L49 52L52 52L52 49ZM13 50L13 51L15 51L15 50ZM28 50L28 51L29 51L29 50ZM50 50L50 51L51 51L51 50ZM54 50L54 51L55 51L55 50ZM11 51L11 55L10 55L10 54L9 54L9 56L11 56L11 55L12 55L12 53L15 53L15 54L14 54L14 55L13 55L13 56L16 56L16 55L15 55L15 54L16 54L16 53L15 53L15 52L12 52L12 51ZM31 51L31 53L30 53L30 54L27 54L27 53L26 53L26 54L25 54L25 53L24 53L24 54L23 54L23 55L24 55L24 56L26 56L26 54L27 54L27 56L29 56L29 55L30 55L30 56L31 56L31 54L32 54L32 53L33 53L33 54L35 54L35 56L36 56L36 54L35 54L35 51L33 51L33 52L32 52L32 51ZM9 52L9 53L10 53L10 52ZM33 52L33 53L34 53L34 52ZM53 52L53 53L54 53L54 52ZM41 54L41 56L43 56L43 55L42 55L42 54ZM50 55L50 56L51 56L51 55ZM0 0L0 7L7 7L7 0ZM1 1L1 6L6 6L6 1ZM2 2L2 5L5 5L5 2ZM50 0L50 7L57 7L57 0ZM51 1L51 6L56 6L56 1ZM52 2L52 5L55 5L55 2ZM0 50L0 57L7 57L7 50ZM1 51L1 56L6 56L6 51ZM2 52L2 55L5 55L5 52Z" fill="#000000"/></g></g></svg>
