<?xml version="1.0" encoding="UTF-8"?>
<svg xmlns="http://www.w3.org/2000/svg" version="1.1" width="300" height="300" viewBox="0 0 300 300"><rect x="0" y="0" width="300" height="300" fill="#fefefe"/><g transform="scale(4.615)"><g transform="translate(4,4)"><path fill-rule="evenodd" d="M12 0L12 1L11 1L11 2L12 2L12 1L13 1L13 0ZM14 0L14 2L13 2L13 3L11 3L11 5L10 5L10 3L8 3L8 4L9 4L9 5L8 5L8 7L9 7L9 6L10 6L10 8L6 8L6 9L5 9L5 8L0 8L0 9L3 9L3 10L2 10L2 11L1 11L1 10L0 10L0 11L1 11L1 14L0 14L0 16L3 16L3 11L5 11L5 12L4 12L4 14L6 14L6 15L5 15L5 16L4 16L4 17L5 17L5 18L3 18L3 19L5 19L5 20L4 20L4 21L3 21L3 20L1 20L1 19L2 19L2 17L1 17L1 18L0 18L0 24L1 24L1 26L0 26L0 31L1 31L1 28L2 28L2 29L3 29L3 30L4 30L4 31L9 31L9 32L5 32L5 33L8 33L8 34L4 34L4 32L3 32L3 31L2 31L2 33L0 33L0 35L1 35L1 34L2 34L2 35L3 35L3 36L4 36L4 35L5 35L5 36L6 36L6 37L3 37L3 38L4 38L4 39L2 39L2 37L1 37L1 36L0 36L0 37L1 37L1 41L2 41L2 42L3 42L3 43L7 43L7 44L3 44L3 45L1 45L1 44L0 44L0 45L1 45L1 46L0 46L0 48L5 48L5 47L7 47L7 46L5 46L5 47L3 47L3 46L4 46L4 45L7 45L7 44L8 44L8 45L9 45L9 46L8 46L8 48L6 48L6 49L8 49L8 51L9 51L9 50L10 50L10 51L11 51L11 53L12 53L12 54L9 54L9 52L8 52L8 57L9 57L9 55L12 55L12 54L13 54L13 53L14 53L14 55L13 55L13 57L15 57L15 55L16 55L16 56L17 56L17 57L21 57L21 56L18 56L18 55L20 55L20 54L19 54L19 53L20 53L20 52L23 52L23 51L21 51L21 50L25 50L25 51L26 51L26 52L24 52L24 53L23 53L23 54L21 54L21 55L23 55L23 56L24 56L24 55L23 55L23 54L24 54L24 53L25 53L25 55L26 55L26 53L27 53L27 54L30 54L30 53L31 53L31 50L32 50L32 48L33 48L33 49L36 49L36 50L35 50L35 52L34 52L34 50L33 50L33 51L32 51L32 52L33 52L33 53L32 53L32 54L31 54L31 56L30 56L30 55L29 55L29 56L27 56L27 57L29 57L29 56L30 56L30 57L31 57L31 56L35 56L35 57L40 57L40 56L42 56L42 55L44 55L44 56L43 56L43 57L44 57L44 56L45 56L45 57L49 57L49 56L50 56L50 57L52 57L52 55L51 55L51 53L52 53L52 54L53 54L53 55L54 55L54 56L53 56L53 57L54 57L54 56L55 56L55 57L56 57L56 56L55 56L55 52L56 52L56 49L57 49L57 48L56 48L56 46L57 46L57 45L56 45L56 44L55 44L55 43L56 43L56 41L55 41L55 39L57 39L57 37L56 37L56 36L57 36L57 35L53 35L53 34L52 34L52 33L54 33L54 34L57 34L57 32L56 32L56 30L57 30L57 29L56 29L56 27L55 27L55 26L57 26L57 25L56 25L56 22L57 22L57 20L56 20L56 22L55 22L55 23L53 23L53 21L51 21L51 20L52 20L52 19L53 19L53 20L55 20L55 18L57 18L57 17L56 17L56 16L57 16L57 15L56 15L56 14L57 14L57 13L56 13L56 14L55 14L55 13L54 13L54 12L55 12L55 11L56 11L56 12L57 12L57 11L56 11L56 8L55 8L55 10L54 10L54 11L52 11L52 10L53 10L53 9L54 9L54 8L53 8L53 9L52 9L52 8L51 8L51 9L52 9L52 10L49 10L49 9L50 9L50 8L49 8L49 9L47 9L47 5L48 5L48 0L46 0L46 1L45 1L45 2L44 2L44 3L41 3L41 2L43 2L43 0L41 0L41 1L40 1L40 0L39 0L39 1L38 1L38 0L37 0L37 1L38 1L38 2L39 2L39 3L41 3L41 4L40 4L40 5L39 5L39 6L38 6L38 3L36 3L36 0L35 0L35 1L33 1L33 2L32 2L32 0L30 0L30 1L29 1L29 4L26 4L26 3L23 3L23 4L19 4L19 2L21 2L21 3L22 3L22 2L28 2L28 1L26 1L26 0L23 0L23 1L22 1L22 0L21 0L21 1L20 1L20 0L18 0L18 1L15 1L15 0ZM8 1L8 2L9 2L9 1ZM30 1L30 2L31 2L31 3L30 3L30 4L31 4L31 8L32 8L32 10L31 10L31 11L30 11L30 10L27 10L27 11L26 11L26 12L25 12L25 10L23 10L23 8L24 8L24 6L23 6L23 5L24 5L24 4L23 4L23 5L21 5L21 8L19 8L19 9L15 9L15 8L14 8L14 5L15 5L15 7L16 7L16 8L17 8L17 7L18 7L18 6L19 6L19 7L20 7L20 5L19 5L19 4L18 4L18 2L17 2L17 3L15 3L15 2L14 2L14 4L12 4L12 5L11 5L11 8L10 8L10 10L11 10L11 11L12 11L12 13L11 13L11 16L13 16L13 14L15 14L15 13L16 13L16 16L18 16L18 15L19 15L19 17L15 17L15 15L14 15L14 17L12 17L12 18L11 18L11 20L13 20L13 21L11 21L11 22L9 22L9 20L10 20L10 19L6 19L6 20L5 20L5 22L2 22L2 23L1 23L1 24L2 24L2 25L3 25L3 24L4 24L4 26L1 26L1 27L3 27L3 29L4 29L4 26L8 26L8 25L9 25L9 30L12 30L12 29L13 29L13 28L14 28L14 29L16 29L16 30L18 30L18 29L19 29L19 30L20 30L20 31L24 31L24 30L23 30L23 29L26 29L26 28L24 28L24 27L23 27L23 26L22 26L22 27L21 27L21 25L23 25L23 24L21 24L21 23L24 23L24 24L25 24L25 25L26 25L26 26L25 26L25 27L26 27L26 26L28 26L28 25L29 25L29 26L30 26L30 25L29 25L29 22L28 22L28 21L29 21L29 19L28 19L28 18L26 18L26 16L27 16L27 17L28 17L28 16L29 16L29 14L30 14L30 15L31 15L31 14L30 14L30 13L31 13L31 11L32 11L32 14L35 14L35 12L36 12L36 10L37 10L37 11L38 11L38 10L39 10L39 9L40 9L40 10L41 10L41 12L40 12L40 11L39 11L39 12L40 12L40 13L38 13L38 14L37 14L37 13L36 13L36 14L37 14L37 15L35 15L35 16L33 16L33 15L32 15L32 18L30 18L30 19L33 19L33 20L32 20L32 21L31 21L31 22L30 22L30 23L31 23L31 24L32 24L32 26L31 26L31 28L32 28L32 30L35 30L35 31L32 31L32 33L31 33L31 31L30 31L30 32L29 32L29 31L27 31L27 35L26 35L26 36L27 36L27 37L25 37L25 40L24 40L24 39L21 39L21 40L19 40L19 41L18 41L18 40L17 40L17 37L18 37L18 38L19 38L19 39L20 39L20 38L19 38L19 37L21 37L21 38L24 38L24 37L23 37L23 36L24 36L24 34L23 34L23 33L25 33L25 34L26 34L26 31L25 31L25 32L21 32L21 33L20 33L20 34L19 34L19 37L18 37L18 33L16 33L16 32L15 32L15 31L10 31L10 32L9 32L9 34L8 34L8 35L6 35L6 36L8 36L8 37L6 37L6 38L7 38L7 39L4 39L4 40L2 40L2 41L6 41L6 42L7 42L7 43L8 43L8 44L11 44L11 46L9 46L9 47L12 47L12 44L15 44L15 46L17 46L17 45L18 45L18 44L17 44L17 45L16 45L16 44L15 44L15 42L17 42L17 43L18 43L18 42L19 42L19 45L20 45L20 50L19 50L19 51L18 51L18 49L15 49L15 48L14 48L14 51L13 51L13 50L12 50L12 49L10 49L10 50L11 50L11 51L13 51L13 52L12 52L12 53L13 53L13 52L14 52L14 53L15 53L15 54L16 54L16 53L17 53L17 52L19 52L19 51L20 51L20 50L21 50L21 49L23 49L23 47L21 47L21 45L22 45L22 46L24 46L24 45L25 45L25 47L26 47L26 48L30 48L30 47L29 47L29 45L30 45L30 46L32 46L32 47L33 47L33 48L34 48L34 47L33 47L33 46L35 46L35 48L36 48L36 47L37 47L37 45L34 45L34 43L37 43L37 42L35 42L35 40L38 40L38 42L39 42L39 41L41 41L41 40L43 40L43 41L45 41L45 43L44 43L44 42L43 42L43 44L44 44L44 45L43 45L43 46L41 46L41 48L39 48L39 47L40 47L40 46L39 46L39 45L38 45L38 46L39 46L39 47L38 47L38 48L37 48L37 49L38 49L38 50L36 50L36 52L37 52L37 53L38 53L38 54L37 54L37 56L40 56L40 55L38 55L38 54L40 54L40 53L42 53L42 52L43 52L43 51L42 51L42 50L41 50L41 48L42 48L42 49L43 49L43 48L44 48L44 51L45 51L45 50L46 50L46 51L47 51L47 53L45 53L45 52L44 52L44 53L43 53L43 54L44 54L44 55L45 55L45 54L46 54L46 55L47 55L47 54L48 54L48 50L47 50L47 49L48 49L48 48L49 48L49 47L51 47L51 46L52 46L52 47L53 47L53 43L54 43L54 42L53 42L53 41L54 41L54 40L53 40L53 39L55 39L55 37L53 37L53 35L52 35L52 34L50 34L50 32L51 32L51 33L52 33L52 31L48 31L48 28L47 28L47 29L46 29L46 30L47 30L47 31L48 31L48 32L47 32L47 33L46 33L46 31L45 31L45 28L46 28L46 27L48 27L48 26L47 26L47 25L48 25L48 24L49 24L49 25L50 25L50 26L52 26L52 25L55 25L55 24L51 24L51 23L50 23L50 22L51 22L51 21L49 21L49 19L50 19L50 18L51 18L51 19L52 19L52 18L51 18L51 17L53 17L53 18L55 18L55 17L53 17L53 15L50 15L50 14L51 14L51 12L50 12L50 11L49 11L49 12L45 12L45 11L44 11L44 13L43 13L43 11L42 11L42 10L41 10L41 9L42 9L42 8L41 8L41 7L42 7L42 6L43 6L43 7L44 7L44 9L43 9L43 10L44 10L44 9L45 9L45 10L47 10L47 11L48 11L48 10L47 10L47 9L45 9L45 7L46 7L46 6L45 6L45 4L46 4L46 5L47 5L47 3L44 3L44 6L43 6L43 5L42 5L42 4L41 4L41 5L40 5L40 6L39 6L39 7L40 7L40 8L39 8L39 9L38 9L38 8L37 8L37 7L38 7L38 6L37 6L37 7L36 7L36 5L37 5L37 4L36 4L36 5L35 5L35 3L34 3L34 2L33 2L33 3L32 3L32 2L31 2L31 1ZM46 1L46 2L47 2L47 1ZM31 3L31 4L32 4L32 5L34 5L34 7L33 7L33 6L32 6L32 7L33 7L33 9L34 9L34 8L35 8L35 9L37 9L37 10L38 10L38 9L37 9L37 8L35 8L35 5L34 5L34 4L32 4L32 3ZM15 4L15 5L16 5L16 4ZM17 4L17 6L16 6L16 7L17 7L17 6L18 6L18 4ZM25 4L25 8L26 8L26 4ZM12 5L12 9L14 9L14 8L13 8L13 5ZM27 5L27 8L30 8L30 5ZM41 5L41 6L40 6L40 7L41 7L41 6L42 6L42 5ZM22 6L22 8L23 8L23 6ZM28 6L28 7L29 7L29 6ZM44 6L44 7L45 7L45 6ZM48 6L48 7L49 7L49 6ZM4 9L4 10L5 10L5 9ZM6 9L6 10L7 10L7 11L6 11L6 12L7 12L7 13L6 13L6 14L7 14L7 13L9 13L9 14L8 14L8 16L9 16L9 15L10 15L10 13L9 13L9 12L10 12L10 11L9 11L9 9ZM19 9L19 10L18 10L18 11L17 11L17 10L12 10L12 11L14 11L14 12L13 12L13 13L15 13L15 12L16 12L16 13L17 13L17 14L19 14L19 15L20 15L20 13L21 13L21 15L23 15L23 16L26 16L26 14L25 14L25 12L24 12L24 13L23 13L23 10L22 10L22 9L21 9L21 10L20 10L20 9ZM19 10L19 13L20 13L20 10ZM21 10L21 11L22 11L22 10ZM32 10L32 11L33 11L33 10ZM27 11L27 12L26 12L26 13L28 13L28 14L29 14L29 13L28 13L28 12L29 12L29 11ZM17 12L17 13L18 13L18 12ZM21 12L21 13L22 13L22 14L23 14L23 13L22 13L22 12ZM33 12L33 13L34 13L34 12ZM49 12L49 13L47 13L47 14L44 14L44 15L42 15L42 16L41 16L41 15L39 15L39 14L38 14L38 15L39 15L39 16L38 16L38 17L37 17L37 16L35 16L35 17L37 17L37 18L38 18L38 17L39 17L39 19L38 19L38 20L36 20L36 19L35 19L35 18L33 18L33 19L35 19L35 23L34 23L34 22L33 22L33 23L32 23L32 24L33 24L33 25L37 25L37 26L38 26L38 24L39 24L39 23L38 23L38 20L41 20L41 18L42 18L42 20L43 20L43 21L39 21L39 22L40 22L40 24L41 24L41 22L42 22L42 24L43 24L43 25L41 25L41 26L43 26L43 29L39 29L39 30L38 30L38 32L39 32L39 31L40 31L40 30L43 30L43 32L41 32L41 33L39 33L39 34L40 34L40 35L39 35L39 36L38 36L38 33L37 33L37 32L35 32L35 34L33 34L33 33L32 33L32 34L31 34L31 33L29 33L29 32L28 32L28 33L29 33L29 34L30 34L30 36L29 36L29 37L31 37L31 38L29 38L29 39L33 39L33 40L35 40L35 39L38 39L38 40L39 40L39 39L38 39L38 37L40 37L40 38L43 38L43 37L44 37L44 38L45 38L45 37L46 37L46 35L44 35L44 33L43 33L43 32L45 32L45 31L44 31L44 28L45 28L45 27L44 27L44 26L43 26L43 25L44 25L44 24L43 24L43 23L44 23L44 20L46 20L46 18L44 18L44 15L47 15L47 18L50 18L50 17L49 17L49 16L50 16L50 15L49 15L49 14L50 14L50 12ZM52 12L52 13L53 13L53 14L54 14L54 15L55 15L55 14L54 14L54 13L53 13L53 12ZM41 13L41 14L43 14L43 13ZM1 14L1 15L2 15L2 14ZM6 15L6 16L5 16L5 17L6 17L6 18L7 18L7 17L6 17L6 16L7 16L7 15ZM27 15L27 16L28 16L28 15ZM48 15L48 16L49 16L49 15ZM20 16L20 17L19 17L19 18L18 18L18 19L20 19L20 17L22 17L22 18L21 18L21 19L22 19L22 20L21 20L21 21L22 21L22 22L24 22L24 21L25 21L25 22L26 22L26 23L25 23L25 24L27 24L27 21L25 21L25 20L26 20L26 19L25 19L25 17L22 17L22 16ZM39 16L39 17L41 17L41 16ZM42 16L42 17L43 17L43 16ZM45 16L45 17L46 17L46 16ZM8 17L8 18L9 18L9 17ZM12 18L12 19L13 19L13 20L14 20L14 19L13 19L13 18ZM23 18L23 19L24 19L24 18ZM43 18L43 20L44 20L44 18ZM6 20L6 21L7 21L7 22L6 22L6 23L4 23L4 24L5 24L5 25L8 25L8 24L9 24L9 25L10 25L10 27L11 27L11 28L10 28L10 29L11 29L11 28L13 28L13 26L12 26L12 24L9 24L9 23L8 23L8 24L6 24L6 23L7 23L7 22L8 22L8 20ZM15 20L15 21L16 21L16 22L15 22L15 23L14 23L14 24L13 24L13 25L15 25L15 23L16 23L16 24L17 24L17 25L18 25L18 26L17 26L17 27L18 27L18 26L19 26L19 29L22 29L22 28L20 28L20 25L21 25L21 24L17 24L17 22L18 22L18 21L20 21L20 20L18 20L18 21L16 21L16 20ZM22 20L22 21L24 21L24 20ZM47 20L47 22L46 22L46 21L45 21L45 22L46 22L46 23L45 23L45 24L48 24L48 23L49 23L49 21L48 21L48 20ZM13 21L13 22L14 22L14 21ZM11 22L11 23L12 23L12 22ZM19 22L19 23L20 23L20 22ZM37 23L37 24L38 24L38 23ZM50 24L50 25L51 25L51 24ZM11 26L11 27L12 27L12 26ZM14 26L14 27L16 27L16 26ZM32 26L32 27L33 27L33 28L35 28L35 29L38 29L38 28L40 28L40 26L39 26L39 27L36 27L36 26L34 26L34 27L33 27L33 26ZM53 26L53 27L54 27L54 26ZM5 27L5 30L8 30L8 27ZM27 27L27 30L30 30L30 27ZM35 27L35 28L36 28L36 27ZM41 27L41 28L42 28L42 27ZM49 27L49 30L52 30L52 27ZM6 28L6 29L7 29L7 28ZM16 28L16 29L18 29L18 28ZM28 28L28 29L29 29L29 28ZM50 28L50 29L51 29L51 28ZM54 28L54 29L53 29L53 30L55 30L55 28ZM17 31L17 32L18 32L18 31ZM10 32L10 34L11 34L11 36L12 36L12 37L10 37L10 36L9 36L9 35L8 35L8 36L9 36L9 37L8 37L8 38L9 38L9 39L7 39L7 40L6 40L6 41L7 41L7 40L10 40L10 41L8 41L8 43L11 43L11 44L12 44L12 41L13 41L13 40L14 40L14 39L15 39L15 41L16 41L16 39L15 39L15 38L16 38L16 37L14 37L14 38L12 38L12 37L13 37L13 36L12 36L12 35L13 35L13 34L16 34L16 35L14 35L14 36L17 36L17 34L16 34L16 33L15 33L15 32L14 32L14 33L12 33L12 34L11 34L11 32ZM48 32L48 33L49 33L49 32ZM55 32L55 33L56 33L56 32ZM21 33L21 34L20 34L20 35L22 35L22 33ZM32 34L32 35L33 35L33 36L32 36L32 37L33 37L33 36L34 36L34 35L33 35L33 34ZM35 34L35 36L37 36L37 34ZM42 34L42 35L41 35L41 36L40 36L40 37L43 37L43 36L44 36L44 37L45 37L45 36L44 36L44 35L43 35L43 34ZM48 34L48 35L47 35L47 36L48 36L48 37L47 37L47 39L43 39L43 40L47 40L47 39L49 39L49 41L48 41L48 42L46 42L46 44L45 44L45 45L47 45L47 46L45 46L45 47L47 47L47 48L48 48L48 47L49 47L49 45L50 45L50 46L51 46L51 45L52 45L52 44L51 44L51 43L53 43L53 42L51 42L51 41L53 41L53 40L51 40L51 39L49 39L49 38L51 38L51 37L52 37L52 35L50 35L50 34ZM48 35L48 36L50 36L50 37L51 37L51 36L50 36L50 35ZM9 37L9 38L10 38L10 40L11 40L11 41L10 41L10 42L11 42L11 41L12 41L12 40L13 40L13 39L11 39L11 38L10 38L10 37ZM27 37L27 38L26 38L26 39L27 39L27 40L28 40L28 39L27 39L27 38L28 38L28 37ZM34 37L34 38L33 38L33 39L34 39L34 38L35 38L35 37ZM48 37L48 38L49 38L49 37ZM23 40L23 41L24 41L24 42L22 42L22 43L21 43L21 42L20 42L20 41L19 41L19 42L20 42L20 44L22 44L22 45L24 45L24 44L23 44L23 43L24 43L24 42L25 42L25 41L24 41L24 40ZM29 40L29 41L30 41L30 42L28 42L28 44L27 44L27 43L25 43L25 44L27 44L27 45L26 45L26 47L28 47L28 46L27 46L27 45L28 45L28 44L29 44L29 43L32 43L32 44L30 44L30 45L32 45L32 46L33 46L33 45L32 45L32 44L33 44L33 43L34 43L34 42L33 42L33 41L32 41L32 40ZM17 41L17 42L18 42L18 41ZM26 41L26 42L27 42L27 41ZM31 41L31 42L32 42L32 43L33 43L33 42L32 42L32 41ZM13 42L13 43L14 43L14 42ZM40 42L40 43L39 43L39 44L40 44L40 45L41 45L41 44L42 44L42 42ZM48 42L48 43L47 43L47 45L49 45L49 44L50 44L50 45L51 45L51 44L50 44L50 43L51 43L51 42L50 42L50 43L49 43L49 42ZM40 43L40 44L41 44L41 43ZM54 44L54 45L55 45L55 46L54 46L54 47L55 47L55 46L56 46L56 45L55 45L55 44ZM13 45L13 47L14 47L14 45ZM1 46L1 47L2 47L2 46ZM43 46L43 47L42 47L42 48L43 48L43 47L44 47L44 46ZM47 46L47 47L48 47L48 46ZM18 47L18 48L19 48L19 47ZM24 48L24 49L25 49L25 50L26 50L26 49L25 49L25 48ZM38 48L38 49L39 49L39 48ZM45 48L45 49L46 49L46 48ZM54 48L54 49L56 49L56 48ZM27 49L27 52L30 52L30 49ZM49 49L49 52L52 52L52 49ZM15 50L15 51L16 51L16 52L15 52L15 53L16 53L16 52L17 52L17 50ZM28 50L28 51L29 51L29 50ZM38 50L38 51L40 51L40 52L42 52L42 51L41 51L41 50ZM50 50L50 51L51 51L51 50ZM54 50L54 51L55 51L55 50ZM38 52L38 53L39 53L39 52ZM53 52L53 53L54 53L54 52ZM33 53L33 55L35 55L35 56L36 56L36 54L35 54L35 53ZM44 53L44 54L45 54L45 53ZM17 54L17 55L18 55L18 54ZM41 54L41 55L42 55L42 54ZM50 55L50 56L51 56L51 55ZM10 56L10 57L11 57L11 56ZM25 56L25 57L26 57L26 56ZM0 0L0 7L7 7L7 0ZM1 1L1 6L6 6L6 1ZM2 2L2 5L5 5L5 2ZM50 0L50 7L57 7L57 0ZM51 1L51 6L56 6L56 1ZM52 2L52 5L55 5L55 2ZM0 50L0 57L7 57L7 50ZM1 51L1 56L6 56L6 51ZM2 52L2 55L5 55L5 52Z" fill="#000000"/></g></g></svg>
