<?xml version="1.0" encoding="UTF-8"?>
<svg xmlns="http://www.w3.org/2000/svg" version="1.1" width="300" height="300" viewBox="0 0 300 300"><rect x="0" y="0" width="300" height="300" fill="#fefefe"/><g transform="scale(4.615)"><g transform="translate(4,4)"><path fill-rule="evenodd" d="M8 0L8 1L9 1L9 0ZM10 0L10 1L11 1L11 0ZM12 0L12 3L11 3L11 5L10 5L10 4L9 4L9 3L10 3L10 2L8 2L8 5L10 5L10 7L11 7L11 6L12 6L12 7L13 7L13 6L14 6L14 8L15 8L15 11L14 11L14 10L13 10L13 9L12 9L12 8L8 8L8 9L7 9L7 8L6 8L6 9L4 9L4 8L0 8L0 10L1 10L1 11L3 11L3 13L2 13L2 12L1 12L1 14L0 14L0 17L1 17L1 18L4 18L4 17L7 17L7 16L6 16L6 15L9 15L9 16L8 16L8 18L9 18L9 19L8 19L8 20L9 20L9 19L10 19L10 21L7 21L7 20L5 20L5 19L3 19L3 20L2 20L2 19L0 19L0 20L2 20L2 21L0 21L0 22L1 22L1 23L0 23L0 25L1 25L1 26L0 26L0 32L3 32L3 33L2 33L2 34L1 34L1 36L0 36L0 38L1 38L1 37L2 37L2 35L3 35L3 39L1 39L1 41L2 41L2 40L4 40L4 41L5 41L5 42L3 42L3 43L2 43L2 44L1 44L1 42L0 42L0 44L1 44L1 45L0 45L0 48L5 48L5 47L7 47L7 48L6 48L6 49L8 49L8 50L9 50L9 49L10 49L10 50L11 50L11 49L13 49L13 52L12 52L12 51L11 51L11 52L9 52L9 53L8 53L8 57L10 57L10 56L12 56L12 57L15 57L15 56L16 56L16 57L18 57L18 56L17 56L17 55L20 55L20 56L19 56L19 57L24 57L24 56L25 56L25 55L24 55L24 56L23 56L23 54L25 54L25 53L29 53L29 54L31 54L31 55L30 55L30 56L31 56L31 57L32 57L32 55L34 55L34 56L33 56L33 57L36 57L36 55L38 55L38 57L42 57L42 56L43 56L43 55L44 55L44 54L45 54L45 55L46 55L46 56L48 56L48 57L51 57L51 54L52 54L52 53L53 53L53 56L52 56L52 57L55 57L55 56L54 56L54 55L55 55L55 54L56 54L56 53L57 53L57 52L56 52L56 49L57 49L57 48L56 48L56 49L55 49L55 48L54 48L54 47L57 47L57 45L56 45L56 46L55 46L55 44L56 44L56 41L57 41L57 40L56 40L56 41L55 41L55 42L54 42L54 40L55 40L55 38L56 38L56 39L57 39L57 38L56 38L56 37L55 37L55 36L56 36L56 35L57 35L57 31L56 31L56 30L57 30L57 29L56 29L56 30L55 30L55 27L53 27L53 26L51 26L51 25L49 25L49 26L48 26L48 24L51 24L51 23L49 23L49 21L47 21L47 20L45 20L45 21L47 21L47 22L44 22L44 21L43 21L43 20L42 20L42 19L43 19L43 18L42 18L42 17L45 17L45 18L44 18L44 19L45 19L45 18L46 18L46 19L48 19L48 20L50 20L50 21L51 21L51 22L52 22L52 23L53 23L53 25L54 25L54 23L53 23L53 20L50 20L50 19L51 19L51 18L52 18L52 19L55 19L55 20L54 20L54 21L55 21L55 20L56 20L56 18L57 18L57 15L54 15L54 14L55 14L55 13L54 13L54 10L53 10L53 13L52 13L52 12L51 12L51 10L50 10L50 8L49 8L49 9L47 9L47 10L46 10L46 11L47 11L47 10L50 10L50 11L49 11L49 16L50 16L50 17L51 17L51 18L50 18L50 19L49 19L49 18L48 18L48 14L47 14L47 15L45 15L45 14L46 14L46 13L44 13L44 10L45 10L45 9L44 9L44 10L43 10L43 9L41 9L41 8L38 8L38 7L39 7L39 6L38 6L38 7L37 7L37 6L36 6L36 7L35 7L35 6L34 6L34 5L33 5L33 6L32 6L32 5L31 5L31 4L32 4L32 3L34 3L34 2L35 2L35 4L36 4L36 5L40 5L40 7L41 7L41 6L42 6L42 7L43 7L43 5L45 5L45 4L44 4L44 3L45 3L45 1L47 1L47 2L46 2L46 3L47 3L47 5L46 5L46 7L45 7L45 6L44 6L44 8L46 8L46 7L47 7L47 5L48 5L48 0L45 0L45 1L44 1L44 2L41 2L41 1L43 1L43 0L41 0L41 1L40 1L40 0L39 0L39 1L40 1L40 2L41 2L41 3L43 3L43 5L42 5L42 4L38 4L38 3L39 3L39 2L37 2L37 1L38 1L38 0L37 0L37 1L36 1L36 0L35 0L35 1L34 1L34 2L33 2L33 0L32 0L32 1L31 1L31 0L29 0L29 1L28 1L28 2L27 2L27 4L26 4L26 0L23 0L23 1L22 1L22 0L21 0L21 1L20 1L20 0L19 0L19 1L18 1L18 2L17 2L17 1L15 1L15 3L16 3L16 2L17 2L17 4L19 4L19 5L15 5L15 4L14 4L14 3L13 3L13 1L14 1L14 0ZM19 1L19 2L18 2L18 3L19 3L19 4L20 4L20 5L21 5L21 7L20 7L20 6L19 6L19 7L20 7L20 11L21 11L21 12L19 12L19 8L18 8L18 9L17 9L17 7L18 7L18 6L17 6L17 7L16 7L16 6L15 6L15 5L14 5L14 4L13 4L13 3L12 3L12 4L13 4L13 5L14 5L14 6L15 6L15 8L16 8L16 12L15 12L15 15L14 15L14 13L13 13L13 12L12 12L12 11L13 11L13 10L12 10L12 11L9 11L9 10L7 10L7 9L6 9L6 10L3 10L3 11L4 11L4 13L6 13L6 14L7 14L7 13L8 13L8 14L9 14L9 13L8 13L8 11L9 11L9 12L10 12L10 15L12 15L12 16L11 16L11 17L12 17L12 16L13 16L13 15L14 15L14 16L15 16L15 17L14 17L14 18L10 18L10 19L15 19L15 20L14 20L14 22L15 22L15 23L16 23L16 26L15 26L15 27L14 27L14 25L13 25L13 24L14 24L14 23L13 23L13 20L12 20L12 21L11 21L11 22L9 22L9 23L8 23L8 22L7 22L7 21L6 21L6 22L5 22L5 23L6 23L6 24L5 24L5 25L4 25L4 24L1 24L1 25L4 25L4 26L3 26L3 27L2 27L2 28L1 28L1 29L2 29L2 28L3 28L3 27L4 27L4 26L5 26L5 25L6 25L6 26L9 26L9 25L8 25L8 24L10 24L10 23L11 23L11 26L10 26L10 27L9 27L9 29L10 29L10 30L9 30L9 31L10 31L10 30L11 30L11 32L8 32L8 31L5 31L5 32L4 32L4 31L3 31L3 32L4 32L4 33L3 33L3 34L4 34L4 35L5 35L5 37L6 37L6 38L7 38L7 39L5 39L5 38L4 38L4 39L5 39L5 41L6 41L6 42L7 42L7 41L8 41L8 43L9 43L9 44L10 44L10 41L12 41L12 42L13 42L13 43L11 43L11 44L12 44L12 45L10 45L10 49L11 49L11 47L12 47L12 48L13 48L13 49L14 49L14 53L16 53L16 54L18 54L18 53L19 53L19 52L20 52L20 50L19 50L19 51L18 51L18 50L17 50L17 49L16 49L16 50L17 50L17 51L16 51L16 52L15 52L15 47L17 47L17 45L19 45L19 44L22 44L22 46L21 46L21 45L20 45L20 46L21 46L21 47L22 47L22 46L24 46L24 45L23 45L23 44L22 44L22 41L23 41L23 42L25 42L25 43L24 43L24 44L25 44L25 43L26 43L26 45L25 45L25 47L24 47L24 49L23 49L23 48L21 48L21 50L22 50L22 49L23 49L23 51L21 51L21 52L22 52L22 53L20 53L20 55L21 55L21 56L22 56L22 54L23 54L23 52L24 52L24 53L25 53L25 52L26 52L26 51L24 51L24 50L25 50L25 49L26 49L26 48L28 48L28 47L30 47L30 48L32 48L32 49L31 49L31 53L32 53L32 51L33 51L33 53L36 53L36 54L34 54L34 55L36 55L36 54L37 54L37 52L38 52L38 51L36 51L36 52L35 52L35 49L34 49L34 48L33 48L33 47L34 47L34 46L36 46L36 47L35 47L35 48L37 48L37 49L36 49L36 50L37 50L37 49L38 49L38 48L39 48L39 49L40 49L40 50L39 50L39 52L40 52L40 54L41 54L41 53L42 53L42 54L43 54L43 53L42 53L42 51L43 51L43 50L44 50L44 51L45 51L45 50L46 50L46 51L47 51L47 52L48 52L48 48L46 48L46 49L45 49L45 47L46 47L46 46L47 46L47 47L49 47L49 46L50 46L50 45L51 45L51 47L52 47L52 48L53 48L53 50L55 50L55 49L54 49L54 48L53 48L53 47L54 47L54 45L52 45L52 44L55 44L55 43L54 43L54 42L53 42L53 43L52 43L52 44L51 44L51 42L50 42L50 41L52 41L52 40L53 40L53 39L54 39L54 38L53 38L53 36L52 36L52 35L51 35L51 36L50 36L50 37L48 37L48 36L47 36L47 37L46 37L46 36L44 36L44 37L42 37L42 38L44 38L44 39L45 39L45 41L46 41L46 39L45 39L45 37L46 37L46 38L48 38L48 39L47 39L47 40L50 40L50 41L47 41L47 42L48 42L48 43L49 43L49 44L50 44L50 45L49 45L49 46L48 46L48 44L44 44L44 43L45 43L45 42L44 42L44 40L43 40L43 39L40 39L40 41L37 41L37 40L38 40L38 39L39 39L39 38L38 38L38 39L37 39L37 37L39 37L39 36L40 36L40 37L41 37L41 36L42 36L42 34L41 34L41 35L37 35L37 37L34 37L34 36L36 36L36 35L35 35L35 33L33 33L33 32L34 32L34 31L33 31L33 32L31 32L31 34L30 34L30 35L29 35L29 33L30 33L30 32L28 32L28 31L23 31L23 30L21 30L21 29L23 29L23 28L24 28L24 27L25 27L25 25L27 25L27 24L26 24L26 23L28 23L28 26L31 26L31 23L32 23L32 22L33 22L33 24L32 24L32 25L33 25L33 24L35 24L35 23L36 23L36 24L37 24L37 22L35 22L35 21L33 21L33 19L34 19L34 20L36 20L36 21L38 21L38 22L39 22L39 20L40 20L40 19L39 19L39 18L41 18L41 19L42 19L42 18L41 18L41 17L42 17L42 14L43 14L43 15L44 15L44 16L45 16L45 17L46 17L46 16L45 16L45 15L44 15L44 13L43 13L43 12L42 12L42 11L43 11L43 10L42 10L42 11L40 11L40 10L41 10L41 9L38 9L38 8L36 8L36 9L34 9L34 6L33 6L33 8L32 8L32 6L31 6L31 9L32 9L32 10L29 10L29 9L27 9L27 10L26 10L26 11L25 11L25 10L24 10L24 9L22 9L22 10L23 10L23 11L21 11L21 8L22 8L22 4L23 4L23 3L24 3L24 2L25 2L25 1L23 1L23 2L22 2L22 1L21 1L21 2L20 2L20 1ZM35 1L35 2L36 2L36 1ZM28 2L28 4L31 4L31 3L30 3L30 2ZM24 4L24 6L23 6L23 7L24 7L24 8L25 8L25 9L26 9L26 6L25 6L25 5L26 5L26 4ZM27 5L27 8L30 8L30 5ZM8 6L8 7L9 7L9 6ZM24 6L24 7L25 7L25 6ZM28 6L28 7L29 7L29 6ZM48 6L48 7L49 7L49 6ZM52 8L52 9L55 9L55 12L56 12L56 13L57 13L57 12L56 12L56 11L57 11L57 10L56 10L56 9L57 9L57 8L56 8L56 9L55 9L55 8ZM1 9L1 10L2 10L2 9ZM10 9L10 10L11 10L11 9ZM37 9L37 10L38 10L38 12L35 12L35 11L36 11L36 10L35 10L35 11L34 11L34 10L33 10L33 11L32 11L32 12L31 12L31 11L30 11L30 12L31 12L31 13L32 13L32 12L33 12L33 14L32 14L32 15L31 15L31 14L30 14L30 13L28 13L28 12L26 12L26 13L25 13L25 15L24 15L24 14L23 14L23 15L24 15L24 16L23 16L23 18L24 18L24 19L25 19L25 22L24 22L24 21L23 21L23 19L21 19L21 18L22 18L22 17L21 17L21 13L19 13L19 12L18 12L18 10L17 10L17 12L16 12L16 13L17 13L17 12L18 12L18 13L19 13L19 14L18 14L18 15L19 15L19 17L21 17L21 18L17 18L17 17L15 17L15 19L17 19L17 20L16 20L16 23L18 23L18 24L17 24L17 26L16 26L16 27L19 27L19 28L18 28L18 29L19 29L19 28L20 28L20 27L21 27L21 24L20 24L20 23L23 23L23 24L24 24L24 25L25 25L25 22L30 22L30 23L31 23L31 21L29 21L29 20L27 20L27 19L26 19L26 18L27 18L27 17L29 17L29 18L28 18L28 19L30 19L30 20L32 20L32 18L35 18L35 17L34 17L34 16L35 16L35 15L36 15L36 13L37 13L37 15L39 15L39 17L40 17L40 16L41 16L41 15L39 15L39 10L38 10L38 9ZM6 10L6 11L7 11L7 10ZM28 10L28 11L29 11L29 10ZM23 11L23 12L22 12L22 13L23 13L23 12L25 12L25 11ZM6 12L6 13L7 13L7 12ZM11 12L11 14L12 14L12 12ZM34 12L34 14L33 14L33 15L32 15L32 16L33 16L33 15L35 15L35 12ZM50 12L50 13L51 13L51 15L50 15L50 16L52 16L52 17L53 17L53 18L54 18L54 17L55 17L55 18L56 18L56 17L55 17L55 16L53 16L53 14L52 14L52 13L51 13L51 12ZM40 13L40 14L41 14L41 13ZM1 14L1 15L2 15L2 17L3 17L3 15L4 15L4 14L3 14L3 15L2 15L2 14ZM16 14L16 15L15 15L15 16L16 16L16 15L17 15L17 14ZM26 14L26 16L25 16L25 17L24 17L24 18L25 18L25 17L27 17L27 14ZM28 15L28 16L29 16L29 17L30 17L30 19L31 19L31 18L32 18L32 17L31 17L31 16L29 16L29 15ZM36 17L36 18L37 18L37 17ZM6 18L6 19L7 19L7 18ZM18 19L18 21L19 21L19 22L22 22L22 20L19 20L19 19ZM36 19L36 20L37 20L37 19ZM4 20L4 21L5 21L5 20ZM26 20L26 21L27 21L27 20ZM41 20L41 21L42 21L42 20ZM2 21L2 22L3 22L3 21ZM56 21L56 22L55 22L55 23L57 23L57 21ZM6 22L6 23L7 23L7 24L6 24L6 25L7 25L7 24L8 24L8 23L7 23L7 22ZM11 22L11 23L12 23L12 24L13 24L13 23L12 23L12 22ZM41 22L41 23L40 23L40 24L39 24L39 23L38 23L38 24L39 24L39 25L40 25L40 26L41 26L41 27L39 27L39 26L38 26L38 27L39 27L39 28L40 28L40 29L38 29L38 30L36 30L36 31L37 31L37 32L36 32L36 33L37 33L37 32L38 32L38 34L39 34L39 31L38 31L38 30L41 30L41 31L40 31L40 32L41 32L41 31L43 31L43 29L42 29L42 30L41 30L41 27L42 27L42 28L44 28L44 27L45 27L45 30L44 30L44 34L46 34L46 35L47 35L47 34L48 34L48 35L49 35L49 34L50 34L50 33L49 33L49 32L50 32L50 31L49 31L49 32L48 32L48 26L47 26L47 25L46 25L46 24L47 24L47 23L48 23L48 22L47 22L47 23L44 23L44 25L46 25L46 26L44 26L44 27L42 27L42 26L43 26L43 24L41 24L41 23L43 23L43 22ZM19 24L19 25L18 25L18 26L19 26L19 25L20 25L20 24ZM55 24L55 25L56 25L56 24ZM22 25L22 27L24 27L24 26L23 26L23 25ZM34 25L34 27L35 27L35 28L34 28L34 29L37 29L37 28L36 28L36 27L35 27L35 25ZM11 26L11 27L10 27L10 28L11 28L11 29L12 29L12 30L14 30L14 32L13 32L13 31L12 31L12 34L13 34L13 35L12 35L12 37L14 37L14 40L13 40L13 39L12 39L12 40L13 40L13 42L14 42L14 43L13 43L13 45L12 45L12 47L13 47L13 45L14 45L14 46L15 46L15 45L16 45L16 44L17 44L17 43L15 43L15 42L18 42L18 43L19 43L19 41L18 41L18 40L20 40L20 41L22 41L22 39L21 39L21 38L20 38L20 37L19 37L19 36L18 36L18 35L19 35L19 34L20 34L20 36L23 36L23 37L22 37L22 38L23 38L23 39L24 39L24 41L25 41L25 42L27 42L27 41L28 41L28 42L29 42L29 43L28 43L28 44L29 44L29 43L32 43L32 42L33 42L33 45L32 45L32 46L33 46L33 45L34 45L34 44L35 44L35 45L36 45L36 46L37 46L37 47L38 47L38 45L41 45L41 46L40 46L40 47L43 47L43 49L44 49L44 50L45 50L45 49L44 49L44 47L43 47L43 45L42 45L42 43L43 43L43 42L42 42L42 41L43 41L43 40L42 40L42 41L41 41L41 42L37 42L37 44L38 44L38 45L36 45L36 43L34 43L34 42L36 42L36 41L34 41L34 40L35 40L35 39L36 39L36 38L34 38L34 37L33 37L33 38L32 38L32 36L34 36L34 34L33 34L33 33L32 33L32 34L33 34L33 35L32 35L32 36L29 36L29 35L28 35L28 34L27 34L27 35L26 35L26 34L25 34L25 33L28 33L28 32L24 32L24 33L23 33L23 31L22 31L22 32L21 32L21 34L20 34L20 32L19 32L19 31L18 31L18 30L17 30L17 28L15 28L15 29L16 29L16 30L14 30L14 29L13 29L13 28L14 28L14 27L13 27L13 26ZM46 26L46 30L45 30L45 31L46 31L46 33L47 33L47 26ZM5 27L5 30L8 30L8 27ZM11 27L11 28L13 28L13 27ZM27 27L27 30L30 30L30 27ZM31 27L31 28L33 28L33 27ZM49 27L49 30L52 30L52 27ZM56 27L56 28L57 28L57 27ZM6 28L6 29L7 29L7 28ZM25 28L25 29L24 29L24 30L26 30L26 28ZM28 28L28 29L29 29L29 28ZM50 28L50 29L51 29L51 28ZM53 28L53 31L54 31L54 32L55 32L55 30L54 30L54 28ZM31 30L31 31L32 31L32 30ZM15 31L15 32L14 32L14 33L15 33L15 34L14 34L14 36L15 36L15 38L17 38L17 39L16 39L16 40L14 40L14 42L15 42L15 41L17 41L17 39L18 39L18 37L17 37L17 33L15 33L15 32L16 32L16 31ZM6 32L6 33L5 33L5 34L6 34L6 35L7 35L7 34L8 34L8 36L6 36L6 37L7 37L7 38L8 38L8 39L7 39L7 40L6 40L6 41L7 41L7 40L8 40L8 41L10 41L10 40L8 40L8 39L11 39L11 36L10 36L10 38L8 38L8 36L9 36L9 35L11 35L11 33L7 33L7 32ZM18 32L18 33L19 33L19 32ZM42 32L42 33L43 33L43 32ZM52 32L52 34L54 34L54 33L53 33L53 32ZM6 33L6 34L7 34L7 33ZM22 33L22 34L21 34L21 35L23 35L23 36L26 36L26 35L25 35L25 34L24 34L24 35L23 35L23 33ZM55 33L55 34L56 34L56 33ZM15 34L15 36L16 36L16 34ZM54 35L54 36L55 36L55 35ZM27 36L27 38L29 38L29 36ZM51 36L51 37L50 37L50 38L52 38L52 39L50 39L50 40L52 40L52 39L53 39L53 38L52 38L52 36ZM24 37L24 39L25 39L25 41L26 41L26 40L27 40L27 39L26 39L26 37ZM30 38L30 39L28 39L28 40L29 40L29 42L31 42L31 40L33 40L33 39L32 39L32 38ZM20 42L20 43L21 43L21 42ZM41 42L41 43L42 43L42 42ZM49 42L49 43L50 43L50 42ZM3 43L3 44L4 44L4 45L1 45L1 47L2 47L2 46L3 46L3 47L5 47L5 45L6 45L6 46L8 46L8 47L9 47L9 45L6 45L6 44L7 44L7 43ZM38 43L38 44L39 44L39 43ZM14 44L14 45L15 45L15 44ZM30 44L30 45L29 45L29 46L30 46L30 45L31 45L31 44ZM26 45L26 46L27 46L27 47L28 47L28 46L27 46L27 45ZM44 45L44 46L45 46L45 45ZM18 46L18 47L19 47L19 49L20 49L20 47L19 47L19 46ZM52 46L52 47L53 47L53 46ZM41 48L41 49L42 49L42 48ZM27 49L27 52L30 52L30 49ZM32 49L32 50L33 50L33 51L34 51L34 49ZM49 49L49 52L52 52L52 49ZM28 50L28 51L29 51L29 50ZM50 50L50 51L51 51L51 50ZM40 51L40 52L41 52L41 51ZM45 52L45 53L46 53L46 52ZM54 52L54 54L55 54L55 53L56 53L56 52ZM9 53L9 54L10 54L10 55L9 55L9 56L10 56L10 55L11 55L11 53ZM12 53L12 54L13 54L13 55L14 55L14 54L13 54L13 53ZM38 53L38 54L39 54L39 53ZM48 53L48 54L50 54L50 53ZM26 54L26 55L27 55L27 56L28 56L28 55L27 55L27 54ZM41 55L41 56L42 56L42 55ZM56 55L56 56L57 56L57 55ZM0 0L0 7L7 7L7 0ZM1 1L1 6L6 6L6 1ZM2 2L2 5L5 5L5 2ZM50 0L50 7L57 7L57 0ZM51 1L51 6L56 6L56 1ZM52 2L52 5L55 5L55 2ZM0 50L0 57L7 57L7 50ZM1 51L1 56L6 56L6 51ZM2 52L2 55L5 55L5 52Z" fill="#000000"/></g></g></svg>
