<?xml version="1.0" encoding="UTF-8"?>
<svg xmlns="http://www.w3.org/2000/svg" version="1.1" width="300" height="300" viewBox="0 0 300 300"><rect x="0" y="0" width="300" height="300" fill="#fefefe"/><g transform="scale(4.615)"><g transform="translate(4,4)"><path fill-rule="evenodd" d="M8 0L8 4L9 4L9 5L8 5L8 7L9 7L9 5L10 5L10 7L11 7L11 6L12 6L12 7L13 7L13 6L14 6L14 10L13 10L13 9L12 9L12 8L10 8L10 10L9 10L9 9L7 9L7 8L4 8L4 9L3 9L3 10L1 10L1 9L2 9L2 8L0 8L0 11L3 11L3 13L2 13L2 12L1 12L1 13L2 13L2 14L1 14L1 15L3 15L3 16L1 16L1 17L0 17L0 18L1 18L1 19L0 19L0 20L1 20L1 19L2 19L2 20L3 20L3 21L4 21L4 22L5 22L5 23L3 23L3 22L2 22L2 21L0 21L0 23L1 23L1 22L2 22L2 23L3 23L3 24L2 24L2 25L1 25L1 24L0 24L0 25L1 25L1 26L0 26L0 27L1 27L1 26L3 26L3 27L2 27L2 29L1 29L1 28L0 28L0 29L1 29L1 30L0 30L0 34L1 34L1 35L0 35L0 40L1 40L1 41L0 41L0 44L1 44L1 45L2 45L2 43L1 43L1 42L2 42L2 41L3 41L3 42L4 42L4 43L3 43L3 44L4 44L4 43L7 43L7 44L6 44L6 45L5 45L5 47L3 47L3 46L2 46L2 47L1 47L1 46L0 46L0 48L5 48L5 47L7 47L7 48L6 48L6 49L8 49L8 50L9 50L9 49L10 49L10 50L12 50L12 52L13 52L13 54L14 54L14 55L13 55L13 56L11 56L11 55L12 55L12 54L11 54L11 53L10 53L10 54L11 54L11 55L8 55L8 57L9 57L9 56L11 56L11 57L15 57L15 56L14 56L14 55L16 55L16 54L19 54L19 55L18 55L18 56L17 56L17 57L19 57L19 55L20 55L20 54L21 54L21 55L22 55L22 56L20 56L20 57L22 57L22 56L23 56L23 55L24 55L24 57L25 57L25 54L24 54L24 53L28 53L28 57L29 57L29 55L30 55L30 57L34 57L34 55L35 55L35 57L37 57L37 56L36 56L36 54L37 54L37 53L38 53L38 55L39 55L39 57L40 57L40 56L41 56L41 57L42 57L42 56L43 56L43 55L44 55L44 53L45 53L45 56L44 56L44 57L45 57L45 56L46 56L46 57L47 57L47 56L48 56L48 55L47 55L47 56L46 56L46 53L47 53L47 54L49 54L49 57L50 57L50 55L51 55L51 56L53 56L53 57L54 57L54 56L53 56L53 54L57 54L57 52L56 52L56 51L55 51L55 49L56 49L56 45L57 45L57 43L56 43L56 42L57 42L57 40L52 40L52 39L53 39L53 38L54 38L54 39L57 39L57 38L55 38L55 37L57 37L57 36L53 36L53 35L56 35L56 34L55 34L55 33L56 33L56 30L55 30L55 33L54 33L54 31L53 31L53 29L54 29L54 28L53 28L53 27L54 27L54 26L55 26L55 24L56 24L56 25L57 25L57 24L56 24L56 21L57 21L57 20L56 20L56 21L55 21L55 22L54 22L54 21L52 21L52 20L53 20L53 19L51 19L51 17L52 17L52 18L53 18L53 17L55 17L55 19L56 19L56 18L57 18L57 15L56 15L56 13L57 13L57 12L56 12L56 10L57 10L57 8L53 8L53 9L55 9L55 14L54 14L54 12L53 12L53 13L52 13L52 14L51 14L51 12L52 12L52 11L54 11L54 10L52 10L52 8L51 8L51 9L50 9L50 10L51 10L51 11L50 11L50 16L49 16L49 15L48 15L48 16L46 16L46 11L45 11L45 10L46 10L46 7L47 7L47 8L48 8L48 9L47 9L47 11L49 11L49 6L48 6L48 7L47 7L47 5L48 5L48 0L41 0L41 1L40 1L40 2L38 2L38 1L39 1L39 0L38 0L38 1L37 1L37 2L36 2L36 0L35 0L35 1L34 1L34 0L33 0L33 1L34 1L34 2L32 2L32 0L28 0L28 2L27 2L27 3L28 3L28 4L26 4L26 3L25 3L25 2L26 2L26 1L27 1L27 0L26 0L26 1L25 1L25 0L23 0L23 3L22 3L22 2L21 2L21 3L22 3L22 4L23 4L23 3L25 3L25 4L24 4L24 5L23 5L23 6L22 6L22 5L21 5L21 6L20 6L20 5L19 5L19 4L18 4L18 5L17 5L17 6L16 6L16 5L15 5L15 4L14 4L14 0L13 0L13 1L12 1L12 0L10 0L10 1L12 1L12 2L11 2L11 3L13 3L13 6L12 6L12 4L11 4L11 5L10 5L10 4L9 4L9 3L10 3L10 2L9 2L9 0ZM15 0L15 1L16 1L16 4L17 4L17 3L19 3L19 2L18 2L18 1L19 1L19 0L17 0L17 1L16 1L16 0ZM20 0L20 1L21 1L21 0ZM29 1L29 2L28 2L28 3L29 3L29 4L30 4L30 3L32 3L32 5L33 5L33 4L34 4L34 5L35 5L35 7L34 7L34 6L33 6L33 7L32 7L32 6L31 6L31 10L29 10L29 11L28 11L28 9L26 9L26 6L25 6L25 7L24 7L24 6L23 6L23 7L24 7L24 8L22 8L22 9L21 9L21 10L20 10L20 9L19 9L19 10L18 10L18 9L15 9L15 11L16 11L16 10L18 10L18 11L17 11L17 13L15 13L15 12L14 12L14 11L11 11L11 10L10 10L10 11L8 11L8 12L7 12L7 11L5 11L5 9L4 9L4 12L5 12L5 13L4 13L4 14L5 14L5 13L6 13L6 14L7 14L7 13L8 13L8 12L9 12L9 14L8 14L8 15L4 15L4 17L6 17L6 18L2 18L2 17L1 17L1 18L2 18L2 19L4 19L4 21L6 21L6 22L7 22L7 21L8 21L8 24L9 24L9 25L8 25L8 26L10 26L10 27L9 27L9 28L10 28L10 30L11 30L11 28L12 28L12 30L13 30L13 31L14 31L14 30L13 30L13 28L16 28L16 27L15 27L15 25L14 25L14 24L16 24L16 26L17 26L17 27L18 27L18 26L19 26L19 25L24 25L24 23L21 23L21 22L20 22L20 23L19 23L19 21L20 21L20 20L19 20L19 19L20 19L20 13L19 13L19 15L18 15L18 16L19 16L19 18L18 18L18 17L15 17L15 18L14 18L14 14L13 14L13 13L15 13L15 14L17 14L17 13L18 13L18 12L21 12L21 11L22 11L22 12L24 12L24 13L21 13L21 14L22 14L22 15L21 15L21 17L25 17L25 16L24 16L24 15L25 15L25 14L24 14L24 13L25 13L25 12L24 12L24 11L23 11L23 10L22 10L22 9L24 9L24 8L25 8L25 10L27 10L27 11L26 11L26 14L27 14L27 15L26 15L26 18L24 18L24 19L23 19L23 18L21 18L21 19L22 19L22 22L23 22L23 21L24 21L24 22L25 22L25 23L26 23L26 22L27 22L27 23L28 23L28 22L29 22L29 21L30 21L30 18L28 18L28 17L27 17L27 15L28 15L28 14L27 14L27 13L29 13L29 16L31 16L31 17L32 17L32 16L31 16L31 15L30 15L30 13L32 13L32 14L33 14L33 13L34 13L34 18L32 18L32 19L34 19L34 20L33 20L33 21L34 21L34 22L35 22L35 23L34 23L34 24L33 24L33 25L34 25L34 26L33 26L33 27L32 27L32 23L33 23L33 22L30 22L30 23L31 23L31 29L32 29L32 30L31 30L31 31L32 31L32 32L30 32L30 31L28 31L28 32L29 32L29 33L28 33L28 34L27 34L27 35L26 35L26 36L25 36L25 34L24 34L24 36L25 36L25 37L26 37L26 36L28 36L28 37L27 37L27 39L25 39L25 38L24 38L24 37L23 37L23 35L22 35L22 34L23 34L23 33L26 33L26 31L25 31L25 30L26 30L26 29L25 29L25 30L23 30L23 29L24 29L24 28L22 28L22 27L21 27L21 26L20 26L20 28L18 28L18 29L15 29L15 30L17 30L17 31L22 31L22 33L21 33L21 35L22 35L22 37L18 37L18 38L17 38L17 36L18 36L18 35L19 35L19 36L20 36L20 33L18 33L18 32L17 32L17 33L16 33L16 34L17 34L17 33L18 33L18 35L17 35L17 36L16 36L16 37L15 37L15 39L14 39L14 40L13 40L13 39L11 39L11 36L13 36L13 37L12 37L12 38L13 38L13 37L14 37L14 36L15 36L15 34L14 34L14 33L15 33L15 32L16 32L16 31L15 31L15 32L13 32L13 33L12 33L12 32L11 32L11 31L8 31L8 33L9 33L9 34L8 34L8 35L6 35L6 34L7 34L7 33L6 33L6 32L7 32L7 31L6 31L6 32L4 32L4 28L3 28L3 32L2 32L2 31L1 31L1 32L2 32L2 34L5 34L5 35L3 35L3 36L2 36L2 35L1 35L1 36L2 36L2 37L3 37L3 38L2 38L2 39L1 39L1 40L3 40L3 41L4 41L4 42L7 42L7 41L9 41L9 40L12 40L12 41L10 41L10 43L9 43L9 42L8 42L8 44L7 44L7 45L6 45L6 46L7 46L7 47L9 47L9 48L8 48L8 49L9 49L9 48L10 48L10 49L11 49L11 47L12 47L12 49L14 49L14 50L16 50L16 51L21 51L21 52L22 52L22 53L21 53L21 54L22 54L22 55L23 55L23 53L24 53L24 52L23 52L23 51L21 51L21 50L22 50L22 49L23 49L23 48L24 48L24 49L26 49L26 48L29 48L29 47L30 47L30 48L31 48L31 49L32 49L32 51L31 51L31 52L32 52L32 51L33 51L33 53L32 53L32 54L33 54L33 55L34 55L34 54L35 54L35 52L36 52L36 49L35 49L35 47L36 47L36 48L37 48L37 47L36 47L36 45L34 45L34 47L33 47L33 46L32 46L32 44L31 44L31 42L30 42L30 41L29 41L29 40L27 40L27 39L28 39L28 38L29 38L29 39L31 39L31 41L32 41L32 43L33 43L33 44L35 44L35 43L33 43L33 41L32 41L32 40L33 40L33 39L31 39L31 38L33 38L33 37L32 37L32 36L31 36L31 35L32 35L32 32L33 32L33 31L32 31L32 30L33 30L33 29L32 29L32 28L33 28L33 27L34 27L34 31L36 31L36 30L37 30L37 32L38 32L38 30L37 30L37 29L38 29L38 28L37 28L37 29L35 29L35 27L36 27L36 26L37 26L37 27L39 27L39 26L40 26L40 27L41 27L41 28L40 28L40 29L39 29L39 32L40 32L40 33L39 33L39 34L38 34L38 33L37 33L37 34L38 34L38 35L37 35L37 36L38 36L38 37L37 37L37 38L35 38L35 37L34 37L34 38L35 38L35 39L34 39L34 42L35 42L35 39L37 39L37 42L38 42L38 39L40 39L40 41L39 41L39 43L40 43L40 42L41 42L41 41L43 41L43 42L42 42L42 44L43 44L43 45L44 45L44 46L43 46L43 47L42 47L42 49L44 49L44 48L45 48L45 47L44 47L44 46L45 46L45 45L46 45L46 47L47 47L47 48L46 48L46 51L45 51L45 53L46 53L46 52L47 52L47 53L48 53L48 52L47 52L47 49L48 49L48 47L49 47L49 46L47 46L47 45L48 45L48 44L47 44L47 43L48 43L48 41L49 41L49 42L50 42L50 43L49 43L49 45L51 45L51 46L50 46L50 47L51 47L51 48L52 48L52 47L53 47L53 48L55 48L55 47L54 47L54 45L56 45L56 44L55 44L55 42L54 42L54 43L53 43L53 41L52 41L52 40L50 40L50 39L51 39L51 38L50 38L50 39L49 39L49 38L48 38L48 37L50 37L50 35L53 35L53 34L54 34L54 33L51 33L51 32L50 32L50 31L49 31L49 32L50 32L50 35L49 35L49 33L48 33L48 31L47 31L47 30L48 30L48 29L46 29L46 28L47 28L47 27L48 27L48 26L47 26L47 25L48 25L48 23L49 23L49 24L50 24L50 22L47 22L47 21L51 21L51 22L52 22L52 25L53 25L53 24L55 24L55 23L54 23L54 22L52 22L52 21L51 21L51 20L48 20L48 19L50 19L50 17L51 17L51 16L50 16L50 17L49 17L49 18L47 18L47 17L46 17L46 16L45 16L45 14L44 14L44 12L45 12L45 11L44 11L44 4L45 4L45 7L46 7L46 5L47 5L47 3L44 3L44 2L43 2L43 3L44 3L44 4L43 4L43 10L42 10L42 11L44 11L44 12L41 12L41 8L42 8L42 6L41 6L41 5L39 5L39 7L40 7L40 6L41 6L41 8L40 8L40 9L39 9L39 8L38 8L38 9L35 9L35 7L36 7L36 5L38 5L38 2L37 2L37 3L36 3L36 2L34 2L34 3L32 3L32 2L31 2L31 1ZM45 1L45 2L47 2L47 1ZM40 2L40 3L39 3L39 4L40 4L40 3L41 3L41 2ZM34 3L34 4L35 4L35 5L36 5L36 4L35 4L35 3ZM18 5L18 6L17 6L17 8L19 8L19 7L20 7L20 6L19 6L19 5ZM27 5L27 8L30 8L30 5ZM15 6L15 7L16 7L16 6ZM18 6L18 7L19 7L19 6ZM21 6L21 7L22 7L22 6ZM28 6L28 7L29 7L29 6ZM37 6L37 7L38 7L38 6ZM33 7L33 8L32 8L32 11L33 11L33 10L34 10L34 12L35 12L35 13L37 13L37 12L39 12L39 13L38 13L38 15L39 15L39 17L38 17L38 16L37 16L37 14L35 14L35 17L38 17L38 18L39 18L39 19L37 19L37 18L34 18L34 19L36 19L36 20L34 20L34 21L35 21L35 22L37 22L37 23L38 23L38 26L39 26L39 25L40 25L40 23L39 23L39 21L40 21L40 22L41 22L41 23L43 23L43 24L41 24L41 26L42 26L42 28L43 28L43 29L41 29L41 30L40 30L40 32L41 32L41 33L40 33L40 34L42 34L42 35L41 35L41 37L38 37L38 38L40 38L40 39L41 39L41 40L44 40L44 42L43 42L43 43L44 43L44 42L45 42L45 43L46 43L46 39L47 39L47 40L49 40L49 39L47 39L47 38L46 38L46 37L47 37L47 35L48 35L48 36L49 36L49 35L48 35L48 34L47 34L47 35L46 35L46 33L45 33L45 31L46 31L46 32L47 32L47 31L46 31L46 30L45 30L45 26L46 26L46 27L47 27L47 26L46 26L46 23L45 23L45 24L44 24L44 22L45 22L45 21L46 21L46 20L47 20L47 19L46 19L46 20L45 20L45 16L44 16L44 14L43 14L43 13L40 13L40 10L39 10L39 9L38 9L38 10L37 10L37 12L36 12L36 10L34 10L34 9L33 9L33 8L34 8L34 7ZM6 9L6 10L7 10L7 9ZM10 11L10 12L11 12L11 13L10 13L10 14L12 14L12 15L13 15L13 14L12 14L12 12L11 12L11 11ZM27 11L27 12L28 12L28 11ZM29 11L29 12L31 12L31 11ZM6 12L6 13L7 13L7 12ZM32 12L32 13L33 13L33 12ZM39 13L39 14L40 14L40 13ZM47 13L47 14L49 14L49 13ZM23 14L23 15L22 15L22 16L23 16L23 15L24 15L24 14ZM52 14L52 17L53 17L53 16L55 16L55 17L56 17L56 16L55 16L55 15L54 15L54 14ZM8 15L8 16L6 16L6 17L8 17L8 18L6 18L6 19L7 19L7 20L6 20L6 21L7 21L7 20L8 20L8 19L9 19L9 20L11 20L11 21L14 21L14 22L15 22L15 23L16 23L16 22L17 22L17 21L19 21L19 20L18 20L18 19L17 19L17 18L15 18L15 19L16 19L16 20L17 20L17 21L15 21L15 20L14 20L14 19L12 19L12 20L11 20L11 18L9 18L9 17L8 17L8 16L11 16L11 17L12 17L12 16L11 16L11 15ZM40 15L40 17L39 17L39 18L40 18L40 21L42 21L42 20L43 20L43 22L44 22L44 16L43 16L43 15L42 15L42 17L43 17L43 18L42 18L42 19L41 19L41 18L40 18L40 17L41 17L41 15ZM26 18L26 19L25 19L25 20L24 20L24 21L25 21L25 20L26 20L26 21L28 21L28 20L29 20L29 19L27 19L27 18ZM26 19L26 20L27 20L27 19ZM31 20L31 21L32 21L32 20ZM37 20L37 21L38 21L38 20ZM9 21L9 22L10 22L10 23L9 23L9 24L10 24L10 23L11 23L11 24L14 24L14 23L13 23L13 22L12 22L12 23L11 23L11 22L10 22L10 21ZM5 23L5 25L4 25L4 26L7 26L7 25L6 25L6 24L7 24L7 23ZM17 23L17 25L19 25L19 24L18 24L18 23ZM28 24L28 25L27 25L27 26L29 26L29 24ZM34 24L34 25L37 25L37 24ZM43 24L43 25L44 25L44 24ZM10 25L10 26L12 26L12 28L13 28L13 27L14 27L14 26L12 26L12 25ZM25 25L25 27L26 27L26 25ZM49 25L49 26L50 26L50 25ZM23 26L23 27L24 27L24 26ZM43 26L43 27L44 27L44 26ZM5 27L5 30L8 30L8 27ZM10 27L10 28L11 28L11 27ZM27 27L27 30L30 30L30 27ZM49 27L49 30L52 30L52 27ZM55 27L55 28L56 28L56 29L57 29L57 28L56 28L56 27ZM6 28L6 29L7 29L7 28ZM20 28L20 30L22 30L22 31L23 31L23 30L22 30L22 29L21 29L21 28ZM28 28L28 29L29 29L29 28ZM50 28L50 29L51 29L51 28ZM18 29L18 30L19 30L19 29ZM43 29L43 31L45 31L45 30L44 30L44 29ZM3 32L3 33L4 33L4 32ZM9 32L9 33L10 33L10 36L9 36L9 37L7 37L7 36L6 36L6 37L5 37L5 38L4 38L4 39L3 39L3 40L4 40L4 41L7 41L7 40L6 40L6 39L7 39L7 38L8 38L8 39L10 39L10 36L11 36L11 34L12 34L12 33L11 33L11 32ZM34 32L34 35L33 35L33 36L35 36L35 32ZM5 33L5 34L6 34L6 33ZM29 33L29 34L28 34L28 36L29 36L29 37L31 37L31 36L30 36L30 34L31 34L31 33ZM43 33L43 34L44 34L44 35L43 35L43 36L42 36L42 37L44 37L44 38L43 38L43 39L45 39L45 37L44 37L44 35L45 35L45 34L44 34L44 33ZM39 35L39 36L40 36L40 35ZM3 36L3 37L4 37L4 36ZM51 36L51 37L52 37L52 38L53 38L53 36ZM6 37L6 38L5 38L5 39L6 39L6 38L7 38L7 37ZM22 37L22 38L20 38L20 39L18 39L18 40L17 40L17 38L16 38L16 39L15 39L15 40L14 40L14 42L13 42L13 41L12 41L12 42L11 42L11 43L10 43L10 44L8 44L8 45L7 45L7 46L8 46L8 45L9 45L9 46L10 46L10 47L11 47L11 46L13 46L13 45L12 45L12 44L14 44L14 46L16 46L16 48L15 48L15 47L13 47L13 48L14 48L14 49L17 49L17 50L19 50L19 49L20 49L20 50L21 50L21 49L22 49L22 48L23 48L23 47L22 47L22 46L21 46L21 45L23 45L23 46L26 46L26 47L25 47L25 48L26 48L26 47L27 47L27 46L28 46L28 47L29 47L29 46L30 46L30 45L31 45L31 44L30 44L30 43L29 43L29 42L28 42L28 41L27 41L27 40L25 40L25 41L23 41L23 43L24 43L24 44L22 44L22 43L21 43L21 45L20 45L20 43L19 43L19 44L18 44L18 45L17 45L17 46L16 46L16 44L15 44L15 43L16 43L16 40L17 40L17 43L18 43L18 41L19 41L19 40L20 40L20 42L22 42L22 40L21 40L21 39L23 39L23 40L24 40L24 39L23 39L23 37ZM41 38L41 39L42 39L42 38ZM26 41L26 42L25 42L25 43L27 43L27 45L26 45L26 46L27 46L27 45L28 45L28 46L29 46L29 43L28 43L28 42L27 42L27 41ZM51 41L51 43L50 43L50 44L51 44L51 45L54 45L54 44L53 44L53 43L52 43L52 41ZM12 42L12 43L11 43L11 44L10 44L10 46L11 46L11 44L12 44L12 43L13 43L13 42ZM36 43L36 44L37 44L37 46L38 46L38 45L39 45L39 44L37 44L37 43ZM51 43L51 44L52 44L52 43ZM24 44L24 45L25 45L25 44ZM40 44L40 46L39 46L39 47L38 47L38 49L37 49L37 51L38 51L38 49L39 49L39 47L40 47L40 51L39 51L39 52L38 52L38 53L39 53L39 52L40 52L40 53L41 53L41 52L42 52L42 53L44 53L44 52L43 52L43 50L42 50L42 51L41 51L41 44ZM44 44L44 45L45 45L45 44ZM46 44L46 45L47 45L47 44ZM19 45L19 46L18 46L18 47L17 47L17 48L19 48L19 47L20 47L20 48L22 48L22 47L20 47L20 45ZM31 46L31 48L32 48L32 49L33 49L33 51L34 51L34 52L35 52L35 50L34 50L34 48L33 48L33 47L32 47L32 46ZM51 46L51 47L52 47L52 46ZM27 49L27 52L30 52L30 49ZM49 49L49 52L52 52L52 49ZM28 50L28 51L29 51L29 50ZM50 50L50 51L51 51L51 50ZM53 50L53 53L54 53L54 52L55 52L55 51L54 51L54 50ZM8 51L8 53L9 53L9 51ZM10 51L10 52L11 52L11 51ZM14 51L14 52L15 52L15 53L17 53L17 52L15 52L15 51ZM25 51L25 52L26 52L26 51ZM19 52L19 53L20 53L20 52ZM30 53L30 54L31 54L31 53ZM33 53L33 54L34 54L34 53ZM49 53L49 54L51 54L51 55L52 55L52 54L51 54L51 53ZM26 54L26 57L27 57L27 54ZM40 54L40 55L41 55L41 56L42 56L42 55L43 55L43 54L42 54L42 55L41 55L41 54ZM56 56L56 57L57 57L57 56ZM0 0L0 7L7 7L7 0ZM1 1L1 6L6 6L6 1ZM2 2L2 5L5 5L5 2ZM50 0L50 7L57 7L57 0ZM51 1L51 6L56 6L56 1ZM52 2L52 5L55 5L55 2ZM0 50L0 57L7 57L7 50ZM1 51L1 56L6 56L6 51ZM2 52L2 55L5 55L5 52Z" fill="#000000"/></g></g></svg>
