<?xml version="1.0" encoding="UTF-8"?>
<svg xmlns="http://www.w3.org/2000/svg" version="1.1" width="300" height="300" viewBox="0 0 300 300"><rect x="0" y="0" width="300" height="300" fill="#fefefe"/><g transform="scale(4.615)"><g transform="translate(4,4)"><path fill-rule="evenodd" d="M9 0L9 1L8 1L8 2L9 2L9 1L10 1L10 3L8 3L8 4L10 4L10 5L8 5L8 7L9 7L9 6L10 6L10 7L11 7L11 8L12 8L12 7L13 7L13 9L14 9L14 8L16 8L16 9L15 9L15 10L13 10L13 11L12 11L12 10L10 10L10 11L8 11L8 10L5 10L5 8L0 8L0 10L1 10L1 9L3 9L3 10L2 10L2 11L3 11L3 12L2 12L2 14L1 14L1 15L0 15L0 18L1 18L1 19L0 19L0 20L1 20L1 23L0 23L0 24L2 24L2 25L1 25L1 26L2 26L2 27L1 27L1 28L0 28L0 33L1 33L1 35L0 35L0 37L1 37L1 38L0 38L0 43L2 43L2 42L3 42L3 40L4 40L4 41L5 41L5 40L6 40L6 41L7 41L7 40L6 40L6 39L8 39L8 40L10 40L10 41L8 41L8 42L4 42L4 43L3 43L3 44L2 44L2 45L1 45L1 44L0 44L0 45L1 45L1 46L0 46L0 48L5 48L5 47L7 47L7 48L6 48L6 49L7 49L7 48L8 48L8 47L7 47L7 46L6 46L6 45L7 45L7 44L5 44L5 47L3 47L3 46L4 46L4 43L9 43L9 44L8 44L8 46L9 46L9 49L8 49L8 51L9 51L9 49L10 49L10 50L11 50L11 51L14 51L14 52L15 52L15 53L16 53L16 54L12 54L12 53L13 53L13 52L8 52L8 57L9 57L9 55L10 55L10 53L11 53L11 54L12 54L12 55L11 55L11 57L12 57L12 56L13 56L13 57L14 57L14 56L15 56L15 55L16 55L16 56L17 56L17 57L19 57L19 55L20 55L20 54L19 54L19 53L20 53L20 52L21 52L21 51L22 51L22 50L25 50L25 49L24 49L24 48L26 48L26 52L24 52L24 53L23 53L23 54L22 54L22 56L24 56L24 55L23 55L23 54L24 54L24 53L27 53L27 54L26 54L26 56L25 56L25 57L26 57L26 56L27 56L27 57L29 57L29 56L30 56L30 57L31 57L31 56L35 56L35 57L39 57L39 56L40 56L40 55L41 55L41 57L44 57L44 56L42 56L42 55L44 55L44 54L45 54L45 57L47 57L47 56L50 56L50 57L52 57L52 55L51 55L51 53L52 53L52 54L53 54L53 57L54 57L54 56L55 56L55 57L56 57L56 56L55 56L55 52L56 52L56 50L55 50L55 49L53 49L53 48L56 48L56 49L57 49L57 48L56 48L56 46L57 46L57 43L56 43L56 42L57 42L57 41L56 41L56 42L55 42L55 39L57 39L57 37L56 37L56 36L57 36L57 35L56 35L56 34L57 34L57 32L56 32L56 30L57 30L57 29L56 29L56 28L57 28L57 27L55 27L55 26L57 26L57 25L56 25L56 22L57 22L57 20L56 20L56 22L54 22L54 21L51 21L51 20L52 20L52 19L53 19L53 20L55 20L55 19L56 19L56 18L57 18L57 17L56 17L56 16L57 16L57 15L56 15L56 14L57 14L57 13L56 13L56 14L55 14L55 15L54 15L54 12L57 12L57 11L56 11L56 10L54 10L54 11L52 11L52 10L53 10L53 9L54 9L54 8L53 8L53 9L52 9L52 8L51 8L51 9L52 9L52 10L50 10L50 8L49 8L49 6L48 6L48 7L47 7L47 5L48 5L48 0L46 0L46 1L47 1L47 2L44 2L44 3L43 3L43 4L40 4L40 5L39 5L39 6L38 6L38 7L37 7L37 5L38 5L38 4L39 4L39 3L42 3L42 2L43 2L43 0L41 0L41 1L40 1L40 0L39 0L39 1L38 1L38 0L37 0L37 1L38 1L38 4L37 4L37 3L36 3L36 0L35 0L35 1L33 1L33 2L32 2L32 3L31 3L31 4L26 4L26 3L23 3L23 4L19 4L19 3L20 3L20 2L19 2L19 1L18 1L18 0L17 0L17 2L18 2L18 3L17 3L17 4L18 4L18 5L17 5L17 6L16 6L16 7L15 7L15 6L14 6L14 7L13 7L13 6L12 6L12 7L11 7L11 5L12 5L12 4L14 4L14 2L15 2L15 0L14 0L14 2L13 2L13 3L11 3L11 2L12 2L12 1L13 1L13 0ZM21 0L21 3L22 3L22 0ZM23 0L23 2L25 2L25 1L26 1L26 2L27 2L27 3L28 3L28 2L29 2L29 1L32 1L32 0L27 0L27 1L26 1L26 0ZM33 2L33 3L32 3L32 4L31 4L31 8L32 8L32 10L31 10L31 11L29 11L29 10L28 10L28 11L29 11L29 12L28 12L28 13L26 13L26 12L27 12L27 11L26 11L26 12L25 12L25 11L23 11L23 12L24 12L24 13L22 13L22 12L21 12L21 13L20 13L20 12L19 12L19 13L20 13L20 15L18 15L18 14L17 14L17 13L18 13L18 12L17 12L17 11L18 11L18 10L19 10L19 9L20 9L20 11L22 11L22 10L23 10L23 8L24 8L24 6L23 6L23 5L24 5L24 4L23 4L23 5L21 5L21 8L19 8L19 9L16 9L16 10L15 10L15 13L13 13L13 14L12 14L12 11L11 11L11 14L10 14L10 12L9 12L9 14L7 14L7 13L8 13L8 11L6 11L6 12L7 12L7 13L5 13L5 12L4 12L4 13L3 13L3 14L4 14L4 16L3 16L3 15L1 15L1 17L2 17L2 18L3 18L3 19L2 19L2 20L5 20L5 21L4 21L4 22L3 22L3 21L2 21L2 24L3 24L3 25L2 25L2 26L3 26L3 28L1 28L1 29L2 29L2 31L4 31L4 33L6 33L6 34L3 34L3 35L2 35L2 36L3 36L3 39L1 39L1 41L2 41L2 40L3 40L3 39L4 39L4 40L5 40L5 39L4 39L4 37L6 37L6 38L9 38L9 39L10 39L10 37L9 37L9 36L10 36L10 34L9 34L9 33L8 33L8 31L4 31L4 29L3 29L3 28L4 28L4 26L8 26L8 25L4 25L4 24L3 24L3 23L4 23L4 22L5 22L5 24L7 24L7 23L6 23L6 22L7 22L7 21L6 21L6 20L9 20L9 23L14 23L14 22L16 22L16 21L17 21L17 20L16 20L16 19L15 19L15 18L18 18L18 17L17 17L17 15L18 15L18 16L19 16L19 17L20 17L20 18L22 18L22 17L25 17L25 19L26 19L26 21L30 21L30 20L29 20L29 19L28 19L28 18L27 18L27 19L26 19L26 17L28 17L28 16L29 16L29 14L30 14L30 15L32 15L32 14L35 14L35 12L36 12L36 10L37 10L37 9L35 9L35 8L37 8L37 7L36 7L36 5L37 5L37 4L36 4L36 5L35 5L35 3L34 3L34 2ZM10 3L10 4L11 4L11 3ZM44 3L44 6L43 6L43 7L42 7L42 6L41 6L41 5L40 5L40 6L39 6L39 7L40 7L40 8L39 8L39 9L38 9L38 11L41 11L41 12L39 12L39 13L38 13L38 14L37 14L37 13L36 13L36 14L37 14L37 15L35 15L35 16L31 16L31 18L30 18L30 19L31 19L31 18L32 18L32 17L33 17L33 19L36 19L36 20L37 20L37 19L39 19L39 17L41 17L41 16L42 16L42 17L43 17L43 16L42 16L42 15L43 15L43 14L39 14L39 13L43 13L43 12L44 12L44 13L45 13L45 14L44 14L44 18L43 18L43 20L44 20L44 25L43 25L43 26L42 26L42 28L41 28L41 24L43 24L43 23L42 23L42 22L41 22L41 24L40 24L40 22L39 22L39 21L42 21L42 20L38 20L38 23L37 23L37 24L39 24L39 25L38 25L38 26L37 26L37 25L33 25L33 24L32 24L32 23L33 23L33 22L34 22L34 23L35 23L35 20L34 20L34 21L33 21L33 20L32 20L32 21L31 21L31 24L30 24L30 23L28 23L28 24L25 24L25 23L26 23L26 22L25 22L25 21L24 21L24 20L23 20L23 19L24 19L24 18L23 18L23 19L22 19L22 20L21 20L21 19L20 19L20 21L18 21L18 22L17 22L17 24L19 24L19 25L15 25L15 24L16 24L16 23L15 23L15 24L9 24L9 30L10 30L10 31L12 31L12 32L11 32L11 33L12 33L12 36L11 36L11 37L13 37L13 39L12 39L12 38L11 38L11 41L10 41L10 42L9 42L9 43L10 43L10 44L11 44L11 43L10 43L10 42L12 42L12 43L13 43L13 45L12 45L12 48L11 48L11 49L13 49L13 50L14 50L14 51L15 51L15 49L16 49L16 50L17 50L17 51L16 51L16 53L17 53L17 51L19 51L19 52L20 52L20 50L21 50L21 49L23 49L23 48L24 48L24 47L26 47L26 48L28 48L28 47L29 47L29 48L30 48L30 47L29 47L29 44L30 44L30 45L32 45L32 46L31 46L31 47L32 47L32 46L35 46L35 48L34 48L34 49L33 49L33 48L32 48L32 49L31 49L31 53L30 53L30 54L27 54L27 56L29 56L29 55L30 55L30 56L31 56L31 54L32 54L32 53L33 53L33 54L34 54L34 55L35 55L35 56L36 56L36 54L35 54L35 53L33 53L33 52L32 52L32 51L35 51L35 50L36 50L36 52L38 52L38 54L40 54L40 53L41 53L41 52L40 52L40 51L38 51L38 50L41 50L41 51L42 51L42 50L41 50L41 48L42 48L42 49L43 49L43 51L44 51L44 50L46 50L46 51L45 51L45 52L44 52L44 53L43 53L43 54L44 54L44 53L45 53L45 54L46 54L46 56L47 56L47 54L48 54L48 50L47 50L47 49L48 49L48 48L51 48L51 46L52 46L52 47L54 47L54 46L56 46L56 43L55 43L55 44L54 44L54 46L53 46L53 43L54 43L54 42L53 42L53 41L51 41L51 42L50 42L50 43L47 43L47 45L45 45L45 44L46 44L46 42L48 42L48 41L49 41L49 40L50 40L50 39L51 39L51 40L53 40L53 39L55 39L55 37L53 37L53 35L55 35L55 36L56 36L56 35L55 35L55 34L56 34L56 32L53 32L53 31L50 31L50 32L49 32L49 31L48 31L48 30L47 30L47 29L46 29L46 30L47 30L47 31L48 31L48 32L47 32L47 33L45 33L45 32L43 32L43 30L41 30L41 29L43 29L43 27L44 27L44 26L45 26L45 28L44 28L44 29L45 29L45 28L46 28L46 27L47 27L47 28L48 28L48 27L47 27L47 26L48 26L48 25L50 25L50 26L52 26L52 25L55 25L55 24L53 24L53 23L51 23L51 25L50 25L50 22L51 22L51 21L49 21L49 22L47 22L47 21L45 21L45 20L44 20L44 18L45 18L45 19L46 19L46 18L47 18L47 19L48 19L48 18L47 18L47 17L50 17L50 19L52 19L52 18L56 18L56 17L53 17L53 16L51 16L51 17L50 17L50 14L51 14L51 12L50 12L50 11L49 11L49 12L48 12L48 11L47 11L47 12L45 12L45 11L44 11L44 9L45 9L45 10L47 10L47 8L46 8L46 5L47 5L47 3ZM15 4L15 5L16 5L16 4ZM25 4L25 8L26 8L26 4ZM32 4L32 5L33 5L33 4ZM45 4L45 5L46 5L46 4ZM18 5L18 6L17 6L17 7L16 7L16 8L17 8L17 7L18 7L18 6L19 6L19 7L20 7L20 5ZM27 5L27 8L30 8L30 5ZM34 5L34 7L33 7L33 6L32 6L32 7L33 7L33 9L34 9L34 8L35 8L35 5ZM22 6L22 8L23 8L23 6ZM28 6L28 7L29 7L29 6ZM40 6L40 7L41 7L41 6ZM44 6L44 8L43 8L43 9L40 9L40 10L42 10L42 11L43 11L43 9L44 9L44 8L45 8L45 9L46 9L46 8L45 8L45 6ZM6 8L6 9L9 9L9 8ZM55 8L55 9L56 9L56 8ZM21 9L21 10L22 10L22 9ZM4 10L4 11L5 11L5 10ZM16 10L16 11L17 11L17 10ZM32 10L32 11L31 11L31 13L30 13L30 14L32 14L32 12L33 12L33 13L34 13L34 12L33 12L33 10ZM13 11L13 12L14 12L14 11ZM0 12L0 13L1 13L1 12ZM16 12L16 13L15 13L15 14L13 14L13 15L12 15L12 14L11 14L11 15L10 15L10 17L12 17L12 18L10 18L10 20L11 20L11 21L12 21L12 19L13 19L13 20L14 20L14 19L13 19L13 18L15 18L15 17L14 17L14 16L16 16L16 13L17 13L17 12ZM49 12L49 13L47 13L47 14L45 14L45 15L47 15L47 16L45 16L45 17L47 17L47 16L48 16L48 15L49 15L49 14L50 14L50 12ZM52 12L52 13L53 13L53 12ZM21 13L21 15L20 15L20 17L22 17L22 16L21 16L21 15L24 15L24 16L25 16L25 17L26 17L26 15L27 15L27 16L28 16L28 15L27 15L27 14L26 14L26 13L24 13L24 14L22 14L22 13ZM28 13L28 14L29 14L29 13ZM5 14L5 16L4 16L4 17L3 17L3 16L2 16L2 17L3 17L3 18L4 18L4 17L7 17L7 18L5 18L5 20L6 20L6 19L7 19L7 18L8 18L8 19L9 19L9 18L8 18L8 17L7 17L7 16L9 16L9 15L7 15L7 14ZM24 14L24 15L25 15L25 14ZM38 14L38 15L39 15L39 16L38 16L38 17L37 17L37 16L35 16L35 17L37 17L37 18L38 18L38 17L39 17L39 16L41 16L41 15L39 15L39 14ZM6 15L6 16L7 16L7 15ZM13 15L13 16L14 16L14 15ZM41 18L41 19L42 19L42 18ZM18 19L18 20L19 20L19 19ZM15 20L15 21L16 21L16 20ZM5 21L5 22L6 22L6 21ZM13 21L13 22L14 22L14 21ZM21 21L21 22L22 22L22 21ZM23 21L23 22L24 22L24 21ZM19 22L19 23L20 23L20 22ZM45 22L45 23L46 23L46 24L45 24L45 25L46 25L46 24L47 24L47 25L48 25L48 23L47 23L47 22ZM21 23L21 24L20 24L20 25L19 25L19 26L20 26L20 28L19 28L19 29L18 29L18 28L17 28L17 27L18 27L18 26L15 26L15 25L13 25L13 26L14 26L14 28L16 28L16 29L15 29L15 31L13 31L13 32L12 32L12 33L13 33L13 34L15 34L15 36L16 36L16 34L15 34L15 33L16 33L16 32L15 32L15 31L16 31L16 29L18 29L18 30L17 30L17 31L21 31L21 32L17 32L17 34L18 34L18 35L17 35L17 40L16 40L16 39L15 39L15 38L16 38L16 37L14 37L14 35L13 35L13 37L14 37L14 39L13 39L13 40L14 40L14 41L12 41L12 42L14 42L14 43L15 43L15 44L14 44L14 45L13 45L13 49L15 49L15 48L16 48L16 49L17 49L17 50L20 50L20 49L21 49L21 47L23 47L23 46L25 46L25 45L24 45L24 44L23 44L23 43L24 43L24 42L25 42L25 41L24 41L24 40L25 40L25 39L27 39L27 41L26 41L26 42L27 42L27 41L29 41L29 43L28 43L28 44L27 44L27 43L25 43L25 44L27 44L27 45L26 45L26 47L27 47L27 45L28 45L28 44L29 44L29 43L30 43L30 44L33 44L33 43L34 43L34 45L36 45L36 46L37 46L37 47L36 47L36 48L35 48L35 49L36 49L36 50L38 50L38 49L39 49L39 48L41 48L41 46L43 46L43 47L42 47L42 48L43 48L43 49L44 49L44 48L45 48L45 49L47 49L47 48L48 48L48 47L50 47L50 46L51 46L51 43L53 43L53 42L51 42L51 43L50 43L50 46L49 46L49 44L48 44L48 45L47 45L47 46L45 46L45 47L44 47L44 46L43 46L43 45L44 45L44 44L45 44L45 42L46 42L46 41L45 41L45 42L44 42L44 40L47 40L47 39L50 39L50 38L51 38L51 37L52 37L52 35L53 35L53 34L52 34L52 33L53 33L53 32L52 32L52 33L51 33L51 32L50 32L50 34L49 34L49 35L50 35L50 38L48 38L48 37L47 37L47 35L44 35L44 36L43 36L43 35L42 35L42 34L45 34L45 33L43 33L43 32L41 32L41 33L39 33L39 34L40 34L40 35L39 35L39 37L40 37L40 38L41 38L41 39L42 39L42 38L43 38L43 37L44 37L44 38L45 38L45 39L43 39L43 40L42 40L42 41L41 41L41 42L42 42L42 44L41 44L41 43L39 43L39 42L40 42L40 41L39 41L39 42L38 42L38 40L39 40L39 39L38 39L38 40L35 40L35 39L37 39L37 38L38 38L38 37L37 37L37 36L38 36L38 33L37 33L37 32L33 32L33 33L35 33L35 34L37 34L37 36L35 36L35 35L34 35L34 34L33 34L33 35L31 35L31 33L32 33L32 32L31 32L31 33L29 33L29 32L28 32L28 33L29 33L29 34L30 34L30 36L29 36L29 37L31 37L31 38L29 38L29 39L33 39L33 40L35 40L35 42L37 42L37 43L34 43L34 42L33 42L33 41L32 41L32 40L28 40L28 39L27 39L27 38L28 38L28 37L27 37L27 38L25 38L25 37L26 37L26 35L27 35L27 34L26 34L26 35L25 35L25 33L27 33L27 31L32 31L32 27L33 27L33 28L35 28L35 29L38 29L38 28L40 28L40 26L39 26L39 27L36 27L36 26L34 26L34 27L33 27L33 26L32 26L32 24L31 24L31 25L27 25L27 26L26 26L26 25L25 25L25 24L24 24L24 23ZM21 24L21 25L20 25L20 26L21 26L21 25L23 25L23 24ZM3 25L3 26L4 26L4 25ZM11 25L11 29L10 29L10 30L11 30L11 29L12 29L12 30L13 30L13 29L12 29L12 25ZM22 26L22 27L21 27L21 28L22 28L22 29L20 29L20 30L21 30L21 31L25 31L25 32L21 32L21 33L20 33L20 34L21 34L21 33L22 33L22 35L23 35L23 36L20 36L20 35L18 35L18 36L19 36L19 37L18 37L18 38L19 38L19 39L18 39L18 40L17 40L17 41L15 41L15 42L17 42L17 43L18 43L18 42L19 42L19 41L20 41L20 42L21 42L21 43L20 43L20 44L19 44L19 45L20 45L20 46L19 46L19 49L20 49L20 47L21 47L21 45L22 45L22 46L23 46L23 45L22 45L22 44L21 44L21 43L22 43L22 42L23 42L23 40L24 40L24 39L22 39L22 40L19 40L19 39L20 39L20 38L19 38L19 37L21 37L21 38L24 38L24 37L23 37L23 36L24 36L24 34L23 34L23 33L25 33L25 32L26 32L26 31L25 31L25 30L23 30L23 28L25 28L25 29L26 29L26 28L25 28L25 27L26 27L26 26ZM31 26L31 27L32 27L32 26ZM53 26L53 27L54 27L54 26ZM5 27L5 30L8 30L8 27ZM27 27L27 30L30 30L30 27ZM35 27L35 28L36 28L36 27ZM49 27L49 30L52 30L52 27ZM6 28L6 29L7 29L7 28ZM28 28L28 29L29 29L29 28ZM50 28L50 29L51 29L51 28ZM54 28L54 29L53 29L53 30L55 30L55 28ZM33 30L33 31L35 31L35 30ZM38 30L38 32L39 32L39 30ZM40 30L40 31L41 31L41 30ZM44 30L44 31L45 31L45 30ZM1 32L1 33L2 33L2 32ZM6 32L6 33L7 33L7 32ZM14 32L14 33L15 33L15 32ZM48 32L48 33L49 33L49 32ZM54 33L54 34L55 34L55 33ZM6 34L6 35L8 35L8 36L9 36L9 34ZM50 34L50 35L52 35L52 34ZM3 35L3 36L5 36L5 35ZM33 35L33 36L32 36L32 37L33 37L33 38L35 38L35 37L33 37L33 36L34 36L34 35ZM6 36L6 37L7 37L7 36ZM40 36L40 37L41 37L41 38L42 38L42 37L41 37L41 36ZM44 36L44 37L45 37L45 38L46 38L46 39L47 39L47 37L45 37L45 36ZM52 38L52 39L53 39L53 38ZM18 40L18 41L17 41L17 42L18 42L18 41L19 41L19 40ZM21 41L21 42L22 42L22 41ZM30 41L30 42L32 42L32 43L33 43L33 42L32 42L32 41ZM43 42L43 44L44 44L44 42ZM15 44L15 45L14 45L14 48L15 48L15 47L16 47L16 48L18 48L18 47L17 47L17 45L18 45L18 44ZM20 44L20 45L21 45L21 44ZM39 44L39 45L38 45L38 46L39 46L39 47L38 47L38 48L37 48L37 49L38 49L38 48L39 48L39 47L40 47L40 46L39 46L39 45L41 45L41 44ZM1 46L1 47L2 47L2 46ZM10 46L10 47L11 47L11 46ZM47 46L47 47L48 47L48 46ZM43 47L43 48L44 48L44 47ZM27 49L27 52L30 52L30 49ZM32 49L32 50L33 50L33 49ZM49 49L49 52L52 52L52 49ZM28 50L28 51L29 51L29 50ZM50 50L50 51L51 51L51 50ZM54 50L54 51L55 51L55 50ZM46 51L46 53L47 53L47 51ZM53 52L53 53L54 53L54 52ZM17 54L17 56L18 56L18 54ZM41 54L41 55L42 55L42 54ZM37 55L37 56L39 56L39 55ZM50 55L50 56L51 56L51 55ZM0 0L0 7L7 7L7 0ZM1 1L1 6L6 6L6 1ZM2 2L2 5L5 5L5 2ZM50 0L50 7L57 7L57 0ZM51 1L51 6L56 6L56 1ZM52 2L52 5L55 5L55 2ZM0 50L0 57L7 57L7 50ZM1 51L1 56L6 56L6 51ZM2 52L2 55L5 55L5 52Z" fill="#000000"/></g></g></svg>
