<?xml version="1.0" encoding="UTF-8"?>
<svg xmlns="http://www.w3.org/2000/svg" version="1.1" width="300" height="300" viewBox="0 0 300 300"><rect x="0" y="0" width="300" height="300" fill="#fefefe"/><g transform="scale(4.615)"><g transform="translate(4,4)"><path fill-rule="evenodd" d="M8 0L8 2L9 2L9 3L10 3L10 2L9 2L9 1L10 1L10 0ZM12 0L12 1L11 1L11 3L12 3L12 4L13 4L13 5L15 5L15 6L14 6L14 7L13 7L13 6L12 6L12 8L14 8L14 9L15 9L15 8L14 8L14 7L15 7L15 6L16 6L16 7L17 7L17 8L18 8L18 10L17 10L17 14L15 14L15 15L17 15L17 16L18 16L18 17L19 17L19 19L20 19L20 21L21 21L21 22L20 22L20 23L21 23L21 26L20 26L20 24L18 24L18 23L16 23L16 22L18 22L18 21L19 21L19 20L18 20L18 21L17 21L17 19L18 19L18 18L16 18L16 20L14 20L14 19L15 19L15 16L14 16L14 15L13 15L13 14L11 14L11 13L13 13L13 10L12 10L12 11L11 11L11 13L10 13L10 14L11 14L11 15L9 15L9 16L10 16L10 19L11 19L11 15L12 15L12 16L14 16L14 17L12 17L12 19L13 19L13 21L12 21L12 20L9 20L9 18L8 18L8 21L7 21L7 20L6 20L6 21L5 21L5 19L4 19L4 21L3 21L3 18L2 18L2 19L1 19L1 20L2 20L2 21L3 21L3 23L4 23L4 24L6 24L6 25L7 25L7 26L5 26L5 25L3 25L3 24L2 24L2 22L0 22L0 23L1 23L1 25L0 25L0 26L2 26L2 28L1 28L1 27L0 27L0 30L3 30L3 29L2 29L2 28L4 28L4 32L2 32L2 33L1 33L1 31L0 31L0 33L1 33L1 34L2 34L2 36L1 36L1 39L0 39L0 40L2 40L2 41L1 41L1 42L2 42L2 41L3 41L3 40L2 40L2 39L3 39L3 38L4 38L4 37L5 37L5 35L7 35L7 36L6 36L6 37L7 37L7 38L6 38L6 39L5 39L5 40L4 40L4 41L7 41L7 42L6 42L6 43L5 43L5 42L3 42L3 43L4 43L4 44L2 44L2 45L1 45L1 46L0 46L0 48L5 48L5 47L7 47L7 48L6 48L6 49L8 49L8 50L9 50L9 49L14 49L14 48L15 48L15 47L14 47L14 46L16 46L16 47L17 47L17 48L16 48L16 49L15 49L15 51L14 51L14 52L15 52L15 54L14 54L14 55L13 55L13 54L12 54L12 53L13 53L13 52L12 52L12 51L10 51L10 52L9 52L9 51L8 51L8 52L9 52L9 54L8 54L8 57L10 57L10 56L11 56L11 54L12 54L12 55L13 55L13 56L12 56L12 57L14 57L14 55L15 55L15 56L16 56L16 57L17 57L17 55L18 55L18 53L19 53L19 52L20 52L20 53L21 53L21 54L20 54L20 55L21 55L21 54L22 54L22 53L23 53L23 55L22 55L22 57L23 57L23 56L24 56L24 57L25 57L25 55L24 55L24 54L25 54L25 51L24 51L24 49L23 49L23 48L22 48L22 46L20 46L20 45L21 45L21 44L20 44L20 43L21 43L21 42L20 42L20 40L22 40L22 41L23 41L23 42L24 42L24 43L22 43L22 44L24 44L24 43L25 43L25 45L26 45L26 46L24 46L24 45L23 45L23 46L24 46L24 48L25 48L25 50L26 50L26 53L28 53L28 55L27 55L27 54L26 54L26 55L27 55L27 56L26 56L26 57L28 57L28 55L29 55L29 57L33 57L33 55L30 55L30 54L31 54L31 53L32 53L32 54L34 54L34 57L35 57L35 55L37 55L37 54L36 54L36 53L37 53L37 52L38 52L38 53L39 53L39 55L40 55L40 54L41 54L41 56L40 56L40 57L41 57L41 56L42 56L42 57L43 57L43 56L44 56L44 57L45 57L45 56L46 56L46 55L47 55L47 57L48 57L48 56L49 56L49 57L50 57L50 55L49 55L49 54L52 54L52 55L53 55L53 56L51 56L51 57L53 57L53 56L54 56L54 55L57 55L57 54L54 54L54 53L57 53L57 52L56 52L56 51L57 51L57 50L56 50L56 47L57 47L57 45L56 45L56 44L57 44L57 42L56 42L56 41L57 41L57 40L54 40L54 39L55 39L55 38L57 38L57 34L56 34L56 35L55 35L55 36L54 36L54 34L53 34L53 36L51 36L51 33L50 33L50 31L53 31L53 33L56 33L56 31L57 31L57 29L56 29L56 28L57 28L57 24L56 24L56 23L57 23L57 21L56 21L56 20L57 20L57 18L56 18L56 17L57 17L57 13L56 13L56 12L57 12L57 10L56 10L56 12L55 12L55 13L56 13L56 15L55 15L55 16L56 16L56 17L54 17L54 15L52 15L52 14L54 14L54 13L53 13L53 12L54 12L54 11L55 11L55 9L57 9L57 8L55 8L55 9L54 9L54 10L53 10L53 8L49 8L49 6L48 6L48 8L47 8L47 11L46 11L46 8L45 8L45 6L44 6L44 5L46 5L46 7L47 7L47 5L48 5L48 0L46 0L46 1L47 1L47 2L45 2L45 4L44 4L44 2L43 2L43 3L42 3L42 5L41 5L41 6L40 6L40 7L39 7L39 6L38 6L38 5L39 5L39 4L40 4L40 2L42 2L42 1L45 1L45 0L42 0L42 1L41 1L41 0L38 0L38 2L39 2L39 4L38 4L38 3L37 3L37 4L38 4L38 5L37 5L37 6L36 6L36 10L34 10L34 9L35 9L35 4L36 4L36 3L35 3L35 2L37 2L37 1L35 1L35 0L34 0L34 3L33 3L33 4L34 4L34 5L33 5L33 6L32 6L32 7L33 7L33 6L34 6L34 8L32 8L32 9L31 9L31 5L32 5L32 2L33 2L33 0L32 0L32 1L31 1L31 0L28 0L28 3L27 3L27 0L26 0L26 1L25 1L25 0L24 0L24 1L23 1L23 0L19 0L19 1L20 1L20 2L18 2L18 1L17 1L17 0L16 0L16 1L17 1L17 2L15 2L15 1L14 1L14 0ZM12 1L12 2L13 2L13 3L14 3L14 4L15 4L15 3L14 3L14 1ZM21 1L21 2L22 2L22 1ZM24 1L24 4L25 4L25 1ZM39 1L39 2L40 2L40 1ZM30 2L30 3L28 3L28 4L30 4L30 3L31 3L31 2ZM16 3L16 4L17 4L17 5L16 5L16 6L17 6L17 7L18 7L18 8L19 8L19 7L20 7L20 5L22 5L22 6L21 6L21 7L22 7L22 6L23 6L23 8L25 8L25 9L24 9L24 10L23 10L23 9L22 9L22 8L21 8L21 9L20 9L20 11L18 11L18 12L19 12L19 13L18 13L18 14L19 14L19 13L20 13L20 14L22 14L22 16L23 16L23 15L26 15L26 16L27 16L27 19L26 19L26 20L25 20L25 19L24 19L24 20L25 20L25 21L26 21L26 20L27 20L27 22L26 22L26 23L27 23L27 25L26 25L26 26L27 26L27 25L28 25L28 22L29 22L29 24L30 24L30 23L31 23L31 25L30 25L30 26L31 26L31 25L32 25L32 28L31 28L31 29L32 29L32 31L31 31L31 32L30 32L30 31L28 31L28 32L26 32L26 33L25 33L25 31L26 31L26 30L25 30L25 29L24 29L24 30L23 30L23 29L22 29L22 30L21 30L21 29L20 29L20 27L19 27L19 25L18 25L18 24L16 24L16 26L17 26L17 27L16 27L16 28L15 28L15 25L14 25L14 24L13 24L13 26L12 26L12 29L13 29L13 30L11 30L11 29L10 29L10 28L9 28L9 30L11 30L11 32L9 32L9 31L5 31L5 33L6 33L6 34L7 34L7 35L9 35L9 36L10 36L10 38L11 38L11 39L10 39L10 40L9 40L9 41L8 41L8 39L6 39L6 40L7 40L7 41L8 41L8 42L7 42L7 43L6 43L6 44L7 44L7 45L6 45L6 46L7 46L7 47L8 47L8 49L9 49L9 48L11 48L11 47L8 47L8 46L10 46L10 45L8 45L8 44L9 44L9 43L8 43L8 42L9 42L9 41L10 41L10 42L11 42L11 43L12 43L12 41L10 41L10 40L12 40L12 39L13 39L13 38L12 38L12 37L13 37L13 35L12 35L12 34L13 34L13 33L12 33L12 32L14 32L14 31L15 31L15 30L17 30L17 31L16 31L16 32L15 32L15 33L16 33L16 34L17 34L17 37L16 37L16 35L15 35L15 34L14 34L14 36L15 36L15 37L14 37L14 38L15 38L15 41L16 41L16 43L14 43L14 42L13 42L13 44L11 44L11 46L14 46L14 45L16 45L16 46L17 46L17 45L16 45L16 43L17 43L17 41L18 41L18 40L19 40L19 39L18 39L18 38L19 38L19 37L18 37L18 34L17 34L17 33L18 33L18 32L19 32L19 33L20 33L20 34L19 34L19 36L21 36L21 37L22 37L22 38L23 38L23 41L24 41L24 42L26 42L26 41L25 41L25 40L27 40L27 41L28 41L28 43L27 43L27 45L28 45L28 46L26 46L26 48L27 48L27 47L28 47L28 48L29 48L29 47L30 47L30 48L31 48L31 50L32 50L32 51L31 51L31 52L32 52L32 51L33 51L33 50L32 50L32 48L33 48L33 46L32 46L32 40L33 40L33 41L34 41L34 42L35 42L35 41L36 41L36 43L35 43L35 44L33 44L33 45L34 45L34 50L35 50L35 51L34 51L34 52L35 52L35 53L34 53L34 54L35 54L35 53L36 53L36 52L35 52L35 51L37 51L37 49L36 49L36 48L37 48L37 47L38 47L38 51L39 51L39 49L40 49L40 51L41 51L41 49L42 49L42 50L43 50L43 51L42 51L42 52L43 52L43 53L42 53L42 54L43 54L43 55L44 55L44 56L45 56L45 55L44 55L44 52L43 52L43 51L45 51L45 49L44 49L44 46L43 46L43 45L44 45L44 44L45 44L45 43L46 43L46 42L47 42L47 44L46 44L46 47L47 47L47 44L48 44L48 46L50 46L50 42L49 42L49 41L51 41L51 40L52 40L52 44L51 44L51 45L52 45L52 46L53 46L53 47L54 47L54 50L53 50L53 51L54 51L54 52L55 52L55 51L56 51L56 50L55 50L55 47L56 47L56 45L55 45L55 44L56 44L56 42L55 42L55 41L54 41L54 42L55 42L55 43L54 43L54 44L53 44L53 40L52 40L52 39L51 39L51 40L50 40L50 37L49 37L49 36L50 36L50 33L49 33L49 34L48 34L48 33L47 33L47 30L48 30L48 29L47 29L47 28L46 28L46 29L45 29L45 30L44 30L44 26L45 26L45 25L44 25L44 24L45 24L45 23L47 23L47 25L46 25L46 26L47 26L47 27L48 27L48 26L49 26L49 25L48 25L48 22L50 22L50 23L51 23L51 22L52 22L52 24L50 24L50 26L53 26L53 25L52 25L52 24L53 24L53 22L52 22L52 20L53 20L53 19L54 19L54 21L55 21L55 22L54 22L54 24L55 24L55 25L54 25L54 26L55 26L55 27L54 27L54 28L53 28L53 29L54 29L54 30L53 30L53 31L54 31L54 32L55 32L55 31L56 31L56 30L55 30L55 28L56 28L56 24L55 24L55 23L56 23L56 21L55 21L55 20L56 20L56 18L55 18L55 19L54 19L54 17L52 17L52 16L50 16L50 15L51 15L51 14L52 14L52 13L50 13L50 11L51 11L51 12L52 12L52 11L53 11L53 10L52 10L52 9L50 9L50 11L49 11L49 8L48 8L48 14L47 14L47 13L46 13L46 11L45 11L45 9L44 9L44 8L42 8L42 6L43 6L43 7L44 7L44 6L43 6L43 5L44 5L44 4L43 4L43 5L42 5L42 6L41 6L41 7L40 7L40 8L38 8L38 6L37 6L37 8L38 8L38 10L37 10L37 11L38 11L38 10L39 10L39 9L40 9L40 8L42 8L42 10L40 10L40 11L39 11L39 12L37 12L37 13L36 13L36 11L34 11L34 10L33 10L33 9L32 9L32 11L34 11L34 12L35 12L35 13L34 13L34 15L33 15L33 13L32 13L32 12L30 12L30 11L31 11L31 9L30 9L30 11L29 11L29 9L27 9L27 10L25 10L25 9L26 9L26 5L24 5L24 6L23 6L23 3L22 3L22 4L21 4L21 3L18 3L18 4L17 4L17 3ZM26 3L26 4L27 4L27 3ZM46 3L46 5L47 5L47 3ZM8 4L8 9L7 9L7 8L5 8L5 9L7 9L7 10L3 10L3 8L0 8L0 10L1 10L1 9L2 9L2 11L5 11L5 12L6 12L6 13L5 13L5 14L2 14L2 15L1 15L1 14L0 14L0 15L1 15L1 16L0 16L0 17L2 17L2 15L3 15L3 16L4 16L4 18L6 18L6 19L7 19L7 18L6 18L6 17L8 17L8 16L6 16L6 17L5 17L5 16L4 16L4 15L8 15L8 14L9 14L9 13L8 13L8 12L6 12L6 11L9 11L9 10L11 10L11 8L10 8L10 7L11 7L11 5L10 5L10 4ZM18 4L18 5L17 5L17 6L18 6L18 7L19 7L19 4ZM27 5L27 8L30 8L30 5ZM9 6L9 7L10 7L10 6ZM24 6L24 7L25 7L25 6ZM28 6L28 7L29 7L29 6ZM9 8L9 9L8 9L8 10L9 10L9 9L10 9L10 8ZM21 9L21 10L22 10L22 9ZM43 9L43 10L42 10L42 12L41 12L41 11L40 11L40 18L38 18L38 16L37 16L37 15L38 15L38 13L37 13L37 14L36 14L36 18L34 18L34 17L35 17L35 15L34 15L34 17L33 17L33 15L32 15L32 13L31 13L31 15L32 15L32 17L31 17L31 16L30 16L30 15L29 15L29 13L30 13L30 12L29 12L29 11L28 11L28 10L27 10L27 11L28 11L28 12L27 12L27 14L26 14L26 15L27 15L27 14L28 14L28 15L29 15L29 16L30 16L30 17L28 17L28 18L30 18L30 17L31 17L31 20L30 20L30 19L29 19L29 20L28 20L28 19L27 19L27 20L28 20L28 21L29 21L29 22L30 22L30 21L31 21L31 20L32 20L32 21L33 21L33 22L31 22L31 23L32 23L32 25L33 25L33 26L34 26L34 24L36 24L36 26L37 26L37 28L36 28L36 29L35 29L35 27L34 27L34 29L33 29L33 28L32 28L32 29L33 29L33 31L32 31L32 33L33 33L33 34L34 34L34 35L32 35L32 34L30 34L30 32L29 32L29 34L28 34L28 33L26 33L26 34L28 34L28 35L27 35L27 36L26 36L26 35L25 35L25 34L24 34L24 31L23 31L23 30L22 30L22 33L23 33L23 34L22 34L22 35L25 35L25 36L24 36L24 37L25 37L25 36L26 36L26 37L27 37L27 36L28 36L28 37L29 37L29 36L28 36L28 35L31 35L31 36L30 36L30 40L28 40L28 41L30 41L30 43L28 43L28 45L29 45L29 44L30 44L30 43L31 43L31 41L30 41L30 40L31 40L31 38L34 38L34 41L35 41L35 38L36 38L36 41L37 41L37 42L38 42L38 41L39 41L39 38L40 38L40 39L41 39L41 40L40 40L40 41L41 41L41 42L40 42L40 43L37 43L37 44L36 44L36 45L35 45L35 47L37 47L37 46L38 46L38 45L37 45L37 44L39 44L39 45L40 45L40 46L41 46L41 47L40 47L40 49L41 49L41 47L42 47L42 45L43 45L43 44L44 44L44 43L45 43L45 42L46 42L46 40L47 40L47 41L48 41L48 40L49 40L49 39L48 39L48 40L47 40L47 38L46 38L46 37L48 37L48 36L49 36L49 35L48 35L48 34L46 34L46 33L45 33L45 31L46 31L46 30L45 30L45 31L44 31L44 30L43 30L43 31L42 31L42 28L43 28L43 27L41 27L41 23L40 23L40 27L39 27L39 26L38 26L38 25L37 25L37 24L36 24L36 23L37 23L37 22L38 22L38 23L39 23L39 22L38 22L38 21L39 21L39 19L40 19L40 22L42 22L42 25L43 25L43 24L44 24L44 23L45 23L45 22L46 22L46 21L47 21L47 22L48 22L48 19L49 19L49 20L51 20L51 18L52 18L52 17L51 17L51 18L50 18L50 16L49 16L49 15L50 15L50 13L49 13L49 14L48 14L48 15L46 15L46 13L45 13L45 12L44 12L44 13L43 13L43 16L44 16L44 17L43 17L43 18L42 18L42 17L41 17L41 15L42 15L42 12L43 12L43 11L44 11L44 9ZM51 10L51 11L52 11L52 10ZM0 11L0 13L2 13L2 12L1 12L1 11ZM14 11L14 12L15 12L15 11ZM20 11L20 13L21 13L21 11ZM22 11L22 12L23 12L23 14L24 14L24 13L26 13L26 11ZM6 13L6 14L7 14L7 13ZM44 13L44 16L45 16L45 13ZM18 15L18 16L20 16L20 19L21 19L21 20L23 20L23 19L21 19L21 15ZM24 16L24 18L26 18L26 17L25 17L25 16ZM47 16L47 17L46 17L46 18L45 18L45 17L44 17L44 19L42 19L42 20L41 20L41 21L42 21L42 22L43 22L43 23L44 23L44 22L45 22L45 21L46 21L46 20L45 20L45 21L44 21L44 19L47 19L47 17L48 17L48 18L49 18L49 19L50 19L50 18L49 18L49 17L48 17L48 16ZM36 18L36 19L37 19L37 21L36 21L36 20L35 20L35 19L34 19L34 20L33 20L33 21L34 21L34 22L35 22L35 23L36 23L36 22L37 22L37 21L38 21L38 19L37 19L37 18ZM40 18L40 19L41 19L41 18ZM29 20L29 21L30 21L30 20ZM6 21L6 22L5 22L5 23L6 23L6 24L7 24L7 25L8 25L8 26L9 26L9 27L11 27L11 26L9 26L9 22L8 22L8 24L7 24L7 23L6 23L6 22L7 22L7 21ZM10 21L10 25L12 25L12 24L11 24L11 21ZM14 21L14 22L12 22L12 23L15 23L15 21ZM35 21L35 22L36 22L36 21ZM43 21L43 22L44 22L44 21ZM21 22L21 23L22 23L22 24L23 24L23 23L22 23L22 22ZM24 22L24 23L25 23L25 22ZM33 23L33 24L34 24L34 23ZM2 25L2 26L3 26L3 27L4 27L4 26L3 26L3 25ZM24 25L24 26L25 26L25 25ZM47 25L47 26L48 26L48 25ZM13 26L13 29L14 29L14 30L15 30L15 29L14 29L14 26ZM5 27L5 30L8 30L8 27ZM18 27L18 28L19 28L19 27ZM22 27L22 28L24 28L24 27ZM27 27L27 30L30 30L30 27ZM40 27L40 28L39 28L39 29L38 29L38 28L37 28L37 30L35 30L35 29L34 29L34 31L35 31L35 32L34 32L34 34L35 34L35 33L36 33L36 35L35 35L35 36L33 36L33 37L34 37L34 38L35 38L35 37L36 37L36 38L37 38L37 37L36 37L36 35L38 35L38 36L40 36L40 35L41 35L41 39L42 39L42 40L43 40L43 38L44 38L44 35L43 35L43 33L42 33L42 31L40 31L40 32L39 32L39 33L38 33L38 34L37 34L37 33L36 33L36 31L37 31L37 32L38 32L38 31L39 31L39 30L40 30L40 28L41 28L41 27ZM49 27L49 30L52 30L52 27ZM6 28L6 29L7 29L7 28ZM28 28L28 29L29 29L29 28ZM50 28L50 29L51 29L51 28ZM19 29L19 32L21 32L21 31L20 31L20 29ZM37 30L37 31L38 31L38 30ZM54 30L54 31L55 31L55 30ZM17 31L17 32L16 32L16 33L17 33L17 32L18 32L18 31ZM6 32L6 33L8 33L8 34L9 34L9 33L8 33L8 32ZM40 32L40 34L42 34L42 33L41 33L41 32ZM2 33L2 34L3 34L3 33ZM11 33L11 34L12 34L12 33ZM4 34L4 35L3 35L3 37L4 37L4 35L5 35L5 34ZM20 34L20 35L21 35L21 34ZM38 34L38 35L39 35L39 34ZM42 35L42 37L43 37L43 35ZM45 35L45 37L46 37L46 35ZM47 35L47 36L48 36L48 35ZM22 36L22 37L23 37L23 36ZM31 36L31 37L32 37L32 36ZM53 36L53 37L52 37L52 38L53 38L53 37L54 37L54 38L55 38L55 37L56 37L56 36L55 36L55 37L54 37L54 36ZM38 37L38 38L39 38L39 37ZM16 38L16 39L17 39L17 40L16 40L16 41L17 41L17 40L18 40L18 39L17 39L17 38ZM20 38L20 39L21 39L21 38ZM24 38L24 39L26 39L26 38ZM28 38L28 39L29 39L29 38ZM37 39L37 41L38 41L38 39ZM42 41L42 42L43 42L43 43L41 43L41 45L42 45L42 44L43 44L43 43L44 43L44 42L45 42L45 41L44 41L44 42L43 42L43 41ZM0 43L0 44L1 44L1 43ZM18 43L18 44L19 44L19 43ZM48 43L48 44L49 44L49 43ZM13 44L13 45L14 45L14 44ZM52 44L52 45L53 45L53 46L54 46L54 47L55 47L55 46L54 46L54 45L53 45L53 44ZM2 45L2 46L1 46L1 47L2 47L2 46L3 46L3 47L5 47L5 46L4 46L4 45ZM18 45L18 48L17 48L17 49L16 49L16 51L15 51L15 52L16 52L16 51L18 51L18 50L19 50L19 51L20 51L20 50L21 50L21 51L22 51L22 52L21 52L21 53L22 53L22 52L24 52L24 51L22 51L22 48L20 48L20 47L19 47L19 45ZM28 46L28 47L29 47L29 46ZM30 46L30 47L31 47L31 48L32 48L32 46ZM13 47L13 48L14 48L14 47ZM51 47L51 48L52 48L52 47ZM18 48L18 49L17 49L17 50L18 50L18 49L19 49L19 48ZM46 48L46 51L47 51L47 52L48 52L48 51L47 51L47 48ZM27 49L27 52L30 52L30 49ZM43 49L43 50L44 50L44 49ZM49 49L49 52L52 52L52 49ZM28 50L28 51L29 51L29 50ZM50 50L50 51L51 51L51 50ZM10 52L10 53L12 53L12 52ZM17 52L17 53L18 53L18 52ZM39 52L39 53L40 53L40 52ZM45 52L45 53L46 53L46 54L47 54L47 55L48 55L48 54L49 54L49 53L48 53L48 54L47 54L47 53L46 53L46 52ZM16 54L16 55L17 55L17 54ZM53 54L53 55L54 55L54 54ZM9 55L9 56L10 56L10 55ZM18 56L18 57L19 57L19 56ZM20 56L20 57L21 57L21 56ZM36 56L36 57L37 57L37 56ZM56 56L56 57L57 57L57 56ZM0 0L0 7L7 7L7 0ZM1 1L1 6L6 6L6 1ZM2 2L2 5L5 5L5 2ZM50 0L50 7L57 7L57 0ZM51 1L51 6L56 6L56 1ZM52 2L52 5L55 5L55 2ZM0 50L0 57L7 57L7 50ZM1 51L1 56L6 56L6 51ZM2 52L2 55L5 55L5 52Z" fill="#000000"/></g></g></svg>
