<?xml version="1.0" encoding="UTF-8"?>
<svg xmlns="http://www.w3.org/2000/svg" version="1.1" width="300" height="300" viewBox="0 0 300 300"><rect x="0" y="0" width="300" height="300" fill="#fefefe"/><g transform="scale(4.615)"><g transform="translate(4,4)"><path fill-rule="evenodd" d="M8 0L8 1L9 1L9 0ZM11 0L11 1L10 1L10 3L9 3L9 2L8 2L8 5L10 5L10 7L11 7L11 9L12 9L12 7L13 7L13 8L14 8L14 7L15 7L15 6L16 6L16 7L17 7L17 9L18 9L18 8L20 8L20 7L21 7L21 5L22 5L22 4L21 4L21 5L20 5L20 4L19 4L19 2L20 2L20 3L21 3L21 1L22 1L22 3L23 3L23 6L22 6L22 8L21 8L21 11L20 11L20 9L19 9L19 12L18 12L18 10L16 10L16 11L17 11L17 12L16 12L16 13L17 13L17 12L18 12L18 13L19 13L19 14L16 14L16 15L15 15L15 11L14 11L14 10L11 10L11 11L12 11L12 12L11 12L11 14L10 14L10 13L9 13L9 10L10 10L10 8L8 8L8 10L6 10L6 9L7 9L7 8L6 8L6 9L5 9L5 10L4 10L4 8L0 8L0 9L3 9L3 10L4 10L4 12L6 12L6 13L7 13L7 14L6 14L6 15L11 15L11 14L13 14L13 13L14 13L14 15L12 15L12 16L10 16L10 17L9 17L9 16L8 16L8 17L9 17L9 18L8 18L8 20L9 20L9 21L10 21L10 22L11 22L11 23L10 23L10 24L11 24L11 28L10 28L10 29L9 29L9 27L10 27L10 25L9 25L9 24L8 24L8 26L5 26L5 24L4 24L4 22L5 22L5 23L7 23L7 22L6 22L6 21L7 21L7 20L6 20L6 19L7 19L7 18L6 18L6 17L7 17L7 16L6 16L6 17L4 17L4 18L6 18L6 19L5 19L5 20L4 20L4 21L3 21L3 23L2 23L2 24L4 24L4 25L2 25L2 27L1 27L1 26L0 26L0 27L1 27L1 29L0 29L0 30L1 30L1 29L2 29L2 33L3 33L3 34L1 34L1 35L2 35L2 37L3 37L3 36L5 36L5 37L4 37L4 39L3 39L3 40L2 40L2 39L1 39L1 36L0 36L0 39L1 39L1 40L0 40L0 42L1 42L1 43L0 43L0 45L1 45L1 43L2 43L2 44L3 44L3 43L4 43L4 41L5 41L5 44L4 44L4 45L2 45L2 47L1 47L1 46L0 46L0 48L5 48L5 47L7 47L7 48L6 48L6 49L7 49L7 48L8 48L8 50L11 50L11 51L12 51L12 53L13 53L13 54L14 54L14 55L13 55L13 56L14 56L14 55L15 55L15 56L16 56L16 57L18 57L18 55L17 55L17 54L16 54L16 53L14 53L14 52L13 52L13 50L12 50L12 49L11 49L11 48L9 48L9 47L11 47L11 44L10 44L10 46L9 46L9 45L7 45L7 44L8 44L8 42L6 42L6 41L7 41L7 40L6 40L6 41L5 41L5 38L6 38L6 39L7 39L7 38L8 38L8 37L9 37L9 40L8 40L8 41L9 41L9 42L10 42L10 41L12 41L12 43L13 43L13 44L14 44L14 45L12 45L12 46L15 46L15 45L16 45L16 44L17 44L17 43L13 43L13 41L12 41L12 40L14 40L14 41L15 41L15 42L17 42L17 40L16 40L16 39L18 39L18 38L15 38L15 37L14 37L14 38L13 38L13 39L12 39L12 37L11 37L11 36L13 36L13 34L12 34L12 33L13 33L13 32L14 32L14 33L15 33L15 32L14 32L14 31L13 31L13 30L12 30L12 32L10 32L10 31L9 31L9 30L10 30L10 29L13 29L13 28L12 28L12 27L14 27L14 26L15 26L15 27L16 27L16 28L15 28L15 29L14 29L14 30L15 30L15 31L16 31L16 32L17 32L17 34L18 34L18 35L19 35L19 34L20 34L20 32L21 32L21 34L22 34L22 33L23 33L23 35L24 35L24 34L25 34L25 35L26 35L26 34L25 34L25 32L24 32L24 31L27 31L27 33L28 33L28 32L29 32L29 31L30 31L30 33L29 33L29 35L28 35L28 34L27 34L27 36L26 36L26 37L27 37L27 36L29 36L29 38L26 38L26 41L25 41L25 39L24 39L24 37L25 37L25 36L23 36L23 38L22 38L22 37L21 37L21 38L20 38L20 37L19 37L19 36L17 36L17 37L19 37L19 40L20 40L20 41L21 41L21 42L20 42L20 43L21 43L21 42L22 42L22 44L21 44L21 46L22 46L22 47L20 47L20 48L23 48L23 49L22 49L22 50L21 50L21 49L19 49L19 46L20 46L20 44L19 44L19 45L17 45L17 47L14 47L14 48L13 48L13 47L12 47L12 48L13 48L13 49L14 49L14 51L17 51L17 52L18 52L18 51L17 51L17 50L16 50L16 48L17 48L17 49L19 49L19 50L21 50L21 51L19 51L19 53L18 53L18 54L19 54L19 55L20 55L20 56L19 56L19 57L23 57L23 56L22 56L22 55L23 55L23 54L25 54L25 53L24 53L24 52L23 52L23 54L21 54L21 55L20 55L20 53L22 53L22 51L23 51L23 49L24 49L24 48L23 48L23 47L24 47L24 46L25 46L25 45L26 45L26 46L27 46L27 47L28 47L28 48L25 48L25 49L26 49L26 55L27 55L27 56L28 56L28 55L27 55L27 53L29 53L29 54L31 54L31 55L30 55L30 56L31 56L31 57L32 57L32 55L33 55L33 54L36 54L36 55L34 55L34 56L33 56L33 57L36 57L36 55L38 55L38 57L41 57L41 54L42 54L42 57L43 57L43 55L44 55L44 54L45 54L45 55L46 55L46 56L47 56L47 57L51 57L51 54L52 54L52 53L53 53L53 56L52 56L52 57L55 57L55 56L54 56L54 55L55 55L55 54L56 54L56 53L57 53L57 51L56 51L56 49L57 49L57 48L56 48L56 49L55 49L55 48L54 48L54 47L57 47L57 45L56 45L56 46L53 46L53 47L52 47L52 46L49 46L49 47L48 47L48 45L47 45L47 46L46 46L46 47L45 47L45 46L43 46L43 45L42 45L42 43L43 43L43 44L49 44L49 45L52 45L52 43L53 43L53 42L54 42L54 43L56 43L56 44L57 44L57 43L56 43L56 42L57 42L57 40L56 40L56 41L55 41L55 42L54 42L54 40L55 40L55 38L56 38L56 39L57 39L57 38L56 38L56 37L55 37L55 36L57 36L57 31L56 31L56 30L57 30L57 29L56 29L56 30L55 30L55 28L57 28L57 27L53 27L53 26L52 26L52 25L51 25L51 24L53 24L53 25L54 25L54 24L53 24L53 23L57 23L57 19L56 19L56 17L57 17L57 15L51 15L51 13L52 13L52 14L53 14L53 13L54 13L54 10L53 10L53 9L55 9L55 8L52 8L52 9L51 9L51 10L50 10L50 8L48 8L48 9L47 9L47 8L46 8L46 7L47 7L47 5L48 5L48 0L46 0L46 1L44 1L44 2L42 2L42 3L41 3L41 4L37 4L37 3L38 3L38 2L37 2L37 1L38 1L38 0L37 0L37 1L36 1L36 0L35 0L35 1L34 1L34 2L35 2L35 3L33 3L33 2L31 2L31 1L33 1L33 0L29 0L29 1L30 1L30 2L29 2L29 3L30 3L30 4L26 4L26 1L25 1L25 0L23 0L23 1L22 1L22 0L21 0L21 1L20 1L20 0L19 0L19 1L17 1L17 2L18 2L18 3L17 3L17 5L15 5L15 4L14 4L14 3L13 3L13 4L14 4L14 5L12 5L12 4L10 4L10 3L12 3L12 0ZM14 0L14 1L15 1L15 0ZM39 0L39 1L40 1L40 2L41 2L41 1L43 1L43 0L41 0L41 1L40 1L40 0ZM23 1L23 3L24 3L24 2L25 2L25 1ZM27 1L27 3L28 3L28 1ZM35 1L35 2L36 2L36 1ZM46 1L46 2L45 2L45 3L44 3L44 4L45 4L45 5L43 5L43 4L41 4L41 5L42 5L42 6L41 6L41 7L40 7L40 5L38 5L38 6L37 6L37 5L36 5L36 4L34 4L34 5L33 5L33 3L32 3L32 4L31 4L31 5L32 5L32 6L31 6L31 9L32 9L32 10L31 10L31 12L30 12L30 11L29 11L29 9L27 9L27 10L26 10L26 11L25 11L25 10L23 10L23 11L21 11L21 12L20 12L20 13L21 13L21 17L20 17L20 16L17 16L17 15L16 15L16 16L15 16L15 15L14 15L14 16L15 16L15 17L14 17L14 18L13 18L13 17L10 17L10 19L9 19L9 20L10 20L10 21L11 21L11 20L13 20L13 19L15 19L15 20L14 20L14 23L13 23L13 22L12 22L12 23L13 23L13 24L14 24L14 23L16 23L16 24L15 24L15 25L16 25L16 26L19 26L19 25L20 25L20 24L21 24L21 23L20 23L20 24L19 24L19 23L18 23L18 22L21 22L21 20L22 20L22 19L23 19L23 21L22 21L22 25L23 25L23 26L24 26L24 27L22 27L22 26L21 26L21 28L20 28L20 27L17 27L17 31L18 31L18 34L19 34L19 32L20 32L20 30L21 30L21 32L22 32L22 31L23 31L23 30L21 30L21 29L23 29L23 28L25 28L25 29L24 29L24 30L26 30L26 28L25 28L25 25L27 25L27 24L26 24L26 23L27 23L27 22L28 22L28 26L29 26L29 23L30 23L30 26L31 26L31 23L32 23L32 22L33 22L33 24L32 24L32 25L33 25L33 24L35 24L35 23L36 23L36 24L37 24L37 22L35 22L35 21L33 21L33 19L35 19L35 20L36 20L36 21L38 21L38 22L39 22L39 21L38 21L38 20L40 20L40 19L39 19L39 18L41 18L41 20L43 20L43 21L44 21L44 22L45 22L45 23L44 23L44 25L41 25L41 24L43 24L43 22L41 22L41 23L39 23L39 24L38 24L38 25L39 25L39 26L38 26L38 27L40 27L40 29L38 29L38 30L36 30L36 29L37 29L37 27L36 27L36 28L34 28L34 29L35 29L35 30L36 30L36 31L37 31L37 32L36 32L36 33L37 33L37 32L38 32L38 34L39 34L39 31L38 31L38 30L40 30L40 32L41 32L41 31L44 31L44 34L45 34L45 36L44 36L44 37L42 37L42 38L44 38L44 39L40 39L40 41L37 41L37 40L38 40L38 39L37 39L37 37L39 37L39 36L40 36L40 37L41 37L41 36L43 36L43 35L42 35L42 34L41 34L41 35L37 35L37 37L34 37L34 38L33 38L33 36L32 36L32 35L33 35L33 34L34 34L34 36L36 36L36 35L35 35L35 33L34 33L34 32L35 32L35 31L34 31L34 32L31 32L31 34L30 34L30 35L29 35L29 36L32 36L32 38L30 38L30 39L28 39L28 41L29 41L29 40L30 40L30 41L31 41L31 40L33 40L33 39L34 39L34 38L36 38L36 39L35 39L35 40L34 40L34 41L36 41L36 42L34 42L34 43L36 43L36 45L38 45L38 47L37 47L37 46L36 46L36 47L35 47L35 48L37 48L37 49L36 49L36 50L37 50L37 49L38 49L38 48L39 48L39 49L40 49L40 50L39 50L39 52L38 52L38 51L36 51L36 52L35 52L35 49L34 49L34 48L32 48L32 49L31 49L31 53L32 53L32 51L33 51L33 52L35 52L35 53L36 53L36 54L37 54L37 52L38 52L38 54L39 54L39 52L40 52L40 54L41 54L41 52L40 52L40 51L46 51L46 50L47 50L47 52L48 52L48 48L47 48L47 47L46 47L46 48L45 48L45 47L44 47L44 49L43 49L43 47L39 47L39 46L41 46L41 45L40 45L40 44L39 44L39 43L38 43L38 44L37 44L37 42L41 42L41 43L42 43L42 42L43 42L43 40L44 40L44 39L45 39L45 36L46 36L46 38L47 38L47 37L49 37L49 38L48 38L48 39L47 39L47 40L46 40L46 41L47 41L47 42L48 42L48 43L49 43L49 44L51 44L51 42L50 42L50 41L52 41L52 40L53 40L53 39L54 39L54 38L55 38L55 37L54 37L54 38L53 38L53 36L52 36L52 35L51 35L51 36L47 36L47 34L48 34L48 35L49 35L49 34L50 34L50 33L49 33L49 32L52 32L52 34L54 34L54 33L53 33L53 32L55 32L55 30L54 30L54 28L53 28L53 32L52 32L52 31L49 31L49 32L48 32L48 29L47 29L47 31L46 31L46 32L47 32L47 33L45 33L45 31L44 31L44 30L43 30L43 29L42 29L42 30L41 30L41 26L44 26L44 25L45 25L45 24L47 24L47 25L46 25L46 26L47 26L47 27L48 27L48 26L49 26L49 25L48 25L48 24L47 24L47 23L49 23L49 24L51 24L51 23L52 23L52 22L51 22L51 21L50 21L50 20L53 20L53 21L54 21L54 22L56 22L56 21L54 21L54 20L55 20L55 19L52 19L52 18L51 18L51 16L50 16L50 15L49 15L49 11L48 11L48 10L47 10L47 9L45 9L45 7L46 7L46 6L45 6L45 5L47 5L47 3L46 3L46 2L47 2L47 1ZM15 2L15 3L16 3L16 2ZM30 2L30 3L31 3L31 2ZM24 4L24 6L23 6L23 7L24 7L24 8L23 8L23 9L24 9L24 8L25 8L25 9L26 9L26 6L25 6L25 5L26 5L26 4ZM11 5L11 7L12 7L12 5ZM17 5L17 7L18 7L18 5ZM27 5L27 8L30 8L30 5ZM8 6L8 7L9 7L9 6ZM13 6L13 7L14 7L14 6ZM19 6L19 7L20 7L20 6ZM24 6L24 7L25 7L25 6ZM28 6L28 7L29 7L29 6ZM32 6L32 8L33 8L33 6ZM34 6L34 9L36 9L36 8L37 8L37 10L38 10L38 9L39 9L39 11L38 11L38 12L36 12L36 10L35 10L35 11L34 11L34 10L33 10L33 13L32 13L32 12L31 12L31 14L30 14L30 13L28 13L28 12L26 12L26 13L25 13L25 11L23 11L23 12L22 12L22 13L25 13L25 14L27 14L27 17L29 17L29 18L28 18L28 19L26 19L26 17L25 17L25 16L26 16L26 15L24 15L24 14L23 14L23 18L24 18L24 19L25 19L25 22L24 22L24 21L23 21L23 24L24 24L24 25L25 25L25 22L27 22L27 21L28 21L28 22L31 22L31 21L29 21L29 20L30 20L30 17L29 17L29 16L31 16L31 18L35 18L35 17L34 17L34 16L35 16L35 15L33 15L33 14L34 14L34 12L35 12L35 14L36 14L36 15L39 15L39 17L40 17L40 16L41 16L41 14L40 14L40 11L42 11L42 12L43 12L43 13L44 13L44 12L43 12L43 11L44 11L44 10L45 10L45 11L47 11L47 12L48 12L48 11L47 11L47 10L45 10L45 9L44 9L44 10L43 10L43 6L42 6L42 7L41 7L41 8L40 8L40 7L39 7L39 6L38 6L38 7L39 7L39 8L37 8L37 6L36 6L36 7L35 7L35 6ZM44 6L44 7L45 7L45 6ZM48 6L48 7L49 7L49 6ZM41 8L41 9L40 9L40 10L41 10L41 9L42 9L42 8ZM56 8L56 9L57 9L57 8ZM5 10L5 11L6 11L6 12L7 12L7 13L8 13L8 14L9 14L9 13L8 13L8 11L6 11L6 10ZM42 10L42 11L43 11L43 10ZM51 10L51 12L50 12L50 13L51 13L51 12L52 12L52 13L53 13L53 11L52 11L52 10ZM55 10L55 12L56 12L56 13L57 13L57 12L56 12L56 11L57 11L57 10ZM0 11L0 12L1 12L1 13L0 13L0 14L2 14L2 13L3 13L3 15L0 15L0 16L4 16L4 15L5 15L5 13L3 13L3 12L2 12L2 11ZM12 12L12 13L13 13L13 12ZM45 13L45 14L42 14L42 17L41 17L41 18L42 18L42 19L43 19L43 18L42 18L42 17L45 17L45 18L44 18L44 19L45 19L45 18L48 18L48 14L47 14L47 17L45 17L45 16L44 16L44 15L45 15L45 14L46 14L46 13ZM28 15L28 16L29 16L29 15ZM31 15L31 16L32 16L32 15ZM52 16L52 17L53 17L53 18L54 18L54 17L55 17L55 16ZM0 17L0 18L1 18L1 17ZM2 17L2 18L3 18L3 17ZM15 17L15 19L16 19L16 23L17 23L17 25L19 25L19 24L18 24L18 23L17 23L17 21L18 21L18 20L19 20L19 19L16 19L16 18L19 18L19 17ZM21 17L21 19L22 19L22 17ZM24 17L24 18L25 18L25 17ZM36 17L36 18L37 18L37 17ZM12 18L12 19L13 19L13 18ZM1 19L1 20L2 20L2 19ZM28 19L28 20L29 20L29 19ZM31 19L31 20L32 20L32 19ZM36 19L36 20L38 20L38 19ZM47 19L47 22L46 22L46 23L47 23L47 22L49 22L49 21L48 21L48 20L50 20L50 19ZM26 20L26 21L27 21L27 20ZM0 22L0 24L1 24L1 22ZM6 24L6 25L7 25L7 24ZM55 24L55 26L56 26L56 24ZM12 25L12 26L14 26L14 25ZM34 25L34 27L35 27L35 25ZM40 25L40 26L41 26L41 25ZM2 27L2 28L4 28L4 27ZM5 27L5 30L8 30L8 27ZM27 27L27 30L30 30L30 27ZM32 27L32 28L33 28L33 27ZM42 27L42 28L44 28L44 27ZM45 27L45 30L46 30L46 27ZM49 27L49 30L52 30L52 27ZM6 28L6 29L7 29L7 28ZM18 28L18 29L19 29L19 28ZM28 28L28 29L29 29L29 28ZM50 28L50 29L51 29L51 28ZM15 29L15 30L16 30L16 29ZM31 29L31 30L32 30L32 31L33 31L33 29ZM6 31L6 32L4 32L4 33L5 33L5 34L7 34L7 33L6 33L6 32L7 32L7 31ZM8 31L8 32L9 32L9 33L10 33L10 32L9 32L9 31ZM0 32L0 33L1 33L1 32ZM23 32L23 33L24 33L24 32ZM42 32L42 33L43 33L43 32ZM32 33L32 34L33 34L33 33ZM8 34L8 36L7 36L7 35L6 35L6 36L7 36L7 37L6 37L6 38L7 38L7 37L8 37L8 36L11 36L11 35L12 35L12 34L10 34L10 35L9 35L9 34ZM14 34L14 35L15 35L15 34ZM55 34L55 35L54 35L54 36L55 36L55 35L56 35L56 34ZM20 35L20 36L22 36L22 35ZM51 36L51 38L52 38L52 36ZM10 37L10 38L11 38L11 37ZM14 38L14 39L15 39L15 38ZM21 38L21 39L22 39L22 41L23 41L23 40L24 40L24 39L22 39L22 38ZM32 38L32 39L33 39L33 38ZM50 39L50 40L47 40L47 41L50 41L50 40L52 40L52 39ZM1 40L1 42L2 42L2 40ZM15 40L15 41L16 41L16 40ZM18 41L18 43L19 43L19 41ZM24 41L24 42L23 42L23 44L22 44L22 46L24 46L24 45L23 45L23 44L24 44L24 43L26 43L26 45L27 45L27 46L29 46L29 48L31 48L31 46L30 46L30 45L31 45L31 43L29 43L29 42L25 42L25 41ZM41 41L41 42L42 42L42 41ZM44 41L44 42L45 42L45 41ZM32 42L32 46L33 46L33 47L34 47L34 46L35 46L35 44L34 44L34 45L33 45L33 42ZM49 42L49 43L50 43L50 42ZM6 43L6 44L7 44L7 43ZM27 43L27 44L29 44L29 45L30 45L30 44L29 44L29 43ZM38 44L38 45L39 45L39 44ZM53 44L53 45L55 45L55 44ZM5 45L5 46L3 46L3 47L5 47L5 46L7 46L7 45ZM8 46L8 47L9 47L9 46ZM17 47L17 48L18 48L18 47ZM49 47L49 48L51 48L51 47ZM14 48L14 49L15 49L15 48ZM41 48L41 49L42 49L42 48ZM27 49L27 52L30 52L30 49ZM32 49L32 50L33 50L33 51L34 51L34 49ZM45 49L45 50L46 50L46 49ZM49 49L49 52L52 52L52 49ZM53 49L53 50L55 50L55 49ZM24 50L24 51L25 51L25 50ZM28 50L28 51L29 51L29 50ZM50 50L50 51L51 51L51 50ZM55 51L55 52L54 52L54 54L55 54L55 53L56 53L56 51ZM9 52L9 53L8 53L8 57L10 57L10 56L11 56L11 55L10 55L10 56L9 56L9 54L11 54L11 53L10 53L10 52ZM42 52L42 54L43 54L43 52ZM45 52L45 53L46 53L46 52ZM47 53L47 54L46 54L46 55L47 55L47 54L50 54L50 53ZM24 55L24 56L25 56L25 55ZM39 55L39 56L40 56L40 55ZM48 55L48 56L49 56L49 55ZM56 55L56 56L57 56L57 55ZM0 0L0 7L7 7L7 0ZM1 1L1 6L6 6L6 1ZM2 2L2 5L5 5L5 2ZM50 0L50 7L57 7L57 0ZM51 1L51 6L56 6L56 1ZM52 2L52 5L55 5L55 2ZM0 50L0 57L7 57L7 50ZM1 51L1 56L6 56L6 51ZM2 52L2 55L5 55L5 52Z" fill="#000000"/></g></g></svg>
