<?xml version="1.0" encoding="UTF-8"?>
<svg xmlns="http://www.w3.org/2000/svg" version="1.1" width="300" height="300" viewBox="0 0 300 300"><rect x="0" y="0" width="300" height="300" fill="#fefefe"/><g transform="scale(4.615)"><g transform="translate(4,4)"><path fill-rule="evenodd" d="M9 0L9 1L8 1L8 2L9 2L9 3L8 3L8 4L10 4L10 5L8 5L8 7L9 7L9 8L6 8L6 9L5 9L5 8L0 8L0 11L1 11L1 9L2 9L2 10L3 10L3 9L4 9L4 11L2 11L2 12L0 12L0 14L1 14L1 13L2 13L2 15L0 15L0 16L1 16L1 18L0 18L0 19L2 19L2 18L3 18L3 20L2 20L2 21L1 21L1 20L0 20L0 24L2 24L2 25L3 25L3 26L0 26L0 27L2 27L2 28L1 28L1 29L0 29L0 31L1 31L1 30L4 30L4 31L2 31L2 33L5 33L5 34L4 34L4 36L3 36L3 34L2 34L2 35L1 35L1 34L0 34L0 35L1 35L1 37L2 37L2 36L3 36L3 37L4 37L4 36L5 36L5 38L2 38L2 39L5 39L5 40L6 40L6 41L5 41L5 42L6 42L6 43L7 43L7 44L6 44L6 45L7 45L7 44L9 44L9 43L10 43L10 42L11 42L11 43L12 43L12 42L13 42L13 44L10 44L10 45L8 45L8 46L5 46L5 47L3 47L3 46L4 46L4 45L5 45L5 43L4 43L4 44L3 44L3 42L4 42L4 41L3 41L3 42L2 42L2 43L1 43L1 42L0 42L0 48L5 48L5 47L8 47L8 51L9 51L9 52L8 52L8 57L11 57L11 56L9 56L9 53L10 53L10 52L11 52L11 53L12 53L12 54L10 54L10 55L12 55L12 54L13 54L13 53L12 53L12 52L13 52L13 51L14 51L14 50L13 50L13 49L14 49L14 48L15 48L15 49L16 49L16 48L15 48L15 47L16 47L16 46L15 46L15 44L14 44L14 40L15 40L15 41L17 41L17 42L18 42L18 43L16 43L16 45L17 45L17 46L20 46L20 44L22 44L22 45L21 45L21 47L23 47L23 46L24 46L24 47L25 47L25 49L24 49L24 48L23 48L23 49L21 49L21 50L20 50L20 47L19 47L19 48L17 48L17 50L15 50L15 51L17 51L17 53L16 53L16 52L14 52L14 53L16 53L16 54L15 54L15 55L14 55L14 56L15 56L15 57L16 57L16 56L17 56L17 57L21 57L21 56L23 56L23 57L26 57L26 56L27 56L27 57L29 57L29 56L30 56L30 57L31 57L31 56L35 56L35 57L39 57L39 56L42 56L42 55L44 55L44 54L45 54L45 53L44 53L44 52L45 52L45 51L46 51L46 52L47 52L47 50L48 50L48 53L47 53L47 56L46 56L46 55L45 55L45 57L49 57L49 56L50 56L50 57L52 57L52 55L51 55L51 53L52 53L52 54L53 54L53 52L54 52L54 53L55 53L55 51L54 51L54 50L57 50L57 48L56 48L56 46L57 46L57 45L56 45L56 44L55 44L55 43L56 43L56 41L55 41L55 39L57 39L57 37L55 37L55 36L57 36L57 35L56 35L56 34L57 34L57 32L56 32L56 30L57 30L57 29L56 29L56 28L57 28L57 27L56 27L56 26L57 26L57 25L56 25L56 22L57 22L57 21L56 21L56 20L57 20L57 19L56 19L56 18L57 18L57 17L56 17L56 16L57 16L57 15L56 15L56 14L57 14L57 11L56 11L56 10L54 10L54 11L50 11L50 12L49 12L49 10L50 10L50 8L49 8L49 6L48 6L48 7L47 7L47 5L48 5L48 0L46 0L46 1L47 1L47 2L44 2L44 3L43 3L43 4L40 4L40 5L39 5L39 6L38 6L38 4L37 4L37 3L36 3L36 0L35 0L35 1L33 1L33 0L28 0L28 1L31 1L31 2L27 2L27 1L26 1L26 0L23 0L23 2L22 2L22 0L21 0L21 2L22 2L22 3L23 3L23 4L19 4L19 3L20 3L20 2L19 2L19 1L20 1L20 0L17 0L17 1L15 1L15 0L14 0L14 2L13 2L13 4L14 4L14 2L15 2L15 3L16 3L16 2L17 2L17 4L19 4L19 5L20 5L20 7L19 7L19 6L18 6L18 5L17 5L17 6L16 6L16 7L15 7L15 6L14 6L14 5L13 5L13 6L12 6L12 5L11 5L11 4L12 4L12 3L11 3L11 2L12 2L12 0L11 0L11 2L10 2L10 0ZM37 0L37 1L38 1L38 3L41 3L41 2L43 2L43 0L41 0L41 1L40 1L40 0L39 0L39 1L38 1L38 0ZM17 1L17 2L18 2L18 1ZM32 1L32 2L31 2L31 3L30 3L30 4L31 4L31 8L32 8L32 10L31 10L31 11L29 11L29 12L28 12L28 13L27 13L27 14L26 14L26 12L27 12L27 11L28 11L28 10L27 10L27 11L26 11L26 12L25 12L25 11L24 11L24 13L22 13L22 12L21 12L21 11L22 11L22 10L23 10L23 9L24 9L24 6L23 6L23 5L24 5L24 4L23 4L23 5L21 5L21 7L22 7L22 8L19 8L19 7L18 7L18 6L17 6L17 7L16 7L16 8L14 8L14 9L12 9L12 10L11 10L11 13L12 13L12 12L14 12L14 11L12 11L12 10L15 10L15 11L18 11L18 10L19 10L19 9L20 9L20 11L19 11L19 13L20 13L20 16L19 16L19 15L17 15L17 13L18 13L18 12L17 12L17 13L16 13L16 12L15 12L15 13L13 13L13 14L15 14L15 13L16 13L16 17L15 17L15 16L14 16L14 17L13 17L13 18L12 18L12 17L11 17L11 15L10 15L10 13L9 13L9 12L10 12L10 10L9 10L9 11L6 11L6 10L8 10L8 9L6 9L6 10L5 10L5 11L4 11L4 12L5 12L5 13L3 13L3 15L2 15L2 17L3 17L3 18L4 18L4 19L5 19L5 20L3 20L3 21L2 21L2 24L3 24L3 25L4 25L4 24L5 24L5 26L8 26L8 25L6 25L6 24L7 24L7 23L6 23L6 22L7 22L7 21L6 21L6 22L5 22L5 23L4 23L4 24L3 24L3 21L5 21L5 20L7 20L7 19L5 19L5 18L8 18L8 17L6 17L6 16L7 16L7 15L8 15L8 14L9 14L9 15L10 15L10 16L9 16L9 17L10 17L10 19L8 19L8 21L10 21L10 22L11 22L11 26L10 26L10 25L9 25L9 26L10 26L10 27L11 27L11 30L12 30L12 31L10 31L10 28L9 28L9 31L6 31L6 32L7 32L7 33L6 33L6 34L7 34L7 35L6 35L6 36L7 36L7 37L6 37L6 38L7 38L7 39L6 39L6 40L8 40L8 42L7 42L7 41L6 41L6 42L7 42L7 43L9 43L9 42L10 42L10 40L11 40L11 41L12 41L12 40L11 40L11 39L12 39L12 38L13 38L13 37L12 37L12 36L15 36L15 37L14 37L14 39L16 39L16 40L17 40L17 37L18 37L18 38L19 38L19 39L20 39L20 38L19 38L19 37L21 37L21 38L24 38L24 37L23 37L23 36L24 36L24 34L23 34L23 33L25 33L25 34L27 34L27 35L26 35L26 36L27 36L27 37L25 37L25 40L24 40L24 39L21 39L21 40L19 40L19 41L18 41L18 42L19 42L19 44L20 44L20 42L21 42L21 43L22 43L22 42L23 42L23 40L24 40L24 41L25 41L25 43L23 43L23 44L24 44L24 45L25 45L25 47L26 47L26 48L27 48L27 47L26 47L26 45L28 45L28 46L30 46L30 45L28 45L28 44L25 44L25 43L29 43L29 41L30 41L30 40L32 40L32 41L31 41L31 42L32 42L32 43L31 43L31 44L32 44L32 45L31 45L31 47L32 47L32 49L31 49L31 50L32 50L32 51L31 51L31 53L30 53L30 54L26 54L26 53L24 53L24 52L26 52L26 50L21 50L21 52L20 52L20 53L17 53L17 55L19 55L19 56L21 56L21 55L22 55L22 54L23 54L23 55L24 55L24 56L25 56L25 54L26 54L26 55L27 55L27 56L29 56L29 55L30 55L30 56L31 56L31 54L32 54L32 53L33 53L33 55L35 55L35 56L36 56L36 54L35 54L35 52L34 52L34 51L35 51L35 50L36 50L36 52L37 52L37 51L38 51L38 53L37 53L37 54L40 54L40 53L41 53L41 52L42 52L42 53L43 53L43 54L44 54L44 53L43 53L43 51L42 51L42 50L41 50L41 48L42 48L42 49L43 49L43 50L47 50L47 49L48 49L48 48L51 48L51 46L53 46L53 47L54 47L54 46L56 46L56 45L55 45L55 44L54 44L54 45L53 45L53 43L54 43L54 42L53 42L53 41L51 41L51 42L50 42L50 43L48 43L48 44L47 44L47 45L45 45L45 44L46 44L46 42L48 42L48 41L49 41L49 39L47 39L47 37L48 37L48 36L49 36L49 37L50 37L50 39L55 39L55 38L54 38L54 37L53 37L53 35L55 35L55 34L56 34L56 32L55 32L55 34L54 34L54 33L52 33L52 32L53 32L53 31L55 31L55 30L54 30L54 29L55 29L55 28L56 28L56 27L55 27L55 28L54 28L54 29L53 29L53 31L52 31L52 32L51 32L51 33L52 33L52 34L50 34L50 31L48 31L48 28L47 28L47 29L46 29L46 30L47 30L47 31L48 31L48 32L47 32L47 33L45 33L45 32L43 32L43 31L44 31L44 30L45 30L45 28L46 28L46 27L47 27L47 25L45 25L45 23L46 23L46 22L47 22L47 20L49 20L49 19L51 19L51 18L55 18L55 17L53 17L53 15L55 15L55 14L56 14L56 11L55 11L55 12L54 12L54 13L53 13L53 12L52 12L52 13L53 13L53 15L50 15L50 14L51 14L51 12L50 12L50 14L49 14L49 15L48 15L48 16L47 16L47 15L45 15L45 14L47 14L47 13L49 13L49 12L45 12L45 11L46 11L46 10L47 10L47 9L48 9L48 8L47 8L47 9L46 9L46 8L45 8L45 7L46 7L46 5L47 5L47 3L44 3L44 6L43 6L43 7L44 7L44 10L43 10L43 11L42 11L42 10L41 10L41 9L42 9L42 8L41 8L41 7L42 7L42 5L40 5L40 6L39 6L39 7L40 7L40 8L38 8L38 11L40 11L40 10L41 10L41 12L39 12L39 13L38 13L38 14L37 14L37 15L35 15L35 16L33 16L33 15L32 15L32 17L31 17L31 18L30 18L30 19L34 19L34 20L35 20L35 19L36 19L36 20L37 20L37 21L38 21L38 22L37 22L37 24L39 24L39 25L38 25L38 26L37 26L37 25L33 25L33 24L32 24L32 23L35 23L35 21L33 21L33 20L32 20L32 21L31 21L31 22L30 22L30 20L27 20L27 19L28 19L28 18L27 18L27 17L28 17L28 16L29 16L29 14L30 14L30 15L31 15L31 14L30 14L30 13L31 13L31 11L32 11L32 14L36 14L36 13L35 13L35 12L37 12L37 11L36 11L36 10L37 10L37 9L35 9L35 8L37 8L37 7L38 7L38 6L37 6L37 7L36 7L36 5L37 5L37 4L36 4L36 5L35 5L35 4L34 4L34 3L35 3L35 2L34 2L34 3L32 3L32 2L33 2L33 1ZM23 2L23 3L26 3L26 4L25 4L25 8L26 8L26 4L29 4L29 3L27 3L27 2ZM10 3L10 4L11 4L11 3ZM31 3L31 4L32 4L32 5L34 5L34 7L33 7L33 6L32 6L32 7L33 7L33 9L34 9L34 8L35 8L35 5L34 5L34 4L32 4L32 3ZM15 4L15 5L16 5L16 4ZM45 4L45 5L46 5L46 4ZM10 5L10 6L9 6L9 7L10 7L10 6L11 6L11 8L9 8L9 9L11 9L11 8L12 8L12 6L11 6L11 5ZM27 5L27 8L30 8L30 5ZM13 6L13 7L14 7L14 6ZM22 6L22 7L23 7L23 6ZM28 6L28 7L29 7L29 6ZM40 6L40 7L41 7L41 6ZM44 6L44 7L45 7L45 6ZM16 8L16 9L17 9L17 10L18 10L18 9L19 9L19 8L18 8L18 9L17 9L17 8ZM51 8L51 9L52 9L52 8ZM53 8L53 9L54 9L54 8ZM55 8L55 9L56 9L56 8ZM21 9L21 10L22 10L22 9ZM32 10L32 11L33 11L33 10ZM44 10L44 11L43 11L43 13L39 13L39 14L38 14L38 15L39 15L39 16L38 16L38 17L37 17L37 16L35 16L35 17L37 17L37 18L38 18L38 17L39 17L39 19L38 19L38 21L39 21L39 22L40 22L40 23L39 23L39 24L41 24L41 22L43 22L43 25L39 25L39 26L40 26L40 27L36 27L36 26L34 26L34 27L33 27L33 26L32 26L32 24L31 24L31 23L30 23L30 22L29 22L29 21L25 21L25 20L26 20L26 19L27 19L27 18L26 18L26 15L25 15L25 17L22 17L22 16L20 16L20 17L19 17L19 16L17 16L17 19L16 19L16 18L15 18L15 19L16 19L16 20L15 20L15 21L16 21L16 22L15 22L15 23L14 23L14 21L13 21L13 20L14 20L14 19L12 19L12 21L13 21L13 23L12 23L12 24L13 24L13 25L14 25L14 24L15 24L15 25L16 25L16 24L17 24L17 27L16 27L16 29L15 29L15 30L14 30L14 29L13 29L13 28L15 28L15 27L13 27L13 26L12 26L12 29L13 29L13 30L14 30L14 31L13 31L13 32L12 32L12 33L11 33L11 32L10 32L10 31L9 31L9 33L10 33L10 34L9 34L9 35L7 35L7 36L8 36L8 38L9 38L9 39L8 39L8 40L9 40L9 39L11 39L11 38L10 38L10 37L9 37L9 36L12 36L12 35L10 35L10 34L12 34L12 33L13 33L13 35L15 35L15 36L18 36L18 37L19 37L19 36L20 36L20 35L21 35L21 36L22 36L22 35L21 35L21 34L22 34L22 33L21 33L21 34L20 34L20 32L25 32L25 33L27 33L27 32L28 32L28 33L29 33L29 34L30 34L30 36L29 36L29 37L31 37L31 38L29 38L29 39L33 39L33 40L35 40L35 42L37 42L37 43L34 43L34 42L33 42L33 41L32 41L32 42L33 42L33 43L32 43L32 44L33 44L33 43L34 43L34 45L35 45L35 46L33 46L33 45L32 45L32 46L33 46L33 48L34 48L34 49L36 49L36 50L38 50L38 51L40 51L40 52L41 52L41 50L38 50L38 49L39 49L39 48L41 48L41 46L43 46L43 47L42 47L42 48L43 48L43 49L44 49L44 48L43 48L43 47L44 47L44 46L45 46L45 47L46 47L46 48L45 48L45 49L47 49L47 48L48 48L48 47L50 47L50 46L48 46L48 45L47 45L47 46L45 46L45 45L44 45L44 44L43 44L43 41L44 41L44 43L45 43L45 42L46 42L46 41L44 41L44 40L47 40L47 39L46 39L46 38L45 38L45 37L44 37L44 36L48 36L48 35L50 35L50 37L51 37L51 36L52 36L52 35L53 35L53 34L52 34L52 35L50 35L50 34L48 34L48 35L46 35L46 34L45 34L45 35L44 35L44 33L43 33L43 32L41 32L41 33L39 33L39 34L40 34L40 35L39 35L39 37L40 37L40 38L43 38L43 37L44 37L44 38L45 38L45 39L44 39L44 40L42 40L42 41L41 41L41 42L40 42L40 43L39 43L39 42L38 42L38 40L40 40L40 39L38 39L38 37L37 37L37 36L38 36L38 33L37 33L37 32L34 32L34 33L35 33L35 34L33 34L33 33L32 33L32 31L35 31L35 30L33 30L33 29L32 29L32 28L31 28L31 26L32 26L32 27L33 27L33 28L35 28L35 29L38 29L38 28L40 28L40 27L41 27L41 28L42 28L42 27L41 27L41 26L43 26L43 25L44 25L44 20L45 20L45 18L44 18L44 15L42 15L42 16L41 16L41 14L43 14L43 13L44 13L44 11L45 11L45 10ZM6 12L6 13L7 13L7 14L4 14L4 15L3 15L3 16L5 16L5 15L7 15L7 14L8 14L8 13L7 13L7 12ZM20 12L20 13L21 13L21 15L23 15L23 16L24 16L24 15L23 15L23 14L22 14L22 13L21 13L21 12ZM33 12L33 13L34 13L34 12ZM24 13L24 14L25 14L25 13ZM28 13L28 14L29 14L29 13ZM54 13L54 14L55 14L55 13ZM39 14L39 15L40 15L40 14ZM12 15L12 16L13 16L13 15ZM27 15L27 16L28 16L28 15ZM49 15L49 16L50 16L50 15ZM39 16L39 17L41 17L41 16ZM42 16L42 17L43 17L43 16ZM45 16L45 17L47 17L47 18L46 18L46 19L47 19L47 18L50 18L50 17L47 17L47 16ZM4 17L4 18L5 18L5 17ZM20 17L20 18L22 18L22 17ZM32 17L32 18L33 18L33 17ZM18 18L18 19L19 19L19 18ZM23 18L23 19L22 19L22 21L21 21L21 19L20 19L20 21L17 21L17 20L16 20L16 21L17 21L17 24L21 24L21 25L19 25L19 26L18 26L18 27L17 27L17 28L18 28L18 29L16 29L16 30L18 30L18 29L19 29L19 31L17 31L17 32L20 32L20 30L21 30L21 31L25 31L25 32L26 32L26 31L25 31L25 30L23 30L23 29L24 29L24 28L25 28L25 29L26 29L26 28L25 28L25 27L26 27L26 26L30 26L30 25L29 25L29 24L30 24L30 23L28 23L28 24L25 24L25 23L26 23L26 22L25 22L25 21L24 21L24 20L23 20L23 19L24 19L24 18ZM41 18L41 19L42 19L42 18ZM43 18L43 20L44 20L44 18ZM10 19L10 20L11 20L11 19ZM52 19L52 20L51 20L51 21L49 21L49 22L48 22L48 24L49 24L49 23L50 23L50 24L51 24L51 25L50 25L50 26L51 26L51 25L52 25L52 26L53 26L53 27L54 27L54 26L53 26L53 24L54 24L54 25L55 25L55 26L56 26L56 25L55 25L55 24L54 24L54 23L55 23L55 22L56 22L56 21L55 21L55 20L53 20L53 19ZM39 20L39 21L42 21L42 20ZM22 21L22 22L21 22L21 24L24 24L24 25L21 25L21 27L20 27L20 26L19 26L19 27L20 27L20 28L19 28L19 29L22 29L22 28L21 28L21 27L22 27L22 26L23 26L23 27L25 27L25 26L26 26L26 25L25 25L25 24L24 24L24 23L22 23L22 22L24 22L24 21ZM51 21L51 22L50 22L50 23L53 23L53 22L54 22L54 21ZM18 22L18 23L20 23L20 22ZM5 23L5 24L6 24L6 23ZM8 23L8 24L9 24L9 23ZM15 23L15 24L16 24L16 23ZM3 26L3 28L2 28L2 29L4 29L4 26ZM44 26L44 27L43 27L43 28L45 28L45 26ZM5 27L5 30L8 30L8 27ZM27 27L27 30L30 30L30 27ZM49 27L49 30L52 30L52 27ZM6 28L6 29L7 29L7 28ZM28 28L28 29L29 29L29 28ZM50 28L50 29L51 29L51 28ZM39 29L39 30L38 30L38 32L39 32L39 30L40 30L40 29ZM41 29L41 30L44 30L44 29ZM31 30L31 31L30 31L30 32L29 32L29 31L28 31L28 32L29 32L29 33L31 33L31 35L33 35L33 34L32 34L32 33L31 33L31 31L32 31L32 30ZM14 31L14 34L16 34L16 35L17 35L17 33L15 33L15 31ZM0 32L0 33L1 33L1 32ZM48 32L48 33L49 33L49 32ZM7 33L7 34L8 34L8 33ZM18 34L18 36L19 36L19 35L20 35L20 34ZM35 34L35 36L32 36L32 37L33 37L33 38L35 38L35 36L37 36L37 34ZM42 34L42 35L43 35L43 36L44 36L44 35L43 35L43 34ZM40 36L40 37L42 37L42 36ZM15 37L15 38L16 38L16 37ZM27 37L27 38L26 38L26 39L27 39L27 41L26 41L26 42L27 42L27 41L29 41L29 40L28 40L28 39L27 39L27 38L28 38L28 37ZM0 38L0 41L1 41L1 38ZM35 39L35 40L38 40L38 39ZM19 41L19 42L20 42L20 41ZM21 41L21 42L22 42L22 41ZM41 42L41 43L40 43L40 44L39 44L39 45L38 45L38 46L39 46L39 47L38 47L38 48L37 48L37 49L38 49L38 48L39 48L39 47L40 47L40 46L41 46L41 44L42 44L42 42ZM51 42L51 43L50 43L50 44L49 44L49 45L50 45L50 44L51 44L51 43L53 43L53 42ZM2 44L2 45L1 45L1 47L2 47L2 46L3 46L3 44ZM13 44L13 45L12 45L12 46L11 46L11 45L10 45L10 46L8 46L8 47L15 47L15 46L14 46L14 44ZM17 44L17 45L18 45L18 44ZM22 45L22 46L23 46L23 45ZM35 46L35 48L36 48L36 46ZM47 46L47 47L48 47L48 46ZM6 48L6 49L7 49L7 48ZM55 48L55 49L56 49L56 48ZM27 49L27 52L30 52L30 49ZM32 49L32 50L33 50L33 51L32 51L32 52L33 52L33 51L34 51L34 50L33 50L33 49ZM49 49L49 52L52 52L52 49ZM11 50L11 52L12 52L12 51L13 51L13 50ZM17 50L17 51L18 51L18 50ZM19 50L19 51L20 51L20 50ZM28 50L28 51L29 51L29 50ZM50 50L50 51L51 51L51 50ZM22 51L22 52L23 52L23 51ZM56 51L56 52L57 52L57 51ZM23 53L23 54L24 54L24 53ZM19 54L19 55L20 55L20 54ZM41 54L41 55L42 55L42 54ZM15 55L15 56L16 56L16 55ZM37 55L37 56L39 56L39 55ZM48 55L48 56L49 56L49 55ZM50 55L50 56L51 56L51 55ZM53 55L53 56L55 56L55 57L56 57L56 56L55 56L55 55ZM43 56L43 57L44 57L44 56ZM0 0L0 7L7 7L7 0ZM1 1L1 6L6 6L6 1ZM2 2L2 5L5 5L5 2ZM50 0L50 7L57 7L57 0ZM51 1L51 6L56 6L56 1ZM52 2L52 5L55 5L55 2ZM0 50L0 57L7 57L7 50ZM1 51L1 56L6 56L6 51ZM2 52L2 55L5 55L5 52Z" fill="#000000"/></g></g></svg>
