<?xml version="1.0" encoding="UTF-8"?>
<svg xmlns="http://www.w3.org/2000/svg" version="1.1" width="300" height="300" viewBox="0 0 300 300"><rect x="0" y="0" width="300" height="300" fill="#fefefe"/><g transform="scale(4.615)"><g transform="translate(4,4)"><path fill-rule="evenodd" d="M8 0L8 1L9 1L9 2L8 2L8 5L9 5L9 6L8 6L8 7L9 7L9 8L8 8L8 9L7 9L7 8L6 8L6 9L7 9L7 10L6 10L6 11L5 11L5 10L4 10L4 11L3 11L3 12L2 12L2 13L3 13L3 12L4 12L4 14L2 14L2 15L1 15L1 14L0 14L0 16L1 16L1 17L0 17L0 18L2 18L2 20L5 20L5 21L4 21L4 22L3 22L3 21L2 21L2 22L1 22L1 24L2 24L2 23L4 23L4 24L3 24L3 25L1 25L1 27L0 27L0 31L1 31L1 30L2 30L2 31L3 31L3 32L5 32L5 34L6 34L6 35L4 35L4 33L3 33L3 34L2 34L2 33L1 33L1 34L2 34L2 35L4 35L4 36L2 36L2 37L1 37L1 36L0 36L0 38L1 38L1 40L2 40L2 41L0 41L0 42L2 42L2 44L0 44L0 48L5 48L5 47L7 47L7 48L6 48L6 49L7 49L7 48L8 48L8 50L9 50L9 48L10 48L10 46L12 46L12 48L13 48L13 49L12 49L12 50L11 50L11 49L10 49L10 50L11 50L11 51L10 51L10 53L8 53L8 57L10 57L10 56L9 56L9 55L11 55L11 54L12 54L12 56L11 56L11 57L13 57L13 56L14 56L14 57L15 57L15 56L16 56L16 57L18 57L18 55L17 55L17 54L18 54L18 53L17 53L17 54L16 54L16 53L15 53L15 51L16 51L16 52L19 52L19 55L20 55L20 56L19 56L19 57L23 57L23 56L22 56L22 55L23 55L23 54L25 54L25 55L24 55L24 56L25 56L25 55L26 55L26 56L28 56L28 55L26 55L26 54L25 54L25 53L29 53L29 54L31 54L31 55L30 55L30 56L31 56L31 57L32 57L32 55L34 55L34 56L33 56L33 57L36 57L36 55L37 55L37 54L36 54L36 53L33 53L33 51L34 51L34 50L33 50L33 49L32 49L32 47L31 47L31 48L30 48L30 47L29 47L29 48L26 48L26 47L25 47L25 45L26 45L26 46L27 46L27 47L28 47L28 46L27 46L27 45L26 45L26 43L25 43L25 44L24 44L24 43L23 43L23 42L24 42L24 41L25 41L25 42L27 42L27 43L28 43L28 44L29 44L29 46L31 46L31 45L30 45L30 44L29 44L29 43L32 43L32 42L33 42L33 45L32 45L32 46L33 46L33 45L34 45L34 44L35 44L35 46L34 46L34 47L33 47L33 48L34 48L34 49L35 49L35 52L36 52L36 51L37 51L37 52L39 52L39 54L38 54L38 57L41 57L41 56L42 56L42 57L43 57L43 55L44 55L44 56L45 56L45 55L46 55L46 56L47 56L47 55L49 55L49 56L48 56L48 57L51 57L51 54L52 54L52 53L54 53L54 54L53 54L53 56L52 56L52 57L55 57L55 56L54 56L54 55L55 55L55 54L56 54L56 53L57 53L57 51L56 51L56 53L54 53L54 52L55 52L55 50L57 50L57 48L56 48L56 49L55 49L55 48L54 48L54 47L57 47L57 45L56 45L56 46L53 46L53 47L52 47L52 43L53 43L53 42L54 42L54 43L55 43L55 44L53 44L53 45L55 45L55 44L56 44L56 42L54 42L54 41L53 41L53 40L55 40L55 38L56 38L56 39L57 39L57 38L56 38L56 36L57 36L57 34L56 34L56 33L57 33L57 31L56 31L56 30L57 30L57 28L56 28L56 27L53 27L53 26L52 26L52 25L51 25L51 24L54 24L54 23L53 23L53 20L50 20L50 18L48 18L48 17L47 17L47 16L48 16L48 14L47 14L47 15L45 15L45 16L44 16L44 14L42 14L42 17L41 17L41 18L39 18L39 19L40 19L40 20L37 20L37 19L36 19L36 20L35 20L35 19L34 19L34 20L35 20L35 22L38 22L38 21L39 21L39 23L37 23L37 24L36 24L36 23L35 23L35 24L33 24L33 23L34 23L34 22L32 22L32 23L31 23L31 21L29 21L29 20L32 20L32 19L30 19L30 17L29 17L29 16L32 16L32 17L31 17L31 18L35 18L35 17L34 17L34 16L35 16L35 15L36 15L36 14L37 14L37 15L39 15L39 17L40 17L40 16L41 16L41 13L40 13L40 15L39 15L39 11L38 11L38 9L37 9L37 11L38 11L38 12L35 12L35 11L36 11L36 10L35 10L35 11L34 11L34 10L33 10L33 14L32 14L32 15L31 15L31 14L30 14L30 13L28 13L28 12L26 12L26 13L27 13L27 14L25 14L25 15L23 15L23 18L24 18L24 19L25 19L25 20L27 20L27 21L25 21L25 22L24 22L24 21L23 21L23 19L22 19L22 20L21 20L21 19L20 19L20 18L19 18L19 17L21 17L21 18L22 18L22 17L21 17L21 16L19 16L19 17L18 17L18 18L17 18L17 16L18 16L18 14L16 14L16 15L15 15L15 11L16 11L16 8L15 8L15 6L16 6L16 7L17 7L17 12L16 12L16 13L17 13L17 12L18 12L18 13L19 13L19 14L20 14L20 15L21 15L21 13L20 13L20 12L21 12L21 11L24 11L24 12L22 12L22 13L25 13L25 11L26 11L26 10L27 10L27 11L30 11L30 12L31 12L31 13L32 13L32 11L30 11L30 10L32 10L32 9L31 9L31 6L32 6L32 8L33 8L33 6L34 6L34 9L36 9L36 8L37 8L37 6L36 6L36 7L35 7L35 6L34 6L34 4L33 4L33 6L32 6L32 5L31 5L31 4L32 4L32 3L34 3L34 2L35 2L35 4L36 4L36 5L40 5L40 7L39 7L39 6L38 6L38 7L39 7L39 10L40 10L40 11L41 11L41 10L43 10L43 9L42 9L42 8L43 8L43 6L42 6L42 5L41 5L41 4L43 4L43 5L45 5L45 6L44 6L44 7L45 7L45 6L46 6L46 7L47 7L47 5L48 5L48 0L46 0L46 1L44 1L44 2L41 2L41 1L43 1L43 0L41 0L41 1L40 1L40 0L39 0L39 1L40 1L40 2L41 2L41 4L38 4L38 3L39 3L39 2L37 2L37 1L38 1L38 0L37 0L37 1L36 1L36 0L35 0L35 1L34 1L34 2L33 2L33 0L29 0L29 2L27 2L27 3L30 3L30 4L26 4L26 1L25 1L25 0L23 0L23 1L25 1L25 2L24 2L24 3L23 3L23 2L22 2L22 0L21 0L21 1L20 1L20 0L17 0L17 2L16 2L16 1L15 1L15 3L17 3L17 4L19 4L19 5L15 5L15 4L14 4L14 3L13 3L13 2L12 2L12 1L11 1L11 0L10 0L10 1L9 1L9 0ZM13 0L13 1L14 1L14 0ZM18 1L18 3L19 3L19 4L20 4L20 5L22 5L22 6L21 6L21 7L20 7L20 6L19 6L19 7L20 7L20 10L18 10L18 12L19 12L19 11L20 11L20 10L21 10L21 7L22 7L22 8L23 8L23 9L22 9L22 10L23 10L23 9L24 9L24 8L25 8L25 9L26 9L26 6L25 6L25 5L26 5L26 4L24 4L24 6L23 6L23 3L22 3L22 2L21 2L21 3L19 3L19 1ZM31 1L31 2L30 2L30 3L31 3L31 2L32 2L32 1ZM35 1L35 2L36 2L36 1ZM46 1L46 2L45 2L45 3L44 3L44 4L45 4L45 5L47 5L47 3L46 3L46 2L47 2L47 1ZM11 2L11 4L9 4L9 5L10 5L10 6L9 6L9 7L10 7L10 9L8 9L8 10L7 10L7 11L6 11L6 12L5 12L5 11L4 11L4 12L5 12L5 13L6 13L6 14L7 14L7 13L8 13L8 12L12 12L12 15L13 15L13 16L14 16L14 13L13 13L13 12L12 12L12 10L14 10L14 11L15 11L15 8L13 8L13 7L14 7L14 6L15 6L15 5L14 5L14 4L12 4L12 2ZM11 4L11 5L12 5L12 7L13 7L13 5L12 5L12 4ZM27 5L27 8L30 8L30 5ZM10 6L10 7L11 7L11 6ZM17 6L17 7L18 7L18 6ZM22 6L22 7L23 7L23 8L24 8L24 7L25 7L25 6L24 6L24 7L23 7L23 6ZM28 6L28 7L29 7L29 6ZM41 6L41 7L40 7L40 8L42 8L42 6ZM48 6L48 7L49 7L49 6ZM0 8L0 9L4 9L4 8ZM11 8L11 9L10 9L10 10L9 10L9 11L10 11L10 10L12 10L12 8ZM18 8L18 9L19 9L19 8ZM45 8L45 9L44 9L44 10L45 10L45 11L48 11L48 12L49 12L49 15L51 15L51 13L52 13L52 14L53 14L53 13L54 13L54 10L53 10L53 9L55 9L55 12L56 12L56 13L57 13L57 10L56 10L56 9L57 9L57 8L56 8L56 9L55 9L55 8L52 8L52 10L53 10L53 13L52 13L52 12L51 12L51 11L50 11L50 10L49 10L49 9L50 9L50 8L49 8L49 9L48 9L48 8ZM28 9L28 10L29 10L29 9ZM45 9L45 10L47 10L47 9ZM48 10L48 11L49 11L49 10ZM7 11L7 12L6 12L6 13L7 13L7 12L8 12L8 11ZM42 11L42 12L43 12L43 13L44 13L44 11ZM0 12L0 13L1 13L1 12ZM34 12L34 14L33 14L33 15L35 15L35 14L36 14L36 13L35 13L35 12ZM50 12L50 13L51 13L51 12ZM9 13L9 14L10 14L10 13ZM45 13L45 14L46 14L46 13ZM4 14L4 15L2 15L2 18L3 18L3 19L5 19L5 18L7 18L7 19L6 19L6 20L7 20L7 21L5 21L5 22L4 22L4 23L6 23L6 24L7 24L7 23L6 23L6 22L7 22L7 21L8 21L8 24L9 24L9 23L11 23L11 21L12 21L12 24L11 24L11 25L12 25L12 26L11 26L11 27L12 27L12 28L11 28L11 29L10 29L10 25L8 25L8 26L9 26L9 29L10 29L10 30L9 30L9 31L6 31L6 32L9 32L9 34L8 34L8 35L10 35L10 36L9 36L9 37L8 37L8 39L10 39L10 40L8 40L8 41L5 41L5 39L6 39L6 40L7 40L7 39L6 39L6 38L7 38L7 37L4 37L4 41L3 41L3 43L4 43L4 42L8 42L8 43L5 43L5 45L6 45L6 46L8 46L8 45L9 45L9 46L10 46L10 45L9 45L9 43L10 43L10 44L11 44L11 45L12 45L12 46L13 46L13 48L14 48L14 49L13 49L13 50L12 50L12 52L11 52L11 53L10 53L10 54L11 54L11 53L13 53L13 52L14 52L14 50L15 50L15 48L16 48L16 51L19 51L19 52L20 52L20 51L19 51L19 49L18 49L18 50L17 50L17 48L18 48L18 47L19 47L19 48L20 48L20 49L21 49L21 50L22 50L22 49L23 49L23 51L22 51L22 53L20 53L20 55L21 55L21 54L23 54L23 52L24 52L24 53L25 53L25 52L26 52L26 51L24 51L24 50L26 50L26 49L25 49L25 47L23 47L23 48L20 48L20 46L21 46L21 47L22 47L22 46L24 46L24 45L23 45L23 44L22 44L22 42L21 42L21 41L19 41L19 38L18 38L18 36L19 36L19 37L20 37L20 38L21 38L21 37L22 37L22 41L23 41L23 40L24 40L24 39L25 39L25 41L26 41L26 39L25 39L25 38L29 38L29 36L32 36L32 38L30 38L30 39L28 39L28 40L27 40L27 41L28 41L28 40L33 40L33 39L32 39L32 38L33 38L33 37L34 37L34 38L36 38L36 39L35 39L35 40L34 40L34 41L36 41L36 42L34 42L34 43L36 43L36 45L38 45L38 47L36 47L36 46L35 46L35 48L37 48L37 49L36 49L36 50L37 50L37 49L38 49L38 48L39 48L39 49L40 49L40 50L39 50L39 52L40 52L40 54L41 54L41 55L42 55L42 54L43 54L43 51L45 51L45 49L46 49L46 50L47 50L47 52L48 52L48 48L45 48L45 47L46 47L46 46L47 46L47 47L49 47L49 48L51 48L51 47L49 47L49 46L50 46L50 45L49 45L49 44L51 44L51 42L50 42L50 41L52 41L52 40L53 40L53 39L54 39L54 38L53 38L53 36L52 36L52 35L51 35L51 36L52 36L52 40L50 40L50 41L47 41L47 40L49 40L49 39L51 39L51 38L49 38L49 37L50 37L50 36L49 36L49 37L48 37L48 35L49 35L49 34L50 34L50 33L49 33L49 32L50 32L50 31L49 31L49 32L48 32L48 29L47 29L47 31L46 31L46 33L45 33L45 30L46 30L46 26L47 26L47 27L48 27L48 26L49 26L49 25L48 25L48 24L47 24L47 25L46 25L46 24L45 24L45 23L46 23L46 22L47 22L47 23L50 23L50 24L51 24L51 23L52 23L52 22L51 22L51 21L50 21L50 20L49 20L49 19L48 19L48 18L46 18L46 20L45 20L45 19L44 19L44 18L45 18L45 17L46 17L46 16L45 16L45 17L42 17L42 18L41 18L41 21L44 21L44 22L45 22L45 23L43 23L43 22L41 22L41 23L39 23L39 24L38 24L38 25L39 25L39 26L38 26L38 27L39 27L39 26L40 26L40 29L38 29L38 30L37 30L37 28L36 28L36 27L35 27L35 25L34 25L34 27L35 27L35 28L34 28L34 29L36 29L36 31L37 31L37 32L36 32L36 33L37 33L37 32L38 32L38 34L39 34L39 31L40 31L40 32L41 32L41 31L43 31L43 30L44 30L44 34L45 34L45 36L44 36L44 37L43 37L43 36L42 36L42 34L41 34L41 35L39 35L39 36L40 36L40 37L41 37L41 40L40 40L40 41L37 41L37 40L38 40L38 39L39 39L39 38L38 38L38 39L37 39L37 37L38 37L38 36L37 36L37 37L35 37L35 36L36 36L36 35L35 35L35 31L34 31L34 32L31 32L31 34L30 34L30 35L29 35L29 33L30 33L30 31L29 31L29 32L28 32L28 31L26 31L26 32L25 32L25 31L24 31L24 30L26 30L26 28L25 28L25 27L24 27L24 26L25 26L25 25L27 25L27 26L28 26L28 25L29 25L29 23L27 23L27 22L29 22L29 21L27 21L27 22L25 22L25 25L23 25L23 23L20 23L20 24L21 24L21 26L19 26L19 27L17 27L17 24L19 24L19 22L22 22L22 21L21 21L21 20L18 20L18 19L17 19L17 18L16 18L16 17L13 17L13 19L15 19L15 20L14 20L14 22L13 22L13 20L12 20L12 19L11 19L11 18L10 18L10 16L11 16L11 17L12 17L12 16L11 16L11 15L9 15L9 17L8 17L8 18L7 18L7 17L6 17L6 16L8 16L8 15L6 15L6 16L5 16L5 17L3 17L3 16L4 16L4 15L5 15L5 14ZM54 14L54 15L52 15L52 16L55 16L55 17L54 17L54 18L52 18L52 19L56 19L56 18L57 18L57 15L55 15L55 14ZM16 15L16 16L17 16L17 15ZM26 15L26 16L27 16L27 15ZM28 15L28 16L29 16L29 15ZM24 17L24 18L25 18L25 17ZM26 17L26 19L28 19L28 20L29 20L29 19L28 19L28 18L29 18L29 17ZM36 17L36 18L37 18L37 17ZM55 17L55 18L56 18L56 17ZM42 18L42 19L43 19L43 18ZM7 19L7 20L8 20L8 21L9 21L9 22L10 22L10 21L11 21L11 20L10 20L10 19L9 19L9 20L8 20L8 19ZM16 20L16 23L15 23L15 22L14 22L14 24L13 24L13 25L15 25L15 26L16 26L16 23L17 23L17 21L18 21L18 20ZM36 20L36 21L37 21L37 20ZM54 20L54 21L56 21L56 22L55 22L55 23L57 23L57 20ZM47 21L47 22L49 22L49 21ZM26 23L26 24L27 24L27 23ZM30 23L30 24L31 24L31 23ZM4 24L4 25L5 25L5 24ZM32 24L32 25L33 25L33 24ZM43 24L43 26L42 26L42 27L41 27L41 29L40 29L40 30L42 30L42 29L43 29L43 28L44 28L44 29L45 29L45 27L43 27L43 26L46 26L46 25L44 25L44 24ZM55 24L55 26L56 26L56 24ZM6 25L6 26L7 26L7 25ZM22 25L22 27L23 27L23 25ZM30 25L30 26L31 26L31 25ZM2 26L2 27L1 27L1 28L2 28L2 29L3 29L3 31L4 31L4 29L3 29L3 28L4 28L4 26ZM12 26L12 27L13 27L13 26ZM2 27L2 28L3 28L3 27ZM5 27L5 30L8 30L8 27ZM14 27L14 29L13 29L13 28L12 28L12 29L13 29L13 30L11 30L11 31L13 31L13 35L12 35L12 36L10 36L10 37L9 37L9 38L10 38L10 37L13 37L13 38L12 38L12 39L11 39L11 40L10 40L10 43L11 43L11 44L13 44L13 46L15 46L15 45L16 45L16 44L17 44L17 42L18 42L18 43L19 43L19 41L17 41L17 40L18 40L18 38L15 38L15 36L17 36L17 35L16 35L16 34L15 34L15 33L17 33L17 34L18 34L18 33L17 33L17 32L18 32L18 31L19 31L19 30L17 30L17 28L16 28L16 27ZM27 27L27 30L30 30L30 27ZM31 27L31 28L33 28L33 27ZM42 27L42 28L43 28L43 27ZM49 27L49 30L52 30L52 27ZM6 28L6 29L7 29L7 28ZM18 28L18 29L19 29L19 28ZM20 28L20 29L21 29L21 30L20 30L20 33L21 33L21 34L22 34L22 33L23 33L23 35L21 35L21 36L23 36L23 39L24 39L24 37L25 37L25 36L23 36L23 35L24 35L24 34L25 34L25 32L24 32L24 31L22 31L22 32L21 32L21 30L24 30L24 29L25 29L25 28L23 28L23 29L21 29L21 28ZM28 28L28 29L29 29L29 28ZM50 28L50 29L51 29L51 28ZM53 28L53 31L51 31L51 32L52 32L52 34L54 34L54 33L53 33L53 32L55 32L55 30L56 30L56 29L55 29L55 30L54 30L54 28ZM15 29L15 30L16 30L16 29ZM31 29L31 31L32 31L32 30L33 30L33 29ZM13 30L13 31L14 31L14 33L15 33L15 32L16 32L16 31L14 31L14 30ZM38 30L38 31L39 31L39 30ZM9 31L9 32L10 32L10 34L12 34L12 32L10 32L10 31ZM23 32L23 33L24 33L24 32ZM27 32L27 33L28 33L28 32ZM42 32L42 33L43 33L43 32ZM6 33L6 34L7 34L7 33ZM32 33L32 36L33 36L33 35L34 35L34 34L33 34L33 33ZM14 34L14 35L13 35L13 37L14 37L14 35L15 35L15 34ZM27 34L27 35L26 35L26 36L29 36L29 35L28 35L28 34ZM46 34L46 35L48 35L48 34ZM6 35L6 36L7 36L7 35ZM19 35L19 36L20 36L20 35ZM54 35L54 36L56 36L56 35ZM2 37L2 38L3 38L3 37ZM45 37L45 39L44 39L44 38L42 38L42 39L43 39L43 40L41 40L41 42L37 42L37 44L38 44L38 45L39 45L39 47L43 47L43 49L44 49L44 47L43 47L43 45L42 45L42 43L44 43L44 44L49 44L49 43L50 43L50 42L49 42L49 43L48 43L48 42L47 42L47 41L46 41L46 40L47 40L47 39L48 39L48 38L46 38L46 37ZM13 39L13 40L14 40L14 41L15 41L15 42L16 42L16 41L15 41L15 39ZM16 39L16 40L17 40L17 39ZM45 39L45 40L46 40L46 39ZM43 40L43 41L42 41L42 42L45 42L45 41L44 41L44 40ZM56 40L56 41L57 41L57 40ZM8 41L8 42L9 42L9 41ZM11 41L11 43L12 43L12 42L13 42L13 43L14 43L14 42L13 42L13 41ZM30 41L30 42L31 42L31 41ZM20 42L20 43L21 43L21 42ZM38 43L38 44L41 44L41 43ZM2 44L2 45L4 45L4 44ZM6 44L6 45L8 45L8 44ZM19 44L19 45L17 45L17 46L16 46L16 47L17 47L17 46L20 46L20 44ZM21 44L21 46L22 46L22 44ZM44 45L44 46L45 46L45 45ZM47 45L47 46L49 46L49 45ZM1 46L1 47L2 47L2 46ZM3 46L3 47L5 47L5 46ZM8 47L8 48L9 48L9 47ZM23 48L23 49L24 49L24 48ZM41 48L41 49L42 49L42 48ZM53 48L53 50L55 50L55 49L54 49L54 48ZM27 49L27 52L30 52L30 49ZM49 49L49 52L52 52L52 49ZM28 50L28 51L29 51L29 50ZM31 50L31 53L32 53L32 51L33 51L33 50ZM50 50L50 51L51 51L51 50ZM40 51L40 52L41 52L41 54L42 54L42 52L41 52L41 51ZM45 52L45 53L46 53L46 52ZM48 53L48 54L50 54L50 53ZM13 54L13 55L14 55L14 56L15 56L15 54ZM34 54L34 55L36 55L36 54ZM44 54L44 55L45 55L45 54ZM39 55L39 56L40 56L40 55ZM56 55L56 56L57 56L57 55ZM0 0L0 7L7 7L7 0ZM1 1L1 6L6 6L6 1ZM2 2L2 5L5 5L5 2ZM50 0L50 7L57 7L57 0ZM51 1L51 6L56 6L56 1ZM52 2L52 5L55 5L55 2ZM0 50L0 57L7 57L7 50ZM1 51L1 56L6 56L6 51ZM2 52L2 55L5 55L5 52Z" fill="#000000"/></g></g></svg>
