<?xml version="1.0" encoding="UTF-8"?>
<svg xmlns="http://www.w3.org/2000/svg" version="1.1" width="300" height="300" viewBox="0 0 300 300"><rect x="0" y="0" width="300" height="300" fill="#fefefe"/><g transform="scale(4.615)"><g transform="translate(4,4)"><path fill-rule="evenodd" d="M8 0L8 4L9 4L9 5L8 5L8 7L9 7L9 5L10 5L10 8L9 8L9 9L7 9L7 8L4 8L4 9L7 9L7 10L6 10L6 11L4 11L4 12L3 12L3 9L2 9L2 8L0 8L0 10L1 10L1 12L0 12L0 14L1 14L1 15L0 15L0 17L1 17L1 18L0 18L0 20L1 20L1 21L0 21L0 25L1 25L1 26L0 26L0 29L1 29L1 30L3 30L3 31L2 31L2 32L1 32L1 31L0 31L0 37L1 37L1 39L0 39L0 40L2 40L2 41L1 41L1 42L2 42L2 43L1 43L1 44L0 44L0 48L5 48L5 47L7 47L7 48L6 48L6 49L7 49L7 48L8 48L8 50L9 50L9 51L8 51L8 53L9 53L9 55L8 55L8 57L9 57L9 56L10 56L10 57L13 57L13 56L10 56L10 54L11 54L11 55L12 55L12 54L13 54L13 55L16 55L16 54L17 54L17 55L18 55L18 54L19 54L19 55L20 55L20 54L22 54L22 52L21 52L21 49L22 49L22 51L23 51L23 52L24 52L24 53L23 53L23 55L24 55L24 56L23 56L23 57L25 57L25 56L26 56L26 57L27 57L27 56L26 56L26 55L27 55L27 54L24 54L24 53L28 53L28 57L29 57L29 55L30 55L30 57L34 57L34 53L35 53L35 57L37 57L37 56L36 56L36 54L37 54L37 55L40 55L40 56L39 56L39 57L40 57L40 56L41 56L41 57L43 57L43 55L44 55L44 53L45 53L45 55L46 55L46 56L47 56L47 54L46 54L46 52L45 52L45 51L42 51L42 50L45 50L45 49L47 49L47 52L48 52L48 54L49 54L49 57L50 57L50 55L51 55L51 56L53 56L53 57L54 57L54 55L53 55L53 50L54 50L54 51L55 51L55 49L56 49L56 44L57 44L57 43L56 43L56 42L57 42L57 40L53 40L53 39L57 39L57 38L53 38L53 39L52 39L52 36L53 36L53 37L57 37L57 36L53 36L53 35L55 35L55 33L56 33L56 30L55 30L55 29L57 29L57 28L56 28L56 26L55 26L55 25L54 25L54 24L53 24L53 23L52 23L52 22L53 22L53 21L52 21L52 20L53 20L53 19L52 19L52 14L53 14L53 13L54 13L54 15L55 15L55 16L53 16L53 17L55 17L55 16L56 16L56 17L57 17L57 15L56 15L56 12L57 12L57 11L56 11L56 10L57 10L57 8L53 8L53 9L56 9L56 10L55 10L55 11L56 11L56 12L55 12L55 13L54 13L54 12L53 12L53 13L52 13L52 14L51 14L51 12L52 12L52 11L54 11L54 10L52 10L52 11L50 11L50 16L49 16L49 15L48 15L48 17L47 17L47 18L46 18L46 17L45 17L45 16L46 16L46 11L45 11L45 10L46 10L46 7L47 7L47 8L49 8L49 6L48 6L48 7L47 7L47 5L48 5L48 0L41 0L41 1L40 1L40 2L38 2L38 1L39 1L39 0L38 0L38 1L37 1L37 2L36 2L36 0L35 0L35 1L34 1L34 0L28 0L28 2L27 2L27 3L28 3L28 4L26 4L26 3L25 3L25 2L26 2L26 1L27 1L27 0L26 0L26 1L25 1L25 0L23 0L23 1L22 1L22 2L21 2L21 3L22 3L22 4L21 4L21 6L20 6L20 5L19 5L19 6L18 6L18 3L20 3L20 2L19 2L19 1L18 1L18 3L17 3L17 2L16 2L16 0L14 0L14 1L13 1L13 0L11 0L11 1L9 1L9 0ZM20 0L20 1L21 1L21 0ZM12 1L12 2L13 2L13 1ZM14 1L14 4L15 4L15 5L14 5L14 6L13 6L13 7L12 7L12 6L11 6L11 8L10 8L10 10L8 10L8 11L6 11L6 12L5 12L5 13L6 13L6 14L7 14L7 13L6 13L6 12L8 12L8 11L10 11L10 14L11 14L11 11L10 11L10 10L11 10L11 9L12 9L12 12L13 12L13 13L15 13L15 14L17 14L17 15L18 15L18 16L19 16L19 18L18 18L18 19L17 19L17 17L14 17L14 16L15 16L15 15L14 15L14 16L13 16L13 14L12 14L12 16L10 16L10 15L9 15L9 14L8 14L8 15L5 15L5 14L3 14L3 12L1 12L1 14L3 14L3 15L2 15L2 17L4 17L4 19L2 19L2 20L3 20L3 22L4 22L4 19L5 19L5 21L6 21L6 22L7 22L7 21L10 21L10 22L11 22L11 23L4 23L4 24L5 24L5 26L7 26L7 25L9 25L9 29L10 29L10 30L9 30L9 32L8 32L8 31L6 31L6 32L7 32L7 33L5 33L5 31L3 31L3 33L2 33L2 34L1 34L1 36L2 36L2 39L5 39L5 40L7 40L7 41L5 41L5 42L7 42L7 43L4 43L4 40L3 40L3 41L2 41L2 42L3 42L3 43L2 43L2 44L1 44L1 47L2 47L2 44L3 44L3 47L5 47L5 46L4 46L4 44L7 44L7 45L6 45L6 46L7 46L7 47L8 47L8 48L9 48L9 47L10 47L10 46L9 46L9 45L11 45L11 46L12 46L12 47L11 47L11 48L12 48L12 49L11 49L11 50L10 50L10 51L9 51L9 52L10 52L10 53L11 53L11 52L10 52L10 51L12 51L12 53L14 53L14 52L13 52L13 51L14 51L14 50L13 50L13 51L12 51L12 49L14 49L14 48L15 48L15 49L16 49L16 50L17 50L17 52L16 52L16 51L15 51L15 53L17 53L17 52L19 52L19 53L20 53L20 52L19 52L19 51L20 51L20 49L21 49L21 48L22 48L22 49L23 49L23 48L22 48L22 47L26 47L26 48L27 48L27 47L28 47L28 46L29 46L29 48L31 48L31 52L32 52L32 48L34 48L34 49L33 49L33 51L34 51L34 52L33 52L33 53L32 53L32 54L33 54L33 53L34 53L34 52L36 52L36 49L35 49L35 48L34 48L34 47L36 47L36 48L37 48L37 46L38 46L38 45L40 45L40 51L38 51L38 49L39 49L39 47L38 47L38 49L37 49L37 51L38 51L38 52L37 52L37 54L38 54L38 52L40 52L40 53L41 53L41 43L40 43L40 42L41 42L41 41L42 41L42 40L43 40L43 41L44 41L44 43L43 43L43 42L42 42L42 44L43 44L43 45L44 45L44 44L45 44L45 45L46 45L46 47L47 47L47 49L48 49L48 47L49 47L49 48L53 48L53 49L55 49L55 44L56 44L56 43L55 43L55 42L54 42L54 43L53 43L53 41L52 41L52 40L47 40L47 39L48 39L48 38L50 38L50 39L51 39L51 37L49 37L49 36L50 36L50 35L53 35L53 34L54 34L54 32L55 32L55 31L54 31L54 29L55 29L55 26L54 26L54 27L53 27L53 28L54 28L54 29L53 29L53 31L52 31L52 32L53 32L53 33L51 33L51 31L50 31L50 35L49 35L49 33L48 33L48 31L47 31L47 29L48 29L48 25L49 25L49 26L50 26L50 25L51 25L51 26L53 26L53 24L52 24L52 23L50 23L50 22L47 22L47 21L51 21L51 22L52 22L52 21L51 21L51 20L49 20L49 19L50 19L50 17L51 17L51 16L50 16L50 17L49 17L49 18L48 18L48 19L46 19L46 18L45 18L45 19L46 19L46 22L44 22L44 16L45 16L45 15L44 15L44 14L43 14L43 15L42 15L42 17L43 17L43 18L42 18L42 19L41 19L41 18L40 18L40 17L41 17L41 15L40 15L40 13L44 13L44 12L45 12L45 11L43 11L43 12L41 12L41 11L40 11L40 10L39 10L39 11L40 11L40 13L39 13L39 12L37 12L37 10L38 10L38 9L39 9L39 8L38 8L38 9L35 9L35 7L36 7L36 5L38 5L38 4L40 4L40 3L41 3L41 4L43 4L43 7L42 7L42 5L39 5L39 7L40 7L40 6L41 6L41 8L40 8L40 9L42 9L42 8L43 8L43 9L44 9L44 10L45 10L45 9L44 9L44 8L45 8L45 7L46 7L46 5L47 5L47 3L44 3L44 2L43 2L43 3L42 3L42 2L40 2L40 3L36 3L36 2L35 2L35 3L34 3L34 1L33 1L33 3L32 3L32 2L31 2L31 1L30 1L30 2L29 2L29 3L30 3L30 4L31 4L31 3L32 3L32 5L33 5L33 7L32 7L32 6L31 6L31 10L30 10L30 11L32 11L32 12L29 12L29 11L28 11L28 10L29 10L29 9L26 9L26 6L25 6L25 7L24 7L24 6L23 6L23 5L24 5L24 4L25 4L25 3L23 3L23 4L22 4L22 6L21 6L21 8L22 8L22 9L21 9L21 10L20 10L20 9L19 9L19 10L18 10L18 9L16 9L16 8L15 8L15 7L16 7L16 6L17 6L17 8L19 8L19 7L20 7L20 6L19 6L19 7L18 7L18 6L17 6L17 4L16 4L16 3L15 3L15 1ZM45 1L45 2L47 2L47 1ZM10 2L10 3L9 3L9 4L10 4L10 3L11 3L11 5L12 5L12 4L13 4L13 3L11 3L11 2ZM33 3L33 5L34 5L34 7L33 7L33 8L32 8L32 11L33 11L33 10L34 10L34 12L35 12L35 14L36 14L36 13L37 13L37 12L36 12L36 10L34 10L34 9L33 9L33 8L34 8L34 7L35 7L35 5L36 5L36 4L35 4L35 5L34 5L34 3ZM43 3L43 4L44 4L44 7L43 7L43 8L44 8L44 7L45 7L45 4L44 4L44 3ZM15 5L15 6L14 6L14 7L13 7L13 8L14 8L14 9L13 9L13 11L14 11L14 12L15 12L15 13L17 13L17 14L18 14L18 15L19 15L19 12L20 12L20 14L21 14L21 15L22 15L22 16L23 16L23 15L22 15L22 14L21 14L21 13L23 13L23 14L24 14L24 15L25 15L25 16L26 16L26 17L28 17L28 18L30 18L30 19L28 19L28 20L26 20L26 18L25 18L25 17L21 17L21 16L20 16L20 18L21 18L21 19L19 19L19 20L17 20L17 19L16 19L16 18L15 18L15 20L14 20L14 19L13 19L13 18L14 18L14 17L13 17L13 16L12 16L12 17L13 17L13 18L12 18L12 19L11 19L11 17L9 17L9 16L6 16L6 17L5 17L5 18L6 18L6 19L7 19L7 20L6 20L6 21L7 21L7 20L8 20L8 19L9 19L9 18L10 18L10 19L11 19L11 20L10 20L10 21L12 21L12 24L11 24L11 25L12 25L12 28L13 28L13 26L14 26L14 25L15 25L15 27L14 27L14 29L11 29L11 27L10 27L10 29L11 29L11 30L14 30L14 29L18 29L18 30L15 30L15 31L16 31L16 32L15 32L15 33L14 33L14 32L13 32L13 31L12 31L12 32L13 32L13 33L14 33L14 34L13 34L13 36L14 36L14 37L12 37L12 34L11 34L11 31L10 31L10 33L9 33L9 35L8 35L8 36L6 36L6 35L7 35L7 34L8 34L8 33L7 33L7 34L5 34L5 36L3 36L3 34L4 34L4 33L3 33L3 34L2 34L2 36L3 36L3 38L4 38L4 37L5 37L5 39L8 39L8 36L9 36L9 37L10 37L10 39L9 39L9 40L8 40L8 41L7 41L7 42L9 42L9 41L12 41L12 42L11 42L11 43L10 43L10 44L11 44L11 45L12 45L12 46L13 46L13 48L14 48L14 47L15 47L15 46L16 46L16 48L17 48L17 50L19 50L19 49L20 49L20 47L22 47L22 46L21 46L21 45L23 45L23 46L26 46L26 47L27 47L27 46L28 46L28 45L29 45L29 46L31 46L31 48L32 48L32 46L33 46L33 47L34 47L34 45L35 45L35 46L36 46L36 45L37 45L37 44L39 44L39 41L40 41L40 40L42 40L42 39L43 39L43 38L44 38L44 37L45 37L45 39L44 39L44 41L45 41L45 42L46 42L46 43L47 43L47 44L46 44L46 45L47 45L47 44L48 44L48 45L49 45L49 47L50 47L50 45L51 45L51 47L54 47L54 46L52 46L52 45L51 45L51 43L52 43L52 44L53 44L53 45L54 45L54 44L53 44L53 43L52 43L52 41L51 41L51 43L50 43L50 42L49 42L49 41L48 41L48 42L49 42L49 43L47 43L47 42L46 42L46 41L47 41L47 40L46 40L46 39L47 39L47 38L46 38L46 37L45 37L45 36L46 36L46 33L47 33L47 32L46 32L46 30L44 30L44 29L45 29L45 26L46 26L46 27L47 27L47 26L46 26L46 25L48 25L48 24L50 24L50 23L46 23L46 24L44 24L44 26L43 26L43 25L42 25L42 24L43 24L43 23L44 23L44 22L43 22L43 20L42 20L42 21L40 21L40 18L39 18L39 17L40 17L40 15L39 15L39 13L38 13L38 15L39 15L39 17L38 17L38 16L37 16L37 15L35 15L35 17L38 17L38 18L39 18L39 19L37 19L37 18L35 18L35 19L36 19L36 20L35 20L35 22L34 22L34 13L33 13L33 12L32 12L32 13L33 13L33 14L31 14L31 13L30 13L30 15L31 15L31 16L29 16L29 13L26 13L26 11L27 11L27 12L28 12L28 11L27 11L27 10L25 10L25 8L24 8L24 7L23 7L23 6L22 6L22 7L23 7L23 8L24 8L24 9L23 9L23 12L22 12L22 11L21 11L21 12L20 12L20 10L19 10L19 12L18 12L18 13L17 13L17 12L16 12L16 9L15 9L15 8L14 8L14 7L15 7L15 6L16 6L16 5ZM27 5L27 8L30 8L30 5ZM28 6L28 7L29 7L29 6ZM37 6L37 7L38 7L38 6ZM51 8L51 9L50 9L50 10L51 10L51 9L52 9L52 8ZM47 9L47 10L48 10L48 11L47 11L47 12L48 12L48 11L49 11L49 9ZM17 10L17 11L18 11L18 10ZM25 13L25 14L26 14L26 13ZM47 13L47 14L49 14L49 13ZM27 14L27 15L26 15L26 16L27 16L27 15L28 15L28 14ZM3 15L3 16L5 16L5 15ZM43 15L43 16L44 16L44 15ZM6 17L6 18L7 18L7 19L8 19L8 18L7 18L7 17ZM31 17L31 19L33 19L33 17ZM22 18L22 21L21 21L21 22L20 22L20 23L19 23L19 22L18 22L18 21L17 21L17 20L15 20L15 21L17 21L17 22L16 22L16 23L15 23L15 22L14 22L14 21L13 21L13 20L12 20L12 21L13 21L13 22L14 22L14 23L13 23L13 25L14 25L14 24L16 24L16 26L17 26L17 27L18 27L18 26L19 26L19 25L21 25L21 26L20 26L20 28L18 28L18 29L19 29L19 31L20 31L20 33L18 33L18 35L20 35L20 36L21 36L21 35L22 35L22 38L21 38L21 37L18 37L18 39L17 39L17 40L16 40L16 46L17 46L17 47L18 47L18 48L19 48L19 46L20 46L20 45L21 45L21 43L22 43L22 44L23 44L23 45L24 45L24 44L23 44L23 43L28 43L28 44L27 44L27 45L26 45L26 46L27 46L27 45L28 45L28 44L29 44L29 45L32 45L32 43L33 43L33 44L37 44L37 43L33 43L33 41L32 41L32 40L33 40L33 39L31 39L31 38L33 38L33 37L32 37L32 36L31 36L31 35L33 35L33 36L34 36L34 42L35 42L35 39L37 39L37 42L38 42L38 39L40 39L40 38L38 38L38 37L37 37L37 38L35 38L35 35L33 35L33 33L32 33L32 32L34 32L34 34L35 34L35 32L34 32L34 31L35 31L35 30L37 30L37 32L38 32L38 30L37 30L37 29L38 29L38 28L37 28L37 27L39 27L39 28L40 28L40 29L39 29L39 30L40 30L40 29L44 29L44 27L43 27L43 28L42 28L42 25L41 25L41 22L40 22L40 21L39 21L39 20L38 20L38 21L37 21L37 22L35 22L35 23L34 23L34 24L33 24L33 25L34 25L34 26L33 26L33 27L32 27L32 23L33 23L33 22L28 22L28 21L30 21L30 20L28 20L28 21L26 21L26 20L25 20L25 18L24 18L24 19L23 19L23 18ZM19 20L19 21L20 21L20 20ZM24 20L24 21L22 21L22 23L21 23L21 25L22 25L22 26L21 26L21 27L22 27L22 28L23 28L23 30L22 30L22 29L21 29L21 28L20 28L20 30L22 30L22 31L21 31L21 33L20 33L20 34L21 34L21 33L22 33L22 31L23 31L23 30L25 30L25 31L26 31L26 32L25 32L25 33L23 33L23 37L24 37L24 38L25 38L25 39L27 39L27 40L25 40L25 41L24 41L24 39L21 39L21 38L20 38L20 39L18 39L18 41L17 41L17 43L18 43L18 41L19 41L19 40L20 40L20 42L19 42L19 44L18 44L18 45L17 45L17 46L19 46L19 44L20 44L20 43L21 43L21 41L22 41L22 40L23 40L23 41L24 41L24 42L26 42L26 41L27 41L27 42L28 42L28 43L29 43L29 44L31 44L31 43L32 43L32 41L31 41L31 39L29 39L29 38L28 38L28 39L27 39L27 37L28 37L28 36L29 36L29 37L31 37L31 36L30 36L30 34L31 34L31 33L29 33L29 32L32 32L32 31L34 31L34 27L33 27L33 28L32 28L32 29L31 29L31 25L28 25L28 24L27 24L27 23L28 23L28 22L26 22L26 23L25 23L25 22L24 22L24 21L25 21L25 20ZM31 20L31 21L32 21L32 20ZM55 20L55 24L56 24L56 25L57 25L57 24L56 24L56 21L57 21L57 20ZM1 21L1 22L2 22L2 21ZM38 21L38 22L37 22L37 23L38 23L38 26L40 26L40 28L41 28L41 26L40 26L40 24L39 24L39 23L38 23L38 22L39 22L39 21ZM42 22L42 23L43 23L43 22ZM1 23L1 24L2 24L2 26L4 26L4 25L3 25L3 23ZM17 23L17 25L19 25L19 24L18 24L18 23ZM22 23L22 25L23 25L23 24L24 24L24 23ZM6 24L6 25L7 25L7 24ZM34 24L34 25L37 25L37 24ZM51 24L51 25L52 25L52 24ZM25 25L25 27L24 27L24 26L23 26L23 27L24 27L24 28L25 28L25 27L26 27L26 25ZM36 26L36 27L37 27L37 26ZM1 27L1 28L2 28L2 27ZM3 27L3 28L4 28L4 27ZM5 27L5 30L8 30L8 27ZM15 27L15 28L16 28L16 27ZM27 27L27 30L30 30L30 27ZM49 27L49 30L52 30L52 27ZM6 28L6 29L7 29L7 28ZM28 28L28 29L29 29L29 28ZM35 28L35 29L37 29L37 28ZM46 28L46 29L47 29L47 28ZM50 28L50 29L51 29L51 28ZM3 29L3 30L4 30L4 29ZM25 29L25 30L26 30L26 29ZM32 29L32 30L31 30L31 31L32 31L32 30L33 30L33 29ZM43 30L43 31L44 31L44 30ZM28 31L28 32L29 32L29 31ZM39 31L39 32L40 32L40 33L39 33L39 34L38 34L38 33L37 33L37 34L38 34L38 36L39 36L39 37L41 37L41 36L43 36L43 37L44 37L44 35L45 35L45 34L44 34L44 33L43 33L43 34L44 34L44 35L42 35L42 34L40 34L40 33L41 33L41 32L40 32L40 31ZM16 32L16 34L17 34L17 32ZM45 32L45 33L46 33L46 32ZM26 33L26 34L27 34L27 35L26 35L26 36L25 36L25 34L24 34L24 36L25 36L25 37L26 37L26 36L28 36L28 34L29 34L29 33L28 33L28 34L27 34L27 33ZM47 34L47 36L49 36L49 35L48 35L48 34ZM16 35L16 37L14 37L14 38L15 38L15 39L13 39L13 38L12 38L12 39L13 39L13 40L15 40L15 39L16 39L16 38L17 38L17 35ZM39 35L39 36L40 36L40 35ZM6 37L6 38L7 38L7 37ZM41 38L41 39L42 39L42 38ZM10 39L10 40L11 40L11 39ZM29 40L29 41L28 41L28 42L29 42L29 43L31 43L31 42L29 42L29 41L30 41L30 40ZM45 40L45 41L46 41L46 40ZM13 41L13 42L12 42L12 44L13 44L13 42L15 42L15 41ZM3 43L3 44L4 44L4 43ZM49 43L49 44L50 44L50 43ZM7 45L7 46L8 46L8 45ZM44 46L44 47L42 47L42 49L44 49L44 48L45 48L45 46ZM24 48L24 49L25 49L25 50L26 50L26 49L25 49L25 48ZM27 49L27 52L30 52L30 49ZM49 49L49 52L52 52L52 49ZM28 50L28 51L29 51L29 50ZM50 50L50 51L51 51L51 50ZM25 51L25 52L26 52L26 51ZM56 51L56 52L54 52L54 54L57 54L57 51ZM43 52L43 53L44 53L44 52ZM30 53L30 54L31 54L31 53ZM49 53L49 54L51 54L51 55L52 55L52 54L51 54L51 53ZM40 54L40 55L41 55L41 56L42 56L42 55L43 55L43 54ZM21 55L21 56L17 56L17 57L22 57L22 55ZM14 56L14 57L16 57L16 56ZM44 56L44 57L45 57L45 56ZM56 56L56 57L57 57L57 56ZM0 0L0 7L7 7L7 0ZM1 1L1 6L6 6L6 1ZM2 2L2 5L5 5L5 2ZM50 0L50 7L57 7L57 0ZM51 1L51 6L56 6L56 1ZM52 2L52 5L55 5L55 2ZM0 50L0 57L7 57L7 50ZM1 51L1 56L6 56L6 51ZM2 52L2 55L5 55L5 52Z" fill="#000000"/></g></g></svg>
