<?xml version="1.0" encoding="UTF-8"?>
<svg xmlns="http://www.w3.org/2000/svg" version="1.1" width="300" height="300" viewBox="0 0 300 300"><rect x="0" y="0" width="300" height="300" fill="#fefefe"/><g transform="scale(4.615)"><g transform="translate(4,4)"><path fill-rule="evenodd" d="M13 0L13 1L11 1L11 3L10 3L10 5L11 5L11 6L10 6L10 7L9 7L9 5L8 5L8 7L9 7L9 8L6 8L6 9L5 9L5 8L0 8L0 9L1 9L1 10L0 10L0 11L1 11L1 12L0 12L0 13L1 13L1 14L0 14L0 16L4 16L4 18L2 18L2 17L1 17L1 18L0 18L0 20L1 20L1 22L3 22L3 23L0 23L0 25L1 25L1 26L2 26L2 27L0 27L0 30L1 30L1 31L0 31L0 32L1 32L1 34L0 34L0 38L1 38L1 41L0 41L0 42L1 42L1 43L0 43L0 45L2 45L2 47L1 47L1 46L0 46L0 48L5 48L5 47L7 47L7 46L9 46L9 45L8 45L8 44L9 44L9 43L11 43L11 44L13 44L13 42L12 42L12 41L14 41L14 44L15 44L15 41L14 41L14 39L15 39L15 40L16 40L16 39L15 39L15 38L16 38L16 37L15 37L15 36L17 36L17 38L18 38L18 39L19 39L19 40L17 40L17 41L19 41L19 42L18 42L18 43L16 43L16 45L17 45L17 46L15 46L15 45L12 45L12 46L11 46L11 45L10 45L10 46L11 46L11 47L8 47L8 48L6 48L6 49L8 49L8 51L9 51L9 52L8 52L8 57L9 57L9 56L10 56L10 57L11 57L11 56L10 56L10 55L16 55L16 56L14 56L14 57L16 57L16 56L17 56L17 57L20 57L20 56L19 56L19 55L20 55L20 54L19 54L19 53L20 53L20 52L21 52L21 51L22 51L22 50L25 50L25 51L26 51L26 52L24 52L24 53L23 53L23 54L21 54L21 55L23 55L23 57L26 57L26 56L24 56L24 55L23 55L23 54L24 54L24 53L25 53L25 55L26 55L26 54L30 54L30 53L31 53L31 51L32 51L32 52L33 52L33 51L35 51L35 52L34 52L34 53L35 53L35 54L36 54L36 56L35 56L35 55L33 55L33 53L32 53L32 54L31 54L31 56L30 56L30 55L29 55L29 56L27 56L27 57L29 57L29 56L30 56L30 57L31 57L31 56L35 56L35 57L39 57L39 56L37 56L37 55L41 55L41 57L44 57L44 54L45 54L45 53L44 53L44 52L45 52L45 51L43 51L43 49L44 49L44 50L46 50L46 52L47 52L47 50L48 50L48 54L47 54L47 57L49 57L49 56L50 56L50 57L52 57L52 55L51 55L51 53L52 53L52 54L53 54L53 52L54 52L54 54L55 54L55 52L57 52L57 51L56 51L56 50L57 50L57 48L56 48L56 46L57 46L57 43L56 43L56 41L55 41L55 39L57 39L57 35L56 35L56 34L57 34L57 32L56 32L56 30L57 30L57 28L56 28L56 26L57 26L57 25L56 25L56 22L57 22L57 20L56 20L56 22L55 22L55 23L53 23L53 21L51 21L51 20L52 20L52 19L53 19L53 20L55 20L55 19L56 19L56 16L57 16L57 15L56 15L56 14L57 14L57 12L56 12L56 8L55 8L55 10L54 10L54 11L53 11L53 9L54 9L54 8L53 8L53 9L52 9L52 8L51 8L51 10L50 10L50 8L49 8L49 6L48 6L48 7L47 7L47 5L48 5L48 0L45 0L45 2L44 2L44 3L43 3L43 4L40 4L40 5L39 5L39 6L38 6L38 4L39 4L39 3L41 3L41 2L43 2L43 0L41 0L41 1L40 1L40 0L39 0L39 1L38 1L38 0L37 0L37 1L38 1L38 2L39 2L39 3L36 3L36 0L35 0L35 1L32 1L32 3L30 3L30 2L31 2L31 0L27 0L27 1L26 1L26 0L23 0L23 1L22 1L22 0L21 0L21 1L20 1L20 0L17 0L17 1L16 1L16 2L15 2L15 1L14 1L14 0ZM8 1L8 2L9 2L9 1ZM13 1L13 2L14 2L14 4L13 4L13 3L12 3L12 4L11 4L11 5L12 5L12 4L13 4L13 7L14 7L14 6L15 6L15 7L16 7L16 8L14 8L14 9L13 9L13 10L12 10L12 9L11 9L11 10L7 10L7 9L6 9L6 10L7 10L7 11L5 11L5 10L4 10L4 9L3 9L3 10L2 10L2 13L3 13L3 14L1 14L1 15L3 15L3 14L4 14L4 15L5 15L5 16L8 16L8 17L9 17L9 18L7 18L7 17L6 17L6 18L7 18L7 19L6 19L6 20L8 20L8 21L10 21L10 22L8 22L8 23L6 23L6 22L7 22L7 21L5 21L5 18L4 18L4 20L2 20L2 19L1 19L1 20L2 20L2 21L5 21L5 23L4 23L4 24L5 24L5 23L6 23L6 24L7 24L7 25L6 25L6 26L8 26L8 25L9 25L9 27L10 27L10 26L11 26L11 27L15 27L15 28L13 28L13 29L10 29L10 28L9 28L9 29L10 29L10 30L13 30L13 31L11 31L11 32L12 32L12 33L11 33L11 35L6 35L6 34L8 34L8 33L9 33L9 34L10 34L10 33L9 33L9 32L8 32L8 31L4 31L4 32L3 32L3 33L2 33L2 36L1 36L1 38L2 38L2 39L5 39L5 40L4 40L4 41L5 41L5 42L4 42L4 44L2 44L2 45L3 45L3 47L5 47L5 46L4 46L4 44L5 44L5 43L6 43L6 44L7 44L7 43L9 43L9 42L7 42L7 41L5 41L5 40L7 40L7 39L5 39L5 38L8 38L8 37L6 37L6 36L10 36L10 39L9 39L9 40L8 40L8 41L9 41L9 40L10 40L10 42L11 42L11 40L12 40L12 39L14 39L14 38L15 38L15 37L13 37L13 35L14 35L14 36L15 36L15 34L16 34L16 35L17 35L17 36L19 36L19 37L18 37L18 38L19 38L19 39L20 39L20 38L19 38L19 37L23 37L23 38L21 38L21 39L22 39L22 40L20 40L20 42L21 42L21 43L20 43L20 46L17 46L17 48L15 48L15 49L13 49L13 47L12 47L12 49L11 49L11 51L10 51L10 52L9 52L9 53L10 53L10 54L9 54L9 55L10 55L10 54L13 54L13 53L14 53L14 52L13 52L13 53L10 53L10 52L11 52L11 51L12 51L12 50L13 50L13 51L14 51L14 50L15 50L15 51L16 51L16 53L15 53L15 54L16 54L16 53L17 53L17 52L20 52L20 51L18 51L18 50L17 50L17 48L18 48L18 47L19 47L19 48L20 48L20 50L21 50L21 49L23 49L23 47L24 47L24 46L23 46L23 45L25 45L25 48L24 48L24 49L26 49L26 48L30 48L30 47L29 47L29 45L30 45L30 46L31 46L31 47L32 47L32 49L31 49L31 50L32 50L32 51L33 51L33 50L36 50L36 52L37 52L37 51L38 51L38 54L40 54L40 53L42 53L42 52L43 52L43 51L42 51L42 50L41 50L41 48L42 48L42 49L43 49L43 48L44 48L44 49L46 49L46 50L47 50L47 49L48 49L48 48L49 48L49 47L48 47L48 46L50 46L50 48L53 48L53 46L56 46L56 43L55 43L55 44L54 44L54 45L52 45L52 44L53 44L53 43L54 43L54 42L53 42L53 41L51 41L51 42L50 42L50 43L49 43L49 42L48 42L48 41L49 41L49 37L50 37L50 39L51 39L51 40L52 40L52 39L54 39L54 38L53 38L53 35L55 35L55 37L56 37L56 35L55 35L55 34L56 34L56 32L53 32L53 33L52 33L52 32L51 32L51 31L48 31L48 30L47 30L47 29L48 29L48 27L47 27L47 25L50 25L50 26L51 26L51 25L52 25L52 26L53 26L53 27L54 27L54 26L53 26L53 25L54 25L54 24L53 24L53 23L52 23L52 24L49 24L49 23L50 23L50 22L51 22L51 21L49 21L49 22L47 22L47 21L48 21L48 20L47 20L47 19L48 19L48 18L47 18L47 17L48 17L48 16L49 16L49 17L50 17L50 19L51 19L51 18L55 18L55 16L52 16L52 15L50 15L50 14L51 14L51 12L50 12L50 10L48 10L48 11L47 11L47 12L45 12L45 11L46 11L46 10L47 10L47 9L48 9L48 8L46 8L46 6L45 6L45 4L46 4L46 5L47 5L47 3L44 3L44 6L43 6L43 7L44 7L44 6L45 6L45 8L42 8L42 5L40 5L40 6L39 6L39 8L38 8L38 6L37 6L37 7L36 7L36 5L37 5L37 4L36 4L36 5L35 5L35 2L34 2L34 3L32 3L32 4L31 4L31 8L32 8L32 10L31 10L31 11L30 11L30 10L29 10L29 9L28 9L28 11L29 11L29 12L28 12L28 13L26 13L26 12L27 12L27 11L26 11L26 12L25 12L25 10L23 10L23 8L24 8L24 6L23 6L23 5L24 5L24 4L23 4L23 3L26 3L26 4L25 4L25 8L26 8L26 4L29 4L29 1L27 1L27 2L26 2L26 1L25 1L25 2L22 2L22 3L19 3L19 4L21 4L21 7L22 7L22 8L20 8L20 10L21 10L21 11L22 11L22 10L23 10L23 12L25 12L25 14L23 14L23 13L22 13L22 12L20 12L20 11L19 11L19 13L20 13L20 14L19 14L19 15L18 15L18 16L19 16L19 17L17 17L17 13L18 13L18 12L17 12L17 11L18 11L18 10L19 10L19 9L16 9L16 8L19 8L19 7L20 7L20 5L18 5L18 4L17 4L17 3L15 3L15 2L14 2L14 1ZM18 1L18 2L19 2L19 1ZM46 1L46 2L47 2L47 1ZM27 2L27 3L28 3L28 2ZM8 3L8 4L9 4L9 3ZM15 4L15 5L16 5L16 4ZM22 4L22 5L23 5L23 4ZM32 4L32 5L33 5L33 4ZM27 5L27 8L30 8L30 5ZM34 5L34 7L33 7L33 6L32 6L32 7L33 7L33 9L34 9L34 8L35 8L35 9L37 9L37 10L36 10L36 12L35 12L35 13L36 13L36 14L33 14L33 13L34 13L34 12L33 12L33 10L32 10L32 12L31 12L31 13L30 13L30 14L29 14L29 13L28 13L28 14L29 14L29 16L28 16L28 15L27 15L27 14L25 14L25 15L24 15L24 16L26 16L26 15L27 15L27 16L28 16L28 17L26 17L26 19L25 19L25 17L22 17L22 16L21 16L21 15L23 15L23 14L22 14L22 13L21 13L21 15L19 15L19 16L21 16L21 17L22 17L22 18L21 18L21 19L20 19L20 17L19 17L19 18L15 18L15 17L16 17L16 13L17 13L17 12L16 12L16 13L15 13L15 10L16 10L16 9L15 9L15 10L13 10L13 11L14 11L14 12L11 12L11 13L10 13L10 14L9 14L9 13L8 13L8 12L9 12L9 11L8 11L8 12L6 12L6 13L7 13L7 14L6 14L6 15L7 15L7 14L9 14L9 15L10 15L10 16L11 16L11 17L10 17L10 18L9 18L9 19L8 19L8 20L9 20L9 19L10 19L10 21L11 21L11 23L10 23L10 24L9 24L9 23L8 23L8 24L9 24L9 25L10 25L10 24L11 24L11 23L12 23L12 25L13 25L13 24L14 24L14 25L16 25L16 24L17 24L17 27L18 27L18 26L20 26L20 27L19 27L19 28L20 28L20 27L22 27L22 26L26 26L26 27L25 27L25 28L26 28L26 29L23 29L23 30L25 30L25 33L23 33L23 34L24 34L24 36L23 36L23 37L24 37L24 38L23 38L23 39L24 39L24 40L25 40L25 36L27 36L27 31L28 31L28 33L29 33L29 34L30 34L30 36L29 36L29 37L31 37L31 38L29 38L29 39L33 39L33 40L35 40L35 42L37 42L37 43L34 43L34 42L33 42L33 41L32 41L32 40L30 40L30 41L29 41L29 43L28 43L28 44L27 44L27 43L25 43L25 44L27 44L27 45L26 45L26 47L28 47L28 46L27 46L27 45L29 45L29 43L32 43L32 44L30 44L30 45L32 45L32 47L36 47L36 48L35 48L35 49L36 49L36 50L38 50L38 51L40 51L40 52L42 52L42 51L41 51L41 50L38 50L38 49L39 49L39 48L41 48L41 46L43 46L43 47L42 47L42 48L43 48L43 47L44 47L44 48L46 48L46 49L47 49L47 48L48 48L48 47L47 47L47 46L48 46L48 45L47 45L47 43L48 43L48 42L47 42L47 43L46 43L46 44L45 44L45 45L47 45L47 46L45 46L45 47L44 47L44 46L43 46L43 45L44 45L44 43L45 43L45 41L47 41L47 39L48 39L48 37L47 37L47 39L46 39L46 38L45 38L45 37L44 37L44 36L47 36L47 35L44 35L44 36L43 36L43 35L42 35L42 34L45 34L45 33L43 33L43 32L46 32L46 31L47 31L47 32L48 32L48 33L49 33L49 32L48 32L48 31L47 31L47 30L46 30L46 29L47 29L47 27L46 27L46 28L45 28L45 25L44 25L44 24L43 24L43 23L44 23L44 20L46 20L46 19L47 19L47 18L46 18L46 19L45 19L45 18L44 18L44 15L42 15L42 16L41 16L41 14L45 14L45 15L46 15L46 16L45 16L45 17L47 17L47 16L48 16L48 15L49 15L49 14L50 14L50 12L49 12L49 13L47 13L47 14L45 14L45 13L44 13L44 11L45 11L45 10L46 10L46 9L45 9L45 10L44 10L44 9L40 9L40 10L38 10L38 8L35 8L35 5ZM11 6L11 8L12 8L12 6ZM16 6L16 7L17 7L17 6ZM18 6L18 7L19 7L19 6ZM22 6L22 7L23 7L23 6ZM28 6L28 7L29 7L29 6ZM40 6L40 7L41 7L41 6ZM9 8L9 9L10 9L10 8ZM21 9L21 10L22 10L22 9ZM3 10L3 12L4 12L4 13L5 13L5 12L4 12L4 10ZM51 10L51 11L52 11L52 10ZM39 11L39 12L40 12L40 13L38 13L38 14L37 14L37 15L35 15L35 16L33 16L33 15L32 15L32 13L33 13L33 12L32 12L32 13L31 13L31 14L30 14L30 15L31 15L31 16L32 16L32 17L31 17L31 18L30 18L30 19L33 19L33 18L35 18L35 19L36 19L36 20L37 20L37 21L38 21L38 22L37 22L37 24L38 24L38 26L37 26L37 25L33 25L33 24L32 24L32 23L33 23L33 22L34 22L34 23L35 23L35 20L34 20L34 21L33 21L33 20L32 20L32 21L31 21L31 20L29 20L29 19L28 19L28 18L27 18L27 19L26 19L26 21L27 21L27 24L25 24L25 23L26 23L26 22L25 22L25 21L24 21L24 20L23 20L23 19L24 19L24 18L22 18L22 20L20 20L20 19L19 19L19 20L20 20L20 21L19 21L19 22L18 22L18 21L17 21L17 19L15 19L15 18L14 18L14 17L15 17L15 16L14 16L14 15L13 15L13 14L15 14L15 13L13 13L13 14L12 14L12 13L11 13L11 14L10 14L10 15L11 15L11 16L12 16L12 15L13 15L13 16L14 16L14 17L13 17L13 18L12 18L12 17L11 17L11 18L10 18L10 19L11 19L11 18L12 18L12 19L14 19L14 20L11 20L11 21L14 21L14 22L12 22L12 23L14 23L14 22L16 22L16 21L17 21L17 24L19 24L19 25L20 25L20 26L22 26L22 25L23 25L23 23L24 23L24 24L25 24L25 25L26 25L26 26L27 26L27 25L28 25L28 26L30 26L30 25L29 25L29 24L28 24L28 23L29 23L29 22L28 22L28 21L31 21L31 24L32 24L32 26L31 26L31 27L32 27L32 29L31 29L31 30L35 30L35 31L34 31L34 32L33 32L33 31L32 31L32 33L33 33L33 34L32 34L32 35L33 35L33 36L32 36L32 37L33 37L33 38L34 38L34 39L35 39L35 40L38 40L38 42L39 42L39 45L38 45L38 46L39 46L39 45L41 45L41 44L42 44L42 42L41 42L41 41L42 41L42 40L44 40L44 41L43 41L43 43L44 43L44 41L45 41L45 40L44 40L44 39L45 39L45 38L44 38L44 37L43 37L43 36L40 36L40 37L39 37L39 35L40 35L40 34L39 34L39 33L41 33L41 32L43 32L43 30L40 30L40 29L44 29L44 31L45 31L45 28L43 28L43 27L44 27L44 26L39 26L39 25L43 25L43 24L42 24L42 23L41 23L41 24L38 24L38 23L40 23L40 22L39 22L39 21L41 21L41 20L39 20L39 21L38 21L38 19L39 19L39 17L41 17L41 16L39 16L39 15L38 15L38 14L41 14L41 13L43 13L43 11L41 11L41 12L40 12L40 11ZM52 12L52 13L53 13L53 12ZM54 12L54 13L55 13L55 14L56 14L56 12ZM35 16L35 17L37 17L37 18L38 18L38 17L39 17L39 16L38 16L38 17L37 17L37 16ZM42 16L42 17L43 17L43 16ZM50 16L50 17L52 17L52 16ZM32 17L32 18L33 18L33 17ZM41 18L41 19L42 19L42 18ZM43 18L43 20L42 20L42 21L43 21L43 20L44 20L44 18ZM15 20L15 21L16 21L16 20ZM23 21L23 22L24 22L24 21ZM19 22L19 23L20 23L20 22ZM46 22L46 23L45 23L45 24L46 24L46 23L47 23L47 22ZM15 23L15 24L16 24L16 23ZM20 24L20 25L22 25L22 24ZM3 25L3 27L4 27L4 25ZM15 26L15 27L16 27L16 26ZM32 26L32 27L33 27L33 28L35 28L35 29L38 29L38 28L39 28L39 27L36 27L36 26L34 26L34 27L33 27L33 26ZM5 27L5 30L8 30L8 27ZM27 27L27 30L30 30L30 27ZM35 27L35 28L36 28L36 27ZM41 27L41 28L42 28L42 27ZM49 27L49 30L52 30L52 27ZM1 28L1 30L2 30L2 31L1 31L1 32L2 32L2 31L3 31L3 30L4 30L4 28L3 28L3 29L2 29L2 28ZM6 28L6 29L7 29L7 28ZM16 28L16 29L15 29L15 30L14 30L14 31L13 31L13 33L14 33L14 34L15 34L15 33L16 33L16 32L17 32L17 35L19 35L19 36L20 36L20 35L21 35L21 36L22 36L22 35L21 35L21 34L22 34L22 33L21 33L21 32L24 32L24 31L21 31L21 30L20 30L20 29L18 29L18 28ZM21 28L21 29L22 29L22 28ZM28 28L28 29L29 29L29 28ZM50 28L50 29L51 29L51 28ZM54 28L54 29L56 29L56 28ZM16 29L16 30L18 30L18 29ZM19 30L19 31L20 31L20 32L21 32L21 31L20 31L20 30ZM38 30L38 32L39 32L39 30ZM17 31L17 32L18 32L18 31ZM30 31L30 32L29 32L29 33L31 33L31 31ZM5 32L5 34L4 34L4 33L3 33L3 34L4 34L4 35L3 35L3 37L2 37L2 38L5 38L5 37L4 37L4 35L5 35L5 36L6 36L6 35L5 35L5 34L6 34L6 33L7 33L7 32ZM34 32L34 33L35 33L35 34L37 34L37 36L35 36L35 35L34 35L34 36L33 36L33 37L35 37L35 39L37 39L37 38L38 38L38 37L37 37L37 36L38 36L38 33L37 33L37 32ZM50 32L50 34L49 34L49 35L50 35L50 37L51 37L51 36L52 36L52 35L53 35L53 34L52 34L52 33L51 33L51 32ZM18 33L18 34L19 34L19 35L20 35L20 34L21 34L21 33L20 33L20 34L19 34L19 33ZM25 33L25 35L26 35L26 33ZM54 33L54 34L55 34L55 33ZM12 34L12 35L13 35L13 34ZM50 34L50 35L52 35L52 34ZM11 36L11 37L12 37L12 36ZM26 37L26 40L27 40L27 41L26 41L26 42L27 42L27 41L28 41L28 39L27 39L27 38L28 38L28 37ZM40 37L40 38L43 38L43 37ZM11 38L11 39L10 39L10 40L11 40L11 39L12 39L12 38ZM38 39L38 40L39 40L39 39ZM23 41L23 42L22 42L22 43L21 43L21 44L22 44L22 45L21 45L21 47L20 47L20 48L21 48L21 47L23 47L23 46L22 46L22 45L23 45L23 42L25 42L25 41ZM31 41L31 42L32 42L32 43L33 43L33 44L32 44L32 45L33 45L33 46L35 46L35 45L34 45L34 43L33 43L33 42L32 42L32 41ZM39 41L39 42L40 42L40 41ZM2 42L2 43L3 43L3 42ZM6 42L6 43L7 43L7 42ZM51 42L51 43L50 43L50 44L49 44L49 45L50 45L50 46L51 46L51 47L52 47L52 46L51 46L51 45L50 45L50 44L51 44L51 43L53 43L53 42ZM17 44L17 45L18 45L18 44ZM6 45L6 46L7 46L7 45ZM36 45L36 46L37 46L37 45ZM14 46L14 47L15 47L15 46ZM38 47L38 48L37 48L37 49L38 49L38 48L39 48L39 47ZM46 47L46 48L47 48L47 47ZM8 48L8 49L9 49L9 50L10 50L10 49L9 49L9 48ZM33 48L33 49L34 49L34 48ZM54 48L54 49L56 49L56 48ZM27 49L27 52L30 52L30 49ZM49 49L49 52L52 52L52 49ZM16 50L16 51L17 51L17 50ZM28 50L28 51L29 51L29 50ZM50 50L50 51L51 51L51 50ZM54 50L54 51L55 51L55 50ZM43 53L43 54L44 54L44 53ZM18 54L18 55L19 55L19 54ZM42 55L42 56L43 56L43 55ZM48 55L48 56L49 56L49 55ZM50 55L50 56L51 56L51 55ZM53 55L53 56L55 56L55 57L56 57L56 56L55 56L55 55ZM12 56L12 57L13 57L13 56ZM45 56L45 57L46 57L46 56ZM0 0L0 7L7 7L7 0ZM1 1L1 6L6 6L6 1ZM2 2L2 5L5 5L5 2ZM50 0L50 7L57 7L57 0ZM51 1L51 6L56 6L56 1ZM52 2L52 5L55 5L55 2ZM0 50L0 57L7 57L7 50ZM1 51L1 56L6 56L6 51ZM2 52L2 55L5 55L5 52Z" fill="#000000"/></g></g></svg>
