<?xml version="1.0" encoding="UTF-8"?>
<svg xmlns="http://www.w3.org/2000/svg" version="1.1" width="300" height="300" viewBox="0 0 300 300"><rect x="0" y="0" width="300" height="300" fill="#fefefe"/><g transform="scale(4.615)"><g transform="translate(4,4)"><path fill-rule="evenodd" d="M8 0L8 1L9 1L9 2L8 2L8 5L11 5L11 6L10 6L10 7L11 7L11 8L12 8L12 9L11 9L11 10L13 10L13 13L14 13L14 15L13 15L13 14L12 14L12 12L11 12L11 11L10 11L10 8L8 8L8 9L7 9L7 8L6 8L6 9L7 9L7 10L5 10L5 9L4 9L4 8L0 8L0 10L1 10L1 11L0 11L0 13L1 13L1 14L4 14L4 15L2 15L2 17L4 17L4 18L2 18L2 19L1 19L1 18L0 18L0 19L1 19L1 22L0 22L0 23L1 23L1 24L0 24L0 25L2 25L2 24L3 24L3 25L5 25L5 26L0 26L0 27L1 27L1 28L4 28L4 29L3 29L3 30L4 30L4 32L6 32L6 33L3 33L3 34L1 34L1 32L2 32L2 29L0 29L0 30L1 30L1 32L0 32L0 37L1 37L1 38L4 38L4 40L3 40L3 39L2 39L2 40L0 40L0 42L1 42L1 41L2 41L2 44L1 44L1 45L0 45L0 48L5 48L5 47L7 47L7 46L8 46L8 44L9 44L9 43L11 43L11 42L12 42L12 43L13 43L13 47L11 47L11 46L12 46L12 44L11 44L11 45L9 45L9 46L10 46L10 47L11 47L11 48L13 48L13 47L14 47L14 48L15 48L15 47L16 47L16 49L15 49L15 50L16 50L16 49L17 49L17 51L16 51L16 52L19 52L19 54L18 54L18 53L17 53L17 54L16 54L16 53L15 53L15 56L14 56L14 57L15 57L15 56L16 56L16 57L18 57L18 56L17 56L17 55L20 55L20 57L23 57L23 56L22 56L22 55L23 55L23 54L25 54L25 53L29 53L29 54L31 54L31 55L30 55L30 56L31 56L31 57L32 57L32 55L34 55L34 56L33 56L33 57L36 57L36 55L37 55L37 54L36 54L36 53L33 53L33 50L34 50L34 51L35 51L35 52L36 52L36 51L39 51L39 50L40 50L40 49L39 49L39 48L38 48L38 49L37 49L37 48L35 48L35 47L38 47L38 45L39 45L39 46L40 46L40 47L43 47L43 50L46 50L46 52L45 52L45 51L43 51L43 52L42 52L42 53L41 53L41 54L40 54L40 52L41 52L41 51L40 51L40 52L39 52L39 54L38 54L38 57L41 57L41 56L42 56L42 57L43 57L43 56L45 56L45 55L44 55L44 54L47 54L47 55L46 55L46 56L47 56L47 55L49 55L49 57L51 57L51 54L52 54L52 53L53 53L53 56L52 56L52 57L55 57L55 56L54 56L54 55L55 55L55 54L56 54L56 53L57 53L57 51L55 51L55 50L53 50L53 49L55 49L55 48L54 48L54 47L57 47L57 44L52 44L52 43L53 43L53 42L54 42L54 43L56 43L56 41L57 41L57 40L56 40L56 41L55 41L55 42L54 42L54 40L55 40L55 38L56 38L56 39L57 39L57 38L56 38L56 37L57 37L57 31L56 31L56 30L57 30L57 27L56 27L56 28L55 28L55 27L53 27L53 25L56 25L56 24L54 24L54 23L53 23L53 22L54 22L54 21L56 21L56 22L55 22L55 23L57 23L57 19L56 19L56 18L55 18L55 17L57 17L57 15L54 15L54 14L55 14L55 13L54 13L54 10L53 10L53 9L55 9L55 8L52 8L52 9L51 9L51 11L49 11L49 10L50 10L50 8L49 8L49 6L48 6L48 7L47 7L47 5L48 5L48 0L46 0L46 1L47 1L47 2L46 2L46 3L47 3L47 5L46 5L46 4L44 4L44 3L45 3L45 1L44 1L44 2L42 2L42 3L41 3L41 4L38 4L38 3L39 3L39 2L38 2L38 3L37 3L37 1L38 1L38 0L37 0L37 1L36 1L36 0L35 0L35 1L34 1L34 3L33 3L33 0L27 0L27 4L26 4L26 2L24 2L24 3L23 3L23 4L22 4L22 0L21 0L21 2L20 2L20 3L21 3L21 5L20 5L20 4L19 4L19 1L20 1L20 0L17 0L17 1L16 1L16 2L15 2L15 3L16 3L16 2L17 2L17 1L18 1L18 3L17 3L17 4L19 4L19 5L18 5L18 7L19 7L19 8L20 8L20 7L21 7L21 6L22 6L22 7L23 7L23 8L21 8L21 11L23 11L23 12L22 12L22 13L25 13L25 11L26 11L26 10L27 10L27 11L28 11L28 10L27 10L27 9L29 9L29 10L32 10L32 9L31 9L31 6L32 6L32 8L33 8L33 6L32 6L32 5L31 5L31 4L32 4L32 3L33 3L33 5L34 5L34 4L36 4L36 5L40 5L40 7L41 7L41 8L39 8L39 9L41 9L41 10L39 10L39 11L38 11L38 9L37 9L37 11L38 11L38 12L36 12L36 10L35 10L35 11L34 11L34 10L33 10L33 11L32 11L32 12L33 12L33 13L31 13L31 14L30 14L30 13L28 13L28 12L26 12L26 14L25 14L25 15L23 15L23 18L24 18L24 19L25 19L25 20L27 20L27 21L25 21L25 22L24 22L24 21L23 21L23 20L22 20L22 19L21 19L21 22L19 22L19 23L18 23L18 22L17 22L17 21L18 21L18 19L17 19L17 17L15 17L15 16L16 16L16 15L18 15L18 14L16 14L16 15L15 15L15 11L16 11L16 13L17 13L17 12L18 12L18 13L19 13L19 16L20 16L20 17L21 17L21 18L22 18L22 17L21 17L21 13L19 13L19 12L18 12L18 9L17 9L17 11L16 11L16 8L15 8L15 6L16 6L16 7L17 7L17 5L15 5L15 4L14 4L14 3L12 3L12 2L13 2L13 1L11 1L11 2L10 2L10 0ZM14 0L14 1L15 1L15 0ZM23 0L23 1L26 1L26 0ZM39 0L39 1L40 1L40 2L41 2L41 1L43 1L43 0L41 0L41 1L40 1L40 0ZM28 1L28 4L31 4L31 2L32 2L32 1ZM35 1L35 2L36 2L36 1ZM9 2L9 3L10 3L10 4L11 4L11 5L12 5L12 6L11 6L11 7L12 7L12 6L13 6L13 7L14 7L14 6L15 6L15 5L14 5L14 4L13 4L13 5L12 5L12 4L11 4L11 3L10 3L10 2ZM24 4L24 6L23 6L23 7L24 7L24 9L26 9L26 6L25 6L25 5L26 5L26 4ZM41 4L41 5L42 5L42 6L41 6L41 7L42 7L42 6L43 6L43 7L44 7L44 8L43 8L43 9L44 9L44 10L43 10L43 12L42 12L42 11L39 11L39 14L40 14L40 15L41 15L41 16L40 16L40 17L39 17L39 15L35 15L35 14L37 14L37 13L35 13L35 12L34 12L34 14L33 14L33 15L35 15L35 16L34 16L34 17L35 17L35 18L34 18L34 19L35 19L35 20L36 20L36 21L37 21L37 20L40 20L40 19L39 19L39 18L41 18L41 21L44 21L44 22L47 22L47 23L49 23L49 24L50 24L50 25L51 25L51 26L52 26L52 25L53 25L53 24L50 24L50 23L52 23L52 22L51 22L51 21L50 21L50 20L53 20L53 21L54 21L54 20L55 20L55 19L51 19L51 18L54 18L54 17L53 17L53 16L52 16L52 17L49 17L49 11L48 11L48 12L47 12L47 11L45 11L45 7L46 7L46 8L47 8L47 7L46 7L46 5L43 5L43 4ZM13 5L13 6L14 6L14 5ZM27 5L27 8L30 8L30 5ZM8 6L8 7L9 7L9 6ZM19 6L19 7L20 7L20 6ZM24 6L24 7L25 7L25 6ZM28 6L28 7L29 7L29 6ZM34 6L34 9L36 9L36 8L38 8L38 7L39 7L39 6L38 6L38 7L37 7L37 6L36 6L36 7L35 7L35 6ZM44 6L44 7L45 7L45 6ZM13 8L13 10L14 10L14 11L15 11L15 8ZM41 8L41 9L42 9L42 8ZM48 8L48 9L49 9L49 8ZM56 8L56 9L57 9L57 8ZM1 9L1 10L2 10L2 11L3 11L3 13L5 13L5 10L4 10L4 9L3 9L3 10L2 10L2 9ZM19 9L19 11L20 11L20 9ZM22 9L22 10L23 10L23 9ZM46 9L46 10L47 10L47 9ZM3 10L3 11L4 11L4 10ZM7 10L7 11L6 11L6 12L7 12L7 13L6 13L6 14L5 14L5 17L6 17L6 18L7 18L7 19L4 19L4 20L3 20L3 19L2 19L2 20L3 20L3 21L5 21L5 22L3 22L3 23L5 23L5 24L7 24L7 23L5 23L5 22L8 22L8 23L9 23L9 24L8 24L8 26L9 26L9 25L11 25L11 24L10 24L10 23L9 23L9 22L10 22L10 21L11 21L11 19L12 19L12 21L13 21L13 19L15 19L15 20L14 20L14 22L12 22L12 25L14 25L14 26L12 26L12 28L13 28L13 29L12 29L12 30L11 30L11 26L10 26L10 27L9 27L9 28L10 28L10 30L9 30L9 32L10 32L10 34L9 34L9 35L8 35L8 34L7 34L7 33L6 33L6 34L7 34L7 35L6 35L6 36L8 36L8 39L6 39L6 40L5 40L5 41L3 41L3 44L2 44L2 45L3 45L3 47L5 47L5 46L7 46L7 45L6 45L6 44L7 44L7 43L6 43L6 44L4 44L4 43L5 43L5 41L6 41L6 42L7 42L7 41L8 41L8 42L9 42L9 40L10 40L10 42L11 42L11 40L12 40L12 41L13 41L13 39L11 39L11 38L10 38L10 39L9 39L9 36L10 36L10 37L12 37L12 38L13 38L13 34L12 34L12 35L11 35L11 36L10 36L10 34L11 34L11 32L12 32L12 30L13 30L13 32L14 32L14 36L15 36L15 38L14 38L14 39L15 39L15 38L17 38L17 39L16 39L16 40L17 40L17 39L18 39L18 38L19 38L19 37L20 37L20 38L22 38L22 39L21 39L21 40L22 40L22 41L19 41L19 40L18 40L18 41L19 41L19 43L18 43L18 42L15 42L15 40L14 40L14 42L13 42L13 43L14 43L14 45L15 45L15 46L16 46L16 47L19 47L19 49L18 49L18 51L19 51L19 52L20 52L20 50L19 50L19 49L20 49L20 48L21 48L21 50L22 50L22 49L23 49L23 51L21 51L21 52L22 52L22 53L20 53L20 55L22 55L22 53L23 53L23 52L24 52L24 53L25 53L25 52L26 52L26 50L25 50L25 49L26 49L26 48L27 48L27 46L28 46L28 47L29 47L29 48L32 48L32 49L34 49L34 50L35 50L35 48L32 48L32 46L33 46L33 47L34 47L34 46L35 46L35 44L36 44L36 45L38 45L38 44L41 44L41 42L40 42L40 41L42 41L42 42L43 42L43 43L42 43L42 45L43 45L43 46L45 46L45 47L44 47L44 49L46 49L46 50L47 50L47 52L46 52L46 53L47 53L47 54L50 54L50 53L47 53L47 52L48 52L48 48L47 48L47 47L49 47L49 48L52 48L52 46L53 46L53 45L52 45L52 44L51 44L51 42L50 42L50 41L52 41L52 40L53 40L53 39L52 39L52 40L50 40L50 41L47 41L47 40L49 40L49 38L48 38L48 36L47 36L47 34L50 34L50 33L49 33L49 32L48 32L48 30L47 30L47 32L46 32L46 31L45 31L45 30L46 30L46 26L49 26L49 25L46 25L46 23L43 23L43 22L41 22L41 23L39 23L39 24L38 24L38 25L39 25L39 26L38 26L38 27L40 27L40 30L39 30L39 29L38 29L38 30L37 30L37 27L35 27L35 25L34 25L34 27L35 27L35 28L34 28L34 29L36 29L36 30L35 30L35 31L37 31L37 32L36 32L36 33L37 33L37 32L38 32L38 34L39 34L39 31L40 31L40 32L41 32L41 31L43 31L43 30L44 30L44 34L45 34L45 36L44 36L44 37L43 37L43 35L42 35L42 34L41 34L41 35L37 35L37 37L35 37L35 36L36 36L36 35L35 35L35 32L34 32L34 33L33 33L33 31L32 31L32 30L33 30L33 29L32 29L32 30L31 30L31 34L30 34L30 35L29 35L29 33L30 33L30 32L28 32L28 31L26 31L26 32L28 32L28 33L27 33L27 34L28 34L28 35L29 35L29 36L26 36L26 35L25 35L25 34L26 34L26 33L25 33L25 34L24 34L24 35L23 35L23 36L22 36L22 35L20 35L20 34L21 34L21 32L22 32L22 31L23 31L23 33L22 33L22 34L23 34L23 33L24 33L24 32L25 32L25 30L26 30L26 28L24 28L24 26L25 26L25 25L27 25L27 26L28 26L28 25L29 25L29 26L31 26L31 23L32 23L32 22L34 22L34 23L33 23L33 24L32 24L32 25L33 25L33 24L35 24L35 23L36 23L36 24L37 24L37 22L35 22L35 21L34 21L34 20L33 20L33 17L32 17L32 16L29 16L29 15L28 15L28 16L29 16L29 17L27 17L27 18L26 18L26 19L27 19L27 20L29 20L29 21L30 21L30 20L29 20L29 19L28 19L28 18L29 18L29 17L30 17L30 19L32 19L32 20L31 20L31 22L30 22L30 24L28 24L28 23L29 23L29 22L25 22L25 25L24 25L24 24L23 24L23 21L22 21L22 23L20 23L20 24L21 24L21 26L19 26L19 25L17 25L17 24L18 24L18 23L16 23L16 19L15 19L15 18L14 18L14 17L12 17L12 16L13 16L13 15L12 15L12 14L11 14L11 12L9 12L9 11L8 11L8 10ZM52 10L52 11L51 11L51 12L50 12L50 13L51 13L51 15L53 15L53 14L52 14L52 13L53 13L53 10ZM55 10L55 11L56 11L56 13L57 13L57 10ZM30 11L30 12L31 12L31 11ZM1 12L1 13L2 13L2 12ZM8 12L8 13L7 13L7 14L6 14L6 15L7 15L7 14L8 14L8 13L9 13L9 12ZM43 12L43 13L44 13L44 14L46 14L46 13L44 13L44 12ZM51 12L51 13L52 13L52 12ZM40 13L40 14L41 14L41 13ZM10 14L10 15L11 15L11 14ZM26 14L26 16L25 16L25 17L24 17L24 18L25 18L25 17L26 17L26 16L27 16L27 14ZM42 14L42 17L41 17L41 18L42 18L42 19L43 19L43 18L42 18L42 17L45 17L45 18L44 18L44 19L46 19L46 18L48 18L48 14L47 14L47 15L45 15L45 16L44 16L44 15L43 15L43 14ZM14 15L14 16L15 16L15 15ZM0 16L0 17L1 17L1 16ZM6 16L6 17L7 17L7 16ZM8 16L8 18L9 18L9 19L7 19L7 20L5 20L5 21L10 21L10 18L9 18L9 17L11 17L11 18L12 18L12 17L11 17L11 16ZM45 16L45 17L46 17L46 16ZM36 17L36 18L37 18L37 17ZM49 18L49 19L47 19L47 22L49 22L49 20L50 20L50 18ZM19 19L19 20L20 20L20 19ZM36 19L36 20L37 20L37 19ZM45 20L45 21L46 21L46 20ZM38 21L38 22L39 22L39 21ZM1 22L1 23L2 23L2 22ZM14 22L14 24L15 24L15 26L16 26L16 23L15 23L15 22ZM26 23L26 24L27 24L27 23ZM41 23L41 24L42 24L42 25L43 25L43 26L42 26L42 27L41 27L41 30L42 30L42 29L43 29L43 28L44 28L44 30L45 30L45 27L43 27L43 26L46 26L46 25L44 25L44 24L42 24L42 23ZM6 25L6 26L7 26L7 25ZM22 25L22 27L23 27L23 25ZM17 26L17 27L13 27L13 28L15 28L15 29L16 29L16 30L15 30L15 32L16 32L16 33L17 33L17 34L16 34L16 35L17 35L17 34L18 34L18 32L19 32L19 34L20 34L20 32L21 32L21 31L19 31L19 30L18 30L18 31L17 31L17 32L16 32L16 30L17 30L17 27L19 27L19 26ZM5 27L5 30L8 30L8 27ZM20 27L20 28L21 28L21 27ZM27 27L27 30L30 30L30 27ZM32 27L32 28L33 28L33 27ZM42 27L42 28L43 28L43 27ZM49 27L49 30L52 30L52 27ZM6 28L6 29L7 29L7 28ZM18 28L18 29L19 29L19 28ZM28 28L28 29L29 29L29 28ZM47 28L47 29L48 29L48 28ZM50 28L50 29L51 29L51 28ZM53 28L53 29L54 29L54 30L53 30L53 31L52 31L52 34L54 34L54 33L55 33L55 31L54 31L54 30L56 30L56 29L54 29L54 28ZM21 29L21 30L23 30L23 31L24 31L24 29ZM38 30L38 31L39 31L39 30ZM6 31L6 32L8 32L8 31ZM10 31L10 32L11 32L11 31ZM42 32L42 33L43 33L43 32ZM45 32L45 33L46 33L46 32ZM53 32L53 33L54 33L54 32ZM32 33L32 34L31 34L31 35L32 35L32 36L29 36L29 38L26 38L26 41L25 41L25 39L24 39L24 37L25 37L25 36L23 36L23 37L22 37L22 38L23 38L23 39L24 39L24 41L25 41L25 42L23 42L23 41L22 41L22 44L19 44L19 45L17 45L17 43L15 43L15 42L14 42L14 43L15 43L15 45L17 45L17 46L19 46L19 47L20 47L20 45L21 45L21 46L22 46L22 47L21 47L21 48L23 48L23 49L24 49L24 48L23 48L23 47L25 47L25 48L26 48L26 47L25 47L25 45L26 45L26 46L27 46L27 45L26 45L26 43L25 43L25 42L27 42L27 41L28 41L28 42L29 42L29 43L27 43L27 44L29 44L29 45L30 45L30 46L32 46L32 45L31 45L31 44L32 44L32 42L33 42L33 45L34 45L34 44L35 44L35 43L34 43L34 42L36 42L36 41L34 41L34 40L35 40L35 39L36 39L36 38L34 38L34 37L33 37L33 38L32 38L32 36L33 36L33 33ZM55 34L55 35L54 35L54 36L55 36L55 37L53 37L53 36L52 36L52 35L51 35L51 37L52 37L52 38L55 38L55 37L56 37L56 34ZM1 35L1 37L3 37L3 36L4 36L4 35ZM17 36L17 38L18 38L18 37L19 37L19 36ZM39 36L39 37L37 37L37 39L38 39L38 40L37 40L37 41L40 41L40 40L42 40L42 39L43 39L43 40L44 40L44 41L45 41L45 42L44 42L44 43L45 43L45 44L49 44L49 45L47 45L47 46L46 46L46 47L45 47L45 48L46 48L46 47L47 47L47 46L49 46L49 47L51 47L51 45L50 45L50 44L49 44L49 43L50 43L50 42L47 42L47 41L46 41L46 40L47 40L47 39L48 39L48 38L46 38L46 36L45 36L45 38L46 38L46 40L45 40L45 39L44 39L44 38L42 38L42 39L41 39L41 37L40 37L40 36ZM49 36L49 37L50 37L50 36ZM4 37L4 38L5 38L5 37ZM6 37L6 38L7 38L7 37ZM30 38L30 39L28 39L28 40L29 40L29 41L31 41L31 40L33 40L33 39L32 39L32 38ZM38 38L38 39L39 39L39 38ZM50 38L50 39L51 39L51 38ZM10 39L10 40L11 40L11 39ZM6 40L6 41L7 41L7 40ZM20 42L20 43L21 43L21 42ZM37 42L37 44L38 44L38 43L39 43L39 42ZM45 42L45 43L46 43L46 42ZM23 43L23 44L22 44L22 46L23 46L23 45L25 45L25 43ZM29 43L29 44L31 44L31 43ZM49 45L49 46L50 46L50 45ZM55 45L55 46L56 46L56 45ZM1 46L1 47L2 47L2 46ZM6 48L6 49L7 49L7 48ZM8 48L8 50L9 50L9 52L10 52L10 54L11 54L11 52L13 52L13 54L14 54L14 52L15 52L15 51L14 51L14 50L13 50L13 49L11 49L11 50L9 50L9 49L10 49L10 48ZM41 48L41 49L42 49L42 48ZM56 48L56 49L57 49L57 48ZM27 49L27 52L30 52L30 49ZM36 49L36 50L37 50L37 49ZM49 49L49 52L52 52L52 49ZM12 50L12 51L13 51L13 50ZM24 50L24 51L25 51L25 50ZM28 50L28 51L29 51L29 50ZM31 50L31 53L32 53L32 50ZM50 50L50 51L51 51L51 50ZM54 52L54 54L55 54L55 53L56 53L56 52ZM8 53L8 57L11 57L11 56L13 56L13 55L11 55L11 56L10 56L10 55L9 55L9 53ZM42 53L42 54L43 54L43 53ZM26 54L26 55L27 55L27 56L28 56L28 55L27 55L27 54ZM34 54L34 55L36 55L36 54ZM24 55L24 56L25 56L25 55ZM39 55L39 56L41 56L41 55ZM56 55L56 56L57 56L57 55ZM0 0L0 7L7 7L7 0ZM1 1L1 6L6 6L6 1ZM2 2L2 5L5 5L5 2ZM50 0L50 7L57 7L57 0ZM51 1L51 6L56 6L56 1ZM52 2L52 5L55 5L55 2ZM0 50L0 57L7 57L7 50ZM1 51L1 56L6 56L6 51ZM2 52L2 55L5 55L5 52Z" fill="#000000"/></g></g></svg>
