<?xml version="1.0" encoding="UTF-8"?>
<svg xmlns="http://www.w3.org/2000/svg" version="1.1" width="300" height="300" viewBox="0 0 300 300"><rect x="0" y="0" width="300" height="300" fill="#fefefe"/><g transform="scale(4.615)"><g transform="translate(4,4)"><path fill-rule="evenodd" d="M9 0L9 1L8 1L8 2L10 2L10 3L8 3L8 4L9 4L9 5L8 5L8 7L9 7L9 8L6 8L6 9L5 9L5 8L0 8L0 10L1 10L1 11L0 11L0 12L1 12L1 11L2 11L2 13L0 13L0 14L1 14L1 15L2 15L2 16L1 16L1 17L2 17L2 21L1 21L1 22L0 22L0 23L3 23L3 24L0 24L0 25L1 25L1 26L3 26L3 28L2 28L2 27L0 27L0 29L1 29L1 30L0 30L0 31L1 31L1 32L3 32L3 31L2 31L2 29L3 29L3 30L4 30L4 33L0 33L0 34L4 34L4 36L3 36L3 37L1 37L1 35L0 35L0 37L1 37L1 40L0 40L0 41L1 41L1 42L2 42L2 43L1 43L1 44L0 44L0 48L5 48L5 47L7 47L7 48L6 48L6 49L8 49L8 51L9 51L9 52L8 52L8 57L9 57L9 55L10 55L10 57L12 57L12 56L14 56L14 57L15 57L15 55L16 55L16 56L17 56L17 57L21 57L21 56L19 56L19 55L20 55L20 54L19 54L19 53L20 53L20 52L23 52L23 51L22 51L22 50L26 50L26 52L24 52L24 53L21 53L21 55L23 55L23 56L24 56L24 57L26 57L26 56L27 56L27 57L29 57L29 56L30 56L30 57L31 57L31 56L35 56L35 57L39 57L39 56L41 56L41 54L42 54L42 55L44 55L44 54L45 54L45 53L47 53L47 55L49 55L49 56L50 56L50 57L52 57L52 55L51 55L51 53L52 53L52 54L53 54L53 52L54 52L54 53L56 53L56 52L55 52L55 51L56 51L56 49L57 49L57 48L56 48L56 46L57 46L57 45L56 45L56 44L55 44L55 43L56 43L56 42L57 42L57 41L56 41L56 42L55 42L55 39L57 39L57 37L56 37L56 36L55 36L55 35L56 35L56 34L55 34L55 32L56 32L56 33L57 33L57 32L56 32L56 30L57 30L57 29L56 29L56 28L57 28L57 27L55 27L55 26L57 26L57 25L56 25L56 22L57 22L57 21L56 21L56 22L55 22L55 23L54 23L54 24L53 24L53 26L52 26L52 25L51 25L51 26L50 26L50 25L49 25L49 24L48 24L48 23L49 23L49 21L51 21L51 22L50 22L50 24L51 24L51 23L53 23L53 22L54 22L54 21L51 21L51 20L52 20L52 19L53 19L53 20L55 20L55 19L56 19L56 20L57 20L57 19L56 19L56 18L57 18L57 17L56 17L56 16L57 16L57 15L56 15L56 14L57 14L57 13L56 13L56 14L53 14L53 13L54 13L54 12L55 12L55 11L56 11L56 10L54 10L54 11L53 11L53 10L51 10L51 11L50 11L50 8L49 8L49 6L48 6L48 7L47 7L47 5L48 5L48 0L46 0L46 1L47 1L47 2L44 2L44 3L43 3L43 4L40 4L40 5L39 5L39 6L38 6L38 3L36 3L36 0L35 0L35 1L32 1L32 3L30 3L30 2L28 2L28 3L29 3L29 4L26 4L26 3L23 3L23 2L27 2L27 1L26 1L26 0L23 0L23 2L22 2L22 3L23 3L23 4L24 4L24 5L23 5L23 6L22 6L22 4L19 4L19 3L18 3L18 4L17 4L17 6L16 6L16 7L15 7L15 5L16 5L16 4L15 4L15 5L14 5L14 7L15 7L15 9L17 9L17 10L13 10L13 9L14 9L14 8L13 8L13 9L12 9L12 11L11 11L11 10L10 10L10 8L12 8L12 7L13 7L13 6L12 6L12 7L11 7L11 6L10 6L10 7L9 7L9 5L11 5L11 3L12 3L12 4L14 4L14 2L16 2L16 1L15 1L15 0L14 0L14 2L13 2L13 3L12 3L12 1L13 1L13 0L11 0L11 2L10 2L10 0ZM18 0L18 2L19 2L19 1L20 1L20 2L21 2L21 1L22 1L22 0L21 0L21 1L20 1L20 0ZM28 0L28 1L31 1L31 0ZM37 0L37 1L38 1L38 2L39 2L39 3L42 3L42 2L43 2L43 0L41 0L41 1L40 1L40 0L39 0L39 1L38 1L38 0ZM33 2L33 3L32 3L32 4L31 4L31 8L32 8L32 10L31 10L31 11L29 11L29 12L28 12L28 13L26 13L26 12L27 12L27 11L26 11L26 12L25 12L25 11L23 11L23 13L22 13L22 12L21 12L21 11L22 11L22 10L24 10L24 9L25 9L25 8L26 8L26 4L25 4L25 8L24 8L24 6L23 6L23 8L19 8L19 7L20 7L20 5L19 5L19 4L18 4L18 6L17 6L17 7L16 7L16 8L17 8L17 7L18 7L18 8L19 8L19 9L20 9L20 10L21 10L21 11L20 11L20 12L19 12L19 13L20 13L20 15L19 15L19 16L20 16L20 18L21 18L21 19L18 19L18 18L19 18L19 17L16 17L16 16L18 16L18 15L17 15L17 13L18 13L18 12L17 12L17 11L18 11L18 10L17 10L17 11L15 11L15 13L13 13L13 12L14 12L14 11L12 11L12 13L11 13L11 12L10 12L10 13L11 13L11 15L10 15L10 14L9 14L9 12L8 12L8 11L6 11L6 10L7 10L7 9L6 9L6 10L5 10L5 9L1 9L1 10L2 10L2 11L3 11L3 12L4 12L4 13L3 13L3 16L2 16L2 17L4 17L4 18L3 18L3 19L4 19L4 23L6 23L6 24L7 24L7 25L6 25L6 26L8 26L8 24L7 24L7 23L9 23L9 24L10 24L10 25L11 25L11 26L9 26L9 27L11 27L11 28L9 28L9 29L11 29L11 30L13 30L13 31L12 31L12 33L11 33L11 31L10 31L10 33L11 33L11 34L9 34L9 32L7 32L7 31L5 31L5 33L6 33L6 34L5 34L5 35L6 35L6 36L7 36L7 35L8 35L8 37L9 37L9 38L10 38L10 37L11 37L11 36L12 36L12 37L14 37L14 38L13 38L13 40L15 40L15 39L16 39L16 40L17 40L17 41L15 41L15 43L18 43L18 42L19 42L19 44L20 44L20 42L21 42L21 43L22 43L22 42L23 42L23 40L24 40L24 41L25 41L25 43L27 43L27 44L24 44L24 43L23 43L23 44L24 44L24 45L22 45L22 44L21 44L21 45L19 45L19 46L20 46L20 47L19 47L19 49L20 49L20 50L18 50L18 51L21 51L21 49L23 49L23 48L24 48L24 49L25 49L25 47L26 47L26 48L27 48L27 47L28 47L28 48L30 48L30 47L29 47L29 46L30 46L30 45L31 45L31 46L32 46L32 45L33 45L33 46L35 46L35 47L34 47L34 50L33 50L33 48L32 48L32 47L31 47L31 48L32 48L32 50L31 50L31 53L30 53L30 54L27 54L27 56L29 56L29 55L30 55L30 56L31 56L31 54L32 54L32 53L33 53L33 54L34 54L34 55L35 55L35 56L36 56L36 54L35 54L35 53L33 53L33 52L32 52L32 51L34 51L34 52L35 52L35 51L34 51L34 50L36 50L36 52L38 52L38 53L37 53L37 54L40 54L40 53L41 53L41 52L42 52L42 50L41 50L41 48L42 48L42 49L43 49L43 51L45 51L45 52L44 52L44 53L43 53L43 54L44 54L44 53L45 53L45 52L46 52L46 50L47 50L47 53L48 53L48 50L47 50L47 49L48 49L48 48L49 48L49 47L48 47L48 46L47 46L47 45L49 45L49 46L50 46L50 47L51 47L51 48L52 48L52 47L54 47L54 46L53 46L53 45L51 45L51 44L53 44L53 43L54 43L54 42L53 42L53 41L54 41L54 40L53 40L53 41L51 41L51 42L50 42L50 43L48 43L48 44L47 44L47 45L45 45L45 44L46 44L46 43L47 43L47 42L48 42L48 41L49 41L49 40L50 40L50 39L51 39L51 40L52 40L52 39L55 39L55 38L54 38L54 37L53 37L53 35L55 35L55 34L54 34L54 32L53 32L53 33L52 33L52 32L51 32L51 31L50 31L50 32L49 32L49 31L48 31L48 29L46 29L46 30L47 30L47 31L48 31L48 32L46 32L46 33L45 33L45 32L43 32L43 30L44 30L44 31L45 31L45 30L44 30L44 29L45 29L45 28L46 28L46 27L47 27L47 28L48 28L48 26L47 26L47 25L48 25L48 24L46 24L46 23L45 23L45 22L47 22L47 21L45 21L45 20L47 20L47 17L45 17L45 16L47 16L47 15L44 15L44 14L47 14L47 13L49 13L49 12L50 12L50 14L49 14L49 15L48 15L48 16L49 16L49 17L50 17L50 18L48 18L48 19L52 19L52 18L51 18L51 17L53 17L53 18L56 18L56 17L55 17L55 16L53 16L53 15L52 15L52 16L51 16L51 15L50 15L50 14L51 14L51 12L50 12L50 11L49 11L49 10L47 10L47 9L48 9L48 8L47 8L47 9L45 9L45 7L46 7L46 6L45 6L45 4L46 4L46 5L47 5L47 3L44 3L44 6L43 6L43 5L40 5L40 6L39 6L39 9L38 9L38 6L37 6L37 7L36 7L36 5L37 5L37 4L36 4L36 5L35 5L35 2ZM32 4L32 5L34 5L34 7L33 7L33 6L32 6L32 7L33 7L33 9L34 9L34 8L35 8L35 9L37 9L37 10L36 10L36 12L35 12L35 14L33 14L33 13L34 13L34 12L33 12L33 10L32 10L32 12L31 12L31 13L30 13L30 14L29 14L29 13L28 13L28 14L29 14L29 16L28 16L28 15L27 15L27 14L25 14L25 12L24 12L24 13L23 13L23 14L22 14L22 13L21 13L21 12L20 12L20 13L21 13L21 15L23 15L23 16L26 16L26 15L27 15L27 16L28 16L28 17L26 17L26 19L25 19L25 17L22 17L22 16L21 16L21 17L22 17L22 18L24 18L24 19L21 19L21 20L24 20L24 21L23 21L23 22L24 22L24 21L25 21L25 22L26 22L26 23L25 23L25 24L24 24L24 23L23 23L23 25L22 25L22 24L18 24L18 23L20 23L20 22L19 22L19 21L20 21L20 20L18 20L18 19L17 19L17 18L16 18L16 17L15 17L15 21L16 21L16 22L15 22L15 23L14 23L14 25L13 25L13 23L12 23L12 26L11 26L11 27L12 27L12 29L13 29L13 30L14 30L14 31L16 31L16 29L18 29L18 30L19 30L19 31L20 31L20 32L18 32L18 31L17 31L17 32L18 32L18 33L17 33L17 34L18 34L18 35L19 35L19 36L17 36L17 35L16 35L16 36L17 36L17 37L19 37L19 38L20 38L20 39L17 39L17 40L18 40L18 41L17 41L17 42L18 42L18 41L19 41L19 42L20 42L20 40L23 40L23 39L24 39L24 40L25 40L25 39L26 39L26 40L27 40L27 41L26 41L26 42L27 42L27 41L28 41L28 39L27 39L27 38L28 38L28 37L26 37L26 38L25 38L25 36L26 36L26 35L27 35L27 31L29 31L29 32L28 32L28 33L29 33L29 34L30 34L30 36L29 36L29 37L31 37L31 38L29 38L29 39L33 39L33 40L35 40L35 42L37 42L37 43L34 43L34 42L33 42L33 41L32 41L32 40L31 40L31 41L32 41L32 42L29 42L29 43L28 43L28 44L29 44L29 43L32 43L32 44L31 44L31 45L32 45L32 44L33 44L33 43L34 43L34 45L35 45L35 46L36 46L36 48L35 48L35 49L36 49L36 50L38 50L38 52L39 52L39 51L40 51L40 52L41 52L41 50L38 50L38 49L39 49L39 48L41 48L41 46L43 46L43 47L42 47L42 48L43 48L43 49L44 49L44 50L46 50L46 49L44 49L44 48L45 48L45 47L46 47L46 48L48 48L48 47L47 47L47 46L45 46L45 47L44 47L44 46L43 46L43 45L44 45L44 41L42 41L42 40L45 40L45 39L46 39L46 40L47 40L47 39L50 39L50 38L51 38L51 39L52 39L52 38L51 38L51 37L52 37L52 35L53 35L53 34L52 34L52 33L51 33L51 32L50 32L50 34L49 34L49 35L50 35L50 38L49 38L49 37L48 37L48 38L47 38L47 39L46 39L46 38L45 38L45 37L47 37L47 35L46 35L46 34L45 34L45 33L43 33L43 32L41 32L41 33L39 33L39 34L40 34L40 35L39 35L39 36L38 36L38 37L37 37L37 36L35 36L35 34L37 34L37 35L38 35L38 33L37 33L37 32L35 32L35 34L34 34L34 33L33 33L33 34L32 34L32 31L33 31L33 32L34 32L34 31L35 31L35 30L32 30L32 28L31 28L31 26L32 26L32 27L33 27L33 28L35 28L35 29L38 29L38 28L39 28L39 27L36 27L36 26L34 26L34 27L33 27L33 26L32 26L32 24L33 24L33 25L37 25L37 26L38 26L38 24L39 24L39 25L40 25L40 24L41 24L41 28L42 28L42 26L44 26L44 24L43 24L43 23L44 23L44 20L45 20L45 18L44 18L44 15L42 15L42 16L41 16L41 15L40 15L40 14L38 14L38 13L40 13L40 12L41 12L41 11L45 11L45 12L49 12L49 11L47 11L47 10L45 10L45 9L44 9L44 7L45 7L45 6L44 6L44 7L43 7L43 6L42 6L42 7L41 7L41 6L40 6L40 7L41 7L41 8L42 8L42 9L41 9L41 11L40 11L40 10L38 10L38 9L37 9L37 8L35 8L35 5L34 5L34 4ZM27 5L27 8L30 8L30 5ZM18 6L18 7L19 7L19 6ZM21 6L21 7L22 7L22 6ZM28 6L28 7L29 7L29 6ZM23 8L23 9L24 9L24 8ZM51 8L51 9L52 9L52 8ZM53 8L53 9L54 9L54 8ZM55 8L55 9L56 9L56 8ZM43 9L43 10L44 10L44 9ZM37 10L37 11L38 11L38 10ZM5 11L5 13L4 13L4 14L5 14L5 15L4 15L4 16L5 16L5 15L7 15L7 16L6 16L6 17L7 17L7 18L6 18L6 19L7 19L7 18L9 18L9 19L8 19L8 20L10 20L10 21L7 21L7 20L5 20L5 21L7 21L7 22L6 22L6 23L7 23L7 22L10 22L10 24L11 24L11 22L14 22L14 21L13 21L13 20L14 20L14 19L13 19L13 20L10 20L10 18L14 18L14 16L16 16L16 13L17 13L17 12L16 12L16 13L15 13L15 14L13 14L13 13L12 13L12 14L13 14L13 15L11 15L11 16L10 16L10 15L9 15L9 14L8 14L8 15L7 15L7 14L5 14L5 13L8 13L8 12L6 12L6 11ZM39 11L39 12L40 12L40 11ZM32 12L32 13L31 13L31 14L30 14L30 15L31 15L31 16L32 16L32 17L31 17L31 18L30 18L30 20L27 20L27 19L28 19L28 18L27 18L27 19L26 19L26 21L28 21L28 22L27 22L27 24L25 24L25 25L26 25L26 26L25 26L25 27L24 27L24 26L22 26L22 25L20 25L20 28L22 28L22 29L19 29L19 26L18 26L18 25L17 25L17 24L16 24L16 23L15 23L15 24L16 24L16 25L15 25L15 27L14 27L14 28L13 28L13 29L16 29L16 27L17 27L17 28L18 28L18 29L19 29L19 30L20 30L20 31L24 31L24 30L23 30L23 28L25 28L25 29L26 29L26 28L25 28L25 27L26 27L26 26L27 26L27 25L28 25L28 26L29 26L29 24L30 24L30 23L31 23L31 24L32 24L32 23L33 23L33 22L34 22L34 23L35 23L35 19L36 19L36 20L38 20L38 21L37 21L37 22L39 22L39 24L40 24L40 22L39 22L39 21L43 21L43 20L44 20L44 18L43 18L43 19L42 19L42 18L41 18L41 20L38 20L38 19L39 19L39 17L41 17L41 16L39 16L39 15L38 15L38 14L37 14L37 13L36 13L36 14L37 14L37 15L35 15L35 16L33 16L33 15L31 15L31 14L32 14L32 13L33 13L33 12ZM43 12L43 13L41 13L41 14L43 14L43 13L44 13L44 12ZM52 12L52 13L53 13L53 12ZM23 14L23 15L25 15L25 14ZM8 15L8 16L7 16L7 17L8 17L8 16L9 16L9 18L10 18L10 16L9 16L9 15ZM49 15L49 16L50 16L50 15ZM11 16L11 17L12 17L12 16ZM35 16L35 17L37 17L37 18L38 18L38 17L39 17L39 16L38 16L38 17L37 17L37 16ZM42 16L42 17L43 17L43 16ZM32 17L32 18L31 18L31 20L30 20L30 21L29 21L29 23L30 23L30 22L31 22L31 21L32 21L32 20L33 20L33 21L34 21L34 19L35 19L35 18L33 18L33 17ZM0 18L0 20L1 20L1 18ZM4 18L4 19L5 19L5 18ZM32 18L32 19L33 19L33 18ZM16 20L16 21L17 21L17 20ZM2 21L2 22L3 22L3 21ZM21 21L21 22L22 22L22 21ZM41 22L41 24L42 24L42 22ZM37 23L37 24L38 24L38 23ZM3 24L3 26L5 26L5 25L4 25L4 24ZM54 24L54 25L55 25L55 24ZM12 26L12 27L13 27L13 26ZM17 26L17 27L18 27L18 26ZM21 26L21 27L22 27L22 26ZM45 26L45 27L44 27L44 28L43 28L43 29L39 29L39 30L38 30L38 32L39 32L39 31L41 31L41 30L43 30L43 29L44 29L44 28L45 28L45 27L46 27L46 26ZM53 26L53 27L54 27L54 26ZM5 27L5 30L8 30L8 27ZM27 27L27 30L30 30L30 27ZM49 27L49 30L52 30L52 27ZM3 28L3 29L4 29L4 28ZM6 28L6 29L7 29L7 28ZM28 28L28 29L29 29L29 28ZM50 28L50 29L51 29L51 28ZM54 28L54 29L53 29L53 30L54 30L54 29L55 29L55 28ZM31 30L31 31L30 31L30 32L29 32L29 33L31 33L31 31L32 31L32 30ZM6 32L6 33L7 33L7 32ZM13 32L13 33L12 33L12 34L11 34L11 35L12 35L12 34L13 34L13 36L15 36L15 35L14 35L14 34L15 34L15 33L16 33L16 32L15 32L15 33L14 33L14 32ZM21 32L21 33L18 33L18 34L20 34L20 35L21 35L21 36L19 36L19 37L23 37L23 38L22 38L22 39L23 39L23 38L24 38L24 37L23 37L23 36L24 36L24 34L23 34L23 33L25 33L25 34L26 34L26 32ZM48 32L48 33L49 33L49 32ZM21 33L21 34L22 34L22 36L23 36L23 34L22 34L22 33ZM6 34L6 35L7 35L7 34ZM8 34L8 35L9 35L9 36L10 36L10 35L9 35L9 34ZM31 34L31 35L32 35L32 34ZM33 34L33 36L32 36L32 37L34 37L34 38L33 38L33 39L34 39L34 38L35 38L35 36L34 36L34 34ZM42 34L42 36L44 36L44 37L43 37L43 38L42 38L42 37L41 37L41 36L40 36L40 37L38 37L38 38L37 38L37 39L35 39L35 40L38 40L38 42L39 42L39 45L38 45L38 46L39 46L39 47L38 47L38 48L37 48L37 49L38 49L38 48L39 48L39 47L40 47L40 46L39 46L39 45L41 45L41 44L42 44L42 43L41 43L41 44L40 44L40 42L41 42L41 38L42 38L42 39L45 39L45 38L44 38L44 37L45 37L45 36L44 36L44 35L45 35L45 34ZM50 34L50 35L52 35L52 34ZM3 37L3 38L2 38L2 39L3 39L3 42L4 42L4 43L3 43L3 44L1 44L1 47L2 47L2 45L3 45L3 47L5 47L5 46L8 46L8 47L10 47L10 48L9 48L9 49L10 49L10 51L11 51L11 48L12 48L12 49L13 49L13 50L12 50L12 51L13 51L13 53L14 53L14 54L16 54L16 53L17 53L17 51L16 51L16 50L17 50L17 49L15 49L15 51L14 51L14 48L13 48L13 47L14 47L14 42L13 42L13 44L10 44L10 42L11 42L11 43L12 43L12 41L10 41L10 42L9 42L9 41L5 41L5 40L7 40L7 39L5 39L5 38L4 38L4 37ZM6 37L6 38L7 38L7 37ZM15 37L15 38L14 38L14 39L15 39L15 38L16 38L16 37ZM40 37L40 38L41 38L41 37ZM3 38L3 39L4 39L4 40L5 40L5 39L4 39L4 38ZM10 39L10 40L12 40L12 39ZM38 39L38 40L39 40L39 39ZM1 40L1 41L2 41L2 40ZM4 41L4 42L5 42L5 45L4 45L4 46L5 46L5 45L8 45L8 46L9 46L9 44L6 44L6 43L7 43L7 42L5 42L5 41ZM8 42L8 43L9 43L9 42ZM32 42L32 43L33 43L33 42ZM51 42L51 43L50 43L50 44L51 44L51 43L53 43L53 42ZM15 44L15 48L18 48L18 47L17 47L17 45L18 45L18 44ZM54 44L54 45L55 45L55 46L56 46L56 45L55 45L55 44ZM11 45L11 47L13 47L13 46L12 46L12 45ZM21 45L21 47L20 47L20 48L21 48L21 47L23 47L23 46L22 46L22 45ZM24 45L24 47L25 47L25 45ZM26 45L26 47L27 47L27 45ZM50 45L50 46L51 46L51 47L52 47L52 46L51 46L51 45ZM43 47L43 48L44 48L44 47ZM53 48L53 49L56 49L56 48ZM27 49L27 52L30 52L30 49ZM49 49L49 52L52 52L52 49ZM28 50L28 51L29 51L29 50ZM50 50L50 51L51 51L51 50ZM54 50L54 51L55 51L55 50ZM9 52L9 54L10 54L10 52ZM14 52L14 53L16 53L16 52ZM24 53L24 54L23 54L23 55L24 55L24 56L26 56L26 53ZM12 54L12 55L11 55L11 56L12 56L12 55L13 55L13 54ZM17 54L17 55L18 55L18 54ZM37 55L37 56L39 56L39 55ZM50 55L50 56L51 56L51 55ZM53 55L53 56L55 56L55 57L56 57L56 56L55 56L55 55ZM43 56L43 57L44 57L44 56ZM46 56L46 57L47 57L47 56ZM0 0L0 7L7 7L7 0ZM1 1L1 6L6 6L6 1ZM2 2L2 5L5 5L5 2ZM50 0L50 7L57 7L57 0ZM51 1L51 6L56 6L56 1ZM52 2L52 5L55 5L55 2ZM0 50L0 57L7 57L7 50ZM1 51L1 56L6 56L6 51ZM2 52L2 55L5 55L5 52Z" fill="#000000"/></g></g></svg>
