<?xml version="1.0" encoding="UTF-8"?>
<svg xmlns="http://www.w3.org/2000/svg" version="1.1" width="300" height="300" viewBox="0 0 300 300"><rect x="0" y="0" width="300" height="300" fill="#fefefe"/><g transform="scale(4.615)"><g transform="translate(4,4)"><path fill-rule="evenodd" d="M8 0L8 4L9 4L9 5L8 5L8 7L9 7L9 6L10 6L10 7L11 7L11 9L12 9L12 8L13 8L13 6L14 6L14 10L13 10L13 11L14 11L14 12L15 12L15 13L13 13L13 12L11 12L11 11L10 11L10 10L9 10L9 11L10 11L10 13L7 13L7 12L8 12L8 11L7 11L7 10L8 10L8 9L7 9L7 8L4 8L4 9L7 9L7 10L5 10L5 11L7 11L7 12L6 12L6 13L5 13L5 12L3 12L3 11L4 11L4 10L3 10L3 9L2 9L2 8L0 8L0 10L1 10L1 11L0 11L0 12L1 12L1 14L0 14L0 16L2 16L2 15L1 15L1 14L2 14L2 12L3 12L3 13L4 13L4 14L3 14L3 17L0 17L0 20L1 20L1 22L0 22L0 23L1 23L1 24L0 24L0 26L1 26L1 24L2 24L2 25L4 25L4 27L0 27L0 28L1 28L1 29L0 29L0 30L1 30L1 31L0 31L0 32L1 32L1 33L0 33L0 34L2 34L2 35L1 35L1 36L0 36L0 38L1 38L1 39L0 39L0 40L1 40L1 43L2 43L2 41L3 41L3 42L5 42L5 44L4 44L4 45L2 45L2 44L0 44L0 48L5 48L5 47L7 47L7 46L8 46L8 47L10 47L10 48L8 48L8 50L9 50L9 51L8 51L8 53L9 53L9 55L8 55L8 57L9 57L9 56L10 56L10 55L11 55L11 57L12 57L12 56L13 56L13 57L15 57L15 56L13 56L13 55L14 55L14 54L15 54L15 55L16 55L16 54L17 54L17 57L22 57L22 56L23 56L23 57L25 57L25 56L26 56L26 57L27 57L27 56L26 56L26 55L27 55L27 53L28 53L28 57L29 57L29 55L30 55L30 57L34 57L34 55L35 55L35 57L37 57L37 56L36 56L36 54L37 54L37 55L39 55L39 57L40 57L40 56L41 56L41 55L42 55L42 56L43 56L43 55L44 55L44 57L45 57L45 55L44 55L44 53L46 53L46 52L45 52L45 51L44 51L44 50L46 50L46 51L47 51L47 52L48 52L48 54L49 54L49 57L50 57L50 55L51 55L51 56L53 56L53 55L55 55L55 54L57 54L57 52L56 52L56 50L57 50L57 49L56 49L56 45L57 45L57 44L56 44L56 45L54 45L54 44L53 44L53 43L54 43L54 42L55 42L55 43L56 43L56 41L57 41L57 40L54 40L54 41L53 41L53 40L52 40L52 41L51 41L51 43L50 43L50 42L49 42L49 41L48 41L48 42L49 42L49 43L48 43L48 45L47 45L47 44L46 44L46 45L45 45L45 44L44 44L44 45L43 45L43 44L42 44L42 42L43 42L43 43L44 43L44 42L43 42L43 41L45 41L45 42L46 42L46 43L47 43L47 42L46 42L46 41L47 41L47 40L51 40L51 39L50 39L50 38L52 38L52 39L54 39L54 38L55 38L55 39L57 39L57 38L55 38L55 37L56 37L56 36L53 36L53 35L56 35L56 34L57 34L57 33L56 33L56 30L55 30L55 29L54 29L54 28L53 28L53 27L54 27L54 26L55 26L55 24L56 24L56 25L57 25L57 24L56 24L56 20L57 20L57 19L56 19L56 18L57 18L57 15L56 15L56 13L57 13L57 12L55 12L55 13L54 13L54 12L53 12L53 13L52 13L52 14L51 14L51 12L52 12L52 11L54 11L54 10L53 10L53 9L56 9L56 10L55 10L55 11L56 11L56 10L57 10L57 8L53 8L53 9L52 9L52 8L51 8L51 9L50 9L50 15L48 15L48 17L47 17L47 18L48 18L48 19L49 19L49 20L47 20L47 19L45 19L45 17L46 17L46 16L47 16L47 15L46 15L46 11L45 11L45 10L44 10L44 9L46 9L46 7L47 7L47 5L48 5L48 0L46 0L46 1L47 1L47 2L45 2L45 0L41 0L41 1L40 1L40 2L39 2L39 3L38 3L38 1L39 1L39 0L38 0L38 1L37 1L37 2L36 2L36 0L35 0L35 1L34 1L34 0L33 0L33 1L32 1L32 0L29 0L29 1L28 1L28 0L26 0L26 1L28 1L28 2L31 2L31 1L32 1L32 3L30 3L30 4L29 4L29 3L27 3L27 4L26 4L26 3L25 3L25 0L23 0L23 1L22 1L22 2L23 2L23 3L22 3L22 4L21 4L21 6L20 6L20 5L19 5L19 6L18 6L18 5L17 5L17 6L16 6L16 5L15 5L15 4L14 4L14 1L16 1L16 0L14 0L14 1L13 1L13 0L11 0L11 1L9 1L9 0ZM18 0L18 3L19 3L19 0ZM20 0L20 1L21 1L21 0ZM11 1L11 2L13 2L13 1ZM33 1L33 2L34 2L34 5L33 5L33 3L32 3L32 5L33 5L33 7L32 7L32 6L31 6L31 10L29 10L29 9L26 9L26 6L25 6L25 7L24 7L24 6L23 6L23 5L24 5L24 4L25 4L25 3L23 3L23 4L22 4L22 6L21 6L21 7L22 7L22 6L23 6L23 7L24 7L24 8L25 8L25 10L22 10L22 9L23 9L23 8L22 8L22 9L21 9L21 10L20 10L20 9L19 9L19 10L18 10L18 9L16 9L16 10L15 10L15 12L16 12L16 10L18 10L18 11L17 11L17 13L15 13L15 14L17 14L17 17L16 17L16 19L17 19L17 20L15 20L15 18L10 18L10 17L14 17L14 14L13 14L13 13L11 13L11 14L13 14L13 16L12 16L12 15L11 15L11 16L10 16L10 14L7 14L7 13L6 13L6 14L5 14L5 15L6 15L6 16L4 16L4 17L6 17L6 18L5 18L5 19L6 19L6 20L5 20L5 21L4 21L4 20L2 20L2 19L3 19L3 18L1 18L1 20L2 20L2 22L1 22L1 23L2 23L2 22L3 22L3 21L4 21L4 23L3 23L3 24L4 24L4 25L6 25L6 26L7 26L7 25L8 25L8 26L9 26L9 29L10 29L10 28L11 28L11 30L13 30L13 29L12 29L12 28L16 28L16 27L18 27L18 26L17 26L17 24L18 24L18 23L19 23L19 24L20 24L20 25L19 25L19 27L20 27L20 25L23 25L23 24L24 24L24 23L23 23L23 22L22 22L22 23L21 23L21 22L20 22L20 23L19 23L19 21L20 21L20 19L19 19L19 21L18 21L18 19L17 19L17 17L18 17L18 18L20 18L20 17L25 17L25 16L24 16L24 15L23 15L23 13L25 13L25 12L23 12L23 11L25 11L25 10L27 10L27 11L26 11L26 13L29 13L29 16L31 16L31 17L32 17L32 16L33 16L33 15L32 15L32 14L33 14L33 13L34 13L34 20L36 20L36 19L35 19L35 18L37 18L37 22L35 22L35 21L34 21L34 22L31 22L31 23L30 23L30 22L28 22L28 21L32 21L32 20L28 20L28 21L24 21L24 20L25 20L25 18L24 18L24 19L22 19L22 20L21 20L21 21L24 21L24 22L25 22L25 23L26 23L26 22L28 22L28 23L27 23L27 24L28 24L28 26L29 26L29 25L31 25L31 27L32 27L32 28L31 28L31 29L32 29L32 28L33 28L33 27L34 27L34 31L35 31L35 29L36 29L36 26L37 26L37 27L41 27L41 28L40 28L40 29L39 29L39 30L40 30L40 31L39 31L39 32L40 32L40 33L39 33L39 34L38 34L38 33L37 33L37 34L38 34L38 35L37 35L37 36L38 36L38 37L37 37L37 38L35 38L35 33L34 33L34 32L33 32L33 31L32 31L32 30L31 30L31 31L32 31L32 32L29 32L29 31L28 31L28 32L29 32L29 33L28 33L28 34L27 34L27 33L26 33L26 34L27 34L27 35L26 35L26 38L27 38L27 39L25 39L25 38L24 38L24 37L23 37L23 36L22 36L22 37L19 37L19 38L18 38L18 39L20 39L20 38L23 38L23 39L24 39L24 41L23 41L23 40L22 40L22 41L21 41L21 42L20 42L20 41L17 41L17 40L16 40L16 42L15 42L15 44L16 44L16 46L15 46L15 45L14 45L14 41L15 41L15 39L16 39L16 38L17 38L17 36L19 36L19 35L21 35L21 34L23 34L23 33L25 33L25 32L26 32L26 31L25 31L25 30L26 30L26 29L25 29L25 30L24 30L24 31L25 31L25 32L23 32L23 31L22 31L22 30L23 30L23 29L24 29L24 28L25 28L25 27L26 27L26 25L25 25L25 26L24 26L24 28L22 28L22 27L21 27L21 29L22 29L22 30L20 30L20 29L19 29L19 28L18 28L18 29L14 29L14 30L18 30L18 31L17 31L17 32L16 32L16 31L15 31L15 32L16 32L16 34L18 34L18 33L17 33L17 32L21 32L21 31L22 31L22 33L21 33L21 34L20 34L20 33L19 33L19 35L16 35L16 37L15 37L15 33L14 33L14 35L13 35L13 33L12 33L12 32L14 32L14 31L12 31L12 32L11 32L11 31L10 31L10 32L9 32L9 33L8 33L8 32L7 32L7 31L5 31L5 32L2 32L2 33L3 33L3 35L2 35L2 37L3 37L3 36L4 36L4 38L3 38L3 39L4 39L4 38L7 38L7 39L6 39L6 40L7 40L7 41L5 41L5 42L7 42L7 43L6 43L6 44L5 44L5 45L4 45L4 46L3 46L3 47L5 47L5 45L6 45L6 46L7 46L7 45L6 45L6 44L7 44L7 43L8 43L8 42L9 42L9 41L10 41L10 40L11 40L11 42L10 42L10 44L8 44L8 46L10 46L10 44L11 44L11 47L12 47L12 49L11 49L11 48L10 48L10 49L9 49L9 50L11 50L11 51L9 51L9 53L10 53L10 52L12 52L12 53L11 53L11 55L13 55L13 54L12 54L12 53L14 53L14 52L15 52L15 53L17 53L17 52L16 52L16 51L13 51L13 47L15 47L15 48L14 48L14 49L16 49L16 50L19 50L19 51L18 51L18 52L19 52L19 53L20 53L20 52L19 52L19 51L20 51L20 49L21 49L21 52L22 52L22 54L20 54L20 55L18 55L18 56L22 56L22 55L23 55L23 56L24 56L24 55L23 55L23 53L24 53L24 54L25 54L25 53L26 53L26 49L25 49L25 47L26 47L26 48L27 48L27 47L26 47L26 46L27 46L27 45L28 45L28 47L29 47L29 48L31 48L31 52L32 52L32 48L31 48L31 47L32 47L32 46L33 46L33 45L32 45L32 43L33 43L33 44L37 44L37 46L35 46L35 45L34 45L34 47L36 47L36 48L37 48L37 46L38 46L38 45L39 45L39 47L38 47L38 49L37 49L37 51L38 51L38 52L37 52L37 53L38 53L38 52L40 52L40 53L42 53L42 52L43 52L43 53L44 53L44 52L43 52L43 50L44 50L44 48L45 48L45 49L46 49L46 50L47 50L47 49L48 49L48 47L49 47L49 46L50 46L50 47L51 47L51 45L48 45L48 47L47 47L47 45L46 45L46 47L47 47L47 49L46 49L46 48L45 48L45 45L44 45L44 46L43 46L43 47L42 47L42 49L43 49L43 50L42 50L42 51L41 51L41 46L40 46L40 45L41 45L41 43L40 43L40 42L41 42L41 41L42 41L42 40L43 40L43 39L45 39L45 41L46 41L46 40L47 40L47 39L48 39L48 38L50 38L50 35L53 35L53 34L54 34L54 32L55 32L55 30L54 30L54 31L53 31L53 33L51 33L51 32L52 32L52 31L51 31L51 32L50 32L50 31L49 31L49 32L50 32L50 35L49 35L49 33L48 33L48 31L47 31L47 30L48 30L48 28L47 28L47 27L48 27L48 25L49 25L49 26L50 26L50 25L51 25L51 24L52 24L52 25L54 25L54 24L55 24L55 23L53 23L53 22L55 22L55 20L56 20L56 19L55 19L55 17L56 17L56 16L55 16L55 15L53 15L53 14L54 14L54 13L53 13L53 14L52 14L52 19L53 19L53 20L52 20L52 21L51 21L51 20L49 20L49 21L51 21L51 22L52 22L52 23L51 23L51 24L50 24L50 22L47 22L47 20L46 20L46 21L45 21L45 22L44 22L44 16L46 16L46 15L44 15L44 14L43 14L43 15L42 15L42 17L43 17L43 18L42 18L42 19L41 19L41 18L40 18L40 17L41 17L41 15L40 15L40 17L39 17L39 15L38 15L38 13L39 13L39 12L40 12L40 14L41 14L41 13L44 13L44 12L45 12L45 11L44 11L44 10L42 10L42 11L44 11L44 12L41 12L41 11L40 11L40 10L41 10L41 9L42 9L42 8L43 8L43 9L44 9L44 8L45 8L45 7L46 7L46 6L45 6L45 7L44 7L44 4L45 4L45 5L47 5L47 3L44 3L44 2L43 2L43 3L41 3L41 2L40 2L40 3L39 3L39 4L40 4L40 3L41 3L41 4L43 4L43 7L42 7L42 6L41 6L41 5L39 5L39 7L40 7L40 6L41 6L41 8L40 8L40 10L38 10L38 9L39 9L39 8L37 8L37 9L35 9L35 7L36 7L36 5L37 5L37 7L38 7L38 4L37 4L37 3L36 3L36 2L34 2L34 1ZM15 2L15 3L16 3L16 4L17 4L17 3L16 3L16 2ZM9 3L9 4L12 4L12 5L10 5L10 6L11 6L11 7L12 7L12 6L13 6L13 4L12 4L12 3ZM43 3L43 4L44 4L44 3ZM35 4L35 5L34 5L34 7L33 7L33 8L32 8L32 11L33 11L33 10L34 10L34 12L35 12L35 13L37 13L37 12L39 12L39 11L37 11L37 12L36 12L36 10L34 10L34 9L33 9L33 8L34 8L34 7L35 7L35 5L36 5L36 4ZM14 5L14 6L15 6L15 7L16 7L16 6L15 6L15 5ZM27 5L27 8L30 8L30 5ZM17 6L17 8L19 8L19 7L20 7L20 6L19 6L19 7L18 7L18 6ZM28 6L28 7L29 7L29 6ZM48 6L48 7L49 7L49 6ZM47 8L47 12L48 12L48 11L49 11L49 8ZM19 10L19 12L18 12L18 13L17 13L17 14L19 14L19 12L20 12L20 15L19 15L19 16L18 16L18 17L20 17L20 15L22 15L22 16L23 16L23 15L22 15L22 14L21 14L21 13L23 13L23 12L22 12L22 11L20 11L20 10ZM28 10L28 11L27 11L27 12L28 12L28 11L29 11L29 12L31 12L31 11L29 11L29 10ZM1 11L1 12L2 12L2 11ZM32 12L32 13L30 13L30 15L31 15L31 16L32 16L32 15L31 15L31 14L32 14L32 13L33 13L33 12ZM47 13L47 14L49 14L49 13ZM6 14L6 15L7 15L7 16L6 16L6 17L7 17L7 18L6 18L6 19L7 19L7 20L6 20L6 21L5 21L5 23L4 23L4 24L6 24L6 25L7 25L7 24L6 24L6 23L8 23L8 25L9 25L9 23L10 23L10 21L11 21L11 22L12 22L12 24L10 24L10 25L12 25L12 24L13 24L13 25L14 25L14 27L15 27L15 26L16 26L16 25L15 25L15 23L16 23L16 22L18 22L18 21L15 21L15 20L14 20L14 19L12 19L12 20L13 20L13 21L14 21L14 22L15 22L15 23L14 23L14 24L13 24L13 22L12 22L12 21L11 21L11 20L10 20L10 21L9 21L9 20L8 20L8 17L7 17L7 16L8 16L8 15L7 15L7 14ZM26 14L26 20L27 20L27 19L30 19L30 18L28 18L28 17L27 17L27 15L28 15L28 14ZM35 14L35 17L38 17L38 18L39 18L39 19L38 19L38 22L37 22L37 23L39 23L39 21L40 21L40 22L41 22L41 25L42 25L42 28L44 28L44 30L43 30L43 29L40 29L40 30L41 30L41 31L40 31L40 32L41 32L41 33L40 33L40 34L42 34L42 35L41 35L41 37L38 37L38 38L37 38L37 39L35 39L35 42L34 42L34 35L31 35L31 36L30 36L30 34L33 34L33 32L32 32L32 33L29 33L29 34L28 34L28 36L27 36L27 37L28 37L28 36L29 36L29 37L31 37L31 36L32 36L32 37L33 37L33 38L31 38L31 39L29 39L29 38L28 38L28 39L27 39L27 40L25 40L25 41L24 41L24 42L26 42L26 41L27 41L27 42L28 42L28 43L25 43L25 45L24 45L24 43L23 43L23 44L22 44L22 43L21 43L21 45L20 45L20 46L21 46L21 47L20 47L20 48L19 48L19 44L20 44L20 43L19 43L19 44L18 44L18 45L17 45L17 46L16 46L16 48L17 48L17 49L20 49L20 48L21 48L21 49L22 49L22 50L23 50L23 51L22 51L22 52L24 52L24 53L25 53L25 49L24 49L24 47L25 47L25 46L26 46L26 45L27 45L27 44L28 44L28 45L30 45L30 46L32 46L32 45L30 45L30 44L28 44L28 43L29 43L29 42L28 42L28 41L31 41L31 43L32 43L32 41L33 41L33 43L37 43L37 44L39 44L39 45L40 45L40 44L39 44L39 41L40 41L40 40L41 40L41 37L42 37L42 39L43 39L43 38L44 38L44 37L45 37L45 39L47 39L47 38L48 38L48 37L47 37L47 38L46 38L46 36L49 36L49 35L48 35L48 34L47 34L47 35L46 35L46 33L47 33L47 31L46 31L46 30L45 30L45 27L47 27L47 26L46 26L46 25L45 25L45 24L44 24L44 22L43 22L43 21L42 21L42 20L41 20L41 21L40 21L40 18L39 18L39 17L38 17L38 16L37 16L37 15L36 15L36 14ZM43 15L43 16L44 16L44 15ZM49 16L49 18L50 18L50 19L51 19L51 18L50 18L50 16ZM32 18L32 19L33 19L33 18ZM7 20L7 21L6 21L6 22L9 22L9 21L8 21L8 20ZM52 21L52 22L53 22L53 21ZM34 22L34 23L32 23L32 27L33 27L33 26L34 26L34 25L37 25L37 24L34 24L34 23L35 23L35 22ZM42 22L42 23L43 23L43 22ZM46 23L46 24L47 24L47 25L48 25L48 24L49 24L49 23ZM52 23L52 24L53 24L53 23ZM33 24L33 25L34 25L34 24ZM43 24L43 25L44 25L44 26L43 26L43 27L45 27L45 25L44 25L44 24ZM38 25L38 26L40 26L40 25ZM12 26L12 27L11 27L11 28L12 28L12 27L13 27L13 26ZM5 27L5 30L8 30L8 27ZM27 27L27 30L30 30L30 27ZM49 27L49 30L52 30L52 27ZM55 27L55 28L56 28L56 29L57 29L57 27ZM2 28L2 29L1 29L1 30L2 30L2 31L4 31L4 28ZM6 28L6 29L7 29L7 28ZM28 28L28 29L29 29L29 28ZM37 28L37 29L38 29L38 28ZM46 28L46 29L47 29L47 28ZM50 28L50 29L51 29L51 28ZM2 29L2 30L3 30L3 29ZM18 29L18 30L19 30L19 29ZM37 30L37 32L38 32L38 30ZM5 32L5 33L7 33L7 32ZM45 32L45 33L46 33L46 32ZM10 33L10 35L9 35L9 36L8 36L8 34L6 34L6 35L5 35L5 34L4 34L4 36L5 36L5 37L10 37L10 35L12 35L12 36L11 36L11 40L12 40L12 38L13 38L13 41L14 41L14 38L15 38L15 37L12 37L12 36L13 36L13 35L12 35L12 33ZM43 33L43 34L44 34L44 35L43 35L43 37L44 37L44 35L45 35L45 34L44 34L44 33ZM24 34L24 36L25 36L25 34ZM6 35L6 36L7 36L7 35ZM38 35L38 36L40 36L40 35ZM52 36L52 38L53 38L53 36ZM38 38L38 39L37 39L37 42L38 42L38 39L40 39L40 38ZM1 39L1 40L2 40L2 39ZM9 39L9 40L8 40L8 41L9 41L9 40L10 40L10 39ZM31 39L31 41L32 41L32 40L33 40L33 39ZM3 40L3 41L4 41L4 40ZM27 40L27 41L28 41L28 40ZM52 41L52 43L51 43L51 44L52 44L52 48L55 48L55 46L53 46L53 44L52 44L52 43L53 43L53 41ZM17 42L17 43L18 43L18 42ZM12 43L12 47L13 47L13 43ZM49 43L49 44L50 44L50 43ZM21 45L21 46L22 46L22 47L21 47L21 48L22 48L22 49L23 49L23 48L22 48L22 47L23 47L23 45ZM1 46L1 47L2 47L2 46ZM17 46L17 48L18 48L18 46ZM39 47L39 49L38 49L38 51L40 51L40 47ZM6 48L6 49L7 49L7 48ZM33 48L33 52L34 52L34 54L33 54L33 53L32 53L32 54L33 54L33 55L34 55L34 54L35 54L35 52L36 52L36 49L34 49L34 48ZM27 49L27 52L30 52L30 49ZM49 49L49 52L52 52L52 49ZM55 49L55 50L56 50L56 49ZM28 50L28 51L29 51L29 50ZM50 50L50 51L51 51L51 50ZM53 50L53 53L54 53L54 54L55 54L55 53L54 53L54 52L55 52L55 51L54 51L54 50ZM30 53L30 54L31 54L31 53ZM49 53L49 54L51 54L51 55L52 55L52 54L51 54L51 53ZM40 54L40 55L41 55L41 54ZM42 54L42 55L43 55L43 54ZM46 55L46 56L48 56L48 55ZM56 56L56 57L57 57L57 56ZM0 0L0 7L7 7L7 0ZM1 1L1 6L6 6L6 1ZM2 2L2 5L5 5L5 2ZM50 0L50 7L57 7L57 0ZM51 1L51 6L56 6L56 1ZM52 2L52 5L55 5L55 2ZM0 50L0 57L7 57L7 50ZM1 51L1 56L6 56L6 51ZM2 52L2 55L5 55L5 52Z" fill="#000000"/></g></g></svg>
