<?xml version="1.0" encoding="UTF-8"?>
<svg xmlns="http://www.w3.org/2000/svg" version="1.1" width="300" height="300" viewBox="0 0 300 300"><rect x="0" y="0" width="300" height="300" fill="#fefefe"/><g transform="scale(4.615)"><g transform="translate(4,4)"><path fill-rule="evenodd" d="M12 0L12 1L13 1L13 0ZM14 0L14 2L13 2L13 3L11 3L11 2L10 2L10 1L8 1L8 2L10 2L10 3L11 3L11 4L9 4L9 3L8 3L8 4L9 4L9 5L8 5L8 7L9 7L9 6L10 6L10 9L11 9L11 6L12 6L12 7L13 7L13 9L12 9L12 10L13 10L13 11L10 11L10 10L6 10L6 9L9 9L9 8L6 8L6 9L5 9L5 8L0 8L0 11L1 11L1 12L0 12L0 16L2 16L2 18L5 18L5 19L4 19L4 20L3 20L3 24L6 24L6 25L5 25L5 26L4 26L4 25L3 25L3 26L2 26L2 27L3 27L3 28L2 28L2 30L1 30L1 29L0 29L0 30L1 30L1 31L0 31L0 32L1 32L1 33L0 33L0 37L2 37L2 38L0 38L0 39L1 39L1 40L0 40L0 45L1 45L1 46L0 46L0 48L5 48L5 47L7 47L7 46L8 46L8 47L9 47L9 49L8 49L8 48L6 48L6 49L8 49L8 51L9 51L9 52L8 52L8 57L10 57L10 56L9 56L9 54L10 54L10 55L11 55L11 56L12 56L12 57L13 57L13 56L14 56L14 55L16 55L16 56L15 56L15 57L16 57L16 56L17 56L17 57L21 57L21 56L19 56L19 55L20 55L20 54L18 54L18 55L17 55L17 53L20 53L20 52L21 52L21 51L22 51L22 52L23 52L23 51L22 51L22 50L25 50L25 51L26 51L26 52L24 52L24 53L23 53L23 54L22 54L22 55L23 55L23 57L26 57L26 56L27 56L27 57L29 57L29 56L30 56L30 57L31 57L31 56L35 56L35 57L39 57L39 56L37 56L37 54L38 54L38 55L41 55L41 54L42 54L42 55L43 55L43 57L44 57L44 54L45 54L45 53L47 53L47 50L48 50L48 54L47 54L47 56L50 56L50 57L52 57L52 55L51 55L51 53L52 53L52 54L53 54L53 55L54 55L54 56L53 56L53 57L54 57L54 56L55 56L55 57L56 57L56 56L55 56L55 51L56 51L56 52L57 52L57 51L56 51L56 50L55 50L55 48L56 48L56 49L57 49L57 48L56 48L56 46L57 46L57 45L56 45L56 44L55 44L55 43L56 43L56 41L55 41L55 39L57 39L57 37L56 37L56 33L57 33L57 32L56 32L56 30L57 30L57 29L55 29L55 30L53 30L53 29L54 29L54 28L55 28L55 27L56 27L56 28L57 28L57 27L56 27L56 26L57 26L57 25L56 25L56 22L57 22L57 19L56 19L56 16L57 16L57 15L56 15L56 14L57 14L57 11L56 11L56 10L54 10L54 11L52 11L52 10L49 10L49 9L50 9L50 8L49 8L49 6L48 6L48 7L47 7L47 5L48 5L48 0L46 0L46 1L47 1L47 2L44 2L44 3L41 3L41 2L43 2L43 0L41 0L41 1L40 1L40 0L39 0L39 1L38 1L38 0L37 0L37 1L38 1L38 2L37 2L37 3L36 3L36 0L35 0L35 1L33 1L33 0L29 0L29 1L28 1L28 2L32 2L32 3L31 3L31 4L26 4L26 3L23 3L23 4L24 4L24 5L23 5L23 6L22 6L22 7L21 7L21 4L19 4L19 3L18 3L18 2L19 2L19 1L20 1L20 2L21 2L21 3L22 3L22 2L21 2L21 1L22 1L22 0L21 0L21 1L20 1L20 0L18 0L18 2L17 2L17 1L15 1L15 0ZM23 0L23 2L27 2L27 1L25 1L25 0ZM32 1L32 2L33 2L33 3L32 3L32 4L31 4L31 8L32 8L32 10L29 10L29 9L28 9L28 10L27 10L27 11L26 11L26 12L25 12L25 10L23 10L23 13L22 13L22 12L20 12L20 10L21 10L21 11L22 11L22 10L21 10L21 9L24 9L24 6L23 6L23 7L22 7L22 8L19 8L19 7L20 7L20 5L19 5L19 4L18 4L18 6L17 6L17 2L16 2L16 3L15 3L15 2L14 2L14 4L11 4L11 5L10 5L10 6L11 6L11 5L13 5L13 7L14 7L14 9L13 9L13 10L16 10L16 11L15 11L15 13L13 13L13 14L15 14L15 13L16 13L16 17L15 17L15 15L14 15L14 18L12 18L12 19L14 19L14 20L12 20L12 21L11 21L11 19L6 19L6 20L5 20L5 21L4 21L4 22L5 22L5 21L6 21L6 22L7 22L7 23L6 23L6 24L7 24L7 23L8 23L8 25L9 25L9 26L10 26L10 25L11 25L11 24L12 24L12 25L13 25L13 24L14 24L14 26L16 26L16 27L14 27L14 29L13 29L13 28L12 28L12 27L13 27L13 26L11 26L11 28L12 28L12 29L13 29L13 30L15 30L15 29L16 29L16 30L17 30L17 31L19 31L19 30L18 30L18 29L20 29L20 32L19 32L19 33L18 33L18 32L15 32L15 31L14 31L14 34L13 34L13 31L11 31L11 30L10 30L10 28L9 28L9 30L10 30L10 31L9 31L9 32L7 32L7 31L6 31L6 32L7 32L7 33L5 33L5 35L4 35L4 36L5 36L5 35L6 35L6 36L7 36L7 35L6 35L6 34L8 34L8 33L9 33L9 32L10 32L10 31L11 31L11 33L10 33L10 34L11 34L11 36L12 36L12 37L11 37L11 38L10 38L10 37L9 37L9 35L8 35L8 37L4 37L4 38L2 38L2 39L4 39L4 41L5 41L5 43L4 43L4 42L2 42L2 45L3 45L3 44L4 44L4 46L3 46L3 47L5 47L5 45L6 45L6 46L7 46L7 45L8 45L8 43L9 43L9 42L8 42L8 43L6 43L6 42L7 42L7 41L6 41L6 40L8 40L8 41L9 41L9 40L8 40L8 39L5 39L5 38L10 38L10 43L11 43L11 40L12 40L12 41L13 41L13 39L11 39L11 38L12 38L12 37L13 37L13 36L15 36L15 37L16 37L16 38L15 38L15 39L16 39L16 40L14 40L14 42L13 42L13 43L12 43L12 46L13 46L13 47L10 47L10 48L12 48L12 49L11 49L11 50L10 50L10 51L11 51L11 50L13 50L13 48L14 48L14 47L15 47L15 48L17 48L17 47L18 47L18 46L17 46L17 45L18 45L18 44L17 44L17 45L16 45L16 43L15 43L15 42L17 42L17 43L18 43L18 42L19 42L19 44L20 44L20 42L21 42L21 43L22 43L22 42L23 42L23 44L24 44L24 45L25 45L25 48L24 48L24 49L25 49L25 48L29 48L29 47L28 47L28 46L29 46L29 45L31 45L31 44L28 44L28 45L27 45L27 44L24 44L24 43L27 43L27 42L29 42L29 40L32 40L32 41L31 41L31 42L32 42L32 43L33 43L33 44L32 44L32 46L31 46L31 47L32 47L32 46L35 46L35 45L34 45L34 43L35 43L35 44L36 44L36 43L37 43L37 42L35 42L35 40L38 40L38 42L39 42L39 43L40 43L40 44L39 44L39 45L38 45L38 46L39 46L39 47L38 47L38 48L37 48L37 49L38 49L38 50L36 50L36 49L34 49L34 48L36 48L36 47L37 47L37 46L36 46L36 47L34 47L34 48L32 48L32 49L31 49L31 53L30 53L30 54L27 54L27 53L26 53L26 55L27 55L27 56L29 56L29 55L30 55L30 56L31 56L31 54L32 54L32 53L33 53L33 55L35 55L35 56L36 56L36 54L35 54L35 53L33 53L33 52L32 52L32 51L33 51L33 50L34 50L34 51L35 51L35 50L36 50L36 52L37 52L37 53L38 53L38 54L40 54L40 53L42 53L42 50L41 50L41 48L42 48L42 49L43 49L43 48L44 48L44 50L47 50L47 49L48 49L48 48L51 48L51 46L53 46L53 47L54 47L54 45L55 45L55 46L56 46L56 45L55 45L55 44L54 44L54 45L53 45L53 43L54 43L54 42L53 42L53 41L54 41L54 40L53 40L53 39L55 39L55 37L53 37L53 35L55 35L55 34L54 34L54 33L56 33L56 32L54 32L54 31L53 31L53 32L54 32L54 33L52 33L52 32L51 32L51 31L50 31L50 32L49 32L49 31L48 31L48 28L47 28L47 29L46 29L46 30L47 30L47 31L46 31L46 33L45 33L45 32L43 32L43 31L44 31L44 30L45 30L45 28L46 28L46 27L47 27L47 25L50 25L50 26L52 26L52 25L55 25L55 26L56 26L56 25L55 25L55 24L51 24L51 23L50 23L50 22L51 22L51 21L54 21L54 22L53 22L53 23L55 23L55 22L56 22L56 19L55 19L55 20L53 20L53 19L52 19L52 20L51 20L51 21L49 21L49 23L48 23L48 24L47 24L47 25L45 25L45 22L47 22L47 21L48 21L48 20L49 20L49 19L51 19L51 18L55 18L55 17L53 17L53 16L50 16L50 18L47 18L47 17L48 17L48 16L49 16L49 15L50 15L50 14L51 14L51 12L50 12L50 11L49 11L49 10L47 10L47 7L46 7L46 6L45 6L45 4L46 4L46 5L47 5L47 3L44 3L44 6L43 6L43 5L40 5L40 4L41 4L41 3L37 3L37 4L36 4L36 5L35 5L35 2L33 2L33 1ZM15 4L15 5L14 5L14 7L15 7L15 9L19 9L19 10L18 10L18 11L17 11L17 12L16 12L16 13L17 13L17 15L20 15L20 12L19 12L19 10L20 10L20 9L19 9L19 8L16 8L16 7L17 7L17 6L16 6L16 7L15 7L15 5L16 5L16 4ZM25 4L25 8L26 8L26 4ZM32 4L32 5L34 5L34 7L33 7L33 6L32 6L32 7L33 7L33 9L34 9L34 8L35 8L35 9L37 9L37 10L36 10L36 12L35 12L35 13L37 13L37 14L38 14L38 15L39 15L39 16L38 16L38 17L37 17L37 16L35 16L35 14L32 14L32 12L33 12L33 13L34 13L34 12L33 12L33 10L32 10L32 12L31 12L31 13L30 13L30 14L29 14L29 13L28 13L28 12L29 12L29 11L27 11L27 12L26 12L26 14L25 14L25 12L24 12L24 13L23 13L23 14L22 14L22 13L21 13L21 15L23 15L23 14L25 14L25 15L24 15L24 16L25 16L25 17L22 17L22 16L20 16L20 17L19 17L19 16L17 16L17 17L18 17L18 18L20 18L20 20L17 20L17 21L16 21L16 20L15 20L15 21L16 21L16 22L14 22L14 21L12 21L12 22L10 22L10 20L9 20L9 22L8 22L8 23L12 23L12 24L13 24L13 23L16 23L16 24L15 24L15 25L18 25L18 26L17 26L17 27L18 27L18 26L19 26L19 28L20 28L20 29L22 29L22 28L20 28L20 25L22 25L22 26L21 26L21 27L22 27L22 26L23 26L23 27L24 27L24 26L26 26L26 27L25 27L25 28L26 28L26 29L23 29L23 30L25 30L25 31L26 31L26 32L25 32L25 33L23 33L23 34L24 34L24 36L23 36L23 35L22 35L22 33L21 33L21 32L23 32L23 31L21 31L21 32L20 32L20 33L19 33L19 34L20 34L20 36L21 36L21 35L22 35L22 36L23 36L23 37L19 37L19 35L18 35L18 33L17 33L17 35L16 35L16 34L14 34L14 35L16 35L16 36L17 36L17 35L18 35L18 37L17 37L17 38L18 38L18 39L17 39L17 40L18 40L18 41L17 41L17 42L18 42L18 41L19 41L19 42L20 42L20 40L22 40L22 39L21 39L21 38L23 38L23 39L24 39L24 40L25 40L25 37L26 37L26 39L27 39L27 40L28 40L28 39L27 39L27 38L28 38L28 37L27 37L27 36L26 36L26 35L27 35L27 34L26 34L26 35L25 35L25 33L27 33L27 31L32 31L32 30L33 30L33 31L36 31L36 30L37 30L37 29L38 29L38 28L39 28L39 27L41 27L41 28L42 28L42 26L43 26L43 25L44 25L44 24L41 24L41 22L43 22L43 23L44 23L44 20L45 20L45 21L47 21L47 18L46 18L46 17L45 17L45 18L44 18L44 15L42 15L42 16L41 16L41 15L40 15L40 14L44 14L44 11L45 11L45 12L48 12L48 11L47 11L47 10L46 10L46 11L45 11L45 10L44 10L44 7L45 7L45 6L44 6L44 7L43 7L43 6L42 6L42 7L41 7L41 6L40 6L40 5L39 5L39 6L38 6L38 7L37 7L37 5L38 5L38 4L37 4L37 5L36 5L36 7L37 7L37 8L35 8L35 5L34 5L34 4ZM27 5L27 8L30 8L30 5ZM18 6L18 7L19 7L19 6ZM28 6L28 7L29 7L29 6ZM39 6L39 7L40 7L40 8L39 8L39 9L38 9L38 11L40 11L40 10L41 10L41 12L39 12L39 13L38 13L38 14L39 14L39 13L43 13L43 11L42 11L42 10L41 10L41 7L40 7L40 6ZM42 8L42 9L43 9L43 8ZM51 8L51 9L52 9L52 8ZM53 8L53 9L54 9L54 8ZM55 8L55 9L56 9L56 8ZM1 9L1 11L2 11L2 10L3 10L3 12L1 12L1 15L2 15L2 16L3 16L3 17L5 17L5 18L7 18L7 17L8 17L8 18L11 18L11 17L12 17L12 16L13 16L13 15L12 15L12 14L11 14L11 15L12 15L12 16L11 16L11 17L8 17L8 15L10 15L10 13L11 13L11 12L10 12L10 13L5 13L5 12L8 12L8 11L5 11L5 9L4 9L4 10L3 10L3 9ZM13 11L13 12L14 12L14 11ZM17 12L17 13L18 13L18 12ZM49 12L49 13L47 13L47 14L45 14L45 16L46 16L46 15L47 15L47 16L48 16L48 15L49 15L49 14L50 14L50 12ZM52 12L52 13L53 13L53 15L55 15L55 14L56 14L56 12L54 12L54 13L53 13L53 12ZM3 13L3 16L4 16L4 14L5 14L5 13ZM27 13L27 14L26 14L26 17L25 17L25 18L26 18L26 20L25 20L25 21L24 21L24 20L22 20L22 21L21 21L21 20L20 20L20 21L17 21L17 24L22 24L22 25L23 25L23 24L22 24L22 23L24 23L24 24L25 24L25 25L26 25L26 26L29 26L29 25L30 25L30 24L32 24L32 26L31 26L31 28L32 28L32 29L33 29L33 30L35 30L35 28L37 28L37 27L39 27L39 25L40 25L40 26L42 26L42 25L41 25L41 24L39 24L39 23L40 23L40 22L39 22L39 21L43 21L43 20L44 20L44 18L43 18L43 19L42 19L42 18L41 18L41 20L39 20L39 21L38 21L38 20L37 20L37 19L39 19L39 17L41 17L41 16L39 16L39 17L38 17L38 18L37 18L37 17L35 17L35 16L33 16L33 15L32 15L32 18L33 18L33 19L34 19L34 20L32 20L32 21L31 21L31 20L30 20L30 19L31 19L31 18L30 18L30 19L28 19L28 18L27 18L27 17L28 17L28 16L29 16L29 14L28 14L28 13ZM6 14L6 15L8 15L8 14ZM30 14L30 15L31 15L31 14ZM27 15L27 16L28 16L28 15ZM6 16L6 17L7 17L7 16ZM42 16L42 17L43 17L43 16ZM0 17L0 22L2 22L2 21L1 21L1 20L2 20L2 19L1 19L1 17ZM20 17L20 18L21 18L21 19L24 19L24 18L22 18L22 17ZM15 18L15 19L17 19L17 18ZM45 18L45 20L46 20L46 18ZM27 19L27 20L28 20L28 19ZM35 19L35 20L34 20L34 21L35 21L35 23L34 23L34 22L33 22L33 23L32 23L32 24L33 24L33 25L37 25L37 26L38 26L38 25L39 25L39 24L37 24L37 23L38 23L38 21L37 21L37 20L36 20L36 19ZM6 20L6 21L8 21L8 20ZM22 21L22 22L21 22L21 23L22 23L22 22L24 22L24 21ZM25 21L25 22L26 22L26 23L25 23L25 24L30 24L30 23L31 23L31 21L28 21L28 22L30 22L30 23L27 23L27 21ZM19 22L19 23L20 23L20 22ZM1 23L1 24L2 24L2 23ZM9 24L9 25L10 25L10 24ZM50 24L50 25L51 25L51 24ZM6 25L6 26L7 26L7 25ZM0 26L0 28L1 28L1 26ZM3 26L3 27L4 27L4 26ZM32 26L32 27L33 27L33 28L35 28L35 27L36 27L36 26L34 26L34 27L33 27L33 26ZM44 26L44 27L43 27L43 28L45 28L45 26ZM53 26L53 27L54 27L54 26ZM5 27L5 30L8 30L8 27ZM27 27L27 30L30 30L30 27ZM49 27L49 30L52 30L52 27ZM3 28L3 29L4 29L4 28ZM6 28L6 29L7 29L7 28ZM16 28L16 29L18 29L18 28ZM28 28L28 29L29 29L29 28ZM50 28L50 29L51 29L51 28ZM40 29L40 30L44 30L44 29ZM3 30L3 31L2 31L2 32L3 32L3 31L4 31L4 30ZM38 30L38 32L39 32L39 30ZM47 31L47 32L48 32L48 33L49 33L49 32L48 32L48 31ZM28 32L28 33L29 33L29 34L30 34L30 36L29 36L29 37L31 37L31 38L29 38L29 39L33 39L33 40L35 40L35 39L37 39L37 38L38 38L38 37L40 37L40 38L41 38L41 39L38 39L38 40L42 40L42 41L41 41L41 43L42 43L42 44L41 44L41 46L40 46L40 47L39 47L39 48L38 48L38 49L39 49L39 48L41 48L41 46L43 46L43 47L42 47L42 48L43 48L43 47L44 47L44 48L45 48L45 47L47 47L47 48L46 48L46 49L47 49L47 48L48 48L48 47L50 47L50 46L51 46L51 45L52 45L52 44L51 44L51 43L53 43L53 42L51 42L51 41L53 41L53 40L52 40L52 39L50 39L50 37L51 37L51 36L52 36L52 35L53 35L53 34L52 34L52 33L51 33L51 32L50 32L50 34L48 34L48 35L44 35L44 36L43 36L43 37L42 37L42 36L41 36L41 35L42 35L42 34L45 34L45 33L43 33L43 32L41 32L41 33L39 33L39 34L40 34L40 35L39 35L39 36L38 36L38 33L37 33L37 32L33 32L33 33L32 33L32 32L31 32L31 33L29 33L29 32ZM20 33L20 34L21 34L21 33ZM31 33L31 35L33 35L33 36L32 36L32 37L33 37L33 39L34 39L34 38L35 38L35 37L33 37L33 36L34 36L34 34L35 34L35 36L37 36L37 34L35 34L35 33L34 33L34 34L32 34L32 33ZM1 34L1 36L2 36L2 37L3 37L3 36L2 36L2 35L3 35L3 34ZM12 34L12 36L13 36L13 34ZM50 34L50 35L48 35L48 36L44 36L44 37L43 37L43 38L42 38L42 37L41 37L41 36L40 36L40 37L41 37L41 38L42 38L42 39L45 39L45 38L46 38L46 39L47 39L47 41L45 41L45 40L44 40L44 42L43 42L43 44L44 44L44 45L45 45L45 46L44 46L44 47L45 47L45 46L50 46L50 45L51 45L51 44L50 44L50 43L51 43L51 42L50 42L50 43L48 43L48 44L47 44L47 45L45 45L45 44L46 44L46 43L47 43L47 42L48 42L48 41L49 41L49 39L47 39L47 38L49 38L49 36L50 36L50 35L52 35L52 34ZM18 37L18 38L19 38L19 39L20 39L20 38L19 38L19 37ZM23 37L23 38L24 38L24 37ZM44 37L44 38L45 38L45 37ZM21 41L21 42L22 42L22 41ZM23 41L23 42L25 42L25 41ZM26 41L26 42L27 42L27 41ZM32 41L32 42L33 42L33 43L34 43L34 42L33 42L33 41ZM39 41L39 42L40 42L40 41ZM13 43L13 46L15 46L15 47L16 47L16 46L15 46L15 43ZM6 44L6 45L7 45L7 44ZM10 44L10 45L11 45L11 44ZM21 44L21 45L19 45L19 46L20 46L20 48L19 48L19 49L20 49L20 50L19 50L19 51L21 51L21 49L23 49L23 47L21 47L21 45L22 45L22 46L23 46L23 45L22 45L22 44ZM48 44L48 45L49 45L49 44ZM26 45L26 47L27 47L27 45ZM1 46L1 47L2 47L2 46ZM53 48L53 49L54 49L54 48ZM14 49L14 51L12 51L12 54L11 54L11 55L14 55L14 53L15 53L15 54L16 54L16 53L17 53L17 52L18 52L18 50L17 50L17 49ZM27 49L27 52L30 52L30 49ZM32 49L32 50L33 50L33 49ZM49 49L49 52L52 52L52 49ZM15 50L15 51L14 51L14 52L15 52L15 53L16 53L16 52L15 52L15 51L16 51L16 50ZM28 50L28 51L29 51L29 50ZM38 50L38 51L37 51L37 52L38 52L38 53L39 53L39 51L40 51L40 52L41 52L41 50ZM50 50L50 51L51 51L51 50ZM54 50L54 51L55 51L55 50ZM45 51L45 52L44 52L44 53L43 53L43 54L44 54L44 53L45 53L45 52L46 52L46 51ZM9 52L9 53L10 53L10 52ZM53 52L53 53L54 53L54 52ZM24 53L24 54L23 54L23 55L24 55L24 56L25 56L25 53ZM50 55L50 56L51 56L51 55ZM45 56L45 57L46 57L46 56ZM0 0L0 7L7 7L7 0ZM1 1L1 6L6 6L6 1ZM2 2L2 5L5 5L5 2ZM50 0L50 7L57 7L57 0ZM51 1L51 6L56 6L56 1ZM52 2L52 5L55 5L55 2ZM0 50L0 57L7 57L7 50ZM1 51L1 56L6 56L6 51ZM2 52L2 55L5 55L5 52Z" fill="#000000"/></g></g></svg>
