<?xml version="1.0" encoding="UTF-8"?>
<svg xmlns="http://www.w3.org/2000/svg" version="1.1" width="300" height="300" viewBox="0 0 300 300"><rect x="0" y="0" width="300" height="300" fill="#fefefe"/><g transform="scale(4.615)"><g transform="translate(4,4)"><path fill-rule="evenodd" d="M8 0L8 1L9 1L9 0ZM14 0L14 1L15 1L15 0ZM17 0L17 1L16 1L16 3L17 3L17 4L18 4L18 5L15 5L15 4L14 4L14 3L13 3L13 4L14 4L14 5L13 5L13 6L12 6L12 5L11 5L11 6L10 6L10 7L9 7L9 6L8 6L8 7L9 7L9 8L8 8L8 9L7 9L7 8L6 8L6 9L4 9L4 8L0 8L0 10L1 10L1 12L3 12L3 13L5 13L5 15L4 15L4 14L2 14L2 13L1 13L1 14L0 14L0 15L1 15L1 16L2 16L2 17L5 17L5 18L6 18L6 19L7 19L7 18L8 18L8 21L9 21L9 22L5 22L5 23L4 23L4 22L3 22L3 20L4 20L4 21L7 21L7 20L4 20L4 18L3 18L3 19L2 19L2 18L1 18L1 17L0 17L0 18L1 18L1 19L0 19L0 20L1 20L1 19L2 19L2 21L1 21L1 23L0 23L0 24L1 24L1 26L0 26L0 28L4 28L4 30L3 30L3 29L2 29L2 30L3 30L3 31L4 31L4 33L3 33L3 32L2 32L2 31L1 31L1 32L2 32L2 33L1 33L1 36L0 36L0 40L1 40L1 41L0 41L0 42L1 42L1 41L2 41L2 40L4 40L4 38L3 38L3 37L4 37L4 36L6 36L6 37L5 37L5 38L6 38L6 39L7 39L7 40L6 40L6 41L4 41L4 42L6 42L6 43L7 43L7 44L6 44L6 45L7 45L7 46L5 46L5 44L4 44L4 46L5 46L5 47L3 47L3 45L2 45L2 43L3 43L3 42L2 42L2 43L0 43L0 44L1 44L1 45L0 45L0 48L5 48L5 47L7 47L7 46L8 46L8 48L10 48L10 47L9 47L9 46L8 46L8 45L9 45L9 44L10 44L10 41L11 41L11 43L12 43L12 44L11 44L11 45L10 45L10 46L11 46L11 48L13 48L13 49L14 49L14 51L12 51L12 49L8 49L8 50L9 50L9 52L10 52L10 50L11 50L11 51L12 51L12 54L11 54L11 53L10 53L10 55L9 55L9 53L8 53L8 57L12 57L12 56L13 56L13 55L15 55L15 56L16 56L16 57L18 57L18 56L19 56L19 55L20 55L20 57L24 57L24 56L25 56L25 55L26 55L26 56L28 56L28 55L26 55L26 54L27 54L27 53L29 53L29 54L31 54L31 55L30 55L30 56L31 56L31 57L32 57L32 55L33 55L33 54L36 54L36 55L34 55L34 56L33 56L33 57L36 57L36 55L37 55L37 54L36 54L36 53L35 53L35 52L36 52L36 51L37 51L37 52L39 52L39 54L38 54L38 57L41 57L41 55L42 55L42 57L43 57L43 55L44 55L44 54L46 54L46 56L47 56L47 55L49 55L49 56L48 56L48 57L51 57L51 54L52 54L52 53L54 53L54 52L55 52L55 54L53 54L53 56L52 56L52 57L55 57L55 56L54 56L54 55L55 55L55 54L56 54L56 53L57 53L57 52L56 52L56 51L55 51L55 50L57 50L57 48L56 48L56 49L55 49L55 50L53 50L53 49L54 49L54 48L53 48L53 47L52 47L52 46L49 46L49 47L48 47L48 45L47 45L47 46L46 46L46 48L48 48L48 52L47 52L47 50L46 50L46 49L44 49L44 48L45 48L45 47L43 47L43 45L42 45L42 43L43 43L43 44L49 44L49 43L50 43L50 42L51 42L51 44L50 44L50 45L53 45L53 46L55 46L55 47L57 47L57 45L56 45L56 46L55 46L55 44L56 44L56 41L57 41L57 40L56 40L56 41L55 41L55 42L54 42L54 41L53 41L53 40L55 40L55 38L56 38L56 39L57 39L57 38L56 38L56 36L57 36L57 31L56 31L56 30L57 30L57 29L56 29L56 24L55 24L55 27L53 27L53 25L54 25L54 23L53 23L53 22L54 22L54 21L55 21L55 20L54 20L54 21L53 21L53 20L50 20L50 18L49 18L49 20L48 20L48 21L47 21L47 22L46 22L46 24L45 24L45 26L46 26L46 30L45 30L45 27L44 27L44 26L41 26L41 25L44 25L44 23L45 23L45 22L44 22L44 21L43 21L43 18L42 18L42 17L45 17L45 18L44 18L44 19L45 19L45 20L47 20L47 19L48 19L48 14L47 14L47 16L46 16L46 17L45 17L45 16L44 16L44 15L45 15L45 14L46 14L46 13L44 13L44 12L43 12L43 11L44 11L44 9L43 9L43 5L45 5L45 4L44 4L44 3L45 3L45 1L44 1L44 2L42 2L42 3L41 3L41 4L39 4L39 3L38 3L38 2L37 2L37 1L38 1L38 0L37 0L37 1L36 1L36 0L35 0L35 1L34 1L34 2L30 2L30 1L33 1L33 0L28 0L28 2L27 2L27 4L26 4L26 0L23 0L23 1L25 1L25 2L24 2L24 3L23 3L23 2L22 2L22 3L23 3L23 4L22 4L22 8L21 8L21 9L24 9L24 10L20 10L20 7L21 7L21 5L20 5L20 4L19 4L19 3L17 3L17 1L18 1L18 0ZM21 0L21 1L22 1L22 0ZM39 0L39 1L40 1L40 2L41 2L41 1L43 1L43 0L41 0L41 1L40 1L40 0ZM46 0L46 1L47 1L47 2L46 2L46 3L47 3L47 5L46 5L46 7L45 7L45 6L44 6L44 7L45 7L45 11L49 11L49 16L50 16L50 17L51 17L51 18L52 18L52 19L56 19L56 20L57 20L57 19L56 19L56 18L57 18L57 15L55 15L55 13L54 13L54 10L53 10L53 13L52 13L52 12L51 12L51 11L52 11L52 9L55 9L55 8L52 8L52 9L51 9L51 11L49 11L49 10L50 10L50 8L49 8L49 6L48 6L48 7L47 7L47 5L48 5L48 0ZM35 1L35 2L36 2L36 1ZM8 2L8 5L9 5L9 2ZM10 2L10 4L12 4L12 3L11 3L11 2ZM28 2L28 4L31 4L31 5L32 5L32 6L31 6L31 9L32 9L32 10L30 10L30 11L29 11L29 10L28 10L28 11L27 11L27 10L26 10L26 11L25 11L25 12L24 12L24 16L25 16L25 17L24 17L24 18L23 18L23 13L22 13L22 12L23 12L23 11L20 11L20 13L21 13L21 14L20 14L20 15L19 15L19 13L18 13L18 12L19 12L19 7L20 7L20 6L19 6L19 7L18 7L18 6L17 6L17 7L16 7L16 6L15 6L15 5L14 5L14 6L13 6L13 8L12 8L12 6L11 6L11 8L12 8L12 11L11 11L11 10L10 10L10 8L9 8L9 9L8 9L8 11L6 11L6 10L7 10L7 9L6 9L6 10L4 10L4 11L3 11L3 9L2 9L2 11L3 11L3 12L5 12L5 13L6 13L6 14L7 14L7 15L5 15L5 16L8 16L8 18L11 18L11 17L13 17L13 16L14 16L14 15L13 15L13 14L14 14L14 13L13 13L13 14L11 14L11 13L12 13L12 12L13 12L13 9L14 9L14 11L15 11L15 15L16 15L16 17L19 17L19 18L17 18L17 19L15 19L15 17L14 17L14 18L13 18L13 19L9 19L9 20L10 20L10 22L9 22L9 23L6 23L6 24L8 24L8 26L9 26L9 23L10 23L10 22L13 22L13 23L14 23L14 24L10 24L10 25L11 25L11 27L9 27L9 30L13 30L13 31L11 31L11 32L12 32L12 33L11 33L11 34L12 34L12 33L13 33L13 34L14 34L14 35L16 35L16 36L15 36L15 37L14 37L14 38L17 38L17 39L16 39L16 40L17 40L17 41L19 41L19 43L18 43L18 42L15 42L15 43L14 43L14 39L13 39L13 38L12 38L12 39L10 39L10 40L7 40L7 41L6 41L6 42L9 42L9 41L10 41L10 40L12 40L12 41L13 41L13 42L12 42L12 43L14 43L14 45L15 45L15 47L14 47L14 46L13 46L13 47L14 47L14 48L15 48L15 47L17 47L17 48L19 48L19 49L21 49L21 50L22 50L22 49L23 49L23 51L21 51L21 52L22 52L22 53L23 53L23 52L24 52L24 53L25 53L25 52L26 52L26 51L24 51L24 50L25 50L25 49L26 49L26 48L27 48L27 46L29 46L29 47L28 47L28 48L29 48L29 47L30 47L30 48L31 48L31 49L33 49L33 48L37 48L37 49L36 49L36 50L37 50L37 49L38 49L38 48L39 48L39 49L40 49L40 50L39 50L39 52L40 52L40 54L41 54L41 52L42 52L42 54L43 54L43 50L44 50L44 49L43 49L43 47L40 47L40 46L41 46L41 45L38 45L38 44L40 44L40 42L39 42L39 41L37 41L37 40L38 40L38 39L39 39L39 40L40 40L40 41L41 41L41 40L43 40L43 41L42 41L42 42L41 42L41 43L42 43L42 42L43 42L43 43L44 43L44 40L43 40L43 39L39 39L39 38L38 38L38 39L37 39L37 37L38 37L38 36L37 36L37 37L34 37L34 38L36 38L36 39L35 39L35 40L34 40L34 41L36 41L36 42L34 42L34 43L36 43L36 46L37 46L37 45L38 45L38 47L34 47L34 46L35 46L35 44L34 44L34 45L33 45L33 42L32 42L32 44L31 44L31 43L30 43L30 45L27 45L27 44L28 44L28 43L27 43L27 42L25 42L25 41L26 41L26 39L25 39L25 38L26 38L26 37L27 37L27 38L29 38L29 36L32 36L32 38L30 38L30 39L28 39L28 40L27 40L27 41L28 41L28 40L30 40L30 41L31 41L31 40L33 40L33 39L32 39L32 38L33 38L33 36L32 36L32 34L33 34L33 35L34 35L34 36L36 36L36 35L34 35L34 34L35 34L35 33L33 33L33 32L32 32L32 30L33 30L33 29L31 29L31 33L32 33L32 34L30 34L30 35L29 35L29 33L30 33L30 31L29 31L29 32L28 32L28 31L25 31L25 34L24 34L24 35L23 35L23 33L24 33L24 32L23 32L23 33L22 33L22 35L21 35L21 36L20 36L20 35L19 35L19 34L21 34L21 33L20 33L20 32L19 32L19 31L21 31L21 32L22 32L22 31L23 31L23 30L21 30L21 29L23 29L23 28L24 28L24 30L26 30L26 28L25 28L25 27L22 27L22 26L20 26L20 25L17 25L17 23L18 23L18 24L19 24L19 23L18 23L18 22L17 22L17 23L16 23L16 20L17 20L17 19L19 19L19 20L18 20L18 21L19 21L19 22L21 22L21 23L20 23L20 24L21 24L21 23L23 23L23 21L24 21L24 22L25 22L25 25L24 25L24 24L22 24L22 25L23 25L23 26L25 26L25 25L27 25L27 26L29 26L29 24L30 24L30 23L32 23L32 22L33 22L33 24L32 24L32 25L33 25L33 24L35 24L35 23L36 23L36 24L37 24L37 23L39 23L39 24L38 24L38 25L39 25L39 26L38 26L38 27L39 27L39 26L40 26L40 25L41 25L41 24L43 24L43 22L41 22L41 23L39 23L39 21L38 21L38 22L35 22L35 21L33 21L33 20L34 20L34 19L32 19L32 20L31 20L31 22L29 22L29 24L28 24L28 22L25 22L25 21L27 21L27 20L28 20L28 18L29 18L29 17L30 17L30 19L31 19L31 18L33 18L33 17L31 17L31 16L32 16L32 14L31 14L31 12L32 12L32 13L33 13L33 12L32 12L32 11L33 11L33 10L34 10L34 11L35 11L35 12L34 12L34 14L33 14L33 15L35 15L35 16L34 16L34 17L35 17L35 20L36 20L36 21L37 21L37 20L36 20L36 19L38 19L38 20L40 20L40 19L39 19L39 18L41 18L41 19L42 19L42 18L41 18L41 17L42 17L42 14L44 14L44 13L43 13L43 12L42 12L42 11L43 11L43 10L42 10L42 11L40 11L40 13L41 13L41 16L40 16L40 17L39 17L39 15L37 15L37 13L36 13L36 15L35 15L35 12L36 12L36 11L37 11L37 12L38 12L38 11L39 11L39 10L41 10L41 9L42 9L42 8L41 8L41 7L42 7L42 5L43 5L43 4L41 4L41 7L40 7L40 5L38 5L38 6L37 6L37 5L36 5L36 4L35 4L35 3L34 3L34 5L33 5L33 3L32 3L32 4L31 4L31 3L30 3L30 2ZM24 4L24 6L23 6L23 7L24 7L24 8L25 8L25 9L26 9L26 6L25 6L25 5L26 5L26 4ZM27 5L27 8L30 8L30 5ZM14 6L14 7L15 7L15 6ZM24 6L24 7L25 7L25 6ZM28 6L28 7L29 7L29 6ZM32 6L32 8L33 8L33 6ZM34 6L34 9L36 9L36 8L38 8L38 7L39 7L39 6L38 6L38 7L37 7L37 6L36 6L36 7L35 7L35 6ZM46 7L46 8L47 8L47 9L46 9L46 10L47 10L47 9L49 9L49 8L47 8L47 7ZM15 8L15 11L16 11L16 13L17 13L17 12L18 12L18 10L17 10L17 11L16 11L16 8ZM17 8L17 9L18 9L18 8ZM39 8L39 9L41 9L41 8ZM56 8L56 9L57 9L57 8ZM37 9L37 10L38 10L38 9ZM9 10L9 11L8 11L8 12L6 12L6 13L7 13L7 14L8 14L8 15L9 15L9 16L10 16L10 17L11 17L11 16L10 16L10 15L9 15L9 14L10 14L10 13L11 13L11 12L10 12L10 10ZM35 10L35 11L36 11L36 10ZM55 10L55 12L56 12L56 11L57 11L57 10ZM30 11L30 12L31 12L31 11ZM26 12L26 14L25 14L25 16L26 16L26 14L27 14L27 17L25 17L25 18L24 18L24 19L25 19L25 20L27 20L27 19L26 19L26 18L27 18L27 17L29 17L29 16L31 16L31 14L30 14L30 13L28 13L28 12ZM50 12L50 13L51 13L51 15L50 15L50 16L51 16L51 15L52 15L52 18L54 18L54 17L55 17L55 16L53 16L53 15L54 15L54 13L53 13L53 14L52 14L52 13L51 13L51 12ZM8 13L8 14L9 14L9 13ZM16 14L16 15L17 15L17 14ZM2 15L2 16L3 16L3 15ZM12 15L12 16L13 16L13 15ZM20 15L20 16L19 16L19 17L21 17L21 18L20 18L20 20L21 20L21 21L23 21L23 20L21 20L21 18L22 18L22 17L21 17L21 15ZM28 15L28 16L29 16L29 15ZM6 17L6 18L7 18L7 17ZM36 17L36 18L37 18L37 17ZM45 18L45 19L46 19L46 18ZM13 19L13 22L14 22L14 23L15 23L15 24L14 24L14 25L15 25L15 26L14 26L14 27L13 27L13 30L14 30L14 29L16 29L16 30L15 30L15 31L13 31L13 32L15 32L15 33L14 33L14 34L15 34L15 33L17 33L17 34L16 34L16 35L17 35L17 36L18 36L18 38L19 38L19 39L17 39L17 40L20 40L20 41L22 41L22 44L20 44L20 45L17 45L17 47L18 47L18 46L19 46L19 48L20 48L20 45L21 45L21 46L22 46L22 47L21 47L21 48L23 48L23 49L24 49L24 48L25 48L25 47L24 47L24 46L25 46L25 45L26 45L26 46L27 46L27 45L26 45L26 43L23 43L23 42L24 42L24 41L25 41L25 39L24 39L24 37L26 37L26 36L23 36L23 38L22 38L22 37L21 37L21 38L20 38L20 37L19 37L19 36L18 36L18 34L19 34L19 33L18 33L18 31L19 31L19 30L18 30L18 31L17 31L17 27L19 27L19 28L18 28L18 29L19 29L19 28L20 28L20 29L21 29L21 28L20 28L20 27L19 27L19 26L17 26L17 27L15 27L15 26L16 26L16 23L15 23L15 22L14 22L14 20L15 20L15 19ZM11 20L11 21L12 21L12 20ZM29 20L29 21L30 21L30 20ZM41 20L41 21L42 21L42 20ZM49 20L49 24L48 24L48 23L47 23L47 24L48 24L48 26L47 26L47 25L46 25L46 26L47 26L47 27L48 27L48 26L49 26L49 25L51 25L51 26L52 26L52 25L53 25L53 24L50 24L50 23L52 23L52 22L51 22L51 21L50 21L50 20ZM56 21L56 22L55 22L55 23L57 23L57 21ZM1 23L1 24L3 24L3 25L2 25L2 26L3 26L3 25L5 25L5 26L7 26L7 25L5 25L5 24L4 24L4 23ZM26 23L26 24L27 24L27 23ZM30 25L30 26L31 26L31 25ZM34 25L34 27L35 27L35 28L34 28L34 29L37 29L37 28L36 28L36 27L35 27L35 25ZM5 27L5 30L8 30L8 27ZM14 27L14 28L15 28L15 27ZM27 27L27 30L30 30L30 27ZM31 27L31 28L33 28L33 27ZM42 27L42 28L44 28L44 27ZM49 27L49 30L52 30L52 27ZM6 28L6 29L7 29L7 28ZM10 28L10 29L11 29L11 28ZM28 28L28 29L29 29L29 28ZM40 28L40 29L38 29L38 30L36 30L36 31L37 31L37 32L36 32L36 33L37 33L37 32L38 32L38 34L39 34L39 31L38 31L38 30L41 30L41 31L40 31L40 32L41 32L41 31L44 31L44 33L45 33L45 34L46 34L46 35L45 35L45 36L44 36L44 37L41 37L41 35L42 35L42 36L43 36L43 35L44 35L44 34L43 34L43 35L42 35L42 34L41 34L41 35L39 35L39 36L40 36L40 37L41 37L41 38L44 38L44 39L45 39L45 41L46 41L46 38L47 38L47 37L49 37L49 39L47 39L47 40L50 40L50 41L47 41L47 42L48 42L48 43L49 43L49 42L50 42L50 41L52 41L52 40L53 40L53 39L54 39L54 38L53 38L53 36L52 36L52 35L51 35L51 36L48 36L48 35L49 35L49 34L50 34L50 33L49 33L49 32L51 32L51 31L49 31L49 32L48 32L48 29L47 29L47 31L45 31L45 30L43 30L43 29L42 29L42 30L41 30L41 28ZM50 28L50 29L51 29L51 28ZM53 28L53 31L52 31L52 34L54 34L54 33L55 33L55 34L56 34L56 33L55 33L55 30L56 30L56 29L54 29L54 28ZM5 31L5 32L8 32L8 33L9 33L9 32L10 32L10 31L9 31L9 32L8 32L8 31ZM15 31L15 32L16 32L16 31ZM34 31L34 32L35 32L35 31ZM27 32L27 33L28 33L28 32ZM42 32L42 33L43 33L43 32ZM46 32L46 33L47 33L47 32ZM53 32L53 33L54 33L54 32ZM5 33L5 34L3 34L3 36L1 36L1 40L2 40L2 39L3 39L3 38L2 38L2 37L3 37L3 36L4 36L4 35L5 35L5 34L7 34L7 33ZM9 34L9 35L8 35L8 36L7 36L7 35L6 35L6 36L7 36L7 37L6 37L6 38L10 38L10 36L11 36L11 35L10 35L10 34ZM25 34L25 35L26 35L26 34ZM27 34L27 36L29 36L29 35L28 35L28 34ZM47 34L47 35L48 35L48 34ZM9 35L9 36L10 36L10 35ZM12 35L12 36L13 36L13 35ZM54 35L54 36L56 36L56 35ZM45 36L45 38L46 38L46 37L47 37L47 36ZM51 36L51 38L52 38L52 36ZM21 38L21 40L22 40L22 41L23 41L23 40L24 40L24 39L22 39L22 38ZM12 39L12 40L13 40L13 39ZM50 39L50 40L52 40L52 39ZM20 42L20 43L21 43L21 42ZM37 42L37 44L38 44L38 43L39 43L39 42ZM45 42L45 43L46 43L46 42ZM53 42L53 43L52 43L52 44L55 44L55 43L54 43L54 42ZM8 43L8 44L9 44L9 43ZM15 43L15 45L16 45L16 44L17 44L17 43ZM12 44L12 45L13 45L13 44ZM22 44L22 46L23 46L23 44ZM1 45L1 47L2 47L2 45ZM30 45L30 46L32 46L32 48L33 48L33 46L32 46L32 45ZM44 45L44 46L45 46L45 45ZM49 47L49 48L51 48L51 47ZM6 48L6 49L7 49L7 48ZM41 48L41 49L42 49L42 48ZM16 49L16 50L15 50L15 51L14 51L14 52L15 52L15 53L13 53L13 54L12 54L12 55L11 55L11 56L12 56L12 55L13 55L13 54L15 54L15 53L16 53L16 54L18 54L18 53L19 53L19 52L20 52L20 50L18 50L18 51L17 51L17 49ZM27 49L27 52L30 52L30 49ZM34 49L34 50L35 50L35 49ZM49 49L49 52L52 52L52 49ZM28 50L28 51L29 51L29 50ZM31 50L31 53L32 53L32 51L33 51L33 52L35 52L35 51L33 51L33 50ZM50 50L50 51L51 51L51 50ZM15 51L15 52L16 52L16 51ZM18 51L18 52L19 52L19 51ZM40 51L40 52L41 52L41 51ZM45 51L45 53L46 53L46 51ZM20 53L20 55L21 55L21 56L22 56L22 54L21 54L21 53ZM47 53L47 54L50 54L50 53ZM23 54L23 56L24 56L24 55L25 55L25 54ZM17 55L17 56L18 56L18 55ZM39 55L39 56L40 56L40 55ZM56 55L56 56L57 56L57 55ZM0 0L0 7L7 7L7 0ZM1 1L1 6L6 6L6 1ZM2 2L2 5L5 5L5 2ZM50 0L50 7L57 7L57 0ZM51 1L51 6L56 6L56 1ZM52 2L52 5L55 5L55 2ZM0 50L0 57L7 57L7 50ZM1 51L1 56L6 56L6 51ZM2 52L2 55L5 55L5 52Z" fill="#000000"/></g></g></svg>
