<?xml version="1.0" encoding="UTF-8"?>
<svg xmlns="http://www.w3.org/2000/svg" version="1.1" width="300" height="300" viewBox="0 0 300 300"><rect x="0" y="0" width="300" height="300" fill="#fefefe"/><g transform="scale(4.615)"><g transform="translate(4,4)"><path fill-rule="evenodd" d="M8 0L8 2L9 2L9 3L10 3L10 2L9 2L9 0ZM10 0L10 1L11 1L11 2L12 2L12 0ZM13 0L13 1L14 1L14 3L12 3L12 4L11 4L11 5L10 5L10 4L8 4L8 10L6 10L6 9L7 9L7 8L5 8L5 10L6 10L6 11L4 11L4 9L3 9L3 8L0 8L0 10L1 10L1 9L2 9L2 10L3 10L3 11L0 11L0 12L3 12L3 13L2 13L2 14L1 14L1 13L0 13L0 14L1 14L1 15L2 15L2 16L3 16L3 17L1 17L1 16L0 16L0 17L1 17L1 18L0 18L0 19L1 19L1 20L0 20L0 22L1 22L1 20L3 20L3 21L5 21L5 20L6 20L6 21L7 21L7 22L5 22L5 24L4 24L4 23L3 23L3 22L2 22L2 23L0 23L0 25L1 25L1 24L3 24L3 25L2 25L2 26L1 26L1 27L3 27L3 28L1 28L1 29L0 29L0 30L1 30L1 29L2 29L2 32L0 32L0 39L1 39L1 40L3 40L3 42L4 42L4 44L5 44L5 47L3 47L3 46L2 46L2 45L3 45L3 43L2 43L2 44L1 44L1 42L2 42L2 41L0 41L0 48L5 48L5 47L7 47L7 48L6 48L6 49L8 49L8 50L9 50L9 51L8 51L8 52L9 52L9 51L10 51L10 49L11 49L11 50L13 50L13 52L12 52L12 53L13 53L13 52L14 52L14 53L15 53L15 54L12 54L12 56L10 56L10 55L11 55L11 52L10 52L10 53L9 53L9 54L8 54L8 57L9 57L9 56L10 56L10 57L12 57L12 56L13 56L13 57L17 57L17 56L18 56L18 57L20 57L20 56L18 56L18 55L19 55L19 54L18 54L18 53L19 53L19 52L20 52L20 53L21 53L21 54L20 54L20 55L21 55L21 56L22 56L22 57L25 57L25 56L26 56L26 57L28 57L28 55L29 55L29 57L33 57L33 55L34 55L34 57L35 57L35 55L38 55L38 52L40 52L40 53L39 53L39 56L40 56L40 57L41 57L41 56L42 56L42 57L43 57L43 56L44 56L44 57L46 57L46 56L47 56L47 57L48 57L48 56L47 56L47 54L46 54L46 53L45 53L45 52L47 52L47 53L49 53L49 54L48 54L48 55L49 55L49 57L50 57L50 55L49 55L49 54L52 54L52 55L53 55L53 53L57 53L57 50L56 50L56 51L55 51L55 52L54 52L54 51L53 51L53 50L54 50L54 49L56 49L56 47L57 47L57 45L56 45L56 44L57 44L57 40L54 40L54 39L53 39L53 38L54 38L54 37L55 37L55 38L57 38L57 36L56 36L56 35L57 35L57 34L56 34L56 35L55 35L55 36L54 36L54 34L53 34L53 36L51 36L51 33L50 33L50 31L51 31L51 32L53 32L53 33L54 33L54 31L55 31L55 33L56 33L56 31L57 31L57 29L56 29L56 28L57 28L57 24L56 24L56 23L57 23L57 21L56 21L56 23L55 23L55 24L54 24L54 23L53 23L53 24L52 24L52 22L55 22L55 21L54 21L54 19L56 19L56 20L57 20L57 13L56 13L56 12L55 12L55 13L56 13L56 15L55 15L55 14L53 14L53 12L54 12L54 11L55 11L55 9L57 9L57 8L55 8L55 9L54 9L54 10L53 10L53 8L49 8L49 10L50 10L50 13L49 13L49 14L48 14L48 12L47 12L47 11L46 11L46 9L47 9L47 8L48 8L48 7L49 7L49 6L48 6L48 7L47 7L47 5L48 5L48 0L42 0L42 1L41 1L41 0L38 0L38 2L37 2L37 1L35 1L35 0L34 0L34 2L33 2L33 0L32 0L32 2L31 2L31 0L28 0L28 3L27 3L27 0L26 0L26 1L25 1L25 0L24 0L24 1L23 1L23 0L20 0L20 3L21 3L21 5L20 5L20 7L19 7L19 4L18 4L18 3L19 3L19 0L16 0L16 1L14 1L14 0ZM16 1L16 2L15 2L15 3L14 3L14 4L15 4L15 3L16 3L16 4L17 4L17 5L16 5L16 6L15 6L15 7L14 7L14 6L13 6L13 7L12 7L12 5L13 5L13 4L12 4L12 5L11 5L11 7L12 7L12 8L13 8L13 9L11 9L11 8L10 8L10 6L9 6L9 10L8 10L8 11L6 11L6 12L5 12L5 13L6 13L6 14L7 14L7 15L6 15L6 16L7 16L7 17L6 17L6 18L7 18L7 19L6 19L6 20L8 20L8 21L9 21L9 22L8 22L8 23L6 23L6 24L5 24L5 25L4 25L4 26L3 26L3 27L4 27L4 26L5 26L5 25L6 25L6 26L8 26L8 25L11 25L11 23L13 23L13 24L12 24L12 26L11 26L11 28L10 28L10 27L9 27L9 28L10 28L10 29L9 29L9 31L6 31L6 32L8 32L8 33L10 33L10 34L9 34L9 35L10 35L10 34L11 34L11 36L12 36L12 37L13 37L13 36L12 36L12 35L14 35L14 42L13 42L13 41L12 41L12 40L13 40L13 38L12 38L12 39L11 39L11 40L10 40L10 38L11 38L11 37L10 37L10 38L9 38L9 36L7 36L7 35L8 35L8 34L7 34L7 33L1 33L1 34L2 34L2 35L1 35L1 37L2 37L2 35L4 35L4 34L5 34L5 36L3 36L3 37L5 37L5 36L7 36L7 37L6 37L6 38L9 38L9 40L10 40L10 41L9 41L9 42L11 42L11 43L12 43L12 46L11 46L11 44L9 44L9 43L8 43L8 42L7 42L7 41L8 41L8 39L6 39L6 40L4 40L4 39L5 39L5 38L4 38L4 39L3 39L3 40L4 40L4 42L5 42L5 44L7 44L7 45L6 45L6 46L7 46L7 47L9 47L9 49L10 49L10 48L12 48L12 49L13 49L13 47L14 47L14 48L15 48L15 50L14 50L14 51L15 51L15 52L16 52L16 51L18 51L18 52L17 52L17 53L18 53L18 52L19 52L19 51L20 51L20 50L22 50L22 48L23 48L23 49L24 49L24 51L22 51L22 52L24 52L24 51L25 51L25 54L24 54L24 55L26 55L26 50L25 50L25 49L26 49L26 48L27 48L27 47L28 47L28 46L29 46L29 47L30 47L30 48L31 48L31 50L32 50L32 48L34 48L34 47L35 47L35 49L34 49L34 50L35 50L35 51L37 51L37 52L38 52L38 51L39 51L39 49L40 49L40 51L41 51L41 53L42 53L42 54L43 54L43 55L44 55L44 56L46 56L46 55L44 55L44 52L43 52L43 53L42 53L42 51L41 51L41 49L42 49L42 50L44 50L44 51L46 51L46 50L47 50L47 49L46 49L46 48L45 48L45 49L44 49L44 46L45 46L45 45L44 45L44 43L41 43L41 42L40 42L40 38L39 38L39 36L40 36L40 35L42 35L42 36L41 36L41 37L42 37L42 38L41 38L41 41L42 41L42 42L43 42L43 41L42 41L42 39L43 39L43 38L44 38L44 35L43 35L43 33L42 33L42 31L44 31L44 30L43 30L43 28L42 28L42 31L41 31L41 30L40 30L40 28L41 28L41 27L40 27L40 26L41 26L41 25L40 25L40 23L41 23L41 24L42 24L42 27L43 27L43 26L44 26L44 24L46 24L46 26L45 26L45 27L46 27L46 26L47 26L47 24L46 24L46 23L48 23L48 22L50 22L50 26L52 26L52 24L51 24L51 22L52 22L52 20L53 20L53 19L54 19L54 17L56 17L56 16L55 16L55 15L54 15L54 17L53 17L53 18L52 18L52 16L53 16L53 14L52 14L52 13L50 13L50 16L51 16L51 17L50 17L50 18L51 18L51 20L49 20L49 19L48 19L48 20L46 20L46 23L44 23L44 22L45 22L45 21L44 21L44 19L47 19L47 17L46 17L46 15L48 15L48 14L47 14L47 13L46 13L46 11L45 11L45 10L44 10L44 9L43 9L43 7L44 7L44 6L45 6L45 7L46 7L46 8L47 8L47 7L46 7L46 5L47 5L47 3L46 3L46 5L44 5L44 4L45 4L45 2L47 2L47 1L42 1L42 2L40 2L40 1L39 1L39 2L38 2L38 4L37 4L37 2L34 2L34 4L35 4L35 9L34 9L34 10L33 10L33 9L32 9L32 8L34 8L34 6L33 6L33 2L32 2L32 5L31 5L31 9L30 9L30 10L29 10L29 9L27 9L27 10L25 10L25 9L26 9L26 5L24 5L24 6L23 6L23 5L22 5L22 6L21 6L21 9L20 9L20 10L19 10L19 9L18 9L18 8L17 8L17 7L18 7L18 6L17 6L17 5L18 5L18 4L17 4L17 3L18 3L18 1ZM22 1L22 4L23 4L23 1ZM24 1L24 4L25 4L25 1ZM16 2L16 3L17 3L17 2ZM29 2L29 3L28 3L28 4L29 4L29 3L30 3L30 2ZM39 2L39 4L38 4L38 5L39 5L39 4L40 4L40 2ZM43 2L43 4L42 4L42 3L41 3L41 4L42 4L42 5L41 5L41 6L40 6L40 7L39 7L39 6L38 6L38 9L37 9L37 6L36 6L36 10L34 10L34 11L33 11L33 12L32 12L32 13L31 13L31 14L32 14L32 13L33 13L33 15L31 15L31 16L30 16L30 15L29 15L29 13L30 13L30 12L31 12L31 11L32 11L32 9L31 9L31 10L30 10L30 12L29 12L29 10L27 10L27 11L28 11L28 12L27 12L27 13L26 13L26 11L24 11L24 9L25 9L25 8L22 8L22 9L23 9L23 11L22 11L22 12L23 12L23 11L24 11L24 13L23 13L23 14L24 14L24 15L25 15L25 16L26 16L26 18L24 18L24 16L22 16L22 14L21 14L21 16L20 16L20 17L19 17L19 15L20 15L20 13L21 13L21 12L20 12L20 13L19 13L19 12L18 12L18 11L19 11L19 10L16 10L16 8L14 8L14 9L13 9L13 10L12 10L12 11L10 11L10 12L9 12L9 11L8 11L8 15L7 15L7 16L8 16L8 18L10 18L10 19L9 19L9 20L10 20L10 22L9 22L9 23L10 23L10 22L11 22L11 21L13 21L13 22L14 22L14 21L15 21L15 24L14 24L14 25L13 25L13 27L12 27L12 28L11 28L11 29L10 29L10 31L9 31L9 32L10 32L10 31L11 31L11 34L13 34L13 33L12 33L12 29L14 29L14 30L13 30L13 32L16 32L16 31L18 31L18 30L15 30L15 29L14 29L14 28L13 28L13 27L16 27L16 28L17 28L17 27L16 27L16 24L17 24L17 23L16 23L16 22L17 22L17 20L16 20L16 19L15 19L15 15L17 15L17 19L18 19L18 18L20 18L20 19L19 19L19 20L18 20L18 23L19 23L19 20L20 20L20 21L21 21L21 22L20 22L20 23L21 23L21 24L22 24L22 25L21 25L21 26L20 26L20 27L21 27L21 28L20 28L20 29L19 29L19 31L20 31L20 32L21 32L21 31L20 31L20 29L21 29L21 30L22 30L22 33L23 33L23 34L20 34L20 36L16 36L16 37L17 37L17 38L16 38L16 39L17 39L17 43L16 43L16 40L15 40L15 42L14 42L14 43L13 43L13 42L12 42L12 41L11 41L11 42L12 42L12 43L13 43L13 44L16 44L16 45L15 45L15 46L16 46L16 47L15 47L15 48L16 48L16 47L20 47L20 45L21 45L21 43L20 43L20 41L21 41L21 42L22 42L22 41L23 41L23 43L22 43L22 44L24 44L24 45L23 45L23 48L24 48L24 47L26 47L26 46L28 46L28 45L30 45L30 47L31 47L31 48L32 48L32 46L31 46L31 45L30 45L30 44L29 44L29 42L30 42L30 43L31 43L31 38L34 38L34 37L35 37L35 38L36 38L36 41L35 41L35 39L34 39L34 41L33 41L33 40L32 40L32 45L33 45L33 47L34 47L34 45L33 45L33 44L36 44L36 45L37 45L37 46L38 46L38 45L37 45L37 44L39 44L39 43L40 43L40 45L39 45L39 46L40 46L40 45L41 45L41 47L40 47L40 49L41 49L41 47L42 47L42 45L43 45L43 44L42 44L42 45L41 45L41 43L40 43L40 42L39 42L39 43L37 43L37 44L36 44L36 41L37 41L37 42L38 42L38 41L39 41L39 38L38 38L38 37L37 37L37 36L38 36L38 35L39 35L39 34L38 34L38 33L39 33L39 32L40 32L40 34L42 34L42 33L41 33L41 32L40 32L40 30L39 30L39 31L38 31L38 30L37 30L37 31L36 31L36 29L37 29L37 28L38 28L38 29L39 29L39 28L40 28L40 27L39 27L39 26L38 26L38 25L39 25L39 22L38 22L38 20L39 20L39 19L40 19L40 22L41 22L41 23L43 23L43 22L44 22L44 21L43 21L43 22L42 22L42 20L43 20L43 19L44 19L44 17L45 17L45 16L44 16L44 15L46 15L46 13L45 13L45 12L44 12L44 13L43 13L43 14L44 14L44 15L43 15L43 16L44 16L44 17L43 17L43 18L42 18L42 17L41 17L41 15L42 15L42 12L43 12L43 10L42 10L42 8L40 8L40 7L41 7L41 6L42 6L42 7L43 7L43 6L44 6L44 5L43 5L43 4L44 4L44 2ZM26 3L26 4L27 4L27 3ZM35 3L35 4L36 4L36 3ZM27 5L27 8L30 8L30 5ZM16 6L16 7L17 7L17 6ZM22 6L22 7L23 7L23 6ZM24 6L24 7L25 7L25 6ZM28 6L28 7L29 7L29 6ZM32 6L32 7L33 7L33 6ZM39 8L39 9L38 9L38 10L37 10L37 11L34 11L34 12L35 12L35 13L34 13L34 15L33 15L33 17L34 17L34 19L33 19L33 18L32 18L32 16L31 16L31 17L30 17L30 16L29 16L29 15L28 15L28 14L26 14L26 13L24 13L24 14L26 14L26 16L27 16L27 18L26 18L26 20L25 20L25 19L24 19L24 20L25 20L25 21L26 21L26 20L27 20L27 22L26 22L26 23L28 23L28 22L29 22L29 25L30 25L30 26L31 26L31 25L32 25L32 27L31 27L31 30L32 30L32 31L31 31L31 32L30 32L30 34L31 34L31 35L28 35L28 34L29 34L29 31L28 31L28 32L27 32L27 33L28 33L28 34L26 34L26 30L25 30L25 28L24 28L24 26L25 26L25 25L24 25L24 24L23 24L23 23L22 23L22 22L21 22L21 23L22 23L22 24L23 24L23 25L24 25L24 26L23 26L23 27L22 27L22 28L24 28L24 31L23 31L23 32L24 32L24 34L26 34L26 36L25 36L25 35L23 35L23 37L22 37L22 35L21 35L21 37L22 37L22 38L20 38L20 39L22 39L22 38L23 38L23 40L24 40L24 44L25 44L25 42L26 42L26 41L25 41L25 40L26 40L26 39L27 39L27 41L28 41L28 42L27 42L27 44L28 44L28 42L29 42L29 41L30 41L30 36L31 36L31 37L32 37L32 36L31 36L31 35L32 35L32 34L33 34L33 37L34 37L34 34L35 34L35 33L36 33L36 35L35 35L35 37L36 37L36 38L37 38L37 41L38 41L38 38L37 38L37 37L36 37L36 35L38 35L38 34L37 34L37 33L36 33L36 31L35 31L35 29L36 29L36 28L35 28L35 29L34 29L34 27L37 27L37 26L36 26L36 24L37 24L37 25L38 25L38 22L37 22L37 21L36 21L36 20L35 20L35 18L36 18L36 19L37 19L37 18L36 18L36 15L37 15L37 16L38 16L38 18L40 18L40 19L41 19L41 20L42 20L42 19L41 19L41 18L40 18L40 15L39 15L39 14L40 14L40 11L41 11L41 12L42 12L42 10L41 10L41 9L40 9L40 8ZM14 9L14 10L13 10L13 14L11 14L11 13L12 13L12 12L10 12L10 14L9 14L9 15L11 15L11 16L13 16L13 17L10 17L10 16L9 16L9 17L10 17L10 18L12 18L12 19L10 19L10 20L13 20L13 18L14 18L14 15L15 15L15 14L17 14L17 15L18 15L18 14L19 14L19 13L18 13L18 14L17 14L17 12L16 12L16 11L15 11L15 9ZM50 9L50 10L51 10L51 9ZM39 10L39 11L37 11L37 12L36 12L36 14L35 14L35 15L34 15L34 17L35 17L35 15L36 15L36 14L37 14L37 15L38 15L38 13L37 13L37 12L39 12L39 11L40 11L40 10ZM56 10L56 11L57 11L57 10ZM14 11L14 12L15 12L15 11ZM51 11L51 12L52 12L52 11ZM6 12L6 13L7 13L7 12ZM3 13L3 16L4 16L4 17L3 17L3 18L1 18L1 19L4 19L4 17L5 17L5 16L4 16L4 15L5 15L5 14L4 14L4 13ZM44 13L44 14L45 14L45 13ZM13 14L13 15L14 15L14 14ZM51 14L51 15L52 15L52 14ZM48 16L48 18L49 18L49 16ZM20 17L20 18L21 18L21 17ZM28 17L28 18L30 18L30 17ZM14 19L14 20L15 20L15 19ZM20 19L20 20L21 20L21 21L22 21L22 20L23 20L23 19L22 19L22 20L21 20L21 19ZM30 19L30 21L29 21L29 20L28 20L28 21L29 21L29 22L30 22L30 25L31 25L31 23L32 23L32 25L33 25L33 26L34 26L34 24L36 24L36 23L37 23L37 22L36 22L36 21L35 21L35 20L34 20L34 21L33 21L33 19ZM31 20L31 21L30 21L30 22L33 22L33 24L34 24L34 22L35 22L35 23L36 23L36 22L35 22L35 21L34 21L34 22L33 22L33 21L32 21L32 20ZM48 20L48 21L47 21L47 22L48 22L48 21L49 21L49 20ZM24 22L24 23L25 23L25 22ZM6 24L6 25L7 25L7 24ZM18 24L18 26L19 26L19 24ZM27 24L27 25L26 25L26 26L27 26L27 25L28 25L28 24ZM55 24L55 25L54 25L54 26L55 26L55 27L54 27L54 28L53 28L53 29L54 29L54 30L55 30L55 31L56 31L56 30L55 30L55 27L56 27L56 26L55 26L55 25L56 25L56 24ZM14 25L14 26L15 26L15 25ZM48 25L48 26L49 26L49 25ZM5 27L5 30L8 30L8 27ZM18 27L18 28L19 28L19 27ZM27 27L27 30L30 30L30 27ZM49 27L49 30L52 30L52 27ZM6 28L6 29L7 29L7 28ZM28 28L28 29L29 29L29 28ZM32 28L32 30L33 30L33 31L34 31L34 29L33 29L33 28ZM46 28L46 29L45 29L45 30L46 30L46 31L45 31L45 33L46 33L46 34L48 34L48 33L46 33L46 32L47 32L47 28ZM50 28L50 29L51 29L51 28ZM3 29L3 32L4 32L4 29ZM22 29L22 30L23 30L23 29ZM37 31L37 32L38 32L38 31ZM17 32L17 34L16 34L16 33L14 33L14 34L15 34L15 35L17 35L17 34L18 34L18 35L19 35L19 32ZM32 32L32 33L31 33L31 34L32 34L32 33L33 33L33 34L34 34L34 32ZM49 33L49 36L50 36L50 33ZM6 34L6 35L7 35L7 34ZM27 35L27 36L26 36L26 37L27 37L27 36L28 36L28 37L29 37L29 36L28 36L28 35ZM45 35L45 37L46 37L46 38L47 38L47 40L48 40L48 41L46 41L46 39L45 39L45 41L44 41L44 42L45 42L45 41L46 41L46 43L47 43L47 44L46 44L46 47L47 47L47 46L50 46L50 45L51 45L51 44L50 44L50 42L49 42L49 41L51 41L51 40L52 40L52 47L51 47L51 48L52 48L52 47L54 47L54 48L53 48L53 49L54 49L54 48L55 48L55 47L56 47L56 45L55 45L55 44L56 44L56 41L54 41L54 40L53 40L53 39L51 39L51 40L48 40L48 38L47 38L47 36L48 36L48 35L47 35L47 36L46 36L46 35ZM24 36L24 37L25 37L25 36ZM42 36L42 37L43 37L43 36ZM53 36L53 37L52 37L52 38L53 38L53 37L54 37L54 36ZM55 36L55 37L56 37L56 36ZM50 37L50 38L49 38L49 39L50 39L50 38L51 38L51 37ZM1 38L1 39L2 39L2 38ZM17 38L17 39L18 39L18 38ZM24 38L24 39L26 39L26 38ZM28 38L28 39L29 39L29 38ZM6 40L6 41L7 41L7 40ZM19 40L19 41L20 41L20 40ZM21 40L21 41L22 41L22 40ZM28 40L28 41L29 41L29 40ZM34 41L34 42L35 42L35 41ZM53 41L53 44L54 44L54 43L55 43L55 42L54 42L54 41ZM6 42L6 43L7 43L7 42ZM18 43L18 44L19 44L19 45L18 45L18 46L19 46L19 45L20 45L20 43ZM48 43L48 44L47 44L47 45L50 45L50 44L49 44L49 43ZM9 45L9 46L10 46L10 45ZM13 45L13 46L14 46L14 45ZM16 45L16 46L17 46L17 45ZM24 45L24 46L26 46L26 45ZM54 45L54 46L55 46L55 45ZM1 46L1 47L2 47L2 46ZM21 46L21 48L20 48L20 49L19 49L19 48L18 48L18 49L17 49L17 50L18 50L18 51L19 51L19 50L20 50L20 49L21 49L21 48L22 48L22 46ZM35 46L35 47L36 47L36 46ZM37 47L37 48L36 48L36 49L37 49L37 51L38 51L38 47ZM18 49L18 50L19 50L19 49ZM27 49L27 52L30 52L30 49ZM45 49L45 50L46 50L46 49ZM49 49L49 52L52 52L52 49ZM15 50L15 51L16 51L16 50ZM28 50L28 51L29 51L29 50ZM50 50L50 51L51 51L51 50ZM31 51L31 52L32 52L32 51ZM33 51L33 52L34 52L34 55L35 55L35 53L36 53L36 54L37 54L37 53L36 53L36 52L34 52L34 51ZM47 51L47 52L48 52L48 51ZM27 53L27 55L28 55L28 53ZM31 53L31 54L30 54L30 55L33 55L33 54L32 54L32 53ZM16 54L16 55L17 55L17 54ZM22 54L22 56L23 56L23 54ZM40 54L40 55L41 55L41 54ZM54 54L54 55L57 55L57 54ZM36 56L36 57L37 57L37 56ZM51 56L51 57L53 57L53 56ZM56 56L56 57L57 57L57 56ZM0 0L0 7L7 7L7 0ZM1 1L1 6L6 6L6 1ZM2 2L2 5L5 5L5 2ZM50 0L50 7L57 7L57 0ZM51 1L51 6L56 6L56 1ZM52 2L52 5L55 5L55 2ZM0 50L0 57L7 57L7 50ZM1 51L1 56L6 56L6 51ZM2 52L2 55L5 55L5 52Z" fill="#000000"/></g></g></svg>
