<?xml version="1.0" encoding="UTF-8"?>
<svg xmlns="http://www.w3.org/2000/svg" version="1.1" width="300" height="300" viewBox="0 0 300 300"><rect x="0" y="0" width="300" height="300" fill="#fefefe"/><g transform="scale(4.615)"><g transform="translate(4,4)"><path fill-rule="evenodd" d="M8 0L8 2L9 2L9 3L10 3L10 5L9 5L9 4L8 4L8 9L10 9L10 8L12 8L12 11L13 11L13 8L14 8L14 9L15 9L15 10L16 10L16 11L14 11L14 12L17 12L17 14L15 14L15 15L17 15L17 16L14 16L14 15L12 15L12 14L13 14L13 12L10 12L10 11L11 11L11 10L10 10L10 11L7 11L7 10L6 10L6 9L7 9L7 8L5 8L5 9L4 9L4 10L3 10L3 11L4 11L4 13L5 13L5 12L6 12L6 13L7 13L7 14L5 14L5 15L2 15L2 14L3 14L3 12L2 12L2 13L1 13L1 14L0 14L0 15L2 15L2 16L3 16L3 17L2 17L2 18L1 18L1 19L2 19L2 20L0 20L0 22L2 22L2 23L1 23L1 25L0 25L0 27L1 27L1 26L3 26L3 27L4 27L4 28L3 28L3 29L2 29L2 32L3 32L3 30L4 30L4 31L7 31L7 32L4 32L4 33L5 33L5 34L3 34L3 33L0 33L0 36L1 36L1 34L2 34L2 37L1 37L1 38L2 38L2 39L3 39L3 38L4 38L4 40L3 40L3 42L1 42L1 43L0 43L0 45L1 45L1 46L0 46L0 48L5 48L5 47L8 47L8 46L5 46L5 47L3 47L3 46L4 46L4 45L8 45L8 44L11 44L11 47L10 47L10 48L6 48L6 49L8 49L8 50L9 50L9 49L11 49L11 52L9 52L9 51L8 51L8 52L9 52L9 53L12 53L12 50L13 50L13 52L14 52L14 54L12 54L12 55L11 55L11 57L12 57L12 55L13 55L13 56L15 56L15 57L17 57L17 56L18 56L18 57L19 57L19 54L18 54L18 53L19 53L19 52L20 52L20 53L21 53L21 52L22 52L22 54L23 54L23 55L22 55L22 56L21 56L21 57L25 57L25 55L26 55L26 57L28 57L28 55L29 55L29 57L33 57L33 55L30 55L30 54L31 54L31 53L32 53L32 54L34 54L34 57L35 57L35 55L38 55L38 52L40 52L40 53L39 53L39 56L40 56L40 57L42 57L42 56L43 56L43 54L42 54L42 53L41 53L41 51L42 51L42 52L44 52L44 57L46 57L46 56L47 56L47 57L48 57L48 56L47 56L47 55L46 55L46 56L45 56L45 53L46 53L46 52L47 52L47 54L48 54L48 55L49 55L49 57L50 57L50 55L49 55L49 54L52 54L52 55L53 55L53 56L51 56L51 57L54 57L54 53L56 53L56 51L57 51L57 49L56 49L56 47L57 47L57 45L56 45L56 47L55 47L55 45L54 45L54 46L52 46L52 45L51 45L51 44L52 44L52 40L53 40L53 44L54 44L54 43L55 43L55 44L56 44L56 43L57 43L57 42L56 42L56 43L55 43L55 42L54 42L54 41L57 41L57 40L54 40L54 39L52 39L52 40L51 40L51 38L52 38L52 37L53 37L53 38L54 38L54 37L55 37L55 38L57 38L57 33L56 33L56 31L57 31L57 29L55 29L55 30L54 30L54 31L53 31L53 28L54 28L54 27L55 27L55 28L56 28L56 27L57 27L57 24L56 24L56 23L57 23L57 21L56 21L56 20L55 20L55 21L54 21L54 19L55 19L55 17L54 17L54 15L55 15L55 16L56 16L56 17L57 17L57 13L56 13L56 12L55 12L55 13L56 13L56 15L55 15L55 14L54 14L54 13L53 13L53 12L54 12L54 11L55 11L55 9L57 9L57 8L55 8L55 9L54 9L54 10L53 10L53 8L48 8L48 7L49 7L49 6L48 6L48 7L47 7L47 5L48 5L48 0L46 0L46 1L45 1L45 0L42 0L42 1L41 1L41 0L38 0L38 2L37 2L37 1L35 1L35 0L34 0L34 2L33 2L33 0L32 0L32 1L31 1L31 0L30 0L30 2L29 2L29 0L28 0L28 1L27 1L27 0L24 0L24 1L23 1L23 0L20 0L20 1L19 1L19 0L16 0L16 1L15 1L15 0L14 0L14 3L12 3L12 2L13 2L13 1L12 1L12 0L11 0L11 1L12 1L12 2L9 2L9 0ZM20 1L20 2L22 2L22 4L21 4L21 3L19 3L19 2L18 2L18 3L16 3L16 2L15 2L15 3L14 3L14 4L15 4L15 3L16 3L16 4L17 4L17 5L16 5L16 6L15 6L15 7L14 7L14 5L13 5L13 4L11 4L11 5L10 5L10 6L9 6L9 7L10 7L10 6L11 6L11 7L12 7L12 5L13 5L13 7L14 7L14 8L15 8L15 9L16 9L16 10L17 10L17 9L18 9L18 10L19 10L19 11L18 11L18 12L19 12L19 11L20 11L20 10L21 10L21 13L20 13L20 14L19 14L19 13L18 13L18 14L17 14L17 15L18 15L18 14L19 14L19 15L21 15L21 14L22 14L22 16L24 16L24 18L25 18L25 19L24 19L24 20L25 20L25 19L26 19L26 20L27 20L27 22L26 22L26 23L27 23L27 22L28 22L28 24L27 24L27 25L26 25L26 26L27 26L27 25L28 25L28 26L29 26L29 25L28 25L28 24L29 24L29 23L30 23L30 26L31 26L31 25L32 25L32 28L31 28L31 29L32 29L32 28L33 28L33 29L34 29L34 31L35 31L35 33L34 33L34 32L33 32L33 31L32 31L32 30L31 30L31 31L32 31L32 32L30 32L30 31L28 31L28 32L27 32L27 33L28 33L28 34L27 34L27 35L28 35L28 36L26 36L26 37L24 37L24 36L25 36L25 35L26 35L26 33L25 33L25 32L24 32L24 34L25 34L25 35L22 35L22 36L21 36L21 37L22 37L22 38L23 38L23 41L22 41L22 40L21 40L21 41L20 41L20 40L19 40L19 39L18 39L18 38L17 38L17 37L18 37L18 36L20 36L20 35L18 35L18 31L19 31L19 28L21 28L21 23L22 23L22 24L23 24L23 25L24 25L24 27L22 27L22 28L23 28L23 29L22 29L22 30L21 30L21 29L20 29L20 30L21 30L21 31L20 31L20 32L19 32L19 33L20 33L20 34L23 34L23 33L22 33L22 30L23 30L23 29L24 29L24 31L26 31L26 30L25 30L25 29L24 29L24 28L25 28L25 25L24 25L24 24L23 24L23 23L22 23L22 22L21 22L21 21L20 21L20 20L22 20L22 19L20 19L20 18L21 18L21 16L20 16L20 18L19 18L19 17L18 17L18 16L17 16L17 17L16 17L16 18L17 18L17 17L18 17L18 18L19 18L19 19L18 19L18 20L17 20L17 22L16 22L16 23L18 23L18 22L19 22L19 24L20 24L20 27L19 27L19 25L18 25L18 24L17 24L17 25L16 25L16 26L15 26L15 25L14 25L14 24L12 24L12 22L13 22L13 23L14 23L14 22L15 22L15 21L14 21L14 22L13 22L13 21L11 21L11 19L10 19L10 20L9 20L9 18L12 18L12 17L11 17L11 16L12 16L12 15L9 15L9 16L10 16L10 17L8 17L8 18L7 18L7 17L6 17L6 18L7 18L7 19L6 19L6 20L5 20L5 21L4 21L4 23L3 23L3 24L2 24L2 25L3 25L3 24L4 24L4 23L5 23L5 25L4 25L4 26L5 26L5 25L6 25L6 26L7 26L7 25L6 25L6 24L7 24L7 23L6 23L6 22L7 22L7 21L6 21L6 20L9 20L9 21L8 21L8 22L10 22L10 23L8 23L8 24L9 24L9 25L8 25L8 26L9 26L9 27L10 27L10 26L12 26L12 28L14 28L14 26L15 26L15 27L16 27L16 28L15 28L15 29L11 29L11 28L9 28L9 29L10 29L10 30L9 30L9 31L8 31L8 32L7 32L7 33L6 33L6 34L7 34L7 35L6 35L6 36L8 36L8 37L6 37L6 38L8 38L8 40L11 40L11 41L10 41L10 42L9 42L9 41L6 41L6 42L7 42L7 43L6 43L6 44L8 44L8 42L9 42L9 43L11 43L11 44L12 44L12 46L13 46L13 47L11 47L11 49L13 49L13 47L14 47L14 46L15 46L15 45L16 45L16 47L15 47L15 48L14 48L14 49L15 49L15 48L16 48L16 47L17 47L17 49L16 49L16 52L17 52L17 53L18 53L18 51L17 51L17 49L18 49L18 50L19 50L19 51L20 51L20 50L22 50L22 48L23 48L23 49L24 49L24 51L22 51L22 52L24 52L24 51L25 51L25 54L24 54L24 55L25 55L25 54L27 54L27 55L28 55L28 53L26 53L26 50L25 50L25 48L27 48L27 46L26 46L26 45L24 45L24 47L23 47L23 44L22 44L22 43L24 43L24 44L25 44L25 43L24 43L24 42L26 42L26 41L25 41L25 40L26 40L26 37L27 37L27 41L28 41L28 42L27 42L27 43L28 43L28 42L29 42L29 44L30 44L30 45L28 45L28 44L27 44L27 45L28 45L28 46L29 46L29 47L28 47L28 48L31 48L31 50L32 50L32 51L31 51L31 52L32 52L32 51L33 51L33 52L34 52L34 54L35 54L35 53L36 53L36 54L37 54L37 53L36 53L36 52L34 52L34 51L33 51L33 50L32 50L32 48L33 48L33 47L32 47L32 46L33 46L33 45L34 45L34 50L35 50L35 51L37 51L37 49L36 49L36 48L37 48L37 47L38 47L38 51L39 51L39 49L40 49L40 51L41 51L41 49L42 49L42 50L43 50L43 51L45 51L45 50L44 50L44 47L43 47L43 46L44 46L44 44L45 44L45 43L44 43L44 42L43 42L43 41L42 41L42 42L41 42L41 43L40 43L40 42L39 42L39 41L40 41L40 40L41 40L41 39L40 39L40 38L39 38L39 36L40 36L40 35L41 35L41 36L42 36L42 40L43 40L43 38L44 38L44 35L43 35L43 33L42 33L42 31L45 31L45 32L46 32L46 34L45 34L45 36L47 36L47 35L46 35L46 34L48 34L48 33L47 33L47 30L48 30L48 29L47 29L47 28L46 28L46 29L44 29L44 28L42 28L42 31L40 31L40 30L39 30L39 29L40 29L40 28L41 28L41 27L43 27L43 26L45 26L45 25L46 25L46 26L47 26L47 25L46 25L46 23L47 23L47 21L48 21L48 23L49 23L49 22L50 22L50 23L51 23L51 22L52 22L52 24L51 24L51 25L50 25L50 24L49 24L49 25L48 25L48 26L49 26L49 25L50 25L50 26L53 26L53 25L54 25L54 26L55 26L55 27L56 27L56 26L55 26L55 25L56 25L56 24L55 24L55 23L56 23L56 21L55 21L55 22L54 22L54 24L53 24L53 22L52 22L52 20L53 20L53 19L54 19L54 17L53 17L53 18L51 18L51 17L52 17L52 16L53 16L53 15L54 15L54 14L52 14L52 13L50 13L50 11L51 11L51 12L52 12L52 10L51 10L51 9L50 9L50 11L48 11L48 14L47 14L47 13L46 13L46 11L47 11L47 9L48 9L48 10L49 10L49 9L48 9L48 8L47 8L47 9L46 9L46 8L45 8L45 9L44 9L44 8L42 8L42 6L41 6L41 5L42 5L42 4L43 4L43 5L44 5L44 6L43 6L43 7L44 7L44 6L45 6L45 7L46 7L46 6L45 6L45 5L44 5L44 4L45 4L45 1L42 1L42 2L40 2L40 1L39 1L39 2L40 2L40 4L39 4L39 5L38 5L38 4L37 4L37 2L35 2L35 3L34 3L34 4L35 4L35 9L34 9L34 10L33 10L33 9L32 9L32 8L34 8L34 6L33 6L33 2L32 2L32 5L31 5L31 9L30 9L30 10L28 10L28 9L27 9L27 10L25 10L25 9L26 9L26 5L24 5L24 6L23 6L23 5L22 5L22 4L23 4L23 2L22 2L22 1ZM24 1L24 4L25 4L25 1ZM46 1L46 2L47 2L47 1ZM27 2L27 3L26 3L26 4L27 4L27 3L28 3L28 4L30 4L30 3L29 3L29 2ZM43 2L43 4L44 4L44 2ZM35 3L35 4L36 4L36 3ZM41 3L41 4L42 4L42 3ZM46 3L46 5L47 5L47 3ZM17 5L17 6L16 6L16 7L17 7L17 8L18 8L18 9L19 9L19 10L20 10L20 9L21 9L21 10L22 10L22 9L23 9L23 6L22 6L22 9L21 9L21 5L20 5L20 7L19 7L19 5ZM27 5L27 8L30 8L30 5ZM17 6L17 7L18 7L18 8L19 8L19 7L18 7L18 6ZM24 6L24 7L25 7L25 6ZM28 6L28 7L29 7L29 6ZM32 6L32 7L33 7L33 6ZM36 6L36 10L34 10L34 11L32 11L32 9L31 9L31 10L30 10L30 12L29 12L29 11L28 11L28 10L27 10L27 11L28 11L28 12L27 12L27 13L26 13L26 11L25 11L25 10L24 10L24 12L23 12L23 11L22 11L22 12L23 12L23 14L24 14L24 16L26 16L26 17L27 17L27 16L26 16L26 15L27 15L27 14L28 14L28 15L29 15L29 16L30 16L30 17L28 17L28 18L30 18L30 17L31 17L31 16L30 16L30 15L29 15L29 13L30 13L30 12L31 12L31 15L32 15L32 19L30 19L30 20L32 20L32 21L33 21L33 22L31 22L31 23L32 23L32 25L33 25L33 26L34 26L34 24L36 24L36 26L37 26L37 28L36 28L36 27L34 27L34 29L35 29L35 31L36 31L36 33L35 33L35 34L34 34L34 33L33 33L33 32L32 32L32 33L31 33L31 34L30 34L30 32L29 32L29 34L28 34L28 35L31 35L31 36L30 36L30 44L32 44L32 45L31 45L31 46L30 46L30 47L31 47L31 46L32 46L32 45L33 45L33 44L36 44L36 45L35 45L35 47L36 47L36 46L38 46L38 45L37 45L37 44L39 44L39 43L37 43L37 44L36 44L36 41L37 41L37 42L38 42L38 41L39 41L39 38L38 38L38 36L37 36L37 35L36 35L36 33L37 33L37 34L38 34L38 35L39 35L39 34L38 34L38 33L39 33L39 32L40 32L40 34L42 34L42 33L41 33L41 32L40 32L40 31L38 31L38 30L37 30L37 31L36 31L36 29L37 29L37 28L38 28L38 29L39 29L39 28L40 28L40 27L39 27L39 26L40 26L40 25L41 25L41 23L43 23L43 22L44 22L44 23L45 23L45 22L44 22L44 21L45 21L45 19L44 19L44 17L45 17L45 18L46 18L46 17L47 17L47 19L46 19L46 21L47 21L47 19L48 19L48 21L49 21L49 20L51 20L51 19L50 19L50 17L51 17L51 16L50 16L50 13L49 13L49 14L48 14L48 15L47 15L47 16L46 16L46 17L45 17L45 16L44 16L44 15L46 15L46 13L45 13L45 12L44 12L44 13L43 13L43 14L44 14L44 15L43 15L43 16L44 16L44 17L43 17L43 18L42 18L42 17L41 17L41 15L42 15L42 12L43 12L43 10L44 10L44 9L43 9L43 10L42 10L42 8L40 8L40 10L38 10L38 9L37 9L37 8L39 8L39 6L38 6L38 7L37 7L37 6ZM40 6L40 7L41 7L41 6ZM0 8L0 9L1 9L1 10L2 10L2 9L3 9L3 8ZM45 9L45 10L46 10L46 9ZM4 10L4 11L6 11L6 12L7 12L7 13L8 13L8 14L7 14L7 15L6 15L6 16L8 16L8 14L12 14L12 13L9 13L9 12L7 12L7 11L6 11L6 10ZM37 10L37 11L36 11L36 12L35 12L35 11L34 11L34 12L35 12L35 13L34 13L34 15L33 15L33 13L32 13L32 15L33 15L33 17L34 17L34 18L36 18L36 19L37 19L37 18L36 18L36 14L35 14L35 13L36 13L36 12L37 12L37 13L38 13L38 15L37 15L37 16L38 16L38 18L40 18L40 19L39 19L39 21L38 21L38 20L37 20L37 21L36 21L36 20L35 20L35 19L33 19L33 21L34 21L34 22L35 22L35 23L36 23L36 24L37 24L37 25L38 25L38 26L39 26L39 23L41 23L41 22L40 22L40 19L41 19L41 20L42 20L42 22L43 22L43 21L44 21L44 19L43 19L43 20L42 20L42 19L41 19L41 18L40 18L40 15L39 15L39 12L37 12L37 11L38 11L38 10ZM41 10L41 12L42 12L42 10ZM56 10L56 11L57 11L57 10ZM0 11L0 12L1 12L1 11ZM24 12L24 14L25 14L25 15L26 15L26 13L25 13L25 12ZM40 13L40 14L41 14L41 13ZM51 14L51 15L52 15L52 14ZM34 15L34 17L35 17L35 15ZM4 16L4 17L5 17L5 16ZM13 16L13 18L14 18L14 16ZM48 17L48 19L49 19L49 17ZM2 18L2 19L3 19L3 20L2 20L2 21L3 21L3 20L4 20L4 19L3 19L3 18ZM56 18L56 19L57 19L57 18ZM12 19L12 20L13 20L13 19ZM14 19L14 20L16 20L16 19ZM18 20L18 21L19 21L19 20ZM28 20L28 22L30 22L30 21L29 21L29 20ZM34 20L34 21L35 21L35 22L36 22L36 23L37 23L37 22L36 22L36 21L35 21L35 20ZM5 21L5 22L6 22L6 21ZM10 21L10 22L11 22L11 21ZM20 22L20 23L21 23L21 22ZM24 22L24 23L25 23L25 22ZM10 23L10 25L9 25L9 26L10 26L10 25L11 25L11 23ZM33 23L33 24L34 24L34 23ZM42 24L42 25L43 25L43 24ZM44 24L44 25L45 25L45 24ZM52 24L52 25L53 25L53 24ZM54 24L54 25L55 25L55 24ZM12 25L12 26L14 26L14 25ZM17 25L17 26L18 26L18 25ZM5 27L5 30L8 30L8 27ZM18 27L18 28L19 28L19 27ZM27 27L27 30L30 30L30 27ZM49 27L49 30L52 30L52 27ZM0 28L0 29L1 29L1 28ZM6 28L6 29L7 29L7 28ZM28 28L28 29L29 29L29 28ZM35 28L35 29L36 29L36 28ZM50 28L50 29L51 29L51 28ZM43 29L43 30L44 30L44 29ZM0 30L0 32L1 32L1 30ZM10 30L10 31L9 31L9 32L8 32L8 33L9 33L9 34L11 34L11 35L10 35L10 36L11 36L11 37L10 37L10 38L9 38L9 39L10 39L10 38L11 38L11 37L12 37L12 39L11 39L11 40L12 40L12 41L13 41L13 37L14 37L14 40L15 40L15 41L14 41L14 44L13 44L13 42L11 42L11 43L12 43L12 44L13 44L13 45L14 45L14 44L17 44L17 46L18 46L18 45L19 45L19 46L20 46L20 47L19 47L19 48L18 48L18 49L19 49L19 50L20 50L20 49L19 49L19 48L22 48L22 46L20 46L20 45L19 45L19 44L18 44L18 43L20 43L20 41L19 41L19 40L18 40L18 39L17 39L17 38L16 38L16 39L17 39L17 40L15 40L15 37L14 37L14 36L16 36L16 37L17 37L17 36L18 36L18 35L17 35L17 36L16 36L16 35L15 35L15 34L16 34L16 32L17 32L17 31L18 31L18 30L17 30L17 31L16 31L16 30L12 30L12 32L10 32L10 31L11 31L11 30ZM45 30L45 31L46 31L46 30ZM55 30L55 31L54 31L54 32L52 32L52 31L51 31L51 32L50 32L50 33L49 33L49 36L48 36L48 37L46 37L46 38L47 38L47 40L46 40L46 43L47 43L47 44L46 44L46 48L45 48L45 49L46 49L46 51L47 51L47 52L48 52L48 51L47 51L47 47L48 47L48 46L49 46L49 48L53 48L53 49L54 49L54 50L53 50L53 51L54 51L54 52L55 52L55 49L54 49L54 48L55 48L55 47L54 47L54 48L53 48L53 47L52 47L52 46L51 46L51 45L48 45L48 46L47 46L47 44L48 44L48 43L49 43L49 44L50 44L50 42L49 42L49 41L51 41L51 40L50 40L50 38L51 38L51 37L50 37L50 33L51 33L51 36L53 36L53 37L54 37L54 36L56 36L56 34L55 34L55 33L54 33L54 32L55 32L55 31L56 31L56 30ZM13 31L13 32L12 32L12 33L11 33L11 34L12 34L12 36L13 36L13 35L14 35L14 34L15 34L15 33L13 33L13 32L16 32L16 31ZM37 31L37 32L38 32L38 31ZM9 32L9 33L10 33L10 32ZM12 33L12 34L13 34L13 33ZM31 34L31 35L33 35L33 34ZM53 34L53 36L54 36L54 34ZM3 35L3 37L4 37L4 38L5 38L5 37L4 37L4 35ZM8 35L8 36L9 36L9 35ZM35 35L35 36L34 36L34 38L31 38L31 43L32 43L32 40L33 40L33 41L34 41L34 42L35 42L35 41L36 41L36 38L37 38L37 37L36 37L36 35ZM42 35L42 36L43 36L43 35ZM22 36L22 37L23 37L23 36ZM28 36L28 37L29 37L29 36ZM31 36L31 37L32 37L32 36ZM35 37L35 38L36 38L36 37ZM20 38L20 39L21 39L21 38ZM24 38L24 39L25 39L25 38ZM28 38L28 39L29 39L29 38ZM48 38L48 40L47 40L47 41L48 41L48 40L49 40L49 38ZM0 39L0 40L1 40L1 41L2 41L2 40L1 40L1 39ZM6 39L6 40L7 40L7 39ZM34 39L34 41L35 41L35 39ZM37 39L37 41L38 41L38 39ZM17 40L17 41L16 41L16 42L15 42L15 43L16 43L16 42L17 42L17 41L18 41L18 40ZM4 41L4 42L3 42L3 43L4 43L4 44L5 44L5 43L4 43L4 42L5 42L5 41ZM42 42L42 43L43 43L43 42ZM1 44L1 45L2 45L2 46L1 46L1 47L2 47L2 46L3 46L3 45L2 45L2 44ZM40 44L40 45L39 45L39 46L41 46L41 47L40 47L40 49L41 49L41 47L42 47L42 45L43 45L43 44L42 44L42 45L41 45L41 44ZM9 45L9 46L10 46L10 45ZM25 46L25 47L24 47L24 48L25 48L25 47L26 47L26 46ZM50 46L50 47L51 47L51 46ZM27 49L27 52L30 52L30 49ZM49 49L49 52L52 52L52 49ZM28 50L28 51L29 51L29 50ZM50 50L50 51L51 51L51 50ZM48 53L48 54L49 54L49 53ZM8 54L8 57L9 57L9 56L10 56L10 55L9 55L9 54ZM16 54L16 55L18 55L18 54ZM20 54L20 55L21 55L21 54ZM40 54L40 56L42 56L42 55L41 55L41 54ZM55 54L55 55L57 55L57 54ZM36 56L36 57L37 57L37 56ZM56 56L56 57L57 57L57 56ZM0 0L0 7L7 7L7 0ZM1 1L1 6L6 6L6 1ZM2 2L2 5L5 5L5 2ZM50 0L50 7L57 7L57 0ZM51 1L51 6L56 6L56 1ZM52 2L52 5L55 5L55 2ZM0 50L0 57L7 57L7 50ZM1 51L1 56L6 56L6 51ZM2 52L2 55L5 55L5 52Z" fill="#000000"/></g></g></svg>
