<?xml version="1.0" encoding="UTF-8"?>
<svg xmlns="http://www.w3.org/2000/svg" version="1.1" width="300" height="300" viewBox="0 0 300 300"><rect x="0" y="0" width="300" height="300" fill="#fefefe"/><g transform="scale(4.615)"><g transform="translate(4,4)"><path fill-rule="evenodd" d="M8 0L8 4L9 4L9 2L10 2L10 4L11 4L11 5L12 5L12 4L13 4L13 6L12 6L12 7L11 7L11 6L10 6L10 7L9 7L9 5L8 5L8 7L9 7L9 9L7 9L7 8L4 8L4 11L3 11L3 9L2 9L2 8L0 8L0 10L1 10L1 9L2 9L2 11L0 11L0 12L1 12L1 14L0 14L0 16L1 16L1 18L0 18L0 21L1 21L1 20L2 20L2 21L3 21L3 22L4 22L4 23L5 23L5 25L1 25L1 26L3 26L3 27L4 27L4 28L3 28L3 29L1 29L1 28L2 28L2 27L1 27L1 28L0 28L0 29L1 29L1 30L0 30L0 31L1 31L1 32L2 32L2 33L1 33L1 34L2 34L2 35L1 35L1 36L0 36L0 40L1 40L1 36L2 36L2 38L3 38L3 39L4 39L4 40L2 40L2 41L0 41L0 43L1 43L1 44L2 44L2 42L3 42L3 41L4 41L4 40L5 40L5 39L8 39L8 40L6 40L6 41L9 41L9 40L11 40L11 41L10 41L10 43L9 43L9 42L8 42L8 44L5 44L5 45L4 45L4 43L5 43L5 42L4 42L4 43L3 43L3 45L4 45L4 46L5 46L5 47L3 47L3 46L2 46L2 47L1 47L1 45L0 45L0 48L5 48L5 47L7 47L7 46L5 46L5 45L8 45L8 46L9 46L9 48L6 48L6 49L8 49L8 50L9 50L9 51L8 51L8 53L11 53L11 54L12 54L12 53L11 53L11 52L9 52L9 51L10 51L10 50L11 50L11 51L12 51L12 50L13 50L13 52L14 52L14 53L13 53L13 54L15 54L15 55L16 55L16 54L17 54L17 55L18 55L18 56L17 56L17 57L20 57L20 56L19 56L19 55L20 55L20 54L21 54L21 53L22 53L22 54L23 54L23 55L24 55L24 57L25 57L25 55L26 55L26 54L24 54L24 53L28 53L28 57L29 57L29 55L30 55L30 57L34 57L34 55L35 55L35 57L37 57L37 56L36 56L36 54L37 54L37 53L38 53L38 55L39 55L39 57L40 57L40 56L44 56L44 57L45 57L45 56L46 56L46 57L47 57L47 56L46 56L46 55L47 55L47 54L46 54L46 53L47 53L47 52L48 52L48 54L49 54L49 57L50 57L50 55L51 55L51 56L53 56L53 57L54 57L54 55L53 55L53 50L54 50L54 51L55 51L55 52L54 52L54 53L55 53L55 54L57 54L57 52L56 52L56 45L57 45L57 44L56 44L56 45L54 45L54 44L53 44L53 43L54 43L54 42L55 42L55 43L56 43L56 42L57 42L57 40L53 40L53 38L54 38L54 39L57 39L57 38L55 38L55 36L56 36L56 34L57 34L57 33L56 33L56 30L55 30L55 29L54 29L54 28L53 28L53 27L54 27L54 26L55 26L55 24L56 24L56 25L57 25L57 24L56 24L56 21L57 21L57 19L56 19L56 17L57 17L57 15L56 15L56 13L57 13L57 11L56 11L56 10L57 10L57 8L53 8L53 9L56 9L56 10L55 10L55 16L56 16L56 17L55 17L55 19L56 19L56 21L55 21L55 24L53 24L53 23L52 23L52 22L53 22L53 21L52 21L52 20L53 20L53 19L52 19L52 16L53 16L53 15L54 15L54 14L53 14L53 13L54 13L54 12L53 12L53 13L52 13L52 14L51 14L51 12L52 12L52 11L54 11L54 10L52 10L52 8L51 8L51 9L50 9L50 10L49 10L49 8L48 8L48 7L49 7L49 6L48 6L48 7L47 7L47 5L48 5L48 0L41 0L41 1L40 1L40 2L39 2L39 3L40 3L40 4L38 4L38 3L37 3L37 2L38 2L38 1L39 1L39 0L38 0L38 1L37 1L37 2L36 2L36 0L35 0L35 1L34 1L34 0L33 0L33 1L34 1L34 2L32 2L32 3L31 3L31 1L32 1L32 0L28 0L28 1L27 1L27 0L26 0L26 1L25 1L25 0L23 0L23 2L22 2L22 1L21 1L21 0L20 0L20 1L19 1L19 0L17 0L17 1L16 1L16 0L15 0L15 3L16 3L16 4L17 4L17 6L16 6L16 5L15 5L15 4L14 4L14 0L13 0L13 1L12 1L12 4L11 4L11 2L10 2L10 1L11 1L11 0L10 0L10 1L9 1L9 0ZM20 1L20 3L19 3L19 2L17 2L17 3L18 3L18 6L17 6L17 8L19 8L19 7L20 7L20 6L21 6L21 7L22 7L22 9L21 9L21 10L20 10L20 9L18 9L18 11L17 11L17 9L16 9L16 8L15 8L15 7L16 7L16 6L15 6L15 5L14 5L14 6L13 6L13 9L12 9L12 10L10 10L10 11L9 11L9 10L8 10L8 12L9 12L9 13L12 13L12 14L9 14L9 15L8 15L8 16L9 16L9 15L11 15L11 16L10 16L10 17L8 17L8 19L4 19L4 17L6 17L6 18L7 18L7 17L6 17L6 16L7 16L7 15L6 15L6 14L8 14L8 13L6 13L6 12L7 12L7 11L6 11L6 10L7 10L7 9L6 9L6 10L5 10L5 11L4 11L4 12L5 12L5 14L4 14L4 15L3 15L3 16L2 16L2 15L1 15L1 16L2 16L2 20L7 20L7 21L6 21L6 22L5 22L5 21L4 21L4 22L5 22L5 23L6 23L6 24L7 24L7 25L6 25L6 26L9 26L9 29L10 29L10 28L11 28L11 25L14 25L14 24L16 24L16 26L15 26L15 28L16 28L16 27L18 27L18 26L19 26L19 25L21 25L21 26L20 26L20 27L19 27L19 28L18 28L18 29L15 29L15 30L16 30L16 35L15 35L15 36L14 36L14 35L13 35L13 36L12 36L12 34L13 34L13 32L12 32L12 33L11 33L11 32L10 32L10 34L9 34L9 36L8 36L8 34L7 34L7 33L5 33L5 32L7 32L7 31L4 31L4 29L3 29L3 30L1 30L1 31L2 31L2 32L3 32L3 33L4 33L4 34L3 34L3 35L5 35L5 36L4 36L4 37L5 37L5 38L4 38L4 39L5 39L5 38L9 38L9 39L10 39L10 37L11 37L11 39L12 39L12 40L13 40L13 42L15 42L15 43L14 43L14 44L17 44L17 45L16 45L16 50L19 50L19 51L20 51L20 49L21 49L21 50L22 50L22 49L23 49L23 48L22 48L22 47L23 47L23 45L21 45L21 46L22 46L22 47L21 47L21 48L20 48L20 47L19 47L19 49L17 49L17 45L18 45L18 44L19 44L19 46L20 46L20 44L19 44L19 42L20 42L20 43L22 43L22 44L23 44L23 43L24 43L24 45L25 45L25 43L27 43L27 44L29 44L29 45L26 45L26 46L24 46L24 47L25 47L25 48L24 48L24 49L25 49L25 50L26 50L26 48L28 48L28 46L29 46L29 47L30 47L30 48L31 48L31 49L32 49L32 51L31 51L31 52L32 52L32 51L33 51L33 49L34 49L34 50L35 50L35 51L34 51L34 52L33 52L33 53L32 53L32 54L33 54L33 55L34 55L34 54L35 54L35 53L34 53L34 52L36 52L36 49L34 49L34 48L33 48L33 49L32 49L32 45L31 45L31 41L32 41L32 43L33 43L33 44L35 44L35 43L33 43L33 41L32 41L32 40L33 40L33 39L34 39L34 42L35 42L35 39L37 39L37 42L38 42L38 37L41 37L41 35L42 35L42 36L43 36L43 37L44 37L44 38L43 38L43 39L45 39L45 41L46 41L46 42L45 42L45 43L44 43L44 41L43 41L43 40L42 40L42 41L43 41L43 42L41 42L41 39L42 39L42 38L41 38L41 39L40 39L40 38L39 38L39 39L40 39L40 41L39 41L39 44L37 44L37 43L36 43L36 44L37 44L37 46L38 46L38 45L39 45L39 44L40 44L40 51L39 51L39 52L40 52L40 53L42 53L42 52L41 52L41 43L42 43L42 44L43 44L43 45L44 45L44 44L45 44L45 45L46 45L46 47L45 47L45 46L44 46L44 47L42 47L42 49L44 49L44 48L45 48L45 49L46 49L46 52L45 52L45 53L44 53L44 52L43 52L43 53L44 53L44 56L45 56L45 55L46 55L46 54L45 54L45 53L46 53L46 52L47 52L47 49L48 49L48 47L49 47L49 46L50 46L50 47L51 47L51 46L52 46L52 48L53 48L53 49L54 49L54 48L55 48L55 46L54 46L54 47L53 47L53 45L49 45L49 46L48 46L48 47L47 47L47 45L48 45L48 44L47 44L47 43L48 43L48 41L49 41L49 42L50 42L50 43L49 43L49 44L50 44L50 43L51 43L51 44L52 44L52 43L53 43L53 41L52 41L52 40L47 40L47 39L49 39L49 38L50 38L50 39L52 39L52 38L53 38L53 36L55 36L55 35L53 35L53 34L54 34L54 33L51 33L51 32L50 32L50 35L49 35L49 37L48 37L48 35L46 35L46 34L49 34L49 33L48 33L48 31L47 31L47 29L48 29L48 28L47 28L47 27L48 27L48 26L47 26L47 25L46 25L46 26L47 26L47 27L45 27L45 26L44 26L44 27L45 27L45 30L44 30L44 28L42 28L42 27L41 27L41 28L40 28L40 29L39 29L39 30L40 30L40 31L39 31L39 32L40 32L40 33L39 33L39 34L38 34L38 33L37 33L37 34L38 34L38 35L37 35L37 36L38 36L38 37L37 37L37 38L35 38L35 33L34 33L34 32L35 32L35 31L36 31L36 30L37 30L37 32L38 32L38 30L37 30L37 29L38 29L38 28L37 28L37 29L35 29L35 28L36 28L36 26L37 26L37 27L40 27L40 26L41 26L41 25L44 25L44 24L45 24L45 23L46 23L46 24L48 24L48 23L50 23L50 24L49 24L49 26L50 26L50 25L51 25L51 24L52 24L52 26L53 26L53 24L52 24L52 23L50 23L50 22L48 22L48 21L51 21L51 22L52 22L52 21L51 21L51 20L48 20L48 21L47 21L47 20L46 20L46 19L47 19L47 16L48 16L48 15L50 15L50 16L49 16L49 19L51 19L51 18L50 18L50 17L51 17L51 16L52 16L52 15L53 15L53 14L52 14L52 15L50 15L50 11L51 11L51 10L50 10L50 11L49 11L49 10L48 10L48 11L49 11L49 12L47 12L47 9L46 9L46 8L45 8L45 7L46 7L46 6L45 6L45 7L44 7L44 4L45 4L45 5L47 5L47 3L44 3L44 2L43 2L43 3L44 3L44 4L43 4L43 7L42 7L42 6L41 6L41 5L39 5L39 8L38 8L38 4L37 4L37 3L36 3L36 2L35 2L35 4L34 4L34 3L32 3L32 5L35 5L35 7L34 7L34 6L33 6L33 7L32 7L32 6L31 6L31 10L30 10L30 11L32 11L32 8L33 8L33 9L34 9L34 10L33 10L33 13L34 13L34 18L37 18L37 22L35 22L35 20L36 20L36 19L35 19L35 20L34 20L34 19L33 19L33 18L32 18L32 15L30 15L30 13L31 13L31 14L32 14L32 12L29 12L29 11L28 11L28 12L27 12L27 11L26 11L26 14L25 14L25 15L24 15L24 16L22 16L22 15L23 15L23 13L21 13L21 14L22 14L22 15L20 15L20 12L21 12L21 11L22 11L22 12L24 12L24 11L23 11L23 10L22 10L22 9L23 9L23 7L24 7L24 9L25 9L25 10L28 10L28 9L26 9L26 6L25 6L25 7L24 7L24 6L23 6L23 7L22 7L22 3L21 3L21 1ZM26 1L26 2L25 2L25 3L23 3L23 5L24 5L24 4L25 4L25 3L26 3L26 4L28 4L28 3L29 3L29 2L30 2L30 1L28 1L28 2L27 2L27 1ZM45 1L45 2L47 2L47 1ZM40 2L40 3L41 3L41 2ZM35 4L35 5L36 5L36 7L35 7L35 9L38 9L38 10L40 10L40 8L41 8L41 6L40 6L40 8L39 8L39 9L38 9L38 8L37 8L37 5L36 5L36 4ZM19 5L19 6L18 6L18 7L19 7L19 6L20 6L20 5ZM27 5L27 8L30 8L30 5ZM14 6L14 7L15 7L15 6ZM28 6L28 7L29 7L29 6ZM10 7L10 8L11 8L11 7ZM33 7L33 8L34 8L34 7ZM43 7L43 8L42 8L42 9L41 9L41 12L44 12L44 13L41 13L41 14L40 14L40 13L38 13L38 15L39 15L39 17L38 17L38 16L37 16L37 14L35 14L35 17L38 17L38 18L39 18L39 19L38 19L38 23L39 23L39 25L38 25L38 26L39 26L39 25L40 25L40 23L39 23L39 21L40 21L40 22L43 22L43 24L44 24L44 22L46 22L46 20L45 20L45 18L46 18L46 16L47 16L47 15L46 15L46 9L45 9L45 8L44 8L44 7ZM14 8L14 10L13 10L13 11L12 11L12 12L13 12L13 11L14 11L14 12L15 12L15 13L13 13L13 14L14 14L14 15L13 15L13 16L12 16L12 18L11 18L11 17L10 17L10 18L9 18L9 19L8 19L8 20L9 20L9 19L10 19L10 18L11 18L11 19L12 19L12 20L10 20L10 21L7 21L7 22L6 22L6 23L7 23L7 24L8 24L8 25L11 25L11 24L14 24L14 23L16 23L16 22L17 22L17 25L19 25L19 23L20 23L20 22L22 22L22 20L23 20L23 19L24 19L24 18L25 18L25 20L24 20L24 21L23 21L23 23L21 23L21 25L22 25L22 26L21 26L21 27L20 27L20 28L19 28L19 29L18 29L18 30L17 30L17 31L19 31L19 29L20 29L20 32L17 32L17 33L20 33L20 34L21 34L21 36L19 36L19 34L18 34L18 35L16 35L16 36L15 36L15 37L16 37L16 36L17 36L17 38L16 38L16 39L15 39L15 42L16 42L16 43L18 43L18 42L16 42L16 40L17 40L17 41L19 41L19 40L20 40L20 42L21 42L21 41L22 41L22 40L23 40L23 42L26 42L26 41L29 41L29 40L31 40L31 39L33 39L33 38L34 38L34 36L33 36L33 32L32 32L32 30L33 30L33 31L34 31L34 27L33 27L33 26L34 26L34 25L37 25L37 24L34 24L34 23L35 23L35 22L34 22L34 21L33 21L33 19L32 19L32 18L31 18L31 16L29 16L29 13L27 13L27 14L26 14L26 15L25 15L25 16L26 16L26 17L21 17L21 16L20 16L20 15L18 15L18 17L17 17L17 14L19 14L19 12L20 12L20 10L19 10L19 12L18 12L18 13L17 13L17 11L16 11L16 9L15 9L15 8ZM43 8L43 9L44 9L44 10L42 10L42 11L44 11L44 12L45 12L45 11L44 11L44 10L45 10L45 9L44 9L44 8ZM34 10L34 12L35 12L35 13L37 13L37 12L39 12L39 11L37 11L37 12L35 12L35 11L36 11L36 10ZM2 11L2 14L3 14L3 11ZM5 11L5 12L6 12L6 11ZM10 11L10 12L11 12L11 11ZM15 13L15 14L17 14L17 13ZM47 13L47 14L49 14L49 13ZM27 14L27 15L26 15L26 16L27 16L27 15L28 15L28 14ZM43 14L43 15L42 15L42 17L43 17L43 18L42 18L42 19L41 19L41 18L40 18L40 17L41 17L41 15L40 15L40 17L39 17L39 18L40 18L40 21L42 21L42 20L43 20L43 22L44 22L44 16L45 16L45 15L44 15L44 14ZM4 15L4 16L5 16L5 15ZM14 15L14 16L13 16L13 18L12 18L12 19L14 19L14 20L15 20L15 21L17 21L17 22L18 22L18 21L17 21L17 20L18 20L18 19L19 19L19 18L20 18L20 16L19 16L19 17L18 17L18 19L17 19L17 20L16 20L16 18L17 18L17 17L15 17L15 18L14 18L14 16L15 16L15 15ZM43 15L43 16L44 16L44 15ZM26 17L26 20L28 20L28 21L24 21L24 22L25 22L25 23L26 23L26 22L28 22L28 21L29 21L29 20L31 20L31 21L32 21L32 20L31 20L31 19L30 19L30 18L28 18L28 17ZM22 18L22 19L23 19L23 18ZM20 19L20 20L19 20L19 21L20 21L20 20L21 20L21 19ZM28 19L28 20L29 20L29 19ZM12 20L12 22L11 22L11 23L12 23L12 22L14 22L14 21L13 21L13 20ZM0 22L0 24L1 24L1 22ZM7 22L7 23L8 23L8 22ZM9 22L9 23L10 23L10 22ZM29 22L29 23L30 23L30 24L28 24L28 23L27 23L27 24L28 24L28 25L27 25L27 26L28 26L28 25L31 25L31 30L32 30L32 28L33 28L33 27L32 27L32 23L33 23L33 22L31 22L31 23L30 23L30 22ZM2 23L2 24L3 24L3 23ZM23 23L23 24L22 24L22 25L24 25L24 23ZM33 24L33 25L34 25L34 24ZM25 25L25 26L23 26L23 27L26 27L26 25ZM5 27L5 30L8 30L8 27ZM13 27L13 29L14 29L14 27ZM21 27L21 29L22 29L22 30L21 30L21 31L22 31L22 33L21 33L21 34L22 34L22 35L23 35L23 33L25 33L25 32L26 32L26 34L24 34L24 36L25 36L25 37L27 37L27 39L26 39L26 38L24 38L24 37L23 37L23 36L22 36L22 39L21 39L21 40L22 40L22 39L24 39L24 41L25 41L25 40L27 40L27 39L28 39L28 38L29 38L29 39L31 39L31 38L33 38L33 37L32 37L32 36L31 36L31 34L30 34L30 36L31 36L31 37L29 37L29 36L28 36L28 34L29 34L29 33L32 33L32 32L29 32L29 33L28 33L28 34L27 34L27 32L26 32L26 31L22 31L22 30L23 30L23 29L25 29L25 30L26 30L26 29L25 29L25 28L22 28L22 27ZM27 27L27 30L30 30L30 27ZM49 27L49 30L52 30L52 27ZM55 27L55 28L56 28L56 27ZM6 28L6 29L7 29L7 28ZM28 28L28 29L29 29L29 28ZM46 28L46 29L47 29L47 28ZM50 28L50 29L51 29L51 28ZM11 29L11 30L9 30L9 31L12 31L12 29ZM40 29L40 30L41 30L41 31L40 31L40 32L41 32L41 33L40 33L40 34L42 34L42 35L44 35L44 37L45 37L45 38L46 38L46 39L47 39L47 38L48 38L48 37L47 37L47 38L46 38L46 35L44 35L44 34L46 34L46 33L47 33L47 31L46 31L46 30L45 30L45 31L43 31L43 29ZM13 30L13 31L14 31L14 30ZM54 30L54 31L53 31L53 32L55 32L55 30ZM3 31L3 32L4 32L4 31ZM45 31L45 33L46 33L46 31ZM14 33L14 34L15 34L15 33ZM43 33L43 34L44 34L44 33ZM6 34L6 35L7 35L7 34ZM10 34L10 35L11 35L11 34ZM26 34L26 35L25 35L25 36L27 36L27 37L28 37L28 36L27 36L27 34ZM38 35L38 36L40 36L40 35ZM50 35L50 38L52 38L52 36L53 36L53 35ZM6 36L6 37L8 37L8 36ZM9 36L9 37L10 37L10 36ZM13 37L13 38L12 38L12 39L13 39L13 38L14 38L14 37ZM19 37L19 39L18 39L18 40L19 40L19 39L20 39L20 38L21 38L21 37ZM46 40L46 41L47 41L47 40ZM51 41L51 43L52 43L52 41ZM6 42L6 43L7 43L7 42ZM11 42L11 43L10 43L10 44L8 44L8 45L10 45L10 47L11 47L11 46L13 46L13 45L11 45L11 44L13 44L13 43L12 43L12 42ZM27 42L27 43L28 43L28 42ZM40 42L40 43L41 43L41 42ZM43 43L43 44L44 44L44 43ZM46 44L46 45L47 45L47 44ZM14 45L14 46L15 46L15 45ZM30 45L30 46L31 46L31 45ZM34 45L34 47L36 47L36 48L37 48L37 47L36 47L36 45ZM26 46L26 47L27 47L27 46ZM12 47L12 48L11 48L11 50L12 50L12 49L15 49L15 48L14 48L14 47ZM38 47L38 49L37 49L37 52L38 52L38 49L39 49L39 47ZM46 47L46 49L47 49L47 47ZM9 48L9 50L10 50L10 48ZM21 48L21 49L22 49L22 48ZM27 49L27 52L30 52L30 49ZM49 49L49 52L52 52L52 49ZM28 50L28 51L29 51L29 50ZM42 50L42 51L43 51L43 50ZM50 50L50 51L51 51L51 50ZM14 51L14 52L15 52L15 53L17 53L17 52L16 52L16 51ZM22 51L22 53L24 53L24 52L23 52L23 51ZM25 51L25 52L26 52L26 51ZM19 52L19 53L20 53L20 52ZM55 52L55 53L56 53L56 52ZM30 53L30 54L31 54L31 53ZM33 53L33 54L34 54L34 53ZM49 53L49 54L51 54L51 55L52 55L52 54L51 54L51 53ZM9 54L9 55L8 55L8 57L9 57L9 55L10 55L10 54ZM40 54L40 55L43 55L43 54ZM12 55L12 56L10 56L10 57L12 57L12 56L13 56L13 57L15 57L15 56L13 56L13 55ZM21 55L21 57L22 57L22 55ZM26 56L26 57L27 57L27 56ZM56 56L56 57L57 57L57 56ZM0 0L0 7L7 7L7 0ZM1 1L1 6L6 6L6 1ZM2 2L2 5L5 5L5 2ZM50 0L50 7L57 7L57 0ZM51 1L51 6L56 6L56 1ZM52 2L52 5L55 5L55 2ZM0 50L0 57L7 57L7 50ZM1 51L1 56L6 56L6 51ZM2 52L2 55L5 55L5 52Z" fill="#000000"/></g></g></svg>
