<?xml version="1.0" encoding="UTF-8"?>
<svg xmlns="http://www.w3.org/2000/svg" version="1.1" width="300" height="300" viewBox="0 0 300 300"><rect x="0" y="0" width="300" height="300" fill="#fefefe"/><g transform="scale(4.615)"><g transform="translate(4,4)"><path fill-rule="evenodd" d="M8 0L8 1L9 1L9 0ZM12 0L12 1L14 1L14 0ZM17 0L17 1L15 1L15 3L16 3L16 2L17 2L17 1L20 1L20 2L21 2L21 3L22 3L22 2L23 2L23 1L26 1L26 0L23 0L23 1L22 1L22 0L21 0L21 1L20 1L20 0ZM27 0L27 1L28 1L28 2L27 2L27 3L29 3L29 2L30 2L30 1L31 1L31 4L26 4L26 2L24 2L24 3L23 3L23 4L22 4L22 5L23 5L23 6L22 6L22 8L21 8L21 9L23 9L23 10L21 10L21 11L23 11L23 12L22 12L22 13L23 13L23 12L25 12L25 11L26 11L26 10L27 10L27 9L29 9L29 10L28 10L28 11L30 11L30 12L31 12L31 11L30 11L30 10L32 10L32 9L31 9L31 6L32 6L32 8L33 8L33 6L32 6L32 5L31 5L31 4L32 4L32 3L33 3L33 5L34 5L34 4L36 4L36 5L37 5L37 6L36 6L36 7L35 7L35 6L34 6L34 9L36 9L36 8L37 8L37 11L38 11L38 12L35 12L35 11L36 11L36 10L35 10L35 11L34 11L34 10L33 10L33 11L32 11L32 12L33 12L33 13L31 13L31 14L30 14L30 13L28 13L28 12L26 12L26 13L25 13L25 14L24 14L24 15L23 15L23 18L22 18L22 17L21 17L21 18L22 18L22 19L23 19L23 18L24 18L24 19L25 19L25 22L24 22L24 21L23 21L23 20L22 20L22 22L17 22L17 21L18 21L18 20L19 20L19 19L20 19L20 18L19 18L19 19L18 19L18 20L17 20L17 19L16 19L16 18L17 18L17 17L15 17L15 16L16 16L16 15L17 15L17 16L21 16L21 15L18 15L18 14L16 14L16 15L15 15L15 11L16 11L16 10L15 10L15 11L14 11L14 10L13 10L13 8L15 8L15 9L16 9L16 8L15 8L15 6L16 6L16 7L17 7L17 6L18 6L18 7L19 7L19 11L20 11L20 7L21 7L21 5L20 5L20 4L19 4L19 3L17 3L17 5L15 5L15 4L14 4L14 3L13 3L13 2L11 2L11 1L10 1L10 2L11 2L11 3L12 3L12 4L14 4L14 5L13 5L13 6L12 6L12 5L10 5L10 4L9 4L9 2L8 2L8 5L9 5L9 6L8 6L8 7L9 7L9 8L8 8L8 9L9 9L9 10L11 10L11 11L9 11L9 12L6 12L6 11L7 11L7 10L6 10L6 11L5 11L5 12L6 12L6 13L4 13L4 8L0 8L0 11L2 11L2 12L0 12L0 14L1 14L1 15L0 15L0 17L1 17L1 16L2 16L2 18L0 18L0 19L1 19L1 20L2 20L2 21L1 21L1 22L0 22L0 26L1 26L1 27L0 27L0 29L1 29L1 30L0 30L0 31L1 31L1 33L0 33L0 34L2 34L2 36L0 36L0 38L1 38L1 39L4 39L4 40L3 40L3 41L2 41L2 40L1 40L1 41L2 41L2 43L1 43L1 42L0 42L0 43L1 43L1 44L0 44L0 48L5 48L5 47L7 47L7 48L6 48L6 49L8 49L8 50L9 50L9 51L10 51L10 50L12 50L12 52L10 52L10 54L9 54L9 53L8 53L8 57L13 57L13 56L12 56L12 55L11 55L11 53L12 53L12 52L13 52L13 53L14 53L14 51L16 51L16 52L17 52L17 51L16 51L16 49L15 49L15 47L16 47L16 48L17 48L17 50L18 50L18 49L19 49L19 51L20 51L20 52L19 52L19 55L17 55L17 54L18 54L18 53L17 53L17 54L16 54L16 53L15 53L15 56L14 56L14 57L15 57L15 56L16 56L16 57L18 57L18 56L19 56L19 55L20 55L20 57L21 57L21 55L20 55L20 53L21 53L21 54L22 54L22 57L23 57L23 54L25 54L25 55L24 55L24 56L26 56L26 53L29 53L29 54L31 54L31 55L30 55L30 56L31 56L31 57L32 57L32 55L34 55L34 56L33 56L33 57L36 57L36 55L38 55L38 57L42 57L42 56L43 56L43 55L44 55L44 56L46 56L46 57L51 57L51 54L52 54L52 53L54 53L54 52L55 52L55 51L56 51L56 52L57 52L57 51L56 51L56 49L57 49L57 48L56 48L56 49L55 49L55 48L54 48L54 47L57 47L57 45L56 45L56 46L55 46L55 44L56 44L56 41L57 41L57 40L56 40L56 41L55 41L55 42L54 42L54 40L55 40L55 38L56 38L56 39L57 39L57 38L56 38L56 37L55 37L55 36L54 36L54 35L56 35L56 36L57 36L57 34L55 34L55 33L57 33L57 31L56 31L56 30L57 30L57 29L56 29L56 30L55 30L55 28L56 28L56 24L55 24L55 27L53 27L53 26L51 26L51 25L50 25L50 24L53 24L53 25L54 25L54 23L57 23L57 21L56 21L56 22L54 22L54 21L55 21L55 20L54 20L54 21L53 21L53 20L50 20L50 19L51 19L51 18L50 18L50 19L47 19L47 18L48 18L48 14L47 14L47 15L46 15L46 16L47 16L47 17L45 17L45 16L44 16L44 15L45 15L45 14L46 14L46 13L45 13L45 14L42 14L42 17L41 17L41 18L39 18L39 19L40 19L40 20L38 20L38 19L36 19L36 20L35 20L35 17L34 17L34 16L35 16L35 15L36 15L36 14L37 14L37 15L39 15L39 17L40 17L40 16L41 16L41 13L40 13L40 10L39 10L39 11L38 11L38 9L41 9L41 11L42 11L42 12L43 12L43 13L44 13L44 12L43 12L43 11L44 11L44 9L41 9L41 8L38 8L38 7L39 7L39 6L38 6L38 5L40 5L40 7L41 7L41 4L37 4L37 1L38 1L38 0L37 0L37 1L36 1L36 0L35 0L35 1L34 1L34 2L35 2L35 3L33 3L33 0L32 0L32 1L31 1L31 0ZM39 0L39 1L40 1L40 2L41 2L41 1L43 1L43 0L41 0L41 1L40 1L40 0ZM45 0L45 1L44 1L44 2L42 2L42 3L43 3L43 5L42 5L42 7L43 7L43 8L45 8L45 11L47 11L47 12L49 12L49 15L50 15L50 16L51 16L51 17L52 17L52 16L55 16L55 17L54 17L54 18L52 18L52 19L56 19L56 18L57 18L57 15L54 15L54 14L53 14L53 13L54 13L54 10L53 10L53 13L52 13L52 12L51 12L51 11L52 11L52 10L51 10L51 11L47 11L47 10L50 10L50 8L48 8L48 9L47 9L47 8L45 8L45 6L44 6L44 7L43 7L43 5L45 5L45 4L44 4L44 3L45 3L45 1L47 1L47 2L46 2L46 3L47 3L47 5L46 5L46 7L47 7L47 5L48 5L48 0ZM21 1L21 2L22 2L22 1ZM35 1L35 2L36 2L36 1ZM24 4L24 6L23 6L23 7L24 7L24 8L25 8L25 9L26 9L26 6L25 6L25 5L26 5L26 4ZM27 5L27 8L30 8L30 5ZM9 6L9 7L10 7L10 8L9 8L9 9L10 9L10 8L13 8L13 7L14 7L14 6L13 6L13 7L12 7L12 6L11 6L11 7L10 7L10 6ZM19 6L19 7L20 7L20 6ZM24 6L24 7L25 7L25 6ZM28 6L28 7L29 7L29 6ZM37 6L37 7L38 7L38 6ZM48 6L48 7L49 7L49 6ZM6 8L6 9L7 9L7 8ZM17 8L17 9L18 9L18 8ZM52 8L52 9L55 9L55 8ZM56 8L56 9L57 9L57 8ZM46 9L46 10L47 10L47 9ZM12 10L12 11L13 11L13 10ZM17 10L17 12L16 12L16 13L17 13L17 12L18 12L18 13L19 13L19 14L21 14L21 13L20 13L20 12L18 12L18 10ZM23 10L23 11L25 11L25 10ZM42 10L42 11L43 11L43 10ZM55 10L55 12L57 12L57 10ZM10 12L10 13L8 13L8 14L7 14L7 13L6 13L6 14L7 14L7 15L5 15L5 16L7 16L7 17L6 17L6 18L7 18L7 17L9 17L9 16L10 16L10 17L11 17L11 18L13 18L13 19L9 19L9 20L8 20L8 23L6 23L6 24L4 24L4 23L5 23L5 22L7 22L7 21L6 21L6 20L7 20L7 19L6 19L6 20L5 20L5 18L2 18L2 20L3 20L3 21L2 21L2 22L1 22L1 24L4 24L4 26L5 26L5 25L6 25L6 26L9 26L9 28L10 28L10 29L9 29L9 31L4 31L4 30L3 30L3 29L4 29L4 27L3 27L3 25L2 25L2 27L1 27L1 28L3 28L3 29L2 29L2 30L1 30L1 31L4 31L4 32L3 32L3 33L2 33L2 34L3 34L3 35L5 35L5 36L4 36L4 37L3 37L3 38L4 38L4 39L6 39L6 40L4 40L4 42L3 42L3 43L2 43L2 45L1 45L1 47L2 47L2 46L3 46L3 47L5 47L5 46L7 46L7 45L8 45L8 49L9 49L9 50L10 50L10 49L9 49L9 45L14 45L14 43L17 43L17 45L15 45L15 46L14 46L14 47L13 47L13 46L11 46L11 49L12 49L12 50L13 50L13 49L12 49L12 47L13 47L13 48L14 48L14 47L15 47L15 46L16 46L16 47L18 47L18 48L19 48L19 49L21 49L21 51L23 51L23 52L21 52L21 53L22 53L22 54L23 54L23 52L24 52L24 53L25 53L25 52L26 52L26 50L25 50L25 48L24 48L24 47L23 47L23 48L21 48L21 47L22 47L22 46L23 46L23 45L25 45L25 47L26 47L26 48L27 48L27 46L28 46L28 47L29 47L29 48L31 48L31 47L32 47L32 49L31 49L31 53L32 53L32 51L34 51L34 50L35 50L35 48L37 48L37 49L36 49L36 50L37 50L37 49L38 49L38 48L39 48L39 49L40 49L40 50L39 50L39 51L36 51L36 52L35 52L35 53L36 53L36 54L35 54L35 55L36 55L36 54L37 54L37 52L40 52L40 54L41 54L41 55L40 55L40 56L41 56L41 55L42 55L42 54L43 54L43 53L42 53L42 54L41 54L41 52L43 52L43 47L39 47L39 46L41 46L41 45L38 45L38 44L41 44L41 42L40 42L40 41L42 41L42 42L43 42L43 43L42 43L42 45L43 45L43 46L45 46L45 47L44 47L44 50L45 50L45 52L46 52L46 51L47 51L47 52L48 52L48 48L46 48L46 46L47 46L47 47L49 47L49 46L51 46L51 47L50 47L50 48L53 48L53 47L52 47L52 46L54 46L54 45L51 45L51 42L50 42L50 41L52 41L52 40L50 40L50 39L52 39L52 38L53 38L53 39L54 39L54 38L53 38L53 36L52 36L52 35L51 35L51 36L50 36L50 37L49 37L49 36L47 36L47 37L46 37L46 36L44 36L44 37L43 37L43 35L42 35L42 34L41 34L41 35L37 35L37 36L40 36L40 37L41 37L41 39L40 39L40 41L37 41L37 40L38 40L38 39L39 39L39 38L37 38L37 37L34 37L34 39L35 39L35 40L34 40L34 41L36 41L36 42L34 42L34 43L35 43L35 44L34 44L34 45L33 45L33 42L32 42L32 45L33 45L33 46L31 46L31 43L29 43L29 45L28 45L28 44L27 44L27 42L25 42L25 41L26 41L26 40L27 40L27 41L29 41L29 42L31 42L31 40L33 40L33 39L32 39L32 38L33 38L33 36L32 36L32 34L30 34L30 35L29 35L29 33L30 33L30 31L28 31L28 33L27 33L27 31L26 31L26 32L25 32L25 34L24 34L24 35L23 35L23 33L24 33L24 32L23 32L23 33L22 33L22 35L21 35L21 33L20 33L20 34L19 34L19 32L22 32L22 31L25 31L25 30L26 30L26 28L25 28L25 25L27 25L27 24L26 24L26 23L27 23L27 22L25 22L25 25L24 25L24 24L23 24L23 22L22 22L22 23L20 23L20 24L21 24L21 26L19 26L19 25L17 25L17 24L18 24L18 23L16 23L16 19L15 19L15 17L11 17L11 16L10 16L10 15L9 15L9 14L11 14L11 15L12 15L12 16L13 16L13 15L14 15L14 16L15 16L15 15L14 15L14 13L13 13L13 12L12 12L12 13L11 13L11 12ZM34 12L34 14L33 14L33 15L32 15L32 14L31 14L31 16L29 16L29 15L28 15L28 16L29 16L29 17L27 17L27 18L26 18L26 17L24 17L24 18L26 18L26 19L27 19L27 20L26 20L26 21L27 21L27 20L29 20L29 21L28 21L28 26L29 26L29 23L30 23L30 19L32 19L32 20L31 20L31 23L32 23L32 22L33 22L33 24L32 24L32 25L33 25L33 24L35 24L35 23L36 23L36 24L37 24L37 22L35 22L35 20L34 20L34 19L33 19L33 18L32 18L32 17L31 17L31 16L33 16L33 15L35 15L35 14L36 14L36 13L35 13L35 12ZM50 12L50 13L51 13L51 15L53 15L53 14L52 14L52 13L51 13L51 12ZM1 13L1 14L2 14L2 16L3 16L3 17L4 17L4 15L3 15L3 14L4 14L4 13ZM7 15L7 16L9 16L9 15ZM26 15L26 16L27 16L27 15ZM29 17L29 18L28 18L28 19L30 19L30 17ZM36 17L36 18L37 18L37 17ZM42 17L42 18L41 18L41 20L42 20L42 21L44 21L44 22L47 22L47 21L45 21L45 20L47 20L47 19L46 19L46 18L45 18L45 17ZM55 17L55 18L56 18L56 17ZM42 18L42 20L43 20L43 18ZM44 18L44 19L45 19L45 18ZM13 19L13 20L12 20L12 22L11 22L11 23L10 23L10 24L11 24L11 23L12 23L12 22L13 22L13 24L12 24L12 25L10 25L10 26L12 26L12 25L13 25L13 26L14 26L14 27L15 27L15 29L16 29L16 30L14 30L14 28L13 28L13 27L12 27L12 29L10 29L10 34L11 34L11 35L10 35L10 36L8 36L8 35L9 35L9 34L8 34L8 32L6 32L6 33L7 33L7 34L6 34L6 35L7 35L7 36L6 36L6 37L5 37L5 38L6 38L6 39L7 39L7 40L6 40L6 41L7 41L7 42L6 42L6 43L9 43L9 44L8 44L8 45L9 45L9 44L13 44L13 43L14 43L14 41L16 41L16 42L18 42L18 43L19 43L19 41L17 41L17 40L20 40L20 41L22 41L22 44L21 44L21 42L20 42L20 44L21 44L21 46L22 46L22 44L23 44L23 42L24 42L24 41L25 41L25 39L27 39L27 40L28 40L28 39L30 39L30 38L32 38L32 36L29 36L29 35L28 35L28 34L27 34L27 36L23 36L23 35L22 35L22 36L23 36L23 39L22 39L22 40L21 40L21 38L22 38L22 37L21 37L21 38L20 38L20 37L19 37L19 36L17 36L17 34L15 34L15 33L16 33L16 30L17 30L17 33L18 33L18 32L19 32L19 31L18 31L18 30L17 30L17 28L16 28L16 27L15 27L15 26L16 26L16 25L15 25L15 24L16 24L16 23L14 23L14 20L15 20L15 19ZM36 20L36 21L37 21L37 20ZM48 20L48 21L49 21L49 24L48 24L48 23L47 23L47 25L46 25L46 26L45 26L45 24L46 24L46 23L44 23L44 25L41 25L41 24L43 24L43 22L41 22L41 23L40 23L40 26L38 26L38 27L41 27L41 26L44 26L44 27L45 27L45 29L42 29L42 30L40 30L40 29L41 29L41 28L40 28L40 29L38 29L38 30L36 30L36 29L37 29L37 28L34 28L34 29L35 29L35 31L33 31L33 29L32 29L32 31L33 31L33 32L31 32L31 33L33 33L33 34L34 34L34 36L36 36L36 35L35 35L35 33L33 33L33 32L35 32L35 31L37 31L37 32L36 32L36 33L37 33L37 32L38 32L38 34L39 34L39 31L40 31L40 32L41 32L41 31L44 31L44 34L46 34L46 35L47 35L47 34L50 34L50 33L49 33L49 32L48 32L48 29L47 29L47 31L45 31L45 30L46 30L46 26L47 26L47 27L48 27L48 26L49 26L49 24L50 24L50 23L52 23L52 22L51 22L51 21L50 21L50 20ZM3 21L3 22L2 22L2 23L4 23L4 22L5 22L5 21ZM38 21L38 22L39 22L39 21ZM8 23L8 24L6 24L6 25L8 25L8 24L9 24L9 23ZM13 24L13 25L14 25L14 24ZM38 24L38 25L39 25L39 24ZM22 25L22 27L23 27L23 28L24 28L24 27L23 27L23 25ZM30 25L30 26L31 26L31 25ZM34 25L34 27L35 27L35 25ZM17 26L17 27L19 27L19 28L18 28L18 29L19 29L19 28L20 28L20 29L21 29L21 30L20 30L20 31L21 31L21 30L24 30L24 29L21 29L21 28L20 28L20 27L19 27L19 26ZM5 27L5 30L8 30L8 27ZM10 27L10 28L11 28L11 27ZM27 27L27 30L30 30L30 27ZM31 27L31 28L33 28L33 27ZM42 27L42 28L43 28L43 27ZM49 27L49 30L52 30L52 27ZM6 28L6 29L7 29L7 28ZM28 28L28 29L29 29L29 28ZM50 28L50 29L51 29L51 28ZM53 28L53 31L54 31L54 32L55 32L55 30L54 30L54 28ZM11 30L11 34L12 34L12 32L13 32L13 31L12 31L12 30ZM38 30L38 31L39 31L39 30ZM14 31L14 32L15 32L15 31ZM50 31L50 32L52 32L52 34L54 34L54 33L53 33L53 32L52 32L52 31ZM4 32L4 33L3 33L3 34L5 34L5 32ZM42 32L42 33L43 33L43 32ZM46 32L46 33L47 33L47 32ZM13 33L13 34L14 34L14 33ZM11 35L11 36L10 36L10 37L8 37L8 36L7 36L7 37L6 37L6 38L8 38L8 39L10 39L10 40L9 40L9 41L8 41L8 42L9 42L9 41L10 41L10 42L13 42L13 41L14 41L14 40L13 40L13 41L12 41L12 39L13 39L13 38L11 38L11 37L12 37L12 36L13 36L13 35ZM14 35L14 39L15 39L15 38L17 38L17 39L16 39L16 40L17 40L17 39L18 39L18 38L19 38L19 37L18 37L18 38L17 38L17 36L15 36L15 35ZM20 35L20 36L21 36L21 35ZM41 35L41 36L42 36L42 35ZM27 36L27 38L29 38L29 36ZM51 36L51 37L50 37L50 38L52 38L52 36ZM1 37L1 38L2 38L2 37ZM24 37L24 39L23 39L23 40L22 40L22 41L23 41L23 40L24 40L24 39L25 39L25 38L26 38L26 37ZM45 37L45 38L46 38L46 41L45 41L45 39L44 39L44 38L42 38L42 39L41 39L41 40L42 40L42 41L43 41L43 40L44 40L44 41L45 41L45 42L44 42L44 44L49 44L49 45L48 45L48 46L49 46L49 45L50 45L50 44L49 44L49 43L50 43L50 42L49 42L49 43L48 43L48 42L47 42L47 41L50 41L50 40L47 40L47 39L49 39L49 38L48 38L48 37L47 37L47 38L46 38L46 37ZM10 38L10 39L11 39L11 38ZM35 38L35 39L36 39L36 38ZM10 40L10 41L11 41L11 40ZM4 42L4 43L3 43L3 45L4 45L4 44L5 44L5 45L7 45L7 44L5 44L5 42ZM37 42L37 44L38 44L38 43L39 43L39 42ZM46 42L46 43L47 43L47 42ZM53 42L53 43L52 43L52 44L55 44L55 43L54 43L54 42ZM25 43L25 45L26 45L26 46L27 46L27 45L26 45L26 43ZM35 44L35 45L36 45L36 44ZM17 45L17 46L18 46L18 47L19 47L19 48L20 48L20 45ZM29 45L29 46L30 46L30 45ZM37 45L37 47L38 47L38 45ZM34 46L34 47L36 47L36 46ZM23 48L23 49L22 49L22 50L23 50L23 49L24 49L24 48ZM33 48L33 50L34 50L34 48ZM41 48L41 49L42 49L42 48ZM14 49L14 50L15 50L15 49ZM27 49L27 52L30 52L30 49ZM45 49L45 50L46 50L46 49ZM49 49L49 52L52 52L52 49ZM53 49L53 50L55 50L55 49ZM24 50L24 51L25 51L25 50ZM28 50L28 51L29 51L29 50ZM50 50L50 51L51 51L51 50ZM40 51L40 52L41 52L41 51ZM33 52L33 53L34 53L34 52ZM38 53L38 54L39 54L39 53ZM48 53L48 54L50 54L50 53ZM55 53L55 54L56 54L56 53ZM13 54L13 55L14 55L14 54ZM44 54L44 55L46 55L46 56L47 56L47 54ZM9 55L9 56L10 56L10 55ZM27 55L27 56L28 56L28 55ZM48 55L48 56L49 56L49 55ZM56 55L56 56L57 56L57 55ZM52 56L52 57L53 57L53 56ZM54 56L54 57L55 57L55 56ZM0 0L0 7L7 7L7 0ZM1 1L1 6L6 6L6 1ZM2 2L2 5L5 5L5 2ZM50 0L50 7L57 7L57 0ZM51 1L51 6L56 6L56 1ZM52 2L52 5L55 5L55 2ZM0 50L0 57L7 57L7 50ZM1 51L1 56L6 56L6 51ZM2 52L2 55L5 55L5 52Z" fill="#000000"/></g></g></svg>
