<?xml version="1.0" encoding="UTF-8"?>
<svg xmlns="http://www.w3.org/2000/svg" version="1.1" width="300" height="300" viewBox="0 0 300 300"><rect x="0" y="0" width="300" height="300" fill="#fefefe"/><g transform="scale(4.615)"><g transform="translate(4,4)"><path fill-rule="evenodd" d="M8 0L8 4L10 4L10 5L11 5L11 4L12 4L12 5L13 5L13 6L12 6L12 7L11 7L11 6L10 6L10 7L9 7L9 5L8 5L8 7L9 7L9 9L10 9L10 10L8 10L8 9L7 9L7 8L4 8L4 9L3 9L3 11L1 11L1 10L2 10L2 8L0 8L0 11L1 11L1 12L4 12L4 13L3 13L3 14L2 14L2 13L1 13L1 14L0 14L0 16L1 16L1 17L0 17L0 20L1 20L1 22L3 22L3 23L1 23L1 25L3 25L3 26L4 26L4 28L2 28L2 30L0 30L0 34L2 34L2 33L3 33L3 35L4 35L4 34L5 34L5 35L7 35L7 34L8 34L8 32L9 32L9 28L10 28L10 24L11 24L11 21L8 21L8 22L6 22L6 21L7 21L7 20L6 20L6 21L5 21L5 19L7 19L7 18L5 18L5 19L4 19L4 17L5 17L5 16L6 16L6 17L7 17L7 16L9 16L9 17L8 17L8 20L10 20L10 18L11 18L11 19L13 19L13 20L12 20L12 21L14 21L14 23L13 23L13 24L12 24L12 26L11 26L11 28L12 28L12 29L13 29L13 30L10 30L10 33L9 33L9 34L11 34L11 33L12 33L12 34L13 34L13 35L14 35L14 36L13 36L13 39L11 39L11 41L12 41L12 42L11 42L11 43L10 43L10 45L11 45L11 46L10 46L10 47L9 47L9 46L8 46L8 44L6 44L6 43L9 43L9 41L10 41L10 40L8 40L8 39L10 39L10 35L8 35L8 37L9 37L9 38L3 38L3 37L5 37L5 36L1 36L1 39L0 39L0 40L1 40L1 43L0 43L0 44L1 44L1 45L2 45L2 47L1 47L1 46L0 46L0 48L5 48L5 47L7 47L7 48L6 48L6 49L8 49L8 50L9 50L9 51L8 51L8 53L10 53L10 52L11 52L11 53L12 53L12 54L11 54L11 55L10 55L10 54L9 54L9 55L8 55L8 57L10 57L10 56L12 56L12 57L13 57L13 55L12 55L12 54L14 54L14 53L15 53L15 55L16 55L16 54L17 54L17 57L22 57L22 54L23 54L23 55L24 55L24 57L25 57L25 54L26 54L26 57L27 57L27 53L28 53L28 57L29 57L29 55L30 55L30 57L34 57L34 55L35 55L35 57L37 57L37 56L36 56L36 54L37 54L37 53L38 53L38 55L40 55L40 56L39 56L39 57L40 57L40 56L41 56L41 57L43 57L43 56L44 56L44 57L45 57L45 56L46 56L46 57L47 57L47 56L46 56L46 55L47 55L47 54L46 54L46 53L47 53L47 52L48 52L48 54L49 54L49 57L50 57L50 55L51 55L51 56L53 56L53 57L54 57L54 55L53 55L53 54L57 54L57 51L56 51L56 50L57 50L57 49L56 49L56 44L57 44L57 43L56 43L56 42L57 42L57 40L54 40L54 41L53 41L53 38L54 38L54 37L55 37L55 36L56 36L56 37L57 37L57 36L56 36L56 35L55 35L55 33L56 33L56 30L55 30L55 29L54 29L54 28L53 28L53 27L54 27L54 26L55 26L55 25L53 25L53 26L51 26L51 25L52 25L52 24L53 24L53 23L55 23L55 24L56 24L56 25L57 25L57 24L56 24L56 21L57 21L57 20L56 20L56 18L57 18L57 15L56 15L56 13L57 13L57 11L56 11L56 10L57 10L57 8L53 8L53 9L52 9L52 8L51 8L51 9L50 9L50 16L49 16L49 15L48 15L48 17L47 17L47 18L48 18L48 19L49 19L49 20L48 20L48 21L47 21L47 19L45 19L45 18L46 18L46 17L45 17L45 16L47 16L47 15L46 15L46 11L45 11L45 10L44 10L44 9L46 9L46 7L47 7L47 5L48 5L48 0L41 0L41 1L40 1L40 2L39 2L39 3L40 3L40 4L38 4L38 1L39 1L39 0L38 0L38 1L37 1L37 2L36 2L36 0L35 0L35 1L34 1L34 0L32 0L32 3L31 3L31 0L29 0L29 1L30 1L30 3L31 3L31 4L29 4L29 3L28 3L28 4L26 4L26 3L25 3L25 0L23 0L23 3L22 3L22 1L21 1L21 0L20 0L20 2L19 2L19 1L18 1L18 2L19 2L19 3L22 3L22 4L21 4L21 6L20 6L20 5L19 5L19 4L17 4L17 2L15 2L15 3L16 3L16 4L17 4L17 6L16 6L16 5L15 5L15 4L14 4L14 1L16 1L16 0L14 0L14 1L12 1L12 2L11 2L11 1L10 1L10 2L11 2L11 3L9 3L9 0ZM26 0L26 1L28 1L28 0ZM33 1L33 2L34 2L34 3L32 3L32 5L33 5L33 4L34 4L34 5L35 5L35 7L34 7L34 6L33 6L33 7L32 7L32 6L31 6L31 10L29 10L29 11L28 11L28 9L26 9L26 6L25 6L25 7L24 7L24 6L23 6L23 5L24 5L24 4L25 4L25 3L23 3L23 4L22 4L22 6L21 6L21 8L22 8L22 9L21 9L21 11L22 11L22 12L24 12L24 11L23 11L23 9L24 9L24 8L25 8L25 10L27 10L27 11L26 11L26 13L25 13L25 14L26 14L26 16L27 16L27 15L28 15L28 14L26 14L26 13L29 13L29 16L31 16L31 18L33 18L33 19L34 19L34 22L31 22L31 23L30 23L30 22L29 22L29 24L28 24L28 25L27 25L27 26L28 26L28 25L29 25L29 26L30 26L30 25L29 25L29 24L31 24L31 29L32 29L32 30L31 30L31 32L30 32L30 31L27 31L27 32L26 32L26 34L27 34L27 35L26 35L26 36L28 36L28 37L26 37L26 38L27 38L27 39L25 39L25 38L24 38L24 37L23 37L23 33L25 33L25 31L24 31L24 32L23 32L23 31L22 31L22 30L23 30L23 28L22 28L22 27L21 27L21 26L20 26L20 25L24 25L24 23L23 23L23 22L22 22L22 21L24 21L24 22L25 22L25 23L26 23L26 22L28 22L28 21L29 21L29 20L28 20L28 19L30 19L30 18L28 18L28 17L27 17L27 19L26 19L26 20L25 20L25 18L26 18L26 17L25 17L25 16L22 16L22 15L23 15L23 13L21 13L21 12L20 12L20 9L19 9L19 10L18 10L18 9L16 9L16 10L15 10L15 11L16 11L16 12L17 12L17 13L15 13L15 12L14 12L14 11L13 11L13 10L14 10L14 8L15 8L15 7L16 7L16 6L15 6L15 5L14 5L14 6L13 6L13 7L12 7L12 8L11 8L11 7L10 7L10 9L12 9L12 8L13 8L13 10L11 10L11 11L5 11L5 10L7 10L7 9L4 9L4 12L7 12L7 13L6 13L6 14L8 14L8 15L9 15L9 13L8 13L8 12L10 12L10 15L11 15L11 16L10 16L10 17L11 17L11 16L12 16L12 18L13 18L13 19L14 19L14 20L15 20L15 21L17 21L17 22L16 22L16 23L14 23L14 24L13 24L13 26L14 26L14 24L16 24L16 26L15 26L15 28L14 28L14 27L12 27L12 28L14 28L14 30L16 30L16 32L17 32L17 30L18 30L18 29L19 29L19 31L18 31L18 32L19 32L19 33L16 33L16 34L15 34L15 33L13 33L13 32L15 32L15 31L13 31L13 32L12 32L12 31L11 31L11 32L12 32L12 33L13 33L13 34L14 34L14 35L15 35L15 36L14 36L14 39L13 39L13 41L16 41L16 42L12 42L12 44L13 44L13 43L14 43L14 44L17 44L17 45L16 45L16 46L17 46L17 48L16 48L16 47L15 47L15 46L14 46L14 45L12 45L12 46L13 46L13 47L12 47L12 48L10 48L10 49L14 49L14 48L13 48L13 47L15 47L15 49L16 49L16 50L14 50L14 51L13 51L13 52L15 52L15 53L17 53L17 54L19 54L19 53L20 53L20 52L19 52L19 53L17 53L17 52L16 52L16 50L17 50L17 48L18 48L18 46L17 46L17 45L18 45L18 44L19 44L19 42L20 42L20 41L16 41L16 40L14 40L14 39L16 39L16 38L17 38L17 39L18 39L18 40L19 40L19 39L20 39L20 38L21 38L21 37L18 37L18 36L16 36L16 35L17 35L17 34L19 34L19 36L21 36L21 35L20 35L20 28L21 28L21 29L22 29L22 30L21 30L21 31L22 31L22 33L21 33L21 34L22 34L22 38L23 38L23 39L24 39L24 41L25 41L25 40L27 40L27 39L28 39L28 38L29 38L29 39L31 39L31 41L30 41L30 40L29 40L29 41L26 41L26 42L23 42L23 40L22 40L22 42L21 42L21 43L20 43L20 44L21 44L21 43L22 43L22 44L23 44L23 45L21 45L21 46L22 46L22 47L21 47L21 48L22 48L22 49L21 49L21 50L20 50L20 48L19 48L19 50L18 50L18 51L19 51L19 50L20 50L20 51L22 51L22 49L23 49L23 48L24 48L24 49L26 49L26 48L27 48L27 47L26 47L26 46L27 46L27 45L28 45L28 47L29 47L29 48L31 48L31 49L32 49L32 50L31 50L31 52L32 52L32 51L33 51L33 52L34 52L34 50L35 50L35 52L36 52L36 49L34 49L34 48L33 48L33 47L32 47L32 46L33 46L33 45L32 45L32 43L33 43L33 44L35 44L35 43L33 43L33 41L32 41L32 40L33 40L33 39L34 39L34 42L35 42L35 39L37 39L37 42L38 42L38 39L40 39L40 38L38 38L38 37L37 37L37 38L35 38L35 32L34 32L34 31L36 31L36 30L35 30L35 27L36 27L36 26L37 26L37 27L40 27L40 26L41 26L41 28L40 28L40 29L39 29L39 30L40 30L40 31L39 31L39 32L40 32L40 33L39 33L39 34L38 34L38 33L37 33L37 34L38 34L38 36L39 36L39 37L41 37L41 39L42 39L42 37L41 37L41 36L43 36L43 37L44 37L44 38L43 38L43 39L45 39L45 40L46 40L46 43L45 43L45 42L44 42L44 41L43 41L43 40L40 40L40 41L39 41L39 43L40 43L40 45L39 45L39 44L37 44L37 43L36 43L36 44L37 44L37 46L38 46L38 45L39 45L39 47L38 47L38 49L37 49L37 52L38 52L38 53L39 53L39 52L40 52L40 53L41 53L41 46L40 46L40 45L41 45L41 43L42 43L42 44L43 44L43 46L44 46L44 47L42 47L42 49L43 49L43 50L42 50L42 53L44 53L44 56L45 56L45 55L46 55L46 54L45 54L45 53L46 53L46 52L47 52L47 51L45 51L45 49L44 49L44 47L45 47L45 48L46 48L46 50L47 50L47 49L48 49L48 47L49 47L49 46L48 46L48 43L49 43L49 45L50 45L50 43L51 43L51 45L52 45L52 48L55 48L55 47L54 47L54 46L53 46L53 45L52 45L52 43L53 43L53 44L54 44L54 45L55 45L55 44L56 44L56 43L55 43L55 42L56 42L56 41L55 41L55 42L54 42L54 43L53 43L53 41L52 41L52 38L53 38L53 36L55 36L55 35L53 35L53 34L54 34L54 32L55 32L55 30L53 30L53 31L51 31L51 32L50 32L50 31L49 31L49 32L50 32L50 35L49 35L49 37L48 37L48 36L47 36L47 35L46 35L46 34L49 34L49 33L48 33L48 31L47 31L47 30L48 30L48 27L45 27L45 26L44 26L44 24L45 24L45 25L46 25L46 26L47 26L47 25L49 25L49 26L50 26L50 25L51 25L51 24L52 24L52 23L53 23L53 22L55 22L55 17L56 17L56 16L55 16L55 15L53 15L53 14L52 14L52 13L53 13L53 12L54 12L54 13L55 13L55 10L56 10L56 9L53 9L53 10L54 10L54 11L52 11L52 10L51 10L51 11L52 11L52 12L51 12L51 14L52 14L52 17L51 17L51 16L50 16L50 17L49 17L49 18L50 18L50 19L53 19L53 20L52 20L52 21L51 21L51 20L49 20L49 21L51 21L51 22L52 22L52 23L51 23L51 24L50 24L50 22L49 22L49 24L48 24L48 23L47 23L47 21L46 21L46 20L45 20L45 21L46 21L46 23L45 23L45 22L44 22L44 16L45 16L45 14L44 14L44 12L45 12L45 11L44 11L44 10L41 10L41 9L44 9L44 4L45 4L45 5L47 5L47 3L44 3L44 2L43 2L43 3L44 3L44 4L43 4L43 8L40 8L40 10L41 10L41 11L39 11L39 10L38 10L38 8L37 8L37 9L35 9L35 7L36 7L36 5L38 5L38 4L37 4L37 3L36 3L36 2L34 2L34 1ZM46 1L46 2L47 2L47 1ZM40 2L40 3L41 3L41 4L42 4L42 2ZM34 3L34 4L35 4L35 5L36 5L36 4L35 4L35 3ZM18 5L18 6L17 6L17 7L18 7L18 6L19 6L19 7L20 7L20 6L19 6L19 5ZM27 5L27 8L30 8L30 5ZM39 5L39 7L40 7L40 6L41 6L41 7L42 7L42 5ZM14 6L14 7L13 7L13 8L14 8L14 7L15 7L15 6ZM22 6L22 7L23 7L23 8L24 8L24 7L23 7L23 6ZM28 6L28 7L29 7L29 6ZM37 6L37 7L38 7L38 6ZM45 6L45 7L46 7L46 6ZM48 6L48 7L49 7L49 6ZM33 7L33 8L32 8L32 14L31 14L31 13L30 13L30 15L31 15L31 16L32 16L32 17L33 17L33 18L34 18L34 19L36 19L36 20L35 20L35 22L34 22L34 23L32 23L32 27L33 27L33 28L32 28L32 29L33 29L33 30L32 30L32 31L34 31L34 27L33 27L33 26L34 26L34 25L37 25L37 24L34 24L34 23L35 23L35 22L37 22L37 23L38 23L38 22L39 22L39 21L40 21L40 22L43 22L43 23L41 23L41 26L42 26L42 28L43 28L43 29L40 29L40 30L41 30L41 31L40 31L40 32L41 32L41 33L40 33L40 34L42 34L42 35L43 35L43 33L45 33L45 34L46 34L46 33L47 33L47 31L46 31L46 30L45 30L45 27L44 27L44 26L43 26L43 24L44 24L44 22L43 22L43 21L42 21L42 20L41 20L41 21L40 21L40 18L41 18L41 19L42 19L42 18L43 18L43 17L42 17L42 15L43 15L43 16L44 16L44 14L43 14L43 13L41 13L41 14L40 14L40 13L38 13L38 15L39 15L39 17L38 17L38 16L37 16L37 14L35 14L35 17L38 17L38 18L39 18L39 19L37 19L37 18L34 18L34 13L33 13L33 10L34 10L34 12L35 12L35 13L37 13L37 12L39 12L39 11L38 11L38 10L37 10L37 12L35 12L35 11L36 11L36 10L34 10L34 9L33 9L33 8L34 8L34 7ZM47 8L47 11L48 11L48 12L49 12L49 11L48 11L48 10L49 10L49 9L48 9L48 8ZM16 10L16 11L18 11L18 10ZM11 11L11 12L12 12L12 11ZM27 11L27 12L28 12L28 11ZM29 11L29 12L31 12L31 11ZM41 11L41 12L43 12L43 11ZM18 12L18 13L17 13L17 14L15 14L15 13L11 13L11 14L12 14L12 15L13 15L13 16L14 16L14 17L13 17L13 18L14 18L14 17L15 17L15 19L16 19L16 20L17 20L17 21L18 21L18 22L19 22L19 23L20 23L20 22L21 22L21 23L22 23L22 24L23 24L23 23L22 23L22 22L21 22L21 21L22 21L22 19L24 19L24 18L25 18L25 17L21 17L21 16L18 16L18 15L19 15L19 13L20 13L20 15L22 15L22 14L21 14L21 13L20 13L20 12ZM4 13L4 16L5 16L5 13ZM47 13L47 14L49 14L49 13ZM13 14L13 15L14 15L14 16L15 16L15 15L14 15L14 14ZM17 14L17 15L18 15L18 14ZM2 15L2 18L3 18L3 15ZM6 15L6 16L7 16L7 15ZM32 15L32 16L33 16L33 15ZM40 15L40 17L39 17L39 18L40 18L40 17L41 17L41 15ZM16 16L16 18L17 18L17 19L19 19L19 18L20 18L20 17L17 17L17 16ZM53 16L53 17L52 17L52 18L53 18L53 17L55 17L55 16ZM50 17L50 18L51 18L51 17ZM1 19L1 20L2 20L2 21L3 21L3 22L4 22L4 23L3 23L3 24L4 24L4 26L9 26L9 25L8 25L8 24L10 24L10 23L9 23L9 22L8 22L8 24L7 24L7 23L5 23L5 21L4 21L4 19L3 19L3 20L2 20L2 19ZM20 19L20 20L19 20L19 21L20 21L20 20L21 20L21 19ZM24 20L24 21L25 21L25 20ZM26 20L26 21L28 21L28 20ZM31 20L31 21L32 21L32 20ZM37 20L37 22L38 22L38 20ZM52 21L52 22L53 22L53 21ZM4 23L4 24L5 24L5 23ZM17 23L17 25L19 25L19 24L18 24L18 23ZM46 23L46 24L47 24L47 23ZM6 24L6 25L7 25L7 24ZM33 24L33 25L34 25L34 24ZM25 25L25 26L24 26L24 27L26 27L26 25ZM38 25L38 26L40 26L40 25ZM0 26L0 27L1 27L1 26ZM16 26L16 27L17 27L17 28L15 28L15 29L18 29L18 28L20 28L20 26L18 26L18 27L17 27L17 26ZM5 27L5 30L8 30L8 27ZM27 27L27 30L30 30L30 27ZM49 27L49 30L52 30L52 27ZM55 27L55 28L56 28L56 29L57 29L57 28L56 28L56 27ZM0 28L0 29L1 29L1 28ZM6 28L6 29L7 29L7 28ZM28 28L28 29L29 29L29 28ZM37 28L37 29L38 29L38 28ZM46 28L46 29L47 29L47 28ZM50 28L50 29L51 29L51 28ZM3 29L3 30L4 30L4 29ZM25 29L25 30L26 30L26 29ZM43 29L43 31L44 31L44 29ZM37 30L37 32L38 32L38 30ZM4 31L4 32L3 32L3 33L4 33L4 32L5 32L5 33L6 33L6 34L7 34L7 33L6 33L6 32L7 32L7 31L6 31L6 32L5 32L5 31ZM1 32L1 33L2 33L2 32ZM27 32L27 34L28 34L28 36L29 36L29 37L31 37L31 36L32 36L32 37L33 37L33 38L31 38L31 39L33 39L33 38L34 38L34 39L35 39L35 38L34 38L34 35L33 35L33 34L31 34L31 33L29 33L29 32ZM32 32L32 33L33 33L33 32ZM51 32L51 33L53 33L53 32ZM28 33L28 34L29 34L29 33ZM24 34L24 36L25 36L25 34ZM30 34L30 36L31 36L31 34ZM11 35L11 38L12 38L12 35ZM39 35L39 36L40 36L40 35ZM44 35L44 37L45 37L45 39L47 39L47 40L51 40L51 39L50 39L50 38L52 38L52 37L51 37L51 36L53 36L53 35L50 35L50 38L49 38L49 39L47 39L47 38L48 38L48 37L47 37L47 36L46 36L46 35ZM6 36L6 37L7 37L7 36ZM15 36L15 37L16 37L16 36ZM45 36L45 37L46 37L46 38L47 38L47 37L46 37L46 36ZM17 37L17 38L18 38L18 37ZM2 38L2 39L1 39L1 40L2 40L2 39L3 39L3 40L4 40L4 41L6 41L6 42L7 42L7 41L8 41L8 40L7 40L7 39L5 39L5 40L4 40L4 39L3 39L3 38ZM55 38L55 39L57 39L57 38ZM6 40L6 41L7 41L7 40ZM31 41L31 43L29 43L29 42L28 42L28 43L24 43L24 45L23 45L23 47L22 47L22 48L23 48L23 47L24 47L24 48L26 48L26 47L25 47L25 46L26 46L26 45L27 45L27 44L28 44L28 45L29 45L29 46L30 46L30 45L31 45L31 46L32 46L32 45L31 45L31 43L32 43L32 41ZM41 41L41 42L40 42L40 43L41 43L41 42L43 42L43 43L44 43L44 42L43 42L43 41ZM48 41L48 42L49 42L49 43L50 43L50 42L49 42L49 41ZM51 41L51 43L52 43L52 41ZM2 42L2 43L1 43L1 44L2 44L2 45L3 45L3 47L5 47L5 46L7 46L7 45L6 45L6 44L4 44L4 43L3 43L3 42ZM16 42L16 43L18 43L18 42ZM28 43L28 44L29 44L29 45L30 45L30 44L29 44L29 43ZM3 44L3 45L4 45L4 44ZM44 44L44 45L45 45L45 47L46 47L46 48L47 48L47 47L46 47L46 45L47 45L47 44L46 44L46 45L45 45L45 44ZM19 45L19 47L20 47L20 45ZM34 45L34 47L36 47L36 48L37 48L37 47L36 47L36 46L35 46L35 45ZM50 46L50 48L51 48L51 46ZM8 47L8 48L9 48L9 47ZM39 47L39 49L38 49L38 51L40 51L40 47ZM32 48L32 49L33 49L33 50L34 50L34 49L33 49L33 48ZM27 49L27 52L30 52L30 49ZM49 49L49 52L52 52L52 49ZM55 49L55 50L56 50L56 49ZM11 50L11 52L12 52L12 50ZM25 50L25 53L24 53L24 52L22 52L22 53L21 53L21 54L20 54L20 55L19 55L19 56L21 56L21 54L22 54L22 53L24 53L24 54L25 54L25 53L26 53L26 50ZM28 50L28 51L29 51L29 50ZM43 50L43 52L44 52L44 53L45 53L45 51L44 51L44 50ZM50 50L50 51L51 51L51 50ZM53 50L53 53L54 53L54 52L55 52L55 53L56 53L56 51L54 51L54 50ZM9 51L9 52L10 52L10 51ZM30 53L30 54L31 54L31 53ZM32 53L32 54L33 54L33 53ZM34 53L34 54L35 54L35 53ZM49 53L49 54L51 54L51 55L52 55L52 54L51 54L51 53ZM40 54L40 55L41 55L41 54ZM42 54L42 55L43 55L43 54ZM9 55L9 56L10 56L10 55ZM56 56L56 57L57 57L57 56ZM0 0L0 7L7 7L7 0ZM1 1L1 6L6 6L6 1ZM2 2L2 5L5 5L5 2ZM50 0L50 7L57 7L57 0ZM51 1L51 6L56 6L56 1ZM52 2L52 5L55 5L55 2ZM0 50L0 57L7 57L7 50ZM1 51L1 56L6 56L6 51ZM2 52L2 55L5 55L5 52Z" fill="#000000"/></g></g></svg>
