<?xml version="1.0" encoding="UTF-8"?>
<svg xmlns="http://www.w3.org/2000/svg" version="1.1" width="300" height="300" viewBox="0 0 300 300"><rect x="0" y="0" width="300" height="300" fill="#fefefe"/><g transform="scale(4.615)"><g transform="translate(4,4)"><path fill-rule="evenodd" d="M8 0L8 2L9 2L9 4L8 4L8 10L11 10L11 11L10 11L10 12L9 12L9 11L8 11L8 12L9 12L9 13L8 13L8 14L9 14L9 13L11 13L11 14L10 14L10 15L11 15L11 17L13 17L13 16L14 16L14 18L13 18L13 19L12 19L12 18L11 18L11 19L12 19L12 20L11 20L11 21L13 21L13 22L10 22L10 23L13 23L13 22L14 22L14 23L15 23L15 24L14 24L14 25L13 25L13 24L12 24L12 25L13 25L13 26L14 26L14 25L15 25L15 26L16 26L16 25L17 25L17 24L18 24L18 25L19 25L19 24L18 24L18 23L16 23L16 22L19 22L19 19L20 19L20 21L21 21L21 19L22 19L22 21L23 21L23 23L22 23L22 22L20 22L20 23L22 23L22 26L21 26L21 28L20 28L20 27L18 27L18 28L20 28L20 29L19 29L19 31L18 31L18 30L15 30L15 29L14 29L14 28L16 28L16 27L11 27L11 26L10 26L10 25L11 25L11 24L9 24L9 20L8 20L8 23L7 23L7 22L5 22L5 23L4 23L4 21L5 21L5 19L9 19L9 18L10 18L10 17L9 17L9 15L8 15L8 16L5 16L5 14L6 14L6 15L7 15L7 14L6 14L6 13L7 13L7 12L6 12L6 11L7 11L7 10L6 10L6 9L7 9L7 8L5 8L5 10L4 10L4 9L3 9L3 8L0 8L0 9L3 9L3 11L1 11L1 10L0 10L0 14L1 14L1 15L0 15L0 17L1 17L1 15L2 15L2 18L0 18L0 19L1 19L1 20L2 20L2 18L3 18L3 20L4 20L4 21L2 21L2 22L3 22L3 24L5 24L5 25L3 25L3 28L2 28L2 27L1 27L1 25L0 25L0 28L2 28L2 29L3 29L3 28L4 28L4 30L1 30L1 31L0 31L0 35L1 35L1 34L4 34L4 35L2 35L2 36L4 36L4 35L5 35L5 36L6 36L6 37L7 37L7 36L6 36L6 35L10 35L10 37L9 37L9 36L8 36L8 37L9 37L9 38L8 38L8 39L9 39L9 40L8 40L8 41L11 41L11 40L13 40L13 39L15 39L15 36L14 36L14 35L15 35L15 34L16 34L16 33L17 33L17 34L18 34L18 35L20 35L20 33L19 33L19 32L20 32L20 29L21 29L21 30L22 30L22 33L23 33L23 34L22 34L22 35L21 35L21 36L16 36L16 37L17 37L17 38L16 38L16 39L17 39L17 40L16 40L16 41L15 41L15 42L14 42L14 43L15 43L15 42L16 42L16 45L14 45L14 44L13 44L13 41L12 41L12 44L13 44L13 45L12 45L12 46L14 46L14 47L15 47L15 46L16 46L16 47L18 47L18 45L19 45L19 47L20 47L20 49L19 49L19 48L18 48L18 49L17 49L17 51L18 51L18 53L17 53L17 52L16 52L16 50L15 50L15 49L14 49L14 48L13 48L13 47L12 47L12 48L13 48L13 49L11 49L11 46L9 46L9 45L11 45L11 42L10 42L10 44L9 44L9 42L8 42L8 44L9 44L9 45L7 45L7 44L6 44L6 43L7 43L7 42L6 42L6 41L7 41L7 40L2 40L2 38L1 38L1 41L0 41L0 43L1 43L1 44L2 44L2 43L1 43L1 42L2 42L2 41L4 41L4 42L6 42L6 43L5 43L5 44L4 44L4 46L5 46L5 47L3 47L3 45L2 45L2 47L1 47L1 46L0 46L0 48L5 48L5 47L7 47L7 48L6 48L6 49L7 49L7 48L9 48L9 49L8 49L8 50L10 50L10 51L8 51L8 52L9 52L9 53L10 53L10 54L8 54L8 57L10 57L10 56L9 56L9 55L11 55L11 57L15 57L15 56L16 56L16 57L17 57L17 56L18 56L18 57L20 57L20 56L18 56L18 53L19 53L19 52L20 52L20 53L21 53L21 54L20 54L20 55L21 55L21 56L22 56L22 57L24 57L24 56L25 56L25 55L26 55L26 57L28 57L28 55L29 55L29 57L33 57L33 55L30 55L30 54L31 54L31 53L32 53L32 54L34 54L34 57L35 57L35 55L38 55L38 52L37 52L37 51L38 51L38 47L37 47L37 48L36 48L36 49L37 49L37 51L35 51L35 52L34 52L34 49L35 49L35 47L36 47L36 46L38 46L38 45L37 45L37 44L39 44L39 43L37 43L37 44L36 44L36 46L35 46L35 47L34 47L34 45L33 45L33 44L35 44L35 43L36 43L36 41L37 41L37 42L38 42L38 41L39 41L39 42L40 42L40 43L41 43L41 42L42 42L42 43L44 43L44 45L45 45L45 46L44 46L44 50L45 50L45 51L43 51L43 50L42 50L42 49L41 49L41 47L42 47L42 45L43 45L43 44L42 44L42 45L41 45L41 44L40 44L40 45L39 45L39 46L41 46L41 47L40 47L40 49L39 49L39 52L40 52L40 53L39 53L39 55L40 55L40 54L41 54L41 55L42 55L42 56L40 56L40 57L42 57L42 56L44 56L44 57L45 57L45 56L46 56L46 55L47 55L47 54L46 54L46 53L49 53L49 54L48 54L48 55L49 55L49 56L48 56L48 57L50 57L50 55L49 55L49 54L52 54L52 55L53 55L53 56L51 56L51 57L54 57L54 54L55 54L55 55L57 55L57 54L55 54L55 52L54 52L54 51L53 51L53 50L54 50L54 49L55 49L55 50L56 50L56 51L57 51L57 50L56 50L56 47L57 47L57 45L56 45L56 44L57 44L57 42L56 42L56 44L55 44L55 45L56 45L56 47L55 47L55 46L54 46L54 45L53 45L53 44L54 44L54 43L55 43L55 42L54 42L54 41L57 41L57 40L54 40L54 38L57 38L57 36L56 36L56 37L55 37L55 36L54 36L54 34L53 34L53 36L51 36L51 33L50 33L50 32L52 32L52 31L53 31L53 32L54 32L54 33L55 33L55 34L56 34L56 35L57 35L57 34L56 34L56 31L57 31L57 29L56 29L56 27L57 27L57 24L56 24L56 23L57 23L57 12L55 12L55 13L54 13L54 14L55 14L55 13L56 13L56 15L55 15L55 16L54 16L54 15L53 15L53 16L52 16L52 17L51 17L51 16L50 16L50 13L52 13L52 14L51 14L51 15L52 15L52 14L53 14L53 12L54 12L54 11L55 11L55 9L57 9L57 8L55 8L55 9L54 9L54 10L52 10L52 9L53 9L53 8L49 8L49 10L48 10L48 7L49 7L49 6L48 6L48 7L47 7L47 5L48 5L48 0L42 0L42 1L41 1L41 0L38 0L38 2L39 2L39 4L38 4L38 5L37 5L37 6L36 6L36 10L34 10L34 9L35 9L35 4L36 4L36 3L35 3L35 2L37 2L37 1L35 1L35 0L34 0L34 2L33 2L33 3L34 3L34 8L32 8L32 9L31 9L31 5L32 5L32 1L33 1L33 0L30 0L30 3L31 3L31 4L28 4L28 3L29 3L29 2L28 2L28 3L27 3L27 0L24 0L24 1L23 1L23 0L19 0L19 1L20 1L20 2L19 2L19 3L21 3L21 5L20 5L20 7L19 7L19 4L18 4L18 1L17 1L17 0L16 0L16 1L17 1L17 4L16 4L16 2L15 2L15 0L14 0L14 3L13 3L13 2L12 2L12 4L11 4L11 5L10 5L10 7L9 7L9 4L10 4L10 2L11 2L11 1L12 1L12 0L10 0L10 2L9 2L9 0ZM21 1L21 3L22 3L22 4L23 4L23 3L22 3L22 2L23 2L23 1ZM24 1L24 4L25 4L25 1ZM39 1L39 2L40 2L40 4L39 4L39 5L38 5L38 6L37 6L37 7L38 7L38 6L39 6L39 8L38 8L38 11L39 11L39 12L37 12L37 11L36 11L36 12L35 12L35 11L34 11L34 10L33 10L33 9L32 9L32 11L31 11L31 12L30 12L30 10L31 10L31 9L30 9L30 10L29 10L29 9L27 9L27 10L25 10L25 9L26 9L26 5L24 5L24 6L23 6L23 5L22 5L22 6L21 6L21 7L22 7L22 6L23 6L23 8L25 8L25 9L24 9L24 10L23 10L23 9L22 9L22 8L21 8L21 9L20 9L20 10L19 10L19 11L18 11L18 12L19 12L19 13L18 13L18 14L19 14L19 15L18 15L18 16L17 16L17 15L15 15L15 14L17 14L17 12L16 12L16 10L18 10L18 6L17 6L17 5L16 5L16 6L15 6L15 7L14 7L14 5L11 5L11 7L10 7L10 8L9 8L9 9L10 9L10 8L11 8L11 10L12 10L12 11L13 11L13 12L11 12L11 13L13 13L13 15L12 15L12 16L13 16L13 15L14 15L14 16L15 16L15 17L16 17L16 19L14 19L14 20L17 20L17 19L18 19L18 18L19 18L19 17L20 17L20 19L21 19L21 17L20 17L20 14L22 14L22 16L23 16L23 15L24 15L24 14L27 14L27 15L26 15L26 16L27 16L27 17L26 17L26 18L25 18L25 16L24 16L24 18L25 18L25 19L24 19L24 20L25 20L25 19L26 19L26 20L27 20L27 22L26 22L26 23L27 23L27 25L26 25L26 26L28 26L28 22L29 22L29 21L28 21L28 19L30 19L30 20L31 20L31 21L30 21L30 23L29 23L29 26L31 26L31 25L32 25L32 27L31 27L31 30L32 30L32 31L31 31L31 32L30 32L30 34L32 34L32 35L33 35L33 36L34 36L34 38L31 38L31 40L30 40L30 36L31 36L31 37L32 37L32 36L31 36L31 35L28 35L28 34L29 34L29 32L28 32L28 31L27 31L27 32L25 32L25 31L26 31L26 30L25 30L25 29L24 29L24 31L23 31L23 32L24 32L24 34L26 34L26 37L24 37L24 36L25 36L25 35L22 35L22 36L21 36L21 37L22 37L22 40L20 40L20 43L18 43L18 44L19 44L19 45L20 45L20 46L22 46L22 48L21 48L21 49L20 49L20 50L21 50L21 53L22 53L22 54L21 54L21 55L22 55L22 56L23 56L23 53L22 53L22 48L23 48L23 49L24 49L24 51L23 51L23 52L24 52L24 51L25 51L25 53L26 53L26 55L28 55L28 53L26 53L26 51L25 51L25 50L26 50L26 48L28 48L28 46L29 46L29 48L31 48L31 52L32 52L32 51L33 51L33 49L34 49L34 48L33 48L33 45L32 45L32 44L31 44L31 43L32 43L32 40L33 40L33 41L34 41L34 42L35 42L35 41L36 41L36 38L37 38L37 37L36 37L36 35L37 35L37 36L38 36L38 38L39 38L39 41L40 41L40 40L41 40L41 39L42 39L42 40L43 40L43 38L44 38L44 35L43 35L43 33L42 33L42 31L43 31L43 29L44 29L44 28L42 28L42 31L40 31L40 30L41 30L41 29L40 29L40 28L41 28L41 27L43 27L43 25L44 25L44 24L46 24L46 23L48 23L48 22L50 22L50 26L53 26L53 25L52 25L52 23L53 23L53 22L52 22L52 20L53 20L53 19L54 19L54 21L55 21L55 22L54 22L54 26L55 26L55 25L56 25L56 24L55 24L55 23L56 23L56 21L55 21L55 20L56 20L56 16L55 16L55 19L54 19L54 17L52 17L52 18L51 18L51 17L50 17L50 18L51 18L51 20L49 20L49 19L48 19L48 20L49 20L49 21L48 21L48 22L47 22L47 20L46 20L46 19L45 19L45 17L44 17L44 16L45 16L45 15L44 15L44 14L43 14L43 13L44 13L44 12L45 12L45 13L46 13L46 16L47 16L47 17L46 17L46 18L47 18L47 17L48 17L48 18L49 18L49 17L48 17L48 16L47 16L47 15L48 15L48 14L49 14L49 13L50 13L50 10L51 10L51 9L50 9L50 10L49 10L49 11L48 11L48 10L47 10L47 7L46 7L46 5L47 5L47 3L46 3L46 4L45 4L45 2L47 2L47 1L42 1L42 3L41 3L41 2L40 2L40 1ZM43 2L43 3L42 3L42 5L41 5L41 6L40 6L40 7L41 7L41 8L40 8L40 9L39 9L39 10L40 10L40 9L41 9L41 10L42 10L42 12L41 12L41 11L40 11L40 14L41 14L41 15L40 15L40 18L38 18L38 16L37 16L37 15L38 15L38 13L37 13L37 12L36 12L36 14L35 14L35 15L34 15L34 13L35 13L35 12L34 12L34 11L33 11L33 12L32 12L32 13L31 13L31 14L33 14L33 15L34 15L34 17L33 17L33 16L32 16L32 18L31 18L31 20L32 20L32 21L33 21L33 22L31 22L31 23L32 23L32 25L33 25L33 26L34 26L34 24L36 24L36 26L37 26L37 27L34 27L34 29L33 29L33 28L32 28L32 30L33 30L33 31L32 31L32 33L33 33L33 35L34 35L34 36L35 36L35 35L36 35L36 33L37 33L37 34L38 34L38 36L39 36L39 38L40 38L40 39L41 39L41 38L42 38L42 37L43 37L43 36L42 36L42 35L40 35L40 36L39 36L39 34L38 34L38 33L39 33L39 32L40 32L40 34L42 34L42 33L41 33L41 32L40 32L40 31L38 31L38 30L37 30L37 28L38 28L38 29L39 29L39 27L40 27L40 26L41 26L41 23L40 23L40 26L38 26L38 25L39 25L39 23L38 23L38 25L37 25L37 24L36 24L36 23L37 23L37 22L38 22L38 21L39 21L39 19L40 19L40 22L42 22L42 25L43 25L43 24L44 24L44 23L45 23L45 22L44 22L44 21L45 21L45 19L44 19L44 17L43 17L43 18L42 18L42 17L41 17L41 15L42 15L42 12L44 12L44 10L45 10L45 11L46 11L46 13L47 13L47 14L48 14L48 11L46 11L46 7L45 7L45 6L44 6L44 5L45 5L45 4L44 4L44 2ZM14 3L14 4L15 4L15 3ZM26 3L26 4L27 4L27 3ZM43 4L43 5L42 5L42 6L41 6L41 7L42 7L42 8L43 8L43 9L42 9L42 10L44 10L44 8L45 8L45 7L44 7L44 6L43 6L43 5L44 5L44 4ZM27 5L27 8L30 8L30 5ZM12 6L12 7L13 7L13 8L12 8L12 10L13 10L13 8L14 8L14 9L15 9L15 10L16 10L16 9L15 9L15 8L14 8L14 7L13 7L13 6ZM16 6L16 7L17 7L17 6ZM24 6L24 7L25 7L25 6ZM28 6L28 7L29 7L29 6ZM32 6L32 7L33 7L33 6ZM42 6L42 7L43 7L43 6ZM56 10L56 11L57 11L57 10ZM4 11L4 12L3 12L3 13L1 13L1 14L2 14L2 15L4 15L4 14L5 14L5 13L4 13L4 12L5 12L5 11ZM14 11L14 12L15 12L15 11ZM22 11L22 12L25 12L25 13L26 13L26 11ZM28 11L28 12L27 12L27 14L28 14L28 15L29 15L29 16L30 16L30 17L28 17L28 18L30 18L30 17L31 17L31 16L30 16L30 15L29 15L29 13L30 13L30 12L29 12L29 11ZM51 11L51 12L52 12L52 11ZM20 12L20 13L19 13L19 14L20 14L20 13L21 13L21 12ZM3 13L3 14L4 14L4 13ZM35 15L35 17L34 17L34 18L33 18L33 20L34 20L34 18L36 18L36 19L37 19L37 21L36 21L36 20L35 20L35 21L34 21L34 22L33 22L33 24L34 24L34 22L35 22L35 23L36 23L36 22L37 22L37 21L38 21L38 19L37 19L37 18L36 18L36 15ZM43 15L43 16L44 16L44 15ZM3 16L3 17L5 17L5 16ZM16 16L16 17L17 17L17 18L18 18L18 17L19 17L19 16L18 16L18 17L17 17L17 16ZM6 17L6 18L9 18L9 17ZM4 18L4 19L5 19L5 18ZM22 18L22 19L23 19L23 18ZM26 18L26 19L27 19L27 18ZM40 18L40 19L41 19L41 18ZM42 19L42 20L43 20L43 21L42 21L42 22L43 22L43 23L44 23L44 22L43 22L43 21L44 21L44 19ZM6 20L6 21L7 21L7 20ZM14 21L14 22L15 22L15 21ZM35 21L35 22L36 22L36 21ZM0 22L0 23L1 23L1 24L2 24L2 23L1 23L1 22ZM24 22L24 23L25 23L25 22ZM51 22L51 23L52 23L52 22ZM5 23L5 24L7 24L7 25L6 25L6 26L7 26L7 25L9 25L9 24L7 24L7 23ZM30 24L30 25L31 25L31 24ZM47 24L47 25L46 25L46 26L47 26L47 27L48 27L48 26L49 26L49 25L48 25L48 24ZM24 25L24 26L23 26L23 27L22 27L22 28L23 28L23 27L24 27L24 28L25 28L25 27L24 27L24 26L25 26L25 25ZM47 25L47 26L48 26L48 25ZM5 27L5 30L8 30L8 27ZM9 27L9 30L12 30L12 29L13 29L13 28L12 28L12 29L11 29L11 27ZM27 27L27 30L30 30L30 27ZM49 27L49 30L52 30L52 27ZM54 27L54 28L53 28L53 29L55 29L55 27ZM6 28L6 29L7 29L7 28ZM28 28L28 29L29 29L29 28ZM46 28L46 29L45 29L45 30L46 30L46 34L45 34L45 35L46 35L46 36L45 36L45 37L46 37L46 38L45 38L45 39L46 39L46 38L47 38L47 40L45 40L45 41L44 41L44 43L46 43L46 42L47 42L47 44L46 44L46 47L45 47L45 49L46 49L46 51L45 51L45 53L46 53L46 51L47 51L47 52L48 52L48 51L47 51L47 49L46 49L46 48L47 48L47 46L48 46L48 45L49 45L49 47L50 47L50 46L51 46L51 45L52 45L52 47L51 47L51 48L52 48L52 47L54 47L54 48L53 48L53 49L54 49L54 48L55 48L55 47L54 47L54 46L53 46L53 45L52 45L52 44L53 44L53 41L54 41L54 40L52 40L52 39L53 39L53 38L54 38L54 36L53 36L53 37L52 37L52 39L51 39L51 40L48 40L48 37L50 37L50 38L51 38L51 36L50 36L50 33L49 33L49 36L48 36L48 35L46 35L46 34L48 34L48 33L47 33L47 29L48 29L48 28ZM50 28L50 29L51 29L51 28ZM22 29L22 30L23 30L23 29ZM34 29L34 31L33 31L33 33L34 33L34 35L35 35L35 33L36 33L36 31L37 31L37 32L38 32L38 31L37 31L37 30L36 30L36 29ZM13 30L13 31L11 31L11 32L8 32L8 31L4 31L4 32L3 32L3 33L5 33L5 34L7 34L7 33L6 33L6 32L8 32L8 33L10 33L10 35L12 35L12 37L11 37L11 38L10 38L10 40L11 40L11 38L13 38L13 37L14 37L14 36L13 36L13 35L12 35L12 33L11 33L11 32L13 32L13 33L14 33L14 30ZM54 30L54 32L55 32L55 31L56 31L56 30ZM16 31L16 32L17 32L17 33L18 33L18 31ZM49 31L49 32L50 32L50 31ZM1 32L1 33L2 33L2 32ZM34 32L34 33L35 33L35 32ZM27 33L27 34L28 34L28 33ZM27 35L27 36L28 36L28 37L29 37L29 36L28 36L28 35ZM22 36L22 37L23 37L23 36ZM41 36L41 37L42 37L42 36ZM46 36L46 37L48 37L48 36ZM3 37L3 39L4 39L4 37ZM26 37L26 38L27 38L27 37ZM35 37L35 38L34 38L34 41L35 41L35 38L36 38L36 37ZM6 38L6 39L7 39L7 38ZM17 38L17 39L18 39L18 40L17 40L17 41L16 41L16 42L17 42L17 41L18 41L18 40L19 40L19 39L18 39L18 38ZM20 38L20 39L21 39L21 38ZM24 38L24 39L25 39L25 38ZM28 38L28 39L29 39L29 38ZM26 39L26 40L25 40L25 41L26 41L26 42L25 42L25 43L24 43L24 44L25 44L25 45L26 45L26 46L24 46L24 47L23 47L23 48L24 48L24 47L26 47L26 46L28 46L28 45L27 45L27 44L29 44L29 45L31 45L31 46L30 46L30 47L31 47L31 48L32 48L32 49L33 49L33 48L32 48L32 45L31 45L31 44L30 44L30 43L31 43L31 41L30 41L30 40L27 40L27 39ZM37 39L37 41L38 41L38 39ZM22 40L22 41L23 41L23 40ZM47 40L47 41L48 41L48 40ZM51 40L51 41L49 41L49 42L48 42L48 44L47 44L47 45L48 45L48 44L49 44L49 42L50 42L50 45L51 45L51 44L52 44L52 40ZM28 41L28 42L27 42L27 43L28 43L28 42L29 42L29 43L30 43L30 41ZM42 41L42 42L43 42L43 41ZM45 41L45 42L46 42L46 41ZM20 43L20 45L21 45L21 43ZM22 43L22 44L23 44L23 43ZM5 44L5 45L6 45L6 46L7 46L7 47L8 47L8 46L7 46L7 45L6 45L6 44ZM16 45L16 46L17 46L17 45ZM9 47L9 48L10 48L10 47ZM10 49L10 50L11 50L11 51L10 51L10 53L11 53L11 55L12 55L12 56L15 56L15 53L14 53L14 49L13 49L13 50L11 50L11 49ZM18 49L18 50L19 50L19 49ZM27 49L27 52L30 52L30 49ZM40 49L40 51L41 51L41 52L42 52L42 51L41 51L41 49ZM49 49L49 52L52 52L52 49ZM28 50L28 51L29 51L29 50ZM50 50L50 51L51 51L51 50ZM12 52L12 53L13 53L13 52ZM35 52L35 53L34 53L34 54L35 54L35 53L36 53L36 54L37 54L37 53L36 53L36 52ZM43 52L43 53L42 53L42 54L43 54L43 55L44 55L44 56L45 56L45 55L46 55L46 54L45 54L45 55L44 55L44 52ZM56 52L56 53L57 53L57 52ZM53 53L53 54L54 54L54 53ZM12 54L12 55L14 55L14 54ZM16 54L16 55L17 55L17 54ZM24 54L24 55L25 55L25 54ZM36 56L36 57L37 57L37 56ZM56 56L56 57L57 57L57 56ZM0 0L0 7L7 7L7 0ZM1 1L1 6L6 6L6 1ZM2 2L2 5L5 5L5 2ZM50 0L50 7L57 7L57 0ZM51 1L51 6L56 6L56 1ZM52 2L52 5L55 5L55 2ZM0 50L0 57L7 57L7 50ZM1 51L1 56L6 56L6 51ZM2 52L2 55L5 55L5 52Z" fill="#000000"/></g></g></svg>
