<?xml version="1.0" encoding="UTF-8"?>
<svg xmlns="http://www.w3.org/2000/svg" version="1.1" width="300" height="300" viewBox="0 0 300 300"><rect x="0" y="0" width="300" height="300" fill="#fefefe"/><g transform="scale(4.615)"><g transform="translate(4,4)"><path fill-rule="evenodd" d="M8 0L8 2L9 2L9 0ZM10 0L10 1L12 1L12 3L11 3L11 5L13 5L13 6L12 6L12 7L11 7L11 6L10 6L10 7L9 7L9 5L10 5L10 3L9 3L9 4L8 4L8 9L7 9L7 8L5 8L5 9L3 9L3 8L0 8L0 9L2 9L2 12L3 12L3 13L5 13L5 14L4 14L4 17L3 17L3 19L4 19L4 20L2 20L2 21L1 21L1 22L0 22L0 24L2 24L2 27L1 27L1 28L0 28L0 29L1 29L1 30L0 30L0 31L1 31L1 30L3 30L3 31L7 31L7 32L6 32L6 33L8 33L8 34L5 34L5 33L4 33L4 32L1 32L1 33L0 33L0 34L1 34L1 35L0 35L0 36L1 36L1 37L0 37L0 41L1 41L1 42L0 42L0 48L5 48L5 47L7 47L7 48L6 48L6 49L8 49L8 50L12 50L12 51L8 51L8 52L9 52L9 53L10 53L10 54L8 54L8 57L10 57L10 56L14 56L14 55L15 55L15 56L16 56L16 57L17 57L17 55L18 55L18 57L20 57L20 56L19 56L19 55L18 55L18 54L19 54L19 52L20 52L20 53L21 53L21 52L22 52L22 53L23 53L23 56L22 56L22 54L20 54L20 55L21 55L21 56L22 56L22 57L25 57L25 55L26 55L26 57L28 57L28 55L29 55L29 57L33 57L33 55L30 55L30 54L31 54L31 53L32 53L32 54L34 54L34 57L35 57L35 55L38 55L38 53L39 53L39 56L40 56L40 57L42 57L42 56L43 56L43 54L42 54L42 53L41 53L41 51L42 51L42 52L44 52L44 55L45 55L45 56L44 56L44 57L48 57L48 56L49 56L49 57L50 57L50 55L49 55L49 54L52 54L52 55L53 55L53 53L57 53L57 49L56 49L56 47L57 47L57 45L56 45L56 47L55 47L55 45L54 45L54 46L52 46L52 45L51 45L51 44L52 44L52 39L53 39L53 40L54 40L54 41L53 41L53 44L54 44L54 43L55 43L55 44L56 44L56 43L57 43L57 42L56 42L56 41L57 41L57 40L54 40L54 39L53 39L53 38L54 38L54 37L55 37L55 38L57 38L57 36L54 36L54 34L53 34L53 36L51 36L51 33L50 33L50 31L51 31L51 32L52 32L52 31L53 31L53 33L56 33L56 35L57 35L57 33L56 33L56 31L57 31L57 29L56 29L56 28L57 28L57 24L56 24L56 23L57 23L57 21L56 21L56 23L55 23L55 24L54 24L54 22L55 22L55 21L54 21L54 19L55 19L55 18L56 18L56 19L57 19L57 13L56 13L56 11L57 11L57 10L56 10L56 9L57 9L57 8L55 8L55 9L54 9L54 10L52 10L52 12L51 12L51 11L50 11L50 13L49 13L49 14L48 14L48 11L46 11L46 8L47 8L47 10L48 10L48 8L49 8L49 9L53 9L53 8L49 8L49 6L48 6L48 8L47 8L47 5L48 5L48 0L46 0L46 1L47 1L47 2L45 2L45 4L44 4L44 2L43 2L43 3L42 3L42 1L45 1L45 0L42 0L42 1L41 1L41 0L38 0L38 3L39 3L39 4L38 4L38 5L39 5L39 4L40 4L40 2L41 2L41 3L42 3L42 7L41 7L41 6L40 6L40 7L41 7L41 8L40 8L40 9L41 9L41 10L42 10L42 12L41 12L41 11L40 11L40 10L38 10L38 8L39 8L39 6L38 6L38 7L37 7L37 6L36 6L36 10L34 10L34 9L35 9L35 4L36 4L36 3L35 3L35 2L37 2L37 1L35 1L35 0L34 0L34 2L33 2L33 4L34 4L34 5L33 5L33 6L32 6L32 7L33 7L33 6L34 6L34 8L32 8L32 9L31 9L31 5L32 5L32 1L33 1L33 0L32 0L32 1L31 1L31 0L30 0L30 1L31 1L31 2L30 2L30 3L31 3L31 4L28 4L28 2L27 2L27 0L26 0L26 1L25 1L25 0L24 0L24 1L23 1L23 0L19 0L19 1L18 1L18 3L17 3L17 0L16 0L16 1L15 1L15 0L14 0L14 3L13 3L13 0ZM28 0L28 1L29 1L29 0ZM21 1L21 2L20 2L20 3L18 3L18 5L19 5L19 7L20 7L20 5L21 5L21 9L20 9L20 10L21 10L21 13L20 13L20 12L19 12L19 11L18 11L18 12L19 12L19 13L18 13L18 14L19 14L19 13L20 13L20 14L22 14L22 16L24 16L24 18L26 18L26 16L27 16L27 19L26 19L26 20L27 20L27 22L26 22L26 23L27 23L27 25L26 25L26 26L28 26L28 22L29 22L29 21L28 21L28 20L29 20L29 19L31 19L31 17L32 17L32 16L33 16L33 17L34 17L34 18L33 18L33 19L34 19L34 20L33 20L33 21L32 21L32 20L30 20L30 22L33 22L33 24L34 24L34 26L33 26L33 25L32 25L32 23L30 23L30 24L29 24L29 26L31 26L31 25L32 25L32 27L31 27L31 30L32 30L32 31L31 31L31 32L30 32L30 34L31 34L31 35L28 35L28 34L29 34L29 31L28 31L28 32L26 32L26 30L25 30L25 29L24 29L24 28L25 28L25 25L24 25L24 24L23 24L23 25L24 25L24 26L23 26L23 27L22 27L22 28L23 28L23 29L22 29L22 30L21 30L21 26L22 26L22 23L23 23L23 22L22 22L22 23L20 23L20 22L21 22L21 21L20 21L20 19L22 19L22 20L23 20L23 19L22 19L22 18L21 18L21 17L20 17L20 19L19 19L19 17L18 17L18 16L21 16L21 15L18 15L18 16L17 16L17 15L15 15L15 14L17 14L17 12L14 12L14 11L15 11L15 9L14 9L14 8L16 8L16 11L17 11L17 10L19 10L19 9L18 9L18 6L17 6L17 5L16 5L16 6L15 6L15 7L14 7L14 6L13 6L13 7L12 7L12 8L11 8L11 9L8 9L8 11L6 11L6 10L7 10L7 9L6 9L6 10L5 10L5 11L4 11L4 12L5 12L5 11L6 11L6 12L8 12L8 13L6 13L6 14L5 14L5 15L6 15L6 16L5 16L5 17L4 17L4 19L5 19L5 20L4 20L4 23L5 23L5 24L3 24L3 26L5 26L5 25L6 25L6 26L8 26L8 25L6 25L6 24L7 24L7 23L5 23L5 22L8 22L8 23L9 23L9 22L10 22L10 23L11 23L11 24L12 24L12 25L14 25L14 24L15 24L15 23L14 23L14 24L12 24L12 23L11 23L11 22L10 22L10 20L11 20L11 21L12 21L12 22L13 22L13 18L14 18L14 16L15 16L15 17L16 17L16 18L15 18L15 19L14 19L14 20L15 20L15 19L16 19L16 20L17 20L17 21L18 21L18 22L16 22L16 23L18 23L18 22L19 22L19 24L20 24L20 28L18 28L18 27L19 27L19 25L18 25L18 24L17 24L17 25L16 25L16 26L17 26L17 27L16 27L16 28L14 28L14 31L15 31L15 32L13 32L13 33L12 33L12 32L11 32L11 31L10 31L10 30L12 30L12 29L13 29L13 28L12 28L12 27L13 27L13 26L12 26L12 27L11 27L11 26L10 26L10 27L9 27L9 28L10 28L10 30L9 30L9 31L8 31L8 32L9 32L9 34L8 34L8 35L6 35L6 36L7 36L7 37L6 37L6 38L7 38L7 37L9 37L9 39L10 39L10 41L12 41L12 40L11 40L11 39L13 39L13 38L14 38L14 40L13 40L13 42L8 42L8 44L7 44L7 43L6 43L6 42L7 42L7 41L8 41L8 40L7 40L7 39L6 39L6 40L7 40L7 41L4 41L4 42L3 42L3 43L2 43L2 42L1 42L1 44L2 44L2 45L1 45L1 47L2 47L2 45L3 45L3 47L5 47L5 45L6 45L6 46L8 46L8 47L9 47L9 48L8 48L8 49L12 49L12 48L10 48L10 47L12 47L12 46L14 46L14 45L16 45L16 46L17 46L17 47L16 47L16 48L15 48L15 47L13 47L13 49L16 49L16 50L15 50L15 51L16 51L16 52L17 52L17 54L16 54L16 55L17 55L17 54L18 54L18 52L19 52L19 51L20 51L20 50L22 50L22 48L23 48L23 49L24 49L24 51L23 51L23 52L24 52L24 51L25 51L25 53L26 53L26 55L28 55L28 53L26 53L26 50L25 50L25 49L26 49L26 48L27 48L27 47L28 47L28 48L31 48L31 47L32 47L32 46L33 46L33 45L34 45L34 47L35 47L35 49L34 49L34 48L33 48L33 49L34 49L34 52L33 52L33 53L34 53L34 54L35 54L35 53L36 53L36 54L37 54L37 53L36 53L36 52L35 52L35 51L37 51L37 49L36 49L36 48L37 48L37 47L38 47L38 52L39 52L39 53L40 53L40 52L39 52L39 49L40 49L40 51L41 51L41 49L42 49L42 50L43 50L43 51L45 51L45 52L46 52L46 56L48 56L48 54L49 54L49 53L47 53L47 52L48 52L48 51L47 51L47 48L46 48L46 47L47 47L47 46L49 46L49 47L50 47L50 48L53 48L53 47L52 47L52 46L51 46L51 47L50 47L50 45L47 45L47 44L48 44L48 43L49 43L49 44L50 44L50 42L49 42L49 41L51 41L51 40L50 40L50 37L49 37L49 38L47 38L47 37L46 37L46 38L45 38L45 41L44 41L44 42L43 42L43 41L42 41L42 39L43 39L43 38L44 38L44 35L43 35L43 33L42 33L42 31L43 31L43 29L44 29L44 30L46 30L46 31L45 31L45 32L46 32L46 31L47 31L47 30L48 30L48 26L49 26L49 25L50 25L50 26L51 26L51 25L52 25L52 23L53 23L53 22L54 22L54 21L53 21L53 22L52 22L52 20L53 20L53 19L54 19L54 16L55 16L55 17L56 17L56 16L55 16L55 15L56 15L56 13L55 13L55 11L56 11L56 10L55 10L55 11L54 11L54 12L53 12L53 13L54 13L54 14L55 14L55 15L54 15L54 16L53 16L53 14L52 14L52 13L50 13L50 16L51 16L51 17L50 17L50 18L49 18L49 17L48 17L48 18L47 18L47 15L48 15L48 14L47 14L47 13L46 13L46 11L45 11L45 9L44 9L44 8L46 8L46 5L47 5L47 3L46 3L46 4L45 4L45 5L44 5L44 4L43 4L43 5L44 5L44 6L43 6L43 7L42 7L42 8L43 8L43 9L42 9L42 10L43 10L43 11L44 11L44 12L42 12L42 15L41 15L41 17L42 17L42 18L43 18L43 17L44 17L44 19L43 19L43 20L42 20L42 19L41 19L41 18L40 18L40 14L41 14L41 13L40 13L40 14L39 14L39 12L37 12L37 11L36 11L36 12L35 12L35 11L34 11L34 10L33 10L33 9L32 9L32 11L31 11L31 12L30 12L30 11L29 11L29 9L27 9L27 10L25 10L25 9L26 9L26 5L24 5L24 6L23 6L23 5L21 5L21 2L22 2L22 4L23 4L23 1ZM24 1L24 4L25 4L25 1ZM39 1L39 2L40 2L40 1ZM15 2L15 3L14 3L14 4L15 4L15 3L16 3L16 4L17 4L17 3L16 3L16 2ZM26 3L26 4L27 4L27 3ZM34 3L34 4L35 4L35 3ZM27 5L27 8L30 8L30 5ZM16 6L16 7L17 7L17 6ZM22 6L22 9L21 9L21 10L22 10L22 9L23 9L23 6ZM24 6L24 7L25 7L25 6ZM28 6L28 7L29 7L29 6ZM44 6L44 7L43 7L43 8L44 8L44 7L45 7L45 6ZM13 7L13 8L12 8L12 10L10 10L10 11L9 11L9 13L8 13L8 14L6 14L6 15L9 15L9 14L11 14L11 15L10 15L10 16L11 16L11 17L10 17L10 18L8 18L8 17L7 17L7 16L6 16L6 17L7 17L7 18L6 18L6 19L9 19L9 20L10 20L10 19L11 19L11 18L13 18L13 16L14 16L14 15L13 15L13 14L12 14L12 13L13 13L13 8L14 8L14 7ZM30 9L30 10L31 10L31 9ZM43 9L43 10L44 10L44 9ZM0 10L0 12L1 12L1 10ZM24 10L24 12L25 12L25 13L26 13L26 11L25 11L25 10ZM22 11L22 12L23 12L23 11ZM28 11L28 12L27 12L27 14L26 14L26 15L25 15L25 14L24 14L24 15L25 15L25 16L26 16L26 15L27 15L27 14L28 14L28 15L29 15L29 16L30 16L30 17L28 17L28 18L30 18L30 17L31 17L31 16L30 16L30 15L29 15L29 13L30 13L30 12L29 12L29 11ZM33 11L33 12L32 12L32 14L33 14L33 15L34 15L34 17L35 17L35 15L36 15L36 18L34 18L34 19L35 19L35 20L36 20L36 21L35 21L35 22L34 22L34 21L33 21L33 22L34 22L34 24L36 24L36 26L37 26L37 27L36 27L36 29L35 29L35 27L34 27L34 29L33 29L33 28L32 28L32 29L33 29L33 31L32 31L32 33L31 33L31 34L32 34L32 35L31 35L31 36L30 36L30 40L31 40L31 38L34 38L34 41L33 41L33 40L32 40L32 43L31 43L31 42L30 42L30 41L29 41L29 40L27 40L27 39L26 39L26 40L25 40L25 41L26 41L26 42L24 42L24 41L23 41L23 40L22 40L22 41L21 41L21 39L20 39L20 38L21 38L21 36L19 36L19 35L22 35L22 38L23 38L23 35L25 35L25 36L24 36L24 37L26 37L26 38L27 38L27 37L26 37L26 36L28 36L28 37L29 37L29 36L28 36L28 35L26 35L26 34L24 34L24 29L23 29L23 30L22 30L22 33L23 33L23 34L20 34L20 33L21 33L21 30L20 30L20 33L19 33L19 30L18 30L18 33L17 33L17 35L18 35L18 36L16 36L16 35L15 35L15 34L13 34L13 35L12 35L12 33L10 33L10 34L11 34L11 36L10 36L10 39L11 39L11 36L12 36L12 38L13 38L13 37L14 37L14 38L15 38L15 36L16 36L16 37L17 37L17 38L16 38L16 39L17 39L17 40L15 40L15 43L16 43L16 44L17 44L17 46L18 46L18 47L19 47L19 48L18 48L18 49L17 49L17 48L16 48L16 49L17 49L17 50L16 50L16 51L17 51L17 52L18 52L18 51L19 51L19 50L20 50L20 49L19 49L19 48L20 48L20 47L21 47L21 48L22 48L22 46L20 46L20 47L19 47L19 46L18 46L18 45L19 45L19 44L21 44L21 42L22 42L22 41L23 41L23 42L24 42L24 43L25 43L25 44L23 44L23 43L22 43L22 44L23 44L23 47L24 47L24 45L26 45L26 46L25 46L25 47L26 47L26 46L28 46L28 47L29 47L29 46L30 46L30 47L31 47L31 46L32 46L32 45L33 45L33 44L36 44L36 45L35 45L35 47L36 47L36 45L37 45L37 46L38 46L38 45L37 45L37 44L40 44L40 45L39 45L39 46L41 46L41 47L40 47L40 49L41 49L41 47L42 47L42 45L43 45L43 44L42 44L42 45L41 45L41 44L40 44L40 42L41 42L41 43L43 43L43 42L42 42L42 41L41 41L41 40L40 40L40 42L39 42L39 43L37 43L37 44L36 44L36 41L37 41L37 42L38 42L38 41L39 41L39 39L38 39L38 37L39 37L39 38L40 38L40 39L42 39L42 36L43 36L43 35L42 35L42 36L41 36L41 35L40 35L40 36L38 36L38 35L39 35L39 34L38 34L38 33L39 33L39 32L40 32L40 34L42 34L42 33L41 33L41 32L40 32L40 31L42 31L42 28L44 28L44 29L46 29L46 28L47 28L47 26L48 26L48 25L49 25L49 23L50 23L50 22L48 22L48 21L47 21L47 20L48 20L48 19L46 19L46 20L45 20L45 19L44 19L44 21L43 21L43 22L42 22L42 20L41 20L41 19L40 19L40 18L38 18L38 16L37 16L37 15L38 15L38 13L37 13L37 12L36 12L36 14L35 14L35 15L34 15L34 13L35 13L35 12L34 12L34 11ZM11 12L11 13L12 13L12 12ZM44 12L44 13L43 13L43 14L44 14L44 15L43 15L43 16L44 16L44 17L45 17L45 18L46 18L46 17L45 17L45 16L46 16L46 13L45 13L45 12ZM1 14L1 15L2 15L2 14ZM36 14L36 15L37 15L37 14ZM51 14L51 16L52 16L52 18L53 18L53 16L52 16L52 14ZM12 15L12 16L13 16L13 15ZM44 15L44 16L45 16L45 15ZM1 16L1 17L0 17L0 18L1 18L1 19L0 19L0 20L1 20L1 19L2 19L2 18L1 18L1 17L2 17L2 16ZM17 17L17 18L16 18L16 19L17 19L17 20L18 20L18 21L19 21L19 19L18 19L18 17ZM36 18L36 19L37 19L37 18ZM50 18L50 19L49 19L49 20L51 20L51 18ZM24 19L24 20L25 20L25 19ZM39 19L39 21L38 21L38 20L37 20L37 21L36 21L36 22L35 22L35 23L36 23L36 24L37 24L37 25L38 25L38 26L39 26L39 29L38 29L38 28L37 28L37 29L36 29L36 31L35 31L35 29L34 29L34 32L35 32L35 33L34 33L34 35L33 35L33 36L34 36L34 38L35 38L35 41L34 41L34 42L35 42L35 41L36 41L36 38L37 38L37 37L36 37L36 35L38 35L38 34L37 34L37 33L36 33L36 31L37 31L37 32L38 32L38 31L40 31L40 30L39 30L39 29L40 29L40 28L41 28L41 25L40 25L40 24L39 24L39 23L41 23L41 24L42 24L42 27L44 27L44 26L45 26L45 27L46 27L46 26L47 26L47 24L48 24L48 22L47 22L47 21L46 21L46 23L44 23L44 22L45 22L45 21L44 21L44 22L43 22L43 24L42 24L42 23L41 23L41 22L40 22L40 19ZM6 20L6 21L8 21L8 22L9 22L9 21L8 21L8 20ZM2 21L2 22L3 22L3 21ZM14 21L14 22L15 22L15 21ZM37 21L37 22L36 22L36 23L37 23L37 22L38 22L38 23L39 23L39 22L38 22L38 21ZM24 22L24 23L25 23L25 22ZM51 22L51 23L52 23L52 22ZM46 23L46 24L44 24L44 25L45 25L45 26L46 26L46 24L47 24L47 23ZM30 24L30 25L31 25L31 24ZM50 24L50 25L51 25L51 24ZM53 24L53 25L54 25L54 26L55 26L55 27L54 27L54 28L53 28L53 29L54 29L54 30L53 30L53 31L54 31L54 32L55 32L55 31L56 31L56 30L55 30L55 28L56 28L56 24L55 24L55 25L54 25L54 24ZM0 25L0 26L1 26L1 25ZM17 25L17 26L18 26L18 25ZM39 25L39 26L40 26L40 25ZM3 27L3 29L4 29L4 27ZM5 27L5 30L8 30L8 27ZM23 27L23 28L24 28L24 27ZM27 27L27 30L30 30L30 27ZM49 27L49 30L52 30L52 27ZM6 28L6 29L7 29L7 28ZM28 28L28 29L29 29L29 28ZM50 28L50 29L51 29L51 28ZM15 30L15 31L16 31L16 32L17 32L17 31L16 31L16 30ZM37 30L37 31L38 31L38 30ZM54 30L54 31L55 31L55 30ZM25 32L25 33L26 33L26 32ZM2 33L2 35L1 35L1 36L2 36L2 35L3 35L3 36L5 36L5 34L4 34L4 33ZM18 33L18 35L19 35L19 33ZM27 33L27 34L28 34L28 33ZM32 33L32 34L33 34L33 33ZM35 33L35 35L34 35L34 36L35 36L35 35L36 35L36 33ZM46 33L46 34L45 34L45 36L46 36L46 34L48 34L48 35L47 35L47 36L48 36L48 35L49 35L49 36L50 36L50 33L49 33L49 34L48 34L48 33ZM31 36L31 37L32 37L32 36ZM53 36L53 37L52 37L52 38L51 38L51 39L52 39L52 38L53 38L53 37L54 37L54 36ZM3 37L3 38L2 38L2 40L1 40L1 41L3 41L3 39L4 39L4 38L5 38L5 37ZM35 37L35 38L36 38L36 37ZM18 38L18 40L17 40L17 41L16 41L16 43L17 43L17 41L18 41L18 40L19 40L19 38ZM24 38L24 39L25 39L25 38ZM28 38L28 39L29 39L29 38ZM46 38L46 41L45 41L45 42L46 42L46 43L45 43L45 44L44 44L44 46L43 46L43 47L44 47L44 49L43 49L43 50L44 50L44 49L45 49L45 51L46 51L46 52L47 52L47 51L46 51L46 48L45 48L45 47L46 47L46 44L47 44L47 42L46 42L46 41L48 41L48 40L49 40L49 39L48 39L48 40L47 40L47 38ZM37 39L37 41L38 41L38 39ZM20 41L20 42L19 42L19 43L18 43L18 44L19 44L19 43L20 43L20 42L21 42L21 41ZM28 41L28 42L27 42L27 43L28 43L28 42L29 42L29 43L30 43L30 44L31 44L31 45L32 45L32 44L31 44L31 43L30 43L30 42L29 42L29 41ZM54 41L54 42L55 42L55 43L56 43L56 42L55 42L55 41ZM13 42L13 43L12 43L12 44L13 44L13 43L14 43L14 42ZM3 43L3 44L6 44L6 45L7 45L7 44L6 44L6 43ZM8 44L8 45L9 45L9 46L11 46L11 44ZM28 45L28 46L29 46L29 45ZM44 46L44 47L45 47L45 46ZM54 47L54 48L55 48L55 47ZM18 49L18 50L19 50L19 49ZM27 49L27 52L30 52L30 49ZM49 49L49 52L52 52L52 49ZM54 49L54 50L53 50L53 51L54 51L54 52L56 52L56 51L55 51L55 49ZM13 50L13 51L12 51L12 52L10 52L10 53L11 53L11 54L10 54L10 55L9 55L9 56L10 56L10 55L11 55L11 54L13 54L13 55L14 55L14 54L15 54L15 52L14 52L14 50ZM28 50L28 51L29 51L29 50ZM31 50L31 52L32 52L32 50ZM50 50L50 51L51 51L51 50ZM13 53L13 54L14 54L14 53ZM24 54L24 55L25 55L25 54ZM40 54L40 55L41 55L41 54ZM54 54L54 55L57 55L57 54ZM36 56L36 57L37 57L37 56ZM51 56L51 57L53 57L53 56ZM56 56L56 57L57 57L57 56ZM0 0L0 7L7 7L7 0ZM1 1L1 6L6 6L6 1ZM2 2L2 5L5 5L5 2ZM50 0L50 7L57 7L57 0ZM51 1L51 6L56 6L56 1ZM52 2L52 5L55 5L55 2ZM0 50L0 57L7 57L7 50ZM1 51L1 56L6 56L6 51ZM2 52L2 55L5 55L5 52Z" fill="#000000"/></g></g></svg>
