<?xml version="1.0" encoding="UTF-8"?>
<svg xmlns="http://www.w3.org/2000/svg" version="1.1" width="300" height="300" viewBox="0 0 300 300"><rect x="0" y="0" width="300" height="300" fill="#fefefe"/><g transform="scale(4.615)"><g transform="translate(4,4)"><path fill-rule="evenodd" d="M8 0L8 4L9 4L9 5L8 5L8 7L9 7L9 8L10 8L10 9L9 9L9 10L8 10L8 11L9 11L9 10L11 10L11 9L13 9L13 8L14 8L14 10L12 10L12 11L11 11L11 13L12 13L12 11L14 11L14 12L15 12L15 13L13 13L13 14L12 14L12 15L11 15L11 14L10 14L10 13L8 13L8 14L10 14L10 16L9 16L9 17L10 17L10 18L12 18L12 19L9 19L9 20L8 20L8 22L5 22L5 23L8 23L8 24L9 24L9 25L8 25L8 26L5 26L5 24L3 24L3 23L2 23L2 21L0 21L0 23L2 23L2 25L1 25L1 24L0 24L0 27L2 27L2 25L4 25L4 26L3 26L3 29L2 29L2 28L1 28L1 29L2 29L2 30L3 30L3 31L1 31L1 30L0 30L0 31L1 31L1 32L4 32L4 33L3 33L3 34L2 34L2 33L0 33L0 34L1 34L1 35L0 35L0 37L1 37L1 39L0 39L0 40L1 40L1 39L2 39L2 36L3 36L3 34L4 34L4 33L5 33L5 32L6 32L6 33L7 33L7 32L6 32L6 31L8 31L8 33L9 33L9 34L10 34L10 37L11 37L11 38L9 38L9 36L6 36L6 35L8 35L8 34L5 34L5 36L4 36L4 37L3 37L3 38L4 38L4 37L5 37L5 38L6 38L6 39L7 39L7 40L5 40L5 39L4 39L4 40L5 40L5 41L4 41L4 42L5 42L5 41L7 41L7 42L6 42L6 43L7 43L7 42L8 42L8 41L7 41L7 40L9 40L9 39L10 39L10 41L11 41L11 42L9 42L9 43L8 43L8 44L5 44L5 45L7 45L7 46L5 46L5 47L3 47L3 45L4 45L4 44L3 44L3 43L2 43L2 44L3 44L3 45L1 45L1 43L0 43L0 48L5 48L5 47L7 47L7 48L6 48L6 49L7 49L7 48L8 48L8 47L7 47L7 46L8 46L8 45L9 45L9 46L10 46L10 47L9 47L9 49L8 49L8 50L9 50L9 51L8 51L8 53L9 53L9 55L8 55L8 57L11 57L11 56L12 56L12 55L11 55L11 56L9 56L9 55L10 55L10 53L11 53L11 54L12 54L12 52L11 52L11 48L12 48L12 50L14 50L14 51L13 51L13 54L14 54L14 55L13 55L13 57L14 57L14 55L16 55L16 54L17 54L17 57L19 57L19 55L20 55L20 54L22 54L22 51L23 51L23 52L24 52L24 53L23 53L23 55L24 55L24 56L23 56L23 57L25 57L25 55L26 55L26 53L28 53L28 57L29 57L29 55L30 55L30 57L34 57L34 55L35 55L35 57L37 57L37 56L36 56L36 54L37 54L37 53L38 53L38 55L39 55L39 57L40 57L40 56L41 56L41 55L40 55L40 54L43 54L43 55L42 55L42 56L44 56L44 57L45 57L45 56L46 56L46 57L48 57L48 55L47 55L47 54L46 54L46 53L47 53L47 52L48 52L48 54L49 54L49 57L50 57L50 55L51 55L51 56L53 56L53 55L55 55L55 54L57 54L57 52L56 52L56 50L57 50L57 49L56 49L56 45L57 45L57 44L56 44L56 45L54 45L54 44L53 44L53 43L54 43L54 42L55 42L55 43L56 43L56 41L57 41L57 40L52 40L52 41L51 41L51 43L50 43L50 42L49 42L49 41L48 41L48 42L49 42L49 43L48 43L48 44L49 44L49 45L50 45L50 44L51 44L51 47L48 47L48 46L47 46L47 47L46 47L46 45L47 45L47 44L46 44L46 45L45 45L45 44L44 44L44 45L43 45L43 44L42 44L42 42L43 42L43 43L44 43L44 41L45 41L45 43L46 43L46 41L47 41L47 40L49 40L49 39L50 39L50 40L51 40L51 39L57 39L57 38L55 38L55 37L56 37L56 36L53 36L53 35L56 35L56 34L57 34L57 33L56 33L56 30L55 30L55 29L57 29L57 27L55 27L55 29L54 29L54 28L53 28L53 27L54 27L54 26L55 26L55 25L54 25L54 23L55 23L55 24L56 24L56 25L57 25L57 24L56 24L56 21L57 21L57 19L56 19L56 18L55 18L55 19L56 19L56 21L55 21L55 22L54 22L54 21L52 21L52 20L53 20L53 19L49 19L49 20L51 20L51 21L47 21L47 20L46 20L46 19L45 19L45 18L46 18L46 16L47 16L47 15L46 15L46 9L48 9L48 11L47 11L47 12L49 12L49 9L48 9L48 8L49 8L49 6L48 6L48 8L47 8L47 5L48 5L48 0L46 0L46 1L45 1L45 0L41 0L41 1L40 1L40 2L39 2L39 3L40 3L40 4L38 4L38 3L37 3L37 2L38 2L38 1L39 1L39 0L38 0L38 1L37 1L37 2L36 2L36 0L35 0L35 1L34 1L34 0L33 0L33 1L34 1L34 4L35 4L35 5L32 5L32 3L33 3L33 2L32 2L32 3L31 3L31 2L27 2L27 3L28 3L28 4L26 4L26 3L25 3L25 2L26 2L26 1L27 1L27 0L26 0L26 1L25 1L25 0L23 0L23 2L22 2L22 1L21 1L21 0L20 0L20 1L17 1L17 2L18 2L18 3L20 3L20 2L22 2L22 4L23 4L23 3L25 3L25 4L24 4L24 5L23 5L23 6L22 6L22 5L21 5L21 6L20 6L20 5L19 5L19 4L17 4L17 3L16 3L16 0L14 0L14 1L11 1L11 2L10 2L10 1L9 1L9 0ZM28 0L28 1L32 1L32 0ZM14 1L14 4L15 4L15 5L16 5L16 6L15 6L15 7L16 7L16 6L17 6L17 8L19 8L19 7L20 7L20 6L19 6L19 5L18 5L18 6L17 6L17 4L16 4L16 3L15 3L15 1ZM46 1L46 2L47 2L47 1ZM9 2L9 3L10 3L10 4L11 4L11 5L13 5L13 7L12 7L12 6L11 6L11 7L10 7L10 6L9 6L9 7L10 7L10 8L13 8L13 7L14 7L14 5L13 5L13 2L11 2L11 3L10 3L10 2ZM35 2L35 4L36 4L36 5L35 5L35 7L34 7L34 6L33 6L33 7L32 7L32 6L31 6L31 10L28 10L28 9L26 9L26 6L25 6L25 7L24 7L24 6L23 6L23 7L24 7L24 8L22 8L22 10L20 10L20 9L16 9L16 10L15 10L15 12L17 12L17 13L15 13L15 14L17 14L17 13L18 13L18 12L19 12L19 16L20 16L20 17L19 17L19 18L17 18L17 17L16 17L16 16L15 16L15 17L16 17L16 19L17 19L17 20L15 20L15 18L13 18L13 17L14 17L14 14L13 14L13 16L12 16L12 18L13 18L13 19L12 19L12 21L13 21L13 23L15 23L15 25L13 25L13 24L12 24L12 23L11 23L11 22L8 22L8 23L9 23L9 24L10 24L10 27L9 27L9 29L10 29L10 31L12 31L12 32L11 32L11 33L10 33L10 34L11 34L11 36L12 36L12 34L14 34L14 33L13 33L13 32L15 32L15 33L16 33L16 34L15 34L15 35L17 35L17 34L18 34L18 36L21 36L21 35L23 35L23 33L25 33L25 32L26 32L26 31L24 31L24 32L23 32L23 31L22 31L22 30L23 30L23 28L22 28L22 27L21 27L21 26L22 26L22 25L24 25L24 23L23 23L23 21L24 21L24 22L25 22L25 23L26 23L26 22L28 22L28 23L31 23L31 27L32 27L32 28L31 28L31 31L32 31L32 32L30 32L30 31L28 31L28 32L29 32L29 33L28 33L28 34L27 34L27 33L26 33L26 35L27 35L27 36L28 36L28 37L27 37L27 39L28 39L28 38L29 38L29 39L31 39L31 41L32 41L32 43L33 43L33 44L37 44L37 46L38 46L38 45L39 45L39 46L40 46L40 51L39 51L39 52L38 52L38 53L39 53L39 52L40 52L40 53L44 53L44 56L45 56L45 55L46 55L46 56L47 56L47 55L46 55L46 54L45 54L45 53L44 53L44 52L43 52L43 50L44 50L44 51L45 51L45 52L47 52L47 51L45 51L45 49L46 49L46 50L47 50L47 49L48 49L48 47L47 47L47 49L46 49L46 48L45 48L45 49L44 49L44 47L45 47L45 46L44 46L44 47L42 47L42 49L43 49L43 50L42 50L42 52L41 52L41 46L40 46L40 45L41 45L41 44L40 44L40 42L39 42L39 44L37 44L37 43L33 43L33 41L32 41L32 40L33 40L33 39L31 39L31 38L33 38L33 37L32 37L32 36L31 36L31 34L30 34L30 36L31 36L31 37L29 37L29 36L28 36L28 34L29 34L29 33L32 33L32 34L33 34L33 36L35 36L35 29L36 29L36 26L37 26L37 27L40 27L40 26L41 26L41 28L40 28L40 29L43 29L43 30L44 30L44 31L45 31L45 30L46 30L46 31L47 31L47 32L45 32L45 33L43 33L43 35L42 35L42 34L40 34L40 33L41 33L41 32L40 32L40 30L39 30L39 32L40 32L40 33L39 33L39 34L38 34L38 33L37 33L37 34L38 34L38 35L40 35L40 36L39 36L39 37L41 37L41 39L42 39L42 40L40 40L40 38L38 38L38 36L37 36L37 38L35 38L35 37L34 37L34 38L35 38L35 39L34 39L34 42L35 42L35 39L37 39L37 42L38 42L38 39L39 39L39 40L40 40L40 41L44 41L44 39L45 39L45 41L46 41L46 40L47 40L47 39L49 39L49 37L50 37L50 39L51 39L51 37L52 37L52 38L54 38L54 37L53 37L53 36L51 36L51 37L50 37L50 35L53 35L53 34L54 34L54 33L51 33L51 32L52 32L52 31L51 31L51 32L50 32L50 31L49 31L49 32L50 32L50 35L49 35L49 33L48 33L48 31L47 31L47 30L48 30L48 27L45 27L45 30L44 30L44 29L43 29L43 28L42 28L42 25L41 25L41 22L40 22L40 21L43 21L43 22L44 22L44 23L42 23L42 24L43 24L43 25L44 25L44 24L45 24L45 22L44 22L44 16L45 16L45 14L44 14L44 12L45 12L45 11L43 11L43 10L44 10L44 8L45 8L45 9L46 9L46 5L47 5L47 3L44 3L44 2L43 2L43 3L42 3L42 2L40 2L40 3L41 3L41 4L43 4L43 5L42 5L42 6L41 6L41 5L39 5L39 8L38 8L38 6L37 6L37 8L38 8L38 9L35 9L35 7L36 7L36 5L38 5L38 4L37 4L37 3L36 3L36 2ZM11 3L11 4L12 4L12 3ZM43 3L43 4L44 4L44 7L45 7L45 4L44 4L44 3ZM27 5L27 8L30 8L30 5ZM18 6L18 7L19 7L19 6ZM21 6L21 7L22 7L22 6ZM28 6L28 7L29 7L29 6ZM40 6L40 8L39 8L39 9L38 9L38 10L37 10L37 12L35 12L35 11L36 11L36 10L34 10L34 9L33 9L33 8L34 8L34 7L33 7L33 8L32 8L32 11L29 11L29 12L32 12L32 17L31 17L31 16L29 16L29 13L27 13L27 14L26 14L26 11L27 11L27 12L28 12L28 10L25 10L25 8L24 8L24 9L23 9L23 11L24 11L24 12L22 12L22 11L21 11L21 12L20 12L20 11L19 11L19 12L20 12L20 14L21 14L21 15L20 15L20 16L21 16L21 15L22 15L22 16L23 16L23 15L22 15L22 14L21 14L21 13L23 13L23 14L25 14L25 17L20 17L20 18L19 18L19 19L18 19L18 20L17 20L17 21L15 21L15 20L14 20L14 19L13 19L13 21L14 21L14 22L15 22L15 23L16 23L16 22L17 22L17 26L18 26L18 27L17 27L17 28L16 28L16 25L15 25L15 27L14 27L14 26L13 26L13 25L12 25L12 24L11 24L11 23L10 23L10 24L11 24L11 26L13 26L13 27L12 27L12 28L11 28L11 27L10 27L10 28L11 28L11 30L13 30L13 31L16 31L16 32L17 32L17 33L18 33L18 34L19 34L19 33L20 33L20 35L21 35L21 33L22 33L22 31L20 31L20 32L19 32L19 31L17 31L17 30L15 30L15 29L18 29L18 30L19 30L19 29L18 29L18 28L19 28L19 27L20 27L20 26L21 26L21 25L22 25L22 22L21 22L21 21L22 21L22 19L20 19L20 18L23 18L23 19L24 19L24 18L25 18L25 20L24 20L24 21L25 21L25 20L26 20L26 21L28 21L28 22L33 22L33 23L32 23L32 27L33 27L33 28L32 28L32 29L33 29L33 31L34 31L34 27L33 27L33 26L34 26L34 25L37 25L37 24L34 24L34 23L35 23L35 22L37 22L37 20L38 20L38 23L39 23L39 21L40 21L40 18L41 18L41 20L43 20L43 19L42 19L42 18L43 18L43 17L42 17L42 15L43 15L43 16L44 16L44 14L43 14L43 13L41 13L41 17L40 17L40 15L39 15L39 14L40 14L40 13L38 13L38 15L39 15L39 17L38 17L38 16L37 16L37 15L36 15L36 14L35 14L35 17L38 17L38 18L39 18L39 19L37 19L37 18L34 18L34 13L33 13L33 10L34 10L34 12L35 12L35 13L37 13L37 12L39 12L39 11L41 11L41 12L43 12L43 11L42 11L42 10L43 10L43 8L42 8L42 9L40 9L40 8L41 8L41 6ZM42 6L42 7L43 7L43 6ZM0 8L0 9L1 9L1 10L2 10L2 13L1 13L1 11L0 11L0 14L1 14L1 17L0 17L0 20L1 20L1 19L3 19L3 20L4 20L4 21L5 21L5 19L4 19L4 17L5 17L5 15L7 15L7 14L6 14L6 13L7 13L7 12L6 12L6 11L7 11L7 10L6 10L6 11L5 11L5 12L3 12L3 11L4 11L4 10L5 10L5 9L7 9L7 8L4 8L4 9L2 9L2 8ZM51 8L51 9L50 9L50 15L48 15L48 17L47 17L47 19L48 19L48 18L49 18L49 17L50 17L50 18L51 18L51 17L52 17L52 18L53 18L53 17L52 17L52 16L53 16L53 15L52 15L52 14L55 14L55 16L56 16L56 17L57 17L57 15L56 15L56 13L57 13L57 11L56 11L56 10L57 10L57 8L53 8L53 9L52 9L52 8ZM51 9L51 10L52 10L52 9ZM53 9L53 10L54 10L54 11L52 11L52 12L51 12L51 14L52 14L52 13L53 13L53 12L54 12L54 13L55 13L55 12L56 12L56 11L55 11L55 9ZM16 10L16 11L18 11L18 10ZM38 10L38 11L39 11L39 10ZM5 12L5 13L4 13L4 15L3 15L3 14L2 14L2 15L3 15L3 17L4 17L4 15L5 15L5 13L6 13L6 12ZM30 13L30 15L31 15L31 13ZM47 13L47 14L49 14L49 13ZM27 14L27 15L26 15L26 17L25 17L25 18L26 18L26 20L27 20L27 19L29 19L29 20L28 20L28 21L30 21L30 20L31 20L31 21L32 21L32 20L31 20L31 19L32 19L32 18L33 18L33 17L32 17L32 18L31 18L31 19L30 19L30 18L28 18L28 17L27 17L27 15L28 15L28 14ZM50 15L50 16L51 16L51 15ZM6 16L6 17L8 17L8 16ZM1 17L1 18L2 18L2 17ZM39 17L39 18L40 18L40 17ZM6 18L6 19L7 19L7 18ZM19 19L19 21L18 21L18 22L19 22L19 21L20 21L20 19ZM35 19L35 20L34 20L34 22L35 22L35 20L36 20L36 19ZM6 20L6 21L7 21L7 20ZM10 20L10 21L11 21L11 20ZM45 20L45 21L46 21L46 26L47 26L47 25L49 25L49 26L50 26L50 25L51 25L51 24L52 24L52 25L53 25L53 24L52 24L52 23L53 23L53 22L52 22L52 21L51 21L51 22L52 22L52 23L51 23L51 24L50 24L50 22L49 22L49 24L48 24L48 23L47 23L47 21L46 21L46 20ZM20 22L20 23L19 23L19 25L21 25L21 22ZM6 24L6 25L7 25L7 24ZM28 24L28 25L27 25L27 26L28 26L28 25L29 25L29 24ZM33 24L33 25L34 25L34 24ZM49 24L49 25L50 25L50 24ZM25 25L25 26L23 26L23 27L26 27L26 25ZM38 25L38 26L40 26L40 25ZM43 26L43 27L44 27L44 26ZM5 27L5 30L8 30L8 27ZM27 27L27 30L30 30L30 27ZM49 27L49 30L52 30L52 27ZM6 28L6 29L7 29L7 28ZM13 28L13 29L15 29L15 28ZM28 28L28 29L29 29L29 28ZM37 28L37 29L38 29L38 28ZM46 28L46 29L47 29L47 28ZM50 28L50 29L51 29L51 28ZM20 29L20 30L22 30L22 29ZM25 29L25 30L26 30L26 29ZM53 29L53 32L55 32L55 30L54 30L54 29ZM37 30L37 32L38 32L38 30ZM20 32L20 33L21 33L21 32ZM32 32L32 33L33 33L33 34L34 34L34 33L33 33L33 32ZM45 33L45 35L44 35L44 37L42 37L42 35L41 35L41 37L42 37L42 39L43 39L43 38L44 38L44 37L45 37L45 39L47 39L47 38L48 38L48 37L49 37L49 35L48 35L48 34L47 34L47 36L46 36L46 33ZM55 33L55 34L56 34L56 33ZM24 34L24 36L25 36L25 37L26 37L26 36L25 36L25 34ZM14 36L14 37L12 37L12 38L13 38L13 39L12 39L12 40L13 40L13 42L12 42L12 44L11 44L11 43L9 43L9 45L10 45L10 46L11 46L11 45L12 45L12 46L13 46L13 49L14 49L14 50L17 50L17 51L14 51L14 52L15 52L15 53L17 53L17 52L18 52L18 49L15 49L15 48L14 48L14 47L16 47L16 46L17 46L17 45L18 45L18 44L19 44L19 42L20 42L20 40L19 40L19 39L20 39L20 38L21 38L21 39L24 39L24 40L22 40L22 41L21 41L21 43L20 43L20 45L19 45L19 46L18 46L18 47L19 47L19 46L20 46L20 48L22 48L22 49L21 49L21 50L20 50L20 49L19 49L19 51L21 51L21 50L22 50L22 49L23 49L23 48L22 48L22 47L23 47L23 46L24 46L24 47L25 47L25 48L24 48L24 49L25 49L25 50L26 50L26 49L25 49L25 48L27 48L27 47L26 47L26 46L27 46L27 45L26 45L26 46L24 46L24 45L25 45L25 43L27 43L27 44L29 44L29 43L31 43L31 42L29 42L29 41L28 41L28 40L27 40L27 41L26 41L26 42L25 42L25 43L24 43L24 45L21 45L21 43L22 43L22 44L23 44L23 41L25 41L25 40L26 40L26 38L24 38L24 37L23 37L23 36L22 36L22 38L21 38L21 37L19 37L19 38L18 38L18 37L17 37L17 36L16 36L16 37L15 37L15 36ZM47 36L47 37L46 37L46 38L47 38L47 37L48 37L48 36ZM6 37L6 38L7 38L7 37ZM14 37L14 38L15 38L15 37ZM8 38L8 39L9 39L9 38ZM16 38L16 39L13 39L13 40L14 40L14 41L15 41L15 42L16 42L16 43L15 43L15 44L14 44L14 45L13 45L13 46L16 46L16 43L18 43L18 41L19 41L19 40L18 40L18 41L17 41L17 38ZM2 40L2 41L1 41L1 42L3 42L3 40ZM15 40L15 41L16 41L16 42L17 42L17 41L16 41L16 40ZM27 41L27 42L28 42L28 43L29 43L29 42L28 42L28 41ZM52 41L52 43L51 43L51 44L52 44L52 46L53 46L53 47L52 47L52 48L53 48L53 49L55 49L55 50L56 50L56 49L55 49L55 47L54 47L54 46L53 46L53 44L52 44L52 43L53 43L53 41ZM13 42L13 43L14 43L14 42ZM49 43L49 44L50 44L50 43ZM10 44L10 45L11 45L11 44ZM39 44L39 45L40 45L40 44ZM20 45L20 46L21 46L21 47L22 47L22 46L21 46L21 45ZM28 45L28 47L30 47L30 48L31 48L31 49L32 49L32 50L31 50L31 52L32 52L32 51L33 51L33 53L32 53L32 54L33 54L33 55L34 55L34 54L35 54L35 52L36 52L36 49L34 49L34 48L35 48L35 47L36 47L36 48L37 48L37 47L36 47L36 45L34 45L34 48L33 48L33 47L32 47L32 45L30 45L30 46L29 46L29 45ZM1 46L1 47L2 47L2 46ZM10 47L10 48L11 48L11 47ZM38 47L38 49L37 49L37 51L38 51L38 49L39 49L39 47ZM32 48L32 49L33 49L33 50L34 50L34 52L35 52L35 50L34 50L34 49L33 49L33 48ZM27 49L27 52L30 52L30 49ZM49 49L49 52L52 52L52 49ZM28 50L28 51L29 51L29 50ZM50 50L50 51L51 51L51 50ZM53 50L53 54L55 54L55 53L54 53L54 52L55 52L55 51L54 51L54 50ZM25 51L25 53L24 53L24 54L25 54L25 53L26 53L26 51ZM9 52L9 53L10 53L10 52ZM19 52L19 53L20 53L20 52ZM30 53L30 54L31 54L31 53ZM33 53L33 54L34 54L34 53ZM49 53L49 54L51 54L51 55L52 55L52 54L51 54L51 53ZM18 54L18 55L19 55L19 54ZM21 55L21 56L20 56L20 57L22 57L22 55ZM15 56L15 57L16 57L16 56ZM26 56L26 57L27 57L27 56ZM56 56L56 57L57 57L57 56ZM0 0L0 7L7 7L7 0ZM1 1L1 6L6 6L6 1ZM2 2L2 5L5 5L5 2ZM50 0L50 7L57 7L57 0ZM51 1L51 6L56 6L56 1ZM52 2L52 5L55 5L55 2ZM0 50L0 57L7 57L7 50ZM1 51L1 56L6 56L6 51ZM2 52L2 55L5 55L5 52Z" fill="#000000"/></g></g></svg>
