<?xml version="1.0" encoding="UTF-8"?>
<svg xmlns="http://www.w3.org/2000/svg" version="1.1" width="300" height="300" viewBox="0 0 300 300"><rect x="0" y="0" width="300" height="300" fill="#fefefe"/><g transform="scale(4.615)"><g transform="translate(4,4)"><path fill-rule="evenodd" d="M9 0L9 1L8 1L8 2L9 2L9 1L11 1L11 2L10 2L10 3L8 3L8 4L9 4L9 5L8 5L8 7L9 7L9 6L10 6L10 7L11 7L11 8L6 8L6 9L5 9L5 8L0 8L0 9L1 9L1 11L0 11L0 13L1 13L1 14L3 14L3 15L4 15L4 14L6 14L6 15L5 15L5 16L3 16L3 17L2 17L2 15L0 15L0 17L1 17L1 18L3 18L3 17L5 17L5 18L4 18L4 19L3 19L3 21L7 21L7 22L2 22L2 21L1 21L1 20L2 20L2 19L0 19L0 21L1 21L1 22L0 22L0 23L1 23L1 25L0 25L0 27L2 27L2 28L0 28L0 33L1 33L1 34L2 34L2 35L4 35L4 36L1 36L1 35L0 35L0 36L1 36L1 37L0 37L0 40L2 40L2 41L0 41L0 42L1 42L1 43L0 43L0 44L1 44L1 45L0 45L0 48L5 48L5 47L8 47L8 48L6 48L6 49L8 49L8 51L9 51L9 50L10 50L10 51L11 51L11 52L12 52L12 53L14 53L14 52L15 52L15 53L16 53L16 54L15 54L15 55L14 55L14 56L13 56L13 55L12 55L12 54L11 54L11 55L10 55L10 52L8 52L8 57L10 57L10 56L11 56L11 57L15 57L15 55L16 55L16 56L17 56L17 57L20 57L20 56L19 56L19 55L20 55L20 54L18 54L18 56L17 56L17 53L20 53L20 52L23 52L23 51L22 51L22 50L26 50L26 52L24 52L24 53L21 53L21 54L22 54L22 56L24 56L24 55L23 55L23 54L24 54L24 53L27 53L27 54L26 54L26 56L25 56L25 57L26 57L26 56L27 56L27 57L29 57L29 56L30 56L30 57L31 57L31 56L35 56L35 57L39 57L39 56L37 56L37 54L38 54L38 55L41 55L41 57L42 57L42 55L43 55L43 57L44 57L44 54L45 54L45 57L47 57L47 56L46 56L46 55L48 55L48 57L49 57L49 56L50 56L50 57L52 57L52 55L51 55L51 53L52 53L52 54L53 54L53 57L54 57L54 56L55 56L55 57L56 57L56 56L55 56L55 51L56 51L56 52L57 52L57 51L56 51L56 50L55 50L55 49L53 49L53 48L56 48L56 49L57 49L57 48L56 48L56 46L57 46L57 43L56 43L56 41L55 41L55 39L57 39L57 37L56 37L56 36L55 36L55 35L56 35L56 34L55 34L55 32L56 32L56 33L57 33L57 32L56 32L56 30L57 30L57 29L54 29L54 28L56 28L56 26L57 26L57 25L56 25L56 22L57 22L57 21L56 21L56 22L55 22L55 23L53 23L53 21L51 21L51 20L52 20L52 19L53 19L53 20L55 20L55 19L56 19L56 20L57 20L57 19L56 19L56 18L53 18L53 17L51 17L51 15L52 15L52 16L55 16L55 17L56 17L56 16L57 16L57 15L56 15L56 14L57 14L57 11L56 11L56 8L55 8L55 10L54 10L54 11L50 11L50 8L49 8L49 6L48 6L48 7L47 7L47 5L48 5L48 0L45 0L45 2L44 2L44 3L43 3L43 4L40 4L40 5L39 5L39 6L38 6L38 2L39 2L39 3L42 3L42 2L43 2L43 0L41 0L41 1L40 1L40 0L39 0L39 1L38 1L38 0L37 0L37 1L38 1L38 2L37 2L37 3L36 3L36 0L35 0L35 1L33 1L33 2L32 2L32 3L31 3L31 1L32 1L32 0L27 0L27 1L26 1L26 0L23 0L23 1L22 1L22 0L21 0L21 2L20 2L20 0L19 0L19 2L18 2L18 1L16 1L16 2L18 2L18 4L17 4L17 5L18 5L18 4L19 4L19 5L20 5L20 7L19 7L19 6L18 6L18 7L19 7L19 8L16 8L16 7L17 7L17 6L16 6L16 7L15 7L15 6L14 6L14 8L13 8L13 10L10 10L10 9L12 9L12 7L13 7L13 6L12 6L12 5L13 5L13 4L14 4L14 2L15 2L15 0L14 0L14 2L13 2L13 0L12 0L12 1L11 1L11 0ZM25 1L25 2L22 2L22 3L19 3L19 4L21 4L21 7L22 7L22 8L20 8L20 11L19 11L19 13L20 13L20 14L21 14L21 13L22 13L22 14L23 14L23 13L24 13L24 12L25 12L25 15L26 15L26 17L25 17L25 16L23 16L23 15L19 15L19 14L17 14L17 13L18 13L18 12L17 12L17 11L18 11L18 9L16 9L16 8L14 8L14 10L15 10L15 11L16 11L16 12L15 12L15 13L13 13L13 15L14 15L14 17L11 17L11 16L10 16L10 15L11 15L11 14L10 14L10 13L9 13L9 12L11 12L11 13L12 13L12 12L11 12L11 11L10 11L10 10L9 10L9 9L8 9L8 10L9 10L9 11L6 11L6 12L3 12L3 14L4 14L4 13L6 13L6 14L7 14L7 15L6 15L6 16L7 16L7 17L6 17L6 18L7 18L7 17L9 17L9 16L10 16L10 17L11 17L11 20L12 20L12 21L11 21L11 22L12 22L12 23L13 23L13 24L15 24L15 25L12 25L12 24L11 24L11 25L10 25L10 26L9 26L9 27L10 27L10 29L11 29L11 30L10 30L10 31L13 31L13 33L14 33L14 34L12 34L12 32L10 32L10 34L9 34L9 33L8 33L8 31L5 31L5 32L4 32L4 30L1 30L1 33L2 33L2 32L4 32L4 33L5 33L5 32L7 32L7 33L6 33L6 34L4 34L4 35L6 35L6 36L4 36L4 37L2 37L2 38L1 38L1 39L4 39L4 40L3 40L3 41L4 41L4 40L5 40L5 39L6 39L6 40L9 40L9 38L10 38L10 39L11 39L11 40L10 40L10 41L9 41L9 43L8 43L8 44L7 44L7 43L6 43L6 44L5 44L5 43L4 43L4 46L3 46L3 44L2 44L2 45L1 45L1 47L2 47L2 46L3 46L3 47L5 47L5 46L8 46L8 45L9 45L9 44L10 44L10 41L13 41L13 40L12 40L12 39L13 39L13 38L14 38L14 36L11 36L11 35L15 35L15 37L16 37L16 38L15 38L15 39L16 39L16 40L17 40L17 41L15 41L15 40L14 40L14 42L13 42L13 43L12 43L12 42L11 42L11 43L12 43L12 44L13 44L13 45L11 45L11 46L16 46L16 47L15 47L15 48L14 48L14 47L13 47L13 48L12 48L12 47L11 47L11 48L8 48L8 49L10 49L10 50L12 50L12 49L15 49L15 51L16 51L16 53L17 53L17 52L20 52L20 51L17 51L17 50L21 50L21 49L23 49L23 48L24 48L24 49L25 49L25 48L27 48L27 47L28 47L28 48L30 48L30 47L29 47L29 45L27 45L27 44L28 44L28 43L27 43L27 42L29 42L29 41L30 41L30 42L32 42L32 43L33 43L33 44L32 44L32 46L35 46L35 47L33 47L33 48L32 48L32 50L31 50L31 53L30 53L30 54L27 54L27 56L29 56L29 55L30 55L30 56L31 56L31 54L32 54L32 53L33 53L33 54L34 54L34 55L35 55L35 56L36 56L36 54L35 54L35 53L34 53L34 52L35 52L35 51L34 51L34 50L36 50L36 52L37 52L37 53L38 53L38 54L40 54L40 53L42 53L42 52L40 52L40 51L38 51L38 50L41 50L41 51L42 51L42 50L41 50L41 48L42 48L42 49L43 49L43 48L44 48L44 49L45 49L45 50L44 50L44 51L47 51L47 52L44 52L44 53L43 53L43 54L44 54L44 53L45 53L45 54L48 54L48 50L47 50L47 49L48 49L48 48L50 48L50 47L51 47L51 48L52 48L52 47L53 47L53 45L52 45L52 44L53 44L53 43L54 43L54 42L53 42L53 41L51 41L51 42L50 42L50 43L47 43L47 45L45 45L45 44L46 44L46 42L48 42L48 41L49 41L49 39L51 39L51 38L53 38L53 35L55 35L55 34L54 34L54 33L52 33L52 32L51 32L51 33L52 33L52 34L50 34L50 32L49 32L49 31L48 31L48 30L47 30L47 29L46 29L46 30L47 30L47 31L46 31L46 32L43 32L43 31L45 31L45 28L46 28L46 27L48 27L48 26L47 26L47 24L48 24L48 25L49 25L49 23L50 23L50 26L51 26L51 25L52 25L52 26L53 26L53 27L54 27L54 26L53 26L53 25L55 25L55 24L51 24L51 23L50 23L50 22L51 22L51 21L49 21L49 22L47 22L47 20L44 20L44 18L45 18L45 19L46 19L46 18L47 18L47 19L48 19L48 18L47 18L47 17L48 17L48 16L49 16L49 17L50 17L50 18L49 18L49 19L52 19L52 18L51 18L51 17L50 17L50 14L51 14L51 12L50 12L50 11L47 11L47 12L45 12L45 11L46 11L46 10L47 10L47 8L45 8L45 7L46 7L46 6L45 6L45 4L46 4L46 5L47 5L47 3L44 3L44 6L43 6L43 7L44 7L44 10L45 10L45 11L41 11L41 12L40 12L40 11L39 11L39 9L40 9L40 10L41 10L41 9L42 9L42 8L41 8L41 7L42 7L42 6L41 6L41 5L40 5L40 6L39 6L39 7L40 7L40 8L38 8L38 11L39 11L39 12L40 12L40 13L38 13L38 14L37 14L37 13L36 13L36 14L37 14L37 15L35 15L35 16L31 16L31 17L33 17L33 18L30 18L30 19L28 19L28 18L27 18L27 19L26 19L26 17L28 17L28 16L29 16L29 14L30 14L30 15L31 15L31 14L30 14L30 13L31 13L31 12L32 12L32 14L35 14L35 11L36 11L36 10L37 10L37 9L35 9L35 8L37 8L37 7L38 7L38 6L37 6L37 7L36 7L36 5L37 5L37 4L36 4L36 5L35 5L35 2L34 2L34 3L32 3L32 4L31 4L31 3L30 3L30 4L31 4L31 8L32 8L32 10L31 10L31 11L29 11L29 10L27 10L27 11L26 11L26 12L25 12L25 10L23 10L23 8L24 8L24 6L23 6L23 5L24 5L24 4L23 4L23 3L26 3L26 4L25 4L25 8L26 8L26 4L29 4L29 3L28 3L28 2L30 2L30 1L28 1L28 2L26 2L26 1ZM46 1L46 2L47 2L47 1ZM12 3L12 4L13 4L13 3ZM15 4L15 5L16 5L16 4ZM22 4L22 5L23 5L23 4ZM32 4L32 5L34 5L34 7L33 7L33 6L32 6L32 7L33 7L33 9L34 9L34 8L35 8L35 5L34 5L34 4ZM27 5L27 8L30 8L30 5ZM11 6L11 7L12 7L12 6ZM22 6L22 7L23 7L23 6ZM28 6L28 7L29 7L29 6ZM40 6L40 7L41 7L41 6ZM44 6L44 7L45 7L45 6ZM48 8L48 9L49 9L49 8ZM51 8L51 9L52 9L52 8ZM53 8L53 9L54 9L54 8ZM3 9L3 10L2 10L2 11L3 11L3 10L4 10L4 11L5 11L5 10L4 10L4 9ZM6 9L6 10L7 10L7 9ZM15 9L15 10L16 10L16 9ZM45 9L45 10L46 10L46 9ZM22 10L22 11L20 11L20 12L22 12L22 13L23 13L23 12L24 12L24 11L23 11L23 10ZM32 10L32 11L33 11L33 10ZM13 11L13 12L14 12L14 11ZM27 11L27 12L26 12L26 13L28 13L28 14L29 14L29 13L28 13L28 12L29 12L29 11ZM55 11L55 12L54 12L54 13L55 13L55 14L56 14L56 11ZM1 12L1 13L2 13L2 12ZM6 12L6 13L7 13L7 14L9 14L9 15L10 15L10 14L9 14L9 13L7 13L7 12ZM16 12L16 13L15 13L15 14L14 14L14 15L15 15L15 16L16 16L16 17L19 17L19 18L18 18L18 19L16 19L16 18L15 18L15 17L14 17L14 18L15 18L15 21L16 21L16 22L14 22L14 21L12 21L12 22L14 22L14 23L16 23L16 24L17 24L17 25L19 25L19 28L20 28L20 27L22 27L22 26L23 26L23 27L24 27L24 28L26 28L26 29L23 29L23 30L25 30L25 31L24 31L24 32L25 32L25 31L26 31L26 35L25 35L25 33L23 33L23 34L24 34L24 36L23 36L23 35L22 35L22 36L23 36L23 37L24 37L24 38L21 38L21 37L19 37L19 36L17 36L17 38L18 38L18 39L17 39L17 40L18 40L18 41L17 41L17 42L18 42L18 43L15 43L15 42L14 42L14 44L16 44L16 45L17 45L17 46L20 46L20 48L19 48L19 47L18 47L18 48L17 48L17 49L21 49L21 47L24 47L24 48L25 48L25 45L24 45L24 44L23 44L23 43L24 43L24 42L25 42L25 41L24 41L24 40L25 40L25 39L27 39L27 41L26 41L26 42L27 42L27 41L28 41L28 39L27 39L27 38L28 38L28 37L26 37L26 38L25 38L25 36L26 36L26 35L27 35L27 31L28 31L28 33L29 33L29 34L30 34L30 36L29 36L29 37L31 37L31 38L29 38L29 39L33 39L33 40L35 40L35 42L37 42L37 43L36 43L36 44L35 44L35 43L34 43L34 42L33 42L33 41L32 41L32 40L30 40L30 41L32 41L32 42L33 42L33 43L34 43L34 45L37 45L37 47L36 47L36 48L35 48L35 49L36 49L36 50L38 50L38 49L39 49L39 48L41 48L41 46L43 46L43 45L44 45L44 48L45 48L45 49L47 49L47 48L48 48L48 47L50 47L50 46L48 46L48 45L49 45L49 44L48 44L48 45L47 45L47 46L45 46L45 45L44 45L44 44L43 44L43 43L44 43L44 42L46 42L46 41L44 41L44 40L45 40L45 39L44 39L44 40L43 40L43 39L42 39L42 38L43 38L43 37L44 37L44 38L45 38L45 37L44 37L44 36L47 36L47 35L44 35L44 36L42 36L42 34L45 34L45 33L43 33L43 32L41 32L41 33L39 33L39 34L40 34L40 35L38 35L38 33L37 33L37 32L34 32L34 31L36 31L36 30L37 30L37 29L38 29L38 28L39 28L39 27L40 27L40 26L39 26L39 27L36 27L36 26L34 26L34 27L33 27L33 26L32 26L32 24L33 24L33 25L37 25L37 26L38 26L38 25L39 25L39 24L37 24L37 22L38 22L38 23L39 23L39 22L40 22L40 24L41 24L41 25L42 25L42 26L41 26L41 28L42 28L42 26L43 26L43 29L41 29L41 30L40 30L40 31L41 31L41 30L44 30L44 28L45 28L45 27L46 27L46 26L43 26L43 25L44 25L44 24L43 24L43 23L44 23L44 20L43 20L43 18L44 18L44 15L47 15L47 16L48 16L48 15L49 15L49 14L50 14L50 12L49 12L49 13L47 13L47 14L45 14L45 13L44 13L44 12L43 12L43 13L41 13L41 14L38 14L38 15L39 15L39 16L38 16L38 17L37 17L37 16L35 16L35 17L37 17L37 18L38 18L38 17L39 17L39 19L38 19L38 21L37 21L37 20L36 20L36 19L35 19L35 23L32 23L32 24L31 24L31 21L32 21L32 20L33 20L33 21L34 21L34 19L31 19L31 21L29 21L29 23L30 23L30 24L29 24L29 25L27 25L27 26L26 26L26 25L25 25L25 24L28 24L28 23L27 23L27 22L28 22L28 21L26 21L26 19L25 19L25 17L22 17L22 16L21 16L21 17L22 17L22 18L20 18L20 17L19 17L19 16L18 16L18 15L17 15L17 16L16 16L16 13L17 13L17 12ZM33 12L33 13L34 13L34 12ZM52 12L52 13L53 13L53 12ZM43 13L43 14L41 14L41 16L39 16L39 17L41 17L41 16L42 16L42 17L43 17L43 16L42 16L42 15L44 15L44 13ZM26 14L26 15L27 15L27 16L28 16L28 15L27 15L27 14ZM53 14L53 15L54 15L54 14ZM7 15L7 16L8 16L8 15ZM45 16L45 18L46 18L46 16ZM8 18L8 19L9 19L9 18ZM22 18L22 20L21 20L21 19L20 19L20 21L19 21L19 22L20 22L20 23L19 23L19 24L21 24L21 25L20 25L20 26L22 26L22 25L24 25L24 24L25 24L25 23L26 23L26 22L25 22L25 21L24 21L24 20L23 20L23 19L24 19L24 18ZM41 18L41 19L42 19L42 18ZM4 19L4 20L5 20L5 19ZM6 19L6 20L7 20L7 21L8 21L8 22L9 22L9 24L10 24L10 21L9 21L9 20L7 20L7 19ZM13 19L13 20L14 20L14 19ZM18 19L18 20L19 20L19 19ZM27 19L27 20L28 20L28 19ZM16 20L16 21L17 21L17 22L18 22L18 21L17 21L17 20ZM39 20L39 21L38 21L38 22L39 22L39 21L42 21L42 20ZM22 21L22 22L21 22L21 23L23 23L23 24L24 24L24 23L23 23L23 22L24 22L24 21ZM1 22L1 23L2 23L2 22ZM41 22L41 24L42 24L42 22ZM46 22L46 23L45 23L45 25L46 25L46 23L47 23L47 22ZM3 23L3 25L1 25L1 26L5 26L5 23ZM6 23L6 24L7 24L7 23ZM17 23L17 24L18 24L18 23ZM6 25L6 26L7 26L7 25ZM11 25L11 26L12 26L12 27L13 27L13 26L12 26L12 25ZM14 26L14 28L13 28L13 29L15 29L15 31L14 31L14 30L13 30L13 31L14 31L14 32L16 32L16 33L17 33L17 35L19 35L19 34L20 34L20 33L21 33L21 34L22 34L22 33L21 33L21 32L23 32L23 31L21 31L21 30L20 30L20 29L18 29L18 28L17 28L17 27L18 27L18 26ZM24 26L24 27L26 27L26 26ZM31 26L31 28L32 28L32 29L33 29L33 30L32 30L32 31L30 31L30 32L29 32L29 33L31 33L31 34L32 34L32 35L35 35L35 36L32 36L32 37L33 37L33 39L35 39L35 40L38 40L38 42L39 42L39 43L41 43L41 44L39 44L39 45L38 45L38 46L39 46L39 45L41 45L41 44L42 44L42 42L40 42L40 41L41 41L41 40L42 40L42 41L43 41L43 42L44 42L44 41L43 41L43 40L42 40L42 39L41 39L41 38L42 38L42 37L41 37L41 36L40 36L40 37L38 37L38 35L37 35L37 34L35 34L35 33L33 33L33 32L32 32L32 31L33 31L33 30L35 30L35 28L33 28L33 27L32 27L32 26ZM5 27L5 30L8 30L8 27ZM27 27L27 30L30 30L30 27ZM49 27L49 30L52 30L52 27ZM2 28L2 29L4 29L4 28ZM6 28L6 29L7 29L7 28ZM11 28L11 29L12 29L12 28ZM15 28L15 29L16 29L16 30L18 30L18 29L16 29L16 28ZM21 28L21 29L22 29L22 28ZM28 28L28 29L29 29L29 28ZM50 28L50 29L51 29L51 28ZM19 30L19 31L18 31L18 32L20 32L20 30ZM38 30L38 32L39 32L39 30ZM53 30L53 31L54 31L54 30ZM47 31L47 32L46 32L46 33L47 33L47 32L48 32L48 33L49 33L49 32L48 32L48 31ZM31 32L31 33L32 33L32 34L33 34L33 33L32 33L32 32ZM7 33L7 34L6 34L6 35L8 35L8 37L7 37L7 36L6 36L6 37L7 37L7 38L6 38L6 39L7 39L7 38L9 38L9 34L8 34L8 33ZM18 33L18 34L19 34L19 33ZM10 34L10 35L11 35L11 34ZM48 34L48 35L50 35L50 36L48 36L48 37L47 37L47 39L46 39L46 40L47 40L47 39L48 39L48 37L49 37L49 38L50 38L50 36L51 36L51 37L52 37L52 35L53 35L53 34L52 34L52 35L50 35L50 34ZM20 35L20 36L21 36L21 35ZM35 36L35 39L37 39L37 38L38 38L38 37L37 37L37 36ZM11 37L11 38L13 38L13 37ZM40 37L40 38L41 38L41 37ZM54 37L54 38L55 38L55 37ZM19 38L19 39L18 39L18 40L19 40L19 41L18 41L18 42L19 42L19 43L20 43L20 46L21 46L21 45L22 45L22 46L24 46L24 45L22 45L22 44L21 44L21 43L22 43L22 42L24 42L24 41L23 41L23 40L24 40L24 39L23 39L23 40L21 40L21 41L20 41L20 40L19 40L19 39L20 39L20 38ZM38 39L38 40L39 40L39 39ZM6 41L6 42L7 42L7 41ZM19 41L19 42L20 42L20 41ZM21 41L21 42L22 42L22 41ZM2 42L2 43L3 43L3 42ZM51 42L51 43L50 43L50 45L51 45L51 43L53 43L53 42ZM25 43L25 44L27 44L27 43ZM29 43L29 44L31 44L31 43ZM55 43L55 44L54 44L54 45L55 45L55 46L54 46L54 47L55 47L55 46L56 46L56 43ZM6 44L6 45L7 45L7 44ZM17 44L17 45L18 45L18 44ZM26 45L26 47L27 47L27 45ZM30 45L30 46L31 46L31 45ZM9 46L9 47L10 47L10 46ZM51 46L51 47L52 47L52 46ZM38 47L38 48L37 48L37 49L38 49L38 48L39 48L39 47ZM42 47L42 48L43 48L43 47ZM46 47L46 48L47 48L47 47ZM11 48L11 49L12 49L12 48ZM27 49L27 52L30 52L30 49ZM33 49L33 50L32 50L32 52L33 52L33 50L34 50L34 49ZM49 49L49 52L52 52L52 49ZM13 50L13 51L14 51L14 50ZM28 50L28 51L29 51L29 50ZM50 50L50 51L51 51L51 50ZM54 50L54 51L55 51L55 50ZM37 51L37 52L38 52L38 53L39 53L39 52L38 52L38 51ZM53 52L53 54L54 54L54 52ZM50 55L50 56L51 56L51 55ZM0 0L0 7L7 7L7 0ZM1 1L1 6L6 6L6 1ZM2 2L2 5L5 5L5 2ZM50 0L50 7L57 7L57 0ZM51 1L51 6L56 6L56 1ZM52 2L52 5L55 5L55 2ZM0 50L0 57L7 57L7 50ZM1 51L1 56L6 56L6 51ZM2 52L2 55L5 55L5 52Z" fill="#000000"/></g></g></svg>
