<?xml version="1.0" encoding="UTF-8"?>
<svg xmlns="http://www.w3.org/2000/svg" version="1.1" width="300" height="300" viewBox="0 0 300 300"><rect x="0" y="0" width="300" height="300" fill="#fefefe"/><g transform="scale(4.615)"><g transform="translate(4,4)"><path fill-rule="evenodd" d="M8 0L8 1L9 1L9 2L8 2L8 5L9 5L9 3L10 3L10 2L11 2L11 3L12 3L12 2L13 2L13 1L12 1L12 2L11 2L11 0L10 0L10 1L9 1L9 0ZM14 0L14 1L15 1L15 0ZM17 0L17 1L18 1L18 2L17 2L17 5L15 5L15 4L14 4L14 3L13 3L13 4L11 4L11 5L10 5L10 9L11 9L11 10L10 10L10 11L9 11L9 8L8 8L8 10L6 10L6 9L7 9L7 8L6 8L6 9L5 9L5 10L4 10L4 11L3 11L3 12L1 12L1 11L0 11L0 12L1 12L1 13L0 13L0 14L1 14L1 13L4 13L4 14L2 14L2 15L0 15L0 16L2 16L2 17L3 17L3 16L5 16L5 15L4 15L4 14L6 14L6 15L7 15L7 16L6 16L6 17L4 17L4 18L5 18L5 19L2 19L2 18L1 18L1 17L0 17L0 18L1 18L1 19L2 19L2 21L1 21L1 20L0 20L0 22L1 22L1 24L0 24L0 29L2 29L2 30L1 30L1 32L0 32L0 34L2 34L2 33L3 33L3 32L2 32L2 31L3 31L3 30L4 30L4 31L7 31L7 32L6 32L6 33L7 33L7 34L5 34L5 32L4 32L4 35L7 35L7 36L5 36L5 37L4 37L4 36L2 36L2 37L1 37L1 36L0 36L0 45L2 45L2 47L1 47L1 46L0 46L0 48L5 48L5 47L8 47L8 48L6 48L6 49L8 49L8 50L10 50L10 51L9 51L9 53L8 53L8 57L10 57L10 54L11 54L11 55L12 55L12 57L15 57L15 56L16 56L16 57L18 57L18 56L19 56L19 55L20 55L20 57L21 57L21 56L22 56L22 57L23 57L23 56L22 56L22 55L23 55L23 54L25 54L25 55L24 55L24 57L25 57L25 55L26 55L26 56L28 56L28 55L26 55L26 53L29 53L29 54L31 54L31 55L30 55L30 56L31 56L31 57L32 57L32 55L34 55L34 56L33 56L33 57L36 57L36 55L38 55L38 57L39 57L39 56L40 56L40 57L41 57L41 54L42 54L42 57L43 57L43 55L44 55L44 56L45 56L45 57L46 57L46 54L47 54L47 55L49 55L49 57L51 57L51 54L52 54L52 53L53 53L53 54L54 54L54 52L55 52L55 54L56 54L56 53L57 53L57 52L55 52L55 51L56 51L56 49L57 49L57 48L56 48L56 49L55 49L55 48L54 48L54 47L57 47L57 45L56 45L56 46L55 46L55 44L53 44L53 46L54 46L54 47L53 47L53 48L52 48L52 46L49 46L49 47L47 47L47 46L48 46L48 45L47 45L47 46L46 46L46 48L48 48L48 52L47 52L47 51L46 51L46 50L45 50L45 51L44 51L44 48L45 48L45 45L42 45L42 43L43 43L43 44L47 44L47 43L48 43L48 44L49 44L49 45L52 45L52 43L53 43L53 42L54 42L54 43L56 43L56 44L57 44L57 43L56 43L56 42L57 42L57 40L56 40L56 41L55 41L55 42L54 42L54 40L55 40L55 38L56 38L56 39L57 39L57 38L56 38L56 37L55 37L55 36L56 36L56 35L57 35L57 31L56 31L56 30L57 30L57 27L53 27L53 25L54 25L54 24L53 24L53 20L50 20L50 18L49 18L49 20L50 20L50 21L51 21L51 22L52 22L52 23L51 23L51 24L53 24L53 25L49 25L49 26L46 26L46 25L47 25L47 24L45 24L45 25L44 25L44 24L43 24L43 25L44 25L44 26L42 26L42 22L43 22L43 23L48 23L48 24L49 24L49 21L47 21L47 20L46 20L46 19L45 19L45 18L47 18L47 19L48 19L48 14L47 14L47 15L45 15L45 14L46 14L46 13L45 13L45 14L42 14L42 17L41 17L41 18L39 18L39 19L40 19L40 20L37 20L37 19L36 19L36 20L35 20L35 19L34 19L34 20L33 20L33 21L34 21L34 20L35 20L35 22L37 22L37 24L36 24L36 23L35 23L35 24L33 24L33 23L34 23L34 22L32 22L32 23L31 23L31 21L30 21L30 20L32 20L32 18L31 18L31 19L30 19L30 17L29 17L29 16L32 16L32 17L33 17L33 18L35 18L35 17L34 17L34 16L35 16L35 15L36 15L36 14L37 14L37 15L39 15L39 17L40 17L40 16L41 16L41 14L40 14L40 11L42 11L42 12L43 12L43 13L44 13L44 12L43 12L43 10L44 10L44 9L43 9L43 6L42 6L42 5L41 5L41 4L43 4L43 5L45 5L45 6L44 6L44 7L45 7L45 9L47 9L47 10L45 10L45 11L47 11L47 12L49 12L49 15L50 15L50 16L51 16L51 17L52 17L52 16L55 16L55 17L54 17L54 18L52 18L52 19L56 19L56 20L54 20L54 21L56 21L56 22L55 22L55 23L57 23L57 21L56 21L56 20L57 20L57 19L56 19L56 18L57 18L57 15L55 15L55 13L56 13L56 12L57 12L57 10L56 10L56 9L57 9L57 8L56 8L56 9L55 9L55 8L52 8L52 9L51 9L51 10L50 10L50 8L49 8L49 9L48 9L48 8L46 8L46 7L47 7L47 5L48 5L48 0L46 0L46 1L44 1L44 2L42 2L42 3L41 3L41 4L38 4L38 2L37 2L37 1L38 1L38 0L37 0L37 1L36 1L36 0L35 0L35 1L34 1L34 2L33 2L33 1L32 1L32 2L31 2L31 0L30 0L30 2L29 2L29 0L27 0L27 1L28 1L28 2L27 2L27 4L26 4L26 2L24 2L24 3L23 3L23 2L21 2L21 3L23 3L23 4L21 4L21 5L20 5L20 4L19 4L19 1L20 1L20 0L19 0L19 1L18 1L18 0ZM21 0L21 1L22 1L22 0ZM23 0L23 1L26 1L26 0ZM39 0L39 1L40 1L40 2L41 2L41 1L43 1L43 0L41 0L41 1L40 1L40 0ZM35 1L35 2L34 2L34 3L35 3L35 2L36 2L36 1ZM46 1L46 2L45 2L45 3L44 3L44 4L45 4L45 5L47 5L47 3L46 3L46 2L47 2L47 1ZM15 2L15 3L16 3L16 2ZM28 2L28 4L29 4L29 2ZM32 3L32 4L31 4L31 5L32 5L32 6L31 6L31 9L32 9L32 10L30 10L30 11L29 11L29 9L28 9L28 10L26 10L26 11L25 11L25 12L24 12L24 16L25 16L25 14L26 14L26 12L28 12L28 13L30 13L30 14L31 14L31 15L32 15L32 14L33 14L33 15L35 15L35 14L36 14L36 13L35 13L35 12L38 12L38 11L40 11L40 10L41 10L41 9L42 9L42 8L41 8L41 7L42 7L42 6L41 6L41 7L40 7L40 5L36 5L36 4L34 4L34 5L33 5L33 3ZM13 4L13 5L12 5L12 6L11 6L11 9L13 9L13 10L12 10L12 11L10 11L10 12L9 12L9 11L6 11L6 10L5 10L5 11L6 11L6 12L4 12L4 13L6 13L6 14L7 14L7 13L6 13L6 12L8 12L8 14L9 14L9 15L8 15L8 16L10 16L10 13L11 13L11 14L12 14L12 13L11 13L11 12L13 12L13 10L14 10L14 11L15 11L15 15L16 15L16 16L15 16L15 17L14 17L14 18L13 18L13 19L15 19L15 20L14 20L14 22L13 22L13 20L11 20L11 21L12 21L12 22L11 22L11 24L10 24L10 23L8 23L8 22L7 22L7 21L6 21L6 20L9 20L9 21L10 21L10 18L11 18L11 19L12 19L12 18L11 18L11 17L12 17L12 16L11 16L11 17L10 17L10 18L9 18L9 17L6 17L6 18L7 18L7 19L6 19L6 20L4 20L4 21L5 21L5 22L4 22L4 23L5 23L5 24L4 24L4 25L3 25L3 24L1 24L1 28L2 28L2 29L3 29L3 28L4 28L4 27L3 27L3 26L4 26L4 25L5 25L5 26L9 26L9 25L12 25L12 24L15 24L15 25L13 25L13 26L12 26L12 27L11 27L11 28L10 28L10 27L9 27L9 33L10 33L10 34L9 34L9 35L11 35L11 34L12 34L12 36L11 36L11 38L9 38L9 36L7 36L7 37L5 37L5 38L4 38L4 37L3 37L3 38L1 38L1 40L2 40L2 41L1 41L1 42L2 42L2 41L5 41L5 42L7 42L7 41L5 41L5 40L2 40L2 39L3 39L3 38L4 38L4 39L6 39L6 40L7 40L7 39L6 39L6 38L7 38L7 37L8 37L8 38L9 38L9 39L8 39L8 41L10 41L10 40L11 40L11 39L13 39L13 40L12 40L12 41L11 41L11 42L12 42L12 43L10 43L10 42L9 42L9 43L8 43L8 45L5 45L5 46L3 46L3 47L5 47L5 46L8 46L8 45L9 45L9 44L11 44L11 45L10 45L10 46L11 46L11 47L12 47L12 48L13 48L13 49L12 49L12 50L11 50L11 48L10 48L10 47L9 47L9 48L8 48L8 49L9 49L9 48L10 48L10 50L11 50L11 51L10 51L10 53L9 53L9 54L10 54L10 53L11 53L11 54L13 54L13 52L11 52L11 51L13 51L13 49L14 49L14 48L13 48L13 45L12 45L12 44L13 44L13 42L14 42L14 43L16 43L16 42L15 42L15 38L17 38L17 39L16 39L16 41L17 41L17 39L18 39L18 38L19 38L19 37L20 37L20 38L22 38L22 37L23 37L23 36L25 36L25 37L24 37L24 39L22 39L22 41L23 41L23 40L24 40L24 39L25 39L25 41L24 41L24 42L23 42L23 44L22 44L22 42L21 42L21 41L20 41L20 40L18 40L18 41L19 41L19 43L18 43L18 42L17 42L17 45L15 45L15 44L14 44L14 47L15 47L15 46L16 46L16 47L17 47L17 45L19 45L19 46L21 46L21 47L22 47L22 46L23 46L23 45L25 45L25 48L24 48L24 47L23 47L23 48L21 48L21 52L22 52L22 53L20 53L20 55L21 55L21 54L23 54L23 52L24 52L24 53L25 53L25 52L26 52L26 49L25 49L25 48L27 48L27 47L28 47L28 48L32 48L32 49L31 49L31 50L32 50L32 51L31 51L31 53L32 53L32 51L33 51L33 52L35 52L35 53L36 53L36 54L34 54L34 55L36 55L36 54L37 54L37 51L36 51L36 52L35 52L35 51L33 51L33 49L34 49L34 50L35 50L35 48L37 48L37 49L36 49L36 50L37 50L37 49L38 49L38 48L39 48L39 49L40 49L40 50L39 50L39 51L38 51L38 54L39 54L39 52L40 52L40 54L41 54L41 52L43 52L43 47L39 47L39 45L38 45L38 44L41 44L41 43L42 43L42 42L43 42L43 43L44 43L44 42L45 42L45 41L46 41L46 40L45 40L45 41L44 41L44 40L42 40L42 42L41 42L41 39L42 39L42 38L44 38L44 39L46 39L46 38L47 38L47 37L48 37L48 38L49 38L49 37L50 37L50 36L48 36L48 35L46 35L46 34L50 34L50 33L49 33L49 32L51 32L51 31L49 31L49 32L48 32L48 27L47 27L47 31L44 31L44 30L43 30L43 29L42 29L42 30L40 30L40 29L41 29L41 23L40 23L40 24L38 24L38 25L40 25L40 29L38 29L38 30L36 30L36 29L37 29L37 28L36 28L36 27L35 27L35 25L34 25L34 27L35 27L35 28L34 28L34 29L35 29L35 30L36 30L36 31L37 31L37 32L36 32L36 33L37 33L37 32L38 32L38 34L39 34L39 31L40 31L40 32L41 32L41 31L44 31L44 33L45 33L45 36L44 36L44 37L43 37L43 36L41 36L41 35L42 35L42 34L41 34L41 35L37 35L37 37L35 37L35 36L36 36L36 35L35 35L35 31L34 31L34 32L31 32L31 34L30 34L30 35L29 35L29 33L30 33L30 31L29 31L29 32L28 32L28 33L27 33L27 31L24 31L24 30L26 30L26 28L25 28L25 25L28 25L28 26L29 26L29 24L30 24L30 23L28 23L28 22L25 22L25 19L26 19L26 18L25 18L25 17L24 17L24 18L23 18L23 13L22 13L22 12L23 12L23 11L24 11L24 10L23 10L23 9L26 9L26 6L25 6L25 5L26 5L26 4L24 4L24 6L23 6L23 7L22 7L22 6L21 6L21 7L20 7L20 6L19 6L19 7L18 7L18 5L19 5L19 4L18 4L18 5L17 5L17 7L16 7L16 6L15 6L15 8L13 8L13 7L14 7L14 4ZM27 5L27 8L30 8L30 5ZM8 6L8 7L9 7L9 6ZM12 6L12 7L13 7L13 6ZM24 6L24 7L23 7L23 8L21 8L21 10L20 10L20 9L19 9L19 10L20 10L20 11L19 11L19 12L18 12L18 8L17 8L17 10L16 10L16 11L17 11L17 12L16 12L16 13L17 13L17 12L18 12L18 13L19 13L19 14L18 14L18 15L20 15L20 16L19 16L19 17L21 17L21 19L20 19L20 18L19 18L19 20L21 20L21 21L22 21L22 23L21 23L21 22L17 22L17 21L18 21L18 19L16 19L16 18L18 18L18 17L17 17L17 16L16 16L16 17L15 17L15 19L16 19L16 23L15 23L15 24L16 24L16 23L18 23L18 24L17 24L17 26L16 26L16 25L15 25L15 26L13 26L13 27L12 27L12 28L11 28L11 29L10 29L10 30L11 30L11 31L10 31L10 33L12 33L12 34L13 34L13 32L14 32L14 36L13 36L13 37L12 37L12 38L13 38L13 39L14 39L14 38L15 38L15 36L17 36L17 37L19 37L19 36L17 36L17 35L19 35L19 34L20 34L20 36L21 36L21 34L22 34L22 35L24 35L24 34L25 34L25 35L26 35L26 34L25 34L25 32L24 32L24 33L23 33L23 31L22 31L22 32L21 32L21 34L20 34L20 32L19 32L19 34L18 34L18 32L17 32L17 35L16 35L16 34L15 34L15 33L16 33L16 30L17 30L17 28L14 28L14 27L15 27L15 26L16 26L16 27L19 27L19 28L18 28L18 29L20 29L20 28L21 28L21 27L19 27L19 26L18 26L18 25L20 25L20 26L22 26L22 27L24 27L24 26L23 26L23 25L22 25L22 24L24 24L24 25L25 25L25 22L24 22L24 21L23 21L23 20L21 20L21 19L22 19L22 17L21 17L21 13L19 13L19 12L20 12L20 11L23 11L23 10L22 10L22 9L23 9L23 8L24 8L24 7L25 7L25 6ZM28 6L28 7L29 7L29 6ZM32 6L32 8L33 8L33 6ZM34 6L34 9L36 9L36 8L38 8L38 7L39 7L39 6L38 6L38 7L37 7L37 6L36 6L36 7L35 7L35 6ZM45 6L45 7L46 7L46 6ZM48 6L48 7L49 7L49 6ZM19 7L19 8L20 8L20 7ZM0 8L0 9L2 9L2 10L3 10L3 9L4 9L4 8ZM39 8L39 9L41 9L41 8ZM37 9L37 11L38 11L38 9ZM53 9L53 10L54 10L54 13L55 13L55 12L56 12L56 11L55 11L55 9ZM33 10L33 11L30 11L30 12L31 12L31 13L32 13L32 12L33 12L33 14L34 14L34 12L35 12L35 11L36 11L36 10L35 10L35 11L34 11L34 10ZM48 10L48 11L50 11L50 10ZM51 10L51 12L50 12L50 13L51 13L51 16L52 16L52 15L54 15L54 14L52 14L52 13L53 13L53 11L52 11L52 10ZM51 12L51 13L52 13L52 12ZM13 13L13 16L14 16L14 13ZM16 14L16 15L17 15L17 14ZM2 15L2 16L3 16L3 15ZM26 15L26 16L27 16L27 15ZM28 15L28 16L29 16L29 15ZM44 15L44 16L45 16L45 17L42 17L42 18L41 18L41 20L43 20L43 21L44 21L44 22L47 22L47 21L45 21L45 19L44 19L44 18L45 18L45 17L46 17L46 16L45 16L45 15ZM27 17L27 19L28 19L28 20L29 20L29 19L28 19L28 18L29 18L29 17ZM36 17L36 18L37 18L37 17ZM55 17L55 18L56 18L56 17ZM24 18L24 19L25 19L25 18ZM42 18L42 19L43 19L43 18ZM26 20L26 21L27 21L27 20ZM36 20L36 21L37 21L37 20ZM2 21L2 23L3 23L3 21ZM38 21L38 22L39 22L39 21ZM5 22L5 23L7 23L7 22ZM12 22L12 23L13 23L13 22ZM20 23L20 24L21 24L21 23ZM26 23L26 24L28 24L28 23ZM5 24L5 25L7 25L7 24ZM32 24L32 25L33 25L33 24ZM55 24L55 26L56 26L56 24ZM2 25L2 26L3 26L3 25ZM30 25L30 26L31 26L31 25ZM38 26L38 27L39 27L39 26ZM44 26L44 27L42 27L42 28L44 28L44 27L45 27L45 30L46 30L46 27L45 27L45 26ZM5 27L5 30L8 30L8 27ZM27 27L27 30L30 30L30 27ZM31 27L31 28L33 28L33 27ZM49 27L49 30L52 30L52 27ZM6 28L6 29L7 29L7 28ZM23 28L23 29L21 29L21 30L24 30L24 28ZM28 28L28 29L29 29L29 28ZM50 28L50 29L51 29L51 28ZM53 28L53 31L52 31L52 34L54 34L54 33L55 33L55 30L56 30L56 28L55 28L55 29L54 29L54 28ZM11 29L11 30L12 30L12 31L14 31L14 32L15 32L15 31L14 31L14 29ZM15 29L15 30L16 30L16 29ZM32 29L32 30L31 30L31 31L32 31L32 30L33 30L33 29ZM19 30L19 31L20 31L20 30ZM38 30L38 31L39 31L39 30ZM1 32L1 33L2 33L2 32ZM42 32L42 33L43 33L43 32ZM45 32L45 33L47 33L47 32ZM53 32L53 33L54 33L54 32ZM22 33L22 34L23 34L23 33ZM7 34L7 35L8 35L8 34ZM27 34L27 36L26 36L26 37L27 37L27 36L29 36L29 38L25 38L25 39L26 39L26 41L25 41L25 42L24 42L24 44L25 44L25 45L26 45L26 46L27 46L27 45L26 45L26 43L25 43L25 42L29 42L29 43L27 43L27 44L29 44L29 46L28 46L28 47L29 47L29 46L31 46L31 47L33 47L33 48L35 48L35 47L36 47L36 43L34 43L34 42L36 42L36 41L34 41L34 40L35 40L35 39L36 39L36 38L34 38L34 37L33 37L33 38L32 38L32 36L33 36L33 35L34 35L34 34L31 34L31 35L32 35L32 36L29 36L29 35L28 35L28 34ZM43 34L43 35L44 35L44 34ZM51 35L51 36L52 36L52 38L53 38L53 39L54 39L54 38L55 38L55 37L54 37L54 38L53 38L53 36L52 36L52 35ZM54 35L54 36L55 36L55 35ZM39 36L39 37L37 37L37 39L38 39L38 40L37 40L37 41L40 41L40 39L41 39L41 37L40 37L40 36ZM45 36L45 38L46 38L46 37L47 37L47 36ZM30 38L30 39L28 39L28 40L27 40L27 41L28 41L28 40L33 40L33 39L32 39L32 38ZM50 38L50 39L51 39L51 40L50 40L50 41L47 41L47 42L46 42L46 43L47 43L47 42L50 42L50 43L49 43L49 44L51 44L51 42L50 42L50 41L52 41L52 39L51 39L51 38ZM47 39L47 40L49 40L49 39ZM13 40L13 41L12 41L12 42L13 42L13 41L14 41L14 40ZM30 41L30 42L31 42L31 41ZM20 42L20 45L21 45L21 46L22 46L22 44L21 44L21 42ZM32 42L32 43L30 43L30 45L31 45L31 46L32 46L32 45L33 45L33 47L34 47L34 46L35 46L35 44L34 44L34 45L33 45L33 42ZM37 42L37 44L38 44L38 43L40 43L40 42ZM2 43L2 45L4 45L4 44L5 44L5 43ZM6 43L6 44L7 44L7 43ZM11 45L11 46L12 46L12 45ZM37 45L37 47L38 47L38 45ZM18 47L18 48L19 48L19 49L20 49L20 47ZM16 48L16 50L15 50L15 52L14 52L14 53L16 53L16 54L17 54L17 55L18 55L18 54L19 54L19 52L20 52L20 51L19 51L19 52L17 52L17 51L18 51L18 50L17 50L17 48ZM23 48L23 49L22 49L22 52L23 52L23 49L24 49L24 48ZM41 48L41 49L42 49L42 48ZM53 48L53 50L55 50L55 49L54 49L54 48ZM27 49L27 52L30 52L30 49ZM49 49L49 52L52 52L52 49ZM16 50L16 51L17 51L17 50ZM24 50L24 51L25 51L25 50ZM28 50L28 51L29 51L29 50ZM50 50L50 51L51 51L51 50ZM40 51L40 52L41 52L41 51ZM45 51L45 52L46 52L46 51ZM17 53L17 54L18 54L18 53ZM42 53L42 54L43 54L43 53ZM48 53L48 54L50 54L50 53ZM44 54L44 55L45 55L45 54ZM14 55L14 56L15 56L15 55ZM56 55L56 56L57 56L57 55ZM47 56L47 57L48 57L48 56ZM52 56L52 57L53 57L53 56ZM54 56L54 57L55 57L55 56ZM0 0L0 7L7 7L7 0ZM1 1L1 6L6 6L6 1ZM2 2L2 5L5 5L5 2ZM50 0L50 7L57 7L57 0ZM51 1L51 6L56 6L56 1ZM52 2L52 5L55 5L55 2ZM0 50L0 57L7 57L7 50ZM1 51L1 56L6 56L6 51ZM2 52L2 55L5 55L5 52Z" fill="#000000"/></g></g></svg>
