<?xml version="1.0" encoding="UTF-8"?>
<svg xmlns="http://www.w3.org/2000/svg" version="1.1" width="300" height="300" viewBox="0 0 300 300"><rect x="0" y="0" width="300" height="300" fill="#fefefe"/><g transform="scale(4.615)"><g transform="translate(4,4)"><path fill-rule="evenodd" d="M8 0L8 2L9 2L9 4L8 4L8 9L9 9L9 10L8 10L8 11L7 11L7 10L6 10L6 9L7 9L7 8L5 8L5 9L4 9L4 11L3 11L3 10L2 10L2 12L0 12L0 13L1 13L1 16L2 16L2 17L3 17L3 15L2 15L2 12L4 12L4 14L5 14L5 15L9 15L9 14L5 14L5 12L4 12L4 11L5 11L5 10L6 10L6 11L7 11L7 12L6 12L6 13L7 13L7 12L9 12L9 11L10 11L10 10L11 10L11 11L12 11L12 13L13 13L13 10L14 10L14 9L15 9L15 11L14 11L14 12L15 12L15 11L16 11L16 12L17 12L17 14L15 14L15 15L14 15L14 14L11 14L11 13L10 13L10 15L14 15L14 17L13 17L13 16L12 16L12 18L8 18L8 20L9 20L9 21L8 21L8 22L9 22L9 23L10 23L10 25L11 25L11 26L10 26L10 27L9 27L9 24L8 24L8 26L3 26L3 25L4 25L4 24L5 24L5 25L7 25L7 24L6 24L6 23L7 23L7 22L6 22L6 23L5 23L5 22L4 22L4 21L3 21L3 25L2 25L2 24L1 24L1 20L4 20L4 19L5 19L5 20L6 20L6 21L7 21L7 20L6 20L6 19L7 19L7 18L6 18L6 17L7 17L7 16L6 16L6 17L4 17L4 18L1 18L1 17L0 17L0 18L1 18L1 19L0 19L0 24L1 24L1 25L0 25L0 27L1 27L1 25L2 25L2 28L0 28L0 30L4 30L4 32L2 32L2 33L1 33L1 31L0 31L0 37L1 37L1 38L0 38L0 39L1 39L1 40L0 40L0 42L4 42L4 43L2 43L2 45L1 45L1 46L0 46L0 48L5 48L5 47L7 47L7 48L6 48L6 49L8 49L8 50L9 50L9 51L8 51L8 52L11 52L11 53L10 53L10 54L8 54L8 57L9 57L9 55L11 55L11 54L12 54L12 56L10 56L10 57L12 57L12 56L13 56L13 57L14 57L14 55L15 55L15 57L17 57L17 56L18 56L18 57L20 57L20 56L19 56L19 54L18 54L18 53L19 53L19 52L20 52L20 53L21 53L21 54L20 54L20 55L21 55L21 56L22 56L22 57L23 57L23 56L24 56L24 57L25 57L25 55L24 55L24 54L25 54L25 51L24 51L24 49L23 49L23 48L24 48L24 46L23 46L23 48L22 48L22 46L21 46L21 48L20 48L20 47L19 47L19 48L18 48L18 45L19 45L19 46L20 46L20 45L19 45L19 44L21 44L21 42L22 42L22 41L23 41L23 43L22 43L22 44L24 44L24 40L23 40L23 39L22 39L22 37L23 37L23 35L25 35L25 36L24 36L24 37L26 37L26 38L24 38L24 39L26 39L26 40L25 40L25 41L26 41L26 42L25 42L25 45L26 45L26 46L25 46L25 50L26 50L26 53L28 53L28 55L27 55L27 54L26 54L26 55L27 55L27 56L26 56L26 57L28 57L28 55L29 55L29 57L33 57L33 55L34 55L34 57L35 57L35 55L37 55L37 54L36 54L36 53L37 53L37 52L38 52L38 53L39 53L39 55L40 55L40 54L41 54L41 55L42 55L42 56L40 56L40 57L42 57L42 56L44 56L44 57L45 57L45 56L46 56L46 57L47 57L47 56L48 56L48 57L50 57L50 55L49 55L49 54L52 54L52 55L53 55L53 56L51 56L51 57L54 57L54 54L55 54L55 55L57 55L57 54L55 54L55 52L56 52L56 53L57 53L57 52L56 52L56 51L57 51L57 50L56 50L56 47L57 47L57 42L56 42L56 43L55 43L55 42L54 42L54 41L57 41L57 40L54 40L54 39L55 39L55 38L57 38L57 36L56 36L56 35L57 35L57 34L56 34L56 31L57 31L57 29L55 29L55 30L56 30L56 31L55 31L55 34L56 34L56 35L55 35L55 36L54 36L54 34L53 34L53 36L51 36L51 33L50 33L50 32L49 32L49 31L52 31L52 32L53 32L53 33L54 33L54 30L53 30L53 28L54 28L54 27L55 27L55 28L56 28L56 27L57 27L57 24L56 24L56 23L57 23L57 21L56 21L56 20L57 20L57 18L56 18L56 20L55 20L55 21L54 21L54 19L55 19L55 17L54 17L54 15L55 15L55 16L56 16L56 17L57 17L57 12L55 12L55 13L56 13L56 15L55 15L55 14L54 14L54 13L53 13L53 12L54 12L54 11L55 11L55 9L57 9L57 8L55 8L55 9L54 9L54 10L53 10L53 8L48 8L48 7L49 7L49 6L48 6L48 7L47 7L47 5L48 5L48 0L42 0L42 1L41 1L41 0L38 0L38 2L37 2L37 1L35 1L35 0L34 0L34 2L37 2L37 4L38 4L38 5L39 5L39 4L40 4L40 2L41 2L41 3L42 3L42 5L43 5L43 6L42 6L42 7L41 7L41 6L40 6L40 7L41 7L41 8L40 8L40 9L39 9L39 11L38 11L38 8L39 8L39 6L38 6L38 7L37 7L37 6L36 6L36 10L34 10L34 9L35 9L35 4L36 4L36 3L34 3L34 8L32 8L32 9L31 9L31 5L32 5L32 0L30 0L30 1L31 1L31 2L30 2L30 3L31 3L31 4L28 4L28 3L27 3L27 2L28 2L28 1L29 1L29 0L26 0L26 2L25 2L25 4L24 4L24 1L25 1L25 0L24 0L24 1L23 1L23 0L19 0L19 2L18 2L18 1L17 1L17 0L16 0L16 2L15 2L15 1L14 1L14 0L13 0L13 1L14 1L14 3L13 3L13 2L12 2L12 0L10 0L10 1L9 1L9 0ZM10 1L10 2L11 2L11 1ZM20 1L20 2L19 2L19 3L18 3L18 4L19 4L19 7L20 7L20 5L21 5L21 2L22 2L22 1ZM39 1L39 2L38 2L38 4L39 4L39 2L40 2L40 1ZM42 1L42 3L43 3L43 2L44 2L44 4L43 4L43 5L44 5L44 6L43 6L43 7L42 7L42 8L41 8L41 9L42 9L42 10L41 10L41 12L42 12L42 15L41 15L41 14L40 14L40 11L39 11L39 12L37 12L37 11L34 11L34 10L33 10L33 9L32 9L32 12L30 12L30 10L31 10L31 9L30 9L30 10L29 10L29 9L27 9L27 10L25 10L25 9L26 9L26 5L24 5L24 6L23 6L23 7L22 7L22 6L21 6L21 7L22 7L22 8L21 8L21 9L20 9L20 10L19 10L19 9L18 9L18 6L17 6L17 5L16 5L16 6L15 6L15 8L16 8L16 10L19 10L19 11L18 11L18 12L19 12L19 13L18 13L18 14L19 14L19 15L15 15L15 17L14 17L14 18L15 18L15 19L14 19L14 20L16 20L16 19L17 19L17 22L16 22L16 23L18 23L18 20L19 20L19 24L20 24L20 28L18 28L18 27L19 27L19 25L18 25L18 24L16 24L16 27L15 27L15 26L12 26L12 27L14 27L14 29L15 29L15 30L17 30L17 31L16 31L16 34L15 34L15 32L14 32L14 33L13 33L13 32L12 32L12 31L13 31L13 30L11 30L11 29L12 29L12 28L11 28L11 27L10 27L10 28L9 28L9 29L10 29L10 30L11 30L11 31L8 31L8 35L6 35L6 36L8 36L8 35L9 35L9 37L6 37L6 38L9 38L9 39L6 39L6 40L5 40L5 39L4 39L4 40L5 40L5 41L6 41L6 42L7 42L7 43L4 43L4 44L7 44L7 45L5 45L5 46L4 46L4 45L2 45L2 46L1 46L1 47L2 47L2 46L3 46L3 47L5 47L5 46L7 46L7 45L8 45L8 46L9 46L9 47L10 47L10 46L12 46L12 47L11 47L11 48L10 48L10 50L14 50L14 53L13 53L13 51L12 51L12 53L13 53L13 54L15 54L15 51L16 51L16 50L19 50L19 51L18 51L18 52L17 52L17 53L18 53L18 52L19 52L19 51L20 51L20 50L21 50L21 53L22 53L22 56L23 56L23 53L22 53L22 48L21 48L21 49L20 49L20 50L19 50L19 49L18 49L18 48L17 48L17 47L16 47L16 46L17 46L17 45L16 45L16 44L14 44L14 43L15 43L15 41L16 41L16 43L17 43L17 41L18 41L18 40L19 40L19 41L20 41L20 42L19 42L19 43L18 43L18 44L19 44L19 43L20 43L20 42L21 42L21 41L22 41L22 40L21 40L21 41L20 41L20 40L19 40L19 39L18 39L18 40L17 40L17 39L16 39L16 38L17 38L17 37L18 37L18 36L19 36L19 34L18 34L18 35L17 35L17 33L18 33L18 32L17 32L17 31L18 31L18 30L21 30L21 32L20 32L20 31L19 31L19 33L20 33L20 35L21 35L21 37L22 37L22 34L23 34L23 33L22 33L22 30L23 30L23 32L24 32L24 34L25 34L25 35L26 35L26 36L27 36L27 38L26 38L26 39L27 39L27 41L28 41L28 42L27 42L27 43L28 43L28 42L29 42L29 44L30 44L30 42L31 42L31 46L32 46L32 40L33 40L33 41L34 41L34 42L35 42L35 41L36 41L36 43L35 43L35 44L33 44L33 45L34 45L34 48L33 48L33 47L30 47L30 45L28 45L28 44L27 44L27 45L28 45L28 46L26 46L26 48L31 48L31 49L32 49L32 50L31 50L31 52L32 52L32 50L33 50L33 52L34 52L34 54L35 54L35 53L36 53L36 52L34 52L34 51L37 51L37 49L36 49L36 48L37 48L37 47L38 47L38 52L39 52L39 53L40 53L40 52L39 52L39 49L40 49L40 51L41 51L41 52L42 52L42 54L43 54L43 55L44 55L44 56L45 56L45 55L44 55L44 52L42 52L42 51L41 51L41 49L42 49L42 50L43 50L43 51L45 51L45 49L46 49L46 51L47 51L47 52L46 52L46 55L48 55L48 56L49 56L49 55L48 55L48 54L49 54L49 53L47 53L47 52L48 52L48 51L47 51L47 49L46 49L46 48L47 48L47 46L48 46L48 45L49 45L49 47L50 47L50 48L51 48L51 47L50 47L50 45L49 45L49 44L50 44L50 42L49 42L49 41L51 41L51 40L52 40L52 44L51 44L51 45L52 45L52 46L53 46L53 45L55 45L55 47L54 47L54 50L53 50L53 51L54 51L54 52L55 52L55 51L56 51L56 50L55 50L55 47L56 47L56 44L55 44L55 43L54 43L54 44L53 44L53 41L54 41L54 40L52 40L52 39L53 39L53 37L54 37L54 38L55 38L55 37L56 37L56 36L55 36L55 37L54 37L54 36L53 36L53 37L52 37L52 39L51 39L51 40L48 40L48 37L49 37L49 36L50 36L50 38L51 38L51 36L50 36L50 33L49 33L49 36L48 36L48 37L46 37L46 36L47 36L47 34L48 34L48 33L47 33L47 32L46 32L46 31L47 31L47 30L48 30L48 26L49 26L49 24L47 24L47 25L46 25L46 23L47 23L47 21L46 21L46 20L45 20L45 21L44 21L44 19L46 19L46 18L47 18L47 16L46 16L46 15L48 15L48 14L49 14L49 13L50 13L50 15L49 15L49 16L48 16L48 19L47 19L47 20L48 20L48 19L50 19L50 18L51 18L51 20L49 20L49 21L48 21L48 23L49 23L49 22L50 22L50 26L52 26L52 24L53 24L53 23L54 23L54 24L55 24L55 25L54 25L54 26L55 26L55 25L56 25L56 24L55 24L55 23L56 23L56 21L55 21L55 22L52 22L52 20L53 20L53 19L54 19L54 17L53 17L53 18L52 18L52 17L51 17L51 14L52 14L52 15L54 15L54 14L52 14L52 13L50 13L50 11L48 11L48 10L49 10L49 9L48 9L48 8L46 8L46 5L47 5L47 3L46 3L46 5L44 5L44 4L45 4L45 2L47 2L47 1ZM10 3L10 4L9 4L9 7L10 7L10 4L11 4L11 5L12 5L12 4L13 4L13 3ZM14 3L14 4L15 4L15 3ZM16 3L16 4L17 4L17 3ZM22 3L22 4L23 4L23 3ZM26 3L26 4L27 4L27 3ZM13 5L13 7L12 7L12 6L11 6L11 9L12 9L12 10L13 10L13 9L14 9L14 8L13 8L13 7L14 7L14 5ZM27 5L27 8L30 8L30 5ZM16 6L16 7L17 7L17 6ZM24 6L24 7L25 7L25 6ZM28 6L28 7L29 7L29 6ZM32 6L32 7L33 7L33 6ZM44 6L44 7L45 7L45 6ZM0 8L0 10L1 10L1 9L3 9L3 8ZM22 8L22 9L21 9L21 10L22 10L22 9L23 9L23 11L22 11L22 12L24 12L24 13L23 13L23 14L24 14L24 13L26 13L26 15L25 15L25 16L26 16L26 18L27 18L27 16L26 16L26 15L27 15L27 14L28 14L28 15L29 15L29 16L30 16L30 17L28 17L28 18L30 18L30 17L31 17L31 18L34 18L34 19L31 19L31 20L32 20L32 21L33 21L33 22L31 22L31 23L32 23L32 25L31 25L31 24L30 24L30 23L28 23L28 22L29 22L29 21L30 21L30 19L28 19L28 22L27 22L27 20L26 20L26 19L25 19L25 18L24 18L24 16L22 16L22 14L21 14L21 16L18 16L18 19L21 19L21 18L23 18L23 19L22 19L22 20L20 20L20 21L21 21L21 22L20 22L20 23L21 23L21 22L22 22L22 26L21 26L21 30L22 30L22 29L23 29L23 30L24 30L24 28L25 28L25 30L26 30L26 32L28 32L28 31L29 31L29 34L28 34L28 33L26 33L26 34L28 34L28 35L27 35L27 36L28 36L28 37L29 37L29 36L28 36L28 35L31 35L31 36L30 36L30 40L29 40L29 42L30 42L30 41L31 41L31 38L33 38L33 39L34 39L34 41L35 41L35 39L34 39L34 36L35 36L35 35L36 35L36 37L35 37L35 38L36 38L36 41L37 41L37 42L38 42L38 41L39 41L39 40L40 40L40 41L41 41L41 42L40 42L40 43L41 43L41 42L42 42L42 43L43 43L43 42L42 42L42 41L41 41L41 40L42 40L42 35L40 35L40 36L39 36L39 38L38 38L38 37L37 37L37 36L38 36L38 35L39 35L39 34L38 34L38 33L39 33L39 32L40 32L40 34L42 34L42 33L43 33L43 35L44 35L44 38L43 38L43 39L44 39L44 43L45 43L45 44L44 44L44 46L43 46L43 47L44 47L44 49L43 49L43 50L44 50L44 49L45 49L45 47L46 47L46 44L47 44L47 45L48 45L48 44L49 44L49 43L48 43L48 44L47 44L47 43L46 43L46 40L47 40L47 41L48 41L48 40L47 40L47 38L46 38L46 37L45 37L45 35L46 35L46 32L45 32L45 31L46 31L46 30L45 30L45 31L42 31L42 28L43 28L43 30L44 30L44 29L46 29L46 28L47 28L47 26L46 26L46 25L45 25L45 24L44 24L44 25L45 25L45 27L41 27L41 26L42 26L42 25L43 25L43 24L42 24L42 23L43 23L43 22L44 22L44 23L45 23L45 22L44 22L44 21L43 21L43 20L42 20L42 19L44 19L44 17L45 17L45 18L46 18L46 16L44 16L44 15L46 15L46 13L47 13L47 14L48 14L48 12L47 12L47 11L46 11L46 13L45 13L45 12L44 12L44 11L43 11L43 10L42 10L42 12L44 12L44 13L43 13L43 14L44 14L44 15L43 15L43 16L44 16L44 17L43 17L43 18L42 18L42 17L41 17L41 15L40 15L40 14L39 14L39 15L40 15L40 18L38 18L38 16L37 16L37 15L38 15L38 13L37 13L37 12L36 12L36 13L35 13L35 12L34 12L34 11L33 11L33 12L32 12L32 13L31 13L31 16L30 16L30 15L29 15L29 13L30 13L30 12L29 12L29 10L28 10L28 12L27 12L27 13L26 13L26 11L24 11L24 8ZM44 8L44 10L46 10L46 9L45 9L45 8ZM47 9L47 10L48 10L48 9ZM50 9L50 10L51 10L51 12L52 12L52 11L53 11L53 10L51 10L51 9ZM56 10L56 11L57 11L57 10ZM20 11L20 13L19 13L19 14L20 14L20 13L21 13L21 11ZM32 13L32 16L31 16L31 17L32 17L32 16L33 16L33 17L34 17L34 18L36 18L36 19L37 19L37 18L36 18L36 14L35 14L35 13L34 13L34 15L33 15L33 13ZM44 13L44 14L45 14L45 13ZM34 15L34 17L35 17L35 15ZM9 16L9 17L11 17L11 16ZM49 16L49 18L50 18L50 16ZM20 17L20 18L21 18L21 17ZM5 18L5 19L6 19L6 18ZM12 18L12 19L11 19L11 20L10 20L10 19L9 19L9 20L10 20L10 22L13 22L13 24L14 24L14 23L15 23L15 21L14 21L14 22L13 22L13 20L12 20L12 19L13 19L13 18ZM40 18L40 19L39 19L39 20L37 20L37 21L36 21L36 20L35 20L35 21L34 21L34 20L33 20L33 21L34 21L34 22L33 22L33 24L34 24L34 26L33 26L33 25L32 25L32 28L31 28L31 32L30 32L30 34L31 34L31 33L32 33L32 35L33 35L33 36L34 36L34 35L33 35L33 33L34 33L34 34L35 34L35 33L36 33L36 35L38 35L38 34L37 34L37 33L36 33L36 31L37 31L37 32L38 32L38 31L40 31L40 32L41 32L41 33L42 33L42 31L40 31L40 30L39 30L39 29L40 29L40 28L41 28L41 27L40 27L40 26L41 26L41 25L42 25L42 24L41 24L41 25L40 25L40 26L39 26L39 25L38 25L38 22L39 22L39 23L42 23L42 22L43 22L43 21L42 21L42 22L40 22L40 19L41 19L41 18ZM24 19L24 20L25 20L25 21L26 21L26 20L25 20L25 19ZM11 20L11 21L12 21L12 20ZM35 21L35 22L34 22L34 24L36 24L36 26L37 26L37 28L36 28L36 27L34 27L34 29L33 29L33 28L32 28L32 29L33 29L33 31L34 31L34 29L35 29L35 30L37 30L37 31L38 31L38 30L37 30L37 28L38 28L38 29L39 29L39 26L38 26L38 25L37 25L37 24L36 24L36 23L37 23L37 22L38 22L38 21L37 21L37 22L36 22L36 21ZM24 22L24 23L25 23L25 22ZM26 22L26 23L27 23L27 25L26 25L26 26L27 26L27 25L28 25L28 23L27 23L27 22ZM35 22L35 23L36 23L36 22ZM51 22L51 23L52 23L52 22ZM29 24L29 26L31 26L31 25L30 25L30 24ZM17 25L17 26L18 26L18 25ZM24 25L24 26L25 26L25 25ZM3 27L3 28L4 28L4 27ZM5 27L5 30L8 30L8 27ZM16 27L16 28L17 28L17 27ZM22 27L22 28L23 28L23 27ZM27 27L27 30L30 30L30 27ZM49 27L49 30L52 30L52 27ZM6 28L6 29L7 29L7 28ZM28 28L28 29L29 29L29 28ZM35 28L35 29L36 29L36 28ZM50 28L50 29L51 29L51 28ZM5 31L5 33L4 33L4 34L1 34L1 36L2 36L2 38L5 38L5 37L3 37L3 36L5 36L5 34L7 34L7 33L6 33L6 32L7 32L7 31ZM9 32L9 33L10 33L10 34L11 34L11 36L10 36L10 37L11 37L11 38L10 38L10 40L9 40L9 41L8 41L8 40L6 40L6 41L8 41L8 42L9 42L9 43L7 43L7 44L8 44L8 45L12 45L12 46L14 46L14 47L13 47L13 49L14 49L14 50L15 50L15 46L16 46L16 45L15 45L15 46L14 46L14 44L9 44L9 43L11 43L11 41L12 41L12 42L14 42L14 41L15 41L15 40L14 40L14 39L13 39L13 38L12 38L12 37L11 37L11 36L12 36L12 35L13 35L13 37L15 37L15 35L14 35L14 34L13 34L13 33L11 33L11 32ZM32 32L32 33L33 33L33 32ZM2 35L2 36L3 36L3 35ZM16 36L16 37L17 37L17 36ZM31 36L31 37L32 37L32 36ZM36 37L36 38L37 38L37 41L38 41L38 38L37 38L37 37ZM20 38L20 39L21 39L21 38ZM28 38L28 39L29 39L29 38ZM39 38L39 39L40 39L40 40L41 40L41 39L40 39L40 38ZM2 39L2 40L3 40L3 39ZM11 39L11 40L12 40L12 39ZM13 40L13 41L14 41L14 40ZM37 43L37 44L36 44L36 45L37 45L37 46L35 46L35 47L37 47L37 46L38 46L38 45L37 45L37 44L39 44L39 43ZM40 44L40 45L39 45L39 46L41 46L41 47L40 47L40 49L41 49L41 47L42 47L42 45L43 45L43 44L42 44L42 45L41 45L41 44ZM44 46L44 47L45 47L45 46ZM8 48L8 49L9 49L9 48ZM11 48L11 49L12 49L12 48ZM32 48L32 49L33 49L33 48ZM27 49L27 52L30 52L30 49ZM49 49L49 52L52 52L52 49ZM28 50L28 51L29 51L29 50ZM50 50L50 51L51 51L51 50ZM23 51L23 52L24 52L24 51ZM31 53L31 54L30 54L30 55L33 55L33 54L32 54L32 53ZM53 53L53 54L54 54L54 53ZM16 54L16 55L18 55L18 54ZM36 56L36 57L37 57L37 56ZM56 56L56 57L57 57L57 56ZM0 0L0 7L7 7L7 0ZM1 1L1 6L6 6L6 1ZM2 2L2 5L5 5L5 2ZM50 0L50 7L57 7L57 0ZM51 1L51 6L56 6L56 1ZM52 2L52 5L55 5L55 2ZM0 50L0 57L7 57L7 50ZM1 51L1 56L6 56L6 51ZM2 52L2 55L5 55L5 52Z" fill="#000000"/></g></g></svg>
