<?xml version="1.0" encoding="UTF-8"?>
<svg xmlns="http://www.w3.org/2000/svg" version="1.1" width="300" height="300" viewBox="0 0 300 300"><rect x="0" y="0" width="300" height="300" fill="#fefefe"/><g transform="scale(4.615)"><g transform="translate(4,4)"><path fill-rule="evenodd" d="M10 0L10 2L9 2L9 1L8 1L8 2L9 2L9 3L8 3L8 4L9 4L9 5L8 5L8 7L9 7L9 6L10 6L10 7L11 7L11 6L12 6L12 8L11 8L11 9L10 9L10 8L6 8L6 9L10 9L10 10L11 10L11 12L12 12L12 11L14 11L14 12L13 12L13 13L15 13L15 14L12 14L12 13L11 13L11 14L12 14L12 15L13 15L13 17L10 17L10 20L11 20L11 19L12 19L12 21L11 21L11 22L12 22L12 21L13 21L13 22L14 22L14 23L16 23L16 24L15 24L15 25L16 25L16 24L17 24L17 25L21 25L21 27L20 27L20 26L19 26L19 29L18 29L18 28L16 28L16 29L13 29L13 28L12 28L12 27L13 27L13 25L14 25L14 24L13 24L13 23L11 23L11 24L10 24L10 21L9 21L9 20L8 20L8 21L9 21L9 22L8 22L8 23L7 23L7 22L6 22L6 21L7 21L7 20L6 20L6 19L9 19L9 17L7 17L7 16L8 16L8 14L6 14L6 13L7 13L7 12L6 12L6 11L8 11L8 13L9 13L9 14L10 14L10 12L9 12L9 10L6 10L6 11L4 11L4 10L5 10L5 8L0 8L0 9L1 9L1 10L0 10L0 11L1 11L1 12L0 12L0 17L1 17L1 15L2 15L2 18L1 18L1 20L3 20L3 21L2 21L2 22L3 22L3 21L4 21L4 23L7 23L7 24L6 24L6 25L7 25L7 24L8 24L8 26L5 26L5 24L3 24L3 25L2 25L2 26L3 26L3 25L4 25L4 32L2 32L2 31L1 31L1 32L0 32L0 43L1 43L1 44L0 44L0 48L5 48L5 47L8 47L8 48L9 48L9 49L8 49L8 51L9 51L9 52L8 52L8 57L9 57L9 55L10 55L10 56L11 56L11 57L13 57L13 56L14 56L14 57L16 57L16 56L17 56L17 57L21 57L21 56L24 56L24 57L26 57L26 56L27 56L27 57L29 57L29 56L30 56L30 57L31 57L31 56L35 56L35 57L39 57L39 56L37 56L37 55L40 55L40 56L42 56L42 55L43 55L43 57L44 57L44 54L45 54L45 53L44 53L44 52L45 52L45 51L46 51L46 53L47 53L47 51L46 51L46 50L45 50L45 49L46 49L46 48L45 48L45 49L44 49L44 48L43 48L43 47L44 47L44 46L43 46L43 45L44 45L44 43L45 43L45 41L47 41L47 39L48 39L48 37L49 37L49 38L50 38L50 37L49 37L49 36L48 36L48 37L47 37L47 36L46 36L46 35L47 35L47 34L45 34L45 35L44 35L44 33L43 33L43 32L45 32L45 31L47 31L47 32L48 32L48 33L49 33L49 32L50 32L50 34L49 34L49 35L50 35L50 36L52 36L52 35L53 35L53 40L52 40L52 38L51 38L51 39L49 39L49 41L48 41L48 42L46 42L46 44L45 44L45 45L47 45L47 46L45 46L45 47L47 47L47 48L48 48L48 49L47 49L47 50L48 50L48 54L47 54L47 55L45 55L45 57L47 57L47 56L48 56L48 57L49 57L49 56L50 56L50 57L52 57L52 55L51 55L51 53L52 53L52 54L53 54L53 55L54 55L54 56L53 56L53 57L54 57L54 56L55 56L55 57L56 57L56 56L55 56L55 53L57 53L57 51L56 51L56 50L55 50L55 48L56 48L56 49L57 49L57 48L56 48L56 46L57 46L57 43L56 43L56 41L55 41L55 39L57 39L57 37L56 37L56 35L53 35L53 34L52 34L52 33L54 33L54 34L57 34L57 32L56 32L56 30L57 30L57 29L56 29L56 27L55 27L55 26L57 26L57 25L56 25L56 22L57 22L57 21L56 21L56 16L57 16L57 15L56 15L56 14L57 14L57 13L56 13L56 8L55 8L55 10L54 10L54 11L52 11L52 10L53 10L53 9L54 9L54 8L53 8L53 9L52 9L52 8L51 8L51 9L52 9L52 10L50 10L50 8L49 8L49 9L47 9L47 8L45 8L45 9L44 9L44 8L43 8L43 6L44 6L44 7L45 7L45 6L46 6L46 7L47 7L47 5L48 5L48 0L46 0L46 1L45 1L45 2L44 2L44 3L43 3L43 4L40 4L40 5L39 5L39 6L38 6L38 8L35 8L35 5L36 5L36 7L37 7L37 5L38 5L38 4L39 4L39 3L42 3L42 2L43 2L43 0L41 0L41 1L40 1L40 0L39 0L39 1L38 1L38 0L37 0L37 1L38 1L38 4L37 4L37 3L36 3L36 0L35 0L35 1L32 1L32 3L31 3L31 0L27 0L27 1L26 1L26 0L23 0L23 2L22 2L22 3L23 3L23 4L22 4L22 5L21 5L21 4L19 4L19 2L20 2L20 0L18 0L18 2L17 2L17 4L19 4L19 5L20 5L20 7L19 7L19 6L18 6L18 7L19 7L19 8L16 8L16 7L17 7L17 6L16 6L16 7L15 7L15 6L14 6L14 5L11 5L11 6L10 6L10 4L9 4L9 3L11 3L11 4L12 4L12 2L11 2L11 1L12 1L12 0ZM21 0L21 1L22 1L22 0ZM14 1L14 2L13 2L13 4L14 4L14 2L15 2L15 3L16 3L16 2L15 2L15 1ZM25 1L25 2L23 2L23 3L26 3L26 4L25 4L25 8L24 8L24 6L23 6L23 5L24 5L24 4L23 4L23 5L22 5L22 6L21 6L21 7L22 7L22 6L23 6L23 8L20 8L20 10L19 10L19 11L20 11L20 12L19 12L19 13L20 13L20 14L21 14L21 13L22 13L22 14L23 14L23 15L20 15L20 16L19 16L19 17L20 17L20 18L17 18L17 17L16 17L16 16L18 16L18 15L17 15L17 13L18 13L18 12L17 12L17 13L16 13L16 12L15 12L15 13L16 13L16 16L15 16L15 15L14 15L14 17L13 17L13 19L14 19L14 20L13 20L13 21L14 21L14 22L16 22L16 21L17 21L17 19L18 19L18 20L20 20L20 21L19 21L19 22L20 22L20 23L19 23L19 24L21 24L21 25L23 25L23 24L21 24L21 21L24 21L24 22L23 22L23 23L24 23L24 24L25 24L25 25L26 25L26 26L22 26L22 27L21 27L21 28L22 28L22 29L20 29L20 30L19 30L19 31L18 31L18 29L16 29L16 31L15 31L15 34L16 34L16 35L14 35L14 34L13 34L13 35L11 35L11 34L10 34L10 33L11 33L11 32L12 32L12 30L13 30L13 33L14 33L14 30L13 30L13 29L12 29L12 28L11 28L11 29L10 29L10 30L9 30L9 32L7 32L7 31L6 31L6 32L4 32L4 33L2 33L2 32L1 32L1 36L3 36L3 37L1 37L1 41L3 41L3 43L4 43L4 41L5 41L5 42L7 42L7 43L5 43L5 46L3 46L3 47L5 47L5 46L7 46L7 45L6 45L6 44L7 44L7 43L8 43L8 45L9 45L9 43L10 43L10 41L11 41L11 40L12 40L12 41L13 41L13 40L12 40L12 39L11 39L11 37L12 37L12 38L13 38L13 39L14 39L14 41L15 41L15 42L14 42L14 43L13 43L13 42L12 42L12 43L13 43L13 44L12 44L12 45L11 45L11 46L10 46L10 48L11 48L11 52L10 52L10 53L9 53L9 54L10 54L10 55L11 55L11 56L12 56L12 55L14 55L14 56L16 56L16 55L15 55L15 54L16 54L16 53L17 53L17 52L19 52L19 51L17 51L17 50L19 50L19 49L20 49L20 51L21 51L21 52L20 52L20 53L19 53L19 54L20 54L20 55L19 55L19 56L21 56L21 55L22 55L22 54L23 54L23 55L24 55L24 56L26 56L26 54L27 54L27 56L29 56L29 55L30 55L30 56L31 56L31 54L32 54L32 53L33 53L33 55L35 55L35 56L36 56L36 54L35 54L35 53L34 53L34 52L35 52L35 51L33 51L33 52L32 52L32 50L36 50L36 52L37 52L37 51L38 51L38 53L37 53L37 54L40 54L40 53L41 53L41 52L40 52L40 51L38 51L38 50L41 50L41 51L42 51L42 50L41 50L41 48L42 48L42 49L43 49L43 50L44 50L44 51L45 51L45 50L44 50L44 49L43 49L43 48L42 48L42 47L43 47L43 46L41 46L41 48L39 48L39 47L38 47L38 48L37 48L37 49L38 49L38 50L36 50L36 49L35 49L35 48L36 48L36 45L34 45L34 43L37 43L37 42L35 42L35 40L38 40L38 42L39 42L39 41L42 41L42 40L44 40L44 41L43 41L43 43L44 43L44 41L45 41L45 40L46 40L46 39L47 39L47 37L45 37L45 36L44 36L44 35L43 35L43 34L42 34L42 35L41 35L41 36L40 36L40 37L38 37L38 36L39 36L39 35L40 35L40 34L39 34L39 33L41 33L41 32L43 32L43 30L41 30L41 29L43 29L43 27L44 27L44 26L41 26L41 25L43 25L43 23L41 23L41 24L40 24L40 22L39 22L39 21L41 21L41 20L39 20L39 21L38 21L38 20L37 20L37 19L39 19L39 17L41 17L41 16L42 16L42 17L43 17L43 16L42 16L42 15L44 15L44 18L43 18L43 19L42 19L42 18L41 18L41 19L42 19L42 20L44 20L44 25L45 25L45 26L46 26L46 27L45 27L45 28L44 28L44 31L45 31L45 28L46 28L46 27L47 27L47 26L48 26L48 25L50 25L50 26L51 26L51 25L54 25L54 24L53 24L53 23L55 23L55 22L56 22L56 21L55 21L55 20L53 20L53 19L52 19L52 20L51 20L51 21L49 21L49 20L48 20L48 21L49 21L49 23L47 23L47 24L46 24L46 22L47 22L47 21L46 21L46 20L47 20L47 19L46 19L46 18L47 18L47 17L48 17L48 16L49 16L49 17L50 17L50 18L48 18L48 19L51 19L51 17L53 17L53 18L55 18L55 17L53 17L53 16L51 16L51 17L50 17L50 14L51 14L51 12L50 12L50 10L47 10L47 9L45 9L45 10L47 10L47 12L45 12L45 11L44 11L44 9L43 9L43 8L42 8L42 9L43 9L43 11L42 11L42 10L41 10L41 7L42 7L42 6L43 6L43 5L40 5L40 6L39 6L39 8L38 8L38 10L39 10L39 9L40 9L40 11L41 11L41 12L39 12L39 13L38 13L38 14L37 14L37 13L35 13L35 12L36 12L36 10L37 10L37 9L35 9L35 8L34 8L34 9L33 9L33 7L34 7L34 5L35 5L35 3L32 3L32 4L31 4L31 8L32 8L32 10L29 10L29 9L27 9L27 10L28 10L28 11L29 11L29 12L28 12L28 13L26 13L26 12L27 12L27 11L26 11L26 12L25 12L25 11L23 11L23 13L22 13L22 12L21 12L21 11L22 11L22 10L24 10L24 9L25 9L25 8L26 8L26 4L30 4L30 3L28 3L28 1L27 1L27 2L26 2L26 1ZM29 1L29 2L30 2L30 1ZM46 1L46 2L47 2L47 1ZM44 3L44 6L45 6L45 5L47 5L47 3ZM15 4L15 5L16 5L16 4ZM32 4L32 5L34 5L34 4ZM36 4L36 5L37 5L37 4ZM27 5L27 8L30 8L30 5ZM13 6L13 8L12 8L12 9L11 9L11 10L12 10L12 9L13 9L13 10L15 10L15 11L18 11L18 10L17 10L17 9L16 9L16 8L15 8L15 7L14 7L14 6ZM28 6L28 7L29 7L29 6ZM32 6L32 7L33 7L33 6ZM40 6L40 7L41 7L41 6ZM48 6L48 7L49 7L49 6ZM13 8L13 9L14 9L14 8ZM23 8L23 9L24 9L24 8ZM2 9L2 10L1 10L1 11L2 11L2 13L1 13L1 14L3 14L3 12L4 12L4 13L5 13L5 12L4 12L4 11L3 11L3 10L4 10L4 9ZM15 9L15 10L16 10L16 9ZM21 9L21 10L22 10L22 9ZM32 10L32 11L33 11L33 10ZM48 11L48 12L49 12L49 13L47 13L47 14L45 14L45 13L44 13L44 12L43 12L43 13L41 13L41 14L40 14L40 13L39 13L39 14L38 14L38 15L39 15L39 16L38 16L38 17L37 17L37 16L35 16L35 14L32 14L32 12L31 12L31 13L30 13L30 14L29 14L29 13L28 13L28 14L29 14L29 16L28 16L28 15L27 15L27 14L26 14L26 15L25 15L25 17L22 17L22 16L20 16L20 17L22 17L22 18L21 18L21 20L22 20L22 19L23 19L23 20L24 20L24 21L25 21L25 22L26 22L26 23L25 23L25 24L27 24L27 23L29 23L29 25L27 25L27 26L26 26L26 27L25 27L25 28L23 28L23 30L24 30L24 32L25 32L25 31L26 31L26 32L28 32L28 33L29 33L29 34L30 34L30 36L29 36L29 37L31 37L31 38L29 38L29 39L33 39L33 40L35 40L35 39L38 39L38 40L39 40L39 39L38 39L38 37L37 37L37 36L35 36L35 34L37 34L37 35L38 35L38 33L37 33L37 32L35 32L35 34L34 34L34 33L33 33L33 34L34 34L34 36L33 36L33 35L31 35L31 33L32 33L32 32L33 32L33 31L35 31L35 30L37 30L37 29L38 29L38 28L42 28L42 27L40 27L40 26L39 26L39 27L37 27L37 28L35 28L35 27L36 27L36 26L34 26L34 27L33 27L33 26L32 26L32 24L33 24L33 25L37 25L37 26L38 26L38 24L39 24L39 25L40 25L40 24L39 24L39 22L37 22L37 20L36 20L36 19L35 19L35 23L34 23L34 22L33 22L33 23L32 23L32 24L31 24L31 23L30 23L30 22L31 22L31 21L32 21L32 20L33 20L33 19L32 19L32 16L31 16L31 15L33 15L33 16L35 16L35 17L37 17L37 18L38 18L38 17L39 17L39 16L41 16L41 14L43 14L43 13L44 13L44 15L45 15L45 18L44 18L44 20L45 20L45 18L46 18L46 16L48 16L48 15L49 15L49 14L50 14L50 12L49 12L49 11ZM20 12L20 13L21 13L21 12ZM24 12L24 13L23 13L23 14L25 14L25 12ZM33 12L33 13L34 13L34 12ZM52 12L52 13L53 13L53 14L54 14L54 13L55 13L55 14L56 14L56 13L55 13L55 12L54 12L54 13L53 13L53 12ZM4 14L4 15L3 15L3 16L4 16L4 18L2 18L2 19L3 19L3 20L4 20L4 21L6 21L6 20L4 20L4 19L5 19L5 18L7 18L7 17L6 17L6 16L7 16L7 15L6 15L6 14ZM30 14L30 15L31 15L31 14ZM4 15L4 16L5 16L5 15ZM9 15L9 16L10 16L10 15ZM26 15L26 17L25 17L25 19L26 19L26 20L25 20L25 21L31 21L31 20L29 20L29 19L28 19L28 18L27 18L27 19L26 19L26 17L28 17L28 16L27 16L27 15ZM14 17L14 18L15 18L15 21L16 21L16 19L17 19L17 18L15 18L15 17ZM23 18L23 19L24 19L24 18ZM30 18L30 19L31 19L31 18ZM27 19L27 20L28 20L28 19ZM0 21L0 23L1 23L1 21ZM45 21L45 22L46 22L46 21ZM51 21L51 22L50 22L50 23L49 23L49 24L50 24L50 25L51 25L51 23L53 23L53 21ZM8 23L8 24L9 24L9 25L10 25L10 26L9 26L9 27L11 27L11 25L10 25L10 24L9 24L9 23ZM17 23L17 24L18 24L18 23ZM37 23L37 24L38 24L38 23ZM12 24L12 25L13 25L13 24ZM30 24L30 25L29 25L29 26L30 26L30 25L31 25L31 24ZM45 24L45 25L46 25L46 24ZM47 24L47 25L48 25L48 24ZM0 25L0 26L1 26L1 25ZM15 26L15 27L14 27L14 28L15 28L15 27L16 27L16 26ZM17 26L17 27L18 27L18 26ZM31 26L31 28L32 28L32 29L31 29L31 31L30 31L30 32L29 32L29 33L31 33L31 32L32 32L32 31L33 31L33 30L35 30L35 28L33 28L33 27L32 27L32 26ZM53 26L53 27L54 27L54 26ZM5 27L5 30L8 30L8 27ZM27 27L27 30L30 30L30 27ZM49 27L49 30L52 30L52 27ZM0 28L0 29L1 29L1 30L2 30L2 29L3 29L3 28ZM6 28L6 29L7 29L7 28ZM25 28L25 29L26 29L26 28ZM28 28L28 29L29 29L29 28ZM47 28L47 29L46 29L46 30L47 30L47 31L48 31L48 32L49 32L49 31L48 31L48 28ZM50 28L50 29L51 29L51 28ZM54 28L54 29L53 29L53 31L52 31L52 32L51 32L51 31L50 31L50 32L51 32L51 33L52 33L52 32L53 32L53 31L55 31L55 30L54 30L54 29L55 29L55 28ZM11 29L11 30L10 30L10 32L11 32L11 30L12 30L12 29ZM39 29L39 30L38 30L38 32L39 32L39 30L40 30L40 29ZM21 31L21 32L17 32L17 34L18 34L18 35L20 35L20 36L23 36L23 37L19 37L19 36L18 36L18 37L17 37L17 38L18 38L18 37L19 37L19 38L20 38L20 39L19 39L19 40L18 40L18 39L17 39L17 40L18 40L18 41L17 41L17 42L16 42L16 44L18 44L18 45L17 45L17 46L19 46L19 47L17 47L17 48L16 48L16 47L15 47L15 46L14 46L14 44L15 44L15 43L14 43L14 44L13 44L13 47L14 47L14 49L13 49L13 48L12 48L12 47L11 47L11 48L12 48L12 51L14 51L14 52L11 52L11 54L12 54L12 53L14 53L14 52L15 52L15 53L16 53L16 51L14 51L14 50L15 50L15 49L19 49L19 48L20 48L20 45L21 45L21 47L23 47L23 49L21 49L21 51L22 51L22 52L23 52L23 51L22 51L22 50L26 50L26 52L24 52L24 53L23 53L23 54L24 54L24 53L25 53L25 54L26 54L26 53L27 53L27 54L30 54L30 53L31 53L31 49L32 49L32 48L34 48L34 47L35 47L35 46L32 46L32 45L31 45L31 44L33 44L33 43L34 43L34 42L33 42L33 41L32 41L32 40L30 40L30 41L29 41L29 40L28 40L28 39L27 39L27 38L28 38L28 37L27 37L27 35L26 35L26 34L27 34L27 33L26 33L26 34L25 34L25 33L23 33L23 34L22 34L22 33L21 33L21 32L23 32L23 31ZM6 32L6 33L7 33L7 34L5 34L5 33L4 33L4 34L3 34L3 35L4 35L4 37L3 37L3 39L2 39L2 40L3 40L3 41L4 41L4 40L5 40L5 41L8 41L8 40L5 40L5 39L4 39L4 37L5 37L5 38L6 38L6 39L9 39L9 38L10 38L10 37L11 37L11 35L10 35L10 34L9 34L9 33L7 33L7 32ZM55 32L55 33L56 33L56 32ZM19 33L19 34L20 34L20 35L21 35L21 33ZM23 34L23 36L24 36L24 34ZM50 34L50 35L52 35L52 34ZM5 35L5 36L7 36L7 37L6 37L6 38L7 38L7 37L8 37L8 38L9 38L9 37L8 37L8 35ZM13 35L13 36L14 36L14 35ZM16 35L16 36L17 36L17 35ZM32 36L32 37L33 37L33 39L35 39L35 37L33 37L33 36ZM41 36L41 37L40 37L40 38L41 38L41 40L42 40L42 38L43 38L43 37L44 37L44 38L45 38L45 39L44 39L44 40L45 40L45 39L46 39L46 38L45 38L45 37L44 37L44 36ZM15 37L15 38L14 38L14 39L15 39L15 40L16 40L16 39L15 39L15 38L16 38L16 37ZM23 37L23 38L24 38L24 37ZM25 37L25 38L27 38L27 37ZM41 37L41 38L42 38L42 37ZM54 38L54 39L55 39L55 38ZM3 39L3 40L4 40L4 39ZM10 39L10 40L11 40L11 39ZM23 39L23 40L19 40L19 41L18 41L18 42L17 42L17 43L18 43L18 42L19 42L19 44L20 44L20 42L21 42L21 43L22 43L22 42L23 42L23 40L24 40L24 41L25 41L25 43L24 43L24 45L25 45L25 46L23 46L23 45L22 45L22 44L21 44L21 45L22 45L22 46L23 46L23 47L25 47L25 48L24 48L24 49L26 49L26 48L29 48L29 45L30 45L30 46L31 46L31 47L32 47L32 46L31 46L31 45L30 45L30 44L31 44L31 43L29 43L29 45L27 45L27 44L25 44L25 43L27 43L27 42L29 42L29 41L27 41L27 39L25 39L25 40L24 40L24 39ZM53 40L53 41L51 41L51 42L50 42L50 43L48 43L48 44L47 44L47 45L48 45L48 46L50 46L50 47L48 47L48 48L53 48L53 49L54 49L54 48L53 48L53 47L54 47L54 46L56 46L56 43L55 43L55 44L54 44L54 45L53 45L53 43L54 43L54 42L53 42L53 41L54 41L54 40ZM19 41L19 42L20 42L20 41ZM21 41L21 42L22 42L22 41ZM26 41L26 42L27 42L27 41ZM30 41L30 42L32 42L32 43L33 43L33 42L32 42L32 41ZM41 42L41 43L39 43L39 45L38 45L38 46L39 46L39 45L41 45L41 44L42 44L42 42ZM51 42L51 43L50 43L50 44L51 44L51 45L50 45L50 46L51 46L51 47L53 47L53 46L51 46L51 45L52 45L52 44L51 44L51 43L53 43L53 42ZM1 44L1 47L2 47L2 45L3 45L3 44ZM48 44L48 45L49 45L49 44ZM26 45L26 47L28 47L28 46L27 46L27 45ZM8 46L8 47L9 47L9 46ZM6 48L6 49L7 49L7 48ZM38 48L38 49L39 49L39 48ZM9 49L9 50L10 50L10 49ZM27 49L27 52L30 52L30 49ZM49 49L49 52L52 52L52 49ZM28 50L28 51L29 51L29 50ZM50 50L50 51L51 51L51 50ZM54 50L54 51L55 51L55 50ZM53 52L53 53L54 53L54 52ZM21 53L21 54L22 54L22 53ZM43 53L43 54L44 54L44 53ZM17 54L17 55L18 55L18 54ZM50 55L50 56L51 56L51 55ZM0 0L0 7L7 7L7 0ZM1 1L1 6L6 6L6 1ZM2 2L2 5L5 5L5 2ZM50 0L50 7L57 7L57 0ZM51 1L51 6L56 6L56 1ZM52 2L52 5L55 5L55 2ZM0 50L0 57L7 57L7 50ZM1 51L1 56L6 56L6 51ZM2 52L2 55L5 55L5 52Z" fill="#000000"/></g></g></svg>
