<?xml version="1.0" encoding="UTF-8"?>
<svg xmlns="http://www.w3.org/2000/svg" version="1.1" width="300" height="300" viewBox="0 0 300 300"><rect x="0" y="0" width="300" height="300" fill="#fefefe"/><g transform="scale(4.615)"><g transform="translate(4,4)"><path fill-rule="evenodd" d="M15 0L15 1L14 1L14 2L13 2L13 1L11 1L11 4L12 4L12 5L10 5L10 7L9 7L9 4L10 4L10 2L9 2L9 1L8 1L8 3L9 3L9 4L8 4L8 8L6 8L6 9L8 9L8 8L10 8L10 12L9 12L9 13L8 13L8 14L4 14L4 12L3 12L3 14L2 14L2 13L1 13L1 12L2 12L2 11L5 11L5 13L7 13L7 12L8 12L8 10L5 10L5 9L4 9L4 8L3 8L3 9L2 9L2 8L0 8L0 9L1 9L1 10L0 10L0 13L1 13L1 14L2 14L2 15L3 15L3 16L2 16L2 17L4 17L4 18L2 18L2 19L4 19L4 18L5 18L5 20L0 20L0 21L5 21L5 23L4 23L4 22L1 22L1 24L0 24L0 25L1 25L1 26L2 26L2 28L3 28L3 26L2 26L2 25L4 25L4 29L1 29L1 28L0 28L0 29L1 29L1 30L0 30L0 31L1 31L1 32L0 32L0 40L1 40L1 41L2 41L2 42L1 42L1 44L0 44L0 45L1 45L1 46L0 46L0 48L5 48L5 47L8 47L8 48L6 48L6 49L8 49L8 51L9 51L9 52L10 52L10 51L11 51L11 52L12 52L12 51L14 51L14 53L13 53L13 54L14 54L14 55L12 55L12 56L14 56L14 57L15 57L15 54L14 54L14 53L15 53L15 50L13 50L13 49L14 49L14 46L15 46L15 48L16 48L16 50L17 50L17 51L18 51L18 52L17 52L17 53L16 53L16 54L18 54L18 55L17 55L17 56L16 56L16 57L17 57L17 56L18 56L18 57L19 57L19 55L21 55L21 53L22 53L22 52L24 52L24 53L23 53L23 54L25 54L25 55L24 55L24 56L23 56L23 55L22 55L22 56L20 56L20 57L26 57L26 56L27 56L27 55L28 55L28 56L29 56L29 57L31 57L31 56L33 56L33 57L35 57L35 56L36 56L36 57L42 57L42 56L43 56L43 57L44 57L44 56L43 56L43 55L45 55L45 54L44 54L44 53L46 53L46 52L48 52L48 53L52 53L52 54L51 54L51 56L50 56L50 54L47 54L47 55L46 55L46 57L48 57L48 56L47 56L47 55L49 55L49 56L50 56L50 57L51 57L51 56L52 56L52 57L53 57L53 56L54 56L54 55L55 55L55 54L56 54L56 55L57 55L57 52L56 52L56 50L55 50L55 52L54 52L54 54L53 54L53 49L54 49L54 48L49 48L49 47L52 47L52 46L50 46L50 45L51 45L51 42L44 42L44 41L45 41L45 40L46 40L46 41L47 41L47 40L51 40L51 39L50 39L50 38L51 38L51 37L52 37L52 39L55 39L55 40L52 40L52 41L53 41L53 42L54 42L54 43L57 43L57 40L56 40L56 39L57 39L57 36L54 36L54 35L53 35L53 34L54 34L54 32L53 32L53 34L52 34L52 32L51 32L51 31L53 31L53 30L54 30L54 28L53 28L53 27L55 27L55 29L56 29L56 28L57 28L57 27L56 27L56 26L57 26L57 21L56 21L56 19L57 19L57 18L56 18L56 19L55 19L55 16L53 16L53 17L52 17L52 15L51 15L51 14L52 14L52 13L53 13L53 14L54 14L54 11L55 11L55 9L56 9L56 8L54 8L54 9L53 9L53 8L50 8L50 9L52 9L52 10L54 10L54 11L51 11L51 10L50 10L50 11L49 11L49 10L48 10L48 11L47 11L47 10L46 10L46 11L43 11L43 10L41 10L41 11L40 11L40 12L39 12L39 13L40 13L40 14L38 14L38 12L37 12L37 8L38 8L38 9L39 9L39 10L38 10L38 11L39 11L39 10L40 10L40 9L41 9L41 6L40 6L40 5L42 5L42 7L43 7L43 3L41 3L41 4L38 4L38 5L37 5L37 6L36 6L36 7L35 7L35 5L36 5L36 4L35 4L35 2L34 2L34 1L36 1L36 2L37 2L37 1L38 1L38 3L39 3L39 2L40 2L40 1L43 1L43 0L40 0L40 1L39 1L39 0L37 0L37 1L36 1L36 0L33 0L33 2L32 2L32 3L33 3L33 2L34 2L34 4L35 4L35 5L34 5L34 7L33 7L33 5L32 5L32 4L24 4L24 5L21 5L21 6L20 6L20 5L19 5L19 4L20 4L20 3L24 3L24 2L23 2L23 1L25 1L25 2L28 2L28 3L29 3L29 2L30 2L30 1L31 1L31 0L22 0L22 2L20 2L20 1L21 1L21 0ZM44 0L44 1L45 1L45 0ZM46 0L46 1L47 1L47 2L46 2L46 3L47 3L47 5L45 5L45 4L44 4L44 7L45 7L45 8L46 8L46 7L47 7L47 5L48 5L48 0ZM17 1L17 2L18 2L18 3L15 3L15 2L14 2L14 3L13 3L13 4L15 4L15 5L14 5L14 6L13 6L13 7L12 7L12 6L11 6L11 7L10 7L10 8L11 8L11 11L12 11L12 12L10 12L10 13L9 13L9 14L10 14L10 15L11 15L11 16L9 16L9 18L8 18L8 17L6 17L6 16L7 16L7 15L5 15L5 16L4 16L4 17L5 17L5 18L8 18L8 20L9 20L9 23L8 23L8 21L6 21L6 20L7 20L7 19L6 19L6 20L5 20L5 21L6 21L6 22L7 22L7 23L5 23L5 24L4 24L4 25L5 25L5 24L7 24L7 25L6 25L6 26L9 26L9 28L10 28L10 30L9 30L9 31L6 31L6 32L8 32L8 33L5 33L5 34L8 34L8 35L9 35L9 34L8 34L8 33L10 33L10 34L11 34L11 33L10 33L10 32L11 32L11 31L12 31L12 35L13 35L13 32L14 32L14 34L17 34L17 35L15 35L15 36L14 36L14 37L15 37L15 36L18 36L18 32L19 32L19 31L20 31L20 32L21 32L21 31L20 31L20 29L21 29L21 30L23 30L23 31L22 31L22 32L23 32L23 31L24 31L24 33L22 33L22 35L21 35L21 36L22 36L22 35L23 35L23 36L26 36L26 37L24 37L24 38L23 38L23 39L21 39L21 40L22 40L22 41L21 41L21 42L20 42L20 41L19 41L19 43L18 43L18 42L17 42L17 41L18 41L18 40L20 40L20 38L19 38L19 37L20 37L20 35L19 35L19 37L17 37L17 39L16 39L16 41L15 41L15 39L13 39L13 38L12 38L12 39L11 39L11 37L13 37L13 36L7 36L7 35L5 35L5 36L4 36L4 33L3 33L3 32L4 32L4 30L1 30L1 31L2 31L2 32L1 32L1 33L2 33L2 35L1 35L1 36L2 36L2 37L5 37L5 38L3 38L3 39L4 39L4 40L3 40L3 41L5 41L5 42L8 42L8 43L3 43L3 44L1 44L1 45L3 45L3 47L5 47L5 46L7 46L7 45L8 45L8 46L10 46L10 47L9 47L9 48L8 48L8 49L9 49L9 48L10 48L10 50L9 50L9 51L10 51L10 50L11 50L11 51L12 51L12 50L11 50L11 49L12 49L12 48L10 48L10 47L13 47L13 46L12 46L12 45L15 45L15 46L16 46L16 48L20 48L20 49L17 49L17 50L20 50L20 51L19 51L19 53L18 53L18 54L19 54L19 53L20 53L20 51L21 51L21 52L22 52L22 50L24 50L24 51L26 51L26 50L25 50L25 49L26 49L26 47L27 47L27 48L33 48L33 50L32 50L32 49L31 49L31 50L32 50L32 51L33 51L33 53L32 53L32 55L34 55L34 56L35 56L35 55L36 55L36 56L39 56L39 55L41 55L41 56L42 56L42 55L41 55L41 54L40 54L40 53L41 53L41 52L40 52L40 51L41 51L41 50L43 50L43 45L42 45L42 44L44 44L44 45L45 45L45 46L44 46L44 48L45 48L45 50L44 50L44 51L43 51L43 53L42 53L42 54L43 54L43 53L44 53L44 51L45 51L45 52L46 52L46 48L47 48L47 50L48 50L48 48L47 48L47 47L48 47L48 46L47 46L47 44L48 44L48 43L45 43L45 44L44 44L44 43L42 43L42 42L43 42L43 41L44 41L44 40L43 40L43 39L46 39L46 36L47 36L47 39L49 39L49 38L50 38L50 36L51 36L51 35L50 35L50 34L49 34L49 35L50 35L50 36L48 36L48 34L47 34L47 33L45 33L45 32L43 32L43 33L42 33L42 32L41 32L41 34L42 34L42 35L41 35L41 36L42 36L42 35L43 35L43 34L44 34L44 33L45 33L45 35L44 35L44 36L45 36L45 38L44 38L44 37L40 37L40 36L39 36L39 37L38 37L38 34L39 34L39 32L40 32L40 31L39 31L39 30L40 30L40 29L42 29L42 30L41 30L41 31L43 31L43 30L45 30L45 31L47 31L47 32L48 32L48 29L46 29L46 27L45 27L45 29L43 29L43 28L44 28L44 26L46 26L46 25L44 25L44 26L43 26L43 25L42 25L42 26L41 26L41 27L39 27L39 26L40 26L40 23L39 23L39 24L38 24L38 26L34 26L34 25L35 25L35 24L33 24L33 23L35 23L35 22L39 22L39 21L38 21L38 20L37 20L37 21L36 21L36 19L38 19L38 17L39 17L39 15L38 15L38 14L36 14L36 15L38 15L38 17L37 17L37 18L36 18L36 17L35 17L35 16L34 16L34 17L32 17L32 18L31 18L31 17L30 17L30 19L29 19L29 18L28 18L28 19L27 19L27 18L26 18L26 17L27 17L27 14L29 14L29 15L28 15L28 16L32 16L32 13L31 13L31 12L30 12L30 11L29 11L29 13L28 13L28 12L26 12L26 11L28 11L28 10L26 10L26 9L25 9L25 8L26 8L26 6L25 6L25 5L24 5L24 6L23 6L23 7L22 7L22 6L21 6L21 7L22 7L22 8L23 8L23 7L24 7L24 9L22 9L22 10L23 10L23 12L22 12L22 13L23 13L23 14L21 14L21 13L20 13L20 14L19 14L19 13L18 13L18 12L21 12L21 11L20 11L20 10L21 10L21 8L19 8L19 7L20 7L20 6L19 6L19 7L18 7L18 6L17 6L17 4L19 4L19 3L20 3L20 2L19 2L19 1ZM44 2L44 3L45 3L45 2ZM27 5L27 8L30 8L30 5ZM14 6L14 8L12 8L12 11L13 11L13 13L11 13L11 15L12 15L12 14L13 14L13 15L14 15L14 17L13 17L13 16L11 16L11 19L12 19L12 20L11 20L11 21L12 21L12 20L14 20L14 19L15 19L15 17L16 17L16 15L17 15L17 13L16 13L16 12L15 12L15 14L13 14L13 13L14 13L14 11L13 11L13 10L14 10L14 8L15 8L15 9L16 9L16 8L17 8L17 6L16 6L16 7L15 7L15 6ZM24 6L24 7L25 7L25 6ZM28 6L28 7L29 7L29 6ZM31 6L31 8L32 8L32 9L29 9L29 10L32 10L32 12L33 12L33 15L35 15L35 14L34 14L34 12L36 12L36 10L35 10L35 9L36 9L36 8L35 8L35 7L34 7L34 8L33 8L33 7L32 7L32 6ZM37 6L37 7L38 7L38 6ZM39 6L39 7L40 7L40 6ZM45 6L45 7L46 7L46 6ZM48 6L48 8L47 8L47 9L48 9L48 8L49 8L49 6ZM18 8L18 9L19 9L19 8ZM34 8L34 9L35 9L35 8ZM43 8L43 9L44 9L44 10L45 10L45 9L44 9L44 8ZM1 10L1 11L2 11L2 10ZM15 10L15 11L16 11L16 10ZM18 10L18 11L17 11L17 12L18 12L18 11L19 11L19 10ZM33 10L33 11L34 11L34 10ZM56 10L56 11L57 11L57 10ZM6 11L6 12L7 12L7 11ZM24 11L24 12L23 12L23 13L25 13L25 15L26 15L26 14L27 14L27 13L25 13L25 11ZM41 11L41 14L42 14L42 18L39 18L39 19L40 19L40 20L41 20L41 19L42 19L42 18L43 18L43 20L42 20L42 21L41 21L41 22L43 22L43 23L42 23L42 24L43 24L43 23L44 23L44 22L45 22L45 20L46 20L46 19L47 19L47 20L48 20L48 21L46 21L46 22L49 22L49 19L48 19L48 18L50 18L50 17L48 17L48 14L49 14L49 16L51 16L51 15L50 15L50 14L51 14L51 13L52 13L52 12L51 12L51 11L50 11L50 12L51 12L51 13L50 13L50 14L49 14L49 11L48 11L48 12L47 12L47 14L46 14L46 13L44 13L44 14L43 14L43 12L42 12L42 11ZM29 13L29 14L30 14L30 13ZM56 13L56 14L55 14L55 15L56 15L56 17L57 17L57 15L56 15L56 14L57 14L57 13ZM3 14L3 15L4 15L4 14ZM15 14L15 15L16 15L16 14ZM18 14L18 15L19 15L19 16L17 16L17 17L18 17L18 18L19 18L19 19L20 19L20 18L21 18L21 16L20 16L20 15L21 15L21 14L20 14L20 15L19 15L19 14ZM23 14L23 16L24 16L24 14ZM0 15L0 17L1 17L1 15ZM19 16L19 18L20 18L20 16ZM25 16L25 17L26 17L26 16ZM40 16L40 17L41 17L41 16ZM44 16L44 18L45 18L45 19L44 19L44 20L43 20L43 21L44 21L44 20L45 20L45 19L46 19L46 18L45 18L45 16ZM12 17L12 19L14 19L14 18L13 18L13 17ZM22 17L22 18L24 18L24 19L25 19L25 20L22 20L22 19L21 19L21 21L24 21L24 22L25 22L25 23L23 23L23 22L20 22L20 20L18 20L18 19L17 19L17 18L16 18L16 27L17 27L17 28L15 28L15 24L14 24L14 25L13 25L13 24L12 24L12 23L11 23L11 22L10 22L10 23L9 23L9 24L10 24L10 27L12 27L12 30L13 30L13 31L14 31L14 29L15 29L15 30L16 30L16 32L15 32L15 33L16 33L16 32L18 32L18 30L16 30L16 29L18 29L18 28L19 28L19 27L17 27L17 26L18 26L18 25L19 25L19 26L20 26L20 28L21 28L21 26L20 26L20 25L19 25L19 24L21 24L21 23L23 23L23 24L22 24L22 25L25 25L25 26L26 26L26 28L23 28L23 30L24 30L24 31L26 31L26 33L25 33L25 34L24 34L24 35L25 35L25 34L26 34L26 33L28 33L28 32L29 32L29 33L30 33L30 32L31 32L31 33L32 33L32 31L33 31L33 29L34 29L34 28L35 28L35 29L36 29L36 30L35 30L35 31L34 31L34 32L33 32L33 33L34 33L34 32L36 32L36 33L37 33L37 31L36 31L36 30L39 30L39 29L40 29L40 28L39 28L39 27L38 27L38 29L37 29L37 27L36 27L36 28L35 28L35 27L34 27L34 26L32 26L32 25L33 25L33 24L32 24L32 23L33 23L33 22L32 22L32 20L33 20L33 19L34 19L34 21L35 21L35 18L32 18L32 19L31 19L31 20L30 20L30 21L29 21L29 19L28 19L28 20L27 20L27 21L26 21L26 22L25 22L25 20L26 20L26 18L24 18L24 17ZM47 17L47 18L48 18L48 17ZM53 17L53 18L51 18L51 19L53 19L53 20L54 20L54 21L55 21L55 19L53 19L53 18L54 18L54 17ZM9 18L9 19L10 19L10 18ZM17 20L17 22L19 22L19 23L20 23L20 22L19 22L19 21L18 21L18 20ZM28 21L28 24L30 24L30 23L31 23L31 21L30 21L30 23L29 23L29 21ZM50 21L50 23L49 23L49 25L47 25L47 26L49 26L49 25L50 25L50 26L56 26L56 25L54 25L54 24L56 24L56 22L53 22L53 23L52 23L52 22L51 22L51 21ZM13 22L13 23L15 23L15 22ZM26 22L26 23L25 23L25 25L26 25L26 26L28 26L28 25L26 25L26 24L27 24L27 22ZM2 23L2 24L1 24L1 25L2 25L2 24L3 24L3 23ZM36 23L36 24L37 24L37 23ZM45 23L45 24L46 24L46 23ZM47 23L47 24L48 24L48 23ZM50 23L50 25L53 25L53 24L54 24L54 23L53 23L53 24L51 24L51 23ZM12 25L12 26L13 26L13 27L14 27L14 26L13 26L13 25ZM29 25L29 26L31 26L31 29L32 29L32 28L33 28L33 27L32 27L32 26L31 26L31 25ZM22 26L22 27L23 27L23 26ZM5 27L5 30L8 30L8 27ZM27 27L27 30L30 30L30 27ZM42 27L42 28L43 28L43 27ZM49 27L49 30L52 30L52 27ZM6 28L6 29L7 29L7 28ZM28 28L28 29L29 29L29 28ZM50 28L50 29L51 29L51 28ZM24 29L24 30L26 30L26 29ZM45 29L45 30L46 30L46 29ZM10 30L10 31L11 31L11 30ZM31 30L31 31L32 31L32 30ZM55 30L55 32L56 32L56 34L55 34L55 35L57 35L57 32L56 32L56 31L57 31L57 30ZM27 31L27 32L28 32L28 31ZM29 31L29 32L30 32L30 31ZM38 31L38 32L39 32L39 31ZM49 31L49 33L50 33L50 31ZM20 33L20 34L21 34L21 33ZM27 34L27 35L28 35L28 34ZM30 34L30 35L31 35L31 34ZM32 34L32 35L34 35L34 36L35 36L35 37L34 37L34 39L33 39L33 36L27 36L27 38L26 38L26 39L25 39L25 38L24 38L24 39L23 39L23 43L24 43L24 45L25 45L25 47L26 47L26 46L27 46L27 47L28 47L28 46L27 46L27 45L25 45L25 44L27 44L27 43L28 43L28 42L26 42L26 41L28 41L28 39L29 39L29 40L30 40L30 41L31 41L31 42L29 42L29 43L31 43L31 44L30 44L30 46L29 46L29 47L33 47L33 45L34 45L34 44L33 44L33 42L32 42L32 41L34 41L34 40L35 40L35 42L34 42L34 43L35 43L35 44L36 44L36 45L35 45L35 46L34 46L34 47L37 47L37 46L36 46L36 45L39 45L39 46L40 46L40 47L38 47L38 48L39 48L39 49L40 49L40 50L41 50L41 49L42 49L42 48L41 48L41 44L42 44L42 43L41 43L41 42L42 42L42 41L43 41L43 40L42 40L42 39L41 39L41 38L39 38L39 39L37 39L37 38L38 38L38 37L37 37L37 35L36 35L36 36L35 36L35 35L34 35L34 34ZM46 34L46 35L47 35L47 34ZM2 35L2 36L3 36L3 35ZM52 35L52 36L53 36L53 35ZM5 36L5 37L7 37L7 36ZM21 37L21 38L22 38L22 37ZM35 37L35 39L36 39L36 38L37 38L37 37ZM48 37L48 38L49 38L49 37ZM53 37L53 38L55 38L55 37ZM6 38L6 39L7 39L7 40L6 40L6 41L7 41L7 40L8 40L8 42L10 42L10 43L8 43L8 45L9 45L9 44L11 44L11 43L13 43L13 44L15 44L15 45L19 45L19 44L15 44L15 43L17 43L17 42L15 42L15 41L14 41L14 42L13 42L13 41L11 41L11 42L10 42L10 40L11 40L11 39L9 39L9 40L8 40L8 39L7 39L7 38ZM18 38L18 39L19 39L19 38ZM29 38L29 39L30 39L30 38ZM1 39L1 40L2 40L2 39ZM12 39L12 40L13 40L13 39ZM24 39L24 42L25 42L25 43L26 43L26 42L25 42L25 39ZM32 39L32 40L31 40L31 41L32 41L32 40L33 40L33 39ZM40 39L40 42L41 42L41 41L42 41L42 40L41 40L41 39ZM37 40L37 41L36 41L36 42L35 42L35 43L36 43L36 44L37 44L37 42L38 42L38 43L39 43L39 42L38 42L38 40ZM54 41L54 42L55 42L55 41ZM21 42L21 43L20 43L20 45L21 45L21 46L20 46L20 48L21 48L21 50L22 50L22 49L24 49L24 48L21 48L21 46L22 46L22 47L23 47L23 46L22 46L22 42ZM49 43L49 45L50 45L50 43ZM52 43L52 45L53 45L53 47L54 47L54 46L56 46L56 48L57 48L57 45L56 45L56 44L55 44L55 45L53 45L53 43ZM3 44L3 45L5 45L5 44ZM6 44L6 45L7 45L7 44ZM28 44L28 45L29 45L29 44ZM31 44L31 46L32 46L32 45L33 45L33 44ZM10 45L10 46L11 46L11 45ZM1 46L1 47L2 47L2 46ZM17 46L17 47L19 47L19 46ZM46 46L46 47L47 47L47 46ZM35 48L35 49L34 49L34 50L33 50L33 51L35 51L35 50L36 50L36 49L37 49L37 50L38 50L38 51L39 51L39 50L38 50L38 49L37 49L37 48ZM27 49L27 52L30 52L30 49ZM49 49L49 52L52 52L52 49ZM28 50L28 51L29 51L29 50ZM50 50L50 51L51 51L51 50ZM36 51L36 52L35 52L35 54L36 54L36 55L38 55L38 54L39 54L39 53L40 53L40 52L38 52L38 53L37 53L37 51ZM25 52L25 53L26 53L26 52ZM55 52L55 53L56 53L56 52ZM8 53L8 54L9 54L9 53ZM10 53L10 54L11 54L11 53ZM36 53L36 54L37 54L37 53ZM29 54L29 56L30 56L30 55L31 55L31 54ZM8 55L8 57L9 57L9 55ZM10 55L10 56L11 56L11 55ZM55 56L55 57L56 57L56 56ZM0 0L0 7L7 7L7 0ZM1 1L1 6L6 6L6 1ZM2 2L2 5L5 5L5 2ZM50 0L50 7L57 7L57 0ZM51 1L51 6L56 6L56 1ZM52 2L52 5L55 5L55 2ZM0 50L0 57L7 57L7 50ZM1 51L1 56L6 56L6 51ZM2 52L2 55L5 55L5 52Z" fill="#000000"/></g></g></svg>
