<?xml version="1.0" encoding="UTF-8"?>
<svg xmlns="http://www.w3.org/2000/svg" version="1.1" width="300" height="300" viewBox="0 0 300 300"><rect x="0" y="0" width="300" height="300" fill="#fefefe"/><g transform="scale(4.615)"><g transform="translate(4,4)"><path fill-rule="evenodd" d="M8 0L8 1L9 1L9 2L8 2L8 5L9 5L9 6L8 6L8 7L9 7L9 6L10 6L10 7L11 7L11 8L12 8L12 7L13 7L13 6L14 6L14 7L15 7L15 6L16 6L16 7L17 7L17 11L16 11L16 10L15 10L15 11L14 11L14 10L13 10L13 9L10 9L10 10L12 10L12 12L10 12L10 11L8 11L8 12L6 12L6 11L7 11L7 10L8 10L8 9L9 9L9 8L8 8L8 9L7 9L7 8L6 8L6 9L5 9L5 10L4 10L4 8L0 8L0 9L3 9L3 10L1 10L1 11L0 11L0 12L1 12L1 13L0 13L0 14L1 14L1 16L0 16L0 17L2 17L2 20L1 20L1 19L0 19L0 22L1 22L1 21L2 21L2 23L3 23L3 21L4 21L4 17L3 17L3 16L2 16L2 14L3 14L3 13L4 13L4 16L5 16L5 14L6 14L6 15L7 15L7 16L6 16L6 17L5 17L5 19L7 19L7 20L6 20L6 21L5 21L5 22L4 22L4 24L3 24L3 25L4 25L4 27L3 27L3 26L2 26L2 27L3 27L3 28L1 28L1 26L0 26L0 33L1 33L1 29L2 29L2 30L3 30L3 32L2 32L2 33L3 33L3 37L4 37L4 36L5 36L5 37L7 37L7 38L6 38L6 39L8 39L8 40L5 40L5 39L4 39L4 38L3 38L3 39L1 39L1 40L0 40L0 41L1 41L1 40L2 40L2 43L1 43L1 46L0 46L0 48L5 48L5 47L7 47L7 48L6 48L6 49L8 49L8 50L9 50L9 51L11 51L11 50L13 50L13 51L16 51L16 52L17 52L17 51L18 51L18 52L19 52L19 55L20 55L20 56L19 56L19 57L20 57L20 56L21 56L21 57L23 57L23 54L26 54L26 55L27 55L27 56L28 56L28 55L27 55L27 54L26 54L26 53L29 53L29 54L31 54L31 55L30 55L30 56L31 56L31 57L32 57L32 55L33 55L33 54L36 54L36 55L34 55L34 56L33 56L33 57L36 57L36 55L37 55L37 54L36 54L36 53L35 53L35 52L36 52L36 51L39 51L39 50L40 50L40 49L39 49L39 48L38 48L38 49L37 49L37 48L33 48L33 50L31 50L31 49L32 49L32 47L33 47L33 45L34 45L34 44L35 44L35 46L34 46L34 47L38 47L38 45L39 45L39 47L43 47L43 49L44 49L44 51L43 51L43 54L42 54L42 52L41 52L41 51L40 51L40 52L39 52L39 54L38 54L38 57L41 57L41 56L40 56L40 55L41 55L41 54L42 54L42 57L43 57L43 56L45 56L45 57L46 57L46 55L44 55L44 54L47 54L47 55L49 55L49 56L48 56L48 57L51 57L51 54L52 54L52 53L54 53L54 52L55 52L55 54L56 54L56 52L55 52L55 51L56 51L56 49L57 49L57 48L56 48L56 49L55 49L55 50L53 50L53 48L54 48L54 47L57 47L57 43L56 43L56 41L57 41L57 40L56 40L56 41L55 41L55 42L54 42L54 41L53 41L53 40L55 40L55 38L56 38L56 39L57 39L57 38L56 38L56 37L55 37L55 36L57 36L57 34L56 34L56 33L57 33L57 31L56 31L56 30L57 30L57 29L56 29L56 28L57 28L57 27L56 27L56 28L55 28L55 27L53 27L53 26L51 26L51 25L49 25L49 26L46 26L46 25L47 25L47 24L49 24L49 23L47 23L47 22L49 22L49 21L47 21L47 20L46 20L46 18L48 18L48 19L49 19L49 20L50 20L50 21L51 21L51 22L52 22L52 23L51 23L51 24L54 24L54 25L56 25L56 24L54 24L54 23L57 23L57 21L56 21L56 20L54 20L54 21L53 21L53 20L50 20L50 19L49 19L49 18L48 18L48 14L47 14L47 17L45 17L45 16L46 16L46 15L45 15L45 14L46 14L46 13L45 13L45 14L44 14L44 11L42 11L42 10L43 10L43 9L41 9L41 8L38 8L38 7L39 7L39 6L38 6L38 5L40 5L40 7L41 7L41 4L38 4L38 3L39 3L39 2L38 2L38 3L37 3L37 1L38 1L38 0L37 0L37 1L36 1L36 0L35 0L35 1L34 1L34 3L35 3L35 4L36 4L36 5L37 5L37 6L36 6L36 7L35 7L35 6L34 6L34 4L33 4L33 6L32 6L32 5L31 5L31 4L32 4L32 3L33 3L33 2L31 2L31 0L29 0L29 1L28 1L28 2L29 2L29 3L30 3L30 4L26 4L26 0L23 0L23 1L22 1L22 0L21 0L21 2L22 2L22 3L23 3L23 4L22 4L22 5L20 5L20 4L19 4L19 3L20 3L20 2L19 2L19 1L20 1L20 0L19 0L19 1L18 1L18 2L17 2L17 1L15 1L15 3L17 3L17 5L15 5L15 4L14 4L14 3L12 3L12 2L13 2L13 1L12 1L12 2L11 2L11 3L12 3L12 4L10 4L10 3L9 3L9 2L10 2L10 1L11 1L11 0ZM39 0L39 1L40 1L40 2L41 2L41 3L43 3L43 5L45 5L45 4L44 4L44 3L45 3L45 2L46 2L46 3L47 3L47 5L46 5L46 7L45 7L45 6L44 6L44 8L45 8L45 9L44 9L44 10L45 10L45 11L47 11L47 12L49 12L49 17L50 17L50 15L51 15L51 18L52 18L52 19L56 19L56 18L55 18L55 17L57 17L57 15L55 15L55 14L54 14L54 10L53 10L53 13L52 13L52 12L51 12L51 11L52 11L52 10L50 10L50 8L47 8L47 5L48 5L48 0L46 0L46 1L44 1L44 2L41 2L41 1L43 1L43 0L41 0L41 1L40 1L40 0ZM23 1L23 3L24 3L24 2L25 2L25 1ZM29 1L29 2L30 2L30 3L31 3L31 2L30 2L30 1ZM35 1L35 2L36 2L36 1ZM46 1L46 2L47 2L47 1ZM18 2L18 3L19 3L19 2ZM9 4L9 5L10 5L10 6L11 6L11 7L12 7L12 5L14 5L14 4L12 4L12 5L10 5L10 4ZM24 4L24 6L23 6L23 7L22 7L22 6L21 6L21 7L20 7L20 6L19 6L19 7L20 7L20 10L18 10L18 12L17 12L17 13L16 13L16 11L15 11L15 15L14 15L14 13L13 13L13 15L9 15L9 14L12 14L12 13L8 13L8 15L9 15L9 17L8 17L8 16L7 16L7 17L6 17L6 18L7 18L7 17L8 17L8 18L9 18L9 20L7 20L7 21L6 21L6 22L7 22L7 23L5 23L5 26L7 26L7 25L8 25L8 26L9 26L9 30L11 30L11 28L17 28L17 30L16 30L16 29L14 29L14 30L12 30L12 31L11 31L11 32L10 32L10 34L9 34L9 31L6 31L6 32L4 32L4 33L5 33L5 35L6 35L6 36L7 36L7 37L10 37L10 38L8 38L8 39L9 39L9 40L10 40L10 39L11 39L11 40L12 40L12 39L13 39L13 41L12 41L12 42L7 42L7 41L6 41L6 42L7 42L7 43L5 43L5 44L4 44L4 42L5 42L5 41L4 41L4 42L3 42L3 43L2 43L2 44L4 44L4 45L3 45L3 47L5 47L5 46L7 46L7 47L10 47L10 48L12 48L12 49L13 49L13 48L12 48L12 47L13 47L13 45L12 45L12 46L10 46L10 45L8 45L8 43L10 43L10 44L12 44L12 42L13 42L13 43L14 43L14 44L16 44L16 43L15 43L15 42L13 42L13 41L15 41L15 40L14 40L14 37L15 37L15 38L17 38L17 39L16 39L16 41L17 41L17 45L15 45L15 46L14 46L14 47L15 47L15 46L16 46L16 47L18 47L18 48L19 48L19 49L18 49L18 51L19 51L19 49L21 49L21 50L22 50L22 51L21 51L21 52L22 52L22 53L23 53L23 52L24 52L24 53L25 53L25 52L26 52L26 51L24 51L24 50L25 50L25 48L28 48L28 47L27 47L27 46L26 46L26 45L27 45L27 44L28 44L28 46L29 46L29 47L30 47L30 48L31 48L31 46L32 46L32 45L33 45L33 42L32 42L32 43L29 43L29 44L28 44L28 43L27 43L27 42L25 42L25 41L26 41L26 40L27 40L27 41L30 41L30 42L31 42L31 41L30 41L30 40L33 40L33 39L34 39L34 38L36 38L36 39L35 39L35 40L34 40L34 41L36 41L36 42L34 42L34 43L35 43L35 44L36 44L36 45L38 45L38 44L41 44L41 43L42 43L42 45L43 45L43 46L45 46L45 47L44 47L44 49L45 49L45 47L46 47L46 46L47 46L47 45L49 45L49 46L48 46L48 47L49 47L49 48L51 48L51 47L52 47L52 48L53 48L53 46L54 46L54 45L53 45L53 44L55 44L55 46L56 46L56 44L55 44L55 43L54 43L54 42L53 42L53 43L52 43L52 45L50 45L50 44L51 44L51 42L50 42L50 41L52 41L52 40L50 40L50 39L53 39L53 38L55 38L55 37L53 37L53 36L52 36L52 35L51 35L51 36L52 36L52 38L51 38L51 37L50 37L50 36L49 36L49 38L48 38L48 35L49 35L49 34L50 34L50 33L49 33L49 32L52 32L52 34L54 34L54 33L53 33L53 32L52 32L52 31L49 31L49 32L48 32L48 27L47 27L47 33L45 33L45 32L46 32L46 31L44 31L44 30L43 30L43 29L42 29L42 30L40 30L40 29L41 29L41 27L42 27L42 28L44 28L44 27L45 27L45 30L46 30L46 26L43 26L43 24L44 24L44 25L46 25L46 24L45 24L45 23L43 23L43 24L41 24L41 23L39 23L39 20L40 20L40 19L39 19L39 18L41 18L41 21L44 21L44 22L45 22L45 19L44 19L44 18L45 18L45 17L42 17L42 14L43 14L43 12L42 12L42 11L39 11L39 14L40 14L40 15L41 15L41 16L40 16L40 17L39 17L39 15L36 15L36 14L35 14L35 12L38 12L38 11L37 11L37 9L38 9L38 10L39 10L39 9L38 9L38 8L36 8L36 9L34 9L34 6L33 6L33 8L32 8L32 6L31 6L31 9L32 9L32 10L30 10L30 11L29 11L29 9L28 9L28 10L26 10L26 11L25 11L25 10L23 10L23 9L26 9L26 6L25 6L25 5L26 5L26 4ZM27 5L27 8L30 8L30 5ZM17 6L17 7L18 7L18 6ZM24 6L24 7L23 7L23 8L21 8L21 10L20 10L20 11L19 11L19 12L18 12L18 13L19 13L19 14L16 14L16 15L15 15L15 16L14 16L14 15L13 15L13 17L12 17L12 18L15 18L15 19L13 19L13 21L12 21L12 24L11 24L11 23L10 23L10 22L8 22L8 25L9 25L9 24L11 24L11 25L10 25L10 27L12 27L12 25L14 25L14 26L16 26L16 27L19 27L19 26L21 26L21 24L20 24L20 23L21 23L21 22L22 22L22 23L23 23L23 24L24 24L24 25L25 25L25 26L24 26L24 27L25 27L25 28L26 28L26 30L24 30L24 29L21 29L21 30L24 30L24 31L22 31L22 32L21 32L21 35L24 35L24 34L25 34L25 35L26 35L26 34L25 34L25 32L24 32L24 31L29 31L29 32L30 32L30 33L29 33L29 35L28 35L28 34L27 34L27 36L29 36L29 38L27 38L27 37L26 37L26 36L23 36L23 39L21 39L21 38L20 38L20 37L19 37L19 36L20 36L20 35L18 35L18 34L20 34L20 33L18 33L18 30L17 30L17 34L16 34L16 30L14 30L14 33L13 33L13 31L12 31L12 32L11 32L11 34L10 34L10 35L9 35L9 34L8 34L8 35L7 35L7 34L6 34L6 35L7 35L7 36L8 36L8 35L9 35L9 36L10 36L10 35L11 35L11 36L12 36L12 35L13 35L13 36L14 36L14 35L15 35L15 34L16 34L16 36L17 36L17 37L18 37L18 39L19 39L19 40L20 40L20 41L22 41L22 44L21 44L21 42L19 42L19 41L18 41L18 43L19 43L19 45L17 45L17 46L19 46L19 47L20 47L20 44L21 44L21 46L22 46L22 47L21 47L21 48L23 48L23 49L22 49L22 50L23 50L23 49L24 49L24 48L25 48L25 47L23 47L23 46L22 46L22 44L23 44L23 45L24 45L24 46L25 46L25 45L26 45L26 43L25 43L25 42L24 42L24 41L25 41L25 39L24 39L24 37L26 37L26 39L27 39L27 40L28 40L28 39L30 39L30 38L32 38L32 39L33 39L33 38L34 38L34 37L37 37L37 39L38 39L38 40L37 40L37 41L40 41L40 42L42 42L42 43L43 43L43 44L49 44L49 43L50 43L50 42L49 42L49 43L48 43L48 42L47 42L47 41L50 41L50 40L47 40L47 39L48 39L48 38L46 38L46 36L47 36L47 35L48 35L48 34L47 34L47 35L46 35L46 34L44 34L44 31L41 31L41 32L40 32L40 31L39 31L39 30L38 30L38 29L40 29L40 27L38 27L38 26L39 26L39 24L38 24L38 23L37 23L37 24L36 24L36 23L35 23L35 24L33 24L33 23L34 23L34 22L32 22L32 23L31 23L31 21L29 21L29 20L30 20L30 17L29 17L29 16L31 16L31 17L32 17L32 18L35 18L35 17L34 17L34 16L35 16L35 15L33 15L33 14L34 14L34 12L35 12L35 11L36 11L36 10L35 10L35 11L34 11L34 10L33 10L33 14L30 14L30 13L28 13L28 12L26 12L26 13L25 13L25 14L26 14L26 13L27 13L27 16L26 16L26 15L24 15L24 14L23 14L23 18L22 18L22 17L21 17L21 18L22 18L22 19L23 19L23 18L24 18L24 19L25 19L25 20L27 20L27 21L25 21L25 22L24 22L24 21L23 21L23 20L21 20L21 22L19 22L19 21L18 21L18 20L19 20L19 19L20 19L20 18L19 18L19 17L18 17L18 18L17 18L17 16L19 16L19 15L20 15L20 16L21 16L21 13L19 13L19 12L21 12L21 11L23 11L23 12L22 12L22 13L23 13L23 12L25 12L25 11L23 11L23 10L22 10L22 9L23 9L23 8L24 8L24 7L25 7L25 6ZM28 6L28 7L29 7L29 6ZM37 6L37 7L38 7L38 6ZM42 6L42 7L43 7L43 6ZM48 6L48 7L49 7L49 6ZM15 8L15 9L16 9L16 8ZM18 8L18 9L19 9L19 8ZM52 8L52 9L55 9L55 8ZM56 8L56 9L57 9L57 8ZM6 9L6 10L5 10L5 11L4 11L4 10L3 10L3 11L1 11L1 12L3 12L3 11L4 11L4 12L5 12L5 13L6 13L6 14L7 14L7 13L6 13L6 12L5 12L5 11L6 11L6 10L7 10L7 9ZM40 9L40 10L41 10L41 9ZM45 9L45 10L47 10L47 9ZM48 10L48 11L49 11L49 10ZM55 10L55 11L57 11L57 10ZM30 11L30 12L31 12L31 13L32 13L32 12L31 12L31 11ZM50 12L50 13L51 13L51 15L52 15L52 17L53 17L53 18L54 18L54 17L55 17L55 16L53 16L53 14L52 14L52 13L51 13L51 12ZM55 12L55 13L57 13L57 12ZM1 13L1 14L2 14L2 13ZM40 13L40 14L41 14L41 13ZM16 15L16 16L17 16L17 15ZM28 15L28 16L29 16L29 15ZM31 15L31 16L33 16L33 15ZM44 15L44 16L45 16L45 15ZM9 17L9 18L11 18L11 17ZM24 17L24 18L25 18L25 19L26 19L26 18L25 18L25 17ZM27 17L27 20L29 20L29 19L28 19L28 18L29 18L29 17ZM36 17L36 18L37 18L37 17ZM41 17L41 18L42 18L42 19L43 19L43 18L42 18L42 17ZM16 18L16 19L15 19L15 20L14 20L14 23L13 23L13 24L15 24L15 25L16 25L16 26L19 26L19 25L17 25L17 24L19 24L19 22L17 22L17 23L16 23L16 20L17 20L17 18ZM18 18L18 19L19 19L19 18ZM11 19L11 20L10 20L10 21L11 21L11 20L12 20L12 19ZM31 19L31 20L32 20L32 19ZM33 19L33 21L34 21L34 19ZM36 19L36 20L35 20L35 22L38 22L38 21L36 21L36 20L38 20L38 19ZM22 21L22 22L23 22L23 21ZM27 21L27 22L25 22L25 25L27 25L27 26L28 26L28 25L29 25L29 26L31 26L31 23L29 23L29 22L28 22L28 21ZM46 21L46 22L47 22L47 21ZM54 21L54 22L56 22L56 21ZM27 22L27 23L26 23L26 24L28 24L28 22ZM15 23L15 24L16 24L16 23ZM0 24L0 25L2 25L2 24ZM6 24L6 25L7 25L7 24ZM32 24L32 25L33 25L33 24ZM22 25L22 27L23 27L23 25ZM34 25L34 27L35 27L35 25ZM40 25L40 26L41 26L41 25ZM42 26L42 27L43 27L43 26ZM5 27L5 30L8 30L8 27ZM20 27L20 28L18 28L18 29L20 29L20 28L21 28L21 27ZM27 27L27 30L30 30L30 27ZM32 27L32 28L33 28L33 27ZM36 27L36 28L34 28L34 29L36 29L36 30L35 30L35 31L34 31L34 32L31 32L31 34L30 34L30 35L29 35L29 36L32 36L32 38L33 38L33 36L36 36L36 35L34 35L34 34L35 34L35 33L34 33L34 32L35 32L35 31L37 31L37 32L36 32L36 33L37 33L37 32L38 32L38 34L39 34L39 31L38 31L38 30L37 30L37 27ZM49 27L49 30L52 30L52 27ZM3 28L3 30L4 30L4 28ZM6 28L6 29L7 29L7 28ZM28 28L28 29L29 29L29 28ZM50 28L50 29L51 29L51 28ZM53 28L53 29L54 29L54 30L53 30L53 31L54 31L54 32L55 32L55 30L56 30L56 29L54 29L54 28ZM31 29L31 31L32 31L32 29ZM19 30L19 31L20 31L20 30ZM6 32L6 33L8 33L8 32ZM23 32L23 33L22 33L22 34L23 34L23 33L24 33L24 32ZM27 32L27 33L28 33L28 32ZM42 32L42 33L43 33L43 32ZM32 33L32 34L31 34L31 35L32 35L32 36L33 36L33 33ZM0 34L0 35L2 35L2 34ZM11 34L11 35L12 35L12 34ZM13 34L13 35L14 35L14 34ZM41 34L41 35L39 35L39 36L40 36L40 37L41 37L41 38L44 38L44 39L45 39L45 40L46 40L46 39L45 39L45 36L44 36L44 37L43 37L43 35L42 35L42 34ZM17 35L17 36L18 36L18 35ZM54 35L54 36L55 36L55 35ZM0 36L0 38L2 38L2 37L1 37L1 36ZM37 36L37 37L38 37L38 36ZM41 36L41 37L42 37L42 36ZM12 37L12 38L11 38L11 39L12 39L12 38L13 38L13 37ZM38 38L38 39L39 39L39 40L40 40L40 41L42 41L42 42L43 42L43 43L47 43L47 42L45 42L45 41L44 41L44 40L43 40L43 39L39 39L39 38ZM23 39L23 40L22 40L22 41L23 41L23 40L24 40L24 39ZM42 40L42 41L43 41L43 40ZM23 42L23 44L24 44L24 42ZM37 42L37 44L38 44L38 43L39 43L39 42ZM5 44L5 45L7 45L7 44ZM30 44L30 45L29 45L29 46L30 46L30 45L31 45L31 44ZM1 46L1 47L2 47L2 46ZM49 46L49 47L51 47L51 46ZM14 48L14 49L15 49L15 50L17 50L17 49L16 49L16 48ZM41 48L41 49L42 49L42 48ZM46 48L46 50L45 50L45 51L47 51L47 52L46 52L46 53L47 53L47 54L50 54L50 53L47 53L47 52L48 52L48 48ZM27 49L27 52L30 52L30 49ZM34 49L34 50L33 50L33 52L35 52L35 51L34 51L34 50L35 50L35 49ZM36 49L36 50L37 50L37 49ZM49 49L49 52L52 52L52 49ZM28 50L28 51L29 51L29 50ZM50 50L50 51L51 51L51 50ZM31 51L31 53L32 53L32 51ZM10 52L10 53L12 53L12 54L10 54L10 56L9 56L9 53L8 53L8 57L12 57L12 56L13 56L13 54L15 54L15 56L14 56L14 57L18 57L18 53L17 53L17 54L16 54L16 53L14 53L14 52ZM40 52L40 54L41 54L41 52ZM20 53L20 55L21 55L21 56L22 56L22 54L21 54L21 53ZM24 55L24 57L25 57L25 55ZM56 55L56 56L57 56L57 55ZM52 56L52 57L53 57L53 56ZM54 56L54 57L55 57L55 56ZM0 0L0 7L7 7L7 0ZM1 1L1 6L6 6L6 1ZM2 2L2 5L5 5L5 2ZM50 0L50 7L57 7L57 0ZM51 1L51 6L56 6L56 1ZM52 2L52 5L55 5L55 2ZM0 50L0 57L7 57L7 50ZM1 51L1 56L6 56L6 51ZM2 52L2 55L5 55L5 52Z" fill="#000000"/></g></g></svg>
