<?xml version="1.0" encoding="UTF-8"?>
<svg xmlns="http://www.w3.org/2000/svg" version="1.1" width="300" height="300" viewBox="0 0 300 300"><rect x="0" y="0" width="300" height="300" fill="#fefefe"/><g transform="scale(4.615)"><g transform="translate(4,4)"><path fill-rule="evenodd" d="M8 0L8 1L9 1L9 2L8 2L8 5L10 5L10 7L9 7L9 6L8 6L8 7L9 7L9 8L8 8L8 9L7 9L7 8L6 8L6 9L5 9L5 12L4 12L4 10L2 10L2 9L4 9L4 8L0 8L0 9L1 9L1 10L0 10L0 16L1 16L1 17L0 17L0 21L3 21L3 23L2 23L2 22L0 22L0 25L1 25L1 24L2 24L2 25L3 25L3 26L1 26L1 27L3 27L3 28L4 28L4 31L3 31L3 30L2 30L2 31L0 31L0 32L1 32L1 33L0 33L0 36L1 36L1 35L3 35L3 36L2 36L2 37L1 37L1 40L0 40L0 41L1 41L1 42L0 42L0 43L2 43L2 44L4 44L4 43L5 43L5 45L1 45L1 46L0 46L0 48L5 48L5 47L7 47L7 48L6 48L6 49L7 49L7 48L8 48L8 50L9 50L9 51L10 51L10 52L9 52L9 53L8 53L8 57L9 57L9 56L11 56L11 54L10 54L10 52L11 52L11 51L13 51L13 52L12 52L12 54L14 54L14 55L15 55L15 56L13 56L13 55L12 55L12 56L13 56L13 57L15 57L15 56L16 56L16 57L18 57L18 56L19 56L19 55L20 55L20 56L21 56L21 57L24 57L24 56L26 56L26 54L25 54L25 53L29 53L29 54L31 54L31 55L30 55L30 56L31 56L31 57L32 57L32 55L34 55L34 56L33 56L33 57L36 57L36 55L38 55L38 57L41 57L41 56L39 56L39 55L41 55L41 54L42 54L42 57L43 57L43 56L46 56L46 57L51 57L51 54L52 54L52 53L53 53L53 55L55 55L55 54L56 54L56 53L57 53L57 51L55 51L55 50L53 50L53 49L55 49L55 48L54 48L54 47L57 47L57 45L56 45L56 46L54 46L54 45L55 45L55 44L56 44L56 42L54 42L54 40L55 40L55 38L56 38L56 39L57 39L57 38L56 38L56 35L57 35L57 34L56 34L56 33L57 33L57 31L56 31L56 30L57 30L57 28L56 28L56 24L54 24L54 23L57 23L57 21L56 21L56 22L54 22L54 21L55 21L55 20L54 20L54 21L53 21L53 20L50 20L50 18L48 18L48 17L46 17L46 19L48 19L48 21L47 21L47 20L45 20L45 21L47 21L47 22L44 22L44 21L41 21L41 18L42 18L42 19L43 19L43 18L42 18L42 17L45 17L45 16L48 16L48 14L47 14L47 15L45 15L45 14L46 14L46 13L44 13L44 7L45 7L45 6L46 6L46 7L47 7L47 8L48 8L48 9L47 9L47 10L46 10L46 11L47 11L47 12L48 12L48 11L47 11L47 10L50 10L50 8L49 8L49 6L48 6L48 7L47 7L47 5L48 5L48 0L46 0L46 1L47 1L47 2L46 2L46 3L47 3L47 5L45 5L45 4L44 4L44 3L45 3L45 1L44 1L44 2L41 2L41 1L43 1L43 0L41 0L41 1L40 1L40 0L39 0L39 1L40 1L40 2L41 2L41 4L39 4L39 2L37 2L37 1L38 1L38 0L37 0L37 1L36 1L36 0L35 0L35 1L34 1L34 2L35 2L35 4L36 4L36 5L37 5L37 6L36 6L36 7L35 7L35 6L34 6L34 4L33 4L33 6L32 6L32 5L31 5L31 4L32 4L32 3L33 3L33 0L27 0L27 1L28 1L28 2L27 2L27 4L26 4L26 2L24 2L24 3L23 3L23 1L26 1L26 0L23 0L23 1L22 1L22 0L21 0L21 2L20 2L20 0L17 0L17 1L18 1L18 2L17 2L17 4L19 4L19 5L18 5L18 7L17 7L17 5L15 5L15 4L14 4L14 3L13 3L13 2L12 2L12 1L10 1L10 0ZM13 0L13 1L14 1L14 0ZM15 1L15 2L16 2L16 1ZM29 1L29 2L28 2L28 4L31 4L31 3L30 3L30 1ZM31 1L31 2L32 2L32 1ZM35 1L35 2L36 2L36 1ZM11 2L11 3L9 3L9 4L12 4L12 2ZM18 2L18 3L19 3L19 4L20 4L20 5L21 5L21 7L20 7L20 6L19 6L19 7L20 7L20 8L18 8L18 9L17 9L17 7L16 7L16 6L15 6L15 5L14 5L14 4L13 4L13 5L12 5L12 6L11 6L11 7L12 7L12 6L13 6L13 10L12 10L12 8L9 8L9 9L10 9L10 11L9 11L9 10L8 10L8 12L7 12L7 11L6 11L6 12L5 12L5 13L6 13L6 14L5 14L5 16L7 16L7 17L4 17L4 16L2 16L2 17L3 17L3 18L4 18L4 19L3 19L3 21L4 21L4 22L5 22L5 23L4 23L4 24L5 24L5 23L6 23L6 24L7 24L7 23L8 23L8 25L10 25L10 22L11 22L11 26L13 26L13 25L16 25L16 26L14 26L14 27L17 27L17 30L16 30L16 29L14 29L14 31L15 31L15 30L16 30L16 32L14 32L14 34L15 34L15 36L14 36L14 35L12 35L12 37L11 37L11 36L9 36L9 35L11 35L11 34L12 34L12 33L11 33L11 32L12 32L12 29L13 29L13 28L12 28L12 27L11 27L11 28L10 28L10 29L9 29L9 31L8 31L8 33L6 33L6 32L7 32L7 31L5 31L5 33L6 33L6 34L7 34L7 35L5 35L5 37L6 37L6 38L7 38L7 39L5 39L5 40L4 40L4 36L3 36L3 42L2 42L2 43L4 43L4 41L5 41L5 43L6 43L6 44L7 44L7 43L8 43L8 42L7 42L7 41L5 41L5 40L7 40L7 39L9 39L9 41L10 41L10 42L11 42L11 43L13 43L13 44L11 44L11 45L10 45L10 46L9 46L9 44L8 44L8 46L7 46L7 45L5 45L5 46L3 46L3 47L5 47L5 46L7 46L7 47L8 47L8 48L9 48L9 47L10 47L10 48L12 48L12 49L14 49L14 50L15 50L15 51L14 51L14 52L13 52L13 53L16 53L16 54L17 54L17 56L18 56L18 55L19 55L19 51L21 51L21 53L20 53L20 55L22 55L22 56L24 56L24 55L25 55L25 54L23 54L23 52L24 52L24 53L25 53L25 52L26 52L26 49L25 49L25 48L27 48L27 47L30 47L30 48L31 48L31 46L32 46L32 45L33 45L33 47L34 47L34 48L37 48L37 49L36 49L36 50L37 50L37 49L38 49L38 48L39 48L39 49L40 49L40 50L39 50L39 51L38 51L38 52L40 52L40 54L41 54L41 53L42 53L42 54L43 54L43 51L45 51L45 52L46 52L46 53L45 53L45 54L44 54L44 55L46 55L46 56L47 56L47 55L46 55L46 53L47 53L47 54L50 54L50 53L47 53L47 52L48 52L48 48L47 48L47 47L49 47L49 48L53 48L53 47L52 47L52 46L53 46L53 45L52 45L52 44L55 44L55 43L54 43L54 42L53 42L53 43L52 43L52 44L51 44L51 42L50 42L50 41L52 41L52 40L50 40L50 39L51 39L51 36L52 36L52 38L55 38L55 37L53 37L53 36L52 36L52 35L51 35L51 36L49 36L49 39L47 39L47 40L50 40L50 41L47 41L47 42L45 42L45 41L44 41L44 40L43 40L43 41L42 41L42 40L41 40L41 39L42 39L42 38L44 38L44 39L45 39L45 40L46 40L46 38L48 38L48 36L47 36L47 34L48 34L48 35L49 35L49 34L50 34L50 33L49 33L49 32L52 32L52 34L54 34L54 32L55 32L55 30L56 30L56 28L55 28L55 29L54 29L54 28L53 28L53 29L54 29L54 31L53 31L53 32L52 32L52 31L49 31L49 32L48 32L48 28L47 28L47 31L46 31L46 32L45 32L45 30L46 30L46 26L47 26L47 27L48 27L48 26L49 26L49 25L51 25L51 26L52 26L52 25L53 25L53 27L55 27L55 25L53 25L53 24L50 24L50 23L52 23L52 22L51 22L51 21L50 21L50 20L49 20L49 25L48 25L48 23L44 23L44 27L45 27L45 29L42 29L42 30L41 30L41 28L40 28L40 29L38 29L38 30L36 30L36 29L37 29L37 28L36 28L36 27L35 27L35 25L34 25L34 27L35 27L35 28L34 28L34 29L35 29L35 30L36 30L36 31L37 31L37 32L36 32L36 33L37 33L37 32L38 32L38 34L39 34L39 31L38 31L38 30L41 30L41 31L40 31L40 32L41 32L41 31L44 31L44 33L45 33L45 36L44 36L44 37L43 37L43 36L41 36L41 35L42 35L42 34L41 34L41 35L37 35L37 37L34 37L34 38L33 38L33 36L32 36L32 34L33 34L33 35L34 35L34 36L36 36L36 35L34 35L34 34L35 34L35 31L33 31L33 32L31 32L31 33L32 33L32 34L30 34L30 35L29 35L29 33L30 33L30 31L28 31L28 33L26 33L26 32L27 32L27 31L26 31L26 32L25 32L25 34L24 34L24 35L23 35L23 33L24 33L24 31L23 31L23 30L21 30L21 29L23 29L23 27L24 27L24 28L25 28L25 29L24 29L24 30L26 30L26 28L25 28L25 25L29 25L29 23L28 23L28 22L25 22L25 19L24 19L24 18L25 18L25 17L26 17L26 16L27 16L27 14L26 14L26 12L28 12L28 13L30 13L30 14L31 14L31 15L32 15L32 14L31 14L31 12L32 12L32 13L33 13L33 12L32 12L32 11L33 11L33 10L34 10L34 11L35 11L35 12L34 12L34 14L33 14L33 15L35 15L35 16L34 16L34 17L35 17L35 18L32 18L32 16L29 16L29 15L28 15L28 16L29 16L29 17L27 17L27 18L26 18L26 19L27 19L27 20L26 20L26 21L27 21L27 20L29 20L29 21L31 21L31 22L30 22L30 26L31 26L31 23L32 23L32 22L33 22L33 24L32 24L32 25L33 25L33 24L35 24L35 23L36 23L36 24L37 24L37 22L35 22L35 20L36 20L36 21L37 21L37 20L36 20L36 19L38 19L38 20L40 20L40 19L39 19L39 18L41 18L41 17L42 17L42 14L44 14L44 13L43 13L43 12L42 12L42 11L43 11L43 10L41 10L41 9L42 9L42 8L43 8L43 7L44 7L44 6L45 6L45 5L43 5L43 4L41 4L41 5L42 5L42 6L41 6L41 7L40 7L40 5L38 5L38 6L37 6L37 7L38 7L38 8L41 8L41 9L40 9L40 10L39 10L39 9L38 9L38 11L37 11L37 8L36 8L36 9L34 9L34 6L33 6L33 8L32 8L32 6L31 6L31 9L32 9L32 10L31 10L31 12L30 12L30 11L29 11L29 9L28 9L28 10L26 10L26 11L25 11L25 10L23 10L23 9L24 9L24 8L25 8L25 9L26 9L26 6L25 6L25 5L26 5L26 4L24 4L24 6L23 6L23 5L21 5L21 4L23 4L23 3L22 3L22 2L21 2L21 3L20 3L20 2ZM27 5L27 8L30 8L30 5ZM14 6L14 8L15 8L15 11L14 11L14 10L13 10L13 11L11 11L11 12L8 12L8 13L12 13L12 12L13 12L13 13L14 13L14 16L12 16L12 15L13 15L13 14L10 14L10 15L11 15L11 18L13 18L13 17L15 17L15 18L17 18L17 19L12 19L12 21L11 21L11 22L12 22L12 24L13 24L13 22L14 22L14 23L15 23L15 24L16 24L16 23L17 23L17 25L20 25L20 26L22 26L22 27L23 27L23 25L22 25L22 24L24 24L24 25L25 25L25 22L24 22L24 21L23 21L23 20L21 20L21 19L22 19L22 17L21 17L21 16L20 16L20 17L21 17L21 19L20 19L20 18L17 18L17 16L16 16L16 15L18 15L18 16L19 16L19 15L20 15L20 14L21 14L21 13L19 13L19 12L20 12L20 11L23 11L23 12L22 12L22 13L23 13L23 12L25 12L25 11L23 11L23 10L22 10L22 9L23 9L23 8L24 8L24 7L25 7L25 6L24 6L24 7L23 7L23 6L22 6L22 8L21 8L21 10L20 10L20 9L19 9L19 10L20 10L20 11L19 11L19 12L18 12L18 10L17 10L17 12L16 12L16 13L17 13L17 12L18 12L18 13L19 13L19 15L18 15L18 14L16 14L16 15L15 15L15 11L16 11L16 8L15 8L15 6ZM28 6L28 7L29 7L29 6ZM38 6L38 7L39 7L39 6ZM42 6L42 7L41 7L41 8L42 8L42 7L43 7L43 6ZM52 8L52 9L51 9L51 11L49 11L49 15L50 15L50 16L51 16L51 17L52 17L52 16L55 16L55 17L54 17L54 18L52 18L52 19L56 19L56 18L57 18L57 15L55 15L55 13L54 13L54 10L53 10L53 13L52 13L52 12L51 12L51 11L52 11L52 9L55 9L55 8ZM56 8L56 9L57 9L57 8ZM6 9L6 10L7 10L7 9ZM35 10L35 11L36 11L36 10ZM55 10L55 12L56 12L56 11L57 11L57 10ZM1 11L1 12L2 12L2 13L1 13L1 15L2 15L2 14L3 14L3 15L4 15L4 12L3 12L3 11ZM38 11L38 12L35 12L35 13L36 13L36 14L35 14L35 15L36 15L36 14L37 14L37 15L39 15L39 17L40 17L40 16L41 16L41 15L40 15L40 14L39 14L39 11ZM6 12L6 13L7 13L7 12ZM50 12L50 13L51 13L51 16L52 16L52 15L54 15L54 13L53 13L53 14L52 14L52 13L51 13L51 12ZM6 14L6 15L7 15L7 16L8 16L8 17L9 17L9 18L10 18L10 16L8 16L8 15L7 15L7 14ZM23 14L23 15L24 15L24 16L23 16L23 18L24 18L24 17L25 17L25 16L26 16L26 15L25 15L25 14ZM44 15L44 16L45 16L45 15ZM29 17L29 18L28 18L28 19L29 19L29 20L30 20L30 17ZM36 17L36 18L37 18L37 17ZM1 18L1 20L2 20L2 18ZM6 18L6 19L7 19L7 18ZM44 18L44 19L45 19L45 18ZM10 19L10 20L11 20L11 19ZM17 19L17 20L18 20L18 21L17 21L17 23L18 23L18 24L19 24L19 23L18 23L18 22L21 22L21 23L20 23L20 24L21 24L21 23L22 23L22 21L21 21L21 20L20 20L20 19ZM31 19L31 20L32 20L32 19ZM34 19L34 20L35 20L35 19ZM4 20L4 21L5 21L5 22L6 22L6 23L7 23L7 22L6 22L6 21L9 21L9 22L8 22L8 23L9 23L9 22L10 22L10 21L9 21L9 20ZM14 20L14 22L15 22L15 23L16 23L16 20ZM12 21L12 22L13 22L13 21ZM38 21L38 22L39 22L39 21ZM42 22L42 23L40 23L40 26L38 26L38 27L41 27L41 26L43 26L43 25L41 25L41 24L42 24L42 23L43 23L43 22ZM53 22L53 23L54 23L54 22ZM26 23L26 24L28 24L28 23ZM38 24L38 25L39 25L39 24ZM45 24L45 26L46 26L46 24ZM5 25L5 26L7 26L7 25ZM9 26L9 27L10 27L10 26ZM17 26L17 27L19 27L19 28L18 28L18 29L19 29L19 31L18 31L18 30L17 30L17 32L16 32L16 33L18 33L18 32L21 32L21 34L20 34L20 33L19 33L19 34L20 34L20 35L19 35L19 36L17 36L17 34L16 34L16 36L17 36L17 37L18 37L18 39L19 39L19 40L20 40L20 41L22 41L22 44L21 44L21 43L19 43L19 41L18 41L18 43L19 43L19 44L21 44L21 46L20 46L20 45L17 45L17 40L16 40L16 39L17 39L17 38L14 38L14 36L13 36L13 37L12 37L12 39L11 39L11 38L10 38L10 37L8 37L8 35L9 35L9 34L11 34L11 33L8 33L8 35L7 35L7 36L6 36L6 37L7 37L7 38L10 38L10 39L11 39L11 40L12 40L12 41L11 41L11 42L12 42L12 41L13 41L13 42L14 42L14 41L13 41L13 40L16 40L16 41L15 41L15 43L14 43L14 44L13 44L13 45L11 45L11 46L13 46L13 47L14 47L14 45L17 45L17 47L16 47L16 46L15 46L15 47L16 47L16 49L17 49L17 50L16 50L16 52L17 52L17 50L18 50L18 49L19 49L19 50L21 50L21 51L22 51L22 50L23 50L23 49L24 49L24 47L25 47L25 45L26 45L26 46L27 46L27 45L29 45L29 46L30 46L30 45L29 45L29 43L32 43L32 42L33 42L33 45L34 45L34 44L35 44L35 46L34 46L34 47L36 47L36 43L34 43L34 42L36 42L36 41L34 41L34 40L35 40L35 39L36 39L36 38L35 38L35 39L33 39L33 38L32 38L32 36L29 36L29 35L28 35L28 34L27 34L27 36L23 36L23 38L22 38L22 40L21 40L21 38L20 38L20 37L19 37L19 36L20 36L20 35L21 35L21 34L22 34L22 33L23 33L23 31L22 31L22 32L21 32L21 31L20 31L20 27L19 27L19 26ZM5 27L5 30L8 30L8 27ZM27 27L27 30L30 30L30 27ZM31 27L31 28L33 28L33 27ZM42 27L42 28L43 28L43 27ZM49 27L49 30L52 30L52 27ZM0 28L0 30L1 30L1 29L2 29L2 28ZM6 28L6 29L7 29L7 28ZM11 28L11 29L10 29L10 30L11 30L11 29L12 29L12 28ZM28 28L28 29L29 29L29 28ZM50 28L50 29L51 29L51 28ZM31 29L31 31L32 31L32 30L33 30L33 29ZM2 31L2 33L1 33L1 34L3 34L3 35L4 35L4 34L3 34L3 33L4 33L4 32L3 32L3 31ZM9 31L9 32L10 32L10 31ZM33 32L33 33L34 33L34 32ZM42 32L42 33L43 33L43 32ZM46 32L46 33L47 33L47 32ZM25 34L25 35L26 35L26 34ZM43 34L43 35L44 35L44 34ZM54 35L54 36L55 36L55 35ZM27 36L27 37L24 37L24 39L23 39L23 40L22 40L22 41L23 41L23 40L24 40L24 39L25 39L25 41L24 41L24 42L23 42L23 43L26 43L26 45L27 45L27 44L28 44L28 43L27 43L27 42L25 42L25 41L26 41L26 40L27 40L27 41L28 41L28 40L30 40L30 41L29 41L29 42L30 42L30 41L31 41L31 40L33 40L33 39L32 39L32 38L30 38L30 39L28 39L28 40L27 40L27 39L25 39L25 38L29 38L29 36ZM39 36L39 37L37 37L37 38L39 38L39 39L38 39L38 40L37 40L37 41L39 41L39 42L37 42L37 44L38 44L38 45L37 45L37 47L38 47L38 45L39 45L39 47L43 47L43 50L44 50L44 48L45 48L45 51L46 51L46 52L47 52L47 50L46 50L46 49L47 49L47 48L46 48L46 47L47 47L47 46L46 46L46 47L45 47L45 45L44 45L44 47L43 47L43 45L42 45L42 43L43 43L43 44L49 44L49 43L50 43L50 42L49 42L49 43L48 43L48 42L47 42L47 43L45 43L45 42L44 42L44 43L43 43L43 42L42 42L42 41L41 41L41 42L42 42L42 43L39 43L39 42L40 42L40 40L39 40L39 39L41 39L41 37L40 37L40 36ZM45 36L45 38L46 38L46 37L47 37L47 36ZM56 40L56 41L57 41L57 40ZM6 42L6 43L7 43L7 42ZM38 43L38 44L39 44L39 43ZM22 44L22 46L21 46L21 47L20 47L20 46L19 46L19 47L20 47L20 48L21 48L21 50L22 50L22 49L23 49L23 48L21 48L21 47L22 47L22 46L23 46L23 45L24 45L24 44ZM48 45L48 46L49 46L49 47L51 47L51 46L49 46L49 45ZM1 46L1 47L2 47L2 46ZM8 46L8 47L9 47L9 46ZM32 48L32 49L31 49L31 53L32 53L32 51L34 51L34 50L35 50L35 49L34 49L34 50L33 50L33 48ZM41 48L41 49L42 49L42 48ZM56 48L56 50L57 50L57 48ZM9 49L9 50L10 50L10 49ZM27 49L27 52L30 52L30 49ZM49 49L49 52L52 52L52 49ZM24 50L24 51L25 51L25 50ZM28 50L28 51L29 51L29 50ZM50 50L50 51L51 51L51 50ZM36 51L36 52L35 52L35 53L36 53L36 54L34 54L34 55L36 55L36 54L37 54L37 51ZM40 51L40 52L41 52L41 51ZM33 52L33 53L34 53L34 52ZM54 52L54 53L56 53L56 52ZM17 53L17 54L18 54L18 53ZM21 53L21 54L22 54L22 55L23 55L23 54L22 54L22 53ZM38 53L38 54L39 54L39 53ZM9 54L9 55L10 55L10 54ZM27 55L27 56L28 56L28 55ZM48 55L48 56L49 56L49 55ZM56 55L56 56L57 56L57 55ZM52 56L52 57L55 57L55 56ZM0 0L0 7L7 7L7 0ZM1 1L1 6L6 6L6 1ZM2 2L2 5L5 5L5 2ZM50 0L50 7L57 7L57 0ZM51 1L51 6L56 6L56 1ZM52 2L52 5L55 5L55 2ZM0 50L0 57L7 57L7 50ZM1 51L1 56L6 56L6 51ZM2 52L2 55L5 55L5 52Z" fill="#000000"/></g></g></svg>
