<?xml version="1.0" encoding="UTF-8"?>
<svg xmlns="http://www.w3.org/2000/svg" version="1.1" width="300" height="300" viewBox="0 0 300 300"><rect x="0" y="0" width="300" height="300" fill="#fefefe"/><g transform="scale(4.615)"><g transform="translate(4,4)"><path fill-rule="evenodd" d="M9 0L9 1L8 1L8 2L11 2L11 4L12 4L12 5L13 5L13 4L14 4L14 2L15 2L15 3L16 3L16 2L18 2L18 3L17 3L17 4L19 4L19 5L20 5L20 7L19 7L19 6L18 6L18 5L17 5L17 6L16 6L16 7L15 7L15 6L14 6L14 8L13 8L13 9L12 9L12 8L11 8L11 10L12 10L12 11L11 11L11 12L9 12L9 13L8 13L8 14L6 14L6 13L7 13L7 12L8 12L8 11L10 11L10 8L6 8L6 9L5 9L5 8L0 8L0 13L1 13L1 14L0 14L0 15L3 15L3 13L4 13L4 15L7 15L7 16L5 16L5 18L6 18L6 19L7 19L7 20L5 20L5 23L4 23L4 22L3 22L3 21L4 21L4 20L3 20L3 19L4 19L4 18L3 18L3 19L2 19L2 24L3 24L3 25L2 25L2 27L1 27L1 29L2 29L2 28L3 28L3 29L4 29L4 31L3 31L3 32L2 32L2 33L0 33L0 34L2 34L2 36L1 36L1 35L0 35L0 37L1 37L1 38L0 38L0 42L1 42L1 40L2 40L2 39L3 39L3 40L4 40L4 39L5 39L5 41L3 41L3 42L2 42L2 43L1 43L1 44L2 44L2 45L3 45L3 46L2 46L2 47L1 47L1 46L0 46L0 48L5 48L5 47L7 47L7 46L6 46L6 45L9 45L9 46L8 46L8 47L9 47L9 48L10 48L10 50L11 50L11 51L12 51L12 53L11 53L11 52L10 52L10 51L9 51L9 49L8 49L8 48L6 48L6 49L8 49L8 51L9 51L9 52L8 52L8 57L9 57L9 56L10 56L10 55L11 55L11 56L12 56L12 57L15 57L15 56L14 56L14 55L16 55L16 56L17 56L17 57L20 57L20 56L19 56L19 55L20 55L20 54L19 54L19 53L20 53L20 52L21 52L21 53L22 53L22 55L23 55L23 56L24 56L24 57L26 57L26 56L27 56L27 57L29 57L29 56L30 56L30 57L31 57L31 56L35 56L35 57L39 57L39 56L41 56L41 55L44 55L44 54L45 54L45 55L46 55L46 56L48 56L48 57L49 57L49 56L50 56L50 57L52 57L52 55L51 55L51 53L52 53L52 54L53 54L53 55L54 55L54 56L53 56L53 57L54 57L54 56L55 56L55 57L56 57L56 56L55 56L55 53L56 53L56 52L55 52L55 51L56 51L56 50L55 50L55 49L53 49L53 48L56 48L56 49L57 49L57 48L56 48L56 46L57 46L57 45L56 45L56 44L55 44L55 43L56 43L56 41L55 41L55 39L57 39L57 37L56 37L56 34L57 34L57 32L56 32L56 30L57 30L57 27L56 27L56 26L57 26L57 25L56 25L56 22L57 22L57 20L55 20L55 19L56 19L56 18L57 18L57 17L56 17L56 16L57 16L57 15L56 15L56 14L57 14L57 11L56 11L56 8L55 8L55 10L54 10L54 11L52 11L52 10L49 10L49 9L50 9L50 8L48 8L48 7L49 7L49 6L48 6L48 7L47 7L47 5L48 5L48 0L45 0L45 1L47 1L47 2L44 2L44 3L41 3L41 2L43 2L43 0L41 0L41 1L40 1L40 0L39 0L39 1L38 1L38 0L37 0L37 1L38 1L38 2L37 2L37 3L36 3L36 0L35 0L35 1L32 1L32 0L29 0L29 1L28 1L28 0L27 0L27 1L26 1L26 0L23 0L23 2L22 2L22 3L21 3L21 4L19 4L19 3L20 3L20 0L17 0L17 1L14 1L14 0L12 0L12 1L14 1L14 2L11 2L11 0ZM21 0L21 1L22 1L22 0ZM25 1L25 2L23 2L23 3L22 3L22 4L21 4L21 5L22 5L22 6L21 6L21 7L22 7L22 6L23 6L23 8L19 8L19 7L18 7L18 6L17 6L17 7L16 7L16 8L14 8L14 9L13 9L13 10L15 10L15 11L18 11L18 9L16 9L16 8L19 8L19 9L20 9L20 11L22 11L22 10L24 10L24 9L25 9L25 8L26 8L26 4L29 4L29 2L28 2L28 3L27 3L27 2L26 2L26 1ZM30 2L30 3L32 3L32 4L31 4L31 8L32 8L32 10L31 10L31 11L29 11L29 9L28 9L28 10L27 10L27 11L26 11L26 12L25 12L25 11L24 11L24 12L23 12L23 13L22 13L22 12L20 12L20 15L21 15L21 16L22 16L22 17L20 17L20 16L19 16L19 15L18 15L18 16L19 16L19 17L17 17L17 13L18 13L18 12L17 12L17 13L16 13L16 12L15 12L15 13L13 13L13 12L14 12L14 11L13 11L13 12L12 12L12 13L13 13L13 14L11 14L11 13L10 13L10 14L8 14L8 17L6 17L6 18L8 18L8 17L9 17L9 20L7 20L7 21L6 21L6 22L7 22L7 23L5 23L5 24L7 24L7 25L3 25L3 28L4 28L4 26L9 26L9 23L8 23L8 22L9 22L9 20L11 20L11 21L12 21L12 22L10 22L10 23L11 23L11 24L12 24L12 25L14 25L14 24L15 24L15 28L13 28L13 26L10 26L10 29L11 29L11 30L9 30L9 33L8 33L8 31L6 31L6 32L7 32L7 33L4 33L4 34L3 34L3 33L2 33L2 34L3 34L3 35L4 35L4 37L2 37L2 38L3 38L3 39L4 39L4 37L5 37L5 39L6 39L6 40L7 40L7 41L5 41L5 42L3 42L3 44L4 44L4 45L6 45L6 44L8 44L8 43L6 43L6 42L9 42L9 43L10 43L10 44L9 44L9 45L10 45L10 48L11 48L11 49L12 49L12 50L13 50L13 49L12 49L12 48L14 48L14 51L13 51L13 52L14 52L14 51L15 51L15 52L16 52L16 53L13 53L13 54L11 54L11 55L12 55L12 56L13 56L13 54L16 54L16 53L17 53L17 52L18 52L18 51L17 51L17 50L18 50L18 49L16 49L16 48L19 48L19 49L20 49L20 50L19 50L19 52L20 52L20 50L21 50L21 49L23 49L23 48L24 48L24 49L26 49L26 48L27 48L27 47L28 47L28 48L30 48L30 47L29 47L29 45L30 45L30 46L32 46L32 45L33 45L33 46L36 46L36 47L35 47L35 48L36 48L36 47L37 47L37 46L36 46L36 45L34 45L34 43L37 43L37 42L35 42L35 40L38 40L38 42L39 42L39 41L43 41L43 44L44 44L44 45L45 45L45 46L44 46L44 47L43 47L43 46L41 46L41 44L42 44L42 43L41 43L41 44L40 44L40 43L39 43L39 45L38 45L38 46L41 46L41 48L39 48L39 47L38 47L38 48L37 48L37 49L38 49L38 50L36 50L36 49L33 49L33 48L34 48L34 47L32 47L32 49L31 49L31 50L32 50L32 51L31 51L31 53L30 53L30 54L27 54L27 53L24 53L24 52L26 52L26 50L22 50L22 51L21 51L21 52L22 52L22 53L24 53L24 54L23 54L23 55L24 55L24 56L26 56L26 55L27 55L27 56L29 56L29 55L30 55L30 56L31 56L31 54L32 54L32 53L33 53L33 54L34 54L34 55L35 55L35 56L36 56L36 54L35 54L35 53L34 53L34 52L35 52L35 50L36 50L36 52L37 52L37 53L38 53L38 54L37 54L37 56L39 56L39 55L38 55L38 54L40 54L40 53L42 53L42 52L43 52L43 51L44 51L44 50L45 50L45 52L44 52L44 53L43 53L43 54L44 54L44 53L45 53L45 54L46 54L46 55L47 55L47 54L48 54L48 50L47 50L47 49L48 49L48 48L52 48L52 47L55 47L55 46L56 46L56 45L55 45L55 44L54 44L54 45L55 45L55 46L53 46L53 45L50 45L50 43L51 43L51 44L53 44L53 43L54 43L54 42L53 42L53 41L54 41L54 40L53 40L53 39L55 39L55 38L54 38L54 37L53 37L53 35L55 35L55 34L56 34L56 32L55 32L55 34L54 34L54 33L52 33L52 31L51 31L51 33L52 33L52 34L50 34L50 32L49 32L49 31L48 31L48 30L47 30L47 29L46 29L46 30L47 30L47 31L48 31L48 32L43 32L43 30L44 30L44 31L45 31L45 30L44 30L44 29L45 29L45 28L46 28L46 27L47 27L47 28L48 28L48 27L47 27L47 23L48 23L48 24L49 24L49 25L50 25L50 26L53 26L53 27L54 27L54 26L53 26L53 24L54 24L54 25L55 25L55 26L56 26L56 25L55 25L55 24L54 24L54 23L53 23L53 24L51 24L51 23L50 23L50 22L51 22L51 21L53 21L53 22L56 22L56 21L55 21L55 20L53 20L53 19L52 19L52 18L51 18L51 17L53 17L53 18L55 18L55 16L51 16L51 17L50 17L50 14L51 14L51 12L50 12L50 11L49 11L49 12L45 12L45 11L46 11L46 10L47 10L47 9L48 9L48 8L47 8L47 7L46 7L46 6L45 6L45 4L46 4L46 5L47 5L47 3L44 3L44 6L43 6L43 5L42 5L42 6L41 6L41 5L40 5L40 4L41 4L41 3L38 3L38 5L37 5L37 4L36 4L36 5L35 5L35 2L33 2L33 3L32 3L32 2ZM8 3L8 4L9 4L9 5L8 5L8 7L9 7L9 6L10 6L10 7L11 7L11 5L10 5L10 3ZM23 3L23 4L22 4L22 5L23 5L23 6L24 6L24 8L23 8L23 9L24 9L24 8L25 8L25 4L26 4L26 3ZM33 3L33 4L32 4L32 5L33 5L33 6L32 6L32 7L33 7L33 9L34 9L34 8L35 8L35 9L37 9L37 10L36 10L36 11L37 11L37 12L35 12L35 13L36 13L36 14L33 14L33 13L34 13L34 12L33 12L33 10L32 10L32 12L31 12L31 13L30 13L30 14L29 14L29 13L28 13L28 12L29 12L29 11L27 11L27 12L26 12L26 13L25 13L25 12L24 12L24 13L23 13L23 14L22 14L22 13L21 13L21 15L23 15L23 16L26 16L26 15L27 15L27 16L28 16L28 17L26 17L26 18L28 18L28 19L27 19L27 20L31 20L31 21L29 21L29 22L31 22L31 21L32 21L32 20L33 20L33 21L35 21L35 23L34 23L34 22L33 22L33 23L32 23L32 24L31 24L31 25L29 25L29 26L26 26L26 25L25 25L25 24L27 24L27 22L28 22L28 21L25 21L25 20L26 20L26 19L25 19L25 17L22 17L22 18L21 18L21 19L22 19L22 18L24 18L24 19L23 19L23 20L24 20L24 21L22 21L22 22L24 22L24 21L25 21L25 22L26 22L26 23L25 23L25 24L24 24L24 23L23 23L23 24L24 24L24 25L22 25L22 24L20 24L20 25L19 25L19 23L20 23L20 22L18 22L18 21L20 21L20 19L19 19L19 20L18 20L18 19L17 19L17 20L18 20L18 21L16 21L16 20L15 20L15 21L16 21L16 22L15 22L15 23L16 23L16 24L17 24L17 25L18 25L18 26L16 26L16 27L18 27L18 26L20 26L20 27L19 27L19 28L20 28L20 27L22 27L22 26L23 26L23 31L21 31L21 30L20 30L20 29L18 29L18 28L16 28L16 29L14 29L14 30L15 30L15 31L14 31L14 32L13 32L13 31L12 31L12 30L11 30L11 32L10 32L10 33L9 33L9 34L10 34L10 33L12 33L12 34L11 34L11 35L10 35L10 37L9 37L9 38L6 38L6 39L9 39L9 40L10 40L10 38L11 38L11 40L12 40L12 38L14 38L14 39L15 39L15 41L14 41L14 40L13 40L13 41L14 41L14 42L15 42L15 43L14 43L14 44L13 44L13 42L10 42L10 41L9 41L9 42L10 42L10 43L11 43L11 45L12 45L12 46L11 46L11 47L12 47L12 46L13 46L13 45L14 45L14 47L15 47L15 45L14 45L14 44L18 44L18 45L17 45L17 47L23 47L23 46L25 46L25 44L27 44L27 45L26 45L26 47L24 47L24 48L26 48L26 47L27 47L27 45L29 45L29 44L31 44L31 45L32 45L32 44L33 44L33 43L34 43L34 42L33 42L33 41L32 41L32 40L31 40L31 41L30 41L30 42L29 42L29 43L28 43L28 44L27 44L27 43L25 43L25 44L24 44L24 45L23 45L23 42L25 42L25 41L23 41L23 42L22 42L22 41L21 41L21 42L20 42L20 41L19 41L19 40L21 40L21 39L22 39L22 38L23 38L23 39L24 39L24 40L25 40L25 39L26 39L26 40L27 40L27 41L26 41L26 42L27 42L27 41L28 41L28 39L26 39L26 38L28 38L28 37L27 37L27 31L28 31L28 33L29 33L29 34L30 34L30 36L29 36L29 37L31 37L31 38L29 38L29 39L33 39L33 40L35 40L35 39L37 39L37 38L38 38L38 37L40 37L40 38L43 38L43 37L44 37L44 38L45 38L45 39L44 39L44 40L43 40L43 41L44 41L44 43L46 43L46 44L45 44L45 45L47 45L47 46L45 46L45 47L44 47L44 48L43 48L43 47L42 47L42 48L41 48L41 50L38 50L38 53L39 53L39 51L40 51L40 52L42 52L42 51L43 51L43 49L44 49L44 48L46 48L46 47L47 47L47 48L48 48L48 47L50 47L50 46L48 46L48 45L47 45L47 43L50 43L50 42L51 42L51 43L53 43L53 42L51 42L51 41L53 41L53 40L52 40L52 39L53 39L53 38L51 38L51 37L52 37L52 35L53 35L53 34L52 34L52 35L50 35L50 34L49 34L49 35L50 35L50 36L51 36L51 37L49 37L49 38L47 38L47 39L46 39L46 38L45 38L45 37L46 37L46 36L48 36L48 35L44 35L44 36L43 36L43 37L40 37L40 36L41 36L41 35L42 35L42 34L45 34L45 33L43 33L43 32L41 32L41 33L39 33L39 34L40 34L40 35L39 35L39 36L38 36L38 33L37 33L37 32L35 32L35 30L32 30L32 31L31 31L31 29L32 29L32 27L33 27L33 28L35 28L35 29L38 29L38 28L40 28L40 26L43 26L43 25L44 25L44 28L43 28L43 29L39 29L39 30L38 30L38 32L39 32L39 31L41 31L41 30L43 30L43 29L44 29L44 28L45 28L45 25L44 25L44 20L45 20L45 18L44 18L44 15L45 15L45 17L47 17L47 18L50 18L50 19L49 19L49 21L47 21L47 22L46 22L46 23L45 23L45 24L46 24L46 23L47 23L47 22L49 22L49 21L51 21L51 20L52 20L52 19L51 19L51 18L50 18L50 17L49 17L49 16L48 16L48 15L49 15L49 14L50 14L50 12L49 12L49 13L47 13L47 14L45 14L45 13L44 13L44 11L45 11L45 10L46 10L46 9L44 9L44 8L43 8L43 6L42 6L42 7L41 7L41 6L40 6L40 5L39 5L39 6L38 6L38 9L37 9L37 8L35 8L35 5L33 5L33 4L34 4L34 3ZM15 4L15 5L16 5L16 4ZM23 4L23 5L24 5L24 4ZM27 5L27 8L30 8L30 5ZM36 5L36 7L37 7L37 5ZM12 6L12 7L13 7L13 6ZM28 6L28 7L29 7L29 6ZM33 6L33 7L34 7L34 6ZM39 6L39 9L38 9L38 10L37 10L37 11L38 11L38 10L39 10L39 11L40 11L40 10L41 10L41 9L42 9L42 8L41 8L41 7L40 7L40 6ZM44 6L44 7L45 7L45 8L46 8L46 7L45 7L45 6ZM51 8L51 9L52 9L52 8ZM53 8L53 9L54 9L54 8ZM4 9L4 10L3 10L3 11L2 11L2 10L1 10L1 12L2 12L2 13L3 13L3 11L4 11L4 12L5 12L5 13L6 13L6 12L7 12L7 11L8 11L8 10L7 10L7 9L6 9L6 10L5 10L5 9ZM15 9L15 10L16 10L16 9ZM21 9L21 10L22 10L22 9ZM43 9L43 11L41 11L41 12L39 12L39 13L38 13L38 14L37 14L37 15L35 15L35 16L32 16L32 13L33 13L33 12L32 12L32 13L31 13L31 14L30 14L30 15L31 15L31 16L32 16L32 17L31 17L31 18L30 18L30 19L32 19L32 17L33 17L33 18L34 18L34 19L36 19L36 20L37 20L37 21L38 21L38 23L37 23L37 24L38 24L38 26L37 26L37 25L33 25L33 24L32 24L32 26L31 26L31 27L32 27L32 26L33 26L33 27L34 27L34 26L36 26L36 27L39 27L39 25L43 25L43 24L42 24L42 23L41 23L41 24L38 24L38 23L40 23L40 22L39 22L39 21L43 21L43 20L44 20L44 18L43 18L43 19L42 19L42 18L41 18L41 20L39 20L39 21L38 21L38 20L37 20L37 19L39 19L39 17L41 17L41 16L42 16L42 17L43 17L43 16L42 16L42 15L44 15L44 13L43 13L43 11L44 11L44 9ZM4 10L4 11L5 11L5 10ZM6 10L6 11L7 11L7 10ZM55 11L55 12L54 12L54 13L55 13L55 14L53 14L53 15L55 15L55 14L56 14L56 11ZM52 12L52 13L53 13L53 12ZM15 13L15 14L13 14L13 15L11 15L11 14L10 14L10 16L9 16L9 17L11 17L11 18L12 18L12 16L13 16L13 18L14 18L14 16L16 16L16 13ZM26 13L26 14L25 14L25 15L26 15L26 14L27 14L27 15L28 15L28 16L29 16L29 14L28 14L28 13ZM39 13L39 14L38 14L38 15L39 15L39 16L38 16L38 17L37 17L37 16L35 16L35 17L37 17L37 18L38 18L38 17L39 17L39 16L41 16L41 15L39 15L39 14L43 14L43 13ZM23 14L23 15L24 15L24 14ZM13 15L13 16L14 16L14 15ZM0 16L0 20L1 20L1 17L4 17L4 16ZM19 17L19 18L20 18L20 17ZM15 18L15 19L16 19L16 18ZM13 19L13 20L12 20L12 21L13 21L13 22L12 22L12 23L14 23L14 21L13 21L13 20L14 20L14 19ZM46 19L46 20L47 20L47 19ZM0 21L0 23L1 23L1 21ZM7 21L7 22L8 22L8 21ZM17 23L17 24L18 24L18 23ZM28 23L28 24L29 24L29 23ZM50 24L50 25L51 25L51 24ZM20 25L20 26L22 26L22 25ZM25 26L25 27L24 27L24 28L25 28L25 29L26 29L26 28L25 28L25 27L26 27L26 26ZM5 27L5 30L8 30L8 27ZM27 27L27 30L30 30L30 27ZM41 27L41 28L42 28L42 27ZM49 27L49 30L52 30L52 27ZM55 27L55 28L54 28L54 29L53 29L53 30L54 30L54 31L55 31L55 30L54 30L54 29L56 29L56 27ZM6 28L6 29L7 29L7 28ZM21 28L21 29L22 29L22 28ZM28 28L28 29L29 29L29 28ZM50 28L50 29L51 29L51 28ZM16 29L16 31L15 31L15 33L14 33L14 34L12 34L12 36L11 36L11 37L12 37L12 36L13 36L13 35L14 35L14 36L15 36L15 37L16 37L16 38L15 38L15 39L16 39L16 41L15 41L15 42L17 42L17 43L18 43L18 42L19 42L19 41L18 41L18 40L17 40L17 38L18 38L18 37L17 37L17 33L18 33L18 34L19 34L19 35L20 35L20 34L21 34L21 33L22 33L22 35L23 35L23 36L19 36L19 37L23 37L23 38L24 38L24 37L23 37L23 36L24 36L24 34L23 34L23 33L25 33L25 34L26 34L26 32L24 32L24 31L25 31L25 30L24 30L24 31L23 31L23 32L20 32L20 34L19 34L19 33L18 33L18 31L20 31L20 30L18 30L18 29ZM1 30L1 31L0 31L0 32L1 32L1 31L2 31L2 30ZM4 31L4 32L5 32L5 31ZM29 31L29 33L31 33L31 35L33 35L33 36L32 36L32 37L33 37L33 39L35 39L35 37L34 37L34 35L33 35L33 34L35 34L35 36L37 36L37 34L35 34L35 32L34 32L34 31L32 31L32 33L31 33L31 31ZM12 32L12 33L13 33L13 32ZM16 32L16 33L17 33L17 32ZM48 32L48 33L49 33L49 32ZM7 33L7 34L6 34L6 35L7 35L7 36L5 36L5 37L8 37L8 36L9 36L9 35L8 35L8 33ZM32 33L32 34L33 34L33 33ZM15 34L15 36L16 36L16 34ZM25 36L25 38L26 38L26 36ZM44 36L44 37L45 37L45 36ZM19 38L19 39L20 39L20 38ZM49 38L49 39L47 39L47 40L44 40L44 41L45 41L45 42L48 42L48 41L49 41L49 39L51 39L51 38ZM38 39L38 40L40 40L40 39ZM17 41L17 42L18 42L18 41ZM31 41L31 42L32 42L32 43L31 43L31 44L32 44L32 43L33 43L33 42L32 42L32 41ZM21 42L21 43L20 43L20 44L19 44L19 45L20 45L20 46L21 46L21 45L22 45L22 46L23 46L23 45L22 45L22 44L21 44L21 43L22 43L22 42ZM4 43L4 44L6 44L6 43ZM12 44L12 45L13 45L13 44ZM3 46L3 47L5 47L5 46ZM51 46L51 47L52 47L52 46ZM38 48L38 49L39 49L39 48ZM42 48L42 49L43 49L43 48ZM15 49L15 51L16 51L16 52L17 52L17 51L16 51L16 49ZM27 49L27 52L30 52L30 49ZM32 49L32 50L33 50L33 49ZM49 49L49 52L52 52L52 49ZM28 50L28 51L29 51L29 50ZM41 50L41 51L42 51L42 50ZM50 50L50 51L51 51L51 50ZM54 50L54 51L55 51L55 50ZM32 51L32 52L33 52L33 51ZM46 51L46 52L47 52L47 51ZM53 52L53 53L54 53L54 52ZM9 54L9 55L10 55L10 54ZM17 54L17 55L18 55L18 54ZM48 55L48 56L49 56L49 55ZM50 55L50 56L51 56L51 55ZM43 56L43 57L44 57L44 56ZM0 0L0 7L7 7L7 0ZM1 1L1 6L6 6L6 1ZM2 2L2 5L5 5L5 2ZM50 0L50 7L57 7L57 0ZM51 1L51 6L56 6L56 1ZM52 2L52 5L55 5L55 2ZM0 50L0 57L7 57L7 50ZM1 51L1 56L6 56L6 51ZM2 52L2 55L5 55L5 52Z" fill="#000000"/></g></g></svg>
