<?xml version="1.0" encoding="UTF-8"?>
<svg xmlns="http://www.w3.org/2000/svg" version="1.1" width="300" height="300" viewBox="0 0 300 300"><rect x="0" y="0" width="300" height="300" fill="#fefefe"/><g transform="scale(4.615)"><g transform="translate(4,4)"><path fill-rule="evenodd" d="M9 0L9 1L8 1L8 2L9 2L9 3L8 3L8 4L9 4L9 5L8 5L8 7L9 7L9 5L10 5L10 7L11 7L11 5L10 5L10 1L12 1L12 0ZM13 0L13 1L14 1L14 2L11 2L11 3L12 3L12 5L13 5L13 4L14 4L14 2L15 2L15 3L17 3L17 4L18 4L18 5L20 5L20 7L19 7L19 6L18 6L18 7L17 7L17 6L16 6L16 7L15 7L15 5L16 5L16 4L15 4L15 5L14 5L14 7L13 7L13 6L12 6L12 8L6 8L6 9L7 9L7 10L5 10L5 11L4 11L4 9L5 9L5 8L0 8L0 10L3 10L3 11L1 11L1 12L0 12L0 13L2 13L2 12L3 12L3 13L4 13L4 14L5 14L5 15L4 15L4 16L3 16L3 15L2 15L2 14L1 14L1 15L0 15L0 19L1 19L1 20L2 20L2 19L4 19L4 20L3 20L3 22L2 22L2 21L1 21L1 22L0 22L0 26L1 26L1 29L0 29L0 30L1 30L1 29L3 29L3 28L2 28L2 27L3 27L3 26L4 26L4 30L3 30L3 31L5 31L5 33L4 33L4 32L1 32L1 36L0 36L0 39L2 39L2 38L1 38L1 37L2 37L2 35L3 35L3 34L5 34L5 35L4 35L4 36L3 36L3 39L7 39L7 40L6 40L6 41L5 41L5 40L0 40L0 42L1 42L1 43L0 43L0 48L5 48L5 47L7 47L7 48L6 48L6 49L8 49L8 51L9 51L9 52L8 52L8 57L12 57L12 55L14 55L14 56L13 56L13 57L14 57L14 56L15 56L15 57L16 57L16 56L17 56L17 57L19 57L19 56L17 56L17 54L18 54L18 55L20 55L20 54L19 54L19 53L20 53L20 52L21 52L21 51L23 51L23 50L25 50L25 49L24 49L24 48L26 48L26 52L24 52L24 53L23 53L23 54L21 54L21 56L24 56L24 57L26 57L26 56L24 56L24 55L23 55L23 54L24 54L24 53L25 53L25 55L26 55L26 54L30 54L30 53L31 53L31 50L32 50L32 52L33 52L33 53L32 53L32 54L31 54L31 56L30 56L30 55L29 55L29 56L27 56L27 57L29 57L29 56L30 56L30 57L31 57L31 56L35 56L35 57L40 57L40 56L41 56L41 57L44 57L44 54L45 54L45 57L48 57L48 56L50 56L50 57L52 57L52 55L51 55L51 53L52 53L52 54L53 54L53 57L54 57L54 56L55 56L55 57L56 57L56 56L55 56L55 54L53 54L53 52L54 52L54 53L56 53L56 52L55 52L55 51L54 51L54 50L57 50L57 48L56 48L56 46L57 46L57 43L56 43L56 42L57 42L57 41L56 41L56 42L55 42L55 39L57 39L57 37L55 37L55 35L53 35L53 34L52 34L52 33L54 33L54 34L57 34L57 32L56 32L56 30L57 30L57 29L56 29L56 28L55 28L55 27L56 27L56 26L57 26L57 25L56 25L56 22L57 22L57 21L56 21L56 18L57 18L57 17L56 17L56 16L57 16L57 15L56 15L56 14L57 14L57 11L56 11L56 8L55 8L55 10L54 10L54 11L51 11L51 10L50 10L50 8L49 8L49 6L48 6L48 7L47 7L47 5L48 5L48 0L45 0L45 2L44 2L44 3L41 3L41 2L43 2L43 0L41 0L41 1L40 1L40 0L39 0L39 1L38 1L38 0L37 0L37 1L38 1L38 3L36 3L36 0L35 0L35 1L33 1L33 2L32 2L32 0L29 0L29 2L28 2L28 3L29 3L29 4L26 4L26 3L23 3L23 4L24 4L24 5L23 5L23 6L22 6L22 8L23 8L23 10L22 10L22 11L21 11L21 10L20 10L20 8L21 8L21 5L22 5L22 4L19 4L19 3L20 3L20 2L19 2L19 1L20 1L20 0L18 0L18 2L16 2L16 1L14 1L14 0ZM21 0L21 1L22 1L22 0ZM23 0L23 2L27 2L27 1L25 1L25 0ZM30 1L30 2L31 2L31 3L30 3L30 4L31 4L31 8L32 8L32 10L31 10L31 11L30 11L30 10L29 10L29 9L27 9L27 11L26 11L26 12L25 12L25 10L23 10L23 13L22 13L22 12L21 12L21 11L20 11L20 12L19 12L19 13L20 13L20 14L19 14L19 15L17 15L17 13L18 13L18 12L17 12L17 11L18 11L18 10L19 10L19 9L16 9L16 8L17 8L17 7L16 7L16 8L15 8L15 7L14 7L14 9L13 9L13 8L12 8L12 9L9 9L9 10L10 10L10 11L11 11L11 12L10 12L10 13L9 13L9 12L7 12L7 11L6 11L6 12L5 12L5 13L6 13L6 14L7 14L7 15L6 15L6 16L4 16L4 17L3 17L3 16L1 16L1 17L2 17L2 18L1 18L1 19L2 19L2 18L4 18L4 19L5 19L5 20L4 20L4 23L5 23L5 24L2 24L2 26L3 26L3 25L6 25L6 26L8 26L8 24L7 24L7 23L5 23L5 21L6 21L6 22L8 22L8 23L9 23L9 24L11 24L11 22L13 22L13 21L14 21L14 23L12 23L12 25L11 25L11 26L9 26L9 28L10 28L10 27L11 27L11 29L9 29L9 30L10 30L10 31L6 31L6 32L8 32L8 33L5 33L5 34L8 34L8 33L10 33L10 34L9 34L9 35L8 35L8 37L6 37L6 36L7 36L7 35L6 35L6 36L5 36L5 38L7 38L7 39L8 39L8 40L7 40L7 41L6 41L6 42L7 42L7 41L8 41L8 44L9 44L9 42L10 42L10 43L11 43L11 41L12 41L12 43L13 43L13 44L10 44L10 45L8 45L8 46L9 46L9 47L13 47L13 49L16 49L16 50L15 50L15 51L16 51L16 53L14 53L14 52L12 52L12 51L14 51L14 50L12 50L12 49L10 49L10 50L9 50L9 51L10 51L10 52L12 52L12 53L14 53L14 54L16 54L16 53L17 53L17 49L16 49L16 48L18 48L18 47L17 47L17 45L18 45L18 44L16 44L16 43L18 43L18 42L19 42L19 43L20 43L20 44L21 44L21 45L20 45L20 46L21 46L21 45L22 45L22 46L23 46L23 47L19 47L19 49L20 49L20 50L19 50L19 51L18 51L18 52L20 52L20 50L21 50L21 49L23 49L23 48L24 48L24 46L23 46L23 45L22 45L22 44L21 44L21 43L22 43L22 42L24 42L24 41L25 41L25 43L23 43L23 44L25 44L25 47L26 47L26 48L27 48L27 47L29 47L29 45L30 45L30 44L29 44L29 45L27 45L27 44L25 44L25 43L27 43L27 42L29 42L29 41L30 41L30 42L32 42L32 43L33 43L33 44L31 44L31 45L32 45L32 46L31 46L31 47L33 47L33 48L31 48L31 49L32 49L32 50L33 50L33 52L34 52L34 53L33 53L33 54L34 54L34 55L35 55L35 56L36 56L36 54L35 54L35 50L36 50L36 52L37 52L37 53L38 53L38 54L37 54L37 56L40 56L40 55L38 55L38 54L40 54L40 53L42 53L42 52L43 52L43 51L46 51L46 50L47 50L47 53L45 53L45 52L44 52L44 53L43 53L43 54L44 54L44 53L45 53L45 54L46 54L46 55L47 55L47 53L48 53L48 50L47 50L47 49L48 49L48 48L49 48L49 47L51 47L51 48L53 48L53 49L56 49L56 48L53 48L53 47L54 47L54 45L55 45L55 46L56 46L56 43L55 43L55 44L54 44L54 45L53 45L53 43L54 43L54 42L53 42L53 41L51 41L51 42L50 42L50 43L48 43L48 44L47 44L47 45L45 45L45 44L46 44L46 42L48 42L48 41L49 41L49 40L50 40L50 39L51 39L51 40L53 40L53 39L55 39L55 37L53 37L53 35L52 35L52 34L50 34L50 32L51 32L51 33L52 33L52 31L50 31L50 32L49 32L49 31L48 31L48 28L47 28L47 29L46 29L46 30L47 30L47 31L46 31L46 32L43 32L43 30L41 30L41 29L43 29L43 27L44 27L44 26L39 26L39 25L43 25L43 24L44 24L44 25L45 25L45 26L46 26L46 27L45 27L45 28L44 28L44 29L45 29L45 28L46 28L46 27L47 27L47 26L48 26L48 25L50 25L50 26L52 26L52 25L55 25L55 26L56 26L56 25L55 25L55 24L51 24L51 25L50 25L50 24L49 24L49 23L50 23L50 22L51 22L51 21L53 21L53 22L56 22L56 21L55 21L55 20L53 20L53 19L52 19L52 18L55 18L55 17L53 17L53 15L52 15L52 16L51 16L51 15L50 15L50 14L51 14L51 12L50 12L50 10L49 10L49 12L48 12L48 10L47 10L47 9L49 9L49 8L47 8L47 7L46 7L46 6L45 6L45 4L46 4L46 5L47 5L47 3L44 3L44 6L43 6L43 7L44 7L44 9L43 9L43 8L42 8L42 9L43 9L43 10L44 10L44 9L46 9L46 10L45 10L45 11L44 11L44 13L45 13L45 14L44 14L44 18L43 18L43 20L44 20L44 23L42 23L42 22L41 22L41 24L38 24L38 23L37 23L37 24L38 24L38 26L37 26L37 25L33 25L33 24L32 24L32 23L33 23L33 22L34 22L34 23L35 23L35 21L34 21L34 20L35 20L35 19L36 19L36 20L37 20L37 19L39 19L39 17L41 17L41 16L42 16L42 17L43 17L43 16L42 16L42 15L43 15L43 14L41 14L41 16L39 16L39 15L38 15L38 14L39 14L39 13L43 13L43 11L42 11L42 10L41 10L41 7L42 7L42 6L41 6L41 5L40 5L40 4L41 4L41 3L39 3L39 4L38 4L38 5L37 5L37 4L36 4L36 5L35 5L35 2L33 2L33 3L32 3L32 2L31 2L31 1ZM46 1L46 2L47 2L47 1ZM18 2L18 3L19 3L19 2ZM21 2L21 3L22 3L22 2ZM31 3L31 4L32 4L32 5L33 5L33 4L32 4L32 3ZM25 4L25 8L26 8L26 4ZM27 5L27 8L30 8L30 5ZM34 5L34 7L33 7L33 6L32 6L32 7L33 7L33 9L34 9L34 8L35 8L35 9L37 9L37 10L36 10L36 12L35 12L35 14L32 14L32 11L33 11L33 10L32 10L32 11L31 11L31 13L30 13L30 14L29 14L29 13L28 13L28 12L29 12L29 11L27 11L27 12L26 12L26 13L28 13L28 14L29 14L29 16L28 16L28 15L27 15L27 14L26 14L26 15L25 15L25 12L24 12L24 13L23 13L23 14L22 14L22 13L21 13L21 12L20 12L20 13L21 13L21 15L19 15L19 16L17 16L17 17L19 17L19 18L15 18L15 17L14 17L14 16L16 16L16 13L17 13L17 12L16 12L16 13L15 13L15 10L13 10L13 11L14 11L14 12L12 12L12 13L10 13L10 14L12 14L12 13L15 13L15 14L13 14L13 15L14 15L14 16L13 16L13 17L12 17L12 18L15 18L15 19L17 19L17 21L16 21L16 20L15 20L15 21L16 21L16 22L15 22L15 23L16 23L16 24L15 24L15 25L16 25L16 24L17 24L17 25L18 25L18 26L16 26L16 27L18 27L18 26L19 26L19 27L22 27L22 26L24 26L24 28L26 28L26 29L23 29L23 30L25 30L25 32L26 32L26 35L25 35L25 33L23 33L23 34L24 34L24 36L23 36L23 37L24 37L24 38L21 38L21 37L19 37L19 35L18 35L18 33L19 33L19 34L20 34L20 35L21 35L21 36L22 36L22 35L21 35L21 34L22 34L22 33L21 33L21 32L23 32L23 31L21 31L21 32L20 32L20 31L19 31L19 32L18 32L18 31L17 31L17 32L18 32L18 33L17 33L17 34L15 34L15 33L16 33L16 32L15 32L15 31L16 31L16 29L18 29L18 30L20 30L20 29L18 29L18 28L16 28L16 29L15 29L15 28L14 28L14 27L15 27L15 26L14 26L14 27L13 27L13 26L11 26L11 27L13 27L13 30L11 30L11 31L10 31L10 33L11 33L11 32L12 32L12 31L14 31L14 32L15 32L15 33L14 33L14 34L13 34L13 35L14 35L14 36L16 36L16 35L17 35L17 40L18 40L18 41L17 41L17 42L18 42L18 41L19 41L19 42L20 42L20 41L21 41L21 40L23 40L23 41L24 41L24 40L25 40L25 36L26 36L26 40L27 40L27 41L26 41L26 42L27 42L27 41L28 41L28 39L27 39L27 38L28 38L28 37L27 37L27 31L28 31L28 33L29 33L29 34L30 34L30 36L29 36L29 37L31 37L31 38L29 38L29 39L33 39L33 40L35 40L35 42L37 42L37 43L34 43L34 42L33 42L33 41L32 41L32 40L31 40L31 41L32 41L32 42L33 42L33 43L34 43L34 45L37 45L37 47L36 47L36 48L35 48L35 46L33 46L33 47L34 47L34 48L33 48L33 49L36 49L36 50L38 50L38 51L40 51L40 52L42 52L42 51L43 51L43 50L44 50L44 48L43 48L43 47L44 47L44 46L43 46L43 45L44 45L44 44L45 44L45 41L44 41L44 40L45 40L45 39L44 39L44 40L41 40L41 41L39 41L39 42L38 42L38 40L40 40L40 39L38 39L38 37L40 37L40 38L43 38L43 37L44 37L44 38L45 38L45 37L44 37L44 36L46 36L46 37L47 37L47 36L48 36L48 35L47 35L47 34L45 34L45 35L44 35L44 33L43 33L43 32L41 32L41 33L39 33L39 34L40 34L40 35L39 35L39 36L38 36L38 37L37 37L37 36L35 36L35 34L37 34L37 35L38 35L38 33L37 33L37 32L35 32L35 34L33 34L33 33L34 33L34 32L33 32L33 33L32 33L32 31L31 31L31 30L32 30L32 27L33 27L33 28L35 28L35 30L33 30L33 31L35 31L35 30L37 30L37 29L38 29L38 28L39 28L39 27L36 27L36 26L34 26L34 27L33 27L33 26L32 26L32 24L31 24L31 23L29 23L29 25L27 25L27 26L26 26L26 25L25 25L25 24L28 24L28 23L27 23L27 21L25 21L25 20L26 20L26 19L27 19L27 18L28 18L28 19L30 19L30 18L33 18L33 17L32 17L32 15L33 15L33 16L35 16L35 17L37 17L37 18L38 18L38 17L39 17L39 16L38 16L38 17L37 17L37 16L35 16L35 15L37 15L37 14L38 14L38 13L39 13L39 12L41 12L41 10L40 10L40 11L39 11L39 10L38 10L38 8L40 8L40 7L41 7L41 6L40 6L40 5L39 5L39 6L38 6L38 7L37 7L37 5L36 5L36 7L37 7L37 8L35 8L35 5ZM23 6L23 8L24 8L24 6ZM28 6L28 7L29 7L29 6ZM39 6L39 7L40 7L40 6ZM44 6L44 7L45 7L45 8L46 8L46 7L45 7L45 6ZM51 8L51 9L52 9L52 8ZM53 8L53 9L54 9L54 8ZM37 10L37 11L38 11L38 10ZM46 10L46 11L45 11L45 12L47 12L47 10ZM3 11L3 12L4 12L4 11ZM6 12L6 13L7 13L7 12ZM33 12L33 13L34 13L34 12ZM49 12L49 13L47 13L47 14L45 14L45 17L46 17L46 16L48 16L48 17L47 17L47 18L50 18L50 19L49 19L49 20L48 20L48 21L47 21L47 20L45 20L45 18L44 18L44 20L45 20L45 21L47 21L47 22L45 22L45 24L46 24L46 25L48 25L48 23L49 23L49 21L51 21L51 20L52 20L52 19L51 19L51 18L50 18L50 17L49 17L49 16L50 16L50 15L49 15L49 14L50 14L50 12ZM52 12L52 13L53 13L53 12ZM54 12L54 13L55 13L55 14L54 14L54 15L55 15L55 14L56 14L56 12ZM36 13L36 14L37 14L37 13ZM30 14L30 15L32 15L32 14ZM10 15L10 16L8 16L8 19L7 19L7 18L5 18L5 19L7 19L7 20L6 20L6 21L7 21L7 20L8 20L8 22L11 22L11 21L12 21L12 19L11 19L11 18L10 18L10 19L11 19L11 21L10 21L10 20L9 20L9 17L10 17L10 16L12 16L12 15ZM21 15L21 16L22 16L22 17L20 17L20 16L19 16L19 17L20 17L20 18L19 18L19 20L20 20L20 21L19 21L19 22L18 22L18 21L17 21L17 24L21 24L21 25L20 25L20 26L21 26L21 25L23 25L23 24L21 24L21 22L23 22L23 23L24 23L24 24L25 24L25 23L26 23L26 22L25 22L25 21L24 21L24 20L20 20L20 19L21 19L21 18L22 18L22 17L25 17L25 18L27 18L27 17L28 17L28 16L27 16L27 15L26 15L26 16L24 16L24 15ZM48 15L48 16L49 16L49 15ZM6 16L6 17L7 17L7 16ZM23 18L23 19L24 19L24 18ZM41 18L41 19L42 19L42 18ZM13 19L13 20L14 20L14 19ZM31 19L31 20L30 20L30 21L28 21L28 22L31 22L31 21L32 21L32 20L33 20L33 19ZM38 20L38 21L37 21L37 22L39 22L39 23L40 23L40 22L39 22L39 21L42 21L42 20ZM23 21L23 22L24 22L24 21ZM19 22L19 23L20 23L20 22ZM46 23L46 24L47 24L47 23ZM6 24L6 25L7 25L7 24ZM29 25L29 26L30 26L30 25ZM25 26L25 27L26 27L26 26ZM31 26L31 27L32 27L32 26ZM53 26L53 27L54 27L54 26ZM5 27L5 30L8 30L8 27ZM27 27L27 30L30 30L30 27ZM41 27L41 28L42 28L42 27ZM49 27L49 30L52 30L52 27ZM6 28L6 29L7 29L7 28ZM21 28L21 29L22 29L22 28ZM28 28L28 29L29 29L29 28ZM50 28L50 29L51 29L51 28ZM54 28L54 29L55 29L55 28ZM39 29L39 30L38 30L38 32L39 32L39 30L40 30L40 29ZM14 30L14 31L15 31L15 30ZM44 30L44 31L45 31L45 30ZM53 30L53 32L54 32L54 33L56 33L56 32L54 32L54 30ZM30 31L30 32L29 32L29 33L31 33L31 35L33 35L33 36L32 36L32 37L33 37L33 38L34 38L34 39L35 39L35 40L38 40L38 39L35 39L35 36L34 36L34 35L33 35L33 34L32 34L32 33L31 33L31 31ZM47 31L47 32L46 32L46 33L47 33L47 32L48 32L48 33L49 33L49 32L48 32L48 31ZM19 32L19 33L20 33L20 34L21 34L21 33L20 33L20 32ZM42 34L42 36L40 36L40 37L43 37L43 36L44 36L44 35L43 35L43 34ZM49 34L49 35L50 35L50 37L52 37L52 35L50 35L50 34ZM10 35L10 36L9 36L9 37L10 37L10 38L9 38L9 41L10 41L10 38L11 38L11 40L12 40L12 41L13 41L13 43L15 43L15 41L16 41L16 39L15 39L15 38L16 38L16 37L14 37L14 38L13 38L13 37L12 37L12 38L11 38L11 35ZM56 35L56 36L57 36L57 35ZM18 37L18 39L20 39L20 38L19 38L19 37ZM48 37L48 38L47 38L47 39L46 39L46 40L47 40L47 39L50 39L50 38L49 38L49 37ZM52 38L52 39L53 39L53 38ZM12 39L12 40L13 40L13 39ZM23 39L23 40L24 40L24 39ZM14 40L14 41L15 41L15 40ZM19 40L19 41L20 41L20 40ZM1 41L1 42L2 42L2 44L1 44L1 45L2 45L2 46L1 46L1 47L2 47L2 46L3 46L3 47L5 47L5 46L7 46L7 45L6 45L6 44L7 44L7 43L6 43L6 44L4 44L4 45L2 45L2 44L3 44L3 43L4 43L4 42L5 42L5 41ZM43 41L43 44L44 44L44 41ZM40 42L40 44L39 44L39 45L38 45L38 46L39 46L39 47L38 47L38 48L37 48L37 49L38 49L38 50L41 50L41 51L42 51L42 50L41 50L41 48L42 48L42 49L43 49L43 48L42 48L42 47L43 47L43 46L41 46L41 44L42 44L42 43L41 43L41 42ZM51 42L51 43L50 43L50 45L49 45L49 46L48 46L48 47L47 47L47 46L45 46L45 50L46 50L46 49L47 49L47 48L48 48L48 47L49 47L49 46L50 46L50 45L52 45L52 44L51 44L51 43L53 43L53 42ZM13 44L13 45L12 45L12 46L14 46L14 48L16 48L16 47L15 47L15 44ZM4 45L4 46L5 46L5 45ZM10 45L10 46L11 46L11 45ZM26 45L26 47L27 47L27 45ZM40 46L40 47L39 47L39 48L38 48L38 49L39 49L39 48L41 48L41 46ZM51 46L51 47L52 47L52 46ZM46 47L46 48L47 48L47 47ZM8 48L8 49L9 49L9 48ZM27 49L27 52L30 52L30 49ZM49 49L49 52L52 52L52 49ZM10 50L10 51L11 51L11 50ZM28 50L28 51L29 51L29 50ZM50 50L50 51L51 51L51 50ZM38 52L38 53L39 53L39 52ZM10 53L10 56L11 56L11 53ZM41 54L41 56L43 56L43 55L42 55L42 54ZM15 55L15 56L16 56L16 55ZM50 55L50 56L51 56L51 55ZM0 0L0 7L7 7L7 0ZM1 1L1 6L6 6L6 1ZM2 2L2 5L5 5L5 2ZM50 0L50 7L57 7L57 0ZM51 1L51 6L56 6L56 1ZM52 2L52 5L55 5L55 2ZM0 50L0 57L7 57L7 50ZM1 51L1 56L6 56L6 51ZM2 52L2 55L5 55L5 52Z" fill="#000000"/></g></g></svg>
