<?xml version="1.0" encoding="UTF-8"?>
<svg xmlns="http://www.w3.org/2000/svg" version="1.1" width="300" height="300" viewBox="0 0 300 300"><rect x="0" y="0" width="300" height="300" fill="#fefefe"/><g transform="scale(4.615)"><g transform="translate(4,4)"><path fill-rule="evenodd" d="M8 0L8 2L9 2L9 4L8 4L8 9L7 9L7 8L5 8L5 9L4 9L4 11L7 11L7 12L5 12L5 13L4 13L4 12L2 12L2 13L3 13L3 17L4 17L4 16L5 16L5 15L4 15L4 14L5 14L5 13L7 13L7 12L8 12L8 11L10 11L10 10L11 10L11 12L12 12L12 14L13 14L13 8L14 8L14 9L15 9L15 10L16 10L16 11L14 11L14 12L16 12L16 11L17 11L17 14L15 14L15 15L18 15L18 13L19 13L19 14L20 14L20 15L19 15L19 16L18 16L18 19L17 19L17 18L16 18L16 17L17 17L17 16L16 16L16 17L15 17L15 16L14 16L14 15L13 15L13 16L14 16L14 18L13 18L13 21L12 21L12 22L10 22L10 21L8 21L8 20L6 20L6 19L9 19L9 20L10 20L10 19L11 19L11 20L12 20L12 18L11 18L11 17L12 17L12 15L11 15L11 13L9 13L9 15L11 15L11 16L6 16L6 17L5 17L5 18L6 18L6 19L5 19L5 21L3 21L3 19L2 19L2 14L0 14L0 15L1 15L1 16L0 16L0 17L1 17L1 18L0 18L0 20L1 20L1 21L0 21L0 23L1 23L1 24L2 24L2 23L3 23L3 27L4 27L4 29L2 29L2 30L1 30L1 29L0 29L0 30L1 30L1 31L0 31L0 32L1 32L1 31L2 31L2 33L1 33L1 35L2 35L2 33L3 33L3 36L2 36L2 37L4 37L4 35L5 35L5 31L8 31L8 36L6 36L6 37L5 37L5 38L3 38L3 39L4 39L4 40L1 40L1 39L0 39L0 40L1 40L1 41L2 41L2 42L1 42L1 45L0 45L0 48L5 48L5 47L7 47L7 48L6 48L6 49L7 49L7 48L8 48L8 47L7 47L7 46L11 46L11 45L10 45L10 42L9 42L9 45L7 45L7 44L8 44L8 41L7 41L7 40L6 40L6 39L7 39L7 38L8 38L8 40L9 40L9 41L12 41L12 42L11 42L11 44L16 44L16 45L14 45L14 46L13 46L13 45L12 45L12 46L13 46L13 47L14 47L14 50L11 50L11 49L13 49L13 48L10 48L10 47L9 47L9 48L10 48L10 50L11 50L11 51L15 51L15 52L13 52L13 54L12 54L12 55L10 55L10 54L11 54L11 53L12 53L12 52L11 52L11 53L10 53L10 52L9 52L9 51L8 51L8 52L9 52L9 53L10 53L10 54L8 54L8 57L9 57L9 56L13 56L13 57L14 57L14 56L15 56L15 57L17 57L17 56L18 56L18 57L19 57L19 56L18 56L18 53L19 53L19 52L20 52L20 53L21 53L21 52L22 52L22 54L20 54L20 55L21 55L21 57L23 57L23 56L24 56L24 57L25 57L25 55L26 55L26 57L28 57L28 55L29 55L29 57L33 57L33 55L34 55L34 57L35 57L35 55L37 55L37 54L38 54L38 53L39 53L39 55L40 55L40 54L41 54L41 56L40 56L40 57L41 57L41 56L42 56L42 57L43 57L43 56L44 56L44 57L46 57L46 56L47 56L47 57L48 57L48 56L49 56L49 57L50 57L50 55L49 55L49 54L52 54L52 55L53 55L53 56L51 56L51 57L54 57L54 53L57 53L57 49L56 49L56 47L57 47L57 45L56 45L56 44L57 44L57 42L56 42L56 44L55 44L55 45L56 45L56 47L55 47L55 49L56 49L56 51L55 51L55 52L54 52L54 51L53 51L53 50L54 50L54 49L53 49L53 48L54 48L54 45L53 45L53 44L54 44L54 43L55 43L55 42L54 42L54 41L57 41L57 40L54 40L54 39L55 39L55 38L57 38L57 37L55 37L55 36L54 36L54 34L53 34L53 36L52 36L52 37L51 37L51 33L50 33L50 32L51 32L51 31L53 31L53 32L54 32L54 33L56 33L56 35L57 35L57 33L56 33L56 31L57 31L57 29L55 29L55 30L54 30L54 29L53 29L53 28L54 28L54 27L55 27L55 28L56 28L56 27L57 27L57 24L56 24L56 23L57 23L57 21L56 21L56 23L55 23L55 21L54 21L54 19L55 19L55 18L56 18L56 19L57 19L57 18L56 18L56 17L57 17L57 12L55 12L55 13L56 13L56 15L55 15L55 16L54 16L54 14L53 14L53 12L54 12L54 11L55 11L55 9L57 9L57 8L55 8L55 9L54 9L54 10L52 10L52 12L51 12L51 10L50 10L50 9L53 9L53 8L48 8L48 7L49 7L49 6L48 6L48 7L47 7L47 5L48 5L48 0L46 0L46 1L45 1L45 0L42 0L42 1L41 1L41 0L38 0L38 2L37 2L37 1L35 1L35 0L34 0L34 3L33 3L33 4L34 4L34 5L33 5L33 6L32 6L32 7L33 7L33 6L34 6L34 8L32 8L32 9L31 9L31 5L32 5L32 1L33 1L33 0L32 0L32 1L31 1L31 0L30 0L30 1L31 1L31 2L30 2L30 3L31 3L31 4L28 4L28 3L27 3L27 0L24 0L24 1L23 1L23 0L20 0L20 1L19 1L19 0L18 0L18 2L17 2L17 4L16 4L16 2L15 2L15 1L14 1L14 0L13 0L13 1L12 1L12 0L11 0L11 1L10 1L10 2L9 2L9 0ZM16 0L16 1L17 1L17 0ZM28 0L28 2L29 2L29 0ZM11 1L11 3L12 3L12 5L11 5L11 10L12 10L12 8L13 8L13 7L14 7L14 6L15 6L15 9L16 9L16 10L17 10L17 9L18 9L18 10L19 10L19 11L18 11L18 12L19 12L19 13L20 13L20 14L22 14L22 16L23 16L23 12L22 12L22 11L24 11L24 10L25 10L25 11L26 11L26 16L27 16L27 17L25 17L25 12L24 12L24 18L27 18L27 19L26 19L26 20L25 20L25 19L24 19L24 20L25 20L25 21L26 21L26 20L27 20L27 22L26 22L26 23L27 23L27 22L28 22L28 24L27 24L27 25L26 25L26 26L27 26L27 25L28 25L28 24L30 24L30 26L31 26L31 25L32 25L32 27L31 27L31 29L32 29L32 32L30 32L30 31L28 31L28 32L26 32L26 33L25 33L25 31L26 31L26 30L25 30L25 29L24 29L24 27L25 27L25 25L24 25L24 27L22 27L22 28L23 28L23 29L22 29L22 30L21 30L21 29L20 29L20 26L22 26L22 23L23 23L23 21L22 21L22 19L23 19L23 18L22 18L22 19L21 19L21 17L20 17L20 16L21 16L21 15L20 15L20 16L19 16L19 17L20 17L20 18L19 18L19 23L18 23L18 22L16 22L16 23L17 23L17 25L16 25L16 24L15 24L15 25L14 25L14 26L13 26L13 27L11 27L11 25L10 25L10 24L12 24L12 25L13 25L13 24L14 24L14 23L15 23L15 21L14 21L14 23L13 23L13 22L12 22L12 23L10 23L10 22L9 22L9 24L8 24L8 23L5 23L5 24L8 24L8 25L4 25L4 26L9 26L9 25L10 25L10 27L11 27L11 29L10 29L10 28L9 28L9 29L10 29L10 30L9 30L9 34L10 34L10 32L11 32L11 36L10 36L10 38L9 38L9 39L11 39L11 40L12 40L12 39L14 39L14 41L13 41L13 42L12 42L12 43L13 43L13 42L14 42L14 43L17 43L17 41L18 41L18 40L19 40L19 41L20 41L20 43L18 43L18 44L20 44L20 47L21 47L21 46L22 46L22 48L19 48L19 45L18 45L18 48L17 48L17 47L16 47L16 46L17 46L17 45L16 45L16 46L14 46L14 47L16 47L16 48L17 48L17 49L16 49L16 50L15 50L15 51L16 51L16 52L17 52L17 53L18 53L18 52L19 52L19 51L20 51L20 50L22 50L22 48L23 48L23 49L24 49L24 51L23 51L23 52L24 52L24 51L25 51L25 54L24 54L24 55L25 55L25 54L26 54L26 50L25 50L25 48L23 48L23 45L24 45L24 46L26 46L26 48L27 48L27 46L26 46L26 45L24 45L24 42L26 42L26 41L25 41L25 40L26 40L26 37L24 37L24 36L25 36L25 35L26 35L26 36L27 36L27 41L28 41L28 43L30 43L30 44L29 44L29 45L28 45L28 46L29 46L29 47L28 47L28 48L31 48L31 52L32 52L32 48L31 48L31 47L33 47L33 45L34 45L34 47L35 47L35 49L34 49L34 48L33 48L33 49L34 49L34 50L33 50L33 51L34 51L34 52L33 52L33 53L34 53L34 54L35 54L35 53L36 53L36 54L37 54L37 53L38 53L38 52L39 52L39 53L40 53L40 52L39 52L39 49L40 49L40 51L41 51L41 52L42 52L42 54L43 54L43 55L44 55L44 56L46 56L46 54L47 54L47 56L48 56L48 54L49 54L49 53L48 53L48 54L47 54L47 53L46 53L46 51L47 51L47 52L48 52L48 51L47 51L47 47L48 47L48 46L49 46L49 48L53 48L53 47L50 47L50 46L51 46L51 45L52 45L52 46L53 46L53 45L52 45L52 44L53 44L53 41L54 41L54 40L52 40L52 44L50 44L50 42L49 42L49 41L51 41L51 40L48 40L48 39L50 39L50 38L51 38L51 39L52 39L52 38L53 38L53 37L54 37L54 38L55 38L55 37L54 37L54 36L53 36L53 37L52 37L52 38L51 38L51 37L50 37L50 33L49 33L49 36L48 36L48 37L47 37L47 36L46 36L46 34L48 34L48 33L46 33L46 32L47 32L47 30L48 30L48 29L47 29L47 28L48 28L48 26L49 26L49 25L48 25L48 26L47 26L47 24L48 24L48 23L49 23L49 22L50 22L50 26L51 26L51 25L52 25L52 26L53 26L53 25L52 25L52 23L54 23L54 24L55 24L55 25L54 25L54 26L55 26L55 25L56 25L56 24L55 24L55 23L54 23L54 22L52 22L52 20L53 20L53 19L54 19L54 16L53 16L53 18L52 18L52 15L53 15L53 14L52 14L52 13L50 13L50 11L48 11L48 10L49 10L49 9L48 9L48 10L47 10L47 7L46 7L46 6L45 6L45 5L44 5L44 4L45 4L45 1L42 1L42 4L41 4L41 2L40 2L40 1L39 1L39 2L40 2L40 4L39 4L39 3L37 3L37 2L35 2L35 3L34 3L34 4L35 4L35 9L34 9L34 10L33 10L33 9L32 9L32 11L31 11L31 12L30 12L30 11L29 11L29 12L30 12L30 13L29 13L29 15L28 15L28 14L27 14L27 12L28 12L28 10L29 10L29 9L28 9L28 10L25 10L25 9L26 9L26 5L24 5L24 6L23 6L23 5L22 5L22 4L23 4L23 3L22 3L22 4L21 4L21 1L20 1L20 3L19 3L19 2L18 2L18 4L19 4L19 7L20 7L20 5L21 5L21 9L20 9L20 10L19 10L19 9L18 9L18 8L17 8L17 7L18 7L18 6L17 6L17 5L16 5L16 6L15 6L15 5L14 5L14 6L13 6L13 3L14 3L14 4L15 4L15 3L14 3L14 1L13 1L13 3L12 3L12 1ZM24 1L24 4L25 4L25 1ZM46 1L46 2L47 2L47 1ZM43 2L43 4L42 4L42 7L41 7L41 6L40 6L40 7L41 7L41 8L40 8L40 9L41 9L41 11L39 11L39 10L38 10L38 9L39 9L39 6L38 6L38 7L37 7L37 6L36 6L36 10L34 10L34 11L33 11L33 12L32 12L32 13L31 13L31 14L33 14L33 15L34 15L34 17L33 17L33 16L32 16L32 18L31 18L31 19L30 19L30 20L28 20L28 19L27 19L27 20L28 20L28 22L29 22L29 23L30 23L30 20L32 20L32 21L33 21L33 22L31 22L31 23L32 23L32 25L33 25L33 26L34 26L34 24L36 24L36 26L37 26L37 28L36 28L36 27L34 27L34 29L33 29L33 28L32 28L32 29L33 29L33 31L34 31L34 29L35 29L35 30L36 30L36 29L37 29L37 28L38 28L38 29L39 29L39 30L40 30L40 31L38 31L38 30L37 30L37 31L36 31L36 33L35 33L35 32L34 32L34 33L33 33L33 32L32 32L32 33L31 33L31 34L30 34L30 32L29 32L29 34L28 34L28 33L26 33L26 34L28 34L28 35L27 35L27 36L28 36L28 37L29 37L29 36L28 36L28 35L31 35L31 36L30 36L30 40L29 40L29 42L30 42L30 43L31 43L31 44L32 44L32 45L31 45L31 46L30 46L30 47L31 47L31 46L32 46L32 45L33 45L33 44L35 44L35 43L36 43L36 41L37 41L37 42L38 42L38 41L39 41L39 40L40 40L40 41L41 41L41 42L40 42L40 43L37 43L37 44L36 44L36 46L35 46L35 47L36 47L36 46L38 46L38 45L37 45L37 44L40 44L40 46L41 46L41 47L40 47L40 49L41 49L41 51L42 51L42 52L44 52L44 55L45 55L45 54L46 54L46 53L45 53L45 51L46 51L46 48L44 48L44 49L45 49L45 51L43 51L43 50L42 50L42 49L41 49L41 47L42 47L42 45L43 45L43 46L44 46L44 47L46 47L46 44L47 44L47 45L48 45L48 44L49 44L49 45L50 45L50 44L49 44L49 42L48 42L48 43L45 43L45 42L46 42L46 41L48 41L48 40L47 40L47 38L46 38L46 37L45 37L45 34L46 34L46 33L45 33L45 31L46 31L46 30L44 30L44 29L46 29L46 28L47 28L47 26L46 26L46 24L47 24L47 23L48 23L48 21L49 21L49 20L51 20L51 19L52 19L52 18L50 18L50 16L51 16L51 15L52 15L52 14L51 14L51 15L50 15L50 13L49 13L49 14L48 14L48 11L46 11L46 8L44 8L44 7L45 7L45 6L44 6L44 5L43 5L43 4L44 4L44 2ZM26 3L26 4L27 4L27 3ZM35 3L35 4L36 4L36 3ZM46 3L46 5L47 5L47 3ZM38 4L38 5L39 5L39 4ZM27 5L27 8L30 8L30 5ZM9 6L9 7L10 7L10 6ZM12 6L12 7L13 7L13 6ZM16 6L16 7L17 7L17 6ZM22 6L22 9L21 9L21 10L22 10L22 9L23 9L23 6ZM24 6L24 7L25 7L25 6ZM28 6L28 7L29 7L29 6ZM43 6L43 7L42 7L42 8L41 8L41 9L42 9L42 10L43 10L43 9L44 9L44 12L42 12L42 11L41 11L41 12L42 12L42 15L41 15L41 17L42 17L42 18L43 18L43 17L44 17L44 19L43 19L43 21L42 21L42 20L41 20L41 21L42 21L42 22L40 22L40 19L41 19L41 18L40 18L40 14L41 14L41 13L40 13L40 14L39 14L39 12L37 12L37 11L38 11L38 10L37 10L37 11L34 11L34 12L35 12L35 13L34 13L34 15L35 15L35 17L34 17L34 19L33 19L33 18L32 18L32 19L33 19L33 21L34 21L34 22L35 22L35 23L36 23L36 24L37 24L37 25L38 25L38 26L40 26L40 27L39 27L39 29L40 29L40 28L41 28L41 27L44 27L44 26L45 26L45 27L46 27L46 26L45 26L45 25L44 25L44 24L46 24L46 23L47 23L47 20L48 20L48 19L49 19L49 17L48 17L48 16L46 16L46 15L48 15L48 14L47 14L47 13L46 13L46 11L45 11L45 9L44 9L44 8L43 8L43 7L44 7L44 6ZM0 8L0 9L2 9L2 11L3 11L3 8ZM37 8L37 9L38 9L38 8ZM5 9L5 10L7 10L7 11L8 11L8 10L10 10L10 9L8 9L8 10L7 10L7 9ZM30 9L30 10L31 10L31 9ZM0 10L0 12L1 12L1 10ZM56 10L56 11L57 11L57 10ZM19 11L19 12L20 12L20 13L21 13L21 12L20 12L20 11ZM36 12L36 13L37 13L37 14L36 14L36 18L35 18L35 19L34 19L34 21L35 21L35 22L36 22L36 23L37 23L37 22L38 22L38 23L39 23L39 22L38 22L38 21L39 21L39 19L40 19L40 18L38 18L38 16L37 16L37 15L38 15L38 13L37 13L37 12ZM44 12L44 13L43 13L43 14L44 14L44 15L43 15L43 16L44 16L44 17L45 17L45 18L46 18L46 20L45 20L45 19L44 19L44 21L43 21L43 22L42 22L42 23L40 23L40 26L42 26L42 25L43 25L43 24L44 24L44 23L46 23L46 20L47 20L47 19L48 19L48 17L47 17L47 18L46 18L46 16L44 16L44 15L46 15L46 13L45 13L45 12ZM6 14L6 15L7 15L7 14ZM29 15L29 16L30 16L30 17L28 17L28 18L30 18L30 17L31 17L31 16L30 16L30 15ZM49 15L49 16L50 16L50 15ZM55 16L55 17L56 17L56 16ZM6 17L6 18L7 18L7 17ZM9 17L9 18L10 18L10 17ZM36 18L36 19L37 19L37 18ZM1 19L1 20L2 20L2 19ZM14 19L14 20L16 20L16 19ZM20 19L20 21L21 21L21 19ZM17 20L17 21L18 21L18 20ZM35 20L35 21L36 21L36 22L37 22L37 21L38 21L38 20L37 20L37 21L36 21L36 20ZM1 21L1 23L2 23L2 22L3 22L3 21ZM5 21L5 22L8 22L8 21ZM44 21L44 22L43 22L43 23L42 23L42 24L41 24L41 25L42 25L42 24L43 24L43 23L44 23L44 22L45 22L45 21ZM20 22L20 23L22 23L22 22ZM24 22L24 23L25 23L25 22ZM51 22L51 23L52 23L52 22ZM12 23L12 24L13 24L13 23ZM33 23L33 24L34 24L34 23ZM18 24L18 25L17 25L17 26L18 26L18 25L19 25L19 26L20 26L20 25L19 25L19 24ZM1 25L1 26L0 26L0 28L2 28L2 25ZM15 25L15 26L16 26L16 25ZM5 27L5 30L8 30L8 27ZM14 27L14 28L12 28L12 29L11 29L11 30L10 30L10 31L11 31L11 32L13 32L13 30L15 30L15 35L14 35L14 33L12 33L12 34L13 34L13 35L12 35L12 36L11 36L11 38L12 38L12 36L13 36L13 37L14 37L14 36L15 36L15 35L16 35L16 37L17 37L17 38L16 38L16 39L17 39L17 40L15 40L15 42L16 42L16 41L17 41L17 40L18 40L18 38L19 38L19 40L20 40L20 41L21 41L21 42L22 42L22 41L23 41L23 42L24 42L24 41L23 41L23 39L22 39L22 37L23 37L23 35L25 35L25 34L24 34L24 32L23 32L23 30L24 30L24 31L25 31L25 30L24 30L24 29L23 29L23 30L22 30L22 33L23 33L23 35L22 35L22 34L20 34L20 33L21 33L21 30L20 30L20 29L19 29L19 31L18 31L18 30L15 30L15 29L14 29L14 28L16 28L16 27ZM18 27L18 28L19 28L19 27ZM27 27L27 30L30 30L30 27ZM49 27L49 30L52 30L52 27ZM6 28L6 29L7 29L7 28ZM28 28L28 29L29 29L29 28ZM35 28L35 29L36 29L36 28ZM42 28L42 31L40 31L40 32L39 32L39 33L38 33L38 34L37 34L37 33L36 33L36 35L35 35L35 33L34 33L34 35L35 35L35 36L33 36L33 37L34 37L34 38L35 38L35 41L34 41L34 39L33 39L33 38L31 38L31 40L30 40L30 41L31 41L31 43L32 43L32 40L33 40L33 41L34 41L34 42L35 42L35 41L36 41L36 38L37 38L37 41L38 41L38 38L39 38L39 39L40 39L40 40L41 40L41 41L42 41L42 42L43 42L43 41L42 41L42 39L43 39L43 38L44 38L44 34L45 34L45 33L44 33L44 34L43 34L43 33L42 33L42 31L43 31L43 29L44 29L44 28ZM50 28L50 29L51 29L51 28ZM12 29L12 30L11 30L11 31L12 31L12 30L13 30L13 29ZM53 30L53 31L54 31L54 32L55 32L55 31L56 31L56 30L55 30L55 31L54 31L54 30ZM3 31L3 32L4 32L4 31ZM16 31L16 34L17 34L17 37L18 37L18 36L19 36L19 35L20 35L20 36L21 36L21 37L22 37L22 36L21 36L21 35L20 35L20 34L19 34L19 35L18 35L18 34L17 34L17 33L18 33L18 32L17 32L17 31ZM19 31L19 32L20 32L20 31ZM37 31L37 32L38 32L38 31ZM49 31L49 32L50 32L50 31ZM6 32L6 33L7 33L7 32ZM40 32L40 34L42 34L42 33L41 33L41 32ZM32 33L32 34L31 34L31 35L32 35L32 34L33 34L33 33ZM6 34L6 35L7 35L7 34ZM38 34L38 35L36 35L36 37L35 37L35 38L36 38L36 37L37 37L37 38L38 38L38 37L39 37L39 38L40 38L40 39L42 39L42 36L43 36L43 35L42 35L42 36L41 36L41 35L40 35L40 36L38 36L38 35L39 35L39 34ZM13 35L13 36L14 36L14 35ZM0 36L0 38L1 38L1 36ZM31 36L31 37L32 37L32 36ZM6 37L6 38L5 38L5 39L6 39L6 38L7 38L7 37ZM49 37L49 38L50 38L50 37ZM14 38L14 39L15 39L15 38ZM20 38L20 39L21 39L21 38ZM24 38L24 39L25 39L25 38ZM28 38L28 39L29 39L29 38ZM45 38L45 41L44 41L44 42L45 42L45 41L46 41L46 38ZM5 40L5 41L4 41L4 42L3 42L3 43L5 43L5 45L4 45L4 46L3 46L3 47L5 47L5 46L7 46L7 45L6 45L6 44L7 44L7 43L6 43L6 42L7 42L7 41L6 41L6 40ZM21 40L21 41L22 41L22 40ZM5 41L5 42L6 42L6 41ZM22 43L22 44L23 44L23 43ZM40 43L40 44L41 44L41 45L42 45L42 44L43 44L43 45L44 45L44 44L45 44L45 43L44 43L44 44L43 44L43 43ZM1 45L1 47L2 47L2 45ZM37 47L37 48L36 48L36 49L37 49L37 51L35 51L35 50L34 50L34 51L35 51L35 52L36 52L36 53L37 53L37 51L38 51L38 47ZM18 48L18 49L17 49L17 52L18 52L18 49L19 49L19 48ZM8 49L8 50L9 50L9 49ZM27 49L27 52L30 52L30 49ZM49 49L49 52L52 52L52 49ZM28 50L28 51L29 51L29 50ZM50 50L50 51L51 51L51 50ZM14 53L14 54L13 54L13 55L14 55L14 54L15 54L15 53ZM27 53L27 55L28 55L28 53ZM31 53L31 54L30 54L30 55L33 55L33 54L32 54L32 53ZM16 54L16 55L17 55L17 54ZM22 54L22 56L23 56L23 54ZM55 54L55 55L57 55L57 54ZM36 56L36 57L37 57L37 56ZM56 56L56 57L57 57L57 56ZM0 0L0 7L7 7L7 0ZM1 1L1 6L6 6L6 1ZM2 2L2 5L5 5L5 2ZM50 0L50 7L57 7L57 0ZM51 1L51 6L56 6L56 1ZM52 2L52 5L55 5L55 2ZM0 50L0 57L7 57L7 50ZM1 51L1 56L6 56L6 51ZM2 52L2 55L5 55L5 52Z" fill="#000000"/></g></g></svg>
