<?xml version="1.0" encoding="UTF-8"?>
<svg xmlns="http://www.w3.org/2000/svg" version="1.1" width="300" height="300" viewBox="0 0 300 300"><rect x="0" y="0" width="300" height="300" fill="#fefefe"/><g transform="scale(4.615)"><g transform="translate(4,4)"><path fill-rule="evenodd" d="M8 0L8 4L9 4L9 5L8 5L8 7L9 7L9 5L10 5L10 7L11 7L11 8L9 8L9 9L10 9L10 10L11 10L11 11L10 11L10 12L8 12L8 11L7 11L7 10L8 10L8 9L7 9L7 8L4 8L4 9L3 9L3 10L2 10L2 8L0 8L0 13L1 13L1 14L0 14L0 15L1 15L1 14L2 14L2 16L1 16L1 17L0 17L0 18L1 18L1 19L2 19L2 20L3 20L3 18L4 18L4 19L5 19L5 20L4 20L4 22L2 22L2 21L0 21L0 22L2 22L2 23L0 23L0 24L1 24L1 26L2 26L2 27L1 27L1 28L4 28L4 29L2 29L2 30L4 30L4 31L1 31L1 32L0 32L0 33L1 33L1 34L0 34L0 35L1 35L1 34L2 34L2 35L3 35L3 36L0 36L0 37L1 37L1 39L0 39L0 40L4 40L4 41L2 41L2 42L1 42L1 45L0 45L0 48L5 48L5 47L7 47L7 48L6 48L6 49L8 49L8 50L9 50L9 51L8 51L8 53L9 53L9 55L8 55L8 57L12 57L12 56L10 56L10 54L11 54L11 55L12 55L12 54L11 54L11 52L12 52L12 50L15 50L15 52L13 52L13 53L14 53L14 54L15 54L15 55L16 55L16 54L17 54L17 55L18 55L18 56L17 56L17 57L19 57L19 55L20 55L20 54L21 54L21 56L20 56L20 57L22 57L22 54L21 54L21 53L22 53L22 52L24 52L24 53L23 53L23 55L24 55L24 57L25 57L25 54L24 54L24 53L25 53L25 51L26 51L26 53L28 53L28 57L29 57L29 55L30 55L30 57L34 57L34 55L35 55L35 57L37 57L37 56L36 56L36 54L37 54L37 53L38 53L38 55L40 55L40 56L39 56L39 57L40 57L40 56L43 56L43 55L44 55L44 57L45 57L45 55L46 55L46 56L49 56L49 57L50 57L50 55L51 55L51 56L53 56L53 57L54 57L54 55L53 55L53 50L54 50L54 51L55 51L55 52L54 52L54 53L55 53L55 54L57 54L57 52L56 52L56 45L57 45L57 44L56 44L56 45L55 45L55 49L54 49L54 47L53 47L53 46L54 46L54 44L53 44L53 43L54 43L54 42L55 42L55 43L56 43L56 42L57 42L57 40L53 40L53 39L57 39L57 38L55 38L55 37L56 37L56 36L57 36L57 35L56 35L56 34L57 34L57 33L56 33L56 30L55 30L55 29L54 29L54 28L53 28L53 27L54 27L54 26L55 26L55 25L54 25L54 23L52 23L52 22L53 22L53 21L52 21L52 20L53 20L53 19L52 19L52 14L53 14L53 15L55 15L55 16L53 16L53 17L55 17L55 19L56 19L56 20L55 20L55 24L56 24L56 25L57 25L57 24L56 24L56 21L57 21L57 19L56 19L56 17L57 17L57 15L56 15L56 13L57 13L57 12L56 12L56 13L55 13L55 14L54 14L54 12L53 12L53 13L52 13L52 14L51 14L51 12L52 12L52 11L54 11L54 10L52 10L52 8L51 8L51 9L49 9L49 8L47 8L47 10L49 10L49 11L50 11L50 15L48 15L48 16L47 16L47 15L46 15L46 11L45 11L45 10L46 10L46 7L47 7L47 5L48 5L48 0L46 0L46 1L47 1L47 2L45 2L45 0L41 0L41 1L40 1L40 2L38 2L38 1L39 1L39 0L38 0L38 1L37 1L37 2L36 2L36 0L35 0L35 1L34 1L34 0L33 0L33 1L32 1L32 0L29 0L29 1L28 1L28 0L26 0L26 1L28 1L28 2L30 2L30 3L31 3L31 4L29 4L29 3L27 3L27 4L26 4L26 3L25 3L25 0L23 0L23 1L22 1L22 2L21 2L21 0L20 0L20 2L21 2L21 3L22 3L22 4L23 4L23 3L25 3L25 4L24 4L24 5L23 5L23 6L22 6L22 5L21 5L21 6L20 6L20 5L19 5L19 6L18 6L18 5L17 5L17 6L16 6L16 5L15 5L15 4L14 4L14 0L12 0L12 1L13 1L13 2L11 2L11 4L10 4L10 3L9 3L9 0ZM10 0L10 1L11 1L11 0ZM15 0L15 2L16 2L16 4L17 4L17 2L16 2L16 0ZM17 0L17 1L18 1L18 2L19 2L19 0ZM30 1L30 2L31 2L31 3L32 3L32 5L33 5L33 7L32 7L32 6L31 6L31 10L30 10L30 11L31 11L31 12L29 12L29 10L28 10L28 9L26 9L26 6L25 6L25 7L24 7L24 6L23 6L23 7L24 7L24 8L22 8L22 10L20 10L20 9L18 9L18 11L17 11L17 13L15 13L15 12L14 12L14 11L12 11L12 13L15 13L15 14L17 14L17 15L18 15L18 16L20 16L20 17L19 17L19 18L20 18L20 17L26 17L26 18L24 18L24 19L22 19L22 18L21 18L21 19L19 19L19 21L18 21L18 19L17 19L17 16L16 16L16 19L15 19L15 18L12 18L12 19L14 19L14 20L15 20L15 21L18 21L18 22L19 22L19 21L20 21L20 20L21 20L21 19L22 19L22 21L21 21L21 22L20 22L20 23L19 23L19 24L20 24L20 25L19 25L19 28L18 28L18 29L15 29L15 30L14 30L14 28L15 28L15 27L14 27L14 26L15 26L15 25L16 25L16 28L17 28L17 27L18 27L18 25L17 25L17 22L16 22L16 23L15 23L15 25L14 25L14 24L13 24L13 22L14 22L14 21L13 21L13 20L12 20L12 21L11 21L11 20L8 20L8 21L6 21L6 22L5 22L5 24L4 24L4 23L3 23L3 24L4 24L4 25L2 25L2 26L3 26L3 27L4 27L4 25L5 25L5 26L7 26L7 25L8 25L8 24L9 24L9 26L10 26L10 25L11 25L11 27L9 27L9 28L11 28L11 30L12 30L12 31L14 31L14 33L15 33L15 32L16 32L16 34L15 34L15 35L16 35L16 37L15 37L15 36L14 36L14 35L12 35L12 37L13 37L13 38L12 38L12 39L13 39L13 38L14 38L14 39L16 39L16 38L19 38L19 39L17 39L17 41L16 41L16 42L15 42L15 41L14 41L14 40L13 40L13 41L14 41L14 42L13 42L13 44L14 44L14 45L12 45L12 42L10 42L10 41L12 41L12 40L10 40L10 41L8 41L8 46L7 46L7 45L6 45L6 44L7 44L7 43L6 43L6 42L7 42L7 41L6 41L6 40L9 40L9 39L10 39L10 37L11 37L11 35L9 35L9 37L8 37L8 35L6 35L6 34L8 34L8 32L11 32L11 31L8 31L8 32L7 32L7 31L6 31L6 32L5 32L5 33L6 33L6 34L5 34L5 36L7 36L7 37L6 37L6 38L5 38L5 39L6 39L6 40L5 40L5 41L6 41L6 42L5 42L5 43L4 43L4 42L2 42L2 45L1 45L1 47L2 47L2 45L3 45L3 47L5 47L5 45L6 45L6 46L7 46L7 47L8 47L8 46L9 46L9 47L10 47L10 48L9 48L9 49L10 49L10 51L9 51L9 52L10 52L10 51L11 51L11 50L12 50L12 48L14 48L14 49L16 49L16 52L15 52L15 53L17 53L17 52L19 52L19 53L20 53L20 48L22 48L22 49L21 49L21 51L22 51L22 49L23 49L23 48L22 48L22 47L23 47L23 45L25 45L25 43L27 43L27 45L26 45L26 46L24 46L24 49L25 49L25 48L27 48L27 47L30 47L30 48L31 48L31 49L32 49L32 50L31 50L31 52L32 52L32 50L33 50L33 51L34 51L34 52L33 52L33 53L32 53L32 54L33 54L33 55L34 55L34 54L35 54L35 53L34 53L34 52L36 52L36 49L35 49L35 45L34 45L34 47L32 47L32 46L33 46L33 45L32 45L32 43L33 43L33 44L37 44L37 46L38 46L38 45L39 45L39 44L37 44L37 43L33 43L33 41L32 41L32 40L33 40L33 39L34 39L34 42L35 42L35 39L37 39L37 42L38 42L38 39L40 39L40 38L38 38L38 37L44 37L44 38L43 38L43 39L42 39L42 40L40 40L40 41L39 41L39 43L40 43L40 42L41 42L41 43L42 43L42 44L43 44L43 45L44 45L44 42L45 42L45 41L44 41L44 40L43 40L43 39L45 39L45 40L47 40L47 41L46 41L46 42L47 42L47 43L45 43L45 45L46 45L46 47L47 47L47 49L46 49L46 48L45 48L45 46L44 46L44 47L42 47L42 49L43 49L43 50L42 50L42 51L45 51L45 53L44 53L44 52L43 52L43 53L44 53L44 55L45 55L45 53L46 53L46 54L47 54L47 55L49 55L49 54L51 54L51 55L52 55L52 54L51 54L51 53L49 53L49 54L47 54L47 53L48 53L48 52L47 52L47 49L48 49L48 47L49 47L49 48L52 48L52 46L53 46L53 44L52 44L52 43L53 43L53 41L52 41L52 40L50 40L50 39L51 39L51 36L50 36L50 35L53 35L53 36L52 36L52 38L54 38L54 37L53 37L53 36L56 36L56 35L53 35L53 34L54 34L54 33L55 33L55 34L56 34L56 33L55 33L55 31L53 31L53 33L51 33L51 32L52 32L52 31L51 31L51 32L50 32L50 35L49 35L49 36L48 36L48 35L46 35L46 34L49 34L49 33L48 33L48 31L47 31L47 30L48 30L48 29L46 29L46 28L48 28L48 27L45 27L45 29L43 29L43 28L42 28L42 25L41 25L41 22L40 22L40 21L43 21L43 22L42 22L42 23L43 23L43 22L44 22L44 24L43 24L43 25L44 25L44 26L43 26L43 27L44 27L44 26L45 26L45 25L46 25L46 26L47 26L47 25L48 25L48 22L47 22L47 21L46 21L46 20L45 20L45 21L46 21L46 24L45 24L45 22L44 22L44 16L45 16L45 17L46 17L46 18L45 18L45 19L47 19L47 17L46 17L46 15L45 15L45 14L43 14L43 15L42 15L42 17L43 17L43 18L42 18L42 19L43 19L43 20L41 20L41 18L40 18L40 17L41 17L41 14L40 14L40 13L44 13L44 12L45 12L45 11L44 11L44 4L45 4L45 7L46 7L46 5L47 5L47 3L44 3L44 2L43 2L43 3L41 3L41 2L40 2L40 3L39 3L39 4L40 4L40 3L41 3L41 4L43 4L43 5L42 5L42 6L41 6L41 5L39 5L39 7L40 7L40 6L41 6L41 8L40 8L40 10L41 10L41 11L40 11L40 13L39 13L39 12L37 12L37 11L38 11L38 8L37 8L37 9L35 9L35 7L36 7L36 5L38 5L38 4L37 4L37 3L38 3L38 2L37 2L37 3L36 3L36 2L34 2L34 1L33 1L33 2L34 2L34 5L33 5L33 3L32 3L32 1ZM22 2L22 3L23 3L23 2ZM12 3L12 4L13 4L13 3ZM43 3L43 4L44 4L44 3ZM35 4L35 5L34 5L34 7L33 7L33 8L32 8L32 13L30 13L30 15L33 15L33 16L32 16L32 17L31 17L31 16L29 16L29 13L26 13L26 11L27 11L27 12L28 12L28 10L25 10L25 8L24 8L24 9L23 9L23 11L24 11L24 12L22 12L22 11L20 11L20 10L19 10L19 11L20 11L20 16L21 16L21 15L22 15L22 16L26 16L26 17L28 17L28 18L30 18L30 19L28 19L28 20L26 20L26 19L25 19L25 20L24 20L24 21L23 21L23 22L21 22L21 23L22 23L22 24L23 24L23 23L24 23L24 25L20 25L20 28L19 28L19 29L18 29L18 30L15 30L15 31L16 31L16 32L17 32L17 33L18 33L18 34L17 34L17 35L18 35L18 34L19 34L19 33L20 33L20 35L21 35L21 36L17 36L17 37L21 37L21 38L20 38L20 39L19 39L19 40L18 40L18 41L17 41L17 42L16 42L16 43L15 43L15 42L14 42L14 44L15 44L15 45L14 45L14 48L15 48L15 46L16 46L16 49L17 49L17 50L18 50L18 51L19 51L19 48L20 48L20 47L22 47L22 46L21 46L21 45L23 45L23 44L22 44L22 43L21 43L21 45L20 45L20 43L19 43L19 44L18 44L18 45L17 45L17 46L16 46L16 43L18 43L18 41L20 41L20 42L22 42L22 40L21 40L21 39L23 39L23 42L26 42L26 41L27 41L27 42L28 42L28 43L29 43L29 42L31 42L31 43L32 43L32 41L31 41L31 39L33 39L33 38L34 38L34 36L33 36L33 35L34 35L34 33L35 33L35 38L37 38L37 39L38 39L38 38L37 38L37 37L38 37L38 36L37 36L37 35L38 35L38 34L39 34L39 33L40 33L40 34L42 34L42 35L41 35L41 36L43 36L43 35L44 35L44 37L45 37L45 39L47 39L47 40L49 40L49 39L50 39L50 37L48 37L48 38L49 38L49 39L47 39L47 38L46 38L46 37L47 37L47 36L46 36L46 35L44 35L44 34L46 34L46 33L47 33L47 31L46 31L46 30L45 30L45 31L44 31L44 30L43 30L43 29L41 29L41 30L40 30L40 32L39 32L39 29L40 29L40 28L41 28L41 26L40 26L40 25L39 25L39 21L40 21L40 18L39 18L39 17L40 17L40 14L39 14L39 13L38 13L38 15L39 15L39 17L38 17L38 16L37 16L37 15L35 15L35 17L38 17L38 18L39 18L39 19L37 19L37 18L34 18L34 13L33 13L33 10L34 10L34 12L35 12L35 14L36 14L36 13L37 13L37 12L36 12L36 10L34 10L34 9L33 9L33 8L34 8L34 7L35 7L35 5L36 5L36 4ZM11 5L11 7L12 7L12 5ZM13 5L13 7L14 7L14 8L12 8L12 9L11 9L11 10L14 10L14 8L15 8L15 7L16 7L16 6L15 6L15 7L14 7L14 5ZM27 5L27 8L30 8L30 5ZM17 6L17 7L18 7L18 6ZM19 6L19 7L20 7L20 6ZM21 6L21 7L22 7L22 6ZM28 6L28 7L29 7L29 6ZM37 6L37 7L38 7L38 6ZM42 6L42 8L41 8L41 10L43 10L43 6ZM48 6L48 7L49 7L49 6ZM53 8L53 9L56 9L56 10L55 10L55 11L56 11L56 10L57 10L57 8ZM4 9L4 11L3 11L3 12L2 12L2 11L1 11L1 13L3 13L3 14L4 14L4 15L3 15L3 16L2 16L2 18L3 18L3 17L4 17L4 18L5 18L5 19L6 19L6 20L7 20L7 19L9 19L9 18L8 18L8 16L9 16L9 15L5 15L5 14L7 14L7 13L8 13L8 14L9 14L9 13L8 13L8 12L7 12L7 11L6 11L6 10L7 10L7 9ZM15 9L15 11L16 11L16 10L17 10L17 9ZM41 11L41 12L44 12L44 11ZM3 12L3 13L4 13L4 12ZM6 12L6 13L7 13L7 12ZM18 12L18 13L17 13L17 14L19 14L19 12ZM24 12L24 13L25 13L25 12ZM21 13L21 14L22 14L22 15L25 15L25 14L23 14L23 13ZM32 13L32 14L33 14L33 13ZM47 13L47 14L49 14L49 13ZM12 14L12 17L14 17L14 14ZM26 14L26 16L27 16L27 15L28 15L28 14ZM43 15L43 16L44 16L44 15ZM5 16L5 18L6 18L6 19L7 19L7 18L6 18L6 17L7 17L7 16ZM10 16L10 17L11 17L11 16ZM49 16L49 19L51 19L51 18L50 18L50 16ZM55 16L55 17L56 17L56 16ZM32 17L32 19L34 19L34 20L33 20L33 21L34 21L34 22L35 22L35 23L34 23L34 24L33 24L33 25L34 25L34 26L33 26L33 27L32 27L32 23L33 23L33 22L31 22L31 31L32 31L32 32L30 32L30 31L27 31L27 32L29 32L29 33L28 33L28 34L27 34L27 33L26 33L26 31L25 31L25 32L24 32L24 30L23 30L23 28L22 28L22 27L21 27L21 29L22 29L22 30L20 30L20 29L19 29L19 31L20 31L20 32L21 32L21 31L22 31L22 33L21 33L21 35L23 35L23 33L26 33L26 35L27 35L27 36L26 36L26 38L27 38L27 39L28 39L28 38L29 38L29 39L31 39L31 38L33 38L33 37L32 37L32 36L31 36L31 35L32 35L32 32L33 32L33 31L32 31L32 28L33 28L33 27L34 27L34 31L35 31L35 28L37 28L37 29L38 29L38 28L37 28L37 27L40 27L40 26L38 26L38 23L37 23L37 22L35 22L35 20L36 20L36 19L34 19L34 18L33 18L33 17ZM10 18L10 19L11 19L11 18ZM16 19L16 20L17 20L17 19ZM30 19L30 20L28 20L28 22L27 22L27 21L24 21L24 22L25 22L25 23L26 23L26 22L27 22L27 24L28 24L28 26L30 26L30 25L29 25L29 24L30 24L30 22L29 22L29 21L30 21L30 20L31 20L31 21L32 21L32 20L31 20L31 19ZM38 20L38 21L39 21L39 20ZM49 20L49 21L51 21L51 22L52 22L52 21L51 21L51 20ZM8 21L8 23L7 23L7 22L6 22L6 23L7 23L7 24L6 24L6 25L7 25L7 24L8 24L8 23L9 23L9 24L10 24L10 23L12 23L12 22L13 22L13 21L12 21L12 22L10 22L10 23L9 23L9 21ZM49 22L49 26L50 26L50 25L51 25L51 26L52 26L52 25L53 25L53 24L52 24L52 23L50 23L50 22ZM28 23L28 24L29 24L29 23ZM11 24L11 25L12 25L12 27L11 27L11 28L14 28L14 27L13 27L13 26L14 26L14 25L13 25L13 24ZM34 24L34 25L37 25L37 24ZM44 24L44 25L45 25L45 24ZM51 24L51 25L52 25L52 24ZM25 25L25 26L24 26L24 27L26 27L26 25ZM36 26L36 27L37 27L37 26ZM5 27L5 30L8 30L8 27ZM27 27L27 30L30 30L30 27ZM49 27L49 30L52 30L52 27ZM55 27L55 28L56 28L56 29L57 29L57 28L56 28L56 27ZM6 28L6 29L7 29L7 28ZM28 28L28 29L29 29L29 28ZM50 28L50 29L51 29L51 28ZM25 29L25 30L26 30L26 29ZM22 30L22 31L23 31L23 30ZM37 30L37 32L38 32L38 30ZM2 32L2 33L3 33L3 34L4 34L4 32ZM6 32L6 33L7 33L7 32ZM40 32L40 33L41 33L41 32ZM45 32L45 33L46 33L46 32ZM9 33L9 34L12 34L12 33ZM29 33L29 34L28 34L28 36L27 36L27 37L28 37L28 36L29 36L29 37L31 37L31 36L30 36L30 34L31 34L31 33ZM37 33L37 34L38 34L38 33ZM43 33L43 34L44 34L44 33ZM24 34L24 36L25 36L25 34ZM39 35L39 36L40 36L40 35ZM22 36L22 38L23 38L23 39L24 39L24 41L25 41L25 40L26 40L26 39L25 39L25 38L24 38L24 37L23 37L23 36ZM2 37L2 38L3 38L3 39L4 39L4 38L3 38L3 37ZM7 37L7 38L6 38L6 39L9 39L9 38L8 38L8 37ZM27 40L27 41L28 41L28 42L29 42L29 41L30 41L30 40L29 40L29 41L28 41L28 40ZM41 41L41 42L43 42L43 41ZM48 41L48 43L47 43L47 44L46 44L46 45L47 45L47 47L48 47L48 45L47 45L47 44L49 44L49 47L50 47L50 46L52 46L52 45L51 45L51 43L52 43L52 41L51 41L51 43L50 43L50 42L49 42L49 41ZM55 41L55 42L56 42L56 41ZM9 42L9 45L10 45L10 47L11 47L11 48L10 48L10 49L11 49L11 48L12 48L12 47L13 47L13 46L11 46L11 43L10 43L10 42ZM3 43L3 45L4 45L4 43ZM5 43L5 44L6 44L6 43ZM49 43L49 44L50 44L50 43ZM28 44L28 45L27 45L27 46L26 46L26 47L27 47L27 46L28 46L28 45L29 45L29 46L32 46L32 45L31 45L31 44L30 44L30 45L29 45L29 44ZM40 44L40 46L39 46L39 47L38 47L38 49L37 49L37 52L38 52L38 53L39 53L39 52L40 52L40 53L42 53L42 52L41 52L41 44ZM19 45L19 46L18 46L18 47L17 47L17 48L18 48L18 47L20 47L20 45ZM31 47L31 48L32 48L32 49L33 49L33 50L34 50L34 51L35 51L35 50L34 50L34 48L32 48L32 47ZM36 47L36 48L37 48L37 47ZM39 47L39 49L38 49L38 51L40 51L40 47ZM44 48L44 50L45 50L45 48ZM27 49L27 52L30 52L30 49ZM49 49L49 52L52 52L52 49ZM28 50L28 51L29 51L29 50ZM50 50L50 51L51 51L51 50ZM46 52L46 53L47 53L47 52ZM55 52L55 53L56 53L56 52ZM30 53L30 54L31 54L31 53ZM33 53L33 54L34 54L34 53ZM18 54L18 55L19 55L19 54ZM26 54L26 57L27 57L27 54ZM40 54L40 55L41 55L41 54ZM42 54L42 55L43 55L43 54ZM15 56L15 57L16 57L16 56ZM56 56L56 57L57 57L57 56ZM0 0L0 7L7 7L7 0ZM1 1L1 6L6 6L6 1ZM2 2L2 5L5 5L5 2ZM50 0L50 7L57 7L57 0ZM51 1L51 6L56 6L56 1ZM52 2L52 5L55 5L55 2ZM0 50L0 57L7 57L7 50ZM1 51L1 56L6 56L6 51ZM2 52L2 55L5 55L5 52Z" fill="#000000"/></g></g></svg>
