<?xml version="1.0" encoding="UTF-8"?>
<svg xmlns="http://www.w3.org/2000/svg" version="1.1" width="300" height="300" viewBox="0 0 300 300"><rect x="0" y="0" width="300" height="300" fill="#fefefe"/><g transform="scale(4.615)"><g transform="translate(4,4)"><path fill-rule="evenodd" d="M12 0L12 1L14 1L14 2L11 2L11 3L10 3L10 2L9 2L9 1L8 1L8 2L9 2L9 3L8 3L8 4L9 4L9 5L8 5L8 7L9 7L9 8L6 8L6 9L5 9L5 8L0 8L0 9L1 9L1 10L0 10L0 13L1 13L1 15L2 15L2 13L1 13L1 11L2 11L2 9L4 9L4 10L3 10L3 11L4 11L4 10L5 10L5 11L7 11L7 10L8 10L8 12L3 12L3 13L5 13L5 14L4 14L4 16L3 16L3 17L4 17L4 18L5 18L5 19L4 19L4 22L3 22L3 21L1 21L1 22L0 22L0 23L1 23L1 24L0 24L0 25L1 25L1 24L4 24L4 26L3 26L3 27L4 27L4 28L2 28L2 29L3 29L3 30L4 30L4 31L2 31L2 30L1 30L1 28L0 28L0 31L1 31L1 34L0 34L0 35L1 35L1 38L4 38L4 39L5 39L5 38L4 38L4 37L7 37L7 36L6 36L6 35L8 35L8 36L9 36L9 38L10 38L10 37L12 37L12 39L9 39L9 40L10 40L10 41L8 41L8 39L7 39L7 38L6 38L6 39L7 39L7 40L6 40L6 41L8 41L8 42L9 42L9 43L8 43L8 44L6 44L6 43L7 43L7 42L5 42L5 40L4 40L4 41L3 41L3 40L2 40L2 39L0 39L0 42L1 42L1 43L2 43L2 45L3 45L3 46L2 46L2 47L1 47L1 46L0 46L0 48L5 48L5 47L8 47L8 51L9 51L9 52L8 52L8 57L13 57L13 55L16 55L16 56L14 56L14 57L16 57L16 56L17 56L17 57L19 57L19 55L20 55L20 54L19 54L19 53L20 53L20 52L23 52L23 51L22 51L22 50L25 50L25 51L26 51L26 52L24 52L24 53L23 53L23 54L22 54L22 53L21 53L21 55L23 55L23 56L24 56L24 57L26 57L26 56L27 56L27 57L29 57L29 56L30 56L30 57L31 57L31 56L35 56L35 57L39 57L39 56L40 56L40 55L41 55L41 54L42 54L42 55L43 55L43 57L44 57L44 54L45 54L45 55L47 55L47 56L46 56L46 57L47 57L47 56L48 56L48 57L49 57L49 56L50 56L50 57L52 57L52 55L51 55L51 53L52 53L52 54L53 54L53 57L54 57L54 56L55 56L55 57L56 57L56 56L55 56L55 52L57 52L57 51L56 51L56 49L57 49L57 48L56 48L56 46L57 46L57 43L56 43L56 41L55 41L55 39L57 39L57 37L56 37L56 36L55 36L55 35L56 35L56 34L55 34L55 32L56 32L56 33L57 33L57 32L56 32L56 30L57 30L57 29L54 29L54 28L55 28L55 27L56 27L56 28L57 28L57 27L56 27L56 26L57 26L57 25L56 25L56 22L57 22L57 21L56 21L56 18L57 18L57 17L56 17L56 16L57 16L57 15L56 15L56 14L57 14L57 12L56 12L56 14L55 14L55 15L53 15L53 13L54 13L54 12L55 12L55 11L56 11L56 10L54 10L54 11L52 11L52 10L53 10L53 9L54 9L54 8L53 8L53 9L52 9L52 8L51 8L51 9L52 9L52 10L51 10L51 11L50 11L50 8L49 8L49 6L48 6L48 7L47 7L47 5L48 5L48 0L46 0L46 1L47 1L47 2L44 2L44 3L43 3L43 4L40 4L40 5L39 5L39 6L38 6L38 9L37 9L37 8L35 8L35 5L36 5L36 7L37 7L37 5L38 5L38 3L41 3L41 2L43 2L43 0L41 0L41 1L40 1L40 0L39 0L39 1L38 1L38 0L37 0L37 1L38 1L38 3L36 3L36 0L35 0L35 1L33 1L33 0L32 0L32 1L33 1L33 2L32 2L32 3L31 3L31 2L30 2L30 1L31 1L31 0L30 0L30 1L29 1L29 2L28 2L28 3L29 3L29 4L26 4L26 3L23 3L23 4L24 4L24 5L23 5L23 6L22 6L22 7L21 7L21 5L22 5L22 4L19 4L19 2L21 2L21 3L22 3L22 2L21 2L21 1L22 1L22 0L21 0L21 1L20 1L20 0L18 0L18 1L17 1L17 6L16 6L16 7L15 7L15 5L16 5L16 4L15 4L15 5L13 5L13 6L12 6L12 7L13 7L13 9L14 9L14 7L15 7L15 9L18 9L18 11L17 11L17 10L12 10L12 8L11 8L11 9L10 9L10 12L11 12L11 14L9 14L9 16L8 16L8 17L7 17L7 16L6 16L6 15L7 15L7 14L6 14L6 13L8 13L8 12L9 12L9 10L8 10L8 9L9 9L9 8L10 8L10 7L11 7L11 6L10 6L10 7L9 7L9 5L10 5L10 4L11 4L11 3L13 3L13 4L14 4L14 2L16 2L16 1L14 1L14 0ZM23 0L23 2L27 2L27 1L25 1L25 0ZM18 1L18 2L19 2L19 1ZM33 2L33 3L32 3L32 4L31 4L31 3L30 3L30 4L31 4L31 8L32 8L32 10L31 10L31 11L29 11L29 12L28 12L28 13L27 13L27 15L26 15L26 12L27 12L27 11L26 11L26 12L25 12L25 11L23 11L23 13L22 13L22 12L20 12L20 11L22 11L22 10L21 10L21 9L23 9L23 8L24 8L24 6L23 6L23 7L22 7L22 8L19 8L19 7L20 7L20 5L18 5L18 6L17 6L17 7L16 7L16 8L17 8L17 7L18 7L18 8L19 8L19 9L20 9L20 10L19 10L19 13L20 13L20 15L21 15L21 16L22 16L22 17L20 17L20 16L19 16L19 15L18 15L18 14L17 14L17 13L18 13L18 12L17 12L17 11L16 11L16 12L15 12L15 13L13 13L13 12L14 12L14 11L13 11L13 12L12 12L12 10L11 10L11 12L12 12L12 13L13 13L13 14L15 14L15 13L16 13L16 17L15 17L15 16L14 16L14 15L13 15L13 16L14 16L14 17L15 17L15 18L12 18L12 17L10 17L10 16L9 16L9 18L12 18L12 19L8 19L8 20L7 20L7 19L6 19L6 20L7 20L7 21L6 21L6 22L7 22L7 21L8 21L8 20L9 20L9 21L10 21L10 22L9 22L9 23L8 23L8 24L7 24L7 23L5 23L5 22L4 22L4 23L5 23L5 24L7 24L7 25L5 25L5 26L8 26L8 24L11 24L11 23L13 23L13 24L12 24L12 25L10 25L10 27L9 27L9 30L10 30L10 31L6 31L6 32L5 32L5 31L4 31L4 32L5 32L5 33L6 33L6 34L5 34L5 35L6 35L6 34L7 34L7 33L6 33L6 32L8 32L8 33L9 33L9 32L10 32L10 33L12 33L12 34L13 34L13 35L14 35L14 36L15 36L15 37L13 37L13 36L12 36L12 35L11 35L11 36L12 36L12 37L13 37L13 39L14 39L14 38L15 38L15 39L16 39L16 41L15 41L15 40L14 40L14 41L13 41L13 42L11 42L11 41L12 41L12 40L11 40L11 41L10 41L10 42L11 42L11 43L10 43L10 44L9 44L9 45L8 45L8 47L10 47L10 49L11 49L11 50L12 50L12 53L11 53L11 54L10 54L10 53L9 53L9 56L10 56L10 55L11 55L11 54L12 54L12 55L13 55L13 50L12 50L12 49L14 49L14 50L15 50L15 52L16 52L16 53L14 53L14 54L16 54L16 53L17 53L17 51L16 51L16 50L17 50L17 48L19 48L19 47L17 47L17 48L16 48L16 49L15 49L15 48L12 48L12 46L11 46L11 44L12 44L12 45L13 45L13 46L17 46L17 45L18 45L18 44L17 44L17 45L16 45L16 42L17 42L17 43L18 43L18 42L19 42L19 41L17 41L17 40L18 40L18 39L20 39L20 38L18 38L18 37L17 37L17 36L19 36L19 37L23 37L23 38L24 38L24 37L23 37L23 36L24 36L24 34L23 34L23 33L25 33L25 35L26 35L26 33L25 33L25 32L26 32L26 31L25 31L25 32L24 32L24 31L23 31L23 28L24 28L24 27L23 27L23 26L22 26L22 27L20 27L20 26L21 26L21 25L23 25L23 23L24 23L24 24L25 24L25 25L26 25L26 26L25 26L25 27L26 27L26 26L28 26L28 25L29 25L29 26L30 26L30 25L29 25L29 24L30 24L30 22L28 22L28 21L29 21L29 19L28 19L28 18L27 18L27 17L28 17L28 16L29 16L29 14L30 14L30 15L31 15L31 14L30 14L30 13L31 13L31 12L32 12L32 13L33 13L33 14L35 14L35 12L36 12L36 10L37 10L37 11L38 11L38 10L39 10L39 11L40 11L40 10L41 10L41 12L39 12L39 13L38 13L38 14L37 14L37 13L36 13L36 14L37 14L37 15L35 15L35 16L31 16L31 18L30 18L30 19L33 19L33 18L34 18L34 19L36 19L36 20L37 20L37 19L39 19L39 17L41 17L41 16L42 16L42 17L43 17L43 16L42 16L42 15L43 15L43 14L39 14L39 13L43 13L43 11L42 11L42 10L41 10L41 9L42 9L42 8L41 8L41 7L42 7L42 5L40 5L40 6L39 6L39 9L38 9L38 10L37 10L37 9L35 9L35 8L34 8L34 9L33 9L33 7L34 7L34 5L35 5L35 2ZM9 3L9 4L10 4L10 3ZM44 3L44 6L43 6L43 7L44 7L44 9L45 9L45 11L44 11L44 14L47 14L47 13L49 13L49 12L50 12L50 14L49 14L49 15L48 15L48 16L49 16L49 17L50 17L50 18L47 18L47 17L45 17L45 15L44 15L44 18L43 18L43 20L44 20L44 23L42 23L42 22L41 22L41 24L38 24L38 23L37 23L37 24L38 24L38 26L37 26L37 25L33 25L33 24L32 24L32 23L33 23L33 22L34 22L34 23L35 23L35 21L33 21L33 20L32 20L32 21L31 21L31 24L32 24L32 26L31 26L31 28L32 28L32 29L31 29L31 31L30 31L30 32L29 32L29 33L28 33L28 32L27 32L27 37L25 37L25 38L27 38L27 39L28 39L28 40L26 40L26 39L25 39L25 40L24 40L24 39L21 39L21 40L20 40L20 43L22 43L22 42L24 42L24 41L25 41L25 43L27 43L27 42L32 42L32 43L31 43L31 44L32 44L32 45L31 45L31 46L32 46L32 47L33 47L33 46L35 46L35 47L34 47L34 49L33 49L33 48L32 48L32 49L31 49L31 50L32 50L32 51L31 51L31 53L30 53L30 54L27 54L27 56L29 56L29 55L30 55L30 56L31 56L31 54L32 54L32 53L33 53L33 55L35 55L35 56L36 56L36 54L35 54L35 50L36 50L36 52L37 52L37 53L38 53L38 54L37 54L37 56L39 56L39 55L38 55L38 54L40 54L40 53L41 53L41 52L40 52L40 51L39 51L39 53L38 53L38 50L41 50L41 51L42 51L42 52L43 52L43 51L44 51L44 50L43 50L43 51L42 51L42 50L41 50L41 48L42 48L42 49L43 49L43 48L44 48L44 49L45 49L45 50L47 50L47 53L45 53L45 52L46 52L46 51L45 51L45 52L44 52L44 53L43 53L43 54L44 54L44 53L45 53L45 54L47 54L47 53L48 53L48 50L47 50L47 49L48 49L48 48L49 48L49 47L48 47L48 48L47 48L47 47L46 47L46 48L45 48L45 47L43 47L43 46L41 46L41 48L39 48L39 47L40 47L40 45L41 45L41 44L42 44L42 43L41 43L41 39L45 39L45 38L46 38L46 39L47 39L47 40L42 40L42 41L44 41L44 46L48 46L48 44L49 44L49 45L50 45L50 43L51 43L51 46L50 46L50 47L51 47L51 48L53 48L53 43L54 43L54 42L53 42L53 41L51 41L51 42L50 42L50 43L48 43L48 44L47 44L47 45L45 45L45 44L46 44L46 43L47 43L47 42L48 42L48 41L49 41L49 39L51 39L51 40L53 40L53 39L52 39L52 38L53 38L53 35L55 35L55 34L54 34L54 33L52 33L52 32L53 32L53 31L54 31L54 30L53 30L53 31L51 31L51 33L52 33L52 34L50 34L50 31L48 31L48 29L46 29L46 30L47 30L47 31L45 31L45 30L44 30L44 29L45 29L45 28L46 28L46 27L47 27L47 28L48 28L48 27L47 27L47 25L45 25L45 23L46 23L46 22L47 22L47 23L48 23L48 24L49 24L49 23L50 23L50 24L51 24L51 25L50 25L50 26L51 26L51 25L52 25L52 26L53 26L53 27L54 27L54 26L53 26L53 25L55 25L55 26L56 26L56 25L55 25L55 24L53 24L53 23L50 23L50 22L51 22L51 21L54 21L54 22L56 22L56 21L55 21L55 20L53 20L53 19L52 19L52 18L51 18L51 17L53 17L53 18L55 18L55 16L53 16L53 15L50 15L50 14L51 14L51 12L50 12L50 11L49 11L49 12L45 12L45 11L46 11L46 10L47 10L47 7L46 7L46 5L47 5L47 3ZM25 4L25 8L26 8L26 4ZM32 4L32 5L33 5L33 4ZM36 4L36 5L37 5L37 4ZM45 4L45 5L46 5L46 4ZM27 5L27 8L30 8L30 5ZM13 6L13 7L14 7L14 6ZM18 6L18 7L19 7L19 6ZM28 6L28 7L29 7L29 6ZM32 6L32 7L33 7L33 6ZM40 6L40 7L41 7L41 6ZM44 6L44 7L45 7L45 6ZM55 8L55 9L56 9L56 8ZM6 9L6 10L7 10L7 9ZM28 9L28 10L29 10L29 9ZM39 9L39 10L40 10L40 9ZM32 10L32 11L33 11L33 10ZM16 12L16 13L17 13L17 12ZM24 12L24 13L23 13L23 14L22 14L22 13L21 13L21 15L23 15L23 14L25 14L25 12ZM33 12L33 13L34 13L34 12ZM52 12L52 13L53 13L53 12ZM28 13L28 14L29 14L29 13ZM38 14L38 15L39 15L39 16L38 16L38 17L37 17L37 16L35 16L35 17L37 17L37 18L38 18L38 17L39 17L39 16L41 16L41 15L39 15L39 14ZM17 15L17 16L18 16L18 17L17 17L17 18L15 18L15 19L17 19L17 21L16 21L16 20L15 20L15 21L16 21L16 22L14 22L14 21L13 21L13 22L14 22L14 23L16 23L16 24L17 24L17 25L19 25L19 26L20 26L20 25L21 25L21 24L22 24L22 23L21 23L21 24L20 24L20 25L19 25L19 23L20 23L20 22L19 22L19 21L20 21L20 19L19 19L19 18L20 18L20 17L19 17L19 16L18 16L18 15ZM25 15L25 17L22 17L22 18L21 18L21 20L24 20L24 21L23 21L23 22L24 22L24 21L25 21L25 22L26 22L26 23L25 23L25 24L27 24L27 25L28 25L28 24L29 24L29 23L28 23L28 24L27 24L27 21L25 21L25 20L26 20L26 18L25 18L25 17L26 17L26 15ZM27 15L27 16L28 16L28 15ZM46 15L46 16L47 16L47 15ZM49 15L49 16L50 16L50 15ZM4 16L4 17L6 17L6 18L7 18L7 17L6 17L6 16ZM1 17L1 19L0 19L0 20L1 20L1 19L2 19L2 17ZM18 17L18 18L19 18L19 17ZM32 17L32 18L33 18L33 17ZM22 18L22 19L24 19L24 18ZM41 18L41 19L42 19L42 18ZM44 18L44 20L45 20L45 18ZM46 18L46 19L47 19L47 18ZM13 19L13 20L14 20L14 19ZM49 19L49 20L47 20L47 22L49 22L49 21L51 21L51 20L52 20L52 19ZM38 20L38 21L37 21L37 22L39 22L39 23L40 23L40 22L39 22L39 21L42 21L42 20ZM17 21L17 22L18 22L18 21ZM21 21L21 22L22 22L22 21ZM45 21L45 22L46 22L46 21ZM2 22L2 23L3 23L3 22ZM10 22L10 23L11 23L11 22ZM17 23L17 24L18 24L18 23ZM13 24L13 25L12 25L12 27L16 27L16 26L14 26L14 25L15 25L15 24ZM41 24L41 25L39 25L39 26L40 26L40 27L36 27L36 26L34 26L34 27L33 27L33 26L32 26L32 27L33 27L33 28L35 28L35 29L38 29L38 28L40 28L40 27L41 27L41 28L42 28L42 26L43 26L43 27L44 27L44 28L43 28L43 29L40 29L40 30L43 30L43 29L44 29L44 28L45 28L45 27L44 27L44 26L43 26L43 25L44 25L44 24ZM0 26L0 27L2 27L2 26ZM17 26L17 27L18 27L18 26ZM5 27L5 30L8 30L8 27ZM10 27L10 28L11 28L11 27ZM27 27L27 30L30 30L30 27ZM35 27L35 28L36 28L36 27ZM49 27L49 30L52 30L52 27ZM6 28L6 29L7 29L7 28ZM12 28L12 29L13 29L13 28ZM14 28L14 31L12 31L12 33L14 33L14 35L18 35L18 34L19 34L19 36L20 36L20 34L19 34L19 33L21 33L21 35L22 35L22 36L23 36L23 35L22 35L22 33L21 33L21 32L23 32L23 31L20 31L20 32L19 32L19 31L17 31L17 30L16 30L16 29L18 29L18 30L20 30L20 29L22 29L22 28L20 28L20 29L18 29L18 28L16 28L16 29L15 29L15 28ZM25 28L25 29L26 29L26 28ZM28 28L28 29L29 29L29 28ZM50 28L50 29L51 29L51 28ZM10 29L10 30L11 30L11 29ZM32 29L32 31L31 31L31 33L29 33L29 34L30 34L30 36L29 36L29 37L31 37L31 38L29 38L29 39L33 39L33 40L35 40L35 42L37 42L37 43L34 43L34 42L33 42L33 41L32 41L32 40L31 40L31 41L32 41L32 42L33 42L33 43L32 43L32 44L33 44L33 43L34 43L34 45L37 45L37 47L36 47L36 48L35 48L35 49L36 49L36 50L38 50L38 49L39 49L39 48L38 48L38 47L39 47L39 46L38 46L38 45L39 45L39 42L40 42L40 41L39 41L39 42L38 42L38 40L40 40L40 39L38 39L38 37L40 37L40 38L43 38L43 37L44 37L44 38L45 38L45 37L44 37L44 36L45 36L45 35L47 35L47 36L48 36L48 37L47 37L47 39L49 39L49 38L50 38L50 36L51 36L51 37L52 37L52 35L53 35L53 34L52 34L52 35L50 35L50 34L48 34L48 35L47 35L47 34L45 34L45 35L44 35L44 33L43 33L43 32L45 32L45 33L47 33L47 32L48 32L48 33L49 33L49 32L48 32L48 31L47 31L47 32L45 32L45 31L43 31L43 32L41 32L41 33L39 33L39 34L40 34L40 35L39 35L39 36L38 36L38 37L37 37L37 36L35 36L35 34L37 34L37 35L38 35L38 33L37 33L37 32L35 32L35 30L33 30L33 29ZM38 30L38 32L39 32L39 30ZM10 31L10 32L11 32L11 31ZM14 31L14 32L15 32L15 34L18 34L18 33L17 33L17 32L15 32L15 31ZM32 31L32 33L31 33L31 34L32 34L32 35L33 35L33 36L32 36L32 37L33 37L33 38L34 38L34 39L35 39L35 40L38 40L38 39L35 39L35 37L33 37L33 36L34 36L34 34L35 34L35 33L34 33L34 32L33 32L33 31ZM2 33L2 34L3 34L3 35L2 35L2 36L3 36L3 37L4 37L4 34L3 34L3 33ZM33 33L33 34L34 34L34 33ZM9 34L9 35L10 35L10 34ZM42 34L42 35L41 35L41 36L40 36L40 37L43 37L43 36L44 36L44 35L43 35L43 34ZM48 35L48 36L50 36L50 35ZM15 37L15 38L16 38L16 37ZM27 37L27 38L28 38L28 37ZM54 37L54 38L55 38L55 37ZM17 38L17 39L18 39L18 38ZM1 40L1 42L3 42L3 44L4 44L4 45L5 45L5 43L4 43L4 42L3 42L3 41L2 41L2 40ZM23 40L23 41L24 41L24 40ZM29 40L29 41L30 41L30 40ZM14 41L14 42L15 42L15 41ZM26 41L26 42L27 42L27 41ZM51 42L51 43L53 43L53 42ZM13 43L13 45L14 45L14 44L15 44L15 43ZM55 43L55 44L54 44L54 45L55 45L55 46L54 46L54 47L55 47L55 46L56 46L56 43ZM21 44L21 45L20 45L20 50L21 50L21 49L23 49L23 47L24 47L24 46L23 46L23 45L25 45L25 48L24 48L24 49L25 49L25 50L26 50L26 49L25 49L25 48L29 48L29 46L30 46L30 45L27 45L27 44L23 44L23 45L22 45L22 44ZM6 45L6 46L7 46L7 45ZM9 45L9 46L10 46L10 45ZM21 45L21 47L23 47L23 46L22 46L22 45ZM26 45L26 47L27 47L27 45ZM32 45L32 46L33 46L33 45ZM3 46L3 47L5 47L5 46ZM51 46L51 47L52 47L52 46ZM42 47L42 48L43 48L43 47ZM6 48L6 49L7 49L7 48ZM37 48L37 49L38 49L38 48ZM46 48L46 49L47 49L47 48ZM54 48L54 49L56 49L56 48ZM27 49L27 52L30 52L30 49ZM32 49L32 50L33 50L33 51L32 51L32 52L33 52L33 53L34 53L34 52L33 52L33 51L34 51L34 50L33 50L33 49ZM49 49L49 52L52 52L52 49ZM18 50L18 52L20 52L20 51L19 51L19 50ZM28 50L28 51L29 51L29 50ZM50 50L50 51L51 51L51 50ZM54 50L54 51L55 51L55 50ZM10 51L10 52L11 52L11 51ZM53 52L53 53L54 53L54 52ZM24 53L24 54L23 54L23 55L24 55L24 56L26 56L26 53ZM18 54L18 55L17 55L17 56L18 56L18 55L19 55L19 54ZM48 55L48 56L49 56L49 55ZM50 55L50 56L51 56L51 55ZM20 56L20 57L21 57L21 56ZM0 0L0 7L7 7L7 0ZM1 1L1 6L6 6L6 1ZM2 2L2 5L5 5L5 2ZM50 0L50 7L57 7L57 0ZM51 1L51 6L56 6L56 1ZM52 2L52 5L55 5L55 2ZM0 50L0 57L7 57L7 50ZM1 51L1 56L6 56L6 51ZM2 52L2 55L5 55L5 52Z" fill="#000000"/></g></g></svg>
