<?xml version="1.0" encoding="UTF-8"?>
<svg xmlns="http://www.w3.org/2000/svg" version="1.1" width="300" height="300" viewBox="0 0 300 300"><rect x="0" y="0" width="300" height="300" fill="#fefefe"/><g transform="scale(4.615)"><g transform="translate(4,4)"><path fill-rule="evenodd" d="M8 0L8 4L9 4L9 5L8 5L8 7L9 7L9 6L10 6L10 8L9 8L9 9L8 9L8 11L9 11L9 12L6 12L6 13L7 13L7 14L6 14L6 15L5 15L5 16L2 16L2 14L3 14L3 15L4 15L4 14L3 14L3 13L5 13L5 12L4 12L4 11L5 11L5 10L6 10L6 11L7 11L7 10L6 10L6 9L7 9L7 8L4 8L4 9L2 9L2 8L0 8L0 10L3 10L3 12L1 12L1 11L0 11L0 12L1 12L1 13L2 13L2 14L1 14L1 15L0 15L0 16L1 16L1 17L2 17L2 18L1 18L1 19L2 19L2 20L0 20L0 21L1 21L1 22L0 22L0 23L2 23L2 24L1 24L1 25L0 25L0 26L2 26L2 27L3 27L3 28L2 28L2 29L1 29L1 30L0 30L0 34L1 34L1 33L2 33L2 34L3 34L3 35L0 35L0 37L2 37L2 36L4 36L4 37L3 37L3 38L2 38L2 39L1 39L1 40L0 40L0 44L1 44L1 43L4 43L4 42L3 42L3 40L4 40L4 38L5 38L5 40L6 40L6 41L7 41L7 42L5 42L5 43L7 43L7 42L8 42L8 44L9 44L9 46L8 46L8 45L7 45L7 44L6 44L6 45L5 45L5 44L3 44L3 46L2 46L2 45L0 45L0 48L5 48L5 47L7 47L7 46L8 46L8 50L9 50L9 51L8 51L8 53L9 53L9 55L8 55L8 57L13 57L13 56L12 56L12 55L16 55L16 54L17 54L17 55L18 55L18 56L17 56L17 57L19 57L19 55L20 55L20 54L23 54L23 55L24 55L24 56L23 56L23 57L25 57L25 56L26 56L26 57L27 57L27 55L26 55L26 54L24 54L24 53L28 53L28 57L29 57L29 55L30 55L30 57L34 57L34 55L35 55L35 57L37 57L37 56L36 56L36 54L37 54L37 55L39 55L39 57L40 57L40 54L43 54L43 55L41 55L41 56L43 56L43 55L44 55L44 57L45 57L45 55L44 55L44 53L45 53L45 51L44 51L44 50L43 50L43 49L42 49L42 47L43 47L43 46L44 46L44 45L45 45L45 47L44 47L44 49L45 49L45 50L46 50L46 51L47 51L47 52L46 52L46 53L47 53L47 52L48 52L48 54L49 54L49 57L50 57L50 55L51 55L51 56L53 56L53 57L54 57L54 55L53 55L53 50L54 50L54 51L55 51L55 52L54 52L54 53L55 53L55 54L57 54L57 51L56 51L56 50L57 50L57 49L56 49L56 44L57 44L57 43L56 43L56 42L57 42L57 40L54 40L54 41L53 41L53 39L57 39L57 38L52 38L52 37L51 37L51 38L52 38L52 41L51 41L51 43L50 43L50 42L49 42L49 41L48 41L48 43L47 43L47 42L46 42L46 40L45 40L45 39L47 39L47 40L49 40L49 39L50 39L50 40L51 40L51 39L50 39L50 37L49 37L49 35L50 35L50 36L53 36L53 37L55 37L55 36L56 36L56 37L57 37L57 36L56 36L56 34L57 34L57 33L56 33L56 30L55 30L55 29L54 29L54 28L53 28L53 27L54 27L54 26L55 26L55 27L56 27L56 29L57 29L57 27L56 27L56 25L57 25L57 24L56 24L56 21L57 21L57 19L56 19L56 21L55 21L55 22L54 22L54 21L52 21L52 20L53 20L53 19L48 19L48 20L47 20L47 19L45 19L45 18L46 18L46 17L47 17L47 18L49 18L49 17L50 17L50 18L53 18L53 17L55 17L55 16L56 16L56 17L57 17L57 15L56 15L56 12L57 12L57 11L56 11L56 10L57 10L57 8L53 8L53 9L55 9L55 11L56 11L56 12L55 12L55 13L54 13L54 12L53 12L53 13L52 13L52 14L51 14L51 12L52 12L52 11L54 11L54 10L52 10L52 8L51 8L51 9L50 9L50 10L49 10L49 8L48 8L48 9L47 9L47 8L46 8L46 9L45 9L45 8L44 8L44 9L45 9L45 10L43 10L43 8L42 8L42 9L40 9L40 8L41 8L41 6L42 6L42 7L43 7L43 4L44 4L44 7L45 7L45 6L46 6L46 7L47 7L47 5L48 5L48 0L41 0L41 1L40 1L40 2L39 2L39 3L40 3L40 4L38 4L38 3L37 3L37 2L38 2L38 1L39 1L39 0L38 0L38 1L37 1L37 2L36 2L36 0L35 0L35 1L34 1L34 0L32 0L32 1L34 1L34 2L36 2L36 3L37 3L37 4L38 4L38 5L36 5L36 4L35 4L35 3L34 3L34 4L35 4L35 5L32 5L32 3L33 3L33 2L32 2L32 3L31 3L31 4L30 4L30 3L29 3L29 1L31 1L31 0L29 0L29 1L27 1L27 0L26 0L26 1L25 1L25 0L23 0L23 1L22 1L22 2L21 2L21 0L20 0L20 2L19 2L19 1L18 1L18 3L20 3L20 2L21 2L21 3L22 3L22 4L21 4L21 5L22 5L22 7L21 7L21 6L20 6L20 5L19 5L19 4L17 4L17 1L16 1L16 0L15 0L15 2L16 2L16 4L17 4L17 6L16 6L16 5L15 5L15 4L14 4L14 0L13 0L13 2L12 2L12 3L13 3L13 6L12 6L12 7L13 7L13 6L14 6L14 9L12 9L12 8L11 8L11 6L10 6L10 5L12 5L12 4L10 4L10 3L9 3L9 0ZM11 0L11 1L10 1L10 2L11 2L11 1L12 1L12 0ZM26 1L26 2L25 2L25 3L23 3L23 2L22 2L22 3L23 3L23 4L22 4L22 5L24 5L24 4L25 4L25 3L26 3L26 4L28 4L28 3L27 3L27 1ZM46 1L46 2L47 2L47 1ZM40 2L40 3L41 3L41 2ZM43 2L43 3L44 3L44 4L45 4L45 5L47 5L47 3L44 3L44 2ZM14 5L14 6L15 6L15 7L16 7L16 6L15 6L15 5ZM18 5L18 6L17 6L17 7L18 7L18 6L19 6L19 7L20 7L20 6L19 6L19 5ZM27 5L27 8L30 8L30 5ZM35 5L35 7L34 7L34 6L33 6L33 7L32 7L32 6L31 6L31 11L32 11L32 12L29 12L29 11L28 11L28 9L26 9L26 6L25 6L25 7L24 7L24 6L23 6L23 7L22 7L22 9L21 9L21 10L20 10L20 9L19 9L19 10L18 10L18 9L16 9L16 10L15 10L15 11L16 11L16 10L18 10L18 11L17 11L17 13L15 13L15 12L14 12L14 11L10 11L10 14L9 14L9 15L10 15L10 18L9 18L9 17L8 17L8 18L9 18L9 19L8 19L8 20L7 20L7 19L6 19L6 18L7 18L7 17L6 17L6 16L7 16L7 15L8 15L8 14L7 14L7 15L6 15L6 16L5 16L5 19L6 19L6 20L7 20L7 21L5 21L5 20L4 20L4 21L3 21L3 20L2 20L2 21L3 21L3 22L4 22L4 24L2 24L2 25L3 25L3 26L7 26L7 25L9 25L9 26L10 26L10 27L9 27L9 28L11 28L11 29L9 29L9 30L10 30L10 32L9 32L9 31L8 31L8 32L7 32L7 31L4 31L4 30L2 30L2 32L3 32L3 33L6 33L6 34L4 34L4 35L5 35L5 36L7 36L7 35L8 35L8 37L6 37L6 38L8 38L8 39L9 39L9 40L10 40L10 41L8 41L8 40L7 40L7 39L6 39L6 40L7 40L7 41L8 41L8 42L10 42L10 43L9 43L9 44L10 44L10 45L11 45L11 44L12 44L12 43L11 43L11 42L10 42L10 41L11 41L11 40L12 40L12 41L13 41L13 42L15 42L15 43L14 43L14 44L13 44L13 45L12 45L12 46L13 46L13 47L15 47L15 48L13 48L13 49L12 49L12 50L11 50L11 49L10 49L10 51L9 51L9 53L10 53L10 51L12 51L12 53L11 53L11 54L10 54L10 55L12 55L12 54L15 54L15 53L17 53L17 52L18 52L18 51L22 51L22 49L23 49L23 48L22 48L22 47L24 47L24 49L26 49L26 48L27 48L27 47L26 47L26 46L28 46L28 48L29 48L29 47L30 47L30 48L31 48L31 49L32 49L32 47L33 47L33 48L34 48L34 50L32 50L32 51L31 51L31 52L32 52L32 51L34 51L34 52L33 52L33 53L32 53L32 54L33 54L33 55L34 55L34 54L35 54L35 53L34 53L34 52L36 52L36 49L35 49L35 48L34 48L34 47L35 47L35 45L34 45L34 47L33 47L33 45L32 45L32 43L33 43L33 44L35 44L35 43L33 43L33 41L32 41L32 40L33 40L33 39L31 39L31 38L33 38L33 37L32 37L32 36L31 36L31 35L32 35L32 34L33 34L33 35L34 35L34 42L35 42L35 39L37 39L37 42L38 42L38 39L40 39L40 41L39 41L39 42L40 42L40 43L39 43L39 44L37 44L37 43L36 43L36 44L37 44L37 45L36 45L36 48L37 48L37 46L38 46L38 45L39 45L39 44L40 44L40 51L39 51L39 52L40 52L40 53L44 53L44 52L41 52L41 43L42 43L42 44L43 44L43 45L44 45L44 44L45 44L45 45L46 45L46 47L47 47L47 49L46 49L46 48L45 48L45 49L46 49L46 50L47 50L47 49L48 49L48 47L49 47L49 46L50 46L50 47L51 47L51 45L52 45L52 47L53 47L53 48L55 48L55 47L54 47L54 45L55 45L55 44L56 44L56 43L55 43L55 42L56 42L56 41L55 41L55 42L54 42L54 43L53 43L53 41L52 41L52 43L51 43L51 45L49 45L49 46L47 46L47 45L48 45L48 44L47 44L47 43L46 43L46 42L45 42L45 41L43 41L43 40L41 40L41 39L40 39L40 38L38 38L38 37L37 37L37 38L35 38L35 35L34 35L34 34L35 34L35 33L34 33L34 32L35 32L35 31L36 31L36 30L35 30L35 28L37 28L37 29L38 29L38 28L37 28L37 27L39 27L39 28L40 28L40 29L39 29L39 30L40 30L40 31L39 31L39 32L40 32L40 33L39 33L39 34L38 34L38 33L37 33L37 34L38 34L38 36L39 36L39 37L44 37L44 38L43 38L43 39L45 39L45 37L46 37L46 38L47 38L47 39L49 39L49 37L48 37L48 35L49 35L49 33L48 33L48 31L47 31L47 30L48 30L48 28L47 28L47 27L48 27L48 26L47 26L47 25L49 25L49 26L50 26L50 25L49 25L49 24L48 24L48 23L50 23L50 24L51 24L51 23L50 23L50 22L47 22L47 21L46 21L46 20L45 20L45 21L46 21L46 24L45 24L45 22L44 22L44 16L45 16L45 17L46 17L46 16L47 16L47 17L48 17L48 15L50 15L50 16L51 16L51 15L50 15L50 11L52 11L52 10L50 10L50 11L49 11L49 12L47 12L47 9L46 9L46 16L45 16L45 13L44 13L44 12L45 12L45 11L44 11L44 12L41 12L41 10L40 10L40 9L39 9L39 8L38 8L38 9L35 9L35 7L36 7L36 5ZM39 5L39 7L40 7L40 6L41 6L41 5ZM28 6L28 7L29 7L29 6ZM37 6L37 7L38 7L38 6ZM48 6L48 7L49 7L49 6ZM23 7L23 8L24 8L24 7ZM33 7L33 8L32 8L32 11L33 11L33 10L34 10L34 12L35 12L35 14L36 14L36 13L37 13L37 12L39 12L39 11L40 11L40 10L39 10L39 9L38 9L38 10L39 10L39 11L37 11L37 12L36 12L36 10L34 10L34 9L33 9L33 8L34 8L34 7ZM10 8L10 9L9 9L9 10L12 10L12 9L11 9L11 8ZM4 9L4 10L5 10L5 9ZM22 9L22 10L23 10L23 11L24 11L24 12L25 12L25 13L23 13L23 12L22 12L22 11L19 11L19 12L18 12L18 13L17 13L17 14L15 14L15 13L12 13L12 15L13 15L13 16L14 16L14 17L15 17L15 19L16 19L16 16L17 16L17 17L20 17L20 19L21 19L21 20L20 20L20 21L19 21L19 20L17 20L17 21L15 21L15 20L14 20L14 19L12 19L12 18L13 18L13 17L12 17L12 18L11 18L11 19L9 19L9 21L11 21L11 22L10 22L10 23L11 23L11 24L9 24L9 25L11 25L11 26L14 26L14 27L15 27L15 26L16 26L16 24L15 24L15 25L14 25L14 24L12 24L12 23L11 23L11 22L13 22L13 21L14 21L14 23L16 23L16 22L17 22L17 21L19 21L19 23L20 23L20 22L21 22L21 21L22 21L22 19L24 19L24 18L25 18L25 17L20 17L20 15L19 15L19 12L20 12L20 14L21 14L21 15L22 15L22 16L24 16L24 15L22 15L22 14L21 14L21 13L23 13L23 14L25 14L25 16L26 16L26 17L28 17L28 18L30 18L30 19L31 19L31 20L30 20L30 21L28 21L28 19L27 19L27 20L26 20L26 19L25 19L25 20L24 20L24 21L23 21L23 22L22 22L22 23L21 23L21 25L20 25L20 24L18 24L18 23L17 23L17 25L20 25L20 27L22 27L22 28L25 28L25 29L23 29L23 30L22 30L22 29L21 29L21 28L20 28L20 30L22 30L22 31L20 31L20 32L21 32L21 33L20 33L20 35L21 35L21 36L18 36L18 35L19 35L19 34L18 34L18 35L16 35L16 36L15 36L15 34L16 34L16 33L15 33L15 31L16 31L16 32L17 32L17 33L19 33L19 32L18 32L18 31L17 31L17 30L15 30L15 31L14 31L14 30L13 30L13 32L14 32L14 37L16 37L16 36L17 36L17 38L16 38L16 39L15 39L15 38L13 38L13 41L14 41L14 39L15 39L15 40L17 40L17 41L20 41L20 42L21 42L21 41L22 41L22 40L23 40L23 42L26 42L26 41L27 41L27 43L25 43L25 44L24 44L24 45L23 45L23 44L22 44L22 43L21 43L21 45L20 45L20 43L19 43L19 44L18 44L18 45L17 45L17 46L16 46L16 44L15 44L15 46L16 46L16 48L17 48L17 51L18 51L18 50L19 50L19 49L20 49L20 50L21 50L21 49L22 49L22 48L19 48L19 47L20 47L20 46L21 46L21 47L22 47L22 46L21 46L21 45L23 45L23 46L26 46L26 45L29 45L29 46L32 46L32 45L29 45L29 44L27 44L27 43L28 43L28 41L29 41L29 42L31 42L31 43L32 43L32 41L30 41L30 40L31 40L31 39L29 39L29 38L28 38L28 39L27 39L27 38L26 38L26 36L27 36L27 37L28 37L28 36L29 36L29 37L31 37L31 36L30 36L30 34L31 34L31 33L29 33L29 31L30 31L30 32L32 32L32 33L33 33L33 34L34 34L34 33L33 33L33 32L32 32L32 31L34 31L34 27L33 27L33 26L34 26L34 25L37 25L37 24L34 24L34 23L35 23L35 22L37 22L37 20L39 20L39 21L38 21L38 22L39 22L39 21L40 21L40 22L41 22L41 23L42 23L42 25L40 25L40 24L39 24L39 25L38 25L38 26L39 26L39 27L40 27L40 28L41 28L41 27L42 27L42 28L43 28L43 29L40 29L40 30L41 30L41 31L40 31L40 32L41 32L41 33L40 33L40 34L42 34L42 35L41 35L41 36L42 36L42 35L43 35L43 33L45 33L45 35L44 35L44 37L45 37L45 35L46 35L46 33L47 33L47 31L46 31L46 30L45 30L45 27L47 27L47 26L46 26L46 25L47 25L47 24L46 24L46 25L45 25L45 24L44 24L44 26L43 26L43 23L44 23L44 22L43 22L43 20L42 20L42 21L40 21L40 18L41 18L41 19L42 19L42 18L43 18L43 17L42 17L42 15L43 15L43 16L44 16L44 15L43 15L43 14L44 14L44 13L41 13L41 17L40 17L40 13L38 13L38 15L39 15L39 17L38 17L38 16L37 16L37 15L35 15L35 17L38 17L38 18L39 18L39 19L37 19L37 18L34 18L34 13L33 13L33 12L32 12L32 13L33 13L33 14L31 14L31 13L30 13L30 15L32 15L32 17L31 17L31 16L29 16L29 13L26 13L26 11L27 11L27 12L28 12L28 11L27 11L27 10L25 10L25 9ZM47 13L47 14L49 14L49 13ZM10 14L10 15L11 15L11 14ZM17 14L17 15L18 15L18 16L19 16L19 15L18 15L18 14ZM27 14L27 15L26 15L26 16L27 16L27 15L28 15L28 14ZM52 14L52 15L53 15L53 16L52 16L52 17L53 17L53 16L55 16L55 14ZM14 15L14 16L15 16L15 15ZM32 17L32 19L33 19L33 17ZM39 17L39 18L40 18L40 17ZM3 18L3 19L4 19L4 18ZM11 19L11 20L12 20L12 19ZM35 19L35 20L34 20L34 22L30 22L30 25L31 25L31 31L32 31L32 28L33 28L33 27L32 27L32 23L34 23L34 22L35 22L35 20L36 20L36 19ZM31 20L31 21L32 21L32 20ZM49 20L49 21L51 21L51 22L52 22L52 26L53 26L53 25L56 25L56 24L55 24L55 23L53 23L53 22L52 22L52 21L51 21L51 20ZM7 21L7 22L5 22L5 24L4 24L4 25L7 25L7 24L6 24L6 23L8 23L8 21ZM24 21L24 22L25 22L25 23L26 23L26 22L28 22L28 23L27 23L27 24L28 24L28 25L27 25L27 26L28 26L28 25L29 25L29 24L28 24L28 23L29 23L29 22L28 22L28 21ZM42 22L42 23L43 23L43 22ZM23 23L23 24L22 24L22 25L21 25L21 26L22 26L22 25L24 25L24 23ZM33 24L33 25L34 25L34 24ZM25 25L25 26L23 26L23 27L26 27L26 25ZM18 26L18 27L16 27L16 28L12 28L12 27L11 27L11 28L12 28L12 29L11 29L11 32L10 32L10 34L9 34L9 33L8 33L8 35L9 35L9 36L10 36L10 37L11 37L11 36L12 36L12 37L13 37L13 36L12 36L12 35L13 35L13 34L12 34L12 33L11 33L11 32L12 32L12 29L18 29L18 30L19 30L19 29L18 29L18 28L19 28L19 26ZM36 26L36 27L37 27L37 26ZM40 26L40 27L41 27L41 26ZM44 26L44 27L45 27L45 26ZM0 27L0 28L1 28L1 27ZM5 27L5 30L8 30L8 27ZM27 27L27 30L30 30L30 27ZM49 27L49 30L52 30L52 27ZM3 28L3 29L4 29L4 28ZM6 28L6 29L7 29L7 28ZM28 28L28 29L29 29L29 28ZM46 28L46 29L47 29L47 28ZM50 28L50 29L51 29L51 28ZM25 29L25 30L26 30L26 29ZM43 29L43 31L44 31L44 29ZM37 30L37 32L38 32L38 30ZM53 30L53 31L52 31L52 32L53 32L53 31L54 31L54 33L51 33L51 32L50 32L50 31L49 31L49 32L50 32L50 35L53 35L53 36L55 36L55 35L53 35L53 34L54 34L54 33L55 33L55 34L56 34L56 33L55 33L55 30ZM22 31L22 33L21 33L21 34L23 34L23 33L25 33L25 32L26 32L26 34L24 34L24 36L25 36L25 35L26 35L26 34L27 34L27 36L28 36L28 34L29 34L29 33L28 33L28 34L27 34L27 32L26 32L26 31ZM6 32L6 33L7 33L7 32ZM45 32L45 33L46 33L46 32ZM6 34L6 35L7 35L7 34ZM47 34L47 35L48 35L48 34ZM22 35L22 38L21 38L21 37L19 37L19 38L17 38L17 39L18 39L18 40L19 40L19 39L20 39L20 38L21 38L21 40L22 40L22 39L24 39L24 41L25 41L25 40L27 40L27 41L28 41L28 40L27 40L27 39L26 39L26 38L24 38L24 37L23 37L23 35ZM39 35L39 36L40 36L40 35ZM47 37L47 38L48 38L48 37ZM9 38L9 39L10 39L10 38ZM11 38L11 39L12 39L12 38ZM2 39L2 40L3 40L3 39ZM15 41L15 42L16 42L16 43L18 43L18 42L16 42L16 41ZM40 41L40 42L43 42L43 41ZM10 43L10 44L11 44L11 43ZM43 43L43 44L44 44L44 43ZM49 43L49 44L50 44L50 43ZM52 43L52 45L54 45L54 44L53 44L53 43ZM46 44L46 45L47 45L47 44ZM4 45L4 46L3 46L3 47L5 47L5 45ZM6 45L6 46L7 46L7 45ZM13 45L13 46L14 46L14 45ZM19 45L19 46L20 46L20 45ZM1 46L1 47L2 47L2 46ZM10 46L10 47L11 47L11 46ZM38 47L38 49L37 49L37 51L38 51L38 49L39 49L39 47ZM6 48L6 49L7 49L7 48ZM13 49L13 51L14 51L14 49ZM15 49L15 52L16 52L16 49ZM27 49L27 52L30 52L30 49ZM49 49L49 52L52 52L52 49ZM55 49L55 50L56 50L56 49ZM28 50L28 51L29 51L29 50ZM42 50L42 51L43 51L43 50ZM50 50L50 51L51 51L51 50ZM25 51L25 52L26 52L26 51ZM13 52L13 53L14 53L14 52ZM19 52L19 53L20 53L20 52ZM21 52L21 53L24 53L24 52ZM37 52L37 53L38 53L38 52ZM30 53L30 54L31 54L31 53ZM33 53L33 54L34 54L34 53ZM49 53L49 54L51 54L51 55L52 55L52 54L51 54L51 53ZM46 55L46 56L48 56L48 55ZM20 56L20 57L22 57L22 56ZM56 56L56 57L57 57L57 56ZM0 0L0 7L7 7L7 0ZM1 1L1 6L6 6L6 1ZM2 2L2 5L5 5L5 2ZM50 0L50 7L57 7L57 0ZM51 1L51 6L56 6L56 1ZM52 2L52 5L55 5L55 2ZM0 50L0 57L7 57L7 50ZM1 51L1 56L6 56L6 51ZM2 52L2 55L5 55L5 52Z" fill="#000000"/></g></g></svg>
