<?xml version="1.0" encoding="UTF-8"?>
<svg xmlns="http://www.w3.org/2000/svg" version="1.1" width="300" height="300" viewBox="0 0 300 300"><rect x="0" y="0" width="300" height="300" fill="#fefefe"/><g transform="scale(4.615)"><g transform="translate(4,4)"><path fill-rule="evenodd" d="M9 0L9 1L8 1L8 2L9 2L9 3L8 3L8 4L10 4L10 5L11 5L11 6L10 6L10 7L11 7L11 10L10 10L10 11L11 11L11 10L12 10L12 7L13 7L13 6L14 6L14 7L15 7L15 9L17 9L17 10L18 10L18 11L16 11L16 10L13 10L13 11L14 11L14 12L13 12L13 13L12 13L12 12L10 12L10 13L9 13L9 14L8 14L8 15L7 15L7 14L6 14L6 13L8 13L8 11L9 11L9 8L6 8L6 9L8 9L8 10L4 10L4 9L5 9L5 8L0 8L0 11L1 11L1 13L0 13L0 15L1 15L1 16L0 16L0 18L1 18L1 20L0 20L0 22L1 22L1 20L2 20L2 23L0 23L0 24L1 24L1 25L0 25L0 26L2 26L2 27L1 27L1 28L0 28L0 29L1 29L1 30L2 30L2 32L1 32L1 31L0 31L0 32L1 32L1 33L2 33L2 32L3 32L3 33L5 33L5 32L6 32L6 33L7 33L7 32L8 32L8 33L11 33L11 34L4 34L4 35L3 35L3 36L4 36L4 37L2 37L2 38L4 38L4 39L3 39L3 40L2 40L2 39L1 39L1 38L0 38L0 40L1 40L1 41L0 41L0 42L1 42L1 41L4 41L4 42L5 42L5 44L3 44L3 43L0 43L0 44L2 44L2 45L5 45L5 47L3 47L3 46L2 46L2 47L1 47L1 46L0 46L0 48L5 48L5 47L7 47L7 48L6 48L6 49L7 49L7 48L8 48L8 51L9 51L9 52L8 52L8 57L9 57L9 54L11 54L11 55L10 55L10 57L11 57L11 55L12 55L12 57L13 57L13 55L14 55L14 54L15 54L15 55L16 55L16 56L14 56L14 57L16 57L16 56L17 56L17 57L19 57L19 56L18 56L18 55L20 55L20 54L18 54L18 55L17 55L17 53L20 53L20 52L21 52L21 50L25 50L25 51L26 51L26 53L25 53L25 52L24 52L24 53L21 53L21 56L23 56L23 57L26 57L26 56L24 56L24 55L23 55L23 54L24 54L24 53L25 53L25 55L26 55L26 54L30 54L30 53L31 53L31 50L32 50L32 52L33 52L33 53L32 53L32 54L31 54L31 56L30 56L30 55L29 55L29 56L27 56L27 57L29 57L29 56L30 56L30 57L31 57L31 56L35 56L35 57L39 57L39 56L41 56L41 57L44 57L44 56L41 56L41 54L42 54L42 55L44 55L44 54L45 54L45 57L47 57L47 56L48 56L48 57L49 57L49 56L50 56L50 57L52 57L52 55L51 55L51 53L52 53L52 54L55 54L55 52L56 52L56 53L57 53L57 52L56 52L56 51L54 51L54 50L57 50L57 48L56 48L56 46L57 46L57 45L56 45L56 44L55 44L55 43L56 43L56 41L55 41L55 39L57 39L57 37L55 37L55 36L57 36L57 35L56 35L56 34L55 34L55 33L54 33L54 34L55 34L55 35L53 35L53 34L52 34L52 33L53 33L53 32L56 32L56 33L57 33L57 32L56 32L56 30L57 30L57 29L56 29L56 28L57 28L57 27L56 27L56 26L57 26L57 25L56 25L56 22L57 22L57 21L56 21L56 20L57 20L57 19L56 19L56 18L57 18L57 17L56 17L56 16L57 16L57 15L56 15L56 14L57 14L57 11L56 11L56 10L54 10L54 11L52 11L52 10L53 10L53 9L54 9L54 8L53 8L53 9L52 9L52 8L51 8L51 11L50 11L50 12L49 12L49 13L47 13L47 14L45 14L45 13L44 13L44 12L43 12L43 13L41 13L41 14L45 14L45 15L47 15L47 18L46 18L46 16L45 16L45 18L44 18L44 15L42 15L42 16L41 16L41 15L39 15L39 14L38 14L38 13L40 13L40 12L41 12L41 10L42 10L42 11L45 11L45 12L47 12L47 10L48 10L48 11L49 11L49 10L50 10L50 8L49 8L49 6L48 6L48 7L47 7L47 5L48 5L48 0L46 0L46 1L47 1L47 2L44 2L44 3L42 3L42 2L43 2L43 0L41 0L41 1L40 1L40 0L39 0L39 1L38 1L38 0L37 0L37 1L38 1L38 2L37 2L37 3L36 3L36 0L35 0L35 1L33 1L33 0L29 0L29 2L27 2L27 1L26 1L26 0L23 0L23 1L22 1L22 0L21 0L21 1L20 1L20 0L17 0L17 2L15 2L15 1L14 1L14 0L13 0L13 1L11 1L11 2L12 2L12 3L13 3L13 4L14 4L14 2L15 2L15 3L18 3L18 4L17 4L17 5L18 5L18 4L19 4L19 5L20 5L20 7L19 7L19 6L18 6L18 7L19 7L19 8L16 8L16 7L17 7L17 6L16 6L16 7L15 7L15 5L16 5L16 4L15 4L15 5L13 5L13 6L12 6L12 5L11 5L11 3L10 3L10 2L9 2L9 1L10 1L10 0ZM13 1L13 2L14 2L14 1ZM18 1L18 2L20 2L20 1ZM30 1L30 2L31 2L31 3L30 3L30 4L31 4L31 8L32 8L32 10L31 10L31 11L30 11L30 10L29 10L29 12L28 12L28 13L27 13L27 15L26 15L26 16L24 16L24 15L20 15L20 14L21 14L21 13L22 13L22 14L23 14L23 13L22 13L22 12L21 12L21 11L22 11L22 10L23 10L23 11L24 11L24 13L26 13L26 12L27 12L27 11L26 11L26 12L25 12L25 10L23 10L23 9L25 9L25 8L26 8L26 4L29 4L29 3L27 3L27 2L23 2L23 3L19 3L19 4L21 4L21 5L24 5L24 4L23 4L23 3L26 3L26 4L25 4L25 8L24 8L24 6L23 6L23 8L20 8L20 12L19 12L19 13L20 13L20 14L17 14L17 13L18 13L18 12L17 12L17 13L16 13L16 11L15 11L15 13L13 13L13 14L12 14L12 13L11 13L11 14L12 14L12 16L11 16L11 15L9 15L9 16L10 16L10 18L8 18L8 16L7 16L7 15L6 15L6 14L5 14L5 15L4 15L4 13L5 13L5 12L7 12L7 11L4 11L4 10L3 10L3 9L2 9L2 10L3 10L3 12L4 12L4 13L1 13L1 14L3 14L3 15L2 15L2 17L1 17L1 18L3 18L3 19L2 19L2 20L3 20L3 21L4 21L4 18L5 18L5 17L3 17L3 16L7 16L7 17L6 17L6 18L8 18L8 19L6 19L6 20L5 20L5 21L6 21L6 22L5 22L5 23L4 23L4 22L3 22L3 24L4 24L4 25L5 25L5 23L6 23L6 24L10 24L10 26L9 26L9 27L10 27L10 26L14 26L14 28L15 28L15 29L14 29L14 30L15 30L15 29L16 29L16 30L18 30L18 29L19 29L19 26L20 26L20 28L22 28L22 29L20 29L20 31L17 31L17 32L21 32L21 33L20 33L20 34L19 34L19 35L18 35L18 33L16 33L16 32L15 32L15 31L12 31L12 30L13 30L13 29L12 29L12 30L10 30L10 28L9 28L9 30L10 30L10 32L11 32L11 31L12 31L12 34L11 34L11 35L12 35L12 36L13 36L13 35L14 35L14 36L15 36L15 37L12 37L12 38L11 38L11 36L9 36L9 35L8 35L8 36L7 36L7 35L5 35L5 36L7 36L7 37L6 37L6 38L5 38L5 37L4 37L4 38L5 38L5 42L7 42L7 41L6 41L6 40L8 40L8 43L6 43L6 44L5 44L5 45L6 45L6 46L8 46L8 47L9 47L9 50L11 50L11 51L13 51L13 50L16 50L16 51L14 51L14 52L9 52L9 53L11 53L11 54L12 54L12 55L13 55L13 53L15 53L15 54L16 54L16 53L17 53L17 45L18 45L18 44L17 44L17 45L16 45L16 43L15 43L15 42L17 42L17 43L18 43L18 42L19 42L19 43L20 43L20 46L18 46L18 48L19 48L19 49L20 49L20 50L18 50L18 51L19 51L19 52L20 52L20 50L21 50L21 49L23 49L23 48L24 48L24 49L25 49L25 50L26 50L26 49L25 49L25 47L26 47L26 48L30 48L30 47L26 47L26 45L27 45L27 46L29 46L29 45L27 45L27 44L28 44L28 43L29 43L29 41L27 41L27 39L28 39L28 40L32 40L32 41L31 41L31 42L32 42L32 43L33 43L33 44L30 44L30 45L32 45L32 46L31 46L31 47L32 47L32 46L35 46L35 48L34 48L34 47L33 47L33 48L31 48L31 49L33 49L33 50L36 50L36 52L37 52L37 53L38 53L38 54L37 54L37 56L39 56L39 55L38 55L38 54L40 54L40 53L41 53L41 52L42 52L42 53L43 53L43 54L44 54L44 53L45 53L45 54L46 54L46 56L47 56L47 53L48 53L48 50L47 50L47 49L48 49L48 48L49 48L49 47L48 47L48 44L50 44L50 45L49 45L49 46L50 46L50 47L51 47L51 48L53 48L53 47L51 47L51 46L54 46L54 47L55 47L55 46L56 46L56 45L55 45L55 44L54 44L54 45L51 45L51 44L53 44L53 43L54 43L54 42L53 42L53 41L54 41L54 40L53 40L53 41L51 41L51 42L50 42L50 43L49 43L49 42L48 42L48 41L49 41L49 39L52 39L52 38L53 38L53 35L52 35L52 34L50 34L50 32L49 32L49 31L48 31L48 27L47 27L47 24L49 24L49 23L50 23L50 24L51 24L51 25L50 25L50 26L51 26L51 25L52 25L52 26L53 26L53 27L54 27L54 26L53 26L53 23L55 23L55 22L56 22L56 21L55 21L55 20L56 20L56 19L55 19L55 20L53 20L53 19L52 19L52 18L56 18L56 17L53 17L53 15L50 15L50 14L51 14L51 12L50 12L50 14L49 14L49 15L48 15L48 16L49 16L49 15L50 15L50 16L51 16L51 17L50 17L50 19L52 19L52 20L51 20L51 21L49 21L49 22L47 22L47 20L49 20L49 18L47 18L47 20L44 20L44 18L43 18L43 19L42 19L42 18L41 18L41 20L39 20L39 21L38 21L38 20L37 20L37 19L39 19L39 17L41 17L41 16L39 16L39 15L38 15L38 14L37 14L37 13L36 13L36 14L37 14L37 15L35 15L35 16L33 16L33 15L32 15L32 14L35 14L35 12L36 12L36 10L37 10L37 11L39 11L39 12L40 12L40 11L39 11L39 9L42 9L42 8L41 8L41 7L42 7L42 6L43 6L43 7L44 7L44 9L46 9L46 10L45 10L45 11L46 11L46 10L47 10L47 9L49 9L49 8L45 8L45 7L46 7L46 5L47 5L47 3L44 3L44 6L43 6L43 5L40 5L40 4L41 4L41 3L39 3L39 2L38 2L38 5L37 5L37 4L36 4L36 5L35 5L35 3L32 3L32 2L33 2L33 1L32 1L32 2L31 2L31 1ZM31 3L31 4L32 4L32 5L33 5L33 4L32 4L32 3ZM45 4L45 5L46 5L46 4ZM8 5L8 7L9 7L9 5ZM27 5L27 8L30 8L30 5ZM34 5L34 7L33 7L33 6L32 6L32 7L33 7L33 9L34 9L34 8L35 8L35 9L37 9L37 10L38 10L38 9L39 9L39 6L40 6L40 7L41 7L41 6L40 6L40 5L39 5L39 6L38 6L38 9L37 9L37 8L35 8L35 5ZM36 5L36 7L37 7L37 5ZM11 6L11 7L12 7L12 6ZM21 6L21 7L22 7L22 6ZM28 6L28 7L29 7L29 6ZM44 6L44 7L45 7L45 6ZM13 8L13 9L14 9L14 8ZM55 8L55 9L56 9L56 8ZM21 9L21 10L22 10L22 9ZM32 10L32 11L31 11L31 13L30 13L30 14L29 14L29 13L28 13L28 14L29 14L29 16L28 16L28 15L27 15L27 16L26 16L26 18L25 18L25 17L22 17L22 16L21 16L21 17L22 17L22 18L21 18L21 21L22 21L22 22L21 22L21 23L23 23L23 24L24 24L24 25L22 25L22 26L21 26L21 27L22 27L22 26L23 26L23 27L24 27L24 26L26 26L26 27L25 27L25 28L26 28L26 29L23 29L23 31L21 31L21 32L23 32L23 31L24 31L24 32L25 32L25 33L23 33L23 34L24 34L24 36L23 36L23 37L24 37L24 38L21 38L21 37L19 37L19 36L22 36L22 35L19 35L19 36L17 36L17 37L19 37L19 38L18 38L18 39L17 39L17 40L16 40L16 39L15 39L15 40L16 40L16 41L17 41L17 42L18 42L18 41L19 41L19 42L20 42L20 40L23 40L23 39L24 39L24 40L25 40L25 37L27 37L27 38L26 38L26 39L27 39L27 38L28 38L28 37L27 37L27 36L26 36L26 35L27 35L27 33L26 33L26 32L27 32L27 31L28 31L28 33L29 33L29 34L30 34L30 36L29 36L29 37L31 37L31 38L29 38L29 39L33 39L33 40L35 40L35 42L37 42L37 43L34 43L34 42L33 42L33 41L32 41L32 42L33 42L33 43L34 43L34 45L36 45L36 46L37 46L37 47L36 47L36 48L35 48L35 49L36 49L36 50L38 50L38 51L40 51L40 52L41 52L41 50L42 50L42 51L43 51L43 53L44 53L44 52L45 52L45 51L43 51L43 49L44 49L44 48L43 48L43 47L44 47L44 46L43 46L43 45L44 45L44 44L43 44L43 42L44 42L44 43L45 43L45 42L46 42L46 44L45 44L45 45L47 45L47 43L48 43L48 42L46 42L46 41L45 41L45 42L44 42L44 41L43 41L43 40L45 40L45 39L46 39L46 40L47 40L47 39L48 39L48 38L50 38L50 36L51 36L51 37L52 37L52 35L50 35L50 34L48 34L48 35L47 35L47 36L48 36L48 37L47 37L47 39L46 39L46 38L45 38L45 37L44 37L44 36L46 36L46 34L45 34L45 35L44 35L44 33L43 33L43 32L45 32L45 33L46 33L46 31L47 31L47 32L48 32L48 33L49 33L49 32L48 32L48 31L47 31L47 30L46 30L46 29L47 29L47 27L46 27L46 26L45 26L45 25L46 25L46 24L45 24L45 25L44 25L44 24L43 24L43 25L39 25L39 24L41 24L41 22L42 22L42 23L44 23L44 20L43 20L43 21L39 21L39 22L37 22L37 20L36 20L36 19L35 19L35 20L34 20L34 21L35 21L35 23L34 23L34 22L33 22L33 23L32 23L32 24L31 24L31 21L32 21L32 20L33 20L33 18L32 18L32 15L30 15L30 14L32 14L32 11L33 11L33 10ZM55 11L55 12L54 12L54 15L55 15L55 14L56 14L56 11ZM33 12L33 13L34 13L34 12ZM52 12L52 13L53 13L53 12ZM15 13L15 14L13 14L13 17L12 17L12 21L13 21L13 22L14 22L14 23L12 23L12 22L11 22L11 25L13 25L13 24L14 24L14 25L17 25L17 26L15 26L15 28L16 28L16 29L18 29L18 28L17 28L17 27L18 27L18 26L19 26L19 25L21 25L21 24L19 24L19 23L20 23L20 22L19 22L19 21L20 21L20 20L18 20L18 19L19 19L19 18L20 18L20 17L19 17L19 15L18 15L18 16L17 16L17 18L18 18L18 19L15 19L15 21L16 21L16 22L14 22L14 21L13 21L13 20L14 20L14 19L13 19L13 17L14 17L14 15L15 15L15 17L16 17L16 13ZM27 16L27 17L28 17L28 16ZM35 16L35 17L37 17L37 18L38 18L38 17L39 17L39 16L38 16L38 17L37 17L37 16ZM42 16L42 17L43 17L43 16ZM10 18L10 19L8 19L8 23L10 23L10 22L9 22L9 20L11 20L11 18ZM23 18L23 19L24 19L24 18ZM26 18L26 20L25 20L25 21L24 21L24 20L22 20L22 21L24 21L24 22L23 22L23 23L24 23L24 24L25 24L25 25L26 25L26 26L27 26L27 25L31 25L31 24L29 24L29 23L27 23L27 24L25 24L25 23L26 23L26 22L25 22L25 21L30 21L30 20L31 20L31 19L32 19L32 18L30 18L30 19L28 19L28 18ZM45 18L45 19L46 19L46 18ZM27 19L27 20L28 20L28 19ZM6 20L6 21L7 21L7 20ZM16 20L16 21L17 21L17 20ZM45 21L45 22L46 22L46 23L47 23L47 22L46 22L46 21ZM51 21L51 22L50 22L50 23L53 23L53 22L54 22L54 21ZM6 22L6 23L7 23L7 22ZM39 22L39 23L37 23L37 24L39 24L39 23L40 23L40 22ZM14 23L14 24L16 24L16 23ZM17 23L17 24L18 24L18 23ZM32 24L32 26L31 26L31 27L32 27L32 29L33 29L33 30L31 30L31 31L29 31L29 33L31 33L31 35L33 35L33 36L32 36L32 37L33 37L33 39L34 39L34 38L35 38L35 36L37 36L37 37L38 37L38 39L35 39L35 40L38 40L38 42L39 42L39 41L41 41L41 40L43 40L43 39L45 39L45 38L44 38L44 37L43 37L43 36L44 36L44 35L43 35L43 34L42 34L42 36L40 36L40 37L38 37L38 36L39 36L39 35L40 35L40 34L39 34L39 33L41 33L41 32L43 32L43 31L45 31L45 28L46 28L46 27L45 27L45 26L39 26L39 25L38 25L38 26L37 26L37 25L33 25L33 24ZM6 25L6 26L8 26L8 25ZM55 25L55 26L56 26L56 25ZM3 26L3 27L2 27L2 28L3 28L3 27L4 27L4 26ZM32 26L32 27L33 27L33 28L35 28L35 30L33 30L33 32L35 32L35 34L33 34L33 35L34 35L34 36L35 36L35 34L37 34L37 35L38 35L38 33L37 33L37 32L35 32L35 30L37 30L37 29L38 29L38 28L40 28L40 27L36 27L36 26L34 26L34 27L33 27L33 26ZM5 27L5 30L8 30L8 27ZM11 27L11 28L13 28L13 27ZM27 27L27 30L30 30L30 27ZM41 27L41 28L42 28L42 27ZM43 27L43 28L45 28L45 27ZM49 27L49 30L52 30L52 27ZM55 27L55 28L54 28L54 29L55 29L55 28L56 28L56 27ZM6 28L6 29L7 29L7 28ZM28 28L28 29L29 29L29 28ZM50 28L50 29L51 29L51 28ZM2 29L2 30L3 30L3 29ZM39 29L39 30L38 30L38 32L39 32L39 31L41 31L41 30L44 30L44 29ZM53 30L53 31L54 31L54 30ZM3 31L3 32L4 32L4 31ZM6 31L6 32L7 32L7 31ZM8 31L8 32L9 32L9 31ZM25 31L25 32L26 32L26 31ZM31 31L31 33L32 33L32 31ZM51 31L51 33L52 33L52 31ZM13 32L13 33L15 33L15 34L14 34L14 35L15 35L15 34L16 34L16 33L15 33L15 32ZM21 33L21 34L22 34L22 33ZM25 33L25 34L26 34L26 33ZM0 34L0 35L1 35L1 34ZM12 34L12 35L13 35L13 34ZM48 35L48 36L50 36L50 35ZM0 36L0 37L1 37L1 36ZM8 36L8 37L9 37L9 38L8 38L8 40L9 40L9 42L10 42L10 43L9 43L9 45L8 45L8 46L10 46L10 44L11 44L11 40L12 40L12 41L13 41L13 42L12 42L12 44L13 44L13 43L14 43L14 42L15 42L15 41L14 41L14 38L13 38L13 40L12 40L12 39L11 39L11 40L10 40L10 39L9 39L9 38L10 38L10 37L9 37L9 36ZM15 37L15 38L16 38L16 37ZM40 37L40 38L43 38L43 37ZM6 38L6 39L7 39L7 38ZM19 38L19 39L20 39L20 38ZM54 38L54 39L55 39L55 38ZM38 39L38 40L39 40L39 39ZM17 40L17 41L18 41L18 40ZM23 41L23 42L22 42L22 43L21 43L21 44L22 44L22 45L21 45L21 46L20 46L20 49L21 49L21 47L25 47L25 45L24 45L24 44L27 44L27 43L24 43L24 44L23 44L23 42L25 42L25 41ZM26 41L26 42L27 42L27 41ZM51 42L51 43L50 43L50 44L51 44L51 43L53 43L53 42ZM41 43L41 44L39 44L39 45L38 45L38 46L39 46L39 47L38 47L38 48L37 48L37 49L38 49L38 50L41 50L41 48L42 48L42 49L43 49L43 48L42 48L42 47L43 47L43 46L41 46L41 48L39 48L39 47L40 47L40 46L39 46L39 45L41 45L41 44L42 44L42 43ZM6 44L6 45L7 45L7 44ZM11 45L11 46L12 46L12 47L13 47L13 45ZM14 45L14 46L15 46L15 47L14 47L14 49L16 49L16 48L15 48L15 47L16 47L16 46L15 46L15 45ZM22 45L22 46L23 46L23 45ZM45 46L45 47L46 47L46 48L48 48L48 47L47 47L47 46ZM10 47L10 48L11 48L11 50L12 50L12 48L11 48L11 47ZM38 48L38 49L39 49L39 48ZM55 48L55 49L56 49L56 48ZM27 49L27 52L30 52L30 49ZM45 49L45 50L46 50L46 52L47 52L47 50L46 50L46 49ZM49 49L49 52L52 52L52 49ZM28 50L28 51L29 51L29 50ZM50 50L50 51L51 51L51 50ZM22 51L22 52L23 52L23 51ZM15 52L15 53L16 53L16 52ZM38 52L38 53L39 53L39 52ZM53 52L53 53L54 53L54 52ZM33 53L33 55L35 55L35 56L36 56L36 54L35 54L35 53ZM50 55L50 56L51 56L51 55ZM53 55L53 56L55 56L55 57L56 57L56 56L55 56L55 55ZM0 0L0 7L7 7L7 0ZM1 1L1 6L6 6L6 1ZM2 2L2 5L5 5L5 2ZM50 0L50 7L57 7L57 0ZM51 1L51 6L56 6L56 1ZM52 2L52 5L55 5L55 2ZM0 50L0 57L7 57L7 50ZM1 51L1 56L6 56L6 51ZM2 52L2 55L5 55L5 52Z" fill="#000000"/></g></g></svg>
