<?xml version="1.0" encoding="UTF-8"?>
<svg xmlns="http://www.w3.org/2000/svg" version="1.1" width="300" height="300" viewBox="0 0 300 300"><rect x="0" y="0" width="300" height="300" fill="#fefefe"/><g transform="scale(4.615)"><g transform="translate(4,4)"><path fill-rule="evenodd" d="M8 0L8 1L9 1L9 2L8 2L8 5L9 5L9 3L10 3L10 1L11 1L11 2L12 2L12 3L13 3L13 4L14 4L14 5L15 5L15 6L14 6L14 8L15 8L15 11L14 11L14 10L13 10L13 6L12 6L12 8L11 8L11 6L10 6L10 9L9 9L9 8L8 8L8 9L9 9L9 10L10 10L10 11L8 11L8 10L6 10L6 11L5 11L5 12L4 12L4 8L0 8L0 10L1 10L1 9L2 9L2 12L1 12L1 14L0 14L0 19L2 19L2 20L1 20L1 21L3 21L3 22L2 22L2 23L1 23L1 24L0 24L0 29L1 29L1 30L3 30L3 29L4 29L4 31L3 31L3 33L7 33L7 34L5 34L5 35L4 35L4 34L2 34L2 35L0 35L0 37L1 37L1 36L3 36L3 35L4 35L4 36L5 36L5 35L9 35L9 36L11 36L11 38L13 38L13 39L10 39L10 37L9 37L9 38L8 38L8 37L7 37L7 36L6 36L6 37L5 37L5 38L4 38L4 39L3 39L3 40L2 40L2 42L0 42L0 43L1 43L1 44L0 44L0 48L5 48L5 47L7 47L7 48L6 48L6 49L7 49L7 48L8 48L8 50L9 50L9 49L10 49L10 51L11 51L11 52L9 52L9 53L8 53L8 57L11 57L11 56L13 56L13 55L12 55L12 54L14 54L14 56L16 56L16 57L18 57L18 56L19 56L19 55L20 55L20 57L21 57L21 55L20 55L20 53L21 53L21 54L22 54L22 57L23 57L23 54L25 54L25 55L24 55L24 56L28 56L28 55L27 55L27 54L26 54L26 53L29 53L29 54L31 54L31 55L30 55L30 56L31 56L31 57L32 57L32 55L34 55L34 56L33 56L33 57L36 57L36 55L38 55L38 57L41 57L41 55L42 55L42 57L43 57L43 55L44 55L44 56L45 56L45 55L44 55L44 54L47 54L47 55L49 55L49 56L48 56L48 57L51 57L51 54L52 54L52 53L54 53L54 52L55 52L55 50L53 50L53 49L55 49L55 48L54 48L54 47L53 47L53 46L55 46L55 47L57 47L57 45L56 45L56 46L55 46L55 44L56 44L56 42L54 42L54 40L55 40L55 39L53 39L53 38L52 38L52 36L53 36L53 37L55 37L55 38L56 38L56 39L57 39L57 38L56 38L56 37L57 37L57 31L56 31L56 30L57 30L57 28L56 28L56 27L53 27L53 26L52 26L52 25L49 25L49 26L48 26L48 32L49 32L49 33L50 33L50 34L46 34L46 35L48 35L48 36L51 36L51 38L52 38L52 39L50 39L50 40L47 40L47 39L48 39L48 38L49 38L49 37L48 37L48 38L46 38L46 36L45 36L45 34L44 34L44 30L43 30L43 31L41 31L41 32L40 32L40 31L39 31L39 30L40 30L40 28L39 28L39 27L40 27L40 25L38 25L38 24L40 24L40 23L41 23L41 22L43 22L43 23L42 23L42 24L41 24L41 25L42 25L42 24L43 24L43 25L44 25L44 26L41 26L41 30L42 30L42 29L43 29L43 28L44 28L44 29L45 29L45 26L46 26L46 30L45 30L45 31L46 31L46 33L47 33L47 26L46 26L46 25L47 25L47 24L49 24L49 21L47 21L47 18L48 18L48 19L49 19L49 20L50 20L50 21L51 21L51 22L52 22L52 23L53 23L53 25L55 25L55 26L56 26L56 24L54 24L54 23L57 23L57 21L56 21L56 18L57 18L57 15L55 15L55 14L53 14L53 13L54 13L54 10L53 10L53 13L52 13L52 12L51 12L51 11L52 11L52 10L50 10L50 8L49 8L49 9L48 9L48 8L45 8L45 6L44 6L44 7L43 7L43 5L45 5L45 4L44 4L44 3L45 3L45 1L47 1L47 2L46 2L46 3L47 3L47 5L46 5L46 7L47 7L47 5L48 5L48 0L45 0L45 1L44 1L44 2L42 2L42 3L41 3L41 4L37 4L37 1L38 1L38 0L37 0L37 1L36 1L36 0L35 0L35 1L34 1L34 3L35 3L35 4L36 4L36 5L40 5L40 7L41 7L41 6L42 6L42 7L43 7L43 8L45 8L45 9L44 9L44 10L45 10L45 11L48 11L48 12L49 12L49 16L50 16L50 17L52 17L52 15L51 15L51 13L52 13L52 14L53 14L53 17L54 17L54 18L52 18L52 19L55 19L55 20L54 20L54 21L53 21L53 20L50 20L50 18L48 18L48 14L47 14L47 15L45 15L45 16L44 16L44 14L46 14L46 13L44 13L44 12L43 12L43 9L41 9L41 8L38 8L38 7L39 7L39 6L38 6L38 7L37 7L37 6L36 6L36 7L35 7L35 6L34 6L34 4L33 4L33 6L32 6L32 5L31 5L31 4L32 4L32 3L33 3L33 2L31 2L31 3L30 3L30 1L31 1L31 0L29 0L29 3L30 3L30 4L28 4L28 1L27 1L27 4L26 4L26 0L23 0L23 1L25 1L25 2L24 2L24 3L23 3L23 2L22 2L22 0L21 0L21 3L23 3L23 5L22 5L22 8L21 8L21 10L20 10L20 9L19 9L19 10L20 10L20 11L19 11L19 12L18 12L18 10L17 10L17 11L16 11L16 8L15 8L15 6L16 6L16 7L17 7L17 9L18 9L18 8L20 8L20 7L21 7L21 5L20 5L20 4L19 4L19 2L18 2L18 0L17 0L17 2L18 2L18 3L17 3L17 5L15 5L15 4L14 4L14 3L13 3L13 1L12 1L12 0L10 0L10 1L9 1L9 0ZM14 0L14 1L15 1L15 2L16 2L16 1L15 1L15 0ZM19 0L19 1L20 1L20 0ZM39 0L39 1L40 1L40 2L41 2L41 1L43 1L43 0L41 0L41 1L40 1L40 0ZM35 1L35 2L36 2L36 1ZM38 2L38 3L39 3L39 2ZM10 4L10 5L12 5L12 4ZM18 4L18 5L17 5L17 7L18 7L18 5L19 5L19 4ZM24 4L24 6L23 6L23 7L24 7L24 8L25 8L25 9L26 9L26 6L25 6L25 5L26 5L26 4ZM41 4L41 5L43 5L43 4ZM27 5L27 8L30 8L30 5ZM8 6L8 7L9 7L9 6ZM19 6L19 7L20 7L20 6ZM24 6L24 7L25 7L25 6ZM28 6L28 7L29 7L29 6ZM31 6L31 9L32 9L32 10L31 10L31 12L30 12L30 11L29 11L29 9L28 9L28 10L26 10L26 11L25 11L25 13L22 13L22 12L23 12L23 11L21 11L21 14L19 14L19 13L20 13L20 12L19 12L19 13L18 13L18 12L17 12L17 13L16 13L16 11L15 11L15 15L14 15L14 13L13 13L13 15L12 15L12 18L10 18L10 19L9 19L9 18L8 18L8 17L6 17L6 16L8 16L8 14L9 14L9 16L10 16L10 17L11 17L11 15L10 15L10 14L12 14L12 11L13 11L13 10L12 10L12 9L10 9L10 10L12 10L12 11L10 11L10 14L9 14L9 13L8 13L8 12L7 12L7 11L6 11L6 12L5 12L5 13L6 13L6 14L7 14L7 15L3 15L3 14L4 14L4 13L3 13L3 14L1 14L1 15L2 15L2 16L4 16L4 17L5 17L5 19L4 19L4 20L3 20L3 21L5 21L5 20L8 20L8 22L7 22L7 21L6 21L6 22L7 22L7 23L6 23L6 24L8 24L8 25L9 25L9 24L10 24L10 25L11 25L11 26L13 26L13 27L15 27L15 28L13 28L13 29L12 29L12 30L11 30L11 32L10 32L10 30L9 30L9 33L8 33L8 34L9 34L9 35L10 35L10 34L9 34L9 33L11 33L11 36L12 36L12 33L11 33L11 32L12 32L12 30L13 30L13 33L15 33L15 34L13 34L13 35L14 35L14 36L15 36L15 38L14 38L14 37L13 37L13 38L14 38L14 39L13 39L13 40L11 40L11 43L10 43L10 44L9 44L9 43L8 43L8 42L7 42L7 41L4 41L4 43L3 43L3 42L2 42L2 44L1 44L1 45L4 45L4 46L3 46L3 47L5 47L5 45L4 45L4 43L5 43L5 44L7 44L7 45L6 45L6 46L7 46L7 47L9 47L9 48L10 48L10 44L11 44L11 43L12 43L12 45L11 45L11 47L12 47L12 45L13 45L13 44L14 44L14 46L13 46L13 48L12 48L12 49L11 49L11 51L12 51L12 49L14 49L14 50L13 50L13 52L12 52L12 53L10 53L10 54L9 54L9 55L10 55L10 54L12 54L12 53L13 53L13 52L14 52L14 53L16 53L16 54L17 54L17 55L18 55L18 53L19 53L19 52L17 52L17 51L18 51L18 50L17 50L17 48L18 48L18 47L20 47L20 48L19 48L19 49L21 49L21 51L22 51L22 49L23 49L23 52L21 52L21 53L22 53L22 54L23 54L23 52L24 52L24 53L25 53L25 52L26 52L26 50L25 50L25 49L26 49L26 48L27 48L27 46L28 46L28 47L29 47L29 48L32 48L32 49L31 49L31 50L32 50L32 49L33 49L33 48L37 48L37 49L36 49L36 50L37 50L37 49L38 49L38 48L39 48L39 49L40 49L40 50L39 50L39 51L36 51L36 52L35 52L35 49L34 49L34 50L33 50L33 51L34 51L34 52L33 52L33 53L34 53L34 52L35 52L35 53L36 53L36 54L34 54L34 55L36 55L36 54L39 54L39 53L37 53L37 52L40 52L40 54L41 54L41 52L43 52L43 51L46 51L46 50L47 50L47 52L46 52L46 53L47 53L47 54L50 54L50 53L47 53L47 52L48 52L48 48L46 48L46 50L43 50L43 47L40 47L40 46L41 46L41 45L38 45L38 44L39 44L39 43L40 43L40 44L41 44L41 43L42 43L42 45L45 45L45 47L44 47L44 49L45 49L45 47L46 47L46 46L48 46L48 47L49 47L49 48L50 48L50 45L49 45L49 44L51 44L51 42L50 42L50 41L52 41L52 40L50 40L50 41L47 41L47 40L46 40L46 39L45 39L45 36L44 36L44 37L43 37L43 35L42 35L42 34L41 34L41 35L39 35L39 36L40 36L40 37L41 37L41 39L40 39L40 41L42 41L42 42L41 42L41 43L40 43L40 42L39 42L39 41L37 41L37 40L38 40L38 39L39 39L39 38L37 38L37 37L38 37L38 36L37 36L37 37L35 37L35 36L36 36L36 35L33 35L33 36L32 36L32 35L31 35L31 34L30 34L30 35L29 35L29 33L30 33L30 31L29 31L29 32L28 32L28 33L27 33L27 31L25 31L25 30L26 30L26 28L23 28L23 27L22 27L22 26L21 26L21 27L20 27L20 28L19 28L19 27L17 27L17 26L19 26L19 25L20 25L20 24L21 24L21 23L20 23L20 24L19 24L19 23L18 23L18 22L23 22L23 21L24 21L24 22L25 22L25 25L24 25L24 24L22 24L22 25L23 25L23 26L25 26L25 25L27 25L27 24L26 24L26 23L27 23L27 22L28 22L28 26L31 26L31 23L32 23L32 22L34 22L34 23L33 23L33 24L32 24L32 25L33 25L33 24L35 24L35 23L36 23L36 24L37 24L37 23L39 23L39 21L38 21L38 22L35 22L35 20L36 20L36 21L37 21L37 20L40 20L40 19L39 19L39 18L41 18L41 19L42 19L42 18L43 18L43 21L44 21L44 22L47 22L47 21L45 21L45 20L46 20L46 19L44 19L44 18L45 18L45 17L46 17L46 16L45 16L45 17L42 17L42 14L44 14L44 13L43 13L43 12L42 12L42 11L40 11L40 10L41 10L41 9L40 9L40 10L39 10L39 9L38 9L38 11L37 11L37 8L36 8L36 9L34 9L34 6L33 6L33 8L32 8L32 6ZM48 6L48 7L49 7L49 6ZM6 8L6 9L7 9L7 8ZM52 8L52 9L55 9L55 8ZM56 8L56 9L57 9L57 8ZM22 9L22 10L24 10L24 9ZM45 9L45 10L47 10L47 9ZM33 10L33 14L30 14L30 13L28 13L28 12L26 12L26 14L27 14L27 17L25 17L25 16L26 16L26 15L24 15L24 14L23 14L23 15L24 15L24 16L23 16L23 18L22 18L22 17L21 17L21 15L20 15L20 16L19 16L19 17L18 17L18 18L17 18L17 16L16 16L16 15L17 15L17 14L16 14L16 15L15 15L15 16L14 16L14 15L13 15L13 18L14 18L14 17L15 17L15 19L12 19L12 20L13 20L13 22L12 22L12 21L11 21L11 19L10 19L10 21L9 21L9 22L10 22L10 21L11 21L11 22L12 22L12 24L11 24L11 23L10 23L10 24L11 24L11 25L13 25L13 26L15 26L15 27L16 27L16 25L14 25L14 24L13 24L13 23L14 23L14 20L15 20L15 19L20 19L20 20L21 20L21 21L23 21L23 18L24 18L24 19L25 19L25 20L27 20L27 21L25 21L25 22L27 22L27 21L28 21L28 22L29 22L29 23L30 23L30 22L31 22L31 20L32 20L32 19L30 19L30 17L29 17L29 16L31 16L31 17L32 17L32 18L35 18L35 17L34 17L34 16L35 16L35 15L33 15L33 14L34 14L34 12L35 12L35 14L37 14L37 15L39 15L39 17L40 17L40 16L41 16L41 13L40 13L40 15L39 15L39 11L38 11L38 12L36 12L36 10L35 10L35 11L34 11L34 10ZM49 10L49 11L50 11L50 10ZM55 10L55 12L56 12L56 13L57 13L57 10ZM6 12L6 13L7 13L7 12ZM31 12L31 13L32 13L32 12ZM50 12L50 13L51 13L51 12ZM18 14L18 15L19 15L19 14ZM28 15L28 16L29 16L29 15ZM32 15L32 16L33 16L33 15ZM50 15L50 16L51 16L51 15ZM15 16L15 17L16 17L16 16ZM2 17L2 19L3 19L3 17ZM19 17L19 18L20 18L20 19L21 19L21 20L22 20L22 19L21 19L21 17ZM24 17L24 18L25 18L25 19L27 19L27 20L29 20L29 21L30 21L30 20L29 20L29 19L28 19L28 18L29 18L29 17L27 17L27 18L25 18L25 17ZM36 17L36 18L37 18L37 17ZM41 17L41 18L42 18L42 17ZM55 17L55 18L56 18L56 17ZM6 18L6 19L8 19L8 20L9 20L9 19L8 19L8 18ZM33 19L33 21L34 21L34 19ZM36 19L36 20L37 20L37 19ZM16 20L16 23L15 23L15 24L16 24L16 23L17 23L17 25L19 25L19 24L18 24L18 23L17 23L17 22L18 22L18 20ZM41 20L41 21L42 21L42 20ZM54 21L54 22L53 22L53 23L54 23L54 22L56 22L56 21ZM3 22L3 23L2 23L2 24L1 24L1 25L2 25L2 24L3 24L3 26L1 26L1 29L2 29L2 27L4 27L4 26L5 26L5 24L4 24L4 23L5 23L5 22ZM8 23L8 24L9 24L9 23ZM43 23L43 24L44 24L44 25L46 25L46 24L45 24L45 23ZM29 24L29 25L30 25L30 24ZM6 25L6 26L7 26L7 25ZM34 25L34 27L35 27L35 25ZM9 26L9 27L10 27L10 26ZM38 26L38 27L39 27L39 26ZM5 27L5 30L8 30L8 27ZM27 27L27 30L30 30L30 27ZM32 27L32 28L33 28L33 27ZM36 27L36 30L35 30L35 31L33 31L33 32L31 32L31 33L32 33L32 34L35 34L35 31L37 31L37 32L36 32L36 33L37 33L37 32L38 32L38 34L39 34L39 31L38 31L38 30L39 30L39 29L38 29L38 30L37 30L37 27ZM42 27L42 28L43 28L43 27ZM49 27L49 30L52 30L52 27ZM6 28L6 29L7 29L7 28ZM9 28L9 29L10 29L10 28ZM15 28L15 29L16 29L16 30L14 30L14 32L15 32L15 33L17 33L17 34L16 34L16 35L15 35L15 36L17 36L17 37L18 37L18 38L19 38L19 39L17 39L17 38L15 38L15 40L14 40L14 41L15 41L15 42L18 42L18 43L19 43L19 41L22 41L22 44L21 44L21 42L20 42L20 45L17 45L17 47L15 47L15 48L17 48L17 47L18 47L18 46L20 46L20 47L21 47L21 48L23 48L23 49L24 49L24 47L25 47L25 45L26 45L26 46L27 46L27 45L26 45L26 43L25 43L25 42L27 42L27 44L29 44L29 43L32 43L32 42L33 42L33 45L32 45L32 46L31 46L31 44L30 44L30 45L29 45L29 46L31 46L31 47L33 47L33 45L34 45L34 44L35 44L35 45L36 45L36 46L34 46L34 47L38 47L38 45L36 45L36 44L35 44L35 43L34 43L34 42L36 42L36 41L34 41L34 40L35 40L35 39L36 39L36 38L35 38L35 39L34 39L34 38L32 38L32 36L29 36L29 35L28 35L28 34L27 34L27 36L29 36L29 38L26 38L26 39L27 39L27 40L26 40L26 41L25 41L25 39L24 39L24 37L25 37L25 36L23 36L23 35L24 35L24 34L25 34L25 35L26 35L26 34L25 34L25 31L22 31L22 32L21 32L21 31L19 31L19 30L17 30L17 28ZM18 28L18 29L19 29L19 28ZM20 28L20 29L21 29L21 30L24 30L24 29L21 29L21 28ZM28 28L28 29L29 29L29 28ZM34 28L34 29L35 29L35 28ZM50 28L50 29L51 29L51 28ZM53 28L53 32L52 32L52 31L51 31L51 32L52 32L52 34L54 34L54 33L55 33L55 30L56 30L56 29L54 29L54 28ZM31 29L31 31L32 31L32 30L33 30L33 29ZM1 31L1 32L0 32L0 33L2 33L2 31ZM5 31L5 32L7 32L7 31ZM15 31L15 32L16 32L16 31ZM17 31L17 33L18 33L18 35L21 35L21 33L20 33L20 32L18 32L18 31ZM49 31L49 32L50 32L50 31ZM23 32L23 33L22 33L22 35L23 35L23 33L24 33L24 32ZM42 32L42 33L43 33L43 32ZM53 32L53 33L54 33L54 32ZM51 35L51 36L52 36L52 35ZM54 35L54 36L55 36L55 37L56 37L56 35ZM19 36L19 37L20 37L20 38L22 38L22 37L23 37L23 36ZM2 37L2 38L0 38L0 39L2 39L2 38L3 38L3 37ZM6 37L6 38L5 38L5 40L7 40L7 39L8 39L8 41L9 41L9 42L10 42L10 39L8 39L8 38L7 38L7 37ZM6 38L6 39L7 39L7 38ZM30 38L30 39L28 39L28 41L30 41L30 40L33 40L33 39L32 39L32 38ZM42 38L42 39L41 39L41 40L42 40L42 41L46 41L46 43L45 43L45 42L42 42L42 43L44 43L44 44L49 44L49 43L50 43L50 42L49 42L49 43L48 43L48 42L47 42L47 41L46 41L46 40L45 40L45 39L44 39L44 38ZM16 39L16 40L15 40L15 41L17 41L17 39ZM22 39L22 41L24 41L24 42L25 42L25 41L24 41L24 39ZM0 40L0 41L1 41L1 40ZM18 40L18 41L19 41L19 40ZM56 40L56 41L57 41L57 40ZM12 41L12 42L13 42L13 41ZM6 42L6 43L7 43L7 44L8 44L8 45L7 45L7 46L9 46L9 44L8 44L8 43L7 43L7 42ZM37 42L37 44L38 44L38 43L39 43L39 42ZM53 42L53 43L52 43L52 44L55 44L55 43L54 43L54 42ZM15 43L15 45L16 45L16 44L17 44L17 43ZM23 43L23 44L22 44L22 46L21 46L21 45L20 45L20 46L21 46L21 47L22 47L22 46L23 46L23 44L24 44L24 45L25 45L25 44L24 44L24 43ZM48 45L48 46L49 46L49 45ZM51 45L51 48L53 48L53 47L52 47L52 46L53 46L53 45ZM1 46L1 47L2 47L2 46ZM41 48L41 49L42 49L42 48ZM56 48L56 49L57 49L57 48ZM15 49L15 51L17 51L17 50L16 50L16 49ZM27 49L27 52L30 52L30 49ZM49 49L49 52L52 52L52 49ZM24 50L24 51L25 51L25 50ZM28 50L28 51L29 51L29 50ZM50 50L50 51L51 51L51 50ZM31 51L31 53L32 53L32 51ZM40 51L40 52L41 52L41 51ZM56 51L56 53L55 53L55 54L56 54L56 53L57 53L57 51ZM42 53L42 54L43 54L43 53ZM39 55L39 56L40 56L40 55ZM56 55L56 56L57 56L57 55ZM52 56L52 57L53 57L53 56ZM54 56L54 57L55 57L55 56ZM0 0L0 7L7 7L7 0ZM1 1L1 6L6 6L6 1ZM2 2L2 5L5 5L5 2ZM50 0L50 7L57 7L57 0ZM51 1L51 6L56 6L56 1ZM52 2L52 5L55 5L55 2ZM0 50L0 57L7 57L7 50ZM1 51L1 56L6 56L6 51ZM2 52L2 55L5 55L5 52Z" fill="#000000"/></g></g></svg>
