<?xml version="1.0" encoding="UTF-8"?>
<svg xmlns="http://www.w3.org/2000/svg" version="1.1" width="300" height="300" viewBox="0 0 300 300"><rect x="0" y="0" width="300" height="300" fill="#fefefe"/><g transform="scale(4.615)"><g transform="translate(4,4)"><path fill-rule="evenodd" d="M9 0L9 1L8 1L8 2L9 2L9 3L8 3L8 4L9 4L9 5L8 5L8 7L9 7L9 6L10 6L10 7L11 7L11 8L6 8L6 9L11 9L11 10L10 10L10 11L11 11L11 12L10 12L10 13L8 13L8 12L9 12L9 11L8 11L8 12L6 12L6 11L7 11L7 10L4 10L4 11L5 11L5 13L7 13L7 14L5 14L5 16L6 16L6 17L4 17L4 16L3 16L3 15L4 15L4 14L3 14L3 13L4 13L4 12L2 12L2 11L3 11L3 10L2 10L2 11L1 11L1 10L0 10L0 13L1 13L1 12L2 12L2 14L0 14L0 16L2 16L2 17L3 17L3 18L5 18L5 19L7 19L7 18L8 18L8 19L9 19L9 18L10 18L10 20L6 20L6 21L4 21L4 20L2 20L2 19L1 19L1 20L0 20L0 22L1 22L1 23L0 23L0 24L2 24L2 22L3 22L3 21L4 21L4 23L5 23L5 22L6 22L6 23L7 23L7 24L4 24L4 25L7 25L7 26L3 26L3 25L0 25L0 26L2 26L2 28L0 28L0 29L2 29L2 28L4 28L4 31L3 31L3 32L1 32L1 31L2 31L2 30L0 30L0 34L1 34L1 35L2 35L2 36L1 36L1 37L0 37L0 39L2 39L2 38L1 38L1 37L3 37L3 38L4 38L4 39L3 39L3 41L1 41L1 40L0 40L0 41L1 41L1 42L2 42L2 43L0 43L0 45L2 45L2 44L3 44L3 45L5 45L5 47L3 47L3 46L2 46L2 47L1 47L1 46L0 46L0 48L5 48L5 47L7 47L7 48L6 48L6 49L7 49L7 48L9 48L9 49L8 49L8 51L10 51L10 52L11 52L11 50L13 50L13 51L14 51L14 52L13 52L13 53L11 53L11 54L9 54L9 52L8 52L8 57L9 57L9 56L10 56L10 57L12 57L12 56L13 56L13 55L16 55L16 56L14 56L14 57L16 57L16 56L17 56L17 57L19 57L19 55L20 55L20 54L19 54L19 53L20 53L20 52L23 52L23 51L20 51L20 48L21 48L21 47L23 47L23 49L21 49L21 50L26 50L26 52L24 52L24 53L23 53L23 54L22 54L22 53L21 53L21 54L22 54L22 56L24 56L24 55L23 55L23 54L24 54L24 53L26 53L26 54L25 54L25 55L26 55L26 54L30 54L30 53L31 53L31 51L32 51L32 52L33 52L33 53L32 53L32 54L31 54L31 56L30 56L30 55L29 55L29 56L27 56L27 57L29 57L29 56L30 56L30 57L31 57L31 56L35 56L35 57L39 57L39 56L37 56L37 55L41 55L41 54L42 54L42 55L44 55L44 54L45 54L45 57L47 57L47 55L48 55L48 56L50 56L50 57L52 57L52 55L51 55L51 53L52 53L52 54L53 54L53 57L54 57L54 56L55 56L55 57L56 57L56 56L55 56L55 54L54 54L54 53L55 53L55 51L56 51L56 53L57 53L57 51L56 51L56 49L57 49L57 48L56 48L56 46L57 46L57 45L56 45L56 44L55 44L55 43L56 43L56 41L55 41L55 39L57 39L57 37L56 37L56 34L55 34L55 33L54 33L54 32L56 32L56 33L57 33L57 32L56 32L56 30L57 30L57 29L56 29L56 26L57 26L57 25L56 25L56 22L57 22L57 19L56 19L56 22L55 22L55 23L53 23L53 22L54 22L54 21L51 21L51 20L52 20L52 19L53 19L53 20L55 20L55 18L57 18L57 17L56 17L56 16L57 16L57 15L56 15L56 14L57 14L57 13L56 13L56 12L57 12L57 11L56 11L56 10L54 10L54 11L50 11L50 12L49 12L49 13L47 13L47 14L45 14L45 18L44 18L44 15L42 15L42 16L41 16L41 14L44 14L44 12L43 12L43 13L41 13L41 14L40 14L40 13L39 13L39 12L41 12L41 11L40 11L40 10L42 10L42 11L45 11L45 12L47 12L47 11L48 11L48 10L50 10L50 8L48 8L48 9L47 9L47 10L45 10L45 9L46 9L46 8L47 8L47 5L48 5L48 0L46 0L46 1L45 1L45 2L44 2L44 3L43 3L43 4L40 4L40 5L39 5L39 6L38 6L38 7L37 7L37 5L38 5L38 4L37 4L37 3L36 3L36 0L35 0L35 1L33 1L33 0L32 0L32 1L31 1L31 0L27 0L27 1L26 1L26 0L23 0L23 1L22 1L22 0L21 0L21 1L22 1L22 2L20 2L20 0L17 0L17 1L14 1L14 0L12 0L12 1L11 1L11 0ZM37 0L37 1L38 1L38 3L42 3L42 2L43 2L43 0L41 0L41 1L40 1L40 0L39 0L39 1L38 1L38 0ZM9 1L9 2L10 2L10 1ZM12 1L12 2L11 2L11 3L12 3L12 4L11 4L11 7L12 7L12 8L11 8L11 9L13 9L13 10L11 10L11 11L12 11L12 12L11 12L11 13L10 13L10 14L7 14L7 15L6 15L6 16L7 16L7 17L6 17L6 18L7 18L7 17L8 17L8 18L9 18L9 17L11 17L11 18L12 18L12 19L11 19L11 20L10 20L10 21L11 21L11 22L12 22L12 20L13 20L13 21L14 21L14 22L16 22L16 21L17 21L17 20L18 20L18 19L19 19L19 18L18 18L18 17L16 17L16 16L17 16L17 13L18 13L18 12L17 12L17 11L18 11L18 9L15 9L15 8L14 8L14 9L13 9L13 7L14 7L14 5L15 5L15 7L16 7L16 8L17 8L17 7L18 7L18 6L19 6L19 7L20 7L20 5L18 5L18 4L17 4L17 2L14 2L14 1ZM18 1L18 3L19 3L19 4L21 4L21 7L22 7L22 8L19 8L19 9L20 9L20 12L19 12L19 13L20 13L20 21L18 21L18 22L20 22L20 23L18 23L18 24L21 24L21 25L19 25L19 26L18 26L18 27L17 27L17 24L16 24L16 23L15 23L15 24L14 24L14 25L13 25L13 23L12 23L12 24L11 24L11 23L10 23L10 22L9 22L9 21L6 21L6 22L9 22L9 23L8 23L8 24L9 24L9 23L10 23L10 25L8 25L8 26L9 26L9 27L11 27L11 28L9 28L9 29L10 29L10 30L14 30L14 29L16 29L16 30L18 30L18 31L17 31L17 32L15 32L15 34L14 34L14 31L13 31L13 32L12 32L12 33L13 33L13 34L11 34L11 36L12 36L12 37L11 37L11 41L9 41L9 43L8 43L8 44L7 44L7 43L6 43L6 42L7 42L7 41L6 41L6 40L7 40L7 39L6 39L6 38L7 38L7 37L8 37L8 38L10 38L10 37L9 37L9 35L10 35L10 34L9 34L9 33L10 33L10 31L8 31L8 32L7 32L7 31L4 31L4 32L3 32L3 33L1 33L1 34L4 34L4 32L7 32L7 33L6 33L6 34L8 34L8 35L4 35L4 36L3 36L3 37L4 37L4 38L5 38L5 41L3 41L3 42L5 42L5 43L6 43L6 44L7 44L7 45L6 45L6 46L7 46L7 47L8 47L8 45L9 45L9 46L10 46L10 47L9 47L9 48L10 48L10 49L11 49L11 48L12 48L12 47L11 47L11 46L12 46L12 43L13 43L13 44L14 44L14 45L13 45L13 46L14 46L14 47L15 47L15 46L17 46L17 48L16 48L16 49L15 49L15 48L13 48L13 50L15 50L15 52L14 52L14 54L16 54L16 53L17 53L17 48L18 48L18 47L19 47L19 48L20 48L20 47L21 47L21 45L22 45L22 46L23 46L23 47L24 47L24 49L25 49L25 48L27 48L27 47L26 47L26 45L28 45L28 46L30 46L30 44L31 44L31 45L32 45L32 46L31 46L31 48L32 48L32 49L31 49L31 50L32 50L32 51L33 51L33 52L34 52L34 53L33 53L33 54L34 54L34 55L35 55L35 56L36 56L36 54L35 54L35 50L36 50L36 52L37 52L37 51L38 51L38 53L37 53L37 54L40 54L40 53L42 53L42 52L43 52L43 51L42 51L42 50L41 50L41 48L42 48L42 49L43 49L43 48L44 48L44 49L45 49L45 50L44 50L44 51L45 51L45 52L44 52L44 53L43 53L43 54L44 54L44 53L45 53L45 54L47 54L47 53L48 53L48 50L47 50L47 49L48 49L48 48L49 48L49 47L48 47L48 45L49 45L49 46L50 46L50 48L51 48L51 46L53 46L53 47L52 47L52 48L53 48L53 47L55 47L55 46L56 46L56 45L55 45L55 44L54 44L54 45L53 45L53 43L54 43L54 42L53 42L53 41L54 41L54 40L53 40L53 41L51 41L51 42L50 42L50 43L49 43L49 42L48 42L48 41L49 41L49 39L47 39L47 37L48 37L48 36L49 36L49 37L51 37L51 38L50 38L50 39L51 39L51 38L52 38L52 39L53 39L53 35L55 35L55 34L54 34L54 33L52 33L52 32L53 32L53 31L52 31L52 32L51 32L51 31L50 31L50 32L49 32L49 31L48 31L48 28L47 28L47 29L46 29L46 30L47 30L47 31L46 31L46 32L43 32L43 31L45 31L45 28L46 28L46 27L47 27L47 25L49 25L49 23L50 23L50 24L51 24L51 25L50 25L50 26L51 26L51 25L55 25L55 24L53 24L53 23L50 23L50 22L51 22L51 21L49 21L49 19L50 19L50 18L51 18L51 19L52 19L52 18L51 18L51 17L53 17L53 18L55 18L55 17L53 17L53 16L51 16L51 17L50 17L50 14L51 14L51 12L50 12L50 14L49 14L49 15L48 15L48 16L47 16L47 17L46 17L46 18L45 18L45 20L44 20L44 18L43 18L43 20L42 20L42 21L43 21L43 20L44 20L44 23L42 23L42 22L41 22L41 23L42 23L42 24L40 24L40 22L39 22L39 21L41 21L41 20L39 20L39 21L38 21L38 20L37 20L37 19L39 19L39 17L41 17L41 16L39 16L39 15L38 15L38 14L39 14L39 13L38 13L38 14L37 14L37 13L36 13L36 14L37 14L37 15L35 15L35 16L32 16L32 15L31 15L31 14L30 14L30 13L31 13L31 11L32 11L32 14L35 14L35 12L36 12L36 10L37 10L37 11L38 11L38 10L40 10L40 9L41 9L41 7L42 7L42 6L41 6L41 5L40 5L40 6L39 6L39 7L40 7L40 8L38 8L38 10L37 10L37 9L35 9L35 8L37 8L37 7L36 7L36 5L37 5L37 4L36 4L36 5L35 5L35 3L34 3L34 2L33 2L33 3L32 3L32 2L31 2L31 1L27 1L27 2L26 2L26 1L25 1L25 2L22 2L22 3L20 3L20 2L19 2L19 1ZM46 1L46 2L47 2L47 1ZM13 2L13 4L14 4L14 2ZM27 2L27 3L30 3L30 4L26 4L26 3L23 3L23 4L24 4L24 5L23 5L23 6L22 6L22 7L23 7L23 6L24 6L24 8L23 8L23 9L21 9L21 10L22 10L22 11L21 11L21 12L22 12L22 13L21 13L21 15L24 15L24 16L25 16L25 17L22 17L22 16L21 16L21 17L22 17L22 18L21 18L21 20L24 20L24 21L23 21L23 22L24 22L24 21L25 21L25 22L26 22L26 23L25 23L25 24L24 24L24 23L23 23L23 25L21 25L21 27L22 27L22 26L23 26L23 27L24 27L24 28L23 28L23 30L24 30L24 31L26 31L26 33L27 33L27 32L28 32L28 33L29 33L29 34L30 34L30 36L29 36L29 37L31 37L31 38L29 38L29 39L33 39L33 40L35 40L35 42L37 42L37 43L36 43L36 44L35 44L35 43L34 43L34 42L33 42L33 41L32 41L32 40L30 40L30 41L29 41L29 40L28 40L28 39L27 39L27 38L28 38L28 37L27 37L27 36L26 36L26 35L27 35L27 34L26 34L26 35L25 35L25 33L23 33L23 34L24 34L24 36L23 36L23 35L21 35L21 36L23 36L23 37L24 37L24 38L21 38L21 37L19 37L19 35L20 35L20 34L18 34L18 33L21 33L21 34L22 34L22 33L21 33L21 32L23 32L23 31L21 31L21 30L20 30L20 32L17 32L17 34L15 34L15 35L14 35L14 34L13 34L13 35L14 35L14 36L13 36L13 37L12 37L12 38L13 38L13 37L14 37L14 41L13 41L13 42L14 42L14 43L15 43L15 42L14 42L14 41L19 41L19 42L18 42L18 43L16 43L16 45L17 45L17 46L20 46L20 45L19 45L19 44L20 44L20 43L19 43L19 42L20 42L20 41L19 41L19 40L21 40L21 39L22 39L22 40L23 40L23 41L24 41L24 42L22 42L22 41L21 41L21 42L22 42L22 43L21 43L21 44L22 44L22 45L23 45L23 46L24 46L24 47L25 47L25 45L23 45L23 44L27 44L27 43L24 43L24 42L25 42L25 41L24 41L24 40L25 40L25 37L26 37L26 40L27 40L27 41L26 41L26 42L27 42L27 41L29 41L29 43L28 43L28 45L29 45L29 43L31 43L31 44L33 44L33 43L34 43L34 45L36 45L36 46L32 46L32 48L33 48L33 49L32 49L32 50L33 50L33 49L34 49L34 47L36 47L36 48L35 48L35 49L36 49L36 50L38 50L38 51L40 51L40 52L41 52L41 50L38 50L38 49L39 49L39 48L41 48L41 46L43 46L43 45L44 45L44 48L45 48L45 47L47 47L47 48L48 48L48 47L47 47L47 46L45 46L45 45L47 45L47 43L48 43L48 42L45 42L45 41L44 41L44 40L47 40L47 39L46 39L46 38L45 38L45 37L47 37L47 36L48 36L48 35L50 35L50 36L51 36L51 37L52 37L52 35L53 35L53 34L52 34L52 33L51 33L51 32L50 32L50 34L48 34L48 35L44 35L44 36L43 36L43 37L40 37L40 36L42 36L42 34L45 34L45 33L43 33L43 32L41 32L41 33L39 33L39 34L40 34L40 35L38 35L38 33L37 33L37 32L35 32L35 34L34 34L34 33L33 33L33 34L32 34L32 35L31 35L31 33L32 33L32 30L31 30L31 29L32 29L32 28L31 28L31 26L32 26L32 27L33 27L33 28L35 28L35 30L33 30L33 31L36 31L36 30L37 30L37 29L38 29L38 28L42 28L42 27L41 27L41 26L43 26L43 25L44 25L44 24L43 24L43 25L40 25L40 24L39 24L39 22L38 22L38 21L37 21L37 20L36 20L36 19L35 19L35 23L32 23L32 24L31 24L31 21L32 21L32 20L33 20L33 19L31 19L31 20L30 20L30 18L32 18L32 16L31 16L31 15L30 15L30 14L29 14L29 13L28 13L28 12L29 12L29 11L31 11L31 10L32 10L32 11L33 11L33 10L32 10L32 8L31 8L31 4L32 4L32 5L34 5L34 7L33 7L33 6L32 6L32 7L33 7L33 9L34 9L34 8L35 8L35 5L34 5L34 4L32 4L32 3L31 3L31 2ZM44 3L44 6L43 6L43 8L42 8L42 9L43 9L43 10L44 10L44 9L45 9L45 8L46 8L46 6L45 6L45 5L47 5L47 3ZM15 4L15 5L16 5L16 4ZM25 4L25 8L26 8L26 4ZM12 5L12 7L13 7L13 5ZM17 5L17 6L16 6L16 7L17 7L17 6L18 6L18 5ZM27 5L27 8L30 8L30 5ZM28 6L28 7L29 7L29 6ZM40 6L40 7L41 7L41 6ZM44 6L44 7L45 7L45 6ZM48 6L48 7L49 7L49 6ZM0 8L0 9L5 9L5 8ZM43 8L43 9L44 9L44 8ZM51 8L51 10L53 10L53 9L54 9L54 8L53 8L53 9L52 9L52 8ZM55 8L55 9L56 9L56 8ZM13 10L13 11L14 11L14 12L13 12L13 13L15 13L15 14L13 14L13 16L12 16L12 13L11 13L11 15L7 15L7 16L8 16L8 17L9 17L9 16L11 16L11 17L12 17L12 18L13 18L13 17L14 17L14 15L15 15L15 16L16 16L16 13L17 13L17 12L16 12L16 13L15 13L15 11L17 11L17 10ZM27 10L27 11L26 11L26 12L25 12L25 11L23 11L23 13L22 13L22 14L23 14L23 13L26 13L26 12L27 12L27 11L29 11L29 10ZM33 12L33 13L34 13L34 12ZM52 12L52 13L53 13L53 14L54 14L54 15L55 15L55 14L56 14L56 13L55 13L55 12L54 12L54 13L53 13L53 12ZM27 13L27 14L26 14L26 17L25 17L25 18L26 18L26 20L25 20L25 21L30 21L30 20L29 20L29 19L28 19L28 18L26 18L26 17L28 17L28 16L29 16L29 14L28 14L28 13ZM54 13L54 14L55 14L55 13ZM24 14L24 15L25 15L25 14ZM27 15L27 16L28 16L28 15ZM35 16L35 17L37 17L37 18L38 18L38 17L39 17L39 16L38 16L38 17L37 17L37 16ZM42 16L42 17L43 17L43 16ZM47 17L47 18L46 18L46 19L47 19L47 18L50 18L50 17ZM22 18L22 19L24 19L24 18ZM41 18L41 19L42 19L42 18ZM13 19L13 20L14 20L14 19ZM15 19L15 21L16 21L16 20L17 20L17 19ZM27 19L27 20L28 20L28 19ZM1 20L1 22L2 22L2 20ZM46 20L46 21L47 21L47 22L46 22L46 23L45 23L45 25L47 25L47 24L48 24L48 23L47 23L47 22L49 22L49 21L47 21L47 20ZM37 22L37 24L38 24L38 26L37 26L37 25L33 25L33 24L32 24L32 26L33 26L33 27L34 27L34 26L36 26L36 27L35 27L35 28L36 28L36 27L39 27L39 26L40 26L40 25L39 25L39 24L38 24L38 22ZM21 23L21 24L22 24L22 23ZM27 23L27 24L25 24L25 25L26 25L26 26L25 26L25 27L26 27L26 26L28 26L28 25L29 25L29 26L30 26L30 25L29 25L29 24L30 24L30 23ZM15 24L15 25L16 25L16 24ZM10 25L10 26L11 26L11 25ZM12 25L12 29L14 29L14 28L13 28L13 25ZM14 26L14 27L15 27L15 26ZM19 26L19 27L20 27L20 26ZM44 26L44 27L43 27L43 28L45 28L45 26ZM53 26L53 27L54 27L54 26ZM5 27L5 30L8 30L8 27ZM16 27L16 29L18 29L18 30L19 30L19 29L22 29L22 28L19 28L19 29L18 29L18 28L17 28L17 27ZM27 27L27 30L30 30L30 27ZM49 27L49 30L52 30L52 27ZM6 28L6 29L7 29L7 28ZM25 28L25 29L26 29L26 28ZM28 28L28 29L29 29L29 28ZM50 28L50 29L51 29L51 28ZM54 28L54 29L53 29L53 30L55 30L55 28ZM39 29L39 30L38 30L38 32L39 32L39 30L40 30L40 29ZM41 29L41 30L44 30L44 29ZM28 31L28 32L29 32L29 33L31 33L31 31L30 31L30 32L29 32L29 31ZM47 31L47 32L46 32L46 33L47 33L47 32L48 32L48 33L49 33L49 32L48 32L48 31ZM17 34L17 35L15 35L15 36L14 36L14 37L16 37L16 38L15 38L15 39L16 39L16 40L19 40L19 39L20 39L20 38L19 38L19 39L17 39L17 38L18 38L18 37L17 37L17 36L18 36L18 34ZM33 34L33 35L34 35L34 34ZM35 34L35 36L37 36L37 34ZM50 34L50 35L52 35L52 34ZM4 36L4 37L5 37L5 36ZM6 36L6 37L7 37L7 36ZM32 36L32 37L33 37L33 38L34 38L34 39L35 39L35 40L38 40L38 42L39 42L39 43L40 43L40 44L39 44L39 45L38 45L38 46L39 46L39 47L38 47L38 48L37 48L37 49L38 49L38 48L39 48L39 47L40 47L40 46L41 46L41 44L42 44L42 43L41 43L41 40L38 40L38 39L42 39L42 40L44 40L44 39L45 39L45 38L44 38L44 37L45 37L45 36L44 36L44 37L43 37L43 38L40 38L40 37L39 37L39 36L38 36L38 38L37 38L37 39L35 39L35 37L33 37L33 36ZM54 37L54 38L55 38L55 37ZM8 39L8 40L10 40L10 39ZM12 39L12 40L13 40L13 39ZM23 39L23 40L24 40L24 39ZM30 41L30 42L32 42L32 43L33 43L33 42L32 42L32 41ZM39 41L39 42L40 42L40 41ZM43 41L43 44L44 44L44 45L45 45L45 44L46 44L46 43L45 43L45 42L44 42L44 41ZM51 42L51 43L50 43L50 44L51 44L51 45L50 45L50 46L51 46L51 45L52 45L52 44L51 44L51 43L53 43L53 42ZM3 43L3 44L4 44L4 43ZM10 43L10 44L9 44L9 45L10 45L10 46L11 46L11 45L10 45L10 44L11 44L11 43ZM17 44L17 45L18 45L18 44ZM10 47L10 48L11 48L11 47ZM28 47L28 48L30 48L30 47ZM42 47L42 48L43 48L43 47ZM55 48L55 49L56 49L56 48ZM27 49L27 52L30 52L30 49ZM49 49L49 52L52 52L52 49ZM18 50L18 52L19 52L19 50ZM28 50L28 51L29 51L29 50ZM50 50L50 51L51 51L51 50ZM54 50L54 51L55 51L55 50ZM46 51L46 52L47 52L47 51ZM15 52L15 53L16 53L16 52ZM53 52L53 53L54 53L54 52ZM12 54L12 55L13 55L13 54ZM17 54L17 56L18 56L18 55L19 55L19 54ZM50 55L50 56L51 56L51 55ZM25 56L25 57L26 57L26 56ZM41 56L41 57L44 57L44 56ZM0 0L0 7L7 7L7 0ZM1 1L1 6L6 6L6 1ZM2 2L2 5L5 5L5 2ZM50 0L50 7L57 7L57 0ZM51 1L51 6L56 6L56 1ZM52 2L52 5L55 5L55 2ZM0 50L0 57L7 57L7 50ZM1 51L1 56L6 56L6 51ZM2 52L2 55L5 55L5 52Z" fill="#000000"/></g></g></svg>
