<?xml version="1.0" encoding="UTF-8"?>
<svg xmlns="http://www.w3.org/2000/svg" version="1.1" width="300" height="300" viewBox="0 0 300 300"><rect x="0" y="0" width="300" height="300" fill="#fefefe"/><g transform="scale(4.615)"><g transform="translate(4,4)"><path fill-rule="evenodd" d="M8 0L8 2L10 2L10 1L11 1L11 3L10 3L10 5L9 5L9 4L8 4L8 9L7 9L7 8L5 8L5 10L4 10L4 9L3 9L3 8L0 8L0 11L2 11L2 13L3 13L3 15L1 15L1 16L0 16L0 17L2 17L2 16L3 16L3 18L1 18L1 19L0 19L0 26L1 26L1 27L0 27L0 29L1 29L1 27L2 27L2 25L1 25L1 23L2 23L2 22L3 22L3 23L4 23L4 22L5 22L5 20L3 20L3 19L5 19L5 18L6 18L6 19L7 19L7 20L6 20L6 21L7 21L7 22L6 22L6 23L5 23L5 24L4 24L4 25L7 25L7 26L3 26L3 28L4 28L4 29L3 29L3 31L4 31L4 32L3 32L3 34L2 34L2 35L1 35L1 36L0 36L0 40L3 40L3 38L4 38L4 39L5 39L5 41L3 41L3 44L1 44L1 43L2 43L2 41L0 41L0 42L1 42L1 43L0 43L0 48L5 48L5 47L7 47L7 48L6 48L6 49L7 49L7 48L8 48L8 47L10 47L10 48L9 48L9 49L8 49L8 50L10 50L10 51L8 51L8 52L9 52L9 53L11 53L11 54L10 54L10 55L9 55L9 54L8 54L8 57L9 57L9 56L10 56L10 55L11 55L11 56L12 56L12 57L13 57L13 56L16 56L16 57L17 57L17 55L16 55L16 54L17 54L17 52L15 52L15 54L12 54L12 53L11 53L11 50L10 50L10 48L11 48L11 49L12 49L12 51L13 51L13 53L14 53L14 51L15 51L15 50L16 50L16 51L18 51L18 54L19 54L19 52L20 52L20 53L21 53L21 54L20 54L20 55L21 55L21 56L18 56L18 57L21 57L21 56L22 56L22 57L23 57L23 56L24 56L24 57L25 57L25 55L26 55L26 57L28 57L28 55L29 55L29 57L33 57L33 55L34 55L34 57L35 57L35 55L38 55L38 53L39 53L39 55L40 55L40 54L41 54L41 56L40 56L40 57L41 57L41 56L42 56L42 57L43 57L43 54L42 54L42 53L43 53L43 52L44 52L44 57L46 57L46 56L47 56L47 54L46 54L46 52L47 52L47 53L49 53L49 54L48 54L48 55L49 55L49 56L48 56L48 57L50 57L50 55L49 55L49 54L52 54L52 55L53 55L53 54L54 54L54 55L57 55L57 54L55 54L55 52L56 52L56 53L57 53L57 52L56 52L56 51L57 51L57 50L56 50L56 51L55 51L55 52L54 52L54 51L53 51L53 50L54 50L54 47L55 47L55 49L56 49L56 47L57 47L57 45L56 45L56 44L57 44L57 40L54 40L54 39L55 39L55 38L57 38L57 34L56 34L56 37L55 37L55 36L54 36L54 34L53 34L53 36L52 36L52 37L51 37L51 33L50 33L50 32L51 32L51 31L53 31L53 32L54 32L54 33L56 33L56 31L57 31L57 29L53 29L53 28L54 28L54 27L55 27L55 26L54 26L54 25L55 25L55 24L56 24L56 27L57 27L57 24L56 24L56 23L57 23L57 21L56 21L56 23L55 23L55 21L54 21L54 19L55 19L55 16L56 16L56 17L57 17L57 13L56 13L56 12L57 12L57 10L56 10L56 9L57 9L57 8L55 8L55 9L54 9L54 10L53 10L53 8L48 8L48 7L49 7L49 6L48 6L48 7L47 7L47 5L48 5L48 0L42 0L42 1L41 1L41 0L38 0L38 2L37 2L37 1L35 1L35 0L34 0L34 2L33 2L33 1L32 1L32 0L30 0L30 1L28 1L28 0L26 0L26 2L25 2L25 4L24 4L24 1L25 1L25 0L24 0L24 1L23 1L23 0L20 0L20 1L19 1L19 0L16 0L16 1L14 1L14 0L13 0L13 1L14 1L14 3L13 3L13 2L12 2L12 1L11 1L11 0L10 0L10 1L9 1L9 0ZM16 1L16 2L18 2L18 3L16 3L16 4L17 4L17 5L16 5L16 6L15 6L15 7L14 7L14 5L13 5L13 3L12 3L12 4L11 4L11 7L10 7L10 6L9 6L9 7L10 7L10 8L9 8L9 9L10 9L10 8L11 8L11 9L13 9L13 12L12 12L12 11L11 11L11 10L10 10L10 11L9 11L9 10L7 10L7 9L6 9L6 10L7 10L7 11L4 11L4 12L3 12L3 13L4 13L4 14L5 14L5 15L3 15L3 16L4 16L4 18L5 18L5 17L6 17L6 18L7 18L7 19L8 19L8 18L9 18L9 20L7 20L7 21L10 21L10 22L12 22L12 21L10 21L10 19L11 19L11 20L12 20L12 18L13 18L13 17L14 17L14 16L15 16L15 19L14 19L14 20L16 20L16 18L17 18L17 17L18 17L18 16L17 16L17 15L18 15L18 14L19 14L19 13L20 13L20 15L21 15L21 14L22 14L22 16L23 16L23 15L24 15L24 18L26 18L26 20L27 20L27 22L26 22L26 23L28 23L28 24L27 24L27 25L26 25L26 26L28 26L28 24L29 24L29 23L31 23L31 25L30 25L30 26L31 26L31 25L32 25L32 28L31 28L31 30L32 30L32 32L30 32L30 31L27 31L27 33L26 33L26 32L25 32L25 31L26 31L26 30L25 30L25 29L24 29L24 27L25 27L25 25L24 25L24 24L23 24L23 25L24 25L24 27L22 27L22 28L23 28L23 29L22 29L22 30L21 30L21 28L20 28L20 26L22 26L22 23L20 23L20 22L21 22L21 21L22 21L22 20L23 20L23 19L20 19L20 20L19 20L19 25L18 25L18 24L17 24L17 25L16 25L16 24L15 24L15 23L14 23L14 22L15 22L15 21L14 21L14 22L13 22L13 23L14 23L14 24L15 24L15 25L14 25L14 26L15 26L15 25L16 25L16 26L17 26L17 27L16 27L16 28L15 28L15 27L13 27L13 28L11 28L11 27L12 27L12 26L13 26L13 24L12 24L12 23L11 23L11 24L10 24L10 25L11 25L11 26L9 26L9 27L10 27L10 28L11 28L11 29L15 29L15 30L14 30L14 31L15 31L15 32L11 32L11 30L9 30L9 32L8 32L8 31L6 31L6 32L5 32L5 33L6 33L6 34L8 34L8 35L14 35L14 38L13 38L13 37L12 37L12 36L11 36L11 37L10 37L10 36L8 36L8 37L6 37L6 36L7 36L7 35L4 35L4 34L3 34L3 35L4 35L4 36L5 36L5 37L4 37L4 38L5 38L5 37L6 37L6 38L7 38L7 39L6 39L6 40L10 40L10 42L9 42L9 43L6 43L6 42L8 42L8 41L5 41L5 42L4 42L4 43L5 43L5 44L4 44L4 45L5 45L5 44L7 44L7 45L6 45L6 46L9 46L9 45L8 45L8 44L10 44L10 45L11 45L11 44L10 44L10 42L11 42L11 43L12 43L12 42L13 42L13 41L11 41L11 40L10 40L10 39L9 39L9 38L8 38L8 37L10 37L10 38L11 38L11 37L12 37L12 40L13 40L13 39L14 39L14 38L15 38L15 40L14 40L14 41L16 41L16 43L15 43L15 45L14 45L14 44L13 44L13 45L12 45L12 46L14 46L14 47L13 47L13 48L12 48L12 49L13 49L13 48L15 48L15 49L16 49L16 50L18 50L18 51L19 51L19 50L18 50L18 47L16 47L16 48L15 48L15 45L16 45L16 46L17 46L17 44L16 44L16 43L17 43L17 42L18 42L18 38L17 38L17 37L18 37L18 36L20 36L20 35L21 35L21 34L23 34L23 33L22 33L22 30L23 30L23 29L24 29L24 34L26 34L26 35L28 35L28 36L26 36L26 37L24 37L24 36L25 36L25 35L22 35L22 36L21 36L21 37L22 37L22 39L21 39L21 38L20 38L20 39L21 39L21 41L20 41L20 42L21 42L21 43L20 43L20 44L21 44L21 45L20 45L20 46L19 46L19 45L18 45L18 46L19 46L19 48L21 48L21 49L20 49L20 50L22 50L22 48L23 48L23 49L24 49L24 51L22 51L22 52L24 52L24 51L25 51L25 52L26 52L26 48L31 48L31 50L33 50L33 52L34 52L34 54L35 54L35 53L36 53L36 54L37 54L37 53L36 53L36 52L34 52L34 51L37 51L37 52L38 52L38 51L39 51L39 49L40 49L40 51L41 51L41 52L42 52L42 51L41 51L41 49L42 49L42 50L43 50L43 51L44 51L44 48L45 48L45 49L46 49L46 50L45 50L45 52L46 52L46 50L47 50L47 49L46 49L46 48L47 48L47 47L48 47L48 46L49 46L49 47L50 47L50 46L51 46L51 48L53 48L53 47L54 47L54 46L55 46L55 47L56 47L56 45L55 45L55 44L56 44L56 41L54 41L54 42L55 42L55 43L54 43L54 44L53 44L53 39L52 39L52 44L51 44L51 45L50 45L50 42L49 42L49 41L51 41L51 40L48 40L48 37L50 37L50 33L49 33L49 34L48 34L48 33L46 33L46 35L47 35L47 36L48 36L48 37L46 37L46 36L45 36L45 37L46 37L46 38L45 38L45 39L46 39L46 38L47 38L47 40L48 40L48 41L46 41L46 40L45 40L45 41L44 41L44 39L43 39L43 38L44 38L44 34L45 34L45 33L44 33L44 34L43 34L43 33L42 33L42 31L44 31L44 30L43 30L43 29L44 29L44 28L42 28L42 31L40 31L40 30L41 30L41 29L40 29L40 28L41 28L41 27L40 27L40 28L39 28L39 29L38 29L38 28L37 28L37 30L36 30L36 27L37 27L37 26L36 26L36 24L37 24L37 25L38 25L38 26L39 26L39 23L42 23L42 22L43 22L43 23L44 23L44 24L43 24L43 25L42 25L42 27L43 27L43 25L44 25L44 27L45 27L45 25L46 25L46 26L47 26L47 23L49 23L49 24L48 24L48 26L52 26L52 24L53 24L53 25L54 25L54 24L55 24L55 23L54 23L54 21L53 21L53 22L52 22L52 20L53 20L53 19L54 19L54 17L53 17L53 18L52 18L52 15L53 15L53 14L52 14L52 13L50 13L50 11L51 11L51 12L52 12L52 11L53 11L53 10L52 10L52 9L48 9L48 8L47 8L47 9L46 9L46 8L45 8L45 10L44 10L44 6L45 6L45 7L46 7L46 5L47 5L47 3L46 3L46 5L44 5L44 4L45 4L45 2L47 2L47 1L42 1L42 2L40 2L40 1L39 1L39 2L40 2L40 4L39 4L39 5L38 5L38 3L37 3L37 2L34 2L34 4L33 4L33 2L32 2L32 5L31 5L31 9L30 9L30 11L29 11L29 12L30 12L30 13L29 13L29 15L28 15L28 14L27 14L27 15L26 15L26 13L27 13L27 12L28 12L28 11L27 11L27 10L28 10L28 9L27 9L27 10L25 10L25 9L26 9L26 5L24 5L24 6L23 6L23 8L24 8L24 10L23 10L23 9L22 9L22 5L23 5L23 2L22 2L22 4L21 4L21 3L19 3L19 1ZM20 1L20 2L21 2L21 1ZM30 1L30 2L29 2L29 3L28 3L28 4L31 4L31 3L30 3L30 2L31 2L31 1ZM43 2L43 3L42 3L42 5L41 5L41 6L40 6L40 7L39 7L39 6L38 6L38 9L37 9L37 6L36 6L36 10L34 10L34 9L35 9L35 4L36 4L36 3L35 3L35 4L34 4L34 5L33 5L33 6L32 6L32 7L33 7L33 6L34 6L34 8L32 8L32 9L31 9L31 11L30 11L30 12L32 12L32 14L31 14L31 15L32 15L32 17L31 17L31 16L30 16L30 15L29 15L29 16L30 16L30 17L28 17L28 18L30 18L30 17L31 17L31 19L30 19L30 20L28 20L28 21L29 21L29 22L28 22L28 23L29 23L29 22L30 22L30 20L32 20L32 21L33 21L33 22L31 22L31 23L32 23L32 25L33 25L33 26L34 26L34 24L36 24L36 23L39 23L39 22L38 22L38 21L37 21L37 20L39 20L39 19L40 19L40 22L42 22L42 20L43 20L43 19L44 19L44 21L43 21L43 22L44 22L44 23L46 23L46 16L44 16L44 13L45 13L45 15L46 15L46 13L47 13L47 14L48 14L48 15L47 15L47 18L48 18L48 17L49 17L49 20L48 20L48 19L47 19L47 22L48 22L48 21L49 21L49 20L51 20L51 19L52 19L52 18L51 18L51 19L50 19L50 16L51 16L51 15L52 15L52 14L51 14L51 15L50 15L50 13L49 13L49 14L48 14L48 12L49 12L49 10L48 10L48 9L47 9L47 11L46 11L46 13L45 13L45 12L44 12L44 13L43 13L43 16L44 16L44 17L43 17L43 18L42 18L42 17L41 17L41 15L42 15L42 12L43 12L43 11L44 11L44 10L43 10L43 11L42 11L42 8L43 8L43 6L44 6L44 5L43 5L43 4L44 4L44 2ZM14 3L14 4L15 4L15 3ZM26 3L26 4L27 4L27 3ZM18 5L18 7L17 7L17 6L16 6L16 7L17 7L17 8L18 8L18 9L17 9L17 10L16 10L16 9L15 9L15 8L14 8L14 9L15 9L15 10L16 10L16 12L17 12L17 14L15 14L15 15L17 15L17 14L18 14L18 13L19 13L19 12L18 12L18 11L20 11L20 9L21 9L21 10L22 10L22 9L21 9L21 5L20 5L20 7L19 7L19 5ZM27 5L27 8L30 8L30 5ZM12 6L12 8L13 8L13 6ZM24 6L24 7L25 7L25 6ZM28 6L28 7L29 7L29 6ZM41 6L41 7L40 7L40 8L39 8L39 9L38 9L38 10L37 10L37 11L34 11L34 10L33 10L33 9L32 9L32 12L33 12L33 11L34 11L34 12L35 12L35 13L34 13L34 15L33 15L33 14L32 14L32 15L33 15L33 17L32 17L32 19L33 19L33 20L34 20L34 18L36 18L36 19L37 19L37 18L36 18L36 15L37 15L37 16L38 16L38 18L40 18L40 19L41 19L41 20L42 20L42 19L41 19L41 18L40 18L40 15L41 15L41 13L40 13L40 15L39 15L39 12L37 12L37 11L38 11L38 10L39 10L39 11L40 11L40 10L41 10L41 9L40 9L40 8L42 8L42 6ZM18 7L18 8L19 8L19 9L18 9L18 10L19 10L19 9L20 9L20 8L19 8L19 7ZM1 9L1 10L2 10L2 11L3 11L3 10L2 10L2 9ZM39 9L39 10L40 10L40 9ZM24 10L24 12L23 12L23 11L22 11L22 12L23 12L23 14L24 14L24 15L25 15L25 16L26 16L26 18L27 18L27 16L26 16L26 15L25 15L25 14L24 14L24 12L25 12L25 13L26 13L26 11L25 11L25 10ZM55 10L55 11L54 11L54 12L53 12L53 13L55 13L55 15L54 15L54 16L55 16L55 15L56 15L56 13L55 13L55 11L56 11L56 10ZM14 11L14 12L15 12L15 11ZM41 11L41 12L42 12L42 11ZM0 12L0 14L1 14L1 12ZM4 12L4 13L5 13L5 12ZM6 12L6 13L7 13L7 14L6 14L6 15L8 15L8 14L9 14L9 16L12 16L12 17L11 17L11 18L12 18L12 17L13 17L13 16L14 16L14 15L13 15L13 14L12 14L12 15L11 15L11 13L12 13L12 12L11 12L11 13L10 13L10 12L8 12L8 13L7 13L7 12ZM20 12L20 13L21 13L21 12ZM36 12L36 14L35 14L35 15L34 15L34 17L33 17L33 18L34 18L34 17L35 17L35 15L36 15L36 14L37 14L37 15L38 15L38 13L37 13L37 12ZM49 15L49 16L50 16L50 15ZM6 16L6 17L8 17L8 16ZM20 16L20 18L21 18L21 16ZM9 17L9 18L10 18L10 17ZM44 17L44 19L45 19L45 17ZM56 18L56 20L57 20L57 18ZM1 19L1 20L2 20L2 19ZM24 19L24 20L25 20L25 19ZM17 20L17 22L16 22L16 23L18 23L18 20ZM20 20L20 21L21 21L21 20ZM35 20L35 21L34 21L34 22L33 22L33 24L34 24L34 22L35 22L35 23L36 23L36 22L37 22L37 21L36 21L36 20ZM35 21L35 22L36 22L36 21ZM44 21L44 22L45 22L45 21ZM7 22L7 23L6 23L6 24L7 24L7 25L8 25L8 23L9 23L9 22ZM24 22L24 23L25 23L25 22ZM49 22L49 23L50 23L50 22ZM51 22L51 23L52 23L52 22ZM53 23L53 24L54 24L54 23ZM11 24L11 25L12 25L12 24ZM44 24L44 25L45 25L45 24ZM49 24L49 25L50 25L50 24ZM5 27L5 30L8 30L8 27ZM18 27L18 28L19 28L19 31L20 31L20 33L19 33L19 32L18 32L18 33L19 33L19 35L20 35L20 33L21 33L21 31L20 31L20 28L19 28L19 27ZM27 27L27 30L30 30L30 27ZM34 27L34 29L33 29L33 28L32 28L32 29L33 29L33 31L34 31L34 32L32 32L32 34L34 34L34 36L33 36L33 35L31 35L31 34L30 34L30 32L29 32L29 34L28 34L28 33L27 33L27 34L28 34L28 35L31 35L31 36L30 36L30 40L28 40L28 41L27 41L27 37L26 37L26 40L25 40L25 41L26 41L26 42L24 42L24 41L23 41L23 39L22 39L22 41L23 41L23 42L24 42L24 43L22 43L22 44L23 44L23 46L24 46L24 47L26 47L26 46L27 46L27 47L28 47L28 46L27 46L27 44L30 44L30 43L31 43L31 42L30 42L30 41L31 41L31 38L33 38L33 39L34 39L34 41L33 41L33 40L32 40L32 46L30 46L30 47L33 47L33 48L32 48L32 49L33 49L33 50L34 50L34 49L35 49L35 48L34 48L34 45L33 45L33 44L35 44L35 43L36 43L36 41L37 41L37 42L38 42L38 41L39 41L39 39L38 39L38 37L39 37L39 38L40 38L40 41L41 41L41 42L40 42L40 43L44 43L44 45L45 45L45 46L44 46L44 47L45 47L45 48L46 48L46 44L47 44L47 45L48 45L48 44L49 44L49 42L48 42L48 44L47 44L47 43L46 43L46 41L45 41L45 43L44 43L44 42L42 42L42 41L41 41L41 39L42 39L42 40L43 40L43 39L42 39L42 36L41 36L41 35L40 35L40 36L38 36L38 35L39 35L39 34L38 34L38 33L39 33L39 32L40 32L40 34L42 34L42 33L41 33L41 32L40 32L40 31L38 31L38 30L37 30L37 31L36 31L36 33L35 33L35 34L34 34L34 32L35 32L35 31L34 31L34 29L35 29L35 27ZM49 27L49 30L52 30L52 27ZM6 28L6 29L7 29L7 28ZM28 28L28 29L29 29L29 28ZM46 28L46 29L45 29L45 30L46 30L46 31L45 31L45 32L46 32L46 31L47 31L47 29L48 29L48 28ZM50 28L50 29L51 29L51 28ZM0 30L0 34L1 34L1 33L2 33L2 30ZM15 30L15 31L16 31L16 32L15 32L15 33L11 33L11 32L9 32L9 33L10 33L10 34L16 34L16 33L17 33L17 31L18 31L18 30L17 30L17 31L16 31L16 30ZM54 30L54 32L55 32L55 31L56 31L56 30ZM37 31L37 32L38 32L38 31ZM6 32L6 33L8 33L8 32ZM36 33L36 35L35 35L35 36L34 36L34 39L35 39L35 41L34 41L34 42L35 42L35 41L36 41L36 38L37 38L37 37L36 37L36 35L38 35L38 34L37 34L37 33ZM17 34L17 35L18 35L18 34ZM47 34L47 35L48 35L48 36L49 36L49 35L48 35L48 34ZM15 35L15 36L16 36L16 37L17 37L17 36L16 36L16 35ZM1 36L1 38L3 38L3 36ZM22 36L22 37L23 37L23 36ZM28 36L28 37L29 37L29 36ZM31 36L31 37L32 37L32 36ZM53 36L53 37L52 37L52 38L53 38L53 37L54 37L54 38L55 38L55 37L54 37L54 36ZM35 37L35 38L36 38L36 37ZM16 38L16 39L17 39L17 38ZM24 38L24 39L25 39L25 38ZM28 38L28 39L29 39L29 38ZM37 39L37 41L38 41L38 39ZM16 40L16 41L17 41L17 40ZM28 41L28 43L30 43L30 42L29 42L29 41ZM18 43L18 44L19 44L19 43ZM24 43L24 44L25 44L25 43ZM37 43L37 44L36 44L36 45L37 45L37 46L38 46L38 45L37 45L37 44L39 44L39 43ZM40 44L40 45L39 45L39 46L41 46L41 47L40 47L40 49L41 49L41 47L42 47L42 45L43 45L43 44L42 44L42 45L41 45L41 44ZM2 45L2 46L1 46L1 47L2 47L2 46L3 46L3 47L5 47L5 46L3 46L3 45ZM24 45L24 46L26 46L26 45ZM49 45L49 46L50 46L50 45ZM53 45L53 46L54 46L54 45ZM21 46L21 48L22 48L22 46ZM37 47L37 48L36 48L36 49L37 49L37 51L38 51L38 47ZM16 48L16 49L17 49L17 48ZM33 48L33 49L34 49L34 48ZM27 49L27 52L30 52L30 49ZM49 49L49 52L52 52L52 49ZM13 50L13 51L14 51L14 50ZM28 50L28 51L29 51L29 50ZM50 50L50 51L51 51L51 50ZM31 51L31 52L32 52L32 51ZM47 51L47 52L48 52L48 51ZM39 52L39 53L40 53L40 52ZM27 53L27 55L28 55L28 53ZM31 53L31 54L30 54L30 55L33 55L33 54L32 54L32 53ZM11 54L11 55L12 55L12 56L13 56L13 55L12 55L12 54ZM21 54L21 55L23 55L23 54ZM24 54L24 55L25 55L25 54ZM45 54L45 56L46 56L46 54ZM36 56L36 57L37 57L37 56ZM51 56L51 57L53 57L53 56ZM56 56L56 57L57 57L57 56ZM0 0L0 7L7 7L7 0ZM1 1L1 6L6 6L6 1ZM2 2L2 5L5 5L5 2ZM50 0L50 7L57 7L57 0ZM51 1L51 6L56 6L56 1ZM52 2L52 5L55 5L55 2ZM0 50L0 57L7 57L7 50ZM1 51L1 56L6 56L6 51ZM2 52L2 55L5 55L5 52Z" fill="#000000"/></g></g></svg>
