<?xml version="1.0" encoding="UTF-8"?>
<svg xmlns="http://www.w3.org/2000/svg" version="1.1" width="300" height="300" viewBox="0 0 300 300"><rect x="0" y="0" width="300" height="300" fill="#fefefe"/><g transform="scale(4.615)"><g transform="translate(4,4)"><path fill-rule="evenodd" d="M12 0L12 1L11 1L11 2L10 2L10 1L8 1L8 2L10 2L10 4L9 4L9 3L8 3L8 4L9 4L9 5L8 5L8 7L9 7L9 6L10 6L10 8L6 8L6 9L5 9L5 8L0 8L0 9L2 9L2 10L0 10L0 12L2 12L2 14L1 14L1 15L0 15L0 17L1 17L1 18L2 18L2 19L4 19L4 20L5 20L5 21L8 21L8 22L9 22L9 23L8 23L8 24L6 24L6 25L5 25L5 22L4 22L4 21L3 21L3 20L1 20L1 19L0 19L0 22L2 22L2 23L1 23L1 24L2 24L2 25L0 25L0 26L2 26L2 25L3 25L3 27L2 27L2 28L1 28L1 27L0 27L0 30L1 30L1 29L2 29L2 32L3 32L3 33L4 33L4 34L3 34L3 37L2 37L2 36L0 36L0 37L1 37L1 38L2 38L2 39L3 39L3 37L4 37L4 38L6 38L6 39L8 39L8 42L9 42L9 39L10 39L10 43L9 43L9 45L10 45L10 46L11 46L11 45L13 45L13 47L10 47L10 48L8 48L8 47L9 47L9 46L8 46L8 45L7 45L7 44L8 44L8 43L7 43L7 42L4 42L4 41L7 41L7 40L5 40L5 39L4 39L4 41L3 41L3 40L0 40L0 41L3 41L3 42L1 42L1 44L0 44L0 45L2 45L2 47L1 47L1 46L0 46L0 48L5 48L5 47L7 47L7 48L6 48L6 49L8 49L8 51L10 51L10 52L8 52L8 57L10 57L10 55L11 55L11 56L12 56L12 55L14 55L14 56L13 56L13 57L15 57L15 55L16 55L16 56L17 56L17 57L20 57L20 56L19 56L19 55L20 55L20 54L19 54L19 53L20 53L20 52L21 52L21 51L23 51L23 50L25 50L25 49L26 49L26 52L24 52L24 53L21 53L21 54L22 54L22 55L21 55L21 56L24 56L24 55L23 55L23 54L24 54L24 53L26 53L26 54L25 54L25 55L26 55L26 54L30 54L30 53L31 53L31 48L33 48L33 47L35 47L35 46L36 46L36 48L35 48L35 49L36 49L36 50L35 50L35 54L36 54L36 56L35 56L35 55L33 55L33 53L34 53L34 52L33 52L33 51L32 51L32 52L33 52L33 53L32 53L32 54L31 54L31 56L30 56L30 55L29 55L29 56L27 56L27 57L29 57L29 56L30 56L30 57L31 57L31 56L35 56L35 57L39 57L39 56L40 56L40 55L41 55L41 54L42 54L42 55L44 55L44 54L45 54L45 53L47 53L47 50L48 50L48 54L47 54L47 55L46 55L46 56L48 56L48 57L49 57L49 56L50 56L50 57L52 57L52 55L51 55L51 53L52 53L52 54L53 54L53 57L54 57L54 56L55 56L55 57L56 57L56 56L55 56L55 55L54 55L54 54L53 54L53 52L54 52L54 53L57 53L57 51L56 51L56 50L57 50L57 48L56 48L56 46L57 46L57 43L56 43L56 41L53 41L53 40L55 40L55 39L57 39L57 35L56 35L56 34L55 34L55 33L54 33L54 34L55 34L55 35L53 35L53 34L52 34L52 33L53 33L53 32L56 32L56 33L57 33L57 32L56 32L56 30L57 30L57 29L55 29L55 31L53 31L53 29L54 29L54 28L55 28L55 27L56 27L56 28L57 28L57 27L56 27L56 26L57 26L57 25L56 25L56 22L57 22L57 19L56 19L56 18L57 18L57 17L56 17L56 16L57 16L57 15L56 15L56 14L57 14L57 12L55 12L55 11L56 11L56 8L55 8L55 10L54 10L54 11L51 11L51 10L52 10L52 8L51 8L51 10L50 10L50 8L49 8L49 6L48 6L48 7L47 7L47 5L48 5L48 0L46 0L46 1L47 1L47 2L44 2L44 3L41 3L41 2L43 2L43 0L41 0L41 1L40 1L40 0L39 0L39 1L38 1L38 0L37 0L37 1L38 1L38 2L37 2L37 3L36 3L36 0L35 0L35 1L33 1L33 2L32 2L32 1L31 1L31 0L29 0L29 1L25 1L25 0L23 0L23 2L27 2L27 3L28 3L28 2L29 2L29 3L30 3L30 4L26 4L26 3L23 3L23 4L24 4L24 5L23 5L23 6L22 6L22 8L23 8L23 10L22 10L22 9L21 9L21 10L22 10L22 11L20 11L20 9L19 9L19 8L21 8L21 5L22 5L22 4L19 4L19 3L22 3L22 2L21 2L21 1L22 1L22 0L21 0L21 1L20 1L20 0L18 0L18 2L16 2L16 1L14 1L14 2L13 2L13 3L12 3L12 1L13 1L13 0ZM14 2L14 4L13 4L13 7L14 7L14 9L12 9L12 8L10 8L10 9L9 9L9 10L8 10L8 11L6 11L6 12L5 12L5 10L4 10L4 11L3 11L3 10L2 10L2 11L3 11L3 12L4 12L4 14L3 14L3 15L1 15L1 16L2 16L2 18L4 18L4 19L5 19L5 20L7 20L7 19L8 19L8 18L9 18L9 20L8 20L8 21L9 21L9 22L11 22L11 23L10 23L10 24L8 24L8 25L6 25L6 26L8 26L8 25L10 25L10 26L9 26L9 27L10 27L10 29L9 29L9 30L10 30L10 31L9 31L9 33L10 33L10 31L14 31L14 32L16 32L16 33L15 33L15 34L16 34L16 35L15 35L15 36L14 36L14 37L16 37L16 38L13 38L13 36L12 36L12 35L10 35L10 34L8 34L8 32L7 32L7 31L3 31L3 32L4 32L4 33L5 33L5 32L7 32L7 33L6 33L6 34L5 34L5 35L6 35L6 36L8 36L8 35L10 35L10 36L11 36L11 38L13 38L13 39L11 39L11 41L12 41L12 42L13 42L13 45L14 45L14 42L13 42L13 39L16 39L16 40L14 40L14 41L15 41L15 43L18 43L18 42L19 42L19 43L20 43L20 44L19 44L19 45L20 45L20 46L17 46L17 45L18 45L18 44L15 44L15 46L14 46L14 47L13 47L13 48L12 48L12 49L11 49L11 48L10 48L10 49L9 49L9 50L11 50L11 51L13 51L13 53L12 53L12 52L10 52L10 53L9 53L9 55L10 55L10 54L11 54L11 55L12 55L12 54L13 54L13 53L15 53L15 54L14 54L14 55L15 55L15 54L16 54L16 53L17 53L17 52L20 52L20 51L18 51L18 50L19 50L19 49L20 49L20 50L21 50L21 49L23 49L23 48L24 48L24 49L25 49L25 48L27 48L27 47L28 47L28 48L30 48L30 47L29 47L29 45L30 45L30 46L31 46L31 47L32 47L32 46L35 46L35 45L34 45L34 43L37 43L37 42L35 42L35 40L38 40L38 42L39 42L39 45L38 45L38 46L39 46L39 47L38 47L38 48L37 48L37 49L38 49L38 50L36 50L36 52L38 52L38 53L37 53L37 54L40 54L40 53L42 53L42 52L43 52L43 51L45 51L45 52L44 52L44 53L43 53L43 54L44 54L44 53L45 53L45 52L46 52L46 50L47 50L47 49L48 49L48 48L49 48L49 47L48 47L48 44L49 44L49 46L50 46L50 47L53 47L53 48L54 48L54 49L55 49L55 50L54 50L54 51L55 51L55 52L56 52L56 51L55 51L55 50L56 50L56 48L54 48L54 47L53 47L53 43L54 43L54 42L53 42L53 41L51 41L51 42L50 42L50 43L49 43L49 42L48 42L48 41L49 41L49 39L54 39L54 38L53 38L53 35L52 35L52 34L50 34L50 32L49 32L49 31L48 31L48 29L46 29L46 30L47 30L47 31L48 31L48 32L47 32L47 33L45 33L45 32L43 32L43 31L44 31L44 29L45 29L45 28L46 28L46 27L47 27L47 23L48 23L48 24L50 24L50 22L51 22L51 21L53 21L53 23L51 23L51 25L50 25L50 26L51 26L51 25L52 25L52 26L53 26L53 27L54 27L54 26L53 26L53 23L55 23L55 22L56 22L56 21L55 21L55 20L56 20L56 19L55 19L55 20L53 20L53 19L52 19L52 20L51 20L51 21L49 21L49 22L47 22L47 21L48 21L48 19L49 19L49 18L47 18L47 17L48 17L48 16L49 16L49 17L50 17L50 19L51 19L51 18L55 18L55 17L53 17L53 16L52 16L52 15L51 15L51 17L50 17L50 14L51 14L51 12L50 12L50 10L49 10L49 12L45 12L45 11L46 11L46 10L47 10L47 8L44 8L44 6L45 6L45 7L46 7L46 6L45 6L45 4L46 4L46 5L47 5L47 3L44 3L44 6L43 6L43 5L42 5L42 4L41 4L41 3L37 3L37 4L36 4L36 5L35 5L35 4L33 4L33 3L32 3L32 2L31 2L31 3L32 3L32 4L31 4L31 8L32 8L32 10L31 10L31 11L30 11L30 10L29 10L29 9L27 9L27 10L29 10L29 12L28 12L28 13L26 13L26 12L27 12L27 11L26 11L26 12L25 12L25 10L24 10L24 12L23 12L23 13L22 13L22 12L20 12L20 14L21 14L21 13L22 13L22 14L23 14L23 15L21 15L21 16L19 16L19 15L17 15L17 13L18 13L18 12L17 12L17 11L18 11L18 9L16 9L16 8L17 8L17 7L18 7L18 6L19 6L19 7L20 7L20 5L19 5L19 4L18 4L18 6L17 6L17 3L16 3L16 2ZM34 2L34 3L35 3L35 2ZM11 4L11 5L12 5L12 4ZM15 4L15 5L16 5L16 4ZM25 4L25 8L26 8L26 4ZM32 4L32 5L33 5L33 6L32 6L32 7L33 7L33 9L34 9L34 8L35 8L35 9L37 9L37 10L36 10L36 11L35 11L35 14L33 14L33 13L34 13L34 12L33 12L33 13L32 13L32 11L33 11L33 10L32 10L32 11L31 11L31 13L30 13L30 14L29 14L29 13L28 13L28 14L29 14L29 16L28 16L28 15L27 15L27 14L26 14L26 13L25 13L25 12L24 12L24 13L23 13L23 14L26 14L26 15L23 15L23 16L26 16L26 17L27 17L27 18L28 18L28 19L27 19L27 20L28 20L28 19L30 19L30 20L31 20L31 21L28 21L28 22L30 22L30 23L31 23L31 21L32 21L32 20L33 20L33 19L34 19L34 20L35 20L35 23L34 23L34 22L33 22L33 23L32 23L32 24L31 24L31 25L29 25L29 26L26 26L26 25L25 25L25 24L27 24L27 25L28 25L28 24L29 24L29 23L28 23L28 24L27 24L27 21L26 21L26 19L25 19L25 17L22 17L22 16L21 16L21 17L22 17L22 18L24 18L24 19L20 19L20 17L19 17L19 16L17 16L17 17L19 17L19 19L20 19L20 20L17 20L17 21L16 21L16 20L15 20L15 21L16 21L16 22L14 22L14 21L13 21L13 20L14 20L14 19L13 19L13 20L11 20L11 19L12 19L12 18L11 18L11 19L10 19L10 21L12 21L12 22L13 22L13 23L14 23L14 25L13 25L13 24L12 24L12 25L11 25L11 26L12 26L12 25L13 25L13 26L14 26L14 27L15 27L15 26L14 26L14 25L15 25L15 23L16 23L16 24L17 24L17 25L18 25L18 26L16 26L16 27L18 27L18 26L20 26L20 27L19 27L19 28L21 28L21 29L22 29L22 28L21 28L21 27L22 27L22 26L26 26L26 27L25 27L25 28L23 28L23 30L25 30L25 31L24 31L24 32L25 32L25 33L23 33L23 34L24 34L24 36L23 36L23 35L22 35L22 33L21 33L21 34L20 34L20 33L19 33L19 32L20 32L20 31L21 31L21 32L23 32L23 31L21 31L21 30L20 30L20 29L18 29L18 28L16 28L16 29L15 29L15 28L14 28L14 29L15 29L15 31L16 31L16 29L18 29L18 30L17 30L17 31L18 31L18 32L17 32L17 33L18 33L18 35L19 35L19 36L18 36L18 37L17 37L17 38L18 38L18 37L19 37L19 38L20 38L20 39L19 39L19 40L17 40L17 41L19 41L19 42L20 42L20 41L19 41L19 40L21 40L21 37L19 37L19 36L20 36L20 35L22 35L22 36L23 36L23 37L24 37L24 38L22 38L22 39L24 39L24 40L25 40L25 37L26 37L26 35L27 35L27 33L26 33L26 32L27 32L27 31L31 31L31 33L29 33L29 32L28 32L28 33L29 33L29 34L30 34L30 36L29 36L29 37L31 37L31 38L29 38L29 39L33 39L33 40L35 40L35 39L37 39L37 38L38 38L38 37L37 37L37 36L38 36L38 33L37 33L37 32L35 32L35 34L37 34L37 36L35 36L35 35L34 35L34 37L35 37L35 39L34 39L34 38L33 38L33 37L32 37L32 36L33 36L33 35L31 35L31 34L33 34L33 33L34 33L34 32L33 32L33 33L32 33L32 31L35 31L35 30L37 30L37 29L38 29L38 28L42 28L42 26L43 26L43 25L44 25L44 24L43 24L43 23L44 23L44 20L45 20L45 19L47 19L47 18L44 18L44 15L45 15L45 17L46 17L46 15L47 15L47 16L48 16L48 15L49 15L49 14L50 14L50 12L49 12L49 13L47 13L47 14L45 14L45 13L44 13L44 11L45 11L45 10L46 10L46 9L44 9L44 8L42 8L42 7L43 7L43 6L42 6L42 5L41 5L41 4L40 4L40 5L39 5L39 6L38 6L38 4L37 4L37 5L36 5L36 7L37 7L37 6L38 6L38 9L37 9L37 8L35 8L35 5L33 5L33 4ZM27 5L27 8L30 8L30 5ZM40 5L40 6L39 6L39 9L38 9L38 10L37 10L37 11L38 11L38 10L40 10L40 11L41 11L41 12L39 12L39 13L38 13L38 14L36 14L36 15L35 15L35 16L33 16L33 15L31 15L31 14L32 14L32 13L31 13L31 14L30 14L30 15L31 15L31 16L32 16L32 17L31 17L31 18L30 18L30 19L32 19L32 17L33 17L33 18L35 18L35 19L36 19L36 20L38 20L38 23L37 23L37 24L38 24L38 26L37 26L37 25L33 25L33 24L32 24L32 26L31 26L31 28L32 28L32 29L31 29L31 31L32 31L32 30L35 30L35 28L37 28L37 27L39 27L39 26L41 26L41 24L40 24L40 22L39 22L39 21L43 21L43 20L44 20L44 18L43 18L43 20L42 20L42 18L41 18L41 20L38 20L38 19L39 19L39 17L41 17L41 16L42 16L42 17L43 17L43 16L42 16L42 15L44 15L44 14L41 14L41 13L43 13L43 11L42 11L42 10L40 10L40 9L41 9L41 7L42 7L42 6L41 6L41 5ZM11 6L11 7L12 7L12 6ZM14 6L14 7L15 7L15 8L16 8L16 7L17 7L17 6L16 6L16 7L15 7L15 6ZM23 6L23 8L24 8L24 6ZM28 6L28 7L29 7L29 6ZM33 6L33 7L34 7L34 6ZM40 6L40 7L41 7L41 6ZM48 8L48 9L49 9L49 8ZM53 8L53 9L54 9L54 8ZM6 9L6 10L7 10L7 9ZM10 9L10 10L9 10L9 12L10 12L10 13L9 13L9 14L10 14L10 15L8 15L8 14L6 14L6 13L7 13L7 12L6 12L6 13L5 13L5 14L6 14L6 15L7 15L7 16L6 16L6 17L4 17L4 16L5 16L5 15L4 15L4 16L3 16L3 17L4 17L4 18L6 18L6 19L7 19L7 18L8 18L8 17L9 17L9 18L10 18L10 17L12 17L12 15L14 15L14 16L13 16L13 18L15 18L15 19L17 19L17 18L15 18L15 17L16 17L16 13L17 13L17 12L16 12L16 11L15 11L15 10L16 10L16 9L15 9L15 10L12 10L12 11L11 11L11 9ZM43 9L43 10L44 10L44 9ZM10 11L10 12L11 12L11 14L12 14L12 13L13 13L13 14L15 14L15 13L16 13L16 12L15 12L15 13L13 13L13 12L14 12L14 11L13 11L13 12L11 12L11 11ZM52 12L52 13L53 13L53 12ZM54 12L54 13L55 13L55 14L56 14L56 13L55 13L55 12ZM39 13L39 14L38 14L38 15L39 15L39 16L38 16L38 17L37 17L37 16L35 16L35 17L37 17L37 18L38 18L38 17L39 17L39 16L41 16L41 14L40 14L40 13ZM53 14L53 15L54 15L54 14ZM26 15L26 16L27 16L27 17L28 17L28 16L27 16L27 15ZM9 16L9 17L10 17L10 16ZM14 16L14 17L15 17L15 16ZM6 17L6 18L7 18L7 17ZM20 20L20 21L19 21L19 22L20 22L20 23L19 23L19 25L20 25L20 26L21 26L21 25L24 25L24 24L25 24L25 23L26 23L26 22L25 22L25 21L24 21L24 20ZM17 21L17 22L18 22L18 21ZM22 21L22 23L21 23L21 24L20 24L20 25L21 25L21 24L24 24L24 23L23 23L23 22L24 22L24 21ZM45 21L45 22L46 22L46 23L47 23L47 22L46 22L46 21ZM3 22L3 23L2 23L2 24L3 24L3 25L4 25L4 26L5 26L5 25L4 25L4 22ZM6 22L6 23L7 23L7 22ZM17 23L17 24L18 24L18 23ZM38 23L38 24L39 24L39 25L40 25L40 24L39 24L39 23ZM45 24L45 25L46 25L46 24ZM55 25L55 26L56 26L56 25ZM32 26L32 27L33 27L33 28L35 28L35 27L36 27L36 26L34 26L34 27L33 27L33 26ZM44 26L44 28L43 28L43 29L39 29L39 30L38 30L38 32L39 32L39 31L41 31L41 30L43 30L43 29L44 29L44 28L45 28L45 26ZM5 27L5 30L8 30L8 27ZM11 27L11 29L12 29L12 30L13 30L13 27ZM27 27L27 30L30 30L30 27ZM49 27L49 30L52 30L52 27ZM2 28L2 29L4 29L4 28ZM6 28L6 29L7 29L7 28ZM25 28L25 29L26 29L26 28ZM28 28L28 29L29 29L29 28ZM50 28L50 29L51 29L51 28ZM19 30L19 31L20 31L20 30ZM0 31L0 32L1 32L1 31ZM25 31L25 32L26 32L26 31ZM11 32L11 33L12 33L12 34L13 34L13 35L14 35L14 33L12 33L12 32ZM41 32L41 33L39 33L39 34L40 34L40 35L39 35L39 37L40 37L40 38L43 38L43 37L44 37L44 38L45 38L45 39L43 39L43 41L40 41L40 42L41 42L41 43L40 43L40 44L41 44L41 46L40 46L40 47L39 47L39 48L38 48L38 49L39 49L39 48L41 48L41 50L38 50L38 51L40 51L40 52L42 52L42 51L43 51L43 49L44 49L44 48L43 48L43 47L44 47L44 46L43 46L43 45L44 45L44 44L43 44L43 43L44 43L44 40L45 40L45 41L47 41L47 39L49 39L49 38L50 38L50 36L52 36L52 35L50 35L50 34L49 34L49 35L47 35L47 36L48 36L48 37L47 37L47 39L46 39L46 38L45 38L45 37L44 37L44 36L46 36L46 35L44 35L44 33L43 33L43 32ZM48 32L48 33L49 33L49 32ZM51 32L51 33L52 33L52 32ZM1 33L1 34L2 34L2 33ZM25 33L25 35L26 35L26 33ZM6 34L6 35L7 35L7 34ZM19 34L19 35L20 35L20 34ZM42 34L42 35L41 35L41 36L40 36L40 37L43 37L43 36L44 36L44 35L43 35L43 34ZM42 35L42 36L43 36L43 35ZM49 35L49 36L50 36L50 35ZM4 36L4 37L5 37L5 36ZM55 36L55 37L56 37L56 36ZM6 37L6 38L7 38L7 37ZM8 37L8 39L9 39L9 38L10 38L10 37ZM27 37L27 38L26 38L26 39L27 39L27 40L28 40L28 39L27 39L27 38L28 38L28 37ZM48 37L48 38L49 38L49 37ZM38 39L38 40L40 40L40 39ZM31 40L31 41L32 41L32 42L27 42L27 41L26 41L26 42L27 42L27 43L25 43L25 41L23 41L23 42L22 42L22 41L21 41L21 42L22 42L22 43L21 43L21 44L22 44L22 45L21 45L21 46L20 46L20 47L17 47L17 49L19 49L19 48L21 48L21 47L23 47L23 46L24 46L24 47L25 47L25 44L27 44L27 45L26 45L26 47L27 47L27 45L28 45L28 44L29 44L29 43L31 43L31 46L32 46L32 44L33 44L33 43L34 43L34 42L33 42L33 41L32 41L32 40ZM3 42L3 43L4 43L4 42ZM23 42L23 45L22 45L22 46L23 46L23 45L24 45L24 44L25 44L25 43L24 43L24 42ZM32 42L32 43L33 43L33 42ZM45 42L45 43L46 43L46 44L45 44L45 45L47 45L47 43L48 43L48 42ZM51 42L51 43L50 43L50 45L51 45L51 43L53 43L53 42ZM5 43L5 45L3 45L3 47L5 47L5 45L6 45L6 46L7 46L7 47L8 47L8 46L7 46L7 45L6 45L6 44L7 44L7 43ZM10 43L10 45L11 45L11 43ZM27 43L27 44L28 44L28 43ZM41 43L41 44L42 44L42 43ZM55 43L55 44L54 44L54 46L56 46L56 43ZM41 46L41 48L42 48L42 49L43 49L43 48L42 48L42 47L43 47L43 46ZM45 46L45 50L46 50L46 49L47 49L47 48L48 48L48 47L47 47L47 46ZM15 48L15 49L16 49L16 48ZM12 49L12 50L13 50L13 49ZM27 49L27 52L30 52L30 49ZM32 49L32 50L33 50L33 49ZM49 49L49 52L52 52L52 49ZM15 50L15 51L14 51L14 52L15 52L15 53L16 53L16 52L15 52L15 51L16 51L16 50ZM28 50L28 51L29 51L29 50ZM41 50L41 51L42 51L42 50ZM50 50L50 51L51 51L51 50ZM11 53L11 54L12 54L12 53ZM18 54L18 55L17 55L17 56L18 56L18 55L19 55L19 54ZM37 55L37 56L39 56L39 55ZM48 55L48 56L49 56L49 55ZM50 55L50 56L51 56L51 55ZM25 56L25 57L26 57L26 56ZM43 56L43 57L44 57L44 56ZM0 0L0 7L7 7L7 0ZM1 1L1 6L6 6L6 1ZM2 2L2 5L5 5L5 2ZM50 0L50 7L57 7L57 0ZM51 1L51 6L56 6L56 1ZM52 2L52 5L55 5L55 2ZM0 50L0 57L7 57L7 50ZM1 51L1 56L6 56L6 51ZM2 52L2 55L5 55L5 52Z" fill="#000000"/></g></g></svg>
