<?xml version="1.0" encoding="UTF-8"?>
<svg xmlns="http://www.w3.org/2000/svg" version="1.1" width="300" height="300" viewBox="0 0 300 300"><rect x="0" y="0" width="300" height="300" fill="#fefefe"/><g transform="scale(4.615)"><g transform="translate(4,4)"><path fill-rule="evenodd" d="M8 0L8 1L9 1L9 2L8 2L8 5L11 5L11 6L10 6L10 7L9 7L9 6L8 6L8 7L9 7L9 8L8 8L8 9L7 9L7 8L6 8L6 9L5 9L5 10L4 10L4 11L3 11L3 12L2 12L2 11L1 11L1 10L2 10L2 9L4 9L4 8L0 8L0 9L1 9L1 10L0 10L0 11L1 11L1 12L0 12L0 16L2 16L2 18L1 18L1 17L0 17L0 20L1 20L1 19L3 19L3 20L2 20L2 21L1 21L1 24L0 24L0 26L2 26L2 27L3 27L3 28L4 28L4 30L3 30L3 29L2 29L2 28L1 28L1 30L0 30L0 32L1 32L1 35L0 35L0 36L1 36L1 35L2 35L2 37L1 37L1 38L0 38L0 41L1 41L1 39L2 39L2 37L3 37L3 34L4 34L4 33L5 33L5 32L6 32L6 33L7 33L7 34L5 34L5 35L7 35L7 34L8 34L8 36L6 36L6 37L7 37L7 38L6 38L6 39L5 39L5 38L4 38L4 39L3 39L3 40L2 40L2 41L3 41L3 43L4 43L4 41L3 41L3 40L6 40L6 41L7 41L7 42L5 42L5 44L6 44L6 45L7 45L7 44L6 44L6 43L8 43L8 46L5 46L5 45L4 45L4 46L5 46L5 47L3 47L3 45L2 45L2 43L1 43L1 42L0 42L0 44L1 44L1 45L0 45L0 48L5 48L5 47L7 47L7 48L6 48L6 49L8 49L8 50L9 50L9 53L8 53L8 57L12 57L12 56L11 56L11 55L13 55L13 53L14 53L14 55L15 55L15 57L18 57L18 56L19 56L19 57L24 57L24 56L26 56L26 54L27 54L27 53L29 53L29 54L31 54L31 55L30 55L30 56L31 56L31 57L32 57L32 55L34 55L34 56L33 56L33 57L36 57L36 55L38 55L38 57L41 57L41 54L42 54L42 57L43 57L43 56L45 56L45 57L46 57L46 55L44 55L44 54L47 54L47 55L49 55L49 56L48 56L48 57L51 57L51 54L52 54L52 53L54 53L54 52L56 52L56 53L55 53L55 54L56 54L56 53L57 53L57 52L56 52L56 51L55 51L55 50L53 50L53 48L54 48L54 47L53 47L53 48L49 48L49 47L51 47L51 46L49 46L49 45L50 45L50 44L49 44L49 43L50 43L50 42L51 42L51 44L52 44L52 45L53 45L53 46L54 46L54 45L56 45L56 46L55 46L55 47L57 47L57 45L56 45L56 44L52 44L52 43L53 43L53 42L54 42L54 43L56 43L56 42L54 42L54 41L55 41L55 39L53 39L53 40L52 40L52 39L50 39L50 40L47 40L47 39L48 39L48 38L46 38L46 36L48 36L48 37L50 37L50 36L51 36L51 38L52 38L52 36L53 36L53 37L55 37L55 38L56 38L56 39L57 39L57 38L56 38L56 37L57 37L57 34L55 34L55 33L57 33L57 31L56 31L56 30L57 30L57 29L56 29L56 30L55 30L55 28L56 28L56 24L54 24L54 23L53 23L53 22L54 22L54 21L55 21L55 20L56 20L56 22L55 22L55 23L57 23L57 19L56 19L56 18L57 18L57 15L55 15L55 14L53 14L53 13L54 13L54 10L53 10L53 9L55 9L55 8L52 8L52 9L51 9L51 11L50 11L50 10L49 10L49 9L50 9L50 8L49 8L49 6L48 6L48 7L47 7L47 5L48 5L48 0L46 0L46 1L47 1L47 2L46 2L46 3L47 3L47 5L46 5L46 7L45 7L45 6L44 6L44 7L43 7L43 6L42 6L42 7L41 7L41 4L39 4L39 3L38 3L38 2L37 2L37 1L38 1L38 0L37 0L37 1L36 1L36 0L35 0L35 1L34 1L34 3L35 3L35 4L36 4L36 5L37 5L37 6L36 6L36 7L35 7L35 6L34 6L34 5L33 5L33 6L32 6L32 5L31 5L31 4L32 4L32 3L33 3L33 1L31 1L31 0L27 0L27 1L28 1L28 3L29 3L29 1L31 1L31 2L30 2L30 3L31 3L31 4L26 4L26 2L24 2L24 3L23 3L23 4L21 4L21 5L20 5L20 4L19 4L19 3L20 3L20 2L18 2L18 1L20 1L20 0L17 0L17 2L16 2L16 3L17 3L17 4L19 4L19 5L18 5L18 7L17 7L17 5L15 5L15 4L14 4L14 3L13 3L13 4L14 4L14 5L13 5L13 6L12 6L12 5L11 5L11 4L12 4L12 3L10 3L10 4L9 4L9 2L11 2L11 1L12 1L12 2L13 2L13 1L14 1L14 0L13 0L13 1L12 1L12 0ZM21 0L21 2L23 2L23 1L26 1L26 0L23 0L23 1L22 1L22 0ZM39 0L39 1L40 1L40 2L41 2L41 1L43 1L43 0L41 0L41 1L40 1L40 0ZM35 1L35 2L36 2L36 1ZM44 1L44 2L42 2L42 3L43 3L43 5L45 5L45 4L44 4L44 3L45 3L45 1ZM17 2L17 3L18 3L18 2ZM37 3L37 4L38 4L38 3ZM24 4L24 6L23 6L23 7L24 7L24 9L26 9L26 6L25 6L25 5L26 5L26 4ZM27 5L27 8L30 8L30 5ZM38 5L38 6L37 6L37 8L36 8L36 9L34 9L34 6L33 6L33 8L32 8L32 6L31 6L31 9L32 9L32 10L30 10L30 11L29 11L29 9L28 9L28 11L27 11L27 10L26 10L26 11L25 11L25 12L23 12L23 11L19 11L19 10L18 10L18 12L17 12L17 11L16 11L16 10L17 10L17 7L16 7L16 6L15 6L15 7L14 7L14 6L13 6L13 7L12 7L12 6L11 6L11 7L10 7L10 8L12 8L12 9L10 9L10 10L9 10L9 9L8 9L8 11L4 11L4 12L7 12L7 13L6 13L6 14L5 14L5 13L2 13L2 12L1 12L1 13L2 13L2 14L1 14L1 15L2 15L2 16L3 16L3 15L2 15L2 14L4 14L4 15L6 15L6 16L5 16L5 18L7 18L7 19L5 19L5 20L4 20L4 21L5 21L5 20L7 20L7 21L6 21L6 22L7 22L7 23L5 23L5 22L4 22L4 25L3 25L3 23L2 23L2 24L1 24L1 25L2 25L2 26L5 26L5 24L7 24L7 25L6 25L6 26L7 26L7 25L8 25L8 24L9 24L9 26L10 26L10 27L9 27L9 28L11 28L11 30L12 30L12 29L13 29L13 28L14 28L14 30L13 30L13 31L14 31L14 30L16 30L16 33L15 33L15 32L13 32L13 33L11 33L11 34L10 34L10 35L9 35L9 36L8 36L8 37L9 37L9 38L11 38L11 37L10 37L10 36L11 36L11 35L12 35L12 36L14 36L14 37L12 37L12 38L13 38L13 39L9 39L9 40L10 40L10 41L8 41L8 38L7 38L7 39L6 39L6 40L7 40L7 41L8 41L8 43L9 43L9 44L10 44L10 43L9 43L9 42L11 42L11 44L12 44L12 42L13 42L13 45L9 45L9 47L11 47L11 48L10 48L10 49L9 49L9 48L8 48L8 49L9 49L9 50L10 50L10 49L11 49L11 50L13 50L13 52L11 52L11 51L10 51L10 52L11 52L11 53L10 53L10 54L12 54L12 53L13 53L13 52L15 52L15 53L16 53L16 54L17 54L17 53L18 53L18 54L19 54L19 52L20 52L20 50L19 50L19 49L21 49L21 52L22 52L22 54L21 54L21 53L20 53L20 55L19 55L19 56L20 56L20 55L21 55L21 56L22 56L22 54L23 54L23 56L24 56L24 55L25 55L25 54L23 54L23 52L24 52L24 53L25 53L25 52L26 52L26 48L28 48L28 47L27 47L27 46L29 46L29 48L31 48L31 53L32 53L32 50L33 50L33 53L36 53L36 54L34 54L34 55L36 55L36 54L37 54L37 52L38 52L38 51L36 51L36 52L35 52L35 51L34 51L34 50L35 50L35 49L34 49L34 48L32 48L32 47L34 47L34 46L35 46L35 44L34 44L34 45L33 45L33 42L32 42L32 43L29 43L29 45L28 45L28 44L27 44L27 43L28 43L28 42L25 42L25 41L26 41L26 39L25 39L25 38L26 38L26 37L24 37L24 39L23 39L23 36L26 36L26 35L25 35L25 34L28 34L28 35L29 35L29 36L27 36L27 38L29 38L29 36L32 36L32 38L30 38L30 39L28 39L28 40L27 40L27 41L29 41L29 40L33 40L33 39L32 39L32 38L33 38L33 36L36 36L36 35L35 35L35 33L33 33L33 32L35 32L35 31L33 31L33 32L32 32L32 30L33 30L33 29L31 29L31 34L30 34L30 35L29 35L29 33L30 33L30 31L29 31L29 32L28 32L28 31L26 31L26 32L25 32L25 31L24 31L24 32L23 32L23 33L22 33L22 34L21 34L21 32L22 32L22 31L23 31L23 30L21 30L21 29L23 29L23 28L24 28L24 30L26 30L26 28L25 28L25 27L22 27L22 26L21 26L21 28L20 28L20 25L18 25L18 26L19 26L19 27L17 27L17 24L19 24L19 22L21 22L21 23L20 23L20 24L21 24L21 25L23 25L23 26L25 26L25 25L27 25L27 26L29 26L29 21L30 21L30 20L31 20L31 23L30 23L30 24L31 24L31 23L32 23L32 22L34 22L34 23L33 23L33 24L32 24L32 25L33 25L33 24L35 24L35 23L36 23L36 24L37 24L37 23L38 23L38 24L39 24L39 26L38 26L38 27L40 27L40 30L39 30L39 29L38 29L38 30L36 30L36 29L37 29L37 27L36 27L36 29L35 29L35 28L34 28L34 29L35 29L35 30L36 30L36 31L37 31L37 32L36 32L36 33L37 33L37 32L38 32L38 34L39 34L39 31L40 31L40 32L41 32L41 31L43 31L43 30L44 30L44 34L45 34L45 35L46 35L46 34L48 34L48 35L49 35L49 34L50 34L50 33L49 33L49 32L48 32L48 29L47 29L47 31L46 31L46 32L45 32L45 30L46 30L46 27L45 27L45 26L44 26L44 25L46 25L46 26L49 26L49 25L50 25L50 24L51 24L51 26L52 26L52 25L53 25L53 27L55 27L55 25L53 25L53 24L52 24L52 22L51 22L51 21L50 21L50 20L53 20L53 21L54 21L54 20L55 20L55 19L52 19L52 18L54 18L54 17L55 17L55 18L56 18L56 17L55 17L55 16L54 16L54 17L53 17L53 14L52 14L52 13L53 13L53 11L51 11L51 12L50 12L50 13L51 13L51 15L50 15L50 17L49 17L49 12L48 12L48 11L49 11L49 10L48 10L48 11L45 11L45 10L47 10L47 9L49 9L49 8L47 8L47 7L46 7L46 8L47 8L47 9L45 9L45 7L44 7L44 8L43 8L43 9L44 9L44 11L43 11L43 10L41 10L41 11L40 11L40 10L39 10L39 9L38 9L38 10L39 10L39 11L40 11L40 14L39 14L39 15L37 15L37 14L35 14L35 12L34 12L34 14L33 14L33 15L32 15L32 14L31 14L31 12L32 12L32 13L33 13L33 12L32 12L32 11L33 11L33 10L34 10L34 11L35 11L35 10L36 10L36 12L38 12L38 11L37 11L37 8L39 8L39 7L40 7L40 8L41 8L41 9L42 9L42 8L41 8L41 7L40 7L40 5ZM19 6L19 7L20 7L20 8L18 8L18 9L20 9L20 10L23 10L23 9L21 9L21 7L22 7L22 6L21 6L21 7L20 7L20 6ZM24 6L24 7L25 7L25 6ZM28 6L28 7L29 7L29 6ZM38 6L38 7L39 7L39 6ZM56 8L56 9L57 9L57 8ZM6 9L6 10L7 10L7 9ZM10 10L10 11L9 11L9 13L7 13L7 14L6 14L6 15L8 15L8 14L11 14L11 15L10 15L10 16L9 16L9 17L8 17L8 16L6 16L6 17L8 17L8 18L9 18L9 19L7 19L7 20L10 20L10 18L11 18L11 17L12 17L12 19L11 19L11 22L10 22L10 23L9 23L9 24L10 24L10 23L11 23L11 24L12 24L12 25L10 25L10 26L11 26L11 28L13 28L13 27L12 27L12 26L14 26L14 20L16 20L16 23L15 23L15 24L16 24L16 23L17 23L17 22L19 22L19 21L18 21L18 20L19 20L19 19L22 19L22 17L21 17L21 18L19 18L19 17L16 17L16 15L18 15L18 14L16 14L16 15L15 15L15 11L14 11L14 10L12 10L12 11L13 11L13 13L11 13L11 12L10 12L10 11L11 11L11 10ZM55 10L55 11L56 11L56 12L57 12L57 10ZM30 11L30 12L31 12L31 11ZM42 11L42 12L43 12L43 13L44 13L44 14L42 14L42 17L41 17L41 18L39 18L39 19L40 19L40 20L38 20L38 19L36 19L36 20L33 20L33 21L35 21L35 22L38 22L38 21L39 21L39 23L41 23L41 24L42 24L42 23L43 23L43 25L44 25L44 23L47 23L47 24L48 24L48 25L49 25L49 24L50 24L50 23L47 23L47 22L49 22L49 20L50 20L50 18L48 18L48 14L47 14L47 16L46 16L46 15L45 15L45 16L44 16L44 14L46 14L46 13L44 13L44 12L43 12L43 11ZM16 12L16 13L17 13L17 12ZM18 12L18 13L19 13L19 16L21 16L21 15L20 15L20 14L21 14L21 13L20 13L20 12ZM22 12L22 13L23 13L23 12ZM26 12L26 13L25 13L25 14L26 14L26 13L27 13L27 16L26 16L26 15L25 15L25 16L24 16L24 14L23 14L23 18L24 18L24 19L25 19L25 22L24 22L24 21L23 21L23 20L21 20L21 21L22 21L22 22L23 22L23 23L21 23L21 24L24 24L24 25L25 25L25 22L27 22L27 23L26 23L26 24L27 24L27 23L28 23L28 21L29 21L29 20L27 20L27 17L29 17L29 18L28 18L28 19L30 19L30 17L29 17L29 16L31 16L31 17L32 17L32 18L31 18L31 20L32 20L32 19L35 19L35 17L34 17L34 16L35 16L35 15L33 15L33 16L31 16L31 14L30 14L30 13L28 13L28 12ZM51 12L51 13L52 13L52 12ZM13 13L13 14L12 14L12 15L11 15L11 16L10 16L10 17L11 17L11 16L12 16L12 15L13 15L13 19L15 19L15 18L14 18L14 13ZM28 15L28 16L29 16L29 15ZM39 15L39 17L40 17L40 16L41 16L41 15ZM51 15L51 18L52 18L52 15ZM25 16L25 17L24 17L24 18L25 18L25 19L26 19L26 18L25 18L25 17L26 17L26 16ZM45 16L45 17L42 17L42 18L41 18L41 21L44 21L44 22L45 22L45 20L48 20L48 19L47 19L47 18L45 18L45 17L46 17L46 16ZM3 17L3 18L4 18L4 17ZM36 17L36 18L37 18L37 17ZM16 18L16 20L17 20L17 18ZM42 18L42 19L43 19L43 18ZM44 18L44 19L45 19L45 18ZM26 20L26 21L27 21L27 20ZM36 20L36 21L37 21L37 20ZM2 21L2 22L3 22L3 21ZM7 21L7 22L9 22L9 21ZM12 21L12 24L13 24L13 21ZM46 21L46 22L47 22L47 21ZM15 25L15 27L14 27L14 28L15 28L15 29L16 29L16 30L17 30L17 28L15 28L15 27L16 27L16 25ZM30 25L30 26L31 26L31 25ZM34 25L34 27L35 27L35 25ZM42 26L42 27L41 27L41 30L42 30L42 29L43 29L43 28L44 28L44 29L45 29L45 27L44 27L44 26ZM5 27L5 30L8 30L8 27ZM27 27L27 30L30 30L30 27ZM31 27L31 28L33 28L33 27ZM42 27L42 28L43 28L43 27ZM49 27L49 30L52 30L52 27ZM6 28L6 29L7 29L7 28ZM18 28L18 29L19 29L19 28ZM28 28L28 29L29 29L29 28ZM50 28L50 29L51 29L51 28ZM53 28L53 29L54 29L54 28ZM9 29L9 30L10 30L10 29ZM1 30L1 32L2 32L2 34L3 34L3 33L4 33L4 32L5 32L5 31L3 31L3 30ZM18 30L18 31L17 31L17 33L18 33L18 34L20 34L20 32L19 32L19 33L18 33L18 31L19 31L19 30ZM20 30L20 31L21 31L21 30ZM38 30L38 31L39 31L39 30ZM53 30L53 31L52 31L52 34L54 34L54 32L55 32L55 30ZM2 31L2 32L3 32L3 31ZM6 31L6 32L7 32L7 31ZM10 31L10 32L11 32L11 31ZM50 31L50 32L51 32L51 31ZM8 32L8 34L9 34L9 32ZM24 32L24 33L23 33L23 35L20 35L20 36L23 36L23 35L24 35L24 34L25 34L25 32ZM26 32L26 33L28 33L28 32ZM42 32L42 33L43 33L43 32ZM46 32L46 33L47 33L47 32ZM13 33L13 35L14 35L14 33ZM32 33L32 34L31 34L31 35L32 35L32 36L33 36L33 35L34 35L34 34L33 34L33 33ZM16 34L16 36L17 36L17 38L14 38L14 39L13 39L13 40L12 40L12 41L11 41L11 42L12 42L12 41L13 41L13 42L14 42L14 44L15 44L15 45L14 45L14 46L12 46L12 48L11 48L11 49L13 49L13 50L15 50L15 51L19 51L19 50L15 50L15 47L16 47L16 49L19 49L19 48L23 48L23 49L22 49L22 50L23 50L23 49L24 49L24 46L25 46L25 45L26 45L26 46L27 46L27 45L26 45L26 43L25 43L25 44L24 44L24 45L23 45L23 46L22 46L22 44L23 44L23 42L24 42L24 41L25 41L25 39L24 39L24 40L23 40L23 41L22 41L22 39L21 39L21 38L22 38L22 37L21 37L21 38L20 38L20 37L19 37L19 35L18 35L18 36L17 36L17 34ZM41 34L41 35L39 35L39 36L38 36L38 35L37 35L37 36L38 36L38 37L39 37L39 36L40 36L40 37L41 37L41 38L44 38L44 39L46 39L46 38L45 38L45 36L44 36L44 37L43 37L43 36L42 36L42 34ZM51 35L51 36L52 36L52 35ZM54 35L54 36L55 36L55 37L56 37L56 36L55 36L55 35ZM4 36L4 37L5 37L5 36ZM41 36L41 37L42 37L42 36ZM34 37L34 38L36 38L36 39L35 39L35 40L34 40L34 41L36 41L36 42L34 42L34 43L36 43L36 47L35 47L35 48L37 48L37 49L36 49L36 50L37 50L37 49L38 49L38 48L39 48L39 49L40 49L40 50L39 50L39 52L40 52L40 54L41 54L41 52L42 52L42 54L43 54L43 51L45 51L45 52L46 52L46 50L47 50L47 52L48 52L48 48L46 48L46 50L43 50L43 47L39 47L39 46L40 46L40 45L38 45L38 44L41 44L41 43L42 43L42 45L45 45L45 47L44 47L44 49L45 49L45 47L46 47L46 46L48 46L48 47L49 47L49 46L48 46L48 45L49 45L49 44L43 44L43 43L45 43L45 41L46 41L46 40L45 40L45 41L44 41L44 40L43 40L43 39L41 39L41 40L40 40L40 41L37 41L37 40L38 40L38 39L39 39L39 38L37 38L37 37ZM17 38L17 39L16 39L16 41L19 41L19 43L18 43L18 42L15 42L15 40L14 40L14 42L15 42L15 44L16 44L16 43L17 43L17 45L15 45L15 46L14 46L14 47L15 47L15 46L16 46L16 47L17 47L17 48L18 48L18 46L17 46L17 45L19 45L19 44L20 44L20 46L19 46L19 47L22 47L22 46L21 46L21 44L22 44L22 41L21 41L21 40L17 40L17 39L19 39L19 38ZM42 40L42 41L41 41L41 42L37 42L37 44L38 44L38 43L41 43L41 42L42 42L42 43L43 43L43 42L42 42L42 41L43 41L43 40ZM50 40L50 41L47 41L47 42L46 42L46 43L47 43L47 42L48 42L48 43L49 43L49 42L50 42L50 41L52 41L52 40ZM56 40L56 41L57 41L57 40ZM20 42L20 43L21 43L21 42ZM1 45L1 47L2 47L2 45ZM32 45L32 46L31 46L31 47L32 47L32 46L33 46L33 45ZM37 45L37 47L38 47L38 45ZM25 47L25 48L26 48L26 47ZM13 48L13 49L14 49L14 48ZM41 48L41 49L42 49L42 48ZM56 48L56 49L57 49L57 48ZM27 49L27 52L30 52L30 49ZM33 49L33 50L34 50L34 49ZM49 49L49 52L52 52L52 49ZM24 50L24 51L25 51L25 50ZM28 50L28 51L29 51L29 50ZM50 50L50 51L51 51L51 50ZM40 51L40 52L41 52L41 51ZM38 53L38 54L39 54L39 53ZM48 53L48 54L50 54L50 53ZM53 54L53 56L52 56L52 57L55 57L55 56L54 56L54 54ZM17 55L17 56L18 56L18 55ZM27 55L27 56L28 56L28 55ZM56 55L56 56L57 56L57 55ZM0 0L0 7L7 7L7 0ZM1 1L1 6L6 6L6 1ZM2 2L2 5L5 5L5 2ZM50 0L50 7L57 7L57 0ZM51 1L51 6L56 6L56 1ZM52 2L52 5L55 5L55 2ZM0 50L0 57L7 57L7 50ZM1 51L1 56L6 56L6 51ZM2 52L2 55L5 55L5 52Z" fill="#000000"/></g></g></svg>
