<?xml version="1.0" encoding="UTF-8"?>
<svg xmlns="http://www.w3.org/2000/svg" version="1.1" width="300" height="300" viewBox="0 0 300 300"><rect x="0" y="0" width="300" height="300" fill="#fefefe"/><g transform="scale(4.615)"><g transform="translate(4,4)"><path fill-rule="evenodd" d="M8 0L8 2L9 2L9 4L8 4L8 10L6 10L6 9L7 9L7 8L5 8L5 9L4 9L4 11L3 11L3 10L2 10L2 11L0 11L0 12L1 12L1 13L0 13L0 14L1 14L1 15L0 15L0 17L1 17L1 15L2 15L2 14L4 14L4 15L3 15L3 16L2 16L2 17L3 17L3 18L4 18L4 19L1 19L1 18L0 18L0 19L1 19L1 22L2 22L2 21L3 21L3 22L4 22L4 23L2 23L2 24L3 24L3 26L2 26L2 25L0 25L0 29L1 29L1 28L2 28L2 27L3 27L3 28L4 28L4 30L3 30L3 29L2 29L2 30L0 30L0 37L1 37L1 39L0 39L0 40L1 40L1 39L2 39L2 38L3 38L3 40L2 40L2 41L1 41L1 42L2 42L2 43L3 43L3 44L1 44L1 43L0 43L0 45L2 45L2 47L1 47L1 46L0 46L0 48L5 48L5 47L7 47L7 46L5 46L5 47L3 47L3 45L4 45L4 43L3 43L3 40L5 40L5 39L7 39L7 38L8 38L8 37L7 37L7 36L5 36L5 35L7 35L7 34L8 34L8 35L9 35L9 38L11 38L11 37L12 37L12 36L11 36L11 34L10 34L10 35L9 35L9 34L8 34L8 32L9 32L9 33L10 33L10 32L9 32L9 31L10 31L10 30L9 30L9 28L12 28L12 26L13 26L13 27L14 27L14 28L15 28L15 27L16 27L16 28L17 28L17 27L16 27L16 25L17 25L17 23L16 23L16 22L18 22L18 23L19 23L19 20L20 20L20 21L21 21L21 22L20 22L20 23L21 23L21 24L22 24L22 25L21 25L21 27L20 27L20 24L18 24L18 25L19 25L19 27L18 27L18 28L19 28L19 27L20 27L20 28L21 28L21 30L20 30L20 29L19 29L19 30L15 30L15 29L14 29L14 30L13 30L13 29L11 29L11 33L14 33L14 34L12 34L12 35L13 35L13 36L14 36L14 37L13 37L13 38L12 38L12 40L11 40L11 39L9 39L9 40L6 40L6 41L7 41L7 42L5 42L5 44L6 44L6 45L7 45L7 44L8 44L8 45L9 45L9 46L11 46L11 45L9 45L9 44L11 44L11 43L13 43L13 44L12 44L12 46L13 46L13 48L12 48L12 47L11 47L11 48L10 48L10 49L13 49L13 51L14 51L14 52L13 52L13 53L12 53L12 52L11 52L11 51L12 51L12 50L10 50L10 54L8 54L8 57L9 57L9 55L10 55L10 56L11 56L11 57L14 57L14 56L15 56L15 57L17 57L17 55L16 55L16 54L18 54L18 53L19 53L19 51L20 51L20 53L21 53L21 52L22 52L22 53L23 53L23 55L22 55L22 57L23 57L23 56L24 56L24 57L25 57L25 56L26 56L26 57L28 57L28 55L29 55L29 57L33 57L33 55L30 55L30 54L31 54L31 53L32 53L32 54L34 54L34 57L35 57L35 55L37 55L37 54L36 54L36 53L37 53L37 52L38 52L38 53L39 53L39 56L40 56L40 57L41 57L41 55L40 55L40 54L42 54L42 57L43 57L43 54L42 54L42 53L43 53L43 52L44 52L44 57L47 57L47 56L46 56L46 53L49 53L49 54L48 54L48 55L49 55L49 56L48 56L48 57L50 57L50 55L49 55L49 54L52 54L52 55L53 55L53 56L51 56L51 57L54 57L54 55L57 55L57 54L55 54L55 52L54 52L54 51L53 51L53 50L54 50L54 49L53 49L53 48L54 48L54 47L53 47L53 46L52 46L52 45L53 45L53 44L54 44L54 43L55 43L55 42L54 42L54 39L55 39L55 38L57 38L57 33L56 33L56 31L57 31L57 28L56 28L56 27L57 27L57 24L56 24L56 23L57 23L57 21L56 21L56 20L55 20L55 21L54 21L54 19L57 19L57 13L56 13L56 11L57 11L57 10L56 10L56 11L55 11L55 9L57 9L57 8L55 8L55 9L54 9L54 10L53 10L53 8L49 8L49 11L48 11L48 7L49 7L49 6L48 6L48 7L47 7L47 5L48 5L48 0L46 0L46 1L45 1L45 0L42 0L42 1L41 1L41 0L38 0L38 2L37 2L37 1L35 1L35 0L34 0L34 2L33 2L33 0L32 0L32 1L31 1L31 0L30 0L30 1L28 1L28 2L29 2L29 3L30 3L30 4L26 4L26 3L27 3L27 0L26 0L26 1L25 1L25 0L24 0L24 1L23 1L23 0L20 0L20 1L19 1L19 3L21 3L21 5L20 5L20 7L19 7L19 5L18 5L18 9L19 9L19 10L17 10L17 11L16 11L16 8L14 8L14 9L15 9L15 11L14 11L14 12L15 12L15 11L16 11L16 12L17 12L17 14L15 14L15 15L14 15L14 16L13 16L13 15L12 15L12 14L13 14L13 13L12 13L12 12L13 12L13 9L12 9L12 8L11 8L11 5L12 5L12 7L13 7L13 5L14 5L14 7L15 7L15 6L16 6L16 7L17 7L17 6L16 6L16 5L17 5L17 4L16 4L16 3L15 3L15 2L17 2L17 1L18 1L18 0L16 0L16 1L15 1L15 0L13 0L13 1L14 1L14 3L13 3L13 2L12 2L12 3L13 3L13 5L12 5L12 4L11 4L11 3L10 3L10 2L11 2L11 1L12 1L12 0L10 0L10 2L9 2L9 0ZM20 1L20 2L21 2L21 1ZM24 1L24 4L25 4L25 1ZM30 1L30 3L31 3L31 1ZM39 1L39 2L38 2L38 3L37 3L37 2L35 2L35 3L36 3L36 4L35 4L35 9L34 9L34 10L33 10L33 9L32 9L32 8L34 8L34 3L33 3L33 2L32 2L32 5L31 5L31 9L30 9L30 10L29 10L29 9L28 9L28 11L27 11L27 10L25 10L25 9L26 9L26 5L24 5L24 6L23 6L23 5L22 5L22 6L21 6L21 9L20 9L20 8L19 8L19 9L20 9L20 11L18 11L18 12L20 12L20 16L19 16L19 13L18 13L18 14L17 14L17 15L15 15L15 16L16 16L16 18L17 18L17 17L18 17L18 18L19 18L19 19L20 19L20 20L22 20L22 19L23 19L23 18L21 18L21 17L20 17L20 16L21 16L21 14L22 14L22 16L24 16L24 18L26 18L26 16L27 16L27 19L26 19L26 20L27 20L27 22L26 22L26 23L27 23L27 25L26 25L26 26L27 26L27 25L28 25L28 26L29 26L29 25L28 25L28 24L30 24L30 26L31 26L31 25L32 25L32 27L31 27L31 30L32 30L32 31L31 31L31 32L30 32L30 31L27 31L27 33L28 33L28 34L26 34L26 33L25 33L25 32L26 32L26 30L25 30L25 29L24 29L24 28L25 28L25 25L24 25L24 24L23 24L23 23L22 23L22 22L21 22L21 23L22 23L22 24L23 24L23 25L24 25L24 26L23 26L23 27L22 27L22 28L23 28L23 29L22 29L22 30L21 30L21 32L20 32L20 31L19 31L19 33L18 33L18 31L16 31L16 32L14 32L14 31L12 31L12 32L14 32L14 33L16 33L16 34L14 34L14 36L15 36L15 37L14 37L14 39L15 39L15 41L16 41L16 43L17 43L17 42L18 42L18 39L19 39L19 38L18 38L18 36L19 36L19 35L20 35L20 36L21 36L21 38L20 38L20 39L21 39L21 41L20 41L20 40L19 40L19 41L20 41L20 42L21 42L21 43L20 43L20 44L19 44L19 43L18 43L18 44L19 44L19 45L18 45L18 46L17 46L17 45L16 45L16 44L15 44L15 42L13 42L13 40L12 40L12 42L13 42L13 43L14 43L14 44L13 44L13 46L14 46L14 47L16 47L16 48L15 48L15 49L16 49L16 50L17 50L17 51L16 51L16 52L17 52L17 53L18 53L18 52L17 52L17 51L19 51L19 49L18 49L18 48L17 48L17 47L20 47L20 51L22 51L22 52L24 52L24 51L25 51L25 54L24 54L24 55L26 55L26 54L27 54L27 55L28 55L28 53L26 53L26 51L25 51L25 50L26 50L26 48L27 48L27 47L28 47L28 46L29 46L29 47L30 47L30 48L31 48L31 52L32 52L32 48L34 48L34 50L35 50L35 51L37 51L37 49L36 49L36 48L37 48L37 47L38 47L38 52L39 52L39 53L40 53L40 52L39 52L39 49L40 49L40 51L41 51L41 53L42 53L42 51L41 51L41 49L42 49L42 50L44 50L44 51L45 51L45 49L46 49L46 50L47 50L47 47L48 47L48 46L49 46L49 48L51 48L51 47L50 47L50 45L52 45L52 44L53 44L53 40L52 40L52 44L50 44L50 42L49 42L49 41L51 41L51 40L48 40L48 38L47 38L47 36L48 36L48 37L49 37L49 36L50 36L50 33L51 33L51 37L50 37L50 38L51 38L51 39L52 39L52 38L53 38L53 37L54 37L54 38L55 38L55 37L56 37L56 36L55 36L55 35L56 35L56 34L55 34L55 33L53 33L53 32L52 32L52 31L49 31L49 32L50 32L50 33L49 33L49 34L48 34L48 33L46 33L46 34L45 34L45 35L46 35L46 36L45 36L45 37L46 37L46 38L47 38L47 40L46 40L46 42L47 42L47 44L46 44L46 47L45 47L45 45L44 45L44 44L45 44L45 41L44 41L44 39L43 39L43 38L44 38L44 35L43 35L43 33L42 33L42 31L44 31L44 30L46 30L46 32L47 32L47 30L48 30L48 29L47 29L47 28L46 28L46 29L44 29L44 28L42 28L42 31L41 31L41 29L40 29L40 28L41 28L41 25L40 25L40 23L41 23L41 24L42 24L42 27L45 27L45 25L44 25L44 24L46 24L46 23L47 23L47 21L46 21L46 19L48 19L48 20L49 20L49 21L48 21L48 23L49 23L49 22L50 22L50 24L48 24L48 26L47 26L47 25L46 25L46 26L47 26L47 27L48 27L48 26L49 26L49 25L50 25L50 26L52 26L52 23L53 23L53 22L52 22L52 20L53 20L53 19L54 19L54 17L52 17L52 15L54 15L54 16L55 16L55 17L56 17L56 16L55 16L55 15L56 15L56 13L55 13L55 11L54 11L54 12L53 12L53 13L54 13L54 14L52 14L52 13L50 13L50 11L49 11L49 12L48 12L48 14L47 14L47 13L46 13L46 11L47 11L47 9L46 9L46 8L45 8L45 7L46 7L46 5L47 5L47 3L46 3L46 5L44 5L44 4L45 4L45 1L42 1L42 3L41 3L41 2L40 2L40 1ZM46 1L46 2L47 2L47 1ZM22 2L22 4L23 4L23 2ZM39 2L39 4L38 4L38 5L39 5L39 4L40 4L40 2ZM43 2L43 3L42 3L42 7L41 7L41 6L40 6L40 7L41 7L41 8L40 8L40 9L41 9L41 11L39 11L39 10L38 10L38 8L39 8L39 6L38 6L38 7L37 7L37 6L36 6L36 10L34 10L34 11L32 11L32 9L31 9L31 10L30 10L30 12L29 12L29 11L28 11L28 12L27 12L27 14L26 14L26 11L24 11L24 9L25 9L25 8L22 8L22 9L21 9L21 10L22 10L22 9L23 9L23 11L22 11L22 12L23 12L23 14L24 14L24 16L26 16L26 15L27 15L27 14L28 14L28 15L29 15L29 16L30 16L30 17L28 17L28 18L30 18L30 17L31 17L31 16L30 16L30 15L29 15L29 13L30 13L30 12L31 12L31 11L32 11L32 14L33 14L33 15L32 15L32 18L31 18L31 19L30 19L30 20L29 20L29 19L28 19L28 21L29 21L29 22L28 22L28 23L29 23L29 22L30 22L30 24L31 24L31 23L32 23L32 25L33 25L33 26L34 26L34 24L36 24L36 26L37 26L37 28L36 28L36 29L35 29L35 27L34 27L34 29L33 29L33 28L32 28L32 29L33 29L33 31L32 31L32 35L31 35L31 34L30 34L30 32L29 32L29 34L28 34L28 35L26 35L26 34L24 34L24 32L23 32L23 30L24 30L24 29L23 29L23 30L22 30L22 33L23 33L23 34L22 34L22 35L25 35L25 36L24 36L24 37L25 37L25 36L28 36L28 37L29 37L29 36L28 36L28 35L31 35L31 36L30 36L30 43L31 43L31 44L32 44L32 45L31 45L31 46L30 46L30 47L31 47L31 48L32 48L32 47L34 47L34 48L35 48L35 47L37 47L37 46L38 46L38 45L37 45L37 44L39 44L39 43L40 43L40 46L39 46L39 47L40 47L40 49L41 49L41 47L42 47L42 45L43 45L43 46L44 46L44 45L43 45L43 44L44 44L44 43L43 43L43 42L42 42L42 40L43 40L43 39L42 39L42 40L41 40L41 38L42 38L42 37L43 37L43 35L40 35L40 36L38 36L38 35L39 35L39 34L38 34L38 33L39 33L39 32L40 32L40 34L42 34L42 33L41 33L41 32L40 32L40 31L38 31L38 30L37 30L37 28L38 28L38 29L39 29L39 30L40 30L40 29L39 29L39 28L40 28L40 26L38 26L38 25L37 25L37 24L36 24L36 23L37 23L37 22L38 22L38 23L39 23L39 22L38 22L38 21L39 21L39 19L40 19L40 22L41 22L41 23L42 23L42 24L43 24L43 22L44 22L44 23L45 23L45 22L46 22L46 21L45 21L45 19L44 19L44 17L47 17L47 18L48 18L48 17L49 17L49 18L50 18L50 19L49 19L49 20L51 20L51 19L52 19L52 17L51 17L51 18L50 18L50 16L51 16L51 15L52 15L52 14L51 14L51 15L50 15L50 13L49 13L49 14L48 14L48 15L46 15L46 13L45 13L45 12L44 12L44 11L43 11L43 10L46 10L46 9L45 9L45 8L44 8L44 7L45 7L45 6L44 6L44 5L43 5L43 4L44 4L44 2ZM14 3L14 4L15 4L15 3ZM9 4L9 7L10 7L10 5L11 5L11 4ZM27 5L27 8L30 8L30 5ZM22 6L22 7L23 7L23 6ZM24 6L24 7L25 7L25 6ZM28 6L28 7L29 7L29 6ZM32 6L32 7L33 7L33 6ZM43 6L43 7L42 7L42 8L43 8L43 9L42 9L42 10L43 10L43 9L44 9L44 8L43 8L43 7L44 7L44 6ZM0 8L0 10L1 10L1 9L3 9L3 8ZM50 9L50 10L52 10L52 9ZM5 10L5 11L4 11L4 12L2 12L2 13L1 13L1 14L2 14L2 13L5 13L5 14L8 14L8 13L9 13L9 15L10 15L10 18L11 18L11 17L12 17L12 18L13 18L13 17L12 17L12 16L11 16L11 14L12 14L12 13L11 13L11 10L8 10L8 11L6 11L6 10ZM5 11L5 13L8 13L8 12L6 12L6 11ZM20 11L20 12L21 12L21 11ZM23 11L23 12L24 12L24 14L25 14L25 12L24 12L24 11ZM34 11L34 12L35 12L35 13L34 13L34 15L33 15L33 17L34 17L34 18L33 18L33 19L34 19L34 18L36 18L36 19L37 19L37 18L36 18L36 14L37 14L37 13L38 13L38 15L37 15L37 16L38 16L38 18L40 18L40 19L41 19L41 18L40 18L40 14L41 14L41 13L40 13L40 12L37 12L37 11ZM41 11L41 12L42 12L42 15L41 15L41 17L42 17L42 18L43 18L43 17L44 17L44 16L45 16L45 13L44 13L44 12L42 12L42 11ZM51 11L51 12L52 12L52 11ZM36 12L36 13L37 13L37 12ZM10 13L10 14L11 14L11 13ZM39 13L39 14L40 14L40 13ZM43 13L43 16L44 16L44 13ZM54 14L54 15L55 15L55 14ZM4 15L4 18L5 18L5 19L6 19L6 20L3 20L3 21L4 21L4 22L5 22L5 25L4 25L4 26L5 26L5 25L6 25L6 26L8 26L8 25L9 25L9 24L7 24L7 23L8 23L8 21L9 21L9 20L10 20L10 22L9 22L9 23L10 23L10 22L11 22L11 23L13 23L13 24L12 24L12 25L11 25L11 26L12 26L12 25L13 25L13 26L14 26L14 27L15 27L15 26L14 26L14 25L16 25L16 24L14 24L14 23L13 23L13 22L11 22L11 21L12 21L12 19L9 19L9 20L8 20L8 18L9 18L9 16L8 16L8 15ZM17 15L17 16L18 16L18 17L19 17L19 18L20 18L20 19L21 19L21 18L20 18L20 17L19 17L19 16L18 16L18 15ZM34 15L34 17L35 17L35 15ZM49 15L49 16L50 16L50 15ZM5 16L5 18L6 18L6 19L7 19L7 18L8 18L8 16ZM6 17L6 18L7 18L7 17ZM14 19L14 20L16 20L16 19ZM24 19L24 20L25 20L25 19ZM43 19L43 21L42 21L42 20L41 20L41 21L42 21L42 22L43 22L43 21L44 21L44 22L45 22L45 21L44 21L44 19ZM6 20L6 21L8 21L8 20ZM17 20L17 21L18 21L18 20ZM30 20L30 22L33 22L33 21L34 21L34 22L35 22L35 23L36 23L36 22L37 22L37 21L38 21L38 20L37 20L37 21L36 21L36 20L35 20L35 21L34 21L34 20L33 20L33 21L32 21L32 20ZM14 21L14 22L15 22L15 21ZM35 21L35 22L36 22L36 21ZM55 21L55 22L54 22L54 24L55 24L55 25L54 25L54 26L55 26L55 27L54 27L54 28L53 28L53 29L56 29L56 28L55 28L55 27L56 27L56 26L55 26L55 25L56 25L56 24L55 24L55 23L56 23L56 21ZM6 22L6 23L7 23L7 22ZM24 22L24 23L25 23L25 22ZM51 22L51 23L52 23L52 22ZM0 23L0 24L1 24L1 23ZM33 23L33 24L34 24L34 23ZM6 24L6 25L7 25L7 24ZM13 24L13 25L14 25L14 24ZM50 24L50 25L51 25L51 24ZM5 27L5 30L8 30L8 27ZM27 27L27 30L30 30L30 27ZM49 27L49 30L52 30L52 27ZM6 28L6 29L7 29L7 28ZM28 28L28 29L29 29L29 28ZM50 28L50 29L51 29L51 28ZM34 29L34 31L33 31L33 33L34 33L34 34L33 34L33 35L35 35L35 37L34 37L34 36L33 36L33 37L34 37L34 39L33 39L33 38L31 38L31 43L32 43L32 40L33 40L33 41L34 41L34 42L35 42L35 41L36 41L36 43L35 43L35 44L33 44L33 45L32 45L32 46L31 46L31 47L32 47L32 46L33 46L33 45L34 45L34 47L35 47L35 46L36 46L36 44L37 44L37 43L39 43L39 42L40 42L40 43L41 43L41 45L42 45L42 44L43 44L43 43L42 43L42 42L40 42L40 38L39 38L39 37L38 37L38 38L37 38L37 37L36 37L36 35L38 35L38 34L37 34L37 33L36 33L36 31L37 31L37 32L38 32L38 31L37 31L37 30L35 30L35 29ZM43 29L43 30L44 30L44 29ZM2 30L2 31L1 31L1 33L3 33L3 32L2 32L2 31L3 31L3 30ZM54 30L54 32L55 32L55 31L56 31L56 30ZM6 31L6 32L7 32L7 31ZM34 31L34 33L35 33L35 35L36 35L36 33L35 33L35 31ZM4 32L4 33L5 33L5 34L7 34L7 33L5 33L5 32ZM2 34L2 35L1 35L1 37L2 37L2 36L3 36L3 38L4 38L4 39L5 39L5 38L4 38L4 35L3 35L3 34ZM16 34L16 35L15 35L15 36L16 36L16 37L17 37L17 36L16 36L16 35L19 35L19 34ZM46 34L46 35L48 35L48 36L49 36L49 35L48 35L48 34ZM53 34L53 36L52 36L52 37L51 37L51 38L52 38L52 37L53 37L53 36L54 36L54 37L55 37L55 36L54 36L54 34ZM10 36L10 37L11 37L11 36ZM22 36L22 37L23 37L23 36ZM31 36L31 37L32 37L32 36ZM41 36L41 37L42 37L42 36ZM6 37L6 38L7 38L7 37ZM35 37L35 38L36 38L36 41L37 41L37 42L38 42L38 41L39 41L39 38L38 38L38 41L37 41L37 38L36 38L36 37ZM16 38L16 39L17 39L17 38ZM21 38L21 39L22 39L22 41L23 41L23 39L22 39L22 38ZM24 38L24 39L26 39L26 38ZM28 38L28 39L29 39L29 38ZM34 39L34 41L35 41L35 39ZM9 40L9 41L8 41L8 42L7 42L7 43L6 43L6 44L7 44L7 43L8 43L8 44L9 44L9 43L11 43L11 40ZM25 40L25 41L26 41L26 42L24 42L24 44L25 44L25 45L26 45L26 46L25 46L25 47L26 47L26 46L27 46L27 42L28 42L28 44L29 44L29 45L30 45L30 44L29 44L29 42L28 42L28 41L29 41L29 40L28 40L28 41L27 41L27 40ZM47 40L47 41L48 41L48 40ZM55 40L55 41L57 41L57 40ZM9 41L9 42L8 42L8 43L9 43L9 42L10 42L10 41ZM56 42L56 44L55 44L55 45L56 45L56 47L55 47L55 49L56 49L56 47L57 47L57 42ZM22 43L22 44L23 44L23 43ZM48 43L48 44L47 44L47 45L50 45L50 44L49 44L49 43ZM14 44L14 46L16 46L16 47L17 47L17 46L16 46L16 45L15 45L15 44ZM19 45L19 46L20 46L20 47L21 47L21 48L22 48L22 50L23 50L23 51L24 51L24 49L23 49L23 48L22 48L22 46L20 46L20 45ZM23 45L23 47L24 47L24 45ZM40 46L40 47L41 47L41 46ZM44 47L44 49L45 49L45 47ZM52 47L52 48L53 48L53 47ZM6 48L6 49L7 49L7 48ZM13 48L13 49L14 49L14 48ZM16 48L16 49L17 49L17 50L18 50L18 49L17 49L17 48ZM8 49L8 50L9 50L9 49ZM27 49L27 52L30 52L30 49ZM49 49L49 52L52 52L52 49ZM14 50L14 51L15 51L15 50ZM28 50L28 51L29 51L29 50ZM50 50L50 51L51 51L51 50ZM56 50L56 52L57 52L57 50ZM8 51L8 52L9 52L9 51ZM33 51L33 52L34 52L34 54L35 54L35 53L36 53L36 52L34 52L34 51ZM47 51L47 52L48 52L48 51ZM14 52L14 53L15 53L15 52ZM45 52L45 53L46 53L46 52ZM53 53L53 54L54 54L54 53ZM10 54L10 55L12 55L12 56L14 56L14 55L15 55L15 54L14 54L14 55L12 55L12 54ZM20 54L20 55L21 55L21 54ZM18 56L18 57L19 57L19 56ZM20 56L20 57L21 57L21 56ZM36 56L36 57L37 57L37 56ZM56 56L56 57L57 57L57 56ZM0 0L0 7L7 7L7 0ZM1 1L1 6L6 6L6 1ZM2 2L2 5L5 5L5 2ZM50 0L50 7L57 7L57 0ZM51 1L51 6L56 6L56 1ZM52 2L52 5L55 5L55 2ZM0 50L0 57L7 57L7 50ZM1 51L1 56L6 56L6 51ZM2 52L2 55L5 55L5 52Z" fill="#000000"/></g></g></svg>
