<?xml version="1.0" encoding="UTF-8"?>
<svg xmlns="http://www.w3.org/2000/svg" version="1.1" width="300" height="300" viewBox="0 0 300 300"><rect x="0" y="0" width="300" height="300" fill="#fefefe"/><g transform="scale(4.615)"><g transform="translate(4,4)"><path fill-rule="evenodd" d="M8 0L8 1L10 1L10 2L11 2L11 1L10 1L10 0ZM13 0L13 1L12 1L12 3L10 3L10 5L11 5L11 6L10 6L10 7L9 7L9 6L8 6L8 7L9 7L9 8L8 8L8 9L9 9L9 10L6 10L6 9L7 9L7 8L6 8L6 9L4 9L4 8L0 8L0 9L4 9L4 10L0 10L0 11L1 11L1 13L0 13L0 14L1 14L1 15L0 15L0 17L2 17L2 14L3 14L3 15L4 15L4 14L5 14L5 17L4 17L4 18L0 18L0 19L1 19L1 20L0 20L0 21L1 21L1 22L0 22L0 23L1 23L1 26L3 26L3 25L4 25L4 23L1 23L1 22L2 22L2 21L3 21L3 19L4 19L4 20L5 20L5 19L7 19L7 18L8 18L8 19L9 19L9 20L8 20L8 21L7 21L7 20L6 20L6 21L4 21L4 22L6 22L6 23L10 23L10 24L11 24L11 25L10 25L10 26L4 26L4 30L3 30L3 27L2 27L2 29L0 29L0 33L1 33L1 34L3 34L3 35L1 35L1 36L0 36L0 40L1 40L1 39L3 39L3 38L2 38L2 37L4 37L4 38L5 38L5 39L7 39L7 40L5 40L5 41L7 41L7 42L5 42L5 43L4 43L4 42L3 42L3 44L2 44L2 41L4 41L4 40L2 40L2 41L0 41L0 45L1 45L1 46L0 46L0 48L5 48L5 47L7 47L7 48L6 48L6 49L8 49L8 50L9 50L9 48L10 48L10 49L11 49L11 51L10 51L10 52L9 52L9 53L8 53L8 57L9 57L9 53L10 53L10 52L12 52L12 53L11 53L11 54L10 54L10 55L11 55L11 56L10 56L10 57L11 57L11 56L12 56L12 57L14 57L14 56L12 56L12 55L11 55L11 54L12 54L12 53L13 53L13 55L14 55L14 53L15 53L15 56L16 56L16 57L18 57L18 56L17 56L17 55L18 55L18 53L17 53L17 54L16 54L16 53L15 53L15 51L14 51L14 50L16 50L16 51L17 51L17 52L18 52L18 51L19 51L19 50L20 50L20 52L19 52L19 55L20 55L20 56L19 56L19 57L23 57L23 56L22 56L22 55L23 55L23 54L25 54L25 55L24 55L24 56L26 56L26 54L27 54L27 53L29 53L29 54L31 54L31 55L30 55L30 56L31 56L31 57L32 57L32 55L33 55L33 54L36 54L36 55L34 55L34 56L33 56L33 57L36 57L36 55L37 55L37 54L36 54L36 53L34 53L34 52L36 52L36 51L37 51L37 52L38 52L38 51L39 51L39 50L40 50L40 49L39 49L39 48L38 48L38 49L37 49L37 48L35 48L35 47L38 47L38 45L41 45L41 46L40 46L40 47L43 47L43 50L46 50L46 52L45 52L45 51L40 51L40 52L39 52L39 54L38 54L38 57L41 57L41 56L42 56L42 57L43 57L43 56L45 56L45 57L46 57L46 55L44 55L44 54L47 54L47 56L48 56L48 55L49 55L49 57L51 57L51 54L52 54L52 53L54 53L54 55L55 55L55 54L56 54L56 53L54 53L54 52L55 52L55 50L53 50L53 48L54 48L54 49L55 49L55 48L54 48L54 46L55 46L55 47L57 47L57 45L56 45L56 46L55 46L55 44L52 44L52 43L53 43L53 42L54 42L54 43L56 43L56 44L57 44L57 43L56 43L56 42L57 42L57 40L56 40L56 41L55 41L55 39L53 39L53 38L52 38L52 36L53 36L53 37L55 37L55 38L56 38L56 39L57 39L57 38L56 38L56 36L54 36L54 35L57 35L57 31L56 31L56 30L57 30L57 29L56 29L56 30L55 30L55 28L57 28L57 27L56 27L56 24L54 24L54 23L57 23L57 21L56 21L56 20L57 20L57 19L56 19L56 20L54 20L54 21L56 21L56 22L53 22L53 20L50 20L50 19L49 19L49 18L48 18L48 14L47 14L47 17L46 17L46 16L44 16L44 14L46 14L46 13L44 13L44 10L45 10L45 9L44 9L44 10L43 10L43 8L44 8L44 7L45 7L45 6L44 6L44 7L43 7L43 5L45 5L45 4L44 4L44 3L45 3L45 1L44 1L44 2L41 2L41 1L43 1L43 0L41 0L41 1L40 1L40 0L39 0L39 1L40 1L40 2L41 2L41 4L39 4L39 3L37 3L37 1L38 1L38 0L37 0L37 1L36 1L36 0L35 0L35 1L34 1L34 2L35 2L35 4L36 4L36 5L40 5L40 7L39 7L39 6L38 6L38 7L39 7L39 8L37 8L37 6L36 6L36 7L35 7L35 6L34 6L34 5L33 5L33 6L32 6L32 5L31 5L31 4L32 4L32 3L33 3L33 2L32 2L32 1L33 1L33 0L32 0L32 1L31 1L31 0L29 0L29 2L30 2L30 3L31 3L31 4L28 4L28 1L27 1L27 4L26 4L26 0L23 0L23 1L25 1L25 2L24 2L24 3L23 3L23 4L22 4L22 0L21 0L21 5L20 5L20 4L19 4L19 3L20 3L20 0L18 0L18 1L17 1L17 2L16 2L16 1L15 1L15 2L16 2L16 3L18 3L18 7L19 7L19 8L20 8L20 7L21 7L21 6L22 6L22 7L23 7L23 8L21 8L21 9L23 9L23 10L21 10L21 11L19 11L19 12L18 12L18 10L17 10L17 11L16 11L16 8L15 8L15 6L16 6L16 7L17 7L17 5L15 5L15 4L14 4L14 3L13 3L13 1L14 1L14 0ZM46 0L46 1L47 1L47 2L46 2L46 3L47 3L47 5L46 5L46 7L47 7L47 8L49 8L49 9L47 9L47 10L46 10L46 11L47 11L47 12L49 12L49 16L50 16L50 17L51 17L51 18L52 18L52 19L55 19L55 17L56 17L56 18L57 18L57 15L54 15L54 14L53 14L53 13L54 13L54 10L53 10L53 13L52 13L52 12L51 12L51 11L52 11L52 10L51 10L51 11L50 11L50 10L49 10L49 9L50 9L50 8L49 8L49 6L48 6L48 7L47 7L47 5L48 5L48 0ZM35 1L35 2L36 2L36 1ZM8 2L8 5L9 5L9 2ZM12 3L12 6L11 6L11 7L10 7L10 8L11 8L11 9L10 9L10 11L11 11L11 12L9 12L9 13L5 13L5 12L8 12L8 11L5 11L5 12L3 12L3 11L2 11L2 13L3 13L3 14L4 14L4 13L5 13L5 14L7 14L7 15L6 15L6 16L7 16L7 15L8 15L8 17L11 17L11 18L12 18L12 17L13 17L13 19L15 19L15 20L14 20L14 22L13 22L13 23L11 23L11 22L12 22L12 21L13 21L13 20L11 20L11 21L9 21L9 22L10 22L10 23L11 23L11 24L12 24L12 25L11 25L11 27L9 27L9 29L11 29L11 28L12 28L12 29L14 29L14 30L13 30L13 33L12 33L12 32L11 32L11 31L12 31L12 30L9 30L9 31L10 31L10 32L9 32L9 33L5 33L5 31L3 31L3 32L4 32L4 33L3 33L3 34L4 34L4 35L3 35L3 36L4 36L4 37L5 37L5 36L7 36L7 37L6 37L6 38L7 38L7 39L8 39L8 46L7 46L7 45L6 45L6 44L7 44L7 43L6 43L6 44L3 44L3 47L5 47L5 46L4 46L4 45L6 45L6 46L7 46L7 47L8 47L8 48L9 48L9 45L10 45L10 46L12 46L12 47L11 47L11 48L12 48L12 49L14 49L14 48L13 48L13 47L14 47L14 46L16 46L16 47L17 47L17 45L19 45L19 43L18 43L18 41L19 41L19 42L20 42L20 44L22 44L22 46L21 46L21 45L20 45L20 46L18 46L18 48L19 48L19 47L20 47L20 49L21 49L21 53L20 53L20 55L22 55L22 54L23 54L23 52L24 52L24 53L25 53L25 54L26 54L26 53L25 53L25 52L26 52L26 51L24 51L24 50L25 50L25 49L26 49L26 48L27 48L27 46L28 46L28 47L29 47L29 48L32 48L32 49L31 49L31 50L33 50L33 52L34 52L34 50L35 50L35 48L32 48L32 45L33 45L33 47L34 47L34 46L37 46L37 45L38 45L38 44L40 44L40 42L39 42L39 41L37 41L37 40L38 40L38 39L39 39L39 38L37 38L37 37L38 37L38 36L37 36L37 37L35 37L35 36L36 36L36 35L35 35L35 31L37 31L37 32L36 32L36 33L37 33L37 32L38 32L38 34L39 34L39 31L40 31L40 32L41 32L41 31L44 31L44 34L45 34L45 35L47 35L47 36L44 36L44 37L41 37L41 35L42 35L42 36L43 36L43 35L42 35L42 34L41 34L41 35L39 35L39 36L40 36L40 37L41 37L41 38L44 38L44 39L45 39L45 40L46 40L46 38L48 38L48 37L51 37L51 36L52 36L52 35L51 35L51 36L48 36L48 35L47 35L47 34L50 34L50 33L49 33L49 32L48 32L48 29L47 29L47 31L46 31L46 33L45 33L45 30L46 30L46 26L47 26L47 27L48 27L48 26L49 26L49 25L52 25L52 26L53 26L53 27L55 27L55 25L54 25L54 24L51 24L51 23L52 23L52 22L51 22L51 21L50 21L50 20L49 20L49 19L48 19L48 18L47 18L47 21L46 21L46 22L47 22L47 21L48 21L48 20L49 20L49 23L50 23L50 24L48 24L48 23L44 23L44 25L43 25L43 22L42 22L42 23L40 23L40 26L38 26L38 27L39 27L39 28L40 28L40 29L41 29L41 27L42 27L42 28L43 28L43 29L42 29L42 30L41 30L41 31L40 31L40 30L39 30L39 29L38 29L38 30L36 30L36 29L37 29L37 28L36 28L36 27L35 27L35 25L34 25L34 27L35 27L35 28L34 28L34 29L35 29L35 31L33 31L33 32L31 32L31 34L30 34L30 35L29 35L29 33L30 33L30 31L29 31L29 32L28 32L28 31L26 31L26 32L28 32L28 33L27 33L27 34L28 34L28 35L29 35L29 36L27 36L27 37L24 37L24 39L23 39L23 36L26 36L26 35L25 35L25 34L26 34L26 33L25 33L25 34L24 34L24 35L23 35L23 33L24 33L24 31L25 31L25 30L26 30L26 28L24 28L24 26L25 26L25 25L27 25L27 24L26 24L26 23L27 23L27 22L25 22L25 19L24 19L24 18L27 18L27 19L28 19L28 20L29 20L29 19L28 19L28 18L29 18L29 17L30 17L30 19L31 19L31 18L32 18L32 20L31 20L31 23L30 23L30 21L28 21L28 26L29 26L29 23L30 23L30 24L31 24L31 23L32 23L32 22L34 22L34 23L33 23L33 24L32 24L32 25L33 25L33 24L35 24L35 23L36 23L36 24L37 24L37 22L35 22L35 21L33 21L33 17L31 17L31 16L32 16L32 14L31 14L31 12L32 12L32 13L33 13L33 12L32 12L32 11L33 11L33 10L34 10L34 11L35 11L35 10L36 10L36 12L38 12L38 10L40 10L40 12L39 12L39 13L40 13L40 14L39 14L39 15L37 15L37 14L36 14L36 13L35 13L35 12L34 12L34 14L33 14L33 15L35 15L35 16L34 16L34 17L35 17L35 19L34 19L34 20L36 20L36 21L38 21L38 24L39 24L39 20L40 20L40 19L39 19L39 18L41 18L41 20L42 20L42 21L44 21L44 22L45 22L45 20L46 20L46 18L45 18L45 17L42 17L42 14L43 14L43 12L42 12L42 11L43 11L43 10L42 10L42 11L41 11L41 9L42 9L42 8L41 8L41 7L42 7L42 5L43 5L43 4L41 4L41 7L40 7L40 8L41 8L41 9L38 9L38 10L37 10L37 8L36 8L36 9L34 9L34 6L33 6L33 8L32 8L32 6L31 6L31 9L32 9L32 10L30 10L30 11L28 11L28 10L29 10L29 9L27 9L27 10L26 10L26 11L25 11L25 13L22 13L22 12L23 12L23 11L24 11L24 10L23 10L23 11L21 11L21 12L19 12L19 13L18 13L18 12L17 12L17 13L16 13L16 12L15 12L15 15L14 15L14 13L12 13L12 14L10 14L10 16L9 16L9 13L11 13L11 12L13 12L13 11L12 11L12 10L14 10L14 11L15 11L15 8L11 8L11 7L12 7L12 6L13 6L13 7L14 7L14 6L15 6L15 5L14 5L14 4L13 4L13 3ZM24 4L24 6L23 6L23 7L24 7L24 8L23 8L23 9L26 9L26 6L25 6L25 5L26 5L26 4ZM13 5L13 6L14 6L14 5ZM27 5L27 8L30 8L30 5ZM19 6L19 7L20 7L20 6ZM24 6L24 7L25 7L25 6ZM28 6L28 7L29 7L29 6ZM17 8L17 9L18 9L18 8ZM52 8L52 9L55 9L55 11L57 11L57 10L56 10L56 9L57 9L57 8L56 8L56 9L55 9L55 8ZM19 9L19 10L20 10L20 9ZM48 10L48 11L49 11L49 10ZM30 11L30 12L31 12L31 11ZM26 12L26 13L25 13L25 15L24 15L24 14L23 14L23 18L24 18L24 17L25 17L25 16L26 16L26 17L29 17L29 16L31 16L31 14L30 14L30 13L28 13L28 12ZM50 12L50 13L51 13L51 15L50 15L50 16L52 16L52 17L53 17L53 18L54 18L54 17L55 17L55 16L53 16L53 14L52 14L52 13L51 13L51 12ZM55 12L55 13L56 13L56 12ZM19 13L19 14L21 14L21 13ZM16 14L16 15L15 15L15 16L14 16L14 15L13 15L13 17L16 17L16 18L17 18L17 16L16 16L16 15L18 15L18 16L21 16L21 15L18 15L18 14ZM35 14L35 15L36 15L36 14ZM11 15L11 16L12 16L12 15ZM26 15L26 16L27 16L27 15ZM28 15L28 16L29 16L29 15ZM39 15L39 17L40 17L40 16L41 16L41 15ZM5 17L5 18L7 18L7 17ZM21 17L21 18L22 18L22 17ZM36 17L36 18L37 18L37 17ZM41 17L41 18L42 18L42 20L43 20L43 18L42 18L42 17ZM18 18L18 19L17 19L17 20L16 20L16 23L15 23L15 26L14 26L14 28L15 28L15 29L16 29L16 30L14 30L14 31L15 31L15 32L14 32L14 33L13 33L13 34L15 34L15 35L13 35L13 36L12 36L12 34L11 34L11 33L9 33L9 34L11 34L11 35L10 35L10 36L12 36L12 37L11 37L11 38L10 38L10 39L11 39L11 40L14 40L14 42L13 42L13 43L14 43L14 42L15 42L15 44L14 44L14 45L13 45L13 44L12 44L12 46L14 46L14 45L17 45L17 40L16 40L16 39L17 39L17 38L18 38L18 39L19 39L19 41L22 41L22 44L24 44L24 45L23 45L23 46L22 46L22 47L21 47L21 48L23 48L23 49L22 49L22 52L23 52L23 49L24 49L24 48L26 48L26 47L24 47L24 46L25 46L25 45L26 45L26 46L27 46L27 45L28 45L28 44L29 44L29 46L31 46L31 45L30 45L30 44L29 44L29 43L32 43L32 42L33 42L33 45L34 45L34 44L35 44L35 45L36 45L36 44L35 44L35 43L34 43L34 42L36 42L36 41L34 41L34 40L35 40L35 39L36 39L36 38L35 38L35 39L33 39L33 38L34 38L34 37L33 37L33 38L32 38L32 36L33 36L33 35L34 35L34 34L31 34L31 35L32 35L32 36L29 36L29 38L25 38L25 39L24 39L24 41L25 41L25 42L23 42L23 41L22 41L22 40L23 40L23 39L21 39L21 38L22 38L22 37L21 37L21 38L20 38L20 37L19 37L19 36L21 36L21 35L18 35L18 33L17 33L17 32L19 32L19 34L20 34L20 32L21 32L21 34L22 34L22 33L23 33L23 31L22 31L22 32L21 32L21 31L17 31L17 32L16 32L16 30L17 30L17 27L19 27L19 26L21 26L21 24L20 24L20 23L21 23L21 22L19 22L19 21L18 21L18 20L21 20L21 21L22 21L22 23L23 23L23 24L24 24L24 25L25 25L25 22L24 22L24 21L23 21L23 20L21 20L21 19L20 19L20 18ZM44 18L44 19L45 19L45 18ZM36 19L36 20L37 20L37 19ZM26 20L26 21L27 21L27 20ZM6 21L6 22L7 22L7 21ZM17 22L17 23L16 23L16 26L15 26L15 27L17 27L17 23L18 23L18 24L19 24L19 23L18 23L18 22ZM5 24L5 25L7 25L7 24ZM8 24L8 25L9 25L9 24ZM13 24L13 25L12 25L12 26L13 26L13 25L14 25L14 24ZM46 24L46 25L44 25L44 26L42 26L42 27L43 27L43 28L44 28L44 29L45 29L45 27L44 27L44 26L46 26L46 25L47 25L47 24ZM18 25L18 26L19 26L19 25ZM22 25L22 27L23 27L23 25ZM30 25L30 26L31 26L31 25ZM5 27L5 30L8 30L8 27ZM12 27L12 28L13 28L13 27ZM27 27L27 30L30 30L30 27ZM31 27L31 28L33 28L33 27ZM49 27L49 30L52 30L52 27ZM6 28L6 29L7 29L7 28ZM18 28L18 29L19 29L19 28ZM20 28L20 29L21 29L21 30L24 30L24 29L21 29L21 28ZM28 28L28 29L29 29L29 28ZM50 28L50 29L51 29L51 28ZM53 28L53 30L54 30L54 28ZM31 29L31 30L33 30L33 29ZM1 30L1 31L2 31L2 30ZM38 30L38 31L39 31L39 30ZM6 31L6 32L7 32L7 31ZM50 31L50 32L51 32L51 31ZM52 31L52 34L54 34L54 33L53 33L53 31ZM54 31L54 32L55 32L55 31ZM33 32L33 33L34 33L34 32ZM42 32L42 33L43 33L43 32ZM15 33L15 34L17 34L17 33ZM5 34L5 35L4 35L4 36L5 36L5 35L7 35L7 36L8 36L8 37L7 37L7 38L8 38L8 39L9 39L9 35L7 35L7 34ZM17 35L17 36L14 36L14 39L15 39L15 38L17 38L17 36L18 36L18 35ZM1 36L1 37L2 37L2 36ZM12 37L12 38L13 38L13 37ZM18 37L18 38L19 38L19 37ZM45 37L45 38L46 38L46 37ZM30 38L30 39L28 39L28 40L27 40L27 41L29 41L29 42L30 42L30 41L31 41L31 40L33 40L33 39L32 39L32 38ZM50 38L50 39L51 39L51 38ZM25 39L25 41L26 41L26 39ZM40 39L40 41L42 41L42 42L43 42L43 43L42 43L42 45L43 45L43 46L45 46L45 47L44 47L44 49L46 49L46 50L47 50L47 52L48 52L48 48L47 48L47 47L46 47L46 46L48 46L48 47L49 47L49 48L50 48L50 46L51 46L51 47L52 47L52 48L53 48L53 47L52 47L52 46L54 46L54 45L51 45L51 42L50 42L50 41L52 41L52 40L50 40L50 41L47 41L47 42L46 42L46 43L47 43L47 44L44 44L44 42L45 42L45 41L44 41L44 40L43 40L43 39L42 39L42 40L41 40L41 39ZM47 39L47 40L49 40L49 39ZM9 40L9 41L10 41L10 40ZM15 40L15 41L16 41L16 40ZM29 40L29 41L30 41L30 40ZM54 41L54 42L55 42L55 41ZM9 42L9 44L10 44L10 45L11 45L11 44L10 44L10 43L11 43L11 42ZM25 42L25 43L26 43L26 45L27 45L27 43L28 43L28 42ZM37 42L37 44L38 44L38 43L39 43L39 42ZM47 42L47 43L48 43L48 45L50 45L50 44L49 44L49 43L50 43L50 42ZM1 44L1 45L2 45L2 44ZM1 46L1 47L2 47L2 46ZM23 47L23 48L24 48L24 47ZM45 47L45 48L46 48L46 49L47 49L47 48L46 48L46 47ZM15 48L15 49L16 49L16 50L17 50L17 51L18 51L18 50L17 50L17 48ZM41 48L41 49L42 49L42 48ZM56 48L56 50L57 50L57 48ZM27 49L27 52L30 52L30 49ZM33 49L33 50L34 50L34 49ZM36 49L36 50L37 50L37 49ZM49 49L49 52L52 52L52 49ZM28 50L28 51L29 51L29 50ZM50 50L50 51L51 51L51 50ZM12 51L12 52L14 52L14 51ZM31 51L31 53L32 53L32 51ZM56 51L56 52L57 52L57 51ZM40 52L40 54L41 54L41 53L42 53L42 54L43 54L43 53L42 53L42 52ZM21 53L21 54L22 54L22 53ZM47 53L47 54L50 54L50 53ZM27 55L27 56L28 56L28 55ZM39 55L39 56L40 56L40 55ZM56 55L56 56L57 56L57 55ZM52 56L52 57L53 57L53 56ZM54 56L54 57L55 57L55 56ZM0 0L0 7L7 7L7 0ZM1 1L1 6L6 6L6 1ZM2 2L2 5L5 5L5 2ZM50 0L50 7L57 7L57 0ZM51 1L51 6L56 6L56 1ZM52 2L52 5L55 5L55 2ZM0 50L0 57L7 57L7 50ZM1 51L1 56L6 56L6 51ZM2 52L2 55L5 55L5 52Z" fill="#000000"/></g></g></svg>
