<?xml version="1.0" encoding="UTF-8"?>
<svg xmlns="http://www.w3.org/2000/svg" version="1.1" width="300" height="300" viewBox="0 0 300 300"><rect x="0" y="0" width="300" height="300" fill="#fefefe"/><g transform="scale(4.615)"><g transform="translate(4,4)"><path fill-rule="evenodd" d="M10 0L10 1L8 1L8 2L10 2L10 3L8 3L8 4L10 4L10 8L6 8L6 9L9 9L9 10L11 10L11 11L10 11L10 12L9 12L9 11L7 11L7 10L5 10L5 8L0 8L0 10L1 10L1 11L2 11L2 12L4 12L4 13L1 13L1 12L0 12L0 13L1 13L1 14L4 14L4 13L5 13L5 14L6 14L6 15L5 15L5 17L7 17L7 18L1 18L1 19L0 19L0 20L2 20L2 21L0 21L0 22L4 22L4 21L7 21L7 20L8 20L8 21L9 21L9 22L8 22L8 23L7 23L7 22L6 22L6 23L7 23L7 24L5 24L5 23L3 23L3 25L2 25L2 24L0 24L0 25L1 25L1 26L2 26L2 27L3 27L3 26L4 26L4 30L2 30L2 29L3 29L3 28L1 28L1 27L0 27L0 30L1 30L1 31L4 31L4 32L2 32L2 34L1 34L1 32L0 32L0 36L1 36L1 40L2 40L2 39L3 39L3 41L0 41L0 48L5 48L5 47L7 47L7 48L6 48L6 49L7 49L7 48L8 48L8 51L11 51L11 53L12 53L12 51L14 51L14 52L13 52L13 55L14 55L14 56L12 56L12 54L9 54L9 52L8 52L8 57L9 57L9 56L10 56L10 57L11 57L11 56L12 56L12 57L15 57L15 55L16 55L16 56L17 56L17 57L19 57L19 56L17 56L17 53L20 53L20 52L21 52L21 53L22 53L22 55L21 55L21 56L20 56L20 57L21 57L21 56L23 56L23 57L26 57L26 56L24 56L24 55L23 55L23 54L24 54L24 53L26 53L26 54L25 54L25 55L26 55L26 54L30 54L30 53L31 53L31 51L32 51L32 52L33 52L33 53L32 53L32 54L31 54L31 56L30 56L30 55L29 55L29 56L27 56L27 57L29 57L29 56L30 56L30 57L31 57L31 56L35 56L35 57L39 57L39 56L37 56L37 55L41 55L41 56L42 56L42 55L43 55L43 57L44 57L44 54L45 54L45 55L46 55L46 54L45 54L45 53L44 53L44 52L45 52L45 51L46 51L46 52L47 52L47 51L46 51L46 50L44 50L44 51L43 51L43 49L44 49L44 48L45 48L45 47L46 47L46 49L47 49L47 50L48 50L48 53L47 53L47 55L48 55L48 56L50 56L50 57L52 57L52 55L51 55L51 53L52 53L52 54L53 54L53 55L54 55L54 56L53 56L53 57L54 57L54 56L55 56L55 57L56 57L56 56L55 56L55 52L57 52L57 51L54 51L54 50L57 50L57 48L56 48L56 46L57 46L57 43L56 43L56 42L55 42L55 39L57 39L57 37L55 37L55 35L56 35L56 36L57 36L57 35L56 35L56 34L57 34L57 32L56 32L56 30L57 30L57 29L56 29L56 28L57 28L57 27L56 27L56 26L57 26L57 25L56 25L56 22L57 22L57 21L56 21L56 20L55 20L55 19L56 19L56 18L57 18L57 17L56 17L56 16L57 16L57 15L56 15L56 14L57 14L57 12L56 12L56 14L54 14L54 12L55 12L55 11L56 11L56 8L55 8L55 10L54 10L54 11L53 11L53 9L54 9L54 8L53 8L53 9L52 9L52 8L51 8L51 11L50 11L50 12L49 12L49 13L47 13L47 14L45 14L45 13L44 13L44 11L45 11L45 12L48 12L48 11L47 11L47 10L50 10L50 8L47 8L47 10L46 10L46 9L45 9L45 10L44 10L44 9L41 9L41 10L42 10L42 11L43 11L43 13L41 13L41 14L38 14L38 13L39 13L39 11L40 11L40 12L41 12L41 11L40 11L40 10L39 10L39 11L37 11L37 10L38 10L38 9L39 9L39 8L40 8L40 7L41 7L41 6L40 6L40 5L42 5L42 8L46 8L46 7L47 7L47 5L48 5L48 0L46 0L46 1L45 1L45 2L44 2L44 3L43 3L43 4L40 4L40 5L39 5L39 6L38 6L38 4L37 4L37 3L36 3L36 0L35 0L35 1L33 1L33 2L32 2L32 1L31 1L31 0L29 0L29 1L25 1L25 0L23 0L23 2L27 2L27 3L28 3L28 2L32 2L32 3L31 3L31 4L26 4L26 3L23 3L23 4L19 4L19 3L20 3L20 0L17 0L17 1L14 1L14 0L13 0L13 1L14 1L14 2L12 2L12 3L11 3L11 2L10 2L10 1L12 1L12 0ZM21 0L21 3L22 3L22 0ZM37 0L37 1L38 1L38 3L41 3L41 2L43 2L43 0L41 0L41 1L40 1L40 0L39 0L39 1L38 1L38 0ZM17 1L17 2L16 2L16 3L15 3L15 2L14 2L14 4L13 4L13 3L12 3L12 5L13 5L13 8L10 8L10 9L11 9L11 10L12 10L12 9L13 9L13 8L14 8L14 10L15 10L15 11L16 11L16 12L15 12L15 13L13 13L13 16L14 16L14 17L12 17L12 14L11 14L11 17L10 17L10 16L9 16L9 15L8 15L8 16L9 16L9 17L8 17L8 18L7 18L7 19L6 19L6 20L7 20L7 19L8 19L8 18L11 18L11 19L12 19L12 20L13 20L13 21L14 21L14 23L13 23L13 22L11 22L11 23L10 23L10 22L9 22L9 23L8 23L8 24L9 24L9 23L10 23L10 25L8 25L8 26L10 26L10 25L13 25L13 26L18 26L18 27L17 27L17 28L18 28L18 29L16 29L16 28L15 28L15 27L12 27L12 26L11 26L11 27L9 27L9 31L8 31L8 32L7 32L7 31L6 31L6 32L5 32L5 34L4 34L4 33L3 33L3 34L4 34L4 36L3 36L3 35L1 35L1 36L3 36L3 37L4 37L4 38L3 38L3 39L4 39L4 42L1 42L1 47L2 47L2 45L3 45L3 47L5 47L5 45L6 45L6 46L7 46L7 47L8 47L8 48L9 48L9 46L10 46L10 47L11 47L11 48L10 48L10 49L9 49L9 50L10 50L10 49L11 49L11 51L12 51L12 50L13 50L13 49L11 49L11 48L12 48L12 47L13 47L13 48L14 48L14 47L13 47L13 46L12 46L12 44L13 44L13 45L14 45L14 46L16 46L16 47L15 47L15 50L14 50L14 51L15 51L15 50L17 50L17 51L16 51L16 53L15 53L15 54L16 54L16 53L17 53L17 52L18 52L18 50L19 50L19 51L21 51L21 52L22 52L22 53L24 53L24 52L26 52L26 50L23 50L23 51L21 51L21 49L23 49L23 47L24 47L24 46L23 46L23 45L25 45L25 48L24 48L24 49L25 49L25 48L28 48L28 47L26 47L26 45L27 45L27 46L29 46L29 45L30 45L30 46L31 46L31 48L32 48L32 49L31 49L31 50L32 50L32 51L33 51L33 52L34 52L34 53L33 53L33 55L35 55L35 56L36 56L36 54L35 54L35 50L36 50L36 52L38 52L38 50L41 50L41 52L40 52L40 51L39 51L39 53L38 53L38 54L40 54L40 53L41 53L41 52L43 52L43 51L42 51L42 50L41 50L41 48L42 48L42 49L43 49L43 48L44 48L44 47L45 47L45 46L50 46L50 47L48 47L48 48L47 48L47 49L48 49L48 48L50 48L50 47L51 47L51 46L53 46L53 47L55 47L55 46L56 46L56 43L55 43L55 44L54 44L54 45L55 45L55 46L53 46L53 43L54 43L54 42L53 42L53 41L51 41L51 42L50 42L50 43L49 43L49 42L48 42L48 41L49 41L49 40L50 40L50 39L52 39L52 40L53 40L53 35L55 35L55 34L56 34L56 32L55 32L55 34L54 34L54 33L52 33L52 32L53 32L53 31L54 31L54 30L53 30L53 31L48 31L48 29L46 29L46 30L47 30L47 31L48 31L48 32L47 32L47 33L45 33L45 32L46 32L46 31L45 31L45 30L44 30L44 29L45 29L45 28L46 28L46 27L47 27L47 25L50 25L50 26L52 26L52 25L53 25L53 23L50 23L50 22L51 22L51 21L53 21L53 22L56 22L56 21L55 21L55 20L53 20L53 19L52 19L52 18L56 18L56 17L55 17L55 16L53 16L53 15L50 15L50 14L51 14L51 12L50 12L50 14L49 14L49 15L48 15L48 16L47 16L47 17L45 17L45 15L44 15L44 14L41 14L41 16L39 16L39 15L38 15L38 14L37 14L37 13L35 13L35 12L36 12L36 10L37 10L37 9L35 9L35 8L37 8L37 7L38 7L38 6L37 6L37 7L36 7L36 5L37 5L37 4L36 4L36 5L35 5L35 3L32 3L32 4L31 4L31 8L32 8L32 10L31 10L31 11L30 11L30 10L29 10L29 12L28 12L28 13L27 13L27 15L26 15L26 16L25 16L25 15L20 15L20 14L21 14L21 13L22 13L22 14L24 14L24 13L26 13L26 12L27 12L27 11L26 11L26 12L25 12L25 10L24 10L24 13L22 13L22 12L21 12L21 11L22 11L22 10L23 10L23 9L24 9L24 6L23 6L23 5L24 5L24 4L23 4L23 5L21 5L21 7L22 7L22 8L19 8L19 7L20 7L20 5L18 5L18 6L17 6L17 3L19 3L19 2L18 2L18 1ZM46 1L46 2L47 2L47 1ZM44 3L44 6L43 6L43 7L44 7L44 6L45 6L45 7L46 7L46 6L45 6L45 4L46 4L46 5L47 5L47 3ZM15 4L15 5L14 5L14 7L15 7L15 8L16 8L16 9L18 9L18 11L17 11L17 12L16 12L16 13L15 13L15 14L14 14L14 16L15 16L15 17L14 17L14 18L15 18L15 19L16 19L16 20L15 20L15 21L16 21L16 22L15 22L15 23L14 23L14 24L15 24L15 23L16 23L16 24L17 24L17 25L18 25L18 26L19 26L19 29L18 29L18 30L19 30L19 31L18 31L18 32L17 32L17 30L16 30L16 29L15 29L15 30L14 30L14 32L13 32L13 30L12 30L12 31L11 31L11 29L10 29L10 31L11 31L11 32L12 32L12 34L13 34L13 36L12 36L12 37L11 37L11 36L10 36L10 35L9 35L9 34L11 34L11 33L9 33L9 34L8 34L8 33L7 33L7 32L6 32L6 33L7 33L7 34L5 34L5 36L4 36L4 37L7 37L7 38L5 38L5 39L7 39L7 38L9 38L9 36L10 36L10 38L11 38L11 39L12 39L12 38L16 38L16 37L15 37L15 36L14 36L14 34L13 34L13 33L14 33L14 32L15 32L15 33L18 33L18 34L19 34L19 33L21 33L21 34L20 34L20 35L21 35L21 36L23 36L23 37L24 37L24 38L23 38L23 39L24 39L24 40L23 40L23 41L24 41L24 42L22 42L22 41L21 41L21 37L19 37L19 36L17 36L17 40L16 40L16 39L15 39L15 41L14 41L14 42L13 42L13 43L14 43L14 45L15 45L15 44L16 44L16 45L17 45L17 46L18 46L18 47L19 47L19 46L20 46L20 45L21 45L21 47L23 47L23 46L22 46L22 45L23 45L23 43L24 43L24 44L27 44L27 45L29 45L29 43L30 43L30 45L31 45L31 46L32 46L32 45L31 45L31 44L33 44L33 43L34 43L34 45L35 45L35 46L33 46L33 47L32 47L32 48L34 48L34 49L36 49L36 50L38 50L38 49L39 49L39 48L41 48L41 46L43 46L43 47L42 47L42 48L43 48L43 47L44 47L44 46L43 46L43 45L44 45L44 42L45 42L45 41L47 41L47 39L48 39L48 38L49 38L49 39L50 39L50 38L49 38L49 37L52 37L52 35L53 35L53 34L52 34L52 33L51 33L51 32L50 32L50 34L49 34L49 35L50 35L50 36L49 36L49 37L48 37L48 38L47 38L47 39L46 39L46 38L45 38L45 37L44 37L44 36L48 36L48 35L46 35L46 34L45 34L45 33L43 33L43 32L45 32L45 31L43 31L43 32L41 32L41 33L39 33L39 34L40 34L40 35L38 35L38 33L37 33L37 32L34 32L34 31L35 31L35 30L37 30L37 29L38 29L38 28L39 28L39 27L40 27L40 26L39 26L39 27L37 27L37 28L36 28L36 26L34 26L34 27L33 27L33 26L32 26L32 24L33 24L33 25L37 25L37 26L38 26L38 25L40 25L40 24L41 24L41 25L42 25L42 26L41 26L41 28L42 28L42 26L43 26L43 25L44 25L44 20L45 20L45 21L47 21L47 22L45 22L45 24L46 24L46 25L47 25L47 24L46 24L46 23L47 23L47 22L49 22L49 21L51 21L51 20L52 20L52 19L51 19L51 18L50 18L50 17L49 17L49 16L50 16L50 15L49 15L49 16L48 16L48 17L47 17L47 18L50 18L50 19L49 19L49 21L47 21L47 20L45 20L45 19L46 19L46 18L44 18L44 15L42 15L42 16L41 16L41 17L39 17L39 16L38 16L38 17L37 17L37 16L35 16L35 14L32 14L32 12L33 12L33 13L34 13L34 12L33 12L33 10L32 10L32 11L31 11L31 13L30 13L30 14L29 14L29 13L28 13L28 14L29 14L29 16L28 16L28 15L27 15L27 16L26 16L26 17L27 17L27 18L25 18L25 17L22 17L22 16L20 16L20 17L19 17L19 14L20 14L20 13L21 13L21 12L20 12L20 11L21 11L21 10L22 10L22 9L21 9L21 10L20 10L20 9L19 9L19 8L16 8L16 7L17 7L17 6L16 6L16 7L15 7L15 5L16 5L16 4ZM25 4L25 8L26 8L26 4ZM32 4L32 5L33 5L33 4ZM8 5L8 7L9 7L9 5ZM27 5L27 8L30 8L30 5ZM34 5L34 7L33 7L33 6L32 6L32 7L33 7L33 9L34 9L34 8L35 8L35 5ZM11 6L11 7L12 7L12 6ZM18 6L18 7L19 7L19 6ZM22 6L22 7L23 7L23 6ZM28 6L28 7L29 7L29 6ZM39 6L39 7L40 7L40 6ZM48 6L48 7L49 7L49 6ZM1 9L1 10L2 10L2 11L3 11L3 10L4 10L4 11L5 11L5 10L4 10L4 9L3 9L3 10L2 10L2 9ZM43 10L43 11L44 11L44 10ZM45 10L45 11L46 11L46 10ZM6 11L6 12L5 12L5 13L6 13L6 14L10 14L10 13L8 13L8 12L7 12L7 11ZM11 11L11 13L12 13L12 11ZM13 11L13 12L14 12L14 11ZM6 12L6 13L7 13L7 12ZM17 12L17 13L16 13L16 17L15 17L15 18L16 18L16 19L17 19L17 20L16 20L16 21L17 21L17 22L18 22L18 21L17 21L17 20L18 20L18 19L17 19L17 13L18 13L18 12ZM19 12L19 13L20 13L20 12ZM52 12L52 13L53 13L53 12ZM30 14L30 15L31 15L31 16L32 16L32 18L33 18L33 19L36 19L36 20L37 20L37 21L38 21L38 22L37 22L37 24L40 24L40 22L39 22L39 21L41 21L41 20L39 20L39 21L38 21L38 19L39 19L39 17L38 17L38 18L37 18L37 17L35 17L35 16L33 16L33 15L32 15L32 14ZM0 15L0 16L1 16L1 17L4 17L4 15L3 15L3 16L1 16L1 15ZM6 15L6 16L7 16L7 15ZM27 16L27 17L28 17L28 16ZM42 16L42 17L43 17L43 16ZM18 17L18 18L19 18L19 17ZM20 17L20 21L19 21L19 22L20 22L20 23L18 23L18 24L22 24L22 25L20 25L20 26L22 26L22 27L20 27L20 28L22 28L22 29L19 29L19 30L21 30L21 31L19 31L19 32L21 32L21 33L22 33L22 35L23 35L23 36L24 36L24 34L23 34L23 33L25 33L25 35L26 35L26 36L25 36L25 40L24 40L24 41L25 41L25 43L27 43L27 44L28 44L28 43L27 43L27 42L30 42L30 40L32 40L32 41L31 41L31 42L32 42L32 43L33 43L33 42L34 42L34 43L37 43L37 42L35 42L35 40L38 40L38 42L39 42L39 43L41 43L41 44L39 44L39 45L38 45L38 46L39 46L39 47L38 47L38 48L37 48L37 49L38 49L38 48L39 48L39 47L40 47L40 46L41 46L41 44L42 44L42 42L41 42L41 40L42 40L42 39L43 39L43 40L44 40L44 41L43 41L43 42L44 42L44 41L45 41L45 40L44 40L44 39L45 39L45 38L44 38L44 37L43 37L43 36L44 36L44 35L45 35L45 34L42 34L42 35L43 35L43 36L40 36L40 37L38 37L38 35L37 35L37 34L35 34L35 33L34 33L34 32L33 32L33 30L35 30L35 28L33 28L33 27L32 27L32 26L31 26L31 27L32 27L32 29L31 29L31 31L30 31L30 32L29 32L29 33L28 33L28 32L27 32L27 33L26 33L26 31L25 31L25 32L24 32L24 31L23 31L23 27L24 27L24 26L22 26L22 25L24 25L24 24L25 24L25 25L26 25L26 26L25 26L25 27L26 27L26 26L27 26L27 25L29 25L29 26L30 26L30 25L29 25L29 24L32 24L32 23L35 23L35 21L33 21L33 20L32 20L32 21L31 21L31 18L30 18L30 19L28 19L28 18L27 18L27 19L26 19L26 21L27 21L27 23L28 23L28 24L25 24L25 23L26 23L26 22L25 22L25 21L24 21L24 20L23 20L23 19L24 19L24 18L23 18L23 19L22 19L22 17ZM41 18L41 19L42 19L42 18ZM43 18L43 20L42 20L42 21L43 21L43 20L44 20L44 18ZM2 19L2 20L4 20L4 19ZM9 19L9 20L10 20L10 21L11 21L11 20L10 20L10 19ZM13 19L13 20L14 20L14 19ZM21 19L21 20L22 20L22 19ZM27 19L27 20L28 20L28 19ZM23 21L23 22L24 22L24 21ZM29 21L29 22L28 22L28 23L31 23L31 21ZM21 22L21 23L22 23L22 22ZM38 22L38 23L39 23L39 22ZM23 23L23 24L24 24L24 23ZM41 23L41 24L43 24L43 23ZM49 23L49 24L50 24L50 25L51 25L51 24L50 24L50 23ZM6 25L6 26L7 26L7 25ZM55 25L55 26L56 26L56 25ZM44 26L44 28L43 28L43 29L41 29L41 30L40 30L40 31L41 31L41 30L43 30L43 29L44 29L44 28L45 28L45 26ZM53 26L53 27L54 27L54 26ZM5 27L5 30L8 30L8 27ZM27 27L27 30L30 30L30 27ZM49 27L49 30L52 30L52 27ZM55 27L55 28L54 28L54 29L55 29L55 28L56 28L56 27ZM6 28L6 29L7 29L7 28ZM13 28L13 29L14 29L14 28ZM25 28L25 29L26 29L26 28ZM28 28L28 29L29 29L29 28ZM50 28L50 29L51 29L51 28ZM32 29L32 30L33 30L33 29ZM38 30L38 32L39 32L39 30ZM21 31L21 32L23 32L23 31ZM31 32L31 33L29 33L29 34L30 34L30 36L29 36L29 37L31 37L31 38L29 38L29 39L33 39L33 40L35 40L35 39L37 39L37 38L38 38L38 40L39 40L39 38L38 38L38 37L37 37L37 36L35 36L35 34L33 34L33 33L32 33L32 32ZM48 32L48 33L49 33L49 32ZM26 34L26 35L27 35L27 34ZM50 34L50 35L52 35L52 34ZM6 35L6 36L7 36L7 37L8 37L8 35ZM13 36L13 37L14 37L14 36ZM32 36L32 37L33 37L33 39L35 39L35 37L33 37L33 36ZM18 37L18 39L20 39L20 38L19 38L19 37ZM26 37L26 40L27 40L27 41L26 41L26 42L27 42L27 41L29 41L29 40L28 40L28 39L27 39L27 38L28 38L28 37ZM40 37L40 38L43 38L43 37ZM54 38L54 39L55 39L55 38ZM9 39L9 40L6 40L6 41L9 41L9 42L10 42L10 39ZM13 39L13 40L14 40L14 39ZM17 40L17 41L15 41L15 42L17 42L17 43L18 43L18 42L19 42L19 45L20 45L20 42L21 42L21 43L22 43L22 42L21 42L21 41L20 41L20 40L19 40L19 41L18 41L18 40ZM11 41L11 43L10 43L10 44L9 44L9 43L8 43L8 42L6 42L6 43L8 43L8 44L9 44L9 45L10 45L10 46L11 46L11 43L12 43L12 41ZM17 41L17 42L18 42L18 41ZM19 41L19 42L20 42L20 41ZM32 41L32 42L33 42L33 41ZM39 41L39 42L40 42L40 41ZM47 42L47 43L46 43L46 44L45 44L45 45L47 45L47 43L48 43L48 42ZM51 42L51 43L50 43L50 44L51 44L51 45L50 45L50 46L51 46L51 45L52 45L52 44L51 44L51 43L53 43L53 42ZM2 43L2 44L3 44L3 45L5 45L5 43L4 43L4 44L3 44L3 43ZM6 44L6 45L7 45L7 46L8 46L8 45L7 45L7 44ZM17 44L17 45L18 45L18 44ZM21 44L21 45L22 45L22 44ZM36 45L36 46L37 46L37 45ZM29 47L29 48L30 48L30 47ZM35 47L35 48L36 48L36 47ZM17 48L17 49L19 49L19 50L20 50L20 49L19 49L19 48ZM55 48L55 49L56 49L56 48ZM27 49L27 52L30 52L30 49ZM32 49L32 50L33 50L33 49ZM49 49L49 52L52 52L52 49ZM28 50L28 51L29 51L29 50ZM50 50L50 51L51 51L51 50ZM53 52L53 54L54 54L54 52ZM43 53L43 54L44 54L44 53ZM18 54L18 55L20 55L20 54ZM41 54L41 55L42 55L42 54ZM10 55L10 56L11 56L11 55ZM50 55L50 56L51 56L51 55ZM46 56L46 57L47 57L47 56ZM0 0L0 7L7 7L7 0ZM1 1L1 6L6 6L6 1ZM2 2L2 5L5 5L5 2ZM50 0L50 7L57 7L57 0ZM51 1L51 6L56 6L56 1ZM52 2L52 5L55 5L55 2ZM0 50L0 57L7 57L7 50ZM1 51L1 56L6 56L6 51ZM2 52L2 55L5 55L5 52Z" fill="#000000"/></g></g></svg>
