<?xml version="1.0" encoding="UTF-8"?>
<svg xmlns="http://www.w3.org/2000/svg" version="1.1" width="300" height="300" viewBox="0 0 300 300"><rect x="0" y="0" width="300" height="300" fill="#fefefe"/><g transform="scale(4.615)"><g transform="translate(4,4)"><path fill-rule="evenodd" d="M9 0L9 1L8 1L8 2L9 2L9 3L8 3L8 4L9 4L9 5L8 5L8 7L9 7L9 8L6 8L6 9L7 9L7 10L5 10L5 8L0 8L0 11L1 11L1 12L2 12L2 13L3 13L3 11L4 11L4 12L5 12L5 13L7 13L7 12L5 12L5 11L7 11L7 10L8 10L8 11L9 11L9 12L10 12L10 13L11 13L11 12L12 12L12 14L9 14L9 13L8 13L8 14L9 14L9 15L12 15L12 16L14 16L14 15L15 15L15 16L16 16L16 17L13 17L13 18L11 18L11 17L10 17L10 16L9 16L9 17L8 17L8 18L6 18L6 17L7 17L7 16L5 16L5 15L4 15L4 14L1 14L1 13L0 13L0 15L1 15L1 16L0 16L0 21L1 21L1 20L2 20L2 22L3 22L3 21L5 21L5 20L6 20L6 21L7 21L7 22L5 22L5 23L7 23L7 22L8 22L8 24L9 24L9 25L7 25L7 24L6 24L6 25L5 25L5 24L4 24L4 23L1 23L1 26L0 26L0 27L2 27L2 28L1 28L1 29L2 29L2 31L3 31L3 32L2 32L2 33L1 33L1 31L0 31L0 33L1 33L1 34L0 34L0 35L1 35L1 36L0 36L0 38L1 38L1 39L0 39L0 40L1 40L1 42L3 42L3 41L4 41L4 40L5 40L5 42L4 42L4 43L8 43L8 44L5 44L5 45L4 45L4 46L5 46L5 47L3 47L3 46L2 46L2 47L1 47L1 46L0 46L0 48L5 48L5 47L7 47L7 46L9 46L9 47L8 47L8 48L9 48L9 47L11 47L11 46L13 46L13 47L12 47L12 48L11 48L11 49L8 49L8 51L9 51L9 52L8 52L8 57L11 57L11 56L12 56L12 57L13 57L13 56L12 56L12 55L14 55L14 54L15 54L15 55L16 55L16 56L15 56L15 57L16 57L16 56L17 56L17 57L19 57L19 55L20 55L20 54L19 54L19 53L20 53L20 52L21 52L21 51L22 51L22 52L23 52L23 51L22 51L22 50L25 50L25 49L26 49L26 52L24 52L24 53L23 53L23 54L22 54L22 56L24 56L24 57L26 57L26 56L24 56L24 55L23 55L23 54L24 54L24 53L26 53L26 54L25 54L25 55L26 55L26 54L30 54L30 53L31 53L31 51L32 51L32 52L33 52L33 51L34 51L34 50L33 50L33 49L32 49L32 47L33 47L33 48L34 48L34 49L36 49L36 50L35 50L35 52L34 52L34 53L35 53L35 54L36 54L36 56L35 56L35 55L34 55L34 54L33 54L33 53L32 53L32 54L31 54L31 56L30 56L30 55L29 55L29 56L27 56L27 57L29 57L29 56L30 56L30 57L31 57L31 56L35 56L35 57L39 57L39 56L41 56L41 57L44 57L44 56L45 56L45 57L46 57L46 56L45 56L45 55L44 55L44 54L45 54L45 53L47 53L47 50L48 50L48 54L46 54L46 55L47 55L47 56L48 56L48 57L49 57L49 56L50 56L50 57L52 57L52 55L51 55L51 53L52 53L52 54L53 54L53 55L54 55L54 56L53 56L53 57L54 57L54 56L55 56L55 57L56 57L56 56L55 56L55 51L56 51L56 53L57 53L57 51L56 51L56 50L55 50L55 48L56 48L56 49L57 49L57 48L56 48L56 46L57 46L57 45L56 45L56 46L54 46L54 44L55 44L55 43L56 43L56 44L57 44L57 43L56 43L56 42L55 42L55 39L57 39L57 37L56 37L56 36L57 36L57 35L56 35L56 34L57 34L57 32L56 32L56 30L57 30L57 28L56 28L56 26L57 26L57 25L56 25L56 22L57 22L57 20L55 20L55 19L56 19L56 16L57 16L57 15L56 15L56 14L57 14L57 12L56 12L56 10L54 10L54 11L52 11L52 10L53 10L53 9L54 9L54 8L53 8L53 9L52 9L52 8L51 8L51 10L49 10L49 9L50 9L50 8L49 8L49 9L48 9L48 8L47 8L47 5L48 5L48 0L46 0L46 1L45 1L45 2L44 2L44 3L41 3L41 2L43 2L43 0L41 0L41 1L40 1L40 0L39 0L39 1L38 1L38 0L37 0L37 1L38 1L38 4L37 4L37 3L36 3L36 0L35 0L35 1L32 1L32 3L30 3L30 2L28 2L28 1L31 1L31 0L27 0L27 1L26 1L26 0L23 0L23 2L25 2L25 1L26 1L26 2L27 2L27 3L29 3L29 4L26 4L26 3L23 3L23 4L24 4L24 5L23 5L23 6L22 6L22 7L21 7L21 5L22 5L22 4L19 4L19 3L20 3L20 2L19 2L19 1L18 1L18 0L17 0L17 1L14 1L14 0L13 0L13 1L12 1L12 0ZM21 0L21 1L22 1L22 0ZM10 1L10 3L9 3L9 4L10 4L10 3L11 3L11 1ZM13 1L13 2L12 2L12 3L13 3L13 2L14 2L14 4L13 4L13 7L12 7L12 5L11 5L11 8L14 8L14 10L15 10L15 13L13 13L13 14L12 14L12 15L14 15L14 14L15 14L15 13L16 13L16 16L18 16L18 14L17 14L17 13L18 13L18 12L17 12L17 11L18 11L18 10L19 10L19 11L22 11L22 10L23 10L23 11L24 11L24 12L25 12L25 14L26 14L26 12L27 12L27 11L26 11L26 12L25 12L25 10L23 10L23 8L24 8L24 6L23 6L23 7L22 7L22 8L19 8L19 7L20 7L20 5L18 5L18 6L17 6L17 2L16 2L16 3L15 3L15 2L14 2L14 1ZM46 1L46 2L47 2L47 1ZM21 2L21 3L22 3L22 2ZM33 2L33 3L32 3L32 4L31 4L31 8L32 8L32 10L31 10L31 11L30 11L30 10L29 10L29 9L27 9L27 10L29 10L29 12L28 12L28 13L27 13L27 15L26 15L26 16L23 16L23 15L24 15L24 14L23 14L23 13L22 13L22 12L21 12L21 13L20 13L20 12L19 12L19 13L20 13L20 14L21 14L21 13L22 13L22 14L23 14L23 15L20 15L20 18L19 18L19 19L18 19L18 20L20 20L20 21L19 21L19 22L20 22L20 23L18 23L18 21L17 21L17 17L16 17L16 21L15 21L15 18L13 18L13 19L12 19L12 20L11 20L11 21L10 21L10 17L9 17L9 21L8 21L8 19L6 19L6 20L7 20L7 21L8 21L8 22L9 22L9 24L10 24L10 23L11 23L11 24L12 24L12 25L13 25L13 26L14 26L14 25L13 25L13 24L16 24L16 23L15 23L15 22L16 22L16 21L17 21L17 24L19 24L19 25L20 25L20 26L18 26L18 25L15 25L15 26L18 26L18 27L17 27L17 28L18 28L18 29L16 29L16 28L14 28L14 27L13 27L13 29L12 29L12 28L11 28L11 29L10 29L10 30L9 30L9 32L10 32L10 33L8 33L8 31L5 31L5 32L4 32L4 33L5 33L5 34L3 34L3 33L2 33L2 34L1 34L1 35L5 35L5 34L7 34L7 35L6 35L6 36L5 36L5 37L3 37L3 38L2 38L2 36L1 36L1 38L2 38L2 41L3 41L3 39L4 39L4 38L8 38L8 39L6 39L6 40L8 40L8 39L9 39L9 41L6 41L6 42L10 42L10 43L9 43L9 44L8 44L8 45L9 45L9 44L10 44L10 43L11 43L11 42L10 42L10 41L11 41L11 40L12 40L12 41L15 41L15 42L17 42L17 43L18 43L18 42L19 42L19 43L20 43L20 44L19 44L19 45L20 45L20 46L17 46L17 45L18 45L18 44L16 44L16 43L13 43L13 42L12 42L12 44L13 44L13 45L14 45L14 48L12 48L12 49L11 49L11 51L13 51L13 54L14 54L14 53L15 53L15 54L16 54L16 53L17 53L17 51L19 51L19 52L20 52L20 51L19 51L19 50L17 50L17 49L16 49L16 48L17 48L17 47L19 47L19 49L20 49L20 50L21 50L21 49L23 49L23 48L24 48L24 49L25 49L25 48L28 48L28 46L30 46L30 45L31 45L31 46L32 46L32 45L33 45L33 46L35 46L35 48L36 48L36 47L37 47L37 45L36 45L36 46L35 46L35 45L34 45L34 43L35 43L35 44L36 44L36 43L37 43L37 42L35 42L35 40L38 40L38 42L39 42L39 41L42 41L42 40L38 40L38 38L39 38L39 39L41 39L41 38L40 38L40 37L41 37L41 36L42 36L42 35L43 35L43 36L44 36L44 37L43 37L43 38L42 38L42 39L43 39L43 40L44 40L44 41L43 41L43 44L44 44L44 45L43 45L43 46L41 46L41 48L39 48L39 47L38 47L38 48L37 48L37 49L38 49L38 50L36 50L36 52L37 52L37 53L38 53L38 54L37 54L37 56L39 56L39 55L38 55L38 54L40 54L40 53L41 53L41 52L40 52L40 51L39 51L39 52L38 52L38 50L41 50L41 51L42 51L42 50L41 50L41 48L42 48L42 49L43 49L43 48L44 48L44 50L47 50L47 49L48 49L48 48L52 48L52 47L54 47L54 46L53 46L53 45L52 45L52 44L53 44L53 43L54 43L54 42L53 42L53 41L54 41L54 40L53 40L53 35L55 35L55 34L56 34L56 32L53 32L53 31L55 31L55 29L56 29L56 28L54 28L54 30L53 30L53 31L52 31L52 32L51 32L51 33L52 33L52 34L50 34L50 32L49 32L49 31L48 31L48 29L46 29L46 30L47 30L47 31L48 31L48 32L47 32L47 33L45 33L45 32L46 32L46 31L45 31L45 30L40 30L40 29L43 29L43 27L44 27L44 26L46 26L46 27L45 27L45 28L44 28L44 29L45 29L45 28L46 28L46 27L47 27L47 28L48 28L48 26L47 26L47 25L49 25L49 26L51 26L51 25L55 25L55 24L53 24L53 23L50 23L50 22L51 22L51 21L54 21L54 22L56 22L56 21L55 21L55 20L53 20L53 19L52 19L52 18L51 18L51 17L53 17L53 18L55 18L55 17L54 17L54 16L52 16L52 15L51 15L51 17L50 17L50 14L51 14L51 12L50 12L50 11L49 11L49 10L48 10L48 11L47 11L47 12L45 12L45 11L44 11L44 13L43 13L43 10L41 10L41 9L42 9L42 8L41 8L41 7L42 7L42 6L43 6L43 7L44 7L44 9L45 9L45 10L47 10L47 8L46 8L46 9L45 9L45 7L46 7L46 6L45 6L45 5L47 5L47 3L44 3L44 6L43 6L43 5L40 5L40 4L41 4L41 3L39 3L39 4L38 4L38 6L37 6L37 7L36 7L36 5L37 5L37 4L36 4L36 5L35 5L35 3L34 3L34 2ZM15 4L15 5L14 5L14 7L15 7L15 8L16 8L16 9L17 9L17 10L16 10L16 11L17 11L17 10L18 10L18 9L19 9L19 10L20 10L20 9L19 9L19 8L18 8L18 9L17 9L17 8L16 8L16 7L17 7L17 6L16 6L16 7L15 7L15 5L16 5L16 4ZM25 4L25 8L26 8L26 4ZM32 4L32 5L34 5L34 7L33 7L33 6L32 6L32 7L33 7L33 9L34 9L34 8L35 8L35 9L37 9L37 10L36 10L36 12L35 12L35 13L36 13L36 14L32 14L32 12L33 12L33 13L34 13L34 12L33 12L33 10L32 10L32 12L31 12L31 13L30 13L30 14L29 14L29 13L28 13L28 14L29 14L29 16L28 16L28 15L27 15L27 16L26 16L26 18L25 18L25 17L22 17L22 16L21 16L21 17L22 17L22 18L21 18L21 20L24 20L24 21L23 21L23 22L24 22L24 21L25 21L25 22L26 22L26 23L25 23L25 24L24 24L24 23L23 23L23 24L24 24L24 25L22 25L22 24L20 24L20 25L22 25L22 26L21 26L21 27L22 27L22 26L23 26L23 27L25 27L25 28L26 28L26 29L23 29L23 30L25 30L25 31L24 31L24 32L25 32L25 33L23 33L23 34L24 34L24 36L23 36L23 37L19 37L19 36L22 36L22 33L21 33L21 32L23 32L23 31L20 31L20 32L16 32L16 33L18 33L18 34L15 34L15 32L12 32L12 34L10 34L10 35L12 35L12 36L11 36L11 37L8 37L8 38L10 38L10 40L11 40L11 39L12 39L12 40L13 40L13 39L12 39L12 38L13 38L13 37L14 37L14 39L15 39L15 40L16 40L16 41L17 41L17 42L18 42L18 41L19 41L19 42L20 42L20 41L21 41L21 42L22 42L22 43L21 43L21 44L20 44L20 45L21 45L21 47L20 47L20 49L21 49L21 47L24 47L24 48L25 48L25 47L24 47L24 46L25 46L25 45L24 45L24 44L23 44L23 43L25 43L25 44L27 44L27 45L26 45L26 47L27 47L27 45L28 45L28 44L29 44L29 43L30 43L30 44L31 44L31 45L32 45L32 44L33 44L33 43L34 43L34 42L33 42L33 41L32 41L32 40L31 40L31 41L29 41L29 42L27 42L27 41L28 41L28 39L27 39L27 38L28 38L28 37L26 37L26 40L27 40L27 41L26 41L26 42L27 42L27 43L25 43L25 41L24 41L24 40L25 40L25 36L27 36L27 34L26 34L26 35L25 35L25 33L26 33L26 32L28 32L28 33L29 33L29 34L30 34L30 36L29 36L29 37L31 37L31 38L29 38L29 39L33 39L33 40L35 40L35 39L37 39L37 38L38 38L38 37L37 37L37 36L38 36L38 33L37 33L37 32L34 32L34 31L36 31L36 30L33 30L33 29L32 29L32 28L31 28L31 26L32 26L32 27L33 27L33 28L35 28L35 29L38 29L38 28L40 28L40 27L41 27L41 28L42 28L42 26L44 26L44 24L43 24L43 25L42 25L42 24L41 24L41 23L44 23L44 20L46 20L46 21L45 21L45 22L46 22L46 23L45 23L45 24L46 24L46 25L47 25L47 22L49 22L49 21L51 21L51 20L52 20L52 19L49 19L49 18L50 18L50 17L47 17L47 18L44 18L44 15L45 15L45 17L46 17L46 16L48 16L48 15L49 15L49 14L50 14L50 12L49 12L49 13L47 13L47 14L44 14L44 15L42 15L42 16L41 16L41 14L43 14L43 13L41 13L41 14L40 14L40 15L39 15L39 14L38 14L38 13L39 13L39 11L37 11L37 10L38 10L38 9L39 9L39 10L40 10L40 12L41 12L41 10L40 10L40 9L39 9L39 8L40 8L40 7L41 7L41 6L40 6L40 5L39 5L39 6L38 6L38 7L37 7L37 8L35 8L35 5L34 5L34 4ZM9 5L9 7L10 7L10 5ZM27 5L27 8L30 8L30 5ZM18 6L18 7L19 7L19 6ZM28 6L28 7L29 7L29 6ZM39 6L39 7L40 7L40 6ZM44 6L44 7L45 7L45 6ZM48 6L48 7L49 7L49 6ZM55 8L55 9L56 9L56 8ZM2 9L2 10L1 10L1 11L3 11L3 9ZM12 9L12 10L10 10L10 11L13 11L13 12L14 12L14 11L13 11L13 9ZM4 10L4 11L5 11L5 10ZM16 12L16 13L17 13L17 12ZM52 12L52 13L53 13L53 15L54 15L54 13L55 13L55 14L56 14L56 12L54 12L54 13L53 13L53 12ZM6 14L6 15L7 15L7 14ZM30 14L30 15L31 15L31 14ZM37 14L37 15L35 15L35 16L33 16L33 15L32 15L32 19L34 19L34 20L35 20L35 19L36 19L36 20L38 20L38 23L37 23L37 24L39 24L39 25L38 25L38 26L37 26L37 25L33 25L33 24L32 24L32 23L35 23L35 21L33 21L33 20L32 20L32 21L31 21L31 23L30 23L30 22L29 22L29 21L30 21L30 20L31 20L31 18L30 18L30 19L28 19L28 18L26 18L26 21L28 21L28 22L27 22L27 24L25 24L25 25L26 25L26 26L25 26L25 27L26 27L26 26L28 26L28 25L29 25L29 24L32 24L32 26L33 26L33 27L34 27L34 26L36 26L36 27L35 27L35 28L36 28L36 27L40 27L40 26L42 26L42 25L41 25L41 24L39 24L39 23L40 23L40 22L39 22L39 21L41 21L41 20L38 20L38 19L39 19L39 17L41 17L41 16L39 16L39 15L38 15L38 14ZM3 15L3 16L2 16L2 17L1 17L1 18L2 18L2 19L3 19L3 20L5 20L5 16L4 16L4 15ZM3 16L3 17L2 17L2 18L3 18L3 19L4 19L4 16ZM27 16L27 17L28 17L28 16ZM35 16L35 17L37 17L37 18L38 18L38 17L39 17L39 16L38 16L38 17L37 17L37 16ZM42 16L42 17L43 17L43 16ZM22 18L22 19L24 19L24 18ZM41 18L41 19L42 19L42 20L44 20L44 18L43 18L43 19L42 19L42 18ZM47 18L47 19L48 19L48 18ZM13 19L13 20L12 20L12 21L13 21L13 22L12 22L12 24L13 24L13 23L14 23L14 21L13 21L13 20L14 20L14 19ZM47 20L47 21L46 21L46 22L47 22L47 21L49 21L49 20ZM28 23L28 24L27 24L27 25L28 25L28 24L29 24L29 23ZM2 24L2 25L4 25L4 24ZM6 25L6 26L7 26L7 25ZM9 25L9 26L10 26L10 27L11 27L11 25ZM39 25L39 26L40 26L40 25ZM2 26L2 27L3 27L3 30L4 30L4 26ZM53 26L53 27L54 27L54 26ZM5 27L5 30L8 30L8 27ZM19 27L19 28L20 28L20 27ZM27 27L27 30L30 30L30 27ZM49 27L49 30L52 30L52 27ZM6 28L6 29L7 29L7 28ZM21 28L21 29L22 29L22 28ZM28 28L28 29L29 29L29 28ZM50 28L50 29L51 29L51 28ZM14 29L14 30L13 30L13 31L16 31L16 29ZM18 29L18 30L20 30L20 29ZM31 29L31 31L30 31L30 32L29 32L29 31L28 31L28 32L29 32L29 33L31 33L31 35L33 35L33 34L35 34L35 36L32 36L32 37L33 37L33 39L35 39L35 36L37 36L37 34L35 34L35 33L33 33L33 31L32 31L32 29ZM10 30L10 31L12 31L12 30ZM38 30L38 32L39 32L39 30ZM25 31L25 32L26 32L26 31ZM31 31L31 33L32 33L32 31ZM43 31L43 32L41 32L41 33L39 33L39 34L40 34L40 35L39 35L39 37L40 37L40 36L41 36L41 35L42 35L42 34L45 34L45 35L44 35L44 36L45 36L45 37L44 37L44 38L45 38L45 39L44 39L44 40L45 40L45 41L47 41L47 39L48 39L48 37L47 37L47 36L46 36L46 35L47 35L47 34L45 34L45 33L43 33L43 32L45 32L45 31ZM5 32L5 33L7 33L7 34L8 34L8 35L7 35L7 36L6 36L6 37L7 37L7 36L9 36L9 34L8 34L8 33L7 33L7 32ZM48 32L48 33L49 33L49 32ZM52 32L52 33L53 33L53 32ZM13 33L13 34L12 34L12 35L14 35L14 33ZM19 33L19 35L16 35L16 36L14 36L14 37L16 37L16 38L15 38L15 39L16 39L16 40L17 40L17 41L18 41L18 40L17 40L17 36L19 36L19 35L21 35L21 33ZM54 33L54 34L55 34L55 33ZM49 34L49 35L50 35L50 36L51 36L51 37L52 37L52 35L53 35L53 34L52 34L52 35L50 35L50 34ZM12 36L12 37L11 37L11 38L12 38L12 37L13 37L13 36ZM23 37L23 38L22 38L22 39L21 39L21 41L22 41L22 42L23 42L23 40L24 40L24 39L23 39L23 38L24 38L24 37ZM45 37L45 38L46 38L46 39L45 39L45 40L46 40L46 39L47 39L47 37ZM49 37L49 38L50 38L50 37ZM54 37L54 38L55 38L55 37ZM18 38L18 39L20 39L20 38ZM22 39L22 40L23 40L23 39ZM49 39L49 41L48 41L48 42L47 42L47 43L46 43L46 44L45 44L45 42L44 42L44 44L45 44L45 45L44 45L44 48L46 48L46 47L47 47L47 48L48 48L48 47L50 47L50 45L47 45L47 43L48 43L48 42L49 42L49 43L50 43L50 44L51 44L51 43L53 43L53 42L51 42L51 41L53 41L53 40L51 40L51 39ZM19 40L19 41L20 41L20 40ZM31 41L31 42L32 42L32 43L31 43L31 44L32 44L32 43L33 43L33 42L32 42L32 41ZM41 42L41 43L39 43L39 45L38 45L38 46L39 46L39 45L41 45L41 44L42 44L42 42ZM50 42L50 43L51 43L51 42ZM1 43L1 44L0 44L0 45L1 45L1 44L2 44L2 43ZM14 44L14 45L15 45L15 44ZM21 44L21 45L22 45L22 46L23 46L23 45L22 45L22 44ZM5 45L5 46L7 46L7 45ZM10 45L10 46L11 46L11 45ZM45 45L45 46L47 46L47 45ZM42 47L42 48L43 48L43 47ZM6 48L6 49L7 49L7 48ZM14 48L14 49L13 49L13 51L14 51L14 52L15 52L15 53L16 53L16 52L15 52L15 51L17 51L17 50L16 50L16 49L15 49L15 48ZM38 48L38 49L39 49L39 48ZM53 48L53 49L54 49L54 48ZM27 49L27 52L30 52L30 49ZM31 49L31 50L32 50L32 49ZM49 49L49 52L52 52L52 49ZM9 50L9 51L10 51L10 50ZM28 50L28 51L29 51L29 50ZM50 50L50 51L51 51L51 50ZM54 50L54 51L55 51L55 50ZM45 51L45 52L44 52L44 53L43 53L43 52L42 52L42 53L43 53L43 54L44 54L44 53L45 53L45 52L46 52L46 51ZM10 52L10 53L11 53L11 55L12 55L12 52ZM53 52L53 53L54 53L54 52ZM9 55L9 56L10 56L10 55ZM42 55L42 56L44 56L44 55ZM48 55L48 56L49 56L49 55ZM50 55L50 56L51 56L51 55ZM0 0L0 7L7 7L7 0ZM1 1L1 6L6 6L6 1ZM2 2L2 5L5 5L5 2ZM50 0L50 7L57 7L57 0ZM51 1L51 6L56 6L56 1ZM52 2L52 5L55 5L55 2ZM0 50L0 57L7 57L7 50ZM1 51L1 56L6 56L6 51ZM2 52L2 55L5 55L5 52Z" fill="#000000"/></g></g></svg>
