<?xml version="1.0" encoding="UTF-8"?>
<svg xmlns="http://www.w3.org/2000/svg" version="1.1" width="300" height="300" viewBox="0 0 300 300"><rect x="0" y="0" width="300" height="300" fill="#fefefe"/><g transform="scale(4.615)"><g transform="translate(4,4)"><path fill-rule="evenodd" d="M9 0L9 1L8 1L8 2L10 2L10 3L8 3L8 4L10 4L10 3L11 3L11 6L10 6L10 7L9 7L9 5L8 5L8 7L9 7L9 8L6 8L6 9L5 9L5 8L0 8L0 10L1 10L1 12L3 12L3 13L4 13L4 14L5 14L5 13L7 13L7 14L6 14L6 15L7 15L7 16L6 16L6 17L5 17L5 16L4 16L4 15L3 15L3 14L0 14L0 15L1 15L1 16L0 16L0 20L1 20L1 17L2 17L2 19L3 19L3 20L2 20L2 22L1 22L1 23L2 23L2 22L3 22L3 21L5 21L5 22L4 22L4 23L3 23L3 24L0 24L0 27L1 27L1 28L2 28L2 29L1 29L1 31L0 31L0 32L2 32L2 33L0 33L0 34L2 34L2 36L3 36L3 34L4 34L4 33L3 33L3 32L4 32L4 31L5 31L5 35L4 35L4 38L3 38L3 39L4 39L4 40L5 40L5 41L8 41L8 40L10 40L10 41L9 41L9 44L8 44L8 46L6 46L6 45L7 45L7 44L6 44L6 43L7 43L7 42L5 42L5 44L6 44L6 45L2 45L2 43L0 43L0 45L1 45L1 46L0 46L0 48L5 48L5 47L7 47L7 48L6 48L6 49L8 49L8 51L9 51L9 52L8 52L8 57L9 57L9 56L10 56L10 54L9 54L9 52L10 52L10 51L9 51L9 49L11 49L11 52L12 52L12 53L13 53L13 54L14 54L14 52L15 52L15 53L16 53L16 54L15 54L15 55L16 55L16 56L17 56L17 57L19 57L19 56L17 56L17 54L19 54L19 55L20 55L20 54L19 54L19 53L20 53L20 52L22 52L22 51L19 51L19 50L20 50L20 49L19 49L19 48L18 48L18 47L19 47L19 46L20 46L20 45L19 45L19 44L20 44L20 43L19 43L19 42L20 42L20 40L23 40L23 42L22 42L22 41L21 41L21 42L22 42L22 43L21 43L21 44L22 44L22 45L21 45L21 47L20 47L20 48L21 48L21 47L23 47L23 46L22 46L22 45L24 45L24 47L25 47L25 45L24 45L24 44L27 44L27 43L25 43L25 41L24 41L24 40L25 40L25 39L27 39L27 40L28 40L28 39L27 39L27 38L28 38L28 37L27 37L27 31L31 31L31 30L33 30L33 31L32 31L32 32L31 32L31 33L29 33L29 32L28 32L28 33L29 33L29 34L30 34L30 36L29 36L29 37L31 37L31 38L29 38L29 39L33 39L33 40L35 40L35 42L37 42L37 43L36 43L36 44L35 44L35 43L34 43L34 42L33 42L33 41L32 41L32 40L31 40L31 41L30 41L30 40L29 40L29 42L28 42L28 44L33 44L33 43L34 43L34 45L36 45L36 48L35 48L35 49L36 49L36 50L35 50L35 54L33 54L33 53L34 53L34 52L33 52L33 51L34 51L34 50L33 50L33 49L32 49L32 48L31 48L31 46L33 46L33 48L34 48L34 47L35 47L35 46L33 46L33 45L30 45L30 46L27 46L27 45L26 45L26 47L30 47L30 48L25 48L25 49L24 49L24 48L23 48L23 49L21 49L21 50L25 50L25 51L26 51L26 52L24 52L24 53L23 53L23 54L22 54L22 53L21 53L21 54L22 54L22 55L21 55L21 56L23 56L23 57L26 57L26 56L27 56L27 57L29 57L29 56L30 56L30 57L31 57L31 56L35 56L35 57L39 57L39 56L37 56L37 55L40 55L40 56L41 56L41 57L44 57L44 56L45 56L45 57L46 57L46 56L45 56L45 55L48 55L48 57L49 57L49 56L50 56L50 57L52 57L52 55L51 55L51 53L52 53L52 54L53 54L53 57L54 57L54 56L55 56L55 57L56 57L56 56L55 56L55 54L53 54L53 52L54 52L54 53L57 53L57 52L56 52L56 51L54 51L54 50L57 50L57 48L56 48L56 46L57 46L57 45L56 45L56 44L57 44L57 43L56 43L56 41L55 41L55 39L57 39L57 37L55 37L55 36L57 36L57 35L56 35L56 34L57 34L57 32L56 32L56 30L57 30L57 28L56 28L56 27L55 27L55 26L57 26L57 25L56 25L56 22L57 22L57 20L56 20L56 22L55 22L55 23L53 23L53 21L51 21L51 20L52 20L52 19L53 19L53 20L55 20L55 19L56 19L56 18L57 18L57 17L56 17L56 16L57 16L57 15L56 15L56 14L57 14L57 13L56 13L56 14L54 14L54 15L53 15L53 13L54 13L54 12L55 12L55 11L56 11L56 8L55 8L55 10L54 10L54 11L53 11L53 9L54 9L54 8L53 8L53 9L52 9L52 8L51 8L51 10L50 10L50 8L49 8L49 6L48 6L48 7L47 7L47 5L48 5L48 0L46 0L46 1L47 1L47 2L44 2L44 3L43 3L43 4L40 4L40 5L39 5L39 6L38 6L38 4L37 4L37 3L36 3L36 0L35 0L35 1L33 1L33 2L32 2L32 0L29 0L29 1L26 1L26 0L23 0L23 2L22 2L22 3L23 3L23 4L24 4L24 5L23 5L23 6L22 6L22 7L21 7L21 5L22 5L22 4L19 4L19 3L21 3L21 2L20 2L20 0L18 0L18 1L17 1L17 4L19 4L19 5L20 5L20 7L19 7L19 6L18 6L18 7L17 7L17 6L16 6L16 7L15 7L15 6L14 6L14 7L13 7L13 5L12 5L12 2L13 2L13 4L14 4L14 2L16 2L16 1L14 1L14 2L13 2L13 1L12 1L12 0L11 0L11 2L10 2L10 0ZM21 0L21 1L22 1L22 0ZM37 0L37 1L38 1L38 3L41 3L41 2L43 2L43 0L41 0L41 1L40 1L40 0L39 0L39 1L38 1L38 0ZM29 1L29 3L28 3L28 2L23 2L23 3L26 3L26 4L25 4L25 8L26 8L26 4L31 4L31 8L32 8L32 10L31 10L31 11L30 11L30 10L29 10L29 12L28 12L28 13L27 13L27 14L26 14L26 12L27 12L27 11L26 11L26 12L25 12L25 11L24 11L24 12L23 12L23 13L22 13L22 12L21 12L21 11L22 11L22 10L23 10L23 8L24 8L24 6L23 6L23 7L22 7L22 8L20 8L20 10L21 10L21 11L19 11L19 13L20 13L20 15L21 15L21 16L19 16L19 17L20 17L20 18L18 18L18 17L16 17L16 16L18 16L18 15L19 15L19 14L17 14L17 13L18 13L18 12L17 12L17 13L16 13L16 12L15 12L15 13L13 13L13 14L15 14L15 13L16 13L16 16L14 16L14 15L13 15L13 16L12 16L12 14L11 14L11 13L12 13L12 11L13 11L13 12L14 12L14 11L13 11L13 10L15 10L15 11L18 11L18 10L19 10L19 9L16 9L16 8L17 8L17 7L16 7L16 8L15 8L15 7L14 7L14 9L13 9L13 10L12 10L12 11L11 11L11 13L10 13L10 15L9 15L9 14L7 14L7 15L8 15L8 17L10 17L10 18L7 18L7 17L6 17L6 18L5 18L5 17L3 17L3 16L2 16L2 17L3 17L3 18L4 18L4 19L6 19L6 20L7 20L7 21L6 21L6 22L7 22L7 23L6 23L6 24L5 24L5 25L2 25L2 26L5 26L5 25L6 25L6 26L8 26L8 25L9 25L9 23L8 23L8 22L10 22L10 25L12 25L12 26L14 26L14 27L11 27L11 28L9 28L9 29L10 29L10 30L9 30L9 31L10 31L10 30L12 30L12 29L13 29L13 28L14 28L14 29L16 29L16 31L15 31L15 32L16 32L16 33L15 33L15 34L17 34L17 35L13 35L13 33L14 33L14 31L13 31L13 33L12 33L12 32L9 32L9 33L8 33L8 31L6 31L6 32L7 32L7 33L6 33L6 34L7 34L7 35L5 35L5 37L6 37L6 38L8 38L8 37L9 37L9 38L11 38L11 39L10 39L10 40L11 40L11 41L12 41L12 43L11 43L11 45L10 45L10 46L9 46L9 48L8 48L8 49L9 49L9 48L12 48L12 49L15 49L15 50L17 50L17 51L16 51L16 53L17 53L17 51L18 51L18 50L19 50L19 49L17 49L17 47L18 47L18 46L17 46L17 45L18 45L18 44L15 44L15 42L17 42L17 43L18 43L18 42L19 42L19 41L17 41L17 40L19 40L19 39L20 39L20 38L18 38L18 39L17 39L17 36L18 36L18 34L19 34L19 35L20 35L20 34L21 34L21 33L22 33L22 35L21 35L21 36L19 36L19 37L23 37L23 38L24 38L24 37L23 37L23 36L24 36L24 34L23 34L23 33L25 33L25 35L26 35L26 31L25 31L25 32L24 32L24 31L23 31L23 28L25 28L25 29L26 29L26 28L25 28L25 27L26 27L26 26L29 26L29 25L31 25L31 24L32 24L32 26L31 26L31 28L32 28L32 29L33 29L33 30L35 30L35 28L37 28L37 27L39 27L39 28L38 28L38 29L37 29L37 30L36 30L36 31L35 31L35 32L34 32L34 31L33 31L33 32L32 32L32 33L31 33L31 34L32 34L32 35L34 35L34 34L35 34L35 36L32 36L32 37L33 37L33 39L35 39L35 40L38 40L38 42L39 42L39 41L42 41L42 40L43 40L43 39L45 39L45 40L44 40L44 41L45 41L45 42L44 42L44 43L43 43L43 44L44 44L44 45L43 45L43 46L41 46L41 48L39 48L39 47L40 47L40 45L41 45L41 44L42 44L42 42L41 42L41 43L39 43L39 45L38 45L38 46L39 46L39 47L38 47L38 48L37 48L37 49L38 49L38 50L36 50L36 52L38 52L38 53L37 53L37 54L40 54L40 53L42 53L42 52L43 52L43 51L44 51L44 50L46 50L46 51L45 51L45 52L44 52L44 53L43 53L43 54L44 54L44 55L42 55L42 54L41 54L41 55L42 55L42 56L44 56L44 55L45 55L45 54L48 54L48 50L47 50L47 49L48 49L48 48L49 48L49 47L48 47L48 45L49 45L49 46L50 46L50 48L53 48L53 49L54 49L54 48L53 48L53 47L54 47L54 46L56 46L56 45L55 45L55 44L54 44L54 45L51 45L51 46L50 46L50 43L51 43L51 44L53 44L53 43L54 43L54 42L53 42L53 41L51 41L51 42L50 42L50 43L49 43L49 42L48 42L48 41L49 41L49 39L51 39L51 40L53 40L53 39L52 39L52 38L53 38L53 35L55 35L55 34L56 34L56 32L55 32L55 34L54 34L54 33L52 33L52 31L48 31L48 28L47 28L47 29L46 29L46 30L47 30L47 31L45 31L45 32L43 32L43 31L44 31L44 30L40 30L40 29L45 29L45 28L46 28L46 27L47 27L47 25L50 25L50 26L51 26L51 25L54 25L54 24L53 24L53 23L51 23L51 25L50 25L50 24L49 24L49 23L50 23L50 22L51 22L51 21L49 21L49 22L47 22L47 21L48 21L48 20L49 20L49 18L47 18L47 17L49 17L49 15L50 15L50 16L51 16L51 17L50 17L50 19L51 19L51 18L55 18L55 16L53 16L53 15L50 15L50 14L51 14L51 12L50 12L50 10L48 10L48 11L47 11L47 12L45 12L45 11L46 11L46 10L47 10L47 9L46 9L46 8L47 8L47 7L46 7L46 5L47 5L47 3L44 3L44 6L43 6L43 7L42 7L42 6L41 6L41 5L40 5L40 6L39 6L39 7L40 7L40 8L38 8L38 11L39 11L39 10L40 10L40 11L41 11L41 12L39 12L39 13L38 13L38 14L37 14L37 13L35 13L35 12L37 12L37 11L36 11L36 10L37 10L37 9L35 9L35 8L37 8L37 7L38 7L38 6L37 6L37 7L36 7L36 5L37 5L37 4L36 4L36 5L35 5L35 4L34 4L34 3L35 3L35 2L33 2L33 3L32 3L32 2L30 2L30 1ZM31 3L31 4L32 4L32 5L34 5L34 7L33 7L33 6L32 6L32 7L33 7L33 9L34 9L34 8L35 8L35 5L34 5L34 4L32 4L32 3ZM15 4L15 5L16 5L16 4ZM45 4L45 5L46 5L46 4ZM27 5L27 8L30 8L30 5ZM11 6L11 7L10 7L10 8L9 8L9 9L8 9L8 10L7 10L7 9L6 9L6 10L5 10L5 9L1 9L1 10L3 10L3 12L4 12L4 13L5 13L5 12L7 12L7 13L9 13L9 12L10 12L10 10L11 10L11 9L12 9L12 8L13 8L13 7L12 7L12 6ZM28 6L28 7L29 7L29 6ZM40 6L40 7L41 7L41 6ZM44 6L44 7L43 7L43 9L41 9L41 10L42 10L42 11L43 11L43 13L39 13L39 14L38 14L38 15L39 15L39 16L38 16L38 17L37 17L37 16L35 16L35 14L33 14L33 13L34 13L34 12L33 12L33 10L32 10L32 11L31 11L31 13L30 13L30 14L29 14L29 13L28 13L28 14L29 14L29 16L28 16L28 15L27 15L27 16L26 16L26 15L24 15L24 14L25 14L25 12L24 12L24 13L23 13L23 14L22 14L22 13L21 13L21 12L20 12L20 13L21 13L21 15L24 15L24 16L26 16L26 19L25 19L25 17L22 17L22 16L21 16L21 17L22 17L22 18L24 18L24 19L21 19L21 18L20 18L20 19L21 19L21 20L24 20L24 21L21 21L21 23L23 23L23 24L24 24L24 25L22 25L22 26L21 26L21 27L20 27L20 26L19 26L19 25L21 25L21 24L19 24L19 23L20 23L20 22L19 22L19 23L18 23L18 21L20 21L20 20L19 20L19 19L18 19L18 18L17 18L17 19L18 19L18 20L17 20L17 21L16 21L16 20L15 20L15 21L16 21L16 22L14 22L14 21L12 21L12 20L14 20L14 19L13 19L13 18L14 18L14 16L13 16L13 18L12 18L12 16L11 16L11 18L12 18L12 19L11 19L11 20L10 20L10 19L9 19L9 20L8 20L8 19L7 19L7 18L6 18L6 19L7 19L7 20L8 20L8 21L7 21L7 22L8 22L8 21L10 21L10 22L11 22L11 24L12 24L12 25L13 25L13 24L12 24L12 23L13 23L13 22L14 22L14 25L15 25L15 23L16 23L16 24L17 24L17 25L18 25L18 26L16 26L16 27L18 27L18 26L19 26L19 27L20 27L20 28L21 28L21 29L22 29L22 28L21 28L21 27L22 27L22 26L23 26L23 27L25 27L25 26L26 26L26 25L25 25L25 24L31 24L31 23L27 23L27 21L25 21L25 20L26 20L26 19L27 19L27 18L28 18L28 19L30 19L30 18L31 18L31 17L32 17L32 18L33 18L33 19L31 19L31 21L28 21L28 22L31 22L31 21L32 21L32 20L33 20L33 21L35 21L35 23L32 23L32 24L33 24L33 25L37 25L37 26L38 26L38 25L40 25L40 26L39 26L39 27L40 27L40 26L43 26L43 28L45 28L45 27L46 27L46 26L45 26L45 25L46 25L46 24L45 24L45 25L44 25L44 20L45 20L45 19L46 19L46 18L44 18L44 15L42 15L42 16L41 16L41 14L43 14L43 13L44 13L44 14L45 14L45 15L47 15L47 16L48 16L48 15L49 15L49 14L50 14L50 12L49 12L49 13L47 13L47 14L45 14L45 13L44 13L44 11L45 11L45 10L46 10L46 9L45 9L45 10L44 10L44 8L46 8L46 7L45 7L45 6ZM48 8L48 9L49 9L49 8ZM9 9L9 10L10 10L10 9ZM15 9L15 10L16 10L16 9ZM21 9L21 10L22 10L22 9ZM27 9L27 10L28 10L28 9ZM6 10L6 11L7 11L7 10ZM43 10L43 11L44 11L44 10ZM8 11L8 12L9 12L9 11ZM32 12L32 13L31 13L31 14L30 14L30 15L31 15L31 16L32 16L32 17L33 17L33 18L34 18L34 20L35 20L35 19L36 19L36 20L37 20L37 21L38 21L38 22L37 22L37 24L40 24L40 25L43 25L43 23L42 23L42 24L40 24L40 22L39 22L39 21L41 21L41 20L39 20L39 21L38 21L38 19L39 19L39 17L41 17L41 16L39 16L39 17L38 17L38 18L37 18L37 17L35 17L35 16L33 16L33 15L31 15L31 14L32 14L32 13L33 13L33 12ZM52 12L52 13L53 13L53 12ZM27 16L27 17L28 17L28 16ZM42 16L42 17L43 17L43 16ZM45 16L45 17L46 17L46 16ZM15 17L15 18L16 18L16 17ZM41 18L41 19L42 19L42 18ZM43 18L43 20L42 20L42 21L43 21L43 20L44 20L44 18ZM24 21L24 22L23 22L23 23L24 23L24 24L25 24L25 23L26 23L26 22L25 22L25 21ZM45 21L45 22L46 22L46 23L47 23L47 24L48 24L48 23L47 23L47 22L46 22L46 21ZM6 24L6 25L8 25L8 24ZM32 26L32 27L33 27L33 28L35 28L35 27L36 27L36 26L34 26L34 27L33 27L33 26ZM44 26L44 27L45 27L45 26ZM53 26L53 27L54 27L54 26ZM5 27L5 30L8 30L8 27ZM27 27L27 30L30 30L30 27ZM41 27L41 28L42 28L42 27ZM49 27L49 30L52 30L52 27ZM3 28L3 29L4 29L4 28ZM6 28L6 29L7 29L7 28ZM11 28L11 29L12 29L12 28ZM16 28L16 29L18 29L18 30L17 30L17 31L18 31L18 30L20 30L20 32L18 32L18 33L17 33L17 34L18 34L18 33L19 33L19 34L20 34L20 32L23 32L23 31L21 31L21 30L20 30L20 29L18 29L18 28ZM28 28L28 29L29 29L29 28ZM50 28L50 29L51 29L51 28ZM54 28L54 29L53 29L53 30L54 30L54 31L55 31L55 30L54 30L54 29L56 29L56 28ZM3 30L3 31L4 31L4 30ZM38 30L38 32L39 32L39 30ZM47 31L47 32L45 32L45 33L43 33L43 32L41 32L41 33L39 33L39 34L40 34L40 35L39 35L39 37L40 37L40 38L43 38L43 37L44 37L44 38L45 38L45 39L46 39L46 41L47 41L47 39L49 39L49 38L50 38L50 36L52 36L52 35L53 35L53 34L52 34L52 33L51 33L51 32L50 32L50 34L49 34L49 35L50 35L50 36L49 36L49 38L47 38L47 39L46 39L46 38L45 38L45 37L44 37L44 36L46 36L46 37L47 37L47 36L48 36L48 35L47 35L47 34L45 34L45 33L47 33L47 32L48 32L48 33L49 33L49 32L48 32L48 31ZM33 32L33 34L34 34L34 32ZM35 32L35 34L37 34L37 36L35 36L35 39L38 39L38 40L42 40L42 39L38 39L38 37L37 37L37 36L38 36L38 33L37 33L37 32ZM2 33L2 34L3 34L3 33ZM10 33L10 34L12 34L12 33ZM8 34L8 35L7 35L7 36L6 36L6 37L7 37L7 36L8 36L8 35L9 35L9 36L10 36L10 37L11 37L11 36L13 36L13 35L11 35L11 36L10 36L10 35L9 35L9 34ZM42 34L42 35L43 35L43 36L40 36L40 37L43 37L43 36L44 36L44 35L45 35L45 34ZM50 34L50 35L52 35L52 34ZM46 35L46 36L47 36L47 35ZM0 37L0 40L2 40L2 39L1 39L1 37ZM14 37L14 38L12 38L12 39L11 39L11 40L13 40L13 43L12 43L12 45L15 45L15 44L14 44L14 40L16 40L16 39L15 39L15 38L16 38L16 37ZM25 37L25 38L27 38L27 37ZM54 38L54 39L55 39L55 38ZM5 39L5 40L8 40L8 39ZM13 39L13 40L14 40L14 39ZM23 39L23 40L24 40L24 39ZM1 41L1 42L2 42L2 41ZM3 41L3 42L4 42L4 41ZM26 41L26 42L27 42L27 41ZM31 41L31 42L32 42L32 43L33 43L33 42L32 42L32 41ZM45 42L45 43L44 43L44 44L45 44L45 45L44 45L44 48L43 48L43 47L42 47L42 48L41 48L41 50L38 50L38 52L39 52L39 51L40 51L40 52L41 52L41 50L42 50L42 51L43 51L43 49L44 49L44 48L46 48L46 49L47 49L47 48L48 48L48 47L47 47L47 46L45 46L45 45L47 45L47 43L48 43L48 42L47 42L47 43L46 43L46 42ZM51 42L51 43L53 43L53 42ZM3 43L3 44L4 44L4 43ZM23 43L23 44L24 44L24 43ZM45 43L45 44L46 44L46 43ZM1 46L1 47L2 47L2 46ZM3 46L3 47L5 47L5 46ZM10 46L10 47L11 47L11 46ZM13 46L13 47L12 47L12 48L13 48L13 47L15 47L15 48L16 48L16 47L15 47L15 46ZM51 46L51 47L53 47L53 46ZM46 47L46 48L47 48L47 47ZM38 48L38 49L39 49L39 48ZM42 48L42 49L43 49L43 48ZM55 48L55 49L56 49L56 48ZM25 49L25 50L26 50L26 49ZM27 49L27 52L30 52L30 49ZM31 49L31 50L32 50L32 51L31 51L31 53L30 53L30 54L27 54L27 56L29 56L29 55L30 55L30 56L31 56L31 54L32 54L32 53L33 53L33 52L32 52L32 51L33 51L33 50L32 50L32 49ZM49 49L49 52L52 52L52 49ZM12 50L12 51L13 51L13 52L14 52L14 50ZM28 50L28 51L29 51L29 50ZM50 50L50 51L51 51L51 50ZM46 51L46 52L47 52L47 51ZM24 53L24 54L23 54L23 55L24 55L24 56L26 56L26 54L25 54L25 53ZM44 53L44 54L45 54L45 53ZM11 54L11 55L12 55L12 54ZM35 54L35 56L36 56L36 54ZM50 55L50 56L51 56L51 55ZM11 56L11 57L12 57L12 56ZM13 56L13 57L15 57L15 56ZM0 0L0 7L7 7L7 0ZM1 1L1 6L6 6L6 1ZM2 2L2 5L5 5L5 2ZM50 0L50 7L57 7L57 0ZM51 1L51 6L56 6L56 1ZM52 2L52 5L55 5L55 2ZM0 50L0 57L7 57L7 50ZM1 51L1 56L6 56L6 51ZM2 52L2 55L5 55L5 52Z" fill="#000000"/></g></g></svg>
