<?xml version="1.0" encoding="UTF-8"?>
<svg xmlns="http://www.w3.org/2000/svg" version="1.1" width="300" height="300" viewBox="0 0 300 300"><rect x="0" y="0" width="300" height="300" fill="#fefefe"/><g transform="scale(4.615)"><g transform="translate(4,4)"><path fill-rule="evenodd" d="M8 0L8 4L9 4L9 5L8 5L8 7L9 7L9 5L10 5L10 4L11 4L11 5L12 5L12 7L11 7L11 6L10 6L10 7L11 7L11 9L7 9L7 8L4 8L4 10L2 10L2 11L0 11L0 12L3 12L3 14L1 14L1 13L0 13L0 15L2 15L2 16L3 16L3 18L2 18L2 17L1 17L1 16L0 16L0 18L2 18L2 21L3 21L3 20L4 20L4 22L3 22L3 24L2 24L2 22L0 22L0 24L2 24L2 25L1 25L1 26L0 26L0 28L1 28L1 26L2 26L2 27L3 27L3 26L4 26L4 30L3 30L3 28L2 28L2 31L1 31L1 32L0 32L0 34L1 34L1 35L0 35L0 37L1 37L1 39L0 39L0 41L1 41L1 42L0 42L0 43L1 43L1 44L0 44L0 45L4 45L4 44L6 44L6 45L8 45L8 46L5 46L5 47L3 47L3 46L2 46L2 47L1 47L1 46L0 46L0 48L5 48L5 47L9 47L9 48L8 48L8 50L9 50L9 51L8 51L8 53L9 53L9 54L13 54L13 56L14 56L14 57L15 57L15 56L14 56L14 55L16 55L16 54L19 54L19 55L18 55L18 56L17 56L17 57L22 57L22 54L23 54L23 55L24 55L24 57L25 57L25 56L26 56L26 57L27 57L27 55L26 55L26 54L27 54L27 53L28 53L28 57L29 57L29 55L30 55L30 57L34 57L34 55L35 55L35 57L37 57L37 56L36 56L36 54L37 54L37 53L38 53L38 55L39 55L39 57L40 57L40 54L43 54L43 55L41 55L41 56L44 56L44 57L47 57L47 55L46 55L46 56L44 56L44 53L45 53L45 51L47 51L47 52L46 52L46 53L47 53L47 52L48 52L48 54L49 54L49 57L50 57L50 55L51 55L51 56L53 56L53 57L54 57L54 56L53 56L53 54L57 54L57 52L56 52L56 44L57 44L57 43L56 43L56 41L57 41L57 40L54 40L54 41L53 41L53 40L52 40L52 39L54 39L54 38L55 38L55 39L57 39L57 38L55 38L55 36L53 36L53 35L56 35L56 34L55 34L55 33L56 33L56 30L55 30L55 29L57 29L57 27L55 27L55 29L54 29L54 28L53 28L53 27L54 27L54 26L55 26L55 24L56 24L56 25L57 25L57 24L56 24L56 21L57 21L57 20L55 20L55 22L54 22L54 21L52 21L52 20L53 20L53 19L52 19L52 16L53 16L53 17L55 17L55 19L56 19L56 18L57 18L57 15L56 15L56 13L57 13L57 12L56 12L56 10L57 10L57 8L53 8L53 9L55 9L55 12L56 12L56 13L55 13L55 14L53 14L53 13L54 13L54 12L53 12L53 13L52 13L52 14L51 14L51 12L52 12L52 11L51 11L51 10L52 10L52 8L51 8L51 9L50 9L50 10L49 10L49 9L48 9L48 7L49 7L49 6L48 6L48 7L47 7L47 5L48 5L48 0L41 0L41 1L40 1L40 2L38 2L38 1L39 1L39 0L38 0L38 1L37 1L37 2L36 2L36 0L35 0L35 1L34 1L34 0L33 0L33 1L32 1L32 0L29 0L29 1L32 1L32 3L31 3L31 2L28 2L28 4L26 4L26 3L25 3L25 0L23 0L23 3L22 3L22 2L19 2L19 0L18 0L18 1L17 1L17 3L16 3L16 2L15 2L15 3L16 3L16 4L17 4L17 6L16 6L16 5L15 5L15 4L14 4L14 0L13 0L13 1L12 1L12 0L11 0L11 1L10 1L10 0ZM15 0L15 1L16 1L16 0ZM20 0L20 1L21 1L21 0ZM26 0L26 1L28 1L28 0ZM9 1L9 2L10 2L10 1ZM33 1L33 2L34 2L34 1ZM45 1L45 2L47 2L47 1ZM11 2L11 4L13 4L13 2ZM18 2L18 3L17 3L17 4L19 4L19 5L18 5L18 6L17 6L17 7L18 7L18 6L19 6L19 7L20 7L20 6L21 6L21 7L22 7L22 6L23 6L23 7L24 7L24 8L25 8L25 10L27 10L27 11L26 11L26 13L25 13L25 12L24 12L24 11L23 11L23 8L22 8L22 10L20 10L20 9L18 9L18 8L17 8L17 9L16 9L16 8L15 8L15 7L16 7L16 6L15 6L15 5L14 5L14 6L13 6L13 7L14 7L14 8L12 8L12 9L11 9L11 11L9 11L9 10L7 10L7 9L6 9L6 10L4 10L4 12L5 12L5 13L4 13L4 15L3 15L3 16L5 16L5 17L4 17L4 18L3 18L3 19L4 19L4 20L5 20L5 19L4 19L4 18L8 18L8 20L7 20L7 19L6 19L6 20L7 20L7 21L5 21L5 23L6 23L6 24L5 24L5 26L8 26L8 24L10 24L10 25L11 25L11 26L12 26L12 27L13 27L13 28L14 28L14 30L13 30L13 32L14 32L14 33L16 33L16 34L15 34L15 35L19 35L19 36L20 36L20 35L19 35L19 34L20 34L20 33L21 33L21 35L22 35L22 38L23 38L23 39L24 39L24 41L25 41L25 40L26 40L26 38L27 38L27 39L28 39L28 38L29 38L29 39L31 39L31 40L29 40L29 41L26 41L26 42L23 42L23 40L22 40L22 39L21 39L21 40L20 40L20 41L18 41L18 43L16 43L16 42L17 42L17 41L16 41L16 40L12 40L12 41L11 41L11 42L10 42L10 41L9 41L9 42L8 42L8 45L9 45L9 43L11 43L11 44L10 44L10 46L11 46L11 47L10 47L10 49L9 49L9 50L11 50L11 51L12 51L12 52L13 52L13 51L12 51L12 50L13 50L13 48L14 48L14 47L15 47L15 48L16 48L16 46L17 46L17 48L20 48L20 49L14 49L14 51L15 51L15 50L16 50L16 51L17 51L17 50L20 50L20 49L21 49L21 50L22 50L22 52L21 52L21 53L24 53L24 54L26 54L26 49L25 49L25 48L27 48L27 47L26 47L26 46L27 46L27 45L28 45L28 47L30 47L30 48L31 48L31 46L29 46L29 44L31 44L31 45L32 45L32 47L33 47L33 48L34 48L34 50L33 50L33 52L34 52L34 54L35 54L35 52L36 52L36 49L35 49L35 48L34 48L34 47L35 47L35 46L38 46L38 45L39 45L39 46L40 46L40 51L39 51L39 52L38 52L38 53L39 53L39 52L40 52L40 53L42 53L42 52L41 52L41 46L40 46L40 45L41 45L41 44L40 44L40 43L42 43L42 44L43 44L43 45L44 45L44 46L43 46L43 47L42 47L42 49L44 49L44 47L45 47L45 45L46 45L46 47L47 47L47 49L46 49L46 50L47 50L47 49L48 49L48 47L49 47L49 48L53 48L53 49L54 49L54 48L55 48L55 47L53 47L53 46L54 46L54 45L55 45L55 44L56 44L56 43L55 43L55 42L54 42L54 43L53 43L53 41L52 41L52 40L47 40L47 39L49 39L49 38L50 38L50 39L52 39L52 38L53 38L53 36L52 36L52 38L50 38L50 35L53 35L53 34L54 34L54 33L55 33L55 31L54 31L54 29L53 29L53 31L54 31L54 33L51 33L51 31L49 31L49 32L50 32L50 35L49 35L49 37L48 37L48 35L46 35L46 34L49 34L49 33L48 33L48 31L47 31L47 30L48 30L48 26L47 26L47 25L46 25L46 26L47 26L47 27L45 27L45 26L44 26L44 24L45 24L45 22L44 22L44 16L45 16L45 17L46 17L46 18L45 18L45 21L46 21L46 23L47 23L47 24L48 24L48 23L47 23L47 22L48 22L48 21L51 21L51 22L52 22L52 23L53 23L53 24L52 24L52 25L51 25L51 24L50 24L50 22L49 22L49 24L50 24L50 25L49 25L49 26L50 26L50 25L51 25L51 26L52 26L52 25L53 25L53 24L55 24L55 23L54 23L54 22L52 22L52 21L51 21L51 20L48 20L48 21L46 21L46 19L47 19L47 16L48 16L48 15L50 15L50 16L49 16L49 18L50 18L50 19L51 19L51 18L50 18L50 17L51 17L51 16L52 16L52 15L53 15L53 16L55 16L55 17L56 17L56 16L55 16L55 15L53 15L53 14L52 14L52 15L50 15L50 11L48 11L48 10L47 10L47 7L46 7L46 6L45 6L45 7L44 7L44 4L45 4L45 5L47 5L47 3L44 3L44 2L43 2L43 3L44 3L44 4L43 4L43 7L42 7L42 6L41 6L41 5L39 5L39 7L40 7L40 6L41 6L41 8L40 8L40 9L42 9L42 8L43 8L43 10L44 10L44 8L45 8L45 7L46 7L46 9L45 9L45 11L44 11L44 12L41 12L41 11L39 11L39 10L38 10L38 9L39 9L39 8L38 8L38 9L35 9L35 7L36 7L36 5L38 5L38 4L40 4L40 3L41 3L41 2L40 2L40 3L38 3L38 2L37 2L37 3L36 3L36 2L35 2L35 4L34 4L34 3L32 3L32 5L35 5L35 7L34 7L34 6L33 6L33 7L32 7L32 6L31 6L31 10L30 10L30 11L31 11L31 12L29 12L29 11L28 11L28 9L26 9L26 6L25 6L25 7L24 7L24 6L23 6L23 5L24 5L24 4L25 4L25 3L23 3L23 5L22 5L22 6L21 6L21 3L19 3L19 2ZM37 3L37 4L38 4L38 3ZM35 4L35 5L36 5L36 4ZM19 5L19 6L20 6L20 5ZM27 5L27 8L30 8L30 5ZM14 6L14 7L15 7L15 6ZM28 6L28 7L29 7L29 6ZM37 6L37 7L38 7L38 6ZM33 7L33 8L32 8L32 13L30 13L30 15L33 15L33 16L32 16L32 17L31 17L31 16L29 16L29 13L26 13L26 15L25 15L25 13L24 13L24 12L22 12L22 11L21 11L21 12L20 12L20 11L19 11L19 12L18 12L18 13L17 13L17 11L18 11L18 9L17 9L17 11L16 11L16 9L15 9L15 8L14 8L14 9L13 9L13 10L12 10L12 12L10 12L10 13L9 13L9 14L8 14L8 16L6 16L6 17L8 17L8 16L9 16L9 20L8 20L8 22L6 22L6 23L8 23L8 22L10 22L10 21L9 21L9 20L11 20L11 19L10 19L10 16L11 16L11 17L12 17L12 16L11 16L11 15L13 15L13 16L14 16L14 17L15 17L15 20L14 20L14 19L13 19L13 18L12 18L12 19L13 19L13 20L12 20L12 22L11 22L11 25L12 25L12 26L14 26L14 28L15 28L15 29L18 29L18 30L14 30L14 32L15 32L15 31L16 31L16 33L17 33L17 34L18 34L18 33L19 33L19 32L18 32L18 33L17 33L17 31L18 31L18 30L19 30L19 29L18 29L18 28L19 28L19 27L20 27L20 31L21 31L21 33L22 33L22 31L23 31L23 30L24 30L24 31L26 31L26 33L23 33L23 37L24 37L24 38L26 38L26 37L25 37L25 36L27 36L27 37L28 37L28 36L29 36L29 37L31 37L31 36L32 36L32 37L33 37L33 38L31 38L31 39L33 39L33 40L32 40L32 41L31 41L31 43L32 43L32 45L33 45L33 47L34 47L34 45L37 45L37 44L39 44L39 45L40 45L40 44L39 44L39 43L40 43L40 42L43 42L43 41L44 41L44 42L46 42L46 43L47 43L47 42L46 42L46 41L47 41L47 40L45 40L45 39L47 39L47 38L48 38L48 37L47 37L47 36L46 36L46 35L44 35L44 37L43 37L43 36L42 36L42 35L43 35L43 33L45 33L45 34L46 34L46 33L45 33L45 32L46 32L46 30L45 30L45 27L44 27L44 26L43 26L43 25L42 25L42 24L41 24L41 25L42 25L42 28L43 28L43 29L41 29L41 30L40 30L40 32L39 32L39 29L40 29L40 27L37 27L37 26L36 26L36 29L35 29L35 31L34 31L34 27L33 27L33 26L34 26L34 25L37 25L37 24L34 24L34 23L35 23L35 22L37 22L37 20L38 20L38 22L39 22L39 21L40 21L40 22L43 22L43 23L44 23L44 22L43 22L43 21L42 21L42 20L41 20L41 21L40 21L40 18L41 18L41 19L42 19L42 18L43 18L43 17L42 17L42 15L43 15L43 16L44 16L44 15L43 15L43 13L40 13L40 12L39 12L39 11L38 11L38 10L37 10L37 12L35 12L35 11L36 11L36 10L34 10L34 9L33 9L33 8L34 8L34 7ZM43 7L43 8L44 8L44 7ZM0 8L0 10L1 10L1 9L2 9L2 8ZM6 10L6 11L5 11L5 12L6 12L6 13L5 13L5 14L6 14L6 15L7 15L7 14L6 14L6 13L8 13L8 12L9 12L9 11L7 11L7 10ZM33 10L33 13L32 13L32 14L33 14L33 13L34 13L34 18L33 18L33 17L32 17L32 18L31 18L31 19L30 19L30 18L28 18L28 17L26 17L26 16L27 16L27 15L28 15L28 14L27 14L27 15L26 15L26 16L24 16L24 15L23 15L23 14L24 14L24 13L21 13L21 14L20 14L20 12L19 12L19 14L17 14L17 13L15 13L15 12L16 12L16 11L15 11L15 12L14 12L14 11L13 11L13 13L10 13L10 14L9 14L9 15L11 15L11 14L13 14L13 13L15 13L15 14L17 14L17 15L19 15L19 14L20 14L20 16L21 16L21 17L26 17L26 20L28 20L28 21L24 21L24 20L25 20L25 18L24 18L24 19L23 19L23 20L22 20L22 18L20 18L20 17L19 17L19 18L17 18L17 17L16 17L16 18L17 18L17 19L16 19L16 20L15 20L15 21L17 21L17 22L16 22L16 23L15 23L15 22L14 22L14 21L13 21L13 22L14 22L14 23L15 23L15 24L16 24L16 28L17 28L17 27L18 27L18 26L17 26L17 22L18 22L18 23L19 23L19 25L24 25L24 23L23 23L23 24L22 24L22 23L21 23L21 22L23 22L23 21L24 21L24 22L25 22L25 23L26 23L26 22L28 22L28 21L29 21L29 20L28 20L28 19L30 19L30 21L32 21L32 20L31 20L31 19L32 19L32 18L33 18L33 19L34 19L34 18L37 18L37 19L39 19L39 18L40 18L40 17L41 17L41 15L40 15L40 14L39 14L39 15L38 15L38 13L39 13L39 12L37 12L37 13L35 13L35 12L34 12L34 10ZM53 10L53 11L54 11L54 10ZM6 11L6 12L7 12L7 11ZM27 11L27 12L28 12L28 11ZM45 11L45 12L44 12L44 14L45 14L45 15L46 15L46 16L47 16L47 15L46 15L46 11ZM47 13L47 14L49 14L49 13ZM21 14L21 15L22 15L22 16L23 16L23 15L22 15L22 14ZM35 14L35 17L38 17L38 18L39 18L39 17L40 17L40 15L39 15L39 17L38 17L38 16L37 16L37 15L36 15L36 14ZM14 15L14 16L15 16L15 15ZM19 18L19 19L18 19L18 20L17 20L17 21L18 21L18 22L19 22L19 23L20 23L20 22L21 22L21 21L22 21L22 20L21 20L21 19L20 19L20 18ZM0 19L0 21L1 21L1 19ZM19 19L19 21L20 21L20 19ZM35 19L35 20L36 20L36 19ZM34 21L34 22L31 22L31 31L32 31L32 32L30 32L30 31L29 31L29 33L28 33L28 34L26 34L26 35L27 35L27 36L28 36L28 34L29 34L29 33L32 33L32 32L33 32L33 33L34 33L34 34L32 34L32 35L34 35L34 42L35 42L35 39L37 39L37 42L38 42L38 39L40 39L40 38L38 38L38 37L41 37L41 35L42 35L42 34L40 34L40 33L41 33L41 32L40 32L40 33L39 33L39 34L38 34L38 33L37 33L37 34L38 34L38 36L37 36L37 38L35 38L35 35L34 35L34 34L35 34L35 33L34 33L34 31L32 31L32 28L33 28L33 27L32 27L32 23L34 23L34 22L35 22L35 21ZM29 22L29 24L28 24L28 25L27 25L27 26L30 26L30 25L29 25L29 24L30 24L30 22ZM6 24L6 25L7 25L7 24ZM33 24L33 25L34 25L34 24ZM2 25L2 26L3 26L3 25ZM14 25L14 26L15 26L15 25ZM25 25L25 27L24 27L24 26L23 26L23 28L22 28L22 27L21 27L21 29L22 29L22 30L21 30L21 31L22 31L22 30L23 30L23 29L24 29L24 28L25 28L25 27L26 27L26 25ZM38 25L38 26L40 26L40 25ZM9 26L9 28L11 28L11 30L10 30L10 31L11 31L11 32L9 32L9 33L11 33L11 35L10 35L10 34L9 34L9 35L8 35L8 32L7 32L7 31L6 31L6 32L4 32L4 31L2 31L2 33L1 33L1 34L2 34L2 35L1 35L1 37L2 37L2 35L4 35L4 34L5 34L5 35L6 35L6 36L3 36L3 37L4 37L4 38L3 38L3 39L5 39L5 40L3 40L3 41L2 41L2 39L1 39L1 41L2 41L2 42L1 42L1 43L2 43L2 42L3 42L3 41L4 41L4 43L3 43L3 44L4 44L4 43L6 43L6 44L7 44L7 43L6 43L6 42L7 42L7 41L8 41L8 40L9 40L9 39L10 39L10 40L11 40L11 39L12 39L12 38L13 38L13 39L14 39L14 38L13 38L13 37L11 37L11 35L12 35L12 28L11 28L11 27L10 27L10 26ZM5 27L5 30L8 30L8 27ZM27 27L27 30L30 30L30 27ZM49 27L49 30L52 30L52 27ZM6 28L6 29L7 29L7 28ZM28 28L28 29L29 29L29 28ZM37 28L37 29L38 29L38 28ZM46 28L46 29L47 29L47 28ZM50 28L50 29L51 29L51 28ZM25 29L25 30L26 30L26 29ZM43 29L43 30L44 30L44 29ZM37 30L37 32L38 32L38 30ZM27 31L27 32L28 32L28 31ZM3 32L3 33L4 33L4 32ZM6 32L6 33L7 33L7 32ZM6 34L6 35L7 35L7 36L6 36L6 37L7 37L7 36L8 36L8 37L9 37L9 38L8 38L8 39L9 39L9 38L11 38L11 37L9 37L9 36L10 36L10 35L9 35L9 36L8 36L8 35L7 35L7 34ZM24 34L24 36L25 36L25 34ZM30 34L30 36L31 36L31 34ZM13 35L13 36L14 36L14 37L15 37L15 39L16 39L16 38L17 38L17 40L19 40L19 39L20 39L20 38L21 38L21 37L19 37L19 38L18 38L18 37L17 37L17 36L16 36L16 37L15 37L15 36L14 36L14 35ZM39 35L39 36L40 36L40 35ZM45 36L45 37L44 37L44 38L43 38L43 39L42 39L42 38L41 38L41 39L42 39L42 41L43 41L43 39L45 39L45 37L46 37L46 38L47 38L47 37L46 37L46 36ZM6 38L6 39L7 39L7 38ZM5 40L5 41L7 41L7 40ZM21 40L21 41L20 41L20 42L22 42L22 40ZM40 40L40 41L39 41L39 42L40 42L40 41L41 41L41 40ZM12 41L12 42L11 42L11 43L12 43L12 42L13 42L13 43L14 43L14 41ZM15 41L15 42L16 42L16 41ZM32 41L32 43L33 43L33 44L37 44L37 43L33 43L33 41ZM48 41L48 42L49 42L49 43L48 43L48 44L49 44L49 47L50 47L50 44L51 44L51 45L54 45L54 44L53 44L53 43L52 43L52 41L51 41L51 43L50 43L50 42L49 42L49 41ZM27 42L27 43L24 43L24 44L22 44L22 43L21 43L21 44L20 44L20 43L19 43L19 44L18 44L18 45L17 45L17 46L19 46L19 44L20 44L20 47L22 47L22 48L21 48L21 49L22 49L22 50L23 50L23 52L24 52L24 53L25 53L25 49L24 49L24 48L23 48L23 47L25 47L25 46L26 46L26 45L27 45L27 43L28 43L28 42ZM49 43L49 44L50 44L50 43ZM51 43L51 44L52 44L52 43ZM13 44L13 45L14 45L14 46L12 46L12 47L11 47L11 50L12 50L12 48L13 48L13 47L14 47L14 46L16 46L16 44ZM44 44L44 45L45 45L45 44ZM46 44L46 45L47 45L47 46L48 46L48 45L47 45L47 44ZM21 45L21 46L22 46L22 47L23 47L23 45ZM51 46L51 47L52 47L52 46ZM36 47L36 48L37 48L37 47ZM38 47L38 49L37 49L37 51L38 51L38 49L39 49L39 47ZM6 48L6 49L7 49L7 48ZM22 48L22 49L23 49L23 48ZM27 49L27 52L30 52L30 49ZM31 49L31 52L32 52L32 49ZM49 49L49 52L52 52L52 49ZM28 50L28 51L29 51L29 50ZM34 50L34 51L35 51L35 50ZM42 50L42 51L44 51L44 50ZM50 50L50 51L51 51L51 50ZM53 50L53 53L54 53L54 52L55 52L55 53L56 53L56 52L55 52L55 51L54 51L54 50ZM18 51L18 52L19 52L19 53L20 53L20 51ZM14 52L14 53L13 53L13 54L14 54L14 53L17 53L17 52ZM43 52L43 53L44 53L44 52ZM30 53L30 54L31 54L31 53ZM32 53L32 54L33 54L33 53ZM49 53L49 54L51 54L51 55L52 55L52 54L51 54L51 53ZM20 54L20 55L19 55L19 56L21 56L21 54ZM8 55L8 57L10 57L10 56L12 56L12 55L10 55L10 56L9 56L9 55ZM56 56L56 57L57 57L57 56ZM0 0L0 7L7 7L7 0ZM1 1L1 6L6 6L6 1ZM2 2L2 5L5 5L5 2ZM50 0L50 7L57 7L57 0ZM51 1L51 6L56 6L56 1ZM52 2L52 5L55 5L55 2ZM0 50L0 57L7 57L7 50ZM1 51L1 56L6 56L6 51ZM2 52L2 55L5 55L5 52Z" fill="#000000"/></g></g></svg>
