<?xml version="1.0" encoding="UTF-8"?>
<svg xmlns="http://www.w3.org/2000/svg" version="1.1" width="300" height="300" viewBox="0 0 300 300"><rect x="0" y="0" width="300" height="300" fill="#fefefe"/><g transform="scale(4.615)"><g transform="translate(4,4)"><path fill-rule="evenodd" d="M9 0L9 1L8 1L8 2L9 2L9 3L8 3L8 4L10 4L10 2L11 2L11 1L13 1L13 0ZM17 0L17 2L16 2L16 1L14 1L14 2L13 2L13 4L14 4L14 2L15 2L15 3L17 3L17 5L20 5L20 7L19 7L19 6L18 6L18 7L17 7L17 6L16 6L16 7L15 7L15 5L16 5L16 4L15 4L15 5L14 5L14 8L13 8L13 5L12 5L12 4L11 4L11 6L10 6L10 5L8 5L8 7L9 7L9 6L10 6L10 7L11 7L11 6L12 6L12 8L10 8L10 11L8 11L8 12L5 12L5 13L4 13L4 12L3 12L3 11L4 11L4 10L3 10L3 9L5 9L5 10L6 10L6 11L7 11L7 10L9 10L9 8L6 8L6 9L5 9L5 8L0 8L0 10L2 10L2 11L0 11L0 12L1 12L1 13L0 13L0 15L1 15L1 16L0 16L0 18L1 18L1 16L2 16L2 19L1 19L1 20L0 20L0 22L2 22L2 21L3 21L3 15L4 15L4 16L6 16L6 17L4 17L4 22L3 22L3 23L0 23L0 25L1 25L1 24L2 24L2 25L3 25L3 26L2 26L2 27L3 27L3 26L4 26L4 29L2 29L2 33L5 33L5 31L7 31L7 32L6 32L6 33L7 33L7 34L5 34L5 36L3 36L3 34L0 34L0 35L1 35L1 36L0 36L0 38L1 38L1 37L2 37L2 38L3 38L3 39L2 39L2 40L3 40L3 41L2 41L2 42L1 42L1 41L0 41L0 42L1 42L1 43L0 43L0 44L1 44L1 45L3 45L3 46L2 46L2 47L1 47L1 46L0 46L0 48L5 48L5 47L7 47L7 48L6 48L6 49L7 49L7 48L8 48L8 47L11 47L11 48L10 48L10 49L8 49L8 51L9 51L9 52L8 52L8 57L11 57L11 55L12 55L12 54L14 54L14 55L13 55L13 56L15 56L15 57L16 57L16 56L17 56L17 57L19 57L19 56L18 56L18 55L20 55L20 54L19 54L19 53L20 53L20 52L23 52L23 51L22 51L22 50L25 50L25 51L26 51L26 53L25 53L25 52L24 52L24 53L21 53L21 54L22 54L22 55L21 55L21 56L24 56L24 57L26 57L26 56L24 56L24 55L23 55L23 54L24 54L24 53L25 53L25 55L26 55L26 54L30 54L30 53L31 53L31 51L32 51L32 52L33 52L33 53L32 53L32 54L31 54L31 56L30 56L30 55L29 55L29 56L27 56L27 57L29 57L29 56L30 56L30 57L31 57L31 56L35 56L35 57L40 57L40 56L41 56L41 57L44 57L44 56L45 56L45 57L46 57L46 56L45 56L45 55L49 55L49 56L48 56L48 57L49 57L49 56L50 56L50 57L52 57L52 55L51 55L51 53L52 53L52 54L54 54L54 53L57 53L57 52L56 52L56 50L57 50L57 48L56 48L56 46L57 46L57 44L56 44L56 42L55 42L55 39L57 39L57 35L56 35L56 34L57 34L57 32L56 32L56 30L57 30L57 27L56 27L56 26L57 26L57 25L56 25L56 22L57 22L57 21L56 21L56 20L55 20L55 19L56 19L56 18L57 18L57 17L56 17L56 16L57 16L57 15L56 15L56 14L57 14L57 12L55 12L55 11L56 11L56 10L54 10L54 11L52 11L52 10L53 10L53 9L54 9L54 8L53 8L53 9L52 9L52 8L51 8L51 10L49 10L49 9L50 9L50 8L48 8L48 7L49 7L49 6L48 6L48 7L47 7L47 5L48 5L48 0L45 0L45 1L47 1L47 2L44 2L44 3L43 3L43 4L40 4L40 5L39 5L39 6L38 6L38 4L39 4L39 3L41 3L41 2L43 2L43 0L41 0L41 1L40 1L40 0L39 0L39 1L38 1L38 0L37 0L37 1L38 1L38 4L37 4L37 3L36 3L36 0L35 0L35 1L32 1L32 0L29 0L29 1L28 1L28 3L29 3L29 1L31 1L31 2L32 2L32 3L31 3L31 4L26 4L26 3L23 3L23 4L24 4L24 5L23 5L23 6L22 6L22 4L19 4L19 3L21 3L21 2L22 2L22 0L21 0L21 1L20 1L20 0ZM23 0L23 2L27 2L27 1L25 1L25 0ZM19 1L19 2L20 2L20 1ZM33 2L33 3L32 3L32 4L31 4L31 8L32 8L32 10L31 10L31 11L29 11L29 9L27 9L27 10L28 10L28 11L29 11L29 12L28 12L28 13L26 13L26 12L27 12L27 11L26 11L26 12L25 12L25 10L24 10L24 9L25 9L25 8L26 8L26 4L25 4L25 8L24 8L24 6L23 6L23 8L20 8L20 10L19 10L19 9L16 9L16 8L17 8L17 7L16 7L16 8L14 8L14 9L11 9L11 12L10 12L10 15L9 15L9 14L8 14L8 13L5 13L5 14L4 14L4 13L3 13L3 12L2 12L2 13L1 13L1 15L2 15L2 14L4 14L4 15L5 15L5 14L7 14L7 15L6 15L6 16L7 16L7 17L6 17L6 18L5 18L5 19L6 19L6 20L5 20L5 21L6 21L6 22L7 22L7 23L6 23L6 24L7 24L7 23L10 23L10 24L9 24L9 25L5 25L5 24L4 24L4 25L5 25L5 26L9 26L9 25L10 25L10 24L12 24L12 21L14 21L14 23L13 23L13 26L14 26L14 27L10 27L10 28L9 28L9 32L7 32L7 33L9 33L9 34L10 34L10 35L9 35L9 36L10 36L10 37L13 37L13 38L12 38L12 39L11 39L11 40L10 40L10 42L9 42L9 41L8 41L8 42L7 42L7 41L6 41L6 40L9 40L9 39L10 39L10 38L8 38L8 37L6 37L6 36L7 36L7 35L6 35L6 36L5 36L5 39L6 39L6 40L5 40L5 42L7 42L7 43L5 43L5 44L3 44L3 42L2 42L2 44L3 44L3 45L5 45L5 44L7 44L7 45L6 45L6 46L7 46L7 47L8 47L8 46L7 46L7 45L9 45L9 44L7 44L7 43L8 43L8 42L9 42L9 43L10 43L10 45L11 45L11 47L13 47L13 46L14 46L14 47L15 47L15 48L17 48L17 45L18 45L18 44L16 44L16 43L12 43L12 42L11 42L11 40L12 40L12 41L14 41L14 40L12 40L12 39L13 39L13 38L14 38L14 39L16 39L16 41L15 41L15 42L17 42L17 43L18 43L18 42L19 42L19 41L18 41L18 42L17 42L17 37L18 37L18 39L20 39L20 38L19 38L19 37L21 37L21 39L22 39L22 40L20 40L20 42L21 42L21 43L20 43L20 44L19 44L19 45L20 45L20 47L21 47L21 48L19 48L19 49L15 49L15 50L14 50L14 48L13 48L13 50L14 50L14 51L15 51L15 50L17 50L17 51L16 51L16 53L15 53L15 54L16 54L16 53L17 53L17 52L18 52L18 50L19 50L19 49L20 49L20 50L21 50L21 49L23 49L23 48L24 48L24 49L25 49L25 50L26 50L26 49L25 49L25 48L30 48L30 47L29 47L29 45L27 45L27 44L28 44L28 43L27 43L27 42L30 42L30 41L29 41L29 40L32 40L32 41L31 41L31 42L32 42L32 43L33 43L33 44L32 44L32 45L33 45L33 46L31 46L31 48L32 48L32 49L31 49L31 50L32 50L32 49L33 49L33 50L34 50L34 51L33 51L33 52L34 52L34 53L33 53L33 54L35 54L35 56L36 56L36 54L35 54L35 50L36 50L36 52L37 52L37 51L38 51L38 50L41 50L41 52L40 52L40 51L39 51L39 52L38 52L38 53L37 53L37 54L40 54L40 53L42 53L42 50L41 50L41 48L42 48L42 49L43 49L43 48L44 48L44 51L45 51L45 52L44 52L44 53L43 53L43 54L44 54L44 55L42 55L42 54L41 54L41 56L44 56L44 55L45 55L45 54L48 54L48 50L47 50L47 49L48 49L48 48L49 48L49 47L48 47L48 44L50 44L50 48L52 48L52 47L51 47L51 45L52 45L52 46L53 46L53 45L52 45L52 44L53 44L53 43L54 43L54 42L53 42L53 41L54 41L54 40L53 40L53 41L51 41L51 42L50 42L50 43L49 43L49 42L48 42L48 41L49 41L49 39L51 39L51 40L52 40L52 39L55 39L55 38L54 38L54 37L53 37L53 35L55 35L55 37L56 37L56 35L55 35L55 34L56 34L56 32L55 32L55 34L54 34L54 32L53 32L53 31L52 31L52 32L51 32L51 33L52 33L52 34L50 34L50 32L49 32L49 31L48 31L48 29L46 29L46 30L47 30L47 31L45 31L45 32L43 32L43 30L41 30L41 31L39 31L39 32L38 32L38 30L39 30L39 29L43 29L43 27L44 27L44 26L46 26L46 27L45 27L45 28L44 28L44 30L45 30L45 28L46 28L46 27L47 27L47 28L48 28L48 25L49 25L49 26L51 26L51 25L53 25L53 24L54 24L54 25L55 25L55 26L56 26L56 25L55 25L55 24L54 24L54 23L55 23L55 22L56 22L56 21L55 21L55 20L53 20L53 19L52 19L52 20L51 20L51 21L49 21L49 20L47 20L47 19L48 19L48 18L47 18L47 17L48 17L48 16L49 16L49 17L50 17L50 18L49 18L49 19L50 19L50 18L51 18L51 17L53 17L53 18L56 18L56 17L53 17L53 15L54 15L54 14L56 14L56 13L55 13L55 12L54 12L54 14L53 14L53 15L52 15L52 16L51 16L51 15L50 15L50 14L51 14L51 12L50 12L50 11L49 11L49 10L47 10L47 9L45 9L45 8L46 8L46 5L47 5L47 3L44 3L44 6L43 6L43 7L44 7L44 10L47 10L47 12L45 12L45 11L44 11L44 13L43 13L43 11L42 11L42 10L41 10L41 7L42 7L42 6L41 6L41 5L40 5L40 6L39 6L39 7L40 7L40 8L39 8L39 9L38 9L38 8L37 8L37 7L38 7L38 6L37 6L37 7L36 7L36 5L37 5L37 4L36 4L36 5L35 5L35 4L33 4L33 3L35 3L35 2ZM32 4L32 5L33 5L33 6L32 6L32 7L33 7L33 9L34 9L34 8L35 8L35 9L37 9L37 10L36 10L36 12L35 12L35 13L37 13L37 14L38 14L38 15L39 15L39 16L38 16L38 17L37 17L37 16L35 16L35 14L33 14L33 13L34 13L34 12L33 12L33 10L32 10L32 12L31 12L31 13L30 13L30 14L29 14L29 13L28 13L28 14L29 14L29 16L28 16L28 15L27 15L27 14L26 14L26 13L24 13L24 11L23 11L23 10L22 10L22 11L21 11L21 12L22 12L22 13L21 13L21 14L20 14L20 12L19 12L19 10L18 10L18 11L17 11L17 12L16 12L16 13L15 13L15 10L12 10L12 12L13 12L13 13L15 13L15 14L12 14L12 13L11 13L11 15L10 15L10 17L9 17L9 18L6 18L6 19L7 19L7 20L6 20L6 21L7 21L7 22L8 22L8 21L7 21L7 20L8 20L8 19L9 19L9 20L10 20L10 21L12 21L12 20L14 20L14 19L13 19L13 18L12 18L12 20L10 20L10 19L11 19L11 18L10 18L10 17L11 17L11 16L12 16L12 17L14 17L14 18L15 18L15 19L17 19L17 21L16 21L16 20L15 20L15 21L16 21L16 22L15 22L15 23L16 23L16 24L15 24L15 25L16 25L16 24L17 24L17 25L18 25L18 26L16 26L16 27L18 27L18 26L19 26L19 29L18 29L18 28L16 28L16 29L15 29L15 30L14 30L14 28L12 28L12 29L13 29L13 30L14 30L14 31L12 31L12 30L11 30L11 31L10 31L10 32L9 32L9 33L10 33L10 34L11 34L11 35L10 35L10 36L13 36L13 37L14 37L14 36L13 36L13 35L12 35L12 34L13 34L13 33L12 33L12 32L14 32L14 33L15 33L15 31L16 31L16 29L18 29L18 30L19 30L19 29L22 29L22 28L20 28L20 26L19 26L19 25L22 25L22 26L21 26L21 27L22 27L22 26L23 26L23 30L25 30L25 31L26 31L26 32L27 32L27 31L28 31L28 33L29 33L29 34L30 34L30 36L29 36L29 37L31 37L31 38L29 38L29 39L33 39L33 40L35 40L35 42L37 42L37 43L36 43L36 44L35 44L35 43L34 43L34 42L33 42L33 41L32 41L32 42L33 42L33 43L34 43L34 45L36 45L36 48L35 48L35 46L33 46L33 47L32 47L32 48L33 48L33 49L36 49L36 50L38 50L38 49L39 49L39 48L41 48L41 46L43 46L43 45L44 45L44 47L47 47L47 48L48 48L48 47L47 47L47 46L45 46L45 45L47 45L47 43L48 43L48 42L47 42L47 43L46 43L46 42L45 42L45 41L44 41L44 40L45 40L45 39L46 39L46 41L47 41L47 39L49 39L49 38L51 38L51 37L49 37L49 36L48 36L48 37L47 37L47 34L45 34L45 35L44 35L44 33L43 33L43 32L41 32L41 33L39 33L39 34L40 34L40 35L39 35L39 36L38 36L38 33L37 33L37 32L35 32L35 34L32 34L32 35L31 35L31 33L32 33L32 30L33 30L33 31L36 31L36 30L33 30L33 29L32 29L32 27L33 27L33 28L35 28L35 29L38 29L38 28L40 28L40 26L39 26L39 27L37 27L37 28L35 28L35 27L36 27L36 26L34 26L34 27L33 27L33 26L32 26L32 24L33 24L33 25L37 25L37 26L38 26L38 25L40 25L40 24L41 24L41 22L42 22L42 23L44 23L44 20L45 20L45 21L47 21L47 22L45 22L45 25L48 25L48 23L47 23L47 22L49 22L49 21L47 21L47 20L46 20L46 19L45 19L45 18L44 18L44 15L45 15L45 17L47 17L47 16L48 16L48 15L49 15L49 16L50 16L50 15L49 15L49 14L50 14L50 12L49 12L49 11L48 11L48 12L49 12L49 13L47 13L47 14L45 14L45 13L44 13L44 15L42 15L42 16L41 16L41 15L39 15L39 14L38 14L38 13L39 13L39 11L37 11L37 10L38 10L38 9L37 9L37 8L35 8L35 5L33 5L33 4ZM45 4L45 5L46 5L46 4ZM27 5L27 8L30 8L30 5ZM21 6L21 7L22 7L22 6ZM28 6L28 7L29 7L29 6ZM33 6L33 7L34 7L34 6ZM40 6L40 7L41 7L41 6ZM44 6L44 7L45 7L45 6ZM23 8L23 9L24 9L24 8ZM42 8L42 9L43 9L43 8ZM55 8L55 9L56 9L56 8ZM6 9L6 10L7 10L7 9ZM39 9L39 10L40 10L40 9ZM13 11L13 12L14 12L14 11ZM40 11L40 12L41 12L41 11ZM17 12L17 13L16 13L16 16L14 16L14 15L12 15L12 16L14 16L14 17L15 17L15 18L17 18L17 19L18 19L18 20L20 20L20 21L18 21L18 23L19 23L19 24L22 24L22 25L24 25L24 24L25 24L25 25L26 25L26 26L25 26L25 27L24 27L24 28L25 28L25 29L26 29L26 28L25 28L25 27L26 27L26 26L27 26L27 25L28 25L28 26L30 26L30 25L29 25L29 24L32 24L32 23L33 23L33 22L34 22L34 23L35 23L35 20L34 20L34 19L33 19L33 18L35 18L35 19L36 19L36 20L37 20L37 21L38 21L38 22L37 22L37 24L40 24L40 22L39 22L39 21L42 21L42 20L39 20L39 21L38 21L38 19L39 19L39 17L41 17L41 16L39 16L39 17L38 17L38 18L37 18L37 17L35 17L35 16L32 16L32 13L33 13L33 12L32 12L32 13L31 13L31 14L30 14L30 15L31 15L31 16L32 16L32 19L33 19L33 20L32 20L32 21L31 21L31 22L30 22L30 20L29 20L29 19L28 19L28 18L27 18L27 17L28 17L28 16L27 16L27 15L26 15L26 17L25 17L25 15L18 15L18 16L17 16L17 13L18 13L18 12ZM52 12L52 13L53 13L53 12ZM22 13L22 14L24 14L24 13ZM41 13L41 14L43 14L43 13ZM7 15L7 16L8 16L8 15ZM46 15L46 16L47 16L47 15ZM18 16L18 17L17 17L17 18L18 18L18 19L20 19L20 20L24 20L24 21L23 21L23 22L24 22L24 21L25 21L25 22L26 22L26 23L25 23L25 24L27 24L27 22L28 22L28 21L25 21L25 20L26 20L26 19L27 19L27 20L28 20L28 19L27 19L27 18L26 18L26 19L25 19L25 17L22 17L22 16L21 16L21 17L22 17L22 19L20 19L20 17L19 17L19 16ZM42 16L42 17L43 17L43 16ZM18 17L18 18L19 18L19 17ZM23 18L23 19L24 19L24 18ZM30 18L30 19L31 19L31 18ZM41 18L41 19L42 19L42 18ZM43 18L43 20L44 20L44 18ZM1 20L1 21L2 21L2 20ZM33 20L33 21L34 21L34 20ZM51 21L51 22L50 22L50 23L51 23L51 24L50 24L50 25L51 25L51 24L53 24L53 22L54 22L54 21ZM4 22L4 23L5 23L5 22ZM10 22L10 23L11 23L11 22ZM19 22L19 23L20 23L20 22ZM29 22L29 23L30 23L30 22ZM23 23L23 24L24 24L24 23ZM43 24L43 25L41 25L41 26L43 26L43 25L44 25L44 24ZM0 26L0 28L1 28L1 26ZM31 26L31 27L32 27L32 26ZM53 26L53 27L54 27L54 26ZM5 27L5 30L8 30L8 27ZM27 27L27 30L30 30L30 27ZM41 27L41 28L42 28L42 27ZM49 27L49 30L52 30L52 27ZM55 27L55 28L54 28L54 29L55 29L55 28L56 28L56 27ZM6 28L6 29L7 29L7 28ZM10 28L10 29L11 29L11 28ZM28 28L28 29L29 29L29 28ZM50 28L50 29L51 29L51 28ZM0 29L0 30L1 30L1 29ZM20 30L20 31L17 31L17 32L18 32L18 33L17 33L17 34L18 34L18 35L16 35L16 36L18 36L18 37L19 37L19 36L20 36L20 33L21 33L21 34L22 34L22 33L21 33L21 32L24 32L24 31L21 31L21 30ZM0 31L0 32L1 32L1 31ZM11 31L11 32L12 32L12 31ZM20 31L20 32L21 32L21 31ZM30 31L30 32L29 32L29 33L31 33L31 31ZM47 31L47 32L46 32L46 33L47 33L47 32L48 32L48 33L49 33L49 32L48 32L48 31ZM52 32L52 33L53 33L53 32ZM18 33L18 34L19 34L19 33ZM23 33L23 34L24 34L24 36L23 36L23 37L24 37L24 38L23 38L23 39L24 39L24 40L25 40L25 36L26 36L26 39L27 39L27 40L28 40L28 39L27 39L27 38L28 38L28 37L27 37L27 33L26 33L26 35L25 35L25 33ZM14 34L14 35L15 35L15 34ZM35 34L35 36L37 36L37 34ZM42 34L42 35L41 35L41 36L40 36L40 37L38 37L38 38L37 38L37 39L35 39L35 37L33 37L33 36L34 36L34 35L33 35L33 36L32 36L32 37L33 37L33 39L35 39L35 40L38 40L38 42L39 42L39 41L42 41L42 40L43 40L43 39L45 39L45 38L46 38L46 39L47 39L47 37L46 37L46 36L44 36L44 35L43 35L43 34ZM49 34L49 35L50 35L50 36L52 36L52 35L53 35L53 34L52 34L52 35L50 35L50 34ZM18 35L18 36L19 36L19 35ZM21 35L21 36L22 36L22 35ZM42 35L42 36L41 36L41 37L40 37L40 38L41 38L41 40L42 40L42 38L43 38L43 37L44 37L44 38L45 38L45 37L44 37L44 36L43 36L43 35ZM2 36L2 37L3 37L3 38L4 38L4 37L3 37L3 36ZM15 37L15 38L16 38L16 37ZM41 37L41 38L42 38L42 37ZM48 37L48 38L49 38L49 37ZM6 38L6 39L7 39L7 38ZM3 39L3 40L4 40L4 39ZM38 39L38 40L39 40L39 39ZM21 41L21 42L22 42L22 43L21 43L21 44L22 44L22 45L21 45L21 47L25 47L25 45L23 45L23 44L24 44L24 43L23 43L23 42L25 42L25 41L23 41L23 42L22 42L22 41ZM26 41L26 42L27 42L27 41ZM40 42L40 43L39 43L39 45L38 45L38 46L39 46L39 47L38 47L38 48L37 48L37 49L38 49L38 48L39 48L39 47L40 47L40 46L39 46L39 45L41 45L41 44L42 44L42 43L41 43L41 42ZM43 42L43 44L44 44L44 45L45 45L45 44L46 44L46 43L44 43L44 42ZM51 42L51 43L50 43L50 44L51 44L51 43L53 43L53 42ZM25 43L25 44L27 44L27 43ZM29 43L29 44L31 44L31 43ZM40 43L40 44L41 44L41 43ZM14 44L14 46L15 46L15 44ZM54 44L54 45L55 45L55 46L54 46L54 47L55 47L55 46L56 46L56 45L55 45L55 44ZM12 45L12 46L13 46L13 45ZM22 45L22 46L23 46L23 45ZM26 45L26 47L28 47L28 46L27 46L27 45ZM3 46L3 47L5 47L5 46ZM42 47L42 48L43 48L43 47ZM11 48L11 49L12 49L12 48ZM53 48L53 49L54 49L54 48ZM55 48L55 49L56 49L56 48ZM27 49L27 52L30 52L30 49ZM49 49L49 52L52 52L52 49ZM10 50L10 52L11 52L11 54L12 54L12 53L14 53L14 52L13 52L13 51L12 51L12 50ZM28 50L28 51L29 51L29 50ZM45 50L45 51L46 51L46 52L47 52L47 51L46 51L46 50ZM50 50L50 51L51 51L51 50ZM54 50L54 51L55 51L55 50ZM19 51L19 52L20 52L20 51ZM53 52L53 53L54 53L54 52ZM44 53L44 54L45 54L45 53ZM9 54L9 55L10 55L10 54ZM15 55L15 56L16 56L16 55ZM37 55L37 56L40 56L40 55ZM50 55L50 56L51 56L51 55ZM53 55L53 56L55 56L55 57L56 57L56 56L55 56L55 55ZM0 0L0 7L7 7L7 0ZM1 1L1 6L6 6L6 1ZM2 2L2 5L5 5L5 2ZM50 0L50 7L57 7L57 0ZM51 1L51 6L56 6L56 1ZM52 2L52 5L55 5L55 2ZM0 50L0 57L7 57L7 50ZM1 51L1 56L6 56L6 51ZM2 52L2 55L5 55L5 52Z" fill="#000000"/></g></g></svg>
