<?xml version="1.0" encoding="UTF-8"?>
<svg xmlns="http://www.w3.org/2000/svg" version="1.1" width="300" height="300" viewBox="0 0 300 300"><rect x="0" y="0" width="300" height="300" fill="#fefefe"/><g transform="scale(4.615)"><g transform="translate(4,4)"><path fill-rule="evenodd" d="M8 0L8 2L9 2L9 3L10 3L10 4L11 4L11 3L12 3L12 4L13 4L13 5L10 5L10 8L9 8L9 4L8 4L8 9L9 9L9 10L10 10L10 12L6 12L6 11L7 11L7 10L6 10L6 9L7 9L7 8L5 8L5 9L3 9L3 8L0 8L0 9L2 9L2 10L1 10L1 11L0 11L0 12L1 12L1 14L2 14L2 15L1 15L1 16L0 16L0 17L1 17L1 18L0 18L0 19L1 19L1 21L0 21L0 22L1 22L1 21L2 21L2 23L0 23L0 25L1 25L1 26L2 26L2 25L3 25L3 28L2 28L2 27L0 27L0 28L1 28L1 30L0 30L0 31L1 31L1 32L2 32L2 33L1 33L1 34L0 34L0 35L2 35L2 34L3 34L3 35L4 35L4 36L3 36L3 38L2 38L2 37L0 37L0 38L1 38L1 40L2 40L2 41L1 41L1 43L0 43L0 48L5 48L5 47L7 47L7 46L6 46L6 45L8 45L8 47L9 47L9 48L11 48L11 49L8 49L8 48L6 48L6 49L8 49L8 50L9 50L9 51L8 51L8 52L10 52L10 53L11 53L11 52L14 52L14 53L12 53L12 54L13 54L13 55L14 55L14 56L13 56L13 57L14 57L14 56L16 56L16 57L17 57L17 55L19 55L19 54L18 54L18 53L19 53L19 52L20 52L20 53L21 53L21 54L20 54L20 55L21 55L21 54L22 54L22 53L23 53L23 55L22 55L22 56L21 56L21 57L24 57L24 56L25 56L25 55L26 55L26 57L28 57L28 55L29 55L29 57L33 57L33 55L30 55L30 54L31 54L31 53L32 53L32 54L34 54L34 57L35 57L35 55L37 55L37 54L36 54L36 53L37 53L37 51L38 51L38 53L39 53L39 56L40 56L40 57L41 57L41 56L44 56L44 57L46 57L46 56L44 56L44 55L45 55L45 54L46 54L46 55L47 55L47 54L46 54L46 53L49 53L49 54L48 54L48 55L49 55L49 57L50 57L50 55L49 55L49 54L52 54L52 55L53 55L53 53L55 53L55 52L54 52L54 51L53 51L53 50L54 50L54 49L55 49L55 50L56 50L56 53L57 53L57 49L56 49L56 47L57 47L57 45L56 45L56 44L57 44L57 42L56 42L56 41L57 41L57 40L55 40L55 42L54 42L54 39L55 39L55 38L57 38L57 37L56 37L56 36L57 36L57 33L56 33L56 31L57 31L57 29L56 29L56 27L57 27L57 24L56 24L56 23L57 23L57 12L56 12L56 11L57 11L57 10L56 10L56 9L57 9L57 8L55 8L55 9L54 9L54 10L53 10L53 8L49 8L49 11L50 11L50 13L49 13L49 14L48 14L48 12L47 12L47 11L48 11L48 10L47 10L47 11L46 11L46 8L45 8L45 6L44 6L44 5L46 5L46 7L47 7L47 8L48 8L48 7L49 7L49 6L48 6L48 7L47 7L47 5L48 5L48 0L42 0L42 1L41 1L41 0L38 0L38 2L37 2L37 1L35 1L35 0L34 0L34 3L33 3L33 6L32 6L32 7L33 7L33 6L34 6L34 8L32 8L32 9L31 9L31 5L32 5L32 2L33 2L33 0L32 0L32 2L31 2L31 0L28 0L28 1L27 1L27 0L24 0L24 1L23 1L23 0L20 0L20 1L19 1L19 3L21 3L21 5L20 5L20 7L19 7L19 5L18 5L18 2L17 2L17 0L16 0L16 2L15 2L15 0L14 0L14 3L13 3L13 2L9 2L9 0ZM10 0L10 1L13 1L13 0ZM22 1L22 2L21 2L21 3L22 3L22 6L21 6L21 9L20 9L20 10L21 10L21 13L20 13L20 11L18 11L18 12L19 12L19 13L18 13L18 15L15 15L15 14L17 14L17 12L14 12L14 11L16 11L16 10L18 10L18 6L17 6L17 5L16 5L16 6L15 6L15 5L13 5L13 7L12 7L12 6L11 6L11 7L12 7L12 9L13 9L13 11L12 11L12 10L11 10L11 9L10 9L10 10L11 10L11 12L10 12L10 14L9 14L9 15L8 15L8 17L10 17L10 16L11 16L11 18L10 18L10 19L12 19L12 20L13 20L13 19L12 19L12 15L10 15L10 14L13 14L13 15L14 15L14 16L13 16L13 17L14 17L14 16L15 16L15 17L16 17L16 19L14 19L14 20L17 20L17 17L18 17L18 19L19 19L19 22L18 22L18 23L17 23L17 22L16 22L16 23L17 23L17 25L16 25L16 26L15 26L15 25L14 25L14 24L15 24L15 21L14 21L14 22L13 22L13 21L11 21L11 20L10 20L10 21L9 21L9 18L7 18L7 17L6 17L6 16L7 16L7 15L6 15L6 14L8 14L8 13L6 13L6 12L5 12L5 10L4 10L4 11L3 11L3 10L2 10L2 11L3 11L3 13L2 13L2 14L3 14L3 15L2 15L2 16L1 16L1 17L3 17L3 18L2 18L2 19L3 19L3 20L2 20L2 21L4 21L4 22L3 22L3 23L2 23L2 24L1 24L1 25L2 25L2 24L4 24L4 25L5 25L5 26L7 26L7 25L5 25L5 23L6 23L6 24L7 24L7 23L6 23L6 22L10 22L10 23L9 23L9 24L8 24L8 25L9 25L9 26L10 26L10 23L11 23L11 22L12 22L12 24L13 24L13 25L14 25L14 27L16 27L16 28L15 28L15 30L13 30L13 29L12 29L12 30L13 30L13 32L12 32L12 31L11 31L11 30L10 30L10 29L11 29L11 27L12 27L12 28L13 28L13 26L12 26L12 25L11 25L11 27L9 27L9 28L10 28L10 29L9 29L9 31L4 31L4 32L3 32L3 34L4 34L4 35L5 35L5 36L4 36L4 38L3 38L3 39L4 39L4 40L9 40L9 41L8 41L8 42L7 42L7 41L6 41L6 42L5 42L5 41L3 41L3 43L4 43L4 44L3 44L3 45L2 45L2 43L1 43L1 45L2 45L2 46L1 46L1 47L2 47L2 46L3 46L3 47L5 47L5 45L6 45L6 44L7 44L7 43L8 43L8 44L9 44L9 45L10 45L10 46L9 46L9 47L11 47L11 46L12 46L12 45L14 45L14 44L15 44L15 45L16 45L16 46L15 46L15 47L14 47L14 49L13 49L13 47L12 47L12 50L10 50L10 52L11 52L11 51L13 51L13 50L14 50L14 51L15 51L15 47L16 47L16 48L17 48L17 49L16 49L16 52L17 52L17 53L18 53L18 52L17 52L17 51L18 51L18 50L19 50L19 51L20 51L20 50L22 50L22 48L23 48L23 49L24 49L24 51L23 51L23 52L24 52L24 51L25 51L25 53L26 53L26 55L28 55L28 53L26 53L26 51L25 51L25 50L26 50L26 49L25 49L25 46L26 46L26 48L31 48L31 49L32 49L32 48L31 48L31 47L30 47L30 46L29 46L29 44L30 44L30 45L31 45L31 44L30 44L30 42L29 42L29 41L30 41L30 36L31 36L31 37L32 37L32 36L31 36L31 35L28 35L28 34L29 34L29 32L30 32L30 34L32 34L32 35L33 35L33 34L32 34L32 32L33 32L33 31L32 31L32 30L33 30L33 29L34 29L34 32L35 32L35 33L34 33L34 35L35 35L35 37L34 37L34 36L33 36L33 37L34 37L34 38L35 38L35 41L34 41L34 39L33 39L33 38L31 38L31 43L32 43L32 40L33 40L33 41L34 41L34 42L35 42L35 41L36 41L36 43L35 43L35 44L33 44L33 45L32 45L32 47L33 47L33 45L34 45L34 47L35 47L35 48L34 48L34 52L33 52L33 53L34 53L34 54L35 54L35 53L36 53L36 52L35 52L35 51L37 51L37 49L36 49L36 48L37 48L37 47L38 47L38 51L39 51L39 49L40 49L40 51L41 51L41 52L42 52L42 54L40 54L40 56L41 56L41 55L42 55L42 54L43 54L43 55L44 55L44 52L42 52L42 51L41 51L41 49L42 49L42 50L43 50L43 51L44 51L44 50L43 50L43 49L44 49L44 46L43 46L43 45L44 45L44 44L45 44L45 43L47 43L47 44L46 44L46 47L45 47L45 48L46 48L46 50L45 50L45 51L46 51L46 50L47 50L47 48L46 48L46 47L48 47L48 46L49 46L49 48L50 48L50 46L51 46L51 47L52 47L52 48L53 48L53 49L54 49L54 48L55 48L55 47L56 47L56 45L55 45L55 44L56 44L56 42L55 42L55 43L54 43L54 44L53 44L53 39L52 39L52 44L50 44L50 42L49 42L49 41L51 41L51 40L48 40L48 37L50 37L50 38L49 38L49 39L50 39L50 38L51 38L51 37L50 37L50 33L51 33L51 36L53 36L53 37L52 37L52 38L53 38L53 37L54 37L54 38L55 38L55 37L54 37L54 36L56 36L56 33L54 33L54 32L55 32L55 31L56 31L56 30L55 30L55 27L54 27L54 28L53 28L53 29L54 29L54 30L55 30L55 31L54 31L54 32L53 32L53 31L52 31L52 32L50 32L50 33L49 33L49 34L48 34L48 33L47 33L47 32L45 32L45 33L46 33L46 34L45 34L45 37L46 37L46 38L47 38L47 40L48 40L48 41L46 41L46 40L45 40L45 41L44 41L44 43L41 43L41 45L40 45L40 44L37 44L37 43L40 43L40 42L39 42L39 41L40 41L40 40L41 40L41 41L42 41L42 42L43 42L43 41L42 41L42 39L43 39L43 38L44 38L44 35L43 35L43 33L42 33L42 31L44 31L44 27L43 27L43 25L44 25L44 24L46 24L46 26L49 26L49 25L50 25L50 26L51 26L51 25L52 25L52 24L53 24L53 25L54 25L54 26L55 26L55 25L56 25L56 24L55 24L55 23L56 23L56 20L55 20L55 19L54 19L54 16L55 16L55 17L56 17L56 16L55 16L55 15L56 15L56 13L55 13L55 11L56 11L56 10L55 10L55 11L54 11L54 12L53 12L53 13L54 13L54 14L52 14L52 13L50 13L50 16L49 16L49 17L48 17L48 16L47 16L47 15L48 15L48 14L47 14L47 13L46 13L46 11L45 11L45 10L44 10L44 6L43 6L43 5L44 5L44 4L45 4L45 2L47 2L47 1L42 1L42 2L40 2L40 1L39 1L39 2L38 2L38 3L37 3L37 2L35 2L35 3L36 3L36 4L35 4L35 9L34 9L34 10L33 10L33 9L32 9L32 11L34 11L34 12L35 12L35 13L34 13L34 15L33 15L33 13L32 13L32 12L30 12L30 10L31 10L31 9L30 9L30 10L28 10L28 9L27 9L27 10L25 10L25 9L26 9L26 5L24 5L24 6L23 6L23 1ZM24 1L24 4L25 4L25 1ZM28 1L28 2L29 2L29 1ZM16 2L16 4L17 4L17 2ZM30 2L30 3L28 3L28 4L30 4L30 3L31 3L31 2ZM39 2L39 3L38 3L38 5L39 5L39 4L40 4L40 2ZM43 2L43 3L41 3L41 4L42 4L42 5L43 5L43 4L44 4L44 2ZM14 3L14 4L15 4L15 3ZM26 3L26 4L27 4L27 3ZM46 3L46 5L47 5L47 3ZM27 5L27 8L30 8L30 5ZM14 6L14 9L15 9L15 6ZM16 6L16 7L17 7L17 6ZM22 6L22 7L23 7L23 6ZM24 6L24 7L25 7L25 6ZM28 6L28 7L29 7L29 6ZM36 6L36 10L34 10L34 11L36 11L36 14L35 14L35 15L34 15L34 17L33 17L33 15L32 15L32 17L31 17L31 16L30 16L30 15L29 15L29 13L30 13L30 12L29 12L29 11L28 11L28 10L27 10L27 11L28 11L28 12L27 12L27 14L28 14L28 15L29 15L29 16L30 16L30 17L28 17L28 18L30 18L30 17L31 17L31 18L32 18L32 17L33 17L33 19L30 19L30 21L29 21L29 20L28 20L28 21L27 21L27 20L26 20L26 19L27 19L27 18L26 18L26 17L27 17L27 16L26 16L26 14L24 14L24 13L26 13L26 11L25 11L25 10L24 10L24 9L25 9L25 8L22 8L22 9L21 9L21 10L22 10L22 9L23 9L23 10L24 10L24 11L22 11L22 12L24 12L24 13L23 13L23 14L24 14L24 15L25 15L25 16L26 16L26 17L25 17L25 18L24 18L24 16L22 16L22 14L20 14L20 13L19 13L19 15L18 15L18 17L19 17L19 19L21 19L21 18L23 18L23 20L22 20L22 21L21 21L21 20L20 20L20 21L21 21L21 22L20 22L20 23L21 23L21 24L22 24L22 25L21 25L21 26L20 26L20 25L19 25L19 23L18 23L18 26L20 26L20 27L18 27L18 28L20 28L20 27L21 27L21 30L22 30L22 33L23 33L23 35L25 35L25 36L24 36L24 37L25 37L25 36L26 36L26 37L27 37L27 36L28 36L28 37L29 37L29 36L28 36L28 35L26 35L26 34L28 34L28 33L26 33L26 32L27 32L27 31L30 31L30 32L31 32L31 30L32 30L32 29L33 29L33 28L32 28L32 29L31 29L31 27L32 27L32 25L33 25L33 26L34 26L34 24L36 24L36 26L37 26L37 27L36 27L36 29L35 29L35 27L34 27L34 29L35 29L35 30L36 30L36 29L37 29L37 28L38 28L38 29L39 29L39 27L40 27L40 30L39 30L39 31L38 31L38 30L37 30L37 31L36 31L36 33L35 33L35 35L36 35L36 37L35 37L35 38L36 38L36 41L37 41L37 42L38 42L38 41L39 41L39 40L40 40L40 39L42 39L42 36L43 36L43 35L42 35L42 36L41 36L41 35L40 35L40 36L39 36L39 38L38 38L38 36L37 36L37 35L36 35L36 33L37 33L37 34L38 34L38 35L39 35L39 34L38 34L38 33L39 33L39 32L40 32L40 34L42 34L42 33L41 33L41 32L40 32L40 30L41 30L41 31L42 31L42 28L43 28L43 27L42 27L42 24L43 24L43 22L44 22L44 23L46 23L46 24L50 24L50 25L51 25L51 24L52 24L52 22L53 22L53 24L54 24L54 25L55 25L55 24L54 24L54 22L55 22L55 21L54 21L54 19L53 19L53 20L52 20L52 22L51 22L51 24L50 24L50 22L48 22L48 21L49 21L49 20L51 20L51 18L52 18L52 17L53 17L53 16L54 16L54 15L55 15L55 14L54 14L54 15L53 15L53 16L52 16L52 17L51 17L51 18L50 18L50 17L49 17L49 18L50 18L50 19L49 19L49 20L47 20L47 19L48 19L48 17L47 17L47 16L46 16L46 13L45 13L45 12L44 12L44 13L45 13L45 16L44 16L44 14L43 14L43 16L44 16L44 17L43 17L43 18L42 18L42 17L41 17L41 15L42 15L42 12L43 12L43 10L42 10L42 8L43 8L43 6L42 6L42 8L40 8L40 9L41 9L41 10L39 10L39 11L37 11L37 10L38 10L38 8L39 8L39 6L38 6L38 7L37 7L37 6ZM40 6L40 7L41 7L41 6ZM50 9L50 10L51 10L51 12L52 12L52 10L51 10L51 9ZM41 11L41 12L42 12L42 11ZM4 12L4 14L6 14L6 13L5 13L5 12ZM11 12L11 13L12 13L12 12ZM37 12L37 13L38 13L38 15L37 15L37 14L36 14L36 15L35 15L35 17L34 17L34 20L35 20L35 21L34 21L34 22L35 22L35 23L36 23L36 24L37 24L37 25L38 25L38 26L39 26L39 25L38 25L38 23L41 23L41 24L42 24L42 23L41 23L41 22L40 22L40 19L41 19L41 18L40 18L40 15L41 15L41 14L40 14L40 15L39 15L39 13L40 13L40 12ZM31 13L31 14L32 14L32 13ZM51 14L51 15L52 15L52 14ZM4 15L4 16L6 16L6 15ZM9 15L9 16L10 16L10 15ZM19 15L19 17L20 17L20 18L21 18L21 17L20 17L20 15ZM36 15L36 18L35 18L35 20L36 20L36 21L35 21L35 22L36 22L36 23L37 23L37 22L36 22L36 21L37 21L37 20L38 20L38 21L39 21L39 19L40 19L40 18L38 18L38 16L37 16L37 15ZM16 16L16 17L17 17L17 16ZM45 16L45 17L44 17L44 19L42 19L42 20L41 20L41 21L42 21L42 22L43 22L43 21L44 21L44 22L45 22L45 21L44 21L44 19L45 19L45 17L46 17L46 18L47 18L47 17L46 17L46 16ZM4 17L4 18L3 18L3 19L4 19L4 20L5 20L5 17ZM6 18L6 19L7 19L7 20L6 20L6 21L5 21L5 22L6 22L6 21L7 21L7 20L8 20L8 19L7 19L7 18ZM36 18L36 19L37 19L37 18ZM24 19L24 20L25 20L25 21L26 21L26 20L25 20L25 19ZM31 20L31 21L30 21L30 22L29 22L29 23L28 23L28 22L26 22L26 23L28 23L28 24L27 24L27 25L26 25L26 26L29 26L29 25L28 25L28 24L30 24L30 26L31 26L31 25L32 25L32 23L31 23L31 22L33 22L33 21L32 21L32 20ZM46 20L46 23L48 23L48 22L47 22L47 20ZM22 21L22 24L23 24L23 21ZM53 21L53 22L54 22L54 21ZM24 22L24 23L25 23L25 22ZM33 23L33 24L34 24L34 23ZM24 25L24 27L22 27L22 28L24 28L24 34L26 34L26 33L25 33L25 32L26 32L26 30L25 30L25 28L24 28L24 27L25 27L25 25ZM40 25L40 26L41 26L41 25ZM5 27L5 30L8 30L8 27ZM27 27L27 30L30 30L30 27ZM49 27L49 30L52 30L52 27ZM6 28L6 29L7 29L7 28ZM28 28L28 29L29 29L29 28ZM46 28L46 29L45 29L45 30L46 30L46 31L47 31L47 30L48 30L48 29L47 29L47 28ZM50 28L50 29L51 29L51 28ZM3 29L3 30L4 30L4 29ZM19 29L19 30L20 30L20 29ZM22 29L22 30L23 30L23 29ZM15 30L15 32L13 32L13 33L14 33L14 34L15 34L15 35L14 35L14 36L16 36L16 37L17 37L17 36L18 36L18 37L19 37L19 39L18 39L18 38L16 38L16 39L17 39L17 40L16 40L16 41L14 41L14 40L13 40L13 41L12 41L12 39L11 39L11 38L13 38L13 37L11 37L11 36L12 36L12 35L13 35L13 34L12 34L12 33L11 33L11 32L8 32L8 33L9 33L9 34L10 34L10 33L11 33L11 35L9 35L9 37L7 37L7 36L6 36L6 37L5 37L5 38L4 38L4 39L7 39L7 38L9 38L9 37L11 37L11 38L10 38L10 41L9 41L9 42L8 42L8 43L9 43L9 44L10 44L10 43L12 43L12 44L11 44L11 45L12 45L12 44L14 44L14 43L12 43L12 42L13 42L13 41L14 41L14 42L16 42L16 45L17 45L17 46L16 46L16 47L19 47L19 46L20 46L20 45L19 45L19 44L18 44L18 43L20 43L20 41L21 41L21 39L22 39L22 41L23 41L23 43L22 43L22 44L24 44L24 43L25 43L25 45L26 45L26 46L27 46L27 44L29 44L29 43L28 43L28 41L29 41L29 40L28 40L28 41L27 41L27 40L25 40L25 41L26 41L26 42L24 42L24 40L23 40L23 39L22 39L22 37L23 37L23 36L22 36L22 37L21 37L21 36L18 36L18 35L20 35L20 33L19 33L19 31L18 31L18 30ZM16 31L16 32L17 32L17 33L16 33L16 34L17 34L17 33L18 33L18 34L19 34L19 33L18 33L18 31ZM37 31L37 32L38 32L38 31ZM5 32L5 33L4 33L4 34L5 34L5 33L7 33L7 32ZM6 34L6 35L8 35L8 34ZM21 34L21 35L22 35L22 34ZM46 34L46 36L47 36L47 37L48 37L48 34ZM53 34L53 36L54 36L54 34ZM16 35L16 36L17 36L17 35ZM6 37L6 38L7 38L7 37ZM14 37L14 38L15 38L15 37ZM36 37L36 38L37 38L37 37ZM20 38L20 39L21 39L21 38ZM24 38L24 39L25 39L25 38ZM28 38L28 39L29 39L29 38ZM39 38L39 39L40 39L40 38ZM37 39L37 41L38 41L38 39ZM11 41L11 42L12 42L12 41ZM16 41L16 42L17 42L17 41ZM6 42L6 43L5 43L5 44L4 44L4 45L5 45L5 44L6 44L6 43L7 43L7 42ZM9 42L9 43L10 43L10 42ZM48 43L48 44L47 44L47 46L48 46L48 44L49 44L49 45L50 45L50 44L49 44L49 43ZM36 44L36 45L37 45L37 46L35 46L35 47L37 47L37 46L38 46L38 45L37 45L37 44ZM42 44L42 45L41 45L41 47L40 47L40 45L39 45L39 47L40 47L40 49L41 49L41 47L42 47L42 45L43 45L43 44ZM18 45L18 46L19 46L19 45ZM23 45L23 48L24 48L24 45ZM51 45L51 46L52 46L52 47L53 47L53 48L54 48L54 47L53 47L53 46L54 46L54 45L53 45L53 46L52 46L52 45ZM21 46L21 48L20 48L20 49L19 49L19 48L18 48L18 49L17 49L17 50L18 50L18 49L19 49L19 50L20 50L20 49L21 49L21 48L22 48L22 46ZM28 46L28 47L29 47L29 46ZM27 49L27 52L30 52L30 49ZM49 49L49 52L52 52L52 49ZM28 50L28 51L29 51L29 50ZM31 50L31 52L32 52L32 51L33 51L33 50ZM50 50L50 51L51 51L51 50ZM47 51L47 52L48 52L48 51ZM21 52L21 53L22 53L22 52ZM39 52L39 53L40 53L40 52ZM45 52L45 53L46 53L46 52ZM8 54L8 57L12 57L12 55L10 55L10 56L9 56L9 54ZM14 54L14 55L15 55L15 54ZM16 54L16 55L17 55L17 54ZM24 54L24 55L25 55L25 54ZM55 54L55 55L57 55L57 54ZM18 56L18 57L19 57L19 56ZM36 56L36 57L37 57L37 56ZM47 56L47 57L48 57L48 56ZM51 56L51 57L53 57L53 56ZM56 56L56 57L57 57L57 56ZM0 0L0 7L7 7L7 0ZM1 1L1 6L6 6L6 1ZM2 2L2 5L5 5L5 2ZM50 0L50 7L57 7L57 0ZM51 1L51 6L56 6L56 1ZM52 2L52 5L55 5L55 2ZM0 50L0 57L7 57L7 50ZM1 51L1 56L6 56L6 51ZM2 52L2 55L5 55L5 52Z" fill="#000000"/></g></g></svg>
