<?xml version="1.0" encoding="UTF-8"?>
<svg xmlns="http://www.w3.org/2000/svg" version="1.1" width="300" height="300" viewBox="0 0 300 300"><rect x="0" y="0" width="300" height="300" fill="#fefefe"/><g transform="scale(4.615)"><g transform="translate(4,4)"><path fill-rule="evenodd" d="M8 0L8 2L9 2L9 1L11 1L11 0ZM12 0L12 2L10 2L10 3L9 3L9 4L8 4L8 9L7 9L7 8L5 8L5 9L7 9L7 10L5 10L5 11L7 11L7 12L6 12L6 13L7 13L7 14L5 14L5 17L4 17L4 18L3 18L3 16L2 16L2 15L4 15L4 13L5 13L5 12L4 12L4 10L3 10L3 8L0 8L0 9L1 9L1 10L0 10L0 13L1 13L1 14L0 14L0 15L1 15L1 16L0 16L0 17L2 17L2 21L4 21L4 20L6 20L6 21L5 21L5 22L6 22L6 23L7 23L7 24L6 24L6 25L5 25L5 23L4 23L4 24L3 24L3 23L2 23L2 24L3 24L3 25L2 25L2 26L1 26L1 28L0 28L0 29L1 29L1 31L2 31L2 32L1 32L1 34L0 34L0 39L1 39L1 40L2 40L2 39L3 39L3 38L2 38L2 39L1 39L1 37L2 37L2 36L3 36L3 35L4 35L4 37L5 37L5 38L4 38L4 40L3 40L3 41L4 41L4 42L5 42L5 43L4 43L4 44L6 44L6 45L7 45L7 46L5 46L5 45L3 45L3 46L2 46L2 45L1 45L1 44L0 44L0 45L1 45L1 46L0 46L0 48L5 48L5 47L7 47L7 46L9 46L9 47L8 47L8 50L9 50L9 51L8 51L8 52L9 52L9 54L8 54L8 57L12 57L12 56L13 56L13 55L15 55L15 57L17 57L17 55L16 55L16 54L18 54L18 53L19 53L19 52L20 52L20 53L21 53L21 52L22 52L22 53L23 53L23 55L22 55L22 54L20 54L20 55L22 55L22 57L23 57L23 56L24 56L24 57L25 57L25 55L26 55L26 57L28 57L28 55L29 55L29 57L33 57L33 55L30 55L30 54L31 54L31 53L32 53L32 54L34 54L34 57L35 57L35 55L37 55L37 54L38 54L38 53L39 53L39 55L40 55L40 57L41 57L41 56L42 56L42 57L43 57L43 54L42 54L42 52L44 52L44 57L47 57L47 56L48 56L48 57L50 57L50 55L49 55L49 54L52 54L52 55L53 55L53 56L51 56L51 57L54 57L54 53L55 53L55 52L56 52L56 53L57 53L57 52L56 52L56 51L57 51L57 50L56 50L56 47L57 47L57 45L56 45L56 44L57 44L57 40L54 40L54 39L55 39L55 38L57 38L57 37L56 37L56 36L54 36L54 34L53 34L53 36L51 36L51 33L50 33L50 32L51 32L51 31L53 31L53 33L54 33L54 30L56 30L56 31L55 31L55 34L56 34L56 35L57 35L57 34L56 34L56 31L57 31L57 29L54 29L54 30L53 30L53 28L54 28L54 27L55 27L55 26L54 26L54 25L55 25L55 24L56 24L56 27L57 27L57 24L56 24L56 23L57 23L57 13L56 13L56 12L57 12L57 10L56 10L56 9L57 9L57 8L55 8L55 9L54 9L54 10L52 10L52 12L51 12L51 10L50 10L50 9L53 9L53 8L48 8L48 7L49 7L49 6L48 6L48 7L47 7L47 5L48 5L48 0L42 0L42 1L41 1L41 0L38 0L38 2L37 2L37 1L35 1L35 0L34 0L34 3L33 3L33 4L34 4L34 5L33 5L33 6L32 6L32 7L33 7L33 6L34 6L34 8L32 8L32 9L31 9L31 5L32 5L32 1L31 1L31 0L30 0L30 3L29 3L29 4L28 4L28 3L27 3L27 2L28 2L28 0L26 0L26 2L25 2L25 4L24 4L24 1L25 1L25 0L24 0L24 1L23 1L23 0L20 0L20 1L19 1L19 2L18 2L18 0L16 0L16 1L15 1L15 0L14 0L14 3L13 3L13 0ZM20 1L20 2L21 2L21 3L18 3L18 2L17 2L17 3L16 3L16 4L17 4L17 3L18 3L18 4L19 4L19 7L20 7L20 5L21 5L21 9L20 9L20 10L19 10L19 11L18 11L18 12L19 12L19 13L18 13L18 15L15 15L15 14L17 14L17 12L16 12L16 11L15 11L15 9L14 9L14 8L12 8L12 6L13 6L13 7L14 7L14 5L11 5L11 8L12 8L12 9L11 9L11 10L10 10L10 11L9 11L9 9L8 9L8 11L9 11L9 12L7 12L7 13L9 13L9 12L10 12L10 11L12 11L12 13L11 13L11 14L10 14L10 16L8 16L8 15L9 15L9 14L8 14L8 15L6 15L6 16L7 16L7 17L5 17L5 18L4 18L4 19L6 19L6 20L7 20L7 21L6 21L6 22L7 22L7 23L8 23L8 22L9 22L9 23L10 23L10 25L11 25L11 23L12 23L12 26L11 26L11 27L12 27L12 28L11 28L11 29L9 29L9 30L11 30L11 32L8 32L8 31L6 31L6 32L8 32L8 33L5 33L5 32L4 32L4 33L5 33L5 35L6 35L6 36L8 36L8 33L9 33L9 35L11 35L11 37L8 37L8 38L7 38L7 37L6 37L6 38L5 38L5 39L6 39L6 40L5 40L5 41L6 41L6 42L7 42L7 43L6 43L6 44L7 44L7 45L9 45L9 46L10 46L10 48L9 48L9 50L14 50L14 49L16 49L16 50L15 50L15 52L17 52L17 53L18 53L18 52L17 52L17 49L18 49L18 50L19 50L19 51L20 51L20 50L21 50L21 51L22 51L22 52L24 52L24 51L25 51L25 53L26 53L26 55L28 55L28 53L26 53L26 51L25 51L25 49L26 49L26 48L29 48L29 47L30 47L30 48L31 48L31 49L32 49L32 51L31 51L31 52L32 52L32 51L34 51L34 52L33 52L33 53L34 53L34 54L35 54L35 53L36 53L36 54L37 54L37 53L38 53L38 51L39 51L39 49L40 49L40 51L41 51L41 52L42 52L42 51L41 51L41 49L42 49L42 50L43 50L43 49L44 49L44 48L45 48L45 47L44 47L44 46L43 46L43 45L44 45L44 44L45 44L45 43L44 43L44 42L45 42L45 41L44 41L44 39L43 39L43 38L44 38L44 34L45 34L45 33L44 33L44 34L43 34L43 33L42 33L42 31L44 31L44 30L46 30L46 31L47 31L47 29L48 29L48 26L49 26L49 25L48 25L48 24L47 24L47 25L46 25L46 23L48 23L48 22L50 22L50 24L51 24L51 25L50 25L50 26L52 26L52 23L54 23L54 24L53 24L53 25L54 25L54 24L55 24L55 23L56 23L56 21L55 21L55 20L56 20L56 16L55 16L55 15L56 15L56 13L55 13L55 11L56 11L56 10L55 10L55 11L54 11L54 12L53 12L53 13L55 13L55 14L52 14L52 13L50 13L50 11L49 11L49 9L48 9L48 14L47 14L47 13L46 13L46 11L47 11L47 8L46 8L46 11L45 11L45 9L44 9L44 8L45 8L45 7L46 7L46 5L47 5L47 3L46 3L46 5L44 5L44 4L45 4L45 2L47 2L47 1L42 1L42 4L41 4L41 2L40 2L40 1L39 1L39 2L38 2L38 3L37 3L37 2L35 2L35 3L34 3L34 4L35 4L35 9L34 9L34 10L33 10L33 9L32 9L32 12L30 12L30 11L29 11L29 12L30 12L30 13L29 13L29 15L28 15L28 14L27 14L27 12L28 12L28 10L29 10L29 9L27 9L27 10L25 10L25 9L26 9L26 5L24 5L24 6L23 6L23 8L24 8L24 11L23 11L23 10L22 10L22 5L23 5L23 3L22 3L22 2L23 2L23 1L22 1L22 2L21 2L21 1ZM39 2L39 4L38 4L38 5L39 5L39 4L40 4L40 2ZM43 2L43 4L42 4L42 7L41 7L41 6L40 6L40 7L41 7L41 8L40 8L40 9L39 9L39 10L38 10L38 8L39 8L39 6L38 6L38 7L37 7L37 6L36 6L36 10L34 10L34 11L33 11L33 12L32 12L32 13L31 13L31 14L33 14L33 15L34 15L34 17L33 17L33 16L32 16L32 18L33 18L33 19L30 19L30 20L28 20L28 19L27 19L27 16L26 16L26 15L27 15L27 14L26 14L26 11L24 11L24 12L23 12L23 11L22 11L22 12L23 12L23 14L24 14L24 15L23 15L23 16L22 16L22 14L21 14L21 16L20 16L20 17L19 17L19 15L20 15L20 13L21 13L21 11L20 11L20 13L19 13L19 15L18 15L18 19L17 19L17 18L16 18L16 19L15 19L15 16L14 16L14 14L13 14L13 13L12 13L12 14L13 14L13 16L12 16L12 15L11 15L11 16L10 16L10 17L7 17L7 18L6 18L6 19L7 19L7 20L8 20L8 21L7 21L7 22L8 22L8 21L9 21L9 22L13 22L13 24L14 24L14 23L15 23L15 25L14 25L14 26L15 26L15 27L14 27L14 29L13 29L13 28L12 28L12 29L11 29L11 30L12 30L12 33L14 33L14 32L13 32L13 30L14 30L14 31L15 31L15 34L13 34L13 35L12 35L12 34L11 34L11 33L10 33L10 34L11 34L11 35L12 35L12 36L13 36L13 38L12 38L12 39L13 39L13 38L14 38L14 39L15 39L15 36L13 36L13 35L16 35L16 37L17 37L17 38L16 38L16 39L18 39L18 42L17 42L17 43L16 43L16 41L15 41L15 40L10 40L10 42L9 42L9 43L8 43L8 44L9 44L9 45L10 45L10 46L11 46L11 48L12 48L12 49L14 49L14 48L15 48L15 46L16 46L16 47L19 47L19 46L20 46L20 45L19 45L19 44L18 44L18 43L20 43L20 44L21 44L21 43L20 43L20 41L21 41L21 42L22 42L22 41L23 41L23 43L22 43L22 44L23 44L23 48L22 48L22 46L21 46L21 48L20 48L20 49L19 49L19 48L18 48L18 49L19 49L19 50L20 50L20 49L21 49L21 48L22 48L22 51L24 51L24 49L23 49L23 48L24 48L24 40L22 40L22 41L21 41L21 39L23 39L23 38L22 38L22 37L23 37L23 36L22 36L22 37L21 37L21 36L20 36L20 33L21 33L21 32L20 32L20 31L21 31L21 30L22 30L22 33L23 33L23 34L22 34L22 35L25 35L25 36L24 36L24 37L26 37L26 38L27 38L27 37L26 37L26 34L24 34L24 32L25 32L25 31L24 31L24 29L25 29L25 30L26 30L26 33L27 33L27 34L28 34L28 35L27 35L27 36L28 36L28 37L29 37L29 36L28 36L28 35L31 35L31 36L30 36L30 40L29 40L29 42L28 42L28 40L27 40L27 39L26 39L26 40L25 40L25 41L26 41L26 42L25 42L25 45L26 45L26 46L25 46L25 47L26 47L26 46L28 46L28 47L29 47L29 46L28 46L28 45L30 45L30 44L31 44L31 46L30 46L30 47L32 47L32 49L33 49L33 48L34 48L34 49L35 49L35 47L36 47L36 46L38 46L38 45L37 45L37 44L39 44L39 43L40 43L40 42L41 42L41 43L43 43L43 44L42 44L42 45L41 45L41 44L40 44L40 45L39 45L39 46L40 46L40 45L41 45L41 47L40 47L40 49L41 49L41 47L42 47L42 45L43 45L43 44L44 44L44 43L43 43L43 42L42 42L42 41L43 41L43 39L42 39L42 36L43 36L43 35L42 35L42 36L41 36L41 35L40 35L40 36L39 36L39 38L38 38L38 37L37 37L37 36L38 36L38 35L39 35L39 34L38 34L38 33L39 33L39 32L40 32L40 34L42 34L42 33L41 33L41 32L40 32L40 31L42 31L42 28L43 28L43 30L44 30L44 29L46 29L46 28L47 28L47 26L48 26L48 25L47 25L47 26L46 26L46 25L45 25L45 24L44 24L44 25L45 25L45 26L46 26L46 27L42 27L42 24L43 24L43 22L44 22L44 23L46 23L46 20L45 20L45 19L46 19L46 13L45 13L45 12L44 12L44 11L43 11L43 10L44 10L44 9L43 9L43 10L42 10L42 9L41 9L41 8L42 8L42 7L43 7L43 6L44 6L44 7L45 7L45 6L44 6L44 5L43 5L43 4L44 4L44 2ZM10 3L10 4L9 4L9 7L10 7L10 4L11 4L11 3ZM12 3L12 4L13 4L13 3ZM14 3L14 4L15 4L15 3ZM21 3L21 5L22 5L22 3ZM26 3L26 4L27 4L27 3ZM35 3L35 4L36 4L36 3ZM16 5L16 6L15 6L15 8L16 8L16 10L17 10L17 9L18 9L18 6L17 6L17 5ZM27 5L27 8L30 8L30 5ZM16 6L16 7L17 7L17 6ZM24 6L24 7L25 7L25 6ZM28 6L28 7L29 7L29 6ZM12 9L12 10L14 10L14 9ZM30 9L30 10L31 10L31 9ZM1 10L1 11L3 11L3 10ZM37 10L37 11L34 11L34 12L35 12L35 13L34 13L34 15L35 15L35 17L34 17L34 18L36 18L36 19L37 19L37 18L36 18L36 15L37 15L37 16L38 16L38 18L40 18L40 19L39 19L39 20L37 20L37 21L36 21L36 20L35 20L35 21L34 21L34 19L33 19L33 21L32 21L32 20L31 20L31 21L30 21L30 22L28 22L28 20L27 20L27 19L26 19L26 20L27 20L27 22L26 22L26 23L27 23L27 25L26 25L26 26L27 26L27 25L28 25L28 23L31 23L31 25L30 25L30 24L29 24L29 25L30 25L30 26L31 26L31 25L32 25L32 27L31 27L31 29L32 29L32 28L33 28L33 29L34 29L34 31L35 31L35 33L34 33L34 32L33 32L33 31L31 31L31 32L30 32L30 34L31 34L31 33L32 33L32 35L33 35L33 33L34 33L34 35L35 35L35 36L34 36L34 38L31 38L31 41L30 41L30 42L29 42L29 44L30 44L30 42L31 42L31 43L32 43L32 40L33 40L33 41L34 41L34 42L35 42L35 41L36 41L36 44L33 44L33 45L32 45L32 46L33 46L33 45L34 45L34 47L35 47L35 46L36 46L36 44L37 44L37 43L39 43L39 42L40 42L40 40L42 40L42 39L40 39L40 38L39 38L39 39L40 39L40 40L39 40L39 41L38 41L38 38L37 38L37 37L36 37L36 35L38 35L38 34L37 34L37 33L36 33L36 31L37 31L37 32L38 32L38 31L40 31L40 30L41 30L41 29L40 29L40 28L41 28L41 27L39 27L39 29L38 29L38 28L37 28L37 29L36 29L36 28L35 28L35 29L34 29L34 27L37 27L37 26L36 26L36 24L37 24L37 25L38 25L38 26L40 26L40 23L41 23L41 24L42 24L42 22L43 22L43 21L44 21L44 22L45 22L45 21L44 21L44 19L45 19L45 17L44 17L44 16L45 16L45 15L44 15L44 16L43 16L43 13L44 13L44 12L42 12L42 11L41 11L41 10L40 10L40 11L41 11L41 12L42 12L42 15L41 15L41 17L42 17L42 18L43 18L43 17L44 17L44 19L43 19L43 21L42 21L42 20L41 20L41 21L42 21L42 22L40 22L40 19L41 19L41 18L40 18L40 14L41 14L41 13L40 13L40 12L37 12L37 11L38 11L38 10ZM14 11L14 12L15 12L15 11ZM1 12L1 13L2 13L2 14L1 14L1 15L2 15L2 14L3 14L3 13L4 13L4 12ZM36 12L36 14L35 14L35 15L36 15L36 14L37 14L37 15L38 15L38 13L37 13L37 12ZM24 13L24 14L25 14L25 15L24 15L24 18L25 18L25 17L26 17L26 16L25 16L25 15L26 15L26 14L25 14L25 13ZM39 13L39 14L40 14L40 13ZM49 13L49 14L48 14L48 15L47 15L47 19L48 19L48 21L47 21L47 22L48 22L48 21L49 21L49 20L51 20L51 18L50 18L50 16L49 16L49 15L50 15L50 13ZM51 14L51 17L52 17L52 18L53 18L53 16L54 16L54 19L53 19L53 20L52 20L52 22L51 22L51 23L52 23L52 22L53 22L53 21L54 21L54 23L55 23L55 21L54 21L54 19L55 19L55 16L54 16L54 15L52 15L52 14ZM29 15L29 16L30 16L30 17L28 17L28 18L30 18L30 17L31 17L31 16L30 16L30 15ZM11 16L11 17L12 17L12 20L13 20L13 17L14 17L14 16L13 16L13 17L12 17L12 16ZM20 17L20 18L19 18L19 19L18 19L18 20L17 20L17 22L16 22L16 23L17 23L17 24L16 24L16 27L15 27L15 29L14 29L14 30L19 30L19 29L20 29L20 30L21 30L21 29L20 29L20 27L21 27L21 23L20 23L20 22L21 22L21 21L22 21L22 20L23 20L23 19L22 19L22 18L21 18L21 17ZM48 17L48 19L50 19L50 18L49 18L49 17ZM0 18L0 19L1 19L1 18ZM7 18L7 19L8 19L8 18ZM10 18L10 19L9 19L9 21L11 21L11 18ZM14 19L14 20L15 20L15 19ZM19 19L19 20L18 20L18 21L19 21L19 20L20 20L20 21L21 21L21 20L20 20L20 19ZM24 19L24 20L25 20L25 19ZM0 20L0 21L1 21L1 20ZM14 21L14 22L15 22L15 21ZM33 21L33 22L31 22L31 23L32 23L32 25L33 25L33 26L34 26L34 24L36 24L36 23L39 23L39 22L38 22L38 21L37 21L37 22L36 22L36 21L35 21L35 22L34 22L34 21ZM17 22L17 23L18 23L18 25L19 25L19 27L18 27L18 28L19 28L19 27L20 27L20 24L19 24L19 23L18 23L18 22ZM24 22L24 23L25 23L25 22ZM27 22L27 23L28 23L28 22ZM35 22L35 23L36 23L36 22ZM0 23L0 25L1 25L1 23ZM33 23L33 24L34 24L34 23ZM7 24L7 25L6 25L6 26L9 26L9 25L8 25L8 24ZM23 24L23 25L24 25L24 26L23 26L23 27L22 27L22 28L23 28L23 29L22 29L22 30L23 30L23 29L24 29L24 26L25 26L25 25L24 25L24 24ZM4 25L4 26L5 26L5 25ZM12 26L12 27L13 27L13 26ZM5 27L5 30L8 30L8 27ZM16 27L16 28L17 28L17 27ZM27 27L27 30L30 30L30 27ZM49 27L49 30L52 30L52 27ZM2 28L2 29L3 29L3 31L4 31L4 29L3 29L3 28ZM6 28L6 29L7 29L7 28ZM28 28L28 29L29 29L29 28ZM50 28L50 29L51 29L51 28ZM35 29L35 31L36 31L36 29ZM37 30L37 31L38 31L38 30ZM16 31L16 32L17 32L17 31ZM23 31L23 32L24 32L24 31ZM28 31L28 32L27 32L27 33L28 33L28 34L29 34L29 31ZM49 31L49 32L50 32L50 31ZM32 32L32 33L33 33L33 32ZM46 32L46 34L48 34L48 33L47 33L47 32ZM16 33L16 34L17 34L17 33ZM35 33L35 35L36 35L36 33ZM49 33L49 37L50 37L50 38L51 38L51 40L48 40L48 38L47 38L47 37L46 37L46 35L45 35L45 37L46 37L46 38L45 38L45 40L46 40L46 42L47 42L47 44L46 44L46 47L48 47L48 46L49 46L49 48L51 48L51 47L52 47L52 48L53 48L53 47L54 47L54 48L55 48L55 47L56 47L56 45L55 45L55 44L56 44L56 41L54 41L54 40L52 40L52 39L53 39L53 37L54 37L54 38L55 38L55 37L54 37L54 36L53 36L53 37L52 37L52 38L51 38L51 37L50 37L50 33ZM2 34L2 35L1 35L1 36L2 36L2 35L3 35L3 34ZM6 34L6 35L7 35L7 34ZM18 34L18 35L17 35L17 37L18 37L18 39L19 39L19 37L18 37L18 35L19 35L19 34ZM31 36L31 37L32 37L32 36ZM35 37L35 38L34 38L34 41L35 41L35 38L36 38L36 41L37 41L37 42L38 42L38 41L37 41L37 38L36 38L36 37ZM6 38L6 39L7 39L7 40L6 40L6 41L7 41L7 42L8 42L8 41L9 41L9 40L8 40L8 39L9 39L9 38L8 38L8 39L7 39L7 38ZM10 38L10 39L11 39L11 38ZM20 38L20 39L21 39L21 38ZM24 38L24 39L25 39L25 38ZM28 38L28 39L29 39L29 38ZM46 38L46 40L47 40L47 41L48 41L48 40L47 40L47 38ZM19 40L19 41L20 41L20 40ZM51 40L51 41L49 41L49 42L48 42L48 44L47 44L47 46L48 46L48 45L50 45L50 44L52 44L52 40ZM1 41L1 42L2 42L2 41ZM13 41L13 42L10 42L10 43L9 43L9 44L11 44L11 45L13 45L13 44L14 44L14 46L15 46L15 45L16 45L16 46L17 46L17 45L16 45L16 44L14 44L14 43L13 43L13 42L15 42L15 41ZM53 41L53 44L54 44L54 43L55 43L55 42L54 42L54 41ZM27 42L27 45L28 45L28 42ZM49 42L49 44L50 44L50 42ZM2 43L2 44L3 44L3 43ZM11 43L11 44L13 44L13 43ZM18 45L18 46L19 46L19 45ZM53 45L53 46L52 46L52 47L53 47L53 46L54 46L54 47L55 47L55 45ZM1 46L1 47L2 47L2 46ZM3 46L3 47L5 47L5 46ZM12 46L12 47L13 47L13 46ZM50 46L50 47L51 47L51 46ZM37 47L37 48L36 48L36 49L37 49L37 51L35 51L35 52L36 52L36 53L37 53L37 51L38 51L38 47ZM6 48L6 49L7 49L7 48ZM16 48L16 49L17 49L17 48ZM46 48L46 51L45 51L45 50L44 50L44 51L45 51L45 52L46 52L46 54L47 54L47 55L46 55L46 56L47 56L47 55L48 55L48 56L49 56L49 55L48 55L48 54L49 54L49 53L47 53L47 52L48 52L48 51L47 51L47 48ZM27 49L27 52L30 52L30 49ZM49 49L49 52L52 52L52 49ZM54 49L54 50L53 50L53 51L54 51L54 52L55 52L55 51L56 51L56 50L55 50L55 49ZM28 50L28 51L29 51L29 50ZM50 50L50 51L51 51L51 50ZM10 51L10 53L11 53L11 54L9 54L9 55L11 55L11 54L12 54L12 55L13 55L13 54L12 54L12 52L14 52L14 51L12 51L12 52L11 52L11 51ZM46 51L46 52L47 52L47 51ZM39 52L39 53L40 53L40 52ZM24 54L24 55L25 55L25 54ZM40 54L40 55L41 55L41 54ZM55 54L55 55L57 55L57 54ZM18 56L18 57L20 57L20 56ZM36 56L36 57L37 57L37 56ZM56 56L56 57L57 57L57 56ZM0 0L0 7L7 7L7 0ZM1 1L1 6L6 6L6 1ZM2 2L2 5L5 5L5 2ZM50 0L50 7L57 7L57 0ZM51 1L51 6L56 6L56 1ZM52 2L52 5L55 5L55 2ZM0 50L0 57L7 57L7 50ZM1 51L1 56L6 56L6 51ZM2 52L2 55L5 55L5 52Z" fill="#000000"/></g></g></svg>
