<?xml version="1.0" encoding="UTF-8"?>
<svg xmlns="http://www.w3.org/2000/svg" version="1.1" width="300" height="300" viewBox="0 0 300 300"><rect x="0" y="0" width="300" height="300" fill="#fefefe"/><g transform="scale(4.615)"><g transform="translate(4,4)"><path fill-rule="evenodd" d="M11 0L11 2L9 2L9 1L8 1L8 2L9 2L9 3L8 3L8 4L10 4L10 3L11 3L11 4L14 4L14 2L15 2L15 3L17 3L17 4L19 4L19 5L20 5L20 7L19 7L19 6L18 6L18 5L17 5L17 6L16 6L16 7L15 7L15 6L14 6L14 5L11 5L11 6L10 6L10 7L11 7L11 8L12 8L12 12L13 12L13 13L12 13L12 14L13 14L13 15L11 15L11 13L10 13L10 11L9 11L9 9L10 9L10 8L6 8L6 9L5 9L5 8L0 8L0 9L1 9L1 10L3 10L3 9L5 9L5 10L6 10L6 11L5 11L5 12L4 12L4 13L5 13L5 14L4 14L4 16L3 16L3 15L2 15L2 13L3 13L3 12L2 12L2 11L0 11L0 12L1 12L1 13L0 13L0 14L1 14L1 15L0 15L0 19L1 19L1 20L0 20L0 21L1 21L1 22L0 22L0 24L1 24L1 23L2 23L2 25L1 25L1 26L0 26L0 27L1 27L1 26L2 26L2 27L4 27L4 29L3 29L3 28L2 28L2 29L1 29L1 28L0 28L0 30L1 30L1 31L0 31L0 32L1 32L1 33L0 33L0 34L2 34L2 33L4 33L4 34L3 34L3 35L2 35L2 36L0 36L0 41L1 41L1 43L2 43L2 42L3 42L3 45L2 45L2 44L0 44L0 48L5 48L5 47L7 47L7 48L6 48L6 49L7 49L7 48L8 48L8 47L9 47L9 49L8 49L8 51L9 51L9 52L8 52L8 57L9 57L9 54L10 54L10 55L11 55L11 54L10 54L10 51L9 51L9 49L10 49L10 50L11 50L11 53L16 53L16 54L13 54L13 55L12 55L12 56L10 56L10 57L16 57L16 56L17 56L17 57L19 57L19 56L17 56L17 54L19 54L19 55L20 55L20 54L19 54L19 53L20 53L20 52L22 52L22 51L21 51L21 50L25 50L25 49L24 49L24 48L25 48L25 47L24 47L24 48L23 48L23 49L21 49L21 50L20 50L20 48L21 48L21 47L23 47L23 46L25 46L25 44L27 44L27 45L26 45L26 47L28 47L28 48L26 48L26 52L24 52L24 53L21 53L21 56L20 56L20 57L21 57L21 56L24 56L24 57L26 57L26 56L27 56L27 57L29 57L29 56L30 56L30 57L31 57L31 56L35 56L35 57L39 57L39 56L40 56L40 55L41 55L41 56L42 56L42 55L44 55L44 54L45 54L45 55L49 55L49 56L50 56L50 57L52 57L52 55L51 55L51 53L52 53L52 54L53 54L53 52L54 52L54 53L56 53L56 50L57 50L57 48L56 48L56 46L57 46L57 43L56 43L56 42L55 42L55 39L57 39L57 36L56 36L56 35L53 35L53 34L52 34L52 33L54 33L54 34L57 34L57 32L56 32L56 30L57 30L57 29L54 29L54 28L55 28L55 27L56 27L56 28L57 28L57 27L56 27L56 26L57 26L57 25L56 25L56 22L57 22L57 20L56 20L56 18L57 18L57 17L56 17L56 16L57 16L57 15L56 15L56 14L57 14L57 11L56 11L56 10L54 10L54 11L50 11L50 12L49 12L49 13L47 13L47 14L45 14L45 13L44 13L44 11L45 11L45 12L47 12L47 11L48 11L48 10L50 10L50 8L49 8L49 6L48 6L48 7L47 7L47 5L48 5L48 0L46 0L46 1L47 1L47 2L44 2L44 3L41 3L41 2L43 2L43 0L41 0L41 1L40 1L40 0L39 0L39 1L38 1L38 0L37 0L37 1L38 1L38 2L39 2L39 3L38 3L38 4L37 4L37 3L36 3L36 0L35 0L35 1L33 1L33 0L27 0L27 1L26 1L26 0L23 0L23 2L25 2L25 1L26 1L26 2L27 2L27 3L29 3L29 2L30 2L30 1L31 1L31 2L32 2L32 3L31 3L31 4L26 4L26 3L23 3L23 4L24 4L24 5L23 5L23 6L22 6L22 7L21 7L21 5L22 5L22 4L19 4L19 2L20 2L20 0L17 0L17 1L16 1L16 2L15 2L15 0L14 0L14 2L13 2L13 0ZM21 0L21 1L22 1L22 0ZM18 1L18 2L19 2L19 1ZM28 1L28 2L29 2L29 1ZM32 1L32 2L33 2L33 3L32 3L32 4L31 4L31 8L32 8L32 10L29 10L29 12L28 12L28 13L27 13L27 15L26 15L26 14L25 14L25 15L26 15L26 16L23 16L23 15L21 15L21 13L22 13L22 14L23 14L23 13L24 13L24 12L25 12L25 13L26 13L26 12L27 12L27 11L28 11L28 10L27 10L27 11L26 11L26 12L25 12L25 10L23 10L23 9L24 9L24 6L23 6L23 7L22 7L22 8L19 8L19 7L18 7L18 6L17 6L17 7L16 7L16 8L15 8L15 7L14 7L14 6L13 6L13 8L14 8L14 9L13 9L13 10L15 10L15 11L18 11L18 10L17 10L17 9L16 9L16 8L17 8L17 7L18 7L18 8L19 8L19 9L20 9L20 10L19 10L19 11L20 11L20 12L19 12L19 13L20 13L20 14L19 14L19 17L17 17L17 13L18 13L18 12L17 12L17 13L16 13L16 12L15 12L15 13L13 13L13 14L15 14L15 13L16 13L16 17L15 17L15 15L14 15L14 17L15 17L15 18L13 18L13 17L11 17L11 18L10 18L10 21L12 21L12 20L11 20L11 18L13 18L13 19L14 19L14 20L13 20L13 21L14 21L14 22L13 22L13 23L12 23L12 27L11 27L11 22L8 22L8 21L9 21L9 20L8 20L8 21L6 21L6 22L5 22L5 20L7 20L7 19L6 19L6 18L7 18L7 17L6 17L6 16L7 16L7 15L6 15L6 14L8 14L8 13L6 13L6 12L9 12L9 11L8 11L8 9L6 9L6 10L7 10L7 11L6 11L6 12L5 12L5 13L6 13L6 14L5 14L5 16L4 16L4 18L2 18L2 19L3 19L3 20L4 20L4 21L2 21L2 20L1 20L1 21L2 21L2 23L3 23L3 25L2 25L2 26L7 26L7 25L8 25L8 26L9 26L9 27L11 27L11 28L13 28L13 27L14 27L14 29L13 29L13 30L12 30L12 31L11 31L11 32L9 32L9 31L6 31L6 32L7 32L7 33L5 33L5 34L4 34L4 36L3 36L3 37L4 37L4 38L1 38L1 40L2 40L2 41L5 41L5 42L4 42L4 43L5 43L5 42L7 42L7 43L6 43L6 44L4 44L4 45L3 45L3 47L5 47L5 46L7 46L7 47L8 47L8 46L7 46L7 45L9 45L9 46L10 46L10 48L11 48L11 46L10 46L10 45L12 45L12 46L13 46L13 47L12 47L12 51L14 51L14 52L15 52L15 51L14 51L14 50L17 50L17 49L15 49L15 48L14 48L14 47L16 47L16 48L17 48L17 45L18 45L18 44L16 44L16 42L17 42L17 43L18 43L18 42L19 42L19 45L20 45L20 46L19 46L19 47L18 47L18 48L19 48L19 47L21 47L21 45L22 45L22 46L23 46L23 45L22 45L22 44L20 44L20 42L21 42L21 43L22 43L22 42L23 42L23 43L29 43L29 44L28 44L28 45L27 45L27 46L29 46L29 45L30 45L30 43L29 43L29 42L32 42L32 43L33 43L33 44L32 44L32 46L31 46L31 47L32 47L32 49L31 49L31 50L32 50L32 51L31 51L31 53L30 53L30 54L27 54L27 53L26 53L26 54L25 54L25 53L24 53L24 54L23 54L23 55L24 55L24 56L26 56L26 55L27 55L27 56L29 56L29 55L30 55L30 56L31 56L31 54L32 54L32 53L33 53L33 54L34 54L34 55L35 55L35 56L36 56L36 54L35 54L35 53L33 53L33 52L32 52L32 51L34 51L34 52L35 52L35 50L36 50L36 52L37 52L37 53L38 53L38 54L37 54L37 56L39 56L39 55L38 55L38 54L40 54L40 53L41 53L41 52L42 52L42 53L43 53L43 54L44 54L44 53L45 53L45 54L47 54L47 53L48 53L48 50L47 50L47 49L48 49L48 48L50 48L50 47L51 47L51 48L53 48L53 49L55 49L55 50L54 50L54 51L55 51L55 50L56 50L56 48L53 48L53 47L55 47L55 46L56 46L56 43L55 43L55 44L54 44L54 45L55 45L55 46L53 46L53 43L54 43L54 42L53 42L53 41L54 41L54 40L53 40L53 41L51 41L51 42L50 42L50 43L49 43L49 42L48 42L48 41L49 41L49 38L48 38L48 37L49 37L49 36L50 36L50 35L52 35L52 36L51 36L51 37L50 37L50 39L52 39L52 38L53 38L53 39L54 39L54 38L53 38L53 35L52 35L52 34L50 34L50 32L51 32L51 33L52 33L52 32L51 32L51 31L48 31L48 29L46 29L46 30L47 30L47 31L45 31L45 28L46 28L46 27L47 27L47 28L48 28L48 26L47 26L47 25L50 25L50 26L51 26L51 25L52 25L52 26L53 26L53 27L54 27L54 26L53 26L53 23L55 23L55 22L56 22L56 20L53 20L53 19L52 19L52 20L51 20L51 21L49 21L49 22L47 22L47 20L49 20L49 19L51 19L51 17L53 17L53 18L55 18L55 17L53 17L53 15L55 15L55 14L56 14L56 12L54 12L54 13L53 13L53 12L52 12L52 13L53 13L53 15L52 15L52 16L51 16L51 15L50 15L50 14L51 14L51 12L50 12L50 14L49 14L49 15L48 15L48 16L47 16L47 15L45 15L45 14L44 14L44 18L43 18L43 19L42 19L42 18L41 18L41 19L42 19L42 20L44 20L44 23L42 23L42 22L41 22L41 24L40 24L40 22L39 22L39 21L41 21L41 20L39 20L39 21L38 21L38 20L37 20L37 19L39 19L39 17L41 17L41 16L42 16L42 17L43 17L43 16L42 16L42 15L43 15L43 14L41 14L41 13L43 13L43 11L42 11L42 10L41 10L41 9L42 9L42 8L41 8L41 7L42 7L42 6L43 6L43 7L44 7L44 10L45 10L45 11L46 11L46 10L47 10L47 9L48 9L48 8L47 8L47 7L46 7L46 5L47 5L47 3L44 3L44 6L43 6L43 5L40 5L40 4L41 4L41 3L39 3L39 4L38 4L38 5L37 5L37 4L36 4L36 5L35 5L35 4L33 4L33 3L35 3L35 2L33 2L33 1ZM15 4L15 5L16 5L16 4ZM25 4L25 8L26 8L26 4ZM32 4L32 5L33 5L33 6L32 6L32 7L33 7L33 9L34 9L34 8L35 8L35 9L37 9L37 10L36 10L36 11L35 11L35 13L37 13L37 14L38 14L38 15L39 15L39 16L38 16L38 17L37 17L37 16L35 16L35 14L32 14L32 12L33 12L33 13L34 13L34 12L33 12L33 10L32 10L32 11L31 11L31 13L30 13L30 14L29 14L29 13L28 13L28 14L29 14L29 16L28 16L28 15L27 15L27 16L26 16L26 18L28 18L28 19L27 19L27 20L28 20L28 19L29 19L29 20L30 20L30 22L29 22L29 23L30 23L30 24L29 24L29 25L27 25L27 26L26 26L26 25L25 25L25 24L28 24L28 23L27 23L27 22L28 22L28 21L25 21L25 20L26 20L26 19L25 19L25 17L22 17L22 16L21 16L21 15L20 15L20 17L19 17L19 18L20 18L20 19L17 19L17 21L16 21L16 20L15 20L15 21L16 21L16 22L14 22L14 23L13 23L13 26L15 26L15 25L16 25L16 24L17 24L17 25L18 25L18 26L16 26L16 27L18 27L18 26L19 26L19 28L20 28L20 27L22 27L22 26L26 26L26 27L25 27L25 28L26 28L26 29L23 29L23 31L21 31L21 30L20 30L20 29L18 29L18 28L16 28L16 29L15 29L15 30L13 30L13 32L14 32L14 33L13 33L13 34L11 34L11 33L12 33L12 32L11 32L11 33L10 33L10 34L11 34L11 36L12 36L12 35L13 35L13 37L12 37L12 38L14 38L14 37L15 37L15 38L16 38L16 37L15 37L15 36L17 36L17 39L18 39L18 37L19 37L19 38L20 38L20 39L19 39L19 40L17 40L17 41L19 41L19 42L20 42L20 41L21 41L21 39L24 39L24 40L25 40L25 39L26 39L26 40L28 40L28 39L26 39L26 38L28 38L28 37L27 37L27 35L26 35L26 34L27 34L27 33L26 33L26 34L25 34L25 33L23 33L23 34L24 34L24 36L23 36L23 35L22 35L22 33L21 33L21 32L23 32L23 31L24 31L24 32L25 32L25 31L26 31L26 32L27 32L27 31L29 31L29 32L28 32L28 33L29 33L29 34L30 34L30 36L29 36L29 37L31 37L31 38L29 38L29 39L33 39L33 40L35 40L35 42L37 42L37 43L36 43L36 44L35 44L35 43L34 43L34 42L33 42L33 41L32 41L32 40L29 40L29 41L32 41L32 42L33 42L33 43L34 43L34 45L36 45L36 46L32 46L32 47L34 47L34 48L33 48L33 49L32 49L32 50L33 50L33 49L36 49L36 50L38 50L38 53L39 53L39 51L40 51L40 52L41 52L41 50L42 50L42 52L43 52L43 53L44 53L44 52L45 52L45 51L46 51L46 52L47 52L47 51L46 51L46 50L45 50L45 51L44 51L44 48L43 48L43 47L45 47L45 48L46 48L46 49L47 49L47 48L48 48L48 47L50 47L50 46L51 46L51 47L52 47L52 46L51 46L51 45L50 45L50 44L51 44L51 43L53 43L53 42L51 42L51 43L50 43L50 44L48 44L48 45L47 45L47 43L48 43L48 42L47 42L47 43L46 43L46 44L45 44L45 45L47 45L47 46L44 46L44 44L43 44L43 42L44 42L44 41L41 41L41 42L42 42L42 44L41 44L41 45L40 45L40 47L39 47L39 46L38 46L38 45L39 45L39 44L40 44L40 43L39 43L39 42L40 42L40 41L39 41L39 42L38 42L38 40L41 40L41 39L42 39L42 40L45 40L45 41L47 41L47 39L48 39L48 38L47 38L47 39L46 39L46 38L45 38L45 37L46 37L46 35L47 35L47 36L48 36L48 35L50 35L50 34L48 34L48 35L47 35L47 34L45 34L45 35L44 35L44 33L43 33L43 32L45 32L45 33L46 33L46 32L45 32L45 31L44 31L44 28L45 28L45 27L46 27L46 26L45 26L45 27L43 27L43 29L40 29L40 30L43 30L43 32L41 32L41 33L39 33L39 34L40 34L40 35L38 35L38 33L37 33L37 32L34 32L34 31L36 31L36 30L32 30L32 28L31 28L31 26L32 26L32 27L33 27L33 28L35 28L35 29L38 29L38 28L39 28L39 27L41 27L41 28L42 28L42 26L44 26L44 24L41 24L41 25L40 25L40 24L39 24L39 22L38 22L38 21L37 21L37 20L36 20L36 19L32 19L32 16L31 16L31 15L33 15L33 16L35 16L35 17L37 17L37 18L38 18L38 17L39 17L39 16L41 16L41 15L40 15L40 14L38 14L38 13L40 13L40 12L41 12L41 11L40 11L40 10L38 10L38 8L40 8L40 7L41 7L41 6L40 6L40 5L39 5L39 6L38 6L38 7L37 7L37 5L36 5L36 7L37 7L37 8L35 8L35 5L33 5L33 4ZM45 4L45 5L46 5L46 4ZM8 5L8 7L9 7L9 5ZM27 5L27 8L30 8L30 5ZM11 6L11 7L12 7L12 6ZM28 6L28 7L29 7L29 6ZM33 6L33 7L34 7L34 6ZM39 6L39 7L40 7L40 6ZM44 6L44 7L45 7L45 6ZM51 8L51 10L52 10L52 8ZM53 8L53 9L54 9L54 8ZM55 8L55 9L56 9L56 8ZM15 9L15 10L16 10L16 9ZM21 9L21 10L22 10L22 11L21 11L21 12L22 12L22 13L23 13L23 12L24 12L24 11L23 11L23 10L22 10L22 9ZM45 9L45 10L46 10L46 9ZM13 11L13 12L14 12L14 11ZM39 11L39 12L40 12L40 11ZM54 13L54 14L55 14L55 13ZM30 14L30 15L31 15L31 14ZM1 15L1 17L2 17L2 15ZM8 15L8 19L9 19L9 17L10 17L10 16L9 16L9 15ZM49 15L49 16L48 16L48 17L47 17L47 16L45 16L45 17L47 17L47 18L50 18L50 17L49 17L49 16L50 16L50 15ZM27 16L27 17L28 17L28 16ZM20 17L20 18L21 18L21 19L20 19L20 21L18 21L18 22L20 22L20 23L19 23L19 24L21 24L21 25L19 25L19 26L22 26L22 25L24 25L24 24L25 24L25 23L26 23L26 22L25 22L25 21L24 21L24 20L21 20L21 19L22 19L22 17ZM4 18L4 20L5 20L5 18ZM15 18L15 19L16 19L16 18ZM23 18L23 19L24 19L24 18ZM30 18L30 19L31 19L31 18ZM44 18L44 20L45 20L45 18ZM32 20L32 21L31 21L31 22L30 22L30 23L31 23L31 24L30 24L30 25L29 25L29 26L30 26L30 25L31 25L31 24L32 24L32 26L33 26L33 27L34 27L34 26L36 26L36 27L35 27L35 28L37 28L37 27L39 27L39 26L40 26L40 25L39 25L39 24L38 24L38 22L37 22L37 24L38 24L38 26L37 26L37 25L33 25L33 24L32 24L32 23L35 23L35 20ZM21 21L21 23L22 23L22 21ZM23 21L23 22L24 22L24 21ZM45 21L45 22L46 22L46 23L45 23L45 24L46 24L46 25L47 25L47 24L46 24L46 23L47 23L47 22L46 22L46 21ZM51 21L51 22L50 22L50 23L49 23L49 24L50 24L50 23L53 23L53 22L54 22L54 21ZM3 22L3 23L4 23L4 25L7 25L7 24L6 24L6 23L8 23L8 22L6 22L6 23L5 23L5 22ZM15 23L15 24L14 24L14 25L15 25L15 24L16 24L16 23ZM17 23L17 24L18 24L18 23ZM23 23L23 24L24 24L24 23ZM8 24L8 25L9 25L9 26L10 26L10 25L9 25L9 24ZM41 25L41 26L42 26L42 25ZM55 25L55 26L56 26L56 25ZM5 27L5 30L8 30L8 27ZM27 27L27 30L30 30L30 27ZM49 27L49 30L52 30L52 27ZM6 28L6 29L7 29L7 28ZM9 28L9 29L10 29L10 30L11 30L11 29L10 29L10 28ZM21 28L21 29L22 29L22 28ZM28 28L28 29L29 29L29 28ZM50 28L50 29L51 29L51 28ZM16 29L16 31L14 31L14 32L18 32L18 31L19 31L19 32L21 32L21 31L20 31L20 30L18 30L18 29ZM53 29L53 31L55 31L55 30L54 30L54 29ZM17 30L17 31L18 31L18 30ZM31 30L31 31L30 31L30 32L29 32L29 33L31 33L31 34L32 34L32 35L33 35L33 34L35 34L35 36L32 36L32 37L34 37L34 38L33 38L33 39L34 39L34 38L35 38L35 36L37 36L37 37L38 37L38 38L37 38L37 39L35 39L35 40L38 40L38 39L41 39L41 38L42 38L42 39L45 39L45 40L46 40L46 39L45 39L45 38L44 38L44 37L45 37L45 36L44 36L44 35L43 35L43 34L42 34L42 36L44 36L44 37L43 37L43 38L42 38L42 37L41 37L41 36L40 36L40 37L38 37L38 35L37 35L37 34L35 34L35 33L34 33L34 32L33 32L33 31L32 31L32 30ZM38 30L38 32L39 32L39 30ZM3 31L3 32L5 32L5 31ZM31 31L31 33L32 33L32 31ZM47 31L47 32L48 32L48 33L49 33L49 32L48 32L48 31ZM55 32L55 33L56 33L56 32ZM8 33L8 34L9 34L9 33ZM15 33L15 34L17 34L17 33ZM18 33L18 34L19 34L19 33ZM20 33L20 36L19 36L19 37L23 37L23 38L24 38L24 37L23 37L23 36L21 36L21 33ZM5 34L5 35L7 35L7 36L6 36L6 37L7 37L7 38L5 38L5 40L6 40L6 41L8 41L8 42L9 42L9 41L11 41L11 39L10 39L10 38L8 38L8 37L7 37L7 36L9 36L9 35L7 35L7 34ZM13 34L13 35L14 35L14 34ZM17 35L17 36L18 36L18 35ZM4 36L4 37L5 37L5 36ZM25 36L25 38L26 38L26 36ZM55 36L55 37L56 37L56 36ZM40 37L40 38L41 38L41 37ZM6 39L6 40L10 40L10 39ZM12 39L12 41L13 41L13 42L10 42L10 43L9 43L9 45L10 45L10 44L11 44L11 43L12 43L12 45L13 45L13 46L14 46L14 45L15 45L15 43L14 43L14 42L15 42L15 41L13 41L13 40L16 40L16 39ZM19 40L19 41L20 41L20 40ZM23 41L23 42L25 42L25 41ZM26 41L26 42L27 42L27 41ZM6 44L6 45L7 45L7 44ZM13 44L13 45L14 45L14 44ZM4 45L4 46L5 46L5 45ZM49 45L49 46L50 46L50 45ZM1 46L1 47L2 47L2 46ZM36 46L36 47L35 47L35 48L36 48L36 47L37 47L37 46ZM41 46L41 48L39 48L39 47L38 47L38 48L37 48L37 49L38 49L38 50L41 50L41 48L42 48L42 49L43 49L43 48L42 48L42 47L43 47L43 46ZM46 47L46 48L47 48L47 47ZM13 48L13 50L14 50L14 48ZM38 48L38 49L39 49L39 48ZM27 49L27 52L30 52L30 49ZM49 49L49 52L52 52L52 49ZM19 50L19 51L17 51L17 52L16 52L16 53L17 53L17 52L20 52L20 50ZM28 50L28 51L29 51L29 50ZM50 50L50 51L51 51L51 50ZM41 54L41 55L42 55L42 54ZM14 55L14 56L16 56L16 55ZM50 55L50 56L51 56L51 55ZM53 55L53 56L55 56L55 57L56 57L56 56L55 56L55 55ZM43 56L43 57L44 57L44 56ZM45 56L45 57L46 57L46 56ZM0 0L0 7L7 7L7 0ZM1 1L1 6L6 6L6 1ZM2 2L2 5L5 5L5 2ZM50 0L50 7L57 7L57 0ZM51 1L51 6L56 6L56 1ZM52 2L52 5L55 5L55 2ZM0 50L0 57L7 57L7 50ZM1 51L1 56L6 56L6 51ZM2 52L2 55L5 55L5 52Z" fill="#000000"/></g></g></svg>
