<?xml version="1.0" encoding="UTF-8"?>
<svg xmlns="http://www.w3.org/2000/svg" version="1.1" width="300" height="300" viewBox="0 0 300 300"><rect x="0" y="0" width="300" height="300" fill="#fefefe"/><g transform="scale(4.615)"><g transform="translate(4,4)"><path fill-rule="evenodd" d="M8 0L8 1L9 1L9 2L8 2L8 5L9 5L9 6L8 6L8 7L9 7L9 8L8 8L8 11L7 11L7 10L4 10L4 8L0 8L0 9L1 9L1 10L0 10L0 11L2 11L2 9L3 9L3 12L2 12L2 13L0 13L0 19L1 19L1 21L0 21L0 23L1 23L1 24L0 24L0 26L1 26L1 27L3 27L3 29L4 29L4 31L5 31L5 32L6 32L6 33L8 33L8 34L6 34L6 35L2 35L2 34L4 34L4 32L3 32L3 31L1 31L1 29L0 29L0 31L1 31L1 32L0 32L0 33L1 33L1 35L2 35L2 36L5 36L5 37L4 37L4 38L5 38L5 37L7 37L7 38L6 38L6 39L5 39L5 40L6 40L6 41L5 41L5 43L4 43L4 44L1 44L1 45L0 45L0 48L5 48L5 47L9 47L9 48L6 48L6 49L8 49L8 50L9 50L9 48L11 48L11 49L10 49L10 50L11 50L11 51L9 51L9 52L10 52L10 54L9 54L9 53L8 53L8 57L9 57L9 55L10 55L10 56L11 56L11 55L10 55L10 54L11 54L11 52L12 52L12 54L14 54L14 56L13 56L13 57L14 57L14 56L16 56L16 57L18 57L18 55L17 55L17 54L18 54L18 53L17 53L17 54L16 54L16 53L15 53L15 52L14 52L14 50L12 50L12 47L9 47L9 46L10 46L10 45L12 45L12 46L13 46L13 47L14 47L14 48L13 48L13 49L15 49L15 50L16 50L16 49L20 49L20 52L19 52L19 51L18 51L18 50L17 50L17 52L19 52L19 55L20 55L20 56L21 56L21 57L23 57L23 54L25 54L25 55L24 55L24 56L25 56L25 55L26 55L26 56L28 56L28 55L26 55L26 53L29 53L29 54L31 54L31 55L30 55L30 56L31 56L31 57L32 57L32 55L34 55L34 56L33 56L33 57L36 57L36 55L38 55L38 57L41 57L41 56L40 56L40 55L41 55L41 54L42 54L42 57L43 57L43 55L44 55L44 56L45 56L45 57L46 57L46 55L49 55L49 57L51 57L51 54L52 54L52 53L54 53L54 52L55 52L55 54L53 54L53 56L52 56L52 57L55 57L55 56L54 56L54 55L55 55L55 54L56 54L56 53L57 53L57 51L55 51L55 50L53 50L53 48L54 48L54 49L55 49L55 48L54 48L54 46L53 46L53 47L52 47L52 43L53 43L53 42L54 42L54 43L55 43L55 44L53 44L53 45L55 45L55 44L56 44L56 46L55 46L55 47L57 47L57 43L56 43L56 42L54 42L54 41L53 41L53 40L55 40L55 39L53 39L53 40L52 40L52 37L50 37L50 36L51 36L51 35L52 35L52 36L53 36L53 37L55 37L55 38L56 38L56 39L57 39L57 38L56 38L56 37L57 37L57 34L55 34L55 33L57 33L57 31L56 31L56 30L57 30L57 29L56 29L56 30L55 30L55 33L54 33L54 32L53 32L53 33L54 33L54 34L52 34L52 32L51 32L51 31L54 31L54 30L53 30L53 28L54 28L54 29L55 29L55 28L56 28L56 24L54 24L54 23L57 23L57 21L56 21L56 22L53 22L53 20L50 20L50 18L48 18L48 14L47 14L47 15L45 15L45 16L44 16L44 14L46 14L46 13L44 13L44 11L42 11L42 10L44 10L44 9L43 9L43 8L44 8L44 7L45 7L45 6L44 6L44 7L43 7L43 6L42 6L42 7L41 7L41 4L42 4L42 3L43 3L43 5L46 5L46 8L45 8L45 11L47 11L47 12L48 12L48 11L49 11L49 16L50 16L50 17L52 17L52 16L50 16L50 15L51 15L51 13L52 13L52 14L53 14L53 13L54 13L54 15L53 15L53 16L55 16L55 17L54 17L54 18L51 18L51 19L56 19L56 17L57 17L57 15L55 15L55 13L56 13L56 11L57 11L57 10L56 10L56 9L57 9L57 8L56 8L56 9L55 9L55 8L52 8L52 9L51 9L51 10L50 10L50 8L49 8L49 9L48 9L48 8L47 8L47 5L48 5L48 0L45 0L45 1L44 1L44 2L41 2L41 1L43 1L43 0L41 0L41 1L40 1L40 0L39 0L39 1L40 1L40 2L41 2L41 4L38 4L38 3L37 3L37 1L38 1L38 0L37 0L37 1L36 1L36 0L35 0L35 1L34 1L34 2L35 2L35 3L33 3L33 2L29 2L29 4L26 4L26 1L25 1L25 0L23 0L23 1L22 1L22 0L21 0L21 1L22 1L22 2L21 2L21 3L22 3L22 2L23 2L23 1L25 1L25 2L24 2L24 3L23 3L23 4L21 4L21 5L20 5L20 4L19 4L19 3L20 3L20 2L19 2L19 3L17 3L17 5L15 5L15 4L14 4L14 3L12 3L12 1L14 1L14 0L10 0L10 1L9 1L9 0ZM17 0L17 1L18 1L18 0ZM19 0L19 1L20 1L20 0ZM29 0L29 1L31 1L31 0ZM32 0L32 1L33 1L33 0ZM10 1L10 2L11 2L11 1ZM15 1L15 3L16 3L16 1ZM27 1L27 2L28 2L28 1ZM35 1L35 2L36 2L36 1ZM45 1L45 3L44 3L44 4L46 4L46 5L47 5L47 3L46 3L46 2L47 2L47 1ZM9 3L9 4L10 4L10 6L9 6L9 7L10 7L10 8L9 8L9 11L10 11L10 12L7 12L7 11L5 11L5 12L7 12L7 13L6 13L6 14L7 14L7 15L5 15L5 18L7 18L7 19L6 19L6 20L5 20L5 19L4 19L4 17L3 17L3 16L4 16L4 14L5 14L5 13L3 13L3 14L2 14L2 15L1 15L1 16L2 16L2 17L3 17L3 18L2 18L2 19L4 19L4 20L3 20L3 21L6 21L6 22L7 22L7 23L4 23L4 24L1 24L1 26L3 26L3 25L6 25L6 26L7 26L7 25L9 25L9 27L12 27L12 26L13 26L13 28L11 28L11 29L10 29L10 30L9 30L9 31L6 31L6 32L9 32L9 31L11 31L11 33L12 33L12 34L11 34L11 35L10 35L10 36L11 36L11 37L9 37L9 35L8 35L8 38L7 38L7 39L6 39L6 40L7 40L7 41L6 41L6 42L7 42L7 41L8 41L8 43L9 43L9 44L11 44L11 42L9 42L9 41L14 41L14 43L13 43L13 42L12 42L12 43L13 43L13 44L12 44L12 45L13 45L13 46L14 46L14 47L15 47L15 46L16 46L16 47L17 47L17 48L18 48L18 47L19 47L19 46L17 46L17 45L19 45L19 43L18 43L18 41L19 41L19 42L21 42L21 44L20 44L20 46L21 46L21 47L20 47L20 48L21 48L21 53L20 53L20 55L22 55L22 54L23 54L23 52L24 52L24 53L25 53L25 52L26 52L26 51L24 51L24 50L25 50L25 49L26 49L26 48L28 48L28 47L27 47L27 46L29 46L29 48L32 48L32 49L31 49L31 50L32 50L32 51L31 51L31 53L32 53L32 51L33 51L33 52L34 52L34 53L36 53L36 54L34 54L34 55L36 55L36 54L37 54L37 51L36 51L36 52L34 52L34 50L35 50L35 48L37 48L37 49L36 49L36 50L37 50L37 49L38 49L38 48L39 48L39 49L40 49L40 50L39 50L39 52L40 52L40 54L41 54L41 52L42 52L42 54L43 54L43 51L44 51L44 49L46 49L46 50L45 50L45 54L44 54L44 55L46 55L46 51L47 51L47 52L48 52L48 48L45 48L45 47L46 47L46 46L48 46L48 47L49 47L49 48L50 48L50 45L51 45L51 42L50 42L50 41L52 41L52 40L50 40L50 41L47 41L47 42L45 42L45 43L47 43L47 42L48 42L48 43L49 43L49 46L48 46L48 44L44 44L44 42L43 42L43 40L44 40L44 39L46 39L46 38L48 38L48 39L47 39L47 40L49 40L49 38L48 38L48 37L49 37L49 36L48 36L48 35L49 35L49 34L50 34L50 33L49 33L49 32L50 32L50 31L49 31L49 32L48 32L48 29L47 29L47 31L44 31L44 30L46 30L46 27L45 27L45 29L44 29L44 28L43 28L43 27L44 27L44 26L43 26L43 25L42 25L42 26L43 26L43 27L42 27L42 28L43 28L43 29L42 29L42 30L41 30L41 28L40 28L40 29L38 29L38 30L36 30L36 31L37 31L37 32L36 32L36 33L37 33L37 32L38 32L38 34L39 34L39 31L38 31L38 30L41 30L41 31L40 31L40 32L41 32L41 31L44 31L44 34L45 34L45 36L44 36L44 37L41 37L41 35L42 35L42 36L43 36L43 35L42 35L42 34L41 34L41 35L37 35L37 37L35 37L35 36L36 36L36 35L35 35L35 31L33 31L33 29L31 29L31 31L33 31L33 32L31 32L31 34L30 34L30 35L29 35L29 33L30 33L30 32L28 32L28 33L25 33L25 34L24 34L24 35L23 35L23 36L19 36L19 37L20 37L20 38L22 38L22 37L23 37L23 36L25 36L25 37L24 37L24 39L23 39L23 40L22 40L22 39L21 39L21 40L22 40L22 41L19 41L19 40L18 40L18 36L17 36L17 35L16 35L16 34L17 34L17 30L18 30L18 35L19 35L19 31L20 31L20 30L21 30L21 32L22 32L22 31L24 31L24 30L26 30L26 28L25 28L25 25L27 25L27 26L28 26L28 25L29 25L29 26L31 26L31 23L32 23L32 22L34 22L34 23L33 23L33 24L32 24L32 25L33 25L33 24L35 24L35 23L36 23L36 24L37 24L37 23L38 23L38 22L39 22L39 21L38 21L38 22L35 22L35 20L36 20L36 21L37 21L37 20L36 20L36 19L38 19L38 20L40 20L40 19L39 19L39 18L41 18L41 21L44 21L44 22L45 22L45 23L43 23L43 22L42 22L42 24L44 24L44 25L46 25L46 26L47 26L47 27L48 27L48 26L49 26L49 25L48 25L48 24L47 24L47 25L46 25L46 22L47 22L47 23L49 23L49 24L50 24L50 25L51 25L51 26L52 26L52 25L53 25L53 27L55 27L55 25L53 25L53 23L52 23L52 22L51 22L51 21L50 21L50 20L49 20L49 19L48 19L48 18L45 18L45 17L46 17L46 16L45 16L45 17L42 17L42 14L44 14L44 13L43 13L43 12L42 12L42 11L40 11L40 13L41 13L41 16L40 16L40 17L39 17L39 15L37 15L37 13L36 13L36 15L35 15L35 12L34 12L34 14L33 14L33 12L32 12L32 13L31 13L31 12L30 12L30 11L33 11L33 10L34 10L34 11L35 11L35 10L36 10L36 12L38 12L38 11L39 11L39 10L41 10L41 9L42 9L42 8L41 8L41 7L40 7L40 5L38 5L38 6L37 6L37 5L36 5L36 4L34 4L34 5L33 5L33 3L32 3L32 4L31 4L31 5L32 5L32 6L31 6L31 9L32 9L32 10L30 10L30 11L27 11L27 10L26 10L26 11L25 11L25 10L23 10L23 9L22 9L22 10L23 10L23 11L21 11L21 14L20 14L20 16L19 16L19 15L18 15L18 14L19 14L19 13L20 13L20 12L19 12L19 11L20 11L20 10L21 10L21 8L22 8L22 6L23 6L23 7L24 7L24 8L25 8L25 9L26 9L26 6L25 6L25 5L26 5L26 4L24 4L24 6L23 6L23 5L21 5L21 7L20 7L20 6L19 6L19 7L18 7L18 5L19 5L19 4L18 4L18 5L17 5L17 7L16 7L16 6L15 6L15 5L14 5L14 4L13 4L13 7L12 7L12 6L11 6L11 5L12 5L12 3L11 3L11 4L10 4L10 3ZM27 5L27 8L30 8L30 5ZM10 6L10 7L11 7L11 6ZM14 6L14 8L15 8L15 11L14 11L14 9L13 9L13 13L12 13L12 16L11 16L11 17L13 17L13 18L15 18L15 19L13 19L13 22L14 22L14 20L15 20L15 19L16 19L16 23L15 23L15 24L16 24L16 23L17 23L17 22L18 22L18 20L19 20L19 19L23 19L23 18L24 18L24 19L25 19L25 22L24 22L24 21L23 21L23 20L21 20L21 21L23 21L23 22L22 22L22 23L21 23L21 22L19 22L19 24L17 24L17 27L20 27L20 29L21 29L21 30L24 30L24 29L21 29L21 26L22 26L22 27L23 27L23 28L24 28L24 26L23 26L23 25L21 25L21 24L24 24L24 25L25 25L25 22L29 22L29 20L30 20L30 23L28 23L28 24L30 24L30 23L31 23L31 20L32 20L32 17L33 17L33 19L34 19L34 20L35 20L35 17L34 17L34 16L35 16L35 15L33 15L33 14L32 14L32 15L31 15L31 14L30 14L30 13L28 13L28 12L26 12L26 14L27 14L27 16L26 16L26 15L25 15L25 14L23 14L23 18L22 18L22 17L21 17L21 18L19 18L19 17L18 17L18 18L17 18L17 17L15 17L15 16L16 16L16 15L17 15L17 14L16 14L16 15L15 15L15 11L16 11L16 8L15 8L15 6ZM24 6L24 7L25 7L25 6ZM28 6L28 7L29 7L29 6ZM32 6L32 8L33 8L33 6ZM34 6L34 9L36 9L36 8L38 8L38 7L39 7L39 6L38 6L38 7L37 7L37 6L36 6L36 7L35 7L35 6ZM48 6L48 7L49 7L49 6ZM19 7L19 8L20 8L20 7ZM6 8L6 9L7 9L7 8ZM17 8L17 12L16 12L16 13L17 13L17 12L18 12L18 13L19 13L19 12L18 12L18 10L20 10L20 9L18 9L18 8ZM39 8L39 9L41 9L41 8ZM10 9L10 10L11 10L11 11L12 11L12 9ZM37 9L37 10L38 10L38 9ZM46 9L46 10L47 10L47 11L48 11L48 10L47 10L47 9ZM52 9L52 11L51 11L51 12L50 12L50 13L51 13L51 12L52 12L52 13L53 13L53 10L54 10L54 13L55 13L55 9ZM49 10L49 11L50 11L50 10ZM23 11L23 12L22 12L22 13L23 13L23 12L25 12L25 11ZM7 13L7 14L8 14L8 15L7 15L7 16L6 16L6 17L8 17L8 16L9 16L9 18L8 18L8 20L6 20L6 21L7 21L7 22L8 22L8 20L9 20L9 18L10 18L10 19L11 19L11 22L12 22L12 18L10 18L10 16L9 16L9 15L11 15L11 13ZM13 13L13 14L14 14L14 13ZM14 15L14 16L15 16L15 15ZM28 15L28 16L29 16L29 17L26 17L26 18L25 18L25 17L24 17L24 18L25 18L25 19L26 19L26 18L27 18L27 20L26 20L26 21L27 21L27 20L29 20L29 19L28 19L28 18L29 18L29 17L30 17L30 19L31 19L31 16L29 16L29 15ZM36 17L36 18L37 18L37 17ZM41 17L41 18L42 18L42 19L43 19L43 18L42 18L42 17ZM16 18L16 19L17 19L17 20L18 20L18 19L17 19L17 18ZM44 18L44 19L45 19L45 18ZM46 19L46 21L47 21L47 22L49 22L49 21L47 21L47 19ZM54 20L54 21L55 21L55 20ZM1 21L1 23L2 23L2 21ZM7 23L7 24L6 24L6 25L7 25L7 24L11 24L11 23ZM12 23L12 24L13 24L13 23ZM20 23L20 24L19 24L19 25L20 25L20 24L21 24L21 23ZM26 23L26 24L27 24L27 23ZM39 23L39 24L38 24L38 25L39 25L39 26L38 26L38 27L39 27L39 26L40 26L40 25L41 25L41 23ZM15 25L15 26L14 26L14 28L13 28L13 29L11 29L11 31L13 31L13 30L14 30L14 29L16 29L16 30L15 30L15 32L12 32L12 33L13 33L13 35L11 35L11 36L12 36L12 37L11 37L11 38L13 38L13 39L15 39L15 40L16 40L16 39L17 39L17 38L13 38L13 37L15 37L15 36L16 36L16 35L15 35L15 32L16 32L16 30L17 30L17 28L15 28L15 27L16 27L16 25ZM34 25L34 27L35 27L35 25ZM5 27L5 30L8 30L8 27ZM27 27L27 30L30 30L30 27ZM31 27L31 28L33 28L33 27ZM49 27L49 30L52 30L52 27ZM6 28L6 29L7 29L7 28ZM18 28L18 29L19 29L19 28ZM28 28L28 29L29 29L29 28ZM34 28L34 29L37 29L37 28ZM50 28L50 29L51 29L51 28ZM25 31L25 32L27 32L27 31ZM23 32L23 33L22 33L22 34L21 34L21 33L20 33L20 34L21 34L21 35L22 35L22 34L23 34L23 33L24 33L24 32ZM33 32L33 33L34 33L34 32ZM42 32L42 33L43 33L43 32ZM45 32L45 33L46 33L46 32ZM25 34L25 35L26 35L26 37L27 37L27 36L29 36L29 38L25 38L25 39L24 39L24 40L23 40L23 41L22 41L22 44L21 44L21 46L22 46L22 47L21 47L21 48L23 48L23 49L22 49L22 52L23 52L23 49L24 49L24 47L25 47L25 48L26 48L26 47L25 47L25 45L26 45L26 46L27 46L27 45L26 45L26 43L24 43L24 44L25 44L25 45L23 45L23 46L22 46L22 44L23 44L23 42L24 42L24 41L25 41L25 42L27 42L27 44L29 44L29 46L32 46L32 42L33 42L33 45L34 45L34 44L35 44L35 46L34 46L34 47L33 47L33 50L34 50L34 48L35 48L35 46L37 46L37 47L38 47L38 45L39 45L39 47L43 47L43 49L44 49L44 47L45 47L45 45L44 45L44 47L43 47L43 45L42 45L42 43L43 43L43 42L42 42L42 40L43 40L43 39L44 39L44 38L41 38L41 37L40 37L40 36L39 36L39 37L37 37L37 39L38 39L38 40L37 40L37 41L39 41L39 42L37 42L37 44L38 44L38 45L36 45L36 43L34 43L34 42L36 42L36 41L34 41L34 40L35 40L35 39L36 39L36 38L35 38L35 39L33 39L33 38L34 38L34 37L33 37L33 38L32 38L32 36L33 36L33 34L32 34L32 36L29 36L29 35L28 35L28 34ZM46 34L46 35L48 35L48 34ZM6 35L6 36L7 36L7 35ZM13 35L13 36L14 36L14 35ZM54 35L54 36L55 36L55 37L56 37L56 35ZM46 36L46 37L45 37L45 38L46 38L46 37L47 37L47 36ZM2 38L2 39L3 39L3 38ZM8 38L8 41L9 41L9 40L11 40L11 39L10 39L10 38ZM30 38L30 39L28 39L28 40L29 40L29 41L30 41L30 42L31 42L31 40L33 40L33 39L32 39L32 38ZM38 38L38 39L39 39L39 38ZM50 38L50 39L51 39L51 38ZM0 39L0 41L1 41L1 42L2 42L2 43L3 43L3 42L4 42L4 40L3 40L3 41L1 41L1 39ZM25 39L25 41L26 41L26 40L27 40L27 39ZM40 39L40 42L39 42L39 43L38 43L38 44L39 44L39 43L42 43L42 42L41 42L41 39ZM45 40L45 41L46 41L46 40ZM56 40L56 41L57 41L57 40ZM15 41L15 42L16 42L16 43L15 43L15 45L17 45L17 41ZM27 41L27 42L28 42L28 41ZM49 42L49 43L50 43L50 42ZM6 43L6 44L5 44L5 46L4 46L4 45L3 45L3 47L5 47L5 46L7 46L7 45L6 45L6 44L7 44L7 43ZM1 45L1 47L2 47L2 45ZM8 45L8 46L9 46L9 45ZM51 47L51 48L52 48L52 47ZM41 48L41 49L42 49L42 48ZM56 48L56 49L57 49L57 48ZM27 49L27 52L30 52L30 49ZM49 49L49 52L52 52L52 49ZM28 50L28 51L29 51L29 50ZM50 50L50 51L51 51L51 50ZM12 51L12 52L13 52L13 53L14 53L14 54L15 54L15 53L14 53L14 52L13 52L13 51ZM40 51L40 52L41 52L41 51ZM21 53L21 54L22 54L22 53ZM38 53L38 54L39 54L39 53ZM47 53L47 54L50 54L50 53ZM56 55L56 56L57 56L57 55ZM47 56L47 57L48 57L48 56ZM0 0L0 7L7 7L7 0ZM1 1L1 6L6 6L6 1ZM2 2L2 5L5 5L5 2ZM50 0L50 7L57 7L57 0ZM51 1L51 6L56 6L56 1ZM52 2L52 5L55 5L55 2ZM0 50L0 57L7 57L7 50ZM1 51L1 56L6 56L6 51ZM2 52L2 55L5 55L5 52Z" fill="#000000"/></g></g></svg>
