<?xml version="1.0" encoding="UTF-8"?>
<svg xmlns="http://www.w3.org/2000/svg" version="1.1" width="300" height="300" viewBox="0 0 300 300"><rect x="0" y="0" width="300" height="300" fill="#fefefe"/><g transform="scale(4.615)"><g transform="translate(4,4)"><path fill-rule="evenodd" d="M13 0L13 1L14 1L14 2L13 2L13 3L12 3L12 1L11 1L11 3L10 3L10 5L8 5L8 7L9 7L9 8L6 8L6 9L8 9L8 10L9 10L9 11L8 11L8 13L7 13L7 12L6 12L6 13L7 13L7 14L6 14L6 15L7 15L7 16L6 16L6 17L3 17L3 16L4 16L4 14L5 14L5 13L4 13L4 12L3 12L3 11L7 11L7 10L3 10L3 9L5 9L5 8L0 8L0 9L2 9L2 11L1 11L1 12L3 12L3 14L2 14L2 15L3 15L3 16L2 16L2 17L3 17L3 18L2 18L2 20L1 20L1 21L2 21L2 23L0 23L0 26L1 26L1 28L0 28L0 29L1 29L1 28L2 28L2 29L4 29L4 30L0 30L0 31L2 31L2 32L1 32L1 33L0 33L0 34L2 34L2 35L1 35L1 36L2 36L2 37L3 37L3 38L2 38L2 39L4 39L4 40L3 40L3 41L2 41L2 43L1 43L1 42L0 42L0 44L2 44L2 45L5 45L5 44L4 44L4 41L7 41L7 40L6 40L6 39L9 39L9 38L11 38L11 39L10 39L10 41L12 41L12 43L10 43L10 42L9 42L9 40L8 40L8 42L5 42L5 43L8 43L8 42L9 42L9 45L8 45L8 46L5 46L5 47L3 47L3 46L2 46L2 47L1 47L1 45L0 45L0 48L5 48L5 47L8 47L8 48L9 48L9 46L10 46L10 47L14 47L14 49L15 49L15 50L13 50L13 48L11 48L11 49L8 49L8 51L9 51L9 52L8 52L8 57L10 57L10 56L11 56L11 57L16 57L16 56L17 56L17 57L21 57L21 56L24 56L24 57L26 57L26 56L24 56L24 55L23 55L23 54L24 54L24 53L27 53L27 54L30 54L30 53L31 53L31 51L32 51L32 52L33 52L33 53L32 53L32 54L31 54L31 56L30 56L30 55L29 55L29 56L27 56L27 57L29 57L29 56L30 56L30 57L31 57L31 56L35 56L35 57L39 57L39 56L37 56L37 55L40 55L40 56L42 56L42 55L44 55L44 54L45 54L45 53L44 53L44 52L45 52L45 51L46 51L46 52L47 52L47 50L48 50L48 53L47 53L47 54L46 54L46 55L47 55L47 57L49 57L49 56L50 56L50 57L52 57L52 55L51 55L51 53L52 53L52 54L53 54L53 57L54 57L54 56L55 56L55 57L56 57L56 56L55 56L55 55L54 55L54 54L55 54L55 51L56 51L56 52L57 52L57 51L56 51L56 50L57 50L57 48L56 48L56 46L57 46L57 43L56 43L56 42L55 42L55 41L53 41L53 40L55 40L55 39L57 39L57 35L53 35L53 34L52 34L52 33L53 33L53 32L54 32L54 34L57 34L57 32L56 32L56 30L57 30L57 28L56 28L56 27L55 27L55 26L57 26L57 25L56 25L56 22L57 22L57 20L56 20L56 18L57 18L57 17L56 17L56 16L57 16L57 15L56 15L56 14L57 14L57 13L56 13L56 14L55 14L55 13L54 13L54 12L57 12L57 11L56 11L56 8L55 8L55 10L54 10L54 11L50 11L50 8L48 8L48 9L47 9L47 5L48 5L48 0L46 0L46 1L45 1L45 2L44 2L44 3L43 3L43 4L40 4L40 5L39 5L39 6L38 6L38 4L39 4L39 3L42 3L42 2L43 2L43 0L41 0L41 1L40 1L40 0L39 0L39 1L38 1L38 0L37 0L37 1L38 1L38 2L39 2L39 3L36 3L36 0L35 0L35 1L33 1L33 0L29 0L29 1L28 1L28 3L27 3L27 4L26 4L26 3L23 3L23 2L27 2L27 1L25 1L25 0L23 0L23 2L22 2L22 3L23 3L23 4L19 4L19 2L20 2L20 0L17 0L17 2L18 2L18 3L17 3L17 5L20 5L20 7L19 7L19 6L18 6L18 7L19 7L19 8L16 8L16 7L17 7L17 6L16 6L16 7L15 7L15 5L16 5L16 4L15 4L15 5L14 5L14 7L13 7L13 6L12 6L12 5L13 5L13 4L14 4L14 2L15 2L15 1L14 1L14 0ZM21 0L21 1L22 1L22 0ZM8 1L8 2L9 2L9 1ZM30 1L30 2L31 2L31 3L32 3L32 4L31 4L31 8L32 8L32 10L29 10L29 9L28 9L28 10L29 10L29 12L28 12L28 13L26 13L26 12L27 12L27 11L26 11L26 12L25 12L25 11L24 11L24 12L23 12L23 13L22 13L22 12L20 12L20 15L21 15L21 16L20 16L20 18L22 18L22 17L25 17L25 18L26 18L26 21L29 21L29 20L30 20L30 21L31 21L31 22L30 22L30 23L29 23L29 22L28 22L28 23L27 23L27 24L25 24L25 23L26 23L26 22L25 22L25 21L24 21L24 20L23 20L23 19L24 19L24 18L23 18L23 19L22 19L22 20L20 20L20 21L19 21L19 22L18 22L18 23L19 23L19 25L20 25L20 26L18 26L18 25L17 25L17 24L16 24L16 23L14 23L14 22L16 22L16 21L17 21L17 20L18 20L18 19L16 19L16 21L15 21L15 18L19 18L19 17L17 17L17 16L18 16L18 15L19 15L19 14L17 14L17 13L18 13L18 12L17 12L17 11L18 11L18 10L19 10L19 9L16 9L16 8L15 8L15 7L14 7L14 9L11 9L11 10L10 10L10 11L11 11L11 10L12 10L12 12L11 12L11 15L10 15L10 12L9 12L9 13L8 13L8 14L9 14L9 15L10 15L10 16L8 16L8 17L6 17L6 18L3 18L3 19L4 19L4 20L2 20L2 21L3 21L3 23L4 23L4 24L3 24L3 25L4 25L4 26L3 26L3 27L2 27L2 28L4 28L4 26L8 26L8 25L10 25L10 26L11 26L11 27L9 27L9 31L8 31L8 33L6 33L6 32L7 32L7 31L5 31L5 33L4 33L4 31L3 31L3 32L2 32L2 34L4 34L4 36L3 36L3 35L2 35L2 36L3 36L3 37L4 37L4 36L5 36L5 35L6 35L6 36L7 36L7 37L6 37L6 38L4 38L4 39L6 39L6 38L7 38L7 37L8 37L8 38L9 38L9 36L10 36L10 35L11 35L11 34L12 34L12 33L14 33L14 35L12 35L12 36L11 36L11 37L12 37L12 36L14 36L14 37L13 37L13 38L12 38L12 39L13 39L13 38L14 38L14 37L16 37L16 38L15 38L15 39L14 39L14 40L15 40L15 41L16 41L16 42L17 42L17 43L18 43L18 42L19 42L19 45L20 45L20 47L21 47L21 49L20 49L20 48L19 48L19 49L16 49L16 48L18 48L18 47L17 47L17 45L18 45L18 44L16 44L16 43L15 43L15 42L14 42L14 41L13 41L13 40L12 40L12 41L13 41L13 44L10 44L10 46L11 46L11 45L14 45L14 44L15 44L15 46L14 46L14 47L15 47L15 49L16 49L16 50L17 50L17 51L16 51L16 53L15 53L15 51L14 51L14 54L16 54L16 53L17 53L17 51L18 51L18 52L19 52L19 51L20 51L20 50L21 50L21 49L23 49L23 48L24 48L24 49L25 49L25 50L22 50L22 51L21 51L21 52L20 52L20 53L19 53L19 54L20 54L20 55L19 55L19 56L21 56L21 55L22 55L22 54L21 54L21 53L24 53L24 52L26 52L26 51L25 51L25 50L26 50L26 48L27 48L27 47L28 47L28 48L29 48L29 46L31 46L31 48L32 48L32 49L31 49L31 50L32 50L32 51L34 51L34 52L35 52L35 50L36 50L36 52L38 52L38 53L37 53L37 54L40 54L40 53L42 53L42 50L41 50L41 48L42 48L42 49L43 49L43 48L44 48L44 49L45 49L45 50L47 50L47 49L48 49L48 48L52 48L52 47L53 47L53 45L52 45L52 44L53 44L53 43L54 43L54 42L53 42L53 41L51 41L51 42L50 42L50 43L48 43L48 44L47 44L47 45L45 45L45 44L46 44L46 43L47 43L47 42L48 42L48 41L49 41L49 39L47 39L47 37L48 37L48 36L49 36L49 37L50 37L50 39L51 39L51 38L53 38L53 39L55 39L55 37L56 37L56 36L55 36L55 37L53 37L53 35L52 35L52 34L50 34L50 32L49 32L49 31L48 31L48 27L47 27L47 25L45 25L45 22L47 22L47 21L45 21L45 20L44 20L44 18L46 18L46 19L48 19L48 18L47 18L47 17L45 17L45 16L46 16L46 15L44 15L44 14L47 14L47 13L49 13L49 12L50 12L50 14L49 14L49 15L48 15L48 16L49 16L49 17L50 17L50 19L52 19L52 20L51 20L51 21L49 21L49 20L48 20L48 21L49 21L49 23L48 23L48 24L49 24L49 23L50 23L50 24L51 24L51 25L49 25L49 26L51 26L51 25L55 25L55 24L53 24L53 23L55 23L55 22L56 22L56 20L53 20L53 19L52 19L52 18L51 18L51 17L53 17L53 18L55 18L55 16L53 16L53 15L52 15L52 16L51 16L51 15L50 15L50 14L51 14L51 12L50 12L50 11L48 11L48 10L47 10L47 9L45 9L45 7L46 7L46 5L47 5L47 3L44 3L44 6L43 6L43 7L44 7L44 9L43 9L43 10L44 10L44 9L45 9L45 10L47 10L47 12L45 12L45 11L42 11L42 10L41 10L41 9L42 9L42 8L41 8L41 7L42 7L42 6L41 6L41 5L40 5L40 6L39 6L39 7L40 7L40 8L39 8L39 9L38 9L38 11L39 11L39 12L40 12L40 13L38 13L38 14L37 14L37 15L35 15L35 16L33 16L33 15L32 15L32 17L31 17L31 18L30 18L30 19L28 19L28 18L27 18L27 17L28 17L28 16L29 16L29 14L30 14L30 15L31 15L31 14L30 14L30 13L31 13L31 11L32 11L32 13L33 13L33 14L36 14L36 13L35 13L35 12L36 12L36 10L37 10L37 9L35 9L35 8L37 8L37 7L38 7L38 6L37 6L37 7L36 7L36 5L37 5L37 4L36 4L36 5L35 5L35 2L34 2L34 3L32 3L32 2L33 2L33 1ZM46 1L46 2L47 2L47 1ZM8 3L8 4L9 4L9 3ZM11 3L11 5L12 5L12 3ZM28 3L28 4L30 4L30 3ZM23 4L23 5L24 5L24 4ZM25 4L25 8L24 8L24 6L23 6L23 8L20 8L20 11L22 11L22 10L23 10L23 8L24 8L24 9L25 9L25 8L26 8L26 4ZM32 4L32 5L33 5L33 4ZM45 4L45 5L46 5L46 4ZM27 5L27 8L30 8L30 5ZM34 5L34 7L33 7L33 6L32 6L32 7L33 7L33 9L34 9L34 8L35 8L35 5ZM9 6L9 7L10 7L10 8L13 8L13 7L12 7L12 6L11 6L11 7L10 7L10 6ZM21 6L21 7L22 7L22 6ZM28 6L28 7L29 7L29 6ZM40 6L40 7L41 7L41 6ZM44 6L44 7L45 7L45 6ZM48 6L48 7L49 7L49 6ZM51 8L51 9L52 9L52 10L53 10L53 9L54 9L54 8L53 8L53 9L52 9L52 8ZM21 9L21 10L22 10L22 9ZM13 10L13 11L14 11L14 12L12 12L12 13L15 13L15 14L13 14L13 15L12 15L12 16L11 16L11 17L10 17L10 19L12 19L12 20L11 20L11 21L10 21L10 22L9 22L9 21L8 21L8 22L6 22L6 21L7 21L7 20L8 20L8 19L9 19L9 17L8 17L8 18L6 18L6 19L7 19L7 20L6 20L6 21L4 21L4 23L5 23L5 22L6 22L6 23L7 23L7 24L6 24L6 25L8 25L8 24L9 24L9 23L10 23L10 22L12 22L12 23L11 23L11 25L12 25L12 24L14 24L14 25L13 25L13 26L12 26L12 27L13 27L13 29L12 29L12 30L11 30L11 28L10 28L10 30L11 30L11 31L9 31L9 32L11 32L11 33L8 33L8 34L6 34L6 35L7 35L7 36L8 36L8 35L9 35L9 34L11 34L11 33L12 33L12 32L13 32L13 31L16 31L16 29L18 29L18 30L17 30L17 32L18 32L18 33L17 33L17 34L15 34L15 35L14 35L14 36L16 36L16 35L17 35L17 34L18 34L18 35L19 35L19 36L17 36L17 37L19 37L19 38L20 38L20 39L18 39L18 38L17 38L17 40L16 40L16 39L15 39L15 40L16 40L16 41L17 41L17 42L18 42L18 41L19 41L19 42L20 42L20 45L21 45L21 47L23 47L23 46L25 46L25 44L27 44L27 45L26 45L26 47L27 47L27 45L28 45L28 44L29 44L29 43L31 43L31 46L32 46L32 47L33 47L33 48L34 48L34 49L36 49L36 50L38 50L38 52L39 52L39 51L40 51L40 52L41 52L41 50L38 50L38 49L39 49L39 48L41 48L41 46L43 46L43 45L44 45L44 47L45 47L45 48L48 48L48 47L50 47L50 45L49 45L49 44L48 44L48 46L45 46L45 45L44 45L44 44L45 44L45 41L47 41L47 39L46 39L46 38L45 38L45 37L46 37L46 36L47 36L47 35L44 35L44 33L43 33L43 32L46 32L46 33L47 33L47 32L48 32L48 33L49 33L49 32L48 32L48 31L47 31L47 30L46 30L46 29L47 29L47 27L46 27L46 26L43 26L43 25L44 25L44 24L43 24L43 23L44 23L44 20L43 20L43 18L44 18L44 15L42 15L42 16L41 16L41 14L44 14L44 12L43 12L43 13L41 13L41 14L38 14L38 15L39 15L39 16L38 16L38 17L37 17L37 16L35 16L35 17L37 17L37 18L38 18L38 17L39 17L39 19L38 19L38 20L36 20L36 19L35 19L35 18L33 18L33 17L32 17L32 18L33 18L33 19L30 19L30 20L31 20L31 21L32 21L32 20L33 20L33 21L34 21L34 20L35 20L35 23L34 23L34 22L33 22L33 23L32 23L32 24L31 24L31 23L30 23L30 24L29 24L29 23L28 23L28 24L29 24L29 26L26 26L26 25L25 25L25 24L24 24L24 23L23 23L23 22L24 22L24 21L23 21L23 22L22 22L22 23L21 23L21 24L20 24L20 25L21 25L21 26L20 26L20 27L19 27L19 28L20 28L20 27L22 27L22 26L23 26L23 27L24 27L24 26L26 26L26 27L25 27L25 28L23 28L23 30L24 30L24 31L19 31L19 30L20 30L20 29L18 29L18 28L16 28L16 27L18 27L18 26L14 26L14 25L15 25L15 24L14 24L14 23L13 23L13 22L14 22L14 21L12 21L12 20L14 20L14 19L12 19L12 16L13 16L13 17L14 17L14 18L15 18L15 17L14 17L14 16L16 16L16 13L17 13L17 12L16 12L16 11L15 11L15 10ZM32 10L32 11L33 11L33 10ZM39 10L39 11L40 11L40 12L41 12L41 10ZM15 12L15 13L16 13L16 12ZM24 12L24 13L23 13L23 14L22 14L22 13L21 13L21 15L23 15L23 14L26 14L26 15L24 15L24 16L25 16L25 17L26 17L26 15L27 15L27 16L28 16L28 15L27 15L27 14L26 14L26 13L25 13L25 12ZM33 12L33 13L34 13L34 12ZM52 12L52 13L53 13L53 14L54 14L54 13L53 13L53 12ZM0 13L0 14L1 14L1 13ZM28 13L28 14L29 14L29 13ZM13 15L13 16L14 16L14 15ZM49 15L49 16L50 16L50 15ZM0 16L0 17L1 17L1 16ZM21 16L21 17L22 17L22 16ZM39 16L39 17L41 17L41 16ZM42 16L42 17L43 17L43 16ZM0 18L0 19L1 19L1 18ZM41 18L41 19L42 19L42 18ZM27 19L27 20L28 20L28 19ZM38 20L38 22L37 22L37 24L39 24L39 25L38 25L38 26L37 26L37 25L33 25L33 24L32 24L32 26L31 26L31 28L32 28L32 29L31 29L31 31L30 31L30 32L29 32L29 31L27 31L27 33L26 33L26 31L24 31L24 32L19 32L19 31L18 31L18 32L19 32L19 33L18 33L18 34L19 34L19 35L20 35L20 36L19 36L19 37L21 37L21 38L24 38L24 37L23 37L23 36L24 36L24 34L23 34L23 33L25 33L25 34L26 34L26 35L27 35L27 36L26 36L26 37L25 37L25 40L24 40L24 39L23 39L23 40L20 40L20 42L21 42L21 43L22 43L22 42L23 42L23 43L24 43L24 44L23 44L23 45L22 45L22 44L21 44L21 45L22 45L22 46L23 46L23 45L24 45L24 44L25 44L25 43L29 43L29 42L30 42L30 41L31 41L31 42L32 42L32 43L33 43L33 44L32 44L32 46L35 46L35 45L34 45L34 43L35 43L35 44L36 44L36 43L37 43L37 42L35 42L35 40L38 40L38 42L39 42L39 41L41 41L41 40L42 40L42 41L43 41L43 42L44 42L44 41L45 41L45 40L46 40L46 39L45 39L45 38L44 38L44 37L45 37L45 36L44 36L44 35L43 35L43 34L42 34L42 35L41 35L41 36L40 36L40 37L39 37L39 36L38 36L38 38L37 38L37 39L35 39L35 40L33 40L33 39L34 39L34 38L35 38L35 37L34 37L34 38L33 38L33 39L29 39L29 38L31 38L31 37L29 37L29 36L30 36L30 34L29 34L29 33L31 33L31 31L32 31L32 34L31 34L31 35L32 35L32 34L35 34L35 36L37 36L37 34L35 34L35 33L33 33L33 31L32 31L32 30L35 30L35 28L36 28L36 27L39 27L39 28L38 28L38 29L37 29L37 30L36 30L36 31L34 31L34 32L37 32L37 33L38 33L38 35L40 35L40 34L39 34L39 33L41 33L41 32L43 32L43 30L40 30L40 31L39 31L39 32L38 32L38 30L39 30L39 29L43 29L43 26L42 26L42 25L41 25L41 24L40 24L40 22L39 22L39 21L42 21L42 20ZM51 21L51 22L50 22L50 23L53 23L53 21ZM19 22L19 23L20 23L20 22ZM38 22L38 23L39 23L39 22ZM41 22L41 23L42 23L42 22ZM21 24L21 25L24 25L24 24ZM30 24L30 25L31 25L31 24ZM40 25L40 26L41 26L41 28L42 28L42 26L41 26L41 25ZM32 26L32 27L33 27L33 28L35 28L35 27L36 27L36 26L34 26L34 27L33 27L33 26ZM53 26L53 27L54 27L54 26ZM5 27L5 30L8 30L8 27ZM14 27L14 29L13 29L13 30L14 30L14 29L16 29L16 28L15 28L15 27ZM27 27L27 30L30 30L30 27ZM45 27L45 28L44 28L44 29L45 29L45 28L46 28L46 27ZM49 27L49 30L52 30L52 27ZM6 28L6 29L7 29L7 28ZM21 28L21 29L22 29L22 28ZM25 28L25 29L26 29L26 28ZM28 28L28 29L29 29L29 28ZM50 28L50 29L51 29L51 28ZM54 28L54 29L55 29L55 28ZM44 30L44 31L45 31L45 30ZM11 31L11 32L12 32L12 31ZM46 31L46 32L47 32L47 31ZM52 31L52 32L51 32L51 33L52 33L52 32L53 32L53 31ZM28 32L28 33L29 33L29 32ZM55 32L55 33L56 33L56 32ZM19 33L19 34L20 34L20 33ZM21 33L21 34L22 34L22 33ZM49 34L49 35L50 35L50 36L51 36L51 37L52 37L52 35L50 35L50 34ZM21 35L21 36L22 36L22 35ZM33 35L33 36L32 36L32 37L33 37L33 36L34 36L34 35ZM41 36L41 37L40 37L40 38L41 38L41 39L38 39L38 40L41 40L41 39L42 39L42 40L43 40L43 41L44 41L44 40L45 40L45 39L44 39L44 40L43 40L43 39L42 39L42 38L43 38L43 37L44 37L44 36ZM27 37L27 38L26 38L26 40L28 40L28 41L26 41L26 42L28 42L28 41L29 41L29 40L28 40L28 39L27 39L27 38L28 38L28 37ZM41 37L41 38L42 38L42 37ZM0 39L0 41L1 41L1 39ZM17 40L17 41L18 41L18 40ZM31 40L31 41L32 41L32 42L33 42L33 43L34 43L34 42L33 42L33 41L32 41L32 40ZM21 41L21 42L22 42L22 41ZM23 41L23 42L25 42L25 41ZM41 42L41 44L40 44L40 43L39 43L39 44L40 44L40 45L38 45L38 46L39 46L39 47L38 47L38 48L37 48L37 49L38 49L38 48L39 48L39 47L40 47L40 46L41 46L41 44L42 44L42 42ZM51 42L51 43L50 43L50 44L51 44L51 43L53 43L53 42ZM43 43L43 44L44 44L44 43ZM55 43L55 44L54 44L54 45L55 45L55 46L56 46L56 43ZM6 44L6 45L7 45L7 44ZM51 46L51 47L52 47L52 46ZM35 47L35 48L36 48L36 47ZM42 47L42 48L43 48L43 47ZM6 48L6 49L7 49L7 48ZM53 48L53 49L55 49L55 50L54 50L54 51L55 51L55 50L56 50L56 48ZM11 49L11 50L10 50L10 51L11 51L11 52L10 52L10 54L9 54L9 56L10 56L10 55L11 55L11 56L13 56L13 55L12 55L12 54L13 54L13 51L12 51L12 49ZM19 49L19 50L20 50L20 49ZM27 49L27 52L30 52L30 49ZM32 49L32 50L33 50L33 49ZM49 49L49 52L52 52L52 49ZM28 50L28 51L29 51L29 50ZM43 50L43 51L44 51L44 50ZM50 50L50 51L51 51L51 50ZM53 52L53 54L54 54L54 52ZM11 53L11 54L12 54L12 53ZM33 53L33 55L35 55L35 56L36 56L36 54L35 54L35 53ZM43 53L43 54L44 54L44 53ZM17 54L17 55L18 55L18 54ZM25 54L25 55L26 55L26 54ZM41 54L41 55L42 55L42 54ZM15 55L15 56L16 56L16 55ZM48 55L48 56L49 56L49 55ZM50 55L50 56L51 56L51 55ZM43 56L43 57L44 57L44 56ZM45 56L45 57L46 57L46 56ZM0 0L0 7L7 7L7 0ZM1 1L1 6L6 6L6 1ZM2 2L2 5L5 5L5 2ZM50 0L50 7L57 7L57 0ZM51 1L51 6L56 6L56 1ZM52 2L52 5L55 5L55 2ZM0 50L0 57L7 57L7 50ZM1 51L1 56L6 56L6 51ZM2 52L2 55L5 55L5 52Z" fill="#000000"/></g></g></svg>
