<?xml version="1.0" encoding="UTF-8"?>
<svg xmlns="http://www.w3.org/2000/svg" version="1.1" width="300" height="300" viewBox="0 0 300 300"><rect x="0" y="0" width="300" height="300" fill="#fefefe"/><g transform="scale(4.615)"><g transform="translate(4,4)"><path fill-rule="evenodd" d="M8 0L8 1L12 1L12 2L8 2L8 5L9 5L9 3L12 3L12 7L11 7L11 5L10 5L10 7L11 7L11 8L8 8L8 9L7 9L7 8L6 8L6 9L7 9L7 10L6 10L6 11L8 11L8 10L9 10L9 11L10 11L10 10L11 10L11 12L12 12L12 11L13 11L13 13L14 13L14 16L13 16L13 18L12 18L12 16L10 16L10 14L8 14L8 15L7 15L7 14L6 14L6 15L7 15L7 16L6 16L6 17L5 17L5 19L4 19L4 15L5 15L5 14L4 14L4 13L5 13L5 12L4 12L4 11L5 11L5 10L2 10L2 11L3 11L3 12L4 12L4 13L3 13L3 14L4 14L4 15L3 15L3 16L1 16L1 15L0 15L0 17L1 17L1 18L2 18L2 19L1 19L1 20L0 20L0 24L1 24L1 25L2 25L2 26L1 26L1 27L0 27L0 31L2 31L2 30L3 30L3 32L4 32L4 33L2 33L2 32L1 32L1 33L0 33L0 34L1 34L1 35L0 35L0 38L1 38L1 39L0 39L0 42L3 42L3 43L4 43L4 44L5 44L5 45L7 45L7 46L5 46L5 47L3 47L3 46L2 46L2 47L1 47L1 46L0 46L0 48L5 48L5 47L9 47L9 45L10 45L10 48L11 48L11 49L12 49L12 48L11 48L11 46L12 46L12 47L13 47L13 45L14 45L14 46L15 46L15 45L16 45L16 44L17 44L17 43L16 43L16 44L15 44L15 45L14 45L14 44L13 44L13 45L11 45L11 44L12 44L12 43L13 43L13 41L12 41L12 42L11 42L11 43L10 43L10 44L9 44L9 43L8 43L8 38L10 38L10 37L11 37L11 36L10 36L10 37L8 37L8 38L6 38L6 39L7 39L7 40L5 40L5 39L4 39L4 38L5 38L5 37L7 37L7 36L8 36L8 35L7 35L7 34L6 34L6 33L7 33L7 32L6 32L6 31L8 31L8 32L9 32L9 33L8 33L8 34L10 34L10 35L11 35L11 34L12 34L12 36L13 36L13 34L14 34L14 33L15 33L15 34L16 34L16 36L17 36L17 37L18 37L18 39L17 39L17 38L15 38L15 39L14 39L14 38L13 38L13 37L12 37L12 38L11 38L11 39L10 39L10 40L9 40L9 42L10 42L10 41L11 41L11 40L15 40L15 41L14 41L14 42L18 42L18 43L19 43L19 44L20 44L20 45L17 45L17 46L19 46L19 47L20 47L20 48L18 48L18 47L14 47L14 48L13 48L13 49L14 49L14 48L16 48L16 49L19 49L19 53L18 53L18 55L17 55L17 54L16 54L16 53L15 53L15 52L16 52L16 50L15 50L15 51L12 51L12 54L13 54L13 53L15 53L15 57L18 57L18 55L20 55L20 56L21 56L21 57L24 57L24 56L25 56L25 55L26 55L26 56L28 56L28 55L26 55L26 54L25 54L25 53L29 53L29 54L31 54L31 55L30 55L30 56L31 56L31 57L32 57L32 55L34 55L34 56L33 56L33 57L36 57L36 55L37 55L37 54L36 54L36 53L35 53L35 52L36 52L36 51L38 51L38 52L39 52L39 54L38 54L38 57L42 57L42 56L43 56L43 55L44 55L44 56L45 56L45 57L46 57L46 55L44 55L44 54L47 54L47 55L48 55L48 57L51 57L51 54L52 54L52 53L54 53L54 54L56 54L56 53L54 53L54 52L55 52L55 50L53 50L53 49L55 49L55 48L54 48L54 47L57 47L57 43L56 43L56 41L57 41L57 40L56 40L56 41L55 41L55 42L54 42L54 41L53 41L53 40L55 40L55 39L53 39L53 38L52 38L52 36L53 36L53 37L55 37L55 38L56 38L56 39L57 39L57 38L56 38L56 37L57 37L57 31L56 31L56 30L57 30L57 28L56 28L56 27L53 27L53 25L52 25L52 26L51 26L51 24L54 24L54 25L55 25L55 26L56 26L56 24L54 24L54 23L53 23L53 22L54 22L54 21L56 21L56 22L55 22L55 23L57 23L57 21L56 21L56 20L57 20L57 19L56 19L56 18L57 18L57 15L55 15L55 14L54 14L54 10L53 10L53 9L55 9L55 8L52 8L52 10L51 10L51 11L49 11L49 16L50 16L50 17L51 17L51 18L52 18L52 19L56 19L56 20L54 20L54 21L53 21L53 20L50 20L50 18L48 18L48 14L47 14L47 15L46 15L46 16L47 16L47 17L45 17L45 16L44 16L44 15L45 15L45 14L46 14L46 13L45 13L45 14L42 14L42 17L41 17L41 18L39 18L39 19L40 19L40 20L38 20L38 19L36 19L36 20L35 20L35 19L34 19L34 20L33 20L33 21L34 21L34 20L35 20L35 22L38 22L38 23L37 23L37 24L36 24L36 23L35 23L35 24L33 24L33 23L34 23L34 22L32 22L32 23L31 23L31 24L29 24L29 26L28 26L28 25L25 25L25 22L29 22L29 23L30 23L30 22L31 22L31 21L29 21L29 20L27 20L27 18L26 18L26 17L29 17L29 18L28 18L28 19L30 19L30 17L29 17L29 16L32 16L32 18L35 18L35 17L34 17L34 16L35 16L35 15L33 15L33 14L34 14L34 12L35 12L35 14L36 14L36 15L39 15L39 17L40 17L40 16L41 16L41 14L40 14L40 13L39 13L39 12L40 12L40 9L41 9L41 11L42 11L42 12L43 12L43 13L44 13L44 9L41 9L41 8L40 8L40 7L41 7L41 4L43 4L43 5L46 5L46 8L45 8L45 6L44 6L44 7L43 7L43 6L42 6L42 7L43 7L43 8L45 8L45 11L47 11L47 12L48 12L48 10L50 10L50 8L48 8L48 9L47 9L47 5L48 5L48 0L45 0L45 1L44 1L44 2L41 2L41 1L43 1L43 0L41 0L41 1L40 1L40 0L39 0L39 1L40 1L40 2L41 2L41 4L38 4L38 3L39 3L39 2L37 2L37 1L38 1L38 0L37 0L37 1L36 1L36 0L35 0L35 1L34 1L34 2L33 2L33 1L32 1L32 0L29 0L29 4L28 4L28 1L27 1L27 4L26 4L26 1L25 1L25 0L23 0L23 1L22 1L22 0L21 0L21 2L20 2L20 0L18 0L18 2L17 2L17 1L15 1L15 2L16 2L16 3L17 3L17 5L15 5L15 4L14 4L14 3L12 3L12 2L13 2L13 1L14 1L14 0L13 0L13 1L12 1L12 0ZM23 1L23 2L21 2L21 3L20 3L20 2L18 2L18 3L19 3L19 4L18 4L18 5L17 5L17 7L16 7L16 6L15 6L15 5L14 5L14 4L13 4L13 5L14 5L14 6L13 6L13 7L12 7L12 10L14 10L14 11L15 11L15 8L16 8L16 11L17 11L17 10L18 10L18 12L17 12L17 13L16 13L16 12L15 12L15 15L16 15L16 17L17 17L17 18L13 18L13 19L12 19L12 18L11 18L11 17L10 17L10 16L8 16L8 18L9 18L9 19L10 19L10 20L13 20L13 19L15 19L15 20L14 20L14 22L15 22L15 23L16 23L16 26L15 26L15 25L13 25L13 24L12 24L12 23L11 23L11 24L12 24L12 25L10 25L10 24L8 24L8 23L5 23L5 24L8 24L8 25L6 25L6 26L8 26L8 25L10 25L10 26L12 26L12 25L13 25L13 26L14 26L14 27L13 27L13 28L12 28L12 27L11 27L11 28L12 28L12 29L10 29L10 30L11 30L11 32L10 32L10 31L9 31L9 32L10 32L10 33L11 33L11 32L12 32L12 34L13 34L13 31L15 31L15 32L16 32L16 34L17 34L17 36L19 36L19 37L20 37L20 38L21 38L21 39L23 39L23 40L22 40L22 41L23 41L23 40L24 40L24 39L25 39L25 41L24 41L24 42L23 42L23 43L24 43L24 45L25 45L25 47L24 47L24 49L23 49L23 48L20 48L20 49L21 49L21 50L20 50L20 51L21 51L21 50L22 50L22 49L23 49L23 51L22 51L22 53L20 53L20 55L21 55L21 56L22 56L22 55L21 55L21 54L23 54L23 56L24 56L24 55L25 55L25 54L23 54L23 52L24 52L24 53L25 53L25 52L26 52L26 51L24 51L24 50L26 50L26 48L28 48L28 46L29 46L29 47L30 47L30 48L31 48L31 49L33 49L33 50L32 50L32 51L31 51L31 53L32 53L32 51L33 51L33 52L35 52L35 49L34 49L34 48L32 48L32 47L34 47L34 46L35 46L35 48L37 48L37 49L36 49L36 50L37 50L37 49L38 49L38 48L39 48L39 49L40 49L40 50L39 50L39 52L40 52L40 54L41 54L41 55L40 55L40 56L41 56L41 55L42 55L42 54L43 54L43 51L44 51L44 50L43 50L43 47L39 47L39 45L38 45L38 44L39 44L39 43L41 43L41 42L40 42L40 41L42 41L42 42L43 42L43 41L42 41L42 40L41 40L41 39L40 39L40 41L37 41L37 40L38 40L38 39L39 39L39 38L37 38L37 37L35 37L35 36L36 36L36 35L35 35L35 31L33 31L33 30L32 30L32 29L31 29L31 30L32 30L32 31L31 31L31 33L32 33L32 34L30 34L30 35L29 35L29 33L30 33L30 31L28 31L28 33L27 33L27 31L25 31L25 30L26 30L26 28L25 28L25 27L24 27L24 26L25 26L25 25L23 25L23 24L21 24L21 23L20 23L20 24L21 24L21 25L23 25L23 27L22 27L22 26L21 26L21 29L20 29L20 25L18 25L18 26L19 26L19 27L16 27L16 26L17 26L17 23L18 23L18 24L19 24L19 23L18 23L18 22L21 22L21 20L23 20L23 21L24 21L24 22L25 22L25 19L24 19L24 18L25 18L25 17L24 17L24 18L23 18L23 16L24 16L24 15L26 15L26 16L27 16L27 14L26 14L26 12L28 12L28 13L30 13L30 14L31 14L31 12L32 12L32 13L33 13L33 10L34 10L34 11L35 11L35 12L36 12L36 11L37 11L37 12L38 12L38 11L39 11L39 9L38 9L38 10L37 10L37 8L39 8L39 7L40 7L40 5L38 5L38 6L37 6L37 5L36 5L36 4L35 4L35 2L36 2L36 1L35 1L35 2L34 2L34 5L33 5L33 3L32 3L32 4L31 4L31 2L32 2L32 1L31 1L31 2L30 2L30 4L31 4L31 5L32 5L32 6L31 6L31 9L32 9L32 10L29 10L29 9L28 9L28 10L29 10L29 11L27 11L27 10L26 10L26 11L25 11L25 12L24 12L24 11L21 11L21 10L23 10L23 9L21 9L21 7L22 7L22 6L21 6L21 7L20 7L20 6L19 6L19 7L20 7L20 8L18 8L18 9L17 9L17 7L18 7L18 5L19 5L19 4L20 4L20 5L21 5L21 4L23 4L23 3L24 3L24 2L25 2L25 1ZM45 1L45 3L44 3L44 4L46 4L46 5L47 5L47 3L46 3L46 2L47 2L47 1ZM24 4L24 6L23 6L23 7L24 7L24 9L26 9L26 6L25 6L25 5L26 5L26 4ZM27 5L27 8L30 8L30 5ZM8 6L8 7L9 7L9 6ZM14 6L14 7L13 7L13 8L14 8L14 7L15 7L15 6ZM24 6L24 7L25 7L25 6ZM28 6L28 7L29 7L29 6ZM32 6L32 8L33 8L33 6ZM34 6L34 9L36 9L36 8L37 8L37 6L36 6L36 7L35 7L35 6ZM38 6L38 7L39 7L39 6ZM48 6L48 7L49 7L49 6ZM0 8L0 11L1 11L1 9L4 9L4 8ZM56 8L56 9L57 9L57 8ZM9 9L9 10L10 10L10 9ZM19 9L19 10L20 10L20 9ZM46 9L46 10L47 10L47 9ZM35 10L35 11L36 11L36 10ZM42 10L42 11L43 11L43 10ZM52 10L52 11L51 11L51 12L50 12L50 13L51 13L51 15L50 15L50 16L52 16L52 18L54 18L54 17L55 17L55 18L56 18L56 17L55 17L55 16L54 16L54 17L53 17L53 14L52 14L52 13L53 13L53 10ZM55 10L55 12L56 12L56 13L57 13L57 10ZM19 11L19 12L18 12L18 13L19 13L19 15L18 15L18 14L16 14L16 15L18 15L18 16L20 16L20 17L21 17L21 19L22 19L22 17L21 17L21 15L20 15L20 14L21 14L21 13L19 13L19 12L20 12L20 11ZM30 11L30 12L31 12L31 11ZM0 12L0 14L2 14L2 13L1 13L1 12ZM6 12L6 13L7 13L7 12ZM22 12L22 13L23 13L23 12ZM51 12L51 13L52 13L52 12ZM11 14L11 15L13 15L13 14ZM23 14L23 15L24 15L24 14ZM28 15L28 16L29 16L29 15ZM6 17L6 18L7 18L7 17ZM18 17L18 18L17 18L17 19L16 19L16 23L17 23L17 22L18 22L18 21L17 21L17 19L20 19L20 18L19 18L19 17ZM36 17L36 18L37 18L37 17ZM42 17L42 18L41 18L41 21L44 21L44 22L45 22L45 23L44 23L44 25L46 25L46 26L49 26L49 25L47 25L47 24L46 24L46 22L47 22L47 23L48 23L48 22L47 22L47 21L49 21L49 23L52 23L52 22L51 22L51 21L50 21L50 20L49 20L49 19L48 19L48 18L47 18L47 21L46 21L46 20L45 20L45 19L44 19L44 18L45 18L45 17ZM10 18L10 19L11 19L11 18ZM42 18L42 19L43 19L43 18ZM2 19L2 20L1 20L1 21L2 21L2 22L1 22L1 24L2 24L2 25L4 25L4 26L3 26L3 29L4 29L4 26L5 26L5 25L4 25L4 21L3 21L3 20L4 20L4 19ZM6 19L6 20L5 20L5 21L6 21L6 22L8 22L8 21L6 21L6 20L8 20L8 19ZM31 19L31 20L32 20L32 19ZM26 20L26 21L27 21L27 20ZM36 20L36 21L37 21L37 20ZM11 21L11 22L13 22L13 21ZM38 21L38 22L39 22L39 21ZM2 22L2 23L3 23L3 22ZM9 22L9 23L10 23L10 22ZM22 22L22 23L23 23L23 22ZM42 22L42 23L40 23L40 26L38 26L38 27L39 27L39 28L40 28L40 29L38 29L38 30L36 30L36 29L37 29L37 27L36 27L36 28L34 28L34 29L35 29L35 30L36 30L36 31L37 31L37 32L36 32L36 33L37 33L37 32L38 32L38 34L39 34L39 31L38 31L38 30L41 30L41 31L40 31L40 32L41 32L41 31L44 31L44 33L45 33L45 36L44 36L44 37L41 37L41 35L42 35L42 34L41 34L41 35L37 35L37 36L40 36L40 37L41 37L41 38L44 38L44 39L43 39L43 40L44 40L44 39L46 39L46 38L48 38L48 39L47 39L47 40L50 40L50 41L47 41L47 42L46 42L46 43L47 43L47 42L48 42L48 43L49 43L49 44L45 44L45 43L42 43L42 45L43 45L43 46L45 46L45 47L46 47L46 46L47 46L47 45L49 45L49 44L50 44L50 45L51 45L51 48L52 48L52 46L53 46L53 47L54 47L54 46L56 46L56 44L55 44L55 43L54 43L54 42L53 42L53 43L52 43L52 44L55 44L55 45L51 45L51 42L50 42L50 41L52 41L52 38L51 38L51 36L52 36L52 35L51 35L51 36L50 36L50 37L49 37L49 36L48 36L48 35L46 35L46 34L50 34L50 33L49 33L49 32L48 32L48 30L47 30L47 32L46 32L46 31L44 31L44 29L42 29L42 30L41 30L41 26L43 26L43 25L41 25L41 24L43 24L43 22ZM26 23L26 24L27 24L27 23ZM32 24L32 25L33 25L33 24ZM38 24L38 25L39 25L39 24ZM30 25L30 26L31 26L31 25ZM34 25L34 27L35 27L35 25ZM5 27L5 30L8 30L8 27ZM14 27L14 28L13 28L13 29L12 29L12 31L13 31L13 29L14 29L14 30L15 30L15 31L16 31L16 32L17 32L17 33L18 33L18 34L20 34L20 33L21 33L21 35L24 35L24 34L25 34L25 31L22 31L22 32L21 32L21 31L19 31L19 30L17 30L17 28L15 28L15 27ZM27 27L27 30L30 30L30 27ZM32 27L32 28L33 28L33 27ZM42 27L42 28L43 28L43 27ZM45 27L45 30L46 30L46 27ZM47 27L47 28L48 28L48 27ZM49 27L49 30L52 30L52 27ZM6 28L6 29L7 29L7 28ZM18 28L18 29L19 29L19 28ZM28 28L28 29L29 29L29 28ZM50 28L50 29L51 29L51 28ZM53 28L53 29L54 29L54 28ZM1 29L1 30L2 30L2 29ZM15 29L15 30L16 30L16 29ZM21 29L21 30L24 30L24 29ZM55 29L55 30L53 30L53 31L50 31L50 32L52 32L52 34L54 34L54 32L55 32L55 30L56 30L56 29ZM4 31L4 32L5 32L5 31ZM18 31L18 33L19 33L19 31ZM23 32L23 33L22 33L22 34L23 34L23 33L24 33L24 32ZM42 32L42 33L43 33L43 32ZM45 32L45 33L46 33L46 32ZM4 33L4 34L5 34L5 35L3 35L3 34L2 34L2 35L1 35L1 37L2 37L2 39L1 39L1 40L2 40L2 41L3 41L3 42L7 42L7 41L5 41L5 40L3 40L3 37L4 37L4 36L7 36L7 35L6 35L6 34L5 34L5 33ZM27 34L27 35L26 35L26 36L23 36L23 39L24 39L24 37L26 37L26 38L25 38L25 39L26 39L26 41L25 41L25 42L27 42L27 41L28 41L28 42L29 42L29 43L28 43L28 44L27 44L27 45L26 45L26 43L25 43L25 45L26 45L26 46L27 46L27 45L29 45L29 46L31 46L31 47L32 47L32 45L29 45L29 43L31 43L31 44L32 44L32 42L33 42L33 45L34 45L34 44L35 44L35 45L36 45L36 47L38 47L38 45L36 45L36 43L34 43L34 42L36 42L36 41L34 41L34 40L35 40L35 39L36 39L36 38L34 38L34 37L33 37L33 38L32 38L32 36L33 36L33 34L32 34L32 36L29 36L29 35L28 35L28 34ZM43 34L43 35L44 35L44 34ZM2 35L2 36L3 36L3 35ZM19 35L19 36L20 36L20 35ZM54 35L54 36L55 36L55 37L56 37L56 35ZM14 36L14 37L15 37L15 36ZM27 36L27 38L29 38L29 36ZM45 36L45 38L46 38L46 36ZM21 37L21 38L22 38L22 37ZM48 37L48 38L49 38L49 37ZM12 38L12 39L13 39L13 38ZM30 38L30 39L28 39L28 40L29 40L29 42L31 42L31 41L30 41L30 40L33 40L33 39L32 39L32 38ZM16 39L16 41L17 41L17 39ZM50 39L50 40L51 40L51 39ZM18 40L18 41L19 41L19 43L21 43L21 44L22 44L22 46L21 46L21 45L20 45L20 46L21 46L21 47L22 47L22 46L23 46L23 44L22 44L22 42L21 42L21 40ZM45 40L45 41L46 41L46 40ZM37 42L37 44L38 44L38 43L39 43L39 42ZM49 42L49 43L50 43L50 42ZM5 43L5 44L7 44L7 45L8 45L8 44L7 44L7 43ZM0 44L0 45L2 45L2 44ZM48 46L48 47L49 47L49 48L50 48L50 46ZM6 48L6 49L8 49L8 50L10 50L10 49L9 49L9 48ZM41 48L41 49L42 49L42 48ZM44 48L44 49L45 49L45 48ZM46 48L46 50L45 50L45 53L46 53L46 51L47 51L47 52L48 52L48 48ZM56 48L56 49L57 49L57 48ZM27 49L27 52L30 52L30 49ZM49 49L49 52L52 52L52 49ZM17 50L17 52L18 52L18 50ZM28 50L28 51L29 51L29 50ZM33 50L33 51L34 51L34 50ZM50 50L50 51L51 51L51 50ZM9 51L9 53L8 53L8 57L10 57L10 56L9 56L9 55L11 55L11 57L12 57L12 56L13 56L13 57L14 57L14 55L11 55L11 51ZM40 51L40 52L41 52L41 51ZM56 51L56 52L57 52L57 51ZM41 53L41 54L42 54L42 53ZM47 53L47 54L50 54L50 53ZM34 54L34 55L36 55L36 54ZM56 55L56 56L57 56L57 55ZM52 56L52 57L53 57L53 56ZM54 56L54 57L55 57L55 56ZM0 0L0 7L7 7L7 0ZM1 1L1 6L6 6L6 1ZM2 2L2 5L5 5L5 2ZM50 0L50 7L57 7L57 0ZM51 1L51 6L56 6L56 1ZM52 2L52 5L55 5L55 2ZM0 50L0 57L7 57L7 50ZM1 51L1 56L6 56L6 51ZM2 52L2 55L5 55L5 52Z" fill="#000000"/></g></g></svg>
