<?xml version="1.0" encoding="UTF-8"?>
<svg xmlns="http://www.w3.org/2000/svg" version="1.1" width="300" height="300" viewBox="0 0 300 300"><rect x="0" y="0" width="300" height="300" fill="#fefefe"/><g transform="scale(4.615)"><g transform="translate(4,4)"><path fill-rule="evenodd" d="M8 0L8 2L9 2L9 3L11 3L11 4L10 4L10 7L9 7L9 4L8 4L8 9L7 9L7 8L5 8L5 9L4 9L4 10L3 10L3 11L2 11L2 9L3 9L3 8L0 8L0 9L1 9L1 10L0 10L0 12L3 12L3 11L4 11L4 13L3 13L3 14L2 14L2 13L0 13L0 14L2 14L2 18L1 18L1 17L0 17L0 18L1 18L1 19L0 19L0 20L1 20L1 21L0 21L0 22L1 22L1 21L2 21L2 22L3 22L3 23L4 23L4 22L5 22L5 24L3 24L3 25L1 25L1 24L2 24L2 23L0 23L0 26L2 26L2 27L1 27L1 29L0 29L0 30L1 30L1 31L0 31L0 32L1 32L1 33L0 33L0 34L1 34L1 36L0 36L0 37L1 37L1 38L2 38L2 40L1 40L1 39L0 39L0 40L1 40L1 43L3 43L3 42L2 42L2 41L3 41L3 39L4 39L4 41L5 41L5 42L4 42L4 45L1 45L1 44L0 44L0 48L5 48L5 47L7 47L7 48L6 48L6 49L8 49L8 50L11 50L11 51L12 51L12 52L11 52L11 53L12 53L12 54L11 54L11 55L10 55L10 52L9 52L9 51L8 51L8 52L9 52L9 54L8 54L8 57L9 57L9 55L10 55L10 56L11 56L11 57L14 57L14 56L15 56L15 57L17 57L17 55L18 55L18 53L19 53L19 51L20 51L20 53L21 53L21 51L20 51L20 49L21 49L21 48L22 48L22 51L24 51L24 52L22 52L22 53L23 53L23 55L21 55L21 54L20 54L20 55L21 55L21 56L18 56L18 57L21 57L21 56L22 56L22 57L23 57L23 56L24 56L24 57L25 57L25 55L26 55L26 57L28 57L28 55L29 55L29 57L33 57L33 55L30 55L30 54L31 54L31 53L32 53L32 54L34 54L34 57L35 57L35 55L37 55L37 54L36 54L36 53L37 53L37 52L38 52L38 53L39 53L39 55L40 55L40 54L42 54L42 55L41 55L41 56L40 56L40 57L41 57L41 56L43 56L43 54L42 54L42 52L41 52L41 51L43 51L43 52L44 52L44 55L45 55L45 56L44 56L44 57L45 57L45 56L46 56L46 55L45 55L45 52L46 52L46 53L49 53L49 54L48 54L48 55L47 55L47 57L48 57L48 56L49 56L49 57L50 57L50 55L49 55L49 54L52 54L52 55L53 55L53 56L51 56L51 57L54 57L54 54L55 54L55 55L57 55L57 54L55 54L55 52L54 52L54 51L53 51L53 50L54 50L54 49L56 49L56 51L57 51L57 49L56 49L56 47L57 47L57 44L56 44L56 47L55 47L55 48L54 48L54 46L55 46L55 45L54 45L54 46L53 46L53 48L51 48L51 47L52 47L52 46L50 46L50 45L51 45L51 44L52 44L52 40L54 40L54 41L53 41L53 44L54 44L54 43L55 43L55 42L56 42L56 43L57 43L57 42L56 42L56 41L57 41L57 40L54 40L54 39L53 39L53 38L54 38L54 37L55 37L55 38L57 38L57 37L55 37L55 36L54 36L54 34L53 34L53 36L52 36L52 37L50 37L50 40L51 40L51 41L49 41L49 42L50 42L50 44L49 44L49 43L48 43L48 44L47 44L47 42L46 42L46 41L45 41L45 40L47 40L47 41L48 41L48 40L49 40L49 35L48 35L48 34L49 34L49 33L50 33L50 36L51 36L51 33L50 33L50 32L49 32L49 31L53 31L53 33L54 33L54 31L55 31L55 33L56 33L56 31L57 31L57 28L56 28L56 27L57 27L57 24L56 24L56 23L57 23L57 21L56 21L56 20L57 20L57 18L56 18L56 17L57 17L57 12L56 12L56 11L57 11L57 10L56 10L56 11L55 11L55 9L57 9L57 8L55 8L55 9L54 9L54 10L53 10L53 8L48 8L48 7L49 7L49 6L48 6L48 7L47 7L47 5L48 5L48 0L42 0L42 1L41 1L41 0L38 0L38 2L39 2L39 4L38 4L38 5L37 5L37 6L36 6L36 10L34 10L34 9L35 9L35 4L36 4L36 3L35 3L35 4L34 4L34 8L32 8L32 9L31 9L31 5L32 5L32 1L33 1L33 0L32 0L32 1L31 1L31 0L30 0L30 1L28 1L28 0L26 0L26 2L25 2L25 4L24 4L24 1L25 1L25 0L24 0L24 1L23 1L23 0L20 0L20 1L19 1L19 0L18 0L18 1L17 1L17 0L16 0L16 1L15 1L15 0L14 0L14 3L12 3L12 0L11 0L11 1L10 1L10 0ZM34 0L34 2L37 2L37 1L35 1L35 0ZM9 1L9 2L10 2L10 1ZM21 1L21 3L18 3L18 2L17 2L17 3L16 3L16 4L17 4L17 5L16 5L16 6L15 6L15 5L13 5L13 4L11 4L11 8L12 8L12 9L11 9L11 10L12 10L12 9L14 9L14 10L13 10L13 11L9 11L9 10L8 10L8 12L7 12L7 11L6 11L6 10L7 10L7 9L5 9L5 10L4 10L4 11L6 11L6 12L7 12L7 13L6 13L6 14L5 14L5 13L4 13L4 14L3 14L3 15L4 15L4 16L5 16L5 15L6 15L6 16L7 16L7 17L4 17L4 18L2 18L2 21L3 21L3 22L4 22L4 20L7 20L7 21L6 21L6 22L8 22L8 24L7 24L7 23L6 23L6 24L5 24L5 25L4 25L4 26L7 26L7 25L9 25L9 22L10 22L10 24L11 24L11 25L10 25L10 26L9 26L9 27L10 27L10 28L9 28L9 30L10 30L10 33L9 33L9 34L8 34L8 31L5 31L5 33L4 33L4 30L3 30L3 29L2 29L2 30L3 30L3 33L2 33L2 38L3 38L3 37L4 37L4 38L5 38L5 36L7 36L7 35L6 35L6 34L8 34L8 38L7 38L7 37L6 37L6 38L7 38L7 39L6 39L6 40L5 40L5 41L6 41L6 42L7 42L7 41L6 41L6 40L8 40L8 42L9 42L9 40L10 40L10 39L12 39L12 42L11 42L11 43L12 43L12 42L14 42L14 41L16 41L16 43L17 43L17 42L18 42L18 40L19 40L19 41L20 41L20 42L19 42L19 43L18 43L18 44L19 44L19 43L20 43L20 44L21 44L21 45L20 45L20 46L19 46L19 45L18 45L18 46L17 46L17 45L16 45L16 44L15 44L15 45L14 45L14 48L15 48L15 49L16 49L16 50L15 50L15 51L14 51L14 52L13 52L13 53L14 53L14 54L12 54L12 55L14 55L14 54L15 54L15 51L16 51L16 52L17 52L17 53L18 53L18 52L17 52L17 51L16 51L16 50L18 50L18 48L19 48L19 47L20 47L20 48L21 48L21 46L22 46L22 48L23 48L23 49L24 49L24 51L25 51L25 54L24 54L24 55L25 55L25 54L27 54L27 55L28 55L28 53L26 53L26 51L25 51L25 48L24 48L24 47L25 47L25 46L26 46L26 48L27 48L27 47L28 47L28 48L29 48L29 47L30 47L30 48L31 48L31 49L32 49L32 48L31 48L31 47L30 47L30 46L31 46L31 45L30 45L30 42L31 42L31 43L32 43L32 40L33 40L33 41L34 41L34 42L35 42L35 41L36 41L36 43L35 43L35 44L33 44L33 45L32 45L32 47L33 47L33 48L34 48L34 52L35 52L35 53L34 53L34 54L35 54L35 53L36 53L36 52L35 52L35 51L37 51L37 49L36 49L36 48L37 48L37 47L38 47L38 52L39 52L39 53L40 53L40 52L39 52L39 49L40 49L40 51L41 51L41 49L42 49L42 50L44 50L44 47L43 47L43 46L44 46L44 44L45 44L45 43L46 43L46 42L45 42L45 41L44 41L44 42L43 42L43 41L42 41L42 40L43 40L43 38L44 38L44 35L43 35L43 33L42 33L42 31L44 31L44 30L46 30L46 32L47 32L47 30L48 30L48 26L49 26L49 25L48 25L48 26L47 26L47 25L46 25L46 26L47 26L47 28L46 28L46 29L44 29L44 30L43 30L43 28L42 28L42 31L40 31L40 30L41 30L41 29L40 29L40 26L41 26L41 27L44 27L44 26L45 26L45 25L44 25L44 24L46 24L46 23L47 23L47 19L45 19L45 17L44 17L44 16L46 16L46 18L47 18L47 17L48 17L48 18L49 18L49 17L48 17L48 16L46 16L46 15L48 15L48 14L49 14L49 13L50 13L50 16L51 16L51 17L50 17L50 18L51 18L51 17L52 17L52 19L51 19L51 20L49 20L49 19L48 19L48 20L49 20L49 21L48 21L48 23L49 23L49 22L50 22L50 24L51 24L51 25L50 25L50 26L51 26L51 25L52 25L52 24L53 24L53 25L54 25L54 26L55 26L55 25L56 25L56 24L55 24L55 23L56 23L56 21L55 21L55 20L56 20L56 18L55 18L55 19L54 19L54 17L56 17L56 16L55 16L55 15L56 15L56 12L55 12L55 11L54 11L54 12L53 12L53 14L52 14L52 13L50 13L50 11L49 11L49 12L48 12L48 11L47 11L47 7L46 7L46 6L45 6L45 5L44 5L44 4L45 4L45 2L47 2L47 1L42 1L42 4L41 4L41 2L40 2L40 1L39 1L39 2L40 2L40 4L39 4L39 5L38 5L38 6L37 6L37 7L38 7L38 6L39 6L39 8L38 8L38 10L37 10L37 11L39 11L39 12L37 12L37 13L36 13L36 11L34 11L34 10L33 10L33 9L32 9L32 11L31 11L31 9L30 9L30 11L29 11L29 10L28 10L28 9L27 9L27 10L25 10L25 9L26 9L26 5L24 5L24 6L23 6L23 9L22 9L22 5L23 5L23 3L22 3L22 2L23 2L23 1ZM27 1L27 2L28 2L28 4L30 4L30 3L31 3L31 2L30 2L30 3L29 3L29 2L28 2L28 1ZM43 2L43 4L42 4L42 7L41 7L41 6L40 6L40 7L41 7L41 8L40 8L40 9L39 9L39 11L40 11L40 13L41 13L41 15L40 15L40 14L39 14L39 15L40 15L40 18L38 18L38 16L37 16L37 15L38 15L38 13L37 13L37 14L36 14L36 18L34 18L34 17L35 17L35 15L34 15L34 13L35 13L35 12L34 12L34 11L32 11L32 13L31 13L31 14L32 14L32 13L33 13L33 15L34 15L34 17L33 17L33 16L32 16L32 15L31 15L31 16L30 16L30 15L29 15L29 13L30 13L30 12L31 12L31 11L30 11L30 12L29 12L29 11L28 11L28 12L27 12L27 13L26 13L26 11L24 11L24 9L23 9L23 11L22 11L22 12L25 12L25 13L26 13L26 15L25 15L25 14L24 14L24 15L23 15L23 16L22 16L22 14L20 14L20 13L21 13L21 12L18 12L18 11L21 11L21 10L22 10L22 9L21 9L21 5L22 5L22 3L21 3L21 5L20 5L20 7L19 7L19 4L18 4L18 3L17 3L17 4L18 4L18 5L17 5L17 6L16 6L16 7L17 7L17 6L18 6L18 9L17 9L17 10L16 10L16 12L17 12L17 14L15 14L15 15L14 15L14 14L11 14L11 13L13 13L13 12L9 12L9 13L8 13L8 14L9 14L9 13L10 13L10 14L11 14L11 15L7 15L7 14L6 14L6 15L7 15L7 16L8 16L8 17L9 17L9 16L11 16L11 17L10 17L10 18L9 18L9 19L8 19L8 18L6 18L6 19L8 19L8 20L10 20L10 21L11 21L11 24L12 24L12 29L10 29L10 30L11 30L11 33L13 33L13 35L15 35L15 36L16 36L16 37L17 37L17 36L16 36L16 31L18 31L18 33L17 33L17 35L18 35L18 37L19 37L19 40L20 40L20 41L21 41L21 40L22 40L22 41L23 41L23 43L22 43L22 44L23 44L23 43L24 43L24 40L22 40L22 37L23 37L23 35L25 35L25 36L24 36L24 37L26 37L26 40L25 40L25 41L26 41L26 42L25 42L25 45L26 45L26 46L28 46L28 47L29 47L29 46L30 46L30 45L29 45L29 46L28 46L28 44L29 44L29 42L28 42L28 41L27 41L27 37L26 37L26 35L25 35L25 34L24 34L24 31L25 31L25 30L26 30L26 32L25 32L25 33L26 33L26 34L28 34L28 35L27 35L27 36L28 36L28 37L29 37L29 36L28 36L28 35L31 35L31 36L30 36L30 41L31 41L31 38L34 38L34 41L35 41L35 38L36 38L36 41L37 41L37 42L38 42L38 41L39 41L39 42L40 42L40 43L37 43L37 44L36 44L36 45L35 45L35 46L36 46L36 47L37 47L37 46L38 46L38 45L37 45L37 44L40 44L40 45L39 45L39 47L40 47L40 49L41 49L41 47L42 47L42 45L43 45L43 44L44 44L44 43L45 43L45 42L44 42L44 43L43 43L43 42L42 42L42 41L41 41L41 40L40 40L40 41L39 41L39 38L40 38L40 39L41 39L41 36L42 36L42 37L43 37L43 35L40 35L40 36L39 36L39 34L38 34L38 33L39 33L39 32L40 32L40 34L42 34L42 33L41 33L41 32L40 32L40 31L38 31L38 30L37 30L37 28L38 28L38 29L39 29L39 26L40 26L40 25L41 25L41 24L42 24L42 25L43 25L43 26L44 26L44 25L43 25L43 24L42 24L42 23L43 23L43 22L44 22L44 23L46 23L46 20L45 20L45 19L44 19L44 17L43 17L43 18L42 18L42 17L41 17L41 15L42 15L42 12L44 12L44 13L43 13L43 16L44 16L44 15L46 15L46 13L47 13L47 14L48 14L48 12L47 12L47 11L46 11L46 7L45 7L45 6L44 6L44 5L43 5L43 4L44 4L44 2ZM14 3L14 4L15 4L15 3ZM26 3L26 4L27 4L27 3ZM46 3L46 5L47 5L47 3ZM12 5L12 7L13 7L13 8L14 8L14 9L15 9L15 8L14 8L14 7L15 7L15 6L14 6L14 7L13 7L13 5ZM27 5L27 8L30 8L30 5ZM24 6L24 7L25 7L25 6ZM28 6L28 7L29 7L29 6ZM32 6L32 7L33 7L33 6ZM43 6L43 7L42 7L42 8L41 8L41 9L42 9L42 10L43 10L43 11L44 11L44 12L45 12L45 13L46 13L46 11L45 11L45 10L44 10L44 8L45 8L45 7L44 7L44 6ZM43 7L43 8L44 8L44 7ZM18 9L18 10L19 10L19 9ZM20 9L20 10L21 10L21 9ZM48 9L48 10L49 10L49 9ZM50 9L50 10L52 10L52 11L51 11L51 12L52 12L52 11L53 11L53 10L52 10L52 9ZM14 11L14 12L15 12L15 11ZM41 11L41 12L42 12L42 11ZM18 13L18 14L17 14L17 15L15 15L15 17L14 17L14 15L13 15L13 16L12 16L12 15L11 15L11 16L12 16L12 18L13 18L13 17L14 17L14 18L17 18L17 17L18 17L18 19L17 19L17 21L18 21L18 22L16 22L16 23L17 23L17 25L16 25L16 24L15 24L15 21L14 21L14 22L13 22L13 21L12 21L12 19L10 19L10 20L11 20L11 21L12 21L12 22L13 22L13 23L14 23L14 24L13 24L13 25L14 25L14 24L15 24L15 25L16 25L16 27L15 27L15 28L14 28L14 27L13 27L13 29L12 29L12 30L14 30L14 34L15 34L15 30L19 30L19 28L21 28L21 27L20 27L20 26L21 26L21 25L22 25L22 24L23 24L23 22L22 22L22 24L21 24L21 23L20 23L20 22L21 22L21 21L22 21L22 20L21 20L21 21L20 21L20 18L21 18L21 17L20 17L20 16L21 16L21 15L20 15L20 16L19 16L19 17L18 17L18 16L17 16L17 15L18 15L18 14L19 14L19 13ZM4 14L4 15L5 15L5 14ZM27 14L27 15L26 15L26 17L25 17L25 15L24 15L24 18L26 18L26 20L27 20L27 22L26 22L26 23L27 23L27 25L26 25L26 26L28 26L28 24L29 24L29 26L31 26L31 25L32 25L32 27L31 27L31 31L32 31L32 32L30 32L30 34L31 34L31 35L32 35L32 32L33 32L33 33L34 33L34 35L35 35L35 36L34 36L34 38L35 38L35 37L36 37L36 38L37 38L37 41L38 41L38 38L39 38L39 36L38 36L38 34L37 34L37 33L36 33L36 31L37 31L37 32L38 32L38 31L37 31L37 30L35 30L35 29L36 29L36 28L37 28L37 26L36 26L36 24L37 24L37 25L38 25L38 26L39 26L39 25L38 25L38 23L41 23L41 22L40 22L40 19L41 19L41 18L40 18L40 19L39 19L39 21L38 21L38 19L37 19L37 18L36 18L36 19L37 19L37 21L36 21L36 20L35 20L35 21L34 21L34 20L33 20L33 21L32 21L32 20L31 20L31 21L30 21L30 22L28 22L28 20L30 20L30 19L31 19L31 17L32 17L32 19L34 19L34 18L33 18L33 17L32 17L32 16L31 16L31 17L30 17L30 16L29 16L29 15L28 15L28 14ZM51 14L51 16L52 16L52 17L54 17L54 14L53 14L53 16L52 16L52 14ZM0 15L0 16L1 16L1 15ZM19 17L19 18L20 18L20 17ZM26 17L26 18L27 18L27 17ZM28 17L28 18L30 18L30 17ZM4 18L4 19L5 19L5 18ZM22 18L22 19L23 19L23 18ZM14 19L14 20L15 20L15 19ZM24 19L24 20L25 20L25 19ZM43 19L43 21L42 21L42 20L41 20L41 21L42 21L42 22L43 22L43 21L44 21L44 22L45 22L45 21L44 21L44 19ZM53 19L53 20L52 20L52 22L51 22L51 24L52 24L52 22L54 22L54 23L53 23L53 24L54 24L54 25L55 25L55 24L54 24L54 23L55 23L55 21L54 21L54 19ZM18 20L18 21L19 21L19 20ZM8 21L8 22L9 22L9 21ZM33 21L33 22L30 22L30 23L29 23L29 24L30 24L30 23L32 23L32 25L33 25L33 26L34 26L34 24L36 24L36 23L38 23L38 21L37 21L37 22L36 22L36 21L35 21L35 22L34 22L34 21ZM18 22L18 23L19 23L19 22ZM24 22L24 23L25 23L25 22ZM27 22L27 23L28 23L28 22ZM35 22L35 23L36 23L36 22ZM33 23L33 24L34 24L34 23ZM6 24L6 25L7 25L7 24ZM18 24L18 26L19 26L19 24ZM24 25L24 26L25 26L25 25ZM2 27L2 28L3 28L3 27ZM5 27L5 30L8 30L8 27ZM16 27L16 28L17 28L17 27ZM18 27L18 28L19 28L19 27ZM22 27L22 28L23 28L23 29L22 29L22 30L21 30L21 29L20 29L20 32L19 32L19 33L18 33L18 34L19 34L19 35L20 35L20 36L21 36L21 37L22 37L22 35L23 35L23 33L22 33L22 30L23 30L23 29L24 29L24 30L25 30L25 29L24 29L24 28L23 28L23 27ZM27 27L27 30L30 30L30 27ZM34 27L34 29L33 29L33 28L32 28L32 29L33 29L33 30L32 30L32 31L34 31L34 29L35 29L35 27ZM49 27L49 30L52 30L52 27ZM54 27L54 28L53 28L53 31L54 31L54 30L55 30L55 31L56 31L56 30L55 30L55 29L56 29L56 28L55 28L55 27ZM6 28L6 29L7 29L7 28ZM28 28L28 29L29 29L29 28ZM50 28L50 29L51 29L51 28ZM14 29L14 30L15 30L15 29ZM1 31L1 32L2 32L2 31ZM6 32L6 33L5 33L5 34L6 34L6 33L7 33L7 32ZM26 32L26 33L28 33L28 34L29 34L29 32ZM3 33L3 34L4 34L4 33ZM19 33L19 34L20 34L20 35L22 35L22 34L20 34L20 33ZM35 33L35 35L36 35L36 37L37 37L37 38L38 38L38 36L37 36L37 35L36 35L36 33ZM46 33L46 35L45 35L45 37L46 37L46 38L47 38L47 40L48 40L48 38L47 38L47 36L48 36L48 35L47 35L47 34L48 34L48 33ZM10 34L10 35L9 35L9 38L8 38L8 40L9 40L9 39L10 39L10 37L12 37L12 36L11 36L11 34ZM56 34L56 35L57 35L57 34ZM4 35L4 36L5 36L5 35ZM46 35L46 36L47 36L47 35ZM31 36L31 37L32 37L32 36ZM53 36L53 37L52 37L52 38L51 38L51 40L52 40L52 38L53 38L53 37L54 37L54 36ZM13 37L13 38L12 38L12 39L14 39L14 40L15 40L15 39L14 39L14 37ZM16 38L16 39L18 39L18 38ZM20 38L20 39L21 39L21 38ZM24 38L24 39L25 39L25 38ZM28 38L28 39L29 39L29 38ZM54 41L54 42L55 42L55 41ZM27 42L27 44L28 44L28 42ZM5 43L5 46L3 46L3 47L5 47L5 46L7 46L7 47L8 47L8 49L9 49L9 47L11 47L11 46L12 46L12 47L13 47L13 46L12 46L12 45L11 45L11 44L10 44L10 46L7 46L7 45L6 45L6 44L8 44L8 45L9 45L9 43ZM40 43L40 44L41 44L41 45L40 45L40 47L41 47L41 45L42 45L42 44L43 44L43 43ZM46 44L46 47L45 47L45 51L47 51L47 52L48 52L48 51L47 51L47 44ZM15 45L15 46L16 46L16 47L17 47L17 48L16 48L16 49L17 49L17 48L18 48L18 47L19 47L19 46L18 46L18 47L17 47L17 46L16 46L16 45ZM33 45L33 47L34 47L34 48L35 48L35 47L34 47L34 45ZM36 45L36 46L37 46L37 45ZM1 46L1 47L2 47L2 46ZM23 46L23 47L24 47L24 46ZM49 46L49 47L50 47L50 46ZM10 48L10 49L11 49L11 48ZM53 48L53 49L54 49L54 48ZM12 49L12 50L13 50L13 49ZM27 49L27 52L30 52L30 49ZM49 49L49 52L52 52L52 49ZM28 50L28 51L29 51L29 50ZM32 50L32 51L31 51L31 52L32 52L32 51L33 51L33 50ZM50 50L50 51L51 51L51 50ZM56 52L56 53L57 53L57 52ZM53 53L53 54L54 54L54 53ZM16 54L16 55L17 55L17 54ZM36 56L36 57L37 57L37 56ZM56 56L56 57L57 57L57 56ZM0 0L0 7L7 7L7 0ZM1 1L1 6L6 6L6 1ZM2 2L2 5L5 5L5 2ZM50 0L50 7L57 7L57 0ZM51 1L51 6L56 6L56 1ZM52 2L52 5L55 5L55 2ZM0 50L0 57L7 57L7 50ZM1 51L1 56L6 56L6 51ZM2 52L2 55L5 55L5 52Z" fill="#000000"/></g></g></svg>
