<?xml version="1.0" encoding="UTF-8"?>
<svg xmlns="http://www.w3.org/2000/svg" version="1.1" width="300" height="300" viewBox="0 0 300 300"><rect x="0" y="0" width="300" height="300" fill="#fefefe"/><g transform="scale(4.615)"><g transform="translate(4,4)"><path fill-rule="evenodd" d="M8 0L8 1L9 1L9 2L8 2L8 5L9 5L9 4L10 4L10 2L11 2L11 1L10 1L10 0ZM12 0L12 2L13 2L13 0ZM14 0L14 1L15 1L15 2L16 2L16 3L17 3L17 4L19 4L19 5L18 5L18 7L17 7L17 5L15 5L15 4L14 4L14 3L13 3L13 4L14 4L14 5L13 5L13 6L12 6L12 3L11 3L11 5L10 5L10 7L9 7L9 6L8 6L8 7L9 7L9 8L8 8L8 10L11 10L11 11L7 11L7 10L5 10L5 11L3 11L3 13L2 13L2 12L1 12L1 13L2 13L2 14L1 14L1 16L0 16L0 19L1 19L1 20L4 20L4 22L3 22L3 21L1 21L1 23L0 23L0 24L1 24L1 25L0 25L0 26L1 26L1 28L2 28L2 29L1 29L1 30L0 30L0 33L1 33L1 31L2 31L2 32L3 32L3 31L5 31L5 34L4 34L4 33L3 33L3 37L1 37L1 36L2 36L2 35L0 35L0 41L2 41L2 42L0 42L0 43L2 43L2 42L3 42L3 41L4 41L4 44L3 44L3 46L2 46L2 45L0 45L0 48L5 48L5 47L7 47L7 48L6 48L6 49L8 49L8 50L9 50L9 53L8 53L8 57L11 57L11 56L12 56L12 57L14 57L14 55L15 55L15 57L18 57L18 56L19 56L19 55L20 55L20 56L21 56L21 57L23 57L23 54L25 54L25 53L29 53L29 54L31 54L31 55L30 55L30 56L31 56L31 57L32 57L32 55L33 55L33 54L36 54L36 55L34 55L34 56L33 56L33 57L36 57L36 55L38 55L38 57L41 57L41 54L42 54L42 57L43 57L43 55L44 55L44 56L45 56L45 57L47 57L47 55L48 55L48 56L49 56L49 57L51 57L51 54L52 54L52 53L54 53L54 52L55 52L55 54L56 54L56 53L57 53L57 52L56 52L56 51L55 51L55 50L53 50L53 48L54 48L54 49L55 49L55 48L54 48L54 47L53 47L53 46L54 46L54 45L55 45L55 44L56 44L56 42L54 42L54 41L53 41L53 40L55 40L55 39L53 39L53 38L52 38L52 36L53 36L53 37L55 37L55 38L56 38L56 39L57 39L57 38L56 38L56 37L57 37L57 36L56 36L56 35L57 35L57 31L56 31L56 30L57 30L57 27L56 27L56 30L54 30L54 29L55 29L55 27L53 27L53 26L52 26L52 25L49 25L49 24L50 24L50 23L47 23L47 22L49 22L49 21L48 21L48 20L50 20L50 21L51 21L51 22L52 22L52 23L51 23L51 24L53 24L53 25L56 25L56 24L54 24L54 23L53 23L53 22L54 22L54 21L55 21L55 20L54 20L54 21L53 21L53 20L50 20L50 19L46 19L46 20L47 20L47 22L46 22L46 24L45 24L45 25L44 25L44 23L45 23L45 22L44 22L44 21L41 21L41 18L42 18L42 19L43 19L43 18L42 18L42 17L45 17L45 18L44 18L44 19L45 19L45 18L48 18L48 17L45 17L45 16L44 16L44 14L42 14L42 17L41 17L41 18L39 18L39 19L40 19L40 20L38 20L38 19L36 19L36 20L35 20L35 19L34 19L34 20L33 20L33 21L34 21L34 20L35 20L35 22L37 22L37 24L36 24L36 23L35 23L35 24L33 24L33 23L34 23L34 22L32 22L32 23L31 23L31 26L29 26L29 25L28 25L28 26L27 26L27 25L25 25L25 22L27 22L27 23L26 23L26 24L30 24L30 23L28 23L28 21L29 21L29 22L31 22L31 20L32 20L32 19L31 19L31 20L30 20L30 21L29 21L29 19L30 19L30 17L29 17L29 16L31 16L31 17L33 17L33 18L35 18L35 17L34 17L34 16L35 16L35 15L36 15L36 13L37 13L37 15L39 15L39 17L40 17L40 16L41 16L41 14L40 14L40 13L39 13L39 12L40 12L40 10L39 10L39 11L38 11L38 12L37 12L37 11L36 11L36 10L35 10L35 11L34 11L34 10L33 10L33 13L32 13L32 12L31 12L31 11L30 11L30 12L31 12L31 14L30 14L30 13L28 13L28 12L26 12L26 13L25 13L25 11L26 11L26 10L28 10L28 11L29 11L29 10L32 10L32 9L31 9L31 6L32 6L32 8L33 8L33 6L32 6L32 5L31 5L31 4L32 4L32 3L33 3L33 5L34 5L34 2L35 2L35 4L36 4L36 5L37 5L37 6L36 6L36 7L35 7L35 6L34 6L34 9L36 9L36 8L37 8L37 10L38 10L38 9L41 9L41 11L42 11L42 12L43 12L43 13L44 13L44 9L41 9L41 8L40 8L40 7L41 7L41 6L42 6L42 7L43 7L43 6L42 6L42 5L41 5L41 4L43 4L43 5L45 5L45 6L44 6L44 8L45 8L45 11L47 11L47 12L48 12L48 11L49 11L49 16L50 16L50 17L52 17L52 16L50 16L50 15L51 15L51 13L52 13L52 14L54 14L54 15L53 15L53 17L54 17L54 18L52 18L52 19L56 19L56 22L55 22L55 23L57 23L57 19L56 19L56 18L55 18L55 17L57 17L57 15L55 15L55 13L54 13L54 10L53 10L53 13L52 13L52 12L51 12L51 11L50 11L50 10L49 10L49 9L50 9L50 8L48 8L48 9L47 9L47 8L45 8L45 6L46 6L46 7L47 7L47 5L48 5L48 0L46 0L46 1L44 1L44 2L41 2L41 1L43 1L43 0L41 0L41 1L40 1L40 0L39 0L39 1L40 1L40 2L41 2L41 4L37 4L37 3L39 3L39 2L37 2L37 1L38 1L38 0L37 0L37 1L36 1L36 0L35 0L35 1L34 1L34 2L33 2L33 1L32 1L32 0L29 0L29 1L28 1L28 0L27 0L27 1L28 1L28 3L30 3L30 4L26 4L26 2L24 2L24 3L23 3L23 2L22 2L22 0L21 0L21 2L22 2L22 3L23 3L23 5L22 5L22 8L21 8L21 10L20 10L20 9L18 9L18 8L20 8L20 7L21 7L21 5L20 5L20 4L19 4L19 3L18 3L18 1L20 1L20 0L17 0L17 2L16 2L16 1L15 1L15 0ZM23 0L23 1L26 1L26 0ZM29 1L29 2L30 2L30 3L31 3L31 1ZM35 1L35 2L36 2L36 1ZM46 1L46 2L45 2L45 3L44 3L44 4L45 4L45 5L47 5L47 3L46 3L46 2L47 2L47 1ZM24 4L24 6L23 6L23 7L24 7L24 8L25 8L25 9L26 9L26 6L25 6L25 5L26 5L26 4ZM27 5L27 8L30 8L30 5ZM38 5L38 6L37 6L37 8L39 8L39 7L40 7L40 5ZM11 6L11 7L12 7L12 6ZM13 6L13 7L14 7L14 6ZM15 6L15 8L13 8L13 9L12 9L12 8L11 8L11 9L12 9L12 10L14 10L14 11L16 11L16 10L18 10L18 12L17 12L17 13L16 13L16 12L15 12L15 15L16 15L16 17L19 17L19 20L18 20L18 21L17 21L17 23L16 23L16 19L17 19L17 18L16 18L16 19L15 19L15 17L13 17L13 16L14 16L14 13L12 13L12 15L13 15L13 16L12 16L12 17L13 17L13 19L15 19L15 20L14 20L14 22L13 22L13 21L12 21L12 20L11 20L11 19L12 19L12 18L11 18L11 16L10 16L10 14L7 14L7 13L5 13L5 12L4 12L4 13L3 13L3 15L4 15L4 13L5 13L5 14L7 14L7 15L5 15L5 16L4 16L4 17L5 17L5 16L7 16L7 15L9 15L9 17L8 17L8 19L4 19L4 20L7 20L7 21L5 21L5 22L4 22L4 23L1 23L1 24L3 24L3 25L4 25L4 26L2 26L2 27L4 27L4 26L7 26L7 25L10 25L10 24L11 24L11 26L12 26L12 27L13 27L13 29L12 29L12 28L11 28L11 27L10 27L10 26L9 26L9 27L10 27L10 29L9 29L9 31L6 31L6 32L9 32L9 31L10 31L10 30L11 30L11 29L12 29L12 31L11 31L11 32L12 32L12 33L10 33L10 34L9 34L9 33L8 33L8 35L6 35L6 34L7 34L7 33L6 33L6 34L5 34L5 35L4 35L4 36L5 36L5 35L6 35L6 36L7 36L7 37L3 37L3 38L1 38L1 40L2 40L2 41L3 41L3 40L4 40L4 39L5 39L5 38L7 38L7 37L8 37L8 38L9 38L9 37L12 37L12 38L11 38L11 39L10 39L10 41L11 41L11 42L9 42L9 40L7 40L7 39L6 39L6 40L7 40L7 41L5 41L5 42L7 42L7 43L5 43L5 44L4 44L4 45L5 45L5 46L3 46L3 47L5 47L5 46L10 46L10 47L11 47L11 46L12 46L12 51L13 51L13 54L12 54L12 55L14 55L14 54L15 54L15 53L16 53L16 54L18 54L18 53L19 53L19 51L18 51L18 50L19 50L19 49L20 49L20 48L19 48L19 49L17 49L17 48L14 48L14 47L13 47L13 45L14 45L14 44L13 44L13 43L12 43L12 41L14 41L14 40L13 40L13 39L12 39L12 38L13 38L13 37L14 37L14 38L17 38L17 39L16 39L16 40L17 40L17 41L19 41L19 42L21 42L21 44L22 44L22 46L21 46L21 45L20 45L20 46L19 46L19 47L22 47L22 46L23 46L23 45L24 45L24 44L25 44L25 43L26 43L26 45L25 45L25 48L24 48L24 47L23 47L23 48L21 48L21 50L22 50L22 49L23 49L23 52L22 52L22 54L23 54L23 52L24 52L24 53L25 53L25 52L26 52L26 51L24 51L24 50L26 50L26 48L28 48L28 47L27 47L27 46L29 46L29 48L31 48L31 49L33 49L33 48L32 48L32 46L33 46L33 47L34 47L34 46L35 46L35 44L34 44L34 45L33 45L33 42L32 42L32 44L31 44L31 43L29 43L29 45L28 45L28 44L27 44L27 42L25 42L25 41L26 41L26 40L27 40L27 39L26 39L26 37L27 37L27 38L29 38L29 36L32 36L32 38L30 38L30 39L28 39L28 41L29 41L29 42L31 42L31 40L33 40L33 39L34 39L34 38L36 38L36 39L35 39L35 40L34 40L34 41L36 41L36 42L34 42L34 43L36 43L36 45L38 45L38 47L37 47L37 46L36 46L36 47L35 47L35 48L34 48L34 50L32 50L32 51L31 51L31 53L32 53L32 51L33 51L33 52L35 52L35 53L36 53L36 54L37 54L37 52L38 52L38 51L36 51L36 52L35 52L35 51L34 51L34 50L35 50L35 48L37 48L37 49L36 49L36 50L37 50L37 49L38 49L38 48L39 48L39 49L40 49L40 50L39 50L39 52L40 52L40 54L41 54L41 53L42 53L42 54L43 54L43 53L42 53L42 52L43 52L43 51L45 51L45 53L46 53L46 51L45 51L45 49L46 49L46 50L47 50L47 52L48 52L48 48L47 48L47 47L49 47L49 46L51 46L51 47L50 47L50 48L53 48L53 47L52 47L52 46L53 46L53 44L55 44L55 43L54 43L54 42L53 42L53 43L52 43L52 44L51 44L51 42L50 42L50 41L52 41L52 40L50 40L50 41L47 41L47 42L50 42L50 43L49 43L49 44L51 44L51 45L49 45L49 46L48 46L48 44L44 44L44 42L45 42L45 41L46 41L46 38L47 38L47 37L48 37L48 39L47 39L47 40L49 40L49 37L51 37L51 36L52 36L52 35L51 35L51 36L47 36L47 34L48 34L48 35L49 35L49 34L50 34L50 33L49 33L49 32L48 32L48 30L47 30L47 31L46 31L46 32L47 32L47 33L45 33L45 31L44 31L44 34L46 34L46 35L45 35L45 36L44 36L44 37L43 37L43 35L42 35L42 34L41 34L41 35L37 35L37 37L34 37L34 38L33 38L33 36L36 36L36 35L35 35L35 33L34 33L34 32L35 32L35 31L34 31L34 32L33 32L33 31L32 31L32 30L33 30L33 29L31 29L31 33L32 33L32 34L34 34L34 35L33 35L33 36L32 36L32 35L31 35L31 34L30 34L30 35L29 35L29 33L30 33L30 32L29 32L29 31L28 31L28 33L27 33L27 34L26 34L26 33L25 33L25 34L24 34L24 35L23 35L23 33L24 33L24 31L25 31L25 32L27 32L27 31L25 31L25 30L26 30L26 28L24 28L24 31L23 31L23 30L21 30L21 29L23 29L23 27L22 27L22 26L21 26L21 27L20 27L20 28L19 28L19 27L17 27L17 24L19 24L19 25L20 25L20 24L21 24L21 23L22 23L22 22L23 22L23 21L24 21L24 22L25 22L25 21L27 21L27 20L28 20L28 18L29 18L29 17L27 17L27 14L26 14L26 16L25 16L25 15L24 15L24 16L25 16L25 17L24 17L24 18L23 18L23 14L25 14L25 13L24 13L24 12L23 12L23 11L21 11L21 12L20 12L20 10L18 10L18 9L17 9L17 7L16 7L16 6ZM19 6L19 7L20 7L20 6ZM24 6L24 7L25 7L25 6ZM28 6L28 7L29 7L29 6ZM38 6L38 7L39 7L39 6ZM48 6L48 7L49 7L49 6ZM0 8L0 11L2 11L2 10L1 10L1 9L3 9L3 10L4 10L4 8ZM6 8L6 9L7 9L7 8ZM9 8L9 9L10 9L10 8ZM52 8L52 9L55 9L55 8ZM56 8L56 9L57 9L57 8ZM22 9L22 10L24 10L24 9ZM46 9L46 10L47 10L47 9ZM55 10L55 11L56 11L56 13L57 13L57 10ZM6 11L6 12L7 12L7 11ZM11 11L11 12L12 12L12 11ZM35 11L35 12L34 12L34 14L33 14L33 15L32 15L32 14L31 14L31 16L33 16L33 15L35 15L35 12L36 12L36 11ZM9 12L9 13L10 13L10 12ZM18 12L18 13L19 13L19 14L21 14L21 13L20 13L20 12ZM22 12L22 13L23 13L23 12ZM50 12L50 13L51 13L51 12ZM45 13L45 14L46 14L46 13ZM16 14L16 15L17 15L17 16L18 16L18 14ZM47 14L47 16L48 16L48 14ZM28 15L28 16L29 16L29 15ZM1 16L1 17L3 17L3 16ZM19 16L19 17L21 17L21 18L20 18L20 20L21 20L21 21L23 21L23 19L22 19L22 17L21 17L21 16ZM6 17L6 18L7 18L7 17ZM9 17L9 19L10 19L10 17ZM25 17L25 18L24 18L24 19L25 19L25 20L27 20L27 17ZM36 17L36 18L37 18L37 17ZM1 18L1 19L2 19L2 18ZM21 19L21 20L22 20L22 19ZM36 20L36 21L37 21L37 20ZM8 21L8 24L10 24L10 23L12 23L12 25L13 25L13 27L15 27L15 29L13 29L13 30L14 30L14 31L16 31L16 32L17 32L17 33L18 33L18 35L19 35L19 34L20 34L20 35L22 35L22 33L23 33L23 31L22 31L22 32L20 32L20 33L18 33L18 31L19 31L19 30L17 30L17 27L15 27L15 26L16 26L16 23L15 23L15 22L14 22L14 23L15 23L15 26L14 26L14 25L13 25L13 22L11 22L11 21L10 21L10 22L9 22L9 21ZM38 21L38 22L39 22L39 21ZM5 22L5 25L7 25L7 24L6 24L6 23L7 23L7 22ZM19 22L19 24L20 24L20 23L21 23L21 22ZM42 22L42 24L41 24L41 23L40 23L40 26L41 26L41 27L39 27L39 26L38 26L38 27L39 27L39 28L40 28L40 30L39 30L39 29L38 29L38 30L37 30L37 28L36 28L36 27L35 27L35 25L34 25L34 27L35 27L35 28L34 28L34 29L36 29L36 31L37 31L37 32L36 32L36 33L37 33L37 32L38 32L38 34L39 34L39 31L40 31L40 32L41 32L41 31L43 31L43 30L46 30L46 26L47 26L47 27L48 27L48 26L49 26L49 25L48 25L48 24L47 24L47 25L46 25L46 26L45 26L45 29L44 29L44 28L43 28L43 27L42 27L42 26L44 26L44 25L42 25L42 24L43 24L43 22ZM22 24L22 25L23 25L23 26L24 26L24 27L25 27L25 25L24 25L24 24ZM32 24L32 25L33 25L33 24ZM38 24L38 25L39 25L39 24ZM5 27L5 30L8 30L8 27ZM27 27L27 30L30 30L30 27ZM31 27L31 28L33 28L33 27ZM41 27L41 30L42 30L42 29L43 29L43 28L42 28L42 27ZM49 27L49 30L52 30L52 27ZM3 28L3 29L2 29L2 30L3 30L3 29L4 29L4 28ZM6 28L6 29L7 29L7 28ZM18 28L18 29L19 29L19 28ZM28 28L28 29L29 29L29 28ZM47 28L47 29L48 29L48 28ZM50 28L50 29L51 29L51 28ZM53 28L53 29L54 29L54 28ZM15 29L15 30L16 30L16 29ZM38 30L38 31L39 31L39 30ZM12 31L12 32L13 32L13 33L12 33L12 34L10 34L10 35L12 35L12 37L13 37L13 35L12 35L12 34L14 34L14 35L15 35L15 36L17 36L17 38L18 38L18 37L19 37L19 41L21 41L21 42L22 42L22 44L23 44L23 43L24 43L24 42L23 42L23 41L22 41L22 40L23 40L23 39L24 39L24 41L25 41L25 39L24 39L24 37L26 37L26 36L29 36L29 35L28 35L28 34L27 34L27 35L26 35L26 36L23 36L23 38L22 38L22 37L21 37L21 38L20 38L20 37L19 37L19 36L17 36L17 35L16 35L16 34L14 34L14 33L15 33L15 32L13 32L13 31ZM50 31L50 32L52 32L52 34L54 34L54 32L55 32L55 31L53 31L53 32L52 32L52 31ZM42 32L42 33L43 33L43 32ZM20 33L20 34L21 34L21 33ZM55 33L55 34L56 34L56 33ZM54 35L54 36L55 36L55 35ZM39 36L39 37L37 37L37 39L38 39L38 40L37 40L37 41L40 41L40 40L39 40L39 39L41 39L41 37L40 37L40 36ZM45 37L45 38L46 38L46 37ZM3 38L3 39L2 39L2 40L3 40L3 39L4 39L4 38ZM21 38L21 39L22 39L22 38ZM32 38L32 39L33 39L33 38ZM38 38L38 39L39 39L39 38ZM42 38L42 39L43 39L43 41L45 41L45 39L44 39L44 38ZM50 38L50 39L51 39L51 38ZM11 39L11 41L12 41L12 39ZM17 39L17 40L18 40L18 39ZM41 40L41 42L37 42L37 44L38 44L38 45L39 45L39 47L43 47L43 49L44 49L44 47L43 47L43 45L42 45L42 43L43 43L43 42L42 42L42 40ZM56 40L56 41L57 41L57 40ZM15 42L15 44L16 44L16 45L15 45L15 47L17 47L17 45L19 45L19 43L18 43L18 42ZM41 42L41 43L40 43L40 44L41 44L41 43L42 43L42 42ZM8 43L8 44L5 44L5 45L8 45L8 44L9 44L9 45L11 45L11 43ZM16 43L16 44L17 44L17 43ZM38 43L38 44L39 44L39 43ZM12 44L12 45L13 45L13 44ZM30 44L30 45L29 45L29 46L32 46L32 45L31 45L31 44ZM26 45L26 46L27 46L27 45ZM44 45L44 46L45 46L45 45ZM56 45L56 46L55 46L55 47L57 47L57 45ZM1 46L1 47L2 47L2 46ZM46 46L46 47L47 47L47 46ZM8 48L8 49L9 49L9 50L10 50L10 51L11 51L11 50L10 50L10 49L9 49L9 48ZM13 48L13 50L14 50L14 52L15 52L15 51L16 51L16 49L15 49L15 50L14 50L14 48ZM23 48L23 49L24 49L24 48ZM41 48L41 49L42 49L42 48ZM56 48L56 49L57 49L57 48ZM27 49L27 52L30 52L30 49ZM49 49L49 52L52 52L52 49ZM28 50L28 51L29 51L29 50ZM50 50L50 51L51 51L51 50ZM17 51L17 52L18 52L18 51ZM40 51L40 52L41 52L41 51ZM10 52L10 53L9 53L9 56L10 56L10 53L12 53L12 52ZM20 53L20 55L21 55L21 56L22 56L22 55L21 55L21 53ZM38 53L38 54L39 54L39 53ZM48 53L48 54L50 54L50 53ZM26 54L26 55L27 55L27 56L28 56L28 55L27 55L27 54ZM44 54L44 55L45 55L45 54ZM17 55L17 56L18 56L18 55ZM24 55L24 57L25 57L25 55ZM39 55L39 56L40 56L40 55ZM56 55L56 56L57 56L57 55ZM52 56L52 57L53 57L53 56ZM54 56L54 57L55 57L55 56ZM0 0L0 7L7 7L7 0ZM1 1L1 6L6 6L6 1ZM2 2L2 5L5 5L5 2ZM50 0L50 7L57 7L57 0ZM51 1L51 6L56 6L56 1ZM52 2L52 5L55 5L55 2ZM0 50L0 57L7 57L7 50ZM1 51L1 56L6 56L6 51ZM2 52L2 55L5 55L5 52Z" fill="#000000"/></g></g></svg>
