<?xml version="1.0" encoding="UTF-8"?>
<svg xmlns="http://www.w3.org/2000/svg" version="1.1" width="300" height="300" viewBox="0 0 300 300"><rect x="0" y="0" width="300" height="300" fill="#fefefe"/><g transform="scale(4.615)"><g transform="translate(4,4)"><path fill-rule="evenodd" d="M8 0L8 4L10 4L10 7L9 7L9 5L8 5L8 7L9 7L9 10L8 10L8 9L7 9L7 8L4 8L4 9L2 9L2 8L0 8L0 10L1 10L1 11L2 11L2 10L4 10L4 12L3 12L3 14L4 14L4 17L3 17L3 16L2 16L2 18L4 18L4 17L5 17L5 18L6 18L6 19L7 19L7 18L6 18L6 17L9 17L9 19L8 19L8 20L9 20L9 22L10 22L10 21L12 21L12 23L8 23L8 21L7 21L7 20L6 20L6 21L5 21L5 22L4 22L4 20L5 20L5 19L4 19L4 20L3 20L3 19L0 19L0 23L2 23L2 22L3 22L3 24L1 24L1 25L0 25L0 29L2 29L2 30L1 30L1 31L0 31L0 32L1 32L1 31L2 31L2 30L3 30L3 31L4 31L4 32L3 32L3 33L1 33L1 34L0 34L0 36L1 36L1 37L0 37L0 41L2 41L2 40L4 40L4 42L1 42L1 43L5 43L5 42L6 42L6 43L8 43L8 44L6 44L6 45L4 45L4 44L2 44L2 45L1 45L1 44L0 44L0 48L5 48L5 47L7 47L7 48L6 48L6 49L8 49L8 50L9 50L9 49L13 49L13 48L14 48L14 46L16 46L16 47L15 47L15 48L16 48L16 49L15 49L15 51L14 51L14 50L12 50L12 53L11 53L11 54L10 54L10 53L9 53L9 52L10 52L10 51L8 51L8 53L9 53L9 55L8 55L8 57L11 57L11 56L13 56L13 57L15 57L15 55L16 55L16 54L19 54L19 55L18 55L18 56L17 56L17 57L20 57L20 56L19 56L19 55L20 55L20 54L21 54L21 55L22 55L22 56L21 56L21 57L22 57L22 56L23 56L23 57L25 57L25 55L26 55L26 53L28 53L28 57L29 57L29 55L30 55L30 57L34 57L34 55L35 55L35 57L37 57L37 56L36 56L36 54L37 54L37 53L38 53L38 55L39 55L39 57L40 57L40 56L43 56L43 55L44 55L44 53L45 53L45 54L46 54L46 56L44 56L44 57L47 57L47 54L46 54L46 51L47 51L47 52L48 52L48 54L49 54L49 55L48 55L48 57L50 57L50 55L51 55L51 56L53 56L53 55L55 55L55 54L57 54L57 52L56 52L56 50L57 50L57 49L56 49L56 45L57 45L57 43L56 43L56 42L57 42L57 40L54 40L54 41L53 41L53 40L52 40L52 41L51 41L51 43L50 43L50 42L49 42L49 41L48 41L48 43L47 43L47 42L46 42L46 41L47 41L47 40L51 40L51 39L49 39L49 38L48 38L48 37L50 37L50 38L52 38L52 39L57 39L57 38L55 38L55 37L56 37L56 36L53 36L53 35L56 35L56 34L57 34L57 33L56 33L56 30L55 30L55 29L54 29L54 28L53 28L53 27L54 27L54 26L55 26L55 25L54 25L54 23L55 23L55 24L56 24L56 25L57 25L57 24L56 24L56 21L57 21L57 19L56 19L56 18L57 18L57 15L56 15L56 13L57 13L57 12L55 12L55 14L53 14L53 13L54 13L54 12L53 12L53 13L52 13L52 14L51 14L51 12L52 12L52 11L50 11L50 15L48 15L48 16L49 16L49 17L47 17L47 18L46 18L46 17L45 17L45 16L47 16L47 15L46 15L46 9L45 9L45 8L44 8L44 7L45 7L45 5L46 5L46 7L47 7L47 5L48 5L48 0L46 0L46 1L47 1L47 2L45 2L45 0L41 0L41 1L40 1L40 2L38 2L38 1L39 1L39 0L38 0L38 1L37 1L37 2L36 2L36 0L35 0L35 1L34 1L34 0L33 0L33 1L32 1L32 0L28 0L28 1L27 1L27 0L26 0L26 1L25 1L25 0L23 0L23 1L21 1L21 0L20 0L20 3L22 3L22 7L21 7L21 6L20 6L20 5L19 5L19 4L18 4L18 5L19 5L19 6L18 6L18 7L19 7L19 8L17 8L17 6L16 6L16 5L15 5L15 4L14 4L14 0ZM15 0L15 2L16 2L16 4L17 4L17 3L18 3L18 2L19 2L19 1L17 1L17 2L16 2L16 0ZM9 1L9 3L10 3L10 1ZM11 1L11 3L12 3L12 4L11 4L11 8L12 8L12 6L13 6L13 9L12 9L12 10L14 10L14 8L15 8L15 7L16 7L16 6L15 6L15 7L14 7L14 6L13 6L13 2L12 2L12 1ZM26 1L26 2L25 2L25 3L23 3L23 2L22 2L22 3L23 3L23 5L24 5L24 4L25 4L25 3L26 3L26 4L27 4L27 3L29 3L29 4L30 4L30 3L32 3L32 5L35 5L35 7L34 7L34 6L33 6L33 7L32 7L32 6L31 6L31 10L29 10L29 9L28 9L28 10L27 10L27 9L26 9L26 6L25 6L25 7L24 7L24 6L23 6L23 7L22 7L22 10L20 10L20 8L19 8L19 10L18 10L18 11L16 11L16 10L17 10L17 9L15 9L15 11L16 11L16 12L17 12L17 13L15 13L15 12L14 12L14 11L12 11L12 12L10 12L10 13L9 13L9 11L10 11L10 10L11 10L11 9L10 9L10 10L9 10L9 11L8 11L8 12L7 12L7 11L6 11L6 10L7 10L7 9L6 9L6 10L5 10L5 9L4 9L4 10L5 10L5 12L4 12L4 14L7 14L7 15L6 15L6 16L7 16L7 15L8 15L8 13L9 13L9 14L10 14L10 15L9 15L9 16L10 16L10 17L11 17L11 18L10 18L10 19L11 19L11 18L13 18L13 19L12 19L12 21L13 21L13 23L12 23L12 24L11 24L11 25L12 25L12 24L13 24L13 23L14 23L14 24L16 24L16 28L17 28L17 27L18 27L18 25L17 25L17 24L18 24L18 23L19 23L19 24L20 24L20 25L19 25L19 28L18 28L18 29L14 29L14 28L15 28L15 25L14 25L14 28L13 28L13 27L12 27L12 28L11 28L11 27L10 27L10 28L11 28L11 30L10 30L10 29L9 29L9 30L10 30L10 31L12 31L12 29L14 29L14 30L17 30L17 32L16 32L16 31L14 31L14 32L13 32L13 33L14 33L14 32L16 32L16 34L15 34L15 35L16 35L16 37L15 37L15 36L14 36L14 37L13 37L13 38L14 38L14 39L16 39L16 38L17 38L17 40L19 40L19 41L18 41L18 43L17 43L17 41L16 41L16 40L15 40L15 41L16 41L16 43L15 43L15 44L13 44L13 45L12 45L12 46L11 46L11 45L10 45L10 44L11 44L11 43L14 43L14 40L13 40L13 39L12 39L12 36L13 36L13 35L12 35L12 34L11 34L11 32L7 32L7 31L6 31L6 32L7 32L7 33L6 33L6 34L4 34L4 33L3 33L3 34L4 34L4 36L2 36L2 37L1 37L1 38L2 38L2 39L1 39L1 40L2 40L2 39L3 39L3 38L2 38L2 37L5 37L5 38L7 38L7 37L5 37L5 35L6 35L6 36L7 36L7 35L6 35L6 34L7 34L7 33L8 33L8 34L9 34L9 35L8 35L8 36L10 36L10 37L11 37L11 39L12 39L12 40L11 40L11 43L10 43L10 41L9 41L9 42L8 42L8 43L9 43L9 46L8 46L8 45L6 45L6 46L7 46L7 47L9 47L9 46L11 46L11 47L12 47L12 48L13 48L13 47L12 47L12 46L14 46L14 45L15 45L15 44L16 44L16 46L17 46L17 45L18 45L18 44L19 44L19 46L20 46L20 45L21 45L21 46L22 46L22 47L21 47L21 48L22 48L22 49L21 49L21 50L20 50L20 49L19 49L19 51L18 51L18 50L17 50L17 49L16 49L16 50L17 50L17 51L18 51L18 52L19 52L19 53L20 53L20 52L19 52L19 51L21 51L21 50L22 50L22 49L23 49L23 48L22 48L22 47L24 47L24 49L25 49L25 50L26 50L26 48L27 48L27 47L28 47L28 46L29 46L29 47L30 47L30 48L31 48L31 49L32 49L32 50L33 50L33 49L34 49L34 50L35 50L35 52L36 52L36 49L34 49L34 48L35 48L35 47L36 47L36 48L37 48L37 47L36 47L36 46L35 46L35 45L34 45L34 47L33 47L33 46L32 46L32 45L31 45L31 42L30 42L30 40L29 40L29 41L28 41L28 40L27 40L27 39L28 39L28 38L29 38L29 39L31 39L31 41L32 41L32 43L33 43L33 44L35 44L35 43L33 43L33 41L32 41L32 40L33 40L33 39L34 39L34 42L35 42L35 39L37 39L37 42L38 42L38 39L40 39L40 38L38 38L38 37L37 37L37 38L35 38L35 37L34 37L34 36L35 36L35 31L36 31L36 30L37 30L37 32L38 32L38 30L37 30L37 29L38 29L38 28L37 28L37 27L40 27L40 29L39 29L39 32L40 32L40 33L39 33L39 34L38 34L38 33L37 33L37 34L38 34L38 36L39 36L39 37L41 37L41 36L42 36L42 34L40 34L40 33L41 33L41 32L40 32L40 30L41 30L41 29L44 29L44 30L43 30L43 31L44 31L44 30L46 30L46 31L47 31L47 33L46 33L46 32L45 32L45 33L43 33L43 37L44 37L44 38L43 38L43 39L46 39L46 40L45 40L45 41L46 41L46 40L47 40L47 39L48 39L48 38L47 38L47 37L48 37L48 36L45 36L45 37L44 37L44 35L46 35L46 34L49 34L49 33L48 33L48 31L47 31L47 30L48 30L48 29L46 29L46 28L48 28L48 27L46 27L46 26L47 26L47 25L46 25L46 24L47 24L47 21L48 21L48 20L49 20L49 21L51 21L51 22L52 22L52 23L53 23L53 22L52 22L52 21L54 21L54 22L55 22L55 21L56 21L56 19L55 19L55 18L56 18L56 16L55 16L55 15L53 15L53 14L52 14L52 15L53 15L53 16L52 16L52 18L50 18L50 17L49 17L49 18L48 18L48 19L46 19L46 20L47 20L47 21L45 21L45 22L44 22L44 16L45 16L45 15L44 15L44 16L43 16L43 15L42 15L42 17L43 17L43 18L42 18L42 19L41 19L41 18L40 18L40 17L41 17L41 15L40 15L40 17L39 17L39 15L38 15L38 13L39 13L39 12L40 12L40 13L44 13L44 12L45 12L45 11L44 11L44 10L45 10L45 9L44 9L44 8L43 8L43 7L44 7L44 4L46 4L46 5L47 5L47 3L44 3L44 2L43 2L43 3L42 3L42 2L40 2L40 3L38 3L38 2L37 2L37 3L36 3L36 2L34 2L34 1L33 1L33 2L34 2L34 3L32 3L32 1L31 1L31 2L30 2L30 1L29 1L29 2L27 2L27 1ZM34 3L34 4L35 4L35 5L36 5L36 7L35 7L35 9L37 9L37 6L38 6L38 10L37 10L37 12L36 12L36 10L34 10L34 9L33 9L33 8L34 8L34 7L33 7L33 8L32 8L32 11L29 11L29 12L32 12L32 15L31 15L31 13L30 13L30 15L31 15L31 16L29 16L29 13L26 13L26 11L27 11L27 12L28 12L28 11L27 11L27 10L25 10L25 9L24 9L24 7L23 7L23 10L25 10L25 11L23 11L23 12L22 12L22 11L19 11L19 12L18 12L18 13L17 13L17 14L15 14L15 13L13 13L13 14L11 14L11 15L10 15L10 16L11 16L11 15L12 15L12 17L13 17L13 14L14 14L14 18L15 18L15 20L14 20L14 19L13 19L13 21L14 21L14 22L15 22L15 23L16 23L16 22L17 22L17 21L18 21L18 22L19 22L19 23L20 23L20 22L21 22L21 23L22 23L22 24L23 24L23 25L20 25L20 27L22 27L22 28L23 28L23 30L22 30L22 29L21 29L21 28L20 28L20 30L22 30L22 31L21 31L21 33L20 33L20 32L17 32L17 37L18 37L18 38L19 38L19 37L21 37L21 38L20 38L20 39L19 39L19 40L20 40L20 44L21 44L21 45L24 45L24 47L25 47L25 46L26 46L26 47L27 47L27 46L26 46L26 45L29 45L29 46L31 46L31 48L32 48L32 49L33 49L33 48L32 48L32 46L31 46L31 45L29 45L29 44L27 44L27 43L28 43L28 41L27 41L27 40L25 40L25 41L24 41L24 39L23 39L23 38L22 38L22 36L23 36L23 37L24 37L24 38L26 38L26 39L27 39L27 37L28 37L28 36L29 36L29 37L31 37L31 36L32 36L32 37L33 37L33 35L34 35L34 32L32 32L32 31L31 31L31 28L32 28L32 30L33 30L33 31L34 31L34 27L33 27L33 26L34 26L34 25L37 25L37 24L34 24L34 23L35 23L35 22L37 22L37 21L38 21L38 22L39 22L39 21L40 21L40 22L41 22L41 23L42 23L42 22L43 22L43 24L44 24L44 29L45 29L45 26L46 26L46 25L45 25L45 24L46 24L46 23L45 23L45 24L44 24L44 22L43 22L43 20L42 20L42 21L40 21L40 18L39 18L39 17L38 17L38 16L37 16L37 15L35 15L35 17L38 17L38 18L39 18L39 19L37 19L37 18L34 18L34 13L33 13L33 12L32 12L32 11L33 11L33 10L34 10L34 12L35 12L35 14L36 14L36 13L37 13L37 12L39 12L39 11L38 11L38 10L40 10L40 8L41 8L41 12L43 12L43 11L42 11L42 10L44 10L44 9L42 9L42 8L41 8L41 6L40 6L40 8L39 8L39 5L42 5L42 7L43 7L43 4L44 4L44 3L43 3L43 4L41 4L41 3L40 3L40 4L38 4L38 5L36 5L36 4L35 4L35 3ZM27 5L27 8L30 8L30 5ZM19 6L19 7L20 7L20 6ZM28 6L28 7L29 7L29 6ZM48 6L48 7L49 7L49 6ZM47 8L47 12L49 12L49 11L48 11L48 10L49 10L49 9L48 9L48 8ZM51 8L51 9L50 9L50 10L53 10L53 11L54 11L54 10L53 10L53 9L55 9L55 11L56 11L56 10L57 10L57 8L53 8L53 9L52 9L52 8ZM1 9L1 10L2 10L2 9ZM0 12L0 15L1 15L1 13L2 13L2 12ZM6 12L6 13L7 13L7 12ZM20 12L20 13L19 13L19 14L20 14L20 16L19 16L19 18L18 18L18 17L17 17L17 16L18 16L18 15L17 15L17 16L16 16L16 20L15 20L15 21L17 21L17 19L19 19L19 18L20 18L20 19L21 19L21 18L20 18L20 16L21 16L21 17L25 17L25 18L24 18L24 19L23 19L23 18L22 18L22 19L23 19L23 20L22 20L22 21L21 21L21 22L23 22L23 21L24 21L24 22L25 22L25 23L26 23L26 22L28 22L28 23L30 23L30 21L29 21L29 20L31 20L31 21L32 21L32 20L31 20L31 19L33 19L33 20L34 20L34 22L35 22L35 20L36 20L36 19L35 19L35 20L34 20L34 19L33 19L33 17L32 17L32 16L33 16L33 15L32 15L32 16L31 16L31 17L32 17L32 18L31 18L31 19L30 19L30 18L28 18L28 17L26 17L26 16L27 16L27 15L28 15L28 14L26 14L26 16L25 16L25 14L23 14L23 13L25 13L25 12L23 12L23 13L21 13L21 12ZM20 13L20 14L21 14L21 15L22 15L22 16L23 16L23 15L22 15L22 14L21 14L21 13ZM47 13L47 14L49 14L49 13ZM50 15L50 16L51 16L51 15ZM49 18L49 20L51 20L51 21L52 21L52 20L53 20L53 19L50 19L50 18ZM25 19L25 20L24 20L24 21L28 21L28 22L29 22L29 21L28 21L28 20L29 20L29 19L27 19L27 20L26 20L26 19ZM19 20L19 21L20 21L20 20ZM38 20L38 21L39 21L39 20ZM6 21L6 22L5 22L5 23L4 23L4 24L5 24L5 23L6 23L6 24L7 24L7 23L6 23L6 22L7 22L7 21ZM31 22L31 24L28 24L28 25L31 25L31 27L32 27L32 28L33 28L33 27L32 27L32 23L33 23L33 22ZM49 22L49 24L50 24L50 22ZM23 23L23 24L24 24L24 23ZM39 23L39 25L38 25L38 26L39 26L39 25L40 25L40 27L42 27L42 28L43 28L43 25L40 25L40 23ZM8 24L8 26L9 26L9 24ZM33 24L33 25L34 25L34 24ZM52 24L52 26L53 26L53 24ZM2 25L2 26L1 26L1 27L2 27L2 26L3 26L3 28L2 28L2 29L4 29L4 26L3 26L3 25ZM5 25L5 26L7 26L7 25ZM25 25L25 27L24 27L24 26L23 26L23 28L25 28L25 27L26 27L26 25ZM49 25L49 26L50 26L50 25ZM36 26L36 27L37 27L37 26ZM5 27L5 30L8 30L8 27ZM27 27L27 30L30 30L30 27ZM49 27L49 30L52 30L52 27ZM55 27L55 28L56 28L56 29L57 29L57 28L56 28L56 27ZM6 28L6 29L7 29L7 28ZM28 28L28 29L29 29L29 28ZM35 28L35 29L37 29L37 28ZM50 28L50 29L51 29L51 28ZM18 29L18 31L19 31L19 29ZM25 29L25 30L24 30L24 31L22 31L22 33L21 33L21 34L22 34L22 35L23 35L23 33L26 33L26 34L24 34L24 36L25 36L25 37L27 37L27 36L28 36L28 34L29 34L29 33L32 33L32 32L29 32L29 33L28 33L28 34L27 34L27 33L26 33L26 31L25 31L25 30L26 30L26 29ZM53 29L53 33L51 33L51 32L50 32L50 31L49 31L49 32L50 32L50 35L49 35L49 36L50 36L50 37L52 37L52 38L54 38L54 37L53 37L53 36L50 36L50 35L53 35L53 34L54 34L54 32L55 32L55 31L54 31L54 29ZM18 33L18 35L19 35L19 36L20 36L20 33ZM45 33L45 34L46 34L46 33ZM55 33L55 34L56 34L56 33ZM26 34L26 35L25 35L25 36L26 36L26 35L27 35L27 34ZM30 34L30 36L31 36L31 35L32 35L32 34ZM39 35L39 36L40 36L40 35ZM45 37L45 38L46 38L46 39L47 39L47 38L46 38L46 37ZM8 38L8 40L10 40L10 38ZM31 38L31 39L33 39L33 38ZM41 38L41 39L42 39L42 38ZM4 39L4 40L5 40L5 41L6 41L6 42L7 42L7 41L6 41L6 40L7 40L7 39ZM21 39L21 40L22 40L22 42L21 42L21 43L22 43L22 44L23 44L23 43L24 43L24 45L25 45L25 43L27 43L27 41L26 41L26 42L23 42L23 40L22 40L22 39ZM40 40L40 41L39 41L39 44L37 44L37 43L36 43L36 44L37 44L37 46L38 46L38 45L39 45L39 46L40 46L40 51L39 51L39 52L38 52L38 53L39 53L39 52L40 52L40 53L41 53L41 46L40 46L40 45L41 45L41 44L40 44L40 42L41 42L41 43L42 43L42 44L43 44L43 45L44 45L44 44L45 44L45 45L46 45L46 47L45 47L45 46L44 46L44 47L42 47L42 49L43 49L43 50L42 50L42 51L43 51L43 50L44 50L44 51L46 51L46 50L47 50L47 49L48 49L48 47L49 47L49 48L50 48L50 47L51 47L51 46L50 46L50 47L49 47L49 45L51 45L51 44L52 44L52 46L53 46L53 47L52 47L52 48L54 48L54 49L55 49L55 50L56 50L56 49L55 49L55 46L53 46L53 44L54 44L54 45L56 45L56 44L55 44L55 42L56 42L56 41L55 41L55 42L54 42L54 43L53 43L53 41L52 41L52 43L51 43L51 44L50 44L50 43L49 43L49 44L47 44L47 43L44 43L44 44L43 44L43 42L44 42L44 40L43 40L43 42L41 42L41 41L42 41L42 40ZM52 43L52 44L53 44L53 43ZM39 44L39 45L40 45L40 44ZM46 44L46 45L47 45L47 46L48 46L48 45L47 45L47 44ZM3 45L3 47L5 47L5 46L4 46L4 45ZM1 46L1 47L2 47L2 46ZM18 47L18 48L20 48L20 47ZM38 47L38 49L37 49L37 51L38 51L38 49L39 49L39 47ZM44 47L44 49L45 49L45 50L46 50L46 49L45 49L45 47ZM46 47L46 48L47 48L47 47ZM27 49L27 52L30 52L30 49ZM49 49L49 52L52 52L52 49ZM28 50L28 51L29 51L29 50ZM50 50L50 51L51 51L51 50ZM53 50L53 53L54 53L54 54L55 54L55 53L54 53L54 52L55 52L55 51L54 51L54 50ZM13 51L13 53L14 53L14 54L13 54L13 55L15 55L15 53L17 53L17 52L16 52L16 51L15 51L15 52L14 52L14 51ZM22 51L22 53L21 53L21 54L22 54L22 55L23 55L23 56L24 56L24 55L23 55L23 54L22 54L22 53L24 53L24 54L25 54L25 53L26 53L26 51L25 51L25 53L24 53L24 52L23 52L23 51ZM31 51L31 52L32 52L32 51ZM33 52L33 53L32 53L32 54L33 54L33 55L34 55L34 54L35 54L35 53L34 53L34 52ZM43 52L43 53L44 53L44 52ZM30 53L30 54L31 54L31 53ZM33 53L33 54L34 54L34 53ZM49 53L49 54L51 54L51 55L52 55L52 54L51 54L51 53ZM11 54L11 55L9 55L9 56L11 56L11 55L12 55L12 54ZM40 54L40 55L43 55L43 54ZM26 56L26 57L27 57L27 56ZM56 56L56 57L57 57L57 56ZM0 0L0 7L7 7L7 0ZM1 1L1 6L6 6L6 1ZM2 2L2 5L5 5L5 2ZM50 0L50 7L57 7L57 0ZM51 1L51 6L56 6L56 1ZM52 2L52 5L55 5L55 2ZM0 50L0 57L7 57L7 50ZM1 51L1 56L6 56L6 51ZM2 52L2 55L5 55L5 52Z" fill="#000000"/></g></g></svg>
