<?xml version="1.0" encoding="UTF-8"?>
<svg xmlns="http://www.w3.org/2000/svg" version="1.1" width="300" height="300" viewBox="0 0 300 300"><rect x="0" y="0" width="300" height="300" fill="#fefefe"/><g transform="scale(4.615)"><g transform="translate(4,4)"><path fill-rule="evenodd" d="M9 0L9 1L8 1L8 2L11 2L11 3L12 3L12 4L14 4L14 3L17 3L17 1L16 1L16 2L14 2L14 0L13 0L13 2L11 2L11 1L12 1L12 0ZM18 0L18 4L17 4L17 5L18 5L18 4L19 4L19 5L20 5L20 7L19 7L19 6L18 6L18 7L17 7L17 6L16 6L16 7L15 7L15 6L14 6L14 8L12 8L12 7L13 7L13 5L11 5L11 4L9 4L9 3L8 3L8 4L9 4L9 5L8 5L8 7L9 7L9 8L6 8L6 9L8 9L8 10L6 10L6 11L7 11L7 12L6 12L6 13L7 13L7 14L4 14L4 13L0 13L0 16L1 16L1 17L0 17L0 18L1 18L1 17L2 17L2 18L3 18L3 19L2 19L2 21L1 21L1 22L0 22L0 25L1 25L1 26L0 26L0 28L1 28L1 26L2 26L2 29L1 29L1 30L0 30L0 31L2 31L2 32L1 32L1 33L0 33L0 36L1 36L1 35L2 35L2 37L0 37L0 39L1 39L1 40L0 40L0 45L1 45L1 46L0 46L0 48L5 48L5 47L7 47L7 48L6 48L6 49L7 49L7 48L8 48L8 47L7 47L7 46L6 46L6 45L8 45L8 46L9 46L9 45L11 45L11 44L12 44L12 46L10 46L10 47L9 47L9 49L8 49L8 51L9 51L9 49L10 49L10 48L11 48L11 49L12 49L12 50L10 50L10 52L12 52L12 53L13 53L13 55L12 55L12 54L11 54L11 53L9 53L9 52L8 52L8 57L9 57L9 54L10 54L10 56L11 56L11 55L12 55L12 56L13 56L13 57L22 57L22 56L23 56L23 57L26 57L26 56L27 56L27 57L29 57L29 56L30 56L30 57L38 57L38 56L39 56L39 54L38 54L38 53L39 53L39 51L38 51L38 48L41 48L41 47L39 47L39 46L38 46L38 44L39 44L39 45L40 45L40 44L41 44L41 43L40 43L40 42L42 42L42 46L44 46L44 47L45 47L45 48L48 48L48 50L46 50L46 51L48 51L48 53L49 53L49 54L45 54L45 53L47 53L47 52L45 52L45 51L43 51L43 50L45 50L45 49L44 49L44 48L42 48L42 49L39 49L39 50L41 50L41 51L40 51L40 52L41 52L41 53L40 53L40 56L41 56L41 57L44 57L44 55L49 55L49 56L50 56L50 57L52 57L52 54L53 54L53 56L54 56L54 57L56 57L56 56L55 56L55 55L54 55L54 53L55 53L55 51L56 51L56 52L57 52L57 51L56 51L56 48L57 48L57 47L56 47L56 46L57 46L57 44L56 44L56 42L55 42L55 39L57 39L57 36L56 36L56 38L55 38L55 37L54 37L54 38L53 38L53 40L51 40L51 39L52 39L52 38L51 38L51 37L52 37L52 36L55 36L55 35L56 35L56 33L57 33L57 31L56 31L56 30L55 30L55 31L54 31L54 30L53 30L53 29L54 29L54 28L55 28L55 29L57 29L57 27L56 27L56 26L55 26L55 25L57 25L57 23L56 23L56 22L57 22L57 21L56 21L56 22L55 22L55 21L53 21L53 22L52 22L52 24L53 24L53 25L52 25L52 26L50 26L50 25L48 25L48 23L49 23L49 24L51 24L51 22L49 22L49 21L51 21L51 19L52 19L52 18L51 18L51 19L49 19L49 18L50 18L50 17L51 17L51 14L50 14L50 11L49 11L49 10L50 10L50 8L47 8L47 5L48 5L48 0L46 0L46 1L45 1L45 0L44 0L44 2L41 2L41 1L43 1L43 0L39 0L39 1L38 1L38 0L37 0L37 1L36 1L36 0L35 0L35 1L34 1L34 0L33 0L33 1L34 1L34 3L35 3L35 4L36 4L36 7L37 7L37 6L38 6L38 7L39 7L39 6L38 6L38 4L39 4L39 3L38 3L38 4L37 4L37 3L36 3L36 2L37 2L37 1L38 1L38 2L40 2L40 3L42 3L42 4L41 4L41 5L43 5L43 3L47 3L47 5L46 5L46 4L45 4L45 5L44 5L44 7L43 7L43 6L42 6L42 9L39 9L39 8L38 8L38 9L37 9L37 8L35 8L35 5L33 5L33 4L32 4L32 3L33 3L33 2L32 2L32 0L29 0L29 1L26 1L26 0L23 0L23 1L22 1L22 2L20 2L20 0ZM23 1L23 2L22 2L22 3L20 3L20 2L19 2L19 4L21 4L21 8L19 8L19 9L18 9L18 8L17 8L17 7L16 7L16 8L14 8L14 9L13 9L13 10L15 10L15 9L16 9L16 10L17 10L17 11L18 11L18 10L19 10L19 11L20 11L20 12L21 12L21 13L19 13L19 14L17 14L17 13L18 13L18 12L16 12L16 11L15 11L15 13L13 13L13 12L14 12L14 11L13 11L13 12L12 12L12 10L11 10L11 12L12 12L12 14L17 14L17 15L16 15L16 16L17 16L17 15L20 15L20 16L22 16L22 17L19 17L19 18L17 18L17 17L15 17L15 16L14 16L14 15L13 15L13 16L12 16L12 15L9 15L9 18L10 18L10 19L11 19L11 20L9 20L9 19L8 19L8 16L7 16L7 15L3 15L3 18L4 18L4 22L5 22L5 24L7 24L7 25L6 25L6 26L7 26L7 25L8 25L8 24L9 24L9 26L10 26L10 27L9 27L9 29L10 29L10 32L9 32L9 31L8 31L8 32L7 32L7 31L5 31L5 33L3 33L3 32L4 32L4 28L3 28L3 29L2 29L2 31L3 31L3 32L2 32L2 33L1 33L1 34L2 34L2 35L3 35L3 34L5 34L5 33L6 33L6 34L7 34L7 35L4 35L4 37L3 37L3 38L4 38L4 40L3 40L3 39L2 39L2 38L1 38L1 39L2 39L2 40L1 40L1 45L2 45L2 46L1 46L1 47L2 47L2 46L3 46L3 47L5 47L5 46L3 46L3 45L4 45L4 44L3 44L3 43L4 43L4 42L5 42L5 41L6 41L6 42L7 42L7 41L6 41L6 40L8 40L8 42L9 42L9 40L8 40L8 39L9 39L9 38L11 38L11 39L10 39L10 40L11 40L11 41L10 41L10 42L11 42L11 43L10 43L10 44L11 44L11 43L13 43L13 42L14 42L14 44L13 44L13 46L12 46L12 48L13 48L13 50L14 50L14 52L13 52L13 51L12 51L12 52L13 52L13 53L15 53L15 54L14 54L14 55L13 55L13 56L14 56L14 55L15 55L15 56L16 56L16 55L15 55L15 54L16 54L16 53L17 53L17 51L19 51L19 50L17 50L17 49L16 49L16 48L18 48L18 47L19 47L19 48L20 48L20 53L18 53L18 54L20 54L20 55L19 55L19 56L22 56L22 55L24 55L24 56L26 56L26 55L30 55L30 56L34 56L34 55L35 55L35 56L36 56L36 55L37 55L37 56L38 56L38 54L37 54L37 53L38 53L38 52L37 52L37 50L36 50L36 49L35 49L35 48L36 48L36 47L38 47L38 46L37 46L37 45L33 45L33 44L38 44L38 43L37 43L37 42L35 42L35 41L36 41L36 40L37 40L37 41L38 41L38 42L40 42L40 41L41 41L41 40L44 40L44 41L43 41L43 44L44 44L44 46L45 46L45 43L46 43L46 46L48 46L48 47L49 47L49 46L50 46L50 48L51 48L51 46L53 46L53 44L52 44L52 43L51 43L51 42L53 42L53 43L54 43L54 42L53 42L53 41L54 41L54 40L53 40L53 41L51 41L51 40L49 40L49 39L48 39L48 38L50 38L50 39L51 39L51 38L50 38L50 37L48 37L48 36L51 36L51 34L50 34L50 32L53 32L53 31L50 31L50 32L47 32L47 31L48 31L48 28L47 28L47 29L46 29L46 30L45 30L45 31L46 31L46 32L44 32L44 31L43 31L43 30L42 30L42 27L43 27L43 28L44 28L44 29L45 29L45 28L46 28L46 27L47 27L47 26L48 26L48 25L47 25L47 20L43 20L43 18L44 18L44 17L45 17L45 19L47 19L47 15L48 15L48 16L49 16L49 17L50 17L50 15L49 15L49 14L48 14L48 13L49 13L49 11L47 11L47 8L43 8L43 9L44 9L44 10L45 10L45 11L46 11L46 14L47 14L47 15L46 15L46 17L45 17L45 12L44 12L44 11L43 11L43 12L44 12L44 13L43 13L43 14L42 14L42 10L41 10L41 12L40 12L40 10L39 10L39 9L38 9L38 10L35 10L35 8L33 8L33 7L34 7L34 6L33 6L33 7L32 7L32 6L31 6L31 7L32 7L32 8L31 8L31 9L32 9L32 10L31 10L31 11L30 11L30 10L28 10L28 11L30 11L30 12L27 12L27 10L26 10L26 9L25 9L25 8L26 8L26 4L31 4L31 3L32 3L32 2L31 2L31 3L30 3L30 2L28 2L28 3L27 3L27 2L25 2L25 1ZM35 1L35 2L36 2L36 1ZM46 1L46 2L47 2L47 1ZM23 3L23 4L24 4L24 5L23 5L23 6L22 6L22 8L23 8L23 10L22 10L22 11L21 11L21 12L22 12L22 13L21 13L21 14L22 14L22 13L23 13L23 14L24 14L24 15L25 15L25 17L24 17L24 16L23 16L23 17L22 17L22 18L21 18L21 19L20 19L20 18L19 18L19 19L17 19L17 18L16 18L16 19L15 19L15 21L16 21L16 22L14 22L14 21L13 21L13 20L14 20L14 19L13 19L13 17L14 17L14 18L15 18L15 17L14 17L14 16L13 16L13 17L12 17L12 18L11 18L11 17L10 17L10 18L11 18L11 19L12 19L12 21L11 21L11 22L10 22L10 21L9 21L9 20L8 20L8 19L7 19L7 18L6 18L6 19L5 19L5 21L7 21L7 22L6 22L6 23L7 23L7 22L8 22L8 23L9 23L9 24L10 24L10 26L11 26L11 27L12 27L12 26L13 26L13 27L14 27L14 28L15 28L15 29L18 29L18 30L19 30L19 31L15 31L15 32L17 32L17 34L19 34L19 35L14 35L14 36L17 36L17 37L19 37L19 38L20 38L20 39L19 39L19 40L16 40L16 39L15 39L15 40L12 40L12 39L11 39L11 40L12 40L12 41L14 41L14 42L15 42L15 40L16 40L16 41L18 41L18 43L17 43L17 42L16 42L16 43L15 43L15 45L17 45L17 46L16 46L16 47L17 47L17 46L20 46L20 48L21 48L21 49L22 49L22 50L23 50L23 51L25 51L25 50L26 50L26 52L24 52L24 53L22 53L22 54L21 54L21 55L22 55L22 54L24 54L24 53L25 53L25 54L26 54L26 53L28 53L28 54L30 54L30 53L31 53L31 54L32 54L32 55L33 55L33 54L32 54L32 52L33 52L33 53L35 53L35 55L36 55L36 53L37 53L37 52L35 52L35 51L33 51L33 49L34 49L34 48L33 48L33 47L35 47L35 46L32 46L32 44L33 44L33 43L34 43L34 41L33 41L33 43L32 43L32 44L31 44L31 46L29 46L29 47L28 47L28 46L26 46L26 47L28 47L28 48L26 48L26 49L22 49L22 48L23 48L23 47L24 47L24 48L25 48L25 47L24 47L24 46L25 46L25 45L27 45L27 44L28 44L28 45L29 45L29 43L31 43L31 42L32 42L32 41L31 41L31 42L27 42L27 41L30 41L30 40L32 40L32 36L33 36L33 35L34 35L34 34L33 34L33 33L34 33L34 31L35 31L35 32L36 32L36 33L37 33L37 34L35 34L35 35L37 35L37 34L38 34L38 32L40 32L40 31L39 31L39 30L38 30L38 29L37 29L37 28L38 28L38 25L37 25L37 23L36 23L36 21L37 21L37 22L38 22L38 24L41 24L41 26L39 26L39 27L41 27L41 26L43 26L43 27L44 27L44 26L43 26L43 25L44 25L44 24L42 24L42 23L43 23L43 20L42 20L42 19L41 19L41 18L43 18L43 17L44 17L44 14L43 14L43 16L42 16L42 17L41 17L41 18L38 18L38 17L39 17L39 16L41 16L41 15L42 15L42 14L38 14L38 13L40 13L40 12L37 12L37 11L36 11L36 12L34 12L34 10L33 10L33 11L31 11L31 12L33 12L33 13L35 13L35 14L33 14L33 16L34 16L34 15L36 15L36 14L37 14L37 16L35 16L35 17L37 17L37 18L34 18L34 20L35 20L35 23L34 23L34 22L33 22L33 21L31 21L31 19L32 19L32 20L33 20L33 19L32 19L32 18L31 18L31 17L32 17L32 15L31 15L31 14L32 14L32 13L31 13L31 14L30 14L30 13L29 13L29 14L30 14L30 15L29 15L29 16L28 16L28 15L27 15L27 16L28 16L28 17L26 17L26 13L25 13L25 12L26 12L26 10L25 10L25 9L24 9L24 8L25 8L25 4L26 4L26 3ZM15 4L15 5L16 5L16 4ZM10 5L10 6L9 6L9 7L10 7L10 8L9 8L9 10L10 10L10 8L11 8L11 7L12 7L12 6L11 6L11 5ZM27 5L27 8L30 8L30 5ZM45 5L45 7L46 7L46 5ZM10 6L10 7L11 7L11 6ZM23 6L23 8L24 8L24 6ZM28 6L28 7L29 7L29 6ZM40 6L40 7L41 7L41 6ZM48 6L48 7L49 7L49 6ZM0 8L0 10L1 10L1 9L2 9L2 10L3 10L3 11L0 11L0 12L4 12L4 9L5 9L5 8ZM16 8L16 9L17 9L17 10L18 10L18 9L17 9L17 8ZM51 8L51 13L52 13L52 16L56 16L56 17L55 17L55 19L53 19L53 20L55 20L55 19L56 19L56 20L57 20L57 19L56 19L56 17L57 17L57 16L56 16L56 14L57 14L57 13L56 13L56 12L55 12L55 11L56 11L56 10L54 10L54 11L52 11L52 8ZM53 8L53 9L54 9L54 8ZM55 8L55 9L56 9L56 8ZM19 9L19 10L20 10L20 9ZM38 10L38 11L39 11L39 10ZM8 11L8 12L10 12L10 11ZM23 11L23 13L24 13L24 12L25 12L25 11ZM47 12L47 13L48 13L48 12ZM52 12L52 13L53 13L53 12ZM54 12L54 13L55 13L55 14L53 14L53 15L55 15L55 14L56 14L56 13L55 13L55 12ZM8 13L8 14L9 14L9 13ZM27 13L27 14L28 14L28 13ZM6 16L6 17L7 17L7 16ZM25 17L25 19L26 19L26 20L25 20L25 21L24 21L24 20L22 20L22 19L23 19L23 18L22 18L22 19L21 19L21 20L20 20L20 21L19 21L19 22L20 22L20 23L19 23L19 24L20 24L20 27L21 27L21 28L20 28L20 32L19 32L19 33L20 33L20 35L19 35L19 37L22 37L22 38L21 38L21 39L22 39L22 40L19 40L19 41L20 41L20 46L21 46L21 45L22 45L22 47L21 47L21 48L22 48L22 47L23 47L23 46L24 46L24 45L25 45L25 44L26 44L26 43L27 43L27 42L26 42L26 41L27 41L27 40L26 40L26 39L28 39L28 40L30 40L30 39L29 39L29 37L31 37L31 36L29 36L29 35L30 35L30 34L29 34L29 33L30 33L30 32L32 32L32 33L31 33L31 34L32 34L32 33L33 33L33 32L32 32L32 31L29 31L29 33L27 33L27 32L25 32L25 34L21 34L21 33L23 33L23 32L24 32L24 30L23 30L23 27L24 27L24 26L23 26L23 24L21 24L21 22L23 22L23 23L24 23L24 24L25 24L25 27L26 27L26 25L28 25L28 26L29 26L29 24L25 24L25 23L26 23L26 22L25 22L25 21L27 21L27 23L28 23L28 22L29 22L29 23L30 23L30 24L33 24L33 22L32 22L32 23L31 23L31 22L29 22L29 19L28 19L28 18L27 18L27 19L26 19L26 17ZM30 18L30 19L31 19L31 18ZM37 18L37 19L36 19L36 20L37 20L37 21L38 21L38 22L39 22L39 23L42 23L42 22L41 22L41 20L39 20L39 21L38 21L38 18ZM6 19L6 20L7 20L7 19ZM16 19L16 21L17 21L17 23L18 23L18 21L17 21L17 19ZM48 19L48 21L49 21L49 19ZM2 21L2 22L1 22L1 23L2 23L2 24L4 24L4 23L3 23L3 21ZM8 21L8 22L9 22L9 23L10 23L10 24L11 24L11 23L10 23L10 22L9 22L9 21ZM23 21L23 22L24 22L24 21ZM44 21L44 23L45 23L45 21ZM12 23L12 24L13 24L13 23ZM15 23L15 24L14 24L14 26L15 26L15 28L18 28L18 29L19 29L19 26L18 26L18 25L17 25L17 24L16 24L16 23ZM35 23L35 24L36 24L36 23ZM53 23L53 24L54 24L54 25L55 25L55 24L54 24L54 23ZM15 24L15 25L16 25L16 24ZM45 24L45 25L46 25L46 24ZM3 25L3 27L4 27L4 26L5 26L5 25ZM11 25L11 26L12 26L12 25ZM31 25L31 26L32 26L32 25ZM34 25L34 26L33 26L33 27L32 27L32 30L33 30L33 31L34 31L34 30L36 30L36 29L35 29L35 28L37 28L37 27L34 27L34 26L37 26L37 25ZM16 26L16 27L18 27L18 26ZM21 26L21 27L22 27L22 26ZM45 26L45 27L46 27L46 26ZM53 26L53 27L54 27L54 26ZM5 27L5 30L8 30L8 27ZM27 27L27 30L30 30L30 27ZM49 27L49 30L52 30L52 27ZM6 28L6 29L7 29L7 28ZM10 28L10 29L11 29L11 32L10 32L10 33L11 33L11 34L10 34L10 36L9 36L9 37L7 37L7 36L8 36L8 35L7 35L7 36L6 36L6 37L4 37L4 38L5 38L5 39L8 39L8 38L9 38L9 37L10 37L10 36L11 36L11 34L12 34L12 31L13 31L13 30L14 30L14 29L13 29L13 28L12 28L12 29L11 29L11 28ZM21 28L21 29L22 29L22 28ZM24 28L24 29L25 29L25 30L26 30L26 28ZM28 28L28 29L29 29L29 28ZM50 28L50 29L51 29L51 28ZM12 29L12 30L13 30L13 29ZM21 30L21 32L20 32L20 33L21 33L21 32L22 32L22 30ZM37 30L37 31L36 31L36 32L38 32L38 30ZM41 30L41 31L42 31L42 32L43 32L43 33L41 33L41 34L40 34L40 33L39 33L39 34L40 34L40 36L41 36L41 39L43 39L43 38L44 38L44 37L42 37L42 35L43 35L43 36L45 36L45 37L46 37L46 36L45 36L45 35L46 35L46 34L44 34L44 32L43 32L43 31L42 31L42 30ZM46 30L46 31L47 31L47 30ZM55 31L55 32L54 32L54 35L55 35L55 33L56 33L56 31ZM6 32L6 33L7 33L7 32ZM8 32L8 34L9 34L9 32ZM13 32L13 34L14 34L14 32ZM46 32L46 33L47 33L47 34L48 34L48 35L47 35L47 36L48 36L48 35L50 35L50 34L48 34L48 33L47 33L47 32ZM2 33L2 34L3 34L3 33ZM26 33L26 34L25 34L25 35L26 35L26 36L28 36L28 34L27 34L27 33ZM52 33L52 34L53 34L53 33ZM41 34L41 35L42 35L42 34ZM43 34L43 35L44 35L44 34ZM12 35L12 36L13 36L13 35ZM21 35L21 36L22 36L22 35ZM23 35L23 37L24 37L24 38L23 38L23 39L24 39L24 41L21 41L21 42L22 42L22 43L21 43L21 44L22 44L22 45L24 45L24 44L23 44L23 42L25 42L25 39L26 39L26 38L28 38L28 37L26 37L26 38L25 38L25 36L24 36L24 35ZM38 35L38 36L39 36L39 35ZM36 36L36 37L37 37L37 38L38 38L38 37L37 37L37 36ZM6 37L6 38L7 38L7 37ZM11 37L11 38L12 38L12 37ZM14 37L14 38L16 38L16 37ZM17 38L17 39L18 39L18 38ZM34 38L34 39L33 39L33 40L36 40L36 38ZM39 38L39 39L38 39L38 41L39 41L39 40L40 40L40 38ZM46 39L46 40L47 40L47 39ZM2 40L2 41L3 41L3 42L4 42L4 41L3 41L3 40ZM48 40L48 41L47 41L47 42L46 42L46 41L44 41L44 43L45 43L45 42L46 42L46 43L47 43L47 44L48 44L48 46L49 46L49 45L50 45L50 46L51 46L51 45L50 45L50 44L51 44L51 43L49 43L49 42L50 42L50 41L49 41L49 40ZM6 43L6 44L5 44L5 45L6 45L6 44L8 44L8 45L9 45L9 43ZM16 43L16 44L17 44L17 45L18 45L18 44L17 44L17 43ZM39 43L39 44L40 44L40 43ZM48 43L48 44L49 44L49 43ZM2 44L2 45L3 45L3 44ZM54 44L54 45L55 45L55 46L54 46L54 47L55 47L55 48L56 48L56 47L55 47L55 46L56 46L56 44ZM13 46L13 48L14 48L14 49L15 49L15 47L14 47L14 46ZM31 46L31 48L32 48L32 49L31 49L31 52L32 52L32 49L33 49L33 48L32 48L32 46ZM29 47L29 48L30 48L30 47ZM27 49L27 52L30 52L30 49ZM49 49L49 52L52 52L52 49ZM53 49L53 50L55 50L55 49ZM28 50L28 51L29 51L29 50ZM50 50L50 51L51 51L51 50ZM15 52L15 53L16 53L16 52ZM42 52L42 53L43 53L43 54L44 54L44 53L45 53L45 52ZM53 52L53 53L54 53L54 52ZM51 53L51 54L50 54L50 56L51 56L51 54L52 54L52 53ZM41 54L41 56L43 56L43 55L42 55L42 54ZM17 55L17 56L18 56L18 55ZM45 56L45 57L46 57L46 56ZM0 0L0 7L7 7L7 0ZM1 1L1 6L6 6L6 1ZM2 2L2 5L5 5L5 2ZM50 0L50 7L57 7L57 0ZM51 1L51 6L56 6L56 1ZM52 2L52 5L55 5L55 2ZM0 50L0 57L7 57L7 50ZM1 51L1 56L6 56L6 51ZM2 52L2 55L5 55L5 52Z" fill="#000000"/></g></g></svg>
