<?xml version="1.0" encoding="UTF-8"?>
<svg xmlns="http://www.w3.org/2000/svg" version="1.1" width="300" height="300" viewBox="0 0 300 300"><rect x="0" y="0" width="300" height="300" fill="#fefefe"/><g transform="scale(4.615)"><g transform="translate(4,4)"><path fill-rule="evenodd" d="M9 0L9 1L8 1L8 2L9 2L9 3L8 3L8 4L9 4L9 5L8 5L8 7L9 7L9 8L6 8L6 9L8 9L8 10L6 10L6 11L5 11L5 12L4 12L4 11L2 11L2 10L3 10L3 9L4 9L4 10L5 10L5 8L0 8L0 9L2 9L2 10L1 10L1 13L0 13L0 17L2 17L2 19L1 19L1 18L0 18L0 20L3 20L3 19L5 19L5 17L7 17L7 16L8 16L8 15L9 15L9 14L10 14L10 15L11 15L11 16L12 16L12 18L15 18L15 21L16 21L16 22L15 22L15 23L14 23L14 21L13 21L13 20L14 20L14 19L11 19L11 18L10 18L10 20L11 20L11 21L12 21L12 22L13 22L13 23L11 23L11 22L10 22L10 21L9 21L9 22L6 22L6 21L7 21L7 20L9 20L9 17L10 17L10 16L9 16L9 17L8 17L8 19L7 19L7 18L6 18L6 19L7 19L7 20L4 20L4 21L3 21L3 22L2 22L2 23L1 23L1 21L0 21L0 25L1 25L1 24L2 24L2 27L3 27L3 29L4 29L4 30L0 30L0 32L2 32L2 31L4 31L4 32L3 32L3 33L4 33L4 32L5 32L5 31L12 31L12 32L10 32L10 33L13 33L13 35L12 35L12 36L14 36L14 37L15 37L15 38L13 38L13 37L12 37L12 38L9 38L9 37L10 37L10 35L7 35L7 34L5 34L5 35L4 35L4 34L2 34L2 35L1 35L1 34L0 34L0 37L1 37L1 36L3 36L3 35L4 35L4 36L6 36L6 37L2 37L2 39L1 39L1 38L0 38L0 41L1 41L1 40L3 40L3 42L2 42L2 44L0 44L0 48L5 48L5 47L7 47L7 48L6 48L6 49L7 49L7 48L8 48L8 51L9 51L9 52L8 52L8 57L9 57L9 54L10 54L10 56L11 56L11 57L12 57L12 56L13 56L13 57L14 57L14 56L15 56L15 57L16 57L16 56L17 56L17 57L22 57L22 56L24 56L24 57L26 57L26 56L27 56L27 57L29 57L29 56L30 56L30 57L31 57L31 56L35 56L35 57L39 57L39 56L41 56L41 57L44 57L44 56L42 56L42 55L44 55L44 54L45 54L45 55L46 55L46 56L48 56L48 55L49 55L49 56L50 56L50 57L52 57L52 55L51 55L51 53L52 53L52 54L53 54L53 55L54 55L54 56L53 56L53 57L54 57L54 56L55 56L55 57L56 57L56 56L55 56L55 55L54 55L54 54L53 54L53 52L54 52L54 53L56 53L56 52L57 52L57 51L56 51L56 50L57 50L57 48L56 48L56 46L57 46L57 43L56 43L56 42L57 42L57 41L56 41L56 42L55 42L55 41L53 41L53 40L55 40L55 39L57 39L57 36L55 36L55 35L56 35L56 34L57 34L57 32L56 32L56 30L57 30L57 28L56 28L56 29L55 29L55 30L53 30L53 29L54 29L54 28L55 28L55 27L56 27L56 26L57 26L57 25L56 25L56 22L57 22L57 21L56 21L56 20L57 20L57 19L56 19L56 18L57 18L57 17L56 17L56 16L57 16L57 15L56 15L56 14L57 14L57 11L56 11L56 10L54 10L54 11L52 11L52 10L53 10L53 9L54 9L54 8L53 8L53 9L52 9L52 8L51 8L51 9L52 9L52 10L49 10L49 9L50 9L50 8L49 8L49 9L48 9L48 7L49 7L49 6L48 6L48 7L47 7L47 5L48 5L48 0L45 0L45 1L47 1L47 2L44 2L44 3L41 3L41 2L43 2L43 0L41 0L41 1L40 1L40 0L39 0L39 1L38 1L38 0L37 0L37 1L38 1L38 2L37 2L37 3L36 3L36 0L35 0L35 1L33 1L33 2L32 2L32 3L31 3L31 2L29 2L29 1L31 1L31 0L29 0L29 1L28 1L28 0L27 0L27 1L26 1L26 0L23 0L23 2L25 2L25 1L26 1L26 2L27 2L27 3L28 3L28 2L29 2L29 4L26 4L26 3L23 3L23 4L22 4L22 5L21 5L21 4L19 4L19 2L21 2L21 3L22 3L22 0L21 0L21 1L20 1L20 0L18 0L18 2L16 2L16 1L14 1L14 0L11 0L11 2L13 2L13 4L14 4L14 2L15 2L15 3L18 3L18 4L17 4L17 6L16 6L16 7L15 7L15 6L14 6L14 5L13 5L13 6L12 6L12 4L11 4L11 3L10 3L10 0ZM13 1L13 2L14 2L14 1ZM33 2L33 3L32 3L32 4L31 4L31 3L30 3L30 4L31 4L31 8L32 8L32 10L31 10L31 11L29 11L29 10L28 10L28 11L29 11L29 12L28 12L28 13L27 13L27 15L26 15L26 14L24 14L24 13L26 13L26 12L27 12L27 11L26 11L26 12L25 12L25 11L23 11L23 12L24 12L24 13L22 13L22 12L21 12L21 13L20 13L20 11L22 11L22 10L23 10L23 9L25 9L25 8L26 8L26 4L25 4L25 8L24 8L24 6L23 6L23 8L19 8L19 9L20 9L20 10L19 10L19 13L20 13L20 15L19 15L19 17L20 17L20 18L19 18L19 20L20 20L20 21L19 21L19 22L20 22L20 23L19 23L19 24L21 24L21 25L20 25L20 30L19 30L19 31L18 31L18 29L19 29L19 25L17 25L17 24L18 24L18 23L17 23L17 24L16 24L16 23L15 23L15 26L18 26L18 27L17 27L17 28L18 28L18 29L16 29L16 28L15 28L15 27L13 27L13 25L14 25L14 24L9 24L9 23L6 23L6 22L5 22L5 21L4 21L4 22L3 22L3 24L4 24L4 25L3 25L3 27L4 27L4 26L5 26L5 25L6 25L6 26L10 26L10 27L9 27L9 29L11 29L11 30L12 30L12 29L13 29L13 32L15 32L15 33L14 33L14 36L15 36L15 37L16 37L16 38L15 38L15 39L16 39L16 40L18 40L18 39L17 39L17 36L16 36L16 35L19 35L19 37L18 37L18 38L19 38L19 39L20 39L20 38L19 38L19 37L23 37L23 38L21 38L21 40L19 40L19 41L15 41L15 42L14 42L14 43L13 43L13 42L12 42L12 40L14 40L14 39L13 39L13 38L12 38L12 40L10 40L10 39L8 39L8 36L7 36L7 35L6 35L6 36L7 36L7 37L6 37L6 38L3 38L3 40L4 40L4 41L5 41L5 43L4 43L4 42L3 42L3 44L4 44L4 45L5 45L5 44L8 44L8 45L9 45L9 44L8 44L8 42L7 42L7 41L9 41L9 42L11 42L11 45L10 45L10 46L9 46L9 47L8 47L8 48L9 48L9 49L10 49L10 48L11 48L11 47L10 47L10 46L12 46L12 48L13 48L13 50L12 50L12 51L11 51L11 52L10 52L10 53L11 53L11 52L14 52L14 49L15 49L15 50L17 50L17 51L15 51L15 52L16 52L16 53L12 53L12 54L11 54L11 55L13 55L13 54L14 54L14 55L15 55L15 56L16 56L16 55L15 55L15 54L16 54L16 53L17 53L17 51L19 51L19 52L20 52L20 53L19 53L19 54L18 54L18 55L19 55L19 56L21 56L21 55L22 55L22 54L23 54L23 55L24 55L24 56L25 56L25 53L24 53L24 52L26 52L26 50L21 50L21 49L23 49L23 48L24 48L24 49L26 49L26 48L27 48L27 47L29 47L29 48L30 48L30 47L29 47L29 46L30 46L30 45L31 45L31 46L32 46L32 45L33 45L33 46L35 46L35 47L33 47L33 48L32 48L32 49L31 49L31 50L32 50L32 51L31 51L31 53L30 53L30 54L26 54L26 55L27 55L27 56L29 56L29 55L30 55L30 56L31 56L31 54L32 54L32 53L33 53L33 54L34 54L34 55L35 55L35 56L36 56L36 54L35 54L35 53L34 53L34 52L35 52L35 50L36 50L36 52L37 52L37 53L38 53L38 54L37 54L37 56L39 56L39 55L38 55L38 54L40 54L40 53L42 53L42 50L41 50L41 48L42 48L42 49L43 49L43 48L44 48L44 49L45 49L45 50L44 50L44 51L45 51L45 52L44 52L44 53L43 53L43 54L44 54L44 53L45 53L45 54L48 54L48 50L47 50L47 49L48 49L48 48L49 48L49 47L48 47L48 46L50 46L50 48L51 48L51 46L54 46L54 45L55 45L55 46L56 46L56 43L55 43L55 44L54 44L54 45L53 45L53 43L54 43L54 42L53 42L53 41L51 41L51 42L50 42L50 43L47 43L47 45L45 45L45 44L46 44L46 43L43 43L43 44L44 44L44 46L47 46L47 47L45 47L45 48L44 48L44 47L43 47L43 46L41 46L41 48L39 48L39 47L40 47L40 46L39 46L39 45L41 45L41 44L42 44L42 42L41 42L41 38L42 38L42 39L45 39L45 38L46 38L46 39L47 39L47 41L45 41L45 40L43 40L43 41L44 41L44 42L48 42L48 41L49 41L49 40L50 40L50 39L52 39L52 40L53 40L53 39L54 39L54 38L53 38L53 35L55 35L55 34L56 34L56 32L54 32L54 31L50 31L50 32L49 32L49 31L48 31L48 30L47 30L47 29L46 29L46 30L47 30L47 31L46 31L46 32L43 32L43 30L41 30L41 29L44 29L44 30L45 30L45 28L46 28L46 27L47 27L47 28L48 28L48 25L49 25L49 24L50 24L50 26L53 26L53 27L54 27L54 26L53 26L53 25L54 25L54 24L53 24L53 23L50 23L50 22L51 22L51 21L54 21L54 23L55 23L55 22L56 22L56 21L55 21L55 20L53 20L53 19L52 19L52 20L51 20L51 21L49 21L49 20L48 20L48 19L49 19L49 18L47 18L47 17L48 17L48 16L49 16L49 17L50 17L50 19L51 19L51 17L53 17L53 18L55 18L55 17L53 17L53 16L51 16L51 17L50 17L50 14L51 14L51 12L50 12L50 11L49 11L49 10L48 10L48 9L45 9L45 8L44 8L44 6L45 6L45 7L46 7L46 6L45 6L45 4L46 4L46 5L47 5L47 3L44 3L44 6L43 6L43 5L40 5L40 4L41 4L41 3L37 3L37 4L36 4L36 5L35 5L35 2ZM9 3L9 4L10 4L10 3ZM15 4L15 5L16 5L16 4ZM18 4L18 6L17 6L17 7L16 7L16 8L15 8L15 7L14 7L14 6L13 6L13 7L12 7L12 6L11 6L11 8L12 8L12 10L13 10L13 8L14 8L14 10L15 10L15 13L13 13L13 12L14 12L14 11L13 11L13 12L11 12L11 11L9 11L9 10L8 10L8 11L6 11L6 12L7 12L7 13L4 13L4 14L5 14L5 15L4 15L4 16L3 16L3 15L1 15L1 16L2 16L2 17L5 17L5 15L6 15L6 16L7 16L7 15L8 15L8 14L7 14L7 13L9 13L9 12L11 12L11 13L13 13L13 15L12 15L12 14L11 14L11 15L12 15L12 16L13 16L13 15L14 15L14 17L15 17L15 18L17 18L17 19L16 19L16 21L17 21L17 19L18 19L18 18L17 18L17 16L18 16L18 15L17 15L17 13L18 13L18 12L17 12L17 11L18 11L18 10L17 10L17 9L16 9L16 8L17 8L17 7L18 7L18 6L19 6L19 7L20 7L20 5L19 5L19 4ZM23 4L23 5L24 5L24 4ZM32 4L32 5L34 5L34 7L33 7L33 6L32 6L32 7L33 7L33 9L34 9L34 8L35 8L35 9L37 9L37 10L36 10L36 12L35 12L35 13L37 13L37 14L38 14L38 15L39 15L39 16L38 16L38 17L37 17L37 16L35 16L35 14L33 14L33 13L34 13L34 12L33 12L33 13L32 13L32 11L33 11L33 10L32 10L32 11L31 11L31 13L30 13L30 14L29 14L29 13L28 13L28 14L29 14L29 16L28 16L28 15L27 15L27 16L28 16L28 17L26 17L26 18L28 18L28 19L27 19L27 20L30 20L30 21L29 21L29 24L31 24L31 25L29 25L29 26L28 26L28 25L27 25L27 26L26 26L26 25L25 25L25 24L27 24L27 22L28 22L28 21L26 21L26 19L25 19L25 17L22 17L22 16L21 16L21 15L23 15L23 16L26 16L26 15L23 15L23 14L22 14L22 13L21 13L21 15L20 15L20 17L22 17L22 18L24 18L24 19L22 19L22 20L21 20L21 19L20 19L20 20L21 20L21 21L22 21L22 22L21 22L21 23L23 23L23 25L22 25L22 26L21 26L21 27L22 27L22 26L23 26L23 31L21 31L21 30L20 30L20 31L19 31L19 32L17 32L17 33L18 33L18 34L20 34L20 31L21 31L21 32L23 32L23 31L25 31L25 32L26 32L26 33L27 33L27 32L28 32L28 33L29 33L29 34L30 34L30 36L29 36L29 37L31 37L31 38L29 38L29 39L33 39L33 40L35 40L35 42L37 42L37 43L34 43L34 42L33 42L33 41L32 41L32 40L29 40L29 41L32 41L32 42L29 42L29 43L28 43L28 44L31 44L31 45L32 45L32 44L33 44L33 43L34 43L34 45L37 45L37 47L36 47L36 48L35 48L35 49L36 49L36 50L38 50L38 51L37 51L37 52L38 52L38 51L40 51L40 52L41 52L41 50L38 50L38 49L39 49L39 48L38 48L38 47L39 47L39 46L38 46L38 45L39 45L39 42L38 42L38 40L39 40L39 38L38 38L38 37L40 37L40 38L41 38L41 37L42 37L42 38L43 38L43 37L44 37L44 38L45 38L45 37L44 37L44 36L46 36L46 37L47 37L47 39L48 39L48 37L50 37L50 38L49 38L49 39L50 39L50 38L51 38L51 37L50 37L50 36L52 36L52 35L53 35L53 34L52 34L52 33L54 33L54 34L55 34L55 33L54 33L54 32L52 32L52 33L51 33L51 32L50 32L50 34L49 34L49 35L47 35L47 36L46 36L46 35L44 35L44 36L43 36L43 37L42 37L42 36L41 36L41 35L42 35L42 34L45 34L45 33L43 33L43 32L41 32L41 33L39 33L39 34L40 34L40 35L38 35L38 33L37 33L37 32L35 32L35 34L37 34L37 35L38 35L38 37L37 37L37 36L35 36L35 35L34 35L34 36L35 36L35 39L33 39L33 37L32 37L32 36L33 36L33 34L32 34L32 35L31 35L31 33L32 33L32 31L35 31L35 30L37 30L37 29L38 29L38 28L42 28L42 26L43 26L43 25L44 25L44 20L45 20L45 18L46 18L46 20L47 20L47 18L46 18L46 16L48 16L48 15L49 15L49 14L50 14L50 12L49 12L49 11L48 11L48 12L49 12L49 13L47 13L47 14L45 14L45 13L44 13L44 11L45 11L45 12L47 12L47 10L44 10L44 8L43 8L43 9L41 9L41 10L40 10L40 11L39 11L39 10L38 10L38 9L39 9L39 8L40 8L40 7L41 7L41 6L40 6L40 5L39 5L39 6L38 6L38 7L37 7L37 5L38 5L38 4L37 4L37 5L36 5L36 7L37 7L37 8L35 8L35 5L34 5L34 4ZM9 5L9 7L10 7L10 5ZM27 5L27 8L30 8L30 5ZM21 6L21 7L22 7L22 6ZM28 6L28 7L29 7L29 6ZM39 6L39 7L40 7L40 6ZM42 6L42 7L43 7L43 6ZM9 8L9 9L10 9L10 10L11 10L11 9L10 9L10 8ZM37 8L37 9L38 9L38 8ZM55 8L55 9L56 9L56 8ZM15 9L15 10L16 10L16 9ZM21 9L21 10L22 10L22 9ZM37 10L37 11L38 11L38 10ZM41 10L41 12L39 12L39 13L38 13L38 14L39 14L39 13L40 13L40 14L41 14L41 16L39 16L39 17L38 17L38 18L37 18L37 17L35 17L35 16L31 16L31 18L30 18L30 19L33 19L33 20L32 20L32 21L31 21L31 22L30 22L30 23L31 23L31 24L32 24L32 26L31 26L31 28L32 28L32 29L31 29L31 30L35 30L35 28L33 28L33 27L34 27L34 26L36 26L36 28L37 28L37 27L41 27L41 26L42 26L42 25L41 25L41 24L38 24L38 22L39 22L39 23L40 23L40 22L39 22L39 21L43 21L43 20L44 20L44 18L45 18L45 14L44 14L44 13L43 13L43 11L44 11L44 10L43 10L43 11L42 11L42 10ZM2 12L2 13L1 13L1 14L2 14L2 13L3 13L3 12ZM16 12L16 13L15 13L15 14L14 14L14 15L15 15L15 17L16 17L16 13L17 13L17 12ZM52 12L52 13L53 13L53 15L54 15L54 14L56 14L56 12L54 12L54 13L53 13L53 12ZM31 13L31 14L30 14L30 15L31 15L31 14L32 14L32 13ZM41 13L41 14L43 14L43 13ZM6 14L6 15L7 15L7 14ZM42 15L42 16L41 16L41 17L39 17L39 19L37 19L37 20L36 20L36 19L35 19L35 23L34 23L34 22L33 22L33 23L32 23L32 24L33 24L33 25L37 25L37 26L38 26L38 24L37 24L37 22L38 22L38 21L39 21L39 20L41 20L41 18L42 18L42 19L43 19L43 18L44 18L44 15ZM42 16L42 17L43 17L43 16ZM32 17L32 18L33 18L33 17ZM22 20L22 21L24 21L24 22L23 22L23 23L24 23L24 24L25 24L25 23L26 23L26 22L25 22L25 21L24 21L24 20ZM37 20L37 21L38 21L38 20ZM45 21L45 22L46 22L46 23L45 23L45 24L47 24L47 25L48 25L48 24L47 24L47 22L49 22L49 21L47 21L47 22L46 22L46 21ZM41 22L41 23L42 23L42 24L43 24L43 22ZM5 23L5 24L6 24L6 25L7 25L7 24L6 24L6 23ZM11 25L11 27L12 27L12 28L13 28L13 27L12 27L12 25ZM39 25L39 26L41 26L41 25ZM55 25L55 26L56 26L56 25ZM25 26L25 27L26 27L26 26ZM32 26L32 27L33 27L33 26ZM5 27L5 30L8 30L8 27ZM27 27L27 30L30 30L30 27ZM43 27L43 28L45 28L45 27ZM49 27L49 30L52 30L52 27ZM0 28L0 29L2 29L2 28ZM6 28L6 29L7 29L7 28ZM14 28L14 29L15 29L15 31L16 31L16 29L15 29L15 28ZM21 28L21 29L22 29L22 28ZM25 28L25 29L26 29L26 28ZM28 28L28 29L29 29L29 28ZM50 28L50 29L51 29L51 28ZM39 29L39 30L38 30L38 32L39 32L39 30L40 30L40 29ZM29 31L29 33L31 33L31 31ZM47 31L47 32L46 32L46 33L47 33L47 32L48 32L48 33L49 33L49 32L48 32L48 31ZM6 32L6 33L8 33L8 34L9 34L9 32ZM21 33L21 35L22 35L22 33ZM23 33L23 34L24 34L24 36L23 36L23 37L24 37L24 38L23 38L23 39L22 39L22 40L23 40L23 41L24 41L24 42L22 42L22 41L21 41L21 42L20 42L20 41L19 41L19 42L18 42L18 43L17 43L17 42L15 42L15 43L16 43L16 44L18 44L18 45L17 45L17 48L16 48L16 47L14 47L14 48L15 48L15 49L17 49L17 50L19 50L19 51L20 51L20 52L22 52L22 51L21 51L21 50L20 50L20 49L21 49L21 48L20 48L20 45L19 45L19 42L20 42L20 43L21 43L21 44L22 44L22 45L21 45L21 47L23 47L23 46L24 46L24 48L25 48L25 44L27 44L27 43L25 43L25 41L24 41L24 40L25 40L25 37L26 37L26 36L27 36L27 35L26 35L26 34L25 34L25 33ZM50 34L50 35L49 35L49 36L50 36L50 35L52 35L52 34ZM40 36L40 37L41 37L41 36ZM47 36L47 37L48 37L48 36ZM27 37L27 38L26 38L26 40L27 40L27 41L26 41L26 42L27 42L27 41L28 41L28 39L27 39L27 38L28 38L28 37ZM6 38L6 39L5 39L5 40L6 40L6 41L7 41L7 40L6 40L6 39L7 39L7 38ZM37 38L37 39L35 39L35 40L38 40L38 38ZM52 38L52 39L53 39L53 38ZM23 39L23 40L24 40L24 39ZM9 40L9 41L10 41L10 40ZM0 42L0 43L1 43L1 42ZM6 42L6 43L7 43L7 42ZM21 42L21 43L22 43L22 42ZM32 42L32 43L31 43L31 44L32 44L32 43L33 43L33 42ZM40 42L40 43L41 43L41 42ZM51 42L51 43L50 43L50 44L51 44L51 45L50 45L50 46L51 46L51 45L52 45L52 44L51 44L51 43L53 43L53 42ZM24 43L24 44L23 44L23 45L22 45L22 46L23 46L23 45L24 45L24 44L25 44L25 43ZM12 44L12 46L13 46L13 44ZM1 45L1 47L2 47L2 46L3 46L3 47L5 47L5 46L3 46L3 45ZM6 45L6 46L7 46L7 45ZM14 45L14 46L15 46L15 45ZM26 45L26 47L27 47L27 45ZM47 45L47 46L48 46L48 45ZM9 47L9 48L10 48L10 47ZM18 47L18 48L19 48L19 47ZM42 47L42 48L43 48L43 47ZM47 47L47 48L45 48L45 49L47 49L47 48L48 48L48 47ZM37 48L37 49L38 49L38 48ZM55 48L55 50L54 50L54 51L55 51L55 52L56 52L56 51L55 51L55 50L56 50L56 48ZM27 49L27 52L30 52L30 49ZM32 49L32 50L33 50L33 51L32 51L32 52L33 52L33 51L34 51L34 50L33 50L33 49ZM49 49L49 52L52 52L52 49ZM9 50L9 51L10 51L10 50ZM28 50L28 51L29 51L29 50ZM45 50L45 51L46 51L46 52L45 52L45 53L47 53L47 51L46 51L46 50ZM50 50L50 51L51 51L51 50ZM23 53L23 54L24 54L24 53ZM19 54L19 55L20 55L20 54ZM41 54L41 55L42 55L42 54ZM50 55L50 56L51 56L51 55ZM0 0L0 7L7 7L7 0ZM1 1L1 6L6 6L6 1ZM2 2L2 5L5 5L5 2ZM50 0L50 7L57 7L57 0ZM51 1L51 6L56 6L56 1ZM52 2L52 5L55 5L55 2ZM0 50L0 57L7 57L7 50ZM1 51L1 56L6 56L6 51ZM2 52L2 55L5 55L5 52Z" fill="#000000"/></g></g></svg>
