<?xml version="1.0" encoding="UTF-8"?>
<svg xmlns="http://www.w3.org/2000/svg" version="1.1" width="300" height="300" viewBox="0 0 300 300"><rect x="0" y="0" width="300" height="300" fill="#fefefe"/><g transform="scale(4.615)"><g transform="translate(4,4)"><path fill-rule="evenodd" d="M9 0L9 1L8 1L8 2L10 2L10 3L11 3L11 4L12 4L12 7L11 7L11 6L10 6L10 8L6 8L6 9L7 9L7 10L6 10L6 11L7 11L7 12L6 12L6 13L7 13L7 12L8 12L8 14L5 14L5 10L3 10L3 9L5 9L5 8L0 8L0 9L1 9L1 10L0 10L0 12L1 12L1 10L3 10L3 11L2 11L2 12L3 12L3 11L4 11L4 13L2 13L2 16L1 16L1 17L0 17L0 24L1 24L1 22L2 22L2 21L3 21L3 22L4 22L4 23L5 23L5 25L4 25L4 24L3 24L3 23L2 23L2 25L0 25L0 28L1 28L1 27L2 27L2 28L3 28L3 29L4 29L4 30L2 30L2 29L1 29L1 30L0 30L0 31L1 31L1 32L0 32L0 33L1 33L1 32L2 32L2 34L3 34L3 33L4 33L4 35L7 35L7 36L4 36L4 41L3 41L3 42L2 42L2 39L3 39L3 37L2 37L2 36L3 36L3 35L2 35L2 36L1 36L1 35L0 35L0 38L2 38L2 39L0 39L0 40L1 40L1 41L0 41L0 43L1 43L1 44L0 44L0 45L1 45L1 46L0 46L0 48L5 48L5 47L8 47L8 48L6 48L6 49L8 49L8 51L9 51L9 52L8 52L8 57L10 57L10 56L12 56L12 57L13 57L13 56L12 56L12 55L11 55L11 54L10 54L10 55L9 55L9 52L11 52L11 53L12 53L12 52L13 52L13 55L14 55L14 56L15 56L15 57L16 57L16 56L17 56L17 57L20 57L20 56L19 56L19 55L20 55L20 54L19 54L19 53L20 53L20 52L21 52L21 53L22 53L22 55L23 55L23 56L24 56L24 55L23 55L23 54L24 54L24 53L26 53L26 56L25 56L25 57L26 57L26 56L27 56L27 57L29 57L29 56L30 56L30 57L31 57L31 56L35 56L35 57L39 57L39 56L37 56L37 54L38 54L38 55L40 55L40 56L42 56L42 55L44 55L44 54L45 54L45 55L46 55L46 54L45 54L45 53L47 53L47 50L48 50L48 54L47 54L47 56L46 56L46 57L47 57L47 56L50 56L50 57L52 57L52 55L51 55L51 53L52 53L52 54L53 54L53 52L54 52L54 54L55 54L55 53L57 53L57 52L56 52L56 50L55 50L55 48L56 48L56 49L57 49L57 48L56 48L56 46L57 46L57 43L56 43L56 41L55 41L55 39L57 39L57 37L56 37L56 36L57 36L57 35L56 35L56 34L55 34L55 32L56 32L56 33L57 33L57 32L56 32L56 30L57 30L57 29L54 29L54 28L55 28L55 27L56 27L56 28L57 28L57 27L56 27L56 26L57 26L57 25L56 25L56 22L57 22L57 19L56 19L56 18L57 18L57 17L56 17L56 16L57 16L57 15L56 15L56 14L57 14L57 12L56 12L56 14L55 14L55 13L54 13L54 12L55 12L55 11L56 11L56 8L55 8L55 10L54 10L54 11L52 11L52 10L53 10L53 9L54 9L54 8L53 8L53 9L52 9L52 8L51 8L51 9L52 9L52 10L50 10L50 8L49 8L49 6L48 6L48 7L47 7L47 5L48 5L48 0L46 0L46 1L47 1L47 2L44 2L44 3L41 3L41 2L43 2L43 0L41 0L41 1L40 1L40 0L39 0L39 1L38 1L38 0L37 0L37 1L38 1L38 3L41 3L41 4L40 4L40 5L39 5L39 6L38 6L38 7L37 7L37 5L38 5L38 4L37 4L37 3L36 3L36 0L35 0L35 1L33 1L33 0L32 0L32 1L31 1L31 0L29 0L29 1L31 1L31 2L32 2L32 3L31 3L31 4L26 4L26 3L23 3L23 4L24 4L24 5L23 5L23 6L22 6L22 7L21 7L21 4L19 4L19 3L20 3L20 2L21 2L21 3L22 3L22 0L21 0L21 1L20 1L20 0L17 0L17 1L18 1L18 2L15 2L15 1L14 1L14 2L12 2L12 3L11 3L11 2L10 2L10 1L11 1L11 0ZM12 0L12 1L13 1L13 0ZM23 0L23 2L28 2L28 3L29 3L29 2L28 2L28 1L25 1L25 0ZM32 1L32 2L33 2L33 3L32 3L32 4L31 4L31 8L32 8L32 10L31 10L31 11L30 11L30 10L29 10L29 12L28 12L28 13L27 13L27 15L26 15L26 12L27 12L27 11L26 11L26 12L25 12L25 10L24 10L24 13L22 13L22 12L21 12L21 11L22 11L22 10L23 10L23 9L24 9L24 6L23 6L23 7L22 7L22 8L19 8L19 7L20 7L20 5L19 5L19 4L17 4L17 3L15 3L15 2L14 2L14 4L13 4L13 3L12 3L12 4L13 4L13 8L12 8L12 9L10 9L10 12L11 12L11 11L12 11L12 10L17 10L17 11L15 11L15 13L12 13L12 14L11 14L11 15L10 15L10 14L8 14L8 16L9 16L9 17L8 17L8 18L9 18L9 19L11 19L11 21L12 21L12 19L14 19L14 20L13 20L13 21L14 21L14 22L16 22L16 21L17 21L17 22L18 22L18 21L17 21L17 20L18 20L18 19L19 19L19 20L20 20L20 21L19 21L19 22L20 22L20 23L19 23L19 24L21 24L21 25L20 25L20 26L21 26L21 25L24 25L24 24L25 24L25 25L26 25L26 26L24 26L24 27L26 27L26 26L28 26L28 25L31 25L31 24L32 24L32 26L31 26L31 28L32 28L32 31L27 31L27 32L26 32L26 31L25 31L25 30L24 30L24 32L20 32L20 31L23 31L23 26L22 26L22 27L21 27L21 28L22 28L22 29L19 29L19 28L20 28L20 27L19 27L19 25L17 25L17 24L18 24L18 23L17 23L17 24L16 24L16 23L13 23L13 24L12 24L12 23L11 23L11 22L10 22L10 23L11 23L11 24L10 24L10 25L9 25L9 23L8 23L8 21L6 21L6 20L7 20L7 19L6 19L6 18L7 18L7 17L6 17L6 16L7 16L7 15L6 15L6 16L5 16L5 17L3 17L3 16L4 16L4 15L5 15L5 14L3 14L3 16L2 16L2 17L1 17L1 20L3 20L3 19L2 19L2 17L3 17L3 18L4 18L4 20L5 20L5 21L4 21L4 22L5 22L5 23L6 23L6 24L7 24L7 25L5 25L5 26L8 26L8 25L9 25L9 27L10 27L10 29L9 29L9 31L10 31L10 32L11 32L11 33L12 33L12 35L11 35L11 34L10 34L10 35L9 35L9 33L8 33L8 32L7 32L7 31L5 31L5 32L4 32L4 31L2 31L2 30L1 30L1 31L2 31L2 32L4 32L4 33L5 33L5 34L7 34L7 35L9 35L9 36L7 36L7 37L5 37L5 38L8 38L8 39L5 39L5 40L8 40L8 39L9 39L9 38L8 38L8 37L9 37L9 36L10 36L10 38L12 38L12 39L11 39L11 40L13 40L13 41L14 41L14 40L13 40L13 38L12 38L12 37L16 37L16 38L14 38L14 39L16 39L16 40L17 40L17 37L18 37L18 38L19 38L19 39L18 39L18 40L19 40L19 41L18 41L18 42L17 42L17 41L15 41L15 42L17 42L17 43L18 43L18 42L19 42L19 43L20 43L20 44L21 44L21 45L19 45L19 46L17 46L17 45L18 45L18 44L16 44L16 43L15 43L15 44L14 44L14 42L13 42L13 45L14 45L14 46L15 46L15 47L14 47L14 50L15 50L15 51L14 51L14 55L15 55L15 56L16 56L16 55L15 55L15 54L16 54L16 53L17 53L17 52L18 52L18 50L19 50L19 49L17 49L17 47L19 47L19 48L20 48L20 51L21 51L21 49L23 49L23 47L24 47L24 46L23 46L23 45L24 45L24 44L25 44L25 48L24 48L24 49L25 49L25 50L23 50L23 52L22 52L22 53L24 53L24 52L26 52L26 49L25 49L25 48L27 48L27 47L26 47L26 45L27 45L27 46L31 46L31 47L33 47L33 46L35 46L35 47L34 47L34 50L33 50L33 48L31 48L31 49L32 49L32 50L31 50L31 53L30 53L30 54L27 54L27 56L29 56L29 55L30 55L30 56L31 56L31 54L32 54L32 53L33 53L33 55L35 55L35 56L36 56L36 54L35 54L35 53L34 53L34 52L35 52L35 51L34 51L34 50L36 50L36 52L37 52L37 53L38 53L38 54L40 54L40 53L41 53L41 52L42 52L42 50L41 50L41 48L42 48L42 49L43 49L43 48L44 48L44 50L43 50L43 51L45 51L45 52L44 52L44 53L43 53L43 54L44 54L44 53L45 53L45 52L46 52L46 50L47 50L47 49L48 49L48 48L49 48L49 47L48 47L48 46L47 46L47 45L48 45L48 44L50 44L50 45L49 45L49 46L50 46L50 47L51 47L51 48L52 48L52 47L51 47L51 46L53 46L53 45L52 45L52 44L53 44L53 43L54 43L54 42L53 42L53 41L51 41L51 42L50 42L50 43L49 43L49 42L48 42L48 41L49 41L49 40L50 40L50 39L54 39L54 38L53 38L53 35L55 35L55 34L54 34L54 32L53 32L53 31L51 31L51 33L52 33L52 34L50 34L50 31L48 31L48 28L47 28L47 29L46 29L46 30L47 30L47 31L45 31L45 28L46 28L46 27L47 27L47 25L49 25L49 24L50 24L50 22L51 22L51 21L53 21L53 23L51 23L51 25L50 25L50 26L53 26L53 27L54 27L54 26L53 26L53 23L55 23L55 22L56 22L56 21L55 21L55 20L56 20L56 19L55 19L55 20L53 20L53 19L52 19L52 18L51 18L51 17L50 17L50 16L52 16L52 17L53 17L53 18L55 18L55 16L52 16L52 15L50 15L50 14L51 14L51 12L50 12L50 10L48 10L48 11L47 11L47 12L45 12L45 11L46 11L46 10L47 10L47 8L46 8L46 5L47 5L47 3L44 3L44 6L43 6L43 7L44 7L44 9L46 9L46 10L45 10L45 11L44 11L44 14L40 14L40 15L41 15L41 16L39 16L39 15L38 15L38 14L39 14L39 13L43 13L43 11L42 11L42 10L41 10L41 7L42 7L42 6L41 6L41 5L40 5L40 6L39 6L39 7L40 7L40 8L39 8L39 9L38 9L38 8L37 8L37 7L36 7L36 5L37 5L37 4L36 4L36 5L35 5L35 2L33 2L33 1ZM8 3L8 4L9 4L9 5L8 5L8 7L9 7L9 5L10 5L10 4L9 4L9 3ZM15 4L15 5L14 5L14 7L15 7L15 9L17 9L17 10L18 10L18 11L17 11L17 12L16 12L16 13L15 13L15 14L12 14L12 16L10 16L10 15L9 15L9 16L10 16L10 17L9 17L9 18L10 18L10 17L11 17L11 19L12 19L12 18L13 18L13 17L14 17L14 18L15 18L15 17L17 17L17 19L15 19L15 21L16 21L16 20L17 20L17 19L18 19L18 18L20 18L20 16L19 16L19 15L20 15L20 11L21 11L21 10L22 10L22 9L21 9L21 10L20 10L20 9L19 9L19 8L18 8L18 7L19 7L19 6L18 6L18 5L17 5L17 6L16 6L16 7L15 7L15 5L16 5L16 4ZM25 4L25 8L26 8L26 4ZM32 4L32 5L33 5L33 4ZM45 4L45 5L46 5L46 4ZM27 5L27 8L30 8L30 5ZM34 5L34 7L33 7L33 6L32 6L32 7L33 7L33 9L34 9L34 8L35 8L35 9L37 9L37 10L36 10L36 12L35 12L35 13L36 13L36 14L33 14L33 13L34 13L34 12L33 12L33 10L32 10L32 11L31 11L31 13L30 13L30 14L29 14L29 13L28 13L28 14L29 14L29 16L28 16L28 15L27 15L27 16L26 16L26 15L25 15L25 13L24 13L24 14L22 14L22 13L21 13L21 15L24 15L24 16L26 16L26 17L27 17L27 18L28 18L28 19L27 19L27 20L28 20L28 19L29 19L29 20L30 20L30 21L29 21L29 22L30 22L30 23L31 23L31 21L32 21L32 20L33 20L33 19L30 19L30 18L33 18L33 17L32 17L32 15L33 15L33 16L35 16L35 17L37 17L37 18L38 18L38 17L39 17L39 19L37 19L37 20L36 20L36 19L35 19L35 20L34 20L34 21L35 21L35 23L34 23L34 22L33 22L33 23L32 23L32 24L33 24L33 25L37 25L37 26L38 26L38 24L41 24L41 25L39 25L39 26L40 26L40 27L36 27L36 26L34 26L34 27L33 27L33 26L32 26L32 27L33 27L33 28L35 28L35 30L33 30L33 31L32 31L32 32L31 32L31 33L29 33L29 32L28 32L28 33L29 33L29 34L30 34L30 36L29 36L29 37L31 37L31 38L29 38L29 39L33 39L33 40L35 40L35 42L37 42L37 43L36 43L36 44L35 44L35 43L34 43L34 42L33 42L33 41L32 41L32 40L29 40L29 43L28 43L28 44L29 44L29 43L31 43L31 44L33 44L33 43L34 43L34 45L35 45L35 46L37 46L37 47L36 47L36 48L35 48L35 49L36 49L36 50L38 50L38 51L37 51L37 52L38 52L38 53L39 53L39 51L40 51L40 52L41 52L41 50L38 50L38 49L39 49L39 48L41 48L41 46L43 46L43 47L42 47L42 48L43 48L43 47L44 47L44 46L45 46L45 47L47 47L47 48L48 48L48 47L47 47L47 46L45 46L45 45L47 45L47 43L48 43L48 42L47 42L47 43L46 43L46 42L45 42L45 41L47 41L47 39L50 39L50 38L51 38L51 37L52 37L52 35L53 35L53 34L52 34L52 35L50 35L50 34L48 34L48 35L47 35L47 34L45 34L45 35L44 35L44 33L43 33L43 32L45 32L45 33L46 33L46 32L45 32L45 31L44 31L44 29L39 29L39 30L38 30L38 32L39 32L39 31L41 31L41 30L43 30L43 32L41 32L41 33L39 33L39 34L40 34L40 35L39 35L39 37L40 37L40 38L41 38L41 41L39 41L39 42L38 42L38 40L40 40L40 39L38 39L38 40L35 40L35 39L37 39L37 38L38 38L38 37L37 37L37 36L38 36L38 33L37 33L37 32L34 32L34 31L36 31L36 30L37 30L37 29L38 29L38 28L40 28L40 27L41 27L41 28L42 28L42 26L43 26L43 25L44 25L44 27L43 27L43 28L45 28L45 25L44 25L44 24L41 24L41 22L43 22L43 23L44 23L44 20L45 20L45 21L47 21L47 22L45 22L45 24L46 24L46 25L47 25L47 24L48 24L48 23L49 23L49 21L51 21L51 20L52 20L52 19L49 19L49 18L50 18L50 17L49 17L49 16L48 16L48 15L49 15L49 14L50 14L50 12L49 12L49 13L47 13L47 14L45 14L45 15L47 15L47 16L48 16L48 17L47 17L47 19L45 19L45 18L44 18L44 15L42 15L42 16L41 16L41 17L39 17L39 16L38 16L38 17L37 17L37 16L35 16L35 15L37 15L37 14L38 14L38 13L39 13L39 12L41 12L41 10L40 10L40 9L39 9L39 10L38 10L38 9L37 9L37 8L35 8L35 5ZM17 6L17 7L16 7L16 8L17 8L17 7L18 7L18 6ZM28 6L28 7L29 7L29 6ZM40 6L40 7L41 7L41 6ZM44 6L44 7L45 7L45 6ZM13 8L13 9L14 9L14 8ZM42 8L42 9L43 9L43 8ZM48 8L48 9L49 9L49 8ZM8 9L8 10L7 10L7 11L9 11L9 9ZM27 9L27 10L28 10L28 9ZM37 10L37 11L38 11L38 10ZM13 11L13 12L14 12L14 11ZM17 12L17 13L16 13L16 16L18 16L18 15L19 15L19 14L17 14L17 13L18 13L18 12ZM32 12L32 13L31 13L31 14L30 14L30 15L31 15L31 14L32 14L32 13L33 13L33 12ZM52 12L52 13L53 13L53 14L54 14L54 13L53 13L53 12ZM13 15L13 16L12 16L12 17L13 17L13 16L14 16L14 17L15 17L15 16L14 16L14 15ZM21 16L21 17L22 17L22 18L24 18L24 19L20 19L20 20L24 20L24 21L23 21L23 22L24 22L24 21L25 21L25 22L26 22L26 23L25 23L25 24L29 24L29 23L27 23L27 22L28 22L28 21L25 21L25 20L26 20L26 19L25 19L25 17L22 17L22 16ZM27 16L27 17L28 17L28 16ZM42 16L42 17L43 17L43 16ZM45 16L45 17L46 17L46 16ZM41 18L41 19L42 19L42 18ZM43 18L43 20L44 20L44 18ZM5 19L5 20L6 20L6 19ZM48 19L48 20L47 20L47 21L48 21L48 20L49 20L49 19ZM9 20L9 21L10 21L10 20ZM39 20L39 21L38 21L38 23L37 23L37 24L38 24L38 23L40 23L40 22L39 22L39 21L42 21L42 20ZM21 21L21 22L22 22L22 21ZM6 22L6 23L7 23L7 24L8 24L8 23L7 23L7 22ZM21 23L21 24L24 24L24 23ZM46 23L46 24L47 24L47 23ZM11 24L11 29L10 29L10 31L11 31L11 32L12 32L12 33L13 33L13 32L12 32L12 31L13 31L13 29L12 29L12 27L13 27L13 28L14 28L14 30L15 30L15 31L16 31L16 29L18 29L18 30L17 30L17 31L20 31L20 30L19 30L19 29L18 29L18 28L17 28L17 27L18 27L18 26L15 26L15 25L16 25L16 24L15 24L15 25L14 25L14 24L13 24L13 25L14 25L14 27L13 27L13 26L12 26L12 24ZM2 25L2 27L3 27L3 25ZM55 25L55 26L56 26L56 25ZM5 27L5 30L8 30L8 27ZM27 27L27 30L30 30L30 27ZM35 27L35 28L36 28L36 27ZM49 27L49 30L52 30L52 27ZM6 28L6 29L7 29L7 28ZM15 28L15 29L16 29L16 28ZM25 28L25 29L26 29L26 28ZM28 28L28 29L29 29L29 28ZM50 28L50 29L51 29L51 28ZM11 29L11 31L12 31L12 29ZM53 29L53 30L54 30L54 29ZM47 31L47 32L48 32L48 33L49 33L49 32L48 32L48 31ZM5 32L5 33L7 33L7 34L8 34L8 33L7 33L7 32ZM14 32L14 33L15 33L15 34L16 34L16 35L17 35L17 36L18 36L18 37L19 37L19 38L20 38L20 39L19 39L19 40L20 40L20 41L19 41L19 42L20 42L20 41L21 41L21 42L22 42L22 43L21 43L21 44L22 44L22 45L21 45L21 47L23 47L23 46L22 46L22 45L23 45L23 43L24 43L24 42L25 42L25 41L24 41L24 40L25 40L25 39L27 39L27 41L26 41L26 42L27 42L27 41L28 41L28 39L27 39L27 38L28 38L28 37L27 37L27 36L26 36L26 35L27 35L27 33L26 33L26 32L25 32L25 33L23 33L23 34L22 34L22 33L21 33L21 34L20 34L20 33L19 33L19 32L16 32L16 33L15 33L15 32ZM32 32L32 33L31 33L31 34L32 34L32 35L33 35L33 36L32 36L32 37L33 37L33 39L35 39L35 36L37 36L37 34L35 34L35 33L34 33L34 32ZM52 32L52 33L53 33L53 32ZM16 33L16 34L17 34L17 33ZM18 33L18 34L19 34L19 37L21 37L21 41L22 41L22 42L23 42L23 40L24 40L24 39L22 39L22 38L24 38L24 37L23 37L23 36L24 36L24 34L23 34L23 35L22 35L22 34L21 34L21 35L20 35L20 34L19 34L19 33ZM25 33L25 35L26 35L26 33ZM33 33L33 34L34 34L34 36L35 36L35 34L34 34L34 33ZM42 34L42 35L43 35L43 36L42 36L42 37L41 37L41 36L40 36L40 37L41 37L41 38L42 38L42 39L43 39L43 40L42 40L42 41L43 41L43 42L44 42L44 43L43 43L43 44L44 44L44 45L45 45L45 44L46 44L46 43L45 43L45 42L44 42L44 41L45 41L45 40L44 40L44 39L45 39L45 38L46 38L46 39L47 39L47 37L48 37L48 38L50 38L50 35L48 35L48 36L44 36L44 35L43 35L43 34ZM12 35L12 36L13 36L13 35ZM21 35L21 36L22 36L22 35ZM43 36L43 37L42 37L42 38L43 38L43 37L44 37L44 38L45 38L45 37L44 37L44 36ZM48 36L48 37L49 37L49 36ZM25 37L25 38L27 38L27 37ZM43 40L43 41L44 41L44 40ZM6 41L6 42L5 42L5 43L4 43L4 44L3 44L3 43L2 43L2 44L3 44L3 45L4 45L4 46L3 46L3 47L5 47L5 45L6 45L6 46L8 46L8 45L9 45L9 46L10 46L10 45L9 45L9 43L10 43L10 42L9 42L9 41ZM11 41L11 43L12 43L12 41ZM31 41L31 42L32 42L32 43L33 43L33 42L32 42L32 41ZM6 42L6 43L5 43L5 44L6 44L6 45L8 45L8 43L7 43L7 42ZM41 42L41 44L39 44L39 45L38 45L38 46L39 46L39 47L38 47L38 48L37 48L37 49L38 49L38 48L39 48L39 47L40 47L40 46L41 46L41 44L42 44L42 42ZM51 42L51 43L50 43L50 44L51 44L51 43L53 43L53 42ZM6 43L6 44L7 44L7 43ZM25 43L25 44L27 44L27 43ZM55 43L55 44L54 44L54 45L55 45L55 46L54 46L54 47L55 47L55 46L56 46L56 43ZM11 44L11 45L12 45L12 44ZM31 45L31 46L32 46L32 45ZM1 46L1 47L2 47L2 46ZM12 46L12 47L9 47L9 49L11 49L11 52L12 52L12 51L13 51L13 50L12 50L12 49L11 49L11 48L13 48L13 46ZM28 47L28 48L30 48L30 47ZM45 48L45 50L46 50L46 48ZM53 48L53 49L54 49L54 48ZM27 49L27 52L30 52L30 49ZM49 49L49 52L52 52L52 49ZM9 50L9 51L10 51L10 50ZM28 50L28 51L29 51L29 50ZM32 50L32 52L33 52L33 50ZM50 50L50 51L51 51L51 50ZM54 50L54 51L55 51L55 50ZM15 51L15 53L16 53L16 51ZM17 54L17 55L19 55L19 54ZM41 54L41 55L42 55L42 54ZM50 55L50 56L51 56L51 55ZM53 55L53 56L55 56L55 57L56 57L56 56L55 56L55 55ZM43 56L43 57L44 57L44 56ZM0 0L0 7L7 7L7 0ZM1 1L1 6L6 6L6 1ZM2 2L2 5L5 5L5 2ZM50 0L50 7L57 7L57 0ZM51 1L51 6L56 6L56 1ZM52 2L52 5L55 5L55 2ZM0 50L0 57L7 57L7 50ZM1 51L1 56L6 56L6 51ZM2 52L2 55L5 55L5 52Z" fill="#000000"/></g></g></svg>
