<?xml version="1.0" encoding="UTF-8"?>
<svg xmlns="http://www.w3.org/2000/svg" version="1.1" width="300" height="300" viewBox="0 0 300 300"><rect x="0" y="0" width="300" height="300" fill="#fefefe"/><g transform="scale(4.615)"><g transform="translate(4,4)"><path fill-rule="evenodd" d="M10 0L10 1L11 1L11 2L10 2L10 3L8 3L8 4L9 4L9 5L8 5L8 7L9 7L9 5L11 5L11 6L10 6L10 7L11 7L11 8L6 8L6 9L5 9L5 8L0 8L0 9L1 9L1 10L0 10L0 12L2 12L2 13L3 13L3 14L5 14L5 18L3 18L3 19L2 19L2 20L1 20L1 21L2 21L2 20L3 20L3 23L2 23L2 24L3 24L3 25L2 25L2 26L3 26L3 27L1 27L1 28L0 28L0 31L1 31L1 32L0 32L0 33L1 33L1 32L2 32L2 31L3 31L3 32L4 32L4 33L2 33L2 36L1 36L1 37L2 37L2 39L0 39L0 44L1 44L1 46L0 46L0 48L5 48L5 47L7 47L7 48L6 48L6 49L8 49L8 51L9 51L9 52L8 52L8 57L9 57L9 56L10 56L10 57L13 57L13 56L11 56L11 54L9 54L9 53L10 53L10 52L11 52L11 51L9 51L9 49L11 49L11 47L12 47L12 48L13 48L13 47L12 47L12 46L10 46L10 43L9 43L9 44L8 44L8 45L7 45L7 44L6 44L6 43L8 43L8 42L11 42L11 45L12 45L12 44L13 44L13 46L14 46L14 47L15 47L15 48L14 48L14 49L12 49L12 52L13 52L13 53L14 53L14 55L16 55L16 56L14 56L14 57L16 57L16 56L17 56L17 57L20 57L20 56L17 56L17 54L19 54L19 55L20 55L20 54L19 54L19 53L20 53L20 52L23 52L23 50L26 50L26 52L24 52L24 53L23 53L23 54L22 54L22 53L21 53L21 54L22 54L22 55L21 55L21 56L24 56L24 57L26 57L26 56L27 56L27 57L29 57L29 56L30 56L30 57L31 57L31 56L35 56L35 57L39 57L39 56L40 56L40 55L41 55L41 54L42 54L42 55L44 55L44 56L43 56L43 57L44 57L44 56L45 56L45 57L47 57L47 55L49 55L49 56L50 56L50 57L52 57L52 55L51 55L51 53L52 53L52 54L53 54L53 57L54 57L54 56L55 56L55 57L56 57L56 56L55 56L55 54L53 54L53 52L54 52L54 53L55 53L55 51L56 51L56 52L57 52L57 51L56 51L56 50L57 50L57 48L56 48L56 46L57 46L57 45L56 45L56 44L55 44L55 43L56 43L56 42L57 42L57 41L56 41L56 42L55 42L55 39L57 39L57 36L56 36L56 33L57 33L57 32L56 32L56 30L57 30L57 28L56 28L56 29L55 29L55 31L53 31L53 29L54 29L54 28L55 28L55 27L56 27L56 26L57 26L57 25L56 25L56 22L57 22L57 19L56 19L56 16L57 16L57 15L56 15L56 14L57 14L57 11L56 11L56 8L55 8L55 10L54 10L54 11L52 11L52 10L51 10L51 11L50 11L50 8L49 8L49 6L48 6L48 7L47 7L47 5L48 5L48 0L45 0L45 2L44 2L44 3L43 3L43 4L42 4L42 2L43 2L43 0L41 0L41 1L40 1L40 0L39 0L39 1L38 1L38 0L37 0L37 1L38 1L38 2L39 2L39 3L38 3L38 4L37 4L37 3L36 3L36 0L35 0L35 1L32 1L32 0L27 0L27 1L26 1L26 0L23 0L23 1L22 1L22 0L21 0L21 1L22 1L22 2L21 2L21 3L22 3L22 2L25 2L25 1L26 1L26 2L27 2L27 3L29 3L29 4L26 4L26 3L23 3L23 4L24 4L24 5L23 5L23 6L22 6L22 7L21 7L21 5L22 5L22 4L19 4L19 3L20 3L20 0L17 0L17 2L18 2L18 1L19 1L19 3L17 3L17 4L18 4L18 5L17 5L17 6L16 6L16 7L15 7L15 6L14 6L14 7L13 7L13 4L14 4L14 2L16 2L16 1L15 1L15 0L14 0L14 2L13 2L13 1L11 1L11 0ZM8 1L8 2L9 2L9 1ZM30 1L30 2L31 2L31 3L30 3L30 4L31 4L31 8L32 8L32 10L31 10L31 11L29 11L29 9L28 9L28 10L27 10L27 11L26 11L26 12L25 12L25 10L23 10L23 11L24 11L24 12L23 12L23 13L22 13L22 12L20 12L20 11L19 11L19 13L20 13L20 14L19 14L19 17L20 17L20 18L17 18L17 17L16 17L16 16L17 16L17 13L18 13L18 12L17 12L17 11L18 11L18 10L19 10L19 9L20 9L20 10L21 10L21 11L22 11L22 10L21 10L21 9L24 9L24 6L23 6L23 7L22 7L22 8L19 8L19 7L20 7L20 5L18 5L18 6L17 6L17 7L16 7L16 8L14 8L14 10L15 10L15 13L13 13L13 12L14 12L14 11L13 11L13 10L12 10L12 9L11 9L11 10L9 10L9 9L6 9L6 10L5 10L5 9L4 9L4 10L5 10L5 11L4 11L4 12L7 12L7 13L5 13L5 14L7 14L7 15L6 15L6 16L8 16L8 15L9 15L9 16L10 16L10 17L9 17L9 19L10 19L10 17L11 17L11 18L12 18L12 20L13 20L13 21L14 21L14 22L16 22L16 21L17 21L17 24L16 24L16 23L15 23L15 24L14 24L14 23L13 23L13 22L12 22L12 21L11 21L11 20L9 20L9 21L8 21L8 17L6 17L6 18L7 18L7 19L5 19L5 20L4 20L4 22L5 22L5 25L4 25L4 26L7 26L7 25L8 25L8 26L9 26L9 28L10 28L10 29L9 29L9 30L10 30L10 33L11 33L11 35L12 35L12 40L13 40L13 41L11 41L11 39L10 39L10 38L11 38L11 37L10 37L10 38L9 38L9 36L10 36L10 34L9 34L9 35L8 35L8 34L7 34L7 33L6 33L6 32L8 32L8 33L9 33L9 32L8 32L8 31L5 31L5 33L4 33L4 34L3 34L3 36L2 36L2 37L5 37L5 35L6 35L6 36L7 36L7 37L6 37L6 38L7 38L7 37L8 37L8 39L6 39L6 40L7 40L7 41L6 41L6 42L7 42L7 41L8 41L8 40L9 40L9 41L11 41L11 42L12 42L12 43L14 43L14 44L15 44L15 45L14 45L14 46L17 46L17 45L18 45L18 44L17 44L17 45L16 45L16 43L15 43L15 42L17 42L17 43L18 43L18 42L19 42L19 43L20 43L20 44L19 44L19 45L20 45L20 46L19 46L19 49L20 49L20 50L19 50L19 51L18 51L18 52L19 52L19 51L20 51L20 50L21 50L21 51L22 51L22 50L21 50L21 49L23 49L23 47L24 47L24 46L23 46L23 45L24 45L24 44L23 44L23 45L22 45L22 44L21 44L21 43L22 43L22 42L23 42L23 40L24 40L24 41L25 41L25 43L27 43L27 44L25 44L25 48L24 48L24 49L25 49L25 48L30 48L30 47L29 47L29 44L28 44L28 42L30 42L30 40L32 40L32 41L31 41L31 42L32 42L32 43L31 43L31 44L32 44L32 45L31 45L31 46L32 46L32 45L33 45L33 46L35 46L35 48L34 48L34 47L33 47L33 48L31 48L31 50L32 50L32 49L33 49L33 50L34 50L34 51L35 51L35 50L36 50L36 52L38 52L38 54L40 54L40 53L41 53L41 52L42 52L42 53L43 53L43 54L44 54L44 55L45 55L45 54L48 54L48 50L47 50L47 49L48 49L48 48L49 48L49 47L48 47L48 46L47 46L47 45L49 45L49 46L50 46L50 47L51 47L51 46L53 46L53 47L52 47L52 48L53 48L53 49L54 49L54 48L53 48L53 47L54 47L54 46L53 46L53 43L54 43L54 42L53 42L53 41L51 41L51 42L50 42L50 43L49 43L49 42L48 42L48 41L49 41L49 40L50 40L50 39L54 39L54 38L53 38L53 35L55 35L55 34L54 34L54 32L53 32L53 31L52 31L52 32L51 32L51 31L50 31L50 32L49 32L49 31L48 31L48 28L47 28L47 29L46 29L46 30L47 30L47 31L48 31L48 32L46 32L46 31L45 31L45 28L46 28L46 27L47 27L47 25L49 25L49 23L50 23L50 24L51 24L51 25L50 25L50 26L51 26L51 25L52 25L52 26L53 26L53 27L54 27L54 26L53 26L53 24L51 24L51 23L50 23L50 22L51 22L51 21L53 21L53 22L56 22L56 19L55 19L55 20L53 20L53 19L52 19L52 20L51 20L51 21L49 21L49 22L47 22L47 21L46 21L46 20L44 20L44 18L46 18L46 19L47 19L47 17L48 17L48 16L49 16L49 17L50 17L50 18L49 18L49 19L48 19L48 20L49 20L49 19L51 19L51 18L55 18L55 17L53 17L53 16L52 16L52 15L51 15L51 17L50 17L50 14L51 14L51 12L50 12L50 11L48 11L48 10L47 10L47 9L48 9L48 8L47 8L47 9L45 9L45 8L46 8L46 6L45 6L45 5L47 5L47 3L44 3L44 6L43 6L43 7L44 7L44 6L45 6L45 8L42 8L42 6L41 6L41 5L40 5L40 4L41 4L41 3L39 3L39 4L38 4L38 5L37 5L37 4L36 4L36 5L35 5L35 2L33 2L33 3L32 3L32 1ZM46 1L46 2L47 2L47 1ZM11 2L11 3L13 3L13 2ZM31 3L31 4L32 4L32 5L34 5L34 7L33 7L33 6L32 6L32 7L33 7L33 9L34 9L34 8L35 8L35 9L37 9L37 10L36 10L36 12L35 12L35 14L32 14L32 11L33 11L33 10L32 10L32 11L31 11L31 13L30 13L30 14L29 14L29 13L28 13L28 12L29 12L29 11L27 11L27 12L26 12L26 13L28 13L28 14L29 14L29 16L28 16L28 15L27 15L27 16L28 16L28 17L26 17L26 14L25 14L25 13L23 13L23 14L22 14L22 13L21 13L21 15L24 15L24 16L25 16L25 17L22 17L22 16L20 16L20 17L22 17L22 18L24 18L24 19L21 19L21 18L20 18L20 19L21 19L21 20L24 20L24 21L23 21L23 22L24 22L24 21L25 21L25 22L26 22L26 23L25 23L25 24L24 24L24 23L22 23L22 21L21 21L21 23L22 23L22 24L20 24L20 25L19 25L19 24L17 24L17 25L18 25L18 26L17 26L17 27L18 27L18 26L20 26L20 28L19 28L19 29L18 29L18 28L16 28L16 29L15 29L15 28L13 28L13 27L16 27L16 26L15 26L15 25L16 25L16 24L15 24L15 25L14 25L14 24L13 24L13 23L12 23L12 22L10 22L10 21L9 21L9 22L6 22L6 23L7 23L7 24L6 24L6 25L7 25L7 24L9 24L9 23L11 23L11 25L10 25L10 28L11 28L11 29L14 29L14 31L15 31L15 33L16 33L16 32L17 32L17 30L16 30L16 29L18 29L18 31L19 31L19 30L20 30L20 28L21 28L21 29L22 29L22 28L21 28L21 27L22 27L22 26L23 26L23 28L26 28L26 29L23 29L23 30L25 30L25 31L26 31L26 32L25 32L25 33L23 33L23 34L22 34L22 33L21 33L21 35L20 35L20 36L22 36L22 35L23 35L23 34L24 34L24 36L23 36L23 37L24 37L24 38L23 38L23 39L24 39L24 40L25 40L25 37L26 37L26 40L27 40L27 41L26 41L26 42L27 42L27 41L28 41L28 39L27 39L27 38L28 38L28 37L27 37L27 36L26 36L26 35L27 35L27 34L26 34L26 35L25 35L25 33L26 33L26 32L28 32L28 33L29 33L29 34L30 34L30 36L29 36L29 37L31 37L31 38L29 38L29 39L33 39L33 40L35 40L35 42L37 42L37 43L36 43L36 44L35 44L35 43L34 43L34 42L33 42L33 41L32 41L32 42L33 42L33 43L32 43L32 44L33 44L33 43L34 43L34 45L35 45L35 46L37 46L37 47L36 47L36 48L35 48L35 49L36 49L36 50L38 50L38 52L39 52L39 51L40 51L40 52L41 52L41 50L42 50L42 51L43 51L43 53L44 53L44 54L45 54L45 53L47 53L47 50L46 50L46 49L47 49L47 48L48 48L48 47L47 47L47 46L45 46L45 45L47 45L47 43L48 43L48 42L46 42L46 44L45 44L45 43L44 43L44 42L45 42L45 41L47 41L47 39L48 39L48 37L50 37L50 38L49 38L49 39L50 39L50 38L51 38L51 36L52 36L52 35L53 35L53 34L52 34L52 33L53 33L53 32L52 32L52 33L51 33L51 32L50 32L50 34L48 34L48 35L47 35L47 34L45 34L45 35L44 35L44 33L43 33L43 32L45 32L45 31L44 31L44 30L43 30L43 29L44 29L44 28L45 28L45 27L46 27L46 26L45 26L45 25L44 25L44 24L43 24L43 23L44 23L44 20L43 20L43 18L44 18L44 15L47 15L47 16L45 16L45 17L47 17L47 16L48 16L48 15L49 15L49 14L50 14L50 12L49 12L49 13L47 13L47 14L45 14L45 13L44 13L44 12L43 12L43 13L41 13L41 14L40 14L40 15L39 15L39 14L38 14L38 13L40 13L40 12L41 12L41 11L45 11L45 12L48 12L48 11L47 11L47 10L44 10L44 9L41 9L41 10L39 10L39 11L38 11L38 9L39 9L39 8L40 8L40 7L41 7L41 6L40 6L40 5L39 5L39 6L38 6L38 7L37 7L37 5L36 5L36 7L37 7L37 8L35 8L35 5L34 5L34 4L32 4L32 3ZM11 4L11 5L12 5L12 4ZM15 4L15 5L16 5L16 4ZM25 4L25 8L26 8L26 4ZM27 5L27 8L30 8L30 5ZM11 6L11 7L12 7L12 8L13 8L13 7L12 7L12 6ZM18 6L18 7L19 7L19 6ZM28 6L28 7L29 7L29 6ZM39 6L39 7L40 7L40 6ZM16 8L16 9L15 9L15 10L16 10L16 9L19 9L19 8ZM51 8L51 9L52 9L52 8ZM53 8L53 9L54 9L54 8ZM6 10L6 11L7 11L7 12L8 12L8 11L9 11L9 12L13 12L13 11L9 11L9 10ZM39 11L39 12L40 12L40 11ZM55 11L55 12L54 12L54 13L53 13L53 12L52 12L52 13L53 13L53 15L55 15L55 14L56 14L56 11ZM16 12L16 13L15 13L15 14L14 14L14 16L13 16L13 13L12 13L12 16L13 16L13 18L14 18L14 16L16 16L16 13L17 13L17 12ZM33 12L33 13L34 13L34 12ZM0 13L0 15L1 15L1 17L2 17L2 14L1 14L1 13ZM10 13L10 14L11 14L11 13ZM36 13L36 14L37 14L37 15L35 15L35 16L32 16L32 17L33 17L33 18L30 18L30 19L34 19L34 20L32 20L32 21L31 21L31 22L30 22L30 20L29 20L29 19L28 19L28 18L26 18L26 17L25 17L25 19L26 19L26 20L25 20L25 21L27 21L27 23L29 23L29 24L25 24L25 25L26 25L26 26L24 26L24 27L26 27L26 26L27 26L27 25L28 25L28 26L30 26L30 25L29 25L29 24L30 24L30 23L31 23L31 24L32 24L32 26L31 26L31 27L32 27L32 29L33 29L33 30L35 30L35 28L33 28L33 27L34 27L34 26L36 26L36 27L40 27L40 28L38 28L38 29L36 29L36 31L34 31L34 32L37 32L37 33L38 33L38 36L39 36L39 35L40 35L40 34L39 34L39 33L41 33L41 32L43 32L43 30L40 30L40 31L39 31L39 32L38 32L38 30L39 30L39 29L43 29L43 28L44 28L44 27L45 27L45 26L44 26L44 27L43 27L43 26L41 26L41 25L43 25L43 24L42 24L42 22L41 22L41 24L40 24L40 22L39 22L39 21L41 21L41 20L39 20L39 21L38 21L38 22L37 22L37 24L39 24L39 25L38 25L38 26L37 26L37 25L33 25L33 24L32 24L32 23L35 23L35 21L34 21L34 20L35 20L35 19L36 19L36 20L37 20L37 19L39 19L39 17L41 17L41 16L42 16L42 17L43 17L43 16L42 16L42 15L44 15L44 13L43 13L43 14L41 14L41 16L39 16L39 15L38 15L38 14L37 14L37 13ZM54 13L54 14L55 14L55 13ZM30 14L30 15L32 15L32 14ZM35 16L35 17L37 17L37 18L38 18L38 17L39 17L39 16L38 16L38 17L37 17L37 16ZM15 17L15 18L16 18L16 17ZM41 18L41 19L42 19L42 18ZM13 19L13 20L14 20L14 19ZM15 19L15 21L16 21L16 20L17 20L17 21L18 21L18 22L19 22L19 23L20 23L20 22L19 22L19 21L20 21L20 20L19 20L19 19L18 19L18 20L17 20L17 19ZM6 20L6 21L7 21L7 20ZM42 20L42 21L43 21L43 20ZM28 21L28 22L29 22L29 23L30 23L30 22L29 22L29 21ZM45 21L45 22L46 22L46 24L47 24L47 22L46 22L46 21ZM0 22L0 24L1 24L1 22ZM12 24L12 25L13 25L13 24ZM22 24L22 25L20 25L20 26L22 26L22 25L24 25L24 24ZM55 25L55 26L56 26L56 25ZM12 26L12 27L11 27L11 28L12 28L12 27L13 27L13 26ZM32 26L32 27L33 27L33 26ZM40 26L40 27L41 27L41 28L42 28L42 27L41 27L41 26ZM5 27L5 30L8 30L8 27ZM27 27L27 30L30 30L30 27ZM49 27L49 30L52 30L52 27ZM1 28L1 30L3 30L3 31L4 31L4 30L3 30L3 29L4 29L4 28ZM6 28L6 29L7 29L7 28ZM28 28L28 29L29 29L29 28ZM50 28L50 29L51 29L51 28ZM31 30L31 31L30 31L30 32L29 32L29 33L31 33L31 31L32 31L32 35L33 35L33 34L35 34L35 36L32 36L32 37L33 37L33 38L35 38L35 36L37 36L37 34L35 34L35 33L33 33L33 31L32 31L32 30ZM11 31L11 32L12 32L12 33L14 33L14 32L13 32L13 31ZM20 31L20 32L23 32L23 31ZM18 32L18 33L17 33L17 34L15 34L15 35L14 35L14 34L13 34L13 37L14 37L14 38L13 38L13 40L14 40L14 41L13 41L13 42L14 42L14 41L16 41L16 39L14 39L14 38L16 38L16 37L15 37L15 35L17 35L17 34L18 34L18 33L19 33L19 34L20 34L20 33L19 33L19 32ZM48 32L48 33L49 33L49 32ZM55 32L55 33L56 33L56 32ZM0 34L0 35L1 35L1 34ZM6 34L6 35L7 35L7 34ZM42 34L42 36L40 36L40 37L38 37L38 38L37 38L37 39L35 39L35 40L38 40L38 42L39 42L39 44L40 44L40 45L41 45L41 44L42 44L42 43L41 43L41 41L43 41L43 39L45 39L45 40L44 40L44 41L45 41L45 40L46 40L46 39L47 39L47 37L48 37L48 36L50 36L50 35L52 35L52 34L50 34L50 35L48 35L48 36L47 36L47 35L46 35L46 36L47 36L47 37L45 37L45 36L44 36L44 35L43 35L43 34ZM17 36L17 37L18 37L18 39L19 39L19 40L17 40L17 41L19 41L19 42L20 42L20 40L21 40L21 38L22 38L22 37L19 37L19 36ZM43 36L43 37L40 37L40 38L43 38L43 37L44 37L44 38L45 38L45 39L46 39L46 38L45 38L45 37L44 37L44 36ZM3 38L3 39L2 39L2 40L1 40L1 41L2 41L2 42L4 42L4 43L1 43L1 44L2 44L2 45L3 45L3 47L5 47L5 46L7 46L7 45L3 45L3 44L4 44L4 43L5 43L5 41L4 41L4 39L5 39L5 38ZM19 38L19 39L20 39L20 38ZM38 39L38 40L40 40L40 39ZM2 40L2 41L3 41L3 40ZM21 41L21 42L22 42L22 41ZM39 41L39 42L40 42L40 41ZM51 42L51 43L50 43L50 44L51 44L51 43L53 43L53 42ZM40 43L40 44L41 44L41 43ZM43 43L43 44L44 44L44 45L43 45L43 46L41 46L41 48L39 48L39 47L40 47L40 46L39 46L39 45L38 45L38 46L39 46L39 47L38 47L38 48L37 48L37 49L38 49L38 50L41 50L41 48L42 48L42 49L43 49L43 48L44 48L44 50L43 50L43 51L45 51L45 52L44 52L44 53L45 53L45 52L46 52L46 50L45 50L45 49L46 49L46 48L47 48L47 47L46 47L46 48L45 48L45 47L44 47L44 45L45 45L45 44L44 44L44 43ZM20 44L20 45L21 45L21 47L20 47L20 49L21 49L21 47L23 47L23 46L22 46L22 45L21 45L21 44ZM27 44L27 45L26 45L26 47L27 47L27 45L28 45L28 44ZM54 44L54 45L55 45L55 46L56 46L56 45L55 45L55 44ZM8 45L8 46L9 46L9 47L8 47L8 49L9 49L9 48L10 48L10 46L9 46L9 45ZM50 45L50 46L51 46L51 45ZM1 46L1 47L2 47L2 46ZM42 47L42 48L43 48L43 47ZM16 48L16 49L15 49L15 50L17 50L17 48ZM33 48L33 49L34 49L34 48ZM38 48L38 49L39 49L39 48ZM55 48L55 50L54 50L54 51L55 51L55 50L56 50L56 48ZM27 49L27 52L30 52L30 49ZM49 49L49 52L52 52L52 49ZM28 50L28 51L29 51L29 50ZM50 50L50 51L51 51L51 50ZM13 51L13 52L14 52L14 53L15 53L15 54L16 54L16 53L17 53L17 51ZM31 51L31 53L30 53L30 54L26 54L26 53L24 53L24 54L23 54L23 55L24 55L24 56L25 56L25 54L26 54L26 55L27 55L27 56L29 56L29 55L30 55L30 56L31 56L31 54L32 54L32 53L33 53L33 54L34 54L34 55L35 55L35 56L36 56L36 54L35 54L35 53L33 53L33 52L32 52L32 51ZM15 52L15 53L16 53L16 52ZM37 55L37 56L39 56L39 55ZM50 55L50 56L51 56L51 55ZM0 0L0 7L7 7L7 0ZM1 1L1 6L6 6L6 1ZM2 2L2 5L5 5L5 2ZM50 0L50 7L57 7L57 0ZM51 1L51 6L56 6L56 1ZM52 2L52 5L55 5L55 2ZM0 50L0 57L7 57L7 50ZM1 51L1 56L6 56L6 51ZM2 52L2 55L5 55L5 52Z" fill="#000000"/></g></g></svg>
