<?xml version="1.0" encoding="UTF-8"?>
<svg xmlns="http://www.w3.org/2000/svg" version="1.1" width="300" height="300" viewBox="0 0 300 300"><rect x="0" y="0" width="300" height="300" fill="#fefefe"/><g transform="scale(4.615)"><g transform="translate(4,4)"><path fill-rule="evenodd" d="M9 0L9 1L8 1L8 2L10 2L10 4L9 4L9 3L8 3L8 4L9 4L9 5L8 5L8 7L9 7L9 6L10 6L10 7L11 7L11 8L12 8L12 10L13 10L13 11L14 11L14 12L12 12L12 13L11 13L11 14L10 14L10 15L9 15L9 16L10 16L10 17L9 17L9 19L11 19L11 21L12 21L12 19L11 19L11 16L12 16L12 15L11 15L11 14L13 14L13 17L12 17L12 18L13 18L13 17L14 17L14 18L15 18L15 21L16 21L16 22L15 22L15 23L16 23L16 24L17 24L17 25L18 25L18 26L15 26L15 24L14 24L14 25L13 25L13 24L12 24L12 23L11 23L11 24L10 24L10 25L9 25L9 23L10 23L10 22L9 22L9 23L8 23L8 22L6 22L6 21L7 21L7 20L8 20L8 21L10 21L10 20L8 20L8 19L7 19L7 18L8 18L8 17L7 17L7 16L6 16L6 17L5 17L5 14L6 14L6 15L7 15L7 14L6 14L6 13L8 13L8 14L9 14L9 13L8 13L8 12L11 12L11 11L10 11L10 8L6 8L6 9L7 9L7 10L5 10L5 14L4 14L4 12L3 12L3 11L4 11L4 10L2 10L2 11L0 11L0 14L1 14L1 16L2 16L2 17L1 17L1 18L0 18L0 19L1 19L1 22L0 22L0 23L1 23L1 24L0 24L0 26L2 26L2 27L0 27L0 28L1 28L1 30L0 30L0 31L1 31L1 32L0 32L0 36L1 36L1 38L0 38L0 39L2 39L2 41L1 41L1 40L0 40L0 41L1 41L1 43L0 43L0 48L5 48L5 47L8 47L8 46L9 46L9 47L10 47L10 49L11 49L11 48L12 48L12 49L13 49L13 50L12 50L12 51L11 51L11 50L10 50L10 51L9 51L9 48L6 48L6 49L8 49L8 51L9 51L9 52L8 52L8 57L9 57L9 52L10 52L10 55L11 55L11 54L13 54L13 55L12 55L12 56L10 56L10 57L12 57L12 56L13 56L13 57L14 57L14 56L15 56L15 57L16 57L16 56L17 56L17 57L19 57L19 55L20 55L20 54L18 54L18 56L17 56L17 53L20 53L20 52L21 52L21 51L20 51L20 49L21 49L21 50L26 50L26 52L24 52L24 53L23 53L23 54L22 54L22 55L21 55L21 56L20 56L20 57L21 57L21 56L24 56L24 57L26 57L26 56L27 56L27 57L29 57L29 56L30 56L30 57L31 57L31 56L35 56L35 57L39 57L39 56L41 56L41 55L44 55L44 54L45 54L45 55L46 55L46 56L47 56L47 57L49 57L49 56L50 56L50 57L52 57L52 55L51 55L51 53L52 53L52 54L55 54L55 53L57 53L57 52L55 52L55 51L54 51L54 50L57 50L57 48L56 48L56 46L57 46L57 43L56 43L56 42L57 42L57 41L56 41L56 42L55 42L55 39L57 39L57 37L55 37L55 35L56 35L56 34L57 34L57 32L56 32L56 30L57 30L57 29L55 29L55 30L54 30L54 28L57 28L57 27L56 27L56 26L57 26L57 25L56 25L56 22L57 22L57 20L56 20L56 22L53 22L53 21L51 21L51 20L52 20L52 19L53 19L53 20L55 20L55 19L56 19L56 18L53 18L53 17L51 17L51 18L52 18L52 19L48 19L48 20L49 20L49 21L47 21L47 18L50 18L50 17L49 17L49 16L50 16L50 15L53 15L53 16L54 16L54 17L56 17L56 16L57 16L57 15L56 15L56 14L57 14L57 11L56 11L56 8L55 8L55 10L54 10L54 11L53 11L53 9L54 9L54 8L53 8L53 9L52 9L52 8L51 8L51 10L50 10L50 8L49 8L49 9L47 9L47 10L46 10L46 11L45 11L45 9L44 9L44 7L45 7L45 8L48 8L48 7L49 7L49 6L48 6L48 7L47 7L47 5L48 5L48 0L45 0L45 1L47 1L47 2L44 2L44 3L43 3L43 4L40 4L40 5L39 5L39 6L38 6L38 7L37 7L37 5L38 5L38 4L37 4L37 3L36 3L36 0L35 0L35 1L33 1L33 0L29 0L29 1L31 1L31 2L32 2L32 3L31 3L31 4L26 4L26 3L23 3L23 2L27 2L27 3L28 3L28 2L27 2L27 1L25 1L25 0L23 0L23 1L22 1L22 0L21 0L21 1L20 1L20 2L19 2L19 1L18 1L18 0L17 0L17 1L14 1L14 2L13 2L13 3L12 3L12 4L11 4L11 2L10 2L10 1L11 1L11 0ZM37 0L37 1L38 1L38 3L41 3L41 2L43 2L43 0L41 0L41 1L40 1L40 0L39 0L39 1L38 1L38 0ZM17 1L17 2L18 2L18 1ZM32 1L32 2L33 2L33 3L32 3L32 4L31 4L31 8L32 8L32 10L31 10L31 11L30 11L30 10L29 10L29 9L28 9L28 10L27 10L27 11L26 11L26 12L25 12L25 10L23 10L23 9L25 9L25 8L26 8L26 4L25 4L25 8L24 8L24 6L23 6L23 7L22 7L22 4L23 4L23 5L24 5L24 4L23 4L23 3L22 3L22 2L20 2L20 3L19 3L19 4L18 4L18 3L15 3L15 2L14 2L14 4L13 4L13 5L12 5L12 6L11 6L11 7L12 7L12 8L13 8L13 7L14 7L14 9L13 9L13 10L17 10L17 11L18 11L18 9L15 9L15 7L16 7L16 8L17 8L17 7L18 7L18 6L19 6L19 7L20 7L20 5L19 5L19 4L21 4L21 8L19 8L19 9L20 9L20 11L22 11L22 10L23 10L23 11L24 11L24 12L23 12L23 13L22 13L22 12L21 12L21 13L20 13L20 12L19 12L19 13L20 13L20 14L21 14L21 13L22 13L22 14L23 14L23 15L18 15L18 14L17 14L17 13L18 13L18 12L17 12L17 13L16 13L16 12L15 12L15 13L13 13L13 14L15 14L15 13L16 13L16 16L15 16L15 15L14 15L14 17L15 17L15 18L17 18L17 20L16 20L16 21L17 21L17 22L20 22L20 23L19 23L19 25L20 25L20 26L18 26L18 27L16 27L16 28L15 28L15 29L16 29L16 30L17 30L17 32L16 32L16 33L15 33L15 32L14 32L14 33L12 33L12 34L7 34L7 33L5 33L5 32L9 32L9 33L11 33L11 32L12 32L12 31L11 31L11 30L10 30L10 29L13 29L13 30L14 30L14 27L15 27L15 26L14 26L14 27L13 27L13 28L12 28L12 26L13 26L13 25L12 25L12 24L11 24L11 25L10 25L10 26L9 26L9 25L8 25L8 23L6 23L6 22L5 22L5 21L4 21L4 23L3 23L3 25L2 25L2 26L3 26L3 28L4 28L4 26L5 26L5 25L4 25L4 23L5 23L5 24L7 24L7 25L6 25L6 26L7 26L7 25L8 25L8 26L9 26L9 28L10 28L10 29L9 29L9 31L5 31L5 32L4 32L4 31L2 31L2 30L3 30L3 29L2 29L2 30L1 30L1 31L2 31L2 32L1 32L1 33L2 33L2 35L1 35L1 36L4 36L4 35L3 35L3 33L4 33L4 34L7 34L7 35L6 35L6 36L5 36L5 37L6 37L6 38L7 38L7 37L11 37L11 38L8 38L8 39L6 39L6 40L5 40L5 39L4 39L4 38L3 38L3 37L2 37L2 39L4 39L4 40L3 40L3 41L2 41L2 42L3 42L3 41L5 41L5 42L7 42L7 43L6 43L6 44L7 44L7 45L4 45L4 46L3 46L3 44L2 44L2 43L1 43L1 44L2 44L2 46L1 46L1 47L2 47L2 46L3 46L3 47L5 47L5 46L8 46L8 44L9 44L9 43L11 43L11 44L10 44L10 46L11 46L11 47L12 47L12 48L13 48L13 49L15 49L15 50L14 50L14 51L12 51L12 52L11 52L11 53L14 53L14 52L15 52L15 51L16 51L16 53L15 53L15 54L14 54L14 55L13 55L13 56L14 56L14 55L15 55L15 56L16 56L16 55L15 55L15 54L16 54L16 53L17 53L17 51L18 51L18 50L19 50L19 49L20 49L20 48L21 48L21 49L23 49L23 47L24 47L24 46L23 46L23 45L24 45L24 44L25 44L25 48L24 48L24 49L25 49L25 48L27 48L27 47L28 47L28 48L30 48L30 47L28 47L28 46L31 46L31 44L28 44L28 43L29 43L29 42L32 42L32 43L33 43L33 44L32 44L32 46L35 46L35 47L34 47L34 48L32 48L32 47L31 47L31 48L32 48L32 49L31 49L31 50L32 50L32 51L31 51L31 53L30 53L30 54L26 54L26 53L24 53L24 54L23 54L23 55L24 55L24 56L26 56L26 55L27 55L27 56L29 56L29 55L30 55L30 56L31 56L31 54L32 54L32 53L33 53L33 54L34 54L34 55L35 55L35 56L36 56L36 54L35 54L35 52L34 52L34 51L35 51L35 50L36 50L36 52L38 52L38 53L37 53L37 54L40 54L40 53L41 53L41 52L40 52L40 51L38 51L38 50L41 50L41 51L42 51L42 50L41 50L41 48L42 48L42 49L43 49L43 51L46 51L46 50L47 50L47 53L45 53L45 52L44 52L44 53L43 53L43 52L42 52L42 53L43 53L43 54L44 54L44 53L45 53L45 54L48 54L48 50L47 50L47 49L48 49L48 48L53 48L53 49L54 49L54 48L53 48L53 47L55 47L55 46L56 46L56 43L55 43L55 44L54 44L54 45L55 45L55 46L53 46L53 43L54 43L54 42L53 42L53 41L54 41L54 40L53 40L53 41L51 41L51 42L50 42L50 43L49 43L49 42L48 42L48 41L49 41L49 39L51 39L51 38L52 38L52 39L54 39L54 38L53 38L53 35L55 35L55 34L56 34L56 32L55 32L55 34L54 34L54 33L52 33L52 32L51 32L51 33L52 33L52 34L50 34L50 31L48 31L48 28L47 28L47 29L46 29L46 30L47 30L47 31L45 31L45 28L46 28L46 27L48 27L48 26L47 26L47 25L49 25L49 23L50 23L50 22L51 22L51 21L49 21L49 23L48 23L48 24L45 24L45 22L47 22L47 21L45 21L45 20L44 20L44 18L45 18L45 19L46 19L46 18L47 18L47 15L45 15L45 14L47 14L47 13L49 13L49 12L50 12L50 14L49 14L49 15L48 15L48 16L49 16L49 15L50 15L50 14L51 14L51 12L50 12L50 10L47 10L47 12L45 12L45 11L44 11L44 9L43 9L43 11L41 11L41 12L40 12L40 11L39 11L39 13L38 13L38 14L37 14L37 13L36 13L36 14L37 14L37 15L35 15L35 16L33 16L33 15L32 15L32 13L33 13L33 14L35 14L35 11L36 11L36 10L37 10L37 11L38 11L38 10L41 10L41 9L42 9L42 8L41 8L41 7L42 7L42 6L43 6L43 7L44 7L44 6L45 6L45 7L46 7L46 6L45 6L45 4L46 4L46 5L47 5L47 3L44 3L44 6L43 6L43 5L40 5L40 6L39 6L39 7L40 7L40 8L39 8L39 9L38 9L38 8L37 8L37 7L36 7L36 5L37 5L37 4L36 4L36 5L35 5L35 2L33 2L33 1ZM15 4L15 5L14 5L14 7L15 7L15 5L16 5L16 4ZM17 4L17 6L16 6L16 7L17 7L17 6L18 6L18 4ZM32 4L32 5L34 5L34 7L33 7L33 6L32 6L32 7L33 7L33 9L34 9L34 8L35 8L35 9L37 9L37 10L38 10L38 9L37 9L37 8L35 8L35 5L34 5L34 4ZM27 5L27 8L30 8L30 5ZM12 6L12 7L13 7L13 6ZM28 6L28 7L29 7L29 6ZM40 6L40 7L41 7L41 6ZM0 8L0 10L1 10L1 9L5 9L5 8ZM28 10L28 11L27 11L27 12L26 12L26 13L23 13L23 14L24 14L24 15L23 15L23 16L25 16L25 17L22 17L22 16L21 16L21 17L22 17L22 18L20 18L20 16L17 16L17 18L18 18L18 20L17 20L17 21L20 21L20 19L21 19L21 20L22 20L22 18L24 18L24 19L23 19L23 20L24 20L24 21L21 21L21 24L20 24L20 25L21 25L21 26L20 26L20 27L19 27L19 28L20 28L20 27L22 27L22 26L23 26L23 27L25 27L25 28L23 28L23 30L24 30L24 31L26 31L26 32L25 32L25 33L23 33L23 34L22 34L22 33L21 33L21 32L23 32L23 31L21 31L21 30L20 30L20 29L18 29L18 28L16 28L16 29L18 29L18 30L20 30L20 31L19 31L19 32L17 32L17 33L18 33L18 34L16 34L16 35L18 35L18 36L17 36L17 38L18 38L18 39L17 39L17 40L16 40L16 39L15 39L15 38L16 38L16 37L14 37L14 39L15 39L15 40L16 40L16 41L15 41L15 42L14 42L14 43L13 43L13 41L11 41L11 39L12 39L12 40L13 40L13 39L12 39L12 38L11 38L11 39L10 39L10 40L8 40L8 43L9 43L9 42L12 42L12 43L13 43L13 45L11 45L11 46L12 46L12 47L14 47L14 48L15 48L15 47L16 47L16 46L15 46L15 45L14 45L14 43L15 43L15 42L16 42L16 41L17 41L17 42L18 42L18 43L16 43L16 45L17 45L17 47L18 47L18 48L17 48L17 49L19 49L19 48L20 48L20 47L18 47L18 46L20 46L20 45L19 45L19 42L20 42L20 44L22 44L22 45L21 45L21 47L23 47L23 46L22 46L22 45L23 45L23 44L24 44L24 43L23 43L23 42L25 42L25 41L23 41L23 42L22 42L22 41L21 41L21 42L20 42L20 41L19 41L19 40L22 40L22 39L24 39L24 40L25 40L25 39L26 39L26 40L28 40L28 39L26 39L26 38L28 38L28 37L26 37L26 38L25 38L25 36L26 36L26 35L27 35L27 34L26 34L26 35L25 35L25 33L27 33L27 31L31 31L31 29L32 29L32 32L31 32L31 33L29 33L29 32L28 32L28 33L29 33L29 34L30 34L30 36L29 36L29 37L31 37L31 38L29 38L29 39L33 39L33 40L35 40L35 42L37 42L37 43L34 43L34 42L33 42L33 41L32 41L32 40L29 40L29 41L32 41L32 42L33 42L33 43L34 43L34 45L36 45L36 48L35 48L35 49L36 49L36 50L38 50L38 49L39 49L39 48L41 48L41 46L43 46L43 45L44 45L44 48L43 48L43 47L42 47L42 48L43 48L43 49L44 49L44 50L46 50L46 48L48 48L48 47L50 47L50 46L49 46L49 45L51 45L51 43L53 43L53 42L51 42L51 43L50 43L50 44L49 44L49 45L47 45L47 43L48 43L48 42L44 42L44 40L45 40L45 41L47 41L47 39L49 39L49 38L50 38L50 37L49 37L49 35L50 35L50 36L51 36L51 37L52 37L52 35L53 35L53 34L52 34L52 35L50 35L50 34L49 34L49 35L46 35L46 34L45 34L45 33L47 33L47 32L48 32L48 33L49 33L49 32L48 32L48 31L47 31L47 32L45 32L45 31L43 31L43 32L41 32L41 33L39 33L39 34L40 34L40 35L39 35L39 36L38 36L38 33L37 33L37 32L35 32L35 34L34 34L34 33L33 33L33 34L32 34L32 35L31 35L31 33L32 33L32 32L34 32L34 31L35 31L35 30L33 30L33 29L32 29L32 27L33 27L33 28L35 28L35 29L38 29L38 28L42 28L42 26L43 26L43 25L44 25L44 27L43 27L43 28L45 28L45 27L46 27L46 26L45 26L45 25L44 25L44 20L43 20L43 21L39 21L39 22L40 22L40 24L41 24L41 25L42 25L42 26L39 26L39 27L36 27L36 26L34 26L34 27L33 27L33 26L32 26L32 24L33 24L33 25L37 25L37 26L38 26L38 24L39 24L39 23L38 23L38 24L37 24L37 22L38 22L38 20L41 20L41 18L42 18L42 19L43 19L43 18L44 18L44 15L42 15L42 16L41 16L41 15L40 15L40 14L44 14L44 11L43 11L43 13L40 13L40 14L38 14L38 15L39 15L39 16L38 16L38 17L37 17L37 16L35 16L35 17L37 17L37 18L38 18L38 17L39 17L39 19L37 19L37 20L36 20L36 19L35 19L35 23L32 23L32 24L31 24L31 21L32 21L32 20L33 20L33 19L32 19L32 18L31 18L31 17L32 17L32 15L30 15L30 14L31 14L31 13L32 13L32 12L33 12L33 13L34 13L34 12L33 12L33 10L32 10L32 12L31 12L31 13L30 13L30 14L29 14L29 13L28 13L28 12L29 12L29 10ZM51 10L51 11L52 11L52 10ZM6 11L6 12L7 12L7 11ZM55 11L55 12L54 12L54 14L53 14L53 15L55 15L55 14L56 14L56 11ZM2 12L2 13L1 13L1 14L2 14L2 13L3 13L3 12ZM52 12L52 13L53 13L53 12ZM26 13L26 14L25 14L25 15L26 15L26 17L25 17L25 19L26 19L26 21L27 21L27 23L29 23L29 24L25 24L25 23L26 23L26 22L25 22L25 21L24 21L24 22L23 22L23 23L24 23L24 24L21 24L21 25L24 25L24 24L25 24L25 25L26 25L26 26L25 26L25 27L26 27L26 26L28 26L28 25L31 25L31 24L30 24L30 22L28 22L28 21L30 21L30 20L31 20L31 18L30 18L30 19L28 19L28 18L27 18L27 17L28 17L28 16L29 16L29 14L28 14L28 13ZM2 15L2 16L4 16L4 15ZM10 15L10 16L11 16L11 15ZM27 15L27 16L28 16L28 15ZM39 16L39 17L41 17L41 16ZM42 16L42 17L43 17L43 16ZM45 16L45 17L46 17L46 16ZM3 17L3 18L1 18L1 19L2 19L2 21L3 21L3 19L4 19L4 18L5 18L5 17ZM6 17L6 18L7 18L7 17ZM19 18L19 19L20 19L20 18ZM26 18L26 19L27 19L27 18ZM5 19L5 20L7 20L7 19ZM13 19L13 20L14 20L14 19ZM13 21L13 22L14 22L14 21ZM1 22L1 23L2 23L2 22ZM41 22L41 24L42 24L42 23L43 23L43 22ZM17 23L17 24L18 24L18 23ZM52 23L52 24L50 24L50 26L53 26L53 27L54 27L54 26L53 26L53 23ZM31 26L31 27L32 27L32 26ZM5 27L5 30L8 30L8 27ZM10 27L10 28L11 28L11 27ZM27 27L27 30L30 30L30 27ZM49 27L49 30L52 30L52 27ZM6 28L6 29L7 29L7 28ZM21 28L21 29L22 29L22 28ZM25 28L25 29L26 29L26 28ZM28 28L28 29L29 29L29 28ZM50 28L50 29L51 29L51 28ZM39 29L39 30L38 30L38 32L39 32L39 31L41 31L41 30L44 30L44 29ZM9 31L9 32L11 32L11 31ZM20 31L20 32L21 32L21 31ZM43 32L43 33L45 33L45 32ZM20 33L20 34L19 34L19 35L20 35L20 36L19 36L19 37L18 37L18 38L19 38L19 39L20 39L20 38L19 38L19 37L21 37L21 38L24 38L24 37L23 37L23 36L24 36L24 34L23 34L23 36L22 36L22 34L21 34L21 33ZM13 34L13 35L10 35L10 36L14 36L14 35L15 35L15 34ZM33 34L33 35L34 35L34 34ZM35 34L35 36L37 36L37 34ZM42 34L42 35L41 35L41 36L40 36L40 37L38 37L38 39L35 39L35 40L38 40L38 42L39 42L39 41L41 41L41 38L40 38L40 37L41 37L41 36L42 36L42 37L43 37L43 38L42 38L42 39L45 39L45 40L46 40L46 39L47 39L47 37L48 37L48 38L49 38L49 37L48 37L48 36L47 36L47 37L46 37L46 36L44 36L44 35L45 35L45 34ZM6 36L6 37L7 37L7 36ZM32 36L32 37L33 37L33 38L35 38L35 37L33 37L33 36ZM43 36L43 37L44 37L44 38L45 38L45 37L44 37L44 36ZM38 39L38 40L40 40L40 39ZM6 40L6 41L7 41L7 40ZM17 40L17 41L18 41L18 42L19 42L19 41L18 41L18 40ZM26 41L26 42L27 42L27 41ZM21 42L21 43L22 43L22 42ZM4 43L4 44L5 44L5 43ZM25 43L25 44L27 44L27 43ZM39 43L39 45L38 45L38 46L41 46L41 44L42 44L42 43L41 43L41 44L40 44L40 43ZM43 43L43 44L44 44L44 45L45 45L45 46L47 46L47 47L48 47L48 46L47 46L47 45L45 45L45 44L46 44L46 43ZM17 44L17 45L18 45L18 44ZM13 45L13 46L14 46L14 47L15 47L15 46L14 46L14 45ZM26 45L26 47L27 47L27 45ZM51 46L51 47L53 47L53 46ZM38 47L38 48L37 48L37 49L38 49L38 48L39 48L39 47ZM45 47L45 48L44 48L44 49L45 49L45 48L46 48L46 47ZM55 48L55 49L56 49L56 48ZM27 49L27 52L30 52L30 49ZM32 49L32 50L33 50L33 51L32 51L32 52L33 52L33 51L34 51L34 50L33 50L33 49ZM49 49L49 52L52 52L52 49ZM16 50L16 51L17 51L17 50ZM28 50L28 51L29 51L29 50ZM50 50L50 51L51 51L51 50ZM22 51L22 52L23 52L23 51ZM53 52L53 53L54 53L54 52ZM37 55L37 56L39 56L39 55ZM50 55L50 56L51 56L51 55ZM53 55L53 56L55 56L55 57L56 57L56 56L55 56L55 55ZM43 56L43 57L44 57L44 56ZM0 0L0 7L7 7L7 0ZM1 1L1 6L6 6L6 1ZM2 2L2 5L5 5L5 2ZM50 0L50 7L57 7L57 0ZM51 1L51 6L56 6L56 1ZM52 2L52 5L55 5L55 2ZM0 50L0 57L7 57L7 50ZM1 51L1 56L6 56L6 51ZM2 52L2 55L5 55L5 52Z" fill="#000000"/></g></g></svg>
