<?xml version="1.0" encoding="UTF-8"?>
<svg xmlns="http://www.w3.org/2000/svg" version="1.1" width="300" height="300" viewBox="0 0 300 300"><rect x="0" y="0" width="300" height="300" fill="#fefefe"/><g transform="scale(4.615)"><g transform="translate(4,4)"><path fill-rule="evenodd" d="M9 0L9 1L8 1L8 2L9 2L9 1L11 1L11 0ZM13 0L13 1L14 1L14 2L13 2L13 4L14 4L14 2L15 2L15 3L16 3L16 2L15 2L15 1L14 1L14 0ZM17 0L17 1L18 1L18 2L17 2L17 5L20 5L20 7L19 7L19 6L18 6L18 7L19 7L19 8L16 8L16 7L17 7L17 6L16 6L16 7L15 7L15 5L16 5L16 4L15 4L15 5L14 5L14 7L13 7L13 6L12 6L12 5L10 5L10 7L11 7L11 8L12 8L12 9L10 9L10 8L6 8L6 9L7 9L7 10L6 10L6 11L7 11L7 12L6 12L6 13L8 13L8 14L3 14L3 16L4 16L4 18L3 18L3 19L2 19L2 18L0 18L0 20L1 20L1 21L0 21L0 22L1 22L1 21L2 21L2 24L1 24L1 25L0 25L0 26L1 26L1 27L3 27L3 25L4 25L4 28L3 28L3 29L2 29L2 28L0 28L0 30L1 30L1 31L0 31L0 33L1 33L1 34L0 34L0 35L3 35L3 33L2 33L2 32L4 32L4 31L5 31L5 33L4 33L4 34L6 34L6 35L4 35L4 36L0 36L0 38L1 38L1 39L0 39L0 40L1 40L1 41L0 41L0 44L1 44L1 45L2 45L2 47L1 47L1 46L0 46L0 48L5 48L5 47L7 47L7 48L6 48L6 49L8 49L8 51L9 51L9 50L10 50L10 52L8 52L8 57L9 57L9 56L10 56L10 55L11 55L11 54L10 54L10 52L11 52L11 53L14 53L14 54L15 54L15 55L14 55L14 56L13 56L13 54L12 54L12 56L13 56L13 57L15 57L15 55L16 55L16 56L17 56L17 57L19 57L19 55L20 55L20 54L19 54L19 53L20 53L20 52L21 52L21 51L22 51L22 52L23 52L23 51L22 51L22 50L26 50L26 52L24 52L24 53L23 53L23 54L22 54L22 55L21 55L21 56L20 56L20 57L21 57L21 56L24 56L24 57L26 57L26 56L27 56L27 57L29 57L29 56L30 56L30 57L31 57L31 56L35 56L35 57L39 57L39 56L37 56L37 55L41 55L41 56L42 56L42 55L43 55L43 57L44 57L44 54L45 54L45 57L48 57L48 56L50 56L50 57L52 57L52 55L51 55L51 53L52 53L52 54L53 54L53 57L54 57L54 56L55 56L55 57L56 57L56 56L55 56L55 54L53 54L53 52L54 52L54 53L56 53L56 51L54 51L54 50L57 50L57 48L56 48L56 46L57 46L57 45L56 45L56 44L57 44L57 43L56 43L56 41L55 41L55 39L57 39L57 37L55 37L55 35L53 35L53 34L52 34L52 33L54 33L54 34L57 34L57 32L56 32L56 30L57 30L57 29L56 29L56 26L57 26L57 25L56 25L56 22L57 22L57 21L56 21L56 20L55 20L55 19L56 19L56 18L57 18L57 17L56 17L56 16L57 16L57 15L56 15L56 14L57 14L57 12L56 12L56 14L55 14L55 15L53 15L53 13L54 13L54 12L55 12L55 11L56 11L56 10L54 10L54 11L50 11L50 12L49 12L49 11L48 11L48 10L50 10L50 8L49 8L49 9L48 9L48 7L49 7L49 6L48 6L48 7L47 7L47 5L48 5L48 0L45 0L45 1L47 1L47 2L44 2L44 3L42 3L42 2L43 2L43 0L41 0L41 1L40 1L40 0L39 0L39 1L38 1L38 0L37 0L37 1L38 1L38 3L36 3L36 0L35 0L35 1L32 1L32 0L29 0L29 1L30 1L30 2L29 2L29 4L26 4L26 3L23 3L23 4L24 4L24 5L23 5L23 6L22 6L22 7L21 7L21 4L19 4L19 3L20 3L20 2L19 2L19 1L20 1L20 0ZM21 0L21 1L22 1L22 0ZM23 0L23 2L27 2L27 3L28 3L28 2L27 2L27 1L26 1L26 0ZM10 2L10 4L11 4L11 3L12 3L12 2ZM18 2L18 3L19 3L19 2ZM31 2L31 3L30 3L30 4L31 4L31 8L32 8L32 10L31 10L31 11L29 11L29 10L28 10L28 11L29 11L29 12L28 12L28 13L27 13L27 14L23 14L23 13L24 13L24 12L25 12L25 13L26 13L26 12L27 12L27 11L26 11L26 12L25 12L25 10L23 10L23 11L24 11L24 12L23 12L23 13L22 13L22 12L21 12L21 13L20 13L20 11L22 11L22 10L21 10L21 9L24 9L24 6L23 6L23 7L22 7L22 8L20 8L20 10L19 10L19 9L15 9L15 8L14 8L14 10L17 10L17 11L15 11L15 13L12 13L12 14L13 14L13 16L14 16L14 18L12 18L12 17L11 17L11 16L12 16L12 15L11 15L11 16L9 16L9 15L10 15L10 14L11 14L11 11L12 11L12 12L14 12L14 11L13 11L13 10L9 10L9 9L8 9L8 10L9 10L9 11L10 11L10 13L9 13L9 15L8 15L8 16L7 16L7 15L6 15L6 16L5 16L5 18L4 18L4 19L5 19L5 20L2 20L2 21L3 21L3 23L4 23L4 25L5 25L5 23L6 23L6 24L7 24L7 25L6 25L6 26L8 26L8 25L9 25L9 24L10 24L10 28L9 28L9 30L10 30L10 28L11 28L11 29L12 29L12 30L11 30L11 31L10 31L10 32L11 32L11 31L12 31L12 30L13 30L13 31L14 31L14 33L15 33L15 34L13 34L13 33L12 33L12 34L13 34L13 35L11 35L11 36L12 36L12 37L9 37L9 38L12 38L12 39L13 39L13 38L15 38L15 39L16 39L16 40L13 40L13 41L15 41L15 42L11 42L11 44L10 44L10 47L9 47L9 46L8 46L8 45L6 45L6 44L9 44L9 42L10 42L10 41L11 41L11 40L10 40L10 41L9 41L9 39L6 39L6 38L7 38L7 37L6 37L6 38L5 38L5 36L4 36L4 39L3 39L3 42L4 42L4 41L5 41L5 40L7 40L7 41L6 41L6 42L7 42L7 41L9 41L9 42L8 42L8 43L6 43L6 44L5 44L5 43L2 43L2 42L1 42L1 44L3 44L3 47L5 47L5 45L6 45L6 46L8 46L8 47L9 47L9 49L10 49L10 50L11 50L11 51L12 51L12 50L13 50L13 52L14 52L14 53L15 53L15 54L16 54L16 53L17 53L17 52L18 52L18 51L17 51L17 50L19 50L19 49L15 49L15 47L16 47L16 48L18 48L18 47L17 47L17 45L18 45L18 44L15 44L15 47L13 47L13 48L12 48L12 43L18 43L18 42L19 42L19 41L20 41L20 43L22 43L22 42L23 42L23 40L24 40L24 41L25 41L25 43L23 43L23 44L24 44L24 45L25 45L25 47L26 47L26 48L24 48L24 49L26 49L26 48L28 48L28 47L29 47L29 48L30 48L30 47L29 47L29 46L30 46L30 45L31 45L31 47L33 47L33 46L35 46L35 48L34 48L34 49L33 49L33 48L32 48L32 49L31 49L31 53L30 53L30 54L26 54L26 53L24 53L24 54L23 54L23 55L24 55L24 56L26 56L26 55L27 55L27 56L29 56L29 55L30 55L30 56L31 56L31 54L32 54L32 53L33 53L33 55L35 55L35 56L36 56L36 54L35 54L35 50L36 50L36 52L37 52L37 51L38 51L38 53L37 53L37 54L40 54L40 53L41 53L41 52L43 52L43 51L42 51L42 50L41 50L41 48L42 48L42 49L43 49L43 48L44 48L44 50L47 50L47 53L45 53L45 52L46 52L46 51L45 51L45 52L44 52L44 53L43 53L43 54L44 54L44 53L45 53L45 54L48 54L48 50L47 50L47 49L48 49L48 48L49 48L49 47L51 47L51 48L52 48L52 47L54 47L54 45L55 45L55 46L56 46L56 45L55 45L55 44L54 44L54 45L52 45L52 44L53 44L53 43L54 43L54 42L53 42L53 41L54 41L54 40L53 40L53 39L54 39L54 38L53 38L53 35L52 35L52 34L50 34L50 31L48 31L48 27L47 27L47 26L48 26L48 25L50 25L50 26L51 26L51 25L52 25L52 26L53 26L53 27L54 27L54 26L53 26L53 24L51 24L51 23L50 23L50 22L51 22L51 21L54 21L54 22L53 22L53 23L55 23L55 22L56 22L56 21L55 21L55 20L53 20L53 19L52 19L52 18L55 18L55 17L53 17L53 16L52 16L52 15L51 15L51 17L50 17L50 14L51 14L51 12L50 12L50 14L49 14L49 15L48 15L48 16L49 16L49 17L50 17L50 18L47 18L47 15L46 15L46 17L45 17L45 15L44 15L44 13L45 13L45 14L47 14L47 13L49 13L49 12L48 12L48 11L47 11L47 12L45 12L45 11L46 11L46 10L47 10L47 7L46 7L46 5L47 5L47 3L44 3L44 6L43 6L43 7L42 7L42 5L40 5L40 4L41 4L41 3L38 3L38 5L37 5L37 4L36 4L36 5L35 5L35 3L32 3L32 2ZM8 3L8 4L9 4L9 3ZM31 3L31 4L32 4L32 5L34 5L34 7L33 7L33 6L32 6L32 7L33 7L33 9L34 9L34 8L35 8L35 9L37 9L37 10L36 10L36 11L35 11L35 14L33 14L33 13L34 13L34 12L33 12L33 13L32 13L32 12L31 12L31 13L30 13L30 14L29 14L29 13L28 13L28 14L29 14L29 16L28 16L28 15L27 15L27 16L28 16L28 17L27 17L27 18L26 18L26 17L22 17L22 16L21 16L21 15L23 15L23 14L22 14L22 13L21 13L21 15L20 15L20 16L19 16L19 14L20 14L20 13L19 13L19 10L18 10L18 11L17 11L17 12L16 12L16 13L15 13L15 14L14 14L14 16L16 16L16 17L15 17L15 18L16 18L16 17L19 17L19 18L20 18L20 16L21 16L21 17L22 17L22 18L21 18L21 19L20 19L20 20L19 20L19 19L18 19L18 20L17 20L17 19L15 19L15 21L16 21L16 22L14 22L14 21L13 21L13 20L14 20L14 19L13 19L13 20L12 20L12 19L11 19L11 21L10 21L10 18L11 18L11 17L10 17L10 18L9 18L9 17L8 17L8 19L9 19L9 20L6 20L6 21L4 21L4 23L5 23L5 22L6 22L6 23L7 23L7 22L8 22L8 23L9 23L9 21L10 21L10 23L11 23L11 21L13 21L13 22L14 22L14 23L12 23L12 26L11 26L11 28L12 28L12 29L13 29L13 30L14 30L14 31L16 31L16 29L18 29L18 30L17 30L17 31L18 31L18 33L17 33L17 34L18 34L18 33L19 33L19 34L20 34L20 33L19 33L19 32L20 32L20 31L19 31L19 30L20 30L20 29L22 29L22 28L20 28L20 25L21 25L21 27L22 27L22 26L26 26L26 27L25 27L25 28L23 28L23 31L21 31L21 32L25 32L25 33L23 33L23 34L22 34L22 33L21 33L21 35L20 35L20 36L23 36L23 37L24 37L24 38L21 38L21 37L19 37L19 36L18 36L18 35L16 35L16 34L15 34L15 35L16 35L16 36L18 36L18 37L17 37L17 38L18 38L18 39L19 39L19 40L17 40L17 41L19 41L19 40L21 40L21 39L24 39L24 40L25 40L25 39L26 39L26 40L28 40L28 39L26 39L26 38L28 38L28 37L26 37L26 38L25 38L25 36L27 36L27 33L26 33L26 32L27 32L27 31L29 31L29 32L28 32L28 33L29 33L29 34L30 34L30 36L29 36L29 37L31 37L31 38L29 38L29 39L33 39L33 40L35 40L35 42L37 42L37 43L36 43L36 44L35 44L35 43L34 43L34 42L33 42L33 41L32 41L32 40L31 40L31 41L30 41L30 42L29 42L29 43L28 43L28 44L27 44L27 43L25 43L25 44L27 44L27 45L26 45L26 47L27 47L27 45L28 45L28 44L29 44L29 43L30 43L30 44L31 44L31 45L32 45L32 46L33 46L33 45L32 45L32 44L33 44L33 43L34 43L34 45L35 45L35 46L36 46L36 48L35 48L35 49L36 49L36 50L38 50L38 51L40 51L40 52L41 52L41 50L38 50L38 49L39 49L39 48L41 48L41 46L43 46L43 45L44 45L44 48L45 48L45 49L46 49L46 48L45 48L45 47L47 47L47 48L48 48L48 47L49 47L49 46L51 46L51 47L52 47L52 45L51 45L51 43L53 43L53 42L51 42L51 41L53 41L53 40L51 40L51 39L50 39L50 38L51 38L51 37L52 37L52 35L50 35L50 34L48 34L48 35L47 35L47 34L45 34L45 33L46 33L46 32L45 32L45 31L47 31L47 32L48 32L48 33L49 33L49 32L48 32L48 31L47 31L47 30L46 30L46 29L47 29L47 27L46 27L46 28L45 28L45 26L44 26L44 24L43 24L43 23L44 23L44 20L45 20L45 18L44 18L44 15L42 15L42 16L41 16L41 14L43 14L43 13L44 13L44 12L43 12L43 13L39 13L39 12L41 12L41 11L45 11L45 10L46 10L46 9L45 9L45 10L44 10L44 8L45 8L45 6L44 6L44 8L43 8L43 9L41 9L41 10L40 10L40 11L37 11L37 10L38 10L38 9L39 9L39 8L40 8L40 7L41 7L41 6L40 6L40 5L39 5L39 6L38 6L38 7L37 7L37 5L36 5L36 7L37 7L37 8L35 8L35 5L34 5L34 4L32 4L32 3ZM25 4L25 8L26 8L26 4ZM45 4L45 5L46 5L46 4ZM8 5L8 7L9 7L9 5ZM27 5L27 8L30 8L30 5ZM11 6L11 7L12 7L12 6ZM28 6L28 7L29 7L29 6ZM39 6L39 7L40 7L40 6ZM0 8L0 9L2 9L2 10L3 10L3 9L5 9L5 8ZM51 8L51 9L52 9L52 8ZM53 8L53 9L54 9L54 8ZM55 8L55 9L56 9L56 8ZM32 10L32 11L33 11L33 10ZM3 11L3 12L0 12L0 13L4 13L4 11ZM17 12L17 13L16 13L16 16L17 16L17 13L18 13L18 12ZM52 12L52 13L53 13L53 12ZM36 13L36 14L37 14L37 15L35 15L35 16L32 16L32 15L31 15L31 14L30 14L30 15L31 15L31 16L32 16L32 19L33 19L33 18L35 18L35 19L34 19L34 20L32 20L32 21L31 21L31 22L30 22L30 23L31 23L31 24L32 24L32 26L31 26L31 28L32 28L32 30L31 30L31 31L30 31L30 32L29 32L29 33L31 33L31 34L32 34L32 35L33 35L33 34L34 34L34 35L35 35L35 36L37 36L37 34L35 34L35 33L34 33L34 32L37 32L37 33L38 33L38 36L39 36L39 35L40 35L40 34L39 34L39 33L41 33L41 32L43 32L43 33L45 33L45 32L43 32L43 30L44 30L44 29L45 29L45 28L44 28L44 27L43 27L43 26L42 26L42 25L41 25L41 24L42 24L42 23L43 23L43 22L41 22L41 24L39 24L39 23L40 23L40 22L39 22L39 21L42 21L42 20L39 20L39 21L38 21L38 22L37 22L37 24L39 24L39 25L38 25L38 26L37 26L37 25L33 25L33 24L32 24L32 23L35 23L35 21L34 21L34 20L35 20L35 19L36 19L36 20L37 20L37 19L39 19L39 17L41 17L41 16L39 16L39 15L38 15L38 14L39 14L39 13L38 13L38 14L37 14L37 13ZM0 14L0 17L2 17L2 16L1 16L1 15L2 15L2 14ZM24 15L24 16L26 16L26 15ZM6 16L6 17L7 17L7 16ZM35 16L35 17L37 17L37 18L38 18L38 17L39 17L39 16L38 16L38 17L37 17L37 16ZM42 16L42 17L43 17L43 16ZM5 18L5 19L7 19L7 18ZM23 18L23 19L24 19L24 18ZM27 18L27 19L26 19L26 21L27 21L27 23L28 23L28 24L25 24L25 23L26 23L26 22L25 22L25 21L24 21L24 20L20 20L20 21L17 21L17 20L16 20L16 21L17 21L17 24L16 24L16 23L14 23L14 24L13 24L13 27L12 27L12 28L13 28L13 29L14 29L14 28L13 28L13 27L14 27L14 24L15 24L15 26L16 26L16 27L15 27L15 29L16 29L16 28L18 28L18 29L19 29L19 26L18 26L18 27L17 27L17 24L21 24L21 25L24 25L24 24L25 24L25 25L26 25L26 26L27 26L27 25L29 25L29 22L28 22L28 21L29 21L29 19L28 19L28 18ZM30 18L30 19L31 19L31 18ZM41 18L41 19L42 19L42 18ZM43 18L43 20L44 20L44 18ZM46 18L46 19L47 19L47 18ZM49 19L49 21L47 21L47 22L46 22L46 21L45 21L45 22L46 22L46 23L45 23L45 25L48 25L48 24L46 24L46 23L49 23L49 24L50 24L50 23L49 23L49 21L51 21L51 20L52 20L52 19ZM6 21L6 22L7 22L7 21ZM21 21L21 22L24 22L24 21ZM19 22L19 23L20 23L20 22ZM21 23L21 24L22 24L22 23ZM23 23L23 24L24 24L24 23ZM39 25L39 27L36 27L36 26L34 26L34 27L33 27L33 26L32 26L32 27L33 27L33 28L35 28L35 30L32 30L32 32L31 32L31 33L32 33L32 34L33 34L33 33L32 33L32 32L34 32L34 31L36 31L36 29L38 29L38 28L39 28L39 27L41 27L41 28L42 28L42 26L41 26L41 25ZM5 27L5 30L8 30L8 27ZM27 27L27 30L30 30L30 27ZM35 27L35 28L36 28L36 27ZM49 27L49 30L52 30L52 27ZM6 28L6 29L7 29L7 28ZM25 28L25 29L26 29L26 28ZM28 28L28 29L29 29L29 28ZM43 28L43 29L41 29L41 30L43 30L43 29L44 29L44 28ZM50 28L50 29L51 29L51 28ZM54 28L54 29L53 29L53 30L54 30L54 31L51 31L51 33L52 33L52 32L54 32L54 33L56 33L56 32L54 32L54 31L55 31L55 30L54 30L54 29L55 29L55 28ZM39 29L39 30L38 30L38 32L39 32L39 30L40 30L40 29ZM1 31L1 32L2 32L2 31ZM6 31L6 32L8 32L8 33L6 33L6 34L8 34L8 36L9 36L9 34L10 34L10 33L9 33L9 32L8 32L8 31ZM15 32L15 33L16 33L16 32ZM25 33L25 34L26 34L26 33ZM23 34L23 36L24 36L24 34ZM42 34L42 35L41 35L41 36L40 36L40 37L38 37L38 39L35 39L35 37L33 37L33 36L32 36L32 37L33 37L33 38L34 38L34 39L35 39L35 40L38 40L38 42L39 42L39 45L38 45L38 46L39 46L39 47L38 47L38 48L37 48L37 49L38 49L38 48L39 48L39 47L40 47L40 46L39 46L39 45L41 45L41 44L42 44L42 42L40 42L40 41L41 41L41 39L43 39L43 40L44 40L44 41L43 41L43 44L44 44L44 45L45 45L45 46L47 46L47 47L48 47L48 46L49 46L49 45L50 45L50 43L51 43L51 42L50 42L50 43L49 43L49 42L48 42L48 41L49 41L49 40L50 40L50 39L49 39L49 38L50 38L50 37L48 37L48 36L50 36L50 35L48 35L48 36L47 36L47 35L46 35L46 36L47 36L47 37L45 37L45 36L44 36L44 35L45 35L45 34ZM6 35L6 36L7 36L7 35ZM13 35L13 37L12 37L12 38L13 38L13 37L14 37L14 35ZM42 36L42 37L40 37L40 38L43 38L43 37L44 37L44 38L45 38L45 39L44 39L44 40L47 40L47 39L48 39L48 37L47 37L47 39L46 39L46 38L45 38L45 37L44 37L44 36ZM1 37L1 38L3 38L3 37ZM15 37L15 38L16 38L16 37ZM18 37L18 38L19 38L19 39L20 39L20 38L19 38L19 37ZM52 38L52 39L53 39L53 38ZM4 39L4 40L5 40L5 39ZM38 39L38 40L39 40L39 39ZM21 41L21 42L22 42L22 41ZM26 41L26 42L27 42L27 41ZM31 41L31 42L32 42L32 43L31 43L31 44L32 44L32 43L33 43L33 42L32 42L32 41ZM44 41L44 42L45 42L45 43L46 43L46 44L45 44L45 45L47 45L47 43L48 43L48 42L45 42L45 41ZM4 44L4 45L5 45L5 44ZM19 44L19 45L20 45L20 46L19 46L19 48L20 48L20 47L21 47L21 49L20 49L20 51L21 51L21 49L23 49L23 47L24 47L24 46L23 46L23 45L22 45L22 44L21 44L21 45L20 45L20 44ZM13 45L13 46L14 46L14 45ZM21 45L21 47L23 47L23 46L22 46L22 45ZM36 45L36 46L37 46L37 45ZM42 47L42 48L43 48L43 47ZM10 48L10 49L11 49L11 50L12 50L12 49L11 49L11 48ZM13 48L13 50L14 50L14 51L15 51L15 49L14 49L14 48ZM53 48L53 49L56 49L56 48ZM27 49L27 52L30 52L30 49ZM32 49L32 50L33 50L33 49ZM49 49L49 52L52 52L52 49ZM28 50L28 51L29 51L29 50ZM50 50L50 51L51 51L51 50ZM32 51L32 52L33 52L33 53L34 53L34 52L33 52L33 51ZM15 52L15 53L16 53L16 52ZM17 54L17 56L18 56L18 55L19 55L19 54ZM41 54L41 55L42 55L42 54ZM47 55L47 56L48 56L48 55ZM50 55L50 56L51 56L51 55ZM0 0L0 7L7 7L7 0ZM1 1L1 6L6 6L6 1ZM2 2L2 5L5 5L5 2ZM50 0L50 7L57 7L57 0ZM51 1L51 6L56 6L56 1ZM52 2L52 5L55 5L55 2ZM0 50L0 57L7 57L7 50ZM1 51L1 56L6 56L6 51ZM2 52L2 55L5 55L5 52Z" fill="#000000"/></g></g></svg>
