<?xml version="1.0" encoding="UTF-8"?>
<svg xmlns="http://www.w3.org/2000/svg" version="1.1" width="300" height="300" viewBox="0 0 300 300"><rect x="0" y="0" width="300" height="300" fill="#fefefe"/><g transform="scale(4.615)"><g transform="translate(4,4)"><path fill-rule="evenodd" d="M10 0L10 1L11 1L11 0ZM12 0L12 1L13 1L13 0ZM17 0L17 1L14 1L14 2L10 2L10 3L8 3L8 4L9 4L9 5L8 5L8 7L9 7L9 5L11 5L11 6L10 6L10 8L11 8L11 6L12 6L12 7L13 7L13 8L12 8L12 9L14 9L14 7L15 7L15 9L17 9L17 10L13 10L13 11L11 11L11 10L10 10L10 11L9 11L9 12L8 12L8 13L9 13L9 12L10 12L10 15L11 15L11 17L12 17L12 18L11 18L11 21L10 21L10 22L9 22L9 21L8 21L8 19L10 19L10 18L8 18L8 19L7 19L7 18L6 18L6 17L9 17L9 16L8 16L8 15L9 15L9 14L8 14L8 15L7 15L7 14L6 14L6 13L7 13L7 12L5 12L5 13L4 13L4 12L3 12L3 13L2 13L2 12L0 12L0 13L1 13L1 14L3 14L3 18L2 18L2 19L1 19L1 21L0 21L0 23L1 23L1 24L0 24L0 26L1 26L1 27L3 27L3 26L4 26L4 30L3 30L3 31L2 31L2 30L1 30L1 31L0 31L0 34L3 34L3 35L5 35L5 33L7 33L7 32L10 32L10 33L9 33L9 34L10 34L10 33L13 33L13 35L14 35L14 36L13 36L13 37L14 37L14 38L10 38L10 36L11 36L11 37L12 37L12 36L11 36L11 35L12 35L12 34L11 34L11 35L10 35L10 36L9 36L9 35L8 35L8 37L7 37L7 36L6 36L6 37L7 37L7 38L5 38L5 36L3 36L3 38L0 38L0 41L1 41L1 42L0 42L0 44L2 44L2 47L1 47L1 45L0 45L0 48L5 48L5 47L7 47L7 48L6 48L6 49L8 49L8 51L11 51L11 52L10 52L10 53L9 53L9 52L8 52L8 57L9 57L9 54L11 54L11 55L10 55L10 56L11 56L11 57L12 57L12 56L13 56L13 57L16 57L16 56L17 56L17 57L21 57L21 56L19 56L19 55L20 55L20 54L19 54L19 53L20 53L20 52L21 52L21 53L22 53L22 55L23 55L23 57L26 57L26 56L24 56L24 55L23 55L23 54L24 54L24 53L27 53L27 54L30 54L30 53L31 53L31 51L32 51L32 52L33 52L33 53L32 53L32 54L31 54L31 56L30 56L30 55L29 55L29 56L27 56L27 57L29 57L29 56L30 56L30 57L31 57L31 56L35 56L35 57L39 57L39 56L37 56L37 54L38 54L38 55L41 55L41 56L42 56L42 55L44 55L44 54L45 54L45 57L47 57L47 55L48 55L48 56L50 56L50 57L52 57L52 55L51 55L51 53L52 53L52 54L55 54L55 53L57 53L57 52L56 52L56 49L57 49L57 48L56 48L56 46L57 46L57 45L56 45L56 44L57 44L57 43L56 43L56 42L55 42L55 39L57 39L57 37L56 37L56 36L57 36L57 35L56 35L56 34L55 34L55 33L54 33L54 32L56 32L56 33L57 33L57 32L56 32L56 30L57 30L57 27L56 27L56 26L57 26L57 25L56 25L56 22L57 22L57 21L56 21L56 22L53 22L53 21L51 21L51 20L52 20L52 19L53 19L53 20L55 20L55 19L56 19L56 20L57 20L57 19L56 19L56 16L57 16L57 15L56 15L56 14L57 14L57 12L55 12L55 11L56 11L56 8L55 8L55 10L54 10L54 11L53 11L53 10L52 10L52 11L51 11L51 10L50 10L50 8L49 8L49 6L48 6L48 7L47 7L47 5L48 5L48 0L45 0L45 2L44 2L44 3L43 3L43 4L42 4L42 2L43 2L43 0L41 0L41 1L40 1L40 0L39 0L39 1L38 1L38 0L37 0L37 1L38 1L38 3L36 3L36 0L35 0L35 1L33 1L33 2L32 2L32 1L31 1L31 0L29 0L29 1L31 1L31 2L32 2L32 3L31 3L31 4L28 4L28 3L29 3L29 2L28 2L28 1L25 1L25 0L23 0L23 2L22 2L22 3L23 3L23 4L24 4L24 5L22 5L22 4L19 4L19 3L17 3L17 2L20 2L20 3L21 3L21 2L20 2L20 0ZM21 0L21 1L22 1L22 0ZM8 1L8 2L9 2L9 1ZM46 1L46 2L47 2L47 1ZM14 2L14 4L13 4L13 3L11 3L11 4L12 4L12 6L13 6L13 7L14 7L14 5L15 5L15 7L16 7L16 8L17 8L17 7L18 7L18 6L19 6L19 7L20 7L20 5L18 5L18 4L17 4L17 3L15 3L15 2ZM23 2L23 3L26 3L26 4L25 4L25 8L24 8L24 6L23 6L23 7L22 7L22 5L21 5L21 8L19 8L19 9L18 9L18 10L17 10L17 11L15 11L15 13L13 13L13 12L14 12L14 11L13 11L13 12L12 12L12 15L13 15L13 14L15 14L15 13L16 13L16 17L15 17L15 15L14 15L14 18L13 18L13 19L12 19L12 21L11 21L11 22L10 22L10 23L5 23L5 22L4 22L4 21L5 21L5 19L3 19L3 21L1 21L1 23L2 23L2 24L3 24L3 25L2 25L2 26L3 26L3 25L4 25L4 24L7 24L7 25L6 25L6 26L8 26L8 24L9 24L9 26L10 26L10 27L9 27L9 28L10 28L10 27L11 27L11 28L12 28L12 29L13 29L13 30L11 30L11 31L13 31L13 30L14 30L14 27L15 27L15 26L18 26L18 27L17 27L17 28L18 28L18 29L16 29L16 28L15 28L15 29L16 29L16 31L15 31L15 32L14 32L14 35L15 35L15 37L16 37L16 38L14 38L14 39L16 39L16 40L17 40L17 39L20 39L20 38L19 38L19 37L23 37L23 38L24 38L24 37L23 37L23 36L24 36L24 34L23 34L23 33L25 33L25 34L26 34L26 33L27 33L27 35L26 35L26 36L25 36L25 40L24 40L24 39L23 39L23 40L19 40L19 41L18 41L18 42L17 42L17 41L15 41L15 40L14 40L14 41L12 41L12 39L11 39L11 40L10 40L10 39L9 39L9 37L8 37L8 38L7 38L7 39L6 39L6 40L5 40L5 39L4 39L4 38L3 38L3 40L2 40L2 42L1 42L1 43L2 43L2 44L4 44L4 43L2 43L2 42L4 42L4 41L5 41L5 42L7 42L7 43L5 43L5 44L7 44L7 45L3 45L3 47L5 47L5 46L8 46L8 47L9 47L9 49L10 49L10 48L12 48L12 49L11 49L11 50L12 50L12 51L13 51L13 52L11 52L11 53L15 53L15 54L14 54L14 55L15 55L15 56L16 56L16 55L15 55L15 54L16 54L16 53L17 53L17 52L18 52L18 51L17 51L17 52L16 52L16 53L15 53L15 52L14 52L14 50L17 50L17 45L18 45L18 44L16 44L16 43L15 43L15 42L17 42L17 43L18 43L18 42L19 42L19 45L20 45L20 46L21 46L21 45L22 45L22 46L23 46L23 47L19 47L19 48L20 48L20 50L19 50L19 51L21 51L21 52L22 52L22 53L24 53L24 52L26 52L26 49L25 49L25 48L24 48L24 49L25 49L25 50L22 50L22 51L21 51L21 49L23 49L23 47L26 47L26 48L27 48L27 47L28 47L28 48L30 48L30 47L28 47L28 46L31 46L31 45L32 45L32 46L35 46L35 48L36 48L36 47L37 47L37 46L36 46L36 45L34 45L34 43L35 43L35 44L36 44L36 43L37 43L37 42L35 42L35 40L38 40L38 42L39 42L39 45L38 45L38 46L39 46L39 47L38 47L38 48L37 48L37 49L38 49L38 50L36 50L36 49L34 49L34 48L33 48L33 47L32 47L32 49L31 49L31 50L32 50L32 51L35 51L35 50L36 50L36 52L37 52L37 53L38 53L38 54L40 54L40 53L41 53L41 52L43 52L43 51L46 51L46 50L47 50L47 53L45 53L45 52L44 52L44 53L43 53L43 54L44 54L44 53L45 53L45 54L48 54L48 50L47 50L47 49L48 49L48 48L49 48L49 47L48 47L48 46L47 46L47 45L48 45L48 44L49 44L49 45L50 45L50 47L51 47L51 48L52 48L52 47L55 47L55 46L56 46L56 45L55 45L55 44L54 44L54 45L53 45L53 43L54 43L54 42L53 42L53 41L54 41L54 40L53 40L53 41L51 41L51 42L50 42L50 43L47 43L47 45L45 45L45 44L46 44L46 42L48 42L48 41L49 41L49 36L50 36L50 39L51 39L51 40L52 40L52 39L55 39L55 37L53 37L53 35L55 35L55 36L56 36L56 35L55 35L55 34L54 34L54 33L52 33L52 32L54 32L54 31L55 31L55 29L56 29L56 27L55 27L55 28L54 28L54 29L53 29L53 31L52 31L52 32L51 32L51 31L50 31L50 32L49 32L49 31L48 31L48 30L47 30L47 29L46 29L46 30L47 30L47 31L46 31L46 32L47 32L47 33L45 33L45 32L43 32L43 30L41 30L41 31L39 31L39 32L38 32L38 30L39 30L39 29L43 29L43 26L46 26L46 27L45 27L45 28L44 28L44 29L45 29L45 28L46 28L46 27L47 27L47 28L48 28L48 27L47 27L47 24L49 24L49 25L50 25L50 26L52 26L52 25L53 25L53 23L52 23L52 24L51 24L51 25L50 25L50 24L49 24L49 23L50 23L50 22L51 22L51 21L49 21L49 23L47 23L47 24L46 24L46 25L45 25L45 23L46 23L46 22L47 22L47 19L46 19L46 18L47 18L47 15L45 15L45 14L47 14L47 13L49 13L49 12L50 12L50 14L49 14L49 15L48 15L48 16L49 16L49 17L50 17L50 19L52 19L52 18L51 18L51 17L53 17L53 18L55 18L55 17L53 17L53 15L55 15L55 14L56 14L56 13L55 13L55 12L54 12L54 13L53 13L53 12L52 12L52 13L53 13L53 15L52 15L52 16L51 16L51 15L50 15L50 14L51 14L51 12L50 12L50 10L49 10L49 12L45 12L45 11L46 11L46 10L47 10L47 7L46 7L46 6L45 6L45 4L46 4L46 5L47 5L47 3L44 3L44 6L43 6L43 7L44 7L44 10L45 10L45 11L41 11L41 12L40 12L40 11L39 11L39 13L38 13L38 14L37 14L37 15L35 15L35 16L33 16L33 15L32 15L32 17L33 17L33 18L30 18L30 19L28 19L28 18L27 18L27 17L28 17L28 16L29 16L29 14L30 14L30 15L31 15L31 14L30 14L30 13L31 13L31 11L32 11L32 10L33 10L33 12L32 12L32 14L36 14L36 13L35 13L35 12L36 12L36 10L37 10L37 9L35 9L35 8L38 8L38 10L39 10L39 9L42 9L42 8L41 8L41 7L42 7L42 5L40 5L40 4L41 4L41 3L38 3L38 5L37 5L37 4L36 4L36 5L35 5L35 4L33 4L33 3L32 3L32 4L31 4L31 8L32 8L32 10L29 10L29 9L28 9L28 10L29 10L29 12L28 12L28 13L26 13L26 12L27 12L27 11L26 11L26 12L25 12L25 11L24 11L24 12L23 12L23 13L22 13L22 12L20 12L20 11L22 11L22 10L23 10L23 9L25 9L25 8L26 8L26 4L27 4L27 3L28 3L28 2ZM15 4L15 5L16 5L16 4ZM32 4L32 5L33 5L33 6L32 6L32 7L33 7L33 9L34 9L34 8L35 8L35 5L33 5L33 4ZM17 5L17 6L16 6L16 7L17 7L17 6L18 6L18 5ZM27 5L27 8L30 8L30 5ZM36 5L36 7L37 7L37 5ZM39 5L39 6L38 6L38 8L39 8L39 6L40 6L40 7L41 7L41 6L40 6L40 5ZM28 6L28 7L29 7L29 6ZM33 6L33 7L34 7L34 6ZM44 6L44 7L45 7L45 6ZM0 8L0 9L1 9L1 10L0 10L0 11L1 11L1 10L3 10L3 11L4 11L4 10L6 10L6 11L7 11L7 10L6 10L6 9L9 9L9 8L6 8L6 9L5 9L5 8ZM48 8L48 9L49 9L49 8ZM51 8L51 9L52 9L52 8ZM53 8L53 9L54 9L54 8ZM19 9L19 10L18 10L18 11L17 11L17 12L16 12L16 13L17 13L17 14L20 14L20 15L23 15L23 14L26 14L26 13L25 13L25 12L24 12L24 13L23 13L23 14L22 14L22 13L21 13L21 14L20 14L20 12L19 12L19 10L20 10L20 9ZM21 9L21 10L22 10L22 9ZM10 11L10 12L11 12L11 11ZM17 12L17 13L18 13L18 12ZM33 12L33 13L34 13L34 12ZM43 12L43 13L40 13L40 14L43 14L43 15L42 15L42 16L41 16L41 15L39 15L39 14L38 14L38 15L39 15L39 16L38 16L38 17L37 17L37 16L35 16L35 17L37 17L37 18L38 18L38 17L39 17L39 19L37 19L37 20L36 20L36 19L30 19L30 20L29 20L29 21L28 21L28 22L29 22L29 23L27 23L27 21L25 21L25 20L26 20L26 19L27 19L27 18L26 18L26 19L25 19L25 17L26 17L26 15L24 15L24 16L25 16L25 17L22 17L22 16L21 16L21 17L22 17L22 18L21 18L21 19L20 19L20 16L19 16L19 15L18 15L18 16L17 16L17 17L19 17L19 19L18 19L18 20L17 20L17 18L15 18L15 19L16 19L16 20L15 20L15 21L16 21L16 22L14 22L14 21L13 21L13 23L12 23L12 26L11 26L11 25L10 25L10 26L11 26L11 27L14 27L14 24L13 24L13 23L16 23L16 24L15 24L15 25L16 25L16 24L17 24L17 25L18 25L18 26L19 26L19 27L20 27L20 28L19 28L19 29L18 29L18 31L17 31L17 32L18 32L18 33L17 33L17 34L18 34L18 35L19 35L19 36L17 36L17 38L18 38L18 37L19 37L19 36L20 36L20 35L21 35L21 36L22 36L22 33L21 33L21 34L20 34L20 33L19 33L19 32L20 32L20 31L21 31L21 32L23 32L23 31L21 31L21 30L19 30L19 29L22 29L22 28L21 28L21 27L22 27L22 26L23 26L23 27L24 27L24 26L26 26L26 27L25 27L25 28L26 28L26 29L23 29L23 30L25 30L25 31L26 31L26 32L27 32L27 31L29 31L29 32L28 32L28 33L29 33L29 34L30 34L30 36L29 36L29 37L31 37L31 38L29 38L29 39L33 39L33 40L35 40L35 39L37 39L37 38L38 38L38 37L40 37L40 38L41 38L41 42L42 42L42 44L41 44L41 43L40 43L40 44L41 44L41 46L40 46L40 47L39 47L39 48L38 48L38 49L39 49L39 48L41 48L41 50L38 50L38 51L37 51L37 52L38 52L38 53L39 53L39 52L38 52L38 51L40 51L40 52L41 52L41 50L42 50L42 51L43 51L43 50L44 50L44 48L43 48L43 47L42 47L42 48L41 48L41 46L43 46L43 45L44 45L44 47L45 47L45 50L46 50L46 49L47 49L47 48L48 48L48 47L47 47L47 46L45 46L45 45L44 45L44 44L45 44L45 43L44 43L44 44L43 44L43 41L44 41L44 42L45 42L45 41L47 41L47 39L48 39L48 38L47 38L47 39L46 39L46 40L45 40L45 39L44 39L44 40L42 40L42 38L43 38L43 37L44 37L44 38L45 38L45 37L44 37L44 36L45 36L45 35L44 35L44 33L43 33L43 32L41 32L41 33L39 33L39 34L40 34L40 35L39 35L39 36L38 36L38 33L37 33L37 32L33 32L33 31L36 31L36 29L38 29L38 28L42 28L42 27L36 27L36 26L34 26L34 27L33 27L33 26L32 26L32 24L33 24L33 25L37 25L37 26L38 26L38 24L39 24L39 23L38 23L38 21L39 21L39 22L40 22L40 24L41 24L41 22L42 22L42 23L44 23L44 20L46 20L46 19L45 19L45 18L44 18L44 14L45 14L45 13L44 13L44 12ZM28 13L28 14L29 14L29 13ZM5 14L5 15L4 15L4 16L5 16L5 15L6 15L6 16L7 16L7 15L6 15L6 14ZM0 15L0 17L1 17L1 16L2 16L2 15ZM27 15L27 16L28 16L28 15ZM49 15L49 16L50 16L50 15ZM12 16L12 17L13 17L13 16ZM39 16L39 17L41 17L41 16ZM42 16L42 17L43 17L43 16ZM45 16L45 17L46 17L46 16ZM23 18L23 19L24 19L24 18ZM41 18L41 19L42 19L42 18ZM43 18L43 20L42 20L42 21L43 21L43 20L44 20L44 18ZM6 19L6 20L7 20L7 19ZM13 19L13 20L14 20L14 19ZM19 19L19 20L20 20L20 21L19 21L19 22L17 22L17 24L21 24L21 25L20 25L20 27L21 27L21 26L22 26L22 25L24 25L24 24L25 24L25 25L26 25L26 26L29 26L29 24L30 24L30 25L31 25L31 24L32 24L32 23L33 23L33 22L34 22L34 23L35 23L35 20L34 20L34 21L33 21L33 20L32 20L32 21L31 21L31 20L30 20L30 21L31 21L31 22L30 22L30 23L29 23L29 24L25 24L25 23L26 23L26 22L25 22L25 21L24 21L24 20L22 20L22 21L21 21L21 20L20 20L20 19ZM48 19L48 20L49 20L49 19ZM16 20L16 21L17 21L17 20ZM39 20L39 21L41 21L41 20ZM6 21L6 22L8 22L8 21ZM22 21L22 22L24 22L24 21ZM3 22L3 23L4 23L4 22ZM19 22L19 23L20 23L20 22ZM10 23L10 24L11 24L11 23ZM23 23L23 24L24 24L24 23ZM30 23L30 24L31 24L31 23ZM37 23L37 24L38 24L38 23ZM43 24L43 25L41 25L41 26L43 26L43 25L44 25L44 24ZM54 24L54 25L55 25L55 26L56 26L56 25L55 25L55 24ZM31 26L31 28L32 28L32 29L31 29L31 31L30 31L30 32L29 32L29 33L31 33L31 32L32 32L32 34L31 34L31 35L32 35L32 34L35 34L35 36L34 36L34 35L33 35L33 36L32 36L32 37L33 37L33 38L35 38L35 36L37 36L37 34L35 34L35 33L33 33L33 32L32 32L32 31L33 31L33 30L35 30L35 28L36 28L36 27L35 27L35 28L33 28L33 27L32 27L32 26ZM53 26L53 27L54 27L54 26ZM5 27L5 30L8 30L8 27ZM27 27L27 30L30 30L30 27ZM49 27L49 30L52 30L52 27ZM1 28L1 29L2 29L2 28ZM6 28L6 29L7 29L7 28ZM28 28L28 29L29 29L29 28ZM50 28L50 29L51 29L51 28ZM9 29L9 31L10 31L10 29ZM44 30L44 31L45 31L45 30ZM3 31L3 34L4 34L4 33L5 33L5 32L7 32L7 31L5 31L5 32L4 32L4 31ZM18 31L18 32L19 32L19 31ZM47 31L47 32L48 32L48 33L49 33L49 32L48 32L48 31ZM1 32L1 33L2 33L2 32ZM15 32L15 33L16 33L16 32ZM50 32L50 34L48 34L48 35L47 35L47 36L46 36L46 37L47 37L47 36L48 36L48 35L50 35L50 36L51 36L51 37L52 37L52 35L53 35L53 34L52 34L52 33L51 33L51 32ZM18 33L18 34L19 34L19 35L20 35L20 34L19 34L19 33ZM6 34L6 35L7 35L7 34ZM15 34L15 35L16 35L16 34ZM42 34L42 36L44 36L44 35L43 35L43 34ZM50 34L50 35L52 35L52 34ZM1 35L1 36L2 36L2 35ZM26 36L26 40L27 40L27 41L26 41L26 42L27 42L27 43L23 43L23 42L25 42L25 41L23 41L23 42L22 42L22 41L21 41L21 42L20 42L20 41L19 41L19 42L20 42L20 45L21 45L21 44L22 44L22 45L23 45L23 46L25 46L25 44L27 44L27 45L26 45L26 47L27 47L27 45L28 45L28 44L29 44L29 43L31 43L31 44L33 44L33 43L34 43L34 42L33 42L33 41L32 41L32 40L31 40L31 41L30 41L30 42L27 42L27 41L28 41L28 39L27 39L27 38L28 38L28 37L27 37L27 36ZM40 36L40 37L41 37L41 36ZM51 38L51 39L52 39L52 38ZM7 39L7 40L6 40L6 41L7 41L7 42L8 42L8 43L11 43L11 44L8 44L8 45L13 45L13 47L12 47L12 48L13 48L13 47L14 47L14 48L15 48L15 47L14 47L14 45L15 45L15 43L14 43L14 42L15 42L15 41L14 41L14 42L13 42L13 43L11 43L11 42L12 42L12 41L11 41L11 42L8 42L8 41L9 41L9 39ZM38 39L38 40L40 40L40 39ZM3 40L3 41L4 41L4 40ZM44 40L44 41L45 41L45 40ZM31 41L31 42L32 42L32 43L33 43L33 42L32 42L32 41ZM39 41L39 42L40 42L40 41ZM21 42L21 43L22 43L22 42ZM51 42L51 43L50 43L50 44L51 44L51 45L52 45L52 44L51 44L51 43L53 43L53 42ZM13 43L13 45L14 45L14 43ZM27 43L27 44L28 44L28 43ZM54 45L54 46L55 46L55 45ZM9 46L9 47L11 47L11 46ZM51 46L51 47L52 47L52 46ZM42 48L42 49L43 49L43 48ZM53 48L53 49L56 49L56 48ZM27 49L27 52L30 52L30 49ZM32 49L32 50L33 50L33 49ZM49 49L49 52L52 52L52 49ZM28 50L28 51L29 51L29 50ZM50 50L50 51L51 51L51 50ZM54 50L54 51L55 51L55 50ZM53 52L53 53L54 53L54 52ZM33 53L33 54L34 54L34 55L35 55L35 56L36 56L36 54L35 54L35 53ZM12 54L12 55L13 55L13 54ZM17 54L17 56L18 56L18 55L19 55L19 54ZM25 54L25 55L26 55L26 54ZM41 54L41 55L42 55L42 54ZM50 55L50 56L51 56L51 55ZM53 55L53 56L55 56L55 57L56 57L56 56L55 56L55 55ZM43 56L43 57L44 57L44 56ZM0 0L0 7L7 7L7 0ZM1 1L1 6L6 6L6 1ZM2 2L2 5L5 5L5 2ZM50 0L50 7L57 7L57 0ZM51 1L51 6L56 6L56 1ZM52 2L52 5L55 5L55 2ZM0 50L0 57L7 57L7 50ZM1 51L1 56L6 56L6 51ZM2 52L2 55L5 55L5 52Z" fill="#000000"/></g></g></svg>
