<?xml version="1.0" encoding="UTF-8"?>
<svg xmlns="http://www.w3.org/2000/svg" version="1.1" width="300" height="300" viewBox="0 0 300 300"><rect x="0" y="0" width="300" height="300" fill="#fefefe"/><g transform="scale(4.615)"><g transform="translate(4,4)"><path fill-rule="evenodd" d="M9 0L9 1L8 1L8 2L10 2L10 4L9 4L9 3L8 3L8 4L9 4L9 5L8 5L8 7L9 7L9 8L6 8L6 9L5 9L5 8L0 8L0 10L2 10L2 9L3 9L3 10L4 10L4 11L2 11L2 12L1 12L1 11L0 11L0 12L1 12L1 13L2 13L2 14L3 14L3 16L2 16L2 15L0 15L0 18L1 18L1 19L0 19L0 21L2 21L2 20L4 20L4 18L1 18L1 17L3 17L3 16L5 16L5 14L6 14L6 15L9 15L9 14L8 14L8 13L10 13L10 12L11 12L11 13L12 13L12 15L14 15L14 16L13 16L13 17L12 17L12 16L9 16L9 17L8 17L8 16L6 16L6 17L5 17L5 18L6 18L6 19L7 19L7 20L5 20L5 21L7 21L7 22L5 22L5 23L4 23L4 22L3 22L3 23L4 23L4 24L3 24L3 25L1 25L1 23L2 23L2 22L0 22L0 25L1 25L1 27L0 27L0 33L1 33L1 31L2 31L2 33L3 33L3 32L4 32L4 31L5 31L5 32L6 32L6 33L4 33L4 34L0 34L0 35L1 35L1 36L0 36L0 37L1 37L1 38L2 38L2 40L1 40L1 39L0 39L0 40L1 40L1 42L2 42L2 43L1 43L1 44L2 44L2 47L1 47L1 45L0 45L0 48L5 48L5 47L7 47L7 48L6 48L6 49L8 49L8 51L12 51L12 52L11 52L11 53L12 53L12 52L13 52L13 53L14 53L14 54L15 54L15 55L16 55L16 56L17 56L17 57L19 57L19 56L18 56L18 55L20 55L20 54L19 54L19 53L20 53L20 52L21 52L21 51L22 51L22 52L23 52L23 51L22 51L22 50L25 50L25 51L26 51L26 52L24 52L24 53L23 53L23 54L22 54L22 55L23 55L23 56L24 56L24 57L26 57L26 55L27 55L27 54L30 54L30 53L31 53L31 49L32 49L32 48L33 48L33 49L34 49L34 48L35 48L35 49L36 49L36 50L34 50L34 51L35 51L35 54L33 54L33 53L34 53L34 52L33 52L33 51L32 51L32 52L33 52L33 53L32 53L32 54L31 54L31 56L30 56L30 55L29 55L29 56L27 56L27 57L29 57L29 56L30 56L30 57L31 57L31 56L35 56L35 57L39 57L39 56L37 56L37 55L40 55L40 56L42 56L42 55L43 55L43 57L44 57L44 54L45 54L45 55L48 55L48 57L49 57L49 56L50 56L50 57L52 57L52 55L51 55L51 53L52 53L52 54L53 54L53 55L54 55L54 56L53 56L53 57L54 57L54 56L55 56L55 57L56 57L56 56L55 56L55 53L57 53L57 51L56 51L56 50L57 50L57 48L56 48L56 46L57 46L57 43L56 43L56 42L57 42L57 41L56 41L56 42L55 42L55 39L57 39L57 36L56 36L56 34L55 34L55 33L54 33L54 32L56 32L56 33L57 33L57 32L56 32L56 30L57 30L57 29L56 29L56 28L57 28L57 27L55 27L55 26L57 26L57 25L56 25L56 22L57 22L57 19L56 19L56 18L57 18L57 17L56 17L56 16L57 16L57 15L56 15L56 14L57 14L57 13L56 13L56 10L54 10L54 11L51 11L51 10L50 10L50 8L49 8L49 6L48 6L48 7L47 7L47 5L48 5L48 0L46 0L46 1L47 1L47 2L44 2L44 3L42 3L42 2L43 2L43 0L41 0L41 1L40 1L40 0L39 0L39 1L38 1L38 0L37 0L37 1L38 1L38 2L39 2L39 3L41 3L41 4L40 4L40 5L39 5L39 6L38 6L38 7L37 7L37 5L38 5L38 3L36 3L36 0L35 0L35 1L32 1L32 3L31 3L31 0L27 0L27 1L26 1L26 0L23 0L23 1L22 1L22 0L21 0L21 1L20 1L20 0L19 0L19 1L18 1L18 0L17 0L17 2L15 2L15 1L14 1L14 2L13 2L13 0L12 0L12 3L11 3L11 2L10 2L10 1L11 1L11 0ZM25 1L25 2L23 2L23 3L22 3L22 2L21 2L21 3L20 3L20 2L19 2L19 4L23 4L23 5L22 5L22 6L21 6L21 7L22 7L22 6L23 6L23 8L19 8L19 7L20 7L20 5L18 5L18 6L17 6L17 3L18 3L18 2L17 2L17 3L15 3L15 2L14 2L14 4L11 4L11 7L12 7L12 5L13 5L13 8L14 8L14 9L13 9L13 10L17 10L17 11L16 11L16 12L15 12L15 13L13 13L13 14L15 14L15 13L16 13L16 16L19 16L19 17L15 17L15 16L14 16L14 17L15 17L15 18L13 18L13 19L14 19L14 20L10 20L10 19L9 19L9 18L11 18L11 17L9 17L9 18L7 18L7 17L6 17L6 18L7 18L7 19L8 19L8 20L7 20L7 21L9 21L9 22L10 22L10 23L13 23L13 25L14 25L14 24L16 24L16 25L15 25L15 26L16 26L16 27L13 27L13 28L11 28L11 27L12 27L12 24L10 24L10 25L11 25L11 27L10 27L10 26L9 26L9 24L8 24L8 23L6 23L6 24L8 24L8 26L9 26L9 27L10 27L10 28L9 28L9 31L6 31L6 32L7 32L7 33L6 33L6 34L7 34L7 35L5 35L5 34L4 34L4 35L2 35L2 36L1 36L1 37L5 37L5 38L4 38L4 39L6 39L6 40L7 40L7 41L6 41L6 42L5 42L5 40L3 40L3 41L2 41L2 42L3 42L3 43L4 43L4 42L5 42L5 44L7 44L7 43L6 43L6 42L7 42L7 41L9 41L9 43L8 43L8 45L6 45L6 46L7 46L7 47L8 47L8 48L9 48L9 50L11 50L11 47L9 47L9 46L11 46L11 43L14 43L14 44L13 44L13 45L12 45L12 46L13 46L13 45L14 45L14 47L12 47L12 49L13 49L13 52L14 52L14 53L15 53L15 54L16 54L16 53L17 53L17 51L18 51L18 50L21 50L21 49L23 49L23 47L24 47L24 49L26 49L26 48L27 48L27 47L28 47L28 48L30 48L30 47L29 47L29 46L31 46L31 47L32 47L32 46L35 46L35 48L36 48L36 47L37 47L37 45L34 45L34 43L35 43L35 44L36 44L36 43L37 43L37 42L35 42L35 40L38 40L38 42L39 42L39 41L41 41L41 39L42 39L42 40L44 40L44 41L43 41L43 43L44 43L44 46L47 46L47 45L48 45L48 44L50 44L50 47L51 47L51 46L52 46L52 47L54 47L54 45L55 45L55 46L56 46L56 43L55 43L55 44L54 44L54 45L53 45L53 43L54 43L54 42L53 42L53 41L54 41L54 40L53 40L53 39L54 39L54 38L53 38L53 35L55 35L55 34L54 34L54 33L52 33L52 32L54 32L54 31L55 31L55 30L54 30L54 29L55 29L55 28L54 28L54 29L53 29L53 30L54 30L54 31L52 31L52 32L51 32L51 31L50 31L50 32L49 32L49 31L48 31L48 27L47 27L47 26L48 26L48 25L49 25L49 24L50 24L50 22L51 22L51 21L54 21L54 22L53 22L53 23L55 23L55 22L56 22L56 19L55 19L55 20L53 20L53 19L52 19L52 18L55 18L55 16L51 16L51 17L50 17L50 14L51 14L51 12L50 12L50 10L49 10L49 12L48 12L48 10L47 10L47 9L45 9L45 8L44 8L44 6L45 6L45 7L46 7L46 5L47 5L47 3L44 3L44 6L43 6L43 7L42 7L42 5L40 5L40 6L39 6L39 7L40 7L40 8L39 8L39 9L38 9L38 10L37 10L37 9L35 9L35 8L37 8L37 7L36 7L36 5L37 5L37 4L36 4L36 5L35 5L35 3L32 3L32 4L31 4L31 3L30 3L30 4L31 4L31 8L32 8L32 10L31 10L31 11L29 11L29 12L28 12L28 13L27 13L27 14L25 14L25 15L24 15L24 16L23 16L23 15L20 15L20 14L21 14L21 13L22 13L22 14L23 14L23 13L26 13L26 12L27 12L27 11L26 11L26 12L25 12L25 11L23 11L23 13L22 13L22 12L21 12L21 11L22 11L22 10L24 10L24 9L25 9L25 8L26 8L26 4L29 4L29 2L30 2L30 1L29 1L29 2L28 2L28 3L27 3L27 2L26 2L26 1ZM23 3L23 4L24 4L24 5L23 5L23 6L24 6L24 8L23 8L23 9L24 9L24 8L25 8L25 4L26 4L26 3ZM15 4L15 5L14 5L14 7L15 7L15 9L18 9L18 11L17 11L17 12L16 12L16 13L17 13L17 14L20 14L20 12L19 12L19 10L20 10L20 11L21 11L21 10L22 10L22 9L21 9L21 10L20 10L20 9L19 9L19 8L16 8L16 7L17 7L17 6L16 6L16 7L15 7L15 5L16 5L16 4ZM32 4L32 5L33 5L33 4ZM45 4L45 5L46 5L46 4ZM27 5L27 8L30 8L30 5ZM34 5L34 7L33 7L33 6L32 6L32 7L33 7L33 9L34 9L34 8L35 8L35 5ZM9 6L9 7L10 7L10 6ZM18 6L18 7L19 7L19 6ZM28 6L28 7L29 7L29 6ZM40 6L40 7L41 7L41 11L40 11L40 12L39 12L39 11L37 11L37 10L36 10L36 11L35 11L35 14L32 14L32 12L31 12L31 13L30 13L30 14L29 14L29 13L28 13L28 14L29 14L29 16L28 16L28 15L27 15L27 16L28 16L28 17L26 17L26 15L25 15L25 17L22 17L22 16L21 16L21 17L22 17L22 18L21 18L21 19L20 19L20 17L19 17L19 18L15 18L15 21L16 21L16 22L15 22L15 23L16 23L16 24L17 24L17 25L21 25L21 27L20 27L20 26L19 26L19 27L20 27L20 28L19 28L19 29L18 29L18 28L16 28L16 29L15 29L15 28L14 28L14 29L15 29L15 30L13 30L13 29L11 29L11 28L10 28L10 31L9 31L9 33L8 33L8 34L9 34L9 35L11 35L11 34L10 34L10 31L11 31L11 32L12 32L12 34L14 34L14 38L13 38L13 39L12 39L12 37L13 37L13 35L12 35L12 36L11 36L11 39L10 39L10 40L9 40L9 41L10 41L10 40L13 40L13 41L11 41L11 42L10 42L10 43L9 43L9 44L10 44L10 43L11 43L11 42L13 42L13 41L14 41L14 42L15 42L15 40L16 40L16 39L14 39L14 38L16 38L16 37L15 37L15 35L16 35L16 34L14 34L14 33L15 33L15 32L14 32L14 33L13 33L13 31L16 31L16 29L18 29L18 30L19 30L19 31L20 31L20 32L18 32L18 31L17 31L17 32L18 32L18 33L17 33L17 35L19 35L19 36L17 36L17 40L18 40L18 41L17 41L17 42L18 42L18 43L15 43L15 44L14 44L14 45L15 45L15 44L18 44L18 45L17 45L17 46L18 46L18 47L17 47L17 49L21 49L21 48L20 48L20 47L23 47L23 46L25 46L25 44L27 44L27 45L26 45L26 47L27 47L27 45L28 45L28 44L29 44L29 43L32 43L32 44L31 44L31 45L32 45L32 44L33 44L33 43L34 43L34 42L33 42L33 41L32 41L32 40L29 40L29 41L32 41L32 42L28 42L28 44L27 44L27 43L23 43L23 42L25 42L25 41L23 41L23 42L22 42L22 41L21 41L21 42L20 42L20 40L21 40L21 37L19 37L19 36L20 36L20 35L19 35L19 34L20 34L20 33L21 33L21 35L23 35L23 34L24 34L24 36L23 36L23 37L24 37L24 38L22 38L22 39L24 39L24 40L25 40L25 39L27 39L27 41L26 41L26 42L27 42L27 41L28 41L28 39L27 39L27 38L28 38L28 37L27 37L27 35L26 35L26 34L27 34L27 33L26 33L26 32L28 32L28 33L29 33L29 34L30 34L30 36L29 36L29 37L31 37L31 38L29 38L29 39L33 39L33 40L35 40L35 39L38 39L38 40L39 40L39 39L38 39L38 37L40 37L40 38L43 38L43 37L44 37L44 38L45 38L45 39L44 39L44 40L45 40L45 41L44 41L44 43L45 43L45 41L47 41L47 39L49 39L49 41L48 41L48 42L47 42L47 43L46 43L46 44L45 44L45 45L47 45L47 43L48 43L48 42L49 42L49 43L50 43L50 44L51 44L51 43L53 43L53 42L51 42L51 41L53 41L53 40L52 40L52 39L49 39L49 38L51 38L51 37L52 37L52 35L53 35L53 34L52 34L52 33L51 33L51 32L50 32L50 34L49 34L49 35L47 35L47 34L45 34L45 35L44 35L44 33L43 33L43 32L45 32L45 33L47 33L47 32L48 32L48 33L49 33L49 32L48 32L48 31L47 31L47 30L46 30L46 29L47 29L47 27L46 27L46 28L45 28L45 25L44 25L44 24L43 24L43 23L44 23L44 20L46 20L46 19L47 19L47 18L50 18L50 19L48 19L48 21L47 21L47 22L46 22L46 21L45 21L45 22L46 22L46 23L45 23L45 24L46 24L46 25L48 25L48 23L49 23L49 21L51 21L51 20L52 20L52 19L51 19L51 18L50 18L50 17L49 17L49 16L48 16L48 15L49 15L49 14L50 14L50 12L49 12L49 13L47 13L47 14L45 14L45 13L44 13L44 12L43 12L43 13L41 13L41 14L38 14L38 13L40 13L40 12L41 12L41 11L45 11L45 12L47 12L47 10L44 10L44 8L42 8L42 7L41 7L41 6ZM9 8L9 10L8 10L8 9L6 9L6 10L5 10L5 12L10 12L10 11L11 11L11 12L14 12L14 11L12 11L12 9L11 9L11 8ZM48 8L48 9L49 9L49 8ZM51 8L51 9L52 9L52 8ZM53 8L53 9L54 9L54 8ZM55 8L55 9L56 9L56 8ZM10 9L10 10L11 10L11 9ZM28 9L28 10L29 10L29 9ZM6 10L6 11L8 11L8 10ZM32 10L32 11L33 11L33 10ZM2 12L2 13L3 13L3 12ZM17 12L17 13L18 13L18 12ZM33 12L33 13L34 13L34 12ZM52 12L52 13L53 13L53 14L54 14L54 13L55 13L55 14L56 14L56 13L55 13L55 12L54 12L54 13L53 13L53 12ZM4 13L4 14L5 14L5 13ZM6 13L6 14L7 14L7 13ZM36 13L36 14L37 14L37 15L35 15L35 16L33 16L33 15L32 15L32 18L30 18L30 19L33 19L33 18L34 18L34 19L36 19L36 20L37 20L37 19L39 19L39 17L41 17L41 16L42 16L42 17L43 17L43 16L42 16L42 15L44 15L44 18L43 18L43 20L44 20L44 18L45 18L45 19L46 19L46 18L47 18L47 17L48 17L48 16L47 16L47 15L46 15L46 17L45 17L45 15L44 15L44 13L43 13L43 14L41 14L41 16L39 16L39 15L38 15L38 14L37 14L37 13ZM30 14L30 15L31 15L31 14ZM19 15L19 16L20 16L20 15ZM35 16L35 17L37 17L37 18L38 18L38 17L39 17L39 16L38 16L38 17L37 17L37 16ZM23 18L23 19L22 19L22 20L20 20L20 19L19 19L19 20L20 20L20 21L19 21L19 22L20 22L20 23L19 23L19 24L21 24L21 25L23 25L23 24L21 24L21 23L24 23L24 24L25 24L25 25L26 25L26 26L22 26L22 27L21 27L21 28L22 28L22 29L20 29L20 31L25 31L25 32L21 32L21 33L22 33L22 34L23 34L23 33L25 33L25 34L26 34L26 33L25 33L25 32L26 32L26 31L25 31L25 30L23 30L23 29L24 29L24 28L25 28L25 29L26 29L26 28L25 28L25 27L26 27L26 26L27 26L27 25L28 25L28 26L29 26L29 25L31 25L31 24L32 24L32 26L31 26L31 28L32 28L32 30L31 30L31 31L29 31L29 33L31 33L31 35L32 35L32 34L35 34L35 36L37 36L37 37L38 37L38 35L40 35L40 34L39 34L39 33L41 33L41 32L43 32L43 30L44 30L44 31L45 31L45 30L44 30L44 29L45 29L45 28L44 28L44 26L41 26L41 25L43 25L43 24L42 24L42 23L41 23L41 24L40 24L40 22L39 22L39 21L42 21L42 20L38 20L38 22L37 22L37 24L40 24L40 25L38 25L38 26L37 26L37 25L33 25L33 24L32 24L32 23L33 23L33 22L34 22L34 23L35 23L35 21L33 21L33 20L32 20L32 21L31 21L31 20L29 20L29 19L28 19L28 18L25 18L25 19L26 19L26 20L25 20L25 21L24 21L24 20L23 20L23 19L24 19L24 18ZM41 18L41 19L42 19L42 18ZM27 19L27 20L28 20L28 19ZM9 20L9 21L10 21L10 22L12 22L12 21L10 21L10 20ZM16 20L16 21L17 21L17 22L18 22L18 21L17 21L17 20ZM13 21L13 22L14 22L14 21ZM21 21L21 22L22 22L22 21ZM23 21L23 22L24 22L24 21ZM25 21L25 22L26 22L26 23L25 23L25 24L29 24L29 23L30 23L30 24L31 24L31 23L30 23L30 22L31 22L31 21L28 21L28 22L29 22L29 23L27 23L27 21ZM38 22L38 23L39 23L39 22ZM17 23L17 24L18 24L18 23ZM4 24L4 26L3 26L3 28L1 28L1 29L2 29L2 31L4 31L4 29L3 29L3 28L4 28L4 26L7 26L7 25L5 25L5 24ZM51 24L51 25L50 25L50 26L51 26L51 25L52 25L52 26L53 26L53 27L54 27L54 26L53 26L53 25L54 25L54 24ZM17 26L17 27L18 27L18 26ZM32 26L32 27L33 27L33 28L35 28L35 30L32 30L32 32L31 32L31 33L32 33L32 32L33 32L33 31L34 31L34 32L35 32L35 34L37 34L37 35L38 35L38 33L37 33L37 32L35 32L35 31L36 31L36 30L37 30L37 29L38 29L38 28L39 28L39 27L41 27L41 28L42 28L42 27L41 27L41 26L39 26L39 27L36 27L36 26L34 26L34 27L33 27L33 26ZM5 27L5 30L8 30L8 27ZM27 27L27 30L30 30L30 27ZM49 27L49 30L52 30L52 27ZM6 28L6 29L7 29L7 28ZM28 28L28 29L29 29L29 28ZM43 28L43 29L40 29L40 30L43 30L43 29L44 29L44 28ZM50 28L50 29L51 29L51 28ZM38 30L38 32L39 32L39 30ZM46 31L46 32L47 32L47 31ZM18 33L18 34L19 34L19 33ZM42 34L42 35L41 35L41 36L40 36L40 37L43 37L43 36L44 36L44 37L45 37L45 38L46 38L46 39L47 39L47 38L49 38L49 36L50 36L50 37L51 37L51 36L50 36L50 35L52 35L52 34L50 34L50 35L49 35L49 36L47 36L47 35L46 35L46 36L44 36L44 35L43 35L43 34ZM7 35L7 36L6 36L6 37L7 37L7 36L8 36L8 38L6 38L6 39L8 39L8 38L9 38L9 37L10 37L10 36L8 36L8 35ZM33 35L33 36L32 36L32 37L33 37L33 38L34 38L34 39L35 39L35 37L34 37L34 35ZM46 36L46 37L47 37L47 36ZM25 37L25 38L27 38L27 37ZM19 38L19 39L18 39L18 40L19 40L19 39L20 39L20 38ZM13 39L13 40L14 40L14 39ZM18 41L18 42L19 42L19 44L20 44L20 46L19 46L19 47L18 47L18 48L19 48L19 47L20 47L20 46L21 46L21 45L22 45L22 46L23 46L23 45L24 45L24 44L23 44L23 45L22 45L22 44L20 44L20 42L19 42L19 41ZM21 42L21 43L22 43L22 42ZM32 42L32 43L33 43L33 42ZM41 42L41 43L40 43L40 44L39 44L39 45L38 45L38 46L39 46L39 47L38 47L38 48L37 48L37 49L38 49L38 50L36 50L36 52L38 52L38 54L40 54L40 53L41 53L41 52L43 52L43 51L42 51L42 50L41 50L41 48L42 48L42 49L43 49L43 48L44 48L44 51L45 51L45 52L44 52L44 53L43 53L43 54L44 54L44 53L45 53L45 54L48 54L48 50L47 50L47 49L48 49L48 48L49 48L49 47L48 47L48 48L47 48L47 47L46 47L46 48L45 48L45 47L43 47L43 46L41 46L41 48L39 48L39 47L40 47L40 46L39 46L39 45L41 45L41 44L42 44L42 42ZM50 42L50 43L51 43L51 42ZM3 45L3 47L5 47L5 46L4 46L4 45ZM8 45L8 46L9 46L9 45ZM14 47L14 52L15 52L15 53L16 53L16 51L17 51L17 50L16 50L16 51L15 51L15 49L16 49L16 48L15 48L15 47ZM33 47L33 48L34 48L34 47ZM42 47L42 48L43 48L43 47ZM38 48L38 49L39 49L39 48ZM46 48L46 49L47 49L47 48ZM54 48L54 49L55 49L55 50L54 50L54 51L55 51L55 52L56 52L56 51L55 51L55 50L56 50L56 48ZM27 49L27 52L30 52L30 49ZM49 49L49 52L52 52L52 49ZM28 50L28 51L29 51L29 50ZM38 50L38 52L39 52L39 51L40 51L40 52L41 52L41 50ZM50 50L50 51L51 51L51 50ZM19 51L19 52L20 52L20 51ZM46 51L46 52L47 52L47 51ZM8 52L8 57L10 57L10 56L11 56L11 57L12 57L12 56L11 56L11 54L10 54L10 52ZM53 52L53 54L54 54L54 52ZM24 53L24 54L23 54L23 55L24 55L24 56L25 56L25 54L27 54L27 53ZM9 54L9 55L10 55L10 54ZM17 54L17 55L18 55L18 54ZM35 54L35 56L36 56L36 54ZM41 54L41 55L42 55L42 54ZM50 55L50 56L51 56L51 55ZM13 56L13 57L14 57L14 56ZM20 56L20 57L21 57L21 56ZM45 56L45 57L46 57L46 56ZM0 0L0 7L7 7L7 0ZM1 1L1 6L6 6L6 1ZM2 2L2 5L5 5L5 2ZM50 0L50 7L57 7L57 0ZM51 1L51 6L56 6L56 1ZM52 2L52 5L55 5L55 2ZM0 50L0 57L7 57L7 50ZM1 51L1 56L6 56L6 51ZM2 52L2 55L5 55L5 52Z" fill="#000000"/></g></g></svg>
