<?xml version="1.0" encoding="UTF-8"?>
<svg xmlns="http://www.w3.org/2000/svg" version="1.1" width="300" height="300" viewBox="0 0 300 300"><rect x="0" y="0" width="300" height="300" fill="#fefefe"/><g transform="scale(4.615)"><g transform="translate(4,4)"><path fill-rule="evenodd" d="M8 0L8 1L9 1L9 2L8 2L8 5L9 5L9 4L10 4L10 5L11 5L11 6L10 6L10 7L9 7L9 6L8 6L8 7L9 7L9 8L8 8L8 9L7 9L7 8L6 8L6 9L7 9L7 10L5 10L5 9L4 9L4 8L0 8L0 9L1 9L1 10L0 10L0 11L2 11L2 12L3 12L3 13L2 13L2 14L1 14L1 15L0 15L0 17L1 17L1 19L0 19L0 20L1 20L1 21L3 21L3 20L5 20L5 21L4 21L4 22L5 22L5 21L7 21L7 20L6 20L6 19L7 19L7 18L4 18L4 16L6 16L6 17L8 17L8 16L9 16L9 17L10 17L10 16L14 16L14 18L15 18L15 19L13 19L13 17L11 17L11 19L8 19L8 21L10 21L10 22L6 22L6 23L4 23L4 24L5 24L5 25L3 25L3 22L0 22L0 28L1 28L1 26L2 26L2 27L3 27L3 29L1 29L1 30L3 30L3 31L2 31L2 32L1 32L1 33L0 33L0 36L1 36L1 33L2 33L2 32L3 32L3 33L4 33L4 34L3 34L3 35L2 35L2 36L5 36L5 35L8 35L8 36L9 36L9 39L8 39L8 40L9 40L9 41L10 41L10 42L11 42L11 43L9 43L9 42L6 42L6 41L7 41L7 40L6 40L6 39L7 39L7 38L8 38L8 37L7 37L7 36L6 36L6 37L7 37L7 38L6 38L6 39L3 39L3 40L2 40L2 42L3 42L3 43L1 43L1 42L0 42L0 43L1 43L1 44L0 44L0 45L1 45L1 46L0 46L0 48L5 48L5 47L7 47L7 46L8 46L8 47L9 47L9 48L8 48L8 50L9 50L9 51L10 51L10 53L8 53L8 57L10 57L10 56L11 56L11 51L12 51L12 50L13 50L13 52L12 52L12 53L15 53L15 54L13 54L13 55L12 55L12 57L13 57L13 56L14 56L14 57L15 57L15 56L16 56L16 57L18 57L18 55L20 55L20 56L19 56L19 57L20 57L20 56L21 56L21 57L24 57L24 56L26 56L26 54L27 54L27 53L29 53L29 54L31 54L31 55L30 55L30 56L31 56L31 57L32 57L32 55L34 55L34 56L33 56L33 57L36 57L36 55L38 55L38 57L43 57L43 55L44 55L44 54L45 54L45 56L46 56L46 57L51 57L51 54L52 54L52 53L54 53L54 52L55 52L55 54L53 54L53 56L52 56L52 57L55 57L55 56L54 56L54 55L55 55L55 54L56 54L56 51L55 51L55 50L57 50L57 48L56 48L56 49L55 49L55 50L53 50L53 49L54 49L54 48L51 48L51 46L52 46L52 43L53 43L53 42L54 42L54 43L56 43L56 41L57 41L57 40L56 40L56 41L55 41L55 42L54 42L54 41L53 41L53 40L55 40L55 38L56 38L56 39L57 39L57 38L56 38L56 37L57 37L57 36L56 36L56 35L57 35L57 31L56 31L56 30L57 30L57 29L56 29L56 27L53 27L53 26L52 26L52 25L51 25L51 24L49 24L49 23L47 23L47 22L49 22L49 20L50 20L50 21L51 21L51 22L52 22L52 24L53 24L53 25L55 25L55 26L56 26L56 24L54 24L54 23L57 23L57 21L56 21L56 22L54 22L54 21L55 21L55 20L54 20L54 21L53 21L53 20L50 20L50 19L49 19L49 18L48 18L48 17L49 17L49 16L50 16L50 17L52 17L52 16L50 16L50 15L51 15L51 13L52 13L52 14L54 14L54 15L53 15L53 16L55 16L55 17L54 17L54 18L52 18L52 19L56 19L56 20L57 20L57 19L56 19L56 18L57 18L57 15L55 15L55 14L54 14L54 10L50 10L50 8L49 8L49 6L48 6L48 8L47 8L47 5L48 5L48 0L45 0L45 1L44 1L44 2L41 2L41 1L43 1L43 0L41 0L41 1L40 1L40 0L39 0L39 1L40 1L40 2L41 2L41 4L37 4L37 1L38 1L38 0L37 0L37 1L36 1L36 0L35 0L35 1L34 1L34 2L31 2L31 4L30 4L30 1L33 1L33 0L29 0L29 4L26 4L26 1L25 1L25 0L23 0L23 1L22 1L22 0L21 0L21 1L22 1L22 2L21 2L21 3L23 3L23 4L21 4L21 5L20 5L20 4L19 4L19 3L20 3L20 2L19 2L19 3L18 3L18 1L20 1L20 0L17 0L17 1L16 1L16 2L15 2L15 3L17 3L17 4L19 4L19 5L18 5L18 7L19 7L19 8L20 8L20 7L21 7L21 6L22 6L22 7L23 7L23 8L21 8L21 11L20 11L20 9L19 9L19 12L18 12L18 10L17 10L17 12L16 12L16 13L17 13L17 12L18 12L18 13L19 13L19 15L18 15L18 14L16 14L16 15L15 15L15 11L16 11L16 8L15 8L15 11L14 11L14 9L13 9L13 8L11 8L11 6L12 6L12 7L13 7L13 6L14 6L14 7L15 7L15 6L16 6L16 7L17 7L17 5L15 5L15 4L14 4L14 3L13 3L13 4L11 4L11 2L10 2L10 1L9 1L9 0ZM12 0L12 2L13 2L13 0ZM23 1L23 3L24 3L24 2L25 2L25 1ZM27 1L27 3L28 3L28 1ZM35 1L35 2L34 2L34 3L35 3L35 2L36 2L36 1ZM46 1L46 2L45 2L45 3L44 3L44 4L45 4L45 5L43 5L43 3L42 3L42 4L41 4L41 7L40 7L40 5L36 5L36 4L34 4L34 5L33 5L33 3L32 3L32 4L31 4L31 5L32 5L32 6L31 6L31 9L32 9L32 10L29 10L29 9L28 9L28 10L26 10L26 11L25 11L25 12L23 12L23 11L24 11L24 10L23 10L23 9L22 9L22 10L23 10L23 11L21 11L21 12L20 12L20 13L21 13L21 16L17 16L17 15L16 15L16 16L15 16L15 15L14 15L14 16L15 16L15 17L19 17L19 18L16 18L16 20L14 20L14 22L15 22L15 23L16 23L16 27L15 27L15 28L14 28L14 27L13 27L13 26L14 26L14 25L15 25L15 24L14 24L14 23L12 23L12 22L11 22L11 23L8 23L8 24L10 24L10 25L9 25L9 26L10 26L10 27L11 27L11 28L10 28L10 29L9 29L9 31L8 31L8 32L9 32L9 34L8 34L8 35L9 35L9 36L11 36L11 38L10 38L10 39L9 39L9 40L10 40L10 41L11 41L11 42L15 42L15 43L16 43L16 42L15 42L15 41L17 41L17 39L18 39L18 37L17 37L17 36L18 36L18 33L20 33L20 35L19 35L19 37L20 37L20 38L21 38L21 39L22 39L22 41L20 41L20 40L18 40L18 41L19 41L19 43L18 43L18 42L17 42L17 45L15 45L15 44L14 44L14 43L11 43L11 44L14 44L14 45L15 45L15 46L14 46L14 47L12 47L12 45L11 45L11 47L10 47L10 48L11 48L11 49L12 49L12 48L14 48L14 51L15 51L15 53L16 53L16 54L17 54L17 55L18 55L18 54L19 54L19 51L23 51L23 52L21 52L21 53L20 53L20 55L21 55L21 56L22 56L22 54L23 54L23 56L24 56L24 55L25 55L25 54L26 54L26 50L25 50L25 49L26 49L26 48L27 48L27 47L28 47L28 48L29 48L29 47L30 47L30 48L32 48L32 49L33 49L33 50L34 50L34 51L33 51L33 52L35 52L35 53L36 53L36 54L34 54L34 55L36 55L36 54L37 54L37 52L38 52L38 54L39 54L39 52L40 52L40 54L41 54L41 53L42 53L42 54L43 54L43 47L40 47L40 46L41 46L41 45L38 45L38 44L39 44L39 43L40 43L40 44L41 44L41 43L42 43L42 45L43 45L43 46L45 46L45 47L44 47L44 49L45 49L45 50L44 50L44 51L45 51L45 53L46 53L46 51L47 51L47 52L48 52L48 48L47 48L47 49L46 49L46 46L47 46L47 45L48 45L48 47L49 47L49 48L50 48L50 47L49 47L49 45L48 45L48 43L47 43L47 42L50 42L50 43L49 43L49 44L51 44L51 42L50 42L50 41L52 41L52 40L53 40L53 39L52 39L52 38L55 38L55 37L56 37L56 36L55 36L55 35L54 35L54 36L55 36L55 37L53 37L53 36L52 36L52 35L51 35L51 36L50 36L50 37L49 37L49 36L48 36L48 35L49 35L49 34L50 34L50 33L49 33L49 32L48 32L48 26L49 26L49 25L46 25L46 26L47 26L47 31L44 31L44 30L46 30L46 27L45 27L45 29L42 29L42 30L40 30L40 29L41 29L41 26L44 26L44 25L45 25L45 24L47 24L47 23L44 23L44 25L43 25L43 22L41 22L41 23L40 23L40 24L38 24L38 25L40 25L40 26L38 26L38 27L40 27L40 29L38 29L38 30L37 30L37 28L34 28L34 29L36 29L36 30L35 30L35 31L34 31L34 32L33 32L33 31L32 31L32 30L33 30L33 29L32 29L32 30L31 30L31 34L30 34L30 35L29 35L29 33L30 33L30 31L29 31L29 32L28 32L28 31L23 31L23 30L21 30L21 29L24 29L24 30L26 30L26 28L24 28L24 27L22 27L22 26L21 26L21 27L17 27L17 26L19 26L19 25L20 25L20 24L21 24L21 25L23 25L23 26L25 26L25 25L29 25L29 26L31 26L31 25L29 25L29 23L28 23L28 24L26 24L26 23L27 23L27 22L29 22L29 21L30 21L30 20L29 20L29 19L28 19L28 18L29 18L29 17L30 17L30 19L32 19L32 20L31 20L31 23L30 23L30 24L31 24L31 23L32 23L32 22L33 22L33 24L32 24L32 25L33 25L33 24L35 24L35 23L36 23L36 24L37 24L37 22L35 22L35 21L34 21L34 19L35 19L35 20L36 20L36 21L38 21L38 23L39 23L39 20L40 20L40 19L39 19L39 18L41 18L41 20L43 20L43 21L44 21L44 22L45 22L45 20L47 20L47 21L46 21L46 22L47 22L47 21L48 21L48 20L49 20L49 19L48 19L48 18L47 18L47 19L44 19L44 18L45 18L45 17L47 17L47 14L48 14L48 16L49 16L49 11L50 11L50 10L49 10L49 11L48 11L48 10L47 10L47 9L46 9L46 8L43 8L43 7L44 7L44 6L45 6L45 7L46 7L46 6L45 6L45 5L47 5L47 3L46 3L46 2L47 2L47 1ZM38 2L38 3L39 3L39 2ZM13 4L13 5L14 5L14 6L15 6L15 5L14 5L14 4ZM24 4L24 6L23 6L23 7L24 7L24 9L26 9L26 6L25 6L25 5L26 5L26 4ZM27 5L27 8L30 8L30 5ZM19 6L19 7L20 7L20 6ZM24 6L24 7L25 7L25 6ZM28 6L28 7L29 7L29 6ZM32 6L32 8L33 8L33 6ZM34 6L34 9L36 9L36 8L37 8L37 10L38 10L38 9L40 9L40 10L39 10L39 11L38 11L38 12L35 12L35 11L36 11L36 10L35 10L35 11L34 11L34 10L33 10L33 13L32 13L32 12L31 12L31 11L30 11L30 12L31 12L31 14L30 14L30 13L28 13L28 12L26 12L26 13L27 13L27 17L29 17L29 16L31 16L31 17L32 17L32 18L35 18L35 17L34 17L34 16L35 16L35 15L36 15L36 14L37 14L37 15L39 15L39 17L40 17L40 16L41 16L41 13L40 13L40 14L39 14L39 11L40 11L40 10L41 10L41 11L42 11L42 12L43 12L43 14L42 14L42 17L41 17L41 18L42 18L42 19L43 19L43 18L42 18L42 17L45 17L45 16L46 16L46 15L45 15L45 14L46 14L46 13L44 13L44 10L45 10L45 9L44 9L44 10L43 10L43 9L41 9L41 8L38 8L38 7L39 7L39 6L38 6L38 7L37 7L37 6L36 6L36 7L35 7L35 6ZM42 6L42 7L43 7L43 6ZM9 8L9 9L8 9L8 10L9 10L9 9L10 9L10 8ZM17 8L17 9L18 9L18 8ZM52 8L52 9L55 9L55 8ZM56 8L56 9L57 9L57 8ZM3 9L3 10L2 10L2 11L3 11L3 10L4 10L4 9ZM10 10L10 11L9 11L9 12L8 12L8 11L4 11L4 13L3 13L3 15L1 15L1 16L2 16L2 17L3 17L3 15L5 15L5 12L8 12L8 13L9 13L9 12L10 12L10 11L11 11L11 13L10 13L10 14L8 14L8 15L6 15L6 16L8 16L8 15L9 15L9 16L10 16L10 15L11 15L11 13L13 13L13 14L12 14L12 15L13 15L13 14L14 14L14 13L13 13L13 11L12 11L12 10ZM28 10L28 11L29 11L29 10ZM46 10L46 11L47 11L47 12L48 12L48 11L47 11L47 10ZM55 10L55 12L56 12L56 13L57 13L57 10ZM51 11L51 12L50 12L50 13L51 13L51 12L52 12L52 13L53 13L53 11ZM22 12L22 13L23 13L23 12ZM34 12L34 14L33 14L33 15L35 15L35 14L36 14L36 13L35 13L35 12ZM6 13L6 14L7 14L7 13ZM23 14L23 15L24 15L24 16L23 16L23 18L24 18L24 19L25 19L25 20L27 20L27 21L25 21L25 22L24 22L24 21L23 21L23 20L21 20L21 22L19 22L19 21L18 21L18 19L17 19L17 20L16 20L16 23L18 23L18 24L17 24L17 25L19 25L19 24L20 24L20 23L21 23L21 24L24 24L24 25L25 25L25 22L27 22L27 21L29 21L29 20L27 20L27 19L26 19L26 17L25 17L25 16L26 16L26 15L25 15L25 14ZM28 15L28 16L29 16L29 15ZM31 15L31 16L32 16L32 15ZM44 15L44 16L45 16L45 15ZM21 17L21 18L22 18L22 17ZM24 17L24 18L25 18L25 17ZM36 17L36 18L37 18L37 17ZM55 17L55 18L56 18L56 17ZM2 18L2 19L1 19L1 20L3 20L3 18ZM11 19L11 20L10 20L10 21L13 21L13 20L12 20L12 19ZM36 19L36 20L37 20L37 19ZM17 21L17 22L18 22L18 21ZM21 22L21 23L23 23L23 22ZM6 23L6 24L7 24L7 23ZM41 23L41 25L42 25L42 23ZM1 24L1 25L2 25L2 24ZM11 24L11 25L10 25L10 26L11 26L11 27L12 27L12 26L13 26L13 24ZM5 25L5 26L8 26L8 25ZM11 25L11 26L12 26L12 25ZM34 25L34 27L35 27L35 25ZM3 26L3 27L4 27L4 26ZM5 27L5 30L8 30L8 27ZM27 27L27 30L30 30L30 27ZM32 27L32 28L33 28L33 27ZM42 27L42 28L43 28L43 27ZM49 27L49 30L52 30L52 27ZM6 28L6 29L7 29L7 28ZM11 28L11 29L10 29L10 31L9 31L9 32L10 32L10 31L11 31L11 29L12 29L12 30L13 30L13 31L12 31L12 32L14 32L14 28ZM15 28L15 29L16 29L16 30L15 30L15 33L16 33L16 30L17 30L17 28ZM18 28L18 29L19 29L19 28ZM28 28L28 29L29 29L29 28ZM50 28L50 29L51 29L51 28ZM53 28L53 29L54 29L54 30L56 30L56 29L54 29L54 28ZM19 30L19 32L20 32L20 33L21 33L21 34L22 34L22 36L23 36L23 39L24 39L24 41L25 41L25 42L23 42L23 41L22 41L22 44L21 44L21 43L19 43L19 44L20 44L20 45L21 45L21 46L20 46L20 47L18 47L18 46L19 46L19 45L17 45L17 47L16 47L16 46L15 46L15 47L16 47L16 48L15 48L15 51L17 51L17 50L21 50L21 48L23 48L23 49L22 49L22 50L23 50L23 49L24 49L24 47L23 47L23 46L22 46L22 44L23 44L23 45L24 45L24 46L25 46L25 45L26 45L26 46L27 46L27 45L26 45L26 43L25 43L25 42L27 42L27 43L28 43L28 44L30 44L30 45L29 45L29 46L28 46L28 47L29 47L29 46L31 46L31 44L30 44L30 43L32 43L32 42L33 42L33 45L32 45L32 46L33 46L33 45L34 45L34 44L35 44L35 45L36 45L36 46L37 46L37 47L38 47L38 45L36 45L36 44L35 44L35 43L34 43L34 42L36 42L36 41L34 41L34 40L35 40L35 39L36 39L36 38L34 38L34 37L33 37L33 38L32 38L32 36L34 36L34 35L36 35L36 36L35 36L35 37L37 37L37 39L38 39L38 40L37 40L37 41L39 41L39 42L37 42L37 44L38 44L38 43L39 43L39 42L40 42L40 39L43 39L43 41L44 41L44 43L43 43L43 42L42 42L42 41L41 41L41 42L42 42L42 43L43 43L43 44L47 44L47 43L45 43L45 42L47 42L47 41L50 41L50 40L51 40L51 39L50 39L50 40L47 40L47 39L48 39L48 38L49 38L49 37L47 37L47 38L46 38L46 36L47 36L47 35L48 35L48 34L47 34L47 35L46 35L46 34L44 34L44 31L41 31L41 32L40 32L40 31L39 31L39 30L38 30L38 31L39 31L39 34L38 34L38 32L37 32L37 31L35 31L35 34L34 34L34 33L33 33L33 34L31 34L31 35L32 35L32 36L29 36L29 35L28 35L28 34L27 34L27 36L29 36L29 38L27 38L27 37L26 37L26 36L23 36L23 35L24 35L24 34L25 34L25 35L26 35L26 34L25 34L25 33L28 33L28 32L24 32L24 33L23 33L23 31L22 31L22 32L21 32L21 31L20 31L20 30ZM4 31L4 33L5 33L5 34L4 34L4 35L5 35L5 34L7 34L7 33L6 33L6 32L7 32L7 31L6 31L6 32L5 32L5 31ZM17 31L17 33L18 33L18 31ZM51 31L51 32L52 32L52 34L54 34L54 33L55 33L55 34L56 34L56 33L55 33L55 31ZM36 32L36 33L37 33L37 32ZM42 32L42 33L43 33L43 32ZM45 32L45 33L47 33L47 32ZM11 33L11 34L12 34L12 36L13 36L13 33ZM22 33L22 34L23 34L23 33ZM9 34L9 35L10 35L10 34ZM14 34L14 35L16 35L16 36L17 36L17 34ZM41 34L41 35L39 35L39 36L40 36L40 37L41 37L41 38L44 38L44 39L46 39L46 38L45 38L45 36L44 36L44 37L41 37L41 36L43 36L43 35L42 35L42 34ZM14 36L14 37L12 37L12 38L11 38L11 39L13 39L13 41L15 41L15 40L16 40L16 39L17 39L17 38L14 38L14 37L15 37L15 36ZM37 36L37 37L38 37L38 36ZM51 36L51 38L52 38L52 36ZM1 37L1 38L0 38L0 39L2 39L2 38L3 38L3 37ZM4 37L4 38L5 38L5 37ZM21 37L21 38L22 38L22 37ZM24 37L24 39L25 39L25 41L26 41L26 40L27 40L27 41L28 41L28 40L29 40L29 42L31 42L31 41L30 41L30 40L33 40L33 39L34 39L34 38L33 38L33 39L32 39L32 38L30 38L30 39L28 39L28 40L27 40L27 39L25 39L25 38L26 38L26 37ZM14 39L14 40L15 40L15 39ZM0 40L0 41L1 41L1 40ZM4 40L4 41L6 41L6 40ZM45 40L45 41L46 41L46 40ZM5 42L5 44L4 44L4 45L3 45L3 44L1 44L1 45L3 45L3 47L5 47L5 46L7 46L7 45L8 45L8 46L9 46L9 44L8 44L8 43L6 43L6 42ZM23 43L23 44L25 44L25 43ZM6 44L6 45L7 45L7 44ZM53 44L53 46L55 46L55 47L57 47L57 45L56 45L56 44ZM4 45L4 46L5 46L5 45ZM50 45L50 46L51 46L51 45ZM55 45L55 46L56 46L56 45ZM1 46L1 47L2 47L2 46ZM21 46L21 47L20 47L20 48L19 48L19 49L20 49L20 48L21 48L21 47L22 47L22 46ZM34 46L34 48L33 48L33 47L32 47L32 48L33 48L33 49L34 49L34 48L35 48L35 52L36 52L36 51L39 51L39 50L40 50L40 49L39 49L39 48L38 48L38 49L37 49L37 48L35 48L35 46ZM6 48L6 49L7 49L7 48ZM16 48L16 50L17 50L17 48ZM41 48L41 49L42 49L42 48ZM9 49L9 50L10 50L10 49ZM27 49L27 52L30 52L30 49ZM36 49L36 50L37 50L37 49ZM49 49L49 52L52 52L52 49ZM24 50L24 51L25 51L25 50ZM28 50L28 51L29 51L29 50ZM45 50L45 51L46 51L46 50ZM50 50L50 51L51 51L51 50ZM31 51L31 53L32 53L32 51ZM40 51L40 52L41 52L41 51ZM23 52L23 54L25 54L25 53L24 53L24 52ZM17 53L17 54L18 54L18 53ZM21 53L21 54L22 54L22 53ZM47 53L47 54L46 54L46 56L49 56L49 55L47 55L47 54L50 54L50 53ZM9 54L9 55L10 55L10 54ZM27 55L27 56L28 56L28 55ZM39 55L39 56L42 56L42 55ZM56 55L56 56L57 56L57 55ZM0 0L0 7L7 7L7 0ZM1 1L1 6L6 6L6 1ZM2 2L2 5L5 5L5 2ZM50 0L50 7L57 7L57 0ZM51 1L51 6L56 6L56 1ZM52 2L52 5L55 5L55 2ZM0 50L0 57L7 57L7 50ZM1 51L1 56L6 56L6 51ZM2 52L2 55L5 55L5 52Z" fill="#000000"/></g></g></svg>
