<?xml version="1.0" encoding="UTF-8"?>
<svg xmlns="http://www.w3.org/2000/svg" version="1.1" width="300" height="300" viewBox="0 0 300 300"><rect x="0" y="0" width="300" height="300" fill="#fefefe"/><g transform="scale(4.615)"><g transform="translate(4,4)"><path fill-rule="evenodd" d="M8 0L8 1L10 1L10 2L8 2L8 5L9 5L9 6L8 6L8 7L9 7L9 8L8 8L8 9L9 9L9 8L10 8L10 10L11 10L11 11L10 11L10 13L7 13L7 12L8 12L8 11L9 11L9 10L6 10L6 9L7 9L7 8L6 8L6 9L5 9L5 10L4 10L4 8L0 8L0 11L1 11L1 9L3 9L3 10L2 10L2 12L1 12L1 13L2 13L2 12L3 12L3 14L2 14L2 15L3 15L3 17L4 17L4 18L3 18L3 19L2 19L2 18L1 18L1 17L2 17L2 16L0 16L0 18L1 18L1 19L0 19L0 20L2 20L2 21L1 21L1 22L0 22L0 23L2 23L2 21L3 21L3 24L1 24L1 25L0 25L0 27L1 27L1 28L0 28L0 29L1 29L1 30L0 30L0 32L2 32L2 33L4 33L4 34L5 34L5 35L7 35L7 34L8 34L8 35L9 35L9 34L8 34L8 33L10 33L10 34L11 34L11 35L10 35L10 36L11 36L11 38L10 38L10 37L9 37L9 36L8 36L8 37L7 37L7 36L6 36L6 37L7 37L7 38L5 38L5 40L6 40L6 41L8 41L8 40L6 40L6 39L7 39L7 38L8 38L8 37L9 37L9 39L10 39L10 40L9 40L9 41L11 41L11 44L10 44L10 43L7 43L7 42L6 42L6 43L5 43L5 42L4 42L4 43L3 43L3 42L1 42L1 41L2 41L2 39L1 39L1 41L0 41L0 42L1 42L1 43L0 43L0 44L3 44L3 45L4 45L4 46L5 46L5 47L3 47L3 46L2 46L2 45L1 45L1 46L0 46L0 48L5 48L5 47L7 47L7 46L8 46L8 47L9 47L9 46L8 46L8 45L11 45L11 47L12 47L12 45L13 45L13 48L11 48L11 49L8 49L8 50L9 50L9 53L8 53L8 57L13 57L13 55L14 55L14 54L15 54L15 56L16 56L16 57L18 57L18 56L17 56L17 54L16 54L16 53L14 53L14 52L15 52L15 51L16 51L16 49L13 49L13 48L17 48L17 49L19 49L19 50L21 50L21 51L19 51L19 53L18 53L18 54L19 54L19 55L20 55L20 56L21 56L21 57L23 57L23 54L25 54L25 55L24 55L24 57L25 57L25 55L26 55L26 56L28 56L28 55L26 55L26 53L29 53L29 54L31 54L31 55L30 55L30 56L31 56L31 57L32 57L32 55L33 55L33 54L36 54L36 55L34 55L34 56L33 56L33 57L36 57L36 55L38 55L38 57L39 57L39 56L40 56L40 57L42 57L42 56L43 56L43 55L44 55L44 56L45 56L45 57L46 57L46 55L44 55L44 54L47 54L47 56L48 56L48 57L51 57L51 54L52 54L52 53L53 53L53 55L55 55L55 54L56 54L56 53L55 53L55 54L54 54L54 52L55 52L55 50L57 50L57 48L56 48L56 49L55 49L55 50L53 50L53 48L54 48L54 47L57 47L57 45L56 45L56 46L53 46L53 47L51 47L51 46L52 46L52 43L53 43L53 42L54 42L54 43L56 43L56 44L57 44L57 43L56 43L56 42L57 42L57 40L56 40L56 41L55 41L55 42L54 42L54 41L53 41L53 40L55 40L55 39L53 39L53 38L52 38L52 37L51 37L51 35L52 35L52 36L53 36L53 37L55 37L55 38L56 38L56 39L57 39L57 38L56 38L56 36L54 36L54 35L57 35L57 31L56 31L56 30L57 30L57 29L56 29L56 30L54 30L54 29L55 29L55 28L57 28L57 27L56 27L56 24L54 24L54 23L57 23L57 19L56 19L56 18L57 18L57 15L55 15L55 14L54 14L54 10L53 10L53 9L55 9L55 8L52 8L52 10L51 10L51 11L49 11L49 16L48 16L48 14L47 14L47 15L45 15L45 16L44 16L44 15L43 15L43 14L44 14L44 12L43 12L43 11L44 11L44 10L45 10L45 9L44 9L44 10L43 10L43 9L41 9L41 8L39 8L39 9L41 9L41 10L40 10L40 11L39 11L39 10L38 10L38 9L37 9L37 10L38 10L38 12L35 12L35 11L36 11L36 10L35 10L35 11L34 11L34 10L33 10L33 11L32 11L32 12L33 12L33 13L31 13L31 14L30 14L30 13L28 13L28 12L26 12L26 13L27 13L27 16L26 16L26 15L24 15L24 14L23 14L23 18L22 18L22 17L21 17L21 18L19 18L19 17L18 17L18 18L19 18L19 19L17 19L17 16L16 16L16 15L18 15L18 16L19 16L19 15L18 15L18 14L16 14L16 15L15 15L15 12L16 12L16 13L17 13L17 12L18 12L18 13L19 13L19 14L21 14L21 13L20 13L20 12L21 12L21 11L23 11L23 12L22 12L22 13L23 13L23 12L24 12L24 13L25 13L25 11L26 11L26 10L27 10L27 11L29 11L29 10L32 10L32 9L31 9L31 6L32 6L32 8L33 8L33 6L34 6L34 9L36 9L36 8L38 8L38 7L39 7L39 6L38 6L38 7L37 7L37 6L36 6L36 7L35 7L35 6L34 6L34 5L33 5L33 6L32 6L32 5L31 5L31 4L32 4L32 3L35 3L35 4L36 4L36 5L40 5L40 7L41 7L41 6L42 6L42 7L43 7L43 8L46 8L46 9L47 9L47 10L46 10L46 11L47 11L47 12L48 12L48 11L47 11L47 10L50 10L50 8L49 8L49 9L47 9L47 5L48 5L48 0L46 0L46 1L44 1L44 2L42 2L42 3L43 3L43 5L45 5L45 6L44 6L44 7L43 7L43 6L42 6L42 5L41 5L41 4L37 4L37 3L38 3L38 2L37 2L37 1L38 1L38 0L37 0L37 1L36 1L36 0L35 0L35 1L34 1L34 2L31 2L31 4L26 4L26 0L23 0L23 1L25 1L25 2L24 2L24 3L23 3L23 4L22 4L22 5L20 5L20 4L19 4L19 3L20 3L20 2L18 2L18 3L17 3L17 4L18 4L18 5L15 5L15 4L14 4L14 3L11 3L11 2L12 2L12 1L14 1L14 0L12 0L12 1L11 1L11 0ZM17 0L17 1L20 1L20 0ZM21 0L21 2L22 2L22 0ZM28 0L28 2L27 2L27 3L28 3L28 2L29 2L29 1L33 1L33 0ZM39 0L39 1L40 1L40 2L41 2L41 1L43 1L43 0L41 0L41 1L40 1L40 0ZM35 1L35 2L36 2L36 1ZM46 1L46 2L45 2L45 3L44 3L44 4L45 4L45 5L47 5L47 3L46 3L46 2L47 2L47 1ZM15 2L15 3L16 3L16 2ZM9 3L9 5L11 5L11 3ZM13 4L13 5L12 5L12 6L11 6L11 10L12 10L12 11L11 11L11 12L13 12L13 10L14 10L14 11L16 11L16 10L17 10L17 8L18 8L18 9L19 9L19 7L20 7L20 10L18 10L18 12L19 12L19 11L21 11L21 10L23 10L23 11L24 11L24 10L23 10L23 9L21 9L21 8L23 8L23 7L24 7L24 9L26 9L26 6L25 6L25 5L26 5L26 4L24 4L24 6L23 6L23 7L22 7L22 6L21 6L21 7L20 7L20 6L19 6L19 7L18 7L18 6L17 6L17 7L16 7L16 6L15 6L15 7L14 7L14 6L13 6L13 5L14 5L14 4ZM27 5L27 8L30 8L30 5ZM9 6L9 7L10 7L10 6ZM12 6L12 7L13 7L13 6ZM24 6L24 7L25 7L25 6ZM28 6L28 7L29 7L29 6ZM45 6L45 7L46 7L46 6ZM48 6L48 7L49 7L49 6ZM12 8L12 10L13 10L13 8ZM56 8L56 9L57 9L57 8ZM28 9L28 10L29 10L29 9ZM41 10L41 11L40 11L40 14L41 14L41 16L40 16L40 17L39 17L39 15L36 15L36 14L35 14L35 12L34 12L34 14L33 14L33 15L35 15L35 16L34 16L34 17L35 17L35 18L32 18L32 17L31 17L31 16L32 16L32 15L31 15L31 16L29 16L29 15L28 15L28 16L29 16L29 17L27 17L27 18L26 18L26 19L27 19L27 20L26 20L26 21L27 21L27 20L28 20L28 18L29 18L29 17L30 17L30 19L29 19L29 21L30 21L30 20L31 20L31 23L30 23L30 22L29 22L29 23L28 23L28 22L25 22L25 19L24 19L24 18L25 18L25 17L26 17L26 16L25 16L25 17L24 17L24 18L23 18L23 19L21 19L21 20L20 20L20 19L19 19L19 20L18 20L18 21L19 21L19 22L17 22L17 23L16 23L16 20L17 20L17 19L16 19L16 20L14 20L14 22L13 22L13 23L12 23L12 19L11 19L11 18L10 18L10 17L11 17L11 16L12 16L12 18L13 18L13 19L15 19L15 17L16 17L16 16L15 16L15 15L14 15L14 13L13 13L13 14L11 14L11 13L10 13L10 14L9 14L9 15L10 15L10 16L7 16L7 15L6 15L6 16L5 16L5 15L4 15L4 14L3 14L3 15L4 15L4 16L5 16L5 17L6 17L6 18L7 18L7 19L5 19L5 18L4 18L4 19L3 19L3 20L4 20L4 24L5 24L5 23L6 23L6 24L7 24L7 23L6 23L6 22L10 22L10 25L9 25L9 24L8 24L8 25L5 25L5 26L8 26L8 25L9 25L9 27L11 27L11 28L10 28L10 30L9 30L9 31L8 31L8 32L10 32L10 30L11 30L11 33L12 33L12 35L11 35L11 36L15 36L15 37L14 37L14 38L13 38L13 37L12 37L12 39L13 39L13 40L11 40L11 41L13 41L13 40L15 40L15 38L17 38L17 39L16 39L16 41L17 41L17 44L16 44L16 45L15 45L15 46L14 46L14 47L17 47L17 48L18 48L18 47L19 47L19 48L20 48L20 49L21 49L21 50L22 50L22 51L23 51L23 52L22 52L22 53L20 53L20 55L22 55L22 53L23 53L23 52L24 52L24 53L25 53L25 52L26 52L26 51L24 51L24 50L25 50L25 49L26 49L26 48L28 48L28 46L29 46L29 48L31 48L31 47L32 47L32 49L31 49L31 53L32 53L32 51L33 51L33 50L32 50L32 49L34 49L34 52L33 52L33 53L34 53L34 52L35 52L35 53L36 53L36 54L39 54L39 53L37 53L37 51L36 51L36 52L35 52L35 48L37 48L37 49L36 49L36 50L37 50L37 49L38 49L38 48L39 48L39 49L40 49L40 50L39 50L39 51L38 51L38 52L40 52L40 54L41 54L41 56L42 56L42 54L43 54L43 51L45 51L45 52L46 52L46 53L47 53L47 52L48 52L48 48L45 48L45 47L46 47L46 46L47 46L47 47L49 47L49 46L51 46L51 45L50 45L50 44L51 44L51 42L50 42L50 41L52 41L52 40L50 40L50 41L47 41L47 42L45 42L45 41L44 41L44 40L43 40L43 39L39 39L39 38L38 38L38 39L37 39L37 37L35 37L35 36L36 36L36 35L35 35L35 31L37 31L37 32L36 32L36 33L37 33L37 32L38 32L38 34L39 34L39 31L40 31L40 32L41 32L41 31L44 31L44 34L46 34L46 35L45 35L45 36L44 36L44 37L41 37L41 36L42 36L42 34L41 34L41 35L39 35L39 36L38 36L38 35L37 35L37 36L38 36L38 37L39 37L39 36L40 36L40 37L41 37L41 38L44 38L44 39L45 39L45 40L46 40L46 38L47 38L47 37L48 37L48 39L47 39L47 40L49 40L49 39L52 39L52 38L49 38L49 37L50 37L50 36L48 36L48 35L47 35L47 34L50 34L50 33L49 33L49 32L52 32L52 34L54 34L54 33L53 33L53 32L55 32L55 31L54 31L54 30L53 30L53 31L49 31L49 32L48 32L48 30L47 30L47 31L46 31L46 32L47 32L47 33L45 33L45 31L44 31L44 30L46 30L46 26L49 26L49 25L50 25L50 23L52 23L52 22L51 22L51 21L50 21L50 20L53 20L53 21L54 21L54 22L56 22L56 21L54 21L54 20L56 20L56 19L51 19L51 18L54 18L54 17L55 17L55 18L56 18L56 17L55 17L55 16L53 16L53 15L54 15L54 14L52 14L52 13L53 13L53 10L52 10L52 11L51 11L51 12L50 12L50 13L51 13L51 15L50 15L50 16L49 16L49 17L48 17L48 18L46 18L46 20L48 20L48 21L49 21L49 25L46 25L46 24L47 24L47 23L44 23L44 25L41 25L41 24L43 24L43 22L41 22L41 23L40 23L40 24L39 24L39 20L40 20L40 19L39 19L39 18L41 18L41 20L43 20L43 21L44 21L44 22L45 22L45 19L44 19L44 18L45 18L45 17L46 17L46 16L45 16L45 17L42 17L42 14L43 14L43 12L42 12L42 11L43 11L43 10ZM55 10L55 12L57 12L57 10ZM6 11L6 12L7 12L7 11ZM30 11L30 12L31 12L31 11ZM51 12L51 13L52 13L52 12ZM5 13L5 14L7 14L7 13ZM45 13L45 14L46 14L46 13ZM0 14L0 15L1 15L1 14ZM10 14L10 15L11 15L11 14ZM12 15L12 16L13 16L13 18L14 18L14 17L15 17L15 16L14 16L14 15ZM51 15L51 16L50 16L50 17L52 17L52 15ZM6 16L6 17L7 17L7 16ZM8 17L8 21L11 21L11 19L9 19L9 17ZM36 17L36 18L37 18L37 17ZM41 17L41 18L42 18L42 19L43 19L43 18L42 18L42 17ZM31 18L31 20L32 20L32 18ZM48 18L48 19L49 19L49 20L50 20L50 18ZM4 19L4 20L5 20L5 19ZM36 19L36 20L35 20L35 22L38 22L38 21L36 21L36 20L37 20L37 19ZM6 20L6 21L5 21L5 22L6 22L6 21L7 21L7 20ZM21 20L21 22L19 22L19 23L17 23L17 27L19 27L19 28L18 28L18 29L20 29L20 27L21 27L21 26L22 26L22 27L23 27L23 29L21 29L21 30L23 30L23 31L22 31L22 32L21 32L21 35L18 35L18 34L20 34L20 31L19 31L19 33L18 33L18 31L17 31L17 28L14 28L14 29L13 29L13 31L12 31L12 33L13 33L13 35L14 35L14 33L13 33L13 32L14 32L14 31L16 31L16 32L15 32L15 33L18 33L18 34L17 34L17 35L18 35L18 36L17 36L17 37L18 37L18 39L19 39L19 40L20 40L20 41L22 41L22 44L21 44L21 42L19 42L19 41L18 41L18 43L19 43L19 45L17 45L17 47L18 47L18 46L20 46L20 45L21 45L21 46L22 46L22 47L21 47L21 48L23 48L23 49L22 49L22 50L23 50L23 49L24 49L24 48L25 48L25 45L26 45L26 46L27 46L27 45L26 45L26 43L24 43L24 42L23 42L23 41L22 41L22 40L21 40L21 38L20 38L20 37L19 37L19 36L21 36L21 35L22 35L22 36L23 36L23 38L22 38L22 39L24 39L24 41L25 41L25 42L27 42L27 44L28 44L28 45L29 45L29 46L32 46L32 47L33 47L33 48L35 48L35 47L38 47L38 45L40 45L40 46L39 46L39 47L43 47L43 49L44 49L44 47L45 47L45 46L43 46L43 45L42 45L42 43L43 43L43 42L42 42L42 41L41 41L41 42L42 42L42 43L41 43L41 44L40 44L40 42L37 42L37 44L38 44L38 45L36 45L36 44L35 44L35 43L34 43L34 42L36 42L36 41L34 41L34 40L35 40L35 39L36 39L36 38L35 38L35 39L34 39L34 38L32 38L32 36L33 36L33 34L32 34L32 33L31 33L31 32L33 32L33 33L34 33L34 31L35 31L35 30L36 30L36 29L34 29L34 28L35 28L35 27L37 27L37 30L38 30L38 31L39 31L39 30L38 30L38 29L40 29L40 30L42 30L42 29L45 29L45 27L44 27L44 26L46 26L46 25L44 25L44 26L40 26L40 25L39 25L39 24L38 24L38 23L37 23L37 24L36 24L36 23L35 23L35 24L33 24L33 23L34 23L34 22L32 22L32 23L31 23L31 26L29 26L29 25L28 25L28 26L27 26L27 25L25 25L25 22L24 22L24 21L23 21L23 20ZM46 21L46 22L47 22L47 21ZM22 22L22 23L23 23L23 22ZM13 23L13 24L14 24L14 25L13 25L13 26L12 26L12 24L11 24L11 25L10 25L10 26L12 26L12 27L14 27L14 26L15 26L15 27L16 27L16 23L15 23L15 24L14 24L14 23ZM20 23L20 24L19 24L19 25L18 25L18 26L19 26L19 25L20 25L20 24L21 24L21 23ZM26 23L26 24L27 24L27 23ZM29 23L29 24L30 24L30 23ZM22 24L22 25L23 25L23 26L24 26L24 27L25 27L25 25L24 25L24 24ZM32 24L32 25L33 25L33 24ZM51 24L51 25L52 25L52 26L53 26L53 27L55 27L55 25L53 25L53 24ZM1 25L1 27L2 27L2 25ZM3 25L3 27L4 27L4 25ZM34 25L34 27L35 27L35 25ZM38 26L38 27L40 27L40 29L41 29L41 27L40 27L40 26ZM5 27L5 30L8 30L8 27ZM27 27L27 30L30 30L30 27ZM32 27L32 28L33 28L33 27ZM42 27L42 28L43 28L43 27ZM49 27L49 30L52 30L52 27ZM6 28L6 29L7 29L7 28ZM11 28L11 29L12 29L12 28ZM25 28L25 29L24 29L24 30L26 30L26 28ZM28 28L28 29L29 29L29 28ZM47 28L47 29L48 29L48 28ZM50 28L50 29L51 29L51 28ZM53 28L53 29L54 29L54 28ZM2 29L2 30L1 30L1 31L2 31L2 30L3 30L3 29ZM14 29L14 30L16 30L16 29ZM32 29L32 30L31 30L31 31L32 31L32 30L33 30L33 29ZM4 31L4 32L5 32L5 34L7 34L7 33L6 33L6 32L7 32L7 31ZM26 31L26 32L25 32L25 34L24 34L24 35L23 35L23 36L26 36L26 35L27 35L27 34L28 34L28 35L29 35L29 36L27 36L27 38L29 38L29 36L32 36L32 35L31 35L31 34L30 34L30 35L29 35L29 33L30 33L30 32L29 32L29 31L28 31L28 33L26 33L26 32L27 32L27 31ZM23 32L23 33L22 33L22 34L23 34L23 33L24 33L24 32ZM42 32L42 33L43 33L43 32ZM0 33L0 36L1 36L1 35L2 35L2 36L3 36L3 37L5 37L5 36L3 36L3 34L1 34L1 33ZM55 33L55 34L56 34L56 33ZM25 34L25 35L26 35L26 34ZM46 35L46 37L45 37L45 38L46 38L46 37L47 37L47 35ZM0 37L0 38L2 38L2 37ZM24 37L24 39L25 39L25 41L26 41L26 40L27 40L27 39L25 39L25 38L26 38L26 37ZM30 38L30 39L28 39L28 40L29 40L29 42L30 42L30 41L31 41L31 40L33 40L33 39L32 39L32 38ZM3 39L3 40L4 40L4 39ZM38 39L38 40L37 40L37 41L40 41L40 40L39 40L39 39ZM12 42L12 43L13 43L13 44L14 44L14 42ZM32 42L32 44L31 44L31 45L32 45L32 46L33 46L33 47L34 47L34 46L35 46L35 44L34 44L34 45L33 45L33 42ZM44 42L44 44L49 44L49 43L50 43L50 42L47 42L47 43L45 43L45 42ZM6 43L6 44L5 44L5 45L6 45L6 46L7 46L7 45L8 45L8 44L7 44L7 43ZM38 43L38 44L39 44L39 43ZM6 44L6 45L7 45L7 44ZM11 44L11 45L12 45L12 44ZM22 44L22 46L23 46L23 45L25 45L25 44ZM53 44L53 45L55 45L55 44ZM47 45L47 46L49 46L49 45ZM1 46L1 47L2 47L2 46ZM23 47L23 48L24 48L24 47ZM6 48L6 49L7 49L7 48ZM41 48L41 49L42 49L42 48ZM11 49L11 52L10 52L10 53L11 53L11 54L9 54L9 55L13 55L13 54L12 54L12 51L13 51L13 50L12 50L12 49ZM27 49L27 52L30 52L30 49ZM45 49L45 50L46 50L46 52L47 52L47 50L46 50L46 49ZM49 49L49 52L52 52L52 49ZM14 50L14 51L15 51L15 50ZM17 50L17 51L18 51L18 50ZM28 50L28 51L29 51L29 50ZM50 50L50 51L51 51L51 50ZM40 51L40 52L41 52L41 51ZM56 51L56 52L57 52L57 51ZM41 53L41 54L42 54L42 53ZM48 53L48 54L50 54L50 53ZM48 55L48 56L49 56L49 55ZM56 55L56 56L57 56L57 55ZM52 56L52 57L55 57L55 56ZM0 0L0 7L7 7L7 0ZM1 1L1 6L6 6L6 1ZM2 2L2 5L5 5L5 2ZM50 0L50 7L57 7L57 0ZM51 1L51 6L56 6L56 1ZM52 2L52 5L55 5L55 2ZM0 50L0 57L7 57L7 50ZM1 51L1 56L6 56L6 51ZM2 52L2 55L5 55L5 52Z" fill="#000000"/></g></g></svg>
