<?xml version="1.0" encoding="UTF-8"?>
<svg xmlns="http://www.w3.org/2000/svg" version="1.1" width="300" height="300" viewBox="0 0 300 300"><rect x="0" y="0" width="300" height="300" fill="#fefefe"/><g transform="scale(4.615)"><g transform="translate(4,4)"><path fill-rule="evenodd" d="M10 0L10 2L11 2L11 4L10 4L10 3L8 3L8 4L9 4L9 5L8 5L8 7L9 7L9 8L6 8L6 9L5 9L5 8L0 8L0 10L3 10L3 12L2 12L2 11L0 11L0 12L2 12L2 13L3 13L3 12L5 12L5 13L4 13L4 14L2 14L2 15L0 15L0 17L1 17L1 16L2 16L2 15L3 15L3 16L5 16L5 17L4 17L4 18L6 18L6 19L5 19L5 22L4 22L4 21L3 21L3 20L4 20L4 19L3 19L3 18L2 18L2 20L1 20L1 19L0 19L0 22L2 22L2 21L3 21L3 23L1 23L1 24L0 24L0 26L3 26L3 23L4 23L4 25L7 25L7 26L4 26L4 27L3 27L3 28L2 28L2 27L1 27L1 28L2 28L2 29L1 29L1 30L0 30L0 31L4 31L4 32L3 32L3 33L2 33L2 32L0 32L0 33L2 33L2 34L1 34L1 36L2 36L2 34L3 34L3 33L4 33L4 32L5 32L5 33L7 33L7 32L6 32L6 31L9 31L9 32L8 32L8 34L6 34L6 35L8 35L8 36L5 36L5 35L3 35L3 37L1 37L1 38L0 38L0 40L1 40L1 41L0 41L0 43L2 43L2 45L3 45L3 46L2 46L2 47L1 47L1 44L0 44L0 48L5 48L5 47L7 47L7 48L6 48L6 49L7 49L7 48L8 48L8 51L9 51L9 49L10 49L10 48L11 48L11 49L14 49L14 51L13 51L13 50L10 50L10 53L12 53L12 54L15 54L15 55L13 55L13 56L15 56L15 57L16 57L16 56L17 56L17 57L19 57L19 56L18 56L18 55L17 55L17 54L19 54L19 55L20 55L20 54L19 54L19 53L20 53L20 52L21 52L21 53L22 53L22 54L21 54L21 56L24 56L24 57L26 57L26 56L24 56L24 55L23 55L23 54L24 54L24 53L27 53L27 54L30 54L30 53L31 53L31 51L32 51L32 52L33 52L33 53L32 53L32 54L31 54L31 56L30 56L30 55L29 55L29 56L27 56L27 57L29 57L29 56L30 56L30 57L31 57L31 56L35 56L35 57L39 57L39 56L42 56L42 55L44 55L44 54L46 54L46 55L45 55L45 57L47 57L47 56L48 56L48 57L49 57L49 56L50 56L50 57L52 57L52 55L51 55L51 53L52 53L52 54L53 54L53 55L54 55L54 56L53 56L53 57L54 57L54 56L55 56L55 57L56 57L56 56L55 56L55 51L56 51L56 52L57 52L57 51L56 51L56 49L57 49L57 48L56 48L56 46L57 46L57 43L56 43L56 42L55 42L55 39L57 39L57 36L56 36L56 37L55 37L55 35L56 35L56 34L55 34L55 32L56 32L56 33L57 33L57 32L56 32L56 30L57 30L57 28L56 28L56 26L57 26L57 25L56 25L56 22L57 22L57 19L56 19L56 18L57 18L57 17L56 17L56 16L57 16L57 15L56 15L56 14L57 14L57 12L56 12L56 14L55 14L55 13L54 13L54 12L55 12L55 11L56 11L56 8L55 8L55 10L54 10L54 11L51 11L51 10L50 10L50 8L49 8L49 6L48 6L48 7L47 7L47 5L48 5L48 0L45 0L45 2L44 2L44 3L41 3L41 2L43 2L43 0L41 0L41 1L40 1L40 0L39 0L39 1L38 1L38 0L37 0L37 1L38 1L38 2L37 2L37 3L36 3L36 0L35 0L35 1L32 1L32 3L31 3L31 0L27 0L27 1L26 1L26 0L23 0L23 1L22 1L22 0L21 0L21 1L20 1L20 0L17 0L17 2L15 2L15 1L14 1L14 0L13 0L13 1L11 1L11 0ZM8 1L8 2L9 2L9 1ZM13 1L13 2L12 2L12 3L13 3L13 2L14 2L14 4L11 4L11 5L13 5L13 7L12 7L12 6L11 6L11 8L9 8L9 9L6 9L6 10L7 10L7 11L5 11L5 9L3 9L3 10L4 10L4 11L5 11L5 12L7 12L7 13L6 13L6 14L8 14L8 15L6 15L6 16L7 16L7 17L6 17L6 18L8 18L8 20L7 20L7 19L6 19L6 20L7 20L7 21L6 21L6 22L5 22L5 23L6 23L6 24L7 24L7 23L8 23L8 24L9 24L9 22L8 22L8 21L10 21L10 22L12 22L12 23L10 23L10 26L11 26L11 25L12 25L12 26L13 26L13 27L9 27L9 29L10 29L10 28L13 28L13 27L14 27L14 30L13 30L13 29L11 29L11 31L10 31L10 30L9 30L9 31L10 31L10 32L9 32L9 33L10 33L10 32L11 32L11 33L12 33L12 31L13 31L13 32L14 32L14 33L15 33L15 34L14 34L14 35L15 35L15 34L17 34L17 35L16 35L16 36L15 36L15 37L16 37L16 38L14 38L14 36L12 36L12 35L13 35L13 34L8 34L8 35L10 35L10 36L11 36L11 37L13 37L13 39L12 39L12 40L11 40L11 39L10 39L10 37L9 37L9 36L8 36L8 37L9 37L9 42L8 42L8 41L5 41L5 39L6 39L6 40L8 40L8 38L7 38L7 37L6 37L6 38L5 38L5 37L3 37L3 38L1 38L1 40L3 40L3 41L2 41L2 43L3 43L3 44L5 44L5 43L3 43L3 41L4 41L4 42L8 42L8 43L9 43L9 44L7 44L7 43L6 43L6 44L7 44L7 45L6 45L6 46L7 46L7 45L8 45L8 46L10 46L10 47L11 47L11 48L12 48L12 45L13 45L13 44L15 44L15 45L14 45L14 46L15 46L15 49L16 49L16 50L18 50L18 52L20 52L20 51L19 51L19 50L18 50L18 49L16 49L16 48L17 48L17 45L18 45L18 44L16 44L16 43L14 43L14 42L17 42L17 43L18 43L18 42L19 42L19 43L20 43L20 46L19 46L19 47L18 47L18 48L21 48L21 49L20 49L20 50L21 50L21 51L22 51L22 53L24 53L24 52L26 52L26 51L25 51L25 50L26 50L26 49L25 49L25 48L30 48L30 47L26 47L26 45L27 45L27 46L31 46L31 47L33 47L33 48L31 48L31 49L32 49L32 51L33 51L33 52L34 52L34 53L33 53L33 55L35 55L35 56L36 56L36 54L35 54L35 50L36 50L36 52L37 52L37 53L38 53L38 54L37 54L37 56L39 56L39 55L38 55L38 54L40 54L40 53L41 53L41 52L42 52L42 53L43 53L43 54L44 54L44 53L45 53L45 52L46 52L46 51L45 51L45 52L44 52L44 53L43 53L43 52L42 52L42 50L41 50L41 48L42 48L42 49L43 49L43 48L44 48L44 50L47 50L47 53L46 53L46 54L48 54L48 50L47 50L47 49L48 49L48 48L49 48L49 47L48 47L48 46L49 46L49 45L50 45L50 47L51 47L51 46L52 46L52 48L53 48L53 47L54 47L54 46L56 46L56 43L55 43L55 44L54 44L54 45L53 45L53 43L54 43L54 42L53 42L53 41L54 41L54 40L53 40L53 39L52 39L52 38L53 38L53 35L55 35L55 34L54 34L54 33L52 33L52 32L53 32L53 31L51 31L51 33L52 33L52 34L50 34L50 32L49 32L49 31L48 31L48 28L47 28L47 29L46 29L46 30L47 30L47 31L48 31L48 32L47 32L47 33L46 33L46 32L43 32L43 30L44 30L44 31L45 31L45 30L44 30L44 29L45 29L45 28L46 28L46 27L48 27L48 26L47 26L47 25L48 25L48 24L50 24L50 25L49 25L49 26L51 26L51 25L53 25L53 23L51 23L51 24L50 24L50 22L51 22L51 21L53 21L53 22L56 22L56 21L55 21L55 20L56 20L56 19L55 19L55 20L53 20L53 19L52 19L52 17L53 17L53 18L55 18L55 16L53 16L53 15L52 15L52 16L51 16L51 15L50 15L50 14L51 14L51 12L50 12L50 10L49 10L49 11L48 11L48 10L47 10L47 9L49 9L49 8L47 8L47 9L45 9L45 8L44 8L44 6L45 6L45 7L46 7L46 6L45 6L45 5L47 5L47 3L44 3L44 6L43 6L43 5L40 5L40 4L41 4L41 3L37 3L37 4L36 4L36 5L35 5L35 3L32 3L32 4L31 4L31 8L32 8L32 10L27 10L27 11L26 11L26 12L25 12L25 10L23 10L23 9L24 9L24 6L23 6L23 5L24 5L24 4L23 4L23 3L26 3L26 4L25 4L25 8L26 8L26 4L30 4L30 3L28 3L28 2L30 2L30 1L28 1L28 2L26 2L26 1L25 1L25 2L23 2L23 3L19 3L19 4L21 4L21 7L22 7L22 8L19 8L19 7L20 7L20 5L18 5L18 6L17 6L17 3L18 3L18 2L17 2L17 3L15 3L15 2L14 2L14 1ZM46 1L46 2L47 2L47 1ZM15 4L15 5L14 5L14 7L15 7L15 8L16 8L16 9L18 9L18 11L17 11L17 12L16 12L16 11L15 11L15 10L13 10L13 9L14 9L14 8L12 8L12 9L11 9L11 10L10 10L10 9L9 9L9 11L11 11L11 12L12 12L12 15L13 15L13 16L12 16L12 17L11 17L11 15L10 15L10 14L11 14L11 13L10 13L10 14L9 14L9 12L8 12L8 14L9 14L9 15L8 15L8 17L9 17L9 18L10 18L10 19L12 19L12 18L13 18L13 17L14 17L14 18L15 18L15 21L16 21L16 22L15 22L15 23L16 23L16 24L15 24L15 25L14 25L14 24L13 24L13 23L14 23L14 21L13 21L13 20L14 20L14 19L13 19L13 20L11 20L11 21L12 21L12 22L13 22L13 23L12 23L12 25L14 25L14 27L16 27L16 26L15 26L15 25L16 25L16 24L17 24L17 25L21 25L21 24L19 24L19 23L20 23L20 22L19 22L19 21L20 21L20 20L19 20L19 19L23 19L23 20L24 20L24 21L22 21L22 20L21 20L21 21L22 21L22 23L23 23L23 25L22 25L22 26L21 26L21 27L22 27L22 26L24 26L24 27L25 27L25 28L24 28L24 29L23 29L23 30L25 30L25 31L24 31L24 32L25 32L25 31L26 31L26 35L25 35L25 33L23 33L23 34L24 34L24 36L23 36L23 37L19 37L19 36L17 36L17 37L18 37L18 38L20 38L20 39L18 39L18 40L17 40L17 41L19 41L19 42L20 42L20 40L21 40L21 39L24 39L24 40L23 40L23 42L22 42L22 43L21 43L21 44L22 44L22 45L21 45L21 46L20 46L20 47L23 47L23 49L21 49L21 50L25 50L25 49L24 49L24 48L25 48L25 47L23 47L23 46L25 46L25 45L24 45L24 44L23 44L23 43L25 43L25 44L27 44L27 45L29 45L29 44L33 44L33 43L34 43L34 45L36 45L36 46L37 46L37 47L36 47L36 48L35 48L35 49L36 49L36 50L38 50L38 53L39 53L39 51L40 51L40 52L41 52L41 50L38 50L38 49L39 49L39 48L41 48L41 46L43 46L43 45L44 45L44 46L45 46L45 47L44 47L44 48L45 48L45 47L47 47L47 48L48 48L48 47L47 47L47 46L48 46L48 45L49 45L49 44L48 44L48 45L47 45L47 43L48 43L48 42L49 42L49 43L50 43L50 45L51 45L51 43L53 43L53 42L51 42L51 41L53 41L53 40L52 40L52 39L49 39L49 38L50 38L50 36L51 36L51 37L52 37L52 35L53 35L53 34L52 34L52 35L50 35L50 34L48 34L48 35L50 35L50 36L48 36L48 37L47 37L47 39L46 39L46 38L45 38L45 37L46 37L46 36L47 36L47 35L44 35L44 36L42 36L42 34L45 34L45 33L43 33L43 32L41 32L41 33L39 33L39 34L40 34L40 35L38 35L38 33L37 33L37 32L33 32L33 33L35 33L35 34L37 34L37 35L38 35L38 37L37 37L37 36L35 36L35 35L31 35L31 34L32 34L32 30L31 30L31 29L32 29L32 28L31 28L31 26L32 26L32 27L33 27L33 28L35 28L35 29L38 29L38 28L39 28L39 27L41 27L41 28L42 28L42 26L43 26L43 27L44 27L44 28L43 28L43 29L39 29L39 30L38 30L38 32L39 32L39 31L41 31L41 30L43 30L43 29L44 29L44 28L45 28L45 27L46 27L46 26L44 26L44 20L46 20L46 21L47 21L47 22L46 22L46 23L45 23L45 24L46 24L46 25L47 25L47 24L48 24L48 22L49 22L49 21L51 21L51 20L52 20L52 19L50 19L50 17L51 17L51 16L50 16L50 15L49 15L49 14L50 14L50 12L49 12L49 13L47 13L47 14L44 14L44 11L45 11L45 12L47 12L47 10L45 10L45 9L44 9L44 8L42 8L42 7L43 7L43 6L42 6L42 7L41 7L41 6L40 6L40 5L39 5L39 6L38 6L38 4L37 4L37 5L36 5L36 7L37 7L37 8L35 8L35 5L34 5L34 7L33 7L33 6L32 6L32 7L33 7L33 9L34 9L34 8L35 8L35 9L37 9L37 10L36 10L36 11L35 11L35 13L36 13L36 14L32 14L32 12L31 12L31 13L30 13L30 14L29 14L29 13L28 13L28 12L29 12L29 11L27 11L27 12L26 12L26 13L28 13L28 14L29 14L29 16L28 16L28 15L27 15L27 16L28 16L28 17L26 17L26 15L25 15L25 17L22 17L22 16L21 16L21 17L22 17L22 18L20 18L20 17L19 17L19 16L20 16L20 15L19 15L19 14L20 14L20 13L21 13L21 15L23 15L23 16L24 16L24 15L23 15L23 14L25 14L25 13L24 13L24 12L23 12L23 10L22 10L22 9L21 9L21 10L22 10L22 11L21 11L21 12L20 12L20 13L19 13L19 10L20 10L20 9L19 9L19 8L18 8L18 7L19 7L19 6L18 6L18 7L17 7L17 6L16 6L16 7L15 7L15 5L16 5L16 4ZM32 4L32 5L33 5L33 4ZM27 5L27 8L30 8L30 5ZM9 6L9 7L10 7L10 6ZM22 6L22 7L23 7L23 6ZM28 6L28 7L29 7L29 6ZM37 6L37 7L38 7L38 6ZM39 6L39 7L40 7L40 8L39 8L39 9L38 9L38 8L37 8L37 9L38 9L38 10L37 10L37 11L39 11L39 9L40 9L40 11L41 11L41 12L39 12L39 13L38 13L38 14L37 14L37 15L35 15L35 16L33 16L33 15L31 15L31 14L30 14L30 15L31 15L31 16L32 16L32 17L33 17L33 18L30 18L30 20L29 20L29 19L28 19L28 18L27 18L27 19L26 19L26 21L27 21L27 24L25 24L25 23L26 23L26 22L25 22L25 21L24 21L24 22L23 22L23 23L24 23L24 24L25 24L25 25L26 25L26 26L25 26L25 27L26 27L26 26L27 26L27 25L29 25L29 24L30 24L30 25L31 25L31 24L32 24L32 26L33 26L33 27L34 27L34 26L36 26L36 27L35 27L35 28L36 28L36 27L39 27L39 26L42 26L42 25L41 25L41 24L42 24L42 22L41 22L41 24L40 24L40 22L39 22L39 21L41 21L41 20L39 20L39 21L38 21L38 19L39 19L39 17L41 17L41 16L42 16L42 17L43 17L43 16L42 16L42 15L44 15L44 18L43 18L43 19L42 19L42 18L41 18L41 19L42 19L42 20L44 20L44 18L47 18L47 19L48 19L48 18L47 18L47 16L46 16L46 15L44 15L44 14L39 14L39 13L43 13L43 11L44 11L44 9L43 9L43 11L41 11L41 7L40 7L40 6ZM16 7L16 8L17 8L17 7ZM51 8L51 9L52 9L52 8ZM53 8L53 9L54 9L54 8ZM11 10L11 11L13 11L13 12L14 12L14 11L13 11L13 10ZM32 10L32 11L33 11L33 10ZM15 12L15 13L13 13L13 14L15 14L15 13L16 13L16 17L15 17L15 15L14 15L14 17L15 17L15 18L17 18L17 16L18 16L18 15L17 15L17 13L18 13L18 12L17 12L17 13L16 13L16 12ZM21 12L21 13L22 13L22 14L23 14L23 13L22 13L22 12ZM33 12L33 13L34 13L34 12ZM52 12L52 13L53 13L53 12ZM38 14L38 15L39 15L39 16L38 16L38 17L37 17L37 16L35 16L35 17L37 17L37 18L38 18L38 17L39 17L39 16L41 16L41 15L39 15L39 14ZM54 14L54 15L55 15L55 14ZM48 15L48 16L49 16L49 15ZM45 16L45 17L46 17L46 16ZM25 17L25 18L26 18L26 17ZM23 18L23 19L24 19L24 18ZM31 19L31 21L30 21L30 22L29 22L29 21L28 21L28 22L29 22L29 23L30 23L30 24L31 24L31 23L30 23L30 22L31 22L31 21L32 21L32 20L33 20L33 19ZM35 19L35 20L34 20L34 21L35 21L35 23L32 23L32 24L33 24L33 25L37 25L37 26L38 26L38 25L40 25L40 24L37 24L37 22L38 22L38 23L39 23L39 22L38 22L38 21L37 21L37 20L36 20L36 19ZM16 20L16 21L17 21L17 20ZM6 22L6 23L7 23L7 22ZM17 23L17 24L18 24L18 23ZM1 24L1 25L2 25L2 24ZM17 26L17 27L18 27L18 26ZM19 26L19 27L20 27L20 26ZM53 26L53 27L54 27L54 26ZM5 27L5 30L8 30L8 27ZM27 27L27 30L30 30L30 27ZM49 27L49 30L52 30L52 27ZM6 28L6 29L7 29L7 28ZM16 28L16 29L15 29L15 31L14 31L14 32L15 32L15 31L16 31L16 29L18 29L18 31L19 31L19 32L17 32L17 34L18 34L18 35L19 35L19 34L20 34L20 33L21 33L21 34L22 34L22 33L21 33L21 32L23 32L23 31L21 31L21 30L20 30L20 31L19 31L19 29L22 29L22 28L19 28L19 29L18 29L18 28ZM25 28L25 29L26 29L26 28ZM28 28L28 29L29 29L29 28ZM50 28L50 29L51 29L51 28ZM54 28L54 29L53 29L53 30L54 30L54 31L55 31L55 30L54 30L54 29L56 29L56 28ZM2 29L2 30L3 30L3 29ZM33 30L33 31L36 31L36 30ZM20 31L20 32L21 32L21 31ZM27 31L27 36L26 36L26 37L25 37L25 40L24 40L24 41L25 41L25 43L27 43L27 44L28 44L28 43L27 43L27 42L32 42L32 43L33 43L33 42L34 42L34 43L35 43L35 44L36 44L36 43L37 43L37 42L35 42L35 40L38 40L38 42L39 42L39 41L43 41L43 43L44 43L44 45L45 45L45 46L47 46L47 45L45 45L45 44L46 44L46 42L48 42L48 41L49 41L49 39L47 39L47 40L46 40L46 39L45 39L45 38L44 38L44 37L45 37L45 36L44 36L44 37L43 37L43 38L42 38L42 37L41 37L41 36L40 36L40 37L38 37L38 38L37 38L37 39L35 39L35 37L33 37L33 36L32 36L32 37L33 37L33 39L29 39L29 38L31 38L31 37L29 37L29 36L30 36L30 34L29 34L29 33L31 33L31 31L30 31L30 32L29 32L29 33L28 33L28 31ZM48 32L48 33L49 33L49 32ZM18 33L18 34L19 34L19 33ZM23 37L23 38L24 38L24 37ZM27 37L27 38L26 38L26 40L27 40L27 41L26 41L26 42L27 42L27 41L28 41L28 39L27 39L27 38L28 38L28 37ZM40 37L40 38L41 38L41 39L42 39L42 40L43 40L43 41L44 41L44 43L45 43L45 41L44 41L44 40L45 40L45 39L44 39L44 40L43 40L43 39L42 39L42 38L41 38L41 37ZM48 37L48 38L49 38L49 37ZM3 38L3 40L4 40L4 38ZM6 38L6 39L7 39L7 38ZM54 38L54 39L55 39L55 38ZM13 39L13 41L16 41L16 39ZM33 39L33 40L35 40L35 39ZM38 39L38 40L40 40L40 39ZM29 40L29 41L32 41L32 42L33 42L33 41L32 41L32 40ZM11 41L11 42L10 42L10 46L11 46L11 45L12 45L12 44L11 44L11 43L13 43L13 42L12 42L12 41ZM41 42L41 44L40 44L40 43L39 43L39 45L38 45L38 46L39 46L39 47L38 47L38 48L37 48L37 49L38 49L38 48L39 48L39 47L40 47L40 46L39 46L39 45L41 45L41 44L42 44L42 42ZM50 42L50 43L51 43L51 42ZM4 45L4 46L3 46L3 47L5 47L5 45ZM22 45L22 46L23 46L23 45ZM31 45L31 46L32 46L32 45ZM33 46L33 47L35 47L35 46ZM42 47L42 48L43 48L43 47ZM54 48L54 49L56 49L56 48ZM27 49L27 52L30 52L30 49ZM49 49L49 52L52 52L52 49ZM28 50L28 51L29 51L29 50ZM33 50L33 51L34 51L34 50ZM50 50L50 51L51 51L51 50ZM54 50L54 51L55 51L55 50ZM11 51L11 52L12 52L12 53L14 53L14 52L16 52L16 53L15 53L15 54L16 54L16 53L17 53L17 52L16 52L16 51L14 51L14 52L12 52L12 51ZM8 52L8 57L12 57L12 56L11 56L11 55L9 55L9 52ZM53 52L53 53L54 53L54 52ZM25 54L25 55L26 55L26 54ZM41 54L41 55L42 55L42 54ZM15 55L15 56L16 56L16 55ZM48 55L48 56L49 56L49 55ZM50 55L50 56L51 56L51 55ZM43 56L43 57L44 57L44 56ZM0 0L0 7L7 7L7 0ZM1 1L1 6L6 6L6 1ZM2 2L2 5L5 5L5 2ZM50 0L50 7L57 7L57 0ZM51 1L51 6L56 6L56 1ZM52 2L52 5L55 5L55 2ZM0 50L0 57L7 57L7 50ZM1 51L1 56L6 56L6 51ZM2 52L2 55L5 55L5 52Z" fill="#000000"/></g></g></svg>
