<?xml version="1.0" encoding="UTF-8"?>
<svg xmlns="http://www.w3.org/2000/svg" version="1.1" width="300" height="300" viewBox="0 0 300 300"><rect x="0" y="0" width="300" height="300" fill="#fefefe"/><g transform="scale(4.615)"><g transform="translate(4,4)"><path fill-rule="evenodd" d="M8 0L8 2L9 2L9 0ZM14 0L14 3L13 3L13 1L10 1L10 3L9 3L9 4L8 4L8 9L9 9L9 8L10 8L10 9L11 9L11 6L12 6L12 7L13 7L13 5L14 5L14 7L15 7L15 6L16 6L16 7L17 7L17 6L18 6L18 9L19 9L19 10L17 10L17 11L16 11L16 8L14 8L14 9L15 9L15 11L14 11L14 12L17 12L17 14L15 14L15 15L21 15L21 16L20 16L20 17L19 17L19 16L17 16L17 18L16 18L16 17L15 17L15 16L14 16L14 15L13 15L13 14L12 14L12 11L13 11L13 10L11 10L11 13L10 13L10 11L9 11L9 10L8 10L8 12L6 12L6 11L7 11L7 10L6 10L6 9L7 9L7 8L5 8L5 9L3 9L3 8L0 8L0 9L1 9L1 10L0 10L0 15L2 15L2 16L0 16L0 17L3 17L3 18L0 18L0 21L2 21L2 20L3 20L3 21L4 21L4 22L3 22L3 23L4 23L4 24L2 24L2 23L0 23L0 24L2 24L2 25L3 25L3 26L1 26L1 25L0 25L0 28L1 28L1 29L0 29L0 31L1 31L1 29L3 29L3 28L2 28L2 27L3 27L3 26L4 26L4 30L2 30L2 32L1 32L1 33L0 33L0 34L2 34L2 35L1 35L1 36L0 36L0 37L2 37L2 38L0 38L0 40L2 40L2 41L0 41L0 43L1 43L1 44L0 44L0 45L1 45L1 46L0 46L0 48L5 48L5 47L7 47L7 48L6 48L6 49L8 49L8 50L10 50L10 52L9 52L9 51L8 51L8 52L9 52L9 53L10 53L10 54L8 54L8 57L10 57L10 56L11 56L11 57L12 57L12 56L13 56L13 57L14 57L14 55L15 55L15 56L16 56L16 57L17 57L17 55L19 55L19 52L20 52L20 53L21 53L21 52L22 52L22 54L23 54L23 56L22 56L22 55L21 55L21 54L20 54L20 55L21 55L21 56L18 56L18 57L21 57L21 56L22 56L22 57L23 57L23 56L24 56L24 57L25 57L25 55L26 55L26 57L28 57L28 55L29 55L29 57L33 57L33 55L30 55L30 54L31 54L31 53L32 53L32 54L34 54L34 57L35 57L35 55L37 55L37 54L36 54L36 53L37 53L37 51L38 51L38 53L39 53L39 55L40 55L40 57L42 57L42 56L44 56L44 57L45 57L45 56L46 56L46 57L48 57L48 56L49 56L49 57L50 57L50 55L49 55L49 54L52 54L52 55L53 55L53 54L54 54L54 55L57 55L57 54L55 54L55 53L57 53L57 52L56 52L56 51L57 51L57 49L56 49L56 47L57 47L57 44L56 44L56 47L55 47L55 48L54 48L54 47L52 47L52 45L53 45L53 46L54 46L54 45L53 45L53 44L54 44L54 43L55 43L55 42L56 42L56 43L57 43L57 42L56 42L56 41L57 41L57 40L54 40L54 38L53 38L53 44L52 44L52 40L51 40L51 39L52 39L52 37L53 37L53 36L54 36L54 37L55 37L55 38L57 38L57 37L56 37L56 36L57 36L57 33L56 33L56 31L57 31L57 29L56 29L56 27L57 27L57 24L56 24L56 23L57 23L57 21L56 21L56 20L55 20L55 21L54 21L54 19L55 19L55 16L56 16L56 19L57 19L57 12L56 12L56 11L57 11L57 10L56 10L56 11L55 11L55 9L57 9L57 8L55 8L55 9L54 9L54 10L52 10L52 12L51 12L51 11L50 11L50 9L53 9L53 8L49 8L49 11L50 11L50 13L49 13L49 14L48 14L48 11L46 11L46 13L45 13L45 12L44 12L44 13L43 13L43 16L44 16L44 17L43 17L43 18L42 18L42 17L41 17L41 15L42 15L42 12L43 12L43 10L44 10L44 9L45 9L45 8L46 8L46 9L47 9L47 10L48 10L48 9L47 9L47 8L48 8L48 7L49 7L49 6L48 6L48 7L47 7L47 5L48 5L48 0L42 0L42 1L41 1L41 0L38 0L38 2L37 2L37 1L35 1L35 0L34 0L34 2L37 2L37 3L39 3L39 4L38 4L38 5L37 5L37 6L36 6L36 10L34 10L34 9L35 9L35 4L36 4L36 3L34 3L34 8L32 8L32 9L31 9L31 5L32 5L32 0L30 0L30 1L31 1L31 2L30 2L30 3L31 3L31 4L26 4L26 3L27 3L27 0L24 0L24 1L23 1L23 0L19 0L19 1L20 1L20 2L19 2L19 3L20 3L20 2L22 2L22 3L21 3L21 5L20 5L20 7L19 7L19 5L17 5L17 4L16 4L16 2L15 2L15 0ZM16 0L16 1L17 1L17 3L18 3L18 1L17 1L17 0ZM28 0L28 2L29 2L29 0ZM22 1L22 2L23 2L23 1ZM24 1L24 4L25 4L25 1ZM39 1L39 2L40 2L40 4L39 4L39 5L38 5L38 6L37 6L37 9L38 9L38 10L37 10L37 11L34 11L34 10L33 10L33 9L32 9L32 12L30 12L30 11L29 11L29 12L30 12L30 13L29 13L29 15L28 15L28 14L27 14L27 12L28 12L28 10L29 10L29 9L28 9L28 10L25 10L25 9L26 9L26 5L24 5L24 6L23 6L23 5L22 5L22 6L21 6L21 9L20 9L20 10L21 10L21 13L20 13L20 11L18 11L18 12L19 12L19 13L18 13L18 14L19 14L19 13L20 13L20 14L22 14L22 16L23 16L23 15L24 15L24 18L26 18L26 20L25 20L25 19L24 19L24 20L25 20L25 21L26 21L26 20L27 20L27 22L26 22L26 23L27 23L27 25L26 25L26 26L27 26L27 25L28 25L28 26L29 26L29 25L30 25L30 26L31 26L31 25L32 25L32 28L31 28L31 29L32 29L32 28L33 28L33 29L34 29L34 31L32 31L32 30L31 30L31 31L32 31L32 32L30 32L30 34L31 34L31 35L28 35L28 34L29 34L29 31L28 31L28 32L26 32L26 30L25 30L25 29L24 29L24 28L25 28L25 27L22 27L22 28L23 28L23 29L22 29L22 30L21 30L21 25L22 25L22 24L23 24L23 23L22 23L22 22L23 22L23 21L22 21L22 19L23 19L23 18L21 18L21 17L20 17L20 18L21 18L21 19L20 19L20 20L19 20L19 19L17 19L17 21L18 21L18 20L19 20L19 24L20 24L20 28L18 28L18 27L19 27L19 25L18 25L18 24L17 24L17 25L16 25L16 27L15 27L15 26L14 26L14 23L15 23L15 21L14 21L14 22L13 22L13 21L12 21L12 22L11 22L11 23L10 23L10 24L11 24L11 23L12 23L12 25L10 25L10 26L11 26L11 27L9 27L9 29L10 29L10 28L11 28L11 30L10 30L10 31L6 31L6 32L5 32L5 34L7 34L7 33L6 33L6 32L8 32L8 34L9 34L9 32L10 32L10 33L12 33L12 32L11 32L11 31L13 31L13 32L14 32L14 31L15 31L15 32L16 32L16 34L17 34L17 32L19 32L19 33L20 33L20 35L17 35L17 37L16 37L16 36L15 36L15 38L14 38L14 36L12 36L12 35L11 35L11 34L10 34L10 35L8 35L8 36L9 36L9 37L6 37L6 36L7 36L7 35L6 35L6 36L5 36L5 35L4 35L4 34L3 34L3 33L2 33L2 34L3 34L3 35L4 35L4 36L2 36L2 37L3 37L3 39L4 39L4 40L3 40L3 43L2 43L2 42L1 42L1 43L2 43L2 44L1 44L1 45L3 45L3 44L4 44L4 42L5 42L5 43L6 43L6 44L7 44L7 43L8 43L8 39L11 39L11 41L9 41L9 42L10 42L10 43L11 43L11 44L10 44L10 46L8 46L8 47L9 47L9 48L11 48L11 49L12 49L12 50L11 50L11 51L12 51L12 50L13 50L13 49L12 49L12 48L13 48L13 46L15 46L15 45L16 45L16 46L17 46L17 44L16 44L16 42L17 42L17 39L16 39L16 38L19 38L19 37L18 37L18 36L20 36L20 35L22 35L22 36L21 36L21 38L20 38L20 39L22 39L22 36L23 36L23 41L22 41L22 40L21 40L21 41L20 41L20 42L19 42L19 43L18 43L18 44L19 44L19 45L18 45L18 46L19 46L19 47L16 47L16 50L14 50L14 51L13 51L13 52L14 52L14 54L12 54L12 55L14 55L14 54L15 54L15 52L17 52L17 54L16 54L16 55L17 55L17 54L18 54L18 51L17 51L17 50L18 50L18 48L19 48L19 49L20 49L20 51L21 51L21 50L22 50L22 48L23 48L23 49L24 49L24 51L22 51L22 52L24 52L24 51L25 51L25 53L26 53L26 50L25 50L25 49L26 49L26 48L27 48L27 46L26 46L26 45L25 45L25 44L24 44L24 42L26 42L26 41L25 41L25 40L26 40L26 37L24 37L24 36L25 36L25 35L22 35L22 34L23 34L23 33L22 33L22 30L23 30L23 29L24 29L24 31L23 31L23 32L24 32L24 34L26 34L26 35L28 35L28 36L27 36L27 40L28 40L28 43L27 43L27 45L28 45L28 47L30 47L30 48L31 48L31 50L33 50L33 51L34 51L34 52L33 52L33 53L34 53L34 54L35 54L35 53L36 53L36 52L35 52L35 51L37 51L37 49L36 49L36 48L37 48L37 47L38 47L38 51L39 51L39 49L40 49L40 51L41 51L41 52L43 52L43 53L42 53L42 54L43 54L43 55L44 55L44 56L45 56L45 55L44 55L44 52L43 52L43 51L45 51L45 49L44 49L44 46L45 46L45 45L44 45L44 44L45 44L45 43L42 43L42 42L43 42L43 41L42 41L42 42L41 42L41 41L40 41L40 40L42 40L42 39L43 39L43 38L44 38L44 35L43 35L43 33L42 33L42 31L44 31L44 30L46 30L46 31L45 31L45 32L46 32L46 31L47 31L47 28L46 28L46 29L44 29L44 30L43 30L43 28L42 28L42 31L41 31L41 30L40 30L40 28L41 28L41 27L43 27L43 25L44 25L44 24L47 24L47 25L46 25L46 26L47 26L47 25L48 25L48 26L49 26L49 25L48 25L48 24L47 24L47 23L48 23L48 22L50 22L50 23L49 23L49 24L50 24L50 26L53 26L53 25L54 25L54 26L55 26L55 25L56 25L56 24L55 24L55 23L56 23L56 21L55 21L55 23L54 23L54 22L52 22L52 20L53 20L53 19L54 19L54 16L55 16L55 15L56 15L56 13L55 13L55 11L54 11L54 12L53 12L53 14L52 14L52 13L50 13L50 16L49 16L49 17L48 17L48 18L47 18L47 17L46 17L46 18L45 18L45 17L44 17L44 19L43 19L43 20L42 20L42 19L41 19L41 18L40 18L40 15L41 15L41 13L40 13L40 15L39 15L39 12L37 12L37 11L39 11L39 10L41 10L41 9L40 9L40 8L42 8L42 10L43 10L43 9L44 9L44 8L42 8L42 4L43 4L43 5L44 5L44 6L43 6L43 7L44 7L44 6L45 6L45 7L46 7L46 6L45 6L45 5L44 5L44 4L45 4L45 2L47 2L47 1L42 1L42 2L40 2L40 1ZM11 2L11 4L10 4L10 6L9 6L9 7L10 7L10 6L11 6L11 5L12 5L12 4L13 4L13 3L12 3L12 2ZM43 2L43 4L44 4L44 2ZM14 3L14 4L15 4L15 3ZM22 3L22 4L23 4L23 3ZM41 3L41 4L42 4L42 3ZM46 3L46 5L47 5L47 3ZM16 5L16 6L17 6L17 5ZM27 5L27 8L30 8L30 5ZM22 6L22 7L23 7L23 6ZM24 6L24 7L25 7L25 6ZM28 6L28 7L29 7L29 6ZM32 6L32 7L33 7L33 6ZM38 6L38 9L39 9L39 8L40 8L40 7L41 7L41 6L40 6L40 7L39 7L39 6ZM22 8L22 9L21 9L21 10L22 10L22 9L23 9L23 11L22 11L22 12L24 12L24 13L23 13L23 14L24 14L24 13L25 13L25 16L26 16L26 17L27 17L27 16L26 16L26 15L27 15L27 14L26 14L26 11L24 11L24 9L25 9L25 8ZM30 9L30 10L31 10L31 9ZM1 10L1 11L2 11L2 12L1 12L1 14L2 14L2 13L4 13L4 12L5 12L5 11L6 11L6 10L5 10L5 11L4 11L4 12L3 12L3 11L2 11L2 10ZM33 11L33 12L32 12L32 13L31 13L31 15L32 15L32 13L33 13L33 15L34 15L34 17L33 17L33 16L32 16L32 18L31 18L31 20L32 20L32 21L33 21L33 22L30 22L30 20L28 20L28 22L27 22L27 23L28 23L28 22L29 22L29 23L32 23L32 25L33 25L33 26L34 26L34 24L36 24L36 26L37 26L37 28L36 28L36 27L34 27L34 29L35 29L35 30L37 30L37 31L36 31L36 33L35 33L35 35L31 35L31 36L30 36L30 41L29 41L29 42L30 42L30 43L31 43L31 44L30 44L30 45L29 45L29 43L28 43L28 45L29 45L29 46L30 46L30 47L32 47L32 49L33 49L33 50L34 50L34 49L35 49L35 48L34 48L34 49L33 49L33 47L34 47L34 45L33 45L33 44L35 44L35 43L36 43L36 41L37 41L37 42L38 42L38 41L39 41L39 42L40 42L40 41L39 41L39 38L40 38L40 39L41 39L41 36L42 36L42 37L43 37L43 36L42 36L42 35L40 35L40 36L39 36L39 34L38 34L38 33L39 33L39 32L40 32L40 34L42 34L42 33L41 33L41 32L40 32L40 30L39 30L39 31L38 31L38 30L37 30L37 28L38 28L38 29L39 29L39 28L40 28L40 27L41 27L41 26L42 26L42 25L43 25L43 22L44 22L44 23L45 23L45 22L44 22L44 21L45 21L45 20L46 20L46 21L47 21L47 22L48 22L48 21L49 21L49 20L51 20L51 18L52 18L52 17L53 17L53 16L54 16L54 15L55 15L55 14L54 14L54 15L53 15L53 16L52 16L52 17L51 17L51 18L50 18L50 17L49 17L49 20L48 20L48 19L47 19L47 20L46 20L46 19L44 19L44 21L43 21L43 22L42 22L42 20L41 20L41 19L40 19L40 18L38 18L38 16L37 16L37 15L38 15L38 13L37 13L37 12L36 12L36 13L37 13L37 14L36 14L36 18L35 18L35 19L34 19L34 17L35 17L35 15L34 15L34 13L35 13L35 12L34 12L34 11ZM41 11L41 12L42 12L42 11ZM8 12L8 13L6 13L6 14L8 14L8 13L9 13L9 14L10 14L10 16L9 16L9 15L8 15L8 16L7 16L7 15L6 15L6 16L5 16L5 15L4 15L4 16L3 16L3 17L4 17L4 18L3 18L3 20L5 20L5 19L4 19L4 18L7 18L7 19L6 19L6 20L7 20L7 21L6 21L6 22L7 22L7 23L5 23L5 24L7 24L7 25L5 25L5 26L7 26L7 25L9 25L9 24L7 24L7 23L8 23L8 22L9 22L9 21L10 21L10 20L12 20L12 19L13 19L13 18L15 18L15 17L14 17L14 16L13 16L13 18L12 18L12 14L10 14L10 13L9 13L9 12ZM44 13L44 14L45 14L45 13ZM46 13L46 15L44 15L44 16L47 16L47 15L48 15L48 14L47 14L47 13ZM51 14L51 15L52 15L52 14ZM29 15L29 16L30 16L30 17L28 17L28 18L30 18L30 17L31 17L31 16L30 16L30 15ZM4 16L4 17L5 17L5 16ZM6 16L6 17L7 17L7 18L11 18L11 16L10 16L10 17L9 17L9 16L8 16L8 17L7 17L7 16ZM32 18L32 19L33 19L33 21L34 21L34 22L35 22L35 23L36 23L36 24L37 24L37 25L38 25L38 26L39 26L39 27L40 27L40 26L41 26L41 25L42 25L42 22L40 22L40 19L39 19L39 20L38 20L38 19L37 19L37 18L36 18L36 19L37 19L37 20L38 20L38 23L36 23L36 22L37 22L37 21L36 21L36 20L34 20L34 19L33 19L33 18ZM7 19L7 20L9 20L9 19ZM14 19L14 20L16 20L16 19ZM20 20L20 21L21 21L21 20ZM47 20L47 21L48 21L48 20ZM7 21L7 22L8 22L8 21ZM35 21L35 22L36 22L36 21ZM16 22L16 23L18 23L18 22ZM20 22L20 23L21 23L21 24L22 24L22 23L21 23L21 22ZM24 22L24 23L25 23L25 22ZM51 22L51 23L50 23L50 24L52 24L52 25L53 25L53 24L52 24L52 22ZM33 23L33 24L34 24L34 23ZM38 23L38 25L39 25L39 26L40 26L40 25L41 25L41 23ZM28 24L28 25L29 25L29 24ZM30 24L30 25L31 25L31 24ZM12 25L12 28L13 28L13 27L14 27L14 26L13 26L13 25ZM17 25L17 26L18 26L18 25ZM24 25L24 26L25 26L25 25ZM5 27L5 30L8 30L8 27ZM16 27L16 28L17 28L17 27ZM27 27L27 30L30 30L30 27ZM49 27L49 30L52 30L52 27ZM54 27L54 28L53 28L53 30L54 30L54 32L53 32L53 31L52 31L52 32L51 32L51 31L49 31L49 32L50 32L50 33L49 33L49 34L48 34L48 33L46 33L46 34L45 34L45 35L46 35L46 36L48 36L48 35L49 35L49 37L48 37L48 38L47 38L47 37L46 37L46 38L47 38L47 40L46 40L46 43L47 43L47 44L46 44L46 47L45 47L45 48L46 48L46 51L47 51L47 52L45 52L45 53L46 53L46 54L47 54L47 55L48 55L48 54L49 54L49 53L48 53L48 54L47 54L47 52L48 52L48 51L47 51L47 46L48 46L48 45L47 45L47 44L48 44L48 43L49 43L49 44L50 44L50 42L49 42L49 41L51 41L51 40L50 40L50 37L51 37L51 36L53 36L53 34L54 34L54 36L56 36L56 33L54 33L54 32L55 32L55 31L56 31L56 30L54 30L54 29L55 29L55 27ZM6 28L6 29L7 29L7 28ZM28 28L28 29L29 29L29 28ZM35 28L35 29L36 29L36 28ZM50 28L50 29L51 29L51 28ZM12 29L12 30L13 30L13 31L14 31L14 30L13 30L13 29ZM19 29L19 30L17 30L17 31L16 31L16 30L15 30L15 31L16 31L16 32L17 32L17 31L19 31L19 32L20 32L20 31L21 31L21 30L20 30L20 29ZM3 31L3 32L4 32L4 31ZM24 31L24 32L25 32L25 31ZM37 31L37 32L38 32L38 31ZM32 32L32 34L33 34L33 32ZM13 33L13 35L15 35L15 33ZM26 33L26 34L28 34L28 33ZM36 33L36 35L35 35L35 36L33 36L33 37L34 37L34 38L35 38L35 41L34 41L34 39L33 39L33 38L31 38L31 43L32 43L32 40L33 40L33 41L34 41L34 42L35 42L35 41L36 41L36 38L37 38L37 37L36 37L36 35L37 35L37 36L38 36L38 38L39 38L39 36L38 36L38 34L37 34L37 33ZM50 33L50 36L51 36L51 33ZM46 34L46 35L48 35L48 34ZM4 36L4 37L5 37L5 38L4 38L4 39L5 39L5 38L6 38L6 39L8 39L8 38L6 38L6 37L5 37L5 36ZM10 36L10 38L12 38L12 39L14 39L14 38L13 38L13 37L12 37L12 36ZM28 36L28 37L29 37L29 36ZM31 36L31 37L32 37L32 36ZM35 37L35 38L36 38L36 37ZM24 38L24 39L25 39L25 38ZM28 38L28 39L29 39L29 38ZM48 38L48 40L47 40L47 41L48 41L48 40L49 40L49 38ZM18 39L18 40L19 40L19 39ZM37 39L37 41L38 41L38 39ZM4 40L4 41L5 41L5 40ZM6 40L6 41L7 41L7 40ZM12 40L12 41L11 41L11 43L12 43L12 41L13 41L13 40ZM15 41L15 42L16 42L16 41ZM44 41L44 42L45 42L45 41ZM54 41L54 42L55 42L55 41ZM6 42L6 43L7 43L7 42ZM13 43L13 44L11 44L11 46L10 46L10 47L11 47L11 46L12 46L12 45L15 45L15 44L14 44L14 43ZM19 43L19 44L20 44L20 43ZM22 43L22 44L23 44L23 47L26 47L26 46L24 46L24 44L23 44L23 43ZM37 43L37 44L36 44L36 45L35 45L35 46L36 46L36 47L37 47L37 46L38 46L38 45L37 45L37 44L39 44L39 43ZM40 43L40 46L41 46L41 47L40 47L40 49L41 49L41 51L43 51L43 50L44 50L44 49L43 49L43 50L42 50L42 49L41 49L41 47L42 47L42 45L43 45L43 44L42 44L42 45L41 45L41 43ZM31 44L31 45L32 45L32 46L33 46L33 45L32 45L32 44ZM51 44L51 45L52 45L52 44ZM6 45L6 46L7 46L7 45ZM19 45L19 46L20 46L20 47L19 47L19 48L20 48L20 49L21 49L21 48L22 48L22 46L20 46L20 45ZM36 45L36 46L37 46L37 45ZM49 45L49 48L51 48L51 47L50 47L50 45ZM1 46L1 47L2 47L2 46ZM3 46L3 47L5 47L5 46ZM14 48L14 49L15 49L15 48ZM27 49L27 52L30 52L30 49ZM49 49L49 52L52 52L52 49ZM54 49L54 50L53 50L53 51L54 51L54 52L55 52L55 51L56 51L56 49ZM28 50L28 51L29 51L29 50ZM50 50L50 51L51 51L51 50ZM31 51L31 52L32 52L32 51ZM10 52L10 53L12 53L12 52ZM39 52L39 53L40 53L40 52ZM27 53L27 55L28 55L28 53ZM24 54L24 55L25 55L25 54ZM40 54L40 55L41 55L41 56L42 56L42 55L41 55L41 54ZM36 56L36 57L37 57L37 56ZM51 56L51 57L53 57L53 56ZM56 56L56 57L57 57L57 56ZM0 0L0 7L7 7L7 0ZM1 1L1 6L6 6L6 1ZM2 2L2 5L5 5L5 2ZM50 0L50 7L57 7L57 0ZM51 1L51 6L56 6L56 1ZM52 2L52 5L55 5L55 2ZM0 50L0 57L7 57L7 50ZM1 51L1 56L6 56L6 51ZM2 52L2 55L5 55L5 52Z" fill="#000000"/></g></g></svg>
