<?xml version="1.0" encoding="UTF-8"?>
<svg xmlns="http://www.w3.org/2000/svg" version="1.1" width="300" height="300" viewBox="0 0 300 300"><rect x="0" y="0" width="300" height="300" fill="#fefefe"/><g transform="scale(4.615)"><g transform="translate(4,4)"><path fill-rule="evenodd" d="M8 0L8 4L9 4L9 5L8 5L8 7L9 7L9 8L10 8L10 9L9 9L9 10L11 10L11 11L7 11L7 10L8 10L8 9L7 9L7 8L4 8L4 9L2 9L2 8L0 8L0 9L1 9L1 12L2 12L2 10L3 10L3 11L4 11L4 10L5 10L5 9L7 9L7 10L6 10L6 11L7 11L7 12L6 12L6 13L7 13L7 14L6 14L6 15L5 15L5 13L4 13L4 12L3 12L3 15L2 15L2 16L1 16L1 15L0 15L0 16L1 16L1 18L0 18L0 20L1 20L1 21L0 21L0 25L1 25L1 26L2 26L2 24L3 24L3 28L2 28L2 27L0 27L0 28L1 28L1 30L0 30L0 33L2 33L2 34L4 34L4 33L2 33L2 31L1 31L1 30L3 30L3 31L4 31L4 32L5 32L5 33L7 33L7 34L6 34L6 35L5 35L5 36L4 36L4 37L2 37L2 36L3 36L3 35L1 35L1 34L0 34L0 35L1 35L1 37L0 37L0 38L6 38L6 39L5 39L5 40L4 40L4 39L3 39L3 40L4 40L4 41L5 41L5 42L6 42L6 43L5 43L5 47L3 47L3 46L4 46L4 45L3 45L3 46L2 46L2 44L4 44L4 42L3 42L3 41L2 41L2 42L1 42L1 41L0 41L0 42L1 42L1 43L0 43L0 44L1 44L1 45L0 45L0 48L5 48L5 47L7 47L7 46L8 46L8 47L9 47L9 49L8 49L8 48L6 48L6 49L8 49L8 50L9 50L9 51L8 51L8 53L9 53L9 51L10 51L10 53L12 53L12 51L13 51L13 50L12 50L12 48L13 48L13 49L14 49L14 48L15 48L15 47L14 47L14 48L13 48L13 47L12 47L12 46L13 46L13 45L14 45L14 44L13 44L13 43L15 43L15 46L16 46L16 49L15 49L15 50L14 50L14 51L15 51L15 50L16 50L16 51L20 51L20 53L19 53L19 52L17 52L17 53L13 53L13 55L12 55L12 54L9 54L9 55L8 55L8 57L9 57L9 56L10 56L10 55L11 55L11 56L12 56L12 57L14 57L14 54L15 54L15 55L16 55L16 54L17 54L17 55L18 55L18 54L19 54L19 55L20 55L20 54L23 54L23 55L22 55L22 56L21 56L21 57L22 57L22 56L23 56L23 55L24 55L24 56L25 56L25 55L26 55L26 53L28 53L28 57L29 57L29 55L30 55L30 57L34 57L34 55L35 55L35 57L37 57L37 56L36 56L36 54L37 54L37 55L40 55L40 54L41 54L41 55L42 55L42 56L43 56L43 55L44 55L44 57L45 57L45 55L46 55L46 56L47 56L47 55L46 55L46 53L47 53L47 52L48 52L48 54L49 54L49 57L50 57L50 55L51 55L51 56L53 56L53 57L54 57L54 55L53 55L53 50L54 50L54 51L56 51L56 44L57 44L57 43L56 43L56 42L57 42L57 40L53 40L53 39L57 39L57 38L52 38L52 36L53 36L53 37L55 37L55 36L56 36L56 30L55 30L55 29L57 29L57 28L56 28L56 26L55 26L55 25L52 25L52 24L53 24L53 23L52 23L52 22L54 22L54 21L52 21L52 20L53 20L53 19L52 19L52 18L53 18L53 17L55 17L55 16L56 16L56 17L57 17L57 15L56 15L56 10L57 10L57 8L53 8L53 9L52 9L52 8L51 8L51 9L50 9L50 10L51 10L51 11L50 11L50 15L48 15L48 17L47 17L47 15L46 15L46 11L45 11L45 10L46 10L46 7L47 7L47 5L48 5L48 0L46 0L46 1L47 1L47 2L45 2L45 0L41 0L41 1L40 1L40 2L38 2L38 1L39 1L39 0L38 0L38 1L37 1L37 2L36 2L36 0L35 0L35 1L34 1L34 0L32 0L32 1L34 1L34 2L36 2L36 3L37 3L37 4L38 4L38 7L37 7L37 5L36 5L36 4L35 4L35 3L33 3L33 2L32 2L32 3L31 3L31 4L30 4L30 3L29 3L29 2L31 2L31 0L29 0L29 2L27 2L27 3L28 3L28 4L26 4L26 3L25 3L25 0L23 0L23 3L22 3L22 4L21 4L21 6L20 6L20 5L19 5L19 6L18 6L18 7L17 7L17 6L16 6L16 5L15 5L15 4L14 4L14 1L16 1L16 0L14 0L14 1L12 1L12 0L10 0L10 1L9 1L9 0ZM20 0L20 1L19 1L19 3L20 3L20 2L21 2L21 0ZM26 0L26 1L28 1L28 0ZM11 1L11 3L10 3L10 2L9 2L9 4L10 4L10 5L9 5L9 7L10 7L10 8L12 8L12 10L13 10L13 9L14 9L14 8L15 8L15 9L16 9L16 11L17 11L17 13L15 13L15 12L14 12L14 11L13 11L13 12L11 12L11 15L9 15L9 14L10 14L10 13L9 13L9 12L8 12L8 15L6 15L6 16L7 16L7 17L6 17L6 18L4 18L4 15L3 15L3 16L2 16L2 18L1 18L1 20L2 20L2 21L5 21L5 22L1 22L1 24L2 24L2 23L6 23L6 24L4 24L4 25L6 25L6 26L10 26L10 27L12 27L12 29L13 29L13 30L14 30L14 31L15 31L15 32L16 32L16 34L17 34L17 32L16 32L16 31L15 31L15 30L17 30L17 31L18 31L18 32L19 32L19 33L18 33L18 35L19 35L19 36L22 36L22 37L19 37L19 38L18 38L18 37L17 37L17 35L15 35L15 34L14 34L14 33L13 33L13 32L12 32L12 31L11 31L11 30L9 30L9 31L10 31L10 32L8 32L8 33L10 33L10 32L12 32L12 33L11 33L11 34L9 34L9 35L8 35L8 36L7 36L7 35L6 35L6 36L7 36L7 37L6 37L6 38L7 38L7 39L6 39L6 40L7 40L7 39L8 39L8 41L9 41L9 42L10 42L10 46L11 46L11 45L13 45L13 44L11 44L11 43L13 43L13 41L14 41L14 42L15 42L15 41L16 41L16 46L17 46L17 47L19 47L19 50L20 50L20 49L21 49L21 50L22 50L22 51L21 51L21 53L24 53L24 54L25 54L25 53L26 53L26 50L25 50L25 53L24 53L24 52L23 52L23 50L22 50L22 49L23 49L23 48L24 48L24 49L26 49L26 48L27 48L27 47L28 47L28 46L29 46L29 47L30 47L30 48L31 48L31 46L32 46L32 47L33 47L33 46L32 46L32 44L31 44L31 41L32 41L32 43L33 43L33 44L37 44L37 46L38 46L38 45L39 45L39 44L37 44L37 43L33 43L33 41L32 41L32 40L33 40L33 39L34 39L34 42L35 42L35 39L37 39L37 42L38 42L38 39L39 39L39 40L40 40L40 41L39 41L39 42L40 42L40 41L43 41L43 42L42 42L42 44L43 44L43 46L44 46L44 44L45 44L45 45L46 45L46 49L45 49L45 50L44 50L44 48L45 48L45 47L42 47L42 49L43 49L43 50L42 50L42 51L46 51L46 52L45 52L45 53L44 53L44 52L41 52L41 44L40 44L40 46L39 46L39 47L38 47L38 49L37 49L37 54L38 54L38 52L40 52L40 53L44 53L44 55L45 55L45 53L46 53L46 52L47 52L47 49L48 49L48 47L49 47L49 46L48 46L48 47L47 47L47 45L48 45L48 43L49 43L49 44L50 44L50 43L51 43L51 45L50 45L50 48L52 48L52 47L51 47L51 45L52 45L52 46L53 46L53 49L55 49L55 47L54 47L54 45L55 45L55 44L56 44L56 43L55 43L55 42L56 42L56 41L55 41L55 42L54 42L54 43L53 43L53 41L52 41L52 40L50 40L50 39L52 39L52 38L51 38L51 36L50 36L50 35L53 35L53 36L55 36L55 35L53 35L53 34L54 34L54 33L55 33L55 30L53 30L53 31L52 31L52 32L53 32L53 31L54 31L54 33L51 33L51 31L50 31L50 35L49 35L49 36L46 36L46 34L49 34L49 33L48 33L48 31L47 31L47 30L48 30L48 26L47 26L47 25L49 25L49 26L50 26L50 25L49 25L49 24L50 24L50 22L49 22L49 24L48 24L48 23L47 23L47 20L49 20L49 21L51 21L51 22L52 22L52 21L51 21L51 20L49 20L49 19L51 19L51 18L52 18L52 17L53 17L53 16L55 16L55 14L54 14L54 13L55 13L55 9L53 9L53 10L54 10L54 11L52 11L52 12L51 12L51 14L52 14L52 15L53 15L53 16L52 16L52 17L51 17L51 18L50 18L50 17L49 17L49 19L48 19L48 18L47 18L47 17L46 17L46 16L45 16L45 15L44 15L44 14L43 14L43 15L42 15L42 17L43 17L43 18L42 18L42 19L41 19L41 18L40 18L40 17L41 17L41 14L40 14L40 13L44 13L44 12L45 12L45 11L44 11L44 10L45 10L45 9L44 9L44 8L45 8L45 7L46 7L46 6L45 6L45 7L44 7L44 4L45 4L45 5L47 5L47 3L44 3L44 2L43 2L43 3L44 3L44 4L43 4L43 7L42 7L42 5L39 5L39 7L40 7L40 6L41 6L41 8L40 8L40 9L39 9L39 10L40 10L40 13L39 13L39 12L37 12L37 14L36 14L36 13L35 13L35 12L34 12L34 10L36 10L36 11L38 11L38 8L37 8L37 9L35 9L35 7L36 7L36 5L35 5L35 4L34 4L34 5L33 5L33 3L32 3L32 5L33 5L33 7L32 7L32 6L31 6L31 11L32 11L32 12L29 12L29 11L28 11L28 10L29 10L29 9L28 9L28 10L27 10L27 9L26 9L26 6L25 6L25 7L24 7L24 6L23 6L23 5L24 5L24 4L25 4L25 3L23 3L23 5L22 5L22 6L21 6L21 8L22 8L22 9L21 9L21 11L20 11L20 8L19 8L19 9L16 9L16 8L15 8L15 7L16 7L16 6L15 6L15 5L13 5L13 4L11 4L11 3L13 3L13 2L12 2L12 1ZM17 1L17 2L16 2L16 4L17 4L17 5L18 5L18 1ZM37 2L37 3L38 3L38 2ZM40 2L40 3L39 3L39 4L40 4L40 3L41 3L41 2ZM10 5L10 7L11 7L11 6L12 6L12 7L13 7L13 5ZM27 5L27 8L30 8L30 5ZM34 5L34 7L33 7L33 8L32 8L32 11L33 11L33 10L34 10L34 9L33 9L33 8L34 8L34 7L35 7L35 5ZM14 6L14 7L15 7L15 6ZM19 6L19 7L20 7L20 6ZM22 6L22 7L23 7L23 8L24 8L24 9L23 9L23 10L24 10L24 12L22 12L22 11L21 11L21 12L18 12L18 13L17 13L17 14L15 14L15 13L13 13L13 16L14 16L14 17L19 17L19 13L20 13L20 15L22 15L22 16L25 16L25 17L21 17L21 16L20 16L20 18L22 18L22 19L20 19L20 21L19 21L19 20L17 20L17 19L18 19L18 18L16 18L16 20L17 20L17 21L15 21L15 20L14 20L14 19L13 19L13 17L11 17L11 16L9 16L9 15L8 15L8 18L9 18L9 17L10 17L10 18L11 18L11 19L10 19L10 21L11 21L11 23L12 23L12 24L13 24L13 26L12 26L12 25L11 25L11 26L12 26L12 27L13 27L13 29L14 29L14 28L15 28L15 29L18 29L18 31L19 31L19 32L21 32L21 33L20 33L20 34L19 34L19 35L22 35L22 36L23 36L23 37L24 37L24 38L26 38L26 40L25 40L25 41L23 41L23 43L24 43L24 44L22 44L22 43L21 43L21 41L22 41L22 38L20 38L20 39L19 39L19 40L18 40L18 41L17 41L17 39L18 39L18 38L16 38L16 39L15 39L15 38L13 38L13 37L14 37L14 36L15 36L15 37L16 37L16 36L15 36L15 35L14 35L14 36L13 36L13 35L12 35L12 34L11 34L11 35L12 35L12 36L11 36L11 37L10 37L10 35L9 35L9 36L8 36L8 38L11 38L11 39L12 39L12 40L10 40L10 39L9 39L9 40L10 40L10 41L13 41L13 39L15 39L15 40L14 40L14 41L15 41L15 40L16 40L16 41L17 41L17 43L18 43L18 41L19 41L19 40L20 40L20 44L18 44L18 45L17 45L17 46L19 46L19 47L22 47L22 48L21 48L21 49L22 49L22 48L23 48L23 47L24 47L24 46L26 46L26 47L27 47L27 46L28 46L28 44L27 44L27 43L28 43L28 41L29 41L29 42L30 42L30 40L31 40L31 39L33 39L33 38L34 38L34 39L35 39L35 38L37 38L37 37L38 37L38 38L40 38L40 40L43 40L43 41L45 41L45 42L46 42L46 43L47 43L47 42L46 42L46 41L47 41L47 40L49 40L49 39L50 39L50 36L49 36L49 39L47 39L47 38L46 38L46 37L45 37L45 35L44 35L44 34L46 34L46 32L45 32L45 31L46 31L46 30L45 30L45 31L44 31L44 29L45 29L45 27L47 27L47 26L46 26L46 25L47 25L47 23L46 23L46 24L44 24L44 22L45 22L45 21L46 21L46 20L47 20L47 18L46 18L46 17L45 17L45 16L44 16L44 15L43 15L43 16L44 16L44 22L43 22L43 21L42 21L42 20L41 20L41 21L40 21L40 18L39 18L39 17L40 17L40 14L39 14L39 13L38 13L38 15L39 15L39 17L38 17L38 16L37 16L37 15L35 15L35 17L38 17L38 18L39 18L39 19L38 19L38 20L37 20L37 18L34 18L34 13L33 13L33 12L32 12L32 13L30 13L30 15L32 15L32 17L31 17L31 16L29 16L29 13L27 13L27 14L28 14L28 15L27 15L27 16L26 16L26 14L25 14L25 13L26 13L26 11L27 11L27 12L28 12L28 11L27 11L27 10L25 10L25 8L24 8L24 7L23 7L23 6ZM28 6L28 7L29 7L29 6ZM48 6L48 7L49 7L49 6ZM43 7L43 8L42 8L42 9L40 9L40 10L41 10L41 12L44 12L44 11L42 11L42 10L44 10L44 9L43 9L43 8L44 8L44 7ZM47 8L47 11L48 11L48 12L49 12L49 8ZM17 10L17 11L18 11L18 10ZM53 12L53 13L52 13L52 14L53 14L53 15L54 15L54 14L53 14L53 13L54 13L54 12ZM0 13L0 14L1 14L1 13ZM21 13L21 14L22 14L22 15L25 15L25 14L23 14L23 13ZM32 13L32 14L33 14L33 13ZM47 13L47 14L49 14L49 13ZM14 15L14 16L15 16L15 15ZM17 15L17 16L18 16L18 15ZM50 15L50 16L51 16L51 15ZM26 17L26 18L24 18L24 19L23 19L23 20L22 20L22 22L20 22L20 23L18 23L18 22L16 22L16 23L15 23L15 25L14 25L14 26L13 26L13 27L14 27L14 26L15 26L15 25L16 25L16 28L17 28L17 27L18 27L18 26L17 26L17 24L19 24L19 25L21 25L21 26L20 26L20 27L19 27L19 28L18 28L18 29L22 29L22 30L19 30L19 31L22 31L22 33L21 33L21 34L23 34L23 33L25 33L25 31L24 31L24 30L23 30L23 28L24 28L24 27L26 27L26 25L25 25L25 26L23 26L23 28L22 28L22 27L21 27L21 26L22 26L22 25L24 25L24 23L22 23L22 22L23 22L23 21L24 21L24 22L25 22L25 23L26 23L26 22L28 22L28 23L27 23L27 25L29 25L29 26L30 26L30 25L31 25L31 29L32 29L32 30L31 30L31 32L30 32L30 31L29 31L29 33L28 33L28 34L27 34L27 32L28 32L28 31L27 31L27 32L26 32L26 34L24 34L24 36L25 36L25 37L26 37L26 36L25 36L25 35L26 35L26 34L27 34L27 36L28 36L28 37L27 37L27 39L28 39L28 38L29 38L29 39L31 39L31 38L33 38L33 37L34 37L34 38L35 38L35 37L34 37L34 36L35 36L35 33L34 33L34 36L33 36L33 37L32 37L32 36L31 36L31 35L33 35L33 34L30 34L30 36L31 36L31 37L29 37L29 36L28 36L28 34L29 34L29 33L32 33L32 32L33 32L33 31L32 31L32 30L33 30L33 29L32 29L32 28L33 28L33 27L34 27L34 31L35 31L35 30L37 30L37 32L38 32L38 30L37 30L37 29L38 29L38 28L37 28L37 27L39 27L39 26L38 26L38 21L39 21L39 24L40 24L40 27L41 27L41 28L40 28L40 29L39 29L39 32L40 32L40 33L39 33L39 34L38 34L38 33L37 33L37 34L38 34L38 35L37 35L37 36L38 36L38 37L41 37L41 36L42 36L42 34L40 34L40 33L41 33L41 32L40 32L40 30L41 30L41 29L44 29L44 27L45 27L45 25L44 25L44 24L43 24L43 25L44 25L44 26L43 26L43 28L42 28L42 26L41 26L41 24L42 24L42 23L43 23L43 22L42 22L42 23L41 23L41 22L40 22L40 21L39 21L39 20L38 20L38 21L37 21L37 22L35 22L35 20L36 20L36 19L34 19L34 18L33 18L33 17L32 17L32 18L33 18L33 19L34 19L34 22L30 22L30 25L29 25L29 22L28 22L28 21L32 21L32 20L28 20L28 21L26 21L26 20L27 20L27 19L30 19L30 18L28 18L28 17ZM2 18L2 19L3 19L3 20L5 20L5 19L4 19L4 18ZM6 18L6 19L7 19L7 18ZM8 19L8 20L6 20L6 21L9 21L9 19ZM11 19L11 21L12 21L12 23L13 23L13 22L14 22L14 21L13 21L13 19ZM25 19L25 20L24 20L24 21L25 21L25 20L26 20L26 19ZM45 19L45 20L46 20L46 19ZM55 20L55 24L56 24L56 25L57 25L57 24L56 24L56 20ZM6 22L6 23L7 23L7 24L6 24L6 25L9 25L9 24L10 24L10 23L9 23L9 24L8 24L8 22ZM34 22L34 23L32 23L32 27L33 27L33 26L34 26L34 25L37 25L37 24L34 24L34 23L35 23L35 22ZM21 23L21 25L22 25L22 23ZM51 23L51 24L52 24L52 23ZM33 24L33 25L34 25L34 24ZM51 25L51 26L52 26L52 25ZM36 26L36 27L35 27L35 29L37 29L37 28L36 28L36 27L37 27L37 26ZM54 26L54 27L53 27L53 28L54 28L54 29L55 29L55 26ZM5 27L5 30L8 30L8 27ZM27 27L27 30L30 30L30 27ZM49 27L49 30L52 30L52 27ZM3 28L3 30L4 30L4 28ZM6 28L6 29L7 29L7 28ZM10 28L10 29L11 29L11 28ZM28 28L28 29L29 29L29 28ZM46 28L46 29L47 29L47 28ZM50 28L50 29L51 29L51 28ZM25 29L25 30L26 30L26 29ZM22 30L22 31L23 31L23 30ZM5 31L5 32L7 32L7 31ZM43 33L43 34L44 34L44 33ZM38 35L38 36L40 36L40 35ZM43 35L43 37L44 37L44 38L43 38L43 39L45 39L45 40L47 40L47 39L46 39L46 38L45 38L45 37L44 37L44 35ZM41 38L41 39L42 39L42 38ZM1 39L1 40L2 40L2 39ZM23 39L23 40L24 40L24 39ZM27 40L27 41L26 41L26 42L24 42L24 43L27 43L27 41L28 41L28 40ZM6 41L6 42L7 42L7 43L6 43L6 44L7 44L7 45L6 45L6 46L7 46L7 45L8 45L8 46L9 46L9 45L8 45L8 44L9 44L9 43L8 43L8 42L7 42L7 41ZM48 41L48 42L49 42L49 43L50 43L50 42L49 42L49 41ZM51 41L51 43L52 43L52 45L54 45L54 44L53 44L53 43L52 43L52 41ZM43 42L43 43L44 43L44 42ZM1 43L1 44L2 44L2 43ZM20 44L20 45L19 45L19 46L20 46L20 45L21 45L21 46L22 46L22 47L23 47L23 45L21 45L21 44ZM30 44L30 45L31 45L31 44ZM46 44L46 45L47 45L47 44ZM26 45L26 46L27 46L27 45ZM34 45L34 48L33 48L33 49L34 49L34 50L35 50L35 52L36 52L36 49L34 49L34 48L35 48L35 45ZM1 46L1 47L2 47L2 46ZM11 47L11 48L10 48L10 49L9 49L9 50L11 50L11 51L12 51L12 50L11 50L11 48L12 48L12 47ZM36 47L36 48L37 48L37 47ZM39 47L39 49L38 49L38 51L40 51L40 47ZM16 49L16 50L18 50L18 49ZM27 49L27 52L30 52L30 49ZM31 49L31 50L32 50L32 51L31 51L31 52L32 52L32 51L33 51L33 52L34 52L34 51L33 51L33 50L32 50L32 49ZM49 49L49 52L52 52L52 49ZM28 50L28 51L29 51L29 50ZM50 50L50 51L51 51L51 50ZM54 52L54 53L55 53L55 54L57 54L57 52L56 52L56 53L55 53L55 52ZM30 53L30 54L31 54L31 53ZM32 53L32 54L33 54L33 53ZM34 53L34 54L35 54L35 53ZM49 53L49 54L51 54L51 55L52 55L52 54L51 54L51 53ZM42 54L42 55L43 55L43 54ZM15 56L15 57L16 57L16 56ZM17 56L17 57L20 57L20 56ZM26 56L26 57L27 57L27 56ZM56 56L56 57L57 57L57 56ZM0 0L0 7L7 7L7 0ZM1 1L1 6L6 6L6 1ZM2 2L2 5L5 5L5 2ZM50 0L50 7L57 7L57 0ZM51 1L51 6L56 6L56 1ZM52 2L52 5L55 5L55 2ZM0 50L0 57L7 57L7 50ZM1 51L1 56L6 56L6 51ZM2 52L2 55L5 55L5 52Z" fill="#000000"/></g></g></svg>
