<?xml version="1.0" encoding="UTF-8"?>
<svg xmlns="http://www.w3.org/2000/svg" version="1.1" width="300" height="300" viewBox="0 0 300 300"><rect x="0" y="0" width="300" height="300" fill="#fefefe"/><g transform="scale(4.615)"><g transform="translate(4,4)"><path fill-rule="evenodd" d="M8 0L8 2L10 2L10 3L11 3L11 5L10 5L10 7L9 7L9 4L8 4L8 12L10 12L10 13L11 13L11 15L12 15L12 16L9 16L9 17L8 17L8 15L9 15L9 14L8 14L8 15L7 15L7 14L6 14L6 13L7 13L7 12L6 12L6 11L7 11L7 10L6 10L6 9L7 9L7 8L5 8L5 10L4 10L4 9L3 9L3 8L0 8L0 9L1 9L1 11L2 11L2 12L0 12L0 15L1 15L1 16L0 16L0 17L1 17L1 16L2 16L2 18L1 18L1 19L0 19L0 20L1 20L1 21L0 21L0 28L1 28L1 27L2 27L2 25L4 25L4 27L3 27L3 28L2 28L2 30L1 30L1 31L0 31L0 32L1 32L1 33L0 33L0 39L1 39L1 40L0 40L0 45L1 45L1 46L0 46L0 48L5 48L5 47L7 47L7 46L8 46L8 48L6 48L6 49L8 49L8 50L10 50L10 54L8 54L8 57L9 57L9 56L10 56L10 54L11 54L11 55L12 55L12 57L13 57L13 56L14 56L14 57L15 57L15 56L16 56L16 57L17 57L17 56L18 56L18 57L21 57L21 56L22 56L22 57L23 57L23 56L24 56L24 57L25 57L25 56L26 56L26 57L28 57L28 55L29 55L29 57L33 57L33 55L34 55L34 57L35 57L35 55L38 55L38 53L39 53L39 55L40 55L40 54L41 54L41 55L42 55L42 56L40 56L40 57L42 57L42 56L43 56L43 54L42 54L42 53L41 53L41 52L42 52L42 51L43 51L43 52L44 52L44 57L48 57L48 55L49 55L49 57L50 57L50 55L49 55L49 54L52 54L52 55L53 55L53 56L51 56L51 57L53 57L53 56L54 56L54 55L57 55L57 54L54 54L54 53L57 53L57 50L56 50L56 52L54 52L54 51L53 51L53 50L54 50L54 47L55 47L55 49L56 49L56 47L57 47L57 42L56 42L56 41L57 41L57 40L54 40L54 39L55 39L55 38L57 38L57 34L56 34L56 35L55 35L55 36L54 36L54 34L53 34L53 36L51 36L51 33L50 33L50 31L51 31L51 32L52 32L52 31L53 31L53 32L54 32L54 33L56 33L56 31L57 31L57 24L56 24L56 23L57 23L57 21L56 21L56 23L55 23L55 21L54 21L54 19L55 19L55 16L56 16L56 20L57 20L57 13L56 13L56 12L55 12L55 13L54 13L54 14L53 14L53 12L54 12L54 11L55 11L55 10L56 10L56 11L57 11L57 10L56 10L56 9L57 9L57 8L55 8L55 9L54 9L54 10L53 10L53 8L49 8L49 6L48 6L48 8L49 8L49 11L48 11L48 12L47 12L47 11L46 11L46 8L47 8L47 5L48 5L48 0L46 0L46 1L47 1L47 2L45 2L45 4L44 4L44 2L43 2L43 4L42 4L42 3L41 3L41 4L42 4L42 7L41 7L41 6L40 6L40 7L41 7L41 8L40 8L40 9L41 9L41 10L42 10L42 12L41 12L41 11L39 11L39 10L38 10L38 9L37 9L37 8L39 8L39 6L38 6L38 5L39 5L39 4L40 4L40 2L42 2L42 1L45 1L45 0L42 0L42 1L41 1L41 0L38 0L38 2L37 2L37 1L35 1L35 0L34 0L34 2L33 2L33 6L32 6L32 7L33 7L33 6L34 6L34 8L32 8L32 9L31 9L31 5L32 5L32 1L33 1L33 0L32 0L32 1L31 1L31 0L30 0L30 1L29 1L29 0L28 0L28 1L27 1L27 0L26 0L26 1L25 1L25 0L24 0L24 1L23 1L23 0L20 0L20 1L19 1L19 0L18 0L18 1L19 1L19 3L20 3L20 1L23 1L23 4L22 4L22 3L21 3L21 5L20 5L20 7L19 7L19 4L18 4L18 3L17 3L17 2L15 2L15 0L14 0L14 3L11 3L11 1L9 1L9 0ZM12 0L12 1L13 1L13 0ZM16 0L16 1L17 1L17 0ZM24 1L24 4L25 4L25 1ZM30 1L30 2L29 2L29 3L28 3L28 4L31 4L31 3L30 3L30 2L31 2L31 1ZM39 1L39 2L40 2L40 1ZM34 2L34 4L35 4L35 9L34 9L34 10L33 10L33 9L32 9L32 11L31 11L31 12L30 12L30 10L31 10L31 9L30 9L30 10L29 10L29 9L27 9L27 10L25 10L25 9L26 9L26 5L24 5L24 6L23 6L23 8L24 8L24 11L26 11L26 14L27 14L27 15L26 15L26 16L24 16L24 15L25 15L25 12L22 12L22 11L23 11L23 9L22 9L22 5L21 5L21 9L20 9L20 10L21 10L21 13L20 13L20 12L19 12L19 11L18 11L18 12L19 12L19 13L18 13L18 14L17 14L17 11L16 11L16 10L18 10L18 8L19 8L19 7L18 7L18 6L17 6L17 5L18 5L18 4L17 4L17 3L16 3L16 4L17 4L17 5L16 5L16 6L15 6L15 5L13 5L13 4L12 4L12 5L11 5L11 8L10 8L10 12L11 12L11 13L13 13L13 14L12 14L12 15L13 15L13 16L12 16L12 17L13 17L13 16L14 16L14 15L15 15L15 17L16 17L16 18L17 18L17 19L16 19L16 20L17 20L17 19L18 19L18 18L17 18L17 17L18 17L18 16L17 16L17 15L18 15L18 14L19 14L19 13L20 13L20 15L19 15L19 17L20 17L20 19L19 19L19 22L16 22L16 23L18 23L18 24L17 24L17 25L16 25L16 24L15 24L15 21L14 21L14 23L12 23L12 22L13 22L13 21L12 21L12 22L11 22L11 24L9 24L9 23L3 23L3 21L4 21L4 22L8 22L8 21L6 21L6 20L7 20L7 19L5 19L5 18L4 18L4 17L6 17L6 18L7 18L7 17L6 17L6 16L7 16L7 15L6 15L6 14L5 14L5 13L3 13L3 14L2 14L2 16L3 16L3 18L4 18L4 19L3 19L3 20L2 20L2 21L1 21L1 22L2 22L2 24L4 24L4 25L5 25L5 26L7 26L7 25L8 25L8 26L9 26L9 25L10 25L10 26L13 26L13 24L15 24L15 25L14 25L14 26L15 26L15 25L16 25L16 27L15 27L15 30L13 30L13 31L15 31L15 32L14 32L14 33L13 33L13 32L11 32L11 31L10 31L10 30L11 30L11 29L10 29L10 28L12 28L12 29L14 29L14 28L12 28L12 27L10 27L10 28L9 28L9 31L3 31L3 30L2 30L2 31L1 31L1 32L3 32L3 33L1 33L1 35L3 35L3 33L5 33L5 32L7 32L7 33L6 33L6 34L4 34L4 36L2 36L2 37L1 37L1 39L3 39L3 40L4 40L4 41L2 41L2 42L1 42L1 43L2 43L2 44L1 44L1 45L2 45L2 44L3 44L3 43L2 43L2 42L4 42L4 43L5 43L5 44L8 44L8 45L9 45L9 44L10 44L10 43L15 43L15 44L12 44L12 45L10 45L10 46L9 46L9 48L8 48L8 49L9 49L9 48L10 48L10 49L12 49L12 51L11 51L11 53L12 53L12 54L13 54L13 55L14 55L14 56L15 56L15 55L14 55L14 54L15 54L15 52L17 52L17 53L18 53L18 54L19 54L19 56L21 56L21 55L22 55L22 56L23 56L23 53L22 53L22 52L21 52L21 53L20 53L20 52L19 52L19 51L20 51L20 50L21 50L21 51L23 51L23 52L24 52L24 51L25 51L25 54L24 54L24 55L26 55L26 54L27 54L27 55L28 55L28 53L26 53L26 50L25 50L25 49L26 49L26 48L27 48L27 46L26 46L26 45L24 45L24 44L25 44L25 43L24 43L24 42L26 42L26 41L25 41L25 40L28 40L28 42L27 42L27 43L28 43L28 42L29 42L29 43L30 43L30 44L31 44L31 45L29 45L29 44L28 44L28 46L29 46L29 47L28 47L28 48L31 48L31 52L32 52L32 47L33 47L33 45L34 45L34 47L35 47L35 49L34 49L34 48L33 48L33 49L34 49L34 50L35 50L35 51L34 51L34 52L33 52L33 53L34 53L34 54L35 54L35 53L36 53L36 54L37 54L37 53L36 53L36 52L35 52L35 51L37 51L37 52L38 52L38 51L39 51L39 49L40 49L40 51L41 51L41 49L42 49L42 50L43 50L43 51L44 51L44 50L43 50L43 49L44 49L44 46L43 46L43 45L44 45L44 44L45 44L45 43L46 43L46 42L47 42L47 44L46 44L46 48L45 48L45 49L46 49L46 50L45 50L45 51L46 51L46 50L47 50L47 49L46 49L46 48L47 48L47 46L48 46L48 45L47 45L47 44L48 44L48 43L49 43L49 48L53 48L53 46L54 46L54 45L55 45L55 47L56 47L56 45L55 45L55 44L56 44L56 42L55 42L55 41L54 41L54 40L52 40L52 38L53 38L53 39L54 39L54 38L53 38L53 37L54 37L54 36L53 36L53 37L52 37L52 38L51 38L51 40L50 40L50 37L51 37L51 36L50 36L50 33L49 33L49 34L48 34L48 33L47 33L47 32L45 32L45 33L46 33L46 34L45 34L45 37L46 37L46 38L47 38L47 40L46 40L46 39L45 39L45 40L46 40L46 42L45 42L45 43L44 43L44 44L43 44L43 43L42 43L42 42L43 42L43 40L42 40L42 39L43 39L43 38L44 38L44 35L43 35L43 33L42 33L42 31L44 31L44 30L46 30L46 31L47 31L47 30L48 30L48 29L47 29L47 28L48 28L48 26L49 26L49 24L50 24L50 26L51 26L51 25L52 25L52 26L53 26L53 25L52 25L52 24L53 24L53 23L54 23L54 26L55 26L55 27L54 27L54 28L53 28L53 30L54 30L54 32L55 32L55 31L56 31L56 30L55 30L55 28L56 28L56 24L55 24L55 23L54 23L54 21L53 21L53 22L52 22L52 20L53 20L53 19L54 19L54 16L55 16L55 15L56 15L56 13L55 13L55 15L54 15L54 16L53 16L53 14L52 14L52 13L50 13L50 11L51 11L51 12L52 12L52 11L53 11L53 10L52 10L52 9L50 9L50 11L49 11L49 12L48 12L48 14L47 14L47 13L46 13L46 11L45 11L45 9L44 9L44 8L46 8L46 6L45 6L45 5L44 5L44 4L43 4L43 5L44 5L44 6L43 6L43 7L42 7L42 8L41 8L41 9L42 9L42 10L43 10L43 9L44 9L44 11L43 11L43 12L42 12L42 15L41 15L41 14L40 14L40 15L39 15L39 12L37 12L37 11L38 11L38 10L37 10L37 11L34 11L34 10L36 10L36 6L37 6L37 7L38 7L38 6L37 6L37 5L38 5L38 4L39 4L39 3L38 3L38 4L37 4L37 2ZM14 3L14 4L15 4L15 3ZM26 3L26 4L27 4L27 3ZM35 3L35 4L36 4L36 3ZM46 3L46 5L47 5L47 3ZM27 5L27 8L30 8L30 5ZM12 6L12 9L11 9L11 10L12 10L12 11L13 11L13 8L14 8L14 9L15 9L15 6L14 6L14 7L13 7L13 6ZM16 6L16 7L17 7L17 8L18 8L18 7L17 7L17 6ZM24 6L24 7L25 7L25 6ZM28 6L28 7L29 7L29 6ZM44 6L44 7L43 7L43 8L44 8L44 7L45 7L45 6ZM2 9L2 11L3 11L3 12L5 12L5 11L6 11L6 10L5 10L5 11L4 11L4 10L3 10L3 9ZM21 9L21 10L22 10L22 9ZM27 10L27 11L28 11L28 12L27 12L27 14L28 14L28 15L29 15L29 16L30 16L30 17L28 17L28 18L30 18L30 17L31 17L31 18L32 18L32 19L30 19L30 21L29 21L29 20L28 20L28 21L27 21L27 20L26 20L26 19L25 19L25 18L26 18L26 17L27 17L27 16L26 16L26 17L25 17L25 18L24 18L24 16L22 16L22 14L21 14L21 16L20 16L20 17L21 17L21 19L20 19L20 21L21 21L21 22L20 22L20 23L21 23L21 28L19 28L19 27L20 27L20 24L18 24L18 25L17 25L17 26L18 26L18 25L19 25L19 27L18 27L18 28L19 28L19 30L18 30L18 31L19 31L19 32L18 32L18 33L17 33L17 34L16 34L16 33L14 33L14 34L16 34L16 35L13 35L13 33L11 33L11 32L10 32L10 31L9 31L9 32L8 32L8 33L9 33L9 32L10 32L10 34L9 34L9 35L7 35L7 34L6 34L6 35L7 35L7 36L6 36L6 37L7 37L7 38L6 38L6 39L5 39L5 41L4 41L4 42L5 42L5 41L7 41L7 40L6 40L6 39L8 39L8 40L9 40L9 39L8 39L8 37L9 37L9 38L10 38L10 37L11 37L11 36L12 36L12 35L13 35L13 37L12 37L12 38L13 38L13 39L14 39L14 40L13 40L13 41L11 41L11 40L12 40L12 39L11 39L11 40L10 40L10 41L11 41L11 42L13 42L13 41L15 41L15 43L16 43L16 44L17 44L17 46L18 46L18 47L19 47L19 48L18 48L18 51L19 51L19 50L20 50L20 49L21 49L21 48L22 48L22 50L23 50L23 51L24 51L24 49L23 49L23 48L25 48L25 47L26 47L26 46L25 46L25 47L24 47L24 45L23 45L23 48L22 48L22 46L21 46L21 48L20 48L20 47L19 47L19 46L20 46L20 43L21 43L21 42L20 42L20 41L21 41L21 40L22 40L22 41L23 41L23 42L24 42L24 41L23 41L23 38L21 38L21 36L22 36L22 37L23 37L23 36L22 36L22 34L21 34L21 35L20 35L20 32L21 32L21 30L22 30L22 33L23 33L23 35L25 35L25 36L24 36L24 37L26 37L26 38L24 38L24 39L26 39L26 38L27 38L27 37L26 37L26 36L28 36L28 37L29 37L29 36L28 36L28 35L31 35L31 36L30 36L30 41L29 41L29 42L30 42L30 43L31 43L31 44L32 44L32 45L31 45L31 46L30 46L30 47L32 47L32 45L33 45L33 44L35 44L35 43L36 43L36 41L37 41L37 42L38 42L38 41L39 41L39 42L40 42L40 43L37 43L37 44L36 44L36 45L35 45L35 47L36 47L36 45L37 45L37 46L38 46L38 45L37 45L37 44L40 44L40 45L39 45L39 46L41 46L41 47L40 47L40 49L41 49L41 47L42 47L42 45L43 45L43 44L42 44L42 45L41 45L41 44L40 44L40 43L41 43L41 42L42 42L42 41L41 41L41 40L40 40L40 39L41 39L41 38L42 38L42 37L43 37L43 36L42 36L42 35L40 35L40 36L38 36L38 35L39 35L39 34L38 34L38 33L39 33L39 32L40 32L40 34L42 34L42 33L41 33L41 32L40 32L40 31L42 31L42 28L43 28L43 30L44 30L44 29L46 29L46 28L47 28L47 26L48 26L48 24L49 24L49 23L50 23L50 24L52 24L52 22L51 22L51 23L50 23L50 22L48 22L48 21L47 21L47 20L48 20L48 19L47 19L47 18L48 18L48 17L49 17L49 18L50 18L50 19L49 19L49 20L51 20L51 18L53 18L53 16L52 16L52 14L51 14L51 16L50 16L50 13L49 13L49 14L48 14L48 15L47 15L47 16L46 16L46 13L45 13L45 12L44 12L44 13L43 13L43 16L44 16L44 17L43 17L43 18L42 18L42 17L41 17L41 15L40 15L40 18L38 18L38 16L37 16L37 15L38 15L38 13L37 13L37 12L36 12L36 13L35 13L35 12L34 12L34 11L33 11L33 12L32 12L32 14L31 14L31 15L32 15L32 14L33 14L33 15L34 15L34 17L33 17L33 16L32 16L32 17L31 17L31 16L30 16L30 15L29 15L29 13L30 13L30 12L29 12L29 10ZM51 10L51 11L52 11L52 10ZM14 11L14 12L16 12L16 11ZM34 13L34 15L35 15L35 17L34 17L34 18L33 18L33 17L32 17L32 18L33 18L33 20L35 20L35 21L34 21L34 22L33 22L33 21L32 21L32 20L31 20L31 21L30 21L30 22L29 22L29 21L28 21L28 22L26 22L26 23L30 23L30 24L29 24L29 26L31 26L31 25L32 25L32 28L31 28L31 30L32 30L32 31L31 31L31 32L30 32L30 34L31 34L31 35L33 35L33 36L34 36L34 38L35 38L35 41L34 41L34 39L33 39L33 38L31 38L31 43L32 43L32 40L33 40L33 41L34 41L34 42L35 42L35 41L36 41L36 38L37 38L37 37L36 37L36 35L38 35L38 34L37 34L37 33L36 33L36 31L37 31L37 32L38 32L38 31L40 31L40 30L41 30L41 29L40 29L40 23L41 23L41 22L40 22L40 19L41 19L41 18L40 18L40 19L39 19L39 21L38 21L38 19L37 19L37 18L36 18L36 14L35 14L35 13ZM3 14L3 15L4 15L4 16L5 16L5 14ZM15 14L15 15L17 15L17 14ZM23 14L23 15L24 15L24 14ZM44 15L44 16L45 16L45 17L44 17L44 19L43 19L43 21L42 21L42 20L41 20L41 21L42 21L42 22L43 22L43 23L42 23L42 27L44 27L44 26L45 26L45 27L46 27L46 26L47 26L47 25L46 25L46 26L45 26L45 25L44 25L44 24L45 24L45 23L48 23L48 22L47 22L47 21L46 21L46 20L47 20L47 19L45 19L45 17L46 17L46 18L47 18L47 17L48 17L48 16L47 16L47 17L46 17L46 16L45 16L45 15ZM16 16L16 17L17 17L17 16ZM51 16L51 17L50 17L50 18L51 18L51 17L52 17L52 16ZM9 17L9 18L10 18L10 17ZM11 18L11 19L12 19L12 20L13 20L13 18ZM34 18L34 19L35 19L35 20L36 20L36 21L35 21L35 22L34 22L34 24L33 24L33 22L31 22L31 23L32 23L32 25L33 25L33 26L34 26L34 24L36 24L36 26L37 26L37 28L36 28L36 29L35 29L35 27L34 27L34 29L33 29L33 28L32 28L32 30L33 30L33 31L32 31L32 33L31 33L31 34L32 34L32 33L33 33L33 35L34 35L34 36L35 36L35 35L36 35L36 33L35 33L35 31L34 31L34 29L35 29L35 30L37 30L37 31L38 31L38 30L37 30L37 28L38 28L38 29L39 29L39 26L38 26L38 25L37 25L37 24L36 24L36 23L37 23L37 22L38 22L38 23L39 23L39 22L38 22L38 21L37 21L37 19L36 19L36 18ZM9 19L9 20L10 20L10 21L11 21L11 20L10 20L10 19ZM14 19L14 20L15 20L15 19ZM21 19L21 21L22 21L22 19ZM24 19L24 20L25 20L25 19ZM44 19L44 21L43 21L43 22L44 22L44 23L43 23L43 24L44 24L44 23L45 23L45 22L46 22L46 21L45 21L45 19ZM4 20L4 21L5 21L5 20ZM36 21L36 22L35 22L35 23L36 23L36 22L37 22L37 21ZM44 21L44 22L45 22L45 21ZM22 22L22 24L23 24L23 22ZM24 22L24 23L25 23L25 22ZM6 24L6 25L7 25L7 24ZM8 24L8 25L9 25L9 24ZM27 24L27 25L26 25L26 26L28 26L28 24ZM30 24L30 25L31 25L31 24ZM24 25L24 26L25 26L25 25ZM5 27L5 30L8 30L8 27ZM16 27L16 28L17 28L17 27ZM22 27L22 28L23 28L23 29L22 29L22 30L23 30L23 31L24 31L24 34L26 34L26 35L28 35L28 34L29 34L29 32L26 32L26 30L25 30L25 29L24 29L24 27ZM27 27L27 30L30 30L30 27ZM49 27L49 30L52 30L52 27ZM3 28L3 29L4 29L4 28ZM6 28L6 29L7 29L7 28ZM28 28L28 29L29 29L29 28ZM50 28L50 29L51 29L51 28ZM20 29L20 30L21 30L21 29ZM23 29L23 30L24 30L24 29ZM15 30L15 31L16 31L16 32L17 32L17 31L16 31L16 30ZM33 31L33 33L34 33L34 35L35 35L35 33L34 33L34 31ZM26 33L26 34L28 34L28 33ZM11 34L11 35L9 35L9 36L11 36L11 35L12 35L12 34ZM18 34L18 36L17 36L17 35L16 35L16 36L15 36L15 40L16 40L16 43L17 43L17 39L16 39L16 38L19 38L19 37L18 37L18 36L20 36L20 35L19 35L19 34ZM46 34L46 37L48 37L48 36L49 36L49 37L50 37L50 36L49 36L49 35L48 35L48 34ZM47 35L47 36L48 36L48 35ZM16 36L16 37L17 37L17 36ZM31 36L31 37L32 37L32 36ZM41 36L41 37L42 37L42 36ZM55 36L55 37L56 37L56 36ZM3 37L3 39L4 39L4 38L5 38L5 37ZM35 37L35 38L36 38L36 37ZM38 37L38 39L37 39L37 41L38 41L38 39L40 39L40 38L39 38L39 37ZM20 38L20 39L21 39L21 38ZM28 38L28 39L29 39L29 38ZM48 38L48 40L47 40L47 41L48 41L48 40L49 40L49 38ZM18 39L18 40L19 40L19 41L20 41L20 40L19 40L19 39ZM39 40L39 41L40 41L40 40ZM51 40L51 41L49 41L49 42L50 42L50 47L51 47L51 44L52 44L52 40ZM8 41L8 42L6 42L6 43L8 43L8 44L9 44L9 41ZM53 41L53 44L54 44L54 43L55 43L55 42L54 42L54 41ZM18 43L18 44L19 44L19 43ZM22 43L22 44L24 44L24 43ZM3 45L3 47L5 47L5 46L4 46L4 45ZM6 45L6 46L7 46L7 45ZM15 45L15 46L10 46L10 47L11 47L11 48L12 48L12 49L13 49L13 47L14 47L14 49L15 49L15 50L13 50L13 52L15 52L15 50L16 50L16 51L17 51L17 50L16 50L16 49L17 49L17 47L16 47L16 45ZM18 45L18 46L19 46L19 45ZM1 46L1 47L2 47L2 46ZM15 47L15 49L16 49L16 47ZM37 47L37 48L36 48L36 49L37 49L37 51L38 51L38 47ZM19 48L19 49L20 49L20 48ZM27 49L27 52L30 52L30 49ZM49 49L49 52L52 52L52 49ZM28 50L28 51L29 51L29 50ZM50 50L50 51L51 51L51 50ZM8 51L8 52L9 52L9 51ZM47 51L47 52L48 52L48 51ZM18 52L18 53L19 53L19 52ZM39 52L39 53L40 53L40 52ZM45 52L45 53L46 53L46 54L47 54L47 55L46 55L46 56L47 56L47 55L48 55L48 54L49 54L49 53L48 53L48 54L47 54L47 53L46 53L46 52ZM13 53L13 54L14 54L14 53ZM31 53L31 54L30 54L30 55L33 55L33 54L32 54L32 53ZM16 54L16 55L17 55L17 54ZM20 54L20 55L21 55L21 54ZM53 54L53 55L54 55L54 54ZM36 56L36 57L37 57L37 56ZM56 56L56 57L57 57L57 56ZM0 0L0 7L7 7L7 0ZM1 1L1 6L6 6L6 1ZM2 2L2 5L5 5L5 2ZM50 0L50 7L57 7L57 0ZM51 1L51 6L56 6L56 1ZM52 2L52 5L55 5L55 2ZM0 50L0 57L7 57L7 50ZM1 51L1 56L6 56L6 51ZM2 52L2 55L5 55L5 52Z" fill="#000000"/></g></g></svg>
