<?xml version="1.0" encoding="UTF-8"?>
<svg xmlns="http://www.w3.org/2000/svg" version="1.1" width="300" height="300" viewBox="0 0 300 300"><rect x="0" y="0" width="300" height="300" fill="#fefefe"/><g transform="scale(4.615)"><g transform="translate(4,4)"><path fill-rule="evenodd" d="M8 0L8 2L9 2L9 4L8 4L8 9L7 9L7 8L5 8L5 9L7 9L7 10L6 10L6 11L7 11L7 10L10 10L10 11L8 11L8 12L6 12L6 13L5 13L5 14L6 14L6 15L4 15L4 12L3 12L3 11L4 11L4 9L3 9L3 8L0 8L0 10L1 10L1 12L3 12L3 15L1 15L1 14L2 14L2 13L0 13L0 17L2 17L2 18L1 18L1 19L0 19L0 20L1 20L1 21L0 21L0 23L1 23L1 24L0 24L0 26L1 26L1 27L0 27L0 30L2 30L2 31L3 31L3 33L2 33L2 34L0 34L0 38L1 38L1 39L0 39L0 40L1 40L1 39L3 39L3 40L2 40L2 42L1 42L1 41L0 41L0 48L5 48L5 47L7 47L7 48L6 48L6 49L7 49L7 48L8 48L8 47L7 47L7 46L8 46L8 45L9 45L9 43L8 43L8 44L5 44L5 45L4 45L4 44L3 44L3 45L2 45L2 44L1 44L1 43L2 43L2 42L3 42L3 43L4 43L4 41L5 41L5 42L6 42L6 43L7 43L7 42L6 42L6 41L7 41L7 40L6 40L6 39L9 39L9 40L8 40L8 42L9 42L9 41L10 41L10 40L12 40L12 41L11 41L11 43L12 43L12 44L11 44L11 45L10 45L10 46L11 46L11 47L12 47L12 46L13 46L13 47L14 47L14 46L16 46L16 47L17 47L17 48L14 48L14 50L15 50L15 51L16 51L16 52L15 52L15 53L14 53L14 54L15 54L15 55L14 55L14 56L15 56L15 57L17 57L17 56L18 56L18 57L20 57L20 56L18 56L18 53L19 53L19 52L20 52L20 53L21 53L21 52L22 52L22 54L23 54L23 55L22 55L22 57L25 57L25 55L26 55L26 57L28 57L28 55L29 55L29 57L33 57L33 55L34 55L34 57L35 57L35 55L37 55L37 54L36 54L36 53L37 53L37 51L38 51L38 53L39 53L39 56L40 56L40 57L42 57L42 56L43 56L43 54L42 54L42 53L41 53L41 51L43 51L43 52L44 52L44 55L45 55L45 56L44 56L44 57L47 57L47 56L48 56L48 57L50 57L50 55L49 55L49 54L52 54L52 55L53 55L53 56L51 56L51 57L54 57L54 55L57 55L57 54L55 54L55 52L56 52L56 51L57 51L57 50L56 50L56 51L55 51L55 52L54 52L54 51L53 51L53 50L54 50L54 47L55 47L55 49L56 49L56 47L57 47L57 45L56 45L56 47L55 47L55 45L54 45L54 46L52 46L52 45L53 45L53 44L54 44L54 43L55 43L55 44L56 44L56 43L57 43L57 42L56 42L56 41L57 41L57 40L55 40L55 42L54 42L54 38L57 38L57 34L56 34L56 37L55 37L55 36L54 36L54 34L53 34L53 36L51 36L51 33L50 33L50 31L51 31L51 32L52 32L52 31L53 31L53 32L54 32L54 33L56 33L56 31L57 31L57 24L56 24L56 23L57 23L57 18L56 18L56 23L55 23L55 21L54 21L54 19L55 19L55 16L56 16L56 17L57 17L57 13L56 13L56 15L55 15L55 16L54 16L54 15L53 15L53 16L52 16L52 14L53 14L53 12L54 12L54 11L55 11L55 9L57 9L57 8L55 8L55 9L54 9L54 10L53 10L53 8L49 8L49 6L48 6L48 7L47 7L47 5L48 5L48 0L42 0L42 1L41 1L41 0L38 0L38 2L37 2L37 1L35 1L35 0L34 0L34 8L32 8L32 9L31 9L31 5L32 5L32 2L33 2L33 0L30 0L30 2L29 2L29 0L28 0L28 2L27 2L27 0L24 0L24 1L23 1L23 0L19 0L19 1L20 1L20 3L21 3L21 5L20 5L20 7L19 7L19 5L18 5L18 3L19 3L19 2L18 2L18 1L17 1L17 0L16 0L16 2L17 2L17 4L16 4L16 3L15 3L15 0L13 0L13 1L12 1L12 0L11 0L11 1L10 1L10 2L9 2L9 0ZM11 1L11 3L10 3L10 4L11 4L11 5L9 5L9 9L10 9L10 10L11 10L11 11L10 11L10 12L12 12L12 13L10 13L10 14L9 14L9 12L8 12L8 13L6 13L6 14L7 14L7 15L6 15L6 16L8 16L8 17L9 17L9 18L7 18L7 17L5 17L5 19L4 19L4 18L3 18L3 19L2 19L2 22L1 22L1 23L2 23L2 24L1 24L1 26L2 26L2 24L3 24L3 23L6 23L6 24L7 24L7 23L8 23L8 25L6 25L6 26L9 26L9 28L10 28L10 27L11 27L11 28L12 28L12 29L9 29L9 30L11 30L11 31L10 31L10 32L11 32L11 33L8 33L8 31L6 31L6 32L5 32L5 31L4 31L4 32L5 32L5 33L4 33L4 35L5 35L5 36L4 36L4 37L5 37L5 39L6 39L6 38L8 38L8 37L9 37L9 39L10 39L10 38L11 38L11 35L10 35L10 34L11 34L11 33L12 33L12 34L13 34L13 35L12 35L12 36L14 36L14 37L12 37L12 38L13 38L13 39L14 39L14 41L12 41L12 43L13 43L13 44L12 44L12 45L13 45L13 46L14 46L14 45L16 45L16 46L17 46L17 47L18 47L18 48L17 48L17 49L16 49L16 51L17 51L17 53L18 53L18 50L19 50L19 51L20 51L20 50L21 50L21 51L22 51L22 52L24 52L24 51L25 51L25 53L26 53L26 55L28 55L28 53L26 53L26 50L25 50L25 48L24 48L24 47L25 47L25 46L26 46L26 48L28 48L28 46L29 46L29 47L30 47L30 48L31 48L31 52L32 52L32 51L33 51L33 50L32 50L32 48L31 48L31 47L33 47L33 49L34 49L34 50L35 50L35 51L34 51L34 52L35 52L35 53L34 53L34 54L35 54L35 53L36 53L36 52L35 52L35 51L37 51L37 49L36 49L36 48L37 48L37 47L38 47L38 51L39 51L39 49L40 49L40 51L41 51L41 49L42 49L42 50L44 50L44 51L46 51L46 50L47 50L47 46L48 46L48 45L47 45L47 44L48 44L48 43L49 43L49 44L50 44L50 42L49 42L49 41L51 41L51 40L48 40L48 39L49 39L49 38L48 38L48 37L49 37L49 36L50 36L50 33L49 33L49 36L48 36L48 37L46 37L46 38L47 38L47 40L45 40L45 41L44 41L44 42L43 42L43 41L42 41L42 39L43 39L43 38L44 38L44 35L43 35L43 33L42 33L42 31L43 31L43 28L42 28L42 31L41 31L41 30L40 30L40 27L41 27L41 26L40 26L40 23L41 23L41 24L42 24L42 27L44 27L44 26L45 26L45 25L44 25L44 24L45 24L45 23L47 23L47 24L48 24L48 22L50 22L50 23L49 23L49 24L50 24L50 26L53 26L53 25L52 25L52 24L53 24L53 23L54 23L54 26L55 26L55 27L54 27L54 28L53 28L53 29L54 29L54 30L55 30L55 31L54 31L54 32L55 32L55 31L56 31L56 30L55 30L55 29L56 29L56 24L55 24L55 23L54 23L54 22L52 22L52 20L53 20L53 19L54 19L54 16L53 16L53 18L51 18L51 17L52 17L52 16L51 16L51 14L52 14L52 13L50 13L50 11L51 11L51 12L52 12L52 11L53 11L53 10L52 10L52 9L48 9L48 8L46 8L46 5L47 5L47 3L46 3L46 5L44 5L44 4L45 4L45 1L42 1L42 4L43 4L43 5L44 5L44 6L43 6L43 7L42 7L42 6L41 6L41 2L40 2L40 1L39 1L39 2L38 2L38 4L37 4L37 2L35 2L35 3L36 3L36 4L35 4L35 9L34 9L34 10L33 10L33 9L32 9L32 11L31 11L31 12L30 12L30 11L29 11L29 12L30 12L30 13L29 13L29 15L28 15L28 14L27 14L27 12L28 12L28 9L27 9L27 10L25 10L25 9L26 9L26 5L24 5L24 6L23 6L23 5L22 5L22 6L21 6L21 9L20 9L20 11L18 11L18 12L19 12L19 13L18 13L18 14L19 14L19 13L20 13L20 14L22 14L22 16L23 16L23 15L24 15L24 18L25 18L25 19L24 19L24 20L25 20L25 19L26 19L26 20L27 20L27 22L26 22L26 23L27 23L27 22L28 22L28 24L27 24L27 25L26 25L26 26L29 26L29 25L28 25L28 24L29 24L29 23L31 23L31 24L30 24L30 26L31 26L31 25L32 25L32 27L31 27L31 30L33 30L33 29L34 29L34 31L35 31L35 33L34 33L34 32L33 32L33 31L32 31L32 32L30 32L30 31L27 31L27 33L28 33L28 34L26 34L26 33L25 33L25 31L26 31L26 30L25 30L25 29L24 29L24 28L25 28L25 25L24 25L24 27L22 27L22 28L23 28L23 29L22 29L22 30L21 30L21 29L20 29L20 26L21 26L21 23L22 23L22 24L23 24L23 22L21 22L21 21L22 21L22 19L23 19L23 18L22 18L22 19L20 19L20 20L19 20L19 22L18 22L18 23L17 23L17 22L16 22L16 23L17 23L17 25L16 25L16 26L17 26L17 27L16 27L16 28L15 28L15 30L18 30L18 32L19 32L19 34L20 34L20 36L21 36L21 38L20 38L20 39L21 39L21 38L22 38L22 36L23 36L23 41L22 41L22 40L21 40L21 41L20 41L20 40L19 40L19 37L18 37L18 36L19 36L19 35L18 35L18 34L17 34L17 31L16 31L16 32L15 32L15 34L14 34L14 33L12 33L12 29L13 29L13 31L14 31L14 28L13 28L13 27L11 27L11 25L10 25L10 22L11 22L11 23L12 23L12 26L14 26L14 27L15 27L15 25L14 25L14 24L15 24L15 21L14 21L14 24L13 24L13 23L12 23L12 22L11 22L11 20L10 20L10 19L11 19L11 16L13 16L13 18L12 18L12 19L13 19L13 18L14 18L14 16L17 16L17 17L16 17L16 18L15 18L15 19L14 19L14 20L16 20L16 18L18 18L18 19L19 19L19 17L20 17L20 18L21 18L21 17L20 17L20 16L21 16L21 15L20 15L20 16L19 16L19 17L18 17L18 15L15 15L15 14L17 14L17 12L16 12L16 10L17 10L17 9L18 9L18 8L19 8L19 7L18 7L18 6L17 6L17 5L16 5L16 6L15 6L15 5L12 5L12 4L13 4L13 3L14 3L14 4L15 4L15 3L14 3L14 1L13 1L13 2L12 2L12 1ZM22 1L22 2L23 2L23 1ZM24 1L24 4L25 4L25 1ZM31 1L31 2L30 2L30 3L29 3L29 2L28 2L28 4L30 4L30 3L31 3L31 2L32 2L32 1ZM46 1L46 2L47 2L47 1ZM39 2L39 4L38 4L38 5L39 5L39 4L40 4L40 2ZM43 2L43 4L44 4L44 2ZM11 3L11 4L12 4L12 3ZM22 3L22 4L23 4L23 3ZM26 3L26 4L27 4L27 3ZM27 5L27 8L30 8L30 5ZM10 6L10 8L11 8L11 9L12 9L12 10L14 10L14 9L15 9L15 8L14 8L14 7L15 7L15 6L14 6L14 7L13 7L13 6L12 6L12 7L13 7L13 8L14 8L14 9L12 9L12 8L11 8L11 6ZM16 6L16 7L17 7L17 8L18 8L18 7L17 7L17 6ZM22 6L22 7L23 7L23 6ZM24 6L24 7L25 7L25 6ZM28 6L28 7L29 7L29 6ZM32 6L32 7L33 7L33 6ZM36 6L36 10L34 10L34 11L32 11L32 13L31 13L31 14L32 14L32 13L33 13L33 15L34 15L34 17L33 17L33 16L32 16L32 15L31 15L31 16L30 16L30 15L29 15L29 16L30 16L30 17L28 17L28 18L30 18L30 17L31 17L31 16L32 16L32 18L31 18L31 19L30 19L30 20L28 20L28 19L27 19L27 18L26 18L26 17L27 17L27 16L26 16L26 15L27 15L27 14L26 14L26 15L25 15L25 16L26 16L26 17L25 17L25 18L26 18L26 19L27 19L27 20L28 20L28 22L30 22L30 21L31 21L31 20L32 20L32 21L33 21L33 22L31 22L31 23L32 23L32 25L33 25L33 26L34 26L34 24L36 24L36 26L37 26L37 28L36 28L36 29L35 29L35 27L34 27L34 29L35 29L35 30L37 30L37 31L36 31L36 33L35 33L35 35L32 35L32 34L30 34L30 32L29 32L29 34L28 34L28 35L27 35L27 36L28 36L28 37L29 37L29 36L28 36L28 35L31 35L31 36L30 36L30 41L31 41L31 38L33 38L33 39L34 39L34 41L33 41L33 40L32 40L32 43L31 43L31 42L30 42L30 43L28 43L28 40L27 40L27 39L26 39L26 40L25 40L25 41L26 41L26 42L24 42L24 43L22 43L22 44L23 44L23 47L24 47L24 43L25 43L25 45L26 45L26 46L27 46L27 43L28 43L28 44L30 44L30 43L31 43L31 46L30 46L30 47L31 47L31 46L32 46L32 45L33 45L33 47L34 47L34 45L33 45L33 44L35 44L35 43L36 43L36 41L37 41L37 42L38 42L38 41L39 41L39 42L40 42L40 43L37 43L37 44L36 44L36 45L35 45L35 46L36 46L36 47L37 47L37 46L38 46L38 45L37 45L37 44L40 44L40 45L39 45L39 47L40 47L40 49L41 49L41 47L42 47L42 45L43 45L43 44L44 44L44 45L45 45L45 46L44 46L44 49L45 49L45 50L46 50L46 49L45 49L45 48L46 48L46 44L47 44L47 42L46 42L46 41L45 41L45 44L44 44L44 43L43 43L43 42L42 42L42 41L41 41L41 40L40 40L40 41L39 41L39 38L40 38L40 39L41 39L41 36L42 36L42 37L43 37L43 36L42 36L42 35L40 35L40 36L39 36L39 34L38 34L38 33L39 33L39 32L40 32L40 34L42 34L42 33L41 33L41 32L40 32L40 30L39 30L39 31L38 31L38 30L37 30L37 28L38 28L38 29L39 29L39 27L40 27L40 26L38 26L38 25L39 25L39 23L38 23L38 25L37 25L37 24L36 24L36 23L37 23L37 22L38 22L38 20L39 20L39 19L40 19L40 22L41 22L41 23L42 23L42 24L43 24L43 22L44 22L44 23L45 23L45 22L44 22L44 21L45 21L45 20L46 20L46 21L47 21L47 22L48 22L48 20L51 20L51 18L50 18L50 17L49 17L49 16L50 16L50 13L49 13L49 14L48 14L48 11L49 11L49 10L48 10L48 9L47 9L47 10L48 10L48 11L46 11L46 8L44 8L44 7L45 7L45 6L44 6L44 7L43 7L43 8L42 8L42 7L41 7L41 6L40 6L40 7L41 7L41 8L40 8L40 9L41 9L41 10L42 10L42 12L41 12L41 11L38 11L38 9L39 9L39 6L38 6L38 7L37 7L37 6ZM22 8L22 9L23 9L23 10L24 10L24 9L25 9L25 8ZM37 8L37 9L38 9L38 8ZM43 8L43 9L42 9L42 10L43 10L43 11L44 11L44 12L42 12L42 15L41 15L41 17L42 17L42 18L43 18L43 17L44 17L44 19L41 19L41 18L40 18L40 14L39 14L39 13L40 13L40 12L37 12L37 11L36 11L36 12L35 12L35 11L34 11L34 12L35 12L35 13L34 13L34 15L35 15L35 17L34 17L34 18L36 18L36 19L37 19L37 18L36 18L36 14L37 14L37 13L38 13L38 15L37 15L37 16L38 16L38 18L40 18L40 19L41 19L41 20L42 20L42 22L43 22L43 21L44 21L44 19L46 19L46 18L47 18L47 16L46 16L46 15L48 15L48 14L47 14L47 13L46 13L46 11L45 11L45 10L44 10L44 8ZM30 9L30 10L31 10L31 9ZM56 10L56 11L57 11L57 10ZM12 11L12 12L13 12L13 11ZM14 11L14 12L15 12L15 11ZM22 11L22 12L24 12L24 13L23 13L23 14L24 14L24 13L26 13L26 11ZM20 12L20 13L21 13L21 12ZM36 12L36 13L37 13L37 12ZM44 12L44 13L43 13L43 16L44 16L44 17L45 17L45 18L46 18L46 16L44 16L44 15L46 15L46 13L45 13L45 12ZM12 13L12 14L13 14L13 16L14 16L14 14L13 14L13 13ZM54 13L54 14L55 14L55 13ZM8 14L8 16L9 16L9 17L10 17L10 16L11 16L11 15L10 15L10 16L9 16L9 14ZM3 15L3 16L2 16L2 17L4 17L4 15ZM48 17L48 19L47 19L47 20L48 20L48 19L50 19L50 18L49 18L49 17ZM6 18L6 19L7 19L7 20L5 20L5 21L4 21L4 22L5 22L5 21L7 21L7 22L6 22L6 23L7 23L7 22L8 22L8 23L9 23L9 22L10 22L10 20L9 20L9 22L8 22L8 19L7 19L7 18ZM9 18L9 19L10 19L10 18ZM32 18L32 19L33 19L33 20L34 20L34 22L35 22L35 23L36 23L36 22L37 22L37 21L36 21L36 20L34 20L34 19L33 19L33 18ZM20 20L20 21L21 21L21 20ZM35 21L35 22L36 22L36 21ZM2 22L2 23L3 23L3 22ZM20 22L20 23L21 23L21 22ZM24 22L24 23L25 23L25 22ZM51 22L51 23L52 23L52 22ZM18 23L18 26L19 26L19 23ZM33 23L33 24L34 24L34 23ZM4 24L4 25L3 25L3 27L1 27L1 28L3 28L3 29L4 29L4 25L5 25L5 24ZM43 25L43 26L44 26L44 25ZM46 25L46 26L47 26L47 25ZM48 25L48 26L49 26L49 25ZM5 27L5 30L8 30L8 27ZM18 27L18 28L19 28L19 27ZM27 27L27 30L30 30L30 27ZM49 27L49 30L52 30L52 27ZM6 28L6 29L7 29L7 28ZM28 28L28 29L29 29L29 28ZM32 28L32 29L33 29L33 28ZM46 28L46 29L44 29L44 31L45 31L45 32L46 32L46 31L47 31L47 28ZM50 28L50 29L51 29L51 28ZM19 29L19 32L21 32L21 31L20 31L20 29ZM23 29L23 30L22 30L22 33L23 33L23 34L21 34L21 35L25 35L25 36L24 36L24 37L25 37L25 36L26 36L26 35L25 35L25 34L24 34L24 32L23 32L23 30L24 30L24 31L25 31L25 30L24 30L24 29ZM45 30L45 31L46 31L46 30ZM37 31L37 32L38 32L38 31ZM0 32L0 33L1 33L1 32ZM6 32L6 33L5 33L5 35L7 35L7 36L6 36L6 37L8 37L8 35L7 35L7 34L8 34L8 33L7 33L7 32ZM32 32L32 33L33 33L33 32ZM6 33L6 34L7 34L7 33ZM36 33L36 35L35 35L35 36L33 36L33 37L34 37L34 38L35 38L35 41L34 41L34 42L35 42L35 41L36 41L36 38L37 38L37 41L38 41L38 38L39 38L39 36L38 36L38 34L37 34L37 33ZM46 33L46 34L45 34L45 36L47 36L47 35L46 35L46 34L48 34L48 33ZM2 34L2 35L1 35L1 38L2 38L2 37L3 37L3 36L2 36L2 35L3 35L3 34ZM9 35L9 36L10 36L10 35ZM17 35L17 36L16 36L16 37L17 37L17 38L16 38L16 39L18 39L18 37L17 37L17 36L18 36L18 35ZM36 35L36 37L35 37L35 38L36 38L36 37L37 37L37 38L38 38L38 36L37 36L37 35ZM31 36L31 37L32 37L32 36ZM53 36L53 37L52 37L52 38L51 38L51 37L50 37L50 38L51 38L51 39L52 39L52 38L54 38L54 36ZM24 38L24 39L25 39L25 38ZM28 38L28 39L29 39L29 38ZM16 40L16 41L14 41L14 42L13 42L13 43L14 43L14 44L13 44L13 45L14 45L14 44L16 44L16 45L17 45L17 46L18 46L18 47L19 47L19 48L18 48L18 49L17 49L17 50L18 50L18 49L19 49L19 50L20 50L20 49L21 49L21 48L22 48L22 51L24 51L24 49L23 49L23 48L22 48L22 46L21 46L21 47L20 47L20 45L21 45L21 43L20 43L20 41L19 41L19 40L18 40L18 42L16 42L16 41L17 41L17 40ZM47 40L47 41L48 41L48 40ZM52 40L52 44L53 44L53 40ZM14 42L14 43L16 43L16 42ZM41 42L41 45L40 45L40 47L41 47L41 45L42 45L42 44L43 44L43 43L42 43L42 42ZM55 42L55 43L56 43L56 42ZM18 43L18 44L20 44L20 43ZM1 45L1 47L2 47L2 45ZM3 45L3 47L5 47L5 46L4 46L4 45ZM6 45L6 46L7 46L7 45ZM18 45L18 46L19 46L19 45ZM36 45L36 46L37 46L37 45ZM50 45L50 46L51 46L51 45ZM51 47L51 48L52 48L52 47ZM10 48L10 49L8 49L8 50L9 50L9 51L8 51L8 52L9 52L9 54L8 54L8 57L9 57L9 54L11 54L11 53L10 53L10 52L11 52L11 51L10 51L10 50L12 50L12 49L13 49L13 48ZM27 49L27 52L30 52L30 49ZM49 49L49 52L52 52L52 49ZM28 50L28 51L29 51L29 50ZM50 50L50 51L51 51L51 50ZM9 51L9 52L10 52L10 51ZM12 51L12 52L14 52L14 51ZM47 51L47 52L46 52L46 54L45 54L45 55L46 55L46 56L47 56L47 55L48 55L48 56L49 56L49 55L48 55L48 54L49 54L49 53L47 53L47 52L48 52L48 51ZM39 52L39 53L40 53L40 52ZM31 53L31 54L30 54L30 55L33 55L33 54L32 54L32 53ZM53 53L53 54L54 54L54 53ZM12 54L12 56L11 56L11 57L13 57L13 54ZM16 54L16 55L17 55L17 54ZM20 54L20 55L21 55L21 54ZM24 54L24 55L25 55L25 54ZM40 54L40 56L42 56L42 54ZM46 54L46 55L47 55L47 54ZM36 56L36 57L37 57L37 56ZM56 56L56 57L57 57L57 56ZM0 0L0 7L7 7L7 0ZM1 1L1 6L6 6L6 1ZM2 2L2 5L5 5L5 2ZM50 0L50 7L57 7L57 0ZM51 1L51 6L56 6L56 1ZM52 2L52 5L55 5L55 2ZM0 50L0 57L7 57L7 50ZM1 51L1 56L6 56L6 51ZM2 52L2 55L5 55L5 52Z" fill="#000000"/></g></g></svg>
