<?xml version="1.0" encoding="UTF-8"?>
<svg xmlns="http://www.w3.org/2000/svg" version="1.1" width="300" height="300" viewBox="0 0 300 300"><rect x="0" y="0" width="300" height="300" fill="#fefefe"/><g transform="scale(4.615)"><g transform="translate(4,4)"><path fill-rule="evenodd" d="M9 0L9 1L8 1L8 2L9 2L9 3L8 3L8 4L10 4L10 5L8 5L8 7L9 7L9 8L6 8L6 9L8 9L8 11L7 11L7 10L6 10L6 11L7 11L7 12L5 12L5 8L0 8L0 10L1 10L1 11L0 11L0 13L1 13L1 12L3 12L3 11L4 11L4 12L5 12L5 13L4 13L4 14L3 14L3 13L2 13L2 14L1 14L1 16L0 16L0 17L1 17L1 18L2 18L2 19L1 19L1 20L2 20L2 21L0 21L0 24L1 24L1 22L2 22L2 23L4 23L4 24L5 24L5 23L9 23L9 24L8 24L8 25L7 25L7 24L6 24L6 25L7 25L7 26L5 26L5 25L3 25L3 24L2 24L2 26L0 26L0 27L2 27L2 26L3 26L3 28L2 28L2 29L4 29L4 31L3 31L3 30L2 30L2 32L0 32L0 37L1 37L1 39L3 39L3 40L4 40L4 39L3 39L3 38L4 38L4 37L5 37L5 41L3 41L3 42L5 42L5 41L7 41L7 42L6 42L6 43L5 43L5 44L6 44L6 45L4 45L4 44L3 44L3 43L2 43L2 45L1 45L1 43L0 43L0 45L1 45L1 46L0 46L0 48L5 48L5 47L7 47L7 48L6 48L6 49L7 49L7 48L10 48L10 47L9 47L9 45L8 45L8 44L6 44L6 43L7 43L7 42L9 42L9 44L10 44L10 46L11 46L11 48L12 48L12 49L13 49L13 50L12 50L12 53L11 53L11 54L10 54L10 55L9 55L9 53L10 53L10 51L11 51L11 49L8 49L8 51L9 51L9 52L8 52L8 57L9 57L9 56L10 56L10 57L11 57L11 56L12 56L12 55L11 55L11 54L14 54L14 55L16 55L16 56L13 56L13 57L16 57L16 56L17 56L17 57L19 57L19 55L20 55L20 54L19 54L19 55L17 55L17 53L20 53L20 52L21 52L21 53L22 53L22 55L23 55L23 57L26 57L26 56L24 56L24 55L23 55L23 54L24 54L24 53L25 53L25 55L26 55L26 54L30 54L30 53L31 53L31 49L32 49L32 50L33 50L33 51L32 51L32 52L33 52L33 53L32 53L32 54L31 54L31 56L30 56L30 55L29 55L29 56L27 56L27 57L29 57L29 56L30 56L30 57L31 57L31 56L35 56L35 57L39 57L39 56L37 56L37 54L38 54L38 55L41 55L41 57L44 57L44 56L42 56L42 55L44 55L44 54L45 54L45 55L46 55L46 54L45 54L45 53L44 53L44 52L45 52L45 51L46 51L46 52L47 52L47 51L46 51L46 50L44 50L44 51L43 51L43 49L44 49L44 48L45 48L45 49L47 49L47 50L48 50L48 54L47 54L47 55L48 55L48 56L47 56L47 57L48 57L48 56L50 56L50 57L52 57L52 55L51 55L51 53L52 53L52 54L53 54L53 57L54 57L54 56L55 56L55 57L56 57L56 56L55 56L55 54L54 54L54 53L55 53L55 52L57 52L57 51L56 51L56 50L55 50L55 49L54 49L54 48L56 48L56 49L57 49L57 48L56 48L56 46L57 46L57 45L56 45L56 44L55 44L55 43L56 43L56 41L55 41L55 39L57 39L57 37L56 37L56 36L57 36L57 35L56 35L56 34L57 34L57 32L56 32L56 30L57 30L57 29L54 29L54 28L56 28L56 26L57 26L57 25L56 25L56 22L57 22L57 20L55 20L55 19L56 19L56 18L57 18L57 17L56 17L56 16L57 16L57 15L56 15L56 14L57 14L57 11L56 11L56 8L55 8L55 10L54 10L54 11L53 11L53 10L52 10L52 11L51 11L51 10L50 10L50 8L49 8L49 6L48 6L48 7L47 7L47 5L48 5L48 0L46 0L46 1L47 1L47 2L44 2L44 3L41 3L41 2L43 2L43 0L41 0L41 1L40 1L40 0L39 0L39 1L38 1L38 0L37 0L37 1L38 1L38 3L41 3L41 4L40 4L40 5L39 5L39 6L38 6L38 4L37 4L37 3L36 3L36 0L35 0L35 1L33 1L33 0L32 0L32 1L31 1L31 0L28 0L28 1L26 1L26 0L23 0L23 2L28 2L28 3L30 3L30 4L26 4L26 3L23 3L23 4L22 4L22 3L21 3L21 4L19 4L19 2L16 2L16 3L17 3L17 5L20 5L20 7L19 7L19 6L18 6L18 7L17 7L17 6L16 6L16 7L15 7L15 5L16 5L16 4L15 4L15 5L14 5L14 8L11 8L11 6L12 6L12 7L13 7L13 4L14 4L14 2L15 2L15 0L14 0L14 2L13 2L13 4L11 4L11 3L12 3L12 0L11 0L11 1L10 1L10 0ZM18 0L18 1L20 1L20 2L21 2L21 1L22 1L22 0L21 0L21 1L20 1L20 0ZM31 2L31 3L32 3L32 4L31 4L31 8L32 8L32 10L28 10L28 11L29 11L29 12L28 12L28 13L26 13L26 12L27 12L27 11L26 11L26 12L25 12L25 10L24 10L24 9L25 9L25 8L26 8L26 4L25 4L25 8L24 8L24 6L23 6L23 5L24 5L24 4L23 4L23 5L22 5L22 4L21 4L21 5L22 5L22 6L21 6L21 7L22 7L22 6L23 6L23 8L20 8L20 10L19 10L19 11L22 11L22 10L23 10L23 11L24 11L24 12L23 12L23 13L22 13L22 12L20 12L20 14L21 14L21 13L22 13L22 14L23 14L23 15L19 15L19 16L20 16L20 18L18 18L18 17L15 17L15 16L14 16L14 17L13 17L13 16L12 16L12 14L11 14L11 15L10 15L10 14L9 14L9 15L6 15L6 14L8 14L8 13L9 13L9 12L8 12L8 13L5 13L5 15L4 15L4 16L3 16L3 14L2 14L2 16L3 16L3 17L2 17L2 18L4 18L4 19L6 19L6 20L3 20L3 21L2 21L2 22L3 22L3 21L4 21L4 22L7 22L7 21L8 21L8 22L9 22L9 23L10 23L10 22L9 22L9 20L7 20L7 19L6 19L6 18L8 18L8 17L9 17L9 18L10 18L10 20L11 20L11 23L12 23L12 20L11 20L11 18L10 18L10 17L9 17L9 16L11 16L11 17L12 17L12 19L14 19L14 20L13 20L13 21L14 21L14 22L13 22L13 23L14 23L14 22L16 22L16 21L17 21L17 22L20 22L20 23L19 23L19 25L17 25L17 24L18 24L18 23L17 23L17 24L16 24L16 23L15 23L15 24L12 24L12 25L11 25L11 24L9 24L9 25L8 25L8 26L9 26L9 28L10 28L10 29L9 29L9 30L10 30L10 29L11 29L11 31L10 31L10 32L11 32L11 33L12 33L12 32L11 32L11 31L12 31L12 29L13 29L13 30L15 30L15 29L16 29L16 30L17 30L17 31L20 31L20 34L19 34L19 33L18 33L18 34L17 34L17 32L16 32L16 33L13 33L13 35L12 35L12 34L9 34L9 33L8 33L8 32L7 32L7 31L5 31L5 32L3 32L3 33L5 33L5 35L4 35L4 34L3 34L3 35L2 35L2 34L1 34L1 37L2 37L2 36L3 36L3 37L4 37L4 36L5 36L5 35L6 35L6 36L7 36L7 35L6 35L6 34L9 34L9 35L8 35L8 36L13 36L13 35L14 35L14 34L15 34L15 35L16 35L16 36L14 36L14 37L13 37L13 38L14 38L14 37L16 37L16 38L15 38L15 39L16 39L16 40L15 40L15 41L14 41L14 42L13 42L13 40L14 40L14 39L12 39L12 37L10 37L10 40L9 40L9 42L10 42L10 43L12 43L12 44L11 44L11 45L12 45L12 46L13 46L13 45L15 45L15 46L16 46L16 47L12 47L12 48L14 48L14 50L15 50L15 49L16 49L16 50L17 50L17 51L16 51L16 53L15 53L15 54L16 54L16 53L17 53L17 51L18 51L18 50L19 50L19 51L22 51L22 53L24 53L24 52L26 52L26 51L25 51L25 50L21 50L21 49L23 49L23 48L24 48L24 49L26 49L26 48L28 48L28 46L29 46L29 44L30 44L30 45L32 45L32 46L35 46L35 45L34 45L34 43L35 43L35 44L36 44L36 43L37 43L37 42L35 42L35 40L38 40L38 42L39 42L39 43L40 43L40 44L39 44L39 45L38 45L38 46L39 46L39 47L38 47L38 48L37 48L37 49L38 49L38 50L36 50L36 49L33 49L33 48L36 48L36 47L37 47L37 46L36 46L36 47L33 47L33 48L32 48L32 49L33 49L33 50L34 50L34 51L33 51L33 52L34 52L34 53L33 53L33 54L34 54L34 55L35 55L35 56L36 56L36 54L35 54L35 50L36 50L36 52L37 52L37 53L38 53L38 54L40 54L40 53L42 53L42 50L41 50L41 48L42 48L42 49L43 49L43 48L44 48L44 47L45 47L45 48L46 48L46 47L45 47L45 46L47 46L47 47L48 47L48 48L47 48L47 49L48 49L48 48L49 48L49 47L53 47L53 48L54 48L54 47L55 47L55 46L56 46L56 45L55 45L55 44L54 44L54 45L55 45L55 46L54 46L54 47L53 47L53 45L52 45L52 44L53 44L53 43L54 43L54 42L53 42L53 41L54 41L54 40L53 40L53 41L51 41L51 42L50 42L50 43L48 43L48 44L47 44L47 45L45 45L45 44L46 44L46 43L47 43L47 42L48 42L48 41L49 41L49 40L50 40L50 39L53 39L53 35L55 35L55 34L56 34L56 32L55 32L55 34L54 34L54 33L52 33L52 32L51 32L51 31L48 31L48 29L46 29L46 30L47 30L47 31L45 31L45 30L44 30L44 29L45 29L45 28L46 28L46 27L47 27L47 28L48 28L48 26L47 26L47 25L48 25L48 24L49 24L49 25L50 25L50 26L51 26L51 25L53 25L53 23L52 23L52 24L49 24L49 23L50 23L50 22L51 22L51 21L53 21L53 22L56 22L56 21L55 21L55 20L53 20L53 19L52 19L52 18L51 18L51 17L53 17L53 18L55 18L55 16L53 16L53 15L50 15L50 14L51 14L51 12L50 12L50 10L48 10L48 11L49 11L49 12L45 12L45 11L44 11L44 10L47 10L47 9L49 9L49 8L47 8L47 9L45 9L45 8L44 8L44 10L41 10L41 9L43 9L43 7L44 7L44 6L45 6L45 7L46 7L46 6L45 6L45 4L46 4L46 5L47 5L47 3L44 3L44 6L43 6L43 5L42 5L42 6L41 6L41 5L40 5L40 6L39 6L39 7L40 7L40 8L38 8L38 11L41 11L41 12L39 12L39 13L38 13L38 14L37 14L37 15L35 15L35 16L32 16L32 15L31 15L31 14L30 14L30 13L31 13L31 11L32 11L32 14L36 14L36 13L35 13L35 12L36 12L36 10L37 10L37 9L35 9L35 8L37 8L37 7L38 7L38 6L37 6L37 7L36 7L36 5L37 5L37 4L36 4L36 5L35 5L35 2L33 2L33 3L32 3L32 2ZM32 4L32 5L34 5L34 7L33 7L33 6L32 6L32 7L33 7L33 9L34 9L34 8L35 8L35 5L34 5L34 4ZM27 5L27 8L30 8L30 5ZM9 6L9 7L10 7L10 6ZM28 6L28 7L29 7L29 6ZM40 6L40 7L41 7L41 6ZM42 6L42 7L43 7L43 6ZM16 7L16 8L17 8L17 7ZM10 8L10 9L11 9L11 10L9 10L9 11L12 11L12 13L13 13L13 14L15 14L15 13L16 13L16 16L17 16L17 13L18 13L18 12L17 12L17 13L16 13L16 12L15 12L15 13L13 13L13 12L14 12L14 11L12 11L12 9L11 9L11 8ZM14 8L14 9L13 9L13 10L17 10L17 11L18 11L18 10L17 10L17 9L15 9L15 8ZM23 8L23 9L24 9L24 8ZM51 8L51 9L52 9L52 8ZM53 8L53 9L54 9L54 8ZM1 9L1 10L2 10L2 11L3 11L3 9ZM21 9L21 10L22 10L22 9ZM32 10L32 11L33 11L33 10ZM43 11L43 13L39 13L39 14L38 14L38 15L39 15L39 16L38 16L38 17L37 17L37 16L35 16L35 17L37 17L37 18L38 18L38 17L39 17L39 19L38 19L38 21L37 21L37 20L36 20L36 19L35 19L35 23L34 23L34 22L33 22L33 23L32 23L32 24L31 24L31 23L30 23L30 22L31 22L31 21L32 21L32 20L33 20L33 21L34 21L34 20L33 20L33 18L32 18L32 16L31 16L31 15L30 15L30 14L29 14L29 13L28 13L28 14L29 14L29 16L28 16L28 15L27 15L27 14L26 14L26 15L25 15L25 12L24 12L24 13L23 13L23 14L24 14L24 15L23 15L23 16L25 16L25 17L22 17L22 16L21 16L21 17L22 17L22 18L21 18L21 19L22 19L22 18L24 18L24 19L23 19L23 20L24 20L24 21L22 21L22 20L21 20L21 21L22 21L22 22L24 22L24 21L25 21L25 22L26 22L26 23L25 23L25 24L24 24L24 23L23 23L23 24L24 24L24 25L22 25L22 26L20 26L20 25L21 25L21 24L20 24L20 25L19 25L19 26L20 26L20 27L22 27L22 26L23 26L23 31L21 31L21 30L20 30L20 28L19 28L19 29L18 29L18 28L16 28L16 29L18 29L18 30L20 30L20 31L21 31L21 32L23 32L23 31L24 31L24 32L25 32L25 33L23 33L23 34L24 34L24 36L23 36L23 37L19 37L19 35L18 35L18 36L17 36L17 38L18 38L18 39L17 39L17 42L18 42L18 43L16 43L16 45L17 45L17 46L18 46L18 47L19 47L19 46L20 46L20 47L23 47L23 46L24 46L24 48L26 48L26 47L27 47L27 45L26 45L26 47L25 47L25 45L23 45L23 43L24 43L24 44L27 44L27 43L28 43L28 44L29 44L29 43L30 43L30 44L33 44L33 43L34 43L34 42L33 42L33 41L32 41L32 40L30 40L30 41L32 41L32 42L27 42L27 41L28 41L28 39L27 39L27 38L28 38L28 37L27 37L27 38L26 38L26 39L27 39L27 41L26 41L26 42L27 42L27 43L25 43L25 41L24 41L24 40L25 40L25 37L26 37L26 35L27 35L27 33L26 33L26 32L27 32L27 31L31 31L31 33L29 33L29 32L28 32L28 33L29 33L29 34L30 34L30 36L29 36L29 37L31 37L31 38L29 38L29 39L33 39L33 40L35 40L35 39L37 39L37 38L38 38L38 37L40 37L40 38L41 38L41 39L42 39L42 38L43 38L43 37L44 37L44 38L45 38L45 39L44 39L44 40L42 40L42 41L41 41L41 42L42 42L42 44L41 44L41 45L40 45L40 47L39 47L39 48L38 48L38 49L39 49L39 48L41 48L41 46L43 46L43 47L42 47L42 48L43 48L43 47L44 47L44 46L43 46L43 45L44 45L44 44L43 44L43 41L44 41L44 43L45 43L45 41L44 41L44 40L45 40L45 39L46 39L46 40L47 40L47 39L50 39L50 38L51 38L51 37L52 37L52 35L53 35L53 34L52 34L52 33L51 33L51 32L50 32L50 34L48 34L48 35L46 35L46 34L45 34L45 33L47 33L47 32L48 32L48 33L49 33L49 32L48 32L48 31L47 31L47 32L45 32L45 31L43 31L43 32L41 32L41 33L39 33L39 34L40 34L40 35L38 35L38 33L37 33L37 32L34 32L34 31L36 31L36 30L33 30L33 32L34 32L34 33L35 33L35 34L37 34L37 35L38 35L38 37L37 37L37 36L35 36L35 35L34 35L34 36L35 36L35 39L34 39L34 38L33 38L33 37L32 37L32 36L33 36L33 35L31 35L31 33L32 33L32 31L31 31L31 29L32 29L32 28L31 28L31 26L32 26L32 27L33 27L33 28L35 28L35 29L38 29L38 28L39 28L39 27L40 27L40 26L39 26L39 27L36 27L36 26L34 26L34 27L33 27L33 26L32 26L32 24L33 24L33 25L37 25L37 26L38 26L38 25L40 25L40 24L41 24L41 22L43 22L43 24L42 24L42 25L41 25L41 26L43 26L43 25L44 25L44 20L45 20L45 18L44 18L44 15L45 15L45 17L46 17L46 16L48 16L48 17L47 17L47 18L46 18L46 20L47 20L47 22L46 22L46 24L45 24L45 25L46 25L46 24L48 24L48 23L47 23L47 22L49 22L49 21L51 21L51 20L52 20L52 19L50 19L50 17L49 17L49 16L50 16L50 15L49 15L49 14L50 14L50 12L49 12L49 13L47 13L47 14L44 14L44 11ZM55 11L55 12L54 12L54 13L53 13L53 12L52 12L52 13L53 13L53 14L56 14L56 11ZM33 12L33 13L34 13L34 12ZM40 14L40 15L41 15L41 16L39 16L39 17L41 17L41 16L42 16L42 17L43 17L43 16L42 16L42 15L43 15L43 14ZM26 15L26 17L25 17L25 19L26 19L26 21L28 21L28 22L27 22L27 24L25 24L25 25L26 25L26 26L24 26L24 27L26 27L26 26L27 26L27 25L28 25L28 26L29 26L29 25L30 25L30 24L29 24L29 22L30 22L30 21L31 21L31 19L32 19L32 18L30 18L30 19L29 19L29 20L27 20L27 19L28 19L28 18L27 18L27 19L26 19L26 17L28 17L28 16L27 16L27 15ZM48 15L48 16L49 16L49 15ZM5 16L5 17L4 17L4 18L6 18L6 17L7 17L7 16ZM15 18L15 21L16 21L16 20L17 20L17 21L20 21L20 19L18 19L18 20L17 20L17 18ZM41 18L41 20L39 20L39 21L38 21L38 22L37 22L37 24L40 24L40 22L39 22L39 21L43 21L43 20L44 20L44 18L43 18L43 19L42 19L42 18ZM47 18L47 20L49 20L49 18ZM6 20L6 21L7 21L7 20ZM38 22L38 23L39 23L39 22ZM15 24L15 25L16 25L16 24ZM13 25L13 26L12 26L12 27L11 27L11 28L13 28L13 29L15 29L15 27L16 27L16 26L14 26L14 25ZM17 26L17 27L18 27L18 26ZM44 26L44 28L43 28L43 29L41 29L41 30L43 30L43 29L44 29L44 28L45 28L45 27L46 27L46 26ZM53 26L53 27L54 27L54 26ZM5 27L5 30L8 30L8 27ZM13 27L13 28L14 28L14 27ZM27 27L27 30L30 30L30 27ZM35 27L35 28L36 28L36 27ZM41 27L41 28L42 28L42 27ZM49 27L49 30L52 30L52 27ZM0 28L0 31L1 31L1 28ZM6 28L6 29L7 29L7 28ZM21 28L21 29L22 29L22 28ZM25 28L25 29L26 29L26 28ZM28 28L28 29L29 29L29 28ZM50 28L50 29L51 29L51 28ZM39 29L39 30L38 30L38 32L39 32L39 30L40 30L40 29ZM53 29L53 30L54 30L54 29ZM13 31L13 32L15 32L15 31ZM25 31L25 32L26 32L26 31ZM6 32L6 33L7 33L7 32ZM43 32L43 33L45 33L45 32ZM21 33L21 34L20 34L20 35L21 35L21 34L22 34L22 33ZM25 33L25 34L26 34L26 33ZM16 34L16 35L17 35L17 34ZM42 34L42 35L41 35L41 36L40 36L40 37L41 37L41 38L42 38L42 37L43 37L43 36L44 36L44 37L45 37L45 38L46 38L46 39L47 39L47 37L48 37L48 38L50 38L50 37L51 37L51 36L50 36L50 35L52 35L52 34L50 34L50 35L48 35L48 36L46 36L46 37L45 37L45 36L44 36L44 35L45 35L45 34ZM3 35L3 36L4 36L4 35ZM41 36L41 37L42 37L42 36ZM48 36L48 37L50 37L50 36ZM6 37L6 38L7 38L7 39L6 39L6 40L7 40L7 41L8 41L8 38L9 38L9 37L8 37L8 38L7 38L7 37ZM23 37L23 38L24 38L24 37ZM19 38L19 39L18 39L18 40L19 40L19 41L18 41L18 42L19 42L19 43L20 43L20 44L19 44L19 45L20 45L20 46L21 46L21 45L22 45L22 46L23 46L23 45L22 45L22 44L21 44L21 43L22 43L22 42L23 42L23 40L24 40L24 39L21 39L21 40L19 40L19 39L20 39L20 38ZM54 38L54 39L55 39L55 38ZM11 39L11 40L10 40L10 41L11 41L11 40L12 40L12 39ZM38 39L38 40L39 40L39 39ZM0 40L0 42L1 42L1 41L2 41L2 40ZM19 41L19 42L20 42L20 41ZM21 41L21 42L22 42L22 41ZM39 41L39 42L40 42L40 41ZM32 42L32 43L33 43L33 42ZM51 42L51 43L50 43L50 44L51 44L51 43L53 43L53 42ZM13 43L13 44L12 44L12 45L13 45L13 44L15 44L15 43ZM17 44L17 45L18 45L18 44ZM48 44L48 45L47 45L47 46L48 46L48 47L49 47L49 46L50 46L50 45L49 45L49 44ZM2 45L2 46L1 46L1 47L2 47L2 46L3 46L3 47L5 47L5 46L4 46L4 45ZM6 45L6 46L7 46L7 47L8 47L8 46L7 46L7 45ZM29 47L29 48L30 48L30 47ZM16 48L16 49L19 49L19 50L20 50L20 49L19 49L19 48ZM27 49L27 52L30 52L30 49ZM49 49L49 52L52 52L52 49ZM28 50L28 51L29 51L29 50ZM38 50L38 51L40 51L40 52L41 52L41 50ZM50 50L50 51L51 51L51 50ZM54 50L54 51L55 51L55 50ZM13 52L13 53L14 53L14 52ZM38 52L38 53L39 53L39 52ZM53 52L53 53L54 53L54 52ZM43 53L43 54L44 54L44 53ZM41 54L41 55L42 55L42 54ZM50 55L50 56L51 56L51 55ZM45 56L45 57L46 57L46 56ZM0 0L0 7L7 7L7 0ZM1 1L1 6L6 6L6 1ZM2 2L2 5L5 5L5 2ZM50 0L50 7L57 7L57 0ZM51 1L51 6L56 6L56 1ZM52 2L52 5L55 5L55 2ZM0 50L0 57L7 57L7 50ZM1 51L1 56L6 56L6 51ZM2 52L2 55L5 55L5 52Z" fill="#000000"/></g></g></svg>
