<?xml version="1.0" encoding="UTF-8"?>
<svg xmlns="http://www.w3.org/2000/svg" version="1.1" width="300" height="300" viewBox="0 0 300 300"><rect x="0" y="0" width="300" height="300" fill="#fefefe"/><g transform="scale(4.615)"><g transform="translate(4,4)"><path fill-rule="evenodd" d="M9 0L9 1L8 1L8 2L9 2L9 3L8 3L8 4L9 4L9 5L8 5L8 7L9 7L9 8L6 8L6 9L5 9L5 8L0 8L0 10L1 10L1 11L0 11L0 12L3 12L3 13L2 13L2 14L3 14L3 15L4 15L4 16L2 16L2 17L1 17L1 16L0 16L0 18L3 18L3 19L2 19L2 20L0 20L0 22L1 22L1 21L5 21L5 22L4 22L4 23L5 23L5 22L6 22L6 23L7 23L7 24L5 24L5 25L4 25L4 24L3 24L3 22L2 22L2 23L0 23L0 27L1 27L1 28L2 28L2 29L1 29L1 31L2 31L2 29L4 29L4 31L5 31L5 32L6 32L6 33L7 33L7 32L6 32L6 31L8 31L8 34L5 34L5 33L3 33L3 32L2 32L2 33L1 33L1 32L0 32L0 33L1 33L1 34L3 34L3 35L0 35L0 36L1 36L1 37L0 37L0 38L2 38L2 39L1 39L1 40L0 40L0 41L1 41L1 42L2 42L2 43L3 43L3 42L5 42L5 43L4 43L4 44L3 44L3 45L2 45L2 44L1 44L1 43L0 43L0 44L1 44L1 45L0 45L0 48L5 48L5 47L8 47L8 48L9 48L9 49L8 49L8 51L9 51L9 52L8 52L8 57L14 57L14 56L15 56L15 55L16 55L16 56L17 56L17 57L19 57L19 56L17 56L17 54L18 54L18 55L20 55L20 54L19 54L19 53L20 53L20 52L23 52L23 51L19 51L19 50L20 50L20 49L19 49L19 48L20 48L20 47L19 47L19 48L18 48L18 47L17 47L17 49L19 49L19 50L18 50L18 51L17 51L17 50L15 50L15 49L16 49L16 47L15 47L15 48L11 48L11 46L12 46L12 47L13 47L13 45L12 45L12 44L14 44L14 43L15 43L15 44L18 44L18 45L17 45L17 46L20 46L20 45L19 45L19 44L20 44L20 43L19 43L19 42L20 42L20 41L21 41L21 42L22 42L22 43L21 43L21 44L22 44L22 45L21 45L21 47L23 47L23 49L21 49L21 50L26 50L26 52L24 52L24 53L23 53L23 54L22 54L22 53L21 53L21 54L22 54L22 56L23 56L23 57L26 57L26 56L27 56L27 57L29 57L29 56L30 56L30 57L31 57L31 56L35 56L35 57L39 57L39 56L37 56L37 54L38 54L38 55L41 55L41 54L42 54L42 55L44 55L44 56L41 56L41 57L44 57L44 56L45 56L45 57L49 57L49 56L50 56L50 57L52 57L52 55L51 55L51 53L52 53L52 54L55 54L55 51L56 51L56 52L57 52L57 51L56 51L56 50L55 50L55 49L54 49L54 48L56 48L56 49L57 49L57 48L56 48L56 46L57 46L57 45L56 45L56 44L55 44L55 43L56 43L56 42L55 42L55 39L57 39L57 37L56 37L56 36L55 36L55 35L56 35L56 34L55 34L55 33L54 33L54 32L56 32L56 33L57 33L57 32L56 32L56 30L57 30L57 29L54 29L54 28L56 28L56 27L55 27L55 26L57 26L57 25L56 25L56 22L57 22L57 21L56 21L56 22L55 22L55 23L53 23L53 22L54 22L54 21L51 21L51 20L52 20L52 19L53 19L53 20L55 20L55 19L56 19L56 20L57 20L57 19L56 19L56 16L57 16L57 15L56 15L56 14L57 14L57 13L56 13L56 14L55 14L55 13L54 13L54 12L55 12L55 11L56 11L56 10L54 10L54 11L50 11L50 12L49 12L49 10L50 10L50 8L49 8L49 9L48 9L48 8L47 8L47 5L48 5L48 0L46 0L46 1L45 1L45 2L44 2L44 3L41 3L41 2L43 2L43 0L41 0L41 1L40 1L40 0L39 0L39 1L38 1L38 0L37 0L37 1L38 1L38 2L37 2L37 3L36 3L36 0L35 0L35 1L33 1L33 0L32 0L32 1L31 1L31 0L27 0L27 1L26 1L26 0L23 0L23 2L25 2L25 1L26 1L26 2L27 2L27 1L28 1L28 3L27 3L27 4L26 4L26 3L23 3L23 4L22 4L22 3L21 3L21 4L19 4L19 3L20 3L20 2L21 2L21 1L22 1L22 0L21 0L21 1L20 1L20 0L19 0L19 1L18 1L18 2L15 2L15 1L14 1L14 0L13 0L13 1L14 1L14 2L13 2L13 3L12 3L12 1L11 1L11 0ZM19 1L19 2L18 2L18 3L19 3L19 2L20 2L20 1ZM29 1L29 3L28 3L28 4L31 4L31 8L32 8L32 10L31 10L31 11L30 11L30 10L29 10L29 9L28 9L28 10L29 10L29 12L28 12L28 13L26 13L26 12L27 12L27 11L26 11L26 12L25 12L25 11L23 11L23 12L25 12L25 13L26 13L26 14L24 14L24 15L21 15L21 13L22 13L22 14L23 14L23 13L22 13L22 12L21 12L21 11L22 11L22 10L21 10L21 9L23 9L23 8L24 8L24 6L23 6L23 5L24 5L24 4L23 4L23 5L22 5L22 4L21 4L21 7L22 7L22 8L19 8L19 9L18 9L18 10L17 10L17 9L15 9L15 8L14 8L14 10L17 10L17 11L16 11L16 12L15 12L15 13L13 13L13 12L14 12L14 11L13 11L13 10L11 10L11 12L10 12L10 10L9 10L9 9L8 9L8 10L7 10L7 9L6 9L6 10L3 10L3 9L1 9L1 10L3 10L3 11L5 11L5 15L6 15L6 16L7 16L7 17L6 17L6 18L8 18L8 17L9 17L9 16L11 16L11 14L9 14L9 15L8 15L8 13L12 13L12 14L13 14L13 16L14 16L14 18L13 18L13 19L12 19L12 23L11 23L11 22L10 22L10 21L11 21L11 20L9 20L9 19L11 19L11 18L12 18L12 17L11 17L11 18L9 18L9 19L8 19L8 20L7 20L7 19L5 19L5 18L4 18L4 17L5 17L5 16L4 16L4 17L3 17L3 18L4 18L4 19L5 19L5 20L7 20L7 21L6 21L6 22L8 22L8 24L10 24L10 28L9 28L9 31L10 31L10 32L11 32L11 31L10 31L10 30L11 30L11 25L12 25L12 23L14 23L14 24L15 24L15 25L13 25L13 26L12 26L12 27L13 27L13 28L12 28L12 33L13 33L13 34L14 34L14 33L15 33L15 34L16 34L16 35L14 35L14 37L16 37L16 38L15 38L15 39L14 39L14 38L13 38L13 37L12 37L12 36L13 36L13 35L11 35L11 33L10 33L10 34L8 34L8 35L5 35L5 34L4 34L4 36L3 36L3 37L2 37L2 38L3 38L3 40L4 40L4 41L5 41L5 42L7 42L7 41L8 41L8 43L9 43L9 45L8 45L8 44L7 44L7 43L5 43L5 44L7 44L7 45L4 45L4 46L3 46L3 47L5 47L5 46L9 46L9 47L10 47L10 46L11 46L11 45L10 45L10 44L11 44L11 43L12 43L12 42L9 42L9 40L10 40L10 41L12 41L12 40L15 40L15 41L16 41L16 42L15 42L15 43L18 43L18 42L19 42L19 41L20 41L20 40L19 40L19 41L18 41L18 40L17 40L17 36L19 36L19 37L18 37L18 38L19 38L19 39L20 39L20 38L19 38L19 37L21 37L21 38L24 38L24 37L23 37L23 36L24 36L24 34L23 34L23 33L25 33L25 34L26 34L26 35L27 35L27 37L25 37L25 40L24 40L24 39L22 39L22 40L21 40L21 41L22 41L22 42L23 42L23 44L24 44L24 45L22 45L22 46L23 46L23 47L24 47L24 45L25 45L25 48L24 48L24 49L26 49L26 48L28 48L28 47L29 47L29 48L30 48L30 47L29 47L29 45L30 45L30 46L32 46L32 47L33 47L33 48L32 48L32 49L31 49L31 50L32 50L32 51L31 51L31 53L30 53L30 54L26 54L26 55L27 55L27 56L29 56L29 55L30 55L30 56L31 56L31 54L32 54L32 53L33 53L33 54L34 54L34 55L35 55L35 56L36 56L36 54L35 54L35 53L33 53L33 52L32 52L32 51L33 51L33 50L34 50L34 51L35 51L35 50L36 50L36 52L37 52L37 53L38 53L38 54L40 54L40 53L42 53L42 52L43 52L43 51L42 51L42 50L41 50L41 48L42 48L42 49L43 49L43 50L44 50L44 51L45 51L45 52L44 52L44 53L43 53L43 54L44 54L44 55L47 55L47 54L48 54L48 50L47 50L47 49L48 49L48 48L54 48L54 45L55 45L55 46L56 46L56 45L55 45L55 44L54 44L54 45L53 45L53 43L54 43L54 42L53 42L53 41L54 41L54 40L53 40L53 41L51 41L51 42L50 42L50 43L49 43L49 42L48 42L48 41L49 41L49 39L54 39L54 38L53 38L53 35L55 35L55 34L54 34L54 33L52 33L52 32L51 32L51 31L48 31L48 29L46 29L46 30L47 30L47 31L45 31L45 28L46 28L46 27L48 27L48 25L50 25L50 26L52 26L52 25L53 25L53 23L50 23L50 22L51 22L51 21L49 21L49 20L47 20L47 19L48 19L48 18L47 18L47 16L45 16L45 14L47 14L47 13L49 13L49 12L48 12L48 9L47 9L47 8L45 8L45 7L46 7L46 6L45 6L45 5L47 5L47 3L44 3L44 6L43 6L43 8L44 8L44 9L45 9L45 11L44 11L44 18L43 18L43 20L44 20L44 23L43 23L43 24L42 24L42 25L41 25L41 24L39 24L39 23L40 23L40 22L39 22L39 21L42 21L42 20L38 20L38 22L37 22L37 24L39 24L39 25L38 25L38 26L37 26L37 25L33 25L33 24L32 24L32 23L33 23L33 22L34 22L34 23L35 23L35 21L34 21L34 20L35 20L35 19L36 19L36 20L37 20L37 19L39 19L39 17L41 17L41 16L42 16L42 17L43 17L43 16L42 16L42 15L43 15L43 14L41 14L41 13L43 13L43 10L41 10L41 12L40 12L40 11L39 11L39 9L42 9L42 8L41 8L41 7L42 7L42 6L41 6L41 5L40 5L40 4L41 4L41 3L39 3L39 2L38 2L38 5L37 5L37 4L36 4L36 5L35 5L35 3L34 3L34 2L33 2L33 1L32 1L32 2L31 2L31 1ZM46 1L46 2L47 2L47 1ZM10 2L10 3L11 3L11 4L10 4L10 5L9 5L9 7L10 7L10 9L11 9L11 7L12 7L12 6L13 6L13 7L14 7L14 5L15 5L15 7L16 7L16 8L17 8L17 7L18 7L18 6L19 6L19 7L20 7L20 5L18 5L18 4L17 4L17 3L15 3L15 2L14 2L14 4L13 4L13 5L12 5L12 6L11 6L11 7L10 7L10 5L11 5L11 4L12 4L12 3L11 3L11 2ZM32 2L32 3L31 3L31 4L32 4L32 5L34 5L34 7L33 7L33 6L32 6L32 7L33 7L33 9L34 9L34 8L35 8L35 9L37 9L37 10L36 10L36 12L35 12L35 13L36 13L36 14L33 14L33 13L34 13L34 12L33 12L33 10L32 10L32 12L31 12L31 13L30 13L30 14L29 14L29 13L28 13L28 14L29 14L29 16L28 16L28 15L27 15L27 16L26 16L26 15L24 15L24 16L26 16L26 19L25 19L25 17L22 17L22 16L21 16L21 17L22 17L22 18L20 18L20 16L18 16L18 15L17 15L17 16L16 16L16 13L17 13L17 14L19 14L19 15L20 15L20 12L19 12L19 11L21 11L21 10L20 10L20 9L19 9L19 10L18 10L18 11L17 11L17 12L16 12L16 13L15 13L15 14L14 14L14 16L15 16L15 17L18 17L18 18L15 18L15 21L16 21L16 22L15 22L15 23L16 23L16 24L17 24L17 26L15 26L15 27L14 27L14 29L15 29L15 31L16 31L16 29L18 29L18 30L17 30L17 31L18 31L18 30L19 30L19 29L22 29L22 28L20 28L20 27L22 27L22 26L26 26L26 27L25 27L25 28L26 28L26 29L23 29L23 31L21 31L21 30L20 30L20 31L19 31L19 32L17 32L17 33L19 33L19 34L18 34L18 35L19 35L19 36L20 36L20 35L21 35L21 34L22 34L22 35L23 35L23 34L22 34L22 33L21 33L21 34L20 34L20 31L21 31L21 32L25 32L25 33L26 33L26 34L27 34L27 33L26 33L26 32L28 32L28 33L29 33L29 34L30 34L30 36L29 36L29 37L31 37L31 38L29 38L29 39L33 39L33 40L35 40L35 42L37 42L37 43L36 43L36 44L35 44L35 43L34 43L34 42L33 42L33 41L32 41L32 40L28 40L28 39L27 39L27 38L28 38L28 37L27 37L27 38L26 38L26 39L27 39L27 40L28 40L28 41L32 41L32 42L29 42L29 43L28 43L28 45L26 45L26 47L28 47L28 45L29 45L29 43L30 43L30 44L31 44L31 45L32 45L32 46L33 46L33 47L34 47L34 48L33 48L33 49L32 49L32 50L33 50L33 49L36 49L36 50L38 50L38 51L40 51L40 52L41 52L41 50L38 50L38 49L39 49L39 48L41 48L41 46L43 46L43 47L42 47L42 48L43 48L43 49L44 49L44 50L45 50L45 49L44 49L44 48L43 48L43 47L44 47L44 46L45 46L45 48L46 48L46 47L47 47L47 48L48 48L48 47L50 47L50 46L51 46L51 45L52 45L52 44L51 44L51 43L53 43L53 42L51 42L51 43L50 43L50 44L48 44L48 45L47 45L47 43L48 43L48 42L45 42L45 41L43 41L43 40L47 40L47 39L48 39L48 37L49 37L49 38L50 38L50 37L51 37L51 36L52 36L52 35L53 35L53 34L52 34L52 33L51 33L51 32L50 32L50 34L49 34L49 35L50 35L50 36L48 36L48 37L47 37L47 39L46 39L46 38L45 38L45 37L46 37L46 36L47 36L47 35L46 35L46 36L45 36L45 35L44 35L44 33L43 33L43 32L45 32L45 33L47 33L47 32L48 32L48 33L49 33L49 32L48 32L48 31L47 31L47 32L45 32L45 31L44 31L44 29L40 29L40 30L43 30L43 32L41 32L41 33L39 33L39 34L40 34L40 35L38 35L38 33L37 33L37 32L35 32L35 34L32 34L32 32L31 32L31 33L29 33L29 32L28 32L28 31L36 31L36 30L37 30L37 29L38 29L38 28L39 28L39 27L41 27L41 28L42 28L42 26L43 26L43 28L45 28L45 27L44 27L44 26L43 26L43 25L44 25L44 24L43 24L43 25L42 25L42 26L41 26L41 25L39 25L39 27L36 27L36 26L34 26L34 27L33 27L33 26L32 26L32 24L31 24L31 25L27 25L27 26L26 26L26 25L25 25L25 24L27 24L27 23L28 23L28 24L29 24L29 23L31 23L31 21L32 21L32 20L34 20L34 19L35 19L35 18L33 18L33 17L32 17L32 16L31 16L31 15L30 15L30 14L31 14L31 13L32 13L32 15L33 15L33 16L35 16L35 17L37 17L37 18L38 18L38 17L39 17L39 16L41 16L41 14L38 14L38 13L40 13L40 12L39 12L39 11L38 11L38 9L39 9L39 8L40 8L40 7L41 7L41 6L40 6L40 5L39 5L39 6L38 6L38 7L37 7L37 5L36 5L36 7L37 7L37 8L35 8L35 5L34 5L34 4L32 4L32 3L33 3L33 2ZM15 4L15 5L16 5L16 4ZM25 4L25 8L26 8L26 4ZM17 5L17 6L16 6L16 7L17 7L17 6L18 6L18 5ZM27 5L27 8L30 8L30 5ZM22 6L22 7L23 7L23 6ZM28 6L28 7L29 7L29 6ZM39 6L39 7L40 7L40 6ZM44 6L44 7L45 7L45 6ZM48 6L48 7L49 7L49 6ZM12 8L12 9L13 9L13 8ZM37 8L37 9L38 9L38 8ZM51 8L51 10L53 10L53 9L54 9L54 8L53 8L53 9L52 9L52 8ZM55 8L55 9L56 9L56 8ZM6 10L6 11L7 11L7 10ZM46 10L46 11L45 11L45 12L47 12L47 10ZM8 11L8 12L9 12L9 11ZM12 11L12 12L13 12L13 11ZM6 12L6 13L7 13L7 12ZM17 12L17 13L18 13L18 12ZM32 12L32 13L33 13L33 12ZM50 12L50 14L49 14L49 15L48 15L48 16L49 16L49 17L50 17L50 18L49 18L49 19L51 19L51 17L53 17L53 18L55 18L55 16L53 16L53 15L55 15L55 14L54 14L54 13L53 13L53 12L52 12L52 13L53 13L53 15L52 15L52 16L51 16L51 15L50 15L50 14L51 14L51 12ZM3 13L3 14L4 14L4 13ZM6 14L6 15L7 15L7 14ZM37 14L37 15L35 15L35 16L37 16L37 17L38 17L38 16L39 16L39 15L38 15L38 14ZM49 15L49 16L50 16L50 15ZM27 16L27 17L28 17L28 16ZM31 17L31 18L30 18L30 19L28 19L28 18L27 18L27 19L26 19L26 20L25 20L25 21L24 21L24 20L23 20L23 19L24 19L24 18L22 18L22 19L20 19L20 21L19 21L19 22L18 22L18 21L17 21L17 20L19 20L19 19L17 19L17 20L16 20L16 21L17 21L17 24L21 24L21 25L19 25L19 26L18 26L18 27L16 27L16 28L15 28L15 29L16 29L16 28L18 28L18 29L19 29L19 26L21 26L21 25L23 25L23 23L24 23L24 24L25 24L25 23L26 23L26 22L25 22L25 21L30 21L30 20L31 20L31 18L32 18L32 17ZM41 18L41 19L42 19L42 18ZM44 18L44 20L45 20L45 21L46 21L46 20L45 20L45 19L46 19L46 18ZM13 19L13 20L14 20L14 19ZM27 19L27 20L28 20L28 19ZM8 21L8 22L9 22L9 23L10 23L10 24L11 24L11 23L10 23L10 22L9 22L9 21ZM13 21L13 22L14 22L14 21ZM21 21L21 24L22 24L22 23L23 23L23 22L24 22L24 21L23 21L23 22L22 22L22 21ZM47 21L47 22L45 22L45 24L47 24L47 25L48 25L48 24L47 24L47 22L49 22L49 21ZM19 22L19 23L20 23L20 22ZM38 22L38 23L39 23L39 22ZM41 22L41 23L42 23L42 22ZM49 23L49 24L50 24L50 25L51 25L51 24L50 24L50 23ZM2 25L2 26L3 26L3 25ZM6 25L6 26L7 26L7 25ZM8 25L8 26L9 26L9 25ZM31 26L31 27L32 27L32 29L31 29L31 30L35 30L35 28L33 28L33 27L32 27L32 26ZM53 26L53 27L54 27L54 26ZM5 27L5 30L8 30L8 27ZM27 27L27 30L30 30L30 27ZM49 27L49 30L52 30L52 27ZM6 28L6 29L7 29L7 28ZM28 28L28 29L29 29L29 28ZM50 28L50 29L51 29L51 28ZM53 29L53 30L54 30L54 31L53 31L53 32L54 32L54 31L55 31L55 30L54 30L54 29ZM38 30L38 32L39 32L39 30ZM25 31L25 32L26 32L26 31ZM13 32L13 33L14 33L14 32ZM15 32L15 33L16 33L16 32ZM19 34L19 35L20 35L20 34ZM31 34L31 35L32 35L32 34ZM35 34L35 36L37 36L37 37L38 37L38 38L37 38L37 39L35 39L35 40L38 40L38 42L39 42L39 43L40 43L40 44L39 44L39 45L38 45L38 46L39 46L39 47L38 47L38 48L37 48L37 49L38 49L38 48L39 48L39 47L40 47L40 46L41 46L41 44L42 44L42 43L41 43L41 39L45 39L45 38L44 38L44 37L45 37L45 36L44 36L44 35L43 35L43 34L42 34L42 36L40 36L40 37L38 37L38 35L37 35L37 34ZM50 34L50 35L52 35L52 34ZM8 35L8 36L6 36L6 37L8 37L8 38L5 38L5 39L4 39L4 40L6 40L6 41L7 41L7 40L9 40L9 38L10 38L10 39L13 39L13 38L12 38L12 37L9 37L9 36L11 36L11 35ZM33 35L33 36L32 36L32 37L33 37L33 39L34 39L34 38L35 38L35 37L33 37L33 36L34 36L34 35ZM43 36L43 37L40 37L40 38L43 38L43 37L44 37L44 36ZM6 39L6 40L7 40L7 39ZM15 39L15 40L16 40L16 41L17 41L17 42L18 42L18 41L17 41L17 40L16 40L16 39ZM38 39L38 40L39 40L39 39ZM1 40L1 41L2 41L2 40ZM23 41L23 42L25 42L25 41ZM26 41L26 42L27 42L27 41ZM39 41L39 42L40 42L40 41ZM13 42L13 43L14 43L14 42ZM32 42L32 43L31 43L31 44L32 44L32 45L33 45L33 46L35 46L35 48L36 48L36 47L37 47L37 45L36 45L36 46L35 46L35 45L34 45L34 43L33 43L33 42ZM44 42L44 43L43 43L43 44L44 44L44 45L45 45L45 46L47 46L47 45L45 45L45 44L46 44L46 43L45 43L45 42ZM25 43L25 44L27 44L27 43ZM32 43L32 44L33 44L33 43ZM49 45L49 46L50 46L50 45ZM1 46L1 47L2 47L2 46ZM6 48L6 49L7 49L7 48ZM10 48L10 49L11 49L11 48ZM13 49L13 50L9 50L9 51L10 51L10 52L9 52L9 53L10 53L10 54L9 54L9 55L10 55L10 56L12 56L12 55L11 55L11 53L12 53L12 54L13 54L13 53L15 53L15 54L14 54L14 55L13 55L13 56L14 56L14 55L15 55L15 54L16 54L16 53L17 53L17 51L16 51L16 53L15 53L15 52L13 52L13 53L12 53L12 51L13 51L13 50L14 50L14 49ZM27 49L27 52L30 52L30 49ZM49 49L49 52L52 52L52 49ZM28 50L28 51L29 51L29 50ZM50 50L50 51L51 51L51 50ZM54 50L54 51L55 51L55 50ZM46 51L46 53L47 53L47 51ZM38 52L38 53L39 53L39 52ZM53 52L53 53L54 53L54 52ZM24 53L24 54L23 54L23 55L24 55L24 56L25 56L25 53ZM44 53L44 54L45 54L45 53ZM50 55L50 56L51 56L51 55ZM53 55L53 56L55 56L55 57L56 57L56 56L55 56L55 55ZM0 0L0 7L7 7L7 0ZM1 1L1 6L6 6L6 1ZM2 2L2 5L5 5L5 2ZM50 0L50 7L57 7L57 0ZM51 1L51 6L56 6L56 1ZM52 2L52 5L55 5L55 2ZM0 50L0 57L7 57L7 50ZM1 51L1 56L6 56L6 51ZM2 52L2 55L5 55L5 52Z" fill="#000000"/></g></g></svg>
