<?xml version="1.0" encoding="UTF-8"?>
<svg xmlns="http://www.w3.org/2000/svg" version="1.1" width="300" height="300" viewBox="0 0 300 300"><rect x="0" y="0" width="300" height="300" fill="#fefefe"/><g transform="scale(4.615)"><g transform="translate(4,4)"><path fill-rule="evenodd" d="M8 0L8 2L10 2L10 4L8 4L8 9L7 9L7 8L5 8L5 9L3 9L3 8L0 8L0 10L1 10L1 12L2 12L2 14L3 14L3 15L5 15L5 16L1 16L1 15L0 15L0 17L3 17L3 18L0 18L0 19L1 19L1 21L0 21L0 22L1 22L1 21L2 21L2 23L1 23L1 24L0 24L0 28L1 28L1 27L2 27L2 28L3 28L3 27L4 27L4 29L3 29L3 30L4 30L4 33L5 33L5 34L6 34L6 35L7 35L7 34L6 34L6 33L8 33L8 34L9 34L9 33L8 33L8 31L9 31L9 30L10 30L10 31L12 31L12 33L10 33L10 35L8 35L8 36L6 36L6 37L5 37L5 39L7 39L7 40L4 40L4 41L7 41L7 40L8 40L8 41L9 41L9 42L8 42L8 45L7 45L7 44L6 44L6 43L7 43L7 42L6 42L6 43L5 43L5 42L4 42L4 45L1 45L1 44L3 44L3 43L2 43L2 42L3 42L3 41L0 41L0 42L1 42L1 43L0 43L0 45L1 45L1 46L0 46L0 48L5 48L5 47L7 47L7 48L6 48L6 49L8 49L8 50L9 50L9 51L8 51L8 52L9 52L9 53L11 53L11 54L8 54L8 57L10 57L10 56L11 56L11 57L13 57L13 56L15 56L15 57L17 57L17 56L18 56L18 57L21 57L21 56L18 56L18 55L19 55L19 54L18 54L18 53L19 53L19 50L20 50L20 48L22 48L22 50L21 50L21 51L20 51L20 53L21 53L21 54L20 54L20 55L22 55L22 57L25 57L25 56L26 56L26 57L28 57L28 55L29 55L29 57L33 57L33 55L30 55L30 54L31 54L31 53L32 53L32 54L34 54L34 57L35 57L35 55L37 55L37 54L38 54L38 53L39 53L39 56L40 56L40 57L41 57L41 56L42 56L42 57L43 57L43 56L44 56L44 57L46 57L46 56L44 56L44 55L47 55L47 54L46 54L46 53L45 53L45 52L47 52L47 53L49 53L49 54L48 54L48 55L49 55L49 56L47 56L47 57L50 57L50 55L49 55L49 54L52 54L52 55L53 55L53 53L57 53L57 52L56 52L56 51L57 51L57 49L56 49L56 47L57 47L57 44L56 44L56 47L55 47L55 52L54 52L54 51L53 51L53 50L54 50L54 49L53 49L53 48L51 48L51 46L52 46L52 47L53 47L53 46L54 46L54 45L53 45L53 44L54 44L54 43L55 43L55 42L54 42L54 39L55 39L55 38L57 38L57 34L56 34L56 31L57 31L57 24L56 24L56 23L57 23L57 12L55 12L55 13L56 13L56 15L55 15L55 14L54 14L54 13L53 13L53 12L54 12L54 11L55 11L55 9L57 9L57 8L55 8L55 9L54 9L54 10L53 10L53 8L49 8L49 9L52 9L52 10L51 10L51 11L50 11L50 13L49 13L49 14L48 14L48 11L49 11L49 10L48 10L48 7L49 7L49 6L48 6L48 7L47 7L47 5L48 5L48 0L42 0L42 1L41 1L41 0L38 0L38 2L39 2L39 4L38 4L38 5L39 5L39 4L40 4L40 2L41 2L41 3L42 3L42 5L41 5L41 6L40 6L40 7L39 7L39 6L38 6L38 8L37 8L37 6L36 6L36 10L34 10L34 9L35 9L35 4L36 4L36 3L35 3L35 2L37 2L37 1L35 1L35 0L34 0L34 8L32 8L32 9L31 9L31 5L32 5L32 2L31 2L31 0L30 0L30 1L29 1L29 0L28 0L28 1L27 1L27 0L24 0L24 1L23 1L23 0L20 0L20 1L21 1L21 2L20 2L20 3L21 3L21 5L20 5L20 7L19 7L19 4L18 4L18 3L19 3L19 2L18 2L18 1L17 1L17 0L16 0L16 1L15 1L15 0L14 0L14 3L13 3L13 1L12 1L12 0ZM22 1L22 2L21 2L21 3L22 3L22 5L21 5L21 9L20 9L20 8L19 8L19 7L18 7L18 4L17 4L17 3L18 3L18 2L17 2L17 3L16 3L16 2L15 2L15 3L14 3L14 4L15 4L15 3L16 3L16 4L17 4L17 5L16 5L16 6L15 6L15 5L14 5L14 6L13 6L13 3L12 3L12 2L11 2L11 4L10 4L10 6L9 6L9 10L10 10L10 11L11 11L11 10L12 10L12 12L11 12L11 14L10 14L10 15L8 15L8 13L5 13L5 12L7 12L7 11L8 11L8 12L9 12L9 11L8 11L8 10L7 10L7 9L6 9L6 10L7 10L7 11L4 11L4 10L3 10L3 9L1 9L1 10L3 10L3 11L2 11L2 12L3 12L3 13L5 13L5 15L6 15L6 16L5 16L5 17L6 17L6 18L3 18L3 19L2 19L2 20L3 20L3 21L4 21L4 23L2 23L2 24L3 24L3 25L4 25L4 26L5 26L5 24L4 24L4 23L6 23L6 24L7 24L7 25L6 25L6 26L7 26L7 25L8 25L8 26L9 26L9 29L12 29L12 30L14 30L14 29L12 29L12 28L10 28L10 25L8 25L8 24L9 24L9 23L10 23L10 22L13 22L13 24L12 24L12 23L11 23L11 24L12 24L12 25L11 25L11 26L12 26L12 25L13 25L13 24L14 24L14 22L15 22L15 21L14 21L14 22L13 22L13 21L11 21L11 20L9 20L9 19L6 19L6 18L10 18L10 19L11 19L11 17L10 17L10 16L11 16L11 14L12 14L12 13L13 13L13 17L12 17L12 18L13 18L13 17L14 17L14 18L15 18L15 17L14 17L14 15L15 15L15 16L17 16L17 17L16 17L16 18L17 18L17 17L18 17L18 19L16 19L16 20L17 20L17 22L16 22L16 23L17 23L17 25L16 25L16 24L15 24L15 25L14 25L14 27L15 27L15 25L16 25L16 26L17 26L17 27L16 27L16 28L15 28L15 30L18 30L18 31L16 31L16 35L15 35L15 39L12 39L12 36L13 36L13 37L14 37L14 35L13 35L13 34L15 34L15 33L14 33L14 31L13 31L13 34L11 34L11 37L10 37L10 36L8 36L8 38L9 38L9 37L10 37L10 38L11 38L11 39L12 39L12 40L10 40L10 39L8 39L8 40L10 40L10 42L11 42L11 43L9 43L9 46L7 46L7 45L6 45L6 44L5 44L5 45L6 45L6 46L7 46L7 47L9 47L9 48L10 48L10 49L11 49L11 50L12 50L12 51L11 51L11 53L12 53L12 52L13 52L13 48L14 48L14 50L15 50L15 49L16 49L16 51L17 51L17 50L19 50L19 49L18 49L18 48L20 48L20 47L21 47L21 46L22 46L22 48L23 48L23 49L24 49L24 51L23 51L23 52L24 52L24 51L25 51L25 53L26 53L26 50L25 50L25 47L24 47L24 48L23 48L23 44L22 44L22 43L24 43L24 46L26 46L26 48L27 48L27 47L28 47L28 48L31 48L31 52L32 52L32 48L33 48L33 47L32 47L32 46L33 46L33 45L34 45L34 47L35 47L35 49L34 49L34 50L35 50L35 51L34 51L34 52L33 52L33 53L34 53L34 54L35 54L35 53L36 53L36 54L37 54L37 53L38 53L38 51L39 51L39 49L40 49L40 51L41 51L41 49L42 49L42 50L44 50L44 51L46 51L46 50L47 50L47 49L46 49L46 48L45 48L45 49L44 49L44 46L43 46L43 45L44 45L44 44L45 44L45 43L47 43L47 44L46 44L46 47L48 47L48 45L47 45L47 44L48 44L48 42L49 42L49 44L50 44L50 42L49 42L49 41L51 41L51 40L52 40L52 44L53 44L53 37L54 37L54 38L55 38L55 37L54 37L54 36L55 36L55 35L56 35L56 34L55 34L55 33L54 33L54 32L55 32L55 31L56 31L56 30L55 30L55 29L56 29L56 28L55 28L55 27L54 27L54 28L53 28L53 29L54 29L54 30L53 30L53 31L52 31L52 32L50 32L50 33L49 33L49 36L48 36L48 37L46 37L46 38L47 38L47 40L46 40L46 41L44 41L44 40L43 40L43 38L44 38L44 35L43 35L43 33L42 33L42 31L45 31L45 30L46 30L46 34L48 34L48 33L47 33L47 29L48 29L48 28L46 28L46 29L44 29L44 30L43 30L43 28L42 28L42 31L40 31L40 30L39 30L39 29L40 29L40 28L41 28L41 27L43 27L43 26L44 26L44 27L45 27L45 25L46 25L46 26L47 26L47 27L48 27L48 26L49 26L49 25L50 25L50 26L53 26L53 25L52 25L52 24L53 24L53 23L54 23L54 24L55 24L55 25L54 25L54 26L55 26L55 25L56 25L56 24L55 24L55 23L56 23L56 21L55 21L55 20L56 20L56 18L55 18L55 19L54 19L54 17L56 17L56 16L55 16L55 15L54 15L54 14L52 14L52 13L50 13L50 16L51 16L51 17L50 17L50 18L52 18L52 19L51 19L51 20L49 20L49 21L48 21L48 22L47 22L47 20L46 20L46 19L48 19L48 18L49 18L49 17L48 17L48 18L47 18L47 16L45 16L45 15L44 15L44 16L43 16L43 13L44 13L44 12L45 12L45 13L46 13L46 15L48 15L48 14L47 14L47 13L46 13L46 11L48 11L48 10L47 10L47 8L46 8L46 11L45 11L45 9L44 9L44 12L42 12L42 11L41 11L41 9L40 9L40 8L42 8L42 10L43 10L43 7L44 7L44 6L45 6L45 7L46 7L46 5L47 5L47 3L46 3L46 4L45 4L45 2L47 2L47 1L42 1L42 3L43 3L43 2L44 2L44 4L43 4L43 5L42 5L42 6L41 6L41 7L40 7L40 8L38 8L38 10L40 10L40 11L39 11L39 12L37 12L37 11L34 11L34 10L33 10L33 9L32 9L32 11L31 11L31 12L30 12L30 11L29 11L29 9L28 9L28 10L25 10L25 9L26 9L26 5L24 5L24 6L23 6L23 8L24 8L24 11L23 11L23 9L22 9L22 5L23 5L23 3L22 3L22 2L23 2L23 1ZM24 1L24 4L25 4L25 1ZM39 1L39 2L40 2L40 1ZM27 2L27 3L26 3L26 4L27 4L27 3L28 3L28 4L29 4L29 3L30 3L30 2ZM11 4L11 6L10 6L10 9L12 9L12 10L13 10L13 8L14 8L14 9L15 9L15 10L16 10L16 11L17 11L17 14L15 14L15 15L18 15L18 17L19 17L19 18L20 18L20 17L21 17L21 18L23 18L23 20L20 20L20 19L19 19L19 20L18 20L18 22L17 22L17 23L18 23L18 25L19 25L19 20L20 20L20 21L21 21L21 22L20 22L20 23L21 23L21 26L20 26L20 27L18 27L18 28L19 28L19 31L18 31L18 33L17 33L17 35L16 35L16 37L17 37L17 35L18 35L18 34L20 34L20 33L19 33L19 31L20 31L20 27L21 27L21 30L22 30L22 33L23 33L23 34L22 34L22 39L20 39L20 38L21 38L21 36L18 36L18 37L19 37L19 38L18 38L18 39L17 39L17 38L16 38L16 39L17 39L17 40L13 40L13 41L15 41L15 42L14 42L14 43L13 43L13 42L12 42L12 43L11 43L11 44L10 44L10 45L11 45L11 46L9 46L9 47L11 47L11 46L12 46L12 48L11 48L11 49L12 49L12 48L13 48L13 47L15 47L15 46L16 46L16 47L17 47L17 48L18 48L18 47L20 47L20 45L21 45L21 44L20 44L20 43L21 43L21 42L22 42L22 41L23 41L23 40L22 40L22 39L23 39L23 35L25 35L25 36L24 36L24 37L26 37L26 38L24 38L24 39L26 39L26 40L25 40L25 41L26 41L26 42L24 42L24 43L25 43L25 45L26 45L26 46L28 46L28 47L29 47L29 46L30 46L30 47L31 47L31 46L32 46L32 45L33 45L33 44L35 44L35 43L36 43L36 41L37 41L37 42L38 42L38 41L39 41L39 42L40 42L40 43L37 43L37 44L36 44L36 45L35 45L35 46L36 46L36 47L37 47L37 48L36 48L36 49L37 49L37 51L35 51L35 52L36 52L36 53L37 53L37 51L38 51L38 47L37 47L37 46L38 46L38 45L37 45L37 44L40 44L40 45L39 45L39 47L40 47L40 49L41 49L41 47L42 47L42 45L43 45L43 44L42 44L42 45L41 45L41 44L40 44L40 43L44 43L44 41L43 41L43 42L42 42L42 41L41 41L41 40L40 40L40 39L41 39L41 38L42 38L42 37L43 37L43 36L42 36L42 37L41 37L41 35L40 35L40 36L39 36L39 38L38 38L38 37L37 37L37 36L38 36L38 35L39 35L39 34L38 34L38 33L39 33L39 32L40 32L40 34L42 34L42 33L41 33L41 32L40 32L40 31L38 31L38 30L37 30L37 31L36 31L36 33L35 33L35 31L34 31L34 29L35 29L35 30L36 30L36 29L37 29L37 28L38 28L38 29L39 29L39 28L40 28L40 27L41 27L41 24L42 24L42 25L43 25L43 24L44 24L44 25L45 25L45 24L44 24L44 23L45 23L45 22L44 22L44 21L45 21L45 19L44 19L44 17L45 17L45 18L46 18L46 17L45 17L45 16L44 16L44 17L43 17L43 18L42 18L42 17L41 17L41 15L42 15L42 12L41 12L41 11L40 11L40 18L38 18L38 16L37 16L37 15L38 15L38 13L37 13L37 12L36 12L36 13L35 13L35 12L34 12L34 11L33 11L33 12L32 12L32 13L31 13L31 14L32 14L32 13L33 13L33 15L31 15L31 16L30 16L30 15L29 15L29 13L30 13L30 12L29 12L29 11L28 11L28 12L27 12L27 14L28 14L28 15L29 15L29 16L30 16L30 17L28 17L28 18L30 18L30 17L33 17L33 18L32 18L32 19L31 19L31 20L28 20L28 21L27 21L27 20L26 20L26 19L27 19L27 18L26 18L26 17L27 17L27 16L26 16L26 14L24 14L24 13L26 13L26 11L24 11L24 13L23 13L23 14L24 14L24 16L22 16L22 14L20 14L20 13L21 13L21 12L20 12L20 13L19 13L19 12L18 12L18 11L19 11L19 10L20 10L20 9L19 9L19 8L18 8L18 7L17 7L17 6L16 6L16 7L17 7L17 10L16 10L16 9L15 9L15 6L14 6L14 7L13 7L13 6L12 6L12 4ZM44 4L44 5L43 5L43 6L42 6L42 7L43 7L43 6L44 6L44 5L45 5L45 4ZM27 5L27 8L30 8L30 5ZM11 6L11 8L13 8L13 7L12 7L12 6ZM24 6L24 7L25 7L25 6ZM28 6L28 7L29 7L29 6ZM32 6L32 7L33 7L33 6ZM30 9L30 10L31 10L31 9ZM52 10L52 11L51 11L51 12L52 12L52 11L53 11L53 10ZM56 10L56 11L57 11L57 10ZM14 11L14 12L15 12L15 11ZM22 11L22 12L23 12L23 11ZM18 13L18 15L20 15L20 14L19 14L19 13ZM34 13L34 15L33 15L33 17L34 17L34 18L36 18L36 19L37 19L37 18L36 18L36 15L37 15L37 13L36 13L36 14L35 14L35 13ZM6 14L6 15L7 15L7 14ZM51 14L51 15L52 15L52 14ZM34 15L34 17L35 17L35 15ZM53 15L53 16L52 16L52 18L53 18L53 17L54 17L54 15ZM6 16L6 17L9 17L9 16ZM19 16L19 17L20 17L20 16ZM24 16L24 18L25 18L25 19L24 19L24 20L25 20L25 19L26 19L26 18L25 18L25 17L26 17L26 16ZM40 18L40 19L39 19L39 20L38 20L38 22L37 22L37 21L36 21L36 20L35 20L35 21L34 21L34 22L33 22L33 21L32 21L32 20L31 20L31 21L30 21L30 22L29 22L29 21L28 21L28 22L26 22L26 23L27 23L27 25L26 25L26 26L31 26L31 25L32 25L32 27L31 27L31 30L32 30L32 31L31 31L31 32L30 32L30 34L32 34L32 31L33 31L33 30L32 30L32 28L33 28L33 29L34 29L34 27L35 27L35 29L36 29L36 27L37 27L37 26L36 26L36 24L37 24L37 25L38 25L38 26L40 26L40 23L42 23L42 24L43 24L43 23L44 23L44 22L43 22L43 21L44 21L44 19L42 19L42 20L41 20L41 21L42 21L42 22L40 22L40 19L41 19L41 18ZM5 19L5 20L4 20L4 21L5 21L5 22L6 22L6 23L7 23L7 24L8 24L8 23L7 23L7 22L8 22L8 20L6 20L6 19ZM14 19L14 20L15 20L15 19ZM53 19L53 20L52 20L52 22L51 22L51 24L52 24L52 22L54 22L54 23L55 23L55 21L54 21L54 19ZM6 21L6 22L7 22L7 21ZM35 21L35 22L34 22L34 24L33 24L33 22L31 22L31 23L29 23L29 24L28 24L28 25L29 25L29 24L30 24L30 25L31 25L31 23L32 23L32 25L33 25L33 26L34 26L34 24L36 24L36 23L37 23L37 22L36 22L36 21ZM21 22L21 23L22 23L22 24L23 24L23 25L24 25L24 26L23 26L23 27L22 27L22 28L23 28L23 29L22 29L22 30L23 30L23 32L24 32L24 34L25 34L25 35L26 35L26 37L27 37L27 38L26 38L26 39L27 39L27 40L28 40L28 42L27 42L27 43L28 43L28 42L29 42L29 44L28 44L28 46L29 46L29 44L30 44L30 36L31 36L31 37L32 37L32 36L31 36L31 35L28 35L28 34L29 34L29 32L27 32L27 33L28 33L28 34L26 34L26 30L25 30L25 29L24 29L24 28L25 28L25 27L24 27L24 26L25 26L25 25L24 25L24 24L23 24L23 23L22 23L22 22ZM24 22L24 23L25 23L25 22ZM35 22L35 23L36 23L36 22ZM38 22L38 23L39 23L39 22ZM42 22L42 23L43 23L43 22ZM48 22L48 23L46 23L46 25L47 25L47 26L48 26L48 25L49 25L49 23L50 23L50 22ZM47 24L47 25L48 25L48 24ZM1 25L1 26L2 26L2 27L3 27L3 26L2 26L2 25ZM5 27L5 30L8 30L8 27ZM27 27L27 30L30 30L30 27ZM49 27L49 30L52 30L52 27ZM6 28L6 29L7 29L7 28ZM28 28L28 29L29 29L29 28ZM50 28L50 29L51 29L51 28ZM23 29L23 30L24 30L24 29ZM0 30L0 31L1 31L1 32L0 32L0 33L3 33L3 32L2 32L2 30ZM54 30L54 31L53 31L53 32L54 32L54 31L55 31L55 30ZM5 31L5 33L6 33L6 32L7 32L7 31ZM24 31L24 32L25 32L25 31ZM37 31L37 32L38 32L38 31ZM33 32L33 33L34 33L34 35L33 35L33 36L34 36L34 38L31 38L31 43L32 43L32 40L33 40L33 41L34 41L34 42L35 42L35 41L36 41L36 38L37 38L37 41L38 41L38 38L37 38L37 37L36 37L36 35L38 35L38 34L37 34L37 33L36 33L36 35L35 35L35 33L34 33L34 32ZM50 33L50 37L48 37L48 40L47 40L47 41L48 41L48 40L51 40L51 38L52 38L52 37L53 37L53 36L54 36L54 34L53 34L53 36L52 36L52 37L51 37L51 33ZM1 34L1 35L2 35L2 36L0 36L0 37L3 37L3 36L5 36L5 35L3 35L3 34ZM27 35L27 36L28 36L28 37L29 37L29 36L28 36L28 35ZM34 35L34 36L35 36L35 35ZM46 35L46 36L47 36L47 35ZM6 37L6 38L7 38L7 37ZM35 37L35 38L34 38L34 41L35 41L35 38L36 38L36 37ZM50 37L50 38L51 38L51 37ZM1 38L1 40L3 40L3 39L4 39L4 38L3 38L3 39L2 39L2 38ZM28 38L28 39L29 39L29 38ZM39 38L39 39L40 39L40 38ZM18 39L18 40L19 40L19 41L20 41L20 42L21 42L21 41L22 41L22 40L21 40L21 41L20 41L20 40L19 40L19 39ZM39 40L39 41L40 41L40 40ZM55 40L55 41L56 41L56 43L57 43L57 40ZM16 41L16 43L17 43L17 41ZM18 43L18 44L19 44L19 45L18 45L18 46L17 46L17 45L16 45L16 44L15 44L15 45L14 45L14 44L12 44L12 45L13 45L13 46L15 46L15 45L16 45L16 46L17 46L17 47L18 47L18 46L19 46L19 45L20 45L20 44L19 44L19 43ZM31 44L31 45L30 45L30 46L31 46L31 45L32 45L32 44ZM40 45L40 47L41 47L41 45ZM49 45L49 48L50 48L50 46L51 46L51 45ZM52 45L52 46L53 46L53 45ZM1 46L1 47L2 47L2 46ZM3 46L3 47L5 47L5 46ZM27 49L27 52L30 52L30 49ZM45 49L45 50L46 50L46 49ZM49 49L49 52L52 52L52 49ZM28 50L28 51L29 51L29 50ZM50 50L50 51L51 51L51 50ZM9 51L9 52L10 52L10 51ZM14 51L14 52L15 52L15 51ZM21 51L21 53L22 53L22 51ZM42 51L42 52L41 52L41 53L42 53L42 54L40 54L40 56L41 56L41 55L42 55L42 54L43 54L43 55L44 55L44 52L43 52L43 51ZM47 51L47 52L48 52L48 51ZM17 52L17 53L18 53L18 52ZM39 52L39 53L40 53L40 52ZM14 53L14 55L15 55L15 53ZM27 53L27 55L28 55L28 53ZM12 54L12 55L13 55L13 54ZM16 54L16 55L18 55L18 54ZM22 54L22 55L23 55L23 54ZM24 54L24 55L26 55L26 54ZM55 54L55 55L57 55L57 54ZM36 56L36 57L37 57L37 56ZM51 56L51 57L53 57L53 56ZM56 56L56 57L57 57L57 56ZM0 0L0 7L7 7L7 0ZM1 1L1 6L6 6L6 1ZM2 2L2 5L5 5L5 2ZM50 0L50 7L57 7L57 0ZM51 1L51 6L56 6L56 1ZM52 2L52 5L55 5L55 2ZM0 50L0 57L7 57L7 50ZM1 51L1 56L6 56L6 51ZM2 52L2 55L5 55L5 52Z" fill="#000000"/></g></g></svg>
