<?xml version="1.0" encoding="UTF-8"?>
<svg xmlns="http://www.w3.org/2000/svg" version="1.1" width="300" height="300" viewBox="0 0 300 300"><rect x="0" y="0" width="300" height="300" fill="#fefefe"/><g transform="scale(4.615)"><g transform="translate(4,4)"><path fill-rule="evenodd" d="M9 0L9 1L8 1L8 3L11 3L11 2L12 2L12 4L11 4L11 6L10 6L10 7L9 7L9 5L10 5L10 4L8 4L8 8L6 8L6 9L7 9L7 10L6 10L6 11L7 11L7 12L5 12L5 13L7 13L7 14L6 14L6 15L7 15L7 14L9 14L9 15L8 15L8 19L7 19L7 18L6 18L6 17L7 17L7 16L4 16L4 17L3 17L3 15L2 15L2 13L3 13L3 12L4 12L4 11L5 11L5 10L4 10L4 8L3 8L3 9L2 9L2 8L0 8L0 10L1 10L1 11L0 11L0 12L2 12L2 13L1 13L1 16L0 16L0 17L1 17L1 16L2 16L2 18L4 18L4 23L3 23L3 20L2 20L2 19L0 19L0 21L1 21L1 22L0 22L0 23L1 23L1 24L0 24L0 25L2 25L2 23L3 23L3 24L5 24L5 25L4 25L4 26L1 26L1 27L2 27L2 29L1 29L1 28L0 28L0 29L1 29L1 31L0 31L0 32L1 32L1 31L2 31L2 33L0 33L0 34L1 34L1 35L0 35L0 36L1 36L1 37L0 37L0 38L1 38L1 40L3 40L3 39L2 39L2 36L1 36L1 35L2 35L2 34L3 34L3 35L4 35L4 34L5 34L5 33L4 33L4 32L6 32L6 33L8 33L8 34L6 34L6 35L7 35L7 36L5 36L5 37L7 37L7 36L8 36L8 34L9 34L9 37L8 37L8 38L4 38L4 36L3 36L3 38L4 38L4 39L8 39L8 40L5 40L5 42L4 42L4 41L3 41L3 42L0 42L0 43L2 43L2 44L3 44L3 45L4 45L4 43L8 43L8 42L9 42L9 43L12 43L12 45L13 45L13 43L14 43L14 42L12 42L12 41L11 41L11 39L12 39L12 37L11 37L11 35L10 35L10 33L11 33L11 30L12 30L12 29L14 29L14 28L15 28L15 30L16 30L16 33L17 33L17 32L18 32L18 36L15 36L15 33L14 33L14 34L13 34L13 33L12 33L12 36L13 36L13 41L15 41L15 40L16 40L16 41L17 41L17 42L15 42L15 43L17 43L17 42L18 42L18 43L19 43L19 41L20 41L20 42L21 42L21 43L20 43L20 44L14 44L14 46L13 46L13 47L12 47L12 48L13 48L13 47L14 47L14 49L16 49L16 50L17 50L17 49L19 49L19 50L20 50L20 51L18 51L18 52L17 52L17 53L16 53L16 54L18 54L18 57L19 57L19 55L21 55L21 56L20 56L20 57L26 57L26 56L27 56L27 55L28 55L28 56L29 56L29 57L31 57L31 56L33 56L33 57L35 57L35 56L36 56L36 57L41 57L41 56L42 56L42 57L44 57L44 56L43 56L43 55L45 55L45 54L44 54L44 53L45 53L45 52L46 52L46 53L47 53L47 52L48 52L48 53L52 53L52 54L51 54L51 56L50 56L50 54L47 54L47 55L46 55L46 57L47 57L47 55L49 55L49 56L50 56L50 57L51 57L51 56L52 56L52 57L54 57L54 56L53 56L53 54L56 54L56 55L57 55L57 53L56 53L56 52L57 52L57 51L56 51L56 52L54 52L54 53L53 53L53 49L55 49L55 50L57 50L57 49L55 49L55 48L54 48L54 47L55 47L55 46L56 46L56 48L57 48L57 40L56 40L56 39L57 39L57 36L56 36L56 35L57 35L57 34L56 34L56 33L57 33L57 32L56 32L56 31L57 31L57 30L54 30L54 28L53 28L53 27L55 27L55 26L57 26L57 18L56 18L56 17L57 17L57 15L56 15L56 14L57 14L57 10L56 10L56 11L55 11L55 9L56 9L56 8L54 8L54 9L53 9L53 8L50 8L50 9L53 9L53 10L54 10L54 11L52 11L52 10L50 10L50 11L49 11L49 14L48 14L48 16L47 16L47 18L45 18L45 17L46 17L46 15L45 15L45 13L46 13L46 14L47 14L47 12L48 12L48 9L47 9L47 8L49 8L49 6L48 6L48 7L47 7L47 5L48 5L48 0L44 0L44 1L45 1L45 2L44 2L44 3L45 3L45 2L46 2L46 3L47 3L47 5L46 5L46 7L45 7L45 4L44 4L44 8L43 8L43 6L42 6L42 9L43 9L43 10L42 10L42 12L43 12L43 13L44 13L44 15L45 15L45 16L44 16L44 18L45 18L45 19L44 19L44 20L40 20L40 19L39 19L39 18L42 18L42 19L43 19L43 18L42 18L42 14L41 14L41 10L39 10L39 11L40 11L40 14L38 14L38 12L36 12L36 11L38 11L38 10L37 10L37 9L38 9L38 8L39 8L39 9L41 9L41 6L40 6L40 5L43 5L43 3L41 3L41 4L38 4L38 8L37 8L37 6L36 6L36 7L35 7L35 5L36 5L36 4L35 4L35 5L34 5L34 4L33 4L33 5L32 5L32 4L31 4L31 3L30 3L30 2L29 2L29 1L31 1L31 2L32 2L32 3L35 3L35 2L34 2L34 1L36 1L36 2L37 2L37 1L38 1L38 2L40 2L40 1L43 1L43 0L40 0L40 1L39 1L39 0L37 0L37 1L36 1L36 0L29 0L29 1L28 1L28 2L27 2L27 0L22 0L22 1L21 1L21 0L19 0L19 1L17 1L17 0L14 0L14 2L12 2L12 1L11 1L11 0ZM9 1L9 2L11 2L11 1ZM16 1L16 3L15 3L15 2L14 2L14 3L13 3L13 4L12 4L12 5L13 5L13 4L15 4L15 7L14 7L14 6L13 6L13 7L12 7L12 6L11 6L11 7L10 7L10 8L8 8L8 9L9 9L9 11L8 11L8 12L9 12L9 13L10 13L10 12L9 12L9 11L11 11L11 12L12 12L12 9L13 9L13 7L14 7L14 10L13 10L13 11L14 11L14 13L12 13L12 14L10 14L10 15L9 15L9 18L10 18L10 15L12 15L12 14L15 14L15 15L16 15L16 16L15 16L15 17L14 17L14 16L13 16L13 17L11 17L11 19L12 19L12 21L11 21L11 22L10 22L10 23L11 23L11 22L12 22L12 21L13 21L13 24L12 24L12 25L10 25L10 24L7 24L7 23L8 23L8 21L10 21L10 19L9 19L9 20L7 20L7 19L6 19L6 18L5 18L5 19L6 19L6 20L7 20L7 21L5 21L5 24L7 24L7 25L5 25L5 26L7 26L7 25L8 25L8 26L12 26L12 25L13 25L13 27L12 27L12 28L13 28L13 27L14 27L14 25L15 25L15 26L16 26L16 20L17 20L17 21L18 21L18 22L19 22L19 23L17 23L17 24L19 24L19 23L20 23L20 22L22 22L22 21L21 21L21 18L22 18L22 20L25 20L25 22L24 22L24 21L23 21L23 23L21 23L21 24L20 24L20 27L19 27L19 25L17 25L17 27L19 27L19 28L18 28L18 29L16 29L16 30L18 30L18 32L19 32L19 34L20 34L20 35L19 35L19 37L20 37L20 35L22 35L22 36L26 36L26 37L24 37L24 38L23 38L23 39L24 39L24 40L22 40L22 39L21 39L21 40L22 40L22 46L21 46L21 44L20 44L20 45L15 45L15 46L16 46L16 48L18 48L18 47L17 47L17 46L19 46L19 48L24 48L24 49L22 49L22 50L24 50L24 51L25 51L25 45L27 45L27 46L26 46L26 47L27 47L27 46L29 46L29 44L31 44L31 47L30 47L30 48L31 48L31 47L32 47L32 48L33 48L33 47L34 47L34 49L33 49L33 50L32 50L32 49L31 49L31 51L33 51L33 52L36 52L36 51L38 51L38 52L37 52L37 53L36 53L36 54L35 54L35 53L32 53L32 55L33 55L33 54L35 54L35 55L34 55L34 56L35 56L35 55L36 55L36 56L39 56L39 55L40 55L40 56L41 56L41 54L40 54L40 53L41 53L41 52L40 52L40 51L41 51L41 50L43 50L43 45L42 45L42 44L44 44L44 45L45 45L45 46L44 46L44 47L46 47L46 48L45 48L45 49L44 49L44 51L42 51L42 54L43 54L43 53L44 53L44 51L45 51L45 50L46 50L46 49L47 49L47 50L48 50L48 48L47 48L47 47L48 47L48 46L49 46L49 45L50 45L50 46L51 46L51 47L49 47L49 48L53 48L53 47L52 47L52 46L53 46L53 45L54 45L54 46L55 46L55 45L56 45L56 43L54 43L54 42L55 42L55 41L54 41L54 40L55 40L55 38L54 38L54 39L53 39L53 38L52 38L52 36L53 36L53 35L54 35L54 36L55 36L55 37L56 37L56 36L55 36L55 35L56 35L56 34L55 34L55 33L56 33L56 32L55 32L55 31L54 31L54 30L53 30L53 31L51 31L51 32L52 32L52 34L53 34L53 35L52 35L52 36L51 36L51 35L50 35L50 34L47 34L47 33L45 33L45 32L43 32L43 33L42 33L42 32L41 32L41 34L42 34L42 35L41 35L41 36L42 36L42 35L44 35L44 36L45 36L45 38L44 38L44 37L42 37L42 38L41 38L41 37L40 37L40 36L39 36L39 35L38 35L38 34L39 34L39 32L40 32L40 31L39 31L39 30L40 30L40 29L42 29L42 30L41 30L41 31L47 31L47 32L48 32L48 27L47 27L47 29L46 29L46 27L45 27L45 29L44 29L44 25L43 25L43 24L44 24L44 22L45 22L45 20L44 20L44 21L41 21L41 23L42 23L42 22L43 22L43 24L41 24L41 25L40 25L40 27L39 27L39 25L38 25L38 26L34 26L34 25L35 25L35 24L33 24L33 23L32 23L32 24L33 24L33 25L32 25L32 26L31 26L31 25L30 25L30 26L31 26L31 29L32 29L32 28L33 28L33 27L32 27L32 26L34 26L34 27L35 27L35 28L34 28L34 29L33 29L33 31L31 31L31 32L30 32L30 31L28 31L28 33L27 33L27 32L26 32L26 31L25 31L25 32L24 32L24 33L22 33L22 34L21 34L21 30L23 30L23 31L22 31L22 32L23 32L23 31L24 31L24 30L26 30L26 29L24 29L24 30L23 30L23 27L22 27L22 26L25 26L25 28L26 28L26 26L27 26L27 25L26 25L26 24L27 24L27 23L28 23L28 24L31 24L31 23L30 23L30 22L31 22L31 18L32 18L32 19L33 19L33 18L35 18L35 19L34 19L34 20L35 20L35 21L33 21L33 20L32 20L32 22L34 22L34 23L35 23L35 22L38 22L38 24L39 24L39 21L38 21L38 17L39 17L39 15L38 15L38 14L36 14L36 15L38 15L38 17L37 17L37 18L36 18L36 17L35 17L35 16L34 16L34 17L33 17L33 18L32 18L32 16L31 16L31 15L32 15L32 14L33 14L33 15L35 15L35 14L34 14L34 12L35 12L35 11L36 11L36 10L35 10L35 9L36 9L36 8L35 8L35 7L34 7L34 5L33 5L33 7L32 7L32 6L31 6L31 8L32 8L32 9L29 9L29 13L28 13L28 12L26 12L26 11L28 11L28 10L26 10L26 9L25 9L25 8L26 8L26 6L25 6L25 5L24 5L24 4L29 4L29 2L28 2L28 3L27 3L27 2L26 2L26 1L23 1L23 2L24 2L24 3L22 3L22 2L21 2L21 1L20 1L20 4L19 4L19 2L18 2L18 3L17 3L17 1ZM46 1L46 2L47 2L47 1ZM17 5L17 6L16 6L16 7L15 7L15 11L16 11L16 12L15 12L15 14L16 14L16 15L17 15L17 16L16 16L16 17L18 17L18 18L17 18L17 20L18 20L18 21L19 21L19 22L20 22L20 20L18 20L18 18L19 18L19 17L20 17L20 18L21 18L21 17L20 17L20 16L19 16L19 15L17 15L17 13L16 13L16 12L18 12L18 13L19 13L19 14L20 14L20 15L21 15L21 14L24 14L24 15L23 15L23 16L25 16L25 15L26 15L26 13L25 13L25 14L24 14L24 12L25 12L25 10L24 10L24 9L23 9L23 8L24 8L24 7L25 7L25 6L24 6L24 5L23 5L23 6L22 6L22 5L21 5L21 6L20 6L20 5ZM27 5L27 8L30 8L30 5ZM17 6L17 8L16 8L16 11L18 11L18 12L19 12L19 11L18 11L18 10L20 10L20 12L21 12L21 8L19 8L19 9L18 9L18 6ZM19 6L19 7L20 7L20 6ZM21 6L21 7L22 7L22 8L23 8L23 7L24 7L24 6L23 6L23 7L22 7L22 6ZM28 6L28 7L29 7L29 6ZM39 6L39 8L40 8L40 6ZM11 7L11 8L10 8L10 9L11 9L11 8L12 8L12 7ZM33 7L33 8L34 8L34 9L35 9L35 8L34 8L34 7ZM46 7L46 8L47 8L47 7ZM44 8L44 9L45 9L45 8ZM17 9L17 10L18 10L18 9ZM22 9L22 10L23 10L23 9ZM46 9L46 10L47 10L47 9ZM30 10L30 12L31 12L31 14L32 14L32 13L33 13L33 12L32 12L32 10ZM33 10L33 11L34 11L34 10ZM44 10L44 11L45 11L45 10ZM23 11L23 12L22 12L22 13L23 13L23 12L24 12L24 11ZM50 11L50 12L51 12L51 13L50 13L50 14L49 14L49 15L50 15L50 14L51 14L51 15L53 15L53 16L52 16L52 17L51 17L51 16L50 16L50 17L48 17L48 18L47 18L47 19L46 19L46 20L47 20L47 19L50 19L50 17L51 17L51 18L52 18L52 19L53 19L53 20L54 20L54 21L56 21L56 19L53 19L53 18L54 18L54 17L53 17L53 16L55 16L55 17L56 17L56 15L55 15L55 14L56 14L56 13L55 13L55 11L54 11L54 13L55 13L55 14L53 14L53 13L52 13L52 12L51 12L51 11ZM20 13L20 14L21 14L21 13ZM29 13L29 14L27 14L27 16L26 16L26 17L25 17L25 18L24 18L24 17L22 17L22 18L24 18L24 19L25 19L25 20L26 20L26 19L25 19L25 18L26 18L26 17L27 17L27 21L26 21L26 22L25 22L25 23L23 23L23 24L21 24L21 25L25 25L25 26L26 26L26 25L25 25L25 23L26 23L26 22L28 22L28 23L29 23L29 21L30 21L30 17L31 17L31 16L28 16L28 15L29 15L29 14L30 14L30 13ZM51 13L51 14L52 14L52 13ZM4 14L4 15L5 15L5 14ZM40 16L40 17L41 17L41 16ZM13 17L13 18L12 18L12 19L13 19L13 20L14 20L14 19L15 19L15 20L16 20L16 19L15 19L15 18L14 18L14 17ZM13 18L13 19L14 19L14 18ZM28 18L28 19L29 19L29 18ZM36 19L36 21L37 21L37 19ZM48 20L48 21L46 21L46 22L47 22L47 23L45 23L45 24L47 24L47 26L49 26L49 25L50 25L50 26L51 26L51 25L50 25L50 24L53 24L53 25L52 25L52 26L55 26L55 24L56 24L56 22L55 22L55 23L54 23L54 24L53 24L53 23L52 23L52 22L51 22L51 21L50 21L50 24L49 24L49 25L48 25L48 23L49 23L49 20ZM1 22L1 23L2 23L2 22ZM6 22L6 23L7 23L7 22ZM14 22L14 24L15 24L15 22ZM36 23L36 24L37 24L37 23ZM28 25L28 26L29 26L29 25ZM45 25L45 26L46 26L46 25ZM41 26L41 27L42 27L42 28L43 28L43 27L42 27L42 26ZM3 27L3 28L4 28L4 27ZM5 27L5 30L8 30L8 27ZM9 27L9 30L10 30L10 29L11 29L11 27ZM15 27L15 28L16 28L16 27ZM27 27L27 30L30 30L30 27ZM36 27L36 28L35 28L35 31L34 31L34 32L33 32L33 36L27 36L27 35L28 35L28 34L27 34L27 33L26 33L26 32L25 32L25 34L24 34L24 35L26 35L26 36L27 36L27 37L26 37L26 39L25 39L25 38L24 38L24 39L25 39L25 42L26 42L26 43L25 43L25 44L27 44L27 45L28 45L28 43L31 43L31 44L33 44L33 45L34 45L34 44L33 44L33 42L32 42L32 41L34 41L34 40L35 40L35 42L34 42L34 43L35 43L35 44L36 44L36 45L35 45L35 46L34 46L34 47L35 47L35 46L36 46L36 45L41 45L41 44L42 44L42 43L44 43L44 44L45 44L45 43L47 43L47 46L46 46L46 47L47 47L47 46L48 46L48 45L49 45L49 43L50 43L50 45L51 45L51 42L49 42L49 43L48 43L48 42L45 42L45 43L44 43L44 41L46 41L46 40L52 40L52 41L53 41L53 42L54 42L54 41L53 41L53 39L50 39L50 38L51 38L51 36L50 36L50 35L47 35L47 36L46 36L46 34L44 34L44 35L45 35L45 36L46 36L46 38L45 38L45 39L42 39L42 40L41 40L41 43L40 43L40 42L39 42L39 41L40 41L40 39L41 39L41 38L39 38L39 39L37 39L37 38L38 38L38 37L37 37L37 36L38 36L38 35L36 35L36 36L35 36L35 34L34 34L34 33L35 33L35 32L36 32L36 33L37 33L37 31L36 31L36 29L37 29L37 30L39 30L39 29L40 29L40 28L39 28L39 27L38 27L38 29L37 29L37 27ZM49 27L49 30L52 30L52 27ZM6 28L6 29L7 29L7 28ZM28 28L28 29L29 29L29 28ZM50 28L50 29L51 29L51 28ZM56 28L56 29L57 29L57 28ZM20 29L20 30L21 30L21 29ZM45 29L45 30L46 30L46 29ZM2 30L2 31L3 31L3 32L4 32L4 31L3 31L3 30ZM6 31L6 32L7 32L7 31ZM8 31L8 32L9 32L9 33L10 33L10 31ZM13 31L13 32L15 32L15 31ZM19 31L19 32L20 32L20 31ZM38 31L38 32L39 32L39 31ZM49 31L49 33L50 33L50 31ZM53 31L53 32L54 32L54 31ZM29 32L29 33L30 33L30 32ZM31 32L31 33L32 33L32 32ZM3 33L3 34L4 34L4 33ZM53 33L53 34L54 34L54 33ZM26 34L26 35L27 35L27 34ZM30 34L30 35L32 35L32 34ZM14 36L14 40L15 40L15 36ZM33 36L33 39L32 39L32 40L30 40L30 41L32 41L32 40L33 40L33 39L34 39L34 37L35 37L35 39L36 39L36 38L37 38L37 37L35 37L35 36ZM47 36L47 39L49 39L49 38L50 38L50 36L49 36L49 38L48 38L48 36ZM9 37L9 38L8 38L8 39L10 39L10 37ZM21 37L21 38L22 38L22 37ZM17 38L17 39L16 39L16 40L17 40L17 41L18 41L18 40L20 40L20 38L19 38L19 39L18 39L18 38ZM29 38L29 39L28 39L28 40L27 40L27 39L26 39L26 40L27 40L27 41L26 41L26 42L29 42L29 41L28 41L28 40L29 40L29 39L30 39L30 38ZM9 40L9 41L10 41L10 40ZM37 40L37 41L36 41L36 42L35 42L35 43L36 43L36 44L37 44L37 42L38 42L38 43L39 43L39 44L40 44L40 43L39 43L39 42L38 42L38 40ZM43 40L43 41L42 41L42 42L43 42L43 41L44 41L44 40ZM6 41L6 42L7 42L7 41ZM23 41L23 42L24 42L24 41ZM3 42L3 43L4 43L4 42ZM52 43L52 45L53 45L53 43ZM0 44L0 48L5 48L5 47L9 47L9 48L6 48L6 49L8 49L8 51L9 51L9 49L10 49L10 50L11 50L11 47L10 47L10 46L11 46L11 45L10 45L10 46L5 46L5 47L3 47L3 46L2 46L2 45L1 45L1 44ZM5 44L5 45L7 45L7 44ZM8 44L8 45L9 45L9 44ZM1 46L1 47L2 47L2 46ZM20 46L20 47L21 47L21 46ZM22 46L22 47L23 47L23 46ZM32 46L32 47L33 47L33 46ZM40 46L40 47L38 47L38 48L39 48L39 49L40 49L40 50L41 50L41 49L42 49L42 48L41 48L41 46ZM28 47L28 48L29 48L29 47ZM35 48L35 49L34 49L34 50L33 50L33 51L35 51L35 50L36 50L36 49L37 49L37 50L38 50L38 51L39 51L39 50L38 50L38 49L37 49L37 48ZM12 49L12 53L11 53L11 54L12 54L12 53L13 53L13 56L12 56L12 55L11 55L11 57L13 57L13 56L14 56L14 57L15 57L15 56L14 56L14 55L15 55L15 52L14 52L14 51L13 51L13 49ZM20 49L20 50L21 50L21 49ZM27 49L27 52L30 52L30 49ZM49 49L49 52L52 52L52 49ZM28 50L28 51L29 51L29 50ZM50 50L50 51L51 51L51 50ZM21 51L21 52L22 52L22 53L24 53L24 52L22 52L22 51ZM9 52L9 53L8 53L8 54L9 54L9 53L10 53L10 52ZM13 52L13 53L14 53L14 52ZM19 52L19 53L18 53L18 54L19 54L19 53L20 53L20 52ZM25 52L25 54L22 54L22 56L24 56L24 55L25 55L25 54L26 54L26 52ZM38 52L38 54L36 54L36 55L38 55L38 54L39 54L39 53L40 53L40 52ZM29 54L29 56L30 56L30 55L31 55L31 54ZM8 55L8 57L9 57L9 55ZM16 56L16 57L17 57L17 56ZM55 56L55 57L56 57L56 56ZM0 0L0 7L7 7L7 0ZM1 1L1 6L6 6L6 1ZM2 2L2 5L5 5L5 2ZM50 0L50 7L57 7L57 0ZM51 1L51 6L56 6L56 1ZM52 2L52 5L55 5L55 2ZM0 50L0 57L7 57L7 50ZM1 51L1 56L6 56L6 51ZM2 52L2 55L5 55L5 52Z" fill="#000000"/></g></g></svg>
