<?xml version="1.0" encoding="UTF-8"?>
<svg xmlns="http://www.w3.org/2000/svg" version="1.1" width="300" height="300" viewBox="0 0 300 300"><rect x="0" y="0" width="300" height="300" fill="#fefefe"/><g transform="scale(4.615)"><g transform="translate(4,4)"><path fill-rule="evenodd" d="M8 0L8 1L9 1L9 0ZM11 0L11 1L10 1L10 2L8 2L8 5L9 5L9 6L8 6L8 7L9 7L9 6L10 6L10 7L11 7L11 6L12 6L12 8L11 8L11 11L10 11L10 12L11 12L11 11L12 11L12 8L13 8L13 4L14 4L14 5L15 5L15 6L14 6L14 8L15 8L15 11L14 11L14 10L13 10L13 13L12 13L12 14L11 14L11 13L10 13L10 14L9 14L9 15L10 15L10 18L9 18L9 16L6 16L6 15L8 15L8 14L6 14L6 15L5 15L5 14L4 14L4 13L5 13L5 11L4 11L4 10L6 10L6 11L7 11L7 12L6 12L6 13L9 13L9 8L8 8L8 9L7 9L7 8L6 8L6 9L4 9L4 8L0 8L0 10L1 10L1 11L0 11L0 12L3 12L3 13L2 13L2 15L1 15L1 16L2 16L2 17L0 17L0 18L2 18L2 17L3 17L3 14L4 14L4 17L8 17L8 18L9 18L9 19L7 19L7 18L6 18L6 19L5 19L5 18L4 18L4 19L5 19L5 21L4 21L4 20L3 20L3 19L2 19L2 21L0 21L0 27L3 27L3 28L1 28L1 29L0 29L0 31L3 31L3 32L4 32L4 33L3 33L3 34L2 34L2 33L1 33L1 32L0 32L0 34L1 34L1 35L2 35L2 36L1 36L1 37L0 37L0 38L2 38L2 39L3 39L3 40L0 40L0 41L2 41L2 42L3 42L3 41L5 41L5 42L4 42L4 43L3 43L3 44L2 44L2 47L1 47L1 46L0 46L0 48L5 48L5 47L8 47L8 48L6 48L6 49L8 49L8 50L9 50L9 52L10 52L10 50L11 50L11 51L12 51L12 52L13 52L13 51L15 51L15 50L16 50L16 51L17 51L17 52L18 52L18 51L19 51L19 55L17 55L17 54L18 54L18 53L17 53L17 54L16 54L16 53L15 53L15 52L14 52L14 54L15 54L15 55L12 55L12 54L13 54L13 53L12 53L12 54L10 54L10 57L12 57L12 56L13 56L13 57L14 57L14 56L15 56L15 57L18 57L18 56L19 56L19 55L20 55L20 56L21 56L21 57L24 57L24 56L25 56L25 55L26 55L26 56L28 56L28 55L26 55L26 54L27 54L27 53L29 53L29 54L31 54L31 55L30 55L30 56L31 56L31 57L32 57L32 55L34 55L34 56L33 56L33 57L36 57L36 55L38 55L38 57L41 57L41 56L40 56L40 55L41 55L41 54L42 54L42 57L43 57L43 55L44 55L44 56L46 56L46 57L47 57L47 56L48 56L48 57L51 57L51 54L52 54L52 53L53 53L53 56L52 56L52 57L55 57L55 56L54 56L54 55L55 55L55 54L56 54L56 53L57 53L57 51L56 51L56 49L57 49L57 48L56 48L56 49L55 49L55 48L54 48L54 47L57 47L57 45L56 45L56 44L52 44L52 43L53 43L53 42L54 42L54 43L56 43L56 42L54 42L54 40L55 40L55 38L56 38L56 39L57 39L57 38L56 38L56 37L55 37L55 36L57 36L57 31L56 31L56 30L57 30L57 29L56 29L56 30L55 30L55 28L56 28L56 27L53 27L53 26L52 26L52 25L51 25L51 24L53 24L53 25L54 25L54 23L53 23L53 20L50 20L50 19L47 19L47 18L48 18L48 14L47 14L47 16L46 16L46 15L45 15L45 14L46 14L46 13L44 13L44 10L45 10L45 11L47 11L47 12L49 12L49 15L50 15L50 16L51 16L51 17L52 17L52 16L55 16L55 17L54 17L54 18L52 18L52 19L55 19L55 20L54 20L54 21L56 21L56 22L55 22L55 23L57 23L57 19L56 19L56 18L55 18L55 17L57 17L57 15L51 15L51 13L52 13L52 14L54 14L54 10L53 10L53 13L52 13L52 12L51 12L51 11L50 11L50 10L49 10L49 9L50 9L50 8L49 8L49 9L47 9L47 8L45 8L45 6L44 6L44 8L45 8L45 9L44 9L44 10L43 10L43 8L38 8L38 7L39 7L39 6L38 6L38 5L40 5L40 7L41 7L41 4L43 4L43 5L45 5L45 4L44 4L44 3L45 3L45 1L47 1L47 2L46 2L46 3L47 3L47 5L46 5L46 7L47 7L47 5L48 5L48 0L45 0L45 1L44 1L44 2L41 2L41 1L43 1L43 0L41 0L41 1L40 1L40 0L39 0L39 1L40 1L40 2L41 2L41 4L38 4L38 3L39 3L39 2L37 2L37 1L38 1L38 0L37 0L37 1L36 1L36 0L35 0L35 1L34 1L34 2L33 2L33 1L32 1L32 2L31 2L31 0L30 0L30 2L28 2L28 1L27 1L27 3L29 3L29 4L26 4L26 0L23 0L23 1L25 1L25 2L24 2L24 3L23 3L23 4L22 4L22 2L21 2L21 1L22 1L22 0L21 0L21 1L20 1L20 0L17 0L17 1L16 1L16 2L15 2L15 3L16 3L16 2L17 2L17 4L19 4L19 5L15 5L15 4L14 4L14 3L12 3L12 2L13 2L13 1L14 1L14 0L13 0L13 1L12 1L12 0ZM18 1L18 2L19 2L19 1ZM35 1L35 2L34 2L34 3L35 3L35 2L36 2L36 1ZM9 3L9 4L11 4L11 3ZM19 3L19 4L20 4L20 5L21 5L21 3ZM32 3L32 4L31 4L31 5L32 5L32 6L31 6L31 9L32 9L32 10L26 10L26 11L25 11L25 13L24 13L24 11L20 11L20 12L19 12L19 10L18 10L18 9L19 9L19 8L18 8L18 6L17 6L17 7L16 7L16 6L15 6L15 8L16 8L16 11L15 11L15 15L14 15L14 13L13 13L13 15L14 15L14 16L12 16L12 15L11 15L11 14L10 14L10 15L11 15L11 16L12 16L12 17L11 17L11 19L10 19L10 21L9 21L9 20L7 20L7 19L6 19L6 20L7 20L7 21L6 21L6 22L5 22L5 23L4 23L4 25L2 25L2 24L3 24L3 22L4 22L4 21L2 21L2 22L1 22L1 23L2 23L2 24L1 24L1 25L2 25L2 26L5 26L5 25L6 25L6 26L9 26L9 32L10 32L10 31L11 31L11 32L12 32L12 33L11 33L11 34L10 34L10 33L9 33L9 34L8 34L8 36L9 36L9 37L10 37L10 38L7 38L7 37L6 37L6 36L7 36L7 35L6 35L6 34L7 34L7 33L6 33L6 32L8 32L8 31L4 31L4 30L3 30L3 29L1 29L1 30L3 30L3 31L4 31L4 32L5 32L5 33L4 33L4 34L3 34L3 35L5 35L5 37L6 37L6 38L3 38L3 36L2 36L2 38L3 38L3 39L4 39L4 40L8 40L8 41L6 41L6 42L5 42L5 43L4 43L4 44L5 44L5 45L4 45L4 46L3 46L3 47L5 47L5 45L6 45L6 46L8 46L8 47L9 47L9 50L10 50L10 49L12 49L12 50L14 50L14 49L15 49L15 48L14 48L14 47L15 47L15 46L16 46L16 47L17 47L17 48L16 48L16 50L17 50L17 51L18 51L18 50L19 50L19 49L21 49L21 52L22 52L22 53L20 53L20 55L21 55L21 56L22 56L22 54L23 54L23 56L24 56L24 55L25 55L25 54L23 54L23 52L24 52L24 53L25 53L25 52L26 52L26 51L24 51L24 50L25 50L25 48L24 48L24 49L23 49L23 48L20 48L20 47L22 47L22 46L23 46L23 47L24 47L24 45L23 45L23 44L22 44L22 41L23 41L23 42L25 42L25 43L26 43L26 45L25 45L25 47L26 47L26 48L27 48L27 47L29 47L29 48L32 48L32 49L31 49L31 50L33 50L33 52L35 52L35 53L36 53L36 54L34 54L34 55L36 55L36 54L39 54L39 53L37 53L37 51L36 51L36 52L35 52L35 51L34 51L34 50L35 50L35 49L34 49L34 46L37 46L37 45L38 45L38 47L35 47L35 48L37 48L37 49L36 49L36 50L37 50L37 49L38 49L38 48L39 48L39 49L40 49L40 50L39 50L39 52L40 52L40 54L41 54L41 52L42 52L42 51L45 51L45 50L43 50L43 47L39 47L39 45L38 45L38 44L40 44L40 43L42 43L42 45L43 45L43 46L45 46L45 47L44 47L44 49L45 49L45 47L46 47L46 46L47 46L47 45L48 45L48 44L44 44L44 43L47 43L47 42L48 42L48 43L49 43L49 44L51 44L51 42L50 42L50 41L52 41L52 40L53 40L53 39L54 39L54 38L53 38L53 36L52 36L52 35L51 35L51 36L52 36L52 38L49 38L49 37L50 37L50 36L47 36L47 34L48 34L48 35L49 35L49 34L50 34L50 33L49 33L49 32L48 32L48 29L47 29L47 31L46 31L46 32L47 32L47 33L45 33L45 30L46 30L46 26L49 26L49 25L50 25L50 24L51 24L51 23L52 23L52 22L51 22L51 21L50 21L50 20L47 20L47 19L46 19L46 18L45 18L45 17L46 17L46 16L45 16L45 15L44 15L44 16L45 16L45 17L42 17L42 14L44 14L44 13L43 13L43 12L42 12L42 11L43 11L43 10L41 10L41 9L40 9L40 10L39 10L39 9L38 9L38 10L37 10L37 8L36 8L36 9L34 9L34 6L35 6L35 7L36 7L36 6L37 6L37 7L38 7L38 6L37 6L37 5L36 5L36 4L34 4L34 5L33 5L33 3ZM24 4L24 6L23 6L23 7L22 7L22 6L21 6L21 7L20 7L20 6L19 6L19 7L20 7L20 10L21 10L21 8L23 8L23 9L22 9L22 10L23 10L23 9L26 9L26 6L25 6L25 5L26 5L26 4ZM27 5L27 8L30 8L30 5ZM24 6L24 7L23 7L23 8L24 8L24 7L25 7L25 6ZM28 6L28 7L29 7L29 6ZM32 6L32 8L33 8L33 6ZM42 6L42 7L43 7L43 6ZM48 6L48 7L49 7L49 6ZM17 8L17 9L18 9L18 8ZM52 8L52 9L55 9L55 12L56 12L56 13L57 13L57 10L56 10L56 9L57 9L57 8L56 8L56 9L55 9L55 8ZM1 9L1 10L2 10L2 11L3 11L3 12L4 12L4 11L3 11L3 10L4 10L4 9L3 9L3 10L2 10L2 9ZM6 9L6 10L7 10L7 9ZM45 9L45 10L47 10L47 9ZM17 10L17 12L16 12L16 13L17 13L17 12L18 12L18 13L19 13L19 14L20 14L20 15L21 15L21 12L20 12L20 13L19 13L19 12L18 12L18 10ZM33 10L33 11L30 11L30 12L31 12L31 13L32 13L32 12L33 12L33 14L32 14L32 15L31 15L31 14L30 14L30 13L28 13L28 12L26 12L26 14L23 14L23 15L24 15L24 16L23 16L23 18L22 18L22 17L21 17L21 16L19 16L19 17L15 17L15 16L16 16L16 15L17 15L17 16L18 16L18 14L16 14L16 15L15 15L15 16L14 16L14 18L15 18L15 19L11 19L11 20L12 20L12 21L13 21L13 23L11 23L11 21L10 21L10 24L9 24L9 25L10 25L10 27L12 27L12 28L14 28L14 29L11 29L11 30L12 30L12 31L14 31L14 32L15 32L15 33L16 33L16 30L17 30L17 28L15 28L15 27L14 27L14 26L16 26L16 27L19 27L19 26L16 26L16 25L15 25L15 24L16 24L16 23L17 23L17 22L18 22L18 20L21 20L21 22L19 22L19 24L17 24L17 25L20 25L20 26L22 26L22 27L23 27L23 25L25 25L25 27L24 27L24 28L26 28L26 30L25 30L25 31L28 31L28 32L27 32L27 33L26 33L26 32L24 32L24 29L21 29L21 30L20 30L20 31L19 31L19 30L18 30L18 32L17 32L17 34L16 34L16 35L15 35L15 36L17 36L17 38L15 38L15 37L14 37L14 38L13 38L13 41L11 41L11 39L10 39L10 40L9 40L9 41L10 41L10 42L9 42L9 43L8 43L8 42L6 42L6 43L7 43L7 44L6 44L6 45L8 45L8 46L10 46L10 47L11 47L11 46L10 46L10 45L12 45L12 49L13 49L13 46L15 46L15 45L17 45L17 47L18 47L18 48L17 48L17 49L19 49L19 46L20 46L20 44L21 44L21 46L22 46L22 44L21 44L21 42L19 42L19 41L22 41L22 40L23 40L23 39L24 39L24 41L25 41L25 42L29 42L29 43L27 43L27 45L26 45L26 46L27 46L27 45L29 45L29 44L32 44L32 42L33 42L33 45L34 45L34 44L35 44L35 45L36 45L36 43L34 43L34 42L36 42L36 41L34 41L34 40L35 40L35 39L36 39L36 38L34 38L34 37L37 37L37 39L38 39L38 40L37 40L37 41L40 41L40 42L42 42L42 43L44 43L44 42L42 42L42 41L45 41L45 42L47 42L47 41L50 41L50 40L52 40L52 39L53 39L53 38L52 38L52 39L49 39L49 40L47 40L47 39L48 39L48 37L47 37L47 38L46 38L46 36L45 36L45 35L46 35L46 34L44 34L44 31L41 31L41 30L42 30L42 29L45 29L45 27L43 27L43 26L44 26L44 23L47 23L47 24L50 24L50 23L49 23L49 21L47 21L47 20L46 20L46 19L45 19L45 18L44 18L44 19L45 19L45 21L47 21L47 22L44 22L44 21L41 21L41 18L42 18L42 19L43 19L43 18L42 18L42 17L41 17L41 18L39 18L39 19L40 19L40 20L39 20L39 22L38 22L38 21L36 21L36 20L38 20L38 19L36 19L36 20L35 20L35 19L34 19L34 18L35 18L35 17L34 17L34 16L35 16L35 15L36 15L36 14L37 14L37 15L39 15L39 17L40 17L40 16L41 16L41 14L40 14L40 13L39 13L39 12L40 12L40 11L41 11L41 10L40 10L40 11L39 11L39 10L38 10L38 12L35 12L35 11L36 11L36 10L35 10L35 11L34 11L34 10ZM48 10L48 11L49 11L49 10ZM22 12L22 13L23 13L23 12ZM34 12L34 14L33 14L33 15L35 15L35 14L36 14L36 13L35 13L35 12ZM50 12L50 13L51 13L51 12ZM0 13L0 14L1 14L1 13ZM26 15L26 16L25 16L25 17L24 17L24 18L23 18L23 19L22 19L22 20L23 20L23 21L24 21L24 22L25 22L25 25L27 25L27 26L29 26L29 24L26 24L26 23L28 23L28 22L25 22L25 19L24 19L24 18L27 18L27 19L28 19L28 20L29 20L29 19L28 19L28 18L29 18L29 17L30 17L30 21L29 21L29 23L30 23L30 24L31 24L31 23L32 23L32 22L34 22L34 23L33 23L33 24L32 24L32 25L33 25L33 24L35 24L35 23L36 23L36 24L37 24L37 22L35 22L35 21L34 21L34 20L33 20L33 17L32 17L32 16L29 16L29 15L28 15L28 16L29 16L29 17L27 17L27 15ZM12 17L12 18L13 18L13 17ZM19 17L19 19L21 19L21 17ZM36 17L36 18L37 18L37 17ZM16 18L16 19L15 19L15 20L14 20L14 22L15 22L15 23L16 23L16 20L18 20L18 18ZM31 19L31 20L32 20L32 19ZM26 20L26 21L27 21L27 20ZM30 21L30 23L31 23L31 21ZM6 22L6 23L9 23L9 22ZM41 22L41 23L40 23L40 24L39 24L39 23L38 23L38 24L39 24L39 25L40 25L40 26L38 26L38 27L39 27L39 28L40 28L40 29L38 29L38 30L36 30L36 29L37 29L37 28L36 28L36 27L35 27L35 25L34 25L34 27L35 27L35 28L34 28L34 29L35 29L35 30L36 30L36 31L37 31L37 32L36 32L36 33L37 33L37 32L38 32L38 34L39 34L39 31L38 31L38 30L41 30L41 27L40 27L40 26L43 26L43 25L41 25L41 23L42 23L42 24L43 24L43 22ZM47 22L47 23L48 23L48 22ZM13 23L13 24L10 24L10 25L13 25L13 26L14 26L14 23ZM20 23L20 24L21 24L21 23ZM6 24L6 25L7 25L7 24ZM22 24L22 25L23 25L23 24ZM45 24L45 26L46 26L46 24ZM55 24L55 26L56 26L56 24ZM30 25L30 26L31 26L31 25ZM5 27L5 30L8 30L8 27ZM27 27L27 30L30 30L30 27ZM31 27L31 28L33 28L33 27ZM42 27L42 28L43 28L43 27ZM49 27L49 30L52 30L52 27ZM6 28L6 29L7 29L7 28ZM18 28L18 29L20 29L20 28ZM28 28L28 29L29 29L29 28ZM50 28L50 29L51 29L51 28ZM53 28L53 30L54 30L54 28ZM14 29L14 30L16 30L16 29ZM32 29L32 30L31 30L31 34L30 34L30 35L29 35L29 33L30 33L30 31L29 31L29 32L28 32L28 33L27 33L27 34L26 34L26 33L25 33L25 34L24 34L24 35L22 35L22 36L21 36L21 35L19 35L19 34L21 34L21 33L20 33L20 32L22 32L22 31L23 31L23 30L21 30L21 31L20 31L20 32L18 32L18 34L17 34L17 36L19 36L19 37L20 37L20 38L21 38L21 40L22 40L22 38L23 38L23 36L25 36L25 37L24 37L24 39L25 39L25 41L26 41L26 39L25 39L25 38L29 38L29 36L32 36L32 38L30 38L30 39L28 39L28 40L27 40L27 41L28 41L28 40L29 40L29 42L31 42L31 40L33 40L33 39L34 39L34 38L33 38L33 36L36 36L36 35L33 35L33 36L32 36L32 33L33 33L33 32L34 32L34 34L35 34L35 32L34 32L34 31L32 31L32 30L33 30L33 29ZM40 31L40 32L41 32L41 31ZM52 31L52 34L54 34L54 33L53 33L53 31ZM54 31L54 32L55 32L55 31ZM23 32L23 33L22 33L22 34L23 34L23 33L24 33L24 32ZM42 32L42 33L43 33L43 32ZM5 33L5 34L6 34L6 33ZM11 34L11 35L9 35L9 36L11 36L11 37L12 37L12 36L14 36L14 34L13 34L13 35L12 35L12 34ZM27 34L27 35L26 35L26 37L27 37L27 36L29 36L29 35L28 35L28 34ZM41 34L41 35L37 35L37 36L40 36L40 37L41 37L41 35L42 35L42 36L43 36L43 35L42 35L42 34ZM55 34L55 35L54 35L54 36L55 36L55 35L56 35L56 34ZM11 35L11 36L12 36L12 35ZM44 36L44 37L42 37L42 38L44 38L44 39L45 39L45 41L46 41L46 39L45 39L45 36ZM21 37L21 38L22 38L22 37ZM6 38L6 39L7 39L7 38ZM14 38L14 41L19 41L19 40L17 40L17 39L19 39L19 38L17 38L17 39L16 39L16 40L15 40L15 38ZM32 38L32 39L33 39L33 38ZM38 38L38 39L39 39L39 40L40 40L40 41L42 41L42 40L41 40L41 39L39 39L39 38ZM56 40L56 41L57 41L57 40ZM0 42L0 45L1 45L1 42ZM10 42L10 43L11 43L11 44L16 44L16 43L15 43L15 42L14 42L14 43L12 43L12 42ZM17 42L17 45L19 45L19 43L18 43L18 42ZM37 42L37 44L38 44L38 43L39 43L39 42ZM49 42L49 43L50 43L50 42ZM8 44L8 45L9 45L9 44ZM30 45L30 46L31 46L31 47L32 47L32 48L33 48L33 46L32 46L32 45ZM49 45L49 46L48 46L48 47L49 47L49 48L50 48L50 45ZM51 45L51 48L52 48L52 46L54 46L54 45ZM55 45L55 46L56 46L56 45ZM41 48L41 49L42 49L42 48ZM46 48L46 50L47 50L47 52L48 52L48 48ZM22 49L22 51L23 51L23 49ZM27 49L27 52L30 52L30 49ZM33 49L33 50L34 50L34 49ZM49 49L49 52L52 52L52 49ZM53 49L53 50L55 50L55 49ZM28 50L28 51L29 51L29 50ZM50 50L50 51L51 51L51 50ZM31 51L31 53L32 53L32 51ZM40 51L40 52L41 52L41 51ZM45 52L45 53L46 53L46 52ZM54 52L54 53L56 53L56 52ZM8 53L8 57L9 57L9 53ZM42 53L42 54L43 54L43 53ZM48 53L48 54L50 54L50 53ZM44 54L44 55L45 55L45 54ZM46 54L46 56L47 56L47 54ZM11 55L11 56L12 56L12 55ZM56 55L56 56L57 56L57 55ZM0 0L0 7L7 7L7 0ZM1 1L1 6L6 6L6 1ZM2 2L2 5L5 5L5 2ZM50 0L50 7L57 7L57 0ZM51 1L51 6L56 6L56 1ZM52 2L52 5L55 5L55 2ZM0 50L0 57L7 57L7 50ZM1 51L1 56L6 56L6 51ZM2 52L2 55L5 55L5 52Z" fill="#000000"/></g></g></svg>
