<?xml version="1.0" encoding="UTF-8"?>
<svg xmlns="http://www.w3.org/2000/svg" version="1.1" width="300" height="300" viewBox="0 0 300 300"><rect x="0" y="0" width="300" height="300" fill="#fefefe"/><g transform="scale(4.615)"><g transform="translate(4,4)"><path fill-rule="evenodd" d="M10 0L10 2L9 2L9 1L8 1L8 2L9 2L9 3L8 3L8 4L9 4L9 5L8 5L8 7L9 7L9 6L10 6L10 7L11 7L11 5L10 5L10 2L11 2L11 4L12 4L12 2L13 2L13 4L14 4L14 2L17 2L17 1L18 1L18 2L19 2L19 1L18 1L18 0L17 0L17 1L14 1L14 2L13 2L13 0L12 0L12 1L11 1L11 0ZM21 0L21 1L20 1L20 2L22 2L22 3L23 3L23 4L24 4L24 5L23 5L23 6L22 6L22 7L21 7L21 5L22 5L22 4L19 4L19 3L17 3L17 5L20 5L20 7L19 7L19 6L18 6L18 7L19 7L19 8L16 8L16 7L17 7L17 6L16 6L16 7L15 7L15 6L14 6L14 8L13 8L13 5L12 5L12 8L11 8L11 9L14 9L14 8L16 8L16 9L15 9L15 10L13 10L13 11L14 11L14 12L12 12L12 13L10 13L10 15L9 15L9 12L11 12L11 11L12 11L12 10L5 10L5 8L0 8L0 9L1 9L1 12L2 12L2 13L1 13L1 14L2 14L2 16L5 16L5 15L7 15L7 14L8 14L8 16L6 16L6 17L8 17L8 18L6 18L6 19L5 19L5 18L3 18L3 17L0 17L0 18L1 18L1 20L2 20L2 21L0 21L0 26L1 26L1 27L2 27L2 30L1 30L1 28L0 28L0 30L1 30L1 31L2 31L2 32L0 32L0 33L1 33L1 34L0 34L0 35L1 35L1 36L0 36L0 37L2 37L2 36L3 36L3 37L4 37L4 36L3 36L3 35L4 35L4 34L6 34L6 35L5 35L5 37L7 37L7 36L9 36L9 35L8 35L8 33L9 33L9 32L10 32L10 33L11 33L11 34L10 34L10 35L11 35L11 37L10 37L10 39L9 39L9 40L8 40L8 39L7 39L7 38L4 38L4 39L3 39L3 38L2 38L2 39L3 39L3 40L5 40L5 41L3 41L3 42L1 42L1 38L0 38L0 42L1 42L1 45L0 45L0 48L5 48L5 47L7 47L7 48L6 48L6 49L8 49L8 51L9 51L9 52L8 52L8 57L10 57L10 56L9 56L9 52L10 52L10 54L11 54L11 56L12 56L12 57L13 57L13 56L12 56L12 55L13 55L13 54L11 54L11 53L13 53L13 52L14 52L14 51L17 51L17 50L18 50L18 52L17 52L17 53L16 53L16 52L15 52L15 53L16 53L16 54L15 54L15 55L14 55L14 57L15 57L15 55L16 55L16 56L17 56L17 57L19 57L19 56L18 56L18 55L17 55L17 53L20 53L20 52L23 52L23 51L21 51L21 50L25 50L25 51L26 51L26 53L25 53L25 52L24 52L24 53L23 53L23 54L21 54L21 56L20 56L20 57L21 57L21 56L24 56L24 55L23 55L23 54L24 54L24 53L25 53L25 54L26 54L26 56L25 56L25 57L26 57L26 56L27 56L27 57L29 57L29 56L30 56L30 57L31 57L31 56L35 56L35 57L39 57L39 56L41 56L41 57L44 57L44 56L42 56L42 55L44 55L44 54L45 54L45 57L47 57L47 55L49 55L49 56L50 56L50 57L52 57L52 55L51 55L51 53L52 53L52 54L53 54L53 55L54 55L54 56L53 56L53 57L54 57L54 56L55 56L55 57L56 57L56 56L55 56L55 53L57 53L57 52L56 52L56 51L54 51L54 50L57 50L57 48L56 48L56 46L57 46L57 44L56 44L56 41L55 41L55 39L57 39L57 37L55 37L55 36L57 36L57 35L56 35L56 34L55 34L55 33L54 33L54 32L56 32L56 33L57 33L57 32L56 32L56 30L57 30L57 27L56 27L56 26L57 26L57 25L56 25L56 22L57 22L57 19L56 19L56 18L57 18L57 17L56 17L56 16L57 16L57 15L56 15L56 14L57 14L57 12L56 12L56 14L55 14L55 13L54 13L54 12L55 12L55 11L56 11L56 10L54 10L54 11L52 11L52 10L53 10L53 9L54 9L54 8L53 8L53 9L52 9L52 8L51 8L51 9L52 9L52 10L51 10L51 11L50 11L50 8L49 8L49 6L48 6L48 9L47 9L47 10L46 10L46 9L45 9L45 10L44 10L44 8L43 8L43 6L44 6L44 7L45 7L45 6L44 6L44 3L47 3L47 5L46 5L46 4L45 4L45 5L46 5L46 7L47 7L47 5L48 5L48 0L46 0L46 1L45 1L45 2L44 2L44 3L43 3L43 4L40 4L40 5L39 5L39 6L38 6L38 7L37 7L37 5L38 5L38 4L37 4L37 3L36 3L36 0L35 0L35 1L32 1L32 3L31 3L31 2L28 2L28 3L27 3L27 4L26 4L26 3L23 3L23 2L27 2L27 1L25 1L25 0L23 0L23 2L22 2L22 0ZM29 0L29 1L31 1L31 0ZM37 0L37 1L38 1L38 2L39 2L39 3L42 3L42 2L43 2L43 0L41 0L41 1L40 1L40 0L39 0L39 1L38 1L38 0ZM46 1L46 2L47 2L47 1ZM34 2L34 3L32 3L32 4L31 4L31 3L30 3L30 4L31 4L31 8L32 8L32 10L31 10L31 11L29 11L29 12L28 12L28 13L26 13L26 12L27 12L27 11L26 11L26 12L25 12L25 11L23 11L23 12L24 12L24 13L22 13L22 12L21 12L21 11L22 11L22 10L23 10L23 8L24 8L24 6L23 6L23 7L22 7L22 8L20 8L20 10L21 10L21 11L19 11L19 13L20 13L20 14L21 14L21 13L22 13L22 14L23 14L23 15L20 15L20 16L19 16L19 15L18 15L18 14L17 14L17 13L18 13L18 12L17 12L17 11L18 11L18 10L19 10L19 9L16 9L16 10L15 10L15 13L12 13L12 14L11 14L11 15L12 15L12 16L14 16L14 17L12 17L12 18L13 18L13 19L12 19L12 20L11 20L11 19L10 19L10 21L12 21L12 20L13 20L13 21L14 21L14 22L13 22L13 23L15 23L15 24L16 24L16 23L15 23L15 22L16 22L16 21L17 21L17 24L21 24L21 25L19 25L19 26L18 26L18 25L15 25L15 26L16 26L16 27L15 27L15 28L13 28L13 31L15 31L15 29L16 29L16 30L17 30L17 31L18 31L18 32L17 32L17 33L14 33L14 34L13 34L13 33L12 33L12 31L11 31L11 33L12 33L12 34L11 34L11 35L12 35L12 36L13 36L13 37L11 37L11 39L12 39L12 40L10 40L10 41L11 41L11 42L9 42L9 41L6 41L6 42L7 42L7 43L4 43L4 42L3 42L3 43L2 43L2 45L3 45L3 47L5 47L5 46L8 46L8 47L9 47L9 45L6 45L6 44L8 44L8 42L9 42L9 43L11 43L11 44L10 44L10 45L13 45L13 46L12 46L12 47L13 47L13 48L15 48L15 49L13 49L13 51L11 51L11 49L12 49L12 48L11 48L11 47L10 47L10 49L9 49L9 48L8 48L8 49L9 49L9 50L10 50L10 51L11 51L11 52L13 52L13 51L14 51L14 50L17 50L17 48L19 48L19 49L20 49L20 50L19 50L19 51L20 51L20 50L21 50L21 49L23 49L23 47L20 47L20 48L19 48L19 47L18 47L18 46L17 46L17 45L18 45L18 44L17 44L17 45L16 45L16 44L15 44L15 45L13 45L13 43L11 43L11 42L12 42L12 40L15 40L15 41L14 41L14 42L17 42L17 43L18 43L18 42L19 42L19 41L20 41L20 43L22 43L22 42L23 42L23 40L24 40L24 41L25 41L25 42L24 42L24 43L23 43L23 45L22 45L22 44L19 44L19 45L20 45L20 46L21 46L21 45L22 45L22 46L23 46L23 45L24 45L24 44L25 44L25 47L26 47L26 48L30 48L30 47L26 47L26 45L27 45L27 46L30 46L30 44L28 44L28 42L32 42L32 43L33 43L33 44L31 44L31 45L32 45L32 46L31 46L31 47L32 47L32 46L36 46L36 47L34 47L34 50L33 50L33 48L31 48L31 50L32 50L32 51L31 51L31 53L30 53L30 54L27 54L27 56L29 56L29 55L30 55L30 56L31 56L31 54L32 54L32 53L33 53L33 55L35 55L35 56L36 56L36 54L35 54L35 51L34 51L34 50L36 50L36 52L37 52L37 53L38 53L38 54L37 54L37 56L39 56L39 55L38 55L38 54L40 54L40 53L42 53L42 52L43 52L43 51L42 51L42 50L41 50L41 48L42 48L42 49L43 49L43 48L44 48L44 50L47 50L47 52L46 52L46 51L45 51L45 52L44 52L44 53L43 53L43 54L44 54L44 53L45 53L45 54L46 54L46 55L47 55L47 54L48 54L48 50L47 50L47 49L48 49L48 48L49 48L49 47L53 47L53 46L54 46L54 47L55 47L55 46L56 46L56 45L55 45L55 44L54 44L54 45L52 45L52 44L53 44L53 43L54 43L54 42L53 42L53 41L54 41L54 40L53 40L53 35L55 35L55 34L54 34L54 33L52 33L52 32L54 32L54 31L52 31L52 32L51 32L51 31L48 31L48 30L47 30L47 29L48 29L48 28L47 28L47 29L46 29L46 30L47 30L47 31L46 31L46 32L43 32L43 30L40 30L40 29L44 29L44 30L45 30L45 28L46 28L46 27L48 27L48 26L47 26L47 25L48 25L48 24L49 24L49 25L50 25L50 26L52 26L52 25L55 25L55 26L56 26L56 25L55 25L55 24L51 24L51 23L50 23L50 22L51 22L51 21L54 21L54 22L53 22L53 23L55 23L55 22L56 22L56 19L55 19L55 20L53 20L53 19L52 19L52 20L51 20L51 21L49 21L49 18L47 18L47 17L45 17L45 14L47 14L47 13L49 13L49 12L50 12L50 14L49 14L49 15L48 15L48 16L49 16L49 17L50 17L50 19L51 19L51 17L53 17L53 18L55 18L55 17L54 17L54 16L51 16L51 17L50 17L50 14L51 14L51 12L50 12L50 11L49 11L49 12L45 12L45 11L46 11L46 10L45 10L45 11L42 11L42 10L41 10L41 7L42 7L42 5L40 5L40 6L39 6L39 7L40 7L40 8L38 8L38 10L37 10L37 9L35 9L35 8L37 8L37 7L36 7L36 5L37 5L37 4L36 4L36 5L35 5L35 2ZM28 3L28 4L29 4L29 3ZM15 4L15 5L16 5L16 4ZM25 4L25 8L26 8L26 4ZM32 4L32 5L33 5L33 4ZM27 5L27 8L30 8L30 5ZM34 5L34 7L33 7L33 6L32 6L32 7L33 7L33 9L34 9L34 8L35 8L35 5ZM28 6L28 7L29 7L29 6ZM40 6L40 7L41 7L41 6ZM6 8L6 9L10 9L10 8ZM42 8L42 9L43 9L43 8ZM55 8L55 9L56 9L56 8ZM27 9L27 10L29 10L29 9ZM3 10L3 11L2 11L2 12L3 12L3 13L4 13L4 12L8 12L8 11L4 11L4 10ZM16 10L16 11L17 11L17 10ZM32 10L32 11L33 11L33 10ZM36 10L36 11L35 11L35 13L36 13L36 14L32 14L32 12L31 12L31 13L30 13L30 14L29 14L29 13L28 13L28 14L29 14L29 16L28 16L28 15L27 15L27 14L26 14L26 15L25 15L25 13L24 13L24 15L23 15L23 16L25 16L25 17L22 17L22 16L20 16L20 17L19 17L19 16L17 16L17 17L19 17L19 18L17 18L17 19L16 19L16 18L15 18L15 17L14 17L14 18L15 18L15 21L16 21L16 20L17 20L17 21L18 21L18 22L19 22L19 23L20 23L20 22L19 22L19 21L20 21L20 20L21 20L21 19L20 19L20 17L22 17L22 18L24 18L24 19L23 19L23 20L24 20L24 21L22 21L22 22L24 22L24 21L25 21L25 22L26 22L26 23L25 23L25 24L24 24L24 23L23 23L23 25L22 25L22 26L21 26L21 27L22 27L22 26L23 26L23 30L25 30L25 31L24 31L24 32L25 32L25 33L23 33L23 34L22 34L22 33L21 33L21 32L23 32L23 31L21 31L21 30L20 30L20 29L22 29L22 28L20 28L20 26L19 26L19 29L18 29L18 28L16 28L16 29L18 29L18 31L19 31L19 32L18 32L18 33L17 33L17 34L16 34L16 35L17 35L17 36L18 36L18 37L17 37L17 38L18 38L18 39L19 39L19 40L17 40L17 41L19 41L19 40L21 40L21 37L19 37L19 35L17 35L17 34L18 34L18 33L19 33L19 34L20 34L20 36L23 36L23 37L24 37L24 38L23 38L23 39L22 39L22 40L23 40L23 39L24 39L24 40L25 40L25 39L27 39L27 41L26 41L26 42L27 42L27 41L28 41L28 39L27 39L27 38L28 38L28 37L26 37L26 38L25 38L25 36L26 36L26 35L27 35L27 33L26 33L26 32L27 32L27 31L29 31L29 32L28 32L28 33L29 33L29 34L30 34L30 36L29 36L29 37L31 37L31 38L29 38L29 39L33 39L33 40L35 40L35 42L37 42L37 43L36 43L36 44L35 44L35 43L34 43L34 42L33 42L33 41L32 41L32 40L31 40L31 41L32 41L32 42L33 42L33 43L34 43L34 45L36 45L36 46L37 46L37 47L36 47L36 48L35 48L35 49L36 49L36 50L38 50L38 51L37 51L37 52L38 52L38 53L39 53L39 52L38 52L38 51L40 51L40 52L41 52L41 50L38 50L38 49L39 49L39 48L41 48L41 46L43 46L43 47L42 47L42 48L43 48L43 47L44 47L44 48L46 48L46 47L47 47L47 48L48 48L48 47L49 47L49 46L48 46L48 47L47 47L47 46L45 46L45 45L47 45L47 43L48 43L48 42L49 42L49 43L50 43L50 44L48 44L48 45L50 45L50 46L52 46L52 45L50 45L50 44L51 44L51 43L53 43L53 42L51 42L51 41L53 41L53 40L51 40L51 39L52 39L52 38L51 38L51 37L50 37L50 38L47 38L47 39L46 39L46 38L45 38L45 37L44 37L44 36L45 36L45 35L47 35L47 36L46 36L46 37L47 37L47 36L48 36L48 35L47 35L47 34L45 34L45 33L43 33L43 32L41 32L41 33L39 33L39 34L40 34L40 35L39 35L39 37L40 37L40 38L43 38L43 37L44 37L44 38L45 38L45 39L43 39L43 40L45 40L45 39L46 39L46 40L47 40L47 39L50 39L50 40L49 40L49 41L48 41L48 42L46 42L46 44L45 44L45 45L44 45L44 44L43 44L43 43L45 43L45 42L44 42L44 41L41 41L41 42L40 42L40 43L39 43L39 42L38 42L38 40L39 40L39 39L38 39L38 37L37 37L37 36L38 36L38 33L37 33L37 32L34 32L34 31L36 31L36 30L37 30L37 29L38 29L38 28L40 28L40 27L41 27L41 28L42 28L42 26L43 26L43 28L45 28L45 27L46 27L46 26L45 26L45 27L44 27L44 24L43 24L43 23L44 23L44 20L45 20L45 18L44 18L44 15L42 15L42 16L41 16L41 15L39 15L39 14L38 14L38 13L40 13L40 12L41 12L41 11L40 11L40 10L38 10L38 11L37 11L37 10ZM3 11L3 12L4 12L4 11ZM39 11L39 12L40 12L40 11ZM16 12L16 13L15 13L15 14L13 14L13 15L14 15L14 16L16 16L16 13L17 13L17 12ZM20 12L20 13L21 13L21 12ZM33 12L33 13L34 13L34 12ZM43 12L43 13L41 13L41 14L43 14L43 13L44 13L44 12ZM52 12L52 13L53 13L53 12ZM6 13L6 14L7 14L7 13ZM30 14L30 15L31 15L31 16L32 16L32 19L33 19L33 18L35 18L35 19L36 19L36 20L37 20L37 19L39 19L39 17L41 17L41 16L39 16L39 15L38 15L38 14L37 14L37 15L35 15L35 16L33 16L33 15L31 15L31 14ZM53 14L53 15L54 15L54 14ZM0 15L0 16L1 16L1 15ZM26 15L26 17L25 17L25 18L27 18L27 19L26 19L26 21L27 21L27 24L25 24L25 25L26 25L26 26L24 26L24 27L26 27L26 26L28 26L28 25L29 25L29 26L30 26L30 25L29 25L29 22L28 22L28 21L29 21L29 20L30 20L30 21L31 21L31 22L30 22L30 23L31 23L31 24L32 24L32 26L31 26L31 28L32 28L32 29L31 29L31 30L32 30L32 31L30 31L30 32L29 32L29 33L31 33L31 32L32 32L32 34L31 34L31 35L33 35L33 36L32 36L32 37L33 37L33 38L34 38L34 39L35 39L35 40L38 40L38 39L35 39L35 37L34 37L34 34L35 34L35 36L37 36L37 34L35 34L35 33L34 33L34 32L32 32L32 31L33 31L33 30L35 30L35 28L33 28L33 27L34 27L34 26L36 26L36 27L39 27L39 26L41 26L41 24L40 24L40 22L39 22L39 21L42 21L42 20L39 20L39 21L38 21L38 22L37 22L37 24L38 24L38 26L37 26L37 25L33 25L33 24L32 24L32 23L33 23L33 22L34 22L34 23L35 23L35 20L32 20L32 21L31 21L31 20L30 20L30 19L31 19L31 18L30 18L30 19L28 19L28 18L27 18L27 17L28 17L28 16L27 16L27 15ZM9 16L9 17L10 17L10 18L11 18L11 17L10 17L10 16ZM35 16L35 17L37 17L37 18L38 18L38 17L39 17L39 16L38 16L38 17L37 17L37 16ZM42 16L42 17L43 17L43 16ZM2 18L2 20L3 20L3 18ZM8 18L8 19L9 19L9 18ZM41 18L41 19L42 19L42 18ZM43 18L43 20L44 20L44 18ZM46 18L46 19L47 19L47 18ZM6 19L6 20L5 20L5 21L4 21L4 23L2 23L2 24L1 24L1 26L3 26L3 25L2 25L2 24L7 24L7 23L6 23L6 22L7 22L7 21L8 21L8 20L7 20L7 19ZM13 19L13 20L14 20L14 19ZM17 19L17 20L20 20L20 19ZM27 19L27 20L28 20L28 19ZM6 20L6 21L7 21L7 20ZM47 20L47 21L48 21L48 22L49 22L49 21L48 21L48 20ZM2 21L2 22L3 22L3 21ZM9 22L9 26L11 26L11 28L12 28L12 26L13 26L13 27L14 27L14 26L13 26L13 25L14 25L14 24L13 24L13 25L12 25L12 24L10 24L10 23L11 23L11 22ZM41 22L41 23L42 23L42 22ZM46 22L46 23L47 23L47 24L48 24L48 23L47 23L47 22ZM38 23L38 24L39 24L39 25L40 25L40 24L39 24L39 23ZM49 23L49 24L50 24L50 23ZM45 24L45 25L46 25L46 24ZM4 25L4 26L5 26L5 25ZM6 25L6 26L8 26L8 25ZM17 26L17 27L18 27L18 26ZM32 26L32 27L33 27L33 26ZM53 26L53 27L54 27L54 26ZM5 27L5 30L8 30L8 27ZM27 27L27 30L30 30L30 27ZM49 27L49 30L52 30L52 27ZM55 27L55 28L54 28L54 30L55 30L55 29L56 29L56 27ZM3 28L3 30L4 30L4 28ZM6 28L6 29L7 29L7 28ZM9 28L9 29L10 29L10 28ZM25 28L25 29L26 29L26 28ZM28 28L28 29L29 29L29 28ZM50 28L50 29L51 29L51 28ZM9 30L9 31L10 31L10 30ZM19 30L19 31L20 31L20 32L21 32L21 31L20 31L20 30ZM38 30L38 32L39 32L39 30ZM3 31L3 32L5 32L5 31ZM6 31L6 32L7 32L7 31ZM25 31L25 32L26 32L26 31ZM47 31L47 32L46 32L46 33L47 33L47 32L48 32L48 33L49 33L49 32L48 32L48 31ZM50 32L50 34L49 34L49 35L50 35L50 36L52 36L52 35L53 35L53 34L52 34L52 33L51 33L51 32ZM6 33L6 34L7 34L7 33ZM20 33L20 34L21 34L21 33ZM25 33L25 34L26 34L26 33ZM33 33L33 34L34 34L34 33ZM1 34L1 35L2 35L2 34ZM12 34L12 35L13 35L13 36L14 36L14 35L13 35L13 34ZM23 34L23 36L24 36L24 34ZM42 34L42 35L43 35L43 36L40 36L40 37L43 37L43 36L44 36L44 35L45 35L45 34ZM50 34L50 35L52 35L52 34ZM6 35L6 36L7 36L7 35ZM8 37L8 38L9 38L9 37ZM15 37L15 38L16 38L16 37ZM18 37L18 38L19 38L19 39L20 39L20 38L19 38L19 37ZM54 37L54 38L55 38L55 37ZM12 38L12 39L14 39L14 38ZM50 38L50 39L51 39L51 38ZM6 39L6 40L7 40L7 39ZM15 39L15 40L16 40L16 39ZM41 42L41 43L40 43L40 44L39 44L39 45L38 45L38 46L39 46L39 47L38 47L38 48L37 48L37 49L38 49L38 48L39 48L39 47L40 47L40 45L41 45L41 44L42 44L42 42ZM50 42L50 43L51 43L51 42ZM3 43L3 44L4 44L4 46L5 46L5 44L4 44L4 43ZM25 43L25 44L27 44L27 43ZM54 45L54 46L55 46L55 45ZM1 46L1 47L2 47L2 46ZM15 46L15 47L16 47L16 46ZM44 46L44 47L45 47L45 46ZM24 48L24 49L25 49L25 50L26 50L26 49L25 49L25 48ZM55 48L55 49L56 49L56 48ZM27 49L27 52L30 52L30 49ZM49 49L49 52L52 52L52 49ZM28 50L28 51L29 51L29 50ZM50 50L50 51L51 51L51 50ZM32 51L32 52L33 52L33 53L34 53L34 52L33 52L33 51ZM53 52L53 53L54 53L54 52ZM19 54L19 55L20 55L20 54ZM41 54L41 55L42 55L42 54ZM50 55L50 56L51 56L51 55ZM0 0L0 7L7 7L7 0ZM1 1L1 6L6 6L6 1ZM2 2L2 5L5 5L5 2ZM50 0L50 7L57 7L57 0ZM51 1L51 6L56 6L56 1ZM52 2L52 5L55 5L55 2ZM0 50L0 57L7 57L7 50ZM1 51L1 56L6 56L6 51ZM2 52L2 55L5 55L5 52Z" fill="#000000"/></g></g></svg>
