<?xml version="1.0" encoding="UTF-8"?>
<svg xmlns="http://www.w3.org/2000/svg" version="1.1" width="300" height="300" viewBox="0 0 300 300"><rect x="0" y="0" width="300" height="300" fill="#fefefe"/><g transform="scale(4.615)"><g transform="translate(4,4)"><path fill-rule="evenodd" d="M8 0L8 4L9 4L9 5L8 5L8 7L9 7L9 6L10 6L10 7L11 7L11 6L10 6L10 4L11 4L11 3L12 3L12 4L13 4L13 5L12 5L12 8L13 8L13 6L14 6L14 9L11 9L11 8L9 8L9 9L11 9L11 10L10 10L10 11L11 11L11 10L13 10L13 11L12 11L12 12L11 12L11 13L10 13L10 14L11 14L11 15L12 15L12 16L11 16L11 17L10 17L10 18L9 18L9 16L5 16L5 17L7 17L7 18L5 18L5 24L2 24L2 23L4 23L4 21L3 21L3 20L4 20L4 19L3 19L3 18L4 18L4 16L3 16L3 17L2 17L2 16L1 16L1 15L3 15L3 14L4 14L4 13L3 13L3 11L4 11L4 12L5 12L5 13L7 13L7 14L5 14L5 15L7 15L7 14L8 14L8 12L9 12L9 11L8 11L8 9L7 9L7 8L4 8L4 9L2 9L2 8L0 8L0 10L3 10L3 11L2 11L2 13L3 13L3 14L1 14L1 12L0 12L0 14L1 14L1 15L0 15L0 16L1 16L1 17L2 17L2 21L3 21L3 22L2 22L2 23L1 23L1 24L2 24L2 26L0 26L0 28L1 28L1 29L0 29L0 32L3 32L3 31L1 31L1 29L2 29L2 30L4 30L4 33L3 33L3 34L1 34L1 35L0 35L0 36L1 36L1 39L0 39L0 40L1 40L1 39L2 39L2 41L0 41L0 42L1 42L1 44L0 44L0 45L1 45L1 46L0 46L0 48L5 48L5 47L7 47L7 48L6 48L6 49L7 49L7 48L8 48L8 50L9 50L9 51L8 51L8 53L9 53L9 52L10 52L10 53L11 53L11 54L9 54L9 55L8 55L8 57L10 57L10 55L12 55L12 57L14 57L14 56L15 56L15 55L16 55L16 54L17 54L17 56L16 56L16 57L20 57L20 56L19 56L19 55L20 55L20 54L21 54L21 57L22 57L22 54L23 54L23 55L24 55L24 56L23 56L23 57L25 57L25 54L26 54L26 57L27 57L27 56L28 56L28 57L29 57L29 56L28 56L28 55L30 55L30 57L31 57L31 54L30 54L30 53L31 53L31 51L32 51L32 55L35 55L35 56L34 56L34 57L37 57L37 56L36 56L36 55L37 55L37 54L36 54L36 53L37 53L37 52L38 52L38 57L40 57L40 56L39 56L39 54L41 54L41 57L43 57L43 56L44 56L44 57L45 57L45 56L46 56L46 57L49 57L49 56L50 56L50 57L51 57L51 56L53 56L53 55L55 55L55 54L57 54L57 52L56 52L56 53L55 53L55 52L53 52L53 49L55 49L55 48L53 48L53 47L54 47L54 46L55 46L55 47L56 47L56 50L55 50L55 51L56 51L56 50L57 50L57 47L56 47L56 42L57 42L57 40L52 40L52 34L51 34L51 40L50 40L50 37L49 37L49 36L50 36L50 31L51 31L51 32L52 32L52 33L53 33L53 34L54 34L54 35L55 35L55 36L56 36L56 37L55 37L55 38L54 38L54 39L57 39L57 38L56 38L56 37L57 37L57 36L56 36L56 34L57 34L57 33L56 33L56 32L57 32L57 31L56 31L56 30L57 30L57 29L54 29L54 28L53 28L53 27L54 27L54 26L55 26L55 28L56 28L56 26L57 26L57 25L53 25L53 26L51 26L51 25L52 25L52 24L53 24L53 23L55 23L55 24L57 24L57 23L56 23L56 21L57 21L57 19L56 19L56 13L57 13L57 12L56 12L56 13L55 13L55 16L53 16L53 17L55 17L55 18L53 18L53 19L52 19L52 17L51 17L51 16L49 16L49 15L51 15L51 14L54 14L54 12L53 12L53 13L51 13L51 12L52 12L52 11L54 11L54 10L53 10L53 9L56 9L56 10L55 10L55 11L56 11L56 10L57 10L57 8L53 8L53 9L52 9L52 8L51 8L51 9L50 9L50 10L51 10L51 11L50 11L50 14L49 14L49 13L48 13L48 12L49 12L49 11L46 11L46 8L45 8L45 6L46 6L46 7L47 7L47 10L49 10L49 8L48 8L48 7L49 7L49 6L48 6L48 7L47 7L47 5L48 5L48 0L46 0L46 1L47 1L47 2L44 2L44 0L40 0L40 2L41 2L41 3L40 3L40 4L39 4L39 2L38 2L38 1L39 1L39 0L38 0L38 1L36 1L36 0L35 0L35 1L34 1L34 0L33 0L33 1L32 1L32 0L26 0L26 1L25 1L25 0L23 0L23 1L25 1L25 2L24 2L24 3L25 3L25 4L24 4L24 5L23 5L23 6L22 6L22 7L21 7L21 6L20 6L20 5L18 5L18 2L19 2L19 3L20 3L20 2L21 2L21 1L22 1L22 0L19 0L19 1L18 1L18 0L17 0L17 1L18 1L18 2L16 2L16 4L17 4L17 6L16 6L16 5L15 5L15 4L14 4L14 3L15 3L15 1L16 1L16 0L15 0L15 1L14 1L14 0L12 0L12 1L11 1L11 0L10 0L10 1L9 1L9 0ZM13 1L13 2L12 2L12 3L13 3L13 2L14 2L14 1ZM19 1L19 2L20 2L20 1ZM29 1L29 2L28 2L28 3L27 3L27 2L25 2L25 3L26 3L26 4L28 4L28 3L29 3L29 4L31 4L31 7L32 7L32 8L33 8L33 7L34 7L34 10L35 10L35 7L36 7L36 4L37 4L37 5L38 5L38 2L37 2L37 3L36 3L36 1L35 1L35 2L34 2L34 1L33 1L33 2L34 2L34 3L32 3L32 1L31 1L31 2L30 2L30 1ZM41 1L41 2L43 2L43 1ZM9 2L9 4L10 4L10 3L11 3L11 2ZM29 2L29 3L30 3L30 2ZM22 3L22 4L21 4L21 5L22 5L22 4L23 4L23 3ZM31 3L31 4L32 4L32 3ZM34 3L34 4L33 4L33 5L34 5L34 7L35 7L35 5L34 5L34 4L35 4L35 3ZM41 3L41 4L40 4L40 6L39 6L39 7L38 7L38 6L37 6L37 8L38 8L38 9L37 9L37 11L35 11L35 12L37 12L37 14L36 14L36 13L34 13L34 12L33 12L33 13L34 13L34 16L33 16L33 17L32 17L32 18L31 18L31 20L32 20L32 19L33 19L33 17L34 17L34 18L35 18L35 17L34 17L34 16L35 16L35 14L36 14L36 15L37 15L37 14L38 14L38 13L39 13L39 11L40 11L40 14L39 14L39 15L40 15L40 22L39 22L39 23L40 23L40 27L41 27L41 25L44 25L44 24L46 24L46 26L47 26L47 27L45 27L45 26L44 26L44 27L45 27L45 31L47 31L47 33L46 33L46 34L47 34L47 33L48 33L48 35L47 35L47 37L46 37L46 38L44 38L44 37L43 37L43 39L42 39L42 41L44 41L44 42L42 42L42 44L41 44L41 43L40 43L40 45L39 45L39 47L38 47L38 43L37 43L37 45L34 45L34 43L33 43L33 42L35 42L35 41L36 41L36 38L37 38L37 40L38 40L38 41L37 41L37 42L38 42L38 41L39 41L39 40L38 40L38 39L39 39L39 38L38 38L38 37L39 37L39 36L40 36L40 38L41 38L41 33L43 33L43 34L42 34L42 35L44 35L44 28L43 28L43 26L42 26L42 28L40 28L40 29L39 29L39 31L42 31L42 32L40 32L40 33L39 33L39 34L38 34L38 29L36 29L36 27L37 27L37 26L38 26L38 28L39 28L39 26L38 26L38 25L34 25L34 24L35 24L35 23L36 23L36 24L38 24L38 23L36 23L36 22L38 22L38 17L39 17L39 16L37 16L37 17L36 17L36 19L34 19L34 20L33 20L33 21L31 21L31 22L29 22L29 20L30 20L30 18L28 18L28 17L27 17L27 19L26 19L26 20L27 20L27 19L29 19L29 20L28 20L28 21L24 21L24 20L25 20L25 19L22 19L22 21L21 21L21 22L20 22L20 23L19 23L19 22L18 22L18 21L17 21L17 20L19 20L19 21L20 21L20 20L19 20L19 19L20 19L20 16L22 16L22 18L23 18L23 17L25 17L25 18L26 18L26 16L27 16L27 15L28 15L28 14L29 14L29 13L30 13L30 15L29 15L29 16L31 16L31 15L33 15L33 14L32 14L32 13L31 13L31 12L30 12L30 11L33 11L33 10L32 10L32 9L31 9L31 10L30 10L30 11L29 11L29 10L28 10L28 9L26 9L26 6L25 6L25 7L24 7L24 6L23 6L23 7L22 7L22 10L20 10L20 9L18 9L18 8L19 8L19 7L20 7L20 6L19 6L19 7L18 7L18 6L17 6L17 9L15 9L15 12L14 12L14 11L13 11L13 12L12 12L12 13L15 13L15 12L16 12L16 15L17 15L17 13L18 13L18 12L19 12L19 13L21 13L21 14L18 14L18 16L19 16L19 19L17 19L17 16L15 16L15 15L14 15L14 16L12 16L12 17L13 17L13 18L10 18L10 19L14 19L14 20L15 20L15 21L17 21L17 22L16 22L16 23L14 23L14 21L12 21L12 20L11 20L11 21L12 21L12 22L13 22L13 23L11 23L11 22L10 22L10 23L9 23L9 24L8 24L8 23L6 23L6 24L5 24L5 25L3 25L3 27L2 27L2 29L3 29L3 28L4 28L4 26L8 26L8 25L9 25L9 24L11 24L11 25L10 25L10 26L9 26L9 27L11 27L11 28L12 28L12 33L10 33L10 32L11 32L11 31L10 31L10 32L9 32L9 31L5 31L5 33L4 33L4 37L5 37L5 36L7 36L7 35L5 35L5 33L6 33L6 34L9 34L9 36L10 36L10 34L11 34L11 36L12 36L12 37L11 37L11 38L10 38L10 37L6 37L6 38L4 38L4 39L3 39L3 38L2 38L2 39L3 39L3 41L2 41L2 43L3 43L3 44L2 44L2 46L1 46L1 47L2 47L2 46L3 46L3 47L5 47L5 45L3 45L3 44L4 44L4 42L3 42L3 41L5 41L5 42L7 42L7 41L8 41L8 40L7 40L7 39L6 39L6 38L8 38L8 39L9 39L9 40L10 40L10 39L12 39L12 41L14 41L14 42L13 42L13 43L14 43L14 42L15 42L15 44L12 44L12 43L11 43L11 41L9 41L9 42L8 42L8 43L6 43L6 44L7 44L7 45L6 45L6 46L8 46L8 47L9 47L9 48L10 48L10 50L11 50L11 51L10 51L10 52L11 52L11 53L12 53L12 54L13 54L13 53L17 53L17 52L19 52L19 53L18 53L18 54L19 54L19 53L20 53L20 51L17 51L17 52L16 52L16 50L18 50L18 49L16 49L16 50L15 50L15 52L14 52L14 51L13 51L13 49L12 49L12 48L13 48L13 47L12 47L12 46L11 46L11 47L9 47L9 46L8 46L8 43L9 43L9 42L10 42L10 44L9 44L9 45L10 45L10 44L11 44L11 45L13 45L13 46L14 46L14 48L16 48L16 47L20 47L20 48L21 48L21 46L22 46L22 49L21 49L21 53L24 53L24 54L25 54L25 53L26 53L26 54L27 54L27 55L28 55L28 54L27 54L27 53L26 53L26 51L25 51L25 50L26 50L26 48L27 48L27 47L26 47L26 46L24 46L24 47L23 47L23 45L21 45L21 46L20 46L20 44L19 44L19 42L20 42L20 43L22 43L22 44L23 44L23 41L24 41L24 40L27 40L27 39L28 39L28 38L29 38L29 39L30 39L30 40L29 40L29 41L28 41L28 42L27 42L27 41L26 41L26 42L25 42L25 45L27 45L27 44L29 44L29 43L30 43L30 44L31 44L31 45L30 45L30 46L29 46L29 45L28 45L28 48L29 48L29 47L30 47L30 48L31 48L31 45L32 45L32 46L33 46L33 45L34 45L34 47L33 47L33 49L32 49L32 51L33 51L33 52L34 52L34 54L35 54L35 55L36 55L36 54L35 54L35 52L34 52L34 50L35 50L35 51L36 51L36 50L37 50L37 51L38 51L38 49L39 49L39 52L40 52L40 53L41 53L41 52L42 52L42 51L48 51L48 48L49 48L49 47L51 47L51 48L52 48L52 47L53 47L53 44L54 44L54 45L55 45L55 42L54 42L54 43L52 43L52 42L53 42L53 41L52 41L52 42L50 42L50 41L48 41L48 40L47 40L47 39L46 39L46 38L47 38L47 37L48 37L48 39L49 39L49 37L48 37L48 35L49 35L49 31L47 31L47 30L48 30L48 25L49 25L49 26L50 26L50 24L49 24L49 22L48 22L48 21L51 21L51 22L52 22L52 23L51 23L51 24L52 24L52 23L53 23L53 22L55 22L55 19L53 19L53 20L52 20L52 21L51 21L51 20L48 20L48 19L51 19L51 18L50 18L50 17L49 17L49 18L48 18L48 19L46 19L46 18L47 18L47 17L48 17L48 15L47 15L47 14L48 14L48 13L47 13L47 12L45 12L45 11L44 11L44 10L45 10L45 9L44 9L44 6L45 6L45 5L47 5L47 3ZM41 4L41 6L40 6L40 8L39 8L39 9L38 9L38 11L39 11L39 9L40 9L40 10L41 10L41 12L42 12L42 15L41 15L41 16L42 16L42 17L41 17L41 20L43 20L43 21L41 21L41 22L40 22L40 23L41 23L41 22L44 22L44 23L47 23L47 25L48 25L48 23L47 23L47 22L46 22L46 21L48 21L48 20L46 20L46 19L45 19L45 18L46 18L46 17L45 17L45 16L47 16L47 15L46 15L46 14L44 14L44 13L45 13L45 12L44 12L44 13L43 13L43 12L42 12L42 10L44 10L44 9L43 9L43 6L44 6L44 5L45 5L45 4ZM27 5L27 8L30 8L30 5ZM42 5L42 6L41 6L41 8L40 8L40 9L42 9L42 6L43 6L43 5ZM15 6L15 7L16 7L16 6ZM28 6L28 7L29 7L29 6ZM32 6L32 7L33 7L33 6ZM23 7L23 9L24 9L24 10L25 10L25 13L24 13L24 11L23 11L23 12L22 12L22 11L20 11L20 10L19 10L19 12L21 12L21 13L24 13L24 15L25 15L25 16L26 16L26 15L27 15L27 14L26 14L26 13L28 13L28 10L27 10L27 12L26 12L26 9L24 9L24 7ZM5 9L5 11L6 11L6 12L8 12L8 11L6 11L6 10L7 10L7 9ZM17 9L17 10L16 10L16 11L18 11L18 9ZM51 9L51 10L52 10L52 9ZM12 14L12 15L13 15L13 14ZM22 14L22 16L23 16L23 14ZM43 14L43 15L44 15L44 16L43 16L43 17L44 17L44 18L45 18L45 17L44 17L44 16L45 16L45 15L44 15L44 14ZM19 15L19 16L20 16L20 15ZM14 16L14 17L15 17L15 19L16 19L16 20L17 20L17 19L16 19L16 17L15 17L15 16ZM0 19L0 20L1 20L1 19ZM6 19L6 20L7 20L7 21L6 21L6 22L9 22L9 21L10 21L10 20L9 20L9 19L8 19L8 20L7 20L7 19ZM36 19L36 20L34 20L34 21L33 21L33 24L34 24L34 23L35 23L35 22L36 22L36 21L37 21L37 19ZM8 20L8 21L9 21L9 20ZM45 20L45 21L44 21L44 22L45 22L45 21L46 21L46 20ZM0 21L0 22L1 22L1 21ZM22 21L22 22L21 22L21 25L20 25L20 24L19 24L19 23L18 23L18 22L17 22L17 23L18 23L18 24L17 24L17 25L18 25L18 27L17 27L17 26L16 26L16 25L15 25L15 24L14 24L14 23L13 23L13 25L12 25L12 26L11 26L11 27L12 27L12 28L13 28L13 30L16 30L16 31L15 31L15 34L16 34L16 31L19 31L19 32L17 32L17 35L16 35L16 36L15 36L15 35L14 35L14 31L13 31L13 36L14 36L14 37L13 37L13 38L14 38L14 37L16 37L16 36L17 36L17 37L22 37L22 36L23 36L23 37L24 37L24 38L25 38L25 39L27 39L27 37L28 37L28 36L29 36L29 35L30 35L30 34L31 34L31 32L30 32L30 31L31 31L31 30L32 30L32 31L33 31L33 32L32 32L32 33L33 33L33 34L34 34L34 33L37 33L37 32L36 32L36 31L37 31L37 30L36 30L36 29L35 29L35 32L34 32L34 31L33 31L33 30L34 30L34 28L35 28L35 27L34 27L34 28L32 28L32 29L31 29L31 27L33 27L33 26L32 26L32 25L29 25L29 26L28 26L28 24L29 24L29 23L28 23L28 22L26 22L26 23L25 23L25 22L24 22L24 21ZM34 21L34 22L35 22L35 21ZM52 21L52 22L53 22L53 21ZM22 22L22 25L21 25L21 26L20 26L20 25L19 25L19 26L20 26L20 27L21 27L21 29L22 29L22 31L23 31L23 32L22 32L22 34L21 34L21 36L22 36L22 35L23 35L23 36L24 36L24 35L25 35L25 37L27 37L27 35L26 35L26 34L23 34L23 33L24 33L24 32L25 32L25 33L26 33L26 32L25 32L25 30L23 30L23 28L24 28L24 29L25 29L25 27L26 27L26 26L27 26L27 25L26 25L26 26L24 26L24 27L23 27L23 28L22 28L22 27L21 27L21 26L23 26L23 24L24 24L24 23L23 23L23 22ZM31 22L31 23L30 23L30 24L31 24L31 23L32 23L32 22ZM27 23L27 24L28 24L28 23ZM42 23L42 24L43 24L43 23ZM6 24L6 25L7 25L7 24ZM13 26L13 27L14 27L14 29L16 29L16 30L18 30L18 29L19 29L19 30L20 30L20 33L19 33L19 35L17 35L17 36L19 36L19 35L20 35L20 33L21 33L21 30L20 30L20 28L18 28L18 29L16 29L16 27L15 27L15 26ZM5 27L5 30L8 30L8 27ZM27 27L27 30L30 30L30 27ZM49 27L49 30L52 30L52 27ZM6 28L6 29L7 29L7 28ZM28 28L28 29L29 29L29 28ZM42 28L42 31L43 31L43 28ZM46 28L46 29L47 29L47 28ZM50 28L50 29L51 29L51 28ZM32 29L32 30L33 30L33 29ZM53 30L53 31L52 31L52 32L53 32L53 31L54 31L54 34L56 34L56 33L55 33L55 32L56 32L56 31L55 31L55 30ZM6 32L6 33L7 33L7 32ZM27 32L27 33L28 33L28 34L29 34L29 33L30 33L30 32L29 32L29 33L28 33L28 32ZM33 32L33 33L34 33L34 32ZM9 33L9 34L10 34L10 33ZM35 34L35 35L34 35L34 36L33 36L33 35L31 35L31 36L32 36L32 38L31 38L31 37L29 37L29 38L31 38L31 41L30 41L30 42L31 42L31 41L32 41L32 42L33 42L33 41L34 41L34 39L33 39L33 40L32 40L32 38L33 38L33 37L34 37L34 36L36 36L36 37L38 37L38 36L39 36L39 35L38 35L38 34ZM1 35L1 36L2 36L2 37L3 37L3 35ZM37 35L37 36L38 36L38 35ZM45 35L45 36L46 36L46 35ZM9 38L9 39L10 39L10 38ZM16 38L16 39L14 39L14 40L15 40L15 41L20 41L20 42L22 42L22 40L21 40L21 38L20 38L20 39L19 39L19 38L18 38L18 39L17 39L17 38ZM22 38L22 39L23 39L23 40L24 40L24 39L23 39L23 38ZM4 39L4 40L5 40L5 39ZM43 39L43 40L44 40L44 41L45 41L45 42L44 42L44 43L43 43L43 44L42 44L42 46L41 46L41 45L40 45L40 47L39 47L39 49L40 49L40 51L41 51L41 50L43 50L43 44L44 44L44 46L45 46L45 48L44 48L44 49L45 49L45 50L46 50L46 46L45 46L45 44L47 44L47 43L48 43L48 44L49 44L49 45L47 45L47 47L49 47L49 45L51 45L51 47L52 47L52 45L51 45L51 44L52 44L52 43L48 43L48 42L47 42L47 43L46 43L46 41L47 41L47 40L46 40L46 41L45 41L45 40L44 40L44 39ZM6 40L6 41L7 41L7 40ZM40 40L40 41L41 41L41 40ZM17 42L17 43L16 43L16 45L15 45L15 46L16 46L16 45L17 45L17 46L19 46L19 44L18 44L18 45L17 45L17 43L18 43L18 42ZM28 42L28 43L29 43L29 42ZM26 43L26 44L27 44L27 43ZM31 43L31 44L32 44L32 45L33 45L33 43ZM44 43L44 44L45 44L45 43ZM35 46L35 47L34 47L34 49L33 49L33 50L34 50L34 49L37 49L37 48L38 48L38 47L37 47L37 46ZM11 47L11 48L12 48L12 47ZM25 47L25 48L26 48L26 47ZM35 47L35 48L37 48L37 47ZM40 47L40 49L42 49L42 48L41 48L41 47ZM11 49L11 50L12 50L12 49ZM19 49L19 50L20 50L20 49ZM22 49L22 50L25 50L25 49ZM27 49L27 52L30 52L30 49ZM49 49L49 52L52 52L52 49ZM28 50L28 51L29 51L29 50ZM50 50L50 51L51 51L51 50ZM11 51L11 52L12 52L12 53L13 53L13 52L12 52L12 51ZM22 51L22 52L24 52L24 53L25 53L25 51ZM46 52L46 53L44 53L44 54L45 54L45 55L44 55L44 56L45 56L45 55L46 55L46 56L48 56L48 55L50 55L50 56L51 56L51 55L50 55L50 54L51 54L51 53L50 53L50 54L48 54L48 52ZM53 53L53 54L55 54L55 53ZM14 54L14 55L13 55L13 56L14 56L14 55L15 55L15 54ZM42 54L42 55L43 55L43 54ZM56 56L56 57L57 57L57 56ZM0 0L0 7L7 7L7 0ZM1 1L1 6L6 6L6 1ZM2 2L2 5L5 5L5 2ZM50 0L50 7L57 7L57 0ZM51 1L51 6L56 6L56 1ZM52 2L52 5L55 5L55 2ZM0 50L0 57L7 57L7 50ZM1 51L1 56L6 56L6 51ZM2 52L2 55L5 55L5 52Z" fill="#000000"/></g></g></svg>
