<?xml version="1.0" encoding="UTF-8"?>
<svg xmlns="http://www.w3.org/2000/svg" version="1.1" width="300" height="300" viewBox="0 0 300 300"><rect x="0" y="0" width="300" height="300" fill="#fefefe"/><g transform="scale(4.615)"><g transform="translate(4,4)"><path fill-rule="evenodd" d="M9 0L9 1L8 1L8 2L9 2L9 1L10 1L10 2L11 2L11 3L10 3L10 4L9 4L9 3L8 3L8 4L9 4L9 5L8 5L8 7L9 7L9 5L10 5L10 4L12 4L12 5L11 5L11 6L10 6L10 7L11 7L11 8L13 8L13 9L14 9L14 7L15 7L15 8L16 8L16 9L15 9L15 10L13 10L13 11L14 11L14 12L11 12L11 11L12 11L12 10L10 10L10 9L9 9L9 8L6 8L6 9L5 9L5 8L0 8L0 11L1 11L1 16L0 16L0 17L1 17L1 16L2 16L2 19L3 19L3 20L1 20L1 19L0 19L0 20L1 20L1 21L0 21L0 25L1 25L1 24L2 24L2 25L5 25L5 26L4 26L4 27L3 27L3 26L2 26L2 27L0 27L0 30L1 30L1 29L2 29L2 31L3 31L3 29L4 29L4 32L2 32L2 34L1 34L1 36L0 36L0 37L1 37L1 38L0 38L0 39L1 39L1 40L2 40L2 41L3 41L3 39L4 39L4 40L5 40L5 39L7 39L7 40L6 40L6 41L5 41L5 42L4 42L4 43L3 43L3 42L0 42L0 44L2 44L2 45L3 45L3 46L2 46L2 47L1 47L1 46L0 46L0 48L5 48L5 47L8 47L8 46L10 46L10 47L9 47L9 48L8 48L8 51L9 51L9 52L8 52L8 57L9 57L9 56L10 56L10 57L11 57L11 55L12 55L12 53L13 53L13 54L14 54L14 55L13 55L13 57L14 57L14 55L16 55L16 56L17 56L17 57L19 57L19 55L20 55L20 54L19 54L19 53L20 53L20 52L21 52L21 51L23 51L23 50L26 50L26 52L24 52L24 53L21 53L21 54L22 54L22 55L23 55L23 57L26 57L26 56L27 56L27 57L29 57L29 56L30 56L30 57L31 57L31 56L35 56L35 57L39 57L39 56L41 56L41 57L44 57L44 56L42 56L42 55L44 55L44 54L45 54L45 57L47 57L47 55L48 55L48 57L49 57L49 56L50 56L50 57L52 57L52 55L51 55L51 53L52 53L52 54L53 54L53 52L54 52L54 53L55 53L55 52L57 52L57 51L54 51L54 50L57 50L57 48L56 48L56 46L57 46L57 43L56 43L56 42L55 42L55 41L53 41L53 40L55 40L55 39L57 39L57 37L55 37L55 35L56 35L56 36L57 36L57 35L56 35L56 34L55 34L55 33L54 33L54 34L55 34L55 35L53 35L53 34L52 34L52 33L53 33L53 32L56 32L56 33L57 33L57 32L56 32L56 30L57 30L57 29L56 29L56 28L57 28L57 27L56 27L56 26L57 26L57 25L56 25L56 22L57 22L57 21L56 21L56 20L57 20L57 19L56 19L56 18L57 18L57 17L56 17L56 16L57 16L57 15L56 15L56 14L57 14L57 12L56 12L56 14L55 14L55 15L53 15L53 14L54 14L54 12L55 12L55 11L56 11L56 10L54 10L54 11L52 11L52 10L53 10L53 9L54 9L54 8L53 8L53 9L52 9L52 8L51 8L51 9L52 9L52 10L51 10L51 11L50 11L50 8L49 8L49 6L48 6L48 7L47 7L47 5L48 5L48 0L46 0L46 1L47 1L47 2L44 2L44 3L41 3L41 2L43 2L43 0L41 0L41 1L40 1L40 0L39 0L39 1L38 1L38 0L37 0L37 1L38 1L38 3L36 3L36 0L35 0L35 1L32 1L32 0L29 0L29 2L28 2L28 3L27 3L27 4L26 4L26 3L23 3L23 4L19 4L19 3L20 3L20 2L21 2L21 3L22 3L22 2L21 2L21 1L22 1L22 0L21 0L21 1L20 1L20 0L17 0L17 1L18 1L18 2L16 2L16 1L15 1L15 0L14 0L14 2L13 2L13 1L12 1L12 2L11 2L11 0ZM23 0L23 2L27 2L27 1L25 1L25 0ZM30 1L30 3L32 3L32 4L31 4L31 8L32 8L32 10L31 10L31 11L30 11L30 10L29 10L29 9L27 9L27 10L28 10L28 11L29 11L29 12L28 12L28 13L26 13L26 12L27 12L27 11L26 11L26 12L25 12L25 10L23 10L23 11L24 11L24 12L25 12L25 13L26 13L26 14L25 14L25 15L24 15L24 16L23 16L23 15L21 15L21 13L22 13L22 14L23 14L23 13L22 13L22 12L21 12L21 13L20 13L20 12L19 12L19 13L20 13L20 14L19 14L19 16L20 16L20 18L19 18L19 17L15 17L15 15L14 15L14 17L15 17L15 18L13 18L13 17L12 17L12 16L11 16L11 15L12 15L12 14L15 14L15 13L16 13L16 16L17 16L17 13L18 13L18 12L17 12L17 11L18 11L18 10L19 10L19 11L22 11L22 10L21 10L21 9L23 9L23 8L24 8L24 6L23 6L23 5L24 5L24 4L23 4L23 5L21 5L21 7L22 7L22 8L20 8L20 10L19 10L19 9L18 9L18 8L17 8L17 7L18 7L18 6L19 6L19 7L20 7L20 5L18 5L18 4L17 4L17 3L16 3L16 2L14 2L14 4L13 4L13 7L14 7L14 6L15 6L15 7L16 7L16 8L17 8L17 9L16 9L16 10L15 10L15 11L16 11L16 12L15 12L15 13L11 13L11 15L10 15L10 13L9 13L9 12L7 12L7 11L8 11L8 10L9 10L9 9L6 9L6 10L4 10L4 11L5 11L5 12L7 12L7 13L5 13L5 14L7 14L7 15L6 15L6 16L11 16L11 17L9 17L9 18L11 18L11 17L12 17L12 19L6 19L6 18L7 18L7 17L6 17L6 18L5 18L5 16L4 16L4 15L3 15L3 14L2 14L2 15L3 15L3 17L4 17L4 20L3 20L3 21L2 21L2 22L1 22L1 23L2 23L2 24L3 24L3 23L2 23L2 22L3 22L3 21L5 21L5 20L8 20L8 21L6 21L6 22L9 22L9 20L10 20L10 23L9 23L9 25L8 25L8 23L4 23L4 24L7 24L7 25L6 25L6 26L7 26L7 25L8 25L8 26L9 26L9 29L10 29L10 31L6 31L6 32L5 32L5 33L4 33L4 37L3 37L3 38L1 38L1 39L3 39L3 38L4 38L4 39L5 39L5 38L9 38L9 39L10 39L10 40L7 40L7 41L6 41L6 42L7 42L7 43L6 43L6 44L5 44L5 43L4 43L4 44L5 44L5 45L6 45L6 46L8 46L8 45L9 45L9 44L10 44L10 45L13 45L13 46L11 46L11 49L12 49L12 50L11 50L11 52L9 52L9 55L11 55L11 54L10 54L10 53L11 53L11 52L12 52L12 51L14 51L14 54L16 54L16 53L17 53L17 52L18 52L18 51L17 51L17 48L20 48L20 46L21 46L21 45L22 45L22 46L23 46L23 45L22 45L22 44L20 44L20 42L21 42L21 43L22 43L22 42L24 42L24 41L25 41L25 43L23 43L23 44L24 44L24 45L25 45L25 46L24 46L24 47L21 47L21 49L19 49L19 50L21 50L21 49L23 49L23 48L24 48L24 49L25 49L25 47L26 47L26 48L29 48L29 45L32 45L32 47L31 47L31 48L32 48L32 49L31 49L31 50L32 50L32 51L31 51L31 53L30 53L30 54L26 54L26 53L24 53L24 54L23 54L23 55L24 55L24 56L25 56L25 54L26 54L26 55L27 55L27 56L29 56L29 55L30 55L30 56L31 56L31 54L32 54L32 53L33 53L33 54L34 54L34 55L35 55L35 56L36 56L36 54L35 54L35 52L34 52L34 51L35 51L35 50L36 50L36 52L37 52L37 53L38 53L38 54L37 54L37 56L39 56L39 55L38 55L38 54L40 54L40 53L42 53L42 52L43 52L43 51L45 51L45 52L44 52L44 53L43 53L43 54L44 54L44 53L45 53L45 54L47 54L47 53L48 53L48 50L47 50L47 49L48 49L48 48L51 48L51 46L53 46L53 47L55 47L55 46L56 46L56 43L55 43L55 44L54 44L54 46L53 46L53 45L50 45L50 43L51 43L51 44L53 44L53 43L54 43L54 42L53 42L53 41L51 41L51 42L50 42L50 43L48 43L48 44L47 44L47 45L45 45L45 44L46 44L46 43L44 43L44 42L48 42L48 41L49 41L49 39L51 39L51 40L52 40L52 39L54 39L54 38L53 38L53 35L52 35L52 34L50 34L50 32L49 32L49 31L48 31L48 28L47 28L47 29L46 29L46 30L47 30L47 31L46 31L46 32L47 32L47 33L45 33L45 32L43 32L43 30L40 30L40 29L43 29L43 27L45 27L45 28L44 28L44 31L45 31L45 28L46 28L46 27L47 27L47 25L49 25L49 23L50 23L50 24L51 24L51 25L50 25L50 26L52 26L52 25L53 25L53 24L51 24L51 23L50 23L50 22L51 22L51 21L54 21L54 22L53 22L53 23L55 23L55 22L56 22L56 21L55 21L55 20L56 20L56 19L55 19L55 20L53 20L53 19L52 19L52 18L51 18L51 17L53 17L53 18L56 18L56 17L55 17L55 16L50 16L50 18L49 18L49 19L48 19L48 20L49 20L49 19L52 19L52 20L51 20L51 21L49 21L49 22L47 22L47 21L45 21L45 20L47 20L47 15L44 15L44 14L47 14L47 13L49 13L49 12L50 12L50 14L49 14L49 15L48 15L48 16L49 16L49 15L50 15L50 14L51 14L51 12L50 12L50 11L48 11L48 12L45 12L45 11L44 11L44 13L43 13L43 11L41 11L41 9L42 9L42 8L41 8L41 7L42 7L42 6L41 6L41 5L40 5L40 4L41 4L41 3L38 3L38 6L37 6L37 7L36 7L36 5L37 5L37 4L36 4L36 5L35 5L35 3L34 3L34 2L33 2L33 3L32 3L32 1ZM12 2L12 3L13 3L13 2ZM28 3L28 4L29 4L29 3ZM44 3L44 6L43 6L43 7L44 7L44 9L43 9L43 10L44 10L44 9L45 9L45 10L47 10L47 9L45 9L45 7L46 7L46 8L47 8L47 7L46 7L46 5L47 5L47 3ZM15 4L15 5L16 5L16 4ZM25 4L25 8L26 8L26 4ZM32 4L32 5L34 5L34 7L33 7L33 6L32 6L32 7L33 7L33 9L34 9L34 8L35 8L35 9L37 9L37 10L36 10L36 12L35 12L35 14L32 14L32 12L33 12L33 13L34 13L34 12L33 12L33 10L32 10L32 12L31 12L31 13L30 13L30 14L29 14L29 13L28 13L28 14L29 14L29 16L28 16L28 15L27 15L27 16L28 16L28 17L27 17L27 18L26 18L26 19L25 19L25 17L26 17L26 15L25 15L25 17L22 17L22 16L21 16L21 15L20 15L20 16L21 16L21 17L22 17L22 18L21 18L21 20L22 20L22 19L23 19L23 20L24 20L24 21L22 21L22 22L24 22L24 21L25 21L25 22L26 22L26 23L25 23L25 24L24 24L24 23L22 23L22 24L20 24L20 25L19 25L19 24L17 24L17 21L18 21L18 23L20 23L20 22L19 22L19 21L20 21L20 20L19 20L19 19L18 19L18 20L17 20L17 21L16 21L16 20L15 20L15 21L16 21L16 22L15 22L15 23L14 23L14 21L13 21L13 20L14 20L14 19L13 19L13 20L12 20L12 21L11 21L11 22L12 22L12 24L13 24L13 25L14 25L14 26L11 26L11 25L10 25L10 29L12 29L12 30L13 30L13 31L12 31L12 32L13 32L13 31L15 31L15 32L17 32L17 35L16 35L16 34L15 34L15 35L13 35L13 34L14 34L14 33L9 33L9 32L6 32L6 33L8 33L8 34L12 34L12 35L11 35L11 36L10 36L10 35L9 35L9 37L10 37L10 38L13 38L13 39L14 39L14 40L13 40L13 41L12 41L12 40L11 40L11 42L9 42L9 43L10 43L10 44L13 44L13 45L14 45L14 46L13 46L13 47L12 47L12 49L13 49L13 50L14 50L14 51L16 51L16 50L15 50L15 49L16 49L16 48L17 48L17 46L20 46L20 44L19 44L19 42L20 42L20 41L21 41L21 42L22 42L22 41L21 41L21 39L22 39L22 38L21 38L21 37L19 37L19 36L17 36L17 35L18 35L18 33L19 33L19 35L20 35L20 33L21 33L21 36L22 36L22 35L23 35L23 34L24 34L24 36L23 36L23 37L24 37L24 38L23 38L23 39L24 39L24 40L23 40L23 41L24 41L24 40L25 40L25 37L26 37L26 40L28 40L28 39L27 39L27 38L28 38L28 37L27 37L27 36L26 36L26 35L27 35L27 33L26 33L26 32L28 32L28 33L29 33L29 34L30 34L30 36L29 36L29 37L31 37L31 38L29 38L29 39L33 39L33 40L35 40L35 42L37 42L37 43L36 43L36 44L35 44L35 43L34 43L34 42L33 42L33 41L32 41L32 40L29 40L29 43L25 43L25 44L28 44L28 45L26 45L26 47L28 47L28 45L29 45L29 43L31 43L31 44L33 44L33 43L34 43L34 45L37 45L37 47L36 47L36 48L35 48L35 49L36 49L36 50L38 50L38 52L39 52L39 51L40 51L40 52L41 52L41 50L42 50L42 51L43 51L43 50L46 50L46 52L45 52L45 53L47 53L47 50L46 50L46 48L45 48L45 47L47 47L47 48L48 48L48 47L50 47L50 46L49 46L49 44L48 44L48 46L45 46L45 45L44 45L44 43L43 43L43 42L44 42L44 41L43 41L43 40L47 40L47 39L49 39L49 38L50 38L50 37L52 37L52 35L50 35L50 34L48 34L48 35L44 35L44 36L42 36L42 34L45 34L45 33L43 33L43 32L41 32L41 33L39 33L39 34L40 34L40 35L38 35L38 33L37 33L37 32L34 32L34 31L36 31L36 29L38 29L38 28L39 28L39 27L36 27L36 26L34 26L34 27L33 27L33 26L32 26L32 24L33 24L33 25L37 25L37 26L38 26L38 25L40 25L40 24L43 24L43 25L41 25L41 26L40 26L40 27L41 27L41 28L42 28L42 27L41 27L41 26L43 26L43 25L44 25L44 26L45 26L45 25L46 25L46 24L48 24L48 23L47 23L47 22L45 22L45 25L44 25L44 24L43 24L43 23L44 23L44 20L45 20L45 18L44 18L44 15L42 15L42 16L41 16L41 14L43 14L43 13L39 13L39 12L41 12L41 11L37 11L37 10L38 10L38 9L39 9L39 8L40 8L40 7L41 7L41 6L40 6L40 5L39 5L39 6L38 6L38 7L37 7L37 8L35 8L35 5L34 5L34 4ZM45 4L45 5L46 5L46 4ZM27 5L27 8L30 8L30 5ZM11 6L11 7L12 7L12 6ZM16 6L16 7L17 7L17 6ZM22 6L22 7L23 7L23 6ZM28 6L28 7L29 7L29 6ZM39 6L39 7L40 7L40 6ZM44 6L44 7L45 7L45 6ZM37 8L37 9L38 9L38 8ZM48 8L48 9L49 9L49 8ZM55 8L55 9L56 9L56 8ZM1 9L1 11L2 11L2 9ZM17 9L17 10L18 10L18 9ZM6 10L6 11L7 11L7 10ZM2 12L2 13L4 13L4 12ZM16 12L16 13L17 13L17 12ZM52 12L52 13L53 13L53 12ZM36 13L36 14L37 14L37 15L35 15L35 16L32 16L32 17L33 17L33 18L35 18L35 19L34 19L34 21L33 21L33 20L32 20L32 21L31 21L31 24L28 24L28 23L30 23L30 22L29 22L29 21L30 21L30 20L29 20L29 19L28 19L28 18L27 18L27 19L26 19L26 20L25 20L25 21L28 21L28 22L27 22L27 24L25 24L25 25L26 25L26 26L25 26L25 27L26 27L26 26L27 26L27 24L28 24L28 25L31 25L31 24L32 24L32 23L33 23L33 22L34 22L34 23L35 23L35 19L36 19L36 20L38 20L38 22L37 22L37 24L40 24L40 22L39 22L39 21L42 21L42 20L38 20L38 19L39 19L39 17L41 17L41 16L39 16L39 15L38 15L38 14L39 14L39 13L38 13L38 14L37 14L37 13ZM30 14L30 15L31 15L31 14ZM35 16L35 17L37 17L37 18L38 18L38 17L39 17L39 16L38 16L38 17L37 17L37 16ZM42 16L42 17L43 17L43 16ZM45 16L45 17L46 17L46 16ZM15 18L15 19L17 19L17 18ZM23 18L23 19L24 19L24 18ZM30 18L30 19L32 19L32 18ZM41 18L41 19L42 19L42 18ZM43 18L43 20L44 20L44 18ZM38 22L38 23L39 23L39 22ZM41 22L41 23L42 23L42 22ZM10 23L10 24L11 24L11 23ZM13 23L13 24L14 24L14 25L15 25L15 26L18 26L18 27L17 27L17 28L18 28L18 29L16 29L16 28L13 28L13 29L14 29L14 30L15 30L15 29L16 29L16 30L18 30L18 29L19 29L19 27L21 27L21 28L20 28L20 30L19 30L19 32L21 32L21 33L22 33L22 34L23 34L23 33L25 33L25 34L26 34L26 33L25 33L25 32L26 32L26 31L25 31L25 30L23 30L23 29L24 29L24 26L22 26L22 25L24 25L24 24L22 24L22 25L20 25L20 26L18 26L18 25L17 25L17 24L16 24L16 23L15 23L15 24L14 24L14 23ZM55 25L55 26L56 26L56 25ZM21 26L21 27L22 27L22 26ZM31 26L31 28L32 28L32 29L31 29L31 31L28 31L28 32L29 32L29 33L31 33L31 32L32 32L32 33L33 33L33 30L35 30L35 28L36 28L36 27L35 27L35 28L33 28L33 27L32 27L32 26ZM53 26L53 27L54 27L54 26ZM5 27L5 30L8 30L8 27ZM11 27L11 28L12 28L12 27ZM27 27L27 30L30 30L30 27ZM49 27L49 30L52 30L52 27ZM55 27L55 28L54 28L54 29L53 29L53 30L54 30L54 29L55 29L55 28L56 28L56 27ZM6 28L6 29L7 29L7 28ZM21 28L21 29L22 29L22 28ZM25 28L25 29L26 29L26 28ZM28 28L28 29L29 29L29 28ZM50 28L50 29L51 29L51 28ZM20 30L20 31L21 31L21 32L25 32L25 31L21 31L21 30ZM38 30L38 32L39 32L39 30ZM0 31L0 32L1 32L1 31ZM17 31L17 32L18 32L18 31ZM47 31L47 32L48 32L48 33L49 33L49 32L48 32L48 31ZM51 32L51 33L52 33L52 32ZM34 33L34 34L33 34L33 36L32 36L32 37L33 37L33 38L35 38L35 37L33 37L33 36L34 36L34 34L35 34L35 36L37 36L37 37L38 37L38 38L37 38L37 39L35 39L35 40L38 40L38 42L39 42L39 45L38 45L38 46L39 46L39 47L38 47L38 48L37 48L37 49L38 49L38 50L41 50L41 48L42 48L42 49L43 49L43 48L44 48L44 49L45 49L45 48L44 48L44 45L43 45L43 46L41 46L41 48L39 48L39 47L40 47L40 45L41 45L41 44L42 44L42 42L41 42L41 41L42 41L42 40L43 40L43 39L45 39L45 38L46 38L46 39L47 39L47 38L48 38L48 37L50 37L50 35L48 35L48 36L46 36L46 37L45 37L45 36L44 36L44 37L43 37L43 38L42 38L42 40L41 40L41 38L40 38L40 37L41 37L41 36L40 36L40 37L38 37L38 35L37 35L37 34L35 34L35 33ZM5 34L5 35L7 35L7 34ZM31 34L31 35L32 35L32 34ZM5 36L5 37L4 37L4 38L5 38L5 37L7 37L7 36ZM12 36L12 37L13 37L13 38L15 38L15 39L16 39L16 40L15 40L15 43L13 43L13 44L14 44L14 45L15 45L15 46L14 46L14 47L15 47L15 46L17 46L17 45L18 45L18 44L17 44L17 45L16 45L16 44L15 44L15 43L18 43L18 42L19 42L19 41L20 41L20 40L19 40L19 41L18 41L18 42L17 42L17 41L16 41L16 40L17 40L17 39L20 39L20 38L19 38L19 37L18 37L18 38L17 38L17 36ZM15 37L15 38L16 38L16 37ZM44 37L44 38L45 38L45 37ZM38 38L38 40L40 40L40 39L39 39L39 38ZM13 41L13 42L14 42L14 41ZM26 41L26 42L27 42L27 41ZM30 41L30 42L32 42L32 43L33 43L33 42L32 42L32 41ZM40 42L40 43L41 43L41 42ZM51 42L51 43L53 43L53 42ZM2 43L2 44L3 44L3 43ZM6 44L6 45L7 45L7 44ZM3 46L3 47L5 47L5 46ZM33 46L33 47L32 47L32 48L34 48L34 47L35 47L35 46ZM42 47L42 48L43 48L43 47ZM6 48L6 49L7 49L7 48ZM9 48L9 51L10 51L10 48ZM14 48L14 49L15 49L15 48ZM38 48L38 49L39 49L39 48ZM55 48L55 49L56 49L56 48ZM27 49L27 52L30 52L30 49ZM32 49L32 50L33 50L33 49ZM49 49L49 52L52 52L52 49ZM28 50L28 51L29 51L29 50ZM50 50L50 51L51 51L51 50ZM19 51L19 52L20 52L20 51ZM32 51L32 52L33 52L33 51ZM15 52L15 53L16 53L16 52ZM17 54L17 55L19 55L19 54ZM41 54L41 55L42 55L42 54ZM54 54L54 55L53 55L53 56L55 56L55 57L56 57L56 56L55 56L55 54ZM50 55L50 56L51 56L51 55ZM20 56L20 57L21 57L21 56ZM0 0L0 7L7 7L7 0ZM1 1L1 6L6 6L6 1ZM2 2L2 5L5 5L5 2ZM50 0L50 7L57 7L57 0ZM51 1L51 6L56 6L56 1ZM52 2L52 5L55 5L55 2ZM0 50L0 57L7 57L7 50ZM1 51L1 56L6 56L6 51ZM2 52L2 55L5 55L5 52Z" fill="#000000"/></g></g></svg>
