<?xml version="1.0" encoding="UTF-8"?>
<svg xmlns="http://www.w3.org/2000/svg" version="1.1" width="300" height="300" viewBox="0 0 300 300"><rect x="0" y="0" width="300" height="300" fill="#fefefe"/><g transform="scale(4.615)"><g transform="translate(4,4)"><path fill-rule="evenodd" d="M8 0L8 1L9 1L9 2L8 2L8 5L9 5L9 6L8 6L8 7L9 7L9 8L8 8L8 9L7 9L7 8L6 8L6 9L4 9L4 8L0 8L0 9L1 9L1 10L0 10L0 11L1 11L1 10L3 10L3 11L2 11L2 12L1 12L1 13L0 13L0 15L1 15L1 13L2 13L2 14L4 14L4 15L2 15L2 16L0 16L0 17L2 17L2 18L0 18L0 21L1 21L1 22L2 22L2 24L3 24L3 25L2 25L2 26L3 26L3 25L4 25L4 29L1 29L1 30L2 30L2 31L1 31L1 33L0 33L0 35L1 35L1 36L2 36L2 38L1 38L1 37L0 37L0 38L1 38L1 39L3 39L3 40L1 40L1 41L0 41L0 42L1 42L1 43L0 43L0 44L1 44L1 43L2 43L2 45L4 45L4 44L3 44L3 43L4 43L4 42L5 42L5 41L7 41L7 42L6 42L6 43L5 43L5 44L6 44L6 45L5 45L5 47L3 47L3 46L2 46L2 47L1 47L1 45L0 45L0 48L5 48L5 47L7 47L7 46L8 46L8 48L9 48L9 49L8 49L8 50L9 50L9 51L10 51L10 50L11 50L11 51L13 51L13 52L12 52L12 53L14 53L14 50L15 50L15 52L17 52L17 51L18 51L18 50L16 50L16 49L19 49L19 51L20 51L20 52L19 52L19 54L18 54L18 53L17 53L17 54L16 54L16 53L15 53L15 56L16 56L16 57L18 57L18 56L17 56L17 55L20 55L20 56L19 56L19 57L23 57L23 56L22 56L22 55L23 55L23 54L25 54L25 55L24 55L24 57L25 57L25 55L26 55L26 56L28 56L28 55L26 55L26 54L27 54L27 53L29 53L29 54L31 54L31 55L30 55L30 56L31 56L31 57L32 57L32 55L33 55L33 54L36 54L36 55L34 55L34 56L33 56L33 57L36 57L36 55L38 55L38 57L43 57L43 56L45 56L45 57L46 57L46 54L47 54L47 56L49 56L49 57L51 57L51 54L52 54L52 53L53 53L53 55L55 55L55 54L56 54L56 53L57 53L57 51L55 51L55 50L57 50L57 48L56 48L56 49L55 49L55 48L54 48L54 47L57 47L57 44L53 44L53 45L54 45L54 47L53 47L53 46L52 46L52 43L53 43L53 42L54 42L54 43L56 43L56 42L57 42L57 40L56 40L56 41L55 41L55 42L54 42L54 41L53 41L53 40L55 40L55 38L56 38L56 39L57 39L57 38L56 38L56 36L57 36L57 34L56 34L56 33L57 33L57 31L56 31L56 30L57 30L57 28L55 28L55 27L53 27L53 25L56 25L56 24L54 24L54 23L57 23L57 19L55 19L55 17L56 17L56 18L57 18L57 15L55 15L55 14L54 14L54 10L53 10L53 9L55 9L55 11L56 11L56 13L57 13L57 10L56 10L56 9L57 9L57 8L56 8L56 9L55 9L55 8L52 8L52 9L51 9L51 10L52 10L52 11L53 11L53 13L52 13L52 12L51 12L51 11L49 11L49 10L50 10L50 8L49 8L49 9L47 9L47 10L46 10L46 7L47 7L47 5L48 5L48 0L45 0L45 1L44 1L44 2L42 2L42 3L41 3L41 4L39 4L39 3L37 3L37 1L38 1L38 0L37 0L37 1L36 1L36 0L35 0L35 1L34 1L34 2L31 2L31 4L26 4L26 0L23 0L23 1L25 1L25 2L24 2L24 3L23 3L23 2L22 2L22 3L23 3L23 4L22 4L22 5L23 5L23 6L22 6L22 8L21 8L21 9L23 9L23 10L20 10L20 7L21 7L21 5L20 5L20 4L19 4L19 2L20 2L20 3L21 3L21 1L22 1L22 0L21 0L21 1L20 1L20 0L19 0L19 2L18 2L18 1L17 1L17 3L18 3L18 5L15 5L15 4L14 4L14 3L13 3L13 2L12 2L12 1L13 1L13 0L11 0L11 1L9 1L9 0ZM14 0L14 1L15 1L15 2L16 2L16 1L15 1L15 0ZM29 0L29 2L28 2L28 3L29 3L29 2L30 2L30 1L31 1L31 0ZM32 0L32 1L33 1L33 0ZM39 0L39 1L40 1L40 2L41 2L41 1L43 1L43 0L41 0L41 1L40 1L40 0ZM35 1L35 2L36 2L36 1ZM45 1L45 3L44 3L44 4L45 4L45 5L43 5L43 4L42 4L42 5L43 5L43 7L42 7L42 6L41 6L41 7L40 7L40 5L38 5L38 6L37 6L37 5L36 5L36 4L34 4L34 5L33 5L33 3L32 3L32 4L31 4L31 5L32 5L32 6L31 6L31 9L32 9L32 10L29 10L29 9L28 9L28 10L26 10L26 11L25 11L25 12L24 12L24 14L25 14L25 15L23 15L23 13L22 13L22 12L23 12L23 11L21 11L21 12L20 12L20 13L21 13L21 14L20 14L20 15L19 15L19 16L17 16L17 15L16 15L16 14L19 14L19 13L18 13L18 12L19 12L19 11L20 11L20 10L18 10L18 12L17 12L17 13L16 13L16 11L15 11L15 10L17 10L17 8L18 8L18 9L19 9L19 8L18 8L18 6L17 6L17 7L16 7L16 6L15 6L15 8L14 8L14 6L13 6L13 7L12 7L12 6L11 6L11 5L10 5L10 4L12 4L12 5L14 5L14 4L12 4L12 2L10 2L10 4L9 4L9 5L10 5L10 6L9 6L9 7L10 7L10 8L11 8L11 9L9 9L9 10L10 10L10 11L9 11L9 12L7 12L7 11L8 11L8 10L7 10L7 9L6 9L6 10L4 10L4 12L3 12L3 13L4 13L4 14L5 14L5 12L7 12L7 13L6 13L6 14L7 14L7 13L9 13L9 12L11 12L11 9L12 9L12 13L11 13L11 14L10 14L10 15L11 15L11 14L12 14L12 15L13 15L13 14L14 14L14 13L13 13L13 9L14 9L14 11L15 11L15 15L14 15L14 16L15 16L15 17L17 17L17 19L16 19L16 20L14 20L14 22L15 22L15 23L16 23L16 24L19 24L19 25L16 25L16 26L14 26L14 23L13 23L13 21L11 21L11 20L13 20L13 19L15 19L15 18L13 18L13 16L10 16L10 17L9 17L9 19L8 19L8 18L7 18L7 17L8 17L8 15L5 15L5 19L6 19L6 20L7 20L7 19L8 19L8 20L9 20L9 21L6 21L6 22L5 22L5 20L3 20L3 18L4 18L4 17L3 17L3 18L2 18L2 19L1 19L1 21L2 21L2 22L3 22L3 23L4 23L4 24L5 24L5 25L6 25L6 26L7 26L7 25L10 25L10 24L11 24L11 23L13 23L13 24L12 24L12 25L11 25L11 26L9 26L9 27L11 27L11 28L13 28L13 29L10 29L10 28L9 28L9 29L10 29L10 30L11 30L11 31L10 31L10 32L8 32L8 31L6 31L6 32L5 32L5 33L4 33L4 31L2 31L2 32L3 32L3 33L4 33L4 35L3 35L3 36L4 36L4 35L5 35L5 34L8 34L8 35L9 35L9 36L7 36L7 35L6 35L6 36L5 36L5 37L3 37L3 38L4 38L4 40L3 40L3 41L2 41L2 42L4 42L4 41L5 41L5 38L7 38L7 37L8 37L8 39L6 39L6 40L9 40L9 39L10 39L10 40L12 40L12 41L11 41L11 43L10 43L10 44L8 44L8 43L9 43L9 42L10 42L10 41L8 41L8 43L6 43L6 44L7 44L7 45L6 45L6 46L7 46L7 45L8 45L8 46L9 46L9 47L10 47L10 48L11 48L11 50L12 50L12 48L11 48L11 47L15 47L15 48L16 48L16 47L18 47L18 46L17 46L17 45L19 45L19 43L18 43L18 42L15 42L15 41L14 41L14 45L13 45L13 44L12 44L12 43L13 43L13 40L15 40L15 38L17 38L17 39L16 39L16 41L17 41L17 39L18 39L18 38L19 38L19 37L20 37L20 38L21 38L21 39L22 39L22 41L19 41L19 40L18 40L18 41L19 41L19 42L20 42L20 44L22 44L22 46L21 46L21 45L20 45L20 47L19 47L19 49L21 49L21 51L23 51L23 52L22 52L22 53L23 53L23 52L24 52L24 53L25 53L25 52L26 52L26 50L25 50L25 47L26 47L26 48L27 48L27 46L29 46L29 48L31 48L31 47L32 47L32 49L31 49L31 50L33 50L33 49L34 49L34 50L35 50L35 48L37 48L37 49L36 49L36 50L37 50L37 49L38 49L38 48L39 48L39 49L40 49L40 50L39 50L39 52L40 52L40 54L41 54L41 53L42 53L42 54L43 54L43 51L45 51L45 53L46 53L46 50L47 50L47 52L48 52L48 48L47 48L47 47L49 47L49 48L53 48L53 50L55 50L55 49L54 49L54 48L53 48L53 47L52 47L52 46L51 46L51 47L49 47L49 46L50 46L50 45L49 45L49 46L48 46L48 44L43 44L43 43L42 43L42 42L44 42L44 43L45 43L45 41L42 41L42 38L44 38L44 39L45 39L45 40L46 40L46 38L48 38L48 36L47 36L47 37L46 37L46 35L47 35L47 34L50 34L50 33L49 33L49 32L50 32L50 31L49 31L49 32L48 32L48 28L47 28L47 32L46 32L46 31L44 31L44 30L46 30L46 26L49 26L49 25L47 25L47 24L48 24L48 23L47 23L47 24L46 24L46 26L45 26L45 29L44 29L44 28L43 28L43 27L42 27L42 28L43 28L43 29L42 29L42 30L40 30L40 29L41 29L41 26L40 26L40 25L41 25L41 23L42 23L42 24L43 24L43 22L41 22L41 23L39 23L39 20L40 20L40 19L39 19L39 18L41 18L41 19L42 19L42 20L41 20L41 21L42 21L42 20L43 20L43 21L44 21L44 22L45 22L45 19L44 19L44 18L45 18L45 17L46 17L46 15L47 15L47 14L48 14L48 16L49 16L49 17L48 17L48 18L47 18L47 19L46 19L46 20L47 20L47 21L46 21L46 22L47 22L47 21L49 21L49 23L52 23L52 22L51 22L51 21L50 21L50 20L53 20L53 22L56 22L56 21L54 21L54 20L55 20L55 19L52 19L52 18L51 18L51 16L50 16L50 15L49 15L49 11L48 11L48 10L47 10L47 11L45 11L45 10L44 10L44 9L45 9L45 8L44 8L44 6L45 6L45 7L46 7L46 5L47 5L47 3L46 3L46 2L47 2L47 1ZM24 4L24 6L23 6L23 7L24 7L24 8L23 8L23 9L24 9L24 8L25 8L25 9L26 9L26 6L25 6L25 5L26 5L26 4ZM27 5L27 8L30 8L30 5ZM10 6L10 7L11 7L11 6ZM19 6L19 7L20 7L20 6ZM24 6L24 7L25 7L25 6ZM28 6L28 7L29 7L29 6ZM32 6L32 8L33 8L33 6ZM34 6L34 9L36 9L36 8L37 8L37 10L38 10L38 9L39 9L39 10L40 10L40 11L38 11L38 12L35 12L35 11L36 11L36 10L35 10L35 11L34 11L34 10L33 10L33 11L32 11L32 12L33 12L33 14L32 14L32 16L31 16L31 14L30 14L30 13L28 13L28 12L26 12L26 13L25 13L25 14L27 14L27 16L26 16L26 15L25 15L25 16L23 16L23 18L22 18L22 17L21 17L21 16L20 16L20 17L21 17L21 19L20 19L20 18L19 18L19 17L18 17L18 19L17 19L17 20L16 20L16 23L17 23L17 22L19 22L19 24L20 24L20 25L19 25L19 26L16 26L16 27L19 27L19 28L18 28L18 29L19 29L19 31L20 31L20 32L21 32L21 34L22 34L22 33L23 33L23 35L22 35L22 36L23 36L23 39L24 39L24 40L23 40L23 41L22 41L22 44L23 44L23 42L24 42L24 44L25 44L25 45L23 45L23 46L22 46L22 47L21 47L21 48L23 48L23 49L22 49L22 50L23 50L23 49L24 49L24 46L25 46L25 45L26 45L26 46L27 46L27 45L29 45L29 46L30 46L30 45L31 45L31 44L30 44L30 45L29 45L29 43L32 43L32 42L33 42L33 45L32 45L32 46L33 46L33 45L34 45L34 44L35 44L35 46L34 46L34 47L33 47L33 48L34 48L34 47L35 47L35 46L37 46L37 47L38 47L38 45L39 45L39 46L40 46L40 47L43 47L43 50L46 50L46 49L47 49L47 48L46 48L46 47L47 47L47 46L46 46L46 47L45 47L45 45L42 45L42 43L41 43L41 44L38 44L38 43L39 43L39 42L40 42L40 40L39 40L39 39L41 39L41 37L40 37L40 36L39 36L39 35L41 35L41 34L42 34L42 35L43 35L43 37L44 37L44 36L45 36L45 34L44 34L44 31L41 31L41 32L40 32L40 31L39 31L39 30L38 30L38 29L40 29L40 28L39 28L39 27L38 27L38 26L39 26L39 25L38 25L38 24L39 24L39 23L38 23L38 21L36 21L36 20L38 20L38 19L36 19L36 20L35 20L35 19L34 19L34 18L35 18L35 17L34 17L34 16L35 16L35 15L36 15L36 14L37 14L37 15L39 15L39 17L40 17L40 16L41 16L41 14L40 14L40 13L39 13L39 12L40 12L40 11L41 11L41 10L43 10L43 11L42 11L42 12L43 12L43 14L42 14L42 17L41 17L41 18L42 18L42 19L43 19L43 18L42 18L42 17L45 17L45 16L44 16L44 12L43 12L43 11L44 11L44 10L43 10L43 8L38 8L38 7L39 7L39 6L38 6L38 7L37 7L37 6L36 6L36 7L35 7L35 6ZM48 6L48 7L49 7L49 6ZM15 8L15 9L16 9L16 8ZM6 10L6 11L7 11L7 10ZM28 10L28 11L29 11L29 10ZM30 11L30 12L31 12L31 11ZM47 11L47 12L48 12L48 11ZM34 12L34 14L33 14L33 15L35 15L35 14L36 14L36 13L35 13L35 12ZM50 12L50 13L51 13L51 15L54 15L54 14L52 14L52 13L51 13L51 12ZM45 13L45 14L46 14L46 13ZM15 15L15 16L16 16L16 15ZM28 15L28 16L29 16L29 17L27 17L27 18L26 18L26 19L28 19L28 20L29 20L29 21L27 21L27 20L26 20L26 21L27 21L27 22L25 22L25 19L24 19L24 18L25 18L25 17L24 17L24 18L23 18L23 19L21 19L21 20L19 20L19 19L18 19L18 21L19 21L19 22L22 22L22 23L23 23L23 21L24 21L24 22L25 22L25 25L24 25L24 24L21 24L21 23L20 23L20 24L21 24L21 25L23 25L23 27L22 27L22 26L21 26L21 27L20 27L20 30L21 30L21 32L22 32L22 31L23 31L23 30L21 30L21 29L23 29L23 28L24 28L24 31L25 31L25 30L26 30L26 28L25 28L25 27L24 27L24 26L25 26L25 25L28 25L28 26L31 26L31 23L32 23L32 22L33 22L33 24L32 24L32 25L33 25L33 24L35 24L35 23L36 23L36 24L37 24L37 22L35 22L35 21L33 21L33 18L32 18L32 20L31 20L31 22L29 22L29 21L30 21L30 19L31 19L31 16L29 16L29 15ZM6 16L6 17L7 17L7 16ZM52 16L52 17L53 17L53 18L54 18L54 17L55 17L55 16ZM29 17L29 18L28 18L28 19L30 19L30 17ZM36 17L36 18L37 18L37 17ZM6 18L6 19L7 19L7 18ZM12 18L12 19L13 19L13 18ZM9 19L9 20L10 20L10 19ZM47 19L47 20L50 20L50 19ZM2 20L2 21L3 21L3 20ZM21 20L21 21L23 21L23 20ZM9 21L9 22L8 22L8 23L9 23L9 22L11 22L11 21ZM4 22L4 23L5 23L5 24L6 24L6 25L7 25L7 24L6 24L6 23L7 23L7 22L6 22L6 23L5 23L5 22ZM27 22L27 23L26 23L26 24L27 24L27 23L29 23L29 22ZM44 23L44 25L45 25L45 23ZM51 24L51 25L53 25L53 24ZM12 25L12 27L13 27L13 28L14 28L14 26L13 26L13 25ZM34 25L34 27L35 27L35 25ZM42 25L42 26L43 26L43 25ZM0 27L0 28L3 28L3 27ZM5 27L5 30L8 30L8 27ZM27 27L27 30L30 30L30 27ZM31 27L31 28L33 28L33 27ZM49 27L49 30L52 30L52 27ZM6 28L6 29L7 29L7 28ZM15 28L15 29L16 29L16 30L14 30L14 29L13 29L13 30L12 30L12 31L11 31L11 32L10 32L10 33L9 33L9 34L11 34L11 35L10 35L10 36L11 36L11 37L12 37L12 35L13 35L13 39L12 39L12 38L11 38L11 39L12 39L12 40L13 40L13 39L14 39L14 35L15 35L15 36L16 36L16 34L15 34L15 33L18 33L18 34L17 34L17 35L18 35L18 36L17 36L17 38L18 38L18 37L19 37L19 36L21 36L21 35L18 35L18 34L20 34L20 33L18 33L18 31L17 31L17 32L16 32L16 30L17 30L17 28ZM28 28L28 29L29 29L29 28ZM34 28L34 29L35 29L35 30L36 30L36 31L37 31L37 32L36 32L36 33L37 33L37 32L38 32L38 34L39 34L39 31L38 31L38 30L36 30L36 29L37 29L37 28ZM50 28L50 29L51 29L51 28ZM53 28L53 29L54 29L54 30L56 30L56 29L54 29L54 28ZM31 29L31 30L33 30L33 29ZM12 31L12 32L14 32L14 33L11 33L11 34L13 34L13 35L14 35L14 33L15 33L15 32L14 32L14 31ZM26 31L26 33L25 33L25 34L24 34L24 35L23 35L23 36L25 36L25 37L24 37L24 39L25 39L25 41L24 41L24 42L25 42L25 43L26 43L26 45L27 45L27 42L25 42L25 41L26 41L26 40L27 40L27 41L28 41L28 40L33 40L33 39L32 39L32 38L33 38L33 37L34 37L34 38L36 38L36 39L35 39L35 40L34 40L34 41L36 41L36 42L34 42L34 43L36 43L36 45L38 45L38 44L37 44L37 42L39 42L39 41L37 41L37 40L38 40L38 39L39 39L39 38L37 38L37 37L38 37L38 36L37 36L37 37L34 37L34 36L36 36L36 35L34 35L34 34L35 34L35 33L33 33L33 32L31 32L31 34L30 34L30 35L29 35L29 33L30 33L30 32L29 32L29 31L28 31L28 33L27 33L27 31ZM51 31L51 32L52 32L52 34L54 34L54 33L53 33L53 31ZM54 31L54 32L55 32L55 31ZM6 32L6 33L7 33L7 32ZM23 32L23 33L24 33L24 32ZM42 32L42 33L43 33L43 32ZM45 32L45 33L46 33L46 32ZM26 33L26 34L27 34L27 35L26 35L26 37L27 37L27 36L29 36L29 38L25 38L25 39L27 39L27 40L28 40L28 39L30 39L30 38L32 38L32 36L34 36L34 35L32 35L32 34L31 34L31 35L32 35L32 36L29 36L29 35L28 35L28 34L27 34L27 33ZM1 34L1 35L2 35L2 34ZM51 35L51 36L52 36L52 38L50 38L50 39L53 39L53 38L55 38L55 37L53 37L53 36L52 36L52 35ZM54 35L54 36L56 36L56 35ZM6 36L6 37L7 37L7 36ZM21 37L21 38L22 38L22 37ZM45 37L45 38L46 38L46 37ZM47 39L47 40L49 40L49 39ZM50 40L50 41L47 41L47 42L46 42L46 43L47 43L47 42L48 42L48 43L49 43L49 44L51 44L51 42L50 42L50 41L52 41L52 40ZM29 41L29 42L30 42L30 41ZM41 41L41 42L42 42L42 41ZM49 42L49 43L50 43L50 42ZM15 43L15 45L14 45L14 46L15 46L15 47L16 47L16 46L15 46L15 45L17 45L17 43ZM11 44L11 45L9 45L9 46L10 46L10 47L11 47L11 45L12 45L12 46L13 46L13 45L12 45L12 44ZM55 45L55 46L56 46L56 45ZM44 47L44 49L45 49L45 47ZM6 48L6 49L7 49L7 48ZM13 48L13 49L14 49L14 48ZM41 48L41 49L42 49L42 48ZM27 49L27 52L30 52L30 49ZM49 49L49 52L52 52L52 49ZM24 50L24 51L25 51L25 50ZM28 50L28 51L29 51L29 50ZM50 50L50 51L51 51L51 50ZM31 51L31 53L32 53L32 51ZM33 51L33 52L35 52L35 53L36 53L36 54L37 54L37 52L38 52L38 51L36 51L36 52L35 52L35 51ZM40 51L40 52L42 52L42 51ZM9 52L9 53L8 53L8 57L11 57L11 53L10 53L10 52ZM54 52L54 54L55 54L55 53L56 53L56 52ZM20 53L20 55L22 55L22 54L21 54L21 53ZM38 53L38 54L39 54L39 53ZM47 53L47 54L50 54L50 53ZM9 54L9 56L10 56L10 54ZM13 54L13 55L12 55L12 56L13 56L13 57L14 57L14 56L13 56L13 55L14 55L14 54ZM44 54L44 55L45 55L45 54ZM39 55L39 56L42 56L42 55ZM56 55L56 56L57 56L57 55ZM52 56L52 57L55 57L55 56ZM0 0L0 7L7 7L7 0ZM1 1L1 6L6 6L6 1ZM2 2L2 5L5 5L5 2ZM50 0L50 7L57 7L57 0ZM51 1L51 6L56 6L56 1ZM52 2L52 5L55 5L55 2ZM0 50L0 57L7 57L7 50ZM1 51L1 56L6 56L6 51ZM2 52L2 55L5 55L5 52Z" fill="#000000"/></g></g></svg>
