<?xml version="1.0" encoding="UTF-8"?>
<svg xmlns="http://www.w3.org/2000/svg" version="1.1" width="300" height="300" viewBox="0 0 300 300"><rect x="0" y="0" width="300" height="300" fill="#fefefe"/><g transform="scale(4.615)"><g transform="translate(4,4)"><path fill-rule="evenodd" d="M9 0L9 1L8 1L8 2L10 2L10 3L8 3L8 4L10 4L10 5L11 5L11 6L10 6L10 7L9 7L9 5L8 5L8 7L9 7L9 8L6 8L6 9L5 9L5 8L0 8L0 9L2 9L2 10L1 10L1 11L0 11L0 12L2 12L2 13L3 13L3 14L2 14L2 15L1 15L1 14L0 14L0 15L1 15L1 16L3 16L3 14L4 14L4 15L5 15L5 16L4 16L4 17L3 17L3 20L2 20L2 17L0 17L0 18L1 18L1 19L0 19L0 20L2 20L2 21L0 21L0 23L1 23L1 26L0 26L0 29L2 29L2 30L0 30L0 31L3 31L3 30L4 30L4 32L1 32L1 33L2 33L2 34L0 34L0 36L1 36L1 35L3 35L3 36L2 36L2 39L3 39L3 40L6 40L6 41L7 41L7 40L9 40L9 42L10 42L10 40L11 40L11 39L12 39L12 40L14 40L14 42L12 42L12 43L10 43L10 44L13 44L13 45L11 45L11 48L10 48L10 49L11 49L11 51L9 51L9 49L8 49L8 48L9 48L9 46L10 46L10 45L9 45L9 46L8 46L8 43L7 43L7 42L5 42L5 43L4 43L4 44L3 44L3 41L2 41L2 40L1 40L1 37L0 37L0 41L2 41L2 43L1 43L1 42L0 42L0 44L1 44L1 45L0 45L0 48L5 48L5 47L7 47L7 48L6 48L6 49L8 49L8 51L9 51L9 52L8 52L8 57L12 57L12 56L14 56L14 55L16 55L16 56L15 56L15 57L16 57L16 56L17 56L17 57L21 57L21 56L24 56L24 57L26 57L26 56L27 56L27 57L29 57L29 56L30 56L30 57L31 57L31 56L35 56L35 57L39 57L39 56L40 56L40 55L41 55L41 57L42 57L42 55L44 55L44 54L45 54L45 53L44 53L44 52L47 52L47 51L44 51L44 50L45 50L45 49L44 49L44 48L43 48L43 47L42 47L42 48L41 48L41 46L43 46L43 45L44 45L44 47L47 47L47 48L48 48L48 49L47 49L47 50L48 50L48 54L46 54L46 55L47 55L47 56L46 56L46 57L47 57L47 56L48 56L48 55L49 55L49 56L50 56L50 57L52 57L52 55L51 55L51 53L52 53L52 54L53 54L53 52L54 52L54 54L55 54L55 52L56 52L56 53L57 53L57 52L56 52L56 49L57 49L57 48L56 48L56 46L57 46L57 43L56 43L56 41L55 41L55 39L57 39L57 37L56 37L56 36L55 36L55 35L56 35L56 34L55 34L55 33L54 33L54 34L55 34L55 35L53 35L53 34L52 34L52 33L53 33L53 32L56 32L56 33L57 33L57 32L56 32L56 30L57 30L57 29L56 29L56 26L57 26L57 25L56 25L56 22L57 22L57 19L56 19L56 16L57 16L57 15L56 15L56 14L57 14L57 12L56 12L56 14L55 14L55 13L54 13L54 12L55 12L55 11L56 11L56 10L54 10L54 11L50 11L50 8L49 8L49 9L47 9L47 10L44 10L44 8L45 8L45 9L46 9L46 8L45 8L45 6L46 6L46 7L47 7L47 5L48 5L48 0L46 0L46 1L45 1L45 2L44 2L44 3L42 3L42 2L43 2L43 0L41 0L41 1L40 1L40 0L39 0L39 1L38 1L38 0L37 0L37 1L38 1L38 2L37 2L37 3L36 3L36 0L35 0L35 1L33 1L33 2L32 2L32 1L31 1L31 0L29 0L29 1L28 1L28 0L27 0L27 1L26 1L26 0L23 0L23 2L25 2L25 1L26 1L26 2L28 2L28 3L27 3L27 4L26 4L26 3L23 3L23 4L19 4L19 3L18 3L18 2L19 2L19 1L20 1L20 2L21 2L21 3L22 3L22 2L21 2L21 1L22 1L22 0L21 0L21 1L20 1L20 0L17 0L17 1L14 1L14 0L13 0L13 1L14 1L14 2L12 2L12 3L11 3L11 0ZM17 1L17 2L18 2L18 1ZM46 1L46 2L47 2L47 1ZM14 2L14 4L13 4L13 5L12 5L12 6L11 6L11 7L10 7L10 8L9 8L9 10L8 10L8 9L6 9L6 10L3 10L3 11L2 11L2 12L3 12L3 13L4 13L4 14L5 14L5 13L6 13L6 14L7 14L7 15L6 15L6 16L5 16L5 17L4 17L4 18L5 18L5 17L6 17L6 18L7 18L7 19L5 19L5 21L4 21L4 23L2 23L2 26L3 26L3 27L2 27L2 28L3 28L3 29L4 29L4 28L3 28L3 27L4 27L4 26L5 26L5 25L6 25L6 26L11 26L11 25L12 25L12 26L16 26L16 27L12 27L12 28L13 28L13 29L11 29L11 27L10 27L10 28L9 28L9 32L11 32L11 31L12 31L12 30L15 30L15 29L16 29L16 31L15 31L15 32L19 32L19 33L20 33L20 34L18 34L18 33L15 33L15 34L14 34L14 35L12 35L12 34L13 34L13 33L14 33L14 32L12 32L12 33L11 33L11 37L13 37L13 36L14 36L14 37L16 37L16 38L15 38L15 39L16 39L16 41L15 41L15 42L14 42L14 43L13 43L13 44L14 44L14 45L13 45L13 47L12 47L12 48L14 48L14 49L12 49L12 51L13 51L13 55L14 55L14 54L16 54L16 53L17 53L17 52L20 52L20 53L19 53L19 54L17 54L17 56L18 56L18 55L19 55L19 56L21 56L21 55L22 55L22 54L23 54L23 55L24 55L24 56L26 56L26 54L25 54L25 53L26 53L26 51L25 51L25 50L26 50L26 49L25 49L25 48L27 48L27 47L28 47L28 48L30 48L30 47L28 47L28 46L29 46L29 45L30 45L30 46L31 46L31 47L32 47L32 49L31 49L31 53L30 53L30 54L27 54L27 56L29 56L29 55L30 55L30 56L31 56L31 54L32 54L32 53L33 53L33 54L34 54L34 55L35 55L35 56L36 56L36 54L35 54L35 53L33 53L33 52L32 52L32 51L34 51L34 50L36 50L36 52L37 52L37 53L38 53L38 54L37 54L37 56L39 56L39 55L38 55L38 54L40 54L40 53L43 53L43 54L44 54L44 53L43 53L43 51L42 51L42 50L41 50L41 48L39 48L39 47L40 47L40 45L41 45L41 44L42 44L42 42L41 42L41 38L40 38L40 37L41 37L41 36L40 36L40 37L39 37L39 36L38 36L38 38L37 38L37 39L35 39L35 40L33 40L33 39L34 39L34 38L35 38L35 36L37 36L37 34L35 34L35 32L37 32L37 33L38 33L38 35L40 35L40 34L39 34L39 33L41 33L41 32L43 32L43 33L44 33L44 35L43 35L43 34L42 34L42 35L43 35L43 36L44 36L44 37L43 37L43 38L42 38L42 39L45 39L45 40L44 40L44 45L45 45L45 46L47 46L47 47L48 47L48 48L49 48L49 47L51 47L51 46L52 46L52 47L53 47L53 48L54 48L54 49L56 49L56 48L54 48L54 47L53 47L53 45L52 45L52 44L53 44L53 43L54 43L54 42L53 42L53 41L54 41L54 40L53 40L53 41L51 41L51 42L50 42L50 43L49 43L49 42L48 42L48 41L49 41L49 40L50 40L50 39L51 39L51 40L52 40L52 39L55 39L55 37L53 37L53 35L52 35L52 34L50 34L50 31L48 31L48 28L47 28L47 29L46 29L46 30L47 30L47 31L46 31L46 33L45 33L45 32L43 32L43 31L44 31L44 30L45 30L45 28L46 28L46 27L48 27L48 26L47 26L47 25L48 25L48 24L49 24L49 23L50 23L50 24L51 24L51 25L50 25L50 26L51 26L51 25L55 25L55 24L53 24L53 23L55 23L55 22L56 22L56 21L55 21L55 20L56 20L56 19L55 19L55 20L53 20L53 19L52 19L52 20L51 20L51 21L49 21L49 20L47 20L47 19L48 19L48 18L47 18L47 17L50 17L50 19L51 19L51 17L53 17L53 18L55 18L55 17L54 17L54 16L53 16L53 15L50 15L50 14L51 14L51 12L50 12L50 11L49 11L49 12L45 12L45 11L42 11L42 10L41 10L41 9L43 9L43 7L44 7L44 6L45 6L45 5L47 5L47 3L44 3L44 6L43 6L43 5L40 5L40 4L41 4L41 3L39 3L39 2L38 2L38 3L39 3L39 4L38 4L38 6L37 6L37 7L36 7L36 5L37 5L37 4L36 4L36 5L35 5L35 4L34 4L34 3L35 3L35 2L33 2L33 3L32 3L32 2L31 2L31 3L32 3L32 4L31 4L31 8L32 8L32 10L31 10L31 11L29 11L29 12L28 12L28 13L26 13L26 12L27 12L27 11L28 11L28 10L27 10L27 11L26 11L26 12L25 12L25 10L23 10L23 9L24 9L24 6L23 6L23 5L24 5L24 4L23 4L23 5L21 5L21 7L22 7L22 8L19 8L19 7L20 7L20 5L18 5L18 4L17 4L17 3L15 3L15 2ZM28 3L28 4L30 4L30 3ZM15 4L15 5L16 5L16 4ZM25 4L25 8L26 8L26 4ZM32 4L32 5L34 5L34 7L33 7L33 6L32 6L32 7L33 7L33 9L34 9L34 8L35 8L35 9L37 9L37 10L36 10L36 11L37 11L37 12L35 12L35 13L36 13L36 14L33 14L33 13L34 13L34 12L33 12L33 13L32 13L32 11L33 11L33 10L32 10L32 11L31 11L31 13L30 13L30 14L29 14L29 13L28 13L28 14L29 14L29 16L28 16L28 15L27 15L27 16L26 16L26 13L25 13L25 12L23 12L23 10L22 10L22 9L21 9L21 10L22 10L22 11L21 11L21 12L22 12L22 13L21 13L21 14L20 14L20 12L19 12L19 10L20 10L20 9L19 9L19 8L16 8L16 7L17 7L17 6L18 6L18 7L19 7L19 6L18 6L18 5L17 5L17 6L16 6L16 7L15 7L15 6L14 6L14 7L13 7L13 6L12 6L12 7L11 7L11 8L13 8L13 9L12 9L12 11L10 11L10 12L11 12L11 13L10 13L10 16L9 16L9 15L8 15L8 16L9 16L9 17L7 17L7 16L6 16L6 17L7 17L7 18L8 18L8 19L9 19L9 21L8 21L8 20L6 20L6 21L8 21L8 22L9 22L9 21L13 21L13 23L14 23L14 24L15 24L15 25L16 25L16 24L17 24L17 25L22 25L22 26L21 26L21 27L22 27L22 26L24 26L24 27L23 27L23 28L24 28L24 27L25 27L25 28L26 28L26 29L23 29L23 30L25 30L25 31L26 31L26 33L27 33L27 31L28 31L28 33L29 33L29 34L30 34L30 36L29 36L29 37L31 37L31 38L29 38L29 39L33 39L33 37L32 37L32 36L33 36L33 35L34 35L34 36L35 36L35 35L34 35L34 34L33 34L33 35L32 35L32 30L31 30L31 29L32 29L32 27L33 27L33 28L35 28L35 30L33 30L33 31L34 31L34 32L35 32L35 31L36 31L36 30L37 30L37 29L38 29L38 28L40 28L40 27L36 27L36 26L34 26L34 27L33 27L33 26L32 26L32 24L33 24L33 25L37 25L37 26L38 26L38 25L40 25L40 24L41 24L41 25L42 25L42 26L41 26L41 28L42 28L42 26L43 26L43 29L40 29L40 30L44 30L44 28L45 28L45 27L46 27L46 26L45 26L45 25L44 25L44 24L41 24L41 23L44 23L44 20L45 20L45 21L46 21L46 20L45 20L45 18L44 18L44 15L45 15L45 17L46 17L46 16L48 16L48 15L49 15L49 16L50 16L50 15L49 15L49 14L50 14L50 12L49 12L49 13L47 13L47 14L44 14L44 15L42 15L42 16L41 16L41 15L39 15L39 14L38 14L38 13L39 13L39 11L40 11L40 12L41 12L41 11L40 11L40 9L39 9L39 8L40 8L40 7L41 7L41 6L40 6L40 5L39 5L39 6L38 6L38 7L37 7L37 8L35 8L35 5L34 5L34 4ZM27 5L27 8L30 8L30 5ZM22 6L22 7L23 7L23 6ZM28 6L28 7L29 7L29 6ZM39 6L39 7L40 7L40 6ZM42 6L42 7L43 7L43 6ZM48 6L48 7L49 7L49 6ZM14 8L14 9L13 9L13 10L15 10L15 11L18 11L18 9L16 9L16 8ZM37 8L37 9L38 9L38 10L37 10L37 11L39 11L39 9L38 9L38 8ZM51 8L51 10L53 10L53 9L54 9L54 8L53 8L53 9L52 9L52 8ZM55 8L55 9L56 9L56 8ZM15 9L15 10L16 10L16 9ZM6 10L6 11L8 11L8 10ZM3 11L3 12L4 12L4 11ZM13 11L13 12L14 12L14 11ZM6 12L6 13L7 13L7 14L9 14L9 12ZM15 12L15 13L12 13L12 14L15 14L15 13L16 13L16 16L15 16L15 15L14 15L14 17L15 17L15 18L13 18L13 15L12 15L12 20L13 20L13 21L14 21L14 22L16 22L16 21L18 21L18 22L20 22L20 23L19 23L19 24L22 24L22 25L23 25L23 23L24 23L24 24L25 24L25 25L26 25L26 26L25 26L25 27L26 27L26 26L27 26L27 25L29 25L29 26L30 26L30 25L29 25L29 24L32 24L32 23L33 23L33 22L34 22L34 23L35 23L35 21L34 21L34 20L35 20L35 19L36 19L36 20L38 20L38 22L37 22L37 24L40 24L40 22L39 22L39 21L43 21L43 20L44 20L44 18L43 18L43 19L42 19L42 18L41 18L41 20L38 20L38 19L39 19L39 17L41 17L41 16L39 16L39 15L38 15L38 14L37 14L37 15L35 15L35 16L33 16L33 15L32 15L32 13L31 13L31 14L30 14L30 15L32 15L32 18L30 18L30 19L32 19L32 18L34 18L34 20L32 20L32 21L31 21L31 22L30 22L30 21L29 21L29 20L27 20L27 19L28 19L28 18L26 18L26 21L28 21L28 22L27 22L27 23L28 23L28 24L25 24L25 23L26 23L26 22L25 22L25 21L24 21L24 20L23 20L23 19L24 19L24 18L22 18L22 17L26 17L26 16L24 16L24 15L25 15L25 14L23 14L23 13L22 13L22 14L23 14L23 15L21 15L21 16L22 16L22 17L20 17L20 14L19 14L19 15L18 15L18 16L19 16L19 17L20 17L20 18L21 18L21 19L19 19L19 20L20 20L20 21L18 21L18 20L16 20L16 19L17 19L17 18L18 18L18 17L16 17L16 16L17 16L17 13L18 13L18 12L17 12L17 13L16 13L16 12ZM43 12L43 13L41 13L41 14L43 14L43 13L44 13L44 12ZM52 12L52 13L53 13L53 12ZM54 14L54 15L55 15L55 14ZM27 16L27 17L28 17L28 16ZM35 16L35 17L37 17L37 18L38 18L38 17L39 17L39 16L38 16L38 17L37 17L37 16ZM42 16L42 17L43 17L43 16ZM9 17L9 18L10 18L10 19L11 19L11 18L10 18L10 17ZM15 18L15 19L16 19L16 18ZM13 19L13 20L14 20L14 19ZM21 19L21 20L22 20L22 19ZM15 20L15 21L16 21L16 20ZM2 21L2 22L3 22L3 21ZM21 21L21 22L22 22L22 21ZM23 21L23 22L24 22L24 21ZM47 21L47 22L45 22L45 24L46 24L46 25L47 25L47 23L49 23L49 21ZM51 21L51 22L50 22L50 23L53 23L53 22L54 22L54 21ZM5 22L5 23L4 23L4 24L5 24L5 23L7 23L7 24L6 24L6 25L7 25L7 24L8 24L8 25L9 25L9 24L8 24L8 23L7 23L7 22ZM11 22L11 23L10 23L10 24L11 24L11 23L12 23L12 22ZM29 22L29 23L30 23L30 22ZM38 22L38 23L39 23L39 22ZM15 23L15 24L16 24L16 23ZM17 23L17 24L18 24L18 23ZM3 25L3 26L4 26L4 25ZM17 26L17 27L18 27L18 26ZM19 26L19 29L18 29L18 28L16 28L16 29L18 29L18 30L17 30L17 31L19 31L19 32L20 32L20 31L21 31L21 32L23 32L23 31L21 31L21 30L20 30L20 29L22 29L22 28L20 28L20 26ZM31 26L31 27L32 27L32 26ZM44 26L44 27L45 27L45 26ZM53 26L53 27L54 27L54 26ZM5 27L5 30L8 30L8 27ZM27 27L27 30L30 30L30 27ZM49 27L49 30L52 30L52 27ZM6 28L6 29L7 29L7 28ZM14 28L14 29L15 29L15 28ZM28 28L28 29L29 29L29 28ZM50 28L50 29L51 29L51 28ZM54 28L54 30L53 30L53 31L52 31L52 32L51 32L51 33L52 33L52 32L53 32L53 31L55 31L55 28ZM10 30L10 31L11 31L11 30ZM38 30L38 32L39 32L39 30ZM6 31L6 32L5 32L5 33L4 33L4 34L5 34L5 36L3 36L3 37L4 37L4 38L5 38L5 37L6 37L6 38L7 38L7 39L6 39L6 40L7 40L7 39L8 39L8 38L9 38L9 37L10 37L10 36L9 36L9 34L10 34L10 33L8 33L8 35L6 35L6 34L7 34L7 33L6 33L6 32L8 32L8 31ZM30 31L30 32L29 32L29 33L31 33L31 31ZM47 31L47 32L48 32L48 33L49 33L49 32L48 32L48 31ZM21 33L21 36L22 36L22 35L23 35L23 34L24 34L24 36L23 36L23 37L24 37L24 38L23 38L23 39L22 39L22 38L21 38L21 37L19 37L19 36L20 36L20 35L17 35L17 34L15 34L15 35L14 35L14 36L15 36L15 35L16 35L16 36L17 36L17 39L18 39L18 40L17 40L17 41L19 41L19 42L18 42L18 43L17 43L17 42L16 42L16 44L18 44L18 45L17 45L17 46L19 46L19 47L17 47L17 48L15 48L15 45L14 45L14 48L15 48L15 49L19 49L19 51L20 51L20 52L23 52L23 51L22 51L22 50L25 50L25 49L24 49L24 48L23 48L23 49L21 49L21 48L20 48L20 47L25 47L25 44L27 44L27 45L26 45L26 47L27 47L27 45L29 45L29 43L31 43L31 44L30 44L30 45L31 45L31 46L32 46L32 45L31 45L31 44L33 44L33 43L34 43L34 45L35 45L35 46L33 46L33 47L35 47L35 46L36 46L36 45L37 45L37 47L36 47L36 48L34 48L34 49L36 49L36 50L38 50L38 51L37 51L37 52L38 52L38 53L39 53L39 52L38 52L38 51L40 51L40 52L41 52L41 50L38 50L38 49L39 49L39 48L38 48L38 47L39 47L39 46L38 46L38 45L39 45L39 42L40 42L40 41L39 41L39 42L38 42L38 40L40 40L40 39L38 39L38 40L35 40L35 42L37 42L37 43L36 43L36 44L35 44L35 43L34 43L34 42L33 42L33 41L32 41L32 40L29 40L29 43L28 43L28 44L27 44L27 43L25 43L25 44L24 44L24 45L23 45L23 42L25 42L25 41L23 41L23 42L22 42L22 41L21 41L21 42L20 42L20 40L21 40L21 39L22 39L22 40L23 40L23 39L24 39L24 40L25 40L25 39L27 39L27 41L26 41L26 42L27 42L27 41L28 41L28 39L27 39L27 38L28 38L28 37L26 37L26 38L25 38L25 36L27 36L27 34L26 34L26 35L25 35L25 33L23 33L23 34L22 34L22 33ZM45 34L45 35L44 35L44 36L46 36L46 37L47 37L47 39L46 39L46 41L47 41L47 39L48 39L48 37L47 37L47 34ZM49 34L49 35L50 35L50 38L49 38L49 39L50 39L50 38L51 38L51 39L52 39L52 38L51 38L51 36L52 36L52 35L50 35L50 34ZM6 36L6 37L7 37L7 38L8 38L8 37L9 37L9 36ZM18 37L18 38L19 38L19 39L20 39L20 38L19 38L19 37ZM44 37L44 38L45 38L45 37ZM10 38L10 39L9 39L9 40L10 40L10 39L11 39L11 38ZM31 41L31 42L32 42L32 43L33 43L33 42L32 42L32 41ZM19 42L19 45L20 45L20 46L21 46L21 45L22 45L22 46L23 46L23 45L22 45L22 44L21 44L21 45L20 45L20 42ZM21 42L21 43L22 43L22 42ZM47 42L47 43L46 43L46 44L45 44L45 45L47 45L47 43L48 43L48 42ZM51 42L51 43L50 43L50 44L49 44L49 45L48 45L48 47L49 47L49 46L51 46L51 43L53 43L53 42ZM5 43L5 44L7 44L7 43ZM14 43L14 44L15 44L15 43ZM55 43L55 44L54 44L54 46L56 46L56 43ZM1 45L1 47L2 47L2 45ZM3 45L3 47L5 47L5 46L4 46L4 45ZM6 45L6 46L7 46L7 45ZM19 48L19 49L20 49L20 50L21 50L21 49L20 49L20 48ZM37 48L37 49L38 49L38 48ZM42 48L42 49L43 49L43 50L44 50L44 49L43 49L43 48ZM27 49L27 52L30 52L30 49ZM49 49L49 52L52 52L52 49ZM13 50L13 51L14 51L14 50ZM28 50L28 51L29 51L29 50ZM50 50L50 51L51 51L51 50ZM54 50L54 51L55 51L55 50ZM15 51L15 52L14 52L14 53L16 53L16 51ZM11 52L11 53L10 53L10 55L9 55L9 56L10 56L10 55L11 55L11 53L12 53L12 52ZM24 52L24 53L23 53L23 54L24 54L24 53L25 53L25 52ZM19 54L19 55L20 55L20 54ZM41 54L41 55L42 55L42 54ZM50 55L50 56L51 56L51 55ZM53 55L53 56L55 56L55 57L56 57L56 56L55 56L55 55ZM43 56L43 57L44 57L44 56ZM0 0L0 7L7 7L7 0ZM1 1L1 6L6 6L6 1ZM2 2L2 5L5 5L5 2ZM50 0L50 7L57 7L57 0ZM51 1L51 6L56 6L56 1ZM52 2L52 5L55 5L55 2ZM0 50L0 57L7 57L7 50ZM1 51L1 56L6 56L6 51ZM2 52L2 55L5 55L5 52Z" fill="#000000"/></g></g></svg>
