<?xml version="1.0" encoding="UTF-8"?>
<svg xmlns="http://www.w3.org/2000/svg" version="1.1" width="300" height="300" viewBox="0 0 300 300"><rect x="0" y="0" width="300" height="300" fill="#fefefe"/><g transform="scale(4.615)"><g transform="translate(4,4)"><path fill-rule="evenodd" d="M8 0L8 1L9 1L9 0ZM13 0L13 1L12 1L12 2L11 2L11 1L10 1L10 3L9 3L9 2L8 2L8 5L10 5L10 7L9 7L9 6L8 6L8 7L9 7L9 8L8 8L8 9L7 9L7 8L6 8L6 9L7 9L7 10L5 10L5 9L4 9L4 8L0 8L0 18L1 18L1 20L0 20L0 22L2 22L2 23L3 23L3 24L2 24L2 25L1 25L1 26L0 26L0 28L1 28L1 27L2 27L2 26L3 26L3 25L4 25L4 27L3 27L3 29L2 29L2 30L1 30L1 29L0 29L0 34L1 34L1 35L0 35L0 41L2 41L2 40L1 40L1 39L2 39L2 38L1 38L1 36L2 36L2 30L3 30L3 31L4 31L4 32L3 32L3 35L4 35L4 34L6 34L6 35L5 35L5 36L3 36L3 37L4 37L4 39L5 39L5 36L6 36L6 37L8 37L8 38L6 38L6 39L7 39L7 40L5 40L5 41L4 41L4 40L3 40L3 42L4 42L4 43L5 43L5 45L4 45L4 44L3 44L3 43L2 43L2 42L0 42L0 43L2 43L2 44L3 44L3 45L2 45L2 47L1 47L1 46L0 46L0 48L5 48L5 47L8 47L8 48L6 48L6 49L8 49L8 50L9 50L9 52L10 52L10 50L13 50L13 51L12 51L12 53L11 53L11 54L10 54L10 55L9 55L9 53L8 53L8 57L10 57L10 56L11 56L11 57L12 57L12 56L13 56L13 55L14 55L14 56L15 56L15 57L18 57L18 56L17 56L17 55L20 55L20 57L21 57L21 56L22 56L22 57L23 57L23 56L22 56L22 55L23 55L23 54L25 54L25 55L24 55L24 56L26 56L26 53L29 53L29 54L31 54L31 55L30 55L30 56L31 56L31 57L32 57L32 55L33 55L33 54L36 54L36 55L34 55L34 56L33 56L33 57L36 57L36 55L38 55L38 57L41 57L41 56L42 56L42 57L43 57L43 56L45 56L45 57L47 57L47 56L48 56L48 57L51 57L51 54L52 54L52 53L54 53L54 54L53 54L53 55L55 55L55 54L56 54L56 53L57 53L57 52L56 52L56 51L55 51L55 50L53 50L53 48L54 48L54 46L53 46L53 48L52 48L52 47L51 47L51 46L52 46L52 43L53 43L53 42L54 42L54 43L56 43L56 44L57 44L57 43L56 43L56 42L57 42L57 40L56 40L56 41L55 41L55 42L54 42L54 40L55 40L55 38L56 38L56 39L57 39L57 38L56 38L56 37L57 37L57 36L56 36L56 35L57 35L57 34L56 34L56 33L57 33L57 31L56 31L56 30L57 30L57 28L55 28L55 27L53 27L53 25L54 25L54 24L53 24L53 23L57 23L57 21L56 21L56 22L54 22L54 21L55 21L55 20L57 20L57 19L55 19L55 17L56 17L56 18L57 18L57 15L53 15L53 17L54 17L54 18L51 18L51 19L55 19L55 20L54 20L54 21L53 21L53 20L50 20L50 19L49 19L49 18L48 18L48 17L50 17L50 15L51 15L51 13L52 13L52 14L53 14L53 13L54 13L54 10L53 10L53 9L55 9L55 8L52 8L52 10L50 10L50 8L48 8L48 9L47 9L47 8L46 8L46 7L47 7L47 5L48 5L48 0L46 0L46 1L44 1L44 2L42 2L42 3L43 3L43 5L45 5L45 4L44 4L44 3L45 3L45 2L46 2L46 3L47 3L47 5L46 5L46 7L45 7L45 6L44 6L44 7L43 7L43 6L42 6L42 5L41 5L41 4L39 4L39 3L38 3L38 2L37 2L37 1L38 1L38 0L37 0L37 1L36 1L36 0L35 0L35 1L34 1L34 3L33 3L33 2L31 2L31 4L26 4L26 1L25 1L25 0L23 0L23 1L25 1L25 2L24 2L24 3L23 3L23 2L22 2L22 0L21 0L21 1L20 1L20 0L17 0L17 3L18 3L18 5L15 5L15 4L14 4L14 3L13 3L13 1L14 1L14 0ZM28 0L28 2L27 2L27 3L29 3L29 2L30 2L30 1L31 1L31 0ZM39 0L39 1L40 1L40 2L41 2L41 1L43 1L43 0L41 0L41 1L40 1L40 0ZM15 1L15 2L16 2L16 1ZM18 1L18 3L19 3L19 4L20 4L20 5L21 5L21 7L20 7L20 6L19 6L19 7L20 7L20 10L23 10L23 11L19 11L19 10L18 10L18 9L19 9L19 8L18 8L18 9L17 9L17 7L18 7L18 6L17 6L17 7L16 7L16 6L15 6L15 5L14 5L14 4L13 4L13 3L12 3L12 4L13 4L13 7L14 7L14 8L12 8L12 9L11 9L11 8L9 8L9 9L8 9L8 11L9 11L9 14L7 14L7 13L8 13L8 12L7 12L7 11L5 11L5 10L3 10L3 11L1 11L1 12L2 12L2 13L1 13L1 16L2 16L2 14L3 14L3 15L5 15L5 14L7 14L7 15L6 15L6 16L5 16L5 17L6 17L6 18L7 18L7 19L6 19L6 20L7 20L7 21L6 21L6 22L7 22L7 23L6 23L6 24L5 24L5 20L4 20L4 16L3 16L3 17L1 17L1 18L2 18L2 19L3 19L3 20L4 20L4 21L2 21L2 20L1 20L1 21L2 21L2 22L4 22L4 25L5 25L5 26L7 26L7 25L6 25L6 24L7 24L7 23L8 23L8 22L9 22L9 21L8 21L8 20L7 20L7 19L8 19L8 17L6 17L6 16L11 16L11 17L10 17L10 18L9 18L9 19L11 19L11 20L10 20L10 22L11 22L11 21L12 21L12 18L11 18L11 17L13 17L13 16L14 16L14 15L9 15L9 14L10 14L10 11L11 11L11 10L12 10L12 11L13 11L13 10L12 10L12 9L14 9L14 11L15 11L15 10L16 10L16 12L15 12L15 15L16 15L16 16L17 16L17 19L16 19L16 18L15 18L15 17L14 17L14 18L13 18L13 19L15 19L15 20L14 20L14 22L15 22L15 23L16 23L16 27L15 27L15 25L14 25L14 23L13 23L13 22L12 22L12 23L13 23L13 25L12 25L12 24L11 24L11 23L10 23L10 24L8 24L8 26L9 26L9 32L8 32L8 33L9 33L9 34L7 34L7 33L6 33L6 32L7 32L7 31L5 31L5 32L4 32L4 33L6 33L6 34L7 34L7 35L6 35L6 36L7 36L7 35L8 35L8 36L10 36L10 35L11 35L11 33L10 33L10 32L12 32L12 31L13 31L13 30L11 30L11 31L10 31L10 26L11 26L11 25L12 25L12 27L11 27L11 28L12 28L12 29L14 29L14 30L16 30L16 29L14 29L14 28L17 28L17 30L18 30L18 31L19 31L19 30L20 30L20 31L21 31L21 32L20 32L20 34L19 34L19 32L18 32L18 34L19 34L19 35L15 35L15 34L17 34L17 32L16 32L16 31L14 31L14 32L16 32L16 33L15 33L15 34L14 34L14 35L15 35L15 36L14 36L14 37L13 37L13 36L11 36L11 38L10 38L10 37L9 37L9 39L10 39L10 40L7 40L7 41L6 41L6 42L5 42L5 43L6 43L6 44L7 44L7 45L5 45L5 46L3 46L3 47L5 47L5 46L7 46L7 45L8 45L8 46L9 46L9 45L10 45L10 43L11 43L11 45L12 45L12 46L13 46L13 48L10 48L10 47L9 47L9 48L8 48L8 49L9 49L9 50L10 50L10 49L14 49L14 50L15 50L15 51L14 51L14 52L13 52L13 53L12 53L12 55L11 55L11 56L12 56L12 55L13 55L13 54L14 54L14 55L15 55L15 54L14 54L14 52L15 52L15 53L16 53L16 54L17 54L17 53L18 53L18 54L19 54L19 51L18 51L18 50L19 50L19 49L21 49L21 50L22 50L22 51L21 51L21 52L22 52L22 53L20 53L20 55L21 55L21 54L22 54L22 53L23 53L23 52L24 52L24 53L25 53L25 52L26 52L26 51L24 51L24 50L26 50L26 49L25 49L25 47L26 47L26 48L27 48L27 47L30 47L30 48L32 48L32 49L31 49L31 50L33 50L33 49L34 49L34 50L35 50L35 48L37 48L37 49L36 49L36 50L37 50L37 49L38 49L38 48L39 48L39 49L40 49L40 50L39 50L39 51L38 51L38 52L40 52L40 54L41 54L41 55L39 55L39 56L41 56L41 55L42 55L42 54L43 54L43 51L45 51L45 52L46 52L46 50L47 50L47 52L48 52L48 48L47 48L47 47L46 47L46 46L47 46L47 45L48 45L48 44L44 44L44 43L45 43L45 42L43 42L43 41L42 41L42 42L43 42L43 43L42 43L42 45L43 45L43 46L45 46L45 47L44 47L44 49L43 49L43 47L39 47L39 46L40 46L40 45L38 45L38 44L39 44L39 43L40 43L40 44L41 44L41 40L44 40L44 39L45 39L45 40L46 40L46 41L47 41L47 42L48 42L48 43L49 43L49 44L50 44L50 46L51 46L51 42L50 42L50 41L52 41L52 40L50 40L50 39L54 39L54 38L55 38L55 37L56 37L56 36L55 36L55 35L54 35L54 36L55 36L55 37L54 37L54 38L53 38L53 36L52 36L52 35L51 35L51 36L50 36L50 37L49 37L49 36L48 36L48 35L49 35L49 34L50 34L50 33L49 33L49 32L48 32L48 28L47 28L47 32L46 32L46 33L45 33L45 31L44 31L44 34L46 34L46 35L47 35L47 37L46 37L46 36L44 36L44 37L41 37L41 35L42 35L42 36L43 36L43 35L42 35L42 34L41 34L41 35L37 35L37 37L34 37L34 38L36 38L36 39L35 39L35 40L34 40L34 41L36 41L36 42L34 42L34 43L36 43L36 45L35 45L35 44L34 44L34 45L33 45L33 42L32 42L32 43L31 43L31 44L29 44L29 45L27 45L27 44L28 44L28 43L29 43L29 42L31 42L31 41L29 41L29 42L25 42L25 41L26 41L26 40L27 40L27 39L25 39L25 38L26 38L26 37L27 37L27 38L29 38L29 36L32 36L32 38L30 38L30 39L28 39L28 40L33 40L33 39L32 39L32 38L33 38L33 36L36 36L36 35L33 35L33 36L32 36L32 35L31 35L31 34L30 34L30 35L29 35L29 33L30 33L30 31L28 31L28 33L25 33L25 34L24 34L24 35L22 35L22 34L23 34L23 33L24 33L24 32L27 32L27 31L25 31L25 30L26 30L26 28L25 28L25 25L27 25L27 26L28 26L28 25L29 25L29 24L28 24L28 22L25 22L25 21L27 21L27 20L28 20L28 18L29 18L29 17L30 17L30 19L29 19L29 21L30 21L30 19L32 19L32 20L31 20L31 22L29 22L29 23L30 23L30 24L31 24L31 23L32 23L32 22L34 22L34 23L33 23L33 24L32 24L32 25L33 25L33 24L35 24L35 23L36 23L36 24L37 24L37 23L38 23L38 24L39 24L39 26L38 26L38 27L40 27L40 29L38 29L38 30L36 30L36 29L37 29L37 27L36 27L36 28L34 28L34 29L35 29L35 30L36 30L36 31L37 31L37 32L36 32L36 33L37 33L37 32L38 32L38 34L39 34L39 31L40 31L40 32L41 32L41 31L43 31L43 29L42 29L42 30L40 30L40 29L41 29L41 27L40 27L40 25L41 25L41 26L44 26L44 25L46 25L46 26L45 26L45 30L46 30L46 26L47 26L47 27L48 27L48 26L50 26L50 25L51 25L51 26L52 26L52 25L53 25L53 24L52 24L52 22L51 22L51 21L50 21L50 20L49 20L49 19L48 19L48 18L47 18L47 19L46 19L46 20L48 20L48 21L49 21L49 24L50 24L50 25L48 25L48 24L47 24L47 23L48 23L48 22L47 22L47 21L45 21L45 19L44 19L44 18L45 18L45 17L47 17L47 14L48 14L48 16L49 16L49 11L50 11L50 10L49 10L49 11L48 11L48 12L47 12L47 11L46 11L46 10L47 10L47 9L46 9L46 8L45 8L45 7L44 7L44 11L43 11L43 10L42 10L42 11L40 11L40 14L41 14L41 16L40 16L40 17L39 17L39 15L36 15L36 14L35 14L35 12L34 12L34 14L33 14L33 15L32 15L32 14L31 14L31 13L33 13L33 12L32 12L32 11L33 11L33 10L34 10L34 11L35 11L35 10L36 10L36 12L38 12L38 11L37 11L37 8L39 8L39 7L40 7L40 8L41 8L41 9L38 9L38 10L41 10L41 9L42 9L42 8L43 8L43 7L42 7L42 6L41 6L41 7L40 7L40 5L36 5L36 4L34 4L34 5L33 5L33 3L32 3L32 4L31 4L31 5L32 5L32 6L31 6L31 9L32 9L32 10L28 10L28 11L27 11L27 10L26 10L26 11L25 11L25 10L24 10L24 9L21 9L21 8L22 8L22 5L23 5L23 3L19 3L19 1ZM35 1L35 2L36 2L36 1ZM46 1L46 2L47 2L47 1ZM37 3L37 4L38 4L38 3ZM21 4L21 5L22 5L22 4ZM24 4L24 6L23 6L23 7L24 7L24 8L25 8L25 9L26 9L26 6L25 6L25 5L26 5L26 4ZM11 5L11 7L12 7L12 5ZM27 5L27 8L30 8L30 5ZM14 6L14 7L15 7L15 6ZM24 6L24 7L25 7L25 6ZM28 6L28 7L29 7L29 6ZM32 6L32 8L33 8L33 6ZM34 6L34 9L36 9L36 8L37 8L37 6L36 6L36 7L35 7L35 6ZM38 6L38 7L39 7L39 6ZM48 6L48 7L49 7L49 6ZM41 7L41 8L42 8L42 7ZM15 8L15 9L16 9L16 8ZM56 8L56 9L57 9L57 8ZM1 9L1 10L2 10L2 9ZM10 9L10 10L9 10L9 11L10 11L10 10L11 10L11 9ZM17 10L17 12L16 12L16 13L17 13L17 12L18 12L18 13L19 13L19 15L18 15L18 14L16 14L16 15L18 15L18 16L19 16L19 17L21 17L21 19L20 19L20 18L18 18L18 19L19 19L19 20L21 20L21 22L19 22L19 24L17 24L17 27L19 27L19 28L18 28L18 29L19 29L19 28L20 28L20 29L21 29L21 30L24 30L24 29L21 29L21 28L20 28L20 27L19 27L19 26L18 26L18 25L20 25L20 26L21 26L21 24L20 24L20 23L22 23L22 22L23 22L23 25L22 25L22 27L23 27L23 25L25 25L25 22L24 22L24 21L23 21L23 19L22 19L22 17L21 17L21 15L20 15L20 14L21 14L21 13L20 13L20 12L18 12L18 10ZM55 10L55 11L56 11L56 13L57 13L57 10ZM3 11L3 13L4 13L4 14L5 14L5 13L4 13L4 12L5 12L5 11ZM24 11L24 13L25 13L25 11ZM30 11L30 12L31 12L31 11ZM42 11L42 12L43 12L43 14L42 14L42 17L41 17L41 18L39 18L39 19L40 19L40 20L37 20L37 19L36 19L36 20L35 20L35 19L34 19L34 18L35 18L35 17L34 17L34 16L35 16L35 15L33 15L33 16L32 16L32 15L31 15L31 14L30 14L30 13L28 13L28 12L26 12L26 14L24 14L24 15L25 15L25 16L23 16L23 18L24 18L24 19L25 19L25 20L27 20L27 18L26 18L26 17L25 17L25 16L26 16L26 15L27 15L27 17L29 17L29 16L31 16L31 17L33 17L33 18L32 18L32 19L33 19L33 20L34 20L34 21L35 21L35 22L38 22L38 23L41 23L41 25L44 25L44 23L45 23L45 24L46 24L46 23L47 23L47 22L44 22L44 21L43 21L43 20L41 20L41 18L42 18L42 19L43 19L43 18L42 18L42 17L45 17L45 16L44 16L44 15L45 15L45 14L46 14L46 13L45 13L45 14L44 14L44 12L43 12L43 11ZM51 11L51 12L50 12L50 13L51 13L51 12L52 12L52 13L53 13L53 11ZM6 12L6 13L7 13L7 12ZM11 12L11 13L12 13L12 14L14 14L14 13L12 13L12 12ZM22 12L22 13L23 13L23 12ZM28 15L28 16L29 16L29 15ZM51 16L51 17L52 17L52 16ZM24 17L24 18L25 18L25 17ZM36 17L36 18L37 18L37 17ZM21 19L21 20L22 20L22 19ZM16 20L16 23L17 23L17 21L18 21L18 20ZM36 20L36 21L37 21L37 20ZM38 21L38 22L39 22L39 21ZM42 22L42 24L43 24L43 22ZM26 23L26 24L27 24L27 23ZM55 24L55 25L56 25L56 24ZM30 25L30 26L31 26L31 25ZM34 25L34 27L35 27L35 25ZM13 26L13 27L14 27L14 26ZM5 27L5 30L8 30L8 27ZM27 27L27 30L30 30L30 27ZM31 27L31 28L33 28L33 27ZM42 27L42 28L44 28L44 27ZM49 27L49 30L52 30L52 27ZM6 28L6 29L7 29L7 28ZM28 28L28 29L29 29L29 28ZM50 28L50 29L51 29L51 28ZM53 28L53 30L56 30L56 29L54 29L54 28ZM3 29L3 30L4 30L4 29ZM31 29L31 31L32 31L32 29ZM38 30L38 31L39 31L39 30ZM22 31L22 32L21 32L21 34L22 34L22 33L23 33L23 31ZM33 31L33 32L31 32L31 33L33 33L33 32L34 32L34 34L35 34L35 32L34 32L34 31ZM50 31L50 32L51 32L51 31ZM52 31L52 34L54 34L54 33L55 33L55 31ZM42 32L42 33L43 33L43 32ZM53 32L53 33L54 33L54 32ZM12 33L12 35L13 35L13 33ZM27 34L27 36L29 36L29 35L28 35L28 34ZM47 34L47 35L48 35L48 34ZM20 35L20 36L22 36L22 35ZM17 36L17 38L15 38L15 37L14 37L14 38L15 38L15 40L14 40L14 41L12 41L12 39L13 39L13 37L12 37L12 38L11 38L11 40L10 40L10 41L9 41L9 42L8 42L8 41L7 41L7 42L6 42L6 43L7 43L7 44L8 44L8 43L9 43L9 42L12 42L12 45L13 45L13 44L15 44L15 45L14 45L14 46L15 46L15 45L16 45L16 44L17 44L17 42L18 42L18 43L19 43L19 41L18 41L18 40L20 40L20 41L21 41L21 42L20 42L20 45L21 45L21 46L19 46L19 45L17 45L17 46L16 46L16 47L17 47L17 48L14 48L14 49L15 49L15 50L16 50L16 49L19 49L19 48L18 48L18 47L17 47L17 46L19 46L19 47L21 47L21 48L23 48L23 49L22 49L22 50L23 50L23 49L24 49L24 47L25 47L25 45L26 45L26 46L27 46L27 45L26 45L26 43L25 43L25 42L24 42L24 41L25 41L25 39L24 39L24 37L26 37L26 36L23 36L23 39L21 39L21 38L20 38L20 37L19 37L19 36ZM39 36L39 37L37 37L37 39L38 39L38 40L37 40L37 41L39 41L39 42L37 42L37 44L38 44L38 43L39 43L39 42L40 42L40 40L39 40L39 39L44 39L44 38L41 38L41 37L40 37L40 36ZM45 37L45 38L46 38L46 40L47 40L47 41L50 41L50 40L47 40L47 39L48 39L48 38L49 38L49 37L48 37L48 38L46 38L46 37ZM51 37L51 38L52 38L52 37ZM17 38L17 39L16 39L16 40L15 40L15 41L17 41L17 39L18 39L18 38ZM38 38L38 39L39 39L39 38ZM23 39L23 40L22 40L22 41L24 41L24 39ZM7 42L7 43L8 43L8 42ZM13 42L13 43L14 43L14 42ZM21 42L21 44L22 44L22 46L21 46L21 47L22 47L22 46L23 46L23 44L22 44L22 42ZM49 42L49 43L50 43L50 42ZM15 43L15 44L16 44L16 43ZM0 44L0 45L1 45L1 44ZM53 44L53 45L55 45L55 44ZM32 45L32 46L33 46L33 45ZM36 45L36 46L37 46L37 47L38 47L38 45ZM56 45L56 46L55 46L55 47L57 47L57 45ZM34 46L34 48L35 48L35 46ZM48 46L48 47L49 47L49 48L50 48L50 47L49 47L49 46ZM32 47L32 48L33 48L33 47ZM9 48L9 49L10 49L10 48ZM41 48L41 49L42 49L42 48ZM45 48L45 50L46 50L46 49L47 49L47 48ZM56 48L56 50L57 50L57 48ZM27 49L27 52L30 52L30 49ZM49 49L49 52L52 52L52 49ZM28 50L28 51L29 51L29 50ZM50 50L50 51L51 51L51 50ZM17 51L17 52L18 52L18 51ZM31 51L31 53L32 53L32 51ZM33 51L33 53L36 53L36 54L37 54L37 51L36 51L36 52L35 52L35 51ZM40 51L40 52L41 52L41 51ZM54 52L54 53L55 53L55 52ZM38 53L38 54L39 54L39 53ZM41 53L41 54L42 54L42 53ZM47 53L47 54L46 54L46 55L47 55L47 54L50 54L50 53ZM44 54L44 55L45 55L45 54ZM27 55L27 56L28 56L28 55ZM48 55L48 56L49 56L49 55ZM56 55L56 56L57 56L57 55ZM52 56L52 57L55 57L55 56ZM0 0L0 7L7 7L7 0ZM1 1L1 6L6 6L6 1ZM2 2L2 5L5 5L5 2ZM50 0L50 7L57 7L57 0ZM51 1L51 6L56 6L56 1ZM52 2L52 5L55 5L55 2ZM0 50L0 57L7 57L7 50ZM1 51L1 56L6 56L6 51ZM2 52L2 55L5 55L5 52Z" fill="#000000"/></g></g></svg>
