<?xml version="1.0" encoding="UTF-8"?>
<svg xmlns="http://www.w3.org/2000/svg" version="1.1" width="300" height="300" viewBox="0 0 300 300"><rect x="0" y="0" width="300" height="300" fill="#fefefe"/><g transform="scale(4.615)"><g transform="translate(4,4)"><path fill-rule="evenodd" d="M8 0L8 2L9 2L9 3L10 3L10 4L8 4L8 9L9 9L9 11L8 11L8 12L6 12L6 13L5 13L5 15L4 15L4 16L6 16L6 17L3 17L3 16L2 16L2 17L0 17L0 21L1 21L1 20L3 20L3 19L4 19L4 23L3 23L3 27L2 27L2 26L1 26L1 25L2 25L2 22L3 22L3 21L2 21L2 22L1 22L1 25L0 25L0 27L2 27L2 28L0 28L0 29L2 29L2 31L1 31L1 32L2 32L2 33L1 33L1 34L0 34L0 40L1 40L1 41L0 41L0 43L2 43L2 44L0 44L0 45L1 45L1 46L0 46L0 48L5 48L5 47L7 47L7 48L6 48L6 49L7 49L7 48L8 48L8 50L10 50L10 51L11 51L11 52L9 52L9 51L8 51L8 52L9 52L9 54L8 54L8 57L9 57L9 56L10 56L10 57L11 57L11 56L10 56L10 54L11 54L11 55L13 55L13 54L14 54L14 52L15 52L15 57L17 57L17 55L18 55L18 53L19 53L19 52L18 52L18 51L19 51L19 50L20 50L20 49L19 49L19 48L20 48L20 43L21 43L21 42L20 42L20 41L21 41L21 39L22 39L22 41L23 41L23 39L22 39L22 37L23 37L23 36L22 36L22 37L21 37L21 36L19 36L19 35L18 35L18 34L20 34L20 33L19 33L19 32L20 32L20 31L19 31L19 30L20 30L20 29L19 29L19 30L18 30L18 31L19 31L19 32L18 32L18 33L17 33L17 32L16 32L16 31L17 31L17 30L15 30L15 29L14 29L14 28L17 28L17 26L16 26L16 25L17 25L17 23L18 23L18 25L19 25L19 23L18 23L18 21L19 21L19 20L18 20L18 21L17 21L17 19L18 19L18 18L19 18L19 19L20 19L20 17L21 17L21 19L22 19L22 21L21 21L21 20L20 20L20 21L21 21L21 22L20 22L20 23L21 23L21 22L22 22L22 26L20 26L20 27L18 27L18 28L21 28L21 30L22 30L22 33L23 33L23 34L22 34L22 35L25 35L25 36L24 36L24 37L26 37L26 38L24 38L24 39L26 39L26 40L25 40L25 41L26 41L26 42L24 42L24 43L22 43L22 44L25 44L25 45L26 45L26 46L25 46L25 50L26 50L26 55L24 55L24 54L25 54L25 51L24 51L24 49L23 49L23 48L22 48L22 46L21 46L21 48L22 48L22 50L21 50L21 51L20 51L20 53L21 53L21 54L20 54L20 55L21 55L21 54L22 54L22 53L23 53L23 55L22 55L22 57L25 57L25 56L26 56L26 57L28 57L28 55L29 55L29 57L33 57L33 55L30 55L30 54L31 54L31 53L32 53L32 54L34 54L34 57L35 57L35 55L37 55L37 54L38 54L38 53L37 53L37 52L38 52L38 47L37 47L37 48L36 48L36 49L37 49L37 51L35 51L35 50L34 50L34 49L35 49L35 48L34 48L34 45L33 45L33 44L35 44L35 43L36 43L36 41L37 41L37 42L38 42L38 41L39 41L39 40L40 40L40 41L41 41L41 42L40 42L40 43L37 43L37 44L36 44L36 46L35 46L35 47L36 47L36 46L38 46L38 45L37 45L37 44L40 44L40 46L41 46L41 47L40 47L40 49L39 49L39 52L40 52L40 53L39 53L39 56L40 56L40 57L41 57L41 56L40 56L40 54L41 54L41 55L42 55L42 57L43 57L43 54L42 54L42 53L43 53L43 52L44 52L44 57L47 57L47 56L46 56L46 55L47 55L47 54L48 54L48 55L49 55L49 57L50 57L50 55L49 55L49 54L52 54L52 55L53 55L53 56L51 56L51 57L54 57L54 54L53 54L53 53L57 53L57 50L56 50L56 51L55 51L55 52L54 52L54 51L53 51L53 50L54 50L54 49L53 49L53 48L51 48L51 46L52 46L52 47L53 47L53 46L54 46L54 47L55 47L55 49L56 49L56 47L57 47L57 45L56 45L56 44L57 44L57 42L56 42L56 41L57 41L57 40L54 40L54 38L57 38L57 33L56 33L56 31L57 31L57 28L56 28L56 27L57 27L57 24L56 24L56 23L57 23L57 21L56 21L56 20L55 20L55 21L54 21L54 19L55 19L55 16L56 16L56 19L57 19L57 13L56 13L56 12L57 12L57 10L56 10L56 12L55 12L55 13L53 13L53 12L54 12L54 11L55 11L55 9L57 9L57 8L55 8L55 9L54 9L54 10L52 10L52 12L51 12L51 10L50 10L50 9L53 9L53 8L48 8L48 9L47 9L47 11L46 11L46 8L47 8L47 5L48 5L48 0L46 0L46 1L47 1L47 2L45 2L45 4L44 4L44 2L43 2L43 3L41 3L41 4L42 4L42 5L43 5L43 6L42 6L42 7L41 7L41 6L40 6L40 7L41 7L41 8L40 8L40 9L41 9L41 11L40 11L40 10L38 10L38 8L39 8L39 6L38 6L38 7L37 7L37 6L36 6L36 10L34 10L34 9L35 9L35 4L36 4L36 3L35 3L35 2L37 2L37 1L35 1L35 0L34 0L34 3L33 3L33 4L34 4L34 5L33 5L33 6L32 6L32 7L33 7L33 6L34 6L34 8L32 8L32 9L31 9L31 5L32 5L32 1L31 1L31 0L30 0L30 1L31 1L31 2L30 2L30 3L31 3L31 4L28 4L28 3L29 3L29 2L27 2L27 0L24 0L24 1L23 1L23 0L20 0L20 3L21 3L21 4L22 4L22 5L20 5L20 7L19 7L19 4L18 4L18 3L19 3L19 2L18 2L18 3L17 3L17 4L16 4L16 2L17 2L17 1L18 1L18 0L16 0L16 1L15 1L15 0L14 0L14 3L13 3L13 4L11 4L11 3L12 3L12 0L10 0L10 1L11 1L11 2L9 2L9 0ZM28 0L28 1L29 1L29 0ZM38 0L38 2L39 2L39 4L38 4L38 5L39 5L39 4L40 4L40 2L42 2L42 1L45 1L45 0L42 0L42 1L41 1L41 0ZM21 1L21 3L22 3L22 4L23 4L23 2L22 2L22 1ZM24 1L24 4L25 4L25 1ZM39 1L39 2L40 2L40 1ZM14 3L14 4L15 4L15 3ZM26 3L26 4L27 4L27 3ZM34 3L34 4L35 4L35 3ZM46 3L46 5L47 5L47 3ZM17 4L17 5L16 5L16 6L15 6L15 7L14 7L14 5L11 5L11 7L10 7L10 5L9 5L9 9L10 9L10 10L11 10L11 7L12 7L12 6L13 6L13 8L12 8L12 10L13 10L13 11L10 11L10 13L12 13L12 12L13 12L13 14L14 14L14 15L13 15L13 18L14 18L14 15L15 15L15 16L17 16L17 17L16 17L16 19L17 19L17 17L18 17L18 16L17 16L17 15L15 15L15 14L17 14L17 12L16 12L16 10L18 10L18 8L19 8L19 9L20 9L20 10L21 10L21 11L18 11L18 12L19 12L19 13L18 13L18 15L19 15L19 17L20 17L20 16L21 16L21 14L22 14L22 16L24 16L24 18L25 18L25 17L26 17L26 18L27 18L27 19L26 19L26 20L27 20L27 22L26 22L26 23L27 23L27 22L28 22L28 24L27 24L27 25L26 25L26 26L31 26L31 25L32 25L32 28L31 28L31 30L32 30L32 32L30 32L30 34L31 34L31 33L32 33L32 34L33 34L33 33L32 33L32 32L34 32L34 34L35 34L35 33L36 33L36 35L35 35L35 36L34 36L34 38L31 38L31 41L30 41L30 36L31 36L31 37L32 37L32 36L31 36L31 35L28 35L28 34L29 34L29 31L27 31L27 33L28 33L28 34L26 34L26 33L25 33L25 32L26 32L26 30L25 30L25 29L24 29L24 28L25 28L25 27L24 27L24 28L23 28L23 27L22 27L22 28L23 28L23 29L22 29L22 30L23 30L23 32L24 32L24 34L25 34L25 35L26 35L26 37L27 37L27 38L26 38L26 39L27 39L27 40L28 40L28 42L27 42L27 46L26 46L26 48L28 48L28 47L30 47L30 48L31 48L31 52L32 52L32 48L31 48L31 47L30 47L30 46L31 46L31 45L32 45L32 47L33 47L33 45L32 45L32 44L31 44L31 43L32 43L32 40L33 40L33 41L34 41L34 42L35 42L35 41L36 41L36 38L37 38L37 37L36 37L36 35L38 35L38 36L40 36L40 35L41 35L41 36L42 36L42 39L40 39L40 38L39 38L39 37L38 37L38 39L37 39L37 41L38 41L38 39L40 39L40 40L43 40L43 41L42 41L42 42L41 42L41 45L42 45L42 47L41 47L41 49L40 49L40 51L41 51L41 49L42 49L42 50L44 50L44 46L43 46L43 45L44 45L44 44L45 44L45 43L46 43L46 42L47 42L47 44L46 44L46 49L45 49L45 51L47 51L47 52L48 52L48 51L47 51L47 47L48 47L48 46L49 46L49 47L50 47L50 46L49 46L49 44L50 44L50 45L51 45L51 44L50 44L50 42L49 42L49 41L51 41L51 40L52 40L52 44L53 44L53 45L52 45L52 46L53 46L53 45L55 45L55 47L56 47L56 45L55 45L55 44L56 44L56 42L55 42L55 41L54 41L54 40L52 40L52 38L54 38L54 36L55 36L55 37L56 37L56 33L55 33L55 31L56 31L56 30L55 30L55 31L54 31L54 29L55 29L55 27L56 27L56 26L55 26L55 25L56 25L56 24L55 24L55 23L56 23L56 21L55 21L55 22L54 22L54 24L53 24L53 25L52 25L52 23L53 23L53 22L52 22L52 20L53 20L53 19L54 19L54 16L55 16L55 15L56 15L56 13L55 13L55 15L54 15L54 14L52 14L52 13L50 13L50 11L48 11L48 14L47 14L47 13L46 13L46 11L45 11L45 10L44 10L44 8L45 8L45 7L46 7L46 6L45 6L45 5L44 5L44 4L43 4L43 5L44 5L44 6L43 6L43 7L42 7L42 8L41 8L41 9L42 9L42 10L44 10L44 11L43 11L43 12L42 12L42 11L41 11L41 12L42 12L42 15L41 15L41 17L42 17L42 18L43 18L43 17L44 17L44 19L42 19L42 20L43 20L43 21L42 21L42 22L43 22L43 23L42 23L42 24L41 24L41 26L40 26L40 23L41 23L41 22L40 22L40 19L41 19L41 18L40 18L40 14L41 14L41 13L40 13L40 11L39 11L39 12L37 12L37 11L38 11L38 10L37 10L37 11L36 11L36 12L35 12L35 11L34 11L34 10L33 10L33 9L32 9L32 11L31 11L31 12L30 12L30 11L29 11L29 12L30 12L30 13L29 13L29 15L28 15L28 14L26 14L26 16L25 16L25 12L24 12L24 15L23 15L23 12L22 12L22 11L26 11L26 13L27 13L27 12L28 12L28 9L27 9L27 10L25 10L25 9L26 9L26 5L24 5L24 6L23 6L23 5L22 5L22 6L21 6L21 7L22 7L22 6L23 6L23 8L25 8L25 9L24 9L24 10L23 10L23 9L22 9L22 8L21 8L21 9L20 9L20 8L19 8L19 7L18 7L18 4ZM27 5L27 8L30 8L30 5ZM16 6L16 7L17 7L17 8L18 8L18 7L17 7L17 6ZM24 6L24 7L25 7L25 6ZM28 6L28 7L29 7L29 6ZM44 6L44 7L45 7L45 6ZM48 6L48 7L49 7L49 6ZM0 8L0 9L1 9L1 10L0 10L0 11L1 11L1 12L2 12L2 13L0 13L0 14L1 14L1 15L0 15L0 16L1 16L1 15L2 15L2 13L3 13L3 14L4 14L4 12L3 12L3 11L5 11L5 9L7 9L7 8L5 8L5 9L3 9L3 8ZM14 8L14 9L13 9L13 10L14 10L14 9L15 9L15 10L16 10L16 9L15 9L15 8ZM2 9L2 11L3 11L3 9ZM21 9L21 10L22 10L22 9ZM30 9L30 10L31 10L31 9ZM48 9L48 10L49 10L49 9ZM6 10L6 11L7 11L7 10ZM14 11L14 12L15 12L15 11ZM33 11L33 12L32 12L32 14L31 14L31 16L30 16L30 15L29 15L29 16L30 16L30 17L28 17L28 18L30 18L30 17L31 17L31 16L32 16L32 17L33 17L33 18L32 18L32 19L31 19L31 20L32 20L32 21L33 21L33 22L31 22L31 23L30 23L30 25L31 25L31 23L32 23L32 25L33 25L33 26L34 26L34 24L36 24L36 26L37 26L37 27L36 27L36 30L37 30L37 31L36 31L36 33L37 33L37 34L38 34L38 35L39 35L39 34L38 34L38 33L39 33L39 32L40 32L40 34L42 34L42 33L43 33L43 35L42 35L42 36L43 36L43 35L44 35L44 38L43 38L43 39L44 39L44 41L45 41L45 42L44 42L44 43L43 43L43 42L42 42L42 43L43 43L43 44L42 44L42 45L43 45L43 44L44 44L44 43L45 43L45 42L46 42L46 41L48 41L48 40L49 40L49 38L48 38L48 40L47 40L47 38L46 38L46 37L48 37L48 36L49 36L49 37L50 37L50 40L51 40L51 38L52 38L52 37L53 37L53 36L54 36L54 34L53 34L53 36L51 36L51 33L50 33L50 32L51 32L51 31L52 31L52 32L53 32L53 33L54 33L54 31L53 31L53 28L54 28L54 27L55 27L55 26L54 26L54 25L53 25L53 26L52 26L52 25L51 25L51 23L52 23L52 22L51 22L51 23L50 23L50 22L49 22L49 23L48 23L48 22L47 22L47 23L46 23L46 20L45 20L45 19L44 19L44 21L43 21L43 22L44 22L44 23L43 23L43 24L42 24L42 25L43 25L43 24L44 24L44 26L43 26L43 27L40 27L40 26L38 26L38 25L37 25L37 24L36 24L36 23L39 23L39 22L38 22L38 21L39 21L39 19L40 19L40 18L38 18L38 16L37 16L37 15L38 15L38 13L37 13L37 12L36 12L36 13L35 13L35 12L34 12L34 11ZM20 12L20 13L19 13L19 15L20 15L20 13L21 13L21 12ZM44 12L44 13L45 13L45 15L46 15L46 16L44 16L44 14L43 14L43 16L44 16L44 17L45 17L45 18L46 18L46 19L47 19L47 20L51 20L51 18L52 18L52 17L53 17L53 16L54 16L54 15L52 15L52 14L51 14L51 18L50 18L50 16L49 16L49 15L50 15L50 13L49 13L49 14L48 14L48 15L46 15L46 13L45 13L45 12ZM6 13L6 14L8 14L8 15L6 15L6 16L7 16L7 17L6 17L6 18L4 18L4 19L5 19L5 21L6 21L6 22L5 22L5 23L4 23L4 24L8 24L8 23L9 23L9 25L6 25L6 26L9 26L9 25L11 25L11 23L12 23L12 27L13 27L13 28L14 28L14 27L13 27L13 26L15 26L15 27L16 27L16 26L15 26L15 25L16 25L16 24L15 24L15 23L14 23L14 22L15 22L15 21L14 21L14 22L13 22L13 19L12 19L12 18L11 18L11 17L10 17L10 16L9 16L9 15L10 15L10 14L8 14L8 13ZM34 13L34 15L33 15L33 14L32 14L32 16L33 16L33 17L34 17L34 20L33 20L33 21L34 21L34 22L35 22L35 23L36 23L36 22L37 22L37 21L38 21L38 20L37 20L37 21L36 21L36 20L35 20L35 18L36 18L36 19L37 19L37 18L36 18L36 15L37 15L37 13L36 13L36 14L35 14L35 13ZM11 14L11 16L12 16L12 14ZM34 15L34 17L35 17L35 15ZM8 16L8 17L7 17L7 18L6 18L6 19L8 19L8 20L9 20L9 21L8 21L8 22L6 22L6 23L8 23L8 22L10 22L10 23L11 23L11 22L12 22L12 23L13 23L13 22L12 22L12 21L11 21L11 22L10 22L10 20L12 20L12 19L10 19L10 17L9 17L9 16ZM26 16L26 17L27 17L27 16ZM46 16L46 18L47 18L47 19L48 19L48 18L49 18L49 17L48 17L48 18L47 18L47 16ZM8 17L8 18L9 18L9 17ZM1 18L1 19L2 19L2 18ZM14 19L14 20L15 20L15 19ZM24 19L24 20L25 20L25 19ZM27 19L27 20L28 20L28 22L29 22L29 21L30 21L30 19L29 19L29 20L28 20L28 19ZM6 20L6 21L7 21L7 20ZM22 21L22 22L23 22L23 21ZM35 21L35 22L36 22L36 21ZM44 21L44 22L45 22L45 21ZM16 22L16 23L17 23L17 22ZM24 22L24 23L25 23L25 22ZM33 23L33 24L34 24L34 23ZM44 23L44 24L45 24L45 23ZM49 23L49 24L50 24L50 23ZM13 24L13 25L14 25L14 24ZM28 24L28 25L29 25L29 24ZM47 24L47 25L46 25L46 26L47 26L47 25L48 25L48 26L49 26L49 25L48 25L48 24ZM24 25L24 26L25 26L25 25ZM50 25L50 26L51 26L51 25ZM10 26L10 27L9 27L9 28L10 28L10 29L9 29L9 31L10 31L10 32L9 32L9 33L10 33L10 34L8 34L8 32L7 32L7 31L6 31L6 32L5 32L5 31L4 31L4 30L3 30L3 31L2 31L2 32L3 32L3 33L2 33L2 34L1 34L1 36L2 36L2 34L3 34L3 33L5 33L5 34L4 34L4 35L3 35L3 36L4 36L4 35L5 35L5 37L6 37L6 38L8 38L8 37L9 37L9 36L8 36L8 37L6 37L6 36L7 36L7 35L5 35L5 34L8 34L8 35L11 35L11 36L13 36L13 39L12 39L12 38L11 38L11 37L10 37L10 38L11 38L11 39L10 39L10 40L9 40L9 39L6 39L6 40L7 40L7 41L5 41L5 42L7 42L7 43L6 43L6 44L7 44L7 43L8 43L8 41L9 41L9 42L11 42L11 45L10 45L10 46L7 46L7 45L6 45L6 46L7 46L7 47L8 47L8 48L9 48L9 49L10 49L10 48L9 48L9 47L11 47L11 48L12 48L12 45L13 45L13 47L14 47L14 48L13 48L13 49L11 49L11 51L12 51L12 52L13 52L13 51L15 51L15 52L16 52L16 50L17 50L17 51L18 51L18 50L19 50L19 49L18 49L18 48L19 48L19 47L18 47L18 46L19 46L19 45L18 45L18 46L17 46L17 45L16 45L16 44L15 44L15 43L14 43L14 42L15 42L15 40L16 40L16 43L17 43L17 41L18 41L18 40L19 40L19 37L18 37L18 35L17 35L17 37L16 37L16 35L15 35L15 34L13 34L13 35L11 35L11 34L12 34L12 32L11 32L11 31L13 31L13 33L15 33L15 31L14 31L14 30L13 30L13 29L11 29L11 28L10 28L10 27L11 27L11 26ZM44 26L44 27L45 27L45 26ZM5 27L5 30L8 30L8 27ZM27 27L27 30L30 30L30 27ZM34 27L34 29L33 29L33 28L32 28L32 30L33 30L33 31L34 31L34 29L35 29L35 27ZM39 27L39 29L38 29L38 28L37 28L37 30L38 30L38 31L37 31L37 32L38 32L38 31L39 31L39 30L40 30L40 32L41 32L41 33L42 33L42 31L43 31L43 29L44 29L44 30L46 30L46 32L45 32L45 33L46 33L46 34L45 34L45 35L46 35L46 34L48 34L48 33L46 33L46 32L47 32L47 30L48 30L48 29L47 29L47 28L46 28L46 29L44 29L44 28L42 28L42 31L41 31L41 30L40 30L40 27ZM49 27L49 30L52 30L52 27ZM2 28L2 29L4 29L4 28ZM6 28L6 29L7 29L7 28ZM28 28L28 29L29 29L29 28ZM50 28L50 29L51 29L51 28ZM10 29L10 30L11 30L11 29ZM23 29L23 30L24 30L24 29ZM49 31L49 32L50 32L50 31ZM6 32L6 33L7 33L7 32ZM16 33L16 34L17 34L17 33ZM49 33L49 36L50 36L50 37L51 37L51 36L50 36L50 33ZM27 35L27 36L28 36L28 37L29 37L29 36L28 36L28 35ZM45 36L45 37L46 37L46 36ZM3 37L3 38L1 38L1 40L2 40L2 41L1 41L1 42L2 42L2 43L4 43L4 42L3 42L3 39L4 39L4 37ZM17 37L17 38L16 38L16 39L17 39L17 40L18 40L18 37ZM35 37L35 38L34 38L34 41L35 41L35 38L36 38L36 37ZM14 38L14 39L15 39L15 38ZM20 38L20 39L21 39L21 38ZM28 38L28 39L29 39L29 38ZM10 40L10 41L11 41L11 40ZM12 40L12 41L13 41L13 42L12 42L12 44L14 44L14 43L13 43L13 42L14 42L14 41L13 41L13 40ZM45 40L45 41L46 41L46 40ZM53 41L53 44L54 44L54 43L55 43L55 42L54 42L54 41ZM28 42L28 44L29 44L29 46L30 46L30 45L31 45L31 44L29 44L29 42ZM30 42L30 43L31 43L31 42ZM18 43L18 44L19 44L19 43ZM48 43L48 44L47 44L47 45L48 45L48 44L49 44L49 43ZM8 44L8 45L9 45L9 44ZM3 45L3 47L5 47L5 45ZM15 45L15 46L16 46L16 47L17 47L17 48L16 48L16 49L15 49L15 50L16 50L16 49L17 49L17 50L18 50L18 49L17 49L17 48L18 48L18 47L17 47L17 46L16 46L16 45ZM1 46L1 47L2 47L2 46ZM33 48L33 49L34 49L34 48ZM27 49L27 52L30 52L30 49ZM49 49L49 52L52 52L52 49ZM12 50L12 51L13 51L13 50ZM28 50L28 51L29 51L29 50ZM33 50L33 51L34 51L34 52L35 52L35 53L34 53L34 54L35 54L35 53L36 53L36 54L37 54L37 53L36 53L36 52L35 52L35 51L34 51L34 50ZM50 50L50 51L51 51L51 50ZM23 51L23 52L24 52L24 51ZM17 52L17 53L18 53L18 52ZM21 52L21 53L22 53L22 52ZM41 52L41 53L42 53L42 52ZM45 52L45 53L46 53L46 54L47 54L47 53L46 53L46 52ZM11 53L11 54L13 54L13 53ZM27 53L27 55L28 55L28 53ZM48 53L48 54L49 54L49 53ZM16 54L16 55L17 55L17 54ZM55 54L55 55L57 55L57 54ZM12 56L12 57L13 57L13 56ZM18 56L18 57L21 57L21 56ZM36 56L36 57L37 57L37 56ZM56 56L56 57L57 57L57 56ZM0 0L0 7L7 7L7 0ZM1 1L1 6L6 6L6 1ZM2 2L2 5L5 5L5 2ZM50 0L50 7L57 7L57 0ZM51 1L51 6L56 6L56 1ZM52 2L52 5L55 5L55 2ZM0 50L0 57L7 57L7 50ZM1 51L1 56L6 56L6 51ZM2 52L2 55L5 55L5 52Z" fill="#000000"/></g></g></svg>
