<?xml version="1.0" encoding="UTF-8"?>
<svg xmlns="http://www.w3.org/2000/svg" version="1.1" width="300" height="300" viewBox="0 0 300 300"><rect x="0" y="0" width="300" height="300" fill="#fefefe"/><g transform="scale(4.615)"><g transform="translate(4,4)"><path fill-rule="evenodd" d="M9 0L9 1L8 1L8 2L9 2L9 3L8 3L8 4L9 4L9 5L8 5L8 7L9 7L9 8L6 8L6 9L8 9L8 10L5 10L5 8L0 8L0 9L1 9L1 10L0 10L0 11L1 11L1 10L2 10L2 11L3 11L3 10L4 10L4 11L7 11L7 12L6 12L6 13L7 13L7 12L8 12L8 14L6 14L6 15L5 15L5 16L3 16L3 17L2 17L2 16L1 16L1 14L2 14L2 15L4 15L4 14L5 14L5 12L1 12L1 13L0 13L0 17L2 17L2 19L3 19L3 20L1 20L1 19L0 19L0 21L1 21L1 23L2 23L2 24L0 24L0 29L2 29L2 30L4 30L4 32L3 32L3 33L4 33L4 34L2 34L2 32L0 32L0 34L1 34L1 36L0 36L0 37L1 37L1 38L0 38L0 43L1 43L1 42L2 42L2 44L0 44L0 45L2 45L2 44L3 44L3 41L5 41L5 42L6 42L6 43L8 43L8 42L6 42L6 41L7 41L7 40L6 40L6 41L5 41L5 37L7 37L7 36L6 36L6 35L7 35L7 34L5 34L5 33L8 33L8 32L10 32L10 31L12 31L12 29L13 29L13 30L15 30L15 31L16 31L16 29L18 29L18 30L17 30L17 31L18 31L18 32L15 32L15 33L14 33L14 31L13 31L13 33L14 33L14 34L12 34L12 33L9 33L9 35L11 35L11 36L12 36L12 35L13 35L13 38L12 38L12 37L11 37L11 38L12 38L12 39L10 39L10 38L9 38L9 39L8 39L8 40L9 40L9 42L10 42L10 43L11 43L11 44L9 44L9 46L8 46L8 44L5 44L5 45L3 45L3 46L2 46L2 47L1 47L1 46L0 46L0 48L5 48L5 47L7 47L7 48L6 48L6 49L8 49L8 51L10 51L10 53L9 53L9 52L8 52L8 57L9 57L9 54L10 54L10 57L11 57L11 55L13 55L13 56L12 56L12 57L14 57L14 56L15 56L15 57L16 57L16 56L17 56L17 57L19 57L19 56L17 56L17 54L18 54L18 55L20 55L20 54L19 54L19 53L20 53L20 52L23 52L23 51L22 51L22 50L25 50L25 49L26 49L26 52L24 52L24 53L23 53L23 54L22 54L22 53L21 53L21 54L22 54L22 55L23 55L23 56L24 56L24 55L23 55L23 54L24 54L24 53L25 53L25 54L26 54L26 56L25 56L25 57L26 57L26 56L27 56L27 57L29 57L29 56L30 56L30 57L31 57L31 56L35 56L35 57L39 57L39 56L41 56L41 54L42 54L42 55L43 55L43 57L44 57L44 54L45 54L45 55L47 55L47 56L46 56L46 57L49 57L49 56L50 56L50 57L52 57L52 55L51 55L51 53L52 53L52 54L53 54L53 57L54 57L54 56L55 56L55 57L56 57L56 56L55 56L55 55L54 55L54 54L55 54L55 52L57 52L57 51L56 51L56 50L57 50L57 48L56 48L56 46L57 46L57 45L56 45L56 44L57 44L57 43L56 43L56 42L55 42L55 41L53 41L53 40L55 40L55 39L57 39L57 36L56 36L56 34L57 34L57 32L56 32L56 30L57 30L57 27L56 27L56 26L57 26L57 25L56 25L56 22L57 22L57 21L56 21L56 20L55 20L55 19L56 19L56 16L57 16L57 15L56 15L56 14L57 14L57 12L56 12L56 10L54 10L54 11L53 11L53 9L54 9L54 8L53 8L53 9L52 9L52 8L51 8L51 10L50 10L50 8L49 8L49 6L48 6L48 7L47 7L47 5L48 5L48 0L46 0L46 1L47 1L47 2L44 2L44 3L42 3L42 2L43 2L43 0L41 0L41 1L40 1L40 0L39 0L39 1L38 1L38 0L37 0L37 1L38 1L38 3L36 3L36 0L35 0L35 1L32 1L32 3L31 3L31 0L29 0L29 1L25 1L25 0L23 0L23 1L22 1L22 0L21 0L21 1L22 1L22 2L20 2L20 0L18 0L18 1L16 1L16 2L15 2L15 0L14 0L14 2L13 2L13 3L11 3L11 2L9 2L9 1L10 1L10 0ZM14 2L14 4L12 4L12 5L11 5L11 7L12 7L12 10L11 10L11 11L12 11L12 12L10 12L10 13L13 13L13 14L12 14L12 16L13 16L13 14L15 14L15 13L16 13L16 16L15 16L15 15L14 15L14 17L13 17L13 18L12 18L12 17L11 17L11 16L10 16L10 15L11 15L11 14L10 14L10 15L6 15L6 16L7 16L7 17L6 17L6 18L5 18L5 19L4 19L4 20L7 20L7 19L8 19L8 20L9 20L9 19L8 19L8 18L7 18L7 17L11 17L11 19L12 19L12 20L13 20L13 21L14 21L14 22L12 22L12 23L11 23L11 24L10 24L10 22L7 22L7 21L5 21L5 22L3 22L3 23L4 23L4 25L3 25L3 26L1 26L1 27L3 27L3 28L2 28L2 29L4 29L4 27L3 27L3 26L4 26L4 25L6 25L6 26L11 26L11 25L12 25L12 24L13 24L13 25L14 25L14 24L15 24L15 26L18 26L18 27L16 27L16 28L14 28L14 27L13 27L13 28L14 28L14 29L16 29L16 28L18 28L18 29L20 29L20 32L19 32L19 33L20 33L20 34L17 34L17 33L15 33L15 34L14 34L14 35L15 35L15 34L17 34L17 36L15 36L15 37L16 37L16 38L15 38L15 39L16 39L16 40L14 40L14 38L13 38L13 40L12 40L12 41L16 41L16 42L17 42L17 43L18 43L18 42L19 42L19 44L20 44L20 42L21 42L21 43L22 43L22 42L24 42L24 43L27 43L27 44L23 44L23 45L22 45L22 44L21 44L21 45L19 45L19 46L21 46L21 45L22 45L22 46L23 46L23 47L20 47L20 48L19 48L19 49L20 49L20 50L17 50L17 49L16 49L16 48L17 48L17 47L18 47L18 46L17 46L17 45L18 45L18 44L16 44L16 43L15 43L15 44L13 44L13 43L14 43L14 42L13 42L13 43L12 43L12 44L11 44L11 46L12 46L12 44L13 44L13 45L15 45L15 47L16 47L16 48L12 48L12 47L10 47L10 46L9 46L9 48L8 48L8 49L9 49L9 50L10 50L10 51L11 51L11 49L12 49L12 50L13 50L13 49L14 49L14 50L15 50L15 51L16 51L16 53L14 53L14 52L13 52L13 51L12 51L12 52L11 52L11 53L10 53L10 54L13 54L13 55L14 55L14 54L16 54L16 53L17 53L17 51L18 51L18 52L19 52L19 51L20 51L20 50L21 50L21 49L23 49L23 48L24 48L24 49L25 49L25 48L27 48L27 47L28 47L28 48L30 48L30 47L29 47L29 44L30 44L30 45L31 45L31 47L32 47L32 49L31 49L31 50L32 50L32 51L31 51L31 53L30 53L30 54L27 54L27 53L26 53L26 54L27 54L27 56L29 56L29 55L30 55L30 56L31 56L31 54L32 54L32 53L33 53L33 54L35 54L35 56L36 56L36 54L35 54L35 50L36 50L36 52L37 52L37 53L38 53L38 54L37 54L37 56L39 56L39 55L38 55L38 54L40 54L40 53L43 53L43 54L44 54L44 53L45 53L45 54L48 54L48 50L47 50L47 49L48 49L48 48L53 48L53 49L55 49L55 50L54 50L54 51L55 51L55 50L56 50L56 48L53 48L53 47L55 47L55 46L56 46L56 45L55 45L55 44L54 44L54 45L51 45L51 44L53 44L53 43L54 43L54 42L53 42L53 41L51 41L51 42L50 42L50 43L49 43L49 42L48 42L48 41L49 41L49 39L47 39L47 38L49 38L49 37L50 37L50 39L51 39L51 38L53 38L53 39L54 39L54 38L53 38L53 35L55 35L55 34L54 34L54 33L56 33L56 32L54 32L54 33L52 33L52 31L48 31L48 29L46 29L46 30L47 30L47 31L46 31L46 32L43 32L43 30L40 30L40 29L45 29L45 28L46 28L46 27L47 27L47 28L48 28L48 27L47 27L47 23L46 23L46 25L45 25L45 22L47 22L47 21L45 21L45 20L44 20L44 18L45 18L45 19L46 19L46 18L47 18L47 20L49 20L49 18L47 18L47 17L48 17L48 16L49 16L49 15L50 15L50 14L51 14L51 12L50 12L50 10L48 10L48 11L49 11L49 12L45 12L45 11L46 11L46 10L47 10L47 8L45 8L45 7L46 7L46 5L47 5L47 3L44 3L44 6L43 6L43 5L42 5L42 4L41 4L41 3L38 3L38 6L37 6L37 7L36 7L36 5L37 5L37 4L36 4L36 5L35 5L35 4L33 4L33 3L34 3L34 2L33 2L33 3L32 3L32 4L31 4L31 8L32 8L32 10L29 10L29 12L28 12L28 13L26 13L26 12L27 12L27 11L28 11L28 10L27 10L27 11L26 11L26 12L25 12L25 10L24 10L24 12L23 12L23 13L22 13L22 12L20 12L20 11L22 11L22 10L23 10L23 9L24 9L24 6L23 6L23 5L24 5L24 4L23 4L23 3L26 3L26 4L25 4L25 8L26 8L26 4L30 4L30 3L29 3L29 2L22 2L22 3L19 3L19 2L16 2L16 3L15 3L15 2ZM10 3L10 4L11 4L11 3ZM18 3L18 4L17 4L17 5L18 5L18 4L19 4L19 5L20 5L20 7L19 7L19 6L18 6L18 7L17 7L17 6L16 6L16 7L15 7L15 6L14 6L14 8L13 8L13 9L14 9L14 8L16 8L16 9L15 9L15 10L12 10L12 11L14 11L14 12L13 12L13 13L15 13L15 12L16 12L16 13L17 13L17 16L16 16L16 17L19 17L19 18L18 18L18 19L20 19L20 20L17 20L17 21L16 21L16 20L15 20L15 21L16 21L16 22L14 22L14 23L13 23L13 24L14 24L14 23L16 23L16 24L17 24L17 25L18 25L18 26L20 26L20 27L22 27L22 26L24 26L24 28L23 28L23 30L25 30L25 31L26 31L26 32L25 32L25 33L23 33L23 34L24 34L24 36L23 36L23 37L19 37L19 36L20 36L20 35L21 35L21 36L22 36L22 33L21 33L21 34L20 34L20 35L19 35L19 36L17 36L17 37L19 37L19 38L20 38L20 39L18 39L18 38L17 38L17 40L16 40L16 41L17 41L17 42L18 42L18 41L19 41L19 42L20 42L20 41L19 41L19 40L21 40L21 39L22 39L22 40L23 40L23 41L24 41L24 42L25 42L25 41L24 41L24 40L25 40L25 39L27 39L27 41L26 41L26 42L27 42L27 43L28 43L28 44L29 44L29 43L32 43L32 44L31 44L31 45L32 45L32 44L33 44L33 43L34 43L34 45L35 45L35 46L32 46L32 47L33 47L33 49L32 49L32 50L33 50L33 51L32 51L32 52L33 52L33 53L34 53L34 52L33 52L33 51L34 51L34 50L33 50L33 49L36 49L36 50L38 50L38 51L37 51L37 52L38 52L38 53L39 53L39 52L38 52L38 51L40 51L40 52L41 52L41 50L42 50L42 51L43 51L43 53L44 53L44 52L45 52L45 51L44 51L44 48L43 48L43 47L42 47L42 48L41 48L41 46L43 46L43 45L44 45L44 47L47 47L47 48L48 48L48 47L50 47L50 46L51 46L51 47L52 47L52 46L51 46L51 45L50 45L50 44L51 44L51 43L53 43L53 42L51 42L51 43L50 43L50 44L49 44L49 45L50 45L50 46L45 46L45 45L47 45L47 43L48 43L48 42L47 42L47 43L46 43L46 44L45 44L45 41L44 41L44 40L45 40L45 39L46 39L46 40L47 40L47 39L46 39L46 38L45 38L45 37L44 37L44 36L46 36L46 37L47 37L47 36L48 36L48 35L47 35L47 34L45 34L45 35L44 35L44 33L43 33L43 32L41 32L41 33L39 33L39 34L40 34L40 35L39 35L39 37L40 37L40 38L43 38L43 37L44 37L44 38L45 38L45 39L44 39L44 40L43 40L43 39L41 39L41 42L40 42L40 43L39 43L39 42L38 42L38 40L40 40L40 39L38 39L38 40L35 40L35 39L37 39L37 38L38 38L38 37L37 37L37 36L38 36L38 33L37 33L37 32L35 32L35 34L34 34L34 35L31 35L31 33L32 33L32 34L33 34L33 33L34 33L34 32L33 32L33 33L32 33L32 31L36 31L36 29L38 29L38 28L40 28L40 27L41 27L41 28L42 28L42 26L43 26L43 25L44 25L44 27L43 27L43 28L45 28L45 27L46 27L46 26L45 26L45 25L44 25L44 20L43 20L43 18L44 18L44 15L42 15L42 16L41 16L41 14L43 14L43 13L44 13L44 12L43 12L43 13L39 13L39 12L41 12L41 10L42 10L42 11L43 11L43 9L44 9L44 11L45 11L45 10L46 10L46 9L44 9L44 7L45 7L45 6L44 6L44 7L43 7L43 6L42 6L42 5L41 5L41 4L40 4L40 5L39 5L39 6L38 6L38 7L37 7L37 8L35 8L35 5L33 5L33 4L32 4L32 5L33 5L33 6L32 6L32 7L33 7L33 9L34 9L34 8L35 8L35 9L37 9L37 10L36 10L36 12L35 12L35 13L36 13L36 14L33 14L33 13L34 13L34 12L33 12L33 13L32 13L32 12L31 12L31 13L30 13L30 14L29 14L29 13L28 13L28 14L29 14L29 16L28 16L28 15L27 15L27 16L28 16L28 17L27 17L27 18L25 18L25 17L26 17L26 13L23 13L23 14L22 14L22 13L21 13L21 15L23 15L23 14L25 14L25 15L24 15L24 16L25 16L25 17L22 17L22 16L21 16L21 17L22 17L22 18L24 18L24 19L20 19L20 17L19 17L19 15L20 15L20 12L19 12L19 11L20 11L20 8L22 8L22 7L23 7L23 6L22 6L22 7L21 7L21 5L22 5L22 4L19 4L19 3ZM15 4L15 5L16 5L16 4ZM45 4L45 5L46 5L46 4ZM27 5L27 8L30 8L30 5ZM40 5L40 6L39 6L39 7L40 7L40 8L39 8L39 9L38 9L38 10L37 10L37 11L39 11L39 9L41 9L41 7L42 7L42 6L41 6L41 5ZM9 6L9 7L10 7L10 6ZM12 6L12 7L13 7L13 6ZM28 6L28 7L29 7L29 6ZM33 6L33 7L34 7L34 6ZM40 6L40 7L41 7L41 6ZM16 7L16 8L17 8L17 7ZM9 8L9 9L10 9L10 8ZM42 8L42 9L43 9L43 8ZM48 8L48 9L49 9L49 8ZM55 8L55 9L56 9L56 8ZM16 9L16 10L15 10L15 11L16 11L16 12L17 12L17 13L18 13L18 12L17 12L17 11L18 11L18 10L19 10L19 9L18 9L18 10L17 10L17 9ZM8 10L8 12L9 12L9 11L10 11L10 10ZM32 10L32 11L33 11L33 10ZM49 12L49 13L47 13L47 14L45 14L45 15L47 15L47 16L46 16L46 17L45 17L45 18L46 18L46 17L47 17L47 16L48 16L48 15L49 15L49 14L50 14L50 12ZM52 12L52 13L53 13L53 15L54 15L54 13L55 13L55 14L56 14L56 12L54 12L54 13L53 13L53 12ZM31 13L31 14L30 14L30 15L31 15L31 16L32 16L32 17L31 17L31 18L30 18L30 19L28 19L28 18L27 18L27 19L26 19L26 21L27 21L27 23L28 23L28 24L25 24L25 23L26 23L26 22L25 22L25 21L24 21L24 20L20 20L20 21L19 21L19 22L17 22L17 24L19 24L19 25L20 25L20 26L21 26L21 25L24 25L24 24L25 24L25 25L26 25L26 26L25 26L25 27L26 27L26 26L27 26L27 25L28 25L28 26L29 26L29 25L30 25L30 24L32 24L32 26L31 26L31 28L32 28L32 29L31 29L31 31L29 31L29 33L28 33L28 32L27 32L27 36L25 36L25 38L26 38L26 37L28 37L28 38L27 38L27 39L28 39L28 40L29 40L29 41L27 41L27 42L30 42L30 41L31 41L31 42L32 42L32 43L33 43L33 42L34 42L34 43L35 43L35 44L36 44L36 43L37 43L37 42L35 42L35 40L33 40L33 39L35 39L35 36L37 36L37 34L35 34L35 36L32 36L32 37L33 37L33 39L29 39L29 38L31 38L31 37L29 37L29 36L30 36L30 34L29 34L29 33L31 33L31 31L32 31L32 29L33 29L33 30L35 30L35 28L33 28L33 27L34 27L34 26L36 26L36 27L40 27L40 26L39 26L39 25L41 25L41 26L42 26L42 25L41 25L41 24L43 24L43 23L41 23L41 24L39 24L39 23L40 23L40 22L39 22L39 21L43 21L43 20L42 20L42 18L41 18L41 20L38 20L38 19L39 19L39 17L41 17L41 16L39 16L39 15L40 15L40 14L39 14L39 13L38 13L38 14L37 14L37 15L35 15L35 16L33 16L33 15L31 15L31 14L32 14L32 13ZM38 14L38 15L39 15L39 14ZM35 16L35 17L37 17L37 18L38 18L38 17L39 17L39 16L38 16L38 17L37 17L37 16ZM42 16L42 17L43 17L43 16ZM50 16L50 19L51 19L51 18L55 18L55 17L54 17L54 16ZM3 17L3 18L4 18L4 17ZM32 17L32 19L31 19L31 21L29 21L29 22L28 22L28 23L29 23L29 24L30 24L30 23L29 23L29 22L31 22L31 21L32 21L32 20L33 20L33 19L34 19L34 20L35 20L35 23L32 23L32 24L33 24L33 25L37 25L37 26L38 26L38 25L39 25L39 24L37 24L37 23L38 23L38 20L36 20L36 19L35 19L35 18L33 18L33 17ZM6 18L6 19L7 19L7 18ZM15 18L15 19L16 19L16 18ZM13 19L13 20L14 20L14 19ZM27 19L27 20L28 20L28 19ZM52 19L52 20L51 20L51 21L49 21L49 22L48 22L48 24L49 24L49 25L50 25L50 26L53 26L53 27L54 27L54 26L53 26L53 25L54 25L54 24L53 24L53 23L51 23L51 25L50 25L50 24L49 24L49 23L50 23L50 22L51 22L51 21L54 21L54 23L55 23L55 22L56 22L56 21L55 21L55 20L53 20L53 19ZM23 21L23 22L24 22L24 21ZM6 22L6 23L7 23L7 22ZM19 22L19 23L20 23L20 22ZM21 22L21 24L20 24L20 25L21 25L21 24L24 24L24 23L22 23L22 22ZM6 24L6 25L7 25L7 24ZM8 24L8 25L10 25L10 24ZM55 25L55 26L56 26L56 25ZM32 26L32 27L33 27L33 26ZM5 27L5 30L8 30L8 27ZM9 27L9 29L11 29L11 28L12 28L12 27ZM27 27L27 30L30 30L30 27ZM49 27L49 30L52 30L52 27ZM55 27L55 28L54 28L54 29L53 29L53 30L54 30L54 31L55 31L55 28L56 28L56 27ZM6 28L6 29L7 29L7 28ZM20 28L20 29L22 29L22 28ZM25 28L25 29L26 29L26 28ZM28 28L28 29L29 29L29 28ZM50 28L50 29L51 29L51 28ZM0 30L0 31L1 31L1 30ZM9 30L9 31L10 31L10 30ZM38 30L38 32L39 32L39 30ZM44 30L44 31L45 31L45 30ZM6 31L6 32L8 32L8 31ZM21 31L21 32L23 32L23 31ZM47 31L47 32L48 32L48 33L49 33L49 32L48 32L48 31ZM50 32L50 34L49 34L49 35L50 35L50 36L52 36L52 35L53 35L53 34L52 34L52 33L51 33L51 32ZM25 33L25 35L26 35L26 33ZM4 34L4 35L3 35L3 36L2 36L2 38L1 38L1 39L4 39L4 38L3 38L3 36L4 36L4 35L5 35L5 34ZM11 34L11 35L12 35L12 34ZM42 34L42 35L43 35L43 36L40 36L40 37L43 37L43 36L44 36L44 35L43 35L43 34ZM50 34L50 35L52 35L52 34ZM8 36L8 37L9 37L9 36ZM23 37L23 38L24 38L24 37ZM6 38L6 39L7 39L7 38ZM9 39L9 40L10 40L10 42L11 42L11 40L10 40L10 39ZM23 39L23 40L24 40L24 39ZM1 40L1 41L2 41L2 40ZM17 40L17 41L18 41L18 40ZM31 40L31 41L32 41L32 42L33 42L33 41L32 41L32 40ZM21 41L21 42L22 42L22 41ZM43 41L43 44L44 44L44 45L45 45L45 44L44 44L44 41ZM40 43L40 44L39 44L39 45L38 45L38 46L39 46L39 47L38 47L38 48L37 48L37 49L38 49L38 50L41 50L41 48L39 48L39 47L40 47L40 45L41 45L41 44L42 44L42 43ZM5 45L5 46L3 46L3 47L5 47L5 46L7 46L7 47L8 47L8 46L7 46L7 45ZM23 45L23 46L25 46L25 45ZM26 45L26 47L27 47L27 45ZM36 46L36 47L35 47L35 48L36 48L36 47L37 47L37 46ZM9 48L9 49L10 49L10 48ZM38 48L38 49L39 49L39 48ZM42 48L42 49L43 49L43 48ZM45 48L45 49L46 49L46 48ZM27 49L27 52L30 52L30 49ZM49 49L49 52L52 52L52 49ZM16 50L16 51L17 51L17 50ZM28 50L28 51L29 51L29 50ZM50 50L50 51L51 51L51 50ZM46 51L46 52L47 52L47 51ZM53 52L53 54L54 54L54 52ZM13 53L13 54L14 54L14 53ZM15 55L15 56L16 56L16 55ZM48 55L48 56L49 56L49 55ZM50 55L50 56L51 56L51 55ZM20 56L20 57L21 57L21 56ZM0 0L0 7L7 7L7 0ZM1 1L1 6L6 6L6 1ZM2 2L2 5L5 5L5 2ZM50 0L50 7L57 7L57 0ZM51 1L51 6L56 6L56 1ZM52 2L52 5L55 5L55 2ZM0 50L0 57L7 57L7 50ZM1 51L1 56L6 56L6 51ZM2 52L2 55L5 55L5 52Z" fill="#000000"/></g></g></svg>
