<?xml version="1.0" encoding="UTF-8"?>
<svg xmlns="http://www.w3.org/2000/svg" version="1.1" width="300" height="300" viewBox="0 0 300 300"><rect x="0" y="0" width="300" height="300" fill="#fefefe"/><g transform="scale(4.615)"><g transform="translate(4,4)"><path fill-rule="evenodd" d="M9 0L9 1L8 1L8 2L9 2L9 1L11 1L11 3L8 3L8 4L11 4L11 5L12 5L12 7L11 7L11 6L10 6L10 7L9 7L9 5L8 5L8 7L9 7L9 8L6 8L6 9L7 9L7 10L6 10L6 11L5 11L5 10L4 10L4 9L5 9L5 8L0 8L0 9L1 9L1 10L0 10L0 14L1 14L1 15L0 15L0 16L1 16L1 17L0 17L0 19L1 19L1 20L2 20L2 21L3 21L3 20L4 20L4 22L1 22L1 21L0 21L0 22L1 22L1 23L2 23L2 25L3 25L3 27L4 27L4 30L2 30L2 27L1 27L1 28L0 28L0 31L1 31L1 34L0 34L0 36L1 36L1 40L0 40L0 41L2 41L2 43L1 43L1 44L0 44L0 45L1 45L1 44L2 44L2 43L4 43L4 45L5 45L5 44L6 44L6 45L7 45L7 46L5 46L5 47L3 47L3 46L2 46L2 47L1 47L1 46L0 46L0 48L5 48L5 47L7 47L7 48L6 48L6 49L8 49L8 51L9 51L9 52L8 52L8 57L9 57L9 55L11 55L11 56L12 56L12 57L14 57L14 56L13 56L13 53L12 53L12 52L15 52L15 53L14 53L14 55L16 55L16 56L15 56L15 57L16 57L16 56L17 56L17 57L19 57L19 55L20 55L20 54L19 54L19 53L20 53L20 52L21 52L21 50L26 50L26 52L24 52L24 53L21 53L21 54L22 54L22 55L21 55L21 56L23 56L23 57L26 57L26 56L24 56L24 55L23 55L23 54L24 54L24 53L25 53L25 55L26 55L26 54L30 54L30 53L31 53L31 50L32 50L32 52L33 52L33 50L34 50L34 52L35 52L35 54L36 54L36 56L35 56L35 55L34 55L34 54L33 54L33 53L32 53L32 54L31 54L31 56L30 56L30 55L29 55L29 56L27 56L27 57L29 57L29 56L30 56L30 57L31 57L31 56L35 56L35 57L39 57L39 56L37 56L37 54L38 54L38 55L41 55L41 54L42 54L42 55L43 55L43 57L44 57L44 54L45 54L45 55L46 55L46 54L45 54L45 53L44 53L44 52L45 52L45 51L46 51L46 53L47 53L47 56L46 56L46 57L49 57L49 56L50 56L50 57L52 57L52 55L51 55L51 53L52 53L52 54L53 54L53 57L54 57L54 56L55 56L55 57L56 57L56 56L55 56L55 52L56 52L56 49L57 49L57 48L56 48L56 46L57 46L57 45L56 45L56 44L55 44L55 43L56 43L56 42L55 42L55 39L57 39L57 36L56 36L56 37L55 37L55 35L56 35L56 34L57 34L57 32L56 32L56 30L57 30L57 28L56 28L56 27L55 27L55 26L57 26L57 25L56 25L56 22L57 22L57 21L56 21L56 20L57 20L57 19L55 19L55 18L57 18L57 17L56 17L56 16L57 16L57 15L56 15L56 14L57 14L57 13L56 13L56 14L55 14L55 13L54 13L54 12L55 12L55 11L56 11L56 10L54 10L54 11L53 11L53 10L52 10L52 11L51 11L51 10L49 10L49 9L50 9L50 8L49 8L49 9L47 9L47 10L46 10L46 9L44 9L44 8L43 8L43 6L44 6L44 7L45 7L45 6L46 6L46 7L47 7L47 5L48 5L48 0L46 0L46 1L45 1L45 2L44 2L44 3L42 3L42 2L43 2L43 0L41 0L41 1L40 1L40 0L39 0L39 1L38 1L38 0L37 0L37 1L38 1L38 2L37 2L37 3L36 3L36 0L35 0L35 1L33 1L33 0L32 0L32 1L31 1L31 0L27 0L27 1L26 1L26 0L23 0L23 2L22 2L22 0L21 0L21 2L20 2L20 0L17 0L17 1L18 1L18 2L16 2L16 3L17 3L17 4L18 4L18 5L17 5L17 6L16 6L16 7L15 7L15 5L16 5L16 4L15 4L15 5L13 5L13 4L14 4L14 2L15 2L15 0L14 0L14 2L13 2L13 1L11 1L11 0ZM25 1L25 2L23 2L23 3L22 3L22 2L21 2L21 3L19 3L19 2L18 2L18 3L19 3L19 4L21 4L21 7L22 7L22 8L19 8L19 9L15 9L15 7L14 7L14 6L13 6L13 8L14 8L14 10L16 10L16 11L15 11L15 13L13 13L13 16L12 16L12 15L11 15L11 14L12 14L12 12L11 12L11 11L13 11L13 12L14 12L14 11L13 11L13 10L11 10L11 11L10 11L10 8L9 8L9 10L7 10L7 11L6 11L6 12L7 12L7 13L6 13L6 14L7 14L7 13L8 13L8 11L9 11L9 14L8 14L8 15L9 15L9 16L7 16L7 15L5 15L5 14L4 14L4 13L5 13L5 12L4 12L4 11L2 11L2 10L3 10L3 9L2 9L2 10L1 10L1 11L2 11L2 12L1 12L1 13L2 13L2 14L4 14L4 15L3 15L3 16L4 16L4 17L3 17L3 18L4 18L4 20L5 20L5 21L6 21L6 22L7 22L7 23L5 23L5 22L4 22L4 23L3 23L3 24L4 24L4 26L5 26L5 25L6 25L6 26L8 26L8 25L9 25L9 26L12 26L12 27L11 27L11 28L10 28L10 27L9 27L9 30L12 30L12 31L10 31L10 32L9 32L9 33L8 33L8 34L9 34L9 35L4 35L4 37L3 37L3 38L2 38L2 41L3 41L3 42L4 42L4 43L5 43L5 42L7 42L7 43L6 43L6 44L7 44L7 45L8 45L8 44L9 44L9 46L8 46L8 49L12 49L12 50L13 50L13 51L16 51L16 53L15 53L15 54L16 54L16 53L17 53L17 52L18 52L18 51L19 51L19 52L20 52L20 50L21 50L21 49L23 49L23 48L24 48L24 49L26 49L26 48L30 48L30 47L29 47L29 46L30 46L30 45L31 45L31 46L32 46L32 45L33 45L33 46L35 46L35 48L33 48L33 47L31 47L31 48L32 48L32 50L33 50L33 49L34 49L34 50L36 50L36 52L37 52L37 53L38 53L38 54L40 54L40 53L42 53L42 52L43 52L43 51L42 51L42 50L41 50L41 48L42 48L42 49L43 49L43 48L44 48L44 51L45 51L45 50L46 50L46 51L47 51L47 53L48 53L48 50L47 50L47 49L48 49L48 48L49 48L49 47L51 47L51 48L52 48L52 47L51 47L51 46L53 46L53 47L55 47L55 46L56 46L56 45L55 45L55 44L54 44L54 45L55 45L55 46L53 46L53 45L50 45L50 43L51 43L51 44L53 44L53 43L54 43L54 42L53 42L53 41L51 41L51 42L50 42L50 43L48 43L48 44L47 44L47 45L45 45L45 44L46 44L46 43L47 43L47 42L48 42L48 41L49 41L49 39L47 39L47 37L48 37L48 36L50 36L50 39L55 39L55 37L53 37L53 35L55 35L55 34L56 34L56 32L55 32L55 34L54 34L54 33L52 33L52 32L53 32L53 31L55 31L55 28L54 28L54 29L53 29L53 31L52 31L52 32L51 32L51 33L52 33L52 34L50 34L50 31L48 31L48 27L47 27L47 25L49 25L49 24L51 24L51 25L50 25L50 26L53 26L53 27L54 27L54 26L53 26L53 23L55 23L55 22L56 22L56 21L55 21L55 20L53 20L53 19L52 19L52 18L51 18L51 17L53 17L53 18L55 18L55 17L53 17L53 16L52 16L52 15L51 15L51 17L50 17L50 14L51 14L51 12L50 12L50 11L49 11L49 10L48 10L48 11L47 11L47 12L45 12L45 11L46 11L46 10L45 10L45 11L44 11L44 9L43 9L43 10L41 10L41 12L39 12L39 13L38 13L38 14L37 14L37 15L35 15L35 16L32 16L32 13L33 13L33 14L36 14L36 13L35 13L35 11L36 11L36 10L37 10L37 11L39 11L39 10L40 10L40 9L42 9L42 8L41 8L41 7L42 7L42 6L43 6L43 5L42 5L42 4L41 4L41 3L37 3L37 4L36 4L36 5L35 5L35 4L33 4L33 3L32 3L32 2L31 2L31 3L32 3L32 4L31 4L31 8L32 8L32 10L27 10L27 11L26 11L26 12L25 12L25 10L24 10L24 13L22 13L22 12L21 12L21 11L22 11L22 10L23 10L23 8L24 8L24 6L23 6L23 5L24 5L24 4L23 4L23 3L26 3L26 4L25 4L25 8L26 8L26 4L30 4L30 3L29 3L29 2L30 2L30 1L29 1L29 2L28 2L28 1L27 1L27 2L26 2L26 1ZM46 1L46 2L47 2L47 1ZM27 2L27 3L28 3L28 2ZM12 3L12 4L13 4L13 3ZM44 3L44 6L45 6L45 4L46 4L46 5L47 5L47 3ZM32 4L32 5L33 5L33 6L32 6L32 7L33 7L33 9L34 9L34 8L35 8L35 9L37 9L37 10L38 10L38 9L39 9L39 8L40 8L40 7L41 7L41 6L42 6L42 5L41 5L41 4L40 4L40 5L39 5L39 6L38 6L38 4L37 4L37 5L36 5L36 7L37 7L37 8L35 8L35 5L33 5L33 4ZM18 5L18 6L17 6L17 7L16 7L16 8L17 8L17 7L18 7L18 6L19 6L19 7L20 7L20 5ZM27 5L27 8L30 8L30 5ZM40 5L40 6L39 6L39 7L40 7L40 6L41 6L41 5ZM22 6L22 7L23 7L23 6ZM28 6L28 7L29 7L29 6ZM33 6L33 7L34 7L34 6ZM37 6L37 7L38 7L38 6ZM48 6L48 7L49 7L49 6ZM51 8L51 9L52 9L52 8ZM53 8L53 9L54 9L54 8ZM55 8L55 9L56 9L56 8ZM19 9L19 10L18 10L18 11L16 11L16 13L15 13L15 14L14 14L14 16L13 16L13 18L14 18L14 16L15 16L15 17L16 17L16 13L17 13L17 14L19 14L19 15L18 15L18 16L17 16L17 17L19 17L19 19L18 19L18 20L17 20L17 18L15 18L15 21L16 21L16 22L14 22L14 21L13 21L13 20L14 20L14 19L13 19L13 20L12 20L12 19L11 19L11 18L12 18L12 17L11 17L11 15L10 15L10 16L9 16L9 20L8 20L8 17L7 17L7 16L6 16L6 17L7 17L7 18L6 18L6 19L7 19L7 20L6 20L6 21L7 21L7 22L8 22L8 23L7 23L7 24L6 24L6 25L8 25L8 23L9 23L9 22L8 22L8 21L10 21L10 19L11 19L11 21L13 21L13 22L14 22L14 23L13 23L13 24L14 24L14 23L16 23L16 24L15 24L15 25L18 25L18 26L17 26L17 27L18 27L18 26L19 26L19 27L20 27L20 26L19 26L19 25L21 25L21 27L22 27L22 26L23 26L23 31L21 31L21 30L20 30L20 29L22 29L22 28L19 28L19 29L18 29L18 28L16 28L16 29L15 29L15 27L16 27L16 26L14 26L14 25L12 25L12 26L14 26L14 27L12 27L12 29L13 29L13 30L15 30L15 31L16 31L16 29L18 29L18 30L17 30L17 32L18 32L18 33L17 33L17 34L15 34L15 35L14 35L14 36L13 36L13 35L12 35L12 33L13 33L13 34L14 34L14 33L15 33L15 32L14 32L14 33L13 33L13 31L12 31L12 33L11 33L11 32L10 32L10 33L9 33L9 34L10 34L10 37L9 37L9 36L8 36L8 37L7 37L7 36L6 36L6 37L4 37L4 38L3 38L3 40L4 40L4 41L5 41L5 38L6 38L6 39L7 39L7 40L6 40L6 41L7 41L7 42L9 42L9 41L10 41L10 44L11 44L11 43L12 43L12 42L11 42L11 40L12 40L12 41L13 41L13 42L14 42L14 43L16 43L16 44L18 44L18 45L17 45L17 46L18 46L18 47L17 47L17 48L16 48L16 47L14 47L14 46L12 46L12 47L11 47L11 45L10 45L10 46L9 46L9 47L10 47L10 48L12 48L12 47L14 47L14 48L13 48L13 49L17 49L17 50L16 50L16 51L17 51L17 50L20 50L20 49L19 49L19 47L20 47L20 48L21 48L21 47L23 47L23 46L22 46L22 45L24 45L24 48L25 48L25 45L24 45L24 44L27 44L27 43L25 43L25 41L24 41L24 40L25 40L25 37L26 37L26 40L27 40L27 41L26 41L26 42L27 42L27 41L28 41L28 39L27 39L27 38L28 38L28 37L27 37L27 35L26 35L26 34L25 34L25 33L23 33L23 34L24 34L24 36L23 36L23 37L24 37L24 38L22 38L22 39L24 39L24 40L23 40L23 42L22 42L22 41L21 41L21 42L22 42L22 43L21 43L21 44L22 44L22 45L21 45L21 46L20 46L20 43L19 43L19 42L20 42L20 41L19 41L19 40L21 40L21 37L19 37L19 36L22 36L22 33L21 33L21 34L20 34L20 33L19 33L19 32L18 32L18 31L19 31L19 30L20 30L20 31L21 31L21 32L25 32L25 31L26 31L26 33L27 33L27 32L28 32L28 33L29 33L29 34L30 34L30 36L29 36L29 37L31 37L31 38L29 38L29 39L33 39L33 40L35 40L35 42L37 42L37 43L36 43L36 44L35 44L35 43L34 43L34 42L33 42L33 41L32 41L32 40L30 40L30 42L29 42L29 43L28 43L28 45L26 45L26 47L27 47L27 46L28 46L28 45L30 45L30 44L31 44L31 45L32 45L32 44L33 44L33 43L34 43L34 45L35 45L35 46L36 46L36 45L37 45L37 47L36 47L36 48L35 48L35 49L36 49L36 50L38 50L38 51L37 51L37 52L38 52L38 51L40 51L40 52L41 52L41 50L38 50L38 49L39 49L39 48L41 48L41 46L43 46L43 47L42 47L42 48L43 48L43 47L44 47L44 46L45 46L45 47L47 47L47 48L46 48L46 49L47 49L47 48L48 48L48 47L49 47L49 45L47 45L47 46L45 46L45 45L44 45L44 43L43 43L43 41L44 41L44 42L45 42L45 43L46 43L46 42L45 42L45 41L47 41L47 39L46 39L46 38L45 38L45 37L44 37L44 36L45 36L45 35L44 35L44 33L43 33L43 32L45 32L45 33L47 33L47 32L48 32L48 33L49 33L49 32L48 32L48 31L47 31L47 30L46 30L46 29L47 29L47 27L46 27L46 26L44 26L44 20L46 20L46 19L47 19L47 18L50 18L50 17L49 17L49 16L48 16L48 15L49 15L49 14L50 14L50 12L49 12L49 13L47 13L47 14L45 14L45 13L44 13L44 12L43 12L43 13L39 13L39 14L38 14L38 15L39 15L39 16L38 16L38 17L37 17L37 16L35 16L35 17L37 17L37 18L38 18L38 17L39 17L39 19L38 19L38 21L37 21L37 20L36 20L36 19L35 19L35 18L32 18L32 16L31 16L31 15L30 15L30 14L31 14L31 13L32 13L32 12L31 12L31 13L30 13L30 14L29 14L29 13L28 13L28 12L29 12L29 11L27 11L27 12L26 12L26 15L24 15L24 14L25 14L25 13L24 13L24 14L22 14L22 13L21 13L21 12L20 12L20 9ZM32 10L32 11L33 11L33 10ZM2 12L2 13L3 13L3 12ZM17 12L17 13L18 13L18 12ZM19 12L19 13L20 13L20 15L19 15L19 17L20 17L20 21L19 21L19 22L18 22L18 23L19 23L19 24L21 24L21 25L24 25L24 24L25 24L25 25L26 25L26 26L24 26L24 27L26 27L26 26L29 26L29 25L30 25L30 24L32 24L32 26L31 26L31 27L32 27L32 29L31 29L31 30L35 30L35 28L36 28L36 27L39 27L39 28L38 28L38 29L36 29L36 31L34 31L34 32L33 32L33 31L28 31L28 32L29 32L29 33L31 33L31 32L32 32L32 33L33 33L33 34L32 34L32 35L33 35L33 36L32 36L32 37L33 37L33 38L35 38L35 37L33 37L33 36L34 36L34 34L35 34L35 36L37 36L37 37L38 37L38 38L37 38L37 39L35 39L35 40L38 40L38 42L39 42L39 45L38 45L38 46L39 46L39 47L38 47L38 48L37 48L37 49L38 49L38 48L39 48L39 47L40 47L40 46L39 46L39 45L41 45L41 44L42 44L42 43L41 43L41 42L40 42L40 41L42 41L42 40L44 40L44 41L45 41L45 40L46 40L46 39L45 39L45 38L44 38L44 37L43 37L43 38L42 38L42 39L41 39L41 38L40 38L40 37L41 37L41 36L40 36L40 37L38 37L38 35L40 35L40 34L39 34L39 33L41 33L41 32L43 32L43 30L44 30L44 31L45 31L45 30L44 30L44 29L45 29L45 28L46 28L46 27L45 27L45 28L44 28L44 27L43 27L43 26L42 26L42 28L41 28L41 27L39 27L39 25L41 25L41 24L42 24L42 25L43 25L43 23L41 23L41 24L39 24L39 23L40 23L40 22L39 22L39 21L43 21L43 20L44 20L44 18L45 18L45 19L46 19L46 18L47 18L47 15L44 15L44 14L41 14L41 16L39 16L39 17L41 17L41 16L42 16L42 17L43 17L43 16L42 16L42 15L44 15L44 18L43 18L43 20L42 20L42 18L41 18L41 20L39 20L39 21L38 21L38 22L37 22L37 24L39 24L39 25L38 25L38 26L37 26L37 25L33 25L33 24L32 24L32 23L33 23L33 22L34 22L34 23L35 23L35 20L34 20L34 19L33 19L33 20L32 20L32 21L31 21L31 22L30 22L30 21L29 21L29 20L30 20L30 19L31 19L31 18L30 18L30 19L28 19L28 18L26 18L26 16L27 16L27 17L28 17L28 16L29 16L29 14L28 14L28 13L27 13L27 15L26 15L26 16L24 16L24 15L21 15L21 13L20 13L20 12ZM33 12L33 13L34 13L34 12ZM52 12L52 13L53 13L53 15L55 15L55 14L54 14L54 13L53 13L53 12ZM10 13L10 14L11 14L11 13ZM4 15L4 16L5 16L5 15ZM27 15L27 16L28 16L28 15ZM21 16L21 17L22 17L22 18L21 18L21 20L24 20L24 21L23 21L23 22L24 22L24 21L25 21L25 22L26 22L26 23L25 23L25 24L27 24L27 22L28 22L28 21L25 21L25 20L26 20L26 19L25 19L25 17L22 17L22 16ZM45 16L45 17L46 17L46 16ZM10 17L10 18L11 18L11 17ZM1 18L1 19L2 19L2 20L3 20L3 19L2 19L2 18ZM22 18L22 19L24 19L24 18ZM27 19L27 20L28 20L28 19ZM49 19L49 21L48 21L48 20L47 20L47 22L46 22L46 21L45 21L45 22L46 22L46 23L45 23L45 25L46 25L46 23L47 23L47 24L48 24L48 23L49 23L49 21L51 21L51 22L50 22L50 23L51 23L51 24L52 24L52 23L53 23L53 22L54 22L54 21L51 21L51 20L52 20L52 19ZM7 20L7 21L8 21L8 20ZM16 20L16 21L17 21L17 20ZM19 22L19 23L20 23L20 22ZM21 22L21 24L24 24L24 23L22 23L22 22ZM29 22L29 23L30 23L30 22ZM38 22L38 23L39 23L39 22ZM4 23L4 24L5 24L5 23ZM11 23L11 24L9 24L9 25L11 25L11 24L12 24L12 23ZM0 24L0 26L1 26L1 24ZM54 24L54 25L55 25L55 24ZM32 26L32 27L33 27L33 28L35 28L35 27L36 27L36 26L34 26L34 27L33 27L33 26ZM5 27L5 30L8 30L8 27ZM27 27L27 30L30 30L30 27ZM49 27L49 30L52 30L52 27ZM6 28L6 29L7 29L7 28ZM25 28L25 29L26 29L26 28ZM28 28L28 29L29 29L29 28ZM43 28L43 29L39 29L39 30L38 30L38 32L39 32L39 31L41 31L41 30L43 30L43 29L44 29L44 28ZM50 28L50 29L51 29L51 28ZM6 31L6 32L5 32L5 33L4 33L4 32L2 32L2 36L3 36L3 34L7 34L7 33L6 33L6 32L7 32L7 31ZM35 32L35 34L37 34L37 35L38 35L38 33L37 33L37 32ZM10 33L10 34L11 34L11 33ZM18 33L18 34L19 34L19 35L17 35L17 36L15 36L15 37L16 37L16 38L15 38L15 39L13 39L13 37L12 37L12 35L11 35L11 37L10 37L10 38L9 38L9 40L7 40L7 41L9 41L9 40L11 40L11 39L12 39L12 40L13 40L13 41L15 41L15 42L17 42L17 43L18 43L18 42L19 42L19 41L17 41L17 40L19 40L19 39L20 39L20 38L18 38L18 39L17 39L17 36L19 36L19 35L20 35L20 34L19 34L19 33ZM42 34L42 35L43 35L43 36L44 36L44 35L43 35L43 34ZM48 34L48 35L47 35L47 36L48 36L48 35L50 35L50 36L51 36L51 37L52 37L52 35L53 35L53 34L52 34L52 35L50 35L50 34ZM6 37L6 38L7 38L7 39L8 39L8 38L7 38L7 37ZM11 37L11 38L12 38L12 37ZM38 38L38 40L39 40L39 38ZM15 39L15 41L16 41L16 39ZM44 39L44 40L45 40L45 39ZM31 41L31 42L32 42L32 43L31 43L31 44L32 44L32 43L33 43L33 42L32 42L32 41ZM51 42L51 43L53 43L53 42ZM7 43L7 44L8 44L8 43ZM23 43L23 44L24 44L24 43ZM40 43L40 44L41 44L41 43ZM14 44L14 45L15 45L15 44ZM47 46L47 47L48 47L48 46ZM53 48L53 49L54 49L54 48ZM55 48L55 49L56 49L56 48ZM27 49L27 52L30 52L30 49ZM49 49L49 52L52 52L52 49ZM10 50L10 54L12 54L12 53L11 53L11 50ZM28 50L28 51L29 51L29 50ZM50 50L50 51L51 51L51 50ZM54 50L54 51L55 51L55 50ZM22 51L22 52L23 52L23 51ZM53 52L53 53L54 53L54 52ZM43 53L43 54L44 54L44 53ZM17 54L17 56L18 56L18 55L19 55L19 54ZM48 55L48 56L49 56L49 55ZM50 55L50 56L51 56L51 55ZM0 0L0 7L7 7L7 0ZM1 1L1 6L6 6L6 1ZM2 2L2 5L5 5L5 2ZM50 0L50 7L57 7L57 0ZM51 1L51 6L56 6L56 1ZM52 2L52 5L55 5L55 2ZM0 50L0 57L7 57L7 50ZM1 51L1 56L6 56L6 51ZM2 52L2 55L5 55L5 52Z" fill="#000000"/></g></g></svg>
