<?xml version="1.0" encoding="UTF-8"?>
<svg xmlns="http://www.w3.org/2000/svg" version="1.1" width="300" height="300" viewBox="0 0 300 300"><rect x="0" y="0" width="300" height="300" fill="#fefefe"/><g transform="scale(4.615)"><g transform="translate(4,4)"><path fill-rule="evenodd" d="M10 0L10 1L8 1L8 2L9 2L9 3L8 3L8 4L9 4L9 3L10 3L10 1L11 1L11 0ZM14 0L14 2L13 2L13 1L12 1L12 3L13 3L13 4L14 4L14 2L15 2L15 3L16 3L16 1L15 1L15 0ZM17 0L17 2L20 2L20 3L22 3L22 0L21 0L21 1L18 1L18 0ZM23 0L23 2L25 2L25 1L26 1L26 2L27 2L27 3L28 3L28 2L31 2L31 0L27 0L27 1L26 1L26 0ZM32 0L32 3L31 3L31 4L26 4L26 3L23 3L23 4L19 4L19 3L17 3L17 5L20 5L20 7L19 7L19 6L18 6L18 7L17 7L17 6L16 6L16 7L15 7L15 5L16 5L16 4L15 4L15 5L14 5L14 8L13 8L13 5L12 5L12 4L11 4L11 5L12 5L12 8L13 8L13 9L12 9L12 10L13 10L13 11L12 11L12 12L10 12L10 10L9 10L9 8L10 8L10 9L11 9L11 8L10 8L10 7L11 7L11 6L10 6L10 5L8 5L8 7L9 7L9 8L6 8L6 9L7 9L7 10L6 10L6 11L7 11L7 12L5 12L5 10L4 10L4 9L5 9L5 8L0 8L0 9L3 9L3 10L4 10L4 12L3 12L3 13L2 13L2 11L1 11L1 14L2 14L2 15L4 15L4 17L3 17L3 18L2 18L2 17L1 17L1 15L0 15L0 17L1 17L1 19L0 19L0 22L3 22L3 23L2 23L2 24L4 24L4 23L7 23L7 24L5 24L5 25L1 25L1 28L2 28L2 29L0 29L0 31L1 31L1 30L3 30L3 28L4 28L4 31L3 31L3 32L5 32L5 33L4 33L4 34L5 34L5 35L7 35L7 36L6 36L6 37L7 37L7 38L6 38L6 39L5 39L5 38L4 38L4 35L3 35L3 33L2 33L2 32L1 32L1 33L0 33L0 35L1 35L1 36L0 36L0 39L1 39L1 43L0 43L0 44L1 44L1 43L2 43L2 42L3 42L3 44L2 44L2 47L1 47L1 45L0 45L0 48L5 48L5 47L7 47L7 48L6 48L6 49L8 49L8 51L9 51L9 52L8 52L8 57L10 57L10 56L11 56L11 57L13 57L13 56L15 56L15 57L16 57L16 56L17 56L17 57L19 57L19 56L17 56L17 53L20 53L20 52L21 52L21 51L23 51L23 50L25 50L25 51L26 51L26 52L24 52L24 53L23 53L23 54L21 54L21 56L20 56L20 57L21 57L21 56L24 56L24 57L26 57L26 55L27 55L27 54L30 54L30 53L31 53L31 51L32 51L32 52L33 52L33 53L32 53L32 54L31 54L31 56L30 56L30 55L29 55L29 56L27 56L27 57L29 57L29 56L30 56L30 57L31 57L31 56L35 56L35 57L40 57L40 56L42 56L42 55L43 55L43 57L44 57L44 54L45 54L45 53L44 53L44 52L45 52L45 51L46 51L46 52L47 52L47 50L48 50L48 54L47 54L47 57L49 57L49 56L50 56L50 57L52 57L52 55L51 55L51 53L52 53L52 54L53 54L53 52L54 52L54 54L55 54L55 53L56 53L56 50L57 50L57 48L56 48L56 46L57 46L57 45L56 45L56 44L55 44L55 43L56 43L56 42L55 42L55 39L57 39L57 36L56 36L56 33L57 33L57 32L56 32L56 30L57 30L57 28L56 28L56 27L55 27L55 26L57 26L57 25L56 25L56 22L57 22L57 21L56 21L56 22L55 22L55 23L54 23L54 21L51 21L51 20L52 20L52 19L53 19L53 20L56 20L56 19L55 19L55 18L57 18L57 17L56 17L56 16L57 16L57 15L56 15L56 14L57 14L57 13L56 13L56 10L54 10L54 11L52 11L52 10L53 10L53 9L54 9L54 8L53 8L53 9L52 9L52 8L51 8L51 9L52 9L52 10L50 10L50 8L49 8L49 6L48 6L48 7L47 7L47 5L48 5L48 0L45 0L45 2L44 2L44 3L43 3L43 4L40 4L40 5L39 5L39 6L38 6L38 9L37 9L37 8L35 8L35 5L36 5L36 7L37 7L37 5L38 5L38 4L39 4L39 3L41 3L41 2L43 2L43 0L41 0L41 1L40 1L40 0L39 0L39 1L38 1L38 0L37 0L37 1L38 1L38 2L39 2L39 3L36 3L36 0L35 0L35 1L33 1L33 0ZM27 1L27 2L28 2L28 1ZM46 1L46 2L47 2L47 1ZM33 2L33 3L32 3L32 4L31 4L31 8L32 8L32 10L31 10L31 11L30 11L30 10L29 10L29 9L28 9L28 10L27 10L27 11L26 11L26 12L25 12L25 10L24 10L24 13L22 13L22 12L20 12L20 10L21 10L21 11L22 11L22 10L23 10L23 9L24 9L24 6L23 6L23 5L24 5L24 4L23 4L23 5L21 5L21 7L22 7L22 8L20 8L20 10L19 10L19 9L16 9L16 8L17 8L17 7L16 7L16 8L14 8L14 9L13 9L13 10L15 10L15 11L18 11L18 10L19 10L19 12L20 12L20 14L19 14L19 15L21 15L21 16L19 16L19 17L16 17L16 16L18 16L18 14L17 14L17 13L18 13L18 12L17 12L17 13L16 13L16 12L15 12L15 13L13 13L13 12L14 12L14 11L13 11L13 12L12 12L12 16L14 16L14 18L13 18L13 19L14 19L14 20L13 20L13 21L14 21L14 22L16 22L16 21L17 21L17 20L18 20L18 19L19 19L19 20L20 20L20 21L19 21L19 22L18 22L18 23L19 23L19 25L20 25L20 26L18 26L18 27L17 27L17 24L16 24L16 23L13 23L13 22L12 22L12 21L11 21L11 23L10 23L10 24L9 24L9 21L8 21L8 25L9 25L9 31L11 31L11 30L10 30L10 29L11 29L11 28L13 28L13 27L10 27L10 25L11 25L11 26L13 26L13 25L11 25L11 23L13 23L13 24L15 24L15 25L14 25L14 26L16 26L16 27L14 27L14 28L15 28L15 29L16 29L16 30L18 30L18 29L20 29L20 30L19 30L19 32L20 32L20 31L23 31L23 27L24 27L24 28L25 28L25 29L26 29L26 28L25 28L25 27L26 27L26 26L27 26L27 25L29 25L29 26L30 26L30 25L29 25L29 24L30 24L30 22L29 22L29 24L25 24L25 23L26 23L26 22L25 22L25 21L24 21L24 20L22 20L22 19L21 19L21 20L20 20L20 18L22 18L22 17L25 17L25 19L26 19L26 21L31 21L31 24L32 24L32 26L31 26L31 28L32 28L32 30L31 30L31 31L30 31L30 32L29 32L29 31L27 31L27 33L26 33L26 32L25 32L25 30L24 30L24 32L21 32L21 33L20 33L20 34L21 34L21 33L22 33L22 34L23 34L23 36L21 36L21 35L20 35L20 36L19 36L19 35L18 35L18 34L17 34L17 33L16 33L16 32L15 32L15 30L14 30L14 29L12 29L12 30L13 30L13 31L12 31L12 32L13 32L13 31L14 31L14 33L13 33L13 34L10 34L10 33L5 33L5 34L10 34L10 35L8 35L8 36L7 36L7 37L9 37L9 38L8 38L8 39L9 39L9 40L7 40L7 39L6 39L6 40L7 40L7 41L6 41L6 42L8 42L8 41L9 41L9 40L10 40L10 39L11 39L11 40L12 40L12 41L14 41L14 42L11 42L11 43L10 43L10 42L9 42L9 43L10 43L10 44L12 44L12 43L15 43L15 44L14 44L14 45L15 45L15 46L16 46L16 47L13 47L13 46L12 46L12 45L9 45L9 44L8 44L8 43L5 43L5 41L3 41L3 39L4 39L4 38L3 38L3 39L2 39L2 38L1 38L1 39L2 39L2 41L3 41L3 42L4 42L4 44L3 44L3 47L5 47L5 46L4 46L4 45L6 45L6 46L7 46L7 47L8 47L8 46L9 46L9 48L10 48L10 49L9 49L9 50L10 50L10 49L11 49L11 50L12 50L12 51L10 51L10 52L9 52L9 56L10 56L10 54L11 54L11 55L12 55L12 53L14 53L14 55L15 55L15 56L16 56L16 55L15 55L15 54L16 54L16 53L17 53L17 51L16 51L16 53L14 53L14 52L15 52L15 50L17 50L17 49L14 49L14 48L17 48L17 47L18 47L18 48L19 48L19 47L18 47L18 46L17 46L17 45L18 45L18 44L17 44L17 45L16 45L16 43L18 43L18 42L19 42L19 45L20 45L20 48L21 48L21 49L20 49L20 51L21 51L21 49L23 49L23 48L24 48L24 49L26 49L26 48L29 48L29 45L30 45L30 46L31 46L31 47L33 47L33 48L31 48L31 50L32 50L32 51L33 51L33 50L34 50L34 51L35 51L35 50L36 50L36 52L37 52L37 51L38 51L38 50L41 50L41 51L42 51L42 50L41 50L41 48L42 48L42 49L43 49L43 48L44 48L44 50L47 50L47 49L48 49L48 48L50 48L50 47L51 47L51 46L53 46L53 47L52 47L52 48L53 48L53 47L54 47L54 46L53 46L53 43L54 43L54 42L53 42L53 41L54 41L54 40L53 40L53 41L51 41L51 42L50 42L50 43L49 43L49 42L48 42L48 41L49 41L49 39L52 39L52 38L53 38L53 39L54 39L54 38L53 38L53 35L55 35L55 34L54 34L54 33L52 33L52 32L51 32L51 33L52 33L52 34L50 34L50 31L48 31L48 28L47 28L47 29L46 29L46 30L47 30L47 31L48 31L48 32L47 32L47 33L46 33L46 31L45 31L45 32L43 32L43 31L44 31L44 30L45 30L45 28L46 28L46 27L47 27L47 25L46 25L46 24L49 24L49 25L50 25L50 26L53 26L53 27L54 27L54 26L53 26L53 25L54 25L54 24L51 24L51 25L50 25L50 22L51 22L51 21L49 21L49 22L47 22L47 21L48 21L48 20L46 20L46 19L45 19L45 20L44 20L44 18L47 18L47 19L48 19L48 18L47 18L47 17L45 17L45 16L47 16L47 15L44 15L44 14L47 14L47 13L49 13L49 12L50 12L50 14L49 14L49 15L48 15L48 16L49 16L49 15L50 15L50 16L51 16L51 17L50 17L50 18L49 18L49 19L51 19L51 17L53 17L53 18L55 18L55 16L53 16L53 15L54 15L54 14L53 14L53 15L50 15L50 14L51 14L51 12L50 12L50 10L49 10L49 12L45 12L45 11L46 11L46 10L47 10L47 7L46 7L46 6L45 6L45 4L46 4L46 5L47 5L47 3L44 3L44 6L43 6L43 5L40 5L40 6L39 6L39 9L38 9L38 10L37 10L37 9L35 9L35 8L34 8L34 9L33 9L33 7L34 7L34 6L33 6L33 5L35 5L35 4L33 4L33 3L34 3L34 2ZM25 4L25 8L26 8L26 4ZM32 4L32 5L33 5L33 4ZM36 4L36 5L37 5L37 4ZM27 5L27 8L30 8L30 5ZM9 6L9 7L10 7L10 6ZM22 6L22 7L23 7L23 6ZM28 6L28 7L29 7L29 6ZM32 6L32 7L33 7L33 6ZM40 6L40 7L41 7L41 6ZM42 6L42 7L43 7L43 9L41 9L41 10L39 10L39 11L37 11L37 10L36 10L36 12L35 12L35 13L36 13L36 14L32 14L32 12L33 12L33 13L34 13L34 12L33 12L33 10L32 10L32 11L31 11L31 13L30 13L30 14L29 14L29 13L28 13L28 12L29 12L29 11L27 11L27 12L26 12L26 13L24 13L24 15L23 15L23 14L22 14L22 13L21 13L21 15L23 15L23 16L26 16L26 13L28 13L28 14L29 14L29 16L28 16L28 15L27 15L27 16L28 16L28 17L26 17L26 19L27 19L27 20L28 20L28 19L30 19L30 20L31 20L31 21L32 21L32 20L35 20L35 23L34 23L34 22L33 22L33 23L32 23L32 24L33 24L33 25L37 25L37 26L38 26L38 25L39 25L39 24L37 24L37 22L38 22L38 21L39 21L39 22L40 22L40 24L41 24L41 26L39 26L39 27L36 27L36 26L34 26L34 27L33 27L33 26L32 26L32 27L33 27L33 28L35 28L35 30L32 30L32 32L31 32L31 33L29 33L29 32L28 32L28 33L29 33L29 34L30 34L30 36L29 36L29 37L31 37L31 38L29 38L29 39L33 39L33 40L35 40L35 42L37 42L37 43L34 43L34 42L33 42L33 41L32 41L32 40L28 40L28 39L27 39L27 38L28 38L28 37L27 37L27 38L25 38L25 37L26 37L26 36L27 36L27 35L26 35L26 34L25 34L25 33L23 33L23 34L24 34L24 36L23 36L23 37L24 37L24 38L22 38L22 39L21 39L21 37L19 37L19 36L17 36L17 34L15 34L15 35L13 35L13 36L14 36L14 39L15 39L15 40L14 40L14 41L16 41L16 39L15 39L15 38L16 38L16 37L15 37L15 35L16 35L16 36L17 36L17 37L19 37L19 38L18 38L18 39L19 39L19 40L17 40L17 41L19 41L19 42L20 42L20 45L21 45L21 47L23 47L23 46L25 46L25 44L29 44L29 43L31 43L31 44L30 44L30 45L31 45L31 46L32 46L32 44L33 44L33 43L34 43L34 45L35 45L35 46L33 46L33 47L35 47L35 46L36 46L36 48L33 48L33 49L32 49L32 50L33 50L33 49L36 49L36 50L38 50L38 49L39 49L39 48L41 48L41 46L43 46L43 47L42 47L42 48L43 48L43 47L44 47L44 48L48 48L48 47L50 47L50 46L48 46L48 45L50 45L50 44L51 44L51 45L52 45L52 44L51 44L51 43L53 43L53 42L51 42L51 43L50 43L50 44L48 44L48 45L47 45L47 43L48 43L48 42L47 42L47 43L46 43L46 42L44 42L44 40L45 40L45 39L46 39L46 41L47 41L47 39L48 39L48 37L47 37L47 39L46 39L46 38L45 38L45 37L44 37L44 36L46 36L46 35L44 35L44 36L41 36L41 35L42 35L42 34L45 34L45 33L43 33L43 32L41 32L41 33L39 33L39 34L40 34L40 35L39 35L39 37L40 37L40 38L41 38L41 39L42 39L42 38L43 38L43 37L44 37L44 38L45 38L45 39L43 39L43 41L39 41L39 42L38 42L38 40L40 40L40 39L38 39L38 40L35 40L35 39L37 39L37 38L38 38L38 37L37 37L37 36L38 36L38 33L37 33L37 32L34 32L34 31L35 31L35 30L37 30L37 29L38 29L38 28L39 28L39 27L41 27L41 28L42 28L42 26L43 26L43 29L39 29L39 30L38 30L38 32L39 32L39 31L40 31L40 30L44 30L44 28L45 28L45 27L46 27L46 26L45 26L45 25L44 25L44 20L42 20L42 19L43 19L43 18L44 18L44 15L42 15L42 16L41 16L41 15L39 15L39 14L38 14L38 13L40 13L40 12L41 12L41 11L43 11L43 13L41 13L41 14L43 14L43 13L44 13L44 11L45 11L45 10L46 10L46 9L45 9L45 10L44 10L44 8L45 8L45 6L44 6L44 7L43 7L43 6ZM55 8L55 9L56 9L56 8ZM21 9L21 10L22 10L22 9ZM7 10L7 11L8 11L8 10ZM43 10L43 11L44 11L44 10ZM39 11L39 12L40 12L40 11ZM4 12L4 13L5 13L5 12ZM7 12L7 13L6 13L6 14L7 14L7 15L6 15L6 16L5 16L5 18L4 18L4 19L3 19L3 20L2 20L2 19L1 19L1 20L2 20L2 21L3 21L3 22L7 22L7 21L6 21L6 20L7 20L7 19L6 19L6 18L10 18L10 17L11 17L11 16L10 16L10 15L11 15L11 14L10 14L10 13L8 13L8 12ZM52 12L52 13L53 13L53 12ZM54 12L54 13L55 13L55 14L56 14L56 13L55 13L55 12ZM15 13L15 14L13 14L13 15L14 15L14 16L16 16L16 13ZM4 14L4 15L5 15L5 14ZM8 14L8 15L9 15L9 14ZM30 14L30 15L31 15L31 14ZM37 14L37 15L35 15L35 16L32 16L32 17L31 17L31 18L30 18L30 19L31 19L31 18L32 18L32 19L36 19L36 20L37 20L37 19L39 19L39 17L41 17L41 16L39 16L39 15L38 15L38 14ZM6 16L6 17L10 17L10 16ZM21 16L21 17L22 17L22 16ZM35 16L35 17L37 17L37 18L38 18L38 17L39 17L39 16L38 16L38 17L37 17L37 16ZM42 16L42 17L43 17L43 16ZM15 17L15 21L16 21L16 17ZM19 17L19 18L20 18L20 17ZM11 18L11 19L10 19L10 20L11 20L11 19L12 19L12 18ZM23 18L23 19L24 19L24 18ZM27 18L27 19L28 19L28 18ZM41 18L41 19L42 19L42 18ZM4 20L4 21L5 21L5 20ZM39 20L39 21L41 21L41 20ZM22 21L22 22L24 22L24 21ZM45 21L45 22L46 22L46 23L45 23L45 24L46 24L46 23L47 23L47 22L46 22L46 21ZM19 22L19 23L20 23L20 22ZM41 22L41 24L42 24L42 22ZM21 23L21 24L20 24L20 25L21 25L21 26L20 26L20 27L19 27L19 28L20 28L20 27L22 27L22 26L24 26L24 27L25 27L25 26L26 26L26 25L25 25L25 24L24 24L24 23ZM21 24L21 25L24 25L24 24ZM5 25L5 26L7 26L7 25ZM44 26L44 27L45 27L45 26ZM2 27L2 28L3 28L3 27ZM5 27L5 30L8 30L8 27ZM27 27L27 30L30 30L30 27ZM49 27L49 30L52 30L52 27ZM6 28L6 29L7 29L7 28ZM16 28L16 29L18 29L18 28ZM21 28L21 29L22 29L22 28ZM28 28L28 29L29 29L29 28ZM50 28L50 29L51 29L51 28ZM54 28L54 29L53 29L53 30L54 30L54 31L55 31L55 30L54 30L54 29L56 29L56 28ZM6 31L6 32L8 32L8 31ZM17 31L17 32L18 32L18 31ZM32 32L32 33L31 33L31 34L32 34L32 35L33 35L33 36L32 36L32 37L33 37L33 39L34 39L34 38L35 38L35 36L37 36L37 34L35 34L35 33L34 33L34 32ZM48 32L48 33L49 33L49 32ZM55 32L55 33L56 33L56 32ZM1 33L1 35L2 35L2 37L3 37L3 35L2 35L2 33ZM33 34L33 35L34 35L34 36L35 36L35 35L34 35L34 34ZM49 34L49 35L50 35L50 37L49 37L49 38L50 38L50 37L51 37L51 36L52 36L52 35L53 35L53 34L52 34L52 35L50 35L50 34ZM9 36L9 37L10 37L10 38L9 38L9 39L10 39L10 38L11 38L11 39L13 39L13 37L11 37L11 36ZM40 36L40 37L41 37L41 38L42 38L42 37L41 37L41 36ZM19 38L19 39L20 39L20 38ZM22 39L22 40L20 40L20 42L21 42L21 43L22 43L22 42L23 42L23 43L24 43L24 44L23 44L23 45L22 45L22 44L21 44L21 45L22 45L22 46L23 46L23 45L24 45L24 44L25 44L25 43L29 43L29 41L27 41L27 39L25 39L25 40L24 40L24 39ZM23 41L23 42L25 42L25 41ZM26 41L26 42L27 42L27 41ZM30 41L30 42L32 42L32 43L33 43L33 42L32 42L32 41ZM40 42L40 43L39 43L39 44L40 44L40 45L38 45L38 46L39 46L39 47L38 47L38 48L37 48L37 49L38 49L38 48L39 48L39 47L40 47L40 46L41 46L41 44L42 44L42 42ZM43 42L43 44L44 44L44 45L43 45L43 46L44 46L44 47L45 47L45 46L47 46L47 45L45 45L45 44L46 44L46 43L44 43L44 42ZM40 43L40 44L41 44L41 43ZM6 44L6 45L7 45L7 46L8 46L8 45L7 45L7 44ZM54 44L54 45L55 45L55 46L56 46L56 45L55 45L55 44ZM26 45L26 47L27 47L27 45ZM36 45L36 46L37 46L37 45ZM12 47L12 48L13 48L13 47ZM24 47L24 48L25 48L25 47ZM55 48L55 50L54 50L54 51L55 51L55 50L56 50L56 48ZM13 49L13 51L12 51L12 52L10 52L10 53L12 53L12 52L13 52L13 51L14 51L14 49ZM27 49L27 52L30 52L30 49ZM49 49L49 52L52 52L52 49ZM18 50L18 52L19 52L19 50ZM28 50L28 51L29 51L29 50ZM50 50L50 51L51 51L51 50ZM39 51L39 52L38 52L38 53L37 53L37 54L40 54L40 53L41 53L41 52L40 52L40 51ZM24 53L24 54L23 54L23 55L24 55L24 56L25 56L25 54L27 54L27 53ZM33 53L33 54L34 54L34 55L35 55L35 56L36 56L36 54L35 54L35 53ZM43 53L43 54L44 54L44 53ZM19 54L19 55L20 55L20 54ZM41 54L41 55L42 55L42 54ZM37 55L37 56L40 56L40 55ZM50 55L50 56L51 56L51 55ZM53 55L53 56L55 56L55 57L56 57L56 56L55 56L55 55ZM45 56L45 57L46 57L46 56ZM0 0L0 7L7 7L7 0ZM1 1L1 6L6 6L6 1ZM2 2L2 5L5 5L5 2ZM50 0L50 7L57 7L57 0ZM51 1L51 6L56 6L56 1ZM52 2L52 5L55 5L55 2ZM0 50L0 57L7 57L7 50ZM1 51L1 56L6 56L6 51ZM2 52L2 55L5 55L5 52Z" fill="#000000"/></g></g></svg>
