<?xml version="1.0" encoding="UTF-8"?>
<svg xmlns="http://www.w3.org/2000/svg" version="1.1" width="300" height="300" viewBox="0 0 300 300"><rect x="0" y="0" width="300" height="300" fill="#fefefe"/><g transform="scale(4.615)"><g transform="translate(4,4)"><path fill-rule="evenodd" d="M8 0L8 1L9 1L9 0ZM11 0L11 3L10 3L10 2L8 2L8 5L9 5L9 6L8 6L8 7L9 7L9 6L10 6L10 7L11 7L11 6L12 6L12 7L13 7L13 8L8 8L8 9L7 9L7 8L6 8L6 9L7 9L7 10L5 10L5 11L8 11L8 12L5 12L5 15L3 15L3 14L4 14L4 13L3 13L3 12L2 12L2 10L3 10L3 11L4 11L4 10L3 10L3 9L4 9L4 8L0 8L0 9L1 9L1 10L0 10L0 12L2 12L2 13L3 13L3 14L1 14L1 13L0 13L0 15L1 15L1 16L2 16L2 17L1 17L1 19L0 19L0 20L1 20L1 21L0 21L0 22L1 22L1 23L0 23L0 24L2 24L2 23L3 23L3 25L2 25L2 26L1 26L1 25L0 25L0 29L1 29L1 30L0 30L0 32L1 32L1 33L0 33L0 34L1 34L1 33L2 33L2 34L3 34L3 35L5 35L5 34L6 34L6 35L7 35L7 36L6 36L6 37L5 37L5 40L4 40L4 41L5 41L5 42L4 42L4 45L3 45L3 44L0 44L0 48L5 48L5 47L7 47L7 48L6 48L6 49L7 49L7 48L8 48L8 50L9 50L9 51L10 51L10 52L9 52L9 53L8 53L8 57L9 57L9 55L11 55L11 53L10 53L10 52L11 52L11 51L12 51L12 53L13 53L13 54L12 54L12 56L13 56L13 57L14 57L14 56L16 56L16 57L18 57L18 55L20 55L20 56L21 56L21 57L23 57L23 56L22 56L22 55L23 55L23 54L26 54L26 55L27 55L27 56L28 56L28 55L27 55L27 54L26 54L26 53L29 53L29 54L31 54L31 55L30 55L30 56L31 56L31 57L32 57L32 55L33 55L33 54L36 54L36 55L34 55L34 56L33 56L33 57L36 57L36 55L38 55L38 57L39 57L39 56L40 56L40 57L42 57L42 56L43 56L43 55L44 55L44 56L46 56L46 57L48 57L48 55L49 55L49 57L51 57L51 54L52 54L52 53L54 53L54 54L56 54L56 53L57 53L57 52L55 52L55 51L56 51L56 49L57 49L57 48L56 48L56 49L55 49L55 50L53 50L53 49L54 49L54 48L51 48L51 47L52 47L52 46L49 46L49 45L51 45L51 44L52 44L52 43L53 43L53 42L54 42L54 43L55 43L55 44L53 44L53 46L54 46L54 47L57 47L57 45L56 45L56 46L55 46L55 44L56 44L56 42L54 42L54 40L55 40L55 39L53 39L53 38L52 38L52 36L53 36L53 37L55 37L55 38L56 38L56 39L57 39L57 38L56 38L56 37L55 37L55 36L54 36L54 35L57 35L57 31L56 31L56 30L57 30L57 29L56 29L56 30L55 30L55 33L54 33L54 32L53 32L53 28L54 28L54 29L55 29L55 27L53 27L53 26L52 26L52 25L51 25L51 24L49 24L49 20L50 20L50 21L51 21L51 22L52 22L52 23L53 23L53 24L54 24L54 25L56 25L56 24L54 24L54 23L57 23L57 19L56 19L56 22L54 22L54 21L55 21L55 20L54 20L54 21L53 21L53 20L50 20L50 19L49 19L49 20L48 20L48 21L47 21L47 20L45 20L45 21L47 21L47 22L44 22L44 21L43 21L43 20L41 20L41 18L42 18L42 19L43 19L43 18L42 18L42 17L46 17L46 19L48 19L48 17L47 17L47 16L48 16L48 14L47 14L47 16L46 16L46 15L45 15L45 16L44 16L44 14L42 14L42 17L41 17L41 18L39 18L39 19L40 19L40 20L37 20L37 19L36 19L36 20L35 20L35 19L33 19L33 21L35 21L35 22L38 22L38 21L39 21L39 23L41 23L41 22L43 22L43 23L42 23L42 24L41 24L41 25L40 25L40 26L41 26L41 29L40 29L40 28L39 28L39 27L38 27L38 26L39 26L39 24L38 24L38 23L37 23L37 24L36 24L36 23L35 23L35 24L33 24L33 22L32 22L32 23L31 23L31 24L30 24L30 22L31 22L31 20L32 20L32 19L30 19L30 17L29 17L29 16L31 16L31 17L32 17L32 18L35 18L35 17L34 17L34 16L35 16L35 15L33 15L33 14L34 14L34 12L35 12L35 14L36 14L36 15L39 15L39 17L40 17L40 16L41 16L41 14L40 14L40 11L42 11L42 12L43 12L43 13L44 13L44 11L42 11L42 10L44 10L44 9L42 9L42 8L43 8L43 6L42 6L42 5L41 5L41 4L42 4L42 3L43 3L43 5L45 5L45 6L44 6L44 7L45 7L45 8L46 8L46 7L47 7L47 5L48 5L48 0L45 0L45 1L44 1L44 2L41 2L41 1L43 1L43 0L41 0L41 1L40 1L40 0L39 0L39 1L40 1L40 2L41 2L41 4L38 4L38 3L37 3L37 1L38 1L38 0L37 0L37 1L36 1L36 0L35 0L35 1L34 1L34 2L33 2L33 0L28 0L28 1L27 1L27 2L28 2L28 1L31 1L31 4L30 4L30 2L29 2L29 4L26 4L26 0L23 0L23 1L25 1L25 2L24 2L24 3L23 3L23 2L22 2L22 0L21 0L21 2L22 2L22 3L23 3L23 5L20 5L20 4L19 4L19 3L20 3L20 0L19 0L19 1L18 1L18 2L17 2L17 4L19 4L19 5L15 5L15 4L14 4L14 3L13 3L13 4L14 4L14 5L13 5L13 6L12 6L12 5L11 5L11 3L12 3L12 1L14 1L14 0ZM35 1L35 2L36 2L36 1ZM46 1L46 2L45 2L45 3L44 3L44 4L45 4L45 5L47 5L47 3L46 3L46 2L47 2L47 1ZM18 2L18 3L19 3L19 2ZM9 3L9 4L10 4L10 3ZM32 3L32 4L31 4L31 5L32 5L32 6L31 6L31 9L32 9L32 10L30 10L30 11L29 11L29 9L28 9L28 11L27 11L27 10L26 10L26 11L25 11L25 10L23 10L23 9L21 9L21 7L22 7L22 6L21 6L21 7L20 7L20 6L19 6L19 7L20 7L20 10L18 10L18 12L17 12L17 13L16 13L16 12L15 12L15 15L14 15L14 13L12 13L12 14L13 14L13 15L14 15L14 16L15 16L15 15L16 15L16 16L17 16L17 17L18 17L18 18L21 18L21 20L20 20L20 19L15 19L15 17L13 17L13 19L12 19L12 20L13 20L13 19L15 19L15 20L14 20L14 22L15 22L15 23L16 23L16 24L15 24L15 25L14 25L14 24L13 24L13 23L12 23L12 21L11 21L11 22L10 22L10 20L11 20L11 19L8 19L8 18L7 18L7 17L8 17L8 16L10 16L10 15L9 15L9 14L10 14L10 13L11 13L11 9L9 9L9 10L10 10L10 12L9 12L9 14L7 14L7 13L6 13L6 14L7 14L7 15L6 15L6 16L7 16L7 17L5 17L5 16L3 16L3 15L2 15L2 16L3 16L3 17L2 17L2 18L3 18L3 17L5 17L5 18L4 18L4 20L3 20L3 19L2 19L2 20L3 20L3 21L4 21L4 20L5 20L5 21L6 21L6 22L5 22L5 23L4 23L4 25L3 25L3 28L4 28L4 26L9 26L9 27L10 27L10 28L9 28L9 30L10 30L10 31L8 31L8 33L6 33L6 32L7 32L7 31L6 31L6 32L3 32L3 30L4 30L4 29L2 29L2 31L1 31L1 32L3 32L3 34L5 34L5 33L6 33L6 34L10 34L10 35L9 35L9 36L7 36L7 37L6 37L6 38L8 38L8 37L9 37L9 36L10 36L10 35L11 35L11 37L14 37L14 38L13 38L13 39L12 39L12 38L11 38L11 39L12 39L12 40L13 40L13 41L11 41L11 40L10 40L10 41L9 41L9 42L7 42L7 41L6 41L6 42L7 42L7 43L6 43L6 44L7 44L7 43L8 43L8 45L5 45L5 46L3 46L3 45L2 45L2 46L1 46L1 47L2 47L2 46L3 46L3 47L5 47L5 46L8 46L8 48L9 48L9 47L10 47L10 46L8 46L8 45L9 45L9 44L10 44L10 45L11 45L11 46L14 46L14 47L15 47L15 46L16 46L16 47L17 47L17 48L16 48L16 50L15 50L15 48L14 48L14 50L15 50L15 51L16 51L16 52L14 52L14 51L13 51L13 50L12 50L12 49L13 49L13 48L12 48L12 47L11 47L11 48L10 48L10 49L9 49L9 50L10 50L10 49L11 49L11 50L12 50L12 51L13 51L13 53L16 53L16 54L17 54L17 55L18 55L18 54L19 54L19 51L22 51L22 49L23 49L23 52L21 52L21 53L20 53L20 55L21 55L21 53L22 53L22 54L23 54L23 52L24 52L24 53L25 53L25 52L26 52L26 51L24 51L24 50L26 50L26 49L25 49L25 48L24 48L24 47L23 47L23 48L21 48L21 47L22 47L22 46L23 46L23 45L24 45L24 44L22 44L22 42L21 42L21 41L20 41L20 40L18 40L18 41L19 41L19 43L18 43L18 42L15 42L15 41L14 41L14 40L15 40L15 38L17 38L17 36L15 36L15 37L14 37L14 34L16 34L16 35L17 35L17 34L18 34L18 36L19 36L19 37L18 37L18 39L19 39L19 37L20 37L20 38L21 38L21 39L22 39L22 41L23 41L23 40L24 40L24 39L25 39L25 41L24 41L24 42L23 42L23 43L26 43L26 45L25 45L25 47L26 47L26 48L27 48L27 47L28 47L28 46L29 46L29 48L31 48L31 47L32 47L32 49L31 49L31 50L33 50L33 52L34 52L34 53L36 53L36 54L39 54L39 53L37 53L37 51L36 51L36 52L34 52L34 50L35 50L35 48L37 48L37 49L36 49L36 50L37 50L37 49L38 49L38 48L39 48L39 49L40 49L40 50L39 50L39 52L40 52L40 54L41 54L41 56L42 56L42 54L43 54L43 52L42 52L42 51L43 51L43 50L44 50L44 51L45 51L45 54L44 54L44 55L46 55L46 56L47 56L47 55L46 55L46 51L47 51L47 52L48 52L48 48L47 48L47 47L49 47L49 46L47 46L47 45L49 45L49 44L51 44L51 42L50 42L50 41L52 41L52 40L50 40L50 41L47 41L47 42L46 42L46 43L47 43L47 42L48 42L48 43L49 43L49 44L43 44L43 43L44 43L44 42L45 42L45 41L46 41L46 38L48 38L48 35L49 35L49 34L50 34L50 33L49 33L49 32L51 32L51 31L49 31L49 32L48 32L48 30L47 30L47 31L46 31L46 32L45 32L45 30L46 30L46 26L49 26L49 25L46 25L46 26L43 26L43 25L42 25L42 26L43 26L43 27L42 27L42 28L43 28L43 29L42 29L42 30L40 30L40 29L38 29L38 30L37 30L37 27L35 27L35 25L34 25L34 27L35 27L35 28L34 28L34 29L36 29L36 30L35 30L35 31L33 31L33 32L31 32L31 33L32 33L32 34L34 34L34 36L36 36L36 35L35 35L35 31L37 31L37 32L36 32L36 33L37 33L37 32L38 32L38 34L39 34L39 31L40 31L40 32L41 32L41 31L44 31L44 33L45 33L45 36L44 36L44 37L42 37L42 38L44 38L44 39L45 39L45 41L44 41L44 40L43 40L43 41L42 41L42 39L39 39L39 38L38 38L38 39L37 39L37 37L38 37L38 36L37 36L37 37L34 37L34 38L33 38L33 36L32 36L32 35L31 35L31 34L30 34L30 35L29 35L29 33L30 33L30 31L28 31L28 33L27 33L27 31L25 31L25 30L26 30L26 28L25 28L25 27L24 27L24 26L25 26L25 25L29 25L29 23L28 23L28 22L25 22L25 19L27 19L27 20L26 20L26 21L27 21L27 20L28 20L28 18L29 18L29 17L27 17L27 18L25 18L25 17L24 17L24 18L23 18L23 14L24 14L24 16L25 16L25 14L26 14L26 16L27 16L27 13L26 13L26 12L28 12L28 13L30 13L30 14L31 14L31 12L32 12L32 13L33 13L33 10L34 10L34 11L35 11L35 12L36 12L36 11L37 11L37 12L38 12L38 11L37 11L37 9L38 9L38 10L39 10L39 9L38 9L38 8L42 8L42 6L41 6L41 7L40 7L40 5L36 5L36 4L35 4L35 3L34 3L34 5L33 5L33 3ZM24 4L24 6L23 6L23 7L24 7L24 9L26 9L26 6L25 6L25 5L26 5L26 4ZM10 5L10 6L11 6L11 5ZM14 5L14 6L13 6L13 7L14 7L14 6L15 6L15 8L13 8L13 10L14 10L14 11L15 11L15 8L16 8L16 11L17 11L17 8L18 8L18 9L19 9L19 8L18 8L18 6L17 6L17 7L16 7L16 6L15 6L15 5ZM27 5L27 8L30 8L30 5ZM24 6L24 7L25 7L25 6ZM28 6L28 7L29 7L29 6ZM32 6L32 8L33 8L33 6ZM34 6L34 9L36 9L36 8L38 8L38 7L39 7L39 6L38 6L38 7L37 7L37 6L36 6L36 7L35 7L35 6ZM45 6L45 7L46 7L46 6ZM48 6L48 9L47 9L47 10L46 10L46 11L47 11L47 12L48 12L48 10L49 10L49 17L50 17L50 15L51 15L51 13L52 13L52 14L53 14L53 13L54 13L54 10L53 10L53 13L52 13L52 12L51 12L51 11L52 11L52 9L55 9L55 8L52 8L52 9L51 9L51 10L50 10L50 8L49 8L49 6ZM56 8L56 9L57 9L57 8ZM40 9L40 10L41 10L41 9ZM21 10L21 11L23 11L23 10ZM35 10L35 11L36 11L36 10ZM55 10L55 11L56 11L56 13L57 13L57 10ZM12 11L12 12L13 12L13 11ZM19 11L19 12L18 12L18 13L19 13L19 14L16 14L16 15L17 15L17 16L19 16L19 17L21 17L21 18L22 18L22 17L21 17L21 16L20 16L20 15L21 15L21 13L19 13L19 12L20 12L20 11ZM24 11L24 13L25 13L25 11ZM30 11L30 12L31 12L31 11ZM22 12L22 13L23 13L23 12ZM50 12L50 13L51 13L51 12ZM45 13L45 14L46 14L46 13ZM39 14L39 15L40 15L40 14ZM54 14L54 15L53 15L53 17L54 17L54 18L52 18L52 19L55 19L55 17L56 17L56 18L57 18L57 15L55 15L55 14ZM28 15L28 16L29 16L29 15ZM31 15L31 16L33 16L33 15ZM11 16L11 17L10 17L10 18L11 18L11 17L12 17L12 16ZM51 16L51 17L52 17L52 16ZM36 17L36 18L37 18L37 17ZM5 18L5 20L6 20L6 21L7 21L7 22L6 22L6 23L5 23L5 24L6 24L6 25L9 25L9 26L11 26L11 25L9 25L9 24L8 24L8 23L7 23L7 22L8 22L8 21L9 21L9 20L8 20L8 21L7 21L7 20L6 20L6 19L7 19L7 18ZM24 18L24 19L25 19L25 18ZM44 18L44 19L45 19L45 18ZM22 19L22 20L21 20L21 21L23 21L23 25L22 25L22 27L23 27L23 25L25 25L25 22L24 22L24 21L23 21L23 19ZM16 20L16 23L17 23L17 22L18 22L18 21L17 21L17 20ZM29 20L29 21L30 21L30 20ZM36 20L36 21L37 21L37 20ZM1 21L1 22L2 22L2 21ZM19 22L19 24L17 24L17 25L20 25L20 26L21 26L21 24L20 24L20 23L21 23L21 22ZM53 22L53 23L54 23L54 22ZM6 23L6 24L7 24L7 23ZM10 23L10 24L12 24L12 26L13 26L13 24L12 24L12 23ZM26 23L26 24L27 24L27 23ZM43 23L43 24L44 24L44 25L45 25L45 24L48 24L48 23ZM32 24L32 25L33 25L33 24ZM15 25L15 26L16 26L16 27L19 27L19 26L16 26L16 25ZM30 25L30 26L31 26L31 25ZM5 27L5 30L8 30L8 27ZM11 27L11 28L12 28L12 29L10 29L10 30L11 30L11 32L13 32L13 31L12 31L12 29L13 29L13 30L14 30L14 29L13 29L13 28L15 28L15 29L16 29L16 30L15 30L15 31L14 31L14 33L13 33L13 34L12 34L12 36L13 36L13 34L14 34L14 33L18 33L18 32L19 32L19 31L17 31L17 32L16 32L16 30L17 30L17 28L15 28L15 27ZM27 27L27 30L30 30L30 27ZM32 27L32 28L33 28L33 27ZM43 27L43 28L44 28L44 29L45 29L45 27ZM47 27L47 28L48 28L48 27ZM49 27L49 30L52 30L52 27ZM56 27L56 28L57 28L57 27ZM6 28L6 29L7 29L7 28ZM18 28L18 29L19 29L19 30L20 30L20 31L21 31L21 30L23 30L23 31L22 31L22 32L20 32L20 33L21 33L21 34L19 34L19 35L21 35L21 34L22 34L22 36L23 36L23 39L24 39L24 37L25 37L25 36L23 36L23 35L24 35L24 34L25 34L25 31L24 31L24 28L23 28L23 29L21 29L21 30L20 30L20 28ZM28 28L28 29L29 29L29 28ZM50 28L50 29L51 29L51 28ZM31 29L31 31L32 31L32 29ZM38 30L38 31L39 31L39 30ZM9 32L9 33L10 33L10 32ZM23 32L23 33L22 33L22 34L23 34L23 33L24 33L24 32ZM42 32L42 33L43 33L43 32ZM46 32L46 33L47 33L47 32ZM52 32L52 34L54 34L54 33L53 33L53 32ZM26 33L26 34L27 34L27 35L26 35L26 37L27 37L27 36L29 36L29 38L26 38L26 39L27 39L27 40L26 40L26 41L25 41L25 42L29 42L29 43L27 43L27 45L26 45L26 46L27 46L27 45L30 45L30 46L31 46L31 45L30 45L30 44L29 44L29 43L32 43L32 42L33 42L33 45L32 45L32 46L33 46L33 45L34 45L34 44L35 44L35 46L34 46L34 47L33 47L33 50L34 50L34 48L35 48L35 46L36 46L36 44L35 44L35 43L34 43L34 42L36 42L36 41L34 41L34 40L35 40L35 39L36 39L36 38L35 38L35 39L33 39L33 38L32 38L32 36L29 36L29 35L28 35L28 34L27 34L27 33ZM55 33L55 34L56 34L56 33ZM41 34L41 35L39 35L39 36L40 36L40 37L41 37L41 36L43 36L43 35L44 35L44 34L43 34L43 35L42 35L42 34ZM47 34L47 35L48 35L48 34ZM1 35L1 38L2 38L2 42L3 42L3 39L4 39L4 38L2 38L2 37L3 37L3 36L2 36L2 35ZM51 35L51 36L50 36L50 37L51 37L51 36L52 36L52 35ZM21 37L21 38L22 38L22 37ZM45 37L45 38L46 38L46 37ZM9 38L9 39L6 39L6 40L9 40L9 39L10 39L10 38ZM30 38L30 39L28 39L28 40L27 40L27 41L28 41L28 40L29 40L29 42L30 42L30 41L31 41L31 40L33 40L33 39L32 39L32 38ZM50 38L50 39L51 39L51 38ZM0 39L0 42L1 42L1 39ZM13 39L13 40L14 40L14 39ZM16 39L16 41L17 41L17 39ZM38 39L38 40L37 40L37 41L40 41L40 40L39 40L39 39ZM47 39L47 40L49 40L49 39ZM56 40L56 41L57 41L57 40ZM10 41L10 42L9 42L9 43L10 43L10 44L11 44L11 45L12 45L12 44L11 44L11 43L12 43L12 42L11 42L11 41ZM13 41L13 42L14 42L14 41ZM41 41L41 42L42 42L42 43L41 43L41 44L40 44L40 42L37 42L37 44L38 44L38 45L37 45L37 47L38 47L38 45L40 45L40 46L39 46L39 47L43 47L43 49L44 49L44 48L45 48L45 45L44 45L44 47L43 47L43 45L42 45L42 43L43 43L43 42L42 42L42 41ZM49 42L49 43L50 43L50 42ZM14 43L14 44L15 44L15 45L14 45L14 46L15 46L15 45L17 45L17 46L18 46L18 47L19 47L19 48L17 48L17 49L19 49L19 50L21 50L21 49L20 49L20 47L21 47L21 46L22 46L22 44L21 44L21 43L19 43L19 45L17 45L17 43ZM38 43L38 44L39 44L39 43ZM20 44L20 46L21 46L21 44ZM46 46L46 47L47 47L47 46ZM11 48L11 49L12 49L12 48ZM23 48L23 49L24 49L24 48ZM41 48L41 49L42 49L42 48ZM46 48L46 49L47 49L47 48ZM27 49L27 52L30 52L30 49ZM49 49L49 52L52 52L52 49ZM28 50L28 51L29 51L29 50ZM45 50L45 51L46 51L46 50ZM50 50L50 51L51 51L51 50ZM17 51L17 52L18 52L18 51ZM31 51L31 53L32 53L32 51ZM40 51L40 52L41 52L41 51ZM54 52L54 53L55 53L55 52ZM17 53L17 54L18 54L18 53ZM41 53L41 54L42 54L42 53ZM47 53L47 54L50 54L50 53ZM13 54L13 56L14 56L14 55L15 55L15 54ZM24 55L24 56L25 56L25 55ZM56 55L56 56L57 56L57 55ZM10 56L10 57L11 57L11 56ZM52 56L52 57L53 57L53 56ZM54 56L54 57L55 57L55 56ZM0 0L0 7L7 7L7 0ZM1 1L1 6L6 6L6 1ZM2 2L2 5L5 5L5 2ZM50 0L50 7L57 7L57 0ZM51 1L51 6L56 6L56 1ZM52 2L52 5L55 5L55 2ZM0 50L0 57L7 57L7 50ZM1 51L1 56L6 56L6 51ZM2 52L2 55L5 55L5 52Z" fill="#000000"/></g></g></svg>
