<?xml version="1.0" encoding="UTF-8"?>
<svg xmlns="http://www.w3.org/2000/svg" version="1.1" width="300" height="300" viewBox="0 0 300 300"><rect x="0" y="0" width="300" height="300" fill="#fefefe"/><g transform="scale(4.615)"><g transform="translate(4,4)"><path fill-rule="evenodd" d="M9 0L9 1L8 1L8 2L9 2L9 3L8 3L8 4L9 4L9 5L8 5L8 7L9 7L9 8L6 8L6 9L5 9L5 8L0 8L0 9L1 9L1 11L0 11L0 12L2 12L2 14L1 14L1 13L0 13L0 16L3 16L3 15L2 15L2 14L3 14L3 13L5 13L5 12L6 12L6 13L7 13L7 14L6 14L6 15L7 15L7 16L5 16L5 14L4 14L4 16L5 16L5 17L4 17L4 18L6 18L6 19L8 19L8 20L6 20L6 21L7 21L7 22L6 22L6 23L7 23L7 22L9 22L9 21L8 21L8 20L9 20L9 19L10 19L10 20L11 20L11 21L10 21L10 22L11 22L11 23L10 23L10 24L11 24L11 23L12 23L12 25L10 25L10 26L8 26L8 25L9 25L9 24L8 24L8 25L7 25L7 24L6 24L6 25L7 25L7 26L3 26L3 27L2 27L2 29L4 29L4 31L3 31L3 30L0 30L0 31L1 31L1 33L0 33L0 34L1 34L1 33L2 33L2 31L3 31L3 34L5 34L5 35L3 35L3 36L5 36L5 35L7 35L7 34L8 34L8 36L6 36L6 37L5 37L5 38L4 38L4 39L5 39L5 40L3 40L3 39L1 39L1 40L0 40L0 44L1 44L1 41L2 41L2 42L3 42L3 43L2 43L2 44L3 44L3 45L2 45L2 47L1 47L1 45L0 45L0 48L5 48L5 47L7 47L7 46L5 46L5 47L3 47L3 46L4 46L4 45L5 45L5 44L6 44L6 45L7 45L7 44L6 44L6 43L7 43L7 42L6 42L6 41L9 41L9 40L10 40L10 43L8 43L8 44L9 44L9 45L8 45L8 48L6 48L6 49L8 49L8 51L10 51L10 52L8 52L8 57L11 57L11 56L9 56L9 54L10 54L10 55L11 55L11 53L10 53L10 52L12 52L12 51L13 51L13 50L15 50L15 51L14 51L14 52L13 52L13 53L12 53L12 57L13 57L13 53L14 53L14 54L15 54L15 55L16 55L16 56L15 56L15 57L16 57L16 56L17 56L17 57L19 57L19 55L20 55L20 54L19 54L19 53L20 53L20 52L22 52L22 51L18 51L18 52L17 52L17 53L16 53L16 52L15 52L15 51L16 51L16 50L15 50L15 49L19 49L19 50L20 50L20 49L19 49L19 48L17 48L17 46L18 46L18 47L19 47L19 46L20 46L20 48L21 48L21 47L24 47L24 48L23 48L23 49L21 49L21 50L25 50L25 51L26 51L26 53L25 53L25 52L24 52L24 53L21 53L21 56L24 56L24 57L26 57L26 56L24 56L24 55L23 55L23 54L24 54L24 53L25 53L25 55L26 55L26 54L30 54L30 53L31 53L31 51L32 51L32 52L33 52L33 53L32 53L32 54L31 54L31 56L30 56L30 55L29 55L29 56L27 56L27 57L29 57L29 56L30 56L30 57L31 57L31 56L35 56L35 57L39 57L39 56L40 56L40 55L41 55L41 56L42 56L42 55L44 55L44 54L45 54L45 53L47 53L47 50L48 50L48 54L47 54L47 56L46 56L46 55L45 55L45 57L47 57L47 56L50 56L50 57L52 57L52 55L51 55L51 53L52 53L52 54L53 54L53 55L54 55L54 56L53 56L53 57L54 57L54 56L55 56L55 57L56 57L56 56L55 56L55 52L56 52L56 53L57 53L57 52L56 52L56 50L57 50L57 48L56 48L56 46L57 46L57 45L56 45L56 44L57 44L57 43L56 43L56 42L55 42L55 39L57 39L57 36L56 36L56 35L53 35L53 34L52 34L52 33L53 33L53 32L54 32L54 34L57 34L57 32L56 32L56 30L57 30L57 27L56 27L56 26L57 26L57 25L56 25L56 22L57 22L57 21L56 21L56 22L55 22L55 23L54 23L54 24L53 24L53 26L52 26L52 25L51 25L51 24L52 24L52 23L53 23L53 22L54 22L54 21L51 21L51 20L52 20L52 19L53 19L53 20L56 20L56 19L55 19L55 18L57 18L57 17L56 17L56 16L57 16L57 15L56 15L56 14L57 14L57 12L55 12L55 11L56 11L56 10L54 10L54 11L53 11L53 9L54 9L54 8L53 8L53 9L52 9L52 8L51 8L51 10L52 10L52 11L50 11L50 8L46 8L46 9L47 9L47 10L46 10L46 11L45 11L45 10L44 10L44 8L45 8L45 6L44 6L44 3L47 3L47 5L46 5L46 4L45 4L45 5L46 5L46 7L47 7L47 5L48 5L48 0L46 0L46 1L45 1L45 2L44 2L44 3L41 3L41 2L43 2L43 0L41 0L41 1L40 1L40 0L39 0L39 1L38 1L38 0L37 0L37 1L38 1L38 3L41 3L41 4L40 4L40 5L39 5L39 6L38 6L38 7L37 7L37 5L38 5L38 4L37 4L37 3L36 3L36 0L35 0L35 1L33 1L33 2L32 2L32 0L27 0L27 1L26 1L26 0L23 0L23 2L22 2L22 3L23 3L23 4L19 4L19 1L20 1L20 2L21 2L21 1L22 1L22 0L21 0L21 1L20 1L20 0L17 0L17 4L18 4L18 5L17 5L17 6L16 6L16 7L15 7L15 6L14 6L14 5L13 5L13 6L12 6L12 5L11 5L11 4L9 4L9 3L10 3L10 1L11 1L11 0ZM12 0L12 1L14 1L14 2L11 2L11 3L12 3L12 4L14 4L14 2L15 2L15 1L14 1L14 0ZM25 1L25 2L23 2L23 3L26 3L26 4L25 4L25 8L26 8L26 4L31 4L31 8L32 8L32 10L31 10L31 11L29 11L29 9L28 9L28 10L27 10L27 11L26 11L26 12L25 12L25 10L23 10L23 11L24 11L24 12L23 12L23 13L22 13L22 12L21 12L21 13L20 13L20 12L19 12L19 13L20 13L20 14L21 14L21 13L22 13L22 14L23 14L23 15L19 15L19 14L17 14L17 13L18 13L18 12L17 12L17 11L18 11L18 10L17 10L17 9L16 9L16 8L17 8L17 7L18 7L18 8L19 8L19 9L20 9L20 11L22 11L22 10L21 10L21 9L24 9L24 6L23 6L23 5L24 5L24 4L23 4L23 5L21 5L21 7L22 7L22 8L19 8L19 7L20 7L20 5L18 5L18 6L17 6L17 7L16 7L16 8L15 8L15 7L14 7L14 6L13 6L13 7L12 7L12 6L11 6L11 5L10 5L10 6L9 6L9 7L10 7L10 8L9 8L9 9L8 9L8 10L7 10L7 9L6 9L6 10L7 10L7 11L6 11L6 12L7 12L7 11L8 11L8 13L9 13L9 14L7 14L7 15L8 15L8 16L7 16L7 17L6 17L6 18L7 18L7 17L8 17L8 16L9 16L9 14L10 14L10 17L9 17L9 18L8 18L8 19L9 19L9 18L11 18L11 17L12 17L12 19L14 19L14 20L13 20L13 21L11 21L11 22L13 22L13 23L14 23L14 24L13 24L13 25L12 25L12 26L10 26L10 27L9 27L9 28L10 28L10 30L9 30L9 31L8 31L8 32L7 32L7 31L4 31L4 33L5 33L5 32L7 32L7 33L6 33L6 34L7 34L7 33L8 33L8 34L11 34L11 33L12 33L12 34L13 34L13 36L11 36L11 37L14 37L14 38L12 38L12 40L11 40L11 42L12 42L12 43L11 43L11 44L10 44L10 45L9 45L9 48L10 48L10 51L12 51L12 50L11 50L11 48L14 48L14 49L15 49L15 47L13 47L13 46L10 46L10 45L11 45L11 44L13 44L13 45L14 45L14 44L13 44L13 41L12 41L12 40L14 40L14 42L15 42L15 46L17 46L17 45L18 45L18 44L17 44L17 45L16 45L16 42L17 42L17 43L18 43L18 42L19 42L19 43L20 43L20 44L19 44L19 45L20 45L20 46L21 46L21 45L22 45L22 46L24 46L24 45L25 45L25 47L26 47L26 48L24 48L24 49L26 49L26 48L28 48L28 47L26 47L26 45L27 45L27 46L29 46L29 44L30 44L30 43L29 43L29 44L28 44L28 43L27 43L27 42L29 42L29 41L31 41L31 42L32 42L32 43L33 43L33 44L32 44L32 46L31 46L31 45L30 45L30 46L31 46L31 47L33 47L33 46L35 46L35 48L36 48L36 47L37 47L37 46L35 46L35 45L34 45L34 43L35 43L35 44L36 44L36 43L37 43L37 42L35 42L35 40L38 40L38 42L39 42L39 45L38 45L38 46L41 46L41 48L39 48L39 47L38 47L38 48L37 48L37 49L38 49L38 50L36 50L36 49L34 49L34 48L32 48L32 49L31 49L31 50L32 50L32 51L35 51L35 50L36 50L36 52L37 52L37 51L38 51L38 54L40 54L40 53L42 53L42 52L43 52L43 51L42 51L42 50L41 50L41 48L42 48L42 49L43 49L43 50L44 50L44 49L45 49L45 50L47 50L47 49L48 49L48 48L49 48L49 47L51 47L51 46L53 46L53 47L55 47L55 46L56 46L56 45L55 45L55 44L54 44L54 45L55 45L55 46L53 46L53 45L52 45L52 44L53 44L53 43L54 43L54 42L53 42L53 41L54 41L54 40L53 40L53 39L55 39L55 38L54 38L54 37L53 37L53 35L52 35L52 34L50 34L50 32L51 32L51 33L52 33L52 32L53 32L53 31L54 31L54 30L53 30L53 31L52 31L52 32L51 32L51 31L48 31L48 27L47 27L47 25L50 25L50 26L51 26L51 25L50 25L50 24L51 24L51 23L50 23L50 22L51 22L51 21L49 21L49 19L52 19L52 18L55 18L55 17L53 17L53 15L54 15L54 14L53 14L53 15L52 15L52 16L51 16L51 15L50 15L50 14L51 14L51 12L50 12L50 11L49 11L49 10L48 10L48 11L47 11L47 12L45 12L45 11L44 11L44 13L43 13L43 11L41 11L41 9L43 9L43 7L44 7L44 6L43 6L43 5L40 5L40 6L39 6L39 7L40 7L40 8L38 8L38 10L39 10L39 13L38 13L38 14L37 14L37 15L35 15L35 16L33 16L33 15L31 15L31 14L32 14L32 13L33 13L33 14L36 14L36 13L35 13L35 12L37 12L37 11L36 11L36 10L37 10L37 9L35 9L35 8L37 8L37 7L36 7L36 5L37 5L37 4L36 4L36 5L35 5L35 4L34 4L34 3L35 3L35 2L33 2L33 3L32 3L32 2L31 2L31 1L30 1L30 2L28 2L28 1L27 1L27 2L26 2L26 1ZM46 1L46 2L47 2L47 1ZM31 3L31 4L32 4L32 5L34 5L34 7L33 7L33 6L32 6L32 7L33 7L33 9L34 9L34 8L35 8L35 5L34 5L34 4L32 4L32 3ZM15 4L15 5L16 5L16 4ZM27 5L27 8L30 8L30 5ZM10 6L10 7L11 7L11 8L12 8L12 7L11 7L11 6ZM18 6L18 7L19 7L19 6ZM22 6L22 7L23 7L23 6ZM28 6L28 7L29 7L29 6ZM40 6L40 7L41 7L41 6ZM42 6L42 7L43 7L43 6ZM48 6L48 7L49 7L49 6ZM13 8L13 9L12 9L12 11L10 11L10 10L11 10L11 9L9 9L9 11L10 11L10 12L9 12L9 13L10 13L10 14L11 14L11 16L12 16L12 17L13 17L13 18L14 18L14 16L16 16L16 17L18 17L18 18L15 18L15 21L16 21L16 22L15 22L15 23L16 23L16 24L17 24L17 25L18 25L18 26L17 26L17 27L18 27L18 26L20 26L20 27L22 27L22 26L23 26L23 27L25 27L25 28L26 28L26 29L23 29L23 30L25 30L25 31L20 31L20 32L19 32L19 31L17 31L17 30L16 30L16 29L18 29L18 30L20 30L20 29L18 29L18 28L16 28L16 29L15 29L15 27L16 27L16 26L15 26L15 24L14 24L14 26L13 26L13 27L12 27L12 28L11 28L11 27L10 27L10 28L11 28L11 30L10 30L10 31L9 31L9 32L8 32L8 33L9 33L9 32L12 32L12 31L13 31L13 30L15 30L15 31L14 31L14 33L13 33L13 34L15 34L15 35L14 35L14 36L15 36L15 35L16 35L16 36L17 36L17 42L18 42L18 41L19 41L19 42L20 42L20 40L21 40L21 39L24 39L24 40L23 40L23 42L22 42L22 43L21 43L21 44L20 44L20 45L21 45L21 44L22 44L22 45L24 45L24 44L23 44L23 43L25 43L25 44L27 44L27 45L28 45L28 44L27 44L27 43L25 43L25 41L24 41L24 40L25 40L25 36L26 36L26 40L27 40L27 41L26 41L26 42L27 42L27 41L28 41L28 39L27 39L27 38L28 38L28 37L27 37L27 36L26 36L26 35L27 35L27 34L25 34L25 33L26 33L26 32L28 32L28 33L29 33L29 34L30 34L30 36L29 36L29 37L31 37L31 38L29 38L29 39L33 39L33 40L35 40L35 39L37 39L37 38L38 38L38 37L40 37L40 38L41 38L41 42L42 42L42 44L41 44L41 43L40 43L40 44L41 44L41 46L43 46L43 47L42 47L42 48L43 48L43 49L44 49L44 48L46 48L46 49L47 49L47 48L48 48L48 47L49 47L49 46L50 46L50 45L51 45L51 43L53 43L53 42L51 42L51 41L53 41L53 40L51 40L51 39L52 39L52 38L51 38L51 39L50 39L50 37L49 37L49 36L48 36L48 35L50 35L50 36L51 36L51 37L52 37L52 35L50 35L50 34L48 34L48 35L47 35L47 34L45 34L45 33L47 33L47 32L48 32L48 33L49 33L49 32L48 32L48 31L47 31L47 30L46 30L46 29L47 29L47 27L46 27L46 28L45 28L45 26L44 26L44 27L43 27L43 28L45 28L45 31L43 31L43 32L41 32L41 33L39 33L39 34L40 34L40 35L39 35L39 36L38 36L38 37L37 37L37 36L35 36L35 34L37 34L37 35L38 35L38 33L37 33L37 32L35 32L35 31L36 31L36 29L38 29L38 28L40 28L40 27L36 27L36 26L34 26L34 27L33 27L33 26L32 26L32 24L33 24L33 25L37 25L37 26L38 26L38 24L39 24L39 25L40 25L40 24L41 24L41 28L42 28L42 26L43 26L43 25L44 25L44 24L43 24L43 23L44 23L44 20L47 20L47 22L46 22L46 21L45 21L45 22L46 22L46 23L45 23L45 25L46 25L46 24L48 24L48 23L49 23L49 24L50 24L50 23L49 23L49 21L48 21L48 20L47 20L47 19L46 19L46 18L44 18L44 15L42 15L42 16L41 16L41 14L43 14L43 13L41 13L41 14L40 14L40 15L39 15L39 14L38 14L38 15L39 15L39 16L38 16L38 17L37 17L37 16L35 16L35 17L37 17L37 18L38 18L38 17L39 17L39 19L37 19L37 20L36 20L36 19L35 19L35 20L34 20L34 19L32 19L32 16L31 16L31 15L30 15L30 14L31 14L31 13L32 13L32 12L33 12L33 13L34 13L34 12L33 12L33 10L32 10L32 12L31 12L31 13L30 13L30 14L29 14L29 13L28 13L28 12L29 12L29 11L27 11L27 12L26 12L26 13L28 13L28 14L29 14L29 16L28 16L28 15L27 15L27 16L28 16L28 17L26 17L26 15L24 15L24 16L25 16L25 17L22 17L22 16L20 16L20 17L19 17L19 15L18 15L18 16L16 16L16 13L17 13L17 12L16 12L16 11L15 11L15 10L16 10L16 9L15 9L15 10L13 10L13 9L14 9L14 8ZM55 8L55 9L56 9L56 8ZM2 9L2 12L3 12L3 11L4 11L4 9ZM13 11L13 12L11 12L11 14L12 14L12 13L13 13L13 14L15 14L15 13L16 13L16 12L15 12L15 13L13 13L13 12L14 12L14 11ZM40 11L40 12L41 12L41 11ZM24 12L24 13L23 13L23 14L25 14L25 12ZM49 12L49 13L47 13L47 14L45 14L45 13L44 13L44 14L45 14L45 17L47 17L47 18L50 18L50 17L47 17L47 16L48 16L48 15L49 15L49 16L50 16L50 15L49 15L49 14L50 14L50 12ZM52 12L52 13L53 13L53 12ZM54 12L54 13L55 13L55 14L56 14L56 13L55 13L55 12ZM13 15L13 16L14 16L14 15ZM39 16L39 17L41 17L41 16ZM42 16L42 17L43 17L43 16ZM0 17L0 18L1 18L1 19L0 19L0 20L1 20L1 22L2 22L2 21L3 21L3 22L4 22L4 23L3 23L3 24L2 24L2 25L0 25L0 26L2 26L2 25L5 25L5 22L4 22L4 20L5 20L5 19L3 19L3 18L1 18L1 17ZM20 17L20 18L21 18L21 19L19 19L19 20L20 20L20 21L19 21L19 22L20 22L20 23L18 23L18 24L19 24L19 25L20 25L20 26L21 26L21 25L24 25L24 24L25 24L25 25L26 25L26 26L25 26L25 27L26 27L26 26L27 26L27 25L28 25L28 26L29 26L29 24L32 24L32 23L33 23L33 22L34 22L34 23L35 23L35 21L34 21L34 20L32 20L32 21L31 21L31 22L30 22L30 23L29 23L29 21L30 21L30 20L31 20L31 18L30 18L30 19L28 19L28 18L27 18L27 19L26 19L26 17L25 17L25 19L26 19L26 20L25 20L25 21L24 21L24 20L23 20L23 19L24 19L24 18L23 18L23 19L22 19L22 17ZM41 18L41 19L42 19L42 20L44 20L44 18L43 18L43 19L42 19L42 18ZM1 19L1 20L2 20L2 19ZM21 19L21 20L22 20L22 19ZM27 19L27 20L28 20L28 19ZM16 20L16 21L17 21L17 20ZM38 20L38 21L37 21L37 22L39 22L39 24L40 24L40 22L39 22L39 21L41 21L41 20ZM13 21L13 22L14 22L14 21ZM22 21L22 22L21 22L21 24L20 24L20 25L21 25L21 24L22 24L22 23L23 23L23 24L24 24L24 23L23 23L23 22L24 22L24 21ZM25 21L25 22L26 22L26 23L25 23L25 24L29 24L29 23L27 23L27 22L28 22L28 21ZM0 23L0 24L1 24L1 23ZM37 23L37 24L38 24L38 23ZM54 24L54 25L55 25L55 26L56 26L56 25L55 25L55 24ZM14 26L14 27L13 27L13 28L14 28L14 27L15 27L15 26ZM31 26L31 28L32 28L32 29L31 29L31 31L30 31L30 32L29 32L29 33L31 33L31 35L32 35L32 33L33 33L33 34L35 34L35 33L33 33L33 31L32 31L32 29L33 29L33 30L35 30L35 28L36 28L36 27L35 27L35 28L33 28L33 27L32 27L32 26ZM53 26L53 27L54 27L54 26ZM5 27L5 30L8 30L8 27ZM27 27L27 30L30 30L30 27ZM49 27L49 30L52 30L52 27ZM55 27L55 28L54 28L54 29L56 29L56 27ZM0 28L0 29L1 29L1 28ZM6 28L6 29L7 29L7 28ZM21 28L21 29L22 29L22 28ZM28 28L28 29L29 29L29 28ZM50 28L50 29L51 29L51 28ZM39 29L39 30L38 30L38 32L39 32L39 31L41 31L41 30L44 30L44 29ZM25 31L25 32L21 32L21 33L20 33L20 34L19 34L19 33L18 33L18 34L19 34L19 37L18 37L18 39L20 39L20 38L19 38L19 37L23 37L23 38L24 38L24 37L23 37L23 36L24 36L24 34L23 34L23 33L25 33L25 32L26 32L26 31ZM31 31L31 33L32 33L32 31ZM45 31L45 32L43 32L43 33L45 33L45 32L47 32L47 31ZM15 32L15 34L17 34L17 32ZM55 32L55 33L56 33L56 32ZM21 33L21 34L20 34L20 36L21 36L21 35L22 35L22 36L23 36L23 35L22 35L22 33ZM42 34L42 35L41 35L41 36L40 36L40 37L41 37L41 36L44 36L44 37L43 37L43 38L42 38L42 39L43 39L43 40L42 40L42 41L43 41L43 42L44 42L44 41L46 41L46 42L45 42L45 43L44 43L44 45L45 45L45 46L44 46L44 47L43 47L43 48L44 48L44 47L45 47L45 46L47 46L47 47L46 47L46 48L47 48L47 47L48 47L48 45L49 45L49 44L50 44L50 43L51 43L51 42L50 42L50 43L48 43L48 44L47 44L47 45L45 45L45 44L46 44L46 42L48 42L48 41L49 41L49 39L47 39L47 37L48 37L48 38L49 38L49 37L48 37L48 36L47 36L47 35L46 35L46 37L45 37L45 36L44 36L44 35L45 35L45 34ZM0 35L0 38L1 38L1 37L2 37L2 38L3 38L3 37L2 37L2 35ZM9 35L9 36L8 36L8 38L7 38L7 37L6 37L6 38L5 38L5 39L6 39L6 40L9 40L9 39L10 39L10 37L9 37L9 36L10 36L10 35ZM33 35L33 36L32 36L32 37L33 37L33 39L34 39L34 38L35 38L35 37L33 37L33 36L34 36L34 35ZM15 37L15 38L14 38L14 40L15 40L15 41L16 41L16 39L15 39L15 38L16 38L16 37ZM44 37L44 38L45 38L45 37ZM6 38L6 39L7 39L7 38ZM8 38L8 39L9 39L9 38ZM38 39L38 40L39 40L39 39ZM44 39L44 40L43 40L43 41L44 41L44 40L47 40L47 39ZM2 40L2 41L3 41L3 42L4 42L4 41L3 41L3 40ZM31 40L31 41L32 41L32 42L33 42L33 43L34 43L34 42L33 42L33 41L32 41L32 40ZM39 41L39 42L40 42L40 41ZM5 42L5 43L6 43L6 42ZM3 43L3 44L4 44L4 43ZM29 47L29 48L30 48L30 47ZM38 48L38 49L39 49L39 48ZM55 48L55 50L54 50L54 51L55 51L55 50L56 50L56 48ZM27 49L27 52L30 52L30 49ZM32 49L32 50L33 50L33 49ZM49 49L49 52L52 52L52 49ZM28 50L28 51L29 51L29 50ZM38 50L38 51L40 51L40 52L41 52L41 50ZM50 50L50 51L51 51L51 50ZM44 52L44 53L43 53L43 54L44 54L44 53L45 53L45 52ZM53 52L53 53L54 53L54 52ZM15 53L15 54L16 54L16 53ZM33 53L33 55L35 55L35 56L36 56L36 54L35 54L35 53ZM17 54L17 55L19 55L19 54ZM37 55L37 56L39 56L39 55ZM50 55L50 56L51 56L51 55ZM43 56L43 57L44 57L44 56ZM0 0L0 7L7 7L7 0ZM1 1L1 6L6 6L6 1ZM2 2L2 5L5 5L5 2ZM50 0L50 7L57 7L57 0ZM51 1L51 6L56 6L56 1ZM52 2L52 5L55 5L55 2ZM0 50L0 57L7 57L7 50ZM1 51L1 56L6 56L6 51ZM2 52L2 55L5 55L5 52Z" fill="#000000"/></g></g></svg>
