<?xml version="1.0" encoding="UTF-8"?>
<svg xmlns="http://www.w3.org/2000/svg" version="1.1" width="300" height="300" viewBox="0 0 300 300"><rect x="0" y="0" width="300" height="300" fill="#fefefe"/><g transform="scale(4.615)"><g transform="translate(4,4)"><path fill-rule="evenodd" d="M10 0L10 2L9 2L9 1L8 1L8 2L9 2L9 3L8 3L8 4L9 4L9 3L10 3L10 2L11 2L11 4L10 4L10 7L9 7L9 5L8 5L8 7L9 7L9 8L6 8L6 9L8 9L8 10L9 10L9 12L8 12L8 11L7 11L7 10L5 10L5 8L0 8L0 9L2 9L2 10L5 10L5 11L4 11L4 12L5 12L5 13L8 13L8 14L5 14L5 15L8 15L8 16L5 16L5 17L4 17L4 13L2 13L2 11L1 11L1 10L0 10L0 11L1 11L1 14L0 14L0 15L1 15L1 17L0 17L0 23L1 23L1 25L4 25L4 30L3 30L3 26L0 26L0 29L1 29L1 30L3 30L3 32L2 32L2 31L0 31L0 33L3 33L3 34L1 34L1 37L0 37L0 38L1 38L1 39L2 39L2 40L0 40L0 41L4 41L4 42L5 42L5 41L7 41L7 42L6 42L6 43L8 43L8 44L9 44L9 45L7 45L7 44L6 44L6 45L7 45L7 46L5 46L5 47L3 47L3 46L4 46L4 45L3 45L3 43L2 43L2 44L1 44L1 42L0 42L0 44L1 44L1 45L0 45L0 48L5 48L5 47L7 47L7 46L8 46L8 47L9 47L9 49L8 49L8 51L9 51L9 52L8 52L8 57L9 57L9 56L10 56L10 55L12 55L12 56L15 56L15 55L16 55L16 56L17 56L17 57L19 57L19 56L18 56L18 55L17 55L17 54L19 54L19 55L20 55L20 54L19 54L19 53L20 53L20 52L21 52L21 51L18 51L18 52L17 52L17 53L16 53L16 52L15 52L15 53L14 53L14 50L15 50L15 48L17 48L17 50L16 50L16 51L17 51L17 50L20 50L20 49L21 49L21 50L25 50L25 51L26 51L26 52L24 52L24 53L21 53L21 54L22 54L22 55L23 55L23 57L26 57L26 56L24 56L24 55L23 55L23 54L24 54L24 53L26 53L26 54L25 54L25 55L26 55L26 54L30 54L30 53L31 53L31 48L33 48L33 49L32 49L32 50L33 50L33 49L36 49L36 50L35 50L35 54L36 54L36 56L35 56L35 55L34 55L34 54L33 54L33 53L34 53L34 52L33 52L33 51L32 51L32 52L33 52L33 53L32 53L32 54L31 54L31 56L30 56L30 55L29 55L29 56L27 56L27 57L29 57L29 56L30 56L30 57L31 57L31 56L35 56L35 57L39 57L39 56L41 56L41 57L44 57L44 56L42 56L42 55L44 55L44 54L45 54L45 53L44 53L44 52L45 52L45 51L43 51L43 49L44 49L44 48L43 48L43 47L44 47L44 46L45 46L45 50L46 50L46 53L47 53L47 55L49 55L49 56L50 56L50 57L52 57L52 55L51 55L51 53L52 53L52 54L53 54L53 57L54 57L54 56L55 56L55 57L56 57L56 56L55 56L55 53L56 53L56 52L57 52L57 51L56 51L56 50L55 50L55 48L56 48L56 49L57 49L57 48L56 48L56 46L57 46L57 45L56 45L56 44L57 44L57 43L56 43L56 42L55 42L55 39L57 39L57 37L56 37L56 33L57 33L57 32L56 32L56 30L57 30L57 27L56 27L56 26L57 26L57 25L56 25L56 22L57 22L57 20L56 20L56 18L57 18L57 17L56 17L56 16L57 16L57 15L56 15L56 14L57 14L57 12L55 12L55 11L56 11L56 10L54 10L54 11L53 11L53 9L54 9L54 8L53 8L53 9L52 9L52 8L51 8L51 10L49 10L49 9L50 9L50 8L49 8L49 9L48 9L48 8L47 8L47 5L48 5L48 0L46 0L46 1L45 1L45 2L44 2L44 3L43 3L43 4L40 4L40 5L39 5L39 6L38 6L38 8L35 8L35 5L36 5L36 7L37 7L37 5L38 5L38 4L39 4L39 3L41 3L41 2L43 2L43 0L41 0L41 1L40 1L40 0L39 0L39 1L38 1L38 0L37 0L37 1L38 1L38 2L37 2L37 3L36 3L36 0L35 0L35 1L33 1L33 0L32 0L32 3L31 3L31 2L28 2L28 3L29 3L29 4L26 4L26 3L23 3L23 4L19 4L19 3L21 3L21 2L22 2L22 0L21 0L21 1L20 1L20 0L17 0L17 1L16 1L16 2L15 2L15 1L14 1L14 0L12 0L12 2L11 2L11 0ZM23 0L23 2L27 2L27 1L26 1L26 0ZM29 0L29 1L31 1L31 0ZM13 1L13 2L12 2L12 4L13 4L13 5L15 5L15 7L14 7L14 6L13 6L13 7L12 7L12 6L11 6L11 7L10 7L10 8L11 8L11 10L10 10L10 9L9 9L9 10L10 10L10 11L11 11L11 10L12 10L12 9L13 9L13 10L17 10L17 11L18 11L18 10L17 10L17 9L15 9L15 7L16 7L16 8L17 8L17 7L18 7L18 6L19 6L19 7L20 7L20 5L18 5L18 6L17 6L17 2L16 2L16 3L15 3L15 2L14 2L14 1ZM18 1L18 2L20 2L20 1ZM46 1L46 2L47 2L47 1ZM13 2L13 4L14 4L14 2ZM33 2L33 3L32 3L32 4L31 4L31 3L30 3L30 4L31 4L31 8L32 8L32 10L31 10L31 11L30 11L30 10L29 10L29 9L28 9L28 11L29 11L29 12L28 12L28 13L26 13L26 12L27 12L27 11L26 11L26 12L25 12L25 10L23 10L23 12L24 12L24 13L22 13L22 12L21 12L21 11L22 11L22 10L21 10L21 9L25 9L25 8L26 8L26 4L25 4L25 8L24 8L24 6L23 6L23 8L19 8L19 9L20 9L20 10L21 10L21 11L19 11L19 13L20 13L20 14L19 14L19 15L17 15L17 13L18 13L18 12L17 12L17 13L16 13L16 12L15 12L15 13L13 13L13 12L14 12L14 11L12 11L12 12L11 12L11 13L10 13L10 14L11 14L11 15L10 15L10 18L13 18L13 19L12 19L12 20L11 20L11 21L10 21L10 20L7 20L7 19L6 19L6 18L7 18L7 17L5 17L5 18L4 18L4 17L3 17L3 14L1 14L1 15L2 15L2 17L1 17L1 19L2 19L2 20L1 20L1 22L2 22L2 23L3 23L3 24L8 24L8 26L9 26L9 29L10 29L10 30L14 30L14 31L13 31L13 32L14 32L14 33L16 33L16 34L15 34L15 35L14 35L14 34L13 34L13 33L12 33L12 31L11 31L11 32L10 32L10 31L9 31L9 32L7 32L7 31L5 31L5 32L3 32L3 33L5 33L5 32L7 32L7 33L6 33L6 34L7 34L7 35L6 35L6 36L7 36L7 37L6 37L6 38L5 38L5 36L4 36L4 38L3 38L3 37L1 37L1 38L2 38L2 39L3 39L3 40L4 40L4 41L5 41L5 40L4 40L4 39L6 39L6 40L7 40L7 39L8 39L8 40L9 40L9 42L8 42L8 43L10 43L10 41L11 41L11 40L10 40L10 39L11 39L11 36L12 36L12 34L13 34L13 35L14 35L14 37L13 37L13 39L12 39L12 41L13 41L13 42L12 42L12 44L11 44L11 45L10 45L10 46L11 46L11 47L10 47L10 49L9 49L9 50L11 50L11 52L12 52L12 51L13 51L13 50L14 50L14 49L12 49L12 48L11 48L11 47L13 47L13 46L11 46L11 45L13 45L13 43L15 43L15 42L17 42L17 43L18 43L18 42L19 42L19 43L20 43L20 44L19 44L19 45L20 45L20 46L19 46L19 47L18 47L18 46L17 46L17 45L18 45L18 44L17 44L17 45L16 45L16 44L15 44L15 45L14 45L14 46L17 46L17 48L19 48L19 49L20 49L20 48L19 48L19 47L20 47L20 46L21 46L21 45L22 45L22 46L23 46L23 47L21 47L21 49L23 49L23 48L24 48L24 49L25 49L25 50L26 50L26 49L25 49L25 47L26 47L26 48L30 48L30 47L29 47L29 45L30 45L30 46L31 46L31 47L32 47L32 46L35 46L35 47L34 47L34 48L36 48L36 47L37 47L37 46L36 46L36 45L34 45L34 43L35 43L35 44L36 44L36 43L37 43L37 42L35 42L35 40L38 40L38 42L39 42L39 43L40 43L40 42L41 42L41 44L39 44L39 45L38 45L38 46L39 46L39 45L41 45L41 44L42 44L42 42L41 42L41 41L44 41L44 42L43 42L43 44L44 44L44 45L45 45L45 46L47 46L47 47L46 47L46 48L47 48L47 49L46 49L46 50L47 50L47 53L48 53L48 50L47 50L47 49L48 49L48 48L49 48L49 47L51 47L51 46L49 46L49 47L48 47L48 45L50 45L50 43L51 43L51 45L52 45L52 46L53 46L53 47L52 47L52 48L53 48L53 47L55 47L55 46L56 46L56 45L55 45L55 44L54 44L54 45L52 45L52 44L53 44L53 43L54 43L54 42L53 42L53 41L51 41L51 42L50 42L50 43L49 43L49 42L48 42L48 41L49 41L49 40L50 40L50 39L51 39L51 38L53 38L53 39L55 39L55 37L53 37L53 35L55 35L55 34L54 34L54 33L56 33L56 32L53 32L53 31L51 31L51 33L52 33L52 34L50 34L50 31L48 31L48 30L47 30L47 29L48 29L48 27L47 27L47 25L45 25L45 23L46 23L46 22L47 22L47 24L48 24L48 25L49 25L49 24L50 24L50 26L51 26L51 25L52 25L52 26L53 26L53 27L54 27L54 26L53 26L53 23L55 23L55 22L56 22L56 20L53 20L53 19L52 19L52 18L55 18L55 17L53 17L53 15L55 15L55 14L56 14L56 13L55 13L55 12L54 12L54 13L53 13L53 12L52 12L52 13L53 13L53 15L52 15L52 16L51 16L51 15L50 15L50 14L51 14L51 12L50 12L50 11L47 11L47 12L45 12L45 11L46 11L46 10L47 10L47 9L46 9L46 8L44 8L44 6L45 6L45 7L46 7L46 6L45 6L45 4L46 4L46 5L47 5L47 3L44 3L44 6L43 6L43 7L42 7L42 6L41 6L41 5L40 5L40 6L39 6L39 8L38 8L38 11L39 11L39 13L38 13L38 14L37 14L37 13L35 13L35 12L36 12L36 10L37 10L37 9L35 9L35 8L34 8L34 9L33 9L33 7L34 7L34 6L33 6L33 5L35 5L35 4L33 4L33 3L34 3L34 2ZM38 2L38 3L39 3L39 2ZM15 4L15 5L16 5L16 4ZM23 4L23 5L24 5L24 4ZM32 4L32 5L33 5L33 4ZM36 4L36 5L37 5L37 4ZM27 5L27 8L30 8L30 5ZM16 6L16 7L17 7L17 6ZM21 6L21 7L22 7L22 6ZM28 6L28 7L29 7L29 6ZM32 6L32 7L33 7L33 6ZM40 6L40 7L41 7L41 11L40 11L40 9L39 9L39 11L40 11L40 12L41 12L41 11L43 11L43 13L40 13L40 14L38 14L38 15L39 15L39 16L38 16L38 17L37 17L37 16L35 16L35 14L33 14L33 13L34 13L34 12L33 12L33 13L32 13L32 12L31 12L31 13L30 13L30 14L29 14L29 13L28 13L28 14L29 14L29 16L28 16L28 15L27 15L27 16L28 16L28 17L26 17L26 14L25 14L25 13L24 13L24 14L22 14L22 13L21 13L21 14L20 14L20 16L21 16L21 17L22 17L22 18L20 18L20 17L19 17L19 16L16 16L16 13L15 13L15 14L13 14L13 13L11 13L11 14L12 14L12 15L11 15L11 16L12 16L12 15L14 15L14 16L13 16L13 17L14 17L14 16L16 16L16 17L15 17L15 21L16 21L16 22L15 22L15 23L16 23L16 24L17 24L17 26L16 26L16 27L18 27L18 26L19 26L19 28L20 28L20 29L18 29L18 28L16 28L16 29L15 29L15 26L14 26L14 27L13 27L13 28L14 28L14 29L15 29L15 32L16 32L16 33L17 33L17 34L16 34L16 35L15 35L15 36L16 36L16 35L18 35L18 36L17 36L17 39L19 39L19 40L17 40L17 41L19 41L19 42L20 42L20 41L19 41L19 40L21 40L21 39L24 39L24 40L23 40L23 41L24 41L24 42L22 42L22 41L21 41L21 42L22 42L22 43L21 43L21 44L20 44L20 45L21 45L21 44L22 44L22 45L23 45L23 46L24 46L24 47L25 47L25 44L27 44L27 45L26 45L26 47L27 47L27 45L29 45L29 44L33 44L33 43L34 43L34 42L33 42L33 41L32 41L32 40L29 40L29 43L28 43L28 44L27 44L27 43L25 43L25 41L24 41L24 40L25 40L25 37L26 37L26 40L27 40L27 41L26 41L26 42L27 42L27 41L28 41L28 39L27 39L27 38L28 38L28 37L27 37L27 36L26 36L26 35L27 35L27 33L26 33L26 34L25 34L25 33L23 33L23 34L22 34L22 33L21 33L21 32L24 32L24 31L26 31L26 32L28 32L28 33L29 33L29 34L30 34L30 36L29 36L29 37L31 37L31 38L29 38L29 39L33 39L33 40L35 40L35 39L38 39L38 40L39 40L39 39L38 39L38 37L37 37L37 36L38 36L38 33L37 33L37 32L35 32L35 31L36 31L36 30L37 30L37 29L38 29L38 28L42 28L42 26L43 26L43 27L44 27L44 28L43 28L43 29L39 29L39 30L38 30L38 32L39 32L39 31L41 31L41 30L43 30L43 29L44 29L44 31L43 31L43 32L41 32L41 33L39 33L39 34L40 34L40 35L39 35L39 37L40 37L40 38L41 38L41 39L42 39L42 40L45 40L45 41L47 41L47 39L48 39L48 38L49 38L49 39L50 39L50 38L51 38L51 37L52 37L52 35L53 35L53 34L52 34L52 35L50 35L50 34L49 34L49 35L50 35L50 36L51 36L51 37L50 37L50 38L49 38L49 37L48 37L48 38L47 38L47 39L46 39L46 38L45 38L45 37L46 37L46 36L45 36L45 35L47 35L47 34L45 34L45 35L44 35L44 33L43 33L43 32L45 32L45 33L46 33L46 32L48 32L48 33L49 33L49 32L48 32L48 31L47 31L47 30L46 30L46 29L47 29L47 27L46 27L46 28L45 28L45 27L44 27L44 24L41 24L41 23L44 23L44 20L46 20L46 19L47 19L47 20L49 20L49 21L47 21L47 22L49 22L49 21L51 21L51 22L50 22L50 23L53 23L53 22L54 22L54 21L51 21L51 20L52 20L52 19L50 19L50 17L51 17L51 16L50 16L50 15L49 15L49 14L50 14L50 12L49 12L49 13L47 13L47 14L43 14L43 13L44 13L44 11L45 11L45 9L44 9L44 8L42 8L42 7L41 7L41 6ZM48 6L48 7L49 7L49 6ZM13 8L13 9L14 9L14 8ZM55 8L55 9L56 9L56 8ZM43 9L43 10L44 10L44 9ZM32 10L32 11L33 11L33 10ZM6 11L6 12L7 12L7 11ZM31 13L31 14L30 14L30 15L31 15L31 16L32 16L32 18L30 18L30 19L28 19L28 18L26 18L26 17L25 17L25 15L24 15L24 16L23 16L23 15L21 15L21 16L22 16L22 17L25 17L25 18L26 18L26 20L25 20L25 21L24 21L24 20L23 20L23 19L24 19L24 18L23 18L23 19L22 19L22 20L20 20L20 21L17 21L17 20L18 20L18 19L17 19L17 17L16 17L16 19L17 19L17 20L16 20L16 21L17 21L17 22L20 22L20 23L18 23L18 24L21 24L21 25L19 25L19 26L20 26L20 28L22 28L22 29L20 29L20 30L18 30L18 29L16 29L16 30L17 30L17 31L20 31L20 32L19 32L19 33L18 33L18 32L17 32L17 33L18 33L18 35L22 35L22 34L21 34L21 33L20 33L20 32L21 32L21 31L23 31L23 29L24 29L24 27L23 27L23 26L22 26L22 25L23 25L23 24L22 24L22 23L21 23L21 21L22 21L22 22L23 22L23 23L24 23L24 24L25 24L25 25L26 25L26 26L25 26L25 27L26 27L26 26L28 26L28 25L31 25L31 24L32 24L32 26L31 26L31 28L32 28L32 30L31 30L31 31L29 31L29 33L31 33L31 35L33 35L33 36L32 36L32 37L33 37L33 39L35 39L35 37L33 37L33 36L34 36L34 34L35 34L35 36L37 36L37 34L35 34L35 32L32 32L32 31L33 31L33 30L35 30L35 28L37 28L37 27L39 27L39 26L40 26L40 27L41 27L41 26L42 26L42 25L41 25L41 24L40 24L40 22L39 22L39 21L42 21L42 20L39 20L39 21L38 21L38 23L37 23L37 24L40 24L40 25L38 25L38 26L37 26L37 25L33 25L33 24L32 24L32 23L33 23L33 22L34 22L34 23L35 23L35 20L34 20L34 19L36 19L36 20L37 20L37 19L39 19L39 17L41 17L41 16L42 16L42 17L43 17L43 16L42 16L42 15L43 15L43 14L40 14L40 15L41 15L41 16L39 16L39 17L38 17L38 18L37 18L37 17L35 17L35 16L32 16L32 15L31 15L31 14L32 14L32 13ZM54 13L54 14L55 14L55 13ZM44 15L44 18L43 18L43 20L44 20L44 18L45 18L45 19L46 19L46 18L47 18L47 19L48 19L48 18L47 18L47 17L49 17L49 15L48 15L48 16L47 16L47 15ZM45 16L45 17L46 17L46 16ZM2 18L2 19L3 19L3 20L5 20L5 19L4 19L4 18ZM41 18L41 19L42 19L42 18ZM13 19L13 20L12 20L12 21L11 21L11 22L9 22L9 23L8 23L8 24L9 24L9 23L10 23L10 24L12 24L12 25L11 25L11 26L12 26L12 25L15 25L15 24L12 24L12 23L13 23L13 22L14 22L14 21L13 21L13 20L14 20L14 19ZM27 19L27 20L28 20L28 19ZM31 19L31 20L30 20L30 21L29 21L29 23L28 23L28 24L30 24L30 22L31 22L31 21L32 21L32 20L33 20L33 21L34 21L34 20L33 20L33 19ZM6 20L6 21L3 21L3 22L6 22L6 23L7 23L7 22L8 22L8 21L7 21L7 20ZM6 21L6 22L7 22L7 21ZM23 21L23 22L24 22L24 21ZM25 21L25 22L26 22L26 23L25 23L25 24L27 24L27 22L28 22L28 21ZM45 21L45 22L46 22L46 21ZM11 22L11 23L12 23L12 22ZM54 24L54 25L55 25L55 26L56 26L56 25L55 25L55 24ZM5 25L5 26L7 26L7 25ZM9 25L9 26L10 26L10 25ZM21 26L21 27L22 27L22 26ZM32 26L32 27L33 27L33 28L35 28L35 27L36 27L36 26L34 26L34 27L33 27L33 26ZM1 27L1 28L2 28L2 27ZM5 27L5 30L8 30L8 27ZM10 27L10 28L11 28L11 27ZM27 27L27 30L30 30L30 27ZM49 27L49 30L52 30L52 27ZM55 27L55 28L54 28L54 29L56 29L56 27ZM6 28L6 29L7 29L7 28ZM25 28L25 29L26 29L26 28ZM28 28L28 29L29 29L29 28ZM44 28L44 29L45 29L45 28ZM50 28L50 29L51 29L51 28ZM54 30L54 31L55 31L55 30ZM31 32L31 33L32 33L32 32ZM52 32L52 33L53 33L53 32ZM7 33L7 34L10 34L10 33ZM19 33L19 34L20 34L20 33ZM33 33L33 34L34 34L34 33ZM23 34L23 36L19 36L19 37L18 37L18 38L19 38L19 39L20 39L20 38L19 38L19 37L23 37L23 38L24 38L24 37L23 37L23 36L24 36L24 34ZM42 34L42 35L43 35L43 36L44 36L44 37L43 37L43 38L42 38L42 37L41 37L41 36L40 36L40 37L41 37L41 38L42 38L42 39L45 39L45 38L44 38L44 37L45 37L45 36L44 36L44 35L43 35L43 34ZM7 35L7 36L8 36L8 37L9 37L9 38L8 38L8 39L9 39L9 38L10 38L10 36L11 36L11 35L10 35L10 36L9 36L9 35ZM14 37L14 38L16 38L16 37ZM6 38L6 39L7 39L7 38ZM13 39L13 41L14 41L14 40L16 40L16 39ZM31 41L31 42L32 42L32 43L33 43L33 42L32 42L32 41ZM44 42L44 43L45 43L45 42ZM47 42L47 43L46 43L46 44L45 44L45 45L47 45L47 43L48 43L48 42ZM51 42L51 43L53 43L53 42ZM4 43L4 44L5 44L5 43ZM23 43L23 45L24 45L24 43ZM2 45L2 46L1 46L1 47L2 47L2 46L3 46L3 45ZM31 45L31 46L32 46L32 45ZM41 46L41 48L39 48L39 47L38 47L38 48L37 48L37 49L38 49L38 50L36 50L36 52L37 52L37 53L38 53L38 54L37 54L37 56L39 56L39 55L38 55L38 54L40 54L40 53L42 53L42 52L40 52L40 51L39 51L39 53L38 53L38 50L41 50L41 51L42 51L42 50L41 50L41 48L42 48L42 49L43 49L43 48L42 48L42 47L43 47L43 46ZM14 47L14 48L15 48L15 47ZM47 47L47 48L48 48L48 47ZM6 48L6 49L7 49L7 48ZM38 48L38 49L39 49L39 48ZM11 49L11 50L12 50L12 49ZM27 49L27 52L30 52L30 49ZM49 49L49 52L52 52L52 49ZM28 50L28 51L29 51L29 50ZM50 50L50 51L51 51L51 50ZM54 50L54 51L55 51L55 52L56 52L56 51L55 51L55 50ZM53 52L53 54L54 54L54 52ZM9 53L9 55L10 55L10 53ZM11 53L11 54L12 54L12 55L13 55L13 54L14 54L14 53ZM15 53L15 54L16 54L16 53ZM43 53L43 54L44 54L44 53ZM50 55L50 56L51 56L51 55ZM45 56L45 57L46 57L46 56ZM0 0L0 7L7 7L7 0ZM1 1L1 6L6 6L6 1ZM2 2L2 5L5 5L5 2ZM50 0L50 7L57 7L57 0ZM51 1L51 6L56 6L56 1ZM52 2L52 5L55 5L55 2ZM0 50L0 57L7 57L7 50ZM1 51L1 56L6 56L6 51ZM2 52L2 55L5 55L5 52Z" fill="#000000"/></g></g></svg>
