<?xml version="1.0" encoding="UTF-8"?>
<svg xmlns="http://www.w3.org/2000/svg" version="1.1" width="300" height="300" viewBox="0 0 300 300"><rect x="0" y="0" width="300" height="300" fill="#fefefe"/><g transform="scale(4.615)"><g transform="translate(4,4)"><path fill-rule="evenodd" d="M8 0L8 4L9 4L9 3L10 3L10 5L8 5L8 7L9 7L9 6L10 6L10 8L11 8L11 10L10 10L10 9L7 9L7 8L4 8L4 10L5 10L5 11L3 11L3 10L0 10L0 12L1 12L1 11L2 11L2 13L3 13L3 14L0 14L0 16L1 16L1 17L0 17L0 18L1 18L1 19L0 19L0 21L3 21L3 22L2 22L2 23L3 23L3 25L2 25L2 24L1 24L1 23L0 23L0 25L2 25L2 27L1 27L1 26L0 26L0 29L1 29L1 28L2 28L2 30L1 30L1 31L0 31L0 34L1 34L1 35L2 35L2 33L1 33L1 31L3 31L3 32L4 32L4 31L8 31L8 32L11 32L11 33L9 33L9 34L6 34L6 35L9 35L9 34L11 34L11 33L12 33L12 36L5 36L5 33L4 33L4 34L3 34L3 35L4 35L4 36L1 36L1 37L0 37L0 40L1 40L1 41L0 41L0 44L1 44L1 42L3 42L3 43L4 43L4 42L6 42L6 43L5 43L5 47L3 47L3 46L2 46L2 47L1 47L1 45L0 45L0 48L5 48L5 47L8 47L8 50L9 50L9 51L8 51L8 53L9 53L9 51L11 51L11 50L10 50L10 46L11 46L11 45L12 45L12 46L15 46L15 47L13 47L13 48L12 48L12 52L14 52L14 53L12 53L12 54L11 54L11 52L10 52L10 55L11 55L11 56L12 56L12 57L14 57L14 56L15 56L15 55L16 55L16 54L17 54L17 55L18 55L18 56L17 56L17 57L19 57L19 55L20 55L20 54L21 54L21 53L22 53L22 52L24 52L24 53L23 53L23 55L22 55L22 56L21 56L21 57L22 57L22 56L23 56L23 57L25 57L25 55L26 55L26 54L27 54L27 53L28 53L28 57L29 57L29 55L30 55L30 57L34 57L34 55L35 55L35 57L37 57L37 56L36 56L36 54L37 54L37 53L38 53L38 55L39 55L39 57L40 57L40 54L41 54L41 56L43 56L43 55L44 55L44 53L45 53L45 54L46 54L46 55L45 55L45 56L44 56L44 57L45 57L45 56L46 56L46 57L47 57L47 56L49 56L49 57L50 57L50 55L51 55L51 56L53 56L53 55L55 55L55 54L57 54L57 53L56 53L56 50L57 50L57 49L56 49L56 45L57 45L57 44L56 44L56 45L55 45L55 49L54 49L54 47L53 47L53 46L52 46L52 45L54 45L54 44L53 44L53 43L54 43L54 42L55 42L55 43L56 43L56 42L57 42L57 40L52 40L52 39L57 39L57 38L55 38L55 36L56 36L56 37L57 37L57 36L56 36L56 30L55 30L55 29L54 29L54 28L53 28L53 27L54 27L54 26L55 26L55 27L56 27L56 29L57 29L57 27L56 27L56 25L57 25L57 24L56 24L56 20L57 20L57 19L55 19L55 22L54 22L54 21L52 21L52 20L53 20L53 19L52 19L52 18L53 18L53 17L55 17L55 16L56 16L56 17L57 17L57 15L56 15L56 10L57 10L57 8L53 8L53 9L52 9L52 8L51 8L51 9L48 9L48 8L47 8L47 5L48 5L48 0L46 0L46 1L47 1L47 2L45 2L45 0L41 0L41 1L40 1L40 2L39 2L39 3L40 3L40 4L38 4L38 7L37 7L37 5L36 5L36 4L35 4L35 2L36 2L36 3L37 3L37 2L38 2L38 1L39 1L39 0L38 0L38 1L37 1L37 2L36 2L36 0L35 0L35 1L34 1L34 0L33 0L33 1L32 1L32 0L28 0L28 2L29 2L29 3L27 3L27 4L26 4L26 3L25 3L25 2L26 2L26 1L27 1L27 0L26 0L26 1L25 1L25 0L23 0L23 3L22 3L22 2L21 2L21 0L19 0L19 1L18 1L18 0L17 0L17 1L18 1L18 2L19 2L19 3L20 3L20 2L21 2L21 3L22 3L22 5L21 5L21 6L20 6L20 5L19 5L19 4L18 4L18 5L17 5L17 6L16 6L16 5L15 5L15 4L14 4L14 1L16 1L16 0L14 0L14 1L13 1L13 3L12 3L12 4L11 4L11 2L12 2L12 0L10 0L10 1L9 1L9 0ZM29 1L29 2L30 2L30 3L32 3L32 5L35 5L35 7L34 7L34 6L33 6L33 7L32 7L32 6L31 6L31 10L28 10L28 12L27 12L27 11L26 11L26 13L25 13L25 12L24 12L24 11L25 11L25 10L27 10L27 9L26 9L26 6L25 6L25 7L24 7L24 6L23 6L23 7L24 7L24 8L22 8L22 6L21 6L21 8L22 8L22 10L20 10L20 9L18 9L18 11L16 11L16 10L17 10L17 9L15 9L15 12L14 12L14 11L13 11L13 10L11 10L11 11L12 11L12 13L10 13L10 12L9 12L9 11L5 11L5 12L4 12L4 13L6 13L6 14L5 14L5 15L4 15L4 14L3 14L3 16L2 16L2 15L1 15L1 16L2 16L2 17L1 17L1 18L2 18L2 19L3 19L3 21L4 21L4 25L5 25L5 23L6 23L6 24L7 24L7 25L6 25L6 26L8 26L8 23L10 23L10 24L9 24L9 28L10 28L10 29L12 29L12 28L13 28L13 26L14 26L14 24L13 24L13 23L12 23L12 21L11 21L11 19L14 19L14 20L15 20L15 21L17 21L17 20L19 20L19 21L20 21L20 20L19 20L19 18L20 18L20 17L25 17L25 18L24 18L24 19L23 19L23 18L22 18L22 19L23 19L23 20L22 20L22 21L21 21L21 22L20 22L20 23L19 23L19 25L21 25L21 26L20 26L20 27L21 27L21 28L18 28L18 29L15 29L15 28L16 28L16 27L18 27L18 26L17 26L17 22L16 22L16 23L15 23L15 25L16 25L16 26L15 26L15 28L14 28L14 31L13 31L13 30L9 30L9 31L12 31L12 33L13 33L13 32L14 32L14 35L13 35L13 36L12 36L12 39L13 39L13 40L15 40L15 39L16 39L16 38L17 38L17 40L16 40L16 43L15 43L15 44L14 44L14 45L15 45L15 44L17 44L17 45L16 45L16 48L17 48L17 45L18 45L18 44L19 44L19 47L20 47L20 48L19 48L19 49L21 49L21 50L22 50L22 49L23 49L23 48L22 48L22 47L23 47L23 45L25 45L25 43L28 43L28 44L27 44L27 45L26 45L26 46L25 46L25 48L24 48L24 49L25 49L25 50L26 50L26 48L28 48L28 47L26 47L26 46L27 46L27 45L28 45L28 46L29 46L29 48L31 48L31 52L32 52L32 51L34 51L34 52L33 52L33 53L32 53L32 54L33 54L33 53L34 53L34 54L35 54L35 53L34 53L34 52L36 52L36 49L34 49L34 47L35 47L35 45L34 45L34 47L33 47L33 45L32 45L32 43L33 43L33 44L35 44L35 43L33 43L33 41L32 41L32 40L33 40L33 39L31 39L31 38L33 38L33 37L32 37L32 36L31 36L31 35L33 35L33 36L34 36L34 42L35 42L35 39L37 39L37 42L38 42L38 39L40 39L40 38L38 38L38 36L37 36L37 38L35 38L35 35L34 35L34 34L35 34L35 31L36 31L36 30L35 30L35 28L37 28L37 29L38 29L38 28L37 28L37 27L41 27L41 28L40 28L40 29L43 29L43 31L44 31L44 28L42 28L42 25L41 25L41 24L43 24L43 25L44 25L44 24L45 24L45 23L46 23L46 24L47 24L47 25L46 25L46 26L47 26L47 27L45 27L45 30L46 30L46 31L47 31L47 33L46 33L46 32L45 32L45 33L43 33L43 37L44 37L44 38L43 38L43 39L42 39L42 38L41 38L41 39L42 39L42 40L43 40L43 42L40 42L40 41L41 41L41 40L40 40L40 41L39 41L39 42L40 42L40 43L39 43L39 44L37 44L37 43L36 43L36 44L37 44L37 46L38 46L38 45L39 45L39 44L40 44L40 46L39 46L39 47L38 47L38 49L37 49L37 52L38 52L38 53L39 53L39 52L40 52L40 53L42 53L42 52L41 52L41 44L40 44L40 43L42 43L42 44L43 44L43 45L44 45L44 44L45 44L45 45L46 45L46 47L45 47L45 46L44 46L44 47L42 47L42 49L44 49L44 50L45 50L45 49L46 49L46 51L45 51L45 52L46 52L46 54L47 54L47 55L46 55L46 56L47 56L47 55L49 55L49 54L51 54L51 55L52 55L52 54L51 54L51 53L49 53L49 54L48 54L48 52L47 52L47 49L48 49L48 47L49 47L49 46L50 46L50 47L51 47L51 46L50 46L50 45L51 45L51 44L52 44L52 43L53 43L53 41L52 41L52 40L47 40L47 39L48 39L48 38L50 38L50 39L51 39L51 38L50 38L50 37L48 37L48 36L47 36L47 35L46 35L46 34L49 34L49 33L48 33L48 31L47 31L47 29L48 29L48 28L47 28L47 27L48 27L48 26L47 26L47 25L49 25L49 26L50 26L50 25L51 25L51 26L53 26L53 22L52 22L52 21L51 21L51 20L49 20L49 19L48 19L48 18L47 18L47 16L48 16L48 15L49 15L49 16L50 16L50 17L49 17L49 18L50 18L50 19L51 19L51 18L52 18L52 17L53 17L53 16L55 16L55 14L52 14L52 13L53 13L53 12L54 12L54 13L55 13L55 9L53 9L53 10L54 10L54 11L52 11L52 12L51 12L51 14L52 14L52 17L51 17L51 16L50 16L50 11L49 11L49 10L47 10L47 9L46 9L46 8L45 8L45 7L46 7L46 5L47 5L47 3L44 3L44 2L43 2L43 3L44 3L44 4L43 4L43 5L42 5L42 4L41 4L41 5L39 5L39 7L40 7L40 6L41 6L41 8L40 8L40 9L39 9L39 8L37 8L37 9L35 9L35 7L36 7L36 5L35 5L35 4L34 4L34 1L33 1L33 3L32 3L32 1ZM16 2L16 4L17 4L17 2ZM40 2L40 3L42 3L42 2ZM23 3L23 5L24 5L24 4L25 4L25 3ZM44 4L44 7L43 7L43 6L42 6L42 5L41 5L41 6L42 6L42 7L43 7L43 8L42 8L42 9L41 9L41 12L43 12L43 11L45 11L45 12L44 12L44 13L41 13L41 17L40 17L40 13L38 13L38 15L39 15L39 17L38 17L38 16L37 16L37 15L35 15L35 17L38 17L38 18L39 18L39 19L38 19L38 23L39 23L39 25L38 25L38 26L39 26L39 25L40 25L40 26L41 26L41 25L40 25L40 23L39 23L39 21L40 21L40 22L41 22L41 23L42 23L42 22L43 22L43 23L44 23L44 22L46 22L46 21L47 21L47 24L49 24L49 25L50 25L50 24L49 24L49 22L50 22L50 23L51 23L51 25L52 25L52 22L51 22L51 21L49 21L49 20L48 20L48 21L47 21L47 18L46 18L46 17L45 17L45 16L47 16L47 15L46 15L46 9L45 9L45 8L44 8L44 7L45 7L45 5L46 5L46 4ZM11 5L11 8L12 8L12 6L13 6L13 7L14 7L14 8L13 8L13 9L14 9L14 8L15 8L15 7L16 7L16 6L15 6L15 7L14 7L14 6L13 6L13 5ZM18 5L18 6L17 6L17 8L19 8L19 7L20 7L20 6L19 6L19 5ZM27 5L27 8L30 8L30 5ZM18 6L18 7L19 7L19 6ZM28 6L28 7L29 7L29 6ZM48 6L48 7L49 7L49 6ZM33 7L33 8L32 8L32 11L29 11L29 12L31 12L31 13L30 13L30 15L31 15L31 16L29 16L29 13L26 13L26 14L28 14L28 15L27 15L27 16L26 16L26 15L25 15L25 13L24 13L24 12L22 12L22 11L21 11L21 13L20 13L20 10L19 10L19 12L18 12L18 13L17 13L17 12L15 12L15 13L13 13L13 16L14 16L14 18L15 18L15 20L17 20L17 18L18 18L18 17L20 17L20 14L21 14L21 15L22 15L22 16L23 16L23 15L24 15L24 16L25 16L25 17L28 17L28 18L30 18L30 21L29 21L29 22L28 22L28 23L27 23L27 22L26 22L26 23L25 23L25 22L24 22L24 21L28 21L28 20L29 20L29 19L28 19L28 20L26 20L26 19L25 19L25 20L24 20L24 21L23 21L23 22L22 22L22 23L21 23L21 25L22 25L22 26L21 26L21 27L22 27L22 28L24 28L24 29L23 29L23 30L22 30L22 29L20 29L20 30L22 30L22 31L21 31L21 32L18 32L18 31L17 31L17 32L16 32L16 30L15 30L15 36L14 36L14 37L13 37L13 38L14 38L14 39L15 39L15 37L16 37L16 36L17 36L17 37L18 37L18 38L19 38L19 37L22 37L22 38L20 38L20 39L19 39L19 40L18 40L18 41L17 41L17 43L18 43L18 41L20 41L20 44L21 44L21 45L20 45L20 47L22 47L22 46L21 46L21 45L23 45L23 44L22 44L22 43L21 43L21 41L22 41L22 40L23 40L23 42L26 42L26 41L27 41L27 42L28 42L28 43L29 43L29 42L28 42L28 40L29 40L29 41L30 41L30 42L31 42L31 43L32 43L32 41L31 41L31 39L29 39L29 38L28 38L28 39L27 39L27 37L28 37L28 36L29 36L29 37L31 37L31 36L30 36L30 34L32 34L32 33L33 33L33 34L34 34L34 32L32 32L32 31L34 31L34 27L33 27L33 26L34 26L34 25L37 25L37 24L34 24L34 23L35 23L35 22L37 22L37 18L34 18L34 13L33 13L33 10L34 10L34 12L35 12L35 14L36 14L36 13L37 13L37 12L39 12L39 11L38 11L38 10L39 10L39 9L38 9L38 10L37 10L37 12L35 12L35 11L36 11L36 10L34 10L34 9L33 9L33 8L34 8L34 7ZM0 8L0 9L2 9L2 8ZM43 8L43 10L42 10L42 11L43 11L43 10L45 10L45 9L44 9L44 8ZM5 9L5 10L7 10L7 9ZM23 9L23 10L25 10L25 9ZM48 11L48 12L49 12L49 11ZM6 12L6 13L7 13L7 14L6 14L6 15L7 15L7 16L5 16L5 18L6 18L6 19L4 19L4 21L5 21L5 22L6 22L6 23L7 23L7 22L6 22L6 21L8 21L8 20L6 20L6 19L8 19L8 18L9 18L9 19L11 19L11 18L12 18L12 15L11 15L11 14L10 14L10 13L7 13L7 12ZM15 13L15 14L17 14L17 13ZM19 13L19 14L18 14L18 16L19 16L19 14L20 14L20 13ZM21 13L21 14L22 14L22 15L23 15L23 14L24 14L24 13ZM31 13L31 14L32 14L32 13ZM47 13L47 14L49 14L49 13ZM7 14L7 15L8 15L8 17L6 17L6 18L8 18L8 17L9 17L9 18L11 18L11 16L10 16L10 14ZM43 14L43 15L42 15L42 17L43 17L43 18L42 18L42 20L41 20L41 18L40 18L40 17L39 17L39 18L40 18L40 21L43 21L43 22L44 22L44 16L45 16L45 15L44 15L44 14ZM32 15L32 16L31 16L31 19L33 19L33 18L32 18L32 16L33 16L33 15ZM43 15L43 16L44 16L44 15ZM16 16L16 18L17 18L17 16ZM3 17L3 18L4 18L4 17ZM50 17L50 18L51 18L51 17ZM35 19L35 20L36 20L36 19ZM45 19L45 20L46 20L46 19ZM9 20L9 21L10 21L10 20ZM31 20L31 21L32 21L32 20ZM33 20L33 21L34 21L34 22L35 22L35 21L34 21L34 20ZM13 21L13 22L14 22L14 21ZM10 22L10 23L11 23L11 22ZM29 22L29 23L28 23L28 25L27 25L27 26L28 26L28 25L29 25L29 26L30 26L30 25L29 25L29 23L30 23L30 24L31 24L31 30L32 30L32 28L33 28L33 27L32 27L32 23L33 23L33 22L31 22L31 23L30 23L30 22ZM22 23L22 25L24 25L24 23ZM54 23L54 25L56 25L56 24L55 24L55 23ZM11 24L11 25L12 25L12 26L13 26L13 25L12 25L12 24ZM33 24L33 25L34 25L34 24ZM25 25L25 26L23 26L23 27L26 27L26 25ZM3 26L3 27L2 27L2 28L3 28L3 27L4 27L4 26ZM10 26L10 28L12 28L12 27L11 27L11 26ZM36 26L36 27L37 27L37 26ZM43 26L43 27L44 27L44 26ZM5 27L5 30L8 30L8 27ZM27 27L27 30L30 30L30 27ZM49 27L49 30L52 30L52 27ZM6 28L6 29L7 29L7 28ZM28 28L28 29L29 29L29 28ZM46 28L46 29L47 29L47 28ZM50 28L50 29L51 29L51 28ZM18 29L18 30L19 30L19 29ZM25 29L25 30L23 30L23 31L22 31L22 33L21 33L21 34L20 34L20 33L19 33L19 34L18 34L18 33L16 33L16 35L19 35L19 34L20 34L20 36L21 36L21 35L22 35L22 37L23 37L23 38L22 38L22 39L21 39L21 40L22 40L22 39L24 39L24 41L25 41L25 40L26 40L26 38L24 38L24 37L23 37L23 33L27 33L27 32L29 32L29 33L28 33L28 34L27 34L27 35L26 35L26 34L24 34L24 36L25 36L25 37L27 37L27 36L28 36L28 34L29 34L29 33L32 33L32 32L30 32L30 31L27 31L27 32L23 32L23 31L25 31L25 30L26 30L26 29ZM3 30L3 31L4 31L4 30ZM37 30L37 32L38 32L38 30ZM39 30L39 32L40 32L40 33L39 33L39 34L38 34L38 33L37 33L37 34L38 34L38 35L40 35L40 36L39 36L39 37L41 37L41 36L42 36L42 34L40 34L40 33L41 33L41 32L40 32L40 30ZM53 30L53 31L52 31L52 32L53 32L53 33L51 33L51 31L49 31L49 32L50 32L50 35L49 35L49 36L50 36L50 35L53 35L53 36L52 36L52 38L54 38L54 37L53 37L53 36L55 36L55 35L53 35L53 34L54 34L54 33L55 33L55 30ZM6 32L6 33L7 33L7 32ZM45 33L45 34L46 34L46 33ZM25 35L25 36L26 36L26 35ZM44 35L44 37L45 37L45 39L43 39L43 40L44 40L44 42L43 42L43 43L44 43L44 42L46 42L46 41L47 41L47 40L46 40L46 41L45 41L45 39L47 39L47 38L48 38L48 37L47 37L47 38L46 38L46 37L45 37L45 36L46 36L46 35ZM4 36L4 37L2 37L2 38L1 38L1 40L2 40L2 41L6 41L6 42L8 42L8 44L7 44L7 43L6 43L6 44L7 44L7 45L6 45L6 46L9 46L9 45L11 45L11 43L12 43L12 42L14 42L14 41L12 41L12 42L11 42L11 43L9 43L9 42L8 42L8 41L6 41L6 40L7 40L7 39L6 39L6 40L4 40L4 39L3 39L3 40L2 40L2 38L4 38L4 37L5 37L5 36ZM6 37L6 38L8 38L8 37ZM9 38L9 39L8 39L8 40L9 40L9 39L10 39L10 40L11 40L11 38ZM48 41L48 43L47 43L47 44L46 44L46 45L47 45L47 47L46 47L46 48L47 48L47 47L48 47L48 46L49 46L49 45L50 45L50 44L51 44L51 43L52 43L52 41L51 41L51 43L50 43L50 42L49 42L49 41ZM55 41L55 42L56 42L56 41ZM49 43L49 44L50 44L50 43ZM2 44L2 45L4 45L4 44ZM28 44L28 45L29 45L29 44ZM30 44L30 45L31 45L31 48L32 48L32 50L34 50L34 51L35 51L35 50L34 50L34 49L33 49L33 47L32 47L32 45L31 45L31 44ZM47 44L47 45L48 45L48 44ZM36 47L36 48L37 48L37 47ZM39 47L39 49L38 49L38 52L39 52L39 51L40 51L40 47ZM44 47L44 49L45 49L45 47ZM52 47L52 48L53 48L53 47ZM6 48L6 49L7 49L7 48ZM21 48L21 49L22 49L22 48ZM15 49L15 51L16 51L16 50L17 50L17 49ZM27 49L27 52L30 52L30 49ZM49 49L49 52L52 52L52 49ZM55 49L55 50L56 50L56 49ZM18 50L18 51L19 51L19 53L20 53L20 51L19 51L19 50ZM28 50L28 51L29 51L29 50ZM42 50L42 51L43 51L43 50ZM50 50L50 51L51 51L51 50ZM53 50L53 54L54 54L54 52L55 52L55 51L54 51L54 50ZM21 51L21 52L22 52L22 51ZM25 51L25 53L24 53L24 54L25 54L25 53L26 53L26 51ZM15 52L15 53L14 53L14 55L13 55L13 54L12 54L12 55L13 55L13 56L14 56L14 55L15 55L15 53L17 53L17 52ZM43 52L43 53L44 53L44 52ZM30 53L30 54L31 54L31 53ZM18 54L18 55L19 55L19 54ZM42 54L42 55L43 55L43 54ZM8 55L8 57L10 57L10 56L9 56L9 55ZM23 55L23 56L24 56L24 55ZM26 56L26 57L27 57L27 56ZM56 56L56 57L57 57L57 56ZM0 0L0 7L7 7L7 0ZM1 1L1 6L6 6L6 1ZM2 2L2 5L5 5L5 2ZM50 0L50 7L57 7L57 0ZM51 1L51 6L56 6L56 1ZM52 2L52 5L55 5L55 2ZM0 50L0 57L7 57L7 50ZM1 51L1 56L6 56L6 51ZM2 52L2 55L5 55L5 52Z" fill="#000000"/></g></g></svg>
