<?xml version="1.0" encoding="UTF-8"?>
<svg xmlns="http://www.w3.org/2000/svg" version="1.1" width="300" height="300" viewBox="0 0 300 300"><rect x="0" y="0" width="300" height="300" fill="#fefefe"/><g transform="scale(4.615)"><g transform="translate(4,4)"><path fill-rule="evenodd" d="M12 0L12 1L13 1L13 0ZM17 0L17 1L18 1L18 2L16 2L16 1L14 1L14 2L12 2L12 3L13 3L13 4L10 4L10 3L11 3L11 2L10 2L10 1L8 1L8 2L9 2L9 3L8 3L8 4L10 4L10 5L8 5L8 7L9 7L9 6L10 6L10 7L11 7L11 8L10 8L10 9L9 9L9 8L6 8L6 9L9 9L9 10L8 10L8 11L7 11L7 10L5 10L5 11L7 11L7 12L6 12L6 13L5 13L5 12L3 12L3 10L4 10L4 9L5 9L5 8L0 8L0 9L1 9L1 11L0 11L0 12L3 12L3 13L2 13L2 14L1 14L1 13L0 13L0 15L2 15L2 16L0 16L0 17L1 17L1 19L0 19L0 20L1 20L1 19L2 19L2 17L4 17L4 18L3 18L3 21L2 21L2 22L3 22L3 24L2 24L2 23L1 23L1 22L0 22L0 29L2 29L2 30L0 30L0 32L1 32L1 33L4 33L4 34L1 34L1 35L0 35L0 38L1 38L1 39L3 39L3 38L4 38L4 37L2 37L2 38L1 38L1 35L3 35L3 36L5 36L5 37L9 37L9 36L10 36L10 39L9 39L9 40L8 40L8 42L9 42L9 43L7 43L7 42L6 42L6 41L7 41L7 40L6 40L6 39L7 39L7 38L6 38L6 39L4 39L4 40L5 40L5 41L3 41L3 40L2 40L2 42L4 42L4 45L7 45L7 44L8 44L8 46L9 46L9 44L10 44L10 48L12 48L12 49L14 49L14 52L15 52L15 53L14 53L14 54L15 54L15 55L16 55L16 56L14 56L14 57L16 57L16 56L17 56L17 57L20 57L20 56L18 56L18 55L17 55L17 54L19 54L19 55L20 55L20 54L19 54L19 53L20 53L20 52L22 52L22 51L20 51L20 49L21 49L21 50L26 50L26 52L24 52L24 53L23 53L23 54L21 54L21 55L23 55L23 56L24 56L24 55L23 55L23 54L24 54L24 53L27 53L27 54L30 54L30 53L31 53L31 50L32 50L32 52L33 52L33 53L32 53L32 54L31 54L31 56L30 56L30 55L29 55L29 56L27 56L27 57L29 57L29 56L30 56L30 57L31 57L31 56L35 56L35 57L39 57L39 56L41 56L41 57L44 57L44 56L42 56L42 55L44 55L44 54L45 54L45 53L44 53L44 52L47 52L47 50L48 50L48 53L47 53L47 55L48 55L48 56L50 56L50 57L52 57L52 55L51 55L51 53L52 53L52 54L54 54L54 53L57 53L57 52L55 52L55 51L54 51L54 50L57 50L57 48L56 48L56 46L57 46L57 43L56 43L56 42L57 42L57 41L56 41L56 42L55 42L55 39L57 39L57 37L55 37L55 35L56 35L56 34L57 34L57 32L56 32L56 30L57 30L57 27L55 27L55 26L57 26L57 25L56 25L56 22L57 22L57 21L56 21L56 22L55 22L55 23L54 23L54 21L51 21L51 20L52 20L52 19L53 19L53 20L57 20L57 19L55 19L55 18L57 18L57 17L56 17L56 16L57 16L57 15L56 15L56 14L57 14L57 13L56 13L56 14L55 14L55 13L54 13L54 12L57 12L57 11L56 11L56 10L54 10L54 11L52 11L52 10L49 10L49 9L50 9L50 8L49 8L49 6L48 6L48 7L47 7L47 5L48 5L48 0L45 0L45 2L44 2L44 3L43 3L43 4L40 4L40 5L39 5L39 6L38 6L38 7L37 7L37 5L38 5L38 3L36 3L36 0L35 0L35 1L33 1L33 2L32 2L32 1L31 1L31 0L27 0L27 1L26 1L26 0L23 0L23 2L20 2L20 0ZM21 0L21 1L22 1L22 0ZM37 0L37 1L38 1L38 2L39 2L39 3L41 3L41 2L43 2L43 0L41 0L41 1L40 1L40 0L39 0L39 1L38 1L38 0ZM25 1L25 2L23 2L23 3L19 3L19 2L18 2L18 3L15 3L15 2L14 2L14 4L13 4L13 7L12 7L12 5L10 5L10 6L11 6L11 7L12 7L12 8L11 8L11 9L10 9L10 10L12 10L12 11L10 11L10 12L9 12L9 11L8 11L8 13L6 13L6 14L5 14L5 13L3 13L3 14L2 14L2 15L3 15L3 16L5 16L5 15L6 15L6 16L8 16L8 15L9 15L9 14L8 14L8 13L12 13L12 14L11 14L11 15L10 15L10 17L13 17L13 18L11 18L11 19L10 19L10 18L9 18L9 17L6 17L6 18L4 18L4 20L5 20L5 21L4 21L4 23L5 23L5 24L3 24L3 25L4 25L4 26L3 26L3 27L4 27L4 26L7 26L7 25L6 25L6 24L8 24L8 25L9 25L9 24L10 24L10 25L11 25L11 26L10 26L10 27L11 27L11 26L12 26L12 27L13 27L13 25L15 25L15 26L14 26L14 27L15 27L15 26L17 26L17 24L18 24L18 23L17 23L17 24L16 24L16 23L15 23L15 22L16 22L16 21L17 21L17 22L20 22L20 23L19 23L19 24L21 24L21 25L20 25L20 28L22 28L22 29L19 29L19 26L18 26L18 27L16 27L16 28L15 28L15 29L16 29L16 30L18 30L18 29L19 29L19 31L20 31L20 30L21 30L21 31L24 31L24 32L21 32L21 33L20 33L20 32L19 32L19 33L18 33L18 31L17 31L17 32L16 32L16 33L15 33L15 34L17 34L17 35L15 35L15 36L14 36L14 34L11 34L11 35L10 35L10 34L9 34L9 35L10 35L10 36L11 36L11 37L13 37L13 38L11 38L11 39L12 39L12 40L11 40L11 42L10 42L10 44L11 44L11 42L12 42L12 40L13 40L13 39L14 39L14 43L12 43L12 44L13 44L13 47L14 47L14 48L15 48L15 50L17 50L17 52L16 52L16 51L15 51L15 52L16 52L16 53L15 53L15 54L16 54L16 53L17 53L17 52L19 52L19 51L18 51L18 49L17 49L17 48L18 48L18 47L17 47L17 48L15 48L15 47L14 47L14 45L15 45L15 46L17 46L17 45L18 45L18 44L17 44L17 45L16 45L16 43L18 43L18 42L19 42L19 41L16 41L16 40L19 40L19 39L20 39L20 38L19 38L19 37L21 37L21 38L24 38L24 37L23 37L23 36L24 36L24 34L23 34L23 33L25 33L25 35L26 35L26 34L27 34L27 37L25 37L25 40L24 40L24 39L21 39L21 40L20 40L20 42L21 42L21 43L20 43L20 44L19 44L19 45L20 45L20 46L19 46L19 49L20 49L20 47L21 47L21 49L23 49L23 48L24 48L24 49L25 49L25 48L28 48L28 47L26 47L26 45L27 45L27 46L31 46L31 44L30 44L30 43L29 43L29 45L27 45L27 44L25 44L25 43L27 43L27 42L30 42L30 40L32 40L32 41L31 41L31 42L32 42L32 43L33 43L33 44L32 44L32 45L33 45L33 46L32 46L32 50L33 50L33 51L34 51L34 50L36 50L36 52L37 52L37 53L38 53L38 54L37 54L37 56L39 56L39 55L38 55L38 54L40 54L40 53L41 53L41 52L42 52L42 53L43 53L43 54L44 54L44 53L43 53L43 52L42 52L42 50L41 50L41 48L42 48L42 49L43 49L43 48L44 48L44 49L45 49L45 50L47 50L47 49L48 49L48 48L53 48L53 47L55 47L55 46L56 46L56 43L55 43L55 44L54 44L54 45L51 45L51 46L50 46L50 45L48 45L48 44L50 44L50 43L51 43L51 44L53 44L53 43L54 43L54 42L53 42L53 41L54 41L54 40L53 40L53 41L51 41L51 42L50 42L50 43L47 43L47 42L48 42L48 41L49 41L49 40L50 40L50 39L51 39L51 40L52 40L52 39L53 39L53 35L55 35L55 34L54 34L54 33L56 33L56 32L53 32L53 31L55 31L55 30L53 30L53 31L52 31L52 32L51 32L51 31L48 31L48 30L47 30L47 29L46 29L46 30L47 30L47 31L46 31L46 32L43 32L43 30L40 30L40 31L39 31L39 32L38 32L38 30L39 30L39 29L43 29L43 27L44 27L44 26L46 26L46 27L45 27L45 28L44 28L44 30L45 30L45 28L46 28L46 27L47 27L47 28L48 28L48 27L47 27L47 24L49 24L49 25L50 25L50 26L53 26L53 27L54 27L54 26L53 26L53 24L51 24L51 23L50 23L50 22L51 22L51 21L49 21L49 23L47 23L47 24L45 24L45 22L47 22L47 20L49 20L49 18L47 18L47 17L49 17L49 15L50 15L50 16L51 16L51 17L50 17L50 19L52 19L52 17L53 17L53 18L55 18L55 17L53 17L53 15L52 15L52 16L51 16L51 15L50 15L50 14L51 14L51 12L50 12L50 11L48 11L48 10L47 10L47 9L48 9L48 8L46 8L46 9L45 9L45 7L46 7L46 6L45 6L45 5L47 5L47 3L44 3L44 6L43 6L43 7L44 7L44 9L43 9L43 10L41 10L41 12L40 12L40 11L39 11L39 12L40 12L40 13L38 13L38 14L37 14L37 13L36 13L36 14L37 14L37 15L35 15L35 16L33 16L33 15L32 15L32 17L31 17L31 18L30 18L30 20L29 20L29 19L28 19L28 18L27 18L27 19L26 19L26 20L25 20L25 21L24 21L24 20L23 20L23 19L24 19L24 18L22 18L22 17L25 17L25 18L26 18L26 17L28 17L28 16L29 16L29 14L30 14L30 15L31 15L31 14L32 14L32 13L33 13L33 14L35 14L35 12L36 12L36 10L37 10L37 11L38 11L38 10L39 10L39 9L42 9L42 8L41 8L41 7L42 7L42 6L41 6L41 5L40 5L40 6L39 6L39 7L40 7L40 8L39 8L39 9L38 9L38 8L37 8L37 7L36 7L36 5L37 5L37 4L36 4L36 5L35 5L35 3L32 3L32 2L31 2L31 1L29 1L29 2L28 2L28 3L27 3L27 2L26 2L26 1ZM46 1L46 2L47 2L47 1ZM29 2L29 3L30 3L30 4L26 4L26 3L23 3L23 4L24 4L24 5L23 5L23 6L22 6L22 7L21 7L21 5L22 5L22 4L19 4L19 3L18 3L18 4L17 4L17 5L18 5L18 4L19 4L19 5L20 5L20 7L19 7L19 6L18 6L18 7L17 7L17 6L16 6L16 7L15 7L15 6L14 6L14 7L13 7L13 8L12 8L12 9L13 9L13 11L12 11L12 13L15 13L15 14L14 14L14 16L13 16L13 14L12 14L12 15L11 15L11 16L13 16L13 17L14 17L14 18L15 18L15 21L16 21L16 20L17 20L17 21L20 21L20 20L21 20L21 21L22 21L22 22L24 22L24 21L22 21L22 20L21 20L21 19L20 19L20 20L17 20L17 18L18 18L18 19L19 19L19 18L20 18L20 17L19 17L19 16L20 16L20 15L19 15L19 14L20 14L20 12L22 12L22 13L21 13L21 15L24 15L24 16L25 16L25 17L26 17L26 15L27 15L27 16L28 16L28 15L27 15L27 13L28 13L28 14L29 14L29 13L28 13L28 12L29 12L29 10L30 10L30 11L31 11L31 13L30 13L30 14L31 14L31 13L32 13L32 11L33 11L33 10L32 10L32 8L31 8L31 4L32 4L32 5L34 5L34 7L33 7L33 6L32 6L32 7L33 7L33 9L34 9L34 8L35 8L35 9L37 9L37 10L38 10L38 9L37 9L37 8L35 8L35 5L34 5L34 4L32 4L32 3L31 3L31 2ZM15 4L15 5L16 5L16 4ZM25 4L25 8L26 8L26 4ZM27 5L27 8L30 8L30 5ZM23 6L23 7L22 7L22 8L20 8L20 11L19 11L19 12L20 12L20 11L22 11L22 10L23 10L23 8L24 8L24 6ZM28 6L28 7L29 7L29 6ZM40 6L40 7L41 7L41 6ZM44 6L44 7L45 7L45 6ZM16 7L16 8L14 8L14 10L15 10L15 11L18 11L18 10L17 10L17 9L16 9L16 8L17 8L17 7ZM51 8L51 9L52 9L52 8ZM53 8L53 9L54 9L54 8ZM55 8L55 9L56 9L56 8ZM2 9L2 10L3 10L3 9ZM15 9L15 10L16 10L16 9ZM44 9L44 11L43 11L43 13L41 13L41 14L38 14L38 15L39 15L39 16L38 16L38 17L37 17L37 16L35 16L35 17L37 17L37 18L38 18L38 17L39 17L39 19L37 19L37 20L36 20L36 19L35 19L35 20L34 20L34 18L33 18L33 17L32 17L32 18L33 18L33 19L31 19L31 20L30 20L30 22L29 22L29 21L25 21L25 22L26 22L26 23L25 23L25 24L24 24L24 23L21 23L21 24L24 24L24 25L21 25L21 27L22 27L22 26L23 26L23 27L25 27L25 28L26 28L26 29L23 29L23 30L25 30L25 31L26 31L26 32L25 32L25 33L26 33L26 32L27 32L27 31L28 31L28 33L29 33L29 34L30 34L30 36L29 36L29 37L31 37L31 38L29 38L29 39L33 39L33 40L35 40L35 42L37 42L37 43L34 43L34 42L33 42L33 41L32 41L32 42L33 42L33 43L34 43L34 45L36 45L36 46L37 46L37 47L36 47L36 48L35 48L35 46L33 46L33 47L34 47L34 48L35 48L35 49L36 49L36 50L38 50L38 51L40 51L40 52L41 52L41 50L38 50L38 49L39 49L39 48L41 48L41 46L43 46L43 47L42 47L42 48L43 48L43 47L44 47L44 46L43 46L43 45L44 45L44 44L43 44L43 41L44 41L44 43L46 43L46 44L45 44L45 45L47 45L47 46L45 46L45 47L47 47L47 48L48 48L48 47L50 47L50 46L48 46L48 45L47 45L47 43L46 43L46 42L45 42L45 41L44 41L44 40L45 40L45 39L44 39L44 40L43 40L43 41L39 41L39 42L38 42L38 40L40 40L40 39L38 39L38 37L40 37L40 38L41 38L41 39L42 39L42 38L43 38L43 37L44 37L44 38L45 38L45 37L46 37L46 36L48 36L48 35L50 35L50 36L49 36L49 37L48 37L48 38L47 38L47 39L46 39L46 41L47 41L47 39L48 39L48 38L49 38L49 39L50 39L50 38L51 38L51 37L52 37L52 35L53 35L53 34L52 34L52 33L53 33L53 32L52 32L52 33L51 33L51 32L50 32L50 34L48 34L48 35L44 35L44 33L43 33L43 32L41 32L41 33L39 33L39 34L40 34L40 35L38 35L38 33L37 33L37 32L35 32L35 30L33 30L33 29L32 29L32 28L31 28L31 26L32 26L32 27L33 27L33 28L35 28L35 29L38 29L38 28L40 28L40 27L41 27L41 28L42 28L42 27L41 27L41 26L43 26L43 25L44 25L44 20L45 20L45 21L46 21L46 20L47 20L47 18L46 18L46 17L47 17L47 16L48 16L48 15L49 15L49 14L50 14L50 12L49 12L49 13L47 13L47 14L45 14L45 13L44 13L44 11L45 11L45 12L47 12L47 10L45 10L45 9ZM24 10L24 12L23 12L23 13L22 13L22 14L23 14L23 13L24 13L24 12L25 12L25 14L24 14L24 15L25 15L25 14L26 14L26 12L27 12L27 11L26 11L26 12L25 12L25 10ZM31 10L31 11L32 11L32 10ZM13 11L13 12L14 12L14 11ZM15 12L15 13L16 13L16 16L17 16L17 13L18 13L18 12L17 12L17 13L16 13L16 12ZM33 12L33 13L34 13L34 12ZM52 12L52 13L53 13L53 14L54 14L54 15L55 15L55 14L54 14L54 13L53 13L53 12ZM4 14L4 15L5 15L5 14ZM6 14L6 15L7 15L7 14ZM41 14L41 16L39 16L39 17L41 17L41 16L42 16L42 17L43 17L43 16L42 16L42 15L43 15L43 14ZM44 14L44 18L43 18L43 20L42 20L42 21L43 21L43 20L44 20L44 18L45 18L45 20L46 20L46 18L45 18L45 16L46 16L46 15L45 15L45 14ZM14 16L14 17L15 17L15 18L17 18L17 17L15 17L15 16ZM21 16L21 17L22 17L22 16ZM18 17L18 18L19 18L19 17ZM6 18L6 19L7 19L7 20L6 20L6 21L5 21L5 23L8 23L8 22L6 22L6 21L9 21L9 20L10 20L10 19L7 19L7 18ZM41 18L41 19L42 19L42 18ZM11 19L11 21L10 21L10 22L9 22L9 23L10 23L10 24L11 24L11 25L13 25L13 24L11 24L11 23L12 23L12 22L13 22L13 23L14 23L14 21L12 21L12 19ZM13 19L13 20L14 20L14 19ZM32 20L32 21L31 21L31 22L30 22L30 23L28 23L28 24L25 24L25 25L26 25L26 26L25 26L25 27L26 27L26 26L29 26L29 24L30 24L30 23L31 23L31 24L32 24L32 26L33 26L33 27L34 27L34 26L36 26L36 27L39 27L39 25L42 25L42 24L43 24L43 23L41 23L41 24L38 24L38 22L39 22L39 23L40 23L40 22L39 22L39 21L41 21L41 20L38 20L38 22L37 22L37 24L38 24L38 26L37 26L37 25L33 25L33 24L32 24L32 23L35 23L35 21L33 21L33 20ZM1 24L1 26L2 26L2 24ZM15 24L15 25L16 25L16 24ZM50 24L50 25L51 25L51 24ZM1 27L1 28L2 28L2 27ZM5 27L5 30L8 30L8 27ZM27 27L27 30L30 30L30 27ZM49 27L49 30L52 30L52 27ZM6 28L6 29L7 29L7 28ZM9 28L9 31L10 31L10 32L9 32L9 33L11 33L11 32L12 32L12 33L14 33L14 32L12 32L12 31L13 31L13 30L14 30L14 28L12 28L12 29L13 29L13 30L11 30L11 29L10 29L10 28ZM16 28L16 29L18 29L18 28ZM28 28L28 29L29 29L29 28ZM50 28L50 29L51 29L51 28ZM54 28L54 29L56 29L56 28ZM3 29L3 30L2 30L2 31L3 31L3 32L4 32L4 33L5 33L5 34L4 34L4 35L6 35L6 36L8 36L8 34L7 34L7 33L5 33L5 32L7 32L7 31L3 31L3 30L4 30L4 29ZM10 30L10 31L11 31L11 30ZM32 30L32 34L31 34L31 35L32 35L32 34L35 34L35 36L32 36L32 37L33 37L33 39L34 39L34 38L35 38L35 36L37 36L37 37L38 37L38 35L37 35L37 34L35 34L35 33L33 33L33 32L34 32L34 31L33 31L33 30ZM30 31L30 32L29 32L29 33L31 33L31 31ZM47 31L47 32L48 32L48 33L49 33L49 32L48 32L48 31ZM17 33L17 34L18 34L18 33ZM19 33L19 34L20 34L20 33ZM21 33L21 35L20 35L20 36L23 36L23 35L22 35L22 33ZM6 34L6 35L7 35L7 34ZM42 34L42 35L41 35L41 36L40 36L40 37L41 37L41 38L42 38L42 37L41 37L41 36L42 36L42 35L43 35L43 36L44 36L44 37L45 37L45 36L44 36L44 35L43 35L43 34ZM50 34L50 35L52 35L52 34ZM18 35L18 37L17 37L17 39L19 39L19 38L18 38L18 37L19 37L19 35ZM13 36L13 37L14 37L14 36ZM50 36L50 37L49 37L49 38L50 38L50 37L51 37L51 36ZM15 37L15 38L14 38L14 39L15 39L15 40L16 40L16 39L15 39L15 38L16 38L16 37ZM27 37L27 38L26 38L26 40L27 40L27 41L26 41L26 42L27 42L27 41L29 41L29 40L28 40L28 39L27 39L27 38L28 38L28 37ZM54 38L54 39L55 39L55 38ZM35 39L35 40L38 40L38 39ZM9 40L9 41L10 41L10 40ZM0 41L0 43L1 43L1 44L0 44L0 48L5 48L5 47L7 47L7 46L5 46L5 47L3 47L3 43L1 43L1 41ZM15 41L15 42L16 42L16 41ZM23 41L23 42L22 42L22 43L21 43L21 44L22 44L22 45L21 45L21 47L23 47L23 46L25 46L25 44L24 44L24 43L25 43L25 41ZM5 42L5 43L6 43L6 44L7 44L7 43L6 43L6 42ZM23 42L23 43L24 43L24 42ZM41 42L41 44L40 44L40 43L39 43L39 44L40 44L40 45L41 45L41 44L42 44L42 42ZM51 42L51 43L53 43L53 42ZM1 44L1 45L2 45L2 44ZM23 44L23 45L22 45L22 46L23 46L23 45L24 45L24 44ZM38 45L38 46L39 46L39 47L38 47L38 48L37 48L37 49L38 49L38 48L39 48L39 47L40 47L40 46L39 46L39 45ZM1 46L1 47L2 47L2 46ZM11 46L11 47L12 47L12 46ZM51 46L51 47L53 47L53 46ZM8 47L8 51L10 51L10 50L11 50L11 51L12 51L12 50L11 50L11 49L9 49L9 47ZM6 48L6 49L7 49L7 48ZM45 48L45 49L46 49L46 48ZM55 48L55 49L56 49L56 48ZM27 49L27 52L30 52L30 49ZM33 49L33 50L34 50L34 49ZM49 49L49 52L52 52L52 49ZM28 50L28 51L29 51L29 50ZM43 50L43 51L44 51L44 50ZM50 50L50 51L51 51L51 50ZM8 52L8 57L10 57L10 56L11 56L11 57L13 57L13 56L12 56L12 55L13 55L13 54L12 54L12 55L11 55L11 54L9 54L9 52ZM11 52L11 53L13 53L13 52ZM38 52L38 53L39 53L39 52ZM53 52L53 53L54 53L54 52ZM33 53L33 54L35 54L35 56L36 56L36 54L35 54L35 53ZM25 54L25 55L26 55L26 54ZM41 54L41 55L42 55L42 54ZM50 55L50 56L51 56L51 55ZM53 55L53 56L55 56L55 57L56 57L56 56L55 56L55 55ZM25 56L25 57L26 57L26 56ZM46 56L46 57L47 57L47 56ZM0 0L0 7L7 7L7 0ZM1 1L1 6L6 6L6 1ZM2 2L2 5L5 5L5 2ZM50 0L50 7L57 7L57 0ZM51 1L51 6L56 6L56 1ZM52 2L52 5L55 5L55 2ZM0 50L0 57L7 57L7 50ZM1 51L1 56L6 56L6 51ZM2 52L2 55L5 55L5 52Z" fill="#000000"/></g></g></svg>
