<?xml version="1.0" encoding="UTF-8"?>
<svg xmlns="http://www.w3.org/2000/svg" version="1.1" width="300" height="300" viewBox="0 0 300 300"><rect x="0" y="0" width="300" height="300" fill="#fefefe"/><g transform="scale(4.615)"><g transform="translate(4,4)"><path fill-rule="evenodd" d="M8 0L8 1L9 1L9 2L8 2L8 5L9 5L9 6L8 6L8 7L9 7L9 8L8 8L8 9L7 9L7 8L6 8L6 9L5 9L5 10L4 10L4 11L3 11L3 9L4 9L4 8L0 8L0 10L1 10L1 12L0 12L0 13L2 13L2 14L3 14L3 15L0 15L0 18L1 18L1 20L0 20L0 22L1 22L1 23L0 23L0 24L1 24L1 27L2 27L2 29L3 29L3 31L1 31L1 33L0 33L0 36L1 36L1 37L3 37L3 36L1 36L1 35L4 35L4 34L2 34L2 33L3 33L3 31L5 31L5 32L4 32L4 33L5 33L5 35L7 35L7 36L6 36L6 37L9 37L9 38L6 38L6 39L8 39L8 41L7 41L7 40L6 40L6 41L7 41L7 42L6 42L6 43L8 43L8 44L6 44L6 45L7 45L7 46L5 46L5 45L2 45L2 47L1 47L1 45L0 45L0 48L5 48L5 47L7 47L7 48L6 48L6 49L8 49L8 50L10 50L10 51L9 51L9 53L8 53L8 57L9 57L9 56L10 56L10 55L11 55L11 56L12 56L12 57L13 57L13 56L15 56L15 57L18 57L18 55L17 55L17 54L18 54L18 53L17 53L17 54L16 54L16 53L15 53L15 52L13 52L13 51L12 51L12 50L14 50L14 51L17 51L17 52L18 52L18 50L16 50L16 49L19 49L19 50L20 50L20 52L19 52L19 55L20 55L20 56L21 56L21 57L24 57L24 56L26 56L26 54L25 54L25 53L29 53L29 54L31 54L31 55L30 55L30 56L31 56L31 57L32 57L32 55L33 55L33 54L36 54L36 55L34 55L34 56L33 56L33 57L36 57L36 55L37 55L37 54L36 54L36 53L35 53L35 52L36 52L36 51L37 51L37 52L39 52L39 54L38 54L38 57L42 57L42 56L45 56L45 57L46 57L46 55L44 55L44 54L47 54L47 55L48 55L48 56L49 56L49 57L51 57L51 54L52 54L52 53L53 53L53 54L54 54L54 52L55 52L55 54L56 54L56 53L57 53L57 52L56 52L56 51L55 51L55 50L57 50L57 48L56 48L56 49L55 49L55 50L53 50L53 48L54 48L54 47L57 47L57 45L56 45L56 46L53 46L53 47L51 47L51 46L50 46L50 45L51 45L51 44L52 44L52 45L55 45L55 44L52 44L52 43L53 43L53 42L54 42L54 43L56 43L56 44L57 44L57 43L56 43L56 42L57 42L57 40L56 40L56 41L55 41L55 42L54 42L54 40L55 40L55 38L56 38L56 39L57 39L57 38L56 38L56 37L57 37L57 36L56 36L56 35L57 35L57 34L56 34L56 33L57 33L57 31L56 31L56 30L57 30L57 29L56 29L56 30L55 30L55 32L54 32L54 34L52 34L52 32L53 32L53 31L54 31L54 30L53 30L53 28L54 28L54 29L55 29L55 27L53 27L53 26L52 26L52 25L50 25L50 26L46 26L46 25L45 25L45 26L46 26L46 30L44 30L44 31L41 31L41 30L42 30L42 29L43 29L43 28L44 28L44 29L45 29L45 27L44 27L44 23L45 23L45 24L46 24L46 23L47 23L47 22L49 22L49 20L50 20L50 21L51 21L51 22L52 22L52 23L53 23L53 25L56 25L56 24L54 24L54 23L57 23L57 20L54 20L54 21L56 21L56 22L53 22L53 20L50 20L50 18L49 18L49 20L48 20L48 21L47 21L47 19L48 19L48 14L47 14L47 17L46 17L46 15L45 15L45 16L44 16L44 10L45 10L45 9L44 9L44 10L43 10L43 8L44 8L44 7L45 7L45 8L46 8L46 7L47 7L47 10L46 10L46 11L48 11L48 12L49 12L49 17L51 17L51 19L56 19L56 18L57 18L57 15L55 15L55 13L57 13L57 12L56 12L56 11L57 11L57 10L56 10L56 9L57 9L57 8L56 8L56 9L55 9L55 8L52 8L52 9L51 9L51 10L53 10L53 13L52 13L52 12L51 12L51 11L50 11L50 10L49 10L49 9L50 9L50 8L49 8L49 6L48 6L48 7L47 7L47 5L48 5L48 0L46 0L46 1L47 1L47 2L46 2L46 3L47 3L47 5L46 5L46 4L44 4L44 3L45 3L45 1L44 1L44 2L41 2L41 1L43 1L43 0L41 0L41 1L40 1L40 0L39 0L39 1L40 1L40 2L41 2L41 4L39 4L39 2L37 2L37 1L38 1L38 0L37 0L37 1L36 1L36 0L35 0L35 1L34 1L34 3L35 3L35 4L36 4L36 5L37 5L37 6L36 6L36 7L35 7L35 6L34 6L34 5L33 5L33 6L32 6L32 5L31 5L31 4L32 4L32 3L33 3L33 1L31 1L31 0L29 0L29 4L26 4L26 0L23 0L23 1L25 1L25 2L24 2L24 3L23 3L23 4L22 4L22 0L21 0L21 2L18 2L18 3L17 3L17 2L15 2L15 3L17 3L17 4L19 4L19 5L15 5L15 4L14 4L14 3L12 3L12 2L13 2L13 1L12 1L12 0L11 0L11 5L10 5L10 4L9 4L9 3L10 3L10 1L9 1L9 0ZM14 0L14 1L15 1L15 0ZM19 0L19 1L20 1L20 0ZM27 1L27 3L28 3L28 1ZM30 1L30 2L31 2L31 1ZM35 1L35 2L36 2L36 1ZM19 3L19 4L20 4L20 5L21 5L21 7L20 7L20 6L19 6L19 7L20 7L20 10L18 10L18 9L19 9L19 8L18 8L18 6L17 6L17 7L16 7L16 6L15 6L15 7L14 7L14 6L13 6L13 5L14 5L14 4L13 4L13 5L12 5L12 6L11 6L11 7L12 7L12 6L13 6L13 9L14 9L14 11L16 11L16 10L18 10L18 12L17 12L17 13L16 13L16 12L15 12L15 15L16 15L16 16L17 16L17 17L18 17L18 18L17 18L17 19L16 19L16 17L14 17L14 18L10 18L10 17L11 17L11 16L10 16L10 15L8 15L8 16L7 16L7 15L6 15L6 14L7 14L7 13L10 13L10 14L12 14L12 13L10 13L10 11L12 11L12 9L11 9L11 8L10 8L10 10L9 10L9 12L8 12L8 10L7 10L7 9L6 9L6 10L5 10L5 11L4 11L4 12L7 12L7 13L5 13L5 16L7 16L7 17L6 17L6 18L9 18L9 19L10 19L10 20L8 20L8 19L5 19L5 17L3 17L3 16L2 16L2 17L1 17L1 18L2 18L2 19L4 19L4 20L3 20L3 21L2 21L2 20L1 20L1 22L2 22L2 23L3 23L3 25L2 25L2 26L3 26L3 25L5 25L5 26L7 26L7 25L10 25L10 26L9 26L9 27L11 27L11 28L9 28L9 29L10 29L10 30L9 30L9 31L6 31L6 32L5 32L5 33L6 33L6 34L7 34L7 35L8 35L8 34L7 34L7 33L9 33L9 34L10 34L10 35L11 35L11 37L14 37L14 38L17 38L17 39L16 39L16 40L15 40L15 39L13 39L13 40L12 40L12 38L11 38L11 40L9 40L9 41L8 41L8 42L9 42L9 44L8 44L8 45L9 45L9 46L11 46L11 45L12 45L12 47L11 47L11 50L12 50L12 49L13 49L13 48L14 48L14 47L15 47L15 46L16 46L16 47L17 47L17 45L19 45L19 43L18 43L18 41L19 41L19 42L21 42L21 44L22 44L22 46L21 46L21 45L20 45L20 46L19 46L19 47L20 47L20 46L21 46L21 47L22 47L22 46L23 46L23 44L22 44L22 41L23 41L23 42L25 42L25 43L26 43L26 45L25 45L25 44L24 44L24 45L25 45L25 47L26 47L26 48L24 48L24 47L23 47L23 48L20 48L20 49L21 49L21 50L22 50L22 49L23 49L23 51L22 51L22 53L23 53L23 52L24 52L24 53L25 53L25 52L26 52L26 51L24 51L24 50L26 50L26 48L28 48L28 46L29 46L29 47L30 47L30 48L32 48L32 49L31 49L31 50L33 50L33 51L34 51L34 50L35 50L35 49L34 49L34 50L33 50L33 47L34 47L34 46L37 46L37 45L38 45L38 47L35 47L35 48L37 48L37 49L36 49L36 50L37 50L37 49L38 49L38 48L39 48L39 49L40 49L40 50L39 50L39 52L40 52L40 54L41 54L41 56L42 56L42 54L43 54L43 51L45 51L45 53L46 53L46 51L45 51L45 49L46 49L46 50L47 50L47 52L48 52L48 48L47 48L47 47L49 47L49 48L51 48L51 47L49 47L49 46L48 46L48 44L44 44L44 43L47 43L47 42L48 42L48 43L49 43L49 44L51 44L51 42L50 42L50 41L52 41L52 40L50 40L50 41L47 41L47 42L45 42L45 41L44 41L44 40L42 40L42 42L41 42L41 39L42 39L42 38L44 38L44 39L45 39L45 40L46 40L46 38L48 38L48 37L50 37L50 36L48 36L48 35L47 35L47 34L50 34L50 33L49 33L49 32L48 32L48 29L47 29L47 33L46 33L46 31L44 31L44 33L45 33L45 36L44 36L44 37L43 37L43 36L42 36L42 34L41 34L41 35L39 35L39 36L38 36L38 35L37 35L37 36L38 36L38 37L39 37L39 36L40 36L40 37L41 37L41 39L39 39L39 38L38 38L38 39L37 39L37 37L34 37L34 39L35 39L35 40L34 40L34 41L36 41L36 42L34 42L34 43L36 43L36 45L35 45L35 44L34 44L34 45L33 45L33 42L32 42L32 43L31 43L31 46L30 46L30 44L29 44L29 45L27 45L27 44L28 44L28 43L29 43L29 42L31 42L31 40L33 40L33 39L32 39L32 38L33 38L33 36L32 36L32 35L31 35L31 34L32 34L32 33L33 33L33 35L34 35L34 36L36 36L36 35L35 35L35 31L32 31L32 30L31 30L31 34L30 34L30 35L29 35L29 33L30 33L30 31L28 31L28 33L27 33L27 31L25 31L25 30L26 30L26 28L24 28L24 27L25 27L25 25L27 25L27 26L31 26L31 25L29 25L29 24L26 24L26 23L28 23L28 22L25 22L25 21L27 21L27 20L29 20L29 23L30 23L30 24L31 24L31 23L32 23L32 22L33 22L33 24L32 24L32 25L33 25L33 24L35 24L35 23L36 23L36 24L37 24L37 23L38 23L38 24L39 24L39 25L40 25L40 26L38 26L38 27L40 27L40 29L38 29L38 30L36 30L36 29L37 29L37 28L36 28L36 27L35 27L35 25L34 25L34 27L35 27L35 28L34 28L34 29L35 29L35 30L36 30L36 31L37 31L37 32L36 32L36 33L37 33L37 32L38 32L38 34L39 34L39 31L38 31L38 30L41 30L41 27L40 27L40 26L41 26L41 23L42 23L42 24L43 24L43 22L41 22L41 23L40 23L40 24L39 24L39 21L38 21L38 22L35 22L35 21L34 21L34 20L36 20L36 21L37 21L37 20L36 20L36 19L38 19L38 20L40 20L40 19L39 19L39 18L41 18L41 21L44 21L44 22L45 22L45 23L46 23L46 22L47 22L47 21L46 21L46 18L45 18L45 17L42 17L42 14L43 14L43 12L42 12L42 11L43 11L43 10L41 10L41 9L42 9L42 8L41 8L41 7L42 7L42 6L43 6L43 7L44 7L44 6L45 6L45 7L46 7L46 5L43 5L43 4L41 4L41 7L40 7L40 5L38 5L38 6L37 6L37 7L38 7L38 8L36 8L36 9L34 9L34 6L33 6L33 8L32 8L32 6L31 6L31 9L32 9L32 10L28 10L28 11L27 11L27 10L26 10L26 11L25 11L25 13L22 13L22 12L24 12L24 11L20 11L20 10L21 10L21 8L22 8L22 6L23 6L23 7L24 7L24 8L23 8L23 9L22 9L22 10L23 10L23 9L24 9L24 8L25 8L25 9L26 9L26 6L25 6L25 5L26 5L26 4L24 4L24 6L23 6L23 5L21 5L21 3ZM27 5L27 8L30 8L30 5ZM9 6L9 7L10 7L10 6ZM24 6L24 7L25 7L25 6ZM28 6L28 7L29 7L29 6ZM38 6L38 7L39 7L39 6ZM17 8L17 9L18 9L18 8ZM39 8L39 10L38 10L38 9L37 9L37 10L38 10L38 12L35 12L35 11L36 11L36 10L35 10L35 11L34 11L34 10L33 10L33 11L30 11L30 12L31 12L31 13L32 13L32 12L33 12L33 14L32 14L32 15L33 15L33 16L31 16L31 14L30 14L30 13L28 13L28 12L26 12L26 15L25 15L25 14L23 14L23 15L24 15L24 16L23 16L23 18L24 18L24 19L25 19L25 20L27 20L27 19L26 19L26 18L27 18L27 17L29 17L29 18L28 18L28 19L29 19L29 20L30 20L30 23L31 23L31 20L32 20L32 18L31 18L31 19L30 19L30 17L29 17L29 16L31 16L31 17L33 17L33 20L34 20L34 19L35 19L35 17L34 17L34 16L35 16L35 15L36 15L36 13L37 13L37 15L39 15L39 17L40 17L40 16L41 16L41 15L40 15L40 14L41 14L41 13L40 13L40 14L39 14L39 10L40 10L40 11L41 11L41 10L40 10L40 9L41 9L41 8ZM48 8L48 9L49 9L49 8ZM53 9L53 10L54 10L54 13L55 13L55 9ZM6 10L6 11L7 11L7 10ZM48 10L48 11L49 11L49 10ZM2 12L2 13L3 13L3 14L4 14L4 13L3 13L3 12ZM18 12L18 13L19 13L19 14L16 14L16 15L17 15L17 16L19 16L19 17L21 17L21 18L22 18L22 17L21 17L21 13L20 13L20 12ZM34 12L34 14L33 14L33 15L35 15L35 12ZM50 12L50 13L51 13L51 15L54 15L54 14L52 14L52 13L51 13L51 12ZM13 13L13 14L14 14L14 13ZM45 13L45 14L46 14L46 13ZM19 14L19 16L20 16L20 14ZM12 15L12 17L13 17L13 16L14 16L14 15ZM26 15L26 16L25 16L25 17L24 17L24 18L25 18L25 17L27 17L27 15ZM28 15L28 16L29 16L29 15ZM8 16L8 17L10 17L10 16ZM52 16L52 17L53 17L53 18L54 18L54 17L55 17L55 18L56 18L56 17L55 17L55 16ZM2 17L2 18L3 18L3 17ZM36 17L36 18L37 18L37 17ZM41 17L41 18L42 18L42 19L43 19L43 18L42 18L42 17ZM19 18L19 19L20 19L20 18ZM44 18L44 19L45 19L45 18ZM11 19L11 20L10 20L10 21L9 21L9 23L8 23L8 20L5 20L5 22L4 22L4 24L6 24L6 25L7 25L7 24L10 24L10 25L12 25L12 27L13 27L13 28L12 28L12 29L11 29L11 31L10 31L10 32L9 32L9 33L12 33L12 31L13 31L13 28L14 28L14 26L16 26L16 23L17 23L17 21L18 21L18 22L19 22L19 24L17 24L17 27L15 27L15 29L16 29L16 30L15 30L15 32L13 32L13 33L14 33L14 34L12 34L12 35L13 35L13 36L14 36L14 37L15 37L15 36L16 36L16 34L15 34L15 32L16 32L16 30L17 30L17 27L19 27L19 28L18 28L18 29L19 29L19 28L20 28L20 29L21 29L21 30L23 30L23 31L22 31L22 32L20 32L20 31L19 31L19 30L18 30L18 31L17 31L17 33L18 33L18 34L20 34L20 33L21 33L21 34L22 34L22 36L23 36L23 37L22 37L22 38L23 38L23 39L21 39L21 38L20 38L20 37L19 37L19 36L20 36L20 35L19 35L19 36L18 36L18 35L17 35L17 37L18 37L18 39L19 39L19 40L20 40L20 41L22 41L22 40L23 40L23 39L24 39L24 41L25 41L25 42L29 42L29 40L28 40L28 39L30 39L30 38L32 38L32 36L29 36L29 35L28 35L28 34L25 34L25 32L24 32L24 29L21 29L21 27L19 27L19 26L18 26L18 25L20 25L20 26L22 26L22 27L23 27L23 25L25 25L25 22L24 22L24 21L23 21L23 20L21 20L21 21L22 21L22 22L19 22L19 21L18 21L18 19L17 19L17 20L16 20L16 23L15 23L15 24L13 24L13 23L14 23L14 20L15 20L15 19L13 19L13 21L12 21L12 19ZM6 21L6 22L7 22L7 21ZM10 22L10 24L11 24L11 22ZM12 22L12 23L13 23L13 22ZM6 23L6 24L7 24L7 23ZM20 23L20 24L21 24L21 25L23 25L23 24L21 24L21 23ZM48 23L48 25L49 25L49 24L50 24L50 23ZM12 24L12 25L13 25L13 24ZM42 25L42 26L43 26L43 25ZM5 27L5 30L8 30L8 27ZM27 27L27 30L30 30L30 27ZM31 27L31 28L33 28L33 27ZM42 27L42 28L43 28L43 27ZM49 27L49 30L52 30L52 27ZM0 28L0 30L1 30L1 28ZM3 28L3 29L4 29L4 28ZM6 28L6 29L7 29L7 28ZM28 28L28 29L29 29L29 28ZM50 28L50 29L51 29L51 28ZM40 31L40 32L41 32L41 31ZM50 31L50 32L52 32L52 31ZM6 32L6 33L7 33L7 32ZM18 32L18 33L19 33L19 32ZM23 32L23 33L22 33L22 34L23 34L23 33L24 33L24 32ZM33 32L33 33L34 33L34 32ZM42 32L42 33L43 33L43 32ZM24 34L24 35L23 35L23 36L26 36L26 37L24 37L24 39L25 39L25 41L26 41L26 40L27 40L27 39L25 39L25 38L26 38L26 37L27 37L27 38L29 38L29 36L26 36L26 35L25 35L25 34ZM43 34L43 35L44 35L44 34ZM14 35L14 36L15 36L15 35ZM51 35L51 37L52 37L52 39L53 39L53 38L55 38L55 37L56 37L56 36L55 36L55 35L54 35L54 36L55 36L55 37L53 37L53 36L52 36L52 35ZM45 36L45 38L46 38L46 36ZM4 37L4 38L3 38L3 39L2 39L2 38L0 38L0 39L2 39L2 40L3 40L3 42L2 42L2 41L0 41L0 42L2 42L2 44L5 44L5 39L4 39L4 38L5 38L5 37ZM35 38L35 39L36 39L36 38ZM50 38L50 39L51 39L51 38ZM38 39L38 40L37 40L37 41L40 41L40 40L39 40L39 39ZM47 39L47 40L49 40L49 39ZM11 40L11 41L10 41L10 45L11 45L11 44L12 44L12 43L13 43L13 42L14 42L14 44L13 44L13 45L14 45L14 46L15 46L15 45L17 45L17 43L16 43L16 44L15 44L15 42L17 42L17 40L16 40L16 41L15 41L15 40L13 40L13 42L12 42L12 40ZM14 41L14 42L15 42L15 41ZM3 42L3 43L4 43L4 42ZM11 42L11 43L12 43L12 42ZM37 42L37 44L38 44L38 45L41 45L41 46L39 46L39 47L43 47L43 50L44 50L44 48L46 48L46 49L47 49L47 48L46 48L46 47L47 47L47 46L46 46L46 47L45 47L45 45L42 45L42 43L43 43L43 42L42 42L42 43L41 43L41 42ZM49 42L49 43L50 43L50 42ZM0 43L0 44L1 44L1 43ZM38 43L38 44L40 44L40 43ZM26 45L26 46L27 46L27 45ZM32 45L32 46L31 46L31 47L33 47L33 45ZM3 46L3 47L5 47L5 46ZM7 46L7 47L8 47L8 48L9 48L9 49L10 49L10 47L8 47L8 46ZM12 47L12 48L13 48L13 47ZM23 48L23 49L24 49L24 48ZM41 48L41 49L42 49L42 48ZM27 49L27 52L30 52L30 49ZM49 49L49 52L52 52L52 49ZM28 50L28 51L29 51L29 50ZM50 50L50 51L51 51L51 50ZM31 51L31 53L32 53L32 51ZM40 51L40 52L42 52L42 51ZM12 52L12 53L13 53L13 52ZM33 52L33 53L34 53L34 52ZM9 53L9 54L11 54L11 53ZM20 53L20 55L22 55L22 54L21 54L21 53ZM41 53L41 54L42 54L42 53ZM47 53L47 54L50 54L50 53ZM13 54L13 55L12 55L12 56L13 56L13 55L14 55L14 54ZM23 54L23 56L24 56L24 55L25 55L25 54ZM27 55L27 56L28 56L28 55ZM39 55L39 56L40 56L40 55ZM56 55L56 56L57 56L57 55ZM52 56L52 57L53 57L53 56ZM54 56L54 57L55 57L55 56ZM0 0L0 7L7 7L7 0ZM1 1L1 6L6 6L6 1ZM2 2L2 5L5 5L5 2ZM50 0L50 7L57 7L57 0ZM51 1L51 6L56 6L56 1ZM52 2L52 5L55 5L55 2ZM0 50L0 57L7 57L7 50ZM1 51L1 56L6 56L6 51ZM2 52L2 55L5 55L5 52Z" fill="#000000"/></g></g></svg>
