<?xml version="1.0" encoding="UTF-8"?>
<svg xmlns="http://www.w3.org/2000/svg" version="1.1" width="300" height="300" viewBox="0 0 300 300"><rect x="0" y="0" width="300" height="300" fill="#fefefe"/><g transform="scale(4.615)"><g transform="translate(4,4)"><path fill-rule="evenodd" d="M8 0L8 2L9 2L9 3L10 3L10 4L8 4L8 9L7 9L7 8L5 8L5 10L4 10L4 9L3 9L3 8L0 8L0 9L2 9L2 11L3 11L3 13L2 13L2 12L1 12L1 13L0 13L0 14L1 14L1 13L2 13L2 14L3 14L3 15L2 15L2 17L3 17L3 19L4 19L4 20L3 20L3 21L4 21L4 22L3 22L3 23L2 23L2 22L0 22L0 24L1 24L1 23L2 23L2 24L3 24L3 25L2 25L2 26L1 26L1 28L0 28L0 29L2 29L2 30L0 30L0 34L1 34L1 33L2 33L2 32L1 32L1 31L3 31L3 35L2 35L2 36L4 36L4 37L2 37L2 38L1 38L1 37L0 37L0 42L1 42L1 40L2 40L2 41L3 41L3 39L9 39L9 41L8 41L8 40L5 40L5 41L4 41L4 42L2 42L2 43L0 43L0 44L2 44L2 45L3 45L3 46L2 46L2 47L1 47L1 45L0 45L0 48L5 48L5 47L7 47L7 46L8 46L8 48L9 48L9 49L8 49L8 50L9 50L9 51L8 51L8 52L9 52L9 51L10 51L10 52L11 52L11 51L10 51L10 50L11 50L11 49L12 49L12 53L9 53L9 54L8 54L8 57L10 57L10 56L11 56L11 57L17 57L17 56L18 56L18 57L20 57L20 56L19 56L19 52L20 52L20 53L21 53L21 51L22 51L22 54L23 54L23 55L22 55L22 57L24 57L24 56L25 56L25 55L24 55L24 54L25 54L25 51L26 51L26 55L27 55L27 56L26 56L26 57L28 57L28 55L29 55L29 57L33 57L33 55L34 55L34 57L35 57L35 55L37 55L37 54L36 54L36 53L37 53L37 51L38 51L38 53L39 53L39 56L40 56L40 57L41 57L41 56L43 56L43 54L42 54L42 53L43 53L43 52L44 52L44 55L45 55L45 54L46 54L46 56L44 56L44 57L46 57L46 56L47 56L47 57L50 57L50 55L49 55L49 54L52 54L52 55L53 55L53 56L51 56L51 57L53 57L53 56L54 56L54 55L57 55L57 54L54 54L54 53L56 53L56 51L57 51L57 49L56 49L56 47L57 47L57 45L56 45L56 44L57 44L57 42L56 42L56 44L55 44L55 45L54 45L54 46L53 46L53 47L52 47L52 45L53 45L53 44L54 44L54 43L55 43L55 42L54 42L54 41L57 41L57 40L54 40L54 39L55 39L55 38L57 38L57 37L56 37L56 35L57 35L57 33L56 33L56 31L57 31L57 24L56 24L56 23L57 23L57 21L56 21L56 20L55 20L55 21L54 21L54 19L55 19L55 18L56 18L56 19L57 19L57 13L56 13L56 11L57 11L57 10L56 10L56 9L57 9L57 8L55 8L55 9L54 9L54 10L53 10L53 8L49 8L49 10L50 10L50 13L49 13L49 14L48 14L48 9L47 9L47 11L46 11L46 8L48 8L48 7L49 7L49 6L48 6L48 7L47 7L47 5L48 5L48 0L42 0L42 1L41 1L41 0L38 0L38 2L37 2L37 1L35 1L35 0L34 0L34 3L33 3L33 6L32 6L32 7L33 7L33 6L34 6L34 8L32 8L32 9L31 9L31 5L32 5L32 2L33 2L33 1L32 1L32 2L30 2L30 3L31 3L31 4L28 4L28 3L29 3L29 2L28 2L28 0L26 0L26 2L25 2L25 4L24 4L24 1L25 1L25 0L24 0L24 1L23 1L23 0L20 0L20 1L19 1L19 2L18 2L18 0L16 0L16 2L15 2L15 0L14 0L14 3L13 3L13 1L12 1L12 0L11 0L11 2L10 2L10 1L9 1L9 0ZM30 0L30 1L31 1L31 0ZM20 1L20 2L19 2L19 3L18 3L18 2L17 2L17 3L16 3L16 4L17 4L17 3L18 3L18 4L19 4L19 7L20 7L20 5L22 5L22 6L21 6L21 9L20 9L20 10L21 10L21 12L20 12L20 11L18 11L18 12L20 12L20 14L19 14L19 13L18 13L18 14L17 14L17 11L16 11L16 10L19 10L19 9L18 9L18 6L17 6L17 5L16 5L16 6L15 6L15 5L12 5L12 3L11 3L11 4L10 4L10 5L9 5L9 7L10 7L10 9L11 9L11 10L12 10L12 12L11 12L11 11L10 11L10 10L9 10L9 11L10 11L10 12L11 12L11 13L10 13L10 15L11 15L11 16L12 16L12 17L11 17L11 20L10 20L10 16L8 16L8 15L6 15L6 14L9 14L9 13L5 13L5 15L4 15L4 16L5 16L5 15L6 15L6 16L7 16L7 17L5 17L5 18L4 18L4 19L5 19L5 18L7 18L7 17L9 17L9 18L8 18L8 19L6 19L6 20L4 20L4 21L6 21L6 22L7 22L7 21L6 21L6 20L8 20L8 21L9 21L9 24L8 24L8 23L3 23L3 24L5 24L5 25L4 25L4 26L5 26L5 25L6 25L6 26L7 26L7 25L6 25L6 24L8 24L8 25L9 25L9 26L10 26L10 28L9 28L9 30L10 30L10 32L9 32L9 31L6 31L6 32L5 32L5 33L4 33L4 34L5 34L5 33L6 33L6 34L7 34L7 33L6 33L6 32L8 32L8 35L5 35L5 37L4 37L4 38L5 38L5 37L6 37L6 38L7 38L7 37L8 37L8 35L9 35L9 37L10 37L10 36L11 36L11 35L12 35L12 34L13 34L13 32L12 32L12 30L13 30L13 31L14 31L14 32L16 32L16 31L17 31L17 33L16 33L16 35L14 35L14 37L15 37L15 38L12 38L12 37L11 37L11 38L12 38L12 39L13 39L13 40L14 40L14 39L15 39L15 40L17 40L17 41L16 41L16 43L17 43L17 41L18 41L18 40L19 40L19 41L20 41L20 43L18 43L18 44L19 44L19 45L18 45L18 46L17 46L17 44L15 44L15 45L14 45L14 43L15 43L15 41L13 41L13 42L12 42L12 41L11 41L11 39L10 39L10 43L11 43L11 44L10 44L10 46L9 46L9 48L10 48L10 46L11 46L11 45L12 45L12 43L13 43L13 46L12 46L12 47L13 47L13 48L12 48L12 49L13 49L13 52L14 52L14 53L13 53L13 54L14 54L14 53L15 53L15 52L14 52L14 49L13 49L13 48L14 48L14 47L15 47L15 45L16 45L16 46L17 46L17 47L16 47L16 48L15 48L15 50L16 50L16 52L17 52L17 54L16 54L16 55L18 55L18 51L17 51L17 49L18 49L18 50L19 50L19 49L18 49L18 46L19 46L19 47L20 47L20 46L22 46L22 48L20 48L20 50L22 50L22 48L23 48L23 49L24 49L24 51L23 51L23 52L24 52L24 51L25 51L25 50L26 50L26 48L27 48L27 46L29 46L29 47L28 47L28 48L31 48L31 50L32 50L32 51L31 51L31 52L32 52L32 51L33 51L33 52L34 52L34 54L35 54L35 53L36 53L36 52L34 52L34 51L37 51L37 49L36 49L36 48L37 48L37 47L38 47L38 51L39 51L39 49L40 49L40 51L41 51L41 49L42 49L42 50L43 50L43 51L42 51L42 52L43 52L43 51L45 51L45 49L44 49L44 48L45 48L45 47L44 47L44 46L45 46L45 45L44 45L44 44L45 44L45 43L47 43L47 44L46 44L46 47L48 47L48 46L49 46L49 47L50 47L50 46L49 46L49 45L48 45L48 46L47 46L47 44L48 44L48 42L49 42L49 44L50 44L50 45L51 45L51 44L50 44L50 42L49 42L49 41L51 41L51 40L52 40L52 44L53 44L53 41L54 41L54 40L52 40L52 38L53 38L53 39L54 39L54 38L53 38L53 37L54 37L54 36L55 36L55 33L53 33L53 31L51 31L51 32L50 32L50 31L49 31L49 32L50 32L50 33L49 33L49 34L48 34L48 33L47 33L47 32L46 32L46 31L47 31L47 29L48 29L48 28L46 28L46 29L45 29L45 30L44 30L44 27L46 27L46 26L47 26L47 27L48 27L48 26L49 26L49 25L48 25L48 23L49 23L49 24L50 24L50 23L51 23L51 22L52 22L52 24L51 24L51 25L50 25L50 26L51 26L51 25L52 25L52 24L53 24L53 23L54 23L54 26L55 26L55 27L54 27L54 28L53 28L53 29L56 29L56 24L55 24L55 23L56 23L56 21L55 21L55 23L54 23L54 21L53 21L53 22L52 22L52 20L53 20L53 19L54 19L54 17L53 17L53 18L52 18L52 16L53 16L53 14L54 14L54 16L55 16L55 17L56 17L56 16L55 16L55 15L56 15L56 13L55 13L55 11L56 11L56 10L55 10L55 11L54 11L54 12L53 12L53 14L52 14L52 13L50 13L50 16L49 16L49 17L48 17L48 19L47 19L47 17L46 17L46 19L45 19L45 17L44 17L44 16L47 16L47 15L48 15L48 14L47 14L47 13L46 13L46 11L45 11L45 9L44 9L44 8L46 8L46 6L45 6L45 5L44 5L44 4L45 4L45 2L47 2L47 1L42 1L42 3L41 3L41 2L40 2L40 1L39 1L39 2L38 2L38 3L37 3L37 2L35 2L35 3L34 3L34 4L35 4L35 9L34 9L34 10L33 10L33 9L32 9L32 12L30 12L30 11L31 11L31 9L30 9L30 11L29 11L29 9L27 9L27 10L25 10L25 9L26 9L26 5L24 5L24 6L23 6L23 3L22 3L22 2L21 2L21 1ZM20 2L20 3L21 3L21 2ZM27 2L27 3L26 3L26 4L27 4L27 3L28 3L28 2ZM39 2L39 3L38 3L38 5L39 5L39 4L40 4L40 2ZM43 2L43 3L42 3L42 7L41 7L41 6L40 6L40 7L39 7L39 6L38 6L38 8L37 8L37 6L36 6L36 10L34 10L34 11L33 11L33 12L32 12L32 13L31 13L31 14L32 14L32 13L33 13L33 15L32 15L32 17L31 17L31 16L30 16L30 15L29 15L29 13L30 13L30 12L29 12L29 11L28 11L28 12L27 12L27 14L28 14L28 15L29 15L29 16L30 16L30 17L28 17L28 18L30 18L30 17L31 17L31 18L32 18L32 17L33 17L33 18L34 18L34 19L30 19L30 20L28 20L28 19L27 19L27 20L26 20L26 18L27 18L27 17L26 17L26 14L24 14L24 12L25 12L25 13L26 13L26 11L22 11L22 12L23 12L23 14L24 14L24 15L23 15L23 16L22 16L22 14L21 14L21 18L20 18L20 16L18 16L18 17L17 17L17 16L14 16L14 15L13 15L13 12L12 12L12 16L14 16L14 17L12 17L12 18L13 18L13 19L12 19L12 20L11 20L11 21L10 21L10 20L9 20L9 19L8 19L8 20L9 20L9 21L10 21L10 22L11 22L11 23L10 23L10 24L9 24L9 25L14 25L14 27L15 27L15 28L13 28L13 26L12 26L12 28L10 28L10 29L12 29L12 28L13 28L13 30L15 30L15 31L16 31L16 30L15 30L15 28L16 28L16 27L17 27L17 26L16 26L16 25L17 25L17 24L18 24L18 25L19 25L19 26L20 26L20 27L21 27L21 28L20 28L20 29L19 29L19 30L17 30L17 31L19 31L19 32L18 32L18 33L17 33L17 35L19 35L19 36L16 36L16 37L17 37L17 38L16 38L16 39L17 39L17 40L18 40L18 39L19 39L19 40L20 40L20 41L21 41L21 40L22 40L22 41L23 41L23 38L22 38L22 37L23 37L23 35L25 35L25 36L24 36L24 37L26 37L26 38L24 38L24 39L26 39L26 40L25 40L25 41L26 41L26 42L25 42L25 43L24 43L24 44L23 44L23 43L22 43L22 44L23 44L23 48L24 48L24 47L26 47L26 46L27 46L27 44L30 44L30 45L29 45L29 46L30 46L30 47L31 47L31 48L32 48L32 49L33 49L33 51L34 51L34 48L35 48L35 47L37 47L37 46L38 46L38 45L37 45L37 44L40 44L40 46L39 46L39 47L40 47L40 49L41 49L41 47L42 47L42 45L43 45L43 44L42 44L42 45L41 45L41 44L40 44L40 43L43 43L43 42L42 42L42 41L43 41L43 39L44 39L44 42L46 42L46 41L48 41L48 40L51 40L51 38L52 38L52 37L53 37L53 36L54 36L54 34L53 34L53 36L51 36L51 33L50 33L50 36L51 36L51 38L50 38L50 37L49 37L49 39L48 39L48 40L47 40L47 38L46 38L46 37L48 37L48 36L49 36L49 35L48 35L48 34L46 34L46 32L45 32L45 31L46 31L46 30L45 30L45 31L42 31L42 28L43 28L43 27L44 27L44 26L46 26L46 25L47 25L47 26L48 26L48 25L47 25L47 23L48 23L48 21L49 21L49 20L51 20L51 18L50 18L50 17L49 17L49 19L48 19L48 20L47 20L47 23L46 23L46 20L45 20L45 19L44 19L44 17L43 17L43 18L42 18L42 17L41 17L41 15L42 15L42 12L44 12L44 14L43 14L43 16L44 16L44 14L45 14L45 15L46 15L46 13L45 13L45 12L44 12L44 11L43 11L43 10L44 10L44 9L43 9L43 10L42 10L42 9L41 9L41 8L42 8L42 7L43 7L43 6L44 6L44 7L45 7L45 6L44 6L44 5L43 5L43 4L44 4L44 2ZM14 3L14 4L15 4L15 3ZM35 3L35 4L36 4L36 3ZM46 3L46 5L47 5L47 3ZM10 5L10 7L11 7L11 6L12 6L12 8L11 8L11 9L13 9L13 8L14 8L14 9L15 9L15 8L14 8L14 7L15 7L15 6L14 6L14 7L13 7L13 6L12 6L12 5ZM27 5L27 8L30 8L30 5ZM16 6L16 7L17 7L17 6ZM22 6L22 7L23 7L23 6ZM24 6L24 7L25 7L25 6ZM28 6L28 7L29 7L29 6ZM40 7L40 8L38 8L38 10L37 10L37 11L34 11L34 12L35 12L35 13L34 13L34 15L33 15L33 17L34 17L34 18L36 18L36 19L37 19L37 18L36 18L36 15L37 15L37 16L38 16L38 18L40 18L40 19L39 19L39 21L38 21L38 20L37 20L37 21L36 21L36 20L35 20L35 19L34 19L34 20L33 20L33 21L32 21L32 20L30 20L30 22L33 22L33 21L34 21L34 22L35 22L35 23L36 23L36 24L34 24L34 23L33 23L33 24L34 24L34 26L33 26L33 25L32 25L32 23L30 23L30 24L29 24L29 26L31 26L31 25L32 25L32 27L31 27L31 30L32 30L32 31L31 31L31 32L30 32L30 34L31 34L31 35L28 35L28 34L29 34L29 31L27 31L27 33L28 33L28 34L26 34L26 30L25 30L25 29L24 29L24 31L23 31L23 32L24 32L24 34L26 34L26 36L27 36L27 38L26 38L26 39L27 39L27 41L28 41L28 42L27 42L27 43L28 43L28 42L29 42L29 43L30 43L30 44L31 44L31 45L30 45L30 46L32 46L32 47L33 47L33 48L34 48L34 47L35 47L35 45L36 45L36 44L37 44L37 43L40 43L40 42L41 42L41 41L40 41L40 40L42 40L42 39L43 39L43 38L44 38L44 34L45 34L45 33L44 33L44 34L43 34L43 33L42 33L42 31L40 31L40 30L41 30L41 29L40 29L40 28L41 28L41 25L40 25L40 27L39 27L39 29L38 29L38 28L37 28L37 30L36 30L36 27L37 27L37 26L36 26L36 24L37 24L37 25L38 25L38 26L39 26L39 23L42 23L42 27L43 27L43 26L44 26L44 24L46 24L46 23L44 23L44 22L45 22L45 21L44 21L44 19L43 19L43 20L42 20L42 19L41 19L41 18L40 18L40 15L41 15L41 13L40 13L40 12L37 12L37 11L38 11L38 10L39 10L39 11L40 11L40 10L41 10L41 9L40 9L40 8L41 8L41 7ZM22 8L22 9L23 9L23 10L24 10L24 9L25 9L25 8L24 8L24 9L23 9L23 8ZM6 9L6 10L7 10L7 9ZM50 9L50 10L51 10L51 12L52 12L52 9ZM0 10L0 11L1 11L1 10ZM3 10L3 11L4 11L4 12L8 12L8 11L4 11L4 10ZM14 11L14 12L15 12L15 11ZM41 11L41 12L42 12L42 11ZM36 12L36 14L35 14L35 15L34 15L34 17L35 17L35 15L36 15L36 14L37 14L37 15L38 15L38 13L37 13L37 12ZM39 13L39 14L40 14L40 13ZM15 14L15 15L17 15L17 14ZM51 14L51 15L52 15L52 14ZM0 15L0 16L1 16L1 15ZM24 16L24 18L26 18L26 17L25 17L25 16ZM0 17L0 18L1 18L1 19L2 19L2 18L1 18L1 17ZM16 17L16 20L17 20L17 21L18 21L18 20L19 20L19 25L20 25L20 26L21 26L21 25L22 25L22 24L23 24L23 23L22 23L22 22L21 22L21 21L22 21L22 20L23 20L23 18L22 18L22 20L21 20L21 21L20 21L20 18L18 18L18 19L17 19L17 17ZM14 19L14 20L15 20L15 19ZM24 19L24 20L25 20L25 21L26 21L26 20L25 20L25 19ZM40 19L40 22L42 22L42 23L43 23L43 22L44 22L44 21L43 21L43 22L42 22L42 20L41 20L41 19ZM1 20L1 21L2 21L2 20ZM12 20L12 22L13 22L13 20ZM27 20L27 22L26 22L26 23L27 23L27 25L26 25L26 26L27 26L27 25L28 25L28 22L29 22L29 21L28 21L28 20ZM34 20L34 21L35 21L35 22L36 22L36 23L38 23L38 21L37 21L37 22L36 22L36 21L35 21L35 20ZM14 21L14 22L15 22L15 21ZM16 22L16 23L18 23L18 22ZM20 22L20 23L21 23L21 24L22 24L22 23L21 23L21 22ZM24 22L24 23L25 23L25 22ZM49 22L49 23L50 23L50 22ZM11 23L11 24L12 24L12 23ZM24 25L24 26L25 26L25 25ZM2 26L2 27L3 27L3 28L2 28L2 29L3 29L3 31L4 31L4 27L3 27L3 26ZM5 27L5 30L8 30L8 27ZM18 27L18 28L19 28L19 27ZM22 27L22 28L25 28L25 27ZM27 27L27 30L30 30L30 27ZM34 27L34 29L33 29L33 28L32 28L32 29L33 29L33 31L34 31L34 32L32 32L32 35L31 35L31 36L30 36L30 40L31 40L31 38L34 38L34 36L35 36L35 35L36 35L36 37L35 37L35 38L36 38L36 41L35 41L35 39L34 39L34 41L33 41L33 40L32 40L32 46L33 46L33 47L34 47L34 45L33 45L33 44L35 44L35 43L36 43L36 41L37 41L37 42L38 42L38 41L39 41L39 38L40 38L40 39L41 39L41 36L42 36L42 37L43 37L43 36L42 36L42 35L40 35L40 36L39 36L39 34L38 34L38 33L39 33L39 32L40 32L40 34L42 34L42 33L41 33L41 32L40 32L40 31L38 31L38 30L37 30L37 31L36 31L36 33L35 33L35 35L33 35L33 34L34 34L34 32L35 32L35 31L34 31L34 29L35 29L35 27ZM49 27L49 30L52 30L52 27ZM6 28L6 29L7 29L7 28ZM28 28L28 29L29 29L29 28ZM50 28L50 29L51 29L51 28ZM20 29L20 30L19 30L19 31L20 31L20 32L21 32L21 33L20 33L20 34L23 34L23 33L22 33L22 30L23 30L23 29L22 29L22 30L21 30L21 29ZM20 30L20 31L21 31L21 30ZM54 30L54 32L55 32L55 31L56 31L56 30ZM37 31L37 32L38 32L38 31ZM11 32L11 33L9 33L9 35L10 35L10 34L12 34L12 32ZM14 33L14 34L15 34L15 33ZM36 33L36 35L37 35L37 36L38 36L38 38L37 38L37 37L36 37L36 38L37 38L37 41L38 41L38 38L39 38L39 36L38 36L38 34L37 34L37 33ZM0 35L0 36L1 36L1 35ZM20 35L20 36L21 36L21 37L22 37L22 36L21 36L21 35ZM27 35L27 36L28 36L28 37L29 37L29 36L28 36L28 35ZM45 35L45 37L46 37L46 35ZM6 36L6 37L7 37L7 36ZM31 36L31 37L32 37L32 36ZM17 38L17 39L18 39L18 38ZM20 38L20 39L22 39L22 38ZM28 38L28 39L29 39L29 38ZM45 39L45 41L46 41L46 39ZM28 40L28 41L29 41L29 42L30 42L30 43L31 43L31 41L29 41L29 40ZM5 41L5 43L3 43L3 44L4 44L4 45L5 45L5 44L7 44L7 45L6 45L6 46L7 46L7 45L9 45L9 42L8 42L8 41ZM34 41L34 42L35 42L35 41ZM6 42L6 43L7 43L7 44L8 44L8 42ZM11 42L11 43L12 43L12 42ZM13 42L13 43L14 43L14 42ZM20 43L20 44L21 44L21 43ZM24 45L24 46L26 46L26 45ZM55 45L55 47L54 47L54 48L55 48L55 47L56 47L56 45ZM3 46L3 47L5 47L5 46ZM40 46L40 47L41 47L41 46ZM51 47L51 48L52 48L52 47ZM6 48L6 49L7 49L7 48ZM46 48L46 51L47 51L47 52L48 52L48 51L47 51L47 48ZM27 49L27 52L30 52L30 49ZM49 49L49 52L52 52L52 49ZM54 49L54 50L53 50L53 51L54 51L54 52L55 52L55 51L56 51L56 49ZM28 50L28 51L29 51L29 50ZM50 50L50 51L51 51L51 50ZM39 52L39 53L40 53L40 52ZM45 52L45 53L46 53L46 54L47 54L47 55L48 55L48 54L49 54L49 53L48 53L48 54L47 54L47 53L46 53L46 52ZM27 53L27 55L28 55L28 53ZM31 53L31 54L30 54L30 55L33 55L33 54L32 54L32 53ZM9 54L9 55L10 55L10 54ZM20 54L20 55L21 55L21 54ZM40 54L40 56L41 56L41 55L42 55L42 54ZM53 54L53 55L54 55L54 54ZM12 55L12 56L14 56L14 55ZM36 56L36 57L37 57L37 56ZM56 56L56 57L57 57L57 56ZM0 0L0 7L7 7L7 0ZM1 1L1 6L6 6L6 1ZM2 2L2 5L5 5L5 2ZM50 0L50 7L57 7L57 0ZM51 1L51 6L56 6L56 1ZM52 2L52 5L55 5L55 2ZM0 50L0 57L7 57L7 50ZM1 51L1 56L6 56L6 51ZM2 52L2 55L5 55L5 52Z" fill="#000000"/></g></g></svg>
