<?xml version="1.0" encoding="UTF-8"?>
<svg xmlns="http://www.w3.org/2000/svg" version="1.1" width="300" height="300" viewBox="0 0 300 300"><rect x="0" y="0" width="300" height="300" fill="#fefefe"/><g transform="scale(4.615)"><g transform="translate(4,4)"><path fill-rule="evenodd" d="M9 0L9 1L8 1L8 2L9 2L9 1L10 1L10 0ZM14 0L14 2L13 2L13 1L12 1L12 2L11 2L11 3L10 3L10 4L11 4L11 5L12 5L12 7L11 7L11 6L10 6L10 10L9 10L9 8L6 8L6 9L8 9L8 10L9 10L9 12L10 12L10 10L13 10L13 11L14 11L14 12L12 12L12 11L11 11L11 13L9 13L9 14L8 14L8 13L7 13L7 12L8 12L8 11L7 11L7 10L6 10L6 11L3 11L3 10L4 10L4 9L5 9L5 8L0 8L0 9L2 9L2 10L0 10L0 13L1 13L1 14L0 14L0 18L1 18L1 19L0 19L0 20L2 20L2 21L0 21L0 22L2 22L2 23L4 23L4 24L2 24L2 25L1 25L1 26L2 26L2 28L1 28L1 27L0 27L0 30L2 30L2 28L3 28L3 29L4 29L4 31L2 31L2 32L0 32L0 33L3 33L3 34L5 34L5 35L4 35L4 36L2 36L2 34L0 34L0 37L4 37L4 38L1 38L1 39L2 39L2 40L3 40L3 39L4 39L4 40L6 40L6 41L5 41L5 42L2 42L2 41L1 41L1 40L0 40L0 41L1 41L1 42L0 42L0 44L1 44L1 45L0 45L0 48L5 48L5 47L7 47L7 48L6 48L6 49L8 49L8 51L9 51L9 52L8 52L8 57L9 57L9 54L10 54L10 57L13 57L13 56L14 56L14 54L15 54L15 55L16 55L16 56L15 56L15 57L16 57L16 56L17 56L17 57L21 57L21 56L24 56L24 55L23 55L23 54L24 54L24 53L25 53L25 54L26 54L26 56L25 56L25 57L26 57L26 56L27 56L27 57L29 57L29 56L30 56L30 57L31 57L31 56L35 56L35 57L39 57L39 56L42 56L42 55L43 55L43 57L44 57L44 54L45 54L45 53L47 53L47 54L46 54L46 56L47 56L47 55L49 55L49 56L50 56L50 57L52 57L52 55L51 55L51 53L52 53L52 54L53 54L53 52L54 52L54 53L55 53L55 51L56 51L56 52L57 52L57 51L56 51L56 50L55 50L55 49L54 49L54 48L56 48L56 49L57 49L57 48L56 48L56 46L57 46L57 45L56 45L56 44L55 44L55 43L56 43L56 42L55 42L55 39L57 39L57 37L55 37L55 36L57 36L57 35L53 35L53 34L52 34L52 33L54 33L54 34L57 34L57 32L56 32L56 30L57 30L57 28L56 28L56 27L55 27L55 26L57 26L57 25L56 25L56 22L57 22L57 20L56 20L56 18L53 18L53 17L56 17L56 16L57 16L57 15L56 15L56 14L57 14L57 13L56 13L56 14L55 14L55 13L54 13L54 12L55 12L55 11L56 11L56 8L55 8L55 10L54 10L54 11L52 11L52 10L53 10L53 9L54 9L54 8L53 8L53 9L52 9L52 8L51 8L51 11L50 11L50 8L48 8L48 7L49 7L49 6L48 6L48 7L47 7L47 5L48 5L48 0L45 0L45 1L47 1L47 2L44 2L44 3L43 3L43 4L40 4L40 5L39 5L39 6L38 6L38 7L37 7L37 5L38 5L38 3L41 3L41 2L43 2L43 0L41 0L41 1L40 1L40 0L39 0L39 1L38 1L38 0L37 0L37 1L38 1L38 3L36 3L36 0L35 0L35 1L33 1L33 2L32 2L32 3L30 3L30 2L31 2L31 1L32 1L32 0L29 0L29 1L30 1L30 2L29 2L29 4L26 4L26 3L23 3L23 2L27 2L27 1L25 1L25 0L23 0L23 1L22 1L22 0L21 0L21 2L22 2L22 3L23 3L23 4L24 4L24 5L23 5L23 6L22 6L22 8L23 8L23 10L22 10L22 11L21 11L21 10L20 10L20 9L19 9L19 8L21 8L21 4L19 4L19 3L18 3L18 2L20 2L20 0L17 0L17 1L15 1L15 0ZM17 1L17 2L18 2L18 1ZM14 2L14 4L12 4L12 5L14 5L14 6L13 6L13 7L12 7L12 8L13 8L13 7L14 7L14 9L13 9L13 10L15 10L15 11L18 11L18 9L16 9L16 8L19 8L19 7L20 7L20 5L18 5L18 4L17 4L17 3L16 3L16 2ZM33 2L33 3L32 3L32 4L31 4L31 8L32 8L32 10L31 10L31 11L30 11L30 10L29 10L29 12L28 12L28 13L26 13L26 12L27 12L27 11L28 11L28 10L27 10L27 11L26 11L26 12L25 12L25 10L24 10L24 12L23 12L23 13L22 13L22 12L21 12L21 13L20 13L20 10L19 10L19 13L20 13L20 14L21 14L21 13L22 13L22 14L23 14L23 13L26 13L26 16L24 16L24 15L18 15L18 16L19 16L19 17L20 17L20 18L22 18L22 17L25 17L25 19L26 19L26 20L25 20L25 21L24 21L24 20L22 20L22 21L21 21L21 19L17 19L17 18L18 18L18 17L17 17L17 13L18 13L18 12L17 12L17 13L16 13L16 12L15 12L15 13L13 13L13 14L12 14L12 13L11 13L11 15L13 15L13 16L14 16L14 17L13 17L13 18L12 18L12 16L11 16L11 18L10 18L10 16L9 16L9 18L8 18L8 20L7 20L7 19L5 19L5 17L4 17L4 16L3 16L3 17L2 17L2 16L1 16L1 18L3 18L3 20L4 20L4 23L5 23L5 24L7 24L7 25L5 25L5 26L7 26L7 25L8 25L8 26L9 26L9 27L10 27L10 28L11 28L11 29L10 29L10 31L11 31L11 30L12 30L12 32L15 32L15 35L14 35L14 34L12 34L12 33L11 33L11 34L10 34L10 33L9 33L9 31L4 31L4 32L3 32L3 33L4 33L4 32L5 32L5 33L6 33L6 34L7 34L7 33L8 33L8 35L5 35L5 36L4 36L4 37L5 37L5 38L4 38L4 39L5 39L5 38L7 38L7 37L8 37L8 36L9 36L9 35L11 35L11 34L12 34L12 35L14 35L14 36L15 36L15 37L13 37L13 36L12 36L12 38L11 38L11 41L12 41L12 38L15 38L15 39L16 39L16 40L15 40L15 41L13 41L13 42L15 42L15 43L14 43L14 44L13 44L13 43L12 43L12 42L9 42L9 39L10 39L10 37L11 37L11 36L10 36L10 37L9 37L9 39L8 39L8 40L7 40L7 39L6 39L6 40L7 40L7 41L6 41L6 42L9 42L9 44L8 44L8 45L5 45L5 43L2 43L2 42L1 42L1 43L2 43L2 45L1 45L1 47L2 47L2 46L3 46L3 47L5 47L5 46L7 46L7 47L8 47L8 48L10 48L10 49L9 49L9 51L11 51L11 54L12 54L12 56L13 56L13 54L14 54L14 53L15 53L15 54L16 54L16 53L17 53L17 52L19 52L19 51L18 51L18 50L17 50L17 48L21 48L21 49L19 49L19 50L20 50L20 51L22 51L22 53L21 53L21 52L20 52L20 53L19 53L19 54L20 54L20 55L18 55L18 54L17 54L17 56L21 56L21 55L22 55L22 53L24 53L24 52L25 52L25 53L26 53L26 48L29 48L29 45L27 45L27 44L25 44L25 48L24 48L24 49L25 49L25 50L23 50L23 51L22 51L22 50L21 50L21 49L23 49L23 47L20 47L20 46L21 46L21 45L22 45L22 46L23 46L23 45L22 45L22 44L21 44L21 45L19 45L19 46L17 46L17 45L18 45L18 44L16 44L16 43L18 43L18 42L19 42L19 44L20 44L20 42L21 42L21 43L22 43L22 42L23 42L23 43L24 43L24 42L23 42L23 41L25 41L25 43L27 43L27 42L29 42L29 41L27 41L27 40L26 40L26 39L25 39L25 40L24 40L24 39L21 39L21 41L20 41L20 40L19 40L19 39L20 39L20 38L19 38L19 37L22 37L22 38L24 38L24 37L23 37L23 36L24 36L24 34L23 34L23 33L25 33L25 34L26 34L26 35L27 35L27 37L25 37L25 38L27 38L27 39L28 39L28 40L32 40L32 41L31 41L31 42L32 42L32 43L33 43L33 44L31 44L31 43L29 43L29 44L30 44L30 45L32 45L32 46L31 46L31 47L32 47L32 49L31 49L31 53L30 53L30 54L27 54L27 56L29 56L29 55L30 55L30 56L31 56L31 54L32 54L32 53L33 53L33 55L35 55L35 56L36 56L36 54L35 54L35 51L33 51L33 52L32 52L32 50L36 50L36 52L38 52L38 53L37 53L37 54L40 54L40 53L42 53L42 52L43 52L43 51L42 51L42 50L41 50L41 48L42 48L42 49L43 49L43 48L44 48L44 51L45 51L45 52L44 52L44 53L43 53L43 54L44 54L44 53L45 53L45 52L46 52L46 51L47 51L47 53L48 53L48 50L47 50L47 49L48 49L48 48L51 48L51 46L52 46L52 47L54 47L54 45L55 45L55 46L56 46L56 45L55 45L55 44L54 44L54 45L53 45L53 43L54 43L54 42L53 42L53 41L54 41L54 40L53 40L53 41L51 41L51 42L50 42L50 43L49 43L49 42L48 42L48 41L49 41L49 40L50 40L50 39L51 39L51 38L53 38L53 39L55 39L55 38L54 38L54 37L53 37L53 35L52 35L52 34L50 34L50 32L49 32L49 31L48 31L48 29L46 29L46 30L47 30L47 31L46 31L46 32L47 32L47 33L45 33L45 32L43 32L43 31L45 31L45 30L41 30L41 29L43 29L43 27L45 27L45 28L44 28L44 29L45 29L45 28L46 28L46 27L47 27L47 25L48 25L48 24L49 24L49 23L50 23L50 25L49 25L49 26L51 26L51 25L52 25L52 26L53 26L53 27L54 27L54 26L53 26L53 24L54 24L54 25L55 25L55 24L54 24L54 23L50 23L50 22L51 22L51 21L53 21L53 22L56 22L56 20L53 20L53 19L52 19L52 20L51 20L51 21L49 21L49 19L51 19L51 17L53 17L53 16L51 16L51 17L50 17L50 14L51 14L51 12L50 12L50 11L49 11L49 12L45 12L45 11L46 11L46 10L47 10L47 11L48 11L48 10L47 10L47 9L48 9L48 8L47 8L47 7L46 7L46 5L47 5L47 3L44 3L44 6L43 6L43 7L44 7L44 9L43 9L43 8L42 8L42 9L43 9L43 10L44 10L44 9L45 9L45 11L44 11L44 13L43 13L43 11L41 11L41 12L40 12L40 11L39 11L39 13L38 13L38 14L37 14L37 15L35 15L35 16L31 16L31 17L32 17L32 18L34 18L34 19L33 19L33 20L32 20L32 21L31 21L31 20L29 20L29 19L28 19L28 18L27 18L27 17L28 17L28 16L29 16L29 14L30 14L30 15L31 15L31 14L32 14L32 13L33 13L33 14L36 14L36 13L35 13L35 11L36 11L36 10L37 10L37 9L38 9L38 10L39 10L39 9L41 9L41 7L42 7L42 6L41 6L41 5L40 5L40 6L39 6L39 7L40 7L40 8L39 8L39 9L38 9L38 8L37 8L37 7L36 7L36 5L37 5L37 4L36 4L36 5L35 5L35 4L33 4L33 3L35 3L35 2ZM8 3L8 4L9 4L9 3ZM15 4L15 5L16 5L16 4ZM25 4L25 8L26 8L26 4ZM32 4L32 5L33 5L33 6L32 6L32 7L33 7L33 9L34 9L34 8L35 8L35 9L37 9L37 8L35 8L35 5L33 5L33 4ZM45 4L45 5L46 5L46 4ZM8 5L8 7L9 7L9 5ZM17 5L17 6L16 6L16 7L15 7L15 6L14 6L14 7L15 7L15 8L16 8L16 7L17 7L17 6L18 6L18 7L19 7L19 6L18 6L18 5ZM27 5L27 8L30 8L30 5ZM23 6L23 8L24 8L24 6ZM28 6L28 7L29 7L29 6ZM33 6L33 7L34 7L34 6ZM40 6L40 7L41 7L41 6ZM44 6L44 7L45 7L45 8L46 8L46 7L45 7L45 6ZM15 9L15 10L16 10L16 9ZM32 10L32 12L31 12L31 13L30 13L30 14L31 14L31 13L32 13L32 12L33 12L33 13L34 13L34 12L33 12L33 10ZM1 11L1 13L4 13L4 12L2 12L2 11ZM6 11L6 12L5 12L5 13L6 13L6 14L7 14L7 15L5 15L5 14L2 14L2 15L5 15L5 16L8 16L8 14L7 14L7 13L6 13L6 12L7 12L7 11ZM49 12L49 13L47 13L47 14L45 14L45 13L44 13L44 15L42 15L42 16L41 16L41 15L40 15L40 14L38 14L38 15L39 15L39 16L38 16L38 17L37 17L37 16L35 16L35 17L37 17L37 18L38 18L38 17L39 17L39 19L37 19L37 20L36 20L36 19L34 19L34 20L33 20L33 21L34 21L34 20L35 20L35 23L34 23L34 22L33 22L33 23L32 23L32 24L31 24L31 23L30 23L30 22L31 22L31 21L30 21L30 22L28 22L28 23L27 23L27 21L25 21L25 22L26 22L26 23L25 23L25 24L24 24L24 23L23 23L23 22L24 22L24 21L22 21L22 22L21 22L21 23L23 23L23 24L24 24L24 25L22 25L22 26L20 26L20 25L21 25L21 24L19 24L19 23L20 23L20 22L17 22L17 21L20 21L20 20L17 20L17 19L16 19L16 18L15 18L15 21L16 21L16 22L15 22L15 23L13 23L13 24L12 24L12 22L14 22L14 21L13 21L13 20L14 20L14 19L11 19L11 20L8 20L8 21L7 21L7 20L5 20L5 22L6 22L6 23L7 23L7 22L8 22L8 25L9 25L9 24L10 24L10 23L9 23L9 22L8 22L8 21L11 21L11 26L10 26L10 27L11 27L11 28L12 28L12 29L13 29L13 31L16 31L16 29L18 29L18 30L17 30L17 31L19 31L19 29L22 29L22 28L19 28L19 29L18 29L18 28L17 28L17 27L18 27L18 26L15 26L15 23L16 23L16 24L17 24L17 25L19 25L19 27L22 27L22 26L23 26L23 27L24 27L24 26L26 26L26 27L25 27L25 28L23 28L23 30L24 30L24 31L25 31L25 32L26 32L26 34L27 34L27 32L28 32L28 33L29 33L29 34L30 34L30 36L29 36L29 37L31 37L31 38L29 38L29 39L33 39L33 40L35 40L35 42L37 42L37 43L36 43L36 44L35 44L35 43L34 43L34 42L33 42L33 41L32 41L32 42L33 42L33 43L34 43L34 45L35 45L35 46L32 46L32 47L33 47L33 49L36 49L36 50L38 50L38 52L39 52L39 51L40 51L40 52L42 52L42 51L41 51L41 50L38 50L38 49L39 49L39 48L41 48L41 46L43 46L43 45L44 45L44 47L47 47L47 48L48 48L48 47L50 47L50 45L49 45L49 44L48 44L48 46L45 46L45 45L47 45L47 43L48 43L48 42L45 42L45 43L44 43L44 41L43 41L43 40L45 40L45 39L46 39L46 40L47 40L47 39L50 39L50 38L51 38L51 37L50 37L50 36L52 36L52 35L50 35L50 34L48 34L48 35L47 35L47 34L45 34L45 35L44 35L44 33L43 33L43 32L41 32L41 33L39 33L39 34L40 34L40 35L39 35L39 37L40 37L40 38L43 38L43 37L44 37L44 38L45 38L45 39L43 39L43 40L42 40L42 41L41 41L41 42L40 42L40 43L41 43L41 42L42 42L42 44L41 44L41 45L39 45L39 42L38 42L38 40L39 40L39 39L38 39L38 40L35 40L35 39L37 39L37 38L38 38L38 37L37 37L37 36L38 36L38 33L37 33L37 32L35 32L35 31L36 31L36 29L38 29L38 28L40 28L40 27L36 27L36 26L34 26L34 27L33 27L33 26L32 26L32 24L33 24L33 25L37 25L37 26L38 26L38 24L41 24L41 23L42 23L42 24L43 24L43 25L39 25L39 26L44 26L44 24L43 24L43 23L44 23L44 20L45 20L45 21L47 21L47 22L45 22L45 23L47 23L47 24L46 24L46 25L47 25L47 24L48 24L48 23L47 23L47 22L49 22L49 21L47 21L47 20L45 20L45 18L44 18L44 15L47 15L47 16L45 16L45 17L47 17L47 18L46 18L46 19L47 19L47 18L50 18L50 17L49 17L49 16L48 16L48 15L49 15L49 14L50 14L50 12ZM52 12L52 13L53 13L53 12ZM15 13L15 14L13 14L13 15L14 15L14 16L15 16L15 17L16 17L16 13ZM28 13L28 14L29 14L29 13ZM41 13L41 14L43 14L43 13ZM27 15L27 16L28 16L28 15ZM20 16L20 17L22 17L22 16ZM39 16L39 17L41 17L41 16ZM42 16L42 17L43 17L43 16ZM6 17L6 18L7 18L7 17ZM9 18L9 19L10 19L10 18ZM23 18L23 19L24 19L24 18ZM30 18L30 19L31 19L31 18ZM41 18L41 19L42 19L42 18ZM43 18L43 20L44 20L44 18ZM27 19L27 20L28 20L28 19ZM16 20L16 21L17 21L17 20ZM37 20L37 21L38 21L38 23L37 23L37 24L38 24L38 23L40 23L40 22L39 22L39 21L42 21L42 20L39 20L39 21L38 21L38 20ZM6 21L6 22L7 22L7 21ZM0 23L0 24L1 24L1 23ZM17 23L17 24L18 24L18 23ZM28 23L28 24L25 24L25 25L26 25L26 26L28 26L28 25L31 25L31 24L29 24L29 23ZM13 24L13 26L14 26L14 28L15 28L15 29L14 29L14 30L15 30L15 29L16 29L16 28L15 28L15 26L14 26L14 24ZM2 25L2 26L3 26L3 25ZM11 26L11 27L12 27L12 28L13 28L13 27L12 27L12 26ZM31 26L31 28L32 28L32 30L31 30L31 31L29 31L29 33L31 33L31 32L32 32L32 35L33 35L33 36L32 36L32 37L33 37L33 39L35 39L35 37L33 37L33 36L34 36L34 34L35 34L35 36L37 36L37 34L35 34L35 33L34 33L34 34L33 34L33 32L34 32L34 31L33 31L33 30L35 30L35 28L33 28L33 27L32 27L32 26ZM45 26L45 27L46 27L46 26ZM3 27L3 28L4 28L4 27ZM5 27L5 30L8 30L8 27ZM27 27L27 30L30 30L30 27ZM41 27L41 28L42 28L42 27ZM49 27L49 30L52 30L52 27ZM6 28L6 29L7 29L7 28ZM25 28L25 29L26 29L26 28ZM28 28L28 29L29 29L29 28ZM50 28L50 29L51 29L51 28ZM54 28L54 29L53 29L53 31L52 31L52 32L51 32L51 33L52 33L52 32L54 32L54 33L56 33L56 32L54 32L54 31L55 31L55 29L56 29L56 28ZM39 29L39 30L38 30L38 32L39 32L39 30L40 30L40 29ZM21 31L21 32L16 32L16 33L17 33L17 34L16 34L16 35L17 35L17 36L18 36L18 37L17 37L17 38L18 38L18 37L19 37L19 36L20 36L20 33L21 33L21 36L23 36L23 35L22 35L22 33L21 33L21 32L23 32L23 31ZM47 31L47 32L48 32L48 33L49 33L49 32L48 32L48 31ZM6 32L6 33L7 33L7 32ZM18 33L18 36L19 36L19 33ZM42 34L42 35L43 35L43 36L40 36L40 37L43 37L43 36L44 36L44 37L45 37L45 38L46 38L46 39L47 39L47 37L48 37L48 36L50 36L50 35L48 35L48 36L46 36L46 37L45 37L45 36L44 36L44 35L43 35L43 34ZM6 36L6 37L7 37L7 36ZM15 37L15 38L16 38L16 37ZM27 37L27 38L28 38L28 37ZM49 37L49 38L50 38L50 37ZM13 39L13 40L14 40L14 39ZM17 39L17 40L16 40L16 41L17 41L17 42L18 42L18 41L19 41L19 42L20 42L20 41L19 41L19 40L18 40L18 39ZM17 40L17 41L18 41L18 40ZM21 41L21 42L22 42L22 41ZM26 41L26 42L27 42L27 41ZM51 42L51 43L50 43L50 44L51 44L51 43L53 43L53 42ZM6 43L6 44L7 44L7 43ZM10 43L10 44L9 44L9 46L10 46L10 44L12 44L12 43ZM43 43L43 44L44 44L44 45L45 45L45 44L46 44L46 43L45 43L45 44L44 44L44 43ZM14 44L14 47L15 47L15 48L14 48L14 49L13 49L13 47L12 47L12 45L11 45L11 47L10 47L10 48L11 48L11 49L10 49L10 50L11 50L11 51L12 51L12 49L13 49L13 52L12 52L12 53L13 53L13 52L15 52L15 53L16 53L16 51L17 51L17 50L16 50L16 51L15 51L15 48L16 48L16 47L15 47L15 44ZM4 45L4 46L5 46L5 45ZM26 45L26 47L27 47L27 45ZM38 45L38 46L39 46L39 47L38 47L38 48L37 48L37 49L38 49L38 48L39 48L39 47L40 47L40 46L39 46L39 45ZM11 47L11 48L12 48L12 47ZM34 47L34 48L36 48L36 47ZM42 47L42 48L43 48L43 47ZM45 48L45 49L46 49L46 48ZM27 49L27 52L30 52L30 49ZM49 49L49 52L52 52L52 49ZM28 50L28 51L29 51L29 50ZM50 50L50 51L51 51L51 50ZM54 50L54 51L55 51L55 50ZM9 52L9 53L10 53L10 52ZM33 52L33 53L34 53L34 52ZM41 54L41 55L42 55L42 54ZM37 55L37 56L39 56L39 55ZM50 55L50 56L51 56L51 55ZM53 55L53 56L55 56L55 57L56 57L56 56L55 56L55 55ZM0 0L0 7L7 7L7 0ZM1 1L1 6L6 6L6 1ZM2 2L2 5L5 5L5 2ZM50 0L50 7L57 7L57 0ZM51 1L51 6L56 6L56 1ZM52 2L52 5L55 5L55 2ZM0 50L0 57L7 57L7 50ZM1 51L1 56L6 56L6 51ZM2 52L2 55L5 55L5 52Z" fill="#000000"/></g></g></svg>
