<?xml version="1.0" encoding="UTF-8"?>
<svg xmlns="http://www.w3.org/2000/svg" version="1.1" width="300" height="300" viewBox="0 0 300 300"><rect x="0" y="0" width="300" height="300" fill="#fefefe"/><g transform="scale(4.615)"><g transform="translate(4,4)"><path fill-rule="evenodd" d="M8 0L8 4L9 4L9 5L8 5L8 7L9 7L9 6L10 6L10 9L11 9L11 6L12 6L12 8L14 8L14 9L12 9L12 12L10 12L10 13L8 13L8 12L9 12L9 11L7 11L7 10L9 10L9 9L7 9L7 8L4 8L4 9L5 9L5 10L6 10L6 11L7 11L7 12L5 12L5 11L4 11L4 10L3 10L3 11L1 11L1 14L0 14L0 15L1 15L1 16L0 16L0 18L2 18L2 19L3 19L3 18L2 18L2 17L1 17L1 16L4 16L4 18L5 18L5 17L8 17L8 18L10 18L10 17L11 17L11 16L12 16L12 15L14 15L14 18L15 18L15 19L16 19L16 20L18 20L18 21L15 21L15 20L14 20L14 19L13 19L13 17L12 17L12 18L11 18L11 19L7 19L7 18L6 18L6 19L5 19L5 21L7 21L7 20L8 20L8 22L6 22L6 23L7 23L7 24L5 24L5 23L4 23L4 20L3 20L3 21L2 21L2 22L1 22L1 21L0 21L0 25L1 25L1 23L2 23L2 22L3 22L3 23L4 23L4 25L3 25L3 26L4 26L4 27L2 27L2 26L1 26L1 28L2 28L2 29L1 29L1 30L0 30L0 31L1 31L1 32L0 32L0 34L1 34L1 35L2 35L2 36L1 36L1 37L0 37L0 38L1 38L1 39L0 39L0 42L2 42L2 43L1 43L1 44L0 44L0 48L5 48L5 47L7 47L7 48L6 48L6 49L8 49L8 50L9 50L9 51L8 51L8 53L9 53L9 55L8 55L8 57L11 57L11 55L10 55L10 53L11 53L11 52L12 52L12 51L13 51L13 55L12 55L12 56L14 56L14 55L16 55L16 54L17 54L17 55L20 55L20 54L21 54L21 53L22 53L22 54L23 54L23 55L22 55L22 56L21 56L21 57L22 57L22 56L23 56L23 55L24 55L24 57L25 57L25 56L26 56L26 57L27 57L27 56L26 56L26 55L27 55L27 53L28 53L28 57L29 57L29 55L30 55L30 57L34 57L34 55L35 55L35 57L37 57L37 56L36 56L36 54L37 54L37 53L38 53L38 55L40 55L40 56L39 56L39 57L40 57L40 56L43 56L43 55L44 55L44 53L45 53L45 51L47 51L47 52L46 52L46 53L47 53L47 54L49 54L49 57L50 57L50 55L51 55L51 56L53 56L53 57L54 57L54 56L53 56L53 50L54 50L54 51L55 51L55 52L54 52L54 53L55 53L55 54L54 54L54 55L55 55L55 54L57 54L57 53L56 53L56 50L57 50L57 49L56 49L56 45L57 45L57 43L56 43L56 42L57 42L57 40L55 40L55 41L53 41L53 39L57 39L57 38L53 38L53 39L52 39L52 41L51 41L51 43L50 43L50 42L49 42L49 41L48 41L48 43L47 43L47 42L46 42L46 41L47 41L47 40L49 40L49 39L50 39L50 40L51 40L51 39L50 39L50 38L52 38L52 36L53 36L53 37L55 37L55 36L56 36L56 37L57 37L57 36L56 36L56 34L57 34L57 33L56 33L56 30L55 30L55 29L54 29L54 28L53 28L53 27L54 27L54 26L55 26L55 27L56 27L56 29L57 29L57 27L56 27L56 25L57 25L57 24L56 24L56 21L55 21L55 24L56 24L56 25L53 25L53 26L52 26L52 22L54 22L54 21L52 21L52 20L53 20L53 19L52 19L52 14L53 14L53 15L54 15L54 14L55 14L55 16L53 16L53 17L55 17L55 16L56 16L56 17L57 17L57 15L56 15L56 13L54 13L54 12L53 12L53 13L52 13L52 14L51 14L51 12L52 12L52 11L54 11L54 10L53 10L53 9L55 9L55 11L56 11L56 10L57 10L57 8L53 8L53 9L52 9L52 8L51 8L51 9L50 9L50 10L49 10L49 8L48 8L48 9L47 9L47 11L48 11L48 12L49 12L49 11L50 11L50 16L49 16L49 15L48 15L48 16L49 16L49 17L47 17L47 19L48 19L48 18L49 18L49 17L50 17L50 19L49 19L49 20L47 20L47 23L48 23L48 24L50 24L50 23L51 23L51 25L47 25L47 24L46 24L46 23L45 23L45 24L44 24L44 27L43 27L43 23L44 23L44 22L45 22L45 21L46 21L46 19L45 19L45 18L46 18L46 9L45 9L45 8L44 8L44 9L43 9L43 8L42 8L42 9L41 9L41 12L43 12L43 11L45 11L45 12L44 12L44 13L41 13L41 14L40 14L40 13L38 13L38 15L39 15L39 17L38 17L38 16L37 16L37 14L35 14L35 17L38 17L38 18L39 18L39 19L37 19L37 18L34 18L34 13L33 13L33 12L32 12L32 11L33 11L33 10L34 10L34 12L35 12L35 13L37 13L37 12L39 12L39 10L40 10L40 8L41 8L41 6L40 6L40 8L39 8L39 5L42 5L42 7L43 7L43 4L44 4L44 7L45 7L45 4L44 4L44 3L47 3L47 5L46 5L46 7L47 7L47 5L48 5L48 0L46 0L46 1L47 1L47 2L45 2L45 0L41 0L41 1L40 1L40 2L39 2L39 3L38 3L38 5L36 5L36 4L35 4L35 5L32 5L32 3L33 3L33 2L32 2L32 3L31 3L31 4L30 4L30 3L29 3L29 1L30 1L30 2L31 2L31 0L28 0L28 2L27 2L27 3L28 3L28 4L26 4L26 3L25 3L25 2L26 2L26 1L27 1L27 0L26 0L26 1L25 1L25 0L23 0L23 1L22 1L22 2L23 2L23 3L22 3L22 4L21 4L21 6L20 6L20 5L19 5L19 6L18 6L18 3L21 3L21 0L19 0L19 1L20 1L20 2L18 2L18 3L17 3L17 1L18 1L18 0L17 0L17 1L16 1L16 0L14 0L14 1L13 1L13 0L11 0L11 1L10 1L10 3L9 3L9 0ZM32 0L32 1L34 1L34 3L35 3L35 2L36 2L36 3L37 3L37 2L38 2L38 1L39 1L39 0L38 0L38 1L37 1L37 2L36 2L36 0L35 0L35 1L34 1L34 0ZM14 1L14 4L15 4L15 5L14 5L14 6L13 6L13 7L14 7L14 8L15 8L15 7L16 7L16 6L17 6L17 8L18 8L18 6L17 6L17 4L16 4L16 1ZM11 2L11 4L10 4L10 6L11 6L11 5L13 5L13 4L12 4L12 3L13 3L13 2ZM40 2L40 3L39 3L39 4L40 4L40 3L41 3L41 4L42 4L42 2ZM43 2L43 3L44 3L44 2ZM23 3L23 5L22 5L22 6L21 6L21 8L22 8L22 9L21 9L21 10L20 10L20 9L19 9L19 10L18 10L18 11L17 11L17 13L15 13L15 12L16 12L16 10L17 10L17 9L16 9L16 10L15 10L15 12L14 12L14 11L13 11L13 12L12 12L12 13L15 13L15 14L17 14L17 13L18 13L18 12L19 12L19 11L20 11L20 12L21 12L21 11L22 11L22 12L23 12L23 13L21 13L21 14L22 14L22 15L20 15L20 13L19 13L19 14L18 14L18 15L19 15L19 16L21 16L21 17L25 17L25 16L22 16L22 15L26 15L26 16L27 16L27 15L28 15L28 14L27 14L27 13L29 13L29 16L31 16L31 17L32 17L32 18L31 18L31 19L34 19L34 18L33 18L33 17L32 17L32 15L30 15L30 13L31 13L31 14L33 14L33 13L32 13L32 12L29 12L29 10L28 10L28 9L26 9L26 6L25 6L25 7L24 7L24 6L23 6L23 5L24 5L24 4L25 4L25 3ZM15 5L15 6L14 6L14 7L15 7L15 6L16 6L16 5ZM27 5L27 8L30 8L30 5ZM35 5L35 7L34 7L34 6L33 6L33 7L32 7L32 6L31 6L31 10L30 10L30 11L32 11L32 8L33 8L33 9L34 9L34 10L36 10L36 11L38 11L38 6L37 6L37 9L35 9L35 7L36 7L36 5ZM19 6L19 7L20 7L20 6ZM22 6L22 7L23 7L23 10L25 10L25 11L24 11L24 12L25 12L25 13L23 13L23 14L26 14L26 15L27 15L27 14L26 14L26 11L27 11L27 12L28 12L28 10L25 10L25 8L24 8L24 7L23 7L23 6ZM28 6L28 7L29 7L29 6ZM48 6L48 7L49 7L49 6ZM33 7L33 8L34 8L34 7ZM0 8L0 9L1 9L1 10L2 10L2 8ZM6 9L6 10L7 10L7 9ZM44 9L44 10L45 10L45 9ZM51 9L51 10L50 10L50 11L51 11L51 10L52 10L52 9ZM2 12L2 13L4 13L4 12ZM6 13L6 14L1 14L1 15L4 15L4 16L5 16L5 15L6 15L6 16L8 16L8 14L7 14L7 13ZM10 13L10 15L9 15L9 17L10 17L10 16L11 16L11 15L12 15L12 14L11 14L11 13ZM44 13L44 14L43 14L43 15L42 15L42 17L43 17L43 18L42 18L42 19L41 19L41 18L40 18L40 17L41 17L41 15L40 15L40 17L39 17L39 18L40 18L40 21L39 21L39 20L38 20L38 21L37 21L37 22L35 22L35 20L36 20L36 19L35 19L35 20L34 20L34 22L35 22L35 23L34 23L34 24L33 24L33 25L34 25L34 26L33 26L33 27L32 27L32 23L33 23L33 22L31 22L31 30L32 30L32 28L33 28L33 27L34 27L34 32L33 32L33 33L32 33L32 31L31 31L31 32L30 32L30 31L29 31L29 33L28 33L28 34L27 34L27 32L28 32L28 31L27 31L27 32L26 32L26 34L24 34L24 36L25 36L25 35L26 35L26 34L27 34L27 36L26 36L26 38L27 38L27 39L25 39L25 38L24 38L24 37L23 37L23 33L25 33L25 30L26 30L26 29L25 29L25 30L23 30L23 28L22 28L22 27L21 27L21 26L20 26L20 28L18 28L18 29L15 29L15 28L16 28L16 27L18 27L18 26L17 26L17 23L18 23L18 24L19 24L19 25L21 25L21 24L22 24L22 25L24 25L24 23L23 23L23 24L22 24L22 21L24 21L24 22L25 22L25 23L26 23L26 22L27 22L27 23L28 23L28 22L29 22L29 24L28 24L28 25L29 25L29 24L30 24L30 21L32 21L32 20L30 20L30 18L28 18L28 17L26 17L26 18L27 18L27 19L26 19L26 20L28 20L28 21L24 21L24 20L25 20L25 18L24 18L24 19L23 19L23 18L22 18L22 19L23 19L23 20L22 20L22 21L21 21L21 22L20 22L20 23L19 23L19 21L20 21L20 20L19 20L19 18L20 18L20 17L18 17L18 20L19 20L19 21L18 21L18 22L16 22L16 23L14 23L14 21L13 21L13 22L11 22L11 21L12 21L12 19L11 19L11 20L10 20L10 22L9 22L9 23L8 23L8 24L9 24L9 23L11 23L11 25L12 25L12 26L13 26L13 28L14 28L14 30L11 30L11 31L15 31L15 32L9 32L9 31L6 31L6 32L5 32L5 33L6 33L6 34L5 34L5 35L4 35L4 36L5 36L5 37L6 37L6 38L7 38L7 39L6 39L6 40L5 40L5 38L4 38L4 37L3 37L3 36L2 36L2 37L3 37L3 39L2 39L2 40L1 40L1 41L5 41L5 42L4 42L4 44L5 44L5 42L7 42L7 41L8 41L8 43L6 43L6 44L7 44L7 45L6 45L6 46L8 46L8 47L9 47L9 49L10 49L10 50L14 50L14 54L15 54L15 53L17 53L17 52L15 52L15 50L16 50L16 51L18 51L18 52L19 52L19 53L20 53L20 52L19 52L19 50L20 50L20 51L21 51L21 52L22 52L22 53L24 53L24 54L26 54L26 51L25 51L25 53L24 53L24 52L22 52L22 51L23 51L23 50L22 50L22 49L23 49L23 48L22 48L22 47L24 47L24 49L26 49L26 48L28 48L28 47L29 47L29 48L31 48L31 49L32 49L32 48L33 48L33 49L34 49L34 51L33 51L33 53L32 53L32 54L33 54L33 55L34 55L34 54L35 54L35 52L36 52L36 49L34 49L34 48L35 48L35 46L36 46L36 45L34 45L34 48L33 48L33 45L32 45L32 43L33 43L33 44L35 44L35 43L33 43L33 41L32 41L32 40L33 40L33 39L34 39L34 42L35 42L35 39L37 39L37 42L38 42L38 39L40 39L40 38L38 38L38 37L41 37L41 36L43 36L43 37L44 37L44 38L43 38L43 41L44 41L44 42L41 42L41 40L40 40L40 41L39 41L39 43L40 43L40 51L38 51L38 49L39 49L39 47L38 47L38 49L37 49L37 51L38 51L38 53L39 53L39 52L40 52L40 53L42 53L42 52L41 52L41 43L42 43L42 44L43 44L43 45L44 45L44 46L43 46L43 47L42 47L42 49L43 49L43 50L42 50L42 51L43 51L43 50L44 50L44 51L45 51L45 50L44 50L44 48L45 48L45 45L46 45L46 47L47 47L47 48L46 48L46 50L47 50L47 49L48 49L48 47L49 47L49 48L50 48L50 47L51 47L51 46L50 46L50 43L49 43L49 46L48 46L48 44L47 44L47 43L46 43L46 42L45 42L45 41L44 41L44 39L45 39L45 40L47 40L47 39L49 39L49 38L47 38L47 37L48 37L48 36L45 36L45 37L44 37L44 35L45 35L45 34L44 34L44 33L43 33L43 34L44 34L44 35L42 35L42 34L40 34L40 33L41 33L41 32L40 32L40 31L41 31L41 30L40 30L40 29L43 29L43 31L44 31L44 29L43 29L43 28L42 28L42 27L41 27L41 28L40 28L40 29L39 29L39 30L40 30L40 31L39 31L39 32L40 32L40 33L39 33L39 34L38 34L38 33L37 33L37 34L38 34L38 35L37 35L37 36L38 36L38 37L37 37L37 38L35 38L35 37L34 37L34 36L35 36L35 33L34 33L34 32L35 32L35 31L36 31L36 30L37 30L37 32L38 32L38 30L37 30L37 29L38 29L38 28L37 28L37 29L35 29L35 28L36 28L36 26L37 26L37 27L39 27L39 26L40 26L40 25L42 25L42 24L41 24L41 22L40 22L40 21L42 21L42 20L43 20L43 22L42 22L42 23L43 23L43 22L44 22L44 16L45 16L45 13ZM47 13L47 14L49 14L49 13ZM53 13L53 14L54 14L54 13ZM6 14L6 15L7 15L7 14ZM43 15L43 16L44 16L44 15ZM16 16L16 18L17 18L17 16ZM50 16L50 17L51 17L51 16ZM0 19L0 20L1 20L1 19ZM6 19L6 20L7 20L7 19ZM28 19L28 20L29 20L29 19ZM55 19L55 20L56 20L56 19ZM49 20L49 21L51 21L51 22L52 22L52 21L51 21L51 20ZM38 21L38 22L37 22L37 23L38 23L38 26L39 26L39 25L40 25L40 23L39 23L39 21ZM49 22L49 23L50 23L50 22ZM12 23L12 24L13 24L13 23ZM34 24L34 25L37 25L37 24ZM5 25L5 26L7 26L7 25ZM8 25L8 26L9 26L9 29L10 29L10 26L9 26L9 25ZM13 25L13 26L16 26L16 25ZM25 25L25 26L23 26L23 27L26 27L26 25ZM46 25L46 26L47 26L47 25ZM5 27L5 30L8 30L8 27ZM11 27L11 29L12 29L12 27ZM14 27L14 28L15 28L15 27ZM27 27L27 30L30 30L30 27ZM45 27L45 30L46 30L46 32L45 32L45 33L46 33L46 35L47 35L47 34L49 34L49 33L48 33L48 31L47 31L47 30L48 30L48 29L46 29L46 28L47 28L47 27ZM49 27L49 30L52 30L52 27ZM6 28L6 29L7 29L7 28ZM28 28L28 29L29 29L29 28ZM50 28L50 29L51 29L51 28ZM18 29L18 30L15 30L15 31L16 31L16 32L15 32L15 33L14 33L14 35L13 35L13 34L11 34L11 33L10 33L10 34L9 34L9 32L8 32L8 33L7 33L7 32L6 32L6 33L7 33L7 34L6 34L6 35L5 35L5 36L6 36L6 37L7 37L7 38L8 38L8 37L9 37L9 35L10 35L10 38L9 38L9 40L8 40L8 41L10 41L10 40L11 40L11 42L10 42L10 43L11 43L11 42L13 42L13 43L12 43L12 44L13 44L13 45L14 45L14 46L16 46L16 48L15 48L15 47L13 47L13 48L12 48L12 49L13 49L13 48L15 48L15 49L20 49L20 50L21 50L21 51L22 51L22 50L21 50L21 49L22 49L22 48L21 48L21 47L22 47L22 46L21 46L21 45L24 45L24 46L26 46L26 47L28 47L28 45L27 45L27 44L28 44L28 41L27 41L27 40L29 40L29 42L31 42L31 43L32 43L32 41L31 41L31 39L33 39L33 38L34 38L34 39L35 39L35 38L34 38L34 37L33 37L33 35L34 35L34 33L33 33L33 34L32 34L32 33L29 33L29 34L28 34L28 36L27 36L27 37L28 37L28 36L29 36L29 37L31 37L31 36L32 36L32 37L33 37L33 38L31 38L31 39L29 39L29 38L28 38L28 39L27 39L27 40L25 40L25 41L24 41L24 39L23 39L23 42L26 42L26 41L27 41L27 43L25 43L25 45L24 45L24 44L22 44L22 43L20 43L20 42L21 42L21 41L22 41L22 36L21 36L21 35L22 35L22 34L21 34L21 33L22 33L22 31L23 31L23 32L24 32L24 31L23 31L23 30L22 30L22 29L20 29L20 30L22 30L22 31L20 31L20 32L19 32L19 31L18 31L18 30L19 30L19 29ZM53 29L53 30L54 30L54 29ZM2 31L2 32L3 32L3 33L4 33L4 32L3 32L3 31ZM17 31L17 33L16 33L16 34L17 34L17 36L16 36L16 37L15 37L15 35L14 35L14 37L13 37L13 38L10 38L10 39L11 39L11 40L12 40L12 39L13 39L13 38L14 38L14 40L15 40L15 41L16 41L16 42L14 42L14 41L13 41L13 42L14 42L14 43L15 43L15 44L14 44L14 45L15 45L15 44L16 44L16 46L17 46L17 45L18 45L18 44L19 44L19 45L21 45L21 44L19 44L19 42L20 42L20 41L17 41L17 40L15 40L15 39L16 39L16 38L17 38L17 36L20 36L20 35L21 35L21 34L20 34L20 33L21 33L21 32L20 32L20 33L18 33L18 31ZM51 31L51 32L50 32L50 35L49 35L49 37L50 37L50 35L53 35L53 36L55 36L55 35L53 35L53 34L54 34L54 32L55 32L55 31L53 31L53 33L51 33L51 32L52 32L52 31ZM46 32L46 33L47 33L47 32ZM1 33L1 34L2 34L2 35L3 35L3 34L2 34L2 33ZM17 33L17 34L18 34L18 33ZM7 34L7 35L6 35L6 36L7 36L7 35L9 35L9 34ZM30 34L30 36L31 36L31 35L32 35L32 34ZM11 35L11 37L12 37L12 35ZM38 35L38 36L40 36L40 35ZM18 37L18 39L20 39L20 38L21 38L21 37ZM45 37L45 39L47 39L47 38L46 38L46 37ZM37 38L37 39L38 39L38 38ZM41 38L41 39L42 39L42 38ZM6 40L6 41L7 41L7 40ZM52 41L52 43L51 43L51 44L52 44L52 43L53 43L53 44L54 44L54 45L56 45L56 44L55 44L55 42L54 42L54 43L53 43L53 41ZM16 42L16 43L18 43L18 42ZM40 42L40 43L41 43L41 42ZM2 43L2 44L1 44L1 45L3 45L3 43ZM8 43L8 44L9 44L9 43ZM36 43L36 44L37 44L37 46L38 46L38 45L39 45L39 44L37 44L37 43ZM43 43L43 44L44 44L44 45L45 45L45 44L44 44L44 43ZM46 44L46 45L47 45L47 44ZM4 45L4 46L3 46L3 47L5 47L5 45ZM9 45L9 46L10 46L10 45ZM26 45L26 46L27 46L27 45ZM31 45L31 46L32 46L32 45ZM52 45L52 46L53 46L53 45ZM1 46L1 47L2 47L2 46ZM18 46L18 47L17 47L17 48L18 48L18 47L19 47L19 48L20 48L20 49L21 49L21 48L20 48L20 47L21 47L21 46L20 46L20 47L19 47L19 46ZM49 46L49 47L50 47L50 46ZM54 46L54 47L52 47L52 48L53 48L53 49L55 49L55 50L56 50L56 49L55 49L55 46ZM36 47L36 48L37 48L37 47ZM27 49L27 52L30 52L30 49ZM49 49L49 52L52 52L52 49ZM28 50L28 51L29 51L29 50ZM31 50L31 52L32 52L32 50ZM50 50L50 51L51 51L51 50ZM9 51L9 53L10 53L10 52L11 52L11 51ZM34 51L34 52L35 52L35 51ZM43 52L43 53L44 53L44 52ZM47 52L47 53L48 53L48 52ZM30 53L30 54L31 54L31 53ZM33 53L33 54L34 54L34 53ZM49 53L49 54L51 54L51 55L52 55L52 54L51 54L51 53ZM40 54L40 55L43 55L43 54ZM9 55L9 56L10 56L10 55ZM46 55L46 56L47 56L47 55ZM17 56L17 57L20 57L20 56ZM44 56L44 57L45 57L45 56ZM56 56L56 57L57 57L57 56ZM0 0L0 7L7 7L7 0ZM1 1L1 6L6 6L6 1ZM2 2L2 5L5 5L5 2ZM50 0L50 7L57 7L57 0ZM51 1L51 6L56 6L56 1ZM52 2L52 5L55 5L55 2ZM0 50L0 57L7 57L7 50ZM1 51L1 56L6 56L6 51ZM2 52L2 55L5 55L5 52Z" fill="#000000"/></g></g></svg>
