<?xml version="1.0" encoding="UTF-8"?>
<svg xmlns="http://www.w3.org/2000/svg" version="1.1" width="300" height="300" viewBox="0 0 300 300"><rect x="0" y="0" width="300" height="300" fill="#fefefe"/><g transform="scale(4.615)"><g transform="translate(4,4)"><path fill-rule="evenodd" d="M8 0L8 2L9 2L9 0ZM10 0L10 4L8 4L8 9L7 9L7 8L5 8L5 10L4 10L4 9L3 9L3 8L0 8L0 9L1 9L1 10L4 10L4 12L5 12L5 10L6 10L6 11L8 11L8 12L6 12L6 13L7 13L7 14L6 14L6 15L5 15L5 17L7 17L7 18L4 18L4 17L3 17L3 16L4 16L4 14L5 14L5 13L4 13L4 14L3 14L3 13L2 13L2 12L3 12L3 11L0 11L0 12L1 12L1 13L0 13L0 14L1 14L1 18L0 18L0 20L1 20L1 21L0 21L0 24L1 24L1 25L2 25L2 26L1 26L1 27L0 27L0 29L2 29L2 30L1 30L1 31L2 31L2 30L3 30L3 32L4 32L4 31L7 31L7 32L5 32L5 33L4 33L4 34L6 34L6 35L3 35L3 36L2 36L2 35L1 35L1 34L3 34L3 33L1 33L1 32L0 32L0 35L1 35L1 36L0 36L0 37L1 37L1 39L2 39L2 40L1 40L1 41L0 41L0 42L1 42L1 44L0 44L0 48L5 48L5 47L7 47L7 48L6 48L6 49L8 49L8 50L10 50L10 49L8 49L8 47L7 47L7 46L5 46L5 45L8 45L8 44L5 44L5 45L4 45L4 43L5 43L5 41L3 41L3 39L4 39L4 40L5 40L5 39L9 39L9 40L6 40L6 41L7 41L7 42L6 42L6 43L7 43L7 42L8 42L8 43L9 43L9 44L10 44L10 43L9 43L9 42L13 42L13 43L12 43L12 44L13 44L13 43L14 43L14 44L17 44L17 47L16 47L16 45L15 45L15 47L16 47L16 49L15 49L15 48L14 48L14 50L16 50L16 49L17 49L17 51L18 51L18 53L17 53L17 52L16 52L16 51L14 51L14 54L12 54L12 55L11 55L11 53L12 53L12 52L11 52L11 53L9 53L9 54L8 54L8 57L11 57L11 56L12 56L12 57L17 57L17 56L18 56L18 57L20 57L20 56L19 56L19 55L18 55L18 53L19 53L19 52L20 52L20 53L21 53L21 50L20 50L20 49L21 49L21 48L22 48L22 51L24 51L24 52L22 52L22 53L23 53L23 55L22 55L22 57L25 57L25 55L24 55L24 54L25 54L25 51L26 51L26 55L27 55L27 56L26 56L26 57L28 57L28 55L29 55L29 57L33 57L33 55L34 55L34 57L35 57L35 55L37 55L37 54L36 54L36 53L37 53L37 51L38 51L38 47L37 47L37 46L38 46L38 45L37 45L37 44L39 44L39 43L37 43L37 44L36 44L36 45L35 45L35 46L36 46L36 47L37 47L37 48L36 48L36 49L37 49L37 51L35 51L35 50L34 50L34 49L35 49L35 47L34 47L34 45L33 45L33 44L35 44L35 43L36 43L36 41L37 41L37 42L38 42L38 41L39 41L39 42L40 42L40 43L43 43L43 42L42 42L42 41L41 41L41 40L40 40L40 39L41 39L41 38L42 38L42 37L43 37L43 35L42 35L42 37L41 37L41 35L40 35L40 36L38 36L38 35L39 35L39 34L38 34L38 33L39 33L39 32L40 32L40 34L42 34L42 33L43 33L43 34L44 34L44 38L43 38L43 39L42 39L42 40L43 40L43 39L44 39L44 46L43 46L43 47L44 47L44 46L45 46L45 48L44 48L44 49L45 49L45 51L43 51L43 50L42 50L42 49L41 49L41 47L42 47L42 45L43 45L43 44L42 44L42 45L41 45L41 44L40 44L40 45L39 45L39 46L41 46L41 47L40 47L40 49L39 49L39 52L38 52L38 53L39 53L39 56L40 56L40 57L41 57L41 56L42 56L42 57L43 57L43 54L42 54L42 52L44 52L44 55L45 55L45 56L44 56L44 57L48 57L48 56L46 56L46 55L45 55L45 54L46 54L46 53L47 53L47 54L48 54L48 55L49 55L49 57L50 57L50 55L49 55L49 54L52 54L52 55L53 55L53 56L51 56L51 57L54 57L54 54L55 54L55 55L57 55L57 54L55 54L55 52L56 52L56 53L57 53L57 52L56 52L56 51L57 51L57 49L56 49L56 47L57 47L57 42L56 42L56 41L57 41L57 40L54 40L54 39L53 39L53 38L54 38L54 37L55 37L55 38L57 38L57 37L56 37L56 35L57 35L57 33L56 33L56 31L57 31L57 28L56 28L56 27L57 27L57 24L56 24L56 23L57 23L57 21L56 21L56 19L57 19L57 18L56 18L56 17L57 17L57 12L56 12L56 11L57 11L57 10L56 10L56 11L55 11L55 9L57 9L57 8L55 8L55 9L54 9L54 10L52 10L52 9L53 9L53 8L49 8L49 11L50 11L50 13L49 13L49 14L48 14L48 12L47 12L47 11L46 11L46 7L47 7L47 8L48 8L48 7L49 7L49 6L48 6L48 7L47 7L47 5L48 5L48 0L42 0L42 1L41 1L41 0L38 0L38 2L37 2L37 1L35 1L35 0L34 0L34 2L33 2L33 0L30 0L30 3L31 3L31 4L26 4L26 3L27 3L27 2L28 2L28 1L27 1L27 0L26 0L26 1L25 1L25 0L24 0L24 1L23 1L23 0L20 0L20 1L23 1L23 6L22 6L22 5L20 5L20 7L19 7L19 4L18 4L18 3L17 3L17 2L19 2L19 0L16 0L16 2L15 2L15 1L14 1L14 0ZM12 1L12 2L13 2L13 3L14 3L14 4L15 4L15 3L14 3L14 1ZM24 1L24 4L25 4L25 1ZM31 1L31 2L32 2L32 5L31 5L31 9L30 9L30 10L31 10L31 9L32 9L32 11L31 11L31 12L30 12L30 11L29 11L29 12L30 12L30 13L29 13L29 15L28 15L28 14L27 14L27 12L28 12L28 10L29 10L29 9L28 9L28 10L25 10L25 9L26 9L26 5L24 5L24 6L23 6L23 7L22 7L22 6L21 6L21 9L20 9L20 10L19 10L19 9L18 9L18 6L17 6L17 5L16 5L16 6L15 6L15 5L13 5L13 4L12 4L12 3L11 3L11 5L9 5L9 8L10 8L10 9L8 9L8 11L13 11L13 12L12 12L12 13L13 13L13 15L15 15L15 17L14 17L14 16L12 16L12 17L11 17L11 16L10 16L10 17L8 17L8 16L7 16L7 15L9 15L9 13L11 13L11 12L8 12L8 14L7 14L7 15L6 15L6 16L7 16L7 17L8 17L8 18L10 18L10 19L8 19L8 23L5 23L5 22L7 22L7 21L5 21L5 20L4 20L4 24L2 24L2 25L4 25L4 26L2 26L2 27L4 27L4 26L8 26L8 25L10 25L10 26L11 26L11 29L12 29L12 30L14 30L14 31L15 31L15 32L14 32L14 33L12 33L12 34L14 34L14 35L15 35L15 37L14 37L14 36L13 36L13 35L12 35L12 38L10 38L10 39L13 39L13 38L14 38L14 40L13 40L13 41L14 41L14 42L15 42L15 43L16 43L16 42L18 42L18 40L19 40L19 41L20 41L20 42L19 42L19 43L18 43L18 44L19 44L19 45L18 45L18 48L17 48L17 49L18 49L18 51L19 51L19 49L18 49L18 48L20 48L20 47L19 47L19 45L20 45L20 46L22 46L22 48L23 48L23 49L24 49L24 51L25 51L25 49L26 49L26 48L27 48L27 47L28 47L28 48L31 48L31 50L32 50L32 51L31 51L31 52L32 52L32 51L33 51L33 50L32 50L32 48L34 48L34 47L33 47L33 46L32 46L32 40L33 40L33 41L34 41L34 42L35 42L35 41L36 41L36 38L37 38L37 41L38 41L38 38L39 38L39 39L40 39L40 38L39 38L39 37L38 37L38 38L37 38L37 37L36 37L36 35L38 35L38 34L37 34L37 33L36 33L36 31L37 31L37 32L38 32L38 31L40 31L40 32L41 32L41 33L42 33L42 31L43 31L43 29L44 29L44 28L42 28L42 31L40 31L40 30L39 30L39 29L40 29L40 28L41 28L41 25L40 25L40 27L39 27L39 29L38 29L38 28L37 28L37 30L36 30L36 27L37 27L37 26L36 26L36 24L37 24L37 25L38 25L38 26L39 26L39 23L42 23L42 27L43 27L43 25L44 25L44 24L46 24L46 23L47 23L47 25L46 25L46 26L44 26L44 27L46 27L46 26L47 26L47 25L48 25L48 26L49 26L49 25L50 25L50 26L53 26L53 25L54 25L54 26L55 26L55 25L56 25L56 24L55 24L55 23L56 23L56 21L55 21L55 19L56 19L56 18L55 18L55 19L54 19L54 17L53 17L53 18L52 18L52 16L50 16L50 15L51 15L51 14L52 14L52 15L54 15L54 16L55 16L55 17L56 17L56 16L55 16L55 15L56 15L56 12L55 12L55 11L54 11L54 12L53 12L53 13L54 13L54 14L52 14L52 13L50 13L50 15L49 15L49 16L50 16L50 18L51 18L51 20L49 20L49 19L48 19L48 20L47 20L47 17L48 17L48 18L49 18L49 17L48 17L48 16L47 16L47 15L48 15L48 14L47 14L47 13L46 13L46 11L45 11L45 10L44 10L44 6L45 6L45 7L46 7L46 5L47 5L47 3L46 3L46 4L45 4L45 2L47 2L47 1L42 1L42 4L41 4L41 2L40 2L40 1L39 1L39 2L38 2L38 3L37 3L37 2L35 2L35 3L34 3L34 4L33 4L33 2L32 2L32 1ZM20 2L20 3L21 3L21 2ZM39 2L39 3L38 3L38 5L39 5L39 4L40 4L40 2ZM43 2L43 4L42 4L42 5L41 5L41 6L40 6L40 7L41 7L41 6L42 6L42 8L40 8L40 9L39 9L39 6L38 6L38 7L37 7L37 6L36 6L36 10L34 10L34 9L35 9L35 4L36 4L36 3L35 3L35 4L34 4L34 5L33 5L33 6L32 6L32 7L33 7L33 6L34 6L34 8L32 8L32 9L33 9L33 10L34 10L34 11L33 11L33 12L32 12L32 14L31 14L31 16L30 16L30 15L29 15L29 16L30 16L30 17L28 17L28 18L30 18L30 17L31 17L31 16L32 16L32 19L31 19L31 20L32 20L32 21L33 21L33 22L31 22L31 23L29 23L29 22L28 22L28 23L29 23L29 24L28 24L28 26L26 26L26 25L27 25L27 23L26 23L26 22L27 22L27 20L26 20L26 19L25 19L25 18L26 18L26 17L27 17L27 16L26 16L26 15L27 15L27 14L26 14L26 11L24 11L24 9L25 9L25 8L24 8L24 9L23 9L23 8L22 8L22 10L23 10L23 11L22 11L22 12L24 12L24 13L23 13L23 14L24 14L24 13L25 13L25 14L26 14L26 15L25 15L25 16L26 16L26 17L25 17L25 18L24 18L24 15L23 15L23 16L22 16L22 14L21 14L21 18L20 18L20 16L19 16L19 14L20 14L20 13L21 13L21 12L20 12L20 11L21 11L21 10L20 10L20 11L19 11L19 10L16 10L16 11L14 11L14 12L16 12L16 11L17 11L17 14L15 14L15 15L17 15L17 16L16 16L16 17L15 17L15 18L14 18L14 17L12 17L12 18L11 18L11 19L10 19L10 21L9 21L9 23L10 23L10 22L11 22L11 24L10 24L10 25L11 25L11 26L12 26L12 27L13 27L13 28L12 28L12 29L14 29L14 28L16 28L16 27L15 27L15 26L16 26L16 25L17 25L17 23L16 23L16 22L18 22L18 23L19 23L19 22L18 22L18 21L19 21L19 20L20 20L20 21L21 21L21 20L22 20L22 21L23 21L23 23L22 23L22 22L20 22L20 23L21 23L21 26L20 26L20 28L21 28L21 30L20 30L20 31L19 31L19 32L18 32L18 30L17 30L17 31L16 31L16 30L15 30L15 31L16 31L16 32L15 32L15 35L16 35L16 37L17 37L17 38L16 38L16 39L18 39L18 38L19 38L19 40L20 40L20 41L21 41L21 39L22 39L22 41L23 41L23 43L22 43L22 44L23 44L23 48L24 48L24 47L25 47L25 48L26 48L26 46L28 46L28 47L29 47L29 46L30 46L30 47L31 47L31 46L30 46L30 45L31 45L31 42L30 42L30 41L31 41L31 38L33 38L33 39L34 39L34 41L35 41L35 38L36 38L36 37L35 37L35 38L34 38L34 36L35 36L35 35L36 35L36 33L35 33L35 32L34 32L34 33L33 33L33 32L32 32L32 31L31 31L31 30L32 30L32 29L33 29L33 31L34 31L34 29L35 29L35 27L34 27L34 29L33 29L33 28L32 28L32 25L33 25L33 26L34 26L34 24L36 24L36 23L39 23L39 22L38 22L38 21L37 21L37 20L39 20L39 19L40 19L40 22L42 22L42 23L43 23L43 24L44 24L44 23L45 23L45 22L46 22L46 21L45 21L45 19L46 19L46 17L47 17L47 16L46 16L46 13L45 13L45 12L44 12L44 10L42 10L42 8L43 8L43 6L44 6L44 5L45 5L45 4L44 4L44 2ZM16 3L16 4L17 4L17 3ZM43 4L43 5L44 5L44 4ZM11 5L11 6L10 6L10 8L12 8L12 9L13 9L13 8L14 8L14 9L15 9L15 8L14 8L14 7L15 7L15 6L14 6L14 7L13 7L13 5ZM27 5L27 8L30 8L30 5ZM11 6L11 7L12 7L12 6ZM16 6L16 7L17 7L17 6ZM24 6L24 7L25 7L25 6ZM28 6L28 7L29 7L29 6ZM37 8L37 9L38 9L38 10L37 10L37 11L36 11L36 12L35 12L35 11L34 11L34 12L35 12L35 13L34 13L34 15L33 15L33 14L32 14L32 16L33 16L33 17L34 17L34 19L33 19L33 21L34 21L34 22L35 22L35 23L36 23L36 22L37 22L37 21L36 21L36 20L35 20L35 21L34 21L34 19L35 19L35 18L36 18L36 19L37 19L37 18L36 18L36 15L37 15L37 16L38 16L38 18L40 18L40 19L41 19L41 20L42 20L42 22L43 22L43 23L44 23L44 22L45 22L45 21L44 21L44 19L45 19L45 17L44 17L44 16L45 16L45 14L44 14L44 12L42 12L42 10L41 10L41 9L40 9L40 10L39 10L39 9L38 9L38 8ZM6 9L6 10L7 10L7 9ZM47 9L47 10L48 10L48 9ZM50 9L50 10L51 10L51 12L52 12L52 10L51 10L51 9ZM38 10L38 11L37 11L37 12L36 12L36 14L35 14L35 15L34 15L34 17L35 17L35 15L36 15L36 14L37 14L37 15L38 15L38 13L37 13L37 12L40 12L40 13L39 13L39 14L40 14L40 18L41 18L41 19L42 19L42 20L43 20L43 19L44 19L44 17L43 17L43 18L42 18L42 17L41 17L41 15L42 15L42 12L41 12L41 10L40 10L40 11L39 11L39 10ZM18 11L18 12L19 12L19 11ZM1 13L1 14L2 14L2 13ZM18 13L18 14L17 14L17 15L18 15L18 14L19 14L19 13ZM40 13L40 14L41 14L41 13ZM43 14L43 16L44 16L44 14ZM54 14L54 15L55 15L55 14ZM17 16L17 17L16 17L16 18L17 18L17 21L18 21L18 18L19 18L19 19L20 19L20 18L19 18L19 17L18 17L18 16ZM2 17L2 18L1 18L1 20L2 20L2 21L1 21L1 23L2 23L2 21L3 21L3 20L2 20L2 18L3 18L3 17ZM12 18L12 19L13 19L13 18ZM22 18L22 20L23 20L23 18ZM6 19L6 20L7 20L7 19ZM14 19L14 20L16 20L16 19ZM24 19L24 20L25 20L25 19ZM28 19L28 21L29 21L29 19ZM53 19L53 20L52 20L52 22L51 22L51 23L52 23L52 25L53 25L53 24L54 24L54 25L55 25L55 24L54 24L54 22L55 22L55 21L54 21L54 19ZM11 20L11 21L13 21L13 20ZM48 20L48 21L47 21L47 22L48 22L48 25L49 25L49 24L50 24L50 22L48 22L48 21L49 21L49 20ZM14 21L14 24L13 24L13 22L12 22L12 24L13 24L13 25L12 25L12 26L13 26L13 25L14 25L14 24L15 24L15 21ZM35 21L35 22L36 22L36 21ZM43 21L43 22L44 22L44 21ZM24 22L24 23L25 23L25 22ZM52 22L52 23L53 23L53 22ZM31 23L31 25L30 25L30 24L29 24L29 26L31 26L31 25L32 25L32 23ZM33 23L33 24L34 24L34 23ZM5 24L5 25L8 25L8 24ZM18 24L18 26L19 26L19 24ZM24 25L24 26L23 26L23 27L22 27L22 28L23 28L23 29L22 29L22 30L21 30L21 31L20 31L20 35L21 35L21 38L20 38L20 39L21 39L21 38L22 38L22 36L23 36L23 40L24 40L24 43L25 43L25 42L26 42L26 41L25 41L25 40L30 40L30 36L31 36L31 37L32 37L32 36L31 36L31 35L28 35L28 34L29 34L29 31L28 31L28 32L26 32L26 30L25 30L25 29L24 29L24 27L25 27L25 25ZM5 27L5 30L8 30L8 27ZM9 27L9 29L10 29L10 27ZM18 27L18 28L19 28L19 27ZM27 27L27 30L30 30L30 27ZM49 27L49 30L52 30L52 27ZM54 27L54 28L53 28L53 29L56 29L56 28L55 28L55 27ZM6 28L6 29L7 29L7 28ZM28 28L28 29L29 29L29 28ZM31 28L31 29L32 29L32 28ZM46 28L46 29L45 29L45 30L46 30L46 31L47 31L47 30L48 30L48 28ZM50 28L50 29L51 29L51 28ZM23 29L23 30L22 30L22 33L23 33L23 35L25 35L25 36L24 36L24 37L25 37L25 36L26 36L26 35L25 35L25 34L24 34L24 32L23 32L23 30L24 30L24 29ZM10 30L10 31L9 31L9 32L10 32L10 33L8 33L8 32L7 32L7 33L6 33L6 34L7 34L7 35L6 35L6 36L7 36L7 35L8 35L8 34L11 34L11 32L13 32L13 31L11 31L11 30ZM37 30L37 31L38 31L38 30ZM53 30L53 31L50 31L50 33L49 33L49 34L48 34L48 33L46 33L46 32L45 32L45 33L44 33L44 34L45 34L45 33L46 33L46 34L48 34L48 35L47 35L47 36L46 36L46 35L45 35L45 36L46 36L46 38L47 38L47 40L48 40L48 41L46 41L46 39L45 39L45 41L46 41L46 42L45 42L45 43L46 43L46 42L47 42L47 44L46 44L46 47L47 47L47 46L49 46L49 45L50 45L50 46L51 46L51 47L52 47L52 48L53 48L53 47L54 47L54 50L53 50L53 51L54 51L54 52L55 52L55 51L56 51L56 49L55 49L55 47L56 47L56 44L55 44L55 43L56 43L56 42L55 42L55 41L54 41L54 42L55 42L55 43L54 43L54 44L53 44L53 40L52 40L52 44L51 44L51 45L50 45L50 42L49 42L49 41L51 41L51 40L50 40L50 37L51 37L51 36L53 36L53 37L52 37L52 38L51 38L51 39L52 39L52 38L53 38L53 37L54 37L54 36L55 36L55 33L53 33L53 31L54 31L54 32L55 32L55 31L56 31L56 30ZM16 32L16 34L17 34L17 33L18 33L18 32ZM30 32L30 34L32 34L32 35L33 35L33 34L32 34L32 32ZM27 33L27 34L28 34L28 33ZM34 33L34 34L35 34L35 33ZM50 33L50 36L49 36L49 35L48 35L48 36L47 36L47 38L48 38L48 37L50 37L50 36L51 36L51 33ZM53 34L53 36L54 36L54 34ZM17 35L17 37L18 37L18 35ZM27 35L27 36L28 36L28 37L29 37L29 36L28 36L28 35ZM1 36L1 37L2 37L2 39L3 39L3 38L4 38L4 39L5 39L5 38L9 38L9 37L10 37L10 36L9 36L9 37L2 37L2 36ZM26 37L26 38L24 38L24 39L26 39L26 38L27 38L27 37ZM28 38L28 39L29 39L29 38ZM48 39L48 40L49 40L49 39ZM9 40L9 41L10 41L10 40ZM11 40L11 41L12 41L12 40ZM15 40L15 42L16 42L16 41L17 41L17 40ZM39 40L39 41L40 41L40 40ZM2 41L2 42L3 42L3 43L2 43L2 44L1 44L1 45L2 45L2 46L1 46L1 47L2 47L2 46L3 46L3 47L5 47L5 46L4 46L4 45L2 45L2 44L3 44L3 43L4 43L4 42L3 42L3 41ZM28 41L28 42L27 42L27 43L29 43L29 45L28 45L28 44L27 44L27 45L28 45L28 46L29 46L29 45L30 45L30 42L29 42L29 41ZM20 42L20 43L19 43L19 44L20 44L20 45L21 45L21 42ZM48 43L48 44L47 44L47 45L48 45L48 44L49 44L49 43ZM9 45L9 46L10 46L10 47L9 47L9 48L11 48L11 49L12 49L12 50L13 50L13 49L12 49L12 48L11 48L11 46L10 46L10 45ZM13 45L13 47L14 47L14 45ZM24 45L24 46L26 46L26 45ZM36 45L36 46L37 46L37 45ZM53 45L53 46L54 46L54 45ZM46 48L46 51L47 51L47 52L48 52L48 51L47 51L47 48ZM27 49L27 52L30 52L30 49ZM40 49L40 51L41 51L41 52L42 52L42 51L41 51L41 49ZM49 49L49 52L52 52L52 49ZM28 50L28 51L29 51L29 50ZM50 50L50 51L51 51L51 50ZM8 51L8 52L9 52L9 51ZM34 51L34 52L35 52L35 53L34 53L34 54L35 54L35 53L36 53L36 52L35 52L35 51ZM39 52L39 53L40 53L40 52ZM45 52L45 53L46 53L46 52ZM27 53L27 55L28 55L28 53ZM31 53L31 54L30 54L30 55L33 55L33 54L32 54L32 53ZM48 53L48 54L49 54L49 53ZM9 54L9 56L11 56L11 55L10 55L10 54ZM14 54L14 56L15 56L15 54ZM16 54L16 55L17 55L17 54ZM20 54L20 55L21 55L21 54ZM40 54L40 56L41 56L41 54ZM36 56L36 57L37 57L37 56ZM56 56L56 57L57 57L57 56ZM0 0L0 7L7 7L7 0ZM1 1L1 6L6 6L6 1ZM2 2L2 5L5 5L5 2ZM50 0L50 7L57 7L57 0ZM51 1L51 6L56 6L56 1ZM52 2L52 5L55 5L55 2ZM0 50L0 57L7 57L7 50ZM1 51L1 56L6 56L6 51ZM2 52L2 55L5 55L5 52Z" fill="#000000"/></g></g></svg>
