<?xml version="1.0" encoding="UTF-8"?>
<svg xmlns="http://www.w3.org/2000/svg" version="1.1" width="300" height="300" viewBox="0 0 300 300"><rect x="0" y="0" width="300" height="300" fill="#fefefe"/><g transform="scale(4.615)"><g transform="translate(4,4)"><path fill-rule="evenodd" d="M8 0L8 4L13 4L13 6L12 6L12 9L10 9L10 8L11 8L11 6L10 6L10 7L9 7L9 5L8 5L8 7L9 7L9 9L10 9L10 10L5 10L5 9L7 9L7 8L4 8L4 10L5 10L5 11L4 11L4 12L6 12L6 13L5 13L5 14L6 14L6 15L5 15L5 16L4 16L4 15L3 15L3 14L2 14L2 11L3 11L3 10L2 10L2 11L1 11L1 9L2 9L2 8L0 8L0 11L1 11L1 12L0 12L0 14L1 14L1 16L0 16L0 19L1 19L1 18L4 18L4 20L6 20L6 21L3 21L3 19L2 19L2 21L0 21L0 22L6 22L6 23L2 23L2 24L4 24L4 25L2 25L2 26L1 26L1 25L0 25L0 26L1 26L1 27L0 27L0 33L1 33L1 34L0 34L0 37L1 37L1 36L2 36L2 37L3 37L3 38L4 38L4 36L2 36L2 34L3 34L3 33L1 33L1 32L2 32L2 31L3 31L3 32L4 32L4 35L7 35L7 34L8 34L8 35L11 35L11 36L8 36L8 37L7 37L7 36L6 36L6 37L5 37L5 39L3 39L3 40L5 40L5 39L7 39L7 38L9 38L9 39L8 39L8 41L7 41L7 40L6 40L6 41L1 41L1 40L0 40L0 41L1 41L1 42L0 42L0 43L1 43L1 44L0 44L0 45L1 45L1 46L0 46L0 48L5 48L5 47L7 47L7 48L6 48L6 49L7 49L7 48L8 48L8 50L10 50L10 49L9 49L9 48L8 48L8 47L10 47L10 48L11 48L11 47L10 47L10 46L12 46L12 47L14 47L14 48L13 48L13 50L14 50L14 48L15 48L15 50L16 50L16 51L17 51L17 50L16 50L16 48L17 48L17 49L18 49L18 52L17 52L17 53L15 53L15 51L14 51L14 52L13 52L13 53L15 53L15 54L13 54L13 55L12 55L12 51L8 51L8 53L9 53L9 52L11 52L11 54L9 54L9 55L8 55L8 57L9 57L9 55L12 55L12 57L14 57L14 55L16 55L16 54L17 54L17 55L20 55L20 54L21 54L21 56L17 56L17 57L22 57L22 54L23 54L23 55L24 55L24 56L25 56L25 54L24 54L24 53L25 53L25 50L26 50L26 57L27 57L27 53L28 53L28 57L29 57L29 55L30 55L30 57L34 57L34 55L35 55L35 57L37 57L37 56L36 56L36 54L37 54L37 55L39 55L39 57L40 57L40 54L43 54L43 55L41 55L41 57L43 57L43 56L44 56L44 57L50 57L50 55L51 55L51 56L53 56L53 57L54 57L54 56L53 56L53 54L54 54L54 55L55 55L55 54L57 54L57 52L56 52L56 50L57 50L57 49L56 49L56 44L57 44L57 43L56 43L56 42L57 42L57 40L55 40L55 41L53 41L53 39L57 39L57 38L53 38L53 39L52 39L52 41L51 41L51 43L50 43L50 42L49 42L49 41L48 41L48 42L49 42L49 43L48 43L48 45L49 45L49 47L48 47L48 49L47 49L47 52L46 52L46 53L45 53L45 51L43 51L43 52L44 52L44 53L42 53L42 50L43 50L43 49L42 49L42 47L44 47L44 46L45 46L45 48L44 48L44 50L45 50L45 49L46 49L46 48L47 48L47 47L46 47L46 45L47 45L47 44L46 44L46 45L45 45L45 44L44 44L44 43L43 43L43 44L42 44L42 43L40 43L40 42L43 42L43 41L44 41L44 42L45 42L45 43L47 43L47 42L46 42L46 41L47 41L47 40L51 40L51 39L47 39L47 38L49 38L49 35L50 35L50 38L52 38L52 37L51 37L51 36L53 36L53 37L55 37L55 36L56 36L56 37L57 37L57 36L56 36L56 35L55 35L55 33L56 33L56 30L55 30L55 29L57 29L57 28L56 28L56 26L55 26L55 25L52 25L52 24L53 24L53 23L55 23L55 24L56 24L56 25L57 25L57 24L56 24L56 21L57 21L57 20L56 20L56 17L57 17L57 15L56 15L56 10L57 10L57 8L53 8L53 9L52 9L52 8L51 8L51 9L50 9L50 15L48 15L48 17L47 17L47 18L46 18L46 17L45 17L45 16L46 16L46 11L45 11L45 10L46 10L46 8L49 8L49 6L48 6L48 7L47 7L47 5L48 5L48 0L41 0L41 1L40 1L40 2L39 2L39 3L40 3L40 4L38 4L38 3L37 3L37 2L38 2L38 1L39 1L39 0L38 0L38 1L37 1L37 2L36 2L36 0L35 0L35 1L34 1L34 0L33 0L33 1L34 1L34 4L35 4L35 5L32 5L32 3L33 3L33 2L32 2L32 0L29 0L29 1L28 1L28 0L23 0L23 3L22 3L22 2L21 2L21 3L22 3L22 4L21 4L21 5L22 5L22 7L21 7L21 6L20 6L20 5L19 5L19 4L17 4L17 2L18 2L18 3L19 3L19 2L20 2L20 1L21 1L21 0L20 0L20 1L19 1L19 0L17 0L17 2L15 2L15 3L16 3L16 4L17 4L17 5L19 5L19 6L18 6L18 7L17 7L17 6L16 6L16 5L15 5L15 4L14 4L14 0L13 0L13 2L12 2L12 0ZM15 0L15 1L16 1L16 0ZM25 1L25 3L23 3L23 4L22 4L22 5L24 5L24 4L25 4L25 3L26 3L26 4L28 4L28 3L27 3L27 2L28 2L28 1ZM29 1L29 4L30 4L30 3L32 3L32 2L30 2L30 1ZM45 1L45 2L47 2L47 1ZM11 2L11 3L12 3L12 2ZM35 2L35 4L36 4L36 5L35 5L35 7L34 7L34 6L33 6L33 7L32 7L32 6L31 6L31 10L28 10L28 9L26 9L26 6L25 6L25 7L24 7L24 6L23 6L23 7L22 7L22 10L20 10L20 8L19 8L19 10L18 10L18 11L17 11L17 13L15 13L15 12L14 12L14 11L13 11L13 10L14 10L14 8L13 8L13 10L11 10L11 11L10 11L10 13L9 13L9 12L7 12L7 11L6 11L6 12L7 12L7 13L6 13L6 14L8 14L8 13L9 13L9 14L10 14L10 13L11 13L11 15L12 15L12 14L13 14L13 15L14 15L14 16L12 16L12 17L13 17L13 18L12 18L12 20L8 20L8 16L9 16L9 15L8 15L8 16L7 16L7 15L6 15L6 16L5 16L5 17L4 17L4 18L5 18L5 19L6 19L6 20L8 20L8 22L10 22L10 21L12 21L12 22L14 22L14 21L12 21L12 20L13 20L13 19L14 19L14 20L15 20L15 21L17 21L17 22L16 22L16 23L15 23L15 24L14 24L14 23L13 23L13 24L14 24L14 25L12 25L12 24L11 24L11 23L10 23L10 24L8 24L8 23L6 23L6 24L5 24L5 26L7 26L7 25L6 25L6 24L8 24L8 26L9 26L9 27L10 27L10 29L9 29L9 30L10 30L10 31L9 31L9 32L10 32L10 33L9 33L9 34L11 34L11 33L12 33L12 34L13 34L13 33L14 33L14 35L12 35L12 36L11 36L11 37L10 37L10 40L9 40L9 41L8 41L8 42L7 42L7 41L6 41L6 42L7 42L7 43L6 43L6 44L5 44L5 43L4 43L4 42L2 42L2 45L4 45L4 46L3 46L3 47L5 47L5 46L9 46L9 45L10 45L10 44L12 44L12 43L13 43L13 46L15 46L15 45L14 45L14 44L17 44L17 45L16 45L16 46L17 46L17 45L18 45L18 44L19 44L19 43L20 43L20 45L19 45L19 46L18 46L18 48L22 48L22 49L21 49L21 50L20 50L20 49L19 49L19 51L22 51L22 49L23 49L23 48L24 48L24 49L25 49L25 47L26 47L26 48L27 48L27 47L29 47L29 48L31 48L31 49L32 49L32 51L31 51L31 52L32 52L32 51L33 51L33 52L34 52L34 51L33 51L33 49L34 49L34 50L35 50L35 52L36 52L36 49L34 49L34 48L35 48L35 47L36 47L36 48L37 48L37 46L38 46L38 45L39 45L39 44L40 44L40 51L38 51L38 49L39 49L39 47L38 47L38 49L37 49L37 51L38 51L38 52L37 52L37 53L38 53L38 52L40 52L40 53L41 53L41 44L40 44L40 43L39 43L39 44L37 44L37 43L33 43L33 41L32 41L32 40L33 40L33 39L34 39L34 42L35 42L35 39L37 39L37 42L38 42L38 39L40 39L40 38L38 38L38 37L41 37L41 39L42 39L42 37L41 37L41 35L42 35L42 34L40 34L40 33L41 33L41 32L40 32L40 30L41 30L41 29L44 29L44 30L43 30L43 31L45 31L45 30L46 30L46 32L45 32L45 33L46 33L46 34L44 34L44 33L43 33L43 34L44 34L44 35L43 35L43 37L44 37L44 38L43 38L43 39L45 39L45 37L46 37L46 38L47 38L47 37L48 37L48 36L47 36L47 35L46 35L46 34L49 34L49 33L48 33L48 31L47 31L47 30L48 30L48 28L47 28L47 27L48 27L48 26L47 26L47 25L48 25L48 23L50 23L50 22L47 22L47 21L46 21L46 20L45 20L45 21L46 21L46 24L45 24L45 22L44 22L44 16L45 16L45 15L44 15L44 14L45 14L45 13L44 13L44 12L45 12L45 11L44 11L44 10L45 10L45 9L44 9L44 4L45 4L45 5L47 5L47 3L44 3L44 2L43 2L43 3L41 3L41 2L40 2L40 3L41 3L41 4L43 4L43 8L40 8L40 6L41 6L41 7L42 7L42 6L41 6L41 5L39 5L39 8L38 8L38 4L37 4L37 3L36 3L36 2ZM43 3L43 4L44 4L44 3ZM27 5L27 8L30 8L30 5ZM36 5L36 7L35 7L35 9L38 9L38 11L37 11L37 12L35 12L35 11L36 11L36 10L34 10L34 9L33 9L33 8L34 8L34 7L33 7L33 8L32 8L32 11L29 11L29 12L32 12L32 14L31 14L31 13L30 13L30 15L32 15L32 17L33 17L33 19L31 19L31 16L29 16L29 13L27 13L27 14L28 14L28 15L27 15L27 17L26 17L26 11L27 11L27 12L28 12L28 11L27 11L27 10L25 10L25 9L23 9L23 12L22 12L22 11L19 11L19 12L18 12L18 13L17 13L17 14L15 14L15 13L13 13L13 14L14 14L14 15L15 15L15 16L14 16L14 17L15 17L15 18L16 18L16 19L15 19L15 20L17 20L17 21L19 21L19 23L18 23L18 24L17 24L17 26L16 26L16 25L15 25L15 27L14 27L14 26L13 26L13 27L12 27L12 25L11 25L11 24L10 24L10 25L9 25L9 26L10 26L10 27L12 27L12 28L11 28L11 29L10 29L10 30L11 30L11 31L10 31L10 32L12 32L12 31L13 31L13 32L14 32L14 33L17 33L17 34L16 34L16 36L14 36L14 37L13 37L13 36L12 36L12 37L11 37L11 38L14 38L14 37L16 37L16 36L17 36L17 37L21 37L21 38L20 38L20 39L17 39L17 38L16 38L16 39L13 39L13 41L14 41L14 42L15 42L15 43L16 43L16 40L17 40L17 41L19 41L19 40L20 40L20 42L22 42L22 40L24 40L24 39L23 39L23 38L22 38L22 36L23 36L23 37L24 37L24 38L25 38L25 39L27 39L27 40L25 40L25 41L23 41L23 44L22 44L22 43L21 43L21 45L20 45L20 46L19 46L19 47L20 47L20 46L21 46L21 47L22 47L22 48L23 48L23 47L25 47L25 46L26 46L26 47L27 47L27 46L28 46L28 45L29 45L29 46L31 46L31 48L32 48L32 49L33 49L33 48L34 48L34 45L35 45L35 46L37 46L37 44L33 44L33 43L32 43L32 41L31 41L31 39L33 39L33 38L34 38L34 39L35 39L35 38L37 38L37 37L38 37L38 36L40 36L40 35L38 35L38 34L39 34L39 33L40 33L40 32L39 32L39 29L40 29L40 27L42 27L42 28L43 28L43 26L46 26L46 27L47 27L47 26L46 26L46 25L47 25L47 24L46 24L46 25L45 25L45 24L44 24L44 22L43 22L43 20L42 20L42 21L40 21L40 18L41 18L41 19L42 19L42 18L43 18L43 17L42 17L42 15L43 15L43 16L44 16L44 15L43 15L43 13L38 13L38 15L39 15L39 17L38 17L38 16L37 16L37 15L35 15L35 17L38 17L38 18L39 18L39 19L38 19L38 22L37 22L37 18L35 18L35 19L34 19L34 13L33 13L33 12L32 12L32 11L33 11L33 10L34 10L34 12L35 12L35 13L36 13L36 14L37 14L37 12L39 12L39 10L40 10L40 11L41 11L41 12L44 12L44 11L43 11L43 10L44 10L44 9L41 9L41 10L40 10L40 8L39 8L39 9L38 9L38 8L37 8L37 5ZM13 6L13 7L14 7L14 6ZM15 6L15 7L16 7L16 6ZM19 6L19 7L20 7L20 6ZM28 6L28 7L29 7L29 6ZM45 6L45 8L46 8L46 6ZM23 7L23 8L24 8L24 7ZM15 9L15 11L16 11L16 10L17 10L17 9ZM47 9L47 11L49 11L49 9ZM51 9L51 11L52 11L52 12L51 12L51 14L52 14L52 17L51 17L51 18L50 18L50 16L49 16L49 18L48 18L48 19L47 19L47 20L48 20L48 21L51 21L51 22L52 22L52 23L53 23L53 22L52 22L52 21L54 21L54 22L55 22L55 21L56 21L56 20L55 20L55 17L56 17L56 16L55 16L55 9L53 9L53 10L52 10L52 9ZM53 10L53 11L54 11L54 10ZM11 11L11 12L12 12L12 11ZM19 12L19 14L17 14L17 16L18 16L18 15L19 15L19 16L20 16L20 17L16 17L16 18L17 18L17 20L19 20L19 21L20 21L20 19L21 19L21 18L20 18L20 17L25 17L25 15L24 15L24 13L25 13L25 12L24 12L24 13L21 13L21 14L20 14L20 12ZM53 12L53 13L52 13L52 14L53 14L53 15L54 15L54 14L53 14L53 13L54 13L54 12ZM47 13L47 14L49 14L49 13ZM21 14L21 15L22 15L22 16L24 16L24 15L22 15L22 14ZM40 14L40 17L39 17L39 18L40 18L40 17L41 17L41 14ZM2 16L2 17L3 17L3 16ZM6 16L6 17L7 17L7 16ZM9 17L9 19L10 19L10 18L11 18L11 17ZM27 17L27 19L26 19L26 20L27 20L27 19L30 19L30 20L28 20L28 21L24 21L24 20L25 20L25 18L24 18L24 19L23 19L23 18L22 18L22 20L21 20L21 21L24 21L24 22L25 22L25 23L26 23L26 22L27 22L27 23L28 23L28 22L29 22L29 23L30 23L30 22L29 22L29 21L32 21L32 20L31 20L31 19L30 19L30 18L28 18L28 17ZM52 17L52 18L53 18L53 17ZM6 18L6 19L7 19L7 18ZM49 18L49 20L51 20L51 21L52 21L52 20L53 20L53 19L50 19L50 18ZM33 19L33 21L34 21L34 22L31 22L31 29L32 29L32 28L33 28L33 27L34 27L34 31L35 31L35 28L37 28L37 29L38 29L38 28L37 28L37 27L39 27L39 26L38 26L38 23L37 23L37 22L35 22L35 20L36 20L36 19L35 19L35 20L34 20L34 19ZM6 21L6 22L7 22L7 21ZM39 21L39 25L40 25L40 26L41 26L41 25L42 25L42 23L43 23L43 22L40 22L40 21ZM20 22L20 23L19 23L19 24L20 24L20 25L19 25L19 28L18 28L18 29L15 29L15 28L16 28L16 27L15 27L15 28L12 28L12 29L11 29L11 30L13 30L13 31L14 31L14 32L15 32L15 30L16 30L16 32L17 32L17 33L18 33L18 34L17 34L17 35L18 35L18 36L22 36L22 34L23 34L23 33L26 33L26 34L24 34L24 36L25 36L25 37L27 37L27 39L28 39L28 38L29 38L29 39L31 39L31 38L33 38L33 37L34 37L34 38L35 38L35 37L34 37L34 36L35 36L35 33L34 33L34 36L33 36L33 37L32 37L32 36L31 36L31 35L33 35L33 34L32 34L32 32L33 32L33 31L32 31L32 30L31 30L31 31L32 31L32 32L30 32L30 31L27 31L27 32L29 32L29 33L28 33L28 34L27 34L27 33L26 33L26 31L24 31L24 30L23 30L23 28L22 28L22 27L20 27L20 25L23 25L23 24L24 24L24 23L23 23L23 24L22 24L22 22ZM34 22L34 23L32 23L32 27L33 27L33 26L34 26L34 25L37 25L37 24L34 24L34 23L35 23L35 22ZM28 24L28 26L29 26L29 24ZM33 24L33 25L34 25L34 24ZM43 24L43 25L44 25L44 24ZM50 24L50 25L49 25L49 26L50 26L50 25L51 25L51 26L52 26L52 25L51 25L51 24ZM25 25L25 27L26 27L26 25ZM17 26L17 27L18 27L18 26ZM36 26L36 27L37 27L37 26ZM54 26L54 27L53 27L53 28L54 28L54 29L55 29L55 26ZM2 27L2 28L3 28L3 30L4 30L4 27ZM5 27L5 30L8 30L8 27ZM27 27L27 30L30 30L30 27ZM44 27L44 29L45 29L45 27ZM49 27L49 30L52 30L52 27ZM6 28L6 29L7 29L7 28ZM28 28L28 29L29 29L29 28ZM46 28L46 29L47 29L47 28ZM50 28L50 29L51 29L51 28ZM1 29L1 30L2 30L2 29ZM13 29L13 30L15 30L15 29ZM18 29L18 30L17 30L17 31L18 31L18 33L19 33L19 32L21 32L21 33L20 33L20 34L18 34L18 35L20 35L20 34L21 34L21 33L22 33L22 31L23 31L23 32L24 32L24 31L23 31L23 30L22 30L22 29ZM25 29L25 30L26 30L26 29ZM19 30L19 31L22 31L22 30ZM37 30L37 32L38 32L38 30ZM54 30L54 31L53 31L53 32L55 32L55 30ZM4 31L4 32L7 32L7 31ZM49 31L49 32L50 32L50 35L53 35L53 36L55 36L55 35L53 35L53 34L54 34L54 33L51 33L51 32L50 32L50 31ZM46 32L46 33L47 33L47 32ZM6 33L6 34L7 34L7 33ZM29 33L29 34L28 34L28 36L27 36L27 34L26 34L26 35L25 35L25 36L27 36L27 37L28 37L28 36L29 36L29 37L31 37L31 36L30 36L30 34L31 34L31 33ZM37 33L37 34L38 34L38 33ZM37 35L37 36L38 36L38 35ZM44 35L44 37L45 37L45 35ZM6 37L6 38L7 38L7 37ZM11 39L11 40L12 40L12 39ZM21 39L21 40L22 40L22 39ZM46 39L46 40L45 40L45 41L46 41L46 40L47 40L47 39ZM14 40L14 41L15 41L15 40ZM27 40L27 41L26 41L26 42L24 42L24 43L27 43L27 41L28 41L28 44L27 44L27 45L26 45L26 46L27 46L27 45L28 45L28 44L29 44L29 45L31 45L31 46L32 46L32 44L29 44L29 43L31 43L31 41L29 41L29 40ZM40 40L40 41L39 41L39 42L40 42L40 41L42 41L42 40ZM9 41L9 42L8 42L8 43L9 43L9 44L8 44L8 45L9 45L9 44L10 44L10 43L12 43L12 41ZM52 41L52 43L51 43L51 44L50 44L50 43L49 43L49 44L50 44L50 45L51 45L51 44L52 44L52 43L53 43L53 44L54 44L54 45L55 45L55 44L56 44L56 43L55 43L55 42L54 42L54 43L53 43L53 41ZM17 42L17 43L18 43L18 42ZM3 43L3 44L4 44L4 45L5 45L5 44L4 44L4 43ZM6 44L6 45L7 45L7 44ZM24 44L24 45L21 45L21 46L22 46L22 47L23 47L23 46L24 46L24 45L25 45L25 44ZM43 44L43 45L44 45L44 44ZM52 45L52 46L53 46L53 45ZM1 46L1 47L2 47L2 46ZM50 46L50 47L49 47L49 48L53 48L53 49L55 49L55 46L54 46L54 47L51 47L51 46ZM15 47L15 48L16 48L16 47ZM27 49L27 52L30 52L30 49ZM49 49L49 52L52 52L52 49ZM28 50L28 51L29 51L29 50ZM50 50L50 51L51 51L51 50ZM53 50L53 53L54 53L54 52L55 52L55 51L54 51L54 50ZM19 52L19 53L17 53L17 54L19 54L19 53L20 53L20 52ZM21 52L21 53L24 53L24 52ZM47 52L47 53L46 53L46 54L47 54L47 55L48 55L48 56L49 56L49 54L51 54L51 55L52 55L52 54L51 54L51 53L49 53L49 54L47 54L47 53L48 53L48 52ZM30 53L30 54L31 54L31 53ZM32 53L32 54L33 54L33 53ZM34 53L34 54L35 54L35 53ZM44 53L44 56L46 56L46 55L45 55L45 53ZM10 56L10 57L11 57L11 56ZM56 56L56 57L57 57L57 56ZM0 0L0 7L7 7L7 0ZM1 1L1 6L6 6L6 1ZM2 2L2 5L5 5L5 2ZM50 0L50 7L57 7L57 0ZM51 1L51 6L56 6L56 1ZM52 2L52 5L55 5L55 2ZM0 50L0 57L7 57L7 50ZM1 51L1 56L6 56L6 51ZM2 52L2 55L5 55L5 52Z" fill="#000000"/></g></g></svg>
