<?xml version="1.0" encoding="UTF-8"?>
<svg xmlns="http://www.w3.org/2000/svg" version="1.1" width="300" height="300" viewBox="0 0 300 300"><rect x="0" y="0" width="300" height="300" fill="#fefefe"/><g transform="scale(4.615)"><g transform="translate(4,4)"><path fill-rule="evenodd" d="M8 0L8 2L9 2L9 4L8 4L8 9L9 9L9 10L8 10L8 11L9 11L9 10L10 10L10 9L9 9L9 5L10 5L10 8L12 8L12 9L11 9L11 10L12 10L12 11L10 11L10 12L8 12L8 14L6 14L6 15L5 15L5 14L4 14L4 13L3 13L3 12L5 12L5 13L7 13L7 12L6 12L6 11L7 11L7 10L6 10L6 9L7 9L7 8L5 8L5 10L6 10L6 11L4 11L4 9L3 9L3 8L0 8L0 10L3 10L3 11L2 11L2 12L1 12L1 11L0 11L0 12L1 12L1 14L0 14L0 15L1 15L1 14L2 14L2 16L3 16L3 17L4 17L4 19L7 19L7 20L6 20L6 21L5 21L5 20L3 20L3 19L2 19L2 18L1 18L1 19L0 19L0 20L3 20L3 21L4 21L4 22L2 22L2 23L5 23L5 24L6 24L6 25L7 25L7 26L5 26L5 25L4 25L4 24L3 24L3 25L2 25L2 26L1 26L1 27L0 27L0 35L1 35L1 37L0 37L0 41L1 41L1 40L2 40L2 41L4 41L4 43L3 43L3 42L2 42L2 43L0 43L0 45L2 45L2 47L1 47L1 46L0 46L0 48L5 48L5 47L7 47L7 48L6 48L6 49L8 49L8 50L9 50L9 49L8 49L8 48L9 48L9 46L6 46L6 45L7 45L7 44L6 44L6 43L8 43L8 37L9 37L9 38L10 38L10 41L11 41L11 40L12 40L12 38L13 38L13 41L12 41L12 43L10 43L10 44L9 44L9 45L10 45L10 46L11 46L11 45L10 45L10 44L12 44L12 46L13 46L13 44L14 44L14 45L15 45L15 46L14 46L14 48L13 48L13 47L10 47L10 48L12 48L12 49L14 49L14 48L15 48L15 47L16 47L16 48L18 48L18 49L17 49L17 51L16 51L16 49L15 49L15 50L13 50L13 51L11 51L11 49L10 49L10 52L9 52L9 51L8 51L8 52L9 52L9 54L8 54L8 57L9 57L9 56L10 56L10 53L11 53L11 54L13 54L13 53L11 53L11 52L14 52L14 55L15 55L15 56L16 56L16 57L17 57L17 56L18 56L18 57L19 57L19 56L18 56L18 55L16 55L16 54L18 54L18 53L19 53L19 52L18 52L18 53L17 53L17 51L18 51L18 49L19 49L19 51L20 51L20 53L21 53L21 52L22 52L22 54L20 54L20 55L21 55L21 56L22 56L22 57L25 57L25 56L26 56L26 57L28 57L28 55L29 55L29 57L33 57L33 55L34 55L34 57L35 57L35 55L37 55L37 54L38 54L38 53L39 53L39 55L40 55L40 57L42 57L42 56L43 56L43 54L42 54L42 52L44 52L44 57L48 57L48 55L49 55L49 57L50 57L50 55L49 55L49 54L52 54L52 55L53 55L53 54L54 54L54 55L57 55L57 54L54 54L54 53L56 53L56 52L57 52L57 49L56 49L56 47L57 47L57 45L56 45L56 44L57 44L57 42L56 42L56 41L57 41L57 40L54 40L54 38L57 38L57 33L56 33L56 31L57 31L57 29L56 29L56 28L57 28L57 24L56 24L56 23L57 23L57 13L56 13L56 15L55 15L55 13L54 13L54 15L53 15L53 16L52 16L52 14L53 14L53 12L54 12L54 11L55 11L55 12L56 12L56 11L57 11L57 10L56 10L56 9L57 9L57 8L55 8L55 9L54 9L54 10L52 10L52 12L51 12L51 10L50 10L50 9L53 9L53 8L49 8L49 6L48 6L48 8L47 8L47 5L48 5L48 0L46 0L46 1L47 1L47 2L45 2L45 4L44 4L44 2L43 2L43 4L42 4L42 3L41 3L41 4L42 4L42 5L41 5L41 6L40 6L40 7L39 7L39 6L38 6L38 5L39 5L39 4L40 4L40 2L42 2L42 1L45 1L45 0L42 0L42 1L41 1L41 0L38 0L38 2L37 2L37 1L35 1L35 0L34 0L34 3L33 3L33 6L32 6L32 7L33 7L33 6L34 6L34 8L32 8L32 9L31 9L31 5L32 5L32 2L31 2L31 3L30 3L30 2L27 2L27 0L24 0L24 1L23 1L23 0L20 0L20 1L19 1L19 0L16 0L16 2L15 2L15 0L14 0L14 3L13 3L13 2L11 2L11 3L10 3L10 1L9 1L9 0ZM28 0L28 1L29 1L29 0ZM30 0L30 1L31 1L31 0ZM18 1L18 2L17 2L17 3L16 3L16 4L17 4L17 5L16 5L16 6L15 6L15 7L14 7L14 6L13 6L13 7L12 7L12 6L11 6L11 7L12 7L12 8L13 8L13 9L12 9L12 10L13 10L13 12L11 12L11 15L10 15L10 14L8 14L8 15L6 15L6 16L7 16L7 17L5 17L5 18L7 18L7 19L8 19L8 20L9 20L9 17L10 17L10 21L9 21L9 22L10 22L10 21L11 21L11 23L12 23L12 24L10 24L10 23L8 23L8 24L10 24L10 26L9 26L9 31L8 31L8 32L11 32L11 33L12 33L12 32L13 32L13 30L16 30L16 31L14 31L14 34L12 34L12 36L11 36L11 34L10 34L10 33L8 33L8 34L7 34L7 33L6 33L6 32L7 32L7 31L6 31L6 32L5 32L5 31L4 31L4 32L2 32L2 31L3 31L3 30L2 30L2 29L3 29L3 28L4 28L4 27L3 27L3 26L2 26L2 28L1 28L1 34L3 34L3 35L2 35L2 36L3 36L3 35L4 35L4 36L5 36L5 37L1 37L1 38L2 38L2 40L4 40L4 41L5 41L5 42L7 42L7 41L6 41L6 40L7 40L7 39L6 39L6 38L7 38L7 37L8 37L8 34L10 34L10 36L11 36L11 37L10 37L10 38L11 38L11 37L13 37L13 38L14 38L14 37L15 37L15 39L14 39L14 41L13 41L13 42L14 42L14 41L16 41L16 42L15 42L15 45L16 45L16 47L17 47L17 44L16 44L16 42L18 42L18 39L16 39L16 38L17 38L17 37L18 37L18 38L19 38L19 37L18 37L18 36L21 36L21 37L22 37L22 38L23 38L23 41L22 41L22 40L20 40L20 43L18 43L18 44L20 44L20 46L19 46L19 45L18 45L18 47L19 47L19 49L20 49L20 51L22 51L22 48L23 48L23 49L24 49L24 51L23 51L23 52L24 52L24 51L25 51L25 54L24 54L24 55L26 55L26 51L25 51L25 48L27 48L27 47L28 47L28 46L29 46L29 48L31 48L31 49L32 49L32 50L31 50L31 52L32 52L32 50L33 50L33 51L37 51L37 49L36 49L36 48L37 48L37 47L38 47L38 51L39 51L39 49L40 49L40 51L41 51L41 52L42 52L42 51L41 51L41 49L42 49L42 50L43 50L43 51L44 51L44 48L46 48L46 50L45 50L45 51L46 51L46 50L47 50L47 48L46 48L46 47L48 47L48 45L49 45L49 48L50 48L50 46L51 46L51 45L52 45L52 47L51 47L51 48L53 48L53 49L54 49L54 50L53 50L53 51L54 51L54 52L56 52L56 51L55 51L55 49L54 49L54 48L55 48L55 47L56 47L56 45L55 45L55 44L56 44L56 42L55 42L55 41L54 41L54 40L53 40L53 38L54 38L54 36L56 36L56 33L55 33L55 31L56 31L56 30L55 30L55 28L56 28L56 24L55 24L55 23L56 23L56 21L55 21L55 19L56 19L56 18L55 18L55 19L54 19L54 17L56 17L56 16L55 16L55 15L54 15L54 17L53 17L53 18L52 18L52 16L51 16L51 14L52 14L52 13L50 13L50 10L49 10L49 8L48 8L48 10L49 10L49 11L48 11L48 14L47 14L47 13L46 13L46 11L47 11L47 8L46 8L46 5L47 5L47 3L46 3L46 4L45 4L45 5L44 5L44 4L43 4L43 5L44 5L44 6L43 6L43 7L42 7L42 6L41 6L41 7L40 7L40 8L38 8L38 6L37 6L37 5L38 5L38 4L39 4L39 3L37 3L37 2L35 2L35 3L34 3L34 4L35 4L35 9L34 9L34 10L33 10L33 9L32 9L32 11L31 11L31 12L30 12L30 11L29 11L29 10L28 10L28 9L27 9L27 10L25 10L25 9L26 9L26 5L24 5L24 6L23 6L23 3L22 3L22 6L21 6L21 7L22 7L22 6L23 6L23 8L25 8L25 9L24 9L24 10L23 10L23 9L22 9L22 8L21 8L21 9L20 9L20 10L21 10L21 12L20 12L20 11L18 11L18 12L20 12L20 14L19 14L19 13L18 13L18 14L17 14L17 10L19 10L19 9L18 9L18 6L17 6L17 5L18 5L18 4L19 4L19 7L20 7L20 5L21 5L21 3L20 3L20 2L22 2L22 1L20 1L20 2L19 2L19 1ZM24 1L24 4L25 4L25 1ZM39 1L39 2L40 2L40 1ZM18 2L18 3L17 3L17 4L18 4L18 3L19 3L19 2ZM11 3L11 5L13 5L13 3ZM14 3L14 4L15 4L15 3ZM26 3L26 4L27 4L27 3ZM28 3L28 4L30 4L30 3ZM35 3L35 4L36 4L36 3ZM27 5L27 8L30 8L30 5ZM16 6L16 7L17 7L17 6ZM24 6L24 7L25 7L25 6ZM28 6L28 7L29 7L29 6ZM36 6L36 10L34 10L34 11L32 11L32 13L31 13L31 14L32 14L32 13L33 13L33 15L31 15L31 16L30 16L30 15L29 15L29 13L30 13L30 12L29 12L29 11L28 11L28 10L27 10L27 11L28 11L28 12L27 12L27 14L28 14L28 15L29 15L29 16L30 16L30 17L28 17L28 18L30 18L30 17L33 17L33 18L32 18L32 19L31 19L31 20L30 20L30 21L29 21L29 20L28 20L28 19L27 19L27 18L26 18L26 15L24 15L24 13L25 13L25 14L26 14L26 11L25 11L25 10L24 10L24 11L22 11L22 12L23 12L23 16L22 16L22 14L20 14L20 15L19 15L19 14L18 14L18 15L17 15L17 14L15 14L15 15L17 15L17 16L18 16L18 17L17 17L17 18L16 18L16 17L15 17L15 16L14 16L14 14L13 14L13 13L12 13L12 15L13 15L13 16L11 16L11 18L13 18L13 21L12 21L12 20L11 20L11 21L12 21L12 23L13 23L13 24L12 24L12 25L13 25L13 26L10 26L10 29L11 29L11 27L12 27L12 28L13 28L13 29L15 29L15 28L16 28L16 27L13 27L13 26L14 26L14 25L15 25L15 26L16 26L16 25L17 25L17 23L16 23L16 22L18 22L18 23L19 23L19 20L20 20L20 21L21 21L21 22L20 22L20 23L21 23L21 27L20 27L20 29L19 29L19 30L17 30L17 31L16 31L16 33L15 33L15 35L16 35L16 37L17 37L17 35L18 35L18 34L19 34L19 35L20 35L20 33L21 33L21 30L22 30L22 33L23 33L23 34L21 34L21 36L22 36L22 37L23 37L23 36L22 36L22 35L25 35L25 36L24 36L24 37L26 37L26 38L24 38L24 39L26 39L26 40L25 40L25 41L26 41L26 42L24 42L24 43L22 43L22 44L23 44L23 48L25 48L25 47L26 47L26 46L27 46L27 44L29 44L29 45L30 45L30 44L29 44L29 42L28 42L28 41L30 41L30 43L31 43L31 46L30 46L30 47L31 47L31 46L32 46L32 45L33 45L33 47L34 47L34 48L35 48L35 47L34 47L34 45L33 45L33 44L35 44L35 43L36 43L36 41L37 41L37 42L38 42L38 41L39 41L39 38L40 38L40 39L41 39L41 38L42 38L42 37L43 37L43 35L40 35L40 36L39 36L39 34L38 34L38 33L39 33L39 32L40 32L40 34L42 34L42 33L43 33L43 34L44 34L44 38L43 38L43 39L42 39L42 40L40 40L40 42L39 42L39 43L37 43L37 44L36 44L36 45L35 45L35 46L36 46L36 47L37 47L37 46L38 46L38 45L37 45L37 44L40 44L40 45L39 45L39 46L40 46L40 45L41 45L41 47L40 47L40 49L41 49L41 47L42 47L42 45L43 45L43 44L42 44L42 45L41 45L41 44L40 44L40 42L42 42L42 43L45 43L45 44L44 44L44 46L43 46L43 47L46 47L46 44L47 44L47 45L48 45L48 44L49 44L49 42L50 42L50 45L51 45L51 44L52 44L52 40L51 40L51 39L52 39L52 37L53 37L53 36L54 36L54 34L53 34L53 36L52 36L52 37L50 37L50 36L51 36L51 33L50 33L50 32L52 32L52 31L53 31L53 28L54 28L54 27L55 27L55 26L54 26L54 25L53 25L53 24L54 24L54 23L55 23L55 21L54 21L54 19L53 19L53 20L52 20L52 22L51 22L51 24L50 24L50 22L48 22L48 21L47 21L47 22L48 22L48 25L47 25L47 23L46 23L46 24L44 24L44 26L43 26L43 27L41 27L41 26L42 26L42 25L43 25L43 24L42 24L42 23L43 23L43 22L44 22L44 23L45 23L45 22L44 22L44 21L45 21L45 19L44 19L44 17L45 17L45 18L46 18L46 19L47 19L47 20L48 20L48 19L49 19L49 20L51 20L51 19L52 19L52 18L51 18L51 19L50 19L50 17L51 17L51 16L50 16L50 13L49 13L49 14L48 14L48 15L46 15L46 13L45 13L45 12L44 12L44 13L45 13L45 16L44 16L44 14L43 14L43 16L44 16L44 17L43 17L43 18L42 18L42 17L41 17L41 15L42 15L42 12L43 12L43 10L45 10L45 11L46 11L46 8L44 8L44 9L43 9L43 8L42 8L42 7L41 7L41 8L40 8L40 10L39 10L39 11L38 11L38 8L37 8L37 6ZM44 6L44 7L45 7L45 6ZM13 7L13 8L14 8L14 9L13 9L13 10L14 10L14 9L15 9L15 11L14 11L14 12L16 12L16 8L14 8L14 7ZM21 9L21 10L22 10L22 9ZM30 9L30 10L31 10L31 9ZM42 9L42 10L43 10L43 9ZM55 10L55 11L56 11L56 10ZM34 11L34 12L35 12L35 13L34 13L34 15L33 15L33 17L34 17L34 18L33 18L33 19L34 19L34 20L35 20L35 21L34 21L34 22L35 22L35 23L36 23L36 24L34 24L34 23L33 23L33 24L34 24L34 26L33 26L33 25L32 25L32 23L31 23L31 22L33 22L33 21L32 21L32 20L31 20L31 21L30 21L30 22L29 22L29 21L28 21L28 20L27 20L27 19L26 19L26 20L25 20L25 19L24 19L24 20L25 20L25 21L26 21L26 20L27 20L27 22L26 22L26 23L27 23L27 25L26 25L26 26L27 26L27 25L28 25L28 24L29 24L29 23L31 23L31 24L30 24L30 26L31 26L31 25L32 25L32 27L31 27L31 30L32 30L32 28L33 28L33 29L34 29L34 32L33 32L33 33L34 33L34 35L35 35L35 37L34 37L34 36L33 36L33 37L34 37L34 39L33 39L33 38L31 38L31 40L30 40L30 36L31 36L31 37L32 37L32 36L31 36L31 35L33 35L33 34L31 34L31 33L32 33L32 31L31 31L31 32L30 32L30 31L27 31L27 33L26 33L26 30L25 30L25 29L24 29L24 30L23 30L23 29L22 29L22 30L23 30L23 31L25 31L25 32L24 32L24 34L25 34L25 35L26 35L26 34L27 34L27 35L28 35L28 36L27 36L27 38L26 38L26 39L27 39L27 40L30 40L30 41L31 41L31 43L32 43L32 40L33 40L33 41L34 41L34 42L35 42L35 41L36 41L36 38L37 38L37 37L36 37L36 35L37 35L37 36L38 36L38 38L39 38L39 36L38 36L38 34L37 34L37 33L36 33L36 31L37 31L37 32L38 32L38 31L40 31L40 32L41 32L41 33L42 33L42 31L45 31L45 32L46 32L46 31L47 31L47 30L48 30L48 29L47 29L47 28L46 28L46 29L44 29L44 28L42 28L42 31L40 31L40 30L39 30L39 29L40 29L40 28L41 28L41 27L40 27L40 26L41 26L41 25L42 25L42 24L41 24L41 25L40 25L40 26L39 26L39 25L38 25L38 23L41 23L41 22L40 22L40 19L41 19L41 20L42 20L42 22L43 22L43 21L44 21L44 19L43 19L43 20L42 20L42 19L41 19L41 18L40 18L40 14L41 14L41 13L40 13L40 14L39 14L39 12L37 12L37 11L36 11L36 12L35 12L35 11ZM41 11L41 12L42 12L42 11ZM36 12L36 13L35 13L35 14L36 14L36 18L34 18L34 19L35 19L35 20L36 20L36 21L35 21L35 22L36 22L36 23L37 23L37 22L38 22L38 21L39 21L39 19L40 19L40 18L38 18L38 16L37 16L37 15L38 15L38 13L37 13L37 12ZM2 13L2 14L3 14L3 16L5 16L5 15L4 15L4 14L3 14L3 13ZM8 15L8 17L9 17L9 16L10 16L10 15ZM20 15L20 19L21 19L21 20L23 20L23 19L22 19L22 18L21 18L21 15ZM34 15L34 17L35 17L35 15ZM0 16L0 17L1 17L1 16ZM13 16L13 17L14 17L14 16ZM24 16L24 18L25 18L25 16ZM47 16L47 17L46 17L46 18L47 18L47 17L48 17L48 18L49 18L49 17L48 17L48 16ZM15 18L15 19L14 19L14 20L16 20L16 18ZM17 18L17 19L18 19L18 18ZM36 18L36 19L37 19L37 21L36 21L36 22L37 22L37 21L38 21L38 19L37 19L37 18ZM17 20L17 21L18 21L18 20ZM0 21L0 22L1 22L1 21ZM6 21L6 22L5 22L5 23L6 23L6 24L7 24L7 23L6 23L6 22L8 22L8 21ZM14 21L14 23L15 23L15 21ZM53 21L53 22L52 22L52 24L51 24L51 25L50 25L50 26L53 26L53 25L52 25L52 24L53 24L53 23L54 23L54 21ZM22 22L22 24L23 24L23 22ZM24 22L24 23L25 23L25 22ZM28 22L28 23L29 23L29 22ZM18 24L18 25L19 25L19 26L20 26L20 25L19 25L19 24ZM36 24L36 26L37 26L37 28L36 28L36 29L35 29L35 27L34 27L34 29L35 29L35 30L37 30L37 31L38 31L38 30L37 30L37 28L38 28L38 29L39 29L39 28L40 28L40 27L39 27L39 26L38 26L38 25L37 25L37 24ZM24 25L24 27L22 27L22 28L25 28L25 25ZM46 25L46 26L47 26L47 27L48 27L48 26L49 26L49 25L48 25L48 26L47 26L47 25ZM44 26L44 27L45 27L45 26ZM5 27L5 30L8 30L8 27ZM18 27L18 28L19 28L19 27ZM27 27L27 30L30 30L30 27ZM49 27L49 30L52 30L52 27ZM6 28L6 29L7 29L7 28ZM28 28L28 29L29 29L29 28ZM50 28L50 29L51 29L51 28ZM20 29L20 30L21 30L21 29ZM43 29L43 30L44 30L44 29ZM45 30L45 31L46 31L46 30ZM11 31L11 32L12 32L12 31ZM17 31L17 33L16 33L16 35L17 35L17 34L18 34L18 32L19 32L19 31ZM49 31L49 32L50 32L50 31ZM4 32L4 33L5 33L5 32ZM29 32L29 34L28 34L28 33L27 33L27 34L28 34L28 35L31 35L31 34L30 34L30 32ZM35 33L35 35L36 35L36 33ZM44 33L44 34L45 34L45 37L46 37L46 38L47 38L47 40L48 40L48 41L46 41L46 40L45 40L45 41L46 41L46 42L47 42L47 43L48 43L48 42L49 42L49 41L51 41L51 40L48 40L48 39L50 39L50 38L47 38L47 36L48 36L48 37L49 37L49 36L50 36L50 33L49 33L49 36L48 36L48 35L46 35L46 34L48 34L48 33L46 33L46 34L45 34L45 33ZM4 34L4 35L5 35L5 34ZM6 34L6 35L7 35L7 34ZM13 35L13 37L14 37L14 35ZM6 36L6 37L7 37L7 36ZM28 36L28 37L29 37L29 36ZM41 36L41 37L42 37L42 36ZM35 37L35 38L36 38L36 37ZM3 38L3 39L4 39L4 40L5 40L5 39L4 39L4 38ZM20 38L20 39L21 39L21 38ZM28 38L28 39L29 39L29 38ZM34 39L34 41L35 41L35 39ZM37 39L37 41L38 41L38 39ZM16 40L16 41L17 41L17 40ZM42 40L42 42L43 42L43 41L44 41L44 40ZM21 41L21 42L22 42L22 41ZM53 41L53 44L54 44L54 43L55 43L55 42L54 42L54 41ZM27 42L27 43L28 43L28 42ZM2 43L2 44L3 44L3 43ZM20 43L20 44L21 44L21 43ZM24 43L24 44L25 44L25 43ZM4 45L4 46L3 46L3 47L5 47L5 45ZM24 45L24 46L26 46L26 45ZM21 46L21 47L20 47L20 49L21 49L21 48L22 48L22 46ZM53 46L53 48L54 48L54 46ZM32 48L32 49L33 49L33 48ZM27 49L27 52L30 52L30 49ZM49 49L49 52L52 52L52 49ZM28 50L28 51L29 51L29 50ZM50 50L50 51L51 51L51 50ZM14 51L14 52L16 52L16 51ZM47 51L47 52L48 52L48 51ZM33 52L33 53L34 53L34 54L35 54L35 53L36 53L36 54L37 54L37 53L38 53L38 52L37 52L37 53L36 53L36 52L35 52L35 53L34 53L34 52ZM39 52L39 53L40 53L40 52ZM45 52L45 55L46 55L46 56L47 56L47 55L48 55L48 54L49 54L49 53L46 53L46 52ZM27 53L27 55L28 55L28 53ZM31 53L31 54L30 54L30 55L33 55L33 54L32 54L32 53ZM22 54L22 56L23 56L23 54ZM40 54L40 55L41 55L41 56L42 56L42 55L41 55L41 54ZM11 55L11 57L13 57L13 56L12 56L12 55ZM36 56L36 57L37 57L37 56ZM51 56L51 57L53 57L53 56ZM56 56L56 57L57 57L57 56ZM0 0L0 7L7 7L7 0ZM1 1L1 6L6 6L6 1ZM2 2L2 5L5 5L5 2ZM50 0L50 7L57 7L57 0ZM51 1L51 6L56 6L56 1ZM52 2L52 5L55 5L55 2ZM0 50L0 57L7 57L7 50ZM1 51L1 56L6 56L6 51ZM2 52L2 55L5 55L5 52Z" fill="#000000"/></g></g></svg>
