<?xml version="1.0" encoding="UTF-8"?>
<svg xmlns="http://www.w3.org/2000/svg" version="1.1" width="300" height="300" viewBox="0 0 300 300"><rect x="0" y="0" width="300" height="300" fill="#fefefe"/><g transform="scale(4.615)"><g transform="translate(4,4)"><path fill-rule="evenodd" d="M8 0L8 1L9 1L9 0ZM10 0L10 2L11 2L11 5L10 5L10 8L8 8L8 9L7 9L7 8L6 8L6 9L5 9L5 10L4 10L4 8L0 8L0 9L1 9L1 10L0 10L0 12L1 12L1 13L0 13L0 14L1 14L1 15L0 15L0 16L1 16L1 18L0 18L0 20L1 20L1 19L2 19L2 17L4 17L4 19L3 19L3 20L4 20L4 21L0 21L0 22L1 22L1 23L4 23L4 24L1 24L1 25L0 25L0 26L1 26L1 31L0 31L0 32L1 32L1 31L2 31L2 33L3 33L3 36L2 36L2 34L1 34L1 36L0 36L0 40L1 40L1 41L0 41L0 43L1 43L1 44L2 44L2 43L3 43L3 41L2 41L2 40L4 40L4 41L7 41L7 40L8 40L8 42L9 42L9 43L7 43L7 42L6 42L6 43L4 43L4 45L3 45L3 46L2 46L2 47L1 47L1 46L0 46L0 48L5 48L5 47L8 47L8 45L11 45L11 46L10 46L10 48L9 48L9 49L8 49L8 48L6 48L6 49L8 49L8 50L9 50L9 51L11 51L11 50L12 50L12 51L13 51L13 52L12 52L12 53L11 53L11 55L10 55L10 56L9 56L9 54L10 54L10 52L9 52L9 53L8 53L8 57L10 57L10 56L11 56L11 57L14 57L14 56L15 56L15 57L18 57L18 53L17 53L17 54L16 54L16 53L15 53L15 55L14 55L14 54L12 54L12 53L14 53L14 52L15 52L15 51L16 51L16 52L17 52L17 51L18 51L18 52L19 52L19 55L20 55L20 57L24 57L24 56L25 56L25 55L26 55L26 56L28 56L28 55L26 55L26 54L27 54L27 53L29 53L29 54L31 54L31 55L30 55L30 56L31 56L31 57L32 57L32 55L34 55L34 56L33 56L33 57L36 57L36 55L38 55L38 57L39 57L39 56L40 56L40 57L41 57L41 54L42 54L42 57L43 57L43 56L45 56L45 55L44 55L44 54L46 54L46 56L48 56L48 55L49 55L49 57L51 57L51 54L52 54L52 53L54 53L54 52L56 52L56 53L55 53L55 54L56 54L56 53L57 53L57 51L55 51L55 50L53 50L53 48L54 48L54 47L57 47L57 45L56 45L56 46L55 46L55 44L52 44L52 43L53 43L53 42L54 42L54 43L56 43L56 44L57 44L57 43L56 43L56 42L54 42L54 40L55 40L55 38L56 38L56 39L57 39L57 38L56 38L56 36L57 36L57 34L56 34L56 33L57 33L57 31L56 31L56 30L57 30L57 29L56 29L56 30L55 30L55 32L54 32L54 31L53 31L53 30L54 30L54 29L55 29L55 28L56 28L56 24L55 24L55 27L53 27L53 25L54 25L54 23L53 23L53 22L54 22L54 21L56 21L56 22L55 22L55 23L57 23L57 20L54 20L54 21L53 21L53 20L50 20L50 19L47 19L47 18L48 18L48 17L49 17L49 16L48 16L48 14L47 14L47 16L46 16L46 17L45 17L45 16L44 16L44 15L45 15L45 14L46 14L46 13L44 13L44 10L45 10L45 9L44 9L44 10L43 10L43 9L41 9L41 8L40 8L40 7L41 7L41 4L43 4L43 5L45 5L45 6L44 6L44 8L45 8L45 6L46 6L46 9L47 9L47 10L46 10L46 11L47 11L47 12L48 12L48 10L49 10L49 15L50 15L50 16L51 16L51 17L52 17L52 16L55 16L55 17L54 17L54 18L51 18L51 19L56 19L56 18L55 18L55 17L57 17L57 15L55 15L55 14L53 14L53 13L54 13L54 10L53 10L53 9L55 9L55 8L52 8L52 10L53 10L53 13L52 13L52 12L51 12L51 10L50 10L50 8L49 8L49 9L47 9L47 5L48 5L48 0L45 0L45 1L44 1L44 2L41 2L41 1L43 1L43 0L41 0L41 1L40 1L40 0L39 0L39 1L40 1L40 2L41 2L41 4L38 4L38 3L39 3L39 2L38 2L38 3L37 3L37 1L38 1L38 0L37 0L37 1L36 1L36 0L35 0L35 1L34 1L34 3L33 3L33 0L30 0L30 2L31 2L31 4L26 4L26 2L24 2L24 3L23 3L23 2L22 2L22 3L23 3L23 5L20 5L20 4L19 4L19 3L20 3L20 2L21 2L21 1L22 1L22 0L21 0L21 1L20 1L20 0L17 0L17 1L16 1L16 2L15 2L15 3L17 3L17 5L15 5L15 4L14 4L14 3L12 3L12 2L13 2L13 0ZM14 0L14 1L15 1L15 0ZM23 0L23 1L26 1L26 0ZM27 0L27 1L29 1L29 0ZM11 1L11 2L12 2L12 1ZM18 1L18 2L19 2L19 1ZM35 1L35 2L36 2L36 1ZM45 1L45 3L44 3L44 4L45 4L45 5L47 5L47 3L46 3L46 2L47 2L47 1ZM8 2L8 5L9 5L9 4L10 4L10 3L9 3L9 2ZM27 2L27 3L29 3L29 2ZM32 3L32 4L31 4L31 5L32 5L32 6L31 6L31 9L32 9L32 10L29 10L29 9L28 9L28 10L26 10L26 11L25 11L25 10L23 10L23 9L22 9L22 10L23 10L23 11L21 11L21 12L20 12L20 11L19 11L19 7L20 7L20 10L21 10L21 8L23 8L23 7L24 7L24 9L26 9L26 6L25 6L25 5L26 5L26 4L24 4L24 6L23 6L23 7L22 7L22 6L21 6L21 7L20 7L20 6L19 6L19 7L18 7L18 6L17 6L17 7L16 7L16 6L15 6L15 5L14 5L14 4L13 4L13 5L12 5L12 6L11 6L11 9L8 9L8 11L6 11L6 10L7 10L7 9L6 9L6 10L5 10L5 11L6 11L6 12L5 12L5 13L6 13L6 14L7 14L7 15L5 15L5 16L4 16L4 17L6 17L6 18L7 18L7 17L6 17L6 16L7 16L7 15L8 15L8 16L9 16L9 18L10 18L10 19L5 19L5 21L4 21L4 23L6 23L6 24L5 24L5 25L3 25L3 26L7 26L7 25L6 25L6 24L8 24L8 23L9 23L9 22L8 22L8 23L6 23L6 22L7 22L7 21L6 21L6 20L8 20L8 21L11 21L11 20L12 20L12 21L13 21L13 19L15 19L15 17L13 17L13 16L14 16L14 13L13 13L13 15L12 15L12 14L11 14L11 13L12 13L12 12L13 12L13 11L12 11L12 10L11 10L11 9L13 9L13 10L14 10L14 11L15 11L15 15L16 15L16 17L17 17L17 18L18 18L18 19L16 19L16 20L14 20L14 22L15 22L15 23L16 23L16 24L15 24L15 25L13 25L13 24L14 24L14 23L11 23L11 22L10 22L10 24L9 24L9 30L10 30L10 31L12 31L12 33L13 33L13 31L14 31L14 30L16 30L16 29L15 29L15 27L17 27L17 30L18 30L18 31L19 31L19 32L18 32L18 35L17 35L17 33L16 33L16 31L15 31L15 34L12 34L12 36L11 36L11 35L10 35L10 33L9 33L9 32L7 32L7 31L6 31L6 32L7 32L7 33L5 33L5 32L3 32L3 33L4 33L4 36L3 36L3 37L4 37L4 38L5 38L5 40L7 40L7 39L8 39L8 38L9 38L9 41L10 41L10 44L11 44L11 43L12 43L12 42L13 42L13 43L14 43L14 44L12 44L12 46L11 46L11 47L12 47L12 50L13 50L13 51L15 51L15 48L16 48L16 50L17 50L17 48L19 48L19 49L18 49L18 51L19 51L19 52L20 52L20 51L19 51L19 49L20 49L20 48L21 48L21 50L22 50L22 49L23 49L23 51L21 51L21 52L22 52L22 53L20 53L20 55L21 55L21 54L22 54L22 53L23 53L23 52L24 52L24 53L25 53L25 54L23 54L23 55L22 55L22 56L24 56L24 55L25 55L25 54L26 54L26 53L25 53L25 52L26 52L26 51L24 51L24 50L25 50L25 49L26 49L26 48L32 48L32 49L34 49L34 50L31 50L31 53L32 53L32 51L33 51L33 53L36 53L36 54L34 54L34 55L36 55L36 54L39 54L39 52L40 52L40 54L41 54L41 52L42 52L42 54L43 54L43 52L42 52L42 51L45 51L45 49L46 49L46 50L47 50L47 52L46 52L46 53L47 53L47 54L50 54L50 53L47 53L47 52L48 52L48 48L46 48L46 46L48 46L48 47L49 47L49 48L53 48L53 46L54 46L54 45L50 45L50 46L51 46L51 47L49 47L49 46L48 46L48 45L49 45L49 44L51 44L51 42L50 42L50 41L52 41L52 40L50 40L50 41L47 41L47 40L49 40L49 38L48 38L48 39L47 39L47 40L46 40L46 41L47 41L47 42L48 42L48 43L49 43L49 44L45 44L45 43L46 43L46 42L45 42L45 41L42 41L42 39L40 39L40 41L37 41L37 40L38 40L38 39L37 39L37 37L39 37L39 36L40 36L40 37L41 37L41 35L42 35L42 36L43 36L43 35L44 35L44 34L43 34L43 35L42 35L42 34L41 34L41 35L37 35L37 37L34 37L34 38L36 38L36 39L35 39L35 40L34 40L34 41L36 41L36 42L34 42L34 43L36 43L36 45L38 45L38 47L35 47L35 48L37 48L37 49L36 49L36 50L37 50L37 49L38 49L38 48L39 48L39 49L40 49L40 50L39 50L39 52L38 52L38 51L36 51L36 52L35 52L35 51L34 51L34 50L35 50L35 49L34 49L34 48L32 48L32 47L31 47L31 46L30 46L30 44L31 44L31 45L32 45L32 46L33 46L33 47L34 47L34 46L35 46L35 44L34 44L34 45L33 45L33 42L32 42L32 44L31 44L31 43L30 43L30 44L28 44L28 46L29 46L29 47L27 47L27 46L26 46L26 45L27 45L27 43L29 43L29 42L31 42L31 40L33 40L33 39L32 39L32 38L33 38L33 36L32 36L32 35L31 35L31 34L30 34L30 35L29 35L29 33L30 33L30 31L26 31L26 33L25 33L25 34L24 34L24 35L23 35L23 33L24 33L24 32L25 32L25 31L23 31L23 30L21 30L21 29L24 29L24 30L26 30L26 28L24 28L24 27L25 27L25 25L28 25L28 26L31 26L31 25L29 25L29 24L31 24L31 23L32 23L32 22L33 22L33 24L32 24L32 25L33 25L33 24L35 24L35 23L36 23L36 24L37 24L37 23L38 23L38 24L39 24L39 23L38 23L38 22L39 22L39 21L38 21L38 20L40 20L40 19L39 19L39 18L41 18L41 21L44 21L44 22L45 22L45 23L44 23L44 25L42 25L42 26L44 26L44 25L45 25L45 23L46 23L46 26L50 26L50 25L48 25L48 24L47 24L47 23L48 23L48 22L47 22L47 21L49 21L49 24L51 24L51 26L52 26L52 25L53 25L53 23L52 23L52 22L51 22L51 21L50 21L50 20L47 20L47 19L46 19L46 18L45 18L45 17L42 17L42 14L43 14L43 12L42 12L42 11L43 11L43 10L42 10L42 11L41 11L41 10L40 10L40 9L38 9L38 10L39 10L39 15L37 15L37 13L36 13L36 15L35 15L35 12L38 12L38 11L37 11L37 8L39 8L39 7L40 7L40 5L38 5L38 6L37 6L37 5L36 5L36 4L34 4L34 5L33 5L33 3ZM13 5L13 6L12 6L12 7L13 7L13 8L15 8L15 11L16 11L16 13L17 13L17 12L18 12L18 13L19 13L19 14L18 14L18 16L19 16L19 14L21 14L21 13L20 13L20 12L18 12L18 8L17 8L17 11L16 11L16 8L15 8L15 6L14 6L14 5ZM27 5L27 8L30 8L30 5ZM8 6L8 7L9 7L9 6ZM13 6L13 7L14 7L14 6ZM24 6L24 7L25 7L25 6ZM28 6L28 7L29 7L29 6ZM32 6L32 8L33 8L33 6ZM34 6L34 9L36 9L36 8L37 8L37 6L36 6L36 7L35 7L35 6ZM38 6L38 7L39 7L39 6ZM42 6L42 7L43 7L43 6ZM48 6L48 7L49 7L49 6ZM56 8L56 9L57 9L57 8ZM2 9L2 12L3 12L3 13L2 13L2 15L1 15L1 16L3 16L3 15L4 15L4 12L3 12L3 11L4 11L4 10L3 10L3 9ZM28 10L28 11L29 11L29 10ZM33 10L33 11L32 11L32 12L33 12L33 13L31 13L31 14L30 14L30 13L28 13L28 12L26 12L26 13L25 13L25 14L24 14L24 12L25 12L25 11L24 11L24 12L22 12L22 13L23 13L23 14L24 14L24 16L23 16L23 18L22 18L22 17L21 17L21 18L19 18L19 19L20 19L20 20L22 20L22 22L18 22L18 20L16 20L16 23L18 23L18 24L17 24L17 27L19 27L19 28L18 28L18 29L19 29L19 28L20 28L20 27L21 27L21 24L20 24L20 23L23 23L23 25L22 25L22 27L23 27L23 25L25 25L25 22L28 22L28 23L29 23L29 20L32 20L32 19L30 19L30 17L29 17L29 16L31 16L31 17L32 17L32 18L35 18L35 17L34 17L34 16L35 16L35 15L33 15L33 14L34 14L34 12L35 12L35 11L36 11L36 10L35 10L35 11L34 11L34 10ZM55 10L55 12L56 12L56 11L57 11L57 10ZM8 11L8 14L9 14L9 15L10 15L10 16L11 16L11 15L10 15L10 14L9 14L9 12L10 12L10 11ZM11 11L11 12L12 12L12 11ZM30 11L30 12L31 12L31 11ZM6 12L6 13L7 13L7 12ZM50 12L50 13L51 13L51 15L53 15L53 14L52 14L52 13L51 13L51 12ZM40 13L40 14L41 14L41 13ZM16 14L16 15L17 15L17 14ZM26 14L26 16L27 16L27 14ZM20 15L20 16L21 16L21 15ZM28 15L28 16L29 16L29 15ZM32 15L32 16L33 16L33 15ZM39 15L39 17L40 17L40 16L41 16L41 15ZM10 17L10 18L11 18L11 19L12 19L12 18L13 18L13 17L12 17L12 18L11 18L11 17ZM24 17L24 18L23 18L23 19L22 19L22 18L21 18L21 19L22 19L22 20L23 20L23 21L24 21L24 22L25 22L25 19L24 19L24 18L26 18L26 19L28 19L28 20L29 20L29 19L28 19L28 18L29 18L29 17L27 17L27 18L26 18L26 17ZM36 17L36 18L37 18L37 17ZM41 17L41 18L42 18L42 19L43 19L43 18L42 18L42 17ZM44 18L44 19L45 19L45 20L46 20L46 19L45 19L45 18ZM33 19L33 20L34 20L34 21L35 21L35 22L38 22L38 21L36 21L36 20L38 20L38 19L36 19L36 20L35 20L35 19ZM26 20L26 21L27 21L27 20ZM30 21L30 23L31 23L31 21ZM41 22L41 23L40 23L40 26L41 26L41 24L42 24L42 23L43 23L43 22ZM46 22L46 23L47 23L47 22ZM26 23L26 24L27 24L27 23ZM10 24L10 27L11 27L11 29L10 29L10 30L12 30L12 31L13 31L13 29L14 29L14 27L15 27L15 26L16 26L16 25L15 25L15 26L14 26L14 27L13 27L13 28L12 28L12 27L11 27L11 25L12 25L12 26L13 26L13 25L12 25L12 24ZM19 24L19 25L18 25L18 26L19 26L19 25L20 25L20 24ZM1 25L1 26L2 26L2 25ZM34 25L34 27L35 27L35 28L34 28L34 29L35 29L35 30L36 30L36 31L37 31L37 32L36 32L36 33L37 33L37 32L38 32L38 34L39 34L39 31L40 31L40 32L41 32L41 31L44 31L44 33L45 33L45 34L46 34L46 35L45 35L45 36L44 36L44 37L42 37L42 38L44 38L44 39L45 39L45 36L47 36L47 37L46 37L46 38L47 38L47 37L49 37L49 36L47 36L47 34L50 34L50 33L49 33L49 32L48 32L48 27L47 27L47 33L45 33L45 32L46 32L46 31L44 31L44 30L46 30L46 27L45 27L45 29L44 29L44 30L43 30L43 29L42 29L42 30L41 30L41 27L39 27L39 26L38 26L38 27L39 27L39 28L40 28L40 30L39 30L39 29L38 29L38 30L36 30L36 29L37 29L37 28L36 28L36 27L35 27L35 25ZM2 27L2 29L3 29L3 31L4 31L4 29L3 29L3 28L4 28L4 27ZM5 27L5 30L8 30L8 27ZM27 27L27 30L30 30L30 27ZM32 27L32 28L33 28L33 27ZM42 27L42 28L44 28L44 27ZM49 27L49 30L52 30L52 27ZM6 28L6 29L7 29L7 28ZM28 28L28 29L29 29L29 28ZM50 28L50 29L51 29L51 28ZM53 28L53 29L54 29L54 28ZM31 29L31 31L32 31L32 30L33 30L33 29ZM19 30L19 31L20 31L20 33L21 33L21 34L22 34L22 33L23 33L23 31L22 31L22 32L21 32L21 31L20 31L20 30ZM38 30L38 31L39 31L39 30ZM33 31L33 32L31 32L31 33L33 33L33 34L34 34L34 36L36 36L36 35L35 35L35 31ZM50 31L50 32L51 32L51 31ZM52 31L52 34L54 34L54 33L53 33L53 31ZM27 32L27 33L26 33L26 34L25 34L25 35L26 35L26 36L23 36L23 35L21 35L21 36L23 36L23 39L24 39L24 41L25 41L25 42L23 42L23 41L22 41L22 37L21 37L21 38L20 38L20 37L19 37L19 36L18 36L18 38L15 38L15 37L12 37L12 38L15 38L15 39L13 39L13 40L12 40L12 41L13 41L13 42L17 42L17 40L16 40L16 39L18 39L18 38L19 38L19 40L20 40L20 41L21 41L21 42L20 42L20 43L21 43L21 42L22 42L22 44L20 44L20 45L21 45L21 46L19 46L19 45L17 45L17 46L16 46L16 47L17 47L17 46L19 46L19 47L21 47L21 48L23 48L23 49L24 49L24 46L25 46L25 45L26 45L26 43L25 43L25 42L29 42L29 40L28 40L28 39L30 39L30 38L32 38L32 36L29 36L29 35L28 35L28 34L27 34L27 33L28 33L28 32ZM33 32L33 33L34 33L34 32ZM42 32L42 33L43 33L43 32ZM7 33L7 34L6 34L6 35L5 35L5 36L4 36L4 37L7 37L7 36L8 36L8 37L9 37L9 36L10 36L10 35L9 35L9 33ZM15 34L15 36L17 36L17 35L16 35L16 34ZM19 34L19 35L20 35L20 34ZM6 35L6 36L7 36L7 35ZM13 35L13 36L14 36L14 35ZM51 35L51 36L50 36L50 37L52 37L52 38L53 38L53 39L54 39L54 38L53 38L53 36L52 36L52 35ZM54 35L54 36L56 36L56 35ZM27 36L27 38L29 38L29 36ZM10 37L10 38L11 38L11 37ZM24 37L24 39L25 39L25 41L26 41L26 40L27 40L27 41L28 41L28 40L27 40L27 39L25 39L25 38L26 38L26 37ZM2 38L2 39L1 39L1 40L2 40L2 39L3 39L3 38ZM6 38L6 39L7 39L7 38ZM50 38L50 39L51 39L51 38ZM13 40L13 41L15 41L15 40ZM56 40L56 41L57 41L57 40ZM1 41L1 42L2 42L2 41ZM18 41L18 43L19 43L19 41ZM41 41L41 42L42 42L42 43L41 43L41 44L38 44L38 43L40 43L40 42L37 42L37 44L38 44L38 45L39 45L39 47L43 47L43 50L44 50L44 48L45 48L45 47L43 47L43 45L42 45L42 43L44 43L44 42L42 42L42 41ZM49 42L49 43L50 43L50 42ZM6 43L6 44L7 44L7 45L5 45L5 46L3 46L3 47L5 47L5 46L7 46L7 45L8 45L8 44L7 44L7 43ZM16 43L16 44L15 44L15 45L16 45L16 44L17 44L17 43ZM23 43L23 44L22 44L22 46L21 46L21 47L22 47L22 46L23 46L23 44L25 44L25 43ZM13 45L13 46L14 46L14 45ZM44 45L44 46L45 46L45 45ZM13 47L13 48L15 48L15 47ZM25 47L25 48L26 48L26 47ZM10 48L10 50L11 50L11 48ZM41 48L41 49L42 49L42 48ZM56 48L56 50L57 50L57 48ZM13 49L13 50L14 50L14 49ZM27 49L27 52L30 52L30 49ZM49 49L49 52L52 52L52 49ZM28 50L28 51L29 51L29 50ZM50 50L50 51L51 51L51 50ZM40 51L40 52L41 52L41 51ZM37 52L37 53L38 53L38 52ZM11 55L11 56L13 56L13 55ZM56 55L56 56L57 56L57 55ZM52 56L52 57L53 57L53 56ZM54 56L54 57L55 57L55 56ZM0 0L0 7L7 7L7 0ZM1 1L1 6L6 6L6 1ZM2 2L2 5L5 5L5 2ZM50 0L50 7L57 7L57 0ZM51 1L51 6L56 6L56 1ZM52 2L52 5L55 5L55 2ZM0 50L0 57L7 57L7 50ZM1 51L1 56L6 56L6 51ZM2 52L2 55L5 55L5 52Z" fill="#000000"/></g></g></svg>
