<?xml version="1.0" encoding="UTF-8"?>
<svg xmlns="http://www.w3.org/2000/svg" version="1.1" width="300" height="300" viewBox="0 0 300 300"><rect x="0" y="0" width="300" height="300" fill="#fefefe"/><g transform="scale(4.615)"><g transform="translate(4,4)"><path fill-rule="evenodd" d="M8 0L8 1L9 1L9 2L8 2L8 5L9 5L9 6L8 6L8 7L9 7L9 6L10 6L10 8L11 8L11 9L9 9L9 8L8 8L8 9L7 9L7 8L6 8L6 9L4 9L4 8L0 8L0 10L2 10L2 13L1 13L1 11L0 11L0 13L1 13L1 14L2 14L2 13L3 13L3 14L6 14L6 15L5 15L5 16L3 16L3 15L1 15L1 16L0 16L0 17L1 17L1 16L3 16L3 17L2 17L2 18L0 18L0 20L2 20L2 21L1 21L1 22L0 22L0 23L1 23L1 24L3 24L3 26L4 26L4 27L1 27L1 25L0 25L0 27L1 27L1 28L0 28L0 30L2 30L2 32L3 32L3 31L5 31L5 32L6 32L6 33L7 33L7 32L8 32L8 33L9 33L9 30L10 30L10 29L9 29L9 27L10 27L10 26L11 26L11 31L10 31L10 32L12 32L12 33L10 33L10 35L12 35L12 36L11 36L11 37L10 37L10 36L9 36L9 35L8 35L8 34L6 34L6 35L7 35L7 36L5 36L5 35L4 35L4 36L3 36L3 37L2 37L2 35L3 35L3 34L4 34L4 33L2 33L2 35L1 35L1 34L0 34L0 36L1 36L1 37L0 37L0 44L1 44L1 45L0 45L0 48L5 48L5 47L7 47L7 48L6 48L6 49L7 49L7 48L8 48L8 50L9 50L9 52L11 52L11 54L10 54L10 55L9 55L9 53L8 53L8 57L10 57L10 55L12 55L12 54L13 54L13 57L15 57L15 56L16 56L16 57L18 57L18 56L17 56L17 54L18 54L18 55L20 55L20 56L21 56L21 57L24 57L24 56L28 56L28 55L27 55L27 53L29 53L29 54L31 54L31 55L30 55L30 56L31 56L31 57L32 57L32 55L33 55L33 54L36 54L36 55L34 55L34 56L33 56L33 57L36 57L36 55L38 55L38 57L42 57L42 56L46 56L46 57L47 57L47 56L48 56L48 55L49 55L49 57L51 57L51 54L52 54L52 53L53 53L53 56L52 56L52 57L55 57L55 56L54 56L54 55L55 55L55 54L56 54L56 53L57 53L57 51L55 51L55 50L53 50L53 48L54 48L54 47L57 47L57 45L56 45L56 46L55 46L55 44L53 44L53 48L52 48L52 47L51 47L51 46L49 46L49 45L50 45L50 44L49 44L49 43L50 43L50 42L51 42L51 44L52 44L52 43L53 43L53 42L54 42L54 43L56 43L56 44L57 44L57 43L56 43L56 42L54 42L54 40L55 40L55 38L56 38L56 39L57 39L57 38L56 38L56 37L57 37L57 36L56 36L56 35L57 35L57 34L56 34L56 33L57 33L57 31L56 31L56 30L57 30L57 29L56 29L56 30L55 30L55 33L54 33L54 34L52 34L52 32L53 32L53 31L54 31L54 29L55 29L55 28L56 28L56 24L55 24L55 27L53 27L53 25L50 25L50 24L49 24L49 21L48 21L48 20L50 20L50 21L51 21L51 22L52 22L52 23L51 23L51 24L54 24L54 23L53 23L53 22L54 22L54 21L56 21L56 22L55 22L55 23L57 23L57 19L55 19L55 17L56 17L56 18L57 18L57 15L53 15L53 16L55 16L55 17L54 17L54 18L53 18L53 17L52 17L52 16L51 16L51 18L52 18L52 19L55 19L55 20L54 20L54 21L53 21L53 20L50 20L50 19L47 19L47 18L48 18L48 17L47 17L47 16L48 16L48 14L47 14L47 16L46 16L46 15L45 15L45 16L44 16L44 14L46 14L46 13L44 13L44 10L45 10L45 9L44 9L44 10L43 10L43 9L41 9L41 8L38 8L38 7L39 7L39 6L38 6L38 5L40 5L40 7L41 7L41 6L42 6L42 7L43 7L43 6L42 6L42 5L41 5L41 4L38 4L38 3L39 3L39 2L38 2L38 3L37 3L37 1L38 1L38 0L37 0L37 1L36 1L36 0L35 0L35 1L34 1L34 2L33 2L33 0L32 0L32 1L31 1L31 0L29 0L29 2L27 2L27 3L29 3L29 4L26 4L26 1L25 1L25 0L23 0L23 1L25 1L25 2L24 2L24 3L23 3L23 2L21 2L21 1L22 1L22 0L21 0L21 1L20 1L20 0L19 0L19 1L20 1L20 2L21 2L21 3L23 3L23 6L22 6L22 8L21 8L21 10L20 10L20 9L18 9L18 8L20 8L20 7L21 7L21 5L20 5L20 4L19 4L19 3L18 3L18 7L17 7L17 5L15 5L15 4L14 4L14 3L13 3L13 0L12 0L12 1L9 1L9 0ZM14 0L14 1L15 1L15 0ZM39 0L39 1L40 1L40 2L41 2L41 3L43 3L43 5L46 5L46 7L47 7L47 5L48 5L48 0L45 0L45 1L44 1L44 2L41 2L41 1L43 1L43 0L41 0L41 1L40 1L40 0ZM16 1L16 2L15 2L15 3L17 3L17 1ZM30 1L30 4L31 4L31 5L32 5L32 6L31 6L31 9L32 9L32 10L30 10L30 11L29 11L29 9L28 9L28 11L27 11L27 10L26 10L26 11L25 11L25 10L23 10L23 9L24 9L24 8L25 8L25 9L26 9L26 6L25 6L25 5L26 5L26 4L24 4L24 6L23 6L23 7L24 7L24 8L23 8L23 9L22 9L22 10L23 10L23 11L21 11L21 12L20 12L20 11L19 11L19 10L18 10L18 12L17 12L17 11L15 11L15 8L16 8L16 10L17 10L17 7L16 7L16 6L15 6L15 5L14 5L14 4L12 4L12 2L10 2L10 3L11 3L11 4L12 4L12 5L10 5L10 6L11 6L11 7L12 7L12 8L13 8L13 9L12 9L12 11L8 11L8 13L9 13L9 14L7 14L7 13L6 13L6 14L7 14L7 15L6 15L6 16L7 16L7 17L3 17L3 19L2 19L2 20L4 20L4 21L2 21L2 22L3 22L3 24L4 24L4 26L5 26L5 24L7 24L7 25L6 25L6 26L8 26L8 23L9 23L9 26L10 26L10 25L12 25L12 26L13 26L13 28L12 28L12 29L13 29L13 30L12 30L12 31L13 31L13 30L16 30L16 29L13 29L13 28L14 28L14 26L13 26L13 25L14 25L14 23L16 23L16 24L19 24L19 25L18 25L18 26L19 26L19 25L20 25L20 24L21 24L21 25L23 25L23 27L22 27L22 26L21 26L21 28L20 28L20 27L16 27L16 26L17 26L17 25L16 25L16 26L15 26L15 28L17 28L17 30L18 30L18 35L17 35L17 36L16 36L16 35L15 35L15 34L17 34L17 32L16 32L16 31L14 31L14 32L13 32L13 33L12 33L12 34L13 34L13 35L15 35L15 37L14 37L14 38L13 38L13 37L11 37L11 38L12 38L12 39L10 39L10 38L8 38L8 37L9 37L9 36L7 36L7 37L5 37L5 38L4 38L4 37L3 37L3 38L4 38L4 40L5 40L5 42L3 42L3 41L1 41L1 44L3 44L3 43L5 43L5 44L7 44L7 45L6 45L6 46L7 46L7 47L9 47L9 46L10 46L10 47L11 47L11 48L9 48L9 49L11 49L11 48L12 48L12 50L13 50L13 48L14 48L14 50L16 50L16 52L15 52L15 51L14 51L14 52L15 52L15 53L14 53L14 56L15 56L15 53L16 53L16 54L17 54L17 53L18 53L18 54L19 54L19 50L18 50L18 51L17 51L17 49L16 49L16 48L18 48L18 47L19 47L19 49L20 49L20 48L21 48L21 50L22 50L22 49L23 49L23 52L22 52L22 53L23 53L23 52L24 52L24 53L25 53L25 52L26 52L26 49L25 49L25 48L24 48L24 45L23 45L23 44L25 44L25 43L26 43L26 45L25 45L25 47L26 47L26 48L29 48L29 47L30 47L30 48L31 48L31 46L32 46L32 45L33 45L33 47L32 47L32 49L31 49L31 53L32 53L32 51L33 51L33 52L34 52L34 53L36 53L36 54L39 54L39 53L37 53L37 51L36 51L36 52L34 52L34 51L35 51L35 48L37 48L37 49L36 49L36 50L37 50L37 49L38 49L38 48L39 48L39 49L40 49L40 50L39 50L39 51L38 51L38 52L40 52L40 54L41 54L41 55L39 55L39 56L42 56L42 54L43 54L43 51L45 51L45 52L46 52L46 50L47 50L47 52L48 52L48 48L47 48L47 49L46 49L46 46L47 46L47 47L49 47L49 48L50 48L50 47L49 47L49 46L47 46L47 45L49 45L49 44L45 44L45 43L44 43L44 42L45 42L45 41L42 41L42 40L40 40L40 41L37 41L37 40L38 40L38 39L39 39L39 38L37 38L37 37L38 37L38 36L40 36L40 37L41 37L41 39L42 39L42 38L44 38L44 39L45 39L45 40L46 40L46 41L47 41L47 42L46 42L46 43L47 43L47 42L48 42L48 43L49 43L49 42L50 42L50 41L52 41L52 40L53 40L53 39L54 39L54 38L53 38L53 36L52 36L52 35L51 35L51 36L52 36L52 38L53 38L53 39L51 39L51 38L50 38L50 39L51 39L51 40L50 40L50 41L47 41L47 40L49 40L49 39L47 39L47 40L46 40L46 38L48 38L48 36L44 36L44 37L42 37L42 36L43 36L43 35L42 35L42 34L41 34L41 35L38 35L38 36L37 36L37 37L34 37L34 38L33 38L33 36L32 36L32 35L31 35L31 34L32 34L32 33L33 33L33 34L34 34L34 36L36 36L36 35L35 35L35 33L33 33L33 32L34 32L34 31L33 31L33 32L31 32L31 34L30 34L30 35L29 35L29 33L30 33L30 31L29 31L29 32L28 32L28 31L24 31L24 30L26 30L26 28L25 28L25 27L24 27L24 26L25 26L25 25L28 25L28 26L29 26L29 23L28 23L28 24L26 24L26 23L27 23L27 22L29 22L29 21L30 21L30 20L31 20L31 22L30 22L30 24L31 24L31 23L32 23L32 22L33 22L33 24L32 24L32 25L33 25L33 24L35 24L35 23L36 23L36 24L37 24L37 22L38 22L38 24L39 24L39 21L37 21L37 20L36 20L36 19L38 19L38 20L40 20L40 19L39 19L39 18L41 18L41 21L44 21L44 22L45 22L45 20L46 20L46 22L47 22L47 20L46 20L46 18L45 18L45 17L42 17L42 14L44 14L44 13L43 13L43 12L42 12L42 11L41 11L41 10L40 10L40 9L38 9L38 10L39 10L39 15L37 15L37 14L36 14L36 13L35 13L35 12L38 12L38 11L37 11L37 8L36 8L36 9L34 9L34 6L35 6L35 7L36 7L36 6L37 6L37 7L38 7L38 6L37 6L37 5L36 5L36 4L35 4L35 2L36 2L36 1L35 1L35 2L34 2L34 3L32 3L32 4L31 4L31 1ZM45 1L45 3L44 3L44 4L46 4L46 5L47 5L47 3L46 3L46 2L47 2L47 1ZM13 5L13 6L12 6L12 7L13 7L13 6L14 6L14 7L15 7L15 6L14 6L14 5ZM27 5L27 8L30 8L30 5ZM33 5L33 6L32 6L32 8L33 8L33 6L34 6L34 5ZM19 6L19 7L20 7L20 6ZM24 6L24 7L25 7L25 6ZM28 6L28 7L29 7L29 6ZM44 6L44 8L45 8L45 6ZM48 6L48 7L49 7L49 6ZM47 8L47 10L46 10L46 11L47 11L47 10L48 10L48 11L49 11L49 17L50 17L50 15L51 15L51 13L52 13L52 14L54 14L54 10L53 10L53 9L55 9L55 8L52 8L52 10L53 10L53 13L52 13L52 12L51 12L51 10L50 10L50 8ZM56 8L56 9L57 9L57 8ZM3 9L3 10L4 10L4 11L3 11L3 13L4 13L4 12L7 12L7 11L5 11L5 10L4 10L4 9ZM6 9L6 10L7 10L7 9ZM13 9L13 11L12 11L12 12L11 12L11 16L9 16L9 15L10 15L10 14L9 14L9 15L8 15L8 16L9 16L9 18L8 18L8 19L7 19L7 18L4 18L4 20L6 20L6 21L5 21L5 22L6 22L6 23L7 23L7 22L12 22L12 23L13 23L13 22L14 22L14 20L15 20L15 19L16 19L16 23L17 23L17 22L19 22L19 24L20 24L20 23L21 23L21 24L24 24L24 25L25 25L25 22L27 22L27 21L29 21L29 20L28 20L28 19L30 19L30 17L29 17L29 16L31 16L31 17L32 17L32 18L31 18L31 20L32 20L32 18L35 18L35 17L34 17L34 16L35 16L35 15L36 15L36 14L35 14L35 15L33 15L33 14L34 14L34 12L35 12L35 11L36 11L36 10L35 10L35 11L34 11L34 10L33 10L33 13L32 13L32 11L30 11L30 12L31 12L31 14L30 14L30 13L28 13L28 12L26 12L26 14L25 14L25 15L24 15L24 12L25 12L25 11L23 11L23 12L22 12L22 13L23 13L23 18L22 18L22 17L21 17L21 18L20 18L20 19L21 19L21 18L22 18L22 20L21 20L21 22L19 22L19 21L18 21L18 20L19 20L19 17L18 17L18 19L16 19L16 18L17 18L17 16L16 16L16 15L17 15L17 14L16 14L16 15L15 15L15 11L14 11L14 9ZM55 10L55 12L56 12L56 11L57 11L57 10ZM9 12L9 13L10 13L10 12ZM16 12L16 13L17 13L17 12ZM18 12L18 13L19 13L19 14L18 14L18 15L19 15L19 14L20 14L20 16L21 16L21 13L20 13L20 12ZM50 12L50 13L51 13L51 12ZM12 13L12 14L14 14L14 13ZM40 13L40 14L41 14L41 13ZM26 14L26 16L25 16L25 17L24 17L24 18L23 18L23 21L22 21L22 22L23 22L23 21L24 21L24 22L25 22L25 21L27 21L27 20L25 20L25 19L24 19L24 18L26 18L26 19L28 19L28 18L29 18L29 17L27 17L27 14ZM31 14L31 16L33 16L33 15L32 15L32 14ZM14 15L14 16L15 16L15 15ZM28 15L28 16L29 16L29 15ZM39 15L39 17L40 17L40 16L41 16L41 15ZM10 17L10 18L9 18L9 19L8 19L8 20L11 20L11 21L12 21L12 22L13 22L13 21L12 21L12 19L15 19L15 18L16 18L16 17L13 17L13 18L12 18L12 19L11 19L11 17ZM36 17L36 18L37 18L37 17ZM41 17L41 18L42 18L42 19L43 19L43 18L42 18L42 17ZM44 18L44 19L45 19L45 18ZM6 19L6 20L7 20L7 19ZM33 19L33 20L34 20L34 21L35 21L35 22L37 22L37 21L36 21L36 20L34 20L34 19ZM6 21L6 22L7 22L7 21ZM10 23L10 24L11 24L11 23ZM40 23L40 25L41 25L41 26L43 26L43 27L42 27L42 28L43 28L43 29L42 29L42 30L41 30L41 27L39 27L39 26L38 26L38 27L39 27L39 28L40 28L40 30L39 30L39 29L38 29L38 30L37 30L37 28L34 28L34 29L36 29L36 31L37 31L37 32L36 32L36 33L37 33L37 32L38 32L38 34L39 34L39 31L40 31L40 32L41 32L41 31L43 31L43 30L44 30L44 34L46 34L46 35L47 35L47 34L50 34L50 33L49 33L49 32L48 32L48 29L47 29L47 33L46 33L46 31L45 31L45 30L46 30L46 26L49 26L49 25L48 25L48 23L46 23L46 24L45 24L45 23L44 23L44 26L43 26L43 23L42 23L42 25L41 25L41 23ZM12 24L12 25L13 25L13 24ZM30 25L30 26L31 26L31 25ZM34 25L34 27L35 27L35 25ZM45 25L45 26L46 26L46 25ZM5 27L5 30L8 30L8 27ZM27 27L27 30L30 30L30 27ZM31 27L31 28L33 28L33 27ZM43 27L43 28L44 28L44 30L45 30L45 27ZM49 27L49 30L52 30L52 27ZM6 28L6 29L7 29L7 28ZM18 28L18 29L19 29L19 28ZM28 28L28 29L29 29L29 28ZM50 28L50 29L51 29L51 28ZM53 28L53 29L54 29L54 28ZM3 29L3 30L4 30L4 29ZM21 29L21 30L24 30L24 29ZM32 29L32 30L33 30L33 29ZM19 30L19 31L20 31L20 33L19 33L19 34L20 34L20 36L21 36L21 35L22 35L22 36L23 36L23 39L21 39L21 38L22 38L22 37L21 37L21 38L20 38L20 37L19 37L19 35L18 35L18 36L17 36L17 37L19 37L19 39L17 39L17 38L15 38L15 39L13 39L13 40L11 40L11 42L10 42L10 39L9 39L9 40L8 40L8 39L7 39L7 38L5 38L5 39L7 39L7 40L6 40L6 41L7 41L7 42L5 42L5 43L7 43L7 44L8 44L8 43L9 43L9 45L8 45L8 46L9 46L9 45L10 45L10 46L11 46L11 47L12 47L12 46L13 46L13 45L16 45L16 44L17 44L17 43L14 43L14 42L18 42L18 43L19 43L19 44L20 44L20 45L21 45L21 46L22 46L22 47L21 47L21 48L23 48L23 49L24 49L24 48L23 48L23 46L22 46L22 44L23 44L23 42L24 42L24 41L25 41L25 42L27 42L27 43L28 43L28 44L29 44L29 45L30 45L30 46L31 46L31 45L30 45L30 44L29 44L29 43L32 43L32 42L33 42L33 45L34 45L34 44L35 44L35 46L34 46L34 47L33 47L33 48L35 48L35 46L36 46L36 43L34 43L34 42L36 42L36 41L34 41L34 40L35 40L35 39L36 39L36 38L35 38L35 39L33 39L33 38L32 38L32 36L29 36L29 35L28 35L28 34L27 34L27 35L26 35L26 36L29 36L29 38L26 38L26 39L27 39L27 40L26 40L26 41L25 41L25 39L24 39L24 37L25 37L25 36L23 36L23 35L24 35L24 34L25 34L25 33L28 33L28 32L24 32L24 33L23 33L23 31L22 31L22 32L21 32L21 31L20 31L20 30ZM38 30L38 31L39 31L39 30ZM6 31L6 32L7 32L7 31ZM50 31L50 32L51 32L51 31ZM0 32L0 33L1 33L1 32ZM42 32L42 33L43 33L43 32ZM20 33L20 34L21 34L21 33ZM22 33L22 35L23 35L23 33ZM41 35L41 36L42 36L42 35ZM54 35L54 36L55 36L55 37L56 37L56 36L55 36L55 35ZM49 36L49 37L50 37L50 36ZM45 37L45 38L46 38L46 37ZM1 38L1 39L2 39L2 40L3 40L3 39L2 39L2 38ZM30 38L30 39L28 39L28 40L27 40L27 41L28 41L28 40L29 40L29 42L31 42L31 40L33 40L33 39L32 39L32 38ZM16 39L16 40L15 40L15 41L17 41L17 39ZM23 39L23 40L22 40L22 41L20 41L20 40L18 40L18 41L19 41L19 43L21 43L21 44L22 44L22 41L23 41L23 40L24 40L24 39ZM7 40L7 41L8 41L8 42L7 42L7 43L8 43L8 42L9 42L9 43L10 43L10 45L11 45L11 46L12 46L12 43L13 43L13 44L14 44L14 43L13 43L13 42L12 42L12 43L10 43L10 42L9 42L9 41L8 41L8 40ZM13 40L13 41L14 41L14 40ZM56 40L56 41L57 41L57 40ZM40 41L40 42L42 42L42 43L41 43L41 44L38 44L38 43L39 43L39 42L37 42L37 44L38 44L38 45L37 45L37 47L38 47L38 45L41 45L41 46L39 46L39 47L43 47L43 50L46 50L46 49L44 49L44 47L45 47L45 46L43 46L43 45L42 45L42 43L43 43L43 42L42 42L42 41ZM1 45L1 47L2 47L2 45ZM17 45L17 46L16 46L16 47L17 47L17 46L19 46L19 47L20 47L20 46L19 46L19 45ZM26 45L26 46L27 46L27 45ZM3 46L3 47L5 47L5 46ZM14 46L14 48L15 48L15 46ZM28 46L28 47L29 47L29 46ZM41 48L41 49L42 49L42 48ZM56 48L56 50L57 50L57 48ZM27 49L27 52L30 52L30 49ZM32 49L32 50L34 50L34 49ZM49 49L49 52L52 52L52 49ZM24 50L24 51L25 51L25 50ZM28 50L28 51L29 51L29 50ZM50 50L50 51L51 51L51 50ZM12 51L12 53L13 53L13 51ZM40 51L40 52L41 52L41 54L42 54L42 52L41 52L41 51ZM54 52L54 54L55 54L55 53L56 53L56 52ZM20 53L20 55L22 55L22 54L21 54L21 53ZM47 53L47 54L46 54L46 56L47 56L47 54L50 54L50 53ZM23 54L23 56L24 56L24 55L25 55L25 54ZM44 54L44 55L45 55L45 54ZM56 55L56 56L57 56L57 55ZM0 0L0 7L7 7L7 0ZM1 1L1 6L6 6L6 1ZM2 2L2 5L5 5L5 2ZM50 0L50 7L57 7L57 0ZM51 1L51 6L56 6L56 1ZM52 2L52 5L55 5L55 2ZM0 50L0 57L7 57L7 50ZM1 51L1 56L6 56L6 51ZM2 52L2 55L5 55L5 52Z" fill="#000000"/></g></g></svg>
