<?xml version="1.0" encoding="UTF-8"?>
<svg xmlns="http://www.w3.org/2000/svg" version="1.1" width="300" height="300" viewBox="0 0 300 300"><rect x="0" y="0" width="300" height="300" fill="#fefefe"/><g transform="scale(4.615)"><g transform="translate(4,4)"><path fill-rule="evenodd" d="M8 0L8 1L9 1L9 2L8 2L8 5L10 5L10 7L11 7L11 5L10 5L10 3L9 3L9 2L11 2L11 3L12 3L12 2L11 2L11 1L14 1L14 0ZM19 0L19 1L20 1L20 2L21 2L21 3L22 3L22 2L21 2L21 1L22 1L22 0L21 0L21 1L20 1L20 0ZM23 0L23 1L26 1L26 0ZM27 0L27 2L28 2L28 3L29 3L29 1L31 1L31 2L30 2L30 3L31 3L31 4L26 4L26 2L24 2L24 3L23 3L23 6L22 6L22 8L21 8L21 10L20 10L20 7L21 7L21 5L20 5L20 4L19 4L19 2L18 2L18 1L15 1L15 2L16 2L16 3L17 3L17 5L15 5L15 4L14 4L14 3L13 3L13 4L14 4L14 5L12 5L12 10L13 10L13 13L12 13L12 11L11 11L11 12L9 12L9 13L8 13L8 14L6 14L6 15L5 15L5 16L4 16L4 15L3 15L3 14L2 14L2 13L5 13L5 11L3 11L3 10L5 10L5 9L4 9L4 8L0 8L0 12L1 12L1 13L0 13L0 14L2 14L2 15L3 15L3 17L5 17L5 18L4 18L4 19L3 19L3 18L2 18L2 19L0 19L0 20L1 20L1 21L0 21L0 22L1 22L1 23L3 23L3 20L4 20L4 21L5 21L5 19L7 19L7 20L6 20L6 21L8 21L8 22L4 22L4 24L3 24L3 25L0 25L0 27L2 27L2 26L3 26L3 28L4 28L4 32L1 32L1 33L2 33L2 34L3 34L3 33L4 33L4 35L3 35L3 36L2 36L2 35L1 35L1 34L0 34L0 35L1 35L1 36L0 36L0 37L1 37L1 38L0 38L0 44L2 44L2 45L1 45L1 46L0 46L0 48L5 48L5 47L7 47L7 46L5 46L5 45L7 45L7 44L5 44L5 42L2 42L2 41L1 41L1 40L2 40L2 39L4 39L4 41L8 41L8 42L6 42L6 43L8 43L8 44L9 44L9 45L10 45L10 46L8 46L8 47L9 47L9 48L6 48L6 49L8 49L8 50L9 50L9 53L8 53L8 57L10 57L10 56L11 56L11 57L12 57L12 56L11 56L11 54L12 54L12 55L13 55L13 56L14 56L14 57L15 57L15 56L16 56L16 57L18 57L18 56L19 56L19 55L20 55L20 56L21 56L21 57L23 57L23 56L22 56L22 55L23 55L23 54L26 54L26 55L27 55L27 56L28 56L28 55L27 55L27 54L26 54L26 53L29 53L29 54L31 54L31 55L30 55L30 56L31 56L31 57L32 57L32 55L33 55L33 54L36 54L36 55L34 55L34 56L33 56L33 57L36 57L36 55L38 55L38 57L41 57L41 56L42 56L42 57L43 57L43 55L44 55L44 56L45 56L45 55L46 55L46 56L47 56L47 57L51 57L51 54L52 54L52 53L53 53L53 55L55 55L55 54L56 54L56 53L57 53L57 52L56 52L56 51L55 51L55 50L57 50L57 48L56 48L56 49L55 49L55 48L54 48L54 47L57 47L57 44L52 44L52 43L53 43L53 42L54 42L54 43L56 43L56 41L57 41L57 40L56 40L56 41L55 41L55 42L54 42L54 40L55 40L55 39L53 39L53 38L52 38L52 36L53 36L53 37L55 37L55 38L56 38L56 39L57 39L57 38L56 38L56 36L54 36L54 35L55 35L55 34L56 34L56 35L57 35L57 31L56 31L56 30L57 30L57 28L56 28L56 24L54 24L54 23L57 23L57 21L56 21L56 20L57 20L57 19L56 19L56 18L55 18L55 17L57 17L57 15L55 15L55 14L54 14L54 10L51 10L51 11L49 11L49 15L51 15L51 13L52 13L52 14L54 14L54 15L52 15L52 16L53 16L53 17L51 17L51 18L52 18L52 19L55 19L55 20L54 20L54 21L53 21L53 20L50 20L50 19L49 19L49 18L48 18L48 17L45 17L45 16L44 16L44 15L43 15L43 14L46 14L46 13L44 13L44 11L43 11L43 5L45 5L45 6L44 6L44 7L45 7L45 6L46 6L46 8L47 8L47 5L48 5L48 0L45 0L45 1L44 1L44 2L41 2L41 1L43 1L43 0L41 0L41 1L40 1L40 0L39 0L39 1L40 1L40 2L41 2L41 4L39 4L39 3L37 3L37 1L38 1L38 0L37 0L37 1L36 1L36 0L35 0L35 1L34 1L34 3L35 3L35 4L36 4L36 5L37 5L37 6L36 6L36 7L35 7L35 6L34 6L34 5L33 5L33 6L32 6L32 5L31 5L31 4L32 4L32 3L33 3L33 1L31 1L31 0ZM35 1L35 2L36 2L36 1ZM45 1L45 3L44 3L44 4L45 4L45 5L47 5L47 3L46 3L46 2L47 2L47 1ZM24 4L24 6L23 6L23 7L24 7L24 8L25 8L25 9L26 9L26 6L25 6L25 5L26 5L26 4ZM41 4L41 7L40 7L40 5L38 5L38 6L37 6L37 8L36 8L36 9L34 9L34 6L33 6L33 8L32 8L32 6L31 6L31 9L32 9L32 10L30 10L30 11L27 11L27 10L26 10L26 11L25 11L25 10L23 10L23 11L21 11L21 14L20 14L20 15L19 15L19 16L18 16L18 17L19 17L19 18L18 18L18 19L20 19L20 20L18 20L18 21L19 21L19 22L21 22L21 20L22 20L22 19L23 19L23 21L24 21L24 22L25 22L25 25L23 25L23 22L22 22L22 24L21 24L21 23L20 23L20 24L19 24L19 25L17 25L17 24L18 24L18 23L16 23L16 19L15 19L15 18L14 18L14 17L12 17L12 16L13 16L13 14L14 14L14 13L13 13L13 14L12 14L12 13L10 13L10 15L9 15L9 16L8 16L8 15L6 15L6 16L7 16L7 17L6 17L6 18L7 18L7 17L8 17L8 21L9 21L9 20L10 20L10 21L12 21L12 20L13 20L13 19L15 19L15 20L14 20L14 22L12 22L12 23L14 23L14 22L15 22L15 23L16 23L16 24L15 24L15 25L16 25L16 27L15 27L15 28L17 28L17 30L16 30L16 29L15 29L15 30L16 30L16 32L15 32L15 31L14 31L14 27L13 27L13 26L11 26L11 25L10 25L10 26L9 26L9 25L6 25L6 24L7 24L7 23L5 23L5 25L3 25L3 26L5 26L5 25L6 25L6 26L9 26L9 30L11 30L11 27L12 27L12 30L13 30L13 32L12 32L12 31L11 31L11 32L10 32L10 31L8 31L8 32L7 32L7 31L5 31L5 33L6 33L6 34L5 34L5 35L6 35L6 36L3 36L3 37L5 37L5 40L7 40L7 39L6 39L6 38L8 38L8 37L9 37L9 36L10 36L10 33L12 33L12 37L10 37L10 38L9 38L9 40L10 40L10 41L9 41L9 43L10 43L10 44L11 44L11 47L10 47L10 49L9 49L9 50L10 50L10 49L11 49L11 47L12 47L12 48L13 48L13 47L12 47L12 45L13 45L13 44L14 44L14 47L15 47L15 46L16 46L16 47L17 47L17 45L20 45L20 46L21 46L21 47L19 47L19 46L18 46L18 48L20 48L20 49L21 49L21 52L22 52L22 53L23 53L23 52L24 52L24 53L25 53L25 52L26 52L26 49L25 49L25 48L24 48L24 49L23 49L23 48L21 48L21 47L22 47L22 46L23 46L23 44L25 44L25 43L26 43L26 45L25 45L25 47L26 47L26 48L28 48L28 47L27 47L27 46L29 46L29 48L31 48L31 47L32 47L32 49L31 49L31 53L32 53L32 51L33 51L33 50L32 50L32 49L34 49L34 51L35 51L35 48L37 48L37 49L36 49L36 50L37 50L37 49L38 49L38 48L39 48L39 49L40 49L40 50L39 50L39 52L40 52L40 54L41 54L41 55L39 55L39 56L41 56L41 55L42 55L42 54L43 54L43 52L40 52L40 51L45 51L45 53L46 53L46 50L47 50L47 52L48 52L48 48L47 48L47 49L46 49L46 50L45 50L45 48L46 48L46 46L47 46L47 47L49 47L49 46L51 46L51 48L53 48L53 47L54 47L54 46L53 46L53 45L49 45L49 44L51 44L51 42L50 42L50 41L52 41L52 40L50 40L50 39L51 39L51 37L50 37L50 36L48 36L48 35L47 35L47 34L50 34L50 33L49 33L49 32L52 32L52 34L54 34L54 33L55 33L55 31L49 31L49 32L48 32L48 26L49 26L49 25L48 25L48 24L47 24L47 23L42 23L42 25L41 25L41 23L38 23L38 24L39 24L39 26L38 26L38 27L39 27L39 28L40 28L40 30L39 30L39 29L38 29L38 30L36 30L36 29L37 29L37 27L35 27L35 25L34 25L34 27L35 27L35 28L34 28L34 29L35 29L35 31L33 31L33 29L31 29L31 30L32 30L32 31L31 31L31 34L30 34L30 35L29 35L29 33L30 33L30 31L28 31L28 33L26 33L26 32L27 32L27 31L26 31L26 32L25 32L25 30L26 30L26 28L24 28L24 27L22 27L22 26L21 26L21 27L17 27L17 26L19 26L19 25L20 25L20 24L21 24L21 25L23 25L23 26L25 26L25 25L28 25L28 26L29 26L29 24L30 24L30 23L32 23L32 22L34 22L34 23L33 23L33 24L32 24L32 25L33 25L33 24L35 24L35 23L36 23L36 24L37 24L37 22L35 22L35 21L34 21L34 20L36 20L36 21L37 21L37 20L36 20L36 19L38 19L38 20L40 20L40 19L39 19L39 18L41 18L41 19L42 19L42 18L43 18L43 21L44 21L44 22L47 22L47 21L49 21L49 24L50 24L50 25L51 25L51 26L52 26L52 25L53 25L53 27L55 27L55 25L54 25L54 24L52 24L52 22L51 22L51 21L50 21L50 20L49 20L49 19L48 19L48 18L47 18L47 21L45 21L45 20L46 20L46 19L44 19L44 18L45 18L45 17L42 17L42 14L43 14L43 12L42 12L42 11L40 11L40 10L39 10L39 9L38 9L38 10L37 10L37 8L39 8L39 7L40 7L40 8L41 8L41 9L42 9L42 8L41 8L41 7L42 7L42 5L43 5L43 4ZM27 5L27 8L30 8L30 5ZM8 6L8 7L9 7L9 6ZM13 6L13 7L14 7L14 6ZM15 6L15 8L13 8L13 9L14 9L14 11L15 11L15 15L14 15L14 16L15 16L15 17L17 17L17 15L18 15L18 14L19 14L19 13L20 13L20 12L19 12L19 8L18 8L18 12L17 12L17 13L16 13L16 10L17 10L17 7L18 7L18 6L17 6L17 7L16 7L16 6ZM19 6L19 7L20 7L20 6ZM24 6L24 7L25 7L25 6ZM28 6L28 7L29 7L29 6ZM38 6L38 7L39 7L39 6ZM48 6L48 7L49 7L49 6ZM6 8L6 9L7 9L7 8ZM8 8L8 10L9 10L9 11L10 11L10 10L11 10L11 9L10 9L10 10L9 10L9 8ZM48 8L48 9L47 9L47 10L46 10L46 11L47 11L47 12L48 12L48 11L47 11L47 10L50 10L50 8ZM52 8L52 9L55 9L55 8ZM56 8L56 9L57 9L57 8ZM1 9L1 10L2 10L2 9ZM44 9L44 10L45 10L45 9ZM6 10L6 11L7 11L7 10ZM33 10L33 11L30 11L30 12L31 12L31 14L30 14L30 13L28 13L28 12L26 12L26 13L25 13L25 14L27 14L27 16L26 16L26 15L23 15L23 18L24 18L24 19L25 19L25 22L28 22L28 24L29 24L29 22L31 22L31 20L32 20L32 19L33 19L33 18L35 18L35 17L34 17L34 16L35 16L35 15L39 15L39 17L40 17L40 16L41 16L41 14L40 14L40 13L39 13L39 12L40 12L40 11L39 11L39 10L38 10L38 12L36 12L36 10L35 10L35 11L34 11L34 10ZM55 10L55 11L56 11L56 12L57 12L57 10ZM1 11L1 12L3 12L3 11ZM24 11L24 12L22 12L22 13L23 13L23 14L24 14L24 12L25 12L25 11ZM51 11L51 12L50 12L50 13L51 13L51 12L52 12L52 13L53 13L53 11ZM6 12L6 13L7 13L7 12ZM18 12L18 13L19 13L19 12ZM32 12L32 13L33 13L33 12ZM34 12L34 14L33 14L33 15L32 15L32 14L31 14L31 16L29 16L29 15L28 15L28 16L29 16L29 17L27 17L27 18L25 18L25 17L26 17L26 16L25 16L25 17L24 17L24 18L25 18L25 19L27 19L27 20L26 20L26 21L27 21L27 20L29 20L29 21L30 21L30 20L31 20L31 18L32 18L32 17L31 17L31 16L33 16L33 15L35 15L35 14L37 14L37 13L35 13L35 12ZM16 14L16 15L15 15L15 16L16 16L16 15L17 15L17 14ZM47 14L47 16L48 16L48 14ZM0 15L0 17L1 17L1 15ZM11 15L11 16L9 16L9 19L10 19L10 20L12 20L12 19L13 19L13 18L10 18L10 17L11 17L11 16L12 16L12 15ZM54 16L54 17L53 17L53 18L54 18L54 17L55 17L55 16ZM21 17L21 19L22 19L22 17ZM29 17L29 18L28 18L28 19L30 19L30 17ZM36 17L36 18L37 18L37 17ZM41 17L41 18L42 18L42 17ZM41 20L41 21L42 21L42 20ZM38 21L38 22L39 22L39 21ZM54 21L54 22L56 22L56 21ZM8 22L8 23L9 23L9 22ZM10 22L10 24L11 24L11 22ZM26 23L26 24L27 24L27 23ZM50 23L50 24L51 24L51 23ZM12 24L12 25L14 25L14 24ZM43 24L43 25L44 25L44 24ZM45 24L45 26L41 26L41 25L40 25L40 27L41 27L41 30L42 30L42 29L43 29L43 28L44 28L44 29L45 29L45 26L46 26L46 30L45 30L45 31L46 31L46 32L47 32L47 26L46 26L46 24ZM30 25L30 26L31 26L31 25ZM10 26L10 27L11 27L11 26ZM5 27L5 30L8 30L8 27ZM27 27L27 30L30 30L30 27ZM31 27L31 28L33 28L33 27ZM42 27L42 28L43 28L43 27ZM49 27L49 30L52 30L52 27ZM0 28L0 29L2 29L2 30L1 30L1 31L3 31L3 29L2 29L2 28ZM6 28L6 29L7 29L7 28ZM18 28L18 29L19 29L19 30L20 30L20 28ZM28 28L28 29L29 29L29 28ZM50 28L50 29L51 29L51 28ZM53 28L53 29L54 29L54 28ZM21 29L21 30L23 30L23 31L22 31L22 32L21 32L21 31L19 31L19 34L17 34L17 36L18 36L18 38L19 38L19 39L17 39L17 38L15 38L15 36L16 36L16 34L15 34L15 32L14 32L14 33L13 33L13 35L14 35L14 34L15 34L15 36L14 36L14 37L12 37L12 38L14 38L14 40L13 40L13 39L11 39L11 38L10 38L10 39L11 39L11 40L13 40L13 41L11 41L11 42L10 42L10 43L12 43L12 44L13 44L13 43L12 43L12 42L13 42L13 41L14 41L14 40L15 40L15 42L14 42L14 44L15 44L15 45L17 45L17 42L18 42L18 43L19 43L19 44L20 44L20 45L21 45L21 46L22 46L22 44L23 44L23 43L24 43L24 42L23 42L23 41L22 41L22 40L23 40L23 39L24 39L24 41L25 41L25 42L29 42L29 43L27 43L27 44L28 44L28 45L29 45L29 43L31 43L31 46L32 46L32 42L33 42L33 45L34 45L34 44L35 44L35 46L34 46L34 47L33 47L33 48L34 48L34 47L36 47L36 46L37 46L37 47L38 47L38 45L39 45L39 47L43 47L43 50L44 50L44 48L45 48L45 47L44 47L44 45L42 45L42 43L43 43L43 44L47 44L47 43L48 43L48 44L49 44L49 43L50 43L50 42L47 42L47 41L50 41L50 40L47 40L47 39L48 39L48 38L49 38L49 37L47 37L47 38L46 38L46 37L45 37L45 38L46 38L46 40L45 40L45 39L44 39L44 38L42 38L42 36L43 36L43 37L44 37L44 36L45 36L45 35L46 35L46 34L45 34L45 33L44 33L44 31L41 31L41 32L40 32L40 31L39 31L39 30L38 30L38 31L39 31L39 34L38 34L38 32L37 32L37 31L35 31L35 32L33 32L33 31L32 31L32 32L33 32L33 33L32 33L32 36L29 36L29 35L28 35L28 34L27 34L27 36L23 36L23 38L22 38L22 37L21 37L21 38L20 38L20 37L19 37L19 36L18 36L18 35L19 35L19 34L20 34L20 33L21 33L21 35L24 35L24 34L25 34L25 32L24 32L24 29ZM55 29L55 30L56 30L56 29ZM6 32L6 33L7 33L7 34L6 34L6 35L7 35L7 36L6 36L6 37L7 37L7 36L9 36L9 34L8 34L8 33L7 33L7 32ZM9 32L9 33L10 33L10 32ZM16 32L16 33L18 33L18 32ZM23 32L23 33L22 33L22 34L23 34L23 33L24 33L24 32ZM36 32L36 33L37 33L37 32ZM42 32L42 33L43 33L43 32ZM33 33L33 36L32 36L32 38L30 38L30 39L28 39L28 40L27 40L27 39L26 39L26 37L24 37L24 39L25 39L25 41L26 41L26 40L27 40L27 41L28 41L28 40L30 40L30 41L29 41L29 42L31 42L31 40L33 40L33 39L32 39L32 38L33 38L33 37L34 37L34 39L35 39L35 40L34 40L34 41L36 41L36 42L34 42L34 43L35 43L35 44L36 44L36 45L38 45L38 44L41 44L41 41L42 41L42 42L43 42L43 43L45 43L45 41L43 41L43 39L39 39L39 38L38 38L38 39L37 39L37 37L39 37L39 36L40 36L40 37L41 37L41 36L42 36L42 34L41 34L41 35L37 35L37 37L35 37L35 36L36 36L36 35L34 35L34 34L35 34L35 33ZM7 34L7 35L8 35L8 34ZM43 34L43 35L44 35L44 34ZM51 35L51 36L52 36L52 35ZM1 36L1 37L2 37L2 36ZM27 36L27 38L29 38L29 36ZM35 38L35 39L36 39L36 38ZM16 39L16 41L17 41L17 39ZM21 39L21 40L22 40L22 39ZM38 39L38 40L37 40L37 41L39 41L39 42L37 42L37 44L38 44L38 43L39 43L39 42L40 42L40 40L39 40L39 39ZM18 40L18 41L19 41L19 43L21 43L21 44L22 44L22 41L20 41L20 40ZM46 40L46 41L47 41L47 40ZM15 42L15 43L16 43L16 42ZM3 43L3 45L2 45L2 46L1 46L1 47L2 47L2 46L3 46L3 47L5 47L5 46L3 46L3 45L5 45L5 44L4 44L4 43ZM26 45L26 46L27 46L27 45ZM47 45L47 46L49 46L49 45ZM55 45L55 46L56 46L56 45ZM52 46L52 47L53 47L53 46ZM14 48L14 49L13 49L13 50L14 50L14 51L13 51L13 52L12 52L12 50L11 50L11 52L10 52L10 54L11 54L11 52L12 52L12 53L13 53L13 55L14 55L14 56L15 56L15 55L14 55L14 53L13 53L13 52L14 52L14 51L15 51L15 50L14 50L14 49L15 49L15 48ZM41 48L41 49L42 49L42 48ZM16 49L16 52L15 52L15 53L16 53L16 54L17 54L17 56L18 56L18 54L19 54L19 52L18 52L18 51L19 51L19 49ZM22 49L22 52L23 52L23 49ZM27 49L27 52L30 52L30 49ZM49 49L49 52L52 52L52 49ZM53 49L53 50L55 50L55 49ZM17 50L17 51L18 51L18 50ZM24 50L24 51L25 51L25 50ZM28 50L28 51L29 51L29 50ZM50 50L50 51L51 51L51 50ZM36 51L36 52L35 52L35 53L36 53L36 54L37 54L37 52L38 52L38 51ZM33 52L33 53L34 53L34 52ZM54 52L54 53L56 53L56 52ZM17 53L17 54L18 54L18 53ZM20 53L20 55L22 55L22 54L21 54L21 53ZM38 53L38 54L39 54L39 53ZM41 53L41 54L42 54L42 53ZM47 53L47 54L50 54L50 53ZM44 54L44 55L45 55L45 54ZM24 55L24 57L25 57L25 55ZM48 55L48 56L49 56L49 55ZM56 55L56 56L57 56L57 55ZM52 56L52 57L55 57L55 56ZM0 0L0 7L7 7L7 0ZM1 1L1 6L6 6L6 1ZM2 2L2 5L5 5L5 2ZM50 0L50 7L57 7L57 0ZM51 1L51 6L56 6L56 1ZM52 2L52 5L55 5L55 2ZM0 50L0 57L7 57L7 50ZM1 51L1 56L6 56L6 51ZM2 52L2 55L5 55L5 52Z" fill="#000000"/></g></g></svg>
