<?xml version="1.0" encoding="UTF-8"?>
<svg xmlns="http://www.w3.org/2000/svg" version="1.1" width="300" height="300" viewBox="0 0 300 300"><rect x="0" y="0" width="300" height="300" fill="#fefefe"/><g transform="scale(4.615)"><g transform="translate(4,4)"><path fill-rule="evenodd" d="M8 0L8 2L9 2L9 0ZM10 0L10 1L11 1L11 0ZM14 0L14 3L13 3L13 2L12 2L12 4L13 4L13 5L14 5L14 7L13 7L13 6L12 6L12 5L11 5L11 2L10 2L10 3L9 3L9 4L8 4L8 9L7 9L7 8L5 8L5 10L4 10L4 12L6 12L6 13L8 13L8 11L9 11L9 12L10 12L10 14L9 14L9 15L8 15L8 16L6 16L6 15L7 15L7 14L6 14L6 15L2 15L2 13L3 13L3 14L4 14L4 13L3 13L3 8L0 8L0 9L2 9L2 11L1 11L1 10L0 10L0 11L1 11L1 12L0 12L0 14L1 14L1 15L0 15L0 16L1 16L1 17L0 17L0 19L4 19L4 20L5 20L5 21L4 21L4 22L3 22L3 25L2 25L2 24L0 24L0 26L1 26L1 27L0 27L0 29L1 29L1 31L0 31L0 32L2 32L2 33L3 33L3 32L4 32L4 33L5 33L5 35L4 35L4 34L2 34L2 36L3 36L3 37L5 37L5 35L7 35L7 34L6 34L6 33L7 33L7 32L6 32L6 31L8 31L8 33L9 33L9 34L8 34L8 36L6 36L6 37L8 37L8 38L5 38L5 40L4 40L4 41L5 41L5 40L6 40L6 41L7 41L7 42L6 42L6 43L8 43L8 42L9 42L9 43L11 43L11 44L12 44L12 45L11 45L11 47L9 47L9 48L8 48L8 46L6 46L6 45L8 45L8 44L6 44L6 45L5 45L5 47L3 47L3 46L4 46L4 43L5 43L5 42L4 42L4 43L3 43L3 41L1 41L1 40L3 40L3 39L4 39L4 38L3 38L3 39L2 39L2 37L1 37L1 36L0 36L0 37L1 37L1 40L0 40L0 45L1 45L1 46L0 46L0 48L5 48L5 47L7 47L7 48L6 48L6 49L7 49L7 48L8 48L8 50L9 50L9 51L8 51L8 52L9 52L9 53L10 53L10 50L11 50L11 51L12 51L12 52L13 52L13 51L14 51L14 54L13 54L13 56L16 56L16 57L17 57L17 56L18 56L18 57L20 57L20 56L18 56L18 55L19 55L19 52L18 52L18 51L19 51L19 46L18 46L18 45L19 45L19 44L18 44L18 43L20 43L20 44L21 44L21 43L20 43L20 41L21 41L21 42L22 42L22 41L23 41L23 42L24 42L24 41L23 41L23 38L22 38L22 37L23 37L23 36L22 36L22 37L21 37L21 36L19 36L19 35L21 35L21 34L20 34L20 33L19 33L19 31L18 31L18 32L17 32L17 31L16 31L16 30L15 30L15 29L12 29L12 30L11 30L11 28L10 28L10 27L12 27L12 28L13 28L13 27L12 27L12 26L10 26L10 25L12 25L12 23L13 23L13 25L15 25L15 26L16 26L16 27L15 27L15 28L17 28L17 26L18 26L18 25L19 25L19 27L18 27L18 28L19 28L19 30L20 30L20 32L21 32L21 30L22 30L22 33L23 33L23 34L22 34L22 35L25 35L25 36L24 36L24 37L25 37L25 36L26 36L26 37L27 37L27 36L28 36L28 37L29 37L29 36L28 36L28 35L31 35L31 36L30 36L30 41L29 41L29 40L28 40L28 41L27 41L27 39L26 39L26 38L24 38L24 39L26 39L26 40L25 40L25 41L26 41L26 42L25 42L25 45L26 45L26 46L25 46L25 47L24 47L24 46L23 46L23 48L22 48L22 46L21 46L21 47L20 47L20 48L22 48L22 50L21 50L21 51L20 51L20 53L21 53L21 51L22 51L22 54L20 54L20 55L22 55L22 57L24 57L24 56L25 56L25 55L24 55L24 54L25 54L25 51L26 51L26 53L28 53L28 55L27 55L27 54L26 54L26 55L27 55L27 56L26 56L26 57L28 57L28 55L29 55L29 57L33 57L33 55L30 55L30 54L31 54L31 53L32 53L32 54L34 54L34 57L35 57L35 55L37 55L37 54L36 54L36 53L37 53L37 51L38 51L38 53L39 53L39 55L40 55L40 54L42 54L42 55L41 55L41 56L40 56L40 57L42 57L42 56L43 56L43 54L42 54L42 53L43 53L43 52L44 52L44 55L45 55L45 56L44 56L44 57L48 57L48 56L46 56L46 55L47 55L47 54L48 54L48 55L49 55L49 57L50 57L50 55L49 55L49 54L52 54L52 55L53 55L53 56L51 56L51 57L54 57L54 55L57 55L57 54L55 54L55 52L54 52L54 51L53 51L53 50L54 50L54 49L53 49L53 48L54 48L54 47L55 47L55 50L56 50L56 51L57 51L57 50L56 50L56 47L57 47L57 45L56 45L56 44L57 44L57 40L55 40L55 41L56 41L56 44L55 44L55 45L56 45L56 47L55 47L55 46L54 46L54 45L53 45L53 46L52 46L52 45L51 45L51 44L52 44L52 40L53 40L53 44L54 44L54 43L55 43L55 42L54 42L54 39L55 39L55 38L57 38L57 37L56 37L56 36L54 36L54 34L53 34L53 36L51 36L51 33L50 33L50 32L52 32L52 31L53 31L53 32L54 32L54 33L55 33L55 34L56 34L56 35L57 35L57 33L56 33L56 31L57 31L57 24L56 24L56 23L57 23L57 20L55 20L55 21L54 21L54 19L57 19L57 10L56 10L56 9L57 9L57 8L55 8L55 9L54 9L54 10L53 10L53 11L52 11L52 12L51 12L51 11L50 11L50 13L49 13L49 14L48 14L48 12L49 12L49 11L48 11L48 9L53 9L53 8L48 8L48 7L49 7L49 6L48 6L48 7L47 7L47 5L48 5L48 0L46 0L46 1L45 1L45 0L42 0L42 1L41 1L41 0L38 0L38 2L37 2L37 1L35 1L35 0L34 0L34 2L37 2L37 4L38 4L38 5L39 5L39 4L40 4L40 2L42 2L42 1L45 1L45 4L44 4L44 2L43 2L43 4L42 4L42 3L41 3L41 4L42 4L42 7L41 7L41 6L40 6L40 7L39 7L39 6L38 6L38 9L37 9L37 6L36 6L36 10L34 10L34 9L35 9L35 4L36 4L36 3L34 3L34 8L32 8L32 9L31 9L31 5L32 5L32 2L33 2L33 0L32 0L32 2L31 2L31 0L30 0L30 1L29 1L29 0L28 0L28 2L27 2L27 0L24 0L24 1L23 1L23 0L19 0L19 1L17 1L17 0L16 0L16 1L17 1L17 2L18 2L18 3L20 3L20 1L22 1L22 2L21 2L21 5L20 5L20 7L19 7L19 5L18 5L18 9L19 9L19 10L17 10L17 11L16 11L16 8L14 8L14 7L15 7L15 6L16 6L16 7L17 7L17 6L16 6L16 5L17 5L17 4L16 4L16 2L15 2L15 0ZM24 1L24 4L25 4L25 1ZM39 1L39 2L40 2L40 1ZM46 1L46 2L47 2L47 1ZM22 2L22 5L23 5L23 2ZM29 2L29 3L28 3L28 4L29 4L29 3L30 3L30 2ZM14 3L14 4L15 4L15 3ZM26 3L26 4L27 4L27 3ZM46 3L46 5L44 5L44 4L43 4L43 5L44 5L44 6L43 6L43 9L42 9L42 8L41 8L41 7L40 7L40 8L39 8L39 9L38 9L38 10L37 10L37 11L34 11L34 10L33 10L33 9L32 9L32 12L30 12L30 10L31 10L31 9L30 9L30 10L29 10L29 12L30 12L30 13L29 13L29 15L28 15L28 14L25 14L25 12L24 12L24 10L25 10L25 11L26 11L26 13L27 13L27 12L28 12L28 9L27 9L27 10L25 10L25 9L26 9L26 5L24 5L24 6L23 6L23 7L22 7L22 6L21 6L21 7L22 7L22 8L21 8L21 9L20 9L20 8L19 8L19 9L20 9L20 10L19 10L19 11L18 11L18 12L19 12L19 11L20 11L20 10L21 10L21 13L20 13L20 14L19 14L19 13L18 13L18 14L19 14L19 15L15 15L15 14L17 14L17 12L16 12L16 11L15 11L15 9L14 9L14 8L13 8L13 7L12 7L12 6L11 6L11 7L10 7L10 4L9 4L9 8L12 8L12 9L14 9L14 10L13 10L13 11L12 11L12 10L11 10L11 14L10 14L10 15L11 15L11 16L9 16L9 18L10 18L10 17L11 17L11 18L12 18L12 19L10 19L10 20L8 20L8 18L7 18L7 17L6 17L6 18L7 18L7 19L6 19L6 20L8 20L8 21L6 21L6 22L7 22L7 23L6 23L6 24L5 24L5 22L4 22L4 25L3 25L3 26L4 26L4 25L5 25L5 26L7 26L7 25L8 25L8 26L9 26L9 27L10 27L10 26L9 26L9 25L10 25L10 24L9 24L9 23L11 23L11 22L13 22L13 20L12 20L12 19L13 19L13 18L12 18L12 17L14 17L14 16L16 16L16 18L19 18L19 21L18 21L18 19L16 19L16 20L17 20L17 21L18 21L18 22L16 22L16 23L17 23L17 25L16 25L16 24L15 24L15 25L16 25L16 26L17 26L17 25L18 25L18 24L20 24L20 30L21 30L21 25L22 25L22 24L23 24L23 25L24 25L24 26L23 26L23 27L22 27L22 28L23 28L23 27L24 27L24 30L25 30L25 31L23 31L23 32L24 32L24 34L26 34L26 35L28 35L28 34L29 34L29 32L30 32L30 34L31 34L31 33L32 33L32 35L34 35L34 34L35 34L35 33L36 33L36 35L35 35L35 36L34 36L34 39L33 39L33 38L31 38L31 41L30 41L30 42L29 42L29 41L28 41L28 43L27 43L27 46L26 46L26 47L25 47L25 48L23 48L23 49L24 49L24 51L23 51L23 52L24 52L24 51L25 51L25 50L26 50L26 48L27 48L27 46L29 46L29 47L28 47L28 48L29 48L29 47L30 47L30 48L31 48L31 50L32 50L32 48L31 48L31 47L30 47L30 46L32 46L32 40L33 40L33 41L34 41L34 42L35 42L35 41L36 41L36 43L35 43L35 44L33 44L33 45L34 45L34 48L33 48L33 49L34 49L34 50L33 50L33 51L34 51L34 50L35 50L35 51L37 51L37 49L36 49L36 48L37 48L37 47L38 47L38 51L39 51L39 49L40 49L40 51L41 51L41 49L42 49L42 50L43 50L43 51L42 51L42 52L43 52L43 51L44 51L44 50L45 50L45 49L44 49L44 48L45 48L45 47L44 47L44 46L43 46L43 45L44 45L44 44L45 44L45 42L44 42L44 39L43 39L43 38L44 38L44 34L45 34L45 36L47 36L47 35L46 35L46 34L48 34L48 35L49 35L49 36L48 36L48 37L46 37L46 38L45 38L45 40L46 40L46 42L47 42L47 43L48 43L48 42L49 42L49 44L50 44L50 42L49 42L49 41L51 41L51 40L52 40L52 39L53 39L53 37L54 37L54 38L55 38L55 37L54 37L54 36L53 36L53 37L52 37L52 38L51 38L51 40L50 40L50 33L49 33L49 34L48 34L48 33L47 33L47 30L48 30L48 29L47 29L47 28L46 28L46 29L44 29L44 30L43 30L43 28L42 28L42 31L40 31L40 32L39 32L39 33L38 33L38 34L37 34L37 33L36 33L36 31L37 31L37 32L38 32L38 31L39 31L39 30L40 30L40 28L41 28L41 27L40 27L40 28L39 28L39 29L38 29L38 28L37 28L37 26L36 26L36 24L37 24L37 25L38 25L38 26L39 26L39 25L38 25L38 23L41 23L41 22L40 22L40 19L41 19L41 20L42 20L42 22L43 22L43 23L42 23L42 27L43 27L43 25L44 25L44 27L46 27L46 26L47 26L47 27L48 27L48 26L49 26L49 24L51 24L51 25L50 25L50 26L51 26L51 25L52 25L52 24L53 24L53 25L54 25L54 26L55 26L55 27L54 27L54 28L53 28L53 30L54 30L54 32L55 32L55 31L56 31L56 30L55 30L55 29L56 29L56 28L55 28L55 27L56 27L56 26L55 26L55 25L56 25L56 24L55 24L55 23L56 23L56 21L55 21L55 23L54 23L54 21L53 21L53 22L52 22L52 20L53 20L53 19L54 19L54 16L55 16L55 17L56 17L56 16L55 16L55 15L56 15L56 12L55 12L55 11L56 11L56 10L55 10L55 11L54 11L54 12L53 12L53 14L52 14L52 13L50 13L50 15L49 15L49 16L50 16L50 18L51 18L51 20L49 20L49 21L48 21L48 19L49 19L49 17L48 17L48 16L47 16L47 15L48 15L48 14L47 14L47 13L46 13L46 11L47 11L47 12L48 12L48 11L47 11L47 9L46 9L46 8L47 8L47 7L46 7L46 5L47 5L47 3ZM27 5L27 8L30 8L30 5ZM24 6L24 7L25 7L25 6ZM28 6L28 7L29 7L29 6ZM32 6L32 7L33 7L33 6ZM44 6L44 9L43 9L43 10L42 10L42 9L41 9L41 8L40 8L40 9L41 9L41 10L39 10L39 11L37 11L37 12L36 12L36 13L35 13L35 12L34 12L34 11L33 11L33 12L32 12L32 14L33 14L33 15L31 15L31 16L30 16L30 15L29 15L29 16L30 16L30 17L28 17L28 18L30 18L30 17L31 17L31 16L32 16L32 17L33 17L33 19L31 19L31 20L30 20L30 19L29 19L29 20L28 20L28 19L27 19L27 18L24 18L24 16L22 16L22 14L20 14L20 17L19 17L19 16L18 16L18 17L19 17L19 18L20 18L20 21L21 21L21 22L20 22L20 23L21 23L21 24L22 24L22 22L23 22L23 24L24 24L24 25L25 25L25 30L26 30L26 32L25 32L25 33L26 33L26 32L27 32L27 31L30 31L30 32L31 32L31 31L32 31L32 30L33 30L33 32L32 32L32 33L33 33L33 34L34 34L34 33L33 33L33 32L35 32L35 31L34 31L34 29L35 29L35 30L37 30L37 31L38 31L38 30L37 30L37 28L36 28L36 27L34 27L34 29L33 29L33 28L32 28L32 29L31 29L31 27L32 27L32 25L33 25L33 26L34 26L34 24L36 24L36 23L38 23L38 20L39 20L39 19L40 19L40 18L41 18L41 19L42 19L42 20L43 20L43 19L44 19L44 21L43 21L43 22L44 22L44 23L45 23L45 22L44 22L44 21L45 21L45 20L46 20L46 21L47 21L47 22L48 22L48 24L47 24L47 26L48 26L48 24L49 24L49 23L50 23L50 22L48 22L48 21L47 21L47 20L46 20L46 19L44 19L44 17L45 17L45 18L46 18L46 16L44 16L44 15L46 15L46 13L45 13L45 12L44 12L44 13L43 13L43 14L44 14L44 15L43 15L43 16L44 16L44 17L43 17L43 18L42 18L42 17L41 17L41 15L42 15L42 12L43 12L43 10L44 10L44 9L45 9L45 8L46 8L46 7L45 7L45 6ZM22 8L22 9L23 9L23 10L24 10L24 8ZM6 9L6 10L5 10L5 11L6 11L6 12L7 12L7 11L8 11L8 10L7 10L7 9ZM9 9L9 11L10 11L10 9ZM6 10L6 11L7 11L7 10ZM14 11L14 12L15 12L15 11ZM22 11L22 12L23 12L23 11ZM41 11L41 12L42 12L42 11ZM1 12L1 13L2 13L2 12ZM12 12L12 14L13 14L13 16L14 16L14 14L13 14L13 12ZM37 12L37 13L38 13L38 15L37 15L37 16L38 16L38 18L40 18L40 15L39 15L39 12ZM23 13L23 14L24 14L24 15L25 15L25 17L26 17L26 15L25 15L25 14L24 14L24 13ZM34 13L34 15L33 15L33 17L34 17L34 18L36 18L36 19L37 19L37 18L36 18L36 14L35 14L35 13ZM40 13L40 14L41 14L41 13ZM44 13L44 14L45 14L45 13ZM51 14L51 17L52 17L52 18L53 18L53 16L54 16L54 15L55 15L55 14L53 14L53 15L52 15L52 14ZM1 15L1 16L2 16L2 17L3 17L3 18L5 18L5 17L4 17L4 16L2 16L2 15ZM34 15L34 17L35 17L35 15ZM20 17L20 18L21 18L21 21L22 21L22 20L23 20L23 19L22 19L22 18L21 18L21 17ZM47 17L47 19L48 19L48 17ZM14 19L14 20L15 20L15 19ZM24 19L24 20L25 20L25 21L26 21L26 20L27 20L27 22L26 22L26 23L27 23L27 25L26 25L26 26L28 26L28 24L29 24L29 23L30 23L30 26L31 26L31 25L32 25L32 23L31 23L31 22L33 22L33 21L34 21L34 22L35 22L35 23L36 23L36 22L37 22L37 21L36 21L36 20L34 20L34 19L33 19L33 21L32 21L32 20L31 20L31 21L30 21L30 22L29 22L29 21L28 21L28 20L27 20L27 19L26 19L26 20L25 20L25 19ZM2 20L2 21L1 21L1 22L2 22L2 21L3 21L3 20ZM10 20L10 22L11 22L11 20ZM8 21L8 22L9 22L9 21ZM14 21L14 22L15 22L15 21ZM35 21L35 22L36 22L36 21ZM18 22L18 23L19 23L19 22ZM24 22L24 23L25 23L25 22ZM28 22L28 23L29 23L29 22ZM51 22L51 23L52 23L52 22ZM7 23L7 24L6 24L6 25L7 25L7 24L8 24L8 25L9 25L9 24L8 24L8 23ZM33 23L33 24L34 24L34 23ZM53 23L53 24L54 24L54 25L55 25L55 24L54 24L54 23ZM44 24L44 25L45 25L45 26L46 26L46 24ZM40 25L40 26L41 26L41 25ZM2 27L2 28L1 28L1 29L4 29L4 27ZM5 27L5 30L8 30L8 27ZM27 27L27 30L30 30L30 27ZM49 27L49 30L52 30L52 27ZM6 28L6 29L7 29L7 28ZM9 28L9 33L10 33L10 34L11 34L11 35L10 35L10 38L9 38L9 39L12 39L12 40L11 40L11 41L10 41L10 40L9 40L9 41L10 41L10 42L11 42L11 43L12 43L12 44L13 44L13 43L14 43L14 40L13 40L13 39L14 39L14 38L15 38L15 40L16 40L16 43L15 43L15 44L14 44L14 45L13 45L13 46L12 46L12 48L11 48L11 49L12 49L12 51L13 51L13 49L14 49L14 48L13 48L13 46L14 46L14 45L16 45L16 46L17 46L17 44L16 44L16 43L17 43L17 39L16 39L16 38L17 38L17 37L16 37L16 36L18 36L18 35L16 35L16 34L17 34L17 32L16 32L16 31L14 31L14 32L13 32L13 33L12 33L12 31L11 31L11 30L10 30L10 28ZM28 28L28 29L29 29L29 28ZM35 28L35 29L36 29L36 28ZM50 28L50 29L51 29L51 28ZM22 29L22 30L23 30L23 29ZM2 30L2 32L3 32L3 30ZM45 30L45 31L42 31L42 33L41 33L41 32L40 32L40 34L42 34L42 33L43 33L43 34L44 34L44 33L45 33L45 34L46 34L46 33L45 33L45 31L46 31L46 30ZM10 31L10 32L11 32L11 31ZM15 32L15 34L16 34L16 32ZM11 33L11 34L12 34L12 35L11 35L11 38L12 38L12 35L13 35L13 36L14 36L14 34L12 34L12 33ZM27 33L27 34L28 34L28 33ZM0 34L0 35L1 35L1 34ZM38 34L38 36L37 36L37 35L36 35L36 37L35 37L35 38L36 38L36 41L37 41L37 42L38 42L38 41L39 41L39 40L40 40L40 41L41 41L41 42L40 42L40 43L37 43L37 44L36 44L36 45L37 45L37 46L35 46L35 47L37 47L37 46L38 46L38 45L37 45L37 44L39 44L39 47L40 47L40 49L41 49L41 47L42 47L42 45L43 45L43 44L42 44L42 45L41 45L41 43L44 43L44 42L42 42L42 41L43 41L43 39L42 39L42 40L40 40L40 39L41 39L41 35L40 35L40 36L39 36L39 34ZM15 35L15 36L16 36L16 35ZM8 36L8 37L9 37L9 36ZM31 36L31 37L32 37L32 36ZM38 36L38 38L39 38L39 39L40 39L40 38L39 38L39 36ZM42 36L42 37L43 37L43 36ZM13 37L13 38L14 38L14 37ZM36 37L36 38L37 38L37 37ZM18 38L18 40L19 40L19 38ZM20 38L20 39L22 39L22 38ZM28 38L28 39L29 39L29 38ZM46 38L46 40L47 40L47 41L48 41L48 40L49 40L49 39L48 39L48 40L47 40L47 38ZM6 39L6 40L8 40L8 39ZM34 39L34 41L35 41L35 39ZM37 39L37 41L38 41L38 39ZM12 40L12 41L11 41L11 42L12 42L12 43L13 43L13 40ZM21 40L21 41L22 41L22 40ZM30 42L30 43L28 43L28 44L30 44L30 43L31 43L31 42ZM1 43L1 44L2 44L2 46L1 46L1 47L2 47L2 46L3 46L3 44L2 44L2 43ZM22 43L22 44L24 44L24 43ZM9 44L9 46L10 46L10 44ZM46 44L46 48L47 48L47 47L48 47L48 46L49 46L49 47L50 47L50 46L51 46L51 45L47 45L47 44ZM40 45L40 47L41 47L41 45ZM53 46L53 47L52 47L52 48L53 48L53 47L54 47L54 46ZM16 47L16 48L15 48L15 49L16 49L16 50L18 50L18 48L17 48L17 47ZM9 48L9 49L10 49L10 48ZM12 48L12 49L13 49L13 48ZM16 48L16 49L17 49L17 48ZM27 49L27 52L30 52L30 49ZM43 49L43 50L44 50L44 49ZM46 49L46 50L47 50L47 49ZM49 49L49 52L52 52L52 49ZM14 50L14 51L15 51L15 50ZM28 50L28 51L29 51L29 50ZM50 50L50 51L51 51L51 50ZM16 51L16 52L17 52L17 54L16 54L16 55L18 55L18 52L17 52L17 51ZM31 51L31 52L32 52L32 51ZM45 51L45 53L46 53L46 54L45 54L45 55L46 55L46 54L47 54L47 53L46 53L46 51ZM47 51L47 52L48 52L48 51ZM33 52L33 53L34 53L34 54L35 54L35 53L36 53L36 52L35 52L35 53L34 53L34 52ZM39 52L39 53L40 53L40 52ZM56 52L56 53L57 53L57 52ZM11 53L11 54L12 54L12 53ZM48 53L48 54L49 54L49 53ZM53 53L53 54L54 54L54 53ZM8 54L8 57L9 57L9 56L10 56L10 57L11 57L11 56L12 56L12 55L11 55L11 56L10 56L10 54ZM14 54L14 55L15 55L15 54ZM22 54L22 55L23 55L23 54ZM36 56L36 57L37 57L37 56ZM56 56L56 57L57 57L57 56ZM0 0L0 7L7 7L7 0ZM1 1L1 6L6 6L6 1ZM2 2L2 5L5 5L5 2ZM50 0L50 7L57 7L57 0ZM51 1L51 6L56 6L56 1ZM52 2L52 5L55 5L55 2ZM0 50L0 57L7 57L7 50ZM1 51L1 56L6 56L6 51ZM2 52L2 55L5 55L5 52Z" fill="#000000"/></g></g></svg>
