<?xml version="1.0" encoding="UTF-8"?>
<svg xmlns="http://www.w3.org/2000/svg" version="1.1" width="300" height="300" viewBox="0 0 300 300"><rect x="0" y="0" width="300" height="300" fill="#fefefe"/><g transform="scale(4.615)"><g transform="translate(4,4)"><path fill-rule="evenodd" d="M8 0L8 1L9 1L9 2L8 2L8 5L9 5L9 6L8 6L8 7L9 7L9 8L8 8L8 9L7 9L7 8L6 8L6 9L4 9L4 8L0 8L0 10L1 10L1 12L2 12L2 11L3 11L3 12L5 12L5 13L1 13L1 14L4 14L4 16L6 16L6 17L4 17L4 19L3 19L3 16L2 16L2 15L1 15L1 16L0 16L0 18L1 18L1 17L2 17L2 19L1 19L1 22L0 22L0 24L1 24L1 25L0 25L0 26L3 26L3 25L4 25L4 29L3 29L3 27L2 27L2 28L1 28L1 29L0 29L0 30L1 30L1 32L0 32L0 33L1 33L1 32L2 32L2 33L3 33L3 32L6 32L6 33L5 33L5 34L6 34L6 35L4 35L4 34L2 34L2 36L1 36L1 37L3 37L3 38L5 38L5 37L7 37L7 38L6 38L6 39L7 39L7 40L6 40L6 41L7 41L7 42L5 42L5 41L4 41L4 39L3 39L3 41L4 41L4 42L5 42L5 43L3 43L3 46L2 46L2 44L1 44L1 43L0 43L0 48L5 48L5 47L7 47L7 48L6 48L6 49L7 49L7 48L8 48L8 50L9 50L9 52L10 52L10 54L9 54L9 53L8 53L8 57L11 57L11 56L12 56L12 57L13 57L13 56L14 56L14 55L13 55L13 54L15 54L15 56L16 56L16 57L18 57L18 55L20 55L20 56L19 56L19 57L20 57L20 56L21 56L21 57L23 57L23 54L25 54L25 55L24 55L24 56L26 56L26 54L27 54L27 53L29 53L29 54L31 54L31 55L30 55L30 56L31 56L31 57L32 57L32 55L33 55L33 54L36 54L36 55L34 55L34 56L33 56L33 57L36 57L36 55L38 55L38 57L42 57L42 56L45 56L45 57L46 57L46 54L47 54L47 55L48 55L48 56L49 56L49 57L51 57L51 54L52 54L52 53L53 53L53 54L56 54L56 52L57 52L57 51L56 51L56 49L57 49L57 48L56 48L56 49L55 49L55 50L53 50L53 48L54 48L54 45L55 45L55 44L53 44L53 48L52 48L52 47L51 47L51 46L52 46L52 43L53 43L53 42L54 42L54 43L56 43L56 44L57 44L57 43L56 43L56 42L54 42L54 40L55 40L55 38L56 38L56 39L57 39L57 38L56 38L56 37L55 37L55 36L56 36L56 35L57 35L57 34L55 34L55 33L57 33L57 31L56 31L56 30L57 30L57 27L56 27L56 28L55 28L55 27L53 27L53 25L54 25L54 24L53 24L53 20L50 20L50 19L56 19L56 17L57 17L57 15L52 15L52 16L51 16L51 13L52 13L52 14L55 14L55 13L54 13L54 10L53 10L53 9L55 9L55 12L56 12L56 13L57 13L57 12L56 12L56 11L57 11L57 10L56 10L56 9L57 9L57 8L56 8L56 9L55 9L55 8L52 8L52 11L53 11L53 13L52 13L52 12L51 12L51 11L50 11L50 10L49 10L49 9L50 9L50 8L49 8L49 9L47 9L47 8L48 8L48 7L49 7L49 6L48 6L48 7L47 7L47 5L48 5L48 0L46 0L46 1L47 1L47 2L46 2L46 3L47 3L47 5L45 5L45 4L44 4L44 3L45 3L45 1L44 1L44 2L42 2L42 3L43 3L43 5L42 5L42 7L41 7L41 4L39 4L39 2L37 2L37 1L38 1L38 0L37 0L37 1L36 1L36 0L35 0L35 1L34 1L34 3L35 3L35 4L36 4L36 5L40 5L40 7L41 7L41 8L39 8L39 9L41 9L41 10L44 10L44 9L43 9L43 8L44 8L44 7L45 7L45 6L46 6L46 7L47 7L47 8L45 8L45 11L47 11L47 12L48 12L48 11L49 11L49 15L50 15L50 16L51 16L51 18L50 18L50 19L49 19L49 20L48 20L48 19L46 19L46 20L45 20L45 21L48 21L48 22L49 22L49 20L50 20L50 21L51 21L51 22L52 22L52 24L53 24L53 25L52 25L52 26L51 26L51 24L50 24L50 23L48 23L48 24L47 24L47 22L44 22L44 21L43 21L43 18L42 18L42 17L45 17L45 18L44 18L44 19L45 19L45 18L48 18L48 17L47 17L47 16L48 16L48 14L47 14L47 16L46 16L46 17L45 17L45 16L44 16L44 15L45 15L45 14L46 14L46 13L45 13L45 14L42 14L42 17L41 17L41 18L39 18L39 19L40 19L40 20L39 20L39 24L38 24L38 21L36 21L36 20L37 20L37 19L36 19L36 20L35 20L35 19L34 19L34 21L35 21L35 22L37 22L37 24L36 24L36 23L35 23L35 24L33 24L33 22L32 22L32 23L31 23L31 21L30 21L30 20L32 20L32 19L30 19L30 17L29 17L29 16L32 16L32 17L31 17L31 18L35 18L35 17L34 17L34 16L35 16L35 15L33 15L33 14L34 14L34 12L35 12L35 14L36 14L36 15L39 15L39 17L40 17L40 16L41 16L41 13L39 13L39 12L40 12L40 10L38 10L38 9L37 9L37 11L38 11L38 12L35 12L35 11L36 11L36 10L35 10L35 11L34 11L34 10L33 10L33 11L32 11L32 12L31 12L31 11L30 11L30 12L31 12L31 13L32 13L32 12L33 12L33 14L32 14L32 15L31 15L31 14L30 14L30 13L28 13L28 12L26 12L26 13L27 13L27 14L25 14L25 15L23 15L23 18L22 18L22 17L21 17L21 16L20 16L20 17L21 17L21 18L20 18L20 19L19 19L19 18L17 18L17 16L18 16L18 15L17 15L17 14L16 14L16 15L15 15L15 11L16 11L16 10L15 10L15 11L14 11L14 10L13 10L13 8L14 8L14 7L15 7L15 6L16 6L16 7L17 7L17 12L16 12L16 13L17 13L17 12L18 12L18 13L19 13L19 15L21 15L21 13L20 13L20 11L19 11L19 12L18 12L18 10L20 10L20 7L21 7L21 9L23 9L23 10L21 10L21 11L23 11L23 12L22 12L22 13L23 13L23 12L25 12L25 11L26 11L26 10L27 10L27 11L28 11L28 10L27 10L27 9L29 9L29 10L32 10L32 9L31 9L31 6L32 6L32 8L33 8L33 6L34 6L34 9L36 9L36 8L38 8L38 7L39 7L39 6L38 6L38 7L37 7L37 6L36 6L36 7L35 7L35 6L34 6L34 4L33 4L33 6L32 6L32 5L31 5L31 4L32 4L32 3L33 3L33 1L32 1L32 2L30 2L30 3L31 3L31 4L26 4L26 0L23 0L23 1L22 1L22 0L21 0L21 2L20 2L20 3L21 3L21 2L23 2L23 1L25 1L25 2L24 2L24 3L23 3L23 5L22 5L22 4L21 4L21 5L20 5L20 4L19 4L19 2L18 2L18 0L17 0L17 2L16 2L16 1L15 1L15 3L17 3L17 4L19 4L19 5L15 5L15 4L14 4L14 3L13 3L13 4L14 4L14 5L15 5L15 6L14 6L14 7L13 7L13 6L12 6L12 7L11 7L11 6L10 6L10 5L12 5L12 1L11 1L11 2L10 2L10 1L9 1L9 0ZM29 0L29 1L31 1L31 0ZM39 0L39 1L40 1L40 2L41 2L41 1L43 1L43 0L41 0L41 1L40 1L40 0ZM35 1L35 2L36 2L36 1ZM9 2L9 3L10 3L10 2ZM17 2L17 3L18 3L18 2ZM27 2L27 3L28 3L28 2ZM37 3L37 4L38 4L38 3ZM9 4L9 5L10 5L10 4ZM24 4L24 6L23 6L23 7L24 7L24 8L23 8L23 9L26 9L26 6L25 6L25 5L26 5L26 4ZM27 5L27 8L30 8L30 5ZM43 5L43 7L44 7L44 6L45 6L45 5ZM9 6L9 7L10 7L10 8L9 8L9 9L10 9L10 10L11 10L11 11L12 11L12 12L10 12L10 11L9 11L9 10L7 10L7 9L6 9L6 10L7 10L7 11L5 11L5 12L8 12L8 11L9 11L9 12L10 12L10 13L12 13L12 14L11 14L11 15L9 15L9 16L8 16L8 15L6 15L6 14L7 14L7 13L5 13L5 15L6 15L6 16L7 16L7 17L6 17L6 18L5 18L5 19L4 19L4 22L5 22L5 23L4 23L4 24L5 24L5 25L6 25L6 26L7 26L7 25L8 25L8 24L7 24L7 23L6 23L6 22L7 22L7 21L8 21L8 23L10 23L10 24L9 24L9 30L10 30L10 31L6 31L6 32L7 32L7 33L6 33L6 34L7 34L7 35L6 35L6 36L7 36L7 37L8 37L8 38L7 38L7 39L8 39L8 38L9 38L9 42L8 42L8 43L10 43L10 40L11 40L11 41L12 41L12 40L11 40L11 39L10 39L10 38L11 38L11 37L10 37L10 38L9 38L9 36L13 36L13 37L15 37L15 38L14 38L14 39L15 39L15 38L17 38L17 39L16 39L16 41L17 41L17 39L18 39L18 38L19 38L19 37L20 37L20 38L21 38L21 40L18 40L18 41L19 41L19 43L18 43L18 42L14 42L14 40L13 40L13 42L11 42L11 46L10 46L10 44L7 44L7 43L6 43L6 44L7 44L7 45L4 45L4 46L3 46L3 47L5 47L5 46L8 46L8 45L9 45L9 46L10 46L10 47L8 47L8 48L9 48L9 49L11 49L11 50L10 50L10 51L11 51L11 52L12 52L12 53L11 53L11 54L10 54L10 56L11 56L11 54L12 54L12 53L13 53L13 51L12 51L12 50L13 50L13 49L14 49L14 50L17 50L17 51L14 51L14 52L15 52L15 53L16 53L16 54L18 54L18 53L19 53L19 52L17 52L17 51L19 51L19 49L20 49L20 48L19 48L19 49L16 49L16 48L15 48L15 47L17 47L17 48L18 48L18 47L22 47L22 46L23 46L23 45L24 45L24 44L22 44L22 42L21 42L21 40L22 40L22 41L23 41L23 40L24 40L24 39L25 39L25 41L24 41L24 42L23 42L23 43L26 43L26 45L25 45L25 46L24 46L24 47L23 47L23 48L21 48L21 50L22 50L22 49L23 49L23 51L22 51L22 54L23 54L23 52L24 52L24 53L25 53L25 54L26 54L26 53L25 53L25 52L26 52L26 49L25 49L25 48L24 48L24 47L26 47L26 48L28 48L28 46L29 46L29 48L31 48L31 47L32 47L32 49L33 49L33 50L32 50L32 51L31 51L31 53L32 53L32 51L33 51L33 50L34 50L34 52L33 52L33 53L34 53L34 52L35 52L35 53L36 53L36 54L37 54L37 51L36 51L36 52L35 52L35 48L37 48L37 49L36 49L36 50L37 50L37 49L38 49L38 48L39 48L39 49L40 49L40 50L39 50L39 51L38 51L38 52L40 52L40 54L41 54L41 53L42 53L42 54L43 54L43 50L44 50L44 49L45 49L45 48L44 48L44 49L43 49L43 47L40 47L40 46L39 46L39 45L38 45L38 44L41 44L41 43L42 43L42 45L45 45L45 47L46 47L46 48L47 48L47 49L46 49L46 50L47 50L47 52L48 52L48 48L47 48L47 47L46 47L46 46L47 46L47 45L49 45L49 46L48 46L48 47L49 47L49 48L51 48L51 47L49 47L49 46L51 46L51 42L50 42L50 41L52 41L52 40L50 40L50 41L47 41L47 42L45 42L45 41L46 41L46 39L45 39L45 36L46 36L46 38L47 38L47 37L50 37L50 39L51 39L51 37L52 37L52 39L54 39L54 38L55 38L55 37L54 37L54 38L53 38L53 36L52 36L52 35L51 35L51 37L50 37L50 36L49 36L49 35L48 35L48 36L47 36L47 34L50 34L50 33L49 33L49 32L51 32L51 31L49 31L49 32L48 32L48 30L47 30L47 31L46 31L46 32L45 32L45 30L46 30L46 26L49 26L49 25L50 25L50 24L49 24L49 25L47 25L47 24L46 24L46 23L43 23L43 22L41 22L41 23L40 23L40 26L38 26L38 27L41 27L41 23L42 23L42 24L44 24L44 25L42 25L42 26L45 26L45 29L42 29L42 30L40 30L40 29L41 29L41 28L40 28L40 29L38 29L38 30L37 30L37 27L36 27L36 28L34 28L34 29L36 29L36 31L37 31L37 32L36 32L36 33L37 33L37 32L38 32L38 34L39 34L39 31L40 31L40 32L41 32L41 31L44 31L44 33L45 33L45 36L44 36L44 37L43 37L43 35L44 35L44 34L43 34L43 35L42 35L42 34L41 34L41 35L39 35L39 36L40 36L40 37L41 37L41 39L40 39L40 41L37 41L37 40L38 40L38 39L39 39L39 38L37 38L37 37L38 37L38 36L37 36L37 37L35 37L35 36L36 36L36 35L35 35L35 31L34 31L34 33L33 33L33 32L31 32L31 33L32 33L32 35L31 35L31 34L30 34L30 35L29 35L29 33L30 33L30 31L28 31L28 33L27 33L27 31L25 31L25 30L26 30L26 28L25 28L25 25L27 25L27 26L28 26L28 25L29 25L29 26L31 26L31 25L29 25L29 24L30 24L30 22L29 22L29 21L28 21L28 23L29 23L29 24L26 24L26 23L27 23L27 22L25 22L25 19L28 19L28 20L29 20L29 19L28 19L28 18L29 18L29 17L27 17L27 15L26 15L26 16L25 16L25 17L24 17L24 18L23 18L23 21L24 21L24 22L25 22L25 25L24 25L24 24L22 24L22 25L23 25L23 26L24 26L24 28L23 28L23 27L22 27L22 26L21 26L21 27L20 27L20 25L17 25L17 24L19 24L19 22L21 22L21 20L22 20L22 19L21 19L21 20L18 20L18 19L17 19L17 18L16 18L16 19L15 19L15 17L11 17L11 16L12 16L12 15L14 15L14 16L15 16L15 15L14 15L14 13L13 13L13 10L12 10L12 9L10 9L10 8L11 8L11 7L10 7L10 6ZM17 6L17 7L18 7L18 6ZM19 6L19 7L20 7L20 6ZM21 6L21 7L22 7L22 6ZM24 6L24 7L25 7L25 6ZM28 6L28 7L29 7L29 6ZM15 8L15 9L16 9L16 8ZM18 8L18 9L19 9L19 8ZM41 8L41 9L42 9L42 8ZM1 9L1 10L2 10L2 9ZM46 9L46 10L47 10L47 11L48 11L48 10L47 10L47 9ZM3 10L3 11L4 11L4 10ZM42 11L42 12L43 12L43 13L44 13L44 12L43 12L43 11ZM50 12L50 13L51 13L51 12ZM8 13L8 14L9 14L9 13ZM39 14L39 15L40 15L40 14ZM16 15L16 16L17 16L17 15ZM28 15L28 16L29 16L29 15ZM9 16L9 17L7 17L7 18L6 18L6 19L5 19L5 20L6 20L6 21L7 21L7 20L10 20L10 21L13 21L13 22L14 22L14 23L12 23L12 22L11 22L11 23L12 23L12 27L10 27L10 29L12 29L12 27L13 27L13 30L12 30L12 31L11 31L11 32L10 32L10 34L9 34L9 32L8 32L8 33L7 33L7 34L8 34L8 35L7 35L7 36L8 36L8 35L10 35L10 34L14 34L14 33L15 33L15 32L13 32L13 31L16 31L16 32L17 32L17 34L18 34L18 32L19 32L19 31L20 31L20 32L21 32L21 34L20 34L20 33L19 33L19 34L20 34L20 35L18 35L18 36L17 36L17 35L16 35L16 34L15 34L15 35L16 35L16 36L17 36L17 37L19 37L19 36L23 36L23 37L22 37L22 40L23 40L23 39L24 39L24 37L26 37L26 38L25 38L25 39L27 39L27 40L26 40L26 41L25 41L25 42L29 42L29 43L27 43L27 44L28 44L28 45L29 45L29 46L30 46L30 44L31 44L31 43L32 43L32 42L33 42L33 45L32 45L32 46L33 46L33 45L34 45L34 44L35 44L35 46L34 46L34 47L33 47L33 48L35 48L35 47L36 47L36 46L37 46L37 47L38 47L38 45L36 45L36 43L34 43L34 42L36 42L36 41L34 41L34 40L35 40L35 39L36 39L36 38L35 38L35 39L34 39L34 38L32 38L32 36L34 36L34 35L32 35L32 36L29 36L29 35L28 35L28 34L27 34L27 33L26 33L26 34L27 34L27 35L26 35L26 36L23 36L23 35L24 35L24 34L25 34L25 31L24 31L24 29L21 29L21 30L20 30L20 28L18 28L18 29L19 29L19 30L18 30L18 31L17 31L17 28L14 28L14 26L15 26L15 27L16 27L16 23L17 23L17 22L19 22L19 21L18 21L18 20L17 20L17 19L16 19L16 23L15 23L15 22L14 22L14 20L15 20L15 19L11 19L11 20L10 20L10 16ZM52 16L52 17L53 17L53 18L54 18L54 17L55 17L55 16ZM25 17L25 18L24 18L24 19L25 19L25 18L27 18L27 17ZM36 17L36 18L37 18L37 17ZM7 18L7 19L6 19L6 20L7 20L7 19L8 19L8 18ZM41 18L41 19L42 19L42 18ZM2 20L2 21L3 21L3 20ZM26 20L26 21L27 21L27 20ZM41 20L41 21L42 21L42 20ZM54 20L54 21L55 21L55 20ZM56 20L56 22L55 22L55 23L57 23L57 20ZM1 22L1 23L3 23L3 22ZM22 22L22 23L23 23L23 22ZM14 23L14 24L13 24L13 25L15 25L15 23ZM20 23L20 24L21 24L21 23ZM2 24L2 25L3 25L3 24ZM6 24L6 25L7 25L7 24ZM32 24L32 25L33 25L33 24ZM45 24L45 26L46 26L46 24ZM55 24L55 25L56 25L56 24ZM34 25L34 27L35 27L35 25ZM17 26L17 27L19 27L19 26ZM5 27L5 30L8 30L8 27ZM27 27L27 30L30 30L30 27ZM31 27L31 28L33 28L33 27ZM42 27L42 28L43 28L43 27ZM49 27L49 30L52 30L52 27ZM6 28L6 29L7 29L7 28ZM28 28L28 29L29 29L29 28ZM47 28L47 29L48 29L48 28ZM50 28L50 29L51 29L51 28ZM53 28L53 29L54 29L54 30L53 30L53 31L52 31L52 34L54 34L54 32L55 32L55 30L56 30L56 29L54 29L54 28ZM14 29L14 30L16 30L16 29ZM31 29L31 31L32 31L32 29ZM2 30L2 32L3 32L3 31L4 31L4 30ZM21 30L21 32L22 32L22 31L23 31L23 33L22 33L22 34L21 34L21 35L22 35L22 34L23 34L23 33L24 33L24 31L23 31L23 30ZM38 30L38 31L39 31L39 30ZM42 32L42 33L43 33L43 32ZM46 32L46 33L47 33L47 32ZM0 34L0 35L1 35L1 34ZM54 35L54 36L55 36L55 35ZM3 36L3 37L5 37L5 36ZM27 36L27 38L29 38L29 36ZM1 38L1 39L0 39L0 41L1 41L1 42L2 42L2 41L1 41L1 40L2 40L2 38ZM12 38L12 39L13 39L13 38ZM30 38L30 39L28 39L28 41L29 41L29 42L31 42L31 41L29 41L29 40L33 40L33 39L32 39L32 38ZM42 38L42 39L41 39L41 42L37 42L37 44L38 44L38 43L41 43L41 42L42 42L42 43L43 43L43 44L49 44L49 43L50 43L50 42L47 42L47 43L44 43L44 42L42 42L42 40L43 40L43 41L45 41L45 39L44 39L44 38ZM47 39L47 40L49 40L49 39ZM7 40L7 41L8 41L8 40ZM56 40L56 41L57 41L57 40ZM13 43L13 45L14 45L14 47L12 47L12 48L11 48L11 47L10 47L10 48L11 48L11 49L12 49L12 48L14 48L14 47L15 47L15 45L16 45L16 44L17 44L17 43ZM19 43L19 45L17 45L17 47L18 47L18 46L20 46L20 45L21 45L21 46L22 46L22 44L21 44L21 43ZM14 44L14 45L15 45L15 44ZM26 45L26 46L27 46L27 45ZM56 45L56 46L55 46L55 47L57 47L57 45ZM1 46L1 47L2 47L2 46ZM23 48L23 49L24 49L24 48ZM41 48L41 49L42 49L42 48ZM27 49L27 52L30 52L30 49ZM49 49L49 52L52 52L52 49ZM24 50L24 51L25 51L25 50ZM28 50L28 51L29 51L29 50ZM50 50L50 51L51 51L51 50ZM40 51L40 52L42 52L42 51ZM55 51L55 52L54 52L54 53L55 53L55 52L56 52L56 51ZM45 52L45 53L46 53L46 52ZM20 53L20 55L21 55L21 56L22 56L22 55L21 55L21 53ZM38 53L38 54L39 54L39 53ZM47 53L47 54L50 54L50 53ZM44 54L44 55L45 55L45 54ZM27 55L27 56L28 56L28 55ZM41 55L41 56L42 56L42 55ZM56 55L56 56L57 56L57 55ZM52 56L52 57L53 57L53 56ZM54 56L54 57L55 57L55 56ZM0 0L0 7L7 7L7 0ZM1 1L1 6L6 6L6 1ZM2 2L2 5L5 5L5 2ZM50 0L50 7L57 7L57 0ZM51 1L51 6L56 6L56 1ZM52 2L52 5L55 5L55 2ZM0 50L0 57L7 57L7 50ZM1 51L1 56L6 56L6 51ZM2 52L2 55L5 55L5 52Z" fill="#000000"/></g></g></svg>
