<?xml version="1.0" encoding="UTF-8"?>
<svg xmlns="http://www.w3.org/2000/svg" version="1.1" width="300" height="300" viewBox="0 0 300 300"><rect x="0" y="0" width="300" height="300" fill="#fefefe"/><g transform="scale(4.615)"><g transform="translate(4,4)"><path fill-rule="evenodd" d="M8 0L8 4L9 4L9 5L8 5L8 7L9 7L9 5L10 5L10 7L11 7L11 6L12 6L12 9L11 9L11 8L9 8L9 10L6 10L6 11L9 11L9 12L8 12L8 13L9 13L9 14L6 14L6 13L7 13L7 12L5 12L5 9L7 9L7 8L4 8L4 12L3 12L3 13L1 13L1 12L2 12L2 8L0 8L0 11L1 11L1 12L0 12L0 13L1 13L1 14L0 14L0 15L1 15L1 14L2 14L2 17L4 17L4 18L3 18L3 19L4 19L4 21L3 21L3 20L2 20L2 19L1 19L1 17L0 17L0 19L1 19L1 20L2 20L2 21L0 21L0 22L1 22L1 24L0 24L0 25L1 25L1 24L2 24L2 25L3 25L3 24L2 24L2 21L3 21L3 22L6 22L6 23L7 23L7 24L6 24L6 25L7 25L7 26L4 26L4 27L2 27L2 28L1 28L1 26L0 26L0 29L2 29L2 28L3 28L3 29L4 29L4 31L7 31L7 32L6 32L6 33L7 33L7 34L6 34L6 35L5 35L5 37L7 37L7 38L3 38L3 37L0 37L0 43L2 43L2 42L3 42L3 44L4 44L4 40L5 40L5 39L7 39L7 40L6 40L6 41L5 41L5 44L6 44L6 45L7 45L7 44L8 44L8 45L10 45L10 47L9 47L9 46L8 46L8 47L9 47L9 48L8 48L8 50L9 50L9 51L8 51L8 53L10 53L10 55L8 55L8 57L10 57L10 55L11 55L11 54L13 54L13 55L16 55L16 54L17 54L17 57L20 57L20 56L19 56L19 55L20 55L20 54L21 54L21 57L22 57L22 54L23 54L23 55L24 55L24 56L23 56L23 57L25 57L25 55L26 55L26 54L27 54L27 53L28 53L28 57L29 57L29 55L30 55L30 57L34 57L34 53L33 53L33 51L34 51L34 52L35 52L35 57L37 57L37 56L36 56L36 54L37 54L37 53L38 53L38 55L40 55L40 56L39 56L39 57L40 57L40 56L41 56L41 57L43 57L43 56L44 56L44 57L45 57L45 56L44 56L44 53L45 53L45 55L46 55L46 56L48 56L48 57L50 57L50 55L51 55L51 56L53 56L53 57L54 57L54 55L53 55L53 50L54 50L54 51L55 51L55 52L54 52L54 54L57 54L57 53L55 53L55 52L56 52L56 51L55 51L55 49L56 49L56 44L57 44L57 43L56 43L56 42L57 42L57 40L53 40L53 39L57 39L57 38L52 38L52 36L53 36L53 37L57 37L57 36L56 36L56 34L57 34L57 33L56 33L56 30L55 30L55 29L54 29L54 28L53 28L53 27L54 27L54 26L55 26L55 27L56 27L56 29L57 29L57 27L56 27L56 25L57 25L57 24L56 24L56 20L57 20L57 19L56 19L56 20L55 20L55 22L53 22L53 21L52 21L52 20L53 20L53 19L52 19L52 16L53 16L53 17L55 17L55 16L56 16L56 17L57 17L57 15L56 15L56 12L57 12L57 11L56 11L56 10L57 10L57 8L53 8L53 9L52 9L52 8L51 8L51 9L50 9L50 10L49 10L49 6L48 6L48 7L47 7L47 5L48 5L48 0L41 0L41 1L40 1L40 2L39 2L39 3L40 3L40 4L38 4L38 5L36 5L36 4L35 4L35 5L34 5L34 3L35 3L35 2L36 2L36 3L38 3L38 1L39 1L39 0L38 0L38 1L37 1L37 2L36 2L36 0L35 0L35 1L34 1L34 0L32 0L32 3L31 3L31 0L28 0L28 1L27 1L27 0L26 0L26 1L25 1L25 0L23 0L23 3L21 3L21 2L22 2L22 1L21 1L21 0L20 0L20 1L19 1L19 0L18 0L18 3L19 3L19 2L20 2L20 3L21 3L21 5L22 5L22 7L21 7L21 6L20 6L20 5L19 5L19 4L17 4L17 3L16 3L16 2L17 2L17 1L16 1L16 0L13 0L13 5L12 5L12 3L11 3L11 2L12 2L12 0ZM9 1L9 4L10 4L10 5L11 5L11 3L10 3L10 2L11 2L11 1ZM14 1L14 4L15 4L15 5L16 5L16 6L15 6L15 7L14 7L14 6L13 6L13 10L14 10L14 8L15 8L15 7L16 7L16 6L17 6L17 7L18 7L18 6L19 6L19 7L20 7L20 6L19 6L19 5L18 5L18 6L17 6L17 4L16 4L16 3L15 3L15 1ZM20 1L20 2L21 2L21 1ZM26 1L26 2L25 2L25 3L23 3L23 5L24 5L24 4L25 4L25 3L26 3L26 4L28 4L28 2L29 2L29 1L28 1L28 2L27 2L27 1ZM33 1L33 3L32 3L32 5L33 5L33 7L32 7L32 6L31 6L31 10L30 10L30 11L31 11L31 12L29 12L29 11L28 11L28 12L27 12L27 11L26 11L26 13L25 13L25 14L26 14L26 13L29 13L29 16L31 16L31 18L32 18L32 19L34 19L34 20L36 20L36 19L34 19L34 18L37 18L37 19L39 19L39 18L40 18L40 21L39 21L39 22L38 22L38 20L37 20L37 22L35 22L35 21L34 21L34 22L31 22L31 27L32 27L32 28L31 28L31 29L32 29L32 28L33 28L33 27L34 27L34 31L32 31L32 30L31 30L31 31L32 31L32 32L30 32L30 31L29 31L29 33L28 33L28 34L27 34L27 35L26 35L26 34L24 34L24 36L25 36L25 35L26 35L26 36L28 36L28 37L26 37L26 38L24 38L24 37L23 37L23 36L22 36L22 35L23 35L23 33L26 33L26 32L23 32L23 31L24 31L24 30L23 30L23 29L25 29L25 30L26 30L26 29L25 29L25 27L26 27L26 25L25 25L25 27L24 27L24 26L23 26L23 28L22 28L22 27L21 27L21 26L20 26L20 27L19 27L19 28L18 28L18 29L14 29L14 28L13 28L13 30L12 30L12 29L10 29L10 26L11 26L11 28L12 28L12 27L13 27L13 26L11 26L11 24L12 24L12 25L16 25L16 28L17 28L17 27L18 27L18 25L17 25L17 22L16 22L16 23L15 23L15 24L13 24L13 23L11 23L11 24L10 24L10 23L9 23L9 22L14 22L14 21L13 21L13 19L14 19L14 20L15 20L15 21L17 21L17 20L18 20L18 19L19 19L19 18L20 18L20 16L21 16L21 17L25 17L25 18L24 18L24 19L23 19L23 18L22 18L22 19L21 19L21 20L22 20L22 21L21 21L21 22L20 22L20 23L19 23L19 25L21 25L21 24L22 24L22 25L24 25L24 23L23 23L23 24L22 24L22 22L23 22L23 21L24 21L24 22L25 22L25 23L26 23L26 22L27 22L27 25L29 25L29 23L30 23L30 21L29 21L29 20L31 20L31 21L32 21L32 20L31 20L31 19L30 19L30 18L28 18L28 17L26 17L26 16L27 16L27 15L28 15L28 14L27 14L27 15L26 15L26 16L25 16L25 15L24 15L24 16L22 16L22 15L23 15L23 13L24 13L24 11L23 11L23 7L24 7L24 9L25 9L25 10L27 10L27 9L26 9L26 6L25 6L25 7L24 7L24 6L23 6L23 7L22 7L22 10L21 10L21 11L19 11L19 10L20 10L20 9L18 9L18 11L16 11L16 10L17 10L17 9L15 9L15 11L16 11L16 12L17 12L17 13L15 13L15 12L14 12L14 11L13 11L13 12L12 12L12 10L11 10L11 9L10 9L10 12L9 12L9 13L10 13L10 14L11 14L11 16L12 16L12 18L11 18L11 17L10 17L10 16L9 16L9 15L6 15L6 16L5 16L5 18L4 18L4 19L5 19L5 21L6 21L6 22L7 22L7 23L8 23L8 24L7 24L7 25L8 25L8 26L9 26L9 30L12 30L12 32L13 32L13 33L10 33L10 34L11 34L11 36L10 36L10 37L9 37L9 38L7 38L7 39L8 39L8 41L6 41L6 42L7 42L7 43L6 43L6 44L7 44L7 43L8 43L8 44L10 44L10 43L9 43L9 41L10 41L10 42L11 42L11 46L12 46L12 47L13 47L13 48L12 48L12 49L11 49L11 47L10 47L10 48L9 48L9 50L10 50L10 49L11 49L11 51L9 51L9 52L10 52L10 53L12 53L12 52L14 52L14 51L15 51L15 53L17 53L17 50L18 50L18 49L17 49L17 48L16 48L16 51L15 51L15 49L14 49L14 47L13 47L13 46L14 46L14 45L15 45L15 44L16 44L16 46L15 46L15 47L16 47L16 46L17 46L17 47L18 47L18 48L22 48L22 49L21 49L21 50L20 50L20 49L19 49L19 50L20 50L20 51L22 51L22 49L23 49L23 48L24 48L24 49L25 49L25 48L24 48L24 47L23 47L23 45L25 45L25 43L27 43L27 41L28 41L28 46L27 46L27 45L26 45L26 46L25 46L25 47L26 47L26 48L27 48L27 47L28 47L28 46L29 46L29 48L31 48L31 49L32 49L32 48L33 48L33 46L32 46L32 47L31 47L31 46L29 46L29 45L32 45L32 43L33 43L33 44L35 44L35 43L33 43L33 41L32 41L32 40L33 40L33 39L34 39L34 42L35 42L35 39L37 39L37 42L38 42L38 39L39 39L39 40L40 40L40 41L39 41L39 44L37 44L37 43L36 43L36 44L37 44L37 46L38 46L38 45L39 45L39 47L38 47L38 49L37 49L37 52L38 52L38 53L39 53L39 52L40 52L40 53L41 53L41 46L40 46L40 45L41 45L41 44L40 44L40 42L41 42L41 43L42 43L42 44L43 44L43 46L44 46L44 44L45 44L45 45L46 45L46 47L42 47L42 49L43 49L43 50L42 50L42 51L44 51L44 50L45 50L45 49L44 49L44 48L46 48L46 52L45 52L45 53L46 53L46 55L49 55L49 54L51 54L51 55L52 55L52 54L51 54L51 53L49 53L49 54L47 54L47 53L48 53L48 52L47 52L47 49L48 49L48 47L49 47L49 46L50 46L50 47L51 47L51 48L52 48L52 47L51 47L51 45L52 45L52 46L54 46L54 47L53 47L53 49L55 49L55 44L56 44L56 43L55 43L55 42L54 42L54 43L53 43L53 41L52 41L52 40L47 40L47 39L48 39L48 38L47 38L47 37L48 37L48 36L47 36L47 35L46 35L46 34L48 34L48 35L49 35L49 39L52 39L52 38L50 38L50 37L51 37L51 36L50 36L50 35L53 35L53 36L55 36L55 35L53 35L53 34L54 34L54 33L51 33L51 32L52 32L52 31L51 31L51 32L50 32L50 35L49 35L49 33L48 33L48 31L47 31L47 29L48 29L48 27L45 27L45 30L44 30L44 28L42 28L42 25L41 25L41 23L43 23L43 25L44 25L44 24L45 24L45 25L46 25L46 26L47 26L47 25L49 25L49 26L50 26L50 25L51 25L51 26L53 26L53 25L56 25L56 24L55 24L55 23L53 23L53 22L52 22L52 21L51 21L51 20L49 20L49 19L51 19L51 18L50 18L50 17L51 17L51 16L52 16L52 15L53 15L53 16L55 16L55 15L53 15L53 14L54 14L54 13L55 13L55 12L56 12L56 11L55 11L55 10L56 10L56 9L53 9L53 10L54 10L54 11L52 11L52 12L51 12L51 14L52 14L52 15L50 15L50 11L51 11L51 10L50 10L50 11L49 11L49 12L48 12L48 11L47 11L47 9L48 9L48 8L47 8L47 7L46 7L46 6L45 6L45 8L46 8L46 9L44 9L44 10L45 10L45 11L43 11L43 10L41 10L41 9L43 9L43 7L44 7L44 4L45 4L45 5L47 5L47 3L44 3L44 2L43 2L43 3L44 3L44 4L43 4L43 5L42 5L42 6L41 6L41 5L39 5L39 8L38 8L38 6L37 6L37 8L38 8L38 9L35 9L35 7L36 7L36 5L35 5L35 7L34 7L34 5L33 5L33 3L34 3L34 1ZM45 1L45 2L47 2L47 1ZM40 2L40 3L42 3L42 2ZM27 5L27 8L30 8L30 5ZM28 6L28 7L29 7L29 6ZM40 6L40 8L39 8L39 9L38 9L38 11L37 11L37 12L35 12L35 11L36 11L36 10L34 10L34 9L33 9L33 8L34 8L34 7L33 7L33 8L32 8L32 13L30 13L30 15L31 15L31 16L32 16L32 18L34 18L34 13L33 13L33 10L34 10L34 12L35 12L35 13L36 13L36 14L37 14L37 12L39 12L39 11L41 11L41 12L43 12L43 11L41 11L41 10L39 10L39 9L40 9L40 8L42 8L42 7L43 7L43 6L42 6L42 7L41 7L41 6ZM28 9L28 10L29 10L29 9ZM21 11L21 12L20 12L20 14L19 14L19 12L18 12L18 13L17 13L17 14L15 14L15 13L13 13L13 14L12 14L12 16L14 16L14 17L13 17L13 18L14 18L14 17L15 17L15 19L16 19L16 20L17 20L17 19L16 19L16 17L15 17L15 16L17 16L17 18L19 18L19 16L18 16L18 15L22 15L22 14L21 14L21 13L23 13L23 12L22 12L22 11ZM45 11L45 12L44 12L44 13L41 13L41 17L40 17L40 13L38 13L38 15L39 15L39 17L38 17L38 16L37 16L37 15L35 15L35 17L38 17L38 18L39 18L39 17L40 17L40 18L41 18L41 20L43 20L43 19L42 19L42 18L43 18L43 17L42 17L42 15L43 15L43 16L44 16L44 22L43 22L43 21L40 21L40 22L43 22L43 23L44 23L44 22L46 22L46 20L47 20L47 19L46 19L46 17L47 17L47 18L48 18L48 19L49 19L49 16L50 16L50 15L48 15L48 17L47 17L47 15L46 15L46 11ZM4 12L4 13L5 13L5 12ZM10 12L10 13L12 13L12 12ZM53 12L53 13L52 13L52 14L53 14L53 13L54 13L54 12ZM32 13L32 14L31 14L31 15L32 15L32 16L33 16L33 15L32 15L32 14L33 14L33 13ZM47 13L47 14L49 14L49 13ZM13 14L13 15L14 15L14 16L15 16L15 15L14 15L14 14ZM43 14L43 15L44 15L44 16L45 16L45 17L46 17L46 16L45 16L45 15L44 15L44 14ZM3 15L3 16L4 16L4 15ZM6 16L6 17L7 17L7 16ZM8 17L8 18L5 18L5 19L8 19L8 18L9 18L9 19L10 19L10 21L12 21L12 20L11 20L11 18L9 18L9 17ZM25 18L25 20L24 20L24 21L25 21L25 20L26 20L26 21L27 21L27 22L28 22L28 20L29 20L29 19L27 19L27 20L26 20L26 18ZM22 19L22 20L23 20L23 19ZM6 20L6 21L8 21L8 22L9 22L9 21L8 21L8 20ZM19 20L19 21L18 21L18 22L19 22L19 21L20 21L20 20ZM47 21L47 22L50 22L50 23L45 23L45 24L46 24L46 25L47 25L47 24L50 24L50 23L51 23L51 25L52 25L52 22L51 22L51 21ZM34 22L34 23L32 23L32 27L33 27L33 26L34 26L34 25L37 25L37 24L34 24L34 23L35 23L35 22ZM38 23L38 26L40 26L40 27L37 27L37 26L36 26L36 27L35 27L35 30L36 30L36 31L34 31L34 33L35 33L35 38L34 38L34 35L32 35L32 34L33 34L33 32L32 32L32 34L31 34L31 33L29 33L29 34L28 34L28 36L29 36L29 37L31 37L31 36L32 36L32 37L33 37L33 38L31 38L31 39L29 39L29 38L28 38L28 39L27 39L27 38L26 38L26 40L25 40L25 41L24 41L24 39L22 39L22 38L23 38L23 37L22 37L22 36L21 36L21 33L22 33L22 31L23 31L23 30L22 30L22 29L21 29L21 28L20 28L20 30L22 30L22 31L20 31L20 32L19 32L19 31L17 31L17 30L14 30L14 31L13 31L13 32L15 32L15 31L16 31L16 32L17 32L17 33L18 33L18 34L17 34L17 35L16 35L16 33L15 33L15 34L14 34L14 35L16 35L16 36L13 36L13 35L12 35L12 36L11 36L11 37L10 37L10 38L9 38L9 39L10 39L10 41L11 41L11 42L13 42L13 43L12 43L12 44L14 44L14 42L13 42L13 41L15 41L15 42L16 42L16 43L18 43L18 41L19 41L19 40L20 40L20 42L19 42L19 44L18 44L18 45L17 45L17 46L19 46L19 44L21 44L21 45L20 45L20 47L22 47L22 48L23 48L23 47L22 47L22 46L21 46L21 45L23 45L23 44L22 44L22 43L20 43L20 42L22 42L22 40L23 40L23 42L26 42L26 41L27 41L27 40L28 40L28 41L29 41L29 42L31 42L31 43L32 43L32 41L31 41L31 39L33 39L33 38L34 38L34 39L35 39L35 38L37 38L37 39L38 39L38 38L40 38L40 40L42 40L42 41L41 41L41 42L43 42L43 40L44 40L44 43L43 43L43 44L44 44L44 43L45 43L45 42L46 42L46 43L47 43L47 44L46 44L46 45L47 45L47 44L49 44L49 45L48 45L48 46L49 46L49 45L51 45L51 43L52 43L52 44L53 44L53 45L54 45L54 44L53 44L53 43L52 43L52 41L51 41L51 43L50 43L50 42L49 42L49 41L48 41L48 43L47 43L47 42L46 42L46 41L47 41L47 40L46 40L46 41L45 41L45 39L43 39L43 38L44 38L44 37L45 37L45 38L46 38L46 39L47 39L47 38L46 38L46 37L45 37L45 36L46 36L46 35L44 35L44 34L46 34L46 33L47 33L47 32L46 32L46 33L45 33L45 31L46 31L46 30L45 30L45 31L44 31L44 30L43 30L43 29L40 29L40 28L41 28L41 26L40 26L40 25L39 25L39 23ZM9 24L9 25L10 25L10 24ZM33 24L33 25L34 25L34 24ZM14 26L14 27L15 27L15 26ZM43 26L43 27L44 27L44 26ZM5 27L5 30L8 30L8 27ZM27 27L27 30L30 30L30 27ZM36 27L36 28L37 28L37 29L36 29L36 30L37 30L37 32L38 32L38 30L37 30L37 29L38 29L38 28L37 28L37 27ZM49 27L49 30L52 30L52 27ZM6 28L6 29L7 29L7 28ZM28 28L28 29L29 29L29 28ZM46 28L46 29L47 29L47 28ZM50 28L50 29L51 29L51 28ZM18 29L18 30L19 30L19 29ZM1 30L1 31L0 31L0 33L1 33L1 32L2 32L2 33L3 33L3 35L4 35L4 34L5 34L5 33L3 33L3 31L2 31L2 30ZM39 30L39 32L40 32L40 33L39 33L39 34L38 34L38 33L37 33L37 34L38 34L38 36L39 36L39 37L41 37L41 35L42 35L42 34L40 34L40 33L41 33L41 32L40 32L40 30ZM53 30L53 32L55 32L55 30ZM9 31L9 32L7 32L7 33L8 33L8 35L6 35L6 36L7 36L7 37L8 37L8 36L9 36L9 32L10 32L10 31ZM27 31L27 32L28 32L28 31ZM19 33L19 35L18 35L18 36L20 36L20 33ZM43 33L43 34L44 34L44 33ZM55 33L55 34L56 34L56 33ZM0 34L0 36L1 36L1 35L2 35L2 34ZM30 34L30 36L31 36L31 34ZM39 35L39 36L40 36L40 35ZM43 35L43 37L44 37L44 35ZM16 36L16 37L11 37L11 38L12 38L12 39L11 39L11 40L12 40L12 41L13 41L13 40L12 40L12 39L16 39L16 38L17 38L17 40L19 40L19 39L20 39L20 38L22 38L22 37L19 37L19 38L17 38L17 36ZM37 37L37 38L38 38L38 37ZM2 38L2 40L1 40L1 41L2 41L2 40L4 40L4 39L3 39L3 38ZM41 38L41 39L42 39L42 40L43 40L43 39L42 39L42 38ZM15 40L15 41L16 41L16 42L17 42L17 41L16 41L16 40ZM29 40L29 41L30 41L30 40ZM49 43L49 44L50 44L50 43ZM39 44L39 45L40 45L40 44ZM0 45L0 48L5 48L5 47L7 47L7 46L5 46L5 47L3 47L3 46L2 46L2 45ZM12 45L12 46L13 46L13 45ZM34 45L34 47L35 47L35 46L36 46L36 45ZM1 46L1 47L2 47L2 46ZM26 46L26 47L27 47L27 46ZM36 47L36 48L37 48L37 47ZM39 47L39 49L38 49L38 52L39 52L39 51L40 51L40 47ZM46 47L46 48L47 48L47 47ZM6 48L6 49L7 49L7 48ZM34 48L34 51L35 51L35 52L36 52L36 49L35 49L35 48ZM13 49L13 50L12 50L12 51L14 51L14 49ZM27 49L27 52L30 52L30 49ZM49 49L49 52L52 52L52 49ZM25 50L25 53L24 53L24 52L21 52L21 53L24 53L24 54L25 54L25 53L26 53L26 50ZM28 50L28 51L29 51L29 50ZM31 50L31 52L32 52L32 50ZM50 50L50 51L51 51L51 50ZM18 51L18 52L19 52L19 53L20 53L20 52L19 52L19 51ZM43 52L43 53L44 53L44 52ZM46 52L46 53L47 53L47 52ZM13 53L13 54L14 54L14 53ZM30 53L30 54L31 54L31 53ZM32 53L32 54L33 54L33 53ZM40 54L40 55L41 55L41 54ZM42 54L42 55L43 55L43 54ZM26 56L26 57L27 57L27 56ZM56 56L56 57L57 57L57 56ZM0 0L0 7L7 7L7 0ZM1 1L1 6L6 6L6 1ZM2 2L2 5L5 5L5 2ZM50 0L50 7L57 7L57 0ZM51 1L51 6L56 6L56 1ZM52 2L52 5L55 5L55 2ZM0 50L0 57L7 57L7 50ZM1 51L1 56L6 56L6 51ZM2 52L2 55L5 55L5 52Z" fill="#000000"/></g></g></svg>
