<?xml version="1.0" encoding="UTF-8"?>
<svg xmlns="http://www.w3.org/2000/svg" version="1.1" width="300" height="300" viewBox="0 0 300 300"><rect x="0" y="0" width="300" height="300" fill="#fefefe"/><g transform="scale(4.615)"><g transform="translate(4,4)"><path fill-rule="evenodd" d="M9 0L9 1L8 1L8 2L9 2L9 3L8 3L8 4L10 4L10 3L11 3L11 2L12 2L12 3L13 3L13 4L14 4L14 2L15 2L15 3L16 3L16 2L17 2L17 4L19 4L19 5L20 5L20 7L19 7L19 6L18 6L18 7L17 7L17 6L16 6L16 7L15 7L15 5L16 5L16 4L15 4L15 5L14 5L14 7L15 7L15 9L17 9L17 10L13 10L13 9L14 9L14 8L12 8L12 7L13 7L13 5L12 5L12 7L11 7L11 5L10 5L10 8L6 8L6 9L10 9L10 10L11 10L11 11L10 11L10 12L11 12L11 13L12 13L12 12L13 12L13 13L15 13L15 14L11 14L11 15L13 15L13 17L14 17L14 18L15 18L15 19L16 19L16 18L15 18L15 17L16 17L16 13L17 13L17 14L18 14L18 15L17 15L17 18L19 18L19 20L18 20L18 19L17 19L17 20L18 20L18 21L16 21L16 20L15 20L15 21L16 21L16 22L14 22L14 21L12 21L12 19L13 19L13 20L14 20L14 19L13 19L13 18L11 18L11 16L10 16L10 18L8 18L8 19L7 19L7 18L6 18L6 17L7 17L7 16L9 16L9 14L10 14L10 13L9 13L9 14L8 14L8 12L9 12L9 11L8 11L8 10L5 10L5 8L0 8L0 9L1 9L1 10L0 10L0 11L1 11L1 12L0 12L0 13L1 13L1 12L2 12L2 13L3 13L3 11L2 11L2 10L3 10L3 9L4 9L4 14L0 14L0 15L7 15L7 16L5 16L5 17L4 17L4 16L2 16L2 18L0 18L0 20L1 20L1 22L2 22L2 24L0 24L0 25L1 25L1 26L0 26L0 27L1 27L1 28L0 28L0 29L1 29L1 28L3 28L3 33L2 33L2 32L1 32L1 31L2 31L2 30L0 30L0 32L1 32L1 34L0 34L0 36L1 36L1 38L0 38L0 39L1 39L1 40L2 40L2 41L1 41L1 44L0 44L0 45L1 45L1 46L0 46L0 48L5 48L5 47L7 47L7 48L6 48L6 49L8 49L8 51L10 51L10 50L11 50L11 51L12 51L12 53L13 53L13 54L12 54L12 55L11 55L11 52L8 52L8 57L10 57L10 56L12 56L12 55L16 55L16 56L13 56L13 57L16 57L16 56L17 56L17 57L19 57L19 55L20 55L20 54L19 54L19 53L20 53L20 52L21 52L21 50L25 50L25 51L26 51L26 52L24 52L24 53L21 53L21 54L22 54L22 55L23 55L23 57L26 57L26 56L27 56L27 57L29 57L29 56L30 56L30 57L31 57L31 56L35 56L35 57L39 57L39 56L40 56L40 55L41 55L41 57L44 57L44 56L45 56L45 57L47 57L47 55L49 55L49 56L50 56L50 57L52 57L52 55L51 55L51 53L52 53L52 54L54 54L54 55L53 55L53 56L55 56L55 57L56 57L56 56L55 56L55 54L54 54L54 53L55 53L55 51L56 51L56 53L57 53L57 51L56 51L56 50L57 50L57 48L56 48L56 46L57 46L57 43L56 43L56 41L53 41L53 40L55 40L55 39L57 39L57 35L56 35L56 34L57 34L57 32L56 32L56 30L57 30L57 29L55 29L55 30L54 30L54 28L56 28L56 27L55 27L55 26L57 26L57 25L56 25L56 22L57 22L57 21L56 21L56 20L55 20L55 19L56 19L56 18L53 18L53 17L51 17L51 18L50 18L50 17L49 17L49 16L50 16L50 15L51 15L51 16L52 16L52 15L53 15L53 16L54 16L54 17L56 17L56 16L57 16L57 15L56 15L56 14L57 14L57 13L56 13L56 14L55 14L55 15L53 15L53 13L54 13L54 12L55 12L55 11L56 11L56 12L57 12L57 11L56 11L56 10L54 10L54 11L52 11L52 10L53 10L53 9L54 9L54 8L53 8L53 9L52 9L52 8L51 8L51 9L52 9L52 10L50 10L50 8L49 8L49 6L48 6L48 7L47 7L47 5L48 5L48 0L45 0L45 2L44 2L44 3L43 3L43 4L40 4L40 5L39 5L39 6L38 6L38 4L37 4L37 3L38 3L38 2L39 2L39 3L41 3L41 2L43 2L43 0L41 0L41 1L40 1L40 0L39 0L39 1L38 1L38 0L37 0L37 1L38 1L38 2L37 2L37 3L36 3L36 0L35 0L35 1L32 1L32 0L29 0L29 1L25 1L25 0L23 0L23 2L21 2L21 1L22 1L22 0L21 0L21 1L20 1L20 2L21 2L21 3L23 3L23 4L24 4L24 5L23 5L23 6L22 6L22 7L21 7L21 5L22 5L22 4L19 4L19 1L18 1L18 0L17 0L17 1L14 1L14 0L12 0L12 1L11 1L11 0ZM10 1L10 2L11 2L11 1ZM13 1L13 2L14 2L14 1ZM17 1L17 2L18 2L18 1ZM29 1L29 2L23 2L23 3L26 3L26 4L25 4L25 8L26 8L26 4L30 4L30 3L29 3L29 2L30 2L30 1ZM46 1L46 2L47 2L47 1ZM31 2L31 3L32 3L32 4L31 4L31 8L32 8L32 10L31 10L31 11L29 11L29 12L28 12L28 13L26 13L26 12L27 12L27 11L26 11L26 12L25 12L25 10L23 10L23 9L24 9L24 6L23 6L23 7L22 7L22 8L20 8L20 10L19 10L19 9L18 9L18 10L17 10L17 11L18 11L18 10L19 10L19 13L20 13L20 14L21 14L21 13L22 13L22 14L23 14L23 15L19 15L19 16L20 16L20 21L18 21L18 22L17 22L17 24L16 24L16 23L15 23L15 24L13 24L13 23L14 23L14 22L13 22L13 23L11 23L11 24L13 24L13 25L10 25L10 23L9 23L9 25L6 25L6 24L8 24L8 23L6 23L6 22L7 22L7 21L9 21L9 22L10 22L10 21L11 21L11 20L10 20L10 19L8 19L8 20L7 20L7 19L6 19L6 18L4 18L4 17L3 17L3 18L2 18L2 19L3 19L3 20L4 20L4 19L5 19L5 21L4 21L4 22L3 22L3 26L2 26L2 27L3 27L3 28L4 28L4 23L6 23L6 24L5 24L5 25L6 25L6 26L9 26L9 29L10 29L10 30L9 30L9 31L5 31L5 32L4 32L4 33L3 33L3 34L1 34L1 36L3 36L3 37L4 37L4 38L5 38L5 39L6 39L6 40L7 40L7 39L6 39L6 38L8 38L8 37L9 37L9 39L8 39L8 40L9 40L9 42L10 42L10 41L12 41L12 42L13 42L13 43L14 43L14 45L13 45L13 46L12 46L12 45L11 45L11 49L12 49L12 51L13 51L13 52L15 52L15 51L16 51L16 53L15 53L15 54L16 54L16 53L17 53L17 52L18 52L18 51L20 51L20 50L21 50L21 49L23 49L23 48L24 48L24 49L26 49L26 48L30 48L30 47L26 47L26 45L27 45L27 46L30 46L30 45L29 45L29 44L28 44L28 43L27 43L27 42L30 42L30 41L28 41L28 40L32 40L32 41L31 41L31 42L32 42L32 43L33 43L33 44L32 44L32 46L36 46L36 47L34 47L34 48L31 48L31 53L30 53L30 54L27 54L27 56L29 56L29 55L30 55L30 56L31 56L31 54L32 54L32 53L33 53L33 54L34 54L34 55L35 55L35 56L36 56L36 54L35 54L35 53L34 53L34 52L35 52L35 50L36 50L36 52L37 52L37 53L38 53L38 54L37 54L37 56L39 56L39 55L38 55L38 54L40 54L40 53L43 53L43 54L44 54L44 55L42 55L42 54L41 54L41 55L42 55L42 56L44 56L44 55L46 55L46 54L48 54L48 50L47 50L47 49L48 49L48 48L49 48L49 47L48 47L48 46L47 46L47 45L49 45L49 46L50 46L50 48L53 48L53 49L55 49L55 50L54 50L54 51L55 51L55 50L56 50L56 48L53 48L53 46L54 46L54 47L55 47L55 46L56 46L56 43L55 43L55 44L54 44L54 45L53 45L53 43L54 43L54 42L53 42L53 41L51 41L51 42L50 42L50 43L49 43L49 42L48 42L48 41L49 41L49 40L50 40L50 39L52 39L52 38L53 38L53 39L54 39L54 38L53 38L53 35L55 35L55 34L56 34L56 32L54 32L54 31L50 31L50 32L49 32L49 31L48 31L48 29L46 29L46 30L47 30L47 31L45 31L45 30L44 30L44 29L45 29L45 28L46 28L46 27L47 27L47 28L48 28L48 27L47 27L47 25L49 25L49 24L50 24L50 22L51 22L51 21L54 21L54 22L56 22L56 21L55 21L55 20L53 20L53 19L52 19L52 18L51 18L51 19L52 19L52 20L51 20L51 21L49 21L49 22L47 22L47 21L48 21L48 19L50 19L50 18L47 18L47 17L46 17L46 18L45 18L45 16L47 16L47 15L44 15L44 18L43 18L43 20L42 20L42 21L43 21L43 20L44 20L44 23L43 23L43 24L44 24L44 26L42 26L42 28L41 28L41 26L39 26L39 25L41 25L41 24L42 24L42 22L41 22L41 24L38 24L38 23L40 23L40 22L39 22L39 21L41 21L41 20L39 20L39 21L38 21L38 19L39 19L39 17L41 17L41 16L42 16L42 17L43 17L43 16L42 16L42 15L43 15L43 14L41 14L41 13L43 13L43 11L41 11L41 12L40 12L40 11L39 11L39 12L40 12L40 13L38 13L38 14L37 14L37 13L36 13L36 14L37 14L37 15L35 15L35 16L32 16L32 14L35 14L35 11L36 11L36 10L37 10L37 11L38 11L38 10L39 10L39 9L40 9L40 10L41 10L41 7L42 7L42 8L44 8L44 9L43 9L43 10L44 10L44 9L46 9L46 10L45 10L45 11L44 11L44 14L47 14L47 13L49 13L49 12L50 12L50 14L49 14L49 15L48 15L48 16L49 16L49 15L50 15L50 14L51 14L51 12L50 12L50 10L48 10L48 11L47 11L47 12L45 12L45 11L46 11L46 10L47 10L47 7L46 7L46 6L45 6L45 4L46 4L46 5L47 5L47 3L44 3L44 6L43 6L43 7L42 7L42 5L40 5L40 6L39 6L39 7L40 7L40 8L39 8L39 9L38 9L38 8L37 8L37 7L38 7L38 6L37 6L37 7L36 7L36 5L37 5L37 4L36 4L36 5L35 5L35 2L33 2L33 3L32 3L32 2ZM32 4L32 5L34 5L34 7L33 7L33 6L32 6L32 7L33 7L33 9L34 9L34 8L35 8L35 9L37 9L37 10L38 10L38 9L37 9L37 8L35 8L35 5L34 5L34 4ZM8 5L8 7L9 7L9 5ZM27 5L27 8L30 8L30 5ZM28 6L28 7L29 7L29 6ZM40 6L40 7L41 7L41 6ZM44 6L44 8L46 8L46 7L45 7L45 6ZM16 7L16 8L17 8L17 7ZM11 8L11 9L12 9L12 8ZM55 8L55 9L56 9L56 8ZM21 9L21 10L20 10L20 13L21 13L21 12L22 12L22 13L23 13L23 14L25 14L25 17L22 17L22 16L21 16L21 17L22 17L22 18L21 18L21 19L23 19L23 20L24 20L24 21L22 21L22 23L23 23L23 24L24 24L24 25L22 25L22 26L20 26L20 25L21 25L21 24L17 24L17 25L18 25L18 26L15 26L15 25L13 25L13 26L11 26L11 28L10 28L10 29L11 29L11 28L12 28L12 29L13 29L13 30L14 30L14 31L16 31L16 29L18 29L18 30L17 30L17 31L19 31L19 32L12 32L12 30L11 30L11 32L12 32L12 34L13 34L13 35L11 35L11 36L10 36L10 34L11 34L11 33L10 33L10 32L6 32L6 33L5 33L5 34L6 34L6 35L9 35L9 37L11 37L11 38L12 38L12 41L14 41L14 43L16 43L16 44L18 44L18 45L17 45L17 48L16 48L16 47L15 47L15 45L14 45L14 46L13 46L13 48L12 48L12 49L13 49L13 48L16 48L16 49L17 49L17 50L16 50L16 51L17 51L17 50L20 50L20 48L21 48L21 47L24 47L24 48L25 48L25 47L24 47L24 46L25 46L25 45L24 45L24 44L27 44L27 43L25 43L25 41L24 41L24 40L25 40L25 39L26 39L26 40L28 40L28 39L27 39L27 38L28 38L28 37L27 37L27 35L26 35L26 34L25 34L25 33L27 33L27 31L29 31L29 32L28 32L28 33L29 33L29 34L30 34L30 36L29 36L29 37L31 37L31 38L29 38L29 39L33 39L33 40L35 40L35 42L37 42L37 43L36 43L36 44L35 44L35 43L34 43L34 42L33 42L33 41L32 41L32 42L33 42L33 43L34 43L34 45L36 45L36 46L37 46L37 47L36 47L36 48L35 48L35 49L36 49L36 50L38 50L38 51L40 51L40 52L41 52L41 50L42 50L42 51L43 51L43 53L44 53L44 54L45 54L45 53L44 53L44 52L45 52L45 51L44 51L44 48L43 48L43 47L42 47L42 48L41 48L41 46L43 46L43 45L44 45L44 47L46 47L46 48L48 48L48 47L47 47L47 46L45 46L45 45L47 45L47 43L48 43L48 42L45 42L45 41L44 41L44 40L45 40L45 39L46 39L46 40L47 40L47 39L50 39L50 38L48 38L48 37L50 37L50 36L51 36L51 37L52 37L52 35L53 35L53 34L52 34L52 33L54 33L54 34L55 34L55 33L54 33L54 32L52 32L52 33L51 33L51 32L50 32L50 34L49 34L49 35L47 35L47 36L48 36L48 37L47 37L47 39L46 39L46 38L45 38L45 37L46 37L46 36L45 36L45 35L46 35L46 34L45 34L45 35L44 35L44 33L43 33L43 32L45 32L45 33L46 33L46 32L45 32L45 31L43 31L43 32L41 32L41 33L39 33L39 34L40 34L40 35L39 35L39 37L40 37L40 38L43 38L43 37L44 37L44 38L45 38L45 39L43 39L43 40L42 40L42 41L40 41L40 42L42 42L42 44L41 44L41 43L39 43L39 42L38 42L38 40L40 40L40 39L38 39L38 37L37 37L37 36L38 36L38 33L37 33L37 32L34 32L34 31L36 31L36 30L33 30L33 29L32 29L32 27L33 27L33 28L35 28L35 29L38 29L38 28L40 28L40 27L36 27L36 26L34 26L34 27L33 27L33 26L32 26L32 24L33 24L33 25L37 25L37 26L38 26L38 24L37 24L37 23L38 23L38 21L37 21L37 20L36 20L36 19L35 19L35 23L34 23L34 22L33 22L33 23L32 23L32 24L29 24L29 25L30 25L30 26L28 26L28 25L27 25L27 26L26 26L26 25L25 25L25 24L28 24L28 23L30 23L30 22L31 22L31 21L32 21L32 20L34 20L34 19L33 19L33 17L32 17L32 16L31 16L31 15L30 15L30 14L32 14L32 11L33 11L33 10L32 10L32 11L31 11L31 13L30 13L30 14L29 14L29 13L28 13L28 14L29 14L29 16L28 16L28 15L27 15L27 16L28 16L28 17L27 17L27 18L28 18L28 19L27 19L27 20L28 20L28 19L29 19L29 21L25 21L25 20L26 20L26 18L25 18L25 17L26 17L26 13L25 13L25 12L24 12L24 11L23 11L23 10L22 10L22 9ZM12 10L12 11L13 11L13 12L14 12L14 11L13 11L13 10ZM21 10L21 11L22 11L22 10ZM6 11L6 12L5 12L5 13L6 13L6 14L7 14L7 13L6 13L6 12L7 12L7 11ZM15 12L15 13L16 13L16 12ZM17 12L17 13L18 13L18 12ZM23 12L23 13L24 13L24 12ZM33 12L33 13L34 13L34 12ZM52 12L52 13L53 13L53 12ZM38 14L38 15L39 15L39 16L38 16L38 17L37 17L37 16L35 16L35 17L37 17L37 18L38 18L38 17L39 17L39 16L41 16L41 14ZM14 15L14 17L15 17L15 15ZM23 15L23 16L24 16L24 15ZM0 16L0 17L1 17L1 16ZM31 17L31 18L30 18L30 19L31 19L31 18L32 18L32 17ZM3 18L3 19L4 19L4 18ZM23 18L23 19L24 19L24 18ZM41 18L41 19L42 19L42 18ZM44 18L44 20L45 20L45 18ZM46 18L46 20L47 20L47 18ZM6 20L6 21L5 21L5 22L6 22L6 21L7 21L7 20ZM24 21L24 22L23 22L23 23L24 23L24 24L25 24L25 23L26 23L26 22L25 22L25 21ZM29 21L29 22L30 22L30 21ZM45 21L45 22L46 22L46 23L45 23L45 24L46 24L46 25L47 25L47 24L48 24L48 23L47 23L47 22L46 22L46 21ZM19 22L19 23L20 23L20 22ZM46 23L46 24L47 24L47 23ZM51 23L51 25L50 25L50 26L52 26L52 25L54 25L54 24L53 24L53 23ZM13 26L13 27L14 27L14 28L13 28L13 29L14 29L14 30L15 30L15 29L16 29L16 28L15 28L15 27L14 27L14 26ZM18 26L18 27L17 27L17 28L18 28L18 29L19 29L19 26ZM22 26L22 27L20 27L20 30L19 30L19 31L23 31L23 29L24 29L24 26ZM25 26L25 27L26 27L26 26ZM31 26L31 27L32 27L32 26ZM44 26L44 28L43 28L43 29L39 29L39 30L38 30L38 32L39 32L39 31L41 31L41 30L43 30L43 29L44 29L44 28L45 28L45 27L46 27L46 26ZM53 26L53 27L54 27L54 26ZM5 27L5 30L8 30L8 27ZM27 27L27 30L30 30L30 27ZM49 27L49 30L52 30L52 27ZM6 28L6 29L7 29L7 28ZM14 28L14 29L15 29L15 28ZM21 28L21 29L22 29L22 28ZM25 28L25 29L26 29L26 28ZM28 28L28 29L29 29L29 28ZM50 28L50 29L51 29L51 28ZM31 29L31 31L30 31L30 32L29 32L29 33L31 33L31 35L33 35L33 36L32 36L32 37L33 37L33 39L35 39L35 40L38 40L38 39L35 39L35 37L34 37L34 34L35 34L35 36L37 36L37 34L35 34L35 33L34 33L34 34L32 34L32 33L33 33L33 31L32 31L32 29ZM24 30L24 31L25 31L25 32L20 32L20 34L19 34L19 33L18 33L18 34L19 34L19 35L20 35L20 36L19 36L19 37L17 37L17 36L14 36L14 35L15 35L15 34L17 34L17 33L13 33L13 34L14 34L14 35L13 35L13 37L16 37L16 38L15 38L15 39L16 39L16 40L15 40L15 42L17 42L17 43L18 43L18 42L19 42L19 43L20 43L20 44L19 44L19 45L20 45L20 46L19 46L19 47L21 47L21 45L22 45L22 46L23 46L23 45L22 45L22 44L21 44L21 43L22 43L22 42L24 42L24 41L23 41L23 40L24 40L24 39L21 39L21 41L20 41L20 40L19 40L19 39L20 39L20 38L19 38L19 37L21 37L21 38L24 38L24 37L23 37L23 36L24 36L24 34L23 34L23 33L25 33L25 32L26 32L26 31L25 31L25 30ZM47 31L47 32L48 32L48 33L49 33L49 32L48 32L48 31ZM31 32L31 33L32 33L32 32ZM6 33L6 34L10 34L10 33ZM21 33L21 34L20 34L20 35L21 35L21 34L22 34L22 33ZM3 34L3 35L4 35L4 36L5 36L5 37L8 37L8 36L5 36L5 35L4 35L4 34ZM42 34L42 35L41 35L41 36L40 36L40 37L43 37L43 36L44 36L44 37L45 37L45 36L44 36L44 35L43 35L43 34ZM50 34L50 35L49 35L49 36L50 36L50 35L52 35L52 34ZM22 35L22 36L23 36L23 35ZM11 36L11 37L12 37L12 36ZM25 36L25 38L26 38L26 36ZM55 36L55 37L56 37L56 36ZM13 38L13 39L14 39L14 38ZM18 38L18 39L19 39L19 38ZM9 39L9 40L11 40L11 39ZM3 40L3 41L2 41L2 42L3 42L3 41L4 41L4 42L5 42L5 40ZM16 40L16 41L19 41L19 42L20 42L20 41L19 41L19 40ZM6 41L6 42L7 42L7 43L6 43L6 44L9 44L9 45L8 45L8 46L7 46L7 45L5 45L5 44L4 44L4 46L3 46L3 44L1 44L1 45L2 45L2 46L1 46L1 47L2 47L2 46L3 46L3 47L5 47L5 46L7 46L7 47L8 47L8 49L9 49L9 50L10 50L10 49L9 49L9 47L10 47L10 43L8 43L8 41ZM21 41L21 42L22 42L22 41ZM26 41L26 42L27 42L27 41ZM43 42L43 43L44 43L44 45L45 45L45 44L46 44L46 43L45 43L45 42ZM51 42L51 43L50 43L50 44L51 44L51 45L50 45L50 46L51 46L51 47L52 47L52 46L51 46L51 45L52 45L52 44L51 44L51 43L53 43L53 42ZM11 43L11 44L12 44L12 43ZM23 43L23 44L24 44L24 43ZM20 44L20 45L21 45L21 44ZM39 44L39 45L38 45L38 46L39 46L39 47L38 47L38 48L37 48L37 49L38 49L38 50L41 50L41 48L39 48L39 47L40 47L40 46L39 46L39 45L41 45L41 44ZM54 45L54 46L55 46L55 45ZM38 48L38 49L39 49L39 48ZM42 48L42 49L43 49L43 48ZM27 49L27 52L30 52L30 49ZM32 49L32 52L33 52L33 49ZM49 49L49 52L52 52L52 49ZM13 50L13 51L15 51L15 50ZM28 50L28 51L29 51L29 50ZM50 50L50 51L51 51L51 50ZM22 51L22 52L23 52L23 51ZM46 51L46 52L47 52L47 51ZM38 52L38 53L39 53L39 52ZM53 52L53 53L54 53L54 52ZM24 53L24 54L23 54L23 55L24 55L24 56L26 56L26 53ZM9 54L9 55L10 55L10 54ZM18 54L18 55L17 55L17 56L18 56L18 55L19 55L19 54ZM50 55L50 56L51 56L51 55ZM0 0L0 7L7 7L7 0ZM1 1L1 6L6 6L6 1ZM2 2L2 5L5 5L5 2ZM50 0L50 7L57 7L57 0ZM51 1L51 6L56 6L56 1ZM52 2L52 5L55 5L55 2ZM0 50L0 57L7 57L7 50ZM1 51L1 56L6 56L6 51ZM2 52L2 55L5 55L5 52Z" fill="#000000"/></g></g></svg>
