<?xml version="1.0" encoding="UTF-8"?>
<svg xmlns="http://www.w3.org/2000/svg" version="1.1" width="300" height="300" viewBox="0 0 300 300"><rect x="0" y="0" width="300" height="300" fill="#fefefe"/><g transform="scale(4.615)"><g transform="translate(4,4)"><path fill-rule="evenodd" d="M8 0L8 1L9 1L9 2L8 2L8 5L11 5L11 3L12 3L12 7L11 7L11 6L10 6L10 7L9 7L9 6L8 6L8 7L9 7L9 8L8 8L8 9L7 9L7 8L6 8L6 9L5 9L5 11L4 11L4 12L3 12L3 10L4 10L4 8L0 8L0 9L1 9L1 11L0 11L0 13L1 13L1 16L2 16L2 17L4 17L4 18L5 18L5 19L2 19L2 18L0 18L0 20L2 20L2 23L1 23L1 22L0 22L0 23L1 23L1 24L0 24L0 25L1 25L1 28L2 28L2 29L3 29L3 30L4 30L4 33L3 33L3 36L4 36L4 37L2 37L2 36L0 36L0 39L2 39L2 40L1 40L1 41L0 41L0 45L1 45L1 41L2 41L2 42L3 42L3 44L2 44L2 47L1 47L1 46L0 46L0 48L5 48L5 47L7 47L7 48L6 48L6 49L8 49L8 50L10 50L10 51L9 51L9 53L8 53L8 57L9 57L9 55L10 55L10 57L13 57L13 56L14 56L14 57L15 57L15 56L16 56L16 57L18 57L18 56L17 56L17 54L18 54L18 53L17 53L17 54L16 54L16 53L15 53L15 54L12 54L12 55L13 55L13 56L11 56L11 54L9 54L9 53L11 53L11 52L10 52L10 51L13 51L13 52L12 52L12 53L13 53L13 52L15 52L15 51L16 51L16 49L14 49L14 48L13 48L13 49L14 49L14 50L12 50L12 49L11 49L11 47L12 47L12 46L13 46L13 45L14 45L14 46L15 46L15 48L17 48L17 49L20 49L20 52L19 52L19 50L17 50L17 51L18 51L18 52L19 52L19 55L20 55L20 56L21 56L21 57L23 57L23 54L25 54L25 53L29 53L29 54L31 54L31 55L30 55L30 56L31 56L31 57L32 57L32 55L34 55L34 56L33 56L33 57L36 57L36 55L38 55L38 57L42 57L42 56L43 56L43 55L44 55L44 56L46 56L46 57L51 57L51 54L52 54L52 53L54 53L54 54L53 54L53 56L52 56L52 57L55 57L55 56L54 56L54 55L55 55L55 54L56 54L56 49L57 49L57 48L56 48L56 49L55 49L55 48L54 48L54 47L57 47L57 45L56 45L56 46L55 46L55 44L52 44L52 43L53 43L53 42L54 42L54 43L56 43L56 44L57 44L57 43L56 43L56 41L57 41L57 40L56 40L56 41L55 41L55 42L54 42L54 41L53 41L53 40L55 40L55 39L53 39L53 40L52 40L52 37L51 37L51 35L52 35L52 36L53 36L53 37L55 37L55 38L56 38L56 39L57 39L57 38L56 38L56 37L55 37L55 36L57 36L57 31L56 31L56 30L57 30L57 29L56 29L56 30L55 30L55 28L56 28L56 24L54 24L54 23L57 23L57 19L56 19L56 18L55 18L55 17L57 17L57 15L53 15L53 16L55 16L55 17L54 17L54 18L51 18L51 19L56 19L56 20L54 20L54 21L56 21L56 22L53 22L53 20L50 20L50 19L49 19L49 18L48 18L48 17L46 17L46 20L45 20L45 22L44 22L44 21L43 21L43 18L42 18L42 17L45 17L45 16L46 16L46 15L45 15L45 14L46 14L46 13L45 13L45 14L42 14L42 17L41 17L41 18L39 18L39 19L40 19L40 20L38 20L38 19L36 19L36 20L34 20L34 21L35 21L35 22L37 22L37 24L36 24L36 23L35 23L35 24L33 24L33 22L32 22L32 23L31 23L31 24L29 24L29 22L31 22L31 20L32 20L32 17L33 17L33 18L35 18L35 17L34 17L34 16L35 16L35 15L36 15L36 14L37 14L37 15L39 15L39 17L40 17L40 16L41 16L41 13L40 13L40 11L42 11L42 12L43 12L43 13L44 13L44 11L43 11L43 5L45 5L45 4L44 4L44 3L45 3L45 1L44 1L44 2L41 2L41 1L43 1L43 0L41 0L41 1L40 1L40 0L39 0L39 1L40 1L40 2L41 2L41 4L39 4L39 3L38 3L38 2L37 2L37 1L38 1L38 0L37 0L37 1L36 1L36 0L35 0L35 1L34 1L34 3L35 3L35 4L36 4L36 5L37 5L37 6L36 6L36 7L35 7L35 6L34 6L34 5L33 5L33 6L32 6L32 5L31 5L31 4L32 4L32 3L33 3L33 2L31 2L31 3L30 3L30 1L31 1L31 0L29 0L29 1L28 1L28 2L27 2L27 3L28 3L28 2L29 2L29 3L30 3L30 4L26 4L26 1L25 1L25 0L23 0L23 1L25 1L25 2L24 2L24 3L23 3L23 2L18 2L18 1L20 1L20 0L17 0L17 2L16 2L16 1L15 1L15 3L17 3L17 5L15 5L15 4L14 4L14 3L12 3L12 1L13 1L13 0L12 0L12 1L11 1L11 2L10 2L10 0ZM21 0L21 1L22 1L22 0ZM46 0L46 1L47 1L47 2L46 2L46 3L47 3L47 5L46 5L46 7L45 7L45 6L44 6L44 7L45 7L45 9L44 9L44 10L45 10L45 11L47 11L47 12L48 12L48 11L47 11L47 10L46 10L46 9L48 9L48 10L49 10L49 16L50 16L50 17L52 17L52 16L50 16L50 15L51 15L51 13L52 13L52 14L55 14L55 13L54 13L54 10L53 10L53 13L52 13L52 12L51 12L51 11L52 11L52 9L55 9L55 12L56 12L56 11L57 11L57 10L56 10L56 9L57 9L57 8L56 8L56 9L55 9L55 8L52 8L52 9L51 9L51 11L50 11L50 10L49 10L49 9L50 9L50 8L49 8L49 6L48 6L48 7L47 7L47 5L48 5L48 0ZM35 1L35 2L36 2L36 1ZM19 3L19 4L20 4L20 5L21 5L21 4L23 4L23 3ZM13 4L13 5L14 5L14 4ZM24 4L24 6L23 6L23 7L24 7L24 9L26 9L26 6L25 6L25 5L26 5L26 4ZM41 4L41 7L40 7L40 5L38 5L38 6L37 6L37 8L36 8L36 9L34 9L34 6L33 6L33 8L32 8L32 6L31 6L31 9L32 9L32 10L30 10L30 11L29 11L29 9L27 9L27 10L26 10L26 11L25 11L25 12L24 12L24 11L21 11L21 7L22 7L22 6L21 6L21 7L20 7L20 6L19 6L19 7L18 7L18 5L17 5L17 7L16 7L16 6L15 6L15 8L14 8L14 6L13 6L13 7L12 7L12 8L13 8L13 9L12 9L12 10L11 10L11 7L10 7L10 9L8 9L8 10L7 10L7 9L6 9L6 10L7 10L7 11L5 11L5 12L7 12L7 11L8 11L8 13L6 13L6 14L8 14L8 15L9 15L9 14L8 14L8 13L12 13L12 11L13 11L13 10L14 10L14 11L16 11L16 12L15 12L15 15L14 15L14 13L13 13L13 14L11 14L11 15L10 15L10 16L11 16L11 17L10 17L10 18L11 18L11 17L13 17L13 19L12 19L12 20L10 20L10 21L11 21L11 23L10 23L10 22L7 22L7 21L8 21L8 20L9 20L9 18L8 18L8 16L7 16L7 15L5 15L5 13L4 13L4 15L3 15L3 12L2 12L2 16L4 16L4 15L5 15L5 17L6 17L6 18L7 18L7 19L5 19L5 21L6 21L6 22L7 22L7 23L4 23L4 24L3 24L3 25L2 25L2 24L1 24L1 25L2 25L2 26L3 26L3 27L4 27L4 24L7 24L7 23L8 23L8 24L9 24L9 25L5 25L5 26L9 26L9 25L10 25L10 24L11 24L11 26L10 26L10 27L9 27L9 30L10 30L10 31L9 31L9 33L6 33L6 34L5 34L5 33L4 33L4 34L5 34L5 35L4 35L4 36L5 36L5 37L4 37L4 39L3 39L3 38L2 38L2 39L3 39L3 42L4 42L4 43L5 43L5 45L4 45L4 44L3 44L3 45L4 45L4 46L3 46L3 47L5 47L5 46L7 46L7 45L9 45L9 44L7 44L7 43L9 43L9 41L8 41L8 38L7 38L7 37L6 37L6 36L9 36L9 35L11 35L11 36L10 36L10 37L11 37L11 36L12 36L12 37L13 37L13 38L11 38L11 39L10 39L10 38L9 38L9 40L12 40L12 43L13 43L13 44L14 44L14 45L15 45L15 46L16 46L16 47L20 47L20 48L21 48L21 53L20 53L20 55L21 55L21 56L22 56L22 55L21 55L21 53L22 53L22 54L23 54L23 52L24 52L24 53L25 53L25 52L26 52L26 51L24 51L24 50L25 50L25 49L26 49L26 48L27 48L27 47L28 47L28 48L31 48L31 46L32 46L32 49L31 49L31 50L33 50L33 53L36 53L36 54L35 54L35 55L36 55L36 54L37 54L37 51L36 51L36 52L35 52L35 51L34 51L34 50L35 50L35 48L37 48L37 49L36 49L36 50L37 50L37 49L38 49L38 48L39 48L39 49L40 49L40 50L39 50L39 52L40 52L40 54L41 54L41 53L42 53L42 54L43 54L43 53L42 53L42 52L43 52L43 51L44 51L44 50L45 50L45 51L47 51L47 52L48 52L48 48L46 48L46 50L45 50L45 48L44 48L44 49L43 49L43 47L40 47L40 46L41 46L41 45L38 45L38 44L39 44L39 43L38 43L38 44L37 44L37 42L41 42L41 43L40 43L40 44L41 44L41 43L42 43L42 45L43 45L43 46L45 46L45 47L46 47L46 46L47 46L47 45L48 45L48 47L49 47L49 48L50 48L50 47L49 47L49 46L50 46L50 45L51 45L51 47L52 47L52 48L53 48L53 50L55 50L55 49L54 49L54 48L53 48L53 47L54 47L54 46L53 46L53 45L52 45L52 44L51 44L51 42L50 42L50 41L52 41L52 40L50 40L50 39L51 39L51 37L50 37L50 36L46 36L46 35L47 35L47 34L48 34L48 35L49 35L49 34L50 34L50 33L49 33L49 32L48 32L48 30L47 30L47 31L45 31L45 30L46 30L46 27L45 27L45 24L46 24L46 26L47 26L47 27L48 27L48 26L49 26L49 25L48 25L48 24L46 24L46 23L43 23L43 22L42 22L42 23L40 23L40 24L38 24L38 25L40 25L40 26L38 26L38 27L40 27L40 26L41 26L41 27L42 27L42 28L43 28L43 27L42 27L42 26L44 26L44 27L45 27L45 29L42 29L42 30L40 30L40 29L41 29L41 28L40 28L40 29L38 29L38 30L37 30L37 28L36 28L36 27L35 27L35 25L34 25L34 27L35 27L35 28L34 28L34 29L36 29L36 31L37 31L37 32L36 32L36 33L37 33L37 32L38 32L38 34L39 34L39 31L40 31L40 32L41 32L41 31L44 31L44 33L45 33L45 34L46 34L46 35L45 35L45 36L44 36L44 37L43 37L43 35L44 35L44 34L43 34L43 35L42 35L42 34L41 34L41 35L37 35L37 36L40 36L40 37L41 37L41 39L40 39L40 41L37 41L37 40L38 40L38 39L39 39L39 38L38 38L38 39L37 39L37 37L34 37L34 38L36 38L36 39L35 39L35 40L34 40L34 41L36 41L36 42L34 42L34 43L36 43L36 45L38 45L38 47L37 47L37 46L36 46L36 47L34 47L34 46L35 46L35 44L34 44L34 45L33 45L33 42L32 42L32 43L30 43L30 44L27 44L27 42L25 42L25 41L26 41L26 40L27 40L27 41L28 41L28 40L33 40L33 39L32 39L32 38L33 38L33 36L32 36L32 35L34 35L34 36L36 36L36 35L34 35L34 34L35 34L35 31L34 31L34 33L33 33L33 32L31 32L31 33L33 33L33 34L32 34L32 35L31 35L31 34L30 34L30 35L29 35L29 33L30 33L30 31L29 31L29 32L28 32L28 31L26 31L26 32L28 32L28 33L27 33L27 34L26 34L26 33L25 33L25 34L24 34L24 35L23 35L23 36L22 36L22 34L23 34L23 33L24 33L24 31L25 31L25 30L26 30L26 28L25 28L25 29L24 29L24 30L21 30L21 29L23 29L23 27L22 27L22 26L21 26L21 27L20 27L20 28L21 28L21 29L18 29L18 28L19 28L19 27L17 27L17 23L18 23L18 24L19 24L19 25L18 25L18 26L19 26L19 25L20 25L20 24L21 24L21 23L20 23L20 24L19 24L19 23L18 23L18 22L21 22L21 20L23 20L23 21L22 21L22 22L23 22L23 21L24 21L24 22L25 22L25 25L23 25L23 24L22 24L22 25L23 25L23 26L24 26L24 27L25 27L25 25L29 25L29 24L26 24L26 23L27 23L27 22L29 22L29 21L30 21L30 19L31 19L31 16L33 16L33 15L35 15L35 14L36 14L36 13L35 13L35 12L34 12L34 14L33 14L33 10L34 10L34 11L35 11L35 10L36 10L36 12L38 12L38 11L40 11L40 10L41 10L41 9L42 9L42 8L41 8L41 7L42 7L42 5L43 5L43 4ZM27 5L27 8L30 8L30 5ZM24 6L24 7L25 7L25 6ZM28 6L28 7L29 7L29 6ZM38 6L38 7L39 7L39 8L37 8L37 10L38 10L38 9L41 9L41 8L40 8L40 7L39 7L39 6ZM19 7L19 8L20 8L20 7ZM46 7L46 8L47 8L47 7ZM17 8L17 9L18 9L18 8ZM2 9L2 10L3 10L3 9ZM19 9L19 10L20 10L20 9ZM22 9L22 10L23 10L23 9ZM10 10L10 11L9 11L9 12L10 12L10 11L11 11L11 10ZM16 10L16 11L17 11L17 12L16 12L16 13L17 13L17 12L18 12L18 13L19 13L19 14L18 14L18 16L19 16L19 17L18 17L18 18L17 18L17 16L16 16L16 15L17 15L17 14L16 14L16 15L15 15L15 16L14 16L14 15L12 15L12 16L13 16L13 17L16 17L16 19L13 19L13 22L12 22L12 23L13 23L13 22L14 22L14 24L12 24L12 25L13 25L13 28L12 28L12 26L11 26L11 27L10 27L10 29L11 29L11 28L12 28L12 29L13 29L13 28L14 28L14 27L15 27L15 29L16 29L16 30L12 30L12 31L13 31L13 33L9 33L9 34L12 34L12 36L13 36L13 35L15 35L15 34L13 34L13 33L15 33L15 32L16 32L16 30L17 30L17 34L18 34L18 35L19 35L19 36L17 36L17 38L14 38L14 39L15 39L15 40L14 40L14 42L13 42L13 43L14 43L14 44L15 44L15 45L17 45L17 46L19 46L19 45L17 45L17 43L14 43L14 42L17 42L17 40L16 40L16 39L19 39L19 41L18 41L18 43L19 43L19 44L20 44L20 45L21 45L21 46L22 46L22 47L21 47L21 48L23 48L23 49L22 49L22 52L23 52L23 49L24 49L24 48L23 48L23 47L25 47L25 45L26 45L26 46L27 46L27 45L26 45L26 43L24 43L24 42L23 42L23 41L22 41L22 40L23 40L23 39L24 39L24 41L25 41L25 39L24 39L24 37L26 37L26 39L27 39L27 40L28 40L28 39L30 39L30 38L32 38L32 36L29 36L29 35L28 35L28 34L27 34L27 35L26 35L26 34L25 34L25 35L26 35L26 36L23 36L23 38L22 38L22 37L21 37L21 38L20 38L20 37L19 37L19 36L20 36L20 35L21 35L21 34L22 34L22 33L23 33L23 31L22 31L22 32L20 32L20 33L19 33L19 34L18 34L18 31L20 31L20 30L17 30L17 27L15 27L15 26L16 26L16 23L17 23L17 21L18 21L18 20L17 20L17 19L18 19L18 18L19 18L19 17L21 17L21 18L20 18L20 19L22 19L22 17L21 17L21 15L20 15L20 16L19 16L19 14L21 14L21 13L20 13L20 12L21 12L21 11L19 11L19 12L18 12L18 10ZM27 10L27 11L28 11L28 10ZM30 11L30 12L31 12L31 13L32 13L32 12L31 12L31 11ZM22 12L22 13L23 13L23 15L24 15L24 16L23 16L23 18L24 18L24 19L25 19L25 22L27 22L27 21L29 21L29 20L27 20L27 19L25 19L25 18L26 18L26 17L29 17L29 18L28 18L28 19L30 19L30 17L29 17L29 16L31 16L31 14L30 14L30 13L28 13L28 12L26 12L26 13L25 13L25 14L26 14L26 15L24 15L24 12ZM50 12L50 13L51 13L51 12ZM32 14L32 15L33 15L33 14ZM47 14L47 16L48 16L48 14ZM26 15L26 16L25 16L25 17L24 17L24 18L25 18L25 17L26 17L26 16L27 16L27 15ZM28 15L28 16L29 16L29 15ZM44 15L44 16L45 16L45 15ZM6 16L6 17L7 17L7 16ZM36 17L36 18L37 18L37 17ZM41 18L41 19L42 19L42 18ZM44 18L44 19L45 19L45 18ZM7 19L7 20L6 20L6 21L7 21L7 20L8 20L8 19ZM47 19L47 20L48 20L48 19ZM3 20L3 22L4 22L4 20ZM14 20L14 22L15 22L15 23L16 23L16 20ZM26 20L26 21L27 21L27 20ZM36 20L36 21L38 21L38 22L39 22L39 21L38 21L38 20ZM41 20L41 21L42 21L42 20ZM49 20L49 23L50 23L50 24L51 24L51 25L53 25L53 27L55 27L55 25L53 25L53 23L52 23L52 22L51 22L51 21L50 21L50 20ZM46 21L46 22L47 22L47 21ZM9 23L9 24L10 24L10 23ZM42 23L42 25L44 25L44 24L43 24L43 23ZM14 24L14 25L15 25L15 24ZM32 24L32 25L33 25L33 24ZM30 25L30 26L31 26L31 25ZM5 27L5 30L8 30L8 27ZM27 27L27 30L30 30L30 27ZM31 27L31 28L33 28L33 27ZM49 27L49 30L52 30L52 27ZM3 28L3 29L4 29L4 28ZM6 28L6 29L7 29L7 28ZM28 28L28 29L29 29L29 28ZM47 28L47 29L48 29L48 28ZM50 28L50 29L51 29L51 28ZM53 28L53 30L54 30L54 28ZM0 29L0 32L1 32L1 33L2 33L2 31L1 31L1 29ZM32 29L32 30L31 30L31 31L32 31L32 30L33 30L33 29ZM38 30L38 31L39 31L39 30ZM5 31L5 32L8 32L8 31ZM51 31L51 32L52 32L52 34L54 34L54 33L55 33L55 31L53 31L53 32L52 32L52 31ZM42 32L42 33L43 33L43 32ZM46 32L46 33L47 33L47 32ZM53 32L53 33L54 33L54 32ZM20 33L20 34L21 34L21 33ZM6 34L6 35L8 35L8 34ZM54 35L54 36L55 36L55 35ZM27 36L27 38L29 38L29 36ZM45 37L45 39L44 39L44 38L42 38L42 39L41 39L41 40L42 40L42 39L43 39L43 40L44 40L44 41L45 41L45 42L42 42L42 41L41 41L41 42L42 42L42 43L44 43L44 44L48 44L48 45L49 45L49 43L50 43L50 42L47 42L47 41L50 41L50 40L47 40L47 39L48 39L48 37L47 37L47 38L46 38L46 37ZM5 38L5 39L4 39L4 41L5 41L5 43L7 43L7 42L8 42L8 41L7 41L7 40L6 40L6 41L5 41L5 39L7 39L7 38ZM21 38L21 39L22 39L22 38ZM12 39L12 40L13 40L13 39ZM45 40L45 41L46 41L46 40ZM6 41L6 42L7 42L7 41ZM19 41L19 42L21 42L21 44L22 44L22 46L23 46L23 45L24 45L24 44L22 44L22 42L21 42L21 41ZM29 41L29 42L31 42L31 41ZM10 42L10 43L11 43L11 42ZM46 42L46 43L47 43L47 42ZM6 44L6 45L7 45L7 44ZM10 44L10 47L11 47L11 45L12 45L12 44ZM30 45L30 46L31 46L31 45ZM28 46L28 47L29 47L29 46ZM52 46L52 47L53 47L53 46ZM8 47L8 48L9 48L9 49L10 49L10 50L11 50L11 49L10 49L10 48L9 48L9 47ZM33 47L33 50L34 50L34 47ZM41 48L41 49L42 49L42 48ZM27 49L27 52L30 52L30 49ZM49 49L49 52L52 52L52 49ZM14 50L14 51L15 51L15 50ZM28 50L28 51L29 51L29 50ZM50 50L50 51L51 51L51 50ZM31 51L31 53L32 53L32 51ZM40 51L40 52L41 52L41 51ZM45 52L45 53L46 53L46 52ZM54 52L54 53L55 53L55 52ZM38 53L38 54L39 54L39 53ZM48 53L48 54L50 54L50 53ZM26 54L26 55L27 55L27 56L28 56L28 55L27 55L27 54ZM44 54L44 55L45 55L45 54ZM46 54L46 56L47 56L47 54ZM24 55L24 57L25 57L25 55ZM39 55L39 56L40 56L40 55ZM41 55L41 56L42 56L42 55ZM48 55L48 56L49 56L49 55ZM56 55L56 56L57 56L57 55ZM0 0L0 7L7 7L7 0ZM1 1L1 6L6 6L6 1ZM2 2L2 5L5 5L5 2ZM50 0L50 7L57 7L57 0ZM51 1L51 6L56 6L56 1ZM52 2L52 5L55 5L55 2ZM0 50L0 57L7 57L7 50ZM1 51L1 56L6 56L6 51ZM2 52L2 55L5 55L5 52Z" fill="#000000"/></g></g></svg>
