<?xml version="1.0" encoding="UTF-8"?>
<svg xmlns="http://www.w3.org/2000/svg" version="1.1" width="300" height="300" viewBox="0 0 300 300"><rect x="0" y="0" width="300" height="300" fill="#fefefe"/><g transform="scale(4.615)"><g transform="translate(4,4)"><path fill-rule="evenodd" d="M9 0L9 1L8 1L8 2L9 2L9 3L8 3L8 4L9 4L9 3L11 3L11 4L10 4L10 5L8 5L8 7L9 7L9 8L6 8L6 9L7 9L7 10L6 10L6 11L4 11L4 12L3 12L3 11L1 11L1 10L0 10L0 13L1 13L1 15L0 15L0 16L1 16L1 15L3 15L3 16L2 16L2 19L1 19L1 20L0 20L0 23L2 23L2 21L3 21L3 20L4 20L4 21L5 21L5 20L6 20L6 21L7 21L7 22L6 22L6 23L5 23L5 22L3 22L3 23L5 23L5 25L4 25L4 24L0 24L0 25L1 25L1 26L0 26L0 27L1 27L1 26L2 26L2 25L4 25L4 26L3 26L3 27L4 27L4 28L0 28L0 30L1 30L1 32L0 32L0 33L2 33L2 30L1 30L1 29L3 29L3 30L4 30L4 31L5 31L5 32L6 32L6 33L5 33L5 35L3 35L3 36L2 36L2 34L0 34L0 35L1 35L1 36L0 36L0 42L1 42L1 43L4 43L4 44L5 44L5 43L7 43L7 42L3 42L3 40L5 40L5 39L4 39L4 38L3 38L3 37L5 37L5 38L6 38L6 39L7 39L7 38L8 38L8 39L9 39L9 40L10 40L10 41L11 41L11 43L12 43L12 44L10 44L10 46L9 46L9 48L10 48L10 49L8 49L8 47L7 47L7 46L6 46L6 45L9 45L9 44L6 44L6 45L3 45L3 44L0 44L0 45L2 45L2 47L1 47L1 46L0 46L0 48L5 48L5 47L7 47L7 48L6 48L6 49L8 49L8 51L10 51L10 49L11 49L11 51L12 51L12 53L11 53L11 52L8 52L8 57L9 57L9 54L10 54L10 56L12 56L12 57L13 57L13 56L12 56L12 53L14 53L14 54L15 54L15 55L16 55L16 56L17 56L17 57L20 57L20 56L19 56L19 55L20 55L20 54L19 54L19 53L20 53L20 52L22 52L22 51L20 51L20 49L21 49L21 50L26 50L26 52L24 52L24 53L23 53L23 54L22 54L22 56L23 56L23 57L26 57L26 55L27 55L27 54L30 54L30 53L31 53L31 51L32 51L32 52L33 52L33 53L32 53L32 54L31 54L31 56L30 56L30 55L29 55L29 56L27 56L27 57L29 57L29 56L30 56L30 57L31 57L31 56L35 56L35 57L39 57L39 56L37 56L37 54L38 54L38 55L41 55L41 57L42 57L42 55L43 55L43 57L44 57L44 54L45 54L45 53L47 53L47 51L46 51L46 50L45 50L45 49L44 49L44 48L45 48L45 47L46 47L46 49L47 49L47 50L48 50L48 54L46 54L46 55L49 55L49 56L50 56L50 57L52 57L52 55L51 55L51 53L52 53L52 54L53 54L53 55L54 55L54 56L53 56L53 57L54 57L54 56L55 56L55 57L56 57L56 56L55 56L55 52L56 52L56 53L57 53L57 51L54 51L54 50L57 50L57 48L56 48L56 46L57 46L57 45L56 45L56 44L55 44L55 43L56 43L56 42L55 42L55 39L57 39L57 37L55 37L55 36L57 36L57 35L56 35L56 34L55 34L55 32L56 32L56 33L57 33L57 32L56 32L56 30L57 30L57 29L54 29L54 28L56 28L56 26L57 26L57 25L56 25L56 22L57 22L57 19L56 19L56 18L57 18L57 17L56 17L56 16L57 16L57 15L56 15L56 14L57 14L57 13L56 13L56 12L57 12L57 11L56 11L56 8L55 8L55 10L54 10L54 11L52 11L52 10L51 10L51 11L50 11L50 12L49 12L49 13L47 13L47 14L44 14L44 15L42 15L42 16L41 16L41 14L43 14L43 13L44 13L44 12L43 12L43 13L41 13L41 14L40 14L40 13L39 13L39 12L41 12L41 10L43 10L43 9L44 9L44 11L45 11L45 12L47 12L47 11L48 11L48 10L50 10L50 8L49 8L49 6L48 6L48 7L47 7L47 5L48 5L48 0L46 0L46 1L47 1L47 2L44 2L44 3L42 3L42 2L43 2L43 0L41 0L41 1L40 1L40 0L39 0L39 1L38 1L38 0L37 0L37 1L38 1L38 2L37 2L37 3L36 3L36 0L35 0L35 1L33 1L33 0L27 0L27 1L26 1L26 0L23 0L23 1L22 1L22 0L21 0L21 1L20 1L20 0L17 0L17 1L16 1L16 2L17 2L17 6L16 6L16 7L15 7L15 6L14 6L14 7L13 7L13 4L14 4L14 2L15 2L15 1L14 1L14 2L12 2L12 0ZM17 1L17 2L18 2L18 3L19 3L19 4L23 4L23 5L21 5L21 8L19 8L19 7L20 7L20 5L18 5L18 6L17 6L17 7L16 7L16 8L14 8L14 9L13 9L13 10L11 10L11 9L12 9L12 5L10 5L10 6L9 6L9 7L10 7L10 6L11 6L11 8L9 8L9 10L8 10L8 11L10 11L10 12L8 12L8 13L9 13L9 14L7 14L7 13L6 13L6 12L7 12L7 11L6 11L6 12L5 12L5 13L4 13L4 14L3 14L3 12L1 12L1 13L2 13L2 14L3 14L3 15L4 15L4 14L5 14L5 15L6 15L6 16L5 16L5 17L6 17L6 18L5 18L5 19L4 19L4 16L3 16L3 19L4 19L4 20L5 20L5 19L6 19L6 20L8 20L8 21L9 21L9 20L10 20L10 19L11 19L11 18L13 18L13 19L14 19L14 20L11 20L11 22L10 22L10 23L9 23L9 24L10 24L10 25L11 25L11 28L9 28L9 33L10 33L10 32L12 32L12 34L10 34L10 35L9 35L9 36L10 36L10 37L8 37L8 38L10 38L10 39L11 39L11 41L12 41L12 42L13 42L13 44L12 44L12 46L11 46L11 47L12 47L12 48L11 48L11 49L14 49L14 47L12 47L12 46L14 46L14 45L15 45L15 50L17 50L17 51L15 51L15 52L14 52L14 53L15 53L15 54L16 54L16 53L17 53L17 52L18 52L18 51L19 51L19 50L17 50L17 47L20 47L20 48L19 48L19 49L20 49L20 48L21 48L21 49L23 49L23 48L24 48L24 49L25 49L25 48L30 48L30 47L29 47L29 46L31 46L31 45L32 45L32 46L35 46L35 48L33 48L33 47L31 47L31 48L32 48L32 49L31 49L31 50L32 50L32 51L33 51L33 52L34 52L34 53L33 53L33 54L34 54L34 55L35 55L35 56L36 56L36 54L35 54L35 51L34 51L34 50L36 50L36 52L37 52L37 53L38 53L38 54L40 54L40 53L42 53L42 52L40 52L40 51L39 51L39 52L38 52L38 50L41 50L41 51L42 51L42 50L41 50L41 48L42 48L42 49L43 49L43 48L44 48L44 45L45 45L45 46L47 46L47 47L48 47L48 48L47 48L47 49L48 49L48 48L49 48L49 47L51 47L51 46L52 46L52 48L53 48L53 43L54 43L54 42L53 42L53 41L51 41L51 42L50 42L50 43L49 43L49 42L48 42L48 41L49 41L49 39L47 39L47 37L48 37L48 38L49 38L49 37L50 37L50 39L51 39L51 40L53 40L53 35L55 35L55 34L54 34L54 33L52 33L52 32L53 32L53 31L51 31L51 33L52 33L52 34L50 34L50 32L49 32L49 31L48 31L48 29L46 29L46 30L47 30L47 31L48 31L48 32L46 32L46 33L45 33L45 32L43 32L43 31L44 31L44 30L45 30L45 28L46 28L46 27L48 27L48 26L47 26L47 25L49 25L49 26L53 26L53 27L54 27L54 26L53 26L53 24L51 24L51 23L50 23L50 22L51 22L51 21L53 21L53 22L56 22L56 21L55 21L55 20L56 20L56 19L55 19L55 20L53 20L53 19L52 19L52 18L56 18L56 17L55 17L55 16L52 16L52 15L50 15L50 14L51 14L51 12L50 12L50 14L49 14L49 15L48 15L48 16L49 16L49 17L50 17L50 19L52 19L52 20L51 20L51 21L49 21L49 23L48 23L48 24L47 24L47 23L46 23L46 22L47 22L47 21L48 21L48 20L47 20L47 19L48 19L48 18L47 18L47 17L45 17L45 15L44 15L44 18L43 18L43 20L44 20L44 26L42 26L42 28L38 28L38 29L37 29L37 30L36 30L36 31L33 31L33 30L35 30L35 28L33 28L33 27L34 27L34 26L36 26L36 27L39 27L39 25L40 25L40 26L41 26L41 24L38 24L38 23L40 23L40 22L39 22L39 21L42 21L42 20L39 20L39 21L38 21L38 22L37 22L37 24L38 24L38 26L37 26L37 25L33 25L33 24L32 24L32 23L33 23L33 22L34 22L34 23L35 23L35 21L33 21L33 20L32 20L32 21L31 21L31 24L32 24L32 26L31 26L31 28L32 28L32 29L33 29L33 30L31 30L31 31L30 31L30 32L29 32L29 31L27 31L27 35L26 35L26 33L25 33L25 32L21 32L21 33L20 33L20 34L19 34L19 33L15 33L15 32L20 32L20 31L25 31L25 30L23 30L23 26L22 26L22 25L24 25L24 24L25 24L25 25L26 25L26 26L25 26L25 27L26 27L26 26L27 26L27 25L28 25L28 26L30 26L30 25L29 25L29 23L28 23L28 24L25 24L25 23L26 23L26 22L25 22L25 21L24 21L24 20L23 20L23 19L24 19L24 18L22 18L22 17L28 17L28 16L29 16L29 14L30 14L30 15L31 15L31 16L32 16L32 17L31 17L31 18L30 18L30 19L33 19L33 18L35 18L35 19L34 19L34 20L35 20L35 19L36 19L36 20L37 20L37 19L39 19L39 17L41 17L41 16L39 16L39 15L38 15L38 14L39 14L39 13L38 13L38 14L37 14L37 15L35 15L35 16L32 16L32 15L31 15L31 14L32 14L32 13L33 13L33 14L36 14L36 13L35 13L35 12L36 12L36 10L37 10L37 11L38 11L38 10L39 10L39 9L43 9L43 8L44 8L44 9L46 9L46 10L45 10L45 11L46 11L46 10L47 10L47 9L48 9L48 8L44 8L44 6L45 6L45 7L46 7L46 5L47 5L47 3L44 3L44 6L43 6L43 7L42 7L42 5L40 5L40 4L41 4L41 3L37 3L37 4L36 4L36 5L35 5L35 3L32 3L32 1L30 1L30 3L32 3L32 4L31 4L31 8L32 8L32 10L31 10L31 11L30 11L30 10L28 10L28 11L29 11L29 12L28 12L28 13L26 13L26 12L27 12L27 11L26 11L26 12L25 12L25 10L23 10L23 9L24 9L24 6L23 6L23 5L24 5L24 4L23 4L23 3L26 3L26 4L25 4L25 8L26 8L26 4L29 4L29 3L28 3L28 2L29 2L29 1L27 1L27 2L26 2L26 1L25 1L25 2L22 2L22 3L21 3L21 2L18 2L18 1ZM11 2L11 3L12 3L12 4L13 4L13 3L12 3L12 2ZM15 4L15 5L16 5L16 4ZM32 4L32 5L34 5L34 7L33 7L33 6L32 6L32 7L33 7L33 9L34 9L34 8L35 8L35 9L37 9L37 10L38 10L38 9L39 9L39 8L40 8L40 7L41 7L41 6L40 6L40 5L39 5L39 6L38 6L38 7L37 7L37 5L38 5L38 4L37 4L37 5L36 5L36 7L37 7L37 8L35 8L35 5L34 5L34 4ZM45 4L45 5L46 5L46 4ZM27 5L27 8L30 8L30 5ZM18 6L18 7L19 7L19 6ZM22 6L22 8L23 8L23 6ZM28 6L28 7L29 7L29 6ZM39 6L39 7L40 7L40 6ZM0 8L0 9L3 9L3 10L4 10L4 9L5 9L5 8ZM16 8L16 9L15 9L15 10L13 10L13 11L14 11L14 12L12 12L12 13L15 13L15 14L13 14L13 15L11 15L11 14L9 14L9 15L8 15L8 17L7 17L7 16L6 16L6 17L7 17L7 18L6 18L6 19L7 19L7 18L8 18L8 19L10 19L10 18L9 18L9 17L11 17L11 16L12 16L12 17L13 17L13 18L14 18L14 16L16 16L16 17L18 17L18 18L16 18L16 19L17 19L17 21L16 21L16 20L15 20L15 21L16 21L16 22L14 22L14 21L12 21L12 23L13 23L13 22L14 22L14 23L16 23L16 24L14 24L14 25L17 25L17 27L18 27L18 26L19 26L19 29L18 29L18 28L16 28L16 29L15 29L15 28L13 28L13 27L16 27L16 26L12 26L12 28L11 28L11 30L13 30L13 29L14 29L14 30L15 30L15 31L14 31L14 32L13 32L13 31L12 31L12 32L13 32L13 33L14 33L14 35L15 35L15 36L13 36L13 37L14 37L14 38L11 38L11 37L10 37L10 38L11 38L11 39L13 39L13 40L12 40L12 41L13 41L13 42L15 42L15 44L18 44L18 45L17 45L17 46L20 46L20 45L19 45L19 44L20 44L20 43L19 43L19 42L20 42L20 41L19 41L19 40L22 40L22 38L23 38L23 39L24 39L24 40L23 40L23 41L24 41L24 42L22 42L22 41L21 41L21 42L22 42L22 43L21 43L21 44L22 44L22 45L21 45L21 47L23 47L23 46L24 46L24 47L25 47L25 44L27 44L27 43L25 43L25 41L24 41L24 40L25 40L25 39L27 39L27 40L28 40L28 41L29 41L29 43L28 43L28 44L30 44L30 45L31 45L31 44L33 44L33 43L34 43L34 45L36 45L36 46L37 46L37 47L36 47L36 48L35 48L35 49L36 49L36 50L38 50L38 49L39 49L39 48L41 48L41 46L43 46L43 45L44 45L44 44L45 44L45 45L47 45L47 43L48 43L48 42L47 42L47 43L46 43L46 42L45 42L45 41L44 41L44 40L45 40L45 39L46 39L46 40L47 40L47 39L46 39L46 38L45 38L45 37L46 37L46 34L45 34L45 33L43 33L43 32L41 32L41 33L39 33L39 34L40 34L40 35L39 35L39 37L40 37L40 38L41 38L41 39L39 39L39 38L38 38L38 37L37 37L37 36L38 36L38 33L37 33L37 32L35 32L35 34L34 34L34 36L35 36L35 39L33 39L33 37L32 37L32 36L33 36L33 35L32 35L32 34L31 34L31 33L32 33L32 31L31 31L31 33L29 33L29 32L28 32L28 33L29 33L29 34L30 34L30 36L29 36L29 37L31 37L31 38L29 38L29 39L33 39L33 40L35 40L35 42L37 42L37 43L36 43L36 44L35 44L35 43L34 43L34 42L33 42L33 41L32 41L32 40L28 40L28 39L27 39L27 38L28 38L28 37L26 37L26 38L25 38L25 36L26 36L26 35L25 35L25 33L23 33L23 34L24 34L24 36L23 36L23 37L19 37L19 36L20 36L20 35L19 35L19 34L17 34L17 35L16 35L16 34L15 34L15 33L14 33L14 32L15 32L15 31L16 31L16 29L18 29L18 30L17 30L17 31L20 31L20 29L22 29L22 28L20 28L20 25L22 25L22 24L17 24L17 22L18 22L18 21L20 21L20 19L21 19L21 20L22 20L22 19L21 19L21 18L20 18L20 17L22 17L22 16L20 16L20 17L19 17L19 16L18 16L18 15L19 15L19 14L20 14L20 15L23 15L23 16L26 16L26 14L25 14L25 12L24 12L24 11L23 11L23 10L22 10L22 9L21 9L21 10L22 10L22 11L20 11L20 13L19 13L19 10L20 10L20 9L19 9L19 8ZM37 8L37 9L38 9L38 8ZM51 8L51 9L52 9L52 8ZM53 8L53 9L54 9L54 8ZM16 9L16 10L15 10L15 11L16 11L16 12L15 12L15 13L16 13L16 16L17 16L17 13L18 13L18 12L17 12L17 11L18 11L18 10L19 10L19 9L18 9L18 10L17 10L17 9ZM10 10L10 11L11 11L11 10ZM16 10L16 11L17 11L17 10ZM32 10L32 12L31 12L31 13L30 13L30 14L31 14L31 13L32 13L32 12L33 12L33 13L34 13L34 12L33 12L33 10ZM16 12L16 13L17 13L17 12ZM21 12L21 13L20 13L20 14L21 14L21 13L22 13L22 14L23 14L23 13L24 13L24 12L23 12L23 13L22 13L22 12ZM52 12L52 13L53 13L53 14L56 14L56 13L55 13L55 12L54 12L54 13L53 13L53 12ZM5 13L5 14L6 14L6 15L7 15L7 14L6 14L6 13ZM28 13L28 14L29 14L29 13ZM13 15L13 16L14 16L14 15ZM27 15L27 16L28 16L28 15ZM35 16L35 17L37 17L37 18L38 18L38 17L39 17L39 16L38 16L38 17L37 17L37 16ZM42 16L42 17L43 17L43 16ZM50 16L50 17L52 17L52 16ZM0 17L0 18L1 18L1 17ZM32 17L32 18L33 18L33 17ZM26 18L26 21L30 21L30 20L29 20L29 19L28 19L28 18ZM41 18L41 19L42 19L42 18ZM44 18L44 20L45 20L45 18ZM46 18L46 19L47 19L47 18ZM1 20L1 21L2 21L2 20ZM23 21L23 22L22 22L22 23L23 23L23 24L24 24L24 23L23 23L23 22L24 22L24 21ZM45 21L45 22L46 22L46 21ZM7 22L7 23L6 23L6 24L7 24L7 25L5 25L5 26L8 26L8 22ZM19 22L19 23L20 23L20 22ZM10 23L10 24L11 24L11 23ZM45 23L45 24L46 24L46 25L47 25L47 24L46 24L46 23ZM49 23L49 25L51 25L51 24L50 24L50 23ZM42 24L42 25L43 25L43 24ZM9 26L9 27L10 27L10 26ZM21 26L21 27L22 27L22 26ZM32 26L32 27L33 27L33 26ZM44 26L44 28L43 28L43 29L41 29L41 30L43 30L43 29L44 29L44 28L45 28L45 27L46 27L46 26ZM5 27L5 30L8 30L8 27ZM27 27L27 30L30 30L30 27ZM49 27L49 30L52 30L52 27ZM6 28L6 29L7 29L7 28ZM25 28L25 29L26 29L26 28ZM28 28L28 29L29 29L29 28ZM50 28L50 29L51 29L51 28ZM39 29L39 30L38 30L38 32L39 32L39 30L40 30L40 29ZM53 29L53 30L54 30L54 31L55 31L55 30L54 30L54 29ZM6 31L6 32L7 32L7 31ZM33 32L33 33L34 33L34 32ZM48 32L48 33L49 33L49 32ZM3 33L3 34L4 34L4 33ZM6 33L6 34L7 34L7 35L5 35L5 36L8 36L8 33ZM21 33L21 34L22 34L22 33ZM35 34L35 36L37 36L37 34ZM42 34L42 35L41 35L41 36L40 36L40 37L41 37L41 38L42 38L42 39L41 39L41 40L38 40L38 38L37 38L37 39L35 39L35 40L38 40L38 42L39 42L39 43L40 43L40 44L39 44L39 45L38 45L38 46L39 46L39 45L41 45L41 44L42 44L42 42L41 42L41 41L42 41L42 40L44 40L44 39L45 39L45 38L44 38L44 37L45 37L45 36L44 36L44 35L45 35L45 34ZM48 34L48 35L50 35L50 37L52 37L52 35L53 35L53 34L52 34L52 35L50 35L50 34ZM10 35L10 36L11 36L11 35ZM17 35L17 36L15 36L15 37L16 37L16 38L14 38L14 39L16 39L16 40L14 40L14 41L15 41L15 42L17 42L17 43L18 43L18 42L19 42L19 41L18 41L18 40L17 40L17 39L18 39L18 38L17 38L17 36L18 36L18 35ZM21 35L21 36L22 36L22 35ZM41 36L41 37L42 37L42 38L43 38L43 37L44 37L44 36ZM48 36L48 37L49 37L49 36ZM1 37L1 40L3 40L3 38L2 38L2 37ZM6 37L6 38L7 38L7 37ZM23 37L23 38L24 38L24 37ZM19 38L19 39L20 39L20 38ZM54 38L54 39L55 39L55 38ZM6 40L6 41L8 41L8 43L10 43L10 42L9 42L9 41L8 41L8 40ZM17 41L17 42L18 42L18 41ZM26 41L26 42L27 42L27 41ZM31 41L31 42L32 42L32 43L33 43L33 42L32 42L32 41ZM39 41L39 42L40 42L40 41ZM43 41L43 44L44 44L44 41ZM51 42L51 43L50 43L50 45L51 45L51 43L53 43L53 42ZM23 43L23 45L22 45L22 46L23 46L23 45L24 45L24 43ZM45 43L45 44L46 44L46 43ZM54 44L54 45L55 45L55 46L54 46L54 47L55 47L55 46L56 46L56 45L55 45L55 44ZM26 45L26 47L28 47L28 46L27 46L27 45ZM48 45L48 47L49 47L49 45ZM3 46L3 47L5 47L5 46ZM38 47L38 48L37 48L37 49L38 49L38 48L39 48L39 47ZM42 47L42 48L43 48L43 47ZM54 48L54 49L56 49L56 48ZM27 49L27 52L30 52L30 49ZM49 49L49 52L52 52L52 49ZM12 50L12 51L14 51L14 50ZM28 50L28 51L29 51L29 50ZM44 50L44 51L45 51L45 52L44 52L44 53L43 53L43 54L44 54L44 53L45 53L45 52L46 52L46 51L45 51L45 50ZM50 50L50 51L51 51L51 50ZM15 52L15 53L16 53L16 52ZM53 52L53 53L54 53L54 52ZM24 53L24 54L23 54L23 55L24 55L24 56L25 56L25 54L26 54L26 53ZM17 54L17 56L18 56L18 54ZM50 55L50 56L51 56L51 55ZM14 56L14 57L15 57L15 56ZM45 56L45 57L46 57L46 56ZM0 0L0 7L7 7L7 0ZM1 1L1 6L6 6L6 1ZM2 2L2 5L5 5L5 2ZM50 0L50 7L57 7L57 0ZM51 1L51 6L56 6L56 1ZM52 2L52 5L55 5L55 2ZM0 50L0 57L7 57L7 50ZM1 51L1 56L6 56L6 51ZM2 52L2 55L5 55L5 52Z" fill="#000000"/></g></g></svg>
