<?xml version="1.0" encoding="UTF-8"?>
<svg xmlns="http://www.w3.org/2000/svg" version="1.1" width="300" height="300" viewBox="0 0 300 300"><rect x="0" y="0" width="300" height="300" fill="#fefefe"/><g transform="scale(4.615)"><g transform="translate(4,4)"><path fill-rule="evenodd" d="M8 0L8 1L10 1L10 2L8 2L8 5L10 5L10 7L11 7L11 8L10 8L10 9L9 9L9 8L8 8L8 9L9 9L9 10L10 10L10 11L8 11L8 10L6 10L6 11L7 11L7 12L5 12L5 11L3 11L3 10L4 10L4 8L0 8L0 9L1 9L1 11L2 11L2 13L0 13L0 17L1 17L1 19L0 19L0 20L1 20L1 19L3 19L3 17L1 17L1 14L2 14L2 15L3 15L3 13L7 13L7 14L5 14L5 15L7 15L7 14L8 14L8 13L9 13L9 12L10 12L10 11L11 11L11 12L13 12L13 13L11 13L11 14L10 14L10 15L8 15L8 16L6 16L6 17L5 17L5 16L4 16L4 17L5 17L5 18L4 18L4 19L5 19L5 18L6 18L6 19L7 19L7 18L6 18L6 17L8 17L8 20L6 20L6 21L5 21L5 22L6 22L6 23L4 23L4 24L3 24L3 22L4 22L4 21L3 21L3 22L1 22L1 24L2 24L2 25L4 25L4 28L3 28L3 26L2 26L2 27L0 27L0 28L1 28L1 30L0 30L0 33L1 33L1 32L3 32L3 33L2 33L2 34L0 34L0 35L1 35L1 36L0 36L0 38L1 38L1 37L2 37L2 36L4 36L4 34L6 34L6 35L7 35L7 36L6 36L6 37L7 37L7 38L6 38L6 39L5 39L5 38L4 38L4 37L3 37L3 38L2 38L2 40L4 40L4 39L5 39L5 40L6 40L6 41L5 41L5 42L3 42L3 41L1 41L1 43L0 43L0 48L5 48L5 47L8 47L8 48L6 48L6 49L8 49L8 50L9 50L9 53L8 53L8 57L13 57L13 56L12 56L12 55L13 55L13 50L11 50L11 51L10 51L10 50L9 50L9 49L10 49L10 48L11 48L11 46L10 46L10 47L9 47L9 46L8 46L8 45L7 45L7 44L6 44L6 43L8 43L8 42L9 42L9 41L10 41L10 45L11 45L11 43L12 43L12 44L14 44L14 43L15 43L15 45L14 45L14 46L13 46L13 47L14 47L14 48L15 48L15 49L14 49L14 50L15 50L15 52L16 52L16 48L17 48L17 51L18 51L18 50L19 50L19 55L20 55L20 56L21 56L21 57L24 57L24 56L26 56L26 53L29 53L29 54L31 54L31 55L30 55L30 56L31 56L31 57L32 57L32 55L34 55L34 56L33 56L33 57L36 57L36 55L37 55L37 54L36 54L36 53L33 53L33 51L32 51L32 50L31 50L31 49L32 49L32 48L26 48L26 47L25 47L25 45L26 45L26 46L27 46L27 47L29 47L29 46L32 46L32 42L33 42L33 45L34 45L34 44L35 44L35 45L36 45L36 47L38 47L38 45L39 45L39 44L40 44L40 45L41 45L41 46L40 46L40 47L43 47L43 54L42 54L42 53L41 53L41 54L40 54L40 52L42 52L42 51L40 51L40 52L39 52L39 54L38 54L38 57L43 57L43 55L44 55L44 56L46 56L46 57L47 57L47 56L46 56L46 55L44 55L44 54L47 54L47 55L49 55L49 56L48 56L48 57L51 57L51 54L52 54L52 53L54 53L54 54L53 54L53 56L52 56L52 57L55 57L55 56L54 56L54 55L55 55L55 54L56 54L56 53L57 53L57 51L55 51L55 50L53 50L53 49L55 49L55 48L54 48L54 46L55 46L55 47L57 47L57 44L52 44L52 43L53 43L53 42L54 42L54 43L56 43L56 42L54 42L54 41L53 41L53 40L55 40L55 38L56 38L56 39L57 39L57 38L56 38L56 37L57 37L57 36L54 36L54 35L55 35L55 34L56 34L56 35L57 35L57 31L56 31L56 30L57 30L57 27L56 27L56 30L55 30L55 27L53 27L53 26L52 26L52 25L51 25L51 24L54 24L54 25L56 25L56 24L54 24L54 23L57 23L57 21L56 21L56 20L57 20L57 19L56 19L56 20L54 20L54 21L53 21L53 20L50 20L50 18L49 18L49 20L47 20L47 19L48 19L48 14L47 14L47 16L46 16L46 17L45 17L45 16L44 16L44 15L45 15L45 14L46 14L46 13L45 13L45 14L42 14L42 17L41 17L41 18L39 18L39 19L40 19L40 20L37 20L37 19L36 19L36 20L35 20L35 17L34 17L34 16L35 16L35 15L33 15L33 14L34 14L34 12L35 12L35 14L36 14L36 15L39 15L39 17L40 17L40 16L41 16L41 13L40 13L40 15L39 15L39 11L40 11L40 10L41 10L41 11L42 11L42 12L43 12L43 13L44 13L44 10L45 10L45 11L47 11L47 12L48 12L48 11L49 11L49 17L50 17L50 15L51 15L51 18L52 18L52 19L55 19L55 17L56 17L56 18L57 18L57 15L55 15L55 14L54 14L54 10L53 10L53 9L55 9L55 8L52 8L52 9L51 9L51 10L53 10L53 13L52 13L52 12L51 12L51 11L50 11L50 10L49 10L49 9L50 9L50 8L49 8L49 9L47 9L47 8L48 8L48 7L49 7L49 6L48 6L48 7L47 7L47 5L48 5L48 0L46 0L46 1L47 1L47 2L46 2L46 3L47 3L47 5L46 5L46 7L45 7L45 6L44 6L44 7L43 7L43 5L45 5L45 4L44 4L44 3L45 3L45 1L44 1L44 2L41 2L41 1L43 1L43 0L41 0L41 1L40 1L40 0L39 0L39 1L40 1L40 2L41 2L41 3L43 3L43 5L42 5L42 7L41 7L41 4L38 4L38 3L39 3L39 2L37 2L37 1L38 1L38 0L37 0L37 1L36 1L36 0L35 0L35 1L34 1L34 2L33 2L33 0L32 0L32 2L31 2L31 0L30 0L30 2L29 2L29 1L28 1L28 2L27 2L27 3L28 3L28 2L29 2L29 3L30 3L30 4L26 4L26 1L25 1L25 0L23 0L23 1L22 1L22 0L21 0L21 1L22 1L22 2L23 2L23 1L25 1L25 2L24 2L24 3L23 3L23 6L22 6L22 8L21 8L21 10L20 10L20 7L21 7L21 5L22 5L22 4L21 4L21 5L20 5L20 4L19 4L19 3L21 3L21 2L19 2L19 1L20 1L20 0L19 0L19 1L18 1L18 0L17 0L17 1L18 1L18 2L19 2L19 3L18 3L18 5L15 5L15 4L14 4L14 3L13 3L13 1L14 1L14 0L12 0L12 1L10 1L10 0ZM35 1L35 2L36 2L36 1ZM15 2L15 3L16 3L16 2ZM30 2L30 3L31 3L31 2ZM9 3L9 4L11 4L11 3ZM12 3L12 4L13 4L13 7L14 7L14 4L13 4L13 3ZM32 3L32 4L31 4L31 5L32 5L32 6L31 6L31 9L32 9L32 10L29 10L29 9L28 9L28 10L26 10L26 11L25 11L25 12L24 12L24 13L22 13L22 12L23 12L23 11L19 11L19 8L17 8L17 7L18 7L18 6L17 6L17 7L16 7L16 6L15 6L15 8L12 8L12 10L11 10L11 11L12 11L12 10L14 10L14 11L15 11L15 15L16 15L16 16L15 16L15 17L17 17L17 18L13 18L13 19L12 19L12 20L11 20L11 18L12 18L12 14L11 14L11 15L10 15L10 16L11 16L11 18L10 18L10 19L9 19L9 20L10 20L10 21L11 21L11 22L9 22L9 21L6 21L6 22L8 22L8 23L10 23L10 24L8 24L8 26L9 26L9 25L10 25L10 24L11 24L11 22L12 22L12 21L13 21L13 19L16 19L16 20L14 20L14 22L13 22L13 23L12 23L12 25L11 25L11 26L10 26L10 27L11 27L11 28L13 28L13 30L16 30L16 35L17 35L17 36L15 36L15 35L14 35L14 34L15 34L15 33L13 33L13 34L9 34L9 35L10 35L10 36L8 36L8 38L9 38L9 37L11 37L11 38L10 38L10 39L11 39L11 38L12 38L12 39L14 39L14 40L15 40L15 41L17 41L17 42L15 42L15 43L17 43L17 45L15 45L15 46L14 46L14 47L15 47L15 46L16 46L16 47L17 47L17 48L18 48L18 46L17 46L17 45L19 45L19 43L18 43L18 41L19 41L19 42L21 42L21 44L22 44L22 46L21 46L21 45L20 45L20 46L19 46L19 48L20 48L20 49L21 49L21 50L20 50L20 51L22 51L22 49L23 49L23 52L22 52L22 53L20 53L20 55L21 55L21 54L22 54L22 53L23 53L23 52L24 52L24 53L25 53L25 52L26 52L26 50L25 50L25 48L24 48L24 47L23 47L23 48L21 48L21 47L22 47L22 46L23 46L23 45L25 45L25 43L26 43L26 45L27 45L27 46L29 46L29 44L28 44L28 45L27 45L27 42L25 42L25 41L26 41L26 40L27 40L27 41L28 41L28 40L29 40L29 41L30 41L30 42L31 42L31 40L33 40L33 39L32 39L32 38L33 38L33 36L36 36L36 35L35 35L35 31L33 31L33 29L31 29L31 30L32 30L32 31L31 31L31 34L30 34L30 35L29 35L29 33L30 33L30 31L29 31L29 32L28 32L28 31L26 31L26 32L25 32L25 34L24 34L24 35L22 35L22 34L23 34L23 33L24 33L24 32L23 32L23 33L22 33L22 34L21 34L21 33L20 33L20 32L18 32L18 33L17 33L17 31L19 31L19 30L21 30L21 32L22 32L22 31L24 31L24 30L26 30L26 28L25 28L25 25L27 25L27 26L28 26L28 25L29 25L29 23L30 23L30 24L31 24L31 23L32 23L32 22L34 22L34 23L33 23L33 24L32 24L32 25L33 25L33 24L35 24L35 23L36 23L36 24L37 24L37 23L38 23L38 22L39 22L39 21L38 21L38 22L35 22L35 21L33 21L33 18L31 18L31 17L32 17L32 16L29 16L29 15L28 15L28 16L29 16L29 17L26 17L26 16L27 16L27 15L26 15L26 16L25 16L25 17L24 17L24 18L23 18L23 16L24 16L24 14L26 14L26 12L28 12L28 13L30 13L30 14L31 14L31 12L32 12L32 13L33 13L33 10L34 10L34 11L35 11L35 12L38 12L38 11L39 11L39 10L40 10L40 9L39 9L39 7L40 7L40 8L41 8L41 9L42 9L42 8L41 8L41 7L40 7L40 5L36 5L36 4L34 4L34 5L33 5L33 3ZM24 4L24 6L23 6L23 7L24 7L24 8L23 8L23 9L24 9L24 8L25 8L25 9L26 9L26 6L25 6L25 5L26 5L26 4ZM11 5L11 7L12 7L12 5ZM27 5L27 8L30 8L30 5ZM8 6L8 7L9 7L9 6ZM19 6L19 7L20 7L20 6ZM24 6L24 7L25 7L25 6ZM28 6L28 7L29 7L29 6ZM32 6L32 8L33 8L33 6ZM34 6L34 9L36 9L36 8L37 8L37 6L36 6L36 7L35 7L35 6ZM38 6L38 7L39 7L39 6ZM44 7L44 8L43 8L43 10L44 10L44 9L45 9L45 7ZM6 8L6 9L7 9L7 8ZM56 8L56 9L57 9L57 8ZM17 9L17 10L16 10L16 13L17 13L17 12L18 12L18 13L19 13L19 14L18 14L18 15L20 15L20 16L19 16L19 17L21 17L21 19L20 19L20 18L18 18L18 19L19 19L19 20L21 20L21 22L19 22L19 21L18 21L18 20L16 20L16 23L15 23L15 22L14 22L14 23L13 23L13 25L15 25L15 27L16 27L16 25L15 25L15 24L16 24L16 23L18 23L18 24L17 24L17 27L19 27L19 26L18 26L18 25L20 25L20 26L21 26L21 24L20 24L20 23L21 23L21 22L22 22L22 24L24 24L24 25L25 25L25 22L27 22L27 23L26 23L26 24L27 24L27 23L29 23L29 22L27 22L27 21L30 21L30 23L31 23L31 21L30 21L30 20L32 20L32 19L30 19L30 17L29 17L29 18L28 18L28 19L25 19L25 18L24 18L24 19L25 19L25 22L24 22L24 21L23 21L23 19L22 19L22 17L21 17L21 15L20 15L20 14L21 14L21 13L19 13L19 12L18 12L18 9ZM37 9L37 10L38 10L38 9ZM46 9L46 10L47 10L47 11L48 11L48 10L47 10L47 9ZM28 10L28 11L29 11L29 10ZM35 10L35 11L36 11L36 10ZM55 10L55 13L57 13L57 12L56 12L56 11L57 11L57 10ZM30 11L30 12L31 12L31 11ZM7 12L7 13L8 13L8 12ZM50 12L50 13L51 13L51 15L52 15L52 17L53 17L53 18L54 18L54 17L55 17L55 16L54 16L54 17L53 17L53 15L54 15L54 14L52 14L52 13L51 13L51 12ZM13 13L13 16L14 16L14 13ZM16 14L16 15L17 15L17 14ZM36 17L36 18L37 18L37 17ZM42 17L42 18L41 18L41 19L42 19L42 18L43 18L43 21L44 21L44 22L45 22L45 19L47 19L47 18L45 18L45 17ZM44 18L44 19L45 19L45 18ZM21 19L21 20L22 20L22 19ZM28 19L28 20L29 20L29 19ZM26 20L26 21L27 21L27 20ZM36 20L36 21L37 21L37 20ZM41 20L41 21L42 21L42 20ZM49 20L49 22L48 22L48 21L46 21L46 22L47 22L47 23L50 23L50 24L51 24L51 23L52 23L52 22L51 22L51 21L50 21L50 20ZM17 21L17 22L18 22L18 23L19 23L19 22L18 22L18 21ZM54 21L54 22L56 22L56 21ZM42 22L42 24L41 24L41 23L40 23L40 24L38 24L38 25L40 25L40 26L41 26L41 27L39 27L39 26L38 26L38 27L39 27L39 28L40 28L40 29L38 29L38 30L37 30L37 27L36 27L36 28L34 28L34 29L36 29L36 31L37 31L37 32L36 32L36 33L37 33L37 32L38 32L38 34L39 34L39 31L38 31L38 30L40 30L40 32L41 32L41 31L43 31L43 29L42 29L42 30L41 30L41 27L42 27L42 28L44 28L44 27L42 27L42 26L44 26L44 25L46 25L46 26L45 26L45 30L44 30L44 33L45 33L45 36L44 36L44 37L43 37L43 36L41 36L41 35L42 35L42 34L41 34L41 35L37 35L37 37L34 37L34 38L36 38L36 39L35 39L35 40L34 40L34 41L36 41L36 42L34 42L34 43L36 43L36 45L38 45L38 44L39 44L39 43L42 43L42 45L43 45L43 46L45 46L45 48L44 48L44 51L45 51L45 50L46 50L46 51L47 51L47 52L48 52L48 48L47 48L47 47L46 47L46 46L48 46L48 47L49 47L49 48L50 48L50 46L51 46L51 48L53 48L53 47L52 47L52 46L54 46L54 45L50 45L50 44L51 44L51 42L50 42L50 41L52 41L52 40L53 40L53 39L52 39L52 40L50 40L50 41L47 41L47 40L49 40L49 39L51 39L51 38L48 38L48 37L50 37L50 36L48 36L48 35L47 35L47 34L50 34L50 33L49 33L49 32L51 32L51 31L49 31L49 32L48 32L48 29L47 29L47 33L46 33L46 31L45 31L45 30L46 30L46 26L49 26L49 25L47 25L47 24L45 24L45 23L44 23L44 25L42 25L42 24L43 24L43 22ZM6 23L6 24L5 24L5 25L6 25L6 26L7 26L7 25L6 25L6 24L7 24L7 23ZM14 23L14 24L15 24L15 23ZM0 25L0 26L1 26L1 25ZM22 25L22 27L24 27L24 26L23 26L23 25ZM30 25L30 26L31 26L31 25ZM34 25L34 27L35 27L35 25ZM11 26L11 27L13 27L13 28L14 28L14 27L13 27L13 26ZM5 27L5 30L8 30L8 27ZM20 27L20 28L18 28L18 29L20 29L20 28L21 28L21 27ZM27 27L27 30L30 30L30 27ZM32 27L32 28L33 28L33 27ZM47 27L47 28L48 28L48 27ZM49 27L49 30L52 30L52 27ZM6 28L6 29L7 29L7 28ZM9 28L9 29L10 29L10 28ZM15 28L15 29L16 29L16 30L17 30L17 28ZM23 28L23 29L21 29L21 30L24 30L24 29L25 29L25 28ZM28 28L28 29L29 29L29 28ZM50 28L50 29L51 29L51 28ZM53 28L53 29L54 29L54 28ZM2 29L2 30L3 30L3 29ZM11 29L11 30L10 30L10 31L5 31L5 32L7 32L7 33L6 33L6 34L7 34L7 35L8 35L8 34L7 34L7 33L9 33L9 32L10 32L10 33L12 33L12 29ZM53 30L53 31L52 31L52 34L54 34L54 33L53 33L53 31L54 31L54 32L55 32L55 30ZM3 31L3 32L4 32L4 31ZM10 31L10 32L11 32L11 31ZM13 31L13 32L15 32L15 31ZM26 32L26 33L28 33L28 32ZM33 32L33 33L34 33L34 32ZM42 32L42 33L43 33L43 32ZM19 33L19 34L20 34L20 33ZM17 34L17 35L18 35L18 36L17 36L17 37L18 37L18 38L15 38L15 37L14 37L14 35L13 35L13 37L12 37L12 36L11 36L11 37L12 37L12 38L15 38L15 40L16 40L16 39L19 39L19 41L21 41L21 42L22 42L22 44L24 44L24 43L23 43L23 42L24 42L24 41L25 41L25 39L27 39L27 40L28 40L28 39L30 39L30 38L32 38L32 36L33 36L33 34L32 34L32 36L29 36L29 35L28 35L28 34L27 34L27 36L23 36L23 37L22 37L22 38L23 38L23 39L22 39L22 40L21 40L21 38L20 38L20 37L19 37L19 36L21 36L21 35L18 35L18 34ZM43 34L43 35L44 35L44 34ZM46 35L46 36L47 36L47 35ZM51 35L51 36L52 36L52 38L55 38L55 37L53 37L53 36L52 36L52 35ZM27 36L27 37L24 37L24 39L23 39L23 40L22 40L22 41L23 41L23 40L24 40L24 39L25 39L25 38L29 38L29 36ZM39 36L39 37L37 37L37 39L38 39L38 40L37 40L37 41L40 41L40 42L42 42L42 43L43 43L43 42L45 42L45 43L44 43L44 44L47 44L47 43L48 43L48 46L49 46L49 43L50 43L50 42L47 42L47 41L46 41L46 40L47 40L47 39L48 39L48 38L46 38L46 37L45 37L45 39L44 39L44 38L42 38L42 39L41 39L41 37L40 37L40 36ZM38 38L38 39L39 39L39 38ZM6 39L6 40L7 40L7 39ZM8 39L8 41L6 41L6 42L8 42L8 41L9 41L9 39ZM40 39L40 41L42 41L42 42L43 42L43 40L44 40L44 39L42 39L42 40L41 40L41 39ZM45 39L45 40L46 40L46 39ZM10 40L10 41L11 41L11 40ZM56 40L56 41L57 41L57 40ZM12 41L12 42L13 42L13 43L14 43L14 41ZM2 42L2 43L3 43L3 44L5 44L5 43L3 43L3 42ZM37 42L37 44L38 44L38 43L39 43L39 42ZM46 42L46 43L47 43L47 42ZM30 43L30 45L31 45L31 43ZM2 45L2 46L1 46L1 47L2 47L2 46L3 46L3 47L5 47L5 45L4 45L4 46L3 46L3 45ZM6 45L6 46L7 46L7 45ZM55 45L55 46L56 46L56 45ZM34 46L34 47L35 47L35 46ZM8 48L8 49L9 49L9 48ZM23 48L23 49L24 49L24 48ZM33 48L33 50L34 50L34 51L35 51L35 52L36 52L36 51L37 51L37 52L38 52L38 51L39 51L39 50L40 50L40 49L39 49L39 48L38 48L38 49L37 49L37 48L35 48L35 50L34 50L34 48ZM41 48L41 49L42 49L42 48ZM46 48L46 49L47 49L47 48ZM56 48L56 49L57 49L57 48ZM27 49L27 52L30 52L30 49ZM36 49L36 50L37 50L37 49ZM49 49L49 52L52 52L52 49ZM24 50L24 51L25 51L25 50ZM28 50L28 51L29 51L29 50ZM50 50L50 51L51 51L51 50ZM31 51L31 53L32 53L32 51ZM10 52L10 54L9 54L9 55L10 55L10 56L11 56L11 53L12 53L12 52ZM45 52L45 53L46 53L46 52ZM54 52L54 53L56 53L56 52ZM15 53L15 54L14 54L14 55L15 55L15 56L14 56L14 57L15 57L15 56L16 56L16 57L18 57L18 53L17 53L17 54L16 54L16 53ZM47 53L47 54L50 54L50 53ZM23 54L23 55L22 55L22 56L24 56L24 55L25 55L25 54ZM34 54L34 55L36 55L36 54ZM27 55L27 56L28 56L28 55ZM40 55L40 56L42 56L42 55ZM56 55L56 56L57 56L57 55ZM0 0L0 7L7 7L7 0ZM1 1L1 6L6 6L6 1ZM2 2L2 5L5 5L5 2ZM50 0L50 7L57 7L57 0ZM51 1L51 6L56 6L56 1ZM52 2L52 5L55 5L55 2ZM0 50L0 57L7 57L7 50ZM1 51L1 56L6 56L6 51ZM2 52L2 55L5 55L5 52Z" fill="#000000"/></g></g></svg>
