<?xml version="1.0" encoding="UTF-8"?>
<svg xmlns="http://www.w3.org/2000/svg" version="1.1" width="300" height="300" viewBox="0 0 300 300"><rect x="0" y="0" width="300" height="300" fill="#fefefe"/><g transform="scale(4.615)"><g transform="translate(4,4)"><path fill-rule="evenodd" d="M8 0L8 2L9 2L9 1L10 1L10 3L12 3L12 4L11 4L11 6L10 6L10 5L9 5L9 4L8 4L8 9L7 9L7 8L5 8L5 9L3 9L3 8L0 8L0 9L1 9L1 10L0 10L0 13L1 13L1 12L2 12L2 10L5 10L5 9L7 9L7 10L6 10L6 11L5 11L5 12L4 12L4 13L5 13L5 14L3 14L3 15L2 15L2 16L1 16L1 17L0 17L0 19L1 19L1 18L2 18L2 16L3 16L3 17L4 17L4 18L3 18L3 19L2 19L2 20L1 20L1 22L0 22L0 24L1 24L1 25L2 25L2 26L3 26L3 27L4 27L4 28L2 28L2 27L1 27L1 26L0 26L0 27L1 27L1 29L4 29L4 30L3 30L3 31L5 31L5 32L3 32L3 33L1 33L1 34L3 34L3 33L4 33L4 34L5 34L5 35L4 35L4 36L6 36L6 37L5 37L5 38L4 38L4 40L5 40L5 41L4 41L4 43L3 43L3 42L2 42L2 41L1 41L1 42L2 42L2 43L3 43L3 45L4 45L4 46L5 46L5 47L3 47L3 46L2 46L2 45L1 45L1 44L0 44L0 48L5 48L5 47L7 47L7 48L6 48L6 49L7 49L7 48L8 48L8 46L6 46L6 45L8 45L8 43L9 43L9 45L10 45L10 47L9 47L9 49L8 49L8 50L9 50L9 49L10 49L10 50L11 50L11 49L12 49L12 47L13 47L13 48L14 48L14 49L13 49L13 50L12 50L12 51L13 51L13 52L14 52L14 55L13 55L13 53L12 53L12 54L11 54L11 55L10 55L10 57L11 57L11 55L12 55L12 56L13 56L13 57L17 57L17 56L18 56L18 57L19 57L19 50L20 50L20 48L22 48L22 50L21 50L21 51L20 51L20 53L21 53L21 52L22 52L22 54L23 54L23 56L22 56L22 55L21 55L21 54L20 54L20 55L21 55L21 56L22 56L22 57L25 57L25 55L26 55L26 57L28 57L28 55L29 55L29 57L33 57L33 55L30 55L30 54L31 54L31 53L32 53L32 54L34 54L34 57L35 57L35 55L37 55L37 54L36 54L36 53L37 53L37 52L38 52L38 53L39 53L39 55L40 55L40 54L42 54L42 56L40 56L40 57L42 57L42 56L43 56L43 54L42 54L42 52L44 52L44 55L45 55L45 56L44 56L44 57L47 57L47 56L48 56L48 57L50 57L50 55L49 55L49 54L52 54L52 55L53 55L53 54L54 54L54 55L57 55L57 54L54 54L54 53L57 53L57 49L56 49L56 47L57 47L57 42L56 42L56 43L55 43L55 42L54 42L54 41L57 41L57 40L54 40L54 39L55 39L55 38L57 38L57 36L54 36L54 34L53 34L53 36L52 36L52 37L51 37L51 38L50 38L50 36L51 36L51 33L50 33L50 32L51 32L51 31L52 31L52 32L53 32L53 33L54 33L54 31L55 31L55 34L56 34L56 35L57 35L57 34L56 34L56 31L57 31L57 29L56 29L56 28L57 28L57 24L56 24L56 23L57 23L57 21L56 21L56 20L57 20L57 13L56 13L56 12L57 12L57 10L56 10L56 11L55 11L55 9L57 9L57 8L55 8L55 9L54 9L54 10L53 10L53 11L52 11L52 12L51 12L51 11L50 11L50 13L49 13L49 14L48 14L48 12L49 12L49 10L48 10L48 8L49 8L49 9L51 9L51 10L52 10L52 9L53 9L53 8L49 8L49 6L48 6L48 8L47 8L47 11L46 11L46 13L45 13L45 12L44 12L44 11L43 11L43 10L44 10L44 9L45 9L45 10L46 10L46 9L45 9L45 8L46 8L46 7L47 7L47 5L48 5L48 0L46 0L46 1L47 1L47 2L45 2L45 4L44 4L44 2L43 2L43 4L42 4L42 1L45 1L45 0L42 0L42 1L41 1L41 0L38 0L38 2L37 2L37 1L35 1L35 0L34 0L34 2L33 2L33 1L32 1L32 0L30 0L30 1L29 1L29 0L28 0L28 2L30 2L30 3L29 3L29 4L28 4L28 3L27 3L27 0L24 0L24 1L23 1L23 0L20 0L20 1L19 1L19 0L18 0L18 1L19 1L19 3L20 3L20 1L21 1L21 5L20 5L20 7L19 7L19 4L18 4L18 3L17 3L17 4L16 4L16 1L17 1L17 0L16 0L16 1L15 1L15 0L14 0L14 3L13 3L13 2L11 2L11 1L12 1L12 0L11 0L11 1L10 1L10 0ZM22 1L22 2L23 2L23 1ZM24 1L24 4L25 4L25 1ZM30 1L30 2L31 2L31 1ZM39 1L39 2L38 2L38 3L37 3L37 2L34 2L34 4L35 4L35 9L34 9L34 10L33 10L33 9L32 9L32 8L34 8L34 6L33 6L33 2L32 2L32 5L31 5L31 9L30 9L30 10L29 10L29 9L27 9L27 10L25 10L25 9L26 9L26 5L24 5L24 6L23 6L23 5L22 5L22 6L21 6L21 9L20 9L20 10L21 10L21 13L20 13L20 11L18 11L18 12L19 12L19 13L18 13L18 14L17 14L17 11L16 11L16 10L17 10L17 9L18 9L18 6L17 6L17 5L18 5L18 4L17 4L17 5L16 5L16 6L15 6L15 5L14 5L14 6L13 6L13 7L12 7L12 6L11 6L11 8L10 8L10 6L9 6L9 8L10 8L10 9L13 9L13 12L12 12L12 11L11 11L11 10L10 10L10 11L11 11L11 12L10 12L10 13L11 13L11 14L10 14L10 15L11 15L11 16L9 16L9 15L8 15L8 14L7 14L7 13L6 13L6 14L7 14L7 15L3 15L3 16L7 16L7 17L5 17L5 18L4 18L4 19L3 19L3 20L2 20L2 21L3 21L3 22L1 22L1 23L2 23L2 25L3 25L3 26L5 26L5 25L6 25L6 26L8 26L8 24L7 24L7 23L6 23L6 24L5 24L5 25L4 25L4 23L3 23L3 22L4 22L4 21L3 21L3 20L4 20L4 19L6 19L6 20L7 20L7 21L6 21L6 22L7 22L7 21L8 21L8 20L9 20L9 21L10 21L10 19L8 19L8 16L9 16L9 17L10 17L10 18L11 18L11 23L9 23L9 22L8 22L8 23L9 23L9 24L11 24L11 23L14 23L14 26L12 26L12 25L13 25L13 24L12 24L12 25L10 25L10 26L12 26L12 28L11 28L11 30L9 30L9 31L8 31L8 32L9 32L9 31L12 31L12 33L13 33L13 34L12 34L12 35L11 35L11 34L10 34L10 33L11 33L11 32L10 32L10 33L8 33L8 35L9 35L9 36L8 36L8 37L6 37L6 38L5 38L5 39L6 39L6 40L8 40L8 41L5 41L5 42L7 42L7 43L4 43L4 45L6 45L6 44L7 44L7 43L8 43L8 41L9 41L9 40L8 40L8 39L9 39L9 36L11 36L11 37L10 37L10 38L11 38L11 39L10 39L10 41L11 41L11 40L12 40L12 41L13 41L13 42L11 42L11 47L12 47L12 46L13 46L13 45L16 45L16 46L17 46L17 47L16 47L16 48L15 48L15 49L14 49L14 51L15 51L15 52L17 52L17 54L16 54L16 55L18 55L18 52L17 52L17 51L18 51L18 48L17 48L17 47L18 47L18 46L19 46L19 45L20 45L20 46L22 46L22 48L23 48L23 49L24 49L24 51L22 51L22 52L24 52L24 51L25 51L25 54L24 54L24 55L25 55L25 54L26 54L26 55L28 55L28 53L26 53L26 51L25 51L25 50L26 50L26 49L25 49L25 46L26 46L26 48L29 48L29 47L30 47L30 48L31 48L31 52L32 52L32 50L33 50L33 51L37 51L37 49L36 49L36 48L37 48L37 47L38 47L38 52L39 52L39 53L40 53L40 52L39 52L39 49L40 49L40 51L41 51L41 52L42 52L42 51L41 51L41 49L42 49L42 50L43 50L43 51L44 51L44 48L45 48L45 49L46 49L46 50L45 50L45 53L46 53L46 56L47 56L47 55L48 55L48 56L49 56L49 55L48 55L48 54L49 54L49 53L46 53L46 50L47 50L47 49L46 49L46 48L47 48L47 47L48 47L48 46L49 46L49 48L50 48L50 46L51 46L51 48L53 48L53 47L54 47L54 50L53 50L53 51L54 51L54 52L55 52L55 47L56 47L56 44L55 44L55 43L54 43L54 44L53 44L53 39L51 39L51 40L48 40L48 37L49 37L49 36L50 36L50 33L49 33L49 34L48 34L48 33L46 33L46 35L45 35L45 37L46 37L46 38L45 38L45 40L46 40L46 42L47 42L47 44L46 44L46 48L45 48L45 46L44 46L44 44L45 44L45 42L44 42L44 39L43 39L43 38L44 38L44 34L45 34L45 33L44 33L44 34L43 34L43 33L42 33L42 31L44 31L44 30L46 30L46 31L45 31L45 32L46 32L46 31L47 31L47 29L48 29L48 28L46 28L46 29L44 29L44 30L43 30L43 28L42 28L42 31L40 31L40 30L41 30L41 29L40 29L40 27L46 27L46 26L47 26L47 27L48 27L48 26L49 26L49 25L48 25L48 26L47 26L47 25L46 25L46 23L47 23L47 20L48 20L48 23L49 23L49 24L51 24L51 25L50 25L50 26L52 26L52 24L53 24L53 22L52 22L52 20L53 20L53 19L54 19L54 21L55 21L55 22L54 22L54 24L55 24L55 25L54 25L54 26L55 26L55 27L54 27L54 28L53 28L53 31L54 31L54 30L55 30L55 31L56 31L56 30L55 30L55 28L56 28L56 24L55 24L55 23L56 23L56 21L55 21L55 20L56 20L56 19L54 19L54 17L56 17L56 16L55 16L55 15L56 15L56 13L55 13L55 11L54 11L54 12L53 12L53 13L54 13L54 14L55 14L55 15L54 15L54 17L53 17L53 18L52 18L52 16L53 16L53 14L52 14L52 13L50 13L50 16L48 16L48 19L47 19L47 16L46 16L46 15L48 15L48 14L47 14L47 13L46 13L46 15L44 15L44 14L45 14L45 13L44 13L44 12L42 12L42 10L43 10L43 9L44 9L44 8L45 8L45 7L46 7L46 5L47 5L47 3L46 3L46 5L44 5L44 4L43 4L43 5L44 5L44 6L43 6L43 7L42 7L42 6L41 6L41 5L42 5L42 4L41 4L41 2L40 2L40 1ZM39 2L39 4L38 4L38 5L39 5L39 4L40 4L40 2ZM14 3L14 4L15 4L15 3ZM22 3L22 4L23 4L23 3ZM26 3L26 4L27 4L27 3ZM35 3L35 4L36 4L36 3ZM12 4L12 5L13 5L13 4ZM27 5L27 8L30 8L30 5ZM14 6L14 7L13 7L13 8L14 8L14 9L15 9L15 10L16 10L16 9L15 9L15 6ZM16 6L16 7L17 7L17 6ZM22 6L22 7L23 7L23 6ZM24 6L24 7L25 7L25 6ZM28 6L28 7L29 7L29 6ZM32 6L32 7L33 7L33 6ZM36 6L36 10L34 10L34 11L33 11L33 12L32 12L32 9L31 9L31 10L30 10L30 12L29 12L29 10L28 10L28 12L27 12L27 13L26 13L26 11L24 11L24 9L25 9L25 8L24 8L24 9L23 9L23 8L22 8L22 9L21 9L21 10L22 10L22 9L23 9L23 11L22 11L22 12L24 12L24 13L23 13L23 14L24 14L24 15L25 15L25 17L26 17L26 14L28 14L28 15L29 15L29 16L30 16L30 17L28 17L28 18L30 18L30 17L31 17L31 16L30 16L30 15L29 15L29 13L30 13L30 12L32 12L32 14L33 14L33 15L32 15L32 18L33 18L33 19L31 19L31 20L32 20L32 21L33 21L33 22L31 22L31 23L32 23L32 25L31 25L31 24L30 24L30 25L29 25L29 23L30 23L30 19L29 19L29 20L28 20L28 19L27 19L27 18L26 18L26 19L25 19L25 18L24 18L24 16L22 16L22 14L20 14L20 13L19 13L19 14L18 14L18 15L19 15L19 16L18 16L18 17L17 17L17 18L16 18L16 17L15 17L15 15L17 15L17 14L15 14L15 15L12 15L12 16L11 16L11 17L12 17L12 18L13 18L13 19L12 19L12 20L13 20L13 21L12 21L12 22L14 22L14 21L15 21L15 24L16 24L16 25L15 25L15 26L16 26L16 27L15 27L15 28L17 28L17 26L16 26L16 25L17 25L17 23L18 23L18 25L19 25L19 27L18 27L18 28L21 28L21 30L22 30L22 33L23 33L23 35L25 35L25 36L24 36L24 37L26 37L26 38L27 38L27 36L28 36L28 37L29 37L29 36L28 36L28 35L31 35L31 36L30 36L30 40L29 40L29 42L28 42L28 41L27 41L27 39L26 39L26 40L25 40L25 41L26 41L26 42L24 42L24 41L23 41L23 39L22 39L22 38L23 38L23 36L22 36L22 34L20 34L20 33L19 33L19 32L20 32L20 30L18 30L18 31L16 31L16 30L15 30L15 29L14 29L14 27L13 27L13 29L14 29L14 30L12 30L12 31L13 31L13 32L15 32L15 31L16 31L16 32L18 32L18 33L17 33L17 34L16 34L16 33L14 33L14 35L12 35L12 36L14 36L14 37L13 37L13 38L12 38L12 37L11 37L11 38L12 38L12 39L14 39L14 40L13 40L13 41L14 41L14 42L13 42L13 43L12 43L12 44L13 44L13 43L14 43L14 42L15 42L15 44L17 44L17 46L18 46L18 45L19 45L19 44L18 44L18 43L20 43L20 45L21 45L21 43L20 43L20 40L22 40L22 41L23 41L23 42L24 42L24 43L22 43L22 44L23 44L23 47L24 47L24 45L26 45L26 46L27 46L27 47L28 47L28 45L29 45L29 46L30 46L30 47L31 47L31 48L32 48L32 49L33 49L33 50L34 50L34 49L33 49L33 47L34 47L34 45L33 45L33 44L35 44L35 43L36 43L36 41L37 41L37 42L38 42L38 41L39 41L39 38L40 38L40 39L41 39L41 38L42 38L42 37L43 37L43 36L42 36L42 37L41 37L41 35L40 35L40 36L39 36L39 34L38 34L38 33L39 33L39 32L40 32L40 34L42 34L42 33L41 33L41 32L40 32L40 31L38 31L38 30L37 30L37 28L38 28L38 29L39 29L39 26L40 26L40 25L41 25L41 23L39 23L39 24L40 24L40 25L39 25L39 26L38 26L38 25L37 25L37 24L36 24L36 23L38 23L38 20L39 20L39 19L40 19L40 22L42 22L42 25L43 25L43 26L44 26L44 25L45 25L45 26L46 26L46 25L45 25L45 24L44 24L44 25L43 25L43 22L44 22L44 23L46 23L46 20L45 20L45 19L44 19L44 17L45 17L45 18L46 18L46 17L45 17L45 16L44 16L44 15L43 15L43 16L44 16L44 17L43 17L43 18L42 18L42 17L41 17L41 15L42 15L42 12L41 12L41 11L40 11L40 10L38 10L38 9L37 9L37 8L39 8L39 6L38 6L38 7L37 7L37 6ZM40 6L40 7L41 7L41 8L40 8L40 9L41 9L41 10L42 10L42 9L43 9L43 8L44 8L44 7L45 7L45 6L44 6L44 7L43 7L43 8L42 8L42 7L41 7L41 6ZM8 9L8 10L7 10L7 11L6 11L6 12L8 12L8 10L9 10L9 9ZM37 10L37 11L36 11L36 12L35 12L35 11L34 11L34 12L35 12L35 13L34 13L34 15L33 15L33 17L34 17L34 19L33 19L33 20L34 20L34 22L35 22L35 23L36 23L36 22L37 22L37 21L36 21L36 20L35 20L35 18L36 18L36 19L37 19L37 18L36 18L36 14L37 14L37 13L38 13L38 15L37 15L37 16L38 16L38 18L40 18L40 19L41 19L41 20L42 20L42 22L43 22L43 21L44 21L44 22L45 22L45 21L44 21L44 19L43 19L43 20L42 20L42 19L41 19L41 18L40 18L40 15L41 15L41 14L40 14L40 15L39 15L39 13L40 13L40 12L37 12L37 11L38 11L38 10ZM14 11L14 12L16 12L16 11ZM47 11L47 12L48 12L48 11ZM36 12L36 13L37 13L37 12ZM12 13L12 14L13 14L13 13ZM24 13L24 14L26 14L26 13ZM51 14L51 15L52 15L52 14ZM7 15L7 16L8 16L8 15ZM20 15L20 16L19 16L19 17L18 17L18 18L17 18L17 19L14 19L14 20L17 20L17 21L18 21L18 20L19 20L19 22L18 22L18 23L19 23L19 24L20 24L20 26L22 26L22 23L23 23L23 21L22 21L22 19L23 19L23 18L21 18L21 17L20 17L20 16L21 16L21 15ZM34 15L34 17L35 17L35 15ZM13 16L13 18L15 18L15 17L14 17L14 16ZM19 17L19 18L18 18L18 19L17 19L17 20L18 20L18 19L21 19L21 18L20 18L20 17ZM49 17L49 18L50 18L50 19L48 19L48 20L51 20L51 19L52 19L52 18L50 18L50 17ZM6 18L6 19L7 19L7 20L8 20L8 19L7 19L7 18ZM24 19L24 20L25 20L25 21L26 21L26 20L27 20L27 22L26 22L26 23L27 23L27 25L26 25L26 26L27 26L27 25L28 25L28 23L29 23L29 22L28 22L28 20L27 20L27 19L26 19L26 20L25 20L25 19ZM20 20L20 21L21 21L21 20ZM35 21L35 22L36 22L36 21ZM16 22L16 23L17 23L17 22ZM20 22L20 23L22 23L22 22ZM24 22L24 23L25 23L25 22ZM27 22L27 23L28 23L28 22ZM49 22L49 23L50 23L50 22ZM51 22L51 23L52 23L52 22ZM33 23L33 24L34 24L34 26L33 26L33 25L32 25L32 27L31 27L31 29L32 29L32 28L33 28L33 29L34 29L34 32L35 32L35 33L34 33L34 34L33 34L33 33L32 33L32 32L33 32L33 31L31 31L31 32L30 32L30 34L31 34L31 33L32 33L32 34L33 34L33 35L34 35L34 34L35 34L35 33L36 33L36 35L35 35L35 37L34 37L34 36L33 36L33 37L34 37L34 39L33 39L33 38L31 38L31 40L30 40L30 41L31 41L31 43L32 43L32 40L33 40L33 41L34 41L34 42L35 42L35 41L36 41L36 38L37 38L37 41L38 41L38 38L39 38L39 37L38 37L38 36L37 36L37 37L36 37L36 35L38 35L38 34L37 34L37 33L36 33L36 31L37 31L37 32L38 32L38 31L37 31L37 30L36 30L36 28L37 28L37 26L36 26L36 24L34 24L34 23ZM6 24L6 25L7 25L7 24ZM24 25L24 26L23 26L23 27L22 27L22 28L23 28L23 29L22 29L22 30L23 30L23 31L24 31L24 34L26 34L26 35L28 35L28 34L29 34L29 31L28 31L28 32L26 32L26 30L25 30L25 29L24 29L24 26L25 26L25 25ZM30 25L30 26L31 26L31 25ZM5 27L5 30L8 30L8 27ZM9 27L9 29L10 29L10 27ZM27 27L27 30L30 30L30 27ZM34 27L34 29L35 29L35 28L36 28L36 27ZM49 27L49 30L52 30L52 27ZM6 28L6 29L7 29L7 28ZM28 28L28 29L29 29L29 28ZM50 28L50 29L51 29L51 28ZM23 29L23 30L24 30L24 29ZM0 30L0 32L1 32L1 31L2 31L2 30ZM14 30L14 31L15 31L15 30ZM6 31L6 32L5 32L5 33L6 33L6 34L7 34L7 33L6 33L6 32L7 32L7 31ZM18 31L18 32L19 32L19 31ZM25 32L25 33L26 33L26 32ZM27 33L27 34L28 34L28 33ZM15 34L15 35L14 35L14 36L15 36L15 38L14 38L14 39L15 39L15 40L14 40L14 41L15 41L15 40L16 40L16 43L17 43L17 41L18 41L18 40L19 40L19 39L18 39L18 40L17 40L17 39L16 39L16 38L17 38L17 37L18 37L18 36L19 36L19 35L16 35L16 34ZM47 34L47 35L46 35L46 36L47 36L47 37L48 37L48 36L49 36L49 35L48 35L48 34ZM0 35L0 36L2 36L2 37L3 37L3 35ZM6 35L6 36L7 36L7 35ZM15 35L15 36L16 36L16 37L17 37L17 36L16 36L16 35ZM21 36L21 38L20 38L20 39L21 39L21 38L22 38L22 36ZM31 36L31 37L32 37L32 36ZM53 36L53 37L52 37L52 38L53 38L53 37L54 37L54 38L55 38L55 37L54 37L54 36ZM0 37L0 39L1 39L1 40L3 40L3 38L1 38L1 37ZM35 37L35 38L36 38L36 37ZM37 37L37 38L38 38L38 37ZM6 38L6 39L7 39L7 38ZM24 38L24 39L25 39L25 38ZM28 38L28 39L29 39L29 38ZM46 38L46 40L47 40L47 41L48 41L48 40L47 40L47 38ZM34 39L34 41L35 41L35 39ZM40 40L40 41L41 41L41 42L40 42L40 43L41 43L41 42L42 42L42 43L43 43L43 42L42 42L42 41L43 41L43 40L42 40L42 41L41 41L41 40ZM51 40L51 41L49 41L49 42L48 42L48 44L47 44L47 45L49 45L49 42L50 42L50 45L51 45L51 46L52 46L52 45L51 45L51 44L52 44L52 40ZM27 42L27 44L28 44L28 42ZM29 42L29 44L30 44L30 46L31 46L31 44L30 44L30 42ZM24 43L24 44L25 44L25 43ZM37 43L37 44L36 44L36 45L35 45L35 47L37 47L37 46L38 46L38 45L37 45L37 44L39 44L39 43ZM40 44L40 46L39 46L39 47L40 47L40 49L41 49L41 47L42 47L42 45L43 45L43 44L42 44L42 45L41 45L41 44ZM32 45L32 47L33 47L33 45ZM53 45L53 46L54 46L54 47L55 47L55 45ZM1 46L1 47L2 47L2 46ZM40 46L40 47L41 47L41 46ZM43 46L43 47L44 47L44 46ZM16 48L16 49L15 49L15 51L16 51L16 49L17 49L17 48ZM27 49L27 52L30 52L30 49ZM49 49L49 52L52 52L52 49ZM28 50L28 51L29 51L29 50ZM50 50L50 51L51 51L51 50ZM8 51L8 52L9 52L9 51ZM10 51L10 52L11 52L11 51ZM47 51L47 52L48 52L48 51ZM33 52L33 53L34 53L34 54L35 54L35 53L36 53L36 52L35 52L35 53L34 53L34 52ZM8 54L8 57L9 57L9 54ZM36 56L36 57L37 57L37 56ZM51 56L51 57L53 57L53 56ZM56 56L56 57L57 57L57 56ZM0 0L0 7L7 7L7 0ZM1 1L1 6L6 6L6 1ZM2 2L2 5L5 5L5 2ZM50 0L50 7L57 7L57 0ZM51 1L51 6L56 6L56 1ZM52 2L52 5L55 5L55 2ZM0 50L0 57L7 57L7 50ZM1 51L1 56L6 56L6 51ZM2 52L2 55L5 55L5 52Z" fill="#000000"/></g></g></svg>
