<?xml version="1.0" encoding="UTF-8"?>
<svg xmlns="http://www.w3.org/2000/svg" version="1.1" width="300" height="300" viewBox="0 0 300 300"><rect x="0" y="0" width="300" height="300" fill="#fefefe"/><g transform="scale(4.615)"><g transform="translate(4,4)"><path fill-rule="evenodd" d="M9 0L9 1L8 1L8 2L9 2L9 1L10 1L10 3L11 3L11 1L12 1L12 4L14 4L14 2L18 2L18 1L20 1L20 2L19 2L19 3L17 3L17 4L18 4L18 5L17 5L17 6L16 6L16 7L15 7L15 6L14 6L14 5L11 5L11 4L9 4L9 3L8 3L8 4L9 4L9 5L8 5L8 7L9 7L9 6L10 6L10 7L11 7L11 8L6 8L6 9L5 9L5 8L0 8L0 10L1 10L1 11L0 11L0 13L1 13L1 14L0 14L0 16L1 16L1 17L0 17L0 18L1 18L1 19L0 19L0 20L1 20L1 21L0 21L0 22L1 22L1 24L0 24L0 26L2 26L2 27L3 27L3 28L4 28L4 29L2 29L2 28L0 28L0 31L1 31L1 32L0 32L0 36L1 36L1 37L0 37L0 40L1 40L1 43L2 43L2 44L0 44L0 45L2 45L2 47L1 47L1 46L0 46L0 48L5 48L5 47L7 47L7 48L6 48L6 49L8 49L8 51L9 51L9 49L10 49L10 51L11 51L11 52L8 52L8 57L9 57L9 56L12 56L12 55L14 55L14 56L13 56L13 57L14 57L14 56L15 56L15 57L16 57L16 56L17 56L17 57L19 57L19 55L20 55L20 54L17 54L17 53L20 53L20 52L21 52L21 51L20 51L20 48L21 48L21 47L23 47L23 49L21 49L21 50L25 50L25 51L26 51L26 52L24 52L24 53L23 53L23 54L21 54L21 56L24 56L24 55L23 55L23 54L24 54L24 53L25 53L25 54L26 54L26 56L25 56L25 57L26 57L26 56L27 56L27 57L29 57L29 56L30 56L30 57L31 57L31 56L35 56L35 57L39 57L39 56L37 56L37 54L38 54L38 55L41 55L41 54L42 54L42 55L44 55L44 56L43 56L43 57L44 57L44 56L45 56L45 57L47 57L47 56L50 56L50 57L52 57L52 55L51 55L51 53L52 53L52 54L53 54L53 55L54 55L54 56L53 56L53 57L54 57L54 56L55 56L55 57L56 57L56 56L55 56L55 54L54 54L54 53L55 53L55 51L54 51L54 50L57 50L57 48L56 48L56 46L57 46L57 45L56 45L56 44L55 44L55 43L56 43L56 42L57 42L57 41L56 41L56 42L55 42L55 39L57 39L57 37L55 37L55 35L56 35L56 34L57 34L57 32L56 32L56 30L57 30L57 29L54 29L54 28L57 28L57 27L55 27L55 26L57 26L57 25L56 25L56 22L57 22L57 19L55 19L55 18L57 18L57 17L56 17L56 16L57 16L57 15L56 15L56 14L57 14L57 13L56 13L56 10L54 10L54 11L52 11L52 10L53 10L53 9L54 9L54 8L53 8L53 9L52 9L52 8L51 8L51 10L49 10L49 9L50 9L50 8L49 8L49 6L48 6L48 7L47 7L47 5L48 5L48 0L46 0L46 1L47 1L47 2L44 2L44 3L43 3L43 4L40 4L40 5L39 5L39 6L38 6L38 8L35 8L35 5L36 5L36 7L37 7L37 5L38 5L38 4L37 4L37 3L38 3L38 2L39 2L39 3L41 3L41 2L43 2L43 0L41 0L41 1L40 1L40 0L39 0L39 1L38 1L38 0L37 0L37 1L38 1L38 2L37 2L37 3L36 3L36 0L35 0L35 1L33 1L33 2L32 2L32 0L27 0L27 1L26 1L26 0L23 0L23 2L22 2L22 0L21 0L21 1L20 1L20 0L17 0L17 1L14 1L14 0L13 0L13 1L12 1L12 0ZM13 1L13 2L14 2L14 1ZM25 1L25 2L23 2L23 3L22 3L22 2L20 2L20 3L19 3L19 4L21 4L21 7L22 7L22 8L19 8L19 7L20 7L20 5L18 5L18 6L17 6L17 7L16 7L16 8L15 8L15 7L14 7L14 6L13 6L13 7L12 7L12 6L11 6L11 7L12 7L12 8L13 8L13 7L14 7L14 10L15 10L15 13L13 13L13 12L14 12L14 11L13 11L13 12L12 12L12 10L11 10L11 11L10 11L10 10L9 10L9 9L6 9L6 10L4 10L4 9L1 9L1 10L2 10L2 11L3 11L3 10L4 10L4 14L7 14L7 15L6 15L6 16L7 16L7 17L6 17L6 18L7 18L7 19L6 19L6 20L7 20L7 21L6 21L6 22L5 22L5 21L4 21L4 22L5 22L5 23L2 23L2 24L1 24L1 25L2 25L2 26L3 26L3 27L4 27L4 24L7 24L7 25L6 25L6 26L7 26L7 25L8 25L8 26L9 26L9 27L10 27L10 28L11 28L11 27L12 27L12 25L11 25L11 24L10 24L10 22L11 22L11 23L12 23L12 22L11 22L11 20L12 20L12 21L14 21L14 24L13 24L13 26L14 26L14 27L13 27L13 28L12 28L12 29L11 29L11 30L10 30L10 29L9 29L9 30L10 30L10 31L12 31L12 32L11 32L11 34L9 34L9 35L6 35L6 36L2 36L2 38L1 38L1 40L3 40L3 39L4 39L4 37L5 37L5 39L6 39L6 40L7 40L7 41L6 41L6 42L5 42L5 40L4 40L4 41L2 41L2 43L3 43L3 45L4 45L4 46L3 46L3 47L5 47L5 45L6 45L6 46L7 46L7 47L8 47L8 48L10 48L10 49L11 49L11 48L12 48L12 50L11 50L11 51L15 51L15 52L16 52L16 53L14 53L14 54L16 54L16 53L17 53L17 52L16 52L16 51L17 51L17 50L18 50L18 49L16 49L16 48L20 48L20 47L21 47L21 45L22 45L22 46L23 46L23 47L25 47L25 48L24 48L24 49L26 49L26 48L27 48L27 47L28 47L28 48L30 48L30 47L28 47L28 46L30 46L30 45L27 45L27 44L28 44L28 43L29 43L29 44L32 44L32 45L31 45L31 47L32 47L32 45L33 45L33 46L36 46L36 47L35 47L35 48L36 48L36 47L37 47L37 46L36 46L36 45L34 45L34 43L37 43L37 42L35 42L35 40L38 40L38 42L39 42L39 43L41 43L41 44L39 44L39 45L38 45L38 46L39 46L39 47L38 47L38 48L37 48L37 49L38 49L38 50L36 50L36 49L33 49L33 48L34 48L34 47L33 47L33 48L32 48L32 50L34 50L34 51L33 51L33 52L32 52L32 51L31 51L31 53L30 53L30 54L27 54L27 53L26 53L26 54L27 54L27 56L29 56L29 55L30 55L30 56L31 56L31 54L32 54L32 53L33 53L33 54L34 54L34 55L35 55L35 56L36 56L36 54L35 54L35 50L36 50L36 52L37 52L37 53L38 53L38 54L40 54L40 53L41 53L41 52L43 52L43 51L45 51L45 52L44 52L44 53L43 53L43 54L44 54L44 55L46 55L46 54L48 54L48 50L47 50L47 49L48 49L48 48L49 48L49 47L48 47L48 46L50 46L50 48L53 48L53 46L54 46L54 47L55 47L55 46L56 46L56 45L55 45L55 44L54 44L54 45L53 45L53 43L54 43L54 42L53 42L53 41L54 41L54 40L53 40L53 35L55 35L55 34L56 34L56 32L55 32L55 34L54 34L54 33L52 33L52 32L51 32L51 31L48 31L48 29L46 29L46 30L47 30L47 31L45 31L45 30L44 30L44 29L45 29L45 28L46 28L46 27L47 27L47 28L48 28L48 27L47 27L47 25L50 25L50 26L53 26L53 27L54 27L54 26L53 26L53 25L54 25L54 24L53 24L53 23L55 23L55 22L56 22L56 20L53 20L53 19L52 19L52 18L55 18L55 16L52 16L52 15L51 15L51 17L50 17L50 14L51 14L51 12L50 12L50 11L48 11L48 10L47 10L47 9L48 9L48 8L47 8L47 9L45 9L45 8L46 8L46 5L47 5L47 3L44 3L44 6L43 6L43 5L40 5L40 6L39 6L39 8L38 8L38 11L39 11L39 12L40 12L40 13L38 13L38 14L37 14L37 15L35 15L35 16L33 16L33 15L31 15L31 14L32 14L32 13L33 13L33 14L36 14L36 13L35 13L35 12L36 12L36 10L37 10L37 9L35 9L35 8L34 8L34 9L33 9L33 7L34 7L34 5L35 5L35 3L32 3L32 2L31 2L31 1L30 1L30 2L29 2L29 1L27 1L27 2L26 2L26 1ZM28 2L28 3L29 3L29 2ZM30 2L30 3L31 3L31 4L26 4L26 3L23 3L23 4L22 4L22 3L21 3L21 4L22 4L22 5L23 5L23 6L22 6L22 7L23 7L23 6L24 6L24 9L23 9L23 10L22 10L22 9L21 9L21 10L22 10L22 11L19 11L19 10L20 10L20 9L19 9L19 8L18 8L18 7L19 7L19 6L18 6L18 7L17 7L17 8L16 8L16 9L15 9L15 10L16 10L16 9L17 9L17 10L18 10L18 11L16 11L16 13L15 13L15 14L14 14L14 15L13 15L13 14L12 14L12 13L11 13L11 12L8 12L8 11L9 11L9 10L8 10L8 11L7 11L7 10L6 10L6 11L5 11L5 13L7 13L7 14L10 14L10 13L11 13L11 15L9 15L9 16L10 16L10 19L9 19L9 17L8 17L8 19L7 19L7 20L9 20L9 21L7 21L7 22L6 22L6 23L7 23L7 22L8 22L8 24L9 24L9 26L11 26L11 25L10 25L10 24L9 24L9 21L10 21L10 19L12 19L12 20L14 20L14 19L12 19L12 17L13 17L13 18L14 18L14 15L15 15L15 16L16 16L16 17L18 17L18 18L17 18L17 21L16 21L16 20L15 20L15 21L16 21L16 22L15 22L15 23L16 23L16 24L15 24L15 25L14 25L14 26L15 26L15 27L14 27L14 28L15 28L15 27L16 27L16 26L15 26L15 25L16 25L16 24L17 24L17 25L18 25L18 26L17 26L17 27L18 27L18 26L20 26L20 27L19 27L19 29L18 29L18 28L16 28L16 29L13 29L13 30L14 30L14 31L13 31L13 32L12 32L12 34L11 34L11 38L10 38L10 35L9 35L9 36L6 36L6 37L7 37L7 38L6 38L6 39L7 39L7 38L8 38L8 40L9 40L9 38L10 38L10 40L13 40L13 41L12 41L12 43L14 43L14 42L15 42L15 41L14 41L14 39L15 39L15 40L16 40L16 39L15 39L15 38L16 38L16 37L15 37L15 38L14 38L14 39L12 39L12 38L13 38L13 37L12 37L12 36L16 36L16 35L17 35L17 34L18 34L18 36L17 36L17 37L18 37L18 38L17 38L17 40L18 40L18 41L17 41L17 42L16 42L16 45L17 45L17 47L19 47L19 46L20 46L20 45L21 45L21 44L22 44L22 45L24 45L24 46L25 46L25 45L24 45L24 44L27 44L27 43L24 43L24 42L25 42L25 41L24 41L24 40L25 40L25 39L27 39L27 41L26 41L26 42L27 42L27 41L28 41L28 39L27 39L27 38L28 38L28 37L27 37L27 38L25 38L25 37L26 37L26 36L27 36L27 35L26 35L26 34L25 34L25 33L27 33L27 32L28 32L28 33L29 33L29 34L30 34L30 36L29 36L29 37L31 37L31 38L29 38L29 39L33 39L33 40L35 40L35 39L37 39L37 38L38 38L38 37L40 37L40 38L43 38L43 37L44 37L44 38L45 38L45 39L42 39L42 40L41 40L41 43L42 43L42 44L41 44L41 45L39 45L39 46L40 46L40 47L39 47L39 48L38 48L38 49L39 49L39 48L41 48L41 50L38 50L38 51L37 51L37 52L38 52L38 53L39 53L39 52L38 52L38 51L40 51L40 52L41 52L41 50L42 50L42 51L43 51L43 50L44 50L44 48L43 48L43 47L42 47L42 48L41 48L41 46L43 46L43 45L44 45L44 46L45 46L45 48L46 48L46 47L47 47L47 48L48 48L48 47L47 47L47 46L45 46L45 45L47 45L47 43L48 43L48 42L49 42L49 43L50 43L50 44L49 44L49 45L50 45L50 46L51 46L51 47L52 47L52 46L51 46L51 45L52 45L52 44L51 44L51 43L53 43L53 42L51 42L51 41L53 41L53 40L52 40L52 38L51 38L51 37L52 37L52 35L53 35L53 34L52 34L52 33L51 33L51 32L50 32L50 34L48 34L48 35L47 35L47 36L48 36L48 35L50 35L50 38L47 38L47 39L46 39L46 38L45 38L45 37L44 37L44 36L45 36L45 35L44 35L44 33L43 33L43 32L45 32L45 31L44 31L44 30L43 30L43 29L44 29L44 28L45 28L45 27L46 27L46 26L44 26L44 24L43 24L43 23L44 23L44 20L47 20L47 22L46 22L46 21L45 21L45 22L46 22L46 23L45 23L45 24L46 24L46 25L47 25L47 24L48 24L48 22L49 22L49 21L51 21L51 22L50 22L50 23L53 23L53 22L54 22L54 21L51 21L51 20L52 20L52 19L49 19L49 20L47 20L47 19L45 19L45 18L44 18L44 15L46 15L46 16L45 16L45 17L47 17L47 18L50 18L50 17L49 17L49 16L48 16L48 15L49 15L49 14L50 14L50 12L49 12L49 13L47 13L47 14L45 14L45 13L44 13L44 11L45 11L45 12L48 12L48 11L47 11L47 10L44 10L44 9L39 9L39 11L40 11L40 12L41 12L41 11L43 11L43 13L41 13L41 14L40 14L40 15L39 15L39 14L38 14L38 15L39 15L39 16L38 16L38 17L37 17L37 16L35 16L35 17L37 17L37 18L38 18L38 17L39 17L39 19L37 19L37 20L36 20L36 19L35 19L35 18L33 18L33 19L32 19L32 18L31 18L31 17L32 17L32 16L31 16L31 15L30 15L30 14L31 14L31 13L30 13L30 14L29 14L29 13L28 13L28 12L29 12L29 11L31 11L31 12L33 12L33 13L34 13L34 12L33 12L33 10L32 10L32 8L31 8L31 4L32 4L32 5L34 5L34 4L32 4L32 3L31 3L31 2ZM15 4L15 5L16 5L16 4ZM23 4L23 5L24 5L24 4ZM25 4L25 8L26 8L26 4ZM36 4L36 5L37 5L37 4ZM45 4L45 5L46 5L46 4ZM27 5L27 8L30 8L30 5ZM28 6L28 7L29 7L29 6ZM32 6L32 7L33 7L33 6ZM40 6L40 7L41 7L41 6ZM42 6L42 8L45 8L45 6L44 6L44 7L43 7L43 6ZM55 8L55 9L56 9L56 8ZM27 9L27 10L29 10L29 9ZM24 10L24 12L23 12L23 13L22 13L22 12L19 12L19 13L20 13L20 14L17 14L17 13L18 13L18 12L17 12L17 13L16 13L16 16L18 16L18 15L19 15L19 16L20 16L20 18L22 18L22 17L28 17L28 16L29 16L29 14L28 14L28 13L26 13L26 12L27 12L27 11L26 11L26 12L25 12L25 10ZM31 10L31 11L32 11L32 10ZM40 10L40 11L41 11L41 10ZM6 11L6 12L7 12L7 13L8 13L8 12L7 12L7 11ZM24 12L24 13L23 13L23 14L22 14L22 13L21 13L21 14L20 14L20 15L23 15L23 16L24 16L24 14L26 14L26 13L25 13L25 12ZM52 12L52 13L53 13L53 12ZM54 12L54 13L55 13L55 14L56 14L56 13L55 13L55 12ZM2 13L2 14L1 14L1 16L2 16L2 15L3 15L3 13ZM41 14L41 16L39 16L39 17L41 17L41 16L42 16L42 17L43 17L43 16L42 16L42 15L44 15L44 14ZM53 14L53 15L54 15L54 14ZM4 15L4 16L3 16L3 18L2 18L2 19L1 19L1 20L2 20L2 19L4 19L4 20L5 20L5 17L4 17L4 16L5 16L5 15ZM11 15L11 17L12 17L12 15ZM25 15L25 16L26 16L26 15ZM27 15L27 16L28 16L28 15ZM21 16L21 17L22 17L22 16ZM47 16L47 17L48 17L48 16ZM15 18L15 19L16 19L16 18ZM23 18L23 19L21 19L21 20L20 20L20 21L18 21L18 22L20 22L20 23L19 23L19 25L20 25L20 26L21 26L21 25L24 25L24 24L25 24L25 25L26 25L26 26L25 26L25 27L26 27L26 26L30 26L30 25L29 25L29 24L30 24L30 23L31 23L31 24L32 24L32 26L31 26L31 28L32 28L32 30L31 30L31 31L30 31L30 32L29 32L29 33L31 33L31 35L32 35L32 34L35 34L35 36L34 36L34 35L33 35L33 36L32 36L32 37L33 37L33 39L35 39L35 36L37 36L37 34L35 34L35 32L37 32L37 33L38 33L38 36L39 36L39 35L40 35L40 34L39 34L39 33L41 33L41 32L43 32L43 30L41 30L41 29L43 29L43 28L44 28L44 26L42 26L42 25L41 25L41 24L40 24L40 22L39 22L39 21L43 21L43 20L44 20L44 18L43 18L43 19L42 19L42 18L41 18L41 20L39 20L39 21L38 21L38 20L37 20L37 21L38 21L38 22L37 22L37 24L40 24L40 25L38 25L38 26L37 26L37 25L33 25L33 24L32 24L32 23L33 23L33 22L34 22L34 23L35 23L35 19L33 19L33 20L32 20L32 21L31 21L31 22L30 22L30 23L29 23L29 22L28 22L28 21L30 21L30 19L31 19L31 18L30 18L30 19L28 19L28 18L26 18L26 21L27 21L27 24L25 24L25 23L26 23L26 22L25 22L25 21L24 21L24 20L23 20L23 19L24 19L24 18ZM18 19L18 20L19 20L19 19ZM27 19L27 20L28 20L28 19ZM1 21L1 22L2 22L2 21ZM21 21L21 22L22 22L22 21ZM23 21L23 22L24 22L24 21ZM41 22L41 23L42 23L42 22ZM17 23L17 24L18 24L18 23ZM21 23L21 24L20 24L20 25L21 25L21 24L24 24L24 23ZM28 23L28 24L27 24L27 25L28 25L28 24L29 24L29 23ZM2 24L2 25L3 25L3 24ZM22 26L22 27L20 27L20 28L22 28L22 29L19 29L19 31L18 31L18 29L16 29L16 30L17 30L17 33L16 33L16 32L15 32L15 31L14 31L14 33L13 33L13 34L14 34L14 33L16 33L16 34L17 34L17 33L18 33L18 34L19 34L19 37L23 37L23 38L24 38L24 37L23 37L23 36L24 36L24 34L23 34L23 33L25 33L25 32L21 32L21 31L24 31L24 30L23 30L23 29L24 29L24 26ZM32 26L32 27L33 27L33 28L35 28L35 29L38 29L38 28L40 28L40 26L39 26L39 27L36 27L36 26L34 26L34 27L33 27L33 26ZM41 26L41 28L42 28L42 26ZM5 27L5 30L8 30L8 27ZM27 27L27 30L30 30L30 27ZM35 27L35 28L36 28L36 27ZM49 27L49 30L52 30L52 27ZM6 28L6 29L7 29L7 28ZM25 28L25 29L26 29L26 28ZM28 28L28 29L29 29L29 28ZM50 28L50 29L51 29L51 28ZM53 29L53 31L55 31L55 30L54 30L54 29ZM1 30L1 31L2 31L2 33L1 33L1 35L2 35L2 33L6 33L6 34L8 34L8 33L6 33L6 32L7 32L7 31L5 31L5 32L4 32L4 31L2 31L2 30ZM32 30L32 31L31 31L31 33L32 33L32 31L33 31L33 32L34 32L34 31L35 31L35 30ZM38 30L38 32L39 32L39 30ZM40 30L40 31L41 31L41 30ZM19 31L19 32L18 32L18 33L19 33L19 34L20 34L20 35L21 35L21 36L23 36L23 34L22 34L22 33L21 33L21 32L20 32L20 31ZM47 31L47 32L48 32L48 33L49 33L49 32L48 32L48 31ZM19 32L19 33L20 33L20 34L21 34L21 35L22 35L22 34L21 34L21 33L20 33L20 32ZM3 34L3 35L5 35L5 34ZM42 34L42 35L43 35L43 36L40 36L40 37L43 37L43 36L44 36L44 35L43 35L43 34ZM50 34L50 35L52 35L52 34ZM2 38L2 39L3 39L3 38ZM19 38L19 39L20 39L20 38ZM21 38L21 40L20 40L20 42L21 42L21 43L20 43L20 44L19 44L19 45L20 45L20 44L21 44L21 43L22 43L22 42L24 42L24 41L23 41L23 40L24 40L24 39L22 39L22 38ZM50 38L50 39L47 39L47 40L46 40L46 39L45 39L45 40L44 40L44 41L45 41L45 43L44 43L44 42L43 42L43 44L44 44L44 45L45 45L45 44L46 44L46 42L48 42L48 41L49 41L49 40L50 40L50 39L51 39L51 38ZM54 38L54 39L55 39L55 38ZM38 39L38 40L39 40L39 39ZM29 40L29 43L32 43L32 44L33 44L33 43L34 43L34 42L33 42L33 41L32 41L32 40ZM10 41L10 42L11 42L11 41ZM13 41L13 42L14 42L14 41ZM18 41L18 42L17 42L17 43L18 43L18 42L19 42L19 41ZM31 41L31 42L32 42L32 43L33 43L33 42L32 42L32 41ZM39 41L39 42L40 42L40 41ZM3 42L3 43L4 43L4 45L5 45L5 42ZM6 42L6 43L7 43L7 44L6 44L6 45L8 45L8 47L9 47L9 42ZM50 42L50 43L51 43L51 42ZM10 44L10 46L11 46L11 47L10 47L10 48L11 48L11 47L12 47L12 48L13 48L13 46L15 46L15 47L14 47L14 48L15 48L15 47L16 47L16 46L15 46L15 44L14 44L14 45L13 45L13 46L11 46L11 44ZM17 44L17 45L18 45L18 44ZM26 45L26 47L27 47L27 45ZM54 45L54 46L55 46L55 45ZM42 48L42 49L43 49L43 48ZM54 48L54 49L56 49L56 48ZM13 49L13 50L14 50L14 49ZM15 49L15 50L16 50L16 49ZM27 49L27 52L30 52L30 49ZM45 49L45 50L46 50L46 52L45 52L45 53L44 53L44 54L46 54L46 53L47 53L47 50L46 50L46 49ZM49 49L49 52L52 52L52 49ZM28 50L28 51L29 51L29 50ZM50 50L50 51L51 51L51 50ZM18 51L18 52L19 52L19 51ZM56 51L56 53L57 53L57 51ZM33 52L33 53L34 53L34 52ZM53 52L53 53L54 53L54 52ZM9 53L9 55L11 55L11 53ZM15 55L15 56L16 56L16 55ZM17 55L17 56L18 56L18 55ZM50 55L50 56L51 56L51 55ZM0 0L0 7L7 7L7 0ZM1 1L1 6L6 6L6 1ZM2 2L2 5L5 5L5 2ZM50 0L50 7L57 7L57 0ZM51 1L51 6L56 6L56 1ZM52 2L52 5L55 5L55 2ZM0 50L0 57L7 57L7 50ZM1 51L1 56L6 56L6 51ZM2 52L2 55L5 55L5 52Z" fill="#000000"/></g></g></svg>
