<?xml version="1.0" encoding="UTF-8"?>
<svg xmlns="http://www.w3.org/2000/svg" version="1.1" width="300" height="300" viewBox="0 0 300 300"><rect x="0" y="0" width="300" height="300" fill="#fefefe"/><g transform="scale(4.615)"><g transform="translate(4,4)"><path fill-rule="evenodd" d="M8 0L8 4L9 4L9 3L11 3L11 2L12 2L12 3L13 3L13 4L10 4L10 5L8 5L8 7L9 7L9 6L10 6L10 7L11 7L11 8L12 8L12 10L13 10L13 11L12 11L12 12L9 12L9 13L7 13L7 12L6 12L6 13L7 13L7 14L6 14L6 15L7 15L7 14L9 14L9 16L10 16L10 17L7 17L7 16L4 16L4 15L5 15L5 14L4 14L4 15L3 15L3 16L2 16L2 12L4 12L4 13L5 13L5 9L7 9L7 8L4 8L4 11L2 11L2 12L1 12L1 10L2 10L2 8L0 8L0 9L1 9L1 10L0 10L0 13L1 13L1 14L0 14L0 15L1 15L1 16L2 16L2 17L1 17L1 18L0 18L0 20L1 20L1 18L2 18L2 20L3 20L3 18L4 18L4 17L7 17L7 18L5 18L5 20L4 20L4 21L0 21L0 22L2 22L2 23L1 23L1 24L0 24L0 26L2 26L2 23L4 23L4 24L3 24L3 27L2 27L2 29L1 29L1 28L0 28L0 29L1 29L1 30L0 30L0 34L1 34L1 35L2 35L2 34L3 34L3 33L5 33L5 34L4 34L4 35L5 35L5 37L3 37L3 36L1 36L1 38L3 38L3 39L1 39L1 40L0 40L0 43L2 43L2 41L1 41L1 40L3 40L3 44L5 44L5 47L3 47L3 46L2 46L2 47L1 47L1 46L0 46L0 48L5 48L5 47L7 47L7 46L6 46L6 45L7 45L7 44L5 44L5 43L4 43L4 40L3 40L3 39L4 39L4 38L5 38L5 41L7 41L7 42L6 42L6 43L7 43L7 42L8 42L8 44L9 44L9 45L8 45L8 48L9 48L9 46L12 46L12 41L13 41L13 40L14 40L14 39L15 39L15 40L17 40L17 43L18 43L18 41L20 41L20 42L19 42L19 44L18 44L18 45L17 45L17 46L16 46L16 44L15 44L15 43L16 43L16 41L15 41L15 42L14 42L14 44L15 44L15 46L14 46L14 45L13 45L13 46L14 46L14 48L16 48L16 49L13 49L13 50L11 50L11 48L12 48L12 47L11 47L11 48L10 48L10 49L8 49L8 50L10 50L10 51L8 51L8 53L9 53L9 55L8 55L8 57L9 57L9 56L10 56L10 57L11 57L11 56L13 56L13 57L14 57L14 56L15 56L15 55L16 55L16 54L17 54L17 57L19 57L19 56L18 56L18 55L20 55L20 54L21 54L21 56L20 56L20 57L22 57L22 52L24 52L24 53L23 53L23 55L24 55L24 57L25 57L25 56L26 56L26 57L27 57L27 55L26 55L26 54L27 54L27 53L28 53L28 57L29 57L29 55L30 55L30 57L34 57L34 53L35 53L35 57L37 57L37 56L36 56L36 54L37 54L37 55L39 55L39 57L40 57L40 56L43 56L43 55L44 55L44 53L45 53L45 55L46 55L46 56L48 56L48 55L46 55L46 52L45 52L45 51L42 51L42 50L44 50L44 49L46 49L46 48L47 48L47 47L46 47L46 45L47 45L47 44L46 44L46 45L45 45L45 44L44 44L44 45L43 45L43 44L42 44L42 43L41 43L41 42L43 42L43 41L44 41L44 42L45 42L45 43L47 43L47 42L46 42L46 41L47 41L47 40L49 40L49 39L50 39L50 40L51 40L51 39L50 39L50 38L52 38L52 41L51 41L51 43L50 43L50 42L49 42L49 41L48 41L48 42L49 42L49 43L48 43L48 44L49 44L49 43L50 43L50 45L49 45L49 47L48 47L48 49L47 49L47 52L48 52L48 54L49 54L49 57L50 57L50 55L51 55L51 56L53 56L53 57L54 57L54 55L53 55L53 50L54 50L54 51L56 51L56 50L57 50L57 49L56 49L56 45L57 45L57 44L56 44L56 45L55 45L55 49L54 49L54 47L53 47L53 46L52 46L52 45L51 45L51 43L52 43L52 44L53 44L53 45L54 45L54 44L53 44L53 43L54 43L54 42L55 42L55 43L56 43L56 42L57 42L57 40L54 40L54 41L53 41L53 38L54 38L54 39L57 39L57 38L55 38L55 36L53 36L53 35L56 35L56 34L57 34L57 33L56 33L56 30L54 30L54 28L53 28L53 27L54 27L54 26L55 26L55 27L56 27L56 29L57 29L57 27L56 27L56 25L57 25L57 24L56 24L56 21L57 21L57 19L56 19L56 18L57 18L57 15L56 15L56 10L57 10L57 8L53 8L53 9L52 9L52 8L51 8L51 9L50 9L50 16L49 16L49 15L48 15L48 17L47 17L47 18L46 18L46 17L45 17L45 16L44 16L44 15L43 15L43 13L41 13L41 14L40 14L40 13L38 13L38 15L39 15L39 17L38 17L38 16L37 16L37 15L35 15L35 17L38 17L38 18L39 18L39 19L37 19L37 18L35 18L35 19L36 19L36 20L35 20L35 22L34 22L34 21L33 21L33 20L34 20L34 13L33 13L33 12L32 12L32 11L33 11L33 10L34 10L34 12L35 12L35 13L36 13L36 14L37 14L37 12L39 12L39 11L40 11L40 10L43 10L43 11L41 11L41 12L43 12L43 11L45 11L45 12L44 12L44 14L45 14L45 15L46 15L46 9L47 9L47 10L49 10L49 9L47 9L47 8L46 8L46 7L47 7L47 5L48 5L48 0L46 0L46 1L45 1L45 0L41 0L41 1L40 1L40 2L39 2L39 3L40 3L40 4L38 4L38 5L36 5L36 4L35 4L35 3L34 3L34 2L36 2L36 3L38 3L38 1L39 1L39 0L38 0L38 1L37 1L37 2L36 2L36 0L35 0L35 1L34 1L34 0L33 0L33 1L32 1L32 0L30 0L30 1L29 1L29 2L30 2L30 1L31 1L31 2L32 2L32 3L31 3L31 4L30 4L30 3L28 3L28 0L23 0L23 3L21 3L21 5L23 5L23 6L22 6L22 7L21 7L21 6L20 6L20 5L19 5L19 6L18 6L18 7L17 7L17 6L16 6L16 5L15 5L15 4L14 4L14 0L12 0L12 1L11 1L11 0ZM15 0L15 1L16 1L16 0ZM18 0L18 2L19 2L19 3L20 3L20 1L21 1L21 2L22 2L22 1L21 1L21 0L20 0L20 1L19 1L19 0ZM9 1L9 2L10 2L10 1ZM25 1L25 3L23 3L23 5L24 5L24 4L25 4L25 3L26 3L26 4L28 4L28 3L27 3L27 1ZM33 1L33 2L34 2L34 1ZM46 1L46 2L47 2L47 1ZM15 2L15 3L16 3L16 4L17 4L17 5L18 5L18 3L16 3L16 2ZM40 2L40 3L41 3L41 4L43 4L43 7L44 7L44 4L45 4L45 7L46 7L46 5L47 5L47 3L44 3L44 2L43 2L43 3L42 3L42 2ZM32 3L32 5L33 5L33 7L32 7L32 6L31 6L31 10L30 10L30 11L32 11L32 8L33 8L33 9L34 9L34 10L36 10L36 11L37 11L37 10L38 10L38 8L37 8L37 9L35 9L35 7L36 7L36 5L35 5L35 4L34 4L34 5L33 5L33 3ZM43 3L43 4L44 4L44 3ZM10 5L10 6L11 6L11 7L12 7L12 8L13 8L13 9L14 9L14 8L15 8L15 9L16 9L16 11L15 11L15 12L14 12L14 11L13 11L13 12L12 12L12 13L9 13L9 14L11 14L11 17L12 17L12 19L14 19L14 20L15 20L15 21L17 21L17 22L16 22L16 23L14 23L14 24L15 24L15 25L16 25L16 26L17 26L17 27L18 27L18 26L17 26L17 22L18 22L18 21L17 21L17 20L18 20L18 19L19 19L19 21L20 21L20 19L22 19L22 18L20 18L20 16L21 16L21 17L26 17L26 16L27 16L27 15L28 15L28 14L27 14L27 13L29 13L29 16L31 16L31 15L30 15L30 13L32 13L32 14L33 14L33 13L32 13L32 12L29 12L29 11L28 11L28 10L29 10L29 9L26 9L26 6L25 6L25 7L24 7L24 6L23 6L23 7L22 7L22 10L20 10L20 8L19 8L19 9L16 9L16 8L15 8L15 7L16 7L16 6L15 6L15 5L14 5L14 6L13 6L13 7L12 7L12 6L11 6L11 5ZM27 5L27 8L30 8L30 5ZM34 5L34 7L33 7L33 8L34 8L34 7L35 7L35 5ZM39 5L39 7L40 7L40 6L41 6L41 7L42 7L42 6L41 6L41 5ZM14 6L14 7L13 7L13 8L14 8L14 7L15 7L15 6ZM19 6L19 7L20 7L20 6ZM28 6L28 7L29 7L29 6ZM37 6L37 7L38 7L38 6ZM48 6L48 8L49 8L49 6ZM23 7L23 9L24 9L24 10L25 10L25 11L24 11L24 12L22 12L22 11L21 11L21 12L20 12L20 15L18 15L18 16L17 16L17 14L19 14L19 12L18 12L18 13L17 13L17 12L15 12L15 13L13 13L13 14L12 14L12 15L13 15L13 16L12 16L12 17L13 17L13 18L16 18L16 20L17 20L17 19L18 19L18 18L16 18L16 17L19 17L19 16L20 16L20 15L22 15L22 16L24 16L24 15L22 15L22 14L21 14L21 13L23 13L23 14L25 14L25 16L26 16L26 15L27 15L27 14L26 14L26 11L27 11L27 12L28 12L28 11L27 11L27 10L25 10L25 9L24 9L24 7ZM40 8L40 9L39 9L39 10L40 10L40 9L44 9L44 10L45 10L45 9L46 9L46 8L45 8L45 9L44 9L44 8ZM10 9L10 10L6 10L6 11L11 11L11 9ZM51 9L51 10L52 10L52 12L51 12L51 14L52 14L52 15L51 15L51 16L50 16L50 17L49 17L49 18L48 18L48 19L46 19L46 18L45 18L45 20L46 20L46 21L45 21L45 22L44 22L44 16L43 16L43 15L42 15L42 17L43 17L43 18L42 18L42 19L41 19L41 18L40 18L40 17L41 17L41 15L40 15L40 14L39 14L39 15L40 15L40 17L39 17L39 18L40 18L40 21L39 21L39 23L40 23L40 25L39 25L39 26L38 26L38 20L37 20L37 22L35 22L35 23L34 23L34 24L33 24L33 25L34 25L34 26L33 26L33 27L32 27L32 23L33 23L33 22L31 22L31 30L32 30L32 32L30 32L30 31L29 31L29 33L28 33L28 34L27 34L27 33L26 33L26 34L24 34L24 36L25 36L25 35L26 35L26 34L27 34L27 36L26 36L26 38L24 38L24 37L23 37L23 36L22 36L22 35L21 35L21 36L22 36L22 39L21 39L21 40L22 40L22 42L21 42L21 43L20 43L20 44L19 44L19 47L20 47L20 49L19 49L19 51L21 51L21 52L22 52L22 51L21 51L21 50L22 50L22 49L23 49L23 48L24 48L24 49L25 49L25 50L26 50L26 48L28 48L28 47L30 47L30 48L31 48L31 49L32 49L32 48L34 48L34 47L36 47L36 48L37 48L37 46L38 46L38 45L39 45L39 44L40 44L40 51L38 51L38 49L39 49L39 47L38 47L38 49L37 49L37 51L38 51L38 52L37 52L37 53L39 53L39 52L40 52L40 53L44 53L44 52L41 52L41 44L40 44L40 42L41 42L41 40L40 40L40 41L39 41L39 44L37 44L37 43L33 43L33 41L32 41L32 40L33 40L33 39L34 39L34 42L35 42L35 39L37 39L37 42L38 42L38 37L44 37L44 38L43 38L43 39L45 39L45 40L47 40L47 39L48 39L48 38L49 38L49 37L50 37L50 35L53 35L53 34L54 34L54 33L55 33L55 31L50 31L50 35L49 35L49 33L48 33L48 31L47 31L47 30L48 30L48 28L47 28L47 27L48 27L48 26L47 26L47 25L49 25L49 26L50 26L50 25L51 25L51 26L52 26L52 25L54 25L54 24L55 24L55 25L56 25L56 24L55 24L55 23L53 23L53 22L52 22L52 21L54 21L54 22L55 22L55 20L56 20L56 19L55 19L55 17L56 17L56 16L55 16L55 9L53 9L53 10L52 10L52 9ZM17 10L17 11L18 11L18 10ZM19 10L19 11L20 11L20 10ZM53 10L53 11L54 11L54 10ZM48 11L48 12L49 12L49 11ZM53 12L53 13L52 13L52 14L53 14L53 13L54 13L54 12ZM15 13L15 14L17 14L17 13ZM47 13L47 14L49 14L49 13ZM3 16L3 17L2 17L2 18L3 18L3 17L4 17L4 16ZM13 16L13 17L14 17L14 16ZM51 16L51 17L50 17L50 19L49 19L49 20L51 20L51 21L47 21L47 22L50 22L50 24L51 24L51 25L52 25L52 24L53 24L53 23L52 23L52 22L51 22L51 21L52 21L52 20L53 20L53 19L51 19L51 17L52 17L52 18L53 18L53 17L52 17L52 16ZM54 16L54 17L55 17L55 16ZM27 17L27 19L26 19L26 20L28 20L28 21L24 21L24 20L25 20L25 18L24 18L24 19L23 19L23 20L21 20L21 21L24 21L24 22L25 22L25 23L26 23L26 22L27 22L27 24L28 24L28 25L27 25L27 26L28 26L28 25L29 25L29 26L30 26L30 25L29 25L29 23L30 23L30 21L29 21L29 20L31 20L31 21L32 21L32 20L31 20L31 19L32 19L32 18L33 18L33 17L32 17L32 18L31 18L31 19L30 19L30 18L28 18L28 17ZM7 18L7 19L6 19L6 20L5 20L5 21L4 21L4 22L5 22L5 24L4 24L4 25L6 25L6 26L7 26L7 25L6 25L6 24L9 24L9 26L10 26L10 27L9 27L9 28L11 28L11 31L10 31L10 33L9 33L9 34L12 34L12 35L14 35L14 34L15 34L15 32L16 32L16 34L20 34L20 33L21 33L21 34L23 34L23 33L25 33L25 32L26 32L26 31L24 31L24 30L23 30L23 28L22 28L22 27L21 27L21 26L22 26L22 25L24 25L24 23L23 23L23 22L22 22L22 25L21 25L21 22L20 22L20 23L19 23L19 25L21 25L21 26L20 26L20 27L19 27L19 28L18 28L18 29L15 29L15 28L16 28L16 27L15 27L15 28L14 28L14 30L12 30L12 27L14 27L14 25L13 25L13 23L12 23L12 22L14 22L14 21L12 21L12 22L11 22L11 20L9 20L9 18ZM10 18L10 19L11 19L11 18ZM28 19L28 20L29 20L29 19ZM6 20L6 21L5 21L5 22L6 22L6 23L7 23L7 22L8 22L8 21L9 21L9 20ZM42 20L42 21L40 21L40 22L41 22L41 24L43 24L43 23L44 23L44 22L43 22L43 20ZM6 21L6 22L7 22L7 21ZM28 22L28 23L29 23L29 22ZM42 22L42 23L43 23L43 22ZM9 23L9 24L11 24L11 23ZM45 23L45 24L44 24L44 25L40 25L40 27L37 27L37 26L36 26L36 27L37 27L37 28L35 28L35 29L37 29L37 30L35 30L35 31L34 31L34 27L33 27L33 28L32 28L32 29L33 29L33 31L34 31L34 32L35 32L35 34L34 34L34 33L33 33L33 32L32 32L32 33L29 33L29 34L28 34L28 36L27 36L27 37L28 37L28 36L29 36L29 37L31 37L31 36L32 36L32 37L33 37L33 38L31 38L31 39L29 39L29 38L28 38L28 39L27 39L27 38L26 38L26 40L25 40L25 41L24 41L24 39L23 39L23 42L26 42L26 41L27 41L27 42L28 42L28 43L29 43L29 42L30 42L30 41L31 41L31 44L27 44L27 43L24 43L24 44L22 44L22 43L21 43L21 44L20 44L20 47L22 47L22 48L21 48L21 49L20 49L20 50L21 50L21 49L22 49L22 48L23 48L23 47L25 47L25 46L26 46L26 47L28 47L28 46L26 46L26 45L29 45L29 46L31 46L31 44L32 44L32 45L33 45L33 47L34 47L34 45L36 45L36 46L37 46L37 44L33 44L33 43L32 43L32 41L31 41L31 39L33 39L33 38L34 38L34 36L33 36L33 35L31 35L31 36L30 36L30 34L32 34L32 33L33 33L33 34L34 34L34 35L35 35L35 38L37 38L37 37L38 37L38 36L40 36L40 35L38 35L38 34L39 34L39 33L40 33L40 34L42 34L42 35L41 35L41 36L43 36L43 33L45 33L45 35L44 35L44 37L45 37L45 39L47 39L47 38L48 38L48 37L47 37L47 38L46 38L46 37L45 37L45 35L46 35L46 36L49 36L49 35L48 35L48 34L47 34L47 35L46 35L46 30L45 30L45 27L47 27L47 26L46 26L46 25L47 25L47 24L49 24L49 23L47 23L47 24L46 24L46 23ZM51 23L51 24L52 24L52 23ZM34 24L34 25L37 25L37 24ZM11 25L11 27L12 27L12 25ZM25 25L25 27L26 27L26 25ZM43 26L43 27L45 27L45 26ZM3 27L3 29L4 29L4 27ZM5 27L5 30L8 30L8 27ZM20 27L20 28L19 28L19 29L18 29L18 30L19 30L19 29L20 29L20 31L21 31L21 33L22 33L22 31L23 31L23 32L24 32L24 31L23 31L23 30L22 30L22 29L21 29L21 27ZM27 27L27 30L30 30L30 27ZM41 27L41 28L40 28L40 29L39 29L39 32L40 32L40 33L41 33L41 32L40 32L40 30L41 30L41 29L43 29L43 31L44 31L44 29L43 29L43 28L42 28L42 27ZM49 27L49 30L52 30L52 27ZM6 28L6 29L7 29L7 28ZM28 28L28 29L29 29L29 28ZM37 28L37 29L38 29L38 28ZM46 28L46 29L47 29L47 28ZM50 28L50 29L51 29L51 28ZM9 29L9 30L10 30L10 29ZM25 29L25 30L26 30L26 29ZM3 30L3 31L1 31L1 33L2 33L2 32L4 32L4 30ZM14 30L14 31L13 31L13 32L14 32L14 31L16 31L16 32L17 32L17 33L19 33L19 32L18 32L18 31L17 31L17 30ZM21 30L21 31L22 31L22 30ZM37 30L37 32L38 32L38 30ZM5 31L5 32L7 32L7 31ZM8 31L8 32L9 32L9 31ZM11 32L11 33L12 33L12 34L14 34L14 33L12 33L12 32ZM51 32L51 33L53 33L53 32ZM6 33L6 34L5 34L5 35L6 35L6 36L7 36L7 37L5 37L5 38L7 38L7 39L6 39L6 40L7 40L7 41L8 41L8 40L9 40L9 42L11 42L11 41L12 41L12 40L13 40L13 39L14 39L14 38L15 38L15 39L16 39L16 38L18 38L18 39L17 39L17 40L19 40L19 39L20 39L20 38L21 38L21 37L19 37L19 38L18 38L18 37L17 37L17 35L15 35L15 36L11 36L11 35L9 35L9 36L10 36L10 37L8 37L8 36L7 36L7 35L6 35L6 34L8 34L8 33ZM37 33L37 34L38 34L38 33ZM19 35L19 36L20 36L20 35ZM37 35L37 36L38 36L38 35ZM15 36L15 37L16 37L16 36ZM51 36L51 37L52 37L52 38L53 38L53 36ZM56 36L56 37L57 37L57 36ZM11 37L11 40L12 40L12 37ZM8 38L8 39L7 39L7 40L8 40L8 39L9 39L9 40L10 40L10 38ZM39 38L39 39L40 39L40 38ZM28 40L28 42L29 42L29 41L30 41L30 40ZM52 41L52 43L53 43L53 41ZM9 43L9 44L10 44L10 45L11 45L11 43ZM0 44L0 45L2 45L2 44ZM24 44L24 45L21 45L21 46L22 46L22 47L23 47L23 46L24 46L24 45L25 45L25 44ZM44 45L44 46L43 46L43 47L42 47L42 49L44 49L44 46L45 46L45 45ZM50 45L50 47L49 47L49 48L51 48L51 47L52 47L52 48L53 48L53 47L52 47L52 46L51 46L51 45ZM15 46L15 47L16 47L16 46ZM17 46L17 47L18 47L18 46ZM31 47L31 48L32 48L32 47ZM6 48L6 49L7 49L7 48ZM16 49L16 52L15 52L15 50L13 50L13 51L14 51L14 53L12 53L12 54L11 54L11 53L10 53L10 52L12 52L12 51L10 51L10 52L9 52L9 53L10 53L10 54L11 54L11 55L12 55L12 54L13 54L13 56L14 56L14 54L15 54L15 53L17 53L17 52L18 52L18 50L17 50L17 49ZM27 49L27 52L30 52L30 49ZM34 49L34 52L33 52L33 53L32 53L32 54L33 54L33 53L34 53L34 52L36 52L36 49ZM49 49L49 52L52 52L52 49ZM28 50L28 51L29 51L29 50ZM32 50L32 51L31 51L31 52L32 52L32 51L33 51L33 50ZM50 50L50 51L51 51L51 50ZM25 51L25 53L24 53L24 54L25 54L25 53L26 53L26 51ZM19 52L19 53L20 53L20 52ZM54 52L54 53L55 53L55 54L57 54L57 52L56 52L56 53L55 53L55 52ZM30 53L30 54L31 54L31 53ZM49 53L49 54L51 54L51 55L52 55L52 54L51 54L51 53ZM40 54L40 55L43 55L43 54ZM44 56L44 57L45 57L45 56ZM56 56L56 57L57 57L57 56ZM0 0L0 7L7 7L7 0ZM1 1L1 6L6 6L6 1ZM2 2L2 5L5 5L5 2ZM50 0L50 7L57 7L57 0ZM51 1L51 6L56 6L56 1ZM52 2L52 5L55 5L55 2ZM0 50L0 57L7 57L7 50ZM1 51L1 56L6 56L6 51ZM2 52L2 55L5 55L5 52Z" fill="#000000"/></g></g></svg>
