<?xml version="1.0" encoding="UTF-8"?>
<svg xmlns="http://www.w3.org/2000/svg" version="1.1" width="300" height="300" viewBox="0 0 300 300"><rect x="0" y="0" width="300" height="300" fill="#fefefe"/><g transform="scale(4.615)"><g transform="translate(4,4)"><path fill-rule="evenodd" d="M9 0L9 1L8 1L8 2L9 2L9 3L8 3L8 4L10 4L10 3L11 3L11 2L12 2L12 1L11 1L11 2L9 2L9 1L10 1L10 0ZM14 0L14 2L13 2L13 3L12 3L12 4L11 4L11 5L12 5L12 7L11 7L11 6L10 6L10 5L8 5L8 7L9 7L9 6L10 6L10 7L11 7L11 9L10 9L10 8L6 8L6 9L9 9L9 11L8 11L8 12L6 12L6 13L8 13L8 12L9 12L9 13L10 13L10 14L9 14L9 15L8 15L8 16L10 16L10 18L6 18L6 19L7 19L7 20L6 20L6 21L4 21L4 19L5 19L5 17L7 17L7 16L5 16L5 15L4 15L4 17L3 17L3 16L2 16L2 15L1 15L1 14L0 14L0 19L1 19L1 18L2 18L2 20L0 20L0 22L2 22L2 20L3 20L3 23L4 23L4 22L5 22L5 26L4 26L4 25L3 25L3 24L2 24L2 25L1 25L1 26L0 26L0 27L1 27L1 28L2 28L2 26L3 26L3 27L4 27L4 28L3 28L3 29L4 29L4 32L5 32L5 31L7 31L7 32L6 32L6 33L7 33L7 32L8 32L8 34L6 34L6 35L5 35L5 34L4 34L4 33L3 33L3 31L2 31L2 34L1 34L1 36L2 36L2 35L5 35L5 36L6 36L6 37L9 37L9 38L5 38L5 37L4 37L4 36L3 36L3 37L1 37L1 38L2 38L2 39L3 39L3 40L4 40L4 41L5 41L5 42L4 42L4 43L3 43L3 42L2 42L2 40L1 40L1 41L0 41L0 42L1 42L1 43L2 43L2 45L1 45L1 46L0 46L0 48L5 48L5 47L7 47L7 48L6 48L6 49L7 49L7 48L8 48L8 47L10 47L10 48L9 48L9 49L8 49L8 51L9 51L9 52L8 52L8 57L14 57L14 56L13 56L13 55L16 55L16 56L15 56L15 57L16 57L16 56L17 56L17 57L22 57L22 56L19 56L19 55L20 55L20 54L19 54L19 53L20 53L20 52L21 52L21 51L22 51L22 50L26 50L26 52L24 52L24 53L23 53L23 54L22 54L22 55L23 55L23 56L24 56L24 57L26 57L26 56L27 56L27 57L29 57L29 56L30 56L30 57L31 57L31 56L35 56L35 57L39 57L39 56L37 56L37 55L41 55L41 57L42 57L42 55L44 55L44 54L45 54L45 57L47 57L47 56L48 56L48 57L49 57L49 56L50 56L50 57L52 57L52 55L51 55L51 53L52 53L52 54L53 54L53 55L54 55L54 56L53 56L53 57L54 57L54 56L55 56L55 57L56 57L56 56L55 56L55 53L56 53L56 49L57 49L57 48L56 48L56 46L57 46L57 45L56 45L56 44L55 44L55 43L56 43L56 41L55 41L55 39L57 39L57 36L56 36L56 37L55 37L55 35L56 35L56 34L57 34L57 32L56 32L56 30L57 30L57 29L56 29L56 27L55 27L55 26L57 26L57 25L56 25L56 22L57 22L57 20L55 20L55 19L56 19L56 18L53 18L53 17L51 17L51 16L52 16L52 15L53 15L53 16L55 16L55 17L56 17L56 16L57 16L57 15L56 15L56 14L57 14L57 13L56 13L56 14L54 14L54 12L56 12L56 8L55 8L55 10L54 10L54 11L53 11L53 9L54 9L54 8L53 8L53 9L52 9L52 8L51 8L51 10L52 10L52 11L50 11L50 8L48 8L48 9L47 9L47 10L46 10L46 11L45 11L45 9L44 9L44 8L43 8L43 6L44 6L44 7L45 7L45 8L47 8L47 5L48 5L48 0L46 0L46 1L45 1L45 2L44 2L44 3L43 3L43 4L42 4L42 2L43 2L43 0L41 0L41 1L40 1L40 0L39 0L39 1L38 1L38 0L37 0L37 1L38 1L38 2L39 2L39 3L41 3L41 4L40 4L40 5L39 5L39 6L38 6L38 7L37 7L37 5L38 5L38 3L36 3L36 0L35 0L35 1L33 1L33 2L32 2L32 0L29 0L29 1L26 1L26 0L23 0L23 1L22 1L22 0L21 0L21 1L20 1L20 0L17 0L17 1L15 1L15 0ZM17 1L17 2L14 2L14 4L13 4L13 7L14 7L14 6L15 6L15 7L16 7L16 8L14 8L14 9L12 9L12 10L15 10L15 11L16 11L16 10L17 10L17 11L18 11L18 10L17 10L17 9L16 9L16 8L17 8L17 7L18 7L18 6L19 6L19 7L20 7L20 5L19 5L19 4L21 4L21 7L22 7L22 8L20 8L20 10L19 10L19 12L20 12L20 14L19 14L19 16L20 16L20 18L19 18L19 17L18 17L18 16L17 16L17 13L18 13L18 12L17 12L17 13L16 13L16 12L15 12L15 13L13 13L13 12L14 12L14 11L11 11L11 10L10 10L10 11L9 11L9 12L10 12L10 11L11 11L11 13L13 13L13 14L11 14L11 15L10 15L10 16L11 16L11 15L13 15L13 16L12 16L12 18L13 18L13 19L12 19L12 20L10 20L10 19L11 19L11 18L10 18L10 19L9 19L9 20L7 20L7 21L6 21L6 22L7 22L7 23L6 23L6 24L7 24L7 25L6 25L6 26L8 26L8 22L7 22L7 21L9 21L9 20L10 20L10 22L11 22L11 24L10 24L10 26L11 26L11 27L9 27L9 31L8 31L8 32L9 32L9 31L11 31L11 32L12 32L12 33L11 33L11 34L10 34L10 33L9 33L9 34L10 34L10 36L12 36L12 37L10 37L10 39L5 39L5 38L4 38L4 37L3 37L3 38L4 38L4 39L5 39L5 41L6 41L6 42L9 42L9 43L11 43L11 44L12 44L12 45L13 45L13 46L10 46L10 47L11 47L11 48L12 48L12 47L13 47L13 46L14 46L14 49L15 49L15 51L17 51L17 52L16 52L16 53L15 53L15 52L13 52L13 53L15 53L15 54L16 54L16 53L17 53L17 52L20 52L20 50L21 50L21 49L23 49L23 47L26 47L26 48L29 48L29 46L30 46L30 45L32 45L32 46L31 46L31 48L32 48L32 49L31 49L31 53L30 53L30 54L27 54L27 53L24 53L24 54L23 54L23 55L24 55L24 56L25 56L25 54L26 54L26 55L27 55L27 56L29 56L29 55L30 55L30 56L31 56L31 54L32 54L32 53L33 53L33 54L34 54L34 55L35 55L35 56L36 56L36 54L35 54L35 53L34 53L34 52L35 52L35 51L33 51L33 52L32 52L32 50L36 50L36 52L37 52L37 51L38 51L38 54L40 54L40 53L42 53L42 52L43 52L43 51L46 51L46 50L47 50L47 53L45 53L45 52L44 52L44 53L43 53L43 54L44 54L44 53L45 53L45 54L48 54L48 50L47 50L47 49L48 49L48 48L49 48L49 47L48 47L48 46L47 46L47 45L49 45L49 46L50 46L50 47L51 47L51 48L53 48L53 49L56 49L56 48L53 48L53 45L52 45L52 44L53 44L53 43L54 43L54 42L53 42L53 41L51 41L51 42L50 42L50 43L48 43L48 44L47 44L47 45L45 45L45 44L46 44L46 43L45 43L45 42L48 42L48 41L49 41L49 39L52 39L52 40L53 40L53 39L54 39L54 38L53 38L53 35L55 35L55 34L56 34L56 32L55 32L55 34L54 34L54 33L52 33L52 32L53 32L53 31L55 31L55 30L54 30L54 29L55 29L55 28L54 28L54 29L53 29L53 31L52 31L52 32L51 32L51 31L50 31L50 32L49 32L49 31L48 31L48 28L47 28L47 29L46 29L46 30L47 30L47 31L46 31L46 32L47 32L47 33L45 33L45 32L43 32L43 30L41 30L41 29L44 29L44 30L45 30L45 28L46 28L46 27L48 27L48 26L47 26L47 25L48 25L48 24L49 24L49 25L50 25L50 26L51 26L51 25L52 25L52 26L53 26L53 27L54 27L54 26L53 26L53 25L54 25L54 24L53 24L53 23L55 23L55 22L56 22L56 21L55 21L55 20L53 20L53 19L52 19L52 20L51 20L51 21L49 21L49 20L47 20L47 19L46 19L46 18L47 18L47 17L46 17L46 18L45 18L45 14L47 14L47 13L49 13L49 12L50 12L50 14L49 14L49 15L48 15L48 16L49 16L49 15L50 15L50 16L51 16L51 15L50 15L50 14L51 14L51 12L50 12L50 11L49 11L49 12L45 12L45 11L42 11L42 10L41 10L41 12L40 12L40 11L39 11L39 12L40 12L40 13L38 13L38 14L36 14L36 15L35 15L35 16L33 16L33 15L32 15L32 13L33 13L33 14L35 14L35 12L36 12L36 10L37 10L37 11L38 11L38 10L39 10L39 9L42 9L42 8L41 8L41 7L42 7L42 6L41 6L41 5L40 5L40 6L39 6L39 7L40 7L40 8L38 8L38 10L37 10L37 9L35 9L35 8L37 8L37 7L36 7L36 5L37 5L37 4L36 4L36 5L35 5L35 2L33 2L33 3L32 3L32 2L31 2L31 1L30 1L30 2L31 2L31 3L32 3L32 4L31 4L31 8L32 8L32 10L31 10L31 11L30 11L30 10L29 10L29 9L28 9L28 10L27 10L27 11L26 11L26 12L25 12L25 10L24 10L24 12L23 12L23 13L22 13L22 12L20 12L20 11L22 11L22 10L21 10L21 9L24 9L24 6L23 6L23 5L24 5L24 4L23 4L23 3L26 3L26 4L25 4L25 8L26 8L26 4L30 4L30 3L29 3L29 2L22 2L22 1L21 1L21 3L20 3L20 1L19 1L19 2L18 2L18 1ZM46 1L46 2L47 2L47 1ZM17 2L17 4L19 4L19 3L18 3L18 2ZM44 3L44 6L45 6L45 7L46 7L46 5L47 5L47 3ZM15 4L15 5L16 5L16 4ZM32 4L32 5L33 5L33 4ZM45 4L45 5L46 5L46 4ZM27 5L27 8L30 8L30 5ZM34 5L34 7L33 7L33 6L32 6L32 7L33 7L33 9L34 9L34 8L35 8L35 5ZM16 6L16 7L17 7L17 6ZM22 6L22 7L23 7L23 6ZM28 6L28 7L29 7L29 6ZM40 6L40 7L41 7L41 6ZM48 6L48 7L49 7L49 6ZM0 8L0 10L2 10L2 9L3 9L3 11L4 11L4 9L5 9L5 8ZM15 9L15 10L16 10L16 9ZM5 10L5 11L7 11L7 10ZM32 10L32 11L31 11L31 13L30 13L30 14L29 14L29 13L28 13L28 12L29 12L29 11L27 11L27 12L26 12L26 13L23 13L23 14L22 14L22 13L21 13L21 15L20 15L20 16L21 16L21 17L22 17L22 18L20 18L20 19L18 19L18 17L17 17L17 16L16 16L16 13L15 13L15 14L13 14L13 15L14 15L14 16L13 16L13 18L14 18L14 16L16 16L16 17L17 17L17 19L16 19L16 18L15 18L15 19L16 19L16 20L15 20L15 21L16 21L16 22L14 22L14 21L13 21L13 20L14 20L14 19L13 19L13 20L12 20L12 21L11 21L11 22L12 22L12 23L13 23L13 22L14 22L14 24L13 24L13 25L11 25L11 26L13 26L13 27L12 27L12 28L13 28L13 29L14 29L14 30L12 30L12 32L13 32L13 33L14 33L14 35L13 35L13 36L14 36L14 35L15 35L15 36L17 36L17 39L18 39L18 40L16 40L16 39L15 39L15 40L11 40L11 41L9 41L9 40L8 40L8 41L9 41L9 42L11 42L11 43L12 43L12 44L13 44L13 45L14 45L14 43L13 43L13 42L12 42L12 41L19 41L19 42L18 42L18 43L16 43L16 45L17 45L17 46L15 46L15 49L17 49L17 51L19 51L19 50L20 50L20 47L23 47L23 46L25 46L25 44L27 44L27 45L26 45L26 47L28 47L28 46L27 46L27 45L30 45L30 44L29 44L29 43L31 43L31 44L33 44L33 43L34 43L34 45L35 45L35 46L32 46L32 48L33 48L33 47L34 47L34 48L35 48L35 49L36 49L36 50L38 50L38 51L40 51L40 52L41 52L41 50L42 50L42 51L43 51L43 49L44 49L44 48L43 48L43 47L46 47L46 48L48 48L48 47L47 47L47 46L44 46L44 44L43 44L43 42L44 42L44 40L47 40L47 39L49 39L49 38L50 38L50 37L51 37L51 36L52 36L52 35L53 35L53 34L52 34L52 33L51 33L51 32L50 32L50 34L49 34L49 35L50 35L50 37L49 37L49 36L48 36L48 37L47 37L47 36L46 36L46 34L45 34L45 35L44 35L44 33L43 33L43 32L41 32L41 33L39 33L39 34L40 34L40 35L39 35L39 37L40 37L40 38L43 38L43 37L44 37L44 38L45 38L45 37L44 37L44 36L46 36L46 37L47 37L47 39L42 39L42 40L43 40L43 41L41 41L41 42L42 42L42 44L41 44L41 46L40 46L40 47L39 47L39 46L38 46L38 45L39 45L39 44L40 44L40 43L39 43L39 42L40 42L40 41L39 41L39 42L38 42L38 40L40 40L40 39L38 39L38 40L35 40L35 39L37 39L37 38L38 38L38 37L37 37L37 36L38 36L38 33L37 33L37 32L34 32L34 31L36 31L36 30L33 30L33 31L32 31L32 27L33 27L33 28L35 28L35 29L38 29L38 28L39 28L39 27L40 27L40 26L39 26L39 27L37 27L37 28L35 28L35 27L36 27L36 26L34 26L34 27L33 27L33 26L32 26L32 24L33 24L33 25L37 25L37 26L38 26L38 24L39 24L39 23L38 23L38 21L39 21L39 22L40 22L40 24L41 24L41 25L42 25L42 26L41 26L41 28L42 28L42 26L43 26L43 25L44 25L44 24L43 24L43 23L44 23L44 20L46 20L46 19L45 19L45 18L44 18L44 15L42 15L42 16L41 16L41 14L43 14L43 13L44 13L44 14L45 14L45 13L44 13L44 12L43 12L43 13L41 13L41 14L38 14L38 15L39 15L39 16L38 16L38 17L37 17L37 16L35 16L35 17L37 17L37 18L38 18L38 17L39 17L39 19L37 19L37 20L36 20L36 19L35 19L35 18L33 18L33 19L32 19L32 16L31 16L31 15L30 15L30 14L31 14L31 13L32 13L32 11L33 11L33 10ZM47 10L47 11L48 11L48 10ZM1 11L1 13L2 13L2 14L3 14L3 13L2 13L2 11ZM4 12L4 13L5 13L5 12ZM33 12L33 13L34 13L34 12ZM52 12L52 13L53 13L53 12ZM26 13L26 14L23 14L23 15L21 15L21 16L22 16L22 17L26 17L26 18L27 18L27 19L26 19L26 21L27 21L27 23L30 23L30 24L25 24L25 23L26 23L26 22L25 22L25 21L24 21L24 20L21 20L21 19L20 19L20 21L17 21L17 20L16 20L16 21L17 21L17 22L20 22L20 23L19 23L19 24L22 24L22 25L20 25L20 27L19 27L19 25L15 25L15 24L16 24L16 23L15 23L15 24L14 24L14 27L13 27L13 28L14 28L14 29L16 29L16 30L17 30L17 31L18 31L18 29L20 29L20 30L19 30L19 31L23 31L23 32L21 32L21 33L20 33L20 34L19 34L19 33L18 33L18 35L17 35L17 36L18 36L18 35L20 35L20 36L19 36L19 37L18 37L18 39L20 39L20 38L19 38L19 37L21 37L21 38L22 38L22 39L21 39L21 40L19 40L19 41L20 41L20 42L19 42L19 45L20 45L20 46L19 46L19 47L20 47L20 46L21 46L21 45L22 45L22 46L23 46L23 45L24 45L24 44L25 44L25 43L29 43L29 42L32 42L32 43L33 43L33 42L34 42L34 43L35 43L35 44L36 44L36 43L37 43L37 42L35 42L35 40L33 40L33 39L29 39L29 38L31 38L31 37L29 37L29 36L30 36L30 34L29 34L29 33L31 33L31 32L32 32L32 34L31 34L31 35L33 35L33 34L35 34L35 36L37 36L37 34L35 34L35 33L34 33L34 32L32 32L32 31L29 31L29 33L28 33L28 32L27 32L27 33L26 33L26 31L25 31L25 30L24 30L24 31L23 31L23 26L22 26L22 25L24 25L24 24L25 24L25 25L26 25L26 26L25 26L25 27L24 27L24 28L25 28L25 29L26 29L26 28L25 28L25 27L26 27L26 26L28 26L28 25L31 25L31 24L32 24L32 23L35 23L35 21L33 21L33 20L32 20L32 21L31 21L31 23L30 23L30 22L28 22L28 21L30 21L30 20L29 20L29 19L28 19L28 18L27 18L27 17L28 17L28 16L29 16L29 14L28 14L28 13ZM6 14L6 15L7 15L7 14ZM53 14L53 15L54 15L54 14ZM24 15L24 16L26 16L26 17L27 17L27 16L28 16L28 15L27 15L27 16L26 16L26 15ZM46 15L46 16L47 16L47 15ZM1 16L1 17L2 17L2 16ZM39 16L39 17L41 17L41 16ZM42 16L42 17L43 17L43 16ZM50 17L50 18L48 18L48 19L51 19L51 17ZM3 18L3 19L4 19L4 18ZM22 18L22 19L24 19L24 18ZM30 18L30 19L31 19L31 18ZM41 18L41 19L42 19L42 18ZM43 18L43 20L44 20L44 18ZM27 19L27 20L28 20L28 19ZM37 20L37 21L38 21L38 20ZM39 20L39 21L42 21L42 20ZM22 21L22 22L21 22L21 23L22 23L22 24L24 24L24 23L22 23L22 22L24 22L24 21ZM45 21L45 22L46 22L46 23L45 23L45 25L47 25L47 24L48 24L48 23L47 23L47 22L49 22L49 21L47 21L47 22L46 22L46 21ZM51 21L51 22L50 22L50 24L52 24L52 23L53 23L53 21ZM41 22L41 23L43 23L43 22ZM0 23L0 24L1 24L1 23ZM17 23L17 24L18 24L18 23ZM37 23L37 24L38 24L38 23ZM15 26L15 27L14 27L14 28L16 28L16 29L18 29L18 28L17 28L17 27L18 27L18 26ZM21 26L21 27L20 27L20 29L22 29L22 28L21 28L21 27L22 27L22 26ZM31 26L31 27L32 27L32 26ZM44 26L44 27L43 27L43 28L45 28L45 26ZM5 27L5 30L8 30L8 27ZM27 27L27 30L30 30L30 27ZM49 27L49 30L52 30L52 27ZM6 28L6 29L7 29L7 28ZM10 28L10 30L11 30L11 28ZM28 28L28 29L29 29L29 28ZM50 28L50 29L51 29L51 28ZM1 29L1 30L0 30L0 31L1 31L1 30L2 30L2 29ZM39 29L39 30L38 30L38 32L39 32L39 30L40 30L40 29ZM14 30L14 31L15 31L15 30ZM24 31L24 32L25 32L25 31ZM47 31L47 32L48 32L48 33L49 33L49 32L48 32L48 31ZM14 32L14 33L15 33L15 35L16 35L16 34L17 34L17 33L15 33L15 32ZM21 33L21 34L20 34L20 35L21 35L21 36L22 36L22 33ZM23 33L23 34L24 34L24 36L23 36L23 37L24 37L24 38L23 38L23 39L22 39L22 40L23 40L23 39L24 39L24 40L25 40L25 37L26 37L26 35L27 35L27 34L25 34L25 33ZM42 34L42 35L41 35L41 36L40 36L40 37L42 37L42 36L44 36L44 35L43 35L43 34ZM50 34L50 35L52 35L52 34ZM6 35L6 36L7 36L7 35ZM8 35L8 36L9 36L9 35ZM32 36L32 37L33 37L33 38L34 38L34 39L35 39L35 37L33 37L33 36ZM12 37L12 38L11 38L11 39L13 39L13 37ZM14 37L14 38L16 38L16 37ZM27 37L27 38L26 38L26 39L27 39L27 40L28 40L28 39L27 39L27 38L28 38L28 37ZM48 37L48 38L49 38L49 37ZM52 38L52 39L53 39L53 38ZM6 40L6 41L7 41L7 40ZM30 40L30 41L32 41L32 42L33 42L33 41L32 41L32 40ZM21 41L21 42L20 42L20 43L21 43L21 44L20 44L20 45L21 45L21 44L22 44L22 45L23 45L23 44L24 44L24 43L23 43L23 42L25 42L25 41L23 41L23 42L22 42L22 41ZM26 41L26 42L27 42L27 41ZM21 42L21 43L22 43L22 42ZM51 42L51 43L50 43L50 44L49 44L49 45L50 45L50 46L51 46L51 47L52 47L52 46L51 46L51 45L50 45L50 44L51 44L51 43L53 43L53 42ZM4 43L4 45L2 45L2 46L1 46L1 47L2 47L2 46L3 46L3 47L5 47L5 46L8 46L8 45L9 45L9 44L8 44L8 43L6 43L6 44L7 44L7 45L5 45L5 43ZM17 44L17 45L18 45L18 44ZM54 44L54 45L55 45L55 46L54 46L54 47L55 47L55 46L56 46L56 45L55 45L55 44ZM4 45L4 46L5 46L5 45ZM17 46L17 47L18 47L18 46ZM35 46L35 48L36 48L36 47L37 47L37 46ZM41 46L41 48L39 48L39 47L38 47L38 48L37 48L37 49L38 49L38 50L41 50L41 48L42 48L42 49L43 49L43 48L42 48L42 47L43 47L43 46ZM24 48L24 49L25 49L25 48ZM38 48L38 49L39 49L39 48ZM11 49L11 50L9 50L9 51L11 51L11 50L12 50L12 51L14 51L14 50L12 50L12 49ZM27 49L27 52L30 52L30 49ZM45 49L45 50L46 50L46 49ZM49 49L49 52L52 52L52 49ZM28 50L28 51L29 51L29 50ZM50 50L50 51L51 51L51 50ZM54 50L54 51L55 51L55 50ZM10 52L10 53L9 53L9 54L10 54L10 55L11 55L11 54L12 54L12 53L11 53L11 52ZM53 52L53 54L54 54L54 52ZM10 53L10 54L11 54L11 53ZM17 54L17 55L19 55L19 54ZM41 54L41 55L42 55L42 54ZM48 55L48 56L49 56L49 55ZM50 55L50 56L51 56L51 55ZM43 56L43 57L44 57L44 56ZM0 0L0 7L7 7L7 0ZM1 1L1 6L6 6L6 1ZM2 2L2 5L5 5L5 2ZM50 0L50 7L57 7L57 0ZM51 1L51 6L56 6L56 1ZM52 2L52 5L55 5L55 2ZM0 50L0 57L7 57L7 50ZM1 51L1 56L6 56L6 51ZM2 52L2 55L5 55L5 52Z" fill="#000000"/></g></g></svg>
