<?xml version="1.0" encoding="UTF-8"?>
<svg xmlns="http://www.w3.org/2000/svg" version="1.1" width="300" height="300" viewBox="0 0 300 300"><rect x="0" y="0" width="300" height="300" fill="#fefefe"/><g transform="scale(4.615)"><g transform="translate(4,4)"><path fill-rule="evenodd" d="M10 0L10 1L8 1L8 2L9 2L9 3L8 3L8 4L9 4L9 5L8 5L8 7L9 7L9 8L6 8L6 9L7 9L7 10L6 10L6 11L2 11L2 12L1 12L1 11L0 11L0 14L1 14L1 15L0 15L0 16L3 16L3 17L4 17L4 22L3 22L3 21L2 21L2 22L1 22L1 20L0 20L0 22L1 22L1 23L0 23L0 24L1 24L1 23L3 23L3 24L2 24L2 25L3 25L3 26L1 26L1 25L0 25L0 26L1 26L1 27L2 27L2 28L1 28L1 29L2 29L2 30L4 30L4 33L3 33L3 31L1 31L1 30L0 30L0 31L1 31L1 32L0 32L0 33L1 33L1 32L2 32L2 33L3 33L3 34L1 34L1 35L2 35L2 37L1 37L1 36L0 36L0 40L1 40L1 41L2 41L2 43L1 43L1 42L0 42L0 45L1 45L1 46L0 46L0 48L5 48L5 47L7 47L7 48L6 48L6 49L7 49L7 48L8 48L8 51L9 51L9 50L10 50L10 46L11 46L11 45L13 45L13 46L12 46L12 47L13 47L13 48L11 48L11 50L12 50L12 49L13 49L13 48L14 48L14 47L15 47L15 45L14 45L14 44L15 44L15 43L14 43L14 44L12 44L12 43L13 43L13 42L12 42L12 41L11 41L11 39L12 39L12 40L13 40L13 41L14 41L14 40L13 40L13 38L12 38L12 37L13 37L13 35L12 35L12 36L9 36L9 37L8 37L8 38L9 38L9 37L11 37L11 39L9 39L9 40L10 40L10 41L11 41L11 42L12 42L12 43L10 43L10 44L9 44L9 41L7 41L7 40L6 40L6 39L7 39L7 38L6 38L6 37L7 37L7 36L8 36L8 35L7 35L7 34L6 34L6 33L8 33L8 34L14 34L14 35L15 35L15 36L14 36L14 37L15 37L15 38L16 38L16 37L15 37L15 36L16 36L16 35L20 35L20 34L18 34L18 33L21 33L21 34L22 34L22 33L21 33L21 32L24 32L24 31L25 31L25 33L23 33L23 34L24 34L24 36L23 36L23 35L22 35L22 36L23 36L23 37L24 37L24 38L23 38L23 39L22 39L22 38L21 38L21 37L19 37L19 36L18 36L18 37L17 37L17 40L16 40L16 39L15 39L15 41L17 41L17 42L18 42L18 43L16 43L16 44L18 44L18 45L17 45L17 46L18 46L18 47L17 47L17 48L16 48L16 49L15 49L15 50L14 50L14 51L13 51L13 52L12 52L12 51L11 51L11 52L12 52L12 53L11 53L11 54L12 54L12 53L13 53L13 54L14 54L14 55L16 55L16 56L11 56L11 55L10 55L10 56L9 56L9 54L10 54L10 52L8 52L8 57L10 57L10 56L11 56L11 57L16 57L16 56L17 56L17 57L19 57L19 56L18 56L18 55L20 55L20 54L19 54L19 53L20 53L20 52L22 52L22 51L21 51L21 50L25 50L25 51L26 51L26 52L24 52L24 53L23 53L23 54L22 54L22 53L21 53L21 54L22 54L22 55L23 55L23 57L26 57L26 56L24 56L24 55L23 55L23 54L24 54L24 53L25 53L25 55L26 55L26 53L27 53L27 54L30 54L30 53L31 53L31 51L32 51L32 52L33 52L33 51L32 51L32 50L33 50L33 49L36 49L36 50L35 50L35 51L34 51L34 52L35 52L35 54L36 54L36 56L35 56L35 55L34 55L34 54L33 54L33 53L32 53L32 54L31 54L31 56L30 56L30 55L29 55L29 56L27 56L27 57L29 57L29 56L30 56L30 57L31 57L31 56L35 56L35 57L39 57L39 56L40 56L40 55L41 55L41 57L42 57L42 55L44 55L44 54L45 54L45 53L47 53L47 56L46 56L46 57L49 57L49 56L50 56L50 57L52 57L52 55L51 55L51 53L52 53L52 54L55 54L55 53L57 53L57 51L56 51L56 50L55 50L55 48L56 48L56 49L57 49L57 48L56 48L56 46L57 46L57 45L56 45L56 46L54 46L54 47L53 47L53 46L51 46L51 48L48 48L48 47L50 47L50 46L49 46L49 45L50 45L50 44L51 44L51 43L53 43L53 45L54 45L54 44L55 44L55 43L56 43L56 44L57 44L57 43L56 43L56 41L55 41L55 39L57 39L57 37L56 37L56 35L53 35L53 34L52 34L52 33L53 33L53 32L54 32L54 34L57 34L57 32L56 32L56 30L57 30L57 28L56 28L56 26L57 26L57 25L56 25L56 22L57 22L57 21L56 21L56 18L52 18L52 19L48 19L48 18L50 18L50 17L51 17L51 16L54 16L54 17L56 17L56 16L57 16L57 15L56 15L56 14L57 14L57 13L56 13L56 12L57 12L57 11L56 11L56 8L55 8L55 10L54 10L54 11L52 11L52 10L53 10L53 9L54 9L54 8L53 8L53 9L52 9L52 8L51 8L51 10L50 10L50 8L47 8L47 5L48 5L48 0L46 0L46 1L45 1L45 2L44 2L44 3L41 3L41 2L43 2L43 0L41 0L41 1L40 1L40 0L39 0L39 1L38 1L38 0L37 0L37 1L38 1L38 3L41 3L41 4L40 4L40 5L39 5L39 6L38 6L38 7L37 7L37 5L38 5L38 4L37 4L37 3L36 3L36 0L35 0L35 1L33 1L33 0L32 0L32 1L31 1L31 0L29 0L29 1L25 1L25 0L23 0L23 2L27 2L27 3L30 3L30 4L26 4L26 3L23 3L23 4L24 4L24 5L23 5L23 6L22 6L22 8L23 8L23 6L24 6L24 9L23 9L23 10L22 10L22 9L21 9L21 10L22 10L22 11L21 11L21 12L20 12L20 8L21 8L21 4L19 4L19 1L18 1L18 0L17 0L17 1L18 1L18 2L15 2L15 1L14 1L14 2L13 2L13 4L11 4L11 3L12 3L12 2L10 2L10 1L11 1L11 0ZM21 0L21 1L20 1L20 2L22 2L22 0ZM29 1L29 2L31 2L31 3L32 3L32 4L31 4L31 8L32 8L32 10L31 10L31 11L30 11L30 10L29 10L29 9L28 9L28 10L29 10L29 12L28 12L28 13L27 13L27 15L26 15L26 14L24 14L24 13L26 13L26 12L27 12L27 11L26 11L26 12L25 12L25 10L23 10L23 11L24 11L24 13L22 13L22 12L21 12L21 13L20 13L20 12L19 12L19 13L20 13L20 14L19 14L19 17L20 17L20 18L18 18L18 17L17 17L17 16L18 16L18 14L17 14L17 13L18 13L18 12L17 12L17 11L18 11L18 10L17 10L17 9L16 9L16 8L19 8L19 7L20 7L20 5L19 5L19 4L17 4L17 3L15 3L15 2L14 2L14 4L13 4L13 5L12 5L12 6L11 6L11 5L10 5L10 6L9 6L9 7L10 7L10 9L8 9L8 10L7 10L7 11L6 11L6 12L2 12L2 13L1 13L1 14L3 14L3 16L4 16L4 17L5 17L5 18L7 18L7 19L6 19L6 20L5 20L5 21L6 21L6 22L5 22L5 23L6 23L6 24L8 24L8 25L6 25L6 26L8 26L8 25L9 25L9 27L10 27L10 24L11 24L11 25L13 25L13 27L11 27L11 28L9 28L9 30L10 30L10 31L9 31L9 32L8 32L8 33L9 33L9 32L11 32L11 31L12 31L12 32L13 32L13 31L14 31L14 30L15 30L15 29L16 29L16 31L15 31L15 32L14 32L14 34L17 34L17 33L18 33L18 32L19 32L19 31L24 31L24 30L23 30L23 29L24 29L24 28L25 28L25 29L26 29L26 28L25 28L25 27L26 27L26 26L27 26L27 25L28 25L28 26L29 26L29 25L31 25L31 24L32 24L32 26L31 26L31 27L32 27L32 29L31 29L31 30L32 30L32 34L31 34L31 35L33 35L33 34L35 34L35 36L32 36L32 37L33 37L33 38L35 38L35 36L37 36L37 37L38 37L38 39L35 39L35 40L33 40L33 39L29 39L29 38L31 38L31 37L29 37L29 36L30 36L30 34L29 34L29 33L31 33L31 31L29 31L29 33L28 33L28 32L27 32L27 33L25 33L25 35L26 35L26 36L25 36L25 40L24 40L24 39L23 39L23 40L22 40L22 39L21 39L21 41L20 41L20 40L19 40L19 41L18 41L18 42L19 42L19 43L20 43L20 44L19 44L19 45L20 45L20 46L19 46L19 47L20 47L20 50L21 50L21 49L23 49L23 48L24 48L24 49L25 49L25 50L26 50L26 49L25 49L25 48L27 48L27 47L26 47L26 45L27 45L27 46L29 46L29 45L30 45L30 46L31 46L31 45L32 45L32 47L33 47L33 46L35 46L35 48L36 48L36 45L34 45L34 43L35 43L35 44L36 44L36 43L37 43L37 42L35 42L35 40L38 40L38 42L39 42L39 43L41 43L41 44L39 44L39 45L38 45L38 46L39 46L39 47L38 47L38 48L37 48L37 49L38 49L38 50L36 50L36 52L37 52L37 51L38 51L38 53L37 53L37 54L40 54L40 53L41 53L41 52L43 52L43 51L42 51L42 50L41 50L41 48L42 48L42 49L43 49L43 48L44 48L44 49L45 49L45 50L44 50L44 51L47 51L47 53L48 53L48 50L47 50L47 49L48 49L48 48L47 48L47 49L45 49L45 48L46 48L46 47L45 47L45 46L47 46L47 45L48 45L48 44L50 44L50 43L51 43L51 42L53 42L53 43L54 43L54 42L53 42L53 41L54 41L54 40L53 40L53 41L51 41L51 42L50 42L50 43L49 43L49 42L48 42L48 41L49 41L49 39L51 39L51 38L52 38L52 39L55 39L55 37L53 37L53 35L52 35L52 34L50 34L50 32L49 32L49 31L48 31L48 30L47 30L47 29L48 29L48 28L47 28L47 29L46 29L46 30L47 30L47 31L48 31L48 32L46 32L46 31L45 31L45 32L43 32L43 30L44 30L44 29L45 29L45 28L46 28L46 27L48 27L48 25L49 25L49 24L50 24L50 26L52 26L52 25L55 25L55 24L50 24L50 22L51 22L51 21L53 21L53 22L56 22L56 21L55 21L55 20L53 20L53 19L52 19L52 20L51 20L51 21L49 21L49 20L47 20L47 17L48 17L48 16L49 16L49 17L50 17L50 14L51 14L51 12L50 12L50 11L49 11L49 12L48 12L48 11L47 11L47 12L45 12L45 11L46 11L46 10L47 10L47 8L45 8L45 7L46 7L46 5L47 5L47 3L44 3L44 6L43 6L43 5L40 5L40 6L39 6L39 7L40 7L40 8L39 8L39 9L38 9L38 11L39 11L39 9L40 9L40 10L41 10L41 9L42 9L42 8L41 8L41 7L42 7L42 6L43 6L43 8L44 8L44 9L43 9L43 10L44 10L44 9L45 9L45 11L44 11L44 14L39 14L39 13L43 13L43 11L41 11L41 12L39 12L39 13L38 13L38 14L37 14L37 13L35 13L35 12L36 12L36 10L37 10L37 9L35 9L35 8L37 8L37 7L36 7L36 5L37 5L37 4L36 4L36 5L35 5L35 4L33 4L33 3L32 3L32 2L33 2L33 1L32 1L32 2L31 2L31 1ZM46 1L46 2L47 2L47 1ZM9 3L9 4L10 4L10 3ZM15 4L15 5L14 5L14 7L13 7L13 6L12 6L12 7L13 7L13 9L14 9L14 7L15 7L15 8L16 8L16 7L17 7L17 6L16 6L16 7L15 7L15 5L16 5L16 4ZM25 4L25 8L26 8L26 4ZM32 4L32 5L33 5L33 6L32 6L32 7L33 7L33 9L34 9L34 8L35 8L35 5L33 5L33 4ZM45 4L45 5L46 5L46 4ZM27 5L27 8L30 8L30 5ZM10 6L10 7L11 7L11 6ZM18 6L18 7L19 7L19 6ZM28 6L28 7L29 7L29 6ZM33 6L33 7L34 7L34 6ZM40 6L40 7L41 7L41 6ZM44 6L44 7L45 7L45 6ZM48 6L48 7L49 7L49 6ZM0 8L0 10L3 10L3 9L5 9L5 8ZM11 8L11 9L10 9L10 10L8 10L8 11L9 11L9 12L6 12L6 13L9 13L9 14L4 14L4 15L7 15L7 16L6 16L6 17L7 17L7 18L8 18L8 19L9 19L9 20L6 20L6 21L7 21L7 22L6 22L6 23L7 23L7 22L8 22L8 23L9 23L9 22L8 22L8 21L9 21L9 20L12 20L12 17L11 17L11 16L10 16L10 15L11 15L11 14L12 14L12 15L14 15L14 16L15 16L15 17L13 17L13 18L15 18L15 19L16 19L16 20L15 20L15 21L16 21L16 22L15 22L15 23L14 23L14 21L10 21L10 22L11 22L11 24L14 24L14 27L13 27L13 29L12 29L12 28L11 28L11 29L10 29L10 30L12 30L12 31L13 31L13 30L14 30L14 29L15 29L15 28L16 28L16 29L18 29L18 30L20 30L20 29L22 29L22 28L19 28L19 29L18 29L18 28L17 28L17 27L18 27L18 26L19 26L19 27L22 27L22 26L23 26L23 27L25 27L25 26L26 26L26 25L25 25L25 24L30 24L30 22L31 22L31 21L32 21L32 20L33 20L33 21L34 21L34 20L35 20L35 23L32 23L32 24L33 24L33 25L37 25L37 26L38 26L38 25L39 25L39 24L37 24L37 23L38 23L38 21L39 21L39 22L40 22L40 24L41 24L41 28L42 28L42 26L43 26L43 25L44 25L44 28L43 28L43 29L39 29L39 30L38 30L38 32L39 32L39 31L41 31L41 30L43 30L43 29L44 29L44 28L45 28L45 27L46 27L46 26L45 26L45 25L44 25L44 24L43 24L43 23L44 23L44 20L45 20L45 19L46 19L46 18L44 18L44 15L45 15L45 17L47 17L47 16L48 16L48 15L49 15L49 14L50 14L50 12L49 12L49 13L47 13L47 14L44 14L44 15L42 15L42 16L41 16L41 15L39 15L39 14L38 14L38 15L39 15L39 16L38 16L38 17L37 17L37 16L35 16L35 14L33 14L33 13L34 13L34 12L33 12L33 13L32 13L32 12L31 12L31 13L30 13L30 14L29 14L29 13L28 13L28 14L29 14L29 16L28 16L28 15L27 15L27 16L28 16L28 17L27 17L27 18L26 18L26 19L25 19L25 17L22 17L22 16L21 16L21 15L23 15L23 16L24 16L24 15L23 15L23 14L22 14L22 13L21 13L21 14L20 14L20 17L22 17L22 18L20 18L20 19L21 19L21 20L24 20L24 21L23 21L23 22L22 22L22 21L21 21L21 23L23 23L23 24L24 24L24 25L22 25L22 24L19 24L19 23L20 23L20 22L19 22L19 21L20 21L20 20L17 20L17 19L16 19L16 18L15 18L15 17L16 17L16 13L17 13L17 12L16 12L16 13L15 13L15 10L11 10L11 9L12 9L12 8ZM16 10L16 11L17 11L17 10ZM32 10L32 11L33 11L33 10ZM10 11L10 12L11 12L11 13L10 13L10 14L9 14L9 15L10 15L10 14L11 14L11 13L12 13L12 14L15 14L15 13L13 13L13 12L14 12L14 11L12 11L12 12L11 12L11 11ZM52 12L52 13L53 13L53 12ZM54 12L54 13L55 13L55 14L54 14L54 15L55 15L55 14L56 14L56 13L55 13L55 12ZM31 13L31 14L30 14L30 15L32 15L32 17L31 17L31 18L30 18L30 19L28 19L28 18L27 18L27 19L26 19L26 21L28 21L28 22L27 22L27 23L29 23L29 22L30 22L30 20L31 20L31 19L32 19L32 17L33 17L33 18L35 18L35 19L36 19L36 20L37 20L37 21L38 21L38 20L37 20L37 19L39 19L39 17L41 17L41 16L39 16L39 17L38 17L38 18L37 18L37 17L35 17L35 16L33 16L33 15L32 15L32 13ZM36 14L36 15L37 15L37 14ZM25 15L25 16L26 16L26 15ZM8 16L8 18L9 18L9 17L10 17L10 18L11 18L11 17L10 17L10 16ZM42 16L42 17L43 17L43 16ZM0 17L0 18L1 18L1 17ZM2 18L2 19L3 19L3 18ZM23 18L23 19L24 19L24 18ZM41 18L41 20L39 20L39 21L43 21L43 20L44 20L44 18L43 18L43 19L42 19L42 18ZM13 19L13 20L14 20L14 19ZM33 19L33 20L34 20L34 19ZM16 20L16 21L17 21L17 20ZM24 21L24 22L23 22L23 23L24 23L24 24L25 24L25 23L26 23L26 22L25 22L25 21ZM47 21L47 22L46 22L46 23L45 23L45 24L47 24L47 25L48 25L48 23L47 23L47 22L49 22L49 21ZM12 22L12 23L13 23L13 22ZM41 22L41 23L42 23L42 22ZM15 23L15 24L16 24L16 23ZM17 23L17 24L18 24L18 23ZM15 25L15 26L18 26L18 25ZM19 25L19 26L22 26L22 25ZM3 26L3 27L4 27L4 26ZM32 26L32 27L33 27L33 28L36 28L36 29L38 29L38 28L40 28L40 27L37 27L37 28L36 28L36 26L34 26L34 27L33 27L33 26ZM53 26L53 27L54 27L54 26ZM5 27L5 30L8 30L8 27ZM27 27L27 30L30 30L30 27ZM49 27L49 30L52 30L52 27ZM6 28L6 29L7 29L7 28ZM28 28L28 29L29 29L29 28ZM50 28L50 29L51 29L51 28ZM54 28L54 30L55 30L55 29L56 29L56 28ZM33 30L33 32L34 32L34 31L36 31L36 30ZM5 31L5 33L4 33L4 34L3 34L3 38L2 38L2 40L3 40L3 38L4 38L4 39L6 39L6 38L4 38L4 36L7 36L7 35L4 35L4 34L5 34L5 33L6 33L6 32L7 32L7 31ZM51 31L51 33L52 33L52 32L53 32L53 31ZM15 32L15 33L17 33L17 32ZM35 32L35 34L37 34L37 36L38 36L38 33L37 33L37 32ZM41 32L41 33L39 33L39 34L40 34L40 35L39 35L39 37L40 37L40 38L41 38L41 39L42 39L42 38L43 38L43 37L44 37L44 38L45 38L45 37L46 37L46 36L47 36L47 35L46 35L46 34L45 34L45 33L46 33L46 32L45 32L45 33L43 33L43 32ZM48 32L48 33L49 33L49 32ZM55 32L55 33L56 33L56 32ZM26 34L26 35L27 35L27 34ZM42 34L42 35L41 35L41 36L40 36L40 37L41 37L41 36L44 36L44 37L45 37L45 36L44 36L44 35L45 35L45 34ZM49 34L49 35L50 35L50 37L49 37L49 36L48 36L48 37L47 37L47 39L46 39L46 40L45 40L45 39L44 39L44 40L41 40L41 42L42 42L42 44L41 44L41 45L39 45L39 46L40 46L40 47L39 47L39 48L38 48L38 49L39 49L39 48L41 48L41 46L43 46L43 47L42 47L42 48L43 48L43 47L44 47L44 48L45 48L45 47L44 47L44 46L45 46L45 45L47 45L47 43L48 43L48 42L47 42L47 43L46 43L46 42L45 42L45 41L47 41L47 39L49 39L49 38L50 38L50 37L52 37L52 35L50 35L50 34ZM18 37L18 39L20 39L20 38L19 38L19 37ZM26 37L26 40L28 40L28 39L27 39L27 38L28 38L28 37ZM38 39L38 40L39 40L39 39ZM5 40L5 42L7 42L7 43L6 43L6 44L5 44L5 43L4 43L4 42L3 42L3 43L4 43L4 44L3 44L3 45L2 45L2 44L1 44L1 45L2 45L2 46L1 46L1 47L2 47L2 46L3 46L3 47L5 47L5 45L6 45L6 46L9 46L9 45L8 45L8 44L7 44L7 43L8 43L8 42L7 42L7 41L6 41L6 40ZM23 40L23 42L22 42L22 41L21 41L21 42L22 42L22 43L21 43L21 44L20 44L20 45L21 45L21 47L23 47L23 46L25 46L25 44L27 44L27 45L28 45L28 44L29 44L29 43L31 43L31 44L33 44L33 43L34 43L34 42L33 42L33 41L32 41L32 40L30 40L30 41L29 41L29 43L25 43L25 41L24 41L24 40ZM44 40L44 41L43 41L43 42L44 42L44 43L43 43L43 44L44 44L44 45L45 45L45 44L46 44L46 43L45 43L45 42L44 42L44 41L45 41L45 40ZM19 41L19 42L20 42L20 41ZM26 41L26 42L27 42L27 41ZM30 41L30 42L32 42L32 43L33 43L33 42L32 42L32 41ZM39 41L39 42L40 42L40 41ZM23 43L23 45L22 45L22 44L21 44L21 45L22 45L22 46L23 46L23 45L24 45L24 43ZM4 44L4 45L5 45L5 44ZM6 44L6 45L7 45L7 44ZM13 46L13 47L14 47L14 46ZM8 47L8 48L9 48L9 47ZM28 47L28 48L29 48L29 47ZM32 48L32 49L31 49L31 50L32 50L32 49L33 49L33 48ZM16 49L16 50L15 50L15 51L14 51L14 52L15 52L15 51L17 51L17 52L16 52L16 53L14 53L14 54L16 54L16 53L17 53L17 52L20 52L20 51L17 51L17 49ZM27 49L27 52L30 52L30 49ZM49 49L49 52L52 52L52 49ZM28 50L28 51L29 51L29 50ZM38 50L38 51L40 51L40 52L41 52L41 50ZM50 50L50 51L51 51L51 50ZM54 50L54 51L55 51L55 50ZM44 52L44 53L43 53L43 54L44 54L44 53L45 53L45 52ZM53 52L53 53L54 53L54 52ZM41 54L41 55L42 55L42 54ZM37 55L37 56L39 56L39 55ZM50 55L50 56L51 56L51 55ZM53 55L53 56L55 56L55 57L56 57L56 56L55 56L55 55ZM43 56L43 57L44 57L44 56ZM0 0L0 7L7 7L7 0ZM1 1L1 6L6 6L6 1ZM2 2L2 5L5 5L5 2ZM50 0L50 7L57 7L57 0ZM51 1L51 6L56 6L56 1ZM52 2L52 5L55 5L55 2ZM0 50L0 57L7 57L7 50ZM1 51L1 56L6 56L6 51ZM2 52L2 55L5 55L5 52Z" fill="#000000"/></g></g></svg>
