<?xml version="1.0" encoding="UTF-8"?>
<svg xmlns="http://www.w3.org/2000/svg" version="1.1" width="300" height="300" viewBox="0 0 300 300"><rect x="0" y="0" width="300" height="300" fill="#fefefe"/><g transform="scale(4.615)"><g transform="translate(4,4)"><path fill-rule="evenodd" d="M8 0L8 4L9 4L9 3L10 3L10 5L11 5L11 6L10 6L10 7L11 7L11 8L10 8L10 9L8 9L8 10L6 10L6 11L5 11L5 14L4 14L4 15L3 15L3 17L4 17L4 16L5 16L5 17L9 17L9 18L8 18L8 19L7 19L7 18L6 18L6 19L4 19L4 18L2 18L2 15L0 15L0 16L1 16L1 18L0 18L0 20L1 20L1 19L4 19L4 20L2 20L2 22L0 22L0 23L2 23L2 24L3 24L3 27L2 27L2 25L1 25L1 24L0 24L0 26L1 26L1 31L0 31L0 36L2 36L2 38L0 38L0 39L3 39L3 42L2 42L2 41L1 41L1 44L2 44L2 43L3 43L3 44L4 44L4 46L5 46L5 47L3 47L3 46L2 46L2 47L1 47L1 45L0 45L0 48L5 48L5 47L8 47L8 50L9 50L9 51L8 51L8 53L10 53L10 56L11 56L11 57L12 57L12 56L13 56L13 57L14 57L14 56L13 56L13 55L16 55L16 54L17 54L17 55L18 55L18 56L17 56L17 57L22 57L22 52L24 52L24 53L23 53L23 55L24 55L24 57L25 57L25 56L26 56L26 57L27 57L27 56L26 56L26 55L27 55L27 53L28 53L28 57L29 57L29 55L30 55L30 57L34 57L34 55L35 55L35 57L37 57L37 56L36 56L36 54L37 54L37 53L38 53L38 55L39 55L39 57L40 57L40 56L41 56L41 57L42 57L42 56L43 56L43 55L44 55L44 53L45 53L45 56L44 56L44 57L45 57L45 56L46 56L46 57L47 57L47 56L48 56L48 57L50 57L50 55L51 55L51 56L53 56L53 57L54 57L54 55L53 55L53 54L54 54L54 53L55 53L55 54L57 54L57 53L56 53L56 45L57 45L57 44L56 44L56 45L54 45L54 44L53 44L53 43L54 43L54 42L55 42L55 43L56 43L56 42L57 42L57 40L54 40L54 41L53 41L53 39L57 39L57 38L52 38L52 37L51 37L51 36L53 36L53 37L56 37L56 36L57 36L57 35L56 35L56 30L54 30L54 28L53 28L53 27L54 27L54 26L55 26L55 29L57 29L57 28L56 28L56 26L55 26L55 25L52 25L52 24L53 24L53 23L52 23L52 22L54 22L54 21L52 21L52 20L53 20L53 19L50 19L50 18L53 18L53 17L52 17L52 16L53 16L53 15L55 15L55 16L54 16L54 17L55 17L55 16L56 16L56 18L55 18L55 19L56 19L56 18L57 18L57 15L56 15L56 12L57 12L57 11L56 11L56 10L57 10L57 8L53 8L53 9L55 9L55 11L56 11L56 12L55 12L55 13L54 13L54 12L53 12L53 13L52 13L52 14L51 14L51 12L52 12L52 11L54 11L54 10L52 10L52 8L51 8L51 9L50 9L50 15L48 15L48 16L49 16L49 17L47 17L47 15L46 15L46 11L45 11L45 10L46 10L46 9L47 9L47 12L48 12L48 10L49 10L49 6L48 6L48 7L47 7L47 5L48 5L48 0L41 0L41 1L40 1L40 2L38 2L38 1L39 1L39 0L38 0L38 1L37 1L37 2L36 2L36 0L35 0L35 1L34 1L34 0L28 0L28 1L27 1L27 0L26 0L26 1L25 1L25 0L23 0L23 1L22 1L22 2L21 2L21 3L22 3L22 4L21 4L21 5L22 5L22 7L21 7L21 6L20 6L20 5L19 5L19 6L18 6L18 3L19 3L19 2L20 2L20 1L21 1L21 0L20 0L20 1L19 1L19 0L17 0L17 1L16 1L16 0L14 0L14 1L13 1L13 0L11 0L11 1L10 1L10 0ZM9 1L9 2L10 2L10 3L12 3L12 4L11 4L11 5L12 5L12 6L11 6L11 7L12 7L12 6L13 6L13 9L12 9L12 8L11 8L11 10L10 10L10 11L9 11L9 13L6 13L6 14L5 14L5 15L6 15L6 16L8 16L8 15L9 15L9 17L10 17L10 19L9 19L9 20L8 20L8 21L5 21L5 22L4 22L4 23L3 23L3 22L2 22L2 23L3 23L3 24L4 24L4 23L6 23L6 24L5 24L5 26L8 26L8 25L6 25L6 24L7 24L7 23L8 23L8 24L9 24L9 27L11 27L11 28L9 28L9 29L11 29L11 30L9 30L9 31L4 31L4 32L7 32L7 33L6 33L6 34L7 34L7 35L5 35L5 34L4 34L4 35L5 35L5 36L8 36L8 39L6 39L6 40L7 40L7 41L5 41L5 40L4 40L4 42L3 42L3 43L5 43L5 42L7 42L7 43L6 43L6 44L5 44L5 46L7 46L7 45L6 45L6 44L7 44L7 43L8 43L8 44L9 44L9 45L8 45L8 46L9 46L9 47L10 47L10 48L9 48L9 49L10 49L10 51L9 51L9 52L10 52L10 51L12 51L12 52L11 52L11 53L13 53L13 54L12 54L12 55L11 55L11 56L12 56L12 55L13 55L13 54L14 54L14 53L13 53L13 52L15 52L15 53L17 53L17 52L16 52L16 50L17 50L17 49L15 49L15 44L14 44L14 47L13 47L13 46L12 46L12 44L13 44L13 42L9 42L9 40L8 40L8 39L10 39L10 40L11 40L11 41L14 41L14 42L15 42L15 43L16 43L16 44L17 44L17 45L16 45L16 48L19 48L19 50L18 50L18 52L19 52L19 53L20 53L20 52L19 52L19 51L20 51L20 47L21 47L21 48L22 48L22 49L21 49L21 52L22 52L22 49L23 49L23 48L24 48L24 49L25 49L25 53L24 53L24 54L25 54L25 53L26 53L26 48L27 48L27 47L28 47L28 48L31 48L31 50L32 50L32 51L31 51L31 52L32 52L32 51L33 51L33 52L34 52L34 54L35 54L35 52L36 52L36 49L34 49L34 51L33 51L33 49L32 49L32 48L31 48L31 47L32 47L32 45L31 45L31 41L32 41L32 43L33 43L33 44L35 44L35 43L33 43L33 41L32 41L32 40L33 40L33 39L31 39L31 38L33 38L33 37L34 37L34 42L35 42L35 39L37 39L37 42L38 42L38 37L37 37L37 38L35 38L35 37L34 37L34 36L35 36L35 33L34 33L34 32L33 32L33 30L32 30L32 28L33 28L33 27L34 27L34 31L36 31L36 30L37 30L37 32L38 32L38 30L37 30L37 29L38 29L38 28L37 28L37 29L35 29L35 28L36 28L36 26L37 26L37 27L39 27L39 28L40 28L40 29L39 29L39 30L40 30L40 31L39 31L39 32L40 32L40 33L39 33L39 34L38 34L38 33L37 33L37 34L38 34L38 36L39 36L39 37L41 37L41 35L42 35L42 36L43 36L43 37L44 37L44 38L43 38L43 41L44 41L44 43L43 43L43 42L42 42L42 44L43 44L43 46L44 46L44 47L42 47L42 49L44 49L44 48L45 48L45 49L46 49L46 52L45 52L45 53L46 53L46 54L47 54L47 55L49 55L49 54L51 54L51 55L52 55L52 54L51 54L51 53L49 53L49 54L48 54L48 52L47 52L47 49L48 49L48 47L52 47L52 48L55 48L55 46L53 46L53 45L52 45L52 46L50 46L50 45L49 45L49 46L48 46L48 47L47 47L47 45L48 45L48 44L47 44L47 43L48 43L48 41L49 41L49 42L50 42L50 43L49 43L49 44L50 44L50 43L51 43L51 44L52 44L52 43L53 43L53 41L52 41L52 40L47 40L47 39L48 39L48 38L49 38L49 39L52 39L52 38L50 38L50 35L53 35L53 36L56 36L56 35L53 35L53 34L54 34L54 32L55 32L55 31L53 31L53 33L51 33L51 32L52 32L52 31L51 31L51 32L50 32L50 35L49 35L49 33L48 33L48 31L47 31L47 30L48 30L48 29L46 29L46 28L48 28L48 27L46 27L46 26L48 26L48 25L50 25L50 24L48 24L48 25L47 25L47 23L50 23L50 22L47 22L47 21L51 21L51 22L52 22L52 21L51 21L51 20L49 20L49 18L50 18L50 17L49 17L49 18L48 18L48 19L47 19L47 17L46 17L46 15L45 15L45 13L44 13L44 12L45 12L45 11L44 11L44 10L45 10L45 9L44 9L44 4L46 4L46 5L45 5L45 7L46 7L46 8L47 8L47 9L48 9L48 8L47 8L47 7L46 7L46 5L47 5L47 3L44 3L44 2L43 2L43 3L44 3L44 4L43 4L43 8L40 8L40 6L41 6L41 7L42 7L42 5L39 5L39 8L40 8L40 9L44 9L44 10L41 10L41 11L40 11L40 10L38 10L38 6L37 6L37 9L35 9L35 7L36 7L36 5L38 5L38 4L37 4L37 3L38 3L38 2L37 2L37 3L36 3L36 2L35 2L35 3L32 3L32 2L34 2L34 1L32 1L32 2L31 2L31 1L29 1L29 2L27 2L27 1L26 1L26 2L25 2L25 3L23 3L23 4L22 4L22 5L24 5L24 4L25 4L25 3L26 3L26 4L27 4L27 3L29 3L29 2L31 2L31 3L32 3L32 5L35 5L35 7L34 7L34 6L33 6L33 7L32 7L32 6L31 6L31 10L29 10L29 9L26 9L26 6L25 6L25 7L24 7L24 6L23 6L23 7L22 7L22 9L21 9L21 11L20 11L20 9L19 9L19 10L18 10L18 11L17 11L17 9L16 9L16 8L15 8L15 7L16 7L16 6L17 6L17 8L18 8L18 6L17 6L17 4L16 4L16 3L15 3L15 2L16 2L16 1L14 1L14 4L15 4L15 5L14 5L14 6L13 6L13 3L12 3L12 1L11 1L11 2L10 2L10 1ZM17 1L17 2L19 2L19 1ZM45 1L45 2L47 2L47 1ZM40 2L40 3L39 3L39 4L40 4L40 3L41 3L41 2ZM35 4L35 5L36 5L36 4ZM8 5L8 7L9 7L9 5ZM15 5L15 6L14 6L14 7L15 7L15 6L16 6L16 5ZM27 5L27 8L30 8L30 5ZM19 6L19 7L20 7L20 6ZM28 6L28 7L29 7L29 6ZM23 7L23 9L22 9L22 10L25 10L25 11L24 11L24 12L22 12L22 11L21 11L21 12L20 12L20 18L19 18L19 20L18 20L18 17L19 17L19 15L18 15L18 17L17 17L17 14L19 14L19 12L18 12L18 13L17 13L17 11L16 11L16 9L15 9L15 8L14 8L14 9L13 9L13 11L14 11L14 12L15 12L15 13L13 13L13 14L12 14L12 15L11 15L11 14L9 14L9 15L11 15L11 16L10 16L10 17L12 17L12 15L13 15L13 16L14 16L14 17L13 17L13 18L15 18L15 17L17 17L17 18L16 18L16 19L15 19L15 20L14 20L14 19L12 19L12 18L11 18L11 19L12 19L12 20L13 20L13 21L14 21L14 22L13 22L13 23L14 23L14 24L15 24L15 25L11 25L11 27L12 27L12 28L14 28L14 29L13 29L13 30L14 30L14 33L15 33L15 34L16 34L16 35L15 35L15 36L13 36L13 34L12 34L12 33L13 33L13 31L12 31L12 33L11 33L11 32L9 32L9 34L8 34L8 35L9 35L9 34L10 34L10 33L11 33L11 36L9 36L9 37L10 37L10 39L11 39L11 40L12 40L12 38L11 38L11 36L12 36L12 37L14 37L14 38L15 38L15 37L16 37L16 36L17 36L17 38L16 38L16 39L15 39L15 40L14 40L14 39L13 39L13 40L14 40L14 41L15 41L15 42L16 42L16 43L18 43L18 42L16 42L16 41L20 41L20 42L22 42L22 40L24 40L24 39L22 39L22 36L23 36L23 37L24 37L24 38L25 38L25 39L27 39L27 40L25 40L25 41L23 41L23 43L24 43L24 44L22 44L22 43L21 43L21 44L20 44L20 43L19 43L19 44L18 44L18 45L17 45L17 47L18 47L18 46L19 46L19 44L20 44L20 46L21 46L21 47L22 47L22 48L23 48L23 47L25 47L25 46L26 46L26 47L27 47L27 46L28 46L28 47L29 47L29 46L31 46L31 45L29 45L29 46L28 46L28 41L27 41L27 40L30 40L30 41L29 41L29 42L30 42L30 41L31 41L31 39L29 39L29 38L28 38L28 39L27 39L27 37L28 37L28 36L29 36L29 37L31 37L31 36L32 36L32 37L33 37L33 36L34 36L34 33L33 33L33 32L32 32L32 33L33 33L33 35L32 35L32 34L31 34L31 33L29 33L29 32L28 32L28 31L30 31L30 32L31 32L31 23L30 23L30 22L34 22L34 23L32 23L32 27L33 27L33 26L34 26L34 25L37 25L37 24L34 24L34 23L35 23L35 22L37 22L37 23L38 23L38 22L39 22L39 21L40 21L40 22L43 22L43 24L41 24L41 25L40 25L40 24L39 24L39 25L38 25L38 26L40 26L40 28L41 28L41 26L42 26L42 28L44 28L44 30L43 30L43 29L40 29L40 30L41 30L41 31L40 31L40 32L41 32L41 33L40 33L40 34L42 34L42 35L44 35L44 37L45 37L45 38L46 38L46 39L44 39L44 41L46 41L46 39L47 39L47 38L48 38L48 37L47 37L47 38L46 38L46 35L47 35L47 36L49 36L49 35L48 35L48 34L46 34L46 33L47 33L47 32L46 32L46 30L45 30L45 26L46 26L46 23L45 23L45 24L44 24L44 22L46 22L46 21L47 21L47 20L46 20L46 17L45 17L45 16L44 16L44 14L43 14L43 13L40 13L40 11L38 11L38 10L37 10L37 11L36 11L36 10L34 10L34 9L33 9L33 8L34 8L34 7L33 7L33 8L32 8L32 11L29 11L29 10L25 10L25 9L24 9L24 7ZM0 8L0 9L2 9L2 12L1 12L1 13L0 13L0 14L1 14L1 13L2 13L2 14L3 14L3 13L4 13L4 11L3 11L3 9L2 9L2 8ZM4 8L4 10L5 10L5 9L7 9L7 8ZM11 10L11 12L10 12L10 13L11 13L11 12L12 12L12 10ZM33 10L33 13L34 13L34 18L33 18L33 21L34 21L34 22L35 22L35 20L36 20L36 19L35 19L35 20L34 20L34 18L37 18L37 19L39 19L39 18L40 18L40 21L41 21L41 20L42 20L42 21L43 21L43 22L44 22L44 16L43 16L43 15L42 15L42 17L43 17L43 18L42 18L42 19L41 19L41 18L40 18L40 17L41 17L41 15L40 15L40 17L39 17L39 15L38 15L38 13L39 13L39 14L40 14L40 13L39 13L39 12L37 12L37 13L35 13L35 12L34 12L34 10ZM51 10L51 11L52 11L52 10ZM6 11L6 12L7 12L7 11ZM15 11L15 12L16 12L16 11ZM26 11L26 13L25 13L25 15L26 15L26 16L24 16L24 15L23 15L23 13L21 13L21 14L22 14L22 15L21 15L21 17L26 17L26 18L24 18L24 19L22 19L22 18L20 18L20 20L19 20L19 21L20 21L20 20L21 20L21 19L22 19L22 23L21 23L21 22L20 22L20 23L19 23L19 22L18 22L18 21L17 21L17 20L15 20L15 21L17 21L17 22L16 22L16 23L15 23L15 22L14 22L14 23L15 23L15 24L16 24L16 28L17 28L17 27L18 27L18 26L17 26L17 24L18 24L18 23L19 23L19 25L21 25L21 24L22 24L22 25L24 25L24 23L23 23L23 21L24 21L24 22L25 22L25 23L26 23L26 22L27 22L27 24L28 24L28 25L27 25L27 26L29 26L29 23L28 23L28 22L29 22L29 21L30 21L30 20L31 20L31 21L32 21L32 20L31 20L31 19L30 19L30 18L28 18L28 17L26 17L26 16L27 16L27 15L28 15L28 14L27 14L27 15L26 15L26 13L29 13L29 16L31 16L31 18L32 18L32 16L33 16L33 15L32 15L32 16L31 16L31 15L30 15L30 13L31 13L31 14L32 14L32 12L29 12L29 11L28 11L28 12L27 12L27 11ZM41 11L41 12L44 12L44 11ZM2 12L2 13L3 13L3 12ZM15 13L15 14L17 14L17 13ZM47 13L47 14L49 14L49 13ZM53 13L53 14L52 14L52 15L50 15L50 16L52 16L52 15L53 15L53 14L54 14L54 13ZM6 14L6 15L8 15L8 14ZM35 14L35 17L38 17L38 18L39 18L39 17L38 17L38 16L37 16L37 14ZM14 15L14 16L15 16L15 15ZM22 15L22 16L23 16L23 15ZM6 19L6 20L7 20L7 19ZM25 19L25 20L24 20L24 21L25 21L25 20L26 20L26 21L28 21L28 20L29 20L29 19L27 19L27 20L26 20L26 19ZM9 20L9 21L10 21L10 20ZM37 20L37 22L38 22L38 20ZM56 20L56 21L55 21L55 24L56 24L56 25L57 25L57 24L56 24L56 21L57 21L57 20ZM6 22L6 23L7 23L7 22ZM9 22L9 23L10 23L10 24L11 24L11 23L10 23L10 22ZM51 23L51 24L52 24L52 23ZM33 24L33 25L34 25L34 24ZM43 24L43 27L44 27L44 26L45 26L45 25L44 25L44 24ZM25 25L25 26L23 26L23 28L22 28L22 27L19 27L19 28L18 28L18 29L14 29L14 30L16 30L16 32L15 32L15 33L16 33L16 34L17 34L17 35L18 35L18 34L19 34L19 36L20 36L20 34L19 34L19 33L21 33L21 34L22 34L22 35L21 35L21 36L22 36L22 35L23 35L23 33L26 33L26 34L24 34L24 36L25 36L25 37L26 37L26 36L28 36L28 34L29 34L29 33L28 33L28 34L27 34L27 33L26 33L26 31L24 31L24 30L23 30L23 29L24 29L24 27L26 27L26 25ZM12 26L12 27L15 27L15 26ZM5 27L5 30L8 30L8 27ZM27 27L27 30L30 30L30 27ZM49 27L49 30L52 30L52 27ZM2 28L2 31L1 31L1 32L3 32L3 29L4 29L4 28ZM6 28L6 29L7 29L7 28ZM19 28L19 29L18 29L18 30L19 30L19 29L20 29L20 32L21 32L21 33L22 33L22 31L23 31L23 32L24 32L24 31L23 31L23 30L22 30L22 29L21 29L21 28ZM28 28L28 29L29 29L29 28ZM50 28L50 29L51 29L51 28ZM25 29L25 30L26 30L26 29ZM21 30L21 31L22 31L22 30ZM17 31L17 32L18 32L18 33L17 33L17 34L18 34L18 33L19 33L19 32L18 32L18 31ZM1 33L1 34L3 34L3 33ZM43 33L43 34L44 34L44 35L46 35L46 34L44 34L44 33ZM26 34L26 35L25 35L25 36L26 36L26 35L27 35L27 34ZM30 34L30 36L31 36L31 34ZM2 35L2 36L3 36L3 39L5 39L5 38L4 38L4 36L3 36L3 35ZM39 35L39 36L40 36L40 35ZM6 37L6 38L7 38L7 37ZM18 37L18 38L19 38L19 39L20 39L20 38L21 38L21 37ZM39 38L39 39L40 39L40 41L39 41L39 44L37 44L37 43L36 43L36 44L37 44L37 46L38 46L38 45L39 45L39 44L40 44L40 46L39 46L39 47L38 47L38 49L37 49L37 51L38 51L38 49L39 49L39 47L40 47L40 51L39 51L39 52L40 52L40 53L41 53L41 52L42 52L42 53L44 53L44 52L43 52L43 50L42 50L42 51L41 51L41 43L40 43L40 42L41 42L41 41L42 41L42 40L41 40L41 39L42 39L42 38L41 38L41 39L40 39L40 38ZM21 39L21 40L20 40L20 41L21 41L21 40L22 40L22 39ZM15 40L15 41L16 41L16 40ZM7 41L7 42L8 42L8 43L9 43L9 44L10 44L10 45L11 45L11 44L12 44L12 43L9 43L9 42L8 42L8 41ZM26 41L26 42L25 42L25 43L27 43L27 41ZM51 41L51 43L52 43L52 41ZM55 41L55 42L56 42L56 41ZM24 44L24 45L25 45L25 44ZM44 44L44 45L45 45L45 48L46 48L46 49L47 49L47 48L46 48L46 45L47 45L47 44L46 44L46 45L45 45L45 44ZM21 45L21 46L22 46L22 47L23 47L23 45ZM26 45L26 46L27 46L27 45ZM34 45L34 48L35 48L35 45ZM52 46L52 47L53 47L53 46ZM11 47L11 48L10 48L10 49L11 49L11 50L12 50L12 51L15 51L15 50L12 50L12 49L11 49L11 48L13 48L13 47ZM36 47L36 48L37 48L37 47ZM6 48L6 49L7 49L7 48ZM27 49L27 52L30 52L30 49ZM49 49L49 52L52 52L52 49ZM28 50L28 51L29 51L29 50ZM50 50L50 51L51 51L51 50ZM53 50L53 53L54 53L54 52L55 52L55 51L54 51L54 50ZM46 52L46 53L47 53L47 52ZM30 53L30 54L31 54L31 53ZM32 53L32 54L33 54L33 53ZM20 54L20 55L19 55L19 56L21 56L21 54ZM40 54L40 55L41 55L41 56L42 56L42 55L43 55L43 54L42 54L42 55L41 55L41 54ZM8 55L8 57L9 57L9 55ZM15 56L15 57L16 57L16 56ZM56 56L56 57L57 57L57 56ZM0 0L0 7L7 7L7 0ZM1 1L1 6L6 6L6 1ZM2 2L2 5L5 5L5 2ZM50 0L50 7L57 7L57 0ZM51 1L51 6L56 6L56 1ZM52 2L52 5L55 5L55 2ZM0 50L0 57L7 57L7 50ZM1 51L1 56L6 56L6 51ZM2 52L2 55L5 55L5 52Z" fill="#000000"/></g></g></svg>
