<?xml version="1.0" encoding="UTF-8"?>
<svg xmlns="http://www.w3.org/2000/svg" version="1.1" width="300" height="300" viewBox="0 0 300 300"><rect x="0" y="0" width="300" height="300" fill="#fefefe"/><g transform="scale(4.615)"><g transform="translate(4,4)"><path fill-rule="evenodd" d="M9 0L9 1L8 1L8 2L9 2L9 3L8 3L8 4L9 4L9 5L8 5L8 7L9 7L9 8L6 8L6 9L5 9L5 8L0 8L0 12L2 12L2 14L4 14L4 15L1 15L1 13L0 13L0 16L2 16L2 18L3 18L3 21L0 21L0 24L4 24L4 25L5 25L5 24L6 24L6 25L9 25L9 26L4 26L4 27L3 27L3 26L2 26L2 27L1 27L1 26L0 26L0 29L1 29L1 32L0 32L0 33L1 33L1 32L2 32L2 33L3 33L3 32L4 32L4 33L5 33L5 36L3 36L3 37L2 37L2 38L1 38L1 36L0 36L0 38L1 38L1 39L0 39L0 41L1 41L1 43L0 43L0 44L1 44L1 46L0 46L0 48L5 48L5 47L7 47L7 48L6 48L6 49L7 49L7 48L9 48L9 49L8 49L8 51L9 51L9 52L8 52L8 57L10 57L10 56L9 56L9 53L10 53L10 54L11 54L11 52L10 52L10 51L11 51L11 50L14 50L14 49L16 49L16 48L15 48L15 47L16 47L16 46L13 46L13 45L15 45L15 43L13 43L13 45L12 45L12 44L11 44L11 45L10 45L10 44L9 44L9 46L8 46L8 43L9 43L9 42L6 42L6 41L7 41L7 40L9 40L9 41L10 41L10 42L11 42L11 43L12 43L12 42L13 42L13 41L14 41L14 39L15 39L15 41L16 41L16 39L15 39L15 38L16 38L16 37L14 37L14 36L15 36L15 35L14 35L14 32L11 32L11 30L10 30L10 32L9 32L9 34L8 34L8 32L5 32L5 31L9 31L9 29L10 29L10 26L11 26L11 27L14 27L14 26L11 26L11 25L12 25L12 24L11 24L11 23L12 23L12 22L13 22L13 23L14 23L14 21L12 21L12 18L14 18L14 16L15 16L15 17L16 17L16 13L17 13L17 19L18 19L18 20L17 20L17 21L16 21L16 20L15 20L15 21L16 21L16 22L15 22L15 23L16 23L16 24L15 24L15 25L16 25L16 24L17 24L17 26L16 26L16 27L18 27L18 26L19 26L19 27L20 27L20 26L19 26L19 25L21 25L21 27L22 27L22 26L26 26L26 27L24 27L24 28L23 28L23 30L24 30L24 31L21 31L21 30L20 30L20 29L22 29L22 28L19 28L19 29L18 29L18 28L16 28L16 29L15 29L15 30L14 30L14 29L13 29L13 30L12 30L12 31L13 31L13 30L14 30L14 31L15 31L15 32L16 32L16 33L15 33L15 34L16 34L16 35L18 35L18 33L19 33L19 34L20 34L20 36L23 36L23 37L24 37L24 38L22 38L22 39L21 39L21 37L19 37L19 36L17 36L17 40L18 40L18 41L17 41L17 42L18 42L18 43L16 43L16 45L17 45L17 46L18 46L18 47L19 47L19 48L17 48L17 49L18 49L18 51L17 51L17 50L16 50L16 52L15 52L15 51L13 51L13 53L12 53L12 54L13 54L13 53L16 53L16 54L14 54L14 55L11 55L11 57L13 57L13 56L15 56L15 57L16 57L16 56L17 56L17 57L19 57L19 56L18 56L18 55L20 55L20 54L18 54L18 55L17 55L17 53L20 53L20 52L23 52L23 51L22 51L22 50L26 50L26 52L24 52L24 53L23 53L23 54L22 54L22 53L21 53L21 54L22 54L22 56L24 56L24 55L23 55L23 54L24 54L24 53L26 53L26 56L25 56L25 57L26 57L26 56L27 56L27 57L29 57L29 56L30 56L30 57L31 57L31 56L35 56L35 57L39 57L39 56L41 56L41 57L44 57L44 56L45 56L45 57L46 57L46 56L45 56L45 55L44 55L44 54L45 54L45 53L47 53L47 50L48 50L48 54L47 54L47 55L49 55L49 56L50 56L50 57L52 57L52 55L51 55L51 53L52 53L52 54L53 54L53 55L54 55L54 56L53 56L53 57L54 57L54 56L55 56L55 57L56 57L56 56L55 56L55 55L54 55L54 54L53 54L53 52L54 52L54 53L56 53L56 52L55 52L55 51L56 51L56 50L57 50L57 48L56 48L56 46L57 46L57 45L56 45L56 44L55 44L55 43L56 43L56 42L55 42L55 41L53 41L53 40L55 40L55 39L57 39L57 36L56 36L56 35L53 35L53 34L52 34L52 33L53 33L53 32L56 32L56 33L54 33L54 34L57 34L57 32L56 32L56 30L57 30L57 27L56 27L56 26L57 26L57 25L56 25L56 22L57 22L57 20L56 20L56 16L57 16L57 15L56 15L56 14L57 14L57 12L56 12L56 8L55 8L55 10L54 10L54 11L51 11L51 10L50 10L50 8L49 8L49 9L48 9L48 7L49 7L49 6L48 6L48 7L47 7L47 5L48 5L48 0L45 0L45 1L47 1L47 2L44 2L44 3L43 3L43 4L42 4L42 5L41 5L41 4L40 4L40 5L39 5L39 6L38 6L38 4L37 4L37 3L36 3L36 0L35 0L35 1L32 1L32 3L31 3L31 4L26 4L26 3L23 3L23 4L19 4L19 3L17 3L17 6L16 6L16 7L15 7L15 6L14 6L14 7L13 7L13 6L12 6L12 8L11 8L11 6L10 6L10 7L9 7L9 5L12 5L12 4L14 4L14 2L15 2L15 3L16 3L16 2L17 2L17 1L18 1L18 2L20 2L20 3L21 3L21 2L22 2L22 0L21 0L21 2L20 2L20 0L17 0L17 1L16 1L16 2L15 2L15 1L14 1L14 0L12 0L12 1L14 1L14 2L12 2L12 3L11 3L11 4L9 4L9 3L10 3L10 0ZM23 0L23 2L27 2L27 3L28 3L28 2L27 2L27 1L25 1L25 0ZM29 0L29 2L31 2L31 0ZM37 0L37 1L38 1L38 3L42 3L42 2L43 2L43 0L41 0L41 1L40 1L40 0L39 0L39 1L38 1L38 0ZM33 2L33 3L32 3L32 4L31 4L31 8L32 8L32 10L31 10L31 11L30 11L30 10L29 10L29 12L28 12L28 13L26 13L26 12L27 12L27 11L28 11L28 10L27 10L27 11L26 11L26 12L25 12L25 10L23 10L23 9L24 9L24 6L23 6L23 5L24 5L24 4L23 4L23 5L21 5L21 7L22 7L22 8L19 8L19 9L16 9L16 8L17 8L17 7L18 7L18 6L19 6L19 7L20 7L20 5L18 5L18 6L17 6L17 7L16 7L16 8L14 8L14 9L12 9L12 10L11 10L11 11L10 11L10 9L6 9L6 10L5 10L5 11L6 11L6 12L7 12L7 13L6 13L6 14L9 14L9 15L8 15L8 16L7 16L7 15L5 15L5 16L7 16L7 17L6 17L6 18L5 18L5 20L4 20L4 24L5 24L5 23L6 23L6 24L8 24L8 23L9 23L9 24L10 24L10 22L12 22L12 21L11 21L11 18L10 18L10 20L9 20L9 21L8 21L8 23L6 23L6 22L7 22L7 21L5 21L5 20L8 20L8 19L9 19L9 18L8 18L8 17L11 17L11 16L12 16L12 17L13 17L13 16L14 16L14 15L13 15L13 14L15 14L15 13L16 13L16 12L17 12L17 13L18 13L18 12L17 12L17 11L18 11L18 10L19 10L19 12L20 12L20 21L19 21L19 22L18 22L18 21L17 21L17 24L21 24L21 25L23 25L23 24L21 24L21 23L24 23L24 24L25 24L25 25L26 25L26 26L28 26L28 25L31 25L31 24L32 24L32 26L31 26L31 28L32 28L32 31L28 31L28 32L27 32L27 35L26 35L26 36L25 36L25 38L26 38L26 36L27 36L27 37L28 37L28 38L27 38L27 39L25 39L25 40L24 40L24 39L22 39L22 40L20 40L20 42L21 42L21 43L20 43L20 46L21 46L21 45L22 45L22 46L23 46L23 47L20 47L20 48L19 48L19 49L20 49L20 50L19 50L19 51L18 51L18 52L20 52L20 50L21 50L21 49L23 49L23 47L24 47L24 49L26 49L26 48L28 48L28 47L26 47L26 45L28 45L28 46L29 46L29 45L28 45L28 44L25 44L25 43L27 43L27 42L29 42L29 41L30 41L30 42L32 42L32 43L33 43L33 44L30 44L30 43L29 43L29 44L30 44L30 45L33 45L33 46L35 46L35 47L32 47L32 46L31 46L31 48L32 48L32 49L31 49L31 53L30 53L30 54L27 54L27 56L29 56L29 55L30 55L30 56L31 56L31 54L32 54L32 53L33 53L33 54L35 54L35 56L36 56L36 54L35 54L35 50L36 50L36 52L37 52L37 53L38 53L38 54L37 54L37 56L39 56L39 55L38 55L38 54L40 54L40 53L43 53L43 54L44 54L44 53L45 53L45 52L46 52L46 50L47 50L47 49L48 49L48 48L49 48L49 47L48 47L48 46L47 46L47 45L49 45L49 46L50 46L50 48L52 48L52 47L53 47L53 45L52 45L52 44L53 44L53 43L54 43L54 42L53 42L53 41L51 41L51 42L50 42L50 43L49 43L49 42L48 42L48 41L49 41L49 40L50 40L50 39L52 39L52 40L53 40L53 39L54 39L54 38L53 38L53 35L52 35L52 34L50 34L50 32L51 32L51 33L52 33L52 32L51 32L51 31L50 31L50 32L49 32L49 31L48 31L48 28L47 28L47 29L46 29L46 30L47 30L47 31L46 31L46 32L43 32L43 30L40 30L40 31L39 31L39 32L38 32L38 30L39 30L39 29L44 29L44 30L45 30L45 28L46 28L46 27L48 27L48 25L50 25L50 26L53 26L53 27L54 27L54 26L53 26L53 23L55 23L55 22L56 22L56 20L53 20L53 19L52 19L52 18L51 18L51 17L53 17L53 18L55 18L55 17L53 17L53 15L54 15L54 13L55 13L55 14L56 14L56 12L54 12L54 13L53 13L53 12L52 12L52 13L53 13L53 15L52 15L52 16L51 16L51 15L50 15L50 14L51 14L51 12L50 12L50 10L49 10L49 12L48 12L48 9L47 9L47 8L45 8L45 7L46 7L46 5L47 5L47 3L44 3L44 6L43 6L43 5L42 5L42 6L41 6L41 5L40 5L40 6L39 6L39 9L38 9L38 6L37 6L37 7L36 7L36 5L37 5L37 4L36 4L36 5L35 5L35 4L33 4L33 3L35 3L35 2ZM15 4L15 5L16 5L16 4ZM25 4L25 8L26 8L26 4ZM32 4L32 5L33 5L33 6L32 6L32 7L33 7L33 9L34 9L34 8L35 8L35 9L37 9L37 10L36 10L36 12L35 12L35 13L37 13L37 14L38 14L38 15L39 15L39 16L38 16L38 17L37 17L37 16L35 16L35 14L32 14L32 12L33 12L33 13L34 13L34 12L33 12L33 10L32 10L32 11L31 11L31 13L30 13L30 14L29 14L29 13L28 13L28 14L29 14L29 16L28 16L28 15L27 15L27 14L26 14L26 13L24 13L24 12L23 12L23 10L22 10L22 9L21 9L21 10L20 10L20 9L19 9L19 10L20 10L20 11L21 11L21 12L22 12L22 13L21 13L21 15L23 15L23 16L25 16L25 17L22 17L22 16L21 16L21 17L22 17L22 19L21 19L21 20L22 20L22 19L23 19L23 20L24 20L24 21L23 21L23 22L24 22L24 21L25 21L25 22L26 22L26 23L25 23L25 24L28 24L28 23L27 23L27 21L25 21L25 20L26 20L26 18L25 18L25 17L26 17L26 15L27 15L27 16L28 16L28 17L27 17L27 18L28 18L28 19L27 19L27 20L28 20L28 19L30 19L30 20L29 20L29 21L28 21L28 22L29 22L29 24L30 24L30 22L31 22L31 21L32 21L32 20L35 20L35 23L34 23L34 22L33 22L33 23L32 23L32 24L33 24L33 25L37 25L37 26L38 26L38 25L39 25L39 26L44 26L44 27L43 27L43 28L45 28L45 25L44 25L44 24L43 24L43 25L39 25L39 24L42 24L42 23L44 23L44 20L45 20L45 21L47 21L47 22L45 22L45 24L46 24L46 25L48 25L48 23L47 23L47 22L49 22L49 21L51 21L51 22L50 22L50 25L51 25L51 23L53 23L53 21L51 21L51 20L52 20L52 19L49 19L49 18L50 18L50 17L49 17L49 16L50 16L50 15L49 15L49 14L50 14L50 12L49 12L49 13L47 13L47 14L45 14L45 13L44 13L44 12L43 12L43 13L41 13L41 14L45 14L45 15L47 15L47 18L44 18L44 15L42 15L42 16L41 16L41 15L40 15L40 14L38 14L38 13L39 13L39 11L40 11L40 12L41 12L41 10L42 10L42 11L45 11L45 12L47 12L47 10L46 10L46 9L45 9L45 10L44 10L44 7L45 7L45 6L44 6L44 7L43 7L43 6L42 6L42 7L41 7L41 6L40 6L40 7L41 7L41 8L42 8L42 9L41 9L41 10L39 10L39 11L38 11L38 9L37 9L37 8L35 8L35 5L33 5L33 4ZM45 4L45 5L46 5L46 4ZM27 5L27 8L30 8L30 5ZM22 6L22 7L23 7L23 6ZM28 6L28 7L29 7L29 6ZM33 6L33 7L34 7L34 6ZM51 8L51 9L52 9L52 10L53 10L53 9L54 9L54 8L53 8L53 9L52 9L52 8ZM1 9L1 11L2 11L2 12L4 12L4 14L5 14L5 12L4 12L4 10L3 10L3 9ZM15 9L15 10L12 10L12 12L11 12L11 13L12 13L12 14L11 14L11 15L10 15L10 16L11 16L11 15L12 15L12 16L13 16L13 15L12 15L12 14L13 14L13 13L15 13L15 10L16 10L16 9ZM6 10L6 11L9 11L9 12L10 12L10 11L9 11L9 10ZM21 10L21 11L22 11L22 10ZM45 10L45 11L46 11L46 10ZM13 11L13 12L12 12L12 13L13 13L13 12L14 12L14 11ZM9 13L9 14L10 14L10 13ZM22 13L22 14L23 14L23 15L24 15L24 13ZM25 14L25 15L26 15L26 14ZM30 14L30 15L31 15L31 16L32 16L32 19L33 19L33 18L35 18L35 19L36 19L36 20L37 20L37 21L38 21L38 22L37 22L37 24L39 24L39 23L40 23L40 22L39 22L39 21L43 21L43 20L44 20L44 18L43 18L43 20L42 20L42 18L41 18L41 20L39 20L39 21L38 21L38 19L39 19L39 17L41 17L41 16L39 16L39 17L38 17L38 18L37 18L37 17L35 17L35 16L33 16L33 15L31 15L31 14ZM18 15L18 16L19 16L19 15ZM48 15L48 16L49 16L49 15ZM42 16L42 17L43 17L43 16ZM0 17L0 20L2 20L2 19L1 19L1 17ZM3 17L3 18L4 18L4 17ZM18 17L18 18L19 18L19 17ZM6 18L6 19L7 19L7 18ZM23 18L23 19L24 19L24 18ZM30 18L30 19L31 19L31 18ZM47 18L47 19L45 19L45 20L47 20L47 21L49 21L49 20L47 20L47 19L48 19L48 18ZM13 19L13 20L14 20L14 19ZM21 21L21 22L22 22L22 21ZM29 21L29 22L30 22L30 21ZM2 22L2 23L3 23L3 22ZM19 22L19 23L20 23L20 22ZM38 22L38 23L39 23L39 22ZM41 22L41 23L42 23L42 22ZM46 23L46 24L47 24L47 23ZM13 24L13 25L14 25L14 24ZM55 25L55 26L56 26L56 25ZM32 26L32 27L33 27L33 28L35 28L35 30L33 30L33 31L32 31L32 32L31 32L31 33L29 33L29 32L28 32L28 33L29 33L29 34L30 34L30 36L29 36L29 37L31 37L31 38L29 38L29 39L33 39L33 40L35 40L35 42L37 42L37 43L36 43L36 44L35 44L35 43L34 43L34 42L33 42L33 41L32 41L32 40L30 40L30 41L32 41L32 42L33 42L33 43L34 43L34 45L37 45L37 47L36 47L36 48L33 48L33 49L32 49L32 52L33 52L33 53L34 53L34 52L33 52L33 49L36 49L36 50L38 50L38 51L37 51L37 52L38 52L38 53L39 53L39 52L38 52L38 51L40 51L40 52L41 52L41 50L42 50L42 51L43 51L43 53L44 53L44 52L45 52L45 51L43 51L43 49L44 49L44 50L46 50L46 48L48 48L48 47L47 47L47 46L45 46L45 45L47 45L47 43L48 43L48 42L47 42L47 43L46 43L46 42L43 42L43 41L44 41L44 40L45 40L45 41L47 41L47 39L50 39L50 38L51 38L51 37L52 37L52 35L50 35L50 34L49 34L49 35L50 35L50 36L49 36L49 37L50 37L50 38L47 38L47 39L46 39L46 38L45 38L45 37L46 37L46 36L47 36L47 35L46 35L46 34L45 34L45 33L43 33L43 32L41 32L41 33L39 33L39 34L40 34L40 35L38 35L38 33L37 33L37 32L34 32L34 31L36 31L36 30L37 30L37 29L38 29L38 28L39 28L39 27L37 27L37 28L36 28L36 26L34 26L34 27L33 27L33 26ZM5 27L5 30L8 30L8 27ZM27 27L27 30L30 30L30 27ZM41 27L41 28L42 28L42 27ZM49 27L49 30L52 30L52 27ZM55 27L55 28L54 28L54 29L53 29L53 30L54 30L54 29L55 29L55 28L56 28L56 27ZM1 28L1 29L2 29L2 31L3 31L3 28ZM6 28L6 29L7 29L7 28ZM25 28L25 29L26 29L26 28ZM28 28L28 29L29 29L29 28ZM50 28L50 29L51 29L51 28ZM16 29L16 30L17 30L17 31L18 31L18 32L17 32L17 33L16 33L16 34L17 34L17 33L18 33L18 32L19 32L19 31L20 31L20 32L21 32L21 33L20 33L20 34L21 34L21 33L22 33L22 34L23 34L23 36L24 36L24 34L23 34L23 33L25 33L25 34L26 34L26 31L25 31L25 32L21 32L21 31L20 31L20 30L19 30L19 31L18 31L18 29ZM47 31L47 32L48 32L48 33L49 33L49 32L48 32L48 31ZM32 32L32 33L31 33L31 34L32 34L32 35L33 35L33 36L32 36L32 37L33 37L33 39L35 39L35 40L38 40L38 42L39 42L39 44L40 44L40 45L38 45L38 46L41 46L41 48L39 48L39 47L38 47L38 48L37 48L37 49L38 49L38 50L41 50L41 48L42 48L42 49L43 49L43 48L44 48L44 49L45 49L45 48L46 48L46 47L45 47L45 46L44 46L44 47L43 47L43 46L41 46L41 44L42 44L42 43L41 43L41 44L40 44L40 42L41 42L41 41L42 41L42 40L44 40L44 39L45 39L45 38L44 38L44 37L45 37L45 36L44 36L44 35L45 35L45 34L42 34L42 35L41 35L41 36L40 36L40 37L38 37L38 35L37 35L37 34L35 34L35 33L33 33L33 32ZM6 33L6 34L7 34L7 35L6 35L6 36L7 36L7 35L8 35L8 34L7 34L7 33ZM11 33L11 34L9 34L9 35L10 35L10 36L9 36L9 38L8 38L8 39L9 39L9 38L11 38L11 37L13 37L13 36L11 36L11 35L12 35L12 34L13 34L13 33ZM3 34L3 35L4 35L4 34ZM33 34L33 35L34 35L34 36L35 36L35 39L38 39L38 40L40 40L40 39L38 39L38 37L37 37L37 36L35 36L35 35L34 35L34 34ZM41 36L41 37L40 37L40 38L41 38L41 39L42 39L42 38L43 38L43 37L44 37L44 36ZM50 36L50 37L51 37L51 36ZM55 36L55 37L56 37L56 36ZM3 37L3 38L4 38L4 39L3 39L3 41L2 41L2 42L3 42L3 43L1 43L1 44L2 44L2 45L4 45L4 46L3 46L3 47L5 47L5 45L6 45L6 46L7 46L7 45L6 45L6 44L7 44L7 43L5 43L5 45L4 45L4 44L3 44L3 43L4 43L4 42L5 42L5 41L6 41L6 40L7 40L7 39L6 39L6 38L7 38L7 37L6 37L6 38L4 38L4 37ZM18 37L18 38L19 38L19 39L20 39L20 38L19 38L19 37ZM13 38L13 39L12 39L12 40L10 40L10 41L12 41L12 40L13 40L13 39L14 39L14 38ZM4 39L4 40L5 40L5 39ZM27 39L27 40L28 40L28 39ZM23 40L23 41L24 41L24 42L22 42L22 41L21 41L21 42L22 42L22 43L21 43L21 44L22 44L22 45L23 45L23 46L24 46L24 47L25 47L25 48L26 48L26 47L25 47L25 44L24 44L24 45L23 45L23 43L24 43L24 42L25 42L25 41L24 41L24 40ZM18 41L18 42L19 42L19 41ZM26 41L26 42L27 42L27 41ZM51 42L51 43L50 43L50 44L51 44L51 43L53 43L53 42ZM43 43L43 44L44 44L44 45L45 45L45 44L46 44L46 43ZM17 44L17 45L18 45L18 44ZM54 44L54 46L56 46L56 45L55 45L55 44ZM11 45L11 47L10 47L10 46L9 46L9 47L10 47L10 48L11 48L11 47L12 47L12 45ZM50 45L50 46L51 46L51 45ZM1 46L1 47L2 47L2 46ZM13 47L13 49L14 49L14 47ZM42 47L42 48L43 48L43 47ZM44 47L44 48L45 48L45 47ZM38 48L38 49L39 49L39 48ZM53 48L53 49L54 49L54 48ZM55 48L55 49L56 49L56 48ZM9 49L9 51L10 51L10 49ZM27 49L27 52L30 52L30 49ZM49 49L49 52L52 52L52 49ZM28 50L28 51L29 51L29 50ZM50 50L50 51L51 51L51 50ZM54 50L54 51L55 51L55 50ZM16 52L16 53L17 53L17 52ZM15 55L15 56L16 56L16 55ZM41 55L41 56L44 56L44 55ZM50 55L50 56L51 56L51 55ZM0 0L0 7L7 7L7 0ZM1 1L1 6L6 6L6 1ZM2 2L2 5L5 5L5 2ZM50 0L50 7L57 7L57 0ZM51 1L51 6L56 6L56 1ZM52 2L52 5L55 5L55 2ZM0 50L0 57L7 57L7 50ZM1 51L1 56L6 56L6 51ZM2 52L2 55L5 55L5 52Z" fill="#000000"/></g></g></svg>
