<?xml version="1.0" encoding="UTF-8"?>
<svg xmlns="http://www.w3.org/2000/svg" version="1.1" width="300" height="300" viewBox="0 0 300 300"><rect x="0" y="0" width="300" height="300" fill="#fefefe"/><g transform="scale(4.615)"><g transform="translate(4,4)"><path fill-rule="evenodd" d="M8 0L8 4L10 4L10 5L11 5L11 4L12 4L12 3L9 3L9 2L12 2L12 1L13 1L13 5L14 5L14 7L13 7L13 6L12 6L12 10L11 10L11 8L9 8L9 9L8 9L8 10L9 10L9 9L10 9L10 13L11 13L11 11L12 11L12 10L13 10L13 11L14 11L14 12L15 12L15 13L13 13L13 12L12 12L12 14L10 14L10 15L13 15L13 17L15 17L15 19L16 19L16 17L17 17L17 21L15 21L15 20L14 20L14 19L13 19L13 18L12 18L12 16L9 16L9 15L7 15L7 14L8 14L8 12L6 12L6 11L7 11L7 10L6 10L6 9L7 9L7 8L4 8L4 9L5 9L5 11L4 11L4 10L3 10L3 9L2 9L2 8L0 8L0 9L2 9L2 10L3 10L3 11L0 11L0 12L3 12L3 11L4 11L4 13L7 13L7 14L5 14L5 15L4 15L4 14L3 14L3 13L2 13L2 14L1 14L1 15L0 15L0 16L1 16L1 15L2 15L2 17L0 17L0 20L1 20L1 21L0 21L0 22L1 22L1 23L0 23L0 24L2 24L2 25L1 25L1 26L2 26L2 27L0 27L0 31L1 31L1 32L0 32L0 33L1 33L1 35L2 35L2 36L4 36L4 37L3 37L3 38L2 38L2 37L1 37L1 36L0 36L0 37L1 37L1 38L2 38L2 39L0 39L0 43L1 43L1 44L0 44L0 45L1 45L1 46L0 46L0 48L5 48L5 47L7 47L7 46L8 46L8 48L9 48L9 49L8 49L8 50L9 50L9 51L8 51L8 53L9 53L9 55L8 55L8 57L10 57L10 56L11 56L11 57L13 57L13 56L14 56L14 57L15 57L15 56L14 56L14 55L16 55L16 54L17 54L17 57L22 57L22 55L21 55L21 56L18 56L18 55L20 55L20 54L21 54L21 53L22 53L22 54L23 54L23 55L24 55L24 57L25 57L25 54L26 54L26 57L27 57L27 54L26 54L26 53L28 53L28 57L29 57L29 55L30 55L30 57L34 57L34 55L35 55L35 57L37 57L37 56L36 56L36 54L37 54L37 53L38 53L38 55L40 55L40 56L39 56L39 57L40 57L40 56L41 56L41 57L43 57L43 55L44 55L44 53L45 53L45 54L46 54L46 53L47 53L47 52L48 52L48 54L49 54L49 57L50 57L50 55L51 55L51 56L53 56L53 55L55 55L55 54L57 54L57 52L56 52L56 51L55 51L55 49L56 49L56 45L57 45L57 43L56 43L56 42L57 42L57 40L52 40L52 41L51 41L51 43L50 43L50 42L49 42L49 41L48 41L48 43L47 43L47 42L46 42L46 40L45 40L45 39L47 39L47 40L51 40L51 39L57 39L57 38L52 38L52 36L53 36L53 37L57 37L57 35L56 35L56 34L57 34L57 33L56 33L56 30L55 30L55 29L56 29L56 26L55 26L55 25L54 25L54 24L53 24L53 26L52 26L52 22L53 22L53 23L55 23L55 24L56 24L56 25L57 25L57 24L56 24L56 21L57 21L57 19L56 19L56 18L57 18L57 15L56 15L56 13L57 13L57 11L56 11L56 10L57 10L57 8L53 8L53 9L52 9L52 8L51 8L51 9L49 9L49 8L47 8L47 5L48 5L48 0L46 0L46 1L47 1L47 2L45 2L45 0L41 0L41 1L40 1L40 2L38 2L38 1L39 1L39 0L38 0L38 1L37 1L37 2L36 2L36 0L35 0L35 1L34 1L34 0L32 0L32 3L31 3L31 4L30 4L30 3L29 3L29 2L30 2L30 1L31 1L31 0L30 0L30 1L29 1L29 0L28 0L28 1L27 1L27 0L26 0L26 1L25 1L25 0L23 0L23 3L21 3L21 6L20 6L20 5L19 5L19 6L18 6L18 7L17 7L17 6L16 6L16 5L15 5L15 4L14 4L14 1L16 1L16 2L15 2L15 3L16 3L16 4L17 4L17 5L18 5L18 3L19 3L19 2L18 2L18 3L16 3L16 2L17 2L17 1L18 1L18 0L17 0L17 1L16 1L16 0L14 0L14 1L13 1L13 0L10 0L10 1L9 1L9 0ZM19 0L19 1L20 1L20 2L22 2L22 1L21 1L21 0ZM26 1L26 2L25 2L25 3L23 3L23 5L22 5L22 6L21 6L21 8L22 8L22 9L21 9L21 10L20 10L20 8L19 8L19 10L18 10L18 9L16 9L16 10L15 10L15 12L16 12L16 10L18 10L18 11L17 11L17 13L15 13L15 14L17 14L17 13L18 13L18 12L20 12L20 11L22 11L22 12L23 12L23 13L21 13L21 14L20 14L20 13L19 13L19 14L18 14L18 15L19 15L19 14L20 14L20 16L19 16L19 17L18 17L18 16L17 16L17 17L18 17L18 19L19 19L19 21L18 21L18 22L16 22L16 23L15 23L15 22L14 22L14 21L13 21L13 23L12 23L12 21L11 21L11 20L12 20L12 19L11 19L11 20L9 20L9 19L8 19L8 20L9 20L9 22L8 22L8 21L5 21L5 19L4 19L4 18L7 18L7 17L8 17L8 18L11 18L11 17L8 17L8 16L7 16L7 15L5 15L5 17L4 17L4 16L3 16L3 17L4 17L4 18L3 18L3 19L2 19L2 20L4 20L4 21L2 21L2 22L4 22L4 23L2 23L2 24L5 24L5 23L6 23L6 24L9 24L9 25L10 25L10 26L9 26L9 30L11 30L11 31L12 31L12 32L9 32L9 31L6 31L6 32L5 32L5 33L4 33L4 31L3 31L3 32L2 32L2 34L3 34L3 35L4 35L4 36L8 36L8 35L6 35L6 34L9 34L9 36L10 36L10 37L9 37L9 38L8 38L8 37L5 37L5 38L3 38L3 40L1 40L1 41L2 41L2 45L3 45L3 47L5 47L5 45L6 45L6 46L7 46L7 45L8 45L8 46L9 46L9 47L11 47L11 49L10 49L10 52L9 52L9 53L11 53L11 54L10 54L10 55L11 55L11 54L12 54L12 55L14 55L14 54L15 54L15 53L17 53L17 51L18 51L18 52L19 52L19 53L20 53L20 52L19 52L19 50L20 50L20 51L21 51L21 52L22 52L22 53L24 53L24 54L25 54L25 53L26 53L26 51L25 51L25 53L24 53L24 52L22 52L22 51L23 51L23 50L22 50L22 49L23 49L23 48L22 48L22 47L24 47L24 49L26 49L26 48L28 48L28 46L29 46L29 47L30 47L30 48L31 48L31 49L32 49L32 50L31 50L31 52L32 52L32 51L33 51L33 49L34 49L34 50L35 50L35 51L34 51L34 52L33 52L33 53L32 53L32 54L33 54L33 53L34 53L34 54L35 54L35 53L34 53L34 52L36 52L36 49L34 49L34 48L35 48L35 45L34 45L34 47L33 47L33 46L32 46L32 45L31 45L31 44L30 44L30 45L31 45L31 46L29 46L29 43L31 43L31 42L29 42L29 41L30 41L30 40L29 40L29 41L26 41L26 42L25 42L25 43L27 43L27 44L28 44L28 46L27 46L27 45L26 45L26 46L25 46L25 47L24 47L24 45L25 45L25 44L24 44L24 45L21 45L21 43L22 43L22 44L23 44L23 41L25 41L25 40L27 40L27 39L28 39L28 38L29 38L29 39L31 39L31 41L32 41L32 43L33 43L33 44L35 44L35 43L33 43L33 41L32 41L32 40L33 40L33 39L34 39L34 42L35 42L35 39L37 39L37 42L38 42L38 39L39 39L39 40L40 40L40 41L41 41L41 40L43 40L43 42L42 42L42 44L43 44L43 45L44 45L44 46L43 46L43 47L42 47L42 49L43 49L43 50L42 50L42 53L44 53L44 52L43 52L43 51L45 51L45 53L46 53L46 52L47 52L47 49L48 49L48 47L51 47L51 45L52 45L52 46L53 46L53 47L52 47L52 48L53 48L53 49L55 49L55 46L53 46L53 45L52 45L52 43L53 43L53 44L54 44L54 45L55 45L55 44L56 44L56 43L55 43L55 42L54 42L54 43L53 43L53 41L52 41L52 43L51 43L51 44L50 44L50 43L49 43L49 44L47 44L47 43L45 43L45 45L44 45L44 43L43 43L43 42L44 42L44 40L43 40L43 39L45 39L45 37L44 37L44 35L45 35L45 34L44 34L44 33L43 33L43 34L44 34L44 35L42 35L42 34L40 34L40 33L41 33L41 32L40 32L40 31L41 31L41 30L40 30L40 29L43 29L43 30L44 30L44 31L45 31L45 30L46 30L46 32L45 32L45 33L46 33L46 34L49 34L49 33L48 33L48 31L47 31L47 30L48 30L48 29L46 29L46 28L47 28L47 27L45 27L45 29L43 29L43 28L42 28L42 25L44 25L44 26L43 26L43 27L44 27L44 26L45 26L45 25L44 25L44 24L46 24L46 26L47 26L47 25L49 25L49 26L50 26L50 25L51 25L51 23L50 23L50 22L49 22L49 24L46 24L46 23L47 23L47 21L46 21L46 20L45 20L45 21L46 21L46 23L45 23L45 22L44 22L44 16L46 16L46 18L45 18L45 19L47 19L47 16L48 16L48 15L49 15L49 16L50 16L50 17L49 17L49 18L50 18L50 19L51 19L51 18L50 18L50 17L51 17L51 16L50 16L50 11L49 11L49 12L47 12L47 11L48 11L48 10L47 10L47 8L46 8L46 9L44 9L44 8L45 8L45 7L46 7L46 5L47 5L47 3L44 3L44 2L43 2L43 3L41 3L41 2L40 2L40 3L38 3L38 4L37 4L37 3L36 3L36 2L35 2L35 4L34 4L34 1L33 1L33 3L32 3L32 5L33 5L33 4L34 4L34 5L35 5L35 7L34 7L34 6L33 6L33 7L32 7L32 6L31 6L31 11L32 11L32 12L29 12L29 9L26 9L26 6L25 6L25 7L24 7L24 6L23 6L23 5L24 5L24 4L25 4L25 3L26 3L26 4L28 4L28 2L29 2L29 1L28 1L28 2L27 2L27 1ZM40 3L40 4L38 4L38 7L37 7L37 5L36 5L36 4L35 4L35 5L36 5L36 7L35 7L35 9L37 9L37 8L39 8L39 9L38 9L38 10L40 10L40 11L37 11L37 12L36 12L36 10L34 10L34 9L33 9L33 8L34 8L34 7L33 7L33 8L32 8L32 11L33 11L33 10L34 10L34 12L35 12L35 13L36 13L36 14L37 14L37 12L39 12L39 13L38 13L38 15L39 15L39 17L38 17L38 16L37 16L37 15L35 15L35 17L38 17L38 18L39 18L39 19L38 19L38 21L37 21L37 18L34 18L34 13L33 13L33 12L32 12L32 13L33 13L33 14L31 14L31 13L30 13L30 15L33 15L33 16L32 16L32 17L31 17L31 16L29 16L29 13L27 13L27 14L28 14L28 15L27 15L27 17L28 17L28 18L30 18L30 19L31 19L31 20L29 20L29 19L28 19L28 20L26 20L26 19L27 19L27 18L26 18L26 15L25 15L25 14L26 14L26 11L27 11L27 12L28 12L28 11L27 11L27 10L25 10L25 8L24 8L24 7L23 7L23 6L22 6L22 7L23 7L23 8L24 8L24 9L23 9L23 12L24 12L24 13L23 13L23 14L24 14L24 15L22 15L22 14L21 14L21 15L22 15L22 16L24 16L24 15L25 15L25 17L21 17L21 16L20 16L20 18L22 18L22 20L20 20L20 21L19 21L19 23L20 23L20 22L22 22L22 23L21 23L21 25L20 25L20 24L18 24L18 23L17 23L17 25L20 25L20 28L21 28L21 27L22 27L22 28L23 28L23 30L22 30L22 29L18 29L18 28L19 28L19 26L18 26L18 27L17 27L17 26L16 26L16 25L15 25L15 26L14 26L14 25L13 25L13 24L12 24L12 23L11 23L11 22L9 22L9 24L10 24L10 25L13 25L13 26L11 26L11 27L10 27L10 29L12 29L12 27L14 27L14 28L13 28L13 29L14 29L14 31L13 31L13 30L12 30L12 31L13 31L13 32L12 32L12 33L14 33L14 32L15 32L15 31L16 31L16 32L18 32L18 33L17 33L17 34L18 34L18 33L19 33L19 32L18 32L18 30L22 30L22 31L21 31L21 33L20 33L20 35L19 35L19 36L18 36L18 35L16 35L16 33L15 33L15 35L13 35L13 34L12 34L12 35L11 35L11 36L12 36L12 38L10 38L10 39L7 39L7 38L6 38L6 39L7 39L7 40L5 40L5 41L4 41L4 42L5 42L5 41L8 41L8 43L7 43L7 42L6 42L6 43L4 43L4 44L6 44L6 45L7 45L7 44L8 44L8 45L9 45L9 46L11 46L11 45L10 45L10 43L12 43L12 42L13 42L13 41L14 41L14 42L16 42L16 43L18 43L18 41L19 41L19 40L20 40L20 42L21 42L21 41L22 41L22 40L24 40L24 39L22 39L22 36L23 36L23 37L24 37L24 38L25 38L25 39L27 39L27 37L28 37L28 36L29 36L29 37L31 37L31 36L32 36L32 37L33 37L33 38L31 38L31 39L33 39L33 38L34 38L34 36L33 36L33 35L34 35L34 27L33 27L33 26L34 26L34 25L37 25L37 24L34 24L34 23L35 23L35 22L37 22L37 23L39 23L39 21L40 21L40 22L41 22L41 25L42 25L42 24L43 24L43 23L44 23L44 22L43 22L43 21L40 21L40 18L41 18L41 20L43 20L43 19L42 19L42 18L43 18L43 17L42 17L42 15L43 15L43 16L44 16L44 15L43 15L43 14L45 14L45 15L46 15L46 16L47 16L47 15L46 15L46 11L45 11L45 10L43 10L43 8L44 8L44 7L45 7L45 4L44 4L44 3L43 3L43 4L41 4L41 3ZM43 4L43 5L39 5L39 7L40 7L40 6L41 6L41 8L40 8L40 10L41 10L41 9L42 9L42 8L43 8L43 7L44 7L44 4ZM8 5L8 7L9 7L9 5ZM27 5L27 8L30 8L30 5ZM10 6L10 7L11 7L11 6ZM15 6L15 7L16 7L16 6ZM19 6L19 7L20 7L20 6ZM28 6L28 7L29 7L29 6ZM42 6L42 7L43 7L43 6ZM48 6L48 7L49 7L49 6ZM13 8L13 9L14 9L14 8ZM51 9L51 10L52 10L52 9ZM53 9L53 10L54 10L54 11L52 11L52 12L51 12L51 14L52 14L52 19L53 19L53 20L52 20L52 21L51 21L51 20L49 20L49 21L51 21L51 22L52 22L52 21L54 21L54 22L55 22L55 20L56 20L56 19L55 19L55 17L56 17L56 16L55 16L55 13L56 13L56 12L55 12L55 9ZM40 11L40 13L39 13L39 14L40 14L40 13L44 13L44 12L45 12L45 11L44 11L44 12L41 12L41 11ZM53 12L53 13L52 13L52 14L53 14L53 15L54 15L54 14L53 14L53 13L54 13L54 12ZM47 13L47 14L49 14L49 13ZM2 14L2 15L3 15L3 14ZM14 15L14 16L15 16L15 15ZM40 15L40 17L39 17L39 18L40 18L40 17L41 17L41 15ZM6 16L6 17L7 17L7 16ZM53 16L53 17L55 17L55 16ZM32 17L32 18L31 18L31 19L32 19L32 18L33 18L33 19L34 19L34 20L33 20L33 21L34 21L34 22L35 22L35 21L34 21L34 20L36 20L36 19L34 19L34 18L33 18L33 17ZM24 18L24 19L23 19L23 20L22 20L22 21L24 21L24 22L25 22L25 23L26 23L26 22L28 22L28 21L29 21L29 20L28 20L28 21L24 21L24 20L25 20L25 19L26 19L26 18ZM6 19L6 20L7 20L7 19ZM31 20L31 21L32 21L32 20ZM6 22L6 23L7 23L7 22ZM29 22L29 23L28 23L28 25L27 25L27 26L29 26L29 25L30 25L30 24L29 24L29 23L31 23L31 29L32 29L32 30L31 30L31 31L32 31L32 32L29 32L29 33L28 33L28 34L27 34L27 35L26 35L26 36L25 36L25 34L24 34L24 36L25 36L25 37L27 37L27 36L28 36L28 34L29 34L29 33L31 33L31 34L30 34L30 36L31 36L31 35L33 35L33 33L32 33L32 32L33 32L33 29L32 29L32 28L33 28L33 27L32 27L32 23L33 23L33 22ZM42 22L42 23L43 23L43 22ZM10 23L10 24L11 24L11 23ZM14 23L14 24L15 24L15 23ZM22 23L22 25L21 25L21 26L22 26L22 25L23 25L23 24L24 24L24 23ZM33 24L33 25L34 25L34 24ZM2 25L2 26L3 26L3 28L2 28L2 29L1 29L1 30L4 30L4 26L8 26L8 25ZM25 25L25 26L24 26L24 27L23 27L23 28L24 28L24 27L26 27L26 25ZM38 25L38 26L39 26L39 27L37 27L37 26L36 26L36 27L35 27L35 30L36 30L36 31L35 31L35 38L37 38L37 39L38 39L38 38L40 38L40 40L41 40L41 37L42 37L42 39L43 39L43 38L44 38L44 37L43 37L43 36L41 36L41 37L38 37L38 36L37 36L37 35L38 35L38 34L39 34L39 33L40 33L40 32L39 32L39 31L40 31L40 30L39 30L39 29L40 29L40 28L41 28L41 26L40 26L40 25ZM54 26L54 27L53 27L53 28L54 28L54 29L55 29L55 26ZM5 27L5 30L8 30L8 27ZM15 27L15 28L16 28L16 27ZM27 27L27 30L30 30L30 27ZM36 27L36 28L37 28L37 29L36 29L36 30L37 30L37 32L38 32L38 30L37 30L37 29L38 29L38 28L37 28L37 27ZM49 27L49 30L52 30L52 27ZM6 28L6 29L7 29L7 28ZM28 28L28 29L29 29L29 28ZM50 28L50 29L51 29L51 28ZM15 29L15 30L18 30L18 29ZM25 29L25 30L23 30L23 31L22 31L22 33L21 33L21 34L23 34L23 33L26 33L26 31L25 31L25 30L26 30L26 29ZM54 30L54 31L53 31L53 33L51 33L51 32L50 32L50 31L49 31L49 32L50 32L50 35L49 35L49 36L50 36L50 35L53 35L53 36L56 36L56 35L53 35L53 34L54 34L54 32L55 32L55 30ZM23 31L23 32L24 32L24 31ZM27 31L27 32L28 32L28 31ZM6 32L6 33L8 33L8 32ZM3 33L3 34L4 34L4 35L5 35L5 34L4 34L4 33ZM9 33L9 34L11 34L11 33ZM37 33L37 34L38 34L38 33ZM55 33L55 34L56 34L56 33ZM12 35L12 36L13 36L13 35ZM20 35L20 36L22 36L22 35ZM39 35L39 36L40 36L40 35ZM46 35L46 36L47 36L47 37L46 37L46 38L47 38L47 39L48 39L48 38L50 38L50 39L51 39L51 38L50 38L50 37L48 37L48 35ZM16 36L16 37L15 37L15 39L16 39L16 38L17 38L17 36ZM13 37L13 38L12 38L12 39L10 39L10 40L9 40L9 43L10 43L10 41L11 41L11 42L12 42L12 41L13 41L13 40L14 40L14 41L16 41L16 42L17 42L17 40L18 40L18 39L20 39L20 38L21 38L21 37L18 37L18 39L17 39L17 40L14 40L14 39L13 39L13 38L14 38L14 37ZM37 37L37 38L38 38L38 37ZM47 37L47 38L48 38L48 37ZM21 39L21 40L22 40L22 39ZM11 40L11 41L12 41L12 40ZM27 42L27 43L28 43L28 42ZM39 42L39 44L37 44L37 43L36 43L36 44L37 44L37 45L36 45L36 46L38 46L38 45L39 45L39 44L40 44L40 51L38 51L38 49L39 49L39 47L38 47L38 49L37 49L37 51L38 51L38 53L39 53L39 52L40 52L40 53L41 53L41 43L40 43L40 42ZM6 43L6 44L7 44L7 43ZM13 43L13 44L14 44L14 46L16 46L16 48L15 48L15 47L13 47L13 45L12 45L12 47L13 47L13 48L15 48L15 49L18 49L18 50L19 50L19 49L20 49L20 50L21 50L21 51L22 51L22 50L21 50L21 49L22 49L22 48L21 48L21 47L22 47L22 46L21 46L21 45L20 45L20 46L19 46L19 44L20 44L20 43L19 43L19 44L18 44L18 45L17 45L17 46L16 46L16 44L14 44L14 43ZM46 44L46 45L45 45L45 46L44 46L44 47L46 47L46 45L47 45L47 44ZM1 46L1 47L2 47L2 46ZM18 46L18 47L17 47L17 48L18 48L18 47L19 47L19 48L20 48L20 47L19 47L19 46ZM26 46L26 47L25 47L25 48L26 48L26 47L27 47L27 46ZM47 46L47 47L48 47L48 46ZM31 47L31 48L32 48L32 49L33 49L33 47ZM36 47L36 48L37 48L37 47ZM6 48L6 49L7 49L7 48ZM44 48L44 50L45 50L45 48ZM46 48L46 49L47 49L47 48ZM27 49L27 52L30 52L30 49ZM49 49L49 52L52 52L52 49ZM11 50L11 51L12 51L12 52L13 52L13 51L15 51L15 50L13 50L13 51L12 51L12 50ZM16 50L16 51L17 51L17 50ZM28 50L28 51L29 51L29 50ZM50 50L50 51L51 51L51 50ZM53 50L53 54L55 54L55 53L54 53L54 52L55 52L55 51L54 51L54 50ZM12 53L12 54L14 54L14 53ZM30 53L30 54L31 54L31 53ZM49 53L49 54L51 54L51 55L52 55L52 54L51 54L51 53ZM40 54L40 55L41 55L41 56L42 56L42 55L43 55L43 54ZM46 55L46 56L44 56L44 57L47 57L47 56L48 56L48 55ZM56 56L56 57L57 57L57 56ZM0 0L0 7L7 7L7 0ZM1 1L1 6L6 6L6 1ZM2 2L2 5L5 5L5 2ZM50 0L50 7L57 7L57 0ZM51 1L51 6L56 6L56 1ZM52 2L52 5L55 5L55 2ZM0 50L0 57L7 57L7 50ZM1 51L1 56L6 56L6 51ZM2 52L2 55L5 55L5 52Z" fill="#000000"/></g></g></svg>
