<?xml version="1.0" encoding="UTF-8"?>
<svg xmlns="http://www.w3.org/2000/svg" version="1.1" width="300" height="300" viewBox="0 0 300 300"><rect x="0" y="0" width="300" height="300" fill="#fefefe"/><g transform="scale(4.615)"><g transform="translate(4,4)"><path fill-rule="evenodd" d="M8 0L8 2L11 2L11 1L12 1L12 5L11 5L11 6L10 6L10 7L9 7L9 5L10 5L10 4L11 4L11 3L10 3L10 4L8 4L8 9L12 9L12 8L10 8L10 7L11 7L11 6L12 6L12 7L13 7L13 8L14 8L14 9L15 9L15 11L14 11L14 12L16 12L16 8L14 8L14 7L15 7L15 6L16 6L16 7L17 7L17 8L18 8L18 10L17 10L17 14L15 14L15 15L17 15L17 16L18 16L18 17L17 17L17 19L16 19L16 17L15 17L15 16L14 16L14 15L12 15L12 14L11 14L11 13L13 13L13 10L12 10L12 12L11 12L11 13L9 13L9 12L10 12L10 10L9 10L9 12L8 12L8 13L7 13L7 12L5 12L5 11L7 11L7 10L6 10L6 9L7 9L7 8L5 8L5 9L4 9L4 10L3 10L3 8L0 8L0 11L1 11L1 12L0 12L0 13L2 13L2 15L1 15L1 14L0 14L0 15L1 15L1 16L0 16L0 18L1 18L1 17L2 17L2 19L1 19L1 20L2 20L2 23L1 23L1 22L0 22L0 23L1 23L1 24L0 24L0 25L2 25L2 26L1 26L1 27L0 27L0 32L1 32L1 29L2 29L2 31L4 31L4 32L3 32L3 33L2 33L2 34L1 34L1 33L0 33L0 34L1 34L1 35L0 35L0 37L1 37L1 38L0 38L0 40L1 40L1 41L4 41L4 42L1 42L1 44L2 44L2 43L4 43L4 44L5 44L5 43L4 43L4 42L5 42L5 41L7 41L7 42L6 42L6 43L8 43L8 44L6 44L6 45L4 45L4 46L5 46L5 47L3 47L3 46L2 46L2 47L1 47L1 45L0 45L0 48L5 48L5 47L7 47L7 46L6 46L6 45L8 45L8 47L9 47L9 48L8 48L8 50L9 50L9 51L8 51L8 52L9 52L9 54L8 54L8 57L10 57L10 56L11 56L11 57L12 57L12 55L13 55L13 56L15 56L15 57L17 57L17 56L18 56L18 57L19 57L19 54L18 54L18 53L19 53L19 50L20 50L20 49L21 49L21 48L22 48L22 50L21 50L21 51L20 51L20 53L21 53L21 52L22 52L22 54L20 54L20 55L21 55L21 56L22 56L22 57L25 57L25 56L26 56L26 57L28 57L28 55L29 55L29 57L33 57L33 55L34 55L34 57L35 57L35 55L37 55L37 54L36 54L36 53L37 53L37 52L38 52L38 47L37 47L37 46L38 46L38 45L37 45L37 44L39 44L39 43L37 43L37 44L36 44L36 45L37 45L37 46L36 46L36 47L37 47L37 48L36 48L36 49L37 49L37 51L35 51L35 50L34 50L34 48L35 48L35 47L34 47L34 45L33 45L33 44L35 44L35 43L36 43L36 41L37 41L37 42L38 42L38 41L39 41L39 39L38 39L38 37L39 37L39 38L40 38L40 41L41 41L41 42L40 42L40 43L41 43L41 42L42 42L42 43L43 43L43 44L42 44L42 45L41 45L41 44L40 44L40 46L41 46L41 47L40 47L40 49L39 49L39 52L40 52L40 53L39 53L39 55L40 55L40 54L41 54L41 55L42 55L42 56L40 56L40 57L42 57L42 56L43 56L43 54L42 54L42 53L41 53L41 52L42 52L42 51L43 51L43 52L44 52L44 55L45 55L45 56L44 56L44 57L45 57L45 56L46 56L46 57L50 57L50 55L49 55L49 54L52 54L52 55L53 55L53 56L51 56L51 57L53 57L53 56L54 56L54 55L57 55L57 54L54 54L54 53L57 53L57 50L56 50L56 47L57 47L57 44L56 44L56 47L55 47L55 46L54 46L54 45L53 45L53 46L52 46L52 48L50 48L50 47L51 47L51 46L50 46L50 47L49 47L49 45L48 45L48 44L49 44L49 42L50 42L50 45L51 45L51 44L52 44L52 39L51 39L51 38L52 38L52 37L53 37L53 36L54 36L54 37L55 37L55 38L57 38L57 36L56 36L56 35L57 35L57 33L56 33L56 31L57 31L57 29L56 29L56 28L57 28L57 24L56 24L56 23L57 23L57 21L56 21L56 20L55 20L55 21L54 21L54 19L55 19L55 18L56 18L56 19L57 19L57 18L56 18L56 17L57 17L57 13L56 13L56 11L57 11L57 10L56 10L56 11L55 11L55 9L57 9L57 8L55 8L55 9L54 9L54 10L53 10L53 8L49 8L49 10L48 10L48 7L49 7L49 6L48 6L48 7L47 7L47 5L48 5L48 0L46 0L46 1L45 1L45 0L42 0L42 1L41 1L41 0L38 0L38 2L37 2L37 1L35 1L35 0L34 0L34 2L37 2L37 4L38 4L38 5L39 5L39 4L40 4L40 2L41 2L41 4L42 4L42 5L41 5L41 6L40 6L40 7L41 7L41 6L42 6L42 8L40 8L40 9L41 9L41 11L40 11L40 10L39 10L39 11L38 11L38 9L39 9L39 6L38 6L38 7L37 7L37 6L36 6L36 10L34 10L34 9L35 9L35 4L36 4L36 3L34 3L34 8L32 8L32 9L31 9L31 5L32 5L32 1L33 1L33 0L32 0L32 1L31 1L31 0L30 0L30 1L31 1L31 3L30 3L30 2L29 2L29 3L30 3L30 4L28 4L28 3L27 3L27 0L24 0L24 1L23 1L23 0L20 0L20 1L19 1L19 2L18 2L18 0L16 0L16 1L14 1L14 0L13 0L13 1L12 1L12 0L10 0L10 1L9 1L9 0ZM28 0L28 1L29 1L29 0ZM13 1L13 3L14 3L14 4L15 4L15 3L16 3L16 4L17 4L17 3L18 3L18 5L16 5L16 6L17 6L17 7L18 7L18 8L19 8L19 9L20 9L20 10L21 10L21 11L18 11L18 12L20 12L20 15L19 15L19 13L18 13L18 15L19 15L19 17L20 17L20 19L19 19L19 18L18 18L18 19L17 19L17 22L16 22L16 23L18 23L18 24L17 24L17 25L16 25L16 26L17 26L17 27L16 27L16 28L15 28L15 30L16 30L16 31L14 31L14 30L13 30L13 29L14 29L14 28L13 28L13 27L15 27L15 26L14 26L14 25L15 25L15 21L14 21L14 22L13 22L13 21L12 21L12 19L13 19L13 18L15 18L15 17L14 17L14 16L13 16L13 17L12 17L12 16L11 16L11 18L10 18L10 17L9 17L9 16L10 16L10 15L11 15L11 14L10 14L10 15L9 15L9 16L8 16L8 15L6 15L6 14L7 14L7 13L6 13L6 14L5 14L5 13L3 13L3 12L2 12L2 13L3 13L3 15L2 15L2 16L3 16L3 15L4 15L4 14L5 14L5 16L4 16L4 17L6 17L6 18L4 18L4 19L6 19L6 20L7 20L7 21L6 21L6 22L7 22L7 23L5 23L5 22L4 22L4 23L2 23L2 24L3 24L3 26L2 26L2 27L3 27L3 28L2 28L2 29L3 29L3 30L4 30L4 29L3 29L3 28L4 28L4 27L3 27L3 26L5 26L5 25L6 25L6 26L7 26L7 25L6 25L6 24L7 24L7 23L8 23L8 26L9 26L9 28L10 28L10 29L9 29L9 31L8 31L8 33L5 33L5 32L7 32L7 31L5 31L5 32L4 32L4 33L3 33L3 36L2 36L2 37L3 37L3 39L2 39L2 40L5 40L5 39L4 39L4 37L5 37L5 38L7 38L7 37L6 37L6 36L8 36L8 37L10 37L10 36L8 36L8 33L9 33L9 34L11 34L11 33L10 33L10 32L9 32L9 31L11 31L11 30L10 30L10 29L11 29L11 28L12 28L12 31L13 31L13 32L15 32L15 33L14 33L14 34L13 34L13 33L12 33L12 35L11 35L11 36L12 36L12 37L11 37L11 38L12 38L12 40L11 40L11 39L10 39L10 38L9 38L9 39L6 39L6 40L7 40L7 41L8 41L8 40L11 40L11 42L10 42L10 41L9 41L9 43L10 43L10 45L11 45L11 43L12 43L12 44L13 44L13 43L14 43L14 44L15 44L15 45L14 45L14 46L13 46L13 45L12 45L12 46L9 46L9 47L12 47L12 48L10 48L10 50L12 50L12 48L13 48L13 50L15 50L15 49L16 49L16 51L15 51L15 52L14 52L14 51L13 51L13 53L15 53L15 52L16 52L16 51L17 51L17 53L18 53L18 50L19 50L19 49L20 49L20 48L19 48L19 49L18 49L18 47L17 47L17 44L15 44L15 43L16 43L16 42L17 42L17 41L18 41L18 40L19 40L19 39L18 39L18 38L17 38L17 37L18 37L18 36L20 36L20 35L21 35L21 38L20 38L20 39L22 39L22 40L20 40L20 43L18 43L18 44L19 44L19 45L18 45L18 46L19 46L19 47L20 47L20 46L22 46L22 48L23 48L23 49L24 49L24 51L23 51L23 52L24 52L24 51L25 51L25 54L24 54L24 55L26 55L26 54L27 54L27 55L28 55L28 53L26 53L26 51L25 51L25 48L23 48L23 44L22 44L22 43L23 43L23 41L22 41L22 40L24 40L24 44L25 44L25 42L26 42L26 41L25 41L25 40L26 40L26 39L27 39L27 41L28 41L28 43L30 43L30 44L29 44L29 45L28 45L28 46L26 46L26 45L24 45L24 47L25 47L25 46L26 46L26 48L31 48L31 50L32 50L32 51L31 51L31 52L32 52L32 51L33 51L33 50L32 50L32 48L34 48L34 47L33 47L33 45L32 45L32 40L33 40L33 41L34 41L34 42L35 42L35 41L36 41L36 38L37 38L37 37L36 37L36 35L38 35L38 36L40 36L40 35L41 35L41 37L42 37L42 38L41 38L41 39L42 39L42 40L41 40L41 41L42 41L42 42L43 42L43 43L44 43L44 44L43 44L43 45L42 45L42 47L41 47L41 49L40 49L40 51L41 51L41 49L42 49L42 50L43 50L43 51L44 51L44 50L43 50L43 49L44 49L44 47L45 47L45 45L44 45L44 44L45 44L45 43L44 43L44 39L43 39L43 38L44 38L44 35L43 35L43 33L42 33L42 31L43 31L43 29L44 29L44 30L46 30L46 31L45 31L45 32L46 32L46 34L48 34L48 33L47 33L47 32L46 32L46 31L47 31L47 30L48 30L48 29L47 29L47 28L46 28L46 29L44 29L44 28L42 28L42 31L40 31L40 30L39 30L39 29L40 29L40 28L41 28L41 27L46 27L46 26L49 26L49 25L50 25L50 26L53 26L53 25L54 25L54 26L55 26L55 27L54 27L54 28L53 28L53 29L54 29L54 30L53 30L53 31L51 31L51 32L50 32L50 33L49 33L49 36L48 36L48 37L46 37L46 35L45 35L45 37L46 37L46 38L45 38L45 41L46 41L46 43L48 43L48 42L49 42L49 41L51 41L51 40L48 40L48 37L49 37L49 36L50 36L50 38L51 38L51 36L53 36L53 34L54 34L54 36L55 36L55 37L56 37L56 36L55 36L55 35L56 35L56 33L53 33L53 31L54 31L54 32L55 32L55 31L56 31L56 30L55 30L55 28L56 28L56 24L55 24L55 23L56 23L56 21L55 21L55 23L54 23L54 22L52 22L52 20L53 20L53 19L54 19L54 16L55 16L55 17L56 17L56 16L55 16L55 15L56 15L56 13L55 13L55 11L54 11L54 12L53 12L53 14L52 14L52 13L50 13L50 11L51 11L51 12L52 12L52 11L51 11L51 10L52 10L52 9L50 9L50 11L48 11L48 10L47 10L47 9L46 9L46 6L45 6L45 5L44 5L44 4L45 4L45 1L42 1L42 4L43 4L43 5L42 5L42 6L43 6L43 7L44 7L44 6L45 6L45 9L44 9L44 8L42 8L42 11L41 11L41 12L42 12L42 15L41 15L41 13L40 13L40 14L39 14L39 12L37 12L37 11L34 11L34 10L33 10L33 9L32 9L32 11L34 11L34 12L35 12L35 13L34 13L34 15L33 15L33 13L32 13L32 12L30 12L30 11L31 11L31 9L30 9L30 11L29 11L29 12L30 12L30 13L29 13L29 15L28 15L28 14L27 14L27 12L28 12L28 11L27 11L27 10L29 10L29 9L27 9L27 10L25 10L25 9L26 9L26 5L24 5L24 6L23 6L23 5L22 5L22 4L23 4L23 1L21 1L21 2L22 2L22 4L21 4L21 3L18 3L18 2L17 2L17 3L16 3L16 2L15 2L15 3L14 3L14 1ZM24 1L24 4L25 4L25 1ZM39 1L39 2L40 2L40 1ZM46 1L46 2L47 2L47 1ZM43 2L43 4L44 4L44 2ZM26 3L26 4L27 4L27 3ZM46 3L46 5L47 5L47 3ZM13 5L13 7L14 7L14 5ZM18 5L18 7L19 7L19 8L20 8L20 9L21 9L21 10L22 10L22 9L23 9L23 11L22 11L22 12L25 12L25 13L26 13L26 11L24 11L24 9L25 9L25 8L22 8L22 9L21 9L21 6L22 6L22 7L23 7L23 6L22 6L22 5L20 5L20 7L19 7L19 5ZM27 5L27 8L30 8L30 5ZM43 5L43 6L44 6L44 5ZM24 6L24 7L25 7L25 6ZM28 6L28 7L29 7L29 6ZM32 6L32 7L33 7L33 6ZM37 8L37 9L38 9L38 8ZM1 9L1 10L2 10L2 9ZM43 9L43 11L42 11L42 12L44 12L44 13L43 13L43 14L44 14L44 15L43 15L43 16L44 16L44 17L43 17L43 18L42 18L42 17L41 17L41 15L40 15L40 18L38 18L38 16L37 16L37 15L38 15L38 13L37 13L37 12L36 12L36 13L37 13L37 14L36 14L36 18L34 18L34 17L35 17L35 15L34 15L34 17L33 17L33 16L32 16L32 17L31 17L31 16L30 16L30 15L29 15L29 16L30 16L30 17L28 17L28 18L30 18L30 17L31 17L31 20L30 20L30 19L29 19L29 20L28 20L28 19L27 19L27 20L26 20L26 18L24 18L24 16L26 16L26 17L27 17L27 16L26 16L26 15L27 15L27 14L26 14L26 15L24 15L24 16L22 16L22 14L21 14L21 15L20 15L20 17L21 17L21 18L22 18L22 26L21 26L21 30L22 30L22 33L23 33L23 35L25 35L25 36L24 36L24 37L25 37L25 36L26 36L26 35L25 35L25 34L24 34L24 32L25 32L25 33L26 33L26 34L28 34L28 35L27 35L27 36L28 36L28 37L29 37L29 36L28 36L28 35L31 35L31 36L30 36L30 40L28 40L28 41L30 41L30 40L31 40L31 38L33 38L33 39L34 39L34 41L35 41L35 38L36 38L36 37L35 37L35 38L34 38L34 36L35 36L35 35L36 35L36 33L37 33L37 34L38 34L38 35L39 35L39 34L38 34L38 33L39 33L39 32L40 32L40 34L42 34L42 33L41 33L41 32L40 32L40 31L38 31L38 30L37 30L37 31L36 31L36 33L35 33L35 31L34 31L34 29L35 29L35 30L36 30L36 29L37 29L37 28L38 28L38 29L39 29L39 26L40 26L40 27L41 27L41 26L42 26L42 25L41 25L41 23L39 23L39 22L38 22L38 21L37 21L37 20L39 20L39 19L40 19L40 22L42 22L42 23L43 23L43 24L44 24L44 25L43 25L43 26L44 26L44 25L45 25L45 26L46 26L46 24L50 24L50 25L51 25L51 23L52 23L52 25L53 25L53 23L52 23L52 22L51 22L51 23L50 23L50 22L49 22L49 23L46 23L46 24L44 24L44 23L45 23L45 22L46 22L46 21L47 21L47 22L48 22L48 21L49 21L49 20L51 20L51 18L52 18L52 17L53 17L53 16L54 16L54 15L53 15L53 16L52 16L52 17L51 17L51 18L50 18L50 17L49 17L49 16L50 16L50 13L49 13L49 14L48 14L48 12L47 12L47 11L46 11L46 13L45 13L45 12L44 12L44 9ZM45 9L45 10L46 10L46 9ZM31 13L31 14L32 14L32 13ZM46 13L46 15L44 15L44 16L46 16L46 15L48 15L48 14L47 14L47 13ZM51 14L51 15L52 15L52 14ZM6 16L6 17L7 17L7 16ZM8 17L8 18L9 18L9 17ZM44 17L44 19L42 19L42 20L43 20L43 21L42 21L42 22L43 22L43 23L44 23L44 22L45 22L45 21L46 21L46 19L45 19L45 17ZM46 17L46 18L47 18L47 17ZM48 17L48 19L47 19L47 20L48 20L48 19L49 19L49 17ZM6 18L6 19L7 19L7 18ZM11 18L11 19L9 19L9 20L8 20L8 21L7 21L7 22L9 22L9 23L10 23L10 24L9 24L9 25L12 25L12 26L11 26L11 27L12 27L12 26L13 26L13 25L12 25L12 24L14 24L14 23L10 23L10 22L12 22L12 21L11 21L11 19L12 19L12 18ZM36 18L36 19L37 19L37 18ZM40 18L40 19L41 19L41 18ZM2 19L2 20L3 20L3 21L4 21L4 20L3 20L3 19ZM14 19L14 20L16 20L16 19ZM18 19L18 21L19 21L19 19ZM20 19L20 21L21 21L21 19ZM24 19L24 20L25 20L25 19ZM33 19L33 20L34 20L34 19ZM44 19L44 21L43 21L43 22L44 22L44 21L45 21L45 19ZM9 20L9 22L10 22L10 20ZM27 20L27 21L28 21L28 20ZM29 20L29 21L30 21L30 22L29 22L29 23L30 23L30 24L29 24L29 26L31 26L31 25L32 25L32 27L31 27L31 31L32 31L32 32L30 32L30 34L31 34L31 35L32 35L32 32L33 32L33 33L34 33L34 34L33 34L33 35L35 35L35 33L34 33L34 32L33 32L33 29L34 29L34 27L35 27L35 29L36 29L36 28L37 28L37 26L36 26L36 24L37 24L37 25L38 25L38 26L39 26L39 25L40 25L40 24L39 24L39 25L38 25L38 22L37 22L37 21L36 21L36 20L35 20L35 21L34 21L34 22L35 22L35 23L36 23L36 24L34 24L34 23L33 23L33 24L34 24L34 26L33 26L33 25L32 25L32 23L31 23L31 22L33 22L33 21L32 21L32 20L31 20L31 21L30 21L30 20ZM35 21L35 22L36 22L36 23L37 23L37 22L36 22L36 21ZM20 22L20 23L21 23L21 22ZM24 22L24 23L25 23L25 22ZM26 22L26 23L28 23L28 22ZM4 23L4 25L5 25L5 23ZM18 24L18 25L19 25L19 24ZM27 24L27 25L26 25L26 26L28 26L28 24ZM24 25L24 26L23 26L23 27L22 27L22 28L24 28L24 26L25 26L25 25ZM5 27L5 30L8 30L8 27ZM18 27L18 28L19 28L19 30L17 30L17 31L16 31L16 33L15 33L15 34L14 34L14 36L13 36L13 35L12 35L12 36L13 36L13 37L12 37L12 38L13 38L13 37L14 37L14 39L13 39L13 40L12 40L12 41L13 41L13 40L14 40L14 42L16 42L16 41L17 41L17 40L18 40L18 39L17 39L17 38L16 38L16 39L17 39L17 40L16 40L16 41L15 41L15 37L14 37L14 36L15 36L15 35L16 35L16 37L17 37L17 36L18 36L18 34L19 34L19 35L20 35L20 32L19 32L19 31L20 31L20 27ZM27 27L27 30L30 30L30 27ZM49 27L49 30L52 30L52 27ZM6 28L6 29L7 29L7 28ZM28 28L28 29L29 29L29 28ZM32 28L32 29L33 29L33 28ZM50 28L50 29L51 29L51 28ZM22 29L22 30L23 30L23 32L24 32L24 31L25 31L25 32L26 32L26 33L28 33L28 34L29 34L29 31L28 31L28 32L26 32L26 30L25 30L25 29L24 29L24 30L23 30L23 29ZM37 31L37 32L38 32L38 31ZM4 33L4 35L5 35L5 36L6 36L6 35L7 35L7 34L5 34L5 33ZM16 33L16 34L17 34L17 33ZM50 33L50 36L51 36L51 33ZM21 34L21 35L22 35L22 34ZM42 35L42 37L43 37L43 35ZM3 36L3 37L4 37L4 36ZM22 36L22 38L23 38L23 36ZM31 36L31 37L32 37L32 36ZM26 37L26 38L24 38L24 39L26 39L26 38L27 38L27 37ZM28 38L28 39L29 39L29 38ZM46 38L46 41L48 41L48 40L47 40L47 38ZM53 38L53 40L54 40L54 41L53 41L53 44L54 44L54 43L55 43L55 42L56 42L56 43L57 43L57 42L56 42L56 41L57 41L57 40L54 40L54 38ZM37 39L37 41L38 41L38 39ZM21 41L21 42L22 42L22 41ZM54 41L54 42L55 42L55 41ZM12 42L12 43L13 43L13 42ZM30 42L30 43L31 43L31 42ZM20 43L20 45L19 45L19 46L20 46L20 45L21 45L21 43ZM8 44L8 45L9 45L9 44ZM30 44L30 45L31 45L31 44ZM46 44L46 47L47 47L47 44ZM15 45L15 46L14 46L14 48L15 48L15 47L16 47L16 49L17 49L17 50L18 50L18 49L17 49L17 47L16 47L16 45ZM43 45L43 46L44 46L44 45ZM30 46L30 47L31 47L31 48L32 48L32 47L31 47L31 46ZM53 46L53 49L54 49L54 50L53 50L53 51L54 51L54 52L55 52L55 51L56 51L56 50L55 50L55 47L54 47L54 46ZM6 48L6 49L7 49L7 48ZM45 48L45 49L46 49L46 50L45 50L45 53L46 53L46 55L48 55L48 54L49 54L49 53L46 53L46 50L47 50L47 48ZM27 49L27 52L30 52L30 49ZM49 49L49 52L52 52L52 49ZM28 50L28 51L29 51L29 50ZM50 50L50 51L51 51L51 50ZM10 51L10 54L9 54L9 56L10 56L10 55L11 55L11 53L12 53L12 51ZM34 51L34 52L35 52L35 53L34 53L34 55L35 55L35 53L36 53L36 52L35 52L35 51ZM47 51L47 52L48 52L48 51ZM31 53L31 54L30 54L30 55L33 55L33 54L32 54L32 53ZM13 54L13 55L14 55L14 54ZM16 54L16 55L18 55L18 54ZM22 54L22 56L23 56L23 54ZM53 54L53 55L54 55L54 54ZM36 56L36 57L37 57L37 56ZM56 56L56 57L57 57L57 56ZM0 0L0 7L7 7L7 0ZM1 1L1 6L6 6L6 1ZM2 2L2 5L5 5L5 2ZM50 0L50 7L57 7L57 0ZM51 1L51 6L56 6L56 1ZM52 2L52 5L55 5L55 2ZM0 50L0 57L7 57L7 50ZM1 51L1 56L6 56L6 51ZM2 52L2 55L5 55L5 52Z" fill="#000000"/></g></g></svg>
