<?xml version="1.0" encoding="UTF-8"?>
<svg xmlns="http://www.w3.org/2000/svg" version="1.1" width="300" height="300" viewBox="0 0 300 300"><rect x="0" y="0" width="300" height="300" fill="#fefefe"/><g transform="scale(4.615)"><g transform="translate(4,4)"><path fill-rule="evenodd" d="M19 0L19 1L18 1L18 2L16 2L16 1L14 1L14 2L13 2L13 1L12 1L12 4L11 4L11 5L10 5L10 3L11 3L11 2L10 2L10 1L8 1L8 2L9 2L9 3L8 3L8 4L9 4L9 5L8 5L8 7L9 7L9 8L6 8L6 9L5 9L5 8L0 8L0 11L1 11L1 12L3 12L3 13L4 13L4 12L5 12L5 13L7 13L7 12L8 12L8 14L6 14L6 15L5 15L5 16L4 16L4 14L3 14L3 15L2 15L2 16L3 16L3 17L2 17L2 18L0 18L0 19L2 19L2 18L3 18L3 17L4 17L4 18L5 18L5 19L7 19L7 20L4 20L4 19L3 19L3 20L2 20L2 21L3 21L3 24L4 24L4 25L1 25L1 24L0 24L0 31L1 31L1 32L4 32L4 31L9 31L9 32L6 32L6 33L7 33L7 34L4 34L4 33L1 33L1 34L0 34L0 37L1 37L1 36L2 36L2 37L3 37L3 38L4 38L4 39L1 39L1 38L0 38L0 39L1 39L1 40L0 40L0 43L1 43L1 42L2 42L2 43L4 43L4 45L3 45L3 46L2 46L2 44L1 44L1 46L0 46L0 48L5 48L5 47L7 47L7 46L5 46L5 47L3 47L3 46L4 46L4 45L5 45L5 44L6 44L6 45L7 45L7 44L8 44L8 47L9 47L9 46L10 46L10 45L11 45L11 46L12 46L12 45L13 45L13 47L11 47L11 49L10 49L10 48L9 48L9 49L8 49L8 51L9 51L9 52L8 52L8 57L9 57L9 56L10 56L10 55L11 55L11 56L12 56L12 57L13 57L13 56L14 56L14 57L15 57L15 56L14 56L14 54L13 54L13 53L14 53L14 51L12 51L12 50L11 50L11 49L12 49L12 48L13 48L13 49L14 49L14 48L15 48L15 49L16 49L16 48L17 48L17 49L19 49L19 50L18 50L18 51L17 51L17 53L16 53L16 51L15 51L15 53L16 53L16 54L15 54L15 55L16 55L16 56L17 56L17 57L19 57L19 55L20 55L20 54L19 54L19 53L20 53L20 52L21 52L21 53L22 53L22 55L23 55L23 56L24 56L24 57L26 57L26 56L27 56L27 57L29 57L29 56L30 56L30 57L31 57L31 56L35 56L35 57L39 57L39 56L37 56L37 54L38 54L38 55L40 55L40 56L41 56L41 57L44 57L44 56L41 56L41 55L44 55L44 54L45 54L45 55L46 55L46 54L45 54L45 53L47 53L47 50L48 50L48 54L47 54L47 55L48 55L48 56L50 56L50 57L52 57L52 55L51 55L51 53L52 53L52 54L53 54L53 55L54 55L54 56L53 56L53 57L54 57L54 56L55 56L55 57L56 57L56 56L55 56L55 55L54 55L54 54L53 54L53 52L54 52L54 53L57 53L57 52L56 52L56 50L55 50L55 48L56 48L56 49L57 49L57 48L56 48L56 46L57 46L57 43L56 43L56 41L53 41L53 40L55 40L55 39L57 39L57 37L56 37L56 36L55 36L55 35L56 35L56 33L57 33L57 32L56 32L56 30L57 30L57 29L56 29L56 28L57 28L57 27L56 27L56 26L57 26L57 25L56 25L56 22L57 22L57 19L56 19L56 16L57 16L57 15L56 15L56 14L57 14L57 12L56 12L56 14L54 14L54 15L53 15L53 13L54 13L54 12L55 12L55 11L56 11L56 8L55 8L55 10L54 10L54 11L53 11L53 9L54 9L54 8L53 8L53 9L52 9L52 8L51 8L51 9L52 9L52 11L50 11L50 12L49 12L49 13L47 13L47 14L45 14L45 13L44 13L44 11L45 11L45 12L47 12L47 10L50 10L50 8L48 8L48 9L47 9L47 5L48 5L48 0L46 0L46 1L45 1L45 2L44 2L44 3L41 3L41 2L43 2L43 0L41 0L41 1L40 1L40 0L39 0L39 1L38 1L38 0L37 0L37 1L38 1L38 3L41 3L41 4L40 4L40 5L39 5L39 6L38 6L38 9L37 9L37 8L35 8L35 5L36 5L36 7L37 7L37 5L38 5L38 4L37 4L37 3L36 3L36 0L35 0L35 1L32 1L32 3L31 3L31 0L29 0L29 1L25 1L25 0L23 0L23 2L22 2L22 3L23 3L23 4L19 4L19 1L20 1L20 2L21 2L21 1L22 1L22 0L21 0L21 1L20 1L20 0ZM29 1L29 2L30 2L30 1ZM46 1L46 2L47 2L47 1ZM14 2L14 4L12 4L12 5L11 5L11 7L10 7L10 5L9 5L9 7L10 7L10 8L9 8L9 9L10 9L10 10L8 10L8 12L10 12L10 10L12 10L12 9L13 9L13 10L15 10L15 11L18 11L18 9L16 9L16 8L17 8L17 7L18 7L18 6L19 6L19 7L20 7L20 5L19 5L19 4L17 4L17 3L15 3L15 2ZM23 2L23 3L26 3L26 4L25 4L25 8L24 8L24 6L23 6L23 8L19 8L19 9L20 9L20 10L19 10L19 12L20 12L20 14L21 14L21 13L22 13L22 14L23 14L23 13L22 13L22 12L20 12L20 10L21 10L21 11L22 11L22 10L23 10L23 12L25 12L25 14L24 14L24 15L19 15L19 14L18 14L18 15L17 15L17 13L18 13L18 12L17 12L17 13L16 13L16 12L15 12L15 13L13 13L13 12L14 12L14 11L13 11L13 12L12 12L12 11L11 11L11 12L12 12L12 14L10 14L10 13L9 13L9 14L10 14L10 15L12 15L12 17L11 17L11 18L7 18L7 17L8 17L8 16L9 16L9 17L10 17L10 16L9 16L9 15L8 15L8 16L7 16L7 15L6 15L6 16L5 16L5 17L6 17L6 18L7 18L7 19L9 19L9 20L7 20L7 21L5 21L5 22L4 22L4 24L5 24L5 25L4 25L4 26L7 26L7 25L6 25L6 24L7 24L7 23L8 23L8 25L9 25L9 29L10 29L10 30L11 30L11 31L13 31L13 30L14 30L14 31L15 31L15 29L16 29L16 30L18 30L18 31L17 31L17 32L14 32L14 33L13 33L13 35L12 35L12 34L11 34L11 36L9 36L9 37L6 37L6 36L7 36L7 35L5 35L5 37L6 37L6 38L10 38L10 37L12 37L12 38L11 38L11 39L10 39L10 40L9 40L9 41L10 41L10 42L8 42L8 39L5 39L5 40L7 40L7 41L5 41L5 43L6 43L6 44L7 44L7 43L6 43L6 42L8 42L8 43L11 43L11 44L13 44L13 45L14 45L14 47L13 47L13 48L14 48L14 47L15 47L15 46L17 46L17 47L18 47L18 48L20 48L20 51L21 51L21 52L22 52L22 53L24 53L24 54L23 54L23 55L24 55L24 56L25 56L25 53L24 53L24 52L26 52L26 48L30 48L30 47L29 47L29 46L31 46L31 45L32 45L32 46L35 46L35 47L32 47L32 49L31 49L31 50L36 50L36 52L37 52L37 53L38 53L38 54L40 54L40 53L41 53L41 52L40 52L40 51L39 51L39 53L38 53L38 52L37 52L37 51L38 51L38 50L41 50L41 51L42 51L42 52L43 52L43 51L45 51L45 52L44 52L44 53L43 53L43 54L44 54L44 53L45 53L45 52L46 52L46 50L47 50L47 49L48 49L48 48L51 48L51 47L52 47L52 48L53 48L53 47L54 47L54 46L56 46L56 43L55 43L55 44L54 44L54 46L53 46L53 45L52 45L52 44L53 44L53 43L54 43L54 42L53 42L53 41L51 41L51 42L50 42L50 43L49 43L49 42L48 42L48 41L49 41L49 40L50 40L50 39L52 39L52 40L53 40L53 39L55 39L55 37L53 37L53 35L55 35L55 34L54 34L54 33L56 33L56 32L53 32L53 31L48 31L48 29L46 29L46 30L47 30L47 31L48 31L48 32L47 32L47 33L45 33L45 32L46 32L46 31L45 31L45 32L43 32L43 30L41 30L41 29L44 29L44 30L45 30L45 28L46 28L46 27L48 27L48 26L47 26L47 24L48 24L48 25L50 25L50 26L52 26L52 25L53 25L53 23L52 23L52 24L51 24L51 23L50 23L50 22L51 22L51 21L53 21L53 22L56 22L56 19L55 19L55 20L53 20L53 19L52 19L52 18L55 18L55 17L53 17L53 15L52 15L52 16L51 16L51 15L50 15L50 14L51 14L51 12L50 12L50 14L49 14L49 15L48 15L48 16L47 16L47 15L45 15L45 14L39 14L39 13L43 13L43 11L44 11L44 9L45 9L45 10L47 10L47 9L45 9L45 8L46 8L46 5L47 5L47 3L44 3L44 6L43 6L43 7L44 7L44 9L43 9L43 8L42 8L42 9L43 9L43 11L42 11L42 10L41 10L41 12L39 12L39 13L38 13L38 14L37 14L37 15L35 15L35 16L33 16L33 15L32 15L32 13L33 13L33 14L36 14L36 13L35 13L35 12L36 12L36 10L37 10L37 11L39 11L39 10L40 10L40 9L41 9L41 7L42 7L42 6L41 6L41 5L40 5L40 6L39 6L39 9L38 9L38 10L37 10L37 9L35 9L35 8L34 8L34 9L33 9L33 7L34 7L34 5L35 5L35 3L32 3L32 4L31 4L31 8L32 8L32 10L31 10L31 11L29 11L29 9L28 9L28 10L27 10L27 11L26 11L26 12L25 12L25 10L23 10L23 9L25 9L25 8L26 8L26 4L27 4L27 3L28 3L28 4L30 4L30 3L28 3L28 2ZM15 4L15 5L16 5L16 4ZM23 4L23 5L24 5L24 4ZM32 4L32 5L34 5L34 4ZM36 4L36 5L37 5L37 4ZM45 4L45 5L46 5L46 4ZM12 5L12 7L11 7L11 8L10 8L10 9L11 9L11 8L12 8L12 7L13 7L13 9L14 9L14 7L15 7L15 8L16 8L16 7L17 7L17 6L18 6L18 5L17 5L17 6L16 6L16 7L15 7L15 6L14 6L14 5ZM27 5L27 8L30 8L30 5ZM13 6L13 7L14 7L14 6ZM21 6L21 7L22 7L22 6ZM28 6L28 7L29 7L29 6ZM32 6L32 7L33 7L33 6ZM40 6L40 7L41 7L41 6ZM44 6L44 7L45 7L45 6ZM48 6L48 7L49 7L49 6ZM1 9L1 10L2 10L2 11L3 11L3 10L4 10L4 11L6 11L6 12L7 12L7 11L6 11L6 10L7 10L7 9L6 9L6 10L5 10L5 9L3 9L3 10L2 10L2 9ZM15 9L15 10L16 10L16 9ZM32 10L32 11L33 11L33 10ZM27 11L27 12L26 12L26 13L28 13L28 14L29 14L29 16L28 16L28 15L27 15L27 16L26 16L26 14L25 14L25 15L24 15L24 16L26 16L26 17L27 17L27 18L28 18L28 19L27 19L27 20L28 20L28 19L30 19L30 20L29 20L29 23L27 23L27 22L28 22L28 21L25 21L25 20L26 20L26 18L25 18L25 17L22 17L22 16L20 16L20 17L19 17L19 15L18 15L18 16L16 16L16 13L15 13L15 14L12 14L12 15L14 15L14 16L13 16L13 17L14 17L14 18L15 18L15 19L17 19L17 18L15 18L15 17L14 17L14 16L16 16L16 17L19 17L19 18L20 18L20 19L19 19L19 20L17 20L17 21L16 21L16 20L15 20L15 21L16 21L16 22L15 22L15 23L13 23L13 22L14 22L14 21L13 21L13 20L14 20L14 19L13 19L13 18L12 18L12 19L10 19L10 20L9 20L9 21L10 21L10 22L12 22L12 24L13 24L13 26L11 26L11 27L12 27L12 28L11 28L11 30L13 30L13 29L12 29L12 28L15 28L15 27L16 27L16 26L14 26L14 24L15 24L15 23L16 23L16 24L17 24L17 27L18 27L18 26L19 26L19 27L22 27L22 26L24 26L24 28L23 28L23 31L21 31L21 32L23 32L23 31L24 31L24 32L25 32L25 33L23 33L23 34L24 34L24 36L23 36L23 37L24 37L24 38L22 38L22 37L19 37L19 36L18 36L18 35L17 35L17 34L18 34L18 33L19 33L19 34L20 34L20 36L22 36L22 33L21 33L21 34L20 34L20 33L19 33L19 32L20 32L20 30L19 30L19 29L22 29L22 28L19 28L19 29L18 29L18 28L16 28L16 29L18 29L18 30L19 30L19 31L18 31L18 32L17 32L17 34L16 34L16 35L17 35L17 36L18 36L18 37L17 37L17 38L18 38L18 37L19 37L19 38L20 38L20 39L19 39L19 40L17 40L17 41L19 41L19 42L18 42L18 43L17 43L17 42L13 42L13 41L14 41L14 39L15 39L15 40L16 40L16 39L15 39L15 38L16 38L16 37L13 37L13 38L12 38L12 39L13 39L13 40L12 40L12 41L11 41L11 43L12 43L12 42L13 42L13 43L14 43L14 44L16 44L16 45L17 45L17 46L18 46L18 47L23 47L23 49L21 49L21 50L22 50L22 51L23 51L23 50L25 50L25 49L24 49L24 48L25 48L25 47L23 47L23 46L25 46L25 45L23 45L23 44L27 44L27 45L26 45L26 47L27 47L27 45L28 45L28 44L29 44L29 43L31 43L31 44L33 44L33 43L34 43L34 45L37 45L37 47L36 47L36 48L35 48L35 49L36 49L36 50L38 50L38 49L39 49L39 48L41 48L41 50L42 50L42 51L43 51L43 49L44 49L44 48L43 48L43 47L44 47L44 46L43 46L43 45L44 45L44 44L43 44L43 43L44 43L44 42L45 42L45 41L44 41L44 40L45 40L45 39L46 39L46 40L47 40L47 39L48 39L48 37L50 37L50 38L49 38L49 39L50 39L50 38L51 38L51 37L52 37L52 35L53 35L53 34L52 34L52 33L53 33L53 32L52 32L52 33L51 33L51 32L50 32L50 34L48 34L48 35L50 35L50 36L48 36L48 37L47 37L47 39L46 39L46 38L45 38L45 37L46 37L46 35L44 35L44 33L43 33L43 32L41 32L41 33L39 33L39 34L40 34L40 35L38 35L38 33L37 33L37 32L35 32L35 30L33 30L33 31L34 31L34 32L33 32L33 33L32 33L32 27L33 27L33 28L35 28L35 29L38 29L38 28L40 28L40 27L41 27L41 28L42 28L42 26L43 26L43 28L45 28L45 27L46 27L46 26L43 26L43 25L44 25L44 20L45 20L45 19L47 19L47 20L49 20L49 21L47 21L47 22L46 22L46 21L45 21L45 22L46 22L46 24L45 24L45 25L46 25L46 24L47 24L47 23L49 23L49 24L50 24L50 23L49 23L49 21L51 21L51 20L52 20L52 19L50 19L50 17L49 17L49 16L50 16L50 15L49 15L49 16L48 16L48 17L47 17L47 16L45 16L45 17L47 17L47 18L44 18L44 15L42 15L42 16L41 16L41 15L39 15L39 14L38 14L38 15L39 15L39 16L38 16L38 17L37 17L37 16L35 16L35 17L37 17L37 18L38 18L38 17L39 17L39 19L37 19L37 20L36 20L36 19L35 19L35 20L34 20L34 18L33 18L33 19L32 19L32 18L31 18L31 17L32 17L32 15L30 15L30 14L31 14L31 13L32 13L32 12L31 12L31 13L30 13L30 14L29 14L29 13L28 13L28 12L29 12L29 11ZM33 12L33 13L34 13L34 12ZM52 12L52 13L53 13L53 12ZM0 13L0 17L1 17L1 14L2 14L2 13ZM6 16L6 17L7 17L7 16ZM27 16L27 17L28 17L28 16ZM39 16L39 17L41 17L41 16ZM42 16L42 17L43 17L43 16ZM20 17L20 18L21 18L21 19L20 19L20 21L17 21L17 22L20 22L20 23L19 23L19 24L21 24L21 25L20 25L20 26L22 26L22 25L23 25L23 23L24 23L24 24L25 24L25 25L26 25L26 26L25 26L25 27L26 27L26 26L27 26L27 25L28 25L28 26L29 26L29 24L25 24L25 23L26 23L26 22L25 22L25 21L24 21L24 20L22 20L22 17ZM23 18L23 19L24 19L24 18ZM30 18L30 19L31 19L31 18ZM41 18L41 19L42 19L42 18ZM43 18L43 20L44 20L44 18ZM48 18L48 19L49 19L49 18ZM12 19L12 20L11 20L11 21L12 21L12 20L13 20L13 19ZM3 20L3 21L4 21L4 20ZM21 20L21 21L22 21L22 22L21 22L21 23L22 23L22 22L24 22L24 21L22 21L22 20ZM32 20L32 21L31 21L31 22L30 22L30 23L31 23L31 24L32 24L32 26L31 26L31 27L32 27L32 26L33 26L33 27L34 27L34 26L36 26L36 27L39 27L39 25L40 25L40 26L42 26L42 25L41 25L41 24L39 24L39 23L40 23L40 22L39 22L39 21L42 21L42 20L39 20L39 21L38 21L38 20L37 20L37 21L38 21L38 22L37 22L37 24L39 24L39 25L38 25L38 26L37 26L37 25L33 25L33 24L32 24L32 23L35 23L35 21L34 21L34 20ZM0 21L0 22L1 22L1 23L2 23L2 22L1 22L1 21ZM7 21L7 22L5 22L5 24L6 24L6 23L7 23L7 22L8 22L8 21ZM38 22L38 23L39 23L39 22ZM10 23L10 24L9 24L9 25L11 25L11 23ZM17 23L17 24L18 24L18 23ZM42 23L42 24L43 24L43 23ZM54 24L54 25L55 25L55 26L56 26L56 25L55 25L55 24ZM13 26L13 27L14 27L14 26ZM53 26L53 27L54 27L54 26ZM1 27L1 28L2 28L2 27ZM3 27L3 28L4 28L4 27ZM5 27L5 30L8 30L8 27ZM27 27L27 30L30 30L30 27ZM49 27L49 30L52 30L52 27ZM55 27L55 28L54 28L54 29L55 29L55 28L56 28L56 27ZM6 28L6 29L7 29L7 28ZM25 28L25 29L26 29L26 28ZM28 28L28 29L29 29L29 28ZM50 28L50 29L51 29L51 28ZM1 29L1 30L2 30L2 29ZM3 29L3 31L4 31L4 29ZM38 30L38 32L39 32L39 30ZM40 30L40 31L41 31L41 30ZM25 31L25 32L26 32L26 33L25 33L25 34L26 34L26 35L27 35L27 37L28 37L28 38L27 38L27 39L26 39L26 36L25 36L25 40L24 40L24 39L21 39L21 41L20 41L20 40L19 40L19 41L20 41L20 42L19 42L19 43L20 43L20 46L21 46L21 45L22 45L22 46L23 46L23 45L22 45L22 44L21 44L21 43L22 43L22 42L24 42L24 41L25 41L25 43L27 43L27 44L28 44L28 42L29 42L29 40L32 40L32 41L30 41L30 42L32 42L32 43L33 43L33 42L34 42L34 43L37 43L37 42L35 42L35 40L38 40L38 42L39 42L39 41L43 41L43 42L44 42L44 41L43 41L43 40L44 40L44 39L45 39L45 38L44 38L44 37L45 37L45 36L44 36L44 35L43 35L43 34L42 34L42 35L41 35L41 36L40 36L40 37L39 37L39 36L38 36L38 38L37 38L37 39L35 39L35 40L33 40L33 39L29 39L29 38L31 38L31 37L29 37L29 36L30 36L30 34L29 34L29 33L31 33L31 31L30 31L30 32L29 32L29 33L28 33L28 32L26 32L26 31ZM9 32L9 33L10 33L10 32ZM48 32L48 33L49 33L49 32ZM33 33L33 34L31 34L31 35L33 35L33 34L34 34L34 35L35 35L35 36L32 36L32 37L33 37L33 38L35 38L35 36L37 36L37 34L35 34L35 33ZM2 34L2 36L3 36L3 35L4 35L4 34ZM8 34L8 35L10 35L10 34ZM50 34L50 35L52 35L52 34ZM42 35L42 36L43 36L43 37L40 37L40 38L43 38L43 37L44 37L44 36L43 36L43 35ZM50 36L50 37L51 37L51 36ZM13 38L13 39L14 39L14 38ZM52 38L52 39L53 39L53 38ZM27 39L27 41L26 41L26 42L27 42L27 41L28 41L28 39ZM38 39L38 40L41 40L41 39ZM42 39L42 40L43 40L43 39ZM2 40L2 42L4 42L4 40ZM23 40L23 41L24 41L24 40ZM21 41L21 42L22 42L22 41ZM32 41L32 42L33 42L33 41ZM47 42L47 43L46 43L46 44L45 44L45 45L47 45L47 46L45 46L45 48L46 48L46 47L47 47L47 48L48 48L48 47L50 47L50 46L51 46L51 43L53 43L53 42L51 42L51 43L50 43L50 46L48 46L48 45L47 45L47 43L48 43L48 42ZM41 43L41 44L39 44L39 45L38 45L38 46L39 46L39 45L41 45L41 44L42 44L42 43ZM9 44L9 45L10 45L10 44ZM17 44L17 45L18 45L18 44ZM1 46L1 47L2 47L2 46ZM41 46L41 48L42 48L42 49L43 49L43 48L42 48L42 47L43 47L43 46ZM38 47L38 48L37 48L37 49L38 49L38 48L39 48L39 47ZM6 48L6 49L7 49L7 48ZM9 49L9 50L10 50L10 49ZM27 49L27 52L30 52L30 49ZM45 49L45 50L46 50L46 49ZM49 49L49 52L52 52L52 49ZM28 50L28 51L29 51L29 50ZM50 50L50 51L51 51L51 50ZM54 50L54 51L55 51L55 50ZM10 51L10 52L12 52L12 51ZM31 51L31 53L30 53L30 54L27 54L27 53L26 53L26 55L27 55L27 56L29 56L29 55L30 55L30 56L31 56L31 54L32 54L32 53L33 53L33 54L34 54L34 55L35 55L35 56L36 56L36 54L35 54L35 52L34 52L34 51L33 51L33 52L32 52L32 51ZM9 53L9 55L10 55L10 54L11 54L11 55L12 55L12 53ZM17 54L17 55L19 55L19 54ZM50 55L50 56L51 56L51 55ZM45 56L45 57L46 57L46 56ZM0 0L0 7L7 7L7 0ZM1 1L1 6L6 6L6 1ZM2 2L2 5L5 5L5 2ZM50 0L50 7L57 7L57 0ZM51 1L51 6L56 6L56 1ZM52 2L52 5L55 5L55 2ZM0 50L0 57L7 57L7 50ZM1 51L1 56L6 56L6 51ZM2 52L2 55L5 55L5 52Z" fill="#000000"/></g></g></svg>
