<?xml version="1.0" encoding="UTF-8"?>
<svg xmlns="http://www.w3.org/2000/svg" version="1.1" width="300" height="300" viewBox="0 0 300 300"><rect x="0" y="0" width="300" height="300" fill="#fefefe"/><g transform="scale(4.615)"><g transform="translate(4,4)"><path fill-rule="evenodd" d="M11 0L11 1L10 1L10 2L9 2L9 1L8 1L8 2L9 2L9 3L8 3L8 4L9 4L9 5L8 5L8 7L9 7L9 5L10 5L10 7L11 7L11 8L12 8L12 9L11 9L11 10L10 10L10 9L9 9L9 8L6 8L6 9L7 9L7 10L6 10L6 11L7 11L7 10L10 10L10 11L8 11L8 12L5 12L5 11L4 11L4 10L5 10L5 8L0 8L0 12L2 12L2 11L4 11L4 12L3 12L3 14L2 14L2 13L1 13L1 14L0 14L0 17L1 17L1 16L2 16L2 17L3 17L3 18L0 18L0 22L1 22L1 23L2 23L2 24L1 24L1 26L0 26L0 31L1 31L1 33L0 33L0 36L1 36L1 37L3 37L3 39L4 39L4 38L5 38L5 39L7 39L7 40L6 40L6 41L7 41L7 42L4 42L4 43L3 43L3 41L2 41L2 42L0 42L0 43L1 43L1 44L0 44L0 45L4 45L4 46L5 46L5 47L3 47L3 46L2 46L2 47L1 47L1 46L0 46L0 48L5 48L5 47L7 47L7 48L6 48L6 49L8 49L8 51L9 51L9 50L10 50L10 49L8 49L8 48L9 48L9 45L10 45L10 46L11 46L11 47L10 47L10 48L11 48L11 49L12 49L12 51L10 51L10 52L11 52L11 53L9 53L9 52L8 52L8 57L9 57L9 56L12 56L12 57L16 57L16 56L17 56L17 57L20 57L20 56L19 56L19 55L20 55L20 54L19 54L19 53L20 53L20 52L21 52L21 53L22 53L22 54L21 54L21 56L23 56L23 57L26 57L26 56L27 56L27 57L29 57L29 56L30 56L30 57L31 57L31 56L35 56L35 57L39 57L39 56L40 56L40 55L41 55L41 57L42 57L42 55L44 55L44 56L43 56L43 57L44 57L44 56L45 56L45 57L48 57L48 56L50 56L50 57L52 57L52 55L51 55L51 53L52 53L52 54L53 54L53 55L54 55L54 56L53 56L53 57L54 57L54 56L55 56L55 57L56 57L56 56L55 56L55 53L56 53L56 52L55 52L55 51L54 51L54 50L57 50L57 48L56 48L56 46L57 46L57 43L56 43L56 41L55 41L55 39L57 39L57 37L55 37L55 36L57 36L57 35L56 35L56 34L57 34L57 32L56 32L56 30L57 30L57 29L54 29L54 28L56 28L56 27L55 27L55 26L57 26L57 25L56 25L56 22L57 22L57 21L56 21L56 22L55 22L55 23L53 23L53 22L54 22L54 21L51 21L51 20L52 20L52 19L53 19L53 20L55 20L55 19L56 19L56 18L53 18L53 17L56 17L56 16L57 16L57 15L56 15L56 14L57 14L57 13L56 13L56 14L54 14L54 12L55 12L55 11L56 11L56 10L54 10L54 11L51 11L51 10L53 10L53 9L54 9L54 8L53 8L53 9L52 9L52 8L51 8L51 10L50 10L50 8L49 8L49 6L48 6L48 7L47 7L47 5L48 5L48 0L45 0L45 2L44 2L44 3L43 3L43 4L42 4L42 2L43 2L43 0L41 0L41 1L40 1L40 0L39 0L39 1L38 1L38 0L37 0L37 1L38 1L38 2L37 2L37 3L36 3L36 0L35 0L35 1L33 1L33 0L30 0L30 1L29 1L29 0L28 0L28 1L26 1L26 0L23 0L23 2L22 2L22 0L21 0L21 1L20 1L20 0L17 0L17 1L16 1L16 2L17 2L17 1L20 1L20 3L21 3L21 2L22 2L22 3L23 3L23 4L24 4L24 5L23 5L23 6L22 6L22 8L23 8L23 10L22 10L22 9L21 9L21 10L22 10L22 11L21 11L21 12L22 12L22 13L21 13L21 15L23 15L23 16L25 16L25 17L22 17L22 16L21 16L21 17L22 17L22 18L24 18L24 19L21 19L21 18L20 18L20 16L18 16L18 15L19 15L19 14L20 14L20 12L19 12L19 11L20 11L20 9L19 9L19 8L21 8L21 5L22 5L22 4L19 4L19 3L17 3L17 4L19 4L19 5L20 5L20 7L19 7L19 6L18 6L18 5L17 5L17 6L16 6L16 7L15 7L15 5L16 5L16 4L15 4L15 5L14 5L14 7L13 7L13 4L14 4L14 2L15 2L15 1L14 1L14 0ZM13 1L13 2L11 2L11 3L13 3L13 2L14 2L14 1ZM28 1L28 3L27 3L27 2L23 2L23 3L26 3L26 4L25 4L25 8L26 8L26 4L30 4L30 3L29 3L29 1ZM30 1L30 2L31 2L31 3L32 3L32 4L31 4L31 8L32 8L32 10L27 10L27 11L26 11L26 12L25 12L25 10L23 10L23 11L24 11L24 13L22 13L22 14L23 14L23 15L24 15L24 13L25 13L25 14L27 14L27 15L26 15L26 17L25 17L25 19L26 19L26 21L28 21L28 22L27 22L27 23L28 23L28 24L25 24L25 23L26 23L26 22L25 22L25 21L24 21L24 20L21 20L21 19L19 19L19 17L18 17L18 18L17 18L17 17L16 17L16 16L17 16L17 13L18 13L18 12L17 12L17 11L18 11L18 9L15 9L15 7L14 7L14 10L16 10L16 11L15 11L15 13L13 13L13 12L14 12L14 11L13 11L13 12L12 12L12 11L10 11L10 12L8 12L8 13L6 13L6 14L5 14L5 13L4 13L4 14L3 14L3 15L2 15L2 16L7 16L7 17L4 17L4 18L3 18L3 21L4 21L4 22L3 22L3 24L4 24L4 25L2 25L2 26L1 26L1 27L2 27L2 28L1 28L1 29L3 29L3 28L4 28L4 26L5 26L5 25L6 25L6 26L9 26L9 25L10 25L10 24L11 24L11 27L9 27L9 29L10 29L10 31L11 31L11 32L10 32L10 33L11 33L11 32L12 32L12 34L14 34L14 33L15 33L15 34L17 34L17 36L16 36L16 35L15 35L15 37L13 37L13 35L12 35L12 36L11 36L11 37L12 37L12 38L13 38L13 39L14 39L14 41L12 41L12 39L11 39L11 38L10 38L10 39L9 39L9 37L5 37L5 38L7 38L7 39L9 39L9 40L8 40L8 41L10 41L10 40L11 40L11 43L12 43L12 44L13 44L13 43L14 43L14 46L15 46L15 47L14 47L14 48L13 48L13 50L14 50L14 52L13 52L13 51L12 51L12 52L13 52L13 53L12 53L12 56L16 56L16 55L14 55L14 54L16 54L16 53L17 53L17 52L18 52L18 50L19 50L19 49L20 49L20 50L21 50L21 49L23 49L23 48L24 48L24 49L25 49L25 50L23 50L23 51L21 51L21 52L22 52L22 53L24 53L24 54L23 54L23 55L24 55L24 56L26 56L26 54L27 54L27 56L29 56L29 55L30 55L30 56L31 56L31 54L32 54L32 53L33 53L33 54L34 54L34 55L35 55L35 56L36 56L36 54L35 54L35 53L34 53L34 52L35 52L35 51L34 51L34 50L36 50L36 52L38 52L38 53L37 53L37 54L40 54L40 53L43 53L43 54L44 54L44 55L47 55L47 54L48 54L48 50L47 50L47 49L48 49L48 48L49 48L49 47L48 47L48 48L47 48L47 47L45 47L45 46L47 46L47 45L48 45L48 44L49 44L49 45L50 45L50 47L51 47L51 48L53 48L53 49L56 49L56 48L53 48L53 47L54 47L54 45L55 45L55 46L56 46L56 43L55 43L55 44L54 44L54 45L53 45L53 43L54 43L54 42L53 42L53 41L54 41L54 40L53 40L53 39L54 39L54 38L53 38L53 35L55 35L55 34L54 34L54 33L56 33L56 32L54 32L54 31L55 31L55 30L54 30L54 29L53 29L53 30L54 30L54 31L52 31L52 32L51 32L51 33L52 33L52 34L50 34L50 32L49 32L49 31L48 31L48 29L46 29L46 30L47 30L47 31L48 31L48 32L47 32L47 33L46 33L46 31L45 31L45 32L43 32L43 31L44 31L44 30L45 30L45 28L46 28L46 27L47 27L47 25L45 25L45 23L46 23L46 22L47 22L47 20L44 20L44 18L47 18L47 19L48 19L48 18L47 18L47 17L50 17L50 18L49 18L49 19L50 19L50 18L51 18L51 19L52 19L52 18L51 18L51 17L53 17L53 16L51 16L51 17L50 17L50 14L51 14L51 12L50 12L50 10L49 10L49 12L45 12L45 11L44 11L44 9L45 9L45 10L47 10L47 11L48 11L48 10L47 10L47 9L49 9L49 8L46 8L46 6L45 6L45 4L46 4L46 5L47 5L47 3L44 3L44 6L43 6L43 8L42 8L42 9L43 9L43 11L42 11L42 10L41 10L41 7L42 7L42 6L41 6L41 5L40 5L40 4L41 4L41 3L39 3L39 2L38 2L38 5L37 5L37 4L36 4L36 5L35 5L35 4L33 4L33 3L32 3L32 2L33 2L33 1ZM46 1L46 2L47 2L47 1ZM11 4L11 5L12 5L12 4ZM32 4L32 5L33 5L33 6L32 6L32 7L33 7L33 9L34 9L34 8L35 8L35 9L37 9L37 10L36 10L36 12L35 12L35 13L36 13L36 14L33 14L33 13L34 13L34 12L33 12L33 13L32 13L32 11L33 11L33 10L32 10L32 11L31 11L31 13L30 13L30 14L29 14L29 13L28 13L28 12L29 12L29 11L27 11L27 12L26 12L26 13L28 13L28 14L29 14L29 16L28 16L28 15L27 15L27 16L28 16L28 17L26 17L26 18L28 18L28 19L27 19L27 20L29 20L29 19L30 19L30 18L32 18L32 19L31 19L31 20L30 20L30 21L29 21L29 23L30 23L30 24L29 24L29 25L27 25L27 26L26 26L26 25L25 25L25 24L24 24L24 23L23 23L23 22L24 22L24 21L21 21L21 22L22 22L22 23L23 23L23 24L24 24L24 25L22 25L22 24L19 24L19 23L20 23L20 22L17 22L17 21L20 21L20 20L18 20L18 19L16 19L16 18L15 18L15 17L14 17L14 16L16 16L16 13L17 13L17 12L16 12L16 13L15 13L15 14L14 14L14 16L11 16L11 13L12 13L12 12L10 12L10 13L9 13L9 14L8 14L8 15L7 15L7 14L6 14L6 15L7 15L7 16L8 16L8 17L7 17L7 18L6 18L6 19L7 19L7 20L5 20L5 18L4 18L4 21L5 21L5 22L4 22L4 24L6 24L6 25L8 25L8 24L10 24L10 22L12 22L12 23L11 23L11 24L12 24L12 23L13 23L13 25L12 25L12 27L13 27L13 28L12 28L12 29L11 29L11 31L12 31L12 30L13 30L13 28L14 28L14 29L15 29L15 31L16 31L16 29L18 29L18 30L17 30L17 31L18 31L18 32L15 32L15 33L17 33L17 34L18 34L18 33L21 33L21 36L22 36L22 35L23 35L23 34L24 34L24 36L23 36L23 37L24 37L24 38L23 38L23 39L24 39L24 40L25 40L25 39L27 39L27 40L28 40L28 39L27 39L27 38L28 38L28 37L26 37L26 38L25 38L25 36L27 36L27 33L26 33L26 35L25 35L25 33L23 33L23 34L22 34L22 33L21 33L21 32L27 32L27 31L28 31L28 33L29 33L29 34L30 34L30 36L29 36L29 37L31 37L31 38L29 38L29 39L33 39L33 40L35 40L35 42L37 42L37 43L34 43L34 42L33 42L33 41L32 41L32 40L31 40L31 41L30 41L30 42L29 42L29 43L24 43L24 44L23 44L23 42L25 42L25 41L23 41L23 42L22 42L22 43L21 43L21 44L20 44L20 43L19 43L19 42L20 42L20 41L19 41L19 40L22 40L22 38L21 38L21 37L19 37L19 36L20 36L20 34L19 34L19 35L18 35L18 36L17 36L17 38L18 38L18 39L17 39L17 40L16 40L16 39L15 39L15 38L16 38L16 37L15 37L15 38L14 38L14 39L15 39L15 41L14 41L14 42L15 42L15 43L16 43L16 44L18 44L18 45L17 45L17 48L16 48L16 47L15 47L15 48L14 48L14 49L19 49L19 48L18 48L18 47L19 47L19 46L20 46L20 45L21 45L21 47L23 47L23 46L25 46L25 44L27 44L27 45L26 45L26 47L28 47L28 46L27 46L27 45L29 45L29 44L30 44L30 45L31 45L31 46L29 46L29 48L25 48L25 47L24 47L24 48L25 48L25 49L26 49L26 52L24 52L24 53L27 53L27 54L30 54L30 53L31 53L31 50L32 50L32 52L33 52L33 50L34 50L34 47L36 47L36 48L35 48L35 49L36 49L36 50L38 50L38 52L39 52L39 51L40 51L40 52L41 52L41 50L42 50L42 52L43 52L43 53L44 53L44 54L45 54L45 53L44 53L44 52L47 52L47 50L45 50L45 49L44 49L44 48L45 48L45 47L44 47L44 46L45 46L45 45L47 45L47 43L48 43L48 42L49 42L49 43L50 43L50 45L51 45L51 43L53 43L53 42L51 42L51 41L53 41L53 40L52 40L52 39L53 39L53 38L52 38L52 39L50 39L50 38L49 38L49 39L50 39L50 40L49 40L49 41L48 41L48 42L46 42L46 44L45 44L45 45L44 45L44 43L43 43L43 42L45 42L45 41L44 41L44 40L45 40L45 39L42 39L42 38L43 38L43 37L44 37L44 38L45 38L45 37L46 37L46 35L44 35L44 36L43 36L43 35L42 35L42 34L45 34L45 33L43 33L43 32L41 32L41 33L39 33L39 34L40 34L40 35L39 35L39 36L38 36L38 33L37 33L37 32L34 32L34 31L35 31L35 30L37 30L37 29L38 29L38 28L39 28L39 27L40 27L40 26L39 26L39 27L36 27L36 26L34 26L34 27L33 27L33 26L32 26L32 24L33 24L33 25L37 25L37 26L38 26L38 25L39 25L39 24L37 24L37 22L38 22L38 20L41 20L41 21L39 21L39 22L40 22L40 24L41 24L41 25L42 25L42 26L41 26L41 28L42 28L42 26L43 26L43 28L45 28L45 27L46 27L46 26L45 26L45 25L44 25L44 20L43 20L43 18L44 18L44 15L42 15L42 16L41 16L41 15L39 15L39 14L38 14L38 13L40 13L40 12L41 12L41 10L40 10L40 9L39 9L39 6L40 6L40 7L41 7L41 6L40 6L40 5L39 5L39 6L38 6L38 9L37 9L37 8L35 8L35 5L33 5L33 4ZM27 5L27 8L30 8L30 5ZM36 5L36 7L37 7L37 5ZM11 6L11 7L12 7L12 6ZM17 6L17 7L16 7L16 8L17 8L17 7L18 7L18 6ZM23 6L23 8L24 8L24 6ZM28 6L28 7L29 7L29 6ZM33 6L33 7L34 7L34 6ZM44 6L44 7L45 7L45 6ZM43 8L43 9L44 9L44 8ZM45 8L45 9L46 9L46 8ZM55 8L55 9L56 9L56 8ZM1 9L1 11L2 11L2 9ZM12 9L12 10L13 10L13 9ZM38 9L38 11L39 11L39 12L40 12L40 11L39 11L39 9ZM43 12L43 13L41 13L41 14L44 14L44 12ZM49 12L49 13L47 13L47 14L45 14L45 17L46 17L46 16L48 16L48 15L49 15L49 14L50 14L50 12ZM52 12L52 13L53 13L53 12ZM31 13L31 14L30 14L30 15L32 15L32 18L33 18L33 20L32 20L32 21L31 21L31 22L30 22L30 23L31 23L31 24L30 24L30 25L29 25L29 26L30 26L30 25L31 25L31 24L32 24L32 23L33 23L33 22L34 22L34 23L35 23L35 20L34 20L34 19L36 19L36 20L37 20L37 19L39 19L39 17L41 17L41 16L39 16L39 15L38 15L38 14L37 14L37 15L35 15L35 16L33 16L33 15L32 15L32 13ZM12 14L12 15L13 15L13 14ZM8 15L8 16L10 16L10 15ZM35 16L35 17L37 17L37 18L38 18L38 17L39 17L39 16L38 16L38 17L37 17L37 16ZM42 16L42 17L43 17L43 16ZM9 17L9 18L7 18L7 19L8 19L8 20L9 20L9 22L10 22L10 20L11 20L11 21L14 21L14 24L16 24L16 23L15 23L15 22L16 22L16 21L17 21L17 20L16 20L16 21L15 21L15 18L14 18L14 17L13 17L13 18L12 18L12 20L11 20L11 18L10 18L10 17ZM9 18L9 20L10 20L10 18ZM41 18L41 19L42 19L42 18ZM1 19L1 22L2 22L2 19ZM13 19L13 20L14 20L14 19ZM33 20L33 21L34 21L34 20ZM42 20L42 21L43 21L43 20ZM6 21L6 22L5 22L5 23L6 23L6 24L7 24L7 23L6 23L6 22L7 22L7 21ZM45 21L45 22L46 22L46 21ZM49 21L49 23L47 23L47 24L50 24L50 25L49 25L49 26L51 26L51 25L54 25L54 24L53 24L53 23L51 23L51 24L50 24L50 22L51 22L51 21ZM41 22L41 23L42 23L42 24L43 24L43 23L42 23L42 22ZM17 23L17 24L18 24L18 23ZM13 25L13 26L14 26L14 27L15 27L15 26L18 26L18 27L17 27L17 28L18 28L18 29L19 29L19 28L20 28L20 30L19 30L19 32L20 32L20 31L24 31L24 30L23 30L23 29L26 29L26 28L25 28L25 27L26 27L26 26L24 26L24 27L23 27L23 26L22 26L22 25L19 25L19 26L18 26L18 25ZM2 26L2 27L3 27L3 26ZM19 26L19 27L20 27L20 28L21 28L21 29L22 29L22 28L21 28L21 27L22 27L22 26L21 26L21 27L20 27L20 26ZM31 26L31 27L32 27L32 34L31 34L31 35L33 35L33 36L32 36L32 37L33 37L33 38L34 38L34 39L35 39L35 40L38 40L38 42L39 42L39 44L40 44L40 45L38 45L38 46L39 46L39 47L38 47L38 48L37 48L37 49L38 49L38 50L41 50L41 48L42 48L42 49L43 49L43 50L44 50L44 49L43 49L43 48L44 48L44 47L43 47L43 46L41 46L41 44L42 44L42 42L41 42L41 41L43 41L43 40L42 40L42 39L41 39L41 38L42 38L42 37L41 37L41 36L40 36L40 37L38 37L38 38L37 38L37 39L35 39L35 37L33 37L33 36L34 36L34 34L35 34L35 36L37 36L37 34L35 34L35 33L34 33L34 34L33 34L33 30L35 30L35 28L33 28L33 27L32 27L32 26ZM44 26L44 27L45 27L45 26ZM53 26L53 27L54 27L54 26ZM5 27L5 30L8 30L8 27ZM27 27L27 30L30 30L30 27ZM49 27L49 30L52 30L52 27ZM6 28L6 29L7 29L7 28ZM15 28L15 29L16 29L16 28ZM28 28L28 29L29 29L29 28ZM50 28L50 29L51 29L51 28ZM39 29L39 30L38 30L38 32L39 32L39 31L40 31L40 30L44 30L44 29ZM1 30L1 31L4 31L4 32L3 32L3 33L2 33L2 34L1 34L1 35L2 35L2 34L3 34L3 33L4 33L4 34L5 34L5 33L6 33L6 34L7 34L7 35L6 35L6 36L8 36L8 35L9 35L9 31L8 31L8 32L7 32L7 31L4 31L4 30ZM13 31L13 33L14 33L14 31ZM30 31L30 32L29 32L29 33L31 33L31 31ZM4 32L4 33L5 33L5 32ZM6 32L6 33L7 33L7 32ZM48 32L48 33L49 33L49 32ZM52 32L52 33L54 33L54 32ZM10 34L10 35L11 35L11 34ZM48 34L48 35L50 35L50 36L49 36L49 37L50 37L50 36L51 36L51 37L52 37L52 35L53 35L53 34L52 34L52 35L50 35L50 34ZM3 35L3 36L4 36L4 35ZM44 36L44 37L45 37L45 36ZM18 37L18 38L19 38L19 39L20 39L20 38L19 38L19 37ZM40 37L40 38L41 38L41 37ZM47 37L47 39L46 39L46 40L47 40L47 39L48 39L48 37ZM0 38L0 39L1 39L1 40L2 40L2 38ZM38 39L38 40L40 40L40 39ZM4 40L4 41L5 41L5 40ZM17 40L17 41L15 41L15 42L17 42L17 43L18 43L18 42L19 42L19 41L18 41L18 40ZM17 41L17 42L18 42L18 41ZM26 41L26 42L27 42L27 41ZM31 41L31 42L32 42L32 43L33 43L33 44L31 44L31 45L32 45L32 46L31 46L31 47L32 47L32 46L35 46L35 45L34 45L34 43L33 43L33 42L32 42L32 41ZM39 41L39 42L40 42L40 41ZM7 42L7 43L6 43L6 44L8 44L8 42ZM12 42L12 43L13 43L13 42ZM50 42L50 43L51 43L51 42ZM40 43L40 44L41 44L41 43ZM4 44L4 45L5 45L5 46L7 46L7 45L5 45L5 44ZM10 44L10 45L11 45L11 46L12 46L12 45L11 45L11 44ZM21 44L21 45L22 45L22 46L23 46L23 45L22 45L22 44ZM40 46L40 47L39 47L39 48L38 48L38 49L39 49L39 48L41 48L41 46ZM51 46L51 47L52 47L52 46ZM11 47L11 48L12 48L12 47ZM42 47L42 48L43 48L43 47ZM32 48L32 50L33 50L33 48ZM46 48L46 49L47 49L47 48ZM27 49L27 52L30 52L30 49ZM49 49L49 52L52 52L52 49ZM15 50L15 51L16 51L16 50ZM28 50L28 51L29 51L29 50ZM50 50L50 51L51 51L51 50ZM19 51L19 52L20 52L20 51ZM14 52L14 53L13 53L13 54L14 54L14 53L16 53L16 52ZM53 52L53 54L54 54L54 52ZM9 54L9 55L11 55L11 54ZM17 54L17 56L18 56L18 54ZM41 54L41 55L42 55L42 54ZM37 55L37 56L39 56L39 55ZM50 55L50 56L51 56L51 55ZM0 0L0 7L7 7L7 0ZM1 1L1 6L6 6L6 1ZM2 2L2 5L5 5L5 2ZM50 0L50 7L57 7L57 0ZM51 1L51 6L56 6L56 1ZM52 2L52 5L55 5L55 2ZM0 50L0 57L7 57L7 50ZM1 51L1 56L6 56L6 51ZM2 52L2 55L5 55L5 52Z" fill="#000000"/></g></g></svg>
