<?xml version="1.0" encoding="UTF-8"?>
<svg xmlns="http://www.w3.org/2000/svg" version="1.1" width="300" height="300" viewBox="0 0 300 300"><rect x="0" y="0" width="300" height="300" fill="#fefefe"/><g transform="scale(4.615)"><g transform="translate(4,4)"><path fill-rule="evenodd" d="M9 0L9 1L8 1L8 2L9 2L9 3L8 3L8 4L9 4L9 5L8 5L8 7L9 7L9 8L6 8L6 9L5 9L5 8L0 8L0 10L1 10L1 13L0 13L0 16L1 16L1 17L2 17L2 16L3 16L3 15L2 15L2 14L1 14L1 13L2 13L2 10L3 10L3 9L4 9L4 11L3 11L3 14L4 14L4 15L5 15L5 16L4 16L4 17L3 17L3 18L4 18L4 19L5 19L5 18L6 18L6 19L7 19L7 20L5 20L5 21L4 21L4 20L3 20L3 22L1 22L1 23L2 23L2 24L1 24L1 25L0 25L0 38L1 38L1 35L2 35L2 36L6 36L6 37L7 37L7 38L6 38L6 39L7 39L7 40L5 40L5 37L3 37L3 38L4 38L4 41L2 41L2 39L1 39L1 40L0 40L0 41L1 41L1 42L0 42L0 48L5 48L5 47L7 47L7 48L6 48L6 49L7 49L7 48L8 48L8 51L9 51L9 52L8 52L8 57L10 57L10 56L11 56L11 57L12 57L12 56L13 56L13 57L15 57L15 55L16 55L16 56L17 56L17 57L20 57L20 56L19 56L19 55L20 55L20 54L19 54L19 53L20 53L20 52L21 52L21 53L22 53L22 56L24 56L24 55L23 55L23 54L24 54L24 53L27 53L27 54L26 54L26 56L25 56L25 57L26 57L26 56L27 56L27 57L29 57L29 56L30 56L30 57L31 57L31 56L35 56L35 57L39 57L39 56L37 56L37 55L41 55L41 54L42 54L42 55L44 55L44 54L45 54L45 53L44 53L44 52L45 52L45 51L43 51L43 49L44 49L44 50L46 50L46 52L47 52L47 50L48 50L48 54L47 54L47 55L45 55L45 57L47 57L47 55L49 55L49 56L50 56L50 57L52 57L52 55L51 55L51 53L52 53L52 54L53 54L53 55L54 55L54 56L53 56L53 57L54 57L54 56L55 56L55 57L56 57L56 56L55 56L55 53L57 53L57 51L56 51L56 50L55 50L55 48L56 48L56 49L57 49L57 48L56 48L56 46L57 46L57 45L56 45L56 44L57 44L57 43L56 43L56 41L55 41L55 39L57 39L57 37L56 37L56 36L57 36L57 35L56 35L56 34L55 34L55 32L56 32L56 33L57 33L57 32L56 32L56 30L57 30L57 29L56 29L56 28L57 28L57 27L56 27L56 26L57 26L57 25L56 25L56 22L57 22L57 21L56 21L56 18L57 18L57 17L56 17L56 16L57 16L57 15L56 15L56 14L57 14L57 12L56 12L56 14L54 14L54 15L53 15L53 13L54 13L54 12L55 12L55 11L56 11L56 8L55 8L55 10L54 10L54 11L52 11L52 10L53 10L53 9L54 9L54 8L53 8L53 9L52 9L52 8L51 8L51 9L52 9L52 10L49 10L49 9L50 9L50 8L49 8L49 6L48 6L48 7L47 7L47 5L48 5L48 0L45 0L45 2L44 2L44 3L41 3L41 2L43 2L43 0L41 0L41 1L40 1L40 0L39 0L39 1L38 1L38 0L37 0L37 1L38 1L38 2L39 2L39 3L41 3L41 4L40 4L40 5L39 5L39 6L38 6L38 9L37 9L37 8L35 8L35 5L36 5L36 7L37 7L37 5L38 5L38 4L37 4L37 3L36 3L36 0L35 0L35 1L33 1L33 0L32 0L32 1L33 1L33 2L32 2L32 3L31 3L31 2L30 2L30 1L31 1L31 0L30 0L30 1L29 1L29 3L30 3L30 4L26 4L26 3L23 3L23 2L28 2L28 1L26 1L26 0L23 0L23 2L22 2L22 0L21 0L21 1L20 1L20 0L18 0L18 1L16 1L16 2L17 2L17 4L19 4L19 5L20 5L20 7L19 7L19 6L18 6L18 7L19 7L19 8L16 8L16 7L17 7L17 6L16 6L16 7L15 7L15 5L16 5L16 4L15 4L15 5L11 5L11 4L9 4L9 3L12 3L12 2L13 2L13 4L14 4L14 2L15 2L15 1L14 1L14 2L13 2L13 0L12 0L12 2L10 2L10 0ZM46 1L46 2L47 2L47 1ZM21 2L21 3L19 3L19 4L23 4L23 5L24 5L24 4L23 4L23 3L22 3L22 2ZM32 3L32 4L31 4L31 8L32 8L32 10L29 10L29 12L28 12L28 13L26 13L26 12L27 12L27 11L26 11L26 12L25 12L25 11L23 11L23 12L24 12L24 13L22 13L22 12L21 12L21 11L22 11L22 10L23 10L23 8L24 8L24 9L25 9L25 8L26 8L26 4L25 4L25 8L24 8L24 6L23 6L23 8L20 8L20 10L19 10L19 13L20 13L20 14L17 14L17 13L18 13L18 12L17 12L17 11L18 11L18 10L17 10L17 9L15 9L15 7L14 7L14 6L13 6L13 7L12 7L12 6L11 6L11 5L10 5L10 6L9 6L9 7L10 7L10 6L11 6L11 8L10 8L10 9L8 9L8 10L7 10L7 9L6 9L6 10L5 10L5 11L4 11L4 12L5 12L5 11L6 11L6 12L10 12L10 14L8 14L8 13L4 13L4 14L7 14L7 15L6 15L6 16L5 16L5 17L4 17L4 18L5 18L5 17L6 17L6 18L7 18L7 19L8 19L8 20L9 20L9 19L8 19L8 18L11 18L11 17L12 17L12 15L10 15L10 14L15 14L15 13L16 13L16 17L15 17L15 16L14 16L14 15L13 15L13 16L14 16L14 18L12 18L12 19L11 19L11 20L13 20L13 21L11 21L11 25L12 25L12 24L14 24L14 25L15 25L15 26L13 26L13 27L15 27L15 29L14 29L14 30L15 30L15 29L16 29L16 31L15 31L15 32L14 32L14 31L13 31L13 30L12 30L12 29L13 29L13 28L11 28L11 29L10 29L10 30L11 30L11 31L9 31L9 33L8 33L8 32L7 32L7 31L6 31L6 32L7 32L7 33L5 33L5 32L4 32L4 33L3 33L3 30L4 30L4 28L3 28L3 29L1 29L1 31L2 31L2 33L3 33L3 34L2 34L2 35L6 35L6 36L9 36L9 33L10 33L10 36L11 36L11 38L10 38L10 39L9 39L9 40L8 40L8 41L4 41L4 42L9 42L9 43L6 43L6 44L5 44L5 43L4 43L4 44L3 44L3 47L5 47L5 46L4 46L4 45L6 45L6 46L8 46L8 47L9 47L9 46L11 46L11 47L10 47L10 48L9 48L9 49L10 49L10 53L9 53L9 56L10 56L10 53L11 53L11 55L12 55L12 54L13 54L13 55L15 55L15 54L16 54L16 53L17 53L17 52L19 52L19 51L18 51L18 50L20 50L20 51L21 51L21 52L22 52L22 53L24 53L24 52L26 52L26 49L25 49L25 48L30 48L30 47L29 47L29 45L27 45L27 44L28 44L28 43L29 43L29 44L31 44L31 45L30 45L30 46L31 46L31 45L32 45L32 47L33 47L33 48L32 48L32 49L31 49L31 53L30 53L30 54L27 54L27 56L29 56L29 55L30 55L30 56L31 56L31 54L32 54L32 53L33 53L33 55L35 55L35 56L36 56L36 54L35 54L35 52L34 52L34 51L35 51L35 50L36 50L36 52L38 52L38 54L40 54L40 53L41 53L41 52L43 52L43 51L42 51L42 50L41 50L41 48L42 48L42 49L43 49L43 48L44 48L44 49L45 49L45 48L46 48L46 50L47 50L47 49L48 49L48 48L49 48L49 47L48 47L48 48L47 48L47 47L45 47L45 46L48 46L48 45L49 45L49 46L50 46L50 48L52 48L52 47L54 47L54 46L56 46L56 45L55 45L55 44L54 44L54 45L52 45L52 44L53 44L53 43L54 43L54 42L53 42L53 41L54 41L54 40L53 40L53 39L54 39L54 38L53 38L53 35L55 35L55 34L54 34L54 33L52 33L52 32L51 32L51 31L48 31L48 29L46 29L46 30L47 30L47 31L46 31L46 32L47 32L47 33L45 33L45 32L43 32L43 30L40 30L40 31L39 31L39 32L38 32L38 30L39 30L39 29L43 29L43 27L45 27L45 28L44 28L44 29L45 29L45 28L46 28L46 27L47 27L47 28L48 28L48 26L47 26L47 25L48 25L48 24L50 24L50 26L51 26L51 25L54 25L54 24L51 24L51 23L50 23L50 22L51 22L51 21L53 21L53 23L55 23L55 22L56 22L56 21L55 21L55 20L53 20L53 19L52 19L52 18L55 18L55 17L53 17L53 16L52 16L52 15L50 15L50 14L51 14L51 12L50 12L50 11L49 11L49 10L48 10L48 9L49 9L49 8L48 8L48 9L47 9L47 8L45 8L45 7L46 7L46 6L45 6L45 4L46 4L46 5L47 5L47 3L44 3L44 6L43 6L43 5L40 5L40 6L39 6L39 9L38 9L38 11L39 11L39 12L40 12L40 13L38 13L38 14L37 14L37 13L35 13L35 11L36 11L36 10L37 10L37 9L35 9L35 8L34 8L34 9L33 9L33 7L34 7L34 5L35 5L35 3ZM32 4L32 5L33 5L33 4ZM36 4L36 5L37 5L37 4ZM27 5L27 8L30 8L30 5ZM21 6L21 7L22 7L22 6ZM28 6L28 7L29 7L29 6ZM32 6L32 7L33 7L33 6ZM40 6L40 7L41 7L41 8L42 8L42 9L41 9L41 10L44 10L44 11L43 11L43 13L41 13L41 14L44 14L44 15L42 15L42 16L41 16L41 15L40 15L40 14L38 14L38 15L39 15L39 16L38 16L38 17L37 17L37 16L35 16L35 14L32 14L32 12L31 12L31 13L30 13L30 14L29 14L29 13L28 13L28 14L29 14L29 16L28 16L28 15L27 15L27 14L26 14L26 13L24 13L24 14L22 14L22 13L21 13L21 12L20 12L20 13L21 13L21 15L20 15L20 16L21 16L21 17L22 17L22 18L21 18L21 19L19 19L19 20L17 20L17 21L16 21L16 20L15 20L15 21L16 21L16 22L15 22L15 23L14 23L14 21L13 21L13 22L12 22L12 23L14 23L14 24L15 24L15 23L16 23L16 24L17 24L17 25L18 25L18 26L17 26L17 27L18 27L18 26L19 26L19 27L20 27L20 29L18 29L18 28L16 28L16 29L18 29L18 30L17 30L17 31L18 31L18 32L16 32L16 33L17 33L17 34L16 34L16 35L15 35L15 34L13 34L13 33L12 33L12 32L11 32L11 33L12 33L12 35L11 35L11 36L12 36L12 37L13 37L13 40L12 40L12 38L11 38L11 40L12 40L12 41L13 41L13 42L12 42L12 43L13 43L13 44L14 44L14 43L15 43L15 44L18 44L18 45L17 45L17 46L18 46L18 47L17 47L17 48L15 48L15 49L21 49L21 51L22 51L22 52L23 52L23 51L22 51L22 50L25 50L25 49L24 49L24 47L23 47L23 46L25 46L25 44L27 44L27 43L25 43L25 41L23 41L23 42L22 42L22 41L21 41L21 42L22 42L22 43L21 43L21 44L20 44L20 43L19 43L19 42L20 42L20 40L21 40L21 37L19 37L19 36L20 36L20 33L21 33L21 34L22 34L22 33L21 33L21 32L23 32L23 31L24 31L24 30L25 30L25 31L26 31L26 33L27 33L27 32L28 32L28 33L29 33L29 34L30 34L30 36L29 36L29 37L31 37L31 38L29 38L29 39L33 39L33 40L35 40L35 42L37 42L37 43L34 43L34 42L33 42L33 41L32 41L32 40L31 40L31 41L30 41L30 40L28 40L28 39L27 39L27 38L28 38L28 37L27 37L27 36L26 36L26 35L27 35L27 34L26 34L26 35L25 35L25 33L23 33L23 34L24 34L24 36L23 36L23 37L24 37L24 38L22 38L22 39L24 39L24 40L25 40L25 39L26 39L26 40L27 40L27 41L26 41L26 42L27 42L27 41L30 41L30 42L29 42L29 43L31 43L31 44L33 44L33 43L34 43L34 45L35 45L35 46L33 46L33 47L35 47L35 46L37 46L37 47L36 47L36 48L35 48L35 49L36 49L36 50L38 50L38 52L39 52L39 51L40 51L40 52L41 52L41 50L38 50L38 49L39 49L39 48L41 48L41 46L43 46L43 47L42 47L42 48L43 48L43 47L44 47L44 48L45 48L45 47L44 47L44 46L43 46L43 45L44 45L44 44L45 44L45 45L47 45L47 43L48 43L48 42L49 42L49 43L50 43L50 44L49 44L49 45L50 45L50 46L51 46L51 45L50 45L50 44L51 44L51 43L53 43L53 42L51 42L51 41L53 41L53 40L52 40L52 39L53 39L53 38L51 38L51 39L50 39L50 37L52 37L52 35L53 35L53 34L52 34L52 33L51 33L51 32L50 32L50 34L48 34L48 35L50 35L50 37L49 37L49 36L48 36L48 37L47 37L47 39L46 39L46 38L45 38L45 37L44 37L44 36L45 36L45 35L46 35L46 36L47 36L47 34L45 34L45 33L43 33L43 32L41 32L41 33L39 33L39 34L40 34L40 35L39 35L39 37L40 37L40 38L41 38L41 39L42 39L42 38L43 38L43 37L44 37L44 38L45 38L45 39L43 39L43 40L45 40L45 41L47 41L47 39L49 39L49 41L48 41L48 42L45 42L45 43L44 43L44 44L43 44L43 42L44 42L44 41L41 41L41 43L40 43L40 44L39 44L39 42L40 42L40 41L39 41L39 42L38 42L38 40L40 40L40 39L38 39L38 37L37 37L37 36L38 36L38 33L37 33L37 32L35 32L35 34L37 34L37 36L35 36L35 35L32 35L32 34L31 34L31 33L32 33L32 30L31 30L31 29L32 29L32 28L31 28L31 26L32 26L32 27L33 27L33 28L36 28L36 29L35 29L35 30L33 30L33 31L35 31L35 30L37 30L37 29L38 29L38 28L39 28L39 27L37 27L37 28L36 28L36 26L34 26L34 27L33 27L33 26L32 26L32 24L33 24L33 25L37 25L37 26L38 26L38 25L40 25L40 24L42 24L42 25L41 25L41 26L40 26L40 27L41 27L41 28L42 28L42 27L41 27L41 26L45 26L45 27L46 27L46 26L45 26L45 25L44 25L44 20L45 20L45 21L47 21L47 22L45 22L45 24L48 24L48 22L49 22L49 21L51 21L51 20L52 20L52 19L50 19L50 17L52 17L52 16L50 16L50 17L49 17L49 16L48 16L48 15L49 15L49 14L50 14L50 12L49 12L49 11L48 11L48 10L46 10L46 11L45 11L45 10L44 10L44 7L45 7L45 6L44 6L44 7L43 7L43 6L42 6L42 7L41 7L41 6ZM13 7L13 8L11 8L11 10L12 10L12 9L14 9L14 7ZM1 9L1 10L2 10L2 9ZM39 9L39 11L40 11L40 12L41 12L41 11L40 11L40 9ZM6 10L6 11L7 11L7 10ZM8 10L8 11L10 11L10 12L11 12L11 13L15 13L15 12L16 12L16 13L17 13L17 12L16 12L16 11L17 11L17 10L13 10L13 11L12 11L12 12L11 12L11 11L10 11L10 10ZM32 10L32 11L33 11L33 10ZM13 11L13 12L14 12L14 11ZM44 11L44 14L47 14L47 13L49 13L49 12L45 12L45 11ZM33 12L33 13L34 13L34 12ZM52 12L52 13L53 13L53 12ZM24 14L24 15L21 15L21 16L22 16L22 17L25 17L25 18L26 18L26 20L25 20L25 21L24 21L24 20L23 20L23 19L24 19L24 18L23 18L23 19L22 19L22 20L20 20L20 21L19 21L19 22L20 22L20 23L19 23L19 24L21 24L21 25L19 25L19 26L20 26L20 27L21 27L21 28L22 28L22 29L20 29L20 30L18 30L18 31L19 31L19 33L20 33L20 31L23 31L23 26L22 26L22 27L21 27L21 25L23 25L23 24L21 24L21 23L24 23L24 24L25 24L25 25L26 25L26 26L25 26L25 27L24 27L24 28L25 28L25 29L26 29L26 28L25 28L25 27L26 27L26 26L28 26L28 25L29 25L29 24L30 24L30 25L31 25L31 24L32 24L32 23L35 23L35 21L33 21L33 20L32 20L32 21L31 21L31 22L29 22L29 20L31 20L31 18L30 18L30 19L28 19L28 18L26 18L26 16L27 16L27 17L28 17L28 16L27 16L27 15L26 15L26 16L24 16L24 15L25 15L25 14ZM30 14L30 15L31 15L31 14ZM36 14L36 15L37 15L37 14ZM8 15L8 16L6 16L6 17L8 17L8 16L9 16L9 17L11 17L11 16L9 16L9 15ZM18 15L18 16L17 16L17 17L19 17L19 18L20 18L20 17L19 17L19 15ZM44 15L44 18L43 18L43 19L42 19L42 18L41 18L41 20L39 20L39 21L38 21L38 22L37 22L37 24L40 24L40 22L39 22L39 21L43 21L43 20L44 20L44 18L45 18L45 19L46 19L46 18L47 18L47 19L48 19L48 18L47 18L47 15L46 15L46 16L45 16L45 15ZM31 16L31 17L32 17L32 19L33 19L33 18L35 18L35 19L36 19L36 20L37 20L37 19L39 19L39 17L41 17L41 16L39 16L39 17L38 17L38 18L37 18L37 17L35 17L35 16ZM42 16L42 17L43 17L43 16ZM45 17L45 18L46 18L46 17ZM0 18L0 19L2 19L2 18ZM15 18L15 19L16 19L16 18ZM17 18L17 19L18 19L18 18ZM13 19L13 20L14 20L14 19ZM6 21L6 22L7 22L7 23L4 23L4 22L3 22L3 23L4 23L4 24L7 24L7 25L5 25L5 26L7 26L7 25L8 25L8 24L7 24L7 23L9 23L9 24L10 24L10 23L9 23L9 21L8 21L8 22L7 22L7 21ZM23 21L23 22L24 22L24 21ZM25 21L25 22L26 22L26 23L25 23L25 24L27 24L27 21ZM28 22L28 23L29 23L29 22ZM17 23L17 24L18 24L18 23ZM42 23L42 24L43 24L43 23ZM2 25L2 26L1 26L1 27L2 27L2 26L3 26L3 27L4 27L4 26L3 26L3 25ZM55 25L55 26L56 26L56 25ZM11 26L11 27L12 27L12 26ZM15 26L15 27L16 27L16 26ZM53 26L53 27L54 27L54 26ZM5 27L5 30L8 30L8 27ZM27 27L27 30L30 30L30 27ZM49 27L49 30L52 30L52 27ZM55 27L55 28L54 28L54 29L55 29L55 28L56 28L56 27ZM6 28L6 29L7 29L7 28ZM28 28L28 29L29 29L29 28ZM50 28L50 29L51 29L51 28ZM44 30L44 31L45 31L45 30ZM53 30L53 31L55 31L55 30ZM30 31L30 32L29 32L29 33L31 33L31 31ZM47 31L47 32L48 32L48 33L49 33L49 32L48 32L48 31ZM33 32L33 33L34 33L34 32ZM4 33L4 34L5 34L5 33ZM6 34L6 35L8 35L8 34ZM17 34L17 35L19 35L19 34ZM42 34L42 35L43 35L43 36L44 36L44 35L45 35L45 34ZM50 34L50 35L52 35L52 34ZM13 35L13 36L14 36L14 37L16 37L16 38L14 38L14 40L13 40L13 41L14 41L14 40L15 40L15 43L18 43L18 42L19 42L19 41L18 41L18 40L17 40L17 36L15 36L15 35ZM21 35L21 36L22 36L22 35ZM25 36L25 38L26 38L26 36ZM32 36L32 37L33 37L33 38L35 38L35 36ZM40 36L40 37L41 37L41 36ZM18 37L18 38L19 38L19 39L20 39L20 38L19 38L19 37ZM48 37L48 38L49 38L49 37ZM7 38L7 39L8 39L8 38ZM15 39L15 40L16 40L16 39ZM35 39L35 40L38 40L38 39ZM45 39L45 40L46 40L46 39ZM9 40L9 41L10 41L10 43L9 43L9 44L6 44L6 45L10 45L10 44L11 44L11 41L10 41L10 40ZM17 41L17 42L18 42L18 41ZM31 41L31 42L32 42L32 43L33 43L33 42L32 42L32 41ZM1 42L1 44L2 44L2 42ZM13 42L13 43L14 43L14 42ZM23 42L23 43L24 43L24 44L23 44L23 45L22 45L22 44L21 44L21 45L20 45L20 46L19 46L19 48L21 48L21 49L23 49L23 47L20 47L20 46L21 46L21 45L22 45L22 46L23 46L23 45L24 45L24 44L25 44L25 43L24 43L24 42ZM50 42L50 43L51 43L51 42ZM41 43L41 44L40 44L40 45L38 45L38 46L39 46L39 47L38 47L38 48L37 48L37 49L38 49L38 48L39 48L39 47L40 47L40 46L41 46L41 44L42 44L42 43ZM45 43L45 44L46 44L46 43ZM1 45L1 47L2 47L2 45ZM13 45L13 46L12 46L12 47L11 47L11 48L10 48L10 49L11 49L11 50L13 50L13 51L11 51L11 53L12 53L12 52L13 52L13 54L15 54L15 53L16 53L16 51L17 51L17 50L16 50L16 51L15 51L15 53L14 53L14 52L13 52L13 51L14 51L14 50L13 50L13 49L14 49L14 46L15 46L15 45ZM26 45L26 47L27 47L27 45ZM53 48L53 49L54 49L54 48ZM27 49L27 52L30 52L30 49ZM32 49L32 50L33 50L33 49ZM49 49L49 52L52 52L52 49ZM28 50L28 51L29 51L29 50ZM50 50L50 51L51 51L51 50ZM54 50L54 51L55 51L55 52L56 52L56 51L55 51L55 50ZM32 51L32 52L33 52L33 51ZM53 52L53 54L54 54L54 52ZM43 53L43 54L44 54L44 53ZM17 54L17 56L18 56L18 54ZM50 55L50 56L51 56L51 55ZM41 56L41 57L44 57L44 56ZM0 0L0 7L7 7L7 0ZM1 1L1 6L6 6L6 1ZM2 2L2 5L5 5L5 2ZM50 0L50 7L57 7L57 0ZM51 1L51 6L56 6L56 1ZM52 2L52 5L55 5L55 2ZM0 50L0 57L7 57L7 50ZM1 51L1 56L6 56L6 51ZM2 52L2 55L5 55L5 52Z" fill="#000000"/></g></g></svg>
