<?xml version="1.0" encoding="UTF-8"?>
<svg xmlns="http://www.w3.org/2000/svg" version="1.1" width="300" height="300" viewBox="0 0 300 300"><rect x="0" y="0" width="300" height="300" fill="#fefefe"/><g transform="scale(4.615)"><g transform="translate(4,4)"><path fill-rule="evenodd" d="M8 0L8 1L10 1L10 2L8 2L8 5L9 5L9 6L8 6L8 7L9 7L9 8L8 8L8 9L9 9L9 10L8 10L8 11L7 11L7 10L6 10L6 11L7 11L7 12L6 12L6 13L7 13L7 14L6 14L6 15L7 15L7 16L6 16L6 17L8 17L8 18L9 18L9 17L10 17L10 16L11 16L11 17L12 17L12 18L13 18L13 17L15 17L15 19L12 19L12 20L10 20L10 19L11 19L11 18L10 18L10 19L9 19L9 20L6 20L6 19L7 19L7 18L5 18L5 17L3 17L3 16L4 16L4 13L3 13L3 11L5 11L5 10L1 10L1 12L0 12L0 14L1 14L1 15L0 15L0 18L3 18L3 19L4 19L4 18L5 18L5 20L6 20L6 21L10 21L10 22L5 22L5 21L4 21L4 20L2 20L2 19L0 19L0 21L1 21L1 20L2 20L2 21L4 21L4 22L3 22L3 23L2 23L2 22L1 22L1 23L0 23L0 24L1 24L1 25L2 25L2 26L1 26L1 27L0 27L0 30L2 30L2 31L0 31L0 32L1 32L1 33L0 33L0 34L1 34L1 33L3 33L3 35L2 35L2 36L0 36L0 37L1 37L1 38L0 38L0 39L2 39L2 40L3 40L3 38L4 38L4 36L3 36L3 35L4 35L4 34L5 34L5 35L7 35L7 36L5 36L5 39L4 39L4 41L3 41L3 43L2 43L2 41L1 41L1 42L0 42L0 45L2 45L2 44L3 44L3 45L4 45L4 46L5 46L5 47L3 47L3 46L2 46L2 47L1 47L1 46L0 46L0 48L5 48L5 47L7 47L7 48L6 48L6 49L7 49L7 48L8 48L8 47L9 47L9 46L8 46L8 45L7 45L7 44L11 44L11 45L10 45L10 46L11 46L11 48L9 48L9 49L8 49L8 50L9 50L9 51L10 51L10 52L9 52L9 53L8 53L8 57L9 57L9 55L10 55L10 57L11 57L11 55L14 55L14 56L13 56L13 57L14 57L14 56L15 56L15 57L18 57L18 55L20 55L20 56L19 56L19 57L24 57L24 56L25 56L25 55L26 55L26 56L28 56L28 55L26 55L26 54L27 54L27 53L29 53L29 54L31 54L31 55L30 55L30 56L31 56L31 57L32 57L32 55L33 55L33 54L36 54L36 55L34 55L34 56L33 56L33 57L36 57L36 55L37 55L37 54L36 54L36 53L35 53L35 52L36 52L36 51L38 51L38 52L39 52L39 54L38 54L38 57L41 57L41 55L42 55L42 57L43 57L43 55L44 55L44 56L45 56L45 55L46 55L46 56L48 56L48 57L51 57L51 54L52 54L52 53L54 53L54 54L56 54L56 53L57 53L57 52L56 52L56 51L55 51L55 50L53 50L53 48L54 48L54 49L55 49L55 48L54 48L54 47L52 47L52 46L51 46L51 45L52 45L52 43L53 43L53 42L54 42L54 43L55 43L55 44L53 44L53 46L54 46L54 45L55 45L55 44L56 44L56 41L57 41L57 40L56 40L56 41L55 41L55 42L54 42L54 40L55 40L55 38L56 38L56 39L57 39L57 38L56 38L56 37L57 37L57 36L56 36L56 35L57 35L57 34L55 34L55 33L57 33L57 31L56 31L56 30L57 30L57 29L56 29L56 30L55 30L55 32L54 32L54 34L52 34L52 32L53 32L53 31L54 31L54 29L55 29L55 27L53 27L53 26L51 26L51 25L49 25L49 26L46 26L46 25L47 25L47 24L54 24L54 25L56 25L56 24L54 24L54 23L57 23L57 21L56 21L56 20L54 20L54 21L56 21L56 22L53 22L53 20L50 20L50 19L56 19L56 17L57 17L57 15L51 15L51 13L52 13L52 14L55 14L55 13L57 13L57 12L56 12L56 11L57 11L57 10L56 10L56 9L57 9L57 8L56 8L56 9L55 9L55 8L52 8L52 10L50 10L50 8L49 8L49 9L48 9L48 8L46 8L46 7L47 7L47 5L48 5L48 0L46 0L46 1L44 1L44 2L41 2L41 1L43 1L43 0L41 0L41 1L40 1L40 0L39 0L39 1L40 1L40 2L41 2L41 4L37 4L37 3L39 3L39 2L37 2L37 1L38 1L38 0L37 0L37 1L36 1L36 0L35 0L35 1L34 1L34 2L35 2L35 4L36 4L36 5L40 5L40 7L41 7L41 4L43 4L43 5L45 5L45 4L44 4L44 3L45 3L45 2L46 2L46 3L47 3L47 5L46 5L46 7L45 7L45 6L44 6L44 7L43 7L43 6L42 6L42 7L43 7L43 8L38 8L38 7L39 7L39 6L38 6L38 7L37 7L37 6L36 6L36 7L35 7L35 6L34 6L34 4L33 4L33 6L32 6L32 5L31 5L31 4L32 4L32 3L33 3L33 1L31 1L31 0L27 0L27 3L29 3L29 2L28 2L28 1L31 1L31 2L30 2L30 3L31 3L31 4L26 4L26 2L24 2L24 3L23 3L23 4L22 4L22 5L23 5L23 6L22 6L22 8L21 8L21 10L20 10L20 7L21 7L21 5L20 5L20 4L19 4L19 3L20 3L20 2L21 2L21 1L22 1L22 2L23 2L23 1L26 1L26 0L23 0L23 1L22 1L22 0L21 0L21 1L19 1L19 3L17 3L17 4L19 4L19 5L15 5L15 4L14 4L14 3L13 3L13 2L12 2L12 1L10 1L10 0ZM13 0L13 1L14 1L14 0ZM17 0L17 1L16 1L16 2L15 2L15 3L16 3L16 2L17 2L17 1L18 1L18 0ZM35 1L35 2L36 2L36 1ZM46 1L46 2L47 2L47 1ZM10 2L10 3L9 3L9 4L10 4L10 3L11 3L11 2ZM12 4L12 5L10 5L10 6L9 6L9 7L10 7L10 8L11 8L11 10L12 10L12 11L13 11L13 10L14 10L14 11L15 11L15 10L17 10L17 9L18 9L18 12L17 12L17 13L16 13L16 12L15 12L15 15L16 15L16 16L15 16L15 17L19 17L19 19L18 19L18 21L17 21L17 22L18 22L18 23L16 23L16 19L17 19L17 18L16 18L16 19L15 19L15 20L14 20L14 22L15 22L15 23L16 23L16 24L18 24L18 23L19 23L19 22L22 22L22 23L23 23L23 22L22 22L22 21L21 21L21 20L20 20L20 18L21 18L21 19L23 19L23 21L24 21L24 22L25 22L25 25L24 25L24 24L22 24L22 25L23 25L23 26L25 26L25 25L28 25L28 26L29 26L29 24L28 24L28 23L30 23L30 20L31 20L31 23L32 23L32 22L34 22L34 23L33 23L33 24L32 24L32 25L33 25L33 24L35 24L35 23L36 23L36 24L37 24L37 22L35 22L35 20L36 20L36 21L38 21L38 22L39 22L39 20L40 20L40 19L39 19L39 18L41 18L41 21L44 21L44 22L45 22L45 19L46 19L46 20L47 20L47 21L46 21L46 22L47 22L47 21L49 21L49 23L52 23L52 22L51 22L51 21L50 21L50 20L49 20L49 19L50 19L50 18L51 18L51 16L50 16L50 15L49 15L49 12L47 12L47 11L50 11L50 10L47 10L47 9L46 9L46 10L47 10L47 11L45 11L45 10L44 10L44 9L45 9L45 8L43 8L43 10L41 10L41 9L38 9L38 10L37 10L37 8L36 8L36 9L34 9L34 6L33 6L33 8L32 8L32 6L31 6L31 9L32 9L32 10L30 10L30 11L29 11L29 10L28 10L28 11L27 11L27 10L26 10L26 11L25 11L25 10L23 10L23 9L24 9L24 8L25 8L25 9L26 9L26 6L25 6L25 5L26 5L26 4L24 4L24 6L23 6L23 7L24 7L24 8L23 8L23 9L22 9L22 10L23 10L23 11L20 11L20 10L19 10L19 8L17 8L17 7L18 7L18 6L17 6L17 7L16 7L16 6L15 6L15 5L14 5L14 4ZM12 5L12 7L11 7L11 6L10 6L10 7L11 7L11 8L14 8L14 7L15 7L15 6L14 6L14 7L13 7L13 5ZM27 5L27 8L30 8L30 5ZM19 6L19 7L20 7L20 6ZM24 6L24 7L25 7L25 6ZM28 6L28 7L29 7L29 6ZM48 6L48 7L49 7L49 6ZM0 8L0 9L4 9L4 8ZM6 8L6 9L7 9L7 8ZM15 8L15 9L16 9L16 8ZM53 9L53 10L52 10L52 11L51 11L51 12L50 12L50 13L51 13L51 12L52 12L52 13L53 13L53 10L54 10L54 13L55 13L55 9ZM33 10L33 11L30 11L30 12L31 12L31 14L30 14L30 13L28 13L28 12L26 12L26 13L25 13L25 14L24 14L24 16L23 16L23 18L24 18L24 19L25 19L25 20L27 20L27 21L25 21L25 22L27 22L27 23L26 23L26 24L27 24L27 23L28 23L28 21L29 21L29 20L27 20L27 17L29 17L29 18L28 18L28 19L30 19L30 17L29 17L29 16L31 16L31 18L32 18L32 19L31 19L31 20L32 20L32 19L34 19L34 20L35 20L35 17L34 17L34 16L35 16L35 15L36 15L36 13L37 13L37 15L39 15L39 17L40 17L40 16L41 16L41 15L40 15L40 14L39 14L39 10L38 10L38 12L35 12L35 11L36 11L36 10L35 10L35 11L34 11L34 10ZM43 10L43 11L42 11L42 12L43 12L43 13L44 13L44 10ZM23 11L23 12L22 12L22 13L23 13L23 12L25 12L25 11ZM8 12L8 15L13 15L13 16L12 16L12 17L13 17L13 16L14 16L14 13L13 13L13 12L10 12L10 13L9 13L9 12ZM18 12L18 13L19 13L19 14L21 14L21 12L20 12L20 13L19 13L19 12ZM32 12L32 13L33 13L33 12ZM34 12L34 14L33 14L33 15L31 15L31 16L33 16L33 15L35 15L35 12ZM1 13L1 14L2 14L2 15L3 15L3 13ZM10 13L10 14L11 14L11 13ZM45 13L45 14L42 14L42 17L41 17L41 18L42 18L42 19L43 19L43 18L42 18L42 17L45 17L45 18L44 18L44 19L45 19L45 18L48 18L48 19L49 19L49 18L48 18L48 14L47 14L47 16L46 16L46 15L45 15L45 14L46 14L46 13ZM16 14L16 15L17 15L17 14ZM26 14L26 16L27 16L27 14ZM28 15L28 16L29 16L29 15ZM44 15L44 16L45 16L45 17L46 17L46 16L45 16L45 15ZM8 16L8 17L9 17L9 16ZM19 16L19 17L21 17L21 18L22 18L22 17L21 17L21 16ZM52 16L52 17L53 17L53 18L54 18L54 17L55 17L55 16ZM24 17L24 18L25 18L25 19L26 19L26 18L25 18L25 17ZM36 17L36 18L37 18L37 17ZM36 19L36 20L37 20L37 19ZM4 22L4 23L5 23L5 24L8 24L8 26L9 26L9 25L10 25L10 26L12 26L12 24L11 24L11 23L10 23L10 24L8 24L8 23L5 23L5 22ZM12 22L12 23L13 23L13 22ZM41 22L41 23L40 23L40 25L41 25L41 26L43 26L43 27L42 27L42 28L43 28L43 27L44 27L44 25L46 25L46 23L44 23L44 25L41 25L41 23L42 23L42 24L43 24L43 22ZM1 23L1 24L2 24L2 25L3 25L3 26L2 26L2 27L3 27L3 28L2 28L2 30L3 30L3 31L4 31L4 30L3 30L3 28L4 28L4 24L2 24L2 23ZM20 23L20 24L21 24L21 23ZM38 23L38 24L39 24L39 23ZM13 24L13 27L14 27L14 30L16 30L16 29L15 29L15 28L17 28L17 31L18 31L18 34L17 34L17 32L16 32L16 31L13 31L13 30L12 30L12 28L11 28L11 31L13 31L13 33L14 33L14 34L13 34L13 35L12 35L12 36L11 36L11 34L12 34L12 32L11 32L11 33L10 33L10 31L8 31L8 32L9 32L9 33L6 33L6 32L7 32L7 31L5 31L5 32L3 32L3 33L6 33L6 34L7 34L7 35L8 35L8 34L9 34L9 33L10 33L10 37L8 37L8 36L7 36L7 37L6 37L6 38L7 38L7 37L8 37L8 43L10 43L10 42L14 42L14 43L13 43L13 44L12 44L12 43L11 43L11 44L12 44L12 45L11 45L11 46L12 46L12 48L14 48L14 49L13 49L13 50L15 50L15 49L16 49L16 50L17 50L17 51L12 51L12 52L11 52L11 53L9 53L9 54L10 54L10 55L11 55L11 53L12 53L12 54L14 54L14 55L15 55L15 54L14 54L14 53L16 53L16 54L17 54L17 53L18 53L18 54L19 54L19 51L22 51L22 49L23 49L23 52L22 52L22 53L20 53L20 55L21 55L21 56L22 56L22 54L23 54L23 56L24 56L24 55L25 55L25 54L23 54L23 52L24 52L24 53L25 53L25 52L26 52L26 51L24 51L24 50L26 50L26 48L27 48L27 47L29 47L29 48L31 48L31 47L32 47L32 49L31 49L31 53L32 53L32 51L34 51L34 50L35 50L35 48L37 48L37 49L36 49L36 50L37 50L37 49L38 49L38 48L39 48L39 49L40 49L40 50L39 50L39 52L40 52L40 54L41 54L41 53L42 53L42 54L43 54L43 53L42 53L42 51L43 51L43 50L44 50L44 49L46 49L46 50L45 50L45 51L46 51L46 50L47 50L47 52L46 52L46 53L47 53L47 52L48 52L48 48L46 48L46 46L47 46L47 47L49 47L49 48L51 48L51 47L49 47L49 46L50 46L50 45L51 45L51 42L50 42L50 41L52 41L52 38L55 38L55 37L53 37L53 36L52 36L52 35L51 35L51 37L52 37L52 38L50 38L50 36L49 36L49 37L48 37L48 35L49 35L49 34L50 34L50 33L49 33L49 32L50 32L50 31L49 31L49 32L48 32L48 29L47 29L47 31L44 31L44 30L46 30L46 26L45 26L45 29L42 29L42 30L40 30L40 29L41 29L41 28L40 28L40 29L38 29L38 30L36 30L36 29L37 29L37 28L34 28L34 29L35 29L35 31L34 31L34 32L35 32L35 31L37 31L37 32L36 32L36 33L37 33L37 32L38 32L38 34L39 34L39 31L40 31L40 32L41 32L41 31L44 31L44 33L45 33L45 36L44 36L44 37L42 37L42 38L44 38L44 39L41 39L41 40L40 40L40 41L37 41L37 40L38 40L38 39L39 39L39 38L37 38L37 37L39 37L39 36L40 36L40 37L41 37L41 35L42 35L42 36L43 36L43 35L44 35L44 34L43 34L43 35L42 35L42 34L41 34L41 35L37 35L37 37L34 37L34 38L33 38L33 36L36 36L36 35L35 35L35 33L33 33L33 32L31 32L31 33L33 33L33 34L30 34L30 35L29 35L29 33L30 33L30 31L25 31L25 30L26 30L26 28L25 28L25 27L22 27L22 26L20 26L20 25L18 25L18 26L19 26L19 27L16 27L16 26L17 26L17 25L16 25L16 26L14 26L14 25L15 25L15 24ZM5 25L5 26L7 26L7 25ZM30 25L30 26L31 26L31 25ZM34 25L34 27L35 27L35 25ZM38 26L38 27L40 27L40 26ZM5 27L5 30L8 30L8 27ZM20 27L20 28L18 28L18 29L20 29L20 28L21 28L21 27ZM27 27L27 30L30 30L30 27ZM32 27L32 28L33 28L33 27ZM49 27L49 30L52 30L52 27ZM56 27L56 28L57 28L57 27ZM6 28L6 29L7 29L7 28ZM9 28L9 30L10 30L10 28ZM28 28L28 29L29 29L29 28ZM50 28L50 29L51 29L51 28ZM53 28L53 29L54 29L54 28ZM21 29L21 30L20 30L20 33L21 33L21 34L18 34L18 35L21 35L21 36L23 36L23 38L22 38L22 37L21 37L21 38L20 38L20 37L19 37L19 36L17 36L17 35L16 35L16 34L15 34L15 35L13 35L13 36L17 36L17 37L19 37L19 38L14 38L14 37L13 37L13 39L11 39L11 38L9 38L9 39L10 39L10 41L13 41L13 39L14 39L14 40L15 40L15 42L18 42L18 43L19 43L19 41L22 41L22 44L21 44L21 46L22 46L22 47L19 47L19 48L17 48L17 49L19 49L19 50L18 50L18 51L19 51L19 50L21 50L21 49L19 49L19 48L23 48L23 49L24 49L24 48L25 48L25 47L24 47L24 46L25 46L25 45L26 45L26 46L28 46L28 44L29 44L29 46L32 46L32 42L33 42L33 45L34 45L34 44L35 44L35 46L34 46L34 47L33 47L33 50L34 50L34 48L35 48L35 46L36 46L36 47L38 47L38 45L41 45L41 46L40 46L40 47L43 47L43 49L44 49L44 48L45 48L45 47L43 47L43 45L42 45L42 43L43 43L43 44L49 44L49 43L50 43L50 42L49 42L49 43L48 43L48 42L47 42L47 41L50 41L50 40L51 40L51 39L50 39L50 40L47 40L47 39L48 39L48 38L46 38L46 37L47 37L47 35L48 35L48 34L46 34L46 37L45 37L45 39L44 39L44 40L43 40L43 42L42 42L42 41L41 41L41 42L37 42L37 44L38 44L38 45L36 45L36 44L35 44L35 43L34 43L34 42L36 42L36 41L34 41L34 40L35 40L35 39L36 39L36 38L35 38L35 39L33 39L33 38L32 38L32 36L33 36L33 35L32 35L32 36L29 36L29 35L28 35L28 34L27 34L27 35L26 35L26 36L23 36L23 35L24 35L24 34L25 34L25 33L28 33L28 32L24 32L24 33L23 33L23 31L24 31L24 29ZM31 29L31 31L33 31L33 30L32 30L32 29ZM21 30L21 32L22 32L22 31L23 31L23 30ZM38 30L38 31L39 31L39 30ZM51 31L51 32L52 32L52 31ZM14 32L14 33L15 33L15 32ZM42 32L42 33L43 33L43 32ZM45 32L45 33L46 33L46 32ZM22 33L22 34L21 34L21 35L22 35L22 34L23 34L23 33ZM54 35L54 36L55 36L55 35ZM2 36L2 38L3 38L3 36ZM26 36L26 37L24 37L24 39L22 39L22 38L21 38L21 39L22 39L22 41L23 41L23 40L24 40L24 39L25 39L25 41L24 41L24 42L23 42L23 44L22 44L22 46L23 46L23 44L25 44L25 43L26 43L26 45L27 45L27 43L28 43L28 42L25 42L25 41L26 41L26 39L25 39L25 38L26 38L26 37L27 37L27 38L29 38L29 36ZM30 38L30 39L28 39L28 41L29 41L29 42L31 42L31 40L33 40L33 39L32 39L32 38ZM5 39L5 40L7 40L7 39ZM16 39L16 41L17 41L17 39ZM45 39L45 41L46 41L46 39ZM18 40L18 41L19 41L19 40ZM29 40L29 41L30 41L30 40ZM4 41L4 42L5 42L5 41ZM6 41L6 42L7 42L7 41ZM20 42L20 43L21 43L21 42ZM41 42L41 43L40 43L40 44L41 44L41 43L42 43L42 42ZM43 42L43 43L44 43L44 42ZM45 42L45 43L46 43L46 42ZM5 43L5 44L4 44L4 45L5 45L5 46L7 46L7 45L6 45L6 44L7 44L7 43ZM14 43L14 44L13 44L13 45L12 45L12 46L13 46L13 47L14 47L14 46L15 46L15 45L16 45L16 44L17 44L17 43L16 43L16 44L15 44L15 43ZM29 43L29 44L30 44L30 45L31 45L31 43ZM38 43L38 44L39 44L39 43ZM13 45L13 46L14 46L14 45ZM17 45L17 46L16 46L16 47L18 47L18 46L20 46L20 45ZM44 45L44 46L45 46L45 45ZM48 45L48 46L49 46L49 45ZM56 45L56 46L55 46L55 47L57 47L57 45ZM41 48L41 49L42 49L42 48ZM56 48L56 49L57 49L57 48ZM10 49L10 51L11 51L11 50L12 50L12 49ZM27 49L27 52L30 52L30 49ZM49 49L49 52L52 52L52 49ZM28 50L28 51L29 51L29 50ZM50 50L50 51L51 51L51 50ZM40 51L40 52L41 52L41 51ZM13 52L13 53L14 53L14 52ZM33 52L33 53L34 53L34 52ZM54 52L54 53L56 53L56 52ZM48 53L48 54L50 54L50 53ZM44 54L44 55L45 55L45 54ZM39 55L39 56L40 56L40 55ZM56 55L56 56L57 56L57 55ZM52 56L52 57L53 57L53 56ZM54 56L54 57L55 57L55 56ZM0 0L0 7L7 7L7 0ZM1 1L1 6L6 6L6 1ZM2 2L2 5L5 5L5 2ZM50 0L50 7L57 7L57 0ZM51 1L51 6L56 6L56 1ZM52 2L52 5L55 5L55 2ZM0 50L0 57L7 57L7 50ZM1 51L1 56L6 56L6 51ZM2 52L2 55L5 55L5 52Z" fill="#000000"/></g></g></svg>
