<?xml version="1.0" encoding="UTF-8"?>
<svg xmlns="http://www.w3.org/2000/svg" version="1.1" width="300" height="300" viewBox="0 0 300 300"><rect x="0" y="0" width="300" height="300" fill="#fefefe"/><g transform="scale(4.615)"><g transform="translate(4,4)"><path fill-rule="evenodd" d="M8 0L8 1L9 1L9 0ZM13 0L13 1L11 1L11 2L10 2L10 3L9 3L9 2L8 2L8 5L9 5L9 6L8 6L8 7L9 7L9 6L10 6L10 8L8 8L8 9L7 9L7 8L6 8L6 9L7 9L7 10L5 10L5 9L4 9L4 8L0 8L0 9L2 9L2 10L3 10L3 12L5 12L5 13L4 13L4 14L3 14L3 13L2 13L2 11L1 11L1 10L0 10L0 11L1 11L1 13L0 13L0 16L1 16L1 17L2 17L2 18L3 18L3 16L4 16L4 17L7 17L7 16L8 16L8 17L9 17L9 16L10 16L10 15L11 15L11 16L12 16L12 17L15 17L15 19L13 19L13 22L14 22L14 20L15 20L15 19L16 19L16 23L12 23L12 24L11 24L11 25L10 25L10 23L11 23L11 22L10 22L10 20L9 20L9 24L6 24L6 25L7 25L7 26L5 26L5 25L3 25L3 27L1 27L1 26L0 26L0 29L1 29L1 31L2 31L2 32L1 32L1 33L0 33L0 39L3 39L3 40L2 40L2 43L1 43L1 41L0 41L0 43L1 43L1 44L3 44L3 43L4 43L4 45L3 45L3 46L2 46L2 47L1 47L1 45L0 45L0 48L5 48L5 47L7 47L7 48L6 48L6 49L8 49L8 50L9 50L9 51L10 51L10 50L11 50L11 49L12 49L12 51L11 51L11 52L13 52L13 53L14 53L14 52L15 52L15 51L14 51L14 50L13 50L13 48L12 48L12 46L11 46L11 45L10 45L10 44L11 44L11 43L10 43L10 40L11 40L11 38L12 38L12 41L11 41L11 42L12 42L12 45L13 45L13 46L14 46L14 48L15 48L15 50L16 50L16 51L17 51L17 52L18 52L18 50L16 50L16 48L17 48L17 49L19 49L19 55L18 55L18 56L17 56L17 54L18 54L18 53L17 53L17 54L16 54L16 53L15 53L15 56L16 56L16 57L18 57L18 56L19 56L19 57L23 57L23 54L26 54L26 55L27 55L27 56L28 56L28 55L27 55L27 53L29 53L29 54L31 54L31 55L30 55L30 56L31 56L31 57L32 57L32 55L33 55L33 54L36 54L36 55L34 55L34 56L33 56L33 57L36 57L36 55L38 55L38 57L43 57L43 56L45 56L45 57L46 57L46 55L44 55L44 54L47 54L47 55L49 55L49 56L48 56L48 57L51 57L51 54L52 54L52 53L54 53L54 52L55 52L55 54L56 54L56 53L57 53L57 51L56 51L56 52L55 52L55 50L53 50L53 48L54 48L54 49L55 49L55 48L54 48L54 45L55 45L55 44L53 44L53 46L52 46L52 47L51 47L51 46L50 46L50 45L52 45L52 43L53 43L53 42L54 42L54 43L56 43L56 44L57 44L57 43L56 43L56 42L54 42L54 41L53 41L53 40L55 40L55 39L53 39L53 38L52 38L52 37L51 37L51 39L49 39L49 38L50 38L50 36L51 36L51 35L52 35L52 36L53 36L53 37L55 37L55 38L56 38L56 39L57 39L57 38L56 38L56 37L57 37L57 31L56 31L56 30L57 30L57 28L56 28L56 24L54 24L54 23L53 23L53 22L54 22L54 21L55 21L55 20L54 20L54 21L53 21L53 20L50 20L50 19L55 19L55 17L56 17L56 18L57 18L57 15L55 15L55 14L54 14L54 10L53 10L53 9L55 9L55 8L52 8L52 10L53 10L53 13L52 13L52 12L51 12L51 10L50 10L50 8L49 8L49 6L48 6L48 7L47 7L47 5L48 5L48 0L46 0L46 1L47 1L47 2L46 2L46 3L47 3L47 5L45 5L45 4L44 4L44 3L45 3L45 1L44 1L44 2L42 2L42 3L41 3L41 4L37 4L37 3L39 3L39 2L37 2L37 1L38 1L38 0L37 0L37 1L36 1L36 0L35 0L35 1L34 1L34 3L35 3L35 4L36 4L36 5L40 5L40 7L39 7L39 6L38 6L38 7L39 7L39 8L37 8L37 6L36 6L36 7L35 7L35 6L34 6L34 5L33 5L33 6L32 6L32 5L31 5L31 4L32 4L32 3L33 3L33 2L31 2L31 1L33 1L33 0L27 0L27 1L28 1L28 2L27 2L27 3L28 3L28 2L29 2L29 3L30 3L30 4L26 4L26 2L24 2L24 3L23 3L23 2L22 2L22 0L21 0L21 1L20 1L20 0L17 0L17 3L18 3L18 5L15 5L15 4L14 4L14 3L13 3L13 1L14 1L14 0ZM23 0L23 1L26 1L26 0ZM39 0L39 1L40 1L40 2L41 2L41 1L43 1L43 0L41 0L41 1L40 1L40 0ZM15 1L15 2L16 2L16 1ZM29 1L29 2L30 2L30 3L31 3L31 2L30 2L30 1ZM35 1L35 2L36 2L36 1ZM11 2L11 4L10 4L10 5L11 5L11 10L10 10L10 12L8 12L8 13L6 13L6 14L4 14L4 15L5 15L5 16L7 16L7 15L10 15L10 14L11 14L11 15L12 15L12 14L13 14L13 16L14 16L14 13L12 13L12 12L11 12L11 11L12 11L12 10L14 10L14 11L15 11L15 8L16 8L16 10L18 10L18 12L17 12L17 13L16 13L16 12L15 12L15 15L16 15L16 16L15 16L15 17L18 17L18 18L17 18L17 19L18 19L18 20L17 20L17 21L18 21L18 22L22 22L22 20L23 20L23 21L24 21L24 22L25 22L25 25L24 25L24 24L23 24L23 23L20 23L20 24L19 24L19 25L16 25L16 26L15 26L15 27L13 27L13 24L12 24L12 25L11 25L11 26L12 26L12 27L11 27L11 28L10 28L10 25L8 25L8 26L9 26L9 28L10 28L10 29L11 29L11 28L15 28L15 27L17 27L17 30L16 30L16 29L12 29L12 30L9 30L9 31L3 31L3 30L2 30L2 31L3 31L3 33L2 33L2 34L4 34L4 35L1 35L1 36L2 36L2 37L1 37L1 38L3 38L3 36L5 36L5 37L6 37L6 38L4 38L4 40L3 40L3 42L5 42L5 41L6 41L6 42L9 42L9 38L8 38L8 39L6 39L6 38L7 38L7 37L6 37L6 36L8 36L8 37L9 37L9 35L10 35L10 38L11 38L11 35L12 35L12 34L13 34L13 35L14 35L14 36L13 36L13 37L12 37L12 38L13 38L13 40L15 40L15 41L16 41L16 40L17 40L17 45L15 45L15 46L16 46L16 47L15 47L15 48L16 48L16 47L17 47L17 48L18 48L18 47L22 47L22 46L23 46L23 44L24 44L24 42L25 42L25 43L26 43L26 45L25 45L25 46L24 46L24 47L23 47L23 48L19 48L19 49L21 49L21 50L20 50L20 51L21 51L21 52L22 52L22 54L23 54L23 52L24 52L24 53L25 53L25 52L26 52L26 51L24 51L24 50L26 50L26 48L28 48L28 46L29 46L29 48L31 48L31 46L29 46L29 45L30 45L30 44L31 44L31 43L29 43L29 44L27 44L27 43L28 43L28 42L25 42L25 41L26 41L26 37L24 37L24 39L23 39L23 38L22 38L22 37L23 37L23 36L26 36L26 35L25 35L25 34L28 34L28 35L29 35L29 36L27 36L27 38L29 38L29 36L32 36L32 38L30 38L30 39L28 39L28 41L29 41L29 40L30 40L30 41L31 41L31 40L33 40L33 39L35 39L35 40L34 40L34 41L36 41L36 42L34 42L34 43L35 43L35 44L34 44L34 45L33 45L33 42L32 42L32 46L33 46L33 47L32 47L32 49L31 49L31 53L32 53L32 50L33 50L33 51L34 51L34 50L35 50L35 48L37 48L37 49L36 49L36 50L37 50L37 49L38 49L38 48L39 48L39 49L40 49L40 50L39 50L39 52L40 52L40 54L41 54L41 55L39 55L39 56L42 56L42 54L43 54L43 53L42 53L42 52L43 52L43 50L44 50L44 49L45 49L45 48L44 48L44 49L43 49L43 47L39 47L39 46L41 46L41 45L38 45L38 44L40 44L40 43L42 43L42 45L45 45L45 47L46 47L46 46L48 46L48 47L49 47L49 48L50 48L50 46L48 46L48 45L50 45L50 44L51 44L51 42L50 42L50 41L52 41L52 40L50 40L50 41L47 41L47 42L43 42L43 41L42 41L42 40L41 40L41 39L42 39L42 38L44 38L44 39L43 39L43 40L44 40L44 39L45 39L45 41L46 41L46 39L45 39L45 36L46 36L46 35L47 35L47 34L48 34L48 35L49 35L49 34L50 34L50 33L49 33L49 32L50 32L50 31L49 31L49 32L48 32L48 30L47 30L47 32L46 32L46 31L45 31L45 30L46 30L46 26L47 26L47 27L48 27L48 26L49 26L49 24L51 24L51 26L53 26L53 27L55 27L55 25L53 25L53 23L52 23L52 22L51 22L51 21L50 21L50 20L49 20L49 22L47 22L47 21L48 21L48 19L47 19L47 21L46 21L46 22L47 22L47 24L46 24L46 23L44 23L44 25L45 25L45 24L46 24L46 26L45 26L45 30L43 30L43 29L42 29L42 30L41 30L41 31L40 31L40 30L39 30L39 29L38 29L38 30L36 30L36 29L37 29L37 27L35 27L35 25L34 25L34 27L35 27L35 28L34 28L34 29L35 29L35 31L34 31L34 32L31 32L31 33L32 33L32 34L33 34L33 35L34 35L34 36L32 36L32 35L31 35L31 34L30 34L30 35L29 35L29 33L30 33L30 31L29 31L29 32L28 32L28 31L26 31L26 32L25 32L25 30L26 30L26 28L25 28L25 27L24 27L24 26L25 26L25 25L29 25L29 26L31 26L31 25L29 25L29 24L31 24L31 23L32 23L32 22L33 22L33 24L32 24L32 25L33 25L33 24L35 24L35 23L36 23L36 24L37 24L37 22L35 22L35 20L36 20L36 21L38 21L38 22L39 22L39 20L40 20L40 19L39 19L39 18L41 18L41 19L42 19L42 18L43 18L43 21L44 21L44 22L45 22L45 20L46 20L46 19L44 19L44 18L45 18L45 17L46 17L46 15L47 15L47 14L48 14L48 16L47 16L47 17L48 17L48 18L49 18L49 19L50 19L50 18L51 18L51 17L50 17L50 16L52 16L52 17L53 17L53 18L54 18L54 17L53 17L53 14L52 14L52 13L51 13L51 12L50 12L50 13L51 13L51 15L50 15L50 16L49 16L49 11L50 11L50 10L49 10L49 11L48 11L48 10L47 10L47 9L49 9L49 8L47 8L47 9L46 9L46 10L47 10L47 11L45 11L45 8L46 8L46 6L45 6L45 5L43 5L43 4L41 4L41 7L40 7L40 8L41 8L41 9L40 9L40 12L39 12L39 13L40 13L40 14L39 14L39 15L36 15L36 14L35 14L35 12L34 12L34 14L33 14L33 15L35 15L35 16L34 16L34 17L35 17L35 18L33 18L33 17L32 17L32 20L31 20L31 16L32 16L32 14L31 14L31 12L30 12L30 11L32 11L32 13L33 13L33 10L34 10L34 11L35 11L35 10L36 10L36 12L38 12L38 10L39 10L39 9L38 9L38 10L37 10L37 8L36 8L36 9L34 9L34 6L33 6L33 8L32 8L32 6L31 6L31 9L32 9L32 10L30 10L30 11L29 11L29 10L26 10L26 11L25 11L25 10L23 10L23 9L22 9L22 10L23 10L23 11L21 11L21 7L22 7L22 6L21 6L21 7L20 7L20 6L19 6L19 7L18 7L18 6L17 6L17 7L16 7L16 6L15 6L15 5L14 5L14 4L13 4L13 7L12 7L12 5L11 5L11 4L12 4L12 2ZM18 2L18 3L19 3L19 4L20 4L20 5L22 5L22 4L23 4L23 3L20 3L20 2ZM24 4L24 6L23 6L23 7L24 7L24 9L26 9L26 6L25 6L25 5L26 5L26 4ZM27 5L27 8L30 8L30 5ZM42 5L42 7L43 7L43 5ZM14 6L14 7L13 7L13 8L15 8L15 6ZM24 6L24 7L25 7L25 6ZM28 6L28 7L29 7L29 6ZM44 6L44 8L45 8L45 6ZM19 7L19 10L20 10L20 7ZM17 8L17 9L18 9L18 8ZM56 8L56 9L57 9L57 8ZM8 9L8 10L9 10L9 9ZM41 9L41 11L42 11L42 12L43 12L43 14L42 14L42 17L41 17L41 18L42 18L42 17L45 17L45 16L44 16L44 15L45 15L45 14L46 14L46 13L45 13L45 14L44 14L44 12L43 12L43 11L44 11L44 9ZM42 10L42 11L43 11L43 10ZM55 10L55 11L57 11L57 10ZM5 11L5 12L7 12L7 11ZM19 11L19 12L18 12L18 13L19 13L19 16L20 16L20 17L21 17L21 18L22 18L22 17L21 17L21 15L20 15L20 14L21 14L21 13L20 13L20 12L21 12L21 11ZM23 11L23 12L22 12L22 13L25 13L25 11ZM10 12L10 13L11 13L11 12ZM26 12L26 14L23 14L23 18L24 18L24 19L25 19L25 22L27 22L27 23L26 23L26 24L29 24L29 23L28 23L28 21L29 21L29 20L30 20L30 17L29 17L29 16L31 16L31 14L30 14L30 13L28 13L28 12ZM1 13L1 15L2 15L2 16L3 16L3 15L2 15L2 13ZM6 14L6 15L7 15L7 14ZM16 14L16 15L17 15L17 16L18 16L18 14ZM26 15L26 16L27 16L27 15ZM28 15L28 16L29 16L29 15ZM39 15L39 17L40 17L40 16L41 16L41 15ZM10 17L10 18L11 18L11 20L12 20L12 18L11 18L11 17ZM24 17L24 18L26 18L26 19L28 19L28 20L29 20L29 19L28 19L28 18L29 18L29 17L27 17L27 18L26 18L26 17ZM36 17L36 18L37 18L37 17ZM6 18L6 19L7 19L7 20L5 20L5 19L2 19L2 20L3 20L3 21L0 21L0 22L1 22L1 25L2 25L2 23L4 23L4 24L5 24L5 21L7 21L7 22L6 22L6 23L7 23L7 22L8 22L8 21L7 21L7 20L8 20L8 19L9 19L9 18L8 18L8 19L7 19L7 18ZM18 18L18 19L20 19L20 18ZM36 19L36 20L37 20L37 19ZM56 19L56 20L57 20L57 19ZM26 20L26 21L27 21L27 20ZM33 20L33 21L34 21L34 20ZM41 20L41 21L42 21L42 20ZM30 21L30 23L31 23L31 21ZM56 21L56 22L55 22L55 23L57 23L57 21ZM16 23L16 24L18 24L18 23ZM38 23L38 24L39 24L39 23ZM40 23L40 27L39 27L39 26L38 26L38 27L39 27L39 28L40 28L40 29L41 29L41 26L43 26L43 27L42 27L42 28L44 28L44 26L43 26L43 25L41 25L41 24L42 24L42 23ZM48 23L48 24L47 24L47 26L48 26L48 24L49 24L49 23ZM20 24L20 25L19 25L19 26L17 26L17 27L20 27L20 29L21 29L21 30L20 30L20 31L21 31L21 30L23 30L23 31L22 31L22 32L19 32L19 34L18 34L18 33L17 33L17 32L16 32L16 30L15 30L15 32L16 32L16 33L17 33L17 35L16 35L16 34L15 34L15 36L14 36L14 38L15 38L15 40L16 40L16 39L18 39L18 38L19 38L19 40L20 40L20 41L21 41L21 42L20 42L20 43L21 43L21 42L22 42L22 44L21 44L21 46L22 46L22 44L23 44L23 42L24 42L24 41L25 41L25 39L24 39L24 40L23 40L23 39L22 39L22 40L21 40L21 38L20 38L20 37L19 37L19 36L18 36L18 35L19 35L19 34L20 34L20 33L21 33L21 35L20 35L20 36L21 36L21 35L22 35L22 33L23 33L23 35L24 35L24 34L25 34L25 32L24 32L24 29L21 29L21 24ZM22 25L22 27L23 27L23 25ZM3 27L3 29L4 29L4 27ZM5 27L5 30L8 30L8 27ZM27 27L27 30L30 30L30 27ZM31 27L31 28L33 28L33 27ZM49 27L49 30L52 30L52 27ZM6 28L6 29L7 29L7 28ZM18 28L18 29L19 29L19 28ZM28 28L28 29L29 29L29 28ZM47 28L47 29L48 29L48 28ZM50 28L50 29L51 29L51 28ZM53 28L53 29L54 29L54 30L56 30L56 28L55 28L55 29L54 29L54 28ZM31 29L31 30L32 30L32 31L33 31L33 29ZM12 30L12 31L11 31L11 32L12 32L12 33L13 33L13 34L14 34L14 32L13 32L13 30ZM17 30L17 31L19 31L19 30ZM38 30L38 31L39 31L39 34L38 34L38 32L37 32L37 31L35 31L35 35L36 35L36 36L35 36L35 37L37 37L37 39L38 39L38 40L37 40L37 41L39 41L39 42L37 42L37 44L38 44L38 43L39 43L39 42L40 42L40 39L41 39L41 37L40 37L40 36L39 36L39 37L37 37L37 35L41 35L41 34L42 34L42 37L44 37L44 36L45 36L45 35L46 35L46 34L45 34L45 33L46 33L46 32L45 32L45 33L44 33L44 31L41 31L41 32L40 32L40 31L39 31L39 30ZM9 31L9 32L6 32L6 33L5 33L5 32L4 32L4 33L5 33L5 34L6 34L6 35L5 35L5 36L6 36L6 35L7 35L7 34L6 34L6 33L9 33L9 34L10 34L10 35L11 35L11 33L10 33L10 31ZM52 31L52 34L54 34L54 32L55 32L55 31ZM23 32L23 33L24 33L24 32ZM27 32L27 33L28 33L28 32ZM36 32L36 33L37 33L37 32ZM42 32L42 33L43 33L43 32ZM55 33L55 34L56 34L56 33ZM43 34L43 35L44 35L44 34ZM54 35L54 36L55 36L55 37L56 37L56 35ZM15 36L15 38L18 38L18 37L17 37L17 36ZM47 36L47 37L46 37L46 38L47 38L47 37L49 37L49 36ZM33 37L33 38L32 38L32 39L33 39L33 38L34 38L34 37ZM35 38L35 39L36 39L36 38ZM38 38L38 39L39 39L39 38ZM5 39L5 40L6 40L6 41L7 41L7 40L6 40L6 39ZM47 39L47 40L49 40L49 39ZM22 40L22 41L23 41L23 40ZM56 40L56 41L57 41L57 40ZM12 41L12 42L13 42L13 45L14 45L14 41ZM18 41L18 43L19 43L19 41ZM41 41L41 42L42 42L42 43L43 43L43 44L49 44L49 43L50 43L50 42L47 42L47 43L43 43L43 42L42 42L42 41ZM5 43L5 46L3 46L3 47L5 47L5 46L9 46L9 47L8 47L8 48L9 48L9 49L10 49L10 48L9 48L9 47L11 47L11 46L9 46L9 44L10 44L10 43ZM6 44L6 45L8 45L8 44ZM35 44L35 45L36 45L36 44ZM17 45L17 47L18 47L18 46L20 46L20 45ZM26 45L26 46L27 46L27 45ZM37 45L37 47L38 47L38 45ZM56 45L56 46L55 46L55 47L57 47L57 45ZM34 46L34 47L33 47L33 50L34 50L34 48L35 48L35 47L36 47L36 46ZM24 47L24 48L23 48L23 49L22 49L22 51L23 51L23 49L24 49L24 48L26 48L26 47ZM52 47L52 48L53 48L53 47ZM41 48L41 49L42 49L42 48ZM47 48L47 49L46 49L46 50L45 50L45 51L46 51L46 50L47 50L47 52L48 52L48 48ZM56 48L56 49L57 49L57 48ZM27 49L27 52L30 52L30 49ZM49 49L49 52L52 52L52 49ZM28 50L28 51L29 51L29 50ZM50 50L50 51L51 51L51 50ZM13 51L13 52L14 52L14 51ZM36 51L36 52L35 52L35 53L36 53L36 54L37 54L37 52L38 52L38 51ZM40 51L40 52L41 52L41 51ZM9 52L9 53L8 53L8 57L12 57L12 54L11 54L11 55L10 55L10 56L9 56L9 54L10 54L10 52ZM33 52L33 53L34 53L34 52ZM45 52L45 53L46 53L46 52ZM20 53L20 55L19 55L19 56L20 56L20 55L21 55L21 56L22 56L22 55L21 55L21 53ZM38 53L38 54L39 54L39 53ZM41 53L41 54L42 54L42 53ZM47 53L47 54L50 54L50 53ZM13 55L13 57L14 57L14 55ZM24 55L24 57L25 57L25 55ZM56 55L56 56L57 56L57 55ZM52 56L52 57L53 57L53 56ZM54 56L54 57L55 57L55 56ZM0 0L0 7L7 7L7 0ZM1 1L1 6L6 6L6 1ZM2 2L2 5L5 5L5 2ZM50 0L50 7L57 7L57 0ZM51 1L51 6L56 6L56 1ZM52 2L52 5L55 5L55 2ZM0 50L0 57L7 57L7 50ZM1 51L1 56L6 56L6 51ZM2 52L2 55L5 55L5 52Z" fill="#000000"/></g></g></svg>
