<?xml version="1.0" encoding="UTF-8"?>
<svg xmlns="http://www.w3.org/2000/svg" version="1.1" width="300" height="300" viewBox="0 0 300 300"><rect x="0" y="0" width="300" height="300" fill="#fefefe"/><g transform="scale(4.615)"><g transform="translate(4,4)"><path fill-rule="evenodd" d="M10 0L10 4L11 4L11 0ZM12 0L12 3L13 3L13 4L12 4L12 8L13 8L13 10L12 10L12 9L11 9L11 10L9 10L9 9L10 9L10 7L11 7L11 6L10 6L10 7L9 7L9 5L8 5L8 7L9 7L9 8L6 8L6 9L7 9L7 10L6 10L6 11L7 11L7 12L5 12L5 8L0 8L0 11L1 11L1 13L2 13L2 12L3 12L3 13L4 13L4 15L3 15L3 14L2 14L2 15L3 15L3 17L2 17L2 16L1 16L1 15L0 15L0 16L1 16L1 18L0 18L0 19L2 19L2 20L1 20L1 21L0 21L0 23L2 23L2 21L3 21L3 23L4 23L4 26L0 26L0 28L1 28L1 27L3 27L3 28L2 28L2 29L1 29L1 30L0 30L0 31L1 31L1 32L2 32L2 33L1 33L1 35L0 35L0 37L1 37L1 36L2 36L2 39L1 39L1 38L0 38L0 41L4 41L4 42L5 42L5 41L4 41L4 40L5 40L5 38L6 38L6 39L7 39L7 40L6 40L6 41L7 41L7 42L6 42L6 43L3 43L3 42L2 42L2 43L3 43L3 44L2 44L2 47L1 47L1 46L0 46L0 48L5 48L5 47L8 47L8 51L9 51L9 52L8 52L8 57L9 57L9 56L10 56L10 57L11 57L11 54L12 54L12 55L13 55L13 54L14 54L14 57L16 57L16 56L17 56L17 57L19 57L19 56L17 56L17 53L20 53L20 52L21 52L21 51L22 51L22 52L23 52L23 51L22 51L22 50L25 50L25 49L24 49L24 48L25 48L25 47L24 47L24 48L23 48L23 49L21 49L21 47L23 47L23 46L25 46L25 44L27 44L27 45L26 45L26 47L27 47L27 48L26 48L26 52L24 52L24 53L21 53L21 56L24 56L24 57L26 57L26 55L27 55L27 54L30 54L30 53L31 53L31 49L32 49L32 52L33 52L33 53L32 53L32 54L31 54L31 56L30 56L30 55L29 55L29 56L27 56L27 57L29 57L29 56L30 56L30 57L31 57L31 56L35 56L35 57L39 57L39 56L42 56L42 55L43 55L43 57L44 57L44 54L45 54L45 57L47 57L47 56L46 56L46 54L45 54L45 53L47 53L47 55L48 55L48 56L50 56L50 57L52 57L52 55L51 55L51 53L52 53L52 54L53 54L53 55L54 55L54 56L53 56L53 57L54 57L54 56L55 56L55 57L56 57L56 56L55 56L55 54L53 54L53 52L54 52L54 53L55 53L55 52L57 52L57 51L56 51L56 49L57 49L57 48L56 48L56 46L57 46L57 44L56 44L56 41L55 41L55 39L57 39L57 37L56 37L56 36L57 36L57 35L56 35L56 34L57 34L57 32L56 32L56 30L57 30L57 29L55 29L55 30L53 30L53 29L54 29L54 28L56 28L56 27L55 27L55 26L57 26L57 25L56 25L56 22L57 22L57 20L55 20L55 19L56 19L56 18L57 18L57 17L56 17L56 16L57 16L57 15L56 15L56 14L57 14L57 13L56 13L56 14L55 14L55 13L54 13L54 12L55 12L55 11L56 11L56 10L54 10L54 11L52 11L52 10L49 10L49 9L50 9L50 8L49 8L49 6L48 6L48 7L47 7L47 5L48 5L48 0L45 0L45 2L44 2L44 3L42 3L42 2L43 2L43 0L41 0L41 1L40 1L40 0L39 0L39 1L38 1L38 0L37 0L37 1L38 1L38 2L39 2L39 3L36 3L36 0L35 0L35 1L33 1L33 2L32 2L32 3L30 3L30 2L29 2L29 1L31 1L31 0L28 0L28 1L26 1L26 0L23 0L23 2L21 2L21 3L23 3L23 4L24 4L24 5L23 5L23 6L22 6L22 8L23 8L23 6L24 6L24 9L23 9L23 10L22 10L22 11L20 11L20 12L19 12L19 10L20 10L20 9L19 9L19 8L21 8L21 5L22 5L22 4L19 4L19 3L18 3L18 4L17 4L17 6L16 6L16 7L15 7L15 5L16 5L16 4L15 4L15 5L13 5L13 4L14 4L14 2L17 2L17 1L18 1L18 2L20 2L20 0L17 0L17 1L14 1L14 0ZM21 0L21 1L22 1L22 0ZM8 1L8 2L9 2L9 1ZM13 1L13 2L14 2L14 1ZM46 1L46 2L47 2L47 1ZM23 2L23 3L26 3L26 4L25 4L25 8L26 8L26 4L27 4L27 3L28 3L28 4L29 4L29 3L28 3L28 2ZM33 2L33 3L32 3L32 4L31 4L31 8L32 8L32 10L31 10L31 11L30 11L30 10L29 10L29 9L27 9L27 11L26 11L26 12L25 12L25 10L23 10L23 12L25 12L25 13L26 13L26 14L23 14L23 13L22 13L22 12L20 12L20 14L21 14L21 13L22 13L22 14L23 14L23 15L20 15L20 18L19 18L19 19L20 19L20 21L18 21L18 22L20 22L20 23L19 23L19 24L22 24L22 25L20 25L20 26L22 26L22 27L20 27L20 28L22 28L22 29L20 29L20 30L19 30L19 31L17 31L17 32L16 32L16 33L15 33L15 34L14 34L14 33L13 33L13 31L14 31L14 32L15 32L15 31L14 31L14 30L15 30L15 29L16 29L16 30L18 30L18 29L19 29L19 25L17 25L17 24L18 24L18 23L17 23L17 24L16 24L16 23L15 23L15 22L16 22L16 21L17 21L17 20L18 20L18 17L16 17L16 16L17 16L17 13L18 13L18 12L17 12L17 11L18 11L18 9L15 9L15 7L14 7L14 6L13 6L13 8L14 8L14 10L17 10L17 11L16 11L16 12L15 12L15 13L10 13L10 15L11 15L11 16L14 16L14 17L13 17L13 19L10 19L10 22L11 22L11 23L10 23L10 24L8 24L8 20L9 20L9 19L8 19L8 20L7 20L7 19L6 19L6 18L8 18L8 15L9 15L9 12L12 12L12 11L8 11L8 15L4 15L4 17L5 17L5 16L7 16L7 17L6 17L6 18L5 18L5 19L4 19L4 20L5 20L5 23L6 23L6 24L5 24L5 25L6 25L6 26L7 26L7 25L6 25L6 24L8 24L8 26L9 26L9 27L11 27L11 25L12 25L12 24L11 24L11 23L15 23L15 24L13 24L13 25L15 25L15 26L16 26L16 27L14 27L14 26L13 26L13 27L12 27L12 28L15 28L15 29L14 29L14 30L13 30L13 29L10 29L10 28L9 28L9 29L10 29L10 30L13 30L13 31L8 31L8 32L7 32L7 31L6 31L6 32L7 32L7 33L6 33L6 34L5 34L5 35L4 35L4 36L5 36L5 37L6 37L6 38L7 38L7 37L6 37L6 36L8 36L8 40L7 40L7 41L8 41L8 40L9 40L9 39L10 39L10 37L9 37L9 36L8 36L8 35L12 35L12 36L11 36L11 37L12 37L12 38L11 38L11 40L13 40L13 43L12 43L12 42L11 42L11 43L10 43L10 42L9 42L9 43L10 43L10 45L9 45L9 44L8 44L8 43L6 43L6 44L4 44L4 45L3 45L3 47L5 47L5 46L4 46L4 45L6 45L6 46L7 46L7 45L9 45L9 46L8 46L8 47L10 47L10 50L9 50L9 51L10 51L10 52L11 52L11 53L9 53L9 55L10 55L10 54L11 54L11 53L12 53L12 52L11 52L11 50L12 50L12 51L13 51L13 53L14 53L14 54L16 54L16 53L17 53L17 50L18 50L18 52L19 52L19 49L20 49L20 51L21 51L21 49L20 49L20 48L19 48L19 49L17 49L17 48L18 48L18 47L17 47L17 45L18 45L18 44L17 44L17 45L16 45L16 43L14 43L14 41L15 41L15 42L17 42L17 43L18 43L18 42L19 42L19 43L20 43L20 44L19 44L19 45L20 45L20 46L19 46L19 47L21 47L21 45L22 45L22 46L23 46L23 45L24 45L24 44L25 44L25 43L27 43L27 44L28 44L28 43L29 43L29 41L30 41L30 40L32 40L32 41L31 41L31 42L32 42L32 43L33 43L33 44L32 44L32 45L33 45L33 46L32 46L32 47L31 47L31 48L32 48L32 49L33 49L33 51L35 51L35 50L36 50L36 52L37 52L37 51L38 51L38 50L41 50L41 52L40 52L40 51L39 51L39 52L38 52L38 54L40 54L40 53L43 53L43 54L44 54L44 53L45 53L45 52L44 52L44 53L43 53L43 51L42 51L42 50L41 50L41 48L42 48L42 49L43 49L43 50L47 50L47 53L48 53L48 50L47 50L47 49L48 49L48 48L49 48L49 47L51 47L51 48L52 48L52 47L51 47L51 46L53 46L53 47L55 47L55 46L56 46L56 45L55 45L55 44L54 44L54 46L53 46L53 45L52 45L52 44L53 44L53 43L54 43L54 42L53 42L53 41L54 41L54 40L53 40L53 39L54 39L54 38L53 38L53 35L55 35L55 36L56 36L56 35L55 35L55 34L56 34L56 32L53 32L53 31L48 31L48 28L47 28L47 29L46 29L46 30L47 30L47 31L45 31L45 28L46 28L46 27L48 27L48 26L47 26L47 25L48 25L48 24L50 24L50 26L52 26L52 25L53 25L53 24L51 24L51 23L50 23L50 22L51 22L51 21L54 21L54 22L56 22L56 21L55 21L55 20L53 20L53 19L52 19L52 20L51 20L51 21L49 21L49 23L47 23L47 24L46 24L46 25L45 25L45 22L47 22L47 21L45 21L45 20L44 20L44 18L45 18L45 19L46 19L46 20L47 20L47 19L48 19L48 18L47 18L47 17L48 17L48 16L49 16L49 17L50 17L50 18L49 18L49 19L51 19L51 18L55 18L55 17L53 17L53 16L51 16L51 17L50 17L50 14L51 14L51 12L50 12L50 11L49 11L49 10L48 10L48 11L47 11L47 12L45 12L45 11L43 11L43 10L44 10L44 9L45 9L45 10L47 10L47 9L45 9L45 8L46 8L46 6L45 6L45 4L46 4L46 5L47 5L47 3L44 3L44 6L43 6L43 5L42 5L42 6L41 6L41 5L40 5L40 4L41 4L41 3L39 3L39 4L38 4L38 6L37 6L37 7L36 7L36 5L37 5L37 4L36 4L36 5L35 5L35 2ZM8 3L8 4L9 4L9 3ZM18 4L18 6L17 6L17 7L16 7L16 8L19 8L19 7L20 7L20 5L19 5L19 4ZM32 4L32 5L33 5L33 4ZM27 5L27 8L30 8L30 5ZM34 5L34 7L33 7L33 6L32 6L32 7L33 7L33 9L34 9L34 8L35 8L35 9L37 9L37 10L36 10L36 12L35 12L35 13L37 13L37 14L38 14L38 15L39 15L39 16L38 16L38 17L37 17L37 16L35 16L35 14L33 14L33 13L34 13L34 12L33 12L33 10L32 10L32 12L31 12L31 13L30 13L30 14L29 14L29 13L28 13L28 12L29 12L29 11L27 11L27 12L26 12L26 13L28 13L28 14L29 14L29 16L28 16L28 15L27 15L27 16L28 16L28 17L26 17L26 18L28 18L28 19L27 19L27 20L30 20L30 21L26 21L26 19L25 19L25 17L22 17L22 16L21 16L21 17L22 17L22 18L24 18L24 19L21 19L21 18L20 18L20 19L21 19L21 20L24 20L24 21L22 21L22 22L21 22L21 23L23 23L23 25L22 25L22 26L26 26L26 27L25 27L25 28L26 28L26 29L23 29L23 30L25 30L25 31L24 31L24 32L26 32L26 33L27 33L27 32L28 32L28 33L29 33L29 34L30 34L30 36L29 36L29 37L31 37L31 38L29 38L29 39L33 39L33 40L35 40L35 42L37 42L37 43L36 43L36 44L35 44L35 43L34 43L34 42L33 42L33 41L32 41L32 42L33 42L33 43L34 43L34 45L37 45L37 47L36 47L36 48L33 48L33 47L35 47L35 46L33 46L33 47L32 47L32 48L33 48L33 49L36 49L36 50L38 50L38 49L39 49L39 48L41 48L41 46L43 46L43 47L42 47L42 48L43 48L43 49L44 49L44 48L43 48L43 47L44 47L44 46L45 46L45 47L47 47L47 48L48 48L48 47L49 47L49 46L50 46L50 45L51 45L51 43L53 43L53 42L51 42L51 41L53 41L53 40L52 40L52 38L51 38L51 39L50 39L50 36L52 36L52 35L53 35L53 34L52 34L52 33L53 33L53 32L52 32L52 33L51 33L51 32L50 32L50 34L49 34L49 35L50 35L50 36L48 36L48 37L47 37L47 39L44 39L44 40L42 40L42 41L41 41L41 42L40 42L40 43L41 43L41 42L42 42L42 44L41 44L41 46L38 46L38 45L39 45L39 42L38 42L38 40L39 40L39 39L38 39L38 40L35 40L35 39L37 39L37 38L38 38L38 37L37 37L37 36L38 36L38 33L37 33L37 32L34 32L34 31L36 31L36 30L37 30L37 29L38 29L38 28L42 28L42 27L40 27L40 26L39 26L39 27L37 27L37 28L35 28L35 27L36 27L36 26L34 26L34 27L33 27L33 26L32 26L32 24L33 24L33 25L37 25L37 26L38 26L38 24L39 24L39 25L40 25L40 24L42 24L42 25L41 25L41 26L43 26L43 25L44 25L44 24L43 24L43 23L44 23L44 20L43 20L43 21L39 21L39 22L40 22L40 24L39 24L39 23L38 23L38 20L41 20L41 18L42 18L42 19L43 19L43 18L44 18L44 15L42 15L42 16L41 16L41 14L43 14L43 13L44 13L44 14L45 14L45 15L47 15L47 16L48 16L48 15L49 15L49 14L50 14L50 12L49 12L49 11L48 11L48 12L49 12L49 13L47 13L47 14L45 14L45 13L44 13L44 12L43 12L43 13L40 13L40 12L41 12L41 11L40 11L40 9L39 9L39 10L38 10L38 8L39 8L39 6L40 6L40 7L41 7L41 6L40 6L40 5L39 5L39 6L38 6L38 8L35 8L35 5ZM18 6L18 7L19 7L19 6ZM28 6L28 7L29 7L29 6ZM42 6L42 7L43 7L43 9L41 9L41 10L43 10L43 9L44 9L44 8L45 8L45 6L44 6L44 7L43 7L43 6ZM48 8L48 9L49 9L49 8ZM51 8L51 9L52 9L52 8ZM53 8L53 9L54 9L54 8ZM55 8L55 9L56 9L56 8ZM1 9L1 11L2 11L2 9ZM3 10L3 12L4 12L4 10ZM37 10L37 11L38 11L38 10ZM13 11L13 12L14 12L14 11ZM39 11L39 12L40 12L40 11ZM16 12L16 13L15 13L15 14L14 14L14 16L16 16L16 13L17 13L17 12ZM32 12L32 13L31 13L31 14L30 14L30 15L32 15L32 13L33 13L33 12ZM52 12L52 13L53 13L53 14L54 14L54 15L55 15L55 14L54 14L54 13L53 13L53 12ZM6 13L6 14L7 14L7 13ZM38 13L38 14L40 14L40 13ZM11 14L11 15L12 15L12 14ZM24 15L24 16L26 16L26 15ZM9 16L9 18L10 18L10 16ZM31 16L31 17L32 17L32 18L30 18L30 20L31 20L31 19L33 19L33 18L35 18L35 19L36 19L36 20L38 20L38 19L39 19L39 17L41 17L41 16L39 16L39 17L38 17L38 18L37 18L37 17L35 17L35 16ZM42 16L42 17L43 17L43 16ZM45 16L45 17L46 17L46 16ZM11 17L11 18L12 18L12 17ZM14 17L14 18L15 18L15 21L16 21L16 20L17 20L17 18L16 18L16 17ZM2 18L2 19L3 19L3 18ZM13 19L13 20L12 20L12 21L11 21L11 22L12 22L12 21L13 21L13 22L14 22L14 21L13 21L13 20L14 20L14 19ZM6 20L6 21L7 21L7 20ZM32 20L32 21L31 21L31 22L29 22L29 23L27 23L27 24L25 24L25 23L26 23L26 22L25 22L25 21L24 21L24 22L23 22L23 23L24 23L24 24L25 24L25 25L26 25L26 26L27 26L27 25L29 25L29 26L30 26L30 25L29 25L29 23L31 23L31 24L32 24L32 23L33 23L33 22L34 22L34 23L35 23L35 20L34 20L34 21L33 21L33 20ZM6 22L6 23L7 23L7 22ZM37 23L37 24L38 24L38 23ZM15 24L15 25L16 25L16 24ZM9 25L9 26L10 26L10 25ZM17 26L17 27L18 27L18 26ZM31 26L31 27L32 27L32 29L31 29L31 31L30 31L30 32L29 32L29 33L31 33L31 31L32 31L32 34L31 34L31 35L33 35L33 36L32 36L32 37L33 37L33 39L34 39L34 38L35 38L35 36L37 36L37 34L35 34L35 33L33 33L33 31L32 31L32 29L33 29L33 30L35 30L35 28L33 28L33 27L32 27L32 26ZM44 26L44 27L43 27L43 28L45 28L45 26ZM53 26L53 27L54 27L54 26ZM5 27L5 30L8 30L8 27ZM27 27L27 30L30 30L30 27ZM49 27L49 30L52 30L52 27ZM6 28L6 29L7 29L7 28ZM16 28L16 29L18 29L18 28ZM28 28L28 29L29 29L29 28ZM50 28L50 29L51 29L51 28ZM3 29L3 30L1 30L1 31L3 31L3 30L4 30L4 29ZM39 29L39 30L38 30L38 32L39 32L39 30L40 30L40 29ZM41 29L41 30L43 30L43 32L41 32L41 33L39 33L39 34L40 34L40 35L39 35L39 37L40 37L40 38L41 38L41 39L42 39L42 38L43 38L43 37L44 37L44 38L45 38L45 37L46 37L46 36L47 36L47 35L44 35L44 33L43 33L43 32L45 32L45 33L47 33L47 32L48 32L48 33L49 33L49 32L48 32L48 31L47 31L47 32L45 32L45 31L44 31L44 29ZM4 31L4 32L5 32L5 31ZM19 31L19 32L18 32L18 33L17 33L17 34L16 34L16 35L17 35L17 34L18 34L18 36L17 36L17 37L19 37L19 38L17 38L17 40L18 40L18 41L17 41L17 42L18 42L18 41L19 41L19 42L20 42L20 41L21 41L21 40L22 40L22 39L21 39L21 38L23 38L23 39L24 39L24 40L25 40L25 39L27 39L27 41L26 41L26 42L27 42L27 41L29 41L29 40L28 40L28 39L27 39L27 38L28 38L28 37L26 37L26 38L25 38L25 36L27 36L27 35L26 35L26 34L25 34L25 33L23 33L23 34L24 34L24 36L23 36L23 35L22 35L22 33L21 33L21 35L19 35L19 34L20 34L20 31ZM21 31L21 32L23 32L23 31ZM8 32L8 34L6 34L6 35L5 35L5 36L6 36L6 35L8 35L8 34L9 34L9 33L10 33L10 34L11 34L11 32ZM2 33L2 34L4 34L4 33ZM12 33L12 35L13 35L13 36L14 36L14 37L15 37L15 38L16 38L16 37L15 37L15 35L14 35L14 34L13 34L13 33ZM18 33L18 34L19 34L19 33ZM54 33L54 34L55 34L55 33ZM33 34L33 35L34 35L34 36L35 36L35 35L34 35L34 34ZM42 34L42 35L43 35L43 36L44 36L44 37L45 37L45 36L44 36L44 35L43 35L43 34ZM50 34L50 35L52 35L52 34ZM2 35L2 36L3 36L3 35ZM19 36L19 37L23 37L23 38L24 38L24 37L23 37L23 36ZM40 36L40 37L41 37L41 36ZM3 37L3 40L4 40L4 37ZM13 38L13 39L14 39L14 38ZM19 38L19 39L18 39L18 40L19 40L19 41L20 41L20 40L19 40L19 39L20 39L20 38ZM48 38L48 39L47 39L47 40L44 40L44 41L43 41L43 44L44 44L44 45L45 45L45 46L47 46L47 47L48 47L48 46L47 46L47 45L48 45L48 44L49 44L49 45L50 45L50 43L51 43L51 42L50 42L50 43L48 43L48 44L47 44L47 45L45 45L45 44L46 44L46 42L48 42L48 41L49 41L49 38ZM15 39L15 41L16 41L16 39ZM23 41L23 42L22 42L22 43L21 43L21 44L20 44L20 45L21 45L21 44L22 44L22 45L23 45L23 44L24 44L24 43L23 43L23 42L25 42L25 41ZM44 41L44 42L46 42L46 41ZM0 42L0 43L1 43L1 42ZM0 44L0 45L1 45L1 44ZM6 44L6 45L7 45L7 44ZM13 44L13 45L14 45L14 46L10 46L10 47L11 47L11 49L12 49L12 48L13 48L13 50L14 50L14 48L15 48L15 49L16 49L16 48L15 48L15 47L16 47L16 46L15 46L15 44ZM29 44L29 45L27 45L27 47L29 47L29 48L30 48L30 47L29 47L29 46L31 46L31 45L30 45L30 44ZM38 47L38 48L37 48L37 49L38 49L38 48L39 48L39 47ZM6 48L6 49L7 49L7 48ZM45 48L45 49L46 49L46 48ZM53 48L53 49L54 49L54 48ZM55 48L55 49L56 49L56 48ZM27 49L27 52L30 52L30 49ZM49 49L49 52L52 52L52 49ZM15 50L15 51L16 51L16 50ZM28 50L28 51L29 51L29 50ZM50 50L50 51L51 51L51 50ZM54 50L54 51L55 51L55 50ZM15 52L15 53L16 53L16 52ZM24 53L24 54L23 54L23 55L24 55L24 56L25 56L25 53ZM26 53L26 54L27 54L27 53ZM33 53L33 54L35 54L35 56L36 56L36 54L35 54L35 53ZM18 54L18 55L20 55L20 54ZM15 55L15 56L16 56L16 55ZM37 55L37 56L39 56L39 55ZM50 55L50 56L51 56L51 55ZM12 56L12 57L13 57L13 56ZM0 0L0 7L7 7L7 0ZM1 1L1 6L6 6L6 1ZM2 2L2 5L5 5L5 2ZM50 0L50 7L57 7L57 0ZM51 1L51 6L56 6L56 1ZM52 2L52 5L55 5L55 2ZM0 50L0 57L7 57L7 50ZM1 51L1 56L6 56L6 51ZM2 52L2 55L5 55L5 52Z" fill="#000000"/></g></g></svg>
