<?xml version="1.0" encoding="UTF-8"?>
<svg xmlns="http://www.w3.org/2000/svg" version="1.1" width="300" height="300" viewBox="0 0 300 300"><rect x="0" y="0" width="300" height="300" fill="#fefefe"/><g transform="scale(4.615)"><g transform="translate(4,4)"><path fill-rule="evenodd" d="M10 0L10 1L11 1L11 2L12 2L12 1L11 1L11 0ZM14 0L14 2L13 2L13 4L14 4L14 2L15 2L15 3L17 3L17 5L20 5L20 7L19 7L19 6L18 6L18 7L17 7L17 6L16 6L16 7L15 7L15 6L14 6L14 5L11 5L11 4L10 4L10 5L8 5L8 7L9 7L9 6L10 6L10 7L11 7L11 6L12 6L12 7L13 7L13 6L14 6L14 7L15 7L15 8L16 8L16 9L15 9L15 10L13 10L13 9L14 9L14 8L13 8L13 9L12 9L12 8L11 8L11 9L10 9L10 10L9 10L9 8L6 8L6 9L5 9L5 8L0 8L0 11L1 11L1 12L0 12L0 13L1 13L1 12L2 12L2 13L3 13L3 12L2 12L2 11L4 11L4 12L5 12L5 13L4 13L4 14L5 14L5 15L4 15L4 17L7 17L7 16L5 16L5 15L8 15L8 16L9 16L9 19L7 19L7 18L5 18L5 19L4 19L4 21L3 21L3 20L2 20L2 19L3 19L3 17L2 17L2 16L1 16L1 15L3 15L3 14L1 14L1 15L0 15L0 16L1 16L1 17L0 17L0 18L2 18L2 19L0 19L0 20L2 20L2 22L3 22L3 24L2 24L2 23L1 23L1 22L0 22L0 23L1 23L1 24L0 24L0 26L1 26L1 25L2 25L2 28L1 28L1 27L0 27L0 28L1 28L1 29L2 29L2 30L3 30L3 31L1 31L1 30L0 30L0 31L1 31L1 32L0 32L0 33L1 33L1 35L0 35L0 38L1 38L1 37L2 37L2 39L1 39L1 40L0 40L0 42L1 42L1 43L0 43L0 44L2 44L2 43L3 43L3 42L4 42L4 43L5 43L5 44L3 44L3 45L5 45L5 47L3 47L3 46L2 46L2 45L0 45L0 48L5 48L5 47L7 47L7 48L6 48L6 49L8 49L8 51L12 51L12 53L13 53L13 54L12 54L12 55L13 55L13 56L11 56L11 55L9 55L9 54L10 54L10 53L11 53L11 52L10 52L10 53L9 53L9 52L8 52L8 57L9 57L9 56L10 56L10 57L13 57L13 56L14 56L14 57L15 57L15 56L14 56L14 55L16 55L16 56L17 56L17 57L19 57L19 56L18 56L18 55L17 55L17 54L19 54L19 55L20 55L20 54L19 54L19 53L20 53L20 52L23 52L23 51L22 51L22 50L26 50L26 52L24 52L24 53L23 53L23 54L22 54L22 53L21 53L21 54L22 54L22 55L23 55L23 57L26 57L26 56L27 56L27 57L29 57L29 56L30 56L30 57L31 57L31 56L35 56L35 57L39 57L39 56L41 56L41 54L42 54L42 55L44 55L44 56L43 56L43 57L44 57L44 56L45 56L45 57L47 57L47 55L49 55L49 56L50 56L50 57L52 57L52 55L51 55L51 53L52 53L52 54L53 54L53 55L54 55L54 56L53 56L53 57L54 57L54 56L55 56L55 57L56 57L56 56L55 56L55 53L56 53L56 52L55 52L55 51L56 51L56 49L57 49L57 48L56 48L56 46L57 46L57 45L56 45L56 44L55 44L55 43L56 43L56 42L55 42L55 39L57 39L57 37L55 37L55 36L57 36L57 35L56 35L56 34L57 34L57 32L56 32L56 30L57 30L57 29L56 29L56 27L55 27L55 26L57 26L57 25L56 25L56 22L57 22L57 21L56 21L56 20L55 20L55 18L57 18L57 17L56 17L56 16L57 16L57 15L56 15L56 14L57 14L57 13L56 13L56 14L55 14L55 13L54 13L54 12L55 12L55 11L56 11L56 8L55 8L55 10L54 10L54 11L51 11L51 10L53 10L53 9L54 9L54 8L53 8L53 9L52 9L52 8L51 8L51 10L49 10L49 9L50 9L50 8L49 8L49 6L48 6L48 7L47 7L47 5L48 5L48 0L45 0L45 2L44 2L44 3L41 3L41 2L43 2L43 0L41 0L41 1L40 1L40 0L39 0L39 1L38 1L38 0L37 0L37 1L38 1L38 3L36 3L36 0L35 0L35 1L33 1L33 2L32 2L32 0L29 0L29 1L26 1L26 0L23 0L23 1L22 1L22 0L21 0L21 1L19 1L19 2L21 2L21 3L22 3L22 2L27 2L27 3L29 3L29 1L30 1L30 2L32 2L32 3L31 3L31 4L26 4L26 3L23 3L23 4L24 4L24 5L23 5L23 6L22 6L22 8L23 8L23 6L24 6L24 9L23 9L23 10L22 10L22 9L21 9L21 10L20 10L20 8L21 8L21 5L22 5L22 4L19 4L19 3L17 3L17 2L18 2L18 0L17 0L17 1L15 1L15 0ZM8 1L8 2L9 2L9 3L8 3L8 4L9 4L9 3L10 3L10 2L9 2L9 1ZM46 1L46 2L47 2L47 1ZM32 3L32 4L31 4L31 8L32 8L32 10L29 10L29 9L28 9L28 10L29 10L29 12L28 12L28 13L27 13L27 14L26 14L26 12L27 12L27 11L26 11L26 12L25 12L25 10L23 10L23 13L22 13L22 12L20 12L20 11L19 11L19 13L20 13L20 15L19 15L19 16L20 16L20 19L18 19L18 20L20 20L20 21L18 21L18 22L17 22L17 24L16 24L16 23L14 23L14 24L15 24L15 26L14 26L14 25L13 25L13 24L11 24L11 23L10 23L10 22L9 22L9 23L8 23L8 24L7 24L7 23L6 23L6 22L7 22L7 21L8 21L8 20L7 20L7 19L6 19L6 20L7 20L7 21L5 21L5 23L4 23L4 24L3 24L3 30L4 30L4 24L5 24L5 26L7 26L7 25L8 25L8 26L9 26L9 28L10 28L10 25L13 25L13 27L12 27L12 26L11 26L11 27L12 27L12 28L11 28L11 29L10 29L10 30L9 30L9 31L4 31L4 32L7 32L7 33L6 33L6 34L5 34L5 33L4 33L4 36L5 36L5 37L6 37L6 38L7 38L7 37L8 37L8 38L9 38L9 36L7 36L7 35L6 35L6 34L7 34L7 33L8 33L8 34L9 34L9 35L11 35L11 34L12 34L12 33L11 33L11 32L12 32L12 31L14 31L14 32L13 32L13 33L14 33L14 32L16 32L16 33L15 33L15 34L13 34L13 36L10 36L10 37L11 37L11 38L12 38L12 37L16 37L16 38L13 38L13 39L12 39L12 40L11 40L11 39L10 39L10 40L9 40L9 39L6 39L6 40L8 40L8 41L9 41L9 42L12 42L12 43L11 43L11 44L10 44L10 43L6 43L6 42L7 42L7 41L4 41L4 42L5 42L5 43L6 43L6 44L5 44L5 45L6 45L6 46L8 46L8 47L9 47L9 46L10 46L10 47L11 47L11 48L12 48L12 51L13 51L13 52L14 52L14 53L15 53L15 54L16 54L16 53L17 53L17 52L18 52L18 51L19 51L19 50L20 50L20 51L21 51L21 49L23 49L23 48L24 48L24 49L26 49L26 48L27 48L27 47L28 47L28 48L29 48L29 47L28 47L28 46L30 46L30 45L28 45L28 44L25 44L25 46L23 46L23 45L24 45L24 44L23 44L23 45L22 45L22 44L21 44L21 43L22 43L22 42L23 42L23 43L27 43L27 42L32 42L32 43L33 43L33 44L32 44L32 46L31 46L31 47L32 47L32 46L35 46L35 47L33 47L33 48L31 48L31 53L30 53L30 54L27 54L27 53L24 53L24 54L23 54L23 55L24 55L24 56L25 56L25 54L26 54L26 55L27 55L27 56L29 56L29 55L30 55L30 56L31 56L31 54L32 54L32 53L33 53L33 55L35 55L35 56L36 56L36 54L35 54L35 53L33 53L33 52L32 52L32 49L33 49L33 51L35 51L35 50L36 50L36 52L37 52L37 51L38 51L38 52L39 52L39 53L37 53L37 54L40 54L40 53L43 53L43 54L44 54L44 55L45 55L45 54L46 54L46 55L47 55L47 54L48 54L48 50L47 50L47 49L48 49L48 48L50 48L50 47L51 47L51 48L53 48L53 49L54 49L54 48L53 48L53 47L54 47L54 45L55 45L55 46L56 46L56 45L55 45L55 44L54 44L54 45L52 45L52 44L53 44L53 43L54 43L54 42L53 42L53 41L51 41L51 42L50 42L50 43L49 43L49 42L48 42L48 41L49 41L49 39L47 39L47 37L48 37L48 38L49 38L49 37L48 37L48 36L50 36L50 39L51 39L51 38L52 38L52 40L53 40L53 39L54 39L54 38L53 38L53 35L55 35L55 34L54 34L54 33L56 33L56 32L54 32L54 30L53 30L53 31L51 31L51 33L52 33L52 34L50 34L50 31L48 31L48 28L47 28L47 29L46 29L46 30L47 30L47 31L48 31L48 32L46 32L46 31L45 31L45 32L43 32L43 30L45 30L45 28L46 28L46 27L47 27L47 25L48 25L48 24L49 24L49 25L50 25L50 26L51 26L51 25L54 25L54 24L53 24L53 23L55 23L55 22L56 22L56 21L55 21L55 20L53 20L53 19L52 19L52 20L51 20L51 21L49 21L49 23L48 23L48 24L47 24L47 25L45 25L45 23L46 23L46 22L47 22L47 21L48 21L48 20L47 20L47 21L46 21L46 20L44 20L44 18L46 18L46 19L48 19L48 18L47 18L47 17L48 17L48 16L49 16L49 15L50 15L50 14L51 14L51 12L50 12L50 11L49 11L49 10L48 10L48 11L49 11L49 12L45 12L45 11L46 11L46 10L47 10L47 7L46 7L46 6L45 6L45 5L47 5L47 3L44 3L44 6L43 6L43 5L42 5L42 6L41 6L41 5L40 5L40 4L41 4L41 3L38 3L38 6L37 6L37 7L36 7L36 5L37 5L37 4L36 4L36 5L35 5L35 4L33 4L33 3ZM15 4L15 5L16 5L16 4ZM25 4L25 8L26 8L26 4ZM32 4L32 5L33 5L33 6L32 6L32 7L33 7L33 9L34 9L34 8L35 8L35 9L37 9L37 10L36 10L36 12L35 12L35 13L37 13L37 14L38 14L38 15L39 15L39 16L38 16L38 17L37 17L37 16L35 16L35 14L33 14L33 13L34 13L34 12L33 12L33 10L32 10L32 12L31 12L31 13L30 13L30 14L29 14L29 13L28 13L28 14L29 14L29 16L28 16L28 15L27 15L27 16L26 16L26 14L25 14L25 12L24 12L24 13L23 13L23 14L22 14L22 13L21 13L21 15L24 15L24 16L26 16L26 17L22 17L22 16L21 16L21 17L22 17L22 19L23 19L23 20L24 20L24 21L22 21L22 20L21 20L21 19L20 19L20 20L21 20L21 21L22 21L22 23L23 23L23 25L22 25L22 26L20 26L20 25L21 25L21 24L20 24L20 25L19 25L19 24L17 24L17 25L18 25L18 26L17 26L17 27L18 27L18 26L20 26L20 27L19 27L19 29L18 29L18 28L16 28L16 29L15 29L15 28L12 28L12 29L15 29L15 30L14 30L14 31L16 31L16 29L18 29L18 31L17 31L17 34L16 34L16 35L14 35L14 36L16 36L16 35L18 35L18 36L17 36L17 37L18 37L18 38L17 38L17 39L18 39L18 38L20 38L20 39L19 39L19 40L17 40L17 41L19 41L19 42L18 42L18 43L17 43L17 42L14 42L14 39L13 39L13 40L12 40L12 42L13 42L13 43L14 43L14 44L11 44L11 45L12 45L12 46L13 46L13 45L14 45L14 49L13 49L13 50L15 50L15 51L14 51L14 52L15 52L15 53L16 53L16 52L17 52L17 51L18 51L18 50L19 50L19 49L21 49L21 48L20 48L20 47L23 47L23 46L22 46L22 45L21 45L21 46L20 46L20 45L19 45L19 44L20 44L20 43L21 43L21 42L22 42L22 41L21 41L21 42L20 42L20 41L19 41L19 40L22 40L22 39L24 39L24 40L25 40L25 37L26 37L26 36L27 36L27 35L26 35L26 34L27 34L27 33L26 33L26 32L28 32L28 33L29 33L29 34L30 34L30 36L29 36L29 37L31 37L31 38L29 38L29 39L33 39L33 40L35 40L35 42L37 42L37 43L36 43L36 44L35 44L35 43L34 43L34 42L33 42L33 41L32 41L32 40L30 40L30 41L32 41L32 42L33 42L33 43L34 43L34 45L35 45L35 46L36 46L36 48L35 48L35 49L36 49L36 50L38 50L38 51L40 51L40 52L41 52L41 50L42 50L42 51L43 51L43 53L44 53L44 54L45 54L45 53L44 53L44 52L45 52L45 51L46 51L46 52L47 52L47 51L46 51L46 50L45 50L45 51L44 51L44 48L43 48L43 47L44 47L44 46L43 46L43 45L44 45L44 44L45 44L45 45L47 45L47 43L48 43L48 42L46 42L46 44L45 44L45 41L47 41L47 39L46 39L46 38L45 38L45 37L44 37L44 36L46 36L46 37L47 37L47 36L46 36L46 35L44 35L44 33L43 33L43 32L41 32L41 33L39 33L39 34L40 34L40 35L38 35L38 33L37 33L37 32L35 32L35 34L37 34L37 35L38 35L38 37L37 37L37 36L35 36L35 35L34 35L34 34L33 34L33 33L32 33L32 31L36 31L36 30L37 30L37 29L38 29L38 28L40 28L40 27L37 27L37 28L35 28L35 27L36 27L36 26L34 26L34 27L33 27L33 26L32 26L32 24L33 24L33 25L37 25L37 26L38 26L38 25L40 25L40 26L43 26L43 27L44 27L44 28L43 28L43 29L40 29L40 30L43 30L43 29L44 29L44 28L45 28L45 27L46 27L46 26L45 26L45 25L44 25L44 20L43 20L43 21L39 21L39 20L41 20L41 18L42 18L42 19L43 19L43 18L44 18L44 15L45 15L45 17L47 17L47 16L48 16L48 15L49 15L49 14L50 14L50 12L49 12L49 13L47 13L47 14L44 14L44 11L45 11L45 10L44 10L44 8L46 8L46 7L45 7L45 6L44 6L44 8L42 8L42 7L43 7L43 6L42 6L42 7L41 7L41 6L40 6L40 5L39 5L39 6L38 6L38 9L37 9L37 8L35 8L35 5L33 5L33 4ZM27 5L27 8L30 8L30 5ZM28 6L28 7L29 7L29 6ZM33 6L33 7L34 7L34 6ZM39 6L39 9L38 9L38 10L37 10L37 11L41 11L41 12L39 12L39 13L38 13L38 14L39 14L39 15L41 15L41 16L39 16L39 17L38 17L38 18L37 18L37 17L35 17L35 16L33 16L33 15L32 15L32 13L33 13L33 12L32 12L32 13L31 13L31 14L30 14L30 15L32 15L32 18L30 18L30 19L33 19L33 18L35 18L35 19L36 19L36 20L37 20L37 21L38 21L38 22L37 22L37 24L40 24L40 25L43 25L43 23L42 23L42 22L41 22L41 24L40 24L40 22L39 22L39 21L38 21L38 19L39 19L39 17L41 17L41 16L42 16L42 17L43 17L43 16L42 16L42 15L44 15L44 14L39 14L39 13L43 13L43 11L44 11L44 10L43 10L43 11L42 11L42 10L41 10L41 7L40 7L40 6ZM16 7L16 8L17 8L17 7ZM2 9L2 10L1 10L1 11L2 11L2 10L3 10L3 9ZM6 9L6 10L4 10L4 11L5 11L5 12L7 12L7 13L6 13L6 14L8 14L8 15L9 15L9 16L10 16L10 15L9 15L9 14L10 14L10 13L11 13L11 17L10 17L10 19L11 19L11 20L9 20L9 21L11 21L11 22L12 22L12 23L13 23L13 21L14 21L14 22L16 22L16 21L17 21L17 20L16 20L16 19L17 19L17 17L16 17L16 16L18 16L18 14L17 14L17 13L18 13L18 12L17 12L17 11L18 11L18 10L19 10L19 9L16 9L16 10L15 10L15 11L16 11L16 12L15 12L15 13L13 13L13 14L12 14L12 13L11 13L11 12L12 12L12 11L13 11L13 12L14 12L14 11L13 11L13 10L12 10L12 9L11 9L11 10L10 10L10 12L9 12L9 10L8 10L8 9ZM6 10L6 11L7 11L7 12L8 12L8 14L9 14L9 12L8 12L8 11L7 11L7 10ZM21 10L21 11L22 11L22 10ZM16 12L16 13L15 13L15 14L13 14L13 15L12 15L12 17L11 17L11 19L12 19L12 17L13 17L13 18L14 18L14 15L15 15L15 16L16 16L16 13L17 13L17 12ZM52 12L52 13L53 13L53 12ZM46 15L46 16L47 16L47 15ZM27 16L27 17L26 17L26 18L27 18L27 19L26 19L26 21L27 21L27 24L25 24L25 23L26 23L26 22L25 22L25 21L24 21L24 22L23 22L23 23L24 23L24 24L25 24L25 25L26 25L26 26L25 26L25 27L24 27L24 26L22 26L22 27L21 27L21 28L20 28L20 30L19 30L19 32L21 32L21 33L20 33L20 34L19 34L19 33L18 33L18 34L19 34L19 35L20 35L20 36L19 36L19 37L21 37L21 38L24 38L24 37L23 37L23 36L24 36L24 34L23 34L23 33L25 33L25 34L26 34L26 33L25 33L25 32L26 32L26 31L24 31L24 30L23 30L23 29L26 29L26 28L25 28L25 27L26 27L26 26L27 26L27 25L29 25L29 26L30 26L30 25L31 25L31 24L32 24L32 23L33 23L33 22L34 22L34 23L35 23L35 21L34 21L34 20L32 20L32 21L31 21L31 20L29 20L29 19L28 19L28 18L27 18L27 17L28 17L28 16ZM50 16L50 18L49 18L49 19L51 19L51 17L53 17L53 18L55 18L55 17L53 17L53 16ZM23 18L23 19L24 19L24 18ZM13 19L13 20L14 20L14 19ZM11 20L11 21L12 21L12 20ZM15 20L15 21L16 21L16 20ZM28 21L28 22L29 22L29 23L28 23L28 24L29 24L29 25L30 25L30 24L29 24L29 23L30 23L30 22L31 22L31 21L30 21L30 22L29 22L29 21ZM45 21L45 22L46 22L46 21ZM51 21L51 22L50 22L50 23L53 23L53 21ZM19 22L19 23L20 23L20 22ZM38 22L38 23L39 23L39 22ZM5 23L5 24L6 24L6 25L7 25L7 24L6 24L6 23ZM9 23L9 24L8 24L8 25L10 25L10 23ZM50 24L50 25L51 25L51 24ZM15 26L15 27L16 27L16 26ZM31 26L31 27L32 27L32 30L31 30L31 31L30 31L30 32L29 32L29 31L28 31L28 32L29 32L29 33L31 33L31 35L33 35L33 36L32 36L32 37L33 37L33 38L35 38L35 37L33 37L33 36L34 36L34 35L33 35L33 34L32 34L32 33L31 33L31 31L32 31L32 30L35 30L35 28L33 28L33 27L32 27L32 26ZM44 26L44 27L45 27L45 26ZM53 26L53 27L54 27L54 26ZM5 27L5 30L8 30L8 27ZM27 27L27 30L30 30L30 27ZM41 27L41 28L42 28L42 27ZM49 27L49 30L52 30L52 27ZM6 28L6 29L7 29L7 28ZM21 28L21 29L22 29L22 28ZM28 28L28 29L29 29L29 28ZM50 28L50 29L51 29L51 28ZM54 28L54 29L55 29L55 28ZM10 30L10 31L9 31L9 32L10 32L10 31L12 31L12 30ZM20 30L20 31L21 31L21 32L24 32L24 31L21 31L21 30ZM38 30L38 32L39 32L39 30ZM48 32L48 33L49 33L49 32ZM52 32L52 33L54 33L54 32ZM2 33L2 35L3 35L3 33ZM9 33L9 34L11 34L11 33ZM21 33L21 35L22 35L22 33ZM42 34L42 35L41 35L41 36L40 36L40 37L38 37L38 38L37 38L37 39L35 39L35 40L38 40L38 42L39 42L39 41L43 41L43 39L45 39L45 40L44 40L44 41L45 41L45 40L46 40L46 39L45 39L45 38L44 38L44 37L43 37L43 38L42 38L42 39L41 39L41 38L40 38L40 37L41 37L41 36L42 36L42 35L43 35L43 36L44 36L44 35L43 35L43 34ZM48 34L48 35L50 35L50 36L52 36L52 35L53 35L53 34L52 34L52 35L50 35L50 34ZM2 36L2 37L3 37L3 39L4 39L4 40L5 40L5 39L4 39L4 37L3 37L3 36ZM6 36L6 37L7 37L7 36ZM27 37L27 38L26 38L26 40L28 40L28 39L27 39L27 38L28 38L28 37ZM38 38L38 40L41 40L41 39L39 39L39 38ZM15 39L15 41L16 41L16 39ZM1 40L1 41L2 41L2 40ZM23 41L23 42L25 42L25 41ZM26 41L26 42L27 42L27 41ZM43 42L43 44L44 44L44 42ZM51 42L51 43L50 43L50 44L48 44L48 46L45 46L45 49L47 49L47 48L48 48L48 47L50 47L50 46L49 46L49 45L50 45L50 44L51 44L51 43L53 43L53 42ZM39 43L39 45L38 45L38 46L39 46L39 47L38 47L38 48L37 48L37 49L38 49L38 50L41 50L41 48L42 48L42 49L43 49L43 48L42 48L42 47L43 47L43 46L41 46L41 48L39 48L39 47L40 47L40 46L39 46L39 45L41 45L41 44L42 44L42 43ZM6 44L6 45L7 45L7 44ZM9 44L9 45L10 45L10 44ZM15 44L15 49L16 49L16 50L18 50L18 49L16 49L16 48L18 48L18 47L20 47L20 46L17 46L17 45L18 45L18 44ZM26 45L26 47L27 47L27 46L28 46L28 45ZM1 46L1 47L2 47L2 46ZM51 46L51 47L53 47L53 46ZM12 47L12 48L13 48L13 47ZM46 47L46 48L47 48L47 47ZM38 48L38 49L39 49L39 48ZM55 48L55 49L56 49L56 48ZM10 49L10 50L11 50L11 49ZM27 49L27 52L30 52L30 49ZM49 49L49 52L52 52L52 49ZM28 50L28 51L29 51L29 50ZM50 50L50 51L51 51L51 50ZM54 50L54 51L55 51L55 50ZM15 51L15 52L16 52L16 51ZM53 52L53 54L54 54L54 52ZM37 55L37 56L39 56L39 55ZM50 55L50 56L51 56L51 55ZM0 0L0 7L7 7L7 0ZM1 1L1 6L6 6L6 1ZM2 2L2 5L5 5L5 2ZM50 0L50 7L57 7L57 0ZM51 1L51 6L56 6L56 1ZM52 2L52 5L55 5L55 2ZM0 50L0 57L7 57L7 50ZM1 51L1 56L6 56L6 51ZM2 52L2 55L5 55L5 52Z" fill="#000000"/></g></g></svg>
