<?xml version="1.0" encoding="UTF-8"?>
<svg xmlns="http://www.w3.org/2000/svg" version="1.1" width="300" height="300" viewBox="0 0 300 300"><rect x="0" y="0" width="300" height="300" fill="#fefefe"/><g transform="scale(4.615)"><g transform="translate(4,4)"><path fill-rule="evenodd" d="M8 0L8 1L9 1L9 0ZM12 0L12 1L10 1L10 2L11 2L11 3L12 3L12 2L13 2L13 0ZM14 0L14 1L15 1L15 0ZM17 0L17 1L18 1L18 0ZM21 0L21 1L20 1L20 3L21 3L21 1L22 1L22 3L23 3L23 5L20 5L20 4L19 4L19 3L18 3L18 2L15 2L15 3L17 3L17 4L19 4L19 5L15 5L15 4L14 4L14 3L13 3L13 4L14 4L14 5L13 5L13 6L12 6L12 7L13 7L13 6L14 6L14 7L15 7L15 6L16 6L16 7L17 7L17 6L18 6L18 7L19 7L19 11L20 11L20 7L21 7L21 6L22 6L22 7L23 7L23 8L21 8L21 9L23 9L23 10L21 10L21 11L23 11L23 12L22 12L22 13L25 13L25 11L26 11L26 10L27 10L27 11L30 11L30 12L31 12L31 13L32 13L32 11L30 11L30 10L32 10L32 9L31 9L31 6L32 6L32 8L33 8L33 6L34 6L34 9L36 9L36 8L37 8L37 10L38 10L38 12L37 12L37 11L36 11L36 10L35 10L35 11L34 11L34 10L33 10L33 14L30 14L30 13L28 13L28 12L26 12L26 13L27 13L27 14L25 14L25 16L23 16L23 18L24 18L24 19L25 19L25 22L24 22L24 21L23 21L23 19L22 19L22 17L21 17L21 16L20 16L20 17L21 17L21 18L20 18L20 19L22 19L22 22L23 22L23 23L21 23L21 22L19 22L19 21L18 21L18 20L19 20L19 18L18 18L18 17L17 17L17 16L18 16L18 15L17 15L17 14L16 14L16 15L15 15L15 12L16 12L16 13L17 13L17 12L18 12L18 13L19 13L19 14L21 14L21 12L20 12L20 13L19 13L19 12L18 12L18 10L17 10L17 11L16 11L16 10L15 10L15 11L14 11L14 9L13 9L13 12L11 12L11 11L8 11L8 12L10 12L10 15L9 15L9 13L7 13L7 12L6 12L6 11L7 11L7 10L5 10L5 9L4 9L4 8L0 8L0 9L2 9L2 11L3 11L3 9L4 9L4 11L5 11L5 12L4 12L4 13L5 13L5 12L6 12L6 13L7 13L7 14L4 14L4 15L3 15L3 12L1 12L1 10L0 10L0 12L1 12L1 13L2 13L2 17L0 17L0 23L1 23L1 24L2 24L2 25L0 25L0 26L2 26L2 25L4 25L4 26L3 26L3 27L4 27L4 28L2 28L2 29L3 29L3 30L2 30L2 31L1 31L1 28L0 28L0 31L1 31L1 32L2 32L2 33L1 33L1 34L2 34L2 33L3 33L3 35L4 35L4 37L3 37L3 38L2 38L2 35L0 35L0 36L1 36L1 38L2 38L2 40L1 40L1 39L0 39L0 41L1 41L1 42L4 42L4 41L7 41L7 42L5 42L5 43L4 43L4 45L5 45L5 47L3 47L3 45L2 45L2 44L1 44L1 43L0 43L0 45L1 45L1 46L0 46L0 48L5 48L5 47L7 47L7 48L6 48L6 49L7 49L7 48L8 48L8 50L10 50L10 51L9 51L9 53L8 53L8 57L9 57L9 55L11 55L11 56L10 56L10 57L12 57L12 56L13 56L13 57L18 57L18 56L19 56L19 57L20 57L20 56L21 56L21 57L23 57L23 54L25 54L25 55L24 55L24 56L28 56L28 55L27 55L27 53L29 53L29 54L31 54L31 55L30 55L30 56L31 56L31 57L32 57L32 55L34 55L34 56L33 56L33 57L36 57L36 55L38 55L38 57L43 57L43 55L44 55L44 56L45 56L45 57L46 57L46 55L44 55L44 54L47 54L47 55L49 55L49 57L51 57L51 54L52 54L52 53L54 53L54 52L56 52L56 53L55 53L55 54L56 54L56 53L57 53L57 51L55 51L55 50L57 50L57 48L56 48L56 49L55 49L55 48L54 48L54 46L55 46L55 47L57 47L57 45L56 45L56 46L55 46L55 44L56 44L56 41L57 41L57 40L56 40L56 41L55 41L55 38L56 38L56 39L57 39L57 38L56 38L56 37L57 37L57 36L56 36L56 35L57 35L57 31L56 31L56 30L57 30L57 29L56 29L56 28L57 28L57 27L56 27L56 28L55 28L55 27L53 27L53 26L52 26L52 25L51 25L51 24L50 24L50 23L49 23L49 21L47 21L47 22L46 22L46 25L45 25L45 26L42 26L42 27L41 27L41 26L40 26L40 23L41 23L41 22L43 22L43 23L42 23L42 24L43 24L43 25L44 25L44 23L45 23L45 22L44 22L44 21L43 21L43 18L42 18L42 17L45 17L45 18L44 18L44 19L45 19L45 18L46 18L46 20L47 20L47 18L48 18L48 19L49 19L49 20L50 20L50 21L51 21L51 22L52 22L52 24L53 24L53 25L54 25L54 23L57 23L57 21L56 21L56 22L54 22L54 21L55 21L55 20L54 20L54 21L53 21L53 20L50 20L50 19L49 19L49 18L48 18L48 17L47 17L47 16L48 16L48 14L47 14L47 16L46 16L46 15L45 15L45 14L46 14L46 13L44 13L44 12L43 12L43 11L44 11L44 10L45 10L45 11L47 11L47 12L49 12L49 17L50 17L50 15L51 15L51 13L52 13L52 14L53 14L53 13L54 13L54 10L52 10L52 9L55 9L55 8L52 8L52 9L51 9L51 11L50 11L50 10L49 10L49 9L50 9L50 8L48 8L48 9L47 9L47 8L45 8L45 6L44 6L44 7L43 7L43 5L45 5L45 4L44 4L44 3L45 3L45 2L46 2L46 3L47 3L47 5L46 5L46 7L47 7L47 5L48 5L48 0L46 0L46 1L44 1L44 2L42 2L42 3L41 3L41 4L39 4L39 2L37 2L37 1L38 1L38 0L37 0L37 1L36 1L36 0L35 0L35 1L34 1L34 2L35 2L35 3L34 3L34 4L36 4L36 5L37 5L37 6L36 6L36 7L35 7L35 6L34 6L34 5L33 5L33 6L32 6L32 5L31 5L31 4L32 4L32 3L33 3L33 0L32 0L32 2L31 2L31 3L30 3L30 1L31 1L31 0L29 0L29 1L28 1L28 2L27 2L27 3L30 3L30 4L26 4L26 1L25 1L25 0L23 0L23 1L22 1L22 0ZM39 0L39 1L40 1L40 2L41 2L41 1L43 1L43 0L41 0L41 1L40 1L40 0ZM23 1L23 3L24 3L24 2L25 2L25 1ZM35 1L35 2L36 2L36 1ZM46 1L46 2L47 2L47 1ZM8 2L8 5L9 5L9 6L8 6L8 7L9 7L9 6L10 6L10 7L11 7L11 5L12 5L12 4L10 4L10 3L9 3L9 2ZM37 3L37 4L38 4L38 3ZM24 4L24 6L23 6L23 7L24 7L24 9L26 9L26 6L25 6L25 5L26 5L26 4ZM41 4L41 5L43 5L43 4ZM27 5L27 8L30 8L30 5ZM38 5L38 6L37 6L37 7L38 7L38 8L41 8L41 9L40 9L40 11L39 11L39 15L37 15L37 13L36 13L36 15L35 15L35 12L36 12L36 11L35 11L35 12L34 12L34 14L33 14L33 15L35 15L35 16L34 16L34 17L35 17L35 18L34 18L34 20L33 20L33 17L32 17L32 16L29 16L29 15L28 15L28 16L29 16L29 17L27 17L27 15L26 15L26 16L25 16L25 17L24 17L24 18L25 18L25 19L26 19L26 18L27 18L27 20L26 20L26 21L27 21L27 22L25 22L25 25L24 25L24 24L22 24L22 25L23 25L23 27L22 27L22 26L19 26L19 27L17 27L17 30L16 30L16 29L15 29L15 30L16 30L16 33L15 33L15 35L16 35L16 36L15 36L15 38L13 38L13 40L12 40L12 38L11 38L11 36L12 36L12 37L13 37L13 36L12 36L12 35L14 35L14 33L13 33L13 32L10 32L10 31L8 31L8 32L7 32L7 31L6 31L6 32L7 32L7 33L6 33L6 34L5 34L5 33L4 33L4 35L5 35L5 39L4 39L4 38L3 38L3 41L4 41L4 40L7 40L7 39L6 39L6 38L7 38L7 37L6 37L6 36L7 36L7 35L6 35L6 34L9 34L9 36L8 36L8 41L9 41L9 42L11 42L11 44L10 44L10 46L9 46L9 45L8 45L8 43L5 43L5 45L6 45L6 46L7 46L7 47L8 47L8 48L9 48L9 49L11 49L11 48L10 48L10 46L11 46L11 44L13 44L13 43L14 43L14 46L13 46L13 45L12 45L12 50L13 50L13 47L14 47L14 46L16 46L16 47L17 47L17 48L18 48L18 47L17 47L17 45L19 45L19 43L21 43L21 44L20 44L20 46L19 46L19 47L20 47L20 48L21 48L21 53L20 53L20 55L19 55L19 52L20 52L20 49L16 49L16 52L15 52L15 51L14 51L14 52L13 52L13 51L10 51L10 52L11 52L11 53L12 53L12 55L13 55L13 56L14 56L14 55L13 55L13 54L14 54L14 52L15 52L15 53L16 53L16 54L17 54L17 55L19 55L19 56L20 56L20 55L21 55L21 56L22 56L22 55L21 55L21 53L22 53L22 54L23 54L23 52L24 52L24 53L25 53L25 52L26 52L26 51L24 51L24 50L25 50L25 49L26 49L26 48L28 48L28 47L27 47L27 46L29 46L29 47L30 47L30 48L32 48L32 49L31 49L31 50L32 50L32 51L31 51L31 53L32 53L32 51L33 51L33 53L36 53L36 54L34 54L34 55L36 55L36 54L39 54L39 53L37 53L37 51L36 51L36 52L35 52L35 49L34 49L34 51L33 51L33 50L32 50L32 49L33 49L33 47L34 47L34 46L35 46L35 48L37 48L37 49L36 49L36 50L37 50L37 49L38 49L38 48L39 48L39 49L40 49L40 50L39 50L39 52L40 52L40 54L41 54L41 55L40 55L40 56L42 56L42 54L43 54L43 51L46 51L46 50L47 50L47 52L48 52L48 48L47 48L47 47L46 47L46 46L48 46L48 47L49 47L49 48L50 48L50 46L51 46L51 47L52 47L52 46L53 46L53 44L55 44L55 43L54 43L54 42L55 42L55 41L54 41L54 42L53 42L53 43L52 43L52 45L51 45L51 42L50 42L50 41L52 41L52 40L53 40L53 39L54 39L54 38L53 38L53 36L52 36L52 35L51 35L51 37L52 37L52 40L50 40L50 41L47 41L47 40L49 40L49 38L48 38L48 37L49 37L49 36L48 36L48 35L49 35L49 34L50 34L50 33L49 33L49 32L48 32L48 29L47 29L47 33L46 33L46 31L44 31L44 29L42 29L42 30L41 30L41 31L40 31L40 30L39 30L39 29L38 29L38 30L36 30L36 31L37 31L37 32L36 32L36 33L37 33L37 32L38 32L38 34L39 34L39 31L40 31L40 32L41 32L41 31L44 31L44 33L45 33L45 34L46 34L46 36L44 36L44 37L43 37L43 36L42 36L42 34L41 34L41 35L37 35L37 36L40 36L40 37L41 37L41 39L40 39L40 41L37 41L37 40L38 40L38 39L39 39L39 38L38 38L38 39L37 39L37 37L34 37L34 38L36 38L36 39L35 39L35 40L34 40L34 41L36 41L36 42L34 42L34 43L36 43L36 46L35 46L35 44L34 44L34 45L33 45L33 42L32 42L32 43L31 43L31 46L30 46L30 44L29 44L29 45L28 45L28 43L29 43L29 42L25 42L25 41L26 41L26 40L27 40L27 39L26 39L26 38L29 38L29 36L32 36L32 38L30 38L30 39L28 39L28 41L30 41L30 42L31 42L31 40L33 40L33 39L32 39L32 38L33 38L33 36L36 36L36 35L35 35L35 32L31 32L31 33L33 33L33 34L34 34L34 35L33 35L33 36L32 36L32 35L31 35L31 34L30 34L30 35L29 35L29 33L30 33L30 31L28 31L28 33L27 33L27 31L25 31L25 30L26 30L26 28L25 28L25 25L27 25L27 26L28 26L28 25L29 25L29 26L31 26L31 25L29 25L29 24L30 24L30 19L31 19L31 17L32 17L32 20L31 20L31 23L32 23L32 22L34 22L34 23L33 23L33 24L32 24L32 25L33 25L33 24L35 24L35 23L36 23L36 24L37 24L37 23L38 23L38 24L39 24L39 23L38 23L38 22L39 22L39 21L38 21L38 20L40 20L40 19L39 19L39 18L41 18L41 19L42 19L42 18L41 18L41 17L42 17L42 14L44 14L44 13L43 13L43 12L42 12L42 11L43 11L43 10L41 10L41 9L45 9L45 8L43 8L43 7L42 7L42 6L41 6L41 7L40 7L40 5ZM19 6L19 7L20 7L20 6ZM24 6L24 7L25 7L25 6ZM28 6L28 7L29 7L29 6ZM38 6L38 7L39 7L39 6ZM48 6L48 7L49 7L49 6ZM6 8L6 9L7 9L7 8ZM8 8L8 10L9 10L9 8ZM10 8L10 10L11 10L11 9L12 9L12 8ZM15 8L15 9L16 9L16 8ZM17 8L17 9L18 9L18 8ZM56 8L56 9L57 9L57 8ZM38 9L38 10L39 10L39 9ZM46 9L46 10L47 10L47 9ZM55 10L55 12L56 12L56 13L57 13L57 12L56 12L56 11L57 11L57 10ZM51 11L51 12L50 12L50 13L51 13L51 12L52 12L52 13L53 13L53 11ZM11 13L11 14L12 14L12 16L11 16L11 17L10 17L10 16L9 16L9 17L8 17L8 16L7 16L7 15L8 15L8 14L7 14L7 15L4 15L4 17L2 17L2 19L1 19L1 20L3 20L3 21L4 21L4 20L5 20L5 22L2 22L2 24L3 24L3 23L4 23L4 24L5 24L5 26L7 26L7 25L6 25L6 24L8 24L8 25L9 25L9 24L8 24L8 20L7 20L7 19L9 19L9 20L10 20L10 18L11 18L11 17L12 17L12 16L14 16L14 15L13 15L13 14L14 14L14 13ZM40 13L40 14L41 14L41 13ZM0 14L0 15L1 15L1 14ZM23 14L23 15L24 15L24 14ZM16 15L16 16L17 16L17 15ZM39 15L39 17L40 17L40 16L41 16L41 15ZM44 15L44 16L45 16L45 15ZM53 15L53 17L54 17L54 18L51 18L51 19L55 19L55 17L56 17L56 18L57 18L57 15ZM5 16L5 17L4 17L4 19L3 19L3 20L4 20L4 19L5 19L5 20L6 20L6 21L7 21L7 20L6 20L6 19L7 19L7 18L8 18L8 17L7 17L7 16ZM51 16L51 17L52 17L52 16ZM54 16L54 17L55 17L55 16ZM6 17L6 18L5 18L5 19L6 19L6 18L7 18L7 17ZM13 17L13 19L15 19L15 20L14 20L14 23L11 23L11 22L12 22L12 21L13 21L13 20L11 20L11 21L9 21L9 22L10 22L10 24L11 24L11 25L12 25L12 26L11 26L11 29L12 29L12 30L11 30L11 31L12 31L12 30L13 30L13 29L12 29L12 26L14 26L14 25L16 25L16 26L17 26L17 24L18 24L18 23L16 23L16 20L17 20L17 18L16 18L16 17ZM25 17L25 18L26 18L26 17ZM29 17L29 18L28 18L28 19L30 19L30 17ZM36 17L36 18L37 18L37 17ZM15 18L15 19L16 19L16 18ZM36 19L36 20L34 20L34 21L35 21L35 22L38 22L38 21L36 21L36 20L38 20L38 19ZM56 19L56 20L57 20L57 19ZM27 20L27 21L28 21L28 22L27 22L27 23L26 23L26 24L27 24L27 23L28 23L28 24L29 24L29 23L28 23L28 22L29 22L29 20ZM41 20L41 21L42 21L42 20ZM5 22L5 24L6 24L6 23L7 23L7 22ZM47 22L47 23L48 23L48 22ZM14 23L14 24L13 24L13 25L14 25L14 24L16 24L16 23ZM20 23L20 24L21 24L21 23ZM47 24L47 25L46 25L46 26L45 26L45 30L46 30L46 26L47 26L47 27L48 27L48 26L49 26L49 25L50 25L50 24ZM55 24L55 25L56 25L56 24ZM34 25L34 27L35 27L35 25ZM38 26L38 27L40 27L40 29L41 29L41 27L40 27L40 26ZM5 27L5 30L8 30L8 27ZM13 27L13 28L14 28L14 27ZM15 27L15 28L16 28L16 27ZM19 27L19 28L18 28L18 29L21 29L21 30L20 30L20 31L17 31L17 34L16 34L16 35L17 35L17 34L19 34L19 35L18 35L18 38L15 38L15 39L14 39L14 40L13 40L13 41L14 41L14 40L16 40L16 41L15 41L15 42L14 42L14 43L15 43L15 42L17 42L17 40L16 40L16 39L18 39L18 40L20 40L20 41L21 41L21 42L22 42L22 44L21 44L21 46L22 46L22 47L21 47L21 48L23 48L23 49L22 49L22 50L23 50L23 49L24 49L24 47L25 47L25 45L26 45L26 46L27 46L27 45L26 45L26 43L24 43L24 44L23 44L23 42L24 42L24 41L25 41L25 39L24 39L24 37L25 37L25 36L23 36L23 35L24 35L24 34L25 34L25 35L26 35L26 37L27 37L27 36L29 36L29 35L28 35L28 34L27 34L27 33L26 33L26 34L25 34L25 32L24 32L24 33L23 33L23 31L22 31L22 32L21 32L21 30L24 30L24 29L21 29L21 27ZM27 27L27 30L30 30L30 27ZM32 27L32 28L33 28L33 27ZM42 27L42 28L43 28L43 27ZM49 27L49 30L52 30L52 27ZM6 28L6 29L7 29L7 28ZM9 28L9 30L10 30L10 28ZM28 28L28 29L29 29L29 28ZM34 28L34 29L37 29L37 28ZM50 28L50 29L51 29L51 28ZM53 28L53 29L54 29L54 28ZM31 29L31 31L32 31L32 30L33 30L33 29ZM55 29L55 30L56 30L56 29ZM3 30L3 32L5 32L5 31L4 31L4 30ZM38 30L38 31L39 31L39 30ZM50 31L50 32L52 32L52 34L54 34L54 33L55 33L55 34L56 34L56 33L55 33L55 31L53 31L53 32L52 32L52 31ZM18 32L18 33L19 33L19 32ZM42 32L42 33L43 33L43 32ZM9 33L9 34L10 34L10 36L11 36L11 34L13 34L13 33ZM20 33L20 34L21 34L21 35L19 35L19 37L20 37L20 38L21 38L21 40L22 40L22 41L23 41L23 40L24 40L24 39L22 39L22 38L23 38L23 36L21 36L21 35L23 35L23 33L22 33L22 34L21 34L21 33ZM26 34L26 35L27 35L27 34ZM43 34L43 35L44 35L44 34ZM47 34L47 35L48 35L48 34ZM54 35L54 36L55 36L55 37L56 37L56 36L55 36L55 35ZM9 37L9 39L10 39L10 41L11 41L11 39L10 39L10 37ZM21 37L21 38L22 38L22 37ZM45 37L45 39L44 39L44 38L42 38L42 39L43 39L43 40L42 40L42 41L40 41L40 42L42 42L42 43L40 43L40 44L38 44L38 43L39 43L39 42L37 42L37 44L38 44L38 45L37 45L37 47L38 47L38 45L41 45L41 46L39 46L39 47L43 47L43 50L44 50L44 48L45 48L45 50L46 50L46 49L47 49L47 48L45 48L45 46L43 46L43 45L42 45L42 43L45 43L45 44L47 44L47 43L48 43L48 46L49 46L49 45L50 45L50 44L49 44L49 43L50 43L50 42L47 42L47 41L46 41L46 40L47 40L47 39L48 39L48 38L46 38L46 37ZM18 38L18 39L19 39L19 38ZM50 38L50 39L51 39L51 38ZM45 39L45 40L46 40L46 39ZM18 41L18 43L19 43L19 41ZM42 41L42 42L45 42L45 43L47 43L47 42L45 42L45 41ZM16 43L16 44L15 44L15 45L17 45L17 43ZM6 44L6 45L7 45L7 46L8 46L8 45L7 45L7 44ZM22 44L22 46L23 46L23 47L24 47L24 46L23 46L23 44ZM32 45L32 46L31 46L31 47L33 47L33 45ZM1 46L1 47L2 47L2 46ZM41 48L41 49L42 49L42 48ZM14 49L14 50L15 50L15 49ZM27 49L27 52L30 52L30 49ZM49 49L49 52L52 52L52 49ZM53 49L53 50L55 50L55 49ZM17 50L17 52L19 52L19 51L18 51L18 50ZM28 50L28 51L29 51L29 50ZM50 50L50 51L51 51L51 50ZM40 51L40 52L41 52L41 54L42 54L42 52L41 52L41 51ZM45 52L45 53L46 53L46 52ZM9 53L9 54L10 54L10 53ZM17 53L17 54L18 54L18 53ZM47 53L47 54L50 54L50 53ZM53 54L53 56L52 56L52 57L55 57L55 56L54 56L54 54ZM56 55L56 56L57 56L57 55ZM47 56L47 57L48 57L48 56ZM0 0L0 7L7 7L7 0ZM1 1L1 6L6 6L6 1ZM2 2L2 5L5 5L5 2ZM50 0L50 7L57 7L57 0ZM51 1L51 6L56 6L56 1ZM52 2L52 5L55 5L55 2ZM0 50L0 57L7 57L7 50ZM1 51L1 56L6 56L6 51ZM2 52L2 55L5 55L5 52Z" fill="#000000"/></g></g></svg>
