<?xml version="1.0" encoding="UTF-8"?>
<svg xmlns="http://www.w3.org/2000/svg" version="1.1" width="300" height="300" viewBox="0 0 300 300"><rect x="0" y="0" width="300" height="300" fill="#fefefe"/><g transform="scale(4.615)"><g transform="translate(4,4)"><path fill-rule="evenodd" d="M12 0L12 1L13 1L13 0ZM19 0L19 1L18 1L18 2L16 2L16 1L14 1L14 2L12 2L12 4L11 4L11 5L10 5L10 3L8 3L8 4L9 4L9 5L8 5L8 7L9 7L9 8L6 8L6 9L5 9L5 8L0 8L0 9L1 9L1 11L0 11L0 12L1 12L1 11L2 11L2 13L1 13L1 14L0 14L0 15L1 15L1 14L2 14L2 13L3 13L3 12L5 12L5 10L6 10L6 11L7 11L7 12L6 12L6 13L8 13L8 11L9 11L9 10L10 10L10 11L12 11L12 15L10 15L10 14L11 14L11 12L10 12L10 14L6 14L6 15L5 15L5 13L4 13L4 14L3 14L3 15L2 15L2 17L1 17L1 19L0 19L0 22L4 22L4 20L3 20L3 19L4 19L4 18L3 18L3 17L4 17L4 16L5 16L5 18L6 18L6 19L5 19L5 22L6 22L6 23L2 23L2 24L1 24L1 23L0 23L0 25L1 25L1 26L2 26L2 24L4 24L4 26L3 26L3 27L2 27L2 29L0 29L0 32L1 32L1 30L2 30L2 33L3 33L3 34L2 34L2 39L0 39L0 40L2 40L2 41L3 41L3 39L4 39L4 41L5 41L5 40L6 40L6 41L7 41L7 40L6 40L6 39L8 39L8 38L9 38L9 37L11 37L11 41L10 41L10 39L9 39L9 40L8 40L8 42L3 42L3 43L1 43L1 45L2 45L2 47L1 47L1 46L0 46L0 48L5 48L5 47L7 47L7 48L6 48L6 49L8 49L8 51L9 51L9 52L8 52L8 57L9 57L9 55L10 55L10 56L11 56L11 54L12 54L12 57L14 57L14 56L13 56L13 54L14 54L14 55L16 55L16 56L17 56L17 57L19 57L19 55L20 55L20 54L19 54L19 53L20 53L20 52L21 52L21 51L22 51L22 52L23 52L23 51L22 51L22 50L25 50L25 49L24 49L24 48L23 48L23 49L21 49L21 50L20 50L20 49L19 49L19 48L21 48L21 47L23 47L23 46L22 46L22 45L24 45L24 47L25 47L25 45L24 45L24 44L27 44L27 45L26 45L26 47L27 47L27 48L26 48L26 53L25 53L25 52L24 52L24 53L21 53L21 54L22 54L22 55L23 55L23 56L24 56L24 57L26 57L26 56L24 56L24 55L23 55L23 54L24 54L24 53L25 53L25 55L26 55L26 54L30 54L30 53L31 53L31 51L32 51L32 52L33 52L33 53L32 53L32 54L31 54L31 56L30 56L30 55L29 55L29 56L27 56L27 57L29 57L29 56L30 56L30 57L31 57L31 56L35 56L35 57L39 57L39 56L40 56L40 55L41 55L41 57L44 57L44 56L42 56L42 55L44 55L44 54L45 54L45 55L46 55L46 54L45 54L45 53L47 53L47 55L48 55L48 56L50 56L50 57L52 57L52 55L51 55L51 53L52 53L52 54L55 54L55 53L57 53L57 52L56 52L56 50L55 50L55 49L53 49L53 48L56 48L56 49L57 49L57 48L56 48L56 46L57 46L57 45L56 45L56 46L55 46L55 47L52 47L52 46L51 46L51 47L49 47L49 46L50 46L50 45L49 45L49 44L48 44L48 45L49 45L49 46L48 46L48 47L47 47L47 46L45 46L45 45L47 45L47 43L48 43L48 42L49 42L49 43L50 43L50 44L51 44L51 43L53 43L53 45L54 45L54 44L55 44L55 43L56 43L56 44L57 44L57 43L56 43L56 41L55 41L55 39L57 39L57 37L56 37L56 36L57 36L57 35L53 35L53 34L52 34L52 33L53 33L53 32L56 32L56 33L54 33L54 34L57 34L57 32L56 32L56 30L57 30L57 29L56 29L56 28L57 28L57 27L56 27L56 26L57 26L57 25L56 25L56 22L57 22L57 20L56 20L56 18L57 18L57 17L56 17L56 16L57 16L57 15L56 15L56 14L57 14L57 12L56 12L56 10L54 10L54 11L51 11L51 10L49 10L49 9L50 9L50 8L49 8L49 6L48 6L48 7L47 7L47 5L48 5L48 0L46 0L46 1L47 1L47 2L44 2L44 3L43 3L43 4L40 4L40 5L39 5L39 6L38 6L38 7L37 7L37 5L38 5L38 4L39 4L39 3L41 3L41 2L43 2L43 0L41 0L41 1L40 1L40 0L39 0L39 1L38 1L38 0L37 0L37 1L38 1L38 2L39 2L39 3L36 3L36 0L35 0L35 1L33 1L33 0L32 0L32 3L31 3L31 0L27 0L27 1L26 1L26 0L23 0L23 1L22 1L22 0L21 0L21 2L20 2L20 0ZM8 1L8 2L10 2L10 1ZM25 1L25 2L23 2L23 3L22 3L22 2L21 2L21 3L20 3L20 2L19 2L19 4L17 4L17 3L15 3L15 2L14 2L14 4L12 4L12 5L11 5L11 8L9 8L9 9L10 9L10 10L12 10L12 11L13 11L13 12L14 12L14 11L13 11L13 10L15 10L15 11L18 11L18 10L19 10L19 13L20 13L20 14L21 14L21 13L22 13L22 14L23 14L23 15L21 15L21 16L20 16L20 15L19 15L19 14L18 14L18 15L19 15L19 16L20 16L20 18L19 18L19 17L15 17L15 15L14 15L14 16L13 16L13 15L12 15L12 16L11 16L11 17L10 17L10 18L13 18L13 19L12 19L12 21L10 21L10 20L11 20L11 19L9 19L9 17L8 17L8 16L9 16L9 15L8 15L8 16L7 16L7 15L6 15L6 16L7 16L7 17L6 17L6 18L7 18L7 19L6 19L6 20L7 20L7 21L6 21L6 22L7 22L7 23L6 23L6 24L8 24L8 26L10 26L10 28L9 28L9 29L10 29L10 30L11 30L11 32L9 32L9 31L3 31L3 33L4 33L4 34L3 34L3 35L6 35L6 36L7 36L7 37L6 37L6 38L4 38L4 36L3 36L3 38L4 38L4 39L6 39L6 38L7 38L7 37L8 37L8 36L9 36L9 35L10 35L10 36L11 36L11 35L12 35L12 36L13 36L13 37L12 37L12 38L13 38L13 39L12 39L12 40L15 40L15 39L16 39L16 41L15 41L15 42L14 42L14 41L12 41L12 42L13 42L13 43L15 43L15 42L17 42L17 43L18 43L18 42L19 42L19 41L20 41L20 43L22 43L22 42L24 42L24 41L25 41L25 43L27 43L27 44L28 44L28 45L27 45L27 46L30 46L30 44L31 44L31 45L33 45L33 46L35 46L35 45L34 45L34 43L35 43L35 44L36 44L36 43L37 43L37 42L35 42L35 40L38 40L38 42L39 42L39 43L41 43L41 44L39 44L39 45L38 45L38 46L41 46L41 48L39 48L39 47L38 47L38 48L37 48L37 49L38 49L38 50L36 50L36 49L35 49L35 48L36 48L36 47L33 47L33 48L32 48L32 46L31 46L31 48L32 48L32 49L31 49L31 50L32 50L32 49L33 49L33 50L34 50L34 51L35 51L35 50L36 50L36 52L38 52L38 54L40 54L40 53L41 53L41 52L40 52L40 51L38 51L38 50L41 50L41 51L42 51L42 50L41 50L41 48L42 48L42 49L43 49L43 50L47 50L47 53L48 53L48 50L47 50L47 49L48 49L48 48L49 48L49 47L48 47L48 48L47 48L47 49L45 49L45 46L44 46L44 47L43 47L43 46L41 46L41 44L42 44L42 42L40 42L40 41L41 41L41 40L44 40L44 41L43 41L43 44L44 44L44 45L45 45L45 44L46 44L46 43L47 43L47 42L48 42L48 41L49 41L49 39L47 39L47 38L48 38L48 37L49 37L49 36L50 36L50 35L52 35L52 36L51 36L51 37L50 37L50 39L51 39L51 38L52 38L52 39L54 39L54 38L53 38L53 35L52 35L52 34L50 34L50 32L51 32L51 33L52 33L52 32L53 32L53 31L50 31L50 32L49 32L49 31L48 31L48 27L47 27L47 25L50 25L50 26L52 26L52 25L54 25L54 24L53 24L53 23L50 23L50 22L51 22L51 21L54 21L54 22L56 22L56 20L53 20L53 19L52 19L52 20L51 20L51 21L49 21L49 23L48 23L48 24L45 24L45 23L46 23L46 22L47 22L47 21L48 21L48 20L49 20L49 19L51 19L51 17L53 17L53 18L55 18L55 17L53 17L53 16L50 16L50 18L47 18L47 17L49 17L49 15L50 15L50 14L51 14L51 12L50 12L50 11L48 11L48 12L45 12L45 11L44 11L44 13L43 13L43 10L40 10L40 9L42 9L42 8L41 8L41 7L42 7L42 6L41 6L41 5L40 5L40 6L39 6L39 7L40 7L40 8L38 8L38 10L37 10L37 9L35 9L35 8L37 8L37 7L36 7L36 5L37 5L37 4L36 4L36 5L35 5L35 4L33 4L33 3L35 3L35 2L33 2L33 3L32 3L32 4L31 4L31 8L32 8L32 10L31 10L31 11L29 11L29 12L28 12L28 13L26 13L26 12L27 12L27 11L28 11L28 10L29 10L29 9L27 9L27 11L26 11L26 12L25 12L25 10L24 10L24 12L23 12L23 13L22 13L22 12L21 12L21 13L20 13L20 11L22 11L22 10L23 10L23 8L24 8L24 6L23 6L23 5L24 5L24 4L23 4L23 3L26 3L26 4L25 4L25 8L26 8L26 4L30 4L30 3L28 3L28 2L26 2L26 1ZM29 1L29 2L30 2L30 1ZM44 3L44 6L43 6L43 7L44 7L44 9L45 9L45 10L47 10L47 9L48 9L48 8L47 8L47 7L46 7L46 6L45 6L45 4L46 4L46 5L47 5L47 3ZM15 4L15 5L14 5L14 7L15 7L15 8L16 8L16 9L17 9L17 10L18 10L18 9L19 9L19 10L20 10L20 9L19 9L19 8L22 8L22 7L23 7L23 6L22 6L22 7L21 7L21 5L23 5L23 4L19 4L19 5L20 5L20 7L19 7L19 6L18 6L18 5L17 5L17 6L16 6L16 7L15 7L15 5L16 5L16 4ZM32 4L32 5L33 5L33 6L32 6L32 7L33 7L33 9L34 9L34 8L35 8L35 5L33 5L33 4ZM9 5L9 7L10 7L10 5ZM27 5L27 8L30 8L30 5ZM12 6L12 10L13 10L13 9L14 9L14 8L13 8L13 6ZM17 6L17 7L16 7L16 8L19 8L19 7L18 7L18 6ZM28 6L28 7L29 7L29 6ZM33 6L33 7L34 7L34 6ZM40 6L40 7L41 7L41 6ZM44 6L44 7L45 7L45 6ZM45 8L45 9L46 9L46 8ZM51 8L51 9L52 9L52 8ZM53 8L53 9L54 9L54 8ZM55 8L55 9L56 9L56 8ZM6 9L6 10L7 10L7 11L8 11L8 9ZM21 9L21 10L22 10L22 9ZM2 10L2 11L3 11L3 10ZM32 10L32 11L33 11L33 10ZM36 10L36 12L35 12L35 13L37 13L37 14L38 14L38 15L39 15L39 16L38 16L38 17L37 17L37 16L35 16L35 14L32 14L32 12L31 12L31 13L30 13L30 14L29 14L29 13L28 13L28 14L29 14L29 16L28 16L28 15L27 15L27 14L26 14L26 13L23 13L23 14L25 14L25 15L23 15L23 16L25 16L25 17L22 17L22 16L21 16L21 17L22 17L22 18L20 18L20 20L17 20L17 21L16 21L16 18L15 18L15 17L13 17L13 16L12 16L12 17L13 17L13 18L15 18L15 21L16 21L16 22L14 22L14 21L12 21L12 22L11 22L11 23L10 23L10 22L9 22L9 23L8 23L8 24L10 24L10 25L11 25L11 26L12 26L12 27L13 27L13 29L12 29L12 30L13 30L13 33L15 33L15 32L14 32L14 31L16 31L16 29L18 29L18 30L17 30L17 31L18 31L18 32L16 32L16 33L18 33L18 34L14 34L14 35L13 35L13 36L14 36L14 37L13 37L13 38L14 38L14 39L15 39L15 38L16 38L16 37L15 37L15 35L16 35L16 36L17 36L17 42L18 42L18 41L19 41L19 40L22 40L22 38L23 38L23 39L24 39L24 40L23 40L23 41L24 41L24 40L25 40L25 36L26 36L26 40L27 40L27 41L26 41L26 42L27 42L27 41L30 41L30 40L28 40L28 39L27 39L27 38L28 38L28 37L27 37L27 35L26 35L26 34L25 34L25 33L23 33L23 34L24 34L24 36L23 36L23 35L22 35L22 33L21 33L21 32L25 32L25 31L26 31L26 33L27 33L27 31L29 31L29 32L28 32L28 33L29 33L29 34L30 34L30 36L29 36L29 37L31 37L31 38L29 38L29 39L33 39L33 40L35 40L35 39L38 39L38 40L39 40L39 39L38 39L38 37L37 37L37 36L38 36L38 33L37 33L37 32L35 32L35 34L37 34L37 36L35 36L35 35L34 35L34 34L32 34L32 32L33 32L33 33L34 33L34 32L33 32L33 31L36 31L36 30L37 30L37 29L38 29L38 28L40 28L40 26L39 26L39 27L37 27L37 28L35 28L35 27L36 27L36 26L34 26L34 27L33 27L33 26L32 26L32 24L33 24L33 25L37 25L37 26L38 26L38 24L39 24L39 25L40 25L40 24L41 24L41 28L42 28L42 26L43 26L43 25L44 25L44 24L43 24L43 23L44 23L44 20L45 20L45 19L46 19L46 20L47 20L47 19L46 19L46 18L44 18L44 15L45 15L45 17L47 17L47 16L48 16L48 15L49 15L49 14L50 14L50 12L49 12L49 13L47 13L47 14L45 14L45 13L44 13L44 15L42 15L42 16L41 16L41 14L43 14L43 13L41 13L41 14L38 14L38 13L40 13L40 12L41 12L41 11L40 11L40 10L38 10L38 11L37 11L37 10ZM39 11L39 12L40 12L40 11ZM15 12L15 13L13 13L13 14L15 14L15 13L16 13L16 16L17 16L17 13L18 13L18 12L17 12L17 13L16 13L16 12ZM33 12L33 13L34 13L34 12ZM52 12L52 13L53 13L53 14L56 14L56 13L55 13L55 12L54 12L54 13L53 13L53 12ZM30 14L30 15L31 15L31 14ZM26 15L26 17L28 17L28 16L27 16L27 15ZM32 16L32 17L31 17L31 18L30 18L30 19L33 19L33 20L32 20L32 21L31 21L31 20L29 20L29 19L28 19L28 18L26 18L26 20L25 20L25 21L24 21L24 20L22 20L22 19L24 19L24 18L22 18L22 19L21 19L21 20L20 20L20 21L19 21L19 22L18 22L18 21L17 21L17 24L16 24L16 23L14 23L14 22L12 22L12 23L11 23L11 24L12 24L12 25L13 25L13 24L16 24L16 25L15 25L15 26L13 26L13 27L14 27L14 29L13 29L13 30L14 30L14 29L16 29L16 28L18 28L18 29L20 29L20 32L19 32L19 33L20 33L20 34L19 34L19 35L17 35L17 36L19 36L19 37L23 37L23 38L24 38L24 37L23 37L23 36L21 36L21 35L20 35L20 34L21 34L21 33L20 33L20 32L21 32L21 31L23 31L23 28L24 28L24 27L26 27L26 26L27 26L27 25L29 25L29 26L30 26L30 25L29 25L29 24L32 24L32 23L35 23L35 20L34 20L34 19L33 19L33 18L35 18L35 19L36 19L36 20L37 20L37 19L39 19L39 17L41 17L41 16L39 16L39 17L38 17L38 18L37 18L37 17L35 17L35 16ZM42 16L42 17L43 17L43 16ZM32 17L32 18L33 18L33 17ZM41 18L41 19L42 19L42 18ZM43 18L43 20L44 20L44 18ZM8 19L8 20L9 20L9 19ZM13 19L13 20L14 20L14 19ZM2 20L2 21L3 21L3 20ZM39 20L39 21L38 21L38 22L37 22L37 24L38 24L38 23L39 23L39 24L40 24L40 22L39 22L39 21L42 21L42 20ZM22 21L22 23L23 23L23 24L24 24L24 25L22 25L22 24L17 24L17 26L16 26L16 27L18 27L18 26L19 26L19 28L20 28L20 25L22 25L22 26L21 26L21 27L22 27L22 26L26 26L26 25L25 25L25 24L28 24L28 23L29 23L29 22L31 22L31 21L29 21L29 22L28 22L28 23L27 23L27 21L25 21L25 22L26 22L26 23L25 23L25 24L24 24L24 23L23 23L23 22L24 22L24 21ZM45 21L45 22L46 22L46 21ZM19 22L19 23L20 23L20 22ZM41 22L41 24L42 24L42 25L43 25L43 24L42 24L42 22ZM12 23L12 24L13 24L13 23ZM50 24L50 25L51 25L51 24ZM6 25L6 26L7 26L7 25ZM55 25L55 26L56 26L56 25ZM31 26L31 28L32 28L32 29L31 29L31 31L30 31L30 32L29 32L29 33L31 33L31 32L32 32L32 31L33 31L33 30L35 30L35 28L33 28L33 27L32 27L32 26ZM44 26L44 28L43 28L43 29L39 29L39 30L38 30L38 32L39 32L39 31L41 31L41 30L43 30L43 32L41 32L41 33L39 33L39 34L40 34L40 35L39 35L39 37L40 37L40 38L41 38L41 39L42 39L42 38L43 38L43 37L44 37L44 38L45 38L45 39L44 39L44 40L45 40L45 39L46 39L46 40L47 40L47 39L46 39L46 38L45 38L45 37L46 37L46 35L44 35L44 33L43 33L43 32L48 32L48 33L49 33L49 32L48 32L48 31L47 31L47 30L46 30L46 29L47 29L47 27L46 27L46 26ZM53 26L53 27L54 27L54 26ZM0 27L0 28L1 28L1 27ZM5 27L5 30L8 30L8 27ZM27 27L27 30L30 30L30 27ZM45 27L45 28L44 28L44 29L43 29L43 30L44 30L44 31L45 31L45 30L44 30L44 29L45 29L45 28L46 28L46 27ZM49 27L49 30L52 30L52 27ZM55 27L55 28L54 28L54 29L53 29L53 30L54 30L54 29L55 29L55 28L56 28L56 27ZM3 28L3 29L2 29L2 30L4 30L4 28ZM6 28L6 29L7 29L7 28ZM21 28L21 29L22 29L22 28ZM25 28L25 29L26 29L26 28ZM28 28L28 29L29 29L29 28ZM50 28L50 29L51 29L51 28ZM4 32L4 33L5 33L5 32ZM6 32L6 33L7 33L7 34L6 34L6 35L7 35L7 36L8 36L8 35L7 35L7 34L8 34L8 33L9 33L9 32L8 32L8 33L7 33L7 32ZM11 32L11 33L10 33L10 34L11 34L11 33L12 33L12 32ZM42 34L42 35L43 35L43 36L44 36L44 37L45 37L45 36L44 36L44 35L43 35L43 34ZM48 34L48 35L47 35L47 36L48 36L48 35L50 35L50 34ZM0 35L0 36L1 36L1 35ZM19 35L19 36L20 36L20 35ZM32 36L32 37L33 37L33 38L35 38L35 37L33 37L33 36ZM40 36L40 37L41 37L41 36ZM0 37L0 38L1 38L1 37ZM14 37L14 38L15 38L15 37ZM19 38L19 39L20 39L20 38ZM31 40L31 41L32 41L32 42L29 42L29 43L28 43L28 44L29 44L29 43L31 43L31 44L33 44L33 43L34 43L34 42L33 42L33 41L32 41L32 40ZM53 40L53 41L51 41L51 42L50 42L50 43L51 43L51 42L53 42L53 43L54 43L54 42L53 42L53 41L54 41L54 40ZM21 41L21 42L22 42L22 41ZM44 41L44 42L45 42L45 41ZM8 42L8 43L10 43L10 44L9 44L9 45L10 45L10 46L8 46L8 48L11 48L11 49L12 49L12 47L13 47L13 46L15 46L15 47L14 47L14 48L13 48L13 50L11 50L11 51L10 51L10 53L9 53L9 54L11 54L11 52L13 52L13 50L14 50L14 54L16 54L16 53L17 53L17 52L16 52L16 53L15 53L15 50L17 50L17 51L18 51L18 52L19 52L19 51L20 51L20 50L19 50L19 51L18 51L18 50L17 50L17 49L14 49L14 48L15 48L15 47L16 47L16 48L17 48L17 47L18 47L18 48L19 48L19 47L18 47L18 46L17 46L17 45L18 45L18 44L15 44L15 45L13 45L13 44L11 44L11 42ZM32 42L32 43L33 43L33 42ZM3 43L3 44L2 44L2 45L4 45L4 46L3 46L3 47L5 47L5 43ZM6 43L6 44L7 44L7 43ZM10 44L10 45L11 45L11 44ZM21 44L21 45L19 45L19 46L20 46L20 47L21 47L21 45L22 45L22 44ZM6 45L6 46L7 46L7 45ZM36 45L36 46L37 46L37 45ZM11 46L11 47L12 47L12 46ZM28 47L28 48L30 48L30 47ZM42 47L42 48L43 48L43 49L44 49L44 48L43 48L43 47ZM51 47L51 48L52 48L52 47ZM38 48L38 49L39 49L39 48ZM9 49L9 50L10 50L10 49ZM27 49L27 52L30 52L30 49ZM49 49L49 52L52 52L52 49ZM28 50L28 51L29 51L29 50ZM50 50L50 51L51 51L51 50ZM54 50L54 51L55 51L55 50ZM45 51L45 52L44 52L44 53L43 53L43 52L42 52L42 53L43 53L43 54L44 54L44 53L45 53L45 52L46 52L46 51ZM53 52L53 53L54 53L54 52ZM12 53L12 54L13 54L13 53ZM33 53L33 54L35 54L35 56L36 56L36 54L35 54L35 53ZM17 54L17 56L18 56L18 55L19 55L19 54ZM37 55L37 56L39 56L39 55ZM50 55L50 56L51 56L51 55ZM53 55L53 56L55 56L55 57L56 57L56 56L55 56L55 55ZM20 56L20 57L21 57L21 56ZM45 56L45 57L46 57L46 56ZM0 0L0 7L7 7L7 0ZM1 1L1 6L6 6L6 1ZM2 2L2 5L5 5L5 2ZM50 0L50 7L57 7L57 0ZM51 1L51 6L56 6L56 1ZM52 2L52 5L55 5L55 2ZM0 50L0 57L7 57L7 50ZM1 51L1 56L6 56L6 51ZM2 52L2 55L5 55L5 52Z" fill="#000000"/></g></g></svg>
