<?xml version="1.0" encoding="UTF-8"?>
<svg xmlns="http://www.w3.org/2000/svg" version="1.1" width="300" height="300" viewBox="0 0 300 300"><rect x="0" y="0" width="300" height="300" fill="#fefefe"/><g transform="scale(4.615)"><g transform="translate(4,4)"><path fill-rule="evenodd" d="M8 0L8 2L9 2L9 4L8 4L8 9L7 9L7 8L5 8L5 9L7 9L7 10L6 10L6 11L8 11L8 12L5 12L5 10L4 10L4 9L3 9L3 8L0 8L0 9L1 9L1 10L0 10L0 12L1 12L1 13L2 13L2 14L0 14L0 16L1 16L1 18L0 18L0 20L2 20L2 19L1 19L1 18L3 18L3 19L4 19L4 18L5 18L5 19L7 19L7 20L5 20L5 22L4 22L4 20L3 20L3 21L2 21L2 22L1 22L1 21L0 21L0 22L1 22L1 23L0 23L0 24L1 24L1 23L2 23L2 22L4 22L4 24L5 24L5 25L4 25L4 26L3 26L3 25L0 25L0 26L1 26L1 27L0 27L0 28L2 28L2 29L1 29L1 30L0 30L0 31L1 31L1 30L2 30L2 29L3 29L3 28L4 28L4 30L3 30L3 31L5 31L5 32L6 32L6 33L7 33L7 34L5 34L5 33L4 33L4 34L5 34L5 35L2 35L2 37L1 37L1 38L0 38L0 39L1 39L1 40L0 40L0 41L2 41L2 42L3 42L3 43L2 43L2 44L3 44L3 43L4 43L4 46L5 46L5 47L3 47L3 46L2 46L2 45L0 45L0 48L5 48L5 47L7 47L7 48L6 48L6 49L8 49L8 50L9 50L9 51L8 51L8 52L9 52L9 51L11 51L11 49L12 49L12 51L14 51L14 50L16 50L16 51L17 51L17 52L15 52L15 54L14 54L14 53L12 53L12 52L10 52L10 54L8 54L8 57L10 57L10 56L9 56L9 55L10 55L10 54L11 54L11 55L13 55L13 56L14 56L14 55L15 55L15 57L17 57L17 55L18 55L18 57L19 57L19 55L18 55L18 53L19 53L19 52L18 52L18 51L19 51L19 50L20 50L20 53L21 53L21 54L20 54L20 55L21 55L21 56L20 56L20 57L21 57L21 56L22 56L22 57L25 57L25 56L26 56L26 57L28 57L28 55L29 55L29 57L33 57L33 55L34 55L34 57L35 57L35 55L37 55L37 54L36 54L36 53L37 53L37 51L38 51L38 47L37 47L37 46L38 46L38 45L37 45L37 44L40 44L40 46L39 46L39 47L40 47L40 49L39 49L39 52L38 52L38 53L39 53L39 55L40 55L40 54L42 54L42 55L41 55L41 56L40 56L40 57L41 57L41 56L42 56L42 57L43 57L43 54L42 54L42 53L43 53L43 52L44 52L44 55L45 55L45 56L44 56L44 57L45 57L45 56L46 56L46 55L47 55L47 54L48 54L48 56L47 56L47 57L48 57L48 56L49 56L49 57L50 57L50 55L49 55L49 54L52 54L52 55L53 55L53 56L51 56L51 57L54 57L54 54L55 54L55 55L57 55L57 54L55 54L55 53L57 53L57 52L56 52L56 51L57 51L57 49L56 49L56 47L57 47L57 42L56 42L56 44L55 44L55 45L56 45L56 47L55 47L55 46L54 46L54 45L53 45L53 46L52 46L52 40L53 40L53 44L54 44L54 43L55 43L55 42L54 42L54 41L57 41L57 40L54 40L54 39L53 39L53 38L54 38L54 37L55 37L55 38L57 38L57 36L56 36L56 35L57 35L57 33L56 33L56 31L57 31L57 29L56 29L56 28L57 28L57 24L56 24L56 23L57 23L57 20L56 20L56 23L55 23L55 21L54 21L54 19L55 19L55 17L54 17L54 15L52 15L52 14L53 14L53 12L54 12L54 11L55 11L55 12L56 12L56 11L57 11L57 10L56 10L56 11L55 11L55 9L57 9L57 8L55 8L55 9L54 9L54 10L52 10L52 12L51 12L51 11L50 11L50 9L53 9L53 8L48 8L48 7L49 7L49 6L48 6L48 7L47 7L47 5L48 5L48 0L42 0L42 1L41 1L41 0L38 0L38 2L39 2L39 4L38 4L38 3L37 3L37 4L38 4L38 5L37 5L37 6L36 6L36 10L34 10L34 9L35 9L35 4L36 4L36 3L35 3L35 2L37 2L37 1L35 1L35 0L34 0L34 2L33 2L33 6L32 6L32 7L33 7L33 6L34 6L34 8L32 8L32 9L31 9L31 5L32 5L32 1L31 1L31 0L29 0L29 3L30 3L30 4L28 4L28 3L27 3L27 2L28 2L28 1L27 1L27 0L26 0L26 1L25 1L25 0L24 0L24 1L23 1L23 0L20 0L20 1L21 1L21 2L20 2L20 3L21 3L21 2L22 2L22 3L23 3L23 6L22 6L22 5L20 5L20 7L19 7L19 5L17 5L17 4L16 4L16 3L15 3L15 2L17 2L17 3L18 3L18 2L19 2L19 1L18 1L18 0L16 0L16 1L14 1L14 0L12 0L12 2L11 2L11 1L9 1L9 0ZM13 1L13 3L12 3L12 5L13 5L13 7L12 7L12 6L11 6L11 5L10 5L10 4L11 4L11 2L10 2L10 4L9 4L9 5L10 5L10 6L9 6L9 9L8 9L8 10L10 10L10 11L9 11L9 12L8 12L8 13L9 13L9 12L10 12L10 13L12 13L12 14L9 14L9 15L10 15L10 16L9 16L9 18L8 18L8 17L6 17L6 18L8 18L8 19L9 19L9 18L10 18L10 17L11 17L11 15L12 15L12 19L13 19L13 16L14 16L14 15L15 15L15 16L17 16L17 15L18 15L18 16L19 16L19 17L20 17L20 19L18 19L18 20L17 20L17 17L16 17L16 20L17 20L17 22L16 22L16 23L17 23L17 24L16 24L16 27L14 27L14 26L15 26L15 25L14 25L14 26L13 26L13 24L14 24L14 22L15 22L15 21L14 21L14 22L12 22L12 23L11 23L11 21L12 21L12 20L11 20L11 19L10 19L10 20L11 20L11 21L9 21L9 20L7 20L7 21L6 21L6 22L8 22L8 21L9 21L9 23L10 23L10 26L11 26L11 24L12 24L12 28L13 28L13 29L14 29L14 31L11 31L11 30L12 30L12 29L11 29L11 30L10 30L10 29L9 29L9 31L8 31L8 32L7 32L7 31L6 31L6 32L7 32L7 33L8 33L8 35L9 35L9 34L10 34L10 35L12 35L12 33L11 33L11 32L13 32L13 36L14 36L14 35L15 35L15 33L14 33L14 32L15 32L15 30L17 30L17 31L16 31L16 32L17 32L17 33L16 33L16 36L15 36L15 37L14 37L14 38L13 38L13 37L12 37L12 36L11 36L11 37L10 37L10 38L11 38L11 39L12 39L12 41L11 41L11 40L10 40L10 39L9 39L9 36L8 36L8 38L7 38L7 37L6 37L6 36L7 36L7 35L5 35L5 37L4 37L4 38L3 38L3 37L2 37L2 38L3 38L3 39L2 39L2 41L3 41L3 42L4 42L4 43L6 43L6 44L5 44L5 46L7 46L7 47L8 47L8 44L9 44L9 45L13 45L13 47L14 47L14 48L15 48L15 49L16 49L16 50L17 50L17 51L18 51L18 46L19 46L19 47L20 47L20 48L19 48L19 49L20 49L20 50L22 50L22 48L23 48L23 49L24 49L24 51L23 51L23 52L24 52L24 51L25 51L25 54L24 54L24 55L26 55L26 50L25 50L25 49L26 49L26 48L27 48L27 47L28 47L28 48L29 48L29 47L30 47L30 48L31 48L31 52L32 52L32 51L33 51L33 49L32 49L32 48L34 48L34 47L35 47L35 49L34 49L34 52L35 52L35 53L34 53L34 54L35 54L35 53L36 53L36 52L35 52L35 51L37 51L37 49L36 49L36 48L37 48L37 47L35 47L35 45L36 45L36 44L37 44L37 43L40 43L40 44L41 44L41 45L42 45L42 47L41 47L41 46L40 46L40 47L41 47L41 49L40 49L40 51L41 51L41 52L42 52L42 51L41 51L41 49L42 49L42 50L43 50L43 51L44 51L44 50L43 50L43 49L44 49L44 46L45 46L45 45L44 45L44 44L45 44L45 43L46 43L46 42L47 42L47 44L46 44L46 47L45 47L45 49L46 49L46 50L45 50L45 51L46 51L46 50L47 50L47 49L46 49L46 47L48 47L48 45L47 45L47 44L48 44L48 43L49 43L49 48L52 48L52 47L50 47L50 46L51 46L51 44L50 44L50 42L49 42L49 41L51 41L51 40L50 40L50 37L49 37L49 36L50 36L50 33L51 33L51 36L53 36L53 37L52 37L52 38L51 38L51 39L52 39L52 38L53 38L53 37L54 37L54 36L55 36L55 35L56 35L56 33L53 33L53 31L51 31L51 32L50 32L50 31L49 31L49 32L50 32L50 33L49 33L49 36L48 36L48 37L47 37L47 36L46 36L46 34L48 34L48 33L47 33L47 28L46 28L46 29L45 29L45 30L46 30L46 31L45 31L45 33L46 33L46 34L45 34L45 36L46 36L46 38L47 38L47 40L46 40L46 39L45 39L45 40L46 40L46 42L45 42L45 41L44 41L44 44L43 44L43 43L40 43L40 42L41 42L41 41L42 41L42 42L43 42L43 41L42 41L42 40L43 40L43 38L44 38L44 35L43 35L43 33L42 33L42 31L43 31L43 30L44 30L44 27L43 27L43 26L44 26L44 24L45 24L45 25L46 25L46 26L45 26L45 27L46 27L46 26L47 26L47 23L48 23L48 22L50 22L50 23L49 23L49 24L48 24L48 26L49 26L49 25L50 25L50 26L51 26L51 25L52 25L52 26L53 26L53 25L52 25L52 24L53 24L53 23L54 23L54 24L55 24L55 25L54 25L54 26L55 26L55 27L54 27L54 28L53 28L53 30L54 30L54 32L55 32L55 31L56 31L56 30L55 30L55 28L56 28L56 24L55 24L55 23L54 23L54 22L52 22L52 20L53 20L53 19L54 19L54 17L53 17L53 18L52 18L52 17L51 17L51 14L52 14L52 13L50 13L50 11L49 11L49 9L48 9L48 11L47 11L47 9L46 9L46 8L47 8L47 7L46 7L46 5L47 5L47 3L46 3L46 4L45 4L45 2L47 2L47 1L42 1L42 2L40 2L40 1L39 1L39 2L40 2L40 4L39 4L39 5L38 5L38 6L37 6L37 7L38 7L38 6L39 6L39 9L38 9L38 8L37 8L37 9L38 9L38 10L40 10L40 11L39 11L39 12L37 12L37 11L36 11L36 12L35 12L35 11L34 11L34 10L33 10L33 9L32 9L32 11L31 11L31 9L30 9L30 11L29 11L29 9L28 9L28 11L27 11L27 10L25 10L25 9L26 9L26 5L24 5L24 6L23 6L23 9L22 9L22 8L21 8L21 9L20 9L20 10L19 10L19 11L18 11L18 12L20 12L20 10L21 10L21 13L20 13L20 14L19 14L19 13L18 13L18 14L17 14L17 10L18 10L18 8L19 8L19 7L18 7L18 6L17 6L17 5L16 5L16 6L15 6L15 5L13 5L13 3L14 3L14 4L15 4L15 3L14 3L14 1ZM24 1L24 4L25 4L25 1ZM30 2L30 3L31 3L31 2ZM43 2L43 3L42 3L42 5L41 5L41 6L40 6L40 7L41 7L41 8L40 8L40 10L42 10L42 12L41 12L41 11L40 11L40 14L39 14L39 15L40 15L40 18L38 18L38 16L37 16L37 15L38 15L38 13L37 13L37 12L36 12L36 13L37 13L37 14L36 14L36 18L34 18L34 17L35 17L35 15L34 15L34 13L35 13L35 12L34 12L34 11L32 11L32 13L31 13L31 16L30 16L30 15L29 15L29 13L30 13L30 12L31 12L31 11L30 11L30 12L29 12L29 11L28 11L28 12L27 12L27 13L26 13L26 11L25 11L25 10L24 10L24 9L25 9L25 8L24 8L24 9L23 9L23 10L24 10L24 11L22 11L22 12L23 12L23 14L24 14L24 16L22 16L22 14L20 14L20 15L21 15L21 16L20 16L20 17L21 17L21 18L22 18L22 19L20 19L20 21L21 21L21 22L20 22L20 23L21 23L21 24L22 24L22 25L21 25L21 30L20 30L20 31L19 31L19 30L18 30L18 31L17 31L17 32L18 32L18 33L17 33L17 34L18 34L18 33L19 33L19 35L17 35L17 36L16 36L16 37L17 37L17 38L16 38L16 39L17 39L17 38L18 38L18 42L16 42L16 40L15 40L15 39L13 39L13 41L12 41L12 42L10 42L10 40L9 40L9 39L7 39L7 38L6 38L6 37L5 37L5 38L4 38L4 39L5 39L5 41L4 41L4 40L3 40L3 41L4 41L4 42L5 42L5 41L7 41L7 42L6 42L6 43L7 43L7 44L6 44L6 45L7 45L7 44L8 44L8 43L9 43L9 44L12 44L12 42L13 42L13 43L15 43L15 44L16 44L16 45L15 45L15 46L14 46L14 47L15 47L15 46L16 46L16 47L17 47L17 46L18 46L18 45L19 45L19 46L20 46L20 45L21 45L21 44L20 44L20 43L21 43L21 42L22 42L22 41L23 41L23 43L22 43L22 44L23 44L23 48L25 48L25 47L26 47L26 46L28 46L28 47L29 47L29 46L30 46L30 47L31 47L31 46L32 46L32 47L34 47L34 45L33 45L33 44L35 44L35 43L36 43L36 41L37 41L37 42L38 42L38 41L39 41L39 38L40 38L40 39L41 39L41 38L42 38L42 37L43 37L43 35L40 35L40 36L39 36L39 38L38 38L38 37L37 37L37 36L38 36L38 35L39 35L39 34L38 34L38 33L39 33L39 32L40 32L40 34L42 34L42 33L41 33L41 32L40 32L40 31L42 31L42 28L43 28L43 27L41 27L41 28L40 28L40 26L41 26L41 23L42 23L42 25L43 25L43 22L44 22L44 23L45 23L45 22L46 22L46 21L45 21L45 19L44 19L44 17L45 17L45 18L46 18L46 20L47 20L47 19L48 19L48 21L47 21L47 22L48 22L48 21L49 21L49 20L51 20L51 18L50 18L50 16L49 16L49 15L50 15L50 13L49 13L49 14L48 14L48 12L49 12L49 11L48 11L48 12L47 12L47 11L46 11L46 13L45 13L45 12L44 12L44 13L45 13L45 15L46 15L46 13L47 13L47 14L48 14L48 15L47 15L47 16L48 16L48 17L47 17L47 18L46 18L46 16L44 16L44 14L43 14L43 16L44 16L44 17L43 17L43 18L42 18L42 17L41 17L41 15L42 15L42 12L43 12L43 10L45 10L45 8L44 8L44 9L43 9L43 8L42 8L42 7L43 7L43 6L44 6L44 7L45 7L45 6L44 6L44 5L45 5L45 4L44 4L44 2ZM26 3L26 4L27 4L27 3ZM34 3L34 4L35 4L35 3ZM43 4L43 5L42 5L42 6L41 6L41 7L42 7L42 6L43 6L43 5L44 5L44 4ZM27 5L27 8L30 8L30 5ZM10 6L10 8L11 8L11 6ZM14 6L14 7L15 7L15 6ZM16 6L16 7L17 7L17 8L18 8L18 7L17 7L17 6ZM21 6L21 7L22 7L22 6ZM24 6L24 7L25 7L25 6ZM28 6L28 7L29 7L29 6ZM12 8L12 9L13 9L13 8ZM14 8L14 9L15 9L15 8ZM2 9L2 10L1 10L1 12L3 12L3 13L4 13L4 12L3 12L3 11L4 11L4 10L3 10L3 9ZM21 9L21 10L22 10L22 9ZM42 9L42 10L43 10L43 9ZM2 10L2 11L3 11L3 10ZM12 10L12 11L10 11L10 12L12 12L12 11L13 11L13 10ZM14 11L14 12L16 12L16 11ZM24 12L24 14L26 14L26 13L25 13L25 12ZM6 13L6 14L7 14L7 13ZM32 13L32 16L31 16L31 17L30 17L30 16L29 16L29 15L28 15L28 14L27 14L27 15L26 15L26 17L25 17L25 16L24 16L24 18L26 18L26 17L27 17L27 19L26 19L26 20L27 20L27 22L26 22L26 23L28 23L28 22L29 22L29 26L31 26L31 25L32 25L32 28L31 28L31 29L32 29L32 28L33 28L33 29L34 29L34 31L32 31L32 30L31 30L31 31L32 31L32 32L30 32L30 34L31 34L31 35L28 35L28 34L29 34L29 31L28 31L28 32L27 32L27 33L28 33L28 34L26 34L26 30L25 30L25 29L24 29L24 26L25 26L25 25L24 25L24 26L23 26L23 27L22 27L22 28L23 28L23 29L22 29L22 30L21 30L21 32L19 32L19 31L18 31L18 32L19 32L19 33L20 33L20 34L21 34L21 35L20 35L20 36L21 36L21 38L20 38L20 39L21 39L21 41L20 41L20 42L21 42L21 41L22 41L22 39L23 39L23 40L24 40L24 43L23 43L23 44L24 44L24 46L26 46L26 45L25 45L25 44L24 44L24 43L25 43L25 42L26 42L26 41L25 41L25 40L26 40L26 39L27 39L27 41L28 41L28 42L27 42L27 45L28 45L28 46L29 46L29 45L30 45L30 46L31 46L31 45L32 45L32 46L33 46L33 45L32 45L32 44L31 44L31 43L32 43L32 40L33 40L33 41L34 41L34 42L35 42L35 41L36 41L36 38L37 38L37 41L38 41L38 38L37 38L37 37L36 37L36 35L38 35L38 34L37 34L37 33L36 33L36 31L37 31L37 32L38 32L38 31L40 31L40 30L39 30L39 29L40 29L40 28L39 28L39 29L38 29L38 28L37 28L37 26L36 26L36 24L37 24L37 25L38 25L38 26L40 26L40 23L41 23L41 22L40 22L40 19L41 19L41 18L40 18L40 19L39 19L39 21L38 21L38 19L37 19L37 18L36 18L36 19L37 19L37 21L36 21L36 20L35 20L35 19L34 19L34 18L33 18L33 19L34 19L34 20L33 20L33 21L32 21L32 20L31 20L31 21L30 21L30 22L29 22L29 21L28 21L28 19L29 19L29 20L30 20L30 19L31 19L31 17L32 17L32 16L33 16L33 17L34 17L34 15L33 15L33 13ZM54 13L54 14L55 14L55 13ZM56 13L56 15L55 15L55 16L56 16L56 17L57 17L57 13ZM2 14L2 15L1 15L1 16L2 16L2 17L3 17L3 14ZM15 14L15 15L17 15L17 14ZM40 14L40 15L41 15L41 14ZM6 15L6 16L8 16L8 15ZM4 16L4 17L5 17L5 16ZM28 17L28 18L30 18L30 17ZM48 17L48 19L50 19L50 18L49 18L49 17ZM56 18L56 19L57 19L57 18ZM14 19L14 20L15 20L15 19ZM22 19L22 20L21 20L21 21L22 21L22 24L23 24L23 21L22 21L22 20L23 20L23 19ZM24 19L24 20L25 20L25 19ZM42 19L42 20L43 20L43 21L42 21L42 22L43 22L43 21L44 21L44 22L45 22L45 21L44 21L44 19ZM18 20L18 22L17 22L17 23L18 23L18 25L19 25L19 27L18 27L18 28L20 28L20 24L19 24L19 23L18 23L18 22L19 22L19 20ZM34 20L34 21L33 21L33 22L31 22L31 23L30 23L30 24L31 24L31 23L32 23L32 25L33 25L33 26L34 26L34 24L36 24L36 23L37 23L37 22L38 22L38 23L39 23L39 22L38 22L38 21L37 21L37 22L36 22L36 21L35 21L35 20ZM34 21L34 22L35 22L35 23L36 23L36 22L35 22L35 21ZM24 22L24 23L25 23L25 22ZM51 22L51 23L50 23L50 24L52 24L52 22ZM6 23L6 24L7 24L7 23ZM33 23L33 24L34 24L34 23ZM5 25L5 26L9 26L9 25ZM26 25L26 26L27 26L27 25ZM2 27L2 28L3 28L3 27ZM5 27L5 30L8 30L8 27ZM9 27L9 28L10 28L10 27ZM16 27L16 28L17 28L17 27ZM27 27L27 30L30 30L30 27ZM34 27L34 29L35 29L35 30L36 30L36 29L37 29L37 28L36 28L36 29L35 29L35 27ZM49 27L49 30L52 30L52 27ZM6 28L6 29L7 29L7 28ZM14 28L14 29L15 29L15 28ZM28 28L28 29L29 29L29 28ZM50 28L50 29L51 29L51 28ZM23 29L23 30L22 30L22 33L23 33L23 34L22 34L22 35L21 35L21 36L22 36L22 38L21 38L21 39L22 39L22 38L23 38L23 36L22 36L22 35L25 35L25 36L24 36L24 37L25 37L25 36L26 36L26 34L24 34L24 32L23 32L23 30L24 30L24 31L25 31L25 30L24 30L24 29ZM37 30L37 31L38 31L38 30ZM10 31L10 32L11 32L11 31ZM8 32L8 33L9 33L9 32ZM32 32L32 35L31 35L31 36L30 36L30 40L28 40L28 41L30 41L30 40L31 40L31 38L34 38L34 41L35 41L35 38L36 38L36 37L35 37L35 38L34 38L34 37L33 37L33 36L35 36L35 35L36 35L36 33L35 33L35 32L34 32L34 33L33 33L33 32ZM1 33L1 34L0 34L0 36L1 36L1 34L3 34L3 33ZM34 33L34 34L33 34L33 35L34 35L34 34L35 34L35 33ZM53 34L53 36L54 36L54 34ZM27 35L27 36L28 36L28 37L29 37L29 36L28 36L28 35ZM31 36L31 37L32 37L32 36ZM41 36L41 37L42 37L42 36ZM11 37L11 38L12 38L12 37ZM5 38L5 39L6 39L6 40L7 40L7 39L6 39L6 38ZM24 38L24 39L26 39L26 38ZM28 38L28 39L29 39L29 38ZM48 38L48 40L47 40L47 41L48 41L48 40L49 40L49 38ZM8 40L8 41L9 41L9 40ZM40 40L40 41L41 41L41 40ZM13 41L13 42L14 42L14 41ZM0 42L0 44L1 44L1 42ZM9 42L9 43L10 43L10 42ZM15 42L15 43L16 43L16 42ZM28 42L28 45L29 45L29 44L30 44L30 45L31 45L31 44L30 44L30 43L31 43L31 42L30 42L30 43L29 43L29 42ZM18 43L18 44L19 44L19 43ZM42 44L42 45L43 45L43 44ZM16 45L16 46L17 46L17 45ZM1 46L1 47L2 47L2 46ZM9 46L9 48L10 48L10 49L9 49L9 50L10 50L10 49L11 49L11 48L12 48L12 46ZM21 46L21 48L22 48L22 46ZM53 46L53 47L54 47L54 48L53 48L53 49L54 49L54 50L53 50L53 51L54 51L54 52L55 52L55 47L54 47L54 46ZM16 48L16 49L17 49L17 48ZM27 49L27 52L30 52L30 49ZM49 49L49 52L52 52L52 49ZM28 50L28 51L29 51L29 50ZM50 50L50 51L51 51L51 50ZM21 51L21 53L22 53L22 56L23 56L23 53L22 53L22 51ZM47 51L47 52L45 52L45 53L46 53L46 54L47 54L47 52L48 52L48 51ZM17 52L17 53L18 53L18 52ZM39 52L39 53L40 53L40 52ZM27 53L27 55L28 55L28 53ZM31 53L31 54L30 54L30 55L33 55L33 54L32 54L32 53ZM48 53L48 54L49 54L49 53ZM53 53L53 54L54 54L54 53ZM13 54L13 55L14 55L14 54ZM16 54L16 55L17 55L17 54ZM36 56L36 57L37 57L37 56ZM56 56L56 57L57 57L57 56ZM0 0L0 7L7 7L7 0ZM1 1L1 6L6 6L6 1ZM2 2L2 5L5 5L5 2ZM50 0L50 7L57 7L57 0ZM51 1L51 6L56 6L56 1ZM52 2L52 5L55 5L55 2ZM0 50L0 57L7 57L7 50ZM1 51L1 56L6 56L6 51ZM2 52L2 55L5 55L5 52Z" fill="#000000"/></g></g></svg>
