<?xml version="1.0" encoding="UTF-8"?>
<svg xmlns="http://www.w3.org/2000/svg" version="1.1" width="300" height="300" viewBox="0 0 300 300"><rect x="0" y="0" width="300" height="300" fill="#fefefe"/><g transform="scale(4.615)"><g transform="translate(4,4)"><path fill-rule="evenodd" d="M8 0L8 1L9 1L9 2L8 2L8 5L9 5L9 3L10 3L10 1L11 1L11 2L12 2L12 3L13 3L13 4L10 4L10 8L8 8L8 9L7 9L7 8L6 8L6 9L5 9L5 11L4 11L4 10L2 10L2 9L4 9L4 8L0 8L0 10L1 10L1 12L0 12L0 13L1 13L1 14L0 14L0 19L1 19L1 20L3 20L3 23L2 23L2 22L0 22L0 24L1 24L1 25L0 25L0 26L1 26L1 25L2 25L2 26L3 26L3 27L2 27L2 28L1 28L1 29L0 29L0 30L1 30L1 29L4 29L4 31L5 31L5 32L6 32L6 33L7 33L7 34L6 34L6 35L4 35L4 36L6 36L6 37L7 37L7 38L6 38L6 39L7 39L7 40L6 40L6 41L7 41L7 42L5 42L5 41L4 41L4 40L5 40L5 37L3 37L3 38L2 38L2 37L1 37L1 36L2 36L2 35L0 35L0 38L1 38L1 39L0 39L0 40L2 40L2 41L0 41L0 48L5 48L5 47L7 47L7 46L9 46L9 47L10 47L10 50L11 50L11 51L10 51L10 52L9 52L9 53L8 53L8 57L10 57L10 56L9 56L9 53L10 53L10 55L11 55L11 57L13 57L13 55L11 55L11 54L12 54L12 53L13 53L13 54L15 54L15 55L14 55L14 56L16 56L16 57L18 57L18 56L17 56L17 54L18 54L18 53L17 53L17 54L16 54L16 53L14 53L14 52L15 52L15 51L17 51L17 52L18 52L18 50L16 50L16 49L19 49L19 51L20 51L20 52L19 52L19 55L20 55L20 56L21 56L21 57L23 57L23 54L25 54L25 55L24 55L24 56L25 56L25 55L26 55L26 56L28 56L28 55L26 55L26 53L29 53L29 54L31 54L31 55L30 55L30 56L31 56L31 57L32 57L32 55L34 55L34 56L33 56L33 57L36 57L36 55L37 55L37 54L36 54L36 53L33 53L33 50L34 50L34 51L35 51L35 52L36 52L36 51L39 51L39 50L40 50L40 49L39 49L39 48L38 48L38 49L37 49L37 48L35 48L35 47L38 47L38 45L39 45L39 47L43 47L43 49L44 49L44 50L43 50L43 51L42 51L42 53L41 53L41 54L40 54L40 52L41 52L41 51L40 51L40 52L39 52L39 54L38 54L38 57L41 57L41 54L42 54L42 57L43 57L43 55L44 55L44 56L45 56L45 55L46 55L46 56L48 56L48 57L51 57L51 54L52 54L52 53L53 53L53 55L54 55L54 52L56 52L56 53L55 53L55 54L56 54L56 53L57 53L57 51L55 51L55 50L53 50L53 49L55 49L55 48L54 48L54 47L57 47L57 44L52 44L52 43L53 43L53 42L54 42L54 43L56 43L56 42L57 42L57 40L56 40L56 41L55 41L55 39L49 39L49 40L47 40L47 39L48 39L48 38L52 38L52 36L53 36L53 37L55 37L55 38L56 38L56 39L57 39L57 38L56 38L56 35L57 35L57 34L55 34L55 33L57 33L57 31L56 31L56 30L57 30L57 29L56 29L56 30L55 30L55 33L54 33L54 32L53 32L53 31L54 31L54 30L53 30L53 28L54 28L54 29L55 29L55 27L53 27L53 25L52 25L52 26L51 26L51 25L50 25L50 24L49 24L49 23L47 23L47 22L49 22L49 21L48 21L48 20L50 20L50 21L51 21L51 22L52 22L52 23L51 23L51 24L54 24L54 25L56 25L56 24L54 24L54 23L53 23L53 22L54 22L54 21L56 21L56 22L55 22L55 23L57 23L57 19L56 19L56 18L57 18L57 15L55 15L55 14L54 14L54 15L53 15L53 17L54 17L54 18L52 18L52 19L55 19L55 20L54 20L54 21L53 21L53 20L50 20L50 19L49 19L49 18L48 18L48 14L47 14L47 16L46 16L46 15L45 15L45 14L46 14L46 13L44 13L44 11L43 11L43 10L44 10L44 9L41 9L41 8L38 8L38 7L39 7L39 6L38 6L38 5L40 5L40 7L41 7L41 6L42 6L42 7L43 7L43 8L45 8L45 11L48 11L48 12L49 12L49 16L50 16L50 17L52 17L52 15L51 15L51 13L52 13L52 14L53 14L53 13L54 13L54 10L53 10L53 9L55 9L55 8L52 8L52 10L50 10L50 8L49 8L49 9L47 9L47 5L48 5L48 0L45 0L45 1L44 1L44 2L41 2L41 1L43 1L43 0L41 0L41 1L40 1L40 0L39 0L39 1L40 1L40 2L41 2L41 4L39 4L39 2L37 2L37 1L38 1L38 0L37 0L37 1L36 1L36 0L35 0L35 1L34 1L34 2L35 2L35 3L33 3L33 0L32 0L32 2L31 2L31 0L30 0L30 3L31 3L31 4L26 4L26 1L25 1L25 0L23 0L23 1L22 1L22 0L21 0L21 1L20 1L20 3L21 3L21 1L22 1L22 2L23 2L23 1L25 1L25 2L24 2L24 3L23 3L23 5L20 5L20 4L19 4L19 3L18 3L18 2L19 2L19 1L18 1L18 0L17 0L17 1L15 1L15 3L17 3L17 4L19 4L19 5L18 5L18 7L17 7L17 5L15 5L15 4L14 4L14 3L13 3L13 2L12 2L12 1L11 1L11 0L10 0L10 1L9 1L9 0ZM13 0L13 1L14 1L14 0ZM27 1L27 3L29 3L29 2L28 2L28 1ZM35 1L35 2L36 2L36 1ZM45 1L45 3L44 3L44 4L46 4L46 5L43 5L43 4L41 4L41 5L43 5L43 7L44 7L44 6L45 6L45 7L46 7L46 5L47 5L47 3L46 3L46 2L47 2L47 1ZM32 3L32 4L31 4L31 5L32 5L32 6L31 6L31 9L32 9L32 10L31 10L31 12L30 12L30 11L28 11L28 10L29 10L29 9L28 9L28 10L26 10L26 11L25 11L25 12L24 12L24 13L22 13L22 12L23 12L23 11L24 11L24 10L23 10L23 11L21 11L21 12L20 12L20 10L21 10L21 8L23 8L23 7L24 7L24 9L26 9L26 6L25 6L25 5L26 5L26 4L24 4L24 6L23 6L23 7L22 7L22 6L21 6L21 7L20 7L20 6L19 6L19 7L20 7L20 8L18 8L18 9L20 9L20 10L18 10L18 12L17 12L17 7L16 7L16 6L15 6L15 7L14 7L14 6L13 6L13 8L12 8L12 6L11 6L11 8L12 8L12 11L13 11L13 10L14 10L14 11L15 11L15 15L14 15L14 13L13 13L13 12L12 12L12 15L11 15L11 14L7 14L7 13L8 13L8 11L10 11L10 13L11 13L11 11L10 11L10 10L7 10L7 9L6 9L6 10L7 10L7 11L6 11L6 12L7 12L7 13L5 13L5 12L3 12L3 11L2 11L2 12L3 12L3 13L5 13L5 14L7 14L7 15L5 15L5 16L8 16L8 17L5 17L5 18L7 18L7 19L4 19L4 14L3 14L3 16L2 16L2 17L1 17L1 18L2 18L2 19L4 19L4 21L5 21L5 22L4 22L4 23L3 23L3 24L2 24L2 25L3 25L3 26L5 26L5 25L6 25L6 26L7 26L7 25L8 25L8 26L9 26L9 30L10 30L10 27L11 27L11 29L12 29L12 30L13 30L13 31L11 31L11 32L10 32L10 31L6 31L6 32L7 32L7 33L8 33L8 32L9 32L9 35L8 35L8 36L7 36L7 35L6 35L6 36L7 36L7 37L8 37L8 36L9 36L9 37L10 37L10 35L11 35L11 33L12 33L12 32L15 32L15 33L13 33L13 34L16 34L16 36L15 36L15 35L14 35L14 36L15 36L15 37L14 37L14 38L13 38L13 37L12 37L12 38L11 38L11 39L13 39L13 40L11 40L11 41L8 41L8 42L7 42L7 43L6 43L6 44L5 44L5 42L4 42L4 41L3 41L3 43L2 43L2 42L1 42L1 43L2 43L2 45L1 45L1 47L2 47L2 45L3 45L3 43L4 43L4 44L5 44L5 45L4 45L4 46L3 46L3 47L5 47L5 46L7 46L7 45L6 45L6 44L8 44L8 45L9 45L9 46L10 46L10 47L11 47L11 46L12 46L12 50L13 50L13 51L11 51L11 52L10 52L10 53L11 53L11 52L13 52L13 51L14 51L14 50L15 50L15 48L16 48L16 47L17 47L17 48L19 48L19 49L20 49L20 48L21 48L21 50L22 50L22 49L23 49L23 51L22 51L22 53L23 53L23 52L24 52L24 53L25 53L25 52L26 52L26 50L25 50L25 47L26 47L26 48L31 48L31 47L32 47L32 49L31 49L31 50L33 50L33 49L34 49L34 50L35 50L35 48L34 48L34 46L37 46L37 45L38 45L38 44L41 44L41 43L42 43L42 45L44 45L44 47L46 47L46 48L47 48L47 49L46 49L46 50L47 50L47 52L46 52L46 53L47 53L47 54L50 54L50 53L47 53L47 52L48 52L48 48L47 48L47 47L49 47L49 46L47 46L47 45L48 45L48 43L47 43L47 44L43 44L43 43L46 43L46 42L45 42L45 41L46 41L46 39L45 39L45 36L46 36L46 38L47 38L47 37L51 37L51 36L52 36L52 35L51 35L51 36L46 36L46 35L47 35L47 34L48 34L48 35L49 35L49 34L50 34L50 33L49 33L49 32L48 32L48 29L47 29L47 31L46 31L46 32L45 32L45 30L46 30L46 26L50 26L50 25L49 25L49 24L46 24L46 23L42 23L42 24L41 24L41 23L39 23L39 20L40 20L40 19L39 19L39 18L41 18L41 19L42 19L42 18L43 18L43 21L44 21L44 22L45 22L45 19L44 19L44 18L45 18L45 17L46 17L46 16L45 16L45 15L44 15L44 13L43 13L43 12L42 12L42 11L39 11L39 14L40 14L40 13L41 13L41 16L40 16L40 17L39 17L39 15L37 15L37 14L36 14L36 13L35 13L35 12L38 12L38 11L37 11L37 8L36 8L36 9L34 9L34 6L35 6L35 7L36 7L36 6L37 6L37 7L38 7L38 6L37 6L37 5L36 5L36 4L34 4L34 5L33 5L33 3ZM13 4L13 5L14 5L14 4ZM27 5L27 8L30 8L30 5ZM8 6L8 7L9 7L9 6ZM24 6L24 7L25 7L25 6ZM28 6L28 7L29 7L29 6ZM32 6L32 8L33 8L33 6ZM48 6L48 7L49 7L49 6ZM15 8L15 9L16 9L16 8ZM56 8L56 9L57 9L57 8ZM38 9L38 10L39 10L39 9ZM40 9L40 10L41 10L41 9ZM46 9L46 10L47 10L47 9ZM15 10L15 11L16 11L16 10ZM33 10L33 11L32 11L32 12L31 12L31 13L32 13L32 12L33 12L33 14L32 14L32 15L31 15L31 14L30 14L30 13L28 13L28 12L26 12L26 14L24 14L24 15L25 15L25 16L23 16L23 18L24 18L24 19L25 19L25 22L24 22L24 21L23 21L23 19L22 19L22 20L21 20L21 19L20 19L20 20L21 20L21 21L22 21L22 24L24 24L24 25L25 25L25 28L26 28L26 30L24 30L24 29L21 29L21 30L23 30L23 31L22 31L22 32L20 32L20 33L18 33L18 31L20 31L20 30L17 30L17 27L20 27L20 28L18 28L18 29L20 29L20 28L21 28L21 24L20 24L20 23L21 23L21 22L19 22L19 23L17 23L17 21L18 21L18 20L19 20L19 17L18 17L18 18L17 18L17 17L15 17L15 16L16 16L16 15L17 15L17 16L20 16L20 17L21 17L21 18L22 18L22 17L21 17L21 16L20 16L20 15L21 15L21 13L20 13L20 12L18 12L18 13L19 13L19 15L17 15L17 14L16 14L16 15L15 15L15 16L14 16L14 15L12 15L12 18L11 18L11 17L10 17L10 18L9 18L9 17L8 17L8 18L9 18L9 20L5 20L5 21L7 21L7 22L6 22L6 23L4 23L4 24L6 24L6 25L7 25L7 24L6 24L6 23L7 23L7 22L9 22L9 21L10 21L10 23L11 23L11 24L13 24L13 25L12 25L12 27L13 27L13 25L14 25L14 27L16 27L16 28L15 28L15 29L16 29L16 30L14 30L14 31L15 31L15 32L16 32L16 33L18 33L18 35L19 35L19 34L20 34L20 35L22 35L22 36L23 36L23 39L24 39L24 40L23 40L23 41L22 41L22 40L21 40L21 38L22 38L22 37L21 37L21 38L20 38L20 37L19 37L19 36L17 36L17 37L19 37L19 39L18 39L18 38L14 38L14 41L13 41L13 43L14 43L14 44L15 44L15 45L13 45L13 46L14 46L14 47L16 47L16 46L15 46L15 45L17 45L17 46L18 46L18 47L19 47L19 46L20 46L20 45L17 45L17 43L15 43L15 42L18 42L18 43L19 43L19 44L21 44L21 46L22 46L22 47L21 47L21 48L23 48L23 49L24 49L24 47L25 47L25 45L26 45L26 46L27 46L27 45L26 45L26 43L23 43L23 42L24 42L24 41L25 41L25 42L27 42L27 44L28 44L28 45L29 45L29 46L28 46L28 47L29 47L29 46L30 46L30 44L29 44L29 43L31 43L31 44L32 44L32 42L33 42L33 45L34 45L34 44L35 44L35 45L36 45L36 43L34 43L34 42L36 42L36 41L34 41L34 40L35 40L35 39L36 39L36 38L34 38L34 37L37 37L37 38L39 38L39 39L38 39L38 40L37 40L37 41L39 41L39 42L37 42L37 44L38 44L38 43L39 43L39 42L40 42L40 43L41 43L41 42L42 42L42 43L43 43L43 42L42 42L42 39L43 39L43 40L44 40L44 41L45 41L45 39L44 39L44 38L42 38L42 36L43 36L43 37L44 37L44 36L45 36L45 33L44 33L44 31L41 31L41 32L40 32L40 31L39 31L39 30L38 30L38 29L40 29L40 30L42 30L42 29L43 29L43 30L45 30L45 27L44 27L44 28L42 28L42 27L43 27L43 26L46 26L46 25L44 25L44 24L42 24L42 25L43 25L43 26L42 26L42 27L41 27L41 25L40 25L40 26L39 26L39 24L38 24L38 21L36 21L36 20L38 20L38 19L36 19L36 20L35 20L35 19L34 19L34 18L35 18L35 17L34 17L34 16L35 16L35 15L36 15L36 14L35 14L35 15L33 15L33 14L34 14L34 12L35 12L35 11L36 11L36 10L35 10L35 11L34 11L34 10ZM52 10L52 11L51 11L51 12L50 12L50 13L51 13L51 12L52 12L52 13L53 13L53 10ZM55 10L55 11L57 11L57 10ZM16 12L16 13L17 13L17 12ZM55 12L55 13L57 13L57 12ZM1 14L1 15L2 15L2 14ZM26 14L26 16L25 16L25 17L24 17L24 18L25 18L25 19L28 19L28 20L29 20L29 19L28 19L28 18L29 18L29 17L30 17L30 21L31 21L31 22L30 22L30 23L29 23L29 21L28 21L28 23L27 23L27 22L25 22L25 25L28 25L28 26L31 26L31 23L32 23L32 22L34 22L34 23L33 23L33 24L32 24L32 25L33 25L33 24L35 24L35 23L36 23L36 24L37 24L37 22L35 22L35 21L34 21L34 19L33 19L33 18L32 18L32 16L29 16L29 15L28 15L28 16L29 16L29 17L27 17L27 14ZM42 14L42 17L41 17L41 18L42 18L42 17L45 17L45 16L44 16L44 15L43 15L43 14ZM8 15L8 16L10 16L10 15ZM50 15L50 16L51 16L51 15ZM36 17L36 18L37 18L37 17ZM55 17L55 18L56 18L56 17ZM12 18L12 19L10 19L10 21L11 21L11 22L12 22L12 23L13 23L13 24L14 24L14 25L16 25L16 26L17 26L17 23L16 23L16 19L15 19L15 18ZM46 18L46 22L47 22L47 20L48 20L48 19L47 19L47 18ZM13 19L13 21L12 21L12 20L11 20L11 21L12 21L12 22L13 22L13 23L15 23L15 24L16 24L16 23L15 23L15 22L14 22L14 20L15 20L15 19ZM17 19L17 20L18 20L18 19ZM31 19L31 20L32 20L32 19ZM26 20L26 21L27 21L27 20ZM41 20L41 21L42 21L42 20ZM8 23L8 25L10 25L10 26L11 26L11 25L10 25L10 24L9 24L9 23ZM26 23L26 24L27 24L27 23ZM19 24L19 25L18 25L18 26L19 26L19 25L20 25L20 24ZM29 24L29 25L30 25L30 24ZM22 25L22 27L23 27L23 28L24 28L24 27L23 27L23 25ZM34 25L34 27L35 27L35 28L34 28L34 29L36 29L36 31L37 31L37 32L36 32L36 33L37 33L37 32L38 32L38 34L39 34L39 31L38 31L38 30L37 30L37 28L36 28L36 27L35 27L35 25ZM38 26L38 27L39 27L39 26ZM3 27L3 28L4 28L4 27ZM5 27L5 30L8 30L8 27ZM27 27L27 30L30 30L30 27ZM31 27L31 28L33 28L33 27ZM40 27L40 29L41 29L41 27ZM49 27L49 30L52 30L52 27ZM6 28L6 29L7 29L7 28ZM12 28L12 29L14 29L14 28ZM28 28L28 29L29 29L29 28ZM50 28L50 29L51 29L51 28ZM32 29L32 30L31 30L31 33L34 33L34 34L35 34L35 33L34 33L34 32L33 32L33 31L32 31L32 30L33 30L33 29ZM16 30L16 32L17 32L17 30ZM2 31L2 32L0 32L0 33L1 33L1 34L2 34L2 32L3 32L3 31ZM25 31L25 32L26 32L26 33L25 33L25 34L24 34L24 35L23 35L23 33L24 33L24 32L23 32L23 33L22 33L22 35L23 35L23 36L27 36L27 38L29 38L29 36L32 36L32 38L30 38L30 39L28 39L28 40L27 40L27 39L25 39L25 38L26 38L26 37L24 37L24 39L25 39L25 41L26 41L26 40L27 40L27 41L29 41L29 40L33 40L33 39L34 39L34 38L33 38L33 36L36 36L36 35L33 35L33 36L32 36L32 34L30 34L30 35L29 35L29 33L30 33L30 31L28 31L28 33L27 33L27 31ZM50 31L50 32L52 32L52 34L54 34L54 33L53 33L53 32L52 32L52 31ZM42 32L42 33L43 33L43 32ZM20 33L20 34L21 34L21 33ZM26 33L26 34L27 34L27 36L29 36L29 35L28 35L28 34L27 34L27 33ZM41 34L41 35L39 35L39 36L40 36L40 37L41 37L41 36L42 36L42 34ZM43 34L43 35L44 35L44 34ZM54 35L54 36L55 36L55 35ZM37 36L37 37L38 37L38 36ZM3 38L3 39L2 39L2 40L4 40L4 38ZM7 38L7 39L8 39L8 40L10 40L10 38ZM32 38L32 39L33 39L33 38ZM16 39L16 40L15 40L15 41L16 41L16 40L17 40L17 41L19 41L19 43L21 43L21 44L22 44L22 46L23 46L23 45L25 45L25 44L22 44L22 42L21 42L21 41L19 41L19 40L17 40L17 39ZM39 39L39 40L40 40L40 41L41 41L41 39ZM50 40L50 41L47 41L47 42L50 42L50 43L49 43L49 44L50 44L50 46L51 46L51 48L53 48L53 47L52 47L52 46L53 46L53 45L52 45L52 44L51 44L51 42L50 42L50 41L52 41L52 40ZM30 41L30 42L31 42L31 41ZM54 41L54 42L55 42L55 41ZM8 42L8 43L9 43L9 44L10 44L10 46L11 46L11 43L12 43L12 42L10 42L10 43L9 43L9 42ZM31 45L31 46L32 46L32 45ZM55 45L55 46L56 46L56 45ZM46 46L46 47L47 47L47 46ZM6 48L6 49L8 49L8 50L9 50L9 48ZM13 48L13 49L14 49L14 48ZM41 48L41 49L42 49L42 48ZM44 48L44 49L45 49L45 48ZM56 48L56 50L57 50L57 48ZM27 49L27 52L30 52L30 49ZM36 49L36 50L37 50L37 49ZM49 49L49 52L52 52L52 49ZM24 50L24 51L25 51L25 50ZM28 50L28 51L29 51L29 50ZM50 50L50 51L51 51L51 50ZM31 51L31 53L32 53L32 51ZM20 53L20 55L21 55L21 56L22 56L22 55L21 55L21 53ZM42 53L42 54L43 54L43 53ZM34 54L34 55L36 55L36 54ZM44 54L44 55L45 55L45 54ZM39 55L39 56L40 56L40 55ZM48 55L48 56L49 56L49 55ZM56 55L56 56L57 56L57 55ZM52 56L52 57L55 57L55 56ZM0 0L0 7L7 7L7 0ZM1 1L1 6L6 6L6 1ZM2 2L2 5L5 5L5 2ZM50 0L50 7L57 7L57 0ZM51 1L51 6L56 6L56 1ZM52 2L52 5L55 5L55 2ZM0 50L0 57L7 57L7 50ZM1 51L1 56L6 56L6 51ZM2 52L2 55L5 55L5 52Z" fill="#000000"/></g></g></svg>
