<?xml version="1.0" encoding="UTF-8"?>
<svg xmlns="http://www.w3.org/2000/svg" version="1.1" width="300" height="300" viewBox="0 0 300 300"><rect x="0" y="0" width="300" height="300" fill="#fefefe"/><g transform="scale(4.615)"><g transform="translate(4,4)"><path fill-rule="evenodd" d="M8 0L8 2L9 2L9 4L8 4L8 11L7 11L7 10L6 10L6 9L7 9L7 8L5 8L5 9L4 9L4 10L3 10L3 8L0 8L0 12L1 12L1 13L0 13L0 15L2 15L2 17L1 17L1 16L0 16L0 17L1 17L1 18L2 18L2 17L4 17L4 18L6 18L6 19L7 19L7 18L6 18L6 17L7 17L7 16L8 16L8 14L9 14L9 15L10 15L10 16L9 16L9 17L8 17L8 22L6 22L6 21L7 21L7 20L4 20L4 23L7 23L7 24L4 24L4 25L5 25L5 26L4 26L4 29L3 29L3 28L2 28L2 29L3 29L3 30L1 30L1 29L0 29L0 30L1 30L1 32L0 32L0 33L2 33L2 34L1 34L1 35L0 35L0 37L1 37L1 38L0 38L0 39L1 39L1 42L0 42L0 43L2 43L2 47L1 47L1 46L0 46L0 48L5 48L5 47L7 47L7 48L6 48L6 49L7 49L7 48L8 48L8 50L10 50L10 48L11 48L11 49L12 49L12 50L11 50L11 51L10 51L10 54L8 54L8 57L9 57L9 56L10 56L10 57L12 57L12 55L10 55L10 54L13 54L13 55L14 55L14 53L13 53L13 52L15 52L15 57L17 57L17 55L16 55L16 54L17 54L17 52L18 52L18 55L19 55L19 51L20 51L20 53L21 53L21 52L22 52L22 54L23 54L23 55L22 55L22 57L24 57L24 56L25 56L25 55L24 55L24 54L26 54L26 55L27 55L27 56L26 56L26 57L28 57L28 55L29 55L29 57L33 57L33 55L34 55L34 57L35 57L35 55L37 55L37 54L36 54L36 53L37 53L37 52L38 52L38 53L39 53L39 56L40 56L40 57L41 57L41 56L42 56L42 57L43 57L43 56L44 56L44 57L46 57L46 56L47 56L47 57L50 57L50 55L49 55L49 54L52 54L52 55L53 55L53 56L51 56L51 57L54 57L54 53L55 53L55 52L56 52L56 53L57 53L57 52L56 52L56 51L57 51L57 50L56 50L56 51L55 51L55 52L54 52L54 51L53 51L53 50L54 50L54 49L56 49L56 47L57 47L57 45L56 45L56 44L57 44L57 42L56 42L56 41L57 41L57 40L54 40L54 38L57 38L57 36L56 36L56 37L55 37L55 36L54 36L54 34L53 34L53 36L51 36L51 33L50 33L50 32L49 32L49 31L53 31L53 32L54 32L54 33L56 33L56 35L57 35L57 33L56 33L56 31L57 31L57 28L56 28L56 27L57 27L57 24L56 24L56 23L57 23L57 12L56 12L56 15L55 15L55 16L54 16L54 14L53 14L53 12L54 12L54 11L55 11L55 9L57 9L57 8L55 8L55 9L54 9L54 10L53 10L53 8L49 8L49 6L48 6L48 8L47 8L47 5L48 5L48 0L46 0L46 1L47 1L47 2L45 2L45 4L44 4L44 2L43 2L43 4L42 4L42 3L41 3L41 4L42 4L42 5L41 5L41 6L40 6L40 7L39 7L39 6L38 6L38 5L39 5L39 4L40 4L40 2L42 2L42 1L45 1L45 0L42 0L42 1L41 1L41 0L38 0L38 3L37 3L37 4L38 4L38 5L37 5L37 6L36 6L36 10L34 10L34 9L35 9L35 4L36 4L36 3L35 3L35 4L34 4L34 2L37 2L37 1L35 1L35 0L34 0L34 2L33 2L33 1L32 1L32 0L30 0L30 1L31 1L31 2L29 2L29 0L28 0L28 1L27 1L27 0L24 0L24 1L23 1L23 0L20 0L20 1L19 1L19 0L16 0L16 1L14 1L14 0L12 0L12 1L11 1L11 0L10 0L10 1L11 1L11 4L10 4L10 2L9 2L9 0ZM12 1L12 3L14 3L14 4L15 4L15 3L16 3L16 4L17 4L17 5L16 5L16 6L15 6L15 7L14 7L14 6L13 6L13 4L11 4L11 5L12 5L12 6L11 6L11 7L10 7L10 6L9 6L9 7L10 7L10 8L9 8L9 9L10 9L10 8L11 8L11 9L13 9L13 10L12 10L12 11L13 11L13 14L12 14L12 13L10 13L10 12L11 12L11 11L10 11L10 10L9 10L9 12L7 12L7 11L6 11L6 12L7 12L7 13L5 13L5 12L2 12L2 11L3 11L3 10L2 10L2 9L1 9L1 12L2 12L2 15L4 15L4 13L5 13L5 14L8 14L8 13L10 13L10 14L12 14L12 15L11 15L11 16L10 16L10 17L9 17L9 18L10 18L10 19L9 19L9 20L11 20L11 19L12 19L12 21L9 21L9 22L11 22L11 23L10 23L10 25L12 25L12 26L10 26L10 27L9 27L9 28L11 28L11 29L10 29L10 31L6 31L6 32L4 32L4 31L3 31L3 33L5 33L5 34L3 34L3 35L4 35L4 36L5 36L5 37L3 37L3 36L2 36L2 35L1 35L1 36L2 36L2 38L1 38L1 39L2 39L2 40L3 40L3 41L2 41L2 42L4 42L4 43L5 43L5 44L4 44L4 45L5 45L5 46L3 46L3 47L5 47L5 46L7 46L7 45L6 45L6 44L9 44L9 43L10 43L10 42L9 42L9 41L11 41L11 42L12 42L12 43L14 43L14 42L15 42L15 40L17 40L17 39L18 39L18 40L19 40L19 41L20 41L20 42L19 42L19 43L18 43L18 44L19 44L19 45L18 45L18 46L19 46L19 47L18 47L18 48L17 48L17 47L16 47L16 48L15 48L15 45L16 45L16 46L17 46L17 44L12 44L12 45L11 45L11 46L10 46L10 45L9 45L9 46L8 46L8 47L9 47L9 48L10 48L10 47L11 47L11 48L12 48L12 49L13 49L13 48L14 48L14 51L15 51L15 49L16 49L16 50L18 50L18 51L19 51L19 50L18 50L18 48L20 48L20 51L21 51L21 50L22 50L22 48L23 48L23 49L24 49L24 51L22 51L22 52L24 52L24 51L25 51L25 53L26 53L26 54L27 54L27 55L28 55L28 53L26 53L26 49L25 49L25 48L27 48L27 46L29 46L29 47L28 47L28 48L31 48L31 52L32 52L32 50L33 50L33 51L37 51L37 49L36 49L36 48L37 48L37 47L38 47L38 52L39 52L39 53L40 53L40 52L39 52L39 49L40 49L40 51L41 51L41 49L42 49L42 50L43 50L43 49L44 49L44 50L45 50L45 51L47 51L47 52L48 52L48 51L47 51L47 49L46 49L46 47L47 47L47 46L49 46L49 47L50 47L50 45L52 45L52 47L51 47L51 48L53 48L53 45L54 45L54 48L55 48L55 47L56 47L56 45L55 45L55 44L56 44L56 42L55 42L55 41L54 41L54 42L55 42L55 43L54 43L54 44L53 44L53 40L52 40L52 39L51 39L51 40L48 40L48 39L49 39L49 38L47 38L47 37L46 37L46 36L48 36L48 35L46 35L46 34L48 34L48 33L47 33L47 32L46 32L46 31L47 31L47 30L48 30L48 27L47 27L47 28L46 28L46 29L44 29L44 27L45 27L45 26L44 26L44 24L45 24L45 25L46 25L46 26L47 26L47 25L46 25L46 24L48 24L48 22L50 22L50 26L51 26L51 25L52 25L52 26L53 26L53 25L54 25L54 26L55 26L55 25L56 25L56 24L55 24L55 23L56 23L56 20L55 20L55 19L54 19L54 17L53 17L53 18L52 18L52 16L50 16L50 15L51 15L51 14L52 14L52 15L53 15L53 14L52 14L52 13L50 13L50 10L51 10L51 12L52 12L52 10L51 10L51 9L50 9L50 10L49 10L49 9L48 9L48 14L47 14L47 13L46 13L46 11L47 11L47 9L46 9L46 8L45 8L45 9L44 9L44 8L42 8L42 6L41 6L41 7L40 7L40 8L39 8L39 9L38 9L38 6L37 6L37 9L38 9L38 10L37 10L37 11L36 11L36 12L35 12L35 11L34 11L34 10L33 10L33 9L32 9L32 8L34 8L34 6L33 6L33 2L32 2L32 5L31 5L31 9L30 9L30 10L31 10L31 9L32 9L32 11L34 11L34 12L35 12L35 13L34 13L34 15L33 15L33 13L32 13L32 14L31 14L31 12L30 12L30 11L29 11L29 10L28 10L28 9L27 9L27 10L25 10L25 9L26 9L26 5L24 5L24 6L23 6L23 5L22 5L22 6L21 6L21 7L22 7L22 6L23 6L23 9L22 9L22 8L21 8L21 9L20 9L20 10L19 10L19 11L18 11L18 12L19 12L19 13L18 13L18 15L15 15L15 14L17 14L17 10L18 10L18 8L19 8L19 7L20 7L20 5L21 5L21 3L22 3L22 4L23 4L23 2L22 2L22 1L20 1L20 2L19 2L19 1L18 1L18 2L17 2L17 1L16 1L16 2L15 2L15 3L14 3L14 1ZM24 1L24 4L25 4L25 1ZM39 1L39 2L40 2L40 1ZM18 2L18 3L17 3L17 4L18 4L18 5L17 5L17 6L16 6L16 7L17 7L17 8L18 8L18 7L19 7L19 4L18 4L18 3L19 3L19 2ZM20 2L20 3L21 3L21 2ZM27 2L27 3L26 3L26 4L27 4L27 3L28 3L28 4L30 4L30 3L29 3L29 2ZM38 3L38 4L39 4L39 3ZM46 3L46 5L47 5L47 3ZM9 4L9 5L10 5L10 4ZM43 4L43 5L44 5L44 6L43 6L43 7L44 7L44 6L45 6L45 7L46 7L46 6L45 6L45 5L44 5L44 4ZM27 5L27 8L30 8L30 5ZM12 6L12 7L11 7L11 8L14 8L14 9L15 9L15 11L14 11L14 12L16 12L16 8L14 8L14 7L13 7L13 6ZM17 6L17 7L18 7L18 6ZM24 6L24 7L25 7L25 6ZM28 6L28 7L29 7L29 6ZM32 6L32 7L33 7L33 6ZM24 8L24 9L23 9L23 10L24 10L24 9L25 9L25 8ZM40 8L40 9L41 9L41 11L40 11L40 10L38 10L38 11L37 11L37 12L36 12L36 13L35 13L35 14L36 14L36 18L34 18L34 17L35 17L35 15L34 15L34 17L33 17L33 15L32 15L32 17L31 17L31 16L30 16L30 15L29 15L29 13L30 13L30 12L29 12L29 11L28 11L28 12L27 12L27 14L28 14L28 15L29 15L29 16L30 16L30 17L28 17L28 18L30 18L30 17L31 17L31 19L30 19L30 20L28 20L28 22L27 22L27 20L26 20L26 19L27 19L27 18L26 18L26 17L27 17L27 16L26 16L26 11L22 11L22 12L23 12L23 14L24 14L24 12L25 12L25 16L26 16L26 17L25 17L25 18L24 18L24 16L22 16L22 14L20 14L20 13L21 13L21 12L20 12L20 13L19 13L19 14L20 14L20 17L19 17L19 16L18 16L18 17L19 17L19 18L18 18L18 19L17 19L17 18L16 18L16 17L17 17L17 16L15 16L15 15L14 15L14 17L13 17L13 16L11 16L11 17L10 17L10 18L12 18L12 17L13 17L13 21L12 21L12 25L13 25L13 26L12 26L12 28L13 28L13 26L14 26L14 27L15 27L15 28L16 28L16 27L17 27L17 26L16 26L16 25L17 25L17 23L18 23L18 25L19 25L19 23L18 23L18 22L17 22L17 20L18 20L18 21L19 21L19 19L20 19L20 17L21 17L21 19L22 19L22 21L23 21L23 23L22 23L22 22L20 22L20 23L22 23L22 26L20 26L20 28L21 28L21 30L20 30L20 29L19 29L19 30L17 30L17 31L16 31L16 30L14 30L14 29L11 29L11 30L14 30L14 32L15 32L15 33L14 33L14 34L13 34L13 32L12 32L12 33L11 33L11 31L10 31L10 32L9 32L9 33L10 33L10 34L9 34L9 35L8 35L8 34L6 34L6 35L8 35L8 36L6 36L6 37L9 37L9 36L13 36L13 37L14 37L14 36L16 36L16 37L17 37L17 36L16 36L16 35L15 35L15 34L16 34L16 32L17 32L17 31L18 31L18 33L17 33L17 34L19 34L19 35L18 35L18 37L19 37L19 40L20 40L20 41L21 41L21 39L22 39L22 37L23 37L23 36L22 36L22 35L21 35L21 34L20 34L20 33L21 33L21 30L22 30L22 33L23 33L23 35L25 35L25 36L24 36L24 37L25 37L25 36L28 36L28 37L29 37L29 36L28 36L28 35L31 35L31 36L30 36L30 40L31 40L31 38L33 38L33 39L34 39L34 41L33 41L33 40L32 40L32 47L31 47L31 46L30 46L30 45L29 45L29 46L30 46L30 47L31 47L31 48L32 48L32 49L33 49L33 50L34 50L34 49L35 49L35 47L37 47L37 46L38 46L38 45L37 45L37 44L40 44L40 46L41 46L41 47L40 47L40 49L41 49L41 47L42 47L42 45L43 45L43 44L42 44L42 45L41 45L41 44L40 44L40 43L43 43L43 42L44 42L44 46L43 46L43 47L44 47L44 46L45 46L45 47L46 47L46 44L47 44L47 45L48 45L48 44L49 44L49 43L48 43L48 44L47 44L47 43L45 43L45 42L46 42L46 40L47 40L47 41L48 41L48 40L47 40L47 38L46 38L46 37L45 37L45 36L46 36L46 35L45 35L45 34L46 34L46 32L45 32L45 31L46 31L46 30L44 30L44 31L42 31L42 28L43 28L43 27L44 27L44 26L43 26L43 27L41 27L41 26L40 26L40 25L41 25L41 23L39 23L39 24L40 24L40 25L39 25L39 26L38 26L38 25L37 25L37 24L36 24L36 23L38 23L38 20L39 20L39 19L40 19L40 22L42 22L42 23L43 23L43 22L44 22L44 23L45 23L45 22L44 22L44 21L45 21L45 19L46 19L46 16L47 16L47 18L48 18L48 17L49 17L49 18L50 18L50 19L49 19L49 20L51 20L51 18L50 18L50 16L49 16L49 15L50 15L50 13L49 13L49 14L48 14L48 15L46 15L46 13L45 13L45 12L44 12L44 13L43 13L43 14L44 14L44 13L45 13L45 16L44 16L44 15L43 15L43 16L44 16L44 17L43 17L43 18L42 18L42 17L41 17L41 15L42 15L42 12L43 12L43 11L42 11L42 8ZM43 9L43 10L44 10L44 9ZM4 10L4 11L5 11L5 10ZM56 10L56 11L57 11L57 10ZM41 11L41 12L42 12L42 11ZM37 12L37 13L38 13L38 15L37 15L37 16L38 16L38 18L40 18L40 19L41 19L41 20L42 20L42 22L43 22L43 21L44 21L44 19L45 19L45 17L44 17L44 19L43 19L43 20L42 20L42 19L41 19L41 18L40 18L40 15L39 15L39 12ZM5 15L5 16L4 16L4 17L5 17L5 16L7 16L7 15ZM55 16L55 17L56 17L56 16ZM32 17L32 18L33 18L33 21L32 21L32 20L30 20L30 23L31 23L31 24L30 24L30 26L31 26L31 25L32 25L32 27L31 27L31 32L30 32L30 31L27 31L27 32L26 32L26 30L25 30L25 28L24 28L24 30L25 30L25 32L24 32L24 31L23 31L23 32L24 32L24 34L25 34L25 35L26 35L26 34L27 34L27 35L28 35L28 34L29 34L29 32L30 32L30 34L33 34L33 36L34 36L34 39L35 39L35 41L34 41L34 42L35 42L35 41L36 41L36 44L33 44L33 45L34 45L34 47L32 47L32 48L33 48L33 49L34 49L34 47L35 47L35 45L36 45L36 44L37 44L37 43L40 43L40 42L41 42L41 41L40 41L40 40L41 40L41 39L42 39L42 40L43 40L43 41L42 41L42 42L43 42L43 41L44 41L44 42L45 42L45 41L44 41L44 40L43 40L43 38L44 38L44 34L45 34L45 33L44 33L44 34L43 34L43 33L42 33L42 31L40 31L40 30L41 30L41 29L40 29L40 27L39 27L39 29L38 29L38 28L37 28L37 26L36 26L36 24L34 24L34 22L35 22L35 23L36 23L36 22L37 22L37 21L36 21L36 20L35 20L35 19L34 19L34 18L33 18L33 17ZM22 18L22 19L23 19L23 18ZM36 18L36 19L37 19L37 20L38 20L38 19L37 19L37 18ZM14 19L14 20L15 20L15 19ZM24 19L24 20L25 20L25 19ZM47 19L47 20L46 20L46 21L47 21L47 22L48 22L48 19ZM53 19L53 20L52 20L52 22L51 22L51 24L52 24L52 25L53 25L53 24L54 24L54 22L55 22L55 21L54 21L54 19ZM1 20L1 21L0 21L0 28L1 28L1 27L3 27L3 20ZM20 20L20 21L21 21L21 20ZM1 21L1 23L2 23L2 21ZM14 21L14 23L13 23L13 25L15 25L15 21ZM33 21L33 22L31 22L31 23L32 23L32 25L33 25L33 26L34 26L34 24L33 24L33 22L34 22L34 21ZM35 21L35 22L36 22L36 21ZM16 22L16 23L17 23L17 22ZM24 22L24 23L25 23L25 22ZM26 22L26 23L27 23L27 25L26 25L26 26L27 26L27 25L28 25L28 26L29 26L29 25L28 25L28 24L29 24L29 22L28 22L28 23L27 23L27 22ZM52 22L52 24L53 24L53 22ZM1 24L1 25L2 25L2 24ZM6 25L6 26L8 26L8 25ZM24 25L24 26L23 26L23 27L22 27L22 28L23 28L23 27L24 27L24 26L25 26L25 25ZM48 25L48 26L49 26L49 25ZM5 27L5 30L8 30L8 27ZM18 27L18 28L19 28L19 27ZM27 27L27 30L30 30L30 27ZM34 27L34 29L33 29L33 28L32 28L32 29L33 29L33 31L32 31L32 33L33 33L33 34L34 34L34 33L35 33L35 35L34 35L34 36L35 36L35 35L36 35L36 37L35 37L35 38L36 38L36 41L37 41L37 42L38 42L38 41L39 41L39 40L40 40L40 39L41 39L41 38L42 38L42 37L43 37L43 36L42 36L42 37L41 37L41 35L40 35L40 36L39 36L39 34L38 34L38 33L39 33L39 32L40 32L40 34L42 34L42 33L41 33L41 32L40 32L40 31L38 31L38 30L37 30L37 28L36 28L36 30L35 30L35 31L36 31L36 33L35 33L35 32L34 32L34 33L33 33L33 31L34 31L34 29L35 29L35 27ZM49 27L49 30L52 30L52 27ZM54 27L54 28L53 28L53 29L55 29L55 27ZM6 28L6 29L7 29L7 28ZM28 28L28 29L29 29L29 28ZM50 28L50 29L51 29L51 28ZM22 29L22 30L23 30L23 29ZM36 30L36 31L37 31L37 32L38 32L38 31L37 31L37 30ZM53 30L53 31L54 31L54 32L55 32L55 31L56 31L56 30L55 30L55 31L54 31L54 30ZM15 31L15 32L16 32L16 31ZM19 31L19 33L20 33L20 31ZM6 32L6 33L8 33L8 32ZM25 32L25 33L26 33L26 32ZM27 33L27 34L28 34L28 33ZM36 33L36 35L37 35L37 36L38 36L38 38L39 38L39 39L40 39L40 38L39 38L39 36L38 36L38 34L37 34L37 33ZM49 33L49 37L50 37L50 38L51 38L51 37L50 37L50 33ZM10 34L10 35L12 35L12 34ZM19 35L19 36L20 36L20 35ZM21 36L21 37L22 37L22 36ZM31 36L31 37L32 37L32 36ZM53 36L53 37L52 37L52 38L54 38L54 36ZM26 37L26 38L24 38L24 39L26 39L26 40L25 40L25 41L26 41L26 42L24 42L24 40L22 40L22 41L23 41L23 43L22 43L22 44L23 44L23 43L24 43L24 44L25 44L25 45L26 45L26 46L25 46L25 47L24 47L24 45L23 45L23 47L24 47L24 48L25 48L25 47L26 47L26 46L27 46L27 44L30 44L30 43L31 43L31 41L29 41L29 42L28 42L28 41L27 41L27 39L26 39L26 38L27 38L27 37ZM36 37L36 38L37 38L37 37ZM2 38L2 39L3 39L3 38ZM4 38L4 39L5 39L5 40L4 40L4 41L5 41L5 43L7 43L7 42L8 42L8 43L9 43L9 42L8 42L8 41L9 41L9 39L7 39L7 38ZM13 38L13 39L10 39L10 40L11 40L11 41L12 41L12 42L13 42L13 39L15 39L15 38ZM16 38L16 39L17 39L17 38ZM20 38L20 39L21 39L21 38ZM28 38L28 39L29 39L29 38ZM6 39L6 40L7 40L7 39ZM37 39L37 41L38 41L38 39ZM51 40L51 41L49 41L49 42L50 42L50 44L52 44L52 40ZM6 41L6 42L7 42L7 41ZM16 41L16 43L17 43L17 41ZM20 42L20 43L19 43L19 44L21 44L21 42ZM27 42L27 43L28 43L28 42ZM29 42L29 43L30 43L30 42ZM19 45L19 46L20 46L20 45ZM9 46L9 47L10 47L10 46ZM12 46L12 48L13 48L13 46ZM21 46L21 47L20 47L20 48L22 48L22 46ZM16 48L16 49L17 49L17 48ZM44 48L44 49L45 49L45 48ZM27 49L27 52L30 52L30 49ZM49 49L49 52L52 52L52 49ZM12 50L12 51L13 51L13 50ZM28 50L28 51L29 51L29 50ZM50 50L50 51L51 51L51 50ZM8 51L8 52L9 52L9 51ZM16 51L16 52L17 52L17 51ZM42 51L42 52L41 52L41 53L42 53L42 54L43 54L43 55L44 55L44 56L46 56L46 55L47 55L47 56L49 56L49 55L48 55L48 54L49 54L49 53L46 53L46 52L45 52L45 53L46 53L46 54L45 54L45 55L44 55L44 52L43 52L43 51ZM33 52L33 53L34 53L34 54L35 54L35 53L36 53L36 52L35 52L35 53L34 53L34 52ZM31 53L31 54L30 54L30 55L33 55L33 54L32 54L32 53ZM20 54L20 55L21 55L21 54ZM40 54L40 56L41 56L41 54ZM55 54L55 55L57 55L57 54ZM18 56L18 57L20 57L20 56ZM36 56L36 57L37 57L37 56ZM56 56L56 57L57 57L57 56ZM0 0L0 7L7 7L7 0ZM1 1L1 6L6 6L6 1ZM2 2L2 5L5 5L5 2ZM50 0L50 7L57 7L57 0ZM51 1L51 6L56 6L56 1ZM52 2L52 5L55 5L55 2ZM0 50L0 57L7 57L7 50ZM1 51L1 56L6 56L6 51ZM2 52L2 55L5 55L5 52Z" fill="#000000"/></g></g></svg>
