<?xml version="1.0" encoding="UTF-8"?>
<svg xmlns="http://www.w3.org/2000/svg" version="1.1" width="300" height="300" viewBox="0 0 300 300"><rect x="0" y="0" width="300" height="300" fill="#fefefe"/><g transform="scale(4.615)"><g transform="translate(4,4)"><path fill-rule="evenodd" d="M8 0L8 4L9 4L9 5L8 5L8 7L9 7L9 6L10 6L10 7L11 7L11 6L12 6L12 7L13 7L13 8L12 8L12 9L10 9L10 10L9 10L9 11L7 11L7 10L5 10L5 11L7 11L7 12L6 12L6 13L5 13L5 14L6 14L6 15L8 15L8 13L9 13L9 14L10 14L10 15L11 15L11 16L10 16L10 20L8 20L8 19L7 19L7 18L8 18L8 17L9 17L9 16L5 16L5 15L4 15L4 16L3 16L3 17L2 17L2 15L1 15L1 17L0 17L0 18L1 18L1 17L2 17L2 19L3 19L3 20L2 20L2 21L1 21L1 19L0 19L0 21L1 21L1 22L0 22L0 23L1 23L1 24L0 24L0 27L1 27L1 26L2 26L2 25L1 25L1 24L3 24L3 23L1 23L1 22L2 22L2 21L3 21L3 22L4 22L4 23L5 23L5 20L6 20L6 21L7 21L7 22L6 22L6 23L8 23L8 24L9 24L9 23L11 23L11 22L13 22L13 24L14 24L14 25L12 25L12 26L11 26L11 25L10 25L10 26L8 26L8 25L7 25L7 24L6 24L6 25L5 25L5 24L4 24L4 25L3 25L3 26L4 26L4 28L3 28L3 27L2 27L2 28L3 28L3 29L1 29L1 28L0 28L0 29L1 29L1 30L2 30L2 31L3 31L3 32L4 32L4 31L5 31L5 33L4 33L4 34L5 34L5 33L8 33L8 35L7 35L7 34L6 34L6 35L7 35L7 36L6 36L6 37L4 37L4 36L5 36L5 35L4 35L4 36L3 36L3 37L2 37L2 38L1 38L1 37L0 37L0 38L1 38L1 39L3 39L3 40L2 40L2 41L1 41L1 40L0 40L0 42L1 42L1 43L2 43L2 44L1 44L1 45L3 45L3 44L6 44L6 45L8 45L8 43L10 43L10 45L9 45L9 46L10 46L10 49L11 49L11 46L10 46L10 45L11 45L11 44L12 44L12 48L13 48L13 49L14 49L14 50L13 50L13 51L12 51L12 50L11 50L11 53L12 53L12 54L10 54L10 52L9 52L9 51L8 51L8 53L9 53L9 54L10 54L10 55L11 55L11 56L13 56L13 57L15 57L15 55L16 55L16 54L19 54L19 55L20 55L20 54L21 54L21 53L22 53L22 51L23 51L23 52L24 52L24 53L23 53L23 55L24 55L24 57L25 57L25 55L26 55L26 54L27 54L27 53L28 53L28 57L29 57L29 55L30 55L30 57L34 57L34 53L33 53L33 51L34 51L34 52L35 52L35 57L37 57L37 56L36 56L36 54L37 54L37 53L38 53L38 55L39 55L39 57L40 57L40 54L41 54L41 56L44 56L44 57L45 57L45 56L46 56L46 57L47 57L47 56L48 56L48 55L47 55L47 54L46 54L46 53L47 53L47 52L48 52L48 54L49 54L49 57L50 57L50 55L51 55L51 56L53 56L53 57L54 57L54 56L53 56L53 50L54 50L54 51L56 51L56 52L54 52L54 54L57 54L57 51L56 51L56 45L57 45L57 44L56 44L56 45L55 45L55 46L54 46L54 44L53 44L53 43L54 43L54 42L55 42L55 43L56 43L56 42L57 42L57 40L52 40L52 37L51 37L51 36L53 36L53 38L54 38L54 39L57 39L57 38L55 38L55 36L53 36L53 35L56 35L56 34L57 34L57 33L56 33L56 30L55 30L55 29L54 29L54 28L53 28L53 27L54 27L54 26L55 26L55 27L56 27L56 29L57 29L57 27L56 27L56 25L57 25L57 24L56 24L56 20L57 20L57 19L56 19L56 18L55 18L55 19L56 19L56 20L55 20L55 22L54 22L54 21L52 21L52 20L53 20L53 19L49 19L49 20L51 20L51 21L47 21L47 20L46 20L46 19L45 19L45 18L46 18L46 17L47 17L47 19L48 19L48 18L49 18L49 17L50 17L50 18L53 18L53 17L55 17L55 16L56 16L56 17L57 17L57 15L56 15L56 10L57 10L57 8L53 8L53 9L55 9L55 13L54 13L54 12L53 12L53 13L52 13L52 14L51 14L51 12L52 12L52 11L54 11L54 10L52 10L52 11L51 11L51 9L52 9L52 8L51 8L51 9L50 9L50 15L48 15L48 17L47 17L47 15L46 15L46 11L45 11L45 9L46 9L46 8L47 8L47 12L49 12L49 11L48 11L48 10L49 10L49 6L48 6L48 8L47 8L47 5L48 5L48 0L46 0L46 1L45 1L45 0L41 0L41 1L40 1L40 2L39 2L39 3L40 3L40 4L38 4L38 5L36 5L36 4L35 4L35 2L36 2L36 3L38 3L38 1L39 1L39 0L38 0L38 1L37 1L37 2L36 2L36 0L35 0L35 1L34 1L34 0L28 0L28 1L27 1L27 0L26 0L26 1L25 1L25 0L23 0L23 2L22 2L22 1L21 1L21 0L19 0L19 1L20 1L20 3L21 3L21 5L22 5L22 7L21 7L21 6L20 6L20 5L19 5L19 6L18 6L18 5L17 5L17 6L16 6L16 5L15 5L15 4L14 4L14 1L16 1L16 4L17 4L17 3L19 3L19 2L17 2L17 1L18 1L18 0L17 0L17 1L16 1L16 0L14 0L14 1L13 1L13 0L12 0L12 2L11 2L11 0L10 0L10 2L9 2L9 0ZM26 1L26 2L25 2L25 3L23 3L23 5L24 5L24 4L25 4L25 3L26 3L26 4L28 4L28 3L30 3L30 4L31 4L31 3L32 3L32 5L35 5L35 7L34 7L34 6L33 6L33 7L32 7L32 6L31 6L31 11L32 11L32 12L29 12L29 11L28 11L28 9L26 9L26 6L25 6L25 7L24 7L24 6L23 6L23 7L22 7L22 9L21 9L21 10L20 10L20 9L19 9L19 10L18 10L18 11L17 11L17 9L16 9L16 8L15 8L15 7L16 7L16 6L15 6L15 5L14 5L14 6L13 6L13 7L14 7L14 8L13 8L13 10L10 10L10 12L9 12L9 13L11 13L11 15L12 15L12 16L13 16L13 17L11 17L11 19L12 19L12 20L13 20L13 19L14 19L14 20L15 20L15 21L17 21L17 20L16 20L16 19L18 19L18 20L19 20L19 21L20 21L20 20L22 20L22 21L21 21L21 22L20 22L20 23L19 23L19 22L16 22L16 23L14 23L14 24L15 24L15 25L14 25L14 28L16 28L16 27L15 27L15 25L16 25L16 26L17 26L17 27L18 27L18 26L17 26L17 23L18 23L18 24L19 24L19 25L21 25L21 24L22 24L22 25L24 25L24 23L23 23L23 22L22 22L22 21L24 21L24 22L25 22L25 23L26 23L26 22L27 22L27 24L28 24L28 26L30 26L30 25L31 25L31 27L32 27L32 28L31 28L31 29L32 29L32 30L31 30L31 31L32 31L32 32L30 32L30 31L29 31L29 33L28 33L28 34L27 34L27 36L26 36L26 38L24 38L24 37L23 37L23 36L22 36L22 35L23 35L23 33L25 33L25 32L26 32L26 33L27 33L27 32L28 32L28 31L27 31L27 32L26 32L26 31L25 31L25 30L26 30L26 29L25 29L25 30L23 30L23 28L24 28L24 27L26 27L26 25L25 25L25 26L24 26L24 27L23 27L23 28L22 28L22 27L21 27L21 29L22 29L22 30L21 30L21 31L20 31L20 27L19 27L19 28L18 28L18 29L15 29L15 30L14 30L14 31L13 31L13 28L12 28L12 27L13 27L13 26L12 26L12 27L10 27L10 28L9 28L9 29L11 29L11 30L9 30L9 32L8 32L8 31L6 31L6 32L8 32L8 33L9 33L9 35L8 35L8 36L7 36L7 37L6 37L6 38L4 38L4 37L3 37L3 38L4 38L4 40L3 40L3 42L4 42L4 40L5 40L5 39L6 39L6 40L7 40L7 41L6 41L6 42L10 42L10 41L11 41L11 43L12 43L12 44L13 44L13 45L14 45L14 46L13 46L13 48L14 48L14 49L16 49L16 50L15 50L15 51L13 51L13 54L12 54L12 55L15 55L15 53L17 53L17 52L16 52L16 50L17 50L17 51L21 51L21 50L22 50L22 49L23 49L23 48L22 48L22 47L23 47L23 46L24 46L24 45L25 45L25 44L24 44L24 43L23 43L23 41L25 41L25 40L27 40L27 41L26 41L26 42L25 42L25 43L27 43L27 41L28 41L28 46L27 46L27 45L26 45L26 46L25 46L25 47L24 47L24 49L26 49L26 48L27 48L27 47L29 47L29 48L31 48L31 47L32 47L32 46L33 46L33 45L30 45L30 44L31 44L31 41L32 41L32 43L33 43L33 44L37 44L37 46L38 46L38 45L39 45L39 44L40 44L40 45L41 45L41 44L40 44L40 43L42 43L42 44L43 44L43 46L44 46L44 47L42 47L42 49L43 49L43 50L42 50L42 51L44 51L44 50L45 50L45 49L46 49L46 51L45 51L45 53L44 53L44 52L43 52L43 53L44 53L44 56L45 56L45 55L46 55L46 54L45 54L45 53L46 53L46 52L47 52L47 49L48 49L48 47L51 47L51 45L50 45L50 46L49 46L49 44L50 44L50 43L51 43L51 44L52 44L52 43L53 43L53 41L52 41L52 40L47 40L47 39L48 39L48 38L50 38L50 39L51 39L51 38L50 38L50 37L48 37L48 36L47 36L47 35L46 35L46 34L49 34L49 33L48 33L48 31L47 31L47 30L48 30L48 29L46 29L46 28L47 28L47 27L45 27L45 25L46 25L46 26L47 26L47 24L45 24L45 22L44 22L44 16L45 16L45 17L46 17L46 15L44 15L44 14L45 14L45 13L44 13L44 12L45 12L45 11L43 11L43 10L44 10L44 9L43 9L43 7L44 7L44 4L45 4L45 5L47 5L47 3L44 3L44 2L43 2L43 3L44 3L44 4L43 4L43 7L42 7L42 6L41 6L41 5L39 5L39 8L38 8L38 6L37 6L37 8L38 8L38 9L35 9L35 7L36 7L36 5L35 5L35 4L34 4L34 1L32 1L32 2L31 2L31 1L28 1L28 3L27 3L27 1ZM46 1L46 2L47 2L47 1ZM21 2L21 3L22 3L22 2ZM32 2L32 3L33 3L33 2ZM40 2L40 3L42 3L42 2ZM9 3L9 4L10 4L10 5L13 5L13 3ZM27 5L27 8L30 8L30 5ZM14 6L14 7L15 7L15 6ZM17 6L17 7L18 7L18 6ZM19 6L19 7L20 7L20 6ZM28 6L28 7L29 7L29 6ZM40 6L40 8L39 8L39 9L38 9L38 10L37 10L37 12L35 12L35 11L36 11L36 10L34 10L34 9L33 9L33 8L34 8L34 7L33 7L33 8L32 8L32 11L33 11L33 10L34 10L34 12L35 12L35 13L37 13L37 12L39 12L39 11L40 11L40 10L39 10L39 9L40 9L40 8L42 8L42 7L41 7L41 6ZM45 6L45 7L46 7L46 6ZM23 7L23 11L24 11L24 12L22 12L22 11L21 11L21 12L20 12L20 11L19 11L19 12L18 12L18 13L17 13L17 11L16 11L16 9L15 9L15 8L14 8L14 10L13 10L13 11L14 11L14 12L15 12L15 13L13 13L13 14L12 14L12 15L13 15L13 14L14 14L14 17L13 17L13 18L15 18L15 19L16 19L16 16L17 16L17 18L18 18L18 19L19 19L19 16L17 16L17 15L18 15L18 14L19 14L19 15L20 15L20 14L21 14L21 15L22 15L22 16L24 16L24 15L22 15L22 14L21 14L21 13L23 13L23 14L25 14L25 17L21 17L21 16L20 16L20 19L22 19L22 20L23 20L23 19L24 19L24 18L26 18L26 14L28 14L28 15L27 15L27 17L28 17L28 18L30 18L30 19L31 19L31 20L30 20L30 21L28 21L28 20L29 20L29 19L27 19L27 20L26 20L26 19L25 19L25 20L24 20L24 21L27 21L27 22L28 22L28 24L29 24L29 25L30 25L30 24L31 24L31 22L33 22L33 23L32 23L32 27L33 27L33 28L32 28L32 29L33 29L33 32L32 32L32 33L29 33L29 34L28 34L28 36L27 36L27 37L28 37L28 36L29 36L29 37L31 37L31 36L32 36L32 37L33 37L33 38L31 38L31 39L29 39L29 38L28 38L28 39L27 39L27 38L26 38L26 39L27 39L27 40L29 40L29 42L30 42L30 41L31 41L31 39L33 39L33 40L32 40L32 41L33 41L33 43L37 43L37 44L39 44L39 43L40 43L40 42L43 42L43 43L44 43L44 42L45 42L45 41L46 41L46 40L45 40L45 39L47 39L47 38L48 38L48 37L47 37L47 38L46 38L46 35L44 35L44 34L46 34L46 30L44 30L44 29L45 29L45 27L44 27L44 29L40 29L40 28L41 28L41 26L42 26L42 28L43 28L43 26L44 26L44 25L45 25L45 24L44 24L44 25L43 25L43 24L41 24L41 25L40 25L40 23L39 23L39 21L40 21L40 22L41 22L41 23L42 23L42 22L43 22L43 23L44 23L44 22L43 22L43 21L42 21L42 20L41 20L41 21L40 21L40 18L41 18L41 19L42 19L42 18L43 18L43 17L42 17L42 15L43 15L43 16L44 16L44 15L43 15L43 13L41 13L41 17L40 17L40 15L39 15L39 14L40 14L40 13L38 13L38 15L39 15L39 17L38 17L38 16L37 16L37 14L35 14L35 17L38 17L38 18L39 18L39 19L37 19L37 18L35 18L35 19L34 19L34 13L33 13L33 12L32 12L32 15L33 15L33 16L32 16L32 17L31 17L31 16L29 16L29 13L26 13L26 11L27 11L27 12L28 12L28 11L27 11L27 10L25 10L25 9L24 9L24 7ZM0 8L0 12L3 12L3 13L4 13L4 12L3 12L3 10L4 10L4 9L7 9L7 8L4 8L4 9L2 9L2 8ZM41 9L41 12L43 12L43 11L42 11L42 10L43 10L43 9ZM38 10L38 11L39 11L39 10ZM11 11L11 13L12 13L12 11ZM7 12L7 13L6 13L6 14L7 14L7 13L8 13L8 12ZM19 12L19 14L20 14L20 12ZM15 13L15 14L17 14L17 13ZM30 13L30 15L31 15L31 13ZM47 13L47 14L49 14L49 13ZM53 13L53 14L52 14L52 15L50 15L50 16L52 16L52 17L53 17L53 16L55 16L55 15L54 15L54 13ZM52 15L52 16L53 16L53 15ZM4 16L4 17L3 17L3 18L4 18L4 19L6 19L6 20L7 20L7 19L6 19L6 18L7 18L7 17L6 17L6 18L5 18L5 16ZM32 17L32 18L31 18L31 19L32 19L32 18L33 18L33 17ZM39 17L39 18L40 18L40 17ZM22 18L22 19L23 19L23 18ZM35 19L35 20L33 20L33 21L34 21L34 22L35 22L35 23L34 23L34 24L33 24L33 25L34 25L34 26L33 26L33 27L34 27L34 31L35 31L35 28L36 28L36 26L37 26L37 27L39 27L39 26L40 26L40 25L39 25L39 23L37 23L37 22L38 22L38 21L39 21L39 20L38 20L38 21L37 21L37 22L35 22L35 20L36 20L36 19ZM3 20L3 21L4 21L4 20ZM31 20L31 21L32 21L32 20ZM45 20L45 21L46 21L46 23L49 23L49 24L50 24L50 25L49 25L49 26L50 26L50 25L51 25L51 26L53 26L53 24L55 24L55 25L56 25L56 24L55 24L55 23L54 23L54 22L52 22L52 21L51 21L51 22L52 22L52 25L51 25L51 24L50 24L50 22L47 22L47 21L46 21L46 20ZM8 21L8 23L9 23L9 22L11 22L11 21ZM13 21L13 22L14 22L14 21ZM29 22L29 23L30 23L30 22ZM22 23L22 24L23 24L23 23ZM34 24L34 25L37 25L37 24ZM4 25L4 26L5 26L5 25ZM6 25L6 26L7 26L7 25ZM38 25L38 26L39 26L39 25ZM5 27L5 30L8 30L8 27ZM27 27L27 30L30 30L30 27ZM49 27L49 30L52 30L52 27ZM6 28L6 29L7 29L7 28ZM28 28L28 29L29 29L29 28ZM37 28L37 29L38 29L38 28ZM50 28L50 29L51 29L51 28ZM18 29L18 30L15 30L15 31L14 31L14 32L13 32L13 31L12 31L12 32L13 32L13 33L14 33L14 34L16 34L16 36L15 36L15 37L16 37L16 36L17 36L17 38L16 38L16 39L15 39L15 40L13 40L13 37L14 37L14 36L13 36L13 34L12 34L12 33L11 33L11 34L10 34L10 35L12 35L12 36L13 36L13 37L12 37L12 40L11 40L11 39L9 39L9 38L11 38L11 36L10 36L10 37L9 37L9 36L8 36L8 37L9 37L9 38L8 38L8 39L9 39L9 41L10 41L10 40L11 40L11 41L12 41L12 40L13 40L13 41L14 41L14 42L13 42L13 44L14 44L14 45L15 45L15 46L16 46L16 47L15 47L15 48L17 48L17 49L20 49L20 50L21 50L21 49L22 49L22 48L20 48L20 47L22 47L22 46L21 46L21 45L24 45L24 44L22 44L22 43L21 43L21 44L20 44L20 43L19 43L19 44L18 44L18 45L17 45L17 46L16 46L16 44L14 44L14 43L15 43L15 42L16 42L16 41L15 41L15 40L17 40L17 39L19 39L19 40L18 40L18 41L17 41L17 43L18 43L18 41L20 41L20 42L21 42L21 41L22 41L22 40L24 40L24 39L22 39L22 36L21 36L21 35L20 35L20 34L21 34L21 33L22 33L22 31L23 31L23 32L24 32L24 31L23 31L23 30L22 30L22 31L21 31L21 33L19 33L19 32L20 32L20 31L19 31L19 29ZM53 29L53 30L54 30L54 29ZM37 30L37 32L38 32L38 30ZM39 30L39 32L40 32L40 33L39 33L39 34L38 34L38 33L37 33L37 34L38 34L38 35L37 35L37 36L38 36L38 37L37 37L37 38L35 38L35 37L34 37L34 36L35 36L35 32L34 32L34 35L33 35L33 34L30 34L30 36L31 36L31 35L33 35L33 37L34 37L34 38L35 38L35 39L34 39L34 42L35 42L35 39L37 39L37 42L38 42L38 39L40 39L40 38L38 38L38 37L41 37L41 35L42 35L42 34L40 34L40 33L41 33L41 32L40 32L40 30ZM0 31L0 32L1 32L1 33L2 33L2 32L1 32L1 31ZM15 31L15 32L14 32L14 33L16 33L16 34L17 34L17 33L18 33L18 35L19 35L19 36L20 36L20 35L19 35L19 33L18 33L18 32L19 32L19 31L17 31L17 32L16 32L16 31ZM49 31L49 32L50 32L50 35L49 35L49 36L50 36L50 35L53 35L53 34L54 34L54 33L55 33L55 31L52 31L52 32L53 32L53 33L51 33L51 31ZM9 32L9 33L10 33L10 32ZM43 33L43 34L44 34L44 33ZM1 34L1 35L0 35L0 36L2 36L2 35L3 35L3 34ZM24 34L24 36L25 36L25 35L26 35L26 34ZM38 35L38 36L40 36L40 35ZM43 35L43 37L44 37L44 38L43 38L43 39L45 39L45 37L44 37L44 35ZM19 37L19 39L20 39L20 38L21 38L21 37ZM6 38L6 39L7 39L7 38ZM37 38L37 39L38 39L38 38ZM41 38L41 39L42 39L42 38ZM21 39L21 40L20 40L20 41L21 41L21 40L22 40L22 39ZM40 40L40 41L39 41L39 42L40 42L40 41L43 41L43 42L44 42L44 41L43 41L43 40ZM48 41L48 42L49 42L49 43L48 43L48 44L49 44L49 43L50 43L50 42L49 42L49 41ZM51 41L51 43L52 43L52 41ZM55 41L55 42L56 42L56 41ZM6 43L6 44L7 44L7 43ZM44 44L44 45L45 45L45 48L44 48L44 49L45 49L45 48L46 48L46 49L47 49L47 48L46 48L46 45L47 45L47 44L46 44L46 45L45 45L45 44ZM4 45L4 46L5 46L5 47L3 47L3 46L2 46L2 47L1 47L1 46L0 46L0 48L5 48L5 47L7 47L7 48L6 48L6 49L8 49L8 50L9 50L9 47L7 47L7 46L5 46L5 45ZM19 45L19 46L18 46L18 47L17 47L17 48L19 48L19 47L20 47L20 45ZM29 45L29 46L30 46L30 45ZM34 45L34 47L33 47L33 48L34 48L34 51L35 51L35 52L36 52L36 49L35 49L35 47L36 47L36 48L37 48L37 47L36 47L36 46L35 46L35 45ZM52 45L52 47L53 47L53 49L54 49L54 48L55 48L55 47L53 47L53 45ZM26 46L26 47L27 47L27 46ZM39 46L39 47L38 47L38 49L37 49L37 52L38 52L38 53L39 53L39 52L40 52L40 53L42 53L42 52L41 52L41 46ZM47 46L47 47L48 47L48 46ZM39 47L39 49L38 49L38 51L40 51L40 47ZM27 49L27 52L30 52L30 49ZM31 49L31 52L32 52L32 51L33 51L33 49ZM49 49L49 52L52 52L52 49ZM25 50L25 53L24 53L24 54L26 54L26 50ZM28 50L28 51L29 51L29 50ZM50 50L50 51L51 51L51 50ZM19 52L19 53L20 53L20 52ZM30 53L30 54L31 54L31 53ZM32 53L32 54L33 54L33 53ZM49 53L49 54L51 54L51 55L52 55L52 54L51 54L51 53ZM42 54L42 55L43 55L43 54ZM8 55L8 57L9 57L9 55ZM21 55L21 56L17 56L17 57L22 57L22 55ZM26 56L26 57L27 57L27 56ZM56 56L56 57L57 57L57 56ZM0 0L0 7L7 7L7 0ZM1 1L1 6L6 6L6 1ZM2 2L2 5L5 5L5 2ZM50 0L50 7L57 7L57 0ZM51 1L51 6L56 6L56 1ZM52 2L52 5L55 5L55 2ZM0 50L0 57L7 57L7 50ZM1 51L1 56L6 56L6 51ZM2 52L2 55L5 55L5 52Z" fill="#000000"/></g></g></svg>
