<?xml version="1.0" encoding="UTF-8"?>
<svg xmlns="http://www.w3.org/2000/svg" version="1.1" width="300" height="300" viewBox="0 0 300 300"><rect x="0" y="0" width="300" height="300" fill="#fefefe"/><g transform="scale(4.615)"><g transform="translate(4,4)"><path fill-rule="evenodd" d="M8 0L8 1L9 1L9 2L8 2L8 5L9 5L9 3L11 3L11 4L14 4L14 5L11 5L11 6L10 6L10 7L9 7L9 6L8 6L8 7L9 7L9 8L8 8L8 9L7 9L7 8L6 8L6 9L4 9L4 8L0 8L0 9L1 9L1 10L0 10L0 12L1 12L1 13L4 13L4 14L5 14L5 15L3 15L3 16L5 16L5 17L4 17L4 18L3 18L3 19L4 19L4 20L3 20L3 21L2 21L2 20L0 20L0 23L1 23L1 25L0 25L0 27L1 27L1 30L0 30L0 31L1 31L1 30L2 30L2 29L3 29L3 30L4 30L4 31L7 31L7 32L6 32L6 33L7 33L7 32L8 32L8 31L9 31L9 30L10 30L10 32L9 32L9 36L10 36L10 38L9 38L9 37L8 37L8 35L7 35L7 34L5 34L5 37L4 37L4 36L3 36L3 35L4 35L4 34L3 34L3 35L0 35L0 36L1 36L1 38L0 38L0 40L1 40L1 41L2 41L2 42L1 42L1 44L0 44L0 48L5 48L5 47L7 47L7 48L6 48L6 49L8 49L8 50L9 50L9 51L10 51L10 52L9 52L9 53L8 53L8 57L9 57L9 56L11 56L11 57L13 57L13 56L12 56L12 55L10 55L10 54L12 54L12 53L11 53L11 51L12 51L12 52L13 52L13 53L14 53L14 54L15 54L15 56L14 56L14 57L15 57L15 56L16 56L16 57L18 57L18 56L19 56L19 55L20 55L20 56L21 56L21 57L24 57L24 56L25 56L25 55L26 55L26 56L28 56L28 55L26 55L26 54L27 54L27 53L29 53L29 54L31 54L31 55L30 55L30 56L31 56L31 57L32 57L32 55L34 55L34 56L33 56L33 57L36 57L36 55L38 55L38 57L41 57L41 56L42 56L42 57L43 57L43 56L46 56L46 57L51 57L51 54L52 54L52 53L53 53L53 54L54 54L54 52L57 52L57 51L56 51L56 49L57 49L57 48L56 48L56 49L55 49L55 50L53 50L53 48L54 48L54 47L57 47L57 45L56 45L56 46L55 46L55 44L53 44L53 45L54 45L54 47L53 47L53 48L51 48L51 46L52 46L52 43L53 43L53 42L54 42L54 43L56 43L56 44L57 44L57 43L56 43L56 42L57 42L57 40L56 40L56 41L55 41L55 42L54 42L54 41L53 41L53 40L55 40L55 39L53 39L53 38L52 38L52 36L53 36L53 37L55 37L55 38L56 38L56 39L57 39L57 38L56 38L56 37L55 37L55 36L54 36L54 35L57 35L57 31L56 31L56 30L57 30L57 29L56 29L56 30L53 30L53 28L54 28L54 29L55 29L55 27L53 27L53 25L52 25L52 26L51 26L51 24L54 24L54 25L56 25L56 24L54 24L54 23L57 23L57 21L56 21L56 22L54 22L54 21L55 21L55 20L54 20L54 21L53 21L53 20L50 20L50 18L49 18L49 19L46 19L46 20L45 20L45 21L47 21L47 22L44 22L44 21L42 21L42 20L43 20L43 18L42 18L42 17L45 17L45 18L44 18L44 19L45 19L45 18L48 18L48 17L47 17L47 16L48 16L48 14L47 14L47 15L46 15L46 17L45 17L45 16L44 16L44 15L43 15L43 14L42 14L42 17L41 17L41 18L39 18L39 19L40 19L40 20L38 20L38 19L36 19L36 20L35 20L35 19L34 19L34 21L35 21L35 22L37 22L37 24L36 24L36 23L35 23L35 24L33 24L33 23L34 23L34 22L32 22L32 23L31 23L31 21L29 21L29 19L30 19L30 17L29 17L29 16L31 16L31 17L33 17L33 18L32 18L32 19L31 19L31 20L32 20L32 19L33 19L33 18L35 18L35 17L34 17L34 16L35 16L35 15L36 15L36 13L37 13L37 15L39 15L39 17L40 17L40 16L41 16L41 15L39 15L39 14L40 14L40 13L39 13L39 12L40 12L40 11L38 11L38 9L39 9L39 10L40 10L40 9L41 9L41 10L43 10L43 11L42 11L42 12L43 12L43 13L44 13L44 14L46 14L46 13L44 13L44 10L45 10L45 9L44 9L44 10L43 10L43 9L41 9L41 8L38 8L38 7L39 7L39 6L38 6L38 5L40 5L40 7L41 7L41 4L43 4L43 5L42 5L42 7L43 7L43 8L45 8L45 6L46 6L46 7L47 7L47 5L48 5L48 0L46 0L46 1L44 1L44 2L41 2L41 1L43 1L43 0L41 0L41 1L40 1L40 0L39 0L39 1L40 1L40 2L41 2L41 4L39 4L39 3L37 3L37 1L38 1L38 0L37 0L37 1L36 1L36 0L35 0L35 1L34 1L34 2L33 2L33 0L29 0L29 1L28 1L28 0L27 0L27 1L28 1L28 2L27 2L27 4L26 4L26 2L24 2L24 3L23 3L23 2L22 2L22 0L21 0L21 3L23 3L23 4L21 4L21 5L20 5L20 4L19 4L19 3L20 3L20 1L19 1L19 2L18 2L18 0L17 0L17 1L16 1L16 2L18 2L18 3L17 3L17 5L15 5L15 4L14 4L14 3L13 3L13 2L11 2L11 0L10 0L10 1L9 1L9 0ZM12 0L12 1L13 1L13 0ZM23 0L23 1L26 1L26 0ZM29 1L29 2L28 2L28 4L30 4L30 3L31 3L31 2L32 2L32 1L31 1L31 2L30 2L30 1ZM35 1L35 2L36 2L36 1ZM46 1L46 2L45 2L45 3L44 3L44 4L45 4L45 5L43 5L43 7L44 7L44 6L45 6L45 5L47 5L47 3L46 3L46 2L47 2L47 1ZM29 2L29 3L30 3L30 2ZM32 3L32 4L31 4L31 5L32 5L32 6L31 6L31 9L32 9L32 10L31 10L31 12L30 12L30 11L28 11L28 10L26 10L26 11L25 11L25 10L23 10L23 9L22 9L22 10L23 10L23 11L21 11L21 8L23 8L23 7L24 7L24 9L26 9L26 6L25 6L25 5L26 5L26 4L24 4L24 6L23 6L23 7L22 7L22 6L21 6L21 7L20 7L20 6L19 6L19 7L18 7L18 6L17 6L17 7L16 7L16 6L15 6L15 8L13 8L13 7L14 7L14 6L13 6L13 7L12 7L12 6L11 6L11 7L12 7L12 8L9 8L9 9L11 9L11 10L10 10L10 11L9 11L9 12L7 12L7 11L6 11L6 10L7 10L7 9L6 9L6 10L5 10L5 11L4 11L4 10L2 10L2 11L4 11L4 13L5 13L5 11L6 11L6 12L7 12L7 13L6 13L6 14L7 14L7 15L6 15L6 16L7 16L7 17L6 17L6 18L5 18L5 21L3 21L3 22L4 22L4 23L5 23L5 24L3 24L3 23L2 23L2 22L1 22L1 23L2 23L2 25L1 25L1 26L2 26L2 27L4 27L4 26L5 26L5 25L6 25L6 26L9 26L9 24L12 24L12 23L13 23L13 25L15 25L15 24L14 24L14 23L16 23L16 26L15 26L15 27L14 27L14 28L12 28L12 29L10 29L10 28L11 28L11 26L12 26L12 27L13 27L13 26L12 26L12 25L10 25L10 28L9 28L9 29L10 29L10 30L12 30L12 29L14 29L14 30L16 30L16 32L17 32L17 30L20 30L20 31L19 31L19 32L18 32L18 34L17 34L17 33L15 33L15 31L12 31L12 32L10 32L10 33L11 33L11 35L10 35L10 36L13 36L13 33L14 33L14 36L15 36L15 37L14 37L14 38L17 38L17 39L16 39L16 40L17 40L17 39L18 39L18 38L17 38L17 36L18 36L18 35L20 35L20 36L19 36L19 37L20 37L20 38L21 38L21 37L22 37L22 38L23 38L23 36L27 36L27 37L24 37L24 39L22 39L22 41L19 41L19 40L18 40L18 41L19 41L19 42L21 42L21 44L20 44L20 46L19 46L19 47L17 47L17 45L19 45L19 43L18 43L18 42L14 42L14 41L13 41L13 42L14 42L14 43L13 43L13 44L12 44L12 43L6 43L6 42L7 42L7 41L8 41L8 40L9 40L9 41L10 41L10 42L12 42L12 40L15 40L15 39L13 39L13 37L12 37L12 38L10 38L10 40L9 40L9 39L8 39L8 38L7 38L7 37L5 37L5 38L4 38L4 37L3 37L3 36L2 36L2 38L1 38L1 39L3 39L3 40L4 40L4 41L5 41L5 42L2 42L2 43L3 43L3 44L4 44L4 45L3 45L3 47L5 47L5 46L10 46L10 45L11 45L11 46L12 46L12 47L9 47L9 48L8 48L8 49L9 49L9 50L11 50L11 49L13 49L13 50L12 50L12 51L14 51L14 52L15 52L15 53L16 53L16 54L17 54L17 55L18 55L18 54L19 54L19 52L20 52L20 51L16 51L16 50L19 50L19 49L21 49L21 50L22 50L22 49L23 49L23 52L22 52L22 53L23 53L23 52L24 52L24 53L25 53L25 52L26 52L26 50L25 50L25 49L26 49L26 48L32 48L32 49L31 49L31 53L32 53L32 50L33 50L33 53L36 53L36 54L35 54L35 55L36 55L36 54L37 54L37 52L38 52L38 51L36 51L36 52L35 52L35 51L34 51L34 50L35 50L35 48L37 48L37 49L36 49L36 50L37 50L37 49L38 49L38 48L39 48L39 49L40 49L40 50L39 50L39 52L40 52L40 54L41 54L41 53L42 53L42 54L43 54L43 53L42 53L42 52L43 52L43 51L45 51L45 48L44 48L44 50L43 50L43 47L46 47L46 46L48 46L48 47L49 47L49 48L50 48L50 45L51 45L51 42L50 42L50 41L52 41L52 38L51 38L51 37L50 37L50 36L47 36L47 35L46 35L46 34L48 34L48 35L49 35L49 34L50 34L50 33L49 33L49 32L48 32L48 30L47 30L47 33L45 33L45 32L46 32L46 31L45 31L45 30L46 30L46 26L49 26L49 25L50 25L50 24L49 24L49 25L48 25L48 24L47 24L47 23L44 23L44 25L46 25L46 26L45 26L45 30L44 30L44 28L43 28L43 27L44 27L44 26L43 26L43 25L41 25L41 24L43 24L43 22L42 22L42 23L40 23L40 25L41 25L41 26L43 26L43 27L42 27L42 28L43 28L43 29L42 29L42 30L41 30L41 31L40 31L40 30L39 30L39 29L38 29L38 30L37 30L37 28L34 28L34 29L36 29L36 31L37 31L37 32L36 32L36 33L37 33L37 32L38 32L38 34L39 34L39 31L40 31L40 32L41 32L41 31L44 31L44 33L45 33L45 36L44 36L44 37L43 37L43 35L44 35L44 34L43 34L43 35L42 35L42 34L41 34L41 35L39 35L39 36L40 36L40 37L41 37L41 40L40 40L40 41L37 41L37 40L38 40L38 39L39 39L39 38L38 38L38 39L37 39L37 37L38 37L38 36L37 36L37 37L34 37L34 38L36 38L36 39L35 39L35 40L34 40L34 41L36 41L36 42L34 42L34 43L36 43L36 45L35 45L35 44L34 44L34 45L33 45L33 42L32 42L32 45L33 45L33 47L31 47L31 45L30 45L30 44L31 44L31 43L29 43L29 45L27 45L27 43L28 43L28 42L25 42L25 41L26 41L26 40L27 40L27 39L25 39L25 38L29 38L29 36L32 36L32 38L30 38L30 39L28 39L28 41L29 41L29 40L30 40L30 41L31 41L31 40L33 40L33 39L32 39L32 38L33 38L33 36L36 36L36 35L33 35L33 36L32 36L32 33L33 33L33 32L31 32L31 34L30 34L30 35L29 35L29 33L30 33L30 32L29 32L29 31L28 31L28 33L27 33L27 31L25 31L25 34L24 34L24 35L23 35L23 33L24 33L24 32L23 32L23 33L22 33L22 34L21 34L21 32L22 32L22 31L24 31L24 30L26 30L26 28L25 28L25 25L27 25L27 26L28 26L28 25L29 25L29 26L31 26L31 25L30 25L30 22L29 22L29 21L28 21L28 23L27 23L27 22L25 22L25 19L26 19L26 18L25 18L25 17L24 17L24 18L23 18L23 14L25 14L25 15L26 15L26 16L27 16L27 14L25 14L25 13L26 13L26 12L28 12L28 13L30 13L30 14L31 14L31 15L32 15L32 16L33 16L33 15L35 15L35 12L34 12L34 14L33 14L33 10L34 10L34 11L35 11L35 10L36 10L36 12L38 12L38 11L37 11L37 8L36 8L36 9L34 9L34 6L35 6L35 7L36 7L36 6L37 6L37 7L38 7L38 6L37 6L37 5L36 5L36 4L35 4L35 3ZM33 4L33 6L32 6L32 8L33 8L33 6L34 6L34 4ZM27 5L27 8L30 8L30 5ZM24 6L24 7L25 7L25 6ZM28 6L28 7L29 7L29 6ZM48 6L48 7L49 7L49 6ZM19 7L19 12L18 12L18 8L17 8L17 12L16 12L16 10L15 10L15 11L14 11L14 10L13 10L13 8L12 8L12 10L11 10L11 11L10 11L10 13L11 13L11 14L9 14L9 13L8 13L8 17L7 17L7 18L6 18L6 19L7 19L7 20L6 20L6 21L5 21L5 23L7 23L7 22L8 22L8 21L9 21L9 22L10 22L10 23L11 23L11 22L10 22L10 21L11 21L11 20L12 20L12 21L13 21L13 23L14 23L14 20L16 20L16 23L18 23L18 24L17 24L17 25L20 25L20 26L22 26L22 27L23 27L23 25L22 25L22 24L24 24L24 25L25 25L25 22L24 22L24 21L23 21L23 20L22 20L22 23L21 23L21 22L19 22L19 21L18 21L18 20L16 20L16 19L13 19L13 17L15 17L15 18L17 18L17 19L18 19L18 17L17 17L17 16L18 16L18 15L17 15L17 14L16 14L16 15L15 15L15 12L16 12L16 13L17 13L17 12L18 12L18 13L19 13L19 16L20 16L20 15L21 15L21 13L20 13L20 7ZM15 8L15 9L16 9L16 8ZM49 8L49 9L47 9L47 10L46 10L46 11L48 11L48 12L49 12L49 15L51 15L51 13L52 13L52 14L53 14L53 15L52 15L52 16L53 16L53 17L54 17L54 18L52 18L52 19L56 19L56 20L57 20L57 19L56 19L56 18L55 18L55 17L57 17L57 15L55 15L55 14L53 14L53 13L54 13L54 10L53 10L53 9L55 9L55 8L52 8L52 10L53 10L53 13L52 13L52 12L51 12L51 11L48 11L48 10L50 10L50 8ZM56 8L56 9L57 9L57 8ZM12 10L12 11L11 11L11 13L12 13L12 15L9 15L9 16L12 16L12 17L13 17L13 16L12 16L12 15L14 15L14 16L15 16L15 15L14 15L14 13L12 13L12 11L13 11L13 10ZM55 10L55 11L56 11L56 13L57 13L57 10ZM23 11L23 12L22 12L22 13L23 13L23 12L24 12L24 13L25 13L25 11ZM31 12L31 13L32 13L32 12ZM50 12L50 13L51 13L51 12ZM1 14L1 15L0 15L0 17L1 17L1 19L2 19L2 17L1 17L1 16L2 16L2 14ZM32 14L32 15L33 15L33 14ZM16 15L16 16L17 16L17 15ZM28 15L28 16L29 16L29 15ZM8 17L8 18L9 18L9 21L10 21L10 19L11 19L11 18L9 18L9 17ZM21 17L21 18L20 18L20 20L21 20L21 18L22 18L22 17ZM27 17L27 20L26 20L26 21L27 21L27 20L28 20L28 18L29 18L29 17ZM36 17L36 18L37 18L37 17ZM24 18L24 19L25 19L25 18ZM41 18L41 20L42 20L42 18ZM12 19L12 20L13 20L13 19ZM36 20L36 21L37 21L37 20ZM47 20L47 21L49 21L49 23L52 23L52 22L51 22L51 21L50 21L50 20ZM6 21L6 22L7 22L7 21ZM17 21L17 22L18 22L18 21ZM38 21L38 23L39 23L39 21ZM8 23L8 24L6 24L6 25L8 25L8 24L9 24L9 23ZM20 23L20 24L21 24L21 23ZM26 23L26 24L27 24L27 23ZM28 23L28 24L29 24L29 23ZM32 24L32 25L33 25L33 24ZM38 24L38 25L39 25L39 24ZM46 24L46 25L47 25L47 24ZM2 25L2 26L4 26L4 25ZM34 25L34 27L35 27L35 25ZM17 26L17 27L15 27L15 28L14 28L14 29L16 29L16 30L17 30L17 27L19 27L19 26ZM38 26L38 27L39 27L39 28L40 28L40 29L41 29L41 27L39 27L39 26ZM5 27L5 30L8 30L8 27ZM27 27L27 30L30 30L30 27ZM31 27L31 28L33 28L33 27ZM47 27L47 29L48 29L48 27ZM49 27L49 30L52 30L52 27ZM6 28L6 29L7 29L7 28ZM18 28L18 29L20 29L20 28ZM28 28L28 29L29 29L29 28ZM50 28L50 29L51 29L51 28ZM21 29L21 30L24 30L24 29ZM32 29L32 31L33 31L33 29ZM38 30L38 31L39 31L39 30ZM2 31L2 32L1 32L1 34L2 34L2 33L4 33L4 32L3 32L3 31ZM34 31L34 32L35 32L35 31ZM51 31L51 32L52 32L52 34L54 34L54 33L53 33L53 31ZM54 31L54 32L55 32L55 31ZM12 32L12 33L13 33L13 32ZM19 32L19 34L20 34L20 32ZM42 32L42 33L43 33L43 32ZM34 33L34 34L35 34L35 33ZM55 33L55 34L56 34L56 33ZM16 34L16 36L17 36L17 34ZM25 34L25 35L26 35L26 34ZM27 34L27 36L29 36L29 35L28 35L28 34ZM6 35L6 36L7 36L7 35ZM41 35L41 36L42 36L42 35ZM51 35L51 36L52 36L52 35ZM45 36L45 39L44 39L44 38L42 38L42 39L44 39L44 40L43 40L43 42L42 42L42 40L41 40L41 41L40 41L40 42L41 42L41 43L40 43L40 44L38 44L38 43L39 43L39 42L37 42L37 44L38 44L38 45L37 45L37 47L38 47L38 45L41 45L41 46L40 46L40 47L43 47L43 45L42 45L42 43L43 43L43 42L44 42L44 43L45 43L45 44L49 44L49 45L48 45L48 46L49 46L49 45L50 45L50 44L49 44L49 43L50 43L50 42L47 42L47 41L50 41L50 40L51 40L51 39L50 39L50 40L47 40L47 39L48 39L48 38L49 38L49 37L47 37L47 36ZM46 37L46 38L47 38L47 37ZM6 38L6 39L7 39L7 40L5 40L5 39L4 39L4 40L5 40L5 41L7 41L7 40L8 40L8 39L7 39L7 38ZM11 39L11 40L10 40L10 41L11 41L11 40L12 40L12 39ZM24 39L24 41L22 41L22 44L21 44L21 46L20 46L20 47L21 47L21 48L23 48L23 49L24 49L24 48L25 48L25 47L24 47L24 46L25 46L25 45L26 45L26 46L27 46L27 47L28 47L28 46L27 46L27 45L26 45L26 43L25 43L25 42L24 42L24 41L25 41L25 39ZM45 39L45 41L46 41L46 39ZM45 42L45 43L47 43L47 42ZM14 43L14 44L13 44L13 45L12 45L12 46L13 46L13 47L12 47L12 48L13 48L13 49L14 49L14 51L15 51L15 48L16 48L16 49L19 49L19 48L17 48L17 47L16 47L16 46L15 46L15 45L17 45L17 43ZM24 43L24 45L25 45L25 43ZM1 44L1 47L2 47L2 44ZM6 44L6 45L10 45L10 44ZM14 44L14 45L15 45L15 44ZM22 44L22 46L21 46L21 47L22 47L22 46L23 46L23 44ZM44 45L44 46L45 46L45 45ZM14 46L14 47L15 47L15 46ZM34 46L34 48L35 48L35 47L36 47L36 46ZM23 47L23 48L24 48L24 47ZM9 48L9 49L10 49L10 48ZM41 48L41 49L42 49L42 48ZM46 48L46 50L47 50L47 52L46 52L46 53L47 53L47 54L50 54L50 53L47 53L47 52L48 52L48 48ZM27 49L27 52L30 52L30 49ZM33 49L33 50L34 50L34 49ZM49 49L49 52L52 52L52 49ZM24 50L24 51L25 51L25 50ZM28 50L28 51L29 51L29 50ZM50 50L50 51L51 51L51 50ZM40 51L40 52L41 52L41 51ZM17 53L17 54L18 54L18 53ZM20 53L20 55L22 55L22 56L24 56L24 55L25 55L25 54L23 54L23 55L22 55L22 54L21 54L21 53ZM38 53L38 54L39 54L39 53ZM55 53L55 54L56 54L56 53ZM44 54L44 55L45 55L45 54ZM40 55L40 56L41 56L41 55ZM46 55L46 56L47 56L47 55ZM48 55L48 56L49 56L49 55ZM56 55L56 56L57 56L57 55ZM52 56L52 57L53 57L53 56ZM54 56L54 57L55 57L55 56ZM0 0L0 7L7 7L7 0ZM1 1L1 6L6 6L6 1ZM2 2L2 5L5 5L5 2ZM50 0L50 7L57 7L57 0ZM51 1L51 6L56 6L56 1ZM52 2L52 5L55 5L55 2ZM0 50L0 57L7 57L7 50ZM1 51L1 56L6 56L6 51ZM2 52L2 55L5 55L5 52Z" fill="#000000"/></g></g></svg>
