<?xml version="1.0" encoding="UTF-8"?>
<svg xmlns="http://www.w3.org/2000/svg" version="1.1" width="300" height="300" viewBox="0 0 300 300"><rect x="0" y="0" width="300" height="300" fill="#fefefe"/><g transform="scale(4.615)"><g transform="translate(4,4)"><path fill-rule="evenodd" d="M8 0L8 1L11 1L11 0ZM12 0L12 1L14 1L14 0ZM17 0L17 1L15 1L15 2L16 2L16 3L17 3L17 5L15 5L15 4L14 4L14 3L13 3L13 2L10 2L10 3L9 3L9 2L8 2L8 5L9 5L9 4L10 4L10 5L11 5L11 6L10 6L10 7L11 7L11 6L12 6L12 9L11 9L11 8L8 8L8 9L7 9L7 8L6 8L6 9L4 9L4 8L0 8L0 9L2 9L2 10L1 10L1 11L0 11L0 13L1 13L1 14L0 14L0 15L2 15L2 16L3 16L3 17L4 17L4 18L3 18L3 20L2 20L2 21L1 21L1 19L2 19L2 17L1 17L1 16L0 16L0 22L2 22L2 21L3 21L3 20L4 20L4 18L5 18L5 16L4 16L4 15L7 15L7 16L6 16L6 17L7 17L7 18L6 18L6 19L8 19L8 20L5 20L5 21L8 21L8 22L6 22L6 23L8 23L8 24L5 24L5 25L4 25L4 24L2 24L2 23L1 23L1 25L2 25L2 26L1 26L1 27L2 27L2 28L1 28L1 29L0 29L0 30L1 30L1 31L3 31L3 33L2 33L2 35L0 35L0 36L2 36L2 38L0 38L0 41L1 41L1 42L0 42L0 43L2 43L2 44L1 44L1 45L0 45L0 48L5 48L5 47L7 47L7 46L10 46L10 44L11 44L11 45L12 45L12 46L11 46L11 48L10 48L10 47L9 47L9 48L6 48L6 49L8 49L8 50L9 50L9 49L10 49L10 50L12 50L12 51L13 51L13 53L14 53L14 50L15 50L15 52L16 52L16 48L17 48L17 49L19 49L19 50L20 50L20 52L19 52L19 51L18 51L18 52L19 52L19 55L20 55L20 56L21 56L21 57L23 57L23 54L25 54L25 55L24 55L24 56L25 56L25 55L26 55L26 56L28 56L28 55L26 55L26 54L27 54L27 53L29 53L29 54L31 54L31 55L30 55L30 56L31 56L31 57L32 57L32 55L33 55L33 54L36 54L36 55L34 55L34 56L33 56L33 57L36 57L36 55L38 55L38 57L42 57L42 56L43 56L43 55L44 55L44 54L46 54L46 56L47 56L47 57L48 57L48 56L49 56L49 57L51 57L51 54L52 54L52 53L54 53L54 55L55 55L55 54L56 54L56 53L57 53L57 51L56 51L56 52L55 52L55 50L53 50L53 48L54 48L54 49L55 49L55 48L54 48L54 47L57 47L57 44L53 44L53 45L54 45L54 46L52 46L52 47L51 47L51 46L50 46L50 44L49 44L49 43L50 43L50 42L51 42L51 45L52 45L52 43L53 43L53 42L54 42L54 43L56 43L56 41L57 41L57 40L56 40L56 41L55 41L55 39L53 39L53 38L52 38L52 36L53 36L53 37L55 37L55 38L56 38L56 39L57 39L57 38L56 38L56 37L57 37L57 31L56 31L56 30L57 30L57 29L56 29L56 24L54 24L54 23L53 23L53 22L54 22L54 21L55 21L55 20L56 20L56 19L55 19L55 17L56 17L56 18L57 18L57 15L55 15L55 14L54 14L54 10L53 10L53 9L55 9L55 8L52 8L52 9L51 9L51 10L52 10L52 11L53 11L53 13L52 13L52 12L51 12L51 11L49 11L49 10L50 10L50 8L49 8L49 9L47 9L47 8L48 8L48 7L49 7L49 6L48 6L48 7L47 7L47 5L48 5L48 0L46 0L46 1L47 1L47 2L46 2L46 3L47 3L47 5L46 5L46 7L47 7L47 8L45 8L45 11L47 11L47 12L48 12L48 11L49 11L49 16L50 16L50 17L51 17L51 18L52 18L52 19L55 19L55 20L54 20L54 21L53 21L53 20L50 20L50 19L49 19L49 20L48 20L48 19L47 19L47 20L46 20L46 18L48 18L48 17L47 17L47 16L48 16L48 14L47 14L47 15L45 15L45 16L44 16L44 15L43 15L43 14L42 14L42 17L41 17L41 18L39 18L39 19L40 19L40 20L39 20L39 23L42 23L42 22L43 22L43 26L42 26L42 24L41 24L41 25L40 25L40 26L39 26L39 24L38 24L38 21L36 21L36 20L38 20L38 19L36 19L36 20L35 20L35 17L34 17L34 16L35 16L35 15L33 15L33 14L34 14L34 12L35 12L35 14L36 14L36 15L39 15L39 17L40 17L40 16L41 16L41 15L40 15L40 14L41 14L41 13L40 13L40 14L39 14L39 10L40 10L40 11L42 11L42 12L43 12L43 13L44 13L44 14L46 14L46 13L44 13L44 9L43 9L43 8L44 8L44 7L45 7L45 6L44 6L44 7L43 7L43 6L42 6L42 5L41 5L41 4L42 4L42 3L43 3L43 5L45 5L45 4L44 4L44 3L45 3L45 1L44 1L44 2L41 2L41 1L43 1L43 0L41 0L41 1L40 1L40 0L39 0L39 1L40 1L40 2L41 2L41 4L37 4L37 3L39 3L39 2L37 2L37 1L38 1L38 0L37 0L37 1L36 1L36 0L35 0L35 1L34 1L34 3L35 3L35 4L36 4L36 5L37 5L37 6L36 6L36 7L35 7L35 6L34 6L34 4L33 4L33 6L32 6L32 5L31 5L31 4L32 4L32 3L33 3L33 2L32 2L32 1L31 1L31 0L29 0L29 1L27 1L27 4L26 4L26 1L25 1L25 0L23 0L23 1L25 1L25 2L24 2L24 3L23 3L23 4L21 4L21 5L20 5L20 4L19 4L19 3L20 3L20 2L21 2L21 1L22 1L22 0L21 0L21 1L18 1L18 0ZM17 1L17 3L18 3L18 1ZM35 1L35 2L36 2L36 1ZM28 2L28 4L30 4L30 3L31 3L31 2L30 2L30 3L29 3L29 2ZM12 4L12 5L13 5L13 7L14 7L14 8L13 8L13 10L12 10L12 11L11 11L11 10L9 10L9 9L8 9L8 10L7 10L7 9L6 9L6 10L5 10L5 12L7 12L7 13L6 13L6 14L7 14L7 15L8 15L8 16L9 16L9 15L10 15L10 17L11 17L11 16L12 16L12 18L13 18L13 19L12 19L12 22L13 22L13 19L16 19L16 20L14 20L14 24L13 24L13 26L11 26L11 28L10 28L10 26L9 26L9 25L12 25L12 23L10 23L10 22L11 22L11 21L10 21L10 19L11 19L11 18L10 18L10 19L9 19L9 20L8 20L8 21L9 21L9 22L8 22L8 23L10 23L10 24L9 24L9 25L8 25L8 26L9 26L9 28L10 28L10 30L9 30L9 31L6 31L6 32L5 32L5 31L4 31L4 32L5 32L5 33L3 33L3 34L5 34L5 33L6 33L6 34L7 34L7 33L6 33L6 32L9 32L9 34L10 34L10 33L11 33L11 35L9 35L9 36L11 36L11 37L8 37L8 35L6 35L6 36L7 36L7 37L6 37L6 38L7 38L7 39L6 39L6 40L5 40L5 41L4 41L4 39L5 39L5 38L2 38L2 39L1 39L1 41L2 41L2 43L3 43L3 42L4 42L4 43L5 43L5 45L4 45L4 44L3 44L3 45L4 45L4 46L3 46L3 47L5 47L5 45L6 45L6 46L7 46L7 45L8 45L8 44L7 44L7 43L11 43L11 44L12 44L12 42L13 42L13 44L14 44L14 42L15 42L15 43L17 43L17 45L15 45L15 46L14 46L14 45L13 45L13 46L12 46L12 49L13 49L13 48L15 48L15 46L16 46L16 47L17 47L17 45L19 45L19 43L21 43L21 44L20 44L20 46L19 46L19 48L21 48L21 50L22 50L22 49L23 49L23 51L22 51L22 53L23 53L23 52L24 52L24 53L25 53L25 52L26 52L26 51L24 51L24 50L26 50L26 49L25 49L25 48L24 48L24 47L26 47L26 48L27 48L27 46L28 46L28 48L29 48L29 47L30 47L30 48L31 48L31 50L33 50L33 49L34 49L34 50L35 50L35 48L37 48L37 49L36 49L36 50L37 50L37 49L38 49L38 48L39 48L39 49L40 49L40 50L39 50L39 52L40 52L40 54L41 54L41 55L39 55L39 56L42 56L42 54L43 54L43 53L42 53L42 54L41 54L41 52L42 52L42 51L43 51L43 50L44 50L44 49L46 49L46 50L47 50L47 52L46 52L46 51L45 51L45 52L46 52L46 53L47 53L47 52L48 52L48 48L47 48L47 49L46 49L46 46L47 46L47 47L49 47L49 48L50 48L50 47L49 47L49 46L48 46L48 43L47 43L47 44L44 44L44 43L42 43L42 42L43 42L43 40L44 40L44 39L46 39L46 38L47 38L47 37L48 37L48 39L47 39L47 40L46 40L46 41L47 41L47 42L50 42L50 41L52 41L52 38L49 38L49 35L48 35L48 36L47 36L47 34L50 34L50 33L49 33L49 32L48 32L48 29L47 29L47 31L46 31L46 33L45 33L45 31L44 31L44 33L45 33L45 34L46 34L46 35L45 35L45 36L44 36L44 37L42 37L42 38L44 38L44 39L43 39L43 40L42 40L42 42L41 42L41 39L40 39L40 42L39 42L39 41L37 41L37 40L38 40L38 39L39 39L39 38L37 38L37 37L38 37L38 36L37 36L37 37L34 37L34 38L36 38L36 39L35 39L35 40L34 40L34 41L36 41L36 42L34 42L34 43L36 43L36 45L35 45L35 44L34 44L34 45L33 45L33 42L32 42L32 43L30 43L30 45L31 45L31 46L29 46L29 45L28 45L28 43L29 43L29 42L25 42L25 41L26 41L26 39L25 39L25 38L26 38L26 37L24 37L24 39L23 39L23 40L22 40L22 37L23 37L23 36L26 36L26 35L27 35L27 34L28 34L28 35L29 35L29 36L27 36L27 38L29 38L29 36L32 36L32 38L30 38L30 39L28 39L28 41L31 41L31 40L33 40L33 39L32 39L32 38L33 38L33 36L36 36L36 35L35 35L35 33L33 33L33 32L35 32L35 31L33 31L33 32L31 32L31 33L33 33L33 36L32 36L32 34L30 34L30 35L29 35L29 33L30 33L30 31L28 31L28 33L27 33L27 31L25 31L25 34L24 34L24 35L23 35L23 33L24 33L24 30L26 30L26 28L23 28L23 27L22 27L22 26L19 26L19 25L17 25L17 24L18 24L18 23L16 23L16 20L18 20L18 21L19 21L19 22L21 22L21 23L20 23L20 24L21 24L21 23L22 23L22 25L23 25L23 26L25 26L25 25L28 25L28 26L29 26L29 24L31 24L31 23L32 23L32 22L34 22L34 23L33 23L33 24L32 24L32 25L33 25L33 24L35 24L35 23L36 23L36 24L37 24L37 22L35 22L35 21L33 21L33 20L34 20L34 19L32 19L32 18L31 18L31 16L32 16L32 14L31 14L31 12L32 12L32 13L33 13L33 10L34 10L34 11L35 11L35 12L38 12L38 11L37 11L37 8L39 8L39 7L40 7L40 8L41 8L41 9L40 9L40 10L41 10L41 9L42 9L42 8L41 8L41 7L42 7L42 6L41 6L41 7L40 7L40 5L38 5L38 6L37 6L37 8L36 8L36 9L34 9L34 6L33 6L33 8L32 8L32 6L31 6L31 9L32 9L32 10L30 10L30 11L29 11L29 9L28 9L28 10L26 10L26 11L25 11L25 10L23 10L23 11L21 11L21 12L19 12L19 11L20 11L20 10L21 10L21 8L22 8L22 6L23 6L23 7L24 7L24 8L23 8L23 9L24 9L24 8L25 8L25 9L26 9L26 6L25 6L25 5L26 5L26 4L24 4L24 6L23 6L23 5L21 5L21 7L20 7L20 6L19 6L19 7L18 7L18 6L17 6L17 7L16 7L16 6L15 6L15 5L14 5L14 4ZM27 5L27 8L30 8L30 5ZM8 6L8 7L9 7L9 6ZM14 6L14 7L15 7L15 6ZM24 6L24 7L25 7L25 6ZM28 6L28 7L29 7L29 6ZM38 6L38 7L39 7L39 6ZM19 7L19 10L20 10L20 7ZM15 8L15 9L16 9L16 8ZM17 8L17 9L18 9L18 8ZM56 8L56 9L57 9L57 8ZM3 9L3 10L2 10L2 11L4 11L4 9ZM38 9L38 10L39 10L39 9ZM46 9L46 10L47 10L47 11L48 11L48 10L47 10L47 9ZM6 10L6 11L7 11L7 10ZM13 10L13 12L12 12L12 13L11 13L11 11L10 11L10 12L8 12L8 13L7 13L7 14L8 14L8 13L10 13L10 14L11 14L11 15L12 15L12 16L13 16L13 18L15 18L15 17L16 17L16 19L17 19L17 18L18 18L18 17L17 17L17 16L19 16L19 17L21 17L21 18L20 18L20 19L22 19L22 17L21 17L21 16L19 16L19 15L17 15L17 14L16 14L16 15L15 15L15 11L16 11L16 10L15 10L15 11L14 11L14 10ZM17 10L17 12L16 12L16 13L17 13L17 12L18 12L18 13L19 13L19 14L20 14L20 15L21 15L21 13L19 13L19 12L18 12L18 10ZM35 10L35 11L36 11L36 10ZM55 10L55 13L56 13L56 11L57 11L57 10ZM24 11L24 12L22 12L22 13L23 13L23 15L24 15L24 12L25 12L25 11ZM30 11L30 12L31 12L31 11ZM2 12L2 13L3 13L3 14L4 14L4 12ZM26 12L26 14L27 14L27 16L26 16L26 15L25 15L25 16L23 16L23 18L24 18L24 19L25 19L25 22L24 22L24 21L23 21L23 20L21 20L21 21L22 21L22 23L23 23L23 25L25 25L25 22L27 22L27 23L26 23L26 24L28 24L28 21L29 21L29 22L30 22L30 23L31 23L31 20L32 20L32 19L30 19L30 17L29 17L29 16L31 16L31 14L30 14L30 13L28 13L28 12ZM50 12L50 13L51 13L51 15L50 15L50 16L51 16L51 15L52 15L52 17L53 17L53 18L54 18L54 17L55 17L55 16L53 16L53 15L54 15L54 14L52 14L52 13L51 13L51 12ZM13 13L13 15L14 15L14 16L15 16L15 15L14 15L14 13ZM16 15L16 16L17 16L17 15ZM28 15L28 16L29 16L29 15ZM45 16L45 17L42 17L42 18L41 18L41 21L44 21L44 22L48 22L48 21L45 21L45 19L44 19L44 18L45 18L45 17L46 17L46 16ZM8 17L8 18L9 18L9 17ZM24 17L24 18L25 18L25 17ZM26 17L26 19L27 19L27 20L26 20L26 21L27 21L27 20L30 20L30 19L28 19L28 18L29 18L29 17ZM36 17L36 18L37 18L37 17ZM42 18L42 19L43 19L43 18ZM18 19L18 20L19 20L19 19ZM49 20L49 24L50 24L50 25L52 25L52 26L53 26L53 27L55 27L55 25L54 25L54 24L50 24L50 23L52 23L52 22L51 22L51 21L50 21L50 20ZM56 21L56 22L55 22L55 23L57 23L57 21ZM3 22L3 23L4 23L4 22ZM15 23L15 24L16 24L16 23ZM44 23L44 25L46 25L46 26L47 26L47 27L48 27L48 26L49 26L49 25L48 25L48 24L47 24L47 25L46 25L46 23ZM5 25L5 26L7 26L7 25ZM14 25L14 26L13 26L13 27L12 27L12 28L13 28L13 29L11 29L11 30L10 30L10 31L9 31L9 32L10 32L10 31L11 31L11 33L12 33L12 31L11 31L11 30L13 30L13 31L14 31L14 30L15 30L15 33L16 33L16 30L17 30L17 28L16 28L16 27L14 27L14 26L16 26L16 25ZM30 25L30 26L31 26L31 25ZM34 25L34 27L35 27L35 28L34 28L34 29L36 29L36 31L37 31L37 32L36 32L36 33L37 33L37 32L38 32L38 34L39 34L39 31L40 31L40 32L41 32L41 31L43 31L43 30L46 30L46 27L45 27L45 29L44 29L44 28L43 28L43 27L44 27L44 26L43 26L43 27L42 27L42 28L43 28L43 29L42 29L42 30L40 30L40 29L41 29L41 27L40 27L40 29L38 29L38 30L37 30L37 27L35 27L35 25ZM17 26L17 27L19 27L19 26ZM38 26L38 27L39 27L39 26ZM5 27L5 30L8 30L8 27ZM13 27L13 28L14 28L14 27ZM27 27L27 30L30 30L30 27ZM31 27L31 28L33 28L33 27ZM49 27L49 30L52 30L52 27ZM6 28L6 29L7 29L7 28ZM18 28L18 29L19 29L19 30L18 30L18 31L17 31L17 33L18 33L18 34L14 34L14 33L13 33L13 34L12 34L12 35L15 35L15 36L17 36L17 37L19 37L19 38L18 38L18 39L17 39L17 38L14 38L14 41L13 41L13 40L12 40L12 41L13 41L13 42L14 42L14 41L16 41L16 42L18 42L18 43L19 43L19 41L17 41L17 40L20 40L20 41L21 41L21 42L22 42L22 44L21 44L21 46L22 46L22 47L21 47L21 48L23 48L23 49L24 49L24 48L23 48L23 47L24 47L24 46L25 46L25 45L26 45L26 46L27 46L27 45L26 45L26 43L25 43L25 42L24 42L24 41L25 41L25 39L24 39L24 41L22 41L22 40L21 40L21 38L20 38L20 37L19 37L19 34L20 34L20 35L22 35L22 33L23 33L23 31L22 31L22 32L21 32L21 34L20 34L20 32L19 32L19 30L20 30L20 31L21 31L21 30L24 30L24 29L21 29L21 30L20 30L20 28ZM28 28L28 29L29 29L29 28ZM50 28L50 29L51 29L51 28ZM53 28L53 29L54 29L54 30L56 30L56 29L54 29L54 28ZM1 29L1 30L2 30L2 29ZM13 29L13 30L14 30L14 29ZM15 29L15 30L16 30L16 29ZM32 29L32 30L31 30L31 31L32 31L32 30L33 30L33 29ZM38 30L38 31L39 31L39 30ZM52 31L52 34L54 34L54 33L53 33L53 31ZM54 31L54 32L55 32L55 31ZM0 32L0 33L1 33L1 32ZM18 32L18 33L19 33L19 32ZM42 32L42 33L43 33L43 32ZM55 33L55 34L56 34L56 33ZM41 34L41 35L39 35L39 36L40 36L40 37L41 37L41 35L42 35L42 36L43 36L43 35L44 35L44 34L43 34L43 35L42 35L42 34ZM4 35L4 36L3 36L3 37L4 37L4 36L5 36L5 35ZM17 35L17 36L18 36L18 35ZM51 35L51 36L50 36L50 37L51 37L51 36L52 36L52 35ZM54 35L54 36L55 36L55 37L56 37L56 35ZM12 36L12 37L11 37L11 38L12 38L12 39L13 39L13 38L12 38L12 37L13 37L13 36ZM45 36L45 38L46 38L46 36ZM8 38L8 40L6 40L6 41L5 41L5 42L6 42L6 43L7 43L7 42L8 42L8 40L9 40L9 39L10 39L10 40L11 40L11 39L10 39L10 38ZM16 39L16 40L17 40L17 39ZM49 39L49 40L47 40L47 41L50 41L50 40L51 40L51 39ZM2 40L2 41L3 41L3 40ZM6 41L6 42L7 42L7 41ZM10 41L10 42L11 42L11 41ZM44 41L44 42L45 42L45 41ZM54 41L54 42L55 42L55 41ZM37 42L37 44L38 44L38 45L36 45L36 46L37 46L37 47L38 47L38 45L39 45L39 47L43 47L43 49L44 49L44 48L45 48L45 47L43 47L43 45L42 45L42 43L41 43L41 44L38 44L38 43L39 43L39 42ZM6 44L6 45L7 45L7 44ZM22 44L22 46L23 46L23 45L25 45L25 44ZM1 45L1 47L2 47L2 45ZM32 45L32 48L35 48L35 46L34 46L34 47L33 47L33 45ZM44 45L44 46L45 46L45 45ZM55 45L55 46L56 46L56 45ZM52 47L52 48L53 48L53 47ZM41 48L41 49L42 49L42 48ZM56 48L56 49L57 49L57 48ZM27 49L27 52L30 52L30 49ZM49 49L49 52L52 52L52 49ZM28 50L28 51L29 51L29 50ZM50 50L50 51L51 51L51 50ZM10 51L10 52L9 52L9 53L8 53L8 57L9 57L9 56L10 56L10 57L13 57L13 56L16 56L16 57L18 57L18 55L17 55L17 54L18 54L18 53L17 53L17 54L16 54L16 53L15 53L15 55L13 55L13 54L12 54L12 53L10 53L10 52L11 52L11 51ZM31 51L31 53L32 53L32 51ZM33 51L33 52L35 52L35 53L36 53L36 54L37 54L37 52L38 52L38 51L36 51L36 52L35 52L35 51ZM40 51L40 52L41 52L41 51ZM54 52L54 53L55 53L55 52ZM20 53L20 55L21 55L21 56L22 56L22 55L21 55L21 53ZM38 53L38 54L39 54L39 53ZM48 53L48 54L50 54L50 53ZM9 54L9 55L10 55L10 54ZM12 55L12 56L13 56L13 55ZM47 55L47 56L48 56L48 55ZM56 55L56 56L57 56L57 55ZM52 56L52 57L53 57L53 56ZM54 56L54 57L55 57L55 56ZM0 0L0 7L7 7L7 0ZM1 1L1 6L6 6L6 1ZM2 2L2 5L5 5L5 2ZM50 0L50 7L57 7L57 0ZM51 1L51 6L56 6L56 1ZM52 2L52 5L55 5L55 2ZM0 50L0 57L7 57L7 50ZM1 51L1 56L6 56L6 51ZM2 52L2 55L5 55L5 52Z" fill="#000000"/></g></g></svg>
