<?xml version="1.0" encoding="UTF-8"?>
<svg xmlns="http://www.w3.org/2000/svg" version="1.1" width="300" height="300" viewBox="0 0 300 300"><rect x="0" y="0" width="300" height="300" fill="#fefefe"/><g transform="scale(4.615)"><g transform="translate(4,4)"><path fill-rule="evenodd" d="M8 0L8 2L9 2L9 4L8 4L8 9L7 9L7 8L5 8L5 9L3 9L3 8L0 8L0 9L1 9L1 11L2 11L2 10L3 10L3 11L7 11L7 12L4 12L4 13L3 13L3 12L0 12L0 15L1 15L1 16L2 16L2 17L1 17L1 18L3 18L3 17L5 17L5 16L6 16L6 17L7 17L7 16L6 16L6 15L7 15L7 14L8 14L8 13L9 13L9 12L10 12L10 14L9 14L9 15L8 15L8 17L9 17L9 15L14 15L14 18L13 18L13 21L12 21L12 20L11 20L11 19L12 19L12 17L10 17L10 18L11 18L11 19L10 19L10 20L9 20L9 18L5 18L5 21L4 21L4 22L3 22L3 21L1 21L1 20L2 20L2 19L1 19L1 20L0 20L0 21L1 21L1 23L2 23L2 24L0 24L0 26L1 26L1 27L0 27L0 28L1 28L1 29L0 29L0 32L1 32L1 33L0 33L0 35L2 35L2 37L3 37L3 38L5 38L5 39L8 39L8 40L4 40L4 39L3 39L3 41L1 41L1 40L2 40L2 38L0 38L0 41L1 41L1 43L0 43L0 45L1 45L1 46L0 46L0 48L5 48L5 47L8 47L8 48L9 48L9 47L8 47L8 46L9 46L9 45L8 45L8 44L10 44L10 50L11 50L11 49L12 49L12 51L10 51L10 52L12 52L12 53L13 53L13 54L11 54L11 55L13 55L13 54L14 54L14 53L15 53L15 56L16 56L16 57L17 57L17 55L16 55L16 54L18 54L18 55L19 55L19 54L18 54L18 53L19 53L19 52L20 52L20 53L21 53L21 51L20 51L20 47L19 47L19 46L20 46L20 45L19 45L19 44L20 44L20 43L21 43L21 42L20 42L20 41L21 41L21 40L22 40L22 41L23 41L23 43L22 43L22 44L24 44L24 40L23 40L23 38L22 38L22 37L23 37L23 35L25 35L25 36L24 36L24 37L25 37L25 36L28 36L28 37L29 37L29 36L28 36L28 35L31 35L31 36L30 36L30 40L28 40L28 41L27 41L27 39L26 39L26 40L25 40L25 41L26 41L26 42L25 42L25 45L26 45L26 46L23 46L23 48L22 48L22 46L21 46L21 48L22 48L22 53L23 53L23 55L21 55L21 54L20 54L20 55L21 55L21 56L20 56L20 57L21 57L21 56L22 56L22 57L25 57L25 55L26 55L26 57L28 57L28 55L29 55L29 57L33 57L33 55L34 55L34 57L35 57L35 55L37 55L37 54L38 54L38 53L39 53L39 56L40 56L40 57L41 57L41 56L40 56L40 54L41 54L41 55L42 55L42 57L43 57L43 56L44 56L44 57L46 57L46 56L44 56L44 55L45 55L45 54L46 54L46 53L49 53L49 54L48 54L48 55L47 55L47 56L48 56L48 57L50 57L50 55L49 55L49 54L52 54L52 55L53 55L53 54L54 54L54 53L57 53L57 49L56 49L56 47L57 47L57 45L56 45L56 44L57 44L57 42L56 42L56 44L55 44L55 45L54 45L54 46L55 46L55 45L56 45L56 47L55 47L55 49L56 49L56 52L54 52L54 51L53 51L53 50L54 50L54 49L53 49L53 48L54 48L54 47L53 47L53 46L52 46L52 45L53 45L53 44L54 44L54 43L55 43L55 42L54 42L54 39L55 39L55 38L57 38L57 37L56 37L56 36L57 36L57 34L56 34L56 35L55 35L55 36L54 36L54 34L53 34L53 36L51 36L51 33L50 33L50 32L52 32L52 31L53 31L53 33L54 33L54 31L55 31L55 33L56 33L56 31L57 31L57 28L56 28L56 27L57 27L57 24L56 24L56 23L57 23L57 21L56 21L56 20L57 20L57 13L56 13L56 11L57 11L57 10L56 10L56 11L55 11L55 9L57 9L57 8L55 8L55 9L54 9L54 10L53 10L53 11L52 11L52 12L51 12L51 10L52 10L52 9L53 9L53 8L48 8L48 7L49 7L49 6L48 6L48 7L47 7L47 5L48 5L48 0L46 0L46 1L45 1L45 0L42 0L42 1L41 1L41 0L38 0L38 2L37 2L37 1L35 1L35 0L34 0L34 2L33 2L33 3L34 3L34 8L32 8L32 9L31 9L31 5L32 5L32 1L31 1L31 0L30 0L30 1L28 1L28 0L26 0L26 2L25 2L25 4L24 4L24 1L25 1L25 0L24 0L24 1L23 1L23 0L20 0L20 1L19 1L19 0L16 0L16 1L14 1L14 0L10 0L10 1L9 1L9 0ZM10 1L10 2L12 2L12 4L11 4L11 5L10 5L10 4L9 4L9 7L10 7L10 8L9 8L9 9L8 9L8 10L12 10L12 12L11 12L11 14L14 14L14 15L15 15L15 16L17 16L17 17L16 17L16 18L18 18L18 19L14 19L14 20L17 20L17 21L18 21L18 23L17 23L17 22L16 22L16 23L17 23L17 25L16 25L16 24L15 24L15 25L14 25L14 24L13 24L13 23L11 23L11 24L9 24L9 22L8 22L8 23L6 23L6 22L7 22L7 21L8 21L8 19L6 19L6 20L7 20L7 21L6 21L6 22L5 22L5 23L6 23L6 24L9 24L9 28L10 28L10 29L11 29L11 30L10 30L10 31L11 31L11 33L10 33L10 32L7 32L7 31L5 31L5 32L7 32L7 33L4 33L4 32L3 32L3 31L2 31L2 30L3 30L3 28L4 28L4 27L1 27L1 28L2 28L2 29L1 29L1 32L2 32L2 33L1 33L1 34L2 34L2 35L4 35L4 34L8 34L8 33L10 33L10 34L9 34L9 35L10 35L10 34L13 34L13 33L12 33L12 32L14 32L14 37L15 37L15 39L14 39L14 40L16 40L16 42L15 42L15 45L14 45L14 43L13 43L13 44L12 44L12 45L11 45L11 46L12 46L12 45L13 45L13 49L14 49L14 51L13 51L13 52L15 52L15 48L14 48L14 46L15 46L15 47L16 47L16 48L17 48L17 49L16 49L16 51L17 51L17 53L18 53L18 51L17 51L17 50L19 50L19 49L18 49L18 48L17 48L17 47L16 47L16 46L17 46L17 45L16 45L16 42L17 42L17 39L16 39L16 38L19 38L19 37L18 37L18 35L19 35L19 36L21 36L21 37L22 37L22 36L21 36L21 35L23 35L23 33L22 33L22 30L23 30L23 29L24 29L24 31L23 31L23 32L24 32L24 34L26 34L26 35L28 35L28 34L29 34L29 32L28 32L28 31L27 31L27 33L28 33L28 34L26 34L26 33L25 33L25 32L26 32L26 30L25 30L25 29L24 29L24 27L25 27L25 25L24 25L24 24L23 24L23 25L24 25L24 27L22 27L22 28L23 28L23 29L22 29L22 30L21 30L21 27L20 27L20 26L21 26L21 25L22 25L22 24L21 24L21 23L22 23L22 22L23 22L23 21L22 21L22 19L23 19L23 18L21 18L21 17L20 17L20 18L19 18L19 17L18 17L18 16L19 16L19 15L21 15L21 14L22 14L22 16L23 16L23 12L24 12L24 10L25 10L25 11L26 11L26 13L24 13L24 18L25 18L25 19L24 19L24 20L25 20L25 19L26 19L26 20L27 20L27 22L26 22L26 23L28 23L28 22L29 22L29 21L28 21L28 20L29 20L29 19L30 19L30 22L33 22L33 21L34 21L34 22L35 22L35 23L36 23L36 24L34 24L34 23L33 23L33 24L34 24L34 26L33 26L33 25L32 25L32 23L30 23L30 24L29 24L29 25L30 25L30 26L31 26L31 25L32 25L32 27L31 27L31 30L32 30L32 28L33 28L33 29L34 29L34 31L32 31L32 32L30 32L30 34L32 34L32 32L33 32L33 33L34 33L34 34L35 34L35 33L36 33L36 35L35 35L35 36L33 36L33 37L34 37L34 38L31 38L31 40L30 40L30 42L29 42L29 41L28 41L28 42L27 42L27 43L28 43L28 42L29 42L29 43L30 43L30 45L29 45L29 44L28 44L28 46L26 46L26 47L24 47L24 48L23 48L23 49L24 49L24 51L23 51L23 52L24 52L24 51L25 51L25 54L24 54L24 55L25 55L25 54L26 54L26 55L28 55L28 53L27 53L27 54L26 54L26 48L28 48L28 46L29 46L29 48L31 48L31 47L30 47L30 46L31 46L31 43L32 43L32 40L33 40L33 41L34 41L34 42L35 42L35 41L36 41L36 44L33 44L33 45L34 45L34 48L35 48L35 49L34 49L34 52L35 52L35 53L34 53L34 55L35 55L35 53L36 53L36 54L37 54L37 53L38 53L38 51L39 51L39 49L40 49L40 51L41 51L41 52L42 52L42 54L43 54L43 55L44 55L44 52L43 52L43 51L41 51L41 49L42 49L42 50L43 50L43 49L44 49L44 50L45 50L45 53L46 53L46 51L47 51L47 52L48 52L48 51L47 51L47 49L44 49L44 48L45 48L45 46L44 46L44 44L45 44L45 43L48 43L48 42L49 42L49 45L47 45L47 44L46 44L46 47L48 47L48 46L49 46L49 47L50 47L50 46L51 46L51 45L52 45L52 44L53 44L53 37L54 37L54 38L55 38L55 37L54 37L54 36L53 36L53 37L52 37L52 39L51 39L51 40L48 40L48 39L50 39L50 38L51 38L51 36L50 36L50 33L49 33L49 36L48 36L48 37L47 37L47 36L46 36L46 35L45 35L45 37L46 37L46 38L45 38L45 39L46 39L46 38L47 38L47 40L48 40L48 41L46 41L46 40L45 40L45 41L44 41L44 40L43 40L43 41L42 41L42 39L43 39L43 38L44 38L44 34L45 34L45 33L46 33L46 34L48 34L48 33L46 33L46 32L47 32L47 30L48 30L48 29L47 29L47 28L46 28L46 29L45 29L45 30L46 30L46 32L45 32L45 33L44 33L44 34L43 34L43 33L42 33L42 31L44 31L44 27L45 27L45 25L46 25L46 26L47 26L47 25L48 25L48 26L51 26L51 25L52 25L52 24L53 24L53 23L54 23L54 24L55 24L55 25L54 25L54 26L55 26L55 27L54 27L54 28L53 28L53 29L54 29L54 30L55 30L55 31L56 31L56 30L55 30L55 27L56 27L56 26L55 26L55 25L56 25L56 24L55 24L55 23L56 23L56 21L55 21L55 20L56 20L56 19L54 19L54 17L56 17L56 16L55 16L55 15L56 15L56 13L55 13L55 11L54 11L54 12L53 12L53 13L54 13L54 14L55 14L55 15L54 15L54 17L53 17L53 18L52 18L52 16L53 16L53 14L52 14L52 13L50 13L50 11L49 11L49 9L48 9L48 8L47 8L47 9L46 9L46 6L45 6L45 5L44 5L44 4L45 4L45 1L42 1L42 3L41 3L41 2L40 2L40 1L39 1L39 2L40 2L40 4L39 4L39 3L37 3L37 2L35 2L35 3L36 3L36 4L35 4L35 9L34 9L34 10L33 10L33 9L32 9L32 11L34 11L34 12L35 12L35 13L34 13L34 15L33 15L33 13L32 13L32 12L30 12L30 10L31 10L31 9L30 9L30 10L29 10L29 9L27 9L27 10L25 10L25 9L26 9L26 5L24 5L24 6L23 6L23 9L24 9L24 10L22 10L22 5L21 5L21 2L17 2L17 3L16 3L16 2L15 2L15 3L14 3L14 1L13 1L13 2L12 2L12 1ZM22 1L22 4L23 4L23 1ZM27 1L27 3L26 3L26 4L27 4L27 3L28 3L28 4L30 4L30 3L31 3L31 1L30 1L30 3L29 3L29 2L28 2L28 1ZM46 1L46 2L47 2L47 1ZM43 2L43 3L42 3L42 5L41 5L41 6L40 6L40 7L39 7L39 6L38 6L38 9L37 9L37 6L36 6L36 10L34 10L34 11L35 11L35 12L36 12L36 13L35 13L35 14L36 14L36 18L34 18L34 17L35 17L35 15L34 15L34 17L33 17L33 16L32 16L32 15L31 15L31 16L30 16L30 15L29 15L29 13L30 13L30 12L29 12L29 10L28 10L28 12L27 12L27 13L26 13L26 15L25 15L25 17L26 17L26 18L27 18L27 17L26 17L26 15L27 15L27 14L28 14L28 15L29 15L29 16L30 16L30 17L28 17L28 18L30 18L30 17L31 17L31 20L32 20L32 21L33 21L33 18L34 18L34 21L35 21L35 22L36 22L36 23L37 23L37 22L38 22L38 21L39 21L39 19L40 19L40 22L41 22L41 23L39 23L39 24L40 24L40 25L39 25L39 26L38 26L38 25L37 25L37 24L36 24L36 26L37 26L37 28L36 28L36 30L35 30L35 31L36 31L36 33L37 33L37 34L38 34L38 36L37 36L37 35L36 35L36 37L35 37L35 38L34 38L34 41L35 41L35 38L36 38L36 41L37 41L37 42L38 42L38 41L39 41L39 42L40 42L40 43L41 43L41 42L42 42L42 43L43 43L43 42L44 42L44 43L45 43L45 42L44 42L44 41L43 41L43 42L42 42L42 41L41 41L41 40L40 40L40 39L41 39L41 35L40 35L40 36L39 36L39 34L38 34L38 33L39 33L39 32L40 32L40 34L42 34L42 33L41 33L41 32L40 32L40 31L42 31L42 28L43 28L43 27L44 27L44 25L45 25L45 24L44 24L44 25L43 25L43 22L44 22L44 23L46 23L46 19L48 19L48 20L47 20L47 23L48 23L48 24L50 24L50 25L51 25L51 24L50 24L50 22L49 22L49 23L48 23L48 21L49 21L49 20L51 20L51 18L50 18L50 17L49 17L49 16L50 16L50 13L49 13L49 14L48 14L48 12L49 12L49 11L48 11L48 9L47 9L47 11L46 11L46 13L45 13L45 12L44 12L44 11L43 11L43 10L42 10L42 8L43 8L43 6L44 6L44 10L45 10L45 6L44 6L44 5L43 5L43 4L44 4L44 2ZM13 3L13 5L14 5L14 7L13 7L13 6L12 6L12 7L11 7L11 6L10 6L10 7L11 7L11 9L13 9L13 10L14 10L14 9L15 9L15 11L14 11L14 12L15 12L15 11L16 11L16 8L14 8L14 7L15 7L15 6L16 6L16 7L17 7L17 8L18 8L18 9L17 9L17 14L15 14L15 15L17 15L17 16L18 16L18 15L19 15L19 14L20 14L20 13L21 13L21 10L20 10L20 9L21 9L21 5L20 5L20 7L19 7L19 4L18 4L18 3L17 3L17 4L16 4L16 3L15 3L15 4L14 4L14 3ZM46 3L46 5L47 5L47 3ZM38 4L38 5L39 5L39 4ZM16 5L16 6L17 6L17 7L18 7L18 8L19 8L19 9L20 9L20 8L19 8L19 7L18 7L18 5ZM27 5L27 8L30 8L30 5ZM42 5L42 6L41 6L41 7L40 7L40 8L39 8L39 9L38 9L38 10L37 10L37 11L36 11L36 12L37 12L37 13L38 13L38 15L37 15L37 16L38 16L38 18L40 18L40 19L41 19L41 18L40 18L40 15L39 15L39 12L37 12L37 11L38 11L38 10L39 10L39 9L40 9L40 11L41 11L41 12L42 12L42 15L41 15L41 17L42 17L42 18L43 18L43 17L44 17L44 19L42 19L42 20L43 20L43 21L42 21L42 22L43 22L43 21L44 21L44 22L45 22L45 21L44 21L44 19L46 19L46 18L47 18L47 15L48 15L48 14L47 14L47 13L46 13L46 18L45 18L45 17L44 17L44 16L45 16L45 13L44 13L44 12L42 12L42 11L41 11L41 9L40 9L40 8L42 8L42 6L43 6L43 5ZM24 6L24 7L25 7L25 6ZM28 6L28 7L29 7L29 6ZM32 6L32 7L33 7L33 6ZM12 7L12 8L13 8L13 9L14 9L14 8L13 8L13 7ZM5 9L5 10L7 10L7 9ZM50 9L50 10L51 10L51 9ZM18 11L18 12L20 12L20 11ZM22 11L22 12L23 12L23 11ZM47 11L47 12L48 12L48 11ZM7 12L7 13L6 13L6 14L7 14L7 13L8 13L8 12ZM2 13L2 14L3 14L3 13ZM4 13L4 15L3 15L3 16L4 16L4 15L5 15L5 13ZM18 13L18 14L17 14L17 15L18 15L18 14L19 14L19 13ZM31 13L31 14L32 14L32 13ZM43 13L43 14L44 14L44 13ZM51 14L51 16L52 16L52 14ZM43 15L43 16L44 16L44 15ZM31 16L31 17L32 17L32 18L33 18L33 17L32 17L32 16ZM48 17L48 19L49 19L49 17ZM20 18L20 19L21 19L21 18ZM36 18L36 19L37 19L37 18ZM3 19L3 20L4 20L4 19ZM27 19L27 20L28 20L28 19ZM53 19L53 20L52 20L52 22L51 22L51 23L52 23L52 22L55 22L55 21L54 21L54 19ZM18 20L18 21L19 21L19 20ZM20 20L20 21L21 21L21 20ZM35 20L35 21L36 21L36 22L37 22L37 21L38 21L38 20L37 20L37 21L36 21L36 20ZM10 21L10 22L12 22L12 21ZM14 21L14 22L15 22L15 21ZM20 22L20 23L21 23L21 22ZM24 22L24 23L25 23L25 22ZM3 23L3 24L2 24L2 25L3 25L3 26L5 26L5 25L3 25L3 24L4 24L4 23ZM18 23L18 26L20 26L20 25L19 25L19 23ZM12 24L12 25L10 25L10 27L11 27L11 26L12 26L12 27L13 27L13 28L11 28L11 29L13 29L13 30L11 30L11 31L13 31L13 30L15 30L15 32L16 32L16 31L17 31L17 35L18 35L18 34L19 34L19 32L20 32L20 31L21 31L21 30L20 30L20 27L18 27L18 28L19 28L19 32L18 32L18 30L15 30L15 28L14 28L14 27L13 27L13 26L14 26L14 25L13 25L13 24ZM30 24L30 25L31 25L31 24ZM41 24L41 25L40 25L40 27L39 27L39 29L38 29L38 28L37 28L37 30L36 30L36 31L37 31L37 32L38 32L38 31L40 31L40 30L41 30L41 29L40 29L40 27L43 27L43 25L42 25L42 24ZM46 24L46 25L47 25L47 24ZM6 25L6 26L8 26L8 25ZM12 25L12 26L13 26L13 25ZM15 25L15 27L16 27L16 28L17 28L17 27L16 27L16 25ZM26 25L26 26L27 26L27 25ZM41 25L41 26L42 26L42 25ZM5 27L5 30L8 30L8 27ZM27 27L27 30L30 30L30 27ZM34 27L34 29L35 29L35 27ZM49 27L49 30L52 30L52 27ZM6 28L6 29L7 29L7 28ZM13 28L13 29L14 29L14 28ZM28 28L28 29L29 29L29 28ZM50 28L50 29L51 29L51 28ZM37 30L37 31L38 31L38 30ZM2 33L2 34L4 34L4 33ZM15 33L15 34L16 34L16 33ZM6 35L6 36L7 36L7 35ZM11 35L11 37L9 37L9 36L8 36L8 37L6 37L6 38L8 38L8 39L10 39L10 40L11 40L11 37L12 37L12 38L13 38L13 36L12 36L12 35ZM15 35L15 36L16 36L16 37L17 37L17 36L16 36L16 35ZM0 36L0 37L1 37L1 36ZM4 36L4 37L5 37L5 36ZM31 36L31 37L32 37L32 36ZM38 36L38 38L37 38L37 37L36 37L36 38L37 38L37 41L38 41L38 38L39 38L39 39L40 39L40 38L39 38L39 36ZM42 36L42 37L43 37L43 36ZM8 37L8 38L9 38L9 37ZM48 37L48 38L50 38L50 37ZM20 38L20 39L22 39L22 38ZM24 38L24 39L25 39L25 38ZM28 38L28 39L29 39L29 38ZM12 40L12 41L11 41L11 42L8 42L8 41L6 41L6 42L7 42L7 43L3 43L3 42L4 42L4 41L3 41L3 42L2 42L2 43L3 43L3 44L4 44L4 45L6 45L6 46L8 46L8 45L6 45L6 44L8 44L8 43L12 43L12 42L13 42L13 40ZM19 40L19 41L20 41L20 40ZM39 40L39 41L40 41L40 40ZM51 40L51 41L49 41L49 42L50 42L50 45L49 45L49 46L50 46L50 45L51 45L51 44L52 44L52 40ZM55 40L55 41L57 41L57 40ZM30 42L30 43L31 43L31 42ZM18 43L18 44L19 44L19 43ZM37 43L37 44L36 44L36 45L35 45L35 46L36 46L36 47L37 47L37 48L36 48L36 49L37 49L37 51L35 51L35 52L36 52L36 53L37 53L37 51L38 51L38 47L37 47L37 46L38 46L38 45L37 45L37 44L39 44L39 43ZM1 44L1 45L2 45L2 46L1 46L1 47L2 47L2 46L3 46L3 47L5 47L5 46L3 46L3 45L2 45L2 44ZM40 44L40 45L39 45L39 46L40 46L40 45L41 45L41 47L40 47L40 49L41 49L41 47L42 47L42 45L43 45L43 44L42 44L42 45L41 45L41 44ZM15 45L15 46L16 46L16 45ZM18 45L18 46L19 46L19 45ZM32 46L32 47L33 47L33 46ZM43 46L43 47L44 47L44 46ZM11 47L11 48L12 48L12 47ZM51 47L51 48L52 48L52 47ZM6 48L6 49L7 49L7 48ZM8 49L8 50L9 50L9 49ZM27 49L27 52L30 52L30 49ZM49 49L49 52L52 52L52 49ZM28 50L28 51L29 51L29 50ZM31 50L31 52L32 52L32 50ZM50 50L50 51L51 51L51 50ZM8 51L8 52L9 52L9 51ZM39 52L39 53L40 53L40 52ZM9 53L9 54L8 54L8 57L9 57L9 55L10 55L10 53ZM31 53L31 54L30 54L30 55L33 55L33 54L32 54L32 53ZM55 54L55 55L57 55L57 54ZM10 56L10 57L11 57L11 56ZM12 56L12 57L13 57L13 56ZM18 56L18 57L19 57L19 56ZM36 56L36 57L37 57L37 56ZM51 56L51 57L53 57L53 56ZM56 56L56 57L57 57L57 56ZM0 0L0 7L7 7L7 0ZM1 1L1 6L6 6L6 1ZM2 2L2 5L5 5L5 2ZM50 0L50 7L57 7L57 0ZM51 1L51 6L56 6L56 1ZM52 2L52 5L55 5L55 2ZM0 50L0 57L7 57L7 50ZM1 51L1 56L6 56L6 51ZM2 52L2 55L5 55L5 52Z" fill="#000000"/></g></g></svg>
