<?xml version="1.0" encoding="UTF-8"?>
<svg xmlns="http://www.w3.org/2000/svg" version="1.1" width="300" height="300" viewBox="0 0 300 300"><rect x="0" y="0" width="300" height="300" fill="#fefefe"/><g transform="scale(4.615)"><g transform="translate(4,4)"><path fill-rule="evenodd" d="M8 0L8 1L9 1L9 0ZM10 0L10 1L11 1L11 0ZM13 0L13 1L12 1L12 3L11 3L11 2L10 2L10 3L9 3L9 2L8 2L8 5L9 5L9 4L10 4L10 7L9 7L9 6L8 6L8 7L9 7L9 8L8 8L8 9L7 9L7 8L6 8L6 9L7 9L7 10L3 10L3 9L4 9L4 8L0 8L0 9L2 9L2 10L3 10L3 11L4 11L4 15L3 15L3 16L4 16L4 17L2 17L2 19L0 19L0 20L2 20L2 21L3 21L3 22L2 22L2 23L1 23L1 21L0 21L0 24L2 24L2 23L3 23L3 24L4 24L4 29L3 29L3 25L1 25L1 26L0 26L0 29L1 29L1 27L2 27L2 35L1 35L1 33L0 33L0 36L1 36L1 37L0 37L0 39L3 39L3 38L4 38L4 37L3 37L3 38L1 38L1 37L2 37L2 35L3 35L3 33L4 33L4 36L5 36L5 31L9 31L9 33L8 33L8 32L6 32L6 33L7 33L7 34L6 34L6 35L7 35L7 36L6 36L6 37L5 37L5 39L7 39L7 38L6 38L6 37L8 37L8 40L5 40L5 41L7 41L7 42L6 42L6 43L5 43L5 42L4 42L4 43L5 43L5 44L3 44L3 42L2 42L2 41L3 41L3 40L1 40L1 41L0 41L0 42L1 42L1 43L0 43L0 45L2 45L2 47L1 47L1 46L0 46L0 48L5 48L5 47L8 47L8 50L9 50L9 49L10 49L10 48L11 48L11 49L13 49L13 50L12 50L12 51L11 51L11 50L10 50L10 51L11 51L11 52L9 52L9 53L8 53L8 57L9 57L9 55L10 55L10 57L11 57L11 55L10 55L10 53L11 53L11 52L12 52L12 53L13 53L13 54L12 54L12 55L14 55L14 56L12 56L12 57L14 57L14 56L15 56L15 57L18 57L18 56L19 56L19 55L20 55L20 57L21 57L21 56L22 56L22 57L23 57L23 56L22 56L22 55L23 55L23 54L26 54L26 55L27 55L27 56L28 56L28 55L27 55L27 53L29 53L29 54L31 54L31 55L30 55L30 56L31 56L31 57L32 57L32 55L33 55L33 54L36 54L36 55L34 55L34 56L33 56L33 57L36 57L36 55L38 55L38 57L41 57L41 55L42 55L42 57L43 57L43 55L44 55L44 56L45 56L45 57L47 57L47 55L49 55L49 56L48 56L48 57L51 57L51 54L52 54L52 53L54 53L54 52L56 52L56 49L57 49L57 48L56 48L56 49L55 49L55 48L54 48L54 47L57 47L57 45L56 45L56 46L54 46L54 47L53 47L53 48L52 48L52 43L53 43L53 42L54 42L54 43L55 43L55 44L53 44L53 45L55 45L55 44L56 44L56 42L54 42L54 40L55 40L55 38L56 38L56 39L57 39L57 38L56 38L56 37L55 37L55 36L54 36L54 35L57 35L57 31L56 31L56 30L57 30L57 28L56 28L56 24L55 24L55 27L53 27L53 25L54 25L54 23L57 23L57 21L56 21L56 20L57 20L57 19L56 19L56 20L54 20L54 21L53 21L53 20L50 20L50 19L51 19L51 18L52 18L52 19L55 19L55 17L56 17L56 18L57 18L57 15L55 15L55 14L54 14L54 10L53 10L53 9L55 9L55 8L52 8L52 9L51 9L51 10L50 10L50 8L47 8L47 5L48 5L48 0L45 0L45 1L44 1L44 2L41 2L41 1L43 1L43 0L41 0L41 1L40 1L40 0L39 0L39 1L40 1L40 2L41 2L41 3L43 3L43 5L42 5L42 7L43 7L43 8L40 8L40 7L41 7L41 4L38 4L38 3L37 3L37 1L38 1L38 0L37 0L37 1L36 1L36 0L35 0L35 1L34 1L34 2L35 2L35 3L33 3L33 0L32 0L32 1L31 1L31 0L29 0L29 1L28 1L28 3L29 3L29 1L31 1L31 2L30 2L30 3L31 3L31 4L26 4L26 1L25 1L25 0L23 0L23 1L25 1L25 2L24 2L24 3L23 3L23 2L22 2L22 0L21 0L21 2L19 2L19 1L20 1L20 0L18 0L18 2L17 2L17 1L16 1L16 2L15 2L15 3L17 3L17 5L15 5L15 4L14 4L14 3L13 3L13 1L14 1L14 0ZM35 1L35 2L36 2L36 1ZM45 1L45 3L44 3L44 4L45 4L45 5L43 5L43 7L44 7L44 6L45 6L45 7L46 7L46 5L47 5L47 3L46 3L46 2L47 2L47 1ZM18 2L18 3L19 3L19 4L20 4L20 5L23 5L23 3L22 3L22 2L21 2L21 3L19 3L19 2ZM10 3L10 4L11 4L11 3ZM12 3L12 4L13 4L13 7L12 7L12 6L11 6L11 7L12 7L12 8L9 8L9 9L8 9L8 11L6 11L6 12L5 12L5 13L6 13L6 14L5 14L5 18L3 18L3 19L2 19L2 20L3 20L3 19L6 19L6 20L5 20L5 22L4 22L4 23L5 23L5 24L7 24L7 25L6 25L6 26L10 26L10 25L9 25L9 24L10 24L10 22L11 22L11 23L14 23L14 24L15 24L15 25L14 25L14 27L13 27L13 28L14 28L14 27L16 27L16 28L17 28L17 30L16 30L16 29L15 29L15 30L16 30L16 34L17 34L17 36L16 36L16 35L15 35L15 31L14 31L14 30L13 30L13 31L14 31L14 33L12 33L12 35L11 35L11 34L7 34L7 35L9 35L9 36L8 36L8 37L9 37L9 39L10 39L10 38L14 38L14 40L12 40L12 39L11 39L11 40L10 40L10 41L11 41L11 40L12 40L12 42L10 42L10 44L13 44L13 45L11 45L11 46L12 46L12 47L11 47L11 48L13 48L13 49L14 49L14 50L13 50L13 51L15 51L15 53L16 53L16 54L17 54L17 55L19 55L19 52L20 52L20 49L17 49L17 48L15 48L15 46L16 46L16 47L18 47L18 48L21 48L21 50L22 50L22 49L23 49L23 52L22 52L22 51L21 51L21 52L22 52L22 53L20 53L20 55L22 55L22 53L23 53L23 52L24 52L24 53L25 53L25 52L26 52L26 51L24 51L24 50L25 50L25 48L24 48L24 47L26 47L26 48L28 48L28 46L29 46L29 47L30 47L30 48L31 48L31 49L33 49L33 48L32 48L32 47L34 47L34 46L35 46L35 44L36 44L36 47L35 47L35 48L34 48L34 50L35 50L35 48L37 48L37 49L36 49L36 50L37 50L37 49L38 49L38 48L39 48L39 49L40 49L40 50L39 50L39 52L40 52L40 54L41 54L41 53L42 53L42 54L43 54L43 52L42 52L42 51L43 51L43 50L44 50L44 51L45 51L45 52L46 52L46 53L47 53L47 52L48 52L48 48L47 48L47 49L45 49L45 48L44 48L44 49L43 49L43 47L40 47L40 46L39 46L39 45L38 45L38 44L39 44L39 43L38 43L38 44L37 44L37 42L41 42L41 43L40 43L40 44L41 44L41 43L42 43L42 45L45 45L45 47L46 47L46 46L47 46L47 45L48 45L48 47L49 47L49 48L50 48L50 46L51 46L51 45L49 45L49 44L51 44L51 42L50 42L50 41L52 41L52 40L53 40L53 39L54 39L54 38L53 38L53 36L52 36L52 35L51 35L51 36L50 36L50 38L49 38L49 36L48 36L48 35L47 35L47 34L50 34L50 33L49 33L49 32L52 32L52 34L54 34L54 32L55 32L55 30L56 30L56 29L55 29L55 30L53 30L53 31L49 31L49 32L48 32L48 29L47 29L47 31L45 31L45 30L46 30L46 27L45 27L45 29L42 29L42 30L40 30L40 29L41 29L41 27L42 27L42 28L43 28L43 27L42 27L42 26L43 26L43 24L41 24L41 23L40 23L40 24L39 24L39 21L38 21L38 22L35 22L35 21L33 21L33 17L31 17L31 16L33 16L33 15L35 15L35 16L34 16L34 17L35 17L35 20L36 20L36 21L37 21L37 20L36 20L36 19L38 19L38 20L40 20L40 19L39 19L39 18L41 18L41 19L42 19L42 18L43 18L43 21L44 21L44 22L45 22L45 19L47 19L47 21L46 21L46 22L47 22L47 21L49 21L49 24L50 24L50 25L51 25L51 26L52 26L52 25L53 25L53 24L51 24L51 23L52 23L52 22L51 22L51 21L50 21L50 20L49 20L49 19L50 19L50 18L51 18L51 17L50 17L50 16L52 16L52 18L54 18L54 17L55 17L55 16L54 16L54 17L53 17L53 15L54 15L54 14L52 14L52 13L53 13L53 10L52 10L52 11L51 11L51 12L50 12L50 13L51 13L51 15L50 15L50 16L49 16L49 11L50 11L50 10L47 10L47 8L43 8L43 9L44 9L44 13L43 13L43 12L42 12L42 11L43 11L43 10L42 10L42 11L41 11L41 10L40 10L40 9L38 9L38 10L40 10L40 15L41 15L41 16L40 16L40 17L39 17L39 15L37 15L37 13L36 13L36 15L35 15L35 12L34 12L34 14L33 14L33 12L32 12L32 13L31 13L31 12L30 12L30 11L33 11L33 10L34 10L34 11L35 11L35 10L36 10L36 12L38 12L38 11L37 11L37 8L39 8L39 7L40 7L40 5L38 5L38 6L37 6L37 5L36 5L36 4L34 4L34 5L33 5L33 3L32 3L32 4L31 4L31 5L32 5L32 6L31 6L31 9L32 9L32 10L26 10L26 11L25 11L25 13L24 13L24 12L23 12L23 11L20 11L20 10L21 10L21 8L23 8L23 7L24 7L24 9L26 9L26 6L25 6L25 5L26 5L26 4L24 4L24 6L23 6L23 7L22 7L22 6L21 6L21 7L20 7L20 6L19 6L19 7L18 7L18 5L17 5L17 7L16 7L16 6L15 6L15 5L14 5L14 4L13 4L13 3ZM27 5L27 8L30 8L30 5ZM14 6L14 8L15 8L15 11L14 11L14 10L13 10L13 12L12 12L12 15L13 15L13 13L14 13L14 16L12 16L12 17L11 17L11 16L10 16L10 15L9 15L9 14L8 14L8 16L6 16L6 17L9 17L9 18L10 18L10 19L9 19L9 20L6 20L6 21L9 21L9 22L10 22L10 21L9 21L9 20L10 20L10 19L11 19L11 20L13 20L13 21L11 21L11 22L14 22L14 23L15 23L15 24L16 24L16 23L17 23L17 25L20 25L20 26L22 26L22 27L23 27L23 25L21 25L21 24L22 24L22 23L21 23L21 22L19 22L19 21L18 21L18 20L20 20L20 19L21 19L21 21L22 21L22 22L23 22L23 24L24 24L24 25L25 25L25 27L24 27L24 28L23 28L23 29L21 29L21 27L20 27L20 29L21 29L21 30L20 30L20 31L21 31L21 30L24 30L24 31L22 31L22 32L19 32L19 31L17 31L17 34L18 34L18 32L19 32L19 35L18 35L18 36L17 36L17 38L15 38L15 41L14 41L14 42L13 42L13 44L14 44L14 43L15 43L15 41L16 41L16 42L18 42L18 43L19 43L19 41L17 41L17 40L20 40L20 41L22 41L22 44L21 44L21 42L20 42L20 44L19 44L19 45L17 45L17 43L16 43L16 44L15 44L15 45L13 45L13 46L15 46L15 45L17 45L17 46L20 46L20 44L21 44L21 46L22 46L22 47L21 47L21 48L23 48L23 49L24 49L24 48L23 48L23 47L24 47L24 46L25 46L25 45L26 45L26 46L28 46L28 44L30 44L30 46L32 46L32 42L33 42L33 45L34 45L34 44L35 44L35 43L34 43L34 42L36 42L36 41L34 41L34 40L35 40L35 39L36 39L36 38L35 38L35 39L33 39L33 38L34 38L34 37L33 37L33 38L32 38L32 36L34 36L34 35L33 35L33 33L34 33L34 32L33 32L33 33L31 33L31 31L32 31L32 29L33 29L33 31L35 31L35 35L36 35L36 36L35 36L35 37L37 37L37 39L38 39L38 40L37 40L37 41L40 41L40 40L39 40L39 39L41 39L41 42L42 42L42 43L43 43L43 44L47 44L47 43L48 43L48 44L49 44L49 43L50 43L50 42L47 42L47 41L50 41L50 40L52 40L52 39L53 39L53 38L52 38L52 36L51 36L51 38L52 38L52 39L49 39L49 38L48 38L48 37L47 37L47 38L46 38L46 37L45 37L45 38L46 38L46 39L44 39L44 38L42 38L42 37L44 37L44 36L47 36L47 35L46 35L46 34L45 34L45 33L44 33L44 31L41 31L41 32L40 32L40 31L39 31L39 30L38 30L38 29L40 29L40 27L41 27L41 26L40 26L40 25L39 25L39 24L38 24L38 23L37 23L37 24L36 24L36 23L35 23L35 24L33 24L33 22L32 22L32 23L31 23L31 24L29 24L29 23L28 23L28 21L29 21L29 22L31 22L31 20L32 20L32 18L31 18L31 20L30 20L30 17L29 17L29 16L31 16L31 14L30 14L30 13L28 13L28 12L26 12L26 13L27 13L27 16L26 16L26 15L25 15L25 14L24 14L24 15L23 15L23 18L24 18L24 19L25 19L25 22L24 22L24 21L23 21L23 20L22 20L22 17L21 17L21 15L20 15L20 16L19 16L19 17L21 17L21 18L19 18L19 19L18 19L18 18L17 18L17 16L16 16L16 15L18 15L18 14L16 14L16 15L15 15L15 11L16 11L16 8L15 8L15 6ZM24 6L24 7L25 7L25 6ZM28 6L28 7L29 7L29 6ZM32 6L32 8L33 8L33 6ZM34 6L34 9L36 9L36 8L37 8L37 6L36 6L36 7L35 7L35 6ZM38 6L38 7L39 7L39 6ZM48 6L48 7L49 7L49 6ZM19 7L19 8L20 8L20 7ZM17 8L17 9L18 9L18 8ZM56 8L56 9L57 9L57 8ZM19 9L19 10L20 10L20 9ZM10 10L10 12L6 12L6 13L10 13L10 14L11 14L11 13L10 13L10 12L11 12L11 10ZM17 10L17 12L16 12L16 13L17 13L17 12L18 12L18 13L19 13L19 14L21 14L21 13L19 13L19 12L20 12L20 11L19 11L19 12L18 12L18 10ZM46 10L46 11L47 11L47 12L48 12L48 11L47 11L47 10ZM55 10L55 11L57 11L57 10ZM0 11L0 17L1 17L1 16L2 16L2 14L1 14L1 13L2 13L2 12L1 12L1 11ZM22 12L22 13L23 13L23 12ZM51 12L51 13L52 13L52 12ZM55 12L55 13L56 13L56 12ZM44 13L44 14L42 14L42 17L41 17L41 18L42 18L42 17L45 17L45 18L44 18L44 19L45 19L45 18L48 18L48 19L49 19L49 18L48 18L48 14L47 14L47 17L45 17L45 16L44 16L44 15L45 15L45 14L46 14L46 13ZM6 14L6 15L7 15L7 14ZM32 14L32 15L33 15L33 14ZM24 15L24 16L25 16L25 15ZM28 15L28 16L29 16L29 15ZM9 16L9 17L10 17L10 16ZM12 17L12 18L13 18L13 19L15 19L15 20L14 20L14 22L15 22L15 23L16 23L16 19L17 19L17 18L15 18L15 17L14 17L14 18L13 18L13 17ZM24 17L24 18L25 18L25 19L28 19L28 20L29 20L29 21L30 21L30 20L29 20L29 19L28 19L28 18L29 18L29 17L26 17L26 18L25 18L25 17ZM36 17L36 18L37 18L37 17ZM6 18L6 19L8 19L8 18ZM26 20L26 21L27 21L27 20ZM41 20L41 21L42 21L42 20ZM54 21L54 22L56 22L56 21ZM6 22L6 23L8 23L8 24L9 24L9 23L8 23L8 22ZM17 22L17 23L18 23L18 24L19 24L19 23L18 23L18 22ZM25 22L25 25L29 25L29 26L31 26L31 25L29 25L29 24L28 24L28 23L27 23L27 22ZM42 22L42 23L43 23L43 22ZM20 23L20 24L21 24L21 23ZM26 23L26 24L27 24L27 23ZM44 23L44 26L45 26L45 25L46 25L46 26L49 26L49 25L47 25L47 24L48 24L48 23ZM11 24L11 25L12 25L12 24ZM32 24L32 25L33 25L33 24ZM15 25L15 26L16 26L16 25ZM34 25L34 27L35 27L35 28L34 28L34 29L35 29L35 31L37 31L37 32L36 32L36 33L37 33L37 32L38 32L38 34L39 34L39 31L38 31L38 30L36 30L36 29L37 29L37 28L36 28L36 27L35 27L35 25ZM11 26L11 27L9 27L9 28L10 28L10 30L9 30L9 31L10 31L10 30L11 30L11 31L12 31L12 29L11 29L11 27L12 27L12 26ZM17 26L17 27L19 27L19 26ZM38 26L38 27L39 27L39 26ZM5 27L5 30L8 30L8 27ZM27 27L27 30L30 30L30 27ZM31 27L31 28L33 28L33 27ZM47 27L47 28L48 28L48 27ZM49 27L49 30L52 30L52 27ZM6 28L6 29L7 29L7 28ZM18 28L18 29L19 29L19 28ZM24 28L24 30L26 30L26 28ZM28 28L28 29L29 29L29 28ZM50 28L50 29L51 29L51 28ZM53 28L53 29L54 29L54 28ZM3 30L3 32L4 32L4 30ZM0 31L0 32L1 32L1 31ZM24 31L24 32L23 32L23 33L22 33L22 35L21 35L21 36L19 36L19 37L20 37L20 38L21 38L21 40L22 40L22 41L23 41L23 42L24 42L24 44L25 44L25 43L26 43L26 45L27 45L27 44L28 44L28 43L29 43L29 42L30 42L30 41L29 41L29 40L33 40L33 39L32 39L32 38L30 38L30 39L28 39L28 41L29 41L29 42L25 42L25 41L26 41L26 37L24 37L24 39L23 39L23 36L26 36L26 35L27 35L27 34L28 34L28 35L29 35L29 36L27 36L27 38L29 38L29 36L32 36L32 34L30 34L30 35L29 35L29 33L30 33L30 31ZM10 32L10 33L11 33L11 32ZM24 32L24 33L23 33L23 35L24 35L24 34L25 34L25 32ZM27 32L27 33L26 33L26 34L27 34L27 33L28 33L28 32ZM42 32L42 33L43 33L43 32ZM46 32L46 33L47 33L47 32ZM20 33L20 34L21 34L21 33ZM13 34L13 35L12 35L12 37L13 37L13 35L14 35L14 37L15 37L15 35L14 35L14 34ZM41 34L41 35L39 35L39 36L40 36L40 37L41 37L41 35L42 35L42 34ZM43 34L43 35L44 35L44 34ZM9 36L9 37L10 37L10 36ZM37 36L37 37L38 37L38 36ZM21 37L21 38L22 38L22 37ZM17 38L17 39L16 39L16 40L17 40L17 39L18 39L18 38ZM38 38L38 39L39 39L39 38ZM24 39L24 41L25 41L25 39ZM42 39L42 42L43 42L43 40L44 40L44 39ZM47 39L47 40L46 40L46 41L47 41L47 40L49 40L49 39ZM56 40L56 41L57 41L57 40ZM8 42L8 44L7 44L7 43L6 43L6 44L5 44L5 45L3 45L3 47L5 47L5 45L6 45L6 46L7 46L7 45L8 45L8 44L9 44L9 42ZM44 42L44 43L45 43L45 42ZM1 43L1 44L2 44L2 43ZM6 44L6 45L7 45L7 44ZM22 44L22 46L23 46L23 44ZM37 45L37 47L38 47L38 45ZM9 46L9 48L10 48L10 46ZM13 47L13 48L14 48L14 49L15 49L15 51L17 51L17 52L18 52L18 51L19 51L19 50L18 50L18 51L17 51L17 50L16 50L16 49L15 49L15 48L14 48L14 47ZM6 48L6 49L7 49L7 48ZM41 48L41 49L42 49L42 48ZM53 48L53 50L55 50L55 49L54 49L54 48ZM27 49L27 52L30 52L30 49ZM49 49L49 52L52 52L52 49ZM28 50L28 51L29 51L29 50ZM45 50L45 51L46 51L46 52L47 52L47 51L46 51L46 50ZM50 50L50 51L51 51L51 50ZM31 51L31 53L32 53L32 51ZM33 51L33 52L34 52L34 53L36 53L36 54L37 54L37 52L38 52L38 51L36 51L36 52L34 52L34 51ZM40 51L40 52L41 52L41 51ZM13 52L13 53L14 53L14 52ZM17 53L17 54L18 54L18 53ZM38 53L38 54L39 54L39 53ZM48 53L48 54L50 54L50 53ZM55 53L55 54L53 54L53 56L52 56L52 57L55 57L55 56L54 56L54 55L55 55L55 54L56 54L56 53ZM14 54L14 55L15 55L15 54ZM44 54L44 55L47 55L47 54ZM24 55L24 57L25 57L25 55ZM56 55L56 56L57 56L57 55ZM0 0L0 7L7 7L7 0ZM1 1L1 6L6 6L6 1ZM2 2L2 5L5 5L5 2ZM50 0L50 7L57 7L57 0ZM51 1L51 6L56 6L56 1ZM52 2L52 5L55 5L55 2ZM0 50L0 57L7 57L7 50ZM1 51L1 56L6 56L6 51ZM2 52L2 55L5 55L5 52Z" fill="#000000"/></g></g></svg>
