<?xml version="1.0" encoding="UTF-8"?>
<svg xmlns="http://www.w3.org/2000/svg" version="1.1" width="300" height="300" viewBox="0 0 300 300"><rect x="0" y="0" width="300" height="300" fill="#fefefe"/><g transform="scale(4.615)"><g transform="translate(4,4)"><path fill-rule="evenodd" d="M8 0L8 2L10 2L10 3L9 3L9 4L8 4L8 9L7 9L7 8L5 8L5 11L4 11L4 12L5 12L5 11L8 11L8 12L6 12L6 13L4 13L4 14L3 14L3 15L2 15L2 16L3 16L3 15L5 15L5 14L6 14L6 15L7 15L7 16L5 16L5 18L4 18L4 22L5 22L5 23L3 23L3 22L2 22L2 21L3 21L3 20L1 20L1 19L0 19L0 20L1 20L1 21L0 21L0 23L1 23L1 24L0 24L0 25L1 25L1 26L0 26L0 29L1 29L1 30L0 30L0 33L1 33L1 34L0 34L0 35L2 35L2 34L3 34L3 33L1 33L1 31L2 31L2 32L3 32L3 31L5 31L5 32L4 32L4 36L1 36L1 37L2 37L2 38L0 38L0 39L1 39L1 40L0 40L0 41L1 41L1 43L2 43L2 42L3 42L3 43L4 43L4 41L5 41L5 45L4 45L4 44L0 44L0 45L3 45L3 46L2 46L2 47L1 47L1 46L0 46L0 48L5 48L5 47L7 47L7 48L6 48L6 49L8 49L8 50L9 50L9 49L8 49L8 47L9 47L9 48L11 48L11 49L10 49L10 51L8 51L8 52L9 52L9 54L8 54L8 57L9 57L9 56L10 56L10 57L11 57L11 56L10 56L10 55L11 55L11 54L12 54L12 52L10 52L10 51L11 51L11 49L13 49L13 50L14 50L14 51L15 51L15 55L14 55L14 54L13 54L13 56L12 56L12 57L14 57L14 56L15 56L15 57L17 57L17 55L16 55L16 54L18 54L18 53L19 53L19 52L20 52L20 53L21 53L21 52L22 52L22 53L23 53L23 56L22 56L22 55L21 55L21 54L20 54L20 55L21 55L21 56L22 56L22 57L25 57L25 55L26 55L26 57L28 57L28 55L29 55L29 57L33 57L33 55L30 55L30 54L31 54L31 53L32 53L32 54L34 54L34 57L35 57L35 55L38 55L38 52L40 52L40 53L39 53L39 55L40 55L40 57L41 57L41 56L42 56L42 57L43 57L43 54L42 54L42 53L43 53L43 52L44 52L44 57L46 57L46 56L47 56L47 57L48 57L48 56L49 56L49 57L50 57L50 55L49 55L49 54L52 54L52 55L53 55L53 56L51 56L51 57L54 57L54 54L55 54L55 55L57 55L57 54L55 54L55 53L57 53L57 52L56 52L56 51L57 51L57 50L56 50L56 51L55 51L55 52L54 52L54 51L53 51L53 50L54 50L54 49L56 49L56 47L57 47L57 44L56 44L56 47L55 47L55 48L54 48L54 46L53 46L53 48L52 48L52 40L54 40L54 41L53 41L53 44L54 44L54 43L55 43L55 42L54 42L54 41L56 41L56 43L57 43L57 40L54 40L54 38L57 38L57 33L56 33L56 31L57 31L57 24L56 24L56 23L57 23L57 21L56 21L56 20L55 20L55 21L54 21L54 19L55 19L55 18L56 18L56 19L57 19L57 18L56 18L56 17L57 17L57 13L56 13L56 12L57 12L57 10L56 10L56 12L55 12L55 13L56 13L56 15L55 15L55 14L54 14L54 13L53 13L53 12L54 12L54 11L55 11L55 9L57 9L57 8L55 8L55 9L54 9L54 10L53 10L53 11L52 11L52 12L51 12L51 11L50 11L50 9L51 9L51 10L52 10L52 9L53 9L53 8L49 8L49 6L48 6L48 8L47 8L47 10L48 10L48 8L49 8L49 11L50 11L50 13L49 13L49 14L48 14L48 11L46 11L46 8L45 8L45 6L46 6L46 7L47 7L47 5L48 5L48 0L46 0L46 1L47 1L47 2L45 2L45 4L44 4L44 2L43 2L43 4L42 4L42 1L45 1L45 0L42 0L42 1L41 1L41 0L38 0L38 2L37 2L37 1L35 1L35 0L34 0L34 2L33 2L33 6L32 6L32 7L33 7L33 6L34 6L34 8L32 8L32 9L31 9L31 5L32 5L32 1L31 1L31 0L30 0L30 1L29 1L29 0L28 0L28 1L27 1L27 0L24 0L24 1L23 1L23 0L19 0L19 1L21 1L21 2L22 2L22 3L23 3L23 6L22 6L22 5L20 5L20 7L19 7L19 4L18 4L18 3L19 3L19 2L18 2L18 1L17 1L17 0L16 0L16 1L14 1L14 0L11 0L11 1L10 1L10 0ZM11 1L11 2L12 2L12 1ZM13 1L13 3L12 3L12 5L10 5L10 6L9 6L9 7L10 7L10 6L11 6L11 8L13 8L13 9L14 9L14 10L12 10L12 9L10 9L10 8L9 8L9 9L10 9L10 10L9 10L9 12L8 12L8 13L9 13L9 15L10 15L10 16L12 16L12 17L11 17L11 20L13 20L13 17L14 17L14 18L15 18L15 17L14 17L14 16L17 16L17 17L16 17L16 20L17 20L17 22L16 22L16 23L17 23L17 25L16 25L16 24L15 24L15 25L13 25L13 28L12 28L12 26L11 26L11 28L10 28L10 25L11 25L11 24L10 24L10 23L11 23L11 22L12 22L12 24L13 24L13 22L12 22L12 21L11 21L11 22L10 22L10 23L8 23L8 21L10 21L10 20L7 20L7 19L6 19L6 18L8 18L8 19L10 19L10 18L9 18L9 16L8 16L8 17L6 17L6 18L5 18L5 19L6 19L6 20L5 20L5 22L7 22L7 23L5 23L5 24L7 24L7 25L3 25L3 26L1 26L1 28L2 28L2 27L3 27L3 30L4 30L4 27L3 27L3 26L7 26L7 25L8 25L8 26L9 26L9 30L11 30L11 29L12 29L12 31L11 31L11 33L10 33L10 35L12 35L12 33L13 33L13 34L14 34L14 35L13 35L13 37L11 37L11 36L9 36L9 34L8 34L8 36L9 36L9 37L8 37L8 40L7 40L7 39L6 39L6 38L7 38L7 37L6 37L6 38L5 38L5 36L7 36L7 35L6 35L6 34L7 34L7 33L8 33L8 31L6 31L6 32L7 32L7 33L6 33L6 34L5 34L5 36L4 36L4 37L3 37L3 39L2 39L2 40L1 40L1 41L3 41L3 39L4 39L4 40L5 40L5 41L6 41L6 42L7 42L7 43L6 43L6 44L7 44L7 45L5 45L5 46L3 46L3 47L5 47L5 46L7 46L7 47L8 47L8 46L7 46L7 45L10 45L10 44L11 44L11 45L12 45L12 43L13 43L13 45L14 45L14 46L11 46L11 48L14 48L14 49L15 49L15 48L17 48L17 49L16 49L16 50L15 50L15 51L16 51L16 52L17 52L17 53L18 53L18 51L20 51L20 50L21 50L21 51L23 51L23 52L24 52L24 51L25 51L25 54L24 54L24 55L25 55L25 54L26 54L26 55L28 55L28 53L26 53L26 51L25 51L25 49L26 49L26 48L31 48L31 50L32 50L32 51L31 51L31 52L32 52L32 51L33 51L33 52L34 52L34 54L35 54L35 53L36 53L36 54L37 54L37 53L36 53L36 52L35 52L35 51L37 51L37 52L38 52L38 51L39 51L39 49L40 49L40 51L41 51L41 53L42 53L42 51L41 51L41 49L42 49L42 50L44 50L44 51L46 51L46 50L47 50L47 49L46 49L46 48L47 48L47 46L49 46L49 45L50 45L50 46L51 46L51 45L50 45L50 42L49 42L49 41L51 41L51 40L52 40L52 39L53 39L53 38L54 38L54 36L55 36L55 37L56 37L56 33L55 33L55 31L56 31L56 30L54 30L54 31L53 31L53 32L52 32L52 31L50 31L50 33L49 33L49 36L48 36L48 37L46 37L46 36L47 36L47 34L48 34L48 33L46 33L46 36L45 36L45 37L46 37L46 38L47 38L47 40L46 40L46 42L45 42L45 41L44 41L44 39L43 39L43 38L44 38L44 35L43 35L43 33L42 33L42 31L43 31L43 28L42 28L42 31L40 31L40 32L39 32L39 33L38 33L38 34L37 34L37 33L36 33L36 31L37 31L37 32L38 32L38 31L39 31L39 30L40 30L40 28L41 28L41 27L39 27L39 29L38 29L38 28L37 28L37 26L36 26L36 24L37 24L37 25L38 25L38 26L39 26L39 23L41 23L41 22L40 22L40 19L41 19L41 20L42 20L42 27L43 27L43 26L44 26L44 27L45 27L45 26L44 26L44 24L46 24L46 26L47 26L47 24L48 24L48 22L50 22L50 23L49 23L49 24L50 24L50 26L52 26L52 24L53 24L53 23L54 23L54 26L55 26L55 27L54 27L54 28L53 28L53 29L56 29L56 28L55 28L55 27L56 27L56 26L55 26L55 25L56 25L56 24L55 24L55 23L56 23L56 21L55 21L55 23L54 23L54 22L52 22L52 20L53 20L53 19L54 19L54 17L52 17L52 16L53 16L53 14L52 14L52 13L50 13L50 16L51 16L51 17L50 17L50 18L51 18L51 20L48 20L48 19L49 19L49 17L48 17L48 16L47 16L47 15L48 15L48 14L47 14L47 13L46 13L46 11L45 11L45 9L44 9L44 6L45 6L45 5L44 5L44 4L43 4L43 5L44 5L44 6L43 6L43 8L42 8L42 6L41 6L41 5L42 5L42 4L41 4L41 2L40 2L40 1L39 1L39 2L38 2L38 3L37 3L37 2L34 2L34 4L35 4L35 9L34 9L34 10L33 10L33 9L32 9L32 11L31 11L31 12L30 12L30 11L29 11L29 12L30 12L30 13L29 13L29 15L28 15L28 14L26 14L26 13L27 13L27 12L28 12L28 11L27 11L27 10L28 10L28 9L27 9L27 10L25 10L25 9L26 9L26 5L24 5L24 6L23 6L23 8L25 8L25 9L24 9L24 11L23 11L23 9L22 9L22 8L21 8L21 9L20 9L20 10L19 10L19 11L18 11L18 12L19 12L19 13L18 13L18 14L19 14L19 15L15 15L15 14L17 14L17 7L18 7L18 8L19 8L19 7L18 7L18 6L17 6L17 5L16 5L16 6L15 6L15 7L14 7L14 5L13 5L13 3L14 3L14 4L15 4L15 3L14 3L14 1ZM16 1L16 4L17 4L17 1ZM24 1L24 4L25 4L25 1ZM28 1L28 2L27 2L27 3L26 3L26 4L27 4L27 3L28 3L28 4L29 4L29 3L30 3L30 4L31 4L31 1L30 1L30 2L29 2L29 1ZM28 2L28 3L29 3L29 2ZM39 2L39 4L38 4L38 5L39 5L39 4L40 4L40 2ZM35 3L35 4L36 4L36 3ZM46 3L46 5L47 5L47 3ZM12 5L12 7L13 7L13 5ZM27 5L27 8L30 8L30 5ZM16 6L16 7L17 7L17 6ZM21 6L21 7L22 7L22 6ZM24 6L24 7L25 7L25 6ZM28 6L28 7L29 7L29 6ZM36 6L36 10L34 10L34 11L32 11L32 13L31 13L31 15L32 15L32 13L33 13L33 15L34 15L34 17L33 17L33 16L32 16L32 17L31 17L31 16L30 16L30 15L29 15L29 16L30 16L30 17L28 17L28 18L30 18L30 17L31 17L31 20L32 20L32 21L33 21L33 22L30 22L30 19L29 19L29 20L28 20L28 19L27 19L27 20L26 20L26 18L24 18L24 16L22 16L22 14L20 14L20 13L21 13L21 11L20 11L20 13L19 13L19 14L20 14L20 15L19 15L19 16L18 16L18 17L17 17L17 18L18 18L18 19L22 19L22 18L23 18L23 20L22 20L22 21L21 21L21 20L20 20L20 21L21 21L21 22L20 22L20 23L21 23L21 30L22 30L22 33L23 33L23 35L22 35L22 34L19 34L19 31L20 31L20 30L18 30L18 32L16 32L16 31L17 31L17 30L15 30L15 28L17 28L17 26L18 26L18 25L19 25L19 27L18 27L18 28L20 28L20 24L19 24L19 22L17 22L17 23L18 23L18 25L17 25L17 26L16 26L16 25L15 25L15 26L14 26L14 29L13 29L13 30L15 30L15 31L13 31L13 32L14 32L14 33L15 33L15 34L16 34L16 33L17 33L17 35L18 35L18 37L19 37L19 38L18 38L18 42L16 42L16 40L15 40L15 37L13 37L13 38L14 38L14 39L12 39L12 38L11 38L11 37L10 37L10 38L9 38L9 41L8 41L8 43L7 43L7 44L10 44L10 43L11 43L11 42L12 42L12 41L11 41L11 40L13 40L13 41L14 41L14 42L16 42L16 43L14 43L14 44L16 44L16 45L15 45L15 46L16 46L16 47L17 47L17 48L18 48L18 50L19 50L19 48L20 48L20 47L21 47L21 48L22 48L22 50L23 50L23 51L24 51L24 49L23 49L23 48L22 48L22 46L20 46L20 45L21 45L21 42L20 42L20 41L21 41L21 39L22 39L22 41L23 41L23 43L22 43L22 44L23 44L23 47L24 47L24 48L25 48L25 47L26 47L26 46L28 46L28 47L29 47L29 46L28 46L28 45L29 45L29 43L28 43L28 42L27 42L27 39L26 39L26 40L25 40L25 41L26 41L26 42L25 42L25 43L24 43L24 40L23 40L23 38L21 38L21 36L20 36L20 35L22 35L22 37L23 37L23 35L25 35L25 36L24 36L24 37L26 37L26 38L27 38L27 36L28 36L28 37L29 37L29 36L28 36L28 35L31 35L31 36L30 36L30 41L31 41L31 38L33 38L33 37L34 37L34 36L35 36L35 35L36 35L36 37L35 37L35 38L36 38L36 41L35 41L35 39L34 39L34 41L33 41L33 40L32 40L32 43L31 43L31 42L30 42L30 45L31 45L31 46L30 46L30 47L31 47L31 48L32 48L32 50L34 50L34 51L35 51L35 50L34 50L34 48L33 48L33 47L34 47L34 45L33 45L33 44L35 44L35 43L36 43L36 41L37 41L37 42L38 42L38 41L39 41L39 38L40 38L40 42L39 42L39 43L37 43L37 44L36 44L36 45L35 45L35 47L36 47L36 45L37 45L37 46L38 46L38 45L37 45L37 44L39 44L39 46L40 46L40 45L41 45L41 47L40 47L40 49L41 49L41 47L42 47L42 45L43 45L43 44L42 44L42 45L41 45L41 43L43 43L43 42L42 42L42 41L41 41L41 39L42 39L42 40L43 40L43 39L42 39L42 37L43 37L43 35L42 35L42 36L41 36L41 35L40 35L40 36L39 36L39 38L38 38L38 36L37 36L37 35L36 35L36 33L35 33L35 31L34 31L34 29L35 29L35 30L36 30L36 29L37 29L37 28L36 28L36 27L34 27L34 29L33 29L33 28L32 28L32 25L33 25L33 26L34 26L34 24L36 24L36 23L37 23L37 22L36 22L36 21L37 21L37 20L38 20L38 21L39 21L39 19L40 19L40 18L41 18L41 19L42 19L42 20L43 20L43 19L44 19L44 21L43 21L43 22L44 22L44 23L45 23L45 22L44 22L44 21L45 21L45 20L46 20L46 21L47 21L47 22L48 22L48 21L47 21L47 20L46 20L46 19L44 19L44 17L47 17L47 19L48 19L48 17L47 17L47 16L46 16L46 13L45 13L45 12L44 12L44 11L43 11L43 10L44 10L44 9L43 9L43 10L42 10L42 8L40 8L40 7L41 7L41 6L40 6L40 7L39 7L39 6L38 6L38 9L37 9L37 6ZM0 8L0 10L1 10L1 11L0 11L0 14L1 14L1 11L3 11L3 10L4 10L4 9L3 9L3 8ZM14 8L14 9L15 9L15 11L14 11L14 12L15 12L15 11L16 11L16 8ZM39 8L39 9L38 9L38 10L37 10L37 11L36 11L36 12L35 12L35 11L34 11L34 12L35 12L35 13L34 13L34 15L35 15L35 17L34 17L34 18L36 18L36 19L37 19L37 18L36 18L36 14L37 14L37 13L38 13L38 15L37 15L37 16L38 16L38 18L40 18L40 15L41 15L41 17L42 17L42 18L43 18L43 17L44 17L44 16L45 16L45 15L44 15L44 16L43 16L43 13L44 13L44 14L45 14L45 13L44 13L44 12L42 12L42 10L41 10L41 9L40 9L40 8ZM1 9L1 10L2 10L2 9ZM6 9L6 10L7 10L7 9ZM21 9L21 10L22 10L22 9ZM30 9L30 10L31 10L31 9ZM38 10L38 11L37 11L37 12L36 12L36 13L37 13L37 12L39 12L39 11L40 11L40 14L41 14L41 15L42 15L42 12L41 12L41 10ZM11 11L11 12L10 12L10 13L13 13L13 11ZM22 11L22 12L23 12L23 15L24 15L24 12L25 12L25 13L26 13L26 11L24 11L24 12L23 12L23 11ZM2 12L2 13L3 13L3 12ZM6 13L6 14L7 14L7 15L8 15L8 14L7 14L7 13ZM10 14L10 15L11 15L11 14ZM12 14L12 16L14 16L14 14ZM25 14L25 17L26 17L26 14ZM51 14L51 15L52 15L52 14ZM20 15L20 16L21 16L21 15ZM54 15L54 16L55 16L55 17L56 17L56 16L55 16L55 15ZM0 17L0 18L2 18L2 19L3 19L3 18L2 18L2 17ZM18 17L18 18L19 18L19 17ZM20 17L20 18L21 18L21 17ZM32 17L32 18L33 18L33 17ZM51 17L51 18L52 18L52 17ZM14 19L14 20L15 20L15 19ZM24 19L24 20L25 20L25 21L26 21L26 20L25 20L25 19ZM33 19L33 21L34 21L34 22L35 22L35 23L36 23L36 22L35 22L35 21L36 21L36 20L35 20L35 19ZM6 20L6 21L7 21L7 20ZM18 20L18 21L19 21L19 20ZM27 20L27 22L26 22L26 23L27 23L27 22L28 22L28 20ZM34 20L34 21L35 21L35 20ZM14 21L14 22L15 22L15 21ZM1 22L1 23L2 23L2 22ZM21 22L21 23L22 23L22 24L23 24L23 25L24 25L24 26L23 26L23 27L22 27L22 28L23 28L23 29L22 29L22 30L23 30L23 29L24 29L24 30L25 30L25 32L24 32L24 31L23 31L23 32L24 32L24 34L26 34L26 35L28 35L28 34L29 34L29 31L28 31L28 32L27 32L27 33L28 33L28 34L26 34L26 33L25 33L25 32L26 32L26 30L25 30L25 29L24 29L24 26L25 26L25 25L24 25L24 24L23 24L23 23L22 23L22 22ZM24 22L24 23L25 23L25 22ZM29 22L29 23L28 23L28 24L27 24L27 25L26 25L26 26L27 26L27 25L28 25L28 24L29 24L29 26L31 26L31 25L32 25L32 23L31 23L31 25L30 25L30 22ZM51 22L51 23L50 23L50 24L51 24L51 23L52 23L52 22ZM7 23L7 24L8 24L8 23ZM33 23L33 24L34 24L34 23ZM46 23L46 24L47 24L47 23ZM48 25L48 26L49 26L49 25ZM15 26L15 27L16 27L16 26ZM5 27L5 30L8 30L8 27ZM27 27L27 30L30 30L30 27ZM47 27L47 28L46 28L46 29L45 29L45 30L44 30L44 31L45 31L45 32L47 32L47 30L48 30L48 27ZM49 27L49 30L52 30L52 27ZM6 28L6 29L7 29L7 28ZM28 28L28 29L29 29L29 28ZM31 28L31 32L30 32L30 34L31 34L31 33L32 33L32 30L33 30L33 29L32 29L32 28ZM35 28L35 29L36 29L36 28ZM50 28L50 29L51 29L51 28ZM37 30L37 31L38 31L38 30ZM45 30L45 31L46 31L46 30ZM15 32L15 33L16 33L16 32ZM40 32L40 34L42 34L42 33L41 33L41 32ZM33 33L33 35L35 35L35 33ZM50 33L50 36L49 36L49 38L50 38L50 39L48 39L48 40L47 40L47 41L48 41L48 40L51 40L51 38L52 38L52 37L53 37L53 36L54 36L54 34L53 34L53 36L51 36L51 33ZM38 34L38 35L39 35L39 34ZM14 35L14 36L16 36L16 37L17 37L17 36L16 36L16 35ZM31 36L31 37L32 37L32 36ZM36 37L36 38L37 38L37 37ZM50 37L50 38L51 38L51 37ZM10 38L10 40L11 40L11 38ZM16 38L16 39L17 39L17 38ZM20 38L20 39L21 39L21 38ZM24 38L24 39L25 39L25 38ZM28 38L28 39L29 39L29 38ZM5 39L5 40L6 40L6 41L7 41L7 40L6 40L6 39ZM37 39L37 41L38 41L38 39ZM14 40L14 41L15 41L15 40ZM34 41L34 42L35 42L35 41ZM19 42L19 43L18 43L18 44L19 44L19 45L18 45L18 46L19 46L19 45L20 45L20 44L19 44L19 43L20 43L20 42ZM40 42L40 43L41 43L41 42ZM23 43L23 44L24 44L24 47L25 47L25 46L26 46L26 45L25 45L25 44L24 44L24 43ZM44 43L44 45L45 45L45 46L44 46L44 49L45 49L45 50L46 50L46 49L45 49L45 48L46 48L46 44L47 44L47 45L48 45L48 44L49 44L49 43L48 43L48 44L47 44L47 43ZM27 44L27 45L28 45L28 44ZM16 45L16 46L17 46L17 45ZM32 45L32 46L31 46L31 47L32 47L32 46L33 46L33 45ZM18 47L18 48L19 48L19 47ZM37 47L37 48L36 48L36 49L37 49L37 51L38 51L38 47ZM27 49L27 52L30 52L30 49ZM49 49L49 52L52 52L52 49ZM16 50L16 51L17 51L17 50ZM28 50L28 51L29 51L29 50ZM50 50L50 51L51 51L51 50ZM47 51L47 52L45 52L45 53L46 53L46 54L45 54L45 56L46 56L46 54L47 54L47 56L48 56L48 54L49 54L49 53L48 53L48 54L47 54L47 52L48 52L48 51ZM53 53L53 54L54 54L54 53ZM9 54L9 55L10 55L10 54ZM40 54L40 55L41 55L41 54ZM18 56L18 57L20 57L20 56ZM36 56L36 57L37 57L37 56ZM56 56L56 57L57 57L57 56ZM0 0L0 7L7 7L7 0ZM1 1L1 6L6 6L6 1ZM2 2L2 5L5 5L5 2ZM50 0L50 7L57 7L57 0ZM51 1L51 6L56 6L56 1ZM52 2L52 5L55 5L55 2ZM0 50L0 57L7 57L7 50ZM1 51L1 56L6 56L6 51ZM2 52L2 55L5 55L5 52Z" fill="#000000"/></g></g></svg>
