<?xml version="1.0" encoding="UTF-8"?>
<svg xmlns="http://www.w3.org/2000/svg" version="1.1" width="300" height="300" viewBox="0 0 300 300"><rect x="0" y="0" width="300" height="300" fill="#fefefe"/><g transform="scale(4.615)"><g transform="translate(4,4)"><path fill-rule="evenodd" d="M8 0L8 4L12 4L12 5L11 5L11 6L10 6L10 5L8 5L8 7L9 7L9 8L10 8L10 9L8 9L8 10L6 10L6 9L7 9L7 8L4 8L4 9L2 9L2 8L0 8L0 9L2 9L2 10L0 10L0 14L2 14L2 16L3 16L3 17L4 17L4 16L3 16L3 14L4 14L4 15L7 15L7 16L5 16L5 17L9 17L9 18L10 18L10 19L9 19L9 20L8 20L8 18L5 18L5 20L4 20L4 19L2 19L2 17L1 17L1 15L0 15L0 17L1 17L1 19L2 19L2 20L1 20L1 21L0 21L0 24L1 24L1 25L0 25L0 29L1 29L1 30L0 30L0 31L1 31L1 32L0 32L0 40L2 40L2 41L0 41L0 42L2 42L2 43L1 43L1 46L0 46L0 48L5 48L5 47L7 47L7 48L6 48L6 49L8 49L8 50L9 50L9 51L8 51L8 53L9 53L9 55L8 55L8 57L11 57L11 56L13 56L13 57L14 57L14 56L15 56L15 55L16 55L16 54L17 54L17 57L22 57L22 56L23 56L23 55L24 55L24 57L25 57L25 54L26 54L26 57L27 57L27 53L28 53L28 57L29 57L29 55L30 55L30 57L34 57L34 55L35 55L35 57L37 57L37 56L36 56L36 54L37 54L37 55L40 55L40 56L39 56L39 57L40 57L40 56L41 56L41 57L42 57L42 56L43 56L43 55L44 55L44 53L45 53L45 55L46 55L46 56L44 56L44 57L47 57L47 56L48 56L48 57L50 57L50 55L51 55L51 56L53 56L53 57L54 57L54 55L55 55L55 54L57 54L57 52L56 52L56 53L55 53L55 52L54 52L54 53L55 53L55 54L54 54L54 55L53 55L53 50L54 50L54 51L56 51L56 50L57 50L57 49L56 49L56 45L57 45L57 43L56 43L56 42L57 42L57 40L55 40L55 41L53 41L53 39L54 39L54 38L55 38L55 39L57 39L57 38L55 38L55 36L53 36L53 35L56 35L56 37L57 37L57 35L56 35L56 34L57 34L57 33L56 33L56 30L55 30L55 29L54 29L54 28L53 28L53 27L54 27L54 26L55 26L55 24L56 24L56 25L57 25L57 24L56 24L56 21L57 21L57 20L56 20L56 18L55 18L55 20L56 20L56 21L55 21L55 22L54 22L54 21L52 21L52 20L53 20L53 19L52 19L52 18L53 18L53 17L52 17L52 16L53 16L53 15L55 15L55 16L56 16L56 17L57 17L57 15L56 15L56 13L57 13L57 11L56 11L56 10L57 10L57 8L53 8L53 9L52 9L52 8L51 8L51 9L50 9L50 10L49 10L49 9L47 9L47 12L48 12L48 11L50 11L50 15L48 15L48 17L47 17L47 20L46 20L46 19L45 19L45 18L46 18L46 17L45 17L45 16L46 16L46 11L45 11L45 10L44 10L44 9L46 9L46 8L47 8L47 5L48 5L48 0L46 0L46 1L47 1L47 2L45 2L45 0L41 0L41 1L40 1L40 2L39 2L39 3L40 3L40 4L38 4L38 3L37 3L37 2L38 2L38 1L39 1L39 0L38 0L38 1L37 1L37 2L36 2L36 0L35 0L35 1L34 1L34 0L32 0L32 3L31 3L31 4L30 4L30 3L29 3L29 1L30 1L30 2L31 2L31 0L29 0L29 1L28 1L28 0L23 0L23 3L22 3L22 5L21 5L21 6L20 6L20 5L19 5L19 6L18 6L18 3L19 3L19 2L18 2L18 3L17 3L17 1L16 1L16 0L14 0L14 1L13 1L13 0L12 0L12 1L11 1L11 0ZM20 0L20 1L21 1L21 0ZM9 1L9 3L10 3L10 1ZM12 1L12 4L13 4L13 1ZM14 1L14 4L15 4L15 5L14 5L14 6L13 6L13 5L12 5L12 6L11 6L11 7L10 7L10 6L9 6L9 7L10 7L10 8L11 8L11 9L12 9L12 8L13 8L13 9L14 9L14 6L15 6L15 7L16 7L16 6L17 6L17 8L18 8L18 6L17 6L17 4L16 4L16 3L15 3L15 1ZM25 1L25 3L23 3L23 5L22 5L22 6L21 6L21 8L22 8L22 10L20 10L20 9L19 9L19 10L18 10L18 9L16 9L16 8L15 8L15 9L16 9L16 11L15 11L15 12L14 12L14 11L13 11L13 10L12 10L12 11L13 11L13 13L11 13L11 12L10 12L10 11L11 11L11 10L8 10L8 12L10 12L10 13L9 13L9 14L7 14L7 13L6 13L6 14L7 14L7 15L8 15L8 16L10 16L10 17L12 17L12 18L13 18L13 19L14 19L14 20L15 20L15 21L17 21L17 22L16 22L16 23L15 23L15 25L16 25L16 26L17 26L17 27L18 27L18 26L17 26L17 24L18 24L18 23L19 23L19 24L20 24L20 25L19 25L19 28L18 28L18 29L15 29L15 28L16 28L16 27L15 27L15 26L14 26L14 25L13 25L13 24L14 24L14 23L13 23L13 22L14 22L14 21L11 21L11 19L10 19L10 22L11 22L11 23L10 23L10 24L9 24L9 23L8 23L8 25L6 25L6 24L7 24L7 23L4 23L4 22L7 22L7 21L8 21L8 22L9 22L9 21L8 21L8 20L7 20L7 19L6 19L6 20L7 20L7 21L4 21L4 20L3 20L3 21L2 21L2 22L1 22L1 24L2 24L2 25L1 25L1 26L3 26L3 25L4 25L4 24L5 24L5 25L6 25L6 26L9 26L9 27L10 27L10 24L11 24L11 26L12 26L12 25L13 25L13 26L14 26L14 28L13 28L13 27L11 27L11 28L13 28L13 29L14 29L14 30L12 30L12 29L11 29L11 30L10 30L10 29L9 29L9 30L10 30L10 32L13 32L13 31L14 31L14 30L16 30L16 35L17 35L17 30L18 30L18 29L19 29L19 31L18 31L18 32L19 32L19 33L18 33L18 34L19 34L19 35L20 35L20 36L22 36L22 38L21 38L21 37L18 37L18 39L20 39L20 38L21 38L21 39L22 39L22 38L23 38L23 39L24 39L24 41L23 41L23 40L22 40L22 41L21 41L21 43L20 43L20 44L19 44L19 42L20 42L20 40L19 40L19 41L17 41L17 40L15 40L15 41L14 41L14 39L16 39L16 38L17 38L17 36L16 36L16 37L15 37L15 38L14 38L14 33L13 33L13 35L12 35L12 36L11 36L11 38L10 38L10 37L9 37L9 39L12 39L12 41L10 41L10 43L8 43L8 42L7 42L7 41L2 41L2 42L4 42L4 43L5 43L5 44L4 44L4 45L3 45L3 43L2 43L2 45L3 45L3 47L5 47L5 46L7 46L7 45L8 45L8 48L9 48L9 49L11 49L11 50L10 50L10 51L9 51L9 53L11 53L11 54L10 54L10 55L9 55L9 56L10 56L10 55L12 55L12 53L11 53L11 52L13 52L13 50L14 50L14 49L15 49L15 50L17 50L17 51L14 51L14 53L13 53L13 56L14 56L14 55L15 55L15 53L17 53L17 54L19 54L19 53L20 53L20 52L19 52L19 53L17 53L17 52L18 52L18 51L19 51L19 50L20 50L20 51L22 51L22 54L20 54L20 55L18 55L18 56L22 56L22 55L23 55L23 53L24 53L24 54L25 54L25 53L26 53L26 49L25 49L25 47L26 47L26 48L27 48L27 47L30 47L30 48L31 48L31 50L32 50L32 51L31 51L31 52L32 52L32 51L33 51L33 53L32 53L32 54L33 54L33 55L34 55L34 54L35 54L35 52L36 52L36 49L35 49L35 46L36 46L36 48L37 48L37 46L38 46L38 45L39 45L39 46L40 46L40 51L39 51L39 52L40 52L40 53L41 53L41 52L42 52L42 53L44 53L44 52L43 52L43 50L44 50L44 51L45 51L45 52L46 52L46 55L49 55L49 54L51 54L51 55L52 55L52 54L51 54L51 53L49 53L49 54L47 54L47 53L48 53L48 52L47 52L47 51L45 51L45 50L44 50L44 48L45 48L45 49L46 49L46 50L47 50L47 49L48 49L48 47L49 47L49 46L48 46L48 45L49 45L49 44L50 44L50 43L51 43L51 45L50 45L50 48L51 48L51 47L52 47L52 48L53 48L53 47L54 47L54 49L55 49L55 50L56 50L56 49L55 49L55 47L54 47L54 46L53 46L53 45L52 45L52 43L53 43L53 44L54 44L54 45L56 45L56 44L55 44L55 42L56 42L56 41L55 41L55 42L54 42L54 43L53 43L53 41L52 41L52 38L53 38L53 36L52 36L52 38L50 38L50 35L53 35L53 34L54 34L54 32L55 32L55 30L53 30L53 31L50 31L50 35L49 35L49 33L48 33L48 31L47 31L47 30L48 30L48 27L45 27L45 26L44 26L44 24L45 24L45 25L46 25L46 26L48 26L48 25L49 25L49 26L50 26L50 25L51 25L51 26L52 26L52 25L53 25L53 24L55 24L55 23L53 23L53 22L52 22L52 21L51 21L51 20L49 20L49 21L51 21L51 22L52 22L52 25L51 25L51 23L50 23L50 22L49 22L49 23L50 23L50 25L49 25L49 24L48 24L48 23L47 23L47 21L48 21L48 20L47 20L47 21L45 21L45 22L44 22L44 16L45 16L45 15L44 15L44 14L45 14L45 13L44 13L44 12L45 12L45 11L44 11L44 10L41 10L41 9L44 9L44 4L46 4L46 5L45 5L45 8L46 8L46 5L47 5L47 3L44 3L44 2L43 2L43 3L44 3L44 4L43 4L43 8L40 8L40 9L39 9L39 8L38 8L38 9L35 9L35 7L36 7L36 5L37 5L37 7L38 7L38 4L37 4L37 3L36 3L36 2L34 2L34 1L33 1L33 2L34 2L34 3L32 3L32 5L33 5L33 4L34 4L34 5L35 5L35 7L34 7L34 6L33 6L33 7L32 7L32 6L31 6L31 12L29 12L29 9L26 9L26 6L25 6L25 7L24 7L24 6L23 6L23 5L24 5L24 4L25 4L25 3L26 3L26 4L28 4L28 2L27 2L27 1ZM40 2L40 3L41 3L41 2ZM34 3L34 4L35 4L35 5L36 5L36 4L35 4L35 3ZM15 5L15 6L16 6L16 5ZM27 5L27 8L30 8L30 5ZM39 5L39 7L40 7L40 6L41 6L41 7L42 7L42 5ZM12 6L12 7L13 7L13 6ZM19 6L19 7L20 7L20 6ZM22 6L22 7L23 7L23 12L22 12L22 11L19 11L19 12L18 12L18 13L17 13L17 12L15 12L15 13L13 13L13 15L14 15L14 17L13 17L13 16L12 16L12 17L13 17L13 18L15 18L15 20L17 20L17 21L18 21L18 22L19 22L19 23L20 23L20 22L21 22L21 23L22 23L22 24L23 24L23 25L20 25L20 27L22 27L22 28L23 28L23 27L24 27L24 26L25 26L25 25L26 25L26 27L25 27L25 28L24 28L24 29L23 29L23 30L22 30L22 29L20 29L20 34L21 34L21 35L22 35L22 36L23 36L23 37L24 37L24 38L25 38L25 39L27 39L27 40L25 40L25 41L24 41L24 42L26 42L26 41L27 41L27 42L28 42L28 40L29 40L29 42L31 42L31 45L30 45L30 46L31 46L31 48L32 48L32 50L33 50L33 51L34 51L34 52L35 52L35 50L34 50L34 49L33 49L33 48L34 48L34 45L36 45L36 46L37 46L37 44L39 44L39 45L40 45L40 46L41 46L41 51L42 51L42 50L43 50L43 49L42 49L42 47L43 47L43 46L44 46L44 47L46 47L46 48L47 48L47 47L48 47L48 46L47 46L47 47L46 47L46 45L47 45L47 44L46 44L46 45L45 45L45 44L44 44L44 45L43 45L43 44L42 44L42 42L43 42L43 43L44 43L44 42L45 42L45 43L47 43L47 42L46 42L46 41L47 41L47 40L51 40L51 39L47 39L47 38L49 38L49 35L48 35L48 34L47 34L47 35L46 35L46 33L47 33L47 31L46 31L46 30L45 30L45 31L44 31L44 29L45 29L45 27L44 27L44 29L41 29L41 30L40 30L40 32L39 32L39 29L40 29L40 28L41 28L41 27L37 27L37 26L36 26L36 28L35 28L35 30L36 30L36 31L34 31L34 27L33 27L33 26L34 26L34 25L37 25L37 24L34 24L34 23L35 23L35 22L37 22L37 23L38 23L38 26L39 26L39 25L40 25L40 26L41 26L41 25L42 25L42 28L43 28L43 24L44 24L44 22L43 22L43 20L42 20L42 21L40 21L40 18L41 18L41 19L42 19L42 18L43 18L43 17L42 17L42 15L43 15L43 16L44 16L44 15L43 15L43 13L41 13L41 17L40 17L40 13L38 13L38 15L39 15L39 17L38 17L38 16L37 16L37 14L35 14L35 17L38 17L38 18L39 18L39 19L38 19L38 20L37 20L37 18L34 18L34 13L33 13L33 12L32 12L32 13L30 13L30 15L33 15L33 16L32 16L32 17L33 17L33 18L34 18L34 20L33 20L33 19L32 19L32 18L31 18L31 16L29 16L29 13L26 13L26 11L27 11L27 12L28 12L28 10L25 10L25 8L24 8L24 7L23 7L23 6ZM28 6L28 7L29 7L29 6ZM48 6L48 7L49 7L49 6ZM33 7L33 8L32 8L32 11L33 11L33 10L34 10L34 12L35 12L35 13L37 13L37 12L39 12L39 9L38 9L38 10L37 10L37 12L36 12L36 10L34 10L34 9L33 9L33 8L34 8L34 7ZM51 9L51 10L50 10L50 11L51 11L51 10L52 10L52 9ZM53 9L53 10L54 10L54 11L52 11L52 12L51 12L51 14L52 14L52 15L53 15L53 14L52 14L52 13L53 13L53 12L54 12L54 13L55 13L55 9ZM3 10L3 12L1 12L1 13L5 13L5 12L4 12L4 10ZM5 10L5 11L6 11L6 12L7 12L7 11L6 11L6 10ZM17 10L17 11L18 11L18 10ZM41 11L41 12L44 12L44 11ZM24 12L24 13L21 13L21 14L20 14L20 13L19 13L19 15L18 15L18 14L17 14L17 13L15 13L15 14L17 14L17 17L15 17L15 18L16 18L16 19L17 19L17 17L18 17L18 19L19 19L19 18L20 18L20 16L21 16L21 17L25 17L25 18L24 18L24 19L23 19L23 18L22 18L22 19L23 19L23 20L22 20L22 21L21 21L21 22L22 22L22 23L23 23L23 24L24 24L24 23L23 23L23 22L22 22L22 21L24 21L24 22L25 22L25 23L26 23L26 22L27 22L27 23L28 23L28 25L27 25L27 26L28 26L28 25L29 25L29 23L30 23L30 25L31 25L31 31L32 31L32 32L30 32L30 31L29 31L29 33L28 33L28 34L27 34L27 36L25 36L25 34L24 34L24 36L25 36L25 37L27 37L27 39L28 39L28 38L29 38L29 39L31 39L31 41L32 41L32 43L33 43L33 44L35 44L35 43L33 43L33 41L32 41L32 40L33 40L33 39L34 39L34 42L35 42L35 39L37 39L37 42L38 42L38 39L40 39L40 38L38 38L38 37L37 37L37 38L35 38L35 37L34 37L34 36L35 36L35 35L34 35L34 34L35 34L35 32L34 32L34 31L33 31L33 29L32 29L32 28L33 28L33 27L32 27L32 23L33 23L33 22L31 22L31 23L30 23L30 22L29 22L29 23L28 23L28 22L27 22L27 21L24 21L24 20L25 20L25 18L26 18L26 20L27 20L27 19L30 19L30 18L28 18L28 17L27 17L27 18L26 18L26 16L27 16L27 15L28 15L28 14L26 14L26 13L25 13L25 12ZM10 13L10 14L9 14L9 15L10 15L10 14L11 14L11 15L12 15L12 14L11 14L11 13ZM24 13L24 14L23 14L23 15L22 15L22 14L21 14L21 15L22 15L22 16L23 16L23 15L24 15L24 16L26 16L26 14L25 14L25 13ZM32 13L32 14L33 14L33 13ZM47 13L47 14L49 14L49 13ZM50 15L50 16L49 16L49 18L50 18L50 19L51 19L51 18L52 18L52 17L51 17L51 15ZM18 16L18 17L19 17L19 16ZM39 17L39 18L40 18L40 17ZM50 17L50 18L51 18L51 17ZM20 19L20 20L19 20L19 21L20 21L20 20L21 20L21 19ZM35 19L35 20L36 20L36 19ZM28 20L28 21L32 21L32 20ZM38 20L38 21L37 21L37 22L38 22L38 23L40 23L40 25L41 25L41 22L40 22L40 21L39 21L39 20ZM34 21L34 22L35 22L35 21ZM38 21L38 22L39 22L39 21ZM11 23L11 24L12 24L12 23ZM42 23L42 24L43 24L43 23ZM46 23L46 24L47 24L47 25L48 25L48 24L47 24L47 23ZM33 24L33 25L34 25L34 24ZM1 27L1 29L2 29L2 30L1 30L1 31L2 31L2 32L1 32L1 33L2 33L2 34L4 34L4 33L3 33L3 32L5 32L5 31L4 31L4 30L3 30L3 29L4 29L4 28L2 28L2 27ZM5 27L5 30L8 30L8 27ZM27 27L27 30L30 30L30 27ZM49 27L49 30L52 30L52 27ZM55 27L55 28L56 28L56 29L57 29L57 28L56 28L56 27ZM6 28L6 29L7 29L7 28ZM28 28L28 29L29 29L29 28ZM37 28L37 29L38 29L38 28ZM46 28L46 29L47 29L47 28ZM50 28L50 29L51 29L51 28ZM25 29L25 30L23 30L23 31L22 31L22 30L21 30L21 31L22 31L22 33L21 33L21 34L22 34L22 35L23 35L23 33L27 33L27 32L26 32L26 31L25 31L25 30L26 30L26 29ZM37 30L37 32L38 32L38 30ZM6 31L6 32L7 32L7 33L6 33L6 34L5 34L5 35L4 35L4 36L5 36L5 37L4 37L4 38L5 38L5 39L3 39L3 38L2 38L2 37L1 37L1 38L2 38L2 40L8 40L8 41L9 41L9 40L8 40L8 37L6 37L6 36L9 36L9 34L11 34L11 33L8 33L8 32L9 32L9 31ZM23 31L23 32L24 32L24 31ZM32 32L32 33L29 33L29 34L28 34L28 36L27 36L27 37L28 37L28 36L29 36L29 37L31 37L31 36L32 36L32 37L33 37L33 38L31 38L31 39L33 39L33 38L34 38L34 39L35 39L35 38L34 38L34 37L33 37L33 35L32 35L32 33L33 33L33 34L34 34L34 33L33 33L33 32ZM40 32L40 33L39 33L39 34L38 34L38 33L37 33L37 34L38 34L38 36L39 36L39 37L41 37L41 35L42 35L42 37L44 37L44 38L43 38L43 39L42 39L42 38L41 38L41 39L42 39L42 41L43 41L43 42L44 42L44 41L43 41L43 39L45 39L45 41L46 41L46 40L47 40L47 39L45 39L45 37L44 37L44 35L45 35L45 34L44 34L44 33L43 33L43 34L44 34L44 35L42 35L42 34L40 34L40 33L41 33L41 32ZM45 32L45 33L46 33L46 32ZM51 32L51 33L53 33L53 32ZM7 33L7 34L6 34L6 35L8 35L8 33ZM30 34L30 36L31 36L31 34ZM2 35L2 36L3 36L3 35ZM39 35L39 36L40 36L40 35ZM47 35L47 37L46 37L46 38L47 38L47 37L48 37L48 35ZM12 37L12 39L14 39L14 38L13 38L13 37ZM6 38L6 39L7 39L7 38ZM40 40L40 41L41 41L41 40ZM13 41L13 42L12 42L12 43L13 43L13 45L12 45L12 44L11 44L11 46L10 46L10 44L8 44L8 45L9 45L9 47L12 47L12 48L11 48L11 49L12 49L12 50L11 50L11 51L12 51L12 50L13 50L13 49L14 49L14 48L15 48L15 49L18 49L18 50L19 50L19 49L20 49L20 50L21 50L21 49L22 49L22 51L23 51L23 52L24 52L24 53L25 53L25 49L24 49L24 48L23 48L23 47L25 47L25 46L26 46L26 47L27 47L27 46L26 46L26 45L29 45L29 44L27 44L27 43L23 43L23 44L22 44L22 43L21 43L21 44L20 44L20 47L19 47L19 44L18 44L18 45L17 45L17 44L15 44L15 46L14 46L14 43L13 43L13 42L14 42L14 41ZM15 41L15 42L16 42L16 43L18 43L18 42L16 42L16 41ZM48 41L48 42L49 42L49 43L48 43L48 44L49 44L49 43L50 43L50 42L49 42L49 41ZM51 41L51 43L52 43L52 41ZM5 42L5 43L7 43L7 42ZM39 42L39 43L40 43L40 42ZM36 43L36 44L37 44L37 43ZM5 44L5 45L4 45L4 46L5 46L5 45L7 45L7 44ZM40 44L40 45L41 45L41 44ZM16 45L16 46L17 46L17 45ZM21 45L21 46L22 46L22 47L20 47L20 49L21 49L21 48L22 48L22 49L23 49L23 48L22 48L22 47L23 47L23 45ZM31 45L31 46L32 46L32 47L33 47L33 46L32 46L32 45ZM44 45L44 46L45 46L45 45ZM51 45L51 46L52 46L52 47L53 47L53 46L52 46L52 45ZM1 46L1 47L2 47L2 46ZM12 46L12 47L13 47L13 46ZM15 47L15 48L16 48L16 47ZM38 47L38 49L37 49L37 53L38 53L38 49L39 49L39 47ZM27 49L27 52L30 52L30 49ZM49 49L49 52L52 52L52 49ZM28 50L28 51L29 51L29 50ZM50 50L50 51L51 51L51 50ZM30 53L30 54L31 54L31 53ZM33 53L33 54L34 54L34 53ZM40 54L40 55L41 55L41 56L42 56L42 55L43 55L43 54ZM56 56L56 57L57 57L57 56ZM0 0L0 7L7 7L7 0ZM1 1L1 6L6 6L6 1ZM2 2L2 5L5 5L5 2ZM50 0L50 7L57 7L57 0ZM51 1L51 6L56 6L56 1ZM52 2L52 5L55 5L55 2ZM0 50L0 57L7 57L7 50ZM1 51L1 56L6 56L6 51ZM2 52L2 55L5 55L5 52Z" fill="#000000"/></g></g></svg>
