<?xml version="1.0" encoding="UTF-8"?>
<svg xmlns="http://www.w3.org/2000/svg" version="1.1" width="300" height="300" viewBox="0 0 300 300"><rect x="0" y="0" width="300" height="300" fill="#fefefe"/><g transform="scale(4.615)"><g transform="translate(4,4)"><path fill-rule="evenodd" d="M8 0L8 1L10 1L10 2L8 2L8 5L9 5L9 6L8 6L8 7L9 7L9 8L8 8L8 9L7 9L7 8L6 8L6 9L7 9L7 10L4 10L4 8L0 8L0 11L1 11L1 12L0 12L0 17L2 17L2 18L1 18L1 19L0 19L0 21L1 21L1 24L2 24L2 23L3 23L3 22L5 22L5 23L4 23L4 25L1 25L1 26L0 26L0 28L2 28L2 29L1 29L1 30L3 30L3 31L4 31L4 32L2 32L2 31L1 31L1 32L0 32L0 33L1 33L1 35L0 35L0 36L1 36L1 37L0 37L0 39L1 39L1 40L0 40L0 41L1 41L1 40L2 40L2 39L1 39L1 37L2 37L2 38L3 38L3 40L4 40L4 38L5 38L5 37L2 37L2 35L3 35L3 34L2 34L2 33L4 33L4 32L5 32L5 31L7 31L7 32L6 32L6 33L7 33L7 32L8 32L8 31L9 31L9 32L10 32L10 33L9 33L9 35L10 35L10 36L9 36L9 38L11 38L11 37L10 37L10 36L11 36L11 33L12 33L12 37L13 37L13 38L12 38L12 39L9 39L9 41L7 41L7 40L6 40L6 39L8 39L8 38L6 38L6 39L5 39L5 40L6 40L6 41L5 41L5 42L6 42L6 43L5 43L5 44L4 44L4 43L3 43L3 44L4 44L4 45L3 45L3 46L2 46L2 42L0 42L0 43L1 43L1 46L0 46L0 48L5 48L5 47L7 47L7 48L6 48L6 49L8 49L8 50L9 50L9 51L10 51L10 52L11 52L11 54L14 54L14 56L13 56L13 57L14 57L14 56L16 56L16 57L18 57L18 55L17 55L17 54L18 54L18 53L17 53L17 54L16 54L16 53L15 53L15 50L16 50L16 49L15 49L15 48L14 48L14 47L12 47L12 45L13 45L13 46L15 46L15 47L16 47L16 48L17 48L17 49L19 49L19 50L17 50L17 51L19 51L19 55L20 55L20 56L19 56L19 57L20 57L20 56L21 56L21 57L24 57L24 56L25 56L25 55L24 55L24 56L23 56L23 54L26 54L26 55L27 55L27 56L28 56L28 55L27 55L27 54L26 54L26 53L29 53L29 54L31 54L31 55L30 55L30 56L31 56L31 57L32 57L32 55L33 55L33 54L36 54L36 55L34 55L34 56L33 56L33 57L36 57L36 55L38 55L38 57L43 57L43 55L44 55L44 56L46 56L46 57L51 57L51 54L52 54L52 53L54 53L54 54L56 54L56 53L57 53L57 51L56 51L56 53L54 53L54 52L55 52L55 50L53 50L53 48L54 48L54 49L55 49L55 48L54 48L54 47L53 47L53 48L49 48L49 47L52 47L52 43L53 43L53 42L54 42L54 43L56 43L56 41L57 41L57 40L56 40L56 41L55 41L55 42L54 42L54 41L53 41L53 40L55 40L55 38L56 38L56 39L57 39L57 38L56 38L56 37L57 37L57 34L55 34L55 33L57 33L57 31L56 31L56 30L57 30L57 28L56 28L56 27L53 27L53 26L52 26L52 25L51 25L51 24L53 24L53 25L54 25L54 23L53 23L53 22L54 22L54 21L56 21L56 22L55 22L55 23L57 23L57 20L54 20L54 21L53 21L53 20L50 20L50 19L47 19L47 20L45 20L45 22L44 22L44 21L41 21L41 18L42 18L42 19L43 19L43 18L42 18L42 17L45 17L45 18L44 18L44 19L45 19L45 18L48 18L48 14L47 14L47 15L45 15L45 14L46 14L46 13L45 13L45 14L44 14L44 9L43 9L43 8L44 8L44 7L45 7L45 6L46 6L46 8L45 8L45 9L47 9L47 10L45 10L45 11L47 11L47 10L48 10L48 11L49 11L49 17L51 17L51 19L56 19L56 18L55 18L55 17L57 17L57 15L55 15L55 14L54 14L54 10L52 10L52 11L53 11L53 13L52 13L52 12L51 12L51 10L50 10L50 8L49 8L49 6L48 6L48 8L47 8L47 5L48 5L48 0L45 0L45 1L44 1L44 2L41 2L41 1L43 1L43 0L41 0L41 1L40 1L40 0L39 0L39 1L40 1L40 2L41 2L41 4L38 4L38 3L37 3L37 1L38 1L38 0L37 0L37 1L36 1L36 0L35 0L35 1L34 1L34 2L31 2L31 0L28 0L28 2L29 2L29 4L26 4L26 0L23 0L23 1L22 1L22 0L21 0L21 1L22 1L22 2L21 2L21 3L22 3L22 2L23 2L23 1L25 1L25 2L24 2L24 3L23 3L23 4L22 4L22 5L20 5L20 4L19 4L19 2L18 2L18 1L20 1L20 0L17 0L17 1L16 1L16 3L17 3L17 2L18 2L18 5L15 5L15 4L14 4L14 3L13 3L13 2L12 2L12 1L14 1L14 0L12 0L12 1L10 1L10 0ZM32 0L32 1L33 1L33 0ZM35 1L35 2L34 2L34 3L32 3L32 4L31 4L31 2L30 2L30 4L31 4L31 5L32 5L32 6L31 6L31 9L32 9L32 10L30 10L30 11L28 11L28 10L29 10L29 9L27 9L27 10L26 10L26 11L25 11L25 12L23 12L23 11L21 11L21 14L19 14L19 13L20 13L20 12L19 12L19 11L20 11L20 10L23 10L23 9L24 9L24 8L25 8L25 9L26 9L26 6L25 6L25 5L26 5L26 4L24 4L24 6L23 6L23 5L22 5L22 6L21 6L21 7L20 7L20 6L19 6L19 7L20 7L20 10L18 10L18 12L17 12L17 7L18 7L18 6L17 6L17 7L16 7L16 6L15 6L15 5L14 5L14 4L13 4L13 3L12 3L12 2L11 2L11 3L9 3L9 4L12 4L12 6L11 6L11 8L9 8L9 9L11 9L11 8L13 8L13 9L12 9L12 10L10 10L10 11L9 11L9 12L8 12L8 10L7 10L7 11L6 11L6 12L8 12L8 13L9 13L9 14L7 14L7 13L5 13L5 14L7 14L7 15L6 15L6 16L5 16L5 15L4 15L4 16L5 16L5 17L4 17L4 18L3 18L3 19L4 19L4 21L5 21L5 19L6 19L6 20L7 20L7 21L6 21L6 22L7 22L7 23L6 23L6 24L5 24L5 25L4 25L4 26L3 26L3 27L4 27L4 26L8 26L8 25L10 25L10 26L11 26L11 27L10 27L10 28L11 28L11 29L10 29L10 30L11 30L11 32L12 32L12 33L13 33L13 34L14 34L14 35L13 35L13 37L15 37L15 38L17 38L17 39L16 39L16 40L15 40L15 39L12 39L12 40L11 40L11 41L10 41L10 42L11 42L11 43L9 43L9 42L8 42L8 45L6 45L6 44L7 44L7 43L6 43L6 44L5 44L5 45L4 45L4 46L3 46L3 47L5 47L5 45L6 45L6 46L8 46L8 48L9 48L9 47L10 47L10 51L11 51L11 52L12 52L12 53L14 53L14 54L15 54L15 53L14 53L14 52L12 52L12 51L11 51L11 48L12 48L12 47L11 47L11 45L10 45L10 46L9 46L9 44L11 44L11 43L12 43L12 44L13 44L13 43L17 43L17 45L15 45L15 46L16 46L16 47L17 47L17 45L20 45L20 46L21 46L21 47L19 47L19 46L18 46L18 48L19 48L19 49L20 49L20 48L21 48L21 52L22 52L22 53L20 53L20 55L21 55L21 56L22 56L22 55L21 55L21 54L22 54L22 53L23 53L23 52L24 52L24 53L25 53L25 52L26 52L26 51L24 51L24 50L26 50L26 48L27 48L27 46L28 46L28 48L31 48L31 53L32 53L32 50L33 50L33 51L34 51L34 50L35 50L35 48L37 48L37 49L36 49L36 50L37 50L37 49L38 49L38 48L39 48L39 49L40 49L40 50L39 50L39 52L40 52L40 54L41 54L41 55L39 55L39 56L42 56L42 54L43 54L43 51L45 51L45 52L46 52L46 53L47 53L47 54L46 54L46 56L49 56L49 55L47 55L47 54L50 54L50 53L47 53L47 52L48 52L48 48L47 48L47 49L46 49L46 50L45 50L45 48L46 48L46 46L47 46L47 45L49 45L49 46L48 46L48 47L49 47L49 46L50 46L50 45L49 45L49 44L51 44L51 42L50 42L50 41L52 41L52 39L51 39L51 37L52 37L52 38L53 38L53 39L54 39L54 38L53 38L53 36L52 36L52 35L51 35L51 37L49 37L49 36L47 36L47 37L46 37L46 35L47 35L47 34L48 34L48 35L49 35L49 34L50 34L50 33L49 33L49 32L48 32L48 28L47 28L47 32L46 32L46 31L45 31L45 30L46 30L46 27L45 27L45 26L43 26L43 22L41 22L41 23L38 23L38 22L39 22L39 21L38 21L38 22L35 22L35 21L34 21L34 20L36 20L36 21L37 21L37 20L40 20L40 19L39 19L39 18L41 18L41 17L42 17L42 14L43 14L43 12L42 12L42 11L40 11L40 10L41 10L41 9L42 9L42 8L41 8L41 7L42 7L42 6L43 6L43 7L44 7L44 6L45 6L45 5L47 5L47 3L46 3L46 2L47 2L47 1L46 1L46 2L45 2L45 3L44 3L44 4L45 4L45 5L43 5L43 4L41 4L41 7L40 7L40 5L36 5L36 4L35 4L35 2L36 2L36 1ZM27 5L27 8L30 8L30 5ZM33 5L33 6L32 6L32 8L33 8L33 6L34 6L34 9L36 9L36 8L37 8L37 10L38 10L38 12L35 12L35 11L36 11L36 10L35 10L35 11L34 11L34 10L33 10L33 14L32 14L32 11L30 11L30 12L31 12L31 14L30 14L30 13L28 13L28 12L26 12L26 14L27 14L27 17L25 17L25 16L26 16L26 15L25 15L25 14L24 14L24 15L23 15L23 18L22 18L22 17L21 17L21 16L19 16L19 15L18 15L18 14L16 14L16 15L15 15L15 11L16 11L16 8L15 8L15 6L14 6L14 8L15 8L15 11L14 11L14 10L13 10L13 11L11 11L11 12L9 12L9 13L11 13L11 14L10 14L10 15L9 15L9 16L8 16L8 15L7 15L7 16L6 16L6 17L5 17L5 18L6 18L6 19L9 19L9 20L8 20L8 24L6 24L6 25L8 25L8 24L9 24L9 23L10 23L10 22L11 22L11 23L13 23L13 25L12 25L12 24L11 24L11 26L12 26L12 28L13 28L13 29L11 29L11 30L13 30L13 29L14 29L14 31L15 31L15 32L13 32L13 31L12 31L12 32L13 32L13 33L14 33L14 34L15 34L15 36L17 36L17 38L18 38L18 39L17 39L17 40L16 40L16 41L14 41L14 42L18 42L18 43L19 43L19 44L20 44L20 45L21 45L21 46L22 46L22 47L21 47L21 48L23 48L23 49L22 49L22 52L23 52L23 49L24 49L24 48L26 48L26 47L25 47L25 45L26 45L26 46L27 46L27 45L26 45L26 43L25 43L25 42L27 42L27 44L30 44L30 46L32 46L32 42L33 42L33 45L34 45L34 44L35 44L35 45L36 45L36 46L34 46L34 47L38 47L38 45L41 45L41 46L39 46L39 47L43 47L43 49L44 49L44 47L45 47L45 45L42 45L42 43L44 43L44 44L49 44L49 43L50 43L50 42L49 42L49 43L48 43L48 42L47 42L47 41L50 41L50 40L51 40L51 39L50 39L50 40L47 40L47 39L48 39L48 38L49 38L49 37L47 37L47 38L46 38L46 37L45 37L45 38L46 38L46 39L44 39L44 38L41 38L41 37L44 37L44 36L45 36L45 35L46 35L46 34L44 34L44 30L45 30L45 27L44 27L44 28L42 28L42 27L43 27L43 26L41 26L41 25L42 25L42 23L41 23L41 25L40 25L40 27L38 27L38 26L39 26L39 24L38 24L38 23L37 23L37 24L36 24L36 23L35 23L35 24L33 24L33 23L34 23L34 22L32 22L32 23L31 23L31 21L29 21L29 19L30 19L30 17L29 17L29 16L31 16L31 17L33 17L33 18L31 18L31 20L32 20L32 19L35 19L35 17L34 17L34 16L35 16L35 15L36 15L36 13L37 13L37 15L39 15L39 17L40 17L40 16L41 16L41 13L40 13L40 11L39 11L39 10L38 10L38 9L41 9L41 8L38 8L38 7L39 7L39 6L38 6L38 7L37 7L37 6L36 6L36 7L35 7L35 6L34 6L34 5ZM9 6L9 7L10 7L10 6ZM12 6L12 7L13 7L13 6ZM22 6L22 7L21 7L21 9L23 9L23 8L24 8L24 7L25 7L25 6L24 6L24 7L23 7L23 6ZM28 6L28 7L29 7L29 6ZM22 7L22 8L23 8L23 7ZM18 8L18 9L19 9L19 8ZM48 8L48 9L49 9L49 8ZM52 8L52 9L55 9L55 8ZM56 8L56 9L57 9L57 8ZM2 10L2 12L1 12L1 14L2 14L2 12L3 12L3 13L4 13L4 12L5 12L5 11L4 11L4 12L3 12L3 10ZM55 10L55 11L57 11L57 10ZM11 12L11 13L12 13L12 14L11 14L11 15L10 15L10 16L9 16L9 19L10 19L10 18L11 18L11 17L13 17L13 18L12 18L12 19L11 19L11 20L12 20L12 19L15 19L15 18L14 18L14 17L13 17L13 15L14 15L14 16L15 16L15 15L14 15L14 13L12 13L12 12ZM16 12L16 13L17 13L17 12ZM18 12L18 13L19 13L19 12ZM22 12L22 13L23 13L23 12ZM34 12L34 14L33 14L33 15L35 15L35 12ZM50 12L50 13L51 13L51 15L53 15L53 14L52 14L52 13L51 13L51 12ZM56 12L56 13L57 13L57 12ZM12 14L12 15L11 15L11 16L12 16L12 15L13 15L13 14ZM31 14L31 15L32 15L32 14ZM16 15L16 17L17 17L17 15ZM24 15L24 16L25 16L25 15ZM28 15L28 16L29 16L29 15ZM44 15L44 16L45 16L45 17L46 17L46 16L45 16L45 15ZM2 16L2 17L3 17L3 16ZM7 16L7 17L6 17L6 18L7 18L7 17L8 17L8 16ZM18 16L18 17L19 17L19 18L21 18L21 17L19 17L19 16ZM52 16L52 17L53 17L53 18L54 18L54 17L55 17L55 16ZM24 17L24 18L23 18L23 21L24 21L24 22L25 22L25 25L24 25L24 24L23 24L23 23L22 23L22 20L20 20L20 19L19 19L19 20L18 20L18 22L17 22L17 23L16 23L16 20L17 20L17 19L18 19L18 18L17 18L17 19L16 19L16 20L14 20L14 22L15 22L15 23L14 23L14 24L15 24L15 23L16 23L16 26L19 26L19 25L20 25L20 24L21 24L21 27L17 27L17 30L16 30L16 29L15 29L15 28L16 28L16 27L15 27L15 25L14 25L14 26L13 26L13 28L14 28L14 29L15 29L15 30L16 30L16 32L17 32L17 33L15 33L15 34L17 34L17 33L18 33L18 34L19 34L19 35L17 35L17 36L19 36L19 37L20 37L20 38L21 38L21 40L22 40L22 41L24 41L24 42L25 42L25 41L26 41L26 38L29 38L29 36L32 36L32 38L30 38L30 39L28 39L28 41L29 41L29 40L33 40L33 39L35 39L35 40L34 40L34 41L36 41L36 42L34 42L34 43L36 43L36 45L38 45L38 44L40 44L40 43L42 43L42 42L44 42L44 43L47 43L47 42L45 42L45 41L46 41L46 40L45 40L45 41L44 41L44 40L43 40L43 41L42 41L42 40L41 40L41 39L39 39L39 38L38 38L38 39L37 39L37 37L35 37L35 36L36 36L36 35L35 35L35 33L33 33L33 32L32 32L32 31L33 31L33 29L31 29L31 34L30 34L30 35L29 35L29 33L30 33L30 32L28 32L28 31L25 31L25 30L26 30L26 28L25 28L25 27L24 27L24 26L25 26L25 25L27 25L27 24L26 24L26 23L27 23L27 22L25 22L25 21L27 21L27 20L28 20L28 18L29 18L29 17L27 17L27 18L25 18L25 17ZM36 17L36 18L37 18L37 17ZM24 18L24 19L25 19L25 20L27 20L27 19L25 19L25 18ZM1 19L1 21L2 21L2 22L3 22L3 21L2 21L2 19ZM36 19L36 20L37 20L37 19ZM47 20L47 21L46 21L46 22L47 22L47 23L44 23L44 25L45 25L45 24L46 24L46 26L47 26L47 27L48 27L48 26L49 26L49 25L50 25L50 24L51 24L51 23L52 23L52 22L51 22L51 21L50 21L50 20L49 20L49 22L47 22L47 21L48 21L48 20ZM9 21L9 22L10 22L10 21ZM11 21L11 22L12 22L12 21ZM28 21L28 26L31 26L31 24L29 24L29 21ZM19 22L19 24L17 24L17 25L19 25L19 24L20 24L20 23L21 23L21 22ZM47 23L47 26L48 26L48 24L49 24L49 23ZM32 24L32 25L33 25L33 24ZM55 24L55 26L56 26L56 24ZM22 25L22 27L23 27L23 25ZM34 25L34 27L35 27L35 28L34 28L34 29L37 29L37 28L36 28L36 27L35 27L35 25ZM1 26L1 27L2 27L2 26ZM5 27L5 30L8 30L8 27ZM14 27L14 28L15 28L15 27ZM27 27L27 30L30 30L30 27ZM31 27L31 28L33 28L33 27ZM49 27L49 30L52 30L52 27ZM6 28L6 29L7 29L7 28ZM18 28L18 29L19 29L19 30L18 30L18 31L17 31L17 32L18 32L18 31L19 31L19 34L20 34L20 35L19 35L19 36L23 36L23 37L22 37L22 38L23 38L23 39L24 39L24 41L25 41L25 39L24 39L24 37L25 37L25 36L23 36L23 35L24 35L24 34L25 34L25 35L26 35L26 36L29 36L29 35L28 35L28 34L25 34L25 31L24 31L24 28L23 28L23 29L21 29L21 30L20 30L20 28ZM28 28L28 29L29 29L29 28ZM40 28L40 29L38 29L38 30L36 30L36 31L37 31L37 32L36 32L36 33L37 33L37 32L38 32L38 34L39 34L39 31L38 31L38 30L41 30L41 31L40 31L40 32L41 32L41 31L43 31L43 29L42 29L42 30L41 30L41 28ZM50 28L50 29L51 29L51 28ZM53 28L53 29L54 29L54 30L53 30L53 31L52 31L52 34L54 34L54 32L55 32L55 31L54 31L54 30L56 30L56 29L54 29L54 28ZM21 30L21 32L20 32L20 34L21 34L21 32L22 32L22 31L23 31L23 33L22 33L22 35L23 35L23 33L24 33L24 31L23 31L23 30ZM34 31L34 32L35 32L35 31ZM1 32L1 33L2 33L2 32ZM27 32L27 33L28 33L28 32ZM42 32L42 33L43 33L43 32ZM6 34L6 35L7 35L7 36L6 36L6 37L8 37L8 34ZM32 34L32 36L33 36L33 35L34 35L34 34ZM41 34L41 35L37 35L37 36L40 36L40 37L41 37L41 36L42 36L42 34ZM4 35L4 36L5 36L5 35ZM54 35L54 36L55 36L55 37L56 37L56 36L55 36L55 35ZM33 37L33 38L32 38L32 39L33 39L33 38L34 38L34 37ZM35 38L35 39L36 39L36 38ZM38 39L38 40L37 40L37 41L39 41L39 42L37 42L37 44L38 44L38 43L39 43L39 42L40 42L40 40L39 40L39 39ZM17 40L17 41L19 41L19 43L21 43L21 44L22 44L22 46L23 46L23 45L24 45L24 44L22 44L22 42L21 42L21 41L19 41L19 40ZM6 41L6 42L7 42L7 41ZM11 41L11 42L12 42L12 43L13 43L13 41ZM41 41L41 42L42 42L42 41ZM30 43L30 44L31 44L31 43ZM53 44L53 46L54 46L54 45L56 45L56 46L55 46L55 47L57 47L57 44ZM1 46L1 47L2 47L2 46ZM23 47L23 48L24 48L24 47ZM32 47L32 48L33 48L33 50L34 50L34 48L33 48L33 47ZM13 48L13 49L12 49L12 50L15 50L15 49L14 49L14 48ZM41 48L41 49L42 49L42 48ZM56 48L56 49L57 49L57 48ZM27 49L27 52L30 52L30 49ZM49 49L49 52L52 52L52 49ZM28 50L28 51L29 51L29 50ZM46 50L46 52L47 52L47 50ZM50 50L50 51L51 51L51 50ZM36 51L36 52L35 52L35 53L36 53L36 54L39 54L39 53L37 53L37 51ZM40 51L40 52L41 52L41 51ZM33 52L33 53L34 53L34 52ZM8 53L8 57L9 57L9 55L10 55L10 56L11 56L11 57L12 57L12 55L10 55L10 53ZM41 53L41 54L42 54L42 53ZM44 54L44 55L45 55L45 54ZM56 55L56 56L57 56L57 55ZM52 56L52 57L53 57L53 56ZM54 56L54 57L55 57L55 56ZM0 0L0 7L7 7L7 0ZM1 1L1 6L6 6L6 1ZM2 2L2 5L5 5L5 2ZM50 0L50 7L57 7L57 0ZM51 1L51 6L56 6L56 1ZM52 2L52 5L55 5L55 2ZM0 50L0 57L7 57L7 50ZM1 51L1 56L6 56L6 51ZM2 52L2 55L5 55L5 52Z" fill="#000000"/></g></g></svg>
