<?xml version="1.0" encoding="UTF-8"?>
<svg xmlns="http://www.w3.org/2000/svg" version="1.1" width="300" height="300" viewBox="0 0 300 300"><rect x="0" y="0" width="300" height="300" fill="#fefefe"/><g transform="scale(4.615)"><g transform="translate(4,4)"><path fill-rule="evenodd" d="M11 0L11 1L10 1L10 4L12 4L12 5L8 5L8 7L9 7L9 6L10 6L10 7L11 7L11 6L12 6L12 7L13 7L13 8L10 8L10 9L9 9L9 8L6 8L6 9L5 9L5 8L0 8L0 9L1 9L1 10L0 10L0 11L1 11L1 12L3 12L3 11L5 11L5 10L6 10L6 11L8 11L8 12L6 12L6 13L5 13L5 14L6 14L6 15L4 15L4 16L1 16L1 15L0 15L0 20L1 20L1 24L0 24L0 25L1 25L1 26L2 26L2 29L1 29L1 28L0 28L0 31L1 31L1 30L2 30L2 29L3 29L3 28L4 28L4 30L3 30L3 31L2 31L2 32L1 32L1 33L0 33L0 34L1 34L1 35L4 35L4 36L3 36L3 37L2 37L2 38L1 38L1 36L0 36L0 38L1 38L1 40L0 40L0 43L1 43L1 44L0 44L0 45L1 45L1 44L2 44L2 47L1 47L1 46L0 46L0 48L5 48L5 47L7 47L7 46L8 46L8 47L9 47L9 46L10 46L10 48L11 48L11 49L8 49L8 51L9 51L9 52L8 52L8 57L10 57L10 56L11 56L11 57L12 57L12 55L13 55L13 53L14 53L14 54L15 54L15 55L16 55L16 56L17 56L17 57L21 57L21 56L24 56L24 55L23 55L23 54L24 54L24 53L27 53L27 54L30 54L30 53L31 53L31 51L32 51L32 52L33 52L33 53L32 53L32 54L31 54L31 56L30 56L30 55L29 55L29 56L27 56L27 57L29 57L29 56L30 56L30 57L31 57L31 56L35 56L35 57L39 57L39 56L40 56L40 55L41 55L41 56L42 56L42 55L44 55L44 54L45 54L45 57L49 57L49 56L50 56L50 57L52 57L52 55L51 55L51 53L52 53L52 54L53 54L53 57L54 57L54 56L55 56L55 57L56 57L56 56L55 56L55 54L53 54L53 52L54 52L54 53L55 53L55 52L57 52L57 51L56 51L56 49L57 49L57 48L56 48L56 46L57 46L57 43L56 43L56 42L55 42L55 39L57 39L57 36L56 36L56 37L55 37L55 35L56 35L56 34L57 34L57 32L56 32L56 30L57 30L57 28L56 28L56 27L55 27L55 26L57 26L57 25L56 25L56 22L57 22L57 20L56 20L56 22L55 22L55 23L53 23L53 21L51 21L51 20L52 20L52 19L53 19L53 20L55 20L55 19L56 19L56 16L57 16L57 15L56 15L56 14L57 14L57 13L56 13L56 14L55 14L55 13L54 13L54 12L56 12L56 8L55 8L55 10L54 10L54 11L51 11L51 10L52 10L52 8L51 8L51 10L49 10L49 9L50 9L50 8L49 8L49 9L47 9L47 10L46 10L46 9L45 9L45 10L44 10L44 7L45 7L45 8L46 8L46 7L47 7L47 5L48 5L48 0L46 0L46 1L45 1L45 2L44 2L44 3L43 3L43 4L40 4L40 5L39 5L39 6L38 6L38 7L37 7L37 5L38 5L38 4L39 4L39 3L41 3L41 2L43 2L43 0L41 0L41 1L40 1L40 0L39 0L39 1L38 1L38 0L37 0L37 1L38 1L38 2L39 2L39 3L36 3L36 0L35 0L35 1L33 1L33 2L32 2L32 3L31 3L31 4L26 4L26 3L23 3L23 2L27 2L27 3L29 3L29 1L30 1L30 2L31 2L31 1L32 1L32 0L29 0L29 1L28 1L28 2L27 2L27 1L25 1L25 0L23 0L23 1L22 1L22 0L21 0L21 1L20 1L20 0L17 0L17 1L16 1L16 3L17 3L17 4L19 4L19 5L20 5L20 7L19 7L19 6L18 6L18 5L17 5L17 6L16 6L16 7L15 7L15 6L14 6L14 5L13 5L13 4L14 4L14 2L15 2L15 1L14 1L14 0ZM8 1L8 2L9 2L9 1ZM12 1L12 2L11 2L11 3L12 3L12 2L14 2L14 1ZM46 1L46 2L47 2L47 1ZM20 2L20 3L19 3L19 4L23 4L23 5L21 5L21 7L22 7L22 8L19 8L19 7L18 7L18 6L17 6L17 7L16 7L16 8L14 8L14 9L12 9L12 10L9 10L9 9L8 9L8 10L9 10L9 12L8 12L8 14L7 14L7 13L6 13L6 14L7 14L7 15L6 15L6 16L7 16L7 17L3 17L3 18L2 18L2 24L1 24L1 25L2 25L2 24L4 24L4 23L6 23L6 24L5 24L5 25L4 25L4 26L8 26L8 24L10 24L10 25L9 25L9 28L10 28L10 25L11 25L11 26L12 26L12 27L11 27L11 28L13 28L13 29L11 29L11 31L12 31L12 32L11 32L11 33L10 33L10 32L9 32L9 31L5 31L5 32L3 32L3 33L2 33L2 34L4 34L4 33L5 33L5 34L8 34L8 36L7 36L7 35L6 35L6 36L7 36L7 37L6 37L6 38L4 38L4 37L5 37L5 36L4 36L4 37L3 37L3 39L2 39L2 40L1 40L1 42L3 42L3 43L2 43L2 44L5 44L5 43L6 43L6 44L7 44L7 45L5 45L5 46L3 46L3 47L5 47L5 46L7 46L7 45L8 45L8 46L9 46L9 44L10 44L10 45L11 45L11 44L13 44L13 46L14 46L14 47L13 47L13 48L14 48L14 49L15 49L15 50L17 50L17 52L16 52L16 51L14 51L14 52L16 52L16 53L15 53L15 54L16 54L16 53L17 53L17 56L18 56L18 55L19 55L19 56L21 56L21 55L22 55L22 54L23 54L23 53L24 53L24 52L26 52L26 50L21 50L21 49L23 49L23 47L26 47L26 48L24 48L24 49L26 49L26 48L28 48L28 47L26 47L26 45L28 45L28 46L30 46L30 43L29 43L29 42L32 42L32 43L31 43L31 44L32 44L32 45L31 45L31 48L32 48L32 49L31 49L31 50L32 50L32 51L33 51L33 52L34 52L34 53L33 53L33 54L34 54L34 55L35 55L35 56L36 56L36 54L35 54L35 50L36 50L36 52L37 52L37 51L38 51L38 50L41 50L41 51L42 51L42 52L40 52L40 51L39 51L39 52L38 52L38 54L40 54L40 53L42 53L42 52L43 52L43 51L42 51L42 50L41 50L41 48L42 48L42 49L43 49L43 48L44 48L44 51L45 51L45 50L46 50L46 51L47 51L47 53L45 53L45 52L44 52L44 53L43 53L43 54L44 54L44 53L45 53L45 54L48 54L48 50L47 50L47 49L48 49L48 48L49 48L49 47L48 47L48 48L47 48L47 47L46 47L46 48L45 48L45 47L44 47L44 45L45 45L45 46L47 46L47 45L48 45L48 44L50 44L50 47L51 47L51 46L53 46L53 47L52 47L52 48L53 48L53 49L54 49L54 48L53 48L53 47L55 47L55 46L56 46L56 43L55 43L55 44L54 44L54 45L53 45L53 43L54 43L54 42L53 42L53 41L54 41L54 40L53 40L53 41L51 41L51 42L50 42L50 43L47 43L47 45L45 45L45 44L46 44L46 42L48 42L48 41L49 41L49 39L51 39L51 38L52 38L52 39L54 39L54 38L53 38L53 35L55 35L55 34L56 34L56 32L54 32L54 33L52 33L52 31L51 31L51 33L52 33L52 34L50 34L50 32L49 32L49 31L48 31L48 30L47 30L47 29L46 29L46 30L47 30L47 31L45 31L45 32L43 32L43 30L45 30L45 28L46 28L46 27L48 27L48 26L47 26L47 25L45 25L45 22L47 22L47 23L46 23L46 24L49 24L49 26L51 26L51 25L52 25L52 26L53 26L53 27L54 27L54 26L53 26L53 23L50 23L50 22L51 22L51 21L49 21L49 20L47 20L47 21L45 21L45 20L44 20L44 18L45 18L45 19L46 19L46 18L47 18L47 19L48 19L48 18L47 18L47 17L48 17L48 16L49 16L49 17L50 17L50 18L49 18L49 19L50 19L50 18L51 18L51 17L53 17L53 18L55 18L55 17L54 17L54 16L51 16L51 17L50 17L50 14L51 14L51 12L50 12L50 11L49 11L49 10L47 10L47 11L49 11L49 12L45 12L45 11L46 11L46 10L45 10L45 11L44 11L44 10L43 10L43 11L42 11L42 10L40 10L40 9L41 9L41 7L42 7L42 6L43 6L43 7L44 7L44 6L45 6L45 7L46 7L46 5L47 5L47 3L44 3L44 6L43 6L43 5L40 5L40 6L39 6L39 7L40 7L40 8L38 8L38 10L37 10L37 9L35 9L35 8L37 8L37 7L36 7L36 5L37 5L37 4L36 4L36 5L35 5L35 2L34 2L34 3L32 3L32 4L31 4L31 8L32 8L32 10L31 10L31 11L30 11L30 10L29 10L29 12L28 12L28 13L27 13L27 15L26 15L26 12L27 12L27 11L26 11L26 12L25 12L25 10L23 10L23 13L22 13L22 12L20 12L20 11L22 11L22 10L21 10L21 9L23 9L23 8L24 8L24 6L23 6L23 5L24 5L24 4L23 4L23 3L22 3L22 2ZM8 3L8 4L9 4L9 3ZM15 4L15 5L16 5L16 4ZM25 4L25 8L26 8L26 4ZM32 4L32 5L34 5L34 7L33 7L33 6L32 6L32 7L33 7L33 9L34 9L34 8L35 8L35 5L34 5L34 4ZM45 4L45 5L46 5L46 4ZM27 5L27 8L30 8L30 5ZM13 6L13 7L14 7L14 6ZM22 6L22 7L23 7L23 6ZM28 6L28 7L29 7L29 6ZM40 6L40 7L41 7L41 6ZM48 6L48 7L49 7L49 6ZM16 8L16 9L17 9L17 10L18 10L18 11L17 11L17 12L16 12L16 13L15 13L15 10L13 10L13 11L11 11L11 13L10 13L10 14L9 14L9 16L8 16L8 17L7 17L7 18L6 18L6 19L7 19L7 20L6 20L6 21L7 21L7 22L6 22L6 23L7 23L7 22L8 22L8 23L9 23L9 21L7 21L7 20L11 20L11 19L10 19L10 18L12 18L12 20L14 20L14 19L13 19L13 18L15 18L15 21L16 21L16 22L15 22L15 23L14 23L14 21L12 21L12 22L11 22L11 23L10 23L10 24L11 24L11 23L13 23L13 24L14 24L14 26L13 26L13 25L12 25L12 26L13 26L13 28L14 28L14 29L13 29L13 30L12 30L12 31L13 31L13 32L12 32L12 33L13 33L13 32L14 32L14 31L13 31L13 30L14 30L14 29L15 29L15 32L17 32L17 33L19 33L19 34L20 34L20 35L21 35L21 36L22 36L22 35L23 35L23 34L24 34L24 36L23 36L23 37L24 37L24 38L22 38L22 39L21 39L21 37L19 37L19 35L18 35L18 36L17 36L17 35L16 35L16 34L14 34L14 35L13 35L13 34L10 34L10 33L9 33L9 35L10 35L10 36L12 36L12 35L13 35L13 38L10 38L10 37L8 37L8 39L7 39L7 38L6 38L6 39L7 39L7 40L5 40L5 39L4 39L4 40L3 40L3 42L4 42L4 43L5 43L5 42L6 42L6 43L7 43L7 44L8 44L8 43L7 43L7 42L6 42L6 41L7 41L7 40L8 40L8 39L9 39L9 40L10 40L10 41L12 41L12 42L9 42L9 43L10 43L10 44L11 44L11 43L13 43L13 44L14 44L14 45L15 45L15 44L16 44L16 45L17 45L17 47L18 47L18 46L19 46L19 48L15 48L15 49L18 49L18 50L19 50L19 52L17 52L17 53L20 53L20 52L22 52L22 51L20 51L20 45L21 45L21 47L23 47L23 46L25 46L25 44L27 44L27 43L24 43L24 42L25 42L25 41L24 41L24 40L25 40L25 37L27 37L27 38L26 38L26 40L28 40L28 39L27 39L27 38L28 38L28 37L27 37L27 36L26 36L26 35L27 35L27 32L28 32L28 33L29 33L29 34L30 34L30 36L29 36L29 37L31 37L31 38L29 38L29 39L33 39L33 40L35 40L35 42L37 42L37 43L36 43L36 44L35 44L35 43L34 43L34 42L33 42L33 41L32 41L32 40L31 40L31 41L32 41L32 42L33 42L33 43L32 43L32 44L33 44L33 43L34 43L34 45L36 45L36 46L37 46L37 47L36 47L36 48L34 48L34 49L36 49L36 50L38 50L38 49L39 49L39 48L41 48L41 46L43 46L43 45L44 45L44 44L45 44L45 42L46 42L46 41L45 41L45 42L44 42L44 41L43 41L43 40L45 40L45 39L43 39L43 40L42 40L42 41L40 41L40 42L42 42L42 44L41 44L41 43L39 43L39 42L38 42L38 40L39 40L39 39L38 39L38 40L35 40L35 39L37 39L37 38L38 38L38 37L37 37L37 36L38 36L38 33L37 33L37 32L35 32L35 31L36 31L36 30L37 30L37 29L38 29L38 28L42 28L42 26L43 26L43 27L44 27L44 28L43 28L43 29L39 29L39 30L38 30L38 32L39 32L39 31L41 31L41 30L43 30L43 29L44 29L44 28L45 28L45 27L46 27L46 26L45 26L45 27L44 27L44 26L43 26L43 25L44 25L44 20L43 20L43 21L39 21L39 20L41 20L41 18L42 18L42 19L43 19L43 18L44 18L44 15L47 15L47 16L48 16L48 15L49 15L49 14L50 14L50 12L49 12L49 13L47 13L47 14L44 14L44 11L43 11L43 13L40 13L40 12L41 12L41 11L40 11L40 12L39 12L39 11L37 11L37 10L36 10L36 12L35 12L35 13L36 13L36 14L32 14L32 12L33 12L33 13L34 13L34 12L33 12L33 10L32 10L32 12L31 12L31 13L30 13L30 14L29 14L29 13L28 13L28 14L29 14L29 16L28 16L28 15L27 15L27 16L28 16L28 17L27 17L27 18L28 18L28 19L27 19L27 20L28 20L28 19L30 19L30 18L32 18L32 19L31 19L31 21L29 21L29 22L30 22L30 23L31 23L31 21L32 21L32 20L34 20L34 19L33 19L33 18L32 18L32 17L31 17L31 16L35 16L35 17L37 17L37 18L38 18L38 17L39 17L39 19L37 19L37 20L36 20L36 19L35 19L35 23L32 23L32 24L29 24L29 25L30 25L30 26L28 26L28 25L27 25L27 26L26 26L26 25L25 25L25 24L28 24L28 23L27 23L27 22L28 22L28 21L25 21L25 20L26 20L26 18L25 18L25 17L26 17L26 15L24 15L24 14L25 14L25 13L23 13L23 14L22 14L22 13L21 13L21 14L20 14L20 12L19 12L19 10L20 10L20 9L19 9L19 8ZM42 8L42 9L43 9L43 8ZM53 8L53 9L54 9L54 8ZM2 9L2 10L1 10L1 11L2 11L2 10L4 10L4 9ZM6 9L6 10L7 10L7 9ZM13 11L13 12L12 12L12 13L13 13L13 14L15 14L15 13L13 13L13 12L14 12L14 11ZM17 12L17 13L16 13L16 17L15 17L15 16L14 16L14 15L13 15L13 16L12 16L12 15L11 15L11 16L12 16L12 17L13 17L13 16L14 16L14 17L15 17L15 18L18 18L18 19L19 19L19 20L20 20L20 21L17 21L17 20L16 20L16 21L17 21L17 22L20 22L20 23L19 23L19 24L21 24L21 25L20 25L20 27L19 27L19 26L18 26L18 25L17 25L17 24L18 24L18 23L17 23L17 24L16 24L16 23L15 23L15 24L16 24L16 25L15 25L15 26L14 26L14 27L15 27L15 29L16 29L16 30L18 30L18 29L20 29L20 30L19 30L19 31L23 31L23 32L21 32L21 33L20 33L20 32L19 32L19 33L20 33L20 34L21 34L21 33L22 33L22 34L23 34L23 33L25 33L25 34L26 34L26 31L25 31L25 32L24 32L24 30L23 30L23 29L26 29L26 28L24 28L24 26L22 26L22 27L21 27L21 25L23 25L23 23L24 23L24 24L25 24L25 23L26 23L26 22L25 22L25 21L24 21L24 20L23 20L23 19L24 19L24 18L23 18L23 19L22 19L22 20L20 20L20 19L19 19L19 17L17 17L17 13L18 13L18 12ZM52 12L52 13L53 13L53 12ZM0 13L0 14L1 14L1 13ZM3 13L3 14L4 14L4 13ZM38 13L38 14L37 14L37 15L35 15L35 16L37 16L37 17L38 17L38 16L39 16L39 17L41 17L41 16L42 16L42 17L43 17L43 16L42 16L42 15L43 15L43 14L41 14L41 16L39 16L39 15L38 15L38 14L40 14L40 13ZM19 14L19 15L20 15L20 14ZM30 14L30 15L31 15L31 14ZM54 14L54 15L55 15L55 14ZM21 15L21 16L20 16L20 18L22 18L22 17L25 17L25 16L24 16L24 15ZM9 16L9 17L10 17L10 16ZM21 16L21 17L22 17L22 16ZM45 16L45 18L46 18L46 16ZM3 18L3 21L4 21L4 22L5 22L5 21L4 21L4 20L5 20L5 18ZM7 18L7 19L9 19L9 18ZM37 20L37 21L38 21L38 23L37 23L37 24L39 24L39 25L38 25L38 26L37 26L37 25L33 25L33 24L32 24L32 26L31 26L31 28L32 28L32 29L33 29L33 30L35 30L35 28L36 28L36 27L41 27L41 24L40 24L40 22L39 22L39 21L38 21L38 20ZM22 21L22 22L21 22L21 24L22 24L22 23L23 23L23 22L24 22L24 21ZM47 21L47 22L49 22L49 21ZM41 22L41 23L42 23L42 24L43 24L43 22ZM6 24L6 25L7 25L7 24ZM15 26L15 27L16 27L16 26ZM17 26L17 27L18 27L18 26ZM25 26L25 27L26 27L26 26ZM32 26L32 27L33 27L33 28L35 28L35 27L36 27L36 26L34 26L34 27L33 27L33 26ZM5 27L5 30L8 30L8 27ZM20 27L20 28L21 28L21 29L22 29L22 28L21 28L21 27ZM27 27L27 30L30 30L30 27ZM49 27L49 30L52 30L52 27ZM6 28L6 29L7 29L7 28ZM16 28L16 29L18 29L18 28ZM28 28L28 29L29 29L29 28ZM50 28L50 29L51 29L51 28ZM54 28L54 30L53 30L53 31L54 31L54 30L55 30L55 29L56 29L56 28ZM9 29L9 30L10 30L10 29ZM31 30L31 31L30 31L30 32L29 32L29 31L28 31L28 32L29 32L29 33L31 33L31 31L32 31L32 34L31 34L31 35L32 35L32 34L33 34L33 35L35 35L35 36L37 36L37 34L35 34L35 33L33 33L33 31L32 31L32 30ZM17 31L17 32L18 32L18 31ZM47 31L47 32L48 32L48 33L49 33L49 32L48 32L48 31ZM6 32L6 33L8 33L8 32ZM41 32L41 33L39 33L39 34L40 34L40 35L39 35L39 37L40 37L40 38L43 38L43 37L44 37L44 38L45 38L45 37L44 37L44 36L47 36L47 34L45 34L45 35L44 35L44 33L43 33L43 32ZM54 33L54 34L55 34L55 33ZM42 34L42 35L43 35L43 36L44 36L44 35L43 35L43 34ZM49 34L49 35L50 35L50 36L49 36L49 38L51 38L51 37L50 37L50 36L52 36L52 35L53 35L53 34L52 34L52 35L50 35L50 34ZM15 35L15 36L14 36L14 38L13 38L13 39L10 39L10 40L13 40L13 39L14 39L14 38L15 38L15 39L16 39L16 40L14 40L14 41L13 41L13 42L14 42L14 44L15 44L15 42L17 42L17 43L18 43L18 42L19 42L19 45L20 45L20 42L21 42L21 43L22 43L22 42L24 42L24 41L23 41L23 40L24 40L24 39L22 39L22 40L19 40L19 39L20 39L20 38L18 38L18 37L17 37L17 36L16 36L16 35ZM32 36L32 37L33 37L33 38L34 38L34 39L35 39L35 37L33 37L33 36ZM40 36L40 37L42 37L42 36ZM15 37L15 38L16 38L16 37ZM47 37L47 39L46 39L46 40L47 40L47 39L48 39L48 37ZM4 40L4 41L5 41L5 40ZM17 40L17 41L19 41L19 42L20 42L20 41L19 41L19 40ZM29 40L29 41L30 41L30 40ZM14 41L14 42L15 42L15 41ZM21 41L21 42L22 42L22 41ZM26 41L26 42L27 42L27 41ZM43 42L43 44L44 44L44 42ZM51 42L51 43L50 43L50 44L51 44L51 45L52 45L52 44L51 44L51 43L53 43L53 42ZM28 43L28 45L29 45L29 43ZM17 44L17 45L18 45L18 44ZM21 44L21 45L22 45L22 46L23 46L23 45L22 45L22 44ZM39 44L39 45L38 45L38 46L39 46L39 47L38 47L38 48L37 48L37 49L38 49L38 48L39 48L39 47L40 47L40 46L39 46L39 45L41 45L41 44ZM32 45L32 48L33 48L33 47L35 47L35 46L33 46L33 45ZM15 46L15 47L16 47L16 46ZM11 47L11 48L12 48L12 47ZM29 47L29 48L30 48L30 47ZM42 47L42 48L43 48L43 47ZM6 48L6 49L7 49L7 48ZM46 48L46 49L47 49L47 48ZM55 48L55 49L56 49L56 48ZM11 49L11 50L12 50L12 51L13 51L13 50L12 50L12 49ZM27 49L27 52L30 52L30 49ZM32 49L32 50L33 50L33 51L34 51L34 50L33 50L33 49ZM49 49L49 52L52 52L52 49ZM9 50L9 51L10 51L10 52L9 52L9 56L10 56L10 55L12 55L12 54L11 54L11 53L13 53L13 52L11 52L11 51L10 51L10 50ZM28 50L28 51L29 51L29 50ZM50 50L50 51L51 51L51 50ZM54 50L54 51L55 51L55 50ZM19 54L19 55L20 55L20 54ZM25 54L25 55L26 55L26 54ZM41 54L41 55L42 55L42 54ZM37 55L37 56L39 56L39 55ZM46 55L46 56L48 56L48 55ZM50 55L50 56L51 56L51 55ZM13 56L13 57L15 57L15 56ZM25 56L25 57L26 57L26 56ZM43 56L43 57L44 57L44 56ZM0 0L0 7L7 7L7 0ZM1 1L1 6L6 6L6 1ZM2 2L2 5L5 5L5 2ZM50 0L50 7L57 7L57 0ZM51 1L51 6L56 6L56 1ZM52 2L52 5L55 5L55 2ZM0 50L0 57L7 57L7 50ZM1 51L1 56L6 56L6 51ZM2 52L2 55L5 55L5 52Z" fill="#000000"/></g></g></svg>
