<?xml version="1.0" encoding="UTF-8"?>
<svg xmlns="http://www.w3.org/2000/svg" version="1.1" width="300" height="300" viewBox="0 0 300 300"><rect x="0" y="0" width="300" height="300" fill="#fefefe"/><g transform="scale(4.615)"><g transform="translate(4,4)"><path fill-rule="evenodd" d="M12 0L12 1L13 1L13 0ZM14 0L14 2L12 2L12 3L11 3L11 2L9 2L9 1L8 1L8 2L9 2L9 3L8 3L8 4L10 4L10 5L8 5L8 7L9 7L9 8L6 8L6 9L7 9L7 10L6 10L6 11L7 11L7 12L6 12L6 13L5 13L5 12L4 12L4 11L2 11L2 12L4 12L4 13L5 13L5 14L4 14L4 15L3 15L3 13L2 13L2 14L1 14L1 15L0 15L0 17L2 17L2 18L0 18L0 20L1 20L1 21L0 21L0 23L1 23L1 25L0 25L0 26L1 26L1 27L0 27L0 28L1 28L1 27L3 27L3 26L2 26L2 23L3 23L3 22L4 22L4 24L3 24L3 25L7 25L7 24L9 24L9 23L12 23L12 22L13 22L13 23L14 23L14 25L16 25L16 24L17 24L17 25L18 25L18 26L15 26L15 27L14 27L14 28L13 28L13 26L12 26L12 27L11 27L11 25L13 25L13 24L10 24L10 27L11 27L11 28L10 28L10 29L11 29L11 32L13 32L13 34L11 34L11 33L10 33L10 34L9 34L9 32L10 32L10 31L9 31L9 25L8 25L8 26L4 26L4 29L2 29L2 30L1 30L1 29L0 29L0 30L1 30L1 31L0 31L0 32L1 32L1 34L0 34L0 35L1 35L1 34L2 34L2 32L3 32L3 31L5 31L5 32L4 32L4 33L7 33L7 34L6 34L6 35L7 35L7 34L8 34L8 35L9 35L9 38L8 38L8 40L10 40L10 43L8 43L8 42L9 42L9 41L8 41L8 42L5 42L5 35L4 35L4 37L3 37L3 36L0 36L0 41L1 41L1 42L0 42L0 45L1 45L1 46L0 46L0 48L5 48L5 47L7 47L7 48L6 48L6 49L8 49L8 51L9 51L9 52L8 52L8 57L9 57L9 52L10 52L10 53L11 53L11 55L10 55L10 56L12 56L12 57L15 57L15 56L13 56L13 55L14 55L14 54L13 54L13 53L14 53L14 52L10 52L10 51L15 51L15 49L16 49L16 48L14 48L14 47L15 47L15 45L14 45L14 47L13 47L13 46L11 46L11 47L12 47L12 48L10 48L10 47L9 47L9 48L10 48L10 49L8 49L8 44L9 44L9 46L10 46L10 45L11 45L11 44L10 44L10 43L12 43L12 44L13 44L13 43L12 43L12 42L13 42L13 41L14 41L14 42L15 42L15 41L14 41L14 40L16 40L16 41L17 41L17 42L18 42L18 43L14 43L14 44L18 44L18 45L17 45L17 46L18 46L18 47L17 47L17 50L18 50L18 51L20 51L20 52L17 52L17 53L16 53L16 52L15 52L15 53L16 53L16 54L15 54L15 55L16 55L16 56L17 56L17 57L20 57L20 56L19 56L19 55L20 55L20 54L19 54L19 53L20 53L20 52L23 52L23 50L26 50L26 52L24 52L24 53L23 53L23 54L21 54L21 56L24 56L24 57L26 57L26 56L24 56L24 55L23 55L23 54L24 54L24 53L27 53L27 54L30 54L30 53L31 53L31 51L32 51L32 52L33 52L33 53L32 53L32 54L31 54L31 56L30 56L30 55L29 55L29 56L27 56L27 57L29 57L29 56L30 56L30 57L31 57L31 56L35 56L35 57L40 57L40 56L41 56L41 57L44 57L44 56L42 56L42 55L44 55L44 54L45 54L45 57L47 57L47 55L48 55L48 56L50 56L50 57L52 57L52 55L51 55L51 53L52 53L52 54L53 54L53 57L54 57L54 56L55 56L55 57L56 57L56 56L55 56L55 55L54 55L54 54L53 54L53 52L54 52L54 53L55 53L55 52L56 52L56 50L57 50L57 48L56 48L56 46L57 46L57 45L56 45L56 44L55 44L55 43L56 43L56 42L57 42L57 41L56 41L56 42L55 42L55 41L53 41L53 40L55 40L55 39L57 39L57 35L53 35L53 34L52 34L52 33L53 33L53 32L54 32L54 34L57 34L57 32L56 32L56 30L57 30L57 29L56 29L56 28L57 28L57 27L55 27L55 26L57 26L57 25L56 25L56 22L57 22L57 21L56 21L56 18L53 18L53 17L52 17L52 19L50 19L50 17L51 17L51 16L52 16L52 15L53 15L53 16L55 16L55 17L56 17L56 16L57 16L57 15L56 15L56 14L57 14L57 13L56 13L56 12L55 12L55 11L56 11L56 8L55 8L55 10L54 10L54 11L52 11L52 10L53 10L53 9L54 9L54 8L53 8L53 9L52 9L52 8L51 8L51 10L50 10L50 8L49 8L49 6L48 6L48 8L47 8L47 10L46 10L46 9L45 9L45 10L44 10L44 8L45 8L45 6L44 6L44 3L47 3L47 5L46 5L46 4L45 4L45 5L46 5L46 7L47 7L47 5L48 5L48 0L46 0L46 1L45 1L45 2L44 2L44 3L43 3L43 4L40 4L40 5L39 5L39 6L38 6L38 7L37 7L37 5L38 5L38 4L37 4L37 3L38 3L38 2L39 2L39 3L42 3L42 2L43 2L43 0L41 0L41 1L40 1L40 0L39 0L39 1L38 1L38 0L37 0L37 1L38 1L38 2L37 2L37 3L36 3L36 0L35 0L35 1L33 1L33 2L32 2L32 3L31 3L31 0L29 0L29 1L28 1L28 0L27 0L27 1L26 1L26 0L23 0L23 1L22 1L22 0L21 0L21 1L20 1L20 0L19 0L19 1L20 1L20 2L19 2L19 3L17 3L17 2L18 2L18 1L17 1L17 2L15 2L15 0ZM21 1L21 2L22 2L22 1ZM25 1L25 2L23 2L23 3L19 3L19 4L17 4L17 3L15 3L15 2L14 2L14 4L13 4L13 3L12 3L12 4L11 4L11 3L10 3L10 4L11 4L11 5L10 5L10 6L9 6L9 7L10 7L10 8L14 8L14 9L13 9L13 10L12 10L12 9L11 9L11 10L10 10L10 12L9 12L9 10L8 10L8 13L6 13L6 14L5 14L5 15L6 15L6 16L7 16L7 15L8 15L8 17L3 17L3 18L2 18L2 19L1 19L1 20L2 20L2 21L4 21L4 20L2 20L2 19L6 19L6 20L7 20L7 21L6 21L6 22L7 22L7 21L9 21L9 20L7 20L7 19L6 19L6 18L8 18L8 19L10 19L10 18L9 18L9 17L10 17L10 14L8 14L8 13L11 13L11 10L12 10L12 11L13 11L13 12L12 12L12 13L13 13L13 14L11 14L11 15L12 15L12 16L14 16L14 18L13 18L13 17L12 17L12 18L13 18L13 19L11 19L11 20L10 20L10 22L12 22L12 21L14 21L14 22L16 22L16 21L17 21L17 22L18 22L18 23L19 23L19 24L21 24L21 25L20 25L20 26L22 26L22 27L19 27L19 26L18 26L18 27L17 27L17 28L18 28L18 29L16 29L16 28L15 28L15 29L16 29L16 31L15 31L15 30L14 30L14 29L13 29L13 32L14 32L14 34L13 34L13 35L12 35L12 37L11 37L11 36L10 36L10 38L9 38L9 39L10 39L10 40L12 40L12 41L11 41L11 42L12 42L12 41L13 41L13 40L14 40L14 39L16 39L16 40L17 40L17 37L18 37L18 38L19 38L19 39L20 39L20 38L19 38L19 37L21 37L21 38L24 38L24 37L23 37L23 36L24 36L24 34L23 34L23 33L25 33L25 34L26 34L26 35L27 35L27 37L28 37L28 38L27 38L27 39L26 39L26 36L25 36L25 40L24 40L24 39L21 39L21 41L20 41L20 40L19 40L19 41L18 41L18 42L19 42L19 43L20 43L20 44L19 44L19 45L20 45L20 46L19 46L19 47L20 47L20 48L19 48L19 49L20 49L20 50L21 50L21 49L23 49L23 47L24 47L24 49L26 49L26 48L27 48L27 47L26 47L26 45L28 45L28 46L29 46L29 45L30 45L30 46L32 46L32 47L33 47L33 46L35 46L35 45L34 45L34 43L35 43L35 44L36 44L36 43L37 43L37 42L35 42L35 40L38 40L38 42L39 42L39 41L41 41L41 38L42 38L42 39L45 39L45 38L46 38L46 39L47 39L47 40L44 40L44 42L43 42L43 43L44 43L44 45L45 45L45 46L44 46L44 47L43 47L43 46L41 46L41 48L39 48L39 47L38 47L38 48L37 48L37 49L38 49L38 50L36 50L36 49L34 49L34 48L31 48L31 49L32 49L32 51L34 51L34 52L35 52L35 50L36 50L36 52L37 52L37 51L38 51L38 50L41 50L41 51L42 51L42 50L41 50L41 48L42 48L42 49L43 49L43 48L44 48L44 49L45 49L45 50L47 50L47 52L46 52L46 51L45 51L45 52L44 52L44 53L43 53L43 54L44 54L44 53L45 53L45 54L46 54L46 55L47 55L47 53L48 53L48 50L47 50L47 49L48 49L48 48L50 48L50 47L51 47L51 46L52 46L52 48L53 48L53 45L51 45L51 44L53 44L53 43L54 43L54 42L53 42L53 41L51 41L51 42L50 42L50 43L47 43L47 45L45 45L45 44L46 44L46 43L45 43L45 42L48 42L48 41L49 41L49 40L50 40L50 39L51 39L51 38L52 38L52 39L55 39L55 37L56 37L56 36L55 36L55 37L53 37L53 35L52 35L52 34L50 34L50 32L51 32L51 33L52 33L52 31L50 31L50 32L49 32L49 31L48 31L48 30L47 30L47 29L46 29L46 30L47 30L47 31L45 31L45 30L44 30L44 29L45 29L45 28L46 28L46 27L47 27L47 25L48 25L48 24L49 24L49 25L50 25L50 26L51 26L51 25L53 25L53 23L51 23L51 24L49 24L49 23L50 23L50 22L51 22L51 21L53 21L53 22L56 22L56 21L55 21L55 20L53 20L53 19L52 19L52 20L51 20L51 21L49 21L49 18L47 18L47 17L48 17L48 16L49 16L49 15L50 15L50 16L51 16L51 15L50 15L50 14L51 14L51 12L50 12L50 10L49 10L49 12L45 12L45 11L46 11L46 10L45 10L45 11L42 11L42 10L40 10L40 9L41 9L41 7L42 7L42 8L44 8L44 6L43 6L43 5L42 5L42 6L41 6L41 5L40 5L40 6L39 6L39 7L40 7L40 8L38 8L38 10L40 10L40 11L39 11L39 12L40 12L40 13L38 13L38 14L37 14L37 13L35 13L35 12L36 12L36 10L37 10L37 9L35 9L35 8L37 8L37 7L36 7L36 5L37 5L37 4L36 4L36 5L35 5L35 3L34 3L34 2L33 2L33 3L32 3L32 4L31 4L31 3L30 3L30 1L29 1L29 3L28 3L28 2L26 2L26 1ZM46 1L46 2L47 2L47 1ZM23 3L23 4L24 4L24 5L23 5L23 6L22 6L22 7L21 7L21 5L22 5L22 4L19 4L19 5L20 5L20 7L19 7L19 6L18 6L18 7L17 7L17 6L16 6L16 7L15 7L15 5L16 5L16 4L15 4L15 5L11 5L11 6L10 6L10 7L11 7L11 6L12 6L12 7L13 7L13 6L14 6L14 7L15 7L15 9L19 9L19 10L18 10L18 11L17 11L17 10L13 10L13 11L14 11L14 12L13 12L13 13L15 13L15 14L13 14L13 15L14 15L14 16L16 16L16 17L17 17L17 18L18 18L18 17L19 17L19 19L20 19L20 20L17 20L17 19L16 19L16 18L15 18L15 21L16 21L16 20L17 20L17 21L20 21L20 20L24 20L24 21L22 21L22 22L21 22L21 23L22 23L22 24L24 24L24 25L22 25L22 26L23 26L23 31L21 31L21 32L20 32L20 31L18 31L18 32L16 32L16 33L15 33L15 34L16 34L16 33L19 33L19 34L20 34L20 35L18 35L18 34L17 34L17 35L18 35L18 37L19 37L19 36L20 36L20 35L21 35L21 36L22 36L22 35L21 35L21 34L22 34L22 33L21 33L21 32L26 32L26 33L27 33L27 32L28 32L28 33L29 33L29 34L30 34L30 36L29 36L29 37L31 37L31 38L29 38L29 39L33 39L33 40L35 40L35 39L37 39L37 38L38 38L38 37L37 37L37 36L38 36L38 33L37 33L37 32L34 32L34 33L35 33L35 34L33 34L33 33L32 33L32 32L31 32L31 33L29 33L29 32L30 32L30 31L36 31L36 30L31 30L31 29L32 29L32 28L31 28L31 26L32 26L32 27L33 27L33 28L36 28L36 29L38 29L38 28L39 28L39 27L41 27L41 28L42 28L42 26L43 26L43 27L44 27L44 28L43 28L43 29L41 29L41 30L40 30L40 31L41 31L41 30L43 30L43 29L44 29L44 28L45 28L45 27L44 27L44 26L45 26L45 25L44 25L44 24L43 24L43 23L44 23L44 20L45 20L45 21L48 21L48 22L45 22L45 24L46 24L46 23L47 23L47 24L48 24L48 23L49 23L49 21L48 21L48 20L46 20L46 19L47 19L47 18L46 18L46 19L45 19L45 18L44 18L44 15L45 15L45 17L47 17L47 16L48 16L48 15L49 15L49 14L50 14L50 12L49 12L49 13L47 13L47 14L45 14L45 13L44 13L44 12L43 12L43 13L41 13L41 14L38 14L38 15L39 15L39 16L38 16L38 17L37 17L37 16L35 16L35 14L32 14L32 13L30 13L30 14L29 14L29 13L28 13L28 12L29 12L29 11L31 11L31 12L33 12L33 13L34 13L34 12L33 12L33 10L32 10L32 8L31 8L31 4L26 4L26 3ZM25 4L25 8L26 8L26 4ZM32 4L32 5L33 5L33 4ZM27 5L27 8L30 8L30 5ZM34 5L34 7L33 7L33 6L32 6L32 7L33 7L33 9L34 9L34 8L35 8L35 5ZM23 6L23 7L22 7L22 8L20 8L20 10L19 10L19 13L20 13L20 14L18 14L18 15L20 15L20 16L19 16L19 17L20 17L20 18L22 18L22 17L28 17L28 16L29 16L29 14L28 14L28 13L27 13L27 14L26 14L26 12L27 12L27 11L29 11L29 9L28 9L28 10L27 10L27 11L26 11L26 12L25 12L25 10L24 10L24 12L23 12L23 13L22 13L22 12L20 12L20 11L22 11L22 10L21 10L21 9L24 9L24 6ZM28 6L28 7L29 7L29 6ZM40 6L40 7L41 7L41 6ZM42 6L42 7L43 7L43 6ZM16 7L16 8L17 8L17 7ZM0 8L0 13L1 13L1 9L5 9L5 8ZM31 10L31 11L32 11L32 10ZM47 10L47 11L48 11L48 10ZM15 11L15 13L16 13L16 16L17 16L17 13L18 13L18 12L17 12L17 11ZM40 11L40 12L41 12L41 11ZM16 12L16 13L17 13L17 12ZM52 12L52 13L53 13L53 14L54 14L54 15L55 15L55 14L56 14L56 13L55 13L55 12L54 12L54 13L53 13L53 12ZM21 13L21 15L24 15L24 16L26 16L26 14L25 14L25 13L23 13L23 14L22 14L22 13ZM43 13L43 14L41 14L41 16L39 16L39 17L38 17L38 18L37 18L37 17L35 17L35 16L31 16L31 18L30 18L30 19L29 19L29 20L27 20L27 19L28 19L28 18L25 18L25 19L26 19L26 20L25 20L25 21L24 21L24 22L23 22L23 23L24 23L24 24L25 24L25 25L26 25L26 26L24 26L24 27L26 27L26 26L27 26L27 25L29 25L29 26L30 26L30 25L29 25L29 24L30 24L30 22L29 22L29 21L31 21L31 24L32 24L32 26L33 26L33 27L34 27L34 26L36 26L36 28L37 28L37 27L39 27L39 26L41 26L41 24L40 24L40 22L39 22L39 21L43 21L43 20L44 20L44 18L43 18L43 19L42 19L42 18L41 18L41 20L38 20L38 22L37 22L37 24L38 24L38 26L37 26L37 25L33 25L33 24L32 24L32 23L33 23L33 22L34 22L34 23L35 23L35 20L32 20L32 21L31 21L31 18L32 18L32 17L33 17L33 19L36 19L36 20L37 20L37 19L39 19L39 17L41 17L41 16L42 16L42 17L43 17L43 16L42 16L42 15L44 15L44 13ZM54 13L54 14L55 14L55 13ZM6 14L6 15L7 15L7 14ZM24 14L24 15L25 15L25 14ZM30 14L30 15L31 15L31 14ZM36 14L36 15L37 15L37 14ZM1 15L1 16L2 16L2 15ZM27 15L27 16L28 16L28 15ZM46 15L46 16L47 16L47 15ZM21 16L21 17L22 17L22 16ZM23 18L23 19L24 19L24 18ZM13 19L13 20L14 20L14 19ZM11 20L11 21L12 21L12 20ZM25 21L25 22L26 22L26 23L25 23L25 24L27 24L27 22L28 22L28 21ZM8 22L8 23L9 23L9 22ZM19 22L19 23L20 23L20 22ZM6 23L6 24L7 24L7 23ZM15 23L15 24L16 24L16 23ZM28 23L28 24L29 24L29 23ZM38 23L38 24L39 24L39 25L40 25L40 24L39 24L39 23ZM54 24L54 25L55 25L55 24ZM53 26L53 27L54 27L54 26ZM5 27L5 30L8 30L8 27ZM27 27L27 30L30 30L30 27ZM49 27L49 30L52 30L52 27ZM6 28L6 29L7 29L7 28ZM11 28L11 29L12 29L12 28ZM21 28L21 29L22 29L22 28ZM25 28L25 29L26 29L26 28ZM28 28L28 29L29 29L29 28ZM50 28L50 29L51 29L51 28ZM54 28L54 29L53 29L53 30L54 30L54 31L55 31L55 30L54 30L54 29L55 29L55 28ZM18 29L18 30L20 30L20 29ZM2 30L2 31L1 31L1 32L2 32L2 31L3 31L3 30ZM38 30L38 32L39 32L39 30ZM6 31L6 32L7 32L7 33L8 33L8 32L9 32L9 31ZM28 31L28 32L29 32L29 31ZM43 31L43 32L41 32L41 33L39 33L39 34L40 34L40 35L39 35L39 37L40 37L40 38L41 38L41 37L42 37L42 38L43 38L43 37L44 37L44 38L45 38L45 37L44 37L44 36L46 36L46 37L47 37L47 36L48 36L48 35L50 35L50 36L51 36L51 37L50 37L50 38L49 38L49 37L48 37L48 38L47 38L47 39L50 39L50 38L51 38L51 37L52 37L52 35L50 35L50 34L48 34L48 35L44 35L44 33L43 33L43 32L45 32L45 31ZM47 31L47 32L48 32L48 33L49 33L49 32L48 32L48 31ZM19 32L19 33L20 33L20 34L21 34L21 33L20 33L20 32ZM55 32L55 33L56 33L56 32ZM10 34L10 35L11 35L11 34ZM31 34L31 35L33 35L33 36L32 36L32 37L34 37L34 38L33 38L33 39L34 39L34 38L35 38L35 36L37 36L37 34L35 34L35 36L34 36L34 35L33 35L33 34ZM42 34L42 35L43 35L43 36L44 36L44 35L43 35L43 34ZM14 35L14 36L13 36L13 37L12 37L12 38L13 38L13 39L14 39L14 38L13 38L13 37L14 37L14 36L15 36L15 35ZM6 36L6 37L7 37L7 36ZM40 36L40 37L41 37L41 36ZM1 37L1 40L3 40L3 42L1 42L1 43L2 43L2 44L3 44L3 45L2 45L2 46L1 46L1 47L2 47L2 46L3 46L3 47L5 47L5 46L7 46L7 45L6 45L6 44L7 44L7 43L6 43L6 44L5 44L5 43L4 43L4 44L3 44L3 42L4 42L4 40L3 40L3 37ZM15 37L15 38L16 38L16 37ZM6 38L6 39L7 39L7 38ZM10 38L10 39L11 39L11 38ZM27 39L27 40L28 40L28 39ZM38 39L38 40L40 40L40 39ZM6 40L6 41L7 41L7 40ZM23 40L23 42L22 42L22 43L21 43L21 44L20 44L20 45L21 45L21 46L20 46L20 47L23 47L23 46L22 46L22 45L24 45L24 46L25 46L25 45L24 45L24 44L27 44L27 43L25 43L25 41L24 41L24 40ZM30 40L30 41L32 41L32 42L28 42L28 45L29 45L29 44L30 44L30 45L32 45L32 46L33 46L33 45L32 45L32 44L33 44L33 43L34 43L34 42L33 42L33 41L32 41L32 40ZM42 40L42 41L43 41L43 40ZM19 41L19 42L20 42L20 41ZM26 41L26 42L27 42L27 41ZM32 42L32 43L31 43L31 44L32 44L32 43L33 43L33 42ZM40 42L40 43L41 43L41 44L39 44L39 45L38 45L38 46L39 46L39 45L41 45L41 44L42 44L42 42ZM51 42L51 43L50 43L50 44L51 44L51 43L53 43L53 42ZM23 43L23 44L24 44L24 43ZM21 44L21 45L22 45L22 44ZM54 44L54 45L55 45L55 46L54 46L54 47L55 47L55 46L56 46L56 45L55 45L55 44ZM4 45L4 46L5 46L5 45ZM36 45L36 46L37 46L37 45ZM47 45L47 46L45 46L45 47L47 47L47 48L48 48L48 47L50 47L50 46L51 46L51 45L50 45L50 46L48 46L48 45ZM29 47L29 48L30 48L30 47ZM35 47L35 48L36 48L36 47ZM42 47L42 48L43 48L43 47ZM12 48L12 49L10 49L10 50L9 50L9 51L10 51L10 50L12 50L12 49L13 49L13 50L14 50L14 49L13 49L13 48ZM38 48L38 49L39 49L39 48ZM45 48L45 49L46 49L46 48ZM54 48L54 49L55 49L55 50L54 50L54 51L55 51L55 50L56 50L56 48ZM27 49L27 52L30 52L30 49ZM49 49L49 52L52 52L52 49ZM28 50L28 51L29 51L29 50ZM43 50L43 51L44 51L44 50ZM50 50L50 51L51 51L51 50ZM39 51L39 52L38 52L38 54L40 54L40 53L41 53L41 52L40 52L40 51ZM33 53L33 55L35 55L35 56L36 56L36 54L35 54L35 53ZM12 54L12 55L13 55L13 54ZM17 54L17 55L19 55L19 54ZM25 54L25 55L26 55L26 54ZM37 55L37 56L40 56L40 55ZM50 55L50 56L51 56L51 55ZM0 0L0 7L7 7L7 0ZM1 1L1 6L6 6L6 1ZM2 2L2 5L5 5L5 2ZM50 0L50 7L57 7L57 0ZM51 1L51 6L56 6L56 1ZM52 2L52 5L55 5L55 2ZM0 50L0 57L7 57L7 50ZM1 51L1 56L6 56L6 51ZM2 52L2 55L5 55L5 52Z" fill="#000000"/></g></g></svg>
