<?xml version="1.0" encoding="UTF-8"?>
<svg xmlns="http://www.w3.org/2000/svg" version="1.1" width="300" height="300" viewBox="0 0 300 300"><rect x="0" y="0" width="300" height="300" fill="#fefefe"/><g transform="scale(4.615)"><g transform="translate(4,4)"><path fill-rule="evenodd" d="M10 0L10 1L12 1L12 2L10 2L10 4L9 4L9 3L8 3L8 4L9 4L9 5L8 5L8 7L9 7L9 5L11 5L11 3L12 3L12 2L13 2L13 4L12 4L12 7L11 7L11 6L10 6L10 8L6 8L6 9L5 9L5 8L0 8L0 9L3 9L3 10L2 10L2 11L0 11L0 13L1 13L1 14L3 14L3 15L4 15L4 16L3 16L3 18L2 18L2 15L0 15L0 16L1 16L1 20L0 20L0 22L1 22L1 23L0 23L0 24L1 24L1 25L0 25L0 30L2 30L2 31L0 31L0 34L1 34L1 33L2 33L2 31L3 31L3 30L4 30L4 31L9 31L9 32L5 32L5 36L6 36L6 37L8 37L8 38L6 38L6 39L3 39L3 37L4 37L4 38L5 38L5 37L4 37L4 35L3 35L3 37L2 37L2 36L1 36L1 35L0 35L0 39L1 39L1 43L0 43L0 44L1 44L1 43L7 43L7 42L8 42L8 41L9 41L9 42L10 42L10 48L12 48L12 49L10 49L10 50L9 50L9 49L8 49L8 48L9 48L9 46L8 46L8 44L9 44L9 43L8 43L8 44L2 44L2 45L1 45L1 46L0 46L0 48L5 48L5 47L7 47L7 48L6 48L6 49L8 49L8 51L9 51L9 52L8 52L8 57L9 57L9 56L10 56L10 55L9 55L9 53L10 53L10 54L11 54L11 55L13 55L13 57L16 57L16 56L17 56L17 57L19 57L19 55L20 55L20 54L19 54L19 53L20 53L20 52L23 52L23 51L21 51L21 50L25 50L25 49L26 49L26 52L24 52L24 53L23 53L23 54L22 54L22 53L21 53L21 54L22 54L22 55L21 55L21 56L20 56L20 57L21 57L21 56L24 56L24 57L26 57L26 56L27 56L27 57L29 57L29 56L30 56L30 57L31 57L31 56L35 56L35 57L39 57L39 56L37 56L37 55L41 55L41 57L44 57L44 56L42 56L42 55L44 55L44 54L45 54L45 57L47 57L47 55L48 55L48 56L50 56L50 57L52 57L52 55L51 55L51 53L52 53L52 54L53 54L53 55L54 55L54 56L53 56L53 57L54 57L54 56L55 56L55 57L56 57L56 56L55 56L55 53L56 53L56 50L57 50L57 48L56 48L56 46L57 46L57 45L56 45L56 44L55 44L55 43L56 43L56 42L57 42L57 41L56 41L56 42L55 42L55 39L57 39L57 36L55 36L55 35L56 35L56 34L57 34L57 32L56 32L56 30L57 30L57 29L55 29L55 30L54 30L54 28L57 28L57 27L55 27L55 26L57 26L57 25L56 25L56 22L57 22L57 21L56 21L56 20L55 20L55 19L56 19L56 16L57 16L57 15L56 15L56 14L57 14L57 13L56 13L56 14L55 14L55 13L54 13L54 12L55 12L55 11L56 11L56 10L54 10L54 11L53 11L53 10L52 10L52 11L51 11L51 10L50 10L50 8L49 8L49 6L48 6L48 7L47 7L47 5L48 5L48 0L45 0L45 2L44 2L44 3L43 3L43 4L42 4L42 2L43 2L43 0L41 0L41 1L40 1L40 0L39 0L39 1L38 1L38 0L37 0L37 1L38 1L38 2L39 2L39 3L36 3L36 0L35 0L35 1L33 1L33 2L32 2L32 3L31 3L31 2L30 2L30 1L31 1L31 0L29 0L29 2L28 2L28 3L27 3L27 4L26 4L26 3L23 3L23 2L27 2L27 1L26 1L26 0L23 0L23 1L22 1L22 0L21 0L21 3L23 3L23 4L19 4L19 3L18 3L18 2L20 2L20 0L18 0L18 1L16 1L16 2L15 2L15 1L14 1L14 0L13 0L13 1L12 1L12 0ZM8 1L8 2L9 2L9 1ZM13 1L13 2L14 2L14 4L13 4L13 5L14 5L14 6L13 6L13 7L14 7L14 6L15 6L15 7L16 7L16 8L14 8L14 10L15 10L15 13L13 13L13 12L14 12L14 11L13 11L13 12L12 12L12 13L11 13L11 11L9 11L9 12L10 12L10 14L9 14L9 13L8 13L8 14L9 14L9 16L8 16L8 15L5 15L5 14L4 14L4 15L5 15L5 16L4 16L4 17L5 17L5 18L7 18L7 19L4 19L4 18L3 18L3 25L1 25L1 28L2 28L2 29L3 29L3 28L4 28L4 26L7 26L7 25L8 25L8 26L9 26L9 31L10 31L10 32L9 32L9 34L10 34L10 37L9 37L9 35L8 35L8 34L7 34L7 33L6 33L6 34L7 34L7 35L6 35L6 36L8 36L8 37L9 37L9 39L11 39L11 34L12 34L12 35L13 35L13 36L14 36L14 35L15 35L15 37L16 37L16 38L15 38L15 39L16 39L16 40L17 40L17 39L18 39L18 37L17 37L17 36L18 36L18 35L19 35L19 37L21 37L21 40L20 40L20 42L19 42L19 41L18 41L18 42L17 42L17 41L15 41L15 42L17 42L17 43L18 43L18 42L19 42L19 44L20 44L20 42L21 42L21 43L22 43L22 42L24 42L24 41L25 41L25 43L27 43L27 44L24 44L24 45L22 45L22 44L21 44L21 45L19 45L19 46L18 46L18 47L17 47L17 45L18 45L18 44L16 44L16 43L15 43L15 45L14 45L14 46L15 46L15 47L14 47L14 48L19 48L19 49L20 49L20 50L17 50L17 49L12 49L12 50L13 50L13 53L12 53L12 51L11 51L11 50L10 50L10 51L11 51L11 54L13 54L13 55L14 55L14 56L16 56L16 55L15 55L15 54L16 54L16 53L17 53L17 52L18 52L18 51L19 51L19 52L20 52L20 50L21 50L21 49L23 49L23 47L24 47L24 49L25 49L25 48L27 48L27 47L28 47L28 48L30 48L30 47L28 47L28 46L29 46L29 44L28 44L28 42L32 42L32 43L33 43L33 44L30 44L30 45L33 45L33 46L35 46L35 47L33 47L33 48L32 48L32 49L33 49L33 50L31 50L31 53L30 53L30 54L27 54L27 53L24 53L24 54L23 54L23 55L24 55L24 56L26 56L26 55L27 55L27 56L29 56L29 55L30 55L30 56L31 56L31 54L32 54L32 53L33 53L33 54L35 54L35 56L36 56L36 54L35 54L35 51L33 51L33 50L36 50L36 52L38 52L38 50L41 50L41 51L42 51L42 50L41 50L41 48L42 48L42 49L43 49L43 51L46 51L46 50L47 50L47 53L45 53L45 52L44 52L44 53L43 53L43 52L42 52L42 53L43 53L43 54L44 54L44 53L45 53L45 54L48 54L48 50L47 50L47 49L48 49L48 48L49 48L49 47L48 47L48 48L46 48L46 47L45 47L45 48L44 48L44 45L45 45L45 46L48 46L48 45L49 45L49 44L50 44L50 47L51 47L51 48L53 48L53 47L55 47L55 46L56 46L56 45L55 45L55 44L54 44L54 46L53 46L53 45L52 45L52 44L53 44L53 43L54 43L54 42L53 42L53 41L51 41L51 42L50 42L50 43L47 43L47 45L45 45L45 44L46 44L46 43L45 43L45 44L44 44L44 42L48 42L48 41L49 41L49 36L50 36L50 35L52 35L52 36L51 36L51 37L50 37L50 39L51 39L51 40L53 40L53 35L55 35L55 34L56 34L56 32L53 32L53 31L50 31L50 32L49 32L49 31L48 31L48 30L47 30L47 29L46 29L46 30L47 30L47 31L48 31L48 32L43 32L43 30L44 30L44 31L45 31L45 28L46 28L46 27L47 27L47 25L48 25L48 24L50 24L50 22L51 22L51 21L54 21L54 22L56 22L56 21L55 21L55 20L53 20L53 19L52 19L52 20L51 20L51 21L49 21L49 22L47 22L47 21L48 21L48 20L47 20L47 19L48 19L48 18L47 18L47 17L50 17L50 18L49 18L49 19L51 19L51 17L53 17L53 18L55 18L55 17L54 17L54 16L53 16L53 15L54 15L54 13L53 13L53 12L52 12L52 13L53 13L53 15L52 15L52 16L51 16L51 15L50 15L50 14L51 14L51 12L50 12L50 10L47 10L47 9L48 9L48 8L47 8L47 7L46 7L46 5L47 5L47 3L44 3L44 6L43 6L43 7L42 7L42 6L41 6L41 5L40 5L40 4L41 4L41 3L39 3L39 4L38 4L38 6L37 6L37 7L36 7L36 5L37 5L37 4L36 4L36 5L35 5L35 3L32 3L32 4L31 4L31 3L30 3L30 2L29 2L29 3L28 3L28 4L31 4L31 8L32 8L32 10L31 10L31 11L30 11L30 10L29 10L29 9L28 9L28 10L27 10L27 11L26 11L26 12L25 12L25 10L23 10L23 8L24 8L24 6L23 6L23 5L24 5L24 4L23 4L23 5L21 5L21 8L20 8L20 10L21 10L21 11L20 11L20 14L21 14L21 13L22 13L22 14L23 14L23 13L26 13L26 14L25 14L25 15L26 15L26 17L25 17L25 16L24 16L24 15L20 15L20 16L19 16L19 15L18 15L18 16L17 16L17 13L18 13L18 12L17 12L17 13L16 13L16 11L18 11L18 10L19 10L19 9L16 9L16 8L19 8L19 7L20 7L20 5L19 5L19 4L17 4L17 2L16 2L16 3L15 3L15 2L14 2L14 1ZM46 1L46 2L47 2L47 1ZM15 4L15 5L16 5L16 4ZM25 4L25 8L26 8L26 4ZM32 4L32 5L34 5L34 7L33 7L33 6L32 6L32 7L33 7L33 9L34 9L34 8L35 8L35 9L37 9L37 10L36 10L36 11L35 11L35 13L36 13L36 14L32 14L32 13L30 13L30 14L29 14L29 13L28 13L28 12L29 12L29 11L27 11L27 12L26 12L26 13L28 13L28 14L29 14L29 16L28 16L28 15L27 15L27 16L28 16L28 17L26 17L26 19L25 19L25 17L22 17L22 16L20 16L20 17L19 17L19 16L18 16L18 17L17 17L17 16L16 16L16 13L15 13L15 14L14 14L14 16L13 16L13 14L11 14L11 15L10 15L10 16L9 16L9 18L11 18L11 19L9 19L9 21L8 21L8 20L6 20L6 21L5 21L5 20L4 20L4 21L5 21L5 22L6 22L6 23L7 23L7 24L5 24L5 23L4 23L4 25L3 25L3 26L4 26L4 25L7 25L7 24L8 24L8 23L10 23L10 24L11 24L11 22L14 22L14 23L12 23L12 26L11 26L11 25L10 25L10 26L11 26L11 27L10 27L10 30L12 30L12 31L11 31L11 32L12 32L12 34L15 34L15 35L16 35L16 36L17 36L17 34L15 34L15 33L19 33L19 34L20 34L20 36L23 36L23 37L24 37L24 38L22 38L22 39L24 39L24 40L23 40L23 41L24 41L24 40L25 40L25 39L26 39L26 40L27 40L27 41L26 41L26 42L27 42L27 41L28 41L28 39L26 39L26 38L25 38L25 37L27 37L27 38L28 38L28 37L27 37L27 36L26 36L26 35L27 35L27 34L26 34L26 35L25 35L25 33L27 33L27 31L32 31L32 32L31 32L31 33L29 33L29 32L28 32L28 33L29 33L29 34L30 34L30 36L29 36L29 37L31 37L31 38L29 38L29 39L33 39L33 40L35 40L35 42L37 42L37 43L34 43L34 42L33 42L33 41L32 41L32 40L31 40L31 41L32 41L32 42L33 42L33 43L34 43L34 45L36 45L36 48L35 48L35 49L36 49L36 50L38 50L38 49L39 49L39 48L41 48L41 46L43 46L43 45L44 45L44 44L43 44L43 42L44 42L44 40L45 40L45 41L47 41L47 39L48 39L48 37L47 37L47 39L43 39L43 41L41 41L41 42L42 42L42 44L41 44L41 45L39 45L39 42L40 42L40 41L39 41L39 42L38 42L38 40L39 40L39 38L38 38L38 37L37 37L37 36L38 36L38 33L37 33L37 32L35 32L35 30L33 30L33 31L32 31L32 30L31 30L31 29L32 29L32 28L31 28L31 26L32 26L32 27L33 27L33 28L35 28L35 29L38 29L38 28L40 28L40 27L36 27L36 26L34 26L34 27L33 27L33 26L32 26L32 24L33 24L33 25L37 25L37 26L38 26L38 25L39 25L39 24L37 24L37 22L38 22L38 21L39 21L39 22L40 22L40 24L41 24L41 22L42 22L42 23L43 23L43 25L41 25L41 26L43 26L43 27L44 27L44 28L43 28L43 29L41 29L41 30L43 30L43 29L44 29L44 28L45 28L45 27L44 27L44 26L45 26L45 25L44 25L44 20L45 20L45 21L47 21L47 20L46 20L46 19L45 19L45 18L44 18L44 15L47 15L47 16L45 16L45 17L47 17L47 16L48 16L48 15L49 15L49 16L50 16L50 15L49 15L49 14L50 14L50 12L49 12L49 11L47 11L47 10L46 10L46 9L47 9L47 8L46 8L46 7L45 7L45 6L44 6L44 8L43 8L43 9L39 9L39 11L38 11L38 8L40 8L40 7L41 7L41 6L40 6L40 5L39 5L39 6L38 6L38 7L37 7L37 8L35 8L35 5L34 5L34 4ZM45 4L45 5L46 5L46 4ZM27 5L27 8L30 8L30 5ZM16 6L16 7L17 7L17 6ZM18 6L18 7L19 7L19 6ZM22 6L22 8L23 8L23 6ZM28 6L28 7L29 7L29 6ZM39 6L39 7L40 7L40 6ZM10 8L10 10L11 10L11 8ZM44 8L44 9L43 9L43 11L42 11L42 10L41 10L41 12L40 12L40 11L39 11L39 12L40 12L40 13L38 13L38 14L37 14L37 15L35 15L35 16L31 16L31 18L30 18L30 19L28 19L28 18L27 18L27 19L26 19L26 20L25 20L25 21L24 21L24 20L22 20L22 19L21 19L21 18L22 18L22 17L20 17L20 21L17 21L17 20L16 20L16 19L17 19L17 17L16 17L16 16L14 16L14 18L13 18L13 19L11 19L11 20L10 20L10 21L9 21L9 22L10 22L10 21L12 21L12 20L13 20L13 21L14 21L14 22L16 22L16 21L17 21L17 22L18 22L18 23L19 23L19 24L21 24L21 25L20 25L20 27L19 27L19 26L18 26L18 27L17 27L17 24L16 24L16 23L14 23L14 26L12 26L12 27L11 27L11 29L13 29L13 31L12 31L12 32L13 32L13 33L15 33L15 32L17 32L17 30L18 30L18 29L20 29L20 31L19 31L19 32L20 32L20 31L23 31L23 32L21 32L21 33L20 33L20 34L21 34L21 35L23 35L23 36L24 36L24 34L23 34L23 33L25 33L25 32L26 32L26 31L25 31L25 32L24 32L24 31L23 31L23 28L24 28L24 27L26 27L26 26L27 26L27 25L28 25L28 26L29 26L29 25L31 25L31 24L32 24L32 23L35 23L35 21L33 21L33 20L32 20L32 21L31 21L31 23L30 23L30 22L28 22L28 21L30 21L30 20L31 20L31 18L32 18L32 19L34 19L34 20L35 20L35 19L36 19L36 20L37 20L37 21L38 21L38 19L39 19L39 17L41 17L41 16L42 16L42 17L43 17L43 16L42 16L42 15L44 15L44 14L41 14L41 13L43 13L43 12L44 12L44 13L45 13L45 14L47 14L47 13L49 13L49 12L45 12L45 11L46 11L46 10L45 10L45 11L44 11L44 9L46 9L46 8ZM51 8L51 9L52 9L52 8ZM53 8L53 9L54 9L54 8ZM55 8L55 9L56 9L56 8ZM6 9L6 10L7 10L7 9ZM8 9L8 10L9 10L9 9ZM12 9L12 10L13 10L13 9ZM3 10L3 11L4 11L4 13L6 13L6 14L7 14L7 13L6 13L6 12L8 12L8 11L5 11L5 10ZM22 10L22 11L21 11L21 12L22 12L22 13L23 13L23 12L24 12L24 11L23 11L23 10ZM32 10L32 11L31 11L31 12L33 12L33 13L34 13L34 12L33 12L33 10ZM2 12L2 13L3 13L3 12ZM30 14L30 15L31 15L31 14ZM38 14L38 15L39 15L39 16L38 16L38 17L37 17L37 16L35 16L35 17L37 17L37 18L38 18L38 17L39 17L39 16L41 16L41 14L40 14L40 15L39 15L39 14ZM6 16L6 17L7 17L7 16ZM11 17L11 18L12 18L12 17ZM15 17L15 19L16 19L16 17ZM18 17L18 19L19 19L19 17ZM23 18L23 19L24 19L24 18ZM41 18L41 19L42 19L42 18ZM43 18L43 20L44 20L44 18ZM13 19L13 20L14 20L14 19ZM15 20L15 21L16 21L16 20ZM39 20L39 21L42 21L42 20ZM1 21L1 22L2 22L2 21ZM6 21L6 22L7 22L7 23L8 23L8 21ZM22 21L22 22L21 22L21 24L24 24L24 25L21 25L21 27L20 27L20 28L21 28L21 29L22 29L22 28L21 28L21 27L22 27L22 26L26 26L26 25L25 25L25 24L30 24L30 23L27 23L27 21L25 21L25 22L26 22L26 23L25 23L25 24L24 24L24 23L22 23L22 22L24 22L24 21ZM19 22L19 23L20 23L20 22ZM45 22L45 24L46 24L46 25L47 25L47 24L46 24L46 23L47 23L47 22ZM52 23L52 24L51 24L51 25L50 25L50 26L53 26L53 27L54 27L54 26L53 26L53 25L55 25L55 24L53 24L53 23ZM15 24L15 25L16 25L16 24ZM14 26L14 27L12 27L12 28L13 28L13 29L15 29L15 30L14 30L14 32L15 32L15 31L16 31L16 29L18 29L18 28L17 28L17 27L16 27L16 29L15 29L15 26ZM2 27L2 28L3 28L3 27ZM5 27L5 30L8 30L8 27ZM27 27L27 30L30 30L30 27ZM41 27L41 28L42 28L42 27ZM49 27L49 30L52 30L52 27ZM6 28L6 29L7 29L7 28ZM25 28L25 29L26 29L26 28ZM28 28L28 29L29 29L29 28ZM50 28L50 29L51 29L51 28ZM39 29L39 30L38 30L38 32L39 32L39 30L40 30L40 29ZM32 32L32 33L31 33L31 35L35 35L35 36L37 36L37 34L35 34L35 33L33 33L33 32ZM41 32L41 33L39 33L39 34L40 34L40 35L39 35L39 37L40 37L40 38L41 38L41 39L42 39L42 38L43 38L43 37L44 37L44 38L45 38L45 37L44 37L44 36L47 36L47 35L46 35L46 34L45 34L45 33L43 33L43 32ZM48 32L48 33L49 33L49 32ZM50 32L50 34L48 34L48 35L50 35L50 34L52 34L52 35L53 35L53 34L52 34L52 33L53 33L53 32L52 32L52 33L51 33L51 32ZM21 33L21 34L22 34L22 33ZM32 33L32 34L33 34L33 33ZM54 33L54 34L55 34L55 33ZM42 34L42 35L41 35L41 36L40 36L40 37L41 37L41 36L44 36L44 35L45 35L45 34ZM32 36L32 37L33 37L33 38L34 38L34 39L35 39L35 40L38 40L38 38L37 38L37 39L35 39L35 37L33 37L33 36ZM13 37L13 39L12 39L12 40L11 40L11 45L13 45L13 44L12 44L12 43L14 43L14 42L12 42L12 40L13 40L13 41L14 41L14 37ZM54 37L54 38L55 38L55 37ZM1 38L1 39L2 39L2 38ZM19 38L19 39L20 39L20 38ZM51 38L51 39L52 39L52 38ZM6 39L6 40L4 40L4 41L6 41L6 42L7 42L7 41L8 41L8 40L7 40L7 39ZM6 40L6 41L7 41L7 40ZM9 40L9 41L10 41L10 40ZM29 40L29 41L30 41L30 40ZM2 41L2 42L3 42L3 41ZM21 41L21 42L22 42L22 41ZM51 42L51 43L50 43L50 44L51 44L51 43L53 43L53 42ZM27 44L27 45L26 45L26 47L27 47L27 45L28 45L28 44ZM4 45L4 46L3 46L3 47L5 47L5 45ZM6 45L6 46L7 46L7 45ZM21 45L21 46L19 46L19 48L20 48L20 47L23 47L23 46L22 46L22 45ZM24 45L24 46L25 46L25 45ZM38 45L38 46L39 46L39 45ZM51 45L51 47L53 47L53 46L52 46L52 45ZM1 46L1 47L2 47L2 46ZM12 46L12 47L13 47L13 46ZM31 46L31 47L32 47L32 46ZM38 47L38 48L37 48L37 49L38 49L38 48L39 48L39 47ZM42 47L42 48L43 48L43 49L44 49L44 50L46 50L46 49L44 49L44 48L43 48L43 47ZM33 48L33 49L34 49L34 48ZM55 48L55 50L54 50L54 51L55 51L55 50L56 50L56 48ZM27 49L27 52L30 52L30 49ZM49 49L49 52L52 52L52 49ZM15 50L15 51L16 51L16 50ZM28 50L28 51L29 51L29 50ZM50 50L50 51L51 51L51 50ZM32 51L32 52L33 52L33 53L34 53L34 52L33 52L33 51ZM39 51L39 53L37 53L37 54L40 54L40 53L41 53L41 52L40 52L40 51ZM15 52L15 53L14 53L14 54L15 54L15 53L16 53L16 52ZM53 52L53 53L54 53L54 52ZM17 54L17 56L18 56L18 55L19 55L19 54ZM50 55L50 56L51 56L51 55ZM11 56L11 57L12 57L12 56ZM0 0L0 7L7 7L7 0ZM1 1L1 6L6 6L6 1ZM2 2L2 5L5 5L5 2ZM50 0L50 7L57 7L57 0ZM51 1L51 6L56 6L56 1ZM52 2L52 5L55 5L55 2ZM0 50L0 57L7 57L7 50ZM1 51L1 56L6 56L6 51ZM2 52L2 55L5 55L5 52Z" fill="#000000"/></g></g></svg>
