<?xml version="1.0" encoding="UTF-8"?>
<svg xmlns="http://www.w3.org/2000/svg" version="1.1" width="300" height="300" viewBox="0 0 300 300"><rect x="0" y="0" width="300" height="300" fill="#fefefe"/><g transform="scale(4.615)"><g transform="translate(4,4)"><path fill-rule="evenodd" d="M12 0L12 1L11 1L11 2L10 2L10 1L8 1L8 2L10 2L10 3L11 3L11 6L10 6L10 8L11 8L11 9L14 9L14 7L15 7L15 8L16 8L16 9L15 9L15 10L12 10L12 11L10 11L10 10L9 10L9 8L6 8L6 9L5 9L5 8L0 8L0 9L4 9L4 10L0 10L0 11L2 11L2 12L0 12L0 13L2 13L2 12L3 12L3 13L4 13L4 12L6 12L6 13L7 13L7 14L4 14L4 15L3 15L3 14L2 14L2 15L1 15L1 16L2 16L2 15L3 15L3 16L4 16L4 15L5 15L5 17L7 17L7 18L6 18L6 19L4 19L4 20L6 20L6 21L7 21L7 22L5 22L5 21L4 21L4 22L3 22L3 23L2 23L2 24L4 24L4 23L7 23L7 24L5 24L5 26L4 26L4 25L3 25L3 26L2 26L2 25L1 25L1 27L0 27L0 28L1 28L1 29L0 29L0 30L1 30L1 31L0 31L0 35L1 35L1 36L2 36L2 37L3 37L3 39L4 39L4 40L0 40L0 41L3 41L3 42L4 42L4 43L2 43L2 42L0 42L0 43L1 43L1 44L0 44L0 48L5 48L5 47L9 47L9 48L8 48L8 51L9 51L9 50L10 50L10 52L8 52L8 57L10 57L10 56L11 56L11 57L12 57L12 56L13 56L13 55L14 55L14 54L15 54L15 55L16 55L16 56L15 56L15 57L16 57L16 56L17 56L17 57L21 57L21 56L23 56L23 57L26 57L26 56L27 56L27 57L29 57L29 56L30 56L30 57L31 57L31 56L35 56L35 57L40 57L40 56L41 56L41 57L44 57L44 56L41 56L41 54L42 54L42 55L44 55L44 54L45 54L45 53L44 53L44 52L45 52L45 51L46 51L46 53L47 53L47 55L48 55L48 56L46 56L46 57L49 57L49 56L50 56L50 57L52 57L52 55L51 55L51 53L52 53L52 54L54 54L54 53L57 53L57 52L56 52L56 51L54 51L54 50L57 50L57 48L56 48L56 46L57 46L57 45L56 45L56 44L55 44L55 43L56 43L56 42L57 42L57 41L56 41L56 42L55 42L55 39L57 39L57 37L55 37L55 36L56 36L56 34L57 34L57 32L56 32L56 30L57 30L57 28L55 28L55 27L56 27L56 26L57 26L57 25L56 25L56 22L57 22L57 21L56 21L56 20L55 20L55 19L56 19L56 18L57 18L57 17L56 17L56 16L57 16L57 15L56 15L56 14L57 14L57 12L55 12L55 11L56 11L56 8L55 8L55 10L54 10L54 11L51 11L51 10L50 10L50 8L49 8L49 6L48 6L48 7L47 7L47 5L48 5L48 0L45 0L45 2L44 2L44 3L43 3L43 4L40 4L40 5L39 5L39 6L38 6L38 7L37 7L37 5L38 5L38 4L39 4L39 3L41 3L41 2L43 2L43 0L41 0L41 1L40 1L40 0L39 0L39 1L38 1L38 0L37 0L37 1L38 1L38 2L39 2L39 3L36 3L36 0L35 0L35 1L32 1L32 3L31 3L31 4L26 4L26 3L23 3L23 4L24 4L24 5L21 5L21 4L19 4L19 1L20 1L20 2L21 2L21 1L22 1L22 0L21 0L21 1L20 1L20 0L17 0L17 1L16 1L16 2L17 2L17 3L18 3L18 4L17 4L17 6L16 6L16 7L15 7L15 6L14 6L14 5L13 5L13 4L14 4L14 2L15 2L15 1L14 1L14 2L13 2L13 0ZM23 0L23 2L27 2L27 3L28 3L28 2L27 2L27 1L25 1L25 0ZM29 0L29 2L30 2L30 1L31 1L31 0ZM17 1L17 2L18 2L18 1ZM46 1L46 2L47 2L47 1ZM11 2L11 3L12 3L12 2ZM33 2L33 3L32 3L32 4L31 4L31 8L32 8L32 10L31 10L31 11L30 11L30 10L27 10L27 11L26 11L26 12L25 12L25 11L23 11L23 12L25 12L25 13L26 13L26 14L27 14L27 15L26 15L26 20L25 20L25 21L24 21L24 20L22 20L22 21L21 21L21 19L20 19L20 18L22 18L22 17L25 17L25 16L24 16L24 15L25 15L25 14L23 14L23 13L22 13L22 12L20 12L20 11L19 11L19 12L20 12L20 14L21 14L21 13L22 13L22 14L23 14L23 15L18 15L18 16L19 16L19 17L18 17L18 18L17 18L17 17L16 17L16 16L17 16L17 13L18 13L18 12L17 12L17 11L18 11L18 10L17 10L17 9L16 9L16 10L15 10L15 13L13 13L13 14L12 14L12 13L11 13L11 12L10 12L10 11L8 11L8 9L6 9L6 10L5 10L5 11L6 11L6 12L7 12L7 11L8 11L8 13L9 13L9 14L10 14L10 15L9 15L9 16L10 16L10 15L12 15L12 16L14 16L14 18L13 18L13 17L11 17L11 18L13 18L13 19L14 19L14 20L13 20L13 21L11 21L11 22L10 22L10 23L9 23L9 25L8 25L8 24L7 24L7 25L6 25L6 26L9 26L9 27L10 27L10 24L11 24L11 26L12 26L12 27L15 27L15 26L18 26L18 27L17 27L17 28L18 28L18 29L16 29L16 28L14 28L14 29L16 29L16 31L15 31L15 30L13 30L13 31L10 31L10 29L11 29L11 30L12 30L12 29L11 29L11 28L10 28L10 29L9 29L9 31L5 31L5 32L7 32L7 33L6 33L6 34L5 34L5 35L6 35L6 36L7 36L7 37L6 37L6 38L5 38L5 36L4 36L4 35L3 35L3 34L2 34L2 33L3 33L3 32L4 32L4 30L2 30L2 29L4 29L4 26L3 26L3 27L2 27L2 29L1 29L1 30L2 30L2 32L1 32L1 35L2 35L2 36L3 36L3 37L4 37L4 39L6 39L6 40L4 40L4 42L5 42L5 43L6 43L6 44L5 44L5 45L6 45L6 46L9 46L9 47L10 47L10 46L14 46L14 47L12 47L12 48L11 48L11 49L13 49L13 50L14 50L14 49L15 49L15 52L14 52L14 51L13 51L13 54L11 54L11 56L12 56L12 55L13 55L13 54L14 54L14 53L15 53L15 54L16 54L16 53L17 53L17 52L16 52L16 50L18 50L18 49L17 49L17 45L18 45L18 44L16 44L16 43L14 43L14 40L15 40L15 39L16 39L16 40L19 40L19 39L20 39L20 38L18 38L18 37L17 37L17 35L19 35L19 37L21 37L21 38L24 38L24 37L23 37L23 36L24 36L24 34L23 34L23 33L25 33L25 34L27 34L27 35L26 35L26 36L27 36L27 37L28 37L28 38L27 38L27 39L28 39L28 40L26 40L26 37L25 37L25 40L24 40L24 39L23 39L23 40L20 40L20 42L19 42L19 41L15 41L15 42L17 42L17 43L18 43L18 42L19 42L19 45L20 45L20 46L21 46L21 45L22 45L22 46L23 46L23 47L20 47L20 51L21 51L21 52L20 52L20 53L19 53L19 54L18 54L18 55L17 55L17 56L18 56L18 55L19 55L19 56L21 56L21 55L22 55L22 54L23 54L23 55L24 55L24 56L25 56L25 53L24 53L24 52L26 52L26 50L21 50L21 49L23 49L23 47L26 47L26 48L27 48L27 47L26 47L26 45L28 45L28 46L31 46L31 47L32 47L32 46L35 46L35 47L33 47L33 48L32 48L32 51L31 51L31 53L30 53L30 54L27 54L27 53L26 53L26 55L27 55L27 56L29 56L29 55L30 55L30 56L31 56L31 54L32 54L32 53L33 53L33 54L34 54L34 55L35 55L35 56L36 56L36 54L35 54L35 50L36 50L36 52L37 52L37 53L38 53L38 54L37 54L37 56L40 56L40 55L38 55L38 54L40 54L40 53L41 53L41 52L43 52L43 51L42 51L42 50L41 50L41 48L42 48L42 49L43 49L43 48L44 48L44 49L45 49L45 50L44 50L44 51L45 51L45 50L46 50L46 51L47 51L47 53L48 53L48 50L47 50L47 49L48 49L48 48L49 48L49 47L48 47L48 46L47 46L47 45L48 45L48 44L50 44L50 45L49 45L49 46L50 46L50 47L51 47L51 48L52 48L52 47L55 47L55 46L56 46L56 45L55 45L55 44L54 44L54 46L53 46L53 45L52 45L52 44L53 44L53 43L54 43L54 42L53 42L53 41L54 41L54 40L53 40L53 41L51 41L51 42L50 42L50 43L49 43L49 42L48 42L48 41L49 41L49 39L51 39L51 40L52 40L52 39L53 39L53 35L55 35L55 34L56 34L56 32L53 32L53 31L51 31L51 33L52 33L52 34L50 34L50 32L49 32L49 31L48 31L48 29L46 29L46 30L47 30L47 31L48 31L48 32L47 32L47 33L45 33L45 32L43 32L43 31L44 31L44 30L45 30L45 28L46 28L46 27L47 27L47 28L48 28L48 25L49 25L49 24L50 24L50 26L51 26L51 25L55 25L55 26L56 26L56 25L55 25L55 24L53 24L53 23L51 23L51 24L50 24L50 22L51 22L51 21L53 21L53 22L56 22L56 21L55 21L55 20L53 20L53 19L52 19L52 18L55 18L55 16L51 16L51 17L50 17L50 14L51 14L51 12L50 12L50 10L47 10L47 9L49 9L49 8L47 8L47 7L46 7L46 6L45 6L45 4L46 4L46 5L47 5L47 3L44 3L44 6L43 6L43 7L44 7L44 9L43 9L43 10L44 10L44 9L46 9L46 10L45 10L45 11L44 11L44 13L43 13L43 11L42 11L42 10L40 10L40 9L42 9L42 8L41 8L41 7L42 7L42 6L41 6L41 5L40 5L40 6L39 6L39 7L40 7L40 8L39 8L39 9L38 9L38 11L39 11L39 12L40 12L40 13L38 13L38 14L37 14L37 13L35 13L35 12L37 12L37 11L36 11L36 10L37 10L37 9L35 9L35 8L37 8L37 7L36 7L36 5L37 5L37 4L36 4L36 5L35 5L35 4L34 4L34 3L35 3L35 2ZM8 3L8 4L9 4L9 3ZM15 4L15 5L16 5L16 4ZM18 4L18 6L17 6L17 7L16 7L16 8L17 8L17 7L18 7L18 6L19 6L19 7L20 7L20 5L19 5L19 4ZM25 4L25 8L24 8L24 6L23 6L23 8L19 8L19 9L20 9L20 10L21 10L21 11L22 11L22 10L23 10L23 8L24 8L24 9L25 9L25 8L26 8L26 4ZM32 4L32 5L34 5L34 7L33 7L33 6L32 6L32 7L33 7L33 9L34 9L34 8L35 8L35 5L34 5L34 4ZM8 5L8 7L9 7L9 5ZM27 5L27 8L30 8L30 5ZM11 6L11 7L12 7L12 6ZM13 6L13 7L14 7L14 6ZM21 6L21 7L22 7L22 6ZM28 6L28 7L29 7L29 6ZM40 6L40 7L41 7L41 6ZM44 6L44 7L45 7L45 8L46 8L46 9L47 9L47 8L46 8L46 7L45 7L45 6ZM51 8L51 9L52 9L52 10L53 10L53 9L54 9L54 8L53 8L53 9L52 9L52 8ZM6 10L6 11L7 11L7 10ZM32 10L32 12L31 12L31 13L30 13L30 14L29 14L29 13L28 13L28 12L29 12L29 11L27 11L27 12L26 12L26 13L28 13L28 14L29 14L29 16L28 16L28 15L27 15L27 16L28 16L28 17L27 17L27 18L28 18L28 19L27 19L27 20L28 20L28 19L30 19L30 21L25 21L25 22L26 22L26 23L25 23L25 24L24 24L24 23L23 23L23 25L22 25L22 26L20 26L20 25L21 25L21 24L20 24L20 25L19 25L19 23L20 23L20 22L18 22L18 21L20 21L20 20L19 20L19 18L20 18L20 17L22 17L22 16L20 16L20 17L19 17L19 18L18 18L18 21L16 21L16 20L17 20L17 18L16 18L16 19L15 19L15 21L16 21L16 22L15 22L15 23L14 23L14 21L13 21L13 23L12 23L12 26L14 26L14 24L15 24L15 25L16 25L16 24L17 24L17 25L18 25L18 26L20 26L20 28L21 28L21 29L22 29L22 28L21 28L21 27L22 27L22 26L26 26L26 27L24 27L24 28L26 28L26 29L23 29L23 30L25 30L25 31L21 31L21 30L20 30L20 29L18 29L18 30L17 30L17 31L18 31L18 32L15 32L15 31L14 31L14 32L15 32L15 33L14 33L14 34L15 34L15 33L18 33L18 34L19 34L19 35L20 35L20 33L21 33L21 34L22 34L22 33L21 33L21 32L25 32L25 33L26 33L26 32L28 32L28 33L29 33L29 34L30 34L30 36L29 36L29 37L31 37L31 38L29 38L29 39L33 39L33 40L35 40L35 42L37 42L37 43L36 43L36 44L35 44L35 43L34 43L34 42L33 42L33 41L32 41L32 40L31 40L31 41L32 41L32 42L30 42L30 40L28 40L28 41L26 41L26 42L27 42L27 43L25 43L25 41L24 41L24 40L23 40L23 41L24 41L24 42L22 42L22 41L21 41L21 42L20 42L20 44L22 44L22 45L24 45L24 46L25 46L25 45L24 45L24 44L27 44L27 43L28 43L28 45L29 45L29 44L31 44L31 46L32 46L32 44L33 44L33 43L34 43L34 45L36 45L36 46L37 46L37 47L36 47L36 48L33 48L33 49L36 49L36 50L38 50L38 51L40 51L40 52L41 52L41 50L38 50L38 49L39 49L39 48L41 48L41 46L43 46L43 47L42 47L42 48L43 48L43 47L44 47L44 48L45 48L45 47L47 47L47 48L48 48L48 47L47 47L47 46L45 46L45 45L47 45L47 43L48 43L48 42L47 42L47 43L46 43L46 44L45 44L45 45L44 45L44 42L45 42L45 41L44 41L44 40L47 40L47 39L48 39L48 38L51 38L51 39L52 39L52 38L51 38L51 37L52 37L52 35L53 35L53 34L52 34L52 35L50 35L50 34L49 34L49 35L50 35L50 37L49 37L49 36L48 36L48 37L47 37L47 39L46 39L46 38L45 38L45 37L46 37L46 36L45 36L45 35L44 35L44 36L43 36L43 35L42 35L42 34L45 34L45 33L43 33L43 32L41 32L41 33L39 33L39 34L40 34L40 35L38 35L38 33L37 33L37 32L33 32L33 31L36 31L36 30L32 30L32 32L31 32L31 33L29 33L29 32L28 32L28 31L31 31L31 29L32 29L32 27L33 27L33 28L35 28L35 29L38 29L38 28L40 28L40 27L37 27L37 28L36 28L36 26L34 26L34 27L33 27L33 26L32 26L32 24L33 24L33 25L37 25L37 26L38 26L38 25L40 25L40 24L43 24L43 25L41 25L41 26L43 26L43 28L45 28L45 26L43 26L43 25L44 25L44 24L43 24L43 23L44 23L44 20L48 20L48 21L47 21L47 22L46 22L46 21L45 21L45 22L46 22L46 23L47 23L47 22L49 22L49 21L51 21L51 20L52 20L52 19L51 19L51 18L50 18L50 17L47 17L47 18L44 18L44 15L42 15L42 16L41 16L41 14L43 14L43 13L41 13L41 14L40 14L40 15L39 15L39 14L38 14L38 15L39 15L39 16L38 16L38 17L37 17L37 16L35 16L35 14L33 14L33 13L34 13L34 12L33 12L33 10ZM39 10L39 11L40 11L40 12L41 12L41 11L40 11L40 10ZM46 10L46 11L45 11L45 12L47 12L47 10ZM3 11L3 12L4 12L4 11ZM13 11L13 12L14 12L14 11ZM48 11L48 12L49 12L49 13L47 13L47 14L45 14L45 15L46 15L46 16L45 16L45 17L46 17L46 16L48 16L48 15L49 15L49 14L50 14L50 12L49 12L49 11ZM16 12L16 13L15 13L15 14L13 14L13 15L14 15L14 16L16 16L16 13L17 13L17 12ZM32 12L32 13L31 13L31 14L30 14L30 15L32 15L32 17L31 17L31 18L30 18L30 19L31 19L31 18L32 18L32 19L34 19L34 20L35 20L35 19L36 19L36 20L37 20L37 19L39 19L39 17L41 17L41 16L39 16L39 17L38 17L38 18L37 18L37 17L35 17L35 16L33 16L33 15L32 15L32 13L33 13L33 12ZM52 12L52 13L53 13L53 15L55 15L55 14L56 14L56 13L55 13L55 12L54 12L54 13L53 13L53 12ZM10 13L10 14L11 14L11 13ZM54 13L54 14L55 14L55 13ZM6 15L6 16L7 16L7 17L8 17L8 15ZM42 16L42 17L43 17L43 16ZM1 17L1 18L0 18L0 19L1 19L1 18L2 18L2 17ZM9 17L9 18L10 18L10 17ZM7 18L7 19L6 19L6 20L9 20L9 21L8 21L8 22L9 22L9 21L10 21L10 20L11 20L11 19L10 19L10 20L9 20L9 19L8 19L8 18ZM23 18L23 19L24 19L24 18ZM41 18L41 19L42 19L42 18ZM43 18L43 20L42 20L42 21L43 21L43 20L44 20L44 18ZM47 18L47 19L48 19L48 18ZM49 18L49 19L50 19L50 18ZM2 19L2 20L0 20L0 21L3 21L3 19ZM32 20L32 21L31 21L31 22L28 22L28 24L25 24L25 25L26 25L26 26L27 26L27 25L28 25L28 26L29 26L29 25L31 25L31 24L32 24L32 23L35 23L35 21L33 21L33 20ZM38 20L38 22L37 22L37 24L40 24L40 22L39 22L39 21L41 21L41 20ZM22 21L22 22L24 22L24 21ZM38 22L38 23L39 23L39 22ZM13 23L13 24L14 24L14 23ZM15 23L15 24L16 24L16 23ZM17 23L17 24L18 24L18 23ZM45 24L45 25L46 25L46 24ZM47 24L47 25L48 25L48 24ZM31 26L31 27L32 27L32 26ZM53 26L53 27L54 27L54 26ZM5 27L5 30L8 30L8 27ZM27 27L27 30L30 30L30 27ZM41 27L41 28L42 28L42 27ZM49 27L49 30L52 30L52 27ZM6 28L6 29L7 29L7 28ZM28 28L28 29L29 29L29 28ZM50 28L50 29L51 29L51 28ZM54 28L54 29L53 29L53 30L54 30L54 31L55 31L55 30L54 30L54 29L55 29L55 28ZM39 29L39 30L38 30L38 32L39 32L39 31L41 31L41 30L44 30L44 29ZM19 30L19 31L20 31L20 32L21 32L21 31L20 31L20 30ZM8 32L8 33L9 33L9 35L8 35L8 34L6 34L6 35L8 35L8 37L9 37L9 35L11 35L11 36L12 36L12 33L13 33L13 32L11 32L11 34L10 34L10 33L9 33L9 32ZM32 32L32 33L31 33L31 35L32 35L32 33L33 33L33 34L34 34L34 35L35 35L35 36L37 36L37 37L38 37L38 38L37 38L37 39L35 39L35 37L33 37L33 36L32 36L32 37L33 37L33 38L34 38L34 39L35 39L35 40L38 40L38 42L39 42L39 41L42 41L42 40L44 40L44 39L45 39L45 38L44 38L44 37L45 37L45 36L44 36L44 37L43 37L43 36L40 36L40 37L38 37L38 35L37 35L37 34L35 34L35 33L33 33L33 32ZM48 32L48 33L49 33L49 32ZM52 32L52 33L53 33L53 32ZM54 33L54 34L55 34L55 33ZM13 35L13 37L14 37L14 39L15 39L15 38L16 38L16 37L15 37L15 36L14 36L14 35ZM21 35L21 36L23 36L23 35ZM0 37L0 38L1 38L1 37ZM40 37L40 38L43 38L43 37ZM54 37L54 38L55 38L55 37ZM6 38L6 39L7 39L7 38ZM8 38L8 39L9 39L9 38ZM10 38L10 39L11 39L11 40L10 40L10 41L8 41L8 40L6 40L6 41L8 41L8 42L6 42L6 43L7 43L7 44L6 44L6 45L7 45L7 44L8 44L8 42L10 42L10 41L11 41L11 42L12 42L12 43L13 43L13 44L12 44L12 45L14 45L14 46L15 46L15 45L14 45L14 43L13 43L13 41L11 41L11 40L13 40L13 38L12 38L12 39L11 39L11 38ZM38 39L38 40L39 40L39 39ZM41 39L41 40L42 40L42 39ZM28 41L28 42L29 42L29 41ZM43 41L43 42L44 42L44 41ZM21 42L21 43L22 43L22 42ZM32 42L32 43L33 43L33 42ZM40 42L40 43L39 43L39 45L38 45L38 46L39 46L39 47L38 47L38 48L37 48L37 49L38 49L38 48L39 48L39 47L40 47L40 46L41 46L41 44L42 44L42 43L41 43L41 42ZM51 42L51 43L50 43L50 44L51 44L51 43L53 43L53 42ZM10 43L10 44L9 44L9 45L10 45L10 44L11 44L11 43ZM40 43L40 44L41 44L41 43ZM1 44L1 45L2 45L2 46L1 46L1 47L2 47L2 46L3 46L3 47L5 47L5 46L4 46L4 44ZM18 46L18 47L19 47L19 46ZM44 46L44 47L45 47L45 46ZM51 46L51 47L52 47L52 46ZM28 47L28 48L30 48L30 47ZM6 48L6 49L7 49L7 48ZM13 48L13 49L14 49L14 48ZM24 48L24 49L25 49L25 48ZM53 48L53 49L56 49L56 48ZM27 49L27 52L30 52L30 49ZM49 49L49 52L52 52L52 49ZM28 50L28 51L29 51L29 50ZM33 50L33 51L32 51L32 52L33 52L33 53L34 53L34 52L33 52L33 51L34 51L34 50ZM50 50L50 51L51 51L51 50ZM11 51L11 52L10 52L10 53L11 53L11 52L12 52L12 51ZM15 52L15 53L16 53L16 52ZM38 52L38 53L39 53L39 52ZM53 52L53 53L54 53L54 52ZM21 53L21 54L22 54L22 53ZM23 53L23 54L24 54L24 53ZM43 53L43 54L44 54L44 53ZM9 54L9 55L10 55L10 54ZM19 54L19 55L20 55L20 54ZM50 55L50 56L51 56L51 55ZM53 55L53 56L55 56L55 57L56 57L56 56L55 56L55 55ZM0 0L0 7L7 7L7 0ZM1 1L1 6L6 6L6 1ZM2 2L2 5L5 5L5 2ZM50 0L50 7L57 7L57 0ZM51 1L51 6L56 6L56 1ZM52 2L52 5L55 5L55 2ZM0 50L0 57L7 57L7 50ZM1 51L1 56L6 56L6 51ZM2 52L2 55L5 55L5 52Z" fill="#000000"/></g></g></svg>
