<?xml version="1.0" encoding="UTF-8"?>
<svg xmlns="http://www.w3.org/2000/svg" version="1.1" width="300" height="300" viewBox="0 0 300 300"><rect x="0" y="0" width="300" height="300" fill="#fefefe"/><g transform="scale(4.615)"><g transform="translate(4,4)"><path fill-rule="evenodd" d="M8 0L8 4L9 4L9 5L8 5L8 7L9 7L9 8L10 8L10 7L11 7L11 9L8 9L8 10L11 10L11 9L12 9L12 11L14 11L14 12L15 12L15 13L13 13L13 12L11 12L11 11L10 11L10 12L11 12L11 13L9 13L9 14L6 14L6 13L8 13L8 11L7 11L7 10L5 10L5 9L7 9L7 8L4 8L4 9L3 9L3 10L1 10L1 11L0 11L0 12L1 12L1 11L2 11L2 13L3 13L3 14L0 14L0 15L1 15L1 16L0 16L0 20L2 20L2 21L0 21L0 22L2 22L2 21L3 21L3 20L4 20L4 22L5 22L5 23L4 23L4 24L5 24L5 25L3 25L3 26L2 26L2 25L0 25L0 29L2 29L2 30L1 30L1 31L3 31L3 32L2 32L2 33L3 33L3 34L1 34L1 33L0 33L0 35L1 35L1 36L0 36L0 37L1 37L1 38L0 38L0 39L1 39L1 40L0 40L0 41L1 41L1 40L4 40L4 44L3 44L3 43L2 43L2 42L3 42L3 41L2 41L2 42L0 42L0 43L2 43L2 45L1 45L1 44L0 44L0 45L1 45L1 46L0 46L0 48L5 48L5 47L8 47L8 48L6 48L6 49L8 49L8 50L10 50L10 49L8 49L8 48L12 48L12 49L11 49L11 51L12 51L12 52L13 52L13 55L12 55L12 54L10 54L10 53L11 53L11 52L9 52L9 51L8 51L8 53L9 53L9 55L8 55L8 57L9 57L9 56L10 56L10 55L12 55L12 57L13 57L13 56L14 56L14 57L16 57L16 56L15 56L15 55L16 55L16 54L17 54L17 57L20 57L20 56L19 56L19 55L20 55L20 54L21 54L21 55L22 55L22 56L21 56L21 57L22 57L22 56L23 56L23 55L24 55L24 56L25 56L25 54L24 54L24 53L25 53L25 51L26 51L26 53L28 53L28 57L29 57L29 55L30 55L30 57L34 57L34 55L35 55L35 57L37 57L37 56L36 56L36 54L37 54L37 55L40 55L40 56L39 56L39 57L40 57L40 56L41 56L41 57L43 57L43 55L44 55L44 53L45 53L45 55L46 55L46 56L48 56L48 57L50 57L50 55L51 55L51 56L53 56L53 57L54 57L54 55L55 55L55 54L57 54L57 52L56 52L56 53L55 53L55 52L54 52L54 53L55 53L55 54L54 54L54 55L53 55L53 50L54 50L54 51L56 51L56 44L57 44L57 43L56 43L56 42L57 42L57 40L55 40L55 41L53 41L53 39L57 39L57 38L52 38L52 37L51 37L51 38L52 38L52 39L47 39L47 38L46 38L46 36L49 36L49 37L50 37L50 36L53 36L53 37L55 37L55 36L56 36L56 34L55 34L55 33L56 33L56 30L54 30L54 28L53 28L53 27L54 27L54 26L55 26L55 27L56 27L56 29L57 29L57 27L56 27L56 25L57 25L57 24L56 24L56 21L57 21L57 20L56 20L56 21L55 21L55 24L56 24L56 25L54 25L54 24L53 24L53 26L52 26L52 22L53 22L53 21L52 21L52 20L53 20L53 19L51 19L51 18L52 18L52 16L51 16L51 15L52 15L52 14L53 14L53 15L55 15L55 16L54 16L54 17L55 17L55 19L56 19L56 18L57 18L57 15L56 15L56 13L54 13L54 12L53 12L53 13L52 13L52 14L51 14L51 12L52 12L52 11L54 11L54 10L52 10L52 8L51 8L51 9L50 9L50 10L51 10L51 11L50 11L50 16L49 16L49 15L48 15L48 16L47 16L47 15L46 15L46 11L45 11L45 10L46 10L46 7L47 7L47 10L48 10L48 11L47 11L47 12L49 12L49 9L48 9L48 8L49 8L49 6L48 6L48 7L47 7L47 5L48 5L48 0L41 0L41 1L40 1L40 2L38 2L38 1L39 1L39 0L38 0L38 1L37 1L37 2L36 2L36 0L35 0L35 1L34 1L34 0L33 0L33 1L31 1L31 0L28 0L28 1L31 1L31 2L32 2L32 3L30 3L30 4L29 4L29 3L28 3L28 2L27 2L27 3L28 3L28 4L26 4L26 3L25 3L25 2L26 2L26 1L27 1L27 0L26 0L26 1L25 1L25 0L23 0L23 3L21 3L21 5L22 5L22 7L21 7L21 6L20 6L20 5L19 5L19 4L17 4L17 1L16 1L16 0L14 0L14 1L13 1L13 0L12 0L12 2L13 2L13 3L12 3L12 4L11 4L11 5L10 5L10 4L9 4L9 2L11 2L11 0ZM20 0L20 1L18 1L18 2L19 2L19 3L20 3L20 1L21 1L21 2L22 2L22 1L21 1L21 0ZM14 1L14 4L15 4L15 5L14 5L14 6L13 6L13 4L12 4L12 6L11 6L11 7L12 7L12 6L13 6L13 8L12 8L12 9L14 9L14 8L15 8L15 9L16 9L16 11L15 11L15 12L16 12L16 11L17 11L17 13L15 13L15 14L17 14L17 15L18 15L18 16L19 16L19 17L18 17L18 18L17 18L17 16L16 16L16 19L15 19L15 17L14 17L14 15L13 15L13 13L11 13L11 15L10 15L10 14L9 14L9 15L10 15L10 16L11 16L11 17L10 17L10 18L8 18L8 17L5 17L5 16L7 16L7 15L6 15L6 14L4 14L4 15L5 15L5 16L4 16L4 17L2 17L2 16L1 16L1 18L3 18L3 19L2 19L2 20L3 20L3 19L4 19L4 17L5 17L5 18L7 18L7 19L5 19L5 21L6 21L6 22L7 22L7 23L6 23L6 24L7 24L7 25L5 25L5 26L8 26L8 25L10 25L10 26L9 26L9 27L10 27L10 28L9 28L9 32L10 32L10 31L11 31L11 28L13 28L13 29L12 29L12 32L13 32L13 34L12 34L12 35L13 35L13 36L10 36L10 35L11 35L11 33L9 33L9 34L7 34L7 33L6 33L6 34L7 34L7 35L5 35L5 32L8 32L8 31L4 31L4 32L3 32L3 33L4 33L4 34L3 34L3 35L2 35L2 36L1 36L1 37L2 37L2 38L1 38L1 39L3 39L3 38L4 38L4 40L5 40L5 38L8 38L8 41L5 41L5 42L7 42L7 43L5 43L5 44L4 44L4 46L3 46L3 45L2 45L2 46L1 46L1 47L2 47L2 46L3 46L3 47L5 47L5 46L7 46L7 45L5 45L5 44L12 44L12 45L11 45L11 46L10 46L10 47L12 47L12 48L13 48L13 49L14 49L14 48L13 48L13 47L15 47L15 48L16 48L16 50L12 50L12 51L13 51L13 52L14 52L14 53L17 53L17 54L18 54L18 55L19 55L19 53L20 53L20 48L22 48L22 49L21 49L21 50L22 50L22 51L21 51L21 52L22 52L22 55L23 55L23 53L24 53L24 52L22 52L22 51L23 51L23 50L22 50L22 49L23 49L23 48L24 48L24 49L25 49L25 50L26 50L26 49L25 49L25 48L27 48L27 47L30 47L30 48L31 48L31 49L32 49L32 48L33 48L33 49L34 49L34 51L33 51L33 50L32 50L32 51L31 51L31 52L32 52L32 51L33 51L33 52L34 52L34 51L35 51L35 52L36 52L36 49L35 49L35 48L34 48L34 47L36 47L36 48L37 48L37 46L38 46L38 45L39 45L39 46L40 46L40 51L39 51L39 52L38 52L38 49L39 49L39 47L38 47L38 49L37 49L37 53L39 53L39 52L40 52L40 53L44 53L44 52L41 52L41 46L40 46L40 45L41 45L41 44L40 44L40 45L39 45L39 44L37 44L37 43L36 43L36 44L37 44L37 46L35 46L35 45L34 45L34 47L31 47L31 46L30 46L30 44L31 44L31 45L32 45L32 46L33 46L33 45L32 45L32 43L33 43L33 44L35 44L35 43L33 43L33 41L32 41L32 40L33 40L33 39L31 39L31 38L33 38L33 37L32 37L32 36L31 36L31 34L30 34L30 36L31 36L31 37L29 37L29 36L28 36L28 34L29 34L29 33L32 33L32 32L33 32L33 33L34 33L34 34L35 34L35 33L34 33L34 31L36 31L36 30L35 30L35 28L37 28L37 29L38 29L38 28L37 28L37 27L39 27L39 26L38 26L38 25L40 25L40 27L41 27L41 28L40 28L40 29L43 29L43 30L44 30L44 31L45 31L45 32L46 32L46 31L47 31L47 33L46 33L46 35L45 35L45 33L43 33L43 37L44 37L44 38L43 38L43 41L44 41L44 42L42 42L42 44L43 44L43 46L44 46L44 44L45 44L45 45L46 45L46 47L45 47L45 48L46 48L46 50L45 50L45 53L46 53L46 55L49 55L49 54L51 54L51 55L52 55L52 54L51 54L51 53L49 53L49 54L48 54L48 52L47 52L47 51L46 51L46 50L47 50L47 49L48 49L48 47L49 47L49 46L48 46L48 43L49 43L49 44L50 44L50 43L51 43L51 44L52 44L52 47L53 47L53 48L55 48L55 47L54 47L54 46L55 46L55 44L56 44L56 43L55 43L55 42L56 42L56 41L55 41L55 42L54 42L54 43L53 43L53 41L52 41L52 40L47 40L47 39L46 39L46 40L45 40L45 41L44 41L44 39L45 39L45 37L44 37L44 35L45 35L45 36L46 36L46 35L47 35L47 34L49 34L49 33L48 33L48 31L47 31L47 30L48 30L48 29L46 29L46 28L47 28L47 27L48 27L48 26L47 26L47 25L49 25L49 26L50 26L50 24L51 24L51 23L50 23L50 22L47 22L47 21L51 21L51 22L52 22L52 21L51 21L51 20L49 20L49 19L50 19L50 17L51 17L51 16L50 16L50 17L49 17L49 18L48 18L48 19L47 19L47 21L45 21L45 22L44 22L44 16L45 16L45 17L46 17L46 18L47 18L47 16L46 16L46 15L45 15L45 13L44 13L44 12L45 12L45 11L44 11L44 10L45 10L45 9L44 9L44 8L45 8L45 7L46 7L46 5L47 5L47 3L44 3L44 2L43 2L43 3L44 3L44 4L43 4L43 7L42 7L42 5L39 5L39 8L40 8L40 10L38 10L38 6L37 6L37 9L35 9L35 7L36 7L36 5L38 5L38 4L40 4L40 3L41 3L41 4L42 4L42 2L40 2L40 3L38 3L38 2L37 2L37 3L36 3L36 2L34 2L34 1L33 1L33 3L32 3L32 5L35 5L35 7L34 7L34 6L33 6L33 7L32 7L32 6L31 6L31 10L29 10L29 11L28 11L28 12L27 12L27 11L26 11L26 16L25 16L25 15L24 15L24 14L23 14L23 13L24 13L24 12L23 12L23 11L25 11L25 10L28 10L28 9L26 9L26 6L25 6L25 7L24 7L24 6L23 6L23 7L22 7L22 9L21 9L21 10L20 10L20 9L18 9L18 11L17 11L17 9L16 9L16 8L15 8L15 7L16 7L16 6L17 6L17 8L19 8L19 7L20 7L20 6L19 6L19 5L18 5L18 6L17 6L17 4L16 4L16 2L15 2L15 1ZM45 1L45 2L47 2L47 1ZM23 3L23 5L24 5L24 4L25 4L25 3ZM34 3L34 4L35 4L35 5L36 5L36 4L35 4L35 3ZM37 3L37 4L38 4L38 3ZM44 4L44 7L45 7L45 5L46 5L46 4ZM15 5L15 6L14 6L14 7L15 7L15 6L16 6L16 5ZM27 5L27 8L30 8L30 5ZM9 6L9 7L10 7L10 6ZM18 6L18 7L19 7L19 6ZM28 6L28 7L29 7L29 6ZM40 6L40 8L41 8L41 6ZM23 7L23 8L24 8L24 7ZM33 7L33 8L32 8L32 11L29 11L29 12L32 12L32 14L31 14L31 13L30 13L30 15L31 15L31 16L29 16L29 13L27 13L27 14L28 14L28 15L27 15L27 16L26 16L26 17L28 17L28 18L30 18L30 19L27 19L27 20L26 20L26 19L25 19L25 20L24 20L24 21L21 21L21 20L23 20L23 19L24 19L24 18L25 18L25 17L21 17L21 15L22 15L22 16L24 16L24 15L22 15L22 14L21 14L21 13L23 13L23 12L22 12L22 11L20 11L20 10L19 10L19 11L20 11L20 12L18 12L18 13L17 13L17 14L18 14L18 15L19 15L19 13L20 13L20 18L19 18L19 20L18 20L18 19L16 19L16 20L17 20L17 21L15 21L15 20L14 20L14 19L12 19L12 18L13 18L13 15L12 15L12 17L11 17L11 18L10 18L10 19L9 19L9 21L10 21L10 22L11 22L11 20L12 20L12 23L10 23L10 24L11 24L11 25L12 25L12 24L14 24L14 23L16 23L16 22L17 22L17 26L18 26L18 27L17 27L17 28L16 28L16 24L15 24L15 26L13 26L13 28L15 28L15 29L13 29L13 30L15 30L15 31L13 31L13 32L16 32L16 30L15 30L15 29L18 29L18 30L17 30L17 33L18 33L18 34L19 34L19 32L18 32L18 30L19 30L19 29L18 29L18 28L19 28L19 25L20 25L20 27L22 27L22 28L23 28L23 30L22 30L22 29L20 29L20 30L22 30L22 31L20 31L20 32L21 32L21 33L20 33L20 36L19 36L19 35L16 35L16 33L14 33L14 34L15 34L15 35L14 35L14 36L15 36L15 37L16 37L16 36L17 36L17 37L21 37L21 38L20 38L20 39L19 39L19 38L16 38L16 39L15 39L15 38L14 38L14 37L13 37L13 38L14 38L14 39L13 39L13 40L11 40L11 38L10 38L10 36L9 36L9 35L8 35L8 37L9 37L9 42L10 42L10 43L12 43L12 44L13 44L13 43L14 43L14 45L15 45L15 47L16 47L16 48L17 48L17 50L16 50L16 51L15 51L15 52L17 52L17 53L19 53L19 52L17 52L17 51L19 51L19 48L20 48L20 47L22 47L22 48L23 48L23 47L24 47L24 46L26 46L26 47L27 47L27 46L28 46L28 44L27 44L27 43L25 43L25 44L24 44L24 45L23 45L23 44L22 44L22 43L21 43L21 42L22 42L22 40L24 40L24 39L23 39L23 38L22 38L22 36L23 36L23 37L24 37L24 38L25 38L25 39L27 39L27 40L25 40L25 41L23 41L23 43L24 43L24 42L26 42L26 41L27 41L27 42L28 42L28 43L29 43L29 42L28 42L28 41L27 41L27 40L31 40L31 39L29 39L29 38L28 38L28 39L27 39L27 38L26 38L26 37L28 37L28 36L27 36L27 34L28 34L28 33L29 33L29 31L30 31L30 32L31 32L31 30L32 30L32 31L34 31L34 27L33 27L33 26L34 26L34 25L37 25L37 24L34 24L34 23L35 23L35 22L37 22L37 21L38 21L38 22L39 22L39 21L40 21L40 22L43 22L43 24L42 24L42 25L41 25L41 27L42 27L42 28L43 28L43 29L44 29L44 30L45 30L45 31L46 31L46 30L45 30L45 26L46 26L46 27L47 27L47 26L46 26L46 25L47 25L47 24L46 24L46 23L45 23L45 24L44 24L44 22L43 22L43 20L42 20L42 21L40 21L40 18L41 18L41 19L42 19L42 18L43 18L43 17L42 17L42 15L43 15L43 16L44 16L44 15L43 15L43 13L40 13L40 11L41 11L41 12L43 12L43 10L44 10L44 9L43 9L43 8L42 8L42 9L41 9L41 10L40 10L40 11L38 11L38 10L37 10L37 12L36 12L36 10L34 10L34 9L33 9L33 8L34 8L34 7ZM0 8L0 9L2 9L2 8ZM53 8L53 9L56 9L56 10L55 10L55 12L56 12L56 10L57 10L57 8ZM22 9L22 10L25 10L25 9ZM33 10L33 11L32 11L32 12L33 12L33 13L34 13L34 18L33 18L33 20L34 20L34 22L35 22L35 20L36 20L36 19L35 19L35 20L34 20L34 18L37 18L37 19L39 19L39 18L40 18L40 17L41 17L41 15L40 15L40 13L39 13L39 12L37 12L37 14L36 14L36 13L35 13L35 12L34 12L34 10ZM3 11L3 12L4 12L4 11ZM5 11L5 12L7 12L7 11ZM20 12L20 13L21 13L21 12ZM38 13L38 15L39 15L39 17L38 17L38 16L37 16L37 15L35 15L35 17L38 17L38 18L39 18L39 17L40 17L40 15L39 15L39 13ZM47 13L47 14L49 14L49 13ZM55 16L55 17L56 17L56 16ZM31 17L31 18L32 18L32 17ZM21 18L21 19L20 19L20 20L19 20L19 21L20 21L20 20L21 20L21 19L22 19L22 18ZM10 19L10 20L11 20L11 19ZM6 20L6 21L7 21L7 20ZM25 20L25 21L24 21L24 22L25 22L25 23L26 23L26 22L27 22L27 23L28 23L28 22L29 22L29 24L28 24L28 25L27 25L27 26L28 26L28 25L29 25L29 26L30 26L30 25L29 25L29 24L31 24L31 29L32 29L32 28L33 28L33 27L32 27L32 23L33 23L33 22L29 22L29 21L30 21L30 20L28 20L28 21L26 21L26 20ZM31 20L31 21L32 21L32 20ZM38 20L38 21L39 21L39 20ZM13 21L13 23L14 23L14 21ZM17 21L17 22L18 22L18 21ZM20 22L20 23L19 23L19 24L20 24L20 25L23 25L23 24L24 24L24 23L23 23L23 22L22 22L22 23L21 23L21 22ZM1 23L1 24L3 24L3 23ZM7 23L7 24L8 24L8 23ZM48 23L48 24L50 24L50 23ZM33 24L33 25L34 25L34 24ZM43 24L43 26L44 26L44 24ZM45 24L45 25L46 25L46 24ZM25 25L25 26L24 26L24 27L23 27L23 28L24 28L24 27L26 27L26 25ZM1 26L1 27L2 27L2 29L3 29L3 30L4 30L4 28L3 28L3 27L2 27L2 26ZM10 26L10 27L11 27L11 26ZM36 26L36 27L37 27L37 26ZM5 27L5 30L8 30L8 27ZM27 27L27 30L30 30L30 27ZM49 27L49 30L52 30L52 27ZM6 28L6 29L7 29L7 28ZM28 28L28 29L29 29L29 28ZM50 28L50 29L51 29L51 28ZM25 29L25 30L26 30L26 29ZM37 30L37 32L38 32L38 30ZM39 30L39 32L40 32L40 33L39 33L39 34L38 34L38 33L37 33L37 34L38 34L38 36L39 36L39 37L41 37L41 35L42 35L42 34L40 34L40 33L41 33L41 32L40 32L40 30ZM22 31L22 33L21 33L21 34L23 34L23 33L25 33L25 32L26 32L26 31ZM27 31L27 32L28 32L28 31ZM50 31L50 35L49 35L49 36L50 36L50 35L53 35L53 36L55 36L55 35L53 35L53 34L54 34L54 33L55 33L55 31L52 31L52 32L53 32L53 33L51 33L51 31ZM26 33L26 34L24 34L24 36L25 36L25 35L26 35L26 34L27 34L27 33ZM32 34L32 35L33 35L33 36L35 36L35 35L33 35L33 34ZM3 35L3 36L2 36L2 37L4 37L4 38L5 38L5 37L4 37L4 36L5 36L5 35ZM15 35L15 36L16 36L16 35ZM21 35L21 36L22 36L22 35ZM39 35L39 36L40 36L40 35ZM6 36L6 37L7 37L7 36ZM34 37L34 38L35 38L35 39L34 39L34 42L35 42L35 39L37 39L37 42L38 42L38 37L37 37L37 38L35 38L35 37ZM21 38L21 39L22 39L22 38ZM39 38L39 39L40 39L40 38ZM41 38L41 40L40 40L40 41L39 41L39 43L40 43L40 42L41 42L41 40L42 40L42 38ZM6 39L6 40L7 40L7 39ZM17 39L17 41L16 41L16 42L15 42L15 40L14 40L14 43L16 43L16 44L17 44L17 45L16 45L16 46L17 46L17 45L18 45L18 44L19 44L19 46L18 46L18 47L17 47L17 48L18 48L18 47L19 47L19 46L20 46L20 45L21 45L21 46L22 46L22 47L23 47L23 45L21 45L21 44L20 44L20 40L19 40L19 39ZM10 40L10 42L11 42L11 40ZM18 40L18 41L17 41L17 42L16 42L16 43L18 43L18 41L19 41L19 40ZM46 40L46 41L45 41L45 43L47 43L47 42L46 42L46 41L47 41L47 40ZM12 41L12 42L13 42L13 41ZM30 41L30 42L31 42L31 43L32 43L32 41ZM48 41L48 42L49 42L49 43L50 43L50 42L49 42L49 41ZM51 41L51 43L52 43L52 44L53 44L53 45L54 45L54 44L53 44L53 43L52 43L52 41ZM43 43L43 44L44 44L44 43ZM46 44L46 45L47 45L47 44ZM26 45L26 46L27 46L27 45ZM50 45L50 48L51 48L51 45ZM8 46L8 47L9 47L9 46ZM47 46L47 47L46 47L46 48L47 48L47 47L48 47L48 46ZM42 47L42 49L44 49L44 47ZM27 49L27 52L30 52L30 49ZM49 49L49 52L52 52L52 49ZM28 50L28 51L29 51L29 50ZM42 50L42 51L44 51L44 50ZM50 50L50 51L51 51L51 50ZM46 52L46 53L47 53L47 52ZM30 53L30 54L31 54L31 53ZM32 53L32 54L33 54L33 53ZM34 53L34 54L35 54L35 53ZM14 54L14 55L15 55L15 54ZM26 54L26 57L27 57L27 54ZM40 54L40 55L41 55L41 56L42 56L42 55L43 55L43 54ZM44 56L44 57L45 57L45 56ZM56 56L56 57L57 57L57 56ZM0 0L0 7L7 7L7 0ZM1 1L1 6L6 6L6 1ZM2 2L2 5L5 5L5 2ZM50 0L50 7L57 7L57 0ZM51 1L51 6L56 6L56 1ZM52 2L52 5L55 5L55 2ZM0 50L0 57L7 57L7 50ZM1 51L1 56L6 56L6 51ZM2 52L2 55L5 55L5 52Z" fill="#000000"/></g></g></svg>
