<?xml version="1.0" encoding="UTF-8"?>
<svg xmlns="http://www.w3.org/2000/svg" version="1.1" width="300" height="300" viewBox="0 0 300 300"><rect x="0" y="0" width="300" height="300" fill="#fefefe"/><g transform="scale(4.615)"><g transform="translate(4,4)"><path fill-rule="evenodd" d="M8 0L8 4L9 4L9 5L8 5L8 7L9 7L9 6L10 6L10 8L9 8L9 9L7 9L7 8L4 8L4 9L3 9L3 10L5 10L5 9L7 9L7 10L6 10L6 11L3 11L3 13L5 13L5 15L4 15L4 16L3 16L3 14L2 14L2 15L0 15L0 16L1 16L1 17L2 17L2 16L3 16L3 18L0 18L0 19L2 19L2 20L3 20L3 19L4 19L4 21L3 21L3 22L4 22L4 23L3 23L3 24L1 24L1 23L2 23L2 22L0 22L0 24L1 24L1 25L0 25L0 26L1 26L1 25L2 25L2 26L3 26L3 24L5 24L5 25L4 25L4 27L2 27L2 30L1 30L1 27L0 27L0 30L1 30L1 31L0 31L0 36L2 36L2 35L3 35L3 34L5 34L5 36L6 36L6 37L7 37L7 38L6 38L6 39L7 39L7 40L6 40L6 41L5 41L5 42L4 42L4 38L5 38L5 37L4 37L4 36L3 36L3 37L2 37L2 38L0 38L0 40L1 40L1 41L2 41L2 42L4 42L4 43L2 43L2 44L3 44L3 46L2 46L2 47L1 47L1 45L0 45L0 48L5 48L5 47L7 47L7 46L6 46L6 45L8 45L8 50L9 50L9 49L10 49L10 47L11 47L11 45L12 45L12 48L11 48L11 49L12 49L12 48L13 48L13 49L14 49L14 50L13 50L13 52L17 52L17 53L15 53L15 54L13 54L13 55L12 55L12 56L13 56L13 57L14 57L14 55L16 55L16 54L19 54L19 55L18 55L18 56L17 56L17 57L19 57L19 55L20 55L20 54L21 54L21 53L22 53L22 51L23 51L23 52L24 52L24 53L23 53L23 55L22 55L22 56L20 56L20 57L22 57L22 56L23 56L23 55L24 55L24 57L25 57L25 55L26 55L26 54L27 54L27 53L28 53L28 57L29 57L29 55L30 55L30 57L34 57L34 55L35 55L35 57L37 57L37 56L36 56L36 54L37 54L37 55L40 55L40 56L39 56L39 57L40 57L40 56L41 56L41 57L43 57L43 55L44 55L44 57L45 57L45 55L46 55L46 56L47 56L47 57L50 57L50 55L51 55L51 56L53 56L53 57L54 57L54 55L53 55L53 50L54 50L54 51L55 51L55 52L54 52L54 53L55 53L55 54L57 54L57 53L55 53L55 52L56 52L56 51L55 51L55 49L56 49L56 45L57 45L57 43L56 43L56 42L57 42L57 40L53 40L53 39L54 39L54 38L55 38L55 39L57 39L57 38L55 38L55 37L57 37L57 35L56 35L56 34L57 34L57 33L56 33L56 30L55 30L55 33L54 33L54 34L53 34L53 35L50 35L50 31L51 31L51 33L53 33L53 30L54 30L54 28L53 28L53 27L54 27L54 26L55 26L55 24L56 24L56 25L57 25L57 24L56 24L56 21L57 21L57 19L56 19L56 18L57 18L57 15L56 15L56 13L57 13L57 12L56 12L56 10L57 10L57 8L53 8L53 9L52 9L52 8L51 8L51 9L48 9L48 8L46 8L46 9L45 9L45 6L46 6L46 7L47 7L47 5L48 5L48 0L46 0L46 1L47 1L47 2L45 2L45 0L41 0L41 1L40 1L40 2L39 2L39 3L38 3L38 1L39 1L39 0L38 0L38 1L37 1L37 2L36 2L36 0L35 0L35 1L34 1L34 0L33 0L33 1L31 1L31 0L28 0L28 1L27 1L27 0L26 0L26 1L25 1L25 0L23 0L23 1L22 1L22 2L21 2L21 0L20 0L20 2L19 2L19 0L17 0L17 2L16 2L16 4L17 4L17 6L16 6L16 5L15 5L15 4L14 4L14 1L16 1L16 0L13 0L13 1L11 1L11 0L10 0L10 2L9 2L9 0ZM26 1L26 2L25 2L25 3L23 3L23 2L22 2L22 3L19 3L19 2L17 2L17 4L19 4L19 5L18 5L18 6L17 6L17 8L19 8L19 7L20 7L20 6L21 6L21 7L22 7L22 6L23 6L23 7L24 7L24 8L25 8L25 10L27 10L27 9L26 9L26 6L25 6L25 7L24 7L24 6L23 6L23 5L24 5L24 4L25 4L25 3L26 3L26 4L28 4L28 3L29 3L29 2L27 2L27 1ZM30 1L30 2L31 2L31 3L32 3L32 5L35 5L35 7L34 7L34 6L33 6L33 7L32 7L32 6L31 6L31 12L29 12L29 9L28 9L28 12L27 12L27 11L26 11L26 13L25 13L25 12L24 12L24 10L23 10L23 8L22 8L22 9L21 9L21 10L20 10L20 9L19 9L19 10L18 10L18 9L15 9L15 12L14 12L14 11L13 11L13 10L14 10L14 8L15 8L15 7L16 7L16 6L15 6L15 7L14 7L14 5L13 5L13 4L12 4L12 3L13 3L13 2L12 2L12 3L11 3L11 2L10 2L10 4L12 4L12 5L13 5L13 7L14 7L14 8L13 8L13 10L10 10L10 9L12 9L12 8L10 8L10 9L9 9L9 10L10 10L10 11L8 11L8 10L7 10L7 11L6 11L6 12L5 12L5 13L6 13L6 14L7 14L7 15L6 15L6 16L4 16L4 18L5 18L5 20L7 20L7 21L6 21L6 22L5 22L5 21L4 21L4 22L5 22L5 24L7 24L7 23L8 23L8 25L5 25L5 26L10 26L10 27L9 27L9 29L10 29L10 27L11 27L11 28L12 28L12 29L11 29L11 30L10 30L10 31L8 31L8 35L6 35L6 36L9 36L9 35L11 35L11 36L13 36L13 37L8 37L8 38L9 38L9 39L11 39L11 40L10 40L10 43L9 43L9 42L8 42L8 41L6 41L6 42L5 42L5 44L4 44L4 46L3 46L3 47L5 47L5 45L6 45L6 44L9 44L9 45L10 45L10 44L11 44L11 43L12 43L12 45L13 45L13 43L12 43L12 42L14 42L14 41L16 41L16 42L15 42L15 44L16 44L16 46L14 46L14 48L15 48L15 47L16 47L16 46L17 46L17 47L18 47L18 46L17 46L17 45L18 45L18 44L19 44L19 42L20 42L20 41L18 41L18 43L16 43L16 42L17 42L17 40L19 40L19 39L20 39L20 38L21 38L21 40L22 40L22 41L21 41L21 43L20 43L20 45L19 45L19 47L20 47L20 48L19 48L19 49L17 49L17 48L16 48L16 50L15 50L15 51L17 51L17 52L18 52L18 51L19 51L19 50L20 50L20 51L21 51L21 50L22 50L22 49L23 49L23 48L24 48L24 49L26 49L26 48L27 48L27 47L30 47L30 48L31 48L31 47L32 47L32 46L33 46L33 45L32 45L32 43L33 43L33 44L35 44L35 43L33 43L33 41L32 41L32 40L33 40L33 39L31 39L31 38L33 38L33 37L32 37L32 36L31 36L31 34L30 34L30 36L31 36L31 37L29 37L29 36L28 36L28 34L29 34L29 33L32 33L32 30L33 30L33 29L32 29L32 28L33 28L33 27L34 27L34 31L36 31L36 30L37 30L37 32L38 32L38 30L37 30L37 29L38 29L38 28L37 28L37 27L39 27L39 26L38 26L38 25L43 25L43 28L42 28L42 27L41 27L41 28L40 28L40 29L39 29L39 32L40 32L40 33L39 33L39 34L38 34L38 33L37 33L37 34L38 34L38 36L37 36L37 38L35 38L35 37L34 37L34 38L35 38L35 39L34 39L34 42L35 42L35 39L37 39L37 42L38 42L38 39L40 39L40 41L39 41L39 43L40 43L40 42L41 42L41 43L42 43L42 44L43 44L43 45L44 45L44 43L45 43L45 45L46 45L46 47L47 47L47 49L46 49L46 48L45 48L45 46L44 46L44 47L42 47L42 49L44 49L44 48L45 48L45 49L46 49L46 51L45 51L45 52L46 52L46 54L47 54L47 56L48 56L48 55L49 55L49 54L51 54L51 55L52 55L52 54L51 54L51 53L49 53L49 54L48 54L48 52L47 52L47 49L48 49L48 47L49 47L49 48L50 48L50 47L52 47L52 48L53 48L53 49L54 49L54 48L55 48L55 45L56 45L56 44L55 44L55 42L54 42L54 43L53 43L53 41L52 41L52 40L47 40L47 39L49 39L49 38L50 38L50 39L53 39L53 36L56 36L56 35L53 35L53 36L50 36L50 35L49 35L49 36L48 36L48 35L47 35L47 34L49 34L49 33L48 33L48 31L47 31L47 29L48 29L48 27L45 27L45 30L44 30L44 31L45 31L45 30L46 30L46 31L47 31L47 33L46 33L46 38L47 38L47 39L45 39L45 37L44 37L44 35L45 35L45 34L44 34L44 33L43 33L43 34L44 34L44 35L42 35L42 34L40 34L40 33L41 33L41 32L40 32L40 30L41 30L41 29L44 29L44 24L45 24L45 25L46 25L46 26L47 26L47 25L49 25L49 26L50 26L50 25L51 25L51 24L52 24L52 26L53 26L53 24L55 24L55 21L56 21L56 19L55 19L55 17L56 17L56 16L55 16L55 13L56 13L56 12L55 12L55 10L56 10L56 9L53 9L53 10L54 10L54 11L52 11L52 12L51 12L51 14L52 14L52 15L50 15L50 11L49 11L49 12L47 12L47 11L48 11L48 10L47 10L47 9L46 9L46 16L45 16L45 15L44 15L44 16L43 16L43 15L42 15L42 17L43 17L43 18L42 18L42 19L41 19L41 18L40 18L40 17L41 17L41 15L40 15L40 17L39 17L39 15L38 15L38 13L39 13L39 12L40 12L40 14L41 14L41 13L44 13L44 12L45 12L45 11L44 11L44 9L43 9L43 7L44 7L44 4L45 4L45 5L47 5L47 3L44 3L44 2L43 2L43 3L44 3L44 4L43 4L43 7L42 7L42 6L41 6L41 5L39 5L39 8L38 8L38 6L37 6L37 8L38 8L38 9L35 9L35 7L36 7L36 5L38 5L38 4L37 4L37 3L36 3L36 2L35 2L35 4L34 4L34 1L33 1L33 3L32 3L32 2L31 2L31 1ZM40 2L40 3L39 3L39 4L40 4L40 3L42 3L42 2ZM22 3L22 4L21 4L21 6L22 6L22 4L23 4L23 3ZM35 4L35 5L36 5L36 4ZM10 5L10 6L11 6L11 7L12 7L12 6L11 6L11 5ZM19 5L19 6L18 6L18 7L19 7L19 6L20 6L20 5ZM27 5L27 8L30 8L30 5ZM28 6L28 7L29 7L29 6ZM40 6L40 8L39 8L39 9L38 9L38 10L37 10L37 12L35 12L35 11L36 11L36 10L34 10L34 9L33 9L33 8L34 8L34 7L33 7L33 8L32 8L32 13L30 13L30 15L31 15L31 14L32 14L32 15L33 15L33 16L32 16L32 17L33 17L33 19L31 19L31 16L29 16L29 13L26 13L26 14L25 14L25 13L24 13L24 12L22 12L22 11L21 11L21 12L20 12L20 11L19 11L19 12L18 12L18 13L17 13L17 12L15 12L15 13L13 13L13 12L12 12L12 13L11 13L11 11L10 11L10 14L12 14L12 16L10 16L10 15L9 15L9 13L8 13L8 11L7 11L7 12L6 12L6 13L7 13L7 14L8 14L8 16L6 16L6 17L5 17L5 18L6 18L6 19L8 19L8 21L7 21L7 22L6 22L6 23L7 23L7 22L8 22L8 21L9 21L9 19L12 19L12 20L13 20L13 21L12 21L12 22L9 22L9 24L10 24L10 26L11 26L11 27L12 27L12 28L13 28L13 29L12 29L12 30L13 30L13 31L11 31L11 32L9 32L9 33L11 33L11 32L12 32L12 34L11 34L11 35L13 35L13 36L15 36L15 37L16 37L16 35L17 35L17 36L18 36L18 37L17 37L17 38L16 38L16 39L15 39L15 40L17 40L17 38L18 38L18 37L22 37L22 38L23 38L23 37L24 37L24 38L26 38L26 39L27 39L27 40L25 40L25 41L24 41L24 39L22 39L22 40L23 40L23 42L26 42L26 41L27 41L27 42L28 42L28 43L29 43L29 42L30 42L30 41L31 41L31 43L32 43L32 41L31 41L31 39L29 39L29 38L28 38L28 39L27 39L27 38L26 38L26 37L25 37L25 36L26 36L26 35L27 35L27 34L28 34L28 33L29 33L29 32L28 32L28 31L30 31L30 32L31 32L31 30L32 30L32 29L31 29L31 28L32 28L32 27L33 27L33 26L34 26L34 25L37 25L37 24L34 24L34 23L35 23L35 22L37 22L37 21L38 21L38 22L39 22L39 21L40 21L40 22L41 22L41 24L44 24L44 22L45 22L45 24L46 24L46 25L47 25L47 24L46 24L46 21L47 21L47 23L48 23L48 24L49 24L49 22L50 22L50 23L52 23L52 24L53 24L53 23L52 23L52 22L53 22L53 21L52 21L52 20L53 20L53 19L50 19L50 18L52 18L52 16L53 16L53 15L52 15L52 16L50 16L50 15L48 15L48 17L47 17L47 19L46 19L46 21L45 21L45 16L44 16L44 22L43 22L43 20L42 20L42 21L40 21L40 18L39 18L39 17L38 17L38 16L37 16L37 15L35 15L35 17L38 17L38 18L39 18L39 19L37 19L37 18L35 18L35 19L34 19L34 13L33 13L33 10L34 10L34 12L35 12L35 13L36 13L36 14L37 14L37 12L39 12L39 11L38 11L38 10L40 10L40 11L41 11L41 12L43 12L43 11L41 11L41 10L43 10L43 9L41 9L41 10L40 10L40 8L42 8L42 7L41 7L41 6ZM48 6L48 7L49 7L49 6ZM0 8L0 12L2 12L2 10L1 10L1 9L2 9L2 8ZM16 10L16 11L18 11L18 10ZM19 12L19 14L17 14L17 13L15 13L15 14L17 14L17 15L19 15L19 16L20 16L20 15L21 15L21 17L26 17L26 20L27 20L27 19L30 19L30 21L29 21L29 20L28 20L28 21L24 21L24 20L25 20L25 18L24 18L24 19L22 19L22 18L20 18L20 17L19 17L19 18L18 18L18 17L15 17L15 18L14 18L14 14L13 14L13 17L10 17L10 18L12 18L12 19L14 19L14 20L15 20L15 21L17 21L17 22L16 22L16 23L15 23L15 22L14 22L14 21L13 21L13 22L14 22L14 23L11 23L11 26L12 26L12 27L13 27L13 28L16 28L16 27L15 27L15 25L16 25L16 26L17 26L17 27L18 27L18 25L17 25L17 23L18 23L18 24L19 24L19 25L21 25L21 26L20 26L20 27L21 27L21 29L22 29L22 30L20 30L20 29L19 29L19 28L18 28L18 29L15 29L15 30L17 30L17 31L20 31L20 32L19 32L19 34L20 34L20 33L21 33L21 35L18 35L18 36L22 36L22 37L23 37L23 35L22 35L22 34L23 34L23 33L26 33L26 31L25 31L25 30L26 30L26 29L25 29L25 28L22 28L22 27L21 27L21 26L22 26L22 25L24 25L24 23L22 23L22 22L23 22L23 21L24 21L24 22L25 22L25 23L26 23L26 22L28 22L28 23L27 23L27 25L28 25L28 26L29 26L29 23L30 23L30 21L32 21L32 20L31 20L31 19L30 19L30 18L28 18L28 17L26 17L26 16L27 16L27 15L28 15L28 14L26 14L26 16L25 16L25 14L23 14L23 13L21 13L21 14L20 14L20 12ZM53 12L53 13L52 13L52 14L53 14L53 13L54 13L54 12ZM32 13L32 14L33 14L33 13ZM47 13L47 14L49 14L49 13ZM21 14L21 15L22 15L22 16L24 16L24 15L22 15L22 14ZM8 16L8 19L9 19L9 16ZM54 16L54 17L55 17L55 16ZM6 17L6 18L7 18L7 17ZM49 17L49 18L50 18L50 17ZM17 19L17 21L19 21L19 23L20 23L20 22L22 22L22 19L20 19L20 21L19 21L19 19ZM35 19L35 20L36 20L36 19ZM33 20L33 21L34 21L34 22L35 22L35 21L34 21L34 20ZM38 20L38 21L39 21L39 20ZM47 20L47 21L48 21L48 20ZM49 20L49 21L51 21L51 22L52 22L52 21L51 21L51 20ZM28 21L28 22L29 22L29 21ZM31 22L31 24L30 24L30 25L31 25L31 27L32 27L32 23L33 23L33 22ZM42 22L42 23L43 23L43 22ZM14 23L14 25L15 25L15 23ZM21 23L21 25L22 25L22 23ZM12 24L12 25L13 25L13 24ZM33 24L33 25L34 25L34 24ZM25 25L25 26L24 26L24 27L26 27L26 25ZM36 26L36 27L35 27L35 30L36 30L36 29L37 29L37 28L36 28L36 27L37 27L37 26ZM5 27L5 30L8 30L8 27ZM27 27L27 30L30 30L30 27ZM49 27L49 30L52 30L52 27ZM55 27L55 28L56 28L56 29L57 29L57 28L56 28L56 27ZM3 28L3 30L4 30L4 28ZM6 28L6 29L7 29L7 28ZM28 28L28 29L29 29L29 28ZM46 28L46 29L47 29L47 28ZM50 28L50 29L51 29L51 28ZM13 29L13 30L14 30L14 29ZM18 29L18 30L19 30L19 29ZM23 29L23 30L22 30L22 31L21 31L21 33L22 33L22 31L24 31L24 30L25 30L25 29ZM1 31L1 33L2 33L2 32L4 32L4 31ZM6 31L6 32L7 32L7 31ZM13 31L13 32L15 32L15 33L14 33L14 35L15 35L15 33L16 33L16 34L18 34L18 33L16 33L16 31ZM34 32L34 34L35 34L35 32ZM6 33L6 34L7 34L7 33ZM24 34L24 36L25 36L25 35L26 35L26 34ZM32 34L32 35L33 35L33 36L35 36L35 35L33 35L33 34ZM39 35L39 36L40 36L40 35ZM27 36L27 37L28 37L28 36ZM41 36L41 37L38 37L38 38L40 38L40 39L41 39L41 42L43 42L43 43L44 43L44 42L46 42L46 43L47 43L47 44L46 44L46 45L47 45L47 44L49 44L49 43L50 43L50 45L48 45L48 46L49 46L49 47L50 47L50 45L53 45L53 46L52 46L52 47L53 47L53 46L54 46L54 44L53 44L53 43L52 43L52 41L51 41L51 43L50 43L50 42L49 42L49 41L48 41L48 43L47 43L47 42L46 42L46 40L45 40L45 39L44 39L44 41L43 41L43 38L44 38L44 37L43 37L43 36ZM49 36L49 37L50 37L50 38L52 38L52 37L50 37L50 36ZM2 38L2 39L1 39L1 40L2 40L2 41L3 41L3 40L2 40L2 39L3 39L3 38ZM13 38L13 40L11 40L11 41L13 41L13 40L14 40L14 38ZM41 38L41 39L42 39L42 38ZM27 40L27 41L28 41L28 42L29 42L29 41L30 41L30 40L29 40L29 41L28 41L28 40ZM0 42L0 43L1 43L1 42ZM6 42L6 43L8 43L8 42ZM21 43L21 45L20 45L20 46L21 46L21 47L22 47L22 48L21 48L21 49L20 49L20 50L21 50L21 49L22 49L22 48L23 48L23 47L24 47L24 48L25 48L25 46L26 46L26 47L27 47L27 46L28 46L28 45L29 45L29 46L30 46L30 45L31 45L31 46L32 46L32 45L31 45L31 44L27 44L27 43L24 43L24 45L23 45L23 44L22 44L22 43ZM36 43L36 44L37 44L37 45L36 45L36 48L37 48L37 46L38 46L38 45L39 45L39 44L37 44L37 43ZM51 43L51 44L52 44L52 43ZM40 44L40 46L39 46L39 47L38 47L38 49L37 49L37 51L38 51L38 49L39 49L39 47L40 47L40 51L39 51L39 52L40 52L40 53L44 53L44 55L45 55L45 53L44 53L44 52L41 52L41 44ZM21 45L21 46L22 46L22 47L23 47L23 45ZM26 45L26 46L27 46L27 45ZM34 45L34 47L33 47L33 49L34 49L34 50L35 50L35 52L36 52L36 49L34 49L34 47L35 47L35 45ZM9 46L9 47L10 47L10 46ZM6 48L6 49L7 49L7 48ZM27 49L27 52L30 52L30 49ZM31 49L31 52L32 52L32 51L33 51L33 52L34 52L34 51L33 51L33 50L32 50L32 49ZM49 49L49 52L52 52L52 49ZM11 50L11 51L10 51L10 52L9 52L9 51L8 51L8 53L10 53L10 52L11 52L11 54L9 54L9 55L8 55L8 57L9 57L9 55L10 55L10 57L11 57L11 54L12 54L12 50ZM17 50L17 51L18 51L18 50ZM28 50L28 51L29 51L29 50ZM42 50L42 51L43 51L43 50ZM50 50L50 51L51 51L51 50ZM25 51L25 53L24 53L24 54L25 54L25 53L26 53L26 51ZM19 52L19 53L20 53L20 52ZM37 52L37 53L38 53L38 52ZM30 53L30 54L31 54L31 53ZM32 53L32 54L33 54L33 55L34 55L34 54L35 54L35 53L34 53L34 54L33 54L33 53ZM40 54L40 55L41 55L41 54ZM42 54L42 55L43 55L43 54ZM26 56L26 57L27 57L27 56ZM56 56L56 57L57 57L57 56ZM0 0L0 7L7 7L7 0ZM1 1L1 6L6 6L6 1ZM2 2L2 5L5 5L5 2ZM50 0L50 7L57 7L57 0ZM51 1L51 6L56 6L56 1ZM52 2L52 5L55 5L55 2ZM0 50L0 57L7 57L7 50ZM1 51L1 56L6 56L6 51ZM2 52L2 55L5 55L5 52Z" fill="#000000"/></g></g></svg>
