<?xml version="1.0" encoding="UTF-8"?>
<svg xmlns="http://www.w3.org/2000/svg" version="1.1" width="300" height="300" viewBox="0 0 300 300"><rect x="0" y="0" width="300" height="300" fill="#fefefe"/><g transform="scale(4.615)"><g transform="translate(4,4)"><path fill-rule="evenodd" d="M8 0L8 2L9 2L9 3L10 3L10 4L11 4L11 3L10 3L10 2L11 2L11 1L10 1L10 2L9 2L9 0ZM12 0L12 1L14 1L14 3L13 3L13 2L12 2L12 5L14 5L14 7L13 7L13 6L12 6L12 7L11 7L11 6L10 6L10 5L9 5L9 4L8 4L8 10L6 10L6 9L7 9L7 8L5 8L5 10L4 10L4 9L3 9L3 8L0 8L0 9L3 9L3 11L0 11L0 13L2 13L2 15L1 15L1 14L0 14L0 16L1 16L1 17L0 17L0 21L1 21L1 22L0 22L0 24L1 24L1 23L3 23L3 24L2 24L2 25L1 25L1 26L0 26L0 30L1 30L1 27L2 27L2 29L4 29L4 30L2 30L2 32L1 32L1 33L0 33L0 34L2 34L2 35L4 35L4 37L5 37L5 34L6 34L6 35L7 35L7 36L6 36L6 37L7 37L7 36L8 36L8 37L9 37L9 41L8 41L8 40L6 40L6 39L8 39L8 38L5 38L5 39L4 39L4 38L3 38L3 36L2 36L2 38L1 38L1 37L0 37L0 40L3 40L3 42L1 42L1 44L0 44L0 48L5 48L5 47L7 47L7 46L11 46L11 48L9 48L9 47L8 47L8 48L6 48L6 49L8 49L8 50L9 50L9 49L11 49L11 48L12 48L12 50L13 50L13 51L12 51L12 52L9 52L9 51L8 51L8 52L9 52L9 53L11 53L11 54L12 54L12 55L13 55L13 54L14 54L14 57L17 57L17 55L16 55L16 54L18 54L18 53L19 53L19 52L18 52L18 49L19 49L19 50L20 50L20 49L21 49L21 48L22 48L22 50L21 50L21 51L20 51L20 53L21 53L21 54L20 54L20 55L21 55L21 56L22 56L22 57L23 57L23 56L24 56L24 57L25 57L25 55L26 55L26 57L28 57L28 55L29 55L29 57L33 57L33 55L34 55L34 57L35 57L35 55L37 55L37 54L38 54L38 53L39 53L39 56L40 56L40 57L41 57L41 56L40 56L40 54L41 54L41 55L42 55L42 57L43 57L43 54L42 54L42 52L44 52L44 55L45 55L45 56L44 56L44 57L45 57L45 56L46 56L46 55L47 55L47 57L50 57L50 55L49 55L49 54L52 54L52 55L53 55L53 56L51 56L51 57L54 57L54 53L55 53L55 52L56 52L56 51L57 51L57 50L56 50L56 47L57 47L57 45L56 45L56 44L57 44L57 42L56 42L56 41L57 41L57 40L54 40L54 39L55 39L55 38L57 38L57 37L56 37L56 36L54 36L54 34L53 34L53 36L51 36L51 33L50 33L50 32L49 32L49 31L52 31L52 32L54 32L54 33L55 33L55 34L56 34L56 35L57 35L57 34L56 34L56 31L57 31L57 29L56 29L56 27L57 27L57 24L56 24L56 23L57 23L57 12L56 12L56 11L57 11L57 10L56 10L56 9L57 9L57 8L55 8L55 9L54 9L54 10L53 10L53 11L52 11L52 9L53 9L53 8L49 8L49 6L48 6L48 8L47 8L47 5L48 5L48 0L46 0L46 1L47 1L47 2L45 2L45 4L44 4L44 2L43 2L43 3L42 3L42 5L41 5L41 6L40 6L40 7L41 7L41 8L40 8L40 10L38 10L38 9L39 9L39 6L38 6L38 5L39 5L39 4L40 4L40 2L42 2L42 1L45 1L45 0L42 0L42 1L41 1L41 0L38 0L38 3L37 3L37 4L38 4L38 5L37 5L37 6L36 6L36 10L34 10L34 9L35 9L35 4L36 4L36 3L35 3L35 4L34 4L34 2L37 2L37 1L35 1L35 0L34 0L34 2L33 2L33 1L32 1L32 2L31 2L31 0L30 0L30 3L29 3L29 4L26 4L26 3L27 3L27 1L28 1L28 2L29 2L29 1L28 1L28 0L26 0L26 2L25 2L25 4L24 4L24 1L25 1L25 0L24 0L24 1L23 1L23 0L20 0L20 1L19 1L19 0L18 0L18 1L19 1L19 2L18 2L18 3L21 3L21 4L22 4L22 3L21 3L21 1L22 1L22 2L23 2L23 6L22 6L22 5L20 5L20 7L19 7L19 5L17 5L17 4L16 4L16 3L17 3L17 0L16 0L16 2L15 2L15 0ZM39 1L39 2L40 2L40 1ZM32 2L32 5L31 5L31 9L30 9L30 10L31 10L31 9L32 9L32 11L31 11L31 12L30 12L30 11L29 11L29 10L28 10L28 11L27 11L27 10L25 10L25 9L26 9L26 5L24 5L24 6L23 6L23 7L22 7L22 6L21 6L21 9L20 9L20 11L18 11L18 12L19 12L19 13L18 13L18 15L15 15L15 14L17 14L17 12L16 12L16 10L17 10L17 9L18 9L18 10L19 10L19 9L18 9L18 8L19 8L19 7L18 7L18 6L17 6L17 5L16 5L16 6L15 6L15 7L14 7L14 8L13 8L13 7L12 7L12 8L10 8L10 6L9 6L9 9L11 9L11 10L10 10L10 11L6 11L6 10L5 10L5 11L6 11L6 12L10 12L10 13L9 13L9 14L8 14L8 13L5 13L5 12L4 12L4 11L3 11L3 12L2 12L2 13L5 13L5 15L6 15L6 16L8 16L8 17L6 17L6 18L5 18L5 16L4 16L4 14L3 14L3 15L2 15L2 17L1 17L1 21L2 21L2 22L3 22L3 21L4 21L4 23L5 23L5 25L6 25L6 26L7 26L7 25L6 25L6 24L7 24L7 23L8 23L8 17L9 17L9 16L8 16L8 15L9 15L9 14L10 14L10 13L11 13L11 14L12 14L12 15L11 15L11 16L13 16L13 17L14 17L14 16L15 16L15 17L16 17L16 19L14 19L14 20L16 20L16 19L17 19L17 18L19 18L19 21L18 21L18 20L17 20L17 22L16 22L16 23L17 23L17 25L16 25L16 27L15 27L15 21L14 21L14 22L13 22L13 20L12 20L12 19L11 19L11 21L10 21L10 20L9 20L9 22L10 22L10 24L9 24L9 25L8 25L8 26L10 26L10 27L9 27L9 30L13 30L13 32L12 32L12 31L11 31L11 32L10 32L10 33L9 33L9 31L3 31L3 32L5 32L5 33L6 33L6 34L7 34L7 35L8 35L8 36L9 36L9 37L10 37L10 38L11 38L11 39L10 39L10 40L11 40L11 39L15 39L15 41L13 41L13 42L14 42L14 44L15 44L15 45L16 45L16 46L13 46L13 47L12 47L12 48L13 48L13 49L14 49L14 51L15 51L15 49L14 49L14 48L13 48L13 47L15 47L15 48L16 48L16 52L17 52L17 53L18 53L18 52L17 52L17 49L18 49L18 48L19 48L19 49L20 49L20 47L19 47L19 45L20 45L20 46L22 46L22 48L23 48L23 49L24 49L24 51L22 51L22 52L21 52L21 53L22 53L22 56L23 56L23 53L22 53L22 52L24 52L24 51L25 51L25 54L24 54L24 55L25 55L25 54L26 54L26 55L28 55L28 53L26 53L26 51L25 51L25 50L26 50L26 48L28 48L28 46L29 46L29 47L30 47L30 48L31 48L31 47L33 47L33 45L34 45L34 48L33 48L33 49L32 49L32 50L31 50L31 52L32 52L32 50L33 50L33 49L34 49L34 50L35 50L35 51L37 51L37 53L36 53L36 52L34 52L34 51L33 51L33 52L34 52L34 55L35 55L35 53L36 53L36 54L37 54L37 53L38 53L38 52L39 52L39 53L40 53L40 52L39 52L39 49L40 49L40 51L41 51L41 52L42 52L42 51L41 51L41 49L42 49L42 50L43 50L43 51L45 51L45 49L46 49L46 51L47 51L47 52L45 52L45 53L46 53L46 54L47 54L47 55L48 55L48 56L49 56L49 55L48 55L48 54L49 54L49 53L47 53L47 52L48 52L48 51L47 51L47 49L46 49L46 48L47 48L47 47L48 47L48 46L49 46L49 47L50 47L50 42L49 42L49 41L51 41L51 40L52 40L52 44L53 44L53 45L52 45L52 47L54 47L54 48L55 48L55 47L56 47L56 45L55 45L55 44L56 44L56 42L55 42L55 41L54 41L54 40L52 40L52 38L53 38L53 39L54 39L54 38L53 38L53 37L54 37L54 36L53 36L53 37L52 37L52 38L51 38L51 37L50 37L50 38L51 38L51 40L48 40L48 38L47 38L47 36L48 36L48 35L49 35L49 36L50 36L50 33L49 33L49 34L48 34L48 33L47 33L47 32L46 32L46 31L47 31L47 30L48 30L48 29L47 29L47 28L48 28L48 26L49 26L49 25L50 25L50 26L52 26L52 24L53 24L53 22L54 22L54 26L55 26L55 25L56 25L56 24L55 24L55 23L56 23L56 18L55 18L55 19L54 19L54 17L56 17L56 16L55 16L55 15L56 15L56 13L55 13L55 11L56 11L56 10L55 10L55 11L54 11L54 12L53 12L53 14L52 14L52 13L50 13L50 11L51 11L51 12L52 12L52 11L51 11L51 9L50 9L50 11L49 11L49 8L48 8L48 14L47 14L47 13L46 13L46 11L47 11L47 9L46 9L46 8L45 8L45 7L46 7L46 5L47 5L47 3L46 3L46 5L44 5L44 4L43 4L43 5L44 5L44 6L43 6L43 7L42 7L42 6L41 6L41 7L42 7L42 8L43 8L43 9L42 9L42 10L40 10L40 11L41 11L41 12L42 12L42 15L41 15L41 17L42 17L42 18L43 18L43 17L44 17L44 19L43 19L43 20L42 20L42 19L41 19L41 18L40 18L40 14L41 14L41 13L40 13L40 12L37 12L37 11L38 11L38 10L37 10L37 11L36 11L36 12L35 12L35 11L34 11L34 10L33 10L33 9L32 9L32 8L34 8L34 6L33 6L33 5L34 5L34 4L33 4L33 2ZM14 3L14 4L15 4L15 3ZM27 5L27 8L30 8L30 5ZM16 6L16 7L17 7L17 8L18 8L18 7L17 7L17 6ZM24 6L24 7L25 7L25 6ZM28 6L28 7L29 7L29 6ZM32 6L32 7L33 7L33 6ZM37 6L37 7L38 7L38 6ZM44 6L44 7L45 7L45 6ZM12 8L12 9L13 9L13 8ZM14 8L14 9L15 9L15 10L16 10L16 9L15 9L15 8ZM22 8L22 9L21 9L21 10L22 10L22 9L23 9L23 10L24 10L24 11L22 11L22 12L23 12L23 14L24 14L24 15L25 15L25 16L26 16L26 19L25 19L25 18L24 18L24 16L22 16L22 14L20 14L20 13L21 13L21 12L20 12L20 13L19 13L19 16L18 16L18 17L19 17L19 18L20 18L20 19L21 19L21 18L22 18L22 19L23 19L23 20L22 20L22 21L23 21L23 22L22 22L22 26L20 26L20 27L21 27L21 30L22 30L22 33L23 33L23 35L25 35L25 36L24 36L24 37L25 37L25 36L26 36L26 35L25 35L25 34L24 34L24 32L25 32L25 31L23 31L23 30L24 30L24 28L25 28L25 30L26 30L26 32L27 32L27 31L30 31L30 32L29 32L29 34L28 34L28 33L26 33L26 34L28 34L28 35L27 35L27 36L28 36L28 37L29 37L29 36L28 36L28 35L31 35L31 36L30 36L30 41L29 41L29 40L28 40L28 41L27 41L27 39L26 39L26 40L25 40L25 41L26 41L26 42L25 42L25 45L26 45L26 46L25 46L25 48L26 48L26 46L27 46L27 43L28 43L28 44L30 44L30 43L31 43L31 38L33 38L33 39L34 39L34 41L33 41L33 40L32 40L32 45L33 45L33 44L35 44L35 43L36 43L36 41L37 41L37 42L38 42L38 41L39 41L39 42L40 42L40 43L37 43L37 44L36 44L36 45L37 45L37 46L38 46L38 45L37 45L37 44L40 44L40 46L41 46L41 47L40 47L40 49L41 49L41 47L42 47L42 45L43 45L43 44L42 44L42 45L41 45L41 44L40 44L40 43L41 43L41 42L42 42L42 43L43 43L43 42L42 42L42 41L41 41L41 40L40 40L40 39L42 39L42 40L43 40L43 39L44 39L44 45L45 45L45 46L44 46L44 47L46 47L46 44L47 44L47 45L49 45L49 43L48 43L48 44L47 44L47 42L46 42L46 40L47 40L47 41L48 41L48 40L47 40L47 38L46 38L46 36L47 36L47 35L48 35L48 34L47 34L47 35L46 35L46 32L45 32L45 31L46 31L46 30L45 30L45 29L46 29L46 28L47 28L47 26L48 26L48 25L49 25L49 23L50 23L50 24L52 24L52 22L53 22L53 21L54 21L54 22L55 22L55 21L54 21L54 19L53 19L53 20L52 20L52 22L51 22L51 23L50 23L50 22L49 22L49 23L48 23L48 21L47 21L47 24L48 24L48 25L47 25L47 26L46 26L46 25L45 25L45 24L44 24L44 23L46 23L46 20L48 20L48 19L46 19L46 20L45 20L45 19L44 19L44 21L43 21L43 22L42 22L42 20L41 20L41 19L40 19L40 18L38 18L38 16L37 16L37 15L38 15L38 13L37 13L37 12L36 12L36 14L35 14L35 15L34 15L34 13L35 13L35 12L34 12L34 11L33 11L33 12L32 12L32 14L33 14L33 15L32 15L32 17L33 17L33 18L32 18L32 19L30 19L30 20L28 20L28 19L27 19L27 16L26 16L26 14L24 14L24 12L25 12L25 13L26 13L26 11L25 11L25 10L24 10L24 9L25 9L25 8ZM37 8L37 9L38 9L38 8ZM44 8L44 10L42 10L42 12L43 12L43 11L44 11L44 10L45 10L45 8ZM11 10L11 11L10 11L10 12L11 12L11 11L12 11L12 13L13 13L13 11L12 11L12 10ZM14 11L14 12L15 12L15 11ZM28 11L28 12L27 12L27 14L28 14L28 15L29 15L29 16L30 16L30 17L28 17L28 18L30 18L30 17L31 17L31 16L30 16L30 15L29 15L29 13L30 13L30 12L29 12L29 11ZM44 12L44 13L45 13L45 14L43 14L43 16L44 16L44 17L45 17L45 18L46 18L46 17L45 17L45 16L44 16L44 15L46 15L46 16L47 16L47 18L48 18L48 17L49 17L49 20L51 20L51 18L52 18L52 17L54 17L54 15L55 15L55 14L54 14L54 15L53 15L53 16L52 16L52 14L51 14L51 16L50 16L50 13L49 13L49 14L48 14L48 15L46 15L46 13L45 13L45 12ZM39 13L39 14L40 14L40 13ZM6 14L6 15L8 15L8 14ZM36 14L36 15L35 15L35 17L34 17L34 15L33 15L33 17L34 17L34 18L33 18L33 20L34 20L34 18L36 18L36 19L37 19L37 20L38 20L38 22L39 22L39 23L36 23L36 22L37 22L37 21L36 21L36 20L35 20L35 21L34 21L34 22L35 22L35 23L36 23L36 24L34 24L34 23L33 23L33 24L34 24L34 26L33 26L33 25L32 25L32 23L30 23L30 26L31 26L31 25L32 25L32 27L31 27L31 32L30 32L30 34L31 34L31 35L32 35L32 34L33 34L33 33L34 33L34 34L35 34L35 33L36 33L36 35L35 35L35 36L34 36L34 39L35 39L35 41L34 41L34 42L35 42L35 41L36 41L36 38L37 38L37 37L36 37L36 35L38 35L38 36L40 36L40 35L41 35L41 36L42 36L42 39L43 39L43 38L44 38L44 34L45 34L45 33L44 33L44 34L43 34L43 33L42 33L42 31L43 31L43 28L42 28L42 31L40 31L40 30L41 30L41 29L40 29L40 28L41 28L41 27L39 27L39 29L38 29L38 28L37 28L37 30L36 30L36 27L37 27L37 26L36 26L36 24L37 24L37 25L38 25L38 26L39 26L39 25L40 25L40 26L41 26L41 25L40 25L40 24L39 24L39 23L41 23L41 24L42 24L42 27L43 27L43 25L44 25L44 27L46 27L46 26L45 26L45 25L44 25L44 24L43 24L43 23L44 23L44 22L45 22L45 21L44 21L44 22L43 22L43 23L42 23L42 22L40 22L40 19L39 19L39 20L38 20L38 19L37 19L37 18L36 18L36 15L37 15L37 14ZM13 15L13 16L14 16L14 15ZM20 15L20 18L21 18L21 15ZM51 16L51 17L50 17L50 18L51 18L51 17L52 17L52 16ZM11 17L11 18L12 18L12 17ZM3 18L3 19L2 19L2 20L3 20L3 19L4 19L4 20L5 20L5 23L7 23L7 22L6 22L6 21L7 21L7 20L6 20L6 19L7 19L7 18L6 18L6 19L4 19L4 18ZM9 18L9 19L10 19L10 18ZM24 19L24 20L25 20L25 19ZM26 19L26 20L27 20L27 21L28 21L28 20L27 20L27 19ZM20 20L20 21L21 21L21 20ZM31 20L31 21L30 21L30 22L33 22L33 21L32 21L32 20ZM35 21L35 22L36 22L36 21ZM11 22L11 24L10 24L10 26L11 26L11 28L10 28L10 29L11 29L11 28L13 28L13 29L14 29L14 30L15 30L15 31L14 31L14 33L15 33L15 36L14 36L14 35L13 35L13 34L12 34L12 33L11 33L11 34L12 34L12 36L10 36L10 34L9 34L9 36L10 36L10 37L12 37L12 36L13 36L13 38L14 38L14 37L15 37L15 36L16 36L16 37L17 37L17 38L16 38L16 39L17 39L17 38L18 38L18 42L16 42L16 43L15 43L15 44L16 44L16 45L17 45L17 46L16 46L16 47L17 47L17 46L18 46L18 45L19 45L19 44L18 44L18 43L20 43L20 45L21 45L21 43L20 43L20 41L21 41L21 42L22 42L22 41L23 41L23 43L22 43L22 44L23 44L23 47L24 47L24 40L22 40L22 41L21 41L21 39L20 39L20 38L21 38L21 36L20 36L20 33L21 33L21 32L20 32L20 33L19 33L19 31L20 31L20 29L19 29L19 30L15 30L15 29L14 29L14 26L13 26L13 25L12 25L12 23L13 23L13 22ZM18 22L18 23L19 23L19 22ZM20 22L20 23L21 23L21 22ZM24 22L24 23L25 23L25 22ZM26 22L26 23L27 23L27 25L26 25L26 26L27 26L27 25L28 25L28 26L29 26L29 25L28 25L28 22ZM3 24L3 25L2 25L2 26L3 26L3 28L4 28L4 26L3 26L3 25L4 25L4 24ZM18 24L18 25L19 25L19 24ZM24 25L24 26L25 26L25 25ZM12 26L12 27L13 27L13 26ZM5 27L5 30L8 30L8 27ZM18 27L18 28L19 28L19 27ZM22 27L22 28L24 28L24 27ZM27 27L27 30L30 30L30 27ZM34 27L34 29L33 29L33 28L32 28L32 29L33 29L33 31L32 31L32 33L33 33L33 32L34 32L34 29L35 29L35 27ZM49 27L49 30L52 30L52 27ZM54 27L54 28L53 28L53 31L54 31L54 32L55 32L55 31L56 31L56 30L55 30L55 27ZM6 28L6 29L7 29L7 28ZM28 28L28 29L29 29L29 28ZM50 28L50 29L51 29L51 28ZM22 29L22 30L23 30L23 29ZM37 30L37 31L36 31L36 33L37 33L37 34L38 34L38 35L39 35L39 34L38 34L38 33L39 33L39 32L40 32L40 34L42 34L42 33L41 33L41 32L40 32L40 31L38 31L38 30ZM54 30L54 31L55 31L55 30ZM16 31L16 32L15 32L15 33L16 33L16 35L17 35L17 37L18 37L18 38L19 38L19 37L18 37L18 35L17 35L17 34L19 34L19 33L18 33L18 31ZM37 31L37 32L38 32L38 31ZM6 32L6 33L7 33L7 32ZM16 32L16 33L17 33L17 32ZM2 33L2 34L4 34L4 33ZM21 34L21 35L22 35L22 34ZM0 35L0 36L1 36L1 35ZM45 35L45 36L46 36L46 35ZM22 36L22 38L23 38L23 36ZM31 36L31 37L32 37L32 36ZM35 37L35 38L36 38L36 37ZM38 37L38 38L39 38L39 39L40 39L40 38L39 38L39 37ZM24 38L24 39L25 39L25 38ZM28 38L28 39L29 39L29 38ZM3 39L3 40L4 40L4 41L5 41L5 42L3 42L3 43L2 43L2 44L1 44L1 47L2 47L2 46L3 46L3 47L5 47L5 43L6 43L6 44L7 44L7 45L6 45L6 46L7 46L7 45L8 45L8 44L11 44L11 46L12 46L12 44L13 44L13 43L12 43L12 44L11 44L11 42L12 42L12 41L11 41L11 42L9 42L9 43L8 43L8 41L6 41L6 40L4 40L4 39ZM37 39L37 41L38 41L38 39ZM45 39L45 40L46 40L46 39ZM39 40L39 41L40 41L40 40ZM28 41L28 43L30 43L30 42L29 42L29 41ZM53 41L53 44L54 44L54 43L55 43L55 42L54 42L54 41ZM6 42L6 43L7 43L7 42ZM3 43L3 44L4 44L4 43ZM53 45L53 46L54 46L54 47L55 47L55 46L54 46L54 45ZM30 46L30 47L31 47L31 46ZM35 46L35 47L36 47L36 46ZM37 47L37 48L36 48L36 49L37 49L37 51L38 51L38 47ZM8 48L8 49L9 49L9 48ZM44 48L44 49L45 49L45 48ZM27 49L27 52L30 52L30 49ZM49 49L49 52L52 52L52 49ZM54 49L54 50L53 50L53 51L54 51L54 52L55 52L55 51L56 51L56 50L55 50L55 49ZM10 50L10 51L11 51L11 50ZM28 50L28 51L29 51L29 50ZM50 50L50 51L51 51L51 50ZM12 53L12 54L13 54L13 53ZM14 53L14 54L15 54L15 53ZM31 53L31 54L30 54L30 55L33 55L33 54L32 54L32 53ZM8 54L8 57L10 57L10 56L9 56L9 55L10 55L10 54ZM55 54L55 55L57 55L57 54ZM18 56L18 57L19 57L19 56ZM36 56L36 57L37 57L37 56ZM56 56L56 57L57 57L57 56ZM0 0L0 7L7 7L7 0ZM1 1L1 6L6 6L6 1ZM2 2L2 5L5 5L5 2ZM50 0L50 7L57 7L57 0ZM51 1L51 6L56 6L56 1ZM52 2L52 5L55 5L55 2ZM0 50L0 57L7 57L7 50ZM1 51L1 56L6 56L6 51ZM2 52L2 55L5 55L5 52Z" fill="#000000"/></g></g></svg>
