<?xml version="1.0" encoding="UTF-8"?>
<svg xmlns="http://www.w3.org/2000/svg" version="1.1" width="300" height="300" viewBox="0 0 300 300"><rect x="0" y="0" width="300" height="300" fill="#fefefe"/><g transform="scale(4.615)"><g transform="translate(4,4)"><path fill-rule="evenodd" d="M8 0L8 1L9 1L9 2L8 2L8 5L9 5L9 4L10 4L10 3L11 3L11 4L14 4L14 5L13 5L13 6L12 6L12 7L11 7L11 6L10 6L10 7L9 7L9 6L8 6L8 7L9 7L9 8L8 8L8 9L7 9L7 8L6 8L6 9L5 9L5 10L3 10L3 11L1 11L1 9L4 9L4 8L0 8L0 11L1 11L1 12L3 12L3 11L4 11L4 13L3 13L3 14L2 14L2 13L0 13L0 14L2 14L2 15L0 15L0 16L1 16L1 17L3 17L3 16L4 16L4 20L3 20L3 22L2 22L2 21L1 21L1 20L0 20L0 24L2 24L2 23L3 23L3 24L4 24L4 22L5 22L5 21L7 21L7 22L6 22L6 23L8 23L8 22L9 22L9 24L8 24L8 25L10 25L10 26L11 26L11 27L13 27L13 26L14 26L14 27L15 27L15 29L13 29L13 28L12 28L12 29L11 29L11 28L9 28L9 26L6 26L6 25L7 25L7 24L5 24L5 25L3 25L3 26L2 26L2 25L0 25L0 28L1 28L1 27L3 27L3 28L2 28L2 29L1 29L1 30L0 30L0 31L2 31L2 32L1 32L1 33L0 33L0 37L1 37L1 35L2 35L2 34L3 34L3 38L2 38L2 42L0 42L0 48L5 48L5 47L7 47L7 48L6 48L6 49L8 49L8 50L9 50L9 53L8 53L8 57L9 57L9 53L10 53L10 57L18 57L18 55L17 55L17 54L18 54L18 53L17 53L17 54L16 54L16 53L15 53L15 52L16 52L16 51L17 51L17 52L19 52L19 55L20 55L20 56L21 56L21 57L24 57L24 56L25 56L25 55L26 55L26 56L28 56L28 55L26 55L26 54L25 54L25 53L29 53L29 54L31 54L31 55L30 55L30 56L31 56L31 57L32 57L32 55L34 55L34 56L33 56L33 57L36 57L36 55L38 55L38 57L43 57L43 55L44 55L44 56L45 56L45 57L46 57L46 55L44 55L44 54L47 54L47 56L49 56L49 57L51 57L51 54L52 54L52 53L54 53L54 54L56 54L56 53L57 53L57 52L56 52L56 51L55 51L55 50L53 50L53 49L54 49L54 47L57 47L57 45L56 45L56 46L55 46L55 44L52 44L52 43L53 43L53 42L54 42L54 43L56 43L56 44L57 44L57 43L56 43L56 41L57 41L57 40L56 40L56 41L55 41L55 42L54 42L54 41L53 41L53 40L55 40L55 38L56 38L56 39L57 39L57 38L56 38L56 37L57 37L57 36L54 36L54 35L57 35L57 31L56 31L56 30L57 30L57 29L56 29L56 30L54 30L54 29L55 29L55 27L53 27L53 26L51 26L51 25L50 25L50 24L54 24L54 23L53 23L53 20L50 20L50 18L48 18L48 14L47 14L47 15L45 15L45 14L46 14L46 13L44 13L44 11L42 11L42 12L43 12L43 14L42 14L42 17L41 17L41 18L39 18L39 19L40 19L40 20L39 20L39 22L38 22L38 21L36 21L36 20L38 20L38 19L36 19L36 20L35 20L35 19L34 19L34 20L33 20L33 21L34 21L34 20L35 20L35 22L37 22L37 24L36 24L36 23L35 23L35 24L33 24L33 22L32 22L32 23L31 23L31 24L30 24L30 22L31 22L31 21L29 21L29 19L30 19L30 17L29 17L29 16L31 16L31 17L33 17L33 18L35 18L35 17L34 17L34 16L35 16L35 15L36 15L36 13L37 13L37 15L39 15L39 17L40 17L40 16L41 16L41 15L39 15L39 10L38 10L38 9L41 9L41 10L40 10L40 11L41 11L41 10L44 10L44 9L42 9L42 8L43 8L43 6L42 6L42 5L41 5L41 4L39 4L39 2L37 2L37 1L38 1L38 0L37 0L37 1L36 1L36 0L35 0L35 1L34 1L34 3L33 3L33 2L32 2L32 0L28 0L28 1L27 1L27 3L28 3L28 1L29 1L29 2L31 2L31 4L26 4L26 1L25 1L25 0L23 0L23 1L25 1L25 2L24 2L24 3L23 3L23 2L22 2L22 3L21 3L21 5L20 5L20 4L19 4L19 3L20 3L20 2L18 2L18 1L20 1L20 0L17 0L17 2L16 2L16 1L15 1L15 0L14 0L14 1L15 1L15 3L17 3L17 5L15 5L15 4L14 4L14 3L12 3L12 2L13 2L13 0L12 0L12 1L11 1L11 0L10 0L10 1L9 1L9 0ZM21 0L21 1L22 1L22 0ZM39 0L39 1L40 1L40 2L41 2L41 3L43 3L43 5L45 5L45 4L44 4L44 3L45 3L45 2L46 2L46 3L47 3L47 5L46 5L46 7L47 7L47 5L48 5L48 0L45 0L45 1L44 1L44 2L41 2L41 1L43 1L43 0L41 0L41 1L40 1L40 0ZM35 1L35 2L36 2L36 1ZM46 1L46 2L47 2L47 1ZM17 2L17 3L18 3L18 2ZM22 3L22 4L23 4L23 3ZM32 3L32 4L31 4L31 5L32 5L32 6L31 6L31 9L32 9L32 10L30 10L30 11L29 11L29 9L28 9L28 10L26 10L26 11L25 11L25 12L24 12L24 15L23 15L23 13L22 13L22 12L23 12L23 11L21 11L21 14L19 14L19 13L20 13L20 10L23 10L23 9L24 9L24 8L25 8L25 9L26 9L26 6L25 6L25 5L26 5L26 4L24 4L24 6L23 6L23 5L21 5L21 7L20 7L20 6L19 6L19 7L18 7L18 6L17 6L17 7L16 7L16 6L15 6L15 5L14 5L14 6L13 6L13 7L12 7L12 9L11 9L11 7L10 7L10 8L9 8L9 9L11 9L11 10L9 10L9 11L11 11L11 12L10 12L10 13L9 13L9 12L8 12L8 11L6 11L6 10L7 10L7 9L6 9L6 10L5 10L5 11L6 11L6 12L7 12L7 13L6 13L6 14L7 14L7 13L9 13L9 14L10 14L10 13L11 13L11 14L12 14L12 15L14 15L14 16L15 16L15 15L16 15L16 16L17 16L17 18L16 18L16 19L15 19L15 17L12 17L12 16L11 16L11 17L10 17L10 16L9 16L9 15L5 15L5 16L8 16L8 17L6 17L6 18L5 18L5 19L6 19L6 20L8 20L8 21L10 21L10 24L11 24L11 25L12 25L12 26L13 26L13 25L16 25L16 26L15 26L15 27L16 27L16 28L17 28L17 30L16 30L16 29L15 29L15 30L14 30L14 31L12 31L12 30L13 30L13 29L12 29L12 30L11 30L11 29L10 29L10 30L9 30L9 31L6 31L6 32L5 32L5 33L6 33L6 34L4 34L4 33L3 33L3 34L4 34L4 35L5 35L5 36L7 36L7 37L6 37L6 38L5 38L5 37L4 37L4 40L7 40L7 41L6 41L6 42L7 42L7 41L10 41L10 40L13 40L13 39L14 39L14 42L13 42L13 43L12 43L12 44L11 44L11 43L10 43L10 42L9 42L9 43L10 43L10 44L7 44L7 43L4 43L4 42L2 42L2 43L4 43L4 44L3 44L3 47L5 47L5 45L6 45L6 46L7 46L7 45L9 45L9 46L8 46L8 47L9 47L9 50L10 50L10 52L11 52L11 51L12 51L12 50L13 50L13 49L14 49L14 46L13 46L13 48L12 48L12 49L11 49L11 47L12 47L12 46L10 46L10 45L13 45L13 44L14 44L14 42L15 42L15 44L16 44L16 43L17 43L17 45L15 45L15 46L16 46L16 47L15 47L15 49L16 49L16 50L17 50L17 51L18 51L18 50L19 50L19 49L21 49L21 50L22 50L22 51L21 51L21 52L22 52L22 53L23 53L23 52L24 52L24 53L25 53L25 52L26 52L26 51L24 51L24 50L26 50L26 49L25 49L25 48L24 48L24 47L23 47L23 48L21 48L21 47L22 47L22 46L23 46L23 44L25 44L25 43L26 43L26 45L25 45L25 47L26 47L26 48L28 48L28 47L29 47L29 48L31 48L31 47L32 47L32 49L31 49L31 53L32 53L32 51L34 51L34 50L35 50L35 48L37 48L37 49L36 49L36 50L37 50L37 49L38 49L38 48L39 48L39 49L40 49L40 50L39 50L39 51L36 51L36 52L35 52L35 53L36 53L36 54L34 54L34 55L36 55L36 54L37 54L37 52L40 52L40 54L41 54L41 52L42 52L42 54L43 54L43 52L42 52L42 51L43 51L43 50L44 50L44 51L45 51L45 50L46 50L46 51L47 51L47 52L46 52L46 53L47 53L47 54L50 54L50 53L47 53L47 52L48 52L48 48L47 48L47 47L49 47L49 46L51 46L51 48L52 48L52 47L53 47L53 45L51 45L51 42L50 42L50 41L52 41L52 40L50 40L50 41L47 41L47 42L46 42L46 43L47 43L47 44L44 44L44 43L45 43L45 41L43 41L43 40L42 40L42 42L40 42L40 41L41 41L41 39L39 39L39 38L37 38L37 37L39 37L39 36L40 36L40 37L41 37L41 36L42 36L42 38L44 38L44 39L45 39L45 40L46 40L46 39L45 39L45 37L46 37L46 38L48 38L48 37L51 37L51 36L52 36L52 38L50 38L50 39L52 39L52 38L53 38L53 39L54 39L54 38L53 38L53 36L52 36L52 35L51 35L51 36L48 36L48 35L47 35L47 34L50 34L50 33L49 33L49 32L48 32L48 26L49 26L49 25L46 25L46 24L45 24L45 23L46 23L46 22L47 22L47 24L48 24L48 23L52 23L52 22L51 22L51 21L50 21L50 20L49 20L49 19L48 19L48 18L47 18L47 20L46 20L46 17L47 17L47 16L45 16L45 15L44 15L44 14L43 14L43 15L44 15L44 16L45 16L45 17L42 17L42 18L41 18L41 21L44 21L44 22L45 22L45 23L43 23L43 24L44 24L44 26L43 26L43 25L42 25L42 26L43 26L43 27L42 27L42 28L44 28L44 27L45 27L45 30L44 30L44 33L45 33L45 35L46 35L46 36L44 36L44 37L43 37L43 36L42 36L42 34L41 34L41 35L37 35L37 37L35 37L35 36L36 36L36 35L35 35L35 31L37 31L37 32L36 32L36 33L37 33L37 32L38 32L38 34L39 34L39 31L40 31L40 32L41 32L41 31L43 31L43 29L42 29L42 30L41 30L41 27L40 27L40 30L39 30L39 29L38 29L38 30L37 30L37 28L34 28L34 29L36 29L36 30L35 30L35 31L32 31L32 30L33 30L33 29L31 29L31 34L30 34L30 35L29 35L29 33L30 33L30 31L29 31L29 32L28 32L28 33L27 33L27 34L26 34L26 33L25 33L25 34L24 34L24 35L22 35L22 34L23 34L23 33L24 33L24 32L23 32L23 33L22 33L22 34L21 34L21 33L20 33L20 32L22 32L22 31L23 31L23 30L21 30L21 29L24 29L24 30L26 30L26 28L23 28L23 27L25 27L25 25L28 25L28 26L29 26L29 23L28 23L28 22L25 22L25 21L27 21L27 20L28 20L28 18L29 18L29 17L26 17L26 19L27 19L27 20L25 20L25 19L24 19L24 18L25 18L25 17L24 17L24 18L23 18L23 16L25 16L25 13L26 13L26 12L28 12L28 13L30 13L30 14L31 14L31 16L32 16L32 14L31 14L31 13L33 13L33 12L32 12L32 11L33 11L33 10L34 10L34 11L35 11L35 12L34 12L34 14L33 14L33 15L35 15L35 12L38 12L38 11L37 11L37 8L39 8L39 7L40 7L40 8L42 8L42 6L41 6L41 7L40 7L40 5L38 5L38 6L37 6L37 5L36 5L36 4L34 4L34 5L33 5L33 3ZM27 5L27 8L30 8L30 5ZM14 6L14 7L13 7L13 8L14 8L14 7L15 7L15 6ZM22 6L22 8L21 8L21 9L23 9L23 8L24 8L24 7L25 7L25 6L24 6L24 7L23 7L23 6ZM28 6L28 7L29 7L29 6ZM32 6L32 8L33 8L33 6ZM34 6L34 9L36 9L36 8L37 8L37 6L36 6L36 7L35 7L35 6ZM38 6L38 7L39 7L39 6ZM44 6L44 7L45 7L45 6ZM48 6L48 9L47 9L47 8L45 8L45 9L47 9L47 10L45 10L45 11L47 11L47 12L48 12L48 10L49 10L49 17L50 17L50 15L51 15L51 17L52 17L52 15L51 15L51 13L52 13L52 14L53 14L53 17L54 17L54 18L52 18L52 19L56 19L56 20L57 20L57 19L56 19L56 18L57 18L57 15L54 15L54 14L55 14L55 13L54 13L54 10L53 10L53 13L52 13L52 12L51 12L51 11L52 11L52 10L51 10L51 11L50 11L50 8L49 8L49 6ZM19 7L19 9L18 9L18 8L17 8L17 9L18 9L18 10L17 10L17 11L16 11L16 8L15 8L15 11L14 11L14 10L13 10L13 11L12 11L12 10L11 10L11 11L12 11L12 12L11 12L11 13L12 13L12 14L13 14L13 13L14 13L14 15L15 15L15 11L16 11L16 13L17 13L17 12L18 12L18 13L19 13L19 12L18 12L18 10L20 10L20 7ZM52 8L52 9L55 9L55 11L56 11L56 13L57 13L57 10L56 10L56 9L57 9L57 8L56 8L56 9L55 9L55 8ZM35 10L35 11L36 11L36 10ZM30 11L30 12L31 12L31 11ZM50 12L50 13L51 13L51 12ZM40 13L40 14L41 14L41 13ZM16 14L16 15L17 15L17 16L19 16L19 17L18 17L18 18L19 18L19 19L16 19L16 23L15 23L15 24L16 24L16 23L17 23L17 21L18 21L18 20L19 20L19 19L20 19L20 20L21 20L21 22L19 22L19 24L17 24L17 27L20 27L20 28L18 28L18 29L19 29L19 32L20 32L20 31L21 31L21 30L20 30L20 28L21 28L21 26L22 26L22 27L23 27L23 25L21 25L21 24L24 24L24 25L25 25L25 22L24 22L24 21L23 21L23 20L22 20L22 19L20 19L20 18L19 18L19 17L21 17L21 18L22 18L22 17L21 17L21 16L20 16L20 15L18 15L18 14ZM26 15L26 16L27 16L27 15ZM28 15L28 16L29 16L29 15ZM9 17L9 18L8 18L8 20L9 20L9 19L10 19L10 21L11 21L11 24L12 24L12 25L13 25L13 24L14 24L14 20L15 20L15 19L13 19L13 20L12 20L12 21L11 21L11 18L10 18L10 17ZM36 17L36 18L37 18L37 17ZM55 17L55 18L56 18L56 17ZM1 18L1 19L2 19L2 18ZM6 18L6 19L7 19L7 18ZM31 18L31 20L32 20L32 18ZM42 18L42 19L43 19L43 18ZM44 18L44 19L45 19L45 18ZM48 20L48 21L47 21L47 22L49 22L49 20ZM54 20L54 21L55 21L55 20ZM56 21L56 22L55 22L55 23L57 23L57 21ZM21 22L21 23L20 23L20 24L19 24L19 25L18 25L18 26L19 26L19 25L20 25L20 24L21 24L21 23L22 23L22 22ZM12 23L12 24L13 24L13 23ZM26 23L26 24L28 24L28 23ZM38 23L38 24L39 24L39 26L38 26L38 27L39 27L39 26L40 26L40 25L41 25L41 24L42 24L42 23ZM32 24L32 25L33 25L33 24ZM55 24L55 25L56 25L56 24ZM30 25L30 26L31 26L31 25ZM34 25L34 27L35 27L35 25ZM45 25L45 26L46 26L46 30L45 30L45 32L46 32L46 31L47 31L47 26L46 26L46 25ZM3 26L3 27L4 27L4 26ZM5 27L5 30L8 30L8 27ZM27 27L27 30L30 30L30 27ZM31 27L31 28L33 28L33 27ZM49 27L49 30L52 30L52 27ZM56 27L56 28L57 28L57 27ZM3 28L3 29L2 29L2 31L4 31L4 30L3 30L3 29L4 29L4 28ZM6 28L6 29L7 29L7 28ZM28 28L28 29L29 29L29 28ZM50 28L50 29L51 29L51 28ZM53 28L53 29L54 29L54 28ZM15 30L15 33L13 33L13 34L12 34L12 36L11 36L11 37L14 37L14 38L15 38L15 41L16 41L16 42L18 42L18 43L19 43L19 45L17 45L17 47L16 47L16 48L17 48L17 49L19 49L19 48L17 48L17 47L21 47L21 46L22 46L22 44L23 44L23 43L25 43L25 42L29 42L29 43L27 43L27 44L29 44L29 46L32 46L32 47L33 47L33 50L34 50L34 48L35 48L35 47L36 47L36 46L34 46L34 47L33 47L33 46L32 46L32 45L30 45L30 44L29 44L29 43L31 43L31 44L32 44L32 42L33 42L33 45L34 45L34 44L35 44L35 45L36 45L36 44L35 44L35 43L34 43L34 42L36 42L36 41L34 41L34 40L35 40L35 39L36 39L36 38L35 38L35 39L33 39L33 38L34 38L34 37L33 37L33 38L32 38L32 36L34 36L34 34L33 34L33 35L32 35L32 34L31 34L31 35L32 35L32 36L29 36L29 35L28 35L28 34L27 34L27 35L26 35L26 36L29 36L29 38L25 38L25 39L24 39L24 37L25 37L25 36L23 36L23 39L21 39L21 38L20 38L20 37L19 37L19 36L20 36L20 35L19 35L19 34L15 34L15 33L16 33L16 30ZM38 30L38 31L39 31L39 30ZM53 30L53 32L52 32L52 31L50 31L50 32L52 32L52 34L54 34L54 33L55 33L55 34L56 34L56 33L55 33L55 31L54 31L54 30ZM11 31L11 32L9 32L9 33L7 33L7 32L6 32L6 33L7 33L7 34L6 34L6 35L8 35L8 36L9 36L9 37L7 37L7 38L6 38L6 39L7 39L7 38L10 38L10 39L12 39L12 38L10 38L10 36L9 36L9 35L10 35L10 34L9 34L9 33L11 33L11 32L12 32L12 31ZM17 31L17 33L18 33L18 31ZM25 31L25 32L27 32L27 31ZM33 32L33 33L34 33L34 32ZM42 32L42 33L43 33L43 32ZM53 32L53 33L54 33L54 32ZM8 34L8 35L9 35L9 34ZM13 34L13 35L14 35L14 36L15 36L15 38L17 38L17 39L16 39L16 40L17 40L17 41L19 41L19 43L21 43L21 44L22 44L22 41L23 41L23 42L25 42L25 41L26 41L26 39L25 39L25 41L24 41L24 39L23 39L23 40L22 40L22 41L19 41L19 40L17 40L17 39L19 39L19 38L17 38L17 36L19 36L19 35L17 35L17 36L15 36L15 34ZM43 34L43 35L44 35L44 34ZM21 35L21 36L22 36L22 35ZM30 38L30 39L28 39L28 40L27 40L27 41L28 41L28 40L29 40L29 41L30 41L30 40L33 40L33 39L32 39L32 38ZM0 39L0 41L1 41L1 39ZM8 39L8 40L9 40L9 39ZM38 39L38 40L37 40L37 41L40 41L40 40L39 40L39 39ZM47 39L47 40L49 40L49 39ZM11 41L11 42L12 42L12 41ZM37 42L37 44L38 44L38 45L37 45L37 47L38 47L38 45L39 45L39 46L40 46L40 47L43 47L43 49L44 49L44 48L45 48L45 49L47 49L47 48L46 48L46 47L47 47L47 46L49 46L49 45L47 45L47 46L46 46L46 47L45 47L45 46L43 46L43 45L42 45L42 43L44 43L44 42L42 42L42 43L41 43L41 44L40 44L40 43L39 43L39 42ZM47 42L47 43L48 43L48 44L49 44L49 43L50 43L50 42ZM38 43L38 44L39 44L39 43ZM1 44L1 47L2 47L2 44ZM4 44L4 45L5 45L5 44ZM6 44L6 45L7 45L7 44ZM20 45L20 46L21 46L21 45ZM26 45L26 46L27 46L27 47L28 47L28 46L27 46L27 45ZM9 46L9 47L10 47L10 46ZM23 48L23 49L22 49L22 50L23 50L23 49L24 49L24 48ZM41 48L41 49L42 49L42 48ZM56 48L56 49L57 49L57 48ZM10 49L10 50L11 50L11 49ZM27 49L27 52L30 52L30 49ZM49 49L49 52L52 52L52 49ZM28 50L28 51L29 51L29 50ZM50 50L50 51L51 51L51 50ZM13 51L13 54L14 54L14 56L15 56L15 54L14 54L14 51ZM40 51L40 52L41 52L41 51ZM33 52L33 53L34 53L34 52ZM54 52L54 53L56 53L56 52ZM20 53L20 55L22 55L22 56L24 56L24 55L25 55L25 54L23 54L23 55L22 55L22 54L21 54L21 53ZM38 53L38 54L39 54L39 53ZM11 54L11 56L12 56L12 54ZM39 55L39 56L42 56L42 55ZM56 55L56 56L57 56L57 55ZM52 56L52 57L53 57L53 56ZM54 56L54 57L55 57L55 56ZM0 0L0 7L7 7L7 0ZM1 1L1 6L6 6L6 1ZM2 2L2 5L5 5L5 2ZM50 0L50 7L57 7L57 0ZM51 1L51 6L56 6L56 1ZM52 2L52 5L55 5L55 2ZM0 50L0 57L7 57L7 50ZM1 51L1 56L6 56L6 51ZM2 52L2 55L5 55L5 52Z" fill="#000000"/></g></g></svg>
