<?xml version="1.0" encoding="UTF-8"?>
<svg xmlns="http://www.w3.org/2000/svg" version="1.1" width="300" height="300" viewBox="0 0 300 300"><rect x="0" y="0" width="300" height="300" fill="#fefefe"/><g transform="scale(4.615)"><g transform="translate(4,4)"><path fill-rule="evenodd" d="M9 0L9 1L8 1L8 2L9 2L9 3L8 3L8 4L9 4L9 5L8 5L8 7L9 7L9 8L6 8L6 9L7 9L7 10L6 10L6 11L7 11L7 12L5 12L5 10L3 10L3 9L5 9L5 8L0 8L0 9L2 9L2 10L3 10L3 13L2 13L2 14L1 14L1 12L0 12L0 14L1 14L1 15L2 15L2 16L1 16L1 17L0 17L0 19L2 19L2 20L6 20L6 21L7 21L7 22L6 22L6 23L4 23L4 22L5 22L5 21L4 21L4 22L1 22L1 21L0 21L0 22L1 22L1 23L0 23L0 29L1 29L1 26L2 26L2 28L3 28L3 27L4 27L4 31L3 31L3 29L2 29L2 30L1 30L1 32L2 32L2 31L3 31L3 33L2 33L2 34L3 34L3 38L2 38L2 40L4 40L4 39L3 39L3 38L4 38L4 36L5 36L5 38L6 38L6 39L5 39L5 41L4 41L4 43L7 43L7 44L6 44L6 45L8 45L8 44L9 44L9 43L11 43L11 44L10 44L10 45L9 45L9 46L5 46L5 47L3 47L3 45L4 45L4 44L3 44L3 41L1 41L1 40L0 40L0 43L1 43L1 42L2 42L2 47L1 47L1 45L0 45L0 48L5 48L5 47L11 47L11 48L6 48L6 49L8 49L8 51L9 51L9 52L8 52L8 57L9 57L9 52L10 52L10 51L9 51L9 49L10 49L10 50L11 50L11 49L12 49L12 48L13 48L13 49L14 49L14 48L15 48L15 49L19 49L19 50L16 50L16 51L15 51L15 50L13 50L13 51L15 51L15 52L12 52L12 53L11 53L11 54L10 54L10 57L14 57L14 54L12 54L12 53L16 53L16 54L15 54L15 55L16 55L16 56L15 56L15 57L16 57L16 56L17 56L17 57L19 57L19 55L20 55L20 54L19 54L19 53L20 53L20 52L23 52L23 51L22 51L22 50L26 50L26 52L24 52L24 53L23 53L23 54L22 54L22 53L21 53L21 54L22 54L22 56L23 56L23 57L26 57L26 56L27 56L27 57L29 57L29 56L30 56L30 57L31 57L31 56L35 56L35 57L39 57L39 56L37 56L37 55L41 55L41 57L42 57L42 55L44 55L44 54L46 54L46 55L45 55L45 57L48 57L48 56L50 56L50 57L52 57L52 55L51 55L51 53L52 53L52 54L53 54L53 52L54 52L54 53L56 53L56 52L55 52L55 51L56 51L56 50L57 50L57 48L56 48L56 46L57 46L57 45L56 45L56 44L55 44L55 43L56 43L56 41L55 41L55 39L57 39L57 36L55 36L55 35L56 35L56 34L57 34L57 32L56 32L56 30L57 30L57 29L56 29L56 27L55 27L55 26L57 26L57 25L56 25L56 22L57 22L57 19L56 19L56 18L57 18L57 17L56 17L56 16L57 16L57 15L56 15L56 14L57 14L57 13L56 13L56 14L55 14L55 13L54 13L54 12L55 12L55 11L56 11L56 8L55 8L55 10L54 10L54 11L52 11L52 10L53 10L53 9L54 9L54 8L53 8L53 9L52 9L52 8L51 8L51 10L50 10L50 8L49 8L49 9L48 9L48 8L46 8L46 9L47 9L47 10L46 10L46 11L45 11L45 9L44 9L44 10L43 10L43 9L41 9L41 10L42 10L42 11L45 11L45 12L49 12L49 13L47 13L47 14L45 14L45 13L44 13L44 12L43 12L43 13L41 13L41 14L40 14L40 13L39 13L39 12L41 12L41 11L40 11L40 10L39 10L39 11L38 11L38 9L39 9L39 6L40 6L40 7L41 7L41 6L42 6L42 8L45 8L45 6L46 6L46 7L47 7L47 5L48 5L48 0L46 0L46 1L45 1L45 2L44 2L44 3L43 3L43 4L42 4L42 5L41 5L41 4L40 4L40 5L39 5L39 6L38 6L38 3L42 3L42 2L43 2L43 0L41 0L41 1L40 1L40 0L39 0L39 1L38 1L38 0L37 0L37 1L38 1L38 2L37 2L37 3L36 3L36 0L35 0L35 1L33 1L33 2L32 2L32 1L31 1L31 0L29 0L29 2L28 2L28 3L27 3L27 4L26 4L26 3L23 3L23 2L27 2L27 1L25 1L25 0L23 0L23 1L22 1L22 0L21 0L21 1L20 1L20 0L18 0L18 1L14 1L14 0L13 0L13 1L14 1L14 2L11 2L11 1L10 1L10 0ZM9 1L9 2L10 2L10 1ZM21 1L21 2L19 2L19 4L23 4L23 5L21 5L21 8L20 8L20 10L21 10L21 11L22 11L22 10L23 10L23 13L22 13L22 12L20 12L20 11L19 11L19 12L20 12L20 14L21 14L21 13L22 13L22 14L23 14L23 13L25 13L25 14L24 14L24 15L20 15L20 16L19 16L19 15L18 15L18 16L19 16L19 17L18 17L18 18L17 18L17 17L15 17L15 15L14 15L14 17L13 17L13 16L12 16L12 17L10 17L10 18L8 18L8 19L6 19L6 20L7 20L7 21L10 21L10 23L8 23L8 22L7 22L7 23L6 23L6 24L7 24L7 25L6 25L6 26L7 26L7 25L8 25L8 24L11 24L11 25L9 25L9 26L10 26L10 27L9 27L9 28L10 28L10 27L11 27L11 30L9 30L9 31L8 31L8 32L7 32L7 31L6 31L6 32L7 32L7 33L5 33L5 35L6 35L6 36L8 36L8 35L9 35L9 36L10 36L10 37L12 37L12 35L13 35L13 36L14 36L14 35L15 35L15 37L14 37L14 38L10 38L10 40L11 40L11 41L10 41L10 42L11 42L11 43L14 43L14 42L17 42L17 43L18 43L18 42L19 42L19 43L20 43L20 44L21 44L21 45L19 45L19 46L20 46L20 48L21 48L21 49L20 49L20 51L21 51L21 49L23 49L23 48L24 48L24 49L26 49L26 48L27 48L27 47L26 47L26 45L27 45L27 46L29 46L29 45L30 45L30 46L31 46L31 47L32 47L32 46L31 46L31 44L29 44L29 45L27 45L27 44L28 44L28 42L29 42L29 40L30 40L30 41L31 41L31 42L32 42L32 43L33 43L33 44L32 44L32 45L33 45L33 46L35 46L35 47L34 47L34 48L36 48L36 46L35 46L35 45L34 45L34 43L35 43L35 44L36 44L36 43L37 43L37 42L35 42L35 40L38 40L38 42L39 42L39 43L40 43L40 44L39 44L39 45L38 45L38 46L39 46L39 47L38 47L38 48L37 48L37 49L38 49L38 50L36 50L36 49L33 49L33 48L31 48L31 49L32 49L32 51L31 51L31 53L30 53L30 54L27 54L27 53L24 53L24 54L23 54L23 55L24 55L24 56L26 56L26 55L27 55L27 56L29 56L29 55L30 55L30 56L31 56L31 54L32 54L32 53L33 53L33 54L35 54L35 56L36 56L36 54L35 54L35 53L33 53L33 52L32 52L32 51L35 51L35 50L36 50L36 52L38 52L38 50L41 50L41 52L40 52L40 51L39 51L39 53L37 53L37 54L40 54L40 53L41 53L41 52L42 52L42 53L43 53L43 54L44 54L44 53L46 53L46 54L48 54L48 50L47 50L47 49L48 49L48 48L51 48L51 46L53 46L53 43L54 43L54 42L53 42L53 41L51 41L51 42L50 42L50 43L49 43L49 42L48 42L48 41L49 41L49 40L50 40L50 39L51 39L51 40L52 40L52 39L55 39L55 37L53 37L53 35L55 35L55 34L56 34L56 32L55 32L55 34L54 34L54 33L52 33L52 32L53 32L53 31L52 31L52 32L51 32L51 31L50 31L50 32L49 32L49 31L48 31L48 29L46 29L46 30L47 30L47 31L45 31L45 30L44 30L44 29L45 29L45 28L46 28L46 27L47 27L47 25L48 25L48 24L50 24L50 22L51 22L51 21L53 21L53 23L55 23L55 22L56 22L56 20L53 20L53 19L52 19L52 20L51 20L51 21L49 21L49 20L47 20L47 19L48 19L48 18L47 18L47 17L50 17L50 18L49 18L49 19L51 19L51 17L53 17L53 18L55 18L55 17L54 17L54 16L51 16L51 17L50 17L50 14L51 14L51 12L50 12L50 10L48 10L48 11L49 11L49 12L50 12L50 14L49 14L49 15L48 15L48 16L47 16L47 15L44 15L44 13L43 13L43 14L41 14L41 16L39 16L39 15L38 15L38 14L39 14L39 13L38 13L38 14L37 14L37 15L35 15L35 16L33 16L33 15L32 15L32 13L33 13L33 14L36 14L36 13L35 13L35 12L36 12L36 10L37 10L37 9L38 9L38 6L37 6L37 7L36 7L36 5L37 5L37 4L36 4L36 5L35 5L35 3L34 3L34 2L33 2L33 3L32 3L32 2L31 2L31 3L32 3L32 4L31 4L31 8L32 8L32 10L31 10L31 11L30 11L30 10L29 10L29 9L27 9L27 11L26 11L26 12L25 12L25 10L23 10L23 8L24 8L24 6L23 6L23 5L24 5L24 4L23 4L23 3L21 3L21 2L22 2L22 1ZM46 1L46 2L47 2L47 1ZM14 2L14 4L12 4L12 3L10 3L10 4L12 4L12 5L14 5L14 6L13 6L13 7L14 7L14 9L13 9L13 8L12 8L12 6L11 6L11 5L10 5L10 6L9 6L9 7L10 7L10 6L11 6L11 9L13 9L13 10L15 10L15 13L13 13L13 12L14 12L14 11L13 11L13 12L12 12L12 11L11 11L11 10L10 10L10 9L9 9L9 10L10 10L10 11L11 11L11 12L8 12L8 13L6 13L6 14L5 14L5 12L4 12L4 14L3 14L3 16L2 16L2 17L1 17L1 18L2 18L2 19L3 19L3 18L4 18L4 17L5 17L5 18L7 18L7 17L9 17L9 16L10 16L10 15L12 15L12 14L15 14L15 13L16 13L16 16L17 16L17 13L18 13L18 12L17 12L17 11L18 11L18 10L17 10L17 9L16 9L16 8L17 8L17 7L18 7L18 6L19 6L19 7L20 7L20 5L17 5L17 3L16 3L16 2ZM28 3L28 4L30 4L30 3ZM44 3L44 6L43 6L43 5L42 5L42 6L43 6L43 7L44 7L44 6L45 6L45 4L46 4L46 5L47 5L47 3ZM15 4L15 5L16 5L16 4ZM25 4L25 8L26 8L26 4ZM32 4L32 5L34 5L34 7L33 7L33 6L32 6L32 7L33 7L33 9L34 9L34 8L35 8L35 9L37 9L37 8L35 8L35 5L34 5L34 4ZM27 5L27 8L30 8L30 5ZM40 5L40 6L41 6L41 5ZM14 6L14 7L15 7L15 8L16 8L16 7L17 7L17 6L16 6L16 7L15 7L15 6ZM22 6L22 8L23 8L23 6ZM28 6L28 7L29 7L29 6ZM48 6L48 7L49 7L49 6ZM15 9L15 10L16 10L16 9ZM0 10L0 11L1 11L1 10ZM32 10L32 11L33 11L33 10ZM27 11L27 12L26 12L26 13L28 13L28 14L29 14L29 16L28 16L28 15L27 15L27 14L25 14L25 15L24 15L24 16L26 16L26 17L22 17L22 16L20 16L20 17L19 17L19 19L18 19L18 20L17 20L17 21L16 21L16 20L15 20L15 21L16 21L16 22L15 22L15 23L14 23L14 21L12 21L12 20L10 20L10 19L8 19L8 20L10 20L10 21L12 21L12 23L11 23L11 24L12 24L12 23L14 23L14 24L13 24L13 25L14 25L14 26L12 26L12 27L14 27L14 26L15 26L15 28L16 28L16 29L15 29L15 31L16 31L16 29L18 29L18 30L17 30L17 31L18 31L18 32L15 32L15 33L17 33L17 34L18 34L18 33L19 33L19 35L21 35L21 34L22 34L22 33L21 33L21 32L23 32L23 31L24 31L24 30L25 30L25 31L26 31L26 32L28 32L28 33L29 33L29 34L30 34L30 36L29 36L29 37L31 37L31 38L29 38L29 39L33 39L33 40L35 40L35 39L37 39L37 38L38 38L38 40L40 40L40 39L39 39L39 38L38 38L38 37L37 37L37 36L38 36L38 33L37 33L37 32L35 32L35 34L34 34L34 33L33 33L33 34L34 34L34 35L31 35L31 33L32 33L32 32L31 32L31 33L29 33L29 31L31 31L31 29L32 29L32 27L33 27L33 28L35 28L35 30L32 30L32 31L33 31L33 32L34 32L34 31L36 31L36 29L38 29L38 28L42 28L42 27L41 27L41 26L44 26L44 28L43 28L43 29L41 29L41 30L43 30L43 32L41 32L41 33L39 33L39 34L40 34L40 35L39 35L39 37L40 37L40 38L41 38L41 40L42 40L42 41L41 41L41 42L42 42L42 44L41 44L41 46L40 46L40 47L39 47L39 48L38 48L38 49L39 49L39 48L41 48L41 50L42 50L42 52L43 52L43 53L44 53L44 52L45 52L45 51L46 51L46 52L47 52L47 50L44 50L44 48L45 48L45 49L47 49L47 48L48 48L48 47L50 47L50 46L51 46L51 45L50 45L50 44L51 44L51 43L53 43L53 42L51 42L51 43L50 43L50 44L49 44L49 45L47 45L47 43L48 43L48 42L46 42L46 41L47 41L47 39L50 39L50 38L51 38L51 39L52 39L52 38L51 38L51 37L50 37L50 36L52 36L52 35L53 35L53 34L52 34L52 33L51 33L51 32L50 32L50 34L49 34L49 35L50 35L50 36L48 36L48 37L47 37L47 36L46 36L46 37L47 37L47 39L46 39L46 38L45 38L45 37L44 37L44 36L45 36L45 35L44 35L44 36L42 36L42 34L45 34L45 33L47 33L47 32L48 32L48 33L49 33L49 32L48 32L48 31L47 31L47 32L45 32L45 31L44 31L44 30L43 30L43 29L44 29L44 28L45 28L45 27L46 27L46 26L44 26L44 24L43 24L43 25L41 25L41 26L40 26L40 27L36 27L36 26L34 26L34 27L33 27L33 26L32 26L32 24L33 24L33 25L37 25L37 26L38 26L38 25L40 25L40 24L41 24L41 22L42 22L42 23L44 23L44 20L46 20L46 19L45 19L45 18L44 18L44 15L42 15L42 16L41 16L41 17L39 17L39 16L38 16L38 17L37 17L37 16L35 16L35 17L37 17L37 18L38 18L38 17L39 17L39 19L38 19L38 21L37 21L37 20L36 20L36 19L35 19L35 23L32 23L32 24L31 24L31 25L27 25L27 26L26 26L26 25L25 25L25 24L28 24L28 23L27 23L27 22L28 22L28 21L26 21L26 19L25 19L25 18L26 18L26 17L27 17L27 18L28 18L28 19L30 19L30 20L31 20L31 21L29 21L29 22L31 22L31 21L32 21L32 20L34 20L34 19L33 19L33 18L32 18L32 16L31 16L31 15L30 15L30 14L31 14L31 13L32 13L32 12L31 12L31 13L30 13L30 14L29 14L29 13L28 13L28 12L29 12L29 11ZM11 12L11 13L10 13L10 14L11 14L11 13L12 13L12 12ZM16 12L16 13L17 13L17 12ZM33 12L33 13L34 13L34 12ZM52 12L52 13L53 13L53 12ZM8 13L8 15L9 15L9 13ZM6 14L6 15L7 15L7 14ZM54 14L54 15L55 15L55 14ZM26 15L26 16L27 16L27 17L28 17L28 16L27 16L27 15ZM3 16L3 17L4 17L4 16ZM5 16L5 17L7 17L7 16ZM42 16L42 17L43 17L43 16ZM45 16L45 17L46 17L46 16ZM20 17L20 18L22 18L22 17ZM11 18L11 19L12 19L12 18ZM15 18L15 19L16 19L16 18ZM23 18L23 19L24 19L24 18ZM30 18L30 19L31 19L31 18ZM41 18L41 20L39 20L39 21L38 21L38 22L37 22L37 24L40 24L40 22L39 22L39 21L43 21L43 20L44 20L44 18L43 18L43 20L42 20L42 18ZM13 19L13 20L14 20L14 19ZM20 19L20 21L19 21L19 22L20 22L20 23L19 23L19 25L17 25L17 24L18 24L18 23L17 23L17 24L16 24L16 23L15 23L15 26L18 26L18 27L17 27L17 28L18 28L18 29L19 29L19 27L20 27L20 26L21 26L21 25L23 25L23 24L21 24L21 22L22 22L22 23L24 23L24 24L25 24L25 23L26 23L26 22L25 22L25 21L24 21L24 20L22 20L22 19ZM21 20L21 21L22 21L22 22L24 22L24 21L22 21L22 20ZM17 21L17 22L18 22L18 21ZM47 21L47 22L46 22L46 23L45 23L45 25L47 25L47 24L48 24L48 23L49 23L49 21ZM1 23L1 24L3 24L3 23ZM7 23L7 24L8 24L8 23ZM4 24L4 25L5 25L5 24ZM20 24L20 25L19 25L19 26L20 26L20 25L21 25L21 24ZM51 24L51 25L50 25L50 26L52 26L52 25L55 25L55 24ZM2 25L2 26L3 26L3 25ZM22 26L22 27L21 27L21 28L22 28L22 29L20 29L20 32L21 32L21 31L23 31L23 29L26 29L26 28L23 28L23 26ZM24 26L24 27L26 27L26 26ZM31 26L31 27L32 27L32 26ZM53 26L53 27L54 27L54 26ZM5 27L5 30L8 30L8 27ZM27 27L27 30L30 30L30 27ZM35 27L35 28L36 28L36 27ZM49 27L49 30L52 30L52 27ZM6 28L6 29L7 29L7 28ZM12 28L12 29L14 29L14 28ZM28 28L28 29L29 29L29 28ZM50 28L50 29L51 29L51 28ZM54 28L54 30L55 30L55 28ZM39 29L39 30L38 30L38 32L39 32L39 30L40 30L40 29ZM11 30L11 31L9 31L9 32L8 32L8 34L10 34L10 33L9 33L9 32L11 32L11 35L10 35L10 36L11 36L11 35L12 35L12 32L13 32L13 33L14 33L14 32L13 32L13 31L12 31L12 30ZM11 31L11 32L12 32L12 31ZM43 32L43 33L45 33L45 32ZM20 33L20 34L21 34L21 33ZM23 33L23 34L24 34L24 36L23 36L23 37L19 37L19 36L17 36L17 35L16 35L16 34L15 34L15 35L16 35L16 36L17 36L17 39L18 39L18 40L16 40L16 39L15 39L15 38L16 38L16 37L15 37L15 38L14 38L14 39L13 39L13 41L14 41L14 40L15 40L15 41L19 41L19 42L20 42L20 41L19 41L19 40L21 40L21 39L24 39L24 40L23 40L23 42L22 42L22 41L21 41L21 42L22 42L22 43L21 43L21 44L22 44L22 45L21 45L21 47L23 47L23 46L25 46L25 44L27 44L27 43L25 43L25 41L24 41L24 40L25 40L25 39L26 39L26 40L27 40L27 41L26 41L26 42L27 42L27 41L28 41L28 39L26 39L26 38L28 38L28 37L26 37L26 38L25 38L25 36L26 36L26 35L27 35L27 33L26 33L26 34L25 34L25 33ZM0 34L0 35L1 35L1 37L2 37L2 35L1 35L1 34ZM6 34L6 35L7 35L7 34ZM35 34L35 36L37 36L37 34ZM50 34L50 35L52 35L52 34ZM32 36L32 37L33 37L33 38L35 38L35 37L33 37L33 36ZM40 36L40 37L41 37L41 38L42 38L42 40L44 40L44 41L43 41L43 43L44 43L44 45L43 45L43 46L41 46L41 48L42 48L42 49L43 49L43 48L44 48L44 47L45 47L45 46L47 46L47 45L45 45L45 44L46 44L46 42L45 42L45 43L44 43L44 41L45 41L45 40L46 40L46 39L45 39L45 38L44 38L44 37L43 37L43 38L42 38L42 37L41 37L41 36ZM6 37L6 38L7 38L7 37ZM8 37L8 39L6 39L6 40L8 40L8 39L9 39L9 37ZM23 37L23 38L24 38L24 37ZM48 37L48 38L50 38L50 37ZM19 38L19 39L20 39L20 38ZM11 39L11 40L12 40L12 39ZM44 39L44 40L45 40L45 39ZM31 40L31 41L32 41L32 42L33 42L33 43L34 43L34 42L33 42L33 41L32 41L32 40ZM6 41L6 42L9 42L9 41ZM11 41L11 42L12 42L12 41ZM39 41L39 42L40 42L40 41ZM15 43L15 45L14 45L14 44L13 44L13 45L12 45L12 44L11 44L11 45L10 45L10 46L12 46L12 47L13 47L13 46L14 46L14 47L16 47L16 48L17 48L17 47L18 47L18 46L17 46L17 45L18 45L18 44L16 44L16 43ZM23 43L23 45L22 45L22 46L23 46L23 45L24 45L24 44L25 44L25 43ZM54 44L54 45L55 45L55 46L54 46L54 47L55 47L55 46L56 46L56 45L55 45L55 44ZM44 45L44 46L45 46L45 45ZM49 45L49 46L50 46L50 45ZM24 47L24 48L26 48L26 47ZM28 47L28 48L30 48L30 47ZM42 47L42 48L43 48L43 47ZM55 48L55 50L54 50L54 51L55 51L55 50L56 50L56 48ZM27 49L27 52L30 52L30 49ZM49 49L49 52L52 52L52 49ZM28 50L28 51L29 51L29 50ZM50 50L50 51L51 51L51 50ZM16 51L16 53L17 53L17 51ZM18 51L18 52L19 52L19 51ZM11 54L11 55L12 55L12 54ZM17 54L17 55L19 55L19 54ZM41 54L41 55L42 55L42 54ZM46 55L46 56L47 56L47 55ZM50 55L50 56L51 56L51 55ZM53 55L53 56L55 56L55 57L56 57L56 56L55 56L55 55ZM43 56L43 57L44 57L44 56ZM0 0L0 7L7 7L7 0ZM1 1L1 6L6 6L6 1ZM2 2L2 5L5 5L5 2ZM50 0L50 7L57 7L57 0ZM51 1L51 6L56 6L56 1ZM52 2L52 5L55 5L55 2ZM0 50L0 57L7 57L7 50ZM1 51L1 56L6 56L6 51ZM2 52L2 55L5 55L5 52Z" fill="#000000"/></g></g></svg>
