<?xml version="1.0" encoding="UTF-8"?>
<svg xmlns="http://www.w3.org/2000/svg" version="1.1" width="300" height="300" viewBox="0 0 300 300"><rect x="0" y="0" width="300" height="300" fill="#fefefe"/><g transform="scale(4.615)"><g transform="translate(4,4)"><path fill-rule="evenodd" d="M8 0L8 1L9 1L9 2L8 2L8 5L10 5L10 7L9 7L9 6L8 6L8 7L9 7L9 8L8 8L8 9L9 9L9 10L10 10L10 11L9 11L9 12L10 12L10 13L9 13L9 14L8 14L8 16L6 16L6 17L5 17L5 16L4 16L4 15L5 15L5 14L6 14L6 15L7 15L7 14L6 14L6 13L8 13L8 12L6 12L6 11L8 11L8 10L4 10L4 8L0 8L0 9L2 9L2 10L3 10L3 11L0 11L0 12L1 12L1 13L0 13L0 15L1 15L1 13L4 13L4 14L2 14L2 15L3 15L3 16L4 16L4 17L3 17L3 19L2 19L2 18L1 18L1 17L2 17L2 16L0 16L0 20L2 20L2 21L0 21L0 23L1 23L1 22L2 22L2 21L3 21L3 20L4 20L4 21L5 21L5 22L6 22L6 23L7 23L7 22L8 22L8 23L9 23L9 26L8 26L8 25L7 25L7 24L5 24L5 25L4 25L4 23L3 23L3 24L0 24L0 25L1 25L1 26L0 26L0 31L1 31L1 32L0 32L0 33L1 33L1 34L0 34L0 35L1 35L1 37L0 37L0 39L1 39L1 40L2 40L2 39L3 39L3 42L1 42L1 41L0 41L0 44L2 44L2 43L3 43L3 46L2 46L2 47L1 47L1 45L0 45L0 48L5 48L5 47L8 47L8 46L9 46L9 48L10 48L10 49L8 49L8 48L6 48L6 49L8 49L8 50L10 50L10 51L9 51L9 52L11 52L11 53L10 53L10 54L9 54L9 53L8 53L8 57L9 57L9 56L11 56L11 57L12 57L12 56L13 56L13 57L18 57L18 55L20 55L20 56L19 56L19 57L23 57L23 56L22 56L22 55L23 55L23 54L26 54L26 55L27 55L27 56L28 56L28 55L27 55L27 54L26 54L26 53L29 53L29 54L31 54L31 55L30 55L30 56L31 56L31 57L32 57L32 55L34 55L34 56L33 56L33 57L36 57L36 55L38 55L38 57L43 57L43 55L44 55L44 56L45 56L45 57L46 57L46 54L47 54L47 56L48 56L48 57L51 57L51 54L52 54L52 53L54 53L54 52L55 52L55 54L53 54L53 55L55 55L55 54L56 54L56 53L57 53L57 51L56 51L56 49L57 49L57 48L56 48L56 49L55 49L55 48L54 48L54 47L57 47L57 45L56 45L56 44L53 44L53 45L56 45L56 46L54 46L54 47L53 47L53 48L51 48L51 47L52 47L52 46L51 46L51 45L52 45L52 43L53 43L53 42L54 42L54 43L56 43L56 41L57 41L57 40L56 40L56 41L55 41L55 42L54 42L54 40L55 40L55 38L56 38L56 39L57 39L57 38L56 38L56 37L55 37L55 36L56 36L56 35L57 35L57 34L55 34L55 33L57 33L57 31L56 31L56 30L57 30L57 29L56 29L56 30L55 30L55 32L54 32L54 34L52 34L52 32L51 32L51 31L53 31L53 28L54 28L54 29L55 29L55 28L56 28L56 27L53 27L53 25L54 25L54 23L53 23L53 22L54 22L54 21L55 21L55 20L54 20L54 21L53 21L53 20L50 20L50 19L49 19L49 20L48 20L48 21L47 21L47 20L45 20L45 21L47 21L47 22L44 22L44 21L41 21L41 18L42 18L42 19L43 19L43 18L42 18L42 17L45 17L45 18L44 18L44 19L45 19L45 18L47 18L47 19L48 19L48 14L47 14L47 17L45 17L45 16L44 16L44 15L43 15L43 14L46 14L46 13L44 13L44 12L43 12L43 11L44 11L44 10L45 10L45 11L49 11L49 15L50 15L50 16L51 16L51 17L52 17L52 16L53 16L53 17L54 17L54 18L51 18L51 19L56 19L56 18L57 18L57 15L55 15L55 14L54 14L54 15L51 15L51 13L52 13L52 14L53 14L53 13L54 13L54 10L53 10L53 13L52 13L52 12L51 12L51 11L50 11L50 10L49 10L49 9L50 9L50 8L49 8L49 6L48 6L48 7L47 7L47 5L48 5L48 0L46 0L46 1L47 1L47 2L46 2L46 3L47 3L47 5L45 5L45 4L44 4L44 3L45 3L45 1L44 1L44 2L42 2L42 3L41 3L41 4L39 4L39 3L37 3L37 1L38 1L38 0L37 0L37 1L36 1L36 0L35 0L35 1L34 1L34 2L33 2L33 1L31 1L31 0L29 0L29 1L31 1L31 2L30 2L30 3L31 3L31 4L26 4L26 1L25 1L25 0L23 0L23 1L25 1L25 2L24 2L24 3L23 3L23 5L20 5L20 4L19 4L19 2L21 2L21 3L22 3L22 0L21 0L21 1L20 1L20 0L19 0L19 2L18 2L18 1L17 1L17 2L16 2L16 3L17 3L17 5L15 5L15 4L14 4L14 3L10 3L10 2L11 2L11 1L12 1L12 2L13 2L13 1L14 1L14 0L10 0L10 1L9 1L9 0ZM39 0L39 1L40 1L40 2L41 2L41 1L43 1L43 0L41 0L41 1L40 1L40 0ZM35 1L35 2L34 2L34 5L33 5L33 3L32 3L32 4L31 4L31 5L32 5L32 6L31 6L31 9L32 9L32 10L31 10L31 11L33 11L33 10L34 10L34 11L35 11L35 12L34 12L34 14L33 14L33 12L32 12L32 13L31 13L31 12L30 12L30 11L28 11L28 10L29 10L29 9L27 9L27 10L26 10L26 11L25 11L25 10L23 10L23 9L21 9L21 7L22 7L22 6L21 6L21 7L20 7L20 6L19 6L19 7L20 7L20 11L21 11L21 12L20 12L20 13L21 13L21 15L20 15L20 16L18 16L18 15L16 15L16 14L19 14L19 13L18 13L18 12L19 12L19 10L18 10L18 9L19 9L19 8L18 8L18 9L17 9L17 7L18 7L18 6L17 6L17 7L16 7L16 6L15 6L15 7L14 7L14 6L13 6L13 5L14 5L14 4L11 4L11 10L12 10L12 11L13 11L13 10L14 10L14 11L15 11L15 15L16 15L16 16L17 16L17 18L16 18L16 17L15 17L15 18L14 18L14 13L13 13L13 12L11 12L11 11L10 11L10 12L11 12L11 13L10 13L10 14L9 14L9 16L10 16L10 14L11 14L11 15L13 15L13 16L11 16L11 17L12 17L12 20L11 20L11 18L10 18L10 17L9 17L9 18L10 18L10 20L9 20L9 19L8 19L8 20L9 20L9 21L12 21L12 22L11 22L11 23L12 23L12 24L10 24L10 26L9 26L9 28L10 28L10 29L11 29L11 28L13 28L13 29L12 29L12 30L10 30L10 32L11 32L11 33L9 33L9 31L8 31L8 33L5 33L5 34L3 34L3 35L2 35L2 36L3 36L3 37L2 37L2 38L3 38L3 37L5 37L5 38L4 38L4 39L6 39L6 40L4 40L4 41L5 41L5 42L7 42L7 41L8 41L8 45L10 45L10 48L12 48L12 49L10 49L10 50L12 50L12 51L11 51L11 52L14 52L14 51L13 51L13 48L14 48L14 50L15 50L15 53L14 53L14 54L13 54L13 55L14 55L14 56L15 56L15 55L14 55L14 54L15 54L15 53L16 53L16 54L17 54L17 53L18 53L18 54L19 54L19 52L18 52L18 51L19 51L19 50L17 50L17 49L16 49L16 50L15 50L15 48L14 48L14 47L15 47L15 46L16 46L16 47L17 47L17 48L18 48L18 47L19 47L19 49L20 49L20 48L21 48L21 51L22 51L22 49L23 49L23 52L22 52L22 53L20 53L20 55L22 55L22 53L23 53L23 52L24 52L24 53L25 53L25 52L26 52L26 51L24 51L24 50L26 50L26 49L25 49L25 48L27 48L27 47L29 47L29 48L32 48L32 49L31 49L31 50L32 50L32 51L31 51L31 53L32 53L32 51L33 51L33 52L35 52L35 53L36 53L36 54L34 54L34 55L36 55L36 54L37 54L37 51L36 51L36 52L35 52L35 51L33 51L33 48L32 48L32 47L31 47L31 44L29 44L29 45L27 45L27 43L29 43L29 42L30 42L30 41L31 41L31 40L33 40L33 39L32 39L32 38L33 38L33 36L36 36L36 35L34 35L34 34L35 34L35 31L37 31L37 32L36 32L36 33L37 33L37 32L38 32L38 34L39 34L39 31L40 31L40 32L41 32L41 31L43 31L43 30L44 30L44 33L45 33L45 36L44 36L44 37L42 37L42 36L41 36L41 35L42 35L42 34L41 34L41 35L37 35L37 37L34 37L34 38L36 38L36 39L35 39L35 40L34 40L34 41L36 41L36 42L34 42L34 43L35 43L35 44L34 44L34 45L33 45L33 42L32 42L32 46L33 46L33 47L34 47L34 50L35 50L35 48L37 48L37 49L36 49L36 50L37 50L37 49L38 49L38 48L39 48L39 49L40 49L40 50L39 50L39 52L40 52L40 54L41 54L41 52L42 52L42 54L43 54L43 50L44 50L44 49L46 49L46 50L47 50L47 52L48 52L48 48L44 48L44 49L43 49L43 47L40 47L40 46L39 46L39 45L38 45L38 44L39 44L39 43L40 43L40 44L41 44L41 43L42 43L42 45L43 45L43 46L45 46L45 47L46 47L46 46L47 46L47 47L49 47L49 48L50 48L50 47L49 47L49 46L50 46L50 45L49 45L49 44L51 44L51 42L50 42L50 41L52 41L52 40L50 40L50 41L47 41L47 42L45 42L45 41L44 41L44 40L43 40L43 39L42 39L42 38L44 38L44 39L45 39L45 40L46 40L46 38L48 38L48 37L49 37L49 36L48 36L48 35L46 35L46 34L50 34L50 33L49 33L49 32L50 32L50 31L49 31L49 32L48 32L48 26L49 26L49 25L50 25L50 24L51 24L51 26L52 26L52 25L53 25L53 24L51 24L51 23L52 23L52 22L51 22L51 21L50 21L50 20L49 20L49 22L47 22L47 24L48 24L48 26L47 26L47 25L46 25L46 26L43 26L43 24L42 24L42 23L40 23L40 26L41 26L41 27L40 27L40 29L38 29L38 30L37 30L37 27L36 27L36 28L34 28L34 29L36 29L36 30L35 30L35 31L33 31L33 29L31 29L31 31L33 31L33 32L31 32L31 34L30 34L30 35L29 35L29 33L30 33L30 31L28 31L28 33L27 33L27 34L26 34L26 33L25 33L25 34L24 34L24 35L23 35L23 33L24 33L24 32L27 32L27 31L24 31L24 32L23 32L23 33L22 33L22 35L23 35L23 36L21 36L21 33L20 33L20 32L22 32L22 31L23 31L23 30L21 30L21 29L24 29L24 30L26 30L26 28L25 28L25 25L28 25L28 26L29 26L29 24L30 24L30 26L31 26L31 24L30 24L30 23L32 23L32 22L34 22L34 23L33 23L33 24L32 24L32 25L33 25L33 24L35 24L35 23L36 23L36 24L37 24L37 22L35 22L35 21L34 21L34 19L32 19L32 18L33 18L33 17L31 17L31 16L29 16L29 15L28 15L28 16L29 16L29 17L27 17L27 15L26 15L26 14L25 14L25 13L26 13L26 12L28 12L28 13L30 13L30 14L33 14L33 15L32 15L32 16L33 16L33 15L35 15L35 16L34 16L34 17L35 17L35 20L36 20L36 21L37 21L37 20L36 20L36 19L38 19L38 20L40 20L40 19L39 19L39 18L41 18L41 17L42 17L42 14L43 14L43 12L42 12L42 11L43 11L43 10L41 10L41 9L45 9L45 8L43 8L43 7L44 7L44 6L45 6L45 7L46 7L46 6L45 6L45 5L43 5L43 4L41 4L41 5L42 5L42 6L41 6L41 7L40 7L40 5L38 5L38 6L37 6L37 5L36 5L36 4L35 4L35 2L36 2L36 1ZM17 2L17 3L18 3L18 2ZM27 2L27 3L28 3L28 2ZM18 4L18 5L19 5L19 4ZM24 4L24 6L23 6L23 7L24 7L24 9L26 9L26 6L25 6L25 5L26 5L26 4ZM27 5L27 8L30 8L30 5ZM12 6L12 7L13 7L13 6ZM24 6L24 7L25 7L25 6ZM28 6L28 7L29 7L29 6ZM32 6L32 8L33 8L33 6ZM34 6L34 9L36 9L36 8L37 8L37 6L36 6L36 7L35 7L35 6ZM38 6L38 7L39 7L39 10L40 10L40 9L41 9L41 8L40 8L40 7L39 7L39 6ZM42 6L42 7L43 7L43 6ZM6 8L6 9L7 9L7 8ZM12 8L12 9L13 9L13 8ZM47 8L47 9L46 9L46 10L47 10L47 9L48 9L48 8ZM52 8L52 9L55 9L55 8ZM56 8L56 9L57 9L57 8ZM37 9L37 11L36 11L36 10L35 10L35 11L36 11L36 12L35 12L35 14L36 14L36 15L39 15L39 17L40 17L40 16L41 16L41 14L40 14L40 13L39 13L39 12L40 12L40 11L38 11L38 9ZM17 10L17 12L16 12L16 13L17 13L17 12L18 12L18 10ZM21 10L21 11L23 11L23 12L22 12L22 13L25 13L25 11L23 11L23 10ZM55 10L55 12L56 12L56 13L57 13L57 12L56 12L56 11L57 11L57 10ZM3 11L3 12L4 12L4 13L5 13L5 11ZM37 11L37 12L38 12L38 11ZM50 12L50 13L51 13L51 12ZM12 13L12 14L13 14L13 13ZM24 14L24 15L23 15L23 18L24 18L24 19L25 19L25 20L27 20L27 21L25 21L25 22L24 22L24 21L23 21L23 20L22 20L22 19L20 19L20 18L19 18L19 17L18 17L18 18L17 18L17 19L16 19L16 18L15 18L15 19L13 19L13 23L14 23L14 24L12 24L12 25L13 25L13 26L14 26L14 24L15 24L15 26L16 26L16 25L17 25L17 27L13 27L13 28L15 28L15 29L16 29L16 30L15 30L15 34L14 34L14 36L13 36L13 39L14 39L14 38L15 38L15 40L10 40L10 42L9 42L9 44L10 44L10 43L11 43L11 45L12 45L12 44L13 44L13 43L12 43L12 42L13 42L13 41L14 41L14 44L15 44L15 45L17 45L17 47L18 47L18 46L19 46L19 47L20 47L20 45L21 45L21 46L22 46L22 47L21 47L21 48L23 48L23 49L24 49L24 47L25 47L25 45L26 45L26 46L27 46L27 45L26 45L26 43L25 43L25 44L24 44L24 41L25 41L25 42L29 42L29 41L30 41L30 40L28 40L28 39L30 39L30 38L32 38L32 36L33 36L33 34L32 34L32 36L29 36L29 35L28 35L28 34L27 34L27 36L29 36L29 38L26 38L26 41L25 41L25 39L24 39L24 37L25 37L25 36L23 36L23 37L22 37L22 38L23 38L23 39L24 39L24 41L22 41L22 39L21 39L21 38L20 38L20 37L19 37L19 35L20 35L20 34L19 34L19 33L18 33L18 30L17 30L17 27L21 27L21 26L22 26L22 27L24 27L24 26L23 26L23 25L21 25L21 24L24 24L24 25L25 25L25 22L28 22L28 23L26 23L26 24L29 24L29 22L31 22L31 20L32 20L32 19L30 19L30 17L29 17L29 18L28 18L28 19L29 19L29 20L27 20L27 19L25 19L25 18L26 18L26 17L25 17L25 16L26 16L26 15L25 15L25 14ZM4 17L4 20L5 20L5 17ZM6 17L6 18L8 18L8 17ZM21 17L21 18L22 18L22 17ZM24 17L24 18L25 18L25 17ZM36 17L36 18L37 18L37 17ZM55 17L55 18L56 18L56 17ZM6 19L6 20L7 20L7 19ZM15 19L15 20L14 20L14 23L16 23L16 24L19 24L19 25L18 25L18 26L19 26L19 25L20 25L20 24L21 24L21 23L22 23L22 20L20 20L20 19L17 19L17 20L18 20L18 21L17 21L17 23L16 23L16 19ZM29 20L29 21L30 21L30 20ZM56 20L56 22L55 22L55 23L57 23L57 20ZM6 21L6 22L7 22L7 21ZM18 21L18 22L19 22L19 24L20 24L20 23L21 23L21 22L19 22L19 21ZM38 21L38 22L39 22L39 21ZM9 22L9 23L10 23L10 22ZM44 23L44 25L45 25L45 24L46 24L46 23ZM48 23L48 24L50 24L50 23ZM38 24L38 25L39 25L39 24ZM55 24L55 26L56 26L56 24ZM5 25L5 26L7 26L7 25ZM34 25L34 27L35 27L35 25ZM1 26L1 28L2 28L2 26ZM38 26L38 27L39 27L39 26ZM42 26L42 27L41 27L41 29L40 29L40 30L42 30L42 29L43 29L43 28L44 28L44 29L45 29L45 27L43 27L43 26ZM46 26L46 30L45 30L45 33L46 33L46 31L47 31L47 26ZM5 27L5 30L8 30L8 27ZM10 27L10 28L11 28L11 27ZM27 27L27 30L30 30L30 27ZM32 27L32 28L33 28L33 27ZM42 27L42 28L43 28L43 27ZM49 27L49 30L52 30L52 27ZM3 28L3 29L4 29L4 28ZM6 28L6 29L7 29L7 28ZM18 28L18 29L19 29L19 28ZM20 28L20 29L21 29L21 28ZM28 28L28 29L29 29L29 28ZM50 28L50 29L51 29L51 28ZM1 29L1 31L4 31L4 30L2 30L2 29ZM13 29L13 30L12 30L12 31L11 31L11 32L12 32L12 33L13 33L13 32L14 32L14 29ZM16 30L16 36L15 36L15 38L17 38L17 39L16 39L16 40L15 40L15 41L16 41L16 40L17 40L17 39L18 39L18 38L19 38L19 37L17 37L17 36L18 36L18 35L19 35L19 34L18 34L18 33L17 33L17 30ZM38 30L38 31L39 31L39 30ZM5 31L5 32L7 32L7 31ZM19 31L19 32L20 32L20 31ZM3 32L3 33L4 33L4 32ZM42 32L42 33L43 33L43 32ZM6 34L6 35L3 35L3 36L6 36L6 37L7 37L7 38L6 38L6 39L7 39L7 40L6 40L6 41L7 41L7 40L8 40L8 41L9 41L9 38L11 38L11 39L12 39L12 38L11 38L11 37L9 37L9 36L11 36L11 35L12 35L12 34L9 34L9 36L8 36L8 34ZM25 34L25 35L26 35L26 34ZM43 34L43 35L44 35L44 34ZM6 35L6 36L7 36L7 37L8 37L8 36L7 36L7 35ZM51 35L51 36L50 36L50 37L52 37L52 38L53 38L53 39L54 39L54 38L53 38L53 36L52 36L52 35ZM54 35L54 36L55 36L55 35ZM39 36L39 37L37 37L37 39L38 39L38 40L37 40L37 41L39 41L39 42L37 42L37 44L38 44L38 43L39 43L39 42L40 42L40 40L39 40L39 39L41 39L41 42L42 42L42 43L44 43L44 44L47 44L47 43L48 43L48 44L49 44L49 43L50 43L50 42L47 42L47 43L44 43L44 42L42 42L42 39L41 39L41 37L40 37L40 36ZM45 36L45 38L46 38L46 37L47 37L47 36ZM7 38L7 39L8 39L8 38ZM38 38L38 39L39 39L39 38ZM49 38L49 39L47 39L47 40L49 40L49 39L51 39L51 38ZM18 40L18 41L19 41L19 43L18 43L18 42L15 42L15 44L16 44L16 43L17 43L17 45L19 45L19 44L22 44L22 46L24 46L24 45L23 45L23 44L22 44L22 41L19 41L19 40ZM27 40L27 41L28 41L28 40ZM11 41L11 42L12 42L12 41ZM3 42L3 43L4 43L4 42ZM20 42L20 43L21 43L21 42ZM6 43L6 44L4 44L4 46L3 46L3 47L5 47L5 46L7 46L7 45L6 45L6 44L7 44L7 43ZM35 44L35 45L36 45L36 46L34 46L34 47L36 47L36 46L37 46L37 47L38 47L38 45L36 45L36 44ZM47 45L47 46L49 46L49 45ZM41 48L41 49L42 49L42 48ZM53 48L53 50L55 50L55 49L54 49L54 48ZM27 49L27 52L30 52L30 49ZM49 49L49 52L52 52L52 49ZM16 50L16 51L17 51L17 50ZM28 50L28 51L29 51L29 50ZM50 50L50 51L51 51L51 50ZM40 51L40 52L41 52L41 51ZM45 51L45 53L46 53L46 51ZM55 51L55 52L56 52L56 51ZM38 53L38 54L39 54L39 53ZM47 53L47 54L50 54L50 53ZM44 54L44 55L45 55L45 54ZM11 55L11 56L12 56L12 55ZM24 55L24 57L25 57L25 55ZM40 55L40 56L42 56L42 55ZM48 55L48 56L49 56L49 55ZM56 55L56 56L57 56L57 55ZM52 56L52 57L55 57L55 56ZM0 0L0 7L7 7L7 0ZM1 1L1 6L6 6L6 1ZM2 2L2 5L5 5L5 2ZM50 0L50 7L57 7L57 0ZM51 1L51 6L56 6L56 1ZM52 2L52 5L55 5L55 2ZM0 50L0 57L7 57L7 50ZM1 51L1 56L6 56L6 51ZM2 52L2 55L5 55L5 52Z" fill="#000000"/></g></g></svg>
