<?xml version="1.0" encoding="UTF-8"?>
<svg xmlns="http://www.w3.org/2000/svg" version="1.1" width="300" height="300" viewBox="0 0 300 300"><rect x="0" y="0" width="300" height="300" fill="#fefefe"/><g transform="scale(4.615)"><g transform="translate(4,4)"><path fill-rule="evenodd" d="M8 0L8 1L9 1L9 2L8 2L8 5L9 5L9 4L10 4L10 0ZM11 0L11 3L13 3L13 4L14 4L14 7L13 7L13 6L12 6L12 7L11 7L11 6L10 6L10 7L9 7L9 6L8 6L8 7L9 7L9 8L8 8L8 9L7 9L7 8L6 8L6 9L7 9L7 10L5 10L5 13L4 13L4 11L3 11L3 12L2 12L2 11L1 11L1 10L2 10L2 9L3 9L3 10L4 10L4 8L0 8L0 9L1 9L1 10L0 10L0 11L1 11L1 12L2 12L2 13L0 13L0 16L1 16L1 17L0 17L0 18L1 18L1 21L2 21L2 22L3 22L3 21L7 21L7 22L4 22L4 23L3 23L3 26L1 26L1 25L2 25L2 24L1 24L1 25L0 25L0 26L1 26L1 27L0 27L0 28L2 28L2 29L0 29L0 30L2 30L2 31L1 31L1 32L0 32L0 33L2 33L2 34L0 34L0 35L2 35L2 36L3 36L3 37L4 37L4 38L1 38L1 40L0 40L0 41L3 41L3 42L6 42L6 43L5 43L5 44L6 44L6 45L5 45L5 47L3 47L3 46L2 46L2 47L1 47L1 45L0 45L0 48L5 48L5 47L7 47L7 48L6 48L6 49L8 49L8 50L10 50L10 52L9 52L9 53L8 53L8 57L10 57L10 56L11 56L11 55L12 55L12 54L13 54L13 53L14 53L14 55L13 55L13 57L14 57L14 56L15 56L15 57L18 57L18 53L17 53L17 54L16 54L16 53L14 53L14 52L16 52L16 48L17 48L17 51L18 51L18 50L19 50L19 51L20 51L20 52L19 52L19 55L20 55L20 56L21 56L21 57L23 57L23 54L25 54L25 55L24 55L24 56L25 56L25 55L26 55L26 56L28 56L28 55L26 55L26 54L25 54L25 53L29 53L29 54L31 54L31 55L30 55L30 56L31 56L31 57L32 57L32 55L33 55L33 54L36 54L36 55L34 55L34 56L33 56L33 57L36 57L36 55L38 55L38 57L42 57L42 56L43 56L43 55L44 55L44 56L45 56L45 57L46 57L46 55L47 55L47 56L49 56L49 57L51 57L51 54L52 54L52 53L53 53L53 54L54 54L54 55L55 55L55 54L56 54L56 53L57 53L57 52L55 52L55 50L53 50L53 49L55 49L55 48L54 48L54 47L53 47L53 46L55 46L55 47L57 47L57 45L56 45L56 46L55 46L55 44L52 44L52 43L53 43L53 42L54 42L54 43L56 43L56 44L57 44L57 43L56 43L56 41L57 41L57 40L56 40L56 41L55 41L55 38L56 38L56 39L57 39L57 38L56 38L56 37L57 37L57 31L56 31L56 30L57 30L57 29L56 29L56 30L55 30L55 28L56 28L56 27L53 27L53 25L49 25L49 26L46 26L46 25L47 25L47 24L50 24L50 23L49 23L49 20L50 20L50 21L51 21L51 22L52 22L52 24L54 24L54 23L57 23L57 19L56 19L56 17L57 17L57 15L53 15L53 16L55 16L55 17L54 17L54 18L52 18L52 19L56 19L56 20L54 20L54 21L53 21L53 20L50 20L50 19L49 19L49 20L48 20L48 19L47 19L47 18L48 18L48 17L47 17L47 16L48 16L48 14L47 14L47 16L46 16L46 15L45 15L45 14L46 14L46 13L44 13L44 9L43 9L43 8L44 8L44 7L45 7L45 6L44 6L44 7L43 7L43 6L42 6L42 5L41 5L41 4L37 4L37 3L38 3L38 2L37 2L37 1L38 1L38 0L37 0L37 1L36 1L36 0L35 0L35 1L34 1L34 3L35 3L35 4L36 4L36 5L37 5L37 6L36 6L36 7L35 7L35 6L34 6L34 5L33 5L33 6L32 6L32 5L31 5L31 4L32 4L32 3L33 3L33 1L32 1L32 0L29 0L29 2L28 2L28 1L27 1L27 3L29 3L29 4L26 4L26 1L25 1L25 0L23 0L23 1L25 1L25 2L24 2L24 3L23 3L23 2L22 2L22 0L21 0L21 1L19 1L19 3L17 3L17 1L18 1L18 0L17 0L17 1L15 1L15 0L14 0L14 1L15 1L15 3L17 3L17 4L18 4L18 7L19 7L19 8L20 8L20 7L21 7L21 9L23 9L23 10L20 10L20 9L19 9L19 12L18 12L18 10L16 10L16 11L17 11L17 12L16 12L16 13L17 13L17 12L18 12L18 13L19 13L19 16L20 16L20 14L21 14L21 11L23 11L23 12L22 12L22 13L23 13L23 12L24 12L24 13L25 13L25 14L26 14L26 15L24 15L24 14L23 14L23 18L24 18L24 19L25 19L25 22L24 22L24 21L23 21L23 20L21 20L21 21L23 21L23 23L22 23L22 22L19 22L19 21L18 21L18 20L19 20L19 19L20 19L20 18L19 18L19 19L17 19L17 16L18 16L18 15L17 15L17 14L16 14L16 15L15 15L15 11L14 11L14 10L13 10L13 9L11 9L11 8L15 8L15 6L16 6L16 7L17 7L17 5L15 5L15 4L14 4L14 3L13 3L13 1L12 1L12 0ZM39 0L39 1L40 1L40 2L41 2L41 3L43 3L43 5L45 5L45 4L44 4L44 3L45 3L45 1L44 1L44 2L41 2L41 1L43 1L43 0L41 0L41 1L40 1L40 0ZM46 0L46 1L47 1L47 2L46 2L46 3L47 3L47 5L46 5L46 7L47 7L47 8L45 8L45 11L47 11L47 10L48 10L48 12L49 12L49 16L50 16L50 17L52 17L52 16L50 16L50 15L51 15L51 13L52 13L52 14L55 14L55 13L54 13L54 10L52 10L52 9L55 9L55 8L52 8L52 9L51 9L51 11L50 11L50 10L49 10L49 9L50 9L50 8L49 8L49 6L48 6L48 7L47 7L47 5L48 5L48 0ZM30 1L30 4L31 4L31 2L32 2L32 1ZM35 1L35 2L36 2L36 1ZM20 2L20 3L19 3L19 4L20 4L20 5L21 5L21 4L23 4L23 3L21 3L21 2ZM11 4L11 5L12 5L12 4ZM24 4L24 6L23 6L23 5L22 5L22 6L21 6L21 7L22 7L22 8L23 8L23 9L24 9L24 8L25 8L25 9L26 9L26 6L25 6L25 5L26 5L26 4ZM27 5L27 8L30 8L30 5ZM38 5L38 6L37 6L37 7L38 7L38 8L36 8L36 9L34 9L34 6L33 6L33 8L32 8L32 6L31 6L31 9L32 9L32 10L30 10L30 11L29 11L29 9L27 9L27 10L26 10L26 11L25 11L25 10L23 10L23 11L25 11L25 13L26 13L26 12L28 12L28 13L30 13L30 14L31 14L31 15L32 15L32 14L33 14L33 15L35 15L35 16L34 16L34 17L35 17L35 18L33 18L33 17L32 17L32 16L29 16L29 15L28 15L28 16L29 16L29 17L26 17L26 16L27 16L27 15L26 15L26 16L25 16L25 17L24 17L24 18L25 18L25 19L28 19L28 20L29 20L29 21L30 21L30 20L29 20L29 19L28 19L28 18L29 18L29 17L30 17L30 19L31 19L31 18L32 18L32 20L31 20L31 22L29 22L29 23L28 23L28 22L25 22L25 25L24 25L24 24L21 24L21 23L20 23L20 24L21 24L21 25L23 25L23 26L24 26L24 28L23 28L23 27L22 27L22 26L19 26L19 25L18 25L18 26L19 26L19 27L17 27L17 23L18 23L18 24L19 24L19 23L18 23L18 22L17 22L17 23L16 23L16 20L17 20L17 19L16 19L16 20L14 20L14 22L15 22L15 23L14 23L14 24L15 24L15 25L16 25L16 26L14 26L14 25L12 25L12 26L11 26L11 24L10 24L10 23L11 23L11 22L10 22L10 23L6 23L6 24L4 24L4 26L3 26L3 27L2 27L2 28L3 28L3 27L4 27L4 26L5 26L5 25L6 25L6 26L8 26L8 25L9 25L9 27L13 27L13 26L14 26L14 28L15 28L15 27L17 27L17 30L16 30L16 29L13 29L13 28L12 28L12 29L11 29L11 28L9 28L9 29L11 29L11 33L10 33L10 32L9 32L9 31L8 31L8 32L7 32L7 31L6 31L6 32L7 32L7 33L6 33L6 34L8 34L8 33L9 33L9 36L8 36L8 38L7 38L7 37L5 37L5 38L7 38L7 39L5 39L5 40L7 40L7 41L6 41L6 42L9 42L9 45L8 45L8 43L6 43L6 44L7 44L7 45L6 45L6 46L7 46L7 47L9 47L9 45L10 45L10 44L11 44L11 45L12 45L12 46L10 46L10 47L11 47L11 48L12 48L12 46L14 46L14 44L16 44L16 43L15 43L15 42L14 42L14 41L13 41L13 40L15 40L15 41L16 41L16 40L17 40L17 45L15 45L15 46L16 46L16 47L14 47L14 48L13 48L13 49L10 49L10 50L12 50L12 51L11 51L11 52L10 52L10 53L9 53L9 54L10 54L10 55L11 55L11 54L12 54L12 53L13 53L13 52L14 52L14 51L15 51L15 48L16 48L16 47L17 47L17 48L19 48L19 49L21 49L21 51L22 51L22 49L23 49L23 52L22 52L22 53L20 53L20 55L21 55L21 56L22 56L22 55L21 55L21 54L22 54L22 53L23 53L23 52L24 52L24 53L25 53L25 52L26 52L26 51L24 51L24 50L26 50L26 48L28 48L28 47L29 47L29 48L32 48L32 49L31 49L31 53L32 53L32 51L33 51L33 52L35 52L35 53L36 53L36 54L39 54L39 53L37 53L37 52L38 52L38 51L36 51L36 52L35 52L35 51L34 51L34 50L35 50L35 48L37 48L37 49L36 49L36 50L37 50L37 49L38 49L38 48L39 48L39 49L40 49L40 50L39 50L39 52L40 52L40 54L41 54L41 52L43 52L43 50L44 50L44 51L45 51L45 50L46 50L46 51L47 51L47 52L48 52L48 48L47 48L47 47L49 47L49 48L50 48L50 47L49 47L49 46L51 46L51 48L53 48L53 47L52 47L52 46L53 46L53 45L52 45L52 44L51 44L51 42L50 42L50 41L52 41L52 39L51 39L51 38L50 38L50 39L51 39L51 40L50 40L50 41L47 41L47 42L46 42L46 43L47 43L47 44L44 44L44 43L42 43L42 42L45 42L45 41L46 41L46 39L45 39L45 37L46 37L46 38L48 38L48 39L47 39L47 40L49 40L49 38L48 38L48 36L49 36L49 35L48 35L48 36L47 36L47 37L46 37L46 35L47 35L47 34L50 34L50 33L49 33L49 32L48 32L48 29L47 29L47 32L46 32L46 31L44 31L44 30L46 30L46 26L44 26L44 25L45 25L45 24L46 24L46 23L44 23L44 25L42 25L42 26L44 26L44 27L45 27L45 29L42 29L42 30L41 30L41 31L40 31L40 30L39 30L39 29L38 29L38 30L37 30L37 28L34 28L34 29L36 29L36 31L37 31L37 32L36 32L36 33L37 33L37 32L38 32L38 34L39 34L39 31L40 31L40 32L41 32L41 31L44 31L44 34L45 34L45 36L44 36L44 37L41 37L41 35L42 35L42 36L43 36L43 35L42 35L42 34L41 34L41 35L39 35L39 36L40 36L40 37L41 37L41 38L44 38L44 39L45 39L45 41L44 41L44 40L42 40L42 39L40 39L40 41L37 41L37 40L38 40L38 39L39 39L39 38L38 38L38 39L37 39L37 37L38 37L38 36L37 36L37 37L34 37L34 36L36 36L36 35L34 35L34 34L35 34L35 33L33 33L33 32L31 32L31 34L30 34L30 35L29 35L29 33L30 33L30 31L26 31L26 32L25 32L25 34L24 34L24 35L23 35L23 33L24 33L24 32L23 32L23 33L22 33L22 34L21 34L21 33L20 33L20 34L19 34L19 32L22 32L22 31L24 31L24 30L26 30L26 28L25 28L25 25L27 25L27 26L28 26L28 25L29 25L29 24L30 24L30 23L32 23L32 22L33 22L33 24L32 24L32 25L33 25L33 24L35 24L35 23L36 23L36 24L37 24L37 23L38 23L38 24L39 24L39 26L38 26L38 27L39 27L39 26L40 26L40 25L41 25L41 23L43 23L43 22L41 22L41 23L39 23L39 20L40 20L40 19L39 19L39 18L41 18L41 21L44 21L44 22L45 22L45 20L47 20L47 19L44 19L44 18L45 18L45 17L46 17L46 16L45 16L45 15L44 15L44 16L45 16L45 17L42 17L42 14L44 14L44 13L43 13L43 12L42 12L42 11L43 11L43 10L42 10L42 11L40 11L40 14L39 14L39 15L37 15L37 14L36 14L36 13L35 13L35 12L34 12L34 14L33 14L33 10L34 10L34 11L35 11L35 10L36 10L36 12L38 12L38 11L37 11L37 9L38 9L38 10L39 10L39 8L41 8L41 9L40 9L40 10L41 10L41 9L42 9L42 8L41 8L41 7L42 7L42 6L41 6L41 7L40 7L40 5ZM19 6L19 7L20 7L20 6ZM22 6L22 7L23 7L23 8L24 8L24 7L25 7L25 6L24 6L24 7L23 7L23 6ZM28 6L28 7L29 7L29 6ZM38 6L38 7L39 7L39 6ZM10 7L10 8L9 8L9 9L8 9L8 10L7 10L7 11L6 11L6 12L7 12L7 11L8 11L8 14L10 14L10 13L9 13L9 11L10 11L10 12L11 12L11 13L12 13L12 15L10 15L10 16L7 16L7 15L4 15L4 17L3 17L3 18L4 18L4 17L5 17L5 18L7 18L7 19L5 19L5 20L8 20L8 18L9 18L9 19L11 19L11 18L9 18L9 17L12 17L12 18L13 18L13 19L12 19L12 20L10 20L10 21L12 21L12 24L13 24L13 19L15 19L15 17L13 17L13 16L12 16L12 15L14 15L14 13L13 13L13 12L12 12L12 11L13 11L13 10L12 10L12 11L11 11L11 10L10 10L10 8L11 8L11 7ZM17 8L17 9L18 9L18 8ZM48 8L48 9L49 9L49 8ZM56 8L56 9L57 9L57 8ZM46 9L46 10L47 10L47 9ZM8 10L8 11L9 11L9 10ZM55 10L55 12L56 12L56 13L57 13L57 12L56 12L56 11L57 11L57 10ZM30 11L30 12L31 12L31 13L32 13L32 11ZM51 11L51 12L50 12L50 13L51 13L51 12L52 12L52 13L53 13L53 11ZM19 12L19 13L20 13L20 12ZM5 13L5 14L7 14L7 13ZM1 14L1 15L2 15L2 16L3 16L3 14ZM35 14L35 15L36 15L36 14ZM16 15L16 16L17 16L17 15ZM39 15L39 17L40 17L40 16L41 16L41 15ZM6 16L6 17L7 17L7 18L8 18L8 17L7 17L7 16ZM1 17L1 18L2 18L2 17ZM21 17L21 18L22 18L22 17ZM25 17L25 18L26 18L26 17ZM36 17L36 18L37 18L37 17ZM41 17L41 18L42 18L42 19L43 19L43 18L42 18L42 17ZM2 19L2 21L3 21L3 20L4 20L4 19ZM36 19L36 20L34 20L34 21L35 21L35 22L38 22L38 21L36 21L36 20L38 20L38 19ZM26 20L26 21L27 21L27 20ZM8 21L8 22L9 22L9 21ZM46 21L46 22L47 22L47 21ZM54 21L54 22L56 22L56 21ZM15 23L15 24L16 24L16 23ZM26 23L26 24L27 24L27 25L28 25L28 23ZM6 24L6 25L8 25L8 24ZM9 24L9 25L10 25L10 24ZM55 24L55 26L56 26L56 24ZM30 25L30 26L31 26L31 25ZM34 25L34 27L35 27L35 25ZM5 27L5 30L8 30L8 27ZM19 27L19 28L18 28L18 29L20 29L20 27ZM27 27L27 30L30 30L30 27ZM31 27L31 28L33 28L33 27ZM40 27L40 29L41 29L41 27ZM42 27L42 28L43 28L43 27ZM49 27L49 30L52 30L52 27ZM6 28L6 29L7 29L7 28ZM28 28L28 29L29 29L29 28ZM50 28L50 29L51 29L51 28ZM53 28L53 31L50 31L50 32L52 32L52 34L54 34L54 33L55 33L55 34L56 34L56 33L55 33L55 30L54 30L54 28ZM21 29L21 30L24 30L24 29ZM31 29L31 30L33 30L33 29ZM12 30L12 31L15 31L15 32L16 32L16 33L17 33L17 34L18 34L18 33L17 33L17 32L19 32L19 31L20 31L20 30L19 30L19 31L17 31L17 32L16 32L16 30ZM38 30L38 31L39 31L39 30ZM4 31L4 32L2 32L2 33L3 33L3 35L5 35L5 34L4 34L4 33L5 33L5 31ZM34 31L34 32L35 32L35 31ZM12 32L12 34L11 34L11 35L10 35L10 36L9 36L9 37L12 37L12 39L11 39L11 38L8 38L8 39L10 39L10 40L9 40L9 41L10 41L10 43L13 43L13 44L14 44L14 43L13 43L13 41L12 41L12 39L13 39L13 36L14 36L14 35L15 35L15 34L14 34L14 35L12 35L12 34L13 34L13 33L14 33L14 32ZM26 32L26 33L28 33L28 32ZM42 32L42 33L43 33L43 32ZM53 32L53 33L54 33L54 32ZM32 33L32 36L29 36L29 35L28 35L28 34L27 34L27 36L23 36L23 37L22 37L22 38L23 38L23 39L24 39L24 40L23 40L23 41L22 41L22 40L21 40L21 38L20 38L20 37L19 37L19 36L18 36L18 35L17 35L17 37L18 37L18 38L15 38L15 40L16 40L16 39L19 39L19 41L18 41L18 43L19 43L19 44L20 44L20 45L21 45L21 46L22 46L22 47L21 47L21 48L23 48L23 49L24 49L24 47L25 47L25 45L26 45L26 46L27 46L27 47L28 47L28 44L31 44L31 43L32 43L32 42L33 42L33 45L32 45L32 46L33 46L33 45L34 45L34 44L35 44L35 45L36 45L36 46L34 46L34 47L33 47L33 48L34 48L34 47L38 47L38 45L41 45L41 46L40 46L40 47L43 47L43 49L44 49L44 50L45 50L45 49L44 49L44 47L43 47L43 45L42 45L42 43L40 43L40 44L38 44L38 43L39 43L39 42L37 42L37 44L38 44L38 45L36 45L36 43L34 43L34 42L36 42L36 41L34 41L34 40L35 40L35 39L36 39L36 38L34 38L34 37L33 37L33 38L32 38L32 36L34 36L34 35L33 35L33 33ZM6 35L6 36L7 36L7 35ZM51 35L51 36L52 36L52 38L53 38L53 39L54 39L54 38L53 38L53 36L52 36L52 35ZM54 35L54 36L55 36L55 37L56 37L56 36L55 36L55 35ZM27 36L27 38L29 38L29 36ZM24 37L24 39L25 39L25 41L24 41L24 42L23 42L23 44L22 44L22 42L21 42L21 41L19 41L19 43L21 43L21 44L22 44L22 46L23 46L23 45L24 45L24 44L25 44L25 43L26 43L26 45L27 45L27 43L29 43L29 42L31 42L31 40L33 40L33 39L32 39L32 38L30 38L30 39L28 39L28 40L30 40L30 41L29 41L29 42L25 42L25 41L26 41L26 40L27 40L27 39L25 39L25 38L26 38L26 37ZM2 39L2 40L4 40L4 39ZM41 40L41 41L40 41L40 42L42 42L42 40ZM54 41L54 42L55 42L55 41ZM1 42L1 43L0 43L0 44L3 44L3 45L4 45L4 43L2 43L2 42ZM47 42L47 43L48 43L48 44L49 44L49 45L47 45L47 46L46 46L46 47L47 47L47 46L49 46L49 45L50 45L50 44L49 44L49 43L50 43L50 42ZM17 45L17 47L18 47L18 46L19 46L19 47L20 47L20 46L19 46L19 45ZM44 45L44 46L45 46L45 45ZM8 48L8 49L9 49L9 48ZM41 48L41 49L42 49L42 48ZM46 48L46 49L47 49L47 48ZM56 48L56 49L57 49L57 48ZM27 49L27 52L30 52L30 49ZM33 49L33 50L34 50L34 49ZM49 49L49 52L52 52L52 49ZM28 50L28 51L29 51L29 50ZM50 50L50 51L51 51L51 50ZM40 51L40 52L41 52L41 51ZM11 52L11 53L10 53L10 54L11 54L11 53L12 53L12 52ZM45 52L45 53L46 53L46 52ZM54 52L54 54L55 54L55 52ZM42 53L42 54L43 54L43 53ZM47 53L47 54L50 54L50 53ZM44 54L44 55L45 55L45 54ZM39 55L39 56L42 56L42 55ZM56 55L56 56L57 56L57 55ZM52 56L52 57L53 57L53 56ZM54 56L54 57L55 57L55 56ZM0 0L0 7L7 7L7 0ZM1 1L1 6L6 6L6 1ZM2 2L2 5L5 5L5 2ZM50 0L50 7L57 7L57 0ZM51 1L51 6L56 6L56 1ZM52 2L52 5L55 5L55 2ZM0 50L0 57L7 57L7 50ZM1 51L1 56L6 56L6 51ZM2 52L2 55L5 55L5 52Z" fill="#000000"/></g></g></svg>
