<?xml version="1.0" encoding="UTF-8"?>
<svg xmlns="http://www.w3.org/2000/svg" version="1.1" width="300" height="300" viewBox="0 0 300 300"><rect x="0" y="0" width="300" height="300" fill="#fefefe"/><g transform="scale(4.615)"><g transform="translate(4,4)"><path fill-rule="evenodd" d="M9 0L9 1L8 1L8 2L9 2L9 3L8 3L8 4L9 4L9 3L10 3L10 2L9 2L9 1L10 1L10 0ZM11 0L11 2L12 2L12 3L13 3L13 4L14 4L14 2L15 2L15 3L17 3L17 4L18 4L18 5L17 5L17 6L16 6L16 7L15 7L15 6L14 6L14 8L12 8L12 7L13 7L13 6L12 6L12 7L11 7L11 6L10 6L10 5L8 5L8 7L9 7L9 8L6 8L6 9L5 9L5 8L0 8L0 9L1 9L1 11L2 11L2 16L1 16L1 15L0 15L0 16L1 16L1 17L2 17L2 18L5 18L5 17L4 17L4 16L3 16L3 15L4 15L4 12L5 12L5 10L6 10L6 11L8 11L8 12L6 12L6 13L5 13L5 15L8 15L8 14L9 14L9 16L6 16L6 17L9 17L9 16L10 16L10 18L6 18L6 19L2 19L2 20L3 20L3 21L1 21L1 22L0 22L0 23L2 23L2 24L1 24L1 25L2 25L2 26L0 26L0 27L1 27L1 28L3 28L3 29L1 29L1 30L2 30L2 31L1 31L1 33L2 33L2 34L0 34L0 37L1 37L1 35L2 35L2 36L4 36L4 37L3 37L3 38L4 38L4 39L5 39L5 40L3 40L3 39L1 39L1 40L0 40L0 41L1 41L1 43L0 43L0 44L1 44L1 43L2 43L2 42L4 42L4 43L3 43L3 44L2 44L2 45L0 45L0 48L5 48L5 47L7 47L7 48L6 48L6 49L8 49L8 51L9 51L9 52L8 52L8 57L9 57L9 54L10 54L10 53L12 53L12 54L11 54L11 57L15 57L15 56L14 56L14 55L16 55L16 56L17 56L17 57L19 57L19 55L20 55L20 54L19 54L19 53L20 53L20 52L21 52L21 51L22 51L22 52L23 52L23 51L22 51L22 50L25 50L25 51L26 51L26 53L25 53L25 52L24 52L24 53L21 53L21 54L22 54L22 55L23 55L23 56L24 56L24 55L23 55L23 54L24 54L24 53L25 53L25 55L26 55L26 54L30 54L30 53L31 53L31 51L32 51L32 52L33 52L33 51L34 51L34 52L35 52L35 54L36 54L36 56L35 56L35 55L34 55L34 54L33 54L33 53L32 53L32 54L31 54L31 56L30 56L30 55L29 55L29 56L27 56L27 57L29 57L29 56L30 56L30 57L31 57L31 56L35 56L35 57L39 57L39 56L37 56L37 54L38 54L38 55L41 55L41 57L44 57L44 56L42 56L42 55L44 55L44 54L45 54L45 53L44 53L44 52L45 52L45 51L43 51L43 49L44 49L44 50L46 50L46 53L47 53L47 50L48 50L48 54L47 54L47 55L45 55L45 57L47 57L47 55L48 55L48 56L50 56L50 57L52 57L52 55L51 55L51 53L52 53L52 54L53 54L53 57L54 57L54 56L55 56L55 57L56 57L56 56L55 56L55 55L54 55L54 54L55 54L55 51L56 51L56 52L57 52L57 51L56 51L56 50L55 50L55 49L53 49L53 48L56 48L56 49L57 49L57 48L56 48L56 46L57 46L57 43L56 43L56 42L55 42L55 41L53 41L53 40L55 40L55 39L57 39L57 37L55 37L55 36L57 36L57 35L53 35L53 34L52 34L52 33L53 33L53 32L54 32L54 34L57 34L57 32L56 32L56 30L57 30L57 28L56 28L56 26L57 26L57 25L56 25L56 22L57 22L57 20L56 20L56 18L57 18L57 17L56 17L56 16L57 16L57 15L56 15L56 14L57 14L57 12L56 12L56 10L54 10L54 11L52 11L52 10L53 10L53 9L54 9L54 8L53 8L53 9L52 9L52 8L51 8L51 9L52 9L52 10L50 10L50 8L49 8L49 6L48 6L48 7L47 7L47 5L48 5L48 0L46 0L46 1L47 1L47 2L44 2L44 3L42 3L42 2L43 2L43 0L41 0L41 1L40 1L40 0L39 0L39 1L38 1L38 0L37 0L37 1L38 1L38 4L37 4L37 3L36 3L36 0L35 0L35 1L33 1L33 0L29 0L29 2L28 2L28 1L25 1L25 0L23 0L23 2L22 2L22 0L21 0L21 2L20 2L20 0L17 0L17 1L15 1L15 0L14 0L14 2L12 2L12 0ZM31 1L31 3L32 3L32 4L31 4L31 8L32 8L32 10L29 10L29 9L28 9L28 10L27 10L27 11L26 11L26 12L25 12L25 10L24 10L24 13L22 13L22 12L21 12L21 11L22 11L22 10L23 10L23 9L24 9L24 6L23 6L23 5L24 5L24 4L23 4L23 3L26 3L26 4L25 4L25 8L26 8L26 4L27 4L27 3L28 3L28 4L30 4L30 3L28 3L28 2L23 2L23 3L20 3L20 2L17 2L17 3L19 3L19 4L22 4L22 5L21 5L21 7L22 7L22 8L19 8L19 7L20 7L20 5L18 5L18 6L17 6L17 7L16 7L16 8L14 8L14 9L13 9L13 10L15 10L15 11L18 11L18 9L16 9L16 8L19 8L19 9L20 9L20 10L19 10L19 12L20 12L20 14L21 14L21 13L22 13L22 14L24 14L24 13L26 13L26 17L25 17L25 15L24 15L24 16L23 16L23 15L17 15L17 13L18 13L18 12L17 12L17 13L16 13L16 12L15 12L15 13L13 13L13 12L14 12L14 11L11 11L11 12L12 12L12 13L11 13L11 14L10 14L10 16L11 16L11 18L10 18L10 19L11 19L11 20L7 20L7 19L6 19L6 20L4 20L4 21L3 21L3 24L4 24L4 25L5 25L5 26L9 26L9 27L10 27L10 26L9 26L9 24L8 24L8 23L9 23L9 22L10 22L10 21L11 21L11 20L13 20L13 21L12 21L12 23L11 23L11 24L10 24L10 25L11 25L11 27L12 27L12 26L14 26L14 27L15 27L15 26L17 26L17 24L18 24L18 23L17 23L17 24L16 24L16 23L14 23L14 22L16 22L16 21L17 21L17 20L18 20L18 19L19 19L19 20L20 20L20 21L19 21L19 22L20 22L20 23L19 23L19 24L22 24L22 25L19 25L19 26L18 26L18 27L16 27L16 28L14 28L14 29L16 29L16 30L18 30L18 31L17 31L17 32L15 32L15 33L14 33L14 31L15 31L15 30L13 30L13 31L12 31L12 32L11 32L11 31L10 31L10 30L12 30L12 28L9 28L9 29L10 29L10 30L9 30L9 31L10 31L10 32L7 32L7 31L5 31L5 32L7 32L7 33L6 33L6 34L5 34L5 33L4 33L4 32L2 32L2 33L3 33L3 34L2 34L2 35L4 35L4 36L5 36L5 37L4 37L4 38L5 38L5 37L6 37L6 38L7 38L7 39L6 39L6 40L7 40L7 39L8 39L8 40L11 40L11 42L10 42L10 43L6 43L6 42L9 42L9 41L6 41L6 42L5 42L5 43L4 43L4 44L3 44L3 45L6 45L6 46L8 46L8 48L9 48L9 49L11 49L11 50L14 50L14 51L15 51L15 52L16 52L16 53L14 53L14 54L12 54L12 55L14 55L14 54L16 54L16 53L17 53L17 52L20 52L20 50L21 50L21 49L23 49L23 48L24 48L24 49L25 49L25 50L26 50L26 48L27 48L27 47L28 47L28 48L29 48L29 47L28 47L28 46L29 46L29 45L28 45L28 44L25 44L25 43L27 43L27 42L30 42L30 41L31 41L31 42L32 42L32 43L33 43L33 44L31 44L31 45L30 45L30 46L31 46L31 45L32 45L32 46L35 46L35 47L34 47L34 48L32 48L32 49L31 49L31 50L36 50L36 52L37 52L37 53L38 53L38 54L40 54L40 53L42 53L42 50L41 50L41 48L42 48L42 49L43 49L43 48L44 48L44 49L45 49L45 48L46 48L46 50L47 50L47 49L48 49L48 48L51 48L51 46L52 46L52 47L54 47L54 46L56 46L56 43L55 43L55 44L54 44L54 45L53 45L53 43L54 43L54 42L53 42L53 41L51 41L51 42L50 42L50 43L49 43L49 42L48 42L48 41L49 41L49 39L47 39L47 37L48 37L48 38L49 38L49 36L50 36L50 39L51 39L51 38L53 38L53 39L55 39L55 37L53 37L53 35L52 35L52 34L50 34L50 31L48 31L48 28L47 28L47 29L46 29L46 30L47 30L47 31L46 31L46 32L43 32L43 30L41 30L41 31L39 31L39 32L38 32L38 30L39 30L39 29L43 29L43 27L44 27L44 26L45 26L45 28L44 28L44 31L45 31L45 28L46 28L46 27L48 27L48 26L47 26L47 25L48 25L48 24L50 24L50 22L51 22L51 21L54 21L54 22L53 22L53 23L51 23L51 25L50 25L50 26L51 26L51 25L52 25L52 26L53 26L53 27L54 27L54 26L53 26L53 25L55 25L55 24L53 24L53 23L55 23L55 22L56 22L56 20L53 20L53 19L52 19L52 18L51 18L51 17L50 17L50 16L52 16L52 17L53 17L53 18L55 18L55 16L52 16L52 15L50 15L50 14L51 14L51 12L50 12L50 10L49 10L49 12L45 12L45 11L46 11L46 10L47 10L47 9L48 9L48 8L47 8L47 7L46 7L46 5L47 5L47 3L44 3L44 6L43 6L43 5L42 5L42 4L41 4L41 3L39 3L39 4L38 4L38 6L37 6L37 7L36 7L36 5L37 5L37 4L36 4L36 5L35 5L35 3L34 3L34 2L33 2L33 3L32 3L32 1ZM33 3L33 4L32 4L32 5L33 5L33 6L32 6L32 7L33 7L33 9L34 9L34 8L35 8L35 9L37 9L37 10L36 10L36 11L37 11L37 12L35 12L35 13L37 13L37 14L38 14L38 15L39 15L39 16L38 16L38 17L37 17L37 16L35 16L35 14L33 14L33 13L34 13L34 12L33 12L33 13L32 13L32 11L33 11L33 10L32 10L32 11L31 11L31 13L30 13L30 14L29 14L29 13L28 13L28 12L29 12L29 11L27 11L27 12L26 12L26 13L28 13L28 14L29 14L29 16L28 16L28 15L27 15L27 16L28 16L28 17L27 17L27 18L25 18L25 17L22 17L22 16L21 16L21 17L22 17L22 18L24 18L24 19L21 19L21 18L20 18L20 16L16 16L16 13L15 13L15 14L13 14L13 15L12 15L12 16L13 16L13 17L12 17L12 18L15 18L15 19L17 19L17 18L15 18L15 17L18 17L18 18L20 18L20 19L21 19L21 20L24 20L24 21L23 21L23 22L22 22L22 23L23 23L23 24L24 24L24 25L22 25L22 26L21 26L21 27L20 27L20 26L19 26L19 29L18 29L18 28L16 28L16 29L18 29L18 30L19 30L19 29L22 29L22 28L21 28L21 27L22 27L22 26L23 26L23 27L25 27L25 28L24 28L24 29L23 29L23 31L21 31L21 30L20 30L20 31L21 31L21 32L17 32L17 33L19 33L19 36L17 36L17 35L16 35L16 34L14 34L14 33L13 33L13 32L12 32L12 33L11 33L11 32L10 32L10 33L8 33L8 34L9 34L9 35L10 35L10 33L11 33L11 35L12 35L12 38L13 38L13 37L14 37L14 38L16 38L16 37L14 37L14 36L13 36L13 34L14 34L14 35L15 35L15 36L17 36L17 37L18 37L18 38L20 38L20 39L17 39L17 40L16 40L16 39L15 39L15 40L16 40L16 41L13 41L13 42L12 42L12 43L10 43L10 44L9 44L9 45L8 45L8 46L9 46L9 47L10 47L10 48L11 48L11 47L12 47L12 43L13 43L13 42L16 42L16 41L17 41L17 42L18 42L18 43L15 43L15 44L16 44L16 45L17 45L17 46L15 46L15 47L13 47L13 48L12 48L12 49L16 49L16 48L17 48L17 49L18 49L18 51L19 51L19 50L20 50L20 48L21 48L21 47L23 47L23 46L24 46L24 47L25 47L25 48L26 48L26 47L27 47L27 46L28 46L28 45L26 45L26 47L25 47L25 45L24 45L24 43L25 43L25 41L23 41L23 42L22 42L22 41L21 41L21 42L22 42L22 43L21 43L21 44L22 44L22 45L21 45L21 46L20 46L20 45L19 45L19 44L20 44L20 43L19 43L19 42L20 42L20 41L19 41L19 40L21 40L21 39L22 39L22 38L23 38L23 39L24 39L24 40L25 40L25 36L26 36L26 39L27 39L27 41L26 41L26 42L27 42L27 41L29 41L29 40L28 40L28 39L27 39L27 38L28 38L28 37L27 37L27 36L26 36L26 35L27 35L27 33L26 33L26 34L25 34L25 33L23 33L23 34L22 34L22 33L21 33L21 32L28 32L28 33L29 33L29 34L30 34L30 36L29 36L29 37L31 37L31 38L29 38L29 39L33 39L33 40L35 40L35 42L37 42L37 43L36 43L36 44L35 44L35 43L34 43L34 42L33 42L33 41L32 41L32 40L31 40L31 41L32 41L32 42L33 42L33 43L34 43L34 45L37 45L37 47L36 47L36 48L35 48L35 49L36 49L36 50L38 50L38 51L37 51L37 52L38 52L38 53L39 53L39 52L38 52L38 51L40 51L40 52L41 52L41 50L38 50L38 49L39 49L39 48L41 48L41 46L43 46L43 47L42 47L42 48L43 48L43 47L44 47L44 48L45 48L45 47L47 47L47 48L48 48L48 47L50 47L50 46L48 46L48 47L47 47L47 46L45 46L45 45L47 45L47 43L48 43L48 42L45 42L45 41L44 41L44 40L47 40L47 39L46 39L46 38L45 38L45 37L47 37L47 34L45 34L45 33L43 33L43 32L41 32L41 33L39 33L39 34L40 34L40 35L38 35L38 33L37 33L37 32L34 32L34 31L36 31L36 30L33 30L33 31L32 31L32 28L31 28L31 26L32 26L32 27L33 27L33 28L35 28L35 29L38 29L38 28L39 28L39 27L40 27L40 26L41 26L41 28L42 28L42 26L44 26L44 20L45 20L45 21L47 21L47 22L45 22L45 23L47 23L47 24L46 24L46 25L47 25L47 24L48 24L48 23L47 23L47 22L49 22L49 21L51 21L51 20L52 20L52 19L48 19L48 18L50 18L50 17L49 17L49 16L48 16L48 15L49 15L49 14L50 14L50 12L49 12L49 13L47 13L47 14L44 14L44 15L42 15L42 16L41 16L41 14L43 14L43 13L44 13L44 12L43 12L43 13L39 13L39 12L41 12L41 11L43 11L43 10L44 10L44 11L45 11L45 10L44 10L44 8L45 8L45 6L44 6L44 8L42 8L42 7L43 7L43 6L42 6L42 5L41 5L41 4L40 4L40 5L39 5L39 6L38 6L38 7L37 7L37 8L35 8L35 5L33 5L33 4L34 4L34 3ZM15 4L15 5L16 5L16 4ZM45 4L45 5L46 5L46 4ZM27 5L27 8L30 8L30 5ZM40 5L40 6L39 6L39 7L40 7L40 8L39 8L39 9L38 9L38 8L37 8L37 9L38 9L38 10L39 10L39 9L41 9L41 7L42 7L42 6L41 6L41 5ZM9 6L9 7L10 7L10 6ZM18 6L18 7L19 7L19 6ZM22 6L22 7L23 7L23 6ZM28 6L28 7L29 7L29 6ZM33 6L33 7L34 7L34 6ZM40 6L40 7L41 7L41 6ZM10 8L10 9L8 9L8 11L9 11L9 12L8 12L8 13L9 13L9 12L10 12L10 9L12 9L12 8ZM55 8L55 9L56 9L56 8ZM3 9L3 11L4 11L4 10L5 10L5 9ZM6 9L6 10L7 10L7 9ZM15 9L15 10L16 10L16 9ZM21 9L21 10L20 10L20 11L21 11L21 10L22 10L22 9ZM40 10L40 11L41 11L41 10ZM52 12L52 13L53 13L53 12ZM54 12L54 13L55 13L55 14L56 14L56 12ZM0 13L0 14L1 14L1 13ZM6 13L6 14L7 14L7 13ZM31 13L31 14L30 14L30 15L31 15L31 16L32 16L32 17L33 17L33 18L30 18L30 19L28 19L28 18L27 18L27 19L26 19L26 20L25 20L25 21L24 21L24 22L23 22L23 23L24 23L24 24L25 24L25 25L26 25L26 26L25 26L25 27L26 27L26 26L27 26L27 25L28 25L28 26L29 26L29 24L30 24L30 25L31 25L31 24L32 24L32 26L33 26L33 27L34 27L34 26L36 26L36 28L37 28L37 27L39 27L39 26L40 26L40 25L41 25L41 26L42 26L42 25L41 25L41 24L40 24L40 22L39 22L39 21L43 21L43 20L44 20L44 18L45 18L45 20L47 20L47 21L48 21L48 20L47 20L47 19L46 19L46 18L47 18L47 17L46 17L46 18L45 18L45 16L47 16L47 15L44 15L44 18L43 18L43 20L42 20L42 18L41 18L41 20L39 20L39 21L38 21L38 19L39 19L39 17L41 17L41 16L39 16L39 17L38 17L38 18L37 18L37 17L35 17L35 16L32 16L32 15L31 15L31 14L32 14L32 13ZM38 13L38 14L39 14L39 13ZM13 15L13 16L14 16L14 17L15 17L15 16L14 16L14 15ZM42 16L42 17L43 17L43 16ZM33 18L33 19L31 19L31 20L29 20L29 21L25 21L25 22L26 22L26 23L25 23L25 24L27 24L27 23L28 23L28 24L29 24L29 23L30 23L30 24L31 24L31 23L30 23L30 22L31 22L31 21L32 21L32 20L33 20L33 21L35 21L35 23L34 23L34 22L33 22L33 23L32 23L32 24L33 24L33 25L37 25L37 26L38 26L38 24L39 24L39 25L40 25L40 24L39 24L39 22L38 22L38 21L37 21L37 20L36 20L36 19L35 19L35 18ZM0 19L0 20L1 20L1 19ZM13 19L13 20L14 20L14 19ZM6 20L6 21L7 21L7 20ZM15 20L15 21L16 21L16 20ZM4 21L4 22L5 22L5 21ZM13 21L13 22L14 22L14 21ZM6 22L6 23L8 23L8 22ZM37 22L37 24L38 24L38 22ZM12 23L12 24L11 24L11 25L12 25L12 24L14 24L14 26L15 26L15 25L16 25L16 24L14 24L14 23ZM6 24L6 25L7 25L7 24ZM2 26L2 27L3 27L3 28L4 28L4 26ZM5 27L5 30L8 30L8 27ZM27 27L27 30L30 30L30 27ZM49 27L49 30L52 30L52 27ZM6 28L6 29L7 29L7 28ZM25 28L25 29L26 29L26 28ZM28 28L28 29L29 29L29 28ZM50 28L50 29L51 29L51 28ZM54 28L54 29L53 29L53 31L52 31L52 32L51 32L51 33L52 33L52 32L53 32L53 31L55 31L55 30L54 30L54 29L55 29L55 28ZM3 29L3 31L4 31L4 29ZM24 30L24 31L25 31L25 30ZM28 31L28 32L29 32L29 33L31 33L31 34L32 34L32 35L33 35L33 36L32 36L32 37L33 37L33 38L35 38L35 36L37 36L37 34L35 34L35 33L34 33L34 32L32 32L32 31L30 31L30 32L29 32L29 31ZM47 31L47 32L48 32L48 33L49 33L49 32L48 32L48 31ZM31 32L31 33L32 33L32 32ZM55 32L55 33L56 33L56 32ZM20 33L20 36L19 36L19 37L23 37L23 38L24 38L24 37L23 37L23 36L24 36L24 34L23 34L23 36L21 36L21 33ZM33 33L33 34L34 34L34 36L35 36L35 34L34 34L34 33ZM6 34L6 35L5 35L5 36L6 36L6 37L7 37L7 38L8 38L8 39L9 39L9 37L10 37L10 38L11 38L11 36L9 36L9 37L7 37L7 36L6 36L6 35L7 35L7 34ZM42 34L42 35L41 35L41 36L40 36L40 37L39 37L39 36L38 36L38 38L37 38L37 39L35 39L35 40L38 40L38 42L39 42L39 45L38 45L38 46L41 46L41 44L42 44L42 42L41 42L41 41L42 41L42 39L43 39L43 40L44 40L44 39L45 39L45 38L44 38L44 37L45 37L45 36L44 36L44 35L45 35L45 34ZM49 34L49 35L50 35L50 36L51 36L51 37L52 37L52 35L50 35L50 34ZM41 36L41 37L40 37L40 38L41 38L41 39L38 39L38 40L41 40L41 39L42 39L42 38L43 38L43 37L44 37L44 36ZM41 37L41 38L42 38L42 37ZM11 39L11 40L13 40L13 39ZM17 40L17 41L18 41L18 42L19 42L19 41L18 41L18 40ZM39 41L39 42L40 42L40 41ZM43 41L43 44L44 44L44 45L45 45L45 44L46 44L46 43L44 43L44 41ZM23 42L23 43L24 43L24 42ZM51 42L51 43L50 43L50 45L51 45L51 43L53 43L53 42ZM5 43L5 44L6 44L6 45L7 45L7 44L6 44L6 43ZM40 43L40 44L41 44L41 43ZM10 44L10 45L11 45L11 44ZM17 44L17 45L18 45L18 44ZM48 44L48 45L49 45L49 44ZM22 45L22 46L23 46L23 45ZM1 46L1 47L2 47L2 46ZM3 46L3 47L5 47L5 46ZM10 46L10 47L11 47L11 46ZM18 46L18 47L20 47L20 46ZM44 46L44 47L45 47L45 46ZM38 47L38 48L37 48L37 49L38 49L38 48L39 48L39 47ZM27 49L27 52L30 52L30 49ZM49 49L49 52L52 52L52 49ZM15 50L15 51L16 51L16 52L17 52L17 50ZM28 50L28 51L29 51L29 50ZM50 50L50 51L51 51L51 50ZM54 50L54 51L55 51L55 50ZM11 51L11 52L12 52L12 51ZM9 52L9 53L10 53L10 52ZM53 52L53 54L54 54L54 52ZM43 53L43 54L44 54L44 53ZM50 55L50 56L51 56L51 55ZM25 56L25 57L26 57L26 56ZM0 0L0 7L7 7L7 0ZM1 1L1 6L6 6L6 1ZM2 2L2 5L5 5L5 2ZM50 0L50 7L57 7L57 0ZM51 1L51 6L56 6L56 1ZM52 2L52 5L55 5L55 2ZM0 50L0 57L7 57L7 50ZM1 51L1 56L6 56L6 51ZM2 52L2 55L5 55L5 52Z" fill="#000000"/></g></g></svg>
