<?xml version="1.0" encoding="UTF-8"?>
<svg xmlns="http://www.w3.org/2000/svg" version="1.1" width="300" height="300" viewBox="0 0 300 300"><rect x="0" y="0" width="300" height="300" fill="#fefefe"/><g transform="scale(4.615)"><g transform="translate(4,4)"><path fill-rule="evenodd" d="M8 0L8 4L9 4L9 5L8 5L8 7L9 7L9 6L10 6L10 7L11 7L11 8L10 8L10 9L11 9L11 10L10 10L10 13L9 13L9 12L8 12L8 11L9 11L9 9L8 9L8 11L7 11L7 10L5 10L5 11L7 11L7 12L4 12L4 13L9 13L9 14L6 14L6 15L7 15L7 16L6 16L6 17L5 17L5 15L4 15L4 14L3 14L3 15L2 15L2 14L0 14L0 16L1 16L1 17L0 17L0 18L1 18L1 19L4 19L4 21L3 21L3 20L2 20L2 21L3 21L3 22L4 22L4 23L5 23L5 22L6 22L6 23L7 23L7 22L6 22L6 21L8 21L8 24L2 24L2 22L0 22L0 23L1 23L1 24L2 24L2 25L4 25L4 27L3 27L3 26L2 26L2 27L3 27L3 28L2 28L2 29L1 29L1 31L7 31L7 32L3 32L3 33L2 33L2 32L0 32L0 34L1 34L1 35L4 35L4 36L5 36L5 39L4 39L4 37L2 37L2 36L1 36L1 37L0 37L0 40L2 40L2 41L0 41L0 43L1 43L1 44L2 44L2 47L1 47L1 46L0 46L0 48L5 48L5 47L7 47L7 48L6 48L6 49L7 49L7 48L9 48L9 49L8 49L8 50L10 50L10 51L8 51L8 53L9 53L9 55L8 55L8 57L9 57L9 56L10 56L10 57L13 57L13 56L14 56L14 54L15 54L15 55L16 55L16 54L17 54L17 57L22 57L22 55L21 55L21 56L19 56L19 55L20 55L20 54L21 54L21 53L22 53L22 52L21 52L21 49L22 49L22 50L23 50L23 52L24 52L24 53L23 53L23 55L24 55L24 57L25 57L25 54L26 54L26 57L27 57L27 54L26 54L26 53L28 53L28 57L29 57L29 55L30 55L30 57L34 57L34 55L35 55L35 57L37 57L37 56L36 56L36 54L37 54L37 55L39 55L39 57L40 57L40 54L43 54L43 55L41 55L41 56L44 56L44 57L45 57L45 56L46 56L46 57L47 57L47 56L48 56L48 57L50 57L50 55L51 55L51 56L53 56L53 57L54 57L54 56L53 56L53 54L54 54L54 55L55 55L55 54L57 54L57 53L55 53L55 52L56 52L56 50L57 50L57 49L56 49L56 45L57 45L57 44L56 44L56 45L54 45L54 44L53 44L53 43L54 43L54 42L55 42L55 43L56 43L56 42L57 42L57 40L55 40L55 41L53 41L53 40L52 40L52 39L57 39L57 38L52 38L52 37L51 37L51 36L53 36L53 37L56 37L56 36L53 36L53 35L56 35L56 30L55 30L55 29L54 29L54 28L53 28L53 27L54 27L54 26L55 26L55 28L56 28L56 26L55 26L55 25L53 25L53 26L51 26L51 25L52 25L52 24L53 24L53 23L55 23L55 24L56 24L56 25L57 25L57 24L56 24L56 20L55 20L55 22L53 22L53 21L52 21L52 20L53 20L53 19L49 19L49 17L50 17L50 18L52 18L52 16L51 16L51 15L52 15L52 14L53 14L53 13L54 13L54 14L55 14L55 16L53 16L53 17L55 17L55 16L56 16L56 18L55 18L55 19L56 19L56 18L57 18L57 15L56 15L56 12L55 12L55 13L54 13L54 12L53 12L53 13L52 13L52 14L51 14L51 12L52 12L52 11L54 11L54 10L52 10L52 8L51 8L51 9L50 9L50 10L49 10L49 9L48 9L48 8L47 8L47 11L48 11L48 12L49 12L49 11L50 11L50 16L49 16L49 15L48 15L48 16L47 16L47 15L46 15L46 11L45 11L45 10L44 10L44 9L46 9L46 7L47 7L47 5L48 5L48 0L41 0L41 1L40 1L40 2L39 2L39 3L40 3L40 4L38 4L38 5L36 5L36 4L35 4L35 2L36 2L36 3L38 3L38 1L39 1L39 0L38 0L38 1L37 1L37 2L36 2L36 0L35 0L35 1L34 1L34 0L32 0L32 1L31 1L31 0L30 0L30 1L28 1L28 0L26 0L26 1L28 1L28 4L26 4L26 3L25 3L25 0L23 0L23 3L21 3L21 5L22 5L22 7L21 7L21 6L20 6L20 5L19 5L19 4L18 4L18 5L17 5L17 6L16 6L16 5L15 5L15 4L14 4L14 1L15 1L15 2L18 2L18 1L16 1L16 0L11 0L11 2L9 2L9 0ZM20 0L20 1L21 1L21 2L22 2L22 1L21 1L21 0ZM30 1L30 2L31 2L31 3L32 3L32 5L33 5L33 4L34 4L34 5L35 5L35 7L34 7L34 6L33 6L33 7L32 7L32 6L31 6L31 10L29 10L29 9L26 9L26 6L25 6L25 7L24 7L24 6L23 6L23 7L22 7L22 10L21 10L21 11L20 11L20 9L16 9L16 8L15 8L15 9L16 9L16 12L17 12L17 13L15 13L15 12L14 12L14 11L13 11L13 12L12 12L12 10L11 10L11 13L15 13L15 14L17 14L17 15L18 15L18 14L17 14L17 13L18 13L18 12L21 12L21 11L22 11L22 12L23 12L23 13L21 13L21 14L22 14L22 15L19 15L19 16L20 16L20 17L19 17L19 18L20 18L20 20L19 20L19 19L18 19L18 20L19 20L19 21L17 21L17 18L18 18L18 17L16 17L16 16L15 16L15 15L14 15L14 14L9 14L9 15L11 15L11 16L8 16L8 17L9 17L9 18L7 18L7 17L6 17L6 18L7 18L7 19L6 19L6 20L7 20L7 19L8 19L8 20L9 20L9 19L10 19L10 17L11 17L11 16L13 16L13 17L12 17L12 18L11 18L11 20L10 20L10 21L9 21L9 23L10 23L10 24L9 24L9 25L10 25L10 26L11 26L11 27L10 27L10 29L9 29L9 30L10 30L10 31L9 31L9 36L8 36L8 34L7 34L7 33L6 33L6 34L5 34L5 33L4 33L4 34L5 34L5 36L7 36L7 37L6 37L6 38L7 38L7 39L5 39L5 40L4 40L4 39L3 39L3 38L1 38L1 39L3 39L3 41L6 41L6 42L7 42L7 43L6 43L6 44L5 44L5 43L4 43L4 44L3 44L3 42L1 42L1 43L2 43L2 44L3 44L3 47L5 47L5 45L6 45L6 46L7 46L7 45L6 45L6 44L8 44L8 47L10 47L10 48L11 48L11 47L10 47L10 46L11 46L11 45L12 45L12 46L13 46L13 45L14 45L14 47L13 47L13 48L14 48L14 49L16 49L16 51L15 51L15 50L13 50L13 49L12 49L12 53L13 53L13 52L15 52L15 53L17 53L17 54L18 54L18 55L19 55L19 53L20 53L20 51L19 51L19 50L20 50L20 49L19 49L19 50L18 50L18 51L17 51L17 49L16 49L16 47L15 47L15 44L17 44L17 45L16 45L16 46L17 46L17 47L18 47L18 48L20 48L20 47L21 47L21 48L22 48L22 49L23 49L23 48L24 48L24 49L25 49L25 48L28 48L28 47L26 47L26 46L27 46L27 45L28 45L28 46L29 46L29 48L31 48L31 50L32 50L32 51L31 51L31 52L32 52L32 51L35 51L35 52L36 52L36 49L35 49L35 45L34 45L34 47L32 47L32 46L33 46L33 45L32 45L32 43L33 43L33 44L37 44L37 46L38 46L38 45L39 45L39 46L40 46L40 51L38 51L38 49L39 49L39 47L38 47L38 49L37 49L37 51L38 51L38 52L37 52L37 54L38 54L38 52L40 52L40 53L44 53L44 56L45 56L45 55L46 55L46 54L47 54L47 55L49 55L49 54L51 54L51 55L52 55L52 54L51 54L51 53L49 53L49 54L47 54L47 53L48 53L48 52L47 52L47 49L48 49L48 47L49 47L49 45L50 45L50 47L51 47L51 45L50 45L50 43L51 43L51 44L52 44L52 43L53 43L53 41L52 41L52 40L47 40L47 39L51 39L51 38L50 38L50 37L49 37L49 36L50 36L50 35L53 35L53 34L54 34L54 33L51 33L51 32L52 32L52 31L49 31L49 32L50 32L50 35L49 35L49 36L48 36L48 35L47 35L47 34L49 34L49 33L48 33L48 31L47 31L47 30L48 30L48 27L46 27L46 26L47 26L47 25L49 25L49 26L50 26L50 25L49 25L49 24L50 24L50 22L49 22L49 24L48 24L48 23L47 23L47 21L46 21L46 19L47 19L47 16L45 16L45 14L43 14L43 15L42 15L42 17L43 17L43 18L42 18L42 19L41 19L41 18L40 18L40 17L41 17L41 13L44 13L44 12L45 12L45 11L43 11L43 10L42 10L42 11L43 11L43 12L41 12L41 11L40 11L40 10L41 10L41 8L42 8L42 9L44 9L44 8L45 8L45 7L46 7L46 5L47 5L47 3L44 3L44 2L43 2L43 3L44 3L44 4L43 4L43 7L42 7L42 6L41 6L41 5L39 5L39 7L40 7L40 6L41 6L41 8L40 8L40 10L38 10L38 9L39 9L39 8L37 8L37 9L35 9L35 7L36 7L36 5L35 5L35 4L34 4L34 3L32 3L32 2L34 2L34 1L32 1L32 2L31 2L31 1ZM46 1L46 2L47 2L47 1ZM12 2L12 3L13 3L13 2ZM40 2L40 3L42 3L42 2ZM16 3L16 4L17 4L17 3ZM23 3L23 5L24 5L24 4L25 4L25 3ZM10 4L10 6L11 6L11 7L12 7L12 8L13 8L13 10L14 10L14 8L13 8L13 7L14 7L14 6L15 6L15 7L16 7L16 6L15 6L15 5L14 5L14 6L13 6L13 5L11 5L11 4ZM44 4L44 7L45 7L45 4ZM18 5L18 6L17 6L17 8L19 8L19 7L20 7L20 6L19 6L19 5ZM27 5L27 8L30 8L30 5ZM12 6L12 7L13 7L13 6ZM18 6L18 7L19 7L19 6ZM28 6L28 7L29 7L29 6ZM37 6L37 7L38 7L38 6ZM48 6L48 7L49 7L49 6ZM23 7L23 11L24 11L24 13L23 13L23 14L24 14L24 15L22 15L22 16L24 16L24 15L25 15L25 16L26 16L26 18L25 18L25 17L20 17L20 18L21 18L21 20L20 20L20 21L19 21L19 22L18 22L18 23L20 23L20 22L21 22L21 23L22 23L22 24L23 24L23 23L24 23L24 25L19 25L19 24L17 24L17 25L18 25L18 27L16 27L16 28L15 28L15 26L16 26L16 24L14 24L14 23L16 23L16 22L17 22L17 21L15 21L15 20L16 20L16 17L15 17L15 16L14 16L14 15L13 15L13 16L14 16L14 18L15 18L15 20L14 20L14 19L13 19L13 18L12 18L12 20L13 20L13 21L14 21L14 22L13 22L13 24L12 24L12 23L11 23L11 26L12 26L12 29L11 29L11 30L12 30L12 29L14 29L14 30L13 30L13 31L12 31L12 32L11 32L11 33L10 33L10 35L12 35L12 36L9 36L9 37L11 37L11 38L8 38L8 40L6 40L6 41L7 41L7 42L9 42L9 41L10 41L10 40L9 40L9 39L11 39L11 43L12 43L12 44L13 44L13 43L14 43L14 44L15 44L15 43L16 43L16 40L17 40L17 38L19 38L19 37L22 37L22 35L23 35L23 37L24 37L24 38L25 38L25 39L26 39L26 40L25 40L25 41L24 41L24 39L23 39L23 38L20 38L20 39L19 39L19 40L18 40L18 41L17 41L17 43L18 43L18 41L20 41L20 42L21 42L21 41L22 41L22 40L23 40L23 42L26 42L26 41L27 41L27 43L25 43L25 44L24 44L24 43L23 43L23 44L22 44L22 43L21 43L21 45L20 45L20 43L19 43L19 44L18 44L18 45L17 45L17 46L18 46L18 47L19 47L19 45L20 45L20 46L21 46L21 47L22 47L22 48L23 48L23 47L24 47L24 48L25 48L25 47L24 47L24 46L26 46L26 45L27 45L27 44L28 44L28 40L29 40L29 41L30 41L30 40L31 40L31 39L33 39L33 40L32 40L32 41L31 41L31 43L32 43L32 41L33 41L33 43L37 43L37 44L39 44L39 45L40 45L40 46L41 46L41 52L42 52L42 50L43 50L43 49L42 49L42 47L44 47L44 49L47 49L47 47L48 47L48 45L47 45L47 44L49 44L49 43L50 43L50 42L49 42L49 41L48 41L48 43L47 43L47 44L46 44L46 45L45 45L45 44L44 44L44 45L43 45L43 44L42 44L42 43L39 43L39 42L40 42L40 40L42 40L42 41L41 41L41 42L43 42L43 41L44 41L44 43L45 43L45 41L46 41L46 39L47 39L47 38L46 38L46 37L47 37L47 36L46 36L46 33L47 33L47 31L46 31L46 30L45 30L45 27L43 27L43 26L44 26L44 25L45 25L45 26L46 26L46 25L45 25L45 24L47 24L47 23L46 23L46 21L45 21L45 16L44 16L44 15L43 15L43 16L44 16L44 22L43 22L43 21L42 21L42 20L41 20L41 21L40 21L40 18L39 18L39 17L40 17L40 13L38 13L38 15L39 15L39 17L38 17L38 16L37 16L37 15L35 15L35 17L38 17L38 18L39 18L39 19L37 19L37 18L34 18L34 13L33 13L33 10L34 10L34 12L35 12L35 13L36 13L36 14L37 14L37 12L39 12L39 11L37 11L37 12L36 12L36 10L34 10L34 9L33 9L33 8L34 8L34 7L33 7L33 8L32 8L32 11L29 11L29 10L28 10L28 11L27 11L27 10L25 10L25 9L24 9L24 7ZM0 8L0 9L2 9L2 8ZM4 8L4 9L3 9L3 10L2 10L2 11L0 11L0 13L1 13L1 12L3 12L3 10L4 10L4 9L7 9L7 8ZM53 8L53 9L56 9L56 10L55 10L55 11L56 11L56 10L57 10L57 8ZM17 10L17 11L18 11L18 10ZM50 10L50 11L51 11L51 10ZM26 11L26 14L25 14L25 15L26 15L26 16L27 16L27 15L28 15L28 14L27 14L27 13L29 13L29 16L31 16L31 19L34 19L34 20L33 20L33 21L34 21L34 22L35 22L35 23L34 23L34 24L33 24L33 25L34 25L34 26L33 26L33 27L32 27L32 23L33 23L33 22L31 22L31 23L28 23L28 22L27 22L27 21L24 21L24 20L25 20L25 18L24 18L24 19L23 19L23 18L22 18L22 19L23 19L23 20L21 20L21 21L24 21L24 22L25 22L25 23L26 23L26 22L27 22L27 23L28 23L28 25L27 25L27 26L29 26L29 25L31 25L31 31L32 31L32 32L29 32L29 33L28 33L28 34L26 34L26 35L27 35L27 36L25 36L25 34L24 34L24 36L25 36L25 37L27 37L27 39L28 39L28 38L29 38L29 39L31 39L31 38L33 38L33 39L34 39L34 42L35 42L35 39L37 39L37 42L38 42L38 39L39 39L39 40L40 40L40 38L38 38L38 36L37 36L37 38L35 38L35 33L34 33L34 35L33 35L33 36L34 36L34 37L32 37L32 36L31 36L31 35L32 35L32 34L33 34L33 33L32 33L32 32L33 32L33 31L32 31L32 28L33 28L33 27L34 27L34 31L35 31L35 30L37 30L37 32L38 32L38 30L37 30L37 29L38 29L38 28L37 28L37 27L39 27L39 26L38 26L38 25L40 25L40 27L41 27L41 28L40 28L40 29L39 29L39 32L40 32L40 33L39 33L39 34L38 34L38 33L37 33L37 34L38 34L38 35L40 35L40 36L39 36L39 37L41 37L41 39L42 39L42 37L41 37L41 36L43 36L43 37L44 37L44 38L43 38L43 39L46 39L46 38L45 38L45 37L44 37L44 35L45 35L45 33L46 33L46 31L45 31L45 30L44 30L44 29L43 29L43 28L42 28L42 26L41 26L41 24L42 24L42 23L43 23L43 25L44 25L44 24L45 24L45 22L44 22L44 23L43 23L43 22L40 22L40 21L39 21L39 20L38 20L38 21L37 21L37 22L35 22L35 20L36 20L36 19L34 19L34 18L32 18L32 15L30 15L30 13L31 13L31 14L32 14L32 12L29 12L29 11L28 11L28 12L27 12L27 11ZM19 13L19 14L20 14L20 13ZM47 13L47 14L49 14L49 13ZM26 14L26 15L27 15L27 14ZM2 16L2 18L3 18L3 17L4 17L4 19L5 19L5 17L4 17L4 16ZM50 16L50 17L51 17L51 16ZM27 17L27 19L26 19L26 20L27 20L27 19L30 19L30 18L28 18L28 17ZM0 20L0 21L1 21L1 20ZM28 20L28 21L29 21L29 20ZM31 20L31 21L32 21L32 20ZM49 20L49 21L51 21L51 22L52 22L52 23L51 23L51 24L52 24L52 23L53 23L53 22L52 22L52 21L51 21L51 20ZM4 21L4 22L5 22L5 21ZM38 21L38 23L39 23L39 21ZM34 24L34 25L37 25L37 24ZM6 25L6 26L7 26L7 25ZM12 25L12 26L13 26L13 27L14 27L14 26L13 26L13 25ZM25 25L25 26L23 26L23 27L26 27L26 25ZM20 26L20 28L18 28L18 29L15 29L15 30L14 30L14 31L13 31L13 32L12 32L12 33L11 33L11 34L12 34L12 35L14 35L14 36L12 36L12 37L13 37L13 38L12 38L12 42L13 42L13 41L14 41L14 42L15 42L15 39L16 39L16 38L17 38L17 35L18 35L18 36L19 36L19 35L20 35L20 33L19 33L19 35L18 35L18 33L17 33L17 31L20 31L20 32L21 32L21 31L22 31L22 33L21 33L21 34L23 34L23 33L25 33L25 32L26 32L26 33L27 33L27 32L28 32L28 31L27 31L27 32L26 32L26 31L22 31L22 30L23 30L23 29L25 29L25 30L26 30L26 29L25 29L25 28L22 28L22 27L21 27L21 26ZM36 26L36 27L37 27L37 26ZM5 27L5 30L8 30L8 27ZM27 27L27 30L30 30L30 27ZM49 27L49 30L52 30L52 27ZM6 28L6 29L7 29L7 28ZM20 28L20 30L22 30L22 29L21 29L21 28ZM28 28L28 29L29 29L29 28ZM35 28L35 29L37 29L37 28ZM46 28L46 29L47 29L47 28ZM50 28L50 29L51 29L51 28ZM2 29L2 30L4 30L4 29ZM18 29L18 30L19 30L19 29ZM41 29L41 30L40 30L40 32L41 32L41 33L40 33L40 34L42 34L42 35L43 35L43 33L45 33L45 31L44 31L44 30L43 30L43 29ZM15 30L15 31L14 31L14 32L13 32L13 34L15 34L15 35L17 35L17 34L16 34L16 33L15 33L15 32L16 32L16 30ZM53 30L53 32L55 32L55 31L54 31L54 30ZM29 33L29 34L28 34L28 36L27 36L27 37L28 37L28 36L29 36L29 37L31 37L31 36L30 36L30 34L31 34L31 33ZM6 34L6 35L7 35L7 34ZM15 36L15 37L14 37L14 38L15 38L15 37L16 37L16 36ZM48 37L48 38L49 38L49 37ZM37 38L37 39L38 39L38 38ZM13 39L13 40L14 40L14 39ZM8 40L8 41L9 41L9 40ZM51 41L51 43L52 43L52 41ZM9 43L9 46L10 46L10 43ZM40 44L40 45L41 45L41 44ZM21 45L21 46L22 46L22 47L23 47L23 45ZM30 45L30 46L32 46L32 45ZM46 45L46 47L47 47L47 45ZM52 45L52 48L53 48L53 49L54 49L54 48L55 48L55 46L53 46L53 45ZM44 46L44 47L45 47L45 46ZM36 47L36 48L37 48L37 47ZM32 48L32 50L33 50L33 49L34 49L34 48ZM27 49L27 52L30 52L30 49ZM49 49L49 52L52 52L52 49ZM28 50L28 51L29 51L29 50ZM50 50L50 51L51 51L51 50ZM53 50L53 53L54 53L54 52L55 52L55 51L54 51L54 50ZM10 51L10 52L11 52L11 51ZM16 51L16 52L17 52L17 53L19 53L19 52L17 52L17 51ZM25 51L25 53L24 53L24 54L25 54L25 53L26 53L26 51ZM43 51L43 52L44 52L44 53L45 53L45 54L46 54L46 53L47 53L47 52L46 52L46 51ZM33 52L33 53L32 53L32 54L33 54L33 55L34 55L34 54L35 54L35 53L34 53L34 52ZM45 52L45 53L46 53L46 52ZM30 53L30 54L31 54L31 53ZM33 53L33 54L34 54L34 53ZM11 54L11 55L10 55L10 56L11 56L11 55L13 55L13 54ZM56 56L56 57L57 57L57 56ZM0 0L0 7L7 7L7 0ZM1 1L1 6L6 6L6 1ZM2 2L2 5L5 5L5 2ZM50 0L50 7L57 7L57 0ZM51 1L51 6L56 6L56 1ZM52 2L52 5L55 5L55 2ZM0 50L0 57L7 57L7 50ZM1 51L1 56L6 56L6 51ZM2 52L2 55L5 55L5 52Z" fill="#000000"/></g></g></svg>
